<?xml version="1.0" standalone="no"?>
<!DOCTYPE svg PUBLIC "-//W3C//DTD SVG 20010904//EN"
 "http://www.w3.org/TR/2001/REC-SVG-20010904/DTD/svg10.dtd">
<svg version="1.0" xmlns="http://www.w3.org/2000/svg"
 width="520.728952pt" height="530.327129pt" viewBox="0 0 520.728952 530.327129"
 preserveAspectRatio="xMidYMid meet">
<metadata>
Created by potrace 1.15, written by Peter Selinger 2001-2017
</metadata>
<g transform="translate(-720.000000,1236.837697) scale(0.100000,-0.100000)"
fill="#222222" stroke="none">
<path d="M9970 12346 c0 -14 -5 -28 -10 -31 -6 -4 -7 -12 -1 -23 7 -12 2 -23
-22 -43 -28 -25 -32 -26 -53 -12 -13 8 -28 12 -33 8 -6 -3 -28 6 -48 20 -37
24 -93 34 -93 16 0 -6 -15 -11 -32 -13 l-33 -3 23 -23 c13 -13 27 -33 31 -45
10 -26 -6 -67 -26 -67 -7 0 -16 -7 -19 -15 -8 -19 -24 -9 -24 15 0 17 -34 50
-52 50 -5 0 -8 -11 -8 -25 0 -21 -3 -24 -18 -16 -12 6 -23 5 -37 -5 -19 -14
-19 -15 -1 -32 11 -10 16 -11 11 -3 -7 11 -4 13 11 6 10 -4 26 -8 35 -9 14 0
16 -12 15 -67 0 -37 -4 -65 -8 -63 -4 2 -10 -1 -14 -7 -9 -16 34 -48 57 -42
13 4 19 0 19 -12 0 -12 5 -15 16 -11 9 4 23 1 30 -5 8 -6 20 -9 28 -6 8 3 13
0 12 -6 -4 -25 -18 -37 -46 -37 -19 0 -33 -7 -40 -20 -8 -14 -21 -20 -45 -20
-19 0 -35 -5 -35 -10 0 -6 -11 -3 -25 6 -24 15 -28 15 -80 -10 -31 -14 -60
-26 -65 -26 -6 0 -10 -11 -10 -24 0 -28 -61 -86 -90 -86 -11 0 -20 -4 -20 -10
0 -5 -7 -10 -15 -10 -8 0 -15 -6 -15 -14 0 -17 -49 -16 -68 1 -20 20 -30 15
-25 -11 3 -13 0 -26 -5 -30 -10 -6 5 -62 24 -87 6 -8 10 -39 9 -69 -2 -40 3
-62 17 -83 17 -23 17 -28 4 -33 -8 -3 -18 -14 -21 -25 -4 -10 -19 -26 -35 -36
-20 -12 -30 -26 -32 -47 -2 -21 -8 -30 -18 -29 -9 2 -24 -11 -33 -27 -10 -17
-22 -30 -28 -30 -5 0 -9 -25 -9 -55 0 -42 -4 -55 -15 -55 -11 0 -14 -15 -13
-72 2 -113 -6 -165 -30 -198 -12 -16 -22 -34 -22 -41 0 -6 -7 -9 -15 -5 -22 8
-55 -29 -60 -67 -3 -18 -2 -25 1 -17 10 22 34 34 75 36 30 2 39 -3 50 -22 7
-13 17 -25 23 -25 6 -1 18 -2 26 -3 8 0 19 -13 24 -28 8 -22 6 -32 -8 -47 -17
-19 -17 -21 1 -48 29 -41 63 -116 63 -138 0 -10 9 -28 20 -40 13 -14 22 -42
26 -83 5 -47 11 -63 25 -67 11 -4 20 -20 24 -48 4 -23 11 -50 16 -59 11 -21
65 -51 94 -52 13 -1 20 -8 20 -21 0 -11 8 -21 18 -23 10 -2 22 -15 28 -28 5
-14 13 -22 19 -19 5 3 12 -7 16 -22 4 -15 13 -36 21 -45 22 -25 5 -124 -29
-167 -27 -35 -24 -69 7 -77 14 -3 23 -9 20 -14 -2 -4 6 -17 19 -29 20 -19 22
-26 12 -46 -6 -14 -23 -29 -39 -34 -15 -6 -30 -18 -34 -28 -3 -10 -11 -25 -18
-33 -19 -23 -24 -58 -14 -93 7 -23 5 -35 -5 -45 -9 -9 -12 -27 -9 -53 4 -23 2
-39 -5 -39 -14 0 -25 -49 -14 -63 6 -7 13 -26 16 -43 4 -17 20 -44 36 -59 22
-21 28 -34 24 -52 -5 -17 0 -31 14 -46 19 -20 20 -26 9 -57 -7 -19 -16 -41
-20 -48 -5 -7 -2 -14 7 -18 9 -3 21 -24 28 -46 6 -22 27 -56 45 -76 22 -24 31
-42 26 -52 -4 -8 -6 -34 -5 -57 2 -33 -1 -43 -13 -43 -12 0 -13 -5 -7 -17 10
-19 -3 -83 -17 -83 -9 0 -8 -36 1 -45 3 -4 4 -24 1 -45 -5 -36 -3 -40 22 -46
l28 -7 -29 -12 c-16 -7 -34 -9 -39 -4 -6 4 -17 4 -25 -1 -8 -6 -10 -10 -5 -10
6 0 11 -9 11 -20 0 -13 -5 -19 -13 -16 -19 8 -16 -8 8 -38 31 -39 22 -61 -26
-62 -29 -1 -45 4 -57 20 -11 13 -18 16 -18 7 0 -8 -7 -11 -20 -8 -11 3 -20 3
-20 1 0 -9 26 -49 36 -56 15 -10 5 -60 -14 -74 -19 -14 -11 -49 12 -49 22 0
54 -40 59 -73 2 -12 13 -29 25 -38 12 -8 22 -21 22 -27 0 -18 109 -137 126
-137 8 0 14 -4 14 -10 0 -5 6 -10 13 -10 8 0 22 -9 32 -20 10 -11 24 -20 32
-20 7 0 13 -4 13 -10 0 -5 0 -13 1 -17 2 -15 23 -34 53 -48 64 -27 67 -34 58
-102 -8 -54 -6 -65 9 -79 21 -19 46 -10 29 11 -13 16 8 26 38 18 17 -4 19 -1
14 23 -4 25 -3 26 22 22 14 -3 29 -1 32 4 3 4 10 6 15 2 5 -3 7 -9 4 -14 -3
-5 0 -12 6 -16 8 -4 9 -3 5 4 -4 7 -2 12 4 12 6 0 13 -7 16 -15 4 -8 12 -15
20 -15 16 0 19 16 4 25 -5 3 -10 17 -10 31 0 13 5 24 10 24 6 0 10 7 10 15 0
8 9 15 20 15 22 0 28 -28 7 -36 -9 -3 -12 -16 -9 -35 3 -20 7 -26 12 -19 4 7
13 9 19 5 9 -5 9 -10 0 -21 -9 -11 -7 -14 10 -14 14 0 21 6 21 20 0 19 2 20
29 6 16 -9 31 -22 34 -31 4 -8 13 -15 21 -15 17 0 27 -55 12 -70 -5 -5 -16
-10 -23 -10 -21 0 -15 -41 6 -47 31 -8 54 -77 29 -85 -8 -3 2 -19 26 -41 38
-37 62 -44 35 -11 -12 15 -11 16 9 10 20 -7 22 -4 22 24 0 42 20 60 69 60 35
0 43 -5 65 -36 29 -43 69 -67 85 -51 7 7 18 7 36 -1 23 -11 29 -9 49 13 34 37
95 31 114 -11 9 -19 16 -22 34 -15 13 4 25 17 27 27 2 11 6 21 10 24 4 3 14
17 24 32 10 16 24 28 31 28 7 0 19 7 26 15 7 8 16 13 20 10 5 -3 13 9 19 25 8
26 15 30 45 30 20 0 39 0 43 -1 10 -1 25 30 18 41 -3 5 3 15 14 22 15 9 18 19
14 41 -6 28 -5 29 23 23 24 -5 31 -2 41 20 7 14 9 35 4 47 -11 33 1 92 19 92
8 0 20 4 26 8 7 4 15 0 18 -8 5 -14 10 -13 34 5 25 18 38 21 108 16 75 -4 144
8 144 26 0 22 73 118 89 118 10 0 24 7 31 15 7 9 18 14 24 12 6 -2 32 17 58
41 37 35 48 52 48 75 0 23 11 41 44 73 25 23 42 45 39 48 -3 3 0 12 6 20 8 9
10 27 6 44 -4 20 -1 33 9 41 8 7 13 18 10 25 -3 8 2 16 11 19 17 7 33 42 46
102 13 58 13 58 33 88 10 15 26 27 35 27 9 0 29 19 44 43 19 29 41 49 70 62
23 9 49 26 57 37 14 16 18 17 35 4 17 -12 22 -12 40 5 63 58 87 79 94 79 19 0
61 27 62 40 3 32 -3 46 -27 67 -13 12 -24 33 -24 46 0 42 -20 84 -47 96 l-25
12 25 19 c14 11 32 20 40 20 9 0 19 5 22 10 3 6 19 10 35 10 33 0 45 22 27 51
-10 18 -8 23 17 46 26 22 28 28 17 45 -9 14 -9 23 -2 27 6 4 6 12 2 20 -5 7
-14 10 -20 7 -6 -4 -14 1 -18 11 -3 10 -15 30 -25 45 -10 14 -18 37 -18 50 0
29 -24 64 -53 78 -21 11 -21 10 2 -9 20 -18 21 -24 10 -37 -8 -9 -23 -14 -39
-12 -22 3 -26 1 -22 -14 3 -14 -2 -18 -26 -18 -17 0 -34 6 -39 13 -5 8 -10 0
-13 -22 -6 -44 -22 -49 -38 -11 -11 25 -16 28 -32 18 -14 -9 -24 -8 -47 7 -15
11 -32 20 -38 20 -40 3 -95 28 -95 43 0 9 -14 30 -31 47 -17 16 -33 42 -36 58
-3 15 -15 33 -26 39 -17 9 -24 7 -37 -9 -8 -11 -21 -18 -28 -15 -6 2 -19 -4
-28 -12 -22 -22 -54 -21 -54 3 0 22 -26 36 -36 19 -4 -7 -13 -3 -23 11 l-17
22 -29 -27 c-28 -26 -29 -26 -63 -10 -51 25 -81 8 -73 -38 5 -22 -30 19 -41
50 -6 19 -17 33 -23 31 -19 -4 -114 94 -108 110 4 9 -2 16 -15 20 -11 3 -23
11 -26 19 -4 11 1 13 21 8 23 -6 25 -4 20 15 -4 16 -1 21 14 21 24 0 24 23 2
57 -23 35 -24 52 -4 62 12 7 16 21 15 58 -1 26 2 53 8 60 6 8 3 17 -11 30 -12
10 -31 26 -42 37 -15 12 -18 21 -10 25 8 5 5 16 -11 36 l-22 28 42 -5 c49 -7
59 2 37 36 -13 20 -35 33 -67 40 -12 2 -21 16 -11 16 6 0 9 9 6 20 -3 12 -11
19 -17 17 -18 -7 -46 12 -40 27 7 18 -16 32 -26 16 -8 -13 -50 -5 -50 9 0 5
-13 14 -30 21 -16 7 -30 14 -30 15 0 1 -7 19 -16 40 -14 34 -14 37 0 32 21 -8
21 22 1 37 -9 6 -18 25 -21 41 -2 17 -17 41 -32 55 -60 54 -64 63 -46 99 21
42 6 80 -42 106 -27 14 -34 24 -30 38 6 25 -37 112 -60 121 -9 4 -14 12 -10
21 3 9 1 26 -6 38 -6 12 -14 29 -18 37 -4 8 -18 17 -31 20 -21 5 -22 7 -6 13
15 5 17 13 12 37 -4 16 -3 30 2 30 15 0 46 72 59 135 9 48 9 62 -2 73 -8 7
-14 18 -14 23 0 5 -12 9 -27 9 -16 0 -39 7 -53 15 -14 7 -39 20 -57 28 -17 9
-54 31 -83 50 -46 31 -50 36 -33 46 16 9 16 10 1 11 -30 0 -39 33 -24 84 14
45 14 46 -10 52 -13 3 -35 19 -48 35 -14 16 -28 29 -33 29 -4 0 -19 10 -33 21
-17 14 -21 22 -12 26 6 2 12 11 12 19 0 21 48 17 67 -6 23 -26 28 -25 42 8 19
46 -3 112 -38 112 -10 0 -24 8 -32 18 -18 21 -24 78 -10 86 6 4 8 13 5 21 -3
7 3 18 14 24 15 8 18 19 16 58 -5 73 -9 91 -27 111 -11 12 -17 35 -17 65 0 25
-5 49 -11 52 -6 4 -7 19 -4 36 6 24 3 29 -19 35 -14 3 -29 3 -34 0 -5 -3 -20
6 -32 19 -14 15 -30 23 -40 20 -9 -3 -43 8 -76 25 -34 17 -62 26 -68 20 -5 -5
-25 -2 -48 6 -51 18 -48 18 -48 -10z m-362 -225 c3 -8 -1 -12 -9 -9 -7 2 -15
10 -17 17 -3 8 1 12 9 9 7 -2 15 -10 17 -17z m152 -211 c0 -5 -4 -10 -10 -10
-5 0 -10 5 -10 10 0 6 5 10 10 10 6 0 10 -4 10 -10z m320 -4370 c0 -5 -2 -10
-4 -10 -3 0 -8 5 -11 10 -3 6 -1 10 4 10 6 0 11 -4 11 -10z"/>
<path d="M8231 12184 c5 -46 0 -56 -25 -52 -19 4 -25 0 -29 -18 -2 -13 3 -28
15 -38 25 -22 23 -44 -6 -52 -14 -3 -27 -12 -30 -21 -3 -8 -10 -11 -16 -8 -5
3 -10 1 -10 -4 0 -6 5 -11 10 -11 6 0 10 -4 10 -10 0 -5 -6 -7 -14 -4 -8 3
-17 1 -21 -5 -11 -18 -22 -12 -29 14 -4 15 -14 25 -25 25 -10 0 -26 9 -36 20
-10 11 -22 17 -26 14 -5 -3 -9 -1 -9 5 0 23 -46 15 -68 -11 -27 -32 -66 -37
-81 -10 -9 15 -10 15 -11 0 0 -9 6 -18 13 -21 8 -3 5 -10 -10 -22 -13 -9 -23
-22 -23 -29 0 -24 -27 -39 -49 -26 -19 10 -20 9 -11 -16 10 -26 4 -94 -9 -94
-3 0 -12 -4 -20 -9 -10 -7 -11 -13 -2 -30 8 -15 9 -21 1 -21 -7 0 -9 -8 -5
-19 3 -10 -1 -24 -10 -31 -10 -9 -14 -22 -11 -36 4 -16 -1 -28 -20 -43 l-25
-20 -39 20 c-48 25 -55 34 -69 85 -7 28 -18 43 -31 47 -13 3 -20 0 -20 -9 0
-22 -38 -16 -74 11 -18 14 -36 22 -39 19 -4 -4 -11 6 -17 22 -6 16 -25 44 -43
62 l-31 32 30 0 c35 0 61 14 45 24 -18 11 -13 44 11 66 24 22 13 26 -29 8 -15
-6 -36 -10 -45 -9 -10 1 -18 -3 -18 -9 0 -7 -7 -9 -17 -6 -28 11 -32 -15 -7
-58 13 -22 24 -48 24 -57 0 -8 14 -25 30 -37 17 -13 30 -31 30 -42 0 -10 7
-25 15 -34 8 -8 15 -20 15 -26 0 -6 5 -8 10 -5 35 22 152 -65 166 -122 4 -16
13 -35 20 -43 11 -13 8 -21 -22 -52 -21 -23 -30 -39 -23 -43 16 -11 -26 -45
-55 -45 -13 0 -27 -6 -29 -12 -4 -10 -7 -10 -14 -1 -11 15 -83 -4 -83 -21 1
-30 14 -56 29 -56 10 0 27 -9 39 -20 26 -24 28 -32 7 -24 -17 7 -21 -11 -5
-21 6 -4 8 -10 5 -15 -3 -5 -1 -19 5 -30 13 -23 45 -28 36 -5 -6 16 3 19 42
15 14 -1 38 13 64 36 39 35 42 36 55 19 7 -11 13 -22 13 -27 0 -4 9 -8 20 -8
34 0 51 -39 41 -95 -10 -56 -38 -135 -52 -150 -14 -14 -11 -95 4 -101 7 -2 27
-6 43 -7 16 -1 37 -11 47 -22 18 -20 18 -20 14 3 -3 12 -1 22 4 22 5 0 9 -4 9
-10 0 -5 19 -22 43 -38 23 -17 64 -51 90 -76 26 -26 52 -44 57 -41 12 7 99
-51 107 -70 2 -8 10 -12 17 -9 8 3 17 -10 24 -34 7 -22 19 -45 27 -52 8 -7 15
-18 15 -26 0 -7 25 -20 55 -29 57 -16 65 -24 40 -45 -18 -15 -35 -5 -35 23 0
16 -3 18 -9 9 -4 -7 -14 -14 -22 -16 -8 -1 -24 -8 -37 -14 -12 -7 -27 -10 -32
-7 -17 10 -39 -35 -30 -61 6 -15 6 -24 0 -24 -17 0 -11 -30 10 -57 23 -29 26
-48 8 -37 -10 5 -10 4 -1 -6 14 -15 55 -7 77 15 14 14 17 14 33 -2 10 -10 33
-29 51 -41 17 -13 32 -30 32 -38 0 -8 4 -14 9 -14 16 0 24 21 12 33 -16 16
-14 25 9 32 28 9 25 23 -4 18 -18 -4 -29 2 -41 21 -10 15 -16 28 -14 30 9 7
89 -16 84 -24 -6 -10 59 -25 89 -21 10 1 22 -3 26 -10 6 -9 12 -8 25 4 26 27
50 20 68 -18 17 -37 37 -44 56 -22 8 10 7 17 -2 26 -10 10 -8 12 8 10 11 -2
33 9 50 25 17 16 49 41 71 56 36 22 40 29 31 45 -7 14 -7 20 1 23 7 2 12 10
12 19 0 9 6 12 18 9 20 -7 47 28 35 46 -11 20 -12 58 -1 55 15 -3 30 55 17 68
-7 7 -15 4 -24 -9 -11 -15 -17 -16 -29 -7 -11 9 -15 8 -20 -5 -5 -14 -9 -14
-38 4 -18 11 -38 18 -45 15 -6 -2 -19 10 -28 26 -8 17 -19 31 -24 31 -4 0 -13
11 -19 25 -7 14 -23 30 -36 36 -21 10 -23 15 -16 35 8 20 6 24 -9 24 -15 0
-20 9 -23 46 -3 40 0 48 26 68 l29 22 -27 28 c-14 16 -26 36 -26 45 1 13 3 12
16 -4 15 -20 15 -20 30 -1 19 27 18 50 -7 88 -17 26 -20 28 -16 10 4 -15 1
-22 -6 -19 -7 2 -14 14 -15 26 -2 13 -12 26 -23 28 -22 6 -24 16 -8 45 8 16 8
22 -2 29 -11 6 -10 12 4 27 9 10 17 25 17 34 0 21 -30 78 -41 78 -5 0 -9 18
-9 39 0 50 -8 71 -27 71 -9 0 -13 8 -12 23 5 34 -9 51 -29 35 -15 -11 -15 -11
-5 3 16 21 6 64 -12 49 -16 -13 -46 15 -70 66 -9 19 -20 34 -25 34 -6 0 -10 4
-10 9 0 5 13 4 30 -2 25 -10 32 -8 48 9 10 11 17 25 14 32 -2 6 1 12 7 12 6 0
10 3 9 8 -1 4 4 21 11 37 9 20 9 35 3 46 -6 9 -7 21 -1 30 5 8 9 28 9 45 0 26
5 33 25 38 16 4 25 13 25 26 0 13 9 22 25 26 27 7 35 34 10 34 -8 0 -15 6 -15
13 0 6 -8 2 -18 -10 -9 -13 -31 -24 -47 -26 -17 -2 -40 -9 -53 -16 -20 -11
-22 -9 -22 14 0 27 -20 55 -40 55 -14 0 -28 39 -22 62 2 10 9 18 14 18 6 0 0
9 -13 19 -32 26 -15 47 25 32 25 -10 26 -9 16 9 -12 22 -18 24 -40 10 -10 -6
-20 -4 -32 7 -17 15 -18 15 -17 -3z m58 -190 c3 -16 1 -17 -13 -5 -19 16 -21
34 -3 29 6 -3 14 -13 16 -24z m-679 -419 c0 -14 -4 -25 -10 -25 -5 0 -10 11
-10 25 0 14 5 25 10 25 6 0 10 -11 10 -25z m236 -450 c4 -8 15 -15 25 -15 24
0 24 -15 0 -46 -16 -21 -20 -22 -37 -9 -18 15 -18 15 1 9 18 -5 18 -4 5 8 -18
15 -25 68 -10 68 6 0 13 -7 16 -15z m73 -66 c-27 -27 -44 -14 -22 16 13 16 22
20 30 13 9 -7 7 -14 -8 -29z m92 -2 c-8 -8 -16 -6 -29 7 -15 17 -15 18 0 13
10 -3 19 1 24 11 6 15 7 15 11 -2 3 -10 0 -23 -6 -29z m-34 -23 c-3 -3 -12 -4
-19 -1 -8 3 -5 6 6 6 11 1 17 -2 13 -5z m538 -94 c3 -5 1 -10 -4 -10 -6 0 -11
5 -11 10 0 6 2 10 4 10 3 0 8 -4 11 -10z"/>
<path d="M8320 12081 c0 -6 -7 -11 -15 -11 -8 0 -15 -4 -15 -9 0 -16 25 -19
43 -6 15 11 16 14 2 25 -10 9 -15 9 -15 1z"/>
<path d="M7200 12026 c0 -2 8 -10 18 -17 15 -13 16 -12 3 4 -13 16 -21 21 -21
13z"/>
<path d="M10464 11719 c-12 -19 15 -33 59 -30 21 1 23 21 2 21 -8 0 -15 5 -15
10 0 13 -37 13 -46 -1z"/>
<path d="M8590 11060 c0 -13 18 -22 24 -11 3 5 -1 11 -9 15 -8 3 -15 1 -15 -4z"/>
<path d="M7740 10800 l-25 -6 33 -18 c40 -21 75 -29 67 -15 -4 5 -15 9 -25 9
-10 0 -20 8 -22 18 -2 14 -9 17 -28 12z"/>
<path d="M11218 10512 c-10 -2 -18 -10 -18 -18 0 -8 -3 -14 -7 -13 -5 1 -18
-2 -30 -6 -27 -9 -20 -30 16 -50 14 -8 20 -14 13 -15 -7 0 -10 -4 -7 -10 3 -5
-2 -10 -11 -10 -10 0 -15 -2 -12 -5 3 -3 25 -1 49 4 39 9 46 8 60 -10 20 -27
69 -18 62 12 -4 15 -2 18 12 13 13 -5 16 -3 13 7 -2 8 -15 16 -29 17 -28 4
-74 43 -60 51 13 9 -31 38 -51 33z m66 -78 c20 -20 20 -21 -5 -19 -25 2 -49
35 -25 35 8 0 22 -7 30 -16z"/>
<path d="M11379 10393 c-13 -16 -12 -17 4 -4 9 7 17 15 17 17 0 8 -8 3 -21
-13z"/>
<path d="M11405 10280 c-8 -13 4 -50 16 -50 12 0 12 -37 -1 -45 -6 -4 -2 -18
11 -36 26 -36 32 -33 20 9 -6 19 -6 34 0 37 11 7 -17 65 -31 65 -5 0 -7 7 -4
15 7 17 -1 20 -11 5z"/>
<path d="M11151 10228 c-1 -11 -6 -15 -16 -12 -9 4 -15 0 -15 -9 0 -20 11 -26
31 -18 11 4 13 13 8 31 -4 15 -7 18 -8 8z"/>
<path d="M11440 10082 c0 -18 10 -37 27 -53 23 -21 25 -22 18 -4 -4 11 -13 35
-19 53 -13 40 -26 42 -26 4z"/>
<path d="M11476 9977 c3 -10 9 -15 12 -12 3 3 0 11 -7 18 -10 9 -11 8 -5 -6z"/>
<path d="M11490 9944 c0 -4 8 -17 19 -28 24 -27 39 -72 20 -61 -8 5 -1 -6 14
-22 22 -24 39 -32 78 -35 30 -3 62 -14 80 -27 31 -23 52 -24 25 -2 -9 8 -12
21 -7 44 9 43 4 64 -18 70 -13 3 -17 0 -14 -12 6 -23 -51 -20 -80 5 -12 11
-33 25 -47 32 -14 6 -35 19 -47 28 -13 9 -23 13 -23 8z"/>
<path d="M9378 9868 c18 -32 42 -49 42 -29 0 11 -44 61 -53 61 -4 0 1 -14 11
-32z"/>
<path d="M9385 9800 c6 -8 10 -19 10 -24 0 -15 25 -19 25 -4 0 10 3 9 11 -2 9
-12 10 -12 5 3 -3 10 -6 21 -6 23 0 3 -5 2 -10 -1 -6 -4 -18 -1 -27 7 -14 11
-15 11 -8 -2z"/>
<path d="M11742 9705 c8 -19 8 -31 0 -51 -7 -14 -9 -36 -6 -50 3 -13 1 -31 -5
-38 -10 -11 -9 -16 3 -23 9 -5 18 -24 20 -42 4 -38 22 -53 52 -46 13 3 27 -2
35 -11 7 -8 25 -22 41 -30 29 -15 41 -51 14 -41 -33 13 -2 -23 35 -40 21 -10
39 -24 39 -30 0 -17 12 -16 35 1 11 8 25 12 32 9 7 -3 13 0 13 6 0 6 9 11 20
11 30 0 24 27 -7 38 -29 10 -83 58 -83 73 0 5 -6 6 -14 3 -8 -3 -19 3 -25 15
-15 26 -14 28 9 34 36 9 16 70 -33 106 -11 8 -29 25 -40 38 -11 12 -28 23 -38
23 -9 0 -29 16 -43 35 -15 19 -36 35 -46 35 -17 0 -18 -3 -8 -25z"/>
<path d="M12153 9423 c-7 -3 -13 -12 -12 -21 0 -11 2 -12 6 -4 2 6 9 12 14 12
6 0 7 -4 4 -10 -3 -5 -1 -10 4 -10 6 0 11 -5 11 -11 0 -5 -4 -8 -9 -5 -5 4 -7
-3 -4 -14 8 -30 30 -24 35 10 3 20 0 30 -8 30 -7 0 -17 6 -21 14 -4 7 -14 11
-20 9z"/>
<path d="M12121 9358 l-23 -21 23 -18 c13 -10 25 -14 27 -10 1 4 14 6 27 3 23
-4 30 -13 26 -34 -1 -10 11 -10 27 0 17 11 -24 49 -58 54 -19 2 -24 8 -22 26
4 27 2 27 -27 0z"/>
<path d="M12316 9336 c5 -12 0 -19 -15 -23 -26 -7 -27 -19 -1 -33 14 -8 20 -8
20 0 0 7 8 9 20 5 34 -11 25 24 -13 54 -15 12 -17 12 -11 -3z"/>
<path d="M12098 9283 c7 -3 16 -2 19 1 4 3 -2 6 -13 5 -11 0 -14 -3 -6 -6z"/>
<path d="M12147 9279 c-21 -12 -22 -25 -1 -33 15 -6 15 -4 3 11 -13 15 -12 16
9 11 12 -4 22 -2 22 2 0 15 -15 19 -33 9z"/>
<path d="M12106 9233 c-4 -9 -2 -21 4 -27 7 -7 10 -2 10 17 0 31 -5 34 -14 10z"/>
<path d="M9946 7333 c-3 -3 2 -12 12 -19 20 -16 32 -17 32 -4 0 12 -35 31 -44
23z"/>
<path d="M9854 7306 c-5 -13 -9 -14 -20 -5 -15 13 -17 5 -5 -26 7 -18 9 -18
26 8 10 15 15 30 12 34 -4 3 -9 -2 -13 -11z"/>
<path d="M10042 7265 c4 -32 22 -38 26 -9 2 13 -4 24 -13 28 -13 5 -16 0 -13
-19z"/>
<path d="M9776 7194 c-4 -9 -4 -19 -1 -22 3 -3 11 0 17 6 9 9 9 15 1 23 -7 7
-12 5 -17 -7z"/>
</g>
</svg>
