<?xml version="1.0" standalone="no"?>
<!DOCTYPE svg PUBLIC "-//W3C//DTD SVG 20010904//EN"
 "http://www.w3.org/TR/2001/REC-SVG-20010904/DTD/svg10.dtd">
<svg version="1.0" xmlns="http://www.w3.org/2000/svg"
 width="431.440196pt" height="856.898563pt" viewBox="0 0 431.440196 856.898563"
 preserveAspectRatio="xMidYMid meet">
<metadata>
Created by potrace 1.15, written by Peter Selinger 2001-2017
</metadata>
<g transform="translate(-757.059804,1392.898563) scale(0.100000,-0.100000)"
fill="#222222" stroke="none">
<path d="M9571 13910 c9 -14 30 -34 47 -45 17 -11 31 -27 32 -36 0 -9 9 -24
20 -34 11 -10 17 -22 13 -28 -3 -5 0 -7 8 -5 8 3 13 13 11 23 -3 16 -2 16 20
1 33 -24 47 -20 44 12 -2 15 -4 29 -5 31 0 3 -8 -4 -16 -15 -14 -18 -14 -18
-15 6 0 33 -88 103 -122 99 -13 -2 -30 1 -38 6 -13 8 -12 5 1 -15z"/>
<path d="M9686 13742 c-9 -14 24 -52 45 -52 13 0 19 -7 19 -21 0 -17 -5 -20
-29 -17 -20 2 -36 -4 -49 -17 -20 -21 -20 -21 22 -104 20 -39 24 -56 16 -61
-9 -6 -9 -9 -1 -15 9 -5 9 -10 1 -20 -15 -18 -2 -43 31 -61 16 -8 29 -19 29
-24 0 -6 10 -10 23 -10 15 0 18 -3 9 -8 -10 -7 -10 -15 -2 -36 15 -40 12 -86
-5 -92 -8 -4 -15 -15 -15 -25 0 -17 5 -19 55 -13 75 9 96 -9 93 -77 -2 -31 -7
-49 -15 -49 -6 0 -16 -8 -22 -17 -5 -10 -20 -18 -33 -18 -16 0 -24 -7 -26 -22
-2 -13 -10 -23 -18 -23 -9 0 -14 -11 -14 -29 0 -16 -6 -31 -12 -34 -15 -5 2
-41 21 -43 6 -1 18 -2 27 -3 9 0 14 -7 11 -15 -9 -23 23 -117 55 -160 16 -22
25 -42 20 -44 -6 -2 -8 -11 -5 -22 3 -12 -3 -23 -16 -32 -12 -7 -21 -20 -21
-28 0 -8 -9 -21 -21 -28 -17 -11 -19 -16 -7 -29 11 -15 11 -16 -5 -10 -29 11
-47 -2 -37 -27 7 -18 3 -24 -21 -35 -16 -7 -38 -9 -51 -5 -19 6 -21 4 -12 -7
6 -8 14 -27 18 -42 6 -25 4 -28 -12 -22 -13 3 -22 0 -26 -10 -3 -8 -13 -15
-22 -15 -11 0 -14 -5 -10 -16 4 -10 -1 -18 -13 -21 -12 -3 -21 -15 -23 -32 -3
-23 -7 -26 -36 -24 -26 1 -32 -2 -27 -14 7 -20 -22 -53 -48 -53 -13 0 -17 -5
-14 -14 8 -21 -27 -30 -52 -14 -16 10 -30 10 -70 -1 -43 -11 -53 -10 -81 4
-27 14 -34 14 -41 4 -4 -8 -4 -18 1 -23 6 -6 10 -21 10 -35 0 -21 11 -32 51
-54 49 -27 52 -27 70 -11 16 14 19 15 19 2 0 -8 11 -25 25 -38 14 -13 23 -30
21 -37 -3 -7 -1 -13 5 -13 6 0 7 -5 4 -11 -4 -5 0 -18 8 -27 10 -11 15 -36 15
-74 -1 -56 -2 -58 -27 -58 -15 0 -32 5 -38 11 -8 8 -15 6 -25 -10 -7 -11 -18
-21 -25 -21 -7 0 -13 -7 -13 -15 0 -8 -8 -15 -17 -16 -15 0 -15 -2 2 -9 11 -5
17 -9 13 -9 -4 -1 -1 -16 5 -33 19 -49 16 -92 -6 -96 -10 -2 -24 4 -31 14 -8
10 -20 15 -29 11 -17 -7 -53 39 -48 62 1 7 -10 26 -25 42 -15 16 -24 29 -18
29 18 0 -21 20 -41 20 -10 0 -29 12 -41 27 -19 24 -24 26 -38 14 -18 -15 -46
-8 -46 11 -1 7 -28 30 -61 51 -33 20 -58 33 -55 29 11 -19 16 -73 6 -67 -5 3
-10 13 -10 21 0 24 -18 6 -25 -25 -5 -23 -13 -30 -38 -34 -18 -2 -40 1 -51 9
-10 7 -28 10 -40 6 -48 -16 -113 7 -102 35 8 21 -34 53 -60 47 -12 -3 -25 -1
-28 5 -4 6 -16 16 -28 22 -18 10 -19 8 -13 -12 4 -13 18 -32 31 -42 l24 -18
-30 -38 c-23 -29 -30 -47 -28 -73 1 -27 -4 -41 -25 -60 -15 -14 -27 -30 -27
-37 0 -15 -21 -14 -63 4 -20 8 -38 15 -39 15 -2 0 -2 -18 0 -40 3 -25 11 -45
23 -53 10 -7 23 -26 29 -42 8 -22 13 -26 19 -16 7 11 10 11 17 -1 10 -16 93
-58 115 -58 8 0 26 7 42 14 22 12 27 12 27 2 0 -8 7 -19 16 -27 9 -7 13 -21
10 -34 -7 -26 16 -49 57 -59 15 -4 25 -11 22 -16 -11 -18 5 -47 32 -59 19 -9
29 -9 31 -2 7 20 20 11 31 -20 6 -17 15 -28 21 -24 6 4 10 -4 10 -18 0 -14 9
-31 21 -39 16 -10 20 -20 15 -35 -8 -24 -48 -42 -54 -25 -6 18 -60 -9 -55 -28
3 -10 -2 -16 -14 -17 -10 -1 -44 -9 -76 -18 -55 -16 -60 -15 -78 1 -22 19 -25
36 -6 29 6 -2 25 6 41 19 34 28 30 56 -8 56 -19 0 -23 4 -19 20 3 11 1 20 -5
20 -12 0 -22 -24 -22 -51 0 -11 -7 -19 -16 -19 -11 0 -14 -5 -10 -16 4 -10 -3
-25 -19 -40 -14 -13 -25 -30 -25 -39 0 -8 -9 -15 -20 -15 -13 0 -20 -7 -20
-19 0 -20 -44 -61 -65 -61 -7 0 -19 -7 -26 -16 -9 -12 -24 -15 -51 -11 -21 3
-47 3 -57 0 -31 -8 -16 -67 29 -111 30 -32 35 -42 29 -65 -5 -18 -3 -29 6 -34
17 -11 30 -53 15 -53 -7 0 -9 -12 -4 -36 6 -34 5 -35 -13 -25 -23 12 -34 6
-27 -14 3 -7 14 -11 25 -8 24 7 26 -22 3 -52 -9 -12 -12 -30 -8 -47 3 -17 1
-28 -5 -28 -22 0 -11 -30 12 -30 12 -1 46 -23 79 -53 55 -52 56 -53 52 -102
-1 -28 -3 -53 -4 -57 0 -5 -7 -8 -15 -8 -29 0 -12 -83 21 -101 16 -8 24 -21
24 -40 0 -15 4 -31 10 -34 5 -3 17 -21 26 -40 9 -19 19 -33 22 -32 4 1 17 -8
28 -19 18 -18 21 -32 20 -82 -1 -34 -5 -64 -9 -68 -4 -4 -7 -18 -7 -31 0 -13
-3 -23 -7 -23 -5 0 -14 -4 -22 -9 -12 -8 -12 -12 -2 -25 11 -13 11 -22 1 -47
-7 -17 -19 -37 -27 -44 -9 -10 -10 -21 -4 -37 6 -17 5 -29 -5 -43 -8 -10 -14
-29 -14 -41 0 -15 -10 -26 -30 -34 -16 -7 -30 -19 -30 -27 0 -8 -7 -27 -15
-41 -8 -15 -21 -43 -29 -63 -12 -32 -20 -38 -55 -44 -35 -6 -41 -10 -36 -26 3
-10 7 -27 10 -37 3 -11 -12 -36 -45 -72 -28 -30 -50 -60 -50 -67 0 -7 -4 -13
-10 -13 -5 0 -10 -7 -10 -15 0 -9 -9 -15 -23 -15 -18 0 -25 -8 -34 -42 -6 -24
-11 -54 -12 -68 0 -14 -9 -32 -21 -42 -11 -9 -20 -23 -20 -32 0 -9 -14 -25
-32 -35 -25 -16 -36 -34 -54 -92 -12 -39 -34 -84 -48 -98 -20 -21 -26 -37 -26
-74 0 -33 -6 -53 -19 -66 -17 -17 -18 -24 -9 -49 10 -25 8 -34 -12 -63 -16
-21 -23 -44 -21 -65 2 -26 -5 -37 -40 -67 -26 -23 -39 -41 -36 -51 4 -9 -2
-17 -15 -21 -29 -10 -101 -82 -88 -90 5 -3 14 -4 19 -1 5 3 12 -1 15 -10 9
-23 -4 -64 -21 -64 -9 0 -12 -6 -9 -18 4 -11 -2 -21 -17 -29 -67 -34 -94 -44
-114 -40 -15 3 -20 0 -16 -10 3 -7 -1 -13 -7 -13 -9 0 -8 -6 4 -19 10 -10 16
-27 14 -37 -2 -12 6 -23 20 -29 12 -5 22 -13 22 -17 0 -4 14 -23 31 -43 30
-34 59 -46 59 -25 0 6 5 10 10 10 21 0 9 -18 -20 -30 -16 -7 -30 -19 -30 -26
0 -8 -10 -14 -25 -14 -27 0 -32 -9 -13 -28 7 -7 13 -32 13 -57 2 -38 -1 -45
-17 -45 -10 0 -29 -11 -42 -25 -13 -14 -28 -25 -35 -25 -16 0 -14 -17 5 -50
13 -22 15 -34 6 -58 -8 -25 -8 -32 5 -36 21 -8 23 -8 17 7 -3 9 4 13 27 11 32
-2 79 -38 79 -61 0 -7 10 -17 23 -22 13 -5 29 -16 36 -25 7 -9 25 -16 39 -16
14 0 34 -7 44 -17 12 -11 18 -12 18 -3 0 7 7 10 15 6 11 -4 15 1 15 18 0 17 9
27 30 36 24 10 30 19 36 58 8 54 26 76 54 67 14 -4 19 -2 15 7 -2 7 13 27 35
43 21 17 43 40 49 52 9 20 16 22 58 17 48 -6 48 -6 81 41 29 42 35 46 48 33
15 -15 74 -13 74 3 0 5 10 9 22 9 12 0 30 7 40 17 11 9 18 11 18 5 0 -7 -5
-12 -11 -12 -14 0 -2 -72 14 -82 9 -6 8 -11 -3 -17 -22 -14 25 -29 75 -24 32
4 44 0 59 -16 11 -12 14 -21 8 -21 -7 0 -12 -12 -12 -26 0 -20 -4 -24 -19 -19
-11 3 -3 -11 23 -39 25 -26 42 -38 44 -30 2 9 18 2 48 -22 25 -18 55 -34 67
-35 161 -8 177 -7 177 16 0 24 78 6 110 -26 16 -16 36 -29 44 -29 9 0 16 -5
16 -11 0 -6 8 -8 19 -4 12 3 21 0 24 -9 8 -20 -5 -27 -23 -15 -8 5 -30 9 -49
9 -27 0 -31 -3 -22 -14 6 -7 8 -26 5 -43 -3 -17 -1 -33 5 -37 5 -4 8 -13 4
-21 -3 -10 1 -15 14 -15 27 0 92 -51 93 -72 0 -9 29 -53 65 -99 36 -45 65 -88
65 -95 0 -7 12 -22 28 -34 15 -12 27 -31 27 -43 0 -12 10 -26 23 -33 36 -18
72 -56 72 -76 0 -11 7 -18 19 -18 10 0 30 -9 44 -20 14 -11 31 -20 39 -20 7 0
22 -7 32 -15 11 -8 28 -13 37 -10 18 6 79 -20 79 -33 0 -4 16 -20 35 -35 29
-23 39 -26 55 -17 30 16 60 -4 60 -40 0 -23 -5 -30 -20 -30 -10 0 -24 -9 -30
-20 -6 -11 -18 -20 -26 -20 -12 0 -14 -5 -8 -17 7 -17 12 -55 13 -116 1 -28 1
-28 26 -10 13 10 25 26 25 36 0 18 2 17 34 -2 42 -26 56 -26 56 -2 0 27 15 34
30 16 7 -8 19 -15 27 -15 7 0 27 -10 42 -21 27 -20 33 -20 79 -9 49 13 49 13
36 39 -8 14 -30 37 -50 51 -41 28 -54 50 -30 50 23 0 21 53 -4 75 -10 9 -26
15 -34 12 -9 -4 -16 4 -20 24 -5 26 -8 28 -38 22 -18 -3 -39 -10 -45 -16 -9
-6 -13 -5 -13 4 0 7 -7 3 -16 -10 -15 -21 -18 -21 -26 -7 -11 20 -2 36 20 36
30 0 53 75 46 151 -6 59 -4 69 15 88 11 11 25 21 29 21 4 0 9 28 10 62 2 34 5
64 7 66 2 3 -6 13 -18 23 l-22 19 23 6 c32 9 28 41 -9 59 -25 13 -28 19 -19
30 9 11 9 23 1 46 -9 27 -8 32 9 36 27 7 25 29 -5 57 -18 17 -21 26 -13 34 9
9 7 16 -5 30 -21 23 -21 32 -2 32 8 0 15 9 15 19 0 11 5 23 11 26 6 4 10 26 9
49 -3 72 -1 81 30 101 20 14 28 26 24 38 -3 9 -1 17 5 17 6 0 11 7 11 16 0 10
6 14 14 11 10 -4 12 0 9 14 -4 14 0 19 16 19 12 0 21 6 21 15 0 8 3 14 8 13 4
-1 24 6 45 15 31 13 37 21 37 46 0 16 5 31 11 33 9 3 9 10 0 26 -10 19 -8 26
14 48 14 13 25 31 25 39 0 8 7 15 15 15 8 0 15 6 15 14 0 9 8 12 24 9 18 -4
26 0 31 16 3 12 10 21 15 21 5 0 12 15 16 32 3 18 15 39 26 46 10 7 16 17 13
22 -3 5 -7 27 -9 49 -3 35 -1 40 18 43 14 2 20 9 19 23 -1 11 -3 47 -4 80 -1
33 -7 67 -14 75 -25 31 -25 48 1 54 21 6 24 12 24 50 0 36 4 45 26 55 21 9 25
16 20 36 -5 18 -2 25 9 25 9 0 15 9 15 26 0 17 6 28 20 31 11 3 20 14 20 24 0
10 9 23 20 29 11 6 20 17 20 25 0 7 11 26 24 42 13 15 27 39 31 52 7 23 9 24
90 17 80 -6 83 -5 99 19 13 19 22 23 44 19 15 -2 33 0 41 4 20 14 -25 62 -60
62 -41 0 -53 22 -29 53 13 16 16 28 10 32 -5 3 -10 11 -10 16 0 6 5 7 10 4 6
-3 13 2 17 12 3 10 12 22 20 26 7 4 13 16 13 26 0 10 6 24 14 30 28 24 44 159
19 168 -8 3 -12 11 -9 19 7 19 -17 23 -30 6 -7 -9 -18 -13 -29 -9 -14 6 -16
14 -11 42 7 33 5 36 -22 41 -32 6 -72 59 -50 66 22 8 -3 28 -27 22 -26 -6 -43
8 -108 90 -22 28 -25 36 -13 36 20 0 21 33 1 50 -8 7 -25 10 -39 6 -18 -4 -28
-1 -34 10 -6 12 -17 15 -32 11 -27 -7 -50 13 -50 42 0 16 -6 21 -26 21 -14 0
-23 4 -20 9 4 5 -5 23 -19 39 -17 20 -22 33 -15 37 8 5 5 14 -9 29 -34 36 -50
89 -52 172 -2 43 -7 84 -12 91 -5 8 -1 15 13 23 11 6 18 15 15 21 -4 5 3 9 15
9 31 0 47 42 27 70 -9 12 -13 28 -11 34 3 7 -6 24 -20 39 -14 15 -20 27 -14
27 6 0 8 3 5 7 -4 3 -2 12 4 19 8 10 6 24 -9 55 l-21 41 24 -4 c25 -5 43 16
23 28 -7 4 -5 10 6 16 11 6 15 16 11 29 -5 15 -1 19 19 19 25 0 58 44 87 113
6 16 19 27 30 27 12 0 24 11 32 28 6 15 18 31 25 36 11 6 11 10 3 16 -8 5 -4
12 13 23 21 14 38 53 40 92 1 16 73 85 88 85 19 0 35 60 24 91 -8 23 -5 31 25
58 19 17 44 34 57 37 12 4 27 15 33 25 5 11 20 19 35 19 21 0 24 4 19 20 -4
11 -2 20 4 20 6 0 11 -4 11 -10 0 -5 5 -10 10 -10 6 0 10 7 10 15 0 9 7 15 16
13 24 -4 44 30 25 42 -12 7 -12 11 -2 24 8 9 10 16 7 16 -4 0 -2 9 4 20 8 16
7 23 -9 37 -20 16 -20 17 12 36 18 12 27 22 20 24 -16 6 -17 30 -2 35 8 3 6
14 -6 37 -9 18 -12 30 -5 26 13 -8 60 -14 60 -8 0 2 -5 13 -11 24 -7 14 -7 30
-1 49 9 23 6 34 -14 63 -13 20 -24 41 -24 46 0 6 -6 11 -14 11 -7 0 -19 7 -27
16 -10 12 -10 20 -1 35 7 11 12 44 11 74 -2 47 -5 55 -22 55 -16 0 -17 -3 -7
-15 10 -12 9 -16 -4 -21 -10 -4 -14 -13 -11 -24 6 -18 -13 -70 -24 -70 -4 0
-15 14 -25 31 -10 17 -28 35 -41 41 -14 6 -27 23 -30 39 -4 19 -12 27 -26 26
-10 -1 -19 -5 -19 -10 0 -5 -7 -15 -14 -23 -13 -12 -17 -12 -33 4 -10 10 -30
23 -45 30 -28 12 -36 26 -19 37 13 7 -29 73 -51 80 -10 4 -18 12 -18 19 0 7
-9 21 -19 30 -11 10 -17 24 -14 32 3 8 0 21 -7 29 -8 9 -8 20 -2 31 6 11 6 29
1 48 -6 20 -5 32 1 34 6 2 7 9 3 15 -4 6 0 8 10 4 10 -4 16 0 17 11 3 69 8 88
26 97 21 11 30 51 15 69 -5 6 -16 40 -26 76 -9 36 -23 77 -31 91 -10 19 -12
49 -9 106 5 70 3 83 -15 106 -14 17 -19 34 -15 47 4 14 -5 42 -29 84 -24 43
-36 77 -36 103 0 31 -7 46 -31 69 -25 24 -30 35 -25 62 5 36 -30 102 -51 95
-6 -2 -24 7 -40 21 -15 15 -49 40 -75 57 -46 29 -60 49 -37 49 6 0 8 9 4 20
-4 14 -2 20 8 20 8 0 20 7 27 15 10 12 10 15 -3 15 -8 0 -20 7 -27 15 -10 12
-8 20 9 41 12 15 21 33 21 40 0 29 -34 83 -54 86 -12 2 -28 17 -36 33 -9 19
-23 31 -35 30 -11 0 -25 7 -31 15 -10 11 -17 12 -38 2 -22 -10 -26 -9 -26 3 0
8 -7 15 -15 15 -8 0 -24 9 -35 20 -11 11 -28 20 -39 20 -11 0 -30 18 -46 42
-25 37 -29 40 -40 25 -18 -24 -59 -21 -93 8 -30 25 -57 32 -66 17z m172 -859
c1 -22 0 -24 -8 -13 -12 18 -13 40 -2 40 4 0 9 -12 10 -27z m512 -3342 c0 -6
-4 -12 -9 -15 -13 -8 -42 4 -35 15 7 12 44 12 44 0z m-2610 -1821 c0 -5 -4
-10 -10 -10 -5 0 -10 5 -10 10 0 6 5 10 10 10 6 0 10 -4 10 -10z"/>
<path d="M9190 12121 c0 -5 11 -11 25 -13 13 -3 22 -2 20 3 -3 4 1 10 7 12 7
3 -2 6 -19 6 -18 1 -33 -3 -33 -8z"/>
<path d="M9315 11670 c3 -5 8 -10 11 -10 2 0 4 5 4 10 0 6 -5 10 -11 10 -5 0
-7 -4 -4 -10z"/>
<path d="M10480 9541 c0 -5 5 -13 10 -16 6 -3 10 -2 10 4 0 5 -4 13 -10 16 -5
3 -10 2 -10 -4z"/>
<path d="M10945 9237 c-4 -15 -11 -27 -16 -27 -5 0 -9 -8 -9 -17 1 -16 2 -16
13 -2 7 8 20 20 30 25 15 9 16 12 3 29 -14 19 -15 19 -21 -8z"/>
<path d="M11655 9177 c-11 -13 -26 -22 -34 -19 -8 3 -20 -3 -27 -13 -8 -10
-14 -15 -14 -11 0 5 -9 -2 -20 -16 -15 -20 -27 -24 -57 -23 -20 2 -39 8 -41
14 -7 21 -42 12 -42 -10 0 -16 -5 -20 -20 -16 -16 4 -21 -1 -26 -21 -10 -48
-12 -50 -38 -45 -21 4 -25 2 -20 -11 3 -9 2 -16 -4 -16 -6 0 -8 -10 -4 -22 3
-14 2 -19 -6 -14 -8 5 -12 -2 -12 -19 0 -21 -8 -30 -42 -45 -23 -10 -46 -16
-52 -13 -5 4 -6 1 -1 -6 4 -7 2 -24 -5 -37 -10 -18 -17 -21 -31 -13 -16 8 -19
6 -19 -17 0 -32 -53 -84 -86 -84 -17 0 -22 -4 -18 -15 7 -18 0 -19 -29 -3 -20
10 -21 10 -8 -5 7 -10 26 -17 41 -17 33 0 45 -13 55 -57 8 -37 17 -41 43 -15
9 9 25 16 34 14 21 -4 67 28 68 46 0 7 14 12 36 12 20 0 54 5 74 11 31 10 42
9 60 -4 16 -11 29 -13 47 -6 13 5 34 7 46 4 29 -8 59 41 61 96 0 31 5 39 19
39 10 0 21 9 24 19 3 11 11 17 18 15 7 -3 16 4 20 15 3 12 10 21 15 21 17 0
21 40 6 69 -19 36 -20 51 -3 51 17 0 51 75 43 95 -9 25 17 13 29 -13 5 -12 13
-22 18 -22 4 0 6 4 3 8 -8 13 23 52 41 52 11 0 14 -6 9 -25 -5 -21 -2 -27 20
-36 48 -18 58 -9 59 51 l0 55 -65 6 c-36 4 -83 10 -105 13 -35 6 -43 4 -60
-17z m-135 -97 c0 -5 -4 -10 -10 -10 -5 0 -10 5 -10 10 0 6 5 10 10 10 6 0 10
-4 10 -10z m-270 -220 c0 -5 -7 -10 -16 -10 -8 0 -12 5 -9 10 3 6 10 10 16 10
5 0 9 -4 9 -10z"/>
<path d="M8400 7400 c0 -5 5 -10 11 -10 5 0 7 5 4 10 -3 6 -8 10 -11 10 -2 0
-4 -4 -4 -10z"/>
<path d="M7588 7243 c7 -3 16 -2 19 1 4 3 -2 6 -13 5 -11 0 -14 -3 -6 -6z"/>
<path d="M10205 6120 c3 -5 11 -10 16 -10 6 0 7 5 4 10 -3 6 -11 10 -16 10 -6
0 -7 -4 -4 -10z"/>
<path d="M9753 6107 c-13 -5 -23 -16 -23 -22 0 -18 -88 -39 -105 -25 -15 12
-45 -12 -45 -36 0 -8 -10 -14 -23 -14 -13 0 -33 -13 -47 -30 -14 -16 -30 -30
-36 -30 -7 0 -14 -7 -18 -15 -4 -10 -14 -13 -36 -9 -23 5 -30 3 -30 -9 0 -9
-9 -22 -20 -30 -20 -14 -25 -41 -18 -97 2 -16 -2 -24 -10 -22 -9 2 -12 -14
-11 -60 1 -35 4 -57 6 -50 3 6 12 12 21 12 15 0 15 2 2 10 -13 8 -13 10 2 10
9 0 20 -5 23 -10 4 -6 21 -10 39 -8 17 1 38 -2 46 -7 8 -4 12 -5 8 0 -4 4 -3
14 3 22 6 7 9 22 6 34 -4 15 1 23 19 31 14 7 24 20 24 32 0 39 45 70 85 60 17
-4 27 -1 31 9 3 9 24 17 52 21 43 6 48 9 61 44 7 20 14 62 15 92 0 30 5 61 9
67 14 23 -5 42 -30 30z m-170 -155 c3 9 8 10 15 3 14 -14 3 -75 -15 -75 -8 0
-11 5 -8 10 4 6 0 22 -9 35 -20 30 -21 41 -2 26 11 -9 15 -9 19 1z m-178 -262
c3 -5 1 -10 -4 -10 -6 0 -11 5 -11 10 0 6 2 10 4 10 3 0 8 -4 11 -10z"/>
<path d="M10264 6101 c3 -5 18 -11 33 -14 16 -3 38 -8 51 -12 16 -5 22 -3 22
8 0 9 -14 17 -37 21 -53 8 -75 7 -69 -3z"/>
<path d="M10423 6038 l-32 -11 23 -18 c36 -28 56 -24 56 11 0 33 0 33 -47 18z"/>
<path d="M9267 5581 c8 -31 18 -33 38 -11 16 17 16 20 2 20 -8 0 -22 3 -30 6
-12 4 -14 0 -10 -15z"/>
<path d="M9246 5510 c-11 -3 -15 -9 -10 -12 5 -3 18 -2 28 2 11 3 15 9 10 12
-5 3 -18 2 -28 -2z"/>
<path d="M9166 5392 c-10 -9 15 -32 35 -32 12 0 16 5 13 14 -6 15 -39 28 -48
18z"/>
<path d="M9115 5370 c-3 -5 3 -10 14 -10 12 0 21 5 21 10 0 6 -6 10 -14 10 -8
0 -18 -4 -21 -10z"/>
</g>
</svg>
