<svg version="1" xmlns="http://www.w3.org/2000/svg" width="705.765" height="702.906" viewBox="0 0 529.324 527.18"><g fill="#222"><path d="M159.014 1.422c0 1.1.3 1.4.6.6.3-.7.2-1.6-.1-1.9-.3-.4-.6.2-.5 1.3zM148.514 1.622c-.4.3.3 1.6 1.5 2.8 1.3 1.4 1.7 2.4 1 2.9-1.5.9-1.4 2.5.2 2.5.8 0 1.2 1.5 1.1 4.7 0 3.6-.4 4.7-1.5 4.6-1.2-.2-4.2 3.5-6 7.7-.4.8-2.4 2.1-4.4 2.9-3.5 1.2-4 1.2-5.2-.4-1.2-1.7-1.4-1.7-3.2-.1-1 .9-2.8 1.8-3.9 1.9-1.2 0-2.3.9-2.5 1.9-.6 2.1-2.7 2.4-2.7.5 0-.8-1.1-2.4-2.5-3.7-1.5-1.4-2.5-1.8-2.5-1.1 0 1.1-.4 1.1-1.7 0-1.6-1.3-1.7-1.2-.4.3.7 1 1.9 1.8 2.7 1.8 1.5 0 2.3 2.5 2 6-.3 2.5 1.3 6 2.6 6 .4 0 .2-1.2-.4-2.6-1-2-.9-2.7.2-3.4.8-.5 1.6-.7 1.8-.5 1 1 .7 7.2-.4 9-1.6 2.5.3 5.7 3.2 5.3 1.1-.2 2 .1 2.1.5.1.4 1.3 2.2 2.7 3.8 1.5 1.7 2.6 3.6 2.6 4.3 0 .7 2.5 2 5.5 3 3 .9 5.5 2.1 5.5 2.7 0 .5.9 1.8 2.1 3 1.1 1.1 1.8 2.7 1.5 3.5-.3.8.1 1.4.9 1.4s1.5-.9 1.5-2c0-1.4.7-2 2.4-2 2.7 0 2.9-1.7.6-4.5-.8-.9-1.3-3.5-1.3-5.6.2-3.5-.1-3.9-2.2-3.9-1.3 0-2.6-.4-2.9-.9-.7-1.1-4.6-.2-4.6 1.1 0 .5-.5.6-1 .3-.7-.4-.2-1.5 1.3-2.9 3-2.8 2.6-7.7-.8-10.4-2-1.6-4.5-5.3-4.5-6.6 0-.3.7-.6 1.5-.6s2.1-1.3 2.9-2.9c.8-1.5 2.6-3.6 4-4.5 1.5-.9 2.6-2.3 2.6-3.1 0-.8 1-1.9 2.1-2.6 1.9-.9 2.1-1.7 1.5-5.6-.3-2.5-.2-4.2.3-3.8 1.4.8 1.9-1.8.7-3.7-1.3-2.1.1-3.8 1.5-1.8.6 1 1.1 1.2 1.7.4.4-.6 1.4-1.4 2.2-1.8.8-.3.3-.4-1.2-.1-1.5.3-2.9.1-3.3-.4-.8-1.4-6.3-4-6.9-3.3zM35.214 24.522c-.7.2-1.3 2.1-1.3 4.2 0 2.5-.7 4.2-2.2 5.6-1.3 1.1-2.6 1.9-3 1.7-.5-.1-.8.5-.8 1.4 0 1.1-.6 1.4-1.7 1-1.6-.5-1.6-.4.1.9 1 .8 2 2.5 2.1 3.9.2 1.4.6 3 1 3.5.3.6.1 1.1-.5 1.1s-1 1.4-.8 3.3c.2 3.7-.7 5.7-2.7 5.7-.7 0-1.8 1.5-2.4 3.2-2.4 6.9-3.5 8.4-7.3 10.2-2.1 1.1-3.8 2.5-3.8 3.2 0 .8-.6 1.1-1.7.7-1.2-.5-1.5-.2-1 .9.3 1-.1 1.8-1.3 2.1-2.7.7-3.9 9.2-1.6 11.5 1.6 1.6 1.8 1.6 3-.1 1.2-1.6 1.4-1.5 2 1.6.9 5-.7 8.2-5.8 11.2-2.8 1.6-4.6 3.4-4.6 4.5 0 1-.3 2.6-.7 3.6-.5 1.4-.2 1.6 1.5 1.2 1.1-.3 2.2-.2 2.4.3.2.6 1.2.2 2.3-.8 1.1-1 2.8-1.7 3.8-1.5 2.4.5 2.2-1.5-.3-2.3-3.8-1.2-2-2.2 2.7-1.5 4.7.7 6.2 0 11.7-5.6 1.4-1.5 4.4-.6 5.1 1.5.3.9 2.1 2.3 3.9 2.9 2.4.9 4.4 2.8 6.5 6.2 2.3 3.8 3.5 4.8 4.8 4.3 1.5-.5 1.6-.3.5.8-1 1.1-.6 1.9 2 4.3 1.8 1.7 4 2.9 4.9 2.8.9-.2 2.2.4 2.9 1.3 1.6 1.9 3.4 1.9 5.5-.1 1.5-1.5 1.7-1.5 3.5.1 1.9 1.7 1.9 1.8 0 4.3-2.3 2.9-2.6 4.6-.6 3.9.9-.4 1.6.3 2 1.9.4 1.5 1.4 2.4 2.6 2.4 2.3 0 2.3-.3 1.1-4.7-.6-2-.6-3.5 0-3.8.5-.4.6-1.7.3-3.1-.4-1.7-.2-2.4.9-2.4 1.5 0 2.8-4.2 1.8-5.8-.3-.5-2-1.6-3.6-2.5-3.7-1.8-7.4-5.7-5.5-5.7.7 0 .2-1.4-1.4-3.4-1.4-1.9-2.6-4-2.6-4.6 0-1.7-3.2-8.2-3.7-7.6-.3.3-1.2-.2-2-1-1.8-1.8-.8-9.4 1.2-9.4.7 0 1.5-.4 1.7-.8.2-.4 2-1.8 4.1-3.1 3.3-2 3.8-2.7 3.2-5-.3-1.4-1.3-3.1-2.1-3.8-1.2-.8-1.4-2-.9-4.4.4-1.8.3-3.4-.3-3.8-1.7-1.1-2.6-5.3-1-5 1.7.3 6.4-1.7 7.3-3.1.4-.6 1.5-.8 2.5-.5 2 .6 3.7-2.6 2.4-4.6-.4-.8 0-.9 1.5-.4 3.3 1 1.7-1.5-3.3-5.5-2.9-2.3-4.6-4.5-5-6.6-.4-1.7-1.7-4.1-2.9-5.3l-2.4-2.1-1.2 2.6c-.8 1.9-1.6 2.4-2.9 1.9-2.2-1-3.7-1-9.5-.1l-4.8.7-2-4.5c-1.1-2.5-2.1-4.6-2.2-4.5-.1 0-.8.3-1.4.6z"/><path d="M109.114 27.822c-.6 1.1-1.2 2.9-1.2 4 0 1.2-.7 2-1.6 2-1.2 0-1.5.7-1.2 3 .2 1.6 0 3.1-.5 3.3-1.3.4 1.4 5.7 3 5.7.7 0 1.3.5 1.3 1.1 0 2 2.7 3.8 4.9 3.2 1.2-.3 2.1-.1 2.1.6 0 .6-1 1.1-2.2 1.1-1.9 0-2 .2-.6 1.7.8 1 1.8 2.5 2.1 3.4.7 2.2-2.4 1.4-5.3-1.3-1.7-1.6-2.4-1.8-3-.8-.5.8-1.5 1-2.6.5-1.1-.4-3.6-1.1-5.7-1.5-3.4-.7-3.8-.5-4.3 1.6-.3 1.3-1.2 2.4-2 2.4s-1.4.4-1.4 1c0 .5-.7 1-1.5 1-1.8 0-1.9 1.2-.4 2.7 1.2 1.2 2.9 12.3 1.8 12.3-.4 0-.5.8-.2 1.9.5 2.1-6 8.1-9 8.1-1.4 0-1.6.4-.7 1.9.5 1.1 1 3.2 1 4.6 0 2.9-3.8 10.5-5.2 10.5-.5 0-.6 1.1-.2 2.4.3 1.5-.1 3.4-1.2 5.2-1.2 1.7-1.9 4.9-2.1 8.3-.1 3.1-.4 7.7-.6 10.3-.4 4.2-.2 4.8 1.7 5.4 1.1.4 2.4 1.1 2.7 1.7.4.5 2.5 1.1 4.7 1.4 3.4.4 4.1.2 4.7-1.6.3-1.2 1.5-2.1 2.5-2.1s2.5-1.2 3.5-2.6c1.6-2.5 1.8-4.8 1.3-11.9-.2-2.2.1-2.9 1.2-2.7 4.7 1.1 6.9 1 7.4-.4.3-.9 1.4-1.4 2.3-1.2 1 .1 2.4-.1 3.1-.5.8-.5 1.2-.3 1.2.7 0 2.4 2 1.9 4.7-1 1.3-1.4 2.3-2.7 2.1-2.8-3.1-2.1-5.8-4.6-4.9-4.6.6 0 1.1-.7 1.1-1.6 0-1.3.7-1.5 3.3-1.1 3.6.5 7.7-.7 9.3-2.8.9-1.2 1.6-1.2 4.8.4 2 1.1 4.8 3.1 6.2 4.5 1.4 1.3 3.2 2.2 4 1.9.8-.3 1.8.5 2.4 1.9.6 1.2 3.2 3.6 5.8 5.2 2.6 1.6 5.8 4.7 7.2 6.8 2.7 4.3 3.9 4.7 4.7 1.8.6-2.3 2.1-2.6 2.9-.6.5 1.4 5.9 3.3 7.8 2.7.5-.1 1.6.5 2.5 1.3.9.8 4 1.8 7 2.2 5.2.7 5.6.6 7.7-2.1 1.8-2.2 2-3.3 1.2-5-1.3-2.8 1.5-6.5 5-6.5 1.3 0 3.6-.7 5.1-1.5 2.7-1.3 2.9-1.3 3.9 1 .6 1.3 2.1 2.5 3.3 2.7 1.2.2 2.4 1 2.7 1.8.4 1.2.2 1.3-.9.3-1.7-1.7-5 1.1-4.2 3.5.4.9.2 1.3-.4.9-.6-.4-1.6 0-2.3.8-.9 1.1-1.7 1.2-3 .5-1-.6-2.9-1-4.3-1-2.2 0-2.3.2-1.7 4.7.8 6 3.2 10.7 7.5 14.4 3.4 3 4.6 6.1 3.4 8.9-2.3 5.3-2.7 8-1.3 9.1 1.9 1.6 1.8 4.3-.1 3.5-.9-.3-1.5 0-1.5.8s.4 1.6 1 1.8c.5.1 1.1 1.4 1.2 2.8.3 2.1-.3 2.7-3 3.5-1.8.5-3.1 1.4-2.8 2 .3 1-.8 1.3-5.4 1.6-2.1.1-2.3 3.6-.3 6.5 1.4 2.3 1.4 2.6-.2 4.4-1 1.1-2.1 1.7-2.6 1.5-.4-.3-3.1 1.8-6.1 4.7-4.2 4.1-6.1 5.2-9 5.5-2.1.1-3.8-.2-3.8-.7 0-1.4-2.3-1.2-4.6.4-1.8 1.4-1.8 1.5.6 2.4 3.2 1.2 5.4 3.8 4.7 5.4-.2.7-.5 1.7-.6 2.3-.2.5-.9 1.4-1.7 1.8-.8.5-1.2 1.2-.9 1.8.4.5-.3.9-1.4.9-1.2 0-2.1.7-2.1 1.6 0 .9-.5 1.2-1.2.8-.7-.4-.8-.3-.4.5.4.6 1.1.9 1.6.6 1.5-.9 2.4 4.4 1.1 5.9-.8 1-.9 1.6-.2 2.1 1.6.9-1.4 6.1-3.7 6.7-2 .6-3.7 6.3-2.7 9 .3.8-.1 2.1-.9 2.8-.9.7-1.3 1.6-1 2.1.3.5 0 .9-.5.9-.6 0-1.1.6-1.1 1.2 0 .7-1.6 2.4-3.5 3.7-2.8 1.9-3.3 2.7-2.5 4.1.8 1.4.4 2.2-1.6 3.5-1.4.9-3.2 1.4-3.9 1.1-.8-.3-1.6 0-1.8.7-.3.9-.8.8-2-.2-1.4-1.1-2-1.1-3.4 0-2.8 2.2-4.3 4.3-3.8 5.6.2.6-.3 1.4-1.1 1.7-2.4.9-1.7 6.2 1.2 8.3 1.8 1.3 2.6 3 2.8 5.6.2 2 .8 4.3 1.5 5.1 1.3 1.5 1.4 4.8.5 11.6-.5 4.2-.3 4.7 2.6 6.8 3.3 2.5 4.5 2.7 9.7 1.6 2.7-.5 3.6-.2 5.5 2.1 1.6 1.8 3.6 2.8 6.6 3.2 2.3.3 4.2 1 4.2 1.4 0 .5.6.9 1.4.9.8 0 2.8 1.3 4.6 3 2.2 2 2.7 3 1.6 3-1.2 0-1.4.5-.6 2.4 1.1 2.9.5 3.6-3.2 3.6-2.7 0-2.8.1-1.4 1.6.9.8 1.6 2.4 1.6 3.4 0 1.6 7.3 8 9.1 8 .4 0 2.1-1.4 3.7-3 1.7-1.7 3.6-3 4.4-3 1.8-.1 4.8-2.5 4.8-3.9 0-1.7 2-1.3 2.7.6 1.4 4 2.2 4.2 7.1 1.8 4.1-2.1 5-2.2 6.9-1 2 1.3 2.2 1.2 4.2-3 2-4.3 4.8-6.1 8.3-5.6 1 .1 2.6-.3 3.7-.8 1.4-.8 2.2-.7 3 .3.6.8 3.2 1.9 5.8 2.5 3.8 1 4.8.9 6.3-.4.9-.8 2.6-1.5 3.8-1.5 1.2 0 3.2-.5 4.5-1.1 1.8-.8 3-.8 4.8.1l2.4 1.3-2.4-2.7c-1.9-2-2.1-2.6-.9-2.6 2.1 0 2.9-3.5 1.2-5.7-1.5-2-1.8-3.4-.6-3.2 2.5.4 3.2-.4 3.2-3.6 0-2.4.5-3.5 1.5-3.5 2.1 0 1.9-2.6-.4-4.2s-1.8-5.8 1-8.4c3.5-3.1 1.6-13.4-2.5-13.4-1.8 0-1.8-.1-.2-1.9 1-1.1 3.1-2.3 4.6-2.6 2.2-.5 2.9-1.3 3.3-3.8.2-1.8 0-3.7-.5-4.4-1.3-1.7-.1-3.3 2.4-3.3 3.6 0 9.8-2.3 9.8-3.6 0-1.9 1.9-2.7 3.3-1.5.7.5 1.8.6 2.5.2.9-.6.7-1.8-1-4.9l-2.3-4.1 2.1-1.9c1.1-1.1 3.4-2.3 5.1-2.6 1.8-.4 3.5-1.7 4.2-3.2.9-2 1.5-2.3 3.8-1.8 2.3.5 2.6.4 1.6-.7-1.7-1.7-1.6-2.9.1-2.9 1.7 0 3.1-1.8 2.1-2.8-.3-.3-1 0-1.5.8-.8 1.3-1.1 1.3-2.2.1-1-1-1-1.2 0-.7.8.5 1.2 0 1.2-1.3 0-2.4 1.5-2.8 2.4-.6.3.8 1.6 1.5 2.8 1.5 1.3 0 2.9.9 3.6 2.1.7 1.2 1.6 1.8 1.9 1.5.4-.3 1.7.3 2.9 1.5 1.3 1.2 3.6 2.2 5.1 2.2 3.6-.1 11.6-2.4 12.4-3.6 1.1-1.6 3.9 0 3.9 2.2 0 1.1.7 2.4 1.6 2.9 1.2.6 1.3 1.1.5 1.6s-.5 1.6 1 3.8c1.7 2.3 1.9 3.2.9 3.8-.7.4-1 1.5-.7 2.4.4.9-.1 2-1.1 2.5-1.4.9-1.1 1 1.6 1.1 2.1 0 3.2-.5 3.2-1.4 0-2.5 1.9-2.8 4.2-.7 1.2 1.2 2.6 2.1 3.1 2.1s.7.7.4 1.5c-.4.8-.1 1.7.5 2.1.7.5.8.2.3-.7-.6-1.1-.5-1.2.5-.2 1.8 1.7-.4 4.3-3.6 4.3-2.9 0-3.8 1.4-1.9 3 1.6 1.4 1 3.4-.7 2.4-.7-.5-.9-.1-.5.9.5 1.2.1 1.7-1.2 1.7-1 0-2.4.6-3 1.4-.6.8-2.4 1.9-4 2.6-2.4.9-2.8 1.6-2.5 4.2.2 1.7 1.2 3.7 2.1 4.4 1.5 1.1 1.5 1.5.4 2.3-.9.6-1 1-.2 1.6.9.5.9 1 .1 2-.7.8-.9 1.9-.5 2.5.4.7-.2.6-1.4-.2-1.2-.7-2.1-1.6-2.1-2 0-.5-.6-.8-1.3-.8-.8 0-1.3 1.3-1.4 3.5-.1 2.8.5 3.9 2.7 5.5 3.8 2.7 4.5 7.4 1.4 9.1-1.3.7-3 3.1-3.8 5.6-1.4 4-1.4 4.4 0 3.2 1.1-.9 1.8-.9 2.6-.1 2.7 2.7 7.9.4 7-3-.2-1 .1-1.8.8-1.8 1 0 .9-.5-.3-1.8-.8-.9-1.8-3.1-2.2-4.7-.4-1.7-.9-3.8-1.2-4.8-.4-1.6-.2-1.7 1.6-.5 1.6 1 2.3 1 3.3 0 .6-.6 1.8-1.2 2.5-1.2.8 0 2.4-.9 3.5-2 1.2-1.1 2.9-1.8 3.8-1.5.8.3 2-.3 2.7-1.4.9-1.5.8-2.2-.7-3.9-1-1.1-1.7-2.2-1.4-2.5.3-.3-.1-.5-.8-.4-.7 0-3.1-.1-5.3-.2-3.6-.1-3.8-.3-2.2-1.5 1.2-1 1.6-2.1 1.2-3.8-.8-3.2 3.5-7.1 7-6.2 1.5.4 2.5.2 2.5-.5 0-.6 1.1-1.1 2.5-1.1 1.6 0 2.5-.6 2.5-1.5s-1.1-2.1-2.5-2.7c-2.7-1.2-3.4-4.3-1.1-5.1.8-.3 2.6.6 4 2.1 4.8 5.1 12.3 10.7 18.4 13.9 1.7.9 3.2 2.4 3.3 3.2.5 6.4.8 8.6 1.7 10.5.5 1.1 1.7 4.7 2.6 7.8 1.9 6.5 5.9 12 8.1 11.1 2-.7 8.5 5.9 8.5 8.6 0 1.6.6 2.1 2.6 2.1 1.9 0 2.8-.7 3.7-3 .6-1.7 1.8-3 2.5-3 1.2 0 1.3-1.2.8-5.8-.4-3.2-.3-6.2.1-6.6.4-.4.8-1.3.9-1.9 0-.7.2-2 .2-3 .2-1.5.5-1.5 2.2-.5 1.3.8 1.8 2 1.5 3.5-.2 1.3 0 2.3.5 2.3 1.6 0 2.1-1.9 1-4.1-.6-1.1-.8-2.8-.4-3.7 1.5-3.5.5-5.8-4.7-11.1-2.5-2.5-2.6-2.8-1.7-10.6.8-7.6.7-8.3-1.8-13.3-1.7-3.4-2.3-5.6-1.7-6 .6-.4 1.8-2.2 2.7-4 1.3-2.4 1.4-3.7.6-5.2-.6-1.1-1.4-1.9-1.8-1.9-2.6.4-3.2-.2-2.2-2 1.3-2.5 1.3-3.1-.1-3.1-1.5 0-6.9-6-8.1-8.9-.5-1.3-.7-3-.4-3.7.7-1.7-1.8-7.7-3.8-9.4-.9-.7-1.6-1.8-1.6-2.6 0-1.8-3.7-3.7-6-3.1-2.8.7-5-2.4-5.2-7.2-.1-2.9-.8-4.7-2.2-5.9-1.4-1.1-2-2.6-1.8-4.3.3-2.8-1.5-3.9-7-3.9-2.4 0-5.1-2.7-5.3-5.2 0-1.2-7.9-6.7-9.7-6.8-.9 0-2.7-.4-4-.9-1.3-.5-4.1-1.4-6.3-2.1-3.6-1.2-7.7-4-5.8-4 .4 0 .2-.4-.6-.9s-1.6-1.7-1.7-2.5c-.1-.9.2-1.4.7-1 .5.3.9-.2.9-1.1 0-.9.4-1.4 1-1 .5.3 1.8-.3 2.8-1.3 2.3-2.3 1.9-6.8-.8-8.2-1.5-.8-1.7-.6-1.3.9.3 1.4 0 1.9-1.3 1.8-1.3-.2-2 .9-2.6 3.8-1.2 5.4-1.8 5.8-6.6 4.2-4-1.4-4.2-1.4-4.2.4 0 2.3-3.5 2.6-4.4.4-.3-.8-1.2-1.5-1.9-1.5-.8 0-2-.7-2.7-1.5-.7-.8-2.5-2.1-4-2.8-2.5-1.3-2.7-1.2-2.3.3.5 1.9-4.2 4.6-5.2 2.9-.4-.5-1.1-.6-1.7-.3-1 .7-5.7-4.3-5.8-6.1 0-.6-1.8-1-4.1-1-2.7 0-4.5-.6-5.4-1.8-1.4-1.9-3-2.4-1.9-.5.4.7.3.8-.5.4-.6-.4-.9-1.2-.6-1.7.4-.5.1-.9-.5-.9-.8 0-1-.9-.6-2.4.3-1.4.2-2.8-.4-3.1-.7-.4-.7-1.2 0-2.5 1.2-2.2.4-2.8-3-2.4-3.4.3-6.2-.5-5.4-1.7.3-.6 1.2-.8 2-.5 1.1.4 1.2.1.4-1.3-.7-1.5-.6-2 .9-2.4 1.3-.3 2.3.3 3.2 1.9.7 1.4 2.1 2.4 3.5 2.4 1.2 0 2.9.2 3.6.5.9.4 1.9-.3 2.4-1.6l1-2.3 2.1 2.1 2.1 2.1.6-2.3c.3-1.3.3-3.6 0-5.3-.7-3.3 1.1-7.6 2.9-6.9 4.7 1.9 4.8 1.9 2.1-.9-1.8-2-2.8-2.5-3.1-1.6-.4.9-.8 1-1.8.2-.9-.7-1.5-.8-1.9-.1-.7 1.1-3.7.3-4.8-1.3-.5-.7-.8-.7-.8.2 0 1-.5 1-2 .2-1.6-.9-1.8-.8-1.4.5.4.8.1 1.5-.5 1.5s-1.1.6-1.1 1.4c0 1.2-.7 1.3-3.2.5-1.8-.5-3.4-1.4-3.6-1.9-.2-.6-1-1-1.9-1-.8 0-2.3-1-3.4-2.3-1-1.2-1.8-1.6-1.9-1 0 .7-.9 1.3-2.1 1.3-1.3 0-2.3 1-3.1 3.1-.7 2-1.5 2.8-2.5 2.5-.8-.3-1.7-.6-1.9-.6-.2 0-.4-.5-.4-1.1 0-.5.5-.7 1-.4 1.5.9 1.2-.1-.4-1.5-1.2-.9-2-.4-4.3 3.2-1.5 2.4-2.8 4.5-2.8 4.8 0 .3-.4 1.1-.8 1.7-.5.7-.5 1.8-.1 2.4.4.7.1 1-.7.7-.8-.3-1.3-1.5-1.1-2.6.2-1.2-.2-2.2-.8-2.2-.6 0-.2-1 1-2.2 1.1-1.2 1.7-2.4 1.4-2.7-.3-.3-.9.1-1.4.9-.6.8-1 1.1-1 .5 0-.5-.5-.4-1.2.3s-2 1.2-3 1.2-1.8.4-1.8 1c0 .5-1 1-2.2 1l-2.3.1 2.3 1.9c1.6 1.4 2.2 2.8 2 4.7-.3 2.5-.6 2.8-3.8 2.5-1.9-.1-3.9-.8-4.5-1.5-.5-.6-3.2-1.3-5.8-1.5-2.6-.1-5.8-.9-7.1-1.7-1.3-.9-3-1.3-3.8-1-1.8.7-4.2-1.5-6.4-5.7-1.4-2.8-1.4-3.2 0-4.6 1.5-1.5 1.6-1.4 1.6 1.5 0 2 .9 4.1 2.4 5.6l2.3 2.4 1.5-2.5c1.3-2.1 1.7-2.2 2.9-.9 1.2 1.3 1.7 1.3 3.7-.1 2-1.3 2.7-1.4 4.5-.2 2.2 1.3 2.2 1.3.3-.9-1.1-1.1-1.4-2.1-.8-2.1.7 0 .9-1.6.5-4.9l-.6-5 3.9-.7c2.2-.5 4.2-.7 4.7-.6 1.1.3.9-3.6-.3-4.3-.5-.3-1-1.5-1-2.5s-1.2-4.2-2.6-7.1l-2.7-5.2 2.4-1.8c1.3-1 2.8-1.9 3.3-1.9s.1-.9-.8-1.9c-1.7-1.8-1.6-1.9.3-2.6 2.4-.7 3.8-4.4 2.1-5.5-.9-.6-.9-1.3.2-3 1-1.8 1-2.4.1-2.7-.7-.3-1.3-1.3-1.3-2.4 0-2.3-2.3-3.4-4.7-2.3-1 .4-2.2.6-2.8.5-4.5-1.2-7.6-.8-8.6 1.1-.9 1.7-1.8 2-5.5 1.4-2.7-.3-4.4-.2-4.4.5 0 .6-.9.5-2.2-.3-1.3-.6-3.2-1.2-4.2-1.3-1.1-.1-2.2-.7-2.4-1.3-.2-.7-1-1.2-1.8-1.2-1.6 0-1.9-1.6-.4-2.5 1-.6 5-9.1 5-10.6 0-.5-.9-.4-2 .3-1.5 1-2.7 1-5 .1-2.7-1-3-.9-3 .8 0 1.6-.5 1.8-2.5 1.3-1.9-.5-2.5-.2-2.5 1.1 0 1-.6 1.5-1.2 1.2-.7-.2-2.2-.1-3.3.4-1.4.5-1.6.8-.4.8 1.8.1 6.8 5.1 5.1 5.1-.7 0-1.2-.4-1.2-.8s-2.4-.7-5.2-.7c-5.4.1-8.2-.7-10.6-3.2-2.2-2.1-3.1-1.5-3.4 2.4-.3 3.7-.4 3.8-4 3.5-3-.3-4.2.2-6.7 2.9-2.5 2.6-3.1 2.8-3.1 1.4 0-1.8-.1-1.8-1.4.1-1.4 1.8-1.5 1.8-3.7-.9-1.7-2.2-2.4-2.6-3-1.5-.5.7-.9.8-.9.2 0-.5.5-1.5 1.2-2.2.7-.7.8-1.2.3-1.2-.6 0-.4-.4.2-.8 1-.6.9-1.3-.3-3-1.8-2.5-3.4-2.9-3.4-.7 0 .8-.3 1.5-.8 1.5-1.5 0-5.2-3.1-5.2-4.4 0-2.1-4.5-5.6-7.2-5.6-2.8 0-5.3-2.3-4.3-4 1-1.6-1.4-4-3.9-4-2.1 0-2.1-.1.2-1.8 2.4-1.9 2.2-5.5-.3-4.6-1.1.4-1.3-.4-1-3.3.3-4-1.6-8-3.4-6.9-1.1.7-4.4-4.8-3.4-5.8.4-.3.2-.6-.3-.6s-1.5.9-2.2 2zm80.8 40.1c0 .6-.4.7-1 .4-.5-.3-1-1.1-1-1.6 0-.6.5-.7 1-.4.6.3 1 1.1 1 1.6zm-95 9.9c0 .5-.4 1-1 1-.5 0-1-.5-1-1 0-.6.5-1 1-1 .6 0 1 .4 1 1zm126.5 9.1c1.1 1.7-.1 2.1-1.5.4-.8-.9-.8-1.5-.2-1.5.6 0 1.4.5 1.7 1.1zm30.5 42.3c0 1.1-1.9 1.5-2.5.6-.3-.5.1-1 .9-1 .9 0 1.6.2 1.6.4zm-1 7.1c0 .8-.4 1.5-1 1.5-.5 0-1-.7-1-1.5s.5-1.5 1-1.5c.6 0 1 .7 1 1.5zm-25.3 13.1c-.3.3-1.2.4-1.9.1-.8-.3-.5-.6.6-.6 1.1-.1 1.7.2 1.3.5zm86.3 24.4c0 .5-.2 1-.4 1-.3 0-.8-.5-1.1-1-.3-.6-.1-1 .4-1 .6 0 1.1.4 1.1 1zm-87 30c0 .5-.4 1-.9 1-.6 0-1.3-.5-1.6-1-.3-.6.1-1 .9-1 .9 0 1.6.4 1.6 1zm90.5 1.8c-.3.3-1.1 0-1.8-.7-.9-1-.8-1.1.6-.5 1 .3 1.5.9 1.2 1.2zm-134.4 5.5c-.1.4-.1 1.4-.1 2.3 0 .8-.4 1.2-1 .9-1.3-.8-1.3-4.8.1-4.3.6.2 1 .7 1 1.1zm100.4 7.7c.3.6-.1.7-.9.4-1.8-.7-2.1-1.4-.7-1.4.6 0 1.3.4 1.6 1zm63.6 3.3c-.1 1.2-1.5.9-1.9-.4-.3-.6.1-1 .8-.8.6.3 1.1.8 1.1 1.2zm-46.1 2.2c0 1.7-.2 1.8-2.4.9-2.3-.9-2-2.4.4-2.4 1.1 0 2 .7 2 1.5zm-80 32.5c0 .5-.2 1-.4 1-.3 0-.8-.5-1.1-1-.3-.6-.1-1 .4-1 .6 0 1.1.4 1.1 1zm0 17c0 1.1-.6 2-1.4 2-.9 0-1.2-.7-.9-2 .3-1.1.9-2 1.4-2 .5 0 .9.9.9 2zm36.5 6c-.3.5-1 1-1.6 1-.5 0-.9-.5-.9-1 0-.6.7-1 1.6-1 .8 0 1.2.4.9 1zm-77.2 40.8c1.6 1.8 1.6 1.9-.3 1.7-2.5-.2-3.4-1.1-2.5-2.4.8-1.4.9-1.4 2.8.7z"/><path d="M245.914 75.322c0 .8-.6 1.5-1.2 1.5-.9 0-.8.4.2 1 1.2.7 1.3 1.3.3 2.8-1 1.7-.8 2.1 1.4 3.3 2.1 1.1 2.7 1.1 3 .1.3-.6 1.3-1.2 2.3-1.2 2.2 0 7.5-6.4 6.5-8-1-1.7-2.5-1.1-2.5 1 0 2.3-.8 2.5-2.9.6-2.6-2.2-7.1-2.9-7.1-1.1zM236.414 83.822c-.9 1.5-.1 2.3 2.1 1.8 1.5-.3 1.6-.4.1-1.6-1.1-.9-1.7-1-2.2-.2zM241.414 118.822c.3.5 1 1 1.6 1 .5 0 .9-.5.9-1 0-.6-.7-1-1.6-1-.8 0-1.2.4-.9 1zM246.214 119.522c-1.7.6-1.6 2.8.1 4.2 1.3 1.1 1.5 1 2.5-3.4.3-1.1-.9-1.5-2.6-.8zM229.414 131.822c.4.6 1.1.8 1.6.5 1.4-.9 1.1-1.5-.7-1.5-.8 0-1.2.5-.9 1zM70.514 137.922c-.3 1.7-.6 4.6-.6 6.4 0 2.4-.5 3.4-2 3.8-2.2.6-2.8 3.7-.6 3.7 3.4 0 7.4-2.5 10.4-6.5l3.2-4.5-2.2-2.5c-1.2-1.4-2.8-2.3-3.6-2-.8.3-2 .1-2.7-.5-.9-.8-1.4-.3-1.9 2.1zM332.514 141.822c-.3 1.9 0 4.2.8 5.8l1.4 2.6.7-4.3c.5-3.2.3-4.7-.8-5.8-1.2-1.3-1.5-1.1-2.1 1.7zM289.914 142.222c0 3.1 2.3 7.6 3.9 7.6 1 0 2.8 1.1 4.1 2.5 1.3 1.4 2.6 2.3 2.8 2 .3-.3 1-.1 1.7.5.8.6 1 .1.9-1.8-.2-3.8-.3-3.9-1.7-1.6-1.2 2.2-1.2 2.2-3.9-.6l-2.7-2.8 2.4-.6c2.8-.7 3.3-2.1 1-3-.9-.3-1.5 0-1.5.8 0 1.1-2 2.6-3.5 2.6-.2 0-.7-1.6-1.1-3.5-.6-3.4-2.4-5-2.4-2.1zM376.314 198.422c.3.9.6 1.8.6 2 0 .2.9.4 2.1.4 1.5 0 1.9-.4 1.5-1.6-.3-.9-.6-1.8-.6-2 0-.2-.9-.4-2.1-.4-1.5 0-1.9.4-1.5 1.6zM126.414 266.822c.3.5.8 1 1.1 1 .2 0 .4-.5.4-1 0-.6-.5-1-1.1-1-.5 0-.7.4-.4 1zM124.514 270.022c-.5 1-.6 2.5-.2 3.3.3.8-.2 1.9-1.2 2.4-1.6 1-1.6 1 .1 1.1 2.1 0 3-1.9 2.5-5.7-.3-2.3-.6-2.5-1.2-1.1zM117.914 277.322c.7.8 1.6 1.5 2.1 1.5s.9-.7.9-1.5c0-.9-.9-1.5-2.1-1.5-1.8 0-1.9.2-.9 1.5zM121.914 280.822c0 .5.5 1 1.1 1 .5 0 .7-.5.4-1-.3-.6-.8-1-1.1-1-.2 0-.4.4-.4 1zM412.614 309.522c.4 1 .2 1.4-.4 1-.6-.4-1.6-.1-2.2.7-.8 1-.8 1.6.3 2.5.9.7 1.7.8 2 .2.7-1 4.4-.3 6.6 1.3 1.3 1 1.3.9 0-.9-4.2-5.8-7.7-8.5-6.3-4.8zM296.414 313.722c.6 1.1-.1 1.3-4.4.9-4.2-.4-4.9-.3-4 .9 1.6 1.9.2 3-2.1 1.5-1.6-1-2.1-.8-3.3.9-.8 1.1-2.3 1.9-3.3 1.7-1.2-.2-1.9.3-1.9 1.4 0 1.7-4.2 6.8-5.7 6.8-.5 0-1.3-1.1-1.7-2.4-.7-1.7-2-2.5-4.7-2.9-2.2-.4-4.1-.2-4.4.4-.4.5-1.4.7-2.2.4-1.1-.4-1.8.1-2.3 1.4-.3 1.2-1.3 2.8-2.2 3.7-1.3 1.2-1.3 1.5-.2 1.2.8-.2 1.5 0 1.6.4.4 1.5-2.8 7.9-4.2 8.5-.8.3-1.5 1.3-1.5 2.3 0 1-.6 2.1-1.2 2.3-.8.4-.4.8 1 1.3 1.7.5 2 1 1.1 2-1.4 1.7-.8 7 .9 6.6.7-.1 2.2.3 3.3.8 2.8 1.5 5.6.4 6.3-2.5.4-1.5 1.1-2.2 2-1.9.7.3 1.6-.2 2-1.1.3-.9 1.1-1.3 1.6-1 1.7 1.1 10.4 1.3 11.6.3.7-.5 2.3-.4 3.9.2 2.2.8 3.1.7 4.5-.5.9-.8 3-1.5 4.7-1.5 2.2 0 3.2-.6 3.6-2 .4-1.5 1.3-1.9 3.9-1.8 1.9.1 4-.2 4.7-.6.6-.4 1.8-.3 2.5.4 1.7 1.4 7.5-1.8 6.9-3.8-.3-.6 0-1.2.7-1.2.6 0 .9-.4.5-.9-.3-.5.9-1.1 2.7-1.3 3.3-.3 3.3-.3 3.2-5.6-.1-3.7.2-5.2 1.2-5.2.7 0 1.6.5 2 1.1 1.2 2 7.3-.6 7.4-3.1 0-.3-1.3-1.1-3-1.7-1.7-.6-3-1.9-3-2.8 0-1-.5-1.4-1.2-1.1-.7.3-2.1.9-3 1.2-1 .4-1.8 1.2-1.8 1.9 0 2.6-7.5 2.8-10.7.2-.8-.6-1.3-.6-1.3 0 0 .5-.7 1-1.5 1s-1.5-.4-1.5-.9c0-.4-1.1-.8-2.5-.8-1.8 0-2.5-.5-2.5-1.9 0-1-.8-2.5-1.7-3.2-1.4-1.2-1.6-1.2-.8 0zM427.914 317.322c0 .8-.9 1.5-1.9 1.5-2 0-3.1 1.8-3.1 5.1 0 1.1-.4 1.7-1 1.4-.5-.3-1-1.7-1-2.9 0-1.3-.7-2.9-1.5-3.6-1.3-1.1-1.5-.9-1.5 1.3 0 1.3.7 3 1.5 3.7.8.7 1.4 2 1.3 2.9-.2 1.1.3 1.5 1.6 1.3 1.4-.3 1.7.1 1.2 1.3-.3.9.1 2.6.9 3.8 1.8 2.5 2 5.1.4 4.1-.6-.3-1.5 0-2 .7-.4.8-1.2 1.4-1.6 1.4-.4.1-2.2 1.5-4 3.2l-3.2 3 2 1.9c3 2.7 4.8 6.6 4.3 9.4-.5 2.9 2.9 9 4.9 9 .8 0 1.8 1.4 2.3 3.2 1 3.4 3.4 5 3.4 2.2 0-.9.8-2.3 1.8-3.1.9-.8 1.2-1.2.5-.9-.6.4-1.4.2-1.7-.3-.4-.5.7-1.2 2.3-1.6 3.4-.7 3.3-3.5-.2-5.1-1.3-.5-2.1-1.7-2-2.8.1-1.1-1-3.7-2.3-5.8-2.2-3.5-2.3-4-.9-5.4 1.6-1.6 1.3-2.6-1.3-5.7-1.4-1.5-1.3-1.7.6-1.7 1.5 0 2.2-.6 2.2-2 0-1.1.6-2 1.4-2 .7 0 2.5-.6 3.8-1.3 2.5-1.2 2.5-1.2.7-5.2-.9-2.2-2.6-5-3.8-6.2-2.5-2.6-2.7-3.7-.6-2.9 1.3.4 1.4.2.5-1.4-1.3-2.3-4-2.7-4-.5zM434.614 318.322c.3.8.9 1.2 1.4.9 1.2-.7 1.1-1.1-.5-1.7-1-.4-1.3-.1-.9.8zM385.914 322.422c0 .8-.4 1.4-.9 1.4s-1.1 1-1.3 2.3c-.5 2.5 1.6 5.2 3.2 4.2.6-.3 1.1.4 1.2 1.7.1 1.3.2 3 .3 3.8.1.8 2.6 4.1 5.6 7.3 4.8 5 5.7 5.6 7.2 4.4 1-.7 1.9-2.5 2.1-4 .1-1.5.6-3 .9-3.4.4-.3.7-2.4.7-4.5 0-2.7-.4-3.8-1.5-3.8-.8 0-1.5-.9-1.5-2 0-1.2-1-2.4-2.4-3-1.3-.5-3-1.8-3.8-2.9-.8-1.2-1.7-1.8-2.1-1.5-.3.3-1.1.2-1.8-.2-2.4-1.4-5.9-1.3-5.9.2zM484.314 325.322c.1 1.9.7 3.7 1.4 4 .6.2 1.2 1.2 1.2 2 0 .9.4 1.4.9 1 .5-.3 1.2-.1 1.6.5 1.3 2.1 4.5-.9 4.5-4.2 0-3-.1-3-3.5-2.5-3.1.5-3.7.3-4.5-1.9-1.3-3.3-1.7-3-1.6 1.1z"/><path d="M420.014 331.022c.7 1.6 1.6 2.8 2.1 2.8 1.3 0 1-.9-1.3-3.3l-2.1-2.2 1.3 2.7zM488.114 336.022c-1.6 2-1.9 8.1-.4 8.4.7.1.8 0 .2-.3-1.5-.7-.2-2.3 2-2.3 1.1 0 2 .9 2.3 2.2l.4 2.3.8-2.3c.4-1.2 1.2-2.2 1.9-2.2 1.6.1 4.6 2.5 4.6 3.7 0 .6.7 1.6 1.5 2.3.8.7 1.5 2.1 1.5 3.1 0 1.1.6 1.9 1.4 1.9.8 0 1.8.5 2.2 1.2.5.7.2.9-.7.6-1.7-.6-5.6 1.1-6.1 2.7-.4 1.2-4.2.8-4.6-.5-.6-1.6-5.2-1.2-5.2.5 0 .8-.4 1.5-1 1.5-.5 0-1-.9-1-2s.4-2 .9-2c1.2 0 2.4-3.7 1.6-4.9-1-1.6-3.7 0-3.2 1.9.7 2.9-.7 4.4-3 3.1-1.7-.8-2.5-.5-4.8 1.9-1.5 1.5-2.4 3.3-2.1 3.8 1.3 2.1-1.4 2.2-3.4.2-2.3-2.3-5-2.7-5-.6 0 1.1-1 1.2-4.6.5-2.5-.5-5.1-1.2-5.7-1.6-.7-.4-2-.6-3-.5-.9.2-2-.4-2.3-1.3-.5-1.2-1-1.3-2-.4-.8.6-2.9.9-4.9.7-3.9-.4-4.4.3-3.7 4.9.2 1.9 0 3.3-.6 3.3-1.6 0-4.2 4.7-3.6 6.4.3.9 1.1 1.3 1.8.9.6-.4.4.3-.5 1.6-1.4 2.2-1.3 2.7 1 7.2 2.7 5 6.2 6.6 7.5 3.4.3-.8.9-1.5 1.3-1.4.4.1 1.5.1 2.3 0 1.1-.1 1.2-.3.3-.9-1.3-.8-.6-5.2.8-5.2.5 0 .9-.9.9-2s.5-2 1-2c.6 0 1 .3 1 .7 0 1.2 5 3.2 6.4 2.7 1.8-.7 2.8 2.3 1.6 4.6-.6 1-.6 2.1-.2 2.4 1.3.8 3.5-1.1 2.8-2.3-.8-1.2.9-1.3 3.6-.3 1.3.5 1.5 1.1.8 2.2-1.4 2.1-1.2 3 .5 3 1.4 0 1.9 1.1 1.6 3.7-.3 2.4 1.7 1.3 3-1.6 1-2.3 1.9-2.9 4.2-2.9 3.2.1 4.7 2.2 4.7 6.6 0 2.1.6 3.1 2 3.5 1.4.3 2 1.4 2 3.1 0 1.9.7 2.9 2.6 3.7 3.2 1.2 3.6.8 4.1-3.3.2-1.9 1.2-3.9 2.3-4.7 1.1-.7 2-2.1 2-3.1 0-.9.7-3.1 1.6-4.8 1.3-2.6 2.1-3.2 4.9-3.2 1.9 0 3.7-.5 4-1 .3-.6 1.5-1 2.6-1 1.2 0 2.8-1.4 4-3.5 1.2-1.9 2.5-3.5 3-3.5s.9-.7.9-1.5.7-1.5 1.5-1.5 1.5-.8 1.5-1.8c0-.9.9-2.3 2-3 1.1-.7 2-2.1 2-3.1 0-1.1.4-2.2 1-2.6.6-.4.6-1.4-.1-2.8-.8-1.7-1.8-2.2-4.7-2.2-2 .1-4.5.4-5.4.9-2.3 1.1-10.4-1.6-10-3.3.1-.7-.7-1.5-1.8-1.8-1.1-.3-2-1-2-1.5s.9-.6 2-.3c1.6.5 2 .2 2-1.9 0-2 .4-2.4 1.8-1.9s1.5.3.5-.8c-.7-.7-1.3-2.2-1.3-3.4 0-2.4-4.4-7.5-6.6-7.5-.8 0-1.3.4-1 .9 1.1 1.6-2.8 2.3-4 .7-1.4-2-3.5-2.1-2.8-.1.8 2-2.4 2-4.6 0-1.4-1.2-1.9-1.3-2.8-.3zM240.814 343.922c-.8.5-2.4.9-3.6.9-2.3 0-4.7 3.1-4.9 6.2-.1 1.3.6 1.8 2.2 1.8 1.3 0 2.4-.5 2.4-1 0-.6 1.3-1 2.8-1 3.5 0 4.5-.9 3-2.7-.8-1-.7-1.7.7-2.7 1.5-1.1 1.5-1.4.3-1.8-.8-.4-2.1-.2-2.9.3zM431.214 377.922c-.6.6-.9 1.8-.6 2.5.3.8-1.9 4.1-5 7.4-3 3.4-5.7 7.4-6.1 9-.4 2.2-1.1 3-2.7 3-1.7 0-1.9.3-1 1.4.6.7.8 2.1.5 3-.6 1.6-.8 1.5-2.8-.1-2.1-1.8-2.1-1.8-.4.2.9 1.1 1.9 3.1 2.1 4.5.8 4.2 2.9 7.9 4.9 8.5 1.2.4 1.8 1.6 1.8 3.6 0 2.5.6 3.2 4 4.5 2.2.9 4 2.2 4 2.9 0 .7.7 1.8 1.5 2.5s1.5 2.1 1.5 3.1c0 2.3 2.9 3.9 6.9 3.9 1.6 0 3.1.4 3.3.9.5 1.5 12.1-2.1 13.7-4.2.7-1 1.9-1.6 2.7-1.3 1.2.5 1.2.2.3-1.5-1-1.9-.9-2 1.3-1.4 1.9.7 2.1.6 1.1-.7-.8-.9-.9-1.8-.3-2.4.6-.6.2-1.4-1.2-2.3-1.9-1.2-2-1.1-1.5.8.6 2.3 0 2.6-2.2 1.2-1.2-.8-1.3-1.4-.2-3.7.9-2.1.9-2.9 0-3.5-.7-.4-1.3-1.6-1.4-2.7-.2-2.8-3.3-7.2-5.1-7.2-.8 0-1.7-.7-2-1.5-.4-.8-1.7-1.5-3-1.5-2.6 0-5.4-3.4-5.4-6.7 0-1.2-.8-2.8-1.9-3.5-2.2-1.6-3.4-7.8-1.4-7.8 1.9 0 1.6-1.7-.7-3.3-1.5-1.1-1.9-2.1-1.5-3.9.7-2.9-1.5-5.4-3.2-3.7z"/><path d="M463.914 386.822c0 .5-.7 1-1.6 1-.9 0-1.4.7-1.2 1.7.2 1.4 1.1 1.7 3.3 1.5 3.8-.5 3.9-.6 2.5-3.1-1.1-2.2-3-2.8-3-1.1zM506.614 399.222c-.4 1 .1 1.2 1.4.9 2.3-.6 2.4-.9.5-1.6-.8-.3-1.7 0-1.9.7zM480.914 404.622c0 1.6-.9 3.7-2 4.7s-2 3.1-2 4.7c0 2.3-.4 2.8-2.4 2.8-1.3 0-2.6.6-2.8 1.2-.4 1-1 1-3.1.1-2.2-1-2.5-1-2.1.2.4.8-.6 2.5-2.1 3.8l-2.8 2.3 3.8 3.7c3.8 3.7 6.3 4.5 8.1 2.7.5-.5 2.4-.6 4.7-.1 3.5.8 3.7.8 3.7-1.6 0-2 .4-2.3 2-1.8 1.1.3 2.5.3 3.2-.2 2.3-1.4 3.7-1.1 3.1.5-.3 1.3-.1 1.2 1.2-.3.9-1.1 1.4-2.8 1.1-3.7-.2-1 0-2.1.5-2.4.5-.3.9-1.6.9-3 0-1.5.6-2.4 1.5-2.4.8 0 1.5-.5 1.5-1.1 0-.6.9-.8 2-.4 1.2.4 2 .2 2-.5 0-.6 1.1-1 2.6-.8 2.1.2 2.8-.3 3.9-2.8 2-4.8.3-6.1-7-5.6-3.3.2-6.6.9-7.3 1.4-.9.8-1.9.5-3.7-1.2-1.3-1.3-3.1-2-3.9-1.7-.9.4-1.8.2-2.1-.3-1.2-1.9-2.5-.9-2.5 1.8zM395.914 435.722c0 .6.5 1.3 1 1.6 1.6 1 1.2 4.5-.5 4.5-.8 0-1.5.4-1.5 1 0 .5-.4 1-.9 1-.6 0-.7-1.5-.4-3.4.5-3.1.3-3.4-2.6-3.8l-3.1-.5 2.4 2.6c2.4 2.6 2.4 2.6.4 4.6-1.5 1.5-1.8 2.9-1.4 5.4.4 2.4.1 3.8-1 4.5-1.2.9-1.3 1.7-.5 3.9.6 1.6 1.1 3.9 1.1 5.2 0 1.9-.7 2.4-4 3-2.2.4-4 1.1-4 1.6 0 .4-.6.6-1.4.3-2.4-.9-6.8 2.6-6.2 4.9.3 1.3-.2 2.6-1.2 3.3-1.1.9-1.2 1.3-.4 1.4 1.5 0 1.6 3 .1 3-.5 0-.7.4-.4 1 .3.5-.1 1-.9 1-1.9 0-2.1 1.1-.4 2.8.8.8.8 1.5-.1 2.6-1 1.1-1 2.4-.2 4.8.5 1.8.9 5 .8 7.1-.1 2.8.4 4.2 1.7 4.9 2.2 1.3 4.5 3.5 7.1 7 1.5 2 3.1 2.8 6 3.1 2.1.2 4.1.9 4.3 1.5.2.6 1 .8 1.8.5.8-.3 1.4.1 1.4.8 0 1.1.3 1.1 1-.1.8-1.2 1-.9 1 1.1 0 1.5.7 2.9 1.5 3.3 1.2.4 1.3 1.1.5 3.1-1 2.6-.9 2.6 2.2 2 1.8-.4 4-1.3 4.9-2.1.8-.8 2.2-1.4 3-1.4 1 0 1.1-.3.2-.8-.6-.4-1-1.9-1-3.3.2-1.9.6-2.5 2-2.1 1.8.5 2.4 3.2.7 3.2-.7 0-.7.6-.1 1.9.6 1 .9 2 .7 2.2-.2.2.6 1.2 1.9 2.1 2.3 1.7 2.3 1.7 3.4-1.4.8-2.3.8-3.5 0-4.4-.7-.8-.7-1.4-.2-1.4.6 0 .8-1.2.5-2.7-.5-2.4-.6-2.5-1.8-.8-.7 1-2 1.5-2.9 1.2-2.1-.9-1.9-2.4.6-3 1.8-.5 1.9-.8.7-2.6-.9-1.5-1-2.6-.2-3.9.6-.9.9-5 .7-9.4-.4-6.9-.2-7.8 1.6-9 2.5-1.5 2.6-2.5.5-6.6-1.4-2.9-1.4-3.3 0-4.8.9-.8 1.6-2.1 1.6-2.9 0-.7.7-1.5 1.5-1.9.8-.3 1.5-1.2 1.5-2.1 0-.9.9-1.5 2.4-1.5 1.4 0 2.8-.5 3.1-1 .4-.6 1.2-1 1.8-.8 2.2.4 7.2-1.3 9.5-3.2 3.4-2.8 1.9-4.3-2.4-2.5-1.9.8-3.4 1-3.4.4s-.7-.6-2 .1c-1.5.8-2.7.7-4.8-.4-2-1-3.2-1.2-3.9-.5-.7.7-1.2.5-1.6-.5-.4-1-.1-1.6.8-1.6 1.9 0 1.8-1 0-3.4-1.8-2.3-2-7.2-.4-8.2.8-.4.8-.9 0-1.7-.8-.8-1.8-.4-3.6 1.3-2.5 2.4-4.7 2.2-2.7-.3 1.5-1.7-.3-3.7-3.4-3.7-1.5 0-2.6-1-3.4-3-.7-1.8-2-3-3.1-3-1 0-2.1-.5-2.4-1-.8-1.3-3.5-1.3-3.5-.1z"/><path d="M423.214 442.822c.4 1.5 0 2-1.4 2-2.4 0-2.4 1.2 0 3.4 1.2 1.1 2.1 1.4 2.5.7.5-.7 1.3-.7 2.5.1 1.5.9 2.4.7 4.4-.9 2-1.5 2.3-2.3 1.4-3.2-.6-.6-1.8-1.1-2.6-1.1-.9 0-2.9-.7-4.5-1.5-2.7-1.4-2.8-1.4-2.3.5z"/></g></svg>