<?xml version="1.0" standalone="no"?>
<!DOCTYPE svg PUBLIC "-//W3C//DTD SVG 20010904//EN"
 "http://www.w3.org/TR/2001/REC-SVG-20010904/DTD/svg10.dtd">
<svg version="1.0" xmlns="http://www.w3.org/2000/svg"
 width="671.809682pt" height="585.946950pt" viewBox="0 0 671.809682 585.946950"
 preserveAspectRatio="xMidYMid meet">
<metadata>
Created by potrace 1.15, written by Peter Selinger 2001-2017
</metadata>
<g transform="translate(-674.024965,1335.998068) scale(0.100000,-0.100000)"
fill="#222222" stroke="none">
<path d="M9890 13309 c-19 -28 -42 -56 -51 -63 -19 -13 -61 -95 -54 -106 6 -9
-19 -31 -31 -29 -5 1 -19 1 -32 0 -20 -1 -21 -4 -12 -21 7 -14 7 -20 0 -20 -5
0 -10 -9 -10 -20 0 -14 -7 -20 -24 -20 -13 0 -29 -7 -36 -15 -17 -21 -43 -11
-85 31 -19 19 -40 34 -47 34 -7 0 -6 -5 4 -12 9 -7 19 -28 23 -45 6 -30 4 -33
-18 -33 -16 0 -28 -8 -35 -25 -7 -14 -22 -30 -34 -34 -22 -9 -22 -9 -4 -17 13
-5 32 0 58 15 21 12 38 17 38 12 0 -5 -5 -13 -10 -16 -8 -5 -7 -11 1 -21 9
-11 8 -14 -3 -14 -22 0 -51 -37 -45 -55 4 -8 2 -15 -3 -15 -6 0 -6 -10 0 -26
13 -34 13 -114 -1 -114 -5 0 -15 -13 -20 -30 -9 -24 -17 -30 -41 -30 -23 0
-29 -4 -24 -16 3 -8 1 -24 -5 -35 -7 -14 -7 -24 0 -33 6 -7 12 -26 13 -42 1
-16 5 -34 9 -40 11 -14 -1 -55 -13 -48 -6 4 -14 1 -18 -7 -10 -15 -40 -21 -55
-10 -5 5 -23 13 -40 19 -16 5 -38 13 -47 17 -13 5 -18 2 -18 -9 0 -9 -6 -16
-12 -17 -7 0 -21 -2 -32 -4 -29 -6 -43 4 -49 34 -4 19 -16 32 -36 41 -17 7
-31 15 -31 18 0 3 12 20 26 39 17 23 23 40 19 54 -5 14 -2 25 6 30 12 7 11 14
-3 39 -17 29 -17 30 4 30 19 0 20 4 14 43 -4 23 -12 57 -19 75 -10 30 -9 36 8
49 20 15 20 15 1 26 -11 7 -35 27 -54 45 -20 17 -45 32 -57 32 -14 0 -26 10
-34 27 l-13 28 -22 -38 c-13 -21 -32 -44 -42 -51 -15 -12 -16 -18 -6 -40 10
-22 8 -29 -13 -55 -15 -17 -25 -41 -25 -61 0 -22 -4 -29 -12 -23 -17 10 -148
11 -148 1 0 -4 -28 -8 -61 -10 l-62 -3 44 -22 c35 -18 46 -20 54 -10 20 27 46
35 76 23 16 -6 29 -14 29 -18 0 -4 15 -4 33 -1 28 4 35 1 45 -21 6 -15 18 -29
26 -32 18 -7 87 -72 151 -142 46 -50 48 -55 46 -107 -1 -45 2 -56 19 -65 11
-6 25 -8 30 -5 6 3 10 1 10 -4 0 -6 -4 -11 -9 -11 -11 0 -32 -56 -24 -64 4 -3
-1 -6 -10 -6 -8 0 -19 -9 -22 -20 -7 -22 -21 -26 -27 -8 -3 7 -14 9 -32 4 -25
-6 -33 -34 -7 -29 6 2 11 -2 11 -8 0 -6 11 -20 25 -31 14 -11 25 -28 25 -39 0
-17 -6 -20 -37 -17 -39 3 -52 -12 -51 -62 l0 -25 7 25 c5 20 14 26 45 28 29 3
36 0 31 -10 -6 -10 -5 -10 5 -1 10 9 18 8 38 -7 25 -20 42 -19 42 3 1 13 69
49 81 42 12 -8 -2 -45 -17 -45 -17 0 -18 -12 -2 -28 7 -7 8 -12 2 -12 -6 0
-15 5 -21 11 -7 7 -13 8 -17 0 -4 -6 -19 -8 -35 -5 -21 4 -30 1 -35 -11 -4
-13 -2 -16 9 -11 10 4 14 -1 12 -17 -1 -12 -6 -25 -12 -29 -7 -5 -6 -14 1 -26
8 -12 9 -24 3 -35 -7 -11 -5 -26 5 -45 13 -26 13 -32 -2 -63 -14 -27 -26 -36
-61 -44 -36 -8 -46 -16 -52 -37 -4 -15 -10 -32 -15 -39 -14 -24 -13 -63 3 -81
8 -9 13 -24 10 -33 -5 -10 4 -19 29 -30 21 -8 34 -20 31 -27 -2 -7 2 -28 9
-47 12 -30 12 -36 -1 -51 -11 -12 -12 -19 -3 -28 6 -6 12 -21 13 -32 2 -18 -2
-20 -27 -15 -24 6 -28 3 -28 -15 0 -11 -7 -23 -15 -26 -8 -4 -15 -14 -15 -24
0 -9 -9 -25 -20 -35 -20 -18 -21 -18 -46 6 -19 18 -27 21 -33 10 -7 -10 -13
-10 -29 -2 -26 14 -99 14 -107 1 -13 -21 -27 -9 -23 19 5 32 -6 39 -65 46 -16
1 -41 15 -56 29 -28 27 -51 34 -51 16 0 -5 -8 -10 -18 -10 -10 0 -27 -7 -39
-15 -12 -8 -28 -12 -37 -9 -11 4 -19 -2 -26 -20 -11 -30 -19 -32 -46 -11 -10
8 -28 15 -39 15 -10 0 -30 12 -43 28 -15 18 -25 23 -28 15 -3 -7 -12 -13 -20
-13 -8 0 -14 -6 -14 -13 0 -18 -71 -41 -98 -33 -11 4 -37 0 -57 -8 -39 -17
-69 -11 -61 10 4 10 -2 14 -19 14 -21 0 -52 33 -48 50 1 3 -12 21 -28 40 -27
32 -30 34 -43 18 -15 -20 -90 -25 -101 -8 -3 6 -15 10 -26 10 -10 0 -19 6 -19
14 0 7 -7 19 -15 26 -12 10 -15 10 -15 -2 0 -8 5 -19 11 -25 17 -17 -30 -73
-53 -67 -12 4 -18 0 -18 -10 0 -9 -11 -23 -24 -31 -14 -9 -29 -29 -34 -45 -6
-16 -22 -36 -35 -45 -14 -9 -33 -32 -42 -51 -9 -19 -21 -34 -26 -34 -6 0 -8
-9 -4 -20 5 -15 2 -20 -14 -20 -12 0 -21 -8 -23 -21 -2 -14 -16 -27 -41 -37
-35 -13 -40 -13 -54 1 -14 14 -19 12 -49 -20 -19 -20 -34 -40 -34 -44 0 -13
-41 -36 -78 -44 -41 -9 -105 -72 -98 -98 5 -19 -21 -37 -42 -30 -9 4 -12 -3
-10 -23 3 -27 1 -28 -39 -27 -29 1 -43 -3 -43 -12 0 -7 -7 -15 -15 -19 -22 -8
-14 -28 18 -48 27 -18 37 -48 16 -48 -11 0 -9 -16 7 -69 5 -16 4 -22 -3 -18
-7 5 -9 0 -6 -13 3 -11 0 -20 -6 -20 -6 0 -11 -8 -11 -19 0 -10 -5 -33 -11
-50 -10 -29 -15 -32 -40 -29 -19 3 -29 0 -29 -8 0 -18 -67 -57 -86 -50 -10 4
-14 0 -12 -12 2 -13 -3 -16 -24 -14 -31 3 -38 -13 -10 -22 9 -3 33 -32 52 -63
18 -32 44 -66 57 -76 13 -10 23 -27 23 -38 0 -14 7 -19 28 -19 15 0 33 -5 40
-12 8 -8 15 -8 25 0 21 18 57 3 57 -24 0 -16 6 -24 18 -24 9 0 26 -14 37 -30
27 -41 63 -64 104 -67 18 -1 38 -9 45 -17 6 -9 43 -22 81 -30 56 -12 75 -21
96 -45 l25 -31 57 12 c50 11 61 10 85 -4 15 -9 27 -25 28 -35 2 -35 4 -36 25
-9 11 14 30 26 41 26 11 0 28 10 37 22 10 12 23 18 29 14 19 -12 14 -58 -10
-83 -19 -20 -19 -23 -4 -23 12 0 16 -5 11 -19 -3 -10 1 -24 10 -31 9 -7 13
-22 10 -37 -3 -19 0 -23 11 -19 9 3 20 6 26 6 7 0 8 15 4 40 l-6 41 30 -16
c16 -8 30 -22 30 -30 0 -8 7 -15 15 -15 10 0 12 -6 8 -17 -6 -16 -5 -16 11 -4
12 10 15 22 11 39 -3 14 -2 21 4 18 5 -4 17 1 26 11 16 16 18 15 34 -4 21 -27
44 -33 57 -15 8 11 13 12 18 4 4 -7 3 -12 -3 -12 -6 0 -8 -7 -4 -16 4 -10 14
-14 29 -11 14 2 30 -3 40 -14 9 -10 22 -15 29 -12 16 5 42 -18 68 -59 10 -16
24 -28 32 -28 8 0 15 -8 15 -17 0 -10 11 -42 25 -70 18 -39 32 -56 57 -66 19
-8 37 -11 42 -6 15 13 26 11 26 -6 0 -8 9 -15 20 -15 13 0 20 7 20 20 0 15 7
20 30 20 16 0 33 7 38 16 8 14 14 13 50 -10 50 -31 52 -31 96 -5 28 16 39 18
55 9 18 -9 21 -8 21 9 0 12 8 21 20 23 19 3 19 5 5 32 -11 21 -12 31 -4 36 6
5 8 17 4 29 -9 31 19 27 64 -8 53 -42 120 -74 134 -64 15 11 77 10 94 0 18
-12 53 11 53 34 0 16 3 18 18 10 22 -12 38 -3 51 29 6 14 15 32 20 40 16 28
32 90 26 100 -3 5 3 10 14 10 36 0 53 11 40 26 -9 11 -9 14 0 14 7 0 10 8 7
18 -4 13 2 21 24 29 17 6 30 18 30 27 0 17 15 22 24 7 12 -19 65 12 71 41 4
15 10 28 14 28 13 0 29 94 19 114 -7 12 -6 22 0 28 6 6 8 17 5 24 -3 8 1 14
11 14 9 0 16 5 16 10 0 6 13 4 30 -5 17 -9 28 -20 25 -25 -4 -6 5 -10 19 -10
14 0 28 -5 31 -10 4 -7 12 -7 25 0 10 5 29 10 43 10 19 0 26 -8 35 -37 6 -20
9 -40 6 -44 -7 -11 73 -86 108 -100 22 -9 32 -9 41 0 15 15 24 14 31 -6 4 -9
1 -20 -6 -25 -10 -6 -7 -13 11 -28 15 -13 21 -26 17 -36 -9 -24 16 -74 39 -79
11 -2 33 -3 49 -2 30 2 30 1 43 -63 6 -35 35 -46 77 -30 25 9 34 7 65 -13 54
-35 72 -40 86 -21 10 14 15 14 34 4 26 -13 24 -14 43 23 l14 27 40 -42 c22
-24 49 -64 59 -91 10 -26 27 -58 39 -71 54 -62 66 -79 66 -91 0 -7 4 -15 9
-17 5 -1 12 -18 16 -35 5 -25 3 -33 -8 -33 -7 0 -20 -11 -27 -25 -8 -14 -24
-28 -38 -32 -17 -4 -22 -11 -19 -24 3 -12 -2 -20 -14 -24 -10 -4 -16 -12 -12
-20 3 -8 9 -12 14 -9 5 3 9 -4 9 -15 0 -12 6 -21 14 -21 7 0 19 -7 26 -15 10
-12 8 -17 -14 -26 -15 -7 -32 -29 -43 -55 -10 -24 -23 -44 -30 -44 -6 0 -15
-9 -18 -20 -3 -11 -13 -20 -21 -20 -18 0 -34 -40 -31 -80 2 -23 7 -30 23 -30
11 0 33 -13 48 -29 28 -29 86 -47 86 -27 1 6 6 1 13 -12 10 -18 15 -20 26 -10
10 11 17 8 37 -15 13 -15 24 -35 24 -43 0 -17 14 -18 39 -2 15 9 24 8 45 -5
14 -9 35 -17 46 -17 13 0 24 -9 30 -24 5 -14 18 -30 29 -35 27 -15 31 -14 25
4 -8 19 26 21 44 3 10 -10 17 -7 36 14 18 22 25 25 36 15 10 -9 13 -9 17 0 3
9 10 9 28 -3 17 -11 24 -12 27 -3 3 9 9 9 26 0 18 -10 30 -7 74 15 70 35 101
44 122 32 12 -7 24 -3 48 17 22 19 40 26 60 23 15 -3 28 -1 28 4 0 5 9 6 20 3
31 -10 23 8 -14 31 -22 14 -38 18 -44 12 -6 -6 -17 -5 -31 4 -25 15 -28 38 -5
38 10 0 14 6 11 14 -3 7 -1 18 5 24 8 8 4 18 -13 36 -32 34 -42 33 -37 -3 3
-23 0 -31 -15 -35 -15 -4 -18 0 -14 15 3 10 2 17 -2 15 -3 -2 -24 8 -46 23
-33 22 -50 44 -71 89 -1 2 -18 0 -38 -3 -32 -7 -35 -10 -30 -32 6 -23 5 -24
-15 -13 -19 9 -26 9 -40 -4 -16 -15 -19 -15 -33 1 -16 19 -14 38 9 64 17 20 8
46 -19 55 -13 4 -16 9 -10 13 6 4 10 20 9 36 -2 26 2 30 27 33 16 2 32 -2 37
-9 6 -10 19 -8 58 11 28 13 51 28 51 33 0 5 7 7 15 3 8 -3 15 -1 15 5 0 6 7 6
19 -1 28 -15 51 -12 51 5 0 18 11 19 29 3 11 -11 13 -8 9 12 -3 14 -9 34 -14
45 -7 17 -6 18 8 7 9 -7 22 -11 29 -10 9 2 13 -4 11 -14 -2 -14 4 -18 31 -18
40 0 58 17 50 48 -4 16 -1 22 11 22 24 0 21 61 -4 88 -24 25 -25 36 -6 51 16
13 10 48 -12 74 -22 25 -11 29 38 12 54 -19 70 -19 70 1 0 12 7 15 25 12 19
-4 31 2 48 21 12 15 26 26 31 26 12 0 27 55 21 76 -8 23 19 71 32 58 6 -6 26
-12 46 -15 31 -3 36 -1 39 18 2 13 9 22 17 20 18 -4 71 18 71 28 0 9 146 24
198 21 17 -1 32 2 32 6 0 11 -128 135 -134 131 -3 -2 -13 8 -22 21 -15 21 -23
23 -69 19 -48 -4 -54 -2 -68 20 l-15 25 -7 -24 c-4 -13 -12 -27 -17 -30 -5 -3
-10 -17 -11 -30 -1 -28 -32 -59 -59 -59 -13 0 -18 -7 -18 -26 0 -35 -24 -26
-28 11 -3 20 0 26 10 23 20 -8 58 9 58 26 0 13 -27 31 -42 28 -4 -1 -15 10
-24 24 -17 25 -17 26 11 48 22 18 27 28 23 49 -4 18 -1 27 8 27 7 0 21 14 29
31 13 24 14 34 4 45 -9 11 -8 14 3 14 18 0 53 59 41 71 -5 5 -22 5 -41 0 -37
-11 -45 -3 -40 38 3 33 -36 81 -66 81 -15 0 -16 3 -7 14 11 13 7 13 -25 5 -29
-9 -40 -8 -52 5 -13 13 -19 13 -42 1 -25 -13 -29 -12 -49 6 -18 17 -21 18 -21
3 0 -10 -5 -14 -14 -11 -8 3 -31 9 -51 13 -19 3 -42 15 -50 27 -12 17 -18 18
-42 9 -15 -6 -47 -13 -71 -15 -36 -4 -50 -13 -80 -48 -20 -23 -42 -52 -49 -63
-7 -12 -12 -16 -13 -10 0 7 -7 11 -15 10 -9 0 -23 17 -35 42 -19 42 -19 42 0
42 13 0 20 7 20 18 0 28 -20 42 -51 35 -21 -4 -29 -2 -29 8 0 8 -18 24 -41 37
-44 25 -67 67 -51 93 11 18 0 44 -20 44 -23 0 -32 49 -15 83 8 17 11 32 7 34
-5 2 -10 16 -12 32 -3 30 -3 30 74 68 28 13 48 10 75 -12 31 -24 43 -25 43 -5
0 9 9 15 25 15 14 0 28 7 31 15 4 8 12 15 20 15 21 0 42 51 39 95 -4 56 -3 55
-20 55 -9 0 -15 9 -15 25 0 18 5 25 19 25 14 0 21 9 26 31 6 25 1 38 -25 70
-24 31 -30 46 -26 65 5 19 11 24 26 19 15 -5 23 3 40 36 11 24 20 53 20 66 0
13 5 23 10 23 6 0 14 10 19 22 7 19 1 30 -37 65 -25 24 -49 43 -54 43 -4 0 -8
12 -8 26 0 14 -4 23 -9 19 -19 -11 -24 36 -5 49 13 10 16 22 11 51 -3 20 -12
45 -19 54 -8 9 -13 37 -12 64 2 43 -1 49 -26 62 -20 11 -30 11 -32 3 -3 -7
-14 -9 -30 -5 -20 5 -25 12 -21 26 4 15 -3 23 -29 34 -22 9 -39 26 -47 45 -13
30 -35 47 -51 37 -5 -3 -11 -1 -15 5 -3 6 4 10 17 10 23 1 23 1 3 16 -18 13
-21 13 -32 -3 -12 -16 -13 -16 -13 1 0 10 -5 14 -11 11 -6 -4 -8 -13 -5 -21 7
-17 -4 -17 -26 0 -10 7 -18 21 -18 31 0 17 -1 17 -21 -1 -23 -21 -47 -12 -64
24 -6 14 -27 27 -61 37 -28 8 -59 24 -69 35 -18 20 -18 20 12 20 33 0 73 35
74 66 0 10 9 33 20 49 10 17 23 40 29 53 5 12 14 22 20 22 6 0 8 5 5 10 -4 6
0 24 9 40 9 19 13 44 9 65 -4 28 -2 35 10 35 14 0 15 4 5 28 -17 37 -18 38
-29 22 -8 -12 -9 -10 -4 7 5 17 1 22 -17 25 -18 2 -22 10 -23 38 0 23 4 34 13
33 6 -2 12 3 12 11 0 8 6 16 14 19 21 8 8 43 -27 73 -28 24 -31 32 -34 93 -1
36 1 99 5 139 5 40 5 75 0 78 -4 3 -8 16 -8 28 0 13 -10 34 -23 48 -21 23 -22
25 -5 39 29 24 33 80 7 113 -19 24 -23 26 -31 12 -16 -28 -51 -18 -87 24 -43
50 -88 64 -144 45 -35 -12 -43 -12 -64 2 -20 13 -24 22 -19 45 3 16 2 27 -3
23 -5 -3 -11 0 -13 6 -8 23 -70 18 -97 -7 -15 -14 -33 -22 -42 -19 -10 3 -21
0 -25 -6 -5 -9 -2 -10 10 -6 14 5 17 2 14 -15 -2 -12 -9 -23 -17 -26 -9 -3
-11 0 -6 7 5 8 1 11 -11 9 -11 -2 -18 2 -16 10 1 6 -4 12 -12 12 -7 0 -19 14
-26 30 -7 17 -15 30 -19 30 -3 0 -22 -23 -41 -51z m515 -1059 c3 -5 2 -10 -4
-10 -5 0 -13 5 -16 10 -3 6 -2 10 4 10 5 0 13 -4 16 -10z m-214 -57 c26 -16
31 -16 39 -3 7 12 13 12 27 4 10 -6 19 -17 19 -25 1 -8 2 -20 3 -26 0 -7 14
-13 31 -13 17 0 30 -4 30 -10 0 -5 5 -10 10 -10 6 0 10 10 10 23 0 16 10 27
38 39 20 9 39 14 42 11 3 -3 -1 -8 -7 -10 -7 -3 -13 -15 -13 -28 0 -26 -25
-45 -59 -45 -17 0 -21 -6 -21 -31 0 -30 -1 -30 -42 -29 -61 3 -70 1 -63 -10 3
-5 0 -10 -7 -10 -10 0 -10 -2 1 -9 10 -6 10 -10 1 -16 -20 -13 -36 13 -22 35
23 37 12 44 -19 12 -32 -32 -49 -40 -49 -22 0 6 4 10 10 10 5 0 6 8 3 18 -6
14 -4 15 8 5 12 -9 14 -5 16 23 2 38 0 39 -28 23 -16 -8 -25 -7 -42 8 -17 14
-19 14 -9 1 11 -14 10 -17 -10 -20 -14 -2 -24 -12 -28 -28 -4 -19 -13 -26 -38
-28 l-32 -3 2 59 c3 53 5 58 21 48 9 -6 17 -15 17 -20 0 -6 6 -1 14 9 8 11 19
16 30 12 13 -5 16 0 16 24 0 26 3 29 20 24 12 -4 20 -2 20 5 0 6 5 8 10 5 6
-3 10 -1 10 4 0 15 7 14 41 -6z m-731 -53 c0 -5 -4 -10 -10 -10 -5 0 -10 5
-10 10 0 6 5 10 10 10 6 0 10 -4 10 -10z m-345 -10 c-3 -5 -12 -10 -18 -10 -7
0 -6 4 3 10 19 12 23 12 15 0z m1063 -161 c-7 -4 -18 -3 -26 3 -10 9 -10 13 0
19 7 4 18 3 26 -3 10 -9 10 -13 0 -19z m-1663 -729 c-3 -5 -1 -10 6 -10 8 0 6
-7 -5 -19 -16 -18 -13 -56 4 -46 5 3 11 1 15 -5 6 -10 -42 -26 -51 -17 -3 2
-7 20 -10 39 -4 25 -1 39 11 51 18 18 40 23 30 7z m-1455 -530 c0 -5 -4 -10
-10 -10 -5 0 -10 5 -10 10 0 6 5 10 10 10 6 0 10 -4 10 -10z m3694 -79 c-5 -5
-44 30 -44 40 0 4 11 -2 24 -14 14 -12 23 -24 20 -26z m189 -600 c19 -2 65
-70 71 -106 17 -97 17 -107 0 -120 -12 -8 -14 -14 -6 -19 17 -10 15 -36 -3
-36 -8 0 -15 -5 -15 -11 0 -6 -7 -9 -15 -5 -9 3 -15 0 -15 -8 0 -9 -7 -12 -20
-9 -24 6 -26 -4 -4 -28 14 -16 14 -18 -5 -29 -18 -9 -23 -8 -30 12 -4 13 -4
36 0 52 5 16 8 30 6 31 -54 27 -70 58 -46 82 7 7 13 29 15 50 12 144 18 167
41 154 10 -5 21 -9 26 -10z m627 -236 c0 -8 -9 -15 -20 -15 -11 0 -20 7 -20
15 0 8 9 15 20 15 11 0 20 -7 20 -15z m-2921 -164 c18 -14 22 -23 16 -41 -6
-20 -12 -22 -56 -18 -26 3 -52 1 -58 -5 -6 -6 -13 -2 -20 11 -6 11 -21 22 -33
24 l-23 3 24 14 c22 12 26 11 41 -7 23 -28 60 -19 60 14 0 29 16 30 49 5z
m-188 -17 c12 -14 11 -16 -5 -13 -11 2 -21 10 -24 17 -5 17 13 15 29 -4z
m2698 -840 c3 -16 1 -17 -13 -5 -19 16 -21 34 -3 29 6 -3 14 -13 16 -24z m-22
-56 c-3 -8 -6 -5 -6 6 -1 11 2 17 5 13 3 -3 4 -12 1 -19z"/>
<path d="M8590 12685 c0 -10 29 -24 34 -17 3 6 -3 12 -14 15 -11 3 -20 4 -20
2z"/>
<path d="M8626 12641 c-4 -5 -2 -12 3 -15 5 -4 12 -2 15 3 4 5 2 12 -3 15 -5
4 -12 2 -15 -3z"/>
<path d="M8935 11970 c-4 -6 -4 -10 -1 -10 2 0 11 -3 20 -6 9 -3 16 -2 16 4 0
14 -28 23 -35 12z"/>
<path d="M11470 11549 c0 -10 -9 -23 -19 -29 -27 -14 -28 -13 -34 12 -4 12 -9
19 -13 15 -4 -3 -15 -2 -25 4 -13 6 -19 6 -19 -1 0 -5 -13 -10 -28 -10 -35 0
-62 -28 -62 -64 0 -34 -46 -78 -76 -71 -13 3 -28 -3 -38 -13 -14 -16 -14 -21
-2 -37 12 -16 16 -17 30 -6 14 12 23 7 69 -36 69 -66 97 -81 111 -61 6 9 30
19 53 22 42 8 72 -2 101 -31 17 -17 32 -17 32 1 0 7 10 14 23 14 17 0 27 -9
34 -29 9 -23 17 -29 42 -29 40 0 50 18 21 40 l-23 17 26 7 c18 4 24 11 21 21
-5 11 1 15 20 15 14 0 26 5 26 10 0 6 16 27 35 46 28 27 34 41 29 57 -10 32
-11 32 -54 8 -37 -21 -41 -21 -70 -6 -17 9 -30 24 -30 34 0 13 -7 17 -29 16
-22 -1 -35 6 -55 32 -15 18 -35 33 -44 33 -12 0 -13 3 -5 8 8 5 3 12 -17 19
-27 10 -30 9 -30 -8z m190 -329 c0 -5 -4 -10 -10 -10 -5 0 -10 5 -10 10 0 6 5
10 10 10 6 0 10 -4 10 -10z"/>
<path d="M11609 11151 c-20 -9 -44 -23 -53 -30 -9 -7 -22 -11 -30 -8 -13 5
-26 -12 -26 -33 0 -5 9 -14 21 -20 16 -9 26 -8 47 6 15 10 33 17 41 15 9 -1
12 3 8 13 -4 9 -2 16 4 16 9 0 33 50 27 55 -2 1 -19 -5 -39 -14z"/>
<path d="M11595 10351 c-3 -5 -1 -12 5 -16 5 -3 10 1 10 9 0 18 -6 21 -15 7z"/>
<path d="M12376 9915 c-3 -8 -14 -15 -25 -15 -10 0 -21 -7 -25 -15 -3 -8 -12
-12 -20 -9 -8 3 -19 -3 -25 -15 -14 -26 -51 -38 -62 -20 -7 11 -9 10 -9 -3 0
-10 -7 -18 -15 -18 -8 0 -12 -6 -9 -14 3 -7 -2 -16 -10 -19 -9 -4 -16 -12 -16
-19 0 -16 -68 -54 -89 -50 -14 2 -14 1 -1 -10 10 -9 15 -33 16 -76 1 -53 5
-67 27 -90 14 -15 33 -44 42 -64 8 -21 20 -38 25 -38 6 0 10 -9 10 -21 0 -31
18 -59 38 -59 10 0 23 -5 30 -12 9 -9 12 -9 12 2 0 9 5 8 20 -5 28 -25 25 -32
-10 -27 -22 3 -30 0 -30 -11 0 -17 -29 -27 -86 -27 -38 0 -41 -2 -37 -23 4
-17 -2 -26 -22 -35 -14 -7 -32 -12 -40 -12 -8 0 -15 -7 -15 -15 0 -8 -6 -12
-15 -9 -7 3 -29 -5 -47 -19 -27 -20 -43 -24 -85 -22 -38 2 -53 -1 -57 -11 -4
-11 -10 -12 -25 -4 -33 17 -57 12 -70 -16 -7 -17 -17 -24 -26 -20 -8 3 -15 1
-15 -4 0 -6 -9 -10 -20 -10 -21 0 -27 -15 -10 -25 6 -4 8 -10 5 -15 -3 -4 2
-13 10 -20 8 -7 12 -16 9 -21 -3 -5 -2 -14 2 -21 4 -6 8 -27 8 -46 1 -31 -2
-35 -29 -38 -52 -5 -69 -22 -90 -87 -19 -58 -23 -62 -53 -65 -18 -2 -38 -11
-44 -22 -6 -10 -17 -16 -23 -13 -7 2 -15 -6 -18 -18 -4 -16 1 -29 18 -45 14
-13 25 -31 25 -40 0 -13 3 -14 14 -5 12 10 18 7 32 -15 16 -24 16 -28 2 -38
-17 -13 -9 -47 19 -78 8 -9 13 -23 10 -30 -6 -18 11 -48 27 -48 9 0 12 7 9 20
-4 15 0 20 15 20 12 0 24 -5 27 -10 4 -6 13 -9 20 -8 8 2 34 -14 60 -35 38
-33 48 -37 61 -26 21 17 36 -6 28 -43 -5 -24 -1 -29 29 -42 19 -8 38 -24 42
-35 3 -12 13 -21 21 -21 8 0 14 -7 14 -15 0 -17 46 -21 52 -4 3 10 65 -16 78
-33 14 -17 62 -20 80 -3 10 9 28 15 40 13 19 -2 23 2 25 31 3 34 -6 59 -34 93
-12 15 -11 18 3 24 10 4 28 2 42 -5 20 -9 26 -8 31 4 3 10 12 13 24 10 13 -5
29 3 50 24 17 17 35 31 40 31 5 0 9 7 9 15 0 8 17 19 40 26 55 17 72 39 74 98
0 27 4 53 8 57 4 3 3 14 -2 24 -24 45 -30 109 -16 169 12 52 12 62 0 72 -8 7
-13 18 -10 25 3 7 -2 18 -10 24 -19 16 -19 90 0 90 28 0 24 29 -10 65 -19 20
-34 42 -34 48 0 7 -10 18 -21 26 -14 8 -18 15 -11 20 20 12 2 50 -27 53 -16 2
-25 8 -23 17 1 7 -4 24 -13 37 -14 22 -14 24 7 35 19 10 24 8 39 -12 40 -54
51 -62 60 -48 6 10 9 10 9 2 0 -7 7 -10 15 -7 8 4 22 1 30 -6 8 -7 24 -10 34
-7 23 6 40 -12 65 -66 18 -39 53 -62 70 -46 16 15 42 10 62 -12 10 -11 40 -31
66 -43 39 -19 50 -21 59 -10 8 10 16 11 30 4 26 -15 81 -8 100 11 10 10 15 20
12 22 -2 3 12 5 32 4 24 -1 42 5 49 15 10 14 14 14 31 2 10 -8 27 -11 37 -8
23 7 68 -21 68 -41 0 -18 45 -49 60 -40 5 3 10 1 10 -4 0 -20 29 -11 36 11 l7
23 10 -25 c11 -24 11 -24 14 10 2 19 7 42 10 50 3 8 6 18 5 21 -1 3 10 12 24
20 21 11 25 19 20 41 -4 19 -1 28 7 28 7 0 18 10 26 21 10 18 15 19 22 8 6
-10 9 -4 9 19 0 30 -2 32 -26 26 -40 -10 -75 29 -69 75 6 39 -14 88 -34 83 -7
-1 -25 5 -42 15 -29 17 -38 33 -19 33 18 0 11 61 -10 87 -11 14 -20 32 -20 39
0 7 -18 15 -44 19 -33 5 -46 13 -55 32 -8 16 -18 24 -34 23 -38 -3 -47 -1 -47
14 0 8 -10 16 -22 18 -13 2 -24 11 -26 23 -2 11 -11 28 -19 37 -10 11 -13 26
-9 42 3 13 3 38 0 55 -6 28 -10 31 -44 31 -21 0 -40 -5 -42 -11 -3 -9 -15 -9
-43 -3 -33 8 -41 14 -43 37 -3 23 -7 27 -25 21 -12 -3 -29 -14 -37 -24 -13
-16 -22 -17 -75 -9 -33 6 -70 15 -83 21 -18 10 -26 8 -47 -12 -22 -20 -28 -22
-51 -12 -14 7 -29 10 -33 7 -5 -2 -21 7 -35 20 -32 29 -32 29 -40 10z m-18
-542 c-2 -10 -12 -18 -23 -18 -11 0 -21 8 -23 18 -3 13 3 17 23 17 20 0 26 -4
23 -17z m-271 -1109 c3 -9 -1 -22 -8 -30 -13 -12 -16 -10 -25 14 -9 24 -8 28
8 29 11 1 22 -5 25 -13z m63 -21 c0 -2 -8 -11 -18 -20 -22 -21 -55 -32 -35
-12 6 6 9 17 7 24 -4 9 3 12 20 11 14 0 26 -2 26 -3z"/>
<path d="M8620 9332 c0 -12 19 -26 26 -19 2 2 -2 10 -11 17 -9 8 -15 8 -15 2z"/>
<path d="M8630 9260 c0 -5 7 -10 15 -10 8 0 15 -7 15 -15 0 -8 7 -15 15 -15
23 0 18 16 -10 34 -28 19 -35 20 -35 6z"/>
<path d="M13450 9172 c0 -7 -7 -12 -16 -12 -8 0 -12 -5 -8 -11 4 -7 11 -6 22
5 9 8 13 19 9 22 -4 4 -7 2 -7 -4z"/>
<path d="M10263 8806 c-13 -6 -23 -16 -23 -23 0 -7 -12 -13 -27 -13 -31 -1
-63 -21 -63 -39 0 -6 -4 -11 -9 -11 -5 0 -13 -10 -17 -22 -8 -28 -22 -38 -51
-38 -16 0 -20 -5 -16 -20 3 -12 -1 -22 -11 -26 -9 -3 -16 -16 -16 -29 0 -12
-7 -28 -15 -35 -10 -8 -12 -17 -6 -24 6 -7 1 -18 -14 -30 -19 -17 -21 -24 -13
-48 6 -16 15 -27 22 -25 6 2 27 -7 46 -20 19 -12 43 -23 53 -23 47 0 94 -65
81 -114 -4 -17 -1 -22 16 -22 15 0 20 5 17 18 -3 10 -2 18 2 18 4 0 6 14 3 30
-3 23 0 30 12 30 9 0 16 8 16 19 0 37 10 48 40 43 17 -2 30 -7 30 -11 0 -3 4
-12 9 -20 14 -22 62 27 55 57 -4 12 -13 22 -20 22 -8 0 -14 5 -14 10 0 6 7 10
17 10 15 0 15 1 0 18 -10 10 -17 26 -17 34 0 9 -10 23 -22 31 -16 11 -19 19
-12 24 6 4 14 18 18 31 4 12 14 22 21 22 20 0 29 20 16 33 -6 6 -11 19 -11 29
0 10 -6 18 -13 18 -12 0 -37 64 -37 95 0 17 -15 18 -47 1z m-120 -293 c-3 -8
2 -13 14 -13 28 0 34 -9 20 -31 -12 -20 -37 -26 -37 -10 0 5 -7 16 -15 25 -17
16 -11 43 9 43 8 0 12 -6 9 -14z m202 -72 c3 -5 1 -12 -4 -15 -5 -3 -11 1 -15
9 -6 16 9 21 19 6z"/>
<path d="M9117 8656 c-4 -9 -10 -16 -14 -15 -19 3 -23 -2 -11 -14 16 -15 65
-47 73 -47 13 0 3 38 -18 64 -20 25 -25 27 -30 12z"/>
<path d="M9206 8576 c-7 -36 -29 -62 -45 -52 -5 4 -13 2 -16 -4 -5 -8 -11 -7
-21 1 -10 8 -18 9 -27 0 -8 -6 -17 -8 -21 -4 -3 4 -22 12 -41 19 -41 14 -40
11 28 -68 49 -57 101 -83 117 -59 3 7 13 9 22 6 24 -9 51 41 43 79 -3 17 -9
50 -12 74 -6 51 -18 54 -27 8z"/>
<path d="M10468 8573 c-20 -3 -28 -10 -28 -24 0 -11 -7 -19 -17 -19 -13 0 -14
-3 -5 -12 9 -9 17 -5 36 15 23 25 37 32 59 28 4 0 7 4 7 9 0 10 -3 10 -52 3z"/>
<path d="M10390 8496 c0 -2 7 -9 15 -16 9 -7 15 -8 15 -2 0 5 -7 12 -15 16 -8
3 -15 4 -15 2z"/>
<path d="M8996 8368 c-9 -11 -24 -17 -32 -14 -9 3 -16 -3 -20 -19 -5 -20 -11
-24 -29 -19 -13 3 -26 1 -29 -5 -4 -6 -18 -11 -31 -11 -15 0 -37 -13 -56 -35
-18 -19 -38 -35 -46 -35 -7 0 -13 -11 -13 -24 0 -17 7 -26 25 -30 14 -4 24
-12 22 -19 -1 -6 5 -12 13 -12 8 0 15 9 16 20 0 11 4 28 8 38 5 11 4 29 -3 44
-10 23 -10 25 6 18 10 -4 28 -8 41 -9 13 -1 30 -10 38 -20 14 -19 14 -19 14 2
0 18 6 22 29 22 21 0 30 6 34 21 3 12 10 18 15 15 6 -3 12 0 15 6 3 10 10 8
25 -5 13 -12 22 -15 27 -8 3 6 4 11 0 11 -3 0 -1 9 4 19 9 16 5 23 -23 44 -33
25 -33 26 -50 5z"/>
<path d="M10286 8354 c-4 -10 -1 -14 6 -12 15 5 23 28 10 28 -5 0 -13 -7 -16
-16z"/>
<path d="M9240 8353 c0 -7 -7 -13 -15 -13 -10 0 -15 -7 -13 -17 2 -12 -4 -19
-19 -21 -13 -2 -23 -8 -23 -13 0 -6 -18 -8 -47 -3 l-47 7 22 -28 c12 -15 22
-34 22 -43 0 -9 7 -13 19 -9 19 5 31 -10 31 -39 0 -8 -6 -11 -15 -8 -21 8 -19
-9 3 -29 22 -20 36 -21 60 -6 29 18 79 -13 87 -53 10 -47 22 -59 49 -48 13 5
29 4 37 -1 12 -8 11 -12 -6 -25 -11 -8 -28 -13 -37 -10 -20 5 -23 -11 -8 -34
9 -13 12 -13 23 1 11 14 13 14 29 0 9 -9 21 -35 27 -58 11 -40 31 -60 31 -30
0 32 -22 87 -35 87 -8 0 -15 5 -15 11 0 5 5 7 11 3 8 -5 10 3 7 23 -3 23 2 36
17 49 21 18 23 54 3 54 -5 0 -7 -8 -4 -18 4 -11 -2 -22 -14 -30 -23 -14 -40
-8 -40 12 0 8 -7 19 -16 27 -11 9 -14 22 -10 41 5 26 3 28 -29 28 -41 0 -77
30 -69 57 5 17 5 17 -6 0 -10 -15 -13 -15 -26 -3 -18 19 -18 40 1 32 11 -4 15
2 15 20 0 14 5 34 10 45 7 13 8 25 1 37 -6 9 -11 11 -11 5z"/>
<path d="M9855 8330 c3 -5 12 -7 20 -3 21 7 19 13 -6 13 -11 0 -18 -4 -14 -10z"/>
<path d="M9805 8319 c-9 -14 -2 -20 14 -10 8 6 9 11 3 15 -6 3 -14 1 -17 -5z"/>
<path d="M9723 8300 c-4 -17 -11 -19 -49 -13 -41 5 -44 4 -45 -18 0 -13 -3
-18 -6 -11 -11 29 -20 8 -16 -40 2 -33 9 -57 19 -65 8 -6 14 -15 12 -20 -5
-13 62 -15 78 -2 8 7 14 24 13 38 -4 46 1 72 11 66 6 -3 10 3 10 14 0 12 6 21
14 21 9 0 12 8 8 25 -5 31 -41 35 -49 5z"/>
<path d="M8990 8223 c0 -2 14 -16 30 -30 17 -13 28 -29 25 -33 -3 -5 4 -15 16
-24 20 -14 23 -13 40 9 25 30 24 32 -13 51 -34 18 -98 35 -98 27z"/>
<path d="M10172 8221 c-7 -4 -12 -14 -10 -22 2 -8 -7 -15 -22 -17 -45 -6 -55
-11 -42 -24 16 -16 15 -53 -1 -70 -8 -7 -12 -19 -9 -26 2 -6 -4 -12 -13 -12
-13 0 -14 -4 -5 -20 9 -17 8 -20 -9 -20 -11 0 -22 -4 -25 -9 -3 -5 -22 -12
-41 -15 -19 -4 -35 -11 -35 -17 0 -6 -6 -7 -16 -1 -12 7 -22 4 -35 -9 -24 -24
-36 -24 -42 -1 -3 10 -5 7 -6 -10 -1 -22 4 -29 27 -34 15 -3 36 -10 48 -16 14
-7 33 -6 60 1 31 9 41 8 49 -3 6 -7 13 -14 18 -14 4 -1 8 -2 10 -3 1 0 12 -2
24 -3 13 -2 31 -10 41 -19 26 -23 29 -22 42 18 6 19 16 35 21 35 5 0 25 15 43
33 26 27 31 38 24 51 -7 13 -5 23 8 37 9 10 14 19 9 19 -4 0 -2 7 5 15 10 12
10 15 -3 15 -20 0 -30 29 -13 36 12 4 11 10 -2 36 -33 67 -67 90 -100 69z"/>
<path d="M9478 8076 c-15 -17 -25 -32 -24 -34 2 -1 28 0 59 4 50 6 54 8 44 25
-6 9 -20 22 -32 27 -17 8 -25 4 -47 -22z"/>
<path d="M9620 8085 c0 -13 -8 -29 -17 -34 -16 -9 -16 -10 4 -11 13 0 24 8 28
20 3 11 11 20 16 20 5 0 9 7 9 15 0 8 -9 15 -20 15 -15 0 -20 -7 -20 -25z"/>
<path d="M8728 8082 c-18 -2 -25 -8 -22 -17 3 -7 0 -16 -6 -20 -9 -6 -9 -10 1
-16 25 -16 44 -9 57 18 14 32 7 40 -30 35z"/>
<path d="M9447 7766 c-7 -17 14 -38 29 -28 7 5 5 13 -6 25 -15 15 -18 16 -23
3z"/>
<path d="M9440 7700 c0 -17 2 -19 14 -8 14 13 12 28 -5 28 -5 0 -9 -9 -9 -20z"/>
<path d="M9392 7661 c-11 -6 -10 -11 3 -25 19 -19 12 -51 -9 -43 -10 4 -17 -4
-21 -24 -4 -16 -15 -35 -26 -43 -18 -12 -18 -14 -4 -20 35 -13 61 -4 103 33
45 42 51 56 28 64 -8 3 -17 19 -21 36 -7 31 -26 39 -53 22z"/>
</g>
</svg>
