<?xml version="1.0" standalone="no"?>
<!DOCTYPE svg PUBLIC "-//W3C//DTD SVG 20010904//EN"
 "http://www.w3.org/TR/2001/REC-SVG-20010904/DTD/svg10.dtd">
<svg version="1.0" xmlns="http://www.w3.org/2000/svg"
 width="386.173437pt" height="670.243794pt" viewBox="0 0 386.173437 670.243794"
 preserveAspectRatio="xMidYMid meet">
<metadata>
Created by potrace 1.15, written by Peter Selinger 2001-2017
</metadata>
<g transform="translate(-810.354685,1302.907774) scale(0.100000,-0.100000)"
fill="#222222" stroke="none">
<path d="M8921 13021 c-11 -7 -7 -18 19 -55 19 -25 37 -46 42 -46 5 0 6 5 3
10 -3 6 -2 10 3 10 5 0 12 13 14 30 6 43 -43 75 -81 51z"/>
<path d="M8960 12869 c-36 -13 -84 -103 -69 -131 8 -14 8 -23 0 -31 -6 -6 -11
-19 -11 -30 0 -11 -4 -15 -12 -11 -6 4 -8 3 -5 -3 4 -6 17 -8 31 -6 13 3 27 0
30 -6 4 -6 0 -11 -9 -11 -8 0 -20 -11 -25 -25 -5 -14 -14 -25 -20 -25 -19 0
-10 -19 10 -22 18 -3 18 -4 -5 -14 -21 -10 -28 -9 -49 11 l-25 23 -21 -23
c-12 -12 -18 -29 -15 -38 9 -21 -27 -39 -60 -31 -28 7 -54 -16 -55 -47 0 -11
-12 -19 -33 -23 -22 -4 -39 -16 -50 -36 -10 -16 -29 -33 -43 -36 -13 -3 -24
-13 -24 -20 0 -28 -40 -93 -61 -99 -14 -5 -18 -12 -14 -23 4 -10 12 -29 17
-44 5 -16 13 -26 18 -23 12 8 18 -29 13 -79 -5 -37 -9 -46 -25 -46 -20 0 -20
0 -1 -33 13 -21 17 -39 12 -52 -16 -41 -10 -81 16 -105 16 -15 22 -27 16 -33
-7 -7 -7 -17 0 -29 6 -12 6 -24 -1 -37 -8 -16 -6 -23 11 -34 19 -14 20 -17 6
-43 -9 -16 -25 -39 -37 -52 -18 -20 -24 -21 -38 -10 -15 12 -16 11 -3 -4 8
-11 11 -28 7 -44 -5 -18 -2 -32 9 -44 13 -14 14 -25 5 -65 -13 -59 -38 -108
-51 -100 -5 4 -9 3 -8 -2 6 -37 -52 -53 -102 -27 -26 13 -33 14 -40 2 -5 -7
-9 -17 -9 -22 0 -8 -18 -5 -52 9 -12 5 -18 3 -18 -5 0 -7 -11 -27 -24 -45 -21
-27 -22 -34 -11 -55 12 -22 11 -27 -12 -48 -25 -23 -25 -23 -7 -44 11 -11 18
-28 16 -38 -3 -18 12 -34 33 -35 6 -1 22 -5 38 -9 17 -5 32 -4 41 3 11 9 18 5
35 -22 21 -34 68 -59 139 -73 18 -4 35 -11 38 -15 10 -16 76 -10 90 9 11 16
13 15 23 -12 9 -21 8 -32 0 -42 -9 -11 -8 -14 2 -15 8 -1 21 -2 29 -3 8 -2 25
-3 38 -4 12 -1 22 -9 22 -17 0 -8 6 -15 14 -15 7 0 19 -6 25 -14 10 -12 16
-10 38 10 14 13 32 24 39 24 8 0 14 9 14 20 0 18 5 20 37 17 30 -3 41 1 56 19
10 13 25 24 33 24 8 0 14 9 14 21 0 18 5 16 45 -17 25 -20 45 -41 45 -47 0 -6
6 -18 14 -26 9 -12 11 -25 4 -48 -8 -32 -38 -47 -38 -19 0 30 -35 76 -57 76
-20 0 -24 -4 -23 -25 2 -17 -35 -62 -47 -58 -20 8 -16 -11 7 -32 11 -10 18
-20 15 -23 -3 -3 1 -12 8 -20 10 -12 9 -16 -1 -20 -10 -3 -10 -7 -2 -17 8 -10
8 -19 1 -34 -6 -11 -8 -28 -5 -38 4 -14 3 -15 -4 -4 -7 9 -11 10 -13 2 -3 -9
-12 -9 -33 -1 -16 6 -26 13 -23 17 10 10 -13 44 -25 37 -20 -13 -81 -5 -100
13 -15 13 -21 14 -27 5 -4 -7 -15 -10 -24 -6 -10 4 -17 1 -17 -6 0 -7 -7 -10
-16 -6 -8 3 -12 2 -9 -4 3 -6 -1 -10 -9 -10 -19 0 -19 -1 -6 -35 8 -22 15 -26
35 -23 19 4 26 0 34 -23 5 -16 17 -29 25 -29 9 0 16 -4 16 -10 0 -5 7 -7 15
-4 23 9 48 -15 34 -33 -9 -11 -9 -17 0 -26 9 -9 14 -9 21 3 8 13 10 12 10 -2
0 -20 13 -23 41 -7 27 14 52 4 72 -30 15 -26 22 -29 51 -24 26 4 35 1 40 -13
4 -10 2 -21 -5 -25 -23 -14 2 -27 43 -24 37 3 44 7 55 34 14 33 56 52 75 33 6
-6 25 -8 44 -5 31 5 33 4 39 -31 9 -43 45 -73 93 -74 58 -1 62 -2 62 -16 0
-10 7 -12 23 -9 28 8 66 33 48 33 -11 0 -11 3 -1 15 7 8 19 15 28 15 9 0 26
10 39 22 22 21 23 21 43 3 18 -16 25 -17 55 -7 50 19 166 -12 149 -40 -3 -5
-15 -6 -26 -2 -17 5 -19 3 -13 -15 6 -20 -28 -67 -43 -57 -4 2 -16 -14 -26
-36 -16 -32 -24 -38 -41 -34 -32 8 -49 -28 -35 -74 15 -52 13 -70 -10 -70 -35
0 -71 -22 -64 -39 4 -9 7 -30 6 -48 -1 -17 9 -50 23 -74 19 -34 21 -46 12 -57
-9 -11 -7 -18 11 -32 19 -15 22 -28 22 -84 0 -59 -3 -67 -25 -82 -18 -12 -22
-20 -16 -33 11 -20 -10 -53 -30 -49 -9 2 -14 -7 -14 -27 0 -25 -5 -31 -30 -35
-16 -4 -29 -11 -28 -18 2 -7 -6 -12 -17 -12 -11 0 -42 -22 -68 -50 -26 -28
-56 -50 -65 -50 -9 0 -17 -7 -17 -15 0 -20 -62 -104 -78 -104 -7 -1 -20 -17
-28 -36 -8 -19 -26 -41 -42 -49 -46 -24 -65 -52 -59 -86 6 -26 3 -31 -18 -36
-14 -3 -25 -12 -25 -20 0 -8 -7 -14 -16 -14 -8 0 -12 -4 -9 -10 3 -5 1 -28 -5
-51 -10 -37 -14 -40 -36 -35 -30 8 -30 4 1 -30 17 -18 23 -34 19 -46 -4 -14 0
-21 16 -25 12 -3 19 -11 16 -19 -3 -9 4 -16 18 -20 25 -6 43 -54 25 -65 -15
-9 30 -49 55 -49 13 0 27 7 30 16 3 8 10 13 15 10 5 -4 12 0 14 6 4 8 8 4 13
-10 5 -17 10 -20 19 -12 19 16 65 -5 65 -29 0 -15 -9 -22 -33 -26 -34 -7 -66
-49 -43 -59 6 -2 3 -5 -7 -5 -10 -1 -15 -6 -12 -12 4 -6 9 -8 12 -5 3 3 14 1
24 -5 12 -6 26 -6 35 -1 25 14 84 -17 84 -44 0 -13 8 -30 18 -38 9 -9 31 -30
48 -47 l31 -31 31 32 c18 17 29 37 25 43 -4 6 0 8 10 4 27 -10 47 3 47 32 0
17 11 36 29 52 26 23 29 31 24 67 -5 40 -4 42 20 42 15 0 32 -9 40 -21 8 -11
18 -16 21 -11 3 5 15 12 26 15 17 4 18 3 8 -16 -6 -12 -15 -25 -20 -28 -5 -3
0 -9 12 -12 16 -4 24 0 30 16 8 21 11 19 14 -13 0 -8 11 -15 26 -15 23 0 40
-21 54 -67 3 -11 15 -18 30 -18 18 0 30 -9 41 -30 16 -30 35 -40 35 -18 0 9 3
9 11 1 6 -6 18 -9 25 -6 8 3 21 0 29 -7 17 -14 62 -6 87 17 17 15 18 14 24
-14 4 -20 20 -41 44 -59 22 -17 35 -34 32 -42 -3 -10 2 -13 19 -10 16 2 24 9
23 21 -2 14 7 17 55 17 64 0 108 -21 81 -40 -13 -9 -13 -11 0 -20 12 -8 12
-12 2 -18 -10 -7 -10 -11 2 -22 9 -7 13 -16 10 -21 -3 -5 0 -9 5 -9 6 0 11 7
11 15 0 38 133 -2 156 -46 10 -20 22 -29 38 -29 23 0 23 -1 10 -41 -14 -41
-13 -60 8 -109 21 -51 26 -55 67 -70 38 -13 42 -18 39 -42 -3 -21 4 -34 29
-58 35 -34 43 -67 18 -76 -8 -4 -22 -1 -30 6 -12 10 -16 9 -21 -3 -3 -9 -3
-20 0 -25 3 -5 -7 -15 -21 -21 -16 -7 -23 -15 -16 -19 17 -12 32 -48 27 -68
-2 -10 -1 -23 3 -29 9 -12 82 -50 97 -51 6 0 27 -8 47 -16 28 -12 37 -23 41
-47 2 -17 1 -34 -3 -38 -5 -5 -5 -13 -1 -19 9 -15 67 -44 86 -44 8 0 35 -15
59 -34 25 -19 47 -32 50 -29 3 2 10 -5 17 -16 7 -14 7 -21 0 -21 -5 0 -10 -6
-10 -13 0 -8 -9 -22 -20 -32 -24 -21 -26 -43 -5 -51 8 -4 15 -10 15 -15 0 -5
9 -18 20 -29 11 -11 20 -32 20 -46 0 -14 7 -41 16 -60 10 -20 13 -41 9 -51 -5
-10 -9 -22 -10 -28 -1 -5 -3 -14 -5 -20 -2 -5 -3 -21 -4 -35 -1 -18 -6 -24
-19 -22 -15 3 -18 -3 -17 -25 1 -15 1 -32 0 -38 -6 -27 -4 -41 7 -53 10 -10
10 -18 -2 -36 -14 -21 -14 -25 0 -36 13 -11 14 -10 8 5 -6 18 -5 18 17 2 27
-19 44 -22 35 -7 -3 6 3 10 15 10 11 0 23 7 26 15 10 25 42 17 59 -15 14 -27
14 -31 1 -36 -13 -5 -12 -10 2 -40 14 -27 22 -33 39 -29 12 3 25 0 28 -6 5 -6
11 -4 19 6 11 15 13 15 25 1 17 -20 37 -21 48 -2 4 8 15 14 23 14 43 -3 62 3
57 16 -4 9 2 17 14 21 10 4 19 11 19 16 0 5 14 9 30 9 24 0 30 4 30 21 0 12 8
23 18 25 23 7 53 60 45 82 -5 14 -3 15 8 5 7 -7 22 -13 32 -13 11 0 28 -11 39
-25 24 -31 73 -36 63 -6 -5 15 -2 18 13 14 12 -3 22 2 25 11 4 9 2 16 -4 16
-7 0 -8 14 -4 39 6 35 2 43 -35 87 -22 27 -45 55 -51 62 -6 8 -7 18 0 29 10
19 -12 73 -30 73 -5 0 -21 12 -34 26 -18 19 -22 30 -15 39 8 9 4 14 -14 19
-17 4 -23 11 -19 24 4 19 21 23 89 24 38 1 43 4 65 44 17 31 28 42 40 39 11
-4 18 2 22 16 5 19 10 21 42 15 28 -6 41 -2 62 14 34 27 38 48 9 56 -31 7 -92
0 -109 -14 -11 -10 -17 -9 -27 3 -16 19 -56 42 -46 27 12 -20 -25 -44 -59 -38
-23 5 -36 2 -45 -9 -7 -9 -19 -14 -27 -11 -19 8 -16 -21 5 -33 14 -9 14 -12 4
-19 -8 -6 -12 -22 -11 -39 5 -43 -15 -62 -61 -60 -32 1 -36 3 -22 13 23 17 5
69 -23 69 -13 0 -21 8 -23 23 -3 22 1 24 55 25 30 0 37 24 13 44 -11 10 -20
21 -20 25 0 4 -13 21 -30 38 -16 17 -31 34 -31 38 -11 60 -2 132 16 132 31 0
47 32 41 82 -6 43 -4 50 19 70 28 24 31 40 11 57 -23 19 -26 61 -5 79 23 22
41 70 34 92 -6 18 -34 32 -70 34 -12 1 -27 16 -40 41 -13 24 -30 41 -42 43
-12 2 -23 12 -26 23 -7 27 -61 26 -81 -2 -8 -12 -19 -18 -25 -14 -6 3 -11 1
-11 -5 0 -8 -6 -8 -21 0 -11 7 -27 9 -36 6 -10 -4 -18 4 -26 24 -6 16 -15 30
-19 30 -10 0 -35 58 -42 98 -4 26 -2 32 12 32 20 0 62 42 62 61 0 29 25 79 37
75 24 -10 15 42 -10 59 -28 18 -49 59 -41 79 3 8 -3 20 -13 27 -29 21 -52 60
-46 75 3 8 -1 21 -8 30 -11 13 -11 15 2 13 23 -5 59 20 59 41 0 11 4 20 8 20
5 0 15 11 22 25 8 14 20 23 27 21 11 -5 15 5 12 30 0 4 10 12 22 18 26 13 37
36 17 36 -7 0 -26 14 -42 30 -16 16 -32 27 -37 24 -24 -15 -149 49 -149 76 0
4 -9 17 -20 30 -11 13 -20 37 -21 54 -1 61 -10 69 -75 73 -32 1 -86 5 -119 8
-33 2 -76 5 -96 4 -19 0 -49 7 -65 16 l-29 15 -3 -47 c-2 -25 1 -49 6 -52 5
-3 12 -22 14 -41 3 -19 7 -41 9 -49 2 -8 -7 -20 -20 -27 -18 -9 -24 -22 -27
-55 -4 -43 -38 -94 -56 -83 -4 3 -3 -6 4 -20 6 -14 19 -26 29 -26 10 0 21 -12
28 -30 5 -16 15 -30 20 -30 20 0 12 -48 -9 -55 -15 -5 -20 -15 -19 -38 1 -18
-3 -57 -9 -87 -7 -38 -7 -59 0 -68 8 -9 6 -18 -6 -31 -21 -23 -14 -39 36 -92
44 -46 68 -59 117 -61 23 -1 41 -6 41 -11 0 -5 9 -7 21 -4 19 5 20 2 15 -41
-2 -26 -5 -49 -5 -51 -1 -2 -9 3 -19 12 -17 16 -20 15 -41 -7 -13 -13 -34 -27
-47 -30 -13 -4 -24 -13 -24 -21 0 -9 -21 -20 -52 -30 -47 -14 -54 -14 -64 -1
-6 9 -19 13 -31 10 -14 -4 -26 1 -37 17 -22 32 -20 58 6 86 l21 23 -31 0 c-17
0 -34 5 -37 10 -3 6 -17 10 -31 10 -27 0 -33 24 -9 34 8 3 15 15 15 26 0 11 7
23 15 26 13 5 13 9 1 26 -13 18 -12 25 11 67 14 25 33 55 42 66 25 29 22 132
-4 168 -11 14 -25 25 -31 23 -10 -4 -27 29 -52 102 -8 26 -8 39 1 53 10 17 8
23 -18 43 -27 22 -28 26 -14 38 9 7 28 31 42 54 l25 40 -22 18 c-11 10 -26 21
-33 25 -7 3 -14 20 -17 37 l-6 31 47 -4 c26 -2 54 -10 63 -18 24 -22 27 -20
41 38 6 28 19 57 28 63 19 15 2 39 -34 48 -14 4 -25 13 -25 22 0 11 -4 12 -19
4 -28 -14 -38 -13 -60 11 -14 15 -18 30 -14 50 4 20 -1 34 -16 50 -15 16 -19
30 -14 48 7 31 31 61 50 61 15 0 18 46 3 55 -20 12 -10 25 19 25 21 0 32 6 36
20 3 11 10 20 14 20 4 0 15 18 25 40 14 33 15 44 5 56 -9 11 -9 18 -1 26 6 6
8 24 5 39 -4 23 -2 29 12 29 21 0 44 28 45 52 0 10 12 25 26 35 15 9 35 37 45
61 10 24 23 40 29 37 5 -3 10 2 10 12 0 11 5 24 12 31 8 8 8 15 0 24 -6 8 -10
27 -10 44 1 17 -2 36 -6 42 -9 15 21 72 38 72 8 0 16 -7 20 -15 3 -8 9 -14 13
-13 21 5 95 -28 119 -53 30 -32 58 -37 79 -15 12 12 11 16 -8 30 -22 17 -21
17 13 11 19 -3 43 -15 53 -26 9 -12 17 -17 17 -13 0 5 5 2 10 -6 9 -13 10 -13
10 1 0 10 19 -2 52 -33 44 -40 57 -48 80 -43 20 5 29 1 38 -14 6 -13 21 -21
35 -21 14 0 25 -5 25 -12 0 -6 3 -8 7 -5 3 4 -3 16 -15 27 -12 12 -22 24 -22
29 0 4 -20 22 -45 41 -41 30 -43 35 -30 50 8 9 12 19 9 22 -3 4 4 9 16 13 14
4 19 12 16 23 -3 9 -2 33 3 52 6 26 4 39 -6 48 -17 17 -17 46 1 61 13 11 13
18 0 53 -8 22 -14 49 -14 59 0 11 -7 19 -15 19 -10 0 -15 10 -15 34 0 27 -10
46 -51 90 -28 31 -48 56 -44 56 4 0 2 7 -5 15 -7 8 -23 15 -35 15 -12 0 -28 7
-35 15 -8 9 -21 13 -32 9 -12 -3 -27 1 -39 12 -10 9 -19 13 -19 9 0 -4 -9 0
-19 9 -14 13 -24 15 -37 8 -13 -7 -30 -4 -63 11 -92 40 -111 52 -111 64 0 6
-10 15 -21 18 -15 5 -18 9 -9 15 10 6 10 15 1 43 -15 45 -34 60 -72 59 -17 0
-32 5 -35 13 -3 8 -11 12 -18 9 -6 -2 -25 9 -41 26 -16 16 -43 33 -62 36 -23
4 -33 12 -33 25 0 11 -6 19 -14 19 -8 0 -21 8 -28 19 -7 10 -16 19 -21 19 -4
1 -18 9 -32 18 -14 9 -32 13 -45 9 -38 -12 -61 33 -29 55 4 3 4 12 -2 20 -8
13 -11 12 -23 -3 -9 -12 -16 -14 -21 -7 -3 5 -21 17 -38 25 -18 8 -43 22 -57
32 -13 10 -21 12 -16 6 8 -14 -6 -18 -18 -6 -4 4 -13 8 -19 8 -25 2 -85 35
-90 50 -4 8 -2 15 2 15 5 0 12 7 15 16 5 13 2 15 -14 11 -11 -3 -20 -1 -20 5
0 5 -4 6 -10 3 -11 -7 -11 -5 -15 35 -1 14 -5 33 -10 43 -4 10 -2 23 5 32 6 8
9 19 5 25 -4 6 -1 42 5 80 10 59 15 70 32 70 23 0 19 24 -13 76 -11 18 -17 38
-14 46 4 9 -5 29 -19 46 -15 16 -26 37 -26 46 0 9 -4 16 -9 16 -5 0 -9 10 -9
23 -1 12 -3 33 -6 47 -2 14 -5 31 -5 38 -1 6 -10 12 -21 12 -11 0 -20 6 -20
13 0 13 -30 47 -42 47 -2 0 -4 -10 -4 -21 1 -12 -7 -26 -17 -33 -14 -9 -21 -6
-41 19 -13 17 -28 27 -32 22 -4 -4 5 -20 20 -36 26 -27 28 -51 5 -51 -16 0
-60 -53 -55 -66 10 -27 -64 -55 -89 -34 -13 11 -15 7 -12 -33 3 -26 9 -52 14
-59 6 -7 13 -25 17 -41 5 -21 2 -29 -10 -34 -15 -6 -14 -7 4 -14 23 -9 29 -33
12 -44 -5 -3 -10 -17 -10 -31 0 -13 -4 -24 -9 -24 -5 0 -7 -9 -4 -20 3 -11 1
-26 -5 -33 -12 -15 -7 -110 8 -137 9 -17 7 -22 -11 -29 -16 -5 -19 -10 -10
-15 19 -12 -7 -36 -40 -36 -25 0 -29 -4 -29 -26 0 -24 -2 -25 -39 -19 -30 5
-40 3 -45 -10 -3 -9 -10 -14 -15 -11 -5 4 -11 1 -13 -6 -3 -9 -12 -8 -31 5
-26 17 -29 17 -70 -1 -23 -10 -48 -26 -56 -35 -7 -10 -24 -17 -37 -17 -13 0
-24 -5 -24 -12 0 -6 -9 -3 -20 7 -26 24 -110 28 -110 6 0 -12 -3 -12 -12 -3
-7 7 -20 12 -30 12 -11 0 -20 10 -23 28 -9 41 -20 57 -43 60 -12 2 -24 12 -27
22 -8 25 -53 53 -76 47 -10 -3 -19 -1 -19 4 0 5 -7 9 -15 9 -9 0 -19 17 -26
45 -6 25 -15 45 -20 45 -13 0 -35 50 -42 93 -4 26 -2 35 5 31 7 -5 9 -1 5 9
-8 21 1 21 41 1 29 -14 37 -14 93 0 33 9 63 16 66 16 3 0 3 13 1 29 -4 26 -2
29 14 20 15 -8 18 -6 19 13 0 13 2 32 4 42 2 11 -3 25 -12 31 -13 10 -13 15
-2 32 10 17 10 24 0 37 -10 12 -10 19 0 38 7 13 12 31 10 41 -1 11 4 17 18 17
12 0 19 5 16 13 -6 15 13 40 42 56 12 6 20 17 17 25 -3 7 2 16 10 19 11 4 16
1 16 -10 0 -15 2 -14 14 2 12 16 16 17 30 6 14 -12 23 -11 61 3 41 16 44 20
38 46 -6 31 1 35 67 42 21 3 25 8 22 31 -3 31 9 34 53 11 17 -9 53 -23 80 -30
45 -13 51 -12 60 2 6 9 19 31 31 49 14 22 20 42 16 64 -3 25 0 36 17 47 33 24
25 42 -29 66 -27 13 -50 28 -50 34 0 5 -14 23 -31 40 -30 28 -31 28 -24 5 5
-17 4 -21 -5 -16 -6 4 -20 -1 -31 -11 -19 -17 -21 -17 -48 14 -16 17 -41 34
-55 38 -20 5 -29 16 -37 48 -12 42 -49 86 -74 86 -18 0 -39 37 -24 42 14 5 0
38 -17 38 -7 0 -21 11 -30 25 -9 14 -22 25 -30 25 -7 0 -22 17 -33 38 -28 54
-51 71 -81 61z m-14 -326 c-7 -7 -26 7 -26 19 0 6 6 6 15 -2 9 -7 13 -15 11
-17z m44 -48 c0 -14 -2 -25 -4 -25 -2 0 -11 -2 -18 -5 -17 -7 -20 36 -4 47 19
13 26 9 26 -17z m-13 -60 c9 -25 -4 -29 -17 -6 -7 15 -7 21 0 21 6 0 13 -7 17
-15z m-222 -1045 c3 -5 1 -10 -4 -10 -6 0 -11 5 -11 10 0 6 2 10 4 10 3 0 8
-4 11 -10z m60 -331 c11 -17 -1 -21 -15 -4 -8 9 -8 15 -2 15 6 0 14 -5 17 -11z
m-75 -539 c0 -5 -2 -10 -4 -10 -3 0 -8 5 -11 10 -3 6 -1 10 4 10 6 0 11 -4 11
-10z m213 -4 c4 -10 1 -13 -9 -9 -15 6 -19 23 -5 23 5 0 11 -7 14 -14z m1261
-941 c-3 -8 6 -24 20 -36 26 -22 36 -47 15 -33 -8 4 -9 0 -4 -15 4 -14 1 -23
-9 -27 -9 -3 -14 -10 -11 -15 3 -4 17 -4 32 2 28 10 63 4 63 -12 0 -5 -15 -9
-33 -7 -46 3 -60 -8 -44 -33 10 -16 9 -21 -3 -29 -8 -5 -10 -10 -5 -10 6 0 3
-4 -4 -9 -12 -8 -11 -13 10 -30 13 -11 29 -20 35 -21 19 0 39 -49 26 -62 -16
-16 -54 5 -70 40 -23 51 -40 65 -81 68 -49 3 -76 17 -123 61 l-36 36 26 22
c39 32 102 66 112 60 5 -3 12 4 15 16 4 12 12 18 21 15 9 -3 14 1 14 12 0 10
8 18 19 19 13 1 18 -3 15 -12z m146 -435 c0 -5 -2 -10 -4 -10 -3 0 -8 5 -11
10 -3 6 -1 10 4 10 6 0 11 -4 11 -10z m503 -998 c3 -17 1 -30 -3 -27 -5 3 -13
-3 -19 -12 -6 -10 -11 -13 -11 -7 0 6 7 17 15 24 10 9 12 17 6 23 -5 5 -7 16
-4 24 7 19 10 14 16 -25z m-46 -82 c0 -23 -3 -37 -7 -33 -12 16 -30 64 -21 58
5 -3 12 -1 16 5 10 16 12 12 12 -30z m39 -75 c12 -31 17 -34 43 -29 16 4 32 1
35 -5 4 -6 0 -11 -8 -11 -23 0 -20 -17 13 -65 19 -28 26 -47 20 -56 -14 -23
-10 -38 12 -50 15 -8 19 -8 15 0 -4 6 -3 11 3 11 7 0 8 17 4 48 l-6 47 31 -34
c18 -18 32 -42 32 -53 0 -11 8 -22 20 -25 11 -3 20 -7 20 -10 0 -12 -28 -28
-54 -31 -17 -2 -41 -8 -55 -14 l-26 -10 38 -33 c21 -18 34 -36 28 -39 -7 -5
-7 -15 -1 -31 7 -20 6 -25 -5 -25 -8 0 -15 -4 -15 -8 0 -8 46 -52 54 -52 10 0
77 -72 72 -77 -4 -4 -22 -7 -41 -6 -29 1 -35 -3 -35 -19 0 -22 1 -22 -57 12
-29 17 -41 30 -38 41 4 11 -6 19 -35 29 -22 7 -43 10 -47 7 -7 -8 -53 31 -53
45 0 5 4 7 8 4 4 -2 14 -1 22 5 12 7 12 9 -3 9 -10 0 -16 4 -12 9 3 6 -4 15
-15 21 -11 6 -20 21 -20 33 -1 12 -7 33 -14 46 -12 22 -11 26 15 49 16 13 29
30 29 37 0 21 16 26 44 14 19 -9 32 -9 48 -1 22 11 22 11 -3 6 -33 -7 -47 21
-24 46 8 9 15 21 15 25 0 21 -33 94 -41 90 -9 -6 -22 13 -25 35 -1 8 -5 23 -9
33 -4 9 -4 17 -1 17 4 0 14 -16 22 -35z m389 -774 c3 -5 1 -12 -5 -16 -5 -3
-10 1 -10 9 0 18 6 21 15 7z m35 -51 c0 -19 -51 -23 -68 -6 -15 15 -13 16 26
16 23 0 42 -4 42 -10z m35 -590 c3 -5 1 -10 -4 -10 -6 0 -11 5 -11 10 0 6 2
10 4 10 3 0 8 -4 11 -10z"/>
<path d="M8768 12743 c6 -2 18 -2 25 0 6 3 1 5 -13 5 -14 0 -19 -2 -12 -5z"/>
<path d="M8820 12730 c-12 -8 -9 -10 13 -10 16 0 26 4 22 10 -8 12 -16 12 -35
0z"/>
<path d="M9560 12185 c0 -8 -6 -18 -12 -22 -7 -4 -13 -24 -13 -43 0 -31 -3
-35 -30 -40 -19 -3 -31 -12 -34 -25 -2 -11 -8 -23 -13 -26 -5 -3 -1 -12 8 -20
15 -12 17 -12 9 0 -6 11 -3 13 14 8 14 -3 20 -1 19 7 -5 22 39 66 66 66 14 0
26 4 26 10 0 5 10 9 22 7 14 -1 23 4 26 16 2 10 -3 17 -12 17 -9 0 -21 11 -27
24 -13 27 -49 42 -49 21z"/>
<path d="M9710 12159 c0 -4 7 -9 15 -13 8 -3 15 -1 15 5 0 6 6 7 13 3 6 -4 9
-3 4 1 -9 11 -47 14 -47 4z"/>
<path d="M9665 12140 c-8 -12 20 -24 35 -15 6 3 8 11 5 16 -8 12 -32 12 -40
-1z"/>
<path d="M9754 12111 c4 -5 0 -12 -6 -14 -7 -3 -2 -6 11 -6 20 -1 21 1 11 14
-14 16 -25 21 -16 6z"/>
<path d="M9868 12089 c21 -36 36 -38 28 -3 -5 17 -3 23 4 19 5 -3 10 -2 10 3
0 5 -13 9 -29 10 l-29 1 16 -30z"/>
<path d="M9700 12041 c0 -5 5 -13 10 -16 6 -3 10 -2 10 4 0 5 -4 13 -10 16 -5
3 -10 2 -10 -4z"/>
<path d="M8500 10861 c0 -10 -48 -25 -68 -22 -8 1 -19 -3 -27 -9 -7 -6 -26
-12 -43 -13 -16 -1 -28 -5 -25 -9 6 -11 -5 -10 -26 4 -19 12 -51 5 -51 -11 0
-5 8 -7 18 -5 20 6 84 -45 88 -69 4 -28 38 -66 55 -61 9 2 28 -5 43 -17 26
-20 31 -21 83 -9 35 8 51 15 43 20 -12 7 -24 53 -37 142 -3 24 -13 42 -29 53
-13 8 -24 11 -24 6z"/>
<path d="M8188 10783 c7 -3 16 -2 19 1 4 3 -2 6 -13 5 -11 0 -14 -3 -6 -6z"/>
<path d="M11262 10175 c13 -33 32 -65 40 -65 12 0 11 3 -18 41 -15 19 -24 30
-22 24z"/>
<path d="M11288 10008 c9 -9 15 -9 24 0 9 9 7 12 -12 12 -19 0 -21 -3 -12 -12z"/>
<path d="M11344 9959 c4 -19 8 -44 9 -56 1 -12 12 -32 25 -45 12 -14 22 -34
22 -46 0 -11 4 -23 10 -27 13 -8 60 5 60 17 0 5 -4 6 -10 3 -5 -3 -10 -1 -10
5 0 7 7 10 15 6 8 -3 25 -2 37 3 22 8 21 9 -10 15 -22 5 -34 15 -38 31 -5 21
-48 60 -57 53 -10 -8 -37 28 -35 45 2 11 -3 22 -11 25 -11 4 -12 -3 -7 -29z"/>
<path d="M11070 9871 c0 -5 -8 -12 -17 -15 -21 -7 -45 -53 -32 -62 5 -3 9 -14
9 -25 0 -14 -7 -19 -25 -19 -23 0 -25 -3 -19 -27 4 -16 8 -30 10 -32 2 -2 -11
-13 -28 -25 -17 -11 -36 -30 -42 -41 -6 -11 -15 -23 -20 -26 -4 -4 -3 -23 4
-43 10 -30 14 -35 23 -23 18 21 87 58 97 52 5 -3 7 -12 3 -20 -3 -10 13 -32
45 -60 38 -35 51 -53 56 -84 6 -38 30 -59 61 -53 14 3 50 -59 46 -78 -1 -8 -9
-29 -18 -47 -22 -48 -14 -76 25 -87 36 -10 57 5 47 32 -5 14 13 60 32 80 7 7
13 20 13 28 0 9 11 14 30 14 33 0 35 3 20 31 -8 14 -7 19 3 19 8 0 14 7 14 15
0 8 -6 15 -12 15 -8 0 -10 10 -7 25 3 18 0 25 -11 25 -16 0 -34 53 -20 57 12
4 4 64 -11 82 -6 8 -24 20 -41 28 l-30 14 28 -4 c37 -6 45 15 18 44 -18 20
-19 24 -5 50 8 16 12 44 10 64 -4 34 -37 86 -53 86 -4 -1 -16 2 -26 5 -10 3
-24 1 -31 -5 -14 -12 -46 -5 -46 10 0 5 -16 2 -36 -6 -45 -18 -44 -18 -44 0 0
8 -4 15 -10 15 -5 0 -10 -4 -10 -9z"/>
<path d="M11305 9860 c3 -5 10 -10 16 -10 5 0 9 5 9 10 0 6 -7 10 -16 10 -8 0
-12 -4 -9 -10z"/>
<path d="M10600 9201 c0 -7 44 -31 57 -31 3 0 0 6 -6 14 -13 16 -51 28 -51 17z"/>
<path d="M8855 8879 c5 -14 4 -19 -4 -15 -7 5 -9 1 -5 -8 4 -11 0 -16 -10 -16
-19 0 -19 1 -5 -38 11 -32 32 -42 73 -35 22 5 25 9 19 32 -3 14 -10 29 -16 32
-5 4 -7 15 -5 25 2 12 -5 24 -20 32 -32 16 -34 16 -27 -9z"/>
<path d="M8764 8764 c3 -26 36 -57 36 -34 0 6 12 4 30 -5 17 -9 35 -13 40 -10
14 8 13 35 -1 35 -6 0 -22 9 -36 20 -14 11 -36 20 -49 20 -19 0 -22 -5 -20
-26z"/>
<path d="M8710 8740 c0 -5 5 -10 11 -10 5 0 7 5 4 10 -3 6 -8 10 -11 10 -2 0
-4 -4 -4 -10z"/>
<path d="M9630 8490 c0 -5 -6 -10 -14 -10 -7 0 -16 -9 -19 -20 -3 -13 -10 -18
-21 -14 -12 4 -15 2 -11 -9 4 -8 -7 -28 -27 -48 -18 -18 -26 -30 -17 -27 9 4
21 2 27 -4 14 -14 92 -28 92 -17 0 5 -7 9 -16 9 -10 0 -12 4 -7 13 4 6 6 20 5
30 -2 9 2 17 7 17 6 0 11 6 11 14 0 8 4 16 9 18 12 4 2 58 -10 58 -5 0 -9 -4
-9 -10z"/>
<path d="M10770 8246 c0 -9 5 -16 10 -16 6 0 10 4 10 9 0 6 -4 13 -10 16 -5 3
-10 -1 -10 -9z"/>
<path d="M10628 7502 c-4 -15 -11 -20 -22 -16 -19 7 -21 -7 -4 -24 7 -7 9 -12
5 -12 -4 0 -3 -9 3 -21 7 -11 17 -18 24 -16 13 5 46 -25 46 -42 0 -5 -5 -11
-12 -13 -8 -3 -9 -11 -3 -24 8 -18 9 -18 13 4 2 16 9 21 20 18 57 -17 68 -17
86 3 17 19 21 19 47 5 28 -14 29 -14 29 12 0 37 -61 94 -101 94 -16 0 -29 -5
-29 -12 0 -7 -12 -19 -27 -25 -34 -16 -58 -1 -43 28 7 13 6 20 -3 26 -8 4 -16
15 -19 23 -3 10 -6 8 -10 -8z"/>
<path d="M10645 7280 c3 -5 8 -10 11 -10 2 0 4 5 4 10 0 6 -5 10 -11 10 -5 0
-7 -4 -4 -10z"/>
<path d="M11216 6533 c-23 -12 -34 -13 -48 -4 -25 15 -28 14 -28 -10 0 -24 46
-73 56 -58 3 5 10 7 15 4 5 -4 16 0 24 8 8 9 20 18 27 21 10 3 8 8 -4 16 -9 6
-15 17 -12 25 7 18 6 18 -30 -2z"/>
<path d="M10988 6448 c9 -9 15 -9 24 0 9 9 7 12 -12 12 -19 0 -21 -3 -12 -12z"/>
<path d="M11115 6450 c-3 -5 -18 -10 -31 -10 l-26 0 28 -29 c28 -30 54 -31 54
-4 0 12 3 13 14 4 10 -9 16 -8 25 3 10 12 7 18 -18 30 -35 19 -38 19 -46 6z"/>
<path d="M11020 6434 c0 -6 -15 -11 -32 -10 -23 1 -36 -5 -44 -19 -5 -11 -20
-20 -32 -19 -12 0 -22 -3 -22 -8 0 -14 115 -3 139 12 20 14 21 17 7 35 -9 11
-16 15 -16 9z"/>
<path d="M11130 6346 c0 -22 27 -27 33 -5 4 14 0 19 -14 19 -10 0 -19 -6 -19
-14z"/>
</g>
</svg>
