<?xml version="1.0" standalone="no"?>
<!DOCTYPE svg PUBLIC "-//W3C//DTD SVG 20010904//EN"
 "http://www.w3.org/TR/2001/REC-SVG-20010904/DTD/svg10.dtd">
<svg version="1.0" xmlns="http://www.w3.org/2000/svg"
 width="650.423866pt" height="747.791111pt" viewBox="0 0 650.423866 747.791111"
 preserveAspectRatio="xMidYMid meet">
<metadata>
Created by potrace 1.15, written by Peter Selinger 2001-2017
</metadata>
<g transform="translate(-670.576134,1336.000000) scale(0.100000,-0.100000)"
fill="#222222" stroke="none">
<path d="M11960 13350 c0 -5 7 -7 15 -4 8 4 15 8 15 10 0 2 -7 4 -15 4 -8 0
-15 -4 -15 -10z"/>
<path d="M11933 13342 c-6 -4 -13 -17 -17 -29 -6 -18 -2 -25 19 -35 15 -7 29
-8 34 -2 12 12 -22 74 -36 66z"/>
<path d="M11515 13323 c4 -14 2 -23 -4 -23 -6 0 -11 -7 -11 -15 0 -8 -18 -22
-40 -31 -36 -14 -40 -20 -40 -50 0 -24 -6 -37 -17 -41 -10 -4 -25 -16 -35 -28
-14 -17 -14 -21 -2 -28 8 -4 14 -17 14 -28 0 -12 8 -23 20 -26 11 -3 20 -9 20
-14 0 -5 6 -9 14 -9 8 0 18 -5 21 -10 9 -15 -42 -80 -63 -80 -14 0 -14 -2 -3
-9 7 -5 11 -14 7 -20 -4 -6 -2 -19 3 -29 8 -15 4 -22 -22 -37 -18 -10 -45 -32
-62 -50 -16 -17 -37 -29 -46 -27 -20 4 -32 -34 -18 -60 12 -23 -24 -76 -58
-84 -17 -5 -23 -14 -23 -33 0 -14 -2 -64 -4 -111 -3 -84 -3 -85 27 -113 l30
-28 -22 -15 c-15 -11 -21 -26 -21 -50 0 -23 -4 -33 -11 -28 -27 16 -24 -19 4
-49 24 -26 38 -32 83 -35 34 -2 54 0 54 7 0 6 11 11 24 11 13 0 27 7 30 16 5
12 14 15 40 10 26 -5 35 -3 40 10 4 9 9 14 13 11 3 -4 11 0 17 9 9 12 17 13
38 5 29 -11 48 1 48 31 0 19 34 25 45 8 9 -15 31 -12 49 5 19 19 43 10 49 -18
2 -12 8 -30 12 -39 5 -14 2 -18 -14 -18 -12 0 -21 5 -21 11 0 5 -4 7 -10 4 -5
-3 -10 -1 -10 6 0 7 -3 10 -6 6 -3 -3 -17 -1 -31 4 -32 12 -52 -3 -46 -34 4
-23 43 -47 74 -47 16 0 32 -27 28 -46 -4 -16 13 -44 22 -38 16 9 10 -39 -7
-58 -15 -16 -18 -16 -28 -2 -10 14 -14 14 -41 -1 -17 -8 -47 -18 -67 -21 -22
-4 -38 -12 -38 -20 0 -7 -9 -16 -20 -19 -11 -3 -20 -11 -20 -16 0 -6 -4 -8 -8
-5 -5 3 -26 -1 -48 -9 -35 -13 -40 -12 -54 3 -15 17 -60 27 -60 14 0 -4 -21
-9 -47 -10 -49 -2 -73 -19 -73 -53 0 -37 -33 -61 -89 -63 -43 -1 -57 -6 -69
-24 -8 -12 -23 -22 -34 -22 -11 0 -26 -7 -34 -15 -9 -8 -29 -15 -45 -15 -16 0
-29 -3 -29 -7 0 -15 -48 -31 -59 -20 -7 7 -17 7 -33 -1 -13 -6 -41 -14 -63
-16 -22 -2 -53 -10 -68 -17 -22 -10 -33 -10 -48 -1 -27 17 -76 15 -83 -3 -3
-8 -16 -15 -30 -15 -40 0 -53 -9 -49 -34 3 -13 -4 -41 -15 -62 -10 -22 -17
-45 -15 -51 3 -7 -1 -13 -9 -13 -8 -1 -4 -8 10 -19 12 -11 22 -24 22 -30 0
-17 -28 -13 -38 5 -7 13 -10 13 -21 1 -6 -8 -21 -13 -31 -10 -19 5 -26 -6 -20
-32 1 -5 -1 -7 -5 -4 -7 8 -47 -28 -63 -56 -6 -11 -19 -20 -29 -20 -13 0 -19
-9 -21 -31 -5 -49 31 -59 136 -38 14 3 22 12 22 25 0 20 1 21 25 5 13 -9 34
-16 46 -16 20 0 21 1 6 18 -20 22 -34 92 -18 92 12 0 14 -10 11 -52 -1 -22 4
-29 24 -34 35 -9 52 -30 37 -48 -10 -11 -3 -21 34 -51 25 -21 45 -45 45 -54 0
-10 7 -26 15 -37 17 -23 19 -38 3 -28 -7 4 -8 3 -4 -5 10 -16 18 -110 11 -132
-4 -11 -11 -17 -16 -14 -12 8 -11 1 2 -27 6 -13 20 -28 32 -33 19 -9 21 -17
19 -55 -2 -25 -7 -47 -10 -50 -4 -3 -7 -15 -8 -27 -1 -25 15 -30 34 -11 8 8
15 8 28 -3 14 -11 18 -11 31 6 7 11 12 27 10 36 -3 9 -1 23 4 30 6 11 13 9 32
-9 13 -12 27 -22 33 -22 5 0 17 -14 26 -30 16 -29 38 -40 38 -21 0 6 23 9 51
9 43 -1 54 2 70 23 10 13 19 35 19 49 1 24 1 24 30 -10 16 -19 30 -44 30 -54
0 -43 23 -83 54 -95 29 -11 30 -12 11 -23 -11 -6 -21 -12 -23 -14 -6 -4 31
-58 51 -75 22 -18 15 -39 -13 -39 -10 0 -22 -5 -26 -11 -5 -8 -9 -8 -14 1 -5
9 -10 6 -15 -10 -6 -20 -12 -21 -47 -16 -23 4 -37 3 -34 -3 4 -5 -10 -5 -35 0
-31 7 -45 6 -62 -6 -12 -8 -28 -15 -37 -15 -8 0 -21 -12 -27 -27 -11 -23 -10
-31 17 -71 16 -24 34 -60 41 -79 10 -31 9 -39 -10 -64 -26 -35 -26 -32 1 -86
21 -42 21 -45 5 -54 -21 -12 -22 -39 -2 -39 8 0 15 9 15 21 0 16 4 19 23 13
12 -3 31 -14 41 -23 18 -15 19 -15 13 2 -5 13 2 23 26 37 33 20 88 30 57 10
-12 -8 -11 -10 7 -10 12 0 24 -6 26 -12 4 -8 6 -7 6 4 1 9 15 21 31 27 28 9
42 31 21 31 -5 0 -13 15 -16 33 -4 17 -14 45 -22 60 -7 15 -11 32 -8 36 7 12
136 -43 151 -64 9 -12 13 -13 16 -3 3 7 12 -1 23 -20 11 -18 28 -32 40 -33 11
0 14 -3 8 -6 -17 -6 -16 -53 2 -77 11 -14 11 -22 2 -37 -13 -21 -10 -26 18
-29 59 -6 77 19 52 70 -9 17 -11 32 -6 36 5 3 2 12 -6 20 -8 9 -15 20 -15 25
0 12 17 11 25 -2 4 -6 13 -8 21 -5 7 3 16 0 20 -6 4 -7 9 -6 15 3 4 7 3 19 -2
25 -7 8 -6 14 1 19 6 3 8 11 4 16 -3 5 0 17 7 25 7 8 12 33 11 55 -2 36 0 40
18 34 11 -4 20 -2 20 4 0 6 7 11 15 11 17 0 34 29 28 48 -3 6 -13 12 -24 12
-10 0 -19 7 -19 15 0 8 -19 27 -42 42 -35 22 -53 27 -96 24 -38 -1 -52 1 -47
9 4 6 13 9 21 6 8 -3 17 1 20 9 4 8 12 15 20 15 10 0 13 7 8 24 -5 20 0 27 25
41 18 9 31 23 31 35 0 10 5 22 11 26 6 3 8 16 5 27 -3 12 -1 26 3 31 5 6 11
22 13 36 l3 25 20 -22 c21 -25 51 -30 58 -10 3 6 4 -1 4 -18 -2 -36 31 -50 40
-16 4 15 13 21 34 21 45 0 79 20 79 47 0 33 24 38 64 13 29 -17 41 -20 70 -12
25 7 41 6 59 -3 30 -15 77 -8 77 12 0 8 4 12 9 9 5 -3 14 0 20 8 9 11 6 18
-16 35 -26 22 -26 22 -5 28 17 4 20 11 16 28 -4 17 0 24 15 28 13 3 21 13 21
26 0 13 15 29 44 46 44 26 86 65 70 65 -5 0 -3 4 5 9 7 5 25 31 40 57 24 44
30 49 65 52 44 4 71 20 71 42 0 8 8 14 18 14 23 -2 22 13 -3 21 -11 3 -20 13
-20 22 0 12 -3 13 -15 3 -8 -6 -24 -9 -37 -5 -18 5 -20 4 -8 -4 12 -9 11 -11
-7 -11 -14 0 -23 -6 -23 -15 0 -8 -6 -15 -14 -15 -8 0 -16 -5 -18 -11 -2 -7
-27 3 -61 26 -44 29 -59 46 -67 73 -11 40 1 56 34 46 20 -7 16 5 -13 40 -15
17 -15 18 5 12 26 -8 51 1 58 20 3 8 1 12 -4 9 -6 -3 -7 1 -3 10 4 12 14 16
34 13 23 -4 29 -1 29 14 0 22 23 24 40 3 20 -24 36 -18 86 30 33 32 54 45 74
45 34 0 80 19 80 33 0 17 27 -13 40 -43 11 -27 14 -29 33 -15 24 17 47 4 47
-26 0 -19 13 -32 23 -22 4 3 1 15 -5 27 -11 20 -10 20 9 4 25 -23 33 -23 33 0
0 32 24 71 48 77 13 3 20 10 16 16 -4 7 0 9 13 5 13 -4 27 2 44 20 22 24 23
26 7 38 -10 7 -18 20 -18 29 0 8 -7 18 -15 21 -9 3 -15 11 -14 18 5 24 -12 58
-29 58 -21 1 -66 90 -46 90 7 0 15 9 19 20 7 22 68 38 88 22 6 -5 38 -13 70
-17 48 -5 62 -4 78 11 16 15 23 15 42 5 20 -11 30 -10 63 5 21 9 41 17 44 16
3 0 15 13 25 29 11 16 26 29 33 29 6 0 12 2 12 5 0 11 -26 61 -35 67 -5 4 -10
13 -10 20 -1 42 -18 78 -36 78 -29 0 -27 55 4 65 14 4 17 8 9 12 -7 3 -17 15
-22 28 -6 17 -19 24 -54 29 -33 5 -47 13 -51 27 -5 14 -14 19 -28 17 -16 -2
-29 7 -44 30 -13 18 -23 39 -23 46 0 6 -7 21 -15 32 -8 10 -15 24 -15 31 0 14
-106 125 -134 140 -14 8 -20 23 -21 58 -2 31 -10 54 -24 68 -23 25 -23 26 -23
152 0 50 -2 84 -5 78 -7 -19 -37 -16 -83 8 -38 20 -53 21 -107 4 -16 -5 -27 0
-43 18 -18 21 -28 24 -56 20 -23 -4 -40 -1 -52 9 -9 8 -24 18 -33 21 -24 8
-66 67 -83 115 -15 42 -61 90 -120 126 -17 10 -33 22 -36 26 -10 14 -50 22
-50 10 0 -7 -6 -10 -14 -7 -8 3 -16 -2 -19 -14 -6 -23 -28 -24 -67 -4 -27 14
-44 5 -20 -10 27 -17 -50 -56 -93 -48 -22 4 -27 2 -27 -16 0 -14 -5 -19 -15
-15 -8 4 -21 2 -28 -4 -8 -7 -31 -7 -69 0 -72 12 -109 49 -104 104 2 27 -1 34
-12 29 -8 -3 -21 3 -29 12 -13 17 -14 16 -8 -4z m445 -93 c0 -5 -5 -10 -11
-10 -5 0 -7 5 -4 10 3 6 8 10 11 10 2 0 4 -4 4 -10z m-754 -2727 c-10 -10 -19
5 -10 18 6 11 8 11 12 0 2 -7 1 -15 -2 -18z m113 -20 c6 -13 15 -23 21 -23 5
0 10 -5 10 -12 0 -9 -3 -9 -12 0 -7 7 -20 12 -30 12 -10 0 -18 5 -18 10 0 6
-6 10 -13 10 -7 0 -22 6 -33 14 -17 13 -15 14 23 13 33 -2 44 -7 52 -24z
m-296 -124 c33 -9 49 -31 30 -42 -11 -6 -43 8 -73 32 -29 24 -16 27 43 10z
m17 -69 c0 -5 -2 -10 -4 -10 -3 0 -8 5 -11 10 -3 6 -1 10 4 10 6 0 11 -4 11
-10z"/>
<path d="M10340 11601 c0 -14 -5 -18 -19 -14 -25 6 -38 -15 -14 -24 20 -7 62
-53 63 -68 0 -20 36 -14 37 6 1 10 -5 19 -13 19 -13 0 -19 13 -15 34 3 15 -21
66 -30 66 -5 0 -9 -9 -9 -19z"/>
<path d="M10290 11410 c0 -5 5 -10 10 -10 6 0 10 5 10 10 0 6 -4 10 -10 10 -5
0 -10 -4 -10 -10z"/>
<path d="M12717 11383 c-4 -3 0 -14 9 -24 17 -19 11 -41 -9 -33 -8 3 -31 -9
-52 -26 -21 -16 -44 -30 -52 -30 -9 0 -12 -7 -7 -24 3 -13 -2 -45 -10 -71 -16
-46 -16 -48 5 -66 12 -10 26 -19 31 -19 5 0 7 -4 3 -9 -3 -6 9 -6 30 0 27 8
42 6 66 -6 17 -9 33 -14 36 -11 3 2 16 0 30 -5 17 -6 30 -6 39 2 17 14 59 8
60 -8 1 -7 2 -15 3 -18 0 -3 11 3 23 15 12 11 18 23 13 27 -4 5 -10 2 -12 -4
-7 -19 -21 -16 -28 7 -3 11 -33 46 -67 77 -56 54 -58 58 -36 63 34 9 34 37 0
58 -24 14 -28 21 -20 35 7 13 3 25 -14 47 -24 31 -31 34 -41 23z"/>
<path d="M12370 11310 c0 -5 5 -10 11 -10 5 0 7 5 4 10 -3 6 -8 10 -11 10 -2
0 -4 -4 -4 -10z"/>
<path d="M10137 11280 c-3 -14 3 -29 19 -45 13 -13 24 -29 24 -34 0 -6 7 -8
15 -5 8 4 15 12 15 19 0 7 -7 18 -15 25 -8 7 -15 17 -15 22 0 6 7 8 15 4 22
-8 18 12 -4 24 -30 15 -48 12 -54 -10z"/>
<path d="M12397 11294 c-4 -4 -7 -14 -7 -23 0 -11 3 -12 11 -4 6 6 10 16 7 23
-2 6 -7 8 -11 4z"/>
<path d="M10070 11280 c0 -5 4 -10 9 -10 6 0 13 5 16 10 3 6 -1 10 -9 10 -9 0
-16 -4 -16 -10z"/>
<path d="M10200 11149 c7 -11 14 -19 16 -16 7 7 -7 37 -17 37 -6 0 -5 -9 1
-21z"/>
<path d="M10225 11110 c-3 -5 -15 -10 -25 -10 -17 0 -19 -7 -17 -65 1 -36 5
-65 9 -65 5 0 8 7 8 15 0 8 7 15 15 15 8 0 15 8 15 18 0 10 4 22 9 28 5 5 12
24 16 42 5 25 3 32 -9 32 -8 0 -18 -4 -21 -10z"/>
<path d="M12960 11005 c0 -9 6 -12 15 -9 8 4 15 10 15 15 0 5 -7 9 -15 9 -8 0
-15 -7 -15 -15z"/>
<path d="M10837 9954 c-4 -4 -7 -18 -7 -31 0 -16 -6 -23 -19 -23 -13 0 -18 -5
-14 -18 7 -29 -45 -22 -70 9 -24 30 -67 48 -67 29 0 -8 -9 -10 -25 -6 -29 7
-33 -7 -7 -26 25 -18 19 -84 -9 -91 -10 -3 -19 -12 -19 -20 0 -12 -6 -14 -29
-7 -19 5 -33 4 -40 -3 -7 -7 -31 -19 -54 -28 -48 -19 -58 -45 -33 -84 19 -29
21 -55 3 -55 -9 0 -12 -11 -8 -37 2 -21 6 -32 8 -26 4 10 11 9 34 -2 16 -9 29
-19 29 -23 0 -11 -29 -53 -61 -87 -16 -17 -30 -43 -31 -58 -1 -15 -7 -27 -12
-27 -5 0 2 -11 15 -24 50 -50 50 -51 33 -103 -19 -56 -34 -77 -34 -46 0 24
-19 34 -49 26 -14 -3 -23 0 -27 11 -7 18 -24 22 -24 5 0 -16 -31 -38 -52 -39
-11 0 -18 -8 -18 -20 0 -11 -7 -20 -15 -20 -8 0 -15 -7 -15 -15 0 -8 -14 -17
-35 -21 -26 -5 -37 -13 -41 -30 -7 -28 -24 -32 -25 -6 0 10 -3 12 -6 5 -2 -7
-13 -13 -23 -13 -10 0 -22 -9 -25 -21 -6 -16 -13 -20 -36 -17 -16 3 -29 1 -29
-4 0 -4 7 -8 16 -8 20 0 10 -38 -16 -61 -11 -9 -22 -29 -26 -45 -4 -16 -14
-38 -24 -49 -10 -11 -20 -32 -24 -47 -5 -22 -12 -28 -34 -28 -35 0 -75 -39
-66 -63 3 -10 1 -17 -5 -17 -6 0 -8 -7 -4 -16 4 -10 -1 -17 -16 -21 -24 -6
-27 -30 -8 -58 23 -33 29 -82 11 -89 -9 -3 -19 -4 -24 -1 -4 3 -15 -6 -24 -20
-29 -44 -146 -82 -146 -48 0 11 -7 13 -23 10 -29 -8 -44 2 -48 33 -3 19 -10
25 -29 26 -37 1 -60 14 -70 39 -6 15 -20 25 -44 29 -20 4 -36 11 -36 17 0 7
-24 8 -69 3 -61 -6 -70 -4 -82 13 -18 25 -59 48 -59 33 0 -7 -10 -5 -27 3 -16
8 -47 17 -70 20 l-43 5 20 -25 c11 -14 20 -38 20 -52 0 -15 5 -32 12 -39 9 -9
9 -12 1 -12 -7 0 -15 -9 -18 -20 -4 -11 -18 -27 -33 -35 -15 -8 -21 -14 -14
-15 18 0 14 -34 -8 -63 -11 -14 -20 -37 -20 -52 0 -21 -4 -26 -16 -21 -13 5
-15 2 -11 -14 4 -16 0 -20 -23 -20 -15 0 -33 -7 -40 -15 -10 -12 -9 -15 7 -15
14 0 19 -6 18 -20 -2 -33 -19 -44 -46 -29 -17 9 -24 9 -27 0 -2 -6 -15 -11
-28 -11 -16 0 -28 -8 -36 -25 -6 -14 -17 -25 -25 -25 -7 0 -13 -11 -13 -25 0
-30 -32 -65 -60 -65 -11 0 -20 -5 -20 -10 0 -6 -12 -15 -26 -21 -21 -7 -31 -6
-45 7 -18 16 -19 16 -19 0 0 -10 -9 -29 -19 -43 -11 -13 -18 -30 -15 -37 2 -6
-9 -24 -24 -40 -26 -24 -29 -32 -24 -71 4 -36 1 -46 -13 -51 -9 -4 -22 -19
-29 -34 -6 -15 -31 -43 -55 -61 -56 -43 -61 -57 -22 -70 17 -6 31 -15 31 -21
0 -5 8 -8 18 -7 33 3 40 -1 51 -31 10 -31 31 -41 31 -15 0 11 5 10 21 -6 20
-20 21 -20 34 -2 13 17 14 17 20 0 4 -9 5 -26 2 -36 -3 -13 3 -22 19 -30 13
-6 24 -16 24 -23 0 -7 7 -26 16 -43 27 -50 35 -85 18 -78 -10 4 -14 -3 -14
-21 0 -14 -4 -26 -10 -26 -5 0 -6 -7 -3 -17 4 -11 3 -14 -5 -9 -8 4 -12 0 -13
-11 0 -10 -3 -13 -6 -5 -2 6 -11 12 -18 12 -7 0 -16 13 -20 28 -6 31 -69 70
-81 51 -3 -6 -13 -9 -22 -7 -10 2 -22 -6 -27 -17 -8 -14 -19 -19 -38 -17 -15
2 -37 -4 -49 -12 -12 -9 -32 -16 -44 -16 -12 0 -27 -7 -34 -16 -8 -9 -25 -14
-41 -12 -20 2 -33 -5 -49 -25 -12 -15 -28 -27 -36 -27 -8 0 -23 -9 -35 -21
-22 -22 -24 -22 -91 12 -9 5 -19 5 -22 1 -9 -16 -8 -59 2 -85 7 -16 12 -37 12
-47 0 -10 6 -20 13 -23 9 -3 9 -7 -1 -20 -12 -14 -9 -18 15 -31 29 -15 58 -60
48 -76 -3 -5 -1 -11 5 -15 5 -3 10 -2 10 3 0 11 51 23 90 23 14 -1 39 2 57 4
30 5 31 8 26 40 -6 37 6 46 27 20 9 -11 16 -13 23 -6 7 7 16 1 28 -18 21 -34
83 -51 73 -19 -6 19 10 25 21 8 3 -5 11 -10 16 -10 6 0 7 5 3 12 -4 7 -3 8 4
4 15 -9 16 -46 1 -46 -25 0 19 -27 54 -33 34 -5 36 -4 27 13 -8 15 -5 19 24
24 35 7 35 6 36 89 1 26 6 47 12 47 10 0 8 16 -7 53 -6 14 -1 17 33 17 32 0
41 4 47 23 4 12 6 28 5 35 -1 10 4 11 18 3 16 -8 21 -6 32 14 8 16 22 25 37
25 13 0 23 6 23 14 0 12 7 13 32 5 49 -14 54 -11 30 14 -25 27 -46 77 -32 77
16 0 12 32 -7 52 -17 19 -5 26 13 8 13 -13 57 2 81 25 11 12 18 13 29 4 10 -8
25 -4 63 16 27 15 56 25 65 22 8 -3 22 3 32 14 9 10 23 19 29 19 11 0 19 24
29 85 1 11 11 25 22 30 12 6 18 18 16 33 -3 19 1 22 30 22 36 1 61 15 71 43 3
9 13 17 22 17 8 0 15 5 15 11 0 8 12 10 34 6 29 -5 41 0 74 29 22 19 47 34 56
34 8 0 22 9 30 21 9 14 19 18 28 13 7 -5 34 -9 60 -9 43 0 48 3 62 31 11 23
12 34 3 43 -8 8 -8 11 2 11 8 0 10 7 6 20 -4 11 -2 20 4 20 6 0 8 8 4 18 -6
16 -5 16 13 2 31 -26 93 -43 108 -31 9 7 16 7 23 0 13 -13 51 5 71 33 7 10 18
16 23 12 13 -8 40 61 32 82 -5 14 -2 16 18 11 38 -10 55 6 41 37 -13 30 -10
32 23 10 17 -11 29 -13 42 -5 12 6 25 6 34 0 25 -16 51 -10 88 21 20 17 41 35
48 40 7 6 26 10 43 10 16 0 30 5 30 12 0 6 9 3 20 -7 28 -25 60 -27 60 -3 0
11 7 18 20 18 11 0 20 -4 20 -9 0 -5 11 -11 24 -13 17 -4 23 -1 19 9 -7 18 12
17 42 -3 24 -16 25 -15 25 5 0 17 4 20 24 15 16 -4 25 -1 29 10 4 9 15 16 25
16 10 0 22 3 26 8 4 4 38 12 74 17 l67 10 3 39 3 39 47 -9 c65 -11 125 -10
207 4 125 20 134 23 128 38 -7 20 25 96 48 112 10 7 19 18 19 24 0 6 18 32 41
57 58 66 61 70 54 81 -9 14 16 12 45 -5 17 -9 29 -10 37 -3 8 7 22 5 44 -6 21
-11 36 -13 44 -6 7 6 15 6 22 -1 8 -8 13 -5 18 10 5 16 10 19 23 12 14 -8 19
-3 28 27 7 27 15 36 28 34 10 -2 28 5 40 16 11 11 28 22 36 25 9 3 4 6 -11 6
-14 1 -28 4 -31 7 -9 8 9 66 23 74 8 5 6 16 -5 38 -15 29 -15 32 2 41 15 10
15 12 2 23 -8 7 -31 36 -50 65 -19 28 -46 57 -60 64 l-25 11 22 11 c17 7 22
17 20 45 -2 29 3 37 28 52 23 13 30 24 30 48 0 18 4 32 8 32 5 0 7 11 3 24 -4
15 0 29 13 40 18 17 18 60 0 72 -5 3 -5 13 1 23 10 20 -4 38 -47 60 -13 6 -23
18 -23 27 0 8 -13 17 -30 21 -25 4 -30 10 -30 34 0 16 5 29 11 29 6 0 8 8 4
19 -4 15 1 24 22 35 15 8 25 16 21 17 -12 2 -21 5 -64 17 -53 15 -93 12 -105
-9 -7 -13 -16 -15 -51 -8 -24 4 -58 8 -77 9 -27 0 -42 10 -85 55 -28 30 -59
55 -69 55 -10 0 -33 6 -52 14 -32 14 -33 14 -32 -7 3 -64 -2 -79 -25 -74 -13
4 -32 -2 -50 -14 -29 -21 -48 -18 -48 7 0 10 -5 12 -12 7 -7 -4 -28 -8 -46 -9
-18 0 -38 -8 -45 -16 -14 -17 -83 -58 -98 -58 -6 0 -7 5 -4 10 3 6 1 10 -4 10
-18 0 -12 20 7 27 27 10 32 26 16 44 -14 15 -12 19 10 37 16 12 26 30 26 46 0
19 6 27 25 32 23 6 24 9 19 48 -7 44 -16 61 -27 50z m47 -279 c-4 -8 -10 -13
-15 -10 -4 3 -6 12 -3 20 4 8 10 13 15 10 4 -3 6 -12 3 -20z"/>
<path d="M10387 9503 c-20 -2 -35 -9 -31 -14 9 -16 -19 -67 -43 -78 -13 -6
-23 -19 -23 -31 0 -11 -4 -20 -10 -20 -5 0 -10 -17 -10 -39 0 -36 2 -39 33
-44 41 -6 48 1 55 60 2 26 8 50 11 53 12 9 47 74 53 98 3 12 5 21 5 20 -1 -1
-19 -3 -40 -5z"/>
<path d="M10415 9220 c3 -5 13 -10 21 -10 8 0 12 5 9 10 -3 6 -13 10 -21 10
-8 0 -12 -4 -9 -10z"/>
<path d="M8475 7380 c3 -5 8 -10 11 -10 2 0 4 5 4 10 0 6 -5 10 -11 10 -5 0
-7 -4 -4 -10z"/>
<path d="M6990 6994 c0 -6 -28 -11 -71 -12 -76 -1 -123 -21 -113 -46 8 -21
-14 -56 -31 -50 -9 4 -15 0 -15 -10 0 -11 -9 -16 -29 -16 -29 0 -29 0 -19 -37
5 -21 18 -47 29 -59 10 -11 19 -30 19 -41 0 -30 10 -54 21 -48 4 3 15 -8 24
-24 17 -34 20 -55 6 -46 -5 3 -13 -5 -16 -17 -4 -13 -16 -33 -27 -45 -13 -13
-18 -29 -14 -39 4 -9 9 -14 13 -11 3 4 20 -6 38 -21 18 -15 41 -34 52 -43 11
-9 22 -22 24 -28 2 -6 23 -12 47 -14 28 -3 53 -13 70 -29 41 -37 88 -68 105
-68 9 0 19 -10 23 -22 3 -13 23 -43 43 -68 20 -24 35 -48 34 -52 -2 -5 8 -8
22 -8 28 0 32 -20 15 -64 -11 -30 1 -40 68 -51 25 -4 42 -12 42 -20 0 -8 9
-17 20 -20 25 -8 26 -25 1 -25 -10 0 -24 -7 -31 -15 -10 -12 -7 -15 17 -21 15
-3 33 -12 38 -19 6 -7 29 -16 53 -20 35 -6 42 -4 42 9 0 11 10 16 33 16 18 0
49 9 70 19 20 10 37 15 37 10 0 -4 7 -6 15 -3 8 4 23 0 33 -7 16 -13 16 -13 2
5 -14 18 -13 19 2 13 12 -4 19 0 23 14 8 23 21 25 29 4 6 -17 36 -21 36 -5 0
5 6 9 12 7 7 -1 14 8 16 21 2 12 8 20 13 16 6 -3 7 4 4 18 -8 30 21 35 31 6 7
-25 23 -23 17 2 -6 22 7 26 25 8 9 -9 21 -7 52 7 39 18 41 17 61 -1 16 -15 23
-16 37 -6 9 7 24 15 34 18 28 10 39 83 17 111 -7 7 -6 14 1 18 7 4 5 11 -5 21
-21 21 -20 103 1 119 15 10 12 16 -24 55 -33 34 -39 46 -32 61 7 12 7 20 -1
24 -6 4 -8 13 -5 20 3 8 -2 19 -10 25 -8 7 -14 28 -14 46 0 27 -5 36 -24 44
-13 5 -27 14 -31 19 -3 6 -15 11 -27 11 -17 0 -19 4 -13 23 4 12 7 32 7 44 0
12 6 24 14 27 8 3 14 16 14 30 0 16 7 27 20 31 22 7 28 35 8 35 -7 -1 -31 -7
-53 -15 -27 -10 -41 -11 -46 -4 -5 8 -9 8 -13 0 -5 -8 -13 -8 -29 0 -20 9 -20
9 -4 -4 18 -15 24 -33 8 -22 -5 3 -11 -7 -13 -22 -3 -25 -7 -28 -35 -25 -24 1
-33 -2 -33 -13 0 -21 -48 -39 -66 -24 -22 18 -87 30 -96 17 -9 -16 -58 6 -58
26 0 24 -29 32 -135 38 -42 2 -105 -7 -135 -20 -14 -6 -32 -13 -40 -17 -8 -3
-26 -12 -39 -20 -25 -14 -55 -10 -45 6 3 5 -15 28 -39 51 -54 52 -67 75 -62
114 1 16 -2 35 -8 43 -6 7 -12 19 -13 26 -3 18 -23 52 -24 39z m894 -350 c5
-14 4 -15 -9 -4 -17 14 -19 20 -6 20 5 0 12 -7 15 -16z"/>
<path d="M8006 6875 c-5 -13 -2 -14 17 -4 32 17 33 19 10 19 -12 0 -23 -7 -27
-15z"/>
</g>
</svg>
