<?xml version="1.0" standalone="no"?>
<!DOCTYPE svg PUBLIC "-//W3C//DTD SVG 20010904//EN"
 "http://www.w3.org/TR/2001/REC-SVG-20010904/DTD/svg10.dtd">
<svg version="1.0" xmlns="http://www.w3.org/2000/svg"
 width="711.500000pt" height="700.473176pt" viewBox="0 0 711.500000 700.473176"
 preserveAspectRatio="xMidYMid meet">
<metadata>
Created by potrace 1.15, written by Peter Selinger 2001-2017
</metadata>
<g transform="translate(-612.500000,1314.958778) scale(0.100000,-0.100000)"
fill="#222222" stroke="none">
<path d="M6265 13142 c-5 -4 -18 -24 -27 -44 -14 -29 -24 -38 -43 -38 -14 0
-25 -5 -25 -10 0 -6 -10 -15 -22 -20 l-23 -9 22 0 c34 -1 71 -21 76 -42 3 -11
14 -19 24 -19 30 0 41 -19 36 -58 -5 -43 13 -100 27 -86 6 6 6 24 -1 49 -8 29
-8 40 0 43 6 2 11 9 11 16 0 6 9 19 20 29 16 13 25 15 40 7 11 -6 20 -15 20
-20 0 -9 69 -36 84 -32 16 5 56 -41 56 -64 0 -12 7 -27 15 -34 9 -7 14 -19 11
-27 -3 -7 -1 -13 5 -13 5 0 15 -12 21 -26 10 -21 9 -27 -3 -35 -11 -7 -9 -9 7
-9 12 0 24 -6 27 -14 3 -8 21 -20 41 -27 19 -7 40 -23 47 -36 7 -13 16 -23 21
-23 19 0 68 -58 62 -74 -7 -18 6 -22 22 -6 16 16 55 -63 59 -121 2 -36 -1 -52
-11 -56 -8 -3 -14 -13 -14 -22 1 -22 74 -101 93 -101 9 0 19 -4 22 -10 3 -5
17 -10 30 -10 13 0 27 5 30 10 10 16 23 12 30 -10 4 -11 12 -19 18 -18 29 6
63 -14 80 -45 20 -37 57 -60 82 -51 8 3 31 -4 51 -15 20 -12 39 -20 41 -17 6
5 -32 61 -59 88 -10 10 -19 23 -19 28 -1 6 -2 16 -3 23 0 6 -12 14 -26 15 -24
4 -80 48 -80 64 0 4 7 8 15 8 11 0 15 11 15 38 -1 38 -19 72 -39 72 -6 0 -11
7 -11 15 0 9 -7 27 -16 41 -12 17 -14 28 -6 36 7 7 2 27 -15 66 -23 49 -24 56
-10 66 13 10 13 17 1 51 -17 49 -17 45 1 45 18 0 8 30 -29 85 -15 21 -26 52
-26 70 0 19 -6 35 -14 38 -8 3 -12 15 -9 31 4 20 -5 37 -40 77 -25 29 -44 56
-42 59 3 4 -5 16 -16 26 -24 21 -54 9 -54 -22 0 -27 -23 -64 -40 -64 -7 0 -15
-4 -17 -8 -6 -18 -55 -22 -68 -7 -12 14 -15 14 -30 0 -15 -14 -19 -13 -43 5
-35 28 -54 25 -62 -9 -5 -26 -11 -29 -56 -33 -33 -4 -54 -11 -64 -24 -13 -18
-14 -18 -20 -2 -4 10 -10 16 -14 14 -4 -3 -6 8 -5 22 2 29 -21 62 -43 62 -11
0 -10 -5 3 -25 9 -14 12 -25 7 -25 -16 0 -32 45 -22 61 13 21 11 27 -13 35
-25 7 -74 54 -70 67 3 9 -10 9 -23 -1z m100 -82 c3 -5 -1 -10 -9 -10 -9 0 -16
5 -16 10 0 6 4 10 9 10 6 0 13 -4 16 -10z m365 -430 c0 -5 -2 -10 -4 -10 -3 0
-8 5 -11 10 -3 6 -1 10 4 10 6 0 11 -4 11 -10z"/>
<path d="M6701 13044 c0 -11 3 -14 6 -6 3 7 2 16 -1 19 -3 4 -6 -2 -5 -13z"/>
<path d="M7348 12025 c-4 -4 0 -18 9 -31 8 -13 11 -24 6 -24 -14 0 -46 -79
-39 -96 4 -10 -6 -28 -25 -47 -28 -27 -29 -32 -15 -42 9 -7 16 -17 16 -24 0
-6 6 -11 14 -11 8 0 16 -7 20 -15 3 -8 12 -12 21 -9 9 4 15 1 15 -7 0 -10 3
-10 12 -1 18 18 46 15 65 -8 23 -26 78 -36 108 -20 20 11 27 11 42 -1 16 -13
17 -12 4 3 -7 10 -11 24 -8 32 3 7 2 17 -3 22 -5 5 -11 26 -13 46 -2 27 -13
45 -40 69 -20 18 -37 36 -37 41 0 17 -41 48 -64 48 -23 0 -44 20 -71 65 -6 9
-13 13 -17 10z"/>
<path d="M7646 11635 c-9 -24 -8 -26 12 -23 10 2 17 -3 17 -12 0 -23 77 -110
97 -110 10 0 25 -17 38 -42 11 -24 43 -72 71 -107 46 -59 50 -67 48 -115 0
-28 2 -61 6 -73 6 -18 3 -23 -11 -23 -11 0 1 -10 26 -21 25 -12 52 -25 60 -29
10 -5 15 -23 15 -60 0 -55 18 -79 59 -81 20 0 20 -1 2 -8 -14 -5 -16 -10 -7
-15 7 -5 9 -12 3 -19 -31 -40 -13 -82 38 -89 15 -2 26 -11 29 -23 2 -11 21
-39 43 -63 22 -24 44 -56 49 -72 6 -16 21 -36 34 -44 15 -10 22 -22 19 -31 -4
-10 0 -15 15 -15 12 0 21 -4 21 -9 0 -5 8 -12 18 -15 23 -8 192 -174 192 -190
0 -23 75 -84 119 -97 24 -7 48 -21 55 -31 6 -10 18 -18 26 -18 23 -1 50 -25
50 -46 0 -11 24 -36 59 -61 48 -35 57 -47 54 -66 -3 -17 6 -34 34 -64 21 -22
56 -60 78 -84 22 -24 48 -51 58 -59 9 -8 35 -39 57 -67 22 -29 51 -55 64 -59
13 -3 35 -17 48 -31 12 -14 33 -29 46 -34 12 -5 26 -19 31 -32 5 -12 16 -29
24 -36 9 -7 19 -25 22 -41 9 -39 100 -98 170 -111 78 -13 196 -48 221 -64 14
-9 33 -14 43 -10 9 3 44 -4 77 -14 37 -13 63 -16 69 -10 21 21 95 2 95 -25 0
-15 37 -50 63 -59 9 -4 16 -12 15 -19 -2 -9 11 -13 43 -14 61 -1 100 -12 124
-34 11 -10 37 -19 60 -20 57 -3 65 -1 65 11 0 16 39 51 73 66 24 11 27 10 27
-5 0 -9 9 -32 21 -51 14 -24 17 -37 10 -44 -25 -25 -12 -54 30 -70 30 -12 40
-21 35 -32 -3 -8 -9 -21 -12 -29 -4 -11 2 -14 27 -13 29 2 32 -1 33 -25 1 -15
-3 -29 -9 -32 -6 -2 -17 -23 -24 -46 -12 -39 -11 -46 14 -93 18 -35 23 -53 15
-61 -15 -15 -12 -62 5 -76 8 -7 15 -18 15 -25 0 -7 7 -18 15 -25 11 -9 12 -17
4 -31 -5 -11 -7 -36 -3 -56 6 -30 4 -35 -9 -30 -25 10 -34 -13 -40 -103 -7
-87 7 -168 31 -192 7 -7 12 -20 12 -30 0 -10 7 -21 15 -24 8 -4 15 -14 15 -24
0 -11 5 -22 10 -25 6 -4 22 -24 36 -46 14 -22 36 -44 50 -49 14 -6 24 -16 23
-22 -4 -21 18 -65 35 -71 9 -4 16 -13 16 -22 0 -8 5 -15 11 -15 14 0 38 -30
39 -49 0 -7 22 -34 49 -60 54 -52 69 -82 47 -100 -22 -18 -56 -105 -50 -128 3
-11 17 -26 30 -33 13 -8 24 -19 24 -26 0 -6 6 -14 14 -17 7 -3 16 -15 19 -27
4 -16 1 -24 -14 -27 -15 -4 -17 -9 -9 -19 9 -9 6 -16 -11 -25 -21 -11 -21 -13
-6 -24 9 -7 17 -18 17 -26 1 -8 9 -29 19 -48 18 -34 18 -35 -3 -52 -18 -15
-19 -21 -9 -38 11 -17 10 -27 -4 -56 -15 -32 -15 -36 0 -53 9 -10 14 -21 11
-24 -3 -4 0 -16 6 -28 10 -18 6 -26 -28 -61 -22 -21 -45 -39 -51 -39 -14 0
-15 -47 -1 -55 6 -4 8 -10 6 -14 -3 -4 10 -25 29 -46 19 -21 35 -44 35 -52 0
-7 11 -18 24 -22 25 -10 89 -92 100 -128 10 -30 -2 -63 -21 -63 -13 0 -15 -9
-10 -47 3 -27 1 -56 -5 -66 -12 -22 -1 -77 15 -77 13 0 67 -47 67 -58 0 -4 14
-13 30 -20 17 -8 30 -20 30 -27 0 -8 11 -20 24 -27 13 -7 38 -21 55 -31 28
-16 31 -16 31 -1 0 14 7 16 42 11 30 -4 48 -1 59 9 8 8 42 19 75 25 32 6 64
17 71 26 8 10 22 14 38 11 21 -5 25 -2 20 13 -9 26 8 24 44 -7 17 -14 31 -22
31 -18 0 4 10 -1 21 -12 l22 -19 -13 25 c-7 14 -20 30 -27 35 -12 9 -5 16 34
35 37 19 49 31 51 52 2 19 -2 28 -16 33 -11 3 -23 13 -27 23 -12 31 -15 81 -5
87 5 3 10 15 10 25 0 16 10 21 49 26 41 5 51 11 60 33 13 33 16 98 6 134 -5
20 -3 33 10 47 21 24 17 36 -46 122 -43 60 -61 126 -40 152 6 7 22 35 36 62
18 35 21 52 14 66 -5 10 -7 23 -4 28 3 5 1 11 -5 15 -5 3 -10 12 -10 19 0 8
-7 31 -16 51 -12 29 -18 35 -25 24 -6 -11 -13 -11 -26 -3 -23 14 -32 59 -10
51 9 -3 19 4 26 19 9 21 6 31 -22 71 -17 26 -40 55 -50 65 -16 17 -16 20 -2
35 9 8 19 13 22 9 12 -11 32 30 40 79 8 55 8 51 -2 83 -5 16 -2 22 10 22 19 0
13 34 -11 61 -23 26 -18 74 10 87 18 8 23 16 19 31 -3 12 -1 21 6 21 6 0 14
18 17 40 5 33 19 52 76 105 l69 65 -27 35 c-15 19 -38 44 -53 55 -14 11 -21
20 -14 20 6 0 9 9 6 20 -4 16 0 20 20 20 30 0 52 32 48 70 -1 16 6 33 18 45
12 10 21 23 21 29 0 6 18 22 40 35 36 22 38 27 36 65 -1 23 -6 49 -10 58 -6
13 -2 19 17 23 17 5 28 17 36 44 14 47 14 78 1 86 -18 11 -10 43 25 95 23 35
35 64 35 87 0 50 21 124 36 130 8 3 14 13 14 22 0 25 10 31 30 19 14 -9 27 -6
66 17 27 15 53 34 57 42 4 7 17 13 27 13 11 0 20 6 20 13 0 14 40 37 64 37 8
0 16 17 20 40 5 34 10 40 31 40 17 0 25 6 25 18 0 9 8 40 18 67 22 58 21 148
0 173 -45 54 -51 72 -38 131 10 49 9 67 -9 140 -25 100 -26 115 -7 108 10 -4
13 -1 9 9 -3 8 1 14 11 14 9 0 16 6 16 13 0 6 7 25 15 40 11 22 12 34 4 49 -6
11 -7 27 -4 36 4 9 10 44 12 77 4 54 8 63 41 92 20 18 43 33 50 33 10 0 10 5
-2 22 -12 17 -13 25 -4 36 10 12 7 13 -17 10 -29 -3 -30 -1 -27 32 2 19 -3 43
-10 53 -15 20 -98 36 -98 19 0 -10 -75 -28 -94 -23 -5 1 -13 -4 -17 -10 -6
-10 -11 -10 -22 -1 -11 10 -21 10 -40 1 -21 -9 -33 -7 -77 15 -48 24 -54 25
-65 10 -13 -19 -60 -10 -52 10 3 7 -3 23 -12 35 -13 17 -24 22 -39 16 -12 -3
-22 -11 -22 -16 0 -24 -50 -59 -84 -59 -22 0 -45 -9 -64 -25 -17 -14 -33 -25
-36 -25 -3 0 -14 -8 -25 -19 -21 -21 -73 -18 -65 4 3 7 -5 15 -18 18 -16 5
-28 1 -38 -14 l-16 -20 -26 21 c-15 11 -53 25 -85 31 -32 6 -66 15 -75 20 -10
5 -23 9 -30 9 -7 0 -32 21 -56 45 -26 27 -38 45 -29 45 10 0 13 7 10 21 -7 27
-50 43 -79 30 -17 -7 -26 -6 -38 8 -28 31 -105 63 -132 57 -30 -8 -67 2 -59
15 9 14 -7 11 -25 -6 -15 -14 -22 -14 -61 0 -24 9 -53 14 -63 11 -10 -3 -35 3
-55 13 -20 10 -50 22 -68 25 -20 5 -50 27 -83 62 -28 30 -57 54 -64 54 -7 0
-21 9 -31 20 -10 11 -25 20 -34 20 -9 0 -36 14 -61 30 -25 16 -51 30 -59 30
-8 0 -25 9 -37 21 -25 23 -153 42 -140 21 12 -20 -65 -6 -121 22 -29 14 -59
26 -66 26 -14 0 -62 41 -92 81 -11 14 -45 36 -75 49 -30 14 -59 30 -65 35 -42
43 -50 46 -85 28 -28 -14 -38 -14 -64 -4 -17 7 -49 19 -71 26 -23 7 -58 25
-79 39 -45 30 -130 37 -140 11 -4 -12 -11 -13 -32 -5 -18 7 -31 7 -37 1 -6 -6
-19 -6 -35 0 -15 6 -38 9 -52 8 -14 -2 -35 2 -47 9 -19 10 -23 9 -28 -9 -4
-12 -12 -18 -21 -15 -7 3 -36 8 -64 12 -40 5 -51 4 -56 -9 -3 -9 -27 -23 -53
-32 -68 -22 -141 -5 -141 33 0 14 -76 92 -90 92 -4 0 -19 9 -34 21 -24 19 -25
22 -11 33 13 9 14 21 9 56 -4 25 -9 39 -12 32 -6 -20 -20 -14 -54 23 -19 21
-38 33 -46 30 -8 -3 -26 2 -39 11 -21 13 -31 14 -72 3 -41 -10 -51 -9 -86 9
l-40 20 -26 -22 c-14 -11 -29 -29 -32 -38 -4 -12 -17 -18 -37 -18 -17 0 -52
-5 -77 -11 -37 -10 -50 -9 -72 3 -14 8 -39 13 -56 11 -16 -1 -42 2 -57 8 -21
9 -35 8 -58 -1 -19 -8 -34 -9 -43 -3 -6 5 -31 15 -53 21 -23 7 -47 19 -54 27
-7 8 -18 15 -25 15 -6 0 -26 7 -44 16 -29 14 -34 14 -44 1 -7 -8 -34 -17 -62
-20 -48 -6 -51 -5 -70 25 -24 37 -40 45 -49 23z m3434 -4271 c0 -8 -5 -12 -10
-9 -6 4 -8 11 -5 16 9 14 15 11 15 -7z"/>
<path d="M13210 11109 c0 -6 -4 -8 -9 -5 -4 3 -18 -5 -31 -19 -13 -13 -29 -21
-39 -18 -10 3 -6 -4 9 -17 14 -13 26 -17 28 -11 2 6 9 11 16 11 12 0 56 41 56
52 0 3 -7 8 -15 12 -8 3 -15 1 -15 -5z"/>
<path d="M13080 10972 c0 -10 -3 -27 -6 -39 -5 -18 -2 -23 14 -23 15 0 19 -5
15 -20 -3 -11 -1 -20 4 -20 6 0 10 13 11 30 1 44 13 57 27 30 9 -16 14 -19 20
-10 4 6 2 17 -4 23 -6 6 -11 18 -11 27 0 11 -10 16 -35 17 -26 1 -35 -3 -35
-15z"/>
<path d="M12950 10847 c0 -14 -4 -15 -27 -6 -17 6 -30 6 -36 0 -5 -5 -15 -7
-22 -5 -8 3 -17 -8 -25 -29 -13 -41 -52 -71 -85 -65 -12 3 -30 -1 -40 -8 -12
-9 -23 -10 -35 -4 -13 7 -20 6 -24 -5 -3 -8 -12 -12 -19 -9 -9 3 -17 -4 -22
-18 -13 -40 -16 -86 -5 -93 13 -8 13 -42 0 -50 -5 -3 -20 -8 -31 -10 -12 -3
-22 -6 -23 -7 0 -2 -6 -13 -13 -24 -11 -20 -9 -21 15 -19 49 4 59 14 72 75 8
39 17 57 25 54 18 -7 27 24 15 47 -14 25 -5 39 20 32 11 -3 20 0 20 6 0 20 48
12 64 -11 8 -12 13 -25 10 -30 -6 -9 8 -11 30 -2 9 3 16 12 16 19 0 21 23 23
48 4 22 -17 23 -17 46 4 13 12 25 31 27 42 3 14 14 21 34 23 47 5 48 15 5 62
-26 28 -40 38 -40 27z"/>
<path d="M13084 10828 c-21 -23 -22 -48 -2 -48 6 0 7 7 4 16 -3 8 -2 12 4 9
11 -7 24 18 18 35 -2 6 -13 1 -24 -12z"/>
<path d="M12715 10667 c-4 -14 -1 -36 6 -49 l14 -23 3 23 c2 13 10 26 18 29
15 6 20 33 5 33 -5 0 -16 3 -25 6 -10 4 -17 -2 -21 -19z"/>
<path d="M12560 10609 c0 -6 -12 -9 -27 -7 -25 3 -28 0 -28 -25 -1 -26 2 -28
26 -23 40 8 71 36 57 53 -13 16 -28 17 -28 2z"/>
<path d="M12705 10590 c3 -5 14 -10 23 -10 15 0 15 2 2 10 -20 13 -33 13 -25
0z"/>
<path d="M12120 10584 c0 -5 7 -18 15 -28 8 -11 15 -16 15 -10 0 5 -7 18 -15
28 -8 11 -15 16 -15 10z"/>
<path d="M12690 10571 c0 -5 7 -12 16 -15 24 -9 28 -7 14 9 -14 17 -30 20 -30
6z"/>
</g>
</svg>
