<?xml version="1.0" standalone="no"?>
<!DOCTYPE svg PUBLIC "-//W3C//DTD SVG 20010904//EN"
 "http://www.w3.org/TR/2001/REC-SVG-20010904/DTD/svg10.dtd">
<svg version="1.0" xmlns="http://www.w3.org/2000/svg"
 width="774.114507pt" height="405.521342pt" viewBox="0 0 774.114507 405.521342"
 preserveAspectRatio="xMidYMid meet">
<metadata>
Created by potrace 1.15, written by Peter Selinger 2001-2017
</metadata>
<g transform="translate(-647.043151,1213.004337) scale(0.100000,-0.100000)"
fill="#222222" stroke="none">
<path d="M7870 12126 c0 -2 8 -10 18 -17 15 -13 16 -12 3 4 -13 16 -21 21 -21
13z"/>
<path d="M7910 12077 c0 -8 9 -22 20 -32 20 -18 20 -18 4 13 -17 34 -24 40
-24 19z"/>
<path d="M7970 12024 c0 -5 9 -20 20 -34 18 -24 19 -24 14 -3 -6 22 -34 53
-34 37z"/>
<path d="M11917 11951 c-6 -23 -94 -39 -125 -22 -27 14 -32 14 -32 -3 0 -10
-12 -12 -51 -8 -39 4 -54 1 -60 -10 -6 -10 -19 -14 -40 -12 -24 3 -36 -1 -46
-16 -8 -11 -25 -20 -39 -20 -24 0 -35 -25 -14 -32 7 -2 1 -21 -12 -46 -22 -40
-38 -54 -38 -32 0 6 -17 7 -42 4 -24 -4 -55 -6 -70 -5 -24 1 -28 -3 -28 -24 0
-27 -26 -85 -38 -85 -4 0 -25 -25 -47 -56 -36 -50 -43 -55 -71 -52 -25 3 -30
0 -27 -13 3 -10 -4 -22 -16 -28 -12 -7 -21 -19 -21 -29 0 -9 -9 -28 -20 -42
-11 -14 -20 -31 -20 -37 0 -7 -11 -15 -25 -19 -14 -3 -25 -12 -25 -19 0 -7
-13 -24 -29 -37 -15 -13 -32 -36 -37 -50 -11 -32 -90 -118 -108 -118 -21 0
-38 -24 -25 -37 13 -13 -14 -36 -38 -31 -10 2 -23 15 -30 29 -7 14 -34 37 -60
50 -27 13 -51 28 -55 34 -4 5 -18 10 -31 10 -13 1 -37 11 -53 22 -22 16 -34
19 -48 11 -9 -5 -28 -7 -42 -4 -19 5 -24 3 -24 -14 0 -16 -5 -19 -24 -14 -13
3 -27 1 -30 -5 -4 -5 -13 -8 -21 -4 -10 3 -15 -1 -15 -12 0 -9 -5 -13 -10 -10
-6 4 -8 10 -5 15 3 5 1 11 -3 14 -10 6 -38 -19 -61 -52 -9 -12 -31 -24 -53
-27 -21 -4 -40 -11 -44 -16 -3 -5 -18 -2 -34 6 -16 8 -42 15 -59 15 -16 0 -41
4 -55 9 -18 8 -35 5 -66 -10 -24 -12 -51 -18 -61 -16 -12 3 -23 -2 -29 -13
-16 -29 -170 -61 -195 -40 -6 5 -53 14 -105 21 -52 6 -99 13 -104 16 -4 3 -12
-1 -17 -8 -10 -18 -66 -21 -103 -7 -25 10 -30 9 -46 -12 -12 -15 -22 -20 -31
-14 -7 4 -26 7 -42 6 -15 -1 -37 3 -48 9 -16 8 -25 7 -37 -4 -9 -8 -24 -17
-32 -19 -16 -6 -70 21 -70 34 0 4 -11 8 -25 8 -13 0 -30 6 -37 13 -10 12 -17
10 -38 -10 -20 -19 -34 -23 -73 -21 -30 1 -58 9 -72 20 -15 12 -26 15 -30 8
-4 -6 -11 -8 -16 -5 -5 4 -9 1 -9 -4 0 -19 -32 -12 -37 8 -3 12 -11 17 -19 14
-8 -3 -25 2 -39 11 -14 9 -31 16 -38 14 -15 -3 -57 24 -57 36 0 5 7 17 15 26
12 14 13 23 5 45 -9 24 -8 30 10 42 12 8 20 25 20 41 0 37 -35 125 -51 131
-38 12 -121 77 -134 105 -8 17 -26 45 -40 61 -20 24 -27 27 -34 16 -5 -7 -14
-10 -20 -7 -6 4 -9 11 -6 16 3 4 -4 27 -14 51 -11 23 -17 48 -14 55 2 7 -3 24
-12 38 -9 14 -14 30 -10 36 4 7 -2 14 -14 17 -12 3 -21 12 -21 19 0 8 -8 14
-18 14 -11 0 -29 9 -42 20 -26 23 -50 26 -69 8 -10 -11 -16 -9 -28 10 -9 12
-23 22 -32 22 -13 0 -14 -2 -2 -9 11 -7 12 -13 3 -23 -9 -11 -6 -23 13 -54 13
-21 26 -37 29 -34 3 3 21 -10 40 -29 26 -25 45 -35 72 -35 31 -2 38 -6 39 -24
1 -12 -2 -22 -6 -22 -4 0 -11 -21 -15 -46 -5 -38 -10 -45 -25 -41 -11 3 -24
-4 -33 -18 -14 -22 -14 -24 3 -30 10 -3 21 -18 24 -33 3 -15 9 -35 12 -44 6
-14 2 -18 -14 -18 -19 0 -20 -3 -11 -20 8 -15 8 -20 -1 -20 -8 0 -8 -4 1 -15
10 -12 10 -15 -1 -16 -8 0 2 -5 21 -12 19 -7 36 -20 38 -29 4 -22 -17 -23 -43
-4 -22 16 -46 10 -39 -9 3 -7 1 -22 -5 -33 -12 -23 -41 -20 -66 8 -9 10 -23
16 -31 13 -8 -3 -22 1 -32 8 -16 13 -16 13 0 -7 19 -22 14 -64 -8 -64 -7 0
-17 -12 -20 -27 -9 -37 -20 -50 -60 -69 -26 -13 -40 -14 -64 -5 -32 11 -60 6
-60 -11 0 -5 -4 -6 -10 -3 -5 3 -25 -9 -43 -28 -27 -26 -39 -32 -56 -26 -11 5
-21 5 -21 1 0 -4 -19 -8 -41 -9 -23 -2 -48 -8 -56 -15 -11 -9 -15 -7 -20 10
-3 15 -13 22 -29 22 -16 0 -22 4 -18 14 6 15 -23 36 -51 36 -13 0 -14 -4 -5
-20 15 -27 -25 -70 -71 -77 -53 -8 -202 -3 -215 8 -7 6 -15 0 -24 -16 -8 -15
-20 -23 -27 -20 -8 2 -35 -6 -61 -20 -26 -14 -53 -25 -59 -25 -7 0 -13 -6 -13
-14 0 -22 -42 -44 -77 -39 -17 3 -39 0 -50 -6 -17 -10 -16 -10 4 -11 22 0 40
-31 29 -49 -4 -5 -2 -21 4 -35 7 -20 6 -26 -4 -26 -19 0 -49 -37 -43 -53 4
-10 -5 -13 -36 -13 -38 1 -43 -2 -52 -31 -6 -17 -18 -40 -26 -50 -31 -35 -40
-60 -29 -87 8 -22 7 -26 -9 -26 -14 0 -21 -10 -25 -36 -6 -28 -11 -34 -24 -29
-13 5 -14 3 -5 -6 6 -6 9 -19 6 -28 -3 -10 -2 -12 4 -5 14 19 51 22 74 6 19
-13 23 -13 33 -1 13 17 44 13 67 -7 9 -8 18 -11 22 -8 11 12 44 -7 56 -32 6
-15 9 -29 6 -32 -3 -3 2 -13 11 -23 9 -10 14 -25 11 -34 -4 -8 -2 -15 3 -15 5
0 11 -9 15 -19 4 -13 -4 -29 -25 -50 -31 -30 -60 -41 -60 -21 0 6 -5 10 -10
10 -7 0 -7 -7 0 -21 9 -17 8 -24 -8 -37 -22 -20 -18 -42 8 -42 9 0 24 -7 31
-16 7 -9 23 -20 35 -24 21 -8 40 -60 23 -60 -5 0 -9 -5 -9 -12 0 -6 9 -3 20 7
18 16 20 16 20 2 0 -9 15 -24 33 -33 30 -16 31 -16 18 0 -7 9 -15 31 -17 49
-2 17 -6 42 -9 55 -4 18 -1 22 17 24 42 2 45 3 61 16 13 11 15 10 10 -7 -7
-28 3 -26 32 5 23 24 25 25 47 10 12 -9 29 -16 38 -16 8 0 28 -20 43 -45 19
-29 36 -45 49 -45 15 0 19 -5 15 -19 -8 -32 22 -34 49 -3 17 18 27 23 31 15 2
-7 12 -13 20 -13 12 0 14 8 11 33 -7 42 -1 56 28 67 18 7 24 17 24 41 0 24 3
30 16 25 39 -15 64 -18 64 -7 0 6 8 11 18 11 25 1 65 37 57 52 -3 7 7 -2 24
-21 23 -26 28 -38 20 -48 -19 -23 -2 -43 36 -43 30 0 35 3 35 23 l1 22 17 -21
c10 -12 35 -27 57 -35 21 -8 40 -21 42 -30 3 -8 18 -23 34 -33 23 -14 29 -24
29 -51 0 -38 14 -52 34 -36 9 8 23 6 52 -8 38 -19 63 -19 34 -1 -8 6 -10 10
-5 10 19 -1 61 -41 48 -47 -23 -9 -14 -22 20 -28 34 -7 77 -60 77 -95 0 -10
13 -29 28 -42 50 -42 43 -98 -13 -98 -12 0 -13 -5 -4 -26 5 -15 6 -36 2 -48
-9 -27 -5 -45 13 -63 8 -8 14 -22 14 -32 0 -25 41 -66 50 -51 5 8 9 6 14 -6 5
-12 1 -23 -8 -30 -27 -19 -18 -37 34 -73 28 -18 50 -36 50 -40 0 -3 16 -23 35
-44 30 -33 38 -36 55 -27 12 7 39 8 65 4 32 -4 45 -3 45 6 0 8 6 9 18 5 29
-13 55 -7 73 16 9 12 19 17 22 12 3 -5 28 -8 54 -6 26 3 66 5 88 7 30 2 43 8
51 25 8 15 14 19 19 11 5 -8 10 -8 20 0 7 6 19 8 28 4 8 -3 18 -1 22 5 12 20
26 11 41 -25 8 -20 24 -38 35 -41 10 -3 19 -9 19 -14 0 -5 7 -9 15 -9 9 0 30
-17 48 -37 72 -84 174 -185 198 -198 27 -14 69 -86 69 -117 0 -9 7 -21 15 -28
9 -7 13 -20 10 -28 -3 -8 1 -25 10 -38 8 -13 13 -34 10 -46 -9 -39 34 -98 94
-130 29 -16 60 -27 67 -24 17 7 55 -31 85 -83 18 -32 25 -38 36 -29 10 8 18 7
31 -4 9 -9 31 -23 48 -31 16 -9 53 -36 81 -61 28 -25 57 -46 65 -46 7 0 21 -9
31 -20 9 -11 23 -20 31 -20 8 0 23 -15 33 -32 14 -24 34 -38 71 -51 28 -10 57
-26 64 -34 19 -23 76 -45 98 -38 11 3 30 -1 43 -10 20 -13 50 -15 154 -13 70
1 135 -2 143 -7 20 -12 50 -14 50 -3 0 5 -9 18 -19 30 -11 11 -17 27 -14 35 3
8 9 10 12 5 3 -5 27 -10 53 -10 42 -1 47 1 53 25 4 19 9 23 18 14 17 -17 37
-13 37 8 0 31 15 33 41 5 18 -20 21 -28 12 -42 -8 -14 -6 -23 8 -41 17 -20 23
-20 21 0 -1 3 12 4 27 1 21 -3 37 4 64 28 20 17 41 29 47 25 5 -3 10 2 11 12
0 15 2 15 9 -3 12 -29 55 -26 128 9 15 7 22 17 19 28 -5 20 34 45 57 36 9 -4
16 -1 16 6 0 7 10 13 23 13 12 1 31 5 43 9 16 5 23 0 33 -21 7 -16 15 -24 19
-18 9 12 70 16 77 5 5 -10 108 13 138 29 12 7 24 7 37 0 14 -8 26 -7 41 0 15
9 24 8 35 -1 11 -9 19 -7 39 15 20 22 29 25 44 17 10 -6 43 -13 72 -16 45 -4
56 -2 76 17 13 12 23 26 23 32 0 6 18 19 40 29 28 13 47 31 61 60 12 23 27 52
33 64 13 27 19 28 35 9 9 -11 20 -12 43 -5 24 6 36 5 48 -6 9 -8 25 -15 35
-15 10 0 23 -7 30 -17 11 -14 18 -10 69 39 40 39 59 51 63 42 3 -8 0 -21 -7
-29 -10 -12 -9 -16 4 -21 9 -3 22 -2 29 4 18 15 87 12 94 -4 4 -11 8 -11 20 2
14 14 18 13 37 -4 11 -11 33 -22 49 -26 15 -3 27 -11 27 -16 0 -6 7 -10 16
-10 8 0 13 -4 9 -9 -3 -5 0 -13 6 -17 8 -4 7 -9 -2 -15 -9 -6 -3 -8 17 -5 17
2 36 6 42 10 6 3 23 -5 39 -18 59 -50 193 -65 225 -26 9 11 25 20 36 20 25 0
46 25 38 45 -7 19 10 20 21 2 11 -20 55 -28 71 -15 11 9 16 9 23 -3 10 -20 95
-53 114 -45 8 3 17 1 20 -4 10 -17 22 -11 28 12 l6 22 23 -20 c27 -24 53 -35
62 -26 4 3 26 7 49 8 33 2 46 -2 58 -18 16 -21 17 -21 17 5 0 15 -4 27 -9 27
-5 0 -9 7 -9 15 0 20 -33 27 -105 22 -61 -4 -104 5 -116 25 -4 6 -5 26 -2 44
4 26 1 35 -16 46 -25 15 -27 28 -6 28 19 0 19 34 0 50 -8 7 -13 16 -10 20 3 4
-11 20 -29 34 -26 19 -34 33 -34 54 1 15 -6 42 -16 59 -9 18 -16 43 -16 57 0
29 -50 116 -66 116 -6 0 -17 7 -24 15 -7 8 -27 19 -44 23 -18 5 -32 16 -35 27
-2 11 -25 40 -51 65 -47 44 -49 47 -56 118 -6 67 -9 75 -43 104 -20 17 -36 34
-36 37 0 3 -6 21 -14 39 -9 22 -17 30 -24 23 -14 -14 -37 -2 -37 19 0 10 -11
27 -25 38 -14 11 -25 27 -25 35 0 8 -11 18 -25 21 -14 4 -35 18 -47 31 -12 14
-27 25 -34 25 -19 0 -27 19 -15 34 15 18 11 67 -7 88 -8 9 -11 21 -8 26 3 5
-1 15 -9 22 -8 7 -15 18 -15 25 0 6 -26 34 -58 61 -32 27 -57 55 -55 61 2 6
-6 14 -17 18 -16 5 -20 12 -16 29 4 15 -1 26 -15 35 -16 10 -20 19 -15 41 5
25 0 33 -30 56 -19 15 -33 33 -30 40 3 7 1 16 -4 19 -6 4 -6 14 1 26 8 15 6
34 -7 75 -11 36 -13 58 -7 66 22 28 33 80 21 95 -9 11 -9 16 1 23 17 10 -1 70
-29 95 -10 9 -16 23 -14 30 3 8 -6 33 -20 58 -14 24 -26 50 -26 57 0 8 -12 26
-26 41 -15 15 -25 38 -25 51 1 12 1 61 1 108 -2 71 -5 86 -21 98 -17 12 -18
15 -3 37 9 13 13 29 9 35 -8 13 16 80 28 80 5 0 7 11 5 24 -4 18 1 28 18 36
18 10 23 21 22 51 0 22 5 46 12 54 10 11 10 18 1 29 -9 11 -9 15 1 19 10 3 9
11 -4 35 -10 16 -18 41 -18 54 0 29 34 65 45 49 3 -6 12 -11 18 -11 8 0 8 3 2
8 -13 9 -17 70 -4 77 5 4 7 11 3 16 -3 6 2 17 12 24 14 11 16 17 7 23 -16 10
-73 117 -73 137 0 9 -6 18 -14 21 -8 3 -17 23 -21 45 -4 21 -10 37 -15 34 -13
-8 -98 28 -104 44 -11 32 -45 83 -63 96 -10 6 -39 15 -64 18 -40 5 -48 4 -52
-12z m803 -3526 c0 -8 -4 -15 -9 -15 -5 0 -11 7 -15 15 -3 9 0 15 9 15 8 0 15
-7 15 -15z"/>
<path d="M8116 11735 c4 -8 13 -15 21 -15 13 0 13 3 3 15 -7 8 -16 15 -21 15
-5 0 -6 -7 -3 -15z"/>
<path d="M6583 10413 c-14 -3 -23 -12 -23 -22 0 -9 -6 -26 -14 -36 -8 -11 -12
-24 -10 -30 7 -18 -42 -55 -55 -42 -13 13 -14 -2 -2 -23 8 -12 18 -8 60 20 28
19 50 39 48 45 -2 5 7 20 20 33 14 14 22 31 19 39 -3 8 -6 17 -6 19 0 2 -3 3
-7 3 -5 -1 -18 -4 -30 -6z"/>
<path d="M7043 9972 c-8 -5 -8 -11 1 -24 15 -20 26 -14 26 14 0 19 -8 22 -27
10z"/>
<path d="M13750 8411 c0 -25 -15 -35 -35 -23 -11 6 -32 0 -65 -16 l-50 -24 30
-35 c17 -18 30 -38 30 -43 0 -6 7 -10 16 -10 9 0 21 -13 27 -30 8 -21 16 -28
28 -25 9 3 29 -1 45 -10 16 -8 43 -15 60 -15 16 0 39 -7 50 -15 13 -9 31 -12
56 -8 36 5 38 4 44 -26 7 -34 29 -41 39 -12 3 11 13 22 22 25 12 5 13 9 4 20
-9 11 -7 15 8 19 14 3 17 11 14 29 -7 37 17 52 53 33 27 -14 30 -13 52 10 12
14 26 25 31 25 4 0 3 16 -3 35 -7 22 -16 34 -26 32 -8 -1 -14 4 -12 11 2 9 -4
12 -15 8 -10 -3 -32 -7 -49 -8 -21 -1 -30 -6 -27 -15 3 -8 -3 -13 -17 -13 -11
0 -19 -4 -15 -9 18 -30 -43 -84 -90 -80 -45 5 -65 -1 -65 -18 0 -15 -2 -16
-10 -3 -6 10 -6 16 0 18 6 2 6 11 0 23 -8 13 -7 19 0 19 7 0 8 6 0 19 -15 30
-12 41 13 41 21 0 20 1 -8 24 -16 13 -33 22 -37 20 -4 -2 -23 7 -44 21 -44 30
-54 31 -54 6z m44 -49 c3 -5 2 -18 -1 -30 -7 -29 -53 -31 -53 -2 0 26 42 51
54 32z m33 -48 c-3 -3 -12 -4 -19 -1 -8 3 -5 6 6 6 11 1 17 -2 13 -5z"/>
<path d="M11375 8220 c-3 -5 -1 -10 4 -10 6 0 11 5 11 10 0 6 -2 10 -4 10 -3
0 -8 -4 -11 -10z"/>
</g>
</svg>
