<svg version="1" xmlns="http://www.w3.org/2000/svg" width="1085.122" height="1367.511" viewBox="0 0 813.842 1025.634"><g fill="#222"><path d="M294.187 1.65c.8 2.8-1.9 5.9-3.8 4.3-1-.7-1.7-.5-2.7.9-.8 1.1-2 2-2.7 2-.7 0-1.3.3-1.3.6 0 1.5 2.6 5.2 5.5 8 3.1 2.8 3.3 3.4 2.9 8.5-.3 5.6 1 11.2 3.5 14.1 1.2 1.6 1.2 1.8-.2 1.8-.9 0-1.7 1-1.9 2.2-.2 1.7-.9 2.2-2.5 2-1.3-.2-2.3.2-2.3.7 0 .6.5 1.1 1 1.1.6 0 1 .6 1 1.4 0 .7.6 1.9 1.4 2.6 1.2.9 2.1.7 4.5-1.1 1.7-1.3 3.1-3.1 3.1-4.1 0-1 .5-1.8 1.1-1.8 1.5 0 .2-5-1.9-7.4-1.6-1.8-1.6-1.9 0-1.3 1.5.5 1.7 0 1.4-3.7-.2-2.4-.6-4.8-1-5.4-.3-.6.2-.8 1.3-.5 1 .3 3.3-.3 5-1.1 2.5-1.4 3-2.1 2.5-4-.4-1.6-.1-2.5 1-2.9 2.2-.9 2-3.3-.6-7-1.7-2.3-2.9-3.1-4.5-2.9-1.6.2-2.3-.2-2.3-1.2 0-.9-.8-1.6-2-1.6-1.1 0-2-.3-2-.8 0-.4-1-1.8-2.1-3.2-2-2.4-2-2.4-1.4-.2zM284.687 56.85c-1.1 1.1-2 3.1-2 4.5 0 1.5-.7 2.8-1.7 3.2-1 .3-2.6 1.3-3.5 2-.9.8-2.1 1.2-2.6.9-1.9-1.2.1 3.5 2.1 4.9 1.3.9 1.7 2 1.3 3.1-.5 1.4-.4 1.5.8.5.8-.7 2.4-1 3.6-.6 1.1.4 4.3.1 7.1-.6 4.5-1.2 5-1.5 4.4-3.6-.3-1.3-.1-3.3.5-4.4 1.5-2.7-1.2-7.1-3.8-6.3-1 .4-1.3.3-.6-.3.6-.4 1.3-1.8 1.6-3.1.5-1.9.2-2.2-2.3-2.2-1.6 0-3.8.9-4.9 2zM260.187 78.85c-.3.5-.1 1 .4 1 .6 0 1.1-.5 1.1-1 0-.6-.2-1-.4-1-.3 0-.8.4-1.1 1zM274.587 79.75c-1.4.9-2.4 2.1-2.2 2.7.2.7-.2 1.2-.9 1.1-3.7-.1-4.6.4-4.1 2.3.6 2.4-2.2 2.8-3.1.5-1-2.6-2.6-1.6-2.6 1.6 0 4.7-2.7 9.4-6.3 11-2.7 1.2-3.3 2-3.5 5.1-.2 2.6-.9 3.9-2.2 4.3-2.4.8-4-.1-4-2.1 0-1.9-1.6-1.8-2.4.1-.3.8-1.2 1.5-2.1 1.5-.8 0-1.5.8-1.5 1.8 0 2-4.5 4.6-6.1 3.7-.5-.4-.9.2-.9 1.3 0 1.9-5.3 4.2-9.8 4.2-1.1 0-2.4.4-2.7 1-.7 1.1-6.5-1.5-6.5-2.9 0-.5-1.1-1.1-2.4-1.3-1.8-.4-2.2-.1-1.9 1.3.7 2.6-4.3 8.7-7.5 9.1-1.6.2-3.1 1.2-3.7 2.5-.6 1.4-1.9 2.3-3.1 2.3-1.9 0-2.1-.5-1.8-4.8.3-4.1 0-5.2-2-7.1-1.6-1.5-2.6-1.9-3.1-1.1-.4.6-1.6.8-2.7.4-1.5-.4-1.8-.3-1.3.7.6.9.2 1.1-1.3.7-1.2-.4-2.2-.2-2.2.3 0 .6-.9.5-2-.1-3.8-2-5.7-.4-6.5 5.5-.5 4.3-1 5.4-2.3 5.3-.9-.1-3.2.4-4.9 1.1-2.5 1-3.3 1.9-3.3 3.7 0 1.4-.7 3.6-1.6 4.9-1.1 1.7-1.2 2.5-.4 2.5 1 0 .9 1.4-.7 5.7-.3.7.6 1.2 2.4 1.1 1.5 0 4.7.4 7 1 3.2.7 4 .7 3.7-.3-.3-.7.2-1.5 1.1-1.9 1.4-.5 1.4-.8-.2-3.3-1.7-2.6-1.7-2.6.4-2.1 1.5.4 2.4-.1 3.3-1.7 1.3-2.5 7.8-6.5 10.6-6.5.9 0 2.6-.7 3.6-1.7 1-.9 2.1-1.3 2.6-.8.4.4.1 1-.5 1.2-.7.3-1.3 1.3-1.3 2.3 0 1-.4 2.1-.8 2.4-.5.3-.8 3.7-.7 7.5.1 5.3-.2 7.1-1.3 7.6-.7.3-1.9.2-2.4-.2-.7-.4-.8-.1-.4.6.5.8 0 1.4-1.3 1.8-2.6.7-2.6 1.5-.2 3.7 2.5 2.3 3.3 5.6 1.5 6.3-.8.3-1.1 1-.8 1.5.4.6 1 .5 1.5-.3.7-1.1 1-.9 1.5.8.3 1.2 1.2 2.4 2 2.7 1 .4 1.1 0 .4-2-.9-2.3-.8-2.4 1.8-1.8 2.2.5 2.5.4 1.5-.7-2.1-2.2-1.5-3.4.7-1.4 1.9 1.7 2.1 1.7 4 0 1.3-1.1 1.8-2.5 1.4-3.7-.5-1.6.1-1.8 4.5-1.8 2.7 0 5.3-.5 5.6-1 .3-.6 1.9-1 3.6-1 1.6 0 3.7-.4 4.7-1 .9-.5 2.9-1.4 4.3-1.9 1.8-.6 2.8-1.9 3.2-3.9.4-1.9 1.4-3.3 2.7-3.7 1.1-.4 2.8-1.8 3.7-3.1 1.5-2.3 1.7-2.3 3.8-1 2 1.3 2.5 1.3 3.5.1.6-.7 2.1-1.5 3.3-1.7 1.2-.2 2.1-.9 1.9-1.6-.1-.6.5-1.2 1.3-1.2s2.1-1.3 3-2.9c.8-1.6 1.9-3.1 2.4-3.3 1.2-.4 1.6-6.6.7-8.9-.5-1.2.1-1.9 2.3-2.7 3.6-1.3 9-7 9.1-9.5 0-1.1 1.2-2.3 3-3 2.4-.9 2.8-1.5 2.4-3.4-.4-1.4-.2-2.3.6-2.3.6 0 .9-.8.6-1.8-.3-.9.1-3 .9-4.6.8-1.5 1.5-3.5 1.5-4.2 0-.8.7-1.7 1.5-2 .8-.3 1.7-1.6 2.1-2.7.3-1.2 1.3-2.9 2-3.8 1.1-1.2 1.1-1.9.1-3.1-1.1-1.4-1.4-1.4-3.8.1zM144.287 148.85c-1.5 3.7-3.6 6.2-3.6 4.1 0-1.3-5.5-2.4-8.1-1.6-2.2.7-2.2 1.1-.3 10.2.5 2.5.2 3.3-1.5 4.2-1.1.6-1.9 1.7-1.7 2.4.1.6.1.9-.1.5s-1-.5-1.7-.2c-.8.3-1.2-.7-1.3-3.1-.1-3 .1-3.4 1.3-2.4 1.7 1.4 1.7.9.4-2.5-.6-1.6-.6-2.7 0-3.1.6-.4 1-1.3 1-2.2 0-1.1-.6-1.4-2.5-.9-1.4.4-3.1.3-3.8-.1-.7-.4-2.8-.8-4.7-.8-1.9 0-3.5-.5-3.5-1 0-.6-.8-2.1-1.8-3.5-1.6-2.2-1.8-2.3-1.7-.5.4 3.8 0 4.7-1.6 4.1-.9-.4-2.2-.2-2.8.2-1.7 1.4-5.5 2.1-6.1 1.2-.3-.5-2.5-2-5-3.3-3.3-1.9-4.5-2.2-4.5-1.2 0 .8.5 1.7 1 2 1.4.9 1.2 2.5-.3 2.5-.7 0-1.8.9-2.5 2-.9 1.5-1.7 1.8-3.4 1.1-2.3-.8-9.5.9-9 2.2.1.4.2 1.1.2 1.7 0 .5.9 1.4 2 2 1.6.9 1.9.8 1.3-.6-.5-1.4 0-1.5 3.8-.9 2.4.4 5.8 1.6 7.6 2.6 3 1.9 3.2 1.9 4.2.2s1.2-1.7 2.1-.1c1.5 2.4 6.6 4.8 7.8 3.6 1.5-1.5 8.5.8 11.2 3.7 1.4 1.5 3.2 2.4 4.1 2.2 1.1-.3 1.9.3 2.3 1.7.9 3.2.8 3.4-1.6 3.8-1.5.2-2.4 1.1-2.6 2.6-.2 1.6-.8 2.2-1.8 1.8-1.2-.5-1.2-.2-.3 1.6.7 1.2 1.2 2.9 1.3 3.8.2 2.3 2.9 5.7 5 6.1 1.1.2 2.7 1.7 3.6 3.4 1.2 2.2 2.3 2.9 3.9 2.7 1.2-.2 2.9.2 3.7.9 1.2 1 1.3.9.8-.4-.4-1.2-.1-1.4 1.5-1 1.2.3 2.1.1 2.1-.6 0-.5.6-.8 1.4-.5.7.3 1.6-.2 2-1.2.5-1.3.9-1.4 2.1-.4 1 .8 1.5.9 1.5.2 0-.6-1.3-2.1-2.9-3.3-1.6-1.2-3.2-3.5-3.5-5.1-.3-1.6-1.5-4.2-2.6-5.8-1.1-1.5-1.8-3.5-1.5-4.3.4-.8-.4-2.1-1.9-3.1-3.5-2.3-3.3-4 .3-3.3 2.5.5 3.1.2 3.7-1.6.7-2.1.7-2.1 1.7.6.7 2.1 1.4 2.7 2.6 2.2 3-1.2 3.4-1 4.2 1.5.4 1.6.7 1.9.8.7.1-1.1.9-1.7 2.6-1.7 1.4 0 2.5-.5 2.5-1 0-.6.6-1 1.4-1 2.4 0 2.7-3.1.6-6.7-2.2-3.7-2.6-6.3-1-6.3.6 0 1-1.5 1-3.3 0-1.8.7-4.2 1.5-5.3 1.8-2.4 1.8-2.9-.1-4.9-1.3-1.2-1.9-1.3-3-.4s-2.1.9-3.8.1c-2.2-1-2.5-.8-4 2.8zM39.687 149.85c0 .5-.6.9-1.2.7-.7-.1-1.7 1.3-2.3 3.1-.9 3.2-1.1 3.4-4.8 2.8-5.5-.9-10.4-3.5-8.6-4.6 2-1.3.7-1.9-1.8-.9-1.2.4-2.5 2-2.9 3.4-.6 2.5-1.8 3.2-2.8 1.7-.8-1.3-6.8-1.3-8.3 0-.7.6-2.7.8-4.4.4-3.1-.6-3.1-.5-1.7 1.7.9 1.2 2.8 2.4 4.4 2.5 1.7.2 4.5 2 6.8 4.3 2.2 2.1 4.3 3.9 4.7 3.9.4 0 1.2 2.3 1.8 5.1 2 9.4 5.1 12.8 8.4 9.5 1.3-1.3 1.7-1 3.2 2.4 1.1 2.4 2.6 4.1 4.1 4.4 1.7.5 2.6 1.6 3 3.5.5 2.5 1.1 2.9 5.3 3.5 2.5.3 6.1 1.5 8 2.7 1.9 1.1 4.2 1.8 5.3 1.6 1-.3 2.1-.1 2.4.4.3.5 2 .9 3.8.9 1.9 0 4.1.9 5.4 2.1 2.4 2.2 5.9 2.2 5.4 0-.2-.9.3-1.1 1.5-.6 1 .5 3.1.8 4.6.7 1.5-.1 2.5.3 2.2.8-.4.6-.2 1 .3 1 2.6 0 3.1-9.4.6-10.8-1.1-.6-1.3-1.1-.5-1.6.6-.4 1.1-1.8 1.1-3.2 0-1.4.4-2.2 1-1.9.6.3 1 0 1-.8s-.8-1.7-1.9-2c-1.9-.5-14.4-14.9-14.9-17.2-.2-.7.6-1.6 1.7-2 1.2-.3 2.1-1.2 2.1-2s.7-1.1 2-.8c1.1.3 2 .2 2-.2 0-1.5-5.1-5.5-6.2-4.9-2.1 1.3-8.9 1.3-9.4-.1-.4-.9-1.5-1-4.2-.4-3 .6-4 .4-5.5-1.2-1-1-2.2-1.9-2.6-1.9-.5 0-1.1-.9-1.4-1.9-.5-2.1-6.7-5.9-6.7-4.1zm27.3 21.1c.4 1.6.3 1.8-.9.8-.7-.6-1.1-1.5-.8-2 .8-1.3 1.1-1.1 1.7 1.2zm-3.3 3c0 .6-.4.7-1 .4-.5-.3-1-1.1-1-1.6 0-.6.5-.7 1-.4.6.3 1 1.1 1 1.6z"/><path d="M158.987 164.65c-3.3.3-4.2 1.5-2.3 2.7.6.4.8 1 .6 1.4-.3.4.2 1.8 1.1 3.1 1 1.3 1.7 3.6 1.7 5 .1 1.8.6 2.5 2 2.5 2.5 0 6.4 11.9 4.5 14.1-1.2 1.5-.9 1.7 1.4.8.8-.3 1.3-1.3 1-2.4-.5-2 1.2-3.6 2.2-2 .3.5 1 1 1.5 1 1.2 0 .8-4.3-.5-5.2-.6-.5-.2-.8.9-.8s1.6-.5 1.3-1.4c-.3-.8.1-1.7 1-2 .9-.4 1.3-1.4 1-2.6-.6-2.4 1.1-2.6 3.9-.6 1.4 1 2.3 1.1 3.2.4.9-.8 1.6-.8 2.4 0 .8.8 1.4.7 2.4-.3 1.7-1.7 1.8-3.5.2-3.7-.7 0-1.7-.2-2.3-.2-.5-.1-3.5-1.8-6.6-3.9-4.1-2.7-6.7-3.7-9.5-3.7-2.2 0-4.8-.6-5.9-1.3-1.1-.7-3.5-1.1-5.2-.9zM222.087 166.95c-.3.6-1.5.8-2.6.6-1.6-.5-1.9-.2-1.4 1.6.4 1.8-.3 2.7-3.6 4.6l-4 2.3 2 2.1c1.6 1.6 2.4 1.8 3.5.9.8-.7 1.7-.9 2-.5.4.3.7-.1.7-1 0-1 .6-1.7 1.4-1.7.7 0 2.6-.3 4.2-.6 3.8-.7 7.4 2.5 7.4 6.5 0 2.4-.3 2.8-2 2.4-1.1-.3-2.7 0-3.5.7-1.2 1-1.5.9-1.6-.6-.1-1.1-.1-2.2 0-2.6 0-.4-.6-.5-1.4-.2-.8.4-1.5 1.4-1.5 2.4 0 2.7-6.5 6.3-11.6 6.4-2.5.1-4.4.6-4.4 1.2s-.9 2.3-2.1 3.8c-1.6 2-2.9 2.6-6.1 2.6-2.4 0-4.9.8-6.5 1.9-1.3 1.1-3.1 1.7-3.9 1.4-1.8-.7-.9 2.1 1.8 5.6 2.2 2.9 2.2 3.5.3 5.4-1.3 1.3-1.3 1.6.1 2.7 1.2 1.1 1.3 1 .8-.4-.4-1-.1-1.6.9-1.6s1.7-1.5 2.2-4.6c.5-3.6.9-4.3 1.9-3.4.8.5 2.1.8 3 .4.9-.3 1.6-.2 1.6.4 0 .5.9 1.2 2 1.5 2.8.7 3 8.7.3 8.7-1 0-2.3 1.2-3 2.6-1 2.2-.9 2.4.5 1.9 1-.2 3.1-.1 4.8.4 2.6.7 3.4.5 4.8-1.1 1.7-1.9 1.7-1.9 4.9 0 5.7 3.3 8.1 3.4 13.6.6 4.4-2.3 5.4-2.5 8.2-1.5 2.7.9 3.6.9 4.8-.4 1.3-1.3 1.3-1.7-.3-3.4-2.2-2.4-1.3-2.9 4.6-2.9 4.2.1 4.5.3 3 1.4-1.5 1.2-1.5 1.5-.2 2.4.8.6 2.6 1.3 4 1.7 1.4.3 3.6 1.4 5 2.4 3.7 2.5 8 3.3 8 1.4 0-1.4 1.6-1.9 5.1-1.6 2.7.3 2.9-2.4.5-6-1.3-1.9-2.6-4.8-3-6.6-.4-1.7-1.9-4.3-3.3-5.7-2-2-2.2-2.6-.9-2.6.9 0 1.6-.5 1.6-1 0-.6-.5-1-1-1-.6 0-1.7-1.7-2.6-3.8-.9-2-3-4.6-4.7-5.7-1.7-1.1-3.8-3.5-4.8-5.4-1-1.8-3.2-4.2-4.8-5.2-1.7-1-4.4-3.3-6-5.1-2.7-3-3.1-3.1-5.3-1.9-2.1 1.1-3.1 1-6.1-.3-2.1-.8-3.7-2-3.7-2.5 0-1.4-2.7-1.4-3.6 0zM191.687 173.35c-.6.8-.9 1.8-.6 2.3.9 1.5 7.6 2.4 9 1.3.7-.6 1.7-.7 2.1-.3.5.4.5.2.1-.5s-1.4-.9-2.2-.6c-.9.3-2.8-.4-4.4-1.5-2.4-1.8-3-1.9-4-.7zM167.087 197.55c.5 1.5.1 2.5-1.4 3.6-1.6 1.1-1.9 2.1-1.4 4.1.5 2.2.3 2.6-1.4 2.6-2.8 0-3.7 3.3-1.7 6.3 1.4 2.1 1.4 2.6.1 3.6-.9.7-3.4 1.5-5.6 1.8-2.9.4-4 1-3.6 1.9.6 1.7.1 1.7-2.5.4-1.4-.8-2.1-.8-2.4.2-.3.8-1.7 1.5-3.1 1.6-3.7.3-4.4 1-4.4 4.2 0 1.6-.5 3.2-1.1 3.6-.8.5-.8.8 0 1.3.6.4 1.3 2.9 1.6 5.7.5 4.3.3 5.3-1.7 7.1-1.3 1.1-3.2 2.3-4.3 2.5-1.5.2-2.2 1.5-2.7 5.3-.5 2.8-.6 5.7-.4 6.6.2 1.1-.8 2-3 2.8-3.8 1.4-4.4 3-1.5 3.8 1.3.3 1.7 1.1 1.4 2.4-.6 2.3-2.1 2.5-2.9.4-.4-.8-1.1-1.5-1.8-1.5-.6 0 .1 1.1 1.5 2.3 2.1 1.9 2.4 2.7 1.6 4.5-1.2 2.6-.9 3 3.2 4.2 3.3.9 4.3-.4 1.9-2.8-.9-.9-.7-1.3.5-1.8 1.9-.7 2.2-4.5.6-7.6-1-1.9-.9-2 1.6-1.4 3.4.9 6.8-1.8 5.9-4.6-.3-1-.1-1.8.5-1.8s.8-.6.5-1.4c-.3-.8-.1-1.7.5-2.1.6-.3 1.1-1.9 1.1-3.5 0-2.6.4-3 3.8-3.6 2-.3 4.2-1.3 4.8-2 1-1.2 1.3-1.2 2.4.1 1.6 1.9 4.3 1.9 7.9 0 2.3-1.1 4.4-1.3 9.7-.6 8.1 1 10.4.5 10.4-2 0-2.2 0-2.2 3.5-.9 2 .8 2.9.6 4.5-1 1.1-1.1 2.8-2 3.7-2 1.4 0 1.4-.3-.4-2.3-1.5-1.5-2-3.2-1.7-5.5.3-2.3 0-3.2-1.1-3.2s-1.5-1.3-1.5-5.4v-5.4l-3.5.1c-2.4.1-3.7.6-4.1 1.9-.9 2.8-2.5 2.1-1.8-.8.4-1.7.2-2.9-.6-3.4-.7-.5-1.2-2.6-1.2-5.1.1-5.8-.6-7.9-2.5-7.9-.8 0-3.1-1.7-5-3.8-2.7-2.8-3.4-3.2-2.9-1.5zM350.987 203.55c-.7.2-1.3 1-1.3 1.7s-1.1 1.8-2.4 2.4c-1.3.6-2.7 2-3.1 3.2-.3 1.1-1 1.8-1.4 1.5-.4-.2-1.7.5-2.9 1.5-1.2 1.1-2.7 2-3.4 2.1-.7 0 0 .7 1.7 1.4 2.1.9 3.6 1 4.8.3 1.1-.5 3.3-1.1 5-1.3 12.8-1.6 12.5-1.5 13.7-5.1 1.1-3.3.6-5.9-.9-4.9-.5.2-1.6-.4-2.6-1.5-1.7-1.9-4.6-2.4-7.2-1.3zM321.687 204.65c0 .7.5 1.2 1 1.2 2.3 0 .8 2.1-2 2.6-1.6.4-3.2 1.4-3.5 2.4-.3 1.1-2 2.1-4.2 2.5-2 .4-4.6 1.3-5.7 2.1-1.1.8-2.8 1.4-3.8 1.4-1.1 0-1.8.7-1.8 1.9 0 2.2-3.5 5.1-6.2 5.1-2.6 0-2.2 1.3 1.1 3.1 1.8 1.1 3.4 1.3 4.2.8.8-.5 2.8-.9 4.6-.9 1.7 0 3.5-.5 3.8-1 .3-.6 1.7-1 3.1-1 1.8 0 2.4-.5 2.4-2 0-1.3.6-2 1.4-1.8.8.2 2.1-.5 2.9-1.5 1.3-1.8 1.4-1.8 4.3.6 2.4 2 3.3 2.3 4.5 1.4.9-.7 1.6-1.7 1.7-2.2 0-.6 1.1-1.2 2.3-1.5 2-.5 2-.7.5-1.9-.9-.7-1.6-2.2-1.6-3.2 0-1.1-.4-1.9-1-1.9-.5 0-2.5-1.6-4.5-3.7-1.9-2-3.5-3.1-3.5-2.5zM189.687 217.75c0 1.2 5.8 7.6 6.4 7 .3-.3.2-1.8-.2-3.4-.6-2-1.7-3.1-3.5-3.6-1.5-.4-2.7-.4-2.7 0zM278.687 221.95c0 .5.5.7 1 .4.6-.3 1-.8 1-1.1 0-.2-.4-.4-1-.4-.5 0-1 .5-1 1.1zM287.287 226.45c-.9.8-1.6 2.5-1.6 3.7.1 2.1.2 2.1 2.5-.6 3.7-4.1 2.8-6.9-.9-3.1zM282.087 235.25c-1.9.7-2.9 1.6-2.6 2.5.3.9 0 1.1-.7.7-.7-.4-1.7-.3-2.4.2s-3.6 1.2-6.6 1.5c-3 .4-5.9 1.1-6.4 1.6-1.3 1.3.4 4 3.4 5.4 2.8 1.5 3.1 5.1.5 7-1.3 1-1.8 2.6-1.8 5.8.1 5.2-3.7 11.9-6.7 11.9-.6 0-1.1.4-1.1.8 0 1.7-5.1 3.3-6.5 2.2-1-.9-1.5-.2-2 2.9l-.6 3.9-3.5-1c-3.7-1-5.4-.5-5.4 1.8 0 .8-.6 1.4-1.4 1.4-.8 0-1.7 1.2-2 2.6-.5 2-1.2 2.5-2.6 2.1-1.3-.3-2 0-2 .9 0 .8-.4 1.4-1 1.4-.5 0-1 .9-1 2.1 0 1.1-.4 1.8-.9 1.5-.5-.3-1.1.1-1.5.9-.6 1.7-6.7 2.1-6.3.4.1-.7-1.8-1.2-5.3-1.2-3-.1-5.8-.5-6.1-1-.4-.6-1.3-.6-2-.1-.8.5-2.2.7-3.1.6-1.1-.2-1.8.3-1.8 1.2 0 .9-1.4 2.8-3 4.3-2.1 1.8-2.7 3-2 3.7.5.5 1 1.7 1 2.5s.8 2.3 1.7 3.3c1.5 1.6 1.5 2.1.3 2.8-.8.5-1.8.6-2.3.3-.4-.3.3 1.8 1.7 4.6 2.8 5.5 3.1 6.5 1.6 5.6-.5-.3-1 .3-1 1.4 0 1.1-.4 2.2-.9 2.5-1.4.9-1.9 6.9-.8 9.4.7 1.5.7 2.6.1 3-.6.4-1 1.8-.9 3.2 0 1.7.7 2.6 2.5 3 1.5.4 2.4 1.2 2.2 2.2-.1.8.7 2.3 1.8 3.3 1.5 1.3 1.7 2.1.9 3.1-1.4 1.7.6 8.1 3.2 10.7 1.1 1 1.9 2.3 1.9 2.9 0 .6.7 2 1.7 3 1.2 1.4 1.3 1.8.3 1.8-1.1 0-1.1.3-.2 1.2.7.7 1.2 2 1.2 3 0 1.1.9 3.1 2 4.6 2.7 3.6 6.3 18.4 4.7 19.4-.8.5-.5 1.3.8 2.8 1.6 1.8 2 4.4 1.4 9-.7 4.9.2 8.1 2.5 9 1.3.5 2.6 1.5 2.9 2.2.3.7.6.3.6-1 .1-2.5 1.1-2.8 3-1 1.2 1.1 1.3.9.7-.7-.5-1.4-.4-1.7.4-.9.6.6 1.2 1.9 1.4 3 .2 1.2 1.4 3.6 2.5 5.5 2.4 4 2.7 5.9.7 5.9-1.4 0-2.6 2.9-2.6 6.6 0 4.2 7 7.4 8.4 3.9.5-1.3 1.2-1.2 4.7.7 2.3 1.3 5 2.7 6 3.3 1.1.5 1.9 1.5 1.9 2.2 0 .6.6 1.3 1.3 1.6.6.2-1 .4-3.8.4-2.7 0-5.5-.4-6.1-.9-.8-.5-1.4-.3-1.8.7-.4 1.1-1.3 1.4-2.6 1-1.6-.5-2-.2-2 1.9 0 3-.2 3.1-4.2 1-3.2-1.7-3-1.8-6.9 3.8-.3.5-2.9.9-5.7 1-5.1 0-5.1 0-4.5 2.9.7 3.6-1.6 4-4.1.6-1-1.2-.8-.4.4 1.8 1.2 2.2 4 5.5 6.1 7.3 2.2 1.9 3.9 4.2 3.9 5.2 0 .9.7 2.3 1.5 3 .8.7 1.5.9 1.5.5 0-.3 1.6.3 3.5 1.5 2 1.2 4.5 2 5.6 1.7 1.3-.4 2.3.2 3.2 1.9.7 1.3 2.8 3.2 4.7 4.3 2 1 4.4 3.6 5.7 6.1 2.5 4.6 7.6 9 10.6 9 1.1 0 1.7.5 1.4 1.2-.2.7.5 2.6 1.8 4.3 1.2 1.6 3 5.2 4 7.9 2.3 5.9 8.5 14.1 11.4 14.9 1.2.3 2.1 0 2.2-.6 0-.7.7.3 1.6 2.2 1 2.3 1.7 3.1 2.2 2.2.9-1.4 2.7.2 3.3 2.9.8 3.5 3.6 7.5 5.5 7.8 1.4.2 2.4 1.6 3.3 4.5.6 2.3 1.8 5.4 2.6 6.9.8 1.4 1.4 3.3 1.4 4.2 0 .9.4 1.6.9 1.6 1.6 0 1.8 7.9.2 8.5-1 .4-.5 1.3 1.9 3.5 2.1 1.9 3.6 2.6 4 1.9.4-.6 2.1.6 4.2 3.1 3.1 3.8 4 4.2 8.6 4.6 4.2.3 5.1.1 5.5-1.3.3-1.6.5-1.6 1.3.3 1.6 3.7 6.2 8.4 8.3 8.4 1.7 0 2.2 1.1 3.2 7.4l1.3 7.4 4 .4c2.3.3 4.3.1 4.4-.4.2-.4 1.2-.8 2.3-.8 2.2 0 2.4-1.1.7-2.8-.8-.8-.8-1.2-.1-1.2.6 0 1.6.7 2.4 1.6.8 1 2.5 1.4 4.9 1.3 1.9-.2 4.1.1 4.8.5.8.5 2 .1 3.1-.8 1.3-1.2 2-1.3 2.9-.4.9.9 1.2.9 1.2.1 0-.7.9-1.5 2.1-1.8 1.9-.6 2-.8.3-2.6-.9-1-2.5-1.9-3.6-1.9-2 0-2.5-1.9-.5-2.1.6-.1 2.2-.3 3.5-.4 1.3-.1 2.2.3 2.2 1.1s.7 1.4 1.5 1.4c.9 0 1.2-.6.9-1.5-.4-.8-.1-1.5.5-1.5s1.1.6 1.1 1.3c0 .7 1.9 1.9 4.3 2.7 3.1 1.1 4.3 2.1 4.5 3.8.3 1.8-.1 2.3-1.5 2-1.4-.2-1.7.2-1.5 2.2.2 1.4.9 2.9 1.4 3.5.8.7.9.5.5-.8-.4-.9-.2-1.7.3-1.7.4 0 1.1-1.3 1.5-2.9.3-1.6 1.3-3.5 2.1-4.2 1-.8 1.3-2.3.9-4.9-.5-3.4-.3-3.8 1.9-4.4 2.9-.7 6.4-4.1 7.7-7.4.5-1.2 1.6-2.2 2.4-2.2.9 0 2.3-1.6 3.1-3.6 1.4-3.4 1.6-3.5 3.3-2 2.3 2.1 5.2 2.1 4.5.1-.4-1 0-1.5 1.5-1.5 2.6 0 2.7-1.1.1-2.8-1.8-1.1-2-1-2 .8 0 2.5-2.8 2.7-4.6.3-.9-1.4-1-2.1-.1-3.2s.9-1.3 0-.8c-.7.5-.6-.4.3-2.3.9-1.6 2.2-3 3-3 1.1 0 1-.4-.3-2-2.1-2.5-4.2-2.6-5-.3-.3 1-1.2 2.5-1.8 3.3-.7.8-1.3 2.2-1.4 3-.4 5.9-1.9 9-4.1 9-1.1 0-2.2.4-2.5 1-1 1.6-5.5 1.2-4.9-.4.3-.8.1-1.6-.4-2-1.2-.7-.8 3.4.5 4.2 1.9 1.3 3.4 5.3 2.7 7.5-1.3 4.1-5.9 5.4-4.8 1.3 1.1-4.5-4.5-11.6-8.1-10.3-1.7.7-5.5-2-5.5-3.9 0-.8-.9-2.4-2-3.6-1.1-1.2-2-2.8-2-3.5 0-.8-.7-2.5-1.6-3.8-1.9-2.8-.8-3.4 1.2-.8 1.2 1.5 1.3 1.6.8.2-.3-1-.1-2 .5-2.4.7-.4.5-1.4-.5-3.1-.9-1.3-1.2-2.4-.8-2.4.5 0-.4-1.1-2.1-2.5-2.9-2.4-3-2.4-.6-2.5 2.1 0 2.2-.2 1-1.8-1.3-1.6-1.2-1.6.6-.1 3.5 2.8 5.3 3 5.7.6.2-1.8 1.1-2.3 4.1-2.5 3.1-.3 4.2-1 6.2-4.2 1.4-2.2 2.5-4.3 2.5-4.8 0-.8 4-1.1 4-.2 0 .3.7 1.4 1.5 2.4 1.2 1.5 1.7 1.7 2.9.7 1.1-1 1.9-.9 3.5.1 1.2.7 2.1 1.6 2.1 2 0 .5.7.8 1.5.8s1.5.5 1.5 1.2c0 .6.2.9.4.7.7-.7-1.4-9-3.2-12.9-1-1.9-2.8-4.5-4.2-5.8l-2.5-2.3 4.9.6 4.9.7-.6-3c-.5-2.6-.3-3 1.9-3 3.4 0 5.1-1.7 3.6-3.5-.9-1-.6-1.7.9-3.1 2-1.7 2.2-1.7 3.8.1.9 1 1.8 2.2 1.8 2.8.1.5.6 1.1 1.2 1.3 1.7.6 1.3-2.9-.4-4.2-1.3-1-1.3-1.4-.1-3.8.9-1.6 1.1-3 .5-3.3-.5-.4-.9-1.1-.9-1.7 0-.6.9-.3 2 .7s2 2.9 2 4.1c0 2.1.3 2.3 2.7 1.3 2.9-1.1 5.3-.6 5.3 1.1 0 .6-.4.9-.9.5-1.6-.9-2.2 1.2-.6 2.5.7.6 1.1 1.9.8 2.7-.5 1.3-.2 1.5 1.8.9 4.4-1.3 5.4-1.2 5.1.8-.2 1 .1 1.5.7 1.2.5-.4 1.3-.2 1.6.4.4.6 2.5.8 5.4.4 3.6-.5 5-.2 6 1 1.1 1.3 1.7 1.1 4.9-2 1.9-1.9 4.7-3.7 6.1-4 1.4-.4 3.1-1.2 3.6-1.8 1.5-1.9 7.3-3.6 12.1-3.6 3.8 0 4.4-.3 5-2.4.3-1.3.3-4.7 0-7.6-.5-4.8-.4-5.1 1.4-4.5 1.1.4 2 .2 2-.4 0-.6.7-.8 1.5-.5 1.7.7 4-1.5 3.9-3.6-.1-.8-.5-3.4-.9-5.7-.7-4-.9-4.1-3.3-3.2-1.7.7-2.9.6-3.6-.1-1.4-1.4-2.9-1.3-2 .2.5.9.2.9-.9-.1-1.1-.9-1.7-1-1.7-.2 0 .6-.7 1.1-1.5 1.1-3 0-1.4-2.5 3-4.9 4.4-2.3 4.4-2.4 3-5.2-.8-1.5-1.5-3.5-1.5-4.4 0-1-.9-3-2.1-4.7-1.9-2.6-1.9-3.1-.6-4.1 1.1-.9 1.3-1.8.6-3.6-.9-2.3-1.1-2.3-2.6-.9-1.5 1.5-1.8 1.5-4.1 0-1.9-1.2-2.7-1.3-3-.4-.2.6-1.2 1.2-2.3 1.2-1 0-1.9.7-1.9 1.5s-.9 1.5-2 1.5c-2.2 0-6-3.3-6-5.3 0-.7-.8-1.4-1.7-1.5-1-.1-3.4-.4-5.3-.7-1.9-.3-4.2-.6-5-.7-2.8-.2-3.9-1.9-3.7-6.4.2-4.3.1-4.5-3.3-5.4-1.9-.6-4.3-1-5.2-1-1 0-2.4-1.4-3.3-3-.9-1.7-2-3-2.6-3-.6 0-.7.4-.4 1 .3.5-.1 2-.9 3.2-1.8 2.5-2.1 4.2-.7 3.4 1.5-.9 3.9.4 4.4 2.4.2 1-.4 2.5-1.5 3.4-1 .9-2.1 3-2.5 4.7-.3 1.8-1.1 2.8-1.8 2.5-.7-.2-1.2.2-1.1 1.1 0 .8-1.1 2.4-2.5 3.5-2.4 1.8-2.9 1.9-5 .5-3.3-2.1-7.3-3.2-6.5-1.8.4.6.2 2.1-.5 3.3-.9 1.6-.9 2.3 0 2.6 1.4.5 1.5 3.2.1 3.2-.6 0-.9.3-.9.7.4 2.3-.4 2.4-2.6.3-3.2-3-8.9-3.7-8.2-1 .4 1.6.2 1.6-2.2.4-3.2-1.7-5.7-1.8-6.7-.2-1.2 1.9-2.3-2.4-1.2-4.5.7-1.3.4-2.7-1.1-5-1.1-1.8-2.4-3.1-2.8-3-.4.2-.8-.5-.8-1.5s.9-1.8 2.3-2c1.2-.2 2.2-1 2.2-1.9 0-.8.9-1.7 1.9-2 2.1-.5 3.5-4 1.9-4.9-.5-.3-.7-1.2-.4-2 .4-1.1 0-1.3-1.7-.9-1.2.3-3.3.6-4.7.7-1.4 0-3.7.5-5.2 1-2.4.9-3.2.6-5.7-1.8-1.7-1.6-2.6-3.1-2.1-3.4 1-.6-2.2-8.3-4.5-10.6-.8-.9-1.5-2.1-1.5-2.8 0-.6-1.3-1.7-3-2.3-2-.8-3-1.8-3-3.2 0-1.3-.6-2.1-1.6-2.1s-1.4-.6-1.1-1.4c.3-.7.1-1.8-.4-2.3-.7-.7-.6-1.8.1-3.4 1.7-3.7-1-9.1-6.5-12.9-2.5-1.7-4.5-3.3-4.5-3.5 0-.2.7-1.1 1.6-2 1.5-1.4 1.5-2.1.4-5.5-.8-2.5-1.7-3.7-2.6-3.3-.8.3-2.2-.9-3.4-2.9-2.1-3.5-2.7-6.3-1-5.3 1.8 1.1 7 1.4 7 .4 0-.6.5-.7 1.1-.3 1.7 1 5.9-1.7 5.9-3.8 0-1.1.7-1.8 1.9-1.8 1.1 0 2.3-.9 2.6-2 .8-2.5 3-2.5 7.6-.1 2 1.1 4.6 1.7 5.7 1.4 1.4-.3 2.5.2 3.4 1.6.7 1.2 1.8 2.1 2.4 2.1.7 0 1.4.7 1.8 1.5.7 1.9 6.6 1.7 7.3-.2.3-.7 1.3-1.3 2.3-1.3 2.2 0 4.4 2.5 3.5 4-.4.6-.2 1.7.5 2.4.8 1.1.5 1.8-1.3 3.3-2.4 1.9-2.7 3.8-1.2 8.3 1.2 3.5 1.2 6.4 0 7.2-.6.5.8 2.3 3.3 4.6 2.3 2 4.2 4.3 4.2 4.9 0 2.3 3.2 3.2 5.7 1.6 2.3-1.5 2.3-1.5 2.3 2.1 0 2.9.4 3.6 2 3.6 1.2 0 2.4.9 2.9 2.2 1.6 4.2 8.3 8.9 9.6 6.7.4-.6 2-.2 3.9 1.1 4.4 2.6 4.6 2.6 3.5-1.2-.5-1.7-.8-3.2-.6-3.3.1-.1 1.3-.8 2.5-1.4 1.8-1 2.2-1.8 1.8-3.7-.5-1.7-.2-2.4.8-2.4.8 0 1.3-.9 1.2-2.3-.1-1.6-.8-2.2-2.6-2.4-1.4 0-2.8.3-3.1.9-.4.7-1.8.5-4-.5-1.9-.9-4.4-1.8-5.7-2.2-1.8-.5-2.1-1-1.2-2 .7-.8.9-2.4.5-3.6-.5-1.4-.2-2.5.6-3 1.2-.8 1.1-1.1-.1-1.9-1.3-.9-1.3-1.2.1-2.3.9-.6 1.4-1.8 1.2-2.5-.3-.7.4-1.2 1.6-1.2 1.2 0 2.1-.5 2.1-1 0-.6-.4-1-.9-1-.4 0-1.6-2-2.5-4.5-1-2.5-2.4-4.5-3.2-4.5-.8 0-1.4-.4-1.4-.8 0-.5-1.2-1.2-2.6-1.8-2.1-.7-2.8-1.7-3-4.3-.3-2.3-1.7-4.8-4.7-7.8-2.3-2.4-4.1-5-3.9-5.7.1-.7-.9-1.8-2.4-2.4-1.4-.7-2.2-1.7-1.9-2.2.3-.6-.5-1.4-1.8-1.9s-2.8-2-3.2-3.3l-.8-2.3-.4 2.2c-.2 1.3-.8 2.3-1.3 2.3-1.6 0-4.1-3.2-3.6-4.6.3-.8-.4-1.9-1.5-2.5-1.7-.9-1.8-1.3-.7-2.6.7-.9 1.3-1.9 1.3-2.2 0-.3.7-.5 1.5-.4 1.4.1 5-3.3 5-4.9 0-.4 1.1-.8 2.3-.8 1.3 0 3.1-.8 4-1.8 1.5-1.7 1.7-2.1 1.7-4.2 0-.6.5-1 1.2-1 .6 0 1.9-.8 2.7-1.7 1.5-1.6 1.5-2-.3-5.7-1.1-2.1-2-5.4-2-7.3-.1-3.4-1-4.3-1.9-1.9-.6 1.6-8.9 3.8-11.2 3-.9-.4-2.1-1.8-2.6-3.3-.9-2.1-1.2-2.3-1.9-1.1-.5.9-2.5 1.7-4.5 1.8-3.3.3-3.5.1-2.3-1.8.7-1.1 1.6-2 2.1-2 1.1 0-.3-5.2-1.8-6.9-1.1-1.1-1.4-1-1.9.7-.4 1.2-1.5 2.4-2.6 2.7-1 .3-2.3 1.9-2.9 3.5-.5 1.7-1.5 3-2.2 3-.6 0-.9.6-.6 1.4 1 2.5-1.6 4.6-5.8 4.8-2.2 0-4.6.5-5.2 1.1-.9.6-1.8.6-2.7-.2-1-.9-1.6-.8-2.6.4-.8 1-3 1.5-6.1 1.5-3.7 0-4.9.4-4.9 1.5 0 1-1.1 1.5-3.5 1.5-2.5 0-3.5-.4-3.5-1.6 0-1-.6-1.3-1.9-.9-1 .3-2.4-.1-3.1-1-3.2-3.9-3.4 1.3-.2 6.2.8 1.4 1.2 3.3.8 4.8-.9 3.5 1 6.8 3.5 6 3.1-1 5.4.3 8.6 4.8 3 4.2 5.1 11.7 3.2 11.7-.6 0-.6.7.1 2 .6 1 1.6 1.7 2.3 1.5 1.3-.6 3.6 2.5 4.2 5.6.4 2.1-.5 2.5-2.2.8-.8-.8-1.3-.5-1.8 1-.9 2.8-3.1 2.6-6.7-.5-1.7-1.4-4.4-2.8-5.9-3.1-2.2-.4-2.9-1.1-2.9-2.8 0-1.2-.8-2.9-1.7-3.6-1.6-1.3-1.7-1.2-.4.3 1.2 1.6 1.1 1.8-1.1 1.8-1.3 0-2.9-.5-3.4-1-1.3-1.3-4.6-.2-4.1 1.4.2.6 1.2 1.1 2.3 1.1 1.5 0 2 .8 2.2 4.3.3 4.2.3 4.3-2.5 3.6-4.1-1-10.3-4.6-10.3-6 0-.7.8-1.8 1.8-2.3.9-.6 1.4-1.1 1-1.1-.4 0 .6-2.7 2.2-6.1 2.9-6.2 3.2-10.8.4-7.2-1.3 1.7-1.3 1.7-1.4 0 0-1-.7-2-1.6-2.4-1-.4-1.4-1.6-1.2-3.9.1-2.1-.4-4-1.6-5.2-1.2-1.4-1.9-4.3-2.3-9.8l-.6-7.7 2.6.7c2.4.6 2.7.4 2.7-2 0-2.5-.2-2.6-3.2-2-1.8.4-3.4 1.1-3.6 1.6-.6 1.8-3.1 1-4.8-1.5-.9-1.4-2.5-2.5-3.6-2.5-2.2 0-10.8-6.6-10.8-8.4 0-.6.7-2.4 1.5-4 2.2-4.1 1.9-5.5-1.5-7-3.1-1.2-3.1-2.6 0-2.6 1.6 0 4.4-6.9 5.3-13.4.5-3.1-2.8-9-4.5-8-.4.3-1.3-.8-1.9-2.3-.6-1.5-1.7-4.1-2.5-5.7-.9-1.7-1.1-3.3-.6-4 1.4-1.6 2.4-11 1.5-13.3-.7-1.8-1.2-1.9-3.9-.9zm-21.4 43.6c0 .5-.2 1-.4 1-.3 0-.8-.5-1.1-1-.3-.6-.1-1 .4-1 .6 0 1.1.4 1.1 1zm-12 6c0 .5-.4 1-1 1-.5 0-1-.5-1-1 0-.6.5-1 1-1 .6 0 1 .4 1 1zm101 82c0 .5-.6 1-1.4 1-.8 0-1.8-.5-2.1-1-.3-.6.3-1 1.4-1 1.2 0 2.1.4 2.1 1zm-123 50c0 .5-.5 1-1.1 1-.5 0-.7-.5-.4-1 .3-.6.8-1 1.1-1 .2 0 .4.4.4 1zm20.5 39.1c.3.5-.1.6-.9.3-1.1-.4-1.6 0-1.6 1 0 .9-.4 1.6-1 1.6-.5 0-1-.8-1-1.8 0-1.9 3.5-2.8 4.5-1.1zm195.4 3.7c.6 1.2.5 2.3-.5 3.6-1.3 1.8-1.4 1.8-2.4-.8-.5-1.5-1-3.2-1-3.7 0-1.6 2.9-1 3.9.9zm-1.6 10.4c-.6.7-.9 2.1-.8 3 .3 1.5 0 1.6-1.6.8-2.3-1.3-2.5-3-.4-3 .9 0 1.8-.7 2.2-1.5.3-.9.8-1.4 1.1-1.1.3.3 0 1.1-.5 1.8zm2.7 36.3c0 1.4-.4 2.5-1 2.5-.5 0-1-1.1-1-2.5s.5-2.5 1-2.5c.6 0 1 1.1 1 2.5zm-7.2 2.7c-.6 1.8-4.8 2.2-6.2.7-.8-.9-.6-1 1.1-.6 1.3.3 2.6.1 2.9-.4.8-1.4 2.6-1.1 2.2.3zm6.2 10.8c0 .5-.4 1-1 1-.5 0-1-.5-1-1 0-.6.5-1 1-1 .6 0 1 .4 1 1zm-52 80c0 .5-.7.7-1.5.4-.8-.4-1.5-.8-1.5-1 0-.2.7-.4 1.5-.4s1.5.4 1.5 1z"/><path d="M222.387 425.55c-2.3.6-1.7 2.4 1.1 3.4 1.7.6 2 .5 1.5-.8-.3-.8 0-1.9.8-2.4 1.2-.7 1.2-.9-.1-.8-.8.1-2.3.3-3.3.6zM438.487 429.55c.6.2 1.8.2 2.5 0 .6-.3.1-.5-1.3-.5-1.4 0-1.9.2-1.2.5zM431.687 434.65c0 .5.7 1.6 1.6 2.3 1.4 1.2 1.6 1.1 1.3-.5-.4-2-2.9-3.5-2.9-1.8zM416.687 522.65c0 1.4.6 2.2 1.6 2.2 1.4 0 1.5-.3.3-1.8-.7-.9-1.5-1.9-1.6-2.1-.2-.2-.3.5-.3 1.7zM442.687 532.35c-.7.8-1.9 1.5-2.6 1.5-.8 0-1.4.4-1.4 1 0 .5-1.3 1-3 1-2.1 0-3 .5-3 1.6 0 1.2-.9 1.5-3.7 1.3-2.1-.1-4.7-.7-5.7-1.2-1.5-.7-1.8-.6-1.3.6.9 2.4-1.5 2.7-4 .5-1.6-1.5-2.9-1.9-4.9-1.4l-2.8.7 2.6 2.2c2.6 2.2 5.2 7.5 4.6 9.5-.2.6.6 1.7 1.7 2.5 1.7 1.3 2.4 1.3 5.8-.4 2.1-1.1 4-2.6 4.4-3.4.3-1 1.3-1.3 3.1-.8 1.8.4 2.9.1 3.9-1.3 1.4-2 1.3-2.1 4.1 2.2.9 1.4 9.7.4 9.8-1.1 0-.6.4-1.8.8-2.8.5-1 .3-2.3-.4-3.2-.9-1.1-1-1.5-.1-1.5 1.7 0 4.3-2.8 3.7-3.9-.4-.5-.1-1.1.5-1.3.7-.2.5-1.1-.7-2.3-1.7-1.7-1.9-1.7-2.2-.2-.4 1.9-3.5 1.8-5.4-.1-1.6-1.6-2.3-1.5-3.8.3zM450.987 552.05c-.5 1.3-1 4.2-1.2 6.6-.2 4.1-.1 4.3 1.9 3.2 2-1.1 2.8-5.4 1.1-6.4-.4-.3-.6-1.7-.3-3.1.5-3.1-.2-3.2-1.5-.3zM416.687 555.35c0 .8-1 2.1-2.1 2.9-1.4.9-1.9 2.1-1.5 3.1.7 1.8 2.6 1.1 2.6-1 0-.7.9-1.7 2-2 2.4-.7 2.6-3 .5-3.9-.9-.3-1.5 0-1.5.9zM433.587 586.65c-.8 1-2 3-2.8 4.5-1.1 2.1-2.2 2.7-4.7 2.7-1.8 0-3.6.5-3.9 1-.4.6-1.1.8-1.6.5-.5-.4-.9.3-.9 1.4 0 1.2-.7 2.1-1.5 2.1s-1.5.4-1.5 1c0 .5-.9 1-1.9 1-2.6 0-3.5 2.9-1.5 5.1 1.3 1.5 2.8 1.7 7.8 1.4 3.3-.2 6.5-.5 6.9-.5.5 0 .6-1.3.2-2.8-.7-3.4 1.4-5.7 4.4-4.7 1.1.3 3.4 1.9 5.2 3.6 1.7 1.6 3.5 2.9 3.9 2.9 1.1 0 2.1 3 1.4 4.1-.3.5.6.8 2 .7 1.5-.1 2.7-1 3-2.2.5-2.1.5-2.1 2-.1 1.4 1.9 1.5 1.7 1.6-2.5 0-5.4-1.2-7.5-3.5-6.6-2.7 1-9.5-1.4-9.5-3.4 0-1-1-2-2.2-2.4-2.2-.5-2.2-.6-.4-1.9 1.3-.9 1.5-1.6.8-2.1-.6-.4-.9-1.3-.6-2 .8-2.2-1.1-2.7-2.7-.8zM415.687 588.85c0 3.3 1.5 4.7 3.4 3 1.8-1.4.9-4.7-1.5-5.3-1.5-.4-1.9 0-1.9 2.3zM409.987 590.55c-.7.2-1.3 1.1-1.3 1.8 0 1.7-4.4 4.5-7.1 4.5-4.2 0-5.8 2.7-5.2 8.1.4 3.3.2 4.9-.6 4.9-.6 0-1.1.7-1.1 1.6 0 .9-1 3-2.2 4.7-1.9 2.6-2 3-.4 2.4 1-.4 2.4-.7 3.2-.7 1.1 0 1.3-.6.9-2.1-.5-1.3-.3-1.9.3-1.5.5.3 1.2-.1 1.6-.9.3-.8 1.4-1.5 2.4-1.5 3 0 7.2-4.5 7.2-7.7 0-7 1.2-10.1 4.1-11.3 1.6-.7 2.6-1.6 2.3-2.1-.6-1-2.1-1-4.1-.2zM355.687 610.85c0 .5.5 1 1 1 .6 0 1-.5 1-1 0-.6-.4-1-1-1-.5 0-1 .4-1 1zM390.187 626.15c-.4 1-.5 2.1-.1 2.4 1 1 1.8-.4 1.3-2.4-.4-1.7-.4-1.7-1.2 0zM385.987 638.55c.3 1.3-.1 2.4-.9 2.7-.7.3-1.6 1.6-2 3-.7 2.8-3.8 4-6.6 2.5-2.9-1.5-3.4-.2-1.4 3.1.9 1.7 1.4 3 1 3-.3 0-.2.6.4 1.3 1.5 1.8 1 4-2.9 12.1-1.3 2.7-1.5 4.4-.9 5.7.6 1.1.6 1.9 0 2.1-1.7.6.7 3.1 3.1 3.2 1.7.1 2.9 1.4 4.8 5.1 2.8 5.4 5.4 6.7 7.6 3.8.9-1.1 1.4-1.3 1.5-.5 0 .7.5 1 1 .7.6-.3.8-1.9.5-3.4-.3-2.1.1-3.3 2-4.9 1.4-1.2 2.5-3.1 2.5-4.3 0-1.4.5-1.9 1.4-1.6 1.5.6 1.2-1.2-1.7-8.7-.9-2.4-.8-3.1.6-4.1 1.6-1.1 1.6-1.4.1-2.6-1.1-.9-2-1-3.2-.2-1.3.8-2.1.5-3.4-1.3-1.9-2.4-2.4-7.4-.8-7.4 1.6 0 1.1-4.3-1.1-8-1.3-2.3-1.9-2.8-1.6-1.3zm3.6 43.2c.8.5.9 1.1.3 1.5-.5.3-1.5-.1-2.2-.9-1.4-1.6-.3-2 1.9-.6zM363.687 672.45c0 .8.5 1.2 1 .9.6-.4.8-1.1.5-1.6-.9-1.4-1.5-1.1-1.5.7zM619.687 674.05c0 1-.3 1.7-.7 1.6-.5 0-2.4.6-4.4 1.5-2.9 1.3-3.8 2.3-4.3 5.2-1 5.1.1 6 3.6 3 1.6-1.4 4-2.5 5.3-2.5 1.7 0 2.3-.4 1.9-1.4-.3-.9.1-1.3 1.3-1.3 1.6.2 1.9-.5 1.4-4.5 0-.6-.4-.8-.8-.5-.3.4-1.2-.1-1.9-1.1-1.3-1.6-1.3-1.6-1.4 0zM369.687 676.95c0 3.6 1.4 5.9 3.6 5.9 1 0 .9-.9-.2-3.8-2.3-5.5-3.4-6.2-3.4-2.1zM617.187 685.45c-.9.9-1.9 2.9-2.2 4.4-.4 2.1-1 2.7-2.2 2.3-.9-.3.2 1.1 2.4 3.3 2.9 2.8 5 4 7.5 4.1 2.3.2 4.2 1.1 5.5 2.8 1.2 1.4 2.5 2.5 3 2.5.4 0 3 1.4 5.7 3.1 4.2 2.7 4.8 3.5 4.8 6.5 0 1.9-.4 3.4-1 3.4-1.4 0-1.3 7.3.1 10.4.8 1.7 2.1 2.6 4.2 2.8 1.7.2 3.2 1 3.3 1.8 1.1 5.2.7 8-1 8-.9 0-1.2.7-.9 2 .4 1.4 0 2-1.1 2-1.7 0-2.2 1.5-.7 2.5.6.3.9 2.3.8 4.5-.1 3.1.5 4.5 2.7 6.7 3 3 5.8 9.7 4.9 11.8-.2.8 0 2.2.6 3.3.8 1.5.7 2.3-.4 3.2-.8.7-1.5 2.3-1.5 3.6 0 1.3-.3 2.4-.8 2.4-.4 0-.8 1.9-.8 4.2-.1 3-.8 4.7-2.3 5.9-1.1.9-2.1 2-2.1 2.2 0 .3 1.7 2.6 3.8 5.1 2 2.5 4.8 5.9 6.1 7.6 1.7 2.3 2.6 2.8 3.6 2 .9-.8 1.4-.6 1.9.6.9 2.3.8 2.6-.6 1.8-.8-.5-.9-.2-.5 1.1 1 2.3-1 4.5-3.9 4.5-2.8 0-3.2 2.8-1 6.3.8 1.3 1.2 3.5.9 5.5l-.5 3.3-2.3-2.1c-2.2-2.1-2.4-2.1-4.9-.4-1.5.9-2.9 1.4-3.2 1.2-.3-.3-1.8.8-3.5 2.4-2.3 2.3-3.5 2.8-5.2 2.3-1.2-.4-3.4-.7-4.9-.7-1.4.1-3.2-.5-3.8-1.3-.7-.8-1.9-1.5-2.6-1.5-.8 0-3.3-1.2-5.5-2.6-5-3.1-8.3-4-7.5-1.9.3 1-.4 1.7-2.2 2.1-4.1 1-5.3 2.3-4.5 5.3.3 1.4.2 2.3-.2 1.9-1-.9-3.8 1.9-3.1 3.1.3.5 1.6.7 2.8.3 1.4-.3 1.9-.2 1.4.6-.4.7-.2 1.2.4 1.2.8 0 1.1 1.5.8 4.5-.3 4.1-.1 4.4 1.7 3.9 1.1-.4 2.5-1 3-1.4.6-.4 2.2-1 3.6-1.3 2.8-.7 6.2 1.9 5.7 4.4-.2.7.7 1.8 1.9 2.3 1.6.7 2.1 1.6 1.7 2.8-.3 1-.1 1.8.5 1.8s1.8 1.8 2.7 4c1.6 3.9 1.8 4 5.3 3.4 6-1 7-1.4 7.6-3.5.9-2.8 1.6-1.8 2.5 3.3.6 2.9.5 4.6-.3 5.1-.7.5-.3.6.9.2 1.4-.4 2.4 0 2.8 1 .3 1-.1 1.5-1.2 1.5-1.3.1-1.1.4.8 1.5 1.4.7 3.5 1.1 4.8.8 2.1-.5 2.2-.4 1.1 2.1-.7 1.4-1.8 2.6-2.5 2.6-1.8 0-.5 4.2 2 6.2l2.1 1.8h-2.4c-2.1 0-2.3.3-1.8 3.5.3 1.9.2 3.5-.4 3.5-.5 0-.9-.7-.9-1.5 0-1.7-1.8-1.9-3.9-.6-1.9 1.2-.6 4.5 1.5 3.7 1.7-.7 5.5 2.7 6.9 6 .7 1.8.7 1.8 1.4.1.6-1.7 1-1.5 4.6 1.3 2.2 1.8 4.3 3.7 4.7 4.4.4.7 1.7 1.2 3 1 1.3-.1 3.5-.3 5-.3 1.5-.1 4.3-1.4 6.2-3.1l3.4-3 .4 4c.2 2.2-.1 4.1-.7 4.3-1.7.6 7.2 5.6 9.1 5.1 1.1-.2 3 .5 4.4 1.6 2.5 2 2.5 2 .5 3.6-1.1.8-3 1.2-4.2.9-1.2-.3-2.4-.1-2.7.3-.3.5-2 .8-3.8.7-1.8-.2-4 .3-4.8 1.1-.9.7-3.2 2-5.2 2.8-3.7 1.6-6.1.8-7-2.4-.3-1-1.7-1.3-5-1.1-3.4.2-5.1-.2-6.5-1.6-1-1-3.3-1.8-5.4-1.9-3 0-3.5.3-3.1 1.8.2 1 .9 1.7 1.6 1.6 4.9-.9 17.6 3.6 17.6 6.2 0 .5.7 1 1.6 1 2.2 0 8.4 6.7 8.4 9.1 0 1 .9 2.8 2 3.9 1.2 1.2 1.8 2.5 1.5 3-.4.6-.3 1.9 0 3.1.5 1.5 1 1.7 2 .9.9-.8 1.7-.4 3 1.7 1 1.6 2.7 3.6 3.9 4.5l2.1 1.7-2.2 2.3c-2.4 2.6-2.4 5.9.1 8.7.7.9 1.7 4.7 2.1 8.5.6 5.9.5 6.8-.8 6.3-1.7-.6-2.8 3.7-1.7 6.8.5 1.4.8 1.5 1.7.3 1.3-1.6 2.8-6 2.5-7.2-.2-.4.3-1.4.9-2.2.9-1.1.8-1.8-.1-2.9-1.1-1.3-.7-1.5 2.3-1.5s3.7-.5 5.2-3.8c2.3-4.9 4.2-6.4 6.6-5.1 1.1.5 1.9 1.4 1.9 2 0 .6-.6.7-1.2.3-.7-.4-.6 0 .2.9 2 2 8.4 1.2 7.6-1-.4-.8-.9-2.7-1.3-4.1-.5-2.4-.4-2.5.9-1.4.9.7 2.2 1.1 2.9 1 .8-.2 1.5.7 1.7 1.9.4 2.5 1.9 2.8 6.8 1.4 3.8-1.1 5-.4 5.9 3.1.6 2.3 1 2.5 3.4 1.8 1.6-.4 3.9-1.4 5.2-2.1 1.3-.7 3.7-1.4 5.3-1.5 1.7-.1 3.6-1.1 4.6-2.4 1.1-1.4 1.9-1.8 2.1-1.1.3.8 1.6.7 4.7-.6 3.2-1.4 4.2-2.2 3.8-3.6-.8-3.2 9.6-5.4 12.8-2.8 2 1.6 7.3-.8 6.8-3.2-.2-.9.3-2 1.1-2.3.9-.3 1.3-1.3 1-2.5-.3-1.2.1-2.1 1.1-2.5 1.3-.5 1.4-1 .5-2-.6-.7-.9-3.2-.7-5.4.2-2.7-.1-4.1-1-4.5-.7-.3-1-1-.6-1.7s.4-1-.1-.6c-.4.4-2.1-.2-3.6-1.3-2.8-1.9-3-2-5.8-.3-1.6.9-3.6 1.4-4.5 1.1-1.5-.6-1.4-.9.5-2.8l2.1-2.1-2.6-2.7c-1.4-1.5-2.6-3.5-2.6-4.4 0-.9-.8-1.7-1.7-1.7-1.3 0-1.4.3-.5 1.2 1.5 1.5 1.5 2.8 0 2.8-.6 0-1.9.7-2.9 1.6-1.4 1.2-2.2 1.3-3.8.4-2.3-1.2-2.6-.8-1.1 2.1 1.4 2.6-.4 2.5-3-.1-2.4-2.4-3-2.5-3-.5 0 1.7-3.8 2-8.7.6-1.9-.6-3.5-.6-3.8-.1-.3.5-1.2.7-1.9.4-.8-.3-1.7-.1-2.1.5-.9 1.6-8.1 1.3-9.4-.3-.7-.8-2.1-1.2-3.1-.9-1.5.4-2 0-2-1.6 0-2.4-1.8-2.8-2.6-.6-.4 1-1 1.2-1.8.6-.6-.5-2.4-1.1-4.1-1.4-2.8-.4-2.9-.5-.7-1.2 1.2-.4 2.2-1.1 2.2-1.6s1-.5 2.3 0c2.1.8 2.2.7 1.9-3-.3-3.1-.1-3.9 1.2-3.9 1.6 0 2.1-2.1 1.7-6.8-.1-1.5.4-2.2 1.6-2.2 1.4 0 1.5-.2.4-.9-2.2-1.4.9-8.5 3.9-8.9 1.7-.3 2.1-.9 1.7-2.8-.2-1.3-.1-2.7.3-2.9.4-.3.5-2.5.2-5-.4-3.7-.2-4.5 1.2-4.5.9 0 1.6-.8 1.6-2 0-1.1-.6-2-1.3-2-1.8 0-4.7-3.2-4.7-5.2 0-.9-.9-1.8-2-2.1-1.2-.3-2.1-1.4-2.1-2.9-.2-2.8-.5-5.8-.8-7.8-.1-1.3-.3-1.3-1 0-.7 1.1-2.2 1.4-5.5 1.2-2.5-.2-4.6-.8-4.6-1.3s.6-.9 1.3-.9c1.8-.1-2.4-3-4.4-3-.9 0-1.9-.7-2.3-1.5-.3-.8-1.2-1.5-2.1-1.5-.9 0-1.5-.9-1.5-2.4 0-1.4-.5-2.8-1.1-3.2-.8-.4-.7-.9.2-1.5 1-.6.7-.9-1.2-.9-3.4 0-6.4-3.7-6.6-8.3-.2-3.8-.2-3.8 2.2-2.3 1.4.9 3 1.6 3.6 1.6.7 0 2 .7 3 1.6 1.4 1.2 2.2 1.3 3.8.4 1.2-.6 2.1-.7 2.1-.2 0 1.4 4.5 2 6.5 1 .9-.5 2-2 2.5-3.4.8-1.9 1.4-2.3 3.7-1.8 2.1.4 3.5-.1 5.4-2 1.7-1.5 3.1-2.1 3.9-1.6 1.8 1.1 4 .1 4-1.9 0-.9.5-2.2 1.1-2.8.8-.8.8-1.7 0-3.2-.9-1.7-.9-2.1.3-2.1 2.7 0 4.6 1.2 4.6 3 0 1 .7 2.3 1.5 3 .8.7 1.5 1.8 1.5 2.4 0 .7.9 3.1 2 5.4 2.3 4.7 5 5.6 5 1.7 0-2.5.1-2.5 3-1 4 2.1 5.3 1.9 4.5-.5-.6-1.7-.3-1.9 1.7-1.1 1.3.4 3.2.5 4.3 0 1.1-.4 2.3-.8 2.8-.8 1.4-.2.7 2.2-1.1 3.8-2.9 2.5-3.1 4.3-.9 8.3 2.2 4 3.7 4.9 3.7 2.2 0-1.3.4-1.2 2.8.4 2.1 1.5 3.3 1.7 5.2 1 1.4-.5 3.7-.8 5.3-.5 1.5.2 2.7 0 2.7-.4 0-.5 1.2-.4 2.6.1 1.4.6 2.3.6 2 .1-.9-1.3 2.3-8.3 3.4-7.6.6.3 1-.1 1-.9 0-2 1.9-2 6 0 2.5 1.3 3.4 1.4 4 .4.4-.7 1.2-1 1.8-.6 1.3.8 2.9-1.2 3.7-4.7.6-2.1 1.2-2.6 2.5-2.2 2.4.8 6.8-5 4.5-5.9-.8-.3-1.4-1.3-1.3-2.3.3-4.5-.3-8.3-1.8-9.8-.9-.8-1.3-2.3-1-3.2.4-.9 0-2.6-.9-3.9-1-1.5-1.1-2.5-.4-2.9.6-.4.7-1.4.4-2.4-1.8-4.3-3.3-11.7-2.6-12.4.5-.5.5-2.5 0-4.5-1.2-5.1-1.2-5.2 1-5.2 1.1 0 2.3-.9 2.6-2 .3-1.1 1.5-2 2.6-2 2.1 0 2.2-.8 1-6.1-.5-2.2-.4-4.3.1-5.4.9-1.5.7-1.5-1.2-.5-1.8.9-2.4.9-3 0-.5-.9-1-.9-1.4-.1-.9 1.3-4.6-.8-4.6-2.6 0-.6-.9-1.9-2.1-2.7-1.6-1-2.2-2.7-2.4-6.2-.2-2.7-.8-5-1.4-5.2-.6-.2-1.1-1-1.1-1.7 0-2-4-5.5-6.2-5.5-1 0-1.8-.5-1.8-1.1 0-.6-.7-2.6-1.6-4.5-1.5-3.2-1.5-3.6-.1-4.7s1.3-1.5-.8-4.2l-2.4-2.9.4 3.3c.3 2.6.1 3.2-1 2.7-1.2-.4-1.4.2-.9 3.4.6 3.6.4 4-1.5 4-2.3 0-2.9 1.5-.8 2.3 1.4.6-3 4.6-5.2 4.7-.8 0-1.1.6-.7 1.6.3.9.6 2 .6 2.5s.6.9 1.4.9c2.2 0 3.2 10.7 1.2 12.9-1.9 2-2.1 5.2-.5 6.8 1.2 1.2-1.5 6.3-3.5 6.3-2.2 0-3.6 3.7-2.6 6.5 1.3 3.5 1.3 3.5-1.1 3.5-1.1 0-2.9.4-3.9 1-1.3.7-1.9.6-2.4-.6-.4-1-1.3-1.3-2.5-.9-1.5.4-2.3-.1-3.4-2.2-.8-1.5-1.2-3.4-1-4.1.3-.7-.4-1.2-1.7-1.2-1.6 0-2.6-1.1-3.8-3.9-.9-2.2-2.8-4.5-4-5.1-2.1-.9-2.3-1.5-1.7-5 .6-3.8-.5-5.5-2-3-.3.5-2.3 1-4.4 1-3.6 0-3.9.3-4.5 3.3-.3 1.8-1.9 4.7-3.5 6.4l-2.9 3.2-3.3-2.5c-2-1.5-4.2-2.3-5.4-2-1.1.3-2.7-.1-3.6-.7-2-1.5-3.4-6.7-1.8-6.7.7 0 1-.3.7-.6-.3-.3-1.5 0-2.6.7-1.7 1.1-2.9.7-8.9-2.9-3.8-2.3-7.3-4.2-7.7-4.2-1 0-6.6 6.2-6.6 7.4 0 .5.8 1.8 1.7 2.8 1.1 1.3 1.7 3.7 1.8 7.1 0 2.9.4 5.7.8 6.4.5.7-.1 2.1-1.2 3.2-1.1 1.1-2.3 3.3-2.7 4.8-1.1 5.4-1.1 5.4-5.4 2.6-3.6-2.4-4.6-4-4-6.8 1.1-5.6-.2-10-4.1-13.5-3.2-2.9-2.8-6.3.6-4.9 1.1.4 1.4.8.7.8-.7.1-1 .6-.7 1.2.5.6 1.1.4 1.9-.7.9-1.2 1-2.8.3-5.8-1.4-5.9-2.1-7.1-4.8-7.1-1.8 0-2.4-.6-2.6-2.7-.1-1.5.2-3 .7-3.3.5-.3.6-1.3.3-2.1-.5-1.4-.3-1.5 1.8-.3 3.4 1.8 6.9 1.8 6.9-.1 0-1.3.1-1.3 1 0 .5.8 1 1.1 1 .6 0-.5 1.1.1 2.5 1.4 2.6 2.5 2.8 2.3 2.5-2.3-.1-1.7.3-2.7 1.3-2.7.7 0 1.9-1.2 2.6-2.8.8-1.5 1.7-3.5 2.2-4.4 1.2-2.5 1.2-9.1-.1-8.3-1 .6-4-1.7-4-3.1 0-.4.8-1.6 1.7-2.7 1.7-1.8 1.7-2-.8-4.1-3.3-2.9-4.1-5-2.5-7.1 1.8-2.5-.2-6.7-2.7-5.9-2.4.8-5.7-2.5-5.7-5.5 0-.5-1.2-.7-2.7-.5-5.1.9-6.4.5-9.2-2.5-1.8-2-3.1-2.7-3.8-2-1.2 1.2-6.3-.5-6.3-2.1 0-.6-1.2-1.6-2.7-2.3-1.5-.6-3.6-2-4.7-3.1s-2.1-1.4-2.5-.8c-.3.5-2.8 1.3-5.6 1.7-2.7.4-5.5 1.2-6.2 1.7-.7.5-1.9.6-3 0-1-.5-3.3-1.6-5.1-2.5-4.2-2.1-7.6-2.2-9.7-.1zm50.4 56.9c.8 0 1.6.5 1.8 1.2.3.9-.4 1-2.9.2-1.8-.5-3.4-.9-3.5-.9-.2 0-.3-1-.3-2.3.1-2.2.1-2.2 1.8-.2.9 1.1 2.3 2 3.1 2zm29.4 48.6c.3 1.2 1 1.8 1.6 1.4.6-.3 1.1-.1 1.1.4 0 .6-.4 1.1-1 1.1-.5 0-1 .7-1 1.5s-.9 1.5-2 1.5-2-.7-2-1.6c0-.8.5-1.2 1.1-.8.8.5.8.1 0-1.4-1.5-2.8-1.4-4.2.3-4.2.7 0 1.6.9 1.9 2.1zm-3.3 9c0 .4-.7 1.2-1.5 1.9s-1.5.9-1.5.4-.3-2-.7-3.2c-.5-2.2-.4-2.3 1.6-1.1 1.1.8 2.1 1.7 2.1 2zm9 36.4c0 .8-.9 1.5-2 1.5-1.3 0-1.8-.5-1.4-1.5.4-.8 1.2-1.5 2-1.5s1.4.7 1.4 1.5zm-87.4 10c.2 1.6.1 1.5-1.7-.1-2.4-2.1-2.5-3.8-.2-2.6.9.6 1.8 1.7 1.9 2.7zm111.9 117.4c-.8 1.4-2.5 1.4-2.5 0 0-.5.5-.7 1-.4.6.3 1 .1 1-.6s.3-1 .6-.6c.3.3.3 1-.1 1.6zM451.687 687.85c.6 1.1.7 2 .3 2-.5 0-1.4 1-2.2 2.1l-1.3 2.2 3-2.2c1.7-1.1 3.9-2.1 5-2.1 1.2 0 2.4-.5 2.8-1.2.5-.7 1-.3 1.6 1.2.6 1.7.3 3-1.6 5.5-2.1 2.7-2.3 3.4-1.1 4.6 2.7 2.8 6.5 11.2 5.6 12.3-.5.6-.8 3.2-.6 5.8.3 3.9 0 5.1-1.6 6.2-2 1.3-2 1.4.5 3.4 2 1.5 2.6 2.9 2.6 5.8 0 2.2.7 4.8 1.5 5.8.8 1.1 1.5 2.7 1.5 3.7 0 .9.9 2.8 2.1 4.3 1.7 2.1 1.8 2.6.5 2.6-1.8 0-2.3 4.5-.6 5.5.6.3 1-.2 1-1.2 0-1.3 1.1-.7 4 2.4 2.2 2.3 4 5.1 4 6.3 0 1.6.6 2 3.3 2 1.8 0 3.8-.5 4.5-1.2 1.7-1.7 1.5-5.9-.4-8.7-1-1.3-1.8-3.6-2-5.1-.3-2.8-.3-2.8 2.9-1.9 4 1.3 8.5 1.5 11.5.5 1.7-.6 2.1-1.2 1.6-2.8-.4-1.3-.2-1.8.5-1.4.5.4 1.3 2.2 1.7 4.1.4 2.3 2.1 4.8 5 7.5 2.4 2.2 4.4 4.8 4.4 5.8.1 1.9 2.9 7.3 3 5.7 0-.6.8.3 1.6 1.8.9 1.7 2.6 3 4.5 3.4 1.6.3 2.9.9 2.9 1.3s.8.7 1.8.6c1.3-.1 1.6.6 1.4 3.1-.2 1.9.4 4.6 1.4 6.2 1.6 2.7 1.6 3.2.2 4.8-.8 1-1.3 2.4-1.1 3 .8 2.1 4.7 1.5 5.8-.9 1.3-2.9 3.1-3.4 3.7-1 .6 2.3 4.8 3.4 13.5 3.7l6.2.2.6-4.9c.6-4.4.9-4.8 3.4-4.8 3.7 0 7.1-2.6 7.1-5.6 0-1.3.7-2.7 1.5-3 1.7-.7 2.1-5.4.5-5.4-.5 0-1-.4-1-.8 0-.5 1-.8 2.3-.8 3.1.1 3.7-3.9.6-4.7-1.2-.3-3-.2-3.9.3-1.3.7-2.2.4-3.4-.9-2-2.2-2-3.1-.2-3.1 2.3 0 2.7-1.5.8-3.6-2.4-2.6-6.5-13.6-5.3-14.3.5-.4.6-2.1.3-4-.7-3-.9-3.2-2.1-1.8-.9 1.2-1.8 1.4-3.1.7s-2.2-.4-3.5 1c-1.6 1.8-1.9 1.8-4.1.3-1.5-.9-2.4-1.1-2.4-.4 0 .6-1.7 1.8-3.7 2.7-3.1 1.3-4.4 1.3-7 .4-1.8-.6-3.7-.9-4.1-.6-.5.3-2.5 0-4.5-.6-2.6-.8-3.9-1.9-4.6-4-.5-1.5-1.5-2.8-2-2.8-.6 0-1.1-1.3-1.1-2.9 0-1.7-.4-3.3-1-3.6-.5-.3-1-.1-1 .6s-.8.5-2-.6c-1.9-1.7-2-1.7-2-.1 0 1 .7 2.4 1.5 3.2 3 3 1.3 4.4-2.7 2.3-1.8-.9-2-.9-1.5.4.3.9 0 2.1-.8 2.7-.7.6-1.1 2-.8 3.1.8 3-2.5 6.2-5.7 5.4-3.6-.9-4.9-2.3-6-6.6-.8-2.7-2.4-4.8-6-7.6-3.7-2.8-5.1-4.7-5.6-7.3-.9-4.8-2.3-7.2-3.8-6.7-.7.3-3-1.6-5.2-4.1-2.1-2.6-4.4-5-5.1-5.5-2.7-1.7-4.3-4-4.3-6.3 0-1.6-.6-2.4-1.7-2.4-1.7-.1-1.7-.1 0-1.4 2.1-1.6 2.3-4.6.2-4.6-.8 0-1.5-.4-1.5-1 0-1.8-4.9-4.3-6.3-3.2-.8.7-1.8.7-2.7.2-2.4-1.5-3.1-1.1-2 1zM598.187 688.95c-.4.6-1.3.8-2.1.5-.8-.3-1.4.1-1.4.9 0 1.7 1.6 2 2.5.5.3-.6 1.7-1 3-1s2.7-.5 3-1c.3-.6-.5-1-1.9-1s-2.8.5-3.1 1.1zM389.187 689.85c-.5.9 5 5 6.7 5 .4 0 1 1.1 1.4 2.5.3 1.4 1.3 2.5 2.2 2.5.8 0 2.4.7 3.4 1.7 1.6 1.4 1.8 1.4 1.8.1 0-1.9 2.4-3 3.9-1.7.6.5.5.1-.3-.8s-3-1.8-4.7-2c-1.8-.2-3.7-.9-4.1-1.6-.4-.6-.8-.8-.8-.3 0 .4-2-.8-4.4-2.8-2.5-2-4.7-3.2-5.1-2.6zM535.687 691.55c0 1.5 3.4 6.4 5.1 7.3 1.9 1.1 2 .9 1.3-2.7-.4-2.1-.8-3.9-.9-4.1-.5-.5-5.5-1-5.5-.5zM602.987 692.85c-.2 1.8 0 1.8 1.3.6 1.7-1.8 1.8-2.6.1-2.6-.7 0-1.3.9-1.4 2zM436.187 693.45c-1.2 1.9-8.3 4.5-9 3.4-.8-1.4-4.4.1-5 2-.4 1.1.4 2.8 2 4.6 1.4 1.5 3 4.4 3.5 6.5 1.2 4.3 2.5 5.6 4.4 4 .9-.8 1.8-.7 3.2.4 2.6 1.9 4.4 1.9 4.4-.2 0-.9.3-1.3.7-1 .3.4 1.2.2 2-.4 1.1-1 1.1-1.5.1-2.7-.7-.8-1.3-2.5-1.3-3.6 0-1.4-.6-2.1-1.7-2-.9.1-1.9-.5-2.3-1.3-.4-1.1-.1-1.3 1.2-.8 3.3 1.2 3.7 1 5.9-3 2.9-5.2 2.9-5.5-.1-5.5-1.4 0-2.5-.6-2.5-1.3 0-.9-.3-.8-.9.2-.6.9-1.1 1-1.5.2-1-1.5-1.9-1.4-3.1.5zM588.187 692.75c-.3.6-.2 1.1.4 1.1.5 0 1.6.7 2.4 1.5 1.4 1.3 1.2 1.8-1.2 4.4-2.4 2.5-3.1 2.8-6.6 2.2-2.3-.4-3.9-1.2-3.7-1.9.3-1.7-2.4-1.5-4.1.3-1.3 1.2-1.7 1.2-3.1-.4-1.6-1.7-1.5-1.9 1.5-2.5 1.7-.3 3.4-.4 3.8-.2.3.2.6-.7.6-2 0-1.7-.5-2.2-1.8-2-1 .1-2.2.7-2.5 1.3-1.1 1.7-5.2 2.6-5.2 1.2 0-.7-.2-1-.5-.8-.2.3-.1 2 .5 3.7.5 1.8.5 3 0 2.7-1.4-.9-2 2.3-.9 5.5.6 1.7.9 3.6.6 4.4-.6 1.6 1.1 3.6 3 3.6.7 0 1.3-.7 1.3-1.4 0-1.2 1.4-1.4 7.3-1 8.1.5 12.7-.9 12.7-3.7 0-1.1.7-1.9 1.5-1.9 1.8 0 1.8-.4.6-4.8-.8-2.5-.7-3.2.4-3.2 1.4 0 4.7-5.5 3.8-6.4-.3-.3-1.8.2-3.4 1.1-2.6 1.6-2.9 1.6-4.8-.1-1.2-1.1-2.1-1.4-2.6-.7z"/><path d="M583.787 695.75c-.9.6-.5.8 1.3.8 1.4 0 2.6-.3 2.6-.8 0-1.1-2.1-1.1-3.9 0zM601.687 696.85c1 1.9.4 5-1 5-.7 0 1.6 7.4 2.7 8.9.2.2 1.2-.4 2.4-1.5 1.1-1 3.1-1.8 4.4-1.6 3 .4 4.3-3.7 1.7-5.5-.9-.7-2.3-1.7-2.9-2.3-.7-.6-1.3-.7-1.3-.3-.1.4-.8-.1-1.8-1.2-.9-1.2-2.5-2.4-3.5-2.8-1.5-.5-1.6-.4-.7 1.3zM414.187 696.85c-.3.6.1.7.9.4 1.8-.7 2.1-1.4.7-1.4-.6 0-1.3.4-1.6 1zM416.187 698.85c-1.8.8-1.7.9.8.9 1.5.1 2.7-.4 2.7-.9 0-1.2-.8-1.2-3.5 0zM546.687 701.85c-2.1 1.7-2.3 2.1-1 3 .8.6 2.4.8 3.5.5 1.1-.2 3.9-.5 6.3-.5h4.3l-1.8-2.3c-2.3-3.1-7.8-3.4-11.3-.7zM618.187 701.85c-.3.5-.1 1 .4 1 .6 0 1.1-.5 1.1-1 0-.6-.2-1-.4-1-.3 0-.8.4-1.1 1zM560.187 702.85c.3.5 1.6 1 2.8.9 2.1 0 2.1-.1.2-.9-2.8-1.2-3.7-1.2-3 0zM565.487 715.75c-.5 3.2.5 3.8 3.2 2.1 1.3-.8 1.2-1.2-.6-3.1l-2.1-2.1-.5 3.1zM562.187 721.85c-.3.5-.4 1.4-.1 1.9.3.4.1 2.2-.4 4-.5 1.7-.6 3.1-.2 3.1.7 0 3.2-7 3.2-9 0-1.3-1.7-1.3-2.5 0zM684.687 759.25c0 .2.8 1 1.8 1.7 1.5 1.3 1.6 1.2.3-.4s-2.1-2.1-2.1-1.3zM680.287 766.05c-2 3.9-2 6.2-.1 7.8 1.1.9 1.5.9 1.5.1 0-.7.5-.9 1.1-.6.6.4 1.3-.2 1.6-1.4.3-1.2 1.2-2.1 2-2.1 1.1 0 1.4-.6.9-2.3-.3-1.2-.6-2.8-.6-3.5 0-.6-1.1-1.2-2.4-1.2-1.8 0-2.9.9-4 3.2zM478.687 768.75c0 .5.5 1.3 1 1.6.6.3 1 .2 1-.4 0-.5-.4-1.3-1-1.6-.5-.3-1-.2-1 .4zM583.687 803.35c0 .6-1.2 1.2-2.6 1.3-2.7.2-6.1 2.8-4.4 3.4.6.2.1 2.1-1 4.4-2 4.1-2.2 4.2-6.6 3.9-2.5-.2-5.1-.8-5.8-1.4-1-.8-1.7-.7-2.5.3-.7.8-1.8 1.3-2.5 1-.7-.3-1.8.1-2.4.8-1.3 1.6 1.7 11.8 3.6 11.8.6 0 1.2.4 1.2.9s.7 1.7 1.7 2.6c.9 1 1.7 3.4 1.7 5.8.1 3.5.6 4.4 3.3 6.2 1.8 1.1 3.2 2.6 3.3 3.3 0 1.9 2.3 2.4 5.4 1.2 1.9-.7 3.3-.7 4.7.1 1.7.9 2.1.7 2.6-1.1.4-1.5 1.1-2 2.4-1.7 1.1.3 1.9.1 1.9-.3s1.9-.6 4.2-.3c3.6.5 4 .4 3.5-1-.4-1.1-.1-1.7.7-1.7 2 0 2.7 1.2 1.5 2.7-.9 1-.7 1.3.6 1.3 1.4 0 1.6-.6 1.1-3.5-.5-2.5-.3-3.5.6-3.5.9 0 .9-.3 0-1.2-.9-.9-1.5-.9-2.4 0-1.9 1.9-2.6 1.4-2-1.3.3-2 .7-2.3 1.8-1.4 1.8 1.5 3.4.3 3.4-2.7 0-1.4.4-2.2 1-1.9.5.3 1.7.2 2.6-.3 1.1-.6 1.3-1.1.5-1.6-.6-.4-1.1-2.6-1.1-5 0-3.4-.6-4.8-2.9-7-2.5-2.4-2.8-3.2-2-5.8.6-2.1.4-3.6-.6-5.1-.8-1.2-1.4-2.6-1.4-3.1-.1-1.2-13.1-1.3-13.1-.1zM631.687 925.25c0 .2.8 1 1.8 1.7 1.5 1.3 1.6 1.2.3-.4s-2.1-2.1-2.1-1.3zM644.687 925.95c0 .5-.4.8-.9.5-1.8-1.2-6.9 1.8-7.4 4.3-.3 1.4-.3 2.8-.1 3 .8.8 3.4-2.3 3.4-4.1 0-1.6.5-1.9 2.3-1.6 1.3.2 2.8-.1 3.5-.8 1.5-1.6 1.5-2.4.2-2.4-.5 0-1 .5-1 1.1zM633.687 936.35c0 .8-.6 1.5-1.2 1.5-.7 0-1.8 1.1-2.5 2.5-1.5 3.3-.5 3.2 3.5-.4 3.7-3.4 3.8-3.7 1.7-4.5-.9-.3-1.5 0-1.5.9zM688.687 997.35c0 .8.4 1.5 1 1.5.5 0 .7-.7.4-1.5-.4-.8-.8-1.5-1-1.5-.2 0-.4.7-.4 1.5zM691.287 1002.35c-1.1 2.9-.7 5.8 1.1 7.7 1.5 1.7 1.5 2-.4 4.6-1.1 1.5-2.3 4-2.7 5.7-.4 1.6-1.3 3.3-1.9 3.7-.6.4-.8 1-.4 1.4.3.4 1.3.2 2-.4.8-.7 1.7-.9 2-.5.4.3.7 0 .7-.9 0-1 .8-1.3 2.9-1 3.7.5 5.8-2.5 3.6-5.4-.9-1.3-1.2-3.4-.8-6.4.4-4 .2-4.8-2.5-7.3-2.5-2.4-3-2.6-3.6-1.2z"/></g></svg>