<?xml version="1.0" standalone="no"?>
<!DOCTYPE svg PUBLIC "-//W3C//DTD SVG 20010904//EN"
 "http://www.w3.org/TR/2001/REC-SVG-20010904/DTD/svg10.dtd">
<svg version="1.0" xmlns="http://www.w3.org/2000/svg"
 width="643.094389pt" height="431.595389pt" viewBox="0 0 643.094389 431.595389"
 preserveAspectRatio="xMidYMid meet">
<metadata>
Created by potrace 1.15, written by Peter Selinger 2001-2017
</metadata>
<g transform="translate(-679.588354,1220.049693) scale(0.100000,-0.100000)"
fill="#222222" stroke="none">
<path d="M9796 12178 c-9 -12 -16 -30 -16 -40 0 -10 -5 -18 -11 -18 -5 0 -7
-5 -4 -11 5 -6 12 -4 20 8 11 14 16 15 28 5 18 -15 30 -2 17 18 -4 7 -4 24 1
37 11 31 -14 32 -35 1z"/>
<path d="M9508 12076 c12 -16 22 -31 22 -35 0 -12 -76 -29 -109 -24 -33 6 -33
6 -29 -31 2 -20 1 -36 -3 -36 -4 0 -6 -18 -4 -40 2 -22 0 -42 -5 -45 -5 -3 -5
-16 1 -29 14 -30 -13 -78 -38 -69 -13 5 -15 0 -11 -28 4 -24 0 -38 -11 -47
-14 -11 -13 -12 10 -10 14 2 34 -3 43 -11 22 -19 26 -13 29 47 2 28 6 54 9 58
4 3 4 12 1 20 -6 17 23 59 32 45 3 -6 19 -11 36 -11 24 0 29 4 29 24 0 19 8
27 34 36 18 6 49 29 69 50 20 22 44 40 54 40 12 0 29 21 50 58 31 57 31 58 10
58 -12 -1 -25 -6 -30 -13 -12 -18 -66 -43 -83 -36 -9 3 -14 -1 -14 -12 0 -17
-1 -17 -18 -2 -10 10 -22 17 -27 17 -5 0 -22 12 -39 28 l-30 27 22 -29z"/>
<path d="M7950 12039 c0 -5 -5 -7 -11 -4 -5 4 -19 -1 -29 -10 -11 -10 -24 -14
-31 -9 -9 5 -10 2 -6 -9 7 -18 -12 -28 -41 -20 -14 3 -24 -2 -31 -16 -7 -12
-17 -21 -23 -21 -6 0 -16 -6 -22 -14 -13 -17 -85 -24 -106 -11 -14 9 -70 8
-79 -1 -2 -2 -7 -20 -10 -41 -6 -34 -10 -38 -50 -48 -25 -6 -46 -16 -49 -23
-2 -7 -15 -12 -29 -12 -25 0 -26 -2 -20 -47 3 -27 3 -42 0 -35 -2 6 -11 12
-18 12 -8 0 -21 10 -29 22 -13 18 -18 19 -31 8 -12 -10 -18 -10 -30 0 -13 10
-19 10 -35 -5 -11 -10 -20 -25 -20 -33 0 -8 -6 -12 -15 -8 -11 4 -15 -2 -15
-27 0 -39 34 -115 54 -123 9 -3 25 -22 37 -42 12 -21 34 -49 48 -64 47 -48 77
-95 67 -105 -3 -3 -1 -14 5 -24 8 -15 6 -19 -7 -19 -13 0 -14 -3 -4 -15 7 -8
14 -36 15 -61 2 -35 9 -52 34 -78 29 -30 31 -37 31 -105 0 -74 8 -100 42 -138
25 -27 41 -93 26 -110 -13 -16 -8 -22 44 -48 38 -19 42 -24 44 -64 2 -48 23
-70 66 -71 15 0 29 -4 32 -9 3 -5 21 -12 40 -15 41 -8 89 -43 79 -59 -4 -6 -7
-34 -8 -62 0 -54 20 -109 54 -139 12 -11 21 -30 21 -43 0 -13 7 -35 16 -48 16
-25 97 -85 113 -85 13 0 23 -47 27 -127 2 -48 10 -83 24 -107 11 -20 20 -44
20 -54 -1 -27 -25 -53 -44 -46 -11 4 -19 -2 -26 -21 -5 -14 -14 -24 -18 -21
-12 7 -36 -39 -28 -53 4 -6 16 -11 27 -11 22 0 26 -28 4 -36 -19 -8 -19 -33 0
-58 8 -11 15 -34 15 -51 0 -19 8 -39 19 -50 21 -18 22 -52 3 -112 -6 -17 -8
-34 -6 -36 3 -3 6 -18 8 -33 5 -46 58 -77 117 -69 51 7 79 -9 79 -46 0 -11 7
-19 16 -19 18 0 70 -50 66 -62 -1 -5 3 -8 9 -8 5 0 7 -4 4 -10 -3 -5 -17 -10
-30 -10 -18 0 -23 -4 -18 -16 5 -13 2 -15 -15 -10 -11 4 -23 2 -27 -4 -3 -5 0
-10 7 -11 57 -2 94 -11 112 -27 37 -33 116 -83 116 -74 0 15 62 7 74 -9 6 -8
32 -24 57 -36 39 -18 47 -27 51 -55 3 -18 1 -36 -4 -39 -5 -3 -2 -12 7 -19 13
-11 21 -11 36 -2 15 9 25 10 40 1 18 -9 27 -6 58 19 24 19 42 27 51 22 13 -8
58 2 93 21 10 5 22 7 28 3 5 -3 22 6 36 20 14 14 22 26 18 26 -4 0 0 11 9 24
9 14 13 32 10 40 -4 10 3 15 22 18 19 2 30 10 34 25 5 22 6 22 55 -12 28 -19
59 -34 69 -35 28 0 89 23 102 38 8 11 14 5 29 -27 12 -27 31 -49 57 -63 21
-12 38 -27 38 -34 0 -16 50 -28 63 -15 7 7 14 5 22 -6 12 -16 15 -16 41 1 27
18 28 18 45 -3 9 -11 27 -21 39 -21 19 0 20 -2 10 -15 -16 -19 -7 -41 19 -48
17 -4 21 -1 21 18 0 18 5 23 23 22 12 -1 31 -10 42 -20 17 -16 20 -16 23 -3 2
9 10 16 17 16 23 0 28 19 11 45 -12 18 -13 25 -3 29 9 5 9 7 0 12 -7 3 -13 13
-13 21 0 11 7 14 25 11 29 -6 42 20 26 50 -8 16 -6 21 14 30 29 13 29 14 11
67 -9 25 -11 47 -5 61 6 17 3 29 -12 47 -22 29 -25 47 -5 47 7 0 25 9 39 20
33 26 62 25 81 -1 11 -16 18 -19 32 -11 11 6 27 7 41 1 22 -8 29 2 24 34 -3
19 50 5 68 -19 22 -28 55 -27 45 1 -3 8 -1 15 5 15 6 0 20 9 31 20 25 25 56
13 71 -28 5 -15 12 -34 15 -42 4 -11 7 -11 13 -2 4 7 25 13 47 15 39 2 39 2
40 -35 1 -27 -3 -38 -14 -38 -12 0 -11 -4 3 -26 23 -35 36 -82 24 -86 -6 -2
-5 -16 2 -36 6 -18 9 -45 6 -59 -3 -15 0 -38 6 -52 15 -35 17 -37 25 -24 8 12
57 1 89 -20 8 -5 22 2 38 17 14 15 36 26 49 26 13 0 27 7 30 16 4 10 13 13 27
9 15 -5 19 -4 15 4 -4 6 -3 11 3 11 12 0 38 -25 51 -51 6 -10 19 -19 29 -19
25 0 54 -33 40 -47 -7 -7 -5 -14 6 -23 8 -7 15 -9 15 -4 1 5 7 -4 15 -21 7
-16 14 -24 14 -17 1 7 6 10 13 6 7 -4 8 -3 4 5 -4 7 0 27 9 46 22 47 26 105 9
132 -8 13 -10 24 -4 28 10 6 -13 67 -42 108 -17 24 -19 32 -9 51 16 29 -1 78
-24 70 -9 -4 -18 2 -24 18 -5 13 -16 30 -25 37 -14 11 -16 11 -16 -2 0 -32
-24 -30 -51 3 -24 29 -34 33 -69 32 -28 -1 -42 3 -46 13 -4 8 -16 15 -29 15
-13 0 -25 7 -29 15 -3 9 -12 12 -22 8 -10 -4 -23 1 -33 14 -9 11 -37 33 -63
48 -39 22 -48 24 -48 11 0 -19 -25 -12 -56 16 -19 17 -23 17 -50 3 -38 -20
-51 -19 -63 4 -8 14 -7 22 5 32 11 9 14 24 11 53 -10 77 -20 101 -58 142 -22
22 -41 50 -44 62 -4 24 -69 113 -91 125 -8 4 -14 17 -14 27 0 11 -40 64 -90
117 -49 54 -90 103 -90 110 0 7 -16 29 -36 49 -38 38 -82 134 -61 134 7 0 2 8
-9 18 -12 9 -25 31 -29 47 -3 17 -13 37 -21 46 -8 8 -16 30 -18 48 -2 17 -11
40 -20 50 -13 14 -16 28 -11 54 10 52 -9 98 -54 130 -40 28 -81 36 -81 16 0
-8 -4 -8 -15 1 -8 6 -19 9 -24 6 -6 -4 -15 4 -22 16 -6 13 -25 34 -41 48 -16
14 -30 34 -32 45 -3 11 -15 44 -29 73 -25 54 -72 96 -137 122 -19 8 -54 30
-77 51 -35 30 -53 38 -101 43 l-59 7 -1 35 c-1 31 1 34 20 28 19 -6 20 -4 14
39 -10 63 22 127 62 127 34 0 87 -27 126 -63 31 -29 54 -34 61 -14 4 9 30 11
95 9 93 -4 105 2 73 34 -10 9 -17 26 -18 38 0 12 -12 27 -28 36 -26 14 -29 14
-38 -2 -11 -20 -44 -24 -54 -8 -4 6 5 24 20 42 14 17 29 44 32 59 3 16 9 29
14 29 5 0 9 10 9 22 0 17 -3 19 -11 11 -20 -20 -67 12 -78 53 -5 19 -8 41 -5
47 7 19 -46 35 -74 22 -18 -8 -23 -16 -19 -37 5 -38 -26 -47 -63 -20 -15 11
-31 17 -36 13 -5 -5 -35 -11 -67 -14 -53 -5 -59 -4 -68 16 -6 12 -29 31 -52
42 -25 12 -43 28 -46 40 -5 30 -27 51 -87 80 -30 15 -59 35 -64 46 -16 29 -84
26 -114 -4 -25 -25 -40 -21 -62 18 -6 11 -25 22 -42 26 -18 4 -38 11 -45 18
-8 6 -17 8 -20 4 -4 -3 -24 7 -45 24 -49 39 -88 47 -114 21 -22 -22 -45 -18
-88 18 -16 14 -34 23 -39 20 -5 -4 -21 -2 -35 4 -14 5 -28 5 -31 1 -2 -5 -21
-11 -41 -13 -30 -4 -41 1 -75 34 -21 21 -39 33 -39 27z m1075 -649 c3 -5 1
-10 -4 -10 -6 0 -11 5 -11 10 0 6 2 10 4 10 3 0 8 -4 11 -10z m35 -30 c0 -5
-2 -10 -4 -10 -3 0 -8 5 -11 10 -3 6 -1 10 4 10 6 0 11 -4 11 -10z m-115 -190
c-4 -11 -2 -20 4 -20 6 0 11 7 11 15 0 18 2 18 34 4 25 -12 26 -42 0 -32 -11
4 -13 -6 -9 -56 l5 -61 -29 0 c-23 0 -30 -5 -33 -22 -2 -17 -10 -23 -30 -25
-22 -1 -29 3 -34 24 -4 15 -2 28 6 33 9 6 9 13 1 28 -15 28 -14 32 8 32 14 0
21 10 25 35 4 20 4 40 0 46 -4 8 1 9 16 4 15 -5 20 -4 16 4 -4 6 -2 11 4 11 7
0 9 -8 5 -20z m-813 -1455 c6 -14 9 -27 6 -30 -9 -9 -38 6 -32 16 3 6 0 16 -6
24 -10 12 -9 15 4 15 9 0 22 -11 28 -25z m-2 -84 c0 -19 -22 -23 -38 -7 -15
15 -14 16 11 16 15 0 27 -4 27 -9z m597 -723 c-3 -7 -5 -2 -5 12 0 14 2 19 5
13 2 -7 2 -19 0 -25z"/>
<path d="M6797 11990 c7 -27 21 -34 37 -21 7 6 15 10 17 8 3 -1 -4 6 -14 16
-26 23 -46 22 -40 -3z"/>
<path d="M7106 11955 c-3 -8 -1 -15 4 -15 6 0 10 7 10 15 0 8 -2 15 -4 15 -2
0 -6 -7 -10 -15z"/>
<path d="M6889 11931 c6 -10 24 -23 40 -29 16 -6 32 -19 35 -30 4 -11 17 -27
29 -35 20 -13 25 -13 45 3 12 10 22 29 22 43 0 14 6 28 13 31 6 3 -3 3 -21 0
-27 -5 -37 -2 -49 15 -11 17 -18 19 -28 11 -9 -8 -15 -8 -20 0 -3 5 -22 10
-41 10 -31 0 -34 -2 -25 -19z"/>
<path d="M7004 11783 c3 -8 6 -17 6 -19 0 -3 4 -3 9 0 5 3 11 -1 15 -9 3 -9
-3 -19 -14 -25 -11 -6 -20 -20 -20 -30 0 -17 7 -20 39 -20 44 0 66 -19 56 -50
-10 -32 21 -25 58 14 18 18 38 35 45 38 17 4 -24 60 -41 57 -15 -3 -66 20 -89
39 -25 21 -71 25 -64 5z"/>
<path d="M11030 9441 c0 -5 14 -19 30 -31 25 -18 30 -19 30 -6 0 9 -7 16 -15
16 -9 0 -18 7 -21 15 -7 16 -24 21 -24 6z"/>
<path d="M11105 9370 c3 -5 11 -10 16 -10 6 0 7 5 4 10 -3 6 -11 10 -16 10 -6
0 -7 -4 -4 -10z"/>
<path d="M11120 9312 c0 -10 7 -27 15 -38 13 -16 16 -17 25 -4 15 22 8 42 -17
51 -19 7 -23 5 -23 -9z"/>
<path d="M10150 9281 c0 -5 7 -12 16 -15 22 -9 24 -8 18 9 -7 16 -34 21 -34 6z"/>
<path d="M8320 9152 c6 -13 14 -21 18 -18 3 4 -2 14 -12 24 -18 16 -18 16 -6
-6z"/>
<path d="M11232 9142 c-17 -3 -29 -16 -41 -45 -16 -37 -16 -44 -3 -64 12 -19
12 -23 1 -23 -8 0 0 -13 17 -29 25 -23 29 -32 22 -51 -6 -16 -4 -28 7 -40 8
-9 15 -24 15 -32 0 -9 7 -18 15 -22 17 -6 21 -36 4 -36 -5 0 -7 5 -4 10 3 6
-1 10 -11 10 -12 0 -15 -6 -11 -27 5 -29 -7 -73 -21 -73 -4 0 -13 14 -19 30
-7 18 -7 30 -2 30 6 0 7 5 3 11 -5 8 -9 7 -15 -3 -8 -14 -58 -16 -91 -4 -41
14 -48 14 -58 -2 -7 -11 -13 -13 -16 -6 -10 23 -52 -9 -59 -44 -5 -27 -10 -33
-26 -29 -10 3 -17 1 -14 -3 3 -5 1 -10 -4 -12 -4 -1 -12 -14 -16 -27 -7 -23
-6 -24 28 -18 21 3 42 0 53 -7 22 -15 152 -15 174 -1 20 13 72 13 60 1 -17
-17 -11 -32 16 -45 33 -15 40 -9 15 13 -22 20 -17 56 8 56 9 0 25 -7 35 -15
14 -10 23 -12 32 -4 9 7 22 6 44 -6 17 -9 35 -13 40 -10 6 4 13 -1 16 -9 3 -9
24 -18 49 -22 34 -5 52 -15 80 -47 27 -29 39 -37 45 -28 6 10 13 8 29 -8 27
-27 27 -45 0 -63 -30 -19 -18 -52 29 -76 27 -14 41 -30 52 -60 9 -22 25 -51
38 -65 12 -13 22 -33 22 -45 0 -12 4 -22 8 -22 4 0 7 -18 5 -40 -1 -32 4 -45
28 -70 17 -16 32 -40 34 -52 17 -90 25 -97 107 -104 28 -2 60 -11 70 -21 10
-9 18 -11 18 -5 0 6 10 14 21 17 17 6 19 9 8 16 -11 6 -11 11 -2 20 10 10 14
9 18 -4 4 -9 13 -13 21 -10 16 6 19 33 4 33 -5 0 -10 -6 -10 -12 0 -9 -3 -8
-9 2 -6 8 -7 18 -4 23 3 4 -1 7 -8 5 -8 -1 -29 8 -46 22 -38 28 -43 60 -14 92
20 20 20 21 -1 72 -11 28 -21 69 -22 91 -1 22 -14 64 -29 94 -14 30 -24 58
-20 63 3 6 -4 7 -18 3 -13 -4 -21 -4 -17 0 5 5 -1 14 -12 22 -12 9 -20 26 -20
44 0 25 3 28 18 21 37 -20 44 0 12 33 -22 22 -33 46 -37 75 -6 41 -5 42 16 31
12 -7 25 -10 30 -7 5 3 16 -9 25 -28 12 -26 24 -35 52 -40 52 -10 94 1 94 25
0 15 5 18 24 13 13 -3 27 -1 31 6 9 14 -23 50 -44 50 -9 0 -26 16 -39 35 -16
25 -18 35 -9 35 8 0 19 11 25 25 6 14 16 25 21 25 4 0 6 21 4 48 -4 40 -11 53
-49 88 -36 34 -44 48 -44 76 0 20 -7 41 -15 48 -12 10 -13 7 -5 -19 8 -30 7
-31 -20 -31 -27 0 -29 -2 -21 -23 7 -19 5 -28 -10 -40 -11 -10 -26 -17 -35
-17 -24 0 -54 -19 -54 -35 0 -23 -32 -18 -70 10 -40 30 -94 106 -82 114 5 3
12 16 16 28 5 16 2 25 -14 33 -11 6 -20 7 -20 1 0 -5 -8 -7 -19 -4 -10 2 -25
-2 -33 -11 -9 -8 -19 -12 -23 -8 -12 12 -60 8 -71 -7 -8 -10 -16 -11 -30 -4
-10 6 -38 13 -61 17 -39 6 -41 5 -39 -19 2 -13 -3 -26 -10 -29 -8 -3 -14 -12
-14 -20 0 -9 -12 -18 -27 -22 -16 -3 -38 -10 -51 -15 -13 -5 -27 -9 -32 -9
-18 0 -10 29 10 40 15 8 18 15 11 28 -5 9 -9 35 -8 58 0 55 -21 90 -51 86z
m753 -182 c3 -5 1 -10 -4 -10 -6 0 -11 5 -11 10 0 6 2 10 4 10 3 0 8 -4 11
-10z m-95 -94 c0 -3 -4 -8 -10 -11 -5 -3 -10 -1 -10 4 0 6 5 11 10 11 6 0 10
-2 10 -4z m-124 -287 c4 -8 1 -8 -14 0 -12 6 -24 16 -28 22 -4 8 -1 8 14 0 12
-6 24 -16 28 -22z m59 -13 c14 -8 22 -17 16 -20 -11 -7 -61 13 -61 26 0 12 14
10 45 -6z"/>
<path d="M11170 8960 c0 -5 6 -10 14 -10 8 0 17 -8 19 -17 4 -17 5 -17 6 -1 0
10 -8 22 -19 28 -14 7 -20 7 -20 0z"/>
<path d="M11141 8941 c-8 -5 -9 -11 -3 -15 5 -3 12 1 16 9 6 17 6 18 -13 6z"/>
<path d="M11090 8902 c6 -13 14 -21 18 -18 3 4 -2 14 -12 24 -18 16 -18 16 -6
-6z"/>
<path d="M12472 8608 c2 -16 12 -25 33 -28 17 -4 29 -11 28 -18 -2 -7 2 -12 7
-12 16 0 12 19 -11 51 -25 36 -62 40 -57 7z"/>
<path d="M12112 8560 c5 -17 14 -32 18 -35 10 -6 -24 -80 -41 -91 -7 -4 -19 2
-28 13 -17 22 -71 40 -71 23 0 -6 -9 -6 -25 0 -14 5 -27 5 -30 1 -8 -14 5 -40
25 -46 11 -4 20 -20 24 -47 4 -23 9 -45 12 -49 10 -16 62 13 74 41 14 33 50
44 80 23 12 -8 29 -11 41 -8 17 6 20 4 15 -12 -4 -13 3 -33 19 -57 14 -20 25
-39 25 -41 0 -3 9 -14 20 -25 11 -11 20 -27 20 -35 0 -8 5 -15 11 -15 6 0 8
-7 5 -16 -5 -12 -2 -15 10 -10 8 3 22 6 30 6 8 0 14 9 14 19 0 20 5 21 93 36
37 6 47 18 26 31 -8 5 -8 9 1 14 9 6 8 14 -5 33 -9 15 -15 32 -12 39 2 7 -4
22 -14 33 -17 19 -17 22 2 63 26 55 18 110 -14 106 -77 -11 -97 -16 -92 -25 7
-10 -13 -13 -65 -9 -46 3 -110 36 -110 56 0 13 -3 14 -14 5 -10 -8 -16 -9 -21
-1 -3 5 -12 10 -20 10 -11 0 -12 -6 -3 -30z m338 -230 c0 -5 -4 -10 -9 -10 -6
0 -13 5 -16 10 -3 6 1 10 9 10 9 0 16 -4 16 -10z"/>
<path d="M12680 8243 c1 -26 59 -59 97 -55 35 3 55 32 23 32 -11 0 -20 -4 -20
-10 0 -20 -27 -9 -53 20 -31 34 -47 38 -47 13z"/>
<path d="M12562 8212 c-12 -8 -7 -43 7 -41 3 0 24 9 46 20 40 19 40 19 8 14
-18 -2 -33 0 -33 5 0 12 -11 13 -28 2z"/>
<path d="M12854 8211 c3 -5 15 -7 26 -4 28 7 25 13 -6 13 -14 0 -23 -4 -20 -9z"/>
<path d="M12500 8201 c0 -5 -3 -18 -6 -28 -5 -16 -4 -16 10 1 18 23 20 36 6
36 -5 0 -10 -4 -10 -9z"/>
<path d="M13008 8183 c2 -13 8 -26 13 -28 4 -3 6 -12 3 -19 -4 -10 2 -14 19
-12 21 1 23 4 15 20 -7 12 -7 21 0 25 16 9 -9 37 -34 37 -16 0 -19 -5 -16 -23z"/>
<path d="M12430 8161 c0 -12 29 -23 41 -15 5 3 7 10 4 15 -8 12 -45 12 -45 0z"/>
<path d="M13117 8063 c9 -16 18 -29 19 -31 0 -1 8 0 17 3 20 8 15 37 -9 46
-38 15 -45 10 -27 -18z"/>
<path d="M12205 8070 c3 -5 8 -10 11 -10 2 0 4 5 4 10 0 6 -5 10 -11 10 -5 0
-7 -4 -4 -10z"/>
<path d="M12210 8015 c0 -14 4 -25 9 -25 4 0 6 11 3 25 -2 14 -6 25 -8 25 -2
0 -4 -11 -4 -25z"/>
<path d="M13177 8020 c6 -8 14 -34 18 -57 4 -29 12 -43 22 -43 11 0 13 4 6 13
-5 6 -10 23 -11 36 0 14 -11 34 -23 45 -13 12 -18 14 -12 6z"/>
<path d="M12106 7995 c-6 -17 5 -26 21 -17 8 5 7 11 -2 19 -10 10 -14 9 -19
-2z"/>
<path d="M12165 7970 c3 -5 13 -10 21 -10 8 0 14 5 14 10 0 6 -9 10 -21 10
-11 0 -17 -4 -14 -10z"/>
</g>
</svg>
