<svg version="1" xmlns="http://www.w3.org/2000/svg" width="1276.589" height="1413.203" viewBox="0 0 957.442 1059.902"><g fill="#222"><path d="M259.966 1.859l-2.1 2.2 1.8 5.4c1.3 3.9 2.4 5.4 3.4 5.2.9-.2 1.6.4 1.6 1.3 0 .8-.8 1.5-1.8 1.5-1.1 0-3 2.1-5 5.4-1.8 3-4.2 5.6-5.3 5.9-1.8.5-2 1.2-2.4 8.5 0 1.3-.6 2.6-1.2 3-1.7 1.1.4 12.2 2.2 11.6 1.8-.7 3.1 3.6 1.4 4.7-.7.4-1.7.5-2.2.2-.5-.3-1.3 0-1.7.7-.4.7-1.3.9-1.9.6-.6-.4-.8-1.2-.5-1.8.9-1.4-1.7-2.9-3.9-2.2-1.1.4-2.7-.5-4.6-2.5-3.1-3.3-4.7-4-3.7-1.6.7 2-1.2 1.8-4.9-.6-1.6-1-3.7-2.1-4.5-2.5-5.2-2.1-6-2.7-4.8-4.1 1.7-2-15.5-18.2-19.3-18.3-2 0-2.8-.6-3.3-2.4-.5-1.9-1.4-2.4-4.8-2.9-2.5-.3-4.5-.1-4.9.5-.4.7-1.3.7-2.7-.1-2.7-1.5-3.2-1.4-3.2.4 0 2-5.8 2-8.4 0-2.7-2-5-1.9-7.1.5-1 1.1-2.6 2-3.5 2-1 0-2 .7-2.4 1.5-.3.8-1.2 1.5-2 1.5s-1.8 1-2.2 2.2c-.4 1.3-1.6 3.2-2.8 4.4-1.2 1.1-2.6 2.9-3.2 3.9-1 1.8-1.2 1.9-3.7.2-2.4-1.6-2.6-1.6-3.2.2-.6 2.1-9.3 4.5-11.1 3-.6-.5-1.5-.4-2.2.3-.9.9-1.6.8-2.9-.4-1-.8-3.2-2-5-2.6-2.5-.8-3.3-.8-3.7.4-.3.8-.2 1.4.3 1.4s1.1.8 1.3 1.8c.7 2.7-4.7 5-7.6 3.2-2-1.2-2.1-1.2-.3.7.9 1.1 1.5 2.7 1.2 3.5-.4.9.1 2.2.9 3.1.8.8 1.3 1.7 1.1 1.9-.3.3.6 1.1 2 1.8 2.1 1.1 2.7 1.1 3.8 0 1-1 .9-1.2-.5-.7s-4.8-2-4.8-3.5c0-.3 1.3-.8 3-1 2.2-.3 3.6.2 5.2 1.9 1.2 1.3 2.8 2.1 3.6 1.8 4.1-1.5 11.9 7.8 9.2 11.1-.9 1-.9 1.4-.1 1.4.6 0 1.1.4 1.1.9s-.9.7-2 .4c-4.6-1.2-1 4.2 4.7 7.1 1.8.9 4.9 2.8 7 4.2 2.1 1.4 3.9 2.1 4.1 1.5.2-.6 1.2-1.1 2.2-1.1 1 0 2.2-.5 2.6-1.1 1-1.7 9.3-4.9 12.6-4.9 2.3 0 2.9-.4 2.4-1.5-.3-.9 0-1.5.9-1.5 1 0 1.5-1.1 1.5-3.6 0-2.4.4-3.4 1.3-3.1.6.2 1.1 1.5.9 2.9-.2 1.8.4 2.8 2.2 3.6 1.5.7 2.6 2.1 2.8 3.7l.3 2.7 2.3-2c3.3-2.9 2.7-4.9-2-7-4.3-1.9-4.3-2-1.8-3 1.4-.5 3-.7 3.5-.4 1.8 1.1 3.9 1.1 5.2 0 1.3-1.1 5.1-.2 3.9.9-.3.3.1 1.4.9 2.3 1.4 1.5 1.4 1.9-.1 3.1-1.4 1.1-1.8 1-3.4-1.1-1-1.4-2.2-2.1-2.7-1.6-.7.7.7 2.2 5.3 5.4 1.1.7 1.3 1 .7.7-.7-.3-1.3-.1-1.3.4 0 .6 1 1.1 2.3 1.1 1.6 0 1.8.3.9.9-1.1.7-1 1 .3 1.5.9.3 2.5.6 3.6.6 3.1 0 9.8 5.2 9.9 7.7 0 1.4.6 2.3 1.5 2.3 1 0 1.5-.7 1.3-1.8-.2-1.2.4-1.7 2.2-1.8 1.4 0 3.5-.4 4.8-.8 3.3-1.1 5.8 1.6 6.7 7 .5 3.8.9 4.3 2.1 3.3 1.1-.9 1.4-.7 1.4 1 0 1.1.3 2.1.8 2.1.4 0 .8 1.9.9 4.2.2 2.3.8 4.5 1.5 4.9.9.6.9 1.6 0 4.7-1.9 6.1-1.5 8.1 1.4 9.3 1.5.5 2.4 1.2 2 1.6-.3.3-.1 1.2.5 2 .9.9.8 1.3 0 1.4-1.5.2-2.3.4-4.4 1.4-1 .4-2.9.3-4.3-.4-2.2-1-2.4-.9-1.5.8.6 1 .8 2.1.5 2.4-.7.6-5.4-4-5.4-5.3 0-.6-.6-1-1.3-1-.7 0-2.5-1.2-4-2.8-3.4-3.6-4.6-10.2-2.3-13.7 1.5-2.3 1.5-2.8-.1-7.5-1.3-3.6-2.7-5.6-4.8-6.8-1.7-.9-3.2-1.9-3.5-2.2-3.5-3.5-8.8-3.7-11.9-.5-1.6 1.7-3 2.4-4.3 1.9-1.2-.3-2.7.1-3.8 1.1-1 .9-2.3 1.4-2.8 1.1-.5-.3-1.5.1-2.2.9-.7.8-1.8 1.5-2.5 1.5s-2.5 1.3-3.8 3c-1.4 1.6-3.2 3-3.9 3-.7 0-2.9 1-4.8 2.2-2 1.2-4.9 2-6.7 1.9-1.9-.1-3.3.3-3.3.9 0 1.4-5.6 6.2-8.9 7.6-1.4.6-3.2 1.8-3.9 2.7-1.1 1.3-1.8 1.4-3.7.5-2.8-1.2-7.8.7-11 4.2-1 1.1-2.5 2-3.4 2-.9 0-4.4 1-7.8 2.2-4.9 1.7-6 2.4-5.2 3.5.6.7.9 2.3.5 3.6-.4 1.9.3 3.2 3.9 6.6 2.4 2.2 5 4.1 5.9 4.1 2.5 0 4.6 1.2 4 2.2-.3.5.2 1.2 1.2 1.4 1.1.3 2.8 2 3.9 3.7 1.1 1.7 3.1 3.4 4.5 3.8 1.4.4 2.1.7 1.5.8-.5.1.3 1 2 2.1 1.9 1.3 3.8 1.7 5.5 1.3 2.2-.6 2.3-.4 1.2 1-1.1 1.3-1 2 .9 4.6 1.3 1.7 2.9 3.1 3.6 3.1 1.6 0 1.7 1.7.2 2.2-.7.2-.7 1.3.1 3.3.7 1.7 1.2 5.5 1.1 8.5-.1 4.6-.5 5.9-2.6 7.7-3 2.6-2.4 5.1 1.3 5.5 2.4.3 2.7.7 2.9 4.8.1 3.4-.4 4.8-1.9 6.2-1.9 1.6-2.3 1.7-3.8.3-2.1-1.9-6-2-6-.1 0 .8 1.4 2.3 3 3.3 1.7.9 3 2.1 3 2.5 0 .4.6.8 1.3.8 1.5 0 3.8 5.6 3.1 7.5-1.3 3.2 6.7 4.3 10.7 1.4l2.6-1.8.5 6.7c.5 6.5 2.7 13 3.5 10.5.4-1 1.1-.9 3.3.2 3.3 1.7 9 1 9-1.1 0-.8.7-1.4 1.6-1.4 1.3 0 1.4.3.5 1.4-1.4 1.6-.8 2.1 3.6 3 4 .9 9.5 8.2 7.2 9.7-1.1.7-1 1.3 1.1 2.8 1.3 1.1 2.8 1.7 3.2 1.5 1.5-1 4.8.8 4.8 2.5 0 1 1.1 2.8 2.5 4.1 1.4 1.3 2.5 3.4 2.5 4.6 0 1.6 1 2.8 3.5 4 3.9 1.8 3.9 1.8 2.5 4.5-.8 1.3-.7 1.9 0 1.9s1 .6.7 1.2c-.2.7.2 2.9.9 5 .7 2 1 3.9.7 4.1-.3.3-.2 1.5.2 2.7.5 1.7 1.2 2 3.4 1.5 2.3-.5 2.8-.1 3.9 2.7.9 2.4.9 2.9 0 2-1.7-1.7-2.8-1.5-2.8.4 0 1 .5 1.2 1.3.7.6-.4.4.4-.5 1.9-.9 1.4-1.4 2.9-1 3.3.4.3 1.2 2.1 1.8 3.8 1 2.9.8 3.4-2.2 6.3-3 3-3.1 3.4-1.5 4.8.9.8 1.8 3 1.9 4.8.1 1.8.7 4.9 1.4 6.8.8 2.6.8 3.5-.1 3.8-.8.3-.5.9.8 1.8 1.7 1.3 2 2.2 1.5 6.2-.7 5.6-2.5 10.2-4 10.2-1.2 0-3.4 8.6-3.4 13.7 0 2.7-.3 3.4-1.5 2.9-1.9-.7-8.2 5.1-9 8.4-.4 1.8 0 3.4 1.5 5.3 1.8 2.2 1.9 2.7.6 2.7-.9 0-1.6.5-1.6 1.1 0 .5.5.7 1 .4 2-1.3.9 2.2-1.4 4.5-1.4 1.2-2.8 3.5-3.1 5.1-.4 1.6-1.3 2.9-2.1 2.9s-1.4.7-1.4 1.5c0 1.7-.6 1.7-3.5.5-1.4-.5-3.2-.1-5.7 1.3-3.9 2.1-4.1 2.7-3.8 8.4.1 2.7-.2 3.1-1.8 2.6-1.1-.2-2.3 0-2.6.6-.4.6-1.8.8-3.2.5-1.8-.5-2.4-.2-2.4 1 0 2-3.9 5.6-6.1 5.6-.9 0-2.2.7-2.9 1.5-.7.8-2.2 1.5-3.4 1.5-3.6 0-5 1.4-3.7 3.8.9 1.7.8 2.3-.5 3-1.4.8-1.4 1-.1 1.5 1 .4 1.4 1.9 1.3 5.4-.1 4.9 1.8 8.3 4.8 8.3.8 0 1.8.9 2.1 2 .4 1.2 1.5 2 2.9 2 1.2 0 3.4 1.3 4.8 2.9 2.7 3 2.9 3 14.3 1.7 3.2-.4 4.7 0 6.7 1.7 3.1 2.6 4.7 6.7 2.6 6.7-.7 0-1.9.9-2.6 2-.8 1.4-.9 2-.1 2 .6 0 .9.7.5 1.5-.3.8-.1 1.5.4 1.5.6 0 1 .5 1 1.2 0 .6 1 2.2 2.2 3.5 1.6 1.7 2.2 3.6 2.2 7.1.1 2.6.5 5.3.9 5.9.6 1 .2 1.1-1.7.4-1.8-.7-2.8-.6-3.6.5-1.6 1.9-2.7 1.8-6-.6l-2.9-2-.3 2.2-.3 2.3-2.7-2.7c-1.6-1.5-2.8-2.2-2.8-1.5 0 .7 1.3 2.5 3 4 1.6 1.6 2.9 3.1 2.9 3.5-.3 1.9.2 3.3 1 2.8.9-.6 6.1 4.1 6.1 5.6 0 .5-1.2 2.1-2.6 3.5-2.3 2.3-2.4 2.9-1.4 4.9 1.1 2 .9 2.5-1.6 4.8-1.6 1.4-3.7 2.6-4.7 2.6-1.7 0-2.6 1.3-3.1 4.4-.1.8-1.2 2.4-2.4 3.4-1.9 1.7-1.9 2-.6 3.4 1.3 1.3 1.3 1.6-.1 2.8-1.3 1.1-1.8 1-3.3-.4-1.7-1.5-1.7-1.2.1 4.5 1.3 3.8 2.9 6.7 4.4 7.6 1.3.8 2.3 2.3 2.3 3.2 0 .9.6 2.9 1.2 4.3 1.1 2.3 2.1 2.8 7.1 3.3 5.1.6 6.1 1.1 8.5 4.3 1.8 2.4 2.3 3.7 1.5 3.9-.9.3-1 1-.3 2.4.6 1 .9 1.9.6 1.9-.2 0 .2 2 .9 4.5.8 2.4 1 4.7.6 5-.5.2-.6 1.6-.4 2.9.4 2.1.2 2.4-1.5 2-1.5-.4-2.1 0-2.4 2-.3 1.5-.2 2.9.3 3.2.4.2.6 1.1.3 1.8-.7 1.7 6.1 7.6 8.7 7.6 1.1 0 1.8-.4 1.5-.9-1.3-2.1.6-3.8 4-3.5 1.8.1 3.4-.2 3.4-.7 0-.5.5-.9 1-.9.6 0 1 1.5 1 3.4s.5 3.8 1 4.1c.6.3 1 1.7 1 3.1 0 1.3.5 2.4 1 2.4.6 0 1.6 1.1 2.2 2.5.8 1.8 1.4 2.2 1.9 1.3.9-1.5 3.9.7 3.9 2.8 0 .8.3 1.4.8 1.4.4 0 .7 1.8.7 4 .1 2.9.8 4.5 2.9 6.5 2.2 2.1 2.7 3.1 2.2 5.3-.4 1.5-1.6 3.5-2.7 4.4-1.9 1.6-1.9 1.8-.3 4.3 1.6 2.5 1.6 2.7-.4 4.8l-2.1 2.2 3.4 3.2c1.8 1.7 4.1 4.6 5.1 6.3 1.5 2.5 2.5 3 5.4 3 7.8-.1 9.7.9 13.6 7.1 2.1 3.2 4.4 5.9 5 5.9.7 0 1.5 1.2 1.9 2.7.4 2 1.8 3.3 4.6 4.6 2.6 1.3 4.6 3.2 5.9 5.7 2 3.9 6.7 9.1 10.6 11.7 1.3.8 2.1 2 1.8 2.8-.4.9.4 1.1 2.6.9 4.2-.5 5-1.1 5-3.9 0-1.5.7-2.6 2-3 1.3-.4 2-1.5 2-3.2 0-1.6-.7-2.7-2-3-1.1-.3-2-1-2-1.5s-.5-.6-1-.3c-.6.4-.5-.8.3-2.7.9-2.3 2.3-3.5 4.5-4.2 1.8-.5 3.2-1.3 3.2-1.8s.9-.4 1.9.2c1.6.8 2.3.5 4-1.6 1.9-2.4 2.2-2.4 4.8-1.1 1.5.8 3.4 1.2 4.1 1 .7-.3 3.5.3 6.2 1.3 4.9 1.8 5 1.8 7.3-.4 1.5-1.4 3-2 4-1.6 1.2.4 1.7.1 1.7-1.1 0-1.2.6-1.6 2-1.2 1.2.3 1.8.1 1.4-.5-.5-.7.8-.8 4-.4 3.1.5 4.6.4 4.6-.4 0-.7.8-.9 2.1-.5 1.2.4 2.8.8 3.6.9.8.1 1.8.8 2.3 1.5.4.8 1.3 1 1.9.7.6-.4 1.9-.3 2.8.3 1.3.7 2.1.5 3-.7 1.1-1.5 1.4-1.5 2.3-.2.5.8.7 2.1.5 2.9-.3.8.2 2.5 1 3.8.9 1.3 1.3 2.8 1 3.2-2.1 3.5 4.7 7 15.2 7.8l7.2.6 1.1 4.8c.7 2.7 1.2 6.6 1.2 8.7 0 2 .4 4.2 1 4.9.6.8.5 1.9-.2 3.3-.7 1.2-1 3.8-.8 5.6.3 2.8.1 3.4-1.5 3.4-1.3 0-1.7.5-1.3 1.5.3.8-.2 1.8-1 2.3-1.3.7-1 1.3 1.7 3.5 2.4 1.8 3.6 2.3 4.1 1.4.5-.8 1.7-.3 4 1.8 1.8 1.6 3.7 3.3 4.1 3.6.5.4-.5 2.1-2.2 4l-3.1 3.3 2.2 2.3c1.2 1.3 1.6 2.3 1 2.3-.7 0-1.2 1.2-1.2 2.6 0 2 .9 2.9 4.8 4.6 2.6 1.1 5 2.5 5.4 3.1.9 1.5.7 7.8-.3 7.1-.5-.3-.9-.1-.9.5 0 1.2-3.2.3-4.1-1.2-.3-.5-.9-.1-1.3.8-.4 1.2 0 1.8 1.4 2.2 1.9.5 1.9.6-.2 2.9-2.1 2.1-2.4 2.1-4 .7-2.2-2-2.2-1.5-.2 2.7 1.5 2.9 1.5 3.4.2 4.4-.9.6-1.9 2.6-2.2 4.4-.4 1.7-1.3 3.2-1.9 3.2-.7 0-1.8.9-2.4 1.9-.8 1.2-2 1.8-3.3 1.6-1.5-.3-2 .1-2 1.7 0 1.1-.8 2.7-1.7 3.4-1.7 1.3-1.7 1.3 0 1.4.9 0 1.8.6 1.8 1.2.6 5.6.5 7.6-.6 9.4-1.9 3-2 6.3-.5 11.2 1.4 4.4 5 7.8 5 4.7 0-1.4.8-1.6 7.3-1.8 1.5-.1 2.7-.4 2.7-.8s.6-.7 1.3-.6c4.3.1 6.7-.5 6.7-1.7 0-.9.7-1.2 2-.9 1.1.3 3.3 0 4.9-.7 2.4-1 3.4-.8 6.6.9 4.6 2.4 8.8 8.7 6.7 10-.7.4-.8 1.2-.2 2 .9 1.6-.6 6.8-2.6 9.2-3.3 3.8.5 9.2 5.7 8.2 2.2-.4 2.7 0 3.7 3.5.7 2.2 1.2 5.8 1.2 8 0 3.6.3 4.2 2.5 4.8 1.4.3 2.5 1.2 2.5 1.9s1 2.4 2.1 3.9c1.2 1.5 1.9 3 1.5 3.3-.3.3.5 2 1.8 3.7 2 2.7 2.3 3.8 1.6 7.8-.6 4.5-.6 4.8 2.2 5.7 1.5.6 2.8 1.6 2.8 2.3 0 .7 1.2 2.2 2.6 3.3 2.4 1.9 2.5 2.4 1.4 4.2-2.1 3.4.4 7.8 6.8 12 5 3.3 5.6 3.5 6.7 2 1-1.4 1.7-1.5 4.4-.6 1.7.6 4.1.9 5.2.6 2.7-.7 4.9.1 4.9 1.9 0 1.2.4 1.3 2.8.1 2.8-1.4 5.8-1.2 7.9.5 1.7 1.4 4.3.3 4.3-1.8 0-2.5 2.2-.3 5.4 5.6 1.7 3.2 2.5 5.7 2.1 7-.5 1.7.2 2.4 4.7 4.5 6.6 3.1 6.7 3.1 11.3 0 2.7-1.9 4-2.3 5-1.5.7.6 1.7 1 2.1.9.5-.1 2.6.1 4.7.5 4.8 1.1 7.6-.7 5.2-3.4-1.7-1.9-1.9-3-.6-3 .5 0 1.2.8 1.5 1.7 1 3 12.3 7.4 13.6 5.4.4-.8 1.4-.5 3.2.9 1.5 1.1 3.4 2 4.3 2 2.4 0 4.6 3.1 3.4 4.6-.6.8-.5 2.1.2 3.8.9 2 2.2 2.8 5.2 3.3 2.2.3 4.1 1.3 4.5 2.2.8 2.2 3.4 4.1 4.9 3.6 1.6-.5 2.2 1.9 1.9 8.3-.2 6.1.8 7.4 5.9 7.7 1.9.1 4.1.8 4.9 1.5 1.8 1.4 6.9.6 10.5-1.7 2.3-1.5 2.6-1.4 4.3.7 2.1 2.5 2.3 4 .7 4-.8 0-.8.5.1 1.5.8.9 2.9 1.5 5.6 1.5 4.2 0 9.3 1.6 10.5 3.4.9 1.2-.2 9-1.2 9.4-1.7.7 1.5 10.2 3.3 10.2 1.3 0 3.8 2.6 3.8 4.1 0 .9.4.8 1.5-.1.8-.7 1.5-1.9 1.5-2.6 0-.7.6-1.1 1.3-.8.8.3 2-.2 2.7-1.1 2-2.4 3.3-1.9 9.2 3.9 3 3 6.4 5.6 7.4 5.8 1 .2 1.9.8 1.9 1.3 0 .6.9 2.5 2 4.2 1.3 2.3 2.5 3.1 3.6 2.8 1-.4 2.3.2 3.1 1.2.7 1 2.2 2.4 3.3 3 10.1 6.3 10.4 6.4 12.4 5.4 1.3-.7 2.2-.8 2.6-.1 1 1.7 2.5 1.1 2.5-1 0-1.3.7-2 2-2 1.1 0 2-.5 2-1.1 0-1.2 5.9-.9 7.8.4 1.7 1.3 1.5 3.7-.2 3.7-1.8 0-2.9 1.6-1.3 1.9.7.1 4.1.3 7.7.5 3.6.2 7 .5 7.5.6.6.2 2.4-.2 4-.9 1.7-.7 4.4-1.5 6.1-1.8 2.3-.4 3-1 3-2.7-.1-1.3.4-2 1.3-1.8.9.2 1.2-.5.9-2.3-.5-2.4 1.1-4.8 2.8-4.3 1.7.5 6.4-4.6 6.4-6.9 0-1.3-.4-2.2-.9-1.8-.5.3-1.2.1-1.5-.4-.3-.5.1-1.1.9-1.5.8-.3 1.5-.1 1.5.4 0 .6.6 1 1.3 1 .8 0 2.2.9 3.2 2s2.6 2 3.6 2 2.1.9 2.4 2c.8 2.5 2.9 2.7 2.2.1-.7-2.8 2.9-1.5 5.3 1.9 2 2.8 8.7 6.7 9.7 5.6.3-.3.7-1.9.9-3.6.5-4.3 2.2-7 4.3-7 2.5 0 3.3-5.3 1.4-9.1-.9-1.8-1.1-3.8-.7-5.1 1.2-3.6 1.2-12.1.1-14.8-1.4-3.4-1-5 1.9-7.3 2.1-1.6 2.4-2.5 1.8-5.1-.3-1.7-.3-2.7.2-2.3.5.5.9 1.3.9 1.8s.5 1 1 1.1c.6 0 1.6.8 2.3 1.7 1.2 1.4 1.3 1.4.8-.2-.7-2.1.7-2.2 2.4-.2 1 1.3.9 1.9-.6 3.6-2.7 3-2.4 7 .7 9.7 3.5 2.9 5.7 2.8 6.9-.3.9-2.5 1.1-2.5 3.8-1.1 2.6 1.3 3.1 1.3 4.4 0 1.4-1.4 1.6-1.3 2.2.8 1 3.4 6.3 7.3 8 5.9 1-.8 1.6-.7 2.6.4.7.8 2.2 1.5 3.4 1.5 2.9 0 5 1.5 4.2 2.9-.4.6.7 2.8 2.4 4.8 2.2 2.5 3 3 2.6 1.6-.6-1.8-.3-2 2.2-1.8 1.6.1 4.2 1.1 5.8 2.2 1.6 1.1 3.9 2.4 5.2 2.7 1.2.4 2.7 1.6 3.2 2.7.6 1 1.9 1.9 3 1.9 1.2 0 2.6 1.2 3.5 3 .9 1.6 2.2 3 3 3 .8 0 1.8 1.2 2.1 2.7.4 1.5 1.8 3.6 3.1 4.6 1.3 1 2.3 2.7 2.3 3.8 0 1.1.4 1.8 1 1.4.5-.3.7-1.2.3-2-.3-1 .1-1.5 1.3-1.5.9 0 2.5-.7 3.5-1.6 1.6-1.4 2.1-1.4 5.1-.1 1.8.8 4.1 1.7 5.1 2.1 1.2.4 1.7 1.6 1.7 4.4 0 2.8.7 4.5 2.5 6.2 1.4 1.3 2.4 2.9 2.1 3.6-.3.7 1.3 1.3 4.4 1.7 6.5.8 11.9-.2 13-2.4.6-.9 2.5-2.3 4.4-2.9 3.1-1 4-.8 8.2 1.4 3.3 1.8 5 2.2 5.5 1.4.4-.6.9-.3 1.3 1 .6 1.7 1.3 2 3.6 1.5 2.2-.4 3.1-.1 3.6 1.1.4 1.1 1.8 1.6 4.5 1.6 3.4 0 3.9-.3 3.9-2.3 0-2 .5-2.4 3-2.4 2 0 2.6.3 1.8.8-1.8 1.2 1.3 4.2 3.4 3.4 1.5-.6 1.4-1.1-.5-4.3-2.3-3.8-2.6-6.1-1.5-10.4.4-1.8.2-3.1-.8-3.9-.7-.6-1.1-1.5-.8-2 .9-1.5 2-1 3.2 1.3.8 1.8 1.1 1.9 1.1.6.1-.9-.9-2.4-2.1-3.2-2-1.4-2.3-1.4-3.6.5-.8 1.1-1.2 2.9-.9 4 .8 3.1-2.8 2.3-5.3-1.1-1.2-1.7-2.8-3-3.6-3-.8 0-1.4-.6-1.4-1.3-.1-.6-2.3-3-5-5.1-3.2-2.5-5-4.7-5-6 0-1.5-1-2.5-3.1-3.3-1.7-.7-2.8-1.6-2.5-2.1.3-.5-.6-1.8-1.9-2.8-2.5-1.9-4.5-6.8-4.5-11.1 0-3.1 3.8-6.5 6.4-5.7 1.7.5 1.5.2-.6-1.5-1.6-1.3-2.8-3-2.8-3.9 0-1.2.3-1.3 1.2-.4 1.9 1.9 2.8 1.4 2.8-1.7 0-1.7.4-3.2.9-3.5 1.7-1.1 2-6.7.6-10.9-.8-2.3-1.1-4.4-.7-4.7 1.7-1.3 3.2-5.3 2.7-7-.3-1.1-.1-2.8.5-4 .6-1.1.7-1.9.3-1.8-1.8.5-5.3-2.8-5.3-4.9 0-1.9-.6-2.3-3-2.3-2.3 0-3.3-.6-3.9-2.4-1.1-2.6-6.6-4.3-8.6-2.6-1 .8-3.1.2-7.9-2.2-3.6-1.8-6.6-3.7-6.6-4.3-.1-.5-2-1.9-4.3-3-4.2-2-5.9-5.3-2.4-4.7.9.2 1.7-.3 1.7-.9 0-.7 1-3.5 2.2-6.1 1.7-3.7 2.7-4.8 4-4.5 2.5.7 4.6-5.7 5.8-17.1 1-10.4.7-12.2-2.2-12.2-1 0-1.6-.5-1.3-1 .3-.6-.1-1.3-1-1.6-1.2-.5-1.4-1.4-1-3.5.4-1.6.3-3.4-.1-4.1-.5-.7-.7-2.4-.6-3.8.2-1.8-.6-3.4-2.7-5.3-3-2.7-4-4.7-2.2-4.7.5 0 .6-1.5.2-3.3-.5-2.5-1.2-3.3-3.2-3.5-2.2-.3-2.9-1.2-4.4-5.7-1.7-5-1.7-5.6-.3-9.4 1.7-4.3 1.6-4.5-3.4-7.1-1.6-.7-2.8-1.9-2.8-2.6 0-.7-1.1-2.3-2.4-3.6-1.4-1.3-3-3.6-3.5-5.1-1-2.5-1.5-2.8-5.4-2.6-2.7.2-5.2-.4-7-1.5-1.6-1.1-3.8-1.6-5.2-1.4-1.7.4-2.5.1-2.5-.9 0-.8-.4-1.1-1-.8-1.2.7-8-5.6-8-7.5 0-.7-.8-1-2-.7-1.3.3-2 0-2-.9 0-1.9-2.4-1.8-7.2.6-2.3 1.1-4.9 2-5.8 2-1.8 0-2.4-3.8-.9-5.7 1.5-1.7-1.9-6-5.4-6.8-1.5-.4-2.4-1.1-2.1-1.6.3-.6-.2-.9-1.2-.7-1.5.2-2-.4-2.2-3.5-.2-2.7.1-3.7 1.1-3.7 2.2 0 4.1-5.5 4.5-12.8.1-2.1.7-3.2 1.7-3.2.8 0 1.5-.9 1.5-2s-.4-2-.9-2-1.3-.9-1.6-2c-.4-1.1-2.4-2.9-4.6-4-2.1-1.1-3.9-2.3-3.9-2.6 0-.3 1-1.4 2.2-2.4 2.1-1.6 2.2-2.1 1-5.2-.6-1.9-1.2-4.2-1.2-5.2 0-.9-1.2-3.3-2.6-5.2-2.5-3.2-2.5-3.6-1.1-5.2 1.5-1.7 1.8-6.5.4-7.9-1.2-1.1-.8-3.3.6-3.3 2.2 0 4.2-6.2 4.1-13 0-3.6-.2-7.2-.5-8-.2-.9.4-1.6 1.8-1.8 1.6-.2 2.5-1.3 3.1-3.5.5-2 1.5-3.3 2.8-3.5 5-.7 6.3-1.4 6.9-3.2.5-1.5 1.2-1.9 3-1.4 1.2.3 2.6.1 2.9-.5.4-.5 1.4-.7 2.3-.4 1.3.5 1.5.2 1-1.2-.4-.9-.2-2.3.3-3.1.6-.7 1-1.8.9-2.6-.3-2.6.1-3.7 1.9-4.1 1.3-.3 1.1-.6-1-1.5-2.9-1.2-4-2.9-1.2-1.8 1.1.4 1.9-.4 3-2.9.7-1.9 2.3-3.9 3.5-4.5 1.1-.6 1.9-1.9 1.7-2.8-.1-.9.1-2.3.5-3 .9-1.3-2.9-3.3-5-2.5-1.2.5-4.6-4.9-4.1-6.4.6-1.7-2.7-3.9-4.9-3.5-2.9.5-3.1-1.6-.2-2.6l2-.8-2.1-1.9c-1.6-1.4-2.3-1.6-3.2-.7-1.8 1.8-3.6 1.5-7.1-1.2-1.8-1.3-5.2-2.7-7.7-3.1l-4.5-.7 1.9 2.1 1.9 2.1-3.4-.7c-1.9-.3-3.5-1-3.7-1.5-.6-1.4-3.2-.9-3.2.7 0 2.1-1.7 1.9-3.7-.5-1.9-2.2-2.5-4-2.8-9.5-.2-4.1-2.1-6.1-6.1-6.8-2.2-.3-5.4-2.9-5.4-4.4 0-1.7-6.6-7.3-8.6-7.3-1.2 0-2.4-.3-2.8-.8-.4-.4-1.1-.7-1.4-.8-.7-.1-3-.9-6.8-2.4-1.4-.5-2.6-.4-3.3.3-.8.8-1.1.3-1.1-1.9 0-2.2.3-2.6 1-1.4.8 1.2 1 1.1 1-.6 0-1.2-.7-2.4-1.5-2.8-.8-.3-1.5-.1-1.5.4s-2 1.8-4.5 2.9c-2.5 1.1-4.5 2.4-4.5 2.8 0 .4-1.1.8-2.5.8s-2.5-.6-2.5-1.3c0-.6-.4-1.2-1-1.2-.5 0-.7-.7-.4-1.5.4-.9-.9-2.9-3.3-5.2-3.4-3.3-3.9-4.4-3.7-7.8.1-2.2-.3-4.6-.8-5.3-1.2-1.4.3-1.7 1.8-.2.6.6 2.7.4 6.1-.7 5-1.6 5.1-1.7 4-4.2-.6-1.4-2.1-4-3.4-5.6-1.2-1.7-2.2-4.2-2.1-5.5.5-7.9-.2-11.5-2.4-12.5-1.3-.6-2.3-1.5-2.3-2-.2-2.5-2-6.1-3.7-7.3-1.2-.9-1.7-2-1.3-3.3.4-1.1.2-2.6-.5-3.3-.6-.8-.9-2-.8-2.7.2-.8-1.6-2.3-3.9-3.4-2.5-1.1-4.3-2.6-4.3-3.6 0-.9-.6-2.2-1.4-2.8-1.2-1-1.3-.8-.9 1.1.3 1.3 1.3 3.1 2.1 4 1.4 1.6 1.3 1.8-.2 1.8-.9 0-2.5-.5-3.5-1.2-1-.6-2.7-.8-3.7-.4-1.5.6-1.6.9-.4 1.6.9.6 1.7.5 2.1-.2.8-1.2 3.6 2.7 4.1 5.7.3 2.2-.1 2.2-7.5.4-4-1.1-4.9-1-6 .3-1.6 2-7.5 4-8.2 2.7-.4-.5-1.5-.9-2.6-.9-1 0-1.9-.4-1.9-.9s-1-1.3-2.2-1.7c-1.6-.5-2.7-.1-4 1.6-1 1.2-1.8 1.9-1.8 1.5 0-.4-.6-.2-1.4.4-1.1 1-1.6.8-2-.7-1-3.2-4.3-3.4-5.1-.5-.8 3.5-3.2 5.6-5.5 5-1.3-.3-2.1.1-2.5 1.4-.4 1-1.5 1.9-2.7 1.9-1.7 0-7.7 5.2-7.7 6.6.1 2.1-1.5 2.5-8.3 2.5-6.7 0-7.6.2-7.1 1.6.4 1 .2 1.4-.4 1-.6-.4-1.3 0-1.7.8-.4 1.2-1.1 1.3-3.1.5-1.5-.6-3.2-.7-3.8-.3-.7.4-2.4.6-3.9.4-2-.2-2.8.2-2.8 1.3 0 2-4.6 3.2-6.4 1.7-1.1-1-1.5-.8-1.8.6-.5 2.6-7.5 2.7-8.4.1-.5-1.8-.7-1.8-1.8-.2-.8 1-2.1 1.5-3.3 1.2-1.7-.5-2-.1-1.9 3.1.1 3-.3 3.7-2.1 3.9-1.2.2-2.3 1-2.5 1.8-.2 1.1-.9 1-3.5-.6-3.5-2.1-4.2-3.7-1.8-4.2 1.1-.2.6-1.4-2-4.7-2.9-3.6-3.5-4-3.5-2.2 0 1.1-.4 2.1-1 2.1-.5 0-1 .8-1 1.7-.1 2.5-2.4 5.3-4.4 5.3-.9 0-1.6.4-1.6.8 0 1.1-5.8.3-6.6-.9-.3-.5-1.4-.9-2.5-.9-1 0-1.9-.7-1.9-1.5 0-.9-.8-3-1.7-4.8-.9-1.8-1.6-5.4-1.6-8.2.1-6.1-1.1-7.9-3.9-6.4-1.2.6-2.3.7-2.7.2-.3-.4-1.8-1.4-3.3-2-3.9-1.8-3.5-3 1.4-3.8 4.1-.7 9.7-5 8.3-6.3-.4-.4-1-.1-1.2.6-.4 1-.8 1-1.9.1-.8-.6-1.1-1.5-.8-2.1.3-.5.1-1.4-.4-2.1-.6-.7-1.2-2.3-1.4-3.7-.3-2.2 0-2.5 2.2-2.2 1.4.2 2.6.8 2.8 1.3.6 1.6 5.2 1 5.2-.6 0-2.1 1.3-1.9 3.5.5 1.5 1.7 1.9 1.7 3.2.5 1.1-1.1 1.1-1.9.3-3.5-.6-1.1-1.5-1.8-2.1-1.5-.5.4-.9.2-.9-.4 0-1.2-6-4.6-7.6-4.3-.7.1-1.4-.4-1.8-1.3-.3-.8-.1-1.5.5-1.5s.7-.9.3-2.3c-.4-1.2-.7-3.1-.8-4.1-.1-1.9-1.4-2.9-4.8-4-1-.3-2-1.8-2.4-3.3-.3-1.5-1.3-3.4-2.2-4.1-.9-.6-1.3-1.2-.9-1.2s-.2-1.7-1.3-3.7c-2.7-5.1-2.6-6.7.4-5.9 1.6.4 3.2-.1 5-1.5 1.8-1.4 2.6-1.7 2.7-.7.1.7.2 1.7.4 2.3.1.5.3 1.5.3 2.1.2 1.4 5.7.7 10-1.3 1.8-.8 4.1-2.7 5-4.1 2.9-4.5 9.4-11.2 11-11.2 1.2 0 1.2-.4-.3-2-1.3-1.5-1.4-2-.5-2 .8 0 2.6-1.2 4.1-2.6 2.3-2.2 2.6-3 1.8-5.2-1.2-3.1-.7-3.7 2.1-2.2 1.8.9 2.4.8 4-1.2 1.1-1.3 1.8-3.2 1.5-4.2-.2-1.1.3-2.5 1.3-3.2 1.4-1 1.5-1.7.6-4.1-.7-2-.8-3.4 0-4.5 1.4-2.4-.1-3.5-2.6-1.9-1.4.9-2.3 1-3.1.2-.8-.8-.1-1.4 2.2-2.2 1.8-.6 2.9-1.4 2.4-1.8-1.4-.9-2.2-4.7-1.2-6.2.4-.8.3-1.9-.3-2.7-2.5-3-.7-7.5 2.3-5.6.5.3.9-.2.9-1 0-.9.6-1.6 1.3-1.6.9 0 .9-.2 0-.8-.7-.4-1.5-2.7-1.9-5-.4-2.3-1.2-4.2-1.9-4.2-1.6 0-4.2-3-4.7-5.5-.2-1.2-1-1.9-2-1.7-.9.1-1.9-.2-2.3-.8-.3-.5-.1-1 .5-1s.8-.5.5-1c-.3-.6-1.8-1-3.2-1-1.8 0-2.4-.4-2-1.4.3-.8-.3-2.5-1.4-3.7-1.1-1.2-2.2-3.4-2.6-4.8-.6-2.8-5.8-9.2-13.9-17.4-2.8-2.9-5.4-6.4-5.8-7.9-.3-1.4-2.4-4-4.6-5.8-3.5-2.7-3.8-3.4-3-5.6 1.5-3.7 1.3-4.2-2-4.9-3.6-.8-6-3.9-6-7.8 0-1.5-.6-3-1.4-3.3-.8-.3-1.2-1.2-.9-2 .3-.8-.1-2.1-.8-3-1-1.3-1-1.7.2-2.5.8-.5 2.4-.9 3.5-.9 1.7 0 2.3-.8 2.7-3.6.4-2 .2-4.5-.3-5.4-.7-1.3-.4-2.2.8-3.4 2.2-1.9 1.9-8.7-.4-11.7-.6-.8-1.6-3.2-2.3-5.4-.7-2.2-1.5-4.6-1.7-5.3-.3-.6 0-1.2.8-1.2 1 0 1.3-2.4 1.2-10.5-.1-5.7.2-10.2.7-9.9.5.2 2.2-.2 3.9-1.1 2.3-1.2 3.5-1.3 5-.5 2 1.1 2.2.9 3.3-5.5.2-1.1.9-1.9 1.6-1.7 1.9.4 4.1-1.7 3.4-3.4-.3-.8.4-2.3 1.5-3.3 1.5-1.2 1.8-2.1 1.1-2.8-1.8-1.8 5.9-8.1 7.7-6.3 1.4 1.3 6.6 1.4 10.2 0 2.4-.9 3.2-1.8 3.2-3.7 0-2.2.4-2.4 3.2-2.1 3.1.3 3.3.1 4.1-3.9.8-4 1-4.2 3.7-3.7 2.4.5 3 .2 4.2-2.2.9-1.9 1.2-4.5.8-7.7-.6-4.5.1-6 1.5-3.6.5.7 1.6.3 3.1-1.2 1.7-1.6 3.1-2 5.2-1.6 3.4.7 7.4-1.6 6.6-3.8-.4-1 0-1.5 1.4-1.5 2.3 0 5-4.1 7.5-11.4.9-2.7 1.7-5.2 1.7-5.5 0-1.2-6.1-.6-6.8.6-1.1 1.8-4.4-.7-4.9-3.5-.7-4.7-.9-5.1-6.6-11-1.5-1.5-1.7-2.1-.6-1.7.9.3 2.1-.1 2.8-.9 1-1.2.9-2-.4-4-1.7-2.5-1.7-2.6.4-2.6 1.1 0 2.1-.6 2.2-1.3 0-.6.1-5.1.3-9.9.1-4.7.7-9.2 1.3-10 .9-1 .8-1.8-.3-3.2-.8-1.1-1.4-2.9-1.4-4 0-1.3-.3-1.7-.8-.9-1 1.7-4.5 1.1-6-1-.8-1-2-1.6-2.9-1.5-.8.2-1.9-.7-2.4-2-.7-1.9-.5-2.2 1.4-2.2 1.3 0 2.6-.9 3.2-2.3.6-1.2 2-2.6 3.2-3.2 1.6-.7 2.1-1.5 1.7-2.9-.7-2.2 1.4-6.6 3.3-6.6s1.6-.8-1.2-3.4c-1.4-1.3-2.5-2.7-2.5-3.2 0-1-10.8-6.4-12.7-6.4-.7 0-1.3.9-1.3 2 0 1.6-.5 1.9-2.9 1.4-3.3-.7-4.8.8-2.6 2.6 1.5 1.2.9 4.4-.6 3.4-.5-.3-.9.2-.9 1.1 0 1.3-.6 1.5-3.2 1-1.8-.4-4.6-1.4-6.3-2.3l-3-1.6 2.5-.7c1.4-.4 1.9-.7 1.2-.8-.8-.1-1.2-1.1-1.1-2.4.1-1.2-.1-3.4-.6-5-.6-2.2-1.3-2.7-3.7-2.7-2.2 0-2.9.4-2.5 1.4.3.8-.1 1.7-.9 2-1 .4-1.3 1.3-.9 2.5.5 1.6.2 1.9-1.7 1.7-1.3-.1-2.9-.5-3.5-.9-.6-.4-1.8-.5-2.6-.1-2.3.8-9-6.9-9.4-11-.4-3.8-5.3-9.6-8.1-9.6-.9 0-2.4-.5-3.2-1-1.3-.9-1.3-1.1-.1-1.9 1.2-.8 1.3-1.4.3-3.5-1.1-2.4-1-2.6 1.3-2.6 2.6 0 3.3-1.8 1.4-3.7-.7-.7-.3-1.2 1.5-1.7 3-.7 3.5-4.4 1.2-8.8-1.3-2.5-1.3-2.8.6-3.4 1.7-.5 2-1.2 1.5-4.6-.3-2.3 0-4.9.6-5.9 1-1.6.8-2.3-1.3-4.1-3-2.8-4.6-2.8-8.3-.4-1.5 1-3.1 1.6-3.4 1.2-.4-.4-1.2 1-1.8 3l-1 3.7-4.3-3.7c-5.2-4.3-6.4-4.4-8.6-1.2-.9 1.4-3.6 3.4-6.1 4.5-3.3 1.5-4.5 2.5-4.5 4.1 0 2-.5 2.2-3.8 1.8-3-.2-4.2.1-5.4 1.7-1.3 1.7-1.4 2.4-.3 3.8 1 1.4 1 2.6.2 5.2-.6 1.9-1.4 3.5-1.8 3.5-.5 0-.6.7-.2 1.6.5 1.4.3 1.5-1.5.5-1.9-1-2.2-.9-2.2.8 0 1.1-.5 2.3-1 2.6-.6.4-2.1 2.4-3.5 4.4-1.3 2.1-3.7 5.3-5.3 7.1-2.6 2.8-3.5 3.2-6.3 2.6-2.6-.5-3.6-.1-5.9 2.1-7.3 7.6-7.7 7.7-10.5 5.9-2.5-1.7-5.1-1.4-4 .5.4.5.3 1-.2 1-.4.1-2.1.3-3.6.5-1.5.1-4.3 1.2-6.2 2.4-1.9 1.2-3.9 1.9-4.4 1.5-1.4-.8-4.9 2.9-5.7 6-.3 1.4-1.3 2.5-2.1 2.5s-1.1.5-.7 1.1c.8 1.3-2.5.4-6.8-1.8-1.6-.7-2.8-1-2.8-.5s-1.7.8-3.7.7c-2.1-.1-4.1.3-4.4.7-.3.5-2 .1-3.7-.9-2.6-1.5-3.5-1.6-5.2-.5-1.7 1-2.8.9-6.9-1.3-2.7-1.3-5.2-2.9-5.5-3.4-.7-1.1-7.8-.2-8.6 1-.5.8-4.1-.3-10-2.8-1.4-.6-4-1.7-5.7-2.3-1.8-.7-3.3-1.6-3.3-2 0-.5-.9-.6-2-.3s-2 1-1.9 1.7c.2 2.2-1.4 5.7-2.5 5.3-.6-.2-1.9.7-2.9 2s-2.6 2.3-3.6 2.3c-.9 0-2.5.9-3.5 2.1-1.6 1.9-1.9 2-3.4.5-3.3-3.1-8.6-7.1-7.8-5.9 1.8 3-5.1-.3-9.2-4.4-1.8-1.8-4.4-3.6-5.9-3.9-2.4-.6-2.5-.9-2-5.5.3-2.7.2-5.1-.2-5.3-.4-.3-.6-1.9-.3-3.6.5-3.8-1.5-9-3.6-9-.9 0-2.8-1.2-4.3-2.6-2.6-2.5-10.9-5-10.9-3.3 0 .5-1 1.7-2.2 2.9-2 1.8-2.3 1.9-4 .3-1-.9-1.8-2.3-1.8-3.1 0-.9-1-2.6-2.2-3.9-2-2.1-2-2.3-.4-1.7 1.3.5 1.7.4 1.3-.4-.4-.6-2.1-1.3-3.7-1.7-1.7-.4-3-1-3-1.5 0-.4-1.9-3-4.3-5.6-2.4-2.7-4.6-5.7-5-6.7-.3-.9-1.5-1.7-2.5-1.7-1.8 0-4.2-1.8-4.2-3.2 0-.4.6-.8 1.3-.8 1.1 0 1.4-2 1.3-8.4 0-4.7-.3-8.3-.8-8-.4.2-1.8-1.1-3.1-3-1.8-2.7-2.6-3.3-3.5-2.4-.9.9-1.5.9-2.3.1-.8-.8-.8-1.3.1-1.8.8-.5.6-1.1-.7-2.1-1.5-1.1-1.5-1.3-.3-1.4 1.1 0 1.6-1 1.5-3.2 0-3.8-1.3-4.3-4.2-1.4zm-25.8 125.6c.3.5.1 1-.4 1-.6 0-1.1-.5-1.1-1 0-.6.2-1 .4-1 .3 0 .8.4 1.1 1zm338.5 297.6c0 1.6-2.6 1.9-3.5.4-.3-.6-.4-1.4 0-2 .8-1.3 3.5-.1 3.5 1.6zm138.5 103.4c.3.5.2 1-.4 1-.5 0-1.3-.5-1.6-1-.3-.6-.2-1 .4-1 .5 0 1.3.4 1.6 1zm81.5 97.4c0 .3-.4.8-1 1.1-.5.3-1 .1-1-.4 0-.6.5-1.1 1-1.1.6 0 1 .2 1 .4zm-61.9 5.3c1.3 1.5 1.2 1.5-1.1.3-3.4-1.7-3.6-2-1.8-2 .9 0 2.2.7 2.9 1.7zm-10.1 7.8c-1.4 1.7-.3 8 1.6 9.6 2 1.6 1.8 4.9-.3 5-1.3 0-1.1.3.6 1 1.4.5 3 .8 3.6.5 2.3-.8 3.8 1 2.7 3.1-.8 1.5-.8 2.4.1 3.3 1 1 .9 1.2-.5.7-.9-.3-2.2.1-2.9.9-1.1 1.4-1.4 1.3-2.1-.5-.5-1.6-1.5-2-4.3-1.9-2 .1-3.8.5-4.1 1-.3.5-1.2.1-2-.9-1.6-2.2-1.8-3.7-.3-2.7.8.4.9-.1.4-1.5-.4-1.4-.1-2.9.8-3.9 1.8-2.2 2.9-5.2 1.8-5.2-.5 0-1.1-.9-1.4-2.1-.4-1.4-.2-1.9.8-1.5 1.9.7 2.9-2.6 1-3.6-2.2-1.3-1.9-3.1.4-2.5 1.4.3 1.8.1 1.4-1-.5-1.3-.3-1.3 1.6-.3 1.7.9 2 1.4 1.1 2.5zm-376.4 4c-.3.9.4 2.1 1.8 3 1.3.9 2.6 2.5 2.9 3.5.3 1.2 1.4 2 2.6 2 1.2 0 2.1.5 2.1 1.1 0 .5-.4.7-1 .4-.5-.3-1-.1-1 .4 0 1.4-4.7 1.4-5.5.1-.3-.6-1.5-1-2.6-1s-2.2-.7-2.5-1.5c-.7-1.8-2.6-1.9-4.2-.3-1.5 1.5-5.2 1.8-5.2.5 0-.5-.8-1.6-1.7-2.3-1.6-1.2-1.2-1.4 3.3-1.2 5.9.2 7.4-.5 6.7-3.1-.3-1.3.1-2.1 1.4-2.4 3.2-.8 3.5-.7 2.9.8zm16.2 4.7c.4 2-2.5 3.1-4.6 1.8-1.1-.6-1.2-.9-.4-1 .9 0 1.1-.7.7-2-.5-1.7-.3-1.9 1.7-1.1 1.3.4 2.4 1.5 2.6 2.3zm-54.9 7c1.1 1.8 1 1.9-1.1 1.3-2.5-.8-3.8-2.2-3.8-4.3 0-1.6 3.2.3 4.9 3zm430.8-.6c-.3.3-1.2.4-1.9.1-.8-.3-.5-.6.6-.6 1.1-.1 1.7.2 1.3.5zm-448.8 16.3c.8 1.4.6 2.3-1 3.7-2.8 2.5-4.8.5-2.9-3.1 1.6-3 2.6-3.1 3.9-.6zm440.6 269.1c.3.5.2 1-.4 1-.5 0-1.3-.5-1.6-1-.3-.6-.2-1 .4-1 .5 0 1.3.4 1.6 1zm-1.9 2.4c1.2-.3 2.4.3 3.3 1.7 1.1 1.9 1.1 2.3-.3 3.1-.9.5-1.6 1.7-1.6 2.6 0 3.3-1.4 4.4-4.5 3.2-1.9-.7-3.1-.7-4 0-.7.6-1.9.9-2.6.7-.8-.2-1-.2-.6.1.5.2-.4 1.7-1.9 3.3-1.6 1.7-3.2 2.5-3.8 2.1-1.7-1.3-9-3.2-12-3.2-2.9 0-6-1.3-8.8-3.8-2.5-2.1-.6-5.4 2.4-4.3 1.7.6 3 .2 5.1-1.3l2.9-2.1 2 2.5c1.8 2.3 2.1 2.3 3.3.7.7-.9 2-1.7 2.9-1.7 1 0 1.6-.8 1.6-2.2 0-2 .1-2 1.8-.5 1 1 2.2 1.7 2.7 1.7s0-.7-1.1-1.5c-1.7-1.4-1.5-1.5 3.4-1.2 2.8.2 5.2-.1 5.2-.6s.6-.5 1.3.1c.7.6 2.2.9 3.3.6zm-38.6 6.3c0 .5-.5 1.5-1 2.3-.7 1.1-1 1.1-1 .2 0-.7-1-1.7-2.2-2.2-2.1-.8-2-.9 1-.9 1.7-.1 3.2.2 3.2.6zm95 2.8c0 .1-.7.8-1.5 1.5-1.3 1-1.5.9-1.5-.8 0-1.5.5-2 1.5-1.6.8.4 1.5.7 1.5.9zm-185 6.7c0 .4-.7.8-1.5.8s-1.5-.4-1.5-.8c0-.5.7-.9 1.5-.9s1.5.4 1.5.9zm312 6.9c0 .5-.4.9-1 .9-.5 0-1-.7-1-1.6 0-.8.5-1.2 1-.9.6.3 1 1 1 1.6zm-171.5 35.9c.3.6-.1.7-.9.4-1.8-.7-2.1-1.4-.7-1.4.6 0 1.3.4 1.6 1zM555.366 9.859c-2.9 2.7-3.6 6.6-1.2 6.6 1 0 1.5-1 1.5-2.6 0-1.5.8-3.3 1.7-4 1-.7 1.5-1.5 1.2-1.8-.3-.4-1.8.5-3.2 1.8zM549.166 18.959c0 2.3.1 2.4 1.3.8.6-.9 1.2-2 1.2-2.5 0-.4-.6-.8-1.2-.8-.7 0-1.3 1.1-1.3 2.5zM89.966 41.159c-2.4.5-3 1.8-1.3 2.8.6.3 1 1.7 1 3s.5 2.7 1.1 3.1c.8.5 1-.3.7-2.5-.2-1.7-.1-3.1.3-3.1.3 0 .9-.9 1.2-2 .3-1.1.2-1.9-.1-1.9-.4.1-1.7.4-2.9.6z"/><path d="M99.666 50.459c0 2.7.4 4 1.4 4 1.9 0 2.7-2.5 1.3-4-1-1-.2-1.1 3.5-.6 4.6.5 4.7.5 3.6-1.4-1.4-2.2-4.4-2.7-5-.9-.3.9-1 .9-2.6 0-2.1-1.1-2.2-1-2.2 2.9zM563.566 46.659c-.8 1.8-.4 5.7.8 7.5 1.8 2.8 5.6 3.2 4.6.5-.6-1.5-.5-1.5 1-.3 2 1.6 2.1 1.1.6-2.2-.9-2-6.6-6.5-7-5.5zM91.266 52.259c-.3.5.9 1.6 2.5 2.6 2.3 1.3 3.4 1.5 4.2.7.8-.8.7-1.1-.5-1.1-.9 0-1.8-.7-2.2-1.5-.6-1.6-3.1-2-4-.7zM575.666 56.559c-1.4.4-2.1.7-1.6.8.5.1.2.9-.8 2-1.9 2-1.1 5.5 1 4.7.9-.4 1.4.2 1.4 1.5 0 1.1-.4 1.8-.9 1.4-1.5-.9-2.4 1.4-1.2 2.9.6.7.9 2 .6 2.7-.4 1 .6 1.5 3.5 1.6 2.2.2 5 .8 6.2 1.4 1.7.9 2.4.8 3.3-.4 1.7-2.3 9.5-1.2 9.5 1.4 0 2.4-1.8 3.3-3.5 1.9-1.8-1.5-1.9-.3-.5 3.5.7 1.8 1.5 2.5 2.5 2.1 2.3-.8 4.5.4 4.5 2.5 0 2.5 3.1 2.5 4.9 0 .8-1.1 2-1.7 2.8-1.4.7.3 1.3 0 1.3-.6s-1.2-1.6-2.6-2.1c-1.4-.6-2.2-1.4-1.9-2 .3-.5-.1-2-.9-3.2-.9-1.2-1.3-3.1-1-4.5.4-1.6-.2-3.2-2.1-5.5-1.6-1.8-3.1-3.1-3.4-2.8-.3.3-1.9-1.6-3.6-4.1-2.7-4.1-3.2-4.5-4.4-3.1-1.2 1.3-1.6 1.3-2 .1-.7-1.5-6.9-2-11.1-.8zM133.166 73.459c-.3.5-.2 1 .4 1 .5 0 1.3-.5 1.6-1 .3-.6.2-1-.4-1-.5 0-1.3.4-1.6 1zM360.166 91.459c.3.5.8 1 1.1 1 .2 0 .4-.5.4-1 0-.6-.5-1-1.1-1-.5 0-.7.4-.4 1zM349.166 93.459c-.3.5-.1 1 .4 1 .6 0 1.1-.5 1.1-1 0-.6-.2-1-.4-1-.3 0-.8.4-1.1 1zM352.666 94.359c0 .5-.9 1.3-2.1 1.6-1.5.5-1.8 1-1.1 1.7 1.6 1.6 7.2-.9 6.5-2.8-.6-1.6-3.3-1.9-3.3-.5zM101.766 139.459c-.5 1.6-1.4 3-1.9 3s-.7 1.1-.4 2.5c.4 2.3.2 2.5-3.8 2.5-3.7 0-4.1.2-3 1.5.7.8 2 1.5 3 1.5 2.5 0 8-6.6 8-9.5 0-1.3.8-2.9 1.8-3.4 1.5-.9 1.5-1-.5-1.1-1.5 0-2.4.9-3.2 3zM92.766 153.659c-.1 2.7-4.6 6.9-6.6 6.2-2.1-.8-3.5 1.1-3.5 4.8 0 2.1-.5 2.8-2 2.8-1.1 0-4 2.1-6.4 4.6l-4.4 4.6 2.7 4.6c3.1 5.4 4.3 9 3 9.4-.5.2-.4 1.9.1 3.9 1.5 5.3 0 8.8-3.4 8.2-2.1-.4-2.6-.2-2.6 1.6 0 1.1-.4 2.1-.9 2.1s-1.2 1.1-1.5 2.5c-.4 1.4-1.7 3.1-3 3.6-2.3 1.1-2.3 1.3-1 4.4 1.1 2.8 1.1 3.5-.1 4.5-.8.6-1.9.9-2.5.5-.6-.4-1 .6-1 2.7 0 1.8-.7 4.6-1.5 6.2-.8 1.5-1.5 3.4-1.5 4.1 0 .6-.9 2-2 3-3 2.7-5.2 7.7-4 8.9.7.7 1 .6 1-.2s.7-.9 2.6-.2c1.4.6 4.1 1 6 1 2.4 0 3.4.4 3.4 1.6 0 2.6 4.4 1.3 4.8-1.4.4-2.6 3-4.1 4.1-2.3.5.8 1.2.7 2.6-.3 1.6-1.1 2.4-1.1 5.4.1 2 .8 4.5 2.3 5.6 3.3 2.4 2.1 6.5 3.5 6.5 2.2 0-.5 1.7-.7 3.9-.5 2.8.3 4 0 4.4-1.2.8-1.8 3.3-2 4.1-.3.4.9 1 .6 2.2-1 .9-1.2 2.2-2.2 2.8-2.2.6 0 1.6-1.1 2.2-2.4.9-1.8.8-2.6-.5-3.5-1.4-1.1-1.4-1.1.1-.7 1.1.3 1.6-.1 1.5-1.3 0-.9.5-3.2 1.2-4.9 1.1-2.6 1.9-3.2 4.5-3.3 1.7-.1 3.8-.2 4.6-.3.8-.2 2.4-.3 3.5-.5 1.9-.2 1.9-.3-.4-2.1-2.8-2.4-5.7-2.6-7.7-.5-.9.8-2.6 1.5-4 1.5-1.3 0-2.4.4-2.4.9 0 .9-7.7.9-8.2 0-2.6-4.1-3.3-6.3-3.3-10.9-.1-3-.5-6.4-1-7.4-.7-1.7-.5-1.6 2.3.4 2 1.5 3.8 2.1 5.3 1.7 1.2-.3 3.1.1 4.4.9 2 1.3 2.3 1.2 3.4-1 .8-1.4 2.6-2.6 4.2-3 4.7-.9 4.6-3.1-.5-10.6-4.8-7.2-4.9-7.8-1.4-5.9 1.6.8 2.2.8 2.9-.2.6-1 1-1 2.3 0 1.3 1.1 1.4.9 1.2-1.5-.3-2.7-1.3-3.6-5.5-4.9-1.5-.5-2.1-.4-1.7.3 1 1.7-1.3 2.5-3.1 1.1-1.3-1.1-1.7-1-2.9.6-2 2.7-6 .7-6.9-3.4-.4-1.7-1.1-3.1-1.7-3.1-.6 0-.5-.7.3-1.6 1.1-1.4 1-1.8-.6-3.1-1.3-1-1.6-1.7-.9-2 .7-.2 1-1.2.7-2.2-.3-1 0-2.2.6-2.5 1.8-1.2 1.2-4.3-1.1-6-1.5-1-1.7-1.4-.5-1 1.3.5 1.6.2 1.1-1.2-.8-2.1-6-7.4-7.4-7.4-.4 0-1.1-.6-1.3-1.3-.3-.7-.6-.5-.6.5zm9.9 24.8c0 .5-.2 1-.4 1-.3 0-.8-.5-1.1-1-.3-.6-.1-1 .4-1 .6 0 1.1.4 1.1 1zm-3 3.1c0 .6-.4.7-1 .4-.5-.3-1-1.1-1-1.6 0-.6.5-.7 1-.4.6.3 1 1.1 1 1.6zm-7 54.9c0 .5-.4 1-.9 1-.6 0-1.3-.5-1.6-1-.3-.6.1-1 .9-1 .9 0 1.6.4 1.6 1zm-33 8.1c0 .6-.4.7-1 .4-.5-.3-1-1.1-1-1.6 0-.6.5-.7 1-.4.6.3 1 1.1 1 1.6zM123.766 184.059c-1.2 1.4-1.2 1.7 0 2.5.8.5 1.5.4 1.7-.1.2-.6 1.3-1 2.4-1 1.7 0 1.8-.3.8-1.5-1.6-1.9-3.1-1.9-4.9.1z"/><path d="M134.266 207.259c-.4.7-1.2 1-1.7.7-.5-.4-.9-.1-.9.4 0 .6-1.6 1.1-3.5 1.1-2.4 0-3.5.5-3.5 1.4 0 .8.5 1.6 1.1 1.8.6.2 1.2 1.5 1.2 2.9 0 2.5 0 2.5 4.7 1.6 3.2-.6 4.7-1.4 4.4-2.2-.3-.7.2-1.5 1-1.8 2-.8 2.1-4.7.2-4.7-.8 0-1.6-.5-1.8-1.2-.3-.9-.6-.9-1.2 0zm-3.5 4.9c1.3 1.6 1.2 1.7-.3.4-1.7-1.3-2.2-2.1-1.4-2.1.2 0 1 .8 1.7 1.7zM46.766 248.759c-.6 1.2-1.3 3.8-1.4 5.7-.1 1.9-.6 4.1-1 4.7-.5.7-.5 1.7-.2 2.3.3.6-.6 1.1-2.2 1.1-1.5.1-3.6.2-4.5.3-2.8.2-2.5 2 .6 3.4 3.4 1.7 7.3.8 8.1-1.8.3-1.1 1.1-2 1.6-2s.4-.9-.3-2c-1.1-1.8-1-2.3.9-3.8 1.9-1.4 2.1-2.4 1.6-6-.6-4.7-1.4-5.2-3.2-1.9zM30.966 262.859c-1.1 1.8-5.3 3.1-5.3 1.6 0-.7-1.3.2-2.9 1.9-2.9 3.1-3.8 3.5-7.8 3.1-1.3-.1-2.4.4-2.4 1.2-.1.7-.2 2-.3 2.8 0 .8-1 1.5-2.1 1.6-4.7.2-5.6.5-5 1.4.3.5.2 1-.2 1-.5 0-1 1.1-1.1 2.5-.1 1.6.3 2.5 1.3 2.5.8 0 1.5.7 1.5 1.5 0 2.3 5.3 11 7 11.3.7.2 3.1.4 5.2.4s4.1.4 4.4.9c.3.5.9.7 1.4.4.4-.3 1.3.2 2 1s1.6 1.2 2.1.9c.5-.3.9.2.9 1 0 1 .6 1.3 1.5 1 .9-.4 1.5 0 1.5.7 0 1.1.2 1.1.9 0 1.3-2-1.3-5.7-4.4-6.5-1.6-.4-3-1.9-3.9-4-.9-2.2-2.3-3.6-4.1-4-3-.8-6.4-4.2-6.5-6.6 0-.9 1.4-2.1 3.1-2.7 1.7-.7 2.9-1.6 2.6-2-.3-.4 1.5-.8 3.9-.9 2.6-.1 5.2-.8 6.2-1.7 1-1 2.3-1.7 2.9-1.7 1.8 0 2.1-4.8.4-6.4-1.1-1.2-1.2-1.6-.3-1.6.7 0 1-.5.7-1-.9-1.4-2.3-1.2-3.2.4zm-24.3 17.6c0 .5-.4 1-1 1-.5 0-1-.5-1-1 0-.6.5-1 1-1 .6 0 1 .4 1 1zM.166 280.459c.3.5.8 1 1.1 1 .2 0 .4-.5.4-1 0-.6-.5-1-1.1-1-.5 0-.7.4-.4 1zM596.666 429.459c0 .5.5 1 1.1 1 .5 0 .7-.5.4-1-.3-.6-.8-1-1.1-1-.2 0-.4.4-.4 1zM170.666 478.859c0 .8.6 1.6 1.3 1.9.6.2.8.8.4 1.3s-1.2.3-1.6-.5c-.5-.7-2.2-1.4-4-1.5-2.7-.2-3 .1-2.5 1.7.4 1.1 0 2.4-.7 2.9-1 .7-1.1 1.1-.2 1.4.7.3 1 1.1.8 1.7-.3.7-.1 1.9.5 2.7.7 1.2 1.2 1.2 2.2.2 1.4-1.4 4.2-1.6 3.3-.2-.6.9 1.4 1.4 4.3 1.1.6-.1 1.2.5 1.2 1.3 0 1-1.4 1.7-3.7 2.1-5.9 1-6.3 1.3-7 4.5-.3 1.8-1.1 2.9-1.7 2.7-.7-.3-2 .1-3 .9-1.6 1.1-1.7 1.6-.6 2.9.7.8.9 2.2.6 3.1-.4 1.2-.2 1.5.9 1.1.8-.4 1.7-.2 2 .3 1 1.6 5.7 1.1 7-.7 1-1.3 1.6-1.4 2.6-.7 2.5 2 8.9 2.5 9.6.8.4-1 .9-1.2 1.8-.4.9.8 1.4.6 1.9-.6.3-.9.4-2 0-2.5-.7-1.2 1.8-3.7 3.3-3.2 1.4.5 0-6.4-1.6-8-.6-.6-1.1-2.1-1.1-3.4 0-1.3-.4-2.3-.8-2.3s-1.4-1.6-2.1-3.5c-.8-2.4-1.9-3.5-3.2-3.5-1.1 0-3.5-1.1-5.3-2.5-3.8-2.9-4.6-3.1-4.6-1.1zm8 10c0 .3-.4.8-1 1.1-.5.3-1 .1-1-.4 0-.6.5-1.1 1-1.1.6 0 1 .2 1 .4zm-11 15.1c0 .8-.4 1.5-1 1.5-.5 0-1-.7-1-1.5s.5-1.5 1-1.5c.6 0 1 .7 1 1.5zM556.166 493.459c.3.5.8 1 1.1 1 .2 0 .4-.5.4-1 0-.6-.5-1-1.1-1-.5 0-.7.4-.4 1zM155.766 514.359c-1.9 1.4-2.1 2.2-1.3 3.7 1.3 2.3 5.5 6 6.2 5.4 1.2-1.2.7-3.2-1.1-4.3-2.4-1.5-2.5-5.4-.1-6 1.2-.3 1.3-.5.2-.6-.8 0-2.6.8-3.9 1.8zM154.166 528.559c-1 1.1-2.5 1.7-3.1 1.5-1.4-.6-2.9 1-3.8 4.1-.6 1.8-.4 2.1 1.4 1.6 1.2-.3 1.9-1.1 1.6-1.9-.4-.9.4-1.3 2.4-1.1 2.1.1 3 .7 3 1.9 0 .9.5 2 1 2.3 1.6 1 2.4-2.4 1-4.1-1-1.1-1-1.8-.2-2.6 1.6-1.6 1.5-3.8 0-3.7-.7 0-2.2.9-3.3 2zM581.166 546.459c.3.5.8 1 1.1 1 .2 0 .4-.5.4-1 0-.6-.5-1-1.1-1-.5 0-.7.4-.4 1zM793.266 616.159c-1.1 1.1-.6 2.3.9 2.3.8 0 1.5-.4 1.5-.9 0-1.3-1.6-2.2-2.4-1.4zM733.266 1010.359c-.4.5-.3 1.6 0 2.4.3.8.1 1.8-.5 2.2-.6.3-1.1 1.5-1.1 2.5s-.7 2.3-1.5 2.8c-1.3.7-1.1 1.1 1 2.2 1.4.7 2.5 1.9 2.5 2.5 0 .7.9 2 2 3 1.8 1.6 1.9 2 .5 3.5-1.7 1.9-1.1 3.2 1.2 2.3 1.7-.7 7.2 5.3 7.3 7.9 0 2.2 1.6 2.4 2.4.3.3-.8 1.4-1.5 2.4-1.5 2.4 0 10.4 3.9 11.8 5.8.8 1.1 2 1.3 4.6.8 2.4-.4 3.9-.2 4.6.7.7.8 2.4 1.2 3.9 1 1.6-.3 4.1.2 5.8 1.1 2.6 1.4 3.1 1.4 3.8.1.4-.8 1.5-1.5 2.3-1.5.8 0 2.3-.5 3.3-1.1 1.4-.9 2.5-.9 4.8.3 2.7 1.3 3.1 1.3 4-.1.7-1.2.4-2-1.4-3.4-2.3-1.8-3.3-6.7-1.3-6.7.6 0 1-1.1 1-2.4 0-1.9-.4-2.3-1.9-1.9-1.1.3-3.6-.6-5.7-2.1-2.1-1.4-4.5-2.6-5.2-2.6-.7 0-1.1-.4-.7-.9.7-1.2-2.5-3-4.2-2.4-.7.3-1.3-.3-1.3-1.1 0-1.2-.6-1.5-2.3-1.1-1.6.4-2.8 0-3.8-1.1-1.3-1.6-1.2-1.7 1.1-1.1 2.4.6 2.4.5-.5-1.8-1.6-1.4-3.3-2.1-3.8-1.6-1.3 1.3.4 6.3 2.4 6.8 1 .3 1.6.9 1.3 1.4-.3.5-.9.7-1.4.4-.4-.3-.6.3-.3 1.3.6 2.3-2.1 5.2-4.8 5.2-1.4 0-1.9.7-1.9 3 0 1.8-.5 3-1.3 3-.7 0-2 .9-3 2-1 1.2-2.3 1.8-2.9 1.4-.9-.6-.9-.9 0-1.2 1.9-.6-.5-3.2-2.9-3.2-1 0-2.3-.9-2.9-1.9-1.3-2.6-1.3-3.1.5-3.1 2.1 0 1.9-4.2-.4-6.6-1-1.1-2.1-2.9-2.5-4-.3-1-2.8-4.3-5.5-7.2-4.6-4.9-8.2-6.5-9.5-4.3zm55.1 31.3c.2 2.8.1 3-.7 1.2-.5-1.2-1.3-2.5-1.9-2.9-.6-.3-1.1-1.3-1.1-2.1 0-1.1.4-1.2 1.8-.5 1.1.6 1.8 2.2 1.9 4.3zm8.3 4.8c0 .5-.7.7-1.5.4-.8-.4-1.5-.8-1.5-1 0-.2.7-.4 1.5-.4s1.5.4 1.5 1zM931.166 1035.459c-.3.5-.1 1 .4 1 .6 0 1.1-.5 1.1-1 0-.6-.2-1-.4-1-.3 0-.8.4-1.1 1zM826.366 1038.359c-.5 2.2-5.1 3.3-8.5 2-3-1.2-3.9-.5-2.2 1.6.9 1.1 1.5 1.3 2 .4.6-.8 1.3-.8 2.9 0 1.1.7 2.1.9 2.1.6 0-.3.9-.1 2 .5 1.6.9 1.8 1.5.9 3.8-1.6 4.3-5.3 9.2-6.6 8.8-.6-.3-1.6.1-2.2.8-1.5 1.8 2.4 4 4.9 2.6 1-.5 2.6-.7 3.4-.4.9.3 1.6.1 1.6-.5s1.6-1.1 3.5-1.1c2.4 0 3.5-.5 3.5-1.5 0-.8.5-1.5 1.1-1.5.5 0 .7-.5.3-1.2-.5-.8 0-.9 1.4-.6 1.4.4 2.2.2 2.2-.7 0-.7.7-1.5 1.5-1.9 1.9-.7 1.9-3.3 0-5.3-1.2-1.2-1.3-1.8-.4-2.9.9-1.1.7-1.4-.8-1.4-1.1 0-2.3-.3-2.7-.7-.6-.7-7.5-3.3-8.7-3.3-.4 0-.9.8-1.2 1.9zM945.666 1038.159c0 .6.4 1.5 1 1.8 1.9 1.2.6 7.9-1.9 10.1-2.8 2.4-2.1 4.8 1.1 3.8 1.7-.5 2-.3 1.5 1-.6 1.4-.3 1.6 1.6 1 1.2-.3 2.2-.7 2.2-.8 0 0 .8-1.6 1.9-3.5 1.5-2.8 1.6-3.5.5-4.3-1-.7-.5-.8 1.5-.3 2.9.6 2.9.6 1.4-1.7-1-1.4-2.4-2.2-3.6-2-1.3.2-2.9-.9-4.6-3-1.4-1.8-2.6-2.8-2.6-2.1zM809.466 1044.959c-.3 1.4-.1 2.5.4 2.5.4 0 .1 1.2-.8 2.7-1.6 2.8-1.6 2.8.2.7 1.1-1.2 2.7-2.4 3.7-2.7 1-.4 1.7-1.7 1.7-3.2 0-2-.5-2.5-2.4-2.5-1.7 0-2.5.7-2.8 2.5zM795.666 1052.959c0 .8.7 1.5 1.5 1.5s1.5-.4 1.5-.9-.7-1.1-1.5-1.5c-.9-.3-1.5 0-1.5.9zM803.266 1052.959c.7 1.7 2 2 2.8.6.3-.5-.1-1.2-1-1.5-2.2-.9-2.4-.8-1.8.9z"/></g></svg>