<?xml version="1.0" standalone="no"?>
<!DOCTYPE svg PUBLIC "-//W3C//DTD SVG 20010904//EN"
 "http://www.w3.org/TR/2001/REC-SVG-20010904/DTD/svg10.dtd">
<svg version="1.0" xmlns="http://www.w3.org/2000/svg"
 width="784.823966pt" height="701.444949pt" viewBox="0 0 784.823966 701.444949"
 preserveAspectRatio="xMidYMid meet">
<metadata>
Created by potrace 1.15, written by Peter Selinger 2001-2017
</metadata>
<g transform="translate(-607.149988,1314.906633) scale(0.100000,-0.100000)"
fill="#222222" stroke="none">
<path d="M6816 13137 c3 -10 9 -15 12 -12 3 3 0 11 -7 18 -10 9 -11 8 -5 -6z"/>
<path d="M6811 13094 c0 -11 3 -14 6 -6 3 7 2 16 -1 19 -3 4 -6 -2 -5 -13z"/>
<path d="M6942 13010 c-23 -30 -33 -32 -70 -11 -25 13 -72 8 -72 -9 0 -5 -8
-7 -17 -4 -13 4 -14 3 -5 -4 9 -6 11 -18 6 -36 -5 -21 -9 -24 -15 -14 -6 8 -6
-1 -2 -22 3 -19 17 -48 30 -64 16 -18 22 -37 19 -50 -3 -12 -8 -52 -12 -89 -6
-58 -10 -70 -30 -79 -12 -6 -20 -16 -18 -23 3 -7 0 -16 -6 -20 -6 -4 -8 -16
-4 -27 4 -14 2 -18 -5 -14 -6 4 -4 -9 6 -29 9 -20 22 -34 29 -31 7 3 15 -2 18
-10 3 -8 1 -14 -4 -14 -5 0 -17 -14 -25 -30 -14 -28 -19 -30 -50 -24 -24 4
-35 2 -35 -5 0 -7 -4 -9 -10 -6 -5 3 -10 -2 -10 -11 0 -19 -44 -117 -70 -154
-9 -14 -15 -31 -13 -37 3 -7 -5 -27 -17 -44 -13 -17 -19 -34 -14 -39 5 -4 34
-10 66 -13 49 -5 59 -3 76 16 11 12 22 34 26 49 6 26 8 27 34 16 15 -6 35 -20
44 -31 21 -23 64 -17 70 11 3 12 9 6 21 -21 9 -21 14 -44 11 -51 -3 -8 -1 -17
5 -21 6 -3 11 -18 11 -33 0 -37 34 -65 69 -57 23 5 31 1 45 -20 9 -14 21 -23
25 -21 5 3 16 -3 26 -14 10 -11 22 -17 28 -13 6 4 8 -3 3 -20 -4 -19 0 -33 19
-55 43 -51 53 -79 45 -121 -8 -42 2 -51 57 -51 12 0 28 -6 35 -14 8 -8 40 -28
71 -46 31 -17 55 -36 51 -41 -3 -5 6 -19 20 -31 47 -43 94 -78 103 -78 5 0 9
-10 9 -22 -1 -21 6 -24 64 -34 36 -6 74 -14 85 -18 20 -8 78 -91 101 -145 7
-16 26 -37 43 -46 17 -8 31 -21 31 -28 0 -6 16 -22 35 -35 30 -19 34 -26 31
-55 -5 -34 13 -62 52 -85 19 -10 22 -10 22 4 0 13 7 15 33 10 17 -4 42 -7 55
-6 38 0 81 -28 88 -58 12 -56 17 -67 36 -81 11 -8 17 -19 13 -29 -3 -9 4 -26
19 -41 14 -14 31 -45 39 -68 13 -37 12 -43 0 -48 -12 -4 -13 -8 -3 -20 7 -9 8
-15 2 -15 -15 0 -23 -46 -12 -75 8 -22 6 -30 -20 -55 -17 -17 -35 -30 -39 -30
-5 0 -8 -8 -7 -17 1 -14 -8 -19 -36 -21 -32 -3 -39 -8 -45 -30 -3 -15 -12 -36
-19 -47 -27 -42 -21 -79 19 -118 20 -21 37 -44 37 -53 0 -8 9 -33 21 -55 11
-23 18 -48 15 -56 -3 -8 -1 -23 5 -34 8 -16 6 -29 -9 -59 -19 -38 -19 -40 -1
-56 13 -11 17 -24 13 -41 -7 -25 15 -49 85 -89 20 -11 36 -27 36 -35 0 -8 6
-18 13 -22 8 -5 9 -14 3 -24 -12 -22 5 -78 41 -135 23 -37 28 -54 23 -77 -4
-19 -1 -41 9 -60 9 -16 16 -44 16 -61 0 -38 16 -70 35 -70 7 0 17 -9 20 -20 3
-11 15 -20 26 -20 21 0 23 -8 10 -29 -7 -10 10 -28 62 -67 66 -50 117 -111
117 -142 0 -15 39 -51 55 -52 13 0 65 -65 91 -115 21 -38 84 -94 129 -114 11
-5 27 -20 34 -34 9 -17 47 -43 110 -74 76 -38 97 -53 101 -73 12 -61 34 -98
59 -104 46 -10 61 -31 72 -97 6 -35 15 -69 21 -76 8 -10 6 -18 -6 -32 -15 -16
-15 -19 -1 -31 12 -10 13 -15 3 -21 -9 -6 -8 -13 6 -28 11 -12 20 -41 23 -68
2 -26 10 -55 19 -64 9 -10 17 -25 18 -34 1 -9 13 -22 27 -28 15 -8 24 -22 25
-37 1 -13 11 -31 22 -40 11 -9 30 -40 42 -69 22 -50 22 -52 5 -71 -18 -19 -17
-20 7 -20 33 0 59 -30 63 -74 5 -48 11 -56 45 -56 37 0 60 -24 60 -62 0 -17 7
-39 16 -49 19 -22 10 -79 -13 -79 -24 0 -10 -34 17 -40 14 -3 30 -16 36 -29
20 -40 72 -91 92 -91 11 0 25 7 33 16 12 14 14 14 21 -5 4 -11 24 -29 45 -38
29 -14 38 -24 38 -43 0 -18 5 -25 20 -25 36 0 47 -29 39 -104 -3 -38 -3 -75 2
-82 15 -25 14 -102 -2 -120 -13 -14 -12 -19 9 -40 30 -30 71 -109 57 -109 -22
0 -8 -43 30 -92 23 -28 39 -57 36 -64 -3 -9 4 -16 18 -20 27 -6 34 -54 9 -54
-13 0 -13 -3 -3 -15 9 -11 17 -12 30 -5 25 13 30 13 30 -5 0 -8 6 -15 13 -15
7 0 23 -14 36 -31 20 -27 57 -50 86 -53 6 -1 20 -5 32 -9 16 -6 28 -3 43 11
11 10 38 24 60 31 36 11 39 14 30 36 -9 25 1 42 19 31 16 -10 41 5 41 25 0 24
41 26 64 4 19 -19 26 -19 26 0 0 13 6 13 38 -3 20 -11 43 -17 50 -15 7 3 23
-2 36 -11 21 -13 26 -13 42 -1 27 21 105 18 176 -6 43 -14 64 -17 71 -10 6 6
19 11 29 11 10 0 20 10 24 25 5 19 13 25 34 25 16 0 31 -3 33 -8 3 -4 29 -7
59 -6 43 0 55 4 62 20 9 20 10 20 63 2 42 -15 58 -16 69 -7 8 6 25 9 39 7 17
-4 25 -1 25 8 0 8 8 14 18 14 9 0 29 20 45 45 16 24 32 44 35 44 4 -1 17 2 30
6 17 6 21 12 16 28 -5 17 -3 19 12 12 11 -4 27 -7 36 -7 9 0 33 -8 54 -19 21
-10 57 -19 79 -19 28 0 48 -7 64 -21 19 -18 27 -20 47 -10 14 6 24 19 24 31 0
11 7 20 16 20 23 0 97 -46 112 -70 7 -11 23 -20 36 -20 13 0 35 -9 49 -20 14
-11 36 -20 50 -20 15 0 34 -10 45 -25 21 -26 46 -33 57 -15 5 8 11 8 20 0 7
-6 21 -7 30 -3 15 5 17 2 13 -15 -5 -16 0 -25 14 -33 13 -7 23 -8 27 -1 3 5
39 13 79 17 39 4 72 11 72 15 0 5 12 2 28 -6 35 -18 52 -18 52 0 0 11 8 13 33
9 25 -4 38 1 60 21 15 14 36 26 46 26 11 0 21 6 24 14 10 24 57 29 81 8 22
-20 76 -35 76 -21 0 4 14 10 30 14 17 4 30 11 30 17 0 5 10 9 23 8 12 -1 24
-1 27 0 3 2 19 3 35 4 17 1 36 6 43 10 7 4 17 4 22 1 6 -3 10 1 10 9 0 9 -12
23 -27 33 -38 23 -53 43 -53 70 0 13 -6 23 -13 23 -6 0 -18 14 -26 31 -12 26
-15 29 -23 15 -12 -22 -41 -20 -62 3 -10 10 -34 22 -54 26 -26 5 -49 20 -79
52 -24 25 -45 54 -48 64 -3 10 -15 21 -25 24 -10 3 -45 31 -77 61 -32 30 -70
57 -85 60 -17 4 -28 13 -28 23 0 31 -49 90 -83 99 -20 5 -33 16 -36 28 -5 29
-48 76 -54 60 -7 -17 -57 -10 -73 10 -6 7 -23 18 -37 23 -15 6 -27 16 -27 23
0 17 -38 41 -51 33 -5 -4 -21 3 -35 14 -15 12 -32 21 -38 21 -11 0 -50 38 -51
50 -1 3 -9 23 -19 45 -9 22 -13 41 -8 43 18 6 -15 77 -42 90 -14 7 -26 18 -26
24 0 23 -42 68 -65 68 -18 0 -22 4 -18 20 3 11 0 20 -6 20 -6 0 -16 11 -21 24
-5 15 -22 29 -44 36 -20 6 -34 15 -31 20 3 5 -4 11 -15 15 -11 3 -20 10 -20
15 0 14 -65 114 -85 130 -9 7 -23 26 -30 41 -8 15 -28 33 -45 41 -18 8 -30 20
-30 32 0 11 -14 43 -30 73 -21 37 -36 84 -48 154 l-17 101 22 18 c14 11 18 21
12 27 -6 6 -13 37 -16 69 -4 34 -12 64 -21 70 -11 8 -12 15 -4 30 8 14 6 25
-10 46 -11 16 -21 43 -22 61 -2 17 -6 42 -10 54 -5 15 -1 25 14 36 18 12 20
21 15 51 -4 19 -13 40 -20 46 -8 6 -11 18 -8 26 3 7 -2 17 -12 20 -9 4 -14 13
-11 20 5 12 -4 72 -20 136 -5 23 0 34 27 61 43 43 48 92 9 92 -36 0 -74 33
-103 91 -14 27 -37 64 -51 83 -27 36 -52 99 -43 108 7 7 -22 37 -50 52 -19 10
-21 15 -12 35 8 17 7 32 -5 59 -13 32 -13 37 0 37 9 0 14 10 14 28 0 15 5 33
10 38 7 7 6 21 -4 44 -12 29 -12 36 0 48 16 16 19 68 4 77 -8 5 -7 11 0 21 16
18 -4 80 -38 117 -15 15 -34 47 -42 70 -9 23 -22 41 -28 40 -7 -2 -12 9 -12
26 0 40 -19 89 -46 118 -31 33 -30 43 3 43 21 0 24 3 15 12 -7 7 -12 20 -12
30 0 10 -3 18 -7 18 -5 0 -14 4 -22 9 -10 7 -11 13 -2 30 16 29 -3 83 -44 125
-16 18 -39 43 -49 56 l-20 24 -9 -27 c-12 -38 -34 -34 -28 6 0 4 -5 7 -13 7
-22 0 -25 37 -6 74 14 29 15 36 3 40 -7 3 -18 16 -23 28 -7 18 -9 19 -9 6 -1
-24 -34 -23 -56 2 -10 11 -15 20 -11 20 5 0 -1 15 -12 34 -14 24 -17 37 -9 45
7 7 3 13 -15 20 -15 5 -29 15 -33 21 -9 15 -76 45 -90 41 -40 -13 -106 -23
-137 -22 -32 1 -38 -2 -38 -19 0 -23 -22 -50 -39 -50 -6 0 -11 -5 -11 -11 0
-16 -26 -38 -36 -31 -5 4 -9 14 -9 22 0 8 -11 16 -25 18 -36 5 -45 18 -21 31
12 7 21 18 21 26 0 8 4 15 9 15 4 0 6 10 4 23 -3 15 4 30 21 46 31 30 33 41 5
41 -16 0 -19 4 -14 20 4 12 2 20 -5 20 -6 0 -8 5 -5 10 3 6 2 10 -4 10 -5 0
-8 14 -5 33 5 27 0 38 -32 70 -20 21 -40 34 -43 30 -3 -4 -16 -13 -27 -20 -17
-9 -26 -9 -40 2 -11 8 -33 15 -51 15 -19 0 -36 7 -41 16 -8 15 -13 14 -44 -10
-21 -15 -48 -26 -67 -26 -19 0 -34 -6 -38 -16 -3 -8 -11 -13 -18 -10 -7 2 -22
-2 -33 -10 -16 -11 -27 -12 -48 -4 -15 6 -33 9 -41 6 -16 -7 -17 -38 -1 -54 9
-9 9 -12 1 -12 -7 0 -24 -5 -40 -12 -15 -6 -51 -17 -80 -23 -42 -9 -53 -9 -57
2 -3 7 -1 13 5 13 16 0 -19 57 -51 82 -24 19 -41 24 -78 22 -35 -1 -53 3 -69
19 -20 17 -27 19 -48 9 -23 -11 -31 -9 -60 14 -23 17 -32 31 -28 41 5 13 2 15
-12 10 -17 -7 -97 44 -154 100 -13 13 -30 23 -38 23 -7 0 -18 11 -25 25 -6 13
-30 33 -53 44 -28 13 -45 28 -49 44 -10 42 -64 86 -115 93 -25 4 -51 11 -57
15 -6 5 -19 7 -27 3 -11 -4 -25 4 -41 23 -24 27 -25 28 -39 8 -9 -11 -13 -23
-11 -26 2 -4 -2 -11 -9 -17 -8 -7 -17 -4 -29 12 -16 21 -15 25 5 64 11 23 26
41 33 40 15 -4 66 69 54 77 -4 3 -8 20 -7 39 0 19 4 33 9 30 4 -3 5 3 1 12 -4
11 2 23 18 35 21 16 22 18 6 24 -9 4 -17 12 -17 19 0 6 -13 24 -30 39 -16 16
-30 33 -30 38 0 5 -13 9 -30 9 -23 0 -31 -5 -36 -25 -3 -14 -10 -25 -16 -25
-5 0 -6 -9 -3 -20 4 -11 2 -20 -4 -20 -7 0 -7 -8 1 -25 6 -14 17 -25 25 -25
23 0 26 -27 6 -54 -10 -14 -28 -26 -40 -26 -16 0 -23 -6 -23 -19 0 -22 -20
-32 -49 -24 -16 4 -23 -1 -30 -20 -12 -31 -38 -58 -79 -82 -17 -10 -29 -22
-26 -27 10 -15 -16 -74 -41 -96 -17 -15 -39 -22 -68 -22 -46 0 -77 -13 -58
-24 6 -4 11 -12 11 -18 0 -6 -9 -3 -20 7 -11 10 -17 22 -14 27 11 18 -6 56
-27 61 -12 3 -35 -1 -50 -9 -26 -13 -30 -13 -49 6 -25 25 -29 93 -5 84 17 -7
21 11 5 21 -5 3 -10 17 -10 30 0 13 -14 37 -31 54 -17 17 -28 35 -24 41 4 6
-4 10 -19 10 -16 0 -27 7 -31 20 -7 22 -31 27 -37 9 -6 -19 -42 -1 -67 32 -21
29 -29 64 -36 174 -2 28 -8 69 -14 93 -6 24 -9 47 -6 52 2 4 -2 13 -9 20 -8 6
-17 23 -21 38 -8 34 -41 75 -55 67 -5 -3 -13 2 -17 12 -11 33 -36 53 -64 53
-15 0 -31 5 -34 11 -4 6 -13 8 -20 5 -7 -2 -23 3 -36 11 -12 9 -19 11 -15 5 4
-7 2 -12 -6 -12 -17 0 -31 11 -44 35 -6 11 -22 22 -35 25 -19 5 -25 13 -27 43
-3 36 -3 37 27 31 34 -7 41 5 15 27 -9 7 -13 21 -10 34 6 23 -27 51 -46 39 -5
-4 -14 -1 -19 7 -6 10 -14 7 -33 -14 -21 -23 -29 -26 -45 -17 -13 6 -22 7 -26
0 -4 -6 -10 -6 -18 1 -7 5 -27 19 -45 29 -17 11 -31 25 -30 31 2 7 -13 16 -32
21 -43 12 -48 17 -30 28 12 8 11 10 -5 11 -11 1 -23 1 -27 0 -5 0 -8 3 -8 9 0
5 -17 21 -37 35 -35 23 -38 24 -45 8 -5 -12 -7 -5 -6 18 2 30 -5 45 -37 82
l-40 46 -23 -29z"/>
<path d="M6445 12065 c30 -13 55 -10 55 6 0 5 -19 9 -42 8 l-43 -1 30 -13z"/>
<path d="M6304 12005 c-1 -14 2 -25 7 -25 5 0 9 11 9 25 0 33 -15 33 -16 0z"/>
<path d="M6292 11950 c0 -14 2 -19 5 -12 2 6 2 18 0 25 -3 6 -5 1 -5 -13z"/>
<path d="M6195 11916 c0 -31 15 -47 15 -17 0 19 3 20 20 11 16 -8 20 -8 20 3
0 8 -10 17 -22 21 -33 9 -34 8 -33 -18z"/>
<path d="M6107 11861 c3 -12 -3 -24 -17 -34 -33 -23 -20 -63 26 -82 45 -19 44
-19 44 3 0 14 2 15 10 2 11 -18 18 -11 40 37 20 47 16 76 -10 68 -10 -3 -21
-2 -24 4 -3 5 -15 7 -25 4 -10 -3 -22 0 -25 6 -11 18 -25 12 -19 -8z"/>
<path d="M8998 11824 c6 -11 18 -27 28 -35 14 -12 16 -11 13 5 -2 10 -15 26
-28 35 -23 15 -24 15 -13 -5z"/>
<path d="M6230 11771 c0 -5 5 -13 10 -16 6 -3 10 -2 10 4 0 5 -4 13 -10 16 -5
3 -10 2 -10 -4z"/>
<path d="M9081 11764 c0 -11 3 -14 6 -6 3 7 2 16 -1 19 -3 4 -6 -2 -5 -13z"/>
<path d="M9091 11734 c-32 -23 -26 -38 11 -30 40 8 44 12 26 30 -14 13 -18 13
-37 0z"/>
<path d="M9060 11665 c0 -8 -9 -15 -20 -15 -26 0 -26 -16 0 -23 13 -3 24 1 30
13 13 24 13 40 0 40 -5 0 -10 -7 -10 -15z"/>
<path d="M9865 11300 c3 -5 8 -10 11 -10 2 0 4 5 4 10 0 6 -5 10 -11 10 -5 0
-7 -4 -4 -10z"/>
<path d="M9895 11300 c3 -5 11 -10 16 -10 6 0 7 5 4 10 -3 6 -11 10 -16 10 -6
0 -7 -4 -4 -10z"/>
<path d="M13420 6548 c0 -6 -3 -9 -6 -5 -4 3 -19 0 -34 -8 -21 -11 -30 -11
-40 -2 -10 9 -11 9 -6 0 10 -17 1 -16 -36 3 l-32 17 15 -24 c44 -69 58 -97 54
-102 -3 -4 -2 -5 1 -2 4 2 23 -7 43 -20 19 -14 39 -25 42 -25 4 0 20 -11 35
-25 16 -14 45 -33 64 -44 19 -10 37 -29 41 -42 3 -13 11 -23 17 -22 18 4 126
-18 139 -28 7 -6 12 -6 15 1 1 5 28 -12 58 -40 30 -28 61 -48 68 -45 8 3 19 5
25 5 12 0 43 58 36 64 -13 11 -49 16 -49 6 0 -10 -48 15 -60 32 -9 11 -77 38
-99 38 -13 0 -23 11 -31 35 -10 29 -18 36 -53 45 -87 21 -92 24 -93 53 -1 18
-13 39 -38 61 -32 30 -38 40 -35 62 1 8 -22 24 -33 24 -5 0 -8 -5 -8 -12z"/>
</g>
</svg>
