<svg version="1" xmlns="http://www.w3.org/2000/svg" width="1189.876" height="1060.373" viewBox="0 0 892.407 795.279"><g fill="#222"><path d="M665.9.249c-.8.4-3.6 1.1-6.2 1.4-2.6.4-5.4 1.4-6.2 2.2-.8.8-2.1 1.4-3 1.4-.8 0-1.7.8-2.1 1.9-.3 1-1.5 2.3-2.8 2.9-1.8.9-1.9 1.1-.4 1.1 1.6.1 1.7.8 1.1 6-.4 3.7-.2 6.6.5 8 .8 1.4.8 2.1.1 2.1-.5 0-1 .6-1 1.4 0 .8-.6 1.7-1.2 2-.7.3-.1.3 1.5-.1 2.4-.4 2.7-.2 2.5 1.7-.5 3.7 2 3.4 4.3-.4 1.1-2 2.6-3.6 3.2-3.6.6 0 .2-.7-.9-1.5-1.3-1-1.5-1.4-.5-1.5.8 0 2.2.7 3.2 1.6 1.8 1.7 4.9 1.3 4.9-.5 0-.6-.6-.8-1.4-.5-1.6.6-3.1-1.2-1.7-2.1.7-.4.7-1.5.1-3.1-.9-2.3-.8-2.5 1.5-2.2 1.9.2 2.9-.3 3.8-2.1.7-1.4 2.6-2.9 4.2-3.4 4.8-1.4 10.4-1.7 11-.7.9 1.5 3.5 1.2 4.1-.5.7-1.8-4-8.1-6.5-8.8-1-.2-2.5 0-3.2.5-1.1.8-1.1.9.2.5.8-.3 2.1.3 2.7 1.4 1 1.6.9 1.9-.6 1.9-1 0-2.2-.3-2.6-.8-.4-.4-1.8-.7-2.9-.7-1.6 0-2.5-.9-3.2-3.2-.8-2.3-1.4-2.9-2.5-2.3zM621.3 6.149c.4.5.1 1.1-.5 1.3-1.6.5 0 3.4 2.6 4.6 1.9.9 2.4.8 2.8-.9.3-1.2 0-1.9-.9-1.9-.8 0-1.4-.9-1.4-2s-.7-2-1.6-2c-.8 0-1.3.4-1 .9zM637.4 10.349c-1.1 1.7.1 2.1 1.5.4.8-.9.8-1.5.2-1.5-.6 0-1.4.5-1.7 1.1zM687.4 11.249c1 1.1 2.2 1.7 2.7 1.4.5-.3.1-1.2-.9-2-2.7-2-3.9-1.7-1.8.6zM690.1 17.249c-.1 3.2.9 3.8 2.7 1.7.8-1.1.7-1.8-.8-3.1-1.7-1.6-1.8-1.5-1.9 1.4zM693.9 21.149c0 .5.5 1.3 1 1.6.6.3 1 .2 1-.4 0-.5-.4-1.3-1-1.6-.5-.3-1-.2-1 .4zM691.3 26.849c-2.2 2.1-2.5 3.1-2.1 6 .3 1.9.2 3.4-.3 3.4-.4 0-.6.9-.3 2 .4 1.5 0 2-1.6 2-1.2 0-2.1.6-2.1 1.5 0 .8-.7 1.5-1.5 1.5s-1.5.4-1.5 1c0 .5-.7 1-1.5 1s-1.5.7-1.5 1.4c0 1 2.2 2.1 6.1 3.2 4.8 1.3 6.3 2.3 7.2 4.3.6 1.4 1.2 2.7 1.3 2.9.1.2 1.4.5 2.9.8 1.5.3 3.8 1.2 5.1 2.1 1.3.8 2.4 1.1 2.4.5 0-.6.8-1.3 1.8-1.6 1-.4 1.9-1.3 1.9-2.1 0-2.1-3-2.9-4.3-1.1-1.2 1.7-4.9 2.3-4 .7.4-.5.1-1.1-.5-1.3-.6-.2-.8-1.4-.4-3.1.6-2.3.9-2.5 1.9-1.3.6.8 2.6 1.7 4.4 2.1 2.9.6 3.2.4 3.2-1.8 0-2.5-2.2-5.2-3.3-4-.4.3-.7-.3-.7-1.5 0-1.1.4-2.4 1-2.7.5-.3.7-2.5.4-4.8-.3-2.3-.5-5.2-.5-6.5.1-1.2-.5-2.2-1.3-2.2-.7 0-1.9-.6-2.5-1.4-.7-.8-2.5-1.9-4.1-2.4-2.5-.9-3.3-.7-5.6 1.4zM668.9 47.849c0 1.3-.7 1.5-3.7 1-6.1-1.1-11.7-.7-12.6.9-.4.8-1.4 1.5-2.2 1.5-.8 0-2.3.9-3.4 2.1-1.3 1.4-2.6 1.9-4 1.4-1.6-.5-2.1-.2-2.1 1.3 0 2.1-2.9 5.2-5.1 5.3-.8 0-.1.5 1.6 1 2.3.7 3.3.5 5-1.1 2.5-2.3 3.5-2.5 3.5-.7 0 1.5 3.7 4.5 8.7 7 3.9 2.1 4.3 2.1 4.3.2 0-1.3.4-1.4 2.2-.4 1.9 1 2.5.8 5.1-2.1 1.7-1.9 2.7-4 2.4-5-.3-1.2.2-2 1.4-2.3 1.3-.3 1.7-1.1 1.3-2.1-.3-.9-.1-2.9.4-4.6.9-2.6.8-3.1-.9-4-1.5-.9-1.9-.7-1.9.6zM625.9 62.749c0 1-.3 1.5-.7 1.2-.7-.8-3.2 2.3-3.3 4.1 0 .8.9 1.1 2.5.8 4.8-.9 5.6-2.5 3-6-1.4-1.9-1.5-1.9-1.5-.1zM706.4 62.249c-.4.6-1.1.8-1.6.4-.5-.3-1.6 0-2.4.6-.8.6-1.9.9-2.5.5-.5-.3-1 0-1 .8 0 2.9-3.7 5-7.5 4.3-1.9-.4-3.5-.3-3.5.2s-1.7 1.6-3.7 2.6c-5.7 2.5-8.4 4.2-7.6 4.9.3.4.1.7-.5.7s-1.4-.5-1.7-1c-1.1-1.8-2.7-1-2.2 1.1.8 3.1-1.4 1.8-3.4-2.1-2.4-4.4-4-5.9-3.2-3.1.3 1.2.9 2.4 1.4 2.7.5.3.9 1 .9 1.5 0 .6-.4.8-.9.5-.5-.4-1.1-.1-1.3.6-.6 1.7-2.8 0-2.8-2.2 0-1 .6-2 1.2-2.2.7-.3-.4-.5-2.5-.6-2.6-.1-3.7.3-3.7 1.3 0 .7-.8 1.3-1.7 1.2-1 0-3 .7-4.5 1.7-2.3 1.5-2.6 2.1-1.7 3.7 1.2 2.4 2.1 2.4 4.3 0 1.4-1.6 2.3-1.8 4.2-1.1 1.6.6 2.4.6 2.4-.1 0-.6 1.1.3 2.5 1.9 1.7 2.1 3.1 2.8 4.5 2.5 1.1-.3 1.7-1 1.3-1.7-.3-.6.5-.1 1.9 1.1 1.7 1.6 3.7 2.3 6.7 2.3 4.9 0 8.7 1.8 13.9 6.4 2 1.9 5.2 3.7 7 4.1 1.8.3 3.7 1.5 4.2 2.5.6 1.2 2.3 2 4.6 2.2 3 .2 4 1 5.8 4 1.6 2.9 1.9 4.2 1 5.5-1.5 2.6-.6 5.3 1.7 5.3 1.1 0 1.7.4 1.4 1-.3.5-.2 1 .3 1s1.2.9 1.5 2c.3 1.1.9 2 1.4 1.8 1.8-.5 8.3 1.4 9 2.7 1.1 1.8 6.6.8 5.9-1.1-.3-.8.1-1.4.9-1.4s1.5-.7 1.5-1.5.9-1.9 2-2.5c1.1-.6 1.7-1.6 1.4-2.5-.5-1.1-.2-1.3 1-.9 1.1.4 1.6.1 1.6-1.1 0-1.4.6-1.6 3.3-1.1 1.7.4 5.5.8 8.2 1 2.8.2 6 .6 7.2 1 1.6.5 2.7.1 4-1.3 1.2-1.4 2-1.7 2.9-1 .8.6 2.1.6 3.8-.2 2.2-1.1 2.9-1 4.4.4 1.2 1.3 1.3 1.7.3 1.7-1.1 0-1.1.3-.1 1.5.7.8 1.9 1.5 2.7 1.5.8 0 1.1.5.8 1-.4.6-1.5.8-2.6.5-2-.7-2.4.2-1 2.4.8 1.2 1.4 1 3.5-.7 1.6-1.2 2.2-2.3 1.6-2.7-1.6-1-1.2-2.3.9-3 1.1-.3 2.2-1.9 2.6-3.5.6-2.5.9-2.8 2.5-2 2.5 1.3 3 1.3 3-.5 0-.8.5-1.5 1-1.5.6 0 1.5-1.1 2-2.5s1.4-2.5 2-2.5c.5 0 1.2-1.1 1.6-2.5.3-1.4 1.3-2.5 2.1-2.5 1 0 1.2-.6.7-2.3-.4-1.2-.8-3-.8-4s-.8-1.7-2.1-1.8c-1.1 0-3.4-.2-5.2-.5-2.7-.3-3.2 0-3.5 1.8-.2 1.3-1.2 2.7-2.3 3.3-1.2.6-1.9 1.8-1.7 2.7.4 1.9-1.3 2.5-2.3.8-.4-.6-1.5-.8-2.5-.5-1.1.4-3.8-.6-6.9-2.5-5-3.1-5-3.2-3.4-5.7 1.4-2 2.2-2.4 4.8-1.9 2.4.5 3.6.1 5-1.4 1.7-1.9 1.7-2.1 0-4-1.8-2-7.2-2.9-6-1 .8 1.3-4.4 5.9-6.7 6-.9 0-1.9.4-2.3 1-1.1 1.7-10.6-2.6-9.8-4.6.6-1.5-6.7-2.5-8.5-1.1-.9.7-1.6.5-2.5-.6-1-1.5-1.5-1.5-3.8-.3-2.2 1.1-2.9 1.1-4.4 0-2.5-1.8-4.5-1.8-4.5.1 0 1.4-1.1 1.9-3.7 1.6-.7-.1-1.3.2-1.3.8 0 2-3.6.3-4.8-2.3-.7-1.4-2.5-3.4-4-4.3-1.5-1-4.6-3.6-6.9-5.8-3.2-3.1-4.1-4.6-3.6-6.3.6-2.3-.1-3-1.2-1.2zM631.7 62.949c.7.3 1.6.2 1.9-.1.4-.3-.2-.6-1.3-.5-1.1 0-1.4.3-.6.6zM780.5 77.049c-.2.4.4.9 1.5.9 1.1.1 1.7-.2 1.4-.8-.7-1.1-2.2-1.2-2.9-.1zM643.7 79.549c-.3.7.1 2.3.9 3.7.7 1.4 1.3 2 1.3 1.3 0-.6.7-1.3 1.6-1.5 1.3-.2 1.1-.7-.9-2.5-1.7-1.4-2.7-1.7-2.9-1z"/><path d="M655.9 82.149c0 2.4 2.5 3.4 4 1.6 1.1-1.3.8-1.7-2.2-2.8-1.3-.5-1.8-.1-1.8 1.2zM669.3 85.949c.4.7.2 2.1-.4 3.2-.8 1.6-.6 2.2 1 3.1 1.1.6 2 2 2 3 0 3.5-2.8 2.1-5-2.5-1.2-2.5-2.8-4.5-3.6-4.5-1.1 0-1.1.5-.2 2.5.8 1.9.8 2.8-.2 4-.7.8-.9 2.2-.6 3.1 1 2.6-.4 3.5-2.7 1.9-1.2-.8-2.9-1.5-3.9-1.5-.9 0-2.8-1.8-4.1-4.1-2.5-4.2-4.2-3.9-3.1.5.9 3.7 1.1 10.9.4 12.1-.4.5-1 2-1.3 3.2-.4 1.7-.1 2.3 1.3 2.3 2.3 0 5.1-3.1 3.3-3.7-.7-.3-1.3-1.2-1.3-2 0-1 .6-1.3 1.6-.9.8.3 1.2.2.9-.3-.6-1 3.2-4.1 5-4.1.5 0 1.1 1.4 1.1 3.1.1 1.7.7 3.5 1.5 4 1.1.6 1.1 1.4.2 3.9-1 2.7-1 3 .3 2 1-.9 1.4-.9 1.4-.1 0 .6.7 1.1 1.6 1.1 1.2 0 1.3.5.7 2.2-.4 1.3-.7 3.5-.7 5 .1 2.8-3.5 5.6-5.5 4.4-.6-.4-1.1-.2-1.1.5s-.3.9-.6.6c-.4-.3-1.6-.1-2.8.5-1.1.7-3 1.2-4.1 1.2-1.1.1-1.9.7-1.7 1.5.5 2.2-1.8 4.3-3.4 3-.9-.8-1.5-.5-2.4 1-.6 1.2-.7 2.1-.3 2.1.4 0 0 .5-1 1.1-2 1.2-7 11.6-6.1 13 .3.5-.2.9-1 .9-2.9 0-2.8 2.3.2 4.7 3.1 2.3 3.5 5.7.6 4.6-1.6-.6-2 2.2-.4 3.2 1.5.9 1.2 3.1-.5 4.9-.8.8-1.2 2.2-.9 3 .3.9.1 1.6-.5 1.6-1.4 0-1.4 2.7 0 3.2.7.2.7 1.2-.1 3.2-.9 2.4-1.3 2.6-2.6 1.6-1.9-1.7-6.4.5-6.4 3.2 0 1-.6 1.8-1.4 1.8-.9 0-1.6 1.7-2 5-.4 2.7-1.1 5.2-1.6 5.5-.6.3-1 .2-1-.4 0-.5-.9-1.3-2-1.6-1.1-.3-2-1.2-2-1.9s-.9-2.4-1.9-3.8c-1.1-1.3-2.2-4.1-2.6-6.1-.8-3.9-1.5-4.3-4.5-2.7-2.2 1.2-4-.6-3.8-4.1.2-5.2-.3-7.1-2.6-9.4-1.3-1.3-2.7-3.6-3.1-5.2-.6-2.1-.9-2.4-1.2-1-.6 2.5-3.5 1.7-5-1.3-1-2-2.1-2.5-5.3-2.7-2.2 0-4.2.3-4.6.8-.7 1.2-7.4 1.2-7.4 0 0-.5-.8-.7-1.9-.4-1.2.3-2.4-.3-3.3-1.6-.8-1.1-2.4-2.2-3.6-2.4-1.2-.2-3.7-1.8-5.5-3.5-1.8-1.8-4.2-3.2-5.3-3.2-1.1 0-3.9-2.2-6.4-5-2.4-2.8-5.2-5-6-5-.9 0-3.9-1.1-6.6-2.5-2.7-1.4-5.9-2.5-7.1-2.5-2.3 0-11.1-7.9-13.2-11.8-.7-1.4-2.1-2.2-3.6-2.2-1.4 0-2.5-.5-2.5-1 0-1.8-5.6-1.1-7.4.9-1.3 1.5-2.8 1.9-5.5 1.6-2-.2-3.9-.4-4.2-.4-.3-.1-1.7-1.9-3.2-4.2-1.8-2.7-2.5-4.8-2.1-6.4.9-3.5-3.1-6.8-7.5-6.1-1.8.3-3.9 1.3-4.6 2.2-1.1 1.6-1.3 1.6-2.4-.4-1.5-2.9-2.9-2.8-5.3.4-1.1 1.4-2.6 2.3-3.4 2-1.2-.5-4.4 2.8-4.4 4.5 0 .3 1.2 1.1 2.6 1.8 1.9.9 3 .9 4 0 2-1.6 7.2 2.4 8.2 6.4.5 1.8 1.7 3.6 2.8 4.2 1 .5 2 2 2.2 3.3.3 2.1.1 2.2-1.7 1.3-2.7-1.5-3.1-1.4-3.1.5 0 .9.7 2.2 1.6 2.9 1 .6 1.8 2.4 2 3.9.4 3.5 4.3 6.7 6.6 5.5 2.4-1.3 3.8-1.1 3.8.5 0 .8.9 1.6 2.1 1.8 1.5.2 2.6 1.8 3.9 5.5 1 2.9 2.5 6.2 3.4 7.5.9 1.2 1.6 3.2 1.6 4.4 0 2.6 6.9 13.2 9 13.9.9.3 2.4 2.1 3.3 4 .9 2 2.7 3.9 4 4.4 2.1.8 9.7 8.4 9.7 9.6 0 .3-.7 2.1-1.4 4-.8 1.9-1.1 3.5-.6 3.5.5 0 1.4 1 2.1 2.1 1 2 .9 2.1-1 1.6-1.4-.3-2.1 0-2.1.9 0 1.7-2 1.9-2.1.1 0-.6-.4-.2-.9 1-.5 1.3-1.4 2.3-2 2.3-1.6 0-6-4.2-6-5.9-.1-1-.6-.7-1.5.9-1.2 2.2-1.1 2.6.3 3.4.9.5 2.4 1.8 3.3 2.8.9.9 1.9 1.5 2.2 1.2.3-.3 1.2.3 1.9 1.5s1.6 2.1 2.1 2.1c.4 0 2.9 1.5 5.5 3.4 3.5 2.4 5.3 3.1 6.4 2.5 1-.6 2.7-.5 4.2.1 1.4.5 2.6.7 2.6.4 0-.4.6-.1 1.4.5 1.1.9 1.7.6 2.7-1.9 1.6-3.5 2.7-3.4 5 .6 2.3 3.8 2.3 4.4-.1 4.4-1.7 0-1.9.3-1 1.9 1.6 3 1.2 5.1-1.2 7.3-1.7 1.4-1.8 1.8-.6 1.4 1.2-.3 1.5-.1 1.1 1-.3.8.1 1.4.8 1.4 1 .1.8.5-.4 1.4-1.5 1.2-1.7 1.8-.7 3.6.8 1.5.8 2.5.1 3.4-.6.7-.8 1.6-.4 1.9.3.4.2.7-.3.7-.6 0-1.6 2.2-2.3 5-.8 3.3-1.9 5.1-3.2 5.5-1 .4-1.9 1-1.9 1.6 0 .5-1.8 1.2-4 1.5-2.9.5-4 1.1-4 2.4 0 1.3-.8 1.7-3.2 1.6-1.8-.1-3.6-.5-3.9-1-.4-.5-1 .6-1.4 2.3-.5 2.6-.2 3.7 1.5 5.6 1.4 1.5 2 3 1.6 4.3-.4 1.1 0 2.4.8 3.1.8.7 1.8 2.6 2.1 4.2.4 1.7 1.5 3.5 2.6 4.2 1.9 1.2 2.7 5.7.9 5.7-.6 0-.5.9.1 2.4 1.3 2.7.4 13.2-1.2 14.1-.5.4-.9 1.5-.9 2.6 0 1.2-.7 1.9-2 1.9-1.1 0-2 .6-2 1.3 0 .8-.9 2.2-2 3.2-1.5 1.3-1.7 2.2-.9 3.6.8 1.5.5 2.7-1.4 5.2-1.3 1.7-3.1 5.1-4.1 7.3-1 2.3-2.9 4.7-4.2 5.3-2.7 1.2-3.1 2.6-.9 3.8 2.4 1.4.8 7.7-3 11.5-1.8 1.8-4.4 5.2-5.8 7.5-1.5 2.3-3.1 4.4-3.7 4.8-.5.3-1 1.5-1 2.5s-.7 2.5-1.5 3.3c-1 1.1-1.2 2.3-.6 4.4.7 2.3.4 3.5-1 5.4-1.2 1.5-1.9 4.1-1.9 7v4.6l-5 .7c-4.5.6-5.1 1-6.5 4.1-.7 1.9-1.8 3.5-2.3 3.5-.5 0-.7 1.1-.4 2.5.3 1.8 0 2.5-1.1 2.5-.9 0-1.8.9-2.2 2-.7 2.1-8.9 10.3-13.3 13.2-1.4.9-3 2.6-3.4 3.7-.4 1.2-2.3 2.4-4.7 3.1-2.3.6-4.1 1.5-4.1 2s-1.3.7-2.8.4c-2.5-.5-3-.2-4.2 2.8-.8 1.8-2.2 3.9-3.2 4.6-1 .7-1.8 2.1-1.8 3.1 0 1.4-.6 1.7-2.4 1.4-2.9-.6-4 1-2.6 3.6 1.3 2.5-.2 3.6-3 2.1-1.6-.9-2.2-.8-2.7.6-.7 1.9-8.2 5.6-9.7 4.7-.5-.3-.6-.2-.3.4.4.6-.9 1.9-2.8 2.9-4.4 2.3-4.8 3.4-2.8 8.6.8 2.4 1.5 5.3 1.4 6.6 0 1.3.3 3.1.8 4.1.7 1.3.5 2.2-.9 3.3-2.9 2.5-5.7 3.8-6.5 3-.5-.4-.5.1-.2 1.1.4 1 .3 1.6-.2 1.2-1.5-.9-4.1.6-4.1 2.5 0 .9 1 3 2.2 4.6l2.3 2.9-2.9-1.9c-2.2-1.4-3-1.5-3.6-.6-1.2 1.9-3.9.5-5-2.5-.8-2.1-1.6-2.6-3.9-2.4-2.2.3-3.6-.5-6.5-3.5-2-2.1-3.6-4.3-3.6-4.7 0-.5-1.2-1-2.7-1.1-4-.2-4.5-.1-9.6.6-4.6.7-4.7.7-6.4-2.8-.9-2-2.5-3.8-3.5-4.2-1-.3-1.8-1-1.8-1.5s-.5-.9-1.1-.9c-.6 0-.9.6-.6 1.2.2.7-.3 2.1-1.1 3.1-1.3 1.5-1.4 2-.3 2.6 1.5.9.6 5.1-1.3 6.3-2 1.4-6.6.9-6.6-.7 0-.9-.9-1.5-2.2-1.5h-2.3l2.3-1.8c1.8-1.4 2.1-2.3 1.6-5-.6-2.9-.4-3.2 1.8-3.2 3.1 0 4.1-1 2.7-2.7-.9-1-.7-1.8.7-3.4 1.2-1.3 1.7-3.2 1.5-5.4-.2-2.4.3-3.6 1.6-4.3 2.5-1.4 2.2-6.3-.5-9-1.2-1.2-2.2-2.7-2.2-3.2 0-.6-1.1-1.5-2.5-2-3-1.1-3.3-3-.5-3.7 1.9-.5 2-.6.3-1.9-2.6-1.9-11.4-1.9-10.7 0 .8 2.1-6.5 4.2-9.3 2.8-1.4-.8-2.3-.8-3.1 0-.7.7-1.5.8-1.9.4-.4-.4-.1-1.1.7-1.6 1.2-.7 1.1-1-.5-1.5-1.1-.4-3-1.1-4.2-1.5-1.8-.7-2.1-.6-1.6.6.3.8-.2 2.3-1.1 3.3-.9 1-1.6 2.2-1.4 2.7.4 1.2-4.4 7.4-5.2 6.9-.4-.3-1.3.2-2 1-.9 1.1-.8 1.9.7 3.9 1 1.3 2.6 2.9 3.6 3.5 1.6 1 1.6.9.5-.9-1-1.5-1-2.2 0-3.2 1.5-1.5 5.3 1.9 8 7.1 1.7 3.5 1.7 3.7-.1 7.1-1.1 2.3-1.6 4.6-1.2 6.5.3 1.6.9 4.5 1.2 6.4.3 1.8 1.4 4.2 2.4 5.2 2.3 2.3 2.4 4.5.4 5.3-.8.3-2.3 2.1-3.2 4.1-1.4 2.9-1.5 3.8-.4 5.9.8 1.3 1 2.9.6 3.6-.4.6.1 2 1 3 1 1.1 1.9 3.1 2.1 4.5.1 1.4 1 3.7 1.9 5.1.9 1.3 1.3 2.9 1 3.4-.3.6-.1 1 .5 1s1.1 1 1 2.2c-.3 3.9-.1 4.7 2 5.8 1.6.9 1.8.8 1.4-.5-.4-.8-.2-1.5.3-1.5 2.1 0 5.7 6.2 6.6 11.5.7 3.6 2.1 5.9 5 8.4 1.7 1.4 3.8 4.4 4.8 6.6 1 2.3 3 4.7 4.4 5.5 1.4.7 3.4 2.8 4.4 4.6 1.1 1.9 3.1 3.6 4.5 4 2.9.7 4.2 3.6 2.8 6.1-.7 1.1-.6 2.3.4 3.8 1.5 2.3.8 6.8-1 5.8-.6-.3-.6 0 .2.8 1.7 1.8 1.5 3.4-.3 1.9-1.1-1-1.5-1-1.5 0 0 .6-.6 1-1.2.8-.7-.3-1.3-1.5-1.3-2.9 0-2-.5-2.4-3-2.5-1.6-.1-4.1-.4-5.5-.8-2.3-.6-2.3-.6-.7.7.9.8 1.7 2.2 1.7 3.2 0 1.5-.2 1.6-1.7.4-1.5-1.1-1.6-1.1-.5.1 1.7 1.9 1.5 5.6-.4 8.5-.9 1.3-1.4 3-1.2 3.7.3.7-.6 2.1-1.9 3.1-1.2 1-2.2 2.1-2.2 2.5.6 4.2-1.5 5.7-2.7 1.9-.8-2.7-2.2-3.7-5.1-3.7-1.3 0-2.3-.6-2.3-1.4 0-.8-1.1-1.7-2.5-2-1.4-.4-2.5-1.3-2.5-2.1 0-.7-.8-1.3-1.7-1.3-1 .1-5.3-1.1-9.7-2.6-5.6-2-8.1-2.5-8.9-1.7-1.4 1.4-3.7 1.4-3.7.1 0-.6.8-1.8 1.8-2.8 2.4-2.4 1.9-3.7-3.4-7.3-2.4-1.7-4.2-3.5-3.8-4 .9-1.4-2.5-4.9-4.8-4.9-1.1 0-2.7-.4-3.7-.9-1.4-.8-1.7-.6-1.7 1.2.1 2.2-1.5 2.7-8.4 2.8-5.3 0-6-.3-9.4-4.1-1.9-2.2-5.8-5.1-8.5-6.4-3.6-1.9-4.8-3-4.5-4.3.3-1.3-1.4-3.3-5.6-6.8-4-3.4-6-5.7-6-7.3 0-1.2.5-2.2 1-2.2.6 0 1-2 1-4.4 0-2.4.5-4.6 1.1-4.8 4.1-1.4-6.7-7.8-11.9-7.1-1.8.3-6.2.2-9.8-.2-5.2-.5-6.4-1-6-2.2.7-1.7-1.7-5.7-2.8-4.6-.3.4-1.2-.2-2-1.2-.9-1.2-2-1.6-3.6-1.2-1.6.4-4.1-.4-7.7-2.3-5-2.7-5.3-2.8-5.3-1 0 2-.1 2-3.7.4-2.1-.9-5-1.9-6.6-2.2-1.5-.2-3-.8-3.3-1.3-.8-1.4-2.4-1-2.4.6 0 .8-.6 1.2-1.4.9-.8-.3-2.8.4-4.5 1.7-2.3 1.7-3.3 2-4.4 1.1-1-.9-1.6-.9-2.5 0-1.7 1.7-9.3 1-11.6-1-1.1-1.1-3.7-1.7-7-1.8-2.8-.1-7.3-.6-9.9-1.3-3.3-.7-5.5-.7-6.7-.1-1.7.9-1.8.7-.8-2.3 1.8-5.7 2.1-7.7 1-7.7-.6 0-1.2-1-1.4-2.3-.2-1.5-1.1-2.3-2.8-2.5-1.4-.2-3.1-.9-3.7-1.4-.9-.7-1.3-.7-1.3 0 0 .6 1.4 1.6 3 2.4 3.2 1.4 3.9 3.8 1.6 6-1 1-1.1 2-.4 3.1.5 1 .6 2.2.3 2.7-.8 1.3-5.1 1.3-7.6-.1-1.5-.7-2.4-.7-3.4.1-.9.7-1.5.8-2 0-.9-1.4-3.5-1.3-3.1.2.3.7.7 2.6 1.1 4.2.4 2.1.9 2.6 1.4 1.7.6-.9 1.4-.6 3 1.5 2.6 3.3 2.1 4.1-1.3 1.9-1.8-1.2-3.6-1.5-6-1.1-2.9.6-3.4 1-3.1 2.9.3 1.2 1.5 2.9 2.7 3.7 1.2.8 3.1 2.4 4.1 3.5 6.1 6.7 7.1 7.4 9.9 6.8 1.6-.3 2.8-.1 2.8.5s.8 1.3 1.8 1.5c1.6.4 1.6.5 0 .6-2.1.1-2.3 1.2-.6 2.9 1 1 .8 1.4-.9 1.8-1.9.5-2.1.9-1.2 2.6.6 1.1.7 2.3.3 2.6-.4.4-.9.1-1.1-.6-.5-1.4-5.3-1.7-5.3-.2 0 1.6 3.4 2.8 6.3 2.3 1.7-.3 2.7-.1 2.7.6s1.4 1.7 3 2.2c1.9.7 3 1.8 3 2.9 0 1 .3 2.6.7 3.6.5 1.4.3 1.6-1.1 1.1-1.4-.5-1.7-.3-1.3.8.9 2.2-2 6.9-4.5 7.6-2.3.5-2.6 2-1.5 8.4.2 1.1-.1 2.5-.6 3.2-.5.7-.6 2.2-.2 3.4 1.1 3.2 1.4 10.9.5 10.9-.9 0-5.2-5.5-7.2-9.4l-1.5-2.9-.7 2.6c-.7 2.8-3.6 2.8-3.6 0 0-.8.5-1.1 1-.8.6.4 1-.5 1-2.1 0-2.1-.4-2.5-2-2.1-1.1.3-2 .1-2-.4s.4-.9.8-.9c1.3 0 3.7-5.1 3.4-7.1-.2-.9.2-2 .8-2.4.5-.3 1-2.6 1-5.1 0-2.5.5-5.4 1-6.4 1.3-2.4.2-7-1.6-7-1 0-1.2.8-.7 3.2.5 2.6.4 3-1 2.5-1.1-.4-1.7-.1-1.7.8 0 .8-.5 1.5-1 1.5-.6 0-1.6 1.1-2.2 2.5-.6 1.4-1.9 2.5-2.8 2.5-1.8 0-5.1 3.2-7.1 7-1.4 2.7-1.6 6.4-.4 9.2.4 1.1.3 1.8-.4 1.8-.9 0-.9.5-.1 2 .7 1.4 2.1 2 4.4 2 3.3 0 8.6 3.5 8.6 5.6 0 .5 1.6 2.5 3.5 4.4 1.9 1.9 3.5 4.1 3.5 4.9 0 .9 1.7 5 3.8 9.1 3.1 6.2 4.2 7.7 6.9 8.4 2.4.7 3.7 2.1 5.4 5.7 1.2 2.6 1.9 5.7 1.6 6.8-.3 1.3 0 2.1.7 2.1 2 0 2.7-1.2 1.5-2.7-.9-1-.8-1.3.5-1.3 1.9 0 7.8 7.8 7 9.2-.4.6 0 1.4.7 1.9 1.7 1.1 7.6 1.2 8.2.1.2-.4.3-.2.1.4-.1.6.4 2.4 1.2 3.9.8 1.5 1.3 3.3 1.3 3.9-.1.6.3 2.4.9 3.9.7 1.6 1.2 3.3 1.2 3.8s.5.9 1.1.9c.6 0 .8-.9.4-2-.8-2.6.7-2.6 3 0 1.1 1.2 2.6 1.8 3.5 1.5 1.1-.3 2 .1 2.4 1 .3.8 0 1.5-.5 1.5-.7 0-.9.9-.5 2.2 1.3 4.3 1.8 13.8.8 13.8-.6 0-1.2 2.3-1.4 5-.1 2.8 0 5 .5 5 .4 0 .7.6.7 1.4 0 2.3 3.3 2.9 4.7 1 .7-1 1.3-1.2 1.3-.6 0 .7.5 1.2 1 1.2.6 0 1-.8 1-1.8s.3-1.3.8-.6c.4.6 3.1 1.9 6.1 3 2.9 1 6.1 2.9 7.1 4.1 2.1 2.7 4.2 2.2 6.5-1.3.8-1.3 2.2-2.4 3-2.4.8 0 1.5-.9 1.5-2s.5-2 1-2c.6 0 1-.7 1-1.5 0-1.4-.3-1.3-2.5.2-1.3 1-2.5 2.5-2.5 3.4 0 2.2-3.1 3.4-4.2 1.7-.4-.7-.6-2.1-.4-3 .3-1.2-.8-2.5-3-3.9-3.4-2.1-4.6-4.9-2-4.9.7 0 2-.8 2.7-1.7.8-.9.9-1.4.3-1-1.5.9-4.3-2.3-4.4-4.8 0-1.1-.3-3.9-.6-6.1-.4-2.7-.2-4.4.6-4.9s.8-1 0-2c-.7-.8-1-2.1-.8-2.9.2-1.2 1.2-.9 4.7 1.4 2.8 1.9 5.7 3 8 3 2.6 0 4.3.8 6.1 2.7 2.5 2.6 7.8 6.3 9.2 6.3.4 0 1.4-.7 2.3-1.6 1.4-1.4 2.2-1.5 5.6-.5 2.1.7 3.9 1.6 3.9 2.1 0 .6 1.5 1 3.4 1 2.7 0 3.5-.5 4-2.4.4-1.8 1.2-2.3 3.6-2.2 1.6.1 3 .4 3 .8 0 .5.9-.1 2-1.2 1.1-1.1 2.4-2 3-2 .5 0 1.2-1.1 1.6-2.5.3-1.4 1.3-2.4 2.3-2.3 4 .3 5.1-.3 5.1-2.6 0-1.8.9-2.7 4.5-4.1 2.5-.9 5.2-1.5 5.9-1.2 2.1.8 10.9-2.8 11.6-4.8.6-1.6.7-1.6 2.3-.1.9 1 1.7 2.1 1.7 2.5 0 .8 14.6.5 16-.4.5-.3.6-1.3.3-2.3-.7-1.6-.6-1.6 1.9 0 2.7 1.8 8.9 2.1 9.9.6.9-1.4 5.9 1.3 5.9 3.1 0 .9 1.8 2.3 4.3 3.3 5.2 2.2 6.1 2.2 5.3.3-.3-.8-.1-1.5.4-1.5.6 0 1-.7 1-1.6 0-1 .6-1.5 1.8-1.2 2.4.5 6.2-3.5 5-5.6-.8-1.4-.5-1.4 1.7-.6 1.5.6 3.6 1 4.7 1s3.6 1.4 5.5 3c3.8 3.4 6.1 3.3 9.9-.1 1.1-1.1 2.4-1.9 2.8-1.9.4 0 1.5-.7 2.3-1.6 1.1-1.1 2.7-1.4 5-1.1 2.4.4 3.3.2 3.3-.8 0-.7.5-1.5 1.1-1.7.9-.3.9-1 0-2.6-.6-1.2-.8-2.2-.3-2.2 1.6 0 3.5 2.9 2.9 4.4-.3.8.2 1.6 1.3 1.9 1 .3 2.8 2.3 3.9 4.5 2 3.9 2 4 .1 4.5-2.9.7-6.1 6.6-4.9 8.9.7 1.3.6 1.8-.2 1.8s-.8.4.1 1.5c.7.8 1.6 1.2 2.2.9.5-.3 2 .1 3.3 1 3.4 2.3 5.4 2 6.7-.9.6-1.4 1.6-2.6 2.2-2.6.6-.1 1.6-.2 2.1-.4.6-.1 1.5-.3 2-.4.6-.1 3.5-.3 6.5-.4l5.5-.2.3-3.7.3-3.7 4.2 2c4.6 2 8.7 2.5 8.7.9 0-.6 1.5-1 3.4-1 2.6 0 3.6-.5 4.1-2 .3-1.1 1.3-2 2.1-2s1.4-.6 1.4-1.3c0-1.9 8-2 10.1-.1.9.8 2 1.4 2.5 1.2 1.1-.3 9.5 7.9 10.9 10.7.8 1.4 2.7 2.3 6.9 3 3.3.6 6.1 1.6 6.4 2.3.2.6 1 1.2 1.8 1.2.7 0 1.6 1 1.9 2.3.9 3.3 8.8 7.1 11.6 5.7 1.6-.9 2.8-.5 6.9 2.5 2.8 2 5 4.3 5 5 0 1.7 4.8 5.5 7 5.5.9 0 2.7 1.1 4 2.5 1.3 1.4 3.4 2.5 4.7 2.5 1.3 0 4.4.9 6.9 2 2.4 1.2 4.9 1.8 5.4 1.5 1.9-1.1 1-4.1-2-7-1.6-1.5-2.9-3.1-2.8-3.4.2-1.8-.4-2.2-1.6-1.1-1.1.8-2 .9-3.3.1-1-.6-1.3-1.1-.6-1.1.8 0 .5-1.2-.8-3.5-1.2-1.9-2.5-3.3-2.9-3-.4.3-1-.2-1.4-1-.4-1.2.3-1.5 3.3-1.5 2.5 0 4.1-.5 4.5-1.5.3-.8 1.7-2 3.1-2.7 1.8-.8 2.5-1.9 2.5-4 0-2.5.3-2.8 2.4-2.2 1.6.4 2.5.1 2.9-1 .4-.9 1.6-1.6 2.7-1.6 2.8 0 4.2-3.9 2.4-6.5-1.8-2.5-1.8-3.6.1-2.9 1 .4 1.5 0 1.5-1.4 0-1.2.5-2.4 1-2.7.6-.3 1-2.5 1-4.8 0-2.4.6-5.2 1.4-6.3 1-1.3 1.1-2.5.5-3.5-1.4-2.2-1.1-3.4 1.4-4.4 3-1.4 4-8.4 1.6-11.4-1.2-1.5-1.9-1.7-2.2-.9-.3.7-.6.3-.6-1-.1-1.2-.5-2.2-1.1-2.2-1.5 0-6 4.2-6 5.7 0 .7-1 1.3-2.2 1.3-4.8 0-12.4 7.4-11.3 10.9.3 1-.1 2.3-1 3.1-.9.7-1.3 2.1-.9 3.5.4 1.6-.2 2.9-2.6 4.8-2.4 2.1-2.9 3.1-2.4 5.1.4 1.9-.1 3.1-2 5.1-1.4 1.4-2.6 3.3-2.6 4.1 0 1-.7 1.3-2.5.8-1.5-.4-2.5-.2-2.5.5 0 .6-.6 1.1-1.4 1.1-.9 0-1.2.8-.8 2.6.4 2.2.2 2.5-1.9 2.2-1.6-.2-2.3.2-2.1 1 .2.9-.6.7-2.2-.5-1.6-1.1-2.5-2.8-2.6-4.3 0-3-1.7-5-4.1-5-.9 0-2.2-.7-2.9-1.5-.7-.9-2.1-1.3-3.1-1-1.4.5-2.2 0-2.8-1.7-1-2.5-5.1-6.4-6.3-6-.5.1-.8-.5-.8-1.3 0-2.6-4.8-12.3-6.6-13.3-2-1.1-2.3-5.4-.9-13 .6-3.1.4-4.2-.5-4.2-.8 0-1-.8-.6-2.4.3-1.4.1-3.6-.6-5.1-.9-1.9-.9-2.8 0-3.7.7-.7 1.2-2.2 1.2-3.4 0-1.2 1-3.3 2.1-4.8 2-2.6 2.2-2.6 4.1-1 1.8 1.7 2 1.7 4.2-.9 2.7-3.2 4.2-3.4 5.5-.8 1 1.8 6.1 3.6 6.1 2 0-.4 1-.9 2.3-1.1 1.8-.2 2.2-.9 2.1-3.6-.1-1.7.2-3.2.7-3.2.6 0 .5-.9-.2-2.1-.8-1.5-.8-2.4 0-3.2.6-.6 1.1-1.9 1.1-2.8 0-2.1 5.1-4.3 7.9-3.4 1.3.4 2.1.2 2.1-.5 0-.8.9-1 2.4-.6 2 .5 2.6.1 3.5-2.4.5-1.7 1.5-3 2.2-3 .7 0 .9-.9.5-2.4-.4-1.6 0-3 .9-4 1.1-1 1.4-3.1 1.2-7.5-.2-3.4-.7-6.4-1-6.8-.4-.3-.7.1-.7 1 0 1.9-1.7 2.2-4 .7-.9-.5-1.9-.5-2.7.2-.9.7-2.6.5-6-.6-2.5-.9-4.7-1.6-4.9-1.6-.3 0-1.6 4.5-1.5 5.5.2 2-3.7 3.5-6.4 2.5-3.9-1.5-4.5-1.3-4.5 1.5 0 1.4-.9 3-1.9 3.7-1 .6-1.7 1.8-1.4 2.6.4.8 0 1.3-.8 1.1-.8-.1-2.1.1-3 .5-.8.4-2.6.3-3.9-.2-2.2-.8-7.7.9-9 2.9-.7 1-6.4.6-7.2-.5-.3-.5-1.8-1-3.3-1.2-2-.2-2.9.2-3.2 1.6-.3 1-1.1 1.6-1.8 1.4-1.4-.6-4.5 2.1-4.6 3.9 0 .7-.5.1-1-1.2-.5-1.4-.7-3.9-.4-5.7.4-3.1.1-3.5-4-6-5.5-3.2-13.2-4.3-14.1-2-.3.8-1.2 1.2-2 .9-.8-.3-2-.1-2.7.5-.6.5-2.5 1.2-4.2 1.4-1.6.3-3.7.7-4.5.9-1 .3-1.4-.2-1.2-1.4.2-.9-.2-1.7-.7-1.7-.6 0-1.5-.9-2.1-2.1-1-1.7-.7-2.4 1.4-4.4 1.5-1.4 3.3-2.2 4.1-1.9.8.4 1.5.2 1.5-.4 0-1.3 3-1 5.7.6 1.9 1 2.8 1 5.2-.3 1.6-.8 3.2-2.4 3.6-3.5.6-1.9 2.1-2.5 5.8-2.2 1.4.1 1.6-.3 1.1-2.2-.3-1.3-.1-2.7.5-3 .6-.4 1.1-1.8 1.1-3.2 0-1.4.7-4 1.4-5.9.8-1.9 1.1-3.5.5-3.5-1.4 0-1.1-2 .6-3.6 2.2-2.2 5.9-1.4 6.3 1.4.4 2.8 3 4.1 4.3 2.1.6-1 .9-1 .9-.2 0 .7.5 1.3 1 1.3.6 0 1-.9 1-2 0-2.7 4.6-4.5 7.7-3.1 1.3.6 3 .8 3.8.5 1.8-.7 2.1 3.6.4 5.3-.6.6-.9 2.8-.7 4.9l.3 3.9h4.5c2.5 0 5.1.4 5.8.8.7.5 1.4.2 1.8-.7.3-.9 1.8-1.6 3.2-1.6 2 0 2.3-.3 1.4-1.2-.7-.7-1.2-1.9-1.2-2.8.1-1.1.6-.8 2.1 1 2.5 2.9 10.6 6.3 11.5 4.8.4-.5 1.9-.8 3.5-.6 1.9.3 2.9 0 2.9-.8 0-.7 1.4-1.7 3.2-2.3 2.7-1 3.5-.8 5.4 1 1.6 1.5 2.3 1.7 2.6.7.3-.8 1.3.1 2.6 2.2 3.1 5.2 6.3 8.1 7.8 6.9.8-.6 3.1.2 7.5 2.7 5.5 3.1 6.8 3.5 9.2 2.6 2.5-1 3.1-.7 6.8 2.9 2.2 2.1 4.5 3.9 5 3.9.6 0 .9.6.6 1.2-.2.7.2 2.7 1 4.5 1.8 4.5 1.6 6.3-.7 6.3-1.7 0-1.9.3-1 1.9.7 1.4.7 2.2-.1 2.6-.6.4-.8 1.4-.5 2.2.6 1.4-.5 1.3-5.1-.4-1.4-.6-1.8 2.3-.4 3.1.4.3 1.1 1.8 1.4 3.3 1.2 5.4 2.3 6 5.2 2.9 2-2.2 2.3-3.1 1.5-4.2-1.4-1.5-.5-3.4 1.6-3.4 1.7 0 1.9-1.7.3-2.2-1.4-.5.6-4.8 2.7-6.1 1.9-1.1 1.8-5.1-.1-6.7-2.3-1.9-1.8-3.3 1-2.6 1.9.5 2.5.2 2.5-1 0-.9.9-1.8 1.9-2.1 1.2-.3 1.7-1.1 1.4-1.9-.3-.8.1-1.4 1-1.4.8 0 1.7-.5 1.9-1.1.5-1.4 4.6.5 6.6 3 1 1.4 1.1 1.3.6-.4-.6-1.6-.5-1.8.7-.8.7.7 2.2 1.3 3.3 1.3 1.6 0 1.8.2.7.9-.7.5-1 1.4-.7 2 1 1.6 2.6 1.4 2.6-.4 0-.8.9-1.5 2.1-1.5 1.1 0 1.7.4 1.4 1-.3.5 0 .7.8.4.8-.3 1.9.2 2.6 1 2 2.4 4.3.8 3.6-2.4-.5-2.2-.2-2.8 1.6-3.3 1.7-.5 2-1.1 1.5-3.1-.6-2.4-.4-2.6 2.9-2.6 2.2 0 3.8-.6 4.1-1.5.3-.8 1.4-1.7 2.5-2 1-.4 1.9-1.3 1.9-2.1s.7-1.4 1.5-1.4 1.9-.9 2.5-2.1c1.5-2.8 2-8.8.9-9.5-.6-.3-.5-1.1.2-2 .6-.8.7-1.4.2-1.4-.6 0-.9-1.1-.8-2.5.2-1.4-.1-2.7-.6-3.1-1.7-1-.9-2.6 1.1-2.1 2.1.5 2.8-.7 1-1.8-1.7-1-1.1-4.4 1.5-8.9 1.4-2.5 2.3-5 1.9-6-.4-1.1-.1-1.6 1-1.6.9 0 1.6-.4 1.6-.9s1.4-1.2 3.1-1.6c2.3-.5 2.8-1 2-1.8-.6-.6-1.1-2.4-1.1-3.9 0-2.1.5-2.8 1.9-2.8 2 0 3.5-3.7 2.5-6.3-.4-1.1.4-1.7 2.4-2.2 2.6-.5 3.2-1.3 4.2-5.6 1.3-5.3 2.5-6.8 4.3-5 1.7 1.7 4.1 1.2 5.9-1.3 1.7-2.3 1.7-2.4 0-3.1-1.6-.6-1.6-.7.1-1.6.9-.6 1.7-1.8 1.7-2.9 0-1.2 1-2.1 2.9-2.5 2.3-.5 3.3-1.5 4.1-4.1.6-1.9 1.5-3.4 2-3.4.4 0 1-.9 1.3-2 .3-1.3 1-1.8 2.1-1.4.9.3 1.6.2 1.6-.4 0-.6 1.2-2.4 2.8-4 4.9-5.4 5.1-5.7 4.1-9.8-1.9-9-2.6-15.9-1.6-16.5.5-.4.8-3 .5-6.2-.4-5.2-.3-5.5 1.4-4.6 1.6.9 2 .7 2.5-1.1.5-1.9 1-2.1 6.2-1.4 3.1.3 6.4 1.3 7.3 2.2 1.5 1.2 2 1.2 3.3.2 1.2-1 2.2-1 3.9-.2 1.3.6 3.3.8 4.5.5 1.2-.3 2.8 0 3.6.7.8.6 2.3.9 3.4.5 1.1-.3 4.3.1 7.1.9 4.6 1.4 5 1.4 5-.2 0-1.2.3-1.3 1.2-.4 2 2 3.8 1.4 3.8-1.2 0-1.3.7-2.6 1.5-3 .8-.3 1.5-1.7 1.5-3 0-2.4.2-2.4 3.1-1.4 1.8.6 3.4 2 3.7 3 .4 1.5.7 1.7 1.3.6 1.3-2 1.1-2.5-2.2-4.6-2.5-1.6-2.8-2-1.4-2.6 1-.3 1.5-1.5 1.4-2.8-.6-5.3 6.9-13.4 9.1-9.8.5.9.4 2-.3 2.8-.6.8-1.6 2.4-2.2 3.6-.7 1.1-1.7 2-2.3 1.9-.6-.2-.9.4-.6 1.2.7 1.7 2 1.9 2.9.5.5-.8 1.1-.7 2.1.1 1.2.9 1.3.9.9-.3-.4-1 .1-1.7 1.5-2.1 1.2-.3 1.9-1 1.5-1.6-.3-.6-1.2-3.3-1.9-6-1.2-4.5-1.1-5 .5-5.4.9-.3 2.2 0 2.7.5.6.6 1.2.6 1.7-.1.3-.6-.1-1.8-.9-2.7-.9-.8-1.6-2.1-1.6-2.7 0-2.2 3-5.6 5.3-5.9 2.6-.4 3.1-4.3.8-7.1-2-2.4.4-2.2 2.8.2 1.4 1.4 2.1 1.6 2.5.8.2-.7.5-.3.5.7.1 1.1.4 1.7.7 1.3.8-.8 5.6 1.7 7.3 3.7 1.5 1.7 3.6 2.2 2.6.6-.4-.6.2-.7 1.7-.1 1.3.5 2.2 1.6 2.2 2.5-.1.9.2 1.4.6 1.1.4-.3 1.3.2 2 1 1 1.3 5.3 1.2 6.8-.1.2-.1.5-3.2.6-6.8.2-3.6.8-7.1 1.4-7.9 3.6-4.3-12.8-9.1-22.9-6.7-5.5 1.3-6.3 1-7.3-3.3-.6-2.5-.5-2.8 1.4-2.2 2.5.8 2.6-.8.1-3.2-2.6-2.5-3.8-8.3-1.7-8.3.9 0 1.6-.8 1.6-2 0-1.1.8-2.4 1.8-2.7.9-.4 2-1.1 2.4-1.7 1.2-1.7.9-6.1-.4-7.5-1.1-1.1-.9-1.3 1-.8 2.2.5 2.4.3 1.9-3.1-.3-2-.8-4.7-1.2-6-.6-1.7-.4-2.2.6-2 .9.2 1.5-.8 1.7-2.9.2-2.4-.4-3.8-2.7-6.2-3.1-3.1-4.1-6.1-2.1-6.1 1.6 0 1.2-1.5-1-4-1.1-1.3-2.1-3-2.1-3.9-.1-.9-.3-3.2-.4-5.1-.1-1.9-.7-4.5-1.4-5.8-.6-1.2-.8-2.8-.4-3.5.9-1.5.5-4.8-.9-6.5-.6-.7-.8-1.5-.4-1.9.3-.3.6-.2.6.4 0 .6.6 1.1 1.3 1 3.5-.1 4.7.5 4.7 2.3 0 1.4.7 2 2.4 2 1.8 0 2.5.7 2.9 2.7.3 1.6 0 3.1-.6 3.5-.7.4-.7 1.1.2 2.2 1.1 1.3 1.1 1.9 0 3.3-1.2 1.5-1.2 1.6.4 1 1-.4 2.5-.7 3.3-.7.8 0 2.2-1.6 3-3.5 1.3-3.1 1.6-3.4 3.9-2.5 1.4.5 2.5.8 2.5.7 0-.1-.4-1.7-1-3.6-.8-2.9-.7-3.4 1-3.8 1.1-.3 2-1.2 2-2s.4-1.2.9-.8c1.2.7 4.1-3.3 4.1-5.6 0-1.2.7-1.5 2.4-1.2 1.8.4 2.6 0 3.1-1.6.8-2.6 1.9-2.6 6-.1 1.9 1.1 3.9 1.9 4.5 1.8.7-.2 1.5.3 1.7.9.3.7 0 1.3-.6 1.3s-1.1.9-1.1 2c0 1.5.7 2 2.8 2.2 1.5 0 4.1.3 5.7.5 4.3.6 11.6.6 12.2 0 .2-.3 0-1.5-.7-2.6-.9-1.8-.8-2.1.9-2.1 3.4 0 3.5-2 .1-5.5s-2.8-4.5 2.5-4.5c1.5 0 2.6-.7 3-2 .3-1.1 1.1-2 1.6-2s.2-1.1-.7-2.5c-1.4-2.2-1.5-3-.4-5 .7-1.3 1.8-2.1 2.6-1.8.8.3 1.1 1 .8 1.5-.4.6.2.8 1.2.6 1.9-.4 2.2-1.9 1-4.8-.5-1.2.3-1.5 3.6-1.6 2.4-.1 7.4-.5 11.2-.9l6.9-.8-.5 2.7c-.6 2.9.3 3.3 2.5 1.1.8-.8 1.8-1.1 2.2-.7.4.4.6-.7.4-2.3-.1-1.7-.1-4.5-.1-6.4.2-2.6.5-3.1 1.5-2.3.7.6 2.2.9 3.2.7 1.1-.2 2.6-.4 3.4-.4 1.1-.1 1.1-.4.1-1.6-1-1.2-.6-1.5 2.9-2.1 3.5-.6 4.1-1 4.1-3 0-1.5.6-2.4 1.5-2.4s1.5-.6 1.4-1.3c-.4-3.2.3-5.7 2.3-8.2 1.1-1.5 2.2-4.1 2.3-5.9.4-4.5 1-6.7 2.2-7.4 1.5-1 .7-6.8-1.4-9.7-2.5-3.4-5.9-5-10.5-5-2.6 0-4.4.6-5.2 1.8-.7.9-1.6 1.4-1.9 1-1-1-.8-6.1.2-6.8.6-.3.6-1.7.1-3.3-.4-1.6-.4-3.6.1-4.5.6-1 .5-1.8-.1-2.2-.6-.4-.5-1.2.5-2.1 1.2-1.2 1.4-3.1.9-8.7-.3-4-.8-7.9-1.1-8.7-.3-.8-.7-2.6-.9-4-.3-2.7-3.2-5.3-5-4.6-.6.2-1.9-1.4-2.8-3.7-1.1-2.9-1.9-3.8-2.5-2.9-.6 1-1 1-2.1-.3-1.1-1.4-1.6-1.1-3.8 2.6-2 3.3-2.2 4.5-1.4 6.4.6 1.3.8 2.6.4 3-1.3 1.3-1.1 7.4.4 8.6.8.6 1.4 1.6 1.4 2.1s.9 2.2 2.1 3.6c1.3 1.7 1.8 3.4 1.4 5-.3 1.3-.1 3 .5 3.7.8.9.5 2.7-1.1 6.6-1.3 3.4-1.9 6.6-1.5 8.7.3 2.2.1 3-.6 2.6-.7-.4-.8-.2-.4.5.4.6-.2 2.4-1.4 3.9-1.6 2-3.2 2.7-5.8 2.9-2.1.1-4.3.2-5.1.2-.8.1-1.1.7-.7 1.7.5 1.4.1 1.6-2.5 1-1.7-.3-4-.6-5-.6-1.1 0-3.3-1.4-5.1-3-3.4-3.3-4.4-3.6-5.1-1.8-.3 1-.7 1-2-.1-.9-.7-1.5-1.7-1.2-2.1.3-.5 0-1.2-.6-1.6-.8-.5-.9-.3-.4.6.6 1 .4 1.2-.7.7-.9-.3-2.1 0-2.7.6-.8.8-1.6.6-2.9-.6-2.4-2.2-3.5-2.1-5.6.2-2.5 2.7-8.1 3.2-17.1 1.5-4.4-.9-9.9-1.8-12.3-2.1-2.7-.3-4.7-1.2-5.6-2.5-.8-1.1-1.9-1.7-2.5-1.4-.6.4-.8-1.8-.5-6.5.4-4.7.1-7.5-.7-8.5-2-2.4-.2-2.8 2.6-.5l2.7 2 3.2-2.3c2.5-1.9 3.7-2.2 6-1.5 3.4 1 5 .3 4.2-1.8-.4-.9-.2-2.1.4-2.8.8-.9.2-1.6-2.2-2.6-1.8-.7-3.6-1.7-3.9-2.2-1-1.4-7.6-1.9-8.4-.7-.8 1.2-7.5 1.3-9.4.1-.8-.5-2.5-.3-4.3.6-3.2 1.6-6.8 1.9-16.5 1.1-5.8-.5-6.7-.9-11.2-5.2-3.1-2.8-5.9-4.6-7.4-4.6-4.4 0-7-4.7-6.7-12.3 0-2.7-.5-4.3-2.3-6-3.3-3-6-7.4-5.3-8.5.3-.5-.3-1.7-1.4-2.7-1.1-1-2-2.4-2-3.1 0-2.7-3.4-8.2-5.7-9.3-1.3-.6-2.6-1.8-3-2.7-.4-1.2-.8-1.3-1.3-.3-.6.9-1.9.1-4.5-2.7-2.1-2.1-3.4-3.3-3.1-2.7zm-2 19.9c.3.8.2 1.2-.4.9-.6-.3-1-1-1-1.6 0-1.4.7-1.1 1.4.7zm-3.4 3.2c0 1.5-.2 1.5-1 .2-1.3-2-1.3-3.3 0-2.5.6.3 1 1.4 1 2.3zm9.8.2c-.7 1-1.4 1.7-1.7 1.5-.4-.4 1.8-3.5 2.5-3.5.2 0-.1.9-.8 2zm13.7 23.1c.4 1 1.1 1.9 1.8 1.9.8 0 .8.3 0 1.1-.6.6-1.9.8-3 .5-2.2-.7-5.7-6.2-4.8-7.6.8-1.3 5.3 1.7 6 4.1zm-97.5 30.9c0 .5-.2 1-.4 1-.3 0-.8-.5-1.1-1-.3-.6-.1-1 .4-1 .6 0 1.1.4 1.1 1zm256.7 10.6c2.4 2.4.3 3.2-4.7 1.9-4.4-1.2-4.3-1.8.5-2.8 1.1-.3 2.1-.5 2.3-.6.2 0 1 .6 1.9 1.5zm-209.7 1.4c0 .5-.2 1-.4 1-.3 0-.8-.5-1.1-1-.3-.6-.1-1 .4-1 .6 0 1.1.4 1.1 1zm-82.4 30.3c.1 1.2.5 3.7.9 5.6.6 2.3.5 3.2-.2 2.8-.6-.4-1.3.3-1.6 1.4-.7 2.7-3.3 1.9-2.9-.9.2-1.7-.2-2.2-1.7-2.2-1.4 0-2.1.6-2.1 1.9 0 2.8-2.5 3.3-4.7.9-1.3-1.5-1.5-2.2-.5-2.5.6-.3 1.2-1.6 1.2-2.9 0-1.7.6-2.4 2-2.4 1.1 0 2-.5 2-1.1 0-1.3 2-3.4 4-4.1 2-.7 3.5.8 3.6 3.5zm174.7 159.7c-.5 2-1.5 2.5-2.6 1.4-.6-.6 1.3-3.3 2.5-3.4.3 0 .4.9.1 2zm-387.3 77c0 .5-.4 1-1 1-.5 0-1-.5-1-1 0-.6.5-1 1-1 .6 0 1 .4 1 1zm-4.5 41c.3.5.1 1-.4 1-.6 0-1.1-.5-1.1-1 0-.6.2-1 .4-1 .3 0 .8.4 1.1 1zm-178.3 39.2c1.7 1.4 3.4 8.3 1.8 7.3-.6-.3-1-1.3-1-2 0-.8-1.1-2.2-2.5-3.1-1.4-.9-2.5-2-2.5-2.5 0-1.3 2.4-1.1 4.2.3zm.8 8.8c0 .5-.5 1-1.1 1-.5 0-.7-.5-.4-1 .3-.6.8-1 1.1-1 .2 0 .4.4.4 1zm230.6 1.8c-.4.3-1.4-.2-2.4-1.2-1.6-1.8-1.6-1.8.6-.6 1.3.6 2.1 1.4 1.8 1.8zm-236 6.9c1.9 2.5 1.7 3.2-.7 2.6-1.4-.4-2.7 0-3.5 1.2-.7 1-2 1.5-2.8 1.2-1.3-.5-1.3-.9 0-3.6 1.8-3.5 4.9-4.1 7-1.4zm5.4-.7c0 .5-.2 1-.4 1-.3 0-.8-.5-1.1-1-.3-.6-.1-1 .4-1 .6 0 1.1.4 1.1 1zm-21 5.3c-2.7 2.5-1.1 4.7 3.5 4.7 3.9 0 4.4 1 3.8 7-.4 3.4-.1 4.9 1.1 5.9 2 1.7 2 3.1 0 6-1.3 1.8-1.8 2-2.5 1-.5-.8-.3-1.6.3-2 .8-.5.6-1.5-.5-3.3-1.1-1.5-1.3-2.7-.7-3.1 1.4-.8-9.1-11.7-10.6-11.1-1.6.6-5.1-2-4.1-3 .4-.5 1.1-.4 1.5.2.8 1.2 5.3 1.3 4.5.1-.3-.5-1.1-.6-1.9-.3-.8.3-1.4.1-1.4-.4s.9-1.2 2-1.5c1.1-.4 1.8-1.1 1.5-1.6-1.2-1.9.6-2.8 3-1.7l2.5 1.1-2 2zm250 13.3c-1.5 1.7-6 1.9-6 .1 0-.6-.3-2.2-.6-3.4l-.6-2.2 4.2 2c3.4 1.7 3.9 2.3 3 3.5zm19 15.4c0 .5-.5 1-1.1 1-.5 0-.7-.5-.4-1 .3-.6.8-1 1.1-1 .2 0 .4.4.4 1zm4 12.6c0 .8-.4 1.2-1 .9-.5-.3-1-1-1-1.6 0-.5.5-.9 1-.9.6 0 1 .7 1 1.6zm-18 7.8c0 2.4-2 3.9-3.6 2.8-1.4-1.1-1.1-3.6.6-4.4 2.5-1.1 3-.9 3 1.6zm144 24.6c0 .5-.2 1-.4 1-.3 0-.8-.5-1.1-1-.3-.6-.1-1 .4-1 .6 0 1.1.4 1.1 1zm-106.6 6.6c1.3.5 1.4.9.5 2-.6.8-.9 2.1-.5 2.9.3.9 0 1.5-.9 1.5-1 0-1.5-1.1-1.5-3.5 0-3.8 0-3.8 2.4-2.9zm78.6 31.5c0 .5-.5.9-1.1.9-.5 0-.7.4-.4 1 .3.5.2 1-.4 1-.9 0-3.1-3.1-3.1-4.3 0-.2 1.1-.2 2.5.1 1.4.2 2.5.8 2.5 1.3z"/><path d="M820.1 136.749c-.6 1.4-1.8 2.5-2.7 2.5-.8 0-1.5.6-1.5 1.2 0 .8-.3.9-.8.3-1.3-1.8-8.6-3.9-9-2.6-.6 1.7-2.9 1.3-5.1-1-1-1.1-2.2-1.6-2.5-1.1-.3.6.1 1.3 1 1.6.8.3 1.3 1 1 1.5-.4.5-.1 2.1.5 3.5 1.1 2.3 2.1 3 4 2.8.4-.1.9 1.2 1.3 2.8.3 1.9 1.2 3 2.3 3.1 1 0 3.1.2 4.6.3 2.1.1 3.2-.5 4.4-2.5 1.1-1.9 2.1-2.5 3.9-2.1 1.3.2 2.1.8 1.9 1.3-.5.7 2.4 2.9 3.8 2.9.3 0-.2-1.8-.9-4.1-.8-2.2-1.2-4.4-.9-4.9.2-.4-.2-1.3-1-2s-1.5-2.3-1.5-3.6c0-3.1-1.4-3.1-2.8.1zM780.9 142.649c0 1.1-1.2 1.5-4.8 1.4-7.6-.2-9.5 2-4.1 4.7 2.3 1.3 3.4 1.4 4.4.5.8-.7 2-.8 2.6-.4.7.4.9.3.5-.4-.3-.6.3-1.3 1.4-1.7 1.1-.3 2-1.3 2-2.1s.6-1.4 1.4-1.4c.8 0 1.8-.5 2.1-1 .4-.6-.7-1-2.4-1-2 0-3.1.5-3.1 1.4zM789.9 142.249c1.9 1.3 3 1.3 3 0 0-.6-1-1-2.2-1-1.9 0-2 .2-.8 1zM797.4 144.249c-.3.5.3 1 1.4 1 1.2 0 2.1-.5 2.1-1 0-.6-.6-1-1.4-1-.8 0-1.8.4-2.1 1zM625.9 176.749c0 1 2.9 2.4 3.4 1.7.3-.6-.3-1.2-1.4-1.5-1.1-.3-2-.4-2-.2zM880.9 181.149c0 2.3-.1 2.3-1.8.8-2.5-2.3-7.2-2.3-7.2 0 0 .9-.7 2.4-1.5 3.3-1.4 1.5-1.3 1.9.6 3.6 2.2 1.9 2.2 1.9 1.6-.6l-.6-2.5 2.4 2.8c1.8 2 3 2.6 4.8 2.2 1.2-.3 3.6-.1 5.1.5 2.5.9 3.1.8 4.3-1 .8-1.1 2.1-2 2.9-2 1.2 0 1.2-.3.2-2-.8-1.3-2.4-2-4.3-2-2.2 0-3.5-.7-4.7-2.8l-1.7-2.7-.1 2.4zM506.7 197.749c-.3 1.4-.1 2.5.3 2.5.5 0 .9-1.1.9-2.5s-.2-2.5-.4-2.5-.6 1.1-.8 2.5zM493.9 206.249c0 .8-.9 1.1-2.5.8-3-.6-7.1 3.2-6.1 5.8.4 1 .1 2.1-.6 2.6-.9.5-.6.8 1 .8 1.4 0 2.2-.6 2.2-1.6 0-1.1.5-1.4 1.6-1 1.9.7 6.2-1.4 8.9-4.4 1.6-1.8 1.7-2.3.5-3-.9-.6-1.6-.6-1.8.1-.3.6-.9.6-1.8-.2-1.1-.9-1.4-.9-1.4.1zM478.4 216.249c.3.5 1.1 1 1.6 1 .6 0 .7-.5.4-1-.3-.6-1.1-1-1.6-1-.6 0-.7.4-.4 1zM521.9 220.649c0 .9 3 1.4 3.5.6.4-.6-.3-1-1.4-1-1.2 0-2.1.2-2.1.4zM299 361.149c-.9.6-1 1.1-.2 1.5.6.4.9 1.1.6 1.6-.3.5.4 1.4 1.5 2 1.6.8 2.4.8 3.5-.4.8-.8 2-1.6 2.7-1.9 1-.4 1.1-.7.1-1.8-1.1-1.1-1.3-1-1.3.4 0 .9-.4 1.7-.9 1.7-1.3 0-3.2-2.6-2.4-3.3.9-1-2-.8-3.6.2zM775.9 362.749c-1.4.7-3.3 1.6-4.4 1.9-1.3.5-1.6 1.1-1 2.4.4.9.7 2.8.7 4.1-.1 2.2.2 2.3 4.1 1.9 2.7-.3 4.9 0 6.1.8 1.9 1.4 2.7 7.4 1 7.4-.5 0-.2.7.8 1.4 2.4 1.8 2.1 3.1-.9 4.5-1.5.6-2.4 1.4-2.1 1.7.3.3 1.5.1 2.6-.6 1.3-.7 2.8-.7 3.9-.2 2.1 1.1 4.2.5 4.2-1.3 0-.8 1.5-1.7 3.6-2.1 2-.4 3.3-1.1 3.1-1.8-.3-.6-.1-3.3.3-6.1.7-4.4.5-5.1-1.6-6.8-1.3-1-2.4-2.4-2.4-3.1 0-1.3-3.1-4.6-4.3-4.6-.4 0-.7.9-.7 2 0 2.7-1.3 2.5-4.6-.5-3.1-2.8-4.8-3.1-8.4-1zM310.1 367.249c-2 1.6-2.1 2.2-1 3.9 1.6 2.6 5.5 4.4 6.1 2.8.3-.7.8-.5 1.2.7.6 1.3.3 2.3-1 3.2-2.5 1.8-1.4 3.6 4.7 8.2 8.3 6.2 10.9 9.2 10.2 11.4-.4 1.5-.2 1.9 1.3 1.7 1-.2 2.8.2 4 .9 1.6.9 2.2.9 2.5 0 .3-.7 1.9.9 3.6 3.4 1.8 2.6 2.8 4.9 2.2 5.3-.5.3-.7 1.8-.4 3.3.4 1.9 0 3.3-1 4.1-2.3 1.9-2 2.6 1.5 2.8l3.1.2-.6-4.3-.7-4.3 3 .5c3 .4 5 3 3.1 4.2-1.1.7 1.5 5 3.2 5 .7 0 .6-.6-.2-1.5-.9-1.1-.9-1.5-.1-1.5s.7-1.1-.3-3.5c-1.1-2.6-1.2-3.5-.3-3.6.7-.1 1.7-.2 2.2-.4.6-.1 1.5-.3 2.2-.3 1.7-.3.4-3.2-1.3-3.2-.8 0-1.4-.6-1.4-1.4 0-.7-.7-1.9-1.5-2.6-.8-.6-1.3-2.2-1.2-3.3.1-1.4-.4-2.2-1.4-2.2-.8 0-4.6-3.1-8.5-6.9-3.8-3.9-7.3-7-7.9-7-1.3-.1-9.8-5.6-10.7-7-.4-.6-1.1-1.1-1.5-1.1-2.8-.2-5.3-1.9-5.3-3.6 0-1-.5-1.9-1.1-1.9-.6 0-1.8-.9-2.7-2-1.7-1.9-1.7-1.9-4 0zM736.9 367.049c0 2.8 3.7 5.8 5.6 4.7 1.9-1.2 2-2.8.2-3.6-.7-.3-2.3-1.1-3.5-1.8-2-1-2.3-.9-2.3.7zM751.9 369.049c.6 1.3 1.4 2.1 1.8 1.8.3-.4-.2-1.4-1.2-2.4-1.8-1.6-1.8-1.6-.6.6zM746.7 371.049c-1 .4-1.4 1.2-1 1.9.6.9 1.1.7 2-.7.7-1.1 1.1-2 1-1.9-.2 0-1.1.3-2 .7zM749.6 372.349c-1 3.5-.9 3.8 1.3 3.2 2.4-.6 2.5-1.3.7-3.8-1.3-1.7-1.4-1.7-2 .6zM737.2 372.949c-2 .7-1.5 2.3.7 2.3 1.1 0 2-.4 2-.9 0-1.3-1.2-1.9-2.7-1.4zM730.4 374.349c-.9 1.4-.2 2 1.4 1 .8-.6.9-1.1.3-1.5-.6-.3-1.4-.1-1.7.5zM793.9 387.749c-1 1.2-1 1.5.4 1.5.9 0 1.6-.7 1.6-1.5s-.2-1.5-.4-1.5-.9.7-1.6 1.5zM783.3 389.949c-1.2.2-2.6 1.5-3.2 2.8-1.1 2.3-1 2.4.8 1.3 1.1-.7 2-1.7 2-2.1 0-.5.7-.7 1.5-.3.9.3 1.5 0 1.5-.9 0-.8-.1-1.4-.2-1.4-.2.1-1.3.4-2.4.6zM791.4 391.249c.3.5.8 1 1.1 1 .2 0 .4-.5.4-1 0-.6-.5-1-1.1-1-.5 0-.7.4-.4 1z"/><path d="M356.5 413.149c-.4.5.3.7 1.4.4 2.3-.6 2.6-1.3.6-1.3-.8 0-1.7.4-2 .9zM311.4 425.149c.3.7.8 2.8 1 4.7.4 4.5.8 4.8 2.7 2.7 1.9-2.2.9-5.7-2.3-7.3-1.5-.9-1.9-.9-1.4-.1zM354.9 425.349c0 .5.5.7 1 .4.6-.3 1-.8 1-1.1 0-.2-.4-.4-1-.4-.5 0-1 .5-1 1.1zM348.9 432.249c0 .5.7.7 1.5.4.8-.4 1.5-.8 1.5-1 0-.2-.7-.4-1.5-.4s-1.5.4-1.5 1zM347.4 437.249c.4.6 1.1.8 1.6.5 1.4-.9 1.1-1.5-.7-1.5-.8 0-1.2.5-.9 1zM1.9 443.849c0 .5.7 1.8 1.5 2.8.8 1.1 1.5 3.6 1.5 5.5 0 2 .4 4.3.9 5 1.3 2-.5 5.2-2.7 4.9-1.2-.2-1.6.3-1.4 1.6.2 1-.2 2.3-1 2.8-1 .7-1 1.1.4 2.2 1 .7 1.5 1.6 1.2 1.9-1.3 1.2.8 4.3 4 6.1 2.8 1.5 3.6 2.6 4.1 5.7.4 2.4 1.5 4.3 2.6 4.9 1 .6 1.9 1.8 1.9 2.6 0 .9-.5 1.2-1.2.8-.7-.4-.3.8.9 2.7 1.1 1.9 2.6 3.2 3.4 3 .8-.2 2.4-.3 3.6-.3 1.2.1 2.4-.2 2.7-.7.3-.5 2.8-.7 5.6-.4 6 .5 9.4-1 8.5-3.8-1-2.9 4.9-2.6 7.9.4 2 2.1 2.6 2.2 4.2 1 1.6-1.2 2-1 3.1.9.9 1.7 1.2 1.8 1.3.7 0-.9-1.1-2.8-2.5-4.3-2.8-3-3.4-4.8-3.9-12.5-.3-4.2-.9-5.8-2.8-7.5-1.4-1.1-3.5-3.8-4.8-5.9-1.2-2.1-3.5-4.4-5.1-5.2-1.5-.9-3.3-2.4-3.9-3.6-.6-1.1-1.7-1.8-2.3-1.6-.7.2-2.6-.2-4.4-1-4-1.6-4.3-1.6-4.3.1 0 1.2-.5 1.2-3.2-.1-1.8-.9-4.9-2.9-6.9-4.4-2-1.6-3.9-2.6-4.3-2.2-.3.3-1.5-.2-2.6-1.2s-2-1.4-2-.9zM90.4 491.249c-.4.6-2.5 2-4.7 3.1-3.4 1.7-4.5 1.9-6.3.9-1.7-.9-2.8-.9-4.5 0-1.2.6-2.8.9-3.5.6-.8-.3-1.2.2-1 1.2.2 1.6-1.1 3.2-2.7 3.2-.5 0-.8-1.1-.8-2.4 0-2-1.6-3.6-3.6-3.6-.2 0-.1 1.4.3 3.2.5 2.5.3 3-.9 2.6-.8-.4-2.1-.2-2.9.2-1.1.7-1 1.2.5 2.9 1 1.1 2.7 2.3 3.8 2.7 1.1.3 1.7 1.2 1.4 1.9-.4 1.1.9 1.5 5.2 1.7 7 .4 10.5-.9 9.8-3.4-.3-1.4.3-2.2 2.1-2.9 2-.8 3.3-.4 6.9 2.1 2.5 1.6 5.2 3 6 3 1.7 0 5.6-2.1 6.6-3.5.4-.6 1.6-.1 3 1.1 1.3 1.2 3 2.4 3.8 2.8.9.5.8.2-.2-.7-1-.8-1.8-2.3-1.8-3.5 0-2.1-5.2-7.2-7.5-7.2-.7 0-2.5-1.6-3.9-3.5-2.8-3.6-4-4.2-5.1-2.5zM46.1 498.249c-.7 1.2-1.9 1.6-3.8 1.2-2.2-.4-2.6-.2-2.1 1.2.4 1 .1 1.6-.9 1.6s-1.3.7-.8 2.4c.7 3.1-1.3 4.4-3.2 2-1.1-1.5-1.3-1.6-.8-.3.3 1 .1 2-.5 2.4-.6.3-1.1 1.7-1.1 3 0 1.2-.7 2.5-1.5 2.9-1 .4-1.3 1.4-.9 3.6.5 2.3.3 3-1 3-2.9 0-1.7 1.8 1.7 2.5 1.7.4 4 1.4 5 2.3.9.8 1.7 1.2 1.7.9 0-.3 1.4-.1 3 .4 1.7.6 3 1.5 3 2s.5.9 1.1.9c.5 0 .8-.4.5-.8-.3-.5-.7-2-1-3.5-.3-2 0-2.8 1.5-3.2 1.2-.4 1.8-1.3 1.5-2-1.8-4.8-1.6-8.1.6-11.5 1.3-1.9 3.6-4.1 5.1-4.8 2.9-1.4 3.7-4.2 1.2-4.2-.8 0-1.5-.8-1.5-1.8 0-2.5-5.3-2.6-6.8-.2zM24.3 527.349c-.3.6-.1 1.6.5 2.2.8.8 1.1.6 1.1-.7 0-1 .4-1.4 1.2-1 .7.4.8.3.4-.4-.9-1.5-2.3-1.5-3.2-.1zM21.6 534.749c-1 .7-1.7 2.1-1.5 3 .2 1.3.8 1 2.6-1.4 2.4-3.3 1.9-4-1.1-1.6zM478.1 536.949c.8 1 .7 1.3-.3 1.3-.9 0-.7.5.5 1.2 1.4.8 2.4.8 3.7-.1 2.7-1.6 3.9-1.4 3.9.9s3.5 2.8 4.3.7c.3-.8-1.2-2.1-4.2-3.5-5.1-2.4-9.8-2.7-7.9-.5zM113.5 541.449c.4 1.8.2 2.8-.5 2.8-1.6 0-1.4 2.5.4 4 1 .9 1.5.9 1.5.1 0-.6-.4-1.1-1-1.1-2.1 0-.9-1.9 1.4-2.2l2.4-.3-2.4-3-2.5-3 .7 2.7zM13.9 541.349c0 1.1 2.7 1.2 3.4.1.2-.4-.4-.9-1.5-.9-1-.1-1.9.2-1.9.8zM9.9 549.249c0 .5.5 1 1.1 1 .5 0 .7-.5.4-1-.3-.6-.8-1-1.1-1-.2 0-.4.4-.4 1zM555.6 564.949c-1.2 1.2-.7 3.3.8 3.3 1.7 0 1.9-.9.7-2.8-.5-.7-1.1-.9-1.5-.5zM554.9 570.249c0 .5-1.4 1-3.1 1-2.7 0-2.9.2-1.5 1.5.8.8 2.4 1.5 3.5 1.5 1.4 0 1.9-.5 1.5-1.5-.4-1 0-1.5 1.1-1.5.9 0 1.3-.5 1-1-.3-.6-1-1-1.6-1-.5 0-.9.4-.9 1zM332.9 593.749c0 .8.4 1.5.8 1.5.5 0 .9-.7.9-1.5s-.4-1.5-.9-1.5c-.4 0-.8.7-.8 1.5zM537.7 594.149c-.9 1-2.2 2.3-3 2.7-2.1 1.4-3.7 5.8-2.7 7.6.5.9 2.3 2.3 3.9 3.2 2.8 1.3 3 1.3 3-.3 0-.9.5-2.2 1.2-2.9 1.5-1.5 1.9-6.3.6-7.9-.8-1-.6-1.3.5-1.3 1 0 1.4-.6 1.1-1.5-.8-2-2.6-1.9-4.6.4zM332 599.849c0 1.1.3 1.4.6.6.3-.7.2-1.6-.1-1.9-.3-.4-.6.2-.5 1.3zM211.9 682.749c-1.3 1.6-.5 3.5 1.5 3.5.8 0 1.7.5 2.1 1.2.5.8.2.9-1 .5-1.4-.5-1.6-.3-1.2 1.3.3 1.1.9 2.9 1.2 4 .3 1.2 1.4 2 2.6 2 2.5 0 9.8 7.1 9.8 9.6 0 2.1 7.5 7 9.9 6.5.7-.1 3.3.3 5.7 1 3.9 1.2 4.5 1.7 5 4.9.3 1.9.8 4.7 1 6.2.3 1.4 0 2.9-.6 3.3-.8.5-.5 1.3.9 2.6 1.9 1.8 2.1 3.1 2.1 12.1v10.2l4.8 4.3c2.6 2.4 5 4.3 5.3 4.3.4 0 1.8.9 3.2 2.1 2.3 1.7 2.5 2.3 1.5 3.9-1 1.5-.9 2.3.7 4 1.2 1.3 2.1 1.7 2.5 1 .5-.7 1.1-.6 2 .5.8 1 .9 1.5.1 1.5-.6 0-1.1.9-1.1 1.9 0 1.1-1.1 3.2-2.4 4.6-2.1 2.2-3 2.6-5.5 2-2.7-.6-3.1-.4-3.3 1.7 0 1.3-.2 2.9-.2 3.7-.1.8-.7 1.6-1.4 1.9-.6.2-1.2.8-1.2 1.4 0 .6.6.8 1.4.5.8-.3 2.5.4 3.8 1.6 3 2.7 6.2 2.9 7.6.6.9-1.4.8-1.9-.8-2.4-2.3-.7-2.7-3.5-.6-3.5.8 0 2.1-.9 2.9-2 1.2-1.8 1.8-1.9 4.3-1 2 .8 3 .8 3.2.1.5-1.5 3.5-1.4 6.8.1 2.2 1 2.8 1 3.2 0 .6-1.8 4.7-1.5 6.5.6 2.1 2.3 2.1 3.2 0 3.2-.9 0-1.3.3-.9.7.4.4 1.5.8 2.4.8 1.1 0 1.8 1 2 2.7.3 2.9 2.2 4 2.2 1.3 0-1.1.5-1.2 2.4-.5 2 .7 2.7.5 3.9-1.3 1.4-2.2 9.3-5.1 10.2-3.7.5.8 3.6.7 5.1-.3 1.5-.9 1.1-4.7-.7-5.8-1.2-.7-1.1-.9.2-.9 1.7 0 4.3-4.6 3.3-6.1-.3-.5.1-2.3 1-3.9.9-1.9 1.1-3.2.4-3.6-.5-.3-.7-1.5-.4-2.7.6-2.4-1.7-7.2-3.9-8-.8-.4-1.5-1.6-1.5-2.8 0-1.2-1.1-3-2.5-4.1-2-1.6-2.3-2.3-1.4-3.4.9-1.1.8-1.4-.5-1.4-.9 0-1.6-.4-1.6-.9s-.9-1.1-2-1.4c-1.1-.3-2-1.3-2-2.4 0-1-1.6-3.5-3.4-5.5-1.9-2.1-3-4-2.5-4.4 1.5-.9 0-2.4-2.5-2.4-1.3 0-3.1-.9-4-1.9-1-1.1-2.4-1.7-3.1-1.5-.7.3-1.5-.2-1.8-1-.4-.9-1.3-1.3-2.2-1-1.8.7-8.5-5-8.5-7.2 0-.6-.9-1.4-2-1.7-1.4-.4-2-1.4-2-3.5 0-1.6-.8-3.6-1.8-4.5-2.2-2-6.2-2.3-6.2-.4 0 1.3-6.3 1.6-9 .4-.8-.3-3.8-1.3-6.6-2.2-5.6-1.8-13.2-7.4-10.2-7.5 2.7 0 1-3-1.7-3-2.4 0-5-2.3-4.2-3.7.9-1.6-1.3-5.5-2.8-4.9-.8.3-1.5 0-1.5-.6s-.9-.3-1.9.6c-2 1.8-6.1 1.4-6.1-.6 0-.5-.7-.8-1.5-.5-.8.4-1.8.1-2.1-.5-.5-.8-.9-.6-1.3.5-.6 1.6-.9 1.5-4.3-.3-3.1-1.6-3.8-1.7-4.8-.5zm53.6 103.2c-.7.7-2.6-.7-2.6-1.9 0-.6.6-.6 1.5.2.9.7 1.3 1.5 1.1 1.7z"/><path d="M262.9 770.549c0 .9-.7 1.7-1.5 1.7-1.4 0-1.3.3.1 2.5 2.3 3.5 3.3 3.1 3.1-.9-.3-3.5-1.7-6.3-1.7-3.3zM340.1 775.749c.2.6-1.3 2.7-3.2 4.6-1.9 1.9-4.1 4.3-4.8 5.4-.7 1.2-1.5 1.6-1.8.9-.2-.6-1.5-.9-2.9-.7-2.1.5-2.2.8-1.3 2.9 1.4 3 2.8 3 8.1 0 2.8-1.5 4.9-2.1 6.2-1.6 2.8 1 6.6-.6 7.2-3.1.4-1.5 1.1-1.9 2.5-1.6 1.4.4 1.8.2 1.4-1-.3-.8-.6-1.6-.6-1.8 0-.2-1.6-.1-3.5.2-2.3.4-3.5.2-3.5-.6 0-.6.5-1.1 1-1.1 2.5 0 .7-2.8-2-3.2-1.9-.3-2.9 0-2.8.7zM354 777.849c0 1.1.3 1.4.6.6.3-.7.2-1.6-.1-1.9-.3-.4-.6.2-.5 1.3zM234.9 780.249c-.8.5-1.2 1.2-.9 1.5.4.3 1.2-.1 1.9-1 1.4-1.7 1.1-1.9-1-.5zM246.5 781.049c-.3.6-.1 1.4.5 1.7 1.5 1 2.5-.3 1.2-1.6-.7-.7-1.3-.7-1.7-.1zM241.9 781.649c0 .2.7.9 1.5 1.6 1.3 1.1 1.4 1 .9-.4-.5-1.4-2.4-2.3-2.4-1.2zM248.9 790.749c.7.8 1.7 1.5 2.2 1.5.6 0 .5-.7-.2-1.5s-1.7-1.5-2.2-1.5c-.6 0-.5.7.2 1.5zM323.6 791.349c.7.7 1.5 1 1.8.7.3-.3-.2-.9-1.2-1.2-1.4-.6-1.5-.5-.6.5z"/></g></svg>