<svg version="1" xmlns="http://www.w3.org/2000/svg" width="1284.471" height="695.532" viewBox="0 0 963.354 521.649"><g fill="#222"><path d="M8.913.88c0 .7-1.2 2.1-2.6 3.2-1.6 1.3-2.4 2.7-2.1 3.9.3 1-.3 2.9-1.2 4.1-1.8 2.5-1.9 3.2-.6 6.2.5 1.2.3 3.1-.5 5-.7 1.7-1.5 6.1-1.8 9.8-.3 6-.2 6.7 1.8 7.3 1.4.5 1.9 1.2 1.5 2.5-.6 1.9 1.8 5 3.9 5 2.5 0 7.6 3.2 9.5 5.9 1.1 1.5 2.2 4.3 2.4 6.2.4 3.5 3.3 8.9 4.7 8.9.4 0 1.5 1.6 2.4 3.5 1.9 3.9 2.7 4.2 4.6 2 .7-.9 2.8-2.3 4.6-3.1 1.9-.9 3.4-2.1 3.4-2.6 0-.6.6-.5 1.5.2.8.7 1.5 1.9 1.5 2.6 0 2 2.4 1.7 4.5-.6 1-1.1 2.6-2 3.6-2 1.2 0 1.6-.6 1.2-2-.3-1.1-.1-2 .4-2 1.5 0 .9-6-1.1-10.3-.9-2.1-1.4-4.2-1.1-4.6.2-.5-.9-2.3-2.7-4-1.7-1.7-3.4-2.7-3.8-2.1-.8 1.3-11 .3-12.9-1.4-.9-.7-2.6-1.7-3.8-2-2.1-.7-2.1-.8-.5-2.7.9-1 2.2-1.9 2.8-1.9 1.7 0 3.9-3.1 3.6-5.1-.2-.9.2-2 .8-2.4.5-.3 1-1.7 1-3.1 0-1.3.5-2.4 1-2.4.6 0 .1-1.4-1.2-3-2.7-3.8-6.7-5-8-2.6-.9 1.6-1.1 1.5-2.9-.5-1-1.2-1.9-2.6-1.9-3.1s-1.5-1.5-3.3-2.3c-4.1-1.7-5.3-3.1-6.2-7.2-.6-3.2-2.5-5.6-2.5-3.3zM248.913 42.38c-.1 4.8-8 9-10.6 5.6-.8-1-1-.4-.8 2.5.2 5-.4 7.4-2.1 7.4-.7 0-1.7 1.7-2.2 3.7-.7 3-1.4 3.9-3.3 4.1-5.8.8-5 3.5 1.3 4.6 3.5.7 3.7.5 3.7-1.9 0-1.4.5-2.5 1-2.5.6 0 1-.9 1-2s.5-2 1-2c.6 0 1-.5 1-1.1 0-1.4 2.5-3.9 3.9-3.9.6 0 1.1.4 1.1.9s.9.7 2.1.4c1.4-.4 1.7-.9 1-1.6-.6-.6-1.1-2.4-1.1-3.9 0-2.5.2-2.7 1.9-1.8 1.1.6 2.2.6 2.5.1.3-.5-.3-1.1-1.4-1.4-2.3-.6-2.7-2.7-.6-2.7 1.7 0 2.9-4.1 1.6-5.4-.7-.7-1-.3-1 .9zM288.413 61.88c-.4.7-1.7.9-3 .6-2.6-.7-4.8 1.4-4.3 4.1.2 1.5-.4 1.8-3.5 1.8-3.9 0-7.2 2.6-6.4 5 .2.5-.8 1.8-2.2 2.7-1.4 1-2.1 1.8-1.4 1.8.7 0 1 .6.7 1.3-.3.8-2.6 1.4-6 1.5-4.4.2-5.9-.1-7-1.5-.9-1.2-1.3-1.4-1.4-.5 0 .7-.5 1-1.1.6-.6-.3-.8-1.7-.5-2.9.5-1.8-.1-2.7-2.6-4.3-3.6-2.3-6.7-1.9-4.6.6 1.6 1.9 1.2 5.3-.9 6.9-.8.6-1.3 1.5-1 2 .8 1.3-1.2 5.5-2.3 4.8-.5-.3-1-.1-1 .4 0 2.4-2.8.9-3.3-1.8-.4-1.8-1.4-3.2-2.7-3.6-1.1-.3-2-1.1-2-1.6s-.7-.9-1.5-.9-1.5.9-1.5 2-.7 2.3-1.5 2.6c-.8.4-1.5 1.2-1.5 2s-.5 1.4-1 1.4c-.6 0-.2 1.6.9 3.5 1.5 2.9 1.7 4.3 1 7.6-.5 2.2-1 6.5-1.1 9.6-.2 4.1-.7 5.7-2 6.4-1 .5-1.8 1.4-1.8 2 0 .5-.8 2.7-1.9 4.9-1.9 3.9-1.8 8.3.2 10.7.7.9.5 1.3-.7 1.3-2.2 0-2.1 4.6.2 5.9 1.6 1 1.6 1.1-.3 1.6-1.7.5-2 1.3-1.7 4.1.4 3.3.3 3.4-3 3.4-1.9 0-3.8-.3-4.2-.8-.8-.8-1.4-.9-5.1-1.1-3.1-.1-3.3-2.7-.2-3.5 2.6-.6 5.3-6.4 3.7-8-.6-.6-1-1.7-1-2.6 0-2.4-3.7-5.1-6.3-4.5-1.6.4-2.9-.1-4.7-2.1-1.4-1.5-2-2.4-1.3-2 .7.3 1.4-.2 1.8-1.4.4-1.4 1.3-1.9 2.8-1.6 1.2.1 1.6.1 1-.1-.7-.3-1.3-.9-1.3-1.4 0-.5-.7-.9-1.5-.9s-1.5-.5-1.5-1.1c0-1.6-4.2-4.8-6.3-4.9-1 0-2.7-.4-3.7-1-1.5-.8-2.4-.4-4.8 2.6-1.6 2-3.2 5.1-3.5 7-.7 4.2-2.8 6.6-4.8 5.3-.8-.5-2.5-.9-3.9-.9-2.4.1-2.4.1-.6 1.5 1.8 1.4 1.5 2-.9 1.5-.5-.1-.2.7.8 1.8.9 1 1.7 2.4 1.7 3 0 2.7 3.1.8 5.2-3.2l1.5-2.8 2.2 3.8c1.4 2.4 2 4.6 1.6 6.1-.3 1.5-.1 2.3.7 2.3.7 0 1.9.9 2.6 2 .7 1.1 1.8 2 2.5 2 .8 0 1.9 1.1 2.5 2.5 1 2.2 3.3 3.1 6.5 2.6 1.5-.2.7 6-.9 6.6-2.6 1-6.4 4.9-6.4 6.6 0 .8-1.1 1.8-2.5 2.1-1.4.4-2.3 1.1-2 1.6.3.6.1 1-.4 1-.7 0-.7.7.1 2.1 1.1 1.8 1 2.3-1.1 4-1.3 1-1.9 1.9-1.5 1.9.5 0 .1.7-.9 1.5-1.8 1.3-1.8 1.4.2 2.4 2.8 1.5 4.8 1.4 5.5-.5.3-.8 1.1-1.2 1.7-.8.6.3 1.5 0 2-.7 1-1.7 1.5-1.1 2.4 2.4.6 2.1.4 2.7-.9 2.7-1.1 0-1.6.9-1.6 3 0 1.6-.4 3-1 3-.5 0-1.7 1.7-2.5 3.7-1.5 3.5-1.5 4 0 6.5.9 1.6 1.2 2.8.6 2.8s-1.1.5-1.1 1.1c0 .6.8.8 1.8.5.9-.3 3.3-.2 5.3.3 3.1.7 3.8.5 4.9-1.3.8-1.2 1.4-2.8 1.5-3.6 0-1 .9-1.4 2.7-1.2 1.9.2 2.8-.3 3.3-1.7.5-1.6 1.3-1.9 4.1-1.7 1.9.2 3.7.6 4 .9.3.3 1.4-.3 2.5-1.4 1.1-1.1 2.6-1.6 3.6-1.3 1.6.5 1.6.4.2-.8-.9-.7-1.4-1.9-1.1-2.6.2-.7-.1-1.9-.8-2.7-.6-.8-.9-1.8-.6-2.3.3-.5-.6-2.2-2-3.8-2.5-2.7-2.6-2.8-.7-3.5 1.1-.4 2.3-1.4 2.6-2.3.4-.9 1.7-1.6 2.9-1.7 1.3 0 1.7-.3 1.1-.6-.7-.2-1.3-1.1-1.3-1.9 0-.9.5-1.2 1.1-.8 1.2.7.8-2-.7-6.1-.6-1.4-.4-1.6 1.2-.8 2.2 1.2 4.1.7 6.7-1.5 1-.9 1.7-1.1 1.7-.4 0 .6.6 1 1.3.8.6-.1.9-.1.5.1-1.6.9-.7 2.1 2.5 3.4 3.5 1.4 4.7 2.6 4.7 4.8 0 1-.3 1.1-1.4.2-1.9-1.6-4.6-.4-3.9 1.7.3.9 1.1 2.1 1.8 2.7.6.5 1.7 2 2.4 3.2.6 1.3 1.8 2.3 2.6 2.3s1.5.5 1.5 1.2c0 .6 1.7 2.7 3.9 4.7 2.1 2 4 4.5 4.2 5.6.3 1.1.9 2 1.5 2s3.4 1.6 6.2 3.5c4.1 2.8 5.2 4.1 5.2 6.3 0 2.3.3 2.7 1.9 2.2 1.3-.4 2.7.2 4 1.6 2.3 2.4 2.8 4.5.9 3.3-.7-.4-.8-.3-.4.4s.1 1.2-.8 1.2-1.6-.6-1.7-1.3c0-1.1-1.7 1.9-1.8 3.5-.2 1.3 5.3.1 5.8-1.3.2-.7 1-2 1.8-2.7 2-2.1 1.6-6-.7-6.7-1.2-.4-2-1.5-2-2.8 0-2 .1-2 2.8.6 2.9 2.7 6.4 3.7 5.9 1.5-.4-2.1 5.8-3.2 10.6-1.7 4.2 1.2 8.3 4.9 5.5 4.9-.6 0-.2 1 1 2.3 1.2 1.3 2.2 2.9 2.2 3.6 0 1.6 2.6 4.2 3.3 3.4.4-.3 2.3.9 4.3 2.7 2.5 2.2 4.4 3 6 2.7 2.9-.5 8.3 4.8 6.5 6.6-.8.8-1.1.8-1.1-.2 0-.7-.5-.9-1.1-.5-.6.3-.8 1.7-.5 2.9.3 1.3.2 2.6-.4 3-.5.3-.7 1.2-.3 2 .3 1-.1 1.5-1.6 1.5-2.9 0-5.6 8.6-3.5 11.1 1.6 1.8 1.9 6.9.4 6.9-.5 0-1 .5-1 1.1 0 .5.4.8.9.5 1.2-.8 3.4 2.1 2.6 3.4-.3.5-1.5 1-2.6 1s-1.7.5-1.4 1c.4.6 1.1.7 1.7.4 1.4-.9 5.7 4.6 5.8 7.2 0 1.2-.6 2.7-1.4 3.3-1.4 1.2-1 5.7.6 6.7.5.4 1.5.1 2.1-.5 1.5-1.5 3.2-1.4 1.9.2-1.2 1.4-.6 5.3 1.1 7.5.7.9.4 1.7-.9 2.7-1 .8-2.3 1.5-2.7 1.5-1.1 0 4.3 5 5.5 5 1.6 0 2.9 5.1 1.7 6.6-.7.8-.9 1.7-.6 2 .3.3.1 1.9-.3 3.5-.5 1.6-.5 2.9-.1 2.9s1.1 1.5 1.6 3.2c1.2 3.9 4.5 5.8 10.3 5.8 2.3 0 4.2.4 4.2.9 0 1.2 7.2 5.6 8.5 5.2.6-.1.7.1.2.5-.4.4 0 1.9.9 3.2 1.5 2.4 1.5 2.5-.1 1.8-1.1-.4-.5.6 1.4 2.6 1.7 1.7 3.1 3.7 3.1 4.3 0 .6.9 1.8 2 2.8 1.5 1.2 1.9 2.4 1.4 4.2-.4 1.7-.1 2.7.9 3.1 2.3.9 2.9 4.4.7 4.4-1 0-2-.6-2.3-1.3-.2-.6-.4.2-.3 2 .1 1.7.4 2.9.9 2.6.4-.2.7.8.7 2.2 0 2.8-2.8 8.5-4.2 8.5-.4 0-.8.9-.8 2.1 0 1.7-.4 2-2.7 1.5-2.4-.6-2.8-.3-3 1.6-.4 4.9-1.7 9.3-3 10.7-1 1-1.1 1.7-.4 2.4.6.6 1.1 1.9 1.1 2.8 0 1.4.6 1.7 3.3 1.2 2.8-.4 3.5-.1 4.5 2.1.6 1.4 1.7 2.6 2.3 2.6.6 0 .9.9.6 2-.3 1.3.1 2.4 1.4 3 2.4 1.4 2.4 2.7 0 3.5-2.3.7-4.2 5.5-3.4 8.4.4 1.6.1 2.1-1.6 2.1-1.2 0-2.1.6-2.1 1.6 0 .8.5 1.2 1 .9.6-.4 1.5.8 2.2 2.5.8 2.6 1.5 3.1 3.2 2.6 1.1-.3 2.4-.6 2.8-.6.3 0 .1-1.3-.5-3-1-2.6-.9-3.2.8-4.5 1.1-.8 2.7-1.4 3.5-1.2.9.1 2.2-1.3 3.2-3.5.9-2.1 2.2-3.8 2.9-3.8 1.8 0 .3-7-1.8-8.5-1.2-.9-1.7-2.4-1.5-4.9.3-2.6 0-3.6-1.1-3.6-.8 0-2-.7-2.7-1.5-1.1-1.3-.8-1.5 1.9-1.5 1.7 0 3.2-.5 3.2-1.3.4-3.8.8-6.5 1.4-8.8.4-1.5 0-4.1-.9-6.4-.9-2.1-1.5-3.9-1.4-4.1.2-.1 1.6 0 3.1.3 1.9.4 2.6 1 2.3 1.9-.3.8.1 1.4.9 1.4.7 0 1.7-.9 2-2 .4-1.4 1.2-1.9 2.3-1.5 1.1.3 2.2-.3 3-1.5.7-1.2.8-2 .2-2-1.8 0-.3-4.5 1.6-4.9 3-.5 5.5-3.2 4.8-5.3-.6-2.1.2-2.2 7.7-.8 2.9.6 5.6 1.6 6.1 2.3 1 1.7 10.6 1.6 11.3-.2.3-.9 1.4-1.1 3-.7 1.4.4 2.5.2 2.5-.4 0-.5.9-1 2-1 1.3 0 2.2-.9 2.6-2.5.3-1.4 1.2-2.5 2-2.5 1.7 0 1.7-.1-.1-3.6-.8-1.6-1.5-4.4-1.5-6.2 0-1.7-.4-3.2-1-3.2-.5 0-1-.4-1-.9s.8-.7 1.8-.5c2 .5 3.3-.3 4.8-3.1 1.2-2.2 6.1-3.2 7.7-1.6 1.7 1.7 4.9 1.3 7.3-1 1.9-1.8 2.7-2 5.2-1.1 2.3.8 3.3.7 4.4-.5 1.7-1.7 12.7-3.3 17.6-2.6 1.8.3 3.7 1.3 4.2 2.3.6 1.2 1.8 1.5 3.9 1.2 2.3-.3 3.1-1 3.3-3.1.2-2.1.9-2.7 3.8-3.1 2.6-.4 3.6-1 3.8-2.6.2-1.2 1.4-2.6 2.8-3.3 3.3-1.5 3.2-1.5 2.7 1.6-.3 1.9-.2 2.4.5 1.5.7-1 1.1-1 2.2.3.9 1.1.9 1.5.1 1.5-.7 0-1 .4-.6 1 .3.5 1.2.7 1.9.4.8-.3 1.6.4 1.9 1.5.4 1.5 1.3 2.1 3.4 2.1 1.6 0 3.3.4 3.9.9.5.5 2 1.2 3.4 1.6 1.4.3 2 .3 1.4-.2-.6-.4-1.4-2-1.7-3.4-.6-2.3-.3-2.8 1.8-3.3 1.4-.4 2.4-1 2.1-1.5-.3-.4 1.5-1.7 3.9-2.7 2.5-1 4.5-2.2 4.5-2.7 0-1.5-2.2-5.2-3.6-6-2-1.1-1.7-2.7.4-2.7 1.3 0 1.4-.2.3-.9-.7-.5-2.2-.6-3.2-.4-1.3.4-1.9 0-1.9-1 0-.9-1.5-2.6-3.2-3.8-1.8-1.3-4.6-3.6-6.2-5.1-2.3-2.2-2.6-2.8-1.3-2.8 3.3 0-.1-3.8-5.7-6.5-2.9-1.4-5.7-2.5-6.2-2.5s-2-1.6-3.4-3.5c-1.6-2.3-3.8-3.9-6.3-4.5-2.1-.6-3.5-1.5-3.2-1.9.2-.5-.6-2-2-3.5s-2.4-3-2.3-3.4c.5-1.8-1.4-5.1-2.7-4.6-.8.3-1.9-.3-2.6-1.4-1.4-2.2-3.6-1.9-5.6.7-1.1 1.4-1.2 1.3-1.3-.7 0-1.4.6-2.2 1.6-2.2 1.4 0 1.4-.3.4-1.5-1.7-2-3-1.9-3 .3 0 3-.9 3.1-5.3 1.1-2.3-1-5.2-1.9-6.3-1.9-3.3 0-3.7-2.6-.7-4.8l2.6-1.9-2.2-2.2c-1.8-1.8-1.9-2.5-1-4.2.7-1.5.8-2.4 0-3.2-1.3-1.3.4-4.7 2.4-4.7 1 0 1.5-1 1.5-3 0-2.3.4-3 2-3 1.1 0 2-.7 2-1.5 0-.9-.9-1.5-2.5-1.5-1.8 0-2.5.5-2.5 2 0 2.8-5.8 11.8-8.1 12.5-1.1.4-3.2 2-4.8 3.7l-2.9 3.1-2.6-2.9c-1.4-1.6-2.8-3.6-3.1-4.4-.3-.9-5-5.5-10.5-10.3-5.5-4.9-10.1-9.4-10.1-10-.1-.7-.2-2.1-.3-3.1-.1-1.3-2.3-3-7.1-5.5-4.4-2.2-6.3-3.7-5.2-3.9 2.2-.4 2.2-1.7-.3-5.2-1.1-1.6-1.8-3.5-1.5-4.3.3-.7-.7-2.7-2.2-4.4-2.3-2.5-3.2-2.8-5-2-1.7.7-2.9.4-5.5-1.4-1.8-1.3-4-2.5-4.8-2.6-8-.9-15.9-7.6-14.7-12.4.3-1 0-2.2-.5-2.5-1.2-.7-7.6-1.5-11.9-1.5-1.5 0-4.4-.9-6.5-1.9-2.1-1.1-5-2-6.5-2-1.8 0-4.4-1.6-8.3-5.3-3.1-3-5.6-5.9-5.6-6.5 0-1.9-5.9-7-9.1-7.7-1.7-.4-3.5-1.6-4.1-2.9-.9-2.2-4.9-4.1-14.7-7.4-3-1-3.6-.9-4.8.8-.8 1.1-2.1 2-2.9 2-2.1 0-1.7-3.8.6-4.5 1.6-.5 1.8-1 .9-3.3-.6-1.5-2.2-3.7-3.7-4.9-2.2-1.8-2.5-2.5-1.6-4 .6-1 2-2.3 3.1-2.8 3.5-1.8 5.2-3.6 4.7-4.9-.3-.7 1-1.8 3-2.6 1.9-.7 3.7-2.1 3.9-3.2.3-1.1 1.4-1.8 3-1.8 1.4 0 2.9-.5 3.2-1 .4-.7 1.2-.7 2.5 0s2 .6 2.3-.3c.3-.9.7-.9 1.9 0 2.3 2 3.6-.2 2.8-5.2-.4-2.8-.2-5.1.6-6.7 2.3-4.1 1.8-5.8-1.6-5.2-2.6.6-3 .3-3-1.4 0-2.3-3.4-4.7-5-3.7-.6.3-1 0-1-.7-.1-.7-.9-.3-2 1-1.5 1.9-2.3 2.1-3.9 1.3-1.4-.8-2-.7-2.4.3-.9 2.2-4.8 2.8-5.4.7-.2-.9-1.4-2.1-2.6-2.6-1.2-.6-2.3-1.9-2.5-3-.3-1.6-.1-1.8.9-.8.8.8 4 1.3 8.1 1.3 6.5 0 6.8-.1 6.8-2.4 0-1.3.5-2.6 1.2-2.8 1.8-.6.1-2.6-4-4.7-5.5-2.7-7.9-3.3-8.7-2.1zm2.5 21.9c0 .6-.5 1.3-1.1 1.6-.5.4-.9 1.7-.8 2.8.1 1.2-.4 3.4-1.1 4.9l-1.3 2.8-2.5-2.5c-2.9-2.9-2.5-7.5.7-7.5 1 0 2.1-.7 2.5-1.5.6-1.6 3.6-2.1 3.6-.6zm-12.3 13.3c-.3.8-.6.5-.6-.6-.1-1.1.2-1.7.5-1.3.3.3.4 1.2.1 1.9zm-4.4 4.3c2.6 1.9 1.9 5.9-1.2 6.3-1.8.3-2.2 0-1.8-1.2 1.1-2.7-2.5-1.9-5 1.1-2.2 2.7-2.2 2.7-2.3.5 0-1.2.5-2.2 1-2.2.6 0 1-.5 1-1.1 0-1.4 3.9-4.9 5.4-4.9.6 0 1.9.7 2.9 1.5zm3.2 39.5c.3.5.1 1-.4 1-.6 0-1.1-.5-1.1-1 0-.6.2-1 .4-1 .3 0 .8.4 1.1 1zm-37.2 11.9c-.3 1.1.2 2.1 1.1 2.4 1.9.7 2.2-.9.4-1.7-.7-.3-.4-.5.7-.3 1.1.1 2.1 1.1 2.3 2.2.2 1.8-.3 2.1-4.3 2-3.8 0-4.5-.3-4.5-2 0-1.1 1-2.5 2.3-3.1 1.2-.7 2.3-1.2 2.4-1.3 0 0-.1.7-.4 1.8zm29.7 19.1c0 .5-.4 1-.9 1-.6 0-1.3-.5-1.6-1-.3-.6.1-1 .9-1 .9 0 1.6.4 1.6 1zm39.5 0c.3.5.2 1-.4 1-.5 0-1.3-.5-1.6-1-.3-.6-.2-1 .4-1 .5 0 1.3.4 1.6 1zm-97.2 8.4c.6 1.4 0 2.6-1.4 2.6-.3 0-.9-.9-1.2-2-.6-2.3 1.8-2.8 2.6-.6zm-3.3 6.9c0 .8-.7 1.4-1.5 1.4s-1.5-.6-1.5-1.4c0-.7.7-1.3 1.5-1.3s1.5.6 1.5 1.3zm162.1 143.4c.1.5.3 1.7.5 2.8.1 1.1.6 3.1 1 4.4.5 1.7.3 2.2-.5 2-.7-.3-1.2-.9-1.1-1.4.1-.9-4.2-2.4-7.7-2.7-.7-.1-1.4-.7-1.7-1.5-.5-1.3 1-1.7 4.5-1.4.9.1 1.9-.5 2.2-1.4.7-1.5 2.6-2.1 2.8-.8zm-12.2 2c.8-.8 1.1-.7 1.1.6 0 .9-.8 2.1-1.8 2.6-1.3.7-2.2.4-3.9-1.4-2.5-2.9-1.8-4.1 1.2-2.1 1.7 1.1 2.5 1.2 3.4.3zm4.9 28.8c.1.1 0 .9-.4 1.8-.5 1.3-.8 1.3-2.5-.4-1-1-1.9-2.2-1.9-2.5 0-.5 4 .4 4.8 1.1zM221.213 64.48c-1 2.1-.9 2.4.8 2.4 1.2 0 1.9-.7 1.9-1.9 0-3-1.4-3.2-2.7-.5zM54.913 63.68c0 1.3 3.5 2.1 5 1.2.9-.5.9-.9.1-1.4-.6-.4-1.1-.2-1.1.4 0 .8-.6.8-2 0-1.1-.6-2-.7-2-.2zM213.213 70.38c-1.8.8-3.3 1.7-3.3 2 0 1.3 4 .3 6.1-1.5 2.8-2.3 1.7-2.5-2.8-.5zM199.913 71.88c2 1.3 4.3 1.3 3.5 0-.3-.6-1.6-1-2.8-1-1.8 0-1.9.2-.7 1zM317.913 76.38c0 .8.2 1.5.4 1.5s.6-.7 1-1.5c.3-.8.1-1.5-.4-1.5-.6 0-1 .7-1 1.5zM19.913 79.88c-.6 1.1-1.7 2-2.5 2s-1.5.7-1.5 1.6c0 1.7-1.4 3.2-4.5 5-1.7 1-2 2.2-2 8.4 0 5-.4 7.5-1.2 7.7-.7.3-1.3 1.6-1.3 2.9 0 1.3-.5 2.4-1.1 2.4-.7 0-.5 1 .5 2.5 2 3.1 2.1 5.5.1 5.5-2.5 0-1.7 1.5 1.5 2.7 2.6 1 3 .9 3-.5.1-1.3.5-1.1 2.1.8 1.2 1.4 2.9 2.4 3.9 2.2 1-.2 3.3 1.3 5.4 3.4 2.8 2.8 4.5 3.8 8.1 4.1 2.5.3 4.5.2 4.5-.3s.4-1.6 1-2.4c.7-1.2 1.2-1.2 2.9.4 1.2 1.1 2.1 1.6 2.1 1.2 0-.4 1-.2 2.1.5 2.1 1.1 2.2.9 1.6-1.9-.6-3-.6-3 3.3-2.5 3.7.5 4.1.3 5.3-2.6.8-1.8 1.7-2.7 2.3-2.2 1.7 1.5 9.4 2.1 9.4.6 0-1.8 2.2-2.5 10.6-3.2 5.3-.4 7.4-1 7.4-1.9 0-.8-.9-1.4-1.9-1.4-1.1 0-2.3-.5-2.6-1.1-.4-.6-1.3-.8-2.1-.5-.7.3-1.8-.3-2.4-1.4-.5-1-2-2-3.2-2.2-1.5-.2-2.3-1-2.3-2.3 0-1.3-.7-2-2-2-1.1 0-2-.7-2.1-1.5-.3-4.7-.5-5-2.8-5-1.4 0-2.8.5-3.1 1-.4.6-1.2.7-2.2.1-.9-.4-2.3-.6-3.3-.4-1.6.4-4.7-4.3-3.5-5.5.8-.8-6.1-4.2-11.5-5.6-3.8-1.1-4.6-1.7-5.5-4.7-1.6-5.3-2.3-5.9-7-5.9-3.4 0-4.7.5-5.5 2zM661.213 98.58c-.7.2-.9 1.1-.6 2 .4 1.1.2 1.4-.5.9-.7-.4-1.2-.2-1.2.4 0 .7-.6 1-1.4.7-.8-.3-3-.1-5 .5-3.1 1-3.9.9-5.7-.8-2.1-1.9-2.1-1.9-4.5 1.1-1.4 1.7-2.9 2.9-3.4 2.7-.6-.1-1 .7-1 1.8 0 1.5-.7 2-3 2-1.6 0-5.2.5-8 1.1l-5.2 1.1.7 3.5c.3 2 1.4 4.7 2.2 6 2.3 3.5 2.6 7.4.6 6.6-1.2-.5-1.4-.3-.8.6.5 1 .2 1.1-1.3.7-1.1-.4-2.3-.2-2.7.4-.5.8-1.1.8-2 0-.8-.7-1.9-.9-2.4-.6-.5.4-1.3.2-1.6-.4-.5-.8-1.1-.8-1.9 0-1.5 1.1-7.2-.5-9.4-2.7-.7-.7-2-1.3-2.8-1.3-.8 0-1.4-.4-1.4-.9s-.9-1.3-2.1-1.6c-1.1-.4-2.9-2-3.9-3.7-1-1.6-2.1-2.5-2.4-2-.3.6-1.9.9-3.4.7-1.5-.1-3.8.3-5.2 1-7.7 3.9-7.5 3.9-12.4 1.4-2.5-1.2-5.4-3.1-6.3-4.1-2.4-2.7-3.3-2.2-2.6 1.4.4 2.2.3 2.9-.5 2.4-2.3-1.4-5.2 1.7-5.2 5.7 0 2.7-.5 3.9-1.7 4.3-1 .3-3.1 1.2-4.6 2.1-8.2 4.4-8.1 4.3-9.6 2.8-1.1-1.1-1.2-1.7-.3-2.8 1.2-1.5.6-2.7-1.3-2.7-.7 0-1.2 1.9-1.3 5-.1 5.8-.6 7-3 7-1 0-2.2 1-2.7 2.2-.6 1.2-2.1 2.5-3.5 2.8-1.7.4-2.8 1.6-3.5 3.7-1.4 4.1-5.4 7.4-7.6 6.2-1.2-.6-1.9-.4-2.2.5-.4.9-1.4 1.2-2.7.9-1.2-.3-2.8.1-3.9 1.2-1.6 1.3-2.3 1.4-4.1.5-1.2-.6-2.3-1-2.4-.8-.1.2-1.3 1.8-2.5 3.6l-2.3 3.3-2-2c-2.9-3.2-3.8-2.5-3.8 3 0 4.2-.3 5.2-2 5.6-1.1.3-2 1.2-2 1.9 0 .8-.9 2.3-1.9 3.3-2 2-2 2 1.3 4 1.8 1.2 3.8 2.1 4.4 2.1.6 0 1.2.6 1.4 1.2.5 1.5-1.5 3.8-3.3 3.8-.9 0-.8.4.1 1.5.7.8 1 2.3.7 3.4-.6 2.3 0 3.1 3.5 5.3 2.3 1.5 2.7 1.5 3.2.2.3-.8 1.1-1.2 1.7-.8.6.3 1.4.1 1.8-.5.6-.8 2.4-.6 6.9.8 3.4 1 6.2 1.5 6.2.9 0-.5.8-.7 1.9-.3 1.2.3 3-.3 4.9-2 3.2-2.7 7.1-3.2 9-1.3.9.9 1.2.9 1.2 0 0-.7.9-1.2 2-1.2 1.3 0 2.2-.9 2.6-2.5 1-4.2 3.1-5.1 5.7-2.6 1.3 1.1 2.9 2.1 3.5 2.1.7 0 1.2.4 1.2 1 0 1.7 1.4 1.1 5.5-2.5 2.2-1.9 4.3-3.5 4.6-3.5.3 0 1.8 1.3 3.4 3 2 2.1 3.8 3 6.2 3 4.2 0 6.1-3 3.9-6.2-1.4-2-1.4-2.4.5-4.4 1.5-1.6 1.9-3.2 1.7-6-.2-2.3.2-4.3.9-4.9 1.7-1.4.5-5.3-1.8-6-3-1-2.2-2.5 2.1-4.3 2.2-.9 4-2.3 4-3 0-.6.7-1.2 1.5-1.2s1.5-.4 1.5-.9.9-.7 2-.4c1.3.3 2 0 2-.8 0-1 .3-1 1.2-.1 1.8 1.8 2.7 1.5 2.1-.8-.6-2.3.8-2.6 3.9-.9 1.5.8 1.9.8 1.4 0-.9-1.4.7-1.4 3.9.1 2.1.9 3.1.9 4.6 0 2.6-1.6 6.9-1.5 6.9.1 0 2 3.7 5.1 4.5 3.7.8-1.4 2.5-.3 2 1.3-1.3 3.6 4.2 5.5 7.4 2.6 1.5-1.4 3-1.9 4.6-1.5 1.3.3 2.6.2 3-.3.8-1.4 6.5-4.1 8.7-4.1 1 0 2.1-.7 2.4-1.5.3-.8 1.4-1.7 2.5-2 1.4-.5 1.7-1.2 1.2-3.6-.5-2.5-.2-2.9 1.6-2.9 1.4 0 2.1-.6 2.1-2 0-1.3.9-2.2 2.5-2.6 1.4-.3 2.5-1 2.5-1.6 0-.5.4-.7.9-.3.6.3 1.3-1 1.6-2.9.4-2.1 1.6-3.8 3.1-4.6 1.3-.8 2.4-1.8 2.5-2.4.1-.6.2-2.2.2-3.6.1-1.4.8-2.5 1.5-2.6.6-.1 1.5-.3 2-.4.4-.1 1.7-.1 3 0 1.4.1 3.3-1 5-2.7 1.5-1.6 3.5-3.4 4.5-4 1.8-.9 1.8-1.1.2-2.6-1.8-1.9-3.5-2.2-3.5-.7 0 2-2.1.9-3-1.5-.5-1.4-1.4-2.5-2-2.5-.5 0-1-1.1-1-2.5 0-2.9-2.9-6.4-4.7-5.8zm-173.6 80c-.9.9-1.9 1.4-2.3 1.1-1-1 .6-2.8 2.4-2.8 1.5 0 1.5.1-.1 1.7zM678.913 99.68c0 .4 1 1.3 2.1 2.1 1.9 1.1 2.1 1.1 1.5-.4-.3-.9-.6-1.9-.6-2.1 0-.2-.7-.4-1.5-.4s-1.5.3-1.5.8zM685.613 101.88c-.5 2 .6 3.3 3.1 3.6 1.8.3 1.5-4.3-.4-5-2.1-.8-2.1-.8-2.7 1.4zM677.913 106.68c-2.1 3.4-2.1 3.7-.4 4.9 2.2 1.6 3.4 1.7 3.4 0 0-.8.4-.7 1 .3.8 1.2 1 1.2 1-.5 0-1.1-.4-2.6-.9-3.4-.7-1-.5-1.9.6-2.6 1.4-1.1 1.3-1.3-.5-1.7-1.7-.5-2.6.2-4.2 3zM559.213 104.58c-.7.3-1.3 1.9-1.3 3.6v3.2l1.5-2.9c1.7-3.3 1.6-4.5-.2-3.9zM163.913 106.88c0 .5.5 1 1.1 1 .5 0 .7-.5.4-1-.3-.6-.8-1-1.1-1-.2 0-.4.4-.4 1zM158.713 113.28c-1.3.9-1.4 1.6-.6 2.4 1.5 1.5-.5 3.8-4.8 5.4-3 1.1-3.4 1.6-3.2 4.5.2 3.3 2 4.9 4.1 3.6 2.6-1.6 4.7-3.8 4.7-4.9 0-.8 1.3-1 4-.7l3.9.6-2.9-5.8c-3.6-7-3.1-6.6-5.2-5.1z"/><path d="M209.913 114.48c-1.4 3.5-1.3 4.4.5 4.4.9 0 1.2-.6.9-1.5-.4-.9 0-1.5.9-1.5 1.6 0 3-2.4 2-3.4-1.4-1.4-3.4-.4-4.3 2zM217.413 116.88c-.3.5-.1 1 .4 1 .6 0 1.1-.5 1.1-1 0-.6-.2-1-.4-1-.3 0-.8.4-1.1 1zM86.313 118.78c.4.6 2 1.8 3.6 2.6 2.2 1.1 3 1.2 3.3.2.4-.9.8-.8 1.6.3.5.8 1.3 1.1 1.7.7 1.4-1.3-2-3.5-6.5-4.2-3.1-.5-4.2-.4-3.7.4zM531.413 122.88c.3.5 1.1 1 1.6 1 .6 0 .7-.5.4-1-.3-.6-1.1-1-1.6-1-.6 0-.7.4-.4 1zM100.913 123.58c0 1.7 8 7.5 9.6 6.9 1.6-.6 8.4 5.9 8.4 8.1 0 .6 1.3 1.4 3 1.8 3.4.7 7.2 6 6.8 9.5-.2 1.3.3 2.5 1 2.7.6.3 1.2-.2 1.2-1.1 0-1.3.4-1.4 2.8-.4 1.5.6 4.2 2.6 6.1 4.2 3.2 2.9 3.3 3 2.8.8-.4-1.7-.2-2.2.8-1.8.8.3 1.5 0 1.7-.6.3-.8 1-.7 2.6.1 1.9 1 2.2.9 2.8-1.5.5-2 .1-3.1-2.3-5.2-1.6-1.5-4.1-3.3-5.5-4.1-2.8-1.5-10.8-8.9-10.8-10.1 0-1.1-5.2-3.3-9-3.7-1.9-.2-4.6-1.5-6.1-2.9-2.7-2.6-5.8-3.1-9-1.4-1.4.8-2.5.6-4.4-.6-1.4-.9-2.5-1.2-2.5-.7zM543.113 126.38c-1.1 2.3-1 2.4.8 1.3 2.2-1.4 2.5-2.4 1.1-3.2-.4-.3-1.3.6-1.9 1.9zM530.613 126.68c.2 1 1.1 1.9 1.9 1.9.9 0 1.3-.6.9-1.4-.3-.8-.5-1.7-.5-1.9 0-.2-.6-.4-1.4-.4-.9 0-1.2.7-.9 1.8zM300.413 128.78c-.3.5-.1 1.2.5 1.6.5.3 1-.1 1-.9 0-1.8-.6-2.1-1.5-.7zM166.713 154.78l-2.8.6 2.4 1.1c1.4.6 3 .8 3.8.3 2-1.3-.3-2.6-3.4-2zM142.113 161.38c-.7 1.4-1.8 2.5-2.6 2.5-.7 0-1.6 1.2-1.9 2.6-.3 1.9-.1 2.4 1.1 1.9 1.6-.6 5.5 2.3 4.7 3.5-.3.5.8 1.3 2.4 1.8 4.2 1.5 5.5 4.3 3.6 7.8-1.4 2.7-1.3 2.9 1.1 4.2 1.3.7 2.2 1.7 1.9 2.2-.3.5-.1 1.1.5 1.5.6.4.8 1.1.5 1.6-1.2 1.8.5 2.9 2.7 1.8 1.7-.9 2.3-.8 3 .5 1.1 2 5.4 2.1 6.1.2.4-.9 0-1.2-1.1-.9-.9.2-2.6-.2-3.6-1-1.9-1.4-1.9-1.5.2-2.1 2.5-.8 3.9-4.3 2.3-5.9-.6-.6-1.1-2.6-1.1-4.4 0-2.2-.5-3.3-1.4-3.3-.8 0-2-1.4-2.8-3-.7-1.7-2.1-3.3-3-3.6-1-.3-2-2-2.4-4-.4-2-1.2-3.4-2.1-3.4-.8 0-2.7-.7-4.2-1.5-2.7-1.3-2.9-1.3-3.9 1zM173.613 171.58c-1.2 1.2-.7 3.3.8 3.3 1.7 0 1.9-.9.7-2.8-.5-.7-1.1-.9-1.5-.5zM653.613 175.48c.5 3 .3 3.4-1.5 3.4-1.2 0-3.3 1.1-4.8 2.5s-3.5 2.5-4.5 2.5c-1.1 0-1.9.5-1.9 1 0 .7-.6.7-1.9 0-2.3-1.2-3.6.2-2.7 2.6.3.9.1 1.4-.5 1.2-.6-.2-1.1-.8-1.1-1.3 0-.6-.5-1.6-1.1-2.3-.9-1.1-1.3-1.1-2.4.5-1.3 1.7-1.6 1.7-4.2.2-3.5-2-5.8-.6-6.7 3.9-.4 1.8-1.4 3.4-2.4 3.7-3.1 1-4.3 3.1-3 5.4.8 1.5.8 2.1 0 2.1-.6 0-.8.4-.5 1 .3.5-.1 1-.9 1s-1.6-1-1.8-2.2l-.3-2.1-2.9 2.4c-2.1 1.9-3.1 3.8-3.6 7.5-.7 4.3-.5 5.3 1.7 8.6 1.5 2.2 3.2 3.6 4.3 3.5 1.5-.1 1.7-.4.7-1.7-.6-.8-1.7-2-2.5-2.7-1-.9-1.1-1.6-.2-3.2.6-1.2.8-2.7.4-3.4-.5-.8-.2-.7.9.2.9.7 1.7 2.4 1.7 3.6 0 3 4.6 8.5 7.1 8.5 1 0 1.9.4 1.9.8 0 1.4 4.3 2.8 7.3 2.4 1.9-.2 2.7-.9 2.7-2.2 0-1.4-.5-1.8-1.7-1.4-1.1.4-1.4.3-.7-.3.6-.4 1.7-1.9 2.3-3.1 1.4-2.7 3.6-2.5 10.6.8 2.3 1.1 6.5 2.4 9.4 3 6.1 1.1 5.4.8 14.9 7.8 5.1 3.7 7.8 5.1 9.2 4.7 2.9-.9 7.5 1.8 16 9.5 1.5 1.4 2.5 2.9 2.4 3.5-.6 1.7 5.4 1.1 7.2-.7 1.2-1.2 2.3-1.4 4-.7 1.5.5 2.4.5 2.4-.1s.7-1 1.5-1 1.5-.5 1.5-1c0-.6.8-.5 1.9.2 1.1.7 1.7 1.6 1.5 2-.3.4 0 .8.7.8.6 0 .9-.8.6-2-.3-1.1-.4-2-.3-2 0 0 1.6.4 3.4.9 2.1.6 3.2.6 3.2 0s.9-.8 1.9-.4c1.1.3 2.6-.1 3.5-1 1.1-1.1 2.9-1.5 5.8-1.3 3.7.3 4.5.7 5.8 3.5.8 1.8 2.3 3.5 3.3 3.9.9.3 1.7 1.5 1.7 2.9 0 1.8.7 2.4 3.5 2.9 2.4.5 3.5 1.2 3.5 2.4 0 1 .5 2.3 1.2 3 1.7 1.7 6.7 1.5 7.4-.3.4-.8 1.1-1.2 1.6-.9.6.4 1.4.1 1.8-.7.7-1 1.1-1 2.4 0 2 1.7 2 .4 0-4.4-1.4-3.3-1.8-3.7-4.3-3.2-2.1.4-3.4.1-4.6-1.3-1.2-1.4-2.2-1.7-3-1-.7.6-2.7.1-5.8-1.5-2.5-1.4-5.1-2.5-5.7-2.5-.6 0-4.7-3.6-9.2-8-4.4-4.4-8.9-8-10-8-2.2 0-2.3 1.6-.3 3.6.8.9 1.5 1.2 1.5.8 0-.3.7-.1 1.5.6 2 1.7 1.9 2.7-.5 3.3-1.2.3-2.4-.1-3-1.1-.8-1.4-1.1-1.5-1.9-.3-.7 1.1-2 .3-6-3.8-2.9-2.8-4.8-5.1-4.4-5.2.4 0-.3-.5-1.6-1-1.7-.7-2.1-1.3-1.5-2.7.4-.9.8-3.2.8-4.9 0-2.4.3-3 1.2-2.3.8.7 1.3.6 1.7-.4.3-.8 2-1.7 3.7-2.1 2.4-.5 3-1.1 2.5-2.5-.3-1-.2-2.1.3-2.4 1.4-.9.5-9.3-1.4-12.1-.9-1.4-4-3.9-7-5.5-2.9-1.7-6.1-4.4-7.1-6.1-1.7-2.9-3.3-3.8-3.3-1.8 0 .6-1.2.2-2.7-.9-3.8-2.6-11.7-1.9-11 .9.3 1.1.1 1.9-.4 1.9s-.9.7-.9 1.5-.6 1.3-1.2 1.1c-.7-.3-3.2-.7-5.5-1-3.9-.6-4.3-.4-4.3 1.5 0 1.3-.5 1.9-1.2 1.6-.7-.2-3-1-5.1-1.8-3.4-1.2-3.7-1.6-3.2-4.1.5-2.2.3-2.8-1-2.8-.9 0-2.2-1.5-3-3.4-.8-1.8-2.1-3.6-2.9-3.9-1.2-.5-1.3.1-.9 2.9zm-15.7 38.4c0 .5-.2 1-.4 1-.3 0-.8-.5-1.1-1-.3-.6-.1-1 .4-1 .6 0 1.1.4 1.1 1zm119.8 44.9c.3.8-.1 1.2-.9.9-.7-.2-1.5-1-1.7-1.7-.3-.8.1-1.2.9-.9.7.2 1.5 1 1.7 1.7zM465.913 179.38c-.7.9-2 1.3-2.7 1-2-.7-4.3 1.8-3.2 3.6 1.4 2.2 1 4.9-.7 4.9-1.1 0-1.3.6-.9 1.9.4 1.3-.1 2.4-1.6 3.5-1.9 1.3-2 1.8-.9 3.1 1 1.2 1 1.5-.5 1.5-1.3 0-.7.8 1.8 2.7 2.6 2 3.6 3.4 3.2 4.8-.2 1.1 0 2.7.5 3.5.8 1.2 1 1 1-.9 0-4.4 2.2-10.1 3.9-10.1 2.1 0 6.7-4.3 7.6-7 .3-1.1 1.1-2 1.6-2s.9-.4.9-.9c0-.4-2-1.1-4.5-1.4-5.4-.6-6-1-5-3.4.7-1.6 1.3-6.3.9-6.3-.1 0-.7.7-1.4 1.5zM173.413 179.88c-.5.8-2.4 1-5.2.7-3.6-.4-4.3-.2-3.9 1 .3.8.6 2.3.6 3.3 0 1.8 4.9 3.6 5.1 1.9.1-.5.2-1.4.3-2 0-.5 1.2-1.9 2.6-2.9 1.4-1 2.2-2.1 1.8-2.5-.3-.3-.9-.1-1.3.5zM480.613 184.28c-.3.8.1 2 .9 2.6 1.2 1 1.4.8 1.4-1.4 0-2.8-1.4-3.5-2.3-1.2zM807.613 187.08c-3 2.2-3.5 4.3-1.2 5.2 1.1.4 1.5-.2 1.5-2.1v-2.7l2 2.2c2.5 2.7 3.5 2.8 2.5.4-.4-.9-.8-2.2-.9-2.9-.4-2.2-1-2.2-3.9-.1zM222.113 186.98c.2.6.7 1 1.1 1 .4-.1 1.6-.1 2.8-.1 1.1 0 1.7-.5 1.4-1-.8-1.4-5.8-1.3-5.3.1zM580.413 187.88c.3.5.8 1 1.1 1 .2 0 .4-.5.4-1 0-.6-.5-1-1.1-1-.5 0-.7.4-.4 1zM574.413 190.28c-1.1.8-2.4 1.2-3 1-.6-.3-2.2.5-3.6 1.7-1.3 1.1-3.4 2.5-4.5 2.9-1.7.7-2 1.5-1.6 3.6.4 2.3.2 2.6-1.3 2-1.5-.5-1.6-.2-1.1 2.1.7 3.1 1.7 10.9 1.7 13.5 0 .9 1.1 2.4 2.5 3.3 1.4.9 2.2 2 1.9 2.5-.3.4.1 1.1.7 1.4.7.3.2.4-1.1.3-2-.2-2.4.3-2.7 3.3-.7 7.4-2.8 11.4-7.3 13.5-4.1 1.9-4.2 2.1-3.5 5.5.4 1.9.8 4.6.9 6 .1 1.4.5 3.2.8 4 .7 1.8 2.8 15 3.2 19.9.1 2.5.8 3.7 2.4 4.2 1.1.5 2.1.5 2.1.2 0-.4 1.1.4 2.5 1.7 1.4 1.3 2.5 3.2 2.5 4.2 0 2 2 2.4 3.8.6.9-.9 2.4-.3 6.4 2.4 2.9 1.9 6.8 4.3 8.6 5.2 2.8 1.4 3.2 1.5 3.2.1 0-2.1 2.7-1.9 6.1.6 1.6 1.1 2.9 1.6 2.9 1 0-.6 1.8-1.4 4-1.7l3.9-.6-1.5-2.9c-1.3-2.6-1.3-3 .6-4.9 1.1-1.1 2-2.7 2-3.5 0-.8.7-1.5 1.6-1.5 1 0 1.4-.6 1.1-1.5-.4-.8-.2-1.7.3-2 1.3-.8 0-3.7-1.5-3.1-.6.2-1.8 0-2.6-.6-1.1-.8-1-.9.4-.4 1.3.4 1.6.2 1-.7-.4-.6-.8-2.6-.9-4.2 0-1.7-.3-4.4-.8-6.2-.7-2.9-.5-3.3 1.8-3.9 2.2-.5 2.4-.9 1.5-3.1-.6-1.7-.6-2.2.2-1.7.8.4.9-.4.4-2.7-.4-2.2-2.2-4.8-4.9-7.4-2.4-2.2-4.9-5.1-5.6-6.5-.8-1.5-1.5-2-1.8-1.2-1 3.1-10.2-1.4-10.2-5.1 0-1.2-1.6-3.6-3.5-5.4-3.7-3.4-6-7.8-4.9-9.4.6-1.1-1.3-10.4-2.7-13.1-1.2-2.4-1.1-2.8.6-2.8 1.1 0 1.5-1.2 1.5-5 0-3.6.5-5.2 1.8-5.9 1.5-.9 1.5-1-.4-1.1-1.1 0-2.9.6-3.9 1.4zM794.013 194.58c-.7.8-2.2 1.2-3.3 1-1.8-.5-1.8-.4-.5 1.1.9 1 1.6 3.1 1.5 4.7 0 1.7.7 4.8 1.5 7 1.3 3.6 1.3 4.4 0 6.9-1 1.9-1.1 3.2-.5 3.8.6.6.8 1.6.6 2.3-.3.6.2 1.8 1 2.5 1.3 1 1.7.9 2.2-.4.4-1 1.8-1.6 3.5-1.6 3.6 0 4.7-2.2 3.1-6.4-.8-2-.9-3.2-.2-3.4 1.9-.7 1.1-6.3-1.2-8.2l-2.3-1.8 2.2-1.9c1.6-1.4 1.9-2.3 1.2-3.5-1.1-1.9-3.7-1.4-5.6 1-.7.9-1.6 1.3-1.9.9-.4-.3.1-1.3 1-2.2 1.9-2 2-2.2.3-2.8-.6-.2-1.8.2-2.6 1zm1.9 28.3c0 .5-.2 1-.4 1-.3 0-.8-.5-1.1-1-.3-.6-.1-1 .4-1 .6 0 1.1.4 1.1 1zM488.513 199.48c-.3.8-1 1.3-1.6.9-.5-.3-1.8 0-2.9.7-2.3 1.4-1.1 3.8 2 3.8 1.3 0 1.9.7 1.9 2.1 0 1.1.5 1.7 1 1.4.6-.3 1 .1 1 .9 0 .9.6 1.6 1.3 1.7.6 0 2 .2 3 .4 2.1.4 2.1-.4.2-2.9-.8-1.1-1.5-3.2-1.5-4.7s-.7-3.5-1.6-4.3c-1.9-2-2-2-2.8 0zM554.913 205.28c0 .2.7.6 1.5 1 .8.3 1.5.1 1.5-.4 0-.6-.7-1-1.5-1s-1.5.2-1.5.4zM248.113 209.98c-1.8.7-2.2 1.4-1.6 3.1.3 1.2 1.3 2.8 2.1 3.6.8.8 1.3 2.8 1.1 4.6-.2 2.3-.8 3.2-2.5 3.4-1.3.2-2.3 1-2.3 1.8s-.9 1.4-2 1.4-2 .7-2 1.5-.6 1.2-1.3.9c-.7-.2-2.1.4-3 1.4-1.5 1.7-1.6 2.1-.3 3.1 1 .8 1.6.9 2.1.1.3-.6 1.1-.8 1.6-.5.5.4.9-.2.9-1.1 0-1.6.1-1.6 2 .1 1.9 1.8 2 1.7 2-.5 0-2.1.2-2.2 1.8-.8 2.1 1.8 7.6 2.2 10.3.7 1.5-.8 2-1.8 1.6-3.5-.4-2-.1-2.3 1.4-1.9 1.1.4 1.9.2 1.9-.5 0-.6.4-.9.9-.6.4.3.6-.6.3-1.9-.2-1.4.1-3.9.8-5.6 1.4-3.3.5-5.1-2.7-5.4-1.7-.2-5.8-1.7-9.3-3.5-.8-.4-2.6-.3-3.8.1zM458.913 214.98c0 .5.5.7 1 .4.6-.3 1-.8 1-1.1 0-.2-.4-.4-1-.4-.5 0-1 .5-1 1.1zM494.913 215.08c0 2.1 2.2 4.8 3.8 4.8.9 0 2.3-.9 2.9-1.9 1.1-1.7.8-2-2.8-2.9-2.4-.6-3.9-.6-3.9 0zM503.313 218.38c-.8 1.5-.6 2.5.7 3.9 1.8 1.8 2.5 9.6.9 9.6-.5 0-.3 1.1.3 2.5 1.5 3.1 2.7 3.3 1.9.3-.4-1.8-.2-2 1.4-1.3 1 .4 3 1 4.4 1.2l2.5.4-2.8-2.3c-1.8-1.6-2.4-2.7-1.7-3.4 1.6-1.6-.6-7.4-3.8-10.4-2.8-2.5-2.9-2.5-3.8-.5zM500.513 223.58c.5.5 1.2 1.2 1.6 1.8.4.6.8.2.8-.8 0-.9-.7-1.7-1.7-1.7-.9 0-1.2.3-.7.7z"/><path d="M714.613 226.78c.6 2.2 3.3 3.7 3.3 1.8 0-1.4-2-3.7-3.1-3.7-.4 0-.5.9-.2 1.9zM769.213 227.78c2.7 3.2 3.1 4.2 2.8 7.1-.1 1 .1 1.1.6.4 1-1.5 7.3-.6 8 1.2.5 1.4 3.3.8 4.5-1 .4-.6 1-.4 1.4.7.4 1.1 0 2.2-1 3-2.1 1.5-3.7 8.1-2.9 11.8.3 1.4 0 3-.6 3.3-.7.5-.6 1.5.5 3.1.9 1.4 2 2.3 2.4 2 .5-.3 1.1-.1 1.5.5.3.5 2.2 1 4.1 1 3.2 0 4-.8 3.4-3.5-.1-.5.1-2.3.4-4.1.6-3.1.7-3.1 6.6-3.2 3.2 0 6.8-.6 8-1.2 1.1-.6 2.4-.9 2.9-.6.4.3.8-.1.8-.9 0-1.8-1.3-2-2.3-.4-.5.8-1 .6-1.6-.5-.6-1.1-.6-2.2.2-3.1 2.3-2.7.8-5.8-3.5-7-2.7-.7-3.9-1.6-3.7-2.7.1-.9-.4-1.8-1.3-2.2-.8-.3-1.5-1.2-1.5-2.1 0-.8-.7-1.5-1.5-1.5-1.4 0-1.4.3 0 2.4s1.4 2.5 0 3.6c-2.4 2-4.6-.4-3.8-4.1l.6-3-3.9 2.3c-2.2 1.2-4.2 2.6-4.5 3.1-.8 1.1-4.8 0-7.2-2.1-.9-.8-2.9-1.7-4.3-1.8-1.4-.2-3.8-1.1-5.2-2l-2.7-1.8 2.8 3.3zM742.913 255.98c0 .5.5.7 1 .4.6-.3 1-.8 1-1.1 0-.2-.4-.4-1-.4-.5 0-1 .5-1 1.1zM743.813 263.18c-.3 2.2 0 5 .8 6.4.7 1.3 1.1 3.7.9 5.4-.4 3.1 1.7 5.9 2.9 3.9.4-.7 1.8-.3 4.2 1.1 2.9 1.8 3.8 2 6 1 2.7-1.2 4.2-.3 4.3 2.6 0 1.3 1.2 1.7 3.7 1.4.6-.1 1.4.8 1.8 1.9.7 2.1 2.5 1.8 2.5-.4 0-.7-1.2-3-2.6-5.1-2.2-3.3-2.5-4.4-1.9-8.9l.7-5 1.9 2.3c2.4 3 2.4 3.7-.2 4.4-2.1.6-2.1.7.9 3.1 1.6 1.4 4.2 2.6 5.6 2.6 2 0 3 .9 4.6 4 1.1 2.2 2.7 4 3.4 4 .8 0 1.7 1.3 2.1 3 .4 1.6 1.3 3 2 3s1.5.6 1.8 1.4c.3.8 2.3 2.2 4.4 3.2 2.1 1 5.1 2.9 6.7 4.2l3 2.4 1.8-2.4c.9-1.2 1.7-2.8 1.7-3.3 0-1.6-3.8-10.1-3.8-8.8-.1.7-.5 1.3-1 1.3s-.7-.9-.4-1.9c.3-1.1 1.1-1.7 1.8-1.5.9.4 1.1-.7.7-4.4-.4-4.5.4-7.5 3.7-13.7.2-.6-.3-.4-1.2.3-1.8 1.5-3.7.8-3.7-1.4 0-.8-1-1.5-2.2-1.5-6.1-.4-7.4-.3-8.7.6-.7.5-2 1-2.9 1.1-.9.2-2.6.5-3.9.9-1.3.3-2.3.1-2.3-.4s-1.2-.5-2.8.1c-1.6.6-4.5.8-6.5.4-2.9-.5-3.8-1.3-4.3-3.3-1.1-4.2-3.4-6.4-5.7-5.2-1 .6-2.5.8-3.3.5-.8-.3-1.4.1-1.4.9 0 2-2.8 2.2-8.7.6-3.1-.8-5.4-2-5.6-3-.2-.9-.5.1-.8 2.2zM619.913 262.28c0 2.2 1.7 2.8 2.4 1 .9-2.2.8-2.4-.9-2.4-.8 0-1.5.6-1.5 1.4z"/><path d="M784.413 262.88c-.4.6-1.3.9-2 .6-.9-.3-1.1.2-.8 1.5.8 3 1.9 3.1 3.2.2 1.2-2.6.9-4.4-.4-2.3zM616.213 268.68c-.9.6-.7 1.1.6 1.9 1.6 1 2 .9 2.4-.8.5-2-.8-2.5-3-1.1zM807.913 273.78c0 .5.5 1.3 1 1.6.6.3 1 .2 1-.4 0-.5-.4-1.3-1-1.6-.5-.3-1-.2-1 .4zM611.913 276.28c0 1.3-.6 2.6-1.2 2.9-1 .3-1 .9-.2 2.3.8 1.3.8 2.6.1 4.2-.8 1.8-.7 2.6.6 4 1.1 1 1.7 1.2 1.7.4 0-.7 1.2-1.2 2.8-1.2 3.7 0 4.8-1 5.6-4.5.6-3.2-1.7-6.7-6.2-9.3-3-1.7-3.2-1.6-3.2 1.2zM633.013 293.48c-.7.8-1.9 1.3-2.7 1-1.4-.6-5.4 3.8-5.4 6 0 .8-.4 1.4-1 1.4-.5 0-1 .9-1 1.9 0 1.1-.6 2.2-1.2 2.4-1 .4-1 .6 0 .6.6.1 1.2.7 1.2 1.5 0 2.1 4.9 6.8 6.5 6.2 1.7-.6 4 2.5 5 6.6.4 1.5 1.3 3.2 2.1 3.9.8.6 1.1 1.6.7 2.1-1.4 2.3-.6 9.9 1.3 11.9 2.3 2.6 11.1 7.2 12.3 6.4.5-.3 1.4.9 2 2.5 1.2 3.6 2.6 3.9 3.5.7.9-3.3.8-3.4-2.1-4.6-1.6-.6-3.4-2.4-4-3.8-1.4-2.9-1.8-5.6-.5-3.7.8 1.4 7.4 2.3 7.4 1.1 0-1.7-5.6-7.1-6-5.9-.6 1.8-2.7 1.5-4.6-.7-1.3-1.5-1.5-2.4-.8-3.8.8-1.3.6-2.3-.6-3.6-1.1-1.3-1.3-2-.5-2.5 2.8-1.8 2.6-6.1-.6-11.1-2.7-4.1-3-5.2-2.1-7.3 1.6-3.4-.3-8.2-2.9-7.3-1.3.4-2 0-2.4-1.5-.6-2.4-1.7-2.5-3.6-.4zm6.4 12.4c.3.5.1 1-.4 1-.6 0-1.1-.5-1.1-1 0-.6.2-1 .4-1 .3 0 .8.4 1.1 1zM772.613 293.58c-1.3 1.2-.7 6.4.8 6.9.8.4 1.5 1.3 1.5 2.2 0 .8.7 2.3 1.6 3.3 1.6 1.8 1.6 2.2-1 6.8-1 1.6-1.1 3.3-.6 5.2.5 1.7.5 2.9-.1 2.9-.5 0-.9.7-.9 1.5s-.9 1.9-2.1 2.5c-1.1.7-2.5 2.5-3.1 4.1-.6 1.8-1.7 2.9-2.9 2.9-1.3 0-1.9.7-1.9 2.3 0 1.7.6 2.3 2.5 2.5 1.4.1 2.5-.3 2.5-.9 0-.7 1.4.6 3.1 2.7 1.7 2.2 4 4.2 5 4.6 2.6 1 1.7 2.3-2.8 4.5-2 .9-3.8 2.5-4.1 3.5-.5 2.2-.4 2.2-4.7.4-3-1.3-3.5-1.3-3.5-.1 0 1-.8 1.3-2.7 1-4.7-.9-6.8 1.7-6.5 7.8.1 2.8.7 5.3 1.2 5.5 1.3.5 1.3 4.5 0 5.8-.5.5-1.1 2.2-1.2 3.7-.1 1.5-.8 2.7-1.5 2.7s-1.3.4-1.3 1c0 .5-.7 1-1.6 1-1.1 0-1.3.6-.9 1.9.4 1.4 0 2.1-1.2 2.4-1.4.3-1.2.6.9 1.1 1.5.5 3 1.5 3.3 2.5.2.9 1.5 2.1 2.7 2.6 1.9.8 2.2 1.6 2 4.7-.5 5.5 2.7 9.6 8.1 10.5 4.5.7 12.1 6.8 13.3 10.6.4 1.2 2 3.7 3.6 5.5 1.5 1.8 2.6 3.7 2.3 4.2-.3.4.4 2.9 1.5 5.4 1.7 4 1.7 4.6.3 4.6s-1.4.3-.1 2.2c1.8 2.8 3 10.6 1.7 11-.6.2-.5 1.6.1 3.4 1.2 3.3-.1 8.4-2 8.4-2.1 0-.9 1.8 3 4.4 3.1 2 4 2.3 4 1.1 0-.8.7-1.5 1.5-1.5 1.2 0 1.3-.4.5-1.9-1.4-2.6-1.3-3.1.6-3.1.9 0 1.2-.5.8-1.2-.5-.7-.2-.9.8-.5 1.2.4 1.4 0 1-1.6-.5-2-.4-2.1 1.2-.8 1 .8 1.5 2.3 1.2 3.3-.3 1.2.2 2.2 1.2 2.6 2.9 1.1 5.1 4.5 4.1 6.4-1.4 2.6-1.1 4.8.7 4.8.9 0 2.7 1.2 4 2.6 1.7 1.7 3 2.3 4.4 1.9 1.1-.3 3.5.1 5.4 1 1.9.9 3.9 1.4 4.5 1.1 1.5-1 2.3 3.1 1.1 5.4-.9 1.7-.8 2.1.7 2.7 1 .3 2.4 1.1 3.2 1.7.7.6 2.6.9 4.2.8 1.6-.2 2.9.1 2.9.6s.9 1.2 1.9 1.5c1.3.3 2.4 2 3.1 4.8 1.3 4.6 7.1 10.9 10.1 10.9.9 0 2.2 1.4 2.9 3 1.3 3.2 4.3 5.4 6.3 4.7.7-.2 2 0 3 .5 1.2.6 2.3.6 3.2-.2 2-1.7 9.7-.1 12.3 2.6 2.8 2.9 6.7 4 8.6 2.5.8-.7 3.3-1.3 5.5-1.4 2.3-.1 4.1-.5 4.1-1s.9-1.6 2-2.5c1.3-1.2 2.1-3.3 2.4-6.7.6-6.8 1.6-9.5 3.2-9.5.8 0 1.7-.6 2-1.4.3-.8 1.5-1.7 2.7-2 2.1-.6 2.1-.7.5-2-1-.7-1.5-1.5-1.2-1.8.3-.3-.8-1.6-2.3-2.8-2.7-2.1-2.7-2.2-.9-3.6 1.7-1.2 7.1-2 10-1.5.5.1 1.6-.4 2.5-1.2.9-.8 3-1.9 4.8-2.6 4.9-2 8.5-7.3 8.5-12.7 0-3.9.2-4.4 1.8-3.9 2.4.8 3.2-.7 2.1-3.8-.8-2.1-.6-2.6 1-3 1.3-.3 1.9-1.4 1.9-3.1 0-1.4.5-2.6 1.1-2.6.6 0 .9-1 .7-2.3-.2-1.5-1.3-2.5-3.5-3.2-3.1-1-6.2-3.9-6.3-5.9 0-.4 1.3-.6 2.9-.4 2.6.4 3 .1 3.5-2.8.4-1.8 1.3-3.7 2.1-4.4 1.8-1.5 7.6-.4 6.9 1.3-.2.7.8 1.7 2.2 2.4 2.2 1 3 .9 5.5-.9 2-1.5 2.6-2.5 1.9-3.2-.5-.5-1-2-1-3.2 0-1.7.5-2.1 1.9-1.7 1.4.4 2-.2 2.5-2.7.3-1.7.1-4.1-.5-5.2-1.1-2 0-3.7 2.4-3.8.4 0 .7-.6.7-1.4 0-.8.9-2.1 2-2.9 1.7-1.2 1.8-1.7.7-4-.8-1.9-1.7-2.5-3-2.1-3.1 1-7.4-1.8-9.5-6.1-1.4-2.9-2.8-4.3-5.3-5-3.3-1-5.2-3.5-2.6-3.5.8 0 2-.7 2.7-1.5.7-.8 1.6-1.2 2.1-.9.5.3.5-.6-.1-2-.5-1.4-.7-2.6-.4-2.6.2 0-.2-1.4-1.1-3-1.2-2.3-1.3-3-.3-3 .7 0 .2-.9-1.2-1.9-2.4-1.9-4.6-2-10.2-.6-2.4.6-2.8.4-2.8-1.3 0-1.5.5-1.8 2.6-1.4 2.3.4 2.5.2 1.9-1.7-.4-1.2-.2-2.1.4-2.1.6 0 1.1-.9 1.1-1.9 0-2.4-3.6-1.7-5.1 1-.5 1.1-1.9 1.9-3.1 1.9-1.8 0-2 .4-1.4 3.1.7 3.5 1.3 3.4-8.7 1l-3.8-.9.5 6.1c.4 4 .1 7-.7 8.3-2.1 3.8-9.1 10.8-9.4 9.7-.3-.8-1.4-.9-3.3-.3-2.5.7-2.9.5-3.2-1.2-.4-2.4-11.1-7.2-14.4-6.3-2.9.7-10.8-3.8-12.2-7.1-.8-1.5-1.9-2.4-3-2.2-2.6.4-8-4.1-9.2-7.8-.7-2.1-2.2-3.8-4.3-4.8-1.8-.8-4.8-3.6-6.6-6.2-3.1-4.2-3.5-4.4-4.4-2.8-1.5 2.8-3.1 3.5-4.2 2.1-.5-.7-1.8-1.6-2.8-2-1-.4-1.5-1.1-1.2-1.7.9-1.4-7-9.6-10.6-11-1.6-.7-4-3.2-5.4-5.6-1.5-2.6-3.3-4.4-4.4-4.4-1 0-2.1-.3-2.5-.7-.3-.4-1.4-.8-2.4-.9-.9-.2-3-.6-4.7-.9-1.6-.4-5.3-.8-8.2-.8-3.9-.2-5.8-.8-7.4-2.4l-2.2-2.2 2.7-.7c1.4-.3 3-1.4 3.6-2.3.5-1 2.2-1.6 4.6-1.6 8.8 0 5.2-8-6.2-13.5-4.5-2.2-6.4-3.6-6-4.5.7-2-2-8.1-3.9-8.9-.9-.3-2.6-.6-3.7-.6-1 0-2.6-.7-3.4-1.5-1.7-1.6-2.7-1.9-3.7-.8zm15.3 36.3c0 1.2-4.9 3-5.5 2-.4-.6-1.8-1-3.3-1-2.9 0-2-1.6 1.3-2.2 2.7-.5 7.5.2 7.5 1.2z"/><path d="M805.313 310.68c.4.7.1 1.2-.8 1.2-1.3 0-1.3.4 0 3.6.9 2.1 2.2 4.3 3 5.1.8.8 1.2 1.8.9 2.2-.2.5.7 1.9 2 3.1 1.6 1.5 2.3 3 2 4.1-.4 1.1.2 2.3 1.7 3.3 2.8 2 3.9 2 3.2.2-.3-.8 0-1.7.5-2.1.6-.3.9-1.1.5-1.6-.3-.5-1-.7-1.5-.4-.5.4-.9 0-.9-.8s-1.2-2.2-2.6-3.2c-1.4-.9-2.3-1.9-2.1-2.2.3-.2-.6-2.1-1.9-4-1.3-2-2.4-4.6-2.4-5.9 0-1.2-.5-2.6-1.2-3-.7-.4-.8-.3-.4.4zM648.713 352.48c-.4.3-.2 1.9.3 3.7.5 1.7.8 3.1.6 3.1-.1.1-1.8.9-3.7 1.8-3.2 1.6-3.9 1.7-8.4.3-4-1.2-4.7-1.2-4.3-.1.4.9-.5 1.9-2.2 2.6-1.6.6-3.3 2.2-3.9 3.6-.7 1.3-1.8 2.4-2.6 2.4s-1.6.5-1.8 1c-.2.6-1.7 1.2-3.3 1.4-1.6.2-3.4 1.2-4 2.2-1.4 2.7-2.7 3.5-4.8 3-1.1-.3-1.6 0-1.4.7.3.7-.5 2.9-1.6 4.9-2.1 3.9-3 4.2-11.9 4.2-1.9-.1-4.8 7.3-4.5 11.5.1 1.3-.4 2.6-1 2.8-.7.3-1.3-.3-1.3-1.2 0-.9-.4-1.3-1-1-1.5.9-1.2 6.2.4 6.8.8.3 2.5 2.7 3.8 5.4 1.4 2.6 3.1 5.8 3.9 7 1.5 2.6 4.5 3.2 3.5.8-.6-1.7 2.9-2.1 5.4-.5 1.5.9 1.6 1.2 1.9 5.2.2 3.1 5.7 6.4 9.9 6 2-.2 3.2-.9 3.2-1.8 0-2.2 2.8-1.7 5.5 1.1 2.7 2.6 3.1 4.5 1.5 6.1-1.7 1.7.9 7.3 5.2 11.5 4.1 4 11.2 7.9 14.2 7.9 1 0 2 .9 2.3 2.1.4 1.2 1.7 2.2 3.4 2.6 1.6.3 2.9.9 2.9 1.3 0 1.1 5.3 3.2 5.9 2.3.3-.4 2.1-.9 4-1 1.9-.1 3.7-.6 4-1 1.2-1.6 5.5-1.3 7.5.6 1.7 1.5 3.3 1.9 7.8 1.7 3.1-.2 6.4-.9 7.3-1.6 1.2-1 1.9-1 2.7-.2.7.7 2 1.2 2.9 1.2 2.3 0 5.2 4.1 3.9 5.4-3 3 1.1 11 6.1 12 1.8.3 2.9.9 2.6 1.3-.4.3 1.4 3 4.1 5.8 8.1 9 9.6 11 9.4 12.6-.2.8 2 3.9 4.9 6.8 3.8 3.9 5.4 4.9 6.3 4.2.7-.6 1.5-.9 1.8-.6.3.3 2.6.7 5.2.9 3.3.2 4.6 0 4.6-1 0-1.1.6-1 3.3.1 5.9 2.5 14.1-.5 15.2-5.6.4-1.9 1.5-3.3 2.6-3.6 1.2-.3 1.9-1.4 1.9-2.9 0-1.2.4-2.6 1-2.9 1.5-.9 8.9 1.4 11.1 3.6 2.3 2.3 3.9 2.5 3.9.3 0-.9 1.4-2.1 3-2.7 1.7-.6 3-1.5 3-2s.6-.5 1.3 0c1.8 1.5 7.5 2.4 8.2 1.3.9-1.5 8.5-3.2 10.4-2.4.9.4 2 .6 2.4.5.4 0 1 .6 1.3 1.4.5 1.2.9 1.3 2 .4s1.8-.8 2.9.1c1.2 1 1.5 1 1.5 0 0-.8.9-1.1 2.5-.8 1.4.3 3-.1 3.6-.9.7-.7 2-1.1 3-.8.9.3 2 .1 2.3-.4 1.1-1.8-.9-2-4.2-.4-2.6 1.3-3.8 1.4-5.8.4-1.4-.6-3.7-1.1-5.2-1.1-2.3 0-2.7-.4-2.9-3.3-.4-8.1-1-9-8.8-12.7-4.1-1.9-7.5-4-7.5-4.6 0-1.6-3.7-2.6-9.5-2.4-4.1.1-5.7-.4-9-2.9-2.2-1.7-5-3.1-6.3-3.1-1.3 0-3.6-.7-5.3-1.5-1.6-.9-3.4-1.3-3.9-1-1.5.9-5-.4-5-1.8 0-.7.9-1.8 2-2.5 1.9-1.2 1.9-1.3.1-3.1-1-1-2.1-3.6-2.4-5.8-.6-3.7-1-4.1-4.9-5.1-9.1-2.4-10.6-2.4-11.6-.5-1 1.7-1.2 1.7-4.1-.5-1.7-1.3-4.5-2.2-6.4-2.2-1.9 0-4-.7-4.7-1.5-.7-.8-2.1-1.5-3.1-1.5s-2.2-.6-2.6-1.3c-2-3.1-10.6-6.6-11.8-4.7-.3.5-1.5.6-2.8.1-1.4-.6-3-.5-4.1.1-2 1.1-3.6-.3-3.6-3.3 0-.8-.5-2-1.2-2.7-.8-.8-.9-1.8 0-3.6 1.3-2.9.7-3.6-3-3.6-2.5 0-2.8-.3-2.3-2 .4-1.3-.1-3-1.4-4.6-2.5-3.2-2.6-4.4-.6-4.4 2.7 0 1.6-3.9-2.2-7.5-2-1.9-3.2-3.5-2.5-3.5 2.1 0 1.3-2-1.3-3-1.8-.7-2.5-1.7-2.5-3.6 0-3.7-7.9-16.2-9.3-14.7-.8.7-7.7-5-7.7-6.4 0-.6-.4-1.5-1-1.8-.6-.4-.7.1-.4 1.2.5 1.4.4 1.5-.4.4-.6-.8-.8-2-.5-2.8.4-.9-.3-1.6-1.6-2-1.1-.3-2.1-.9-2.1-1.4 0-.5-.6-.9-1.3-.9-1.8 0-6-4.6-5.3-5.8.3-.6-.1-1.3-1-1.6-1.9-.7-1.9-.7-2.6 0zm112.2 110.4c0 .5-.7.7-1.5.4-.8-.4-1.2-1-.9-1.5.6-1.1 2.4-.2 2.4 1.1zM591.513 384.38c-.3.8-.1 1.5.4 1.5.6 0 1-.7 1-1.5s-.2-1.5-.4-1.5-.6.7-1 1.5zM588.913 390.98c0 1.1.5 1.7 1 1.4.6-.3 1-1.3 1-2.1s-.4-1.4-1-1.4c-.5 0-1 .9-1 2.1z"/><path d="M589.413 394.98c-.4.6-.5 1.2-.2 1.5.2.3.7-.2 1-1.1.7-1.7.1-2-.8-.4zM946.913 439.28c0 .2.8 1 1.8 1.7 1.5 1.3 1.6 1.2.3-.4s-2.1-2.1-2.1-1.3zM778.913 503.38c-1 1.3-.9 1.5.9 1.5 1.2 0 2.1-.6 2.1-1.5 0-.8-.4-1.5-.9-1.5s-1.4.7-2.1 1.5z"/></g></svg>