<?xml version="1.0" standalone="no"?>
<!DOCTYPE svg PUBLIC "-//W3C//DTD SVG 20010904//EN"
 "http://www.w3.org/TR/2001/REC-SVG-20010904/DTD/svg10.dtd">
<svg version="1.0" xmlns="http://www.w3.org/2000/svg"
 width="650.316711pt" height="506.118180pt" viewBox="0 0 650.316711 506.118180"
 preserveAspectRatio="xMidYMid meet">
<metadata>
Created by potrace 1.15, written by Peter Selinger 2001-2017
</metadata>
<g transform="translate(-671.500000,1188.558053) scale(0.100000,-0.100000)"
fill="#222222" stroke="none">
<path d="M8160 11863 c1 -15 1 -30 0 -33 -1 -3 -3 -13 -5 -24 -5 -26 -47 -67
-63 -61 -8 3 -10 0 -6 -7 5 -8 2 -9 -9 -5 -14 5 -17 0 -17 -33 0 -47 -11 -56
-44 -35 -17 11 -26 13 -31 5 -5 -8 -11 -8 -21 1 -16 13 -19 33 -3 23 6 -3 -5
17 -25 45 -20 28 -36 55 -36 61 0 5 -9 10 -20 10 -13 0 -20 -7 -20 -19 0 -10
-10 -26 -22 -34 -19 -13 -20 -16 -5 -16 25 -1 21 -26 -8 -39 -14 -6 -25 -19
-25 -27 0 -9 -4 -14 -10 -10 -5 3 -18 -2 -28 -12 -10 -10 -32 -25 -47 -33 -18
-9 -32 -27 -37 -48 -7 -27 -13 -32 -39 -32 -17 0 -28 -4 -24 -10 9 -15 -46
-82 -62 -76 -8 3 -13 -2 -13 -12 0 -10 -14 -26 -31 -36 -34 -20 -36 -19 -76
47 -12 18 -26 27 -44 27 -19 0 -35 11 -54 36 -22 29 -32 34 -51 30 -18 -5 -36
3 -77 35 -28 23 -51 46 -50 50 2 5 -4 6 -13 2 -11 -4 -12 -9 -5 -16 15 -15 14
-67 -2 -67 -17 0 -37 -66 -23 -80 16 -16 -5 -29 -54 -34 -25 -3 -47 -6 -50 -7
-3 -1 -12 -2 -20 -3 -18 -1 -27 -56 -10 -56 8 0 10 -9 6 -25 -5 -20 -3 -25 13
-25 28 0 34 -28 9 -41 -18 -9 -20 -9 -15 4 7 18 -14 29 -33 17 -11 -7 -11 -11
0 -25 11 -13 11 -21 2 -36 -10 -15 -9 -19 0 -19 8 -1 5 -7 -6 -15 -22 -17 -23
-16 24 -41 43 -22 51 -23 68 -7 23 22 37 15 36 -20 0 -17 -4 -40 -8 -49 -4 -9
-5 -22 -2 -27 4 -6 -7 -20 -24 -32 -30 -23 -31 -24 -30 -128 0 -13 -6 -29 -14
-35 -13 -9 -13 -15 -1 -43 8 -18 18 -33 23 -33 6 0 13 -11 16 -25 4 -16 11
-22 21 -19 8 3 29 1 46 -5 28 -10 31 -9 26 8 -6 25 27 34 72 21 19 -5 36 -9
40 -8 18 5 53 -17 61 -38 5 -13 18 -24 28 -24 10 0 23 -5 30 -12 9 -9 18 -9
38 1 14 6 35 9 47 5 28 -9 60 32 44 57 -7 11 -7 28 -1 50 l10 34 18 -28 c14
-20 16 -30 7 -40 -8 -10 -7 -18 2 -31 12 -17 15 -17 30 -2 14 15 18 14 44 -9
15 -13 22 -25 16 -25 -7 0 -13 5 -13 10 0 6 -5 10 -11 10 -8 0 -7 -5 1 -15 7
-9 20 -13 27 -11 8 3 27 -1 43 -9 36 -19 80 -21 62 -3 -16 16 -15 28 3 28 33
0 95 92 95 141 0 16 5 18 25 13 15 -4 25 -2 25 5 0 6 -4 11 -10 11 -5 0 -10 7
-10 15 0 8 6 15 13 15 21 0 14 53 -12 79 -21 21 -22 24 -7 39 13 14 21 14 47
5 23 -9 37 -9 52 -2 16 9 17 13 6 20 -12 7 -12 9 0 9 7 0 11 6 8 15 -4 8 -2
17 3 20 15 9 12 51 -5 65 -22 18 -19 50 5 50 24 0 43 34 37 66 -2 14 0 27 4
30 5 3 1 17 -8 31 l-17 26 32 -5 c18 -2 32 -1 32 3 0 5 6 6 14 3 17 -6 41 49
32 73 -6 16 -6 16 12 0 22 -20 56 -12 47 11 -5 12 3 14 50 9 44 -4 55 -3 55 9
0 8 7 29 16 45 15 29 16 30 34 14 12 -11 20 -13 25 -6 3 6 16 12 28 12 17 1
18 2 5 6 -19 5 -21 12 -13 36 5 11 13 12 40 3 33 -10 48 -26 25 -26 -5 0 -10
-9 -10 -20 0 -14 -7 -20 -21 -20 -11 0 -17 -4 -14 -10 3 -5 0 -10 -7 -10 -7 0
-22 -14 -33 -30 -11 -16 -28 -30 -37 -30 -52 0 -113 -59 -87 -85 11 -11 119
-14 119 -3 0 11 34 -4 48 -21 16 -21 52 -100 52 -116 0 -26 32 -75 50 -75 26
0 67 -24 63 -37 -2 -6 9 -16 24 -22 15 -6 43 -22 61 -37 29 -24 32 -25 32 -8
1 11 7 36 14 56 13 36 13 37 -19 54 -20 10 -31 23 -28 31 3 7 -2 13 -11 13
-18 0 -16 4 26 50 13 15 16 31 12 70 -4 46 5 65 21 40 12 -19 26 -11 15 9 -7
13 -16 17 -32 13 -17 -4 -20 -2 -15 12 4 10 1 19 -8 22 -20 8 -19 24 1 24 9 0
18 -9 21 -19 6 -22 43 -24 43 -3 0 12 3 12 15 2 12 -10 15 -10 15 2 0 22 -40
69 -51 62 -15 -9 -51 27 -40 40 15 18 24 96 12 96 -6 0 -11 11 -11 25 0 18 -8
29 -26 37 -19 9 -24 18 -21 34 2 14 -2 25 -10 28 -20 8 -25 7 -19 -3 12 -19
-25 -20 -44 -1 -11 11 -24 20 -30 20 -5 0 -10 6 -10 13 0 20 -37 50 -50 42 -6
-4 -25 8 -43 27 -26 27 -37 33 -57 28 -14 -4 -33 -3 -43 2 -10 5 -24 5 -33 0
-17 -10 -66 -4 -60 7 3 4 -4 13 -15 20 -19 11 -20 10 -19 -16z m305 -313 c3
-5 1 -10 -4 -10 -6 0 -11 5 -11 10 0 6 2 10 4 10 3 0 8 -4 11 -10z m-1190 -31
c11 -17 -1 -21 -15 -4 -8 9 -8 15 -2 15 6 0 14 -5 17 -11z m1172 5 c-3 -3 -12
-4 -19 -1 -8 3 -5 6 6 6 11 1 17 -2 13 -5z m-1377 -185 c0 -6 -4 -7 -10 -4 -5
3 -10 11 -10 16 0 6 5 7 10 4 6 -3 10 -11 10 -16z m160 -171 c0 -4 -6 -5 -14
-2 -8 3 -12 12 -9 21 5 12 7 12 14 1 5 -7 9 -16 9 -20z"/>
<path d="M8930 11492 c0 -12 19 -26 26 -19 2 2 -2 10 -11 17 -9 8 -15 8 -15 2z"/>
<path d="M9020 11456 c0 -19 -5 -20 -30 -6 -17 9 -18 8 -12 -8 10 -27 48 -72
60 -72 14 0 23 28 11 36 -5 3 -7 14 -4 23 3 10 -1 24 -10 31 -12 10 -15 10
-15 -4z"/>
<path d="M8170 11381 c0 -17 5 -31 10 -31 6 0 10 11 10 24 0 14 -4 28 -10 31
-6 4 -10 -7 -10 -24z"/>
<path d="M6845 11376 c-47 -26 -75 -49 -75 -61 0 -7 -9 -15 -21 -18 -20 -5
-20 -7 8 -41 15 -20 31 -36 36 -36 4 0 7 -7 7 -16 0 -8 5 -12 10 -9 6 4 8 11
5 16 -4 5 -2 9 4 9 5 0 11 -5 13 -11 5 -14 38 0 38 17 0 8 7 14 15 14 8 0 15
7 15 15 0 8 4 15 10 15 5 0 6 8 3 17 -4 11 -8 12 -11 5 -2 -7 -10 -12 -18 -12
-9 0 -13 4 -10 9 3 5 -1 14 -9 21 -8 7 -15 17 -15 22 0 11 44 -1 48 -13 6 -16
20 -10 25 11 4 14 0 20 -13 20 -10 0 -24 8 -31 19 -11 15 -18 16 -34 7z"/>
<path d="M9107 11366 c-12 -10 -15 -16 -7 -21 13 -8 23 0 26 20 3 18 4 18 -19
1z"/>
<path d="M9044 11341 c17 -11 35 -17 40 -13 6 4 2 8 -9 10 -11 2 -24 8 -29 13
-6 5 -15 9 -20 9 -6 0 2 -9 18 -19z"/>
<path d="M8079 11308 c-8 -18 -12 -39 -11 -45 2 -7 -4 -13 -12 -13 -9 0 -13
-6 -10 -14 3 -8 1 -17 -5 -21 -14 -8 -14 -45 -1 -45 6 0 15 12 21 28 9 25 54
72 68 72 3 0 12 4 20 9 11 7 9 14 -14 35 -15 14 -31 26 -35 26 -4 0 -14 -15
-21 -32z"/>
<path d="M9107 11286 c-8 -8 -19 -11 -27 -6 -20 12 -39 -11 -29 -37 5 -15 3
-25 -7 -33 -7 -7 -14 -19 -14 -26 0 -8 -8 -14 -19 -14 -28 0 -44 -25 -36 -59
4 -21 1 -38 -9 -53 -9 -12 -16 -32 -16 -45 0 -33 -21 -72 -42 -78 -20 -7 -25
-44 -7 -62 14 -14 3 -67 -17 -84 -12 -9 -12 -15 -2 -27 11 -13 10 -15 -9 -10
-18 5 -23 2 -23 -13 0 -11 -7 -22 -15 -25 -19 -8 -19 -26 1 -72 34 -75 38
-152 8 -152 -8 0 -13 -4 -9 -9 7 -13 -14 -25 -44 -25 -28 -1 -38 -25 -40 -93
-1 -24 -8 -51 -16 -60 -64 -77 -95 -104 -106 -98 -8 5 -10 4 -5 -3 4 -7 3 -12
-3 -12 -5 0 -17 -3 -25 -6 -12 -4 -15 -2 -10 9 3 8 1 18 -4 21 -6 3 -12 -1
-16 -9 -3 -8 -1 -17 4 -20 13 -8 13 -55 0 -55 -5 0 -10 -8 -10 -17 -1 -19 -61
-63 -86 -63 -14 0 -31 46 -20 57 3 4 -2 15 -11 26 -13 14 -14 21 -6 24 20 7 3
31 -18 26 -13 -4 -25 2 -35 16 -8 11 -21 21 -27 21 -7 0 -23 9 -36 19 -20 15
-29 16 -52 7 -24 -9 -31 -7 -42 8 -12 17 -14 17 -20 2 -4 -9 -13 -16 -21 -16
-8 0 -27 -16 -42 -35 -14 -19 -35 -35 -46 -35 -10 0 -16 -4 -13 -10 3 -5 1
-10 -4 -10 -6 0 -11 -7 -11 -15 0 -8 -6 -12 -14 -9 -7 3 -27 -9 -44 -25 -28
-29 -29 -32 -12 -41 27 -15 62 -80 56 -106 -6 -23 16 -50 32 -40 5 3 21 0 36
-7 26 -12 35 -27 15 -27 -5 0 -7 -4 -4 -10 3 -5 2 -10 -4 -10 -6 0 -8 -7 -5
-15 4 -10 0 -15 -15 -15 -16 0 -21 -6 -21 -25 0 -20 8 -28 39 -41 44 -18 67
-58 57 -100 -4 -15 -2 -32 5 -40 9 -11 8 -18 -2 -31 -8 -9 5 -4 30 11 40 26
47 27 87 17 23 -6 59 -20 79 -32 22 -13 44 -19 58 -15 13 3 32 0 42 -7 13 -10
33 -11 79 -5 33 5 69 7 79 4 9 -2 17 1 17 7 1 18 48 68 62 66 20 -3 49 12 42
22 -3 5 -1 9 5 9 5 0 16 12 23 27 7 14 19 29 27 31 8 3 11 0 7 -6 -3 -6 -1
-14 5 -17 5 -4 8 -13 5 -21 -3 -9 1 -14 13 -14 31 0 51 11 51 27 0 11 7 13 25
9 14 -4 34 -2 44 3 12 7 22 6 29 -1 9 -9 12 -8 12 2 0 8 13 24 30 35 16 11 29
26 27 33 -2 15 69 59 80 48 8 -8 -17 -27 -28 -20 -11 7 -31 -52 -27 -83 3 -28
3 -28 -58 -31 l-60 -3 6 -47 c3 -26 9 -52 13 -59 5 -7 0 -16 -12 -22 -11 -6
-22 -19 -25 -29 -3 -9 -22 -26 -41 -36 -19 -10 -32 -22 -30 -26 2 -4 1 -20 -4
-36 -5 -20 -14 -29 -29 -29 -15 0 -28 -14 -47 -50 -24 -45 -26 -53 -15 -90 7
-22 16 -48 21 -57 5 -10 6 -23 3 -31 -3 -8 2 -20 10 -27 17 -13 12 -59 -8 -72
-7 -4 -4 -14 8 -27 12 -13 16 -28 13 -43 -4 -13 -3 -28 1 -35 11 -18 60 -34
67 -23 4 6 15 10 26 10 10 0 19 5 19 11 0 8 4 8 14 0 7 -6 21 -9 30 -5 9 4 28
-4 47 -21 23 -19 34 -23 40 -14 4 6 14 9 23 6 10 -4 16 -1 16 7 0 7 20 26 45
41 25 16 45 37 47 49 2 11 11 22 22 24 10 2 29 16 41 30 l23 27 -24 22 c-31
29 -32 71 -1 82 35 13 51 52 43 105 -5 30 -4 46 3 46 6 0 11 9 11 20 0 15 7
20 26 20 25 0 26 2 21 39 -6 48 15 72 65 76 18 2 35 4 38 5 3 1 13 1 23 0 25
-2 77 23 77 37 0 7 7 13 15 13 23 0 18 18 -10 36 -19 13 -23 22 -19 47 2 18 2
26 -2 20 -10 -23 -34 -14 -34 12 0 14 -9 30 -20 37 -13 9 -22 28 -26 61 -6 40
-9 45 -21 35 -12 -10 -18 -9 -29 7 -8 10 -14 23 -14 28 0 4 -4 6 -9 2 -11 -6
-62 40 -79 70 -10 17 -11 17 -12 3 0 -11 -5 -15 -15 -12 -9 4 -15 0 -15 -10 0
-10 -9 -16 -25 -16 -14 0 -25 -6 -25 -12 0 -22 -15 -38 -38 -43 -12 -2 -27 -7
-32 -10 -6 -3 -10 -1 -10 5 0 6 7 13 15 16 8 4 15 14 15 24 0 11 5 22 10 25 6
4 17 22 25 41 8 19 20 34 28 34 8 0 29 7 47 16 27 14 30 18 16 26 -9 5 -16 15
-16 23 0 7 -9 17 -20 20 -11 3 -20 10 -20 15 0 5 -3 15 -6 23 -3 9 3 16 17 20
l22 6 -25 34 -26 33 38 1 c26 1 45 -5 56 -18 9 -10 25 -19 36 -19 10 0 18 -4
18 -8 0 -17 75 -39 97 -29 18 8 26 5 45 -16 25 -28 68 -45 68 -28 0 8 7 7 20
-1 13 -9 23 -9 30 -2 17 17 -78 73 -112 67 -16 -3 -28 -1 -28 5 0 5 -10 12
-22 15 l-22 6 22 24 c28 30 30 52 2 37 -10 -6 -47 -11 -81 -12 -48 -1 -63 2
-71 15 -6 11 -22 17 -45 17 -20 0 -33 3 -30 6 4 4 -3 20 -14 35 -11 16 -18 32
-16 36 3 5 2 41 -2 80 -6 68 -5 73 14 79 11 4 23 12 27 18 4 7 9 4 13 -7 6
-13 11 -14 26 -6 15 8 19 6 19 -7 0 -13 3 -14 14 -5 22 18 26 64 10 117 -12
41 -12 50 -1 59 30 21 44 117 17 113 -56 -7 -119 36 -101 69 5 11 7 38 4 61
-7 49 11 62 61 44 17 -6 47 -14 68 -17 34 -6 36 -5 43 23 5 23 10 29 26 25 12
-3 19 0 19 8 0 8 3 24 6 37 5 16 2 22 -10 22 -9 0 -16 5 -16 10 0 6 -15 10
-34 10 -31 0 -46 13 -50 42 -3 19 -18 19 -35 0 -19 -23 -46 -29 -56 -12 -10
16 -25 12 -25 -7 0 -15 -4 -13 -20 7 -13 17 -27 24 -43 22 -22 -3 -25 1 -29
35 -3 21 -1 40 3 44 19 12 -27 109 -52 109 -4 0 -14 -6 -22 -14z m-8 -629 c15
-45 6 -62 -16 -29 -10 14 -26 22 -44 22 -15 0 -30 4 -33 9 -7 10 17 21 45 21
11 0 19 7 19 17 0 24 13 5 29 -40z m2 -67 c26 -25 30 -32 19 -45 -19 -23 -30
-18 -30 16 0 22 -5 32 -20 36 -11 3 -20 9 -20 14 0 17 20 9 51 -21z m299 -399
c0 -12 -20 -25 -27 -18 -7 7 6 27 18 27 5 0 9 -4 9 -9z m-726 -159 c3 -5 -6
-15 -19 -22 -13 -7 -22 -17 -19 -22 3 -4 -4 -8 -15 -8 -18 0 -19 2 -5 30 15
29 46 40 58 22z m-240 -17 c8 -9 13 -23 10 -33 -5 -15 -4 -15 9 1 9 11 18 14
22 8 10 -17 -14 -51 -36 -51 -13 0 -18 -4 -13 -12 5 -10 3 -10 -7 0 -14 13
-21 102 -7 102 3 0 13 -7 22 -15z m60 -129 c16 -13 27 -29 24 -36 -6 -19 -38
-21 -38 -3 0 10 -6 14 -20 10 -10 -3 -27 2 -37 9 -17 14 -17 14 2 12 14 -2 19
2 17 15 -4 24 17 21 52 -7z m43 -83 c3 -7 -4 -11 -16 -10 -12 1 -21 7 -21 15
0 16 32 12 37 -5z"/>
<path d="M9495 11135 c2 -37 15 -43 15 -7 0 18 -4 32 -8 32 -4 0 -7 -11 -7
-25z"/>
<path d="M6919 11107 c-27 -24 -44 -67 -40 -102 6 -56 87 -67 98 -14 3 16 11
29 19 29 24 0 26 21 3 46 -19 20 -20 27 -10 37 11 9 14 9 18 0 3 -9 10 -10 23
-3 13 7 20 6 23 -3 3 -7 6 -5 6 6 1 12 -7 17 -28 17 -16 0 -41 2 -57 5 -21 4
-36 -1 -55 -18z"/>
<path d="M9481 11084 c0 -11 3 -14 6 -6 3 7 2 16 -1 19 -3 4 -6 -2 -5 -13z"/>
<path d="M9510 11054 c0 -8 5 -12 10 -9 6 4 8 11 5 16 -9 14 -15 11 -15 -7z"/>
<path d="M6715 11013 c0 -18 3 -33 8 -33 4 0 12 -11 17 -25 5 -13 23 -31 40
-40 27 -14 33 -14 59 -1 16 9 30 13 33 11 2 -2 5 5 5 16 2 20 1 20 -16 5 -16
-15 -21 -15 -48 -1 -37 18 -49 42 -25 48 13 4 12 5 -4 6 -14 1 -24 10 -28 25
-10 39 -41 30 -41 -11z"/>
<path d="M8680 11028 c0 -4 9 -12 20 -18 17 -9 20 -8 20 9 0 14 -6 19 -20 18
-11 -1 -20 -5 -20 -9z"/>
<path d="M8670 10964 c0 -18 4 -25 14 -21 15 6 46 -22 46 -41 0 -6 21 -25 46
-43 56 -38 75 -28 44 23 -15 27 -30 38 -56 43 -25 4 -41 15 -52 36 -21 36 -42
38 -42 3z"/>
<path d="M6810 10966 c0 -2 7 -7 16 -10 8 -3 12 -2 9 4 -6 10 -25 14 -25 6z"/>
<path d="M9970 10613 c0 -5 -10 -13 -22 -18 -12 -6 -22 -19 -23 -30 -1 -11 -3
-24 -5 -30 -1 -5 -2 -21 -1 -34 1 -24 1 -24 19 -5 22 24 52 113 41 120 -5 3
-9 1 -9 -3z"/>
<path d="M9893 10463 c-27 -5 -29 -16 -8 -33 12 -10 15 -10 15 3 0 9 8 21 18
26 18 11 13 11 -25 4z"/>
<path d="M9850 10353 c-19 -13 -44 -34 -55 -47 -11 -12 -28 -26 -37 -29 -26
-9 -22 -26 7 -32 14 -3 36 -7 50 -10 16 -4 25 -12 25 -24 0 -11 11 -28 26 -38
31 -23 24 -58 -11 -49 -13 3 -29 -1 -41 -12 -20 -18 -41 -21 -61 -9 -6 4 -14
3 -17 -2 -3 -5 2 -11 12 -13 24 -7 24 -39 0 -46 -32 -8 -16 -122 17 -122 7 0
10 -9 8 -24 -3 -14 2 -32 13 -44 14 -17 21 -19 38 -10 16 9 23 7 37 -11 9 -11
16 -29 14 -39 -2 -9 -4 -30 -4 -46 -1 -20 -5 -27 -15 -23 -12 5 -13 -2 -9 -30
6 -35 6 -35 -26 -28 -29 6 -32 4 -46 -29 -9 -20 -28 -44 -43 -54 -17 -10 -26
-24 -24 -34 2 -10 -2 -18 -9 -18 -8 0 -4 -9 8 -22 11 -13 28 -38 37 -56 17
-32 17 -34 -2 -39 -17 -4 -19 -9 -11 -36 11 -37 -3 -57 -40 -57 l-26 -1 24
-19 c13 -11 32 -20 44 -20 11 0 25 -8 32 -17 10 -14 16 -15 27 -5 12 10 18 8
32 -7 9 -10 14 -25 10 -34 -6 -16 53 -87 73 -87 6 0 29 -14 51 -30 23 -17 42
-27 42 -23 0 4 5 2 12 -5 17 -17 58 -15 80 5 27 24 22 0 -7 -31 -32 -35 -31
-46 5 -81 17 -16 30 -35 30 -43 0 -11 8 -13 33 -8 20 4 27 3 18 -3 -11 -7 -10
-11 4 -19 11 -6 18 -22 19 -43 1 -30 4 -34 26 -31 14 2 31 9 37 14 7 6 20 8
28 4 8 -3 15 -1 15 4 0 15 96 12 109 -3 6 -8 29 -20 51 -27 37 -12 54 -30 29
-30 -5 0 -3 -10 5 -22 15 -21 23 -69 10 -56 -3 4 -14 -2 -25 -13 -19 -19 -45
-17 -33 2 4 7 -7 8 -30 4 -27 -6 -41 -2 -61 13 -35 27 -109 27 -153 0 -18 -11
-42 -18 -52 -15 -11 3 -20 1 -20 -4 0 -12 -78 -31 -92 -23 -6 4 -18 -3 -27
-15 -12 -16 -28 -22 -64 -23 -36 -2 -43 -5 -29 -12 24 -14 55 -15 70 -3 14 11
62 -27 62 -50 0 -7 3 -12 8 -11 4 0 15 -2 25 -6 12 -6 23 -1 36 15 l18 23 12
-23 c18 -32 7 -51 -30 -51 -24 0 -30 -3 -25 -16 3 -9 6 -18 6 -20 0 -2 7 -4
15 -4 8 0 15 7 15 16 0 10 6 14 15 11 15 -6 68 16 60 25 -3 3 1 19 8 37 l14
32 16 -24 c9 -14 18 -49 21 -78 3 -30 7 -59 8 -65 1 -6 12 -9 25 -6 14 3 35
-1 48 -8 20 -10 27 -10 49 6 14 11 28 27 32 38 5 14 8 15 14 6 7 -11 13 -10
34 3 14 9 35 17 46 17 21 0 24 4 34 50 10 44 17 48 74 40 39 -5 52 -3 52 6 0
20 49 6 73 -21 24 -26 67 -43 67 -26 0 6 -6 11 -12 11 -7 0 -5 5 5 11 9 5 17
16 17 24 0 18 36 39 45 26 3 -6 -4 -15 -15 -21 -11 -6 -20 -19 -20 -29 0 -19
33 -55 42 -45 4 3 9 -5 13 -18 4 -13 13 -29 19 -37 18 -23 14 -59 -7 -65 -15
-4 -17 -8 -7 -26 6 -11 8 -30 5 -41 -4 -11 -2 -26 4 -33 8 -10 1 -10 -39 -2
-53 11 -76 2 -47 -18 17 -13 25 -32 8 -21 -5 3 -16 -4 -25 -16 -13 -19 -21
-21 -60 -16 -25 4 -47 3 -50 -2 -3 -5 -16 -6 -28 -4 -17 4 -32 25 -56 74 -28
57 -37 69 -58 69 -14 0 -24 6 -24 15 0 18 -34 37 -54 29 -9 -3 -16 -9 -16 -13
0 -7 -44 -27 -83 -35 -24 -6 -28 -4 -23 11 3 10 2 24 -3 31 -6 10 -10 10 -21
-3 -20 -24 -49 -18 -68 15 -20 35 -37 40 -27 9 7 -20 4 -21 -23 -16 -24 5 -31
2 -35 -13 -7 -26 -36 -37 -48 -19 -6 10 -9 11 -9 1 0 -8 -8 -10 -25 -6 -15 4
-25 2 -25 -5 0 -6 -3 -10 -7 -10 -32 5 -43 -3 -43 -30 0 -34 -31 -51 -55 -31
-12 10 -15 9 -15 -4 0 -18 -9 -19 -63 -7 -29 7 -39 6 -45 -6 -10 -17 -62 -8
-62 12 0 11 -21 25 -37 25 -3 0 -3 -16 -1 -35 3 -26 1 -34 -9 -31 -16 6 -18
-20 -2 -30 6 -3 8 -16 5 -28 -4 -15 3 -34 19 -55 19 -26 22 -37 13 -51 -20
-31 -3 -47 58 -54 36 -4 62 -13 69 -23 11 -15 15 -15 36 -1 33 21 53 13 37
-15 -7 -12 -11 -25 -10 -29 1 -4 -7 -12 -18 -18 -24 -13 -26 -52 -5 -74 12
-12 13 -20 5 -35 -14 -28 -13 -31 15 -31 14 0 25 6 25 13 0 6 7 3 16 -8 8 -11
18 -19 22 -17 3 2 8 -1 10 -8 2 -6 0 -10 -5 -9 -47 8 -57 -24 -20 -65 16 -17
27 -22 38 -15 27 17 47 9 109 -42 l61 -52 84 -1 84 -1 5 31 6 30 49 -9 c38 -8
56 -7 89 6 30 12 49 14 66 7 23 -8 24 -6 31 36 6 42 10 47 52 65 24 10 53 19
64 19 10 0 19 5 19 10 0 6 12 4 29 -4 27 -14 30 -14 55 9 14 13 26 28 26 34 0
5 22 23 49 40 30 18 51 38 53 51 3 20 35 42 120 81 15 6 26 15 23 18 -2 4 5
26 15 49 11 23 17 49 13 57 -4 13 -1 14 21 5 21 -7 26 -7 26 5 0 8 9 19 21 25
18 10 19 13 5 23 -21 16 -10 54 16 63 23 7 43 -15 28 -30 -16 -16 -11 -34 8
-32 13 1 18 -8 20 -45 3 -43 5 -47 34 -53 17 -3 37 -6 44 -6 16 0 19 46 4 55
-5 3 -10 11 -10 17 0 7 6 6 15 -2 9 -8 15 -9 15 -2 0 6 -8 17 -18 24 -10 7
-17 19 -16 26 1 6 2 20 3 30 1 15 4 14 20 -5 20 -24 105 -41 116 -23 10 16 42
12 49 -6 12 -32 6 -63 -14 -69 -11 -3 -20 -13 -20 -22 0 -10 6 -13 16 -9 9 3
20 6 25 6 5 0 9 10 9 23 0 16 6 22 25 23 14 1 25 -2 25 -7 0 -5 -7 -9 -15 -9
-8 0 -15 -7 -15 -15 0 -9 -7 -27 -16 -41 -13 -19 -14 -24 -4 -22 19 4 22 -51
4 -69 -13 -13 -12 -18 8 -38 17 -18 26 -21 36 -13 10 8 21 2 46 -25 21 -24 43
-37 58 -37 14 0 33 -9 43 -20 10 -11 27 -22 38 -26 11 -3 30 -18 43 -33 16
-20 32 -27 60 -28 21 -1 43 -8 48 -15 16 -21 51 -38 79 -38 14 0 27 -7 31 -15
7 -20 46 -19 61 2 9 12 25 16 59 14 34 -1 48 2 52 14 3 8 17 15 29 15 14 0 40
16 64 41 38 39 42 41 72 30 18 -6 51 -11 74 -11 55 0 99 -32 91 -66 -5 -19 -2
-24 14 -24 17 0 18 3 9 27 -11 28 7 51 25 33 15 -15 46 -12 52 5 3 8 14 17 25
20 17 6 17 8 4 21 -8 9 -15 24 -15 35 0 10 -6 19 -14 19 -7 0 -21 11 -30 25
-16 24 -12 31 17 26 7 -1 11 14 8 37 -1 6 3 12 9 12 19 0 10 20 -13 29 -21 8
-24 16 -23 63 1 44 4 53 18 52 20 -2 18 16 -9 91 -8 22 -15 47 -16 55 -1 8
-12 21 -24 28 -14 8 -23 22 -23 37 0 29 -18 43 -26 20 -4 -8 -15 -20 -26 -26
-16 -9 -26 -7 -49 10 -16 12 -45 22 -68 23 -33 1 -42 6 -51 28 -10 23 -17 27
-62 29 -29 1 -56 5 -62 9 -6 3 -25 5 -43 3 -17 -1 -41 2 -52 8 -25 14 -114 -3
-132 -25 -6 -8 -21 -14 -32 -14 -11 0 -26 -8 -33 -17 -7 -10 -14 -13 -14 -7 0
6 -10 9 -24 7 -17 -4 -27 1 -36 16 -13 26 -4 61 16 61 16 0 19 36 4 45 -5 3
-10 16 -10 29 0 21 7 24 68 32 62 8 68 11 82 41 8 18 18 33 23 33 9 0 87 50
105 67 7 7 22 13 32 13 26 0 50 27 50 56 0 15 6 24 16 24 30 0 85 32 80 47 -8
20 15 25 62 14 34 -7 42 -6 42 5 0 8 9 14 19 14 11 0 23 5 26 10 17 28 75 -7
75 -45 0 -17 1 -17 19 -1 22 20 26 16 35 -36 4 -21 10 -38 14 -39 4 -1 26 -2
50 -3 36 -2 41 0 36 16 -4 14 0 18 16 18 16 0 20 5 16 15 -8 22 21 19 33 -4 8
-14 7 -20 -3 -24 -7 -3 -16 -24 -20 -46 -5 -32 -11 -41 -26 -41 -12 0 -20 -7
-20 -17 0 -10 -3 -27 -5 -38 -7 -27 59 -62 81 -44 11 9 15 6 20 -20 7 -33 14
-37 43 -21 18 9 39 -5 79 -54 8 -10 21 -14 36 -10 13 3 26 2 29 -4 4 -5 20 -7
38 -4 29 4 31 7 26 37 l-5 33 31 -13 c17 -7 34 -22 39 -34 8 -21 48 -30 48
-10 0 6 9 8 21 4 20 -7 21 -5 16 24 -5 24 -3 31 10 31 21 0 11 52 -17 82 -22
24 -26 43 -10 53 12 8 1 37 -22 53 -14 10 -16 18 -8 32 13 25 13 30 -3 30 -7
0 -21 -9 -30 -21 -14 -16 -25 -19 -45 -14 -46 11 -66 42 -67 105 -1 36 -8 66
-19 81 l-17 24 -20 -25 c-19 -22 -19 -25 -4 -36 14 -11 14 -13 0 -28 -20 -20
-31 -20 -42 -2 -11 18 -47 36 -72 36 -23 0 -29 -28 -10 -47 8 -8 8 -13 0 -18
-6 -3 -14 2 -18 12 -3 10 -15 30 -25 45 -10 14 -18 33 -18 42 0 9 -7 16 -16
16 -10 0 -14 7 -12 22 3 25 28 37 28 14 0 -10 6 -13 15 -10 10 4 13 13 10 25
-4 13 -1 19 9 19 20 0 21 19 2 26 -11 4 -13 12 -6 28 6 17 4 25 -12 35 -21 13
-19 48 8 108 8 17 11 39 8 48 -5 13 -2 15 18 10 19 -5 27 -1 36 19 10 22 9 26
-6 26 -15 1 -16 2 -1 13 14 11 14 14 2 25 -11 11 -11 17 -3 27 7 8 9 19 6 24
-11 18 5 60 20 54 8 -3 14 0 14 5 0 6 8 13 18 16 23 8 41 49 30 70 -5 9 -5 16
-1 16 5 0 14 13 20 29 10 28 9 29 -10 22 -12 -5 -24 -17 -27 -27 -10 -36 -42
-64 -67 -58 -24 6 -153 -43 -153 -58 0 -5 -6 -8 -14 -8 -7 0 -25 -9 -40 -21
-17 -13 -33 -18 -44 -14 -12 5 -13 9 -4 12 18 7 14 19 -7 19 -10 0 -17 -5 -15
-11 3 -7 -14 -10 -46 -10 -42 0 -49 -3 -44 -17 4 -13 -1 -17 -26 -16 -16 1
-35 7 -40 13 -6 7 -20 10 -32 7 -13 -3 -24 1 -30 11 -18 32 -95 77 -133 77
-20 0 -34 4 -31 9 3 4 -3 16 -13 25 -18 17 -21 15 -64 -26 -25 -24 -47 -52
-49 -63 -2 -11 -11 -19 -21 -19 -9 1 -17 -4 -17 -12 0 -8 -10 -14 -24 -14 -13
0 -29 -7 -36 -15 -7 -8 -19 -15 -27 -15 -7 0 -16 -6 -19 -14 -3 -7 -22 -19
-44 -26 -21 -7 -44 -23 -51 -36 -7 -13 -16 -24 -21 -24 -4 0 -8 -7 -8 -15 0
-26 -106 -125 -134 -125 -35 0 -56 -10 -56 -26 0 -8 -4 -14 -8 -14 -5 0 -14
-12 -21 -26 -9 -20 -15 -23 -25 -15 -7 6 -29 13 -49 15 -34 5 -36 4 -25 -14
15 -24 -3 -67 -34 -79 -14 -5 -17 -10 -10 -15 15 -9 16 -56 1 -56 -6 0 -8 -7
-4 -17 5 -15 4 -16 -6 -5 -20 19 -31 14 -19 -7 15 -29 13 -71 -5 -71 -9 0 -12
-6 -8 -16 3 -8 11 -13 18 -10 28 10 59 -43 50 -86 -5 -22 -11 -28 -23 -22 -32
13 -62 16 -62 6 0 -5 -11 -12 -25 -15 -18 -3 -29 1 -36 14 -5 10 -13 18 -17
17 -4 -1 -15 2 -24 6 -10 5 -42 0 -74 -10 -62 -19 -70 -20 -101 -10 -18 6 -23
1 -34 -29 -14 -39 -38 -46 -46 -15 -3 12 -11 19 -17 17 -15 -5 -14 -33 2 -29
6 1 12 -2 12 -8 0 -5 -4 -10 -10 -10 -5 0 -10 -7 -10 -15 0 -10 -14 -17 -40
-21 -55 -9 -52 -47 6 -63 18 -5 30 -15 32 -28 3 -23 -25 -40 -42 -23 -7 7 -5
10 7 10 9 0 17 7 17 15 0 18 -16 20 -23 3 -4 -9 -14 -4 -31 15 -14 15 -31 27
-37 27 -7 0 -4 6 6 14 16 11 17 17 7 29 -14 16 -6 47 11 47 6 0 20 -9 32 -20
19 -18 24 -19 34 -7 13 16 4 50 -11 41 -12 -8 -41 32 -48 66 -4 22 -11 25 -48
27 -46 2 -72 20 -72 52 0 12 1 21 3 21 1 0 27 -7 57 -15 30 -8 56 -15 57 -15
1 0 3 8 5 18 2 12 10 7 28 -23 18 -29 26 -35 28 -23 5 27 43 34 61 12 22 -26
75 -21 66 7 -4 11 -2 19 5 19 7 0 10 6 7 14 -3 7 1 24 10 35 17 26 17 26 -19
35 -17 4 -32 1 -41 -8 -12 -13 -17 -13 -35 0 -13 9 -23 11 -27 4 -4 -6 -22 -2
-47 11 -22 11 -38 16 -34 11 3 -5 -3 -25 -13 -46 -13 -25 -21 -32 -25 -21 -3
8 -13 15 -23 15 -15 0 -15 3 5 18 l23 18 -27 29 c-21 23 -27 39 -28 85 -2 43
-8 62 -24 78 -12 12 -22 27 -22 32 0 6 -12 21 -27 34 l-26 23 22 22 c12 12 29
20 37 17 9 -3 12 -1 9 4 -3 6 5 10 19 10 29 0 33 14 12 36 -17 17 -26 18 -26
3 0 -11 -24 -39 -34 -39 -4 0 -1 10 6 21 10 17 10 23 1 26 -19 7 -16 21 6 28
12 4 19 15 19 33 0 46 -7 70 -20 69 -33 -1 -45 6 -66 41 -13 21 -39 48 -58 61
-18 13 -34 27 -34 30 0 15 -75 94 -110 116 -25 16 -42 37 -54 68 -12 31 -24
47 -40 51 -13 3 -31 17 -40 31 -9 14 -21 25 -27 25 -6 0 -21 8 -34 18 -13 11
-58 25 -99 32 -84 14 -127 5 -147 -33 -8 -14 -8 -18 0 -13 6 4 14 0 17 -8 3
-9 12 -16 19 -16 16 0 26 -25 19 -45 -4 -8 -13 -15 -21 -15 -8 0 -11 -5 -7
-12 4 -6 -1 -17 -10 -24 -17 -12 -17 -14 -2 -36 9 -12 16 -30 16 -40 0 -20
-26 -24 -33 -5 -4 10 -6 10 -6 0 -2 -23 -50 -13 -83 17 -18 16 -27 30 -20 30
9 0 9 7 -3 30 -15 29 -15 32 5 57 27 35 26 61 -5 69 -14 3 -25 10 -25 15 0 5
-18 28 -41 51 -61 65 -79 92 -69 108 14 22 91 -13 113 -51 11 -21 22 -29 33
-25 8 3 25 -1 38 -9 12 -8 25 -12 29 -9 12 12 -16 52 -49 67 -19 9 -34 23 -34
31 0 9 -10 20 -21 27 -17 9 -19 13 -8 20 10 6 11 11 2 20 -8 8 -13 6 -18 -10
-3 -12 -11 -19 -16 -16 -5 4 -9 2 -9 -3 0 -16 -38 -21 -56 -8 -15 12 -15 15 6
39 17 19 30 25 45 21 20 -5 22 -2 18 20 -5 22 -2 26 20 26 14 0 36 -4 49 -9
21 -8 24 -6 26 15 1 16 -5 27 -16 31 -26 9 -62 45 -62 61 0 8 -15 29 -34 46
l-33 32 39 -1 c27 -1 48 -8 63 -23 22 -21 23 -21 18 -2 -3 11 -11 20 -17 20
-13 0 -51 37 -57 56 -2 6 -18 1 -39 -13z m250 -1073 c0 -5 -2 -10 -4 -10 -3 0
-8 5 -11 10 -3 6 -1 10 4 10 6 0 11 -4 11 -10z m27 -256 c-3 -3 -12 -4 -19 -1
-8 3 -5 6 6 6 11 1 17 -2 13 -5z m570 -120 c2 -5 -6 -10 -17 -11 -20 -2 -45
29 -33 41 7 7 45 -16 50 -30z m2050 -22 c7 -5 9 -13 3 -21 -4 -8 -7 -19 -6
-25 2 -6 1 -8 -1 -3 -3 4 -11 7 -18 7 -18 0 -28 32 -13 42 16 10 20 10 35 0z
m142 -6 c9 -10 8 -15 -3 -19 -18 -7 -14 -73 5 -69 8 2 16 8 19 13 3 5 22 12
40 15 19 4 32 3 28 -1 -4 -5 -3 -14 3 -21 7 -9 7 -19 -1 -34 -12 -21 -26 -22
-74 -4 -11 4 -16 1 -16 -10 0 -9 -3 -16 -6 -16 -18 0 -72 43 -82 65 -6 14 -16
25 -22 25 -6 0 -9 4 -5 9 3 5 21 7 40 4 32 -5 35 -4 35 19 0 38 18 49 39 24z
m51 -186 c0 -5 -5 -10 -11 -10 -5 0 -7 5 -4 10 3 6 8 10 11 10 2 0 4 -4 4 -10z
m40 -30 c0 -5 -4 -10 -10 -10 -5 0 -10 5 -10 10 0 6 5 10 10 10 6 0 10 -4 10
-10z m-1306 -31 c-8 -13 -24 -1 -24 18 0 13 3 13 15 3 8 -7 12 -16 9 -21z
m-64 -29 c0 -5 -4 -10 -9 -10 -6 0 -13 5 -16 10 -3 6 1 10 9 10 9 0 16 -4 16
-10z m60 -21 c0 -5 -4 -9 -10 -9 -5 0 -10 7 -10 16 0 8 5 12 10 9 6 -3 10 -10
10 -16z m107 -161 c-3 -8 -6 -5 -6 6 -1 11 2 17 5 13 3 -3 4 -12 1 -19z m-557
-57 c0 -6 -4 -12 -8 -15 -5 -3 -9 1 -9 9 0 8 4 15 9 15 4 0 8 -4 8 -9z m-190
-111 c0 -5 -4 -10 -10 -10 -5 0 -10 5 -10 10 0 6 5 10 10 10 6 0 10 -4 10 -10z
m157 -32 c-3 -8 -6 -5 -6 6 -1 11 2 17 5 13 3 -3 4 -12 1 -19z m-1336 -26
c-13 -4 -41 16 -41 29 0 5 12 2 26 -8 15 -9 21 -19 15 -21z m-21 -22 c-7 -4
-14 -18 -15 -31 -4 -38 -4 -39 -20 -39 -17 0 -20 16 -5 25 6 3 10 19 10 35 0
24 3 27 21 23 14 -4 17 -8 9 -13z"/>
<path d="M9517 10258 c-4 -14 4 -31 28 -55 19 -19 35 -38 37 -42 5 -10 66 -51
78 -51 5 0 10 -9 10 -20 0 -11 5 -20 11 -20 6 0 8 9 4 20 -6 19 3 25 29 21 14
-3 36 21 36 39 0 9 -9 25 -20 35 -11 10 -20 24 -20 31 0 7 -6 11 -14 8 -8 -3
-25 0 -38 7 -12 7 -39 14 -58 16 -19 2 -45 10 -56 18 -20 13 -22 12 -27 -7z"/>
<path d="M8490 10259 c0 -5 5 -7 10 -4 6 3 10 8 10 11 0 2 -4 4 -10 4 -5 0
-10 -5 -10 -11z"/>
<path d="M9961 10206 c-10 -12 -8 -13 8 -9 12 3 18 9 15 14 -7 12 -10 11 -23
-5z"/>
<path d="M10010 10111 c0 -5 7 -11 15 -15 8 -3 15 -1 15 3 0 5 -7 11 -15 15
-8 3 -15 1 -15 -3z"/>
<path d="M7933 10064 c0 -8 6 -14 14 -14 7 0 13 4 13 9 0 5 -6 11 -13 14 -8 3
-14 -1 -14 -9z"/>
<path d="M9706 10065 c4 -8 8 -15 10 -15 2 0 4 7 4 15 0 8 -4 15 -10 15 -5 0
-7 -7 -4 -15z"/>
<path d="M9367 10032 c-15 -16 -24 -31 -20 -35 3 -4 0 -7 -7 -7 -24 0 12 -29
39 -32 23 -3 25 0 25 49 1 29 -2 53 -5 53 -3 0 -17 -13 -32 -28z"/>
<path d="M9436 9943 l-26 -22 26 -18 c14 -10 45 -32 69 -50 24 -17 45 -30 47
-28 2 3 19 -9 37 -25 26 -24 32 -26 29 -12 -2 11 3 26 10 35 11 13 8 21 -25
55 -21 21 -50 42 -64 45 -15 4 -29 16 -32 26 -6 26 -37 23 -71 -6z"/>
<path d="M10790 9753 c0 -12 14 -38 30 -57 23 -26 28 -37 18 -43 -29 -18 -12
-97 23 -106 17 -5 19 -2 13 16 -4 12 -8 31 -8 42 -1 11 -5 25 -9 32 -4 7 -1
16 9 21 14 8 13 11 -5 33 -11 13 -31 38 -45 54 -24 28 -25 29 -26 8z"/>
<path d="M10905 9530 c-11 -4 -30 -10 -42 -15 -13 -4 -20 -11 -18 -16 3 -4 12
-6 20 -2 8 3 15 0 15 -7 0 -16 41 -49 62 -50 9 0 19 -4 22 -9 7 -10 44 -3 51
10 8 12 -17 49 -33 49 -7 0 -16 8 -19 18 -6 17 -23 33 -33 31 -3 -1 -14 -4
-25 -9z"/>
<path d="M10955 9410 c3 -6 -3 -10 -14 -10 -11 0 -29 -12 -41 -27 -12 -16 -26
-29 -31 -29 -5 -1 -11 -2 -14 -3 -3 0 2 -12 11 -26 16 -24 13 -40 -7 -40 -5 0
-9 -4 -9 -10 0 -5 4 -10 10 -10 15 0 39 -38 40 -62 0 -12 9 -27 19 -33 21 -11
22 -30 3 -52 -10 -13 -5 -18 28 -30 36 -15 42 -15 79 4 42 21 50 35 29 56 -23
23 10 13 39 -12 33 -28 67 -21 39 7 -9 9 -19 31 -23 49 -3 18 -12 42 -20 53
-7 11 -13 26 -13 33 0 8 -15 32 -32 55 -18 23 -38 51 -43 61 -6 10 -21 23 -33
27 -15 6 -21 5 -17 -1z"/>
<path d="M11272 9039 c-17 -27 -11 -33 14 -15 13 10 16 18 9 25 -7 7 -15 4
-23 -10z"/>
<path d="M11164 9035 c3 -8 0 -17 -5 -21 -6 -3 -9 -19 -6 -34 3 -14 -1 -39 -9
-54 -16 -32 -19 -50 -3 -23 8 14 14 16 25 6 12 -9 22 -4 55 28 l41 41 -24 21
c-12 12 -36 28 -51 36 -25 13 -28 13 -23 0z"/>
<path d="M9796 8865 c6 -23 -28 -95 -44 -95 -4 0 -8 -18 -9 -39 -2 -35 1 -40
25 -46 15 -5 36 -8 46 -9 12 -1 20 -10 23 -25 3 -20 0 -22 -22 -17 -23 6 -25
4 -20 -16 4 -18 -2 -28 -31 -46 -20 -13 -42 -21 -51 -18 -8 4 -26 -6 -42 -24
-19 -21 -30 -27 -37 -20 -8 8 -19 8 -38 0 -35 -13 -83 -13 -91 0 -8 13 -61 13
-84 0 -14 -7 -22 -3 -40 20 -12 17 -28 30 -36 30 -8 0 -16 6 -17 13 0 6 -2 17
-2 22 -1 6 -10 20 -21 31 -11 11 -24 28 -30 37 -5 9 -22 19 -36 22 -22 5 -27
2 -32 -17 -5 -18 -9 -20 -19 -10 -19 19 -63 14 -89 -9 -13 -11 -18 -18 -11
-14 14 7 17 -11 2 -20 -5 -3 -10 -19 -10 -35 0 -54 -26 -41 -36 18 -3 19 -25
42 -39 42 -19 0 -45 34 -45 59 0 12 -7 36 -16 52 -10 20 -12 35 -6 42 5 7 12
22 16 33 5 18 2 22 -19 26 -20 4 -24 2 -20 -11 3 -11 -6 -28 -25 -46 -21 -20
-30 -38 -30 -61 0 -37 -14 -51 -58 -60 -24 -5 -32 -12 -32 -28 0 -12 -5 -27
-12 -34 -7 -7 -9 -12 -5 -12 3 0 2 -12 -3 -26 -7 -16 -7 -23 0 -19 6 3 10 -1
10 -10 0 -9 -4 -14 -9 -11 -5 3 -14 -1 -21 -9 -9 -11 -6 -21 15 -49 19 -25 26
-44 24 -69 -2 -19 2 -41 8 -48 6 -8 14 -30 17 -49 12 -61 26 -80 54 -73 15 3
27 1 33 -8 14 -22 11 -29 -11 -29 -23 0 -28 -19 -5 -21 54 -5 118 -3 121 3 3
4 -1 5 -9 2 -10 -4 -13 3 -9 27 3 23 7 28 14 18 7 -10 8 -7 4 11 -4 20 0 28
21 38 15 6 37 12 50 12 13 0 23 5 23 10 0 6 11 15 24 20 19 7 23 14 19 30 -5
21 -3 20 56 -10 34 -17 64 -37 68 -45 9 -24 36 -19 28 5 -10 31 0 24 30 -21
20 -30 30 -38 38 -30 6 6 40 11 75 11 56 0 63 2 52 15 -8 9 -9 15 -2 15 6 0
17 -9 26 -21 16 -23 56 -19 56 7 0 21 66 87 79 80 6 -4 11 -2 11 3 0 6 7 11
15 11 8 0 15 5 15 10 0 21 16 9 40 -30 23 -37 50 -53 50 -30 0 5 7 7 16 3 10
-4 20 0 26 10 5 10 19 17 32 17 25 0 36 21 36 69 0 19 4 22 21 18 15 -4 19 -2
15 9 -3 8 1 14 9 14 18 0 28 17 18 33 -4 6 -8 19 -8 27 0 8 -14 23 -30 35 -28
19 -37 55 -14 55 12 0 12 57 -1 65 -13 8 -13 52 0 57 6 2 13 26 16 54 5 48 3
53 -26 78 -17 14 -43 26 -56 26 -21 0 -24 -3 -18 -25z m-861 -595 c3 -5 2 -10
-4 -10 -5 0 -13 5 -16 10 -3 6 -2 10 4 10 5 0 13 -4 16 -10z"/>
<path d="M10110 8831 c0 -5 8 -11 18 -15 9 -3 24 -9 32 -12 8 -3 4 4 -10 15
-27 22 -40 26 -40 12z"/>
<path d="M11112 8759 c2 -7 14 -13 26 -14 29 -2 22 19 -7 23 -15 3 -22 -1 -19
-9z"/>
<path d="M9028 8688 c12 -12 24 -19 28 -15 10 10 -16 37 -34 37 -13 0 -12 -4
6 -22z"/>
<path d="M9040 8240 c0 -5 -9 -10 -20 -10 -23 0 -26 -10 -8 -28 15 -15 32 -16
23 -2 -3 6 1 10 9 10 9 0 14 8 13 20 -1 20 -17 29 -17 10z"/>
<path d="M9504 8214 c3 -9 6 -18 6 -20 0 -2 5 -4 11 -4 8 0 9 4 0 13 -6 8 -8
17 -4 20 3 4 1 7 -6 7 -8 0 -11 -6 -7 -16z"/>
<path d="M11557 7872 c-10 -10 -17 -24 -17 -30 0 -19 -48 -64 -61 -57 -7 5 -9
1 -5 -12 8 -25 -30 -112 -52 -121 -21 -8 -82 -68 -82 -81 0 -6 -15 -18 -32
-27 -33 -17 -84 -64 -70 -64 18 -1 -35 -30 -54 -30 -25 0 -39 -28 -29 -60 4
-11 2 -20 -4 -20 -6 0 -11 -6 -11 -14 0 -9 -9 -13 -25 -11 -19 2 -25 -2 -25
-17 0 -10 -7 -21 -15 -24 -8 -4 -15 -17 -15 -30 0 -13 -6 -24 -13 -24 -11 0
-13 -11 -9 -42 3 -24 6 -56 6 -73 1 -18 10 -37 24 -48 12 -10 22 -28 22 -40
l0 -21 19 21 c12 13 18 29 14 42 -4 15 1 23 22 33 24 11 29 10 41 -7 8 -10 14
-14 14 -9 0 6 -5 15 -12 22 -6 6 -9 14 -6 18 9 9 42 -4 85 -33 21 -14 51 -27
67 -28 16 -1 35 -10 43 -20 11 -16 16 -17 38 -5 23 12 30 27 26 57 -1 9 46 11
111 4 8 -1 57 -53 93 -98 15 -19 21 -34 15 -38 -5 -3 -10 -16 -10 -28 0 -12
-11 -30 -25 -42 -21 -16 -25 -26 -19 -51 5 -27 12 -33 43 -38 23 -4 40 -1 46
7 6 6 32 13 60 14 34 2 54 8 63 20 10 14 16 15 30 7 26 -17 42 -6 42 29 0 29
4 34 48 49 36 13 53 27 75 61 15 24 27 52 27 61 0 9 5 16 10 16 6 0 10 7 10
16 0 10 6 14 14 11 27 -11 38 18 18 44 -26 33 -34 69 -16 69 18 0 17 20 -1 44
-8 10 -12 23 -9 27 3 5 1 9 -4 9 -5 0 -14 12 -21 27 -14 31 -6 39 47 49 22 4
31 11 28 20 -3 7 4 39 16 71 11 32 20 74 20 93 -2 49 5 65 22 51 11 -9 12 -7
9 12 -2 12 -15 27 -29 34 -21 10 -28 8 -49 -13 -25 -25 -50 -31 -60 -15 -14
23 -68 40 -109 35 -38 -6 -43 -4 -54 20 -10 22 -18 26 -47 24 -19 -1 -37 1
-41 5 -4 4 -14 -2 -21 -13 -8 -11 -18 -18 -23 -15 -12 7 -51 -13 -66 -33 -9
-12 -13 -12 -25 -1 -8 8 -27 21 -42 29 -22 11 -25 16 -13 20 10 3 12 10 7 19
-5 8 -7 20 -4 26 2 7 -5 30 -16 51 -12 23 -18 47 -15 61 7 28 3 29 -19 5z"/>
<path d="M9875 7790 c3 -5 8 -10 11 -10 2 0 4 5 4 10 0 6 -5 10 -11 10 -5 0
-7 -4 -4 -10z"/>
<path d="M9900 7795 c0 -2 5 -15 11 -29 15 -33 36 -41 34 -13 -2 12 -8 21 -14
20 -6 -2 -11 4 -11 12 0 8 -4 15 -10 15 -5 0 -10 -2 -10 -5z"/>
<path d="M9970 7625 c0 -14 6 -25 13 -25 20 0 25 9 20 31 -8 28 -33 24 -33 -6z"/>
<path d="M10225 7539 c-11 -16 -1 -19 13 -3 7 8 8 14 3 14 -5 0 -13 -5 -16
-11z"/>
<path d="M10777 7389 c-3 -11 -14 -15 -36 -14 -17 1 -31 -2 -31 -6 0 -5 -7 -6
-15 -3 -8 3 -24 -1 -37 -10 -37 -26 -68 -21 -74 14 -5 25 -11 30 -35 30 -38 0
-37 -9 6 -43 19 -15 35 -34 35 -41 0 -8 23 -37 50 -66 28 -29 50 -58 50 -65 0
-6 -11 -34 -25 -61 -29 -57 -32 -94 -9 -94 11 0 14 6 9 22 -6 16 -4 20 8 15 9
-3 17 -1 20 6 3 9 10 9 31 -1 39 -18 126 -16 126 3 0 8 14 22 31 31 28 14 31
19 26 53 -6 49 12 74 51 70 16 -2 37 3 46 10 15 13 15 15 -3 32 -11 10 -28 32
-37 49 -10 16 -24 30 -31 30 -7 0 -21 4 -31 9 -9 5 -30 13 -47 18 -16 5 -29
14 -28 20 4 17 -46 10 -50 -8z"/>
<path d="M10690 7012 c0 -26 7 -45 20 -57 16 -15 18 -21 7 -34 -11 -14 -10
-15 6 -1 14 10 18 22 14 47 -3 18 -2 33 3 33 5 0 -1 11 -14 25 -31 34 -36 32
-36 -13z"/>
<path d="M10780 7007 c-22 -17 -21 -66 1 -88 10 -10 21 -19 24 -19 3 0 12 0
21 0 9 0 18 -9 21 -20 8 -29 23 -24 23 8 0 15 -10 38 -21 52 -11 14 -17 19
-13 11 5 -9 3 -12 -5 -7 -6 4 -9 11 -7 15 3 4 -3 19 -12 33 -14 21 -20 24 -32
15z"/>
<path d="M11608 6943 c-10 -2 -18 -9 -18 -14 0 -6 8 -5 20 1 11 6 20 13 20 15
0 3 -1 4 -2 4 -2 -1 -11 -3 -20 -6z"/>
<path d="M10668 6893 c6 -2 18 -2 25 0 6 3 1 5 -13 5 -14 0 -19 -2 -12 -5z"/>
</g>
</svg>
