<svg version="1" xmlns="http://www.w3.org/2000/svg" width="744.706" height="639.702" viewBox="0 0 558.529 479.776"><g fill="#222"><path d="M360.19 1.14c.3.9.2 1.6-.4 1.6-.6 0-1.7.3-2.5.6s-2.1-.2-3-1c-2-2.1-4.7-1-4.7 1.9 0 1.2-1.1 3.4-2.6 4.8-2.4 2.5-2.5 2.5-.5 3.2 1.6.5 2.1 1.5 2.1 4 0 1.9-.4 3.6-1 4-.5.3-.7 1.2-.4 1.9.3.8-.3 1.7-1.5 2.1-1.1.3-1.8 1.2-1.5 1.9.3.8-.4 1.6-1.9 2-2.3.5-3.8 3.2-4.2 7.7-.1.9-.5 2.1-.8 2.7-.4.5.3 1.2 1.4 1.5 1.4.4 2 1.1 1.6 2.1-.4.9.1 1.7 1.4 2.1 1.1.4 1.8 1.2 1.6 1.9-.6 1.5 3 4 5.7 4 1.1.1 2.1.7 2.4 1.5.3.8 0 1.1-.7.7-.6-.4-1.1-.2-1.1.4 0 .8-.7.9-1.7.5s-2.4-1-3.2-1.3c-.8-.3-1.2-.1-.9.4.4.5-1.2.9-3.5.9-3.5 0-4.2.3-4.7 2.4-.4 1.9-1.6 2.7-5 3.5-4 1-4.5 1.4-4.4 3.8 0 1.6-.4 2.8-.8 2.8s-.8-.5-.8-1c0-.6-.7-1-1.5-1s-1.5-.4-1.5-.8c0-.5-1-.8-2.2-.8-2.8.1-3.7-3.3-1.3-4.6 1.3-.8 1.4-1.3.4-2.4-.9-1.1-1.5-1.2-2.5-.3-1.1.9-1.8.8-2.9-.1-1.3-1.1-1.3-1.4.2-2.6 1.7-1.2 1.7-1.3.1-1.9-1-.4-1.8-1.5-1.8-2.4 0-2.3-1.9-4.1-3.6-3.4-.8.3-1.8-.5-2.5-1.9-.8-1.9-1.8-2.4-4.5-2.3-2.5 0-3.6-.4-4-1.7-.7-2.4-3.6-3.8-7.6-3.8-5 0-9.7-.6-10.5-1.3-.3-.4-1.5 0-2.4.9-1.9 1.7-7.8 2.2-11.7 1-1.7-.6-2.2-.3-2.2 1.1-.1 2.5-2.6 5.6-4 4.8-.6-.4-1.1-.1-.9.6.6 5.1 0 5.9-4.6 5.9h-4.6l.7 3.5c.8 4.4-.9 6.9-3.7 5.5-1.2-.7-3.3-.7-6.1-.1-2.7.6-4.7.6-5.3 0-1.5-1.5-4-1.1-6.8 1.1-1.4 1.1-3.2 2-4 2-.8 0-2 .7-2.7 1.5-1.7 2.1-6.3 1.9-7.7-.4-1.4-2.2-10.3-3.8-11.4-2-.5.9-1.6.5-3.6-1.1l-2.8-2.2-.3 2.8c-.4 3.2-3 6.7-4.3 5.8-.5-.3-.9-.4-1-.2 0 .2-.3 2.3-.5 4.7-.3 2.5-1.3 5.6-2.3 7-1 1.4-1.6 3.2-1.4 3.8.6 1.6-.9 1.7-2.4.2-1.7-1.7-9.2.8-12 4.1-1.3 1.6-3.4 3-4.6 3.2-1.4.2-2.3 1.1-2.5 2.5-.2 1.6-1.4 2.6-4.3 3.4-3.3 1.1-3.9 1.6-3.9 4.1 0 2.2-.4 2.8-2.3 2.8-1.2 0-2.9.9-3.7 2-.9 1.2-2.1 1.8-3.2 1.4-2.6-.8-2.4 3.1.3 4.9 1.7 1.3 1.9 1.9 1 3.6-.7 1.2-1.7 2.1-2.2 2.1-.6 0-.8.7-.5 1.6.6 1.6-2 6.4-3.6 6.4-2.3 0-7.8 5.4-7.8 7.6 0 2.5-3.7 5.7-5.4 4.6-1.6-1-10.6-1-10 0 .3.4.1.8-.5.8s-1.3 1.1-1.7 2.5c-.5 2-.9 2.3-2 1.4-1.1-.9-1.4-.8-1.4.5 0 .9-.5 1.6-1 1.6-.8 0-.8.6-.1 1.7.5 1 1.8 1.8 2.8 1.8 1.2 0 1.8.7 1.8 2.1.1 1.2.7 2.9 1.5 3.8 1.7 2.1 2.2 6.6.9 8.2-.7.9-.1 1.8 2.1 3.4 1.6 1.2 3 3 3 4.1 0 1.1 1.1 3.1 2.4 4.4 2.6 2.6 3.4 5.9 2.1 8.7-.8 2 0 4.8 1.4 4.8.5 0 1.6-.6 2.4-1.4.8-.8 2-1.4 2.8-1.4.8.1 2.8 0 4.5 0 2.8-.2 3-.4 2.6-3.2-.3-1.8 0-3 .7-3 .6 0 1.1 1.3 1.1 2.9 0 1.7.5 3.3 1 3.6.6.3 1 0 1-.8 0-.9.9-1.2 3-.9 2.2.3 3 0 3-1.1 0-.8.7-2 1.4-2.7 1.1-.8 1.2-1.8.5-3.6-1.3-3.6-1.1-4.4 1.1-4.4 1.3 0 2.2-.9 2.6-2.5.3-1.4 1-2.5 1.4-2.5.5 0 .6-.8.3-1.8-.3-1.3.5-2.1 3.2-3.1 3.3-1.2 3.7-1.6 3.3-4.2-.3-1.6 0-2.9.5-2.9s.6-.7.3-1.6c-.5-1.4-.2-1.5 2.1-.9 4.8 1.2 8.3.9 9.7-1 1.2-1.6 1.4-1.6 3.4 1 2.3 2.9 2.9 5.1 1.2 4-.5-.3-1 .1-1 1s-.7 3-1.6 4.6c-1.6 3.2-1.2 5.1.7 3.2 1.5-1.5 5.7-.4 6.2 1.8.5 2 7.8 5.8 11 5.9.9 0 2.2-1.1 2.8-2.4l1.1-2.4 5.2 2.3c2.8 1.2 5.1 2.7 5.1 3.3 0 .6.8 1.7 1.7 2.4 2 1.6.9 3.5-3.5 5.7-2.4 1.3-2.9 1.3-4-.1-1.6-2-7.4-3.1-8.1-1.5-.3.8-1.1.5-2.4-1-1.2-1.4-2.3-1.8-3.2-1.3-.8.5-2.2.3-3.4-.6-1.1-.8-2.4-1.4-2.8-1.4-.9 0 1.2 4.1 2.5 5.1.5.3.2 1.2-.6 2-1.6 1.7-2.9 6.3-2 7.3.4.3.8 1.6 1 2.7.2 1.1.9 3.2 1.7 4.8.9 1.7 1.1 3.2.5 4.2-1.3 2.1-1.1 2.6 1.2 3.2 1.2.3 1.8 1 1.4 1.6-.4.7.7 1.1 3 1.1 3.7 0 9.5 3.2 9.5 5.2 0 .6-.7.5-1.6-.3-1.5-1.2-1.6-1.1-.9 1.1 1.2 4.2 2.3 4.5 4.2 1.2 1-1.8 2.1-3.2 2.4-3.2 1.7 0 3.2 12.7 1.6 13.3-.5.1 0 2.1 1.2 4.2 1.8 3.4 1.9 4.1.6 4.3-.8.2-1.5.8-1.5 1.3 0 1.4 4.5 8.1 6.6 10 1.1.9 2.4 2.5 3 3.5 2 3.2 3.8.4 2.6-3.9-.9-3.4-.8-3.6 2.1-5.1 2.3-1.1 3.5-1.2 4.5-.4.9.8 1 1.3.2 1.8-1.7 1.1-.2 5.5 3.5 10.1 2 2.6 3.1 4.9 2.8 6-.3 1.1 0 1.9.6 1.9s1.1 1.3 1.1 3c0 3.4-.7 3.8-2.5 1.3-1.1-1.5-1.5-1.5-3-.3s-1.9 1.2-3-.4c-1.3-1.7-1.5-1.6-4.3 1.6-2.9 3.1-5.9 3.5-3.3.4.8-.9 1-2.4.5-3.8-.6-2-.5-2.1.9-1 1.1.9 1.7 1 2.2.2.4-.6 1.3-.9 2.1-.6.8.3 1.4.1 1.4-.4 0-.6-.5-1-1.1-1-.5 0-2.4-1.3-4.1-2.9-2.5-2.3-3.8-2.8-6.3-2.4-2.5.4-3.9-.1-6.6-2.4-4.2-3.6-7.4-5-6.6-2.8.7 1.7-.9 3-1.8 1.5s-2.5-1.2-2.5.5c0 .8-.4 1.5-1 1.5-.5 0-1 .5-1 1.2 0 .6.3.9.6.5.3-.3 1.4.3 2.5 1.4 1.9 1.9 1.8 2-.3 6.3-1.9 4.1-2.4 4.4-5 3.9-1.6-.3-2.8-.1-2.8.5 0 .5-.9.8-2 .5-1.2-.3-2.2.1-2.6 1.1-.3.9-1.8 1.6-3.3 1.6-3.7.1-6.4 2.4-5.7 4.8.9 2.6-1.3 4-2.9 1.9-1.4-1.9-5.5-2.3-5.5-.6 0 .8-1.5 1-4.5.7-5.1-.6-5.4-.1-3 5.5.8 2 1.5 4.4 1.5 5.3 0 1.3-.3 1.4-1.5.4-2.1-1.8-2 .4.5 5.7 1 2.4 1.7 4.3 1.5 4.3-.2 0 .7 1.1 2 2.5 2.4 2.3 3.5 5.2 1.6 4.1-.5-.3-1.1.8-1.3 2.4-.4 2.4-.1 3 1.1 2.9 3.4-.3 8 2.5 8.3 5.1.2 1.5.8 2.4 1.7 2.2.7-.1 2 .3 2.7.9.9.7 4.9 1.2 9.9 1.2 7 0 8.8.4 10.2 1.9.9 1 2.2 1.8 3 1.8 1.8 0 1.7 4.6-.2 5.4-.8.3-1.5 1-1.5 1.5 0 1.1 4.3.2 5.1-1.2.4-.5 1.4-.7 2.3-.4 1.8.7 3.2.5 2.9-.4-.1-.3 1.6-.1 3.8.5 3.6.9 4.3.8 5.4-.8.9-1.2 2.1-1.7 3.5-1.3 3.2.8 8.8-1.1 9.5-3.3.4-1.1 1.3-2 2.2-2 .9 0 1.3-.6.9-1.5-.3-.8-.9-2.2-1.2-3-.3-.8-.1-1.5.6-1.5.6 0 .8-.5.4-1.2-.4-.6-.6-3.3-.5-6 .1-2.8-.3-4.8-.9-4.8-1.5 0-5-3.4-6.4-6.2-.8-1.5-.9-3.4-.4-5.6.7-2.3.6-3.8-.3-4.8-.6-.8-.8-1.4-.4-1.4s-.7-1.6-2.4-3.5c-1.7-2-3.4-4.7-3.7-6-.4-1.5-1.2-2.4-2.2-2.3-.8.2-1.7-.3-1.9-1-.6-1.7 6.7 1.2 8.3 3.3.6.8 1.6 1.5 2.3 1.5 3.9 0 9.4 8.4 9 13.6-.5 4.5.2 6.5 2.5 7.5 1.9.9 2.6 2.2 3.1 5.8.3 2.5.8 5.4 1.1 6.3.3 1-.3 1.9-1.6 2.3-2.3.7-2 3.6.8 6.7.8 1 1.1 1.8.5 1.8-.5 0-.9 1.7-.8 3.7.2 5.5 1.6 11.3 2.7 11.3.5 0 .6-.5.3-1-.4-.6.6-1 2.4-1 1.6 0 3.3.4 3.6 1 1.1 1.7 2.5 1.1 2.5-1.1 0-1.8.4-2 2.5-1.5 2 .5 2.5.3 2.5-1.3 0-1 .7-3.6 1.6-5.6.8-2.1 1.3-4.7 1-5.7-.3-1.4 0-1.8 1-1.4.8.3 1.4.2 1.4-.2s1.4-1.3 3-1.9c3.6-1.4 3.9-3.7.9-8.9-1.1-2-1.9-4.7-1.7-6 .2-1.4-.5-2.9-1.7-3.9-2-1.6-2-1.6.2-1 2.4.7 5.3-2.5 5.3-5.9 0-1.6.3-1.7 1.2-.8.7.7 1.5 1.2 1.9 1.2 1 0 1.8-5 .8-5.6-.4-.2-.6-1.1-.2-2 .3-.8-.3-4.5-1.2-8.3-1.8-6.8-1.8-6.9.3-9.5 3-3.9 4.7-12.8 3-16.3-1.6-3.3-5.4-5.5-8.9-5-2 .2-2.5-.1-2.2-1 .3-.8 1.2-1.2 2.1-.8 1.2.4 1.3-.1.8-2.7-.7-3.4-5-7.7-10.3-10.3-3.2-1.5-8.3-7.8-8.3-10.1 0-.6-1.2-3.2-2.6-5.8-1.4-2.6-2.4-5.5-2.1-6.5.2-1 0-2.5-.4-3.4-.7-1.1-.4-1.7 1.1-2.2 2.3-.7 2.7-3.3.5-4.1-1-.4-1.5-2-1.5-4.5v-3.9l2.3 2.2c1.5 1.6 2.2 3.6 2.3 6.7.2 5.5 3.9 8.6 5.1 4.2.8-3.2 3-3.3 4.1-.1.6 1.6 2 3.4 3.2 4 1.2.7 1.9 1.8 1.6 2.6-.3.8.1 1.4.8 1.4.8 0 1.6-.6 1.9-1.3.6-2 3.7 1.2 3.7 3.9 0 1.6.6 2.4 1.8 2.4 1 0 2.4.6 3.1 1.2 1.1 1.1 1.3.9.8-1s-.2-2.3 1.2-1.9c1.4.3 1.6-.1 1.3-2.4-.3-2.2 0-2.9 1.2-2.9 1 0 1.6-.9 1.6-2.4 0-2.5 1.6-3.4 6.3-3.2 1.7.1 2.7-.3 2.7-1.2 0-1 .8-1.2 2.9-.7 1.6.3 3.2.2 3.5-.4 1.4-2.2 12.2 3.2 17.2 8.6 3.5 3.8 4.9 4.5 11 5.8 9.4 2 10.7 1.9 13.4-1 2.2-2.4 2.4-2.4 3.6-.7 1 1.5 1 2.7 0 6.3-1.3 4.2-1.2 4.5 1.7 8.1 3.1 3.9 8 5.3 9 2.5.3-.9.8-.9 1.6-.1 1 .9.9 1.4-.2 2.5-1.4 1.4-1.2 3.4.5 5.6.8.9 1.4.9 2.9 0s2.4-.8 4.6.4c2.8 1.6 6.6 1.9 7.9.6 1.4-1.3 2.5-.7 3.5 2 .7 1.6 1.3 2.3 1.6 1.5.7-1.7 2.3-.5 2.3 1.9 0 2.1 1.5 2.6 2.6.7.5-.7 1.1-.5 2.1.7 1.3 1.8 1.3 1.8 1.4-.1.1-1 .1-2.4 0-2.9 0-.6 1.3-1.8 3-2.7 2.5-1.5 2.8-2.1 1.9-3.7-.7-1.3-.7-2.2 0-2.6.5-.3 1-2.2 1-4.1 0-4 3.8-10.4 6.1-10.4 2.2 0 3.2-5.9 1.2-6.7-.8-.3-1.2-1.4-.8-2.7.2-1.1.2-1.5-.1-.9-.6 1.4-5.1.8-6.9-.8-.5-.5-1.6-.9-2.5-.9-2.6 0-5.9-7.8-3.8-9.1.9-.6.9-1.1 0-2.2-1-1.2-.8-1.8 1.3-3.1 1.3-.9 3.4-3.4 4.5-5.5l1.9-3.9-4.5-3.9c-6.2-5.2-10.7-12-10-14.9.4-1.3-.2-3.6-1.2-5.4-1.3-2.5-1.4-3.4-.5-3.7.8-.3 1.1-1.4.7-2.9-.5-1.8-.1-2.9 1.2-3.8 2.1-1.6 4.4-1 4.4.9 0 1 .8 1.1 3.5.4 2.6-.8 4-.6 5.7.5 1.6 1 2.8 1.2 3.8.6s1.1-1 .3-1c-.7 0-2-1.4-2.8-3-1-1.9-2-2.8-2.8-2.3-.6.4-4 .8-7.5 1-3.4.1-6.6.5-7.1.8-.5.3-1.3-1.9-1.6-4.8-.6-4.8-.9-5.4-2.8-5.1-4 .4-7.5 2.3-8 4.1-1.7 5.9-1.8 8.3-.4 8.3.8 0 1.8-1 2.2-2.3.5-1.6.8-1.8 1.1-.7.7 2.5 4.3 4.3 5.9 3 .8-.7 1.9-.9 2.5-.5 1.5.9 1.2 3.5-.5 3.5-.8 0-1.5-.5-1.5-1.1 0-.8-.4-.8-1.4.1-.8.6-1.3 1.7-1 2.4.3.8-.4 1.5-1.8 1.8-1.3.3-3.1.9-4 1.3-1.3.5-1.8.3-1.8-.9 0-.9-.5-1.6-1.1-1.6-.6 0-.9-.6-.6-1.3.3-.9-.3-1.3-1.7-1.3-1.2.1-2-.4-1.8-1.2.1-.7.4-2 .5-3 .2-.9.8-2.7 1.5-3.9.7-1.2 1.1-4.6.9-7.5-.2-2.9-.2-5.8 0-6.3.2-.6 2.1-1 4.3-.8l4 .2-1.5-2.9c-2-3.9-1.9-5 .4-5 1.1 0 2.3-.9 2.6-2.1.9-2.8 4.8-2.2 5 .8.1 1.3-.2 2.3-.6 2.3-.3 0-.9 1.1-1.1 2.5-.3 1.4-.1 2.5.3 2.5 1.4 0 1.1 2.8-.3 3.3-1 .3-1 .7-.1 1.7.9.9 1.4.8 2.2-.9.7-1.2 2-2.1 3-2.1 2.3 0 3.4-4.5 1.4-6.1-1.1-1-1-1.7.6-4.5 1.1-1.8 1.7-4.2 1.4-5.3-.3-1.4.4-3.3 2.1-5.5 1.5-2 2.6-4.8 2.6-6.5 0-2.4.4-3.1 1.9-3.1 2.8 0 4.7-2.6 3.1-4.5-.7-.8-.9-1.5-.4-1.5.4 0-.1-.7-1.2-1.5-1.7-1.3-1.7-1.4-.1-1.5.9 0 1.7-.7 1.7-1.5 0-.9 1-1.9 2.3-2.4 2.1-.8 2-.9-1.4-2.4-6.1-2.5-7.9-2.9-7.9-1.7 0 .7-.7 1-1.5.6-.8-.3-1.5-.1-1.5.4 0 1.3-5.6 1.3-8.1 0-1-.6-1.9-1.7-1.9-2.5s-1.1-2.1-2.3-3c-1.3-.8-2.9-2.7-3.5-4-.7-1.4-2.3-3-3.7-3.5-2.2-.8-2.4-1.2-1.3-2.4.7-.7 1.9-1.1 2.5-.9.7.3 1.3 0 1.3-.6s.9-1.1 2-1.1c3.1 0 3-4.8-.3-9.4-1.6-2.3-1.8-3.4-1-5.6.8-2.2.6-3.5-1.3-7.1-1.3-2.4-2.3-5.2-2.4-6.2 0-.9-.5-1.7-1.2-1.7-.9 0-.9-.3 0-1.2.7-.7 1.2-2 1.2-3 0-2.2 2.6-2.4 4.7-.3.8.8 1.8 1.3 2.3 1 .5-.3 1.1.4 1.5 1.5.7 2.1 1.6 2.4 5.3 1.4 1.5-.4 2.2-1.4 2.2-3 0-1.4-.5-2.3-1.2-2.2-.8.2-1.2-.5-1-1.5.2-1.2-.4-2.1-1.8-2.4-1.1-.3-2.7-1.8-3.6-3.4-1.3-2.6-1.3-3 .3-4.9 1-1.1 2.5-2 3.5-2 2.1 0 2.5-3.9.6-5.8-1.7-1.7-2.8-1.5-2.8.4 0 1.1-.5 1.4-1.7.9-1-.4-2.6-.8-3.7-1-1-.3-2.4-1-3.2-1.6-1.2-1-1.3-.9-.8.5zm-9.6 54c0 1.1-1.9 1.5-2.5.6-.3-.5.1-1 .9-1 .9 0 1.6.2 1.6.4zm-35.1 8.2c-.6.8-2.2 1.4-3.5 1.4-1.2 0-3.4.4-4.7.9-2 .8-2.9.6-4.2-.9-1.9-2.1-2.2-2.1 6.2-2 2.3.1 4.4-.4 4.8-1 .3-.6 1.1-.8 1.6-.4.6.4.6 1.1-.2 2zm2.1 1.4c0 .5-.4 1-1 1-.5 0-1-.5-1-1 0-.6.5-1 1-1 .6 0 1 .4 1 1zm11.8 19.6c-.1.5-.9.9-1.6 1-1 .2-1.1-.1-.1-1.2 1.2-1.4 2.4-1.3 1.7.2zm54.2.5c0 .6-.4.7-1 .4-.5-.3-1-1.1-1-1.6 0-.6.5-.7 1-.4.6.3 1 1.1 1 1.6zm-33.6 11.8c.3.5-.1 1.4-.9 2.1-1.3 1-1.5.9-1.5-.9 0-2.1 1.4-2.8 2.4-1.2zm-158.1 42.5c1.1 1.7 1.5 2.6.7 1.9-.8-.6-3.3-1.5-5.4-1.9-3.4-.6-3.7-.9-2.3-1.9 2.6-1.9 4.7-1.4 7 1.9zm55.7 2.8c0 .5-.9 2.1-2 3.5l-2 2.6v-3.2c0-1.7.5-3.1 1.1-3.1.6 0 .8-.7.5-1.6-.5-1.4-.4-1.5.9-.4.8.7 1.5 1.7 1.5 2.2zm65.4-1.7c.8.8 1.9 1.5 2.5 1.5.6 0 1.1.4 1.1 1 0 1.3-2.7 1.3-3.5-.1-.4-.6-1.3-.8-2.1-.5-.8.3-2.1.3-2.9 0-1.2-.5-1.3-1-.4-2 1.5-1.8 3.4-1.8 5.3.1zm-14.9 1.6c1.1 1.7-.1 2.1-1.5.4-.8-.9-.8-1.5-.2-1.5.6 0 1.4.5 1.7 1.1zm-101.5 1.3c0 .3-.4.8-1 1.1-.5.3-1 .1-1-.4 0-.6.5-1.1 1-1.1.6 0 1 .2 1 .4zm159 4.6c0 .5-.4 1-.9 1-.6 0-1.3-.5-1.6-1-.3-.6.1-1 .9-1 .9 0 1.6.4 1.6 1zm-107 5.4c-.5.5-1 1.8-1 2.8 0 1.2-.8 1.8-2.4 1.8-2.3 0-4.1 2.3-3.7 4.7.1.7-.7.9-1.9.6-1.1-.3-2.7 0-3.5.7-1.1.9-2.1.9-4.5-.1l-3-1.4 3.7-3.2c2.2-2 4-3 4.6-2.4.5.5 2.5.1 4.8-1.2 2.9-1.5 3.9-2.7 3.9-4.5 0-2.5 0-2.5 2-.7 1.4 1.3 1.7 2.2 1 2.9zm67-3.3c0 .5.5.7 1.2.3.7-.4.8-.3.4.4-.4.6 0 2.3.9 3.6.9 1.4 1.5 3.7 1.3 5.3-.2 2.3-.8 2.9-3.5 3.1-2.4.2-3.3-.1-3.8-1.7-.5-1.7-1-1.9-2.5-1.1-1.5.8-2.1.6-3-.9-.8-1.6-.6-2.2.9-3.1 1.1-.5 2.3-1.9 2.6-3 .3-1.1 1.3-2 2.1-2s1.4-.5 1.4-1c0-.6.5-1 1-1 .6 0 1 .5 1 1.1zm-89.6 4.5c2 1.9 1.2 3.4-1.7 3.4-1.7 0-2.3-.6-2.5-2.5-.2-2.9 1.8-3.3 4.2-.9zm4.6 3c0 .8-.4 1.2-1 .9-.5-.3-1-1-1-1.6 0-.5.5-.9 1-.9.6 0 1 .7 1 1.6zm60.4.9c-.4.8-1 1.5-1.6 1.5-.5 0-.7.4-.4.9.3.5.1 2.3-.6 4.1-.8 2.5-.8 3.8.1 5.2.7 1.1 1.1 2.1.9 2.1-.2.1-1.7 1-3.5 1.9-3.4 2-4.7 2.3-3.9.9.3-.4-.3-1.6-1.4-2.6-1.5-1.4-1.7-2.1-.9-3.2.6-.7 1.8-1.3 2.6-1.3 1.1 0 1.1-.4.3-2-.9-1.8-.8-2 1.5-2 2 0 2.5-.5 2.5-2.5 0-1.3.8-2.9 1.8-3.4 2.4-1.5 3.2-1.3 2.6.4zm-71.8 8.2c-1.2 1.3-2.5-1.3-1.9-3.7l.7-2.4.9 2.7c.5 1.6.6 3.1.3 3.4zm102.8-1.2c.3.9 0 1.5-.9 1.5s-1.2-.6-.9-1.5c.4-.8.7-1.5.9-1.5.2 0 .5.7.9 1.5zm-52.1 6.6c-1.8 1.8-2.1 1.9-2.6.4-.5-1.1.1-1.8 1.6-2.4 3.1-1.2 3.5-.4 1 2zm-15.2 15.2c-.6.8-.8 1.7-.4 2 .3.4.1.7-.5.7-1.6 0-1.5-2.7.1-3.3 1.9-.8 2-.8.8.6zm2.4 2.7c.3.5.1 1-.4 1-.6 0-1.1-.5-1.1-1 0-.6.2-1 .4-1 .3 0 .8.4 1.1 1zm-13.5 71.8c0 1.5-.2 1.5-1 .2-1.3-2-1.3-3.3 0-2.5.6.3 1 1.4 1 2.3zm-30.3 50.6c1.2 1.2-.8 3.6-2.9 3.5-2.5 0-7.1-1.7-5.1-1.8.6-.1.9-1 .6-2-.4-1.7-.1-1.9 3.2-1.1 2 .5 3.9 1.1 4.2 1.4z"/><path d="M316.59 157.34c0 .8.5 1.2 1 .9.6-.4.8-1.1.5-1.6-.9-1.4-1.5-1.1-1.5.7zM338.89 1.44c.9.2 2.3.2 3 0 .6-.3-.1-.5-1.8-.5-1.6 0-2.2.2-1.2.5zM344.39 2.44c.7.3 1.6.2 1.9-.1.4-.3-.2-.6-1.3-.5-1.1 0-1.4.3-.6.6zM379.59 6.74c-1.3.9-1.3 1.1 0 2 2.3 1.5 2.9 1.2 2.3-1-.3-1.1-.6-2-.7-2l-1.6 1zM443.09 10.04c-1.1.7-2.3 1.7-2.7 2.3-.4.7-2 1.5-3.5 1.9-1.5.3-3.2 1.4-3.9 2.3-.7.9-2.1 1.7-3.1 1.7-1.2 0-1.9.9-2.1 2.9-.2 1.6-1.1 3.6-1.9 4.4-1.1 1.1-1.4 2.9-1.1 6.4.5 4.9.1 5.7-1.9 3.7-.7-.7-1.9-.9-2.9-.5-1.3.5-1.6 1.5-1.2 4.9.4 3.3 1.4 5.2 4.7 8.5 2.3 2.3 4.6 4.2 5.1 4.2 2.3 0 3.7-1.3 3.3-3-.3-1.2.2-2 1.6-2.5 2.8-.9 6.1-5.3 6.1-8.1 0-1.3.5-2.4 1.1-2.4.5 0 .7-.5.4-1-.4-.6-.1-1.8.7-2.7.7-.9 1.8-5.2 2.3-9.7.7-5.8 1.4-8.1 2.4-8.1.8 0 1.9-.8 2.5-1.8.9-1.5.7-2.1-.8-3.3-2.3-1.6-2.5-1.7-5.1-.1zM393.89 19.54c-.5 1.9-5.7 4.6-8.4 4.4-2.5-.2-1.5 4.6 1.5 7.7 1.9 1.9 2.9 2.2 3.7 1.4.9-.9 1.6-.9 3 0 1.3.8 2.4.8 4.1 0 4.4-2.1 5.4-2.1 7.7.3 1.3 1.3 2.7 2.4 3.2 2.4 1 0-2.3-6.9-3.3-7-1.2 0-8.7-8.4-8.8-9.8 0-1.9-2.1-1.4-2.7.6zM378.19 21.24c-.3.8-.1 1.5.4 1.5 1.3 0 2.2-1.8 1.1-2.4-.5-.3-1.1.1-1.5.9zM380.59 24.84c0 .5.5.7 1 .4.6-.3 1-.8 1-1.1 0-.2-.4-.4-1-.4-.5 0-1 .5-1 1.1zM411.09 43.74c-1.1.5-1.4.9-.6.9.7.1 1.1.7.7 1.6-.3.8-.1 2.6.4 4 .8 2 1.3 2.3 2.7 1.6 1-.5 2.6-1.2 3.6-1.5 2.5-.8 2.1-3.1-.9-5.5-2.9-2.3-3-2.3-5.9-1.1zM429.59 55.44c0 .6-2.7 2.4-6 3.9s-6 3-6 3.3c0 .3 1.5 1.3 3.2 2.2 1.7.8 3.6 2.4 4.2 3.5.6 1 1.3 2.1 1.6 2.4.9.9.7 7-.2 7-.4 0-1.6-.9-2.5-2-1.6-1.9-1.7-1.8-3 1.8-1.6 4.7-1.6 4.5.4 3.8 1-.4 1.4-.4 1 0-.3.4.3 2 1.4 3.6 1.6 2.2 1.9 3.7 1.5 6.3-.4 1.9-.3 3.5.2 3.5s1.9 2.3 3.2 5.1c2.4 5 2.5 5 3.3 2.5.5-1.4 1.3-2.6 1.8-2.6s.4-.6-.3-1.4c-.7-.8-1.6-1.2-2-1-1.1.7-3.6-.7-4.2-2.3-.4-1.1-.2-1.3.9-.9 1 .4 1.5-.1 1.5-1.6 0-2 .1-2 1.8-.5 1.3 1.2 3.7 1.7 7.6 1.7 4.1 0 5.8.4 6.2 1.5.5 1.1 1.6 1.3 5 .8 3-.4 4.4-.2 4.4.6 0 .6.9 1.1 1.9 1.1 3.2 0 1.2-4.7-2.9-6.8-5.9-3.2-6.5-5.6-4.4-16.9.5-2.5 0-3.9-2.2-6.7-2.9-3.6-4.9-4.5-5.6-2.6-.2.6-1.6.6-4 0-2.7-.8-3.5-1.5-3.2-2.8.3-.9-.7-3.1-2-4.7-1.4-1.7-2.5-2.5-2.6-1.8zM412.69 57.34c0 1.1.3 1.4.6.6.3-.7.2-1.6-.1-1.9-.3-.4-.6.2-.5 1.3zM410.59 61.64c0 .5-.9 1.1-2 1.4-1.7.4-1.9.9-1 3.1.9 2.4.6 3-1.2 2.7-.4 0-.5.6-.2 1.4.8 2-3.4 2-6 0-1.1-.8-3-1.5-4.1-1.5-1.8 0-2.2.5-2.1 3.2.1 1.8 1 4.8 1.9 6.6 1.7 3.2 2 3.3 3.6 1.7 1.7-1.5 1.9-1.4 2.3.9.3 1.4 0 3-.5 3.5-.8.8-.6 1.1.6 1.1.9 0 1.7.4 1.7 1 0 1.5 1.9 1.2 3.7-.5 1.1-1.2 1.2-1.9.4-2.9-.9-1-.6-1.7 1.4-3 2.7-1.8 3.5-7.2 1.3-9.4-.8-.8-.8-1.5-.1-2.4 1.6-2 2.6-7.8 1.4-7.8-.6 0-1.1.4-1.1.9zm-5.6 20.6c.3.8.1 1.5-.3 1.5-.5 0-1.1-.7-1.5-1.5-.3-.8-.1-1.5.3-1.5.5 0 1.1.7 1.5 1.5zM499.59 69.14c0 2.2 1.7 2.8 2.4 1 .9-2.2.8-2.4-.9-2.4-.8 0-1.5.6-1.5 1.4zM480.49 70.34c-1.1 1.4-1.1 1.8.4 2.9.9.7 1.7 1.8 1.7 2.6.1 1 .5.9 1.4-.4.8-1.1 1.7-1.4 2-.8.4.5.2 1.2-.3 1.6-.6.3-.8 1.2-.4 2.1.4 1.1.9 1.2 1.9.3.8-.6 1.4-1.7 1.4-2.5 0-.7 1.6-1.6 3.8-1.9 5.5-.9 6.2-1.3 6.2-2.9 0-.9-.7-1.2-1.9-.9-1 .3-2.2 0-2.5-.6-.8-1.2-6.5-1.5-8.2-.3-.6.4-1.4 1.4-1.7 2.2-.4 1.2-.6 1.2-.6-.2-.1-2.4-1.7-3-3.2-1.2zM478.29 75.64c1.6 1.9-1.2 5-3 3.2-1.4-1.4-3-1.5-2.2 0 .4.5-.9 4.4-2.9 8.5-2.7 5.5-4.2 7.4-5.6 7.4-3 0-2.6 3.8.4 4.6 1.4.3 3 .3 3.6-.1.5-.3 1.3.1 1.6.9.3.9 1.5 1.6 2.5 1.6 1.1 0 3 .7 4.3 1.5 1.5 1 3.4 1.3 5.4.9 2.6-.5 3-.9 2.2-2.4-.7-1.3-.5-2.1.5-3 2.1-1.7 1.9-4.3-.6-9.2-1.9-3.7-1.9-4-.3-3.4 1.6.6 1.7.5.3-1.1-.9-1-2.1-3.2-2.8-5-.7-1.8-2.1-3.8-3-4.5-1.3-1-1.4-1-.4.1zM393.39 82.14c-1.9 1.4-2.3 2.6-1 2.6.4 0 1.3-.9 2-2 1.4-2.3 1.3-2.4-1-.6zM415.59 81.54c0 .6-.9.8-2.1.5-3.2-.9-4.2 1.7-1.7 4.4 1.2 1.3 1.8 2.3 1.4 2.3-.4 0 0 1 .8 2.2 1.1 1.6 2.7 2.3 5.6 2.4 2.2.1 4-.1 4-.5s-1.6-2.2-3.5-4.1c-2.3-2.2-3.3-4-3-5.1.3-1 .1-2-.5-2.4-.5-.3-1-.2-1 .3zM506.59 97.74c0 2.4-5.5 6.6-8.1 6.2-1.1-.2-2.6.2-3.4.8-1 .8-1.6.7-2.4-.7-1-1.7-1.2-1.7-2.1-.1-.7 1.1-1.7 1.5-2.8 1.1-1.5-.6-1.5-.4.2 1.5 1.1 1.2 2.5 2.2 3.3 2.2 1.9 0 6.5 4.8 5.8 6-.7 1.2 1.5 1.3 3.1.2.6-.4 1.5-2.2 1.9-4 .7-3.2.9-3.3 4-2.8 1.8.4 3.5.2 3.7-.3.2-.6 1.9-.5 4.6.2 3.4.9 4.5.9 5.1-.1.4-.8 1.5-1 2.6-.6 1.4.6 1.7.4 1.2-.9-.3-.9-.2-1.7.4-1.7.6 0 .7-.6.1-1.7-.9-1.5-13.2-7.1-15.9-7.2-.7-.1-1.3.8-1.3 1.9zM548.89 102.74c-1.1 1.6-1 1.8.2 1.4.8-.4 1.5-1.2 1.5-2 0-1.9-.3-1.8-1.7.6zM536.29 107.14c-2.3 2.5-2.5 3.1-1.3 3.8.9.5 3 .3 5.2-.7 2-.8 4.5-1.5 5.6-1.5 1.8 0 1.7-.1-.4-2.3-3-3-5.7-2.8-9.1.7z"/><path d="M554.09 105.74c.4.6-.7.8-2.7.4-3-.5-3.1-.4-1.5.9 1.8 1.5 2.4 3.2.7 2.2-.5-.3-1 .3-1 1.4 0 1.5-.4 1.9-1.7 1.4-1.3-.5-1.5-.2-1 1.6.4 1.8.2 2.1-1.3 1.6-2.9-.9-3.3 1.2-1 4.5 1.2 1.6 1.9 3.4 1.6 3.9-.8 1.2 1.7 6.1 3.2 6.1.6 0 1.2-.9 1.2-2 0-1.2.9-3 1.9-4.2 1.4-1.5 1.8-2.9 1.4-4.9-.4-2.2-.2-2.9 1-2.9 1.3 0 1.5-.8 1-3.7-.5-3.1-.4-3.5 1-3 2.2.8 2.2-.6-.1-2.6-2-1.9-3.7-2.3-2.7-.7zM527.19 113.84c-1.8 1.8-1.9 2.1-.4 3.5 1.5 1.5 1.8 1.4 3.2-1.4.9-1.7 1.6-3.3 1.6-3.7 0-1.2-2.6-.3-4.4 1.6zM404.59 139.74c-.8.5-1.1 1.2-.7 1.6.4.4 1.3.2 1.9-.4 1.5-1.5.7-2.4-1.2-1.2zM400.59 142.74c-.9.6-1 1-.3 1 .6 0 1.5-.5 1.8-1 .8-1.2.4-1.2-1.5 0zM154.49 176.74c0 .3-.2 1.3-.4 2.2-.4 2 1 2.4 2.1.7.3-.6.1-1.6-.5-2.2-.6-.6-1.1-.9-1.2-.7zM172.39 182.14c-1.6.5-2.8 1.6-2.8 2.3 0 .8 1.2 1.8 2.8 2.4 1.5.7 2.2 1.3 1.5 1.6-1.5.5-1.8 7.3-.4 7.3.5 0 1.6 1 2.4 2.3 2 3.1 1.1 7.7-1.5 7.7-1.9 0-1.9.1-.1 3.1 1.7 3.1 4.9 6.6 8.9 10.1 1 1 3.3 3.1 4.9 4.8 1.7 1.6 3.8 3 4.8 3 1.6 0 1.9.5 2.1 4 .1 1.6.1 1.6 3.4.6 2.5-.8 2.9-3.1.7-4-.8-.3-1.5-1.6-1.5-2.8 0-1.3-1.1-3.4-2.5-4.6-2-2-2.3-2.7-1.4-4.4 1.4-2.5-.5-7.4-3.1-8.1-1.2-.3-2.3-2-3-4.5-.7-2.7-1.8-4.3-3.1-4.7-1.6-.6-2-1.3-1.6-3.3.3-1.7-.1-3.4-1-4.5-1.5-1.6-1.4-1.7.5-1.7 1.3 0 2.2-.6 2.2-1.5 0-.8-.3-1.4-.7-1.3-1.5.3-4.3-1.4-4.3-2.7 0-1.7-3.9-2.3-7.2-1.1zM156.39 191.44c-2.5.6-2.2 3 .5 3.9 1.2.4 2.4.6 2.7.6.3-.1 1.6.6 2.9 1.4 1.7 1.2 2.6 1.3 3.4.5.8-.8.6-1.1-.6-1.1-.9 0-2.1-.9-2.7-2-1.3-2.4-3.9-3.8-6.2-3.3zM325.09 220.14c.1 1.2 1 5 2.1 8.4 1.5 4.9 2.5 6.4 4.7 7.3 1.5.6 2.7 1.6 2.7 2.1 0 1.2 4.2 2.7 5.9 2 1-.4 1-.7-.3-1.4-.9-.5-1.6-1.5-1.6-2.1 0-.7-1.8-3.1-4-5.2-2.2-2.2-3.9-4.4-3.6-5 .2-.6-.5-2.6-1.5-4.5s-1.8-3.1-1.9-2.6c0 .5-.6.4-1.3-.2-1-.8-1.2-.6-1.2 1.2zM319.59 219.94c0 1-.4 1.8-1 1.8-1.9 0-1 1.8 1.2 2.3 3 .8 3.1.5 1.3-2.9-1-1.9-1.5-2.3-1.5-1.2zM354.49 234.74c-1 .6-3.1.8-4.8.6-2.4-.3-3.1 0-2.9 1.3.2 1-.4 1.6-1.4 1.6-2.5 0-2.3 1.9.1 2.3 1.1.2 3.4 1.9 5.1 3.8 1.9 2.3 4.3 3.7 6.4 4.1 3 .5 3.4.2 3.8-2.2.4-1.8 0-3-1.2-3.7-1-.7-1.6-1.8-1.3-2.5.3-.8-.2-2.2-1.1-3.2-.9-1-1.3-2.1-.9-2.4.9-1 .1-.8-1.8.3zM197.39 238.04c-.4 3.8 1.7 6.1 3.4 3.5 1.1-1.8 1-2.3-1.1-4.9l-1.8-2.3-.5 3.7zM393.69 240.34c0 1.1.3 1.4.6.6.3-.7.2-1.6-.1-1.9-.3-.4-.6.2-.5 1.3zM383.19 242.64c-.4.5-.2 1.2.3 1.5.5.4 1.2.2 1.5-.3.4-.5.2-1.2-.3-1.5-.5-.4-1.2-.2-1.5.3zM227.19 246.34c-1.1.7-1.6 1.7-1.3 2.1.4.4 1.5-.1 2.4-1 .9-.9 1.5-1.9 1.2-2.1-.2-.2-1.3.2-2.3 1zM372.89 247.84c-.2 3 2.6 6.2 5.8 6.4 1.1.1 1.8-.1 1.7-.4-.2-.3-.9-2.2-1.7-4.3-1.8-4.7-5.5-5.8-5.8-1.7zM222.39 247.44c.7.3 1.6.2 1.9-.1.4-.3-.2-.6-1.3-.5-1.1 0-1.4.3-.6.6zM225.79 250.94c.5 1.5 2.8 2.3 2.8 1 0-.5-.7-1.3-1.6-1.6-1-.4-1.4-.1-1.2.6zM364.29 251.84c.3 1 1 1.6 1.5 1.3.5-.3 1.5.1 2.1 1 1.1 1.3 1.4 1.3 3.2 0l2-1.5-2-1.2c-1.1-.6-3.2-1.2-4.6-1.3-2.1-.1-2.6.2-2.2 1.7zM369.19 260.34c-.4 1-.1 1.4.6 1.2 1.5-.5 2.3-2.8 1-2.8-.5 0-1.3.7-1.6 1.6zM384.19 262.24c-.3.9.3 1.9 1.5 2.6 3 1.6 4.2-.3 1.4-2.3-2-1.5-2.4-1.5-2.9-.3zM.09 311.74c.3.5 1.3 1 2.1 1s1.4-.5 1.4-1c0-.6-.9-1-2.1-1-1.1 0-1.7.4-1.4 1zM8.59 317.64c0 .6.5 1.3 1 1.6.6.3 1 1.7 1 2.9 0 1.3.6 2.8 1.3 3.4.7.6 1.9 2.7 2.6 4.6 1.2 2.9 2.2 3.6 6 4.7 2.6.7 6.1 2.6 8.1 4.5s4.1 3.4 4.8 3.4c.7 0 1.1.5 1 1.1-.4 1.5 1.4 2.1 3.1 1 1-.6 1-1.3.2-2.8-1.4-2.7-.2-3.7 2.1-1.6 1 .9 2.8 1.8 4.1 1.9 1.2.2 3.9.6 6 1 4.1.7 4.5 0 2.1-3.4-1.1-1.6-2.2-2.1-4.1-1.7-1.5.2-3.2 0-3.9-.6-.8-.7-15.6-3.9-18.1-3.9-.2 0-.3-.6-.3-1.3 0-.8-1.8-2.8-4-4.6-2.2-1.8-4.9-5-6-7.2-1.6-2.9-2.6-3.9-4.5-3.9-1.4 0-2.5.4-2.5.9zM63.09 320.34c-1 1.3-2.3 2.4-3 2.4-.7 0-1.5.7-1.9 1.5-.7 2-3.6 1.9-6.4-.1-2.7-1.9-4.1-1.2-2.2 1.1 1 1.1 1 1.8.1 2.9-.8 1-.9 1.6-.1 2.1.6.3.8 1.1.5 1.6-.4.5.7.6 2.5.3 2.3-.5 3-.3 3 .9 0 .8.7 1.7 1.5 2.1 1.2.4 1.4 1.5.9 4.5-.6 3.7-.5 3.9 1.5 3.4 1.1-.3 2.1-1.2 2.1-1.9 0-1 1.3-1.4 4.3-1.3 5.3 0 11.3 2.1 10.9 3.8-.2.9.9 1.1 4.3.6 4.3-.7 4.5-.6 4.5 1.8 0 1.4-.6 2.8-1.2 3-.8.3-.6.6.5.6 1 .1 2-.7 2.3-1.7.3-.9 1-2.5 1.5-3.4 1.2-2.4 0-5.1-2.1-4.5-2.4.6-9.3-3.5-10.7-6.5-.7-1.4-2-3.1-2.8-3.8-1.3-1.1-1.4-1-.8.6.6 1.7.5 1.7-1 .5-.9-.7-1.7-2.7-1.7-4.3 0-2.5.2-2.7 1.9-1.8 2.7 1.4 3.2 0 1.4-3.9-1.4-2.7-1.8-3-2.5-1.6-.9 1.4-1.2 1.5-3.2.1-2.1-1.3-2.4-1.2-4.1 1zM220.59 328.14c0 1.8.4 2.4 1.5 2 .9-.4 1.8.1 2.1 1.1.5 1.3.9 1.4 1.5.3 1.4-2.1 1.1-2.7-2.1-4.3-2.9-1.5-3-1.5-3 .9zM239.89 331.44c-3.5.3-4.3.8-4.3 2.4 0 2.4-1.1 2.4-4.1 0-3.2-2.5-5.6-.9-6.7 4.5-.6 3.3-1.2 4-3.5 4.2-1.5.2-2.7.4-2.7.6 0 .1.9 1.9 2 4.1 1.1 2.2 2 5.3 2 7 0 1.7.8 3.8 1.8 4.7.9.9 2.3 2.4 3 3.2.7.9 1.8 1.6 2.4 1.6.7 0 .6-.5-.2-1.5-.9-1-.9-1.5-.1-1.5.6 0 1.1-.9 1.1-2s.6-3.6 1.4-5.5c1.4-3.3 1.4-3.6-.7-5-2.1-1.5-2-1.5 1.6-1.5 2.4 0 4-.5 4.3-1.5.4-.8 1.5-1.5 2.5-1.5s1.9-.5 1.9-1c0-.6 1.3-.4 3 .5 3.1 1.6 4.1.7 1.5-1.5-1.2-1-1.4-2.4-.9-6.1.4-2.7.3-4.8-.2-4.7-.5.1-2.8.3-5.1.5zM53.29 346.44c.4.9-.2 1.6-1.6 2-1.1.3-2.1 1.2-2.1 1.9 0 .9-1.1 1.4-2.9 1.4-2.9 0-3 .1-1.9 3.2.6 1.8 1.7 3.9 2.4 4.7 1.2 1.3 1.7 1.2 4-1 1.4-1.3 3.4-2.3 4.5-2.1 1.6.3 1.9-.3 1.8-4 0-2.4-.3-5-.7-5.8-.9-2-4.2-2.3-3.5-.3zM33.59 347.84c0 .5.6.9 1.4.9.8 0 1.7.6 1.9 1.2.4.8.6.7.6-.3.1-.9-.8-1.9-1.9-2.2-1.1-.3-2-.1-2 .4zM28.19 349.04c.3 1 .9 1.5 1.2 1.2.3-.3 0-1.1-.7-1.8-1-.9-1.1-.8-.5.6zM88.09 349.74c-.4.6-.2 1.7.4 2.4.8 1 .7 1.7-.4 2.6-1.1.9-1.4 2.2-1 4.1.5 2.4.1 3.4-2.6 5.9-1.9 1.6-3.7 3-4.1 3-.3 0-1.9.5-3.4 1-2.6 1-2.6 1.1-.9 3 1 1.1 2.2 1.7 2.7 1.4.5-.3 1.5.2 2.2 1.2 1.3 1.7 4.2 1.1 3.1-.7-.4-.5-.2-.9.3-.9 1.3 0 16.6 8.2 17.3 9.3.4.5 1.3.6 2 .1.8-.5 2.2-.7 3.1-.6 1.2.2 2.5-1.1 4-4.2 2.4-5 2.9-5.4 4.8-3.1.7.8 2 1.5 3 1.5.9 0 2.7.9 4 2 3.7 3.2 10.4 2 7.1-1.3-.6-.6-1.1-2.2-1.1-3.5 0-1.3-.4-2-1-1.7-.5.3-1 0-1-.7s-1.2-1.4-2.6-1.5c-1.4 0-3.1-.7-3.8-1.3-.6-.7-.6-1-.1-.7.6.3 1.7.2 2.4-.3 1.1-.6.9-1-.8-1.9-1.2-.7-2.6-.9-3.1-.6-1.4.9-7.9-2.4-9.1-4.6-.5-1.1-1.5-1.9-2.2-1.9-.7 0-2.5-.6-4-1.3-2.8-1.3-3.5-3.2-1.4-4 .6-.2.8-.8.4-1.3s-1.1-.3-1.5.3c-.7 1.1-8.1-.2-10.9-2-.6-.4-1.5-.3-1.8.3zM152.29 363.54c-1.5 1.6-2.5 3.5-2.2 4.3.3.8-.8 2.9-2.5 4.7-1.7 1.9-2.8 3.8-2.4 4.3.3.5-.1 1.2-.9 1.5-2.2.8-5.5 7.6-3.9 8.1.6.3 1.2 1.4 1.2 2.5s.5 1.8 1.3 1.5c.6-.2 1-1.4.9-2.7-.3-1.9 0-2.2 1.7-1.7 2.5.6 2.6 0 .4-2.5-1.8-2-2-1.8 3.4-2.2 1 0 1.8.6 1.9 1.4.2 3 .4 3.5 1.2 2.3.6-1 1.2-1 2.8.2 1.8 1.4 1.8 1.6.2 2.8-.9.7-2 2.6-2.4 4.3-.4 1.6-1.2 3.2-1.8 3.6-.7.5-.7.8.2.8.7 0 1 .5.7 1.1-.4.5.1 1.9 1 2.9s1.4 2.3 1.1 2.9c-.4.6.2 1.9 1.4 3.1 2.2 2.2 2.7 5.5 1 6.5-.8.5-.7 1.2.1 2.2 1.7 1.9-.7 3.6-3.2 2.2-1.1-.6-2-.5-2.4.1-.7 1.1-.8 1.1 2.5 1.5 1.4.1 3-.1 3.5-.5.6-.4 3.5-.4 6.5 0 5.2.7 9-.1 9-1.9 0-.5 1.1-.6 2.4-.4 3.1.6 6.7-1.3 6-3.2-.5-1.1.1-1.5 2-1.5 2.9 0 2.8.9 1-10.7-.5-3.1-.3-3.5.9-2.5.7.7 1.6 1 1.9.7.3-.3 1.1.1 1.8 1 1.4 1.6 6.7 2 8.9.6 1-.6 1.2-1.9.7-4.1-.5-2.5-.3-3.1.8-2.7.8.3 1.7.3 2.1-.1 1.6-1.7 7.2-.9 10.7 1.5 2.6 1.8 4.3 2.3 5.5 1.7 1-.4 2.4-.8 3.1-.9 1.4 0 2.9-2.4 5.6-8.6 1.6-3.7 4.9-7.5 8.2-9.6 1.8-1.2 1.8-1.3-.9-3.4l-2.8-2.1 2.1-1.8c1.8-1.5 1.9-2.2 1-3.9-1.3-2.5-3.5-2.7-4.4-.6-.3.9-1.8 1.5-3.6 1.5-2.4 0-3 .4-3 2.1 0 1.5-.5 1.9-1.6 1.5-1.1-.4-1.4-.1-.9 1.3.3 1.2 0 2.1-1 2.5-.8.3-1.5 1.2-1.5 2.1 0 .8-.6 1.5-1.3 1.5-.7 0-2.9.9-5 2-2 1.1-5.5 2-7.7 2-3.3 0-3.8.3-3.4 1.7.5 1.6.4 1.6-1-.1-1.4-1.8-1.5-1.7-2.1.7-.5 1.9-1.7 2.8-5.3 3.8-2.6.7-4.9 1.6-5.2 2-.3.3-1.6.2-3-.4-1.4-.5-3.2-.9-4-.8-1.8.2-2.6-4.4-.9-5.4.7-.5.6-1.2-.2-2.1-.9-1.2-.8-1.9.8-3.7 2.6-3 1.6-8.7-1.1-6-.4.4-2.6.8-4.8.8-3.8 0-4.4-.3-6.7-4.3-1.4-2.3-3-4.2-3.6-4.2-.5 0-2.1-.9-3.5-2-3.3-2.6-4.1-2.5-7.3.8zm38.9 35.1c-.4.6-1.2.9-1.7.5-.5-.3-.7-.9-.4-1.4.3-.5.1-1.1-.5-1.5-.5-.3-1-1.1-1-1.8 0-.6 1-.2 2.1 1 1.2 1.1 1.8 2.6 1.5 3.2zm-33.6-2.4c1 1.3.9 1.5-.8 1.5-2.2 0-3.6-1.3-2.5-2.4 1-1 2-.7 3.3.9zM43.39 364.14c-1.3 1-1.5 1.5-.6 2.4.7.7 1.7 1.2 2.3 1.2.7 0 2 .9 3 2s2.3 2 2.9 2c.6-.1.2-.9-1-1.8-1.1-1-2.4-3-2.8-4.5-.7-3-1.3-3.2-3.8-1.3z"/><path d="M191.69 368.54c-.6 1.1-.7 2.2-.4 2.6.4.3-.8.3-2.5 0-2.1-.4-3.2-.3-3.2.5 0 .6.5 1.1 1 1.1.6 0 1 .6 1 1.4 0 .7 1.1 1.6 2.5 1.8 1.7.4 2.5.1 2.5-.9 0-2.3 2.4-.9 3.9 2.3 1.7 3.4 2.9 4.4 4.8 3.7 1.9-.8 1.6-4.7-.6-6.7-1.1-1-1.7-2.3-1.5-3 .6-1.5-1.1-3.1-4.3-4-1.6-.5-2.5-.2-3.2 1.2zM32.49 371.54c-3.8 4-6.3 8.7-5.5 10.7.3.9 1.2 1.5 2 1.2 1.7-.7 4.1 1.8 3.2 3.2-.4.5.1 1.4.9 1.9 1.3.7 1.4 1.4.6 3.5-.6 1.5-.7 2.7-.1 2.7.5 0 1-1 1.2-2.3.2-1.4 1.1-2.3 2.5-2.5 1.5-.2 2.4-1.3 2.8-3.3.4-1.6 1.1-2.7 1.6-2.3 1.2.7 1.2-2.1 0-4.4-.5-.9-1.4-2.9-2.1-4.4-.7-1.4-2.1-2.9-3.1-3.1-1.3-.3-1.7-1.1-1.3-2.1.8-2.2.3-2-2.7 1.2zM54.89 376.74c-.3 1.1-1 2-1.5 2-.6 0-.8.6-.5 1.4.7 1.7-6.6 6.8-8.6 6-.8-.3-1.7.2-2.1 1.2-.4.9-.5 1.7-.4 1.8.2.1 1.2.6 2.3 1.2 3.8 2.1 12.2-2.6 10.9-6.1-.8-2 2.3-6.8 3.9-5.9.7.4.3-.2-.7-1.4-2.3-2.7-2.7-2.7-3.3-.2zM87.59 375.74c0 .5.5 1 1.1 1 .5 0 .7-.5.4-1-.3-.6-.8-1-1.1-1-.2 0-.4.4-.4 1zM62.49 378.84c-.8 1.7-.6 1.9 2 1.9 2.9 0 2.9.1 2 3.2-1.9 6.9-.8 8.7 6.4 10.3 2 .4 2.7.2 2.2-.6-.4-.6-.9-3.4-1-6.2-.2-2.8-.8-5.3-1.4-5.5-.6-.2-1.1-.9-1.1-1.7 0-.7-1.8-1.7-4-2.3-3.5-.9-4.2-.8-5.1.9zM133.59 378.54c0 .7-.4 1.1-.9.8-.5-.3-1.2.5-1.5 1.9-.5 2-1.3 2.5-3.6 2.5-1.7 0-3 .4-3 1 0 .5.6 1 1.4 1 .7 0 1.9 1.4 2.6 3 1.7 4 4.8 5.8 5.6 3.3.3-1 1-2.7 1.4-3.8 1.8-4.3 1.8-6.6-.1-8.8-1.1-1.3-1.8-1.7-1.9-.9zM227.09 390.74c.3.5.8 1 1.1 1 .2 0 .4-.5.4-1 0-.6-.5-1-1.1-1-.5 0-.7.4-.4 1zM228.99 395.44c.5 2.1.2 4.2-.8 6.1-1.1 2.2-1.2 3.2-.3 4.1.8.8.7 1.1-.5 1.1-1.9 0-3 6.5-1.6 9.4.7 1.2.7 1.6 0 1.2-.6-.3-2.2-.2-3.7.4-1.6.6-3.3.6-4.3.1-1.2-.7-2.5-.2-4.7 1.5-1.7 1.3-3.8 2.4-4.7 2.4-2.9 0-8.7 3.3-9.4 5.2-.3 1-1.8 2.5-3.3 3.3-2.5 1.2-3.1 1.2-5-.2-1.2-.8-2-2.1-1.7-2.9.7-1.7-2.6-1.9-5.5-.3-1.9 1-1.9 1.2-.4 3.5.9 1.4 1.4 3.1 1.1 3.7-.3.9-.5.9-.5-.1-.2-2-2.1-1.4-2.1.7 0 1.1-.9 2.3-2 2.6-1.5.5-2 1.5-2 4.1 0 2.3-.5 3.4-1.5 3.4-.8 0-1.2.6-.9 1.4.3.8.1 1.7-.5 2.1-.6.3-1.1 1.8-1.1 3.2 0 1.6-.5 2.3-1.3 2-1.3-.5-3.9 1.7-3 2.6.3.3 1.1.3 1.9 0 1.7-.6 1.8 1.6.2 6.9-1.3 4.3 0 7 2.4 5.2.7-.6 4.9-.9 9.3-.9 4.4.1 9.5-.2 11.3-.8 2.8-.7 3.7-.6 5.5 1 1.2 1.1 3 2.3 4 2.7 1.1.3 2.1 1.5 2.4 2.6.3 1.1 1.2 2 1.9 2 .8 0 1.4.7 1.4 1.5 0 1.8 1.7 2 2.3.2.3-.9 1.5-.6 4.5 1.1l4 2.2 2.1-2.8c1.8-2.6 1.8-3 .5-4.4-1.4-1.4-1.4-1.9 0-4.9 1.7-3.8 5-7.9 6.3-7.9.5 0 .8-1.3.5-2.9-.5-3.7 1.8-9.1 3.9-9.1 3 0 4.9-2.5 5.3-7.2.2-2.5.9-5.5 1.5-6.5.6-1.2.6-2.5 0-3.4-1.4-2.2-1.1-2.6 2-3.7 1.8-.7 3.6-2.4 4.6-4.5.9-1.9 2.5-4.3 3.6-5.3 1.9-1.7 1.8-1.8-1.1-3.5-3.3-2.1-3.8-3.4-1.5-4.3.8-.3 1.5-1.6 1.5-2.8-.1-2-.2-2.1-1.3-.8-1.4 1.8-6.3 2.7-5.2 1 .4-.6 0-1.9-1-2.9-1.1-1.3-1.4-2.7-.9-4.6.5-2 .4-2.6-.5-2.1-.6.4-1.1.2-1.1-.3 0-.6-1.7-1.1-3.7-1.1-2.1 0-4.5-.8-5.6-1.8-1.9-1.7-1.9-1.6-1.3 1.5zm12.1 22.3c.8 1.3-.5 1.3-2.5 0-1.3-.8-1.3-1 .2-1 .9 0 2 .4 2.3 1zm-3.9 11.6c-.4.9-.9 1.5-1.1 1.2-.3-.3-.3-1.3.1-2.2.4-.9.9-1.5 1.1-1.2.3.3.3 1.3-.1 2.2zm-33.1 8.5c1.1 1.7-.1 2.1-1.5.4-.8-.9-.8-1.5-.2-1.5.6 0 1.4.5 1.7 1.1zm5 19.9c1.8 2 1.8 2.1-.1 3.4-1 .8-2.1 1.2-2.4.9-.3-.3.1-.8.8-1 1-.4.8-1.1-.9-2.9-1.7-1.8-1.9-2.4-.7-2.4.8 0 2.3.9 3.3 2zm-4.2 5.1c-.6.6-.9 1.8-.6 2.5.4 1 0 1.2-1.1.8-2.8-1.1-1.8-4.4 1.3-4.4 1.1 0 1.2.3.4 1.1zM136.59 394.84c0 .6-.7.8-1.6.5-.9-.3-1.4-.3-1.2.1 2.9 6 3.2 6.3 6.4 6.3 2.4 0 3.4-.5 3.9-2 .3-1.1 1.3-2 2.1-2s1.4-.4 1.4-1-1-.5-2.5.2c-1.9.8-2.8.8-4.1-.3-1.6-1.3-1.7-1.1-1.2 1.3.6 3.1.3 3.4-1.7 1.4-.8-.7-1.1-2.3-.8-3.5.3-1.1.3-2.1-.1-2.1-.3 0-.6.5-.6 1.1zM75.29 397.04c-.3.8.1 2.4.8 3.5.8 1 1.2 2.2.9 2.4-.3.3.4.8 1.5 1.1 1.7.4 1.8.1 1-2.6-1.2-4.1-3.4-6.4-4.2-4.4zM70.69 405.34c0 1.1.3 1.4.6.6.3-.7.2-1.6-.1-1.9-.3-.4-.6.2-.5 1.3zM186.09 404.74c.3.5.8 1 1.1 1 .2 0 .4-.5.4-1 0-.6-.5-1-1.1-1-.5 0-.7.4-.4 1zM167.39 468.44c.7.3 1.6.2 1.9-.1.4-.3-.2-.6-1.3-.5-1.1 0-1.4.3-.6.6z"/></g></svg>