<svg version="1" xmlns="http://www.w3.org/2000/svg" width="1181.821" height="788.109" viewBox="0 0 886.365 591.082"><g fill="#222"><path d="M709.785.113c-1.4.4-1.5.8-.6 2.9.9 1.9.9 3 0 4.5-1.1 1.7-.9 1.9 1.3 1.9 2.6 0 2.9-.9 2.5-6-.2-3-1-3.8-3.2-3.3zM705.685 14.113c-.5.9 1 5.3 1.8 5.3.3 0 .5-1.4.5-3 0-2.8-1.3-4-2.3-2.3zM684.185 28.613c-.7.7-1.2 1.8-1.2 2.4 0 .7-.9 1.5-1.9 1.9-1.1.3-2.2 1.3-2.5 2.1-.3.8-1.1 1.2-1.6.9-1.5-.9-5.7 2-6.5 4.5-.4 1.3-1.5 2-3.1 2-1.3 0-2.4.6-2.4 1.3 0 .7.9 1.3 2 1.3s2-.5 2-1 .2-.7.5-.4c.9.8-.6 3.8-1.6 3.2-.5-.3-1.4.7-2.1 2.1-1 2.2-1.7 2.6-3.9 2.1-2.2-.4-2.8-.1-2.8 1.2.1.9-.2 3.5-.5 5.8-.6 3.7-.3 4.3 3.9 8.7 2.4 2.6 5.1 4.7 5.9 4.7.8 0 1.7.8 2.1 1.9.3 1 1.7 3.1 3 4.5 2 2.1 2.4 3.5 2.1 7-.2 2.4-.6 4.8-1 5.4-.8 1.3.3 2.2 2 1.5 2.2-.8 1.8 6-.6 8.7-2.8 3.3-2.5 5.2 1.5 7.9 2 1.3 3.8 3.5 4.1 4.8.5 2 4.2 5.2 4.7 4.1.1-.2.8-1.3 1.5-2.5.6-1.3 1.2-3 1.2-3.8 0-.8.5-1.5 1.1-1.5.6 0 .8.7.4 1.7-.4 1.3-.3 1.5.5.7 1.1-1.1 1.7-3.2 1.9-6.2.1-1.4 3.8-1.7 4.3-.3.2.5 1.4 1.1 2.7 1.3 1.9.2 2.9-.4 4-2.7.9-1.7 1.9-3.1 2.3-3.3.4-.2.4-1 .1-1.8-.4-1 .2-1.7 1.6-2.1 1.4-.3 2.1-1.3 2.1-2.9 0-2.4-.9-3.5-7.1-8.8-3.3-2.8-3.3-2.9-1.2-3.7 1.9-.7 2.1-1.3 1.7-5.3-.4-3.7-.2-4.6 1.1-4.6 1.1 0 1.4-.6.9-2.5-.5-1.9-.2-2.5 1.1-2.5 1.5 0 1.6-1.1.9-10.5-.6-10.1-.6-10.5 1.3-10.5 1.7 0 2-.6 1.7-4.1-.1-2.2-1-4.9-1.8-5.8-.9-1-1.6-2.7-1.6-3.9 0-1.5-.6-2.2-1.9-2.2-1.1 0-2.3-.5-2.6-1-.9-1.4-9.3-.2-12.3 1.8-2.1 1.4-2.3 1.3-2.9-.6-.6-2.5-1.4-2.7-3.1-1zm7.8 76.9c0 .6-.4.7-1 .4-.5-.3-1-1.1-1-1.6 0-.6.5-.7 1-.4.6.3 1 1.1 1 1.6zM670.485 33.313c-.3.5-.1 1.2.5 1.6.5.3 1-.1 1-.9 0-1.8-.6-2.1-1.5-.7zM652.285 43.813c.4 2.2.1 3.6-.6 3.9-.9.3-.9.8-.1 1.6 1.7 1.9 6.2 2 7.6.3 1.1-1.3 1-1.4-.8-.8-1.7.5-2 .1-2.2-3.1-.3-3.5-1.5-5.2-3.6-5.3-.5 0-.6 1.5-.3 3.4zM652.285 54.213c-.7.4-.9 1.3-.4 2.1 1 1.6 3.1.6 3.1-1.5 0-1.6-.9-1.8-2.7-.6zM647.985 59.913c0 .9-.7 1.8-1.5 2.1-.8.4-1.5 1-1.5 1.4 0 .5 1.4.2 3-.6 3.1-1.6 4.1-4.4 1.5-4.4-.8 0-1.5.7-1.5 1.5zM641.985 62.313c0 .5-1 1.3-2.2 1.7-2.8.9-4.7 3.3-4.7 5.9 0 1.9.1 1.9 1.6-.3 1-1.4 2.6-2.2 4.4-2.2 2.4 0 2.9-.4 2.9-2.4 0-1.4-.4-2.8-1-3.1-.5-.3-1-.2-1 .4zM625.885 77.613c-1.5 2.8-3 3.9-4.6 3.3-.7-.2-1.3 0-1.3.6s-.7 1.7-1.5 2.5c-1.1 1.1-1.9 1.2-3.4.4-1.6-.8-2.5-.5-4.5 1.5-2.7 2.7-4.6 3.2-4.6 1.3 0-.7-.7-.5-1.7.4-3 2.7-9 4.6-16.3 5.4-3.8.3-6.8 1-6.5 1.4.6 1-5.5 6.6-8 7.4-1.1.3-4.3.2-7.2-.3-3.7-.6-5-.5-4.5.3.4.6.7 1.4.7 1.7 0 .4 1.2 2.5 2.7 4.8 3.2 4.9 4.3 8.1 2.8 8.1-.8 0-.8.6.1 2.1.8 1.6.8 2.7-.2 4.5-.7 1.3-1.6 2.4-2.1 2.4-1.4 0-.7 8.2 1 11.7 2.1 4.2 6.5 4.9 9.8 1.6 1.4-1.3 2.2-2.9 1.9-3.4-.4-.5-.1-.9.5-.9s1.8-.6 2.5-1.3c3.3-2.8 4.2-3.4 6.9-4.1 2.8-.7 10.6-7.8 10.6-9.7 0-.5.8-.9 1.9-.9 1.5 0 2.1-1.2 3.1-6.4.7-3.8 1.8-6.7 2.6-7 1.1-.4 1.3-1.5.8-4.1-.4-2.3-.2-3.5.5-3.5.6 0 2.1-1.1 3.3-2.5 1.2-1.4 3.6-2.8 5.5-3.1 5.1-1 8.3-4 8.3-7.8 0-1.7.7-4.2 1.6-5.4.9-1.3 1.4-2.6 1.1-2.9-.3-.2-1.1.6-1.8 1.9z"/><path d="M361.285 103.913c.4.8.2 1.7-.4 2-.5.4-.7 1-.5 1.4.3.4.6 3.4.7 6.7.2 6.5 1.2 9.4 3.4 9.4.7 0 1.6.9 2 1.9.3 1.1 1.4 2.3 2.5 2.6 1.4.4 2 2 2.5 6.7.5 4.5 1.4 6.8 3.2 8.6 1.9 1.9 2.2 2.7 1.2 3.8-.6.8-1.3 3.5-1.5 6-.2 2.5-.6 4.9-.9 5.5-.4.5.1.9.9.9s2.5 1.3 3.8 2.8c1.3 1.6 3.8 3.4 5.6 4.2 3.1 1.2 3.6 2 3.3 4.7-.1.7.5 1.3 1.4 1.3.8 0 1.9 1 2.4 2.3.5 1.3 1.6 2.9 2.5 3.6.9.7 1.6 1.9 1.6 2.7 0 .7 1 2.9 2.1 4.9 1.3 2.1 1.9 4.4 1.6 5.7-.4 1.3.2 3.2 1.3 4.8 1.1 1.5 1.7 3 1.3 3.4-.3.3 0 .6.8.6 1 .1.9.3-.3 1.1-2.3 1.3-2.3 2.4.4 6 1.6 2.1 1.9 3.2 1.1 3.7-.6.4-.9 1.9-.6 3.3.4 2.2 1.2 2.8 4.6 3.4 2.3.4 4.8.9 5.5 1.1.6.1 1.2-.3 1.2-.8 0-.6.9-.3 2 .7s2 1.3 2 .7c0-2.1 1.9-1.3 5.1 2.3 1.8 1.9 4 3.7 5 4 2.6.8 2.5 5.7-.1 8-1.1 1-2 2.8-2 4 0 1.2-.5 3.7-1.2 5.5-.8 2.6-.8 3.5 0 3.8 1.3.4-1 3.2-2.6 3.2-.6 0-1.2.6-1.4 1.2-.3.7-1.1 1.3-1.9 1.3-4.4.2-6.9 1.8-6.9 4.4 0 1.5.6 3.3 1.2 3.9 1.3 1.3.6 2.1-2.7 3.6-1.6.8 4.8 5.6 6.7 5 1.6-.5 3.7 3.1 2.4 4.3-.3.4.1 1.4 1 2.4 1.3 1.5 1.4 2.4.5 4.9-.5 1.7-.8 4.3-.5 5.8.6 3.2-2.6 7.2-5.8 7.2-2.1 0-2.1.1-.3 2 1.1 1.2 1.9 3.7 1.9 5.8.1 3.4.3 3.7 3.5 4.2 2.8.4 3.4 1 3.7 3.2.2 2.1-.2 2.8-1.5 2.8-2.4 0-3.6 1.6-5.2 6.8-1.2 4.1-1.5 4.3-4.1 3.8-1.8-.4-2.8-.1-2.8.7-.1 3.4-1.6 3.7-6.4 1.2-2.6-1.4-5-2.5-5.4-2.5-.4 0-.6 1.9-.4 4.2.4 3.4 0 4.4-1.9 5.9-2 1.5-2.2 2.1-1.2 3.8 1 1.6.9 2.2-.8 3.7-1.5 1.3-2.2 1.5-3.1.6-.7-.7-1.6-1.2-2.1-1.2-1.5 0 3.1 5.6 6.7 8.1 2 1.3 3.6 3 3.6 3.7 0 .8 1 2.2 2.3 3.2l2.2 1.8-2.5 2.6c-1.3 1.5-3 2.4-3.7 2.2-1.5-.6-1.8 1-.3 1.9.6.4.8 1 .5 1.5-.3.5 0 1.9.7 3 1.2 1.9 1 2.4-1.9 4.9-1.8 1.5-3.3 3.5-3.3 4.5 0 .9-.4 1.5-.9 1.2-.5-.3-1.4.1-2 .8-1 1.1-.8 1.6.8 2.1s1.9 1.2 1.5 3.3c-1.3 6.3-.7 12.7 1.2 14.6 1.4 1.4 1.7 1.4 3 .1.9-.8 2-1.5 2.5-1.5s.6-1.2.3-2.6c-.6-2.5-.5-2.6 2-2 1.4.3 2.6.2 2.6-.3 0-.6 1.9-2.1 4.2-3.5 4.3-2.5 8.1-8.5 6.8-10.5-.9-1.5 1.2-9.7 2.8-11.3 1-1 1.4-.8 1.8 1 .6 2.3 2.4 3.1 2.4 1.1 0-.8.4-.8 1.5.1.8.6 2 1 2.7.7.7-.2 2.7.6 4.4 1.9 1.8 1.3 4.2 2.1 5.8 2 3.3-.4 3.8.4 4 6 .2 3.7-.1 4.3-1.5 3.9-1-.3-1.9.1-2.3 1-.3.8-1.2 1.5-2 1.5-1.3 0-1.3.5.1 3.7 2 5.1 4.2 6.9 8.9 7.7 8.8 1.5 15.4.1 28.6-5.8 3.6-1.6 4.8-2.6 4.8-4.4 0-1.7.6-2.2 2.5-2.2 3.4 0 8-4.7 6.4-6.6-1.6-1.9.2-3.9 3.8-4.2 3.1-.2 5.6-2.9 4.8-5.1-.8-2 2.4-5.1 5.1-5.1 1.8 0 2.2-.4 1.7-1.6-.4-1.2-.2-1.5.8-1.2.8.3 1.6 1.3 1.8 2.4.5 2.6 2.1 3.5 4.4 2.2 1.1-.5 3.8-.7 6.2-.4 3.1.5 4.5.3 5.5-.9 2.8-3.4 6.9-.7 8.4 5.5.6 2.7 6.3 6.9 8.3 6.3.7-.2.9-1.1.6-2-.5-1.2-.3-1.4.6-.8.8.4 1.6.2 2.1-.5.5-.9 1.3-.6 2.8 1 1.1 1.2 3.2 2.3 4.8 2.5 1.5.1 3.3 1 3.9 1.8 1.2 1.6 1.2 9.8 0 11.7-.8 1.4 3.8 6.5 7.6 8.6 2.8 1.4 2.9 1.9 4.7 14.1.5 3.3 1.3 6.6 1.6 7.2.7 1.1 5.8.5 8.8-1.1 1.3-.6 2-.3 2.8 1.2.9 1.6 1.4 1.8 3.5.8 1.3-.6 3.2-.7 4.2-.3 1 .4 2.4.9 3.1 1.1 2.2.4 2.7 1.4 1.3 2.3-1 .6-1 1-.2 1.6.8.4.9 1.1.2 1.9-1.4 1.7 4.5 8 6.8 7.1.9-.4 2.5-.8 3.7-.9 1.1-.2 2.6-.6 3.1-.9.6-.4 2.8.2 4.9 1.2 2.4 1.2 4.3 1.6 4.8 1 .6-.5 1.7-.9 2.6-.9.9 0 2.5-1.6 3.6-3.5 1.9-3.6 4.1-4.5 5-2.2.7 1.9 7.5.8 9.4-1.5 1.4-1.8 1.7-1.9 2.9-.4 1.8 2.2 2.8 2 3.4-.5.3-1.2 1-1.8 1.7-1.4.6.4 1.6.3 2.3-.2 1.1-.8 3.1-.9 10.1-.4 1.5.1 1.6.4.6 1.6-.8 1-.9 1.5-.2 1.5.6 0 .9.6.6 1.4-.3.8.3 1.7 1.4 2 3.3 1.1 2.3 8.6-1.6 13.3-3.4 4.1-4 5.5-1.9 4.7.8-.3 2 .2 2.7 1.1.7.8.9 1.5.4 1.5-.4 0 .7 1.3 2.6 3 2.5 2 3.1 3.2 2.3 3.7-1.4 1-.2 7.5 1.7 9.9 1.1 1.2 1 1.7-.6 2.9-1.8 1.4-1.7 1.5 1.1.9 1.7-.4 5.1-2.4 7.8-4.5s6.8-4.2 9.7-4.9c3.9-.9 5-1.6 5-3.1 0-1.1.5-2.5 1.1-3.2.5-.7 1.9-2.7 2.9-4.5 1.4-2.2 2.7-3.2 4.5-3.2 2 0 2.5-.5 2.5-2.5 0-3.8 3.9-4.9 10.3-3 6.1 1.8 5.7 1.8 5.7.2 0-.9 1.1-1.2 3.5-.9 1.9.2 3.5.8 3.5 1.4 0 .5.4.7.9.3 1.8-1 2.2 1.5.8 4.4-1.1 2.3-1.2 3.1-.1 4.5 1.5 2.1 3.4 1.3 3.4-1.5 0-1 .4-1.9.8-1.9 1.5 0 2.7-4.3 2.4-8.1-.2-3-.9-3.9-3.8-5.2-3-1.5-3.3-2-2.4-3.6.7-1.4.7-2.2 0-2.6-.6-.4-.8-1.1-.4-1.6.3-.5 0-1.6-.6-2.4-.7-.8-.9-1.5-.4-1.5s.1-.5-.8-1.1c-1-.5-1.8-1.7-1.8-2.4 0-.8-.4-1.5-1-1.5-.5 0-1.9-1.8-3-4s-2.6-4-3.3-4.1c-.6 0 .1-.5 1.6-1.1 1.7-.6 2.6-1.5 2.3-2.3-.3-.8.7-1.8 2.5-2.4 1.8-.6 2.8-1.5 2.4-2.1-.4-.6.5-2 1.9-3.1s2.6-2.8 2.5-3.7c0-1.4-.3-1.3-1.6.5-.8 1.3-2.2 2.3-2.9 2.3-.8 0-1.4.9-1.4 1.9 0 1.2-1.1 2.3-3 3-1.6.5-3 1.7-3 2.5 0 .9-.4 1.6-1 1.6-.5 0-1-.7-1-1.5s-.4-1.5-1-1.5c-.5 0-1 .4-1 1 0 1.8-2.2 1-2.7-1-.3-1.1-1.1-2-1.8-2s-1.5-.7-1.9-1.5c-.8-2.2-4.6-1.8-7.2.6-2.2 2-2.2 2.4-.9 5.5 1.7 4 1.2 4.2-3 1-1.9-1.5-5.3-2.8-8.2-3.2-4.5-.5-5-.9-5-3 0-2 .5-2.4 2.8-2.4 1.8 0 3-.5 3.1-1.5 0-.8.1-2.1.2-2.8.1-.6-.6-1.2-1.4-1.2-2.6 0-2.2-3.4.7-6 1.5-1.3 3.4-2.5 4.1-2.5.7 0 1.5-.7 1.9-1.6.4-1 1.3-1.4 2.7-1 2.9.7 5.4-1.4 5.8-4.9.2-2.2.9-3.1 2.6-3.3 1.8-.3 2.2-1 2.2-3.7 0-2.6.6-3.9 2.5-5.1 1.4-.9 2.5-2.4 2.5-3.4 0-1.1 1.2-2.2 3-2.8 2.4-.9 3.2-.8 4.1.6.8 1.4.9 1.2.3-.8-1.4-5.1-1.6-14-.3-15.6.7-.8.8-1.4.3-1.3-.5.1-2.2-.3-3.8-1-1.9-.8-2.6-1.6-2.2-2.7.3-.9.6-1.7.6-1.8 0-.2 1.2-.1 2.6.2 2.1.4 2.5.2 1.9-.9-.7-1.1-.6-1.2.7-.2 1.2 1 2.5 1 6.6-.2 5.9-1.8 6.1-2 6.4-6.9.4-4.8 2.4-4.6 2.6.1.3 6.5 1.9 9 6 9.5 3.4.5 4.6-.1 5.5-2.5.5-1.6 5.7.5 5.5 2.1-.2 1.3.8 1.6 5.3 1.8 6.7.2 10.4 2.4 11.3 6.5.5 2.7.8 2.9 3.3 2.2 4.3-1.1 7.5-.7 8.5 1.1.6 1.1 1.6 1.5 2.9 1.1 1.1-.4 3 0 4.4.9 3.1 2.1 3.5 2 3.5-.4 0-1.1-.8-2.3-1.7-2.7-3.4-1.2-4.5-2.5-3.1-3.5 1-.8 1-1.1.1-1.5-3.9-1.5-5.6-4.1-5.9-8.9-.1-2.7-.6-5.8-1-6.8-.6-1.5-.4-1.7.7-1 2.4 1.5 7.1 1.4 6.5-.2-.3-.8-.9-2-1.2-2.8-.3-.8.8-2.8 2.5-4.5 1.7-1.8 3.1-3.7 3.1-4.2 0-.6.8-.8 1.8-.5 1.4.5 1.4.4-.2-.9-1.1-.8-2.3-1.5-2.8-1.5-.4 0-.8-.7-.8-1.5s-.8-1.5-1.9-1.5c-1 0-2.4-.7-3.1-1.5-.9-1.1-1-1.5 0-1.5.7 0 .3-1.1-.9-2.6-3.3-4.2-2.2-9.4 1.2-5.9 1.3 1.3 1.6 1.1 2.1-1.1.4-1.6.2-3.2-.6-4.2-1-1.2-1-1.6-.1-1.9.9-.3 1-1 .3-2.4-.7-1.3-.7-1.9 0-1.9.5 0 1-1.4 1-3 0-2.4.4-3 1.8-2.8 1.2.2 1.7-.4 1.8-2.4.1-2-.5-2.8-2.4-3.3-3.4-.8-6.5 2-5.1 4.7.8 1.4.6 2.4-.9 4.2-1.2 1.6-1.8 3.7-1.6 6 .4 4.1.4 4.1-8.8 3.7-6.1-.3-13.2 1.5-12.3 3 .4.5.1.9-.4.9-.6 0-1.1-.5-1.1-1 0-.6-1.2-1-2.7-1-2.4-.1-2.5-.2-1-1.1 2.3-1.3 2.2-2.6-.4-4-1.8-.9-2.4-.8-3.1.6-.7 1.2-1.7 1.5-3.6 1-1.5-.4-2.4-.3-2 0 .4.4-.2 1.5-1.3 2.4-1.7 1.4-1.9 2-.9 4.5.9 2.5.7 3.3-1.5 6.2-3.1 4.1-4.1 4.2-5 .7-.8-3.5-5-12.2-6.8-14.5-.8-1-3.3-2.5-5.7-3.3-2.4-.8-4.8-2.2-5.5-3.1-1.1-1.5-1.2-1.5-1.8.1-.5 1-1.3 1.5-2.2 1.1-.9-.3-1.8.1-2.1.9-.4.8-1 1.2-1.5.9-.5-.3-.9 0-.9.6 0 1.4-4.9-2.1-5-3.5 0-.6-.9-1.6-2-2.3-1.7-1-2-1-2 .4 0 1.2-.6 1.5-2.2.9-1.3-.3-3.8-1-5.6-1.5-3.7-.9-8.2-3.6-8.2-4.9 0-1.1 5.8-6.1 7-6.1.5 0 .7-.7.4-1.5-.3-.8-.2-2 .3-2.7.4-.7.8-2.2.8-3.3 0-1.4.7-2 2.2-2 1.2 0 2.5-.4 2.9-.8.4-.4 0-.7-.9-.7-2 0-2 .1-.6-3.8.8-2.4.7-3.7-.6-6.1-.9-1.8-1.1-3.1-.5-3.1 1.5 0 1.2-3.6-.3-4.9-.8-.6-1.4-2.8-1.5-4.8-.1-2.2-.8-4.3-1.7-5-1.1-.7-1.3-1.3-.5-1.8.5-.3.8-1.1.5-1.6-.4-.5-.2-.9.4-.9.6 0 .7-.8.4-1.7-.5-1.2-.2-1.5 1-1 .9.3 1.9.2 2.3-.4.3-.6 1.2-.8 1.9-.5 2.1.8 3.7-1.8 2.2-3.4-1-1-.6-1.2 2.1-.7 1.8.4 3.2.2 3.2-.3 0-.6.7-1 1.5-1s1.5.5 1.5 1.2c0 .9.3.9 1.2 0 .6-.6 1.1-2.4 1-4.1 0-1.6.6-3.5 1.4-4.2.8-.6 1.4-1.8 1.4-2.6s.5-1.1 1-.8c.6.3 1 .2 1-.4 0-.6-.9-1.5-2.1-2.1-1.3-.7-1.8-1.7-1.5-2.7.4-.9.1-2.2-.5-2.9-.6-.8-.9-2-.5-2.9.5-1.4-2.2-7.7-3.6-8.3-.5-.2-.8-.8-.8-1.3 0-.6.4-.8.9-.4.5.3 1.2.1 1.6-.5.4-.6-.4-1-1.9-1-2.7 0-4.2-1.5-2.6-2.5.8-.5.7-1.1-.1-2.1-.9-1.1-.8-1.4.3-1.4.8 0 1.9-.5 2.5-1.1.9-.9.3-2.1-2.3-4.7l-3.4-3.5 3-1.8c2.7-1.7 3-2.4 3-6.6 0-2.7-.4-6.3-.9-8.1-.9-3-.8-3.2 1-2.7 1.1.4 1.9.2 1.9-.5 0-.8.6-.8 2 0 1.5.8 2 .8 2-.1 0-.7.3-1 .6-.6 1 1 5.1-4.6 5.6-7.7.5-2.6 0-3.5-3.8-6.9-2.4-2.2-4.4-4.5-4.4-5.2 0-.7-1.3-1.8-3-2.4-1.6-.5-3-1.7-3-2.6 0-.9-.7-1.8-1.6-2.2-1.4-.5-1.3-.8.6-1.8 1.8-1 1.9-1.3.7-2.3-1.1-1-1.7-.9-2.7.3-1.6 1.9-3.4 1.9-5 0-1.3-1.6-6.7-1.7-7.7-.2-.3.4-1.1 0-1.9-1-.7-1-1.4-1.3-1.4-.6 0 .6-.9.9-2 .6-1.6-.4-2 0-2 1.9s-.5 2.4-2.7 2.3c-1.9 0-2.9.6-3.1 1.9-.5 2.3-5.5 7.6-7.2 7.6-1.8 0-4.8 3.3-5.5 6.2-.5 1.9-1.4 2.8-2.9 3-1.1 0-2.6.2-3.3.2-.6.1-2 .9-3.1 1.9-1.5 1.4-3.3 1.8-6.7 1.6-3.9-.3-4.9.1-6.8 2.3-2.5 2.9-9 7-10.5 6.6-.6-.2-1.7.5-2.5 1.6-1 1.4-2.7 1.9-7 2-3 0-5.3.4-5.1.8.3.4 1.1.8 1.9.8 2.5 0 2.6 3.2.2 5.4-1.3 1.1-2.7 2.9-3.1 4-.5 1.6-.9 1.6-2.4.5-.9-.7-1.4-.9-1-.5.4.5-1.2 2.1-3.5 3.6-5.7 3.6-8 7.1-6.7 10.5.6 1.6.6 2.5 0 2.5s-1 1-1 2.1c0 1.9-.4 2.1-3.4 1.6-2.1-.3-3.6-.1-3.8.5-.3.7-1 .8-1.7.4-.8-.5-.9-1.2-.2-2 1.4-1.7 0-3.2-3.2-3.4-1.5-.1-3.6-.6-4.6-1.1-1-.6-2.7-.8-3.8-.5-1.6.4-2.4-.1-3.4-2.5-.8-1.7-1.9-3.1-2.6-3.1-.6 0-1.8-.9-2.6-2s-1.6-1.7-2-1.4c-.3.3-1.6-.1-2.9-1-1.2-.9-3.6-1.6-5.3-1.7-1.6 0-2.4-.3-1.7-.6 2-.8.3-2.3-2.7-2.3-3.1 0-7.7-4.2-6.6-6 .4-.6-.1-2.1-1.2-3.2-1-1.2-1.3-1.8-.6-1.5.6.4 2.3-.4 3.8-1.9 2.2-2.2 2.8-2.4 4.3-1.3.9.7.5 0-.9-1.6-1.5-1.7-2.4-3.6-2.2-4.3.5-1.2-2-1.7-6.1-1.3-1 0-2.5-.4-3.4-1.1-.8-.7-2-1.3-2.6-1.3-.6-.1-2.4-.7-4-1.4-2.5-1-3.1-1-3.8.4-.5.8-2.2 1.5-3.9 1.5-1.7 0-4.5 1-6.2 2.2-3.7 2.7-5.7 3.1-7.4 1.6-.9-.7-1.7-.7-2.8.2-.8.7-2.2 1-3 .6-.9-.3-1.5-.1-1.4.7.3 2.6-.2 3.4-2.6 4.5-1.4.6-2.5 1.8-2.5 2.6 0 1.1-1.1 1.3-5.2 1-2.8-.3-5.5-.7-5.9-1-.4-.2-1 0-1.4.5-.3.6-1.2.8-2 .4-1-.3-1.5.1-1.5 1.2 0 1.1-.5 1.5-1.4 1.2-.9-.4-1.7.4-2.2 2.1-.4 1.5-.7 3-.6 3.4.4 2.1-3.1 1.1-6.9-1.9-5.3-4.2-5.5-4.7-3.5-7.8 1.1-1.7 1.2-2.6.5-3.1-.7-.4-1.5-.1-2 .7-2.6 4.3-2.8 4.5-3.9 2.9-.8-1.3-1-1.3-1 .2 0 .9-2.1 2.8-4.6 4.3-3.6 2.1-4.8 2.4-5.9 1.5-2-1.6-12.5-.4-12.5 1.4 0 2-3.2 4.4-3.7 2.8-.3-.6-1.7-1.2-3.2-1.2-2.4 0-2.8.3-2.4 2.4.7 3.6-3 7-6.8 6.2-2.4-.5-3.2-.1-4 1.7-1.8 3.8-5.5 5.9-9.3 5.1l-3.4-.6 2.7-4.2c1.4-2.4 3.9-5.4 5.4-6.8 1.5-1.4 2.7-3.5 2.7-4.7 0-1.1.6-2.1 1.3-2.1 2 0 1.6-8.6-.6-10.7-1.2-1.3-2-1.5-2.5-.7-.4.7-1.8 1.4-3.2 1.5-2.3.4-2.5.1-2.8-4.2-.3-4.8.9-6.8 4.5-7.3 1.1-.2 1.8-1.1 1.7-2.5 0-1.1.3-2.1.8-2.1.4 0 .8.6.8 1.4 0 .9.7 1.2 2 .9 2.9-.8 2.8-7.3-.1-9.1-2.9-1.8-1.6-2.7 3.8-2.7 4.3 0 4.7-.2 5.4-2.9.5-1.6.4-3.6 0-4.4-.9-1.6-4.1-2.6-4.1-1.2 0 .8-3.9 2.2-7 2.5-2.4.3-6 2.4-6 3.6 0 .6-1.2 1-2.7.8-1.6-.1-3.6.2-4.6.6-1 .4-2.3.2-3.2-.5-.8-.7-2.1-1-3-.6-.9.3-1.9-.3-2.5-1.4-.6-1.1-1.9-2-2.9-2-1.2 0-2.1-1-2.5-2.5-.7-2.7-10.3-9.5-13.5-9.5-1 0-2.6-.9-3.6-2s-1.4-2-.9-2c.5 0-1.1-1.1-3.5-2.5-4.9-2.9-6.6-3.1-5.8-1zm238.7 84c0 .8-.4 1.5-1 1.5-.5 0-1-.7-1-1.5s.5-1.5 1-1.5c.6 0 1 .7 1 1.5zm41.2 67.8c1.9 1.9 2.1 2.8 1.4 5-1.6 4.5-4.1 2.7-4.8-3.6-.5-4.3.2-4.6 3.4-1.4zm18.2 25.3c1.3.5 1.4.9.5 2-1.3 1.6-2.9.9-2.9-1.2 0-1.6.2-1.6 2.4-.8zm-5.4 6.4c0 2.9-3 3.8-4.6 1.5-1.1-1.5-1.1-2-.1-2.7 2.3-1.5 4.7-.9 4.7 1.2zm25 1c0 .5-.4 1-1 1-.5 0-1-.5-1-1 0-.6.5-1 1-1 .6 0 1 .4 1 1zm-87.5 3.1c1.2 1.9-.5 2.3-2.2.6-1.6-1.6-1.6-1.7-.1-1.7.9 0 2 .5 2.3 1.1zm14.5.9c0 .5-.9.6-2 .3s-1.7-.9-1.5-1.4c.7-1 3.5-.1 3.5 1.1zm-6 1.6c0 1-.7 1.4-2.2 1.2-3.2-.5-3.5-2.8-.4-2.8 1.7 0 2.6.5 2.6 1.6zm155.7 4.6c-.3.8-.6.5-.6-.6-.1-1.1.2-1.7.5-1.3.3.3.4 1.2.1 1.9zm-116.7 2.8c-.6.4-1 1.1-.8 1.6.1.5-.5 1-1.4 1.2-1.2.2-1.8-.3-1.8-1.6 0-2.5.7-3.1 3.1-2.5 1.4.4 1.7.8.9 1.3zm23.5.6c2 3.1 1.5 7.4-1.5 11.1-1.6 2.1-2.1 2.3-2.6 1-.3-.9-1.1-1.3-1.9-1.1-1.5.6-3.9-5.2-2.5-6.1.5-.3.7-2 .3-3.7-.5-2.8-.4-3 1.6-2.3 1.2.4 2.1.2 2.1-.4 0-2.1 2.8-1.1 4.5 1.5zm-9.5 20.3c0 .3-.4 1.2-.9 2-.7 1-1.3 1.1-3 .2-3-1.6-2.6-2.8.9-2.8 1.7 0 3 .3 3 .6zM704.485 106.413c-.3.5-.2 1 .4 1 .5 0 1.3-.5 1.6-1 .3-.6.2-1-.4-1-.5 0-1.3.4-1.6 1zM204.985 116.413c0 .5.5 1 1.1 1 .5 0 .7-.5.4-1-.3-.6-.8-1-1.1-1-.2 0-.4.4-.4 1z"/><path d="M521.685 116.913c-1 .7-1.5 1.5-1 1.8.5.3 1.6-.1 2.6-.8 1-.7 1.5-1.5 1-1.8-.5-.3-1.6.1-2.6.8zM517.385 119.113c.4.9.3 1.9-.2 2.2-.5.3-1.2 2.1-1.5 3.8-.5 2.6-.3 3.3.9 3.3.8 0 1.3-.4 1-.9-.3-.5 0-2.4.8-4.2 1.4-3.5 1.2-5.9-.6-5.9-.6 0-.7.8-.4 1.7zM202.585 121.513c-1.7 2.9-1.4 5.8.3 3.1 1.1-1.8 3.5 1.2 2.8 3.3-.8 2 1.1 2.9 2.8 1.5.8-.7 1.5-.9 1.5-.5 0 .5.8.1 1.8-.8 1-1 2.2-1.4 2.6-1 .3.4 1.2.8 1.9.9.7.1 1.9.5 2.8.8.9.4 2.1 0 2.8-.7.9-1.2.8-1.6-.4-2.1-.8-.3-1.5-.1-1.5.4s-1.3.5-3.1 0c-1.7-.5-3.4-.8-3.8-.7-1.1.3-7.1-2.5-6.7-3.2.2-.3-.1-1.4-.8-2.3-1.1-1.5-1.4-1.4-3 1.3zM520.485 122.413c-.8 1.3-.1 2.4 1.4 1.9.6-.3.7-1 .2-1.8-.6-1-1-1-1.6-.1zM525.985 122.413c0 .5.5 1 1 1 .6 0 1-.5 1-1 0-.6-.4-1-1-1-.5 0-1 .4-1 1zM530.985 128.913c0 .9.5 1.5 1.1 1.3.6-.2 1.1-.8 1.1-1.3s-.5-1.1-1.1-1.3c-.6-.2-1.1.4-1.1 1.3zM538.185 130.313c.4 1.3 1.8 1.6 1.9.4 0-.4-.5-.9-1.1-1.2-.7-.2-1.1.2-.8.8zM210.285 134.413c.3 2.2.1 4.2-.3 4.5-.5.3-1.2 2.6-1.6 5.2-.4 2.5-1.6 5.5-2.8 6.7-2.2 2.2-9.9 5.6-12.9 5.6-1 0-1.5.4-1.2 1 .3.5 0 1-.7 1-1.9 0-4.1 3.7-2.5 4.4.9.3.8.7-.3 1.5-1.6 1.1-5-1.2-5-3.6 0-.7-.6-1.3-1.4-1.3-1.6 0-8.1-3.5-10.8-5.8-1.2-1-1.8-1.1-1.8-.4 0 .7-.7 1.2-1.5 1.2s-1.5.6-1.5 1.2c0 .7-1.5 2.5-3.4 4-2.4 2-3.5 3.7-4 6.8-.5 3.1-1 4-2.1 3.6-.8-.3-1.5 0-1.5.6s-.9.3-2-.7c-1.5-1.4-3.9-1.9-9.5-2.1-7.1-.2-9.5.6-5.8 2 1.3.5 1 1.1-1.7 3.1-1.9 1.4-4.2 2.5-5.2 2.5s-1.8.7-1.8 1.5-.4 1.5-1 1.5c-.5 0-1 1.5-1 3.3 0 3.8-4.3 8.7-7.7 8.7-1.1 0-2.6.7-3.3 1.5-.7.8-1.6 1.3-2 1-.4-.3-1.1.2-1.4 1-.4 1.2-1 1.3-2.3.6-2.5-1.3-7.5-.2-9.3 2-1.2 1.5-3 2-8 2.1-3.6.1-7.6-.2-8.9-.6-2.1-.7-2.3-.6-1.8 1.6.4 1.5.1 3.2-.8 4.4-.8 1-1.5 2.7-1.5 3.6 0 .9-.9 1.9-1.9 2.3-1.2.3-1.8 1.2-1.5 2 .8 1.9-1.5 5.7-2.8 4.9-.6-.4-1.6 0-2.2.8-1 1.3-4.4 3.2-5.6 3.1-.3-.1-1.4-.3-2.5-.6-1.1-.4-2.8 0-3.8.7-1.7 1.3-1.7 1.5.3 5 2.4 4 1.9 6.2-1 4.6-2.5-1.4-2.7-1.3-3.3 1-.3 1.3-1.1 1.8-2 1.4-1-.3-2.1.3-2.9 1.5-1.3 2.1-6.8 3-6.8 1.2 0-.5-1.3-.9-3-.9-1.6.1-3 .5-3 .9 0 .5-.6.6-1.4.3-.8-.3-2.8.2-4.5 1.1-1.7.8-3.1 1.2-3.1.9 0-.4-.9.1-2 1.1s-2 2.6-2 3.6c0 1.9-5.5 4.9-8.9 4.9-.9 0-2.4.9-3.3 1.9-2.6 3.1-6.8 1.1-7.2-3.4-.1-1.3-1-1.5-3.7-.8-1.8.5-1.9.8-.8 1.7.8.6 2 2.3 2.8 3.8.8 1.5 1.7 2.7 2 2.6 2.2-.2 4.2.4 5.7 1.9 1.5 1.6 1.5 1.7-.2 2.4-1.5.6-1.6.8-.3.8.9.1 2.3.9 3 1.8 1 1.1 1 1.4.2.9-1.3-.7-1.7.7-1.6 6.1 0 1.3-.6 2.3-1.3 2.3-.8 0-1.4.5-1.4 1 0 .7-.6.7-1.8.1-1-.5-2.4-.6-3.2-.1-.8.5-2.2.4-3.2-.1-1.7-.9-1.8-.8-.6 1 1 1.6 1 2.3 0 3.3-.6.6-1.2 1.7-1.2 2.3 0 .5.4.4.9-.4.8-1.2 1.5-.9 4 1.5 1.9 1.7 2.9 3.5 2.6 4.5-.3.9.1 2.2.9 2.8.8.7 1.3 1.8 1 2.6-.4 1 .2 1.1 3 .5 2-.4 3.6-.4 3.6 0 0 1.3 3.3 2.1 4.4 1 1.7-1.7 4.5-1.1 6.9 1.2 5.1 5.3 6.9 6.3 11.2 6.3 2.4 0 4.1-.3 3.9-.7-.3-.5.9-1.1 2.6-1.4 2-.5 3.6-1.6 4.6-3.5.8-1.6 2.1-2.9 3-2.9.8 0 1.7-.7 2-1.5.4-.8 1.3-1.5 2.1-1.5s1.1.4.8 1c-.9 1.5 3.1 1.2 4.4-.3.6-.8 2.6-1.2 4.8-1 4.5.3 6.2-.9 5.6-4.1-.5-2.2-.2-2.4 3.2-2.4 2.4 0 4.1-.6 5-1.9.8-1 1.5-1.4 1.5-.9 0 .5.7.3 1.5-.4 1.2-1 1.8-1 3 0 .8.6 2.2.9 3.2.6 1-.3 3.1.1 4.8 1 2.8 1.4 3.1 1.4 4.6-.5 1-1.2 2-2.1 2.4-2.1 1.2 0 3.6-3 3.1-3.9-.7-1 1.6-2.1 4.4-2.1 2.1 0 5.3-2.8 4.5-4-.3-.4-1.4-.6-2.4-.3-2.8.7-3.7-3.1-1.6-6.4l1.8-2.6 1.8 2.4 1.9 2.4v-2.6c0-1.8.6-2.8 2-3.2 1.4-.3 2-1.4 2-3.1 0-1.9.5-2.6 2-2.6 1.1 0 2-.7 2-1.5s.5-1.5 1.1-1.5c.7 0 .9-1 .5-2.6-.5-2-.2-3 1.2-4 1.6-1.1 1.9-2.2 1.4-6.1-.5-4.4-.4-4.7 1.1-3.4 1 .7 1.8 1 1.8.5.4-3.2.3-4.1-.8-5.4-.7-.9-1.9-3.5-2.7-5.8-1.2-3.4-1.3-4.2-.2-4.2.9 0 1.2-.9.9-2.5-.3-1.5.3-3.4 1.5-5 1.2-1.5 1.9-3.2 1.6-4-1-2.5 2.6-6.5 5.7-6.5 2.4 0 2.9-.4 2.9-2.5 0-1.8 1-3.1 3.3-4.5l3.2-2 1.7 2.3c1.1 1.5 2.5 2.1 4.2 1.9 2.2-.3 2.6 0 2.6 2.3 0 1.5-.4 2.4-1 2-.6-.3-.7.1-.4.9.3.9 1.3 1.6 2.1 1.6s2.4 1.1 3.5 2.5 2.3 2.3 2.8 2c1.2-.8 2 3.7.9 5.1-1.4 1.8-3.7.7-4.1-1.9-.4-3.1-4.3-3.5-5.8-.7-1 1.9-1.7 2.1-5.5 1.6-2.4-.4-4.6-.3-4.9.2-.3.5-1.7.7-3.1.4-1.8-.3-2.5 0-2.5 1.2 0 .9.6 1.3 1.4 1 .9-.3 2.1.5 3.1 2 1.1 1.7 2.7 2.6 4.4 2.6 3.4.1 6.8 4.4 5.1 6.5-.9 1.1-.7 1.6.9 2.5 1.7.8 2.1.8 2.1-.4 0-.7.7-1.7 1.6-2 2.3-.9 2.7-.8 2 .9-.8 2.2 1.1 1.8 2.7-.5l1.4-2 1.8 2c1 1.1 2.8 2 4.1 2 2.8 0 5.3 3.8 3.4 5-.7.4-1 1.6-.8 2.6.3 1.5 1.1 1.8 3.8 1.6 3-.3 3.9.2 5.9 2.9 1.4 1.8 2.4 3.8 2.4 4.5 0 .7.4 1.1.9.8.5-.3 1.5 0 2.3.6.8.7 1.5.9 1.5.4.1-.5 1 1.1 2.1 3.5 1.2 2.4 1.7 4.6 1.2 5-.8.6-1.3 3.3-1.6 8.8-.2 2.7-.6 3.3-2.6 3.3-1.6 0-2.1.4-1.7 1.5.3.9-.5 2-2.2 2.9-1.5.9-2.1 1.5-1.3 1.6 2.2 0 .6 10.1-2 12.2-1.2 1-1.6 1.9-.9 2.3.7.4.5 1.3-.7 2.4-2.9 2.6-4.4 6.1-3.8 8.2.4 1.3 0 2.7-.9 3.8-1.6 1.7-1.5 1.9 1.3 3.1 1.7.7 3.3 2.1 3.6 3.1.4 1 2.2 2.3 4.2 2.8 4.1 1.2 7.3 3.7 7.3 6 .1 3.9 4.9 6.3 12.5 6.2 2.1 0 3.8.9 6.1 3.4 2.9 3.2 6.4 4.7 6.4 2.6 0-.4 1.1-.6 2.4-.4 2.3.5 2.4.3 1.9-3.6-.6-4.4 0-5 2.7-2.6 1.5 1.3 2.2 1.4 4.4.3 2.2-.9 3.2-.9 4.7 0 1.3.9 2.5.9 3.7.3 2-1 8.8.1 10.4 1.7 1.1 1.1 0 6.4-1.2 5.7-1.5-.9.3 3.9 2.2 5.9 1.6 1.7 2.1 1.8 4.3.6 1.4-.7 2.5-1.9 2.5-2.6 0-.6 1.6-2.8 3.6-4.8s3.2-3.6 2.8-3.6c-.5 0-.3-.4.5-.9 1-.6 1-1.3.2-2.9-.9-1.7-.7-2 2.1-2.6 2-.4 3.4-.2 3.9.6.6.9 1 .8 1.4-.4.4-1 .4-2.2 0-2.8-.4-.7.2-.9 1.8-.5 2 .5 2.7.2 3.2-1.4.7-2.2-.5-3.8-4-5.9-1.9-1.1-1.8-1.1.8-1.2 1.5 0 3.6.9 4.7 2s2.4 2 3 2c1.3 0 2.8 3.2 2.3 4.8-.4.9.2 1.1 2 .7 2.2-.6 2.5-.4 2 1.4-.3 1.2-1.2 2.1-1.9 2.1-.8 0-1.7.7-2 1.5-.5 1.1-1.1 1.2-2.5.4-2.2-1.1-3.9-.4-3.9 1.7 0 .8-.5 1.4-1 1.4-.6 0-.5.8.2 2 1 1.6 1 2.4.1 3.8-1.4 1.9-4.3 8.1-4.3 9.1 0 1.1 6.4 3.1 6.9 2.2.4-.4 1.7-1.2 2.9-1.6 1.3-.4 3.3-1.6 4.3-2.6 1.8-1.8 1.8-2.2.4-5.5-1.9-4.6-1.9-4.4 1-4.4 3.1 0 10.4-2.8 12.8-4.9 1.7-1.4 2.4-1.4 7.7.5 3.3 1.1 6.5 1.7 7.1 1.3.7-.4 2.3 0 3.7.9 1.9 1.2 2.8 1.3 4.3.4 1-.6 2.5-.9 3.4-.6.8.4 2.2.1 2.9-.6 1.1-.8 2-.9 3.6 0 1.1.6 2.9.9 3.8.6 3.2-1 13.2 5.1 13.2 8.1 0 .7.8 1.4 1.8 1.4 5 .4 6.4.7 7.5 1.8.6.6 2 1.1 3.2 1.1 1.2 0 3 .7 4.1 1.5 2.7 2 5.8 1.9 8.5-.5 2.4-2 2-3-1.6-4.3-.5-.2 0-1.8 1.2-3.4 1.6-2.3 1.9-3.3 1-4.2-.8-.8-.6-1.1 1-1.1 3.2 0 8.3-3.2 8.3-5.3 0-1.7 1.5-2.3 2.3-.9.3.4-.1 2.4-.8 4.6-1.6 4.6-1.3 5.7 2.3 7.7 3.9 2.2 6.2 1.4 6.2-2.3 0-1.7.7-3.6 1.5-4.2.9-.7 1.2-1.9.9-3.4-.7-2.5-2.4-3-2.4-.6 0 2.7-2 .4-2.1-2.4 0-1.5-.3-2.1-.6-1.5-.6 1.7-2.3 1.7-2.3 0 0-.8-.8-2.1-1.7-3-4-3.6-6-5.4-8.4-7.1-1.4-1.1-1.7-1.6-.6-1.3 2 .7 2.1-.1.3-2.6-1.1-1.4-1.1-2.6-.3-5.2.7-2.5.7-4.2-.1-6-.6-1.4-.9-3.2-.5-4.1.5-1.4.2-1.6-2-1-2 .5-2.7.2-3.2-1.4-.3-1.1-1.5-2-2.5-2s-2.1-.6-2.3-1.3c-.3-.6-.6-.2-.6 1.1-.1 1.5-.5 2.1-1.3 1.6-.6-.4-1.7 0-2.3 1-1.1 1.4-1.7 1.5-4.1.5-1.6-.6-4.4-1.1-6.2-1-2.6.1-3.4-.3-4.2-2.4-.5-1.4-1.6-2.5-2.4-2.5-.8 0-2.4-1.1-3.4-2.5-1.1-1.4-4.4-3.8-7.4-5.4-2.9-1.6-5.8-3.7-6.3-4.9-2-3.8-3.7-5.1-7.4-5.8-2-.4-4.2-1.5-4.9-2.6-.7-1-2-1.8-2.8-1.8-.8 0-1.4-.4-1.4-.8 0-1.8 3.1-7 4.5-7.6.8-.3 1.5-1 1.5-1.6 0-1.2 4.8-6 6-6 1.1 0 .6-3.2-.8-5.8-.8-1.3-1.1-3-.8-3.8.6-1.5-2.8-7.2-5.1-8.7-1.9-1.2-1.7-4.8.2-4.1.9.4 1.5.1 1.5-.7 0-.7 1.4-2.7 3.1-4.5 2.5-2.5 2.9-3.5 2.1-5-.6-1.1-1.6-3.3-2.2-5.1-1.1-3-3.2-4.3-7.8-4.7-1.2-.1-3.2-1.2-4.5-2.4-1.9-1.9-2.2-3.4-2.3-10-.3-12.1-1-14-4.7-12-1 .5-2 .8-2.1.6-3.6-5.5-3.7-5.8-1.7-5.8 1.1 0 2.3-.5 2.7-1.1.4-.7 0-.9-1.4-.5-1.9.6-3.8-1.6-2.8-3.3.2-.3-.7-1.1-2-1.8-2.1-1-2.4-.9-2.4.7 0 1.1.9 2.5 2.1 3.3 1.3.9 1.6 1.7 1 2.1-.6.4-2.2-.4-3.6-1.8-1.4-1.5-3.1-2.6-3.6-2.6-.6 0-2.6-1.2-4.5-2.6-1.9-1.5-3.4-2.3-3.4-2 0 1.7 3.2 6.6 4.3 6.6.6.1.2.6-1.1 1.3-1.2.7-1.9 1.7-1.5 2.1.4.5.1.7-.7.4-1.6-.5-3.3-6.8-1.9-6.8 1.3 0-1.2-4.1-4-6.4-1.3-1-3.6-3.7-5.2-5.9s-2.9-3.5-2.9-2.9c0 .5-2 2.3-4.4 3.8-3 1.9-4.6 3.7-5 5.6-.3 1.5-1.1 2.8-1.8 2.8s-2.5.6-4 1.4c-1.4.8-4.4 1.3-6.6 1.2-3.3-.2-4.8-1-8.1-4.4-2.3-2.3-4.1-4.8-4.1-5.6 0-1.7-2.7-4-4.9-4.1-5.3-.4-5.5-.5-4.3-1.7.7-.7 1.2-1.8 1.2-2.6 0-1.7-4.5-6.2-6.2-6.2-.6 0-.8-1.1-.6-2.5.6-2.7-.1-3.2-2-1.3-.9.9-1.2.9-1.2 0 0-.7-.5-1.2-1.1-1.2-.8 0-1 1.4-.6 4zm-16.2 96c.9 1 2.8 2.2 4.3 2.6 1.4.3 2.6 1.3 2.6 2.1 0 1.9-4.6 1-7.2-1.4-.9-.8-2.1-1.2-2.7-.9-.6.4-1.8-.8-2.7-2.5l-1.6-3.2 2.9.7c1.5.4 3.5 1.5 4.4 2.6zm-127.1 46.9c0 1.9-4.2 2.3-5.8.7-1.5-1.5-1.3-1.6 2.1-1.6 2 0 3.7.4 3.7.9zM544.585 132.913c.4.8.1 1.5-.5 1.5-1.7 0-1.4 2 1.1 7.2 2.3 4.8 3.8 6.1 3.8 3.2 0-.8.5-1.2 1-.9.6.3 1.1-.2 1.1-1.2.1-1 .3-3.2.4-4.8.3-2.5-.3-3.4-2.7-4.8-3.7-2.1-4.9-2.2-4.2-.2z"/><path d="M204.185 134.313c.4 2.1 3.4 2.6 4.1.8.4-1-.3-1.7-1.9-2-1.9-.3-2.4-.1-2.2 1.2zM577.585 140.013c-.4.9-.4 1.9-.1 2.2.2.3.7-.3 1.1-1.2.4-.9.4-1.9.1-2.2-.2-.3-.7.3-1.1 1.2zM561.285 143.513c-1.8.5-3.5 1.4-3.8 1.9-.3.5-1.2.7-2 .3-1.7-.6-2.1 1.2-.5 2.2 1 .6 3.7 6.1 4.8 9.5.2.8.4 3 .3 4.9-.1 2.6.2 3.2 1.4 2.7.9-.3 1.5 0 1.5.8s.9 1.6 1.9 1.9c2.7.7 3.5-4.2 1.4-8.4-2.3-4.6-.8-8.3 3.5-8.7 3-.3 3.7-1.1 3.3-4-.1-.6.5-1.2 1.3-1.2 1 0 1.3-.6 1-1.5-.7-1.7-8.7-1.9-14.1-.4zM571.385 170.613c1 .6 2.2.6 2.6.2.5-.5-.3-1-1.8-1.1-2.2-.1-2.4 0-.8.9zM700.985 183.413c0 .5.5 1 1.1 1 .5 0 .7-.5.4-1-.3-.6-.8-1-1.1-1-.2 0-.4.4-.4 1zM136.985 202.013c0 1.7 1.7 3.6 2.4 2.6.3-.5-.1-1.5-.9-2.2-.8-.7-1.5-.9-1.5-.4zM157.985 234.813c-.6.8-1.9 1.5-2.8 1.5-.9 0-2.4.1-3.2.2-.8 0-2.5-.2-3.6-.6-1.5-.5-2.3-.1-2.8 1.2-.6 1.4-.5 1.6.5.5 1.9-1.8 2.7-1.5 2.2 1.2-.3 1.3-1 2.3-1.6 2.3-3.1-.1-4.8.4-4.3 1.1.8 1.4-6.7 1.3-8.3-.1-.9-.7-3-1.4-4.7-1.6-2.9-.2-3.1 0-2.6 2.4.4 2.1-.3 3.3-3.1 5.9-2.7 2.4-3.5 3.8-3 5.4.6 2.3-1.4 8.2-3.1 9.4-1.1.7-1.2 1.1-1.4 5.9-.1 1.7-1.1 3-2.7 3.7-1.4.6-2.5 1.5-2.5 1.9 0 .5 2.4 2.4 5.3 4.3 2.8 2 5.2 4.2 5.2 5 0 1.8 8.5 6 13.5 6.7 1.9.3 4.4 1 5.4 1.6 1.5.7 2.3.5 3.6-1.3l1.8-2.3 2.3 2.4c1.3 1.4 2.9 3.4 3.5 4.4.6 1.1 2.2 2 3.5 2 1.4.1 2.9.4 3.5.7.5.4 1.8 0 2.9-.8 1.1-.8 1.4-1.4.6-1.4-.9 0-1.1-.8-.8-2.1.3-1.2-.1-3.2-.9-4.4-1-1.6-1.2-2.5-.5-3 .6-.3 1.1-1.7 1.1-2.9 0-1.7-.9-2.7-3-3.6-3.5-1.4-6-5-3.6-5 .8 0 1.6-1.4 2-3.4.4-2.2 1.4-3.7 2.6-4.1 2-.6 2.5-2.9 1.4-5.9-.3-.8-1.2-1.2-2-.9-1.9.7-5.3-3.6-5.4-6.8 0-2.3.4-2.6 3.5-2.6 4.3 0 5.4-.9 3-2.7-1.7-1.2-1.7-1.4.3-3.4 2.6-2.6 2.7-3.1.6-6-1.2-1.7-1.3-2.6-.4-3.7.6-.8.7-1.6.2-1.9-.6-.3-1.5.1-2.2.8zM102.485 276.413c.3.5.8 1 1.1 1 .2 0 .4-.5.4-1 0-.6-.5-1-1.1-1-.5 0-.7.4-.4 1zM163.985 296.313c0 1.7 1.8 3.1 4.1 3.1.5 0 .3-1.1-.3-2.5-1.3-2.9-3.8-3.3-3.8-.6zM416.985 309.413c2 1.3 3.3 1.3 2.5 0-.3-.6-1.4-1-2.3-1-1.5 0-1.5.2-.2 1zM380.585 335.913c-.6 1.8.3 2.5 3.1 2.5 3 0 2.9-1.2-.1-2.6-1.9-.9-2.6-.9-3 .1zM265.985 339.413c0 .5.7 1 1.6 1 .8 0 1.2-.5.9-1-.3-.6-1-1-1.6-1-.5 0-.9.4-.9 1zM259.985 340.913c-.7.8-.9 2.2-.6 3.1.5 1.3.2 1.5-1.5 1.1-1.9-.5-2.1-.3-1.5 2.6.3 1.8 1.4 3.7 2.4 4.4 3.9 2.8 4.4 3.6 3.9 6.8-.3 1.7-.1 3.8.3 4.6.6.8.5 1.6-.2 2-.7.5-.6 1.7.5 3.8 1.3 2.7 1.3 3.1.1 3.1-1.3 0-1.3.4-.1 2.7 2.5 5 2.8 8.9.8 10.7-1.1 1-1.7 2.5-1.4 3.7.3 1.1-.2 2.8-1.2 3.9-1.5 1.6-1.5 2.2-.5 3.5.8 1 .9 1.5.1 1.5-.6 0-1.1.5-1.1 1.1 0 .5.4.8.9.4.5-.3 1.2-.1 1.6.5.3.5.1 1-.4 1-.6 0-1.1.9-1.1 1.9 0 1-.6 2.1-1.3 2.4-.9.3-1.2 1.6-.9 3.6.5 3.6.4 3.6-4.5 1.6-4.4-1.9-4.3-1.9-4.3.5 0 2.2 6.9 12.4 7.8 11.6.3-.3 1.1-.1 1.9.6 1.9 1.5 2.7.3 2.5-3.5-.2-3.1-.1-3.2 3.7-3.1 2.2 0 4.6.6 5.4 1.3 1.2.9 1.6.8 2.1-.4.3-.8 1.2-1.5 2.1-1.5 3.6 0 12.5-6.4 12.5-8.9 0-.7.4-1 .9-.7 2.9 1.8 4.4-7.1 2-11.6-.8-1.5-.7-2.4.4-3.6 1.2-1.4 1.3-2.5.4-6.5-.7-2.8-1.7-4.7-2.5-4.7-1 0-1.3-.8-.9-2.6.3-1.6 0-2.8-.9-3.1-.8-.3-1.4-1.8-1.4-3.4 0-2.4-.4-2.9-2.4-2.9-3.2 0-5.4-2.6-2.9-3.4 1.3-.4 1.9-1.7 2-4.5.2-3.4-.2-4.2-3-6.3-2.5-1.9-3.9-2.3-6.4-1.8-3.3.7-5.3-.3-5.3-2.7 0-.8-.7-1.6-1.5-1.9-.8-.4-1.5-1.5-1.5-2.6 0-1.4.5-1.8 1.5-1.4 1.8.7 2-.8.3-2.2-2.5-1.9-5.5-2.3-6.8-.7zM784.585 357.513c.4 1.3.7 3.2.6 4.2 0 .9 1.2 2.4 2.7 3.2 2.9 1.4 4.9 6.5 2.7 6.5-.6.1.1 1.1 1.5 2.3 1.4 1.2 3.6 3.9 4.8 5.9 1.2 2.1 2.6 3.8 2.9 3.8.4 0 1.5 2.6 2.5 5.8 1 3.2 3 7.1 4.3 8.6 1.7 1.8 2.7 4.1 2.9 6.9.2 3.2 1 4.8 3.5 7 3.7 3.3 3.9 7.9.5 8.5-3.5.7-5.8 4.1-5.8 8.6.1 4.3-1.9 8.2-3.5 7.2-.6-.3-1.3 2-1.7 5.5-.6 5.1-.4 6.4.8 7.1 1.7.9 2 6.6.5 8.5-.6.7-.8 2.2-.5 3.3.3 1.3 0 2-.9 2-1.7 0-1.9 2.6-.3 3.6.6.3 1.5 0 2.1-.7.6-.9.8.1.6 3.1-.3 4.4-.3 4.4 3.4 5 2 .4 4.4 1.3 5.3 2 1 .8 3.5 1.3 6.5 1.1 2.6-.1 5.1.2 5.5.8.9 1.6 2.5.4 1.9-1.4-.3-.7 0-2.3.6-3.5 1-1.8 1.9-2.1 6.1-1.9 4.2.2 5.2-.1 6.5-2 1.2-1.6 1.9-2 2.7-1.2 2.5 2.5 9.9 0 9.6-3.3-.4-5.7.1-7.6 2.1-7.6 1.1 0 2-.5 2-1.1 0-.8.5-.8 1.5.1 1.9 1.6 2-.1.3-3.1-1.1-1.8-1-2.3.2-2.7.8-.3 2.7-1.9 4.3-3.5 2.2-2.4 2.7-3.8 2.7-7.9 0-3.9.3-4.9 1.4-4.5 2.2.9 6.6-1.6 6.6-3.6 0-1.2 1.2-2.3 3-3 3.1-1.2 4-2.7 1.6-2.7-.8 0-2.4-1.2-3.5-2.7-2.1-2.5-2.2-2.6-3.6-.7-1.4 1.8-1.4 1.8-1.5-.2 0-1.2-.7-2.7-1.5-3.4-.9-.7-1.5-2-1.3-2.9.1-.9-.1-2.2-.6-2.9-.6-1.1-1-1-1.9.2-1 1.3-1.4 1.2-3-1-1.2-1.6-1.4-2.4-.5-2.2.8.2 1.4-.8 1.6-2.5.2-1.7 1.6-3.8 3.8-5.5 1.9-1.5 3.4-3.4 3.4-4.2 0-3.3 1.6-4.3 4.9-3.2 2.6.9 3.2.8 4-.6.5-1 .7-3.1.4-4.7l-.6-3 2.5 2.2c2.8 2.7 4.7 2.9 4.9.8.1-.8.2-2.3.3-3.2 0-.9-.5-1.8-1.3-2.1-.8-.3-1.1 0-.7.7 1.3 2.1-1.5 1.1-4.1-1.5-2.2-2.2-3.2-2.6-7-2.1-2.4.2-4.6.1-4.9-.4-.3-.5-1.3-.8-2.2-.7-.9.2-1.7-.3-1.8-1-.1-.6-.2-1.5-.3-1.8 0-.4-.8 0-1.7.7-1.4 1.1-1.8 1-3.1-.6-1.5-2.2-6.7-2.9-5.9-.9.5 1.3-8.8 2.9-10.6 1.8-.7-.5-.9-.2-.5.9s-.4 2.5-2.5 4.2c-2 1.7-2.9 3.2-2.5 4.5 1 3.7-2.3 3-6.4-1.5-4.1-4.4-4.3-4.5-9.5-4.1-3.1.3-5.4 0-5.4-.5s-.9-1.3-1.9-1.7c-1-.4-4.4-3.1-7.5-6-3.1-2.8-6.1-5.2-6.6-5.2-.6 0-1-.9-1-1.9 0-2.2-2.2-4.1-2.8-2.3-.4 1.2-9.2-1.7-9.2-3.1 0-.4.6-.5 1.3-.1.7.5.6-.2-.4-1.6-2.2-3.4-4.3-3.9-3.3-.9zM368.585 370.213c-.2.4-.1 1.4.5 2.2.7 1.2.9 1 .9-.8 0-2.3-.5-2.8-1.4-1.4zM365.485 374.413c-.2.4.9 1 2.7 1.4 4.1.8 4.5.3.8-1.1-1.7-.6-3.2-.8-3.5-.3zM373.985 377.413c0 .5.3 1.1.8 1.1.4.1 1.6.3 2.7.5 1.1.1 3 .6 4.3 1 1.3.4 2.2.2 2.2-.5 0-.6-1.1-1.1-2.4-1.1-1.4 0-2.8-.5-3.1-1-.3-.6-1.5-1-2.6-1-1 0-1.9.4-1.9 1zM384.985 378.413c0 .5.5 1 1 1 .6 0 1-.5 1-1 0-.6-.4-1-1-1-.5 0-1 .4-1 1zM727.985 385.513c0 .5.5.7 1 .4.6-.3 1-.8 1-1.1 0-.2-.4-.4-1-.4-.5 0-1 .5-1 1.1zM435.985 400.013c0 1.1-.5 2.5-1.2 3.2-.6.6-.9 1.5-.5 1.9.4.3 1.7-.4 2.8-1.6 2-2.1 2-2.4.5-3.9s-1.6-1.5-1.6.4z"/><path d="M256.285 401.113c-.4 1-1.3 2.3-2.1 2.9-1.7 1.2-.8 3.4 1.4 3.4.8 0 1.4-1 1.4-2.6 0-1.4.4-2.3.9-2 .5.4.7-.3.4-1.4-.7-2.5-1.2-2.5-2-.3zM424.985 401.213c0 .5-1.1 1.4-2.5 2-1.4.6-2.5 1.6-2.5 2.2 0 1.5 3.9 1.2 5.6-.5 1.2-1.1 2-1.2 3.5-.5 1.5.9 1.9.7 1.9-.7 0-1.5.2-1.6 1.1-.3.9 1.3 1 1.3.6 0-.2-.8-1.5-1.5-2.8-1.5-1.3 0-3-.4-3.6-.8-.7-.5-1.3-.4-1.3.1zM400.585 402.813c.3.7 1.6 1.8 2.9 2.4 2.1 1 2.4 1.6 1.8 4.3-.6 3-.5 3 1.6 1.8 1.2-.8 2.4-2.2 2.7-3.2.4-1.2 1.2-1.6 2.5-1.2 1 .4 2.8.3 4 0 3-1 .9-2.8-3.6-3-1.9 0-4-.6-4.7-1.3-1.7-1.7-7.9-1.6-7.2.2zM688.985 402.413c0 .5.5 1 1.1 1 .5 0 .7-.5.4-1-.3-.6-.8-1-1.1-1-.2 0-.4.4-.4 1zM884.485 416.413c-.3.5-.1 1 .4 1 .6 0 1.1-.5 1.1-1 0-.6-.2-1-.4-1-.3 0-.8.4-1.1 1zM881.885 421.113c-1.2 1.6-1.2 1.7.2.6.9-.7 1.9-1 2.2-.6.4.3.7.1.7-.5 0-1.7-1.6-1.5-3.1.5zM560.585 423.913c.4.8.1 1.5-.6 1.5-.6 0-.8.4-.5 1 .3.5-.2 2.1-1.1 3.5-1.9 3-8.4 3.7-8.4.9 0-1.6-4.4-3.8-9.6-4.9-2.7-.5-2.8-.5-.5.5 1.4.6 3.1 2 3.8 3 .8 1.1 2 2 2.7 2 1.4 0 2.8 4.5 1.8 5.5-.3.3-1.9.5-3.7.5-3.5 0-5.6 1.6-4.8 3.5.5 1.4-3 3.8-4.1 2.8-1-1.1-.7 4.7.5 6.8.8 1.6.7 2.3-.6 3.3-1.6 1.2-1.2 4.6.6 4.6.5 0 .9.9.9 2.1 0 1.7-.4 1.9-2.2 1.3-2-.6-2.1-.5-.9.9 1.2 1.5 1.6 1.5 4.2-.6 2.2-1.6 2.8-2.9 2.6-4.9-.4-3.5 3.5-6.7 5.9-4.7 1 .8 1.4.8 1.4 0 0-1.9 1.4-1.2 3.3 1.7 1.4 2 2.8 2.8 5.4 3 3.7.2 8.3-2 8.3-4 0-2.7 3.5-8.8 5-8.8.9 0 2.2-1 2.7-2.3.9-1.8.5-2.8-1.8-5.5-1.6-1.8-2.9-4.4-2.9-5.9 0-1.4-.3-2.3-.7-2-.7.8-3.3-1.1-3.3-2.4 0-.5.7-.9 1.5-.9.9 0 1.2-.6.9-1.5-.4-.8-1.9-1.5-3.5-1.5-2.1 0-2.7.4-2.3 1.5z"/><path d="M531.585 458.913c.4.9 1.1 1.4 1.6 1.3 1.5-.5 1.1-2.3-.6-2.6-1.1-.2-1.4.2-1 1.3zM541.285 460.813c-2.6 1.2-3 2.6-.8 2.6.8 0 1.9-.9 2.5-2 .6-1.1.9-1.9.8-1.9-.2.1-1.3.6-2.5 1.3zM526.385 461.913c-.8 1.9.2 4.5 1.6 4.5.8 0 .7-.6 0-2-.6-1.1-.8-2.5-.5-3 .3-.6.4-1 0-1-.3 0-.8.7-1.1 1.5zM659.085 476.213c-.8 1.9-2.3 3.3-3.9 3.7-1.5.4-4.2 1.8-6 3.1-1.7 1.4-3.6 2.3-4.1 2-1.6-1.1-4 .5-3.4 2.1.5 1.3.2 1.5-1.5 1.1-1.3-.4-2.3 0-2.6.9-.4 1-1.5 1.4-3.1 1.1-1.4-.3-2.5-.1-2.5.3 0 .5-.7.9-1.5.9-3 0-7.3 3-7.9 5.5-.6 2.4-1.9 3-5.9 2.7-1.4-.1-1.6.3-1.1 2.2.7 2.8-1.3 4.5-2.3 1.9-.6-1.6-.8-1.5-1.3.7-.4 1.6-1.6 2.8-3.6 3.5-2.8.9-3 1.2-2.2 3.7.6 1.6 1.4 2.8 1.9 2.8s.9.9.9 2-.5 2-1.1 2c-.5 0-.7.5-.4 1 .3.6-.3 2.4-1.5 4-1.9 2.6-1.9 3.1-.6 3.6 2 .8 2.1 5.3.1 6-.8.4-1.5 1.7-1.5 3.1 0 2.1-.4 2.4-2.1 2-1.4-.4-1.9-.2-1.6.8.4 1-.8 1.2-5.1.9-3.1-.1-6.2.2-6.9.8-.9.7-1.7.7-2.8-.2-1.2-1-1.5-1-1.5.1 0 1.5-5.3 4.9-7.7 4.9-.9 0-1.3.6-.9 1.5.4 1.3-1.8 2.5-5.4 3-.3 0-1.6.8-3 1.7-3.8 2.4-9.5 3.1-10.9 1.4-1.3-1.5-4-1.1-5.3.8-.4.6-.8 2.5-.8 4.2 0 1.7-.7 3.7-1.5 4.4-.9.8-1.3 2.1-.9 3.2.5 1.7.4 1.8-1.5.7-1.1-.8-2.4-1-2.8-.5-.9.8 9.5 10.5 11.3 10.6.6 0 1.7.6 2.3 1.4 1.4 1.7 4.9 1.5 6-.3.6-.9 1.1-1 1.5-.2.4.6 1.8 1.1 3.2 1.1 2 0 2.4.4 2 1.8-.7 2.1 2.8 4.2 6.7 4.2 1.2 0 3.7.9 5.6 2.1 2.6 1.6 3.6 1.8 4.2.8.4-.7.5-1.7.3-2.1-.9-1.4 1.4-.8 3 .8.9.8 2 1.2 2.6.9.5-.3 1-.1 1 .4 0 .7 2 1 4.8.9 5.7-.2 13.2 1 15 2.5.9.7 1.8.5 3.2-.8 1.3-1.1 2.7-1.5 4.3-1.1 1.8.4 2.6.1 2.9-1.2.7-2.4-.1-4.2-1.8-4.2-.8 0-1.4-.4-1.4-.9s-.3-1.6-.6-2.4c-.4-1 .5-1.6 2.9-2.1 4.4-.8 6.4-3 4.8-5-.8-.9-.9-1.6-.2-2 .6-.4.8-2 .4-3.6-.5-2.7-.3-3.1 2.6-3.6 1.7-.4 3.1-1 3.1-1.5 0-1.8.3-2.4 1.7-3.5 1.3-.9 1.3-1.2-.1-2.3-.9-.8-1.6-2.4-1.6-3.6 0-1.3-1.1-3.7-2.5-5.3-1.4-1.7-2.2-3.3-1.7-3.6 1.3-.7.2-6.3-1.4-7.7-1.5-1.2-1.7-4.2-.5-7.3.7-1.8.9-1.7 2.5 1 1.2 1.9 2.6 3 4.4 3.1 2.5.1 2.6 0 .7-1.3-1-.8-2.2-1.4-2.7-1.4-1.9 0-.6-2 1.7-2.6 1.4-.3 2.5-1 2.5-1.6 0-.5.4-.7 1-.3 1 .6 4-4.5 4-6.9 0-.8 2.9-4.5 6.5-8.2 3.6-3.7 6.5-7.3 6.5-8 0-.7.9-1.9 2-2.7 4-2.8 6.2-11.6 4-15.8-.7-1.1-.7-1.9-.1-1.9 1.4 0 2.4-5.7 1.3-7.6-.7-1.3-1.1-1.1-2.1 1.4zM532.985 566.313c0 .6.8 1.5 1.8 2.1 1.1.7 1.3 1.3.6 1.6-1.7.7-.4 4.6 1.2 4 .8-.3 1.4.1 1.4.8 0 .7.7 1.9 1.5 2.6 1.1.9 1.5.9 1.5.1 0-.7.4-1 .9-.7 1.5.9 3.3-2.2 2.6-4.4-.4-1.3-1.5-2-3-2-1.3 0-2.8-.6-3.2-1.4-1.1-1.8-5.3-4-5.3-2.7zM540.985 581.413c0 .5-.9 1-2 1-2.4 0-2.6 1.3-.4 3.4 2 2.1 2.2 2 4.4-.7 1.3-1.6 1.5-2.6.8-3.5-1.3-1.5-2.8-1.6-2.8-.2z"/></g></svg>