<svg version="1" xmlns="http://www.w3.org/2000/svg" width="1373.738" height="855.39" viewBox="0 0 1030.303 641.543"><g fill="#222"><path d="M59.126 2.943l-4.3 3.9 3.2 1.1c1.8.6 3.4.9 3.7.6.3-.3 1.1 0 1.7.5.9.8 1.5.5 1.9-.7.4-1 .3-1.9-.2-2.1-.6-.2-.8-1.1-.5-2.2.3-1 .1-2.5-.4-3.4-.7-1.2-1.6-.8-5.1 2.3zm4.8-.9c0 .5-.4 1-1 1-.5 0-1-.5-1-1 0-.6.5-1 1-1 .6 0 1 .4 1 1zm-4.5 3c.3.5.1 1-.4 1-.6 0-1.1-.5-1.1-1 0-.6.2-1 .4-1 .3 0 .8.4 1.1 1zM117.426 5.043c.3.5 1.1 1 1.6 1 .6 0 .7-.5.4-1-.3-.6-1.1-1-1.6-1-.6 0-.7.4-.4 1z"/><path d="M47.926 9.443c-1 1.3-.9 1.7.4 2.2.9.3 1.6 1.3 1.6 2.2 0 1.3-.4 1.2-2.2-.5-1.3-1.1-2.9-1.8-3.6-1.6-1 .4-.8.9.7 2 1.2.8 2.1 1.9 2.1 2.5 0 1.5 6.7 8.8 7.4 8 .4-.3 1.5.4 2.6 1.6 1.1 1.2 3.4 2.9 5 3.7 1.6.8 3 2.5 3.2 3.7.2 1.3.6 2.2 1.1 2 .4-.1 2.3-.2 4.2-.2 3.2 0 3.5-.2 3.5-2.9 0-1.7.5-3.3 1-3.6.6-.4 1-1.4.9-2.3-.4-4.3.1-5.5 1.6-4.2 1.9 1.6 3.4.5 2.8-2.3-.4-2-.3-2.1 1-.5 1.8 2.2 3.5 2.3 5.9.1 1.5-1.3 2.1-1.4 3.1-.4.9.9.9 1.4-.2 2-1.1.7-1 1 .3 1.8 1.3.7 1.5 1.4.7 3.4l-1 2.4v-2.8c-.1-2.9-2.1-2.9-2.1 0 0 .9-.8 2.2-1.7 2.9-1.7 1.2-1.7 1.3.1 1 1.1-.2 3.1.9 4.4 2.3 2.1 2.3 2.2 2.6.7 2.9-1 .2-2.2-.2-2.6-1-.6-.8-.7-.1-.3 1.8.4 1.9.1 3.4-.5 3.8-.6.4-1.1 1.8-1.1 3.1 0 1.2-.7 2.6-1.6 2.9-1.1.4-1.5 1.9-1.3 6.1.3 6.2-.2 7-6.3 10-6.6 3.2-6.8 6.1-.7 12.3 4.9 5 7.3 10.2 4.8 10.2-2.2.1 3 4 5.2 4 1 0 1.9-.6 1.9-1.3 0-.8.3-.7 1 .3.6 1 .3 2.1-1.3 3.8-1.8 1.9-2 2.7-1.1 5.1.9 2.1.8 3.7-.4 6.4-.8 2.1-1.9 3.7-2.4 3.7-.6 0-1.7.8-2.5 1.7-1.4 1.7-1.4 1.7-.8-.2.5-1.6.4-1.7-.6-.8-1 1-.9 1.6.1 2.8 1.1 1.3 1 1.9-.4 3.4-1 1.1-1.6 3-1.4 4.3.2 1.7-.2 2.4-1.8 2.6-1.2.2-2.6 1.4-3.2 2.8-.8 1.6-2 2.4-3.7 2.4-1.4 0-2.5.5-2.5 1.1 0 .8-.5.8-1.5-.1-1.7-1.4-2-4-.5-4 .6 0 1-.5 1-1 0-.6-.9-1-1.9-1-2 0-3.5-2.4-3.2-5.2.3-2.2-1.9-3.4-3-1.7-.7 1.1-1.2 1.2-2.8.2-1.1-.7-2.7-1-3.5-.7-.8.3-1.7.1-2-.5-.4-.6-1.4-.7-2.4-.4-1.4.5-1.5.4-.6-.8.9-1.1.7-2.1-.7-4.4-1.3-2-1.9-2.4-1.9-1.3 0 .9-1 2-2.2 2.4-2.9.8-5.6 3.6-5.1 5.1.2.6-.1 1.4-.6 1.8-.6.3-1.1 1.9-1.1 3.6 0 2.4-.4 2.9-2.4 2.9-2.3 0-2.4.3-1.6 3 .5 1.8.5 3-.1 3-.5 0-.9 1.1-.9 2.5 0 2.2-.4 2.5-3.4 2.5-2.9 0-3.3.3-2.9 2 .4 1.6 1.4 2 4.8 2 3 0 4.5-.5 4.9-1.6.5-1.2 1-1.4 2-.5 1.8 1.5 2.9.1 1.3-1.7-.6-.9-.7-1.3-.1-.9.6.3 2.6-.9 4.4-2.8 1.9-1.9 4.2-3.5 5.2-3.5s1.8-.7 1.8-1.5c0-2.4 2.6-1.7 3.8 1 .9 1.9.8 2.7-.3 3.8-1.7 1.7-.7 3.1 1.1 1.6.9-.7 1.4-.5 1.9 1 .7 2.5 2.1 2.7 2.9.6.3-.8 1.2-1.5 2-1.5s2.2-.7 3-1.6c1-.9 2.4-1.3 3.6-.9 1.7.5 2 1.5 2 6 0 4.4-.4 5.6-2 6.5-3 1.6-2.5 2.6 2.6 4.9 5.1 2.4 8.4 2 8.4-1.1 0-1.7.2-1.8 1.5-.8.8.7 1.5 1.9 1.5 2.7 0 1.1.7 1.3 3.3.7 5.3-1.2 6.4-.8 11.7 4.4 2.8 2.8 6.2 5.3 7.5 5.6 1.3.3 2.2 1.2 2 1.9-.2.7 1.6 2.2 4.3 3.5 5.3 2.6 8.9 2.3 11.7-.9 1.6-1.6 2-1.7 4.5-.4 1.9 1 3 1.1 3.8.3.6-.6 2.2-1.1 3.6-1.1 1.7 0 2.8-.6 3.2-2.1.4-1.1 1.8-3.2 3.1-4.5 1.7-1.8 2.3-3.2 1.8-4.9-.6-2.6 1.4-9.2 2.8-9.2.5 0 .7-.7.4-1.4-.4-.9-.1-1.3.6-1 .7.2 2.7-.9 4.5-2.6 1.8-1.6 4-3 4.8-3 1.6 0 1.8-.9.4-3-.5-.9-.5-1.9.2-2.7 1.4-1.7.3-4.2-1.6-3.9-2.2.3-3 1.3-4.1 5.3-.9 3.3-1.3 3.5-5.8 3.9-2.6.2-5.5.7-6.4 1.2-2.2 1.3-6.7-1.2-9.5-5.1-1.3-1.8-2.1-3.4-1.9-3.7.2-.3-.6-.9-1.8-1.5-1.2-.5-2.4-1.7-2.6-2.6-.5-1.6-4.1-2.5-12.7-3.2-1.7-.1-2.8-.8-2.8-1.6s.3-1.2.6-.8c1.1 1.1 3.3-1.7 2.3-3-.7-.8.1-1 3.1-.7 2.2.2 4-.1 4-.6s.7-.7 1.5-.4c.8.4 1.5.2 1.5-.4 0-.5 1.4-1.5 3-2.2 2.5-1 3-1.8 3-4.6 0-3.2 1.2-4.5 2.4-2.6.3.5 1.8.7 3.4.4 1.6-.2 3.3.1 3.6.7.4.6 1.8 1.1 3.2 1.1 1.3 0 2.3.5 2.1 1.1-.1.6.3 1.3 1 1.6 1.5.6.6-6.6-1.2-8.7-3.5-4.3-4.8-9.7-4.6-19.5 0-1.1-.2-5-.4-8.8-.2-5.3 0-6.7 1.1-6.7.9 0 1.4-1.1 1.4-3.1 0-2.3.5-3.2 2-3.6 1.1-.3 2.3-1.6 2.6-2.9.3-1.3 1-2.4 1.5-2.4.8 0 .6-3.9-.6-12.9-.6-4.2-3.8-9.1-5.1-7.8-.4.3-1.6 0-2.8-.8-1.1-.8-2.8-1.5-3.8-1.5s-1.8-.5-1.8-1.1c0-1.6-6.2-8.9-7.1-8.3-.5.3-2-.6-3.3-1.9-2.5-2.5-6.6-4.1-6.6-2.6 0 .5-.9.9-2 .9s-2-.5-2-1.1c0-1.8-6.3-.2-8 2-2.3 2.9-5.7 3.5-8.8 1.6-1.5-1-2.1-1.2-1.4-.4 1.7 1.8 1.5 3.4-.3 1.9-1-.8-1.5-.9-1.5-.1 0 1.5-6.2.2-7.7-1.7-.7-.8-1-1.9-.7-2.4.3-.5 0-1.5-.6-2.3-1.4-1.7-5-2-5-.4 0 .5-.4.8-.9.5-.5-.3-1.2.1-1.5 1-.3.8-1 1.2-1.6.9-.7-.4-.8.8-.4 3.6l.7 4.2-3.9-2.7c-3.8-2.5-3.9-2.6-4.2-.6-.4 2.2-3.1 2.7-4.9.9-.8-.8-1.3-.8-1.7 0-1.1 1.7-4.6-.6-4.6-2.9 0-1.5.7-2 2.4-2 3.4 0 4.2-1.6 1.2-2.4-1.3-.3-3.1-.8-3.8-1.1-.8-.3-2.1.1-2.8.9zm16.5 9.6c.3.5.1 1-.4 1-.6 0-1.1-.5-1.1-1 0-.6.2-1 .4-1 .3 0 .8.4 1.1 1zm17.2 122.2c-.3.7-.5.2-.5-1.2s.2-1.9.5-1.3c.2.7.2 1.9 0 2.5zM381.626 27.243c1.2 1.6 1.4 5.8.3 5.8-.4 0-1.1 1.8-1.5 4-.4 2.2-1.1 3.8-1.6 3.4-.5-.3-1.2.9-1.5 2.6-.4 1.7-1.5 3.5-2.5 4.1-1.1.5-1.9 1.6-1.9 2.3 0 .8-1.5 2.7-3.3 4.3-1.8 1.5-3.1 3.6-2.9 4.5.2.9-.3 2.2-1.1 2.9-1.2 1.2-1 1.5 1.6 2.4 2.4.8 3.3 1.8 3.8 4.3.4 2.2.3 3.5-.5 3.8-.7.3-1 1.8-.8 3.9.4 3.3.3 3.5-2.7 3.5-2.9 0-3.1.3-3.1 3.4 0 1.9.6 3.6 1.3 3.9.6.2-1.1 1.5-4 2.8-4.4 2-5.1 2.7-4.7 4.6.9 3.4-.5 6.3-2.9 6.3-1.3 0-3.3.7-4.5 1.6-1.3.9-2.8 1.4-3.5 1.1-1.6-.6-3.8 1.8-2.7 2.9 1.5 1.5-.1 9.4-2.1 10.5-1.2.6-1.9 2.1-1.9 3.8 0 2.4-.5 3-3.2 3.6-1.8.4-3.8.7-4.5.6-.6-.1-1.4.8-1.8 1.9-.3 1.1-1.5 2.4-2.5 3-1.5.8-1.7.6-1.3-1 .5-1.9.3-2-2.3-.9-1.6.7-4 1.1-5.4 1.1-3.3-.2-4.9.9-5.2 3.7-.4 3.3 2.3 3.5 5.5.5 3.4-3.2 6.1-3.2 5.2-.2-.4 1.3-1.1 2.7-1.6 3.3-1.4 1.4-1.1 2.5.6 1.9.8-.4 1.5-1.2 1.5-2 0-2.3 3.2-1.6 6.2 1.3 3.1 3 3.5 4.3 1.4 4.3-1.9 0-3.7 8.5-2.5 11.7.7 1.8.4 2.8-1.1 4.3-1.9 1.9-1.9 2 .6 5 2.8 3.2 2.5 3.7-.9 1.8-2.6-1.3-7.7-1.9-7.7-.8 0 .4-3 1.1-6.7 1.5-3.8.4-8 1.3-9.5 2.1-3 1.6-10.4 1.9-11.2.5-.3-.5-2-1.4-3.6-2-1.7-.5-2.8-.6-2.5-.1.3.5-.3 1.1-1.4 1.5-1.9.6-3.4 3.7-3.9 8.3-.1.7-.6 1-1.2.7-.9-.6-1.2-.2-1.4 2.7-.2 2.2-5.8 5.8-9.1 5.8-2.1 0-3.8-.9-5.7-3-1.4-1.6-2.3-3.2-2-3.5.8-.7-2.9-4.5-4.5-4.5-.7 0-1.3-.5-1.3-1 0-.6-1.8-1-4-1s-4-.5-4-1c0-.6-1.8-1-4-1-3.6 0-4-.2-4-2.5 0-1.7-.7-2.8-2.2-3.4l-2.3-.8 2.3-.7c1.5-.5 2.2-1.5 2.2-3.1v-2.4l-3.6 2.1c-2 1.2-3.9 3-4.2 4.1-.4 1.6-1.1 1.8-5.3 1.2-4.1-.6-4.9-.4-4.9.9 0 1.8-3.6 4-5 3.1-.6-.3-1 .3-1 1.4 0 1-.5 2.1-1.2 2.3-.6.2-1.1 2.3-1.1 4.9.1 4-.2 4.8-2.8 6.3-3.6 2.1-3.8 4-.4 3.4 1.4-.3 2.5-.2 2.5.1 0 .9-4.4 3.6-5.4 3.3-.5-.2-.4.4.4 1.2.7.9 1.9 1.6 2.7 1.6.7 0 1.6.7 2 1.6.3.8 1.2 1.3 2 1 1.1-.5 1.3.5 1 5.2-.2 3.1 0 6.5.5 7.4.5 1 .3 2.1-.5 3-1.7 1.7-.6 6.2 1.6 6.6.9.2 1.7-.2 1.7-.9 0-.8.9-.5 2.3.8 1.2 1.1 3 2.3 4 2.6 1 .4 1.6 1.1 1.3 1.6-.3.5 1.1 1.1 3.2 1.4l3.7.6-.4 4.7c-.3 4.9-.6 4.4 7.4 12.6 2.2 2.2 2.6 3.2 1.6 3.5-1.6.6-4 3-6.1 6.1-.8 1.2-2.3 2.2-3.3 2.2-1.6 0-1.8.6-1.5 3 .3 2.3 0 3.1-1.4 3.6-1 .3-1.6 1-1.2 1.5.3.6 0 1.7-.7 2.6-.8.9-1.4 2.1-1.4 2.7-.1.6-.5 2.3-.9 3.7-.6 2.1-1.2 2.5-2.8 2.1-1.7-.4-1.9-.1-1.3 1.7.3 1.1.2 2.1-.3 2.1-.6 0-1.2.6-1.5 1.4-.4 1.1.5 1.1 6.1-.1 3.7-.7 7.2-2 7.8-2.8 1.6-2.1 5.1-1.9 6.4.4 1.3 2.5 1.3 5.4 0 4.6-.5-.3-1-.3-1 .2.1 1.4 7.2 6.3 9.2 6.3 1 0 1.8.7 1.8 1.5 0 1.1 1.1 1.5 3.8 1.5 3.8.1 7.2 1.8 7.2 3.8 0 .6 1 2.2 2.3 3.6 1.8 1.9 2.2 3.3 1.9 6-.2 2-.9 3.6-1.4 3.6-.6 0-.8.6-.5 1.4.3.8-1.1 2.7-3.4 4.7-3.5 2.9-3.7 3.4-2.4 4.9.8.9 1.5 2.2 1.5 2.8 0 1.4-3.3 2.4-5.5 1.6-3.5-1.4.5 3.7 4.1 5.2 3.5 1.5 6.4 6.4 6.4 10.9 0 1.2.9 2.9 2 3.6 2.2 1.6 1.8 6.1-.5 5.3-2.1-.8-2.9 1.6-1 3 .9.7 1.8 2.6 1.9 4.2.4 4.3 1.6 6.4 3.7 6.4 1.1 0 2.7.9 3.7 2.1.9 1.1 3.7 3.2 6.1 4.6 2.7 1.7 4.9 3.9 5.7 6 .8 1.8 1.6 3.3 1.9 3.3.2 0 1.3-1 2.5-2.2 1.1-1.2 2-1.6 2-1 0 1.6 5.2.4 6.3-1.4 1-1.7 5.7-.3 7.4 2.3 1.3 1.9 1.1 2.2-2.2 4.3-2 1.2-4.3 3.3-5.2 4.6-.8 1.3-2.1 2.4-2.9 2.4-.7 0-1.7.8-2.2 1.7-.8 1.4-1.5 1.5-4.3.6-1.9-.5-3.3-1.4-3.2-1.9.3-1.7-6.5-1.4-7.1.3-.4.9-1.3 1.3-2.2.9-.9-.4-2.3-.1-3.1.5-.7.7-1.6.9-2 .5-.3-.3-1.5.2-2.5 1.1-1.5 1.3-2.3 1.5-3.7.6-1.5-1-1.9-.5-2.9 4.4-1.3 6.3-1.1 7 2.6 8.5 1.5.6 2.2 1.2 1.5 1.5-.8.3-.9 1-.3 2.1.5.9 1.1 2.5 1.4 3.5.3 1 1 1.6 1.5 1.2.5-.3 1.2-.1 1.6.5.3.5 1.4 1 2.5 1 1.4 0 1.7-.5 1.3-2.1-.6-2-.3-2.1 2.3-1.5 1.6.4 4.2 1.6 5.8 2.8 2 1.4 3.8 1.9 6 1.5 5-.8 8.6.2 8.6 2.5 0 2.6 2.3 6.8 5.4 9.7 1.4 1.3 2.3 2.7 2.1 3.2-.6.9 5.2 5.9 6.9 5.9 1.5 0 5.7 4.5 8.2 8.7 1 1.9 2.6 3.3 3.7 3.3 2.2 0 8.9 3.3 10.4 5.2.7.7 1.7 3.5 2.4 6.1.9 3.9 2 5.4 5 7.4 2 1.3 4 3.1 4.3 3.9.3.8 1.9 1.4 3.9 1.4 2.3 0 4.7 1 7.2 3 2.1 1.6 4.6 3 5.5 3 1 0 2.9 1.3 4.2 2.9 3.5 4.1 6.5 5.6 8.4 4 2.1-1.8 10.1-.6 16.5 2.4 6.5 3.1 7.3 3.3 6.5 1.1-.5-1.2-.2-1.5 1.1-.9 3.2 1.2 3.4 1 5-2.8 1.4-3.5 1.4-3.9-.2-5.7-1.2-1.4-1.5-2.7-1.1-4.7.4-1.5 1-4.3 1.3-6.1.3-1.9 1.2-3.6 1.9-3.9 1.6-.6 1.9-3.9.4-4.8-.6-.4-.7-1.1-.4-1.7 1.2-1.9.6-6.6-1.1-9.1-1.3-2-1.3-2.6-.3-3 1.1-.4 1.1-.6 0-.6-.7-.1-2 1.2-2.9 2.7-1.6 2.8-12.5 8.6-14.7 7.9-.6-.2-1.9.9-2.8 2.4-1.5 2.4-2.1 2.7-4.1 2-2.1-.8-2.3-.7-1.9 1.9.6 4-1.5 4.7-3.6 1.1-.9-1.7-2-3.1-2.4-3.1-1.2 0-.9 1.5.4 2.8.9.9.9 1.5 0 2.4-1 1-1.4 1-2.1 0-.5-.8-2-1.2-3.7-.9-2.8.4-2.9.3-3-3.9 0-2.4.2-4.3.5-4.2 1.9.2 3.3-.5 6-2.8 4.1-3.4 4-6.8 0-11-2.6-2.7-2.8-3.2-1.1-2.8 1.5.4 2 .1 1.9-1.2-.1-1.1.6-2 1.8-2.2 1.1-.2 2.4-1 2.8-1.8.4-.8 1.9-1.4 3.3-1.4 2.1 0 2.4-.4 1.9-2-.4-1.2-.2-2 .5-2s.5-1.1-.5-3c-3-5.7-1.6-7.7 4.2-6.1 4 1.1 5.3.7 3.5-1.1-1.8-1.8-1.5-2.8.9-2.8 1.8 0 1.9-.3.9-1.5-1.4-1.7-.5-2.2 4.5-2.7 3-.3 3-.4 3-6.3v-6l3.2.3c2.3.3 3.5-.1 4.4-1.6 1.2-1.9 1.5-1.9 4-.6 3.2 1.6 7.3 1.9 6.4.4-.3-.6.5-1 1.8-1 2.5 0 4.5 2.6 2.5 3.2-.8.3-.7 1.1.1 2.7.7 1.2 1 2.9.7 3.6-.2.7.2 1.9 1 2.5 1.1 1 1.4 1 1.4 0 0-.8.3-1.1.6-.8.3.3 1.7-.5 3.1-1.8 1.4-1.3 3.2-2.4 4.1-2.4.8 0 1.2-.6.8-1.5-.7-1.9.3-1.9 2.3-.1.9.8 3.4 1.6 5.7 1.7 3.2.2 5-.4 9-3.1 5.6-3.8 8-4 10.1-1 1.1 1.6 1.8 1.9 2.6 1.1.6-.6 1.9-1.1 2.9-1.1 3.1 0 6.7-2.2 6.1-3.7-.5-1.3-.2-1.3 1.6-.4 1.8 1 2.2.9 2.7-.6.3-1 1.6-4 2.9-6.8 1.7-3.7 2.1-5.5 1.4-7.3-.5-1.4-.8-2.7-.5-2.9.7-.8 12.7-2.2 14.1-1.7.9.4 1.1-.3.8-2.3-.4-2.4-.3-2.5.7-1 1.2 1.8 4.8 1.5 6.1-.5.3-.5 1.9-.1 3.6.8 2.9 1.7 3.1 1.7 6.5-.3 2.7-1.6 3.9-1.8 4.7-1 .9.9 1.4.8 2.1-.3.8-1.3 1.1-1.2 2.4.5 1 1.3 1.5 1.5 1.6.6 0-2.2 3 .8 3 3 0 1.1.6 2 1.3 2 5.8.7 8.5-.4 6.6-2.7-.9-1.1-.8-1.4 0-1.4.7 0 .9-.5.5-1.1-.4-.7-.1-1 .7-.7.8.2 2.1 1.8 2.9 3.5.8 1.6 3 4.9 4.8 7.1 2.7 3.4 3.2 4.7 2.7 7.1-.3 1.7-.1 3.9.5 5.1 1.4 2.6 2.3 7 1.4 7-.3 0-1.9-1-3.6-2.1l-3-2.2.7 2.2c1 3.1-3.2 8.2-8.7 10.6-2.3 1-4.4 2-4.6 2.1-.2.1.3 1.2 1 2.4 1 1.8 1 2.4.1 2.7-.7.3-1.3 1.1-1.3 1.9 0 .9-.4 1.3-.9 1-2.1-1.4.4 3.7 2.6 5.1 1.4.9 2 1.9 1.4 2.2-.7.5-.6 1.6.4 3.4.8 1.6 1 2.9.4 3.2-.5.4-.3 1.5.6 2.8 2 2.8 2 9.6 0 10.3-.8.4-1.5 1.2-1.5 1.8 0 2.4-6 5.8-9.1 5.2-4.2-.8-3.8 1.9.4 2.9 4.3 1.1 8.7 1.2 8.7.3 0-.4.7-.5 1.5-.2.8.4 1.5 1 1.5 1.5 0 2.8 7 7.2 10.9 6.7 2.7-.2 5.5 1.5 5.9 3.7.1.5.9 1 1.7 1 .8 0 2 .6 2.7 1.3.6.6 1.8 1.2 2.5 1.2 1.2 0 1.7 1.3 1.4 3.3-.1.5.3.6.9.2.5-.3 1-.2 1 .2 0 1.3 4.4 1.4 5.2 0 .4-.6 1-.8 1.4-.4.4.4-.3 1.6-1.5 2.6-2.2 1.9-4.2 1.9-6.8-.1-1.6-1.3-3.3-.1-3.3 2.2 0 1-.6 2-1.4 2.3-1.5.6-2.9 4.7-1.6 4.7.5 0 1.2-.5 1.5-1.1.4-.6 1.3-.8 2.1-.5.8.3 1.4.1 1.4-.5s.7-.9 1.5-.5c.9.3 1.5 0 1.5-.9 0-2.6 1.8-2.5 2.3.1.3 2 0 2.8-1.3 3.1-3.6 1-3.8 15.5-.2 14.7.9-.1 3.8-.6 6.3-.9 3.7-.5 4.9-1.1 5.8-3.1 1.1-2.4 1.3-2.5 3.4-1.1 2 1.3 2.5 1.3 3.3.1 1.6-2.4 14.5-3.4 17-1.3.9.7 2 .5 3.8-.6 1.4-1 2.6-2.1 2.6-2.5 0-.5.8-.6 1.9-.3 1 .3 2.2 0 2.5-.6 1.1-1.6 2-1.4 5 1.4l2.7 2.5-2.3.9-2.3.8 2.5.8c1.4.4 2.7 1.1 3 1.4.3.4 1.9 1.7 3.7 2.9 1.8 1.3 4 3.6 5 5.2.9 1.7 2.3 3 3.1 3 .7 0 1.1.4.8.8-1 1.7 3.4 7.2 6.9 8.6 1.9.8 3.8 2.3 4.2 3.3.3 1 1.5 3.1 2.6 4.6 1 1.6 1.6 3.1 1.3 3.4-.3.4 0 1.3.7 2.2.8.9 2 3.7 2.7 6.3.7 2.6 1.9 5.3 2.6 5.9.8.6 1.4 2 1.4 3 0 1.1.5 1.9 1 1.9.6 0 1 .6 1 1.4 0 .9 1.2 1.6 2.8 1.8 1.9.2 2.8.9 3 2.5.2 1.3 1 2.3 1.8 2.3s2.4 2 3.5 4.5c1.1 2.4 2.4 4.7 2.9 5 1.3.8 7 9.4 7 10.7 0 .5.6.8 1.4.5.8-.3 2.2.3 3.1 1.3.9 1 2.8 2.1 4.3 2.5 1.4.3 3.8 1.5 5.4 2.6 1.5 1.1 3.3 1.9 4 1.7 1.8-.3 9.9 4.5 9.5 5.7-.2.5-2.3 1-4.7 1.2-2.4.2-4.7.8-5.1 1.4-.4.6-1.3.8-2 .5-.8-.4-.5 0 .5.8 2.5 2 2.8 2 5.3-.4 2.2-1.9 2.2-1.9 6.2 1.3 2.4 1.9 4 4 4 5.2-.3 6.9 1.7 7.6 2.7 1 .3-2.5 1.3-4.9 2.2-5.4.9-.5 1.3-1.6.9-3-.3-1.1-.1-2.1.4-2.1s.9-.5.9-1c0-.7-.6-.7-1.8-.1-3.2 1.7-5.1-.4-4.2-4.5.7-2.8.5-4.3-.8-6.2-1.1-1.7-1.3-2.7-.5-2.9.6-.2.8-1.4.6-2.6-.5-1.8-.3-2 .8-1 1 1.1 1.8.4 3.9-3.5 2.2-4.1 2.9-4.7 5.4-4.4 1.5.2 4.1-.2 5.8-.9 3.1-1.3 3.1-1.6 1.2-7.8-.7-2.2-.6-2.3 1.7-1.1 1.3.7 2.8 1.8 3.2 2.4.6.7.7.4.3-.7-.4-1.3 0-1.7 1.8-1.7 2.7 0 4.2-3.6 2.4-5.7-2-2.5.9-1.3 3.1 1.3 1.2 1.4 2.9 2.3 3.7 2 .8-.3 1.4-.1 1.4.4 0 .6-.6 1-1.2 1-.9 0-.9.3.1.9.8.5 2.4.6 3.7.1 1.2-.5 4.8-.7 8.1-.5 4.6.4 6.2 1 8 3 1.2 1.4 2.6 2.5 3 2.5.5 0 2.4-1.4 4.2-3.1 2.6-2.4 4-2.9 6-2.4 2.2.5 1.9 0-2.3-3.9-3.8-3.5-5.2-4.3-6.2-3.5-.8.6-2.1.8-3 .5-.9-.4-2.2-.2-2.9.4-.9.7-2.1.7-3.9-.1-2.6-1.2-3.8-3.6-1.3-2.6 1.9.7 3.6-2.4 2.6-4.9-.4-1.2-2.1-2.8-3.8-3.5-2.9-1.3-4.3-3.9-2.1-3.9.7 0 1-2 .9-4.8-.3-5.9.2-6.7 4.4-8.1l3.3-1.1-.1-7.6c-.1-6.7.1-7.7 1.7-8.2 1.3-.3 1.7-1 1.3-2.1-.4-.9-1.2-3-1.7-4.6-.6-1.7-1.5-3.4-1.9-4-1.9-2-.8-2.7 3.1-2.1 3.8.6 4 .5 3-1.3-1.4-2.7-1.3-3 1.1-2.4 1.4.4 2.2 0 2.5-1.4.5-1.6 1.4-2.1 4.9-2.1 3.7-.1 4.4.2 4.9 2.3.9 3.5 9.5 7.4 9.6 4.2.1-.6.8 0 1.6 1.6.8 1.5 3.2 3.4 5.3 4.3 2.5 1 3.8 2.1 3.7 3.2-.1 1.2.8 1.8 2.7 2 1.5.2 2.7-.1 2.7-.7s.7-1.1 1.5-1.1 1.5-.7 1.5-1.5.6-1.5 1.3-1.5c2.1 0 4 1.7 3.3 2.9-.5.8 1.1 1 5.3.9 3.4-.2 6.1-.7 6.1-1.2s.3-.6.7-.3c.3.4 1.5 0 2.5-1 1.7-1.5 1.7-1.7.2-3.5-1.6-1.7-1.6-1.8.9-1.8 3 0 3.6-1.3 2.9-5.8-.3-2.4-.1-3.2 1-3.2 2.4 0 3.7-4.1 2.2-7-1.1-2.1-1.1-2.7 0-3.9 1.7-1.7 3.6-.6 3.6 2 0 1 .7 1.9 1.5 1.9 2.9 0 7.5 4.2 7.6 6.9 0 2.3.1 2.4.8.6.7-1.8.9-1.7 2.5 1.3.9 1.7 2.3 3.2 3 3.2.7 0 1.9.6 2.5 1.4.6.7 2.5 1.6 4.1 2 1.8.3 3.4 1.4 3.8 2.6.4 1.2 3.2 3.3 6.2 4.8 3.7 1.9 5.9 3.7 6.8 5.7 2.9 6.6 4.9 8.3 5.8 4.8.7-2.5 6.7-5.5 9.1-4.6 1.6.6 1.6.4-.2-1.6l-1.9-2.2 2.4.5c5.9 1.3 12 0 12-2.5 0-.7 1.4-.9 4.3-.5 2.3.3 5.1.6 6.1.6 1 .1 3.2.8 4.7 1.6 2.2 1.1 3.8 1.2 7.7.4 4.6-1 11.4.1 9.9 1.6-.6.6 4.5 5.4 5.8 5.4.4 0 .5-.7.1-1.5-.8-2.1-.1-1.9 3 1 2.5 2.3 2.5 2.6 1.2 4.7-1.2 1.8-1.3 3-.4 5.5.6 1.7 1.4 3.5 1.9 3.9.4.4.7 1.5.7 2.5s1.1 2 2.8 2.4c1.5.3 4.2 1.6 6.1 2.7 4.1 2.6 8.4 2.9 13 1 2.5-1 4-1.1 5.5-.3 1.2.6 3.3 1.3 4.9 1.5 2.7.5 3.3-.7 2.8-5.2-.1-.6.3-1.2.9-1.2 1.7 0 8-6.2 7.4-7.2-.7-1 4.2 0 7.1 1.5 1.1.6 3.1 1.2 4.5 1.3 4.5.5 6 1 7.2 2.2.7.7 1.8 1.2 2.5 1.2s1.3.9 1.3 2c0 2.6 2 2.6 4.8 0 1.2-1.1 3-2 4.2-2 1.3 0 2-.7 2-2 0-1.1.5-2 1.1-2 .6 0 .9-.7.6-1.5-.4-.8-.2-1.7.3-2 1.6-1 1.1-7.1-.6-8.6-1.3-1.1-1.3-1.5-.2-2.3.7-.6 1.4-2.7 1.6-4.6.1-1.9 1-4.2 1.8-5.1.9-1 1.3-2.6 1-3.7-.4-1.1 0-2.4.8-3.1 1.2-1 1.3-1.8.4-3.9-1.6-3.7-5.5-7.5-6.1-5.9-.4.8-.6.7-.6-.3-.1-.8-1-2.1-2.1-2.8-1.1-.7-2-1.8-2-2.6 0-.7-.9-1.6-2-1.9-1.3-.3-2 0-2 1 0 .8-.4 1.1-1 .8-1.2-.7-4-1.4-9.5-2.2-2.4-.4-5.1-1.7-6.8-3.4-1.5-1.6-3.4-2.6-4.1-2.3-1.5.6-6.4-4-12.1-11.5-3.9-5.1-4.1-5.3-7.9-4.7-3.5.6-4.2.3-6.6-2.3-1.5-1.6-3-3.6-3.3-4.5-.7-1.8-6.2-2.2-7.2-.6-.4.6-2.5 1-4.8.9-2.3-.1-5.1.2-6.3.6-1.6.5-2.7-.1-4.7-2.5-1.5-1.7-2.7-3.7-2.7-4.4 0-2.2-3.8-5-5.2-3.9-.8.7-2.2.7-3.5.2l-2.3-.8 2.5-2.7c1.4-1.5 2.5-3.1 2.5-3.7 0-.5.9-.7 1.9-.4 1.3.3 2.1-.1 2.4-1.4.4-1.5 0-1.9-1.8-1.9-1.2 0-2.8.7-3.5 1.5-1.8 2.2-4.1 1.8-7.9-1.5-4.4-3.7-4.9-7.9-1.4-12.1 2.3-2.7 2.4-3.3 1.3-5.5-.7-1.3-1.7-2.4-2.1-2.4-.5 0-3.1-3.4-6-7.6-4.6-6.8-5.3-7.5-7.6-6.9-1.9.4-3.2 0-4.8-1.5-1.3-1.2-3.1-2.1-4.1-1.9-4.5.5-12.4-3.1-12.4-5.8 0-.9-.8-1.3-2.2-1.1-1.6.2-2.4-.3-2.6-1.7-.2-1.1-.9-2.6-1.4-3.3-1.2-1.5-5.8-1.6-5.8-.2 0 1.9-5.2 3.2-8.1 2-2-.9-3.3-.9-4.9 0-1.3.7-2.6.8-3.3.2-3.2-2.5-13.7-2.2-13.7.4 0 2-5 5.4-8.1 5.4-2.2 0-2.9.5-2.9 2 0 1.7-.3 1.9-1.9 1-3-1.5-6.9-1.2-7.3.6-.3 1.4-.7 1.3-3-.5-1.4-1.2-3.7-2.1-5-2.1-3 0-4.6-1.1-4.2-3 1.5-5.9 1.5-8.1-.1-11.3-1.1-2.4-2.3-3.5-3.6-3.4-1.2.1-1.5.5-.9 1.1 1.3 1.3 1.3 7.6 0 7.6-.5 0-.9-.3-.9-.8.4-2.6-.3-5.2-1.5-5.2-2.1 0-3-2-1.7-3.3 2.2-2.2.2-8.7-2.7-8.7-.5 0-2.3-1.5-3.8-3.3l-2.7-3.2 3.6-.3c1.9-.2 3.9-.8 4.4-1.5 1.6-2.2 3.3-10.7 2.7-13.2-.3-1.4-.2-2.5.4-2.5 1.9 0 2.1-4.4.2-7.9-1.5-3-1.8-5.5-1.5-14.5.1-6 .7-11.1 1.1-11.5 3-2.1-1-10.1-5-10.1-1.8 0-1.6-.5 1.6-3.5 2-1.9 4.1-3.5 4.7-3.5 1.4 0 1.4-4.7.1-5.5-1.5-1-1.2-2.2.8-2.7 1-.3 2.5-2.6 3.6-5.6 1-2.9 2.4-5.2 3.2-5.2 1.2 0 2-2.7 1.5-5.4-.1-.5.6-.6 1.5-.2.9.3 2.3.1 3-.5.8-.6 4.1-1.2 7.4-1.3 3.3 0 6-.4 6-.8s2-1 4.5-1.3c4.3-.7 4.4-.8 4.3-4.1-.1-2.1-.6-3.4-1.4-3.4-.7 0-1.8-.9-2.4-2-.8-1.4-.8-2 0-2 .7 0 .5-1-.4-2.8-2.7-5.2-2-11.4 1.5-13.3 1.1-.5 1.9-1.6 1.9-2.4 0-.7 1.3-2.4 2.9-3.7 2.2-1.8 2.7-2.7 2.1-4.3-.7-1.6-.9-1.7-.9-.3-.1 2.1-2.1 2.8-4.5 1.6-1.4-.8-2.1-.6-2.8.5-.8 1.4-1.3 1.4-5.5-.4-2.5-1.1-5.4-1.7-6.4-1.4-1.1.4-1.9.3-1.9-.2 0-.8-5.4-3.5-7.5-3.7-.5-.1-1.6-.5-2.2-.9-1.7-1.1-3.3 0-2.7 1.7.5 1.3-.7 1.6-9.7 2.8-1 .2-1.4 1-1.1 2.4.2 1.1-.3 2.8-1.2 3.7-.9.8-1.6 2.2-1.6 2.9-.1 1.5-6.7 4.8-9.8 4.8-1.2 0-3.1-.5-4.1-1.1-2.3-1.5-7.8.7-8.5 3.4-.2 1.1-.9 1.6-1.5 1.2-.7-.4-1.1.4-1.1 1.9 0 1.7-.6 2.6-1.6 2.6-.9 0-1.8.9-2.1 2-.4 1.5-1.4 2-3.9 2-2.6 0-3.2.4-2.8 1.5.5 1.2-.3 1.5-3.9 1.5-2.5 0-5.2.3-6.1.6-1.1.4-1.6.1-1.6-1 0-.9.7-1.6 1.5-1.6s2.2-1.7 3.1-3.8c1.3-3 1.4-4.3.4-7-1.7-4.8-.5-10.1 2.6-11.2 2.8-1.1 3.3-3.4.5-2.5-1.3.4-2.4-.1-3.3-1.4-.9-1.3-1.8-1.7-2.8-1.1-.9.6-1.8.3-2.5-.6-.9-1.3-1.4-1.3-3.9 0-2.6 1.3-3.1 1.3-5.2-.1-1.5-1-2.4-1.1-2.4-.4 0 .6-.6 1.1-1.3 1.1-1.7 0-6.9 5.4-6 6.3.9 1-2.4.8-7.2-.3-2.2-.5-4.1-.8-4.2-.6-.2.1 1 1.6 2.7 3.2 1.6 1.6 3 3.7 3 4.6 0 1 1 2.6 2.2 3.8 2.3 2.1 2.9 5.3 2.8 13.3-.1 2.7.4 6.4 1 8.3.9 2.7.9 3.8-.2 5.1-1.1 1.4-1 1.5.9.9 2-.6 2.1-.5 1 1.8-.8 1.7-2 2.6-3.4 2.6-2.7 0-3.1 2.6-.5 3.3 1.5.4 1.5.5-.2.6-1.2.1-1.6.6-1.2 1.6.3.8.1 1.5-.4 1.5-.6 0-1 1-1 2.3 0 3.4-2 5.1-3.6 2.9-.9-1.1-1.3-1.3-1.4-.4 0 .7-.4 1.1-.9.7-.5-.3-1.3-.1-1.6.5-.4.6-1.6.8-2.7.5-1.2-.4-2.7 0-3.8 1-1.7 1.5-1.9 1.5-2.7 0-.6-.9-1.4-1.8-1.9-1.8-.5-.1-.8-.6-.6-1 .1-.4-.3-1.7-.9-2.8-1-1.9-1.1-2-2.3-.3-.9 1.1-2.1 1.5-3.5 1.1-1.5-.4-2.9.1-4.3 1.5-1.7 1.7-2.4 1.8-4.4.9-2.9-1.3-3.1-.1-.4 2.4 2.1 1.9 2.7 4.5 1 4.5-.5 0-1 .6-1 1.4 0 1.8-2.6 2.8-7.5 2.9-3.9.1-4.1.2-3.7 2.9.4 2.8 2.2 4 2.2 1.5 0-.6.5-.4 1.1.6.8 1.4.8 2.2 0 3-1.4 1.4-5.1-1.8-5.2-4.7-.1-1.8-.2-1.8-.6-.3-.4 1.4-.8 1.5-1.8.7-.8-.6-1.2-1.7-.9-2.4.3-.8-.3-1.7-1.3-2-1.7-.7-1.7-.8.1-2.1 2.2-1.7 2.4-5.9.4-8.3-.9-1-1.6-4-1.7-7.2-.1-4.3-.7-6-2.6-8-1.9-2-2.2-2.9-1.3-3.8.8-.8.3-1.9-2-4.3-1.8-1.8-3.2-3.6-3.2-4 0-.4-.9-.9-2-1.2-1.1-.3-2-1.2-2-2 0-1.7-4.6-5-7.2-5.2-.9-.1-3.4-1.4-5.6-2.8-2.1-1.5-4.6-2.7-5.5-2.7-.9 0-2.1-.9-2.7-2-.9-1.6-1.5-1.8-3-1-1.3.7-2.7.6-4.7-.2-1.5-.6-5-1.2-7.8-1.3-2.7-.1-6-.7-7.2-1.3-1.2-.7-2.9-1.2-3.9-1.2-.9 0-3.2-1.4-5.1-3-1.8-1.7-4.4-3-5.8-3-2.7 0-5.5-2.4-5.5-4.6 0-.9-.5-1.2-1.1-.8-.7.4-.9 2.3-.5 5l.6 4.4h-3.4c-3.9 0-5.7 1.7-5 4.8.7 2.6-1.6 8.2-3.3 8.2-.7 0-1.3.5-1.3 1 0 .7-.7.7-2.1 0-2.7-1.5-3.5-.6-2.1 2.5.9 2 .9 2.5-.3 2.5-1.8 0-2.7 3.2-1.9 6.6.6 2.4.5 2.7-1.5 2.1-1.8-.4-2-.3-1.1.8.6.8 1.1 2.2 1 3.2-.4 3.4 0 4.3 2 4.3 2.5 0 2.6-1.6.3-2.9-1.5-.9-1.4-1 1-1.1 1.7 0 2.7.5 2.7 1.4 0 .8.9 1.7 1.9 2.1 2.2.7 4.6 3.3 3.8 4.1-.3.3-1.4 0-2.5-.7-1.7-1.1-2.4-.8-5.7 2.4-2.4 2.3-4.5 3.5-5.5 3.2-.9-.3-3.1.6-5 2-2.6 1.9-4.6 2.5-8.8 2.5-5.5 0-8.1-1.5-8.2-4.9-.1-3.9-8.1-5.6-10-2.1-1.2 2.2-6 2.4-6 .2 0-.7-.4-1-1-.7-.5.3-3.2-.4-5.9-1.6-4.5-1.9-5-2.4-5.3-5.7-.2-2.8-.8-3.8-2.3-4.1-1.1-.2-2.4-.9-2.8-1.7-.4-.8-1.4-1.4-2.1-1.4-.8 0-1.7-1.6-2-3.8-.4-2-1.2-5.8-1.8-8.4-1.5-6 .4-17.2 3.5-20.5 1.3-1.4 1.8-3 1.4-4.4-.3-1.2-.2-3 .4-4 .6-1.1.6-2-.1-2.4-1.3-.8 1.6-5.2 4-6 3.1-1 5-8.2 2.5-9.2-.9-.3-1.4-1.2-1.1-1.9.3-.7.1-1.6-.4-1.9-.5-.3-.7-1.2-.4-2 .5-1.3-3.3-4.2-4.3-3.1-.7.7-7.6-3-10.6-5.7-1.3-1.2-4.4-3.3-6.7-4.6-4.3-2.3-4.3-2.3-3.7-.2.8 3.2-2.3 2.6-5.1-1l-2.4-2.9 2.9-1.1c2.5-.8 2.9-1.4 2.5-4-.3-2.2.1-3.6 1.7-5 2.7-2.5 2.6-3-.4-5.9-1.4-1.3-2.5-3.3-2.5-4.5 0-1.1-.6-2.7-1.2-3.4-1.1-1.1-.4-1.2 3.3-.9 3.4.2 4.5 0 4.2-1-.3-.6-1.1-1.2-1.8-1.2s-1.5-.9-1.8-2c-.3-1.3 0-2 .9-2 .8 0 2.8-.7 4.4-1.5 2.3-1.2 3-2.2 3-4.6 0-2.6.3-2.9 2-2.4 3.1 1 3.7-2.1 1-5-1.3-1.3-2.8-3.4-3.4-4.7-.7-1.4-2.2-2.3-3.8-2.5-1.5-.1-3.7-.7-4.8-1.3-1.8-1-2.5-.8-4.1.9-1.1 1.2-2.4 2.1-3 2.1-.6 0-.7.5-.3 1.2.5.8 0 .9-1.4.6-1.5-.4-2.2-.2-2.2.8 0 1.8-1.5 1.8-3.2 0-.8-.7-2.8-2.1-4.5-2.9l-3.1-1.6.2 4.7c.1 4.7.1 4.7-3.2 4.8-1.8 0-3.7.6-4.1 1.2-.5.9-2 1-5.9.2-6.1-1.1-9.4-3-8.7-4.8.3-.8.5-2 .5-2.8 0-.8.9-1.4 2.1-1.4 1.1 0 1.7-.5 1.4-1-.3-.6-1.4-1-2.4-1-2.2 0-4-2-4.6-4.8-.4-2.2 2-3.8 3.1-2.1.7 1.3 5.4-2.8 5.4-4.7 0-.8.9-2.9 2-4.9 2.2-3.9 2.5-4.9 1.1-4.1-.5.3-1.1-.2-1.4-1.3-.3-1.3.6-2.3 3.1-3.7 2-1 4-1.8 4.4-1.6 1.8.5 3.7-2.5 3.1-4.8-.4-1.5-.2-2.1.4-1.7.6.4 1.3-1.2 1.7-3.9.5-3.9.2-5-2.2-8-2.3-2.9-3.1-3.3-5.6-2.8-2.5.5-2.8.4-2.4-1.3.4-1.6-.1-1.9-4.6-1.9-3 0-5.7.6-6.5 1.4-1.7 1.6-8.6.9-11.1-1.2-2.5-2-6.9-3.6-8.5-3-.8.4-2.2 0-3.1-.7-1-.8-1.8-.9-2.2-.3-.4.5-2.5 1.1-4.7 1.3-4.9.4-6.3 1.1-7.9 4.2-.7 1.3-1.9 2.2-2.7 2-.8-.2-2.9-.3-4.7-.2-3.2 0-3.3 0-2.7-3.3.6-3 .3-3.6-2.7-5.6-1.8-1.3-3.5-2.5-3.7-2.7-.2-.1.5-1.1 1.6-2 1.5-1.4 1.9-2.8 1.6-6.6-.1-2.7.1-4.6.6-4.2.6.3 1.3 0 1.7-.6.4-.7.3-.9-.4-.5-1.4.9-4.2-2.1-4.2-4.5s-4.9-7.6-9.6-10.1c-4-2.1-6.1-2.4-4.7-.6zm135.8 158.8c.3.5.1 1-.4 1-.6 0-1.1-.5-1.1-1 0-.6.2-1 .4-1 .3 0 .8.4 1.1 1zm-3.5 24c0 .5-.4 1-.9 1-.6 0-1.3-.5-1.6-1-.3-.6.1-1 .9-1 .9 0 1.6.4 1.6 1zm87 59c0 .5-.2 1-.4 1-.3 0-.8-.5-1.1-1-.3-.6-.1-1 .4-1 .6 0 1.1.4 1.1 1zm203.2 8.5c0 .5-.5 1.1-1.1 1.3-.6.2-1.1-.4-1.1-1.3s.5-1.5 1.1-1.3c.6.2 1.1.8 1.1 1.3zm-195.2 9.5c0 .5-.4 1-1 1-.5 0-1-.5-1-1 0-.6.5-1 1-1 .6 0 1 .4 1 1zm2 1.5c0 .8-.4 1.5-1 1.5-.5 0-.7-.7-.4-1.5.4-.8.8-1.5 1-1.5.2 0 .4.7.4 1.5zm3 2.5c0 .5-.2 1-.4 1-.3 0-.8-.5-1.1-1-.3-.6-.1-1 .4-1 .6 0 1.1.4 1.1 1zm-6 1c0 .5-.7.7-1.5.4-.8-.4-1.5-.8-1.5-1 0-.2.7-.4 1.5-.4s1.5.4 1.5 1zm18.6 8.5c.3.8.3 1.9 0 2.4-1 1.6-3.6.1-3.6-2 0-2.2 2.8-2.6 3.6-.4zm271.4 120.4c0 .5.7 1.2 1.6 1.5.8.3 1.2.2.9-.4-.3-.6.1-1 .9-1 .9 0 1.6.7 1.6 1.5 0 1.8 2 2 2 .2.1-.6.9-.2 1.9 1 1.1 1.3 2.1 2.3 2.4 2.3.2 0 2.5.9 5.1 2.1 4.1 1.8 4.5 2.2 3.1 3.5-1.1 1.1-3.3 1.5-8.2 1.3-3.8-.1-9.2.1-12 .4-4.6.6-5.3.4-5.5-1.1 0-.9-.2-2.2-.2-2.7-.1-.6-1.4-2.4-2.9-4-1.5-1.7-2.7-3.2-2.7-3.5 0-.3 1.5-.4 3.4-.2s4.3-.1 5.3-.7c2.2-1.3 3.3-1.4 3.3-.2zm-59 3.6c0 2.2-2.2 6.5-3 6-.5-.3-1.3.9-1.9 2.5-1.1 3.3-3.5 4-4.5 1.3-.4-.9.1-2.5 1.2-3.7 1.1-1.2 1.7-2.7 1.5-3.4-.9-2.4.6-4.2 3.7-4.2 2 0 3 .5 3 1.5zm14.9 5.1c.2.2.1 1-.2 1.9-.4.8-.7 1.9-.8 2.3-.1.4-1.1 1.3-2.1 2.1-1.7 1.2-2.1 1.2-2.9 0-1.3-2.1-1.1-2.8 1-4.1 1.6-1 1.8-1.5.8-2.7-1-1.2-.8-1.3 1.3-.6 1.4.4 2.7.9 2.9 1.1zm25.1-.7c0 1.6-6 7.1-7.8 7.1-2.8 0-3.3-1-1.7-3.3 2.3-3.3 9.5-6.3 9.5-3.8zm43 5.8c-.1.5-.6 1.8-1.3 3-.8 1.5-1.7 1.9-2.6 1.4-1.1-.7-1-1.2.5-2.9 2-2.1 3.4-2.7 3.4-1.5zm-51.5 4.2c.3 1 1.7 2.4 3 3.1 2.7 1.5 3.4 4 1 4-.8 0-1.2.6-.9 1.3.6 1.6-4.2 4.1-5.8 3.1-.7-.5-.9.2-.6 2 .3 1.4.1 2.9-.4 3.2-.5.3-.7 1.2-.4 2 .4 1.2.2 1.2-1.4.4-1.4-.8-2-2.1-2-4.6 0-2.1-.4-3.3-1-2.9-.5.3-1 .2-1-.3s-1-.8-2.2-.7c-1.3.1-3.3-.6-4.5-1.7-1.2-1.1-2.6-1.7-3.2-1.3-.7.4-1.1-.5-1.1-2.3 0-2.7.4-3 4.1-3.6 2.2-.4 4.4-.4 5-.1.5.4 2.3-.5 4-1.8 3.4-2.6 6.5-2.5 7.4.2zm51.3 4.2c1 1.5 1 1.9 0 1.9-1.7-.1-4.8-2.5-4.8-3.8 0-1.6 3.5-.3 4.8 1.9zm-80.1-1.5c-.3.3-1.2.4-1.9.1-.8-.3-.5-.6.6-.6 1.1-.1 1.7.2 1.3.5zm-303.2 13.4c.3.5.2 1-.4 1-.5 0-1.3-.5-1.6-1-.3-.6-.2-1 .4-1 .5 0 1.3.4 1.6 1zm314.1 5.7c-.4.4-1.1.1-1.6-.7-1.6-2.5-1.1-3.5.7-1.7.9.9 1.3 2 .9 2.4zm-276.8 12.2c-.4 2.2-5.8 2.8-7 .7-.5-.9-1.9-1.6-3.1-1.7-2.1-.1-2.1-.1.2-.8 1.3-.3 4.1-.5 6.3-.3 3 .3 3.8.8 3.6 2.1zm408.2 49.7c0 .8-.4 1.2-1 .9-.5-.3-1-1-1-1.6 0-.5.5-.9 1-.9.6 0 1 .7 1 1.6zm-279.5 62.3c.3.5.1 1.2-.5 1.6-.5.3-1-.1-1-.9 0-1.8.6-2.1 1.5-.7z"/><path d="M60.026 37.943c-.8.5-1.9.7-2.5.5-.7-.3-2 .1-2.9.9-1.5 1-1.6 1.7-.8 4 .9 2.2.8 2.7-.4 2.7-.8 0-1.5.5-1.5 1.2 0 .6-.7 2-1.6 3-1.4 1.4-1.4 2-.4 3.3 1.5 1.8 1.2 2.2-1.5 2.5-4 .4-4.6.1-3.9-2.5.8-3.3-1.3-6-3.2-4.4-1 .8-1.1 1.5-.4 2.4 1.3 1.5-.7 6.5-2.5 6.5-.6 0-1.6 1.6-2.2 3.5-1 3-.9 3.5.8 4 3.9 1.3 4.7 14.4 1.1 17.3-1.5 1.1-1.5 1.5 0 4.5.9 1.7 2.1 4.9 2.7 7.1 1.8 6.7 6.8 8.1 9.3 2.5.9-2 2-2.9 3.5-2.9 2 0 2.1-.3 1.3-2.5-.7-1.8-.6-2.5.3-2.5.6 0 2.2-1.6 3.5-3.5 1.4-2.3 3.3-3.8 5.2-4.2 1.6-.3 3.4-1 3.8-1.7 2.7-3.4 3.2-26.4.6-30-.9-1.3-1-2.3-.3-3.2.6-.8.5-1.4-.6-1.8-.9-.3-1.6-1.6-1.5-2.8.1-1.3.2-2.9.1-3.6-.1-1.4-3.9-1.6-6-.3zM237.526 53.543c-.9 1.4-2.2 2.3-2.8 1.9-.7-.5-.9.7-.4 4 .6 3.9.5 4.6-1 4.6-1.4 0-1.5.2-.3 1.7 1.3 1.4 1.1 1.6-1.1 1.2-2.3-.5-2.5-.2-2.6 3 0 2.2.5 4.1 1.5 4.7 1.3 1 1.1 1.6-1.7 4.5-1.8 1.8-3.2 3.9-3.2 4.7 0 .9-.7 1.1-2.1.7-1.5-.5-2.2-.2-2.6 1.4-.3 1.2-1 2.1-1.5 2.1s-.6.5-.3 1c.4.6 1.9.9 3.5.8 1.5-.1 3.6.4 4.5 1.2 2.2 1.8 11.5 1.9 13.7.2 1.5-1.3 1.8-1.1 2.4 1.2.7 2.9 4.1 3.3 3.7.5-.2-.8.8-2.3 2.2-3.3 2-1.5 2.2-2.2 1.4-3.8-.7-1.2-1.7-1.7-2.9-1.3-1.3.4-2 0-2.5-1.7-.4-1.3-1.7-3.1-2.9-4.1-1.9-1.5-1.9-1.9-.5-3 1.7-1.3 3.2-4.7 2.1-4.7-.4 0-.7-3.9-.7-8.6 0-7.7-.2-8.8-2.1-10.1-1.9-1.2-2.3-1.1-3.8 1.2zM362.526 64.343c.3 1 .9 1.5 1.2 1.2.3-.3 0-1.1-.7-1.8-1-.9-1.1-.8-.5.6zM203.226 78.843c.7 3.3-.1 4.8-2.8 5.4-1.1.2-1.9 1-1.7 1.7.1.7-.5 1.9-1.4 2.5-1.5 1.1-1.4 1.7 1 6.9s2.8 5.7 5.1 5.1c2-.5 2.4-.3 1.9.9-.7 2 5.5 6.5 6.6 4.7.4-.7 1.2-1 1.8-.6.6.3 1.5-.1 2.1-1.1.9-1.7 1-1.7 2.8 0 2.5 2.2 5.1 2.4 3.3.2-.6-.8-1.2-3.5-1.2-6-.1-3.3-.6-5-2-5.9-1.1-.8-1.8-2.2-1.6-3.2.2-1.4-.4-2-2.4-2.2-3.3-.4-8.2-6.2-5.2-6.2 1.5 0 1.4-.4-.6-2.5-1.3-1.4-3.2-2.5-4.3-2.5-1.6 0-1.9.5-1.4 2.8zm10.7 12.2c0 .5-.2 1-.4 1-.3 0-.8-.5-1.1-1-.3-.6-.1-1 .4-1 .6 0 1.1.4 1.1 1zM314.926 88.443c0 .7-.9 2.1-2 3.1-2.8 2.6-2.6 5.5.4 5.5 1.8 0 2.5-.7 2.8-2.8.3-1.5.8-3.4 1.2-4.3.5-1.1.1-1.9-.8-2.2-1-.4-1.6-.1-1.6.7zM180.226 91.443c.4 1-.1 1.3-1.9 1.1-1.9-.2-2.4.2-2.4 2.1 0 2-.5 2.4-3.2 2.4-1.7 0-2.8.3-2.5.7.4.3.2 1.2-.4 1.9-.7.8-.7 1.4.1 1.9.7.4.2 1.5-1.4 2.8-3.7 3.3-5.9 9.7-3.2 9.7.9 0 1.2.8.9 2.4-.5 2.5 1.5 3.6 6.7 3.6h2.5l-2.7-2.5c-1.5-1.4-3.1-2.5-3.6-2.5-1.5 0-3.4-2.8-3-4.2.3-.8 1.6-.2 3.7 2 2.7 2.6 3.6 3 4.7 2.1 2.6-2.1 5.9-1.9 6.1.5.1 1.1.5 4.4.9 7.2.5 4.5.3 5.5-1.5 7.3-2.3 2.3-2.8 7.2-1.2 11.4.6 1.5.6 4 0 6.3-1.1 4.7.3 8.9 3.1 9.1 2.9.2 7 3.3 7 5.3 0 .9-.9 2.5-2 3.5-1.7 1.6-1.8 1.9-.4 4 1.5 2.3 1.4 2.3-2.8 3-2.4.4-4.9 1.2-5.5 1.7-1.9 1.5-1.6 5.8.3 5.8.9 0 2.2.8 2.9 1.7 1.1 1.5 1.4 1.5 3.9-.5 1.5-1.1 2.7-2.3 2.6-2.7-.2-1.6 2.7-3.1 5.2-2.7 2.8.4 5 2.2 2.8 2.2-.8 0-1 .9-.6 2.4.9 3.7-.2 5.8-2.5 4.5-1.5-.7-1.9-.6-1.9.5 0 .8.5 1.8 1 2.1.6.3 1 1.5 1 2.5s1 2.6 2.3 3.5c2 1.4 2.2 1.4 2.5 0 .2-.8.9-1.5 1.7-1.5 1.8 0 2.6-2.5 1.2-3.9-.8-.8-.4-1.1 1.6-1.1 2.1 0 2.7-.5 2.7-2.1 0-1.1-.4-1.8-.9-1.5-.5.3-1.1-.1-1.5-.9-.3-.8-.2-1.5.3-1.5.4 0 .6-1.4.3-3-.3-2.1-1.3-3.5-3.2-4.5-1.5-.8-3-1.1-3.3-.8-.4.3-1.3 0-2.2-.7-.8-.7-1.5-.9-1.5-.4 0 .4-.7-.1-1.5-1.2-.8-1-1.5-3.5-1.5-5.6 0-3 .3-3.5 1.8-3.2 2.5.7 6.2-3.2 6.2-6.5 0-1.5.8-4.5 1.9-6.6 1.7-3.5 1.7-4.2.3-8.7-1.3-4.7-1.3-5.1.6-7 2-2 1.7-4.7-.9-10-.5-1-.9-2.5-.9-3.3 0-.8-.8-1.5-1.9-1.5-1.5 0-1.8-.7-1.7-3.9 0-3.3.3-3.8 1.5-2.8s1.3.9.6-.8c-.4-1.1-.8-3.5-.7-5.4.1-2-.5-4.2-1.4-5.2-1.4-1.5-1.4-2.1-.4-3.4 1-1.3.9-1.5-1.1-1.7h-4.2c-1.1.1-3.2-.9-4.9-2.3-3.3-2.8-5.3-3.3-4.5-1.1zm1.7 18.4c0 1.3-1.2 2.2-2.2 1.6-1-.6-.1-2.4 1.3-2.4.5 0 .9.4.9.8zM150.426 100.943c-.4 1.4-1.7 2.1-4.3 2.3-3.4.3-3.7.5-3.5 3.3.2 2 1.5 4.2 4.2 6.7 2.1 2 3.6 4 3.2 4.4-.3.4.2.4 1.1.1.9-.3 1.9-.1 2.2.6.2.7.5.2.5-1.1.1-1.2.5-2.2.9-2.2s.9-1.3 1-2.8c.2-2.2-.4-3.1-2.3-4-1.5-.7-2.5-2-2.5-3.2 0-2.3 2.4-5.3 3.4-4.3.3.4.6.1.6-.5 0-2-3.8-1.3-4.5.7z"/><path d="M163.726 101.843c-.4 1.5 0 1.9 1.6 1.8 2.5-.1 2.9-2.9.5-3.4-.9-.2-1.9.5-2.1 1.6zM312.226 101.843c.5 2.1.3 2.3-1.8 1.8-1.8-.5-2.4-.1-2.9 1.9-.9 3.4 1.8 7 6.7 9 3.2 1.3 3.7 1.9 3.7 4.7v3.3l-2-2.5c-1.6-2-2-2.2-2-.7 0 1 1.4 2.4 3.5 3.4 1.9.9 3.2 2 2.9 2.5-.3.4.2.8 1 .8.9 0 1.6-.9 1.6-2 0-2.2.7-2.5 2.9-1.1 1.4.9 6.1-.6 6.1-1.9 0-.9-4.3-3.2-5.6-2.9-2.1.4-3.2-.2-3.7-2.1-.3-1.3-1.4-2-2.9-2-1.3 0-3.4-.7-4.6-1.6-1.7-1.2-2-1.9-1.2-3.4 1.5-2.8 1.2-6.6-.7-8.1-1.5-1.3-1.6-1.2-1 .9zM158.126 104.043c-1.6 2.6-1.5 4 .3 4 1.7 0 3.9-3.6 3-5-.9-1.5-1.9-1.2-3.3 1zM163.526 106.543c-.3.8-.1 1.5.3 1.5.5 0 1.1-.7 1.5-1.5.3-.8.1-1.5-.3-1.5-.5 0-1.1.7-1.5 1.5zM63.026 112.643c0 1.1.3 1.4.6.6.3-.7.2-1.6-.1-1.9-.3-.4-.6.2-.5 1.3zM73.926 117.043c-1.4.4-2 .9-1.5 1 .6.1 1.7.3 2.6.5.9.1 1.6-.4 1.6-1.1 0-.8-.1-1.4-.1-1.3-.1.1-1.2.5-2.6.9zM28.526 121.743c-.6 1.4-.5 1.5.5.6.7-.7 1-1.5.7-1.8-.3-.3-.9.2-1.2 1.2zM312.426 124.043c-.3.5-.1 1.8.4 2.7.6 1 1.1 1.3 1.1.6 0-.6.3-1.8.6-2.7.7-1.7-1.1-2.2-2.1-.6zM20.526 130.343c.3 1 .9 1.5 1.2 1.2.3-.3 0-1.1-.7-1.8-1-.9-1.1-.8-.5.6zM20.926 135.043c0 .5.5 1 1.1 1 .5 0 .7-.5.4-1-.3-.6-.8-1-1.1-1-.2 0-.4.4-.4 1zM54.826 137.043c-.3 2.6-.8 3.5-2.1 3.4-1-.1-1.8.4-1.8 1.2 0 2.1 4.1 5.4 6.7 5.4 1.3 0 3.9.7 5.8 1.4 1.9.8 3.5 1.2 3.5.8-.1-1.4-2.9-5.7-3.7-5.7-.4 0-.8-.8-.7-1.8 0-.9-.3-1.7-.7-1.7-.4 0-1.1-.9-1.4-2.1-.5-1.6-1-1.8-2.1-.8-1.1.9-1.6.7-2.3-1.2-.8-2.2-.9-2.2-1.2 1.1zM310.526 137.543c-.3.8-1.2 1.5-2.1 1.5-.8 0-1.5.4-1.5 1 0 .5-.9 1-2 1-2.6 0-2.6 2.4.1 5.1 1.5 1.5 2.4 1.8 3.2 1 .6-.6 2.4-1.1 3.9-1.1 2.8 0 3.9-2.2 1.8-3.5-.5-.3-1-1.9-1-3.6 0-3.1-1.4-3.9-2.4-1.4zM18.726 138.943c-1.3 1.6-1.4 2.2-.4 3 1.4 1.2 4.5-1.7 3.8-3.7-.5-1.7-1.5-1.5-3.4.7zM295.926 144.943c-1.7.5-2.1.9-1.2 1.5.6.4 1.2 1.2 1.2 1.7 0 .6-.5.7-1 .4-.6-.4-1.7.9-2.4 2.7-1.7 3.9-.6 5.8 3 5.8 1.3 0 2.4-.6 2.4-1.3.1-.6.3-3.6.5-6.5.2-2.8.3-5.2.2-5.1-.1.1-1.3.4-2.7.8zM13.826 152.243c0 1.8-.2 4.3-.3 5.6-.4 3.7 1.2 3.6 5-.2 3.4-3.4 3.5-3.6 1.8-6.1-1-1.5-2.6-2.5-4-2.5-2 0-2.4.5-2.5 3.2zM66.526 153.643c-.4 1-.1 1.4.6 1.2 1.5-.5 2.3-2.8 1-2.8-.5 0-1.3.7-1.6 1.6zM67.326 159.843c-.8 1.3-.5 2.1 1.6 3.9 1.5 1.2 3.3 3.7 4.1 5.5 1.4 3.6 2.6 4.8 4.8 4.8 1 0 .6-.9-1.1-2.8-1.5-1.5-3.2-3.8-3.8-5.2-1.2-2.7-3.4-6.8-4.1-7.5-.3-.2-.9.3-1.5 1.3zM4.726 163.043c-.3 1.6-.1 3 .4 3 .4 0 .8-1.4.8-3 0-1.7-.2-3-.4-3s-.6 1.3-.8 3zM73.726 160.743c.7.3 1.6.2 1.9-.1.4-.3-.2-.6-1.3-.5-1.1 0-1.4.3-.6.6zM.026 170.643c0 1.1.3 1.4.6.6.3-.7.2-1.6-.1-1.9-.3-.4-.6.2-.5 1.3zM80.526 176.443c.3.9 1.3 1.6 2.2 1.6.8 0 1.3-.1 1.1-.3-.2-.1-1.2-.9-2.2-1.6-1.5-1.2-1.7-1.2-1.1.3zM86.226 181.443c.3.7.1 1.8-.5 2.4-1.4 1.4.7 4.2 3.2 4.2 1.3 0 1.6-.6 1.2-2.8-.5-3-2-5.2-3.4-5.2-.6 0-.8.6-.5 1.4zM94.426 189.943c-.7 1.2 2.8 6.2 8.8 12.6l4.7 5-1.1-3.5c-.7-1.9-1.8-4.3-2.5-5.4-.7-1-1-2.5-.7-3.4.4-1 .2-1.3-.5-.8-.7.4-1.4-.3-1.8-1.8-.3-1.3-1.5-2.7-2.7-3-3-.8-3.5-.7-4.2.3zM195.426 197.043c.3.5.8 1 1.1 1 .2 0 .4-.5.4-1 0-.6-.5-1-1.1-1-.5 0-.7.4-.4 1zM755.026 197.943c-1.2.8-1.1 1.2.3 2.7 1.6 1.6 1.9 1.6 3.4 0 1.5-1.5 1.5-1.6 0-1.6-.9 0-1.8-.4-2-1-.2-.5-.9-.6-1.7-.1zM753.626 206.743c-1.3 1.3-.7 3.2.8 2.7.8-.4 1.5-1.2 1.5-2 0-1.5-1.2-1.9-2.3-.7zM109.326 213.743c.7 5.3 1.5 6.6 3.5 5.4 1.1-.7.9-1.3-.8-3-1.7-1.7-1.9-2.6-1.2-4 1-1.9.6-3.1-1.2-3.1-.6 0-.7 1.9-.3 4.7zM761.526 211.543c-.3.8-.1 1.5.4 1.5.6 0 1-.7 1-1.5s-.2-1.5-.4-1.5-.6.7-1 1.5zM114.926 228.643c0 .8.5 1.2 1 .9.6-.3 1-1 1-1.6 0-.5-.4-.9-1-.9-.5 0-1 .7-1 1.6zM564.926 242.843c0 .7.5 1 1 .7.6-.3 1 .2 1 1.2 0 1.4.2 1.5.9.4s1.2-.7 2.5 1.5c2 3.9 2 2.4-.1-2-1.6-3.4-5.3-4.7-5.3-1.8zM842.926 245.143c0 1.2 2.9 3.8 4.3 3.9 1.4 0 .7-2.3-1-3.6-2.2-1.7-3.3-1.7-3.3-.3zM559.726 245.743c-3.1.5-3.4 1.2-1.5 3.2 1 1 .9 1.5-.5 2.5-1 .7-1.8 2-1.8 2.8 0 .8-1.1 2.5-2.5 3.8-2.7 2.6-3.2 5.2-1.2 6.8 1.7 1.5 3.8-1.8 3-4.8-.5-2-.4-2.1 1.4-1.1 1.7.8 2.6.7 4.6-.9 2.8-2.2 5.2-2.6 6.2-1 .4.6 1.1.8 1.6.4.5-.3.7-1 .4-1.5-.4-.5 0-.9.7-1 .7 0 0-.5-1.6-1.1-2.1-.8-2.5-1.3-1.5-1.9 1-.6.4-.9-1.8-.9-2.9 0-3.3-.3-3.3-2.5 0-2.3.2-2.5 2.1-1.4 1.7.9 2 .8 1.7-.3-.5-1.5-2-1.7-6-1.1zM725.926 247.543c-1 1.2-1 1.5.4 1.5.9 0 1.6-.7 1.6-1.5s-.2-1.5-.4-1.5-.9.7-1.6 1.5zM845.926 254.143c0 .5.5.7 1 .4.6-.3 1-.8 1-1.1 0-.2-.4-.4-1-.4-.5 0-1 .5-1 1.1zM569.926 258.443c0 .2.7.6 1.5 1 .8.3 1.5.1 1.5-.4 0-.6-.7-1-1.5-1s-1.5.2-1.5.4zM683.926 268.143c0 .6-.4.8-.9.5-.4-.3-1.7.4-2.7 1.6-1.1 1.2-1.3 1.8-.6 1.4.8-.5 1.6.2 2.2 1.9 1.3 3.4 1.3 3.5-.5 3.5-1.9 0-2 2.9 0 3.6.8.4 1.2 1 .9 1.5-.9 1.5.6 1 3.6-1.1 2.4-1.7 2.8-2.6 2.7-6.9-.1-4.2-.4-5.1-2.4-6-1.6-.7-2.3-.7-2.3 0zM213.426 279.643c-.9 1.5-1.2 2.3-.5 1.9.6-.4 2.4-1 3.8-1.4 2.7-.7 2.7-.8.6-1.9-1.9-1-2.4-.8-3.9 1.4zM201.726 284.243c.6 2.3 3.5 4 5.5 3.2.9-.3 2.6 0 3.9.8 3.3 1.8 6 1.9 5.4.1-.3-.8-.6-1.6-.6-1.8 0-1-7-3.6-10.6-3.9-3.6-.3-4.1-.1-3.6 1.6zM236.926 339.443c0 1.9 1.9 3.2 6.3 4.4 4.1 1.1 4.5.7 2.1-2.6-1-1.5-2.2-2.1-3.4-1.7-1 .3-2.1.1-2.5-.5-.9-1.5-2.5-1.2-2.5.4zM251.126 342.643c-.7.8-.8 1.4-.3 1.4 1 0 2.5-1.9 2-2.5-.2-.1-1 .3-1.7 1.1zM255.726 343.743c.7.3 1.6.2 1.9-.1.4-.3-.2-.6-1.3-.5-1.1 0-1.4.3-.6.6zM982.926 386.543c0 1.8-.5 2.5-1.9 2.5-1.3 0-2 1-2.5 3.1-.3 1.9-1 2.8-1.7 2.3-1.2-.7-2.9 1.3-2.9 3.5 0 1 .6.8 2-.7 1.2-1.2 2.8-2.2 3.8-2.2 1.2 0 1.4-.2.4-.8-1.8-1.2 3.1-3.6 5.8-2.9 1.4.4 2 .2 1.7-.6-3-7-4.7-8.5-4.7-4.2zM990.026 391.343c-.8 1.2-1 1.9-.6 1.5.5-.4 1.5-.2 2.3.5 1.1.8 1.4.8.9 0-.4-.6-.2-1.3.4-1.5.7-.2.7-.8-.3-1.5-1.1-1-1.7-.7-2.7 1zM455.426 397.043c-.3.5 0 1 .9 1 .8 0 1.7.6 1.9 1.2.4.8.6.9.6.2.1-1.8-2.6-3.7-3.4-2.4zM963.326 399.543c-.3.8-1 1.2-1.5.9-1.4-.8-7.9 1.6-7.9 2.9 0 1.5-4.4 5.7-6 5.7-.7 0-1 .6-.7 1.4.3.7.1 1.8-.5 2.4-.6.6.1 1.3 2.2 2.1 2.8.9 3.3.8 3.7-.9.3-1.2 1.4-2 2.5-2 2 0 9.8-7.1 9.8-9 0-.5 1.3-.7 2.8-.5 2 .2 3.2-.3 4.1-1.7 1.2-1.9 1.1-2-1.5-1.5-1.6.3-3.7.1-4.7-.4-1.3-.7-1.9-.6-2.3.6zM452.926 400.043c-.9.6-1 1-.3 1 .6 0 1.5-.5 1.8-1 .8-1.2.4-1.2-1.5 0zM458.926 401.443c0 .2.7.6 1.5 1 .8.3 1.5.1 1.5-.4 0-.6-.7-1-1.5-1s-1.5.2-1.5.4zM421.926 408.343c0 .4.9 2.1 2 3.9 1.1 1.8 2 2.7 2 2 0-.8-.9-2.5-2-3.9s-2-2.3-2-2zM941.226 415.543c-3.6 1.6-4.5 4.5-1.3 4.5 1.1 0 2-.5 2-1 0-.6.7-1 1.5-1s1.5-.9 1.5-2-.1-2-.2-2c-.2.1-1.8.7-3.5 1.5zM422.126 419.543c-1.6 3.4-1.5 4 .2 2.6 1.6-1.3 2.8-5.1 1.7-5.1-.4 0-1.3 1.1-1.9 2.5zM413.926 427.843c-1.7 1.6-2.1 2.6-1.2 2.9.6.3 1.2 1.5 1.2 2.8 0 1.3.4 2.6.9 3 1.4.8 3.1-2.8 3.1-6.2 0-4.5-1.2-5.3-4-2.5zM404.926 429.543c0 .9.9 1.5 2.1 1.5 1.5 0 1.9.5 1.5 1.5-.3.9 0 1.5.9 1.5 1.8 0 .9-2.9-1.4-4.7-2.1-1.7-3.1-1.6-3.1.2zM396.126 433.143c-.9 1.5-.8 1.9.8 2.4 1.1.4 2.4 1.5 3 2.5.9 1.7 1.2 1.7 4 .4 4.2-2.1 4.5-3.2 1.3-3.9-1.5-.3-4-1.2-5.4-1.9-2.3-1.2-2.7-1.1-3.7.5zM542.826 485.343c-.8 1.8-2.6 3.8-4 4.4-3.4 1.6-5.3 3.9-4.4 5.3.5.8 1.2.7 2.3-.3 1.1-1 2.4-1.2 3.7-.7 3.8 1.6 5.8 1.2 5.2-1-.3-1.2 0-2 .8-2s1.1-.8.8-2c-.3-1.1.1-2.8.8-3.8 1.3-1.5 1.2-1.6-.3-.3-1.6 1.2-1.8 1.1-1.8-.2 0-3-1.7-2.6-3.1.6zM411.926 492.043c-.9.6-.6 1 1.1 1.5 1.3.4 3.8 1.8 5.6 3.1 1.7 1.3 3.8 2.4 4.6 2.4 2.2 0 7.6 5.4 7.4 7.5-.1 1.4.5 2 2 2.1 1.3.1 4.1 1.3 6.3 2.8 2.2 1.4 4 2.5 4.1 2.4.1-.2.2-2 .3-4.1.1-3.9-1.5-6.4-3.3-5.2-1.5.8-5.1-2.7-5.6-5.5-.7-3.5-1.9-4.2-7.7-4.8-2.9-.2-5.8-.9-6.5-1.4-.7-.6-1.3-.4-1.5.4-.4 1-1 .9-3-.4-1.4-.9-3-1.3-3.8-.8zM759.926 497.043c0 .5.5 1 1 1 .6 0 1 1.1 1 2.5 0 1.5.8 2.9 2.2 3.6 2.2 1.2 2.2 1.2.5-1.5-1-1.5-1.5-3.1-1.2-3.6.3-.5-.4-1.4-1.5-2-1.3-.7-2-.7-2 0zM532.926 500.543c0 1.8-.5 2.5-1.9 2.5-2.4 0-6.6 3.7-7.5 6.7-.6 1.8-.2 2.5 1.8 3.4 2.1 1 2.4 1.5 1.5 2.8-.7.9.2.1 2-1.7 1.7-1.8 3.1-4.2 3.1-5.3 0-1.7.5-2 2.1-1.6 1.6.4 1.8.3.8-.9-.7-.8-.9-2.7-.5-4.9s.3-3.5-.4-3.5c-.5 0-1 1.1-1 2.5zM456.426 511.143c-1 1.5 0 2.1 2.7 1.7l2.3-.3-2.2-1.3c-1.5-.8-2.4-.9-2.8-.1zM466.926 511.143c-1.3.8-1.2 1.2.5 2.4 1.1.8 2.5 1.8 3 2.2 1.5 1.2 5.5.3 5.5-1.2 0-.9-1.1-1.2-3.4-1-2.6.3-3.3 0-3-1 .7-1.8-.9-2.6-2.6-1.4zM518.926 513.143c0 .5-.5.7-1 .4-.6-.4-1.8-.1-2.7.7-.9.7-1.8 1.2-2 1-1.3-.9-3.4 0-2.9 1.3.6 1.8.2 1.9-2.5.4-1.4-.7-3-.7-5.5.1-2.8 1-3.9.9-5.7-.3-1.9-1.3-2.4-1.2-4.9.6-2.3 1.7-2.5 2.3-1.6 4.3 1.1 2.4 2.8 3.2 2.8 1.4 0-1.1 5.2-.8 8.1.5 1 .3 2 .2 2.4-.4.3-.6 1.4-1.1 2.5-1.1 1 0 2.1-.8 2.4-1.7.5-1.1 1-1.4 1.4-.7.4.6 2.4 1.3 4.5 1.6 3.5.4 4.2 0 6.4-2.9 1.4-1.8 2.3-4 1.9-4.8-.6-1.7-3.6-2.1-3.6-.4zM960.926 534.543c0 .8.4 1.5 1 1.5.5 0 .7-.7.4-1.5-.4-.8-.8-1.5-1-1.5-.2 0-.4.7-.4 1.5zM774.926 558.043c0 .5.5 1 1.1 1 .5 0 .7-.5.4-1-.3-.6-.8-1-1.1-1-.2 0-.4.4-.4 1zM768.926 558.743c0 .1.9.7 2 1.3 1.5.8 2 .8 2-.3 0-.7-.9-1.3-2-1.3s-2 .1-2 .3zM674.926 579.543c0 .2 1.2 2.1 2.6 4.2 3 4.4 5.4 6.2 5.4 3.9 0-.8-1-2-2.1-2.7-1.5-.8-1.8-1.3-1-1.8.9-.6.9-1-.1-1.8-1.5-1.2-4.8-2.4-4.8-1.8zM695.926 599.043c0 1.1.4 2 .9 2s.7-.9.4-2c-.3-1.1-.7-2-.9-2-.2 0-.4.9-.4 2zM694.926 604.443c0 .9.5 1.6 1 1.6.6 0 1-.4 1-.9 0-.6-.4-1.3-1-1.6-.5-.3-1 .1-1 .9zM698.526 606.143c.3.5 1.3 1.3 2.3 1.8 1.3.7 1.8.6 1.8-.4 0-.7-1.1-1.5-2.3-1.8-1.3-.2-2.1 0-1.8.4zM690.426 611.043c.4.6 1.1.8 1.6.5 1.4-.9 1.1-1.5-.7-1.5-.8 0-1.2.5-.9 1zM701.626 615.643c-.4 1.9-.1 3.2.8 3.8 1.1.8.9 1.2-.8 2.1-1.2.6-2.3 2.1-2.5 3.3-.3 1.8.1 2.2 2.3 2.2 1.8 0 2.9-.6 3.2-2 .5-1.8 1-2.2 2.9-1.9.4 0 1-.5 1.4-1.2.6-.8 1.3-.2 2.4 2 .9 1.7 1.9 3.1 2.2 3.1.3 0 .3-.4 0-.9-.4-.5-.1-1.1.4-1.3.6-.2.8-1.6.4-3.5-.5-2.7-1.3-3.5-4.2-4.3-2.6-.7-3.8-.6-4.3.2-.4.6-1.3 0-2.2-1.7l-1.4-2.8-.6 2.9zM696.926 619.143c0 .5.5.7 1 .4.6-.3 1-.8 1-1.1 0-.2-.4-.4-1-.4-.5 0-1 .5-1 1.1zM710.426 628.043c.3.5.8 1 1.1 1 .2 0 .4-.5.4-1 0-.6-.5-1-1.1-1-.5 0-.7.4-.4 1zM696.426 629.043c.4.6 1.1.8 1.6.5 1.4-.9 1.1-1.5-.7-1.5-.8 0-1.2.5-.9 1zM696.626 634.643c.3.9.6 2.8.7 4.3.1 2.1.6 2.6 2.5 2.6 1.3 0 2.6-.6 2.9-1.3.2-.6-.3-1.2-1.2-1.2-2.2 0-2.9-1.7-1.6-4 .9-1.8.8-2-1.4-2-1.9 0-2.4.4-1.9 1.6z"/></g></svg>