<?xml version="1.0" standalone="no"?>
<!DOCTYPE svg PUBLIC "-//W3C//DTD SVG 20010904//EN"
 "http://www.w3.org/TR/2001/REC-SVG-20010904/DTD/svg10.dtd">
<svg version="1.0" xmlns="http://www.w3.org/2000/svg"
 width="820.898242pt" height="974.938670pt" viewBox="0 0 820.898242 974.938670"
 preserveAspectRatio="xMidYMid meet">
<metadata>
Created by potrace 1.15, written by Peter Selinger 2001-2017
</metadata>
<g transform="translate(-619.000000,1481.369102) scale(0.100000,-0.100000)"
fill="#222222" stroke="none">
<path d="M6826 14803 c-3 -8 -10 -11 -16 -8 -6 3 -10 -3 -10 -15 0 -16 -4 -20
-16 -16 -15 6 -15 4 -1 -18 9 -13 13 -33 10 -45 -4 -16 -1 -21 16 -21 11 0 21
5 21 10 0 6 11 20 25 32 25 21 34 58 15 58 -5 0 -7 6 -4 14 3 8 -3 16 -15 19
-12 3 -22 -1 -25 -10z"/>
<path d="M6775 14650 c3 -5 11 -10 16 -10 6 0 7 5 4 10 -3 6 -11 10 -16 10 -6
0 -7 -4 -4 -10z"/>
<path d="M6881 14515 c-10 -36 2 -95 19 -95 5 0 11 -13 15 -29 3 -16 15 -37
26 -47 36 -32 41 -51 20 -71 -10 -10 -21 -31 -24 -48 -3 -16 -10 -49 -15 -72
-5 -24 -5 -46 0 -51 5 -5 10 -19 13 -31 3 -18 1 -21 -12 -17 -12 5 -13 4 -5
-7 7 -8 9 -17 5 -20 -3 -4 -1 -7 6 -7 7 0 9 -4 6 -10 -3 -5 5 -15 19 -22 18
-7 26 -19 26 -35 0 -32 17 -63 35 -63 14 0 19 -12 29 -71 4 -21 13 -42 21 -49
12 -10 16 -8 24 13 5 14 14 28 19 31 16 10 44 -5 38 -20 -4 -9 2 -14 15 -14
14 0 19 5 16 14 -7 18 49 27 81 13 27 -12 27 -19 3 -41 -13 -12 -20 -14 -23
-5 -3 9 -10 9 -28 -1 -14 -7 -40 -12 -58 -12 -19 1 -43 -4 -53 -12 -16 -11
-17 -15 -5 -32 12 -16 12 -23 0 -46 -8 -15 -14 -36 -14 -48 0 -15 -6 -20 -25
-20 -15 0 -25 -6 -25 -14 0 -16 -27 -15 -56 2 -12 7 -22 4 -33 -7 -17 -17 -51
-82 -51 -98 0 -6 -9 -18 -21 -29 -16 -15 -18 -20 -7 -29 7 -5 14 -29 16 -53 1
-24 10 -54 18 -68 15 -21 15 -24 1 -30 -9 -3 -14 -11 -11 -18 3 -9 -4 -11 -26
-8 -27 4 -31 8 -26 27 4 14 0 28 -10 35 -8 7 -13 19 -10 25 2 7 -4 25 -14 40
-11 16 -17 32 -14 36 2 4 -10 21 -26 39 -18 20 -33 48 -37 72 -5 34 -13 45
-51 69 -25 16 -51 29 -58 29 -7 0 -15 9 -19 19 -4 12 -12 18 -20 14 -8 -3 -12
-9 -9 -14 3 -5 1 -9 -5 -9 -5 0 -13 5 -16 11 -5 7 -13 4 -25 -8 -9 -11 -43
-25 -74 -33 -47 -11 -54 -15 -44 -28 13 -15 18 -82 6 -82 -3 0 -2 -17 4 -37 8
-29 7 -39 -4 -47 -29 -22 -26 -41 8 -64 23 -15 32 -17 28 -7 -8 21 10 19 29
-3 22 -24 21 -31 -3 -25 -22 6 -29 -20 -9 -32 6 -4 -2 -16 -20 -29 l-30 -23
34 -33 c19 -19 33 -35 31 -38 -3 -2 2 -25 10 -50 19 -65 18 -87 -8 -105 -13
-8 -29 -33 -36 -56 -10 -34 -10 -45 2 -64 10 -15 12 -38 9 -74 -5 -43 -9 -53
-24 -53 -20 0 -22 -5 -19 -63 1 -31 -2 -39 -19 -44 -12 -3 -21 -9 -21 -14 0
-5 -11 -9 -24 -9 -16 0 -27 -7 -31 -19 -3 -11 -19 -22 -35 -26 -17 -4 -30 -7
-30 -8 0 -1 4 -16 9 -34 7 -24 6 -33 -5 -37 -8 -3 -14 -19 -14 -39 0 -23 -8
-40 -25 -55 -19 -16 -25 -32 -25 -61 0 -22 4 -42 8 -45 5 -3 7 -19 4 -35 -3
-23 2 -36 24 -58 16 -15 28 -31 27 -34 -1 -4 10 -12 26 -19 20 -8 31 -22 40
-51 6 -21 16 -57 23 -80 9 -32 9 -45 -1 -61 -9 -14 -9 -23 -1 -33 6 -7 10 -28
9 -46 -1 -19 8 -55 19 -80 12 -28 17 -50 11 -56 -5 -5 5 -30 26 -60 19 -29 35
-58 35 -65 0 -17 82 -48 109 -41 11 3 34 0 51 -5 24 -9 31 -8 39 5 12 23 35
-49 28 -91 -3 -19 1 -39 9 -50 7 -10 13 -34 12 -52 -1 -19 2 -37 5 -41 4 -3 2
-12 -3 -18 -12 -14 -3 -45 12 -45 5 0 8 -10 7 -22 -2 -14 7 -33 24 -50 15 -15
27 -25 27 -23 0 3 11 -5 25 -17 14 -12 25 -28 25 -35 0 -7 5 -13 10 -13 6 0
10 -13 10 -30 0 -20 -5 -30 -15 -30 -16 0 -19 -19 -9 -69 4 -17 10 -28 15 -25
5 3 9 -2 9 -12 0 -14 3 -14 15 -4 12 10 19 10 27 2 9 -9 16 -8 28 3 14 13 20
12 51 -9 18 -12 56 -31 82 -42 46 -18 83 -47 120 -93 12 -15 27 -21 50 -20 52
4 72 -14 92 -83 11 -35 25 -69 32 -76 15 -16 18 -46 3 -37 -5 3 -10 0 -10 -8
0 -23 38 -50 73 -51 23 -1 43 -12 70 -39 20 -21 37 -41 37 -45 0 -4 16 -16 35
-26 22 -12 31 -22 24 -27 -6 -4 -9 -11 -5 -17 3 -6 2 -13 -4 -17 -6 -4 -7 -11
-4 -17 4 -6 2 -8 -4 -4 -6 3 -14 1 -18 -5 -8 -13 44 -58 68 -59 9 0 28 -11 40
-25 27 -28 85 -50 90 -33 2 6 21 -1 42 -16 45 -30 115 -36 136 -11 7 8 17 12
22 9 6 -4 13 -1 17 5 5 8 14 8 34 -2 27 -12 34 -23 42 -69 3 -13 14 -29 25
-37 11 -7 20 -25 20 -39 0 -16 14 -38 40 -62 26 -24 38 -43 35 -53 -9 -22 16
-33 27 -13 7 13 13 14 23 6 7 -6 17 -10 21 -8 23 6 84 -14 84 -27 0 -8 -4 -15
-10 -15 -18 0 -42 -60 -30 -75 6 -7 9 -26 8 -43 -1 -16 3 -36 9 -44 10 -12 10
-92 1 -125 -6 -21 13 -73 26 -73 9 0 22 -13 31 -29 8 -16 25 -38 38 -48 13
-10 26 -26 30 -36 4 -9 15 -20 24 -24 28 -10 67 -43 80 -66 6 -12 18 -22 25
-22 8 0 40 -30 72 -68 42 -49 56 -72 51 -86 -3 -11 3 -40 15 -66 14 -30 19
-56 15 -74 -4 -18 -1 -32 8 -39 8 -7 12 -23 9 -37 -2 -15 2 -33 11 -43 25 -28
30 -62 13 -80 -13 -16 -13 -21 1 -50 14 -28 14 -38 3 -72 -7 -22 -17 -40 -22
-40 -17 0 -7 -22 12 -27 16 -4 20 -12 17 -42 -2 -23 -8 -35 -16 -33 -7 1 -19
-2 -27 -9 -7 -6 -17 -8 -22 -6 -4 3 -14 2 -22 -3 -9 -5 -20 -4 -29 3 -12 10
-13 7 -9 -20 2 -18 0 -30 -4 -27 -5 3 -19 3 -31 0 -17 -4 -23 -13 -24 -41 -5
-76 -8 -90 -21 -103 -7 -8 -18 -12 -26 -9 -9 4 -13 -4 -14 -21 -2 -62 -14 -98
-35 -107 -20 -9 -22 -16 -19 -72 3 -41 0 -63 -7 -63 -6 0 -11 -13 -11 -30 0
-16 5 -30 11 -30 5 0 9 -8 7 -17 -1 -10 3 -32 11 -50 12 -31 12 -33 -22 -67
-18 -20 -39 -36 -46 -36 -6 0 -26 -10 -44 -22 -18 -13 -33 -24 -35 -25 -2 -1
2 -12 9 -25 7 -12 16 -39 20 -58 4 -19 11 -45 14 -57 5 -17 3 -23 -8 -23 -9 0
-17 -14 -22 -37 -4 -21 -18 -48 -31 -62 -19 -18 -22 -27 -13 -37 6 -8 18 -14
25 -14 8 0 14 -4 14 -9 0 -5 8 -17 17 -27 16 -16 16 -16 -4 -10 -24 8 -63 -23
-63 -49 0 -8 -15 -19 -32 -24 -31 -8 -30 -9 15 -7 27 1 52 8 57 15 7 13 50 7
50 -7 0 -10 62 -8 77 1 7 5 22 10 34 12 30 6 49 24 49 47 0 22 66 88 87 88 7
0 13 9 13 20 0 18 4 20 35 14 30 -5 34 -4 29 10 -3 9 -2 16 4 16 5 0 7 11 4
25 -3 17 1 27 12 31 9 3 16 13 16 21 0 9 6 13 14 10 9 -4 27 8 46 29 16 19 35
32 41 28 16 -9 -9 36 -34 63 -18 20 -18 23 -3 29 9 3 16 15 16 25 0 12 7 19
20 19 12 0 25 10 32 25 9 19 19 25 44 25 25 0 33 5 38 24 3 14 16 26 30 30 18
4 26 14 28 34 2 19 8 26 20 24 9 -1 19 6 23 18 3 11 13 20 20 20 9 0 12 6 9
15 -4 8 -2 21 4 28 5 6 13 27 17 45 6 27 11 33 27 29 14 -4 18 -2 14 9 -3 8 0
13 7 11 10 -2 24 -42 29 -84 1 -14 30 -18 41 -6 4 3 2 12 -4 19 -9 10 -7 15 4
20 19 7 60 -13 52 -26 -3 -5 2 -13 11 -18 15 -8 15 -11 0 -40 -17 -33 -22 -82
-7 -82 13 0 20 -63 8 -78 -26 -32 71 -67 118 -42 20 11 29 9 62 -10 21 -12 50
-41 65 -65 25 -42 115 -118 129 -109 4 2 12 -3 19 -11 9 -11 16 -12 33 -3 57
29 59 29 75 15 10 -8 28 -18 42 -22 14 -4 31 -12 38 -17 8 -7 12 -7 12 1 0 18
31 13 77 -14 23 -14 43 -23 43 -20 0 3 9 1 19 -5 14 -7 21 -6 23 2 4 10 10 10
31 1 20 -9 27 -9 30 0 3 8 10 7 24 -5 11 -10 28 -18 37 -18 10 0 36 -18 57
-40 22 -22 48 -40 59 -40 13 0 20 -7 20 -19 0 -18 2 -19 28 -5 15 7 34 14 43
14 21 0 49 32 49 55 0 17 1 17 21 -1 20 -18 21 -18 31 -1 9 17 11 17 42 -3 19
-11 42 -20 52 -20 11 0 28 -7 38 -15 14 -10 23 -12 32 -4 16 13 100 -14 130
-42 12 -11 38 -21 60 -22 28 -2 42 -8 48 -23 6 -14 26 -25 57 -33 27 -7 60
-21 73 -32 20 -16 34 -18 69 -14 31 5 47 2 55 -8 10 -11 9 -17 -2 -26 -9 -8
-16 -8 -20 -2 -4 6 -13 8 -22 4 -12 -5 -12 -8 3 -20 17 -14 17 -14 1 -9 -10 3
-18 2 -18 -2 0 -4 -15 -7 -32 -7 -18 1 -36 -4 -40 -9 -4 -6 -12 3 -19 19 -9
23 -13 26 -16 13 -3 -10 -12 -18 -21 -18 -23 -1 -56 -22 -60 -38 -3 -17 58
-69 116 -100 26 -13 56 -33 67 -43 11 -11 32 -28 46 -39 17 -13 29 -35 38 -72
7 -29 22 -70 34 -92 20 -34 27 -38 65 -40 24 -1 47 -8 51 -15 6 -10 10 -9 15
4 10 27 7 35 -12 35 -10 0 -25 12 -34 28 -9 15 -29 41 -45 59 -15 18 -37 44
-48 58 -11 14 -27 27 -36 30 -22 7 -13 51 14 70 20 14 20 14 -6 36 l-27 21 21
34 c15 26 18 38 10 48 -8 9 -2 20 22 44 l33 32 28 -29 c16 -16 38 -32 50 -35
22 -5 50 -61 40 -78 -3 -5 2 -20 10 -34 12 -18 23 -23 39 -19 21 6 22 3 22
-57 0 -35 -3 -68 -8 -75 -4 -6 -2 -13 5 -16 10 -3 10 -7 -1 -20 -12 -16 -8
-22 12 -18 5 1 7 -7 6 -16 -2 -10 5 -30 15 -45 19 -29 14 -68 -9 -68 -26 0 3
-53 45 -84 27 -20 37 -33 30 -40 -14 -14 -12 -26 5 -26 8 0 15 -6 15 -14 0 -7
7 -19 15 -26 8 -7 15 -20 15 -30 0 -19 33 -53 43 -44 10 11 28 -46 25 -82 -1
-18 1 -36 5 -40 3 -4 2 -15 -4 -25 -6 -13 -6 -25 1 -38 7 -13 7 -22 0 -26 -5
-3 -10 -30 -10 -58 0 -29 -4 -67 -10 -85 -11 -39 -3 -92 14 -92 7 0 20 -15 29
-32 9 -18 21 -40 26 -48 4 -8 13 -30 20 -47 6 -18 16 -48 22 -65 25 -71 36
-83 86 -94 40 -9 51 -8 66 4 11 10 17 11 17 4 0 -7 9 -12 19 -12 10 0 21 -7
25 -15 3 -8 12 -15 20 -15 7 0 21 -11 30 -25 9 -14 22 -25 29 -25 12 0 35 -33
70 -97 9 -18 24 -33 32 -33 8 0 15 -6 15 -13 0 -8 15 -45 34 -84 20 -41 32
-79 29 -91 -2 -11 0 -23 6 -26 6 -4 11 0 11 8 0 20 13 20 65 2 34 -12 42 -12
56 0 8 8 21 14 28 14 7 0 11 6 8 13 -2 7 13 21 37 32 22 11 45 30 51 41 6 12
17 29 25 39 15 18 21 53 10 60 -4 3 0 21 9 40 11 25 21 34 34 31 11 -3 26 8
42 28 20 26 31 32 51 28 20 -4 32 3 55 27 33 37 33 36 19 62 -8 15 -6 26 12
49 18 25 20 33 9 39 -9 6 -5 10 16 15 15 4 36 15 47 24 17 16 20 15 51 -21 33
-38 65 -48 110 -33 14 5 30 0 49 -15 26 -20 28 -27 24 -71 -6 -61 4 -70 86
-72 63 -2 66 -1 77 26 6 15 15 28 20 28 5 0 9 8 9 18 0 10 12 28 26 41 24 20
25 26 18 79 -4 31 -14 67 -22 80 -13 21 -13 22 4 16 17 -5 18 -5 2 6 -12 7
-24 8 -36 1 -12 -6 -23 -5 -37 5 -10 8 -26 12 -35 9 -25 -8 -53 30 -55 73 -1
24 -6 36 -14 34 -22 -5 -51 9 -51 24 0 8 -4 14 -9 14 -18 0 -41 31 -41 54 0
20 4 23 35 20 19 -1 35 2 35 7 0 6 4 8 8 5 4 -2 13 8 20 24 15 32 58 46 82 25
18 -15 80 -8 80 9 0 17 51 61 58 50 10 -13 53 -16 67 -4 9 8 15 8 20 0 4 -6
12 -7 24 -1 13 7 16 19 13 45 -2 20 -8 33 -13 30 -5 -3 -9 0 -9 5 0 6 0 14 0
18 0 10 112 14 124 4 17 -13 57 -6 67 11 5 9 29 26 54 38 25 12 45 28 45 36 0
9 11 14 30 14 17 0 30 5 30 10 0 6 20 10 45 10 32 0 45 4 45 14 0 8 11 17 25
20 14 4 25 11 25 16 0 6 9 10 19 10 15 0 21 11 28 48 l9 47 31 -32 c35 -37 45
-40 63 -18 9 11 16 12 31 2 10 -6 19 -17 19 -24 0 -16 3 -16 35 -1 23 10 28 9
54 -22 18 -23 30 -30 35 -22 4 7 16 12 27 12 27 0 24 14 -10 43 -19 16 -26 28
-20 34 7 7 6 19 -2 35 -8 19 -8 31 0 46 6 12 7 23 2 26 -5 3 -11 16 -14 28 -2
13 -8 30 -11 39 -5 11 -1 18 13 22 12 3 24 13 27 24 3 10 10 26 15 36 5 9 6
29 3 44 -6 23 -5 25 17 20 28 -7 63 18 73 50 4 12 13 23 20 26 9 4 11 19 6 56
-7 55 -5 58 23 37 26 -20 57 -9 57 21 0 20 4 23 20 18 26 -8 25 -1 -2 24 -16
16 -25 18 -35 10 -10 -9 -13 -8 -13 5 0 9 -11 21 -25 26 -13 5 -31 22 -39 38
-8 15 -33 47 -55 70 -41 42 -52 77 -30 99 6 6 9 22 6 35 -7 26 -69 98 -85 98
-6 0 -16 9 -22 20 -7 13 -21 20 -41 20 -24 0 -30 4 -25 15 3 8 3 22 0 30 -7
17 -49 20 -59 5 -3 -5 -18 -10 -32 -10 -20 0 -24 4 -20 18 19 59 20 65 9 58
-13 -8 -32 24 -32 53 0 17 -5 20 -27 15 -26 -5 -28 -3 -30 30 -2 20 2 36 8 36
5 0 7 4 4 10 -3 6 -15 10 -25 10 -11 0 -34 13 -52 29 -18 15 -40 28 -48 28
-34 -1 -68 34 -75 73 -5 27 -17 48 -38 66 -18 15 -31 30 -30 34 1 4 -9 18 -22
30 -14 13 -25 30 -25 38 0 9 -7 24 -16 34 -10 10 -17 29 -18 43 -1 22 -10 30
-58 49 -32 13 -58 21 -58 19 0 -3 -7 0 -15 7 -8 7 -15 24 -15 39 0 14 -9 37
-20 51 -11 14 -20 32 -20 41 0 9 -9 24 -20 34 -15 14 -23 15 -33 6 -11 -9 -17
-8 -27 4 -7 9 -20 15 -29 13 -22 -3 -100 43 -106 63 -3 9 -7 36 -9 62 -7 84
-79 146 -186 159 -16 2 -26 10 -28 23 -2 11 -9 25 -16 30 -7 6 -15 21 -19 35
-3 14 -19 33 -35 42 -37 22 -60 72 -43 92 8 9 8 16 2 20 -7 5 -7 15 -1 32 17
45 12 68 -20 86 -23 13 -30 24 -30 48 0 27 -3 30 -29 30 -17 0 -33 5 -36 10
-10 17 -44 11 -57 -10 -10 -15 -24 -20 -55 -20 -39 0 -43 2 -43 24 0 32 18 43
34 21 10 -14 14 -15 24 -3 9 12 7 17 -13 28 -24 13 -29 25 -26 60 1 21 -8 31
-54 62 -59 38 -82 43 -90 18 -3 -11 -14 -20 -23 -20 -9 0 -25 -7 -35 -15 -11
-7 -26 -11 -34 -8 -8 3 -26 0 -40 -8 -23 -12 -27 -11 -43 9 -10 12 -29 22 -42
22 -12 0 -30 4 -38 9 -8 6 -18 7 -22 5 -5 -3 -39 -8 -75 -10 -58 -4 -70 -1
-90 18 -13 12 -23 16 -23 10 0 -7 -7 -12 -16 -12 -18 0 -53 -38 -54 -57 0 -19
-15 -16 -70 12 -27 14 -60 25 -74 25 -25 0 -69 43 -89 87 -6 13 -19 23 -29 23
-24 0 -105 59 -113 83 -4 9 -15 17 -25 17 -10 0 -21 4 -24 9 -3 5 -25 5 -48 0
-57 -11 -58 -11 -58 2 0 5 6 7 13 4 6 -4 1 3 -12 14 -17 15 -20 25 -13 34 14
17 18 49 8 65 -12 19 -6 21 44 12 31 -6 47 -5 52 3 5 8 14 5 30 -10 41 -39 78
12 48 66 -8 16 -5 20 20 25 20 4 34 14 40 32 6 14 18 28 28 31 14 3 17 12 14
34 -5 32 -16 38 -26 12 -6 -15 -10 -13 -31 12 -13 17 -25 44 -25 60 0 19 -3
25 -8 17 -7 -10 -15 -9 -39 3 -30 15 -50 55 -38 75 3 5 -10 20 -29 32 -21 14
-36 31 -36 43 0 11 -24 45 -53 75 -28 30 -50 61 -49 68 2 8 -2 20 -8 27 -7 8
-9 28 -4 49 5 30 2 39 -17 56 -13 10 -29 19 -35 20 -6 0 -17 11 -24 25 -7 14
-37 39 -67 55 -29 17 -53 34 -53 39 0 18 -106 120 -132 126 -14 4 -36 18 -49
31 -21 22 -21 25 -6 42 23 26 22 46 -3 39 -21 -5 -24 3 -21 50 1 11 -2 24 -8
27 -6 4 -8 13 -5 20 3 8 -17 35 -47 64 -45 43 -54 48 -66 36 -18 -18 -28 -18
-43 1 -7 8 -21 15 -31 15 -10 0 -20 4 -23 9 -3 5 -34 12 -68 16 -68 7 -103 24
-112 52 -3 10 -20 26 -37 35 -24 14 -28 21 -20 35 7 14 5 23 -10 39 -18 20
-19 24 -6 62 12 35 12 44 1 59 -7 10 -14 24 -14 32 0 7 -11 22 -25 33 -14 11
-25 28 -25 39 0 10 -16 41 -35 68 -22 30 -31 51 -24 53 9 3 9 9 0 25 -6 12
-11 30 -11 41 0 22 -26 37 -35 22 -4 -6 -13 -10 -21 -10 -16 0 -67 54 -70 75
-1 8 -14 29 -29 47 -24 28 -25 33 -11 44 20 14 21 89 1 124 -18 32 -19 60 -1
60 16 0 28 24 20 44 -3 8 0 17 5 21 6 3 8 11 5 17 -5 7 0 9 14 6 26 -7 38 22
47 115 l6 68 -35 14 c-26 11 -35 22 -40 48 -5 29 -11 34 -34 35 -64 3 -82 8
-97 30 -13 18 -20 20 -36 12 -10 -6 -19 -19 -19 -29 0 -13 -10 -20 -30 -24
-17 -4 -30 -13 -30 -21 0 -8 -9 -21 -20 -29 -11 -8 -18 -20 -15 -28 2 -8 -3
-24 -13 -36 -15 -19 -29 -23 -104 -27 -48 -3 -92 -7 -96 -10 -5 -3 -18 3 -29
14 -14 12 -24 15 -31 8 -7 -7 -16 -6 -30 1 -28 15 -34 14 -28 -6 7 -22 -8 -48
-22 -39 -6 3 -15 -1 -20 -10 -6 -11 -11 -13 -16 -5 -4 6 -16 11 -27 11 -10 0
-19 5 -19 10 0 6 -6 10 -14 10 -8 0 -28 11 -44 25 -25 21 -34 23 -63 15 -46
-13 -46 -13 -51 15 -3 14 -1 25 5 25 5 0 4 7 -3 15 -7 9 -19 14 -25 11 -8 -3
-15 8 -19 27 -4 17 -21 47 -39 65 -19 20 -26 33 -17 32 43 -6 47 -2 42 50 -4
39 -1 51 12 56 12 4 13 10 6 24 -14 26 -13 30 10 30 24 0 35 36 21 72 -5 14
-7 29 -4 32 9 9 -38 56 -50 49 -24 -15 -37 62 -16 95 9 14 5 30 -19 78 -17 32
-31 53 -32 47 0 -7 -7 -13 -15 -13 -8 0 -12 -6 -9 -14 4 -10 -2 -12 -20 -9
-14 3 -26 7 -26 10 0 12 40 44 48 39 11 -6 72 58 72 75 0 6 7 8 16 5 20 -8 74
23 74 43 0 11 4 11 19 -3 11 -10 24 -15 29 -12 5 3 15 -1 22 -9 13 -15 51 -21
49 -7 -4 21 2 54 8 49 3 -4 12 -2 19 4 9 7 14 6 20 -2 4 -7 3 -14 -3 -16 -6
-2 -9 -12 -6 -23 3 -12 -1 -20 -14 -23 -15 -4 -14 -5 5 -6 15 -1 22 -7 22 -21
0 -11 -6 -19 -12 -18 -8 2 -14 -9 -16 -24 -2 -20 1 -28 12 -28 9 0 16 9 16 20
0 26 16 26 30 0 8 -14 17 -19 30 -15 13 4 34 -8 70 -40 28 -25 55 -45 60 -45
6 0 10 12 10 26 0 29 24 59 40 49 6 -4 7 -12 4 -18 -4 -7 -3 -8 2 -4 27 25
-18 77 -79 92 -16 5 -37 24 -55 53 -88 142 -115 212 -56 146 15 -16 23 -23 19
-16 -4 9 0 15 14 19 17 4 19 9 10 24 -7 14 -6 19 4 19 8 0 13 10 13 22 -1 20
4 22 43 22 32 -1 49 -7 61 -22 13 -16 20 -18 36 -9 29 17 45 17 51 1 10 -27
30 -15 25 16 -4 30 -10 33 -72 45 -19 4 -45 13 -57 21 -13 8 -23 12 -23 10 0
-3 -12 1 -27 9 -16 9 -32 11 -42 5 -13 -6 -16 -2 -17 21 -1 22 3 29 18 29 15
0 17 3 8 19 -5 11 -10 31 -10 45 0 14 -3 26 -7 27 -43 4 -72 13 -93 26 -14 9
-22 12 -17 8 12 -14 -32 -53 -54 -48 -14 4 -18 1 -14 -10 4 -8 -1 -17 -10 -21
-9 -3 -14 -10 -10 -15 3 -6 12 -8 19 -5 25 10 25 -23 1 -34 -20 -9 -23 -9 -18
3 7 20 -14 18 -56 -4 -33 -18 -36 -18 -100 1 -44 13 -75 29 -93 48 -15 16 -30
25 -33 20 -4 -6 -12 -7 -18 -3 -7 4 -19 6 -29 5 -9 -2 -19 2 -23 8 -5 8 -11 8
-21 -1 -11 -9 -14 -8 -14 3 0 16 -57 40 -66 27 -10 -16 -52 -10 -58 9 -7 22
-66 27 -66 5 0 -7 -4 -13 -10 -13 -5 0 -10 -7 -10 -17 0 -14 -2 -14 -20 2 -19
17 -21 17 -38 2 -15 -13 -21 -14 -31 -4 -11 10 -13 9 -9 -3 3 -8 14 -14 26
-13 24 3 44 -18 33 -35 -8 -13 -35 -7 -102 22 -10 4 -23 1 -32 -8 -9 -9 -24
-16 -35 -16 -30 0 -75 -58 -77 -99 -3 -51 -4 -53 -15 -46 -5 3 -10 -1 -10 -9
0 -12 -5 -14 -25 -6 -20 8 -27 6 -31 -5 -5 -11 -10 -12 -26 -4 -56 30 -75 29
-116 -7 -22 -19 -47 -34 -56 -34 -9 0 -16 -8 -16 -19 0 -14 -9 -20 -36 -23
-30 -4 -37 -1 -45 19 -5 13 -12 24 -16 24 -37 6 -53 4 -57 -7 -3 -8 -12 -14
-21 -14 -23 0 -92 54 -87 68 2 7 8 10 13 6 16 -9 -2 80 -19 93 -13 11 -12 15
8 31 21 17 22 19 7 62 -13 39 -19 45 -46 48 -17 2 -31 -1 -31 -7 0 -21 -15
-10 -45 30 -34 46 -61 61 -88 47 -23 -12 -105 19 -112 43 -3 10 -17 16 -35 16
-17 0 -44 9 -60 21 -24 18 -33 20 -59 11 -17 -6 -33 -19 -36 -30 -8 -23 -21
-25 -29 -4 -3 8 -2 15 3 15 14 0 8 35 -11 63 -16 22 -17 31 -8 42 6 8 9 19 6
24 -4 5 -2 12 4 16 19 12 10 56 -19 93 -26 33 -29 44 -27 102 1 36 -3 74 -8
85 -5 11 -8 40 -7 64 2 35 -1 42 -13 38 -8 -3 -27 5 -42 18 -15 13 -33 21 -40
18 -7 -2 -21 4 -31 14 -10 10 -32 19 -48 21 -17 2 -38 13 -47 25 -10 13 -28
22 -45 22 -20 0 -29 6 -31 20 -3 11 -11 24 -19 29 -10 5 -12 11 -5 15 6 3 14
19 17 34 11 43 -22 35 -34 -8z m1774 -1005 c3 -5 1 -10 -4 -10 -6 0 -11 5 -11
10 0 6 2 10 4 10 3 0 8 -4 11 -10z m-1980 -110 c3 -5 1 -10 -4 -10 -6 0 -11 5
-11 10 0 6 2 10 4 10 3 0 8 -4 11 -10z m2747 -45 c0 -5 -5 -11 -11 -13 -6 -2
-11 4 -11 13 0 9 5 15 11 13 6 -2 11 -8 11 -13z m-827 -5 c3 -6 -1 -7 -9 -4
-18 7 -21 14 -7 14 6 0 13 -4 16 -10z m-937 -586 c-10 -10 -28 6 -28 24 0 15
1 15 17 -1 9 -9 14 -19 11 -23z m-828 -344 c0 -5 -2 -10 -4 -10 -3 0 -8 5 -11
10 -3 6 -1 10 4 10 6 0 11 -4 11 -10z m992 -12 c-6 -6 -15 -8 -19 -4 -4 4 -1
11 7 16 19 12 27 3 12 -12z m-16 -25 c-7 -7 -26 7 -26 19 0 6 6 6 15 -2 9 -7
13 -15 11 -17z m-1016 -48 c0 -8 -4 -15 -9 -15 -5 0 -14 7 -21 15 -10 13 -9
15 9 15 12 0 21 -6 21 -15z m-20 -165 c0 -5 -5 -10 -11 -10 -5 0 -7 5 -4 10 3
6 8 10 11 10 2 0 4 -4 4 -10z m1853 -1986 c4 -4 -1 -20 -11 -36 -14 -24 -14
-30 -3 -37 10 -6 10 -10 1 -16 -7 -4 -13 1 -17 14 -3 12 -9 21 -14 21 -5 0 -9
11 -9 25 0 18 4 23 15 19 8 -4 15 -1 15 5 0 12 13 15 23 5z m-77 -57 c8 3 14
3 14 0 0 -14 -30 -14 -41 1 -11 14 -11 15 0 5 7 -6 20 -9 27 -6z m44 -67 c8
-5 11 -12 7 -16 -4 -4 -15 0 -24 9 -18 18 -8 23 17 7z m-264 -117 c-10 -10
-19 5 -10 18 6 11 8 11 12 0 2 -7 1 -15 -2 -18z m2889 -110 c10 -20 18 -48 19
-62 1 -14 5 -32 9 -38 6 -9 1 -13 -13 -13 -12 0 -18 -4 -15 -10 3 -5 3 -10 -2
-10 -15 1 -52 69 -40 74 7 2 2 5 -10 5 -25 1 -37 28 -27 65 5 20 12 26 34 26
22 0 31 -7 45 -37z m-2570 -1353 c3 -5 1 -10 -4 -10 -6 0 -11 5 -11 10 0 6 2
10 4 10 3 0 8 -4 11 -10z m2815 -530 c0 -5 -5 -10 -11 -10 -5 0 -7 5 -4 10 3
6 8 10 11 10 2 0 4 -4 4 -10z m-132 -143 c-30 -92 -50 -118 -61 -77 -3 11 0
20 5 20 6 0 5 6 -2 15 -11 13 -8 19 14 40 14 13 26 29 26 34 0 6 6 8 14 5 11
-4 12 -12 4 -37z m-142 -62 c11 -27 -2 -37 -14 -11 -7 16 -8 26 -1 26 5 0 12
-7 15 -15z m108 -102 c-2 -18 -18 -41 -44 -63 -25 -22 -40 -44 -40 -57 0 -12
-9 -27 -20 -33 -11 -6 -20 -20 -20 -30 0 -49 -40 1 -55 68 -5 25 -3 32 9 32 9
0 16 4 16 10 0 5 22 19 49 31 37 17 47 27 43 41 -3 14 1 18 22 18 14 0 26 5
26 11 0 5 4 8 9 5 4 -3 7 -18 5 -33z m-169 -203 c3 -5 2 -10 -4 -10 -5 0 -13
5 -16 10 -3 6 -2 10 4 10 5 0 13 -4 16 -10z m280 -669 c3 -5 1 -12 -4 -15 -5
-3 -11 1 -15 9 -6 16 9 21 19 6z"/>
<path d="M6530 13713 c0 -11 7 -24 16 -27 27 -10 30 3 6 27 l-22 21 0 -21z"/>
<path d="M6545 13660 c3 -5 8 -10 11 -10 2 0 4 5 4 10 0 6 -5 10 -11 10 -5 0
-7 -4 -4 -10z"/>
<path d="M6386 13324 c-8 -21 -8 -24 3 -24 12 0 22 28 12 35 -5 3 -12 -2 -15
-11z"/>
<path d="M9680 13065 c10 -12 10 -18 0 -30 -9 -11 -9 -15 -1 -15 6 0 16 12 21
26 13 34 13 34 -11 34 -18 0 -19 -2 -9 -15z"/>
<path d="M11767 10305 c-4 -23 -3 -24 12 -12 9 8 23 12 31 10 9 -3 7 1 -5 11
-27 21 -32 20 -38 -9z"/>
<path d="M11865 10320 c3 -5 8 -10 11 -10 2 0 4 5 4 10 0 6 -5 10 -11 10 -5 0
-7 -4 -4 -10z"/>
<path d="M11831 10303 c0 -7 -8 -13 -17 -13 -10 0 -13 -6 -9 -19 4 -15 0 -18
-20 -18 -13 0 -22 3 -19 8 3 5 1 9 -4 9 -6 0 -13 -7 -16 -16 -4 -12 -16 -14
-50 -11 -39 4 -45 2 -55 -19 -6 -13 -14 -24 -19 -24 -5 0 -9 -16 -10 -35 -1
-26 2 -34 11 -28 7 4 34 13 61 18 47 10 58 19 70 58 3 11 15 17 34 17 37 0 55
21 49 57 -2 15 -5 22 -6 16z"/>
<path d="M11565 10123 c4 -10 8 -31 9 -46 1 -25 19 -46 39 -47 13 0 7 47 -8
60 -8 7 -15 18 -15 25 0 7 -7 16 -16 19 -13 5 -14 2 -9 -11z"/>
<path d="M8105 9909 c-4 -5 -15 -7 -25 -4 -13 4 -20 -2 -28 -23 -6 -19 -19
-32 -36 -36 -14 -3 -26 -11 -26 -17 0 -18 31 -22 49 -5 17 16 20 16 35 1 15
-15 16 -14 16 9 0 19 5 26 20 26 29 0 43 33 20 48 -13 8 -21 8 -25 1z"/>
<path d="M7902 9861 c-10 -6 -7 -12 11 -24 23 -15 24 -15 19 9 -5 26 -10 28
-30 15z"/>
<path d="M12590 9380 c6 -11 15 -18 21 -15 13 9 11 13 -12 25 -19 11 -20 10
-9 -10z"/>
<path d="M9156 7991 c-3 -5 0 -11 8 -14 15 -6 26 1 26 15 0 11 -27 10 -34 -1z"/>
<path d="M9172 7898 c3 -7 15 -15 27 -16 16 -3 22 1 19 10 -3 7 -15 15 -27 16
-16 3 -22 -1 -19 -10z"/>
<path d="M10672 7407 c-7 -7 -23 -21 -35 -33 -12 -11 -30 -23 -39 -27 -10 -3
-18 -11 -18 -16 0 -5 -21 -9 -46 -9 -26 0 -51 -5 -57 -11 -17 -17 81 -119 116
-121 5 0 5 5 1 11 -3 6 8 3 25 -5 25 -13 29 -14 25 -2 -3 8 -1 17 5 21 6 3 11
15 11 26 0 10 7 19 15 19 8 0 15 4 15 9 0 10 79 -6 96 -19 15 -14 25 -1 18 25
-4 15 0 24 10 28 9 4 16 18 16 33 0 31 -29 57 -46 43 -8 -6 -19 -1 -35 16 -26
26 -56 31 -77 12z"/>
<path d="M10440 7348 c0 -9 7 -19 16 -22 15 -6 15 -4 3 11 -7 10 -15 20 -16
22 -2 2 -3 -3 -3 -11z"/>
<path d="M14220 6970 c19 -13 30 -13 30 0 0 6 -10 10 -22 10 -19 0 -20 -2 -8
-10z"/>
<path d="M11292 6765 c0 -16 2 -22 5 -12 2 9 2 23 0 30 -3 6 -5 -1 -5 -18z"/>
<path d="M14186 6607 c3 -10 9 -15 12 -12 3 3 0 11 -7 18 -10 9 -11 8 -5 -6z"/>
<path d="M13056 6285 c-4 -12 -1 -16 11 -13 18 3 21 20 5 26 -5 1 -12 -4 -16
-13z"/>
<path d="M13016 6265 c-3 -8 -1 -15 4 -15 6 0 10 7 10 15 0 8 -2 15 -4 15 -2
0 -6 -7 -10 -15z"/>
<path d="M13133 5735 c-8 -23 0 -25 21 -4 18 17 18 19 2 19 -9 0 -19 -7 -23
-15z"/>
<path d="M13181 5683 c0 -18 -6 -33 -12 -33 -5 0 -7 -4 -4 -10 10 -17 20 -12
38 20 14 24 15 29 3 24 -8 -3 -16 2 -19 13 -3 10 -5 4 -6 -14z"/>
<path d="M13130 5625 c-9 -11 -10 -19 -3 -26 7 -7 12 -2 15 15 6 30 5 31 -12
11z"/>
<path d="M11471 5373 c-11 -24 -10 -29 6 -40 10 -8 27 -13 38 -11 11 1 30 -4
42 -10 22 -12 70 -24 168 -42 43 -8 60 -6 115 15 63 23 62 27 -8 27 -18 0 -35
4 -38 9 -3 5 -16 1 -30 -7 -18 -12 -37 -15 -70 -10 -46 6 -91 35 -66 44 8 2 3
11 -13 24 -14 11 -29 18 -32 14 -3 -3 -12 -1 -19 4 -8 8 -17 6 -28 -6 -16 -15
-18 -15 -35 0 -17 15 -19 14 -30 -11z"/>
<path d="M12355 5390 c-26 -10 -59 -46 -52 -57 3 -5 -9 -15 -26 -22 -18 -7
-41 -17 -53 -23 -14 -6 -39 -6 -75 1 -41 7 -57 7 -67 -3 -11 -10 -7 -13 17
-13 16 0 42 -8 57 -19 53 -38 69 -44 99 -41 32 4 64 -23 65 -56 0 -10 6 -20
14 -23 8 -3 16 -18 19 -33 8 -37 44 -47 94 -26 20 8 45 13 55 9 24 -7 65 26
60 49 -2 10 3 17 12 17 10 0 16 9 16 21 0 18 4 21 30 16 28 -6 29 -5 23 25
l-6 30 27 -17 c17 -12 23 -21 17 -29 -7 -8 8 -11 50 -13 33 -1 68 -7 77 -15
11 -9 11 -6 -3 14 -11 14 -22 24 -24 22 -5 -5 -31 23 -31 34 0 11 -47 34 -79
38 -35 4 -45 18 -30 41 7 11 9 28 5 38 -6 17 -8 16 -27 -4 -15 -16 -25 -19
-32 -12 -7 7 -14 5 -23 -7 -12 -15 -15 -15 -23 -2 -8 12 -11 11 -18 -7 -6 -17
-12 -20 -23 -13 -13 8 -13 11 -1 19 10 6 2 11 -28 16 -22 4 -44 12 -48 18 -14
21 -48 34 -68 27z m205 -110 c0 -5 -4 -10 -10 -10 -5 0 -10 5 -10 10 0 6 5 10
10 10 6 0 10 -4 10 -10z"/>
<path d="M12083 5353 c-10 -10 -17 -17 -14 -16 2 2 10 -2 18 -9 11 -9 18 -8
30 4 15 15 11 38 -6 38 -5 0 -17 -8 -28 -17z"/>
<path d="M13085 5340 c3 -5 10 -10 16 -10 5 0 9 5 9 10 0 6 -7 10 -16 10 -8 0
-12 -4 -9 -10z"/>
<path d="M13173 5323 c-16 -6 -17 -89 -2 -98 6 -5 3 -13 -11 -22 l-21 -15 27
-21 c19 -15 29 -17 32 -9 2 7 13 12 24 12 15 0 19 5 15 19 -4 15 2 22 24 30
16 5 29 13 29 16 0 3 -13 19 -30 35 -16 16 -30 34 -30 40 0 6 -5 8 -10 5 -6
-4 -16 -2 -23 3 -7 5 -18 7 -24 5z"/>
<path d="M12010 5304 l-25 -14 26 0 c15 0 29 7 33 15 6 18 -1 18 -34 -1z"/>
<path d="M11930 5300 c8 -5 20 -10 25 -10 6 0 3 5 -5 10 -8 5 -19 10 -25 10
-5 0 -3 -5 5 -10z"/>
<path d="M13260 5300 c0 -5 5 -10 10 -10 6 0 10 5 10 10 0 6 -4 10 -10 10 -5
0 -10 -4 -10 -10z"/>
<path d="M12893 5245 c-18 -5 -33 -15 -33 -23 0 -7 -5 -10 -12 -6 -7 5 -8 3
-3 -5 4 -8 20 -11 39 -8 17 2 44 -2 60 -10 16 -8 38 -16 50 -18 12 -1 29 -6
39 -10 18 -8 24 9 7 20 -5 3 -10 15 -10 25 0 18 -32 36 -48 26 -5 -3 -19 0
-33 7 -17 9 -34 9 -56 2z"/>
<path d="M12840 5170 c0 -5 5 -10 11 -10 5 0 7 5 4 10 -3 6 -8 10 -11 10 -2 0
-4 -4 -4 -10z"/>
<path d="M13074 5166 c-15 -11 -16 -17 -7 -27 9 -9 15 -8 29 5 23 23 5 41 -22
22z"/>
<path d="M13110 5124 c0 -8 5 -12 10 -9 6 3 10 10 10 16 0 5 -4 9 -10 9 -5 0
-10 -7 -10 -16z"/>
</g>
</svg>
