<?xml version="1.0" standalone="no"?>
<!DOCTYPE svg PUBLIC "-//W3C//DTD SVG 20010904//EN"
 "http://www.w3.org/TR/2001/REC-SVG-20010904/DTD/svg10.dtd">
<svg version="1.0" xmlns="http://www.w3.org/2000/svg"
 width="933.942523pt" height="603.061399pt" viewBox="0 0 933.942523 603.061399"
 preserveAspectRatio="xMidYMid meet">
<metadata>
Created by potrace 1.15, written by Peter Selinger 2001-2017
</metadata>
<g transform="translate(-566.450341,1352.293049) scale(0.100000,-0.100000)"
fill="#222222" stroke="none">
<path d="M14098 13519 c-2 -6 -24 -11 -48 -11 -41 -1 -47 -4 -62 -35 -13 -29
-14 -33 -2 -29 8 3 13 2 10 -3 -3 -4 4 -17 15 -27 11 -10 18 -23 15 -30 -3 -7
4 -24 15 -37 10 -14 19 -31 19 -37 0 -7 14 -28 30 -47 17 -19 28 -38 25 -43
-3 -5 4 -14 15 -20 27 -14 27 -44 0 -37 -13 3 -20 0 -20 -9 0 -17 -24 -18 -52
-3 -18 10 -20 9 -15 -5 8 -21 5 -20 -39 4 -38 22 -49 20 -49 -8 0 -9 -6 -16
-12 -14 -18 3 -16 -21 4 -63 13 -27 14 -38 6 -43 -9 -6 -9 -20 -2 -52 9 -37 7
-46 -6 -56 -9 -7 -26 -29 -36 -49 l-20 -37 25 -23 c16 -15 23 -30 20 -39 -3
-9 -3 -24 1 -33 6 -16 8 -16 23 4 23 29 95 34 140 10 26 -14 32 -15 32 -3 0
16 54 38 74 30 9 -3 17 3 21 15 3 12 12 21 20 21 9 0 11 7 7 22 -5 20 -3 21
59 15 l64 -5 18 34 c9 19 17 55 17 80 0 25 4 43 9 40 5 -4 11 -2 13 4 1 5 14
11 28 12 19 2 26 -2 28 -20 4 -26 43 -55 69 -50 10 1 24 -1 30 -5 8 -5 22 2
37 18 20 21 29 25 43 17 16 -9 15 -12 -10 -23 -19 -9 -26 -18 -22 -30 3 -9 1
-20 -4 -23 -6 -4 -6 -18 -1 -37 5 -16 6 -37 3 -45 -3 -8 -2 -22 2 -31 6 -17 8
-17 21 2 15 20 16 19 50 -18 25 -27 33 -43 29 -60 -4 -16 0 -29 14 -41 11 -10
18 -23 15 -27 -10 -16 -21 -9 -34 20 -9 22 -24 34 -58 45 -45 16 -61 11 -62
-17 0 -4 -12 -13 -27 -20 -14 -6 -49 -35 -76 -64 -27 -29 -57 -55 -67 -58 -10
-3 -21 -17 -24 -30 -5 -20 -13 -25 -39 -26 -17 -1 -36 0 -42 1 -5 1 -16 2 -22
1 -7 0 -19 -2 -25 -2 -7 -1 -20 1 -28 5 -10 4 -20 -5 -31 -27 -9 -18 -25 -33
-37 -35 -12 -2 -34 -15 -50 -30 -26 -25 -28 -29 -16 -57 15 -36 11 -45 -18
-37 -17 4 -20 2 -15 -11 5 -14 0 -17 -28 -17 -24 0 -35 -5 -35 -15 0 -8 -5
-15 -12 -15 -6 0 -26 -16 -45 -36 -35 -38 -37 -75 -6 -93 13 -7 13 -12 3 -32
-7 -13 -16 -48 -19 -79 -5 -47 -9 -55 -28 -58 -24 -4 -29 -12 -14 -27 15 -16
17 -51 4 -67 -15 -17 -16 -46 -4 -163 6 -53 6 -91 0 -93 -11 -4 44 -52 60 -52
6 0 16 11 21 25 13 33 21 32 61 -10 19 -19 40 -35 47 -35 6 0 12 -4 12 -9 0
-5 13 -14 29 -21 23 -9 37 -9 65 1 20 7 36 17 36 22 0 5 15 6 33 3 29 -5 35
-3 45 19 6 14 19 25 28 25 13 0 15 6 9 28 -5 21 -4 24 6 15 9 -9 17 -9 32 -1
11 5 37 8 58 5 36 -5 39 -3 39 19 0 21 3 24 25 18 32 -8 55 10 48 37 -4 12 0
25 7 29 11 7 11 11 1 23 -10 13 -9 16 8 22 32 10 51 50 48 97 -5 54 13 76 38
48 20 -22 35 -26 35 -9 0 5 -4 7 -10 4 -15 -9 -12 6 5 25 13 15 14 28 5 83 -7
47 -7 73 1 90 9 19 7 31 -6 57 -15 30 -15 33 1 51 9 10 14 19 9 19 -4 0 5 10
20 22 24 18 27 26 22 61 -5 33 -3 38 11 35 14 -4 16 2 14 43 -4 44 -2 49 27
63 17 10 32 12 36 6 9 -15 37 1 30 17 -3 10 -1 13 9 10 9 -4 25 5 38 21 13 15
36 28 53 30 16 2 32 6 34 8 11 10 2 106 -11 126 -29 48 -39 118 -25 196 7 40
15 71 18 68 3 -3 4 7 1 24 -2 16 -10 35 -18 41 -18 15 -18 33 0 49 15 12 17
84 3 106 -3 6 -9 30 -13 53 -5 32 -9 39 -20 30 -7 -6 -14 -20 -16 -32 -3 -25
-37 -36 -48 -16 -7 10 -23 10 -75 3 -51 -8 -68 -8 -72 2 -7 18 -96 41 -101 26
-6 -20 -54 -13 -89 14 -18 14 -33 20 -33 15 0 -12 -61 -13 -98 -3 -12 4 -28
18 -35 32 -8 15 -24 27 -45 31 -18 4 -41 14 -51 23 -10 9 -23 16 -29 16 -14 0
-16 16 -3 25 5 3 13 0 17 -6 4 -8 11 -4 20 12 14 27 10 41 -10 33 -17 -6 -31
12 -16 21 5 3 10 11 10 17 0 6 -3 8 -7 5 -3 -4 -17 3 -30 15 -12 12 -34 23
-49 24 -14 2 -36 10 -49 18 -15 10 -25 12 -27 5z m502 -545 c0 -14 -3 -14 -15
-4 -8 7 -15 14 -15 16 0 2 7 4 15 4 8 0 15 -7 15 -16z m-560 -91 c0 -5 -4 -14
-9 -21 -6 -10 -10 -9 -14 7 -3 14 0 21 9 21 8 0 14 -3 14 -7z"/>
<path d="M13865 12691 c-2 -5 1 -14 9 -20 10 -9 15 -8 19 3 6 15 -19 31 -28
17z"/>
<path d="M13790 11582 c-14 -2 -35 -13 -47 -25 -20 -17 -26 -19 -49 -8 -35 16
-42 7 -21 -28 17 -29 17 -29 -17 -59 -25 -22 -31 -33 -23 -41 8 -8 7 -11 -4
-11 -21 0 -51 34 -42 45 5 5 0 3 -9 -4 -10 -7 -18 -22 -18 -33 0 -10 -5 -39
-11 -64 -9 -33 -16 -44 -31 -44 -23 0 -43 -18 -52 -47 -4 -11 -18 -33 -32 -49
-20 -24 -24 -37 -22 -77 2 -26 -1 -48 -5 -50 -5 -1 -3 -15 3 -31 6 -17 7 -33
2 -38 -8 -8 -4 -30 23 -138 2 -8 4 -15 6 -15 1 0 3 -9 4 -21 1 -11 5 -37 9
-57 5 -28 3 -38 -11 -45 -14 -8 -15 -13 -5 -25 18 -21 57 -16 55 7 -1 15 3 15
25 -7 15 -14 41 -32 59 -41 21 -11 30 -21 27 -31 -4 -9 0 -15 8 -15 7 0 14
-10 15 -22 3 -31 29 -56 44 -41 8 8 18 9 31 2 11 -6 18 -6 18 0 0 5 8 7 18 4
14 -3 18 -14 18 -39 -1 -25 -5 -33 -16 -29 -8 2 -31 0 -50 -4 -31 -8 -32 -9
-8 -10 33 -1 42 -14 29 -40 -9 -16 -7 -20 16 -26 19 -4 23 -9 14 -14 -9 -6 -5
-10 14 -15 15 -4 34 -14 42 -22 8 -8 19 -12 24 -9 5 4 9 2 9 -4 0 -5 16 -15
35 -22 25 -10 36 -20 41 -42 4 -19 2 -32 -6 -37 -8 -5 -10 -18 -5 -39 5 -22
10 -29 18 -23 7 5 20 12 31 16 14 5 17 2 12 -9 -7 -20 4 -19 20 2 9 14 10 21
1 32 -8 9 0 8 21 -5 40 -22 69 -71 53 -87 -7 -7 -5 -14 7 -23 16 -12 16 -14
-1 -44 -14 -22 -17 -39 -11 -58 4 -15 8 -32 9 -37 0 -6 8 -20 16 -33 17 -23
49 -22 49 3 0 15 43 45 66 45 12 0 15 6 10 26 -5 20 -3 25 11 24 36 -4 42 1
49 36 6 33 9 36 35 30 34 -7 47 9 25 33 -24 26 -21 51 6 46 12 -3 24 -8 27
-13 3 -5 14 -12 24 -15 11 -4 21 -16 24 -28 4 -12 11 -18 20 -15 8 3 17 6 19
6 2 0 4 9 4 19 0 13 8 21 23 23 18 2 23 10 25 41 3 33 6 38 22 34 11 -3 24 1
31 9 6 8 18 14 25 14 8 0 14 5 14 10 0 6 10 10 21 10 27 0 51 30 38 46 -7 8
-1 14 17 18 57 15 74 35 74 87 0 47 -11 62 -26 38 -4 -8 -9 -7 -15 2 -4 8 -3
20 4 28 10 12 8 13 -15 7 -29 -7 -41 10 -15 20 28 10 13 33 -26 39 -31 6 -38
11 -34 26 7 24 -17 42 -54 41 -17 0 -43 4 -57 9 -18 7 -27 6 -32 -2 -6 -8 -13
-8 -28 0 -11 6 -31 11 -44 11 -32 0 -129 97 -109 109 10 7 11 16 4 36 -10 31
5 107 24 126 19 19 -5 60 -32 53 -15 -4 -24 1 -34 19 -7 14 -11 30 -7 35 3 6
2 13 -4 17 -5 3 -10 17 -10 31 0 14 -4 22 -10 19 -6 -4 -10 5 -10 20 0 14 -7
28 -16 32 -8 3 -13 11 -11 17 2 6 1 21 -4 34 -9 24 -38 29 -58 10 -10 -11 -17
-7 -37 17 -13 17 -24 26 -24 20 0 -5 -4 -4 -9 4 -5 8 -18 16 -28 17 -11 2 -39
12 -63 23 -43 19 -44 19 -57 1 -8 -11 -20 -17 -28 -13 -9 3 -21 1 -28 -5 -7
-6 -36 -12 -65 -14 -44 -3 -51 -6 -46 -21 3 -10 2 -17 -3 -16 -4 1 -21 -3 -36
-9 -35 -15 -47 -15 -47 -1 0 6 6 9 14 6 10 -4 16 5 20 31 3 20 5 46 3 57 -2
20 0 20 49 13 20 -4 54 56 54 95 0 16 4 26 10 22 6 -3 10 3 10 14 0 11 -4 23
-10 26 -21 13 -9 24 16 15 36 -14 43 -13 37 8 -2 10 3 24 11 31 22 18 20 43
-1 39 -10 -1 -22 0 -28 3 -5 3 -21 3 -35 1z"/>
<path d="M11164 11544 c4 -10 4 -15 0 -11 -4 4 -13 -5 -20 -19 -12 -22 -11
-30 6 -62 23 -43 25 -53 7 -46 -15 5 -21 -62 -6 -72 12 -7 11 -44 -1 -44 -5 0
-10 -7 -10 -15 0 -26 -35 -16 -71 21 -21 22 -41 33 -51 30 -10 -2 -18 -1 -18
4 0 4 -18 2 -40 -3 -22 -6 -40 -17 -40 -23 0 -7 -8 -15 -19 -19 -10 -3 -21
-18 -24 -33 -5 -25 -24 -41 -69 -58 -10 -3 -18 -13 -18 -20 0 -8 -11 -20 -25
-26 -16 -7 -25 -19 -25 -34 0 -17 -4 -21 -20 -17 -17 5 -20 0 -20 -26 0 -35
-25 -55 -82 -65 -21 -4 -38 -11 -38 -16 0 -5 -6 -7 -14 -4 -7 3 -27 -7 -44
-21 -28 -23 -35 -25 -68 -16 -20 5 -45 18 -55 27 -11 9 -20 15 -20 13 -6 -17
-5 -90 1 -94 3 -2 5 -18 2 -34 -2 -17 -8 -28 -13 -25 -5 3 -9 -2 -9 -11 0 -24
-24 -95 -32 -95 -4 0 -7 -20 -6 -45 1 -25 7 -45 13 -45 5 0 -4 -11 -21 -25
-19 -14 -34 -38 -38 -57 -3 -17 -14 -40 -22 -50 -14 -14 -14 -20 -4 -33 9 -11
10 -18 1 -28 -6 -8 -8 -17 -4 -21 4 -3 -1 -12 -10 -19 -11 -8 -18 -30 -21 -65
-3 -48 -1 -54 25 -77 36 -30 19 -44 -20 -16 -31 22 -46 27 -37 12 3 -5 -4 -15
-17 -24 -22 -14 -22 -14 -18 26 l3 41 -23 -15 c-13 -9 -34 -15 -46 -14 -12 1
-20 -2 -17 -7 3 -4 -2 -11 -10 -14 -20 -8 -23 -110 -3 -117 9 -4 8 -8 -3 -16
-13 -9 -13 -11 2 -11 9 0 24 -3 33 -7 15 -5 16 -3 6 15 -17 32 -13 50 11 58
13 4 28 14 35 23 14 18 16 6 4 -24 -5 -12 -3 -36 5 -58 10 -28 11 -44 4 -58
-7 -13 -7 -19 0 -19 5 0 10 -7 10 -15 0 -18 -31 -20 -48 -3 -9 9 -12 7 -12
-11 0 -14 -4 -20 -11 -15 -17 10 -28 -16 -18 -43 5 -15 5 -23 -2 -23 -6 0 -8
-9 -4 -20 4 -11 2 -20 -4 -20 -16 0 -14 -90 2 -90 7 -1 5 -6 -5 -14 -10 -7
-18 -20 -18 -28 0 -11 -7 -14 -25 -10 -14 2 -25 8 -25 13 0 18 -28 8 -44 -16
-10 -15 -26 -25 -41 -25 -13 0 -28 -7 -33 -16 -19 -35 -35 9 -22 61 5 21 -1
35 -30 67 -24 26 -28 35 -17 43 15 11 39 94 31 107 -3 4 5 21 17 37 17 23 19
33 10 49 -23 42 -11 102 21 102 11 0 16 5 13 11 -4 5 -14 9 -23 7 -18 -3 -62
33 -62 51 0 6 -9 16 -20 23 -11 7 -20 23 -20 35 0 14 -6 23 -15 23 -8 0 -28
14 -45 30 -17 17 -35 30 -40 30 -5 0 -12 9 -15 21 -5 15 -13 19 -27 16 -17 -5
-18 -2 -13 23 4 20 2 29 -11 34 -13 5 -15 14 -11 40 5 30 3 33 -16 28 -16 -4
-19 -2 -14 11 3 8 0 21 -8 27 -8 6 -12 17 -9 25 3 7 0 16 -6 20 -6 4 -15 18
-20 31 -10 24 -32 38 -80 48 -14 3 -29 15 -35 28 -5 13 -23 29 -40 37 -16 8
-33 18 -36 23 -3 5 -9 3 -12 -6 -4 -9 -16 -16 -27 -16 -13 0 -20 -7 -20 -19 0
-11 -5 -23 -10 -26 -6 -4 -9 -12 -8 -18 4 -20 -33 -67 -53 -67 -12 0 -19 -7
-19 -20 0 -12 -5 -17 -14 -14 -19 7 -52 -42 -66 -98 -8 -31 -20 -50 -36 -58
-13 -8 -24 -22 -24 -32 0 -10 -4 -18 -10 -18 -5 0 -10 -6 -10 -12 -1 -7 -9
-23 -20 -36 -21 -25 -43 -24 -88 5 -22 14 -23 13 -13 -6 18 -33 13 -51 -13
-51 -19 0 -23 -4 -19 -20 5 -21 -11 -28 -22 -10 -9 15 -45 12 -51 -5 -5 -13
-9 -13 -34 0 -47 24 -63 20 -55 -15 4 -19 3 -30 -4 -30 -7 0 -9 -10 -5 -25 3
-14 2 -25 -2 -24 -5 1 -22 -1 -38 -6 l-29 -8 21 -17 c21 -17 46 -93 34 -105
-3 -3 -6 -15 -7 -28 -2 -30 -66 -62 -122 -59 -28 1 -43 -3 -47 -13 -3 -8 -14
-15 -23 -15 -27 0 -44 -51 -26 -76 8 -11 11 -30 8 -45 -4 -15 -2 -30 3 -33 6
-3 8 -16 4 -28 -3 -14 -2 -19 6 -14 7 4 12 3 12 -3 0 -5 -5 -13 -10 -16 -7 -4
-7 -12 0 -25 13 -25 13 -63 -1 -77 -12 -12 8 -123 22 -123 5 0 8 -11 7 -24 -2
-20 -7 -24 -36 -23 -18 1 -36 -3 -40 -8 -4 -6 -16 -15 -27 -21 -11 -6 -24 -26
-30 -44 -6 -21 -22 -41 -42 -53 -19 -11 -33 -27 -33 -38 0 -13 -7 -19 -22 -20
-48 -3 -53 -5 -57 -24 -2 -11 -10 -24 -18 -30 -13 -10 -12 -18 10 -61 l25 -50
-18 -42 c-11 -23 -24 -42 -30 -42 -5 0 -10 -7 -10 -15 0 -8 -8 -15 -17 -15
-11 0 -14 -3 -7 -8 15 -10 12 -52 -4 -52 -9 0 -11 -7 -7 -20 9 -27 -3 -60 -21
-60 -16 0 -19 -26 -3 -36 6 -3 9 -19 7 -35 -3 -22 1 -33 17 -43 17 -11 21 -23
19 -57 -2 -49 -27 -75 -45 -49 -7 11 -9 6 -4 -18 5 -24 3 -33 -10 -38 -9 -4
-14 -13 -11 -21 8 -21 -23 -28 -42 -9 -15 15 -15 16 3 16 17 0 16 2 -5 25 -25
27 -72 34 -89 13 -6 -7 -22 -28 -37 -45 -14 -18 -32 -33 -41 -33 -8 0 -21 -7
-30 -15 -8 -9 -23 -13 -33 -10 -15 5 -17 2 -13 -16 6 -20 3 -21 -29 -15 -26 5
-39 2 -48 -9 -7 -8 -19 -15 -26 -15 -8 0 -19 -11 -24 -25 -6 -16 -17 -25 -32
-25 -21 -1 -21 -2 -5 -11 9 -6 15 -14 12 -20 -11 -16 40 -32 63 -20 21 11 42
-2 22 -14 -6 -4 -8 -9 -6 -13 2 -4 -2 -15 -9 -25 -12 -17 -15 -17 -43 -3 -17
9 -38 13 -48 9 -13 -5 -15 -2 -10 14 13 40 -33 97 -62 79 -5 -3 -16 4 -25 15
-9 10 -26 19 -37 19 -11 0 -20 7 -20 15 0 14 -32 37 -47 33 -4 -1 -18 4 -31
11 -13 7 -30 10 -38 7 -9 -4 -14 2 -14 15 0 22 -36 58 -57 59 -12 0 -18 -25
-14 -56 1 -7 -13 -10 -34 -8 -19 1 -38 -2 -41 -7 -8 -14 -44 20 -38 36 3 7
-14 27 -38 44 -32 24 -49 31 -68 26 -14 -4 -36 -8 -50 -9 -14 -2 -26 -10 -28
-19 -4 -20 -7 -20 -34 -6 -25 14 -101 -13 -122 -42 -11 -16 -18 -18 -40 -9
-19 7 -33 7 -47 0 -11 -6 -35 -8 -55 -4 -26 5 -34 3 -32 -6 2 -8 -7 -19 -19
-25 l-22 -12 32 -46 c17 -26 40 -50 50 -53 11 -3 16 -12 13 -20 -3 -8 3 -20
14 -26 12 -8 20 -24 20 -39 0 -17 8 -30 25 -39 20 -11 25 -21 25 -50 0 -22 8
-46 19 -58 18 -21 42 -30 40 -14 -4 21 4 31 31 41 17 5 30 15 30 20 0 6 6 11
14 11 7 0 33 9 57 19 48 21 99 20 139 -3 12 -7 13 -6 3 5 -7 7 -13 20 -13 29
1 11 6 8 21 -10 15 -18 19 -33 15 -55 -4 -22 -3 -26 4 -15 8 13 11 11 16 -7 4
-13 11 -23 16 -23 5 0 6 5 3 10 -3 6 1 10 9 10 18 0 22 -25 6 -35 -6 -4 -8
-16 -4 -28 12 -36 5 -71 -17 -90 -17 -14 -19 -20 -9 -32 7 -8 24 -15 39 -15
15 0 37 -7 49 -16 29 -20 44 -9 40 29 -4 40 17 46 30 7 8 -20 18 -30 31 -30
12 0 21 -4 21 -10 0 -5 9 -10 20 -10 11 0 20 5 20 10 0 15 22 12 62 -9 25 -12
38 -15 41 -7 3 7 16 5 39 -7 43 -23 70 -19 82 9 5 12 24 26 41 33 32 11 58 49
61 86 1 11 2 27 3 35 2 23 53 41 123 44 76 4 117 -8 182 -51 53 -36 80 -41 94
-18 6 12 14 14 32 7 15 -6 31 -5 41 1 11 7 26 4 52 -8 30 -14 40 -15 52 -5 8
7 15 19 15 26 0 8 7 14 15 14 23 0 76 -30 71 -39 -3 -5 21 -14 54 -21 41 -9
61 -18 65 -31 6 -18 68 -45 83 -35 5 3 20 -6 32 -19 13 -14 34 -25 48 -25 15
0 37 -14 58 -37 19 -20 34 -32 34 -25 0 23 16 12 27 -19 9 -22 17 -30 28 -26
9 4 15 1 15 -7 0 -8 11 -13 27 -13 15 0 29 -5 30 -10 5 -14 77 -7 112 12 17 8
37 25 45 37 17 24 24 22 29 -8 1 -11 13 -31 25 -44 24 -26 27 -36 12 -45 -14
-9 -12 -42 3 -48 7 -3 33 6 57 19 25 12 53 26 63 30 9 3 17 12 17 19 0 7 6 15
14 18 15 6 36 -10 36 -28 0 -17 63 -56 71 -44 4 8 10 6 15 -4 5 -9 14 -16 19
-16 14 0 19 -31 5 -31 -10 0 -10 -3 0 -14 8 -10 8 -20 2 -32 -7 -13 -5 -25 7
-43 9 -14 11 -22 4 -18 -9 5 -13 2 -13 -8 0 -12 5 -15 16 -11 9 3 18 6 20 6 2
0 4 9 4 19 0 11 5 23 10 26 6 4 8 16 4 27 -5 17 -3 18 14 9 11 -6 22 -8 25 -5
3 3 14 1 25 -5 24 -13 57 19 67 66 3 17 17 39 31 47 16 11 24 26 24 45 0 35
17 50 64 58 22 3 38 12 41 24 4 10 21 28 38 40 18 12 37 29 44 37 11 13 15 13
38 -2 32 -21 48 -12 42 23 -4 17 1 33 13 46 27 30 17 119 -15 133 -12 6 -27
24 -33 41 -9 25 -8 32 6 40 15 8 14 11 -6 28 -16 13 -25 32 -28 63 -2 25 -1
39 2 33 4 -10 11 -10 25 -2 11 5 17 14 14 20 -4 5 -10 7 -15 4 -14 -9 -47 30
-55 64 -5 23 -3 31 7 31 20 0 63 54 65 81 0 13 -1 18 -4 12 -7 -18 -23 -16
-23 2 0 8 6 15 13 15 17 0 39 37 27 45 -6 3 -10 11 -10 16 0 6 5 7 10 4 6 -3
10 4 10 17 0 13 5 29 12 36 9 9 5 19 -17 42 -16 16 -37 33 -48 36 -13 4 -16 9
-8 13 6 4 13 29 16 55 3 26 14 59 25 73 13 17 18 34 14 47 -5 16 -4 18 6 9 17
-16 40 -5 40 19 0 11 9 32 20 46 15 18 19 34 15 53 -5 21 -2 28 11 31 16 3 17
4 1 20 -21 21 -22 46 -1 69 19 21 13 43 -21 84 -65 77 -76 85 -101 79 -18 -5
-24 -2 -24 9 0 22 -18 31 -34 18 -20 -16 -28 0 -10 20 10 11 12 19 5 24 -6 3
-11 2 -11 -3 0 -5 -21 -12 -46 -15 -26 -2 -49 -9 -53 -15 -3 -5 -14 -11 -24
-13 -10 -2 -17 -7 -15 -11 2 -3 -7 -17 -20 -30 -12 -14 -19 -28 -15 -32 5 -5
-2 -5 -14 -2 -20 6 -23 4 -23 -19 0 -18 -7 -28 -26 -36 -32 -11 -42 -5 -25 15
10 12 7 17 -16 29 -15 8 -39 28 -53 43 -14 15 -19 24 -11 19 9 -5 12 -4 8 2
-11 17 -47 23 -47 7 0 -21 -75 -40 -105 -26 -20 9 -25 9 -25 -2 0 -21 -27 -40
-33 -24 -3 7 -6 2 -6 -12 -1 -20 -9 -29 -34 -38 -18 -7 -36 -12 -40 -12 -10 0
-8 68 2 74 4 3 11 19 14 36 4 17 13 30 21 30 9 0 12 7 9 19 -4 15 2 21 25 26
28 6 30 8 25 47 -6 39 -5 40 17 28 12 -7 20 -7 16 -2 -8 14 35 60 51 55 9 -3
11 4 7 26 -6 26 -3 31 13 31 11 0 22 2 25 5 8 8 -16 93 -30 107 -7 7 -12 20
-12 31 0 10 -4 26 -9 35 -4 9 -11 30 -15 47 -7 28 -7 29 12 12 10 -9 26 -17
35 -17 9 0 29 -16 44 -35 15 -19 34 -35 41 -35 6 0 12 -3 12 -8 0 -4 14 -13
30 -20 17 -8 30 -20 30 -27 0 -24 21 -28 37 -6 13 20 22 21 99 17 68 -3 88 -7
99 -22 10 -14 14 -15 15 -5 0 11 5 10 20 -4 20 -18 22 -18 78 5 75 30 152 79
152 96 0 17 2 17 34 3 19 -9 29 -9 40 0 10 8 16 9 21 1 11 -19 45 -11 45 10 0
11 -4 20 -9 20 -5 0 -11 13 -13 30 -4 25 -2 28 11 17 12 -10 14 -9 8 7 -5 12
-1 25 10 37 10 9 37 38 61 63 24 25 47 46 52 46 18 0 31 39 20 59 -8 17 -6 22
17 33 15 7 33 24 40 38 13 27 35 38 76 39 22 1 27 5 27 27 0 20 3 24 13 17 6
-6 33 -16 60 -23 26 -7 47 -18 47 -26 0 -8 6 -11 16 -7 8 3 13 12 10 19 -4 11
4 12 39 7 38 -5 45 -3 45 11 0 14 4 15 21 6 29 -16 119 -3 127 19 3 9 11 21
18 28 6 6 9 24 6 39 -4 22 -2 26 12 21 9 -4 16 -1 16 5 0 7 5 6 15 -2 19 -16
31 -7 39 30 5 28 27 60 40 60 3 0 12 -13 21 -30 9 -16 13 -30 9 -30 -4 0 0 -7
7 -16 7 -9 13 -26 14 -38 0 -17 6 -21 30 -21 17 0 39 -9 51 -21 26 -26 69 -22
85 8 7 13 16 17 27 12 9 -3 24 -7 32 -9 29 -3 60 -16 60 -25 0 -5 21 -18 46
-30 42 -18 50 -19 75 -6 26 13 30 13 38 -2 9 -16 11 -15 24 3 14 19 16 18 58
-20 24 -21 44 -46 44 -54 1 -9 5 -26 9 -38 4 -12 2 -24 -4 -28 -15 -10 -12
-45 5 -52 9 -3 15 -13 13 -22 -4 -25 21 -78 42 -87 10 -5 36 -32 58 -60 33
-43 47 -52 81 -58 23 -3 44 -13 47 -21 4 -8 12 -15 20 -15 7 0 21 -14 29 -30
9 -17 20 -28 25 -25 6 4 22 -2 38 -13 32 -23 112 -39 112 -23 0 7 8 7 25 1 13
-5 37 -9 52 -9 50 0 68 -2 95 -13 29 -11 58 -47 58 -73 0 -8 4 -15 9 -15 5 0
31 -16 59 -34 45 -32 53 -34 80 -24 20 8 38 9 54 2 13 -5 43 -8 67 -6 37 3 45
7 54 33 9 22 19 30 47 35 19 3 47 9 61 14 14 4 38 6 52 3 21 -4 27 -1 27 12 0
12 5 15 18 10 9 -4 32 -11 50 -15 26 -6 32 -5 32 8 0 13 2 13 18 -1 17 -16 20
-15 40 6 12 13 22 31 22 40 0 9 5 17 10 17 6 0 10 -4 10 -10 0 -5 4 -10 10
-10 5 0 7 7 4 15 -4 8 -1 15 7 15 16 0 70 60 63 71 -10 17 15 9 43 -14 15 -13
56 -32 91 -42 36 -10 62 -24 62 -32 0 -7 4 -13 8 -13 4 0 20 -20 36 -44 21
-33 32 -42 47 -39 15 4 19 0 19 -21 0 -17 10 -33 30 -48 17 -12 30 -28 30 -35
0 -7 11 -15 24 -19 13 -3 26 -14 29 -25 7 -25 54 -44 73 -28 22 18 39 6 20
-14 -15 -15 -15 -17 -2 -17 9 0 16 -5 16 -12 0 -6 6 -4 13 6 7 10 29 19 50 21
21 2 61 16 90 32 54 29 73 33 94 20 13 -8 24 -2 79 51 19 17 39 32 45 32 6 0
7 5 4 10 -4 6 -10 8 -15 5 -15 -9 -20 27 -5 41 22 22 18 32 -10 26 -14 -2 -25
-9 -25 -15 0 -8 -3 -8 -11 0 -6 6 -18 9 -25 6 -14 -5 -66 30 -64 44 1 4 -7 10
-17 12 -10 1 -33 14 -51 28 -26 19 -30 28 -22 42 8 16 5 18 -26 18 -19 -1 -39
5 -44 12 -6 11 -10 9 -19 -8 -14 -26 -44 -27 -68 -3 -10 10 -31 23 -47 30 -21
9 -27 18 -23 32 6 22 -21 35 -51 26 -24 -8 -81 45 -88 83 -7 32 -33 49 -45 29
-6 -9 -14 -9 -31 -1 -30 13 -78 5 -78 -13 0 -21 -31 -32 -85 -29 -27 1 -64 -2
-80 -7 -23 -8 -40 -6 -68 5 -20 9 -37 12 -37 6 0 -5 -6 -9 -14 -9 -22 0 -106
40 -106 51 0 5 -11 14 -24 20 -13 6 -32 29 -42 50 -22 50 -43 70 -37 35 3 -15
-3 -36 -15 -53 -11 -16 -20 -35 -20 -43 2 -25 -26 -80 -40 -80 -10 0 -10 -5
-2 -20 10 -18 8 -20 -20 -20 -17 0 -30 -5 -30 -12 0 -7 -14 -29 -30 -48 l-29
-35 -30 17 c-30 17 -31 17 -48 -13 -9 -16 -23 -29 -30 -29 -7 0 -13 -4 -13
-10 0 -5 -4 -10 -10 -10 -5 0 -10 5 -10 12 0 6 -7 19 -16 29 -15 16 -14 17 3
13 10 -2 25 0 33 6 12 8 13 11 1 19 -7 5 -22 6 -32 4 -10 -3 -19 0 -19 6 0 6
9 11 20 11 11 0 20 7 20 15 0 12 5 13 18 7 9 -5 29 -12 45 -16 23 -5 27 -3 27
14 0 11 7 20 15 20 8 0 15 5 15 11 0 6 7 9 14 6 10 -4 13 -1 10 7 -3 8 -1 17
5 20 5 4 7 22 4 41 -4 23 -2 35 6 35 22 0 6 56 -26 94 -18 22 -33 48 -33 58 0
10 -7 21 -15 24 -8 4 -15 12 -15 19 0 8 -7 21 -16 30 -18 17 -54 12 -67 -11
-14 -24 -26 -15 -34 24 -4 20 -6 41 -5 46 2 4 -4 13 -11 20 -8 6 -17 24 -20
41 -5 30 18 104 37 117 12 8 15 78 4 78 -5 0 -8 14 -8 30 0 17 -3 30 -8 30 -4
0 -20 27 -36 61 -15 33 -37 66 -47 72 -25 16 -26 74 -1 80 13 3 12 6 -10 15
-19 8 -30 23 -37 49 -7 25 -7 39 -1 41 6 2 10 8 10 13 0 4 -7 5 -17 2 -11 -4
-14 -3 -9 5 4 7 13 12 19 12 14 0 39 35 47 65 4 11 14 20 25 20 16 0 19 6 17
29 -2 18 5 40 18 58 18 25 19 33 10 68 -7 27 -7 59 -1 102 11 66 10 75 -10 62
-21 -13 -62 -14 -77 -2 -7 6 -12 7 -11 2 4 -15 -13 -64 -22 -64 -4 0 -12 8
-18 17 -8 16 -10 14 -16 -10 -10 -38 0 -56 39 -72 33 -14 63 -41 32 -29 -17 7
-36 -24 -36 -60 0 -31 -11 -33 -35 -6 -18 20 -18 21 3 41 26 24 26 25 6 33 -8
3 -12 2 -9 -4 11 -17 -11 -11 -41 12 -15 13 -25 17 -20 10 4 -7 -2 -16 -18
-24 -24 -10 -31 -24 -27 -55 1 -7 -7 -9 -19 -6 -14 4 -20 0 -20 -12 0 -13 -5
-16 -22 -10 -59 18 -67 17 -91 -9 -13 -14 -31 -26 -40 -26 -9 0 -19 -5 -23
-11 -3 -6 -15 -8 -26 -6 -14 4 -18 2 -14 -9 4 -10 -2 -14 -21 -14 -28 0 -52
-24 -53 -52 0 -21 -1 -21 -35 -8 -71 27 -116 27 -162 0 -49 -29 -120 -25 -154
9 -14 15 -31 25 -38 23 -6 -2 -11 6 -11 17 0 12 -6 21 -15 21 -9 0 -12 -6 -9
-15 4 -8 1 -15 -5 -15 -6 0 -11 -6 -11 -14 0 -9 -10 -13 -25 -12 -14 0 -25 4
-25 9 0 12 -35 8 -55 -7 -16 -11 -21 -11 -32 0 -17 17 -16 31 3 42 28 15 10
77 -25 92 -24 10 -29 17 -26 40 2 16 13 38 24 49 11 11 27 34 36 51 14 27 14
31 0 36 -13 6 -14 8 -1 18 8 6 17 21 20 33 5 16 2 23 -14 28 -11 3 -20 11 -20
16 0 6 9 7 21 4 18 -6 19 -5 7 14 -7 11 -19 20 -28 18 -9 -1 -15 6 -15 19 0
11 -6 28 -12 36 -10 11 -10 23 -3 44 9 25 6 38 -13 74 -13 25 -32 47 -42 49
-14 2 -16 -1 -11 -15z m1930 -1895 c-10 -16 -24 -9 -24 12 0 18 2 19 15 9 8
-7 12 -16 9 -21z m-4397 -1144 c0 -8 -4 -15 -8 -15 -11 0 -20 16 -12 24 11 11
20 7 20 -9z m-207 -145 c0 -5 -2 -10 -4 -10 -3 0 -8 5 -11 10 -3 6 -1 10 4 10
6 0 11 -4 11 -10z m-375 -50 c-5 -8 -11 -8 -17 -2 -6 6 -7 16 -3 22 5 8 11 8
17 2 6 -6 7 -16 3 -22z"/>
<path d="M12236 11332 c-5 -9 4 -20 30 -35 7 -4 15 0 18 9 4 12 2 15 -9 11 -8
-4 -18 1 -23 10 -6 9 -12 12 -16 5z"/>
<path d="M9367 10950 c4 -16 8 -18 19 -9 20 16 17 29 -5 29 -14 0 -18 -5 -14
-20z"/>
<path d="M9405 10941 c-3 -5 -1 -12 5 -16 5 -3 10 1 10 9 0 18 -6 21 -15 7z"/>
<path d="M9413 10885 c-12 -9 -26 -15 -30 -14 -25 4 -34 -2 -28 -21 4 -11 2
-20 -4 -20 -6 0 -11 -7 -11 -16 0 -23 24 -11 28 14 2 12 12 22 24 24 11 2 27
13 36 26 17 26 14 27 -15 7z"/>
<path d="M6775 10571 c-5 -17 -15 -21 -50 -21 -34 0 -47 -5 -55 -20 -6 -11
-17 -20 -25 -20 -14 0 -21 -21 -15 -45 7 -30 0 -60 -19 -85 -11 -16 -21 -36
-21 -44 0 -9 -12 -19 -26 -22 -17 -4 -31 -18 -40 -40 -8 -19 -21 -34 -29 -34
-8 0 -15 -7 -15 -15 0 -10 -10 -15 -27 -16 -27 0 -28 0 -5 -10 24 -9 22 -29
-4 -29 -8 0 -14 -7 -14 -15 0 -23 -49 -51 -69 -38 -9 5 -17 15 -17 22 -1 6 -2
17 -3 24 -1 16 -119 38 -128 24 -3 -5 -20 -6 -39 -2 -30 5 -34 3 -40 -19 -3
-14 -3 -30 2 -37 5 -9 0 -10 -20 -5 -17 4 -26 2 -26 -6 0 -6 -9 -31 -21 -55
-19 -40 -20 -49 -9 -108 7 -36 17 -68 22 -71 5 -4 3 -13 -5 -22 -8 -10 -17
-28 -20 -42 -4 -14 -16 -35 -27 -48 -19 -20 -19 -24 -5 -45 8 -14 13 -31 10
-40 -9 -21 12 -32 31 -16 13 10 17 10 24 -1 7 -11 12 -11 22 -2 10 8 18 8 25
1 8 -8 13 -8 17 0 10 16 37 13 58 -6 16 -14 25 -15 58 -6 34 9 47 7 84 -11 26
-12 43 -26 41 -33 -5 -16 -4 -16 31 -3 21 9 29 7 39 -7 10 -14 26 -18 67 -16
109 3 138 8 138 20 0 13 7 12 105 -8 28 -6 64 -13 80 -16 17 -3 35 -9 40 -13
18 -13 65 -21 65 -11 0 5 12 9 27 8 22 -2 29 4 37 28 6 17 13 32 16 35 3 3 14
22 25 43 11 21 25 35 32 33 7 -3 19 4 27 15 14 20 15 20 41 3 33 -21 59 -70
49 -92 -8 -18 -10 -25 -20 -82 -4 -19 -16 -46 -26 -60 -19 -26 -20 -72 -3
-112 6 -16 9 -16 35 5 16 12 29 28 29 36 1 11 4 11 16 1 8 -6 19 -9 25 -5 5 3
10 -1 10 -10 0 -11 -5 -15 -15 -11 -10 4 -15 -1 -15 -14 0 -11 -4 -20 -10 -20
-15 0 -12 -30 3 -32 21 -2 32 -5 47 -11 8 -4 37 -11 63 -17 44 -10 54 -8 105
16 68 31 103 61 95 80 -7 20 83 11 106 -10 10 -9 23 -16 29 -16 6 0 9 -6 6
-13 -2 -7 6 -29 19 -48 29 -42 25 -59 -14 -59 -28 0 -29 -2 -18 -22 25 -49 51
-68 92 -68 30 0 38 -3 33 -15 -3 -8 3 -19 14 -25 25 -13 30 -13 30 5 0 18 41
29 81 21 37 -7 79 13 103 49 16 24 18 25 46 10 41 -21 70 -3 70 42 0 22 5 33
14 33 8 0 18 9 21 21 5 15 10 18 18 10 16 -16 37 -14 37 4 0 8 7 15 15 15 20
0 19 39 -2 62 -12 14 -13 18 -3 18 10 0 11 3 3 11 -8 8 -17 8 -31 0 -15 -8
-29 -8 -49 0 -26 10 -27 11 -10 24 10 7 17 17 15 21 -1 5 8 32 22 59 16 32 25
68 25 98 0 35 3 46 13 42 21 -8 45 22 33 42 -7 14 -3 21 20 35 25 15 29 24 29
63 0 43 2 46 30 52 35 6 36 10 13 35 -15 17 -15 18 5 18 12 0 22 5 22 11 0 6
9 9 20 6 24 -6 30 15 26 83 -4 68 -5 70 -21 70 -11 0 -13 7 -9 29 5 25 3 30
-17 33 -18 2 -25 10 -27 31 -2 16 -10 31 -18 34 -8 3 -14 11 -14 18 0 7 -13
16 -30 20 -16 4 -30 10 -30 15 0 5 -7 16 -16 25 -15 15 -18 14 -36 -5 -14 -15
-27 -20 -44 -16 -13 4 -24 2 -24 -3 0 -5 -14 -12 -31 -16 -22 -5 -36 -2 -49
10 -10 9 -38 19 -62 22 -24 3 -46 11 -50 17 -5 7 -12 5 -20 -7 -20 -27 -64
-13 -84 26 -12 21 -18 26 -24 17 -4 -7 -15 -10 -24 -7 -9 4 -16 2 -16 -3 0 -6
-14 -10 -30 -10 -20 0 -39 -9 -54 -25 -13 -14 -30 -25 -37 -25 -8 0 -19 -10
-24 -22 -8 -17 -20 -24 -50 -26 -22 -2 -43 -8 -47 -15 -8 -13 -38 8 -38 27 0
6 -14 12 -31 13 -19 2 -46 16 -70 38 -31 28 -47 35 -79 35 -28 0 -40 4 -40 14
0 14 -21 26 -46 26 -32 0 -143 61 -150 83 -3 12 -17 36 -30 54 -13 17 -24 36
-24 42 0 6 -10 11 -22 11 -13 0 -31 7 -41 14 -10 8 -32 11 -55 9 -71 -9 -100
-5 -125 15 -13 11 -16 10 -22 -7z m-724 -834 c-10 -9 -11 -8 -5 6 3 10 9 15
12 12 3 -3 0 -11 -7 -18z"/>
<path d="M13614 10556 c-3 -9 -1 -23 6 -31 10 -13 14 -13 27 1 9 8 14 16 12
17 -2 2 -12 9 -21 16 -15 11 -19 11 -24 -3z"/>
<path d="M13635 10490 c-3 -5 -1 -10 4 -10 6 0 11 5 11 10 0 6 -2 10 -4 10 -3
0 -8 -4 -11 -10z"/>
<path d="M10195 10446 c11 -16 13 -26 6 -31 -14 -8 -14 -45 0 -45 5 0 7 5 4
11 -4 5 1 19 10 29 15 17 15 19 -2 39 -24 29 -37 27 -18 -3z"/>
<path d="M9710 10441 c0 -6 4 -13 10 -16 6 -3 7 1 4 9 -7 18 -14 21 -14 7z"/>
<path d="M9843 10409 c-6 -6 -23 -11 -36 -11 -19 0 -26 -7 -30 -27 -5 -24 4
-45 21 -47 17 -2 61 -24 67 -33 3 -6 15 -11 25 -11 24 0 39 59 19 71 -27 16
-35 24 -44 47 -8 17 -13 20 -22 11z"/>
<path d="M10160 10338 c0 -11 28 -10 35 1 3 6 -4 9 -15 8 -11 -1 -20 -5 -20
-9z"/>
<path d="M10001 10297 c-1 -10 -15 -31 -31 -47 -17 -17 -27 -31 -23 -31 66
-11 86 7 67 61 -7 19 -13 27 -13 17z"/>
<path d="M6130 10290 c0 -5 4 -10 9 -10 6 0 13 5 16 10 3 6 -1 10 -9 10 -9 0
-16 -4 -16 -10z"/>
<path d="M6180 10256 c0 -9 5 -16 10 -16 6 0 10 4 10 9 0 6 -4 13 -10 16 -5 3
-10 -1 -10 -9z"/>
<path d="M9874 10262 c4 -7 3 -19 -3 -26 -9 -10 -8 -15 2 -19 15 -6 18 36 3
50 -5 5 -6 3 -2 -5z"/>
<path d="M10044 10039 c-3 -6 -13 -8 -23 -4 -13 5 -14 4 -3 -7 12 -12 72 -19
72 -8 0 13 -39 29 -46 19z"/>
<path d="M14062 9879 c1 -15 -5 -36 -13 -46 -27 -31 -40 -63 -34 -83 5 -15 0
-21 -22 -25 -44 -10 -58 -20 -59 -46 -1 -43 -4 -49 -21 -49 -16 -1 -16 -2 2
-16 11 -8 29 -22 39 -31 18 -15 21 -14 42 12 l22 27 40 -37 c36 -32 43 -35 63
-24 15 7 51 10 103 7 l81 -5 15 31 c8 17 26 36 40 43 30 15 33 36 5 41 -32 6
-143 132 -115 132 12 0 0 37 -17 52 -12 9 -16 9 -24 -3 -7 -11 -9 -11 -9 4 0
18 -8 21 -48 17 -13 -1 -31 5 -40 13 -29 25 -54 18 -50 -14z"/>
<path d="M5900 9710 c-12 -8 -10 -10 8 -10 13 0 20 4 17 10 -7 12 -6 12 -25 0z"/>
<path d="M5923 9675 c-13 -5 -23 -18 -23 -28 0 -15 -5 -18 -25 -13 -20 5 -25
3 -25 -12 0 -20 -29 -52 -47 -52 -5 0 -18 -9 -28 -20 -13 -14 -31 -20 -61 -20
-47 0 -62 -11 -39 -30 8 -7 15 -28 15 -47 0 -21 6 -36 15 -39 8 -4 15 -16 15
-29 0 -12 7 -28 15 -35 11 -9 15 -32 15 -81 0 -61 3 -72 29 -101 40 -47 47
-74 20 -81 -15 -4 -20 -11 -15 -23 3 -9 1 -23 -5 -30 -6 -7 -7 -19 -3 -26 5
-7 10 -28 11 -47 2 -31 11 -44 38 -55 6 -2 5 -11 -2 -24 -11 -18 -10 -23 3
-30 13 -7 13 -14 2 -50 -7 -23 -17 -42 -22 -42 -5 0 3 -9 17 -20 14 -11 33
-20 43 -20 25 0 111 -58 116 -78 3 -9 6 -21 8 -27 1 -5 9 -19 16 -30 8 -11 14
-26 14 -35 0 -9 9 -16 23 -17 12 0 16 1 9 4 -10 4 -10 8 -1 19 9 11 9 18 1 26
-17 17 -15 58 3 58 20 0 19 12 -6 55 -17 28 -18 34 -5 29 10 -4 19 2 27 19 18
41 113 48 115 10 1 -14 -3 -20 -12 -16 -8 3 -11 9 -8 14 3 5 -2 9 -10 9 -12 0
-11 -7 7 -34 23 -36 57 -53 68 -34 4 6 23 9 44 6 34 -4 38 -1 47 24 11 32 20
34 51 14 22 -15 50 -16 63 -3 14 14 54 7 54 -9 0 -11 5 -14 17 -10 9 4 21 1
26 -6 6 -10 7 -8 4 4 -3 9 -1 18 6 21 6 2 -1 12 -16 21 -22 15 -25 21 -16 37
5 10 20 19 32 19 12 0 30 7 41 15 18 14 18 15 -3 55 -13 25 -19 50 -15 65 4
18 0 26 -18 36 -12 7 -26 12 -30 11 -4 -1 -12 7 -18 19 -8 15 -15 17 -24 10
-9 -7 -19 -6 -37 7 -13 9 -34 15 -47 13 -31 -4 -75 26 -68 46 4 9 2 21 -2 27
-5 6 -12 23 -16 38 -4 18 -15 30 -31 34 -14 3 -34 17 -45 31 -15 20 -17 28 -8
43 10 15 8 26 -8 56 -10 20 -27 39 -36 41 -25 7 -44 59 -28 78 7 8 10 22 6 30
-7 18 -42 20 -49 3 -3 -9 -10 -7 -21 7 -22 28 -21 31 23 73 38 35 58 81 36 81
-5 0 -9 -7 -8 -15 0 -9 -5 -13 -13 -10 -8 3 -14 1 -14 -4 0 -12 -39 -10 -67 3
-25 11 -30 33 -11 39 17 6 -38 41 -65 42 -12 1 -32 -3 -44 -9z m64 -161 c-3
-3 -12 -4 -19 -1 -8 3 -5 6 6 6 11 1 17 -2 13 -5z m-27 -34 c0 -5 -5 -10 -12
-10 -6 0 -19 -7 -29 -16 -11 -9 -19 -12 -23 -5 -4 5 6 17 21 25 33 18 43 19
43 6z"/>
<path d="M12993 9513 c-13 -9 -23 -23 -23 -33 0 -13 -6 -16 -23 -13 -14 3 -29
-2 -36 -11 -12 -14 -10 -16 17 -16 16 0 42 -2 58 -5 46 -9 55 4 41 52 -12 39
-13 40 -34 26z"/>
<path d="M13933 9368 c2 -7 -4 -23 -15 -35 -24 -26 -18 -65 18 -118 13 -20 21
-41 18 -47 -4 -6 -1 -9 7 -6 9 4 13 17 11 43 -3 32 -1 37 14 31 13 -5 15 -2 9
16 -4 13 -9 40 -11 62 -2 22 -11 44 -21 52 -23 17 -36 18 -30 2z"/>
<path d="M9320 9359 c0 -6 -4 -7 -10 -4 -5 3 -10 -3 -10 -15 0 -12 -4 -19 -9
-16 -5 3 -8 -5 -7 -18 1 -18 4 -22 14 -14 6 6 12 19 12 30 0 10 10 22 22 27
18 6 19 9 5 14 -10 4 -17 2 -17 -4z"/>
<path d="M7430 9290 c0 -5 5 -10 10 -10 6 0 10 5 10 10 0 6 -4 10 -10 10 -5 0
-10 -4 -10 -10z"/>
<path d="M7260 9228 c0 -25 14 -37 26 -24 9 10 7 16 -7 24 -15 10 -19 9 -19 0z"/>
<path d="M7417 9223 c-4 -3 -7 -11 -7 -17 0 -6 5 -5 12 2 6 6 9 14 7 17 -3 3
-9 2 -12 -2z"/>
<path d="M7350 9205 c0 -8 9 -15 19 -15 26 0 35 16 15 24 -25 10 -34 7 -34 -9z"/>
<path d="M7260 9121 c0 -6 -11 -11 -24 -11 -14 0 -27 -4 -30 -9 -3 -5 -28 -14
-55 -21 -42 -10 -48 -14 -43 -32 5 -20 6 -20 19 -3 7 11 13 14 13 8 0 -23 51
-24 88 -1 24 15 37 18 40 10 5 -17 19 -15 19 3 0 8 -4 15 -8 15 -4 0 -5 8 -2
19 3 10 0 22 -6 25 -6 4 -11 2 -11 -3z"/>
<path d="M7139 9008 c10 -27 51 -38 51 -13 0 8 -12 20 -26 25 -34 13 -35 13
-25 -12z"/>
<path d="M6565 8720 c3 -5 8 -10 11 -10 2 0 4 5 4 10 0 6 -5 10 -11 10 -5 0
-7 -4 -4 -10z"/>
<path d="M9530 7540 c11 -20 30 -28 30 -12 0 11 -22 32 -32 32 -5 0 -4 -9 2
-20z"/>
</g>
</svg>
