<?xml version="1.0" standalone="no"?>
<!DOCTYPE svg PUBLIC "-//W3C//DTD SVG 20010904//EN"
 "http://www.w3.org/TR/2001/REC-SVG-20010904/DTD/svg10.dtd">
<svg version="1.0" xmlns="http://www.w3.org/2000/svg"
 width="910.099075pt" height="291.000000pt" viewBox="0 0 910.099075 291.000000"
 preserveAspectRatio="xMidYMid meet">
<metadata>
Created by potrace 1.15, written by Peter Selinger 2001-2017
</metadata>
<g transform="translate(-528.135491,1120.000000) scale(0.100000,-0.100000)"
fill="#222222" stroke="none">
<path d="M8345 11190 c-3 -5 -1 -10 4 -10 6 0 11 5 11 10 0 6 -2 10 -4 10 -3
0 -8 -4 -11 -10z"/>
<path d="M8290 11165 c-7 -8 -24 -15 -37 -15 -21 0 -23 -2 -13 -15 7 -8 10
-29 8 -47 -3 -18 -1 -46 5 -62 7 -21 6 -30 -3 -36 -11 -7 -35 -60 -43 -95 -1
-5 7 -11 18 -13 17 -2 20 -9 17 -35 -3 -30 -2 -32 27 -31 17 1 35 2 40 3 16 2
18 35 3 58 -13 21 -12 24 9 32 15 5 31 5 43 -1 10 -5 27 -8 37 -5 11 3 36 1
55 -5 40 -11 47 -8 39 14 -4 9 -14 14 -24 11 -11 -3 -24 5 -35 21 -9 14 -14
26 -10 26 3 0 -8 19 -25 42 -17 23 -31 51 -31 62 0 27 -42 106 -56 106 -6 0
-17 -7 -24 -15z"/>
<path d="M8206 11055 c-19 -15 -19 -15 2 -15 13 0 22 6 22 15 0 18 0 18 -24 0z"/>
<path d="M8155 11029 c-9 -14 -2 -20 14 -10 8 6 9 11 3 15 -6 3 -14 1 -17 -5z"/>
<path d="M8135 10971 c-6 -11 9 -23 19 -14 9 9 7 23 -3 23 -6 0 -12 -4 -16 -9z"/>
<path d="M7740 10945 c0 -7 -12 -12 -26 -12 -29 0 -53 -26 -29 -31 17 -4 18
-11 5 -32 -5 -8 -12 -11 -16 -7 -10 10 -44 -22 -44 -42 0 -19 -84 -57 -146
-66 -37 -6 -41 -8 -36 -32 5 -29 -16 -47 -58 -48 -16 -1 -26 -7 -28 -19 -5
-24 -34 -52 -63 -59 -40 -11 -55 -25 -42 -38 8 -8 6 -16 -8 -30 -10 -10 -19
-26 -19 -35 0 -10 -6 -14 -15 -10 -11 4 -15 -1 -15 -19 0 -14 -5 -34 -12 -44
-9 -15 -9 -25 0 -46 12 -26 17 -29 64 -39 23 -5 26 -11 25 -41 -1 -19 -5 -35
-9 -35 -11 0 -10 -22 2 -40 8 -12 13 -13 30 -2 18 11 20 10 21 -20 1 -18 1
-39 0 -45 -1 -7 3 -22 9 -33 7 -13 7 -20 0 -20 -5 0 -10 -4 -10 -10 0 -5 7
-10 14 -10 8 0 28 -17 43 -37 33 -45 50 -57 83 -59 34 -2 91 -25 113 -47 15
-15 21 -16 34 -6 12 11 17 10 28 -4 13 -18 74 -24 91 -8 5 4 24 11 42 14 27 6
32 4 32 -13 0 -16 7 -20 38 -21 44 -2 52 -3 74 -13 26 -12 62 -3 73 19 6 13
18 19 32 17 14 -2 32 7 48 22 14 14 30 26 35 26 6 0 10 9 10 20 0 11 5 20 10
20 16 0 12 35 -10 90 l-20 50 25 0 c18 0 25 5 25 20 0 12 10 24 23 30 22 9 22
9 1 9 -28 1 -47 25 -39 50 3 11 1 30 -6 42 -9 19 -9 21 4 16 17 -6 32 19 17
28 -6 4 -10 11 -10 16 0 6 4 7 10 4 14 -9 70 23 70 40 0 8 5 15 11 15 5 0 7 5
4 10 -4 6 -11 8 -16 5 -5 -4 -9 -1 -9 4 0 6 6 11 13 11 23 0 38 -17 42 -45 3
-32 30 -56 51 -48 10 4 12 0 8 -11 -4 -11 -13 -14 -30 -10 -19 5 -24 1 -30
-23 -3 -15 -13 -34 -22 -40 -9 -7 -11 -13 -5 -13 7 0 15 5 18 10 3 6 15 10 25
10 10 0 20 5 22 11 2 7 27 12 60 12 62 -1 80 -7 73 -26 -7 -17 6 -33 33 -41
16 -5 22 -3 22 8 0 23 16 28 55 17 21 -6 37 -6 41 0 9 15 33 10 54 -11 l20
-20 0 20 c0 24 -1 24 61 4 50 -17 50 -17 34 -41 -20 -30 -14 -40 9 -18 10 10
23 14 34 10 16 -6 15 -8 -3 -22 -15 -12 -16 -14 -3 -10 9 3 22 -1 28 -8 13
-16 34 -10 25 6 -4 5 6 9 21 9 27 0 27 -1 8 -15 -17 -13 -15 -15 36 -13 61 1
110 21 110 44 0 8 4 12 10 9 5 -3 28 -8 50 -11 32 -4 40 -2 40 11 0 26 47 37
81 19 23 -11 34 -12 44 -4 21 17 55 -5 55 -35 0 -18 7 -26 24 -31 33 -8 69 13
63 37 -4 15 -2 17 13 9 26 -14 47 -3 55 27 6 24 7 24 24 9 32 -29 52 -21 50
22 -2 20 -7 43 -12 50 -7 9 -4 17 9 27 26 20 38 19 60 -6 10 -12 32 -28 47
-36 17 -8 26 -20 23 -28 -2 -7 2 -19 10 -25 8 -7 14 -21 14 -31 0 -22 39 -37
50 -19 4 7 4 27 -1 44 -6 20 -5 32 1 34 16 6 -9 42 -29 42 -10 0 -24 7 -31 15
-7 8 -21 15 -32 15 -12 0 -24 12 -34 35 -8 19 -21 35 -29 35 -7 0 -20 9 -29
21 -12 18 -26 21 -96 23 -81 2 -83 3 -116 39 -19 20 -44 37 -55 37 -11 0 -29
5 -41 11 -18 10 -19 8 -13 -11 6 -20 5 -20 -15 -8 -18 11 -22 11 -31 -4 -10
-18 -45 -14 -67 9 -8 7 -23 11 -36 7 -14 -3 -27 1 -35 9 -12 16 -99 60 -139
72 -22 6 -23 5 -12 -15 6 -12 9 -32 6 -43 -2 -12 2 -31 10 -41 22 -31 18 -64
-8 -68 -13 -2 -23 -8 -23 -15 0 -6 -10 -21 -22 -32 -23 -22 -37 -14 -45 24 -4
21 -10 22 -85 9 -29 -4 -40 -10 -36 -20 3 -8 0 -14 -6 -14 -6 0 -11 -9 -11
-20 0 -16 -7 -20 -34 -20 -21 0 -36 -6 -40 -15 -8 -22 -42 -18 -76 7 -20 14
-28 28 -25 39 3 10 -1 19 -11 23 -15 6 -15 8 0 31 10 15 12 26 5 30 -5 4 -7
16 -3 27 4 13 -1 27 -15 42 -25 27 -30 79 -9 103 22 26 12 43 -28 43 -19 0
-34 4 -34 10 0 5 -15 16 -34 24 -18 8 -40 23 -47 33 -8 11 -32 23 -53 27 -36
7 -38 6 -26 -8 7 -9 21 -14 31 -11 9 3 20 1 24 -5 3 -5 -1 -10 -10 -10 -10 0
-13 -5 -9 -12 5 -8 0 -9 -17 -5 -13 4 -27 7 -30 7 -10 0 -29 50 -20 50 5 0 5
15 -1 33 -15 46 -22 59 -31 57 -4 -1 -18 5 -30 13 -18 12 -26 12 -40 2 -9 -6
-13 -15 -9 -19 4 -4 -1 -12 -10 -17 -10 -5 -15 -16 -12 -24 4 -10 0 -15 -15
-15 -12 0 -21 4 -21 10 0 5 -11 20 -25 34 -14 14 -25 32 -25 40 0 8 -13 17
-29 21 -16 3 -35 13 -42 21 -16 19 -169 18 -169 -1z m1711 -522 c10 -10 9 -16
-7 -28 -10 -8 -27 -13 -37 -11 -9 2 -21 -3 -26 -11 -6 -11 -16 -13 -40 -8 -17
3 -31 11 -31 17 0 6 -7 16 -17 23 -9 7 -14 16 -10 21 8 14 154 11 168 -3z
m-1001 -17 c0 -11 -19 -15 -25 -6 -3 5 1 10 9 10 9 0 16 -2 16 -4z m1048 -8
c-2 -5 -8 -9 -13 -9 -5 0 -11 4 -13 9 -1 5 4 9 13 9 9 0 14 -4 13 -9z"/>
<path d="M8740 10912 c-29 -44 -46 -59 -80 -73 l-25 -11 25 -20 c54 -44 107
-96 113 -112 4 -9 16 -16 27 -16 11 0 20 -5 20 -11 0 -5 5 -7 10 -4 6 4 17 1
25 -5 18 -15 35 -5 35 20 0 16 5 19 33 14 17 -3 43 -14 57 -23 43 -29 60 -33
60 -11 0 10 -7 25 -14 33 -11 10 -13 23 -7 43 4 16 4 36 0 44 -4 8 -11 29 -15
45 -5 20 -9 24 -11 13 -4 -14 -14 -17 -60 -14 -47 2 -58 6 -64 25 -5 12 -15
24 -23 27 -9 3 -18 21 -22 40 -5 28 -10 34 -33 34 -19 0 -33 -10 -51 -38z"/>
<path d="M12443 10881 c4 -20 0 -36 -13 -51 -10 -12 -21 -27 -22 -32 -3 -7
-14 -4 -31 6 -26 18 -26 17 -33 -8 -3 -14 -10 -26 -15 -26 -12 0 -103 -62
-112 -76 -5 -8 -20 -11 -43 -7 -27 4 -42 1 -64 -15 -16 -12 -35 -19 -43 -16
-7 2 -25 1 -38 -5 -15 -5 -31 -5 -41 0 -19 10 -108 -10 -108 -24 0 -14 -54
-67 -69 -67 -9 0 -11 -7 -7 -25 5 -18 1 -27 -13 -35 -11 -5 -29 -23 -40 -39
l-21 -28 37 12 c20 7 42 21 50 31 18 25 23 14 13 -30 -5 -21 -6 -45 -3 -53 8
-21 -37 -112 -59 -119 -20 -6 -23 -25 -7 -41 9 -9 9 -19 0 -40 -7 -19 -8 -38
-2 -60 5 -18 6 -32 3 -32 -4 1 -11 0 -17 -1 -5 -1 -21 -3 -35 -3 -19 -2 -28
-10 -37 -37 -7 -19 -10 -47 -7 -62 5 -23 2 -28 -15 -28 -11 0 -23 -4 -26 -10
-10 -17 -35 -11 -35 8 -1 16 -2 16 -15 -2 -8 -11 -19 -15 -27 -10 -10 6 -10 4
1 -9 7 -9 21 -17 31 -17 10 0 23 -7 30 -15 7 -8 18 -15 25 -15 8 0 16 -6 19
-12 5 -10 7 -10 12 0 9 18 21 15 27 -8 7 -26 -7 -34 -33 -20 -11 6 -20 7 -20
1 0 -5 7 -11 15 -15 10 -4 14 -17 11 -46 -2 -27 2 -46 11 -56 17 -17 16 -17
46 -3 19 9 30 8 49 -5 24 -15 25 -15 36 9 6 14 18 25 26 25 7 0 27 3 44 6 24
5 31 2 34 -12 3 -17 6 -16 31 9 33 32 32 32 58 6 12 -12 27 -18 39 -14 23 7
34 -9 22 -32 -7 -12 -4 -21 12 -34 16 -14 18 -20 9 -30 -10 -10 -16 -9 -29 2
-14 12 -16 11 -13 -6 3 -14 14 -21 37 -23 27 -3 34 -8 39 -33 5 -24 13 -31 52
-43 41 -12 47 -12 52 3 4 9 0 20 -7 24 -8 4 -14 15 -14 23 0 13 4 13 30 -1 17
-9 30 -20 30 -25 0 -6 11 -10 25 -10 21 0 25 4 22 23 -2 12 -2 16 0 10 3 -7
11 -13 19 -13 9 0 23 -7 31 -16 15 -14 17 -14 25 0 12 21 2 52 -18 60 -8 3
-17 -1 -20 -9 -5 -11 -10 -12 -25 -2 -10 6 -19 17 -19 24 0 15 -37 36 -49 29
-5 -3 -14 1 -21 10 -10 11 -15 12 -20 3 -11 -17 -30 -1 -30 24 0 28 33 57 63
57 17 0 28 10 40 36 13 26 23 35 36 31 21 -5 44 41 45 90 1 21 6 33 15 33 8 0
11 7 8 20 -3 11 0 20 6 20 6 0 7 3 4 6 -3 4 9 25 28 47 22 26 33 47 30 58 -4
12 1 20 14 24 23 7 35 37 26 65 -6 20 5 25 48 22 9 -1 17 4 17 12 0 8 7 16 15
20 12 4 14 0 9 -22 -4 -15 -10 -29 -14 -32 -3 -3 -9 -12 -12 -21 -5 -14 5 -19
53 -28 38 -8 65 -9 77 -2 10 5 24 6 33 1 40 -23 72 -19 126 13 29 17 53 38 53
45 0 9 6 12 15 8 9 -3 15 -1 14 7 -1 6 -1 25 0 41 1 24 4 27 23 23 16 -5 30 2
50 23 30 32 38 36 38 19 0 -6 10 -19 23 -30 17 -15 19 -18 6 -19 -10 0 -16 -8
-15 -17 1 -12 -7 -19 -23 -21 -21 -3 -23 -7 -17 -43 5 -34 4 -39 -14 -39 -16
0 -19 -5 -14 -32 13 -81 12 -79 42 -65 15 6 30 16 33 21 4 5 11 6 17 2 6 -3
12 0 15 6 3 8 17 -1 36 -24 24 -28 39 -36 61 -36 16 1 46 -10 67 -23 61 -39
85 -48 140 -51 41 -2 54 1 63 16 9 15 20 17 53 13 34 -5 48 -1 73 18 29 22 33
23 53 9 20 -14 23 -13 43 9 19 21 25 23 55 14 39 -12 40 -18 12 -56 -15 -20
-27 -27 -41 -23 -16 4 -19 1 -16 -14 3 -17 13 -19 74 -19 l71 0 -4 59 c-3 47
-1 57 11 53 27 -11 27 36 0 64 -15 15 -23 32 -20 38 4 6 -2 27 -12 48 -11 21
-28 55 -37 76 -11 22 -25 37 -36 37 -9 0 -19 7 -23 15 -3 8 -11 15 -19 15 -18
0 -67 53 -67 73 0 9 -8 21 -19 26 -13 7 -17 18 -14 34 3 14 0 28 -6 31 -6 4
-11 22 -11 41 0 19 -5 37 -10 40 -6 4 -8 26 -4 56 6 47 5 49 -17 50 -31 2 -31
2 -50 -6 -12 -4 -21 2 -30 24 -14 31 -63 48 -86 29 -9 -7 -15 -3 -23 16 -5 14
-16 26 -24 26 -7 0 -16 7 -20 15 -4 11 -13 14 -29 10 -14 -4 -30 -1 -38 7 -20
20 -62 48 -71 48 -5 0 -8 -7 -8 -16 0 -13 -7 -15 -40 -9 -23 4 -40 3 -40 -3 0
-22 -47 -58 -76 -58 -36 0 -125 -54 -119 -71 2 -7 -2 -13 -10 -13 -14 0 -90
84 -90 100 0 14 -14 23 -41 26 -14 2 -40 14 -58 27 -30 23 -34 24 -57 10 -23
-14 -28 -13 -74 15 -28 16 -67 32 -89 36 -38 5 -38 5 -33 -23z m117 -171 c0
-5 -2 -10 -4 -10 -3 0 -8 5 -11 10 -3 6 -1 10 4 10 6 0 11 -4 11 -10z m-448
-192 c34 -12 27 -28 -12 -28 -44 0 -58 9 -53 31 4 14 11 18 22 14 9 -4 28 -12
43 -17z m349 11 c15 -8 20 -19 17 -42 -3 -30 -1 -32 31 -30 32 1 33 0 28 -32
-3 -19 -3 -36 1 -38 4 -2 1 -2 -7 0 -7 2 -20 -2 -27 -8 -11 -9 -18 -8 -29 1
-12 10 -15 10 -15 0 0 -18 -69 -5 -85 16 -6 9 -17 14 -24 10 -6 -4 -14 0 -17
9 -4 9 -18 21 -31 26 -21 8 -28 4 -50 -21 -13 -17 -33 -30 -43 -30 -27 0 -14
44 18 58 l27 12 -27 -5 c-15 -3 -29 -1 -33 5 -3 5 -13 6 -23 3 -15 -6 -15 -5
-4 10 8 9 11 21 7 27 -9 15 -4 13 61 -20 49 -24 60 -27 67 -15 4 8 14 15 20
15 7 0 33 13 57 29 52 34 55 35 81 20z m-449 -34 c2 -5 -16 -11 -39 -12 -46
-3 -53 3 -26 22 18 13 61 7 65 -10z"/>
<path d="M7292 10802 c4 -15 0 -22 -14 -26 -19 -4 -20 -10 -14 -60 6 -48 5
-57 -9 -63 -15 -5 -15 -8 6 -24 33 -25 46 -24 53 7 6 21 1 33 -18 53 -31 32
-33 61 -6 68 22 6 28 47 8 59 -7 5 -9 0 -6 -14z"/>
<path d="M11671 10671 c13 -37 25 -40 31 -6 3 13 1 22 -4 19 -5 -3 -15 0 -23
6 -13 11 -13 8 -4 -19z"/>
<path d="M11777 10642 c-10 -10 -17 -24 -17 -30 0 -16 40 -26 53 -13 6 6 18
11 27 11 9 0 16 8 16 19 0 15 -3 17 -13 9 -10 -8 -18 -6 -32 6 -16 15 -19 15
-34 -2z"/>
<path d="M11706 10612 c-3 -5 1 -15 9 -22 21 -17 27 -9 10 13 -7 10 -16 14
-19 9z"/>
<path d="M11670 10582 c-8 -4 -16 -20 -18 -37 -5 -51 -8 -64 -15 -71 -4 -4 -2
-13 4 -21 6 -7 8 -13 4 -13 -4 0 -2 -6 5 -14 12 -16 44 -10 34 5 -3 5 -10 7
-15 4 -5 -4 -9 -1 -9 5 0 7 9 14 21 17 11 3 17 9 12 12 -5 3 -14 19 -21 34
-11 25 -10 30 13 51 14 13 25 26 25 30 0 8 -20 7 -40 -2z"/>
<path d="M10680 10522 c0 -33 57 -99 90 -104 17 -3 33 -1 36 4 3 4 -1 8 -8 8
-9 1 -7 5 5 14 15 12 11 17 -47 55 -35 22 -67 41 -70 41 -3 0 -6 -8 -6 -18z"/>
<path d="M8880 10501 c0 -5 5 -13 10 -16 6 -3 10 -2 10 4 0 5 -4 13 -10 16 -5
3 -10 2 -10 -4z"/>
<path d="M9581 10491 l-24 -7 26 -17 c14 -9 29 -13 32 -8 3 5 1 12 -5 16 -6 4
-8 11 -5 16 4 5 5 9 3 8 -2 -1 -14 -4 -27 -8z"/>
<path d="M8637 10484 c-3 -3 -3 -13 0 -21 5 -12 7 -12 14 -1 15 23 4 40 -14
22z"/>
<path d="M8770 10482 c0 -16 13 -20 35 -11 11 4 15 8 8 8 -6 1 -18 4 -27 7 -9
3 -16 1 -16 -4z"/>
<path d="M8856 10481 c-4 -7 -5 -15 -2 -18 9 -9 19 4 14 18 -4 11 -6 11 -12 0z"/>
<path d="M9940 10455 c0 -9 -11 -20 -24 -26 -14 -7 -22 -17 -19 -25 3 -9 -2
-14 -12 -14 -14 0 -16 -6 -11 -32 4 -18 8 -53 9 -78 2 -33 7 -46 20 -48 23 -5
97 38 97 56 0 9 6 12 16 8 19 -7 44 10 44 29 0 8 -16 23 -34 35 -19 11 -38 30
-41 41 -5 15 -10 17 -20 9 -9 -8 -15 -8 -20 0 -3 5 -1 10 4 10 6 0 11 11 11
25 0 14 -4 25 -10 25 -5 0 -10 -7 -10 -15z"/>
<path d="M9626 10435 c3 -8 1 -15 -5 -15 -6 0 -11 -7 -11 -15 0 -12 4 -13 18
-6 13 7 34 6 67 -5 27 -8 51 -12 53 -9 3 3 0 5 -6 5 -7 0 -12 7 -12 15 0 18
-23 30 -72 39 -32 6 -37 4 -32 -9z"/>
<path d="M10853 10426 c3 -8 -1 -20 -9 -26 -8 -7 -14 -19 -14 -26 0 -8 -5 -14
-11 -14 -5 0 -8 -3 -6 -7 3 -5 -1 -13 -8 -20 -10 -9 -17 -8 -31 8 -9 10 -23
19 -31 19 -8 0 -13 12 -13 35 0 39 -4 42 -26 21 -9 -10 -11 -17 -4 -21 8 -5 8
-11 0 -20 -6 -7 -8 -19 -5 -27 3 -8 0 -20 -8 -27 -11 -9 -17 -8 -27 4 -16 20
-54 20 -47 1 3 -8 -1 -20 -9 -26 -8 -7 -14 -21 -14 -31 0 -13 -7 -19 -24 -19
-33 0 -40 -14 -39 -77 0 -29 -4 -56 -11 -61 -16 -13 -88 -23 -80 -11 5 9 -44
2 -55 -7 -2 -2 -12 1 -23 7 -13 7 -23 7 -32 0 -7 -6 -15 -8 -19 -5 -3 3 -3 -3
0 -15 4 -18 -3 -24 -46 -42 -28 -12 -48 -26 -44 -32 4 -6 -10 -8 -41 -5 -25 3
-46 2 -46 -3 0 -5 -6 -9 -14 -9 -8 0 -16 -5 -18 -12 -2 -6 -20 -17 -39 -23
-38 -13 -68 -5 -106 28 -20 18 -43 16 -43 -3 0 -5 -11 -21 -26 -35 -20 -20
-29 -23 -45 -15 -13 7 -19 7 -19 0 0 -22 -16 -8 -25 22 -6 17 -20 35 -32 39
-19 7 -21 5 -20 -18 2 -23 -4 -29 -38 -39 -22 -6 -39 -16 -39 -20 1 -5 4 -24
7 -41 4 -22 2 -37 -7 -45 -21 -19 3 -58 53 -86 23 -13 41 -27 41 -31 0 -21
-15 -17 -40 9 -28 30 -70 32 -70 4 0 -24 -4 -28 -52 -61 -49 -34 -68 -40 -68
-23 0 6 5 10 10 10 6 0 10 5 10 10 0 14 -26 13 -69 -2 -38 -14 -65 -42 -67
-69 -2 -27 -15 -43 -24 -29 -8 13 -80 32 -80 20 0 -16 -83 -49 -99 -41 -9 5
-20 10 -26 10 -24 3 -45 13 -45 22 0 18 -28 9 -33 -11 -3 -13 -14 -20 -30 -20
-17 0 -26 -7 -30 -21 -3 -11 -15 -23 -26 -26 -19 -5 -19 -7 10 -35 17 -18 28
-37 25 -45 -3 -8 -6 -26 -6 -39 0 -15 -6 -24 -16 -24 -8 0 -12 -4 -9 -10 6
-10 -6 -14 -37 -11 -14 2 -18 -5 -18 -30 0 -18 -6 -40 -14 -48 -19 -22 -30
-77 -17 -86 6 -3 11 -11 11 -16 0 -6 -4 -7 -10 -4 -5 3 -10 0 -10 -7 0 -7 -16
-27 -35 -45 -32 -29 -34 -34 -24 -63 14 -40 8 -53 -35 -74 -20 -9 -36 -23 -36
-31 0 -8 -7 -15 -15 -15 -9 0 -15 -9 -15 -25 0 -16 -6 -25 -16 -25 -27 0 -48
-30 -46 -67 2 -19 -1 -40 -7 -47 -11 -13 3 -112 18 -130 8 -10 4 -16 -14 -24
-14 -6 -25 -16 -25 -22 0 -5 -9 -10 -20 -10 -11 0 -20 -4 -20 -10 0 -5 6 -7
13 -5 18 8 84 -55 68 -65 -9 -5 -10 -10 -2 -14 9 -6 13 1 13 24 0 3 -3 15 -7
28 -5 16 -2 22 9 22 9 0 16 -9 16 -20 0 -13 13 -28 35 -41 24 -15 35 -28 35
-44 0 -13 5 -27 11 -30 5 -4 14 -17 19 -30 7 -18 14 -21 35 -17 l26 5 -20 -37
c-11 -20 -16 -36 -11 -36 6 0 10 5 10 10 0 6 8 10 18 10 20 0 52 29 52 48 0 6
8 13 18 17 13 3 19 16 20 36 1 44 27 69 63 62 30 -6 37 5 18 24 -8 8 -6 15 10
25 11 7 21 22 21 33 0 11 6 29 14 40 7 11 12 36 11 57 -2 33 1 37 26 40 16 3
32 1 37 -4 10 -10 9 41 -2 65 -5 9 -6 27 -3 40 3 12 -1 31 -9 41 -18 25 -18
37 1 30 20 -8 19 1 -7 52 -16 33 -25 41 -34 33 -8 -6 -14 -6 -18 0 -4 5 -2 12
4 16 7 4 7 13 -1 26 -8 16 -7 20 3 18 7 -1 23 -1 36 0 20 1 21 4 12 21 -6 11
-15 18 -20 15 -5 -3 -11 -1 -15 5 -3 5 -1 10 4 10 6 0 11 7 11 16 0 25 106 11
136 -17 14 -13 24 -17 29 -10 4 7 43 11 99 11 89 0 93 -1 121 -30 16 -16 34
-30 39 -30 6 0 23 -7 39 -14 15 -8 27 -11 27 -5 0 5 7 9 15 9 8 0 15 -4 15
-10 0 -25 40 -7 61 28 13 20 26 38 31 40 4 2 5 9 2 16 -7 18 61 26 99 13 26
-9 32 -6 60 24 18 20 38 33 49 31 10 -2 27 3 39 12 14 10 29 12 43 6 35 -13
117 1 163 27 28 16 49 22 66 18 37 -10 87 19 87 50 0 14 6 25 13 25 15 0 37
54 37 91 0 16 11 32 35 48 19 13 35 27 35 32 0 5 18 9 39 9 27 0 49 8 69 25
17 14 33 25 38 25 16 0 65 66 61 82 -5 16 -3 16 18 2 13 -9 26 -23 28 -32 4
-16 5 -16 6 0 1 17 62 33 107 28 44 -5 53 0 60 35 7 39 33 48 36 13 0 -13 2
-27 3 -33 2 -5 3 -15 4 -21 1 -12 31 -15 31 -2 0 4 5 8 11 8 20 0 116 75 111
88 -2 7 6 12 21 12 29 0 62 33 53 55 -3 9 2 20 14 27 14 9 17 19 13 40 -6 28
10 40 20 14 3 -7 29 -16 62 -20 52 -6 61 -4 110 26 40 24 55 39 55 56 0 13 6
22 15 22 8 0 15 7 15 16 0 10 6 14 15 11 8 -4 17 -2 20 3 9 15 -29 12 -43 -2
-10 -10 -14 -10 -21 0 -6 10 -10 10 -21 -3 -17 -20 -25 -19 -52 9 -13 13 -32
26 -42 28 -12 2 -30 23 -44 50 -23 44 -23 48 -8 64 20 19 16 38 -9 42 -11 3
-15 0 -10 -8 12 -20 -38 -1 -55 21 -8 10 -29 23 -46 29 -17 6 -36 22 -43 36
-6 14 -16 22 -22 19 -14 -9 -49 23 -49 45 0 9 -9 25 -20 35 -11 10 -20 24 -20
32 0 7 -4 13 -9 13 -5 0 -12 13 -16 28 -9 42 -55 72 -111 72 -36 0 -45 -3 -41
-14z m-745 -758 c13 -17 -3 -58 -23 -58 -12 0 -15 6 -10 19 3 11 1 22 -5 26
-5 3 -10 10 -10 16 0 13 36 11 48 -3z m-588 -51 c0 -17 -9 -26 -36 -36 -39
-14 -59 -5 -49 21 4 9 15 13 29 11 13 -3 28 2 35 11 18 21 21 20 21 -7z m430
-77 c0 -5 -2 -10 -4 -10 -3 0 -8 5 -11 10 -3 6 -1 10 4 10 6 0 11 -4 11 -10z"/>
<path d="M9780 10400 c-14 -27 -2 -47 14 -24 9 12 21 15 42 11 l29 -6 -27 12
c-16 6 -28 14 -28 19 0 16 -19 8 -30 -12z"/>
<path d="M9540 10250 c0 -5 7 -7 15 -4 8 4 15 8 15 10 0 2 -7 4 -15 4 -8 0
-15 -4 -15 -10z"/>
<path d="M8148 10233 c7 -3 16 -2 19 1 4 3 -2 6 -13 5 -11 0 -14 -3 -6 -6z"/>
<path d="M12917 10195 c-33 -29 -33 -38 -6 -82 18 -29 24 -32 35 -21 8 7 18
35 23 61 7 40 6 49 -8 56 -11 7 -24 2 -44 -14z"/>
<path d="M9553 10197 c0 -8 6 -14 14 -14 9 0 10 4 2 14 -6 7 -12 13 -14 13 -1
0 -2 -6 -2 -13z"/>
<path d="M9912 10187 c-7 -8 -9 -17 -5 -20 3 -4 1 -7 -5 -7 -7 0 -12 8 -12 18
-1 9 -10 -2 -22 -25 -15 -33 -26 -43 -44 -43 -21 0 -56 -39 -37 -41 29 -3 50
-7 66 -14 12 -5 17 -2 17 10 0 9 4 14 9 11 13 -9 20 31 8 43 -8 8 -6 11 5 11
9 0 21 14 27 32 12 35 9 45 -7 25z"/>
<path d="M9715 10149 c-9 -13 0 -22 25 -24 24 -2 46 20 30 30 -5 3 -10 1 -10
-6 0 -10 -3 -10 -12 -1 -15 15 -25 15 -33 1z"/>
<path d="M6915 10118 c-12 -57 -11 -62 14 -63 21 0 24 -5 25 -45 l1 -45 -93 0
c-78 0 -91 -2 -86 -15 13 -29 16 -60 7 -60 -5 0 -18 7 -29 15 -24 18 -73 20
-70 3 2 -7 9 -26 17 -42 11 -23 11 -30 1 -34 -24 -8 -11 -32 27 -52 22 -11 42
-24 46 -30 4 -6 14 -4 29 5 12 8 25 12 29 9 3 -4 17 -4 31 0 18 4 24 11 20 24
-4 11 1 8 14 -8 31 -37 48 -96 33 -114 -9 -11 -9 -15 1 -19 9 -4 7 -9 -7 -18
-19 -13 -19 -13 5 -19 14 -4 24 -13 22 -20 -2 -8 3 -10 13 -7 8 4 15 2 15 -3
0 -6 -7 -10 -15 -10 -19 0 -19 -2 5 -44 11 -21 15 -38 10 -41 -6 -4 -10 -1
-10 5 0 7 -9 9 -22 6 -13 -3 -17 -3 -9 0 9 4 -8 16 -44 30 -63 26 -79 29 -71
15 3 -5 -1 -12 -10 -15 -11 -4 -12 -10 -6 -22 12 -21 4 -51 -15 -58 -8 -3 -28
1 -44 10 -17 8 -38 12 -49 9 -10 -3 -21 -1 -24 4 -9 13 -36 2 -36 -14 0 -18
-32 -28 -41 -14 -4 7 -13 14 -21 15 -7 1 -21 5 -30 9 -11 4 -18 3 -18 -4 0 -7
-15 -4 -39 8 -21 11 -41 17 -45 14 -3 -4 -12 2 -20 12 -7 10 -18 15 -24 11 -6
-3 -14 -1 -18 5 -5 8 -9 7 -14 -2 -7 -10 -11 -10 -24 1 -22 18 -31 6 -27 -36
3 -40 -12 -64 -43 -64 -11 0 -16 -4 -11 -8 11 -8 16 -25 18 -57 0 -11 7 -29
14 -40 15 -22 17 -55 5 -55 -5 0 -14 -12 -21 -26 -10 -22 -9 -28 3 -38 18 -13
12 -25 -28 -50 l-29 -18 6 23 c5 20 2 19 -21 -10 -15 -19 -29 -46 -32 -60 -4
-17 -12 -25 -23 -25 -13 2 -16 -3 -12 -17 5 -15 1 -19 -19 -19 -14 0 -29 7
-34 16 -8 14 -12 14 -47 0 -46 -19 -45 -19 -45 -1 0 9 -9 15 -23 15 -13 0 -28
5 -33 10 -8 8 -19 7 -37 -1 -22 -10 -34 -9 -67 6 -40 18 -40 18 -68 -6 -15
-13 -33 -30 -39 -38 -7 -8 -13 -12 -13 -8 0 4 -14 -2 -32 -13 -25 -15 -36 -17
-52 -8 -14 8 -21 8 -24 0 -11 -34 -118 -68 -150 -48 -8 5 -12 0 -12 -13 0 -12
-7 -21 -15 -21 -9 0 -15 -9 -15 -21 0 -37 -85 -100 -112 -83 -6 4 -8 -2 -3
-16 15 -46 13 -71 -7 -81 -14 -8 -18 -19 -16 -42 3 -27 8 -33 32 -35 32 -4 78
-30 72 -41 -3 -4 18 -15 45 -24 l49 -18 66 31 c63 30 68 31 137 22 42 -6 76
-6 82 -1 5 5 23 9 41 9 45 0 64 9 64 31 0 22 58 41 101 32 21 -4 29 -2 29 9 0
10 19 14 80 16 44 1 91 7 105 12 38 14 47 13 75 -13 17 -16 37 -24 58 -23 31
1 45 -18 20 -26 -18 -6 0 -28 23 -28 13 0 18 4 13 12 -4 6 -3 8 3 5 15 -9 74
3 67 14 -3 5 1 9 9 9 10 0 12 9 9 31 -3 22 -1 30 7 25 7 -5 9 -1 5 9 -9 21 14
45 42 45 17 0 24 6 24 19 0 13 15 27 45 42 25 12 45 29 45 37 0 10 7 12 25 8
23 -6 25 -3 25 24 0 19 5 30 14 30 20 0 30 38 15 56 -9 11 -9 18 -2 22 6 4 15
23 20 42 9 32 12 35 48 35 22 0 40 5 42 13 3 6 16 12 29 12 13 0 24 5 24 10 0
6 11 15 24 22 21 9 24 16 19 39 -6 31 7 38 27 15 15 -19 57 -2 65 25 6 19 47
21 74 5 6 -4 11 -2 11 4 0 8 6 8 20 0 16 -8 24 -7 36 4 17 17 27 76 13 76 -5
0 -9 4 -9 9 0 5 9 7 20 4 12 -3 22 1 26 11 3 9 14 16 23 16 9 0 24 7 34 15 18
13 18 17 4 64 -9 30 -11 53 -5 59 5 5 5 19 -1 34 -11 29 -6 38 21 38 16 0 17
7 13 60 -4 64 -11 84 -25 75 -4 -3 -13 2 -20 9 -9 12 -5 15 27 18 32 2 37 6
35 23 -2 11 -4 31 -5 45 -1 14 -8 35 -15 48 -7 12 -10 27 -7 32 3 5 1 12 -5
15 -6 4 -8 15 -5 26 4 11 2 19 -5 19 -6 0 -9 4 -6 9 3 4 -6 6 -21 3 -23 -4
-25 -2 -21 21 4 22 -1 31 -33 52 -21 14 -43 25 -49 25 -5 0 -10 5 -10 11 0 6
-8 9 -19 6 -14 -3 -17 0 -14 14 3 11 1 19 -4 19 -16 0 -51 -44 -58 -72 -4 -16
-11 -28 -17 -28 -5 0 -6 10 -3 21 6 17 4 20 -6 13 -29 -18 -38 -12 -38 24 1
77 -33 136 -46 80z m45 -292 c0 -3 -4 -8 -10 -11 -5 -3 -10 -1 -10 4 0 6 5 11
10 11 6 0 10 -2 10 -4z m-365 -406 c3 -5 1 -10 -4 -10 -6 0 -11 5 -11 10 0 6
2 10 4 10 3 0 8 -4 11 -10z"/>
<path d="M7153 10100 c-9 -14 -8 -22 8 -38 12 -14 15 -23 8 -28 -16 -9 10 -24
44 -24 20 0 27 5 27 20 0 11 -9 25 -20 32 -11 7 -20 18 -20 25 0 7 -8 17 -18
22 -14 7 -21 5 -29 -9z"/>
<path d="M8872 10105 c4 -4 0 -13 -9 -20 -9 -7 -13 -17 -9 -24 6 -9 11 -9 22
0 17 14 18 35 2 45 -7 4 -10 4 -6 -1z"/>
<path d="M12500 10106 c0 -2 8 -10 18 -17 15 -13 16 -12 3 4 -13 16 -21 21
-21 13z"/>
<path d="M12585 10060 c27 -12 43 -12 25 0 -8 5 -22 9 -30 9 -10 0 -8 -3 5 -9z"/>
<path d="M9707 10047 c-3 -8 -1 -20 4 -28 6 -10 9 -7 9 14 0 29 -5 35 -13 14z"/>
<path d="M12500 10043 c0 -7 -9 -13 -20 -13 -22 0 -25 -12 -10 -40 8 -15 6
-20 -10 -25 -11 -3 -20 -11 -20 -16 0 -6 5 -7 10 -4 6 3 10 1 10 -4 0 -6 -8
-11 -17 -11 -17 -1 -17 -1 0 -11 22 -13 40 -2 34 22 -3 10 -2 21 3 24 4 2 5
16 2 31 -4 24 -3 25 17 15 16 -9 21 -9 21 1 0 18 -20 47 -20 31z"/>
<path d="M7265 10012 c-3 -8 4 -26 15 -42 11 -15 20 -33 20 -39 0 -17 44 -23
85 -12 21 6 42 8 47 5 4 -3 8 3 8 13 0 10 -9 24 -20 31 -17 10 -20 10 -20 -3
0 -9 -9 -15 -25 -15 -22 0 -25 4 -23 28 2 17 -1 26 -9 25 -7 -2 -13 4 -13 12
0 18 -58 16 -65 -3z"/>
<path d="M13000 10019 c0 -19 14 -39 26 -39 8 0 13 9 12 23 -1 14 -8 23 -20
23 -10 0 -18 -3 -18 -7z"/>
<path d="M12665 10010 c11 -18 13 -84 4 -102 -7 -13 -6 -18 4 -18 23 0 56 -54
45 -73 -5 -10 -8 -32 -6 -49 2 -25 9 -34 28 -38 14 -3 25 -11 24 -18 -1 -7 -2
-22 -2 -33 -2 -19 -6 -20 -37 -15 -34 7 -35 6 -35 -24 0 -23 -6 -33 -25 -42
-28 -13 -38 -36 -38 -90 0 -21 -4 -41 -8 -44 -5 -3 -9 -13 -9 -23 0 -10 -7
-24 -15 -31 -16 -14 -12 -50 11 -87 8 -12 14 -29 14 -38 0 -8 7 -15 14 -15 8
0 28 -12 43 -26 39 -37 72 -58 80 -51 8 9 -17 37 -33 37 -8 0 -14 6 -15 13 -3
31 4 73 13 84 5 7 7 17 3 23 -4 6 -2 16 3 23 5 7 18 38 28 70 15 47 16 62 6
78 -11 17 -9 19 23 19 39 0 79 29 81 58 1 9 4 24 8 32 8 21 -31 65 -47 53 -14
-12 -47 -24 -47 -18 0 8 63 34 71 29 9 -5 13 2 23 48 4 19 11 26 21 22 20 -8
20 29 0 46 -8 7 -15 16 -15 21 0 14 28 11 33 -3 4 -9 5 -8 6 2 0 19 -17 59
-18 42 -1 -9 -12 -4 -33 13 -17 14 -34 22 -37 17 -7 -11 -67 -10 -63 1 1 4 -5
15 -13 24 -13 12 -14 18 -4 24 17 10 -2 33 -44 54 -35 18 -51 19 -42 5z"/>
<path d="M6634 9999 c2 -8 7 -26 10 -41 7 -31 36 -39 36 -10 0 20 -8 31 -33
51 -15 12 -17 12 -13 0z"/>
<path d="M12923 9993 c-7 -2 -13 -16 -13 -29 0 -22 -14 -30 -45 -24 -21 3 11
-19 47 -34 31 -13 39 -14 50 -2 10 11 15 7 25 -23 8 -23 9 -39 3 -45 -17 -17
-11 -28 10 -21 20 6 24 -2 23 -42 -1 -8 12 -13 33 -13 20 0 37 -6 42 -16 5 -9
13 -14 18 -12 5 1 10 -15 12 -37 4 -49 19 -70 38 -54 7 6 18 8 24 4 6 -4 18
-1 26 6 12 10 19 8 39 -11 13 -13 22 -27 19 -31 -3 -5 1 -9 9 -9 22 0 86 -53
87 -72 0 -10 7 -36 17 -59 16 -41 16 -41 33 -19 15 20 15 25 -12 80 -15 32
-32 61 -37 65 -6 3 -19 26 -30 51 -15 34 -18 51 -11 70 14 36 12 91 -4 122
-17 34 -108 101 -114 84 -2 -6 -12 -22 -22 -34 l-19 -23 -1 22 0 22 -25 -24
c-13 -14 -29 -25 -35 -25 -6 0 -8 -4 -5 -10 4 -6 -12 -10 -39 -10 -39 0 -46 3
-46 19 0 11 4 22 9 25 5 3 11 17 13 31 4 20 -1 30 -22 45 -34 24 -40 25 -40 4
0 -14 -2 -14 -15 0 -8 8 -15 19 -15 25 0 12 -7 13 -27 4z"/>
<path d="M7756 9893 c-6 -14 -5 -15 5 -6 7 7 10 15 7 18 -3 3 -9 -2 -12 -12z"/>
<path d="M7797 9873 c-4 -3 -7 -15 -7 -25 0 -11 -4 -17 -9 -14 -5 4 -7 -3 -4
-14 7 -25 -13 -50 -38 -50 -15 0 -17 5 -13 28 5 23 1 29 -28 41 -53 24 -66 21
-71 -13 -6 -37 8 -66 30 -66 9 0 25 -7 35 -17 11 -9 18 -11 18 -5 0 15 20 11
38 -5 7 -7 20 -13 27 -13 18 0 55 -48 55 -71 0 -12 10 -21 25 -25 14 -3 25
-11 25 -16 0 -7 4 -7 13 0 18 15 91 8 121 -11 21 -14 25 -14 30 -1 3 8 -1 17
-9 21 -12 4 -13 9 -5 18 8 10 7 20 -5 39 -11 16 -13 26 -6 26 21 0 11 27 -15
39 -15 7 -24 17 -21 25 3 8 -5 24 -19 37 -13 12 -24 18 -24 13 0 -5 -5 -1 -11
9 -5 9 -17 17 -24 17 -8 0 -15 4 -15 9 0 5 -14 14 -31 20 -37 13 -53 14 -62 4z"/>
<path d="M12926 9786 c7 -19 38 -22 32 -3 -3 6 -12 13 -21 15 -12 2 -15 -1
-11 -12z"/>
<path d="M12970 9772 c-10 -67 -5 -124 12 -133 10 -6 15 -16 11 -26 -4 -9 1
-21 10 -28 16 -11 18 -50 3 -73 -4 -7 -1 -23 7 -35 17 -27 27 -77 15 -77 -5 0
-2 -13 7 -30 19 -37 20 -66 5 -110 -7 -19 -14 -41 -16 -48 -4 -13 -11 -16 -57
-26 -25 -6 -26 -8 -12 -22 17 -18 20 -34 4 -34 -5 0 -7 -5 -3 -12 4 -7 9 -24
11 -39 2 -20 -3 -29 -17 -34 -17 -5 -19 -12 -14 -46 5 -26 2 -44 -7 -56 -12
-15 -12 -16 3 -10 9 3 22 -1 29 -9 11 -14 15 -13 32 8 12 16 20 19 24 11 2 -7
8 -13 13 -13 5 0 2 14 -7 31 -16 32 -12 44 15 44 21 0 37 61 21 81 -19 23 11
46 63 49 72 4 107 22 78 40 -5 3 -10 11 -10 16 0 6 4 8 8 5 4 -2 14 -1 22 4
10 6 22 2 37 -12 14 -13 23 -17 23 -9 0 8 6 11 15 7 13 -5 15 0 9 29 -7 37 -1
41 54 36 17 -1 22 3 22 23 0 34 14 40 35 16 10 -11 14 -20 10 -20 -4 0 -1 -8
8 -17 10 -12 15 -35 14 -69 -2 -45 1 -52 22 -62 13 -6 27 -9 32 -7 10 7 22
-32 15 -44 -9 -14 4 -39 22 -43 10 -3 26 -21 37 -41 19 -36 19 -37 0 -52 -13
-10 -15 -13 -4 -10 22 8 35 -12 43 -67 4 -27 8 -48 9 -48 1 0 24 7 51 15 49
15 50 15 75 -9 34 -32 157 -48 167 -22 5 13 18 15 82 9 56 -5 73 -3 68 5 -4 7
0 15 11 19 10 4 24 15 31 25 13 18 14 18 39 -2 14 -11 32 -20 39 -20 8 0 14
-7 14 -15 0 -8 3 -15 8 -15 4 0 13 -13 20 -30 11 -24 18 -28 40 -24 15 3 40
-1 57 -10 39 -21 45 -20 45 4 0 12 -7 20 -17 20 -14 0 -18 8 -18 33 0 28 4 32
27 32 24 -1 25 1 12 19 -8 11 -14 30 -14 43 0 12 -7 29 -15 37 -11 11 -14 25
-10 49 5 28 2 38 -23 65 -20 21 -32 28 -39 21 -14 -14 -22 -1 -25 40 -2 30
-18 57 -18 30 0 -8 -4 -8 -15 1 -8 7 -15 26 -15 42 0 20 -8 37 -26 50 -14 11
-23 23 -20 26 13 13 -17 31 -43 26 -22 -5 -33 1 -57 28 -16 18 -42 41 -57 51
-15 10 -36 32 -46 48 -17 28 -100 89 -121 89 -6 0 -10 -7 -10 -16 0 -12 -3
-14 -12 -6 -7 5 -34 11 -60 13 -37 3 -49 0 -58 -14 -6 -11 -14 -16 -17 -13 -4
3 -17 -1 -31 -10 -13 -9 -33 -14 -43 -11 -13 4 -19 0 -19 -12 0 -12 -13 -22
-40 -30 -43 -13 -71 -5 -89 26 -7 14 -12 15 -24 4 -13 -10 -20 -8 -39 14 -19
22 -29 26 -58 21 -22 -3 -42 0 -54 9 -11 8 -34 15 -50 15 -21 0 -43 12 -68 35
-43 40 -44 42 -23 65 14 15 13 20 -8 51 -12 18 -32 38 -43 44 -11 6 -19 15
-17 21 4 12 -52 64 -68 64 -5 0 -9 6 -9 14 0 27 -16 25 -20 -2z m20 -612 c0
-5 -4 -10 -10 -10 -5 0 -10 5 -10 10 0 6 5 10 10 10 6 0 10 -4 10 -10z"/>
<path d="M7707 9700 c-9 -11 -15 -20 -13 -20 3 0 11 -3 19 -6 11 -4 15 1 13
20 0 14 -1 26 -1 26 0 0 -8 -9 -18 -20z"/>
<path d="M11783 9696 c15 -12 16 -18 6 -40 -11 -22 -10 -29 4 -43 13 -13 18
-14 29 -2 18 19 17 77 -2 89 -8 5 -24 10 -35 10 -19 -1 -19 -1 -2 -14z"/>
<path d="M9359 9693 c-5 -61 -2 -93 9 -93 6 0 12 7 12 16 0 8 3 13 8 11 4 -3
8 13 9 34 1 32 -2 39 -18 39 -10 0 -19 -3 -20 -7z"/>
<path d="M7550 9652 c0 -25 7 -40 25 -54 32 -25 31 -30 -5 -51 -16 -10 -30
-24 -30 -32 0 -8 -8 -19 -17 -24 -14 -8 -8 -9 24 -5 27 4 48 2 57 -5 11 -10
17 -8 29 9 14 20 14 20 32 0 18 -20 18 -20 50 5 18 13 35 21 39 18 11 -11 56
40 56 64 0 13 4 22 9 19 15 -9 20 19 7 36 -11 15 -17 15 -52 3 -52 -19 -89
-18 -104 0 -7 9 -21 14 -31 13 -10 -2 -24 6 -32 16 -8 11 -24 20 -36 21 -18 1
-21 -4 -21 -33z"/>
<path d="M11840 9561 c0 -9 30 -24 36 -18 2 1 -6 8 -16 15 -11 7 -20 8 -20 3z"/>
<path d="M8014 9484 c8 -21 -13 -101 -28 -107 -20 -8 -7 -69 15 -74 28 -8 23
-38 -10 -66 -18 -15 -26 -29 -21 -37 8 -14 2 -49 -13 -67 -5 -7 -7 -20 -3 -28
3 -8 1 -15 -4 -15 -17 0 -11 -36 9 -54 11 -10 19 -25 19 -34 0 -10 6 -39 13
-65 12 -44 12 -50 -3 -58 -10 -5 -14 -17 -11 -29 4 -16 0 -20 -18 -21 -13 -1
-27 -1 -30 -1 -4 1 -10 -11 -14 -25 -5 -22 1 -33 40 -71 32 -30 49 -41 54 -33
13 20 61 -8 68 -40 3 -17 10 -26 18 -23 7 3 16 -3 19 -14 5 -14 13 -18 31 -14
20 3 26 12 31 43 7 41 13 46 31 28 8 -8 19 -6 39 7 15 10 38 17 50 16 26 -4
104 33 104 49 0 6 9 8 20 4 11 -4 20 -2 20 4 0 6 7 11 15 11 11 0 12 5 5 26
-13 33 -13 34 3 34 21 0 47 34 47 59 0 17 4 21 19 16 27 -8 45 18 31 44 -15
30 4 26 28 -4 22 -28 42 -33 42 -11 0 8 6 17 13 19 7 4 4 8 -10 12 -12 4 -33
25 -47 46 -30 44 -41 48 -49 18 -4 -16 -12 -20 -39 -17 -24 2 -33 8 -32 21 2
23 -8 22 -24 -4 -9 -14 -20 -19 -34 -16 -32 9 -47 -2 -54 -39 -5 -25 -11 -34
-23 -32 -18 4 -83 97 -75 109 2 4 0 10 -6 14 -6 4 -8 11 -4 16 3 6 -1 18 -10
28 -15 16 -15 19 -1 31 12 10 13 16 3 27 -10 12 -9 17 5 24 23 13 21 39 -6 88
-17 30 -26 38 -35 29 -15 -15 -40 -3 -51 24 -5 13 -26 41 -45 62 -20 22 -39
54 -42 73 -5 27 -11 33 -31 33 -19 0 -24 -4 -19 -16z"/>
<path d="M7488 9449 c-21 -12 -12 -39 13 -39 21 0 25 15 8 26 -8 4 -7 9 2 15
19 12 -2 11 -23 -2z"/>
<path d="M13460 9440 c20 -13 33 -13 25 0 -3 6 -14 10 -23 10 -15 0 -15 -2 -2
-10z"/>
<path d="M12571 9301 c-8 -5 -9 -11 -3 -15 5 -3 12 1 16 9 6 17 6 18 -13 6z"/>
<path d="M8708 8935 c-3 -15 1 -30 10 -37 13 -11 14 -11 7 2 -5 8 -8 25 -6 38
3 30 -5 28 -11 -3z"/>
<path d="M14195 8696 c-19 -14 -19 -15 -2 -33 9 -11 17 -27 17 -36 0 -11 8
-17 25 -17 22 0 24 2 15 26 -6 14 -10 36 -10 50 0 27 -17 31 -45 10z"/>
<path d="M14163 8563 c-13 -2 -23 -9 -23 -14 0 -14 26 -11 40 6 7 8 11 14 9
14 -2 -1 -14 -4 -26 -6z"/>
<path d="M14117 8503 c-11 -10 -8 -33 4 -33 11 0 39 24 39 34 0 8 -35 7 -43
-1z"/>
<path d="M14190 8492 c0 -6 -11 -13 -25 -16 -15 -4 -30 -18 -35 -32 -15 -37
-11 -54 5 -20 7 16 21 31 31 32 10 2 20 8 22 14 2 5 8 8 13 4 5 -3 9 -1 9 5 0
5 -4 13 -10 16 -5 3 -10 2 -10 -3z"/>
<path d="M14060 8465 c0 -16 16 -20 24 -6 3 5 -1 11 -9 15 -9 3 -15 0 -15 -9z"/>
<path d="M8730 8426 c0 -13 -5 -16 -16 -12 -14 5 -15 4 -5 -8 6 -7 8 -22 4
-31 -5 -15 -3 -17 11 -12 10 4 20 7 22 7 3 0 0 10 -7 22 -10 18 -9 20 6 14 16
-6 16 -4 4 11 -7 10 -15 20 -16 22 -2 2 -3 -4 -3 -13z"/>
</g>
</svg>
