<?xml version="1.0" standalone="no"?>
<!DOCTYPE svg PUBLIC "-//W3C//DTD SVG 20010904//EN"
 "http://www.w3.org/TR/2001/REC-SVG-20010904/DTD/svg10.dtd">
<svg version="1.0" xmlns="http://www.w3.org/2000/svg"
 width="850.112727pt" height="678.041462pt" viewBox="0 0 850.112727 678.041462"
 preserveAspectRatio="xMidYMid meet">
<metadata>
Created by potrace 1.15, written by Peter Selinger 2001-2017
</metadata>
<g transform="translate(-579.813771,1384.659198) scale(0.100000,-0.100000)"
fill="#222222" stroke="none">
<path d="M9427 13844 c-4 -4 -2 -13 5 -21 21 -25 -13 -33 -70 -15 -28 9 -36 8
-53 -9 -11 -11 -27 -18 -35 -15 -29 11 -10 -28 21 -43 38 -18 65 -52 59 -72
-5 -19 20 -49 42 -49 8 0 14 -5 14 -11 0 -5 4 -8 9 -5 5 3 19 -2 32 -12 13
-10 42 -24 64 -30 31 -10 48 -24 78 -67 41 -59 45 -80 21 -113 -23 -34 -33
-76 -22 -97 7 -12 7 -20 -1 -25 -20 -12 26 -80 54 -80 17 0 24 -7 28 -27 3
-16 1 -32 -4 -37 -5 -6 3 -17 21 -28 17 -10 30 -25 30 -33 0 -8 9 -15 20 -15
14 0 21 -9 26 -35 3 -19 12 -35 19 -35 7 0 18 -14 25 -30 16 -38 49 -58 61
-39 5 8 7 19 4 26 -2 7 0 15 6 18 5 4 6 12 2 18 -11 17 -12 67 -2 67 5 0 9 12
9 28 1 24 2 25 14 10 11 -15 18 -16 47 -6 19 6 35 12 37 14 8 5 -20 44 -28 39
-4 -3 -6 4 -3 15 3 11 2 35 -1 53 -6 33 -8 34 -71 40 -14 1 -25 5 -25 10 0 4
-6 7 -12 7 -15 1 -54 50 -39 50 6 0 6 11 -1 31 -7 22 -7 37 0 54 9 20 6 30
-23 66 -34 43 -34 44 -15 62 22 19 27 72 9 83 -8 5 -6 10 5 16 9 5 16 16 16
24 0 8 6 23 12 34 9 15 10 22 1 31 -8 8 -18 5 -39 -14 -29 -27 -55 -24 -68 8
-3 8 -12 15 -19 15 -8 0 -22 9 -32 20 -10 11 -22 17 -28 13 -17 -10 -71 -10
-84 0 -7 5 -13 27 -13 48 0 39 -10 52 -44 54 -12 1 -28 5 -37 9 -8 4 -18 4
-22 0z"/>
<path d="M9174 13787 c-7 -8 -1 -21 23 -45 18 -18 31 -37 28 -42 -3 -4 2 -11
11 -14 12 -4 15 -2 10 9 -3 9 0 15 9 15 8 0 15 5 15 10 0 6 -4 10 -10 10 -5 0
-10 7 -10 15 0 9 -8 18 -17 22 -10 3 -25 12 -33 18 -11 9 -18 10 -26 2z"/>
<path d="M9040 13778 c0 -4 4 -8 9 -8 6 0 12 4 15 8 3 5 -1 9 -9 9 -8 0 -15
-4 -15 -9z"/>
<path d="M8983 13703 c4 -3 2 -12 -5 -20 -8 -11 -7 -12 6 -7 18 7 22 34 4 34
-6 0 -8 -3 -5 -7z"/>
<path d="M9220 13661 c0 -11 -9 -21 -22 -24 l-22 -6 27 -29 c15 -15 27 -38 27
-49 0 -16 5 -20 19 -16 13 3 18 10 14 21 -4 8 -2 13 3 10 14 -9 16 78 2 89
-28 21 -48 23 -48 4z"/>
<path d="M8870 13080 c0 -27 -50 -33 -75 -9 -18 16 -26 17 -59 8 -21 -6 -47
-8 -58 -6 -15 4 -17 3 -8 -8 8 -9 6 -14 -7 -19 -10 -4 -19 -6 -21 -4 -6 5 -31
-46 -32 -64 0 -24 -41 -83 -65 -94 -11 -6 -19 -15 -17 -22 3 -17 -18 -15 -24
3 -5 13 -8 13 -21 0 -8 -8 -21 -15 -28 -15 -10 0 -13 -12 -11 -40 3 -33 0 -40
-15 -40 -11 0 -19 -4 -19 -9 0 -14 -51 -66 -61 -63 -5 1 -9 -2 -9 -7 0 -19
-50 -21 -77 -4 -26 17 -27 17 -20 0 3 -9 2 -17 -2 -17 -5 0 -7 -9 -4 -20 3
-12 -1 -22 -10 -26 -16 -6 -16 -27 -1 -121 4 -25 2 -48 -4 -55 -15 -19 -12
-68 4 -68 17 0 17 -5 3 -31 -10 -19 -11 -19 -41 6 -17 14 -32 24 -35 22 -10
-10 11 -58 38 -88 29 -33 37 -63 19 -74 -5 -3 -10 -15 -10 -25 0 -29 -38 -36
-61 -11 -11 12 -24 21 -29 21 -18 0 4 -35 42 -69 41 -36 47 -51 22 -51 -14 0
-14 -2 -1 -15 9 -8 17 -20 19 -26 2 -6 15 -13 28 -14 14 -1 28 -3 31 -4 4 0
10 -12 13 -26 4 -14 12 -25 20 -25 7 0 21 -9 31 -20 10 -12 25 -18 32 -16 25
10 40 -4 35 -34 -5 -33 -22 -39 -42 -15 -7 9 -20 13 -27 10 -8 -2 -24 0 -36 5
-20 10 -20 9 1 -6 l24 -17 -24 -13 c-24 -13 -34 -7 -124 83 -32 32 -37 68 -11
85 14 8 -7 34 -33 41 -14 3 -17 1 -13 -11 5 -12 1 -14 -19 -9 -20 5 -24 3 -23
-13 1 -11 7 -26 13 -32 26 -26 12 -65 -22 -59 -5 1 -6 -5 -2 -14 3 -9 6 -26 6
-37 0 -19 5 -20 46 -15 26 2 50 11 55 18 4 7 11 11 14 7 4 -3 1 -15 -6 -26
-11 -18 -10 -23 9 -39 29 -23 41 -103 18 -122 -8 -7 -12 -20 -9 -28 4 -11 2
-14 -5 -9 -8 5 -10 2 -6 -9 5 -11 0 -18 -15 -22 -15 -4 -21 -13 -21 -32 0 -33
-46 -71 -85 -71 -15 0 -24 -4 -20 -10 3 -6 -1 -13 -9 -16 -9 -3 -16 -13 -16
-21 0 -12 -8 -14 -34 -9 -24 5 -39 2 -49 -9 -9 -8 -23 -15 -31 -15 -9 0 -16
-4 -16 -10 0 -5 -13 -10 -29 -10 -33 0 -43 -16 -29 -43 15 -29 5 -71 -19 -82
-13 -5 -23 -15 -23 -22 0 -28 -29 -11 -43 24 -16 40 -13 63 8 63 7 0 16 14 20
31 4 17 13 33 20 36 8 2 11 11 8 19 -6 17 9 18 26 2 10 -11 11 -7 6 17 -4 17
-14 35 -22 41 -11 10 -5 21 37 64 27 28 54 48 60 45 5 -3 10 3 10 14 0 12 5
21 10 21 6 0 10 7 10 15 0 8 6 12 13 10 17 -6 77 72 77 101 0 13 6 34 13 45
10 18 9 23 -7 33 -11 6 -36 25 -55 42 -20 17 -45 35 -55 41 -27 15 -56 4 -56
-19 0 -18 -2 -19 -17 -7 -15 13 -16 11 -11 -13 3 -16 1 -28 -4 -28 -5 0 -6 -9
-3 -21 6 -18 5 -19 -13 -10 -27 15 -32 14 -32 -5 0 -12 -7 -14 -29 -9 -25 5
-33 1 -56 -29 -28 -36 -69 -48 -91 -26 -21 21 -56 16 -85 -13 -16 -15 -29 -35
-29 -43 0 -25 -17 -6 -23 26 -4 16 -6 33 -4 36 4 10 -54 36 -88 39 -22 2 -36
-2 -39 -11 -3 -8 -14 -14 -25 -14 -14 0 -19 5 -15 15 4 8 1 15 -5 15 -6 0 -11
-5 -11 -10 0 -7 -6 -7 -19 -1 -15 9 -20 7 -24 -11 -4 -15 -11 -19 -26 -15 -12
3 -43 -7 -73 -22 -47 -25 -53 -32 -64 -75 -7 -26 -14 -50 -17 -52 -9 -9 -87
-12 -93 -3 -3 5 -11 6 -17 2 -6 -4 -51 -9 -99 -11 -79 -3 -88 -2 -98 17 -6 12
-15 21 -21 21 -6 0 -23 8 -37 18 -32 22 -114 52 -162 59 -29 4 -33 3 -22 -8 7
-8 18 -14 24 -14 6 0 13 -6 16 -14 3 -9 0 -11 -9 -5 -12 7 -12 5 0 -9 11 -14
11 -22 -3 -52 -17 -35 -30 -43 -41 -25 -9 14 -49 -8 -61 -33 -8 -19 -16 -22
-57 -20 -47 3 -47 3 -48 -30 -1 -58 -6 -81 -16 -84 -6 -2 -19 -11 -29 -19 -15
-12 -15 -15 -3 -11 9 3 22 0 28 -6 16 -16 14 -47 -4 -47 -8 0 -15 -5 -15 -11
0 -6 -9 -8 -20 -4 -11 3 -20 2 -20 -3 0 -5 -8 -9 -17 -8 -14 1 -19 -8 -21 -44
-2 -26 -10 -50 -18 -57 -12 -9 -13 -16 -5 -32 18 -32 13 -47 -21 -62 -43 -19
-47 -49 -6 -49 16 0 37 -4 46 -9 23 -12 72 -2 72 15 0 8 5 14 10 14 6 0 10 6
10 14 0 9 7 12 20 9 14 -4 20 0 20 12 0 12 5 15 16 11 9 -3 18 -6 20 -6 2 0 4
-9 4 -19 0 -12 9 -21 25 -25 26 -7 35 -39 15 -51 -6 -4 -8 -11 -5 -16 4 -5 -3
-20 -13 -34 -23 -29 -19 -62 8 -70 19 -6 33 -55 24 -79 -14 -36 71 -108 135
-116 44 -5 46 -6 49 -40 2 -19 8 -41 14 -47 13 -16 17 -93 5 -93 -5 0 -6 -12
-2 -27 8 -33 62 -96 70 -83 4 6 10 8 14 5 5 -2 13 7 19 20 7 15 20 25 32 25
42 0 65 98 35 150 -27 47 -28 51 -15 78 10 24 13 25 21 9 12 -20 35 -23 42 -4
3 9 8 9 21 -2 14 -12 16 -12 10 3 -3 9 -12 16 -20 16 -21 0 -17 17 6 23 13 3
20 0 20 -9 0 -16 46 -37 61 -28 28 17 20 -83 -8 -112 -11 -11 -18 -40 -21 -95
-4 -73 -7 -81 -30 -93 -18 -9 -25 -22 -27 -47 -3 -54 -94 -185 -141 -205 -19
-8 -34 -18 -34 -23 0 -25 24 -69 51 -93 28 -26 42 -67 18 -52 -9 5 -10 -1 -5
-20 5 -22 2 -28 -18 -36 -14 -5 -32 -23 -41 -40 -8 -16 -20 -30 -25 -30 -6 0
-10 -7 -10 -15 0 -8 -6 -15 -14 -15 -28 0 -28 -21 0 -61 15 -22 28 -52 29 -67
1 -15 5 -45 9 -67 6 -34 4 -44 -13 -60 -12 -10 -21 -26 -21 -37 0 -19 -15 -24
-25 -8 -4 6 -10 8 -14 6 -4 -3 -8 4 -8 15 -1 10 2 19 7 19 10 0 1 40 -12 57
-5 7 -7 16 -4 21 3 5 -5 19 -19 32 -20 18 -22 25 -12 41 9 14 9 21 -1 31 -6 6
-12 21 -12 31 0 20 -37 56 -58 57 -24 0 -72 30 -72 45 0 18 -27 20 -32 3 -3
-9 -10 -8 -22 5 -14 14 -28 16 -72 11 -49 -6 -57 -4 -70 15 -8 11 -24 21 -34
21 -10 0 -22 5 -25 10 -4 6 -11 7 -17 4 -13 -8 -58 16 -58 32 0 10 -29 23 -51
24 -4 0 -10 -12 -14 -27 -3 -15 -11 -31 -17 -34 -5 -4 -10 -34 -11 -67 -1 -47
3 -65 18 -82 18 -20 19 -22 2 -31 -13 -8 -15 -14 -7 -30 6 -10 17 -19 25 -19
8 0 17 -11 21 -25 3 -14 12 -24 20 -23 8 2 20 -8 27 -22 11 -21 10 -30 -3 -53
-12 -22 -20 -26 -39 -22 -27 7 -46 -13 -30 -32 7 -8 7 -18 0 -32 -6 -11 -11
-28 -11 -38 0 -10 -7 -31 -16 -48 -12 -23 -13 -34 -3 -51 6 -13 9 -34 7 -49
-3 -14 -1 -28 4 -31 13 -8 -11 -24 -36 -24 -11 0 -27 -7 -36 -15 -9 -8 -33
-16 -53 -17 -28 -2 -37 -7 -37 -20 0 -10 -4 -18 -10 -18 -5 0 -10 -7 -10 -15
0 -9 -6 -18 -14 -21 -20 -8 2 -60 31 -73 21 -10 29 -32 23 -70 -1 -8 4 -18 12
-22 10 -7 8 -9 -6 -9 -11 0 -17 -3 -13 -6 8 -8 48 6 43 14 -2 4 1 17 7 29 12
21 12 21 47 -10 19 -18 31 -29 26 -24 -18 14 -38 8 -32 -10 5 -15 -2 -18 -42
-20 -34 -2 -50 2 -59 14 -7 9 -13 13 -13 9 0 -12 64 -106 73 -106 4 0 5 5 2
10 -4 7 2 9 19 4 15 -3 32 -1 40 5 11 10 16 8 21 -8 3 -12 11 -21 16 -21 6 0
6 8 -1 20 -12 23 2 27 20 5 7 -8 17 -15 23 -15 6 0 18 -6 26 -13 26 -21 92
-40 102 -30 5 5 23 7 40 5 22 -3 27 -7 18 -13 -12 -7 -11 -11 1 -19 10 -6 11
-10 3 -10 -10 0 -10 -6 -1 -25 15 -33 30 -32 51 5 10 17 25 30 33 30 8 0 14 5
14 10 0 6 -7 10 -15 10 -8 0 -15 5 -15 10 0 6 -8 18 -19 29 -18 18 -18 18 -30
-1 -6 -10 -16 -16 -22 -12 -6 3 -3 11 8 19 17 13 17 14 -2 29 -20 14 -20 15
-1 29 13 10 15 16 8 21 -7 4 -12 20 -12 37 0 20 -5 29 -16 29 -8 0 -13 -4 -9
-9 8 -14 -12 -23 -34 -16 -16 5 -19 16 -18 78 0 40 6 75 11 79 8 5 8 8 0 8
-15 0 -10 70 7 80 11 7 10 14 -1 37 -8 15 -16 31 -18 36 -2 4 3 4 12 1 9 -4
16 -1 16 6 0 10 5 9 18 -2 9 -9 22 -13 29 -11 6 2 14 -1 18 -7 5 -8 10 -8 20
0 10 8 20 8 37 -1 23 -13 151 -19 162 -8 4 3 11 34 17 68 6 33 15 59 19 56 5
-3 11 -1 15 5 4 6 11 7 17 4 7 -5 9 -2 5 8 -6 17 58 86 69 75 4 -4 -1 -9 -10
-13 -21 -8 -21 -24 2 -24 10 0 26 -14 36 -31 11 -18 14 -29 7 -25 -6 4 -11 2
-11 -4 0 -6 7 -13 15 -16 8 -4 13 -10 10 -14 -3 -5 2 -15 10 -24 10 -9 12 -17
5 -21 -6 -4 -23 8 -39 25 l-27 32 4 -37 c4 -34 3 -37 -17 -30 -26 8 -77 -41
-61 -60 5 -6 6 -16 2 -21 -4 -4 0 -3 8 3 8 6 30 9 48 7 36 -4 68 17 56 37 -4
7 -3 9 3 6 6 -4 13 2 16 13 6 23 27 27 27 5 0 -8 -4 -15 -9 -15 -5 0 -7 -9 -4
-20 3 -12 -1 -22 -10 -26 -16 -6 -17 -39 -2 -77 6 -15 4 -17 -19 -11 -23 5
-26 3 -26 -20 0 -24 -4 -26 -40 -26 -36 0 -40 -2 -40 -25 0 -19 -5 -25 -17
-23 -12 2 -21 -7 -29 -31 -6 -19 -22 -40 -37 -47 -14 -8 -29 -24 -32 -35 -5
-15 -9 -18 -15 -9 -5 9 -9 9 -14 1 -4 -6 3 -29 15 -52 19 -32 21 -44 12 -58
-10 -15 -8 -22 7 -36 11 -10 17 -21 15 -25 -3 -5 1 -11 7 -13 10 -4 10 -6 1
-6 -7 -1 -13 -10 -13 -22 0 -11 -4 -17 -10 -14 -5 3 -10 -1 -10 -9 0 -12 -10
-16 -35 -16 l-35 0 27 -42 c15 -24 35 -51 45 -61 10 -10 18 -32 18 -48 0 -48
27 -98 51 -92 10 3 16 9 13 14 -3 5 2 9 10 9 9 0 16 8 15 18 0 10 -3 12 -6 5
-6 -16 -29 -17 -38 -3 -8 13 19 40 39 40 11 0 16 -9 16 -29 0 -30 14 -49 24
-32 10 15 44 1 61 -26 15 -22 21 -24 59 -19 33 5 46 3 57 -10 11 -14 11 -18
-6 -30 -22 -16 -3 -19 26 -4 10 6 19 7 19 2 0 -5 6 -9 14 -9 47 0 28 128 -22
150 -54 23 -46 47 17 47 25 0 42 9 67 35 19 18 34 39 34 45 0 5 15 10 34 10
34 0 40 10 23 38 -6 9 3 12 35 12 57 1 77 18 84 74 6 39 10 46 25 41 11 -4 25
3 38 16 13 15 27 20 42 16 12 -3 28 0 35 8 10 10 22 11 46 4 38 -10 65 -4 93
22 14 12 32 17 61 15 51 -4 66 -13 62 -34 -3 -16 32 -58 76 -92 18 -14 19 -13
13 3 -5 14 -1 17 27 17 29 0 42 -9 89 -62 31 -36 52 -67 47 -72 -5 -5 -6 -15
-3 -22 7 -18 -23 -64 -41 -64 -12 0 -33 -22 -56 -59 -7 -12 -15 -12 -55 3 -25
10 -47 17 -48 15 -1 -2 -8 -14 -14 -26 -9 -16 -10 -30 -3 -49 9 -23 8 -25 -3
-16 -11 9 -18 7 -32 -8 -10 -11 -22 -17 -27 -13 -17 10 -26 -18 -15 -47 12
-33 -3 -60 -34 -60 -16 0 -17 -4 -9 -25 8 -20 6 -27 -10 -35 -11 -6 -20 -18
-20 -26 0 -10 5 -12 13 -7 6 4 4 -5 -5 -19 -19 -29 -15 -90 6 -86 6 2 11 -1
11 -7 0 -5 -6 -9 -12 -9 -7 1 -10 -2 -7 -7 9 -15 32 -10 38 9 4 11 15 18 28
18 15 -1 24 6 27 22 6 23 6 23 44 -10 20 -18 37 -39 37 -45 0 -16 38 -36 55
-29 8 3 17 0 21 -5 3 -6 16 -8 28 -5 21 5 66 -23 66 -42 0 -5 8 -9 18 -8 11 0
17 -6 18 -19 2 -36 4 -40 14 -25 8 12 10 11 10 -7 0 -13 -8 -24 -20 -28 -11
-3 -20 -13 -20 -20 0 -9 -6 -12 -16 -8 -13 5 -15 2 -10 -15 11 -35 9 -128 -5
-153 -6 -13 -15 -31 -19 -39 -4 -8 -23 -16 -44 -18 -21 -2 -36 -8 -36 -16 0
-7 -16 2 -36 21 -28 26 -34 37 -25 46 15 15 14 44 -1 49 -17 6 -48 -35 -48
-62 0 -12 4 -29 9 -38 4 -9 11 -36 14 -60 5 -41 4 -43 -24 -49 -32 -6 -35 -13
-17 -31 7 -7 10 -12 7 -12 -88 -10 -99 -9 -109 10 -9 16 -15 18 -38 9 -15 -5
-31 -16 -37 -23 -5 -7 -18 -15 -27 -19 -14 -5 -16 -11 -8 -32 5 -14 8 -50 5
-81 -3 -44 -1 -55 10 -51 7 3 21 -3 31 -14 9 -10 26 -19 37 -19 25 0 77 -37
77 -55 0 -12 5 -12 33 0 34 14 61 11 137 -16 73 -25 80 -29 80 -44 0 -8 7 -15
15 -15 8 0 15 -4 15 -9 0 -5 10 -9 23 -10 60 -2 95 -9 126 -25 19 -10 61 -19
95 -21 34 -1 73 -6 89 -10 23 -6 27 -4 27 15 0 17 4 20 20 15 15 -5 24 2 40
27 11 18 20 45 20 61 0 30 7 32 44 16 20 -10 29 -8 54 10 29 21 62 20 62 -2 0
-6 3 -7 6 -4 4 4 1 13 -6 22 -11 13 -9 15 14 15 14 0 26 5 26 10 0 6 9 30 20
53 15 33 29 46 58 57 20 8 46 13 57 11 26 -2 88 23 105 44 9 10 25 15 46 13
21 -1 40 4 53 16 18 16 25 17 48 7 19 -9 28 -9 33 -1 8 13 60 3 60 -12 0 -5 4
-7 9 -3 5 3 16 -4 24 -15 17 -24 78 -46 74 -27 -1 7 7 12 18 13 53 1 94 16
100 34 4 11 13 20 21 20 8 0 26 7 39 16 14 9 34 14 44 11 12 -3 27 3 37 14 9
10 23 19 31 19 7 0 13 5 13 11 0 6 6 9 14 6 19 -7 46 24 46 53 0 18 3 20 14
11 11 -9 15 -9 18 0 3 9 12 9 34 -3 16 -9 40 -20 54 -25 14 -6 42 -18 63 -27
44 -19 69 -20 83 -6 8 8 15 6 24 -5 7 -8 10 -15 6 -15 -4 0 1 -11 10 -25 9
-14 14 -28 11 -32 -8 -7 12 -27 36 -36 11 -4 17 -2 17 9 0 17 39 34 82 34 21
0 31 6 35 20 3 11 12 20 19 20 17 0 18 12 3 27 -9 9 -6 21 11 48 13 21 23 52
22 69 -1 38 37 70 74 63 16 -3 25 1 29 12 3 9 23 24 44 34 38 17 39 19 34 58
l-6 41 42 -3 c32 -3 45 1 52 13 7 13 18 16 38 12 23 -5 35 1 64 29 34 35 35
35 53 16 9 -10 25 -19 35 -19 24 0 69 21 69 32 0 4 15 8 34 8 28 0 35 4 40 25
5 20 13 25 36 25 17 0 38 5 49 11 12 8 23 9 35 2 23 -13 69 26 60 51 -5 12 0
16 18 16 14 0 28 -3 31 -6 4 -4 22 -7 42 -8 37 -1 49 12 38 42 -6 15 -5 15 10
3 10 -8 16 -23 15 -34 -2 -14 7 -25 26 -37 31 -17 46 -40 26 -40 -7 0 -10 -7
-6 -15 3 -9 -1 -18 -9 -21 -11 -5 -7 -12 15 -31 17 -14 30 -32 30 -40 0 -9 10
-32 22 -52 13 -20 30 -57 40 -83 15 -43 15 -49 1 -57 -14 -7 -15 -16 -4 -69
10 -54 10 -65 -5 -87 -9 -14 -15 -27 -13 -30 4 -4 69 -14 124 -20 17 -1 35 -4
40 -5 6 -1 13 -2 17 -1 4 0 15 -10 26 -24 15 -19 22 -21 32 -12 10 10 12 7 8
-15 -3 -15 -2 -25 2 -23 5 3 10 -1 13 -9 3 -8 16 -16 29 -18 15 -2 24 -11 26
-25 2 -13 9 -23 17 -23 9 0 11 -7 7 -22 -3 -14 -1 -19 6 -14 8 4 8 -3 2 -25
-5 -18 -7 -35 -5 -40 10 -16 -8 -38 -37 -44 -16 -4 -32 -13 -35 -21 -3 -8 -11
-14 -19 -14 -8 0 -11 -6 -7 -15 6 -18 -25 -45 -44 -38 -10 4 -11 -3 -7 -26 4
-19 2 -37 -6 -46 -20 -24 4 -17 28 8 17 18 19 26 10 35 -17 17 -3 26 38 25 26
-1 34 3 30 12 -7 20 12 31 72 42 42 8 52 8 52 -3 0 -8 7 -14 16 -14 8 0 13 4
9 9 -9 16 37 42 52 29 10 -8 23 -4 53 16 43 29 65 33 57 13 -3 -8 7 -21 24
-31 20 -12 28 -13 25 -4 -3 7 -7 26 -10 41 -6 26 -5 27 14 17 16 -9 20 -8 20
5 0 9 9 19 21 23 21 8 21 9 -5 25 -24 16 -30 17 -73 2 -43 -15 -48 -15 -59 -1
-6 9 -13 13 -16 11 -8 -8 -35 27 -45 59 -12 37 -32 45 -40 16 -3 -13 -11 -19
-19 -16 -8 3 -14 1 -14 -4 0 -6 -9 -10 -20 -10 -13 0 -20 -7 -20 -20 0 -11 -4
-20 -10 -20 -10 0 -12 6 -14 33 0 6 -10 26 -23 44 -15 20 -19 33 -11 35 19 7
-4 34 -62 73 -91 62 -121 95 -85 95 9 0 19 8 22 18 4 9 15 23 25 31 18 12 18
14 2 32 -9 11 -15 22 -12 24 9 10 138 15 138 6 0 -12 56 -71 67 -71 16 0 43
-39 32 -46 -7 -4 -3 -15 10 -28 12 -12 18 -25 14 -29 -3 -4 2 -16 13 -28 10
-12 18 -23 17 -25 -9 -13 0 -24 20 -24 12 -1 39 -7 59 -14 34 -12 38 -12 43 5
4 10 12 16 20 13 9 -4 19 4 26 20 7 14 16 26 22 26 5 0 6 7 3 16 -5 14 -2 15
21 9 16 -4 38 -7 50 -7 12 1 27 -6 32 -16 7 -11 13 -13 18 -6 5 7 16 8 28 3
11 -4 16 -8 10 -8 -5 -1 -3 -5 5 -11 9 -5 19 -5 27 2 7 6 26 8 43 6 23 -3 31
0 36 15 5 15 12 18 34 13 19 -3 33 0 41 11 16 18 15 17 17 101 2 46 6 62 16
62 8 0 16 5 18 11 3 8 10 8 26 -2 27 -17 28 -29 2 -62 -11 -14 -20 -32 -20
-41 0 -19 26 -21 33 -3 3 9 24 14 56 15 l51 1 2 -47 c3 -89 5 -97 16 -126 10
-23 15 -26 26 -17 15 13 49 0 71 -26 12 -15 61 -11 77 5 15 15 38 16 38 2 0
-5 10 -10 23 -10 13 0 28 -5 35 -12 9 -9 12 -9 12 0 0 7 8 12 18 10 13 -2 16
3 14 27 -2 28 0 31 25 29 42 -2 47 5 21 35 -13 14 -19 23 -14 19 5 -4 17 9 28
28 l19 36 -22 24 c-12 13 -23 35 -24 50 -1 21 3 24 21 20 14 -4 39 4 66 19 23
14 49 25 57 25 8 0 31 8 53 17 l38 17 -26 17 -26 17 23 16 c20 14 21 18 9 40
-11 21 -11 29 2 48 8 13 18 35 22 51 3 15 11 27 16 27 15 0 40 56 40 90 0 16
-4 30 -10 30 -5 0 -10 -5 -10 -11 0 -5 -5 -7 -11 -4 -6 4 -8 9 -5 13 3 3 -7
11 -22 19 -24 13 -28 12 -43 -6 -9 -11 -25 -19 -36 -19 -16 2 -19 9 -18 42 1
25 6 40 13 39 7 -2 12 8 12 22 0 21 5 25 29 25 16 0 34 6 41 14 6 8 17 13 25
10 18 -7 30 15 16 29 -9 9 -11 8 -6 -5 4 -11 2 -18 -4 -18 -7 0 -11 23 -11 60
0 50 -3 60 -17 60 -10 0 -33 14 -50 30 -18 17 -41 30 -50 28 -14 -2 -17 3 -15
20 2 16 -2 22 -17 22 -11 0 -25 9 -31 20 -11 21 -4 25 20 10 8 -5 19 -5 25 0
5 4 21 10 35 12 17 2 26 10 28 25 4 29 51 47 101 38 50 -8 125 29 117 58 -4
15 -2 16 11 6 12 -10 16 -10 23 2 8 12 13 12 31 1 28 -18 32 -11 14 24 -13 25
-13 29 0 37 8 4 19 6 24 3 15 -10 115 25 129 45 7 10 20 26 29 35 17 17 22 91
8 114 -9 14 9 12 24 -2 10 -10 15 -10 18 -1 3 8 11 7 31 -3 35 -18 51 -18 58
1 4 10 13 13 25 10 30 -10 24 28 -12 77 -20 28 -28 50 -25 64 7 27 -2 36 -25
24 -25 -14 -71 8 -67 31 2 10 -1 19 -7 19 -5 1 -18 9 -27 17 -22 20 -24 47 -3
39 10 -3 15 1 15 14 0 10 5 22 10 25 15 9 12 68 -5 92 -13 18 -13 22 0 33 8 7
15 19 15 26 0 8 5 14 10 14 6 0 10 15 10 34 0 19 5 36 11 38 18 6 29 77 13 92
-12 12 -7 15 29 21 29 5 52 18 75 41 18 19 37 32 41 30 4 -3 16 5 26 16 16 20
16 22 1 33 -34 25 -19 38 39 33 66 -6 85 8 67 47 -14 30 -42 33 -49 5 -3 -12
-10 -17 -17 -13 -6 4 -23 6 -37 5 -19 -2 -32 5 -52 32 -31 40 -33 46 -12 46
28 0 16 30 -15 36 -25 5 -30 12 -35 43 -3 20 -9 48 -14 64 -7 21 -6 27 5 27
20 0 17 13 -7 28 -14 9 -19 20 -16 34 5 18 2 19 -41 14 -121 -16 -120 -16
-125 5 -3 10 -12 19 -21 19 -9 0 -16 5 -16 11 0 8 -5 7 -16 -2 -9 -7 -31 -12
-50 -11 -19 2 -34 -2 -34 -7 0 -5 -9 -13 -20 -16 -12 -4 -29 -16 -39 -27 -17
-17 -24 -18 -57 -9 -22 6 -53 11 -71 11 -63 0 -77 16 -43 50 19 19 23 19 54 6
19 -8 38 -11 42 -6 20 17 123 68 128 63 3 -4 16 -1 29 5 40 19 77 21 77 3 0
-10 3 -12 8 -5 4 7 15 8 30 3 23 -9 29 -24 12 -34 -15 -9 -12 -25 5 -25 8 0
15 5 15 11 0 7 10 9 25 7 17 -4 25 -1 25 9 0 8 9 27 20 43 23 33 18 40 -30 40
-21 0 -45 8 -56 18 -10 9 -31 22 -45 29 -25 11 -26 13 -17 60 5 26 9 63 9 81
-1 27 2 32 23 32 14 0 28 5 31 11 4 5 17 14 30 19 17 7 21 14 18 34 -3 15 0
33 7 41 10 12 8 20 -10 42 -20 26 -20 29 -4 38 9 5 34 27 55 48 36 36 40 37
55 22 9 -9 19 -14 22 -11 3 3 -7 18 -21 32 -15 15 -27 35 -27 45 0 11 -7 19
-17 19 -27 0 -88 77 -74 93 7 10 5 17 -9 27 -15 11 -20 26 -20 65 0 28 -7 58
-15 69 -8 11 -15 31 -15 45 l0 25 -16 -22 c-8 -12 -20 -19 -26 -16 -7 4 -8 2
-4 -4 4 -7 2 -12 -3 -12 -6 0 -11 -9 -11 -19 0 -11 -5 -23 -10 -26 -7 -5 -9
14 -4 58 4 41 2 78 -5 98 -8 25 -8 34 0 40 7 4 9 17 6 28 -5 19 -2 21 16 15
12 -3 33 -13 47 -22 14 -9 28 -17 32 -17 9 0 48 -42 48 -52 0 -14 43 -37 75
-41 16 -2 35 -8 41 -13 15 -12 42 -1 55 22 8 15 14 17 29 9 26 -14 33 -13 26
5 -3 8 -4 15 -3 15 1 0 20 -6 41 -14 25 -9 50 -11 67 -6 15 5 30 6 33 3 8 -8
36 24 36 42 0 9 4 13 10 10 5 -3 33 -8 62 -10 66 -4 152 -28 141 -38 -4 -5 1
-5 11 -1 11 4 14 9 6 14 -6 3 -8 14 -4 23 3 10 3 29 0 43 -6 21 -9 24 -21 14
-19 -16 -40 0 -49 35 -4 14 -14 25 -22 25 -16 0 -84 66 -84 82 0 17 -39 46
-71 53 -19 4 -43 15 -54 25 -11 9 -38 29 -59 43 -35 23 -41 24 -51 10 -17 -23
-56 -22 -82 1 -13 11 -23 24 -23 29 0 21 -43 54 -66 49 -13 -2 -24 -9 -24 -14
0 -10 49 -30 64 -26 16 5 24 -38 15 -86 -5 -27 -6 -52 -3 -57 3 -5 -2 -9 -11
-9 -9 0 -28 -9 -42 -20 -14 -11 -36 -20 -48 -20 -12 0 -30 9 -40 20 -23 25
-38 26 -31 2 4 -12 -3 -27 -19 -42 -17 -16 -23 -30 -19 -46 5 -18 1 -23 -18
-26 -12 -2 -34 2 -49 9 -26 13 -64 77 -54 93 9 14 -37 51 -56 45 -19 -6 -71
16 -101 42 -9 8 -21 13 -26 10 -11 -8 -82 17 -91 31 -3 6 -19 16 -34 21 -18 7
-26 7 -22 1 11 -17 -7 -11 -21 8 -18 23 -17 33 1 26 8 -4 15 -2 15 4 0 16 -28
22 -34 7 -4 -13 -27 -14 -71 -5 -25 6 -45 -1 -45 -15 0 -19 -29 -20 -36 -1 -3
8 -12 12 -19 10 -26 -10 -102 54 -144 121 -23 36 -53 71 -66 77 -18 8 -22 15
-16 26 6 11 1 28 -15 54 -14 21 -26 51 -28 67 -5 43 -37 91 -61 91 -12 0 -32
11 -45 25 -16 17 -33 25 -50 23 -16 -2 -31 5 -43 20 -10 12 -27 22 -38 22 -18
0 -18 -2 5 -27 25 -26 25 -26 5 -51 -10 -14 -19 -33 -19 -42 0 -23 -28 -34
-46 -19 -11 9 -14 8 -14 -5 0 -14 -4 -15 -21 -6 -22 12 -29 9 -81 -39 -21 -18
-25 -28 -17 -37 8 -10 6 -20 -9 -39 -21 -26 -21 -26 -32 -5 -6 11 -15 18 -21
15 -5 -4 -9 7 -9 23 0 25 -6 31 -42 43 -32 10 -42 11 -46 1 -11 -34 -59 11
-53 51 1 10 -4 17 -15 17 -11 0 -15 6 -11 20 3 11 2 20 -3 20 -4 0 -10 13 -13
30 -10 46 -65 99 -116 111 -24 5 -52 7 -62 4 -24 -8 -37 20 -21 46 17 27 15
64 -5 80 -13 11 -17 11 -20 2 -7 -20 -20 -16 -76 26 -29 21 -61 41 -72 44 -11
4 -44 22 -72 41 -31 20 -53 30 -56 23 -2 -7 -17 -3 -42 11 -32 19 -43 21 -68
12 -16 -5 -45 -10 -63 -10 -29 0 -34 4 -34 23 0 28 -17 47 -42 47 -12 0 -18 7
-18 21 0 22 8 22 54 3 16 -6 18 -4 13 9 -4 10 -2 17 4 17 7 0 9 13 4 38 -7 39
-30 83 -43 80 -22 -5 -64 18 -79 43 -9 16 -30 33 -45 38 -15 6 -33 21 -39 34
-6 13 -24 31 -40 41 -23 14 -29 24 -29 52 0 39 -18 51 -50 34 -18 -9 -25 -8
-40 5 -10 9 -30 18 -44 19 -25 3 -25 2 -11 -14 20 -22 19 -47 -2 -69 -36 -37
-55 -34 -104 17 -44 45 -48 47 -98 46 -38 0 -54 4 -61 15 -7 13 -10 11 -19
-11 -13 -33 -40 -48 -78 -44 -41 6 -57 -6 -48 -34 6 -20 4 -22 -13 -18 -17 5
-21 1 -21 -21 0 -93 -3 -110 -16 -121 -8 -7 -15 -18 -15 -25 0 -16 57 -65 75
-65 8 0 19 -9 25 -21 7 -11 17 -18 24 -16 17 7 56 -45 56 -74 0 -12 -7 -30
-15 -39 -8 -9 -16 -27 -17 -40 -2 -13 -11 -34 -22 -47 -15 -18 -22 -20 -38
-10 -14 9 -20 9 -26 0 -14 -22 -51 -10 -62 20 -5 16 -19 31 -30 34 -11 3 -20
13 -20 23 0 12 -8 16 -30 15 -21 -1 -31 4 -36 17 -3 11 -17 23 -30 28 -19 8
-24 17 -24 45 0 21 5 35 13 35 6 0 -2 9 -19 19 -18 11 -49 45 -69 75 -20 31
-41 56 -46 56 -16 0 -41 71 -35 95 6 23 -18 54 -31 41 -4 -3 -18 4 -32 17 -14
13 -47 32 -74 41 l-47 18 -39 -31 c-22 -18 -42 -27 -46 -22 -3 6 -13 7 -21 4
-9 -3 -29 4 -45 16 -18 13 -47 23 -75 25 -31 1 -49 8 -56 19 -5 9 -22 24 -38
32 -16 8 -31 24 -35 35 -3 11 -17 23 -31 26 -13 3 -24 9 -24 13 0 3 -14 6 -30
7 -22 1 -30 -3 -30 -16z m1160 -192 c35 -25 38 -38 11 -38 -23 0 -51 25 -51
46 0 19 6 18 40 -8z m-315 -378 c3 -5 2 -10 -4 -10 -5 0 -13 5 -16 10 -3 6 -2
10 4 10 5 0 13 -4 16 -10z m2901 -1010 c7 0 15 -7 18 -16 9 -24 7 -54 -4 -54
-5 0 -10 9 -10 19 0 10 -7 21 -15 24 -11 5 -12 1 -5 -19 13 -34 12 -44 -2 -41
-15 2 -18 -57 -5 -85 5 -13 3 -18 -7 -18 -9 0 -13 6 -10 13 3 8 -2 20 -11 27
-11 9 -12 16 -5 25 7 9 6 16 -5 25 -8 7 -15 18 -15 25 0 16 -25 26 -45 19 -19
-8 -81 38 -88 65 -3 15 -1 18 11 14 10 -5 13 -2 8 6 -5 8 -3 11 5 10 8 -1 21
1 29 4 8 4 35 8 60 9 39 3 48 -1 65 -24 11 -15 25 -28 31 -28z m-4795 -303
c-1 -12 -15 -9 -19 4 -3 6 1 10 8 8 6 -3 11 -8 11 -12z m-1196 -65 c-8 -8 -25
10 -19 20 4 6 9 5 15 -3 4 -7 6 -15 4 -17z m6391 -97 c22 21 29 19 60 -17 22
-28 24 -34 10 -36 -9 -2 -16 -9 -16 -16 0 -7 -11 -23 -24 -35 -20 -19 -33 -22
-69 -20 -25 2 -43 1 -40 -3 2 -5 -19 -8 -46 -8 -34 0 -51 4 -51 13 1 20 33 51
73 70 25 11 37 23 35 34 -2 10 2 18 9 18 6 0 15 4 19 8 4 4 12 1 17 -8 7 -14
10 -14 23 0z m-176 -86 c-12 -22 -37 -35 -47 -25 -4 4 2 9 14 12 13 4 20 11
16 20 -3 8 1 14 11 14 14 0 15 -4 6 -21z m-5905 -149 c3 -5 1 -10 -4 -10 -6 0
-11 5 -11 10 0 6 2 10 4 10 3 0 8 -4 11 -10z m5697 -649 c19 -22 14 -31 -19
-31 -16 0 -23 6 -23 18 0 36 18 41 42 13z m-152 -172 c13 -6 12 -9 -4 -15 -20
-8 -47 5 -54 25 -4 13 25 8 58 -10z m-606 -14 c3 -8 1 -15 -4 -15 -6 0 -10 7
-10 15 0 8 2 15 4 15 2 0 6 -7 10 -15z m459 -16 c3 -13 1 -19 -6 -16 -15 5
-22 37 -9 37 5 0 12 -9 15 -21z m-443 -29 c0 -5 -5 -10 -11 -10 -5 0 -7 5 -4
10 3 6 8 10 11 10 2 0 4 -4 4 -10z m450 -20 c0 -5 -2 -10 -4 -10 -3 0 -8 5
-11 10 -3 6 -1 10 4 10 6 0 11 -4 11 -10z m84 -49 c11 -13 15 -27 11 -40 -6
-20 -7 -20 -23 -3 -10 9 -26 27 -36 40 -19 22 -19 22 6 22 14 0 33 -9 42 -19z
m445 -59 c12 -22 11 -23 -21 -20 -25 2 -35 9 -42 30 -7 19 -6 31 3 42 12 14
15 13 31 -7 9 -12 23 -32 29 -45z m429 39 c10 -6 10 -10 -2 -20 -17 -14 -36
-7 -36 15 0 15 18 18 38 5z m-69 -50 c6 -10 7 -21 4 -25 -9 -8 -33 14 -33 30
0 20 18 17 29 -5z m27 -85 c18 -19 18 -30 -2 -47 -14 -11 -20 -10 -40 14 -13
16 -24 32 -24 38 0 14 50 11 66 -5z m-201 -6 c3 -5 1 -10 -4 -10 -6 0 -11 5
-11 10 0 6 2 10 4 10 3 0 8 -4 11 -10z m11 -295 c-8 -8 -18 -15 -22 -15 -3 0
-1 7 6 15 7 8 17 15 22 15 5 0 3 -7 -6 -15z m-20 -56 c3 -6 1 -15 -6 -19 -9
-5 -9 -9 -1 -14 17 -11 13 -26 -4 -19 -9 3 -15 13 -13 22 1 9 -1 22 -5 29 -5
7 -3 12 7 12 8 0 18 -5 22 -11z m-6468 -641 c15 -15 16 -32 2 -23 -20 12 -9
-12 15 -35 43 -40 26 -71 -28 -51 -27 10 -30 23 -21 89 5 34 13 39 32 20z
m122 -128 c0 -4 -9 -6 -21 -3 -15 4 -17 8 -8 14 14 8 29 3 29 -11z m5530 -656
c0 -8 -4 -14 -10 -14 -5 0 -10 9 -10 21 0 11 5 17 10 14 6 -3 10 -13 10 -21z
m-3350 -394 c6 -11 7 -20 3 -20 -5 0 -14 9 -21 20 -7 11 -8 20 -2 20 5 0 14
-9 20 -20z m2300 0 c0 -5 -5 -10 -11 -10 -5 0 -7 5 -4 10 3 6 8 10 11 10 2 0
4 -4 4 -10z m290 -164 c0 -2 -7 -6 -15 -10 -8 -3 -15 -1 -15 4 0 6 7 10 15 10
8 0 15 -2 15 -4z"/>
<path d="M9994 12979 c-9 -15 -2 -18 20 -9 17 6 18 7 3 13 -9 3 -19 2 -23 -4z"/>
<path d="M12560 11705 c12 -15 30 -12 30 6 0 5 -10 9 -21 9 -18 0 -19 -2 -9
-15z"/>
<path d="M12586 11655 c4 -8 10 -15 15 -15 4 0 6 7 3 15 -4 8 -10 15 -15 15
-4 0 -6 -7 -3 -15z"/>
<path d="M14286 11507 c3 -10 9 -15 12 -12 3 3 0 11 -7 18 -10 9 -11 8 -5 -6z"/>
<path d="M14145 11500 c-5 -8 -23 -11 -50 -8 -38 5 -42 3 -38 -13 3 -11 0 -26
-7 -34 -7 -8 -9 -15 -6 -15 17 0 -24 -30 -48 -36 -17 -4 -25 -11 -22 -20 3 -7
1 -16 -5 -19 -5 -4 -6 -11 -3 -17 4 -7 2 -8 -4 -4 -7 4 -12 3 -12 -2 0 -14
-71 -55 -95 -56 -14 -1 -21 -9 -22 -26 -1 -14 0 -19 3 -12 3 6 9 10 14 7 4 -3
30 2 56 10 27 8 63 15 81 15 30 0 57 17 65 40 2 8 16 8 45 2 23 -5 42 -7 41
-3 -3 31 4 41 31 41 16 0 34 7 41 15 7 8 19 15 26 15 8 0 14 9 14 19 0 11 5
23 10 26 20 12 10 25 -15 19 -20 -5 -25 -2 -31 20 -3 15 -13 26 -23 26 -9 0
-22 5 -28 11 -8 8 -13 7 -18 -1z"/>
<path d="M6770 10475 c0 -10 9 -15 27 -15 29 0 29 2 -4 19 -19 10 -23 9 -23
-4z"/>
<path d="M6760 10435 c0 -14 -6 -16 -29 -12 -29 6 -29 5 -22 -32 1 -2 8 2 16
9 8 6 18 9 24 6 11 -7 26 32 17 41 -3 4 -6 -2 -6 -12z"/>
<path d="M13245 10210 c3 -5 11 -10 16 -10 6 0 7 5 4 10 -3 6 -11 10 -16 10
-6 0 -7 -4 -4 -10z"/>
<path d="M13281 10164 c0 -11 3 -14 6 -6 3 7 2 16 -1 19 -3 4 -6 -2 -5 -13z"/>
<path d="M6310 9190 c15 -28 6 -52 -17 -43 -16 6 -17 5 -3 -12 8 -10 10 -16 4
-12 -7 4 -14 -2 -17 -13 -8 -30 11 -35 33 -8 23 27 24 99 2 106 -11 3 -12 0
-2 -18z"/>
<path d="M6440 8505 c0 -8 5 -15 10 -15 6 0 10 7 10 15 0 8 -4 15 -10 15 -5 0
-10 -7 -10 -15z"/>
<path d="M6890 8145 c0 -9 -6 -12 -15 -9 -16 6 -21 -11 -6 -20 4 -3 6 -17 3
-31 -4 -23 -8 -25 -34 -20 -20 5 -37 1 -56 -11 -15 -10 -36 -18 -47 -19 -15 0
-20 -7 -20 -26 0 -14 -6 -32 -14 -40 -13 -11 -14 -11 -8 4 4 11 2 17 -6 16
-28 -3 -38 2 -47 26 -5 14 -14 25 -20 25 -7 0 -8 -6 0 -19 5 -11 10 -29 10
-41 0 -12 9 -35 20 -50 13 -18 16 -31 10 -35 -7 -4 -7 -12 0 -25 5 -10 10 -30
10 -44 0 -14 5 -26 11 -26 6 0 9 -10 7 -22 -2 -14 -10 -23 -20 -23 -10 0 -30
-12 -45 -26 -35 -33 -130 -49 -139 -24 -6 14 -8 13 -20 -2 -7 -10 -14 -28 -14
-39 0 -26 -16 -34 -53 -27 -20 4 -27 1 -27 -11 0 -9 -6 -16 -14 -16 -16 0 -16
-31 -1 -42 17 -13 25 -9 18 8 -5 15 -3 15 20 -1 24 -15 26 -22 21 -59 -3 -22
-7 -46 -9 -52 -2 -6 10 -22 27 -34 22 -16 27 -25 18 -30 -7 -4 -9 -13 -6 -19
4 -6 11 -9 16 -6 5 3 14 -1 22 -8 19 -19 78 -47 98 -47 23 0 42 -23 35 -42 -4
-9 1 -18 10 -21 8 -4 20 -18 25 -32 6 -15 17 -25 29 -25 27 0 101 -39 101 -54
1 -6 10 0 21 13 l20 24 6 -21 c6 -26 7 -26 38 -6 19 12 23 22 19 39 -5 22 -4
23 35 18 33 -5 41 -3 41 11 0 10 8 16 23 16 13 0 28 5 34 11 8 8 17 8 32 0 20
-11 21 -9 21 25 0 27 -5 37 -19 41 -21 5 -39 40 -33 65 2 12 17 19 50 24 57 7
74 19 91 62 10 23 20 32 36 32 28 0 37 30 26 80 -6 27 -10 31 -15 18 -8 -18
-26 -12 -71 23 -11 8 -40 21 -63 28 -31 9 -49 21 -60 42 -10 16 -22 27 -28 25
-6 -3 -17 1 -23 7 -9 9 -14 9 -20 -1 -6 -9 -15 -10 -39 -1 -34 12 -41 34 -21
71 8 14 8 23 0 31 -7 7 -1 20 20 44 16 19 27 38 24 43 -3 4 0 10 6 12 9 3 8
10 -1 28 -8 16 -9 25 -3 27 18 6 -10 53 -31 53 -19 0 -18 1 2 23 12 13 22 27
22 32 0 4 8 14 17 20 17 12 17 14 -1 34 -22 24 -46 28 -46 6z"/>
<path d="M11310 7636 c0 -10 -6 -13 -15 -10 -9 4 -15 0 -15 -9 0 -16 -52 -33
-69 -23 -11 7 11 -57 27 -76 6 -8 9 -18 5 -22 -4 -4 0 -4 9 -1 8 3 23 -1 32
-10 16 -17 20 -13 17 18 -2 9 7 21 19 25 21 8 21 8 -6 35 l-27 27 27 0 c24 0
27 4 24 27 -3 28 -28 45 -28 19z"/>
<path d="M12686 7626 c-14 -14 -35 -27 -46 -31 -22 -7 -29 -50 -9 -57 14 -5
20 -68 7 -68 -5 0 -8 -6 -6 -12 3 -7 13 -13 24 -13 13 0 19 -7 20 -25 2 -46 4
-50 25 -50 11 0 18 4 15 9 -3 5 1 11 8 14 11 5 13 18 9 54 -2 26 -9 55 -13 63
-10 19 -2 34 23 43 11 4 15 12 11 18 -4 7 1 18 11 25 17 12 15 28 -3 29 -4 1
-17 6 -28 13 -18 10 -26 8 -48 -12z"/>
<path d="M12105 7620 c-3 -5 -1 -10 4 -10 6 0 11 5 11 10 0 6 -2 10 -4 10 -3
0 -8 -4 -11 -10z"/>
<path d="M12550 7610 c0 -5 5 -10 10 -10 6 0 10 5 10 10 0 6 -4 10 -10 10 -5
0 -10 -4 -10 -10z"/>
<path d="M11735 7550 c-3 -5 -1 -10 4 -10 6 0 11 5 11 10 0 6 -2 10 -4 10 -3
0 -8 -4 -11 -10z"/>
<path d="M11310 7511 c0 -5 5 -13 10 -16 6 -3 10 -2 10 4 0 5 -4 13 -10 16 -5
3 -10 2 -10 -4z"/>
<path d="M11256 7466 c3 -9 11 -16 16 -16 13 0 5 23 -10 28 -7 2 -10 -2 -6
-12z"/>
<path d="M11445 7460 c3 -5 8 -10 11 -10 2 0 4 5 4 10 0 6 -5 10 -11 10 -5 0
-7 -4 -4 -10z"/>
<path d="M11638 7432 c-16 -2 -28 -8 -28 -14 0 -6 11 -7 27 -3 47 11 47 23 1
17z"/>
<path d="M11456 7414 c-3 -9 -6 -17 -6 -18 0 -3 48 0 59 3 2 1 -2 8 -9 16 -16
20 -36 19 -44 -1z"/>
<path d="M11580 7411 c0 -5 5 -13 10 -16 6 -3 10 -2 10 4 0 5 -4 13 -10 16 -5
3 -10 2 -10 -4z"/>
<path d="M11558 7230 c12 -12 22 -25 22 -31 0 -6 5 -7 11 -4 12 8 -27 55 -45
55 -5 0 0 -9 12 -20z"/>
<path d="M6910 7180 c0 -5 5 -10 11 -10 5 0 7 5 4 10 -3 6 -8 10 -11 10 -2 0
-4 -4 -4 -10z"/>
<path d="M11618 7105 c6 -32 37 -52 46 -29 8 21 8 20 -10 38 -24 25 -42 20
-36 -9z"/>
</g>
</svg>
