<?xml version="1.0" standalone="no"?>
<!DOCTYPE svg PUBLIC "-//W3C//DTD SVG 20010904//EN"
 "http://www.w3.org/TR/2001/REC-SVG-20010904/DTD/svg10.dtd">
<svg version="1.0" xmlns="http://www.w3.org/2000/svg"
 width="860.895123pt" height="1046.344137pt" viewBox="0 0 860.895123 1046.344137"
 preserveAspectRatio="xMidYMid meet">
<metadata>
Created by potrace 1.15, written by Peter Selinger 2001-2017
</metadata>
<g transform="translate(-603.759034,1541.897302) scale(0.100000,-0.100000)"
fill="#222222" stroke="none">
<path d="M7363 15409 c-18 -5 -33 -14 -33 -19 0 -5 -7 -16 -16 -24 -24 -24 -8
-36 51 -36 53 0 53 0 49 -28 -3 -15 1 -36 9 -45 12 -17 13 -17 15 5 2 31 -17
89 -37 111 -15 17 -14 20 4 33 22 16 8 17 -42 3z"/>
<path d="M7228 15326 c4 -13 1 -17 -9 -13 -45 18 -90 29 -96 24 -3 -4 -1 -17
5 -30 16 -33 21 -77 8 -78 -24 -3 -41 3 -52 19 -7 9 -18 13 -28 9 -16 -6 -16
-9 2 -34 10 -16 22 -40 26 -55 3 -16 13 -28 20 -28 20 0 29 30 11 36 -8 4 -12
10 -9 15 8 13 47 11 69 -4 38 -26 53 -27 47 -5 -3 14 -1 19 6 14 8 -5 12 0 12
12 0 11 8 22 19 25 12 3 20 17 24 38 3 19 7 43 9 54 2 17 -3 20 -33 20 -30 0
-35 -3 -31 -19z"/>
<path d="M7455 15311 c-3 -11 -1 -30 5 -41 14 -26 6 -50 -15 -50 -8 0 -15 -4
-15 -10 0 -5 6 -10 14 -10 15 0 26 -21 26 -51 0 -10 6 -19 14 -19 7 0 19 -7
26 -15 7 -9 21 -13 31 -10 14 5 19 1 19 -14 0 -12 6 -21 13 -22 28 -3 62 4 65
12 2 5 18 9 35 10 32 0 32 0 7 10 -14 6 -35 8 -47 6 -18 -3 -25 2 -35 29 -7
19 -19 34 -28 34 -22 0 -67 60 -79 108 -13 48 -27 60 -36 33z"/>
<path d="M7774 15079 c-3 -6 -17 -9 -30 -6 -13 2 -24 3 -24 2 0 -18 68 -175
108 -250 20 -38 18 -69 -7 -94 -18 -18 -19 -61 -1 -61 4 0 19 -11 33 -24 l25
-24 -21 -56 c-12 -30 -27 -56 -32 -56 -6 0 -21 -7 -34 -16 -16 -12 -20 -19
-12 -27 16 -16 13 -37 -4 -31 -21 9 -19 -2 7 -28 20 -20 21 -22 3 -28 -13 -5
-15 -9 -7 -14 7 -4 16 -5 20 -2 5 3 15 -4 23 -15 8 -12 24 -35 36 -52 16 -21
19 -33 12 -38 -8 -4 -7 -8 2 -12 10 -4 8 -6 -4 -6 -10 -1 -15 -6 -12 -12 4 -6
-2 -13 -14 -16 -11 -3 -18 -9 -15 -14 3 -5 -2 -9 -11 -9 -8 0 -20 -11 -25 -25
-5 -14 -14 -25 -20 -25 -5 0 -10 -8 -10 -19 0 -10 -9 -30 -21 -45 -11 -14 -16
-26 -11 -26 11 0 8 -172 -3 -189 -3 -6 -1 -12 5 -16 5 -3 9 -23 7 -43 -1 -20
2 -47 6 -59 6 -18 5 -23 -7 -23 -10 0 -16 -9 -16 -25 0 -14 -8 -29 -20 -35
-11 -6 -20 -21 -20 -35 0 -22 -5 -24 -65 -30 -56 -6 -65 -10 -60 -25 7 -22
-17 -32 -48 -22 -52 19 -117 2 -117 -30 0 -13 -5 -18 -14 -15 -8 3 -16 -2 -19
-12 -3 -11 -18 -21 -40 -25 -19 -4 -52 -18 -73 -32 -20 -14 -45 -23 -56 -21
-10 3 -22 -2 -27 -10 -5 -10 -11 -12 -15 -5 -4 6 -13 9 -21 6 -18 -7 -57 14
-49 27 3 6 -8 24 -26 40 -29 27 -31 32 -17 47 16 18 13 77 -5 88 -5 3 -17 -1
-27 -10 -10 -9 -24 -16 -32 -16 -12 0 -11 -2 1 -10 13 -9 13 -11 0 -20 -22
-14 -28 -12 -35 11 -4 11 -9 18 -12 15 -8 -8 -43 13 -43 26 0 14 -31 37 -51
38 -12 0 -16 9 -16 37 1 30 -3 39 -18 42 -11 2 -28 11 -37 21 -15 16 -15 20
-2 31 12 10 20 8 45 -10 17 -13 33 -20 36 -17 3 3 -1 8 -9 11 -13 5 -13 11 1
51 12 34 21 44 38 44 16 0 23 6 23 19 0 40 10 50 46 44 30 -5 35 -3 44 23 6
16 10 43 8 60 -1 17 3 38 9 45 6 8 14 29 18 47 6 27 3 38 -16 58 -16 17 -18
24 -8 24 11 1 10 4 -3 14 -10 7 -18 18 -18 24 0 6 -8 16 -17 21 -10 6 -13 11
-7 11 6 0 -6 18 -28 41 -21 22 -36 44 -33 49 6 10 -70 35 -97 32 -10 -1 -18 3
-18 8 0 15 -16 12 -33 -5 -18 -17 -31 -7 -16 11 9 11 7 15 -5 19 -9 3 -23 7
-32 10 -8 3 -12 10 -9 16 4 5 -1 20 -12 31 -16 19 -16 21 -1 15 10 -3 20 -1
24 5 5 7 15 1 30 -17 l22 -28 49 50 c34 35 54 65 63 97 12 44 12 48 -11 72
-13 14 -22 26 -20 27 13 6 -15 48 -35 53 -14 4 -23 9 -20 12 12 11 -18 32 -44
32 -30 0 -46 14 -51 45 -5 24 -69 41 -69 19 0 -8 -11 -20 -25 -26 -15 -7 -24
-17 -21 -25 6 -15 -10 -18 -19 -3 -3 6 -13 10 -21 10 -10 0 -14 -12 -14 -45 0
-25 -5 -45 -10 -45 -6 0 -15 -12 -20 -26 -9 -21 -15 -25 -35 -20 -36 9 -72 -3
-78 -25 -3 -10 -18 -24 -34 -30 -72 -29 -98 -48 -98 -72 -1 -13 -8 -35 -17
-49 -15 -22 -14 -26 2 -48 9 -14 20 -37 24 -52 3 -15 15 -30 26 -33 11 -4 18
-10 15 -15 -3 -5 -1 -11 5 -15 5 -3 10 -16 10 -28 -1 -22 -1 -22 -15 -3 -21
28 -42 7 -23 -23 7 -11 17 -21 22 -21 4 0 3 -7 -4 -15 -8 -10 -10 -27 -5 -52
5 -21 9 -47 10 -57 3 -27 -68 -98 -89 -90 -9 3 -16 1 -16 -5 0 -6 -8 -11 -18
-11 -29 0 -33 -11 -10 -30 21 -16 21 -19 5 -34 -9 -9 -19 -17 -22 -16 -32 2
-44 -2 -40 -12 3 -7 -8 -22 -24 -32 -28 -19 -32 -46 -6 -46 6 0 20 -9 30 -20
10 -11 29 -20 42 -20 13 0 23 -6 23 -15 0 -8 11 -25 25 -39 14 -14 25 -35 26
-48 0 -13 3 -17 6 -10 6 15 46 -6 75 -39 12 -14 24 -18 42 -13 14 3 26 11 26
18 0 6 9 -4 20 -21 11 -18 17 -39 14 -48 -6 -14 5 -20 34 -16 10 2 11 -3 3
-17 -7 -13 -6 -26 4 -46 8 -14 12 -33 9 -40 -5 -14 44 -30 79 -27 11 2 21 -5
23 -16 3 -10 31 -31 63 -46 55 -27 65 -38 99 -109 2 -5 -15 -8 -37 -8 -52 0
-61 -16 -64 -118 -3 -85 -10 -104 -35 -101 -33 3 -36 -1 -14 -17 19 -13 20
-18 10 -37 -16 -30 -61 -77 -73 -77 -6 0 -16 -15 -23 -33 -15 -43 -15 -47 3
-47 8 0 15 -4 15 -9 0 -6 15 -5 38 0 69 18 69 19 45 39 l-22 18 21 5 c12 4 41
3 65 0 32 -4 47 -13 60 -33 21 -31 76 -81 113 -101 14 -7 61 -14 105 -16 44
-2 87 -3 95 -4 8 0 31 3 50 8 28 7 36 14 38 37 3 27 4 27 22 11 17 -15 24 -16
49 -5 16 6 39 9 50 5 21 -6 29 9 11 20 -5 3 -10 17 -10 31 0 15 -6 24 -15 24
-23 0 -70 77 -57 93 6 7 11 38 11 69 0 87 10 97 49 46 20 -25 28 -44 22 -48
-17 -10 4 -54 35 -74 14 -9 30 -28 35 -42 5 -13 22 -29 37 -35 58 -24 73 -33
73 -46 0 -7 9 -22 20 -33 16 -16 20 -17 20 -5 0 8 4 15 9 15 8 0 21 -47 21
-79 0 -14 -2 -14 -10 -1 -8 12 -10 11 -10 -7 0 -14 -5 -21 -13 -17 -7 2 -22
-4 -32 -16 -10 -11 -23 -20 -29 -20 -7 0 -12 -22 -13 -58 -3 -87 -14 -106 -77
-135 -32 -15 -56 -32 -56 -41 0 -20 -64 -32 -93 -18 -42 20 -55 20 -77 5 -16
-11 -25 -12 -33 -4 -17 17 -22 14 -37 -23 -11 -29 -16 -33 -31 -26 -14 8 -16
6 -12 -10 4 -14 0 -20 -12 -20 -11 0 -15 -6 -11 -18 4 -12 -3 -23 -22 -34 -15
-9 -34 -27 -41 -41 -7 -13 -27 -29 -44 -35 -18 -7 -37 -23 -44 -38 -10 -21 -9
-32 9 -65 16 -31 18 -42 8 -54 -9 -11 -17 -12 -31 -4 -11 5 -23 8 -28 5 -5 -3
-14 1 -21 9 -7 8 -19 15 -27 15 -7 0 -23 9 -35 20 -20 18 -22 18 -34 2 -7 -9
-10 -20 -8 -24 3 -5 1 -8 -4 -8 -6 0 -13 -27 -17 -60 -5 -40 -11 -60 -20 -60
-22 0 -25 -15 -12 -49 10 -28 10 -34 -5 -45 -19 -14 -13 -66 8 -66 21 0 56
-40 50 -56 -3 -8 6 -40 20 -72 14 -31 28 -70 30 -87 6 -48 21 -105 32 -118 6
-7 9 -31 8 -55 -2 -30 3 -47 16 -59 10 -9 18 -19 18 -23 0 -12 126 -140 138
-140 6 0 16 -9 22 -20 7 -13 7 -20 1 -20 -6 0 -8 -6 -5 -13 2 -7 1 -47 -4 -88
-6 -44 -6 -81 0 -91 5 -11 5 -18 -1 -18 -5 0 -13 -9 -16 -20 -4 -11 -9 -19
-13 -17 -14 7 -49 -41 -41 -55 13 -19 11 -28 -6 -28 -17 0 -21 -55 -5 -65 6
-4 8 -11 4 -16 -3 -5 -1 -16 5 -22 16 -21 -12 -91 -40 -97 -15 -4 -26 -16 -31
-35 -6 -25 -13 -30 -39 -32 -18 -1 -40 -12 -51 -23 -10 -11 -26 -20 -35 -20
-15 0 -15 -1 -1 -12 28 -23 29 -47 3 -64 -14 -9 -25 -25 -25 -36 0 -10 -4 -16
-10 -13 -26 16 -6 -26 30 -63 36 -36 53 -82 32 -82 -5 0 -9 -6 -9 -12 0 -7 -4
-21 -8 -30 -4 -11 -3 -18 4 -18 6 0 8 -7 5 -15 -4 -8 1 -38 10 -65 9 -27 17
-61 18 -76 2 -15 13 -33 26 -42 23 -15 25 -14 38 2 11 16 17 17 43 6 16 -6 32
-18 35 -26 3 -8 10 -14 16 -14 7 0 24 -13 39 -28 28 -27 40 -46 92 -140 19
-36 32 -48 58 -53 40 -8 50 -17 31 -29 -8 -6 -11 -10 -6 -10 5 0 1 -9 -9 -20
-23 -26 -45 -88 -38 -106 3 -8 0 -28 -7 -44 -10 -25 -10 -32 5 -46 9 -9 14
-23 11 -31 -3 -8 -6 -17 -6 -20 0 -3 -11 2 -24 11 -23 15 -25 14 -33 -12 -12
-36 -6 -62 15 -62 15 0 15 -2 2 -10 -11 -7 -11 -10 -2 -10 28 0 61 33 73 76 7
24 19 44 26 44 7 0 13 7 13 16 0 13 8 15 43 12 47 -5 126 19 157 47 13 12 20
31 20 54 1 29 3 33 11 19 9 -16 35 -15 49 1 14 17 50 30 55 21 9 -14 25 -12
25 3 0 7 5 18 12 25 20 20 19 65 -3 95 l-21 28 49 -25 c58 -31 89 -33 103 -6
9 17 14 18 32 9 16 -8 22 -8 29 2 4 7 5 17 3 21 -7 11 4 10 28 -3 15 -8 22 -8
28 0 8 13 29 15 78 5 40 -8 65 10 59 43 -3 17 3 29 24 44 16 11 34 17 39 14
14 -9 97 32 104 50 3 8 14 15 24 15 21 0 59 36 44 41 -5 2 -12 24 -16 48 -6
37 -4 42 7 32 8 -6 27 -8 46 -5 30 6 31 9 25 40 -4 24 -1 42 11 60 14 21 14
28 3 42 -11 13 -11 15 4 9 9 -3 33 -9 53 -13 30 -5 39 -3 51 14 9 13 21 18 34
15 14 -4 20 0 20 11 0 10 6 13 15 10 8 -4 21 -2 28 4 8 7 18 6 31 -4 23 -16
64 -18 100 -4 19 7 26 17 26 37 0 43 23 11 24 -34 1 -30 5 -37 18 -35 9 1 19
-2 22 -7 6 -9 48 1 86 19 17 8 104 -13 125 -30 10 -8 11 -18 5 -36 -6 -14 -10
-35 -10 -47 -2 -68 -6 -87 -19 -87 -10 0 -11 -3 -2 -13 8 -10 6 -18 -7 -33 -9
-10 -17 -23 -17 -29 -1 -29 -17 -85 -25 -85 -18 0 -32 -43 -36 -109 -5 -83 9
-127 42 -135 22 -6 24 -10 18 -49 -4 -23 -11 -50 -15 -59 -5 -9 -9 -33 -9 -52
0 -20 -4 -36 -8 -36 -4 0 -6 -16 -4 -36 4 -29 1 -36 -17 -41 -24 -6 -26 -14
-9 -31 9 -9 9 -12 0 -12 -17 0 -10 -75 9 -97 23 -25 29 -70 13 -84 -8 -6 -14
-18 -14 -26 0 -9 -6 -12 -17 -9 -11 3 -30 -5 -46 -19 l-28 -25 23 -50 c13 -29
28 -48 35 -46 7 3 15 1 19 -5 3 -6 16 -14 29 -19 20 -8 22 -12 14 -57 -9 -56
-24 -99 -38 -107 -6 -4 4 -33 25 -74 21 -41 31 -68 24 -70 -7 -3 -6 -10 4 -21
8 -9 16 -39 19 -68 2 -29 10 -59 17 -68 8 -10 9 -15 2 -15 -21 0 -2 -26 31
-42 35 -18 99 -29 91 -16 -3 4 -1 8 4 8 15 0 35 -29 36 -53 1 -15 8 -23 24
-25 18 -3 23 -8 19 -24 -5 -16 -2 -19 13 -15 11 3 28 -4 41 -17 21 -18 21 -21
6 -24 -19 -4 -22 -33 -7 -61 5 -10 28 -26 50 -35 31 -12 40 -21 36 -34 -3 -9
-2 -23 3 -31 6 -8 5 -25 -1 -40 -20 -49 -25 -66 -37 -111 -7 -25 -12 -54 -12
-65 1 -11 2 -30 2 -43 1 -13 -9 -34 -21 -47 -20 -22 -20 -23 -3 -40 10 -10 23
-32 28 -49 6 -17 19 -35 31 -41 11 -5 29 -18 38 -28 10 -10 23 -16 30 -14 6 3
25 -6 41 -18 17 -12 41 -26 55 -30 28 -9 94 -8 123 1 13 4 17 2 12 -6 -4 -7
15 -33 49 -65 l56 -55 0 35 c0 26 3 33 15 29 9 -4 15 0 15 9 0 12 7 13 34 7
41 -9 56 -18 56 -33 0 -8 -3 -8 -11 0 -13 13 -59 -22 -59 -44 0 -7 -4 -13 -10
-13 -5 0 -7 -6 -4 -13 5 -15 -46 -43 -55 -30 -3 4 -14 9 -24 9 -25 2 -14 -26
25 -68 17 -18 37 -47 44 -65 8 -17 18 -34 23 -38 18 -11 39 -65 34 -87 -4 -22
-4 -22 8 -3 7 10 13 47 13 81 1 40 5 59 11 54 19 -16 45 16 45 54 0 33 2 37
20 31 13 -4 22 -1 26 9 4 9 18 16 35 16 17 0 34 8 43 21 16 23 38 23 128 1
l37 -10 12 48 c8 33 20 53 36 61 13 7 23 20 23 30 0 10 5 21 10 24 6 3 10 19
10 35 0 15 7 30 15 34 8 3 15 14 15 24 0 10 6 27 14 38 13 16 13 22 0 42 -14
21 -13 22 15 22 20 0 32 -6 36 -18 7 -23 52 -46 60 -31 4 5 16 7 27 3 13 -4
24 -1 29 7 6 11 11 11 21 1 18 -18 25 -15 32 12 5 22 74 76 96 76 6 0 15 11
20 25 11 29 22 31 40 10 14 -17 20 -105 6 -105 -4 0 -5 -8 -1 -17 4 -10 9 -24
12 -30 3 -7 -2 -13 -11 -13 -9 0 -16 -4 -16 -10 0 -5 -9 -10 -20 -10 -16 0
-20 -7 -20 -31 0 -17 9 -42 20 -56 25 -32 25 -46 1 -38 -15 5 -18 2 -14 -14 5
-22 -26 -60 -45 -53 -18 6 -14 -15 4 -22 13 -5 14 -9 4 -21 -7 -8 -10 -21 -7
-29 3 -7 -1 -23 -9 -35 -8 -12 -12 -26 -8 -32 5 -9 -1 -10 -22 -4 -16 4 -36 8
-44 8 -8 0 -28 11 -43 23 -36 30 -61 32 -54 3 5 -19 4 -19 -17 -6 -12 8 -34
13 -48 10 -23 -4 -25 -8 -18 -27 6 -17 4 -26 -10 -36 -14 -10 -16 -17 -7 -31
8 -13 8 -21 -1 -31 -6 -8 -8 -18 -4 -24 10 -14 62 -11 62 4 0 6 11 12 24 12
24 0 56 23 56 41 0 5 7 9 15 9 8 0 15 5 15 10 0 6 7 10 15 10 8 0 15 4 15 10
0 18 60 -2 90 -30 31 -29 71 -45 67 -27 -1 6 13 13 31 17 17 4 32 5 32 1 0 -4
14 -15 31 -25 24 -14 28 -20 18 -32 -10 -12 -8 -19 9 -34 12 -11 28 -20 36
-20 20 0 39 -37 33 -61 -3 -10 -1 -22 4 -25 6 -3 5 -11 -2 -20 -9 -10 -9 -17
0 -28 14 -16 4 -46 -15 -46 -21 0 -17 -14 11 -40 14 -13 25 -29 25 -35 0 -20
33 -42 74 -48 49 -8 62 -20 43 -39 -19 -18 -4 -48 23 -48 11 0 25 -9 32 -21
12 -18 67 -49 89 -49 5 0 9 7 9 15 0 12 4 13 19 5 29 -15 31 -13 31 22 0 17 3
28 6 25 10 -10 13 -68 4 -62 -11 7 -23 -32 -15 -45 3 -5 1 -10 -5 -10 -6 0
-10 -11 -8 -26 3 -24 28 -45 71 -58 13 -4 17 -17 17 -56 0 -28 5 -60 10 -71 8
-13 7 -19 0 -19 -7 0 -6 -10 3 -27 8 -16 20 -40 26 -55 10 -26 41 -40 41 -18
0 5 6 7 14 4 8 -3 14 -15 14 -27 0 -35 7 -58 18 -55 5 2 9 14 9 28 0 15 6 26
18 28 9 2 17 10 17 17 0 16 59 30 90 22 17 -4 20 0 20 34 0 41 9 49 30 24 7
-8 18 -15 25 -15 6 0 17 -11 23 -25 7 -14 18 -28 26 -31 18 -7 66 24 66 42 0
8 9 14 21 14 15 0 19 5 15 15 -3 8 -1 15 5 15 7 0 9 13 5 35 -5 27 -4 35 8 35
27 0 67 -20 61 -30 -3 -6 5 -10 19 -10 14 0 27 4 30 9 3 5 40 7 81 5 65 -3 79
0 95 16 22 22 70 26 116 10 23 -8 41 -6 82 9 30 11 60 17 68 14 9 -3 14 2 14
17 0 20 4 22 36 17 25 -4 37 -2 40 8 5 12 9 12 29 -1 13 -9 29 -12 36 -8 17
10 68 7 83 -5 14 -12 95 8 121 29 11 9 23 7 55 -11 31 -18 43 -20 52 -11 17
17 32 15 57 -7 18 -16 27 -18 41 -9 14 9 25 9 44 0 14 -6 26 -8 26 -3 0 15 32
22 45 11 16 -13 30 4 19 21 -4 8 0 7 15 -1 12 -6 25 -18 28 -26 3 -8 15 -14
28 -14 12 0 30 -9 40 -20 10 -11 28 -20 40 -20 18 0 22 -6 23 -31 1 -34 12
-52 19 -31 3 6 12 12 21 11 11 0 12 -2 5 -6 -7 -2 -13 -13 -13 -23 0 -10 -9
-28 -19 -41 -15 -19 -29 -24 -63 -24 -36 0 -43 -3 -46 -21 -4 -28 -38 -21 -45
8 -5 16 -11 19 -31 14 -15 -4 -26 -1 -29 7 -3 6 -6 0 -6 -14 -1 -17 -10 -33
-25 -42 -18 -12 -24 -24 -23 -49 2 -31 0 -33 -28 -30 -22 2 -34 -3 -44 -19
-11 -19 -11 -23 4 -31 9 -6 20 -19 24 -30 9 -25 61 -35 61 -12 0 12 3 12 20 2
28 -18 25 -29 -14 -60 -18 -15 -37 -40 -40 -55 -4 -15 -14 -39 -23 -52 -12
-19 -21 -22 -45 -17 -34 7 -58 -7 -58 -34 0 -19 -55 -35 -83 -25 -9 4 -24 -3
-36 -16 l-21 -23 -20 22 c-12 12 -27 22 -34 22 -21 0 -16 -49 9 -86 14 -21 21
-42 18 -58 -6 -29 8 -34 31 -11 8 8 20 15 26 15 6 0 8 5 5 10 -4 6 6 10 24 10
16 0 31 -5 33 -11 3 -9 14 -9 42 1 20 6 45 10 55 7 14 -3 26 9 50 50 17 30 31
63 31 74 0 10 7 19 15 19 8 0 24 9 35 20 11 11 25 20 30 20 6 0 8 12 5 28 -6
25 -5 25 6 7 15 -25 41 -45 51 -39 10 6 22 -37 12 -45 -10 -7 -12 -37 -2 -46
10 -10 58 25 58 42 0 13 3 13 15 3 10 -8 15 -9 15 -2 0 6 7 9 15 6 9 -4 18 3
24 18 5 13 16 30 25 37 14 12 16 12 10 -3 -4 -9 -1 -16 6 -16 8 0 10 -9 6 -25
-4 -16 0 -38 11 -58 9 -17 16 -35 15 -39 -2 -9 36 -19 63 -15 17 2 21 -5 23
-37 2 -22 9 -45 17 -50 7 -6 15 -19 17 -29 3 -16 20 -29 81 -59 12 -6 17 -4
17 6 0 8 -7 16 -15 20 -8 3 -15 12 -15 19 0 8 -10 19 -22 25 -22 10 -22 11 -2
11 21 1 39 29 64 101 12 36 13 42 8 74 -3 19 23 32 77 40 11 2 23 4 27 5 4 0
11 16 16 33 6 25 14 33 32 34 13 1 28 8 34 15 6 8 21 13 34 11 17 -3 22 1 22
20 0 13 4 29 9 37 6 9 3 21 -10 34 -21 23 -24 37 -9 37 6 0 9 11 7 25 -3 26
-17 47 -17 26 0 -8 -8 -11 -20 -8 -11 3 -23 0 -28 -7 -4 -6 -25 -17 -46 -24
-47 -13 -60 -6 -81 45 -18 42 -53 60 -85 43 -20 -11 -26 -8 -51 20 -16 17 -32
42 -35 55 -6 23 -29 35 -71 35 -30 0 -29 -20 2 -66 28 -42 35 -114 11 -114 -8
0 -16 -10 -18 -22 -2 -17 -9 -22 -25 -20 -13 2 -23 -2 -23 -7 0 -6 -4 -11 -10
-11 -5 0 -7 7 -4 15 7 17 -7 20 -22 5 -7 -7 -17 -5 -30 6 -15 13 -16 15 -2 10
15 -4 16 -1 8 19 -8 20 -6 25 6 25 14 0 14 2 0 16 -29 29 -20 46 20 38 35 -6
36 -6 24 16 -11 21 -10 22 9 17 34 -8 29 50 -6 81 -16 13 -22 21 -15 17 6 -3
12 -1 12 6 0 8 6 6 18 -4 10 -10 26 -17 35 -17 24 0 21 27 -3 35 -11 3 -20 11
-20 16 0 5 -7 9 -15 9 -12 0 -14 9 -9 43 8 58 12 69 24 62 6 -3 7 0 4 9 -3 9
0 30 6 48 7 18 14 56 15 83 1 28 0 44 -2 38 -3 -7 -20 -13 -39 -13 -28 0 -36
-5 -44 -25 -5 -14 -7 -31 -4 -40 3 -8 -1 -21 -9 -30 -14 -14 -15 -12 -10 20 4
24 0 43 -12 61 -13 20 -16 38 -11 70 7 54 -13 96 -60 123 -19 12 -33 25 -30
29 2 4 -28 7 -67 6 -52 -1 -79 3 -97 15 -14 9 -40 16 -57 17 -25 1 -50 16
-107 68 -41 36 -78 66 -83 66 -6 0 -18 9 -28 20 -10 11 -24 20 -31 20 -8 0
-20 15 -28 34 -8 18 -19 37 -25 40 -6 4 -8 20 -5 35 5 23 2 30 -15 36 -23 7
-28 21 -9 27 9 3 6 15 -9 40 -11 20 -24 49 -27 64 -9 41 -68 102 -113 117 -30
9 -38 17 -38 36 0 19 -10 30 -44 46 -47 24 -66 46 -49 56 18 11 1 39 -24 39
-16 1 -28 11 -40 36 -16 35 -16 35 8 46 17 8 27 8 38 -1 30 -25 104 37 98 81
-3 13 5 17 38 16 31 0 47 6 63 23 12 13 21 24 19 24 -2 0 0 8 3 18 4 9 2 23
-4 30 -13 16 4 37 29 37 25 0 29 9 18 42 -8 21 -7 33 1 41 6 6 11 26 11 44 0
24 5 33 16 33 14 0 15 2 3 17 -9 10 -13 34 -11 67 2 31 -3 66 -12 89 -13 28
-13 37 -4 37 7 0 23 18 34 40 19 33 20 41 8 51 -8 6 -14 28 -14 49 0 23 -5 40
-14 43 -12 5 -19 30 -30 110 -2 15 -10 34 -16 42 -10 12 -10 18 1 31 10 13 10
20 -5 45 -9 16 -14 29 -10 29 4 0 0 6 -10 13 -11 8 -19 28 -21 50 -2 32 1 37
20 37 16 0 25 8 29 26 8 31 -2 112 -15 120 -5 3 -16 19 -25 35 -12 23 -12 30
-2 28 23 -4 48 13 48 32 0 22 37 59 59 59 17 0 39 51 47 110 3 19 9 36 14 38
5 2 31 23 56 48 26 24 51 44 56 44 5 0 6 5 3 10 -13 21 27 9 48 -14 28 -30 45
-22 49 22 1 18 6 32 10 32 4 0 8 9 8 20 0 11 4 20 9 20 6 0 6 12 1 30 -6 20
-5 30 2 30 6 0 3 8 -6 19 -14 16 -23 17 -58 9 -47 -10 -68 -5 -68 16 0 9 -9
20 -20 26 -14 8 -20 8 -20 0 0 -20 -39 9 -56 41 -14 28 -14 34 0 70 16 39 10
79 -13 94 -6 3 -11 16 -11 28 0 13 -7 33 -16 45 -8 12 -10 22 -5 22 18 0 12
47 -6 54 -9 4 -23 0 -31 -8 -13 -13 -18 -11 -40 15 -13 16 -38 37 -54 45 -21
11 -27 20 -23 33 8 25 -21 53 -51 49 -13 -2 -34 7 -49 20 -15 13 -33 21 -40
18 -7 -2 -16 -2 -19 1 -10 10 -66 11 -72 2 -3 -5 -16 -6 -30 -3 -14 4 -31 1
-39 -6 -13 -10 -15 -9 -15 9 0 19 -4 21 -42 15 -68 -9 -92 -15 -106 -27 -8 -6
-28 -11 -45 -11 -23 -1 -33 -6 -35 -21 -3 -11 -12 -25 -21 -32 -13 -10 -18 -8
-28 15 -8 18 -12 21 -13 10 0 -10 -4 -18 -10 -18 -12 0 -31 35 -23 43 3 4 -8
14 -24 24 -28 15 -30 21 -27 62 2 26 3 49 4 54 0 4 9 7 20 7 24 0 26 13 6 30
-8 6 -20 26 -26 45 -9 27 -17 34 -47 38 -46 8 -50 4 -29 -29 17 -24 17 -26 -1
-40 -10 -7 -21 -14 -25 -14 -4 0 -5 -6 -3 -12 6 -16 -4 -29 -33 -46 -19 -10
-26 -10 -48 5 -21 13 -30 14 -45 5 -28 -18 -124 -15 -139 3 -7 8 -23 15 -37
15 -13 0 -34 5 -46 12 -12 6 -37 11 -54 9 -18 -1 -46 5 -62 14 -17 8 -44 15
-60 15 -17 0 -34 6 -38 14 -4 8 -48 48 -97 90 -66 57 -92 73 -102 66 -19 -16
-82 13 -89 42 -4 13 -17 31 -31 41 -23 17 -24 17 -24 -2 0 -18 -3 -19 -27 -10
-16 6 -49 8 -75 5 -44 -6 -52 -3 -108 35 -47 32 -66 40 -86 35 -19 -5 -30 -2
-39 11 -9 13 -24 16 -57 14 -38 -2 -47 1 -61 23 -14 20 -14 30 -5 57 10 30 9
34 -20 60 -18 17 -38 26 -47 23 -8 -4 -15 -1 -15 6 0 6 -4 9 -9 6 -10 -6 -35
20 -44 47 -4 9 -15 17 -26 17 -11 0 -23 5 -26 10 -5 8 -11 8 -19 1 -7 -6 -16
-8 -19 -4 -4 3 -7 2 -7 -3 0 -6 4 -14 10 -20 6 -6 3 -10 -9 -10 -11 0 -19 7
-18 16 0 8 -2 27 -6 41 -5 19 -3 29 8 33 9 3 15 18 15 35 0 16 4 32 10 36 5 3
6 13 3 22 -5 12 -3 14 8 8 23 -15 53 -13 71 3 16 13 22 13 61 -2 24 -9 51 -14
61 -10 12 5 16 0 16 -19 0 -14 7 -27 15 -31 18 -7 19 -2 3 24 -10 15 -10 22 0
32 9 9 9 15 -2 27 -19 21 -31 71 -18 71 17 0 21 48 3 55 -13 5 -14 7 -1 16 13
8 12 12 -4 24 -26 19 -42 19 -50 -1 -5 -13 -9 -14 -21 -4 -18 15 -20 31 -2 25
9 -4 12 14 14 66 1 38 7 76 13 84 6 8 9 19 5 26 -5 8 -1 9 16 4 46 -15 76 -9
84 15 4 11 18 32 31 45 14 14 32 41 40 60 11 27 20 35 40 35 25 0 26 2 20 35
-4 22 -3 35 4 35 5 0 10 22 10 50 0 37 -5 54 -19 67 -23 19 -19 33 8 33 35 0
33 41 -3 74 -73 69 -74 69 -103 46 -14 -11 -34 -20 -44 -20 -11 0 -19 -4 -19
-9 0 -5 -20 1 -46 15 -33 17 -61 24 -104 24 -52 0 -62 3 -90 31 -22 22 -28 35
-21 42 8 8 5 17 -8 31 -11 12 -23 33 -26 49 -6 23 -4 27 14 27 23 0 28 19 9
38 -10 10 -10 15 1 21 12 8 10 15 -7 46 -12 20 -22 51 -22 69 0 20 -8 40 -20
51 -12 11 -20 31 -20 50 0 34 -51 94 -100 118 -28 14 -51 56 -55 98 -1 16 -8
36 -15 44 -8 9 -15 34 -16 56 -1 22 -9 48 -18 58 -12 14 -13 20 -3 30 9 10 7
16 -13 31 -14 11 -30 18 -37 15 -32 -11 -93 50 -93 93 0 21 -41 105 -58 117
-7 6 -14 25 -14 43 -1 33 -4 35 -125 68 -7 2 -13 16 -13 31 0 20 -8 32 -28 44
-35 20 -86 119 -77 150 5 14 3 19 -3 15 -12 -7 -58 85 -86 168 -12 37 -13 53
-5 63 9 9 8 17 0 27 -6 7 -9 20 -6 28 3 8 -1 20 -9 27 -12 10 -13 17 -3 32 9
14 9 26 0 49 -6 16 -7 30 -2 30 5 0 0 14 -10 30 -18 30 -18 32 2 71 17 34 18
46 9 76 -12 39 -9 53 12 53 7 0 21 28 31 63 10 34 24 67 32 73 7 6 11 19 7 28
-5 13 1 16 36 16 38 0 41 2 34 23 -4 12 -7 43 -5 69 1 25 -3 49 -9 53 -15 9
-12 73 4 82 8 4 15 10 15 13 0 3 3 13 7 24 4 10 2 27 -4 37 -9 14 -8 24 3 45
12 23 12 30 -2 51 -9 13 -23 28 -32 32 -9 5 -16 18 -16 28 0 11 -8 19 -21 21
-32 5 -72 52 -83 97 -5 22 -9 32 -10 23 -1 -10 -5 -18 -9 -18 -5 0 -21 -11
-36 -24 -22 -18 -38 -23 -71 -20 -45 3 -113 32 -134 58 -16 19 -97 67 -108 64
-12 -4 -49 25 -56 45 -7 19 -22 22 -32 7 -6 -10 -49 3 -72 22 -8 6 -34 13 -60
15 -33 3 -56 12 -80 33 -19 17 -39 30 -46 31 -7 0 -23 3 -37 5 -14 3 -76 5
-137 5 -62 0 -115 5 -118 10 -9 13 -152 11 -161 -2z m1156 -310 c0 -5 -7 -9
-15 -9 -9 0 -15 9 -15 21 0 18 2 19 15 9 8 -7 15 -16 15 -21z m-975 -159 c3
-5 1 -10 -4 -10 -6 0 -11 5 -11 10 0 6 2 10 4 10 3 0 8 -4 11 -10z m-1235
-889 c0 -5 -6 -14 -14 -20 -16 -13 -32 2 -21 19 8 12 35 13 35 1z m-76 -790
c4 -5 -3 -7 -14 -4 -23 6 -26 13 -6 13 8 0 17 -4 20 -9z m785 -82 c-10 -6 -11
-9 -1 -9 6 0 12 -8 12 -17 0 -16 -2 -16 -15 -2 -17 16 -10 53 7 43 6 -4 5 -10
-3 -15z m86 -129 c3 -5 2 -10 -4 -10 -5 0 -13 5 -16 10 -3 6 -2 10 4 10 5 0
13 -4 16 -10z m115 -122 c0 -5 -4 -8 -10 -8 -5 0 -10 10 -10 23 0 18 2 19 10
7 5 -8 10 -18 10 -22z m20 -95 c0 -5 -6 -16 -14 -25 -15 -20 -38 -5 -29 18 5
14 43 20 43 7z m2147 -1391 c14 -23 3 -44 -16 -33 -7 5 -21 7 -30 4 -10 -2
-23 3 -30 11 -12 14 -9 16 18 16 17 0 31 5 31 10 0 16 14 12 27 -8z m-213
-194 c-4 -6 -10 -5 -15 3 -14 22 -10 33 6 19 8 -7 12 -17 9 -22z m-414 -604
c0 -8 -4 -12 -10 -9 -5 3 -10 10 -10 16 0 5 5 9 10 9 6 0 10 -7 10 -16z m-495
-44 c3 -5 1 -10 -4 -10 -6 0 -11 5 -11 10 0 6 2 10 4 10 3 0 8 -4 11 -10z
m195 -40 c0 -3 -4 -11 -9 -19 -7 -11 -13 -10 -35 5 -38 28 -34 43 9 30 19 -6
35 -13 35 -16z m100 -27 c0 -20 -28 -16 -40 6 -6 13 -17 18 -32 15 l-23 -5 23
10 c12 6 22 16 22 22 0 7 11 2 25 -11 14 -13 25 -29 25 -37z m2495 -63 c-3 -5
-14 -10 -23 -10 -15 0 -15 2 -2 10 20 13 33 13 25 0z m1125 -590 c0 -5 -5 -10
-11 -10 -5 0 -7 5 -4 10 3 6 8 10 11 10 2 0 4 -4 4 -10z m-2086 -2239 c16 -18
16 -20 -3 -33 -12 -8 -18 -18 -14 -21 3 -4 -1 -7 -9 -7 -26 0 -41 25 -23 40 9
7 14 19 11 27 -8 20 18 16 38 -6z m2136 -573 c0 -14 -16 -9 -36 13 -19 21 -19
21 9 8 15 -7 27 -16 27 -21z m194 16 c12 -5 13 -10 5 -26 -8 -15 -8 -19 0 -14
6 4 11 0 11 -8 0 -34 -32 -10 -43 32 -5 23 0 26 27 16z m186 -484 c12 -8 11
-10 -7 -10 -13 0 -23 5 -23 10 0 13 11 13 30 0z m4 -262 c3 -18 2 -46 -3 -63
-10 -33 -13 -25 -16 48 -3 53 10 64 19 15z"/>
<path d="M6690 14850 c0 -5 5 -10 10 -10 6 0 10 5 10 10 0 6 -4 10 -10 10 -5
0 -10 -4 -10 -10z"/>
<path d="M6911 14524 c0 -11 3 -14 6 -6 3 7 2 16 -1 19 -3 4 -6 -2 -5 -13z"/>
<path d="M6146 14454 c-9 -24 12 -44 24 -24 5 8 8 19 7 24 -6 17 -24 17 -31 0z"/>
<path d="M6079 14028 c7 -10 11 -25 7 -33 -3 -9 0 -15 9 -15 22 0 18 24 -7 46
-18 15 -20 16 -9 2z"/>
<path d="M6265 13221 c-7 -31 -13 -34 -67 -34 -33 0 -35 -7 -7 -30 15 -13 19
-25 15 -42 -3 -13 -2 -27 4 -30 5 -3 10 -11 10 -16 0 -6 -4 -8 -9 -5 -5 4 -17
3 -26 0 -13 -6 -14 -9 -3 -16 9 -7 5 -8 -12 -4 -55 12 -68 -27 -23 -67 25 -22
31 -33 23 -42 -8 -9 -6 -14 6 -19 12 -4 15 -15 12 -36 -3 -23 0 -31 14 -36 11
-3 23 -17 28 -30 5 -13 16 -24 24 -24 8 0 29 -12 46 -27 26 -21 36 -24 50 -16
13 9 21 7 37 -9 l21 -20 7 50 c4 28 4 56 1 61 -4 5 1 14 11 20 17 9 17 10 0
28 -9 11 -15 29 -13 40 6 26 -25 55 -83 77 -47 18 -61 17 -36 -4 23 -19 18
-27 -13 -22 -17 2 -28 10 -28 20 0 9 -3 30 -7 45 -5 19 -4 26 3 22 16 -10 12
0 -10 25 -19 22 -19 25 -4 33 8 5 27 7 41 4 17 -3 21 -1 14 6 -6 6 -7 16 -1
27 5 9 10 34 12 55 2 30 -1 40 -14 43 -11 2 -18 -6 -23 -27z"/>
<path d="M9555 12690 c3 -5 11 -10 16 -10 6 0 7 5 4 10 -3 6 -11 10 -16 10 -6
0 -7 -4 -4 -10z"/>
<path d="M9596 12652 c-2 -4 -1 -14 3 -21 6 -10 10 -9 14 3 6 16 -8 32 -17 18z"/>
<path d="M9800 10930 c-7 -14 -7 -20 0 -20 5 0 10 6 10 14 0 8 6 17 13 19 9 4
9 6 0 6 -7 1 -17 -8 -23 -19z"/>
<path d="M11496 10393 c-6 -14 -5 -15 5 -6 7 7 10 15 7 18 -3 3 -9 -2 -12 -12z"/>
<path d="M8561 10148 c-15 -25 -10 -31 17 -21 17 7 18 11 8 25 -11 15 -13 15
-25 -4z"/>
<path d="M11510 10159 c0 -5 5 -7 10 -4 6 3 10 8 10 11 0 2 -4 4 -10 4 -5 0
-10 -5 -10 -11z"/>
<path d="M8850 8330 c0 -5 7 -10 16 -10 8 0 12 5 9 10 -3 6 -10 10 -16 10 -5
0 -9 -4 -9 -10z"/>
<path d="M8867 8293 c-11 -10 13 -33 35 -33 16 0 17 3 8 20 -11 20 -31 26 -43
13z"/>
<path d="M14380 7836 c-19 -19 -39 -26 -84 -30 -33 -3 -63 -10 -67 -18 -11
-17 8 -23 26 -8 12 10 16 9 21 -4 8 -21 -26 -60 -66 -76 -38 -16 -47 -68 -20
-113 24 -38 25 -47 5 -47 -8 0 -15 -4 -15 -10 0 -5 9 -10 20 -10 20 0 70 -44
70 -60 0 -4 -7 -13 -16 -21 -12 -10 -20 -10 -35 -1 -27 17 -29 16 -29 -17 0
-20 -6 -32 -18 -35 -10 -4 -28 -15 -40 -26 -11 -11 -37 -29 -57 -40 -35 -20
-35 -20 -55 0 -27 27 -35 25 -49 -8 -23 -55 -81 -104 -111 -92 -3 1 -15 3 -28
6 -12 2 -33 11 -46 19 -18 12 -25 13 -28 4 -7 -21 -48 9 -48 35 0 14 -9 27
-24 34 -21 9 -23 8 -19 -9 3 -10 1 -19 -4 -19 -15 0 -52 30 -64 52 -10 18 -9
20 4 15 10 -4 18 1 22 14 4 10 11 19 16 19 6 0 8 9 4 19 -3 11 0 29 7 40 9 15
10 23 1 32 -8 8 -11 6 -10 -7 2 -16 -5 -19 -48 -17 -92 3 -133 14 -170 43 -20
16 -36 32 -36 37 -1 16 -34 45 -68 59 -41 17 -51 18 -51 2 0 -19 -46 -38 -59
-25 -6 6 -11 17 -11 24 0 7 -6 13 -14 13 -7 0 -16 8 -18 18 -6 20 -87 47 -117
37 -19 -6 -19 -7 5 -42 14 -22 22 -44 18 -55 -3 -10 3 -30 15 -47 12 -16 21
-39 21 -50 0 -12 6 -21 14 -21 21 0 66 -58 66 -86 0 -14 7 -27 15 -30 8 -4 22
-21 31 -40 9 -19 22 -34 28 -34 7 0 19 -11 26 -25 13 -24 12 -28 -13 -52 -26
-27 -26 -27 -48 -7 -21 19 -21 19 -45 -11 -13 -17 -24 -33 -24 -38 0 -4 -10
-5 -23 -2 -15 4 -28 1 -36 -9 -8 -9 -9 -16 -3 -16 5 0 12 -7 16 -15 3 -8 2
-14 -2 -14 -26 4 -31 -4 -28 -46 1 -24 -2 -47 -8 -50 -6 -3 -2 -3 9 0 11 2 26
1 34 -4 10 -7 9 -11 -7 -22 -24 -18 -62 -91 -62 -121 1 -39 39 -111 77 -145
20 -18 40 -33 45 -33 4 0 8 -8 8 -18 0 -11 16 -27 39 -40 22 -12 41 -28 43
-34 6 -17 76 -13 97 6 10 9 23 16 30 16 8 0 11 6 7 15 -7 19 10 20 21 2 10
-17 53 -29 53 -15 0 6 8 4 18 -5 15 -13 25 -15 52 -7 34 10 49 2 50 -26 0 -6
10 -18 22 -26 20 -13 21 -18 9 -32 -16 -19 -8 -46 14 -46 8 0 15 -4 15 -10 0
-5 9 -1 20 10 11 11 20 25 20 32 0 6 10 22 22 35 21 22 21 27 9 71 -6 25 -18
50 -24 54 -14 9 -9 10 60 12 55 1 74 12 78 43 5 41 18 63 37 63 27 0 60 -19
53 -31 -4 -5 3 -9 14 -9 24 0 61 29 61 47 0 14 45 8 96 -12 18 -7 36 -9 40 -5
5 5 25 12 44 17 23 6 42 20 55 41 16 25 25 31 45 27 29 -6 44 2 53 28 4 10 11
15 17 12 6 -3 10 4 10 18 0 14 7 28 15 31 13 5 14 10 5 27 -6 11 -9 27 -6 35
3 8 1 14 -4 14 -6 0 -5 10 1 24 8 17 8 29 0 44 -15 28 -15 29 14 36 18 5 25
13 25 31 0 13 -4 27 -10 30 -19 12 -10 23 27 36 43 14 104 74 96 95 -3 9 2 14
13 15 11 0 14 3 6 6 -7 2 -17 14 -23 25 -10 18 -8 19 12 13 18 -6 21 -4 16 9
-8 20 -5 20 40 1 25 -11 40 -12 47 -5 7 7 6 10 -1 10 -6 0 -9 9 -6 20 3 11 10
20 15 20 5 0 6 5 2 11 -3 6 -7 29 -8 51 -2 26 -8 44 -19 50 -19 10 -23 38 -6
38 8 0 8 4 0 14 -6 7 -9 20 -6 28 3 8 -1 20 -9 27 -8 7 -12 19 -9 27 3 8 -4
25 -15 37 -11 12 -23 33 -27 47 -4 14 -21 49 -38 78 -28 47 -35 52 -67 52 -24
0 -43 -8 -60 -24z"/>
<path d="M12740 7492 c31 -41 50 -48 50 -18 0 14 -7 26 -17 29 -10 2 -27 8
-37 13 -17 6 -17 4 4 -24z"/>
<path d="M9505 7430 c-3 -5 -1 -10 4 -10 6 0 11 5 11 10 0 6 -2 10 -4 10 -3 0
-8 -4 -11 -10z"/>
<path d="M12775 7423 c5 -10 7 -41 6 -69 -2 -49 -1 -52 31 -64 18 -8 48 -28
67 -47 22 -21 41 -31 52 -28 21 7 35 -11 14 -19 -8 -3 -15 -13 -15 -21 0 -9 4
-14 9 -10 5 3 16 -4 25 -16 11 -16 12 -27 4 -45 -8 -18 -8 -27 2 -39 11 -13
11 -18 1 -24 -9 -6 -8 -11 4 -21 21 -18 19 -30 -6 -30 -14 0 -19 -5 -16 -14 9
-22 -25 -46 -57 -40 -17 3 -25 1 -21 -6 3 -5 13 -10 21 -10 8 0 14 -7 14 -16
0 -10 -6 -14 -15 -10 -21 8 -19 -10 3 -19 35 -16 70 -19 100 -10 25 8 57 59
47 75 -3 6 -1 10 5 10 7 0 10 7 7 15 -4 8 -2 17 3 20 7 4 7 13 0 24 -5 10 -7
20 -5 23 3 2 7 25 10 51 5 39 3 48 -15 57 -11 6 -25 8 -30 5 -12 -8 -24 38
-15 64 7 22 -19 81 -36 81 -6 0 -7 -6 -3 -12 4 -7 -4 -2 -19 11 -22 20 -32 22
-74 16 -46 -6 -49 -5 -66 24 -17 29 -17 30 4 36 l21 7 -21 22 c-12 12 -21 28
-21 34 0 7 -5 12 -11 12 -7 0 -8 -7 -4 -17z"/>
<path d="M14105 7380 c3 -5 8 -10 11 -10 2 0 4 5 4 10 0 6 -5 10 -11 10 -5 0
-7 -4 -4 -10z"/>
<path d="M10495 7180 c-3 -5 -1 -10 4 -10 6 0 11 5 11 10 0 6 -2 10 -4 10 -3
0 -8 -4 -11 -10z"/>
<path d="M9567 6989 c-2 -19 -4 -35 -3 -36 8 -9 56 25 56 39 0 21 -17 32 -23
16 -4 -10 -8 -10 -15 1 -7 9 -11 4 -15 -20z"/>
<path d="M9605 6930 c-11 -5 -15 -9 -8 -9 6 -1 18 -4 27 -7 11 -4 16 -1 16 10
0 18 -6 19 -35 6z"/>
<path d="M9637 6876 c-9 -22 17 -38 43 -28 l22 8 -26 17 c-31 21 -32 21 -39 3z"/>
<path d="M9735 6819 c-8 -13 -6 -15 23 -23 26 -9 32 18 6 28 -21 8 -22 8 -29
-5z"/>
<path d="M10760 6711 c0 -5 5 -13 10 -16 6 -3 10 -2 10 4 0 5 -4 13 -10 16 -5
3 -10 2 -10 -4z"/>
<path d="M10742 6680 c0 -14 2 -19 5 -12 2 6 2 18 0 25 -3 6 -5 1 -5 -13z"/>
<path d="M13055 6690 c3 -5 8 -10 11 -10 2 0 4 5 4 10 0 6 -5 10 -11 10 -5 0
-7 -4 -4 -10z"/>
<path d="M13020 6169 c0 -5 5 -7 10 -4 6 3 10 8 10 11 0 2 -4 4 -10 4 -5 0
-10 -5 -10 -11z"/>
<path d="M12560 6145 c0 -5 4 -15 8 -21 10 -15 42 -25 42 -14 0 6 -7 10 -15
10 -7 0 -19 8 -24 18 -6 9 -10 13 -11 7z"/>
<path d="M12264 5801 c3 -5 -1 -14 -9 -21 -23 -19 -18 -27 18 -26 l34 1 -20
28 c-19 25 -35 38 -23 18z"/>
<path d="M12805 5777 c3 -7 15 -13 26 -14 24 -2 23 0 -8 16 -18 9 -22 9 -18
-2z"/>
<path d="M12795 5730 c-8 -25 22 -61 35 -41 4 7 10 12 14 12 13 -2 10 9 -6 29
-22 25 -35 25 -43 0z"/>
<path d="M13062 5648 c-7 -7 -12 -18 -12 -25 0 -7 -9 -22 -19 -32 -38 -38 -52
-68 -45 -95 4 -18 2 -31 -8 -39 -13 -10 -13 -14 3 -29 10 -10 21 -13 24 -8 4
6 15 10 27 10 14 0 18 5 14 15 -3 9 0 15 9 15 10 0 15 10 15 30 0 17 5 30 10
30 7 0 9 15 5 41 -4 23 -2 46 5 53 10 13 4 46 -9 46 -4 0 -12 -5 -19 -12z"/>
<path d="M13120 5621 c0 -6 9 -15 20 -21 13 -7 20 -7 20 -1 0 6 -9 15 -20 21
-13 7 -20 7 -20 1z"/>
<path d="M11698 5507 c-7 -7 -26 -13 -43 -13 -18 1 -30 -4 -29 -11 1 -7 2 -25
3 -40 1 -20 10 -33 31 -45 29 -16 30 -16 30 2 0 11 7 20 15 20 9 0 15 -9 15
-23 0 -12 9 -28 20 -35 11 -7 20 -17 20 -23 0 -21 41 -69 59 -69 28 0 42 -23
46 -74 3 -35 0 -48 -13 -55 -14 -8 -15 -12 -4 -22 15 -16 16 -56 1 -61 -19 -6
1 -36 22 -31 11 3 19 0 19 -7 0 -7 8 -9 20 -5 13 4 22 1 26 -8 4 -11 16 -14
44 -10 28 4 52 -1 93 -21 62 -29 92 -28 164 6 27 12 51 34 65 57 19 31 27 37
43 31 29 -11 55 7 55 36 l0 25 31 -22 31 -22 27 21 c24 17 29 18 46 6 20 -15
55 -10 67 9 4 8 15 7 33 -1 14 -7 34 -12 45 -12 10 0 25 -9 32 -19 16 -23 44
-12 35 13 -3 8 -2 18 4 22 6 3 8 13 4 22 -3 8 2 40 10 70 9 30 14 60 11 67 -2
7 2 16 11 19 12 5 14 15 10 42 -4 24 -2 37 8 40 27 11 23 40 -6 51 -24 9 -29
9 -29 -4 0 -9 -6 -13 -14 -10 -8 3 -17 -1 -20 -10 -6 -14 -9 -13 -29 5 -12 11
-45 27 -74 35 l-52 16 6 -29 c4 -22 1 -31 -11 -36 -9 -3 -16 -10 -16 -15 0
-20 -34 -48 -49 -40 -9 5 -31 7 -48 6 -35 -3 -48 20 -18 31 22 9 7 26 -20 22
-12 -1 -30 4 -41 12 -14 12 -16 12 -9 1 6 -10 4 -13 -7 -9 -18 7 -43 -29 -39
-59 1 -11 -3 -24 -8 -28 -7 -4 -6 -16 4 -35 15 -29 6 -48 -15 -35 -5 3 -10 1
-10 -4 0 -17 -47 -13 -64 5 -9 8 -16 22 -16 29 0 8 -11 22 -25 31 -14 9 -25
21 -25 26 0 5 -7 16 -14 24 -13 12 -17 12 -27 1 -7 -7 -24 -12 -38 -10 -43 6
-101 26 -101 34 0 9 -40 24 -54 21 -4 -2 -15 3 -22 9 -11 9 -18 9 -26 1 -24
-24 -62 -13 -98 27 -19 21 -34 45 -32 55 4 20 -40 22 -60 3z"/>
<path d="M12861 5463 c-1 -18 -1 -36 -1 -40 0 -5 11 -9 25 -11 14 -2 25 -8 25
-13 0 -5 9 -9 20 -9 21 0 24 8 14 34 -3 8 -12 12 -19 10 -7 -3 -16 4 -20 15
-3 12 -12 21 -20 21 -7 0 -16 6 -18 13 -3 6 -6 -3 -6 -20z"/>
<path d="M12842 5379 c2 -7 12 -13 21 -15 23 -3 21 3 -4 17 -17 8 -20 8 -17
-2z"/>
</g>
</svg>
