<?xml version="1.0" standalone="no"?>
<!DOCTYPE svg PUBLIC "-//W3C//DTD SVG 20010904//EN"
 "http://www.w3.org/TR/2001/REC-SVG-20010904/DTD/svg10.dtd">
<svg version="1.0" xmlns="http://www.w3.org/2000/svg"
 width="562.232980pt" height="939.853751pt" viewBox="0 0 562.232980 939.853751"
 preserveAspectRatio="xMidYMid meet">
<metadata>
Created by potrace 1.15, written by Peter Selinger 2001-2017
</metadata>
<g transform="translate(-689.704571,1469.458024) scale(0.100000,-0.100000)"
fill="#222222" stroke="none">
<path d="M9626 14678 c-3 -12 0 -30 6 -41 7 -14 7 -22 -3 -27 -10 -6 -10 -14
0 -37 6 -16 10 -40 9 -53 -2 -19 2 -25 18 -26 12 -1 33 -4 48 -8 25 -6 26 -5
16 14 -6 11 -14 20 -19 20 -14 0 -31 48 -19 52 8 3 6 22 -7 60 -19 61 -40 80
-49 46z"/>
<path d="M9580 14575 c0 -8 -5 -15 -12 -15 -6 0 -9 -2 -7 -5 3 -2 15 -2 27 2
25 6 30 33 7 33 -8 0 -15 -7 -15 -15z"/>
<path d="M9090 14528 c0 -17 2 -18 15 -8 8 7 15 14 15 15 0 2 -7 5 -15 9 -10
4 -15 -1 -15 -16z"/>
<path d="M9167 14522 c-20 -20 -29 -23 -40 -14 -17 14 -37 -2 -37 -30 0 -10
-6 -18 -14 -18 -7 0 -16 -10 -20 -22 -10 -38 -7 -51 9 -44 17 6 45 -2 45 -14
0 -4 -11 -23 -24 -43 -21 -31 -23 -38 -10 -54 7 -10 14 -21 14 -24 0 -13 -32
-19 -49 -10 -16 9 -17 6 -8 -45 11 -58 -1 -104 -27 -104 -21 0 -29 -31 -11
-49 13 -14 15 -14 15 1 0 33 20 28 45 -11 15 -22 44 -58 66 -81 41 -43 47 -58
27 -78 -11 -11 -18 -38 -19 -74 0 -11 -8 -18 -20 -18 -10 0 -19 -4 -19 -9 0
-14 -70 -52 -82 -45 -7 5 -7 1 -1 -11 6 -10 8 -26 6 -36 -3 -11 0 -19 7 -19 8
0 10 -12 5 -39 -4 -24 -2 -41 4 -46 6 -3 9 -11 6 -16 -4 -5 -2 -17 4 -26 7
-13 4 -25 -11 -45 -19 -27 -48 -38 -48 -18 0 6 -4 10 -10 10 -5 0 -10 -6 -10
-13 0 -17 -47 -43 -57 -33 -5 4 -8 22 -8 38 0 17 -5 33 -11 35 -7 2 -9 -15 -7
-49 5 -82 -2 -99 -40 -97 -17 1 -50 -5 -71 -15 -55 -23 -70 -9 -62 57 6 44 5
50 -19 69 -20 16 -23 23 -14 34 16 19 56 18 67 -2 8 -14 12 -14 30 -3 12 8 22
19 22 26 0 7 12 13 26 13 14 0 23 4 20 9 -3 4 -24 7 -47 6 -27 -1 -49 4 -61
14 -24 20 -77 122 -71 138 2 6 0 14 -6 17 -6 4 -8 13 -5 20 3 9 -4 17 -18 22
-12 4 -29 14 -36 23 -8 9 -11 11 -8 5 8 -16 -35 -26 -52 -12 -7 7 -12 22 -9
35 4 19 -4 27 -52 50 -31 15 -60 26 -65 25 -4 -2 -15 3 -23 9 -11 10 -17 9
-31 -4 -15 -16 -15 -17 9 -17 30 0 54 -24 63 -63 6 -25 4 -27 -17 -22 -22 6
-25 3 -31 -35 -10 -63 -31 -97 -69 -109 -22 -8 -37 -21 -46 -44 -8 -17 -13
-35 -12 -39 0 -5 -4 -8 -10 -8 -6 0 -8 -7 -5 -15 3 -9 0 -18 -7 -21 -8 -3 -11
-17 -9 -38 4 -34 -21 -96 -38 -96 -6 0 -10 -7 -10 -15 0 -8 5 -15 11 -15 6 0
9 -16 8 -39 -2 -21 2 -45 9 -53 7 -9 9 -29 5 -51 -4 -24 -2 -37 6 -37 32 0 -8
-49 -41 -50 -11 0 -15 -6 -11 -20 6 -24 33 -27 33 -3 0 14 4 12 25 -7 21 -20
29 -22 49 -12 22 10 27 8 42 -16 10 -16 19 -22 22 -14 2 6 16 12 30 12 24 0
71 19 49 20 -11 0 32 71 52 87 21 15 55 -3 47 -24 -4 -9 1 -24 9 -33 20 -22
10 -74 -11 -66 -8 3 -14 1 -14 -4 0 -5 10 -12 23 -16 12 -4 25 -11 28 -16 4
-6 14 -5 27 3 17 10 19 16 9 27 -9 11 -7 17 8 28 25 19 44 18 52 -2 4 -11 -6
-27 -33 -50 -21 -18 -35 -33 -31 -34 4 0 -2 -10 -13 -22 -13 -14 -19 -31 -16
-44 9 -33 -61 -87 -127 -99 -22 -4 -39 -14 -42 -25 -3 -9 -25 -37 -49 -61 -39
-40 -43 -49 -49 -109 -4 -43 -11 -68 -22 -76 -14 -11 -16 -23 -11 -76 l7 -63
-22 25 c-15 18 -29 24 -51 21 -19 -2 -28 1 -24 7 3 6 2 13 -4 17 -5 3 -10 2
-10 -4 0 -5 -12 -4 -27 5 -16 7 -36 14 -45 14 -24 0 -23 -37 1 -50 33 -17 51
-40 51 -65 0 -12 6 -25 14 -28 14 -6 42 -56 48 -87 2 -8 11 -21 22 -30 18 -15
18 -17 1 -34 -17 -17 -16 -17 16 -13 34 4 39 13 25 48 -5 12 -1 15 16 15 15
-1 23 5 23 16 0 10 6 23 14 30 11 11 12 9 6 -10 -4 -15 -2 -29 8 -40 8 -9 17
-26 18 -36 4 -17 13 -20 71 -20 38 -1 68 2 68 6 0 14 40 -6 45 -23 4 -11 10
-17 15 -14 4 3 6 -3 3 -13 -3 -14 -11 -18 -29 -14 -14 2 -24 0 -24 -7 0 -18
48 -12 62 8 13 18 14 18 35 2 26 -21 15 -47 -16 -38 -25 6 -39 -10 -17 -19 20
-8 20 -28 1 -47 -13 -13 -12 -17 3 -28 9 -7 14 -9 10 -5 -10 12 32 47 45 39 6
-3 7 -1 3 6 -11 17 19 24 46 10 13 -7 38 -12 57 -10 25 1 41 -5 63 -25 15 -15
28 -35 28 -44 0 -8 12 -23 28 -32 15 -9 60 -48 100 -87 40 -39 77 -71 83 -71
23 0 79 -33 84 -50 7 -21 36 -35 44 -22 8 13 94 7 99 -6 5 -17 59 -15 66 3 3
8 12 12 21 9 11 -5 14 -2 8 12 -4 12 -3 15 5 10 7 -4 12 -2 12 3 0 6 10 11 22
11 12 0 18 -3 15 -7 -4 -3 0 -17 8 -29 13 -20 13 -23 1 -18 -24 9 -86 -26 -92
-52 -3 -13 -12 -28 -20 -35 -8 -6 -14 -22 -14 -35 0 -14 -11 -32 -30 -46 -16
-12 -30 -28 -30 -35 0 -7 -5 -13 -11 -13 -5 0 -8 -4 -5 -8 3 -4 1 -25 -3 -45
-7 -29 -5 -39 10 -52 14 -14 16 -21 7 -41 -6 -13 -19 -24 -28 -24 -16 0 -23
-34 -22 -102 1 -16 -3 -15 -29 4 -29 21 -29 21 -44 2 -8 -10 -15 -14 -15 -9 0
6 -8 -2 -18 -16 -27 -41 -87 -89 -120 -95 -23 -5 -34 -16 -47 -45 -14 -29 -24
-39 -42 -39 -13 0 -23 -6 -23 -14 0 -10 -12 -12 -50 -8 -47 4 -66 -7 -40 -23
20 -12 9 -22 -24 -23 -29 -1 -35 3 -40 24 -5 19 -11 24 -26 19 -13 -4 -20 -2
-21 7 0 7 -4 3 -9 -9 -11 -26 -25 -30 -33 -9 -3 8 -14 19 -25 25 -17 9 -18 7
-14 -16 3 -18 1 -24 -7 -19 -7 4 -11 0 -11 -12 0 -27 -49 -37 -67 -14 -9 12
-12 13 -13 4 0 -8 -5 -10 -12 -6 -8 5 -7 1 2 -10 13 -16 12 -20 -4 -32 -15
-10 -16 -14 -5 -18 8 -2 28 -9 44 -14 17 -5 29 -15 28 -21 -2 -6 2 -11 8 -11
8 0 8 -4 0 -14 -6 -7 -8 -21 -5 -31 4 -10 1 -21 -7 -26 -10 -6 -10 -9 -1 -9 6
0 12 -12 12 -27 0 -14 7 -35 17 -45 15 -17 15 -18 -5 -18 -12 0 -22 4 -22 9 0
17 -45 21 -60 6 -12 -12 -12 -19 -2 -35 6 -10 9 -26 6 -35 -6 -14 -8 -14 -24
0 -15 14 -18 13 -35 -5 -10 -11 -18 -32 -19 -47 -1 -17 -7 -29 -16 -30 -77
-10 -91 -15 -86 -30 8 -21 -21 -53 -48 -53 -13 0 -41 -19 -66 -45 -27 -28 -53
-45 -67 -45 -14 0 -26 -7 -29 -17 -18 -61 -74 -113 -120 -113 -15 0 -24 -6
-24 -15 0 -12 -4 -13 -25 -3 -21 9 -28 8 -45 -7 -11 -10 -28 -15 -40 -12 -13
3 -20 0 -20 -9 0 -7 -13 -23 -29 -35 -26 -19 -28 -25 -19 -45 8 -18 7 -29 -6
-49 -9 -14 -21 -25 -27 -25 -6 0 -8 -4 -5 -9 3 -5 -1 -11 -9 -15 -8 -3 -15 -1
-15 4 0 13 -37 13 -45 0 -9 -15 -25 -12 -25 5 0 8 -4 15 -10 15 -25 0 -6 -31
28 -46 20 -10 51 -28 69 -41 31 -23 32 -23 38 -2 8 25 29 20 33 -9 2 -15 -2
-22 -13 -22 -9 0 -13 -4 -10 -10 12 -19 -6 -32 -20 -14 -7 10 -23 18 -36 19
-19 2 -21 0 -8 -8 13 -8 14 -18 7 -55 -5 -31 -5 -48 3 -52 6 -4 -3 -10 -20
-13 -22 -5 -29 -11 -25 -22 10 -25 -24 -85 -48 -85 -16 0 -18 -3 -9 -14 8 -10
6 -19 -9 -39 -21 -27 -26 -42 -10 -32 5 3 18 -13 29 -35 l19 -40 -28 -15 c-24
-12 -30 -13 -40 0 -11 14 -110 19 -110 5 0 -13 -60 -73 -66 -67 -4 3 -25 -9
-47 -28 -42 -36 -74 -44 -95 -23 -8 8 -15 8 -26 -1 -20 -17 -41 -4 -25 15 9
11 8 19 -4 38 -9 13 -13 26 -10 30 10 10 10 76 0 76 -5 0 -26 14 -47 30 -48
38 -73 38 -110 0 -33 -34 -35 -41 -18 -58 9 -9 8 -12 -4 -12 -9 0 -20 -9 -23
-20 -3 -11 -14 -20 -23 -20 -13 0 -13 -3 -4 -12 10 -10 15 -10 22 1 7 12 12
12 33 -2 22 -14 26 -14 39 0 14 13 17 12 31 -15 10 -21 11 -34 5 -40 -7 -7 -4
-19 11 -38 12 -15 21 -41 21 -60 0 -21 5 -34 13 -34 20 0 98 -82 92 -97 -3 -8
11 -31 31 -51 19 -20 43 -53 54 -73 19 -37 70 -70 70 -46 1 6 9 2 19 -10 10
-12 21 -20 24 -16 12 11 29 -46 23 -72 -5 -19 -11 -25 -23 -21 -28 11 -5 -62
31 -98 32 -32 46 -37 170 -50 11 -2 24 -12 29 -24 6 -12 16 -22 24 -22 17 0
17 -16 -2 -23 -8 -4 -23 5 -35 21 -19 24 -20 24 -10 3 9 -18 9 -25 0 -31 -15
-9 -5 -30 14 -30 8 0 16 -11 18 -25 3 -14 1 -25 -3 -25 -5 0 -9 -6 -9 -14 0
-16 47 -49 59 -41 5 3 11 0 13 -5 2 -6 30 -14 62 -17 34 -4 81 -18 114 -35 31
-15 66 -28 79 -28 13 0 22 -4 18 -9 -3 -5 -1 -12 5 -16 5 -3 10 -1 10 4 0 6 9
11 20 11 23 0 100 39 100 51 0 4 16 23 35 42 19 19 32 36 29 40 -3 3 12 15 34
26 29 15 44 31 54 57 12 34 14 36 48 29 19 -4 47 -9 62 -12 20 -4 28 0 33 16
5 17 16 21 78 23 67 3 72 5 77 28 6 23 10 25 63 23 31 -1 57 2 57 6 0 13 57
81 63 75 3 -3 10 4 17 15 6 12 20 21 31 21 29 0 59 18 59 35 0 9 6 12 17 8 10
-4 14 -2 9 5 -14 23 13 21 32 -3 19 -24 42 -33 42 -17 0 5 26 5 59 1 32 -3 75
-5 95 -3 70 8 93 -24 69 -94 -12 -36 -12 -45 2 -71 8 -17 15 -39 15 -51 0 -12
9 -24 24 -30 13 -5 28 -22 34 -39 9 -26 8 -31 -7 -36 -35 -11 -101 -83 -101
-110 0 -17 -7 -28 -21 -33 l-20 -8 20 -26 c17 -21 18 -28 8 -37 -10 -8 -17 -7
-26 2 -11 10 -11 8 -1 -12 11 -21 48 -41 60 -30 2 2 8 -12 12 -31 3 -19 11
-53 17 -75 6 -23 6 -41 1 -43 -5 -2 -6 -10 -3 -18 3 -9 -1 -14 -13 -14 -16 0
-17 -2 -4 -10 11 -7 11 -10 2 -10 -7 0 -10 -4 -7 -10 3 -5 1 -10 -6 -10 -8 0
-7 -5 3 -17 22 -25 29 -73 11 -73 -11 0 -11 -4 -3 -20 6 -11 8 -25 5 -30 -4
-7 7 -8 32 -5 35 6 40 3 66 -29 15 -20 23 -36 17 -36 -7 0 -6 -6 2 -19 18 -29
-2 -107 -26 -104 -11 1 -27 -8 -36 -20 -18 -22 -17 -34 12 -105 14 -37 2 -54
-33 -45 -23 6 -53 -22 -45 -42 3 -8 1 -15 -4 -15 -6 0 -10 -6 -10 -14 0 -8 -6
-17 -12 -20 -7 -4 4 -4 24 -2 25 3 38 0 42 -10 3 -7 12 -11 20 -8 8 3 17 1 21
-5 9 -16 42 -13 49 4 3 8 12 15 20 15 9 0 13 6 10 14 -3 8 -12 12 -20 9 -8 -3
-14 -1 -14 5 0 5 10 12 22 15 12 4 19 9 16 13 -11 10 60 74 76 68 9 -3 17 2
21 15 3 12 11 21 16 21 5 0 9 9 9 19 0 10 7 21 15 25 11 4 15 -2 15 -25 0 -28
1 -29 21 -16 20 15 70 10 100 -9 8 -5 22 -7 32 -6 13 3 17 -4 17 -26 0 -21 6
-31 20 -35 11 -3 20 -1 20 5 0 6 7 8 15 4 9 -3 15 0 15 8 0 7 7 19 15 26 8 7
15 23 15 36 0 30 19 31 55 2 19 -15 45 -23 82 -25 29 -2 53 0 53 4 0 5 29 8
65 9 36 0 65 -3 65 -8 0 -4 -4 -8 -10 -8 -5 0 -10 -9 -10 -21 0 -14 -5 -19
-14 -16 -10 4 -13 1 -9 -9 3 -7 13 -14 22 -15 12 0 11 -3 -6 -16 -13 -8 -23
-24 -23 -34 0 -10 -4 -21 -10 -24 -5 -3 -10 -15 -10 -25 0 -10 -6 -20 -12 -23
-10 -3 -9 -12 5 -37 9 -17 17 -44 17 -60 0 -16 6 -30 13 -33 8 -2 11 -22 10
-57 -2 -37 2 -59 13 -71 20 -22 4 -56 -33 -70 -14 -5 -27 -18 -30 -29 -8 -29
-20 -25 -43 13 -11 17 -20 26 -20 18 0 -8 -8 -19 -17 -26 -15 -11 -23 -10 -48
7 -23 16 -21 12 11 -18 26 -26 39 -46 37 -59 -3 -16 -1 -15 11 5 13 22 13 25
0 28 -13 3 -21 32 -8 32 3 0 20 -11 38 -25 18 -14 42 -25 54 -25 12 0 26 -9
32 -20 10 -19 11 -19 30 0 11 11 24 20 29 20 5 0 11 14 15 30 4 22 11 30 27
30 34 0 50 29 32 56 -13 21 -13 22 6 17 17 -4 21 -1 21 20 0 30 38 58 84 61
17 2 34 4 39 5 4 0 5 15 2 31 -4 22 -1 30 10 30 8 0 16 -3 16 -7 1 -5 3 -24 5
-43 2 -19 12 -41 22 -48 14 -10 17 -28 17 -93 0 -56 -4 -82 -14 -88 -9 -6 -10
-11 -2 -15 15 -10 14 -56 -1 -56 -7 -1 -4 -6 8 -13 12 -7 19 -17 17 -24 -4
-11 34 -53 48 -53 3 0 9 -19 13 -41 5 -30 3 -46 -8 -58 -12 -13 -13 -25 -5
-59 12 -53 5 -67 -24 -47 -29 21 -101 21 -93 0 3 -9 0 -15 -8 -15 -21 0 -26
-39 -11 -84 18 -52 18 -56 0 -56 -8 0 -15 7 -15 15 0 17 -9 19 -30 5 -10 -6
-20 -4 -32 7 -13 11 -18 12 -18 3 0 -9 -7 -8 -25 4 -25 16 -60 22 -52 9 3 -5
-16 -8 -41 -8 -41 0 -47 3 -50 23 -4 26 -42 52 -42 28 0 -8 -3 -21 -6 -30 -4
-10 -1 -16 7 -16 8 0 28 -15 44 -32 17 -18 43 -39 58 -47 15 -8 27 -21 27 -30
1 -21 20 -45 43 -54 11 -4 17 -18 18 -39 0 -18 2 -41 4 -51 2 -10 -4 -26 -13
-35 -9 -10 -22 -28 -28 -42 -6 -14 -17 -40 -25 -57 -8 -18 -19 -33 -25 -33
-16 0 -24 -24 -24 -76 0 -25 -5 -44 -11 -44 -7 0 -8 -19 -3 -57 6 -49 13 -64
44 -97 34 -35 38 -43 35 -84 -2 -25 2 -53 8 -62 14 -24 1 -54 -19 -46 -13 5
-14 3 -6 -7 6 -7 13 -24 16 -37 4 -22 12 -53 20 -85 17 -68 38 -94 71 -87 24
4 24 3 13 -29 -13 -40 -58 -83 -72 -69 -5 5 -20 0 -36 -12 -16 -11 -33 -17
-40 -13 -9 6 -9 10 1 16 8 5 9 9 4 9 -6 0 -18 -9 -28 -20 -9 -11 -23 -20 -31
-20 -7 0 -19 -6 -25 -14 -16 -19 6 -26 39 -13 14 5 44 9 67 8 34 -2 48 3 67
22 14 14 27 22 30 19 10 -10 86 21 86 35 0 7 4 13 9 13 5 0 13 9 16 21 5 16
13 20 33 16 30 -6 86 19 77 34 -4 5 -3 19 0 30 5 15 13 19 28 15 20 -5 22 -1
24 39 1 25 -3 45 -8 45 -19 0 1 18 25 22 15 3 23 1 20 -6 -2 -6 1 -18 6 -26
12 -20 44 -2 48 28 2 15 8 19 20 15 14 -5 14 -3 -3 16 -29 34 -108 86 -123 83
-22 -5 -53 29 -46 50 3 10 1 18 -5 18 -6 0 -11 15 -11 34 0 18 -7 39 -15 46
-8 7 -13 15 -11 19 3 4 1 13 -4 20 -5 9 4 33 26 67 48 76 55 96 43 140 -8 28
-8 39 2 45 19 11 19 51 -1 79 -18 26 -31 61 -27 71 1 4 -7 17 -18 29 l-20 22
27 19 c15 11 31 38 39 64 9 29 18 44 26 41 7 -3 13 2 13 11 0 9 12 32 27 52
15 20 28 40 29 46 0 5 2 17 2 26 1 8 8 23 15 33 12 17 16 15 50 -19 24 -24 37
-47 37 -63 1 -15 9 -37 19 -49 15 -18 26 -22 50 -17 19 4 28 11 24 18 -10 16
-11 46 -1 52 4 3 4 14 -2 24 -12 23 3 70 24 70 21 0 41 30 42 64 2 78 4 87 17
80 8 -5 8 -2 -2 9 -12 15 -11 17 7 17 12 0 26 9 32 20 6 11 22 23 36 26 21 5
25 11 21 32 -7 35 1 52 24 52 11 0 29 17 44 40 14 23 35 50 45 60 11 11 20 29
20 40 0 14 9 21 34 26 19 3 39 3 45 -1 6 -3 11 -2 11 2 0 5 15 26 34 46 24 26
39 35 51 31 15 -6 16 -4 6 14 -8 15 -8 22 -1 22 5 0 10 8 10 18 0 10 13 31 30
47 65 63 96 171 56 200 -8 7 -13 15 -10 18 3 3 -2 17 -11 31 -19 29 -19 29 50
30 35 1 56 -4 69 -16 21 -19 41 -24 31 -8 -12 19 14 10 28 -10 14 -19 14 -19
68 0 29 11 55 20 56 20 1 0 0 7 -3 15 -4 8 -12 15 -20 15 -14 0 -18 11 -15 42
1 10 -10 23 -26 31 -15 8 -38 29 -50 45 -19 25 -20 31 -7 36 8 3 27 -2 42 -12
14 -9 23 -11 19 -4 -5 7 -3 12 6 12 20 0 77 54 77 73 0 10 7 17 15 17 8 0 15
7 15 15 0 8 5 15 11 15 6 0 9 7 5 15 -4 10 3 17 22 21 48 10 70 25 65 44 -3
13 2 20 19 25 12 4 33 17 46 28 19 18 22 28 17 60 -5 24 -2 43 6 53 9 11 9 18
1 26 -7 7 -12 25 -12 40 0 15 -4 28 -10 28 -5 0 -12 11 -16 24 -3 14 -14 32
-25 42 -26 24 -24 30 14 39 20 4 26 9 17 12 -8 3 -28 15 -45 27 -16 11 -43 28
-59 36 -46 23 -150 179 -132 197 3 3 -3 13 -15 21 -17 12 -18 15 -5 25 13 10
13 14 0 25 -8 7 -14 10 -14 6 0 -4 -18 12 -40 37 -22 24 -38 50 -35 57 3 8 -7
12 -30 12 -27 0 -37 -6 -51 -30 -14 -22 -21 -27 -31 -18 -9 7 -17 7 -27 -1
-11 -9 -19 -7 -40 14 -26 26 -50 32 -61 15 -3 -5 -22 2 -42 16 -23 15 -39 21
-43 14 -4 -7 -13 -3 -24 9 -10 11 -36 23 -58 26 -33 6 -42 13 -54 41 -17 42
-17 44 0 44 21 0 30 20 17 33 -6 6 -11 17 -11 25 0 12 3 12 15 2 19 -16 19
-10 1 26 -8 15 -13 31 -10 36 3 4 45 8 95 8 82 0 89 -1 89 -20 0 -11 5 -20 10
-20 13 0 13 43 -1 57 -7 7 0 12 25 17 20 4 36 12 36 18 0 7 18 9 50 6 43 -4
50 -3 50 13 0 13 6 16 21 12 18 -5 21 -11 16 -44 -7 -50 9 -62 73 -57 27 1 50
0 50 -4 0 -4 14 -16 31 -28 32 -23 50 -21 30 4 -10 12 -8 16 8 21 21 6 29 39
12 49 -5 3 -7 23 -4 45 5 37 4 38 -21 34 -15 -3 -26 -1 -26 6 0 6 5 11 10 11
6 0 10 14 10 30 0 23 -5 30 -19 30 -11 0 -21 -6 -24 -12 -3 -10 -7 -10 -19 0
-10 8 -19 9 -22 3 -4 -5 2 -12 11 -14 10 -3 5 -5 -13 -6 -31 -1 -54 14 -54 36
0 7 6 12 13 10 6 -1 12 5 12 13 0 36 70 45 70 9 0 -8 9 -13 23 -12 12 2 22 -2
22 -7 0 -6 7 -10 15 -10 18 0 20 16 3 24 -9 4 -8 5 2 5 32 -2 40 2 40 21 0 10
8 23 17 29 14 8 15 12 4 25 -11 13 -11 17 3 22 24 9 19 21 -14 33 -16 5 -30
15 -30 20 0 6 -8 11 -18 11 -10 0 -27 7 -38 15 -26 19 -34 19 -34 -4 0 -22
-57 -35 -77 -19 -9 7 -15 5 -19 -6 -3 -9 -14 -16 -23 -16 -9 0 -22 -5 -28 -11
-13 -13 -33 -4 -33 15 0 22 -38 49 -78 55 -29 5 -40 13 -52 38 -8 18 -20 33
-26 33 -6 0 -22 10 -35 23 -30 29 -56 39 -65 25 -4 -7 -9 -6 -15 3 -4 7 -11
10 -15 7 -3 -4 3 -20 15 -37 17 -24 19 -34 11 -56 -10 -26 -6 -39 20 -65 35
-35 42 -50 31 -64 -7 -8 -10 -19 -7 -24 3 -5 -1 -18 -8 -28 -10 -13 -11 -24
-5 -36 6 -12 6 -18 -1 -18 -5 0 -10 -9 -10 -20 0 -13 -9 -22 -25 -26 -20 -5
-24 -10 -19 -30 9 -34 -21 -77 -47 -69 -15 5 -19 2 -19 -15 0 -16 -4 -20 -18
-16 -12 4 -25 -1 -36 -13 -20 -22 -116 -29 -116 -8 0 8 -3 8 -12 -1 -9 -9 -9
-15 0 -24 7 -7 12 -22 12 -34 0 -13 4 -25 9 -28 13 -8 1 -56 -15 -56 -7 0 -20
-10 -28 -21 -10 -15 -22 -20 -38 -17 -25 5 -52 -14 -40 -27 4 -4 -6 -1 -23 6
-16 8 -32 17 -35 21 -3 4 -25 10 -48 14 -41 6 -42 6 -48 -25 -4 -17 -10 -34
-14 -36 -5 -3 -6 -15 -2 -28 5 -21 4 -21 -15 -4 -11 9 -27 17 -35 17 -9 0 -21
7 -28 15 -7 9 -19 14 -26 11 -7 -3 -18 2 -25 10 -10 12 -10 15 2 12 17 -4 13
31 -6 51 -11 11 -9 19 11 48 30 45 30 57 -1 77 -27 18 -34 39 -11 30 8 -3 17
3 20 14 4 11 14 23 22 26 8 3 12 10 9 16 -3 5 -1 10 4 10 6 0 11 7 11 15 0 8
7 15 15 15 8 0 15 9 15 19 0 12 9 21 25 25 28 7 32 31 11 62 -8 11 -17 42 -21
69 -4 28 -12 56 -17 63 -7 8 -7 12 2 12 7 0 10 7 6 16 -5 13 -4 14 7 6 8 -7
17 -9 20 -5 4 3 7 1 7 -5 0 -5 -6 -12 -12 -14 -7 -3 -2 -7 10 -10 18 -5 25 -1
31 15 5 12 11 21 15 20 18 -8 35 -1 30 11 -3 8 -1 17 5 21 17 10 13 42 -6 50
-17 6 -17 7 0 16 10 6 17 22 17 39 0 21 4 28 14 24 17 -6 66 37 66 59 0 22
-78 100 -103 104 -25 4 -37 20 -37 52 0 13 -6 29 -14 35 -7 6 -16 27 -19 47
-4 30 -2 36 11 35 13 -1 16 6 14 27 -2 15 1 27 7 27 6 0 11 11 11 23 0 29 10
40 24 28 8 -7 37 15 89 65 60 58 77 80 77 102 0 15 5 33 11 39 6 6 12 48 12
94 2 75 -1 89 -25 130 -19 32 -24 49 -17 56 7 7 8 17 1 29 -10 20 1 64 16 64
5 0 12 21 15 46 5 49 18 64 53 64 26 0 50 27 46 51 -2 14 1 17 12 13 12 -5 15
-2 10 11 -6 14 -2 15 32 9 35 -6 38 -6 25 9 -8 10 -14 48 -16 94 -4 94 -17
133 -45 133 -11 0 -20 4 -20 9 0 5 -3 16 -6 25 -4 10 -1 16 8 16 7 0 21 9 31
20 9 11 23 20 31 20 8 0 16 6 19 14 3 8 19 17 36 21 16 3 35 13 42 21 6 8 24
14 39 14 15 0 33 7 41 16 8 10 23 14 41 12 16 -3 33 1 40 9 10 13 7 68 -8 121
-5 18 -2 22 15 22 20 0 21 5 21 75 0 43 4 75 10 75 6 0 10 11 10 25 0 14 5 25
10 25 6 0 9 12 8 28 -1 15 -1 40 0 55 l2 29 35 -22 c35 -21 37 -22 55 -5 19
17 22 17 55 0 33 -18 35 -18 54 -1 11 10 25 15 30 11 6 -3 11 0 11 9 0 8 12
25 28 38 15 12 26 30 24 39 -3 19 51 32 66 17 5 -5 25 -8 43 -6 29 3 34 7 32
26 -3 21 -1 22 17 9 14 -10 33 -12 58 -8 20 4 74 6 119 6 l81 -1 6 29 c3 15
10 26 15 22 18 -11 21 14 7 55 l-14 41 43 -7 c38 -5 44 -4 50 15 5 15 12 20
24 16 10 -3 24 1 31 10 9 10 17 12 30 5 14 -7 21 -4 33 13 l16 22 16 -23 c15
-20 19 -21 34 -9 9 7 35 19 57 26 33 11 40 17 37 32 -3 11 -9 19 -14 19 -14 0
-10 34 7 59 22 31 5 49 -31 33 -23 -11 -24 -10 -13 8 9 14 10 25 2 37 -7 12
-5 26 9 55 11 21 23 38 29 38 5 0 -6 18 -24 39 -29 35 -33 48 -35 103 -4 102
-15 143 -39 143 -11 0 -28 6 -37 14 -9 7 -23 11 -31 8 -23 -9 -26 32 -7 90 17
51 17 55 1 66 -10 7 -20 26 -24 43 -6 26 -3 35 16 50 22 18 23 23 13 66 -5 25
-13 50 -17 54 -13 12 -9 24 7 24 9 0 15 9 15 25 0 22 -4 25 -27 22 -21 -3 -27
-9 -25 -23 11 -57 6 -103 -12 -123 -24 -26 -44 -27 -54 -3 -7 18 -8 18 -26 0
-17 -16 -18 -18 -3 -18 9 0 17 -4 17 -10 0 -16 -38 -11 -48 6 -7 12 -20 15
-50 12 -23 -2 -43 -1 -44 3 -2 3 -18 9 -37 12 -28 6 -32 5 -21 -7 6 -8 21 -16
33 -18 23 -4 24 -6 13 -50 -7 -31 4 -36 27 -14 8 9 24 12 36 9 19 -5 20 -7 7
-22 -7 -9 -17 -35 -21 -58 -4 -24 -11 -43 -16 -43 -5 0 -9 -8 -9 -17 0 -27
-64 -66 -96 -60 -19 3 -28 0 -31 -13 -2 -9 -20 -23 -39 -30 -23 -9 -31 -17
-24 -24 28 -28 4 -23 -47 10 -43 27 -71 38 -106 40 -27 2 -63 10 -79 19 -36
18 -41 18 -33 5 3 -6 -5 -14 -19 -20 -14 -5 -26 -14 -26 -20 0 -15 -36 -12
-50 5 -8 9 -29 15 -55 15 -29 0 -45 -5 -49 -15 -8 -23 -166 -21 -209 2 -18 9
-36 16 -41 15 -4 -2 -44 9 -88 23 -44 14 -83 24 -85 21 -3 -3 -15 0 -26 6 -17
9 -19 8 -14 -6 7 -18 -8 -22 -18 -6 -4 6 -15 8 -24 5 -10 -3 -25 3 -36 14 -16
19 -19 19 -47 5 -63 -33 -198 -11 -198 31 0 22 -32 26 -54 8 -35 -31 -55 -57
-56 -74 0 -21 -26 -44 -34 -30 -4 5 -2 12 4 16 6 4 8 10 6 14 -9 14 -51 5
-108 -22 -42 -19 -58 -32 -58 -46 0 -14 -14 -26 -46 -40 -39 -18 -45 -24 -41
-43 3 -11 2 -29 -4 -39 -6 -11 -6 -20 1 -24 6 -4 6 -10 0 -18 -6 -7 -19 -24
-30 -39 -16 -21 -28 -26 -55 -25 -18 2 -37 6 -41 10 -11 11 -36 8 -29 -3 3 -5
2 -10 -2 -10 -5 0 -14 -13 -20 -30 -9 -23 -8 -32 3 -41 8 -6 14 -18 14 -25 0
-8 10 -14 23 -14 22 0 131 -89 112 -91 -6 -1 -30 -3 -56 -4 -25 -1 -50 -5 -57
-9 -7 -4 -16 -5 -21 -1 -5 3 -12 -4 -16 -15 -5 -16 -14 -20 -43 -18 -36 1 -36
1 -5 5 37 5 47 23 29 58 -11 21 -15 23 -25 11 -17 -20 -48 -26 -60 -12 -8 9
-1 22 24 46 33 32 45 60 26 60 -12 0 -20 47 -10 57 5 5 0 24 -10 43 -10 19
-16 40 -14 47 2 6 -6 13 -19 15 -12 2 -35 21 -53 45 -16 23 -41 45 -55 49 -27
8 -56 38 -66 69 -7 23 -54 75 -67 75 -5 0 -7 -7 -3 -15 9 -25 -28 -18 -44 9
-13 20 -45 50 -128 117 -7 6 -29 16 -50 23 -32 11 -37 17 -40 49 -2 26 3 42
18 57 15 15 19 27 14 47 -7 24 -5 26 22 20 26 -5 29 -3 31 24 1 16 3 35 4 42
1 6 -1 23 -5 36 -6 16 -5 21 3 17 7 -5 11 2 11 18 0 19 -5 26 -18 26 -11 0
-27 9 -37 20 -14 16 -15 23 -6 34 7 8 10 20 6 25 -4 7 5 8 26 4 24 -5 30 -3
24 6 -5 9 5 12 41 11 82 -3 106 -1 99 10 -10 16 2 12 42 -16 33 -22 38 -23 41
-9 2 9 -4 25 -14 36 -19 21 -13 24 17 8 11 -5 17 -14 14 -19 -3 -6 1 -7 10 -4
9 4 13 13 10 24 -3 11 0 20 10 24 8 3 15 12 15 20 0 9 9 20 20 26 18 10 19 13
6 31 -14 21 -10 59 7 71 6 3 11 24 12 45 3 53 15 85 31 79 7 -3 17 1 24 8 8
11 5 15 -15 20 -17 4 -25 13 -25 29 -1 12 -14 38 -30 57 -33 38 -42 100 -15
100 19 0 19 14 -3 75 -12 35 -26 54 -45 63 -18 9 -27 21 -27 37 0 27 -19 43
-30 26 -5 -9 -20 -2 -51 21 -49 38 -76 101 -49 118 10 6 3 19 -33 56 -26 26
-47 54 -47 63 0 11 3 12 11 4 9 -9 16 -9 29 0 16 9 16 14 5 31 -7 12 -16 38
-19 59 -6 33 -5 37 14 37 13 0 20 7 20 18 0 10 5 23 11 29 8 8 8 17 0 30 -7
14 -7 23 1 31 9 9 9 12 -1 12 -7 0 -15 -9 -18 -20 -7 -25 -31 -26 -40 -2 -10
26 -26 32 -38 15 -9 -11 -14 -13 -19 -5 -4 7 -26 12 -49 12 -30 0 -54 8 -82
27 -52 35 -58 36 -88 5z m-112 -1492 c3 -5 1 -10 -4 -10 -6 0 -11 5 -11 10 0
6 2 10 4 10 3 0 8 -4 11 -10z m209 -81 c-8 -14 -24 -10 -24 6 0 9 6 12 15 9 8
-4 12 -10 9 -15z m-972 -577 c10 -18 14 -32 10 -32 -16 0 -31 17 -41 44 -15
39 7 30 31 -12z m426 -143 c12 -19 11 -19 -8 -9 -11 6 -20 15 -20 20 0 17 15
11 28 -11z m501 -1036 c6 -13 5 -22 -5 -31 -8 -8 -14 -9 -15 -2 -3 20 -4 25
-12 38 -5 8 -3 12 7 12 8 0 19 -8 25 -17z m-1449 -1177 c0 -2 -7 -9 -15 -16
-12 -10 -15 -10 -15 4 0 9 7 16 15 16 8 0 15 -2 15 -4z m-213 -552 c-3 -3 -12
-4 -19 -1 -8 3 -5 6 6 6 11 1 17 -2 13 -5z m3985 -306 c-7 -7 -12 -2 -17 12
-5 15 -2 25 6 31 17 10 26 -28 11 -43z m-1365 -1453 c11 -24 1 -36 -12 -15 -4
6 -12 7 -18 3 -7 -4 -18 -8 -24 -9 -16 -3 1 32 19 39 21 9 23 8 35 -18z m533
-756 c0 -36 -13 -79 -25 -79 -7 0 -25 -10 -41 -22 -24 -19 -27 -20 -21 -4 4
10 7 22 7 27 0 5 6 9 14 9 20 0 40 65 32 103 l-6 32 20 -25 c11 -14 20 -32 20
-41z m-210 -69 c0 -5 -5 -10 -11 -10 -5 0 -7 5 -4 10 3 6 8 10 11 10 2 0 4 -4
4 -10z m-13 -36 c-3 -3 -12 -4 -19 -1 -8 3 -5 6 6 6 11 1 17 -2 13 -5z m113
-31 c0 -7 -7 -13 -15 -13 -9 0 -12 -6 -9 -15 11 -27 -27 -31 -49 -4 -17 21
-17 24 -3 27 9 2 14 7 12 10 -2 4 11 8 30 8 22 0 34 -4 34 -13z m-10 -82 c0
-5 3 -16 6 -25 4 -11 1 -16 -10 -16 -9 0 -16 4 -16 9 0 5 -3 16 -6 25 -4 11
-1 16 10 16 9 0 16 -4 16 -9z"/>
<path d="M9545 14520 c-3 -5 -2 -10 4 -10 5 0 13 5 16 10 3 6 2 10 -4 10 -5 0
-13 -4 -16 -10z"/>
<path d="M9687 14449 c8 -8 16 -8 30 0 16 9 14 10 -11 11 -22 0 -27 -3 -19
-11z"/>
<path d="M12137 13214 c3 -9 0 -20 -8 -24 -11 -7 -9 -14 10 -34 13 -13 20 -29
16 -35 -3 -7 2 -11 14 -11 28 0 41 28 28 59 -17 40 -75 83 -60 45z"/>
<path d="M11991 12982 c0 -12 -8 -25 -16 -29 -13 -5 -13 -8 5 -20 23 -16 47
-8 31 10 -5 7 -11 23 -14 37 -4 24 -4 24 -6 2z"/>
<path d="M9600 12709 c0 -11 24 -39 34 -39 3 0 6 11 6 25 0 18 -5 25 -20 25
-11 0 -20 -5 -20 -11z"/>
<path d="M7950 12590 c0 -6 7 -10 15 -10 8 0 15 2 15 4 0 2 -7 6 -15 10 -8 3
-15 1 -15 -4z"/>
<path d="M7950 12559 c0 -5 5 -7 10 -4 6 3 10 8 10 11 0 2 -4 4 -10 4 -5 0
-10 -5 -10 -11z"/>
<path d="M7980 12565 c0 -8 27 -35 34 -35 14 0 4 20 -14 30 -11 6 -20 8 -20 5z"/>
<path d="M9960 12520 c-13 -9 -13 -11 0 -20 15 -10 25 0 18 20 -2 6 -8 6 -18
0z"/>
<path d="M8016 12495 c4 -8 8 -15 10 -15 2 0 4 7 4 15 0 8 -4 15 -10 15 -5 0
-7 -7 -4 -15z"/>
<path d="M9894 12450 c-30 -11 -36 -36 -19 -69 8 -16 12 -31 9 -33 -2 -3 2
-10 9 -16 11 -9 13 -6 9 17 -2 15 1 45 7 66 6 22 9 40 8 41 -1 1 -11 -2 -23
-6z"/>
<path d="M9974 12435 c21 -16 32 -13 21 4 -3 6 -14 11 -23 11 -15 -1 -15 -2 2
-15z"/>
<path d="M9935 12390 c3 -5 8 -10 11 -10 2 0 4 5 4 10 0 6 -5 10 -11 10 -5 0
-7 -4 -4 -10z"/>
<path d="M8295 12189 c-4 -13 0 -28 11 -40 9 -10 14 -19 9 -19 -4 0 4 -9 18
-20 30 -24 63 -26 71 -4 4 11 1 14 -12 10 -19 -6 -35 4 -67 42 -15 18 -16 25
-6 31 10 7 9 9 -3 14 -9 4 -17 -1 -21 -14z"/>
<path d="M12492 12152 c-9 -27 -8 -29 9 -25 20 6 24 20 10 41 -6 10 -11 6 -19
-16z"/>
<path d="M12417 12158 c-37 -13 -32 -40 9 -49 27 -5 32 -2 41 22 16 41 4 47
-50 27z"/>
<path d="M8461 12153 c-1 -7 -8 -10 -16 -7 -17 7 -21 -11 -4 -22 14 -8 33 11
26 28 -4 9 -6 9 -6 1z"/>
<path d="M12370 12100 c0 -5 5 -10 11 -10 5 0 7 5 4 10 -3 6 -8 10 -11 10 -2
0 -4 -4 -4 -10z"/>
<path d="M8495 12010 c3 -5 11 -10 16 -10 6 0 7 5 4 10 -3 6 -11 10 -16 10 -6
0 -7 -4 -4 -10z"/>
<path d="M8950 11454 c0 -4 17 -23 38 -42 35 -33 36 -35 16 -42 -12 -5 -24
-18 -27 -30 -5 -19 -2 -21 19 -17 20 3 24 0 24 -19 0 -14 5 -23 13 -21 19 3
27 20 16 33 -8 9 -5 11 11 7 20 -5 22 -3 18 33 -3 42 -36 75 -66 67 -10 -2
-27 5 -40 17 -12 11 -22 18 -22 14z"/>
<path d="M8470 11200 c0 -5 -8 -6 -17 -3 -17 7 -17 6 0 -11 25 -26 21 -36 -13
-29 -27 5 -30 3 -30 -21 0 -14 -4 -26 -10 -26 -5 0 -10 -18 -10 -40 0 -27 -6
-42 -17 -49 -20 -11 -17 -12 44 -16 24 -2 45 1 49 6 3 5 10 7 15 4 5 -4 9 -1
9 4 0 6 6 11 14 11 8 0 17 11 20 25 4 14 11 25 17 25 8 0 7 5 -1 15 -10 12 -9
15 5 15 17 0 17 1 2 18 -10 10 -18 31 -19 45 -1 15 -5 27 -8 28 -3 0 -15 2
-27 5 -13 2 -23 0 -23 -6z m-28 -82 c-7 -7 -12 -8 -12 -2 0 14 12 26 19 19 2
-3 -1 -11 -7 -17z"/>
<path d="M8675 11020 c-3 -5 1 -10 9 -10 8 0 18 5 21 10 3 6 -1 10 -9 10 -8 0
-18 -4 -21 -10z"/>
<path d="M8385 10900 c-3 -5 -1 -10 4 -10 6 0 11 5 11 10 0 6 -2 10 -4 10 -3
0 -8 -4 -11 -10z"/>
<path d="M10805 10113 c-3 -10 -1 -19 4 -21 6 -2 11 -8 11 -13 0 -4 -6 -6 -14
-3 -8 3 -26 -2 -40 -11 -14 -10 -33 -14 -42 -11 -11 4 -15 2 -11 -8 3 -8 -1
-20 -8 -26 -12 -10 -12 -16 1 -42 10 -19 21 -28 30 -24 37 14 106 -54 75 -74
-26 -16 42 -41 116 -43 22 0 35 -6 38 -18 7 -21 29 -40 51 -43 14 -2 37 -36
64 -95 10 -23 30 -25 30 -3 0 11 6 22 13 25 9 3 8 16 -6 55 -10 28 -16 56 -12
61 3 6 -3 16 -15 23 -11 7 -20 22 -20 34 0 22 -28 54 -48 54 -7 0 -12 5 -12
10 0 20 -81 89 -98 84 -13 -5 -14 -4 -3 4 16 12 7 48 -16 56 -9 4 -20 1 -25
-6 -5 -9 -10 -10 -15 -2 -5 6 -16 13 -25 17 -11 4 -15 12 -12 22 3 8 4 15 1
15 -3 0 -8 -8 -12 -17z"/>
<path d="M10936 10057 c3 -10 9 -15 12 -12 3 3 0 11 -7 18 -10 9 -11 8 -5 -6z"/>
<path d="M7540 9995 c0 -8 2 -15 4 -15 2 0 6 7 10 15 3 8 1 15 -4 15 -6 0 -10
-7 -10 -15z"/>
<path d="M7530 9960 c0 -5 5 -10 10 -10 6 0 10 5 10 10 0 6 -4 10 -10 10 -5 0
-10 -4 -10 -10z"/>
<path d="M7487 9913 c-7 -11 10 -40 18 -31 4 4 3 14 -3 24 -5 9 -12 12 -15 7z"/>
<path d="M11953 9702 c-8 -5 2 -15 27 -30 24 -13 41 -18 45 -12 10 16 -3 29
-25 23 -14 -4 -20 0 -20 11 0 17 -8 20 -27 8z"/>
<path d="M11090 9639 c0 -5 5 -7 10 -4 6 3 10 8 10 11 0 2 -4 4 -10 4 -5 0
-10 -5 -10 -11z"/>
<path d="M12086 9635 c-3 -9 0 -15 9 -15 16 0 20 16 6 24 -5 3 -11 -1 -15 -9z"/>
<path d="M11970 9620 c0 -11 -5 -20 -11 -20 -5 0 -7 -5 -4 -10 4 -6 -10 -17
-29 -25 -24 -10 -36 -22 -36 -35 0 -18 -3 -19 -20 -8 -11 7 -21 19 -24 28 -2
9 -4 6 -5 -7 -2 -41 -23 -73 -48 -73 -12 0 -23 -4 -23 -10 0 -5 -16 -28 -36
-50 -20 -22 -35 -42 -33 -43 37 -27 63 -37 79 -32 16 5 20 2 20 -17 0 -17 -3
-19 -9 -9 -5 8 -7 -5 -4 -35 3 -27 12 -56 19 -65 8 -8 14 -22 14 -30 0 -8 12
-32 25 -54 14 -22 25 -49 25 -60 0 -22 -38 -62 -54 -57 -5 2 -4 -4 4 -12 7 -9
19 -16 26 -16 7 0 29 -9 48 -19 23 -13 37 -16 44 -9 6 6 16 7 24 2 7 -5 21 -7
31 -6 9 2 20 -5 24 -14 3 -10 15 -26 25 -36 10 -10 18 -25 18 -33 0 -8 9 -15
19 -15 17 0 19 -4 10 -32 -5 -18 -9 -41 -9 -51 0 -19 42 -41 48 -25 2 5 11 3
19 -4 14 -11 15 -8 8 21 -5 24 -3 36 6 43 9 5 4 6 -13 2 -27 -6 -41 10 -16 18
10 4 10 13 0 45 -7 25 -9 50 -4 64 8 22 9 21 21 -11 10 -30 13 -32 26 -19 8 8
15 26 16 39 0 34 -23 120 -33 120 -4 0 -8 5 -8 10 0 6 7 10 17 10 15 0 15 2
-1 19 -12 13 -14 20 -5 23 16 5 -10 79 -31 86 -29 10 -60 46 -60 69 0 13 -11
35 -25 49 -22 22 -45 56 -45 67 0 2 18 12 40 22 45 20 70 52 70 91 0 17 -6 28
-20 31 -13 3 -19 13 -17 26 1 13 -4 22 -13 22 -9 0 -14 9 -13 20 2 24 -13 35
-49 35 -21 0 -28 -5 -28 -20z"/>
<path d="M6924 9566 c-17 -6 -29 -16 -27 -23 5 -13 31 -6 52 14 18 19 12 21
-25 9z"/>
<path d="M11210 8964 c0 -8 5 -12 10 -9 6 4 8 11 5 16 -9 14 -15 11 -15 -7z"/>
<path d="M12110 8711 c0 -5 6 -12 13 -14 10 -4 10 -6 0 -6 -7 -1 -13 -8 -13
-16 0 -25 -22 -42 -47 -37 -13 2 -23 8 -23 13 0 5 -13 9 -30 9 -33 0 -36 -6
-15 -34 21 -27 19 -43 -6 -51 -11 -4 -28 -25 -39 -49 -10 -24 -26 -46 -35 -50
-11 -4 -14 -12 -10 -25 7 -22 -17 -76 -37 -85 -7 -3 3 -3 22 0 19 4 41 11 48
17 9 7 18 5 30 -7 29 -26 65 -20 90 14 18 24 20 34 12 50 -7 14 -7 20 0 20 5
0 10 9 10 20 0 15 7 20 25 20 18 0 25 5 25 19 0 11 5 23 11 27 6 3 18 22 25
41 14 31 13 37 -6 67 -11 19 -20 41 -20 50 0 9 -7 16 -15 16 -8 0 -15 -4 -15
-9z"/>
<path d="M9070 7470 c0 -5 -9 -10 -20 -10 -18 0 -19 -3 -10 -20 8 -14 8 -20 0
-20 -6 0 -8 -5 -5 -11 4 -6 9 -8 12 -5 3 3 14 1 24 -5 13 -6 19 -6 19 1 0 5
-7 10 -15 10 -8 0 -15 7 -15 15 0 8 7 15 15 15 8 0 15 9 15 20 0 11 -4 20 -10
20 -5 0 -10 -4 -10 -10z"/>
<path d="M11584 7291 c10 -15 -24 -63 -41 -57 -8 3 -4 -6 8 -23 29 -39 20 -75
-21 -90 -17 -5 -44 -20 -60 -31 -29 -20 -31 -21 -66 -4 -30 15 -37 15 -45 3
-4 -8 -5 -17 0 -22 18 -18 -1 -55 -30 -61 -16 -3 -39 -15 -51 -26 -12 -11 -28
-20 -36 -20 -11 0 -13 -9 -9 -35 5 -29 3 -35 -11 -35 -10 0 -28 7 -41 17 -22
15 -25 15 -36 0 -7 -10 -22 -17 -34 -17 -12 0 -20 -4 -17 -9 3 -5 -2 -8 -11
-7 -10 0 -19 -9 -23 -24 -6 -21 -8 -22 -15 -8 -4 10 -10 16 -14 13 -12 -7 -52
25 -45 37 4 6 1 14 -6 18 -9 6 -7 10 8 14 20 7 37 62 21 72 -11 6 -30 -31 -21
-41 4 -5 2 -5 -4 -2 -17 10 -35 -16 -24 -33 6 -8 10 -28 10 -43 0 -24 -3 -27
-20 -22 -10 3 -37 1 -60 -6 -35 -11 -40 -16 -40 -42 0 -21 -6 -30 -21 -34 -19
-5 -20 -11 -15 -66 8 -68 -9 -107 -46 -107 -12 0 -18 -3 -15 -7 4 -3 1 -13 -6
-21 -10 -13 -9 -14 1 -8 19 11 43 -24 36 -53 -3 -14 0 -27 8 -32 18 -12 30
-11 23 1 -9 15 7 12 54 -11 30 -14 46 -17 55 -10 9 8 16 1 26 -27 16 -43 21
-61 22 -82 1 -19 28 -51 39 -45 4 3 10 1 14 -5 3 -5 17 -10 31 -10 17 0 23 4
18 12 -4 7 7 2 24 -11 18 -12 39 -36 47 -52 9 -16 33 -38 55 -49 32 -16 40
-26 40 -48 0 -48 3 -67 13 -79 17 -22 27 -14 22 17 -3 17 -1 30 4 30 14 0 33
-28 26 -40 -4 -6 -1 -18 6 -26 6 -8 9 -17 6 -21 -4 -3 -9 1 -12 9 -4 10 -14
14 -26 11 -43 -11 -6 -37 47 -34 18 1 35 -2 39 -8 3 -6 1 -11 -6 -11 -6 0 -1
-8 12 -19 23 -18 24 -18 60 11 21 17 40 41 43 54 4 13 13 24 20 24 8 0 28 20
45 45 23 35 32 61 37 113 4 37 10 72 14 77 5 6 10 21 12 35 1 14 13 29 25 35
12 5 24 18 27 28 4 16 12 19 40 15 34 -4 36 -2 34 22 -2 19 1 24 15 22 12 -2
17 4 17 22 0 14 5 28 10 31 6 3 10 19 10 36 0 20 5 29 16 29 10 0 14 6 11 14
-3 8 0 17 8 20 9 3 11 13 7 28 -5 20 -4 21 11 9 14 -11 18 -11 22 0 6 17 1 61
-9 77 -4 7 2 22 14 34 12 13 19 31 16 40 -2 10 0 15 5 12 15 -9 36 13 59 62
15 29 28 44 41 44 29 0 22 18 -8 22 l-28 3 21 21 c12 12 28 24 35 26 12 5 12
9 1 28 -12 20 -12 21 8 15 20 -6 21 -5 11 14 -8 14 -8 21 -1 21 5 0 10 4 10 8
0 10 -60 10 -75 0 -14 -8 -77 31 -69 43 10 17 -26 21 -50 5 -23 -15 -26 -14
-68 19 -23 19 -51 35 -60 35 -12 0 -18 10 -20 32 -2 24 -11 36 -33 48 -16 8
-32 18 -33 23 -2 4 -13 12 -24 18 -14 8 -18 8 -14 0z m-569 -531 c3 -5 1 -10
-4 -10 -6 0 -11 5 -11 10 0 6 2 10 4 10 3 0 8 -4 11 -10z"/>
<path d="M11020 7036 c0 -26 13 -35 25 -16 3 6 -1 17 -9 26 -15 14 -16 13 -16
-10z"/>
<path d="M10101 7041 c-10 -6 -9 -10 3 -14 8 -3 18 -2 21 3 8 13 -9 20 -24 11z"/>
<path d="M12051 7021 c-7 -5 -10 -14 -6 -20 4 -7 1 -19 -6 -27 -14 -17 -7 -25
33 -42 31 -13 47 0 28 23 -6 7 -12 26 -13 41 -3 30 -14 38 -36 25z"/>
<path d="M9990 6974 c0 -8 4 -13 9 -10 5 4 21 -8 36 -26 l27 -32 -4 35 c-3 38
-13 49 -45 49 -14 0 -23 -6 -23 -16z"/>
<path d="M10090 6971 c0 -5 7 -12 16 -15 14 -5 15 -4 4 9 -14 17 -20 19 -20 6z"/>
<path d="M9963 6935 c-3 -9 2 -22 13 -30 23 -17 23 -16 17 18 -6 30 -20 36
-30 12z"/>
<path d="M9960 6869 c0 -6 -9 -8 -20 -4 -11 4 -20 2 -20 -4 0 -16 36 -13 50 4
9 10 9 15 1 15 -6 0 -11 -5 -11 -11z"/>
<path d="M11363 5941 c4 -16 0 -21 -14 -21 -10 0 -18 -3 -17 -7 4 -21 -16 -60
-35 -68 -15 -7 -22 -19 -22 -37 1 -16 -5 -28 -12 -28 -18 0 -16 -7 8 -46 24
-39 41 -42 70 -13 15 15 19 28 15 45 -9 33 3 95 18 93 28 -3 35 2 32 29 -2 15
-4 32 -5 37 0 6 -11 16 -22 24 -20 12 -21 11 -16 -8z"/>
</g>
</svg>
