<?xml version="1.0" standalone="no"?>
<!DOCTYPE svg PUBLIC "-//W3C//DTD SVG 20010904//EN"
 "http://www.w3.org/TR/2001/REC-SVG-20010904/DTD/svg10.dtd">
<svg version="1.0" xmlns="http://www.w3.org/2000/svg"
 width="454.218448pt" height="388.751458pt" viewBox="0 0 454.218448 388.751458"
 preserveAspectRatio="xMidYMid meet">
<metadata>
Created by potrace 1.15, written by Peter Selinger 2001-2017
</metadata>
<g transform="translate(-762.281552,1188.388062) scale(0.100000,-0.100000)"
fill="#222222" stroke="none">
<path d="M11801 11845 c-23 -25 -48 -45 -55 -45 -7 0 -26 12 -42 27 -24 22
-29 24 -32 10 -2 -9 -12 -17 -23 -17 -10 0 -19 -5 -19 -11 0 -8 -4 -8 -14 0
-11 9 -15 4 -20 -27 -5 -31 -12 -41 -41 -55 -20 -9 -44 -17 -55 -17 -33 0 -48
-10 -43 -31 3 -10 -2 -30 -11 -44 -9 -13 -16 -33 -16 -45 0 -11 -7 -20 -15
-20 -8 0 -15 -9 -15 -20 0 -11 -4 -20 -9 -20 -11 0 -25 -38 -42 -108 -8 -31
-21 -58 -31 -63 -10 -5 -18 -16 -18 -24 0 -8 -8 -15 -17 -15 -10 0 -27 -7 -37
-15 -11 -8 -36 -15 -55 -15 -30 0 -40 -6 -60 -36 -15 -21 -35 -37 -53 -41 -21
-4 -30 -13 -36 -37 -6 -22 -19 -36 -44 -48 -20 -10 -39 -27 -43 -38 -4 -14
-15 -20 -36 -20 -24 0 -29 -4 -29 -25 0 -18 -5 -25 -19 -25 -11 0 -26 -7 -35
-15 -8 -8 -21 -15 -30 -15 -8 0 -18 -4 -21 -10 -3 -5 -21 -10 -38 -10 -29 0
-34 -5 -53 -53 -19 -47 -25 -53 -58 -58 -20 -3 -44 -13 -54 -22 -11 -10 -22
-13 -28 -8 -14 15 -66 0 -71 -20 -4 -15 -12 -17 -57 -12 -28 3 -57 10 -64 16
-14 11 -32 -5 -32 -29 0 -6 -8 -18 -17 -25 -10 -7 -15 -9 -10 -4 10 12 -22 45
-39 38 -9 -3 -20 10 -33 40 -16 36 -27 47 -56 57 -20 6 -34 17 -32 23 2 7 -2
20 -11 29 -14 17 -16 17 -27 1 -11 -14 -17 -15 -39 -5 -14 6 -28 7 -31 3 -11
-18 -60 5 -63 29 -3 17 -6 20 -12 10 -6 -10 -12 -11 -22 -3 -18 14 -78 -3 -78
-23 0 -8 -6 -17 -14 -20 -8 -3 -17 -16 -20 -30 -4 -16 -14 -24 -27 -24 -25 0
-107 -57 -114 -80 -5 -16 -72 -47 -90 -41 -5 2 -43 5 -82 8 -72 4 -73 4 -73
-21 0 -24 0 -24 -32 -9 -28 15 -32 15 -43 0 -7 -9 -15 -14 -19 -10 -4 4 -11 1
-15 -6 -6 -10 -14 -10 -28 -3 -17 10 -18 7 -15 -26 4 -32 3 -35 -11 -24 -13
11 -16 10 -22 -7 -3 -12 -11 -21 -16 -21 -6 0 -7 5 -4 10 3 6 -1 10 -9 10 -11
0 -16 -10 -16 -31 0 -22 -5 -32 -20 -36 -11 -3 -20 -9 -20 -14 0 -5 -13 -9
-30 -9 -23 0 -30 -4 -30 -20 0 -13 -7 -20 -20 -20 -11 0 -23 -8 -27 -17 -7
-20 -71 -83 -83 -83 -11 0 -20 -27 -20 -61 0 -22 -5 -29 -20 -29 -14 0 -22
-11 -29 -37 -6 -21 -11 -43 -11 -50 0 -6 -9 -15 -20 -18 -23 -7 -27 -35 -5
-35 8 0 15 -5 15 -11 0 -5 -8 -9 -17 -8 -47 7 -90 -32 -84 -77 2 -20 -2 -22
-37 -20 -37 2 -38 1 -27 -21 13 -25 49 -56 79 -66 11 -5 16 -13 12 -23 -3 -9
-6 -31 -6 -50 0 -27 -4 -34 -20 -34 -13 0 -20 -7 -20 -20 0 -11 -7 -20 -15
-20 -12 0 -13 -4 -6 -18 5 -10 13 -51 17 -92 4 -41 13 -90 21 -107 7 -18 10
-33 7 -33 -4 0 1 -9 10 -19 16 -18 16 -21 -1 -57 -16 -34 -24 -40 -66 -48 -37
-8 -49 -14 -53 -33 -4 -13 -10 -23 -15 -23 -5 0 -9 -9 -9 -20 0 -11 -4 -20
-10 -20 -5 0 -10 -12 -10 -27 -1 -36 -21 -63 -48 -63 -15 0 -22 -7 -24 -27 -3
-24 -7 -28 -34 -27 -37 2 -64 -38 -64 -94 -1 -38 -16 -113 -44 -215 -18 -67
-15 -79 22 -75 18 2 29 -3 37 -18 19 -37 36 -53 51 -47 8 3 14 12 14 20 0 8 6
13 13 10 14 -5 11 -75 -5 -94 -6 -7 -7 -13 -2 -13 5 0 1 -7 -10 -15 -20 -15
-16 -45 8 -45 7 0 16 -9 19 -19 3 -14 1 -18 -9 -14 -8 3 -16 -5 -20 -21 -7
-30 -12 -31 -42 -10 -24 17 -44 11 -36 -11 4 -10 0 -12 -15 -8 -11 3 -18 10
-15 15 4 6 1 14 -7 18 -7 5 -13 24 -12 44 1 27 -5 39 -24 51 -14 10 -22 22
-19 31 7 17 -29 38 -55 31 -11 -3 -33 0 -50 6 -21 8 -32 9 -37 1 -12 -18 -59
-9 -102 20 -60 39 -90 49 -90 30 0 -9 -6 -14 -12 -11 -7 2 -12 10 -11 16 2 6
-2 11 -7 11 -6 0 -10 7 -10 15 0 8 -3 15 -7 16 -5 0 -19 3 -33 5 -26 5 -80
-13 -80 -26 0 -4 -9 -10 -19 -13 -26 -6 -58 -56 -43 -66 7 -4 8 -12 2 -21 -6
-8 -10 -28 -10 -43 0 -20 -6 -30 -20 -34 -23 -6 -25 -14 -8 -31 6 -6 13 -20
15 -30 1 -11 11 -39 21 -63 16 -37 17 -46 6 -57 -16 -15 -17 -41 -4 -97 8 -32
6 -42 -6 -51 -8 -7 -11 -14 -5 -15 6 -3 6 -19 -2 -46 -9 -35 -16 -43 -34 -43
-13 0 -28 -9 -35 -20 -7 -11 -19 -20 -26 -20 -7 0 -11 -4 -8 -8 3 -4 -11 -17
-30 -27 -19 -10 -33 -24 -30 -31 3 -7 -2 -15 -11 -19 -11 -4 -13 -9 -6 -16 5
-5 17 -7 27 -3 13 5 16 13 11 32 -5 22 -3 24 19 20 14 -3 23 -2 21 3 -10 14
45 2 63 -14 21 -19 68 -23 74 -6 3 8 16 10 40 5 36 -6 36 -7 27 -39 -5 -17 -9
-33 -9 -33 0 -1 6 -2 13 -1 32 1 48 -4 46 -15 -1 -7 1 -21 5 -30 6 -13 12 -15
30 -7 13 6 31 7 45 1 13 -5 48 -4 82 1 54 9 59 12 53 31 -3 12 -6 23 -6 26 -1
27 4 40 14 40 6 0 8 -3 5 -7 -7 -6 21 -32 36 -33 4 0 7 7 7 15 0 17 16 20 25
5 3 -6 26 -8 53 -5 34 4 52 13 65 30 10 14 25 25 34 25 12 0 14 10 10 50 -5
47 3 64 19 39 12 -20 88 -49 96 -37 4 9 11 8 24 -3 15 -12 16 -12 10 7 -5 16
0 23 19 32 21 10 23 15 15 36 -5 13 -7 26 -4 29 2 2 -9 18 -25 36 -16 17 -25
31 -21 31 4 0 10 10 13 21 4 15 11 20 21 16 11 -5 16 0 16 14 0 11 -7 22 -15
25 -10 4 -15 20 -15 49 0 37 3 42 19 38 18 -5 36 20 26 37 -9 14 52 -19 65
-35 11 -14 17 -13 47 5 31 18 36 18 57 5 12 -8 25 -13 28 -10 3 3 8 -6 10 -20
3 -14 1 -25 -4 -25 -5 0 -1 -11 9 -25 22 -30 53 -33 53 -5 0 22 20 26 38 8 15
-15 92 9 92 28 0 25 20 25 51 1 26 -20 35 -22 55 -13 13 6 22 17 19 24 -3 9 6
12 33 11 46 -1 117 14 136 30 7 6 21 8 30 5 9 -4 24 0 34 8 25 22 73 28 101
13 26 -13 65 -4 84 20 6 7 10 6 14 -2 7 -18 43 -16 43 2 0 8 5 15 11 15 5 0 7
5 4 10 -3 6 3 10 13 10 26 0 42 21 49 64 3 20 10 36 15 36 5 0 16 7 25 15 10
11 29 14 62 12 54 -4 71 -12 71 -32 0 -23 33 -85 45 -85 23 0 33 -21 21 -46
-12 -26 -26 -30 -43 -13 -8 8 -17 8 -29 1 -16 -9 -16 -10 4 -16 12 -4 29 -22
37 -41 9 -18 25 -35 36 -38 13 -3 19 -14 19 -32 0 -24 2 -25 35 -19 24 4 41 2
52 -7 15 -13 16 -11 11 14 -4 19 -1 30 8 34 9 3 12 13 8 29 -4 14 -1 31 6 39
7 9 8 15 2 15 -10 0 -33 49 -38 80 -1 8 -5 22 -9 31 -4 12 1 18 19 23 14 3 26
13 26 20 0 8 20 35 45 60 25 26 45 53 45 60 0 7 9 21 20 31 11 10 19 25 18 34
-2 10 5 17 19 19 12 2 29 14 37 27 9 14 22 22 29 20 9 -4 11 9 9 51 -3 48 -1
59 21 82 42 45 49 69 42 132 l-7 58 50 12 c41 11 53 19 66 47 9 19 16 40 16
47 0 7 9 25 21 40 11 15 19 33 16 40 -7 17 12 36 35 36 29 0 33 27 15 99 -29
119 -30 131 -12 131 12 0 14 4 5 19 -17 33 -12 123 10 163 10 20 22 66 26 102
4 36 10 63 15 61 4 -3 16 5 26 18 10 13 23 22 28 20 6 -2 20 19 33 47 13 27
27 50 32 50 5 0 7 7 4 15 -4 9 0 15 9 15 8 0 18 7 21 16 3 8 14 14 25 12 22
-4 61 28 61 51 1 22 33 59 63 70 24 10 37 47 37 113 0 15 10 48 22 72 l22 45
30 -17 c17 -9 43 -27 57 -40 25 -22 30 -23 85 -13 64 12 93 38 64 56 -21 13
-9 21 25 17 25 -3 36 0 41 12 3 9 10 14 14 11 5 -3 6 4 3 16 -3 12 2 31 14 47
11 15 23 40 27 56 l7 29 34 -33 c19 -19 38 -30 42 -26 5 4 -1 14 -11 22 -18
13 -17 14 17 14 57 0 96 51 88 116 -2 17 68 56 89 49 9 -3 23 1 30 10 11 13
15 13 40 0 26 -13 30 -13 44 1 9 8 16 21 16 28 0 7 18 20 40 29 24 9 44 26 52
41 6 15 22 29 36 33 20 5 23 10 19 33 -4 17 1 38 14 59 21 34 20 88 -1 101 -6
4 -16 36 -21 71 -17 101 -16 112 7 124 37 18 55 38 50 52 -3 8 -1 11 4 8 5 -3
18 -1 29 4 14 8 20 7 25 -4 3 -8 10 -15 15 -15 6 0 8 7 5 15 -7 17 4 19 25 6
19 -12 94 37 87 56 -3 8 1 16 9 19 8 4 15 10 15 16 0 5 -4 7 -9 3 -6 -3 -15 3
-20 14 -9 16 -7 21 8 26 16 5 20 17 23 76 l3 71 -42 46 c-24 26 -43 41 -43 34
0 -6 -10 -12 -22 -12 -12 0 -18 -3 -15 -7 9 -9 -44 -35 -60 -29 -9 4 -13 -3
-13 -19 0 -30 -9 -31 -44 -4 -14 11 -26 17 -26 13 0 -10 -33 25 -46 49 -9 16
-15 13 -53 -28z m59 -21 c0 -8 -4 -12 -10 -9 -5 3 -10 10 -10 16 0 5 5 9 10 9
6 0 10 -7 10 -16z m-3245 -2934 c3 -6 -1 -7 -9 -4 -18 7 -21 14 -7 14 6 0 13
-4 16 -10z m-25 -24 c0 -15 -18 -31 -26 -23 -7 7 7 37 17 37 5 0 9 -6 9 -14z
m-705 -114 c-3 -3 -11 0 -18 7 -9 10 -8 11 6 5 10 -3 15 -9 12 -12z"/>
<path d="M9966 8307 c2 -71 4 -77 14 -77 31 0 32 93 1 110 -15 8 -17 3 -15
-33z"/>
<path d="M9939 8183 c-11 -13 -11 -17 -1 -21 7 -2 19 -10 27 -19 8 -8 15 -10
15 -4 0 5 -7 14 -17 19 -10 6 -14 16 -10 26 8 21 3 20 -14 -1z"/>
<path d="M10035 8170 c5 -16 2 -23 -14 -27 -29 -7 -16 -23 19 -23 46 0 51 32
9 58 -19 12 -20 11 -14 -8z"/>
<path d="M10217 8119 c4 -13 8 -18 11 -10 2 7 -1 18 -6 23 -8 8 -9 4 -5 -13z"/>
<path d="M10135 8120 c3 -5 8 -10 11 -10 2 0 4 5 4 10 0 6 -5 10 -11 10 -5 0
-7 -4 -4 -10z"/>
</g>
</svg>
