<?xml version="1.0" standalone="no"?>
<!DOCTYPE svg PUBLIC "-//W3C//DTD SVG 20010904//EN"
 "http://www.w3.org/TR/2001/REC-SVG-20010904/DTD/svg10.dtd">
<svg version="1.0" xmlns="http://www.w3.org/2000/svg"
 width="433.455816pt" height="513.555427pt" viewBox="0 0 433.455816 513.555427"
 preserveAspectRatio="xMidYMid meet">
<metadata>
Created by potrace 1.15, written by Peter Selinger 2001-2017
</metadata>
<g transform="translate(-793.918460,1193.707662) scale(0.100000,-0.100000)"
fill="#222222" stroke="none">
<path d="M9087 11925 c-5 -10 0 -15 14 -15 12 0 19 5 17 12 -6 18 -25 20 -31
3z"/>
<path d="M9067 11865 c-4 -9 -13 -15 -20 -12 -7 3 -13 -3 -13 -13 0 -25 40
-32 54 -9 8 12 7 21 -2 34 -12 17 -13 17 -19 0z"/>
<path d="M9155 11840 c-6 -9 33 -45 41 -37 3 3 17 2 31 -4 38 -14 18 8 -28 30
-21 11 -41 16 -44 11z"/>
<path d="M9355 11829 c-7 -10 10 -28 28 -29 12 0 8 17 -7 29 -11 9 -16 9 -21
0z"/>
<path d="M9320 11810 c0 -5 5 -10 10 -10 6 0 10 5 10 10 0 6 -4 10 -10 10 -5
0 -10 -4 -10 -10z"/>
<path d="M9410 11781 c0 -5 7 -12 16 -15 14 -5 15 -4 4 9 -14 17 -20 19 -20 6z"/>
<path d="M9450 11740 c0 -5 7 -10 16 -10 9 0 12 -5 8 -12 -5 -9 -3 -9 9 1 9 7
14 17 11 22 -7 12 -44 11 -44 -1z"/>
<path d="M9538 11730 c-17 -19 -18 -67 -2 -78 6 -5 6 -18 -1 -37 -8 -25 -15
-29 -37 -27 -25 3 -28 0 -28 -26 0 -16 7 -35 16 -43 10 -8 14 -23 12 -40 -3
-16 -1 -26 3 -23 10 6 34 -41 44 -83 4 -23 3 -33 -5 -33 -7 0 -10 -7 -6 -16
10 -25 -2 -50 -24 -51 -11 -1 -20 2 -20 8 0 5 -7 9 -15 9 -8 0 -15 5 -15 10 0
6 -14 10 -31 10 -26 0 -29 -2 -19 -15 10 -12 6 -15 -22 -23 -24 -6 -33 -14
-33 -30 0 -11 -11 -30 -23 -40 -12 -11 -22 -23 -22 -27 0 -4 -10 -17 -22 -29
-13 -11 -31 -33 -40 -48 -23 -34 -5 -48 25 -20 12 11 39 26 60 33 20 7 37 19
37 26 0 7 10 23 21 34 l22 22 -5 -27 c-4 -22 -2 -26 18 -26 17 0 24 -6 24 -20
0 -16 7 -20 35 -20 21 0 37 -6 43 -16 5 -9 14 -14 21 -10 24 15 2 106 -26 106
-7 0 -18 11 -24 24 -9 19 -8 29 4 46 13 18 16 19 24 7 4 -8 17 -16 28 -19 12
-2 20 -12 21 -25 1 -12 4 -28 7 -37 3 -8 2 -18 -4 -22 -6 -4 -6 -11 2 -21 10
-12 10 -16 -1 -23 -9 -5 -11 -21 -8 -48 4 -28 1 -44 -10 -55 -13 -14 -13 -18
-2 -33 19 -22 21 -44 4 -51 -8 -3 -14 -15 -14 -28 0 -19 -8 -25 -45 -34 -27
-7 -43 -16 -40 -22 9 -14 -14 -39 -31 -32 -15 5 -16 1 -18 -57 -1 -31 -4 -35
-26 -32 -51 5 -62 9 -70 22 -14 23 -22 5 -11 -23 8 -21 7 -25 -5 -20 -8 3 -19
14 -25 25 -8 16 -13 17 -25 7 -8 -6 -17 -9 -21 -5 -3 3 -1 6 6 6 7 0 9 9 5 27
-7 26 -7 27 10 10 18 -17 36 -23 36 -10 0 4 -18 24 -40 44 -27 25 -40 46 -40
64 0 14 -7 28 -15 31 -8 4 -15 10 -15 15 0 5 11 2 24 -6 18 -12 26 -13 31 -4
4 6 2 15 -5 19 -15 10 28 53 47 46 21 -8 26 13 9 39 -9 14 -12 25 -6 25 5 0
10 4 10 10 0 5 -7 7 -15 4 -8 -4 -22 -1 -29 5 -10 8 -16 9 -21 1 -3 -6 -11 -8
-16 -5 -5 4 -9 -6 -9 -21 0 -15 -10 -36 -24 -49 -17 -16 -21 -26 -14 -38 13
-24 -13 -22 -42 3 -34 30 -52 26 -48 -10 2 -18 -3 -34 -10 -39 -11 -7 -11 -9
2 -14 19 -8 21 -27 3 -27 -7 0 -18 -9 -25 -20 -8 -13 -23 -20 -42 -20 -23 0
-30 -5 -30 -20 0 -10 -11 -36 -25 -56 -14 -20 -25 -44 -25 -53 0 -19 35 -52
52 -48 6 1 16 -7 22 -19 6 -11 17 -19 23 -17 7 3 25 -8 40 -23 23 -23 24 -28
12 -38 -21 -16 -13 -39 21 -59 26 -16 32 -16 57 -3 15 8 38 25 50 38 22 23 22
53 -2 111 -6 14 -4 18 11 15 13 -2 20 6 27 30 15 49 39 37 41 -20 1 -28 -7
-33 -46 -30 -19 2 -15 -21 9 -49 7 -9 10 -19 6 -22 -3 -4 -1 -7 6 -7 7 0 9 -4
6 -10 -3 -6 1 -7 9 -4 9 3 16 2 16 -4 0 -13 -38 -23 -46 -11 -10 16 -24 10
-24 -11 0 -11 -7 -20 -15 -20 -21 0 -19 -17 4 -29 10 -6 31 -41 46 -78 14 -37
33 -81 41 -96 8 -16 17 -46 20 -66 5 -30 3 -39 -11 -45 -10 -3 -15 -12 -11
-21 3 -8 1 -15 -4 -15 -12 0 -6 -50 7 -58 5 -4 13 -19 17 -34 3 -15 17 -39 31
-54 26 -28 26 -46 0 -24 -8 7 -15 8 -15 2 0 -5 -11 -12 -24 -16 -17 -4 -29
-20 -45 -66 -12 -33 -20 -64 -17 -69 8 -13 -17 -61 -32 -61 -7 0 -25 6 -40 14
-38 20 -127 17 -176 -5 -54 -25 -82 -24 -101 4 -14 21 -15 21 -14 2 5 -54 0
-65 -31 -65 -18 0 -37 -8 -47 -20 -10 -11 -26 -20 -36 -20 -9 0 -20 -6 -23
-14 -3 -8 -13 -12 -25 -9 -14 4 -20 1 -19 -8 4 -29 0 -41 -14 -36 -8 3 -16 -2
-19 -12 -3 -14 -12 -17 -36 -13 -18 2 -31 10 -31 19 0 10 -6 12 -19 8 -11 -3
-22 -2 -25 3 -14 23 -77 23 -123 1 -43 -21 -47 -21 -79 -6 -21 11 -34 24 -34
36 0 10 -7 21 -15 25 -20 7 -20 4 15 -64 17 -33 30 -72 30 -87 0 -17 8 -33 20
-41 22 -13 27 -47 9 -58 -6 -3 -8 -17 -4 -31 5 -20 3 -24 -9 -20 -9 4 -17 -1
-21 -11 -7 -24 -77 -43 -93 -26 -6 6 -8 15 -4 19 4 4 -2 5 -13 3 -12 -2 -20
-11 -20 -23 0 -11 -10 -24 -22 -30 -13 -5 -23 -13 -23 -18 0 -5 -9 -6 -20 -2
-11 3 -25 3 -32 -1 -7 -5 -25 -7 -40 -5 -21 2 -28 -2 -30 -16 0 -10 -2 -24 -2
-31 -1 -8 -9 -19 -19 -26 -9 -7 -17 -18 -17 -25 0 -14 -4 -14 59 5 43 12 55
13 68 2 13 -11 21 -6 53 30 26 29 45 42 61 41 13 -1 36 3 50 9 15 6 29 8 32 5
3 -2 20 -8 39 -13 18 -4 41 -11 51 -15 11 -5 17 -3 17 6 0 8 6 22 14 31 11 15
17 15 56 4 24 -7 54 -23 68 -35 24 -22 27 -22 39 -5 12 16 16 14 63 -25 27
-23 50 -37 50 -32 0 6 9 11 20 11 11 0 20 4 20 10 0 5 13 7 30 4 17 -4 36 -1
44 5 12 10 17 8 26 -8 13 -24 30 -28 30 -6 0 24 13 18 58 -30 41 -44 112 -95
132 -95 5 0 19 -9 31 -21 11 -11 26 -18 33 -16 7 3 18 -4 24 -14 7 -10 18 -19
25 -19 7 0 18 -5 25 -12 6 -6 24 -12 39 -14 78 -8 129 -26 118 -44 -2 -4 7
-12 20 -18 19 -9 25 -9 25 1 0 6 12 -3 26 -20 26 -34 49 -42 56 -21 3 8 9 5
16 -9 10 -19 9 -23 -8 -28 -27 -8 -27 -45 0 -45 19 0 24 -10 21 -38 -1 -8 5
-24 13 -37 9 -14 16 -31 16 -40 0 -8 9 -23 20 -32 11 -10 20 -23 20 -30 0 -7
11 -15 25 -19 13 -3 29 -12 36 -20 6 -8 15 -12 19 -9 13 8 24 -16 22 -45 -3
-39 13 -58 37 -43 23 14 32 6 56 -51 9 -21 19 -36 22 -32 3 3 14 1 25 -5 14
-8 16 -14 9 -23 -16 -19 11 -51 34 -42 10 3 23 2 29 -3 6 -5 26 -6 44 -4 28 5
32 9 32 36 l0 30 23 -21 c13 -12 26 -22 29 -22 3 0 12 20 19 45 13 44 14 45
55 45 28 0 46 -6 59 -20 14 -16 20 -17 26 -8 7 11 13 10 30 0 35 -22 99 -42
99 -31 0 5 10 13 21 18 21 7 21 9 -14 43 -27 27 -32 38 -21 42 7 3 14 14 14
25 0 11 7 26 15 35 14 13 11 19 -21 50 -29 28 -37 43 -36 69 1 27 -4 35 -38
55 -43 24 -55 27 -45 12 10 -16 -11 -12 -25 5 -10 12 -10 15 4 15 9 0 16 6 16
13 0 15 -97 22 -115 8 -14 -12 -53 -7 -67 7 -7 7 -18 12 -25 12 -7 0 -13 6
-13 14 0 8 -5 16 -12 18 -17 6 -17 101 0 114 16 11 8 79 -8 69 -5 -3 -21 10
-35 30 -20 26 -33 34 -49 30 -16 -4 -27 3 -45 30 -23 35 -23 36 -5 49 11 8 25
11 34 6 8 -4 20 -6 26 -3 6 2 23 -3 39 -11 15 -8 35 -12 44 -9 26 10 41 25 35
35 -9 14 26 60 42 54 9 -3 16 3 20 19 4 17 13 25 28 25 11 0 33 13 49 29 25
27 30 28 62 20 39 -11 62 -4 46 14 -14 17 9 109 32 127 16 13 17 19 7 42 -7
15 -24 29 -39 33 -36 9 -55 26 -40 36 8 5 4 17 -15 42 -19 25 -23 36 -14 40
20 6 -37 112 -75 139 -18 12 -46 37 -63 55 -17 18 -35 33 -42 33 -17 0 -25 19
-13 33 15 19 -3 39 -40 44 -60 7 -67 9 -83 22 -9 7 -24 10 -33 7 -10 -4 -14
-4 -10 0 4 4 -2 14 -14 22 -11 8 -21 12 -22 11 -1 -2 -10 -19 -20 -37 -10 -18
-16 -39 -13 -47 3 -8 1 -27 -4 -44 -7 -25 -4 -37 15 -66 14 -19 22 -35 18 -35
-3 0 0 -6 6 -14 9 -11 4 -13 -29 -11 -22 1 -43 -2 -46 -6 -3 -5 -16 -2 -29 7
-18 12 -22 21 -16 37 7 23 -20 92 -33 80 -3 -3 -6 -1 -6 6 0 11 -38 30 -70 35
-8 2 -16 15 -18 29 -3 22 1 27 18 27 17 0 19 4 14 25 -5 20 -3 24 10 19 9 -3
16 -1 16 6 0 6 5 8 10 5 16 -10 44 23 32 38 -5 7 -13 29 -16 51 -6 29 -3 43 9
56 9 10 14 24 10 30 -3 6 -3 10 2 9 4 -1 22 2 39 6 32 7 54 38 54 75 0 10 5
22 10 25 6 3 10 17 10 29 0 15 7 26 21 29 18 5 19 10 13 44 -6 35 -6 37 9 24
15 -12 17 -11 17 8 0 11 5 21 10 21 12 0 -24 70 -42 82 -9 5 -6 8 10 8 25 0
25 0 12 34 -6 17 -6 26 1 26 11 0 -18 61 -34 72 -6 4 -23 4 -37 1 -17 -3 -31
1 -39 11 -12 14 -11 16 4 10 15 -6 17 -4 12 17 -4 13 -7 27 -7 32 0 4 -6 7
-13 7 -7 0 -18 10 -26 21 -11 19 -11 21 3 16 25 -10 66 38 66 76 0 47 14 63
29 34 8 -16 9 -30 2 -48 -9 -25 -9 -26 32 -22 23 3 47 9 54 15 7 6 13 7 13 2
0 -5 9 6 20 24 24 40 25 50 3 74 -13 15 -14 21 -4 27 9 6 6 15 -13 38 -13 16
-34 53 -45 82 -11 30 -30 60 -42 69 l-22 15 21 8 c14 6 22 17 22 33 0 18 4 23
18 20 29 -8 42 26 26 71 -7 22 -10 42 -7 45 3 3 8 -1 10 -7 6 -18 33 -16 33 2
0 8 5 15 10 15 6 0 10 -6 10 -14 0 -23 22 -31 35 -13 7 10 19 17 27 17 23 0
28 35 8 48 -12 7 -18 24 -18 56 l-1 46 40 -20 c46 -24 56 -42 41 -75 -10 -21
-7 -25 21 -39 32 -15 32 -15 40 15 7 28 8 29 35 15 25 -13 30 -12 49 2 11 10
23 29 27 44 5 23 3 28 -11 26 -10 0 -25 0 -34 0 -18 2 -39 63 -32 93 4 13 -2
27 -14 39 -19 17 -22 17 -37 2 -9 -9 -16 -11 -16 -5 0 6 -16 13 -35 15 -19 2
-35 0 -35 -4 0 -4 -7 -8 -15 -8 -8 0 -20 -10 -26 -22 -6 -13 -13 -25 -15 -27
-2 -2 -25 15 -52 38 -28 22 -59 41 -69 41 -11 0 -23 3 -27 8 -11 10 -106 9
-106 -2 0 -5 -11 1 -25 14 -14 13 -25 29 -25 35 0 16 -54 65 -71 64 -7 0 -22
-9 -31 -19z m177 -360 c6 -28 -1 -105 -12 -123 -2 -4 -16 2 -31 13 -17 14 -34
19 -49 15 -13 -3 -23 -1 -23 5 0 5 -3 9 -7 9 -23 -4 -21 4 9 31 18 17 39 30
46 30 10 0 13 9 10 30 -8 53 45 44 57 -10z m-125 -1670 c0 -18 -3 -19 -20 -10
-11 6 -20 15 -20 20 0 6 9 10 20 10 13 0 20 -7 20 -20z"/>
<path d="M9437 11700 c-30 -35 -18 -53 17 -27 14 10 16 18 10 30 -9 15 -11 15
-27 -3z"/>
<path d="M9473 11678 c-24 -32 -24 -38 -1 -29 13 4 24 16 26 25 4 19 -11 21
-25 4z"/>
<path d="M9381 11638 c-1 -10 -7 -18 -15 -18 -7 0 -16 -8 -19 -19 -5 -19 -3
-19 69 -12 7 1 14 13 17 27 4 23 2 25 -18 20 -14 -4 -25 -1 -28 7 -3 7 -6 5
-6 -5z"/>
<path d="M9275 11550 c3 -5 8 -10 11 -10 2 0 4 5 4 10 0 6 -5 10 -11 10 -5 0
-7 -4 -4 -10z"/>
<path d="M11458 11428 c-16 -5 -28 -15 -28 -21 0 -8 -4 -7 -12 1 -7 7 -19 12
-27 12 -13 0 -13 -2 1 -16 18 -19 69 -12 89 12 16 20 9 23 -23 12z"/>
<path d="M11333 11252 c-15 -2 -23 -10 -23 -24 0 -29 -47 -70 -71 -63 -10 4
-19 2 -19 -4 0 -5 -10 -11 -22 -13 -17 -2 -25 -14 -34 -43 -7 -25 -17 -40 -27
-40 -8 0 -19 -4 -23 -8 -4 -4 -15 -7 -24 -7 -13 0 -16 -6 -12 -25 3 -20 0 -25
-16 -25 -14 0 -22 -8 -24 -22 -4 -27 -67 -44 -100 -27 -18 10 -19 8 -13 -13 4
-12 12 -24 16 -26 19 -8 7 -34 -37 -77 -25 -25 -49 -43 -55 -40 -5 4 -9 0 -9
-7 0 -7 -7 -26 -15 -42 -9 -16 -13 -37 -10 -48 5 -13 1 -18 -12 -18 -10 0 -31
-11 -47 -23 -27 -22 -29 -28 -28 -94 2 -78 -21 -125 -55 -117 -19 5 -43 -34
-43 -67 0 -9 -9 -27 -19 -40 -17 -21 -20 -22 -26 -7 -4 9 -13 14 -21 11 -8 -3
-14 0 -14 6 0 15 -11 13 -34 -4 -12 -9 -19 -27 -19 -45 0 -18 -6 -30 -14 -30
-7 0 -13 -5 -13 -12 0 -6 -10 -2 -23 10 -13 12 -29 22 -35 22 -21 0 -103 94
-89 102 9 5 9 15 -1 40 -10 28 -10 35 3 45 11 7 12 13 6 18 -18 10 -13 25 8
25 23 0 36 16 21 25 -17 10 -11 19 21 34 20 9 28 18 25 28 -3 8 -6 24 -6 35 0
11 -8 22 -20 25 -24 6 -54 49 -40 58 6 4 7 13 1 23 -5 9 -7 38 -4 64 6 49 1
56 -40 62 -21 3 -48 27 -42 36 9 15 -26 40 -56 40 -17 0 -28 4 -25 9 9 13 -27
40 -82 61 -53 20 -62 18 -62 -14 0 -30 -35 -83 -60 -91 -17 -6 -20 -12 -15
-36 6 -27 4 -30 -25 -36 -29 -5 -31 -9 -27 -37 2 -16 -1 -36 -7 -43 -33 -38
-38 -46 -33 -69 2 -13 0 -27 -5 -30 -5 -3 -7 -13 -4 -21 4 -9 2 -21 -3 -27 -6
-7 -11 -29 -13 -50 -2 -30 3 -43 21 -57 13 -11 29 -19 37 -19 8 0 14 -11 14
-26 0 -31 32 -86 72 -127 18 -18 28 -39 28 -58 0 -16 6 -32 14 -35 8 -3 14
-15 13 -27 0 -12 3 -39 7 -59 7 -31 5 -38 -7 -38 -11 0 -14 -9 -12 -35 2 -24
-1 -38 -12 -44 -9 -4 -13 -14 -11 -22 3 -8 -2 -19 -10 -25 -11 -8 -12 -16 -5
-28 5 -10 12 -17 14 -15 2 1 14 -1 26 -5 26 -8 63 9 63 29 0 10 17 16 51 21
28 4 64 17 82 30 18 13 44 29 60 35 15 6 27 15 27 21 0 5 8 7 19 3 11 -3 21 0
24 9 3 8 18 16 34 18 15 2 28 9 28 16 0 8 8 19 17 26 9 7 20 25 24 40 10 41
27 26 31 -30 1 -27 4 -58 5 -69 2 -16 -2 -19 -21 -17 -23 4 -24 2 -19 -47 3
-28 12 -59 22 -69 20 -22 21 -42 2 -42 -9 0 -12 -8 -8 -25 3 -18 -1 -27 -14
-32 -11 -4 -25 -15 -32 -25 -7 -10 -19 -18 -26 -18 -8 0 -19 -7 -26 -15 -7 -9
-19 -14 -27 -11 -7 3 -13 1 -13 -5 0 -6 -6 -9 -14 -6 -17 7 -27 -24 -14 -47 6
-10 5 -16 -2 -16 -5 0 -10 -7 -10 -16 0 -13 -7 -15 -29 -11 -25 5 -28 3 -24
-13 3 -11 1 -20 -5 -20 -15 0 -8 -58 10 -77 15 -17 48 -45 107 -91 18 -14 25
-29 25 -56 1 -26 6 -38 20 -42 10 -3 22 -1 26 6 6 9 13 9 28 1 32 -17 75 6 69
36 -4 22 34 88 51 88 16 1 32 17 32 35 0 10 -6 20 -12 23 -7 3 -21 19 -31 36
-18 31 -18 31 5 32 13 1 29 1 36 0 8 -1 20 3 27 9 10 8 15 7 22 -4 7 -12 14
-12 45 -2 36 13 36 13 40 -16 4 -22 1 -27 -11 -23 -14 4 -16 -2 -13 -33 3 -30
10 -43 32 -55 20 -12 29 -27 34 -56 5 -34 9 -39 38 -44 18 -2 35 0 36 5 9 21
32 -18 32 -53 0 -32 -3 -39 -20 -39 -22 0 -27 -15 -8 -26 6 -4 17 1 24 10 15
22 54 13 54 -12 1 -15 2 -15 15 2 21 27 28 15 34 -56 1 -5 8 -8 16 -8 12 0 12
-4 -2 -28 -15 -26 -15 -32 0 -77 13 -37 14 -51 5 -56 -8 -5 -5 -13 11 -26 15
-12 24 -31 25 -50 0 -17 4 -29 9 -26 4 2 7 -5 7 -16 0 -10 -6 -21 -12 -24 -10
-4 -10 -7 0 -18 6 -7 12 -20 12 -28 0 -8 7 -22 15 -31 9 -10 18 -26 20 -36 2
-11 7 -29 11 -41 5 -18 2 -23 -12 -23 -60 1 -88 34 -39 46 14 3 25 10 25 16 0
17 -49 58 -63 52 -24 -9 -32 18 -11 35 28 23 29 56 3 74 -14 11 -20 23 -16 36
3 14 -1 21 -16 25 -17 4 -18 7 -7 21 11 13 10 18 -4 34 -9 10 -14 25 -10 34 3
9 -3 24 -15 36 -12 12 -21 27 -21 35 0 21 -33 30 -46 12 -6 -9 -23 -16 -38
-16 -14 0 -26 -6 -26 -12 0 -9 -4 -8 -11 2 -8 12 -9 9 -5 -12 6 -26 4 -28 -25
-28 -22 0 -32 5 -36 20 -3 11 -12 20 -19 20 -9 0 -14 12 -14 34 0 18 -7 39
-15 46 -8 7 -15 24 -15 39 0 19 -3 22 -9 12 -10 -15 -41 -8 -41 8 0 6 6 8 13
5 17 -6 44 24 31 35 -5 5 -19 12 -31 16 -18 5 -23 2 -24 -12 -3 -47 4 -89 16
-103 8 -8 18 -27 24 -43 9 -24 8 -27 -9 -27 -17 0 -18 -3 -9 -30 6 -16 14 -30
18 -30 4 0 8 -13 8 -29 0 -18 -5 -27 -12 -25 -7 3 -11 -9 -12 -31 -1 -19 3
-35 7 -35 4 0 10 -9 13 -20 3 -11 16 -24 29 -28 66 -25 95 -34 111 -35 9 -1
17 -5 17 -10 0 -5 7 -7 15 -3 8 3 15 2 15 -3 0 -5 17 -16 38 -24 21 -9 52 -31
69 -51 17 -19 33 -33 35 -31 1 2 9 -3 16 -11 11 -12 9 -18 -13 -38 -14 -13
-25 -28 -25 -33 0 -5 -11 -15 -25 -21 -14 -6 -25 -16 -25 -22 0 -17 -21 -11
-38 11 l-17 20 -23 -21 c-12 -12 -27 -18 -32 -15 -5 3 -7 -1 -4 -9 3 -8 -4
-24 -16 -36 -12 -12 -19 -28 -16 -35 3 -8 -5 -32 -17 -54 -18 -32 -26 -39 -44
-35 -15 4 -25 0 -33 -15 -6 -12 -15 -19 -19 -17 -5 3 -16 -2 -24 -12 -10 -11
-34 -19 -59 -21 -24 -1 -47 -6 -52 -11 -5 -5 -14 -6 -21 -4 -7 3 -16 1 -19 -5
-4 -6 -20 -8 -36 -5 -27 6 -29 4 -32 -32 -3 -44 27 -108 45 -97 33 21 86 -6
88 -44 0 -10 3 -13 6 -6 2 7 20 15 39 19 19 3 37 10 39 15 3 4 13 5 22 2 12
-5 15 -2 10 10 -5 14 5 29 23 33 3 0 13 4 23 9 10 4 28 3 41 -3 13 -6 29 -6
38 -1 9 5 41 10 72 10 34 1 57 6 60 14 2 7 21 19 40 26 20 7 36 17 36 21 0 13
22 9 42 -9 17 -15 18 -15 18 4 0 13 8 23 21 26 12 3 18 10 15 15 -13 21 90 32
110 12 14 -14 44 -2 44 16 0 8 5 14 10 14 6 0 10 6 10 14 0 7 12 26 26 41 14
15 23 33 20 40 -6 17 30 50 39 35 4 -7 16 -3 33 10 80 62 122 90 136 90 11 0
16 9 16 28 0 15 6 34 12 40 10 10 10 17 1 31 -13 20 0 41 24 41 7 0 13 6 13
14 0 8 7 17 16 20 8 3 13 10 9 15 -3 5 7 11 22 13 14 2 28 9 31 16 5 15 -50
16 -65 1 -9 -9 -16 -2 -27 26 -20 47 -20 46 6 36 26 -9 68 12 68 35 0 8 6 14
13 14 16 1 67 46 67 59 0 6 10 11 23 11 68 0 92 11 115 56 26 51 28 68 7 60
-8 -3 -14 -2 -14 2 4 22 -3 33 -15 29 -15 -6 -34 13 -55 54 -12 24 -10 31 14
67 20 30 26 49 21 67 -4 14 -2 25 3 25 12 0 21 52 12 68 -4 8 -11 13 -14 13
-22 -3 -27 2 -27 25 0 29 24 53 53 54 9 0 17 5 17 10 0 6 11 22 24 35 24 24
24 25 5 35 -10 6 -19 17 -19 25 0 12 16 15 79 15 l79 0 7 30 c9 39 40 49 67
21 l19 -22 30 26 c17 14 35 25 40 25 5 0 9 5 9 12 0 6 8 20 17 30 20 22 43 83
43 115 0 12 6 26 14 30 17 10 10 63 -9 63 -15 0 -35 -43 -35 -76 0 -40 -16
-62 -42 -58 -42 7 -80 -47 -71 -102 3 -19 1 -25 -5 -16 -5 7 -16 10 -27 6 -14
-6 -17 -4 -12 9 4 11 1 17 -8 17 -8 0 -24 9 -35 20 -27 27 -58 25 -87 -6 -28
-30 -47 -27 -51 7 -2 18 -12 29 -36 37 -40 15 -69 6 -63 -19 3 -12 -3 -19 -21
-24 -16 -4 -28 -2 -30 4 -2 6 -8 9 -13 5 -5 -3 -9 -1 -9 3 0 11 -22 13 -144
13 -69 0 -113 5 -143 16 -26 10 -56 14 -77 11 -31 -5 -36 -3 -45 24 -5 16 -18
32 -28 35 -10 3 -35 14 -55 25 -22 11 -38 15 -38 9 0 -6 -5 -8 -10 -5 -6 4
-21 0 -34 -9 -16 -10 -40 -14 -75 -11 -42 3 -57 9 -80 34 -29 31 -46 38 -55
22 -7 -10 -47 -7 -73 8 -14 7 -23 7 -31 -1 -9 -9 -12 -9 -12 -1 0 6 -18 31
-40 54 -22 24 -40 49 -40 56 0 9 -9 11 -30 7 -22 -5 -31 -2 -36 9 -4 12 -14
15 -35 10 -22 -4 -29 -2 -29 10 0 12 -9 15 -37 12 -21 -1 -41 -1 -45 2 -13 7
16 43 35 43 11 0 17 6 15 18 -2 11 3 16 14 14 9 -1 29 11 45 26 16 16 39 32
51 36 12 4 22 14 22 22 0 13 10 14 54 9 47 -6 55 -4 68 13 13 20 16 20 58 6
24 -8 51 -19 62 -25 12 -7 18 -6 18 1 0 6 5 8 10 5 15 -9 40 14 40 36 0 15 7
19 36 19 30 0 37 4 47 29 10 26 14 28 49 23 41 -5 44 -2 27 29 -9 18 -8 20 12
17 14 -2 33 7 52 25 16 15 41 30 56 33 38 10 50 22 43 46 -5 19 -2 21 27 15
31 -7 71 8 71 26 0 5 10 17 21 26 37 30 22 99 -18 84 -7 -3 -13 0 -13 6 0 8
-5 9 -19 1 -13 -6 -22 -7 -26 0 -4 6 -14 5 -29 -1 -24 -11 -68 2 -64 19 1 4
-4 18 -11 31 -7 13 -11 34 -8 48 3 17 -1 28 -14 36 -22 14 -26 62 -6 80 6 7
21 13 32 15 58 9 98 74 74 119 -12 22 -11 26 4 34 17 10 24 54 10 61 -5 2 -18
2 -30 0z m107 -1504 c0 -12 -28 3 -34 18 -4 11 -2 12 14 1 11 -6 20 -15 20
-19z m-15 -89 c8 -25 1 -34 -20 -26 -19 8 -20 47 -1 47 8 0 18 -9 21 -21z
m-15 -119 c4 0 10 -7 13 -14 4 -10 1 -13 -9 -9 -9 3 -14 -1 -14 -13 0 -17 -2
-17 -21 3 -23 22 -17 48 8 39 8 -3 18 -6 23 -6z m-690 -450 c0 -5 -2 -10 -4
-10 -3 0 -8 5 -11 10 -3 6 -1 10 4 10 6 0 11 -4 11 -10z m460 -141 c0 -6 -4
-7 -10 -4 -5 3 -10 11 -10 16 0 6 5 7 10 4 6 -3 10 -11 10 -16z"/>
<path d="M9905 11130 c3 -5 8 -10 11 -10 2 0 4 5 4 10 0 6 -5 10 -11 10 -5 0
-7 -4 -4 -10z"/>
<path d="M9952 11080 c7 -11 17 -20 22 -20 5 0 1 9 -9 20 -10 11 -20 20 -22
20 -2 0 2 -9 9 -20z"/>
<path d="M11254 11002 c-15 -9 -14 -40 2 -46 6 -2 15 5 18 17 6 25 -4 40 -20
29z"/>
<path d="M11340 10943 c0 -5 5 -15 10 -23 9 -13 11 -13 20 0 7 12 12 8 24 -20
12 -29 16 -32 22 -17 5 13 0 23 -17 35 -13 9 -27 16 -31 14 -5 -1 -8 3 -8 8 0
6 -4 10 -10 10 -5 0 -10 -3 -10 -7z"/>
<path d="M11375 10850 c-3 -5 -1 -10 4 -10 6 0 11 5 11 10 0 6 -2 10 -4 10 -3
0 -8 -4 -11 -10z"/>
<path d="M7965 10818 c18 -61 18 -69 -4 -75 l-22 -6 23 -16 c13 -8 31 -14 41
-13 9 2 17 -2 17 -7 0 -7 25 -11 68 -9 37 1 77 -4 90 -11 20 -11 22 -9 22 12
0 23 -2 24 -71 28 -22 2 -41 15 -73 50 -24 27 -56 53 -71 59 -26 10 -27 9 -20
-12z"/>
<path d="M8258 10664 c23 -10 63 -55 57 -64 -3 -4 -14 -6 -26 -3 -17 5 -20 2
-17 -18 2 -16 9 -23 19 -21 10 1 19 -6 22 -18 3 -11 1 -20 -4 -20 -18 0 -9
-94 11 -125 l20 -30 0 34 c0 28 9 43 49 81 39 37 53 45 66 37 12 -6 30 -5 55
3 41 14 53 39 38 80 -7 18 -11 20 -23 10 -8 -7 -13 -16 -10 -20 7 -11 -32 -23
-45 -15 -6 4 -17 2 -25 -5 -15 -12 -55 2 -55 20 0 6 -7 10 -16 10 -10 0 -14 6
-11 14 9 22 -23 43 -73 50 -25 3 -39 3 -32 0z"/>
<path d="M8853 10655 c2 -5 14 -10 27 -10 13 0 25 5 27 10 2 6 -10 10 -27 10
-16 0 -28 -4 -27 -10z"/>
<path d="M8187 10643 c-4 -3 -7 -11 -7 -17 0 -6 5 -5 12 2 6 6 9 14 7 17 -3 3
-9 2 -12 -2z"/>
<path d="M8820 10636 c0 -17 -64 -28 -96 -16 -19 8 -26 6 -30 -5 -4 -10 -15
-12 -36 -8 -23 4 -34 2 -43 -11 -11 -15 -8 -22 23 -52 35 -33 49 -43 37 -25
-3 5 4 12 15 16 11 3 20 15 20 26 0 20 15 26 25 9 4 -6 15 -6 31 0 14 6 30 7
36 4 7 -5 8 -2 3 6 -6 10 -1 12 19 8 23 -5 26 -2 26 22 0 16 -7 30 -15 34 -9
3 -15 0 -15 -8z"/>
<path d="M8580 10609 c0 -5 5 -7 10 -4 6 3 10 8 10 11 0 2 -4 4 -10 4 -5 0
-10 -5 -10 -11z"/>
<path d="M8301 10331 c-12 -12 -30 -21 -41 -21 -11 0 -20 -6 -20 -14 0 -19 32
-30 42 -14 6 10 8 10 8 1 0 -26 17 -12 28 24 14 45 10 51 -17 24z"/>
<path d="M8350 10341 c0 -6 0 -14 0 -18 0 -5 11 -8 25 -8 14 -1 25 5 25 12 0
7 -4 13 -9 13 -5 0 -16 3 -25 6 -9 3 -16 1 -16 -5z"/>
<path d="M8205 10270 c-3 -5 -17 -10 -29 -10 -13 0 -29 -7 -36 -15 -7 -8 -18
-15 -24 -15 -7 0 -11 -20 -11 -50 0 -27 3 -50 8 -50 4 0 7 6 7 14 0 8 12 17
28 21 47 11 92 62 92 106 0 12 -27 12 -35 -1z"/>
<path d="M8030 10120 c0 -5 5 -10 11 -10 5 0 7 5 4 10 -3 6 -8 10 -11 10 -2 0
-4 -4 -4 -10z"/>
<path d="M11945 9950 c-10 -17 12 -37 25 -24 8 8 6 15 -4 23 -10 9 -16 9 -21
1z"/>
<path d="M12234 9863 c-4 -10 -6 -24 -5 -32 1 -7 -2 -10 -8 -6 -7 3 -8 0 -5
-9 7 -19 -26 -22 -43 -5 -19 19 -45 -14 -37 -46 5 -21 10 -24 31 -19 43 11 77
51 80 95 3 42 -1 49 -13 22z"/>
<path d="M9700 9765 c7 -8 24 -14 39 -14 20 1 22 2 6 6 -11 3 -24 9 -29 14
-16 15 -29 10 -16 -6z"/>
<path d="M12060 9721 c0 -5 5 -13 10 -16 6 -3 10 -2 10 4 0 5 -4 13 -10 16 -5
3 -10 2 -10 -4z"/>
<path d="M10673 9519 c14 -8 22 -8 30 0 8 8 3 11 -18 11 -26 -1 -28 -2 -12
-11z"/>
<path d="M10860 9271 c0 -5 5 -13 10 -16 6 -3 10 -2 10 4 0 5 -4 13 -10 16 -5
3 -10 2 -10 -4z"/>
<path d="M10235 9260 c3 -5 8 -10 11 -10 2 0 4 5 4 10 0 6 -5 10 -11 10 -5 0
-7 -4 -4 -10z"/>
<path d="M7960 9080 c0 -5 5 -10 10 -10 6 0 10 5 10 10 0 6 -4 10 -10 10 -5 0
-10 -4 -10 -10z"/>
<path d="M10210 8779 c0 -5 5 -7 10 -4 6 3 10 8 10 11 0 2 -4 4 -10 4 -5 0
-10 -5 -10 -11z"/>
<path d="M9726 8344 c-6 -16 -34 -16 -77 1 -12 4 -18 -1 -21 -19 -3 -14 -1
-26 3 -26 5 0 9 -11 9 -24 0 -13 7 -26 15 -30 8 -3 15 -12 15 -21 0 -8 7 -15
16 -15 8 0 13 -4 9 -9 -9 -15 30 -32 42 -20 8 8 13 7 18 -1 5 -8 10 -8 20 0 9
8 20 7 38 -1 14 -6 33 -9 42 -6 24 10 35 49 19 72 -8 11 -14 27 -14 37 0 12
-8 18 -24 18 -16 0 -27 7 -31 20 -4 11 -10 18 -15 15 -5 -3 -20 1 -34 10 -22
14 -24 14 -30 -1z"/>
<path d="M9470 8293 c0 -7 7 -13 15 -13 8 0 15 6 15 13 0 8 -7 14 -15 14 -8 0
-15 -6 -15 -14z"/>
<path d="M9575 8277 c-4 -10 -5 -21 -1 -24 10 -10 18 4 13 24 -4 17 -4 17 -12
0z"/>
<path d="M9360 8270 c0 -5 5 -10 10 -10 6 0 10 5 10 10 0 6 -4 10 -10 10 -5 0
-10 -4 -10 -10z"/>
<path d="M9473 8258 c-6 -7 -13 -21 -16 -30 -8 -23 18 -25 27 -3 3 9 11 15 18
14 34 -4 42 2 18 16 -31 18 -35 18 -47 3z"/>
<path d="M9886 8148 c5 -7 2 -9 -9 -5 -13 5 -15 0 -11 -30 3 -27 1 -34 -10
-30 -11 5 -12 0 -3 -23 11 -29 27 -31 27 -4 0 8 6 25 14 37 13 21 7 67 -9 67
-4 0 -3 -5 1 -12z"/>
<path d="M9650 7981 c0 -6 3 -11 8 -11 4 0 8 -12 9 -26 0 -14 5 -30 11 -36 13
-13 62 1 62 19 0 19 29 42 53 43 9 0 17 5 17 11 0 6 -8 8 -17 5 -28 -9 -96 -9
-120 -1 -15 5 -23 3 -23 -4z"/>
<path d="M9595 7900 c3 -5 10 -10 16 -10 5 0 9 5 9 10 0 6 -7 10 -16 10 -8 0
-12 -4 -9 -10z"/>
<path d="M9702 7865 c-7 -14 -12 -32 -12 -39 0 -8 -7 -19 -15 -26 -8 -7 -15
-25 -15 -39 0 -16 -10 -37 -25 -51 -14 -13 -25 -32 -25 -42 0 -12 -7 -18 -22
-18 -12 0 -18 -3 -15 -6 4 -4 -7 -22 -23 -41 -17 -18 -30 -38 -30 -42 0 -5
-11 -12 -24 -15 -23 -6 -28 -19 -15 -41 4 -5 9 -23 13 -39 6 -22 2 -33 -15
-49 -15 -14 -18 -22 -10 -25 9 -3 9 -7 1 -17 -8 -9 -8 -15 0 -20 15 -9 12 -25
-4 -25 -8 0 -17 -4 -20 -9 -6 -9 15 -61 25 -61 3 0 16 -9 29 -20 12 -11 27
-17 31 -14 13 8 11 -10 -3 -24 -10 -10 -2 -23 41 -62 44 -40 52 -53 50 -78 -3
-23 6 -40 44 -82 44 -49 52 -68 48 -112 -1 -10 3 -18 9 -18 6 0 8 5 5 10 -3 6
4 10 17 10 16 0 27 9 36 30 13 28 15 29 37 14 16 -11 24 -12 27 -3 2 7 25 11
57 11 38 0 63 6 85 22 48 33 76 64 76 86 0 12 9 22 24 26 20 5 26 13 28 42 2
30 8 38 26 40 20 3 22 9 21 51 -1 30 4 57 16 74 9 15 15 34 11 42 -4 11 3 19
19 25 14 5 25 17 25 25 0 18 24 46 37 44 19 -3 23 2 13 21 -6 11 -16 20 -23
20 -7 0 -18 9 -25 21 -11 17 -20 20 -45 15 -17 -3 -38 -13 -47 -21 -13 -12
-22 -13 -47 -3 -18 7 -34 20 -36 30 -3 10 -13 18 -24 18 -10 0 -24 9 -31 20
-7 11 -17 20 -22 20 -6 0 -28 11 -49 24 -26 17 -42 21 -49 14 -12 -12 -56 27
-47 42 4 6 2 10 -4 10 -5 0 -11 12 -13 26 -4 37 -72 92 -92 75 -12 -10 -17 -8
-26 10 -8 14 -9 24 -2 28 5 3 9 25 9 48 -1 31 3 46 18 57 16 13 17 15 4 16 -9
0 -21 -11 -27 -25z"/>
<path d="M10330 7485 c-9 -11 -17 -12 -31 -5 -17 10 -17 8 -4 -36 19 -63 26
-68 63 -47 37 21 39 30 15 72 -20 35 -26 37 -43 16z"/>
<path d="M9810 6881 c0 -6 5 -13 10 -16 6 -3 10 1 10 9 0 9 -4 16 -10 16 -5 0
-10 -4 -10 -9z"/>
<path d="M9712 6818 c5 -15 28 -23 28 -10 0 5 -7 13 -16 16 -10 4 -14 1 -12
-6z"/>
</g>
</svg>
