<?xml version="1.0" standalone="no"?>
<!DOCTYPE svg PUBLIC "-//W3C//DTD SVG 20010904//EN"
 "http://www.w3.org/TR/2001/REC-SVG-20010904/DTD/svg10.dtd">
<svg version="1.0" xmlns="http://www.w3.org/2000/svg"
 width="910.651109pt" height="1107.854375pt" viewBox="0 0 910.651109 1107.854375"
 preserveAspectRatio="xMidYMid meet">
<metadata>
Created by potrace 1.15, written by Peter Selinger 2001-2017
</metadata>
<g transform="translate(-593.770179,1623.000000) scale(0.100000,-0.100000)"
fill="#222222" stroke="none">
<path d="M7839 16213 c6 -12 5 -20 -4 -28 -8 -5 -15 -21 -17 -35 -3 -22 1 -25
30 -28 28 -3 33 -7 29 -23 -4 -15 -1 -19 8 -15 7 2 16 -2 19 -10 11 -28 7 -36
-11 -25 -12 6 -26 5 -44 -4 -15 -8 -29 -11 -32 -8 -12 11 -19 -27 -13 -62 5
-23 15 -38 33 -47 14 -7 29 -20 34 -28 11 -24 26 -64 27 -74 1 -9 28 -26 69
-45 11 -5 24 -14 27 -20 9 -14 56 8 56 27 0 9 6 12 16 8 22 -9 60 17 79 54 15
29 7 48 -15 35 -5 -3 -10 2 -10 12 0 11 -14 26 -34 37 -44 23 -49 38 -28 76
12 21 22 28 35 24 18 -6 24 11 7 21 -6 4 -17 21 -24 38 -8 18 -28 46 -44 63
-26 26 -37 31 -71 28 -22 -1 -44 -5 -49 -8 -10 -6 -52 30 -52 44 0 6 -7 10
-15 10 -12 0 -14 -4 -6 -17z"/>
<path d="M8200 16076 c0 -2 7 -9 15 -16 9 -7 15 -8 15 -2 0 5 -7 12 -15 16 -8
3 -15 4 -15 2z"/>
<path d="M8240 16034 c0 -8 5 -12 10 -9 6 4 8 11 5 16 -9 14 -15 11 -15 -7z"/>
<path d="M8225 15995 c0 -26 20 -41 31 -24 3 6 -2 19 -12 30 -19 18 -19 18
-19 -6z"/>
<path d="M8187 15892 c-22 -24 -21 -29 3 -35 17 -4 20 0 20 24 0 34 -2 35 -23
11z"/>
<path d="M7716 15826 c-3 -14 -11 -26 -17 -26 -6 0 -8 -4 -4 -9 7 -13 -49 -73
-66 -70 -8 1 -27 -3 -42 -9 -16 -7 -33 -12 -39 -12 -6 0 -33 -19 -61 -42 -28
-24 -56 -42 -61 -41 -11 3 -36 -41 -36 -61 0 -16 -106 -106 -123 -106 -30 0
-39 -27 -33 -97 6 -65 5 -69 -23 -100 -21 -23 -36 -31 -48 -26 -15 5 -16 3 -5
-8 17 -18 15 -40 -3 -33 -10 4 -15 0 -15 -15 0 -13 -8 -23 -23 -27 -18 -4 -23
-11 -20 -28 6 -31 -22 -54 -48 -38 -15 10 -25 8 -52 -7 -25 -14 -38 -16 -52
-8 -14 8 -21 6 -32 -9 -34 -49 -50 -63 -70 -64 -13 0 -23 -6 -23 -13 0 -10
-10 -12 -37 -8 -31 5 -40 13 -60 51 -14 25 -29 44 -34 43 -8 -3 -13 11 -10 30
0 4 -5 7 -12 7 -8 0 -19 11 -25 25 -15 32 -15 42 -1 28 7 -7 21 -8 41 -2 17 4
34 6 39 4 4 -3 6 7 5 21 -2 21 -11 29 -42 40 -45 16 -77 19 -56 6 9 -6 10 -16
4 -33 -5 -13 -12 -50 -16 -81 -6 -43 -11 -56 -21 -52 -9 4 -17 -4 -21 -23 -9
-33 -30 -52 -61 -53 -13 0 -24 -8 -28 -20 -5 -15 -15 -20 -40 -20 -33 0 -33
-1 -25 -30 9 -31 2 -38 -16 -20 -8 8 -15 6 -24 -5 -7 -8 -25 -15 -40 -15 -15
0 -30 -6 -33 -13 -7 -18 -64 -13 -86 7 -10 9 -27 16 -39 16 -23 0 -55 37 -45
53 3 6 1 7 -5 4 -5 -4 -8 -16 -5 -27 4 -16 2 -19 -11 -14 -9 4 -16 1 -16 -6 0
-9 -7 -7 -20 5 -11 10 -20 30 -20 44 -1 29 -40 64 -63 55 -18 -6 -10 -54 11
-70 15 -11 14 -31 -6 -120 -6 -27 -5 -48 1 -60 7 -12 6 -23 -1 -35 -7 -10 -9
-25 -6 -34 4 -10 -3 -27 -19 -43 -26 -28 -42 -66 -39 -92 1 -8 4 -30 6 -47 4
-38 22 -63 44 -63 12 0 14 -9 9 -42 -7 -48 -33 -108 -48 -108 -6 0 -5 -9 2
-21 8 -16 8 -23 -1 -29 -13 -8 21 -33 57 -42 17 -5 20 -2 16 11 -5 12 -1 12
15 -4 12 -11 23 -30 25 -42 3 -24 17 -44 17 -25 0 6 10 22 23 36 38 41 58 8
33 -54 -4 -10 2 -19 16 -25 19 -8 25 -22 34 -80 5 -38 16 -80 23 -93 6 -12 10
-26 7 -31 -3 -4 5 -18 18 -30 18 -17 39 -23 82 -26 43 -2 61 -8 73 -23 20 -24
61 -39 61 -21 0 7 3 9 7 5 4 -4 8 -44 8 -89 0 -73 4 -87 30 -130 17 -27 35
-57 41 -68 7 -12 17 -26 23 -32 15 -15 14 -23 -6 -43 -16 -16 -15 -18 10 -38
15 -12 27 -27 27 -32 0 -6 9 -19 20 -29 11 -10 20 -15 20 -12 0 3 14 2 32 -3
l31 -10 -29 31 c-23 24 -26 33 -17 47 6 9 18 16 27 14 9 -2 16 1 16 7 0 5 21
-2 46 -15 43 -23 49 -24 110 -12 56 10 66 9 82 -5 14 -13 30 -15 68 -11 50 6
75 -5 86 -36 5 -15 78 16 78 33 0 19 -20 36 -35 31 -14 -6 -28 33 -14 42 5 3
9 18 9 33 0 16 7 34 15 41 19 16 20 56 1 67 -8 5 -16 36 -21 78 -6 60 -5 68 8
57 11 -10 19 -7 41 13 22 21 26 31 21 54 -5 24 -2 30 15 36 20 6 20 8 4 19
-13 10 -14 15 -5 20 7 5 20 1 29 -7 9 -9 29 -19 44 -22 16 -4 25 -11 22 -17
-3 -5 -1 -15 6 -23 8 -9 8 -24 2 -48 -11 -39 0 -60 38 -70 35 -9 43 -17 62
-59 10 -21 22 -38 27 -38 16 0 25 22 12 29 -8 5 -5 13 9 26 22 20 25 46 10 75
-8 15 -5 20 22 29 17 6 43 11 58 11 15 0 46 14 69 31 24 17 49 28 57 25 10 -4
9 5 -5 42 -9 26 -16 55 -13 64 2 13 -1 16 -13 12 -15 -6 -16 -1 -10 42 4 27
12 57 17 67 5 11 5 17 -2 17 -5 0 -10 -4 -10 -9 0 -6 -16 5 -36 23 -25 23 -35
40 -33 57 2 23 -26 99 -40 109 -26 18 -40 57 -35 92 5 28 1 48 -16 80 -33 63
-40 94 -28 126 9 22 7 35 -9 67 l-21 39 30 28 c17 15 34 28 39 28 5 0 9 7 9
16 0 11 6 15 20 11 13 -3 20 0 20 10 0 8 4 12 9 8 6 -3 6 7 0 27 -13 47 -12
55 11 61 14 4 20 14 20 35 0 17 5 34 11 38 6 3 8 17 5 30 -6 22 -4 24 19 18
16 -4 25 -2 25 6 0 7 7 10 15 6 8 -3 15 -1 15 4 0 6 7 10 16 10 8 0 12 4 9 10
-3 5 -1 19 5 30 8 15 17 18 40 13 34 -6 70 18 70 47 0 10 11 25 25 34 14 9 25
24 25 33 0 9 10 30 23 47 13 17 34 51 48 76 28 52 36 60 67 60 12 0 22 6 22
14 0 8 7 16 15 20 8 3 12 12 9 21 -4 11 0 15 16 15 15 0 20 5 17 14 -3 8 -3
16 1 18 4 2 21 20 39 40 l32 37 -22 40 c-16 30 -31 42 -62 52 -72 23 -79 28
-61 48 14 15 14 20 1 45 -8 16 -15 36 -15 45 -1 41 -98 114 -135 101 -12 -4
-26 0 -39 12 -11 10 -28 18 -37 18 -10 0 -24 3 -32 6 -10 3 -17 -3 -21 -20z
m-506 -900 c0 -3 -4 -8 -10 -11 -5 -3 -10 -1 -10 4 0 6 5 11 10 11 6 0 10 -2
10 -4z m-272 -214 c2 -12 -1 -22 -6 -22 -5 0 -7 -14 -4 -30 6 -39 -13 -60 -52
-60 -41 0 -66 34 -36 50 11 6 20 16 20 23 0 7 9 18 20 25 11 7 20 19 20 28 0
24 35 12 38 -14z m555 -491 c3 -14 1 -18 -9 -14 -8 3 -14 14 -14 25 0 23 16
16 23 -11z m-293 -351 c0 -6 -7 -10 -15 -10 -8 0 -15 2 -15 4 0 2 -3 12 -7 21
-5 15 -3 16 15 6 12 -7 22 -16 22 -21z"/>
<path d="M6706 15255 c9 -38 12 -42 20 -21 4 11 0 24 -10 34 -16 16 -17 15
-10 -13z"/>
<path d="M5956 15044 c-9 -22 1 -34 29 -34 19 0 23 4 18 18 -12 32 -37 41 -47
16z"/>
<path d="M6770 14996 c0 -2 9 -6 20 -9 11 -3 18 -1 14 4 -5 9 -34 13 -34 5z"/>
<path d="M7210 13770 c0 -5 5 -10 10 -10 6 0 10 5 10 10 0 6 -4 10 -10 10 -5
0 -10 -4 -10 -10z"/>
<path d="M8424 13492 c-4 -15 -12 -21 -21 -18 -8 4 -28 -7 -45 -24 -16 -17
-33 -28 -37 -25 -5 2 -17 -2 -27 -9 -10 -8 -23 -11 -29 -6 -5 4 -45 11 -87 15
-74 6 -78 6 -78 -14 0 -17 -5 -19 -35 -16 -23 3 -46 -2 -70 -16 -21 -12 -44
-19 -57 -16 -16 4 -18 3 -9 -6 17 -17 14 -48 -4 -41 -8 4 -15 1 -15 -5 0 -6
-6 -11 -14 -11 -8 0 -24 -12 -36 -27 -19 -25 -20 -28 -4 -33 14 -5 12 -10 -14
-29 -18 -12 -32 -29 -32 -37 0 -16 -45 -20 -55 -4 -4 6 -11 8 -16 5 -23 -15
-107 -10 -149 9 -67 29 -83 30 -75 6 5 -15 2 -20 -14 -20 -11 0 -22 4 -26 10
-7 11 -56 -5 -67 -23 -5 -8 -15 -4 -33 15 -14 15 -26 31 -26 35 -3 19 -14 40
-36 71 l-24 32 -26 -20 c-14 -11 -30 -20 -35 -20 -5 0 -26 -11 -46 -25 -28
-19 -49 -25 -93 -25 -34 0 -75 -8 -101 -19 l-44 -18 -29 23 c-17 13 -40 24
-53 24 -13 0 -39 11 -59 25 -50 33 -56 22 -11 -18 34 -31 36 -35 28 -70 -6
-30 -4 -42 11 -61 10 -13 19 -27 19 -31 0 -3 15 -30 33 -58 19 -29 37 -68 41
-87 9 -48 12 -51 89 -88 62 -30 70 -32 81 -17 10 14 13 11 25 -21 12 -32 11
-38 -3 -46 -22 -12 -20 -45 4 -66 11 -9 25 -34 31 -55 10 -37 12 -39 43 -33
38 7 53 -2 30 -18 -13 -10 -10 -15 22 -36 42 -27 62 -74 70 -164 3 -27 11 -58
18 -68 16 -23 10 -58 -10 -58 -8 0 4 -18 26 -40 22 -22 40 -44 40 -49 0 -5 12
-23 26 -40 20 -24 23 -35 15 -45 -6 -7 -8 -15 -5 -18 9 -10 11 -98 2 -98 -5 0
-6 -9 -3 -20 3 -11 2 -20 -3 -20 -12 0 -4 -38 10 -46 6 -4 15 0 20 7 6 10 8 2
6 -23 -3 -26 0 -38 9 -38 7 0 10 7 6 16 -5 15 -3 15 26 0 27 -15 31 -15 31 -1
0 8 5 15 10 15 6 0 10 9 10 19 0 24 25 34 41 15 8 -10 15 -11 24 -4 8 6 15 6
23 -2 14 -14 16 -44 3 -52 -15 -9 -71 -133 -71 -156 0 -16 -4 -20 -16 -16 -13
5 -16 1 -12 -22 2 -16 -2 -34 -9 -41 -7 -6 -13 -20 -13 -29 0 -11 -23 -30 -60
-50 -52 -29 -60 -37 -60 -62 0 -16 -5 -32 -10 -35 -6 -4 -8 -16 -4 -27 5 -16
3 -20 -8 -16 -11 5 -14 -4 -13 -38 1 -24 -2 -44 -7 -44 -15 0 -8 -27 11 -44
19 -18 19 -18 -9 -46 -22 -21 -26 -31 -17 -40 9 -10 9 -14 0 -17 -9 -3 -10
-10 -3 -23 17 -32 -24 -110 -57 -110 -8 0 -26 -13 -40 -30 -16 -19 -34 -30
-51 -30 -15 0 -36 -7 -46 -15 -17 -13 -22 -13 -37 1 -16 15 -17 14 -12 -5 3
-12 13 -21 23 -21 22 0 37 -18 42 -50 1 -14 9 -26 16 -26 6 -1 16 -2 21 -3 4
0 20 -11 34 -23 15 -13 42 -36 62 -53 21 -18 34 -38 33 -50 -3 -29 11 -65 25
-65 13 0 16 -48 5 -66 -6 -9 -2 -84 6 -91 6 -7 65 19 69 30 2 7 2 0 0 -15 -7
-46 5 -68 37 -68 19 0 29 -6 33 -19 7 -28 45 -48 105 -56 44 -6 52 -4 52 9 0
22 -31 56 -51 56 -9 0 -22 7 -29 15 -7 8 -21 15 -32 15 -14 0 -18 6 -16 22 2
15 -5 26 -22 35 -18 9 -20 13 -7 13 13 0 17 8 17 36 0 31 9 45 60 96 33 32 60
64 60 70 0 7 4 7 14 -1 10 -8 16 -8 25 3 6 8 20 12 30 9 11 -3 29 0 40 7 19
10 23 7 36 -24 9 -20 21 -36 29 -36 7 0 19 -7 26 -15 10 -12 9 -16 -4 -21 -9
-3 -16 -12 -16 -20 0 -8 -4 -14 -10 -14 -5 0 -10 -6 -10 -14 0 -14 88 -50 108
-44 5 2 21 -9 35 -24 31 -33 90 -39 106 -10 7 12 13 14 21 6 8 -8 7 -14 -5
-24 -20 -17 -19 -42 5 -72 10 -14 17 -28 14 -31 -15 -14 46 -91 109 -138 15
-11 27 -29 27 -39 0 -22 35 -33 51 -14 9 11 15 8 33 -14 13 -15 26 -44 30 -64
4 -21 11 -38 16 -38 6 0 9 6 7 13 -1 8 8 11 27 10 31 -2 70 -40 81 -78 4 -11
14 -35 23 -53 13 -26 14 -34 4 -41 -19 -11 -4 -68 24 -90 13 -10 24 -28 24
-39 0 -11 7 -25 16 -33 8 -7 13 -21 11 -30 -4 -13 3 -20 23 -24 21 -5 34 -20
59 -67 17 -33 31 -68 31 -77 0 -9 9 -30 19 -48 18 -28 18 -32 4 -38 -14 -5
-11 -10 15 -28 17 -12 32 -27 32 -33 0 -12 109 -35 158 -32 22 1 37 -5 47 -18
19 -25 19 -34 0 -34 -8 0 -15 -7 -15 -15 0 -8 -7 -15 -15 -15 -9 0 -12 -6 -8
-16 4 -10 -1 -22 -12 -30 -16 -12 -18 -34 -4 -84 3 -9 -5 -16 -20 -18 -13 -2
-49 -28 -79 -58 -31 -30 -62 -54 -69 -54 -10 0 -13 -12 -11 -41 2 -38 -6 -51
-36 -62 -5 -2 -1 -15 8 -29 17 -25 16 -27 -5 -33 -19 -6 -21 -12 -15 -51 5
-40 4 -44 -15 -44 -12 0 -23 -8 -26 -20 -3 -11 -10 -20 -15 -20 -6 0 -5 -7 2
-15 15 -19 -3 -45 -30 -45 -43 0 -49 -9 -34 -45 17 -40 18 -81 4 -90 -6 -4
-10 -16 -8 -28 2 -16 -3 -23 -19 -25 -16 -2 -23 -10 -23 -27 0 -12 -7 -25 -15
-29 -17 -6 -21 -46 -5 -46 19 0 10 -29 -11 -35 -20 -7 -23 -27 -4 -26 16 0 40
-52 26 -57 -6 -2 -11 -22 -11 -45 0 -23 -4 -48 -9 -56 -16 -24 43 -96 101
-124 59 -28 106 -39 114 -26 19 31 46 -28 38 -80 -4 -26 -1 -48 10 -69 20 -39
20 -45 -2 -38 -10 4 -26 0 -35 -7 -17 -11 -17 -15 -2 -47 8 -19 19 -42 24 -50
27 -49 30 -59 21 -65 -6 -3 -10 -13 -10 -22 0 -11 6 -14 21 -10 14 4 29 -2 45
-18 17 -17 24 -20 24 -10 0 25 17 17 55 -27 23 -26 39 -38 42 -31 4 10 10 10
26 1 12 -6 24 -10 26 -9 2 2 11 -9 20 -23 13 -22 13 -34 3 -82 -6 -31 -18 -64
-26 -73 -7 -9 -17 -31 -21 -49 -5 -25 -3 -33 11 -39 10 -4 19 -2 22 5 2 7 13
12 24 12 16 0 19 -5 15 -21 -4 -16 -3 -18 8 -9 24 20 36 1 18 -27 -16 -24 -16
-26 0 -38 9 -6 14 -15 10 -19 -12 -12 -41 25 -37 47 4 21 4 21 -4 2 -7 -16 -1
-30 32 -69 22 -28 42 -52 42 -55 5 -22 30 -71 37 -71 5 0 27 -16 50 -35 28
-25 44 -32 52 -25 9 7 16 6 25 -5 7 -8 17 -15 23 -15 14 0 77 -71 77 -87 0 -7
9 -17 21 -23 12 -7 18 -17 15 -27 -4 -9 1 -17 14 -20 10 -3 22 -13 25 -23 3
-9 24 -36 46 -59 31 -31 38 -45 30 -54 -9 -12 -12 -39 -10 -102 0 -11 -2 -31
-6 -45 -8 -35 27 -90 59 -90 13 0 29 -7 36 -15 18 -21 47 -19 60 5 6 11 19 20
28 20 10 0 22 4 28 10 5 5 22 11 37 12 15 1 27 6 27 10 0 4 7 8 15 8 8 0 15 9
15 20 0 11 7 20 15 20 17 0 38 34 27 45 -4 4 7 4 24 1 34 -8 50 9 45 48 -4 28
18 37 79 30 47 -5 58 -3 77 15 14 13 35 21 57 21 19 0 39 6 43 13 4 7 23 19
40 26 18 7 43 24 57 37 14 15 30 22 40 18 11 -4 21 3 33 24 10 17 28 34 41 37
19 5 21 9 12 25 -15 28 -13 50 5 43 9 -3 21 2 28 11 7 9 27 17 44 19 38 2 42
12 13 27 -22 12 -60 5 -60 -11 0 -5 -6 -9 -13 -9 -8 0 -13 13 -13 36 0 31 3
35 21 30 11 -3 28 -6 38 -6 9 0 17 -7 17 -15 0 -8 7 -15 16 -15 18 0 46 25 37
33 -3 4 -9 25 -13 47 -6 32 -4 43 7 47 36 14 -29 106 -68 96 -9 -3 -26 0 -36
7 -16 10 -16 10 5 5 13 -4 22 -2 22 5 0 6 4 9 9 6 14 -9 41 4 41 20 0 8 3 14
8 14 12 0 81 -26 88 -33 4 -4 22 -7 41 -7 21 0 33 -5 33 -13 0 -8 7 -14 15
-14 20 0 19 9 -5 30 -11 9 -20 22 -20 28 0 8 4 8 14 0 12 -10 19 -8 35 8 12
12 33 21 47 21 40 0 61 17 68 55 8 40 6 39 43 23 39 -16 63 -10 101 23 18 16
38 29 43 29 6 0 9 7 5 15 -3 8 -1 15 4 15 6 0 10 6 10 14 0 8 9 17 19 21 23 7
18 35 -13 79 -21 31 -22 31 28 10 7 -3 20 2 29 10 9 9 23 16 32 16 14 0 16 6
10 38 -5 29 -4 34 6 25 7 -7 24 -9 41 -6 16 3 39 0 51 -6 26 -14 83 2 72 19
-6 10 1 12 42 13 17 0 23 7 28 38 4 22 11 37 16 33 5 -3 16 1 24 10 13 13 13
19 -7 53 l-21 38 34 -32 c34 -32 35 -32 47 -12 7 11 10 24 7 29 -4 6 0 10 8
10 8 0 20 7 27 15 7 8 21 15 31 15 20 0 91 63 87 77 -1 4 4 34 12 66 9 41 21
64 37 74 12 8 20 19 18 24 -3 4 3 13 14 18 31 17 34 88 4 128 -16 22 -22 40
-18 55 5 18 0 27 -24 41 -21 12 -28 22 -24 37 3 11 1 26 -5 33 -12 14 -5 57 9
57 5 0 8 3 7 8 -4 14 34 62 50 62 13 0 12 3 -3 20 -14 15 -15 23 -6 33 8 10 8
22 0 46 -8 24 -8 35 1 46 14 17 5 70 -20 105 -26 38 -42 163 -30 230 6 30 13
74 17 98 4 33 12 46 34 59 21 13 29 25 29 45 0 20 7 32 23 39 32 15 24 63 -18
110 -27 30 -32 43 -31 80 3 54 16 80 50 99 34 18 33 29 -10 75 -54 59 -58 70
-28 84 l25 11 -31 43 c-60 83 -54 78 -89 66 -18 -6 -35 -9 -38 -5 -3 3 -12 1
-19 -5 -9 -7 -18 -7 -31 0 -11 6 -13 11 -5 11 8 0 12 9 10 23 -2 16 -9 21 -26
20 -13 -2 -22 3 -22 11 0 8 -7 17 -16 20 -12 5 -15 2 -10 -10 15 -40 -82 -71
-128 -41 -29 20 -83 23 -121 8 -21 -9 -26 -14 -16 -20 8 -5 10 -14 7 -20 -4
-6 -1 -14 7 -17 17 -6 18 -34 1 -34 -8 0 -11 -6 -8 -14 7 -19 -49 -16 -73 5
-10 9 -26 19 -36 22 -15 6 -16 10 -6 29 7 13 17 26 22 30 6 4 -1 10 -16 13
-20 5 -27 13 -27 31 0 15 6 24 16 24 9 0 14 5 12 12 -6 18 -28 22 -28 4 0 -22
-13 -26 -53 -15 -25 7 -43 7 -56 -1 -12 -6 -28 -7 -43 -1 -21 8 -26 5 -36 -19
-7 -16 -29 -34 -51 -45 -24 -11 -44 -28 -51 -45 -9 -21 -21 -30 -48 -35 -20
-4 -41 -10 -47 -13 -5 -4 -26 -7 -45 -7 -26 0 -35 -5 -38 -19 -2 -10 3 -23 12
-28 9 -5 16 -16 16 -23 0 -22 -33 -18 -48 6 -9 14 -17 18 -25 11 -26 -20 -60
-21 -86 -1 -23 17 -47 22 -91 18 -8 -1 -22 2 -31 5 -12 5 -20 -1 -30 -23 -14
-32 -36 -40 -57 -19 -7 7 -12 8 -12 4 0 -5 -7 -3 -15 4 -13 11 -14 10 -8 -6 6
-16 3 -15 -26 5 -17 13 -31 30 -30 40 3 38 -2 51 -21 51 -11 0 -20 -5 -20 -11
0 -7 -18 -10 -49 -7 -39 2 -47 0 -43 -11 3 -9 -15 -3 -49 16 -39 23 -57 40
-64 62 -6 22 -20 36 -47 48 -21 9 -38 22 -38 27 0 12 -31 53 -68 93 -17 18
-26 22 -35 14 -16 -12 -135 46 -182 89 -38 35 -62 43 -69 24 -3 -8 -30 -26
-59 -38 -51 -23 -77 -54 -77 -91 0 -8 -4 -15 -10 -15 -5 0 -10 8 -10 18 -1 16
-1 16 -11 -1 -8 -14 -14 -15 -30 -6 -22 11 -51 33 -79 60 -9 8 -22 13 -28 11
-7 -2 -12 2 -12 8 0 7 -13 0 -28 -16 -15 -16 -26 -35 -24 -41 2 -8 -4 -13 -15
-13 -27 0 -35 -11 -20 -28 19 -23 -41 10 -75 41 -24 22 -29 23 -45 11 -24 -18
-58 -18 -73 1 -7 8 -18 15 -24 15 -7 0 -20 16 -29 35 -9 19 -20 34 -24 33 -5
-1 -18 4 -31 11 -20 11 -21 15 -10 28 11 14 10 16 -14 10 -15 -4 -29 -3 -33 3
-3 5 -11 7 -19 4 -15 -6 -19 54 -4 73 6 7 7 29 4 49 -6 27 -11 34 -23 30 -10
-4 -27 4 -44 20 -21 20 -32 24 -41 16 -10 -8 -16 -4 -25 15 -11 23 -11 25 10
19 64 -19 107 -6 93 29 -3 9 3 33 14 55 17 33 18 40 5 50 -8 7 -12 16 -9 21 3
5 0 9 -5 9 -6 0 -11 -9 -11 -20 0 -11 -7 -20 -15 -20 -8 0 -15 -4 -15 -9 0 -5
-8 -8 -17 -7 -12 1 -17 -6 -16 -17 0 -12 -4 -16 -13 -13 -10 4 -14 -4 -14 -28
0 -29 -4 -34 -29 -39 -16 -4 -40 -17 -53 -30 -28 -30 -52 -39 -66 -25 -13 13
-85 17 -93 5 -9 -12 -52 31 -44 44 4 5 1 26 -6 47 -7 20 -14 39 -14 42 -9 32
-29 61 -52 72 -17 8 -31 25 -37 46 -5 19 -16 32 -25 32 -19 1 -61 34 -61 49 0
6 12 8 30 5 18 -4 36 -1 45 6 18 15 20 -1 3 -18 -9 -9 -9 -12 2 -12 19 1 53
47 45 60 -3 6 3 10 14 10 16 0 21 6 21 25 0 18 5 25 20 25 13 0 20 7 20 19 0
10 7 24 15 31 9 7 13 21 10 31 -4 11 -2 19 4 19 6 0 11 7 11 16 0 23 -39 74
-56 74 -23 0 -69 59 -66 85 2 13 -2 26 -7 30 -13 8 -4 54 14 74 10 10 11 21 4
38 -5 13 -6 35 -3 49 4 13 -2 46 -14 76 -11 29 -24 67 -30 83 -6 17 -22 59
-37 94 -20 48 -25 69 -17 81 5 9 8 28 5 42 -3 14 -1 28 5 32 17 10 1 99 -22
124 -15 17 -16 22 -4 17 10 -4 24 2 37 16 18 20 19 24 6 43 -20 28 -19 36 5
36 14 0 20 7 20 24 0 29 13 35 58 28 30 -4 38 0 77 44 35 38 43 53 39 74 -4
17 0 31 10 39 9 8 16 28 16 45 0 34 16 61 39 68 11 3 11 7 -3 20 -9 9 -16 33
-16 52 0 20 -7 53 -15 74 -18 45 -9 84 25 102 12 6 20 21 20 35 0 14 5 25 10
25 6 0 8 20 5 53 -6 51 -5 52 29 71 20 10 33 22 31 26 -3 5 2 10 10 14 8 3 15
14 15 24 0 20 29 52 47 52 17 0 26 31 24 77 -2 38 0 43 24 49 14 3 39 4 55 0
22 -4 30 -2 30 9 0 18 -1 18 38 4 28 -10 35 -8 63 15 17 14 39 26 50 26 10 0
19 5 19 10 0 6 7 10 15 10 10 0 15 10 15 28 0 43 11 72 28 72 18 0 41 29 42
52 0 9 -27 38 -60 65 -33 26 -60 52 -60 56 0 5 -5 5 -10 2 -22 -14 -49 8 -66
51 -20 52 -32 60 -105 72 -30 5 -62 13 -71 17 -13 5 -18 3 -18 -9 0 -22 -19
-28 -55 -17 -25 7 -27 10 -12 16 9 4 17 15 17 24 0 21 -43 46 -60 36 -7 -4
-16 -1 -21 6 -12 19 -11 32 1 24 15 -9 12 8 -5 31 -14 19 -15 18 -21 -4z
m-1054 -332 c0 -5 -4 -10 -10 -10 -5 0 -10 5 -10 10 0 6 5 10 10 10 6 0 10 -4
10 -10z m1895 -3170 c3 -5 2 -10 -4 -10 -5 0 -13 5 -16 10 -3 6 -2 10 4 10 5
0 13 -4 16 -10z"/>
<path d="M6715 13290 c3 -5 11 -10 16 -10 6 0 7 5 4 10 -3 6 -11 10 -16 10 -6
0 -7 -4 -4 -10z"/>
<path d="M8635 12880 c-3 -5 -1 -10 4 -10 6 0 11 5 11 10 0 6 -2 10 -4 10 -3
0 -8 -4 -11 -10z"/>
<path d="M7415 11830 c3 -5 8 -10 11 -10 2 0 4 5 4 10 0 6 -5 10 -11 10 -5 0
-7 -4 -4 -10z"/>
<path d="M7280 11823 c0 -4 5 -15 10 -23 8 -13 10 -13 10 2 0 9 -4 20 -10 23
-5 3 -10 3 -10 -2z"/>
<path d="M7312 11798 c2 -16 11 -24 28 -26 21 -3 22 -2 11 12 -11 13 -11 16 0
17 8 0 5 4 -6 9 -31 14 -37 12 -33 -12z"/>
<path d="M7230 11780 c0 -18 -3 -19 -22 -9 -16 9 -23 9 -26 0 -2 -6 -10 -11
-17 -11 -21 0 -26 -16 -15 -45 10 -27 11 -27 31 -9 12 11 23 18 25 16 2 -1 20
12 39 30 26 23 32 34 23 40 -22 14 -38 9 -38 -12z"/>
<path d="M7050 11715 c-7 -9 -6 -16 4 -24 9 -7 13 -28 11 -61 -1 -28 2 -50 7
-50 5 0 7 -4 4 -9 -3 -5 2 -19 12 -31 15 -18 24 -21 50 -16 27 6 30 10 23 29
-4 12 -7 45 -6 73 l2 50 -48 26 c-38 20 -51 23 -59 13z"/>
<path d="M8132 10664 c10 -10 20 -15 24 -12 3 4 -5 12 -18 18 -22 12 -22 12
-6 -6z"/>
<path d="M8296 10054 c-3 -9 -6 -16 -6 -17 0 -1 14 -3 30 -4 32 -2 32 10 0 27
-13 7 -19 6 -24 -6z"/>
<path d="M11797 7785 c-8 -7 -26 -17 -41 -21 -14 -3 -26 -13 -26 -22 0 -12 -4
-12 -22 4 -12 10 -18 13 -14 7 4 -8 1 -13 -8 -13 -9 0 -16 -4 -16 -10 0 -5 -8
-10 -17 -10 -15 0 -16 -2 -3 -10 20 -13 77 -13 85 0 9 15 54 -12 69 -41 10
-21 9 -29 -11 -59 -12 -19 -27 -41 -33 -47 -8 -9 -8 -13 0 -13 6 0 9 -4 6 -9
-3 -5 3 -11 14 -14 11 -3 20 -1 20 4 0 5 8 9 18 9 10 0 25 9 34 19 14 17 15
22 2 40 -14 19 -13 21 1 21 9 0 15 6 12 13 -2 6 3 17 11 23 16 12 9 50 -7 39
-15 -9 -24 14 -11 30 9 11 7 21 -11 44 -26 35 -32 37 -52 16z"/>
<path d="M11550 7725 c0 -9 6 -12 15 -9 8 4 15 7 15 9 0 2 -7 5 -15 9 -9 3
-15 0 -15 -9z"/>
<path d="M12296 7684 c-22 -21 -20 -47 4 -69 18 -16 18 -19 3 -48 -9 -17 -16
-56 -17 -85 -1 -46 -6 -58 -29 -78 -16 -13 -24 -24 -20 -24 4 0 -5 -7 -21 -15
-28 -15 -31 -15 -54 10 -19 21 -26 24 -39 14 -12 -10 -16 -10 -23 1 -7 11 -14
12 -34 2 -24 -11 -28 -9 -51 26 -14 20 -25 31 -25 24 0 -6 -7 -12 -15 -12 -8
0 -15 5 -15 10 0 14 -33 13 -48 -2 -9 -9 -18 -7 -39 10 -29 23 -127 72 -143
72 -6 0 -10 -9 -10 -20 0 -18 -3 -19 -20 -10 -16 9 -20 8 -20 -5 0 -8 -7 -15
-15 -15 -8 0 -15 -7 -15 -15 0 -8 -4 -15 -10 -15 -5 0 -10 -6 -10 -14 0 -8
-13 -23 -30 -33 -18 -10 -30 -26 -30 -38 0 -29 -11 -41 -43 -49 -15 -4 -25
-11 -22 -16 10 -16 -46 -121 -69 -130 -12 -5 -17 -9 -12 -9 6 -1 -4 -16 -22
-34 l-32 -33 35 -34 c33 -32 34 -35 18 -52 -9 -10 -22 -18 -29 -18 -7 0 -16
-9 -19 -20 -4 -13 -15 -20 -30 -20 -13 0 -27 -4 -30 -10 -3 -5 -17 -10 -30
-10 -15 0 -26 -7 -30 -20 -4 -12 -15 -20 -29 -20 -13 0 -37 -3 -53 -6 -25 -5
-29 -10 -25 -30 4 -22 1 -24 -37 -24 -28 0 -44 -5 -47 -15 -8 -19 -43 -19 -68
0 -31 23 -46 18 -46 -15 0 -30 0 -30 -25 -14 -24 16 -34 44 -16 44 5 0 8 22 5
49 -2 28 0 52 6 56 15 9 2 25 -21 25 -14 0 -19 7 -19 25 0 18 -11 32 -40 51
-40 27 -53 53 -53 105 0 19 -8 29 -29 37 -27 10 -28 9 -28 -18 0 -47 29 -144
46 -153 11 -6 12 -12 5 -21 -8 -9 -8 -22 0 -44 8 -22 7 -36 -1 -53 -11 -19 -9
-24 10 -39 13 -10 20 -22 16 -28 -7 -11 15 -22 45 -22 14 0 21 -9 26 -30 3
-17 10 -33 14 -36 5 -3 9 -14 9 -24 0 -11 9 -24 20 -30 27 -14 25 -22 -11 -42
-17 -10 -27 -22 -24 -28 3 -5 -1 -10 -10 -10 -13 0 -16 -6 -11 -25 4 -16 2
-25 -5 -25 -6 0 -9 -9 -6 -20 3 -13 -1 -21 -14 -25 -10 -4 -19 -14 -19 -24 0
-10 -9 -26 -19 -35 -11 -10 -17 -24 -14 -32 3 -8 -2 -17 -11 -20 -9 -3 -14
-10 -11 -14 3 -5 -3 -13 -12 -19 -13 -7 -18 -23 -19 -58 l-1 -49 66 2 c50 1
74 -3 100 -17 32 -19 34 -19 47 -2 7 10 14 23 14 29 1 31 93 22 132 -13 10 -9
18 -13 18 -9 0 5 15 -1 34 -12 19 -11 43 -18 54 -15 14 3 26 -4 41 -26 15 -21
36 -35 66 -42 45 -11 85 -41 85 -62 0 -19 -21 -37 -42 -37 -23 0 -25 -48 -3
-56 8 -4 12 -10 9 -15 -3 -5 -4 -9 -2 -9 2 -1 21 -3 43 -6 36 -4 38 -3 22 10
-18 14 -18 15 0 26 13 8 14 13 6 16 -7 3 -13 15 -13 26 0 19 2 18 31 -6 31
-27 59 -34 59 -16 0 6 15 10 34 10 26 0 41 7 59 30 14 17 31 30 37 30 6 0 16
12 22 26 9 19 17 24 32 19 12 -3 28 -8 36 -11 8 -2 33 12 54 31 39 35 40 36
29 76 -12 45 -17 43 56 22 20 -5 23 -3 18 10 -8 21 24 31 71 22 46 -9 97 -16
139 -18 17 -1 40 -10 50 -20 26 -23 41 -22 97 8 26 14 60 25 77 25 20 0 29 5
29 16 0 13 7 15 30 11 17 -4 30 -2 30 3 0 15 35 12 68 -7 28 -16 30 -16 47 1
34 34 51 79 41 109 -13 36 3 54 33 38 17 -10 21 -9 21 4 0 17 18 19 40 5 9 -5
19 -5 27 2 9 7 20 2 42 -19 26 -27 30 -28 34 -11 4 12 15 19 39 20 57 3 92 -2
114 -17 19 -12 23 -12 28 0 3 8 11 15 18 15 7 0 14 10 15 23 4 47 16 87 25 87
6 0 8 11 6 25 -4 19 -1 25 11 25 21 0 41 19 41 40 0 8 16 26 36 40 19 14 44
44 54 68 11 23 24 42 29 42 6 0 8 12 5 29 -6 27 -4 28 37 35 50 8 61 20 48 54
-12 32 -8 35 35 24 35 -10 36 -10 36 19 0 16 4 29 9 29 5 0 0 18 -12 40 -14
26 -29 40 -42 40 -19 0 -18 2 4 19 22 17 23 22 17 85 -5 38 -12 64 -17 60 -6
-3 -21 2 -35 11 -29 19 -104 28 -104 12 0 -5 -7 -4 -15 3 -11 9 -14 22 -10 42
8 32 -16 78 -40 78 -10 0 -13 11 -12 41 2 32 -3 45 -25 67 -15 15 -28 35 -28
45 0 10 -5 15 -10 12 -16 -10 -40 14 -40 41 0 12 -8 29 -19 36 -10 7 -20 22
-22 32 -4 20 -49 34 -49 15 0 -6 -7 -8 -16 -5 -29 11 -62 -5 -79 -40 -14 -30
-18 -32 -40 -24 -14 5 -25 7 -25 4 0 -4 -6 -2 -12 3 -25 19 -66 24 -72 8 -3
-8 -16 -15 -30 -15 -14 0 -36 -4 -50 -10 -30 -11 -70 3 -99 34 -10 11 -24 21
-32 22 -8 1 -27 11 -42 22 -56 39 -70 43 -87 26z"/>
<path d="M11386 7663 c-6 -15 -8 -15 -16 -3 -6 8 -10 10 -10 4 0 -6 6 -17 14
-24 8 -6 12 -18 9 -26 -3 -9 0 -12 8 -9 18 6 48 -36 51 -69 2 -18 9 -26 32
-30 16 -3 31 -4 33 -2 3 3 5 26 6 52 0 36 -4 51 -18 58 -10 6 -32 23 -49 39
-35 31 -51 34 -60 10z"/>
<path d="M10670 7180 c0 -5 5 -10 10 -10 6 0 10 5 10 10 0 6 -4 10 -10 10 -5
0 -10 -4 -10 -10z"/>
<path d="M10677 7153 c-4 -3 -7 -13 -7 -21 0 -12 3 -12 15 -2 8 7 15 16 15 21
0 11 -14 12 -23 2z"/>
<path d="M10597 6980 c-4 -16 0 -20 19 -20 27 0 33 24 8 34 -21 8 -21 8 -27
-14z"/>
<path d="M13217 6612 c-16 -7 -16 -9 4 -25 26 -23 20 -41 -14 -45 -19 -2 -27
-9 -27 -22 0 -10 -9 -21 -19 -25 -11 -3 -23 -15 -26 -26 -4 -10 -15 -19 -26
-19 -10 0 -19 -5 -19 -11 0 -8 -17 -10 -54 -5 -45 5 -56 3 -71 -14 -10 -11
-25 -20 -34 -21 -12 0 -10 -4 7 -16 27 -19 27 -25 5 -74 -13 -28 -24 -39 -40
-39 -16 0 -21 -4 -17 -15 4 -8 2 -15 -4 -15 -9 0 -62 -70 -62 -83 0 -4 9 -2
21 5 18 11 23 10 39 -10 10 -12 22 -21 27 -20 23 6 53 -15 53 -38 0 -13 4 -24
9 -24 5 0 3 -14 -6 -30 -8 -17 -16 -36 -17 -43 -3 -23 -17 -37 -29 -30 -7 3
-4 -3 6 -14 21 -25 23 -57 2 -49 -10 4 -17 -3 -21 -22 -3 -15 -10 -35 -15 -45
-7 -12 -7 -23 0 -30 7 -9 2 -19 -14 -35 -41 -39 -58 -84 -64 -163 l-6 -76 26
21 c15 11 25 24 22 28 -2 4 3 5 11 2 9 -3 29 -1 46 4 24 9 30 8 30 -2 0 -8 9
-16 20 -19 11 -3 20 -1 20 4 0 5 12 6 26 3 25 -6 26 -5 20 20 -4 15 -2 26 4
26 5 0 10 -4 10 -9 0 -5 13 -14 29 -19 22 -8 28 -15 24 -30 -11 -43 16 -97 85
-168 54 -57 74 -72 98 -72 16 0 34 4 39 8 16 12 94 19 101 9 3 -5 25 -9 50 -9
39 0 48 5 80 40 20 22 44 40 53 40 18 0 41 18 41 32 0 4 -7 8 -15 8 -10 0 -12
6 -8 18 13 33 27 41 44 26 15 -13 17 -12 23 12 5 20 10 24 18 16 8 -8 7 -16
-3 -29 -12 -15 -11 -15 9 1 14 13 21 29 20 47 -1 15 4 34 11 43 11 13 9 20 -9
45 -20 29 -20 32 -4 56 28 43 90 46 101 5 3 -11 13 -20 22 -20 19 0 45 -36 36
-50 -4 -6 -15 -10 -26 -10 -23 0 -24 -18 -1 -46 20 -24 72 -41 72 -23 0 8 4 8
15 -1 15 -12 36 -3 55 22 3 4 23 -9 43 -28 29 -29 35 -40 26 -50 -9 -11 -6
-16 12 -23 13 -5 33 -18 43 -30 11 -13 26 -19 36 -16 12 4 21 -3 30 -25 7 -16
18 -30 24 -30 7 0 30 -13 52 -30 21 -16 44 -30 49 -30 6 0 15 -10 20 -22 6
-12 29 -28 52 -37 30 -10 45 -23 52 -42 8 -23 16 -27 63 -33 29 -3 70 -9 92
-12 26 -4 37 -3 32 4 -3 6 -7 29 -8 52 -1 32 -7 45 -25 57 -13 8 -23 22 -23
29 0 8 -7 14 -15 14 -8 0 -15 9 -15 19 0 11 -3 26 -6 35 -5 12 0 16 18 16 13
0 29 9 36 20 7 11 20 20 30 20 23 0 66 56 58 76 -3 8 -1 14 5 14 6 0 32 18 58
40 26 22 53 40 59 40 7 0 12 11 12 24 0 14 5 28 10 31 6 3 10 17 10 31 0 13 6
24 13 24 22 1 48 28 49 52 0 12 5 38 10 56 7 23 6 37 -2 47 -9 11 -6 21 19 47
17 18 31 40 31 48 0 9 6 24 14 35 7 11 16 39 19 63 5 39 3 44 -20 53 -16 6
-23 15 -19 24 3 8 1 17 -4 20 -8 5 -8 29 -1 78 0 4 7 7 15 7 7 0 16 9 19 20 4
14 10 18 23 13 12 -5 15 -3 9 6 -6 10 -3 11 13 2 15 -8 21 -7 25 4 4 9 -6 18
-31 26 -20 6 -43 17 -51 23 -11 8 -17 6 -29 -12 -8 -12 -20 -22 -28 -22 -7 0
-20 -10 -28 -22 -9 -12 -16 -18 -16 -13 0 6 -4 4 -8 -3 -16 -25 -38 -1 -50 55
-8 38 -8 60 -2 68 7 9 5 16 -5 25 -9 7 -13 19 -11 27 8 20 -40 62 -64 56 -11
-3 -20 -10 -19 -17 1 -14 17 -53 18 -43 1 11 59 -24 65 -40 5 -13 -5 -17 -36
-14 -10 1 -18 -2 -18 -8 0 -5 8 -15 18 -20 9 -6 11 -11 5 -11 -7 0 -13 -7 -13
-16 0 -13 -8 -15 -35 -12 -24 3 -35 0 -35 -9 0 -8 -13 -13 -35 -13 -19 0 -36
-3 -36 -7 -9 -60 -8 -72 6 -67 8 4 26 -1 40 -10 29 -19 34 -48 8 -44 -14 2
-17 -3 -15 -24 2 -14 -2 -29 -7 -33 -11 -6 45 -65 61 -65 12 0 10 -48 -2 -55
-6 -4 -8 -15 -5 -25 10 -31 -23 -33 -40 -2 -15 26 -15 26 -9 -22 l7 -48 -31 7
c-28 6 -31 4 -37 -24 -4 -17 -10 -29 -15 -26 -4 3 -14 -2 -21 -11 -10 -13 -10
-17 2 -25 8 -5 11 -9 6 -9 -9 0 -50 23 -57 32 -3 4 -23 3 -44 -3 -44 -12 -47
-11 -52 33 -10 81 -14 94 -34 110 -12 10 -28 18 -35 18 -12 0 -16 6 -34 63
-11 33 -5 57 15 57 27 0 14 17 -28 36 -25 11 -48 30 -56 46 -8 18 -23 29 -45
33 -59 11 -79 29 -109 90 -15 33 -28 56 -28 50 0 -5 -5 -4 -12 3 -7 7 -22 12
-35 12 -28 0 -32 34 -6 49 25 14 6 65 -25 69 -14 2 -22 9 -19 16 6 14 -63 41
-73 28 -9 -13 -120 3 -120 17 0 4 -17 17 -39 29 -41 23 -105 29 -117 11 -9
-14 -131 -2 -160 16 -17 11 -22 11 -32 -3 -10 -16 -11 -16 -6 0 5 14 0 17 -25
15 -17 -1 -31 -5 -31 -9 0 -5 -7 -8 -15 -8 -8 0 -15 5 -15 10 0 11 -65 12 -93
2z m218 -32 c3 -5 2 -10 -4 -10 -5 0 -13 5 -16 10 -3 6 -2 10 4 10 5 0 13 -4
16 -10z m-369 -774 c2 -14 0 -15 -12 -5 -17 14 -19 32 -2 27 6 -2 12 -12 14
-22z m-78 -61 c-3 -3 -9 2 -12 12 -6 14 -5 15 5 6 7 -7 10 -15 7 -18z m163
-278 c-8 -8 -11 -3 -11 19 1 25 2 27 11 11 8 -14 8 -22 0 -30z"/>
<path d="M9432 6541 c-22 -14 -39 -56 -31 -76 4 -11 8 -14 8 -7 1 9 8 11 20 7
30 -9 57 36 39 64 -14 23 -17 24 -36 12z"/>
<path d="M9362 6431 c-11 -7 -11 -9 1 -14 16 -6 27 0 27 15 0 10 -11 10 -28
-1z"/>
<path d="M14635 6321 c-3 -5 -1 -12 5 -16 5 -3 10 1 10 9 0 18 -6 21 -15 7z"/>
<path d="M14605 6300 c3 -5 11 -10 16 -10 6 0 7 5 4 10 -3 6 -11 10 -16 10 -6
0 -7 -4 -4 -10z"/>
<path d="M14565 6210 c-3 -5 -1 -10 4 -10 6 0 11 5 11 10 0 6 -2 10 -4 10 -3
0 -8 -4 -11 -10z"/>
<path d="M12746 5565 c19 -30 49 -30 49 0 0 15 -8 21 -33 23 l-33 3 17 -26z"/>
<path d="M12781 5504 c0 -11 3 -14 6 -6 3 7 2 16 -1 19 -3 4 -6 -2 -5 -13z"/>
</g>
</svg>
