<svg version="1" xmlns="http://www.w3.org/2000/svg" width="886.706" height="1120.467" viewBox="0 0 665.029 840.35"><g fill="#222"><path d="M31.53 1.359c-.8 1.1-1.8 1.2-3.6.6-1.8-.7-2.4-.6-2.4.4 0 .8.8 1.7 1.8 2.1 1.6.6 1.6.7-.1 1.7-1.3.7-2.2.7-2.9 0-.7-.7-1.6-.7-3 .1-1.5 1-2.4.9-4.8-.5-1.7-.9-3-1.4-3-.9 0 .4-1.2 1.3-2.6 2-2 .9-3 .9-4.1 0-1-.9-1.7-.9-2.5-.1-.7.7-.4 2.1 1.2 4.7l2.3 3.6-3 3.2c-2.6 2.8-2.9 3.5-1.9 5.9.5 1.6 1.3 2.8 1.8 2.8.4 0 1.7.9 2.8 2l2.1 2.1-2.1 2.6c-1.1 1.4-2 3.9-2 5.5 0 2.3-.4 2.9-1.5 2.4-2.5-.9.7 5.7 3.3 6.9 1.2.5 2.2 1.5 2.2 2.1 0 .6.9 1.9 1.9 2.8 1.1 1 1.7 2.4 1.5 3.1-.3.7.8 3.2 2.5 5.6 1.7 2.6 2.5 4.6 1.9 5-1.8 1.1 6.3 5.2 11.3 5.7 3.1.3 4.9.9 4.9 1.8 0 1.8 6.2 1.5 7.7-.5.7-1 .8-2.2.2-3.3-1.2-2.2-1.2-3.5 0-2.2.5.5 1.8 3.5 3 6.7l2 5.8-4.1 4.2c-2.3 2.3-4.3 3.7-4.5 3-.6-1.5-6.4.1-7.6 2.2-.4.9-1.2 1.3-1.8 1-1.6-1-1 1.3.8 3.1 1.2 1.1 1.8 1.3 2.1.5.3-.9 1-.7 2.5.6 2 1.7 2 1.7 1.5-.2-.4-1.8-.1-2 3.1-1.8 2.7.2 3.1.1 1.6-.5-1.9-.9-1.9-.9.3-1.6 1.3-.4 2.1-1 1.8-1.3-.2-.3 1.1-1.8 3-3.5s3.4-3.9 3.4-5c0-1.4.5-1.8 1.6-1.4.9.4 2.2.2 2.9-.4 1-.8 1.5-.8 2.1.1.4.8.3.9-.4.5s-1.2-.4-1.2.1c0 1.2 6.3 6.4 9.2 7.5 1.7.6 2.5 1.5 2.1 2.3-.2.8 1.4 3.3 3.7 5.7 7.7 7.8 9 9.3 9 10.5 0 .7-1.2.1-2.6-1.2-3.2-3-5.1-2.3-3 1.1 1.9 2.8 2.1 6 .4 7.1-.7.4-1.3 1.7-1.3 2.8 0 1.6-.7 2-4 2.2-2.2.1-4.1.7-4.3 1.3-.2.5-.8.8-1.3.5-1.2-.8.2 2.8 1.5 3.7.7.5.7.8-.1.8-4.3 0 3.4 16.4 7.7 16.5 1.7 0 6.3 4.8 6.9 7.2.9 3.5 4.3 4.2 6.4 1.3 1.2-1.7 1.9-1.9 4.1-1.1 2.3.9 2.6.8 2.6-.9 0-2.3-.2-2.3 3.9-.9 2 .7 3 1.7 2.9 2.7-.6 3.5 9 5 12.9 2 .6-.5 3.7-1.2 6.7-1.5 3.1-.3 5.6-1.1 5.6-1.7 0-.6.6-.4 1.3.4 3.2 4 6.1 0 3.2-4.4l-1.6-2.5 4.5-.6c2.5-.4 4.7-1.4 5-2.2.3-.8 1-1.1 1.6-.8.5.3 1 .1 1-.4 0-.6.8-1.1 1.8-1.1 2.2 0 4.3-2.2 6.6-6.6.9-1.9 2.2-3.1 3.3-3 1.5.1 1.8-.7 1.6-5.2-.2-2.8.1-5.2.5-5.2s1.3-.4 2.1-.9c1.2-.8 1.2-1.2-.2-2.6-1.5-1.5-1.7-1.5-1.7-.1 0 .9-.8 1.6-2 1.6-2.3 0-6 2.9-6 4.7 0 .7-.7 1.3-1.5 1.3s-1.5-.6-1.5-1.4c0-.8-.7-1.7-1.6-2-1.4-.6-1.6 0-1.2 3.9l.6 4.5-5-.1c-4.8-.2-5-.3-7.4-5.1-1.6-3.2-3.1-4.8-4.4-4.8-1 0-2.2-.5-2.5-1-.3-.6-1.4-1-2.5-1-2.2 0-2.8-1.4-2.6-6 .3-4.2.8-6.3 1.9-7.1 3-2.2-5.1-10.9-10.1-10.9-1.3 0-2.5-.8-2.9-1.8-1-2.9-4.1-5.2-6.8-5.2-2.9 0-3.4-1.6-.7-2.4 1.4-.5 1.7-1.4 1.4-3.6-.2-1.7-1-3-1.9-3-2.1 0-7.4-6.2-6.8-8.1.9-2.6-2.3-9.2-4.1-8.5-1 .4-1.8-.1-2.1-1.4-.3-1-1.3-2.2-2.2-2.5-.9-.3-2.8-1.6-4.3-3-2.2-1.9-2.8-3.3-2.8-6.5 0-3.6-.4-4.3-3.2-5.8-3.8-2-7.5-5.8-10.8-11-1.3-2-3.7-4.6-5.3-5.7-1.7-1.1-3.2-2.7-3.3-3.5-1.7-8.1-1.9-8.5-5.2-8.8-2.4-.2-3.6-1-4.2-2.8-.5-1.3-1.7-2.7-2.5-3-.8-.4-1.5-1.2-1.5-2 0-1.8-3.4-1.8-5 0zM.23 2.959c.7 2.5 2.3 3.7 2.3 1.7 0-.8-.6-2-1.4-2.6-1.2-1-1.3-.8-.9.9zM197.13 96.459c-.3.8-1.7 1.5-3 1.5-1.4 0-2.9.6-3.3 1.3-.9 1.5-8.6 3.7-13 3.7-1.5 0-4-.6-5.5-1.4-2.5-1.3-2.8-1.3-4.2 1-1 1.5-2.2 2.1-3.4 1.8-1.1-.3-.9.1.7 1.3 1.9 1.4 4 1.7 10.2 1.4l7.8-.3.7 3.6c.3 2 1 3.9 1.5 4.2 1.9 1.2.9 3.1-1.5 2.7-2-.4-2.7.3-5 4.8-1.9 3.9-2.3 5.6-1.5 6.6.9.9.8 1.7-.1 2.8-.6.8-1.1 3.4-1 5.7.5 8.7.2 9.8-2.5 9.8-1.9 0-2.5.5-2.5 2.2 0 3.1-4.1 8.7-6.8 9.4-1.6.5-2.1 1.1-1.7 2.4.3 1.1-.4 2.9-1.9 4.7-1.8 2.2-2.2 3.3-1.5 4.6.6.9.7 2.3.2 3-.4.6-.6 2-.5 2.9.2 1.3-.3 1.8-1.8 1.8-1.7 0-2.1.4-1.5 1.7.4 1 .9 3.2 1.2 5 .4 2.5 1.1 3.3 3.2 3.5 2.1.2 2.5.8 2.3 2.7-.1 1.4-.9 3.2-1.6 4-.7.9-1.1 2.2-.9 2.8.3.7-.2 1.3-1 1.3-1.6 0-3.7 6.2-3.7 11.4 0 2.5-.6 4-2 4.8-1.1.7-2 2.4-2 3.7 0 1.3-.7 3.3-1.7 4.3-1.6 1.8-2.5 8.1-1.1 7.2 2.7-1.7 7.4-1.1 10.2 1.3 1.8 1.5 3.2 2.1 3.4 1.4.5-1.5 2.1-1.4 5.4.3 2.4 1.3 2.7 1.2 3.1-.6.5-1.8.7-1.8 4.7.8 2.3 1.6 5.1 2.9 6.2 3.1 1.1.2 4.1 2.4 6.7 4.9 4.6 4.6 4.7 4.7 4.1 9.6-.4 2.7-.3 5.1.2 5.4.5.4.7 1.2.4 2-.3.8-.2 1.4.3 1.4.4 0 1.8.9 3.1 2 2.8 2.5 3.9 2.5 4.6.2.3-.9 1.4-3.3 2.4-5.2 1.9-3.7 1.7-6-.5-6-1.6 0-3.5-3-3.5-5.4 0-.9.7-1.6 1.5-1.6 1.1 0 1.4-.7.9-2.4-.5-2.1-.1-2.4 3.4-3 2.2-.3 4.8-.3 5.6 0 1.1.4 1.6.1 1.6-1.1 0-.9.5-1.3 1-1 1.8 1.1 1.1 2.3-2 3.4-1.6.5-3 1.4-3 2 0 1.3 7.1-1 9.4-3.1 1.1-1 2.3-1.8 2.7-1.8.4 0 1.1-.9 1.4-2 .3-1.1 1.5-2 2.5-2 2.7 0 3.2-2.6 1-5.2l-1.9-2.3-.1 3.2c0 2.5-.5 3.3-2.9 4.1-2.4.9-3.2.7-4.6-.8-1.3-1.4-1.4-2.3-.6-3.8 1.4-2.6-.5-4.5-3-3.1-1.5.8-2 .5-2.5-1.7-.5-1.9-1.1-2.4-2.6-2-1.4.3-2.2-.1-2.5-1.5-.3-1-1.2-1.9-1.9-1.9-.8 0-1.4-1-1.4-2.3 0-1.3-.6-2.9-1.2-3.5-1.8-1.8.8-3.4 4.5-2.9 1.5.2 2.7 0 2.7-.5s1.4-.1 3 .7c3.3 1.7 6 1.3 8.4-1.1 1.1-1 2.1-1.2 4-.4 1.8.6 2.6.6 2.6-.1 0-.6 1.3-.1 3 1.1 1.9 1.3 3.7 1.9 5 1.5 1.4-.5 2-.2 2 1 0 1.1.6 1.5 1.8 1.1 1.1-.4 2.8.2 4.2 1.4 1.3 1.1 2.7 2 3.1 2 .5 0 1.6 1.1 2.5 2.5 1.5 2.3 1.5 2.7 0 4.9-2.1 3.3-1.7 10.4.7 11.2.9.3 1.7.9 1.7 1.3 0 .5 1.2 2.1 2.6 3.7 1.5 1.5 2.2 3 1.6 3.2-1.6.5-.2 4.1 1.9 4.7 1.1.4 1.7 1.1 1.4 1.6-.4.5-.1.9.4.9.6 0 1.1 1.4 1.1 3 0 2.6-.5 3.1-3 3.6-2.5.6-2.9 1-2.4 3 .6 2.2-.2 2.9-2.8 2.5-.4 0-.5.6-.1 1.5.4 1-.2 1.7-1.6 2.1-1.1.3-2.1 1.2-2.1 1.9 0 .8-1 1.8-2.1 2.2-1.6.6-2.2 1.8-2.3 4.9-.2 3.1-1 4.9-3.2 7-1.6 1.6-4 4.9-5.4 7.2-1.4 2.4-3.5 5.4-4.7 6.8-1.3 1.3-2.3 3.1-2.3 4 0 .9-1.1 3.1-2.5 4.9-1.4 1.8-2.5 4-2.5 4.8 0 .9-.4 1.6-.9 1.6s-1.1.9-1.4 2c-.3 1.2-1.4 2-2.6 2-1.4 0-2.1.6-2.1 1.9 0 1.1-.5 2.3-1 2.6-.6.4-1 2.1-.9 3.8 0 1.8-.5 6-1.1 9.5-1 4.9-1.7 6.6-3.5 7.4-2.1.9-2.2 1.3-1.2 5 1.2 4.7.2 5.8-5.1 5.8-4.6 0-7.2 1.6-7.2 4.5 0 1.5-.9 3.1-2.3 4-1.3.8-2.9 2.7-3.6 4.1-.7 1.6-1.7 2.4-2.6 2.1-.7-.3-1.8 0-2.4.7-1.7 2-9 2.7-11.5 1.1-2.4-1.6-7.1-2-10.3-1-1.6.5-2.3 1.5-2.3 3.2 0 1.9-.4 2.4-1.6 1.9-1-.4-1.4-.2-1.1.6.2.7.9 1.2 1.4 1.1 1.1-.2 1 1.8-.2 5.4-.4 1.3-1.1 2-1.6 1.7-1.3-.8-1.1 1.3.4 3.6.8 1.5.9 2.3.1 2.8-3 2-2 9.2 1.3 9.2 1 0 2.5.5 3.3 1 1.3.9 1.3 1.2-.3 2.1-.9.6-1.4 1.5-1.1 2.1.5.7.1.9-.9.5-1.3-.5-1.7-.1-1.7 1.8 0 1.8-.5 2.5-2 2.5-1.1 0-2 .7-2 1.5s-.6 1.5-1.2 1.6c-.7 0-2.5.2-4 .4-2.1.3-3.2-.3-4.8-2.6-1.2-1.6-1.7-2.9-1.1-2.9 1.8 0 2.3-4.1.7-5.9-.9-1-1.6-2.1-1.6-2.4 0-.4-1.2-2.1-2.7-3.7-2.1-2.4-3.5-3-6.5-3-2.7 0-3.8.4-3.5 1.2.2.7 1.2 1.3 2.3 1.3 3.7.1 4.7 1.5 4.1 6.2-.4 4.2-.3 4.4 2.3 5 2.4.4 3 1.2 3.5 4.4.8 4.5-1.6 9.5-4.1 8.5-.9-.3-1.4.1-1.4 1.4 0 2.6 5 7.1 7.6 6.8 2.6-.3 5.5 1.9 4.8 3.6-.3.7.2 1.9 1.1 2.6 2 1.6 1.9 3-.2 3-1.5 0-1.5.2.2 1.4 1.1.8 2.6 1.1 3.5.8 1.2-.4 1.3-.2.3.9-.7.7-1.3 2.7-1.3 4.4 0 1.7-.7 4-1.5 5.1-1.7 2.5-.8 3.9 1.4 2.1 1.4-1 1.4-1 .4.4-2.1 2.6-.2 14.9 2.5 16.7 1.2.8 2.2 1.9 2.2 2.5 0 .6.9 2 2 3.2 3.7 3.9 8 24.5 5.1 24.5-.5 0-1.1.9-1.4 1.9-.7 2.8 2.2 5 5.8 4.4 2.1-.3 2.6-.2 1.6.5-.8.6-1.1 1.8-.6 3.1.5 1.7 1.2 2 3.3 1.5 1.5-.4 2.4-.3 2 .1-1.3 1.4 1.2 4.5 3.7 4.5 4 0 7.5 1.8 9.3 5 1.1 1.9 2.5 3 4 3 1.2 0 2.2.4 2.2 1 0 .5 1.5 1 3.3 1 1.8 0 3.8.5 4.5 1.2.7.7 1.2.9 1.2.4 0-.4 1.4.3 3.2 1.5 2.3 1.7 4.9 2.4 9.3 2.6 14.8.7 17.1 1 19.5 2.3 1.4.7 3.9 1.3 5.7 1.2 2.2-.2 4.5.7 7.4 2.7 3 2.2 4.6 2.8 5.8 2.2.9-.5 2-.9 2.4-1 .4 0 1.8-.8 3.1-1.8 1.7-1.4 2.1-2.4 1.5-3.8-1.3-3.4-1-3.9 1.1-2 1.9 1.8 2 1.7 2-.3 0-1.2-.6-2.2-1.2-2.2-.7 0-.2-.9 1.2-2 2.5-1.9 2.5-1.9.7-4.8-2.1-3.8-2.1-3.9.3-4.5 1.5-.4 2-1.4 2-3.7 0-3 .2-3.2 3-2.8 2.8.4 3 .3 3-2.9 0-1.9.6-3.6 1.4-3.9.8-.3 1.2-1.3.9-2.2-.3-1.3 1.1-2.5 5.6-4.7 3.9-1.9 6.3-3.8 6.7-5.2.3-1.2 1.4-2.9 2.5-3.9 1-.9 1.9-2.5 1.9-3.5 0-1.9 1.7-2.7 6.8-3.1 3.9-.3 5.5-2.6 4.6-6.5-.7-2.6-.6-2.6 2.9 1 3.7 3.6 4.6 5.7 2.6 5.7-1.4 0-.2 1.8 2.2 3.1 1.9 1 2 .9.9-1-.9-1.7-.8-2.1.5-2.1.8 0 1.5.4 1.5 1 0 .5.5 1 1.1 1 .5 0 .7-.5.3-1.2-.4-.7-.3-.8.4-.4s1.2 1.8 1.2 3.2c0 3.3 4.5 7.4 8.1 7.4 1.6 0 2.9.4 2.9.8 0 1.1 6.1 3.3 7.2 2.6 1.5-.9 3.9 1.7 3.3 3.6-.3 1.1.1 2 1 2.4.9.3 1.5 1.9 1.6 4.3.1 4.9 2 9.8 3.8 9.8 2.1 0 2.4 2 .6 3.9-1 1-1.4 2.4-1 3.6.5 1.5.2 2-1.3 2s-1.9.5-1.5 1.9c.3 1.3-.9 2.8-4.6 5.5-2.8 2.1-5.1 4.2-5.1 4.7s-.8.9-1.8.9c-2.7 0-2.1 3.3 1.2 6.3 2.3 2.2 2.6 2.9 1.6 4.6-.6 1.2-.7 2.1-.1 2.1.5 0 .7.9.4 2-.3 1.1 0 3.3.7 4.9 1.6 3.9-.4 11.1-3.1 11.1-1.6 0-1.7.4-.8 2.7.8 2.3.7 3-.9 4.3-1.1.8-2.7 3.2-3.7 5.2-1 2.3-3.1 4.4-5.3 5.6-2.1 1.1-3.8 2.8-4 3.9-.4 2.7-4.1 3.6-6.9 1.8-3-2-4.3-1.9-4.3.4 0 1.3-1.1 2.1-4.2 2.9-2.3.6-4.7.7-5.3.3-.5-.4-1.8-1.1-2.9-1.5-1.7-.6-1.8-.3-1.3 2.9.5 3.2.4 3.5-2 3.5-2.3 0-2.5.3-1.9 3.2.8 4.4.9 4.8 2.9 8.5 1 1.8 1.5 3.3 1.3 3.3-.3 0 .6 1.6 1.9 3.6 1.4 2 2.5 4.3 2.5 5.1 0 .8 1.1 2.4 2.5 3.6 3 2.6 2.5 6.7-.8 6.7-1.8 0-1.9.2-.5 1.7 2.6 2.9 3.1 6 1.2 6.7-1.5.6-1.4.9.7 3.2 2.1 2.2 2.2 2.7.9 3.7-.8.7-1.6 2.9-1.7 5.1-.3 4.5-3.5 10.2-6.3 10.9-2.1.5-2.8 4.1-1 5.2 2.1 1.3.8 3.1-4 5.2-2.7 1.3-5.5 2.3-6.3 2.3-1 0-1.2 1.3-.6 5.7.9 7.5-.6 12.5-4.3 14.6-2.6 1.5-2.8 1.9-1.7 3.9.9 1.7.9 2.3 0 2.6-.6.2-1.8 1.7-2.6 3.2-.8 1.6-2.8 3.7-4.5 4.7-1.6.9-3 2.3-3 2.9 0 1.2-7.6 5.4-9.9 5.4-.7 0-1 .4-.7.9.3.5-.1 1.4-.9 2.1-.8.7-1.5 1.9-1.5 2.7 0 .8-1.2 2.5-2.7 3.7-2.1 1.8-3.3 2.2-4.9 1.5-1.6-.5-2.6-.3-3.4.7-.7.7-1.8 1.4-2.4 1.4-.6 0-1.6.8-2.1 1.8-3 5.4-5.1 8.2-6.4 8.2-.9 0-1.1.7-.6 2.2.4 1.3.8 3.3.9 4.5.1 3.1 2.6 2.9 2.6-.1 0-1.3.7-2.7 1.6-3 1.6-.6 6.8 1.6 7.9 3.4.4.6 1.3.5 2.5-.2 1.6-1 2.2-.9 3.2.4 1.4 1.8 7.2 2.6 10 1.3 1.3-.5 1.6-1.4 1.2-3.1-.5-2-.3-2.3 1-1.8 2.2.9 5.3 6.7 3.7 7.2-.8.3-.8.9 0 2.4.8 1.6.7 2.3-.8 3.4-1.7 1.4-1.7 1.4.1 2.8 1.6 1.3 2 1.3 3.6-.2 1-.9 2.1-2.7 2.4-4 .4-1.2 1.3-2.2 2-2.2s3-1.3 5.1-3c4.6-3.7 8.3-3.4 14.7.9 5 3.4 6.3 3.7 7.5 1.8.9-1.4 8.4-5.2 9.7-4.8.5.1.6-.5.2-1.4-.3-.9-.6-2.7-.6-3.9 0-1.5-.9-2.7-2.5-3.4-2.8-1.3-3.2-3-1-4.6 1.3-.9 1.3-1.6.3-4.4-.7-1.7-1.6-3.2-2-3.2-.4 0-.8-.9-.8-2.1 0-1.1.4-1.8.9-1.5.4.3 1.6-.3 2.6-1.4 2.1-2.3 4.5-1.1 4.5 2.2 0 1.7.5 1.9 3.3 1.3 1.7-.4 3.9-1.3 4.8-2.1.8-.8 2.8-1.4 4.2-1.4 1.6 0 2.7-.6 2.7-1.4 0-.7.9-1.6 2-1.9 1.4-.3 2-1.4 2-3.1 0-2.2.3-2.5 1.8-1.7 1.8 1 6.2-1.7 6.2-3.8 0-1.5.8-1.4 3.9.8 5.6 4 14.8.1 10.9-4.6-.7-.9-1.1-2.6-1-3.8.2-1.1-.1-3.2-.7-4.6-.5-1.4-.6-4.4-.1-6.8.6-3.1.4-4.4-.5-4.7-1.6-.6-2.8-4.1-2.5-7.2.1-1.2-.8-3.4-1.9-4.8-1.2-1.5-2.1-3.3-2.1-4.1 0-.7-.7-1.6-1.5-1.9-.8-.4-1.5-1.1-1.5-1.6 0-.6 2.3-.9 5.9-.6 4.8.3 6.2.1 7.2-1.3 1.4-2 3.3-1.4 2.5.8-.4.9-.2 1.1.6.7.8-.5.9-.2.5 1-.5 1.3-.3 1.6 1.1 1.2 2.4-.8 4.2.6 5.1 4 .7 2.6 1.4 3 7.2 4.2 3.5.8 7.6 1.9 9 2.7 3.2 1.6 5.4.5 4.6-2.4-.4-1.8-.1-2.1 2.7-2.1 3.8 0 7.9-2.6 7.2-4.6-.3-.7.1-2.6.9-4.1.9-1.7 1.1-2.9.5-3.1-.6-.2-.8-.8-.4-1.3.3-.5 1.2-.5 2.3 0 1 .6 3.6 1.6 5.8 2.4 3.2 1.1 4.1 1.1 5.1 0 1.7-1.7 4.2-1.7 4.2.1 0 1.1 1.6 1.4 7.5 1.4 4.2-.1 7.8-.5 8.1-.9.3-.5 1.4-.9 2.5-.9 2.4 0 2.4-1.7.2-4.3-1.7-1.9-1.7-1.9.2-1.4 1.1.4 2.5.3 3.1-.1 1.3-.8 2.5-6.2 1.4-6.2-.4 0-1.5-1-2.3-2.3-1.5-2.3-1.4-2.3 1.4-1.9 2.4.3 3.2-.1 4.6-2.7 1.7-2.8 2.2-3.1 7-3.1 4.4 0 5.4-.4 6.4-2.2l1.2-2.2 1.9 2.4c1.3 1.6 1.8 3.3 1.4 5.1-.7 3.7 1.8 6.9 5.4 6.9 1.6 0 3.2.5 3.6 1.1.3.6 1.5.9 2.5.6 1.1-.3 1.9-.1 1.9.4s.9.9 1.9.9c1.1 0 2.2.4 2.6.9.3.6 1.7.6 3.4.1 1.5-.4 3.5-.4 4.2.1 2.3 1.4 3.8 1 6.1-1.6 1.8-2.1 3-2.5 6.3-2.3 3.9.3 4 .2 4.3-3 .4-4.2 1.9-4.1 3.8.3.9 2.3 1.9 3.3 2.7 2.8.6-.4 2-.8 2.9-.8 1.4-.1 1.7.3 1.2 1.9-.4 1.7-.3 1.8.5.6.8-1 1.3-1.2 1.9-.4.4.6 1.7 1.4 3 1.8 1.2.4 2.2 1.5 2.2 2.6 0 2.6 3.8 4.7 4.6 2.5.9-2.3 2.2-1.8 3.9 1.5.9 1.6 2.2 3 2.9 3 .8 0 1.6.5 1.8 1.1.2.5 1.1 1.1 2 1.3 1 .1 2.8 1.1 4 2.2 1.3 1.2 4 3.1 6.1 4.3 2 1.3 3.7 2.6 3.7 3.1 0 1.2 6 4.1 7.1 3.4 1.6-1 7.9 4.9 7.3 6.8-.3 1-.1 1.8.4 1.8.6 0 1.3 1.1 1.6 2.5.6 2.3 1.1 2.5 6.7 2.5 3.7 0 5.8-.4 5.4-1-1-1.7 4.7.9 6.1 2.8.8 1.1 1.3 1.2 1.4.4 0-.7 1.4-1.2 3.4-1.2 2.8 0 3.5-.4 4-2.5.8-3 1.1-3.1 8.3-.3 3.2 1.2 6.3 2.1 7 2 .6-.1 1.4.7 1.8 1.8.4 1.2 1.3 1.9 2 1.6.7-.2 1.6.2 1.9 1 .6 1.6 3.6 1.9 3.6.3 0-.5-.4-.8-.9-.4-.6.3-1.3-.1-1.8-.8-.4-.7-1.7-1.7-2.8-2.1-1.2-.4-1.5-1-.8-1.4.6-.4 1.2-1.6 1.5-2.7.4-2.5-6-7.5-9.6-7.5-1.3 0-2.7-.7-3-1.6-.3-.9-1.1-1.2-1.8-.8-.7.5-1.9.9-2.8.9-.8.1-2.4.5-3.6.9-2.9.9-7.4-2.8-7.4-6.2v-2.6l2.8 2.7c3.3 3.2 3.4 3.2 7.8 1.1 2.2-1.1 4.7-1.4 6.9-1.1 3.3.5 3.5.4 4.7-3.4.8-2.8 1.6-3.8 2.6-3.4 1 .3 1.2 0 .8-1-.6-1.7.5-2 2-.5 1.7 1.7 5.9-1.3 5.6-3.9-.2-2.1.1-2.3 2.7-1.8 2.4.5 3.1.2 3.6-1.3.4-1.3 1.5-2 3-2 1.8 0 2.2-.4 1.8-2-.4-1.6.1-2.3 2.5-3.2 4-1.5 5.8-4.8 4.3-7.6-.6-1.1-.8-2.8-.5-3.6.4-.9.1-2.3-.6-3.1-1-1.2-.9-1.6.4-2.1.9-.3 1.6-1.2 1.6-2s.6-1.4 1.3-1.4c.7 0 2.1-1.4 3.1-3 1.4-2.5 1.5-3.4.6-4.5-.7-.9-1-2.8-.7-4.5.4-1.6.2-3.2-.3-3.5-1.3-.8-1.3-8.5 0-8.5.6 0 1-.7 1-1.5 0-.9.6-1.8 1.3-2.1 1.4-.5 1.6-3.1.3-5.2-.4-.7-.2-1.2.7-1.2 1.8 0 3.4-7.3 1.7-7.8-.8-.3-.8-.8 0-1.7.7-.9.7-2.1 0-4-.9-2.3-.8-2.6.4-2.2 1 .4 1.3.1.9-.9-.3-.7-1.1-1.4-1.7-1.4-.7 0-1.8-1.1-2.4-2.5-.6-1.4-1.9-2.5-2.7-2.5-1.5 0-7.5-5.4-7.5-6.8 0-.4-1.3-1.5-2.8-2.6-2.2-1.5-2.7-2.4-2.4-4.7.3-1.8 1.2-3.1 2.6-3.5 1.1-.3 3.1-1.3 4.4-2 1.8-1.2 2-1.8 1.2-3.4-.7-1.3-.7-2.1 0-2.5.6-.4.8-1 .5-1.5-1-1.5 3.7-7 5.9-7 3.1 0 4.8-1.4 4-3.3-.3-.9-.2-1.7.3-1.7s.8-1.4.5-3c-.2-1.7-.8-3-1.3-3s-.9-1.8-.9-4c0-2.5-.6-4.2-1.6-4.8-1.4-.8-1.4-1 0-2.1.9-.8 1.6-2.4 1.6-3.8 0-1.3.7-2.6 1.5-2.9 1.6-.6 1.9-4.6.6-7.7-.6-1.7-.8-1.7-3.3.2-1.5 1.2-4.1 2.4-6 2.8-6.1 1.2-10.7 6.3-9.9 11.1.1.8-.5 1.1-2.1.7-1.3-.3-3.1 0-4.3.9-1.1.9-1.5 1.6-1 1.6 1.5 0 1.5 5 0 5-1.3 0-2.9 2.7-2.7 4.6.1.6-1 .9-2.6.6-2-.3-3.8.4-6 2.3-1.7 1.4-3.6 2.4-4.1 2.1-.5-.3-1.4.1-2.1.9-1.4 1.7-4.6 2-5.5.4-.9-1.3-6.4-.2-8.7 1.9-1 .8-1.8 2.3-1.8 3.4 0 1.5-.8 1.8-4.9 1.8-5.4 0-7.5-1.4-3.9-2.6 2.7-.8 6.4-4.7 5-5.2-.6-.2-.8-1.3-.5-2.5.3-1.3.1-1.7-.4-1.1-.4.7-1.7 1.4-2.8 1.6-1.4.3-1.9 1.1-1.7 2.7l.2 2.4-2.6-2.6c-2-2-3-2.4-4.4-1.7-2 1.1-3 .4-3-2.2 0-1-.4-1.8-1-1.8-.5 0-1-1.6-1-3.5 0-3.6-1.3-4.7-2.4-1.9-1 2.6-.7 7.4.5 7.4.6 0 .8.7.5 1.6-.3.8-.2 2.4.4 3.3.8 1.6.5 1.8-1.6 1.8-3.3 0-3.8.7-2.2 3.2 1.7 2.8-.1 4.1-5.9 4.1-3.3 0-4.1.3-3.7 1.5.9 2.3-4.2 4.2-6.8 2.6-1.8-1.1-2-1.1-1.5.2.9 2.3-1.2 2.5-5 .6-5.1-2.6-6.4-4-5.8-6 .6-1.9-.2-2.3-3.7-2-1.4.2-1.7-.3-1.2-2.7.4-2.1.2-3.1-1-3.5-.9-.4-1.6-1.6-1.6-2.7 0-1.2-.4-3-1-4-.8-1.5-.6-2 1-2.5 1.1-.4 2-1.5 2-2.6s.4-1.8.9-1.5c1.6 1 1.9-1.9.5-3.9-.8-1-1.4-2.7-1.4-3.8 0-1.4.5-1.7 2.2-1.1 2 .6 2.1.5 1-.9-1.4-1.6 0-3.3 1.8-2.2.6.3 1 .1 1-.4 0-1.7 7.1-9.1 8.7-9.1.8 0 1.2.4.8.9-.3.5 0 1.3.6 1.6.6.4.8 1.8.5 3-.5 1.9-.1 2.5 2.4 3.3 2.5.9 3.2.8 4.3-.8.9-1.4 1.7-1.6 2.7-.9 1.2.8 1.2 1.2.2 1.6-.6.2-.9.9-.6 1.4.8 1.3 3.4-.9 3.4-2.9 0-1.3.3-1.2 1.9.2 1.9 1.7 4.7 1.4 3.6-.4-.3-.5 0-1.8.6-2.8 1.1-1.7.8-2.6-2.1-6.1l-3.2-4.2 2.8.7c1.6.4 4.7 1.7 6.9 3l4 2.3 6-5.5c4.5-4.1 6.5-5.3 8.2-4.9 1.2.3 2.3 0 2.6-.8.2-.7 2-1.2 4.3-1.2 3.5 0 3.9-.3 4.2-2.8.3-2.6.6-2.7 4-2.2l3.7.6-2.3-2c-1.7-1.5-2.9-1.8-4.1-1.1-1.9.9-2.4.5-6.8-5.8-1.3-1.7-2.3-3.6-2.3-4.2 0-2-4.2-6.8-5.5-6.4-.7.3-1.5-.5-1.8-1.7-.5-2-.3-2.1 3.3-1.5 2.9.5 3.9.2 4.4-1 .4-1.2.2-1.5-.9-1-1.1.4-1.5-.2-1.5-2.7 0-2.3-.3-2.8-.9-1.8-.8 1.2-1.4 1.3-3.6.3-3.5-1.6-4.3-1.5-5 .8-.5 1.7-1.5 2-6.1 2-5 0-5.5.2-4.9 1.9.6 2.1-1.3 4-2.4 2.3-.3-.6-1.9-1.4-3.4-1.7-3.5-.9-4.4-2.9-2.7-6 .7-1.3 1-2.9.8-3.7-.3-.7.5-2.8 1.8-4.7 2.4-3.5 2.3-5.1-.1-5.1-.8 0-1.7-1.1-2.1-2.5-.8-3-2.9-5-3.9-3.5-.3.6-1.1.7-1.7.4-.7-.4-.7-.9.1-1.3.7-.5.4-1.4-.9-2.9-2.6-2.7-2.5-4 .2-6.9 1.5-1.7 1.7-2.3.7-2.3-1-.1-.9-.4.4-1.4 1.2-.9 1.4-1.6.7-2.1-.5-.3-1-1.8-1.1-3.3-.2-7.7.2-11.7 1.1-12.6 1.5-1.5 1.2-5.3-.6-6-.9-.3-2.7-.6-4-.6-1.4 0-2.7-.6-3-1.4-.7-1.8-4.6-3.3-10.9-4.1-5.9-.8-7.5-1.9-7.5-5.2 0-3.7-6-8.7-14.6-11.9-5.2-2-7.4-3.4-7.4-4.6 0-.9-1.8-3.2-4-4.9-2.2-1.8-4-3.7-4-4.2 0-1.9-5.1-7.7-6.2-7.1-1.3.8-2.8-1.4-2.8-4.3 0-2.5-3.7-9.3-5.1-9.3-.5 0-.9-.6-.9-1.3 0-3-2.2-3.6-5.1-1.5-3.1 2.3-4.9 8.9-3 11.1.7 1 .6 1.7-.7 2.8-2.4 2-5.7 2.2-7.2.4-.7-.8-2.4-1.5-3.9-1.5-3.7-.1-6.6-2.6-6.6-5.8 0-2-.6-2.8-2.2-3-1.3-.2-2.3-1-2.3-1.9 0-.8-4.5-5.8-10-11.2-5.5-5.3-10-10.2-10-10.9 0-.7-.8-2.7-1.7-4.5-.9-1.8-1.6-3.8-1.4-4.5.1-.8-2.1-3.6-4.9-6.2-3.2-3.1-4.9-5.3-4.4-6.1.4-.8.3-.9-.4-.5s-1.7.4-2.3 0c-.8-.4-.7-.9.2-1.5.7-.4 1-1.1.6-1.5-.4-.4-1.6.1-2.7 1.1-1 .9-2.6 1.5-3.3 1.2-.8-.3-1.9-.1-2.5.5-.7.7-1.7.6-3.1-.1-1.7-1-2-.9-1.4.5.5 1.4.3 1.5-1.4.6-2.3-1.3-3.8-.4-3.8 2.3 0 1.3-.7 2-2 2-1.4 0-1.9-.6-1.7-2 .2-1.1.5-2.5.5-3 .3-1.3-8.2-.8-10 .7-1 .8-1.8.7-3.1-.5-1.6-1.5-1.9-1.5-3 .3-1.6 2.6-3.6 2.5-5.5-.3l-1.6-2.2v2.7c-.1 2.1-.6 2.8-2.1 2.8-1.1 0-2 .7-2 1.5s-.9 1.5-2 1.5-2.9 1.4-4.2 3c-2.2 3-2.4 3-8.2 2.4-3.3-.4-7.1-1.3-8.5-2-3.5-1.9-4.8-1.7-5.3.4-.4 1.5-1.3 1.8-3.9 1.5-1.9-.2-4.4-.9-5.6-1.5-1.7-.8-2.6-.8-3.8.2-1.2 1-1.9 1-2.7.2-.7-.7-3.2-1.2-5.8-1.2-2.5 0-5.8-.7-7.4-1.5-3.6-1.9-3.7-1.9-2.9.2.5 1.4.1 1.3-1.9-.5-1.3-1.2-2.9-2.2-3.6-2.2-1.4 0-2.3-1.4-2.7-4.3-1.1-6.8-2.7-10.5-5.8-13.3-4.2-3.9-5.5-7.9-2.8-8.7 1.4-.3 1.8-1.4 1.8-4.6 0-2.3.5-4.7 1.2-5.4.6-.6 1.1-1.7 1.1-2.4s2-3.2 4.4-5.6c2.9-3 4.5-5.6 5-8.2.4-2.2 1.7-5 2.8-6.4 1.6-2.2 1.7-2.7.5-2.9-3.1-.6-2.6-7.2.5-7.2.5 0 1.5-.6 2.2-1.3 1.4-1.4 4.6-8 4.6-9.5 0-.6.4-1.2 1-1.4.6-.2.4-1.5-.5-3.2-1.7-3.2-1.9-5.8-.6-7.2.5-.5 1.1-2 1.3-3.4.2-1.4 1.1-2.6 2.1-2.8 3.2-.6 6.9-4.9 6.2-7.1-.5-1.6-.3-1.9.8-1.5 1 .3 1.6-.5 2.1-2.8.5-2.7.3-3.6-1.6-5.1-1.2-1.1-2.3-3-2.3-4.3-.1-1.3-1-3-2-3.8-1.7-1.2-1.8-1.8-.7-4 1.4-3.2.5-8.4-1.9-11.2-1.1-1.1-1.6-2.3-1.3-2.7 1-1-.7-10.7-1.9-10.7-1.8 0-4.6-3.1-4-4.6.3-.7-.5-2.7-1.7-4.4-1.7-2.4-2.7-2.9-4.3-2.4-1.2.4-3.4.8-4.8.9-1.4.1-3 .5-3.6.8-1.1.7-6.3-4.6-6.3-6.3 0-.5-.9-1.2-2-1.5-1.1-.4-3.3-1.8-5-3.1-1.9-1.6-3.9-2.4-5.7-2.2-2.6.3-2.7.1-2.8-4.2-.1-2.5-.4-5.1-.8-5.7-.4-.6-.3-3.2.2-5.7.8-4.3.7-4.7-1.5-5.2-1.2-.3-2.8-.3-3.4.1-.5.3-1.3 0-1.6-.9-.3-.8-1.7-2.2-3.1-3.1-2.3-1.5-2.6-1.5-4.3 0-1.2 1-2.4 1.4-3.2.9-.7-.5-2.2-1-3.3-1.1-1-.2-3.2-2-4.8-3.9-1.7-2-3.3-3.1-3.6-2.6-.9 1.3-5.3 3.6-7.3 3.8-.9.1-2.9-.9-4.4-2.2-1.5-1.3-3.1-2.4-3.6-2.4-.4 0-.8-.6-.8-1.4 0-1.4-2.9-2.6-6.2-2.6-2 0-2.4 2.6-.5 3.3.7.2.8.8.3 1.3s-1.3.2-1.9-.7c-.8-1.3-1.5-1.4-3.8-.6-2.1.8-3.2.7-5.3-.6-1.4-.9-3.5-1.7-4.6-1.7-1.1 0-2.3-.7-2.6-1.5-.4-.8-1-1.5-1.4-1.5-.4 0-1 .7-1.4 1.5zm262.4 275.8c0 .5-.4.5-1 .2-.5-.3-1-1.4-1-2.3 0-1.5.2-1.5 1-.2.5.8 1 1.9 1 2.3zm-149.5 95.7c-.9 1.4-2.5-.5-2.5-3 0-1.2.3-1.2 1.6.2.9.9 1.3 2.1.9 2.8zm12 8.1c1.1 1.7-.1 2.1-1.5.4-.8-.9-.8-1.5-.2-1.5.6 0 1.4.5 1.7 1.1zm218.5 24.5c0 .8-.5 1.2-1.1.8-.8-.4-.9 0-.4 1.5.3 1.2.2 2.1-.4 2.1-.5 0-1.7.3-2.7.7-1.5.5-1.6.2-1-2.3.4-1.6 1.3-3.2 1.9-3.6 2-1.3 3.7-.9 3.7.8zm-9.5 1.4c.3.5.1 1-.4 1-.6 0-1.1-.5-1.1-1 0-.6.2-1 .4-1 .3 0 .8.4 1.1 1zm17.9 11.1c-.6 1.1-2.4.2-2.4-1.1 0-.5.7-.7 1.5-.4.8.4 1.2 1 .9 1.5zm18.5 32.3c1 1.1.8 1.6-.9 2.1-2.1.7-5-.9-5-2.6 0-1.4 4.7-1 5.9.5zm-44.9 7.6c0 .5-.4 1-.9 1-.6 0-1.3-.5-1.6-1-.3-.6.1-1 .9-1 .9 0 1.6.4 1.6 1zm4.5 4c.3.5-.1 1-.9 1s-1.8-.5-2.1-1c-.3-.6.1-1 .9-1s1.8.4 2.1 1zm-6.5 3c0 .5-.9 1-2.1 1-1.1 0-1.7-.5-1.4-1 .3-.6 1.3-1 2.1-1s1.4.4 1.4 1zm-4 4v1.7c0 .5-1.1.9-2.5 1-2.4.2-3.4-1.5-1.8-3 1-1.1 4.3-.8 4.3.3zm74.4 6.6c.4 1 .1 1.4-.6 1.2-1.5-.5-2.3-2.8-1-2.8.5 0 1.3.7 1.6 1.6zm5.4 5l.2 2.9-2-2.4c-1.1-1.2-1.7-2.7-1.4-3.3 1.1-1.7 2.9-.2 3.2 2.8zm-99.2 58.6c2.2 1.7.5 4.3-2.9 4.3-2.7 0-7.7-3.1-7.7-4.8 0-1.6 8.5-1.2 10.6.5zm132.9 1c-.4 1.3-1.2 2.7-1.8 3.3-.7.7-.8.6-.3-.3.4-.7.1-1.5-.8-1.8-2.9-1.1-1.6-2.7 2.7-3.3.5 0 .5.9.2 2.1zm-359 116.8c.3.5.1 1-.4 1-.6 0-1.1-.5-1.1-1 0-.6.2-1 .4-1 .3 0 .8.4 1.1 1z"/><path d="M153.03 106.659c.8 1.2 1.5 3.1 1.5 4.3 0 2.4 1.6 2.5 5.8.4 3.4-1.6 3.5-1.8 2.6-4.9-.4-1.8-1.3-2.1-5.9-2.1-5.4 0-5.4 0-4 2.3zM229.13 211.659c-.3.4-.6 1.3-.6 2.1 0 .9.3 1.2.6.9.4-.3 1.5-.2 2.5.4 1.4.7 1.9.6 1.9-.3 0-1.5-3.5-4-4.4-3.1zM132.33 230.759c-4.2 2.9-5.8 5.5-4.5 7.2 5.3 6.8 4.7 16-1 16-1.2 0-1.3.3-.3 1.5.9 1.1 1.7 1.2 3.2.4 2.2-1.2 2.1-1.3 3.8 2 .8 1.6.9 2.6.2 3.3-.7.7-.6 1.5.3 2.5 1.2 1.2 1.8 1.2 3.9-.2 1.6-1.1 3.3-1.4 4.7-1l2.2.7-2.1-2.7c-2.2-2.7-2.9-5.7-1.4-5.3 2.6.5 4.2-1.7 4.2-5.7 0-2.5.5-4.5 1.2-4.7.8-.3.5-1.5-1-3.9l-2.1-3.5 2.1-2.2 2.2-2.1-2.8-1.1c-6.6-2.5-10.4-2.8-12.8-1.2zM208.53 255.759c0 .5-1.1 1.4-2.5 2-2.4 1.1-3.5 4.2-1.5 4.2.6 0 1-.5 1-1.1 0-.7 1.1-.9 3-.6 1.6.4 3.2.2 3.5-.3.3-.6.1-1-.4-1-.6 0-1.1-.6-1.1-1.4 0-.8-.4-1.8-1-2.1-.5-.3-1-.2-1 .3zM119.63 266.959c-.7 2-1.7 3-3 3-1.2 0-2.1.7-2.1 1.5 0 1.1-.5 1.2-2.6.5-5.4-2.1-10.8-.2-7.1 2.5 1 .7 2 2.6 2.3 4.4.5 2.4.3 3.1-1 3.1-.9 0-1.6.5-1.6 1.2 0 .6-1.9 2.7-4.2 4.7-4.4 3.8-7.3 4.2-9.7 1.3-1.3-1.6-1.3-1.6-.8 0 .5 1.3.1 1.8-1 1.8-1.3 0-1.4.3-.5 1.2.7.7 1.2 2 1.2 3s.5 1.8 1.1 1.8c.8 0 .8.4.1 1.2-1.4 1.7 1.7 5.5 4.1 5 .9-.2 1.7.1 1.7.7s.9 1.1 2 1.1c2.1 0 6 3.8 7.2 7.1.9 2.3-.3 1.9-3.9-1.4-1.8-1.6-2.3-1.7-2.3-.6 0 .8-1.3 1.9-2.8 2.5-2.4.9-3.1.8-4-.6-.8-1.3-.7-2.1.1-2.9 1.8-1.8-.1-2.6-2-.8-1.4 1.2-2.3 1.3-3.7.5-1.4-.8-1.7-.7-1.2.1.4.6.8 2.9.8 5.1 0 2.2.4 4 .9 4 .4 0 1.1 2 1.5 4.5.3 2.5.8 4.5 1.1 4.5.3 0 1.6-.8 2.9-1.9 2.3-1.8 6.8-1.8 8 0 .9 1.6 2.4 1 2.4-1 0-1.2 1-2.1 2.7-2.6 1.5-.3 3.9-1.5 5.4-2.6 1.5-1 3.4-1.6 4.3-1.3.9.4 1.6.1 1.6-.6 0-.8.9-1 2.5-.6 1.9.5 2.3.3 1.9-.8-.3-.8-.1-2.3.4-3.2.5-1 .6-2.5.2-3.3-.5-.9-1.1-2.3-1.4-3.1-.4-.8-1.5-2.9-2.5-4.5-1.1-1.7-2-4.4-2-6.2l-.1-3.1 8.1.3c7.4.4 8.2.2 8.6-1.5.3-1.1 1.1-2 1.8-2 .8 0 1.7-1.5 2-3.3.4-1.7 1.3-3.5 1.9-3.9.8-.5.6-1.2-.6-2.4-1.3-1.3-1.4-2.1-.5-3.5.9-1.4.7-2.2-.6-3.7-1-1.1-1.9-2.9-2.2-4.1-.7-3.7-1.5-4.1-8-4.1-6.1 0-6.3.1-7.4 3zM408.53 281.259c0 1.6-1.4 2.1-4.8 2-.8-.1-2.3.6-3.3 1.5-1.1 1-3.1 1.9-4.6 2.2-2.2.4-3 1.5-4.6 6.3-2 6.2-1.6 8 2 7.1 1.5-.4 2.2-1.6 2.7-4.6 1.2-7.7 3.1-9.1 9.3-6.7 2.6 1 2.7 1.1.9 2.4-2.2 1.7-1.3 3.5 1.9 3.5 1.2 0 2.5.7 2.9 1.5.3.8 1.2 1.5 1.9 1.5.8 0 1.3.9 1.2 2.2-.3 2.5 2.1 5.8 4 5.8.7 0 2.9 1.6 5 3.6 3.5 3.2 4.3 3.6 7.9 3.1 5.1-.7 9.8 1.4 13.4 5.9 1.7 2.2 3.3 3.2 4.3 2.9.9-.3 2.2.1 2.9 1 .7.8 1.9 1.5 2.7 1.5 2.4 0 6.6 3.2 5.2 4-.7.5.1 1.1 2.1 1.5 2 .4 3.4 1.5 3.7 2.6.3 1 1.3 1.9 2.3 1.9.9 0 2.9.9 4.3 2s2.8 2 3.1 2c1.2 0 .6-4.7-.9-6.6-2.1-2.8-1.8-3.6 1.2-3.2 2 .2 3-.3 3.9-1.9.6-1.3 1.4-2 1.7-1.6.4.3.7.1.7-.5 0-.7-.7-1.2-1.5-1.2-1.3 0-1.2-.4.4-2.2 2.2-2.3 1.9-3.8-.7-3.8-.9 0-2.4-1.5-3.3-3.3-1.6-3.3-6.8-6.6-10.5-6.7-1.1 0-2.9-.9-3.8-1.9-1.4-1.6-2.2-1.8-3.6-.9-2.3 1.5-7.9-2.7-11.7-8.7-1.5-2.4-3.1-4.1-3.5-3.9-.4.3-.8-.2-.8-1.1 0-1.4-.7-1.6-4-1-3.1.5-4.6.2-6.7-1.3-3.5-2.4-7.6-3.5-13.2-3.3-3.6.1-5-.4-7.3-2.6-2.2-2.1-2.8-2.3-2.8-1zm-.2 7.2c-.3.3-.9-.2-1.2-1.2-.6-1.4-.5-1.5.5-.6.7.7 1 1.5.7 1.8zM79.83 298.459c.7 1.3 1.4 2 1.5 1.4.5-1.4-.6-3.9-1.7-3.9-.5 0-.4 1.1.2 2.5zM497.13 302.759c-.2.4.4.8 1.4.8 1 0 1.6-.4 1.4-.8-.3-.4-.9-.8-1.4-.8-.5 0-1.1.4-1.4.8zM81.53 305.359c0 .2.8 1 1.8 1.7 1.5 1.3 1.6 1.2.3-.4s-2.1-2.1-2.1-1.3zM493.53 307.859c0 .5-.9.7-1.9.4-1.6-.4-1.9-.1-1.4 1.5.5 2.1-2.7 4.8-4.2 3.4-.4-.4-.4.3-.1 1.5.4 1.3.3 2.3-.2 2.3-1.6 0-2.2 2.8-1.2 5.4.6 1.6.5 2.7-.3 3.5-1.8 1.8 1.2 3.3 3.7 1.8 1.2-.7 5.4-1.2 9.4-1.3 4 0 7.7-.5 8.4-1.2 1.5-1.5-3.6-9-6.8-9.8-1.4-.4-2.1-1.1-1.7-2 .8-2.2-.6-6.4-2.2-6.4-.8 0-1.5.4-1.5.9z"/><path d="M116.53 319.959c0 .5.5 1 1.1 1 .5 0 .7-.5.4-1-.3-.6-.8-1-1.1-1-.2 0-.4.4-.4 1zM505.53 327.559c0 .8-1.1 1.6-2.5 2-3.5.9-3.1 2.6 1.5 6.4 2.2 1.8 4 3.9 4 4.7 0 .8.5 1.1 1 .8.6-.4 1.7-.2 2.5.5 1 .8 1.5.8 2.1-.2 1.1-1.7 1.4-5.9.4-5.3-1.3.8-2.1-2.6-1-4 .8-1 .6-1.5-.9-2-1.2-.3-2.1-1.2-2.1-2 0-.7-1.1-1.5-2.5-1.7-1.7-.4-2.5-.1-2.5.8zM88.83 330.459c0 .8.4 1.2.9.9.5-.3.6-1 .3-1.5-.9-1.3-1.2-1.1-1.2.6zM133.93 422.059c-.3.6-.2 1.5.3 2s.9.1 1-1.1c.2-2.2-.2-2.5-1.3-.9zM609.63 480.459c-2.6 2.7-4.1 5.2-3.7 6 .3 1-.1 1.5-1.4 1.5-2.6 0-3.3 1.5-1.4 3.1.9.7 1.3 2.1 1 3.5-.7 2.8 1.7 11 4.1 13.7 1.7 1.9 1.7 2 .1 1.4-4.8-1.8-5.2-1.8-2.8.1 2.2 1.8 2.7 1.9 4.1.6.8-.8 2.1-1.4 2.7-1.4.7 0 1.2-1.1 1.2-2.4 0-1.4.5-2.8 1.1-3.1.7-.5.5-1.5-.6-3.1-1.5-2.3-1.5-2.5 1-3.4 1.5-.6 3.3-1 4.1-1 .8 0 1.4-.6 1.4-1.4 0-.9.7-1.2 2-.9 2.4.6 2.6-.9.5-2.7-1.9-1.6-2-4-.1-4 1.6 0 2.9-2.7 1.7-3.4-.4-.3-1.9-.7-3.3-1-3.8-.6-8-3.7-7.4-5.2.8-2.2.2-1.7-4.3 3.1zM659.13 483.859c-1.7 1.9-1.7 2 1.3 3.5 3.9 2.1 4.4 2 3.8-.4-.3-1.1 0-2 .6-2 1.1 0-2.2-2.9-3.4-3-.3 0-1.4.9-2.3 1.9zM654.53 487.959c0 .5.5 1 1.1 1 .5 0 .7-.5.4-1-.3-.6-.8-1-1.1-1-.2 0-.4.4-.4 1zM649.03 497.059c-1.9.7-1.9.8.3.8 1.2.1 2.2.6 2.2 1.3 0 .6.3.9.6.5 1.3-1.3-1.1-3.4-3.1-2.6z"/><path d="M597.13 500.559c-.8 2.2 4.6 6.8 5.7 4.8 1.1-2 .5-4.8-1.3-5.6-2.5-1.1-3.8-.9-4.4.8zM640.53 504.359c0 .9.8 1.2 2.5.8 1.4-.2 2.5-.8 2.5-1.3s-1.1-.9-2.5-.9-2.5.6-2.5 1.4zM165.53 507.359c0 .2.7.7 1.6 1 .8.3 1.2.2.9-.4-.6-1-2.5-1.4-2.5-.6zM558.53 519.559c0 1.6.5 3.6 1 4.4.8 1.3 1 1.2 1-.3 0-.9.5-1.7 1-1.7.6 0 1-1 1-2.2 0-1.2-.3-1.8-.7-1.5-.3.4-1.2.2-2-.4-1-.9-1.3-.6-1.3 1.7zM264.53 531.059c0 .5-.5.7-1.2.3-.7-.4-.8-.3-.4.4.4.6 1.3.9 2.1.6.8-.4 1.2-1 .9-1.5-.7-1.2-1.4-1.1-1.4.2zM554.53 538.759c0 .5.7 1.6 1.6 2.3 1.4 1.2 1.6 1.1 1.3-.5-.4-2-2.9-3.5-2.9-1.8zM628.03 561.959c-.8 1.3.4 3.2 1.6 2.5 1.2-.8 1.2-3.5 0-3.5-.6 0-1.3.4-1.6 1zM630.53 655.959c0 .5.4 1 .9 1 .6 0 1.3-.5 1.6-1 .3-.6-.1-1-.9-1-.9 0-1.6.4-1.6 1zM503.73 656.859c-1.1.7-1.1.9.2 1.4 1 .4 1.6.1 1.6-.8 0-1.7-.1-1.7-1.8-.6zM470.53 658.759c0 .4.7 1.8 1.6 3 1.2 1.7 1.3 2.6.5 3.6-.6.7-.9 2-.6 2.8.5 1.1-.1 1.4-2.4 1-1.7-.2-5 .3-7.4 1.1-3.9 1.3-4.5 1.3-5.3-.1-.8-1.2-1.4-1.3-3.1-.3-2.9 1.5-5.8 1.4-9.1-.3-1.5-.8-3.8-1.6-5.2-1.7-2.4-.4-2.5-.2-2.6 5.3 0 3.1-.6 6.3-1.2 7.1-.9 1.1-.6 1.9 1.3 3.7 1.4 1.3 2.3 3 2.1 3.6-.3.7 0 1.5.7 1.7.7.2-.1.2-1.8 0l-3-.5 2.9 2.4c2.5 2.1 2.7 2.7 1.7 4.6-1.3 2.5-2.6 3-1.7.7.4-1.2-.2-1.5-2.9-1.3-2.1.1-3.5.7-3.5 1.5 0 .7-.5 1.3-1 1.3-.6 0-1.4.9-1.8 2-.8 2-.9 2-5.2-.9-4.4-3-9-4.1-9-2.1 0 .5.8 1.4 1.8 2 1.1.7 1.3 1.3.6 1.6-.7.3-1 1.4-.7 2.4.6 2.4-2.2 2.8-3.5.5-.7-1.4-1.2-1.4-4.1.1-3 1.5-3.6 1.5-7.3 0-2.3-.8-4.5-1.3-4.9-1-.5.3-1.6-.2-2.5-1-.8-.9-1.2-1.6-.8-1.6.3 0 .1-.7-.6-1.5-1.7-2.1-3.7-1.9-4.3.5-.3 1.3-1.4 2-3 2-2.7 0-3.7 1.6-3.7 6.1 0 1.6-.1 2.9-.2 2.9-.2.1-2.1.3-4.3.6-2.2.4-4.8 1-5.8 1.6-1.3.6-2.3.5-3.3-.3-.9-.8-1.8-.9-2.2-.3-.4.5-3.6.9-7.2.9-5.4 0-6.9.4-8.8 2.2-2.8 2.9-2.8 3.3.8 7.8 1.7 2.1 3 3.4 3 3 0-.4.7-.2 1.5.5 1 .8 1.5.9 1.5.1 0-.7.8-.8 2.7 0 1.4.5 3.9.7 5.3.4 2.4-.5 2.9-.2 3.9 2.7 2.1 5.6 3.5 8.1 5.5 9.2 3 1.7 6.2 4.9 6.9 6.8.3 1 1.1 1.8 1.6 1.8s1.8 1.6 3 3.5c2.9 5.1 7.6 6.7 19.3 7 6.5.1 10.3.7 11.4 1.6 1.4 1.1 1.8 1.1 2.9-.4 1-1.4 2.1-1.6 5.4-1.1 3.6.6 4.1.4 3.5-1-.6-1.6 2.4-5.6 4.3-5.6 1.6 0 3.5-4.1 2.4-5.4-1.4-1.6 1.1-8.6 3.5-9.9 1.1-.6 2.3-1.6 2.7-2.4.5-.7 1.2-1.1 1.8-.8.5.3.6-.1.2-1-.5-1.5-.3-1.5 1.5-.4 2 1.3 2.5 1.2 8.3-1.9.9-.4-.2 4.7-1.1 5.3-.4.2-.5 3.7-.3 7.7.4 6.4.8 7.6 3.1 9.5 1.5 1.3 3.2 2.3 3.8 2.3.6 0 1.6 1.8 2.3 4.1.7 2.3 1.5 4.7 1.8 5.5.2.7-.7 2.4-2 3.8-3 3-4.2 6.2-2.7 7.1 1.2.7.3 7.4-1.1 9-1.2 1.2-1.1 5.2.1 7.5 1.4 2.7.2 5-3.1 5.7-1.8.3-2.6 1-2.2 1.9.3.8 1.1 1.4 1.8 1.4 1.7 0 2.5 2.3 2.5 6.7 0 3-.3 3.5-1.9 3-1.3-.3-3 .7-5.3 3.1-2.1 2.3-2.7 3.3-1.5 2.9 1-.4 2.7-.3 3.7.3 1.3.7 2.1.6 3-.5 1-1.1 1.7-1.2 3.3-.3 3 1.6 9 1.9 9.9.5.5-.8 1.2-.6 2.6.6 1 .9 2.6 1.7 3.6 1.7.9 0 1.9.7 2.2 1.5.4 1 1.3 1.3 2.6.9 1.2-.3 3.1.4 5.3 2 3.8 2.9 6 3.2 8.1 1.2 1.7-1.8 1.8-3.8.2-5.5-1.1-1-.8-1 1.5 0 1.5.7 2.7 2 2.7 3s1.2 2.1 2.9 2.7c3 1.1 7.1 4.5 7.1 6 0 .5 1.2.7 2.8.5 1.5-.3 4 .2 5.6 1 1.6.9 3.5 1.3 4.2 1 .8-.3 1.7.2 2 1.1.3.9 1.4 1.6 2.4 1.6.9 0 2.5.9 3.5 2 1.5 1.6 2.7 1.9 6.4 1.6 2.5-.3 5-.1 5.6.3 1.6 1.3 5.5 2 5.5 1.1 0-.5.7-1.6 1.5-2.4.9-.8 2.2-3.2 2.9-5.3 1.4-4.1 2.1-4.3 10.8-2.7 2.8.5 4 .2 5.6-1.4 1.8-1.8 2.1-1.9 3.6-.4 1 1.1 1.6 1.2 1.6.4 0-1.4 3.9-1.6 7.3-.3 2 .8 2.7.6 3.1-.5.3-.8 1-1.2 1.6-.9 1.5.9 1.2-2.3-.5-4.9-1.2-1.8-1.3-3-.6-5 .6-1.4 1.5-2.6 2.1-2.6.5 0 1-.6 1-1.4 0-.8.9-1.8 2-2.1 1.6-.5 2-1.5 2-4.8 0-5.5 1-8.8 2.3-8 .6.4.8 0 .4-1-.4-1.1-.1-1.7.8-1.7.8 0 1.5-.5 1.5-1.1 0-.6.7-1.7 1.5-2.5.9-1 1.2-2.5.8-4.5-.4-2.1-.1-3.4.8-3.9 1.1-.7 1-1.5-.4-4.4-.9-2-2.4-3.6-3.4-3.7-1 0-2.9-.3-4.3-.5s-3.8-.4-5.4-.5c-3 0-8.5-2.6-8.7-4.1-.1-.4-.2-1.2-.3-1.7 0-.5-.4-1.3-.8-1.7-.5-.4-.8-1.7-.8-2.9s-.7-3-1.6-4.1c-.8-1-1.3-1.2-.9-.4.4.8 0 .7-.9-.4-1-1.3-1.2-2.4-.6-3.6.7-1.3.2-2.4-2-4.5-2.4-2.3-3-2.5-3-1.2 0 1-.6 2-1.4 2.3-.8.3-1.1 1.5-.8 3.1.5 2.4.4 2.5-1.9 1.2-2.7-1.5-3.1-1.6-6-1.8-1.1 0-1.8-.5-1.5-1 .3-.4-.5-.6-1.7-.4-1.8.3-2.8-.5-5-4.3-3.4-5.6-2.5-6.8 4.1-6 3.8.5 4.4.3 5.3-1.8.9-1.8.8-2.9-.4-4.7-.9-1.3-1.8-5.1-2-8.3-.3-5.1-.8-6.3-3.3-8.3-1.6-1.2-3.4-2.3-4.1-2.3-1.8 0-2.4-3.2-1.3-7 .8-2.9.7-3.7-.7-4.8-.9-.6-2.5-1.2-3.4-1.2-2.8 0-4.9-1.1-4.9-2.6 0-.8-.6-1.4-1.4-1.4-.7 0-1.6-.8-2-1.8-.3-.9-.9-2.3-1.2-3-.3-.7.1-1.2 1.1-1.2 1.3 0 1.5-.7 1-3.8-1.3-8-3-12.9-6.2-17.2-6.8-9.4-6.8-9.4-11.1-9.5-2.3-.1-4.9-.8-6-1.8-1.8-1.6-1.9-1.6-3 .8-1 2.1-.9 2.5.4 2.5 1.1 0 1.4.5 1 1.6-.3.9-.6 1.9-.6 2.4s-1.2 1-2.7 1.2c-1.7.2-3.2 1.2-3.8 2.5-.6 1.4-2 2.3-4 2.5-3.4.4-8.5-2-8.5-3.9 0-1.1-2.6-1.7-6.7-1.6-.8.1-1.3-1.1-1.3-2.8 0-1.6-1-3.8-2.4-5.2-2.6-2.6-5.6-4.1-5.6-2.9zm25.3 25.8c1.5 2.1 1.5 2.2-.4 2.7-1.5.4-2.4-.4-3.9-3.6-1.1-2.2-2-4.2-2-4.4 0-.8 4.7 3.2 6.3 5.3zm-29.8-3.6c.3.5 1.2.7 1.9.4.7-.3 1.8.2 2.5.9 1 1.2.6 1.4-2 1.3-1.7-.1-3.5-.9-4-1.9-1.1-1.8.5-2.5 1.6-.7zm27.1 14.1c.1.5.2 1.4.3 2 .1.7 1.2.9 3.1.5 3.1-.6 4.2.7 1.4 1.8-.8.3-1.2 1-.9 1.6.9 1.4-.8 1.3-2.8-.3-.9-.6-2-2.8-2.3-4.7-.4-2-.3-3.2.2-2.7s1 1.3 1 1.8zm-43.7 3.6c1.2 1.2 1 1.8-1.4 4.3-1.9 2-2.5 3.4-2 4.9 1.1 3.4-.3 2.4-2.5-1.9-2.3-4.5-2.5-6.3-.8-8.9 1-1.6 1.6-1.8 3.2-.9 1.1.6 2.7 1.7 3.5 2.5zm31.1 13.9c0 .8-.5 1.2-1 .9-.6-.4-.8-1.1-.5-1.6.9-1.4 1.5-1.1 1.5.7zm-16.5 22.4c-.4.7-1.3.7-2.6 0-2.4-1.3-2.5-2.7-.1-3.2 1.9-.4 3.7 1.7 2.7 3.2zM432.43 663.159c1 2.7 4.1 3.7 4.1 1.4 0-.8-.9-2-1.9-2.6-2.8-1.5-3.1-1.3-2.2 1.2z"/><path d="M406.53 674.359c0 .7-.9 1.6-1.9 1.9-1.4.3-1.8 1.1-1.4 2.5.6 2.3-2.6 4.6-5.2 3.6-1.3-.6-1.5 0-.9 3.6.5 2.9.4 4.1-.3 3.7-1.4-.9-2.3 2.7-1.2 4.4.8 1.2 1 1.2 1.8 0 .6-.9 1.1-1 1.5-.2.4.6 1.1.9 1.6.6.5-.3 1.9 0 3.1.7 1.8 1.1 2.2 1.1 2.6 0 .4-.9.9-1 1.8-.2s1.4.6 1.9-.6c.4-1.1 1.6-1.5 3.9-1.3 3.7.4 8.2-2.3 7.5-4.3-.3-.7-1.8-2-3.3-2.8-2.3-1.2-2.9-1.2-3.3-.2-.6 2-5.5-3.3-5-5.5.3-1-.2-3-.9-4.6-1.5-3-2.3-3.5-2.3-1.3zM608.83 682.459c-.8 2.2 0 2.7 3.2 1.9 2.6-.7 2.7-.8 1-2-2.4-1.8-3.4-1.8-4.2.1zM423.03 686.059c-.7 1 1.1 2.8 4.7 5 1.3.7 2.6.5 4.5-.5 2.4-1.3 2.5-1.5.8-1.7-1.1-.1-2.4-.1-2.9 0s-1.5-.7-2.3-1.9c-1.5-2.2-3.8-2.6-4.8-.9zM606.63 686.559c0 1.1.3 1.4.6.6.3-.7.2-1.6-.1-1.9-.3-.4-.6.2-.5 1.3zM389.53 689.859c0 .5-.3 1.6-.6 2.5-.5 1.2 0 1.6 1.8 1.6s2.4-.6 2.6-2.5c.1-1.9-.3-2.5-1.8-2.5-1.1 0-2 .4-2 .9zM613.13 704.859c-.4.5-.2 1.2.3 1.5.5.4 1.2.2 1.5-.3.4-.5.2-1.2-.3-1.5-.5-.4-1.2-.2-1.5.3zM549.53 745.759c0 1.2 1.9 2.6 2.6 1.9.2-.2-.2-1-1.1-1.7-.9-.8-1.5-.8-1.5-.2zM556.03 750.959c-.3.5-.1 1 .4 1 .6 0 1.1-.5 1.1-1 0-.6-.2-1-.4-1-.3 0-.8.4-1.1 1zM258.13 765.459c-.6 1.7 1.7 3.1 3.4 2 .5-.3 1-1.3 1-2.1 0-1.9-3.6-1.8-4.4.1zM250.03 769.559l-3.8 2.3 4.5-.3c4.7-.3 6.8-1.1 6.8-2.5 0-1.9-4-1.7-7.5.5z"/></g></svg>