<svg version="1" xmlns="http://www.w3.org/2000/svg" width="911.732" height="1034.387" viewBox="0 0 683.799 775.79"><g fill="#222"><path d="M375.399.24c-1.6.5-3.4.6-3.9.2-.5-.3-1.2-.1-1.6.4-1.3 2-9.5 7.3-11.3 7.3-1 0-2.1.7-2.4 1.5-.8 2.1-2.6 1.9-4.7-.5-2-2.4-3.5-2.6-4.3-.5-.4.9-2 1.5-4.3 1.6-2 0-5.4.4-7.6.8-3.5.7-4.4.4-6.7-1.7-2.2-2-3-2.3-4.2-1.3-1.2 1-2.7.9-7.3-.4-3.2-.9-7-1.7-8.5-1.9-1.5-.1-4-1.5-5.4-3-2-1.9-3.3-2.5-4.8-2-2.5.8-3.1.8-7.2-.1-2.8-.6-3.2-.4-3.8 2.1-.4 1.6-1.1 3.1-1.6 3.4-.4.3-.2 2.2.5 4.3.8 2.3.9 3.7.3 3.7-.7 0-.8 1.5-.5 3.7.4 2.3.2 4.2-.6 5.1-.9 1.2-.9 1.6 0 1.9.8.3 1 1.5.6 3.4-.3 1.7 0 3.5.7 4.4 2 2.4 2.1 6.5.2 6.3-3.8-.3-5 .2-4.7 1.9.2 1 .4 2.1.4 2.6.1.4 1.2 1.3 2.6 1.9 1.6.7 2.5 1.9 2.5 3.5 0 2.6 1.2 3 3.2 1 .7-.8 2-1.6 2.8-2 .8-.3-.1-.6-2-.7l-3.5-.1 3.4-1.4c6.2-2.7 9.3-.4 11.7 8.8 1.1 4.1 1 4.9-.2 5.4-1.7.6-1 1.9 1.5 2.6 1.5.3 1.8.1 1.4-1.2-.3-1 .3-.7 1.6.8 1.2 1.3 2.1 3.1 2.1 4.1 0 1.2 1 2.1 3 2.5 1.6.4 3.2 1.1 3.5 1.6.4.5 1.7.9 3.1.9 1.4 0 3.2.7 4 1.5 1.3 1.2 1.2 1.7-.4 3.3-1.4 1.4-1.7 2.4-1 3.6 1.2 2.2.6 6.2-1 5.9-.6-.2-1.4.8-1.8 2.2-.4 1.7-1.3 2.5-2.8 2.5-1.2 0-2.5.9-3.1 2.2-.6 1.4-2.1 2.4-3.7 2.6-1.6.2-2.8.8-2.8 1.3s-1.1.7-2.5.3c-1.4-.3-2.5-.2-2.5.3 0 2 2.6 6.3 4.1 6.8 1.1.4 1.5 1.3 1.2 2.6-.3 1.1-.9 1.6-1.2 1.1-.3-.6-1.7-1.2-3.1-1.3-1.9-.3-2.4-.9-2.2-2.6.2-1.2-.5-3.4-1.4-4.8-.9-1.4-1.4-2.8-1-3.2.3-.3-.3-1.3-1.4-2-1.1-.8-2.7-3-3.5-4.9-1.4-3.4-4.6-4.7-6-2.3-.4.6-1.6 0-2.9-1.5-1.2-1.5-2.6-2.6-3.1-2.6-.6 0-2.7-1.1-4.7-2.5s-4.5-2.5-5.5-2.5c-1.1 0-2.3-1.2-3-3-1.3-3.5-2.9-3.9-3.8-1-.3 1.1-1.1 2-1.6 2s-.9.7-.9 1.5-.4 1.5-.8 1.5c-1.5 0-3.5 7.1-2.3 8.3.8.8 1.1.7 1.1-.3 0-.7.2-1.1.5-.9.7.8-2.2 8.3-3.4 8.7-.6.2-1.1-.2-1.1-.9 0-3.1-1.3.5-1.6 4.5-.2 3.4 0 4.6 1 4.6.8 0 2.8 1.3 4.6 3 1.8 1.6 2.9 3 2.5 3-.4 0-.2.7.5 1.5 1 1.2 1.6 1.1 4-.7 2.6-1.9 3-1.9 5-.5 2.4 1.7 6 1.2 6-.9 0-.8.9-1.4 2-1.4s2-.5 2-1.1c0-.5.4-.8.9-.5.5.3 1.2-.1 1.5-1 .6-1.5.8-1.5 2.7.2 1.2 1.1 2.4 1.8 2.7 1.6.4-.2.8.1 1 .7.2.6 0 1.1-.5 1.1-.6 0-1 .7-1 1.5s.4 1.2.9.9c.4-.3 1.3-.2 2 .2s2.2.8 3.5.9c1.8 0 2.1-.3 1.7-2.2-.4-1.3-.5-2.3-.3-2.3s2.6.7 5.3 1.5c5.8 1.8 6.9 1.9 6.1.5-.3-.6.1-1 1-1 1 0 1.5.6 1.3 1.7-.2 1-1 1.7-1.7 1.5-.7-.1-1.1.1-.9.5 2.7 5.6 3.1 6 5.1 5.5 2-.5 2-.5-.2-1.4-1.2-.4-1.9-1.2-1.6-1.8.8-1.3 3.5-1.3 3.5 0 0 .7 1.3.8 3.4.4 3-.5 3.4-.3 3.2 1.3-.2 1-1 1.8-1.8 1.7-.9-.1-1.5 1.1-1.7 3.5-.1 2-.6 4-1 4.4-1 1-6.1-1.3-6.1-2.8 0-.6-.6-1.2-1.4-1.2-1 0-1.2 1.1-.8 4.4.3 2.8.1 4.3-.7 4.3-1.6 0-1.3 1.7.5 2.4.9.4 1.3.2.8-.5-.4-.7 0-.9 1.3-.5 1.4.5 2.3-.1 3.3-1.9 1.2-2.3 1.5-2.4 2.3-.9.7 1.2.5 2-.6 2.9-1 .7-1.2 1.6-.6 2.7.5.9.5 2.8-.2 4.6-.6 1.7-1.1 4.7-1.3 6.7-.1 2-.8 4-1.5 4.4-2.3 1.5-.3 4.8 5.9 9.8 3.3 2.6 6 5.2 6 5.8.1 2.1 4 5.5 6.9 6.1 2.5.5 3.5 1.7 6.1 7.1 1.6 3.6 3 7.1 3 7.9 0 .8.4 1.4 1 1.4 1.4 0 4.2 5.9 3.4 7.1-.3.6.3 2 1.4 3.2 1.1 1.2 2.6 3.5 3.5 5.2 1.3 2.6 6.6 7.5 8.2 7.5 1.1 0 6.5 6.1 6.5 7.4 0 .7 1.1 1.8 2.5 2.4 1.4.6 2.6 1.7 2.7 2.4.2 2.1.4 3.2 1.2 6.4.4 1.7.2 4.2-.3 5.7-.7 1.7-.7 2.8-.1 3.2 1.7 1-4.6 5.6-6.5 4.8-1.3-.4-1.6-.2-1.3.8.3.8 1 1.3 1.6 1.2 1.3-.3 3.7 3.6 2.8 4.4-.3.4-.1 1.2.5 2 .9.9.7 2.2-.5 4.8-.9 1.9-2 3.6-2.5 3.9-.4.3-.6 1.9-.3 3.6.3 2.1 1.1 3.2 2.7 3.6 1.9.5 2.3 1.4 2.7 5.5.4 3.7 1.2 5.8 3.2 7.8 2.5 2.6 2.7 3.3 2 7.6-.3 2.7-1.3 6-2 7.4-.8 1.4-1.4 3.6-1.4 4.9 0 1.2-.6 2.5-1.4 2.8-1.2.5-2.8 4.2-2.5 6 0 .4-.5 1-1.2 1.5-1 .6-.9 1.3.4 3.3 2.1 3.1 2.1 3.6.2 3.6-.8 0-3 .9-5 2s-3.5 1.5-3.5.9c0-.8-.4-.8-1.4 0-1.1.9-1.2 1.8-.3 4.1 1.1 2.8.9 3.2-2.3 6-2.2 1.9-4.3 2.9-5.7 2.6-1.3-.2-2.3.2-2.3.8.1 1.8 2.4 4.3 3.7 3.9.7-.3 1.1.7 1.1 2.7-.1 1.6-.3 2.8-.6 2.5-.3-.3-1.1 0-1.8.6-.9.7-1.9.7-3.3 0-2.7-1.5-3.4-1.4-2.3.5.7 1.2-.2 2.6-3.5 5.9-3.7 3.7-4.9 6.3-4.5 9.6.1.4-.9 1.8-2.1 3.1-1.2 1.3-2.1 3.1-1.9 4.1.2 1.1-.3 1.7-1.5 1.7-1 0-2.9.7-4.2 1.6-1.8 1.3-2.8 1.4-4.7.5-2-.9-2.4-.8-2.4.6 0 1.3-.8 1.5-4.8.9-4.8-.6-4.9-.6-6.8 2.9-1.1 2.1-2.6 3.5-3.7 3.5-1.9 0-1.9.1-.2 2.7 1.1 1.7 1.8 4.8 1.9 8.4.1 4.9-.2 5.9-1.7 6.3-1.5.4-1.8 1.1-1.2 3.5.4 2 .3 3.2-.4 3.2-3.1.5-3.6.2-3.6-1.6 0-2.5-4.2-3.5-7.5-1.8-1.5.8-4 1.1-6 .8-3.1-.5-3.7-.2-5.2 2.5-1 1.8-2.5 3-3.8 3-1.1 0-2 .7-2 1.5s-.9 1.5-2 1.5-2 .5-2 1.1c0 .6-.8.8-2 .4-1.5-.5-2.1 0-2.6 2-.3 1.4-1.9 3.4-3.4 4.5-2.8 2-6 2.7-6 1.2-.1-2.6-1.7-3.2-4.8-1.7-1.7.9-3.4 2-3.7 2.6-.4.5-1.7.9-3 .9s-2.6.4-3 .9c-.3.5-1.9 1.2-3.5 1.6-2.5.6-3 1.1-3 3.6 0 1.7-.4 2.8-.9 2.4-.5-.3-1.5 1.1-2.1 3-.9 2.6-1.7 3.5-3.3 3.5-3.4 0-4.2-1.1-4.5-6-.2-2.5-.9-5.4-1.6-6.5-.9-1.4-1-3-.4-5.2.7-2.5.4-4.2-1.2-7.2-1.1-2.2-2-5.5-2-7.3 0-1.8-.7-4.1-1.5-5.2-1.2-1.6-1.2-2.3.1-4.8 1.4-2.6 1.4-3.9.3-9.4-1-5.1-1-6.8 0-8.7 1.1-2 1-2.9-.3-5.6-.9-1.7-1.4-3.5-1.2-4 .7-1.1-4.7-2.2-5.4-1.1-1.2 1.9-5.1 2.1-7.8.3-1.5-1-4.5-1.8-6.9-1.8-2.4 0-4.3-.3-4.3-.8 0-.4-1-.7-2.1-.7-1.8 0-1.9.3-.9 1.5 1.4 1.7.5 4.9-1.3 4.2-.6-.2-1.7.3-2.3 1.1-.9 1.2-1.2 1.2-2.6-.2-1.1-1.1-2.6-1.4-4.6-1-1.6.3-3.9.1-5-.5-1.4-.7-2.3-.8-2.7-.1-1.1 1.7-2.7 1.1-2.1-.8.5-1.3-.1-2.2-1.9-3-2-.9-2.5-1.9-2.5-4.6 0-2.3-.7-4.2-2.1-5.5-1.6-1.5-1.9-2.3-1-3.8.7-1.4.6-2.7-.5-4.8-.8-1.5-1.5-3.9-1.6-5.2-.3-2.7-1.4-3-2.2-.5-.8 2.6-4.7 4.7-5.6 3.1-.5-.7-1.7-.9-3.1-.6-1.2.3-3.1.2-4.1-.4-1.2-.7-1.8-.6-1.8.1 0 .8-.6.7-2.1 0-1.1-.6-2.5-.9-3.2-.7-.7.2-2.2-.4-3.3-1.5-1.2-1-3.4-2-4.9-2.2-2.7-.3-5.9-3.6-3.4-3.6.8 0 .8-.4.2-1.3-1.5-1.7-2.4-7.7-1.3-7.7 1.7 0-.7-4.5-3.1-5.7-1.9-1-2.7-.9-4.1.3-1.9 1.8-5.8 1-5.8-1.1 0-1.9-2.7-2.6-3.4-.9-.6 1.6-5.3 1.9-7.6.5-.8-.6-1.4-2.7-1.5-5.1-.1-3.4-.7-4.5-3.8-7.1-2-1.7-3.7-3.5-3.7-4.2 0-.6-.9-2-1.9-3.1-2.2-2.5-3.8-8.6-2.2-8.6.6 0 1.1-1.8 1.1-4 0-5.5-2.8-6.8-14.1-6.5-4.8.1-9.2.6-9.8 1-.7.4-3.1-.2-5.4-1.3-2.3-1-6.1-2.2-8.3-2.5-2.3-.4-5.4-1.4-7-2.2-3.6-1.9-3.9-1.9-5.9.1-1.1 1.2-1.9 1.4-2.7.6-1.7-1.7-7.9 1.8-7.5 4.4.3 1.7-.4 2.2-4.9 3.2-2.9.7-6.3 1-7.6.7-1.3-.3-4.8-.7-7.9-.8l-5.7-.3 1 2.5c.5 1.4 1.6 3.3 2.4 4.2.7.8 1.6 3.7 1.9 6.3.2 2.7 1 5.5 1.7 6.3.9 1.1.9 1.6-.2 2.3-.8.5-1.7.7-2.1.4-.4-.2-.5.5-.2 1.5.5 2 4.1 3.6 3.9 1.7-.1-1.2.6-1.6 2.9-1.6.8 0 1.5.6 1.5 1.4 0 .8.6 1.7 1.3 1.9.6.3-.6.6-2.8.6-5.2.1-6.7 1.5-5.4 4.9.5 1.3.7 2.7.5 3-.9.8 2.2 5.9 3.9 6.6.9.3 3.6-.5 6-1.9 2.7-1.7 4.6-2.2 5-1.5.8 1.3 5.2 1.3 6 0 .9-1.4 9.8 5.2 11.4 8.6.8 1.6 1.9 3.1 2.4 3.3 2.5 1 7.8 7 9.6 11.1 1.8 4 1.8 4.6.4 5.1-1.4.4-1.3.7.2 2.3 1 1 2.9 2.2 4.2 2.7 1.5.5 2.6 2 2.9 3.8.3 1.6 2.1 4.4 4 6.2 3.5 3.4 4.4 6.3 2.2 7.2-.7.3.7.6 3.2.7 2.5 0 5.5.1 6.8.1 1.2.1 2.2.5 2.2 1s1.8 1.2 4 1.5c2.8.5 4.9 1.7 7 4 1.6 1.9 3.5 3.4 4.2 3.4.8 0 .7.5-.4 1.6-1.3 1.3-1.4 2.3-.7 4.2.5 1.4.7 3.2.4 4-.3.8.2 2.3 1.1 3.3 1.2 1.4 1.3 2.2.4 3.8-.6 1.2-1.5 2.1-2 2.1-1.6 0-1.2 2 1.1 5.1 1.1 1.6 2.9 2.9 3.8 2.9 1.1 0 2.4 1.2 3.1 3 1 2.5 1 3.4-.4 5.5-1.5 2.3-1.5 2.6 1.4 6.8 2.6 3.9 2.8 4.8 1.9 7.9-.5 2-1.6 4.1-2.4 4.8-1.6 1.3-1.1 3.3 2.2 7.6 1.4 1.9 2.3 4.5 2.3 6.7 0 3.1.8 4.5 5.7 9.2 3.1 3 6.1 5.5 6.5 5.5.5 0 1.3 1.2 1.8 2.6.7 1.6 1.4 2.3 2.2 1.8.7-.5 3.2-1 5.6-1.2 3.7-.3 4.4 0 4.9 1.7.4 1.7.9 1.8 3.1 1 2-.8 2.8-.7 3.4.6.5.8 2.2 1.5 3.7 1.5 2.4 0 2.9-.5 3.3-3 .3-1.6 0-3.4-.6-4-.7-.7-.3-1 1.2-1 2.3 0 6.1 2 9.7 5.1 2.8 2.3 6.6 3.4 6.3 1.7-.2-.7.7-1.4 2-1.6 1.5-.2 2.2.2 2.2 1.2 0 .9.7 1.6 1.6 1.6 1.2 0 1.5-.6 1.1-2.1-.6-2.3-.9-2.3 8.6 0 3.3.8 3.7.7 3.7-1.1s.5-2 3.5-1.5c2.7.4 3.8.2 4.8-1.4 1.5-2.1 4.7-1.7 4.7.6 0 .7 1.5 2.4 3.4 3.8l3.3 2.6 1.2-2.5c.6-1.4 1.1-3.1 1.1-3.9 0-.8.7-1.5 1.5-1.5s1.5-.5 1.5-1c0-.6-.6-1-1.4-1-.8 0-1.7-.7-2-1.6-.9-2.3-.7-3.6.3-3 1.3.8 3.4-2.1 2.7-3.9-.3-.9 0-1.5.8-1.5s2.4-1.1 3.7-2.5c2.8-2.9 3.6-3 6.1-.8 1 .9 3.4 1.7 5.3 1.8 3 .2 3.5-.1 3-1.6-.4-1.1-.2-1.9.4-1.9 1.3 0 4.5 4.8 5.9 8.9 1 2.9 1 3.2-.3 2.1-2.2-1.8-3.1-.3-1.2 1.8 1 1 1.7 2.6 1.7 3.5 0 .9.5 1.7 1 1.7.6 0 1.5 1.1 2.1 2.4 1.3 2.8 7.9 4.3 7.9 1.8 0-.7.5-1 1.2-.6.6.4 2.4.8 3.9.9 2 .2 2.6-.1 2.2-1.1-.3-.8.1-1.4 1.1-1.4.9 0 1.6-.4 1.6-1 0-.5 1.1-1.2 2.5-1.6 1.6-.4 2.5-1.3 2.5-2.7 0-1.7.5-1.5 3.5 1.6 2 2 4.3 5.6 5.1 7.9.8 2.3 2.3 5.2 3.3 6.3 1 1.1 2.2 3.4 2.5 5.1.7 3.3 8.2 11.9 12.8 14.7 1.6 1 3.4 3.3 4.2 5.2 1 2.3 2.2 3.5 3.5 3.5 2.5 0 3.5 1.5 2.2 3.7-1.7 3.1 4.3 11.9 6.1 9 .5-.8.8-.6.8.5 0 1 .6 1.8 1.4 1.8 2.3 0 4.2 6.8 2.3 8.1-.5.4-.1 2.2.9 4 3.3 5.9 3.5 6.1 5 4.2 1.3-1.7 1.3-1.7 1.4.2 0 1.2.5 2.6 1 3.1 1.8 1.8-.9 6.4-3.7 6.4-2.2 0-2.4.3-1.8 3 .4 2 .3 3-.5 3-.6 0 .5 1.5 2.4 3.4 2.6 2.4 3.6 4.2 3.6 6.5 0 1.7-.4 3.1-.9 3.1s-.8.8-.7 1.7c0 1-.4 1.7-1.1 1.6-.6-.2.4 3.2 2.3 7.5 2.9 6.3 4.9 9 11.5 15.4 4.6 4.3 7.6 7.9 7 8.3-1.2.7-1.4 5.4-.3 7.2.4.6 2.5 1.4 4.7 1.8 2.2.4 5.2 1.5 6.7 2.6 2.7 1.9 2.7 1.9 4.3-.4l1.6-2.2 2.3 2.7c1.3 1.5 2.7 2.4 3 2.1.9-.9 4.3 2.6 5 5 .3 1.2 1.9 3 3.6 4 2.2 1.3 2.9 2.4 2.5 3.6-.4 1.2.2 2.1 1.8 2.8 3.1 1.4 4.4 6.9 2.2 9.3-1.5 1.7-2 5.2-.9 6.3.4.3 1.5.2 2.5-.4 2.1-1.1 6 .3 4.1 1.5-1.1.7.1 5.9 2.1 8.3 1.4 1.9-1.9 2.8-4 1.2-1.4-1.2-1.5-1.1-.9.8.5 1.6.2 2.5-1.4 3.3-1.1.6-2 1.7-2 2.5s-.5 1.5-1.1 1.5c-.6 0-.9-.7-.6-1.5.7-1.8-.7-2.7-4.6-3.1-1.6-.1-3.4-.7-4-1.4-.9-1-.8-1.2.6-.7 1.6.6 1.7.2 1.1-4.2-.4-3.1-.2-5.1.5-5.5 3.2-2-1.2-8.3-5-7.1-2.2.7-2.2.8-.4 2.1 1.4 1 1.5 1.4.4 1.4-.8.1-2.3 2-3.4 4.3-1.7 3.5-2.6 4.3-6 5-4.5.9-8.6 4.2-7.8 6.3.3.8-.2 1.7-1.1 2-2.4.9-2.1 6.1.4 6.9 1.1.3 2.4.4 2.9.1.5-.3 1.2.1 1.5 1 .4 1 1.2 1.4 2.3 1 .9-.4 2-.1 2.4.6.6.9 1.1.9 2.2 0 .8-.7 2.2-1 3.1-.6 1.1.4 1.6.1 1.6-1.1 0-1.2.5-1.5 1.6-1.1.9.4 2.3.1 3-.5 1.1-.9 1.9-.8 3.2.5 1 .9 2.4 1.6 3 1.6.7 0 1.2.5 1.2 1 0 .7.7.7 2.1 0 1.7-1 3-.7 7 1.2 3.5 1.8 5.2 2.2 6 1.4.8-.8 1.3-.8 1.6.1.2.7 1.1.9 1.9.6 1-.4 1.7.2 2.1 1.6.3 1.1 1 2.1 1.5 2.1.6 0 .8.7.4 1.5-.3.8-.1 1.5.3 1.5.5 0 1.2-.7 1.5-1.6.3-.8 1-1.3 1.4-1 .5.3.7-.5.5-1.8-.5-2.6 2.1-8.6 3.8-8.6.6 0 .6-.7-.1-2-1-2 .5-6 2.2-6 .5 0 .8-1 .8-2.2 0-1.7.3-1.9 1.2-1 2 2 2.9 1.4 2.3-1.6-1.8-8.5-2.9-11.2-5.1-12.7-1.3-.8-2.4-2.2-2.4-3 0-.8-.6-1.5-1.3-1.5-.7 0-2.3-2-3.4-4.4-1.8-3.6-1.9-4.7-.9-5.5.7-.6 1.6-.8 1.9-.4.4.3.7.1.7-.5 0-.7 1.6-1.2 3.9-1.2 2.2 0 4.4-.6 5.1-1.5 1-1.2 1.6-1.3 2.6-.4 1.1.9 2 .7 3.8-.5 2.4-1.5 2.6-1.5 4 .5 1.1 1.7 1.8 1.9 3.4 1 1.3-.7 2.2-.7 3 .1.7.7 2.1 1.2 3.3 1.3 2.1.2 2.1-1.1.3-5.9-.9-2.4.8-1.9 5.4 1.4 2.3 1.7 4.6 3 5.1 3s1.9-1.2 3-2.7c2-2.5 2.2-2.5 3.5-.8.8 1.1 1.5 1.4 1.9.8.4-.6 0-1.6-.8-2.3-.8-.7-1.5-2.1-1.5-3.1s-.4-2.1-1-2.4c-1.7-1-1.1-2.5 1-2.5 1.3 0 2-.7 2-1.9s1.2-2.5 3-3.3c3-1.3 4.5-5.6 1.6-4.5-1.7.7-4.1-1.8-3.2-3.2.4-.5-.3-1.3-1.4-1.6-1.2-.4-1.9-1.2-1.7-1.8.2-.7-.4-2.3-1.3-3.7-2.7-4-3-6.6-.8-8.4 1.6-1.4 4.4-1.8 15.1-1.8 7.3-.1 14.2.2 15.5.6 1.7.6 2.2.4 2.2-.9s.5-1.6 2.3-1.1c6.6 2 10 1.6 9-1-.3-.9.1-1.4 1.1-1.4.9 0 1.9-.7 2.2-1.5.4-1 1.9-1.5 4.3-1.5 2.9 0 3.9.5 5.2 2.9 1.4 2.4 2.6 3 6.5 3.5 8.6 1.1 9.2 1.2 10.8 2.9 1.4 1.4 7.5 3.7 9.8 3.7.3 0 .4-1 0-2.3-.5-1.9-.3-2 1-1 .8.7 1.8 1 2.1.6 1.2-1.1.7-2.3-.9-2.3-1.7 0-12.3-10.2-13.9-13.5-.6-1.1-2.2-2.1-3.7-2.3-1.6-.2-3-1.1-3.3-2.2-.8-2.6-3.2-3.4-9.5-3.1-5 .2-5.6.1-5.7-1.9-.2-2.9-4.1-5.8-8.6-6.6-2.6-.5-4.5-1.6-5.9-3.5-1.7-2.3-2.4-2.6-3.8-1.6-1.4.8-2.4.7-4.6-.8-2.6-1.7-2.8-1.7-4 0-.7.9-1.7 1.4-2.2 1.1-.6-.3-2.3.5-3.9 1.8-1.8 1.5-3.7 2.3-4.9 2-1.4-.4-2.4.2-3.4 2.1-.9 1.7-1.9 2.4-2.9 1.9-.9-.4-2.9-.9-4.6-1.2-3.7-.6-5.7-2.1-5.1-3.9.3-.7 0-1.3-.6-1.3-.7 0-2.2-1.2-3.5-2.8-1.4-1.7-2.2-2.2-2.2-1.2-.1.8 1 2.6 2.4 3.8 1.8 1.7 2.3 3.1 1.9 4.7-.4 1.6 0 2.6 1.3 3.4 1.7 1 1.7 1 .1 1.1-1.1 0-1.8.8-1.8 2 0 1.1-.3 1.9-.7 1.7-1-.3-1.2 1.3-.6 3 .3.7.9 1.1 1.3.8.5-.3 1.2 0 1.6.6.4.7.3.9-.3.6-.6-.4-1.5.5-2.1 1.8-.8 1.7-.8 2.5-.1 2.5.6 0 .7.4.4 1-1 1.6-3.3 1.2-7.5-1.5-2.2-1.4-4-2.1-4-1.5 0 .6-1.1.8-2.7.4-1.6-.3-3.3-.6-4-.6-.7-.1-1.5-.8-1.8-1.6-.3-.9 0-1.2.8-.9 1 .4 1.2-.3.9-2.4-.2-1.6-.8-2.9-1.2-2.9-.5 0-.6-1-.2-2.2.3-1.4.1-1.9-.6-1.4-.6.3-1.6-.3-2.2-1.5-1.1-1.9-1-2 .9-1.4 1.5.5 2.1.2 2.1-.9 0-.9.5-1.6 1-1.6.6 0 1-.6 1-1.4 0-.8.5-1.6 1.1-1.8.6-.2.1-1.5-1.1-3.1l-2.2-2.8 2.6.7c2.3.5 2.6.3 2.3-1.5-.2-1.1-.6-2.4-1-2.7-.4-.4-.7-1.8-.7-3.2 0-1.3-.9-3.6-2.1-5-1.8-2.3-1.9-2.7-.5-3 2.2-.5 2.1-5.2 0-5.2-2.3 0-4.3-2.9-4.4-6.2 0-2.4.3-2.6 3.8-2.2 3.3.3 4.1-.1 5.1-2 1.1-1.9 1-2.8-.1-4.6-1-1.7-1-2.4-.1-2.7 1.5-.5-3.2-6-5.9-6.9-1.5-.4-1.9-1.2-1.5-3 .2-1.4 0-2.7-.4-3-.5-.3-.9-1.6-.9-3 0-1.8-.9-2.9-3.2-4-6.2-2.9-8.3-4.3-11.1-7.6-2.3-2.7-2.9-3-3.7-1.8-.5.8-1 1-1 .4s-1.2-1.7-2.6-2.4c-1.4-.8-3-2.3-3.6-3.3-.8-1.6-.7-1.8 1.1-1.2 1.6.5 2.1.2 2.1-1.1 0-1.4.2-1.5 1.8-.3 1.6 1.3 1.6 1.2-.1-.7-1-1.2-1.9-3.1-2.2-4.3-.2-1.1-.6-2.5-.9-3-.4-.5 0-1.1.6-1.4 1-.3 1-1.1.2-3.5-1-2.5-.9-3 .2-2.5.8.3 1.4 0 1.4-.6s-.9-1.1-1.9-1.1c-2.8 0-3.5-1.7-1.7-4.2.9-1.2 1.6-3 1.6-4s.7-1.8 1.5-1.8 1.5-.4 1.5-.9 1.2-2.8 2.7-5c2-3.2 2.9-3.8 4-3 .7.6 1.3 2.3 1.3 3.7 0 1.6 1.2 3.6 3.2 5.4 3.8 3.3 4.4 3.4 6 .8 1.7-2.7 4.8-2.5 9.1.5 2.9 1.9 3.8 2.1 4.4 1.1 1.1-1.8 5-2.9 5.8-1.6.3.5 1.7 1 2.9 1 2.2 0 5.3 2.5 4.9 3.9-.3 1.4.7 1.3 1.2-.1.8-2 8.3-2.3 10.4-.3.9.8 3.3 2.9 5.4 4.6 2.4 2 3.7 4 3.7 5.5 0 1.3.5 2.4 1 2.4 1.6 0 7 4.2 7 5.5 0 .6 1.7 2.8 3.8 4.8 3.4 3.3 4 3.6 5.2 2.2 1.5-1.8 6-1.9 11.5-.3 2.2.6 4.9 1.1 6 .9 1.1-.1 3.5.9 5.4 2.2 3.2 2.2 3.7 2.3 7.5.9 3-1 4.6-1.1 5.8-.3 2.6 1.6 3.8 1.3 3.8-.9 0-1.4.5-1.8 1.7-1.3 2.7 1 1.1-7.6-1.9-10-1.3-1-1.8-1.6-1.1-1.3 1.7.9 2.7-1.2 1.4-2.8-.9-1-.7-1.5.7-1.8 1.3-.4 2.1-1.8 2.6-4.8.8-5.3 2.8-4.1 3 1.7.2 3.3.7 4 4.1 5.8 2.8 1.4 4.1 2.8 4.3 4.5.4 3 2.2 5.2 2.2 2.6 0-1.6.2-1.6 2.2-.2 3.5 2.5 5.1 2.1 4.5-1.2-.7-3.5.1-4.8 3.6-6.1 1.5-.6 2.7-1.7 2.7-2.4 0-.8 1-1.9 2.3-2.5 2.1-1 2.1-1.1-.6-1.1-2.9-.1-5.7-2.1-5.7-4.1 0-.8-.6-.7-2.2.1-1.2.7-4.6 1.4-7.4 1.6-5 .5-5.3.3-6.9-2.6-1.2-2.5-2.2-3.1-4.6-3.1-2.6 0-3.1-.3-2.6-2 .4-1.4-.7-3.3-3.8-6.5-2.4-2.5-3.9-4.7-3.4-5.1.6-.3.8-1.2.5-2-.4-.9.4-1.8 2-2.4 2.4-.9 2.5-1.4 1.9-5-.6-3.5-.4-4 1.2-4 2.1 0 5.3-3 7.3-6.8 1.1-2.2 1.3-2.2 2.9-.8 1.6 1.5 1.9 1.5 3.5-.3 1.2-1.3 1.5-2.7 1.1-4.1-.5-1.6-.2-2.3 1.3-2.7 1.3-.3 1.8-1.1 1.5-1.9-.3-.9.1-1.4 1.1-1.4 1.6 0 1.6-.2.2-2.2-1.4-1.9-1.4-2.3.2-3.4 1.5-1.1 1.5-1.4-.8-3.3-1.4-1.1-2-2-1.3-2.1.7 0 2.3-1.2 3.6-2.6 1.9-2 2.3-3.5 2.1-6.4l-.3-3.9 4 .2c2.8.1 4.5-.4 5.3-1.6 1-1.3 1.9-1.5 4.5-.7 2.1.6 2.9.5 2.5-.2-.4-.6.1-.8 1.4-.4 1.3.4 2.2.1 2.6-.9.3-.9 1-1.4 1.5-1.1.5.4 1.1.1 1.3-.6.5-1.5 2.8-.1 2.8 1.8 0 .8-1.1 2.6-2.5 3.9-1.6 1.4-2.2 2.6-1.5 3 .5.3.7 1.7.4 3-.3 1.2-.1 2.6.5 2.9.7.4 1.1-.1 1.1-1.2 0-1.7 2.3-3.2 5.5-3.6 1.4-.2 5.5-4.4 5.5-5.6 0-.6.5-1 1.1-1 .5 0 .7.4.4 1-.8 1.2-.3 1.3 2.9 0 1.7-.6 2.4-1.4 2-2.4-.5-1.2-1-1.3-2.6-.5-2.2 1.2-4.9-.3-2.9-1.5.6-.4 1.1-2.2 1.1-4.1 0-2.2.8-4.1 2.1-5.4 2.7-2.5 1.8-5.6-2.1-7-2.2-.7-3-1.6-3-3.4 0-1.3-.9-3.2-2-4.2-1.4-1.2-2-3.1-2-5.9 0-4.8-2.1-7.7-6.7-9.6-1.8-.7-4.8-3-6.8-5.1-1.9-2.1-4.5-4.1-5.9-4.5-2.5-.6-3.6-2.9-3.6-7.6 0-1.7-.8-3.1-1.9-3.8-2.1-1-9-.8-10.9.4-2.1 1.3-6.2-2.4-6.2-5.5 0-1.5.5-3.1 1-3.4 1.9-1.2 1-2.5-1.9-2.5-1.6 0-3.4.7-4.1 1.5-.7.8-1.6 1.3-2 1-.5-.3-1.2-.1-1.5.5-.4.6-1.5.8-2.5.5-1.2-.4-2.2.1-2.8 1.2-.9 1.5-1.4 1.5-3.7.5-1.4-.7-3.9-1.2-5.4-1.2-1.6 0-4-1.1-5.5-2.5-1.4-1.3-2.6-1.8-2.6-1.2 0 .8-1.6 1.3-4.1 1.4-4 .2-8.6-1.4-11.9-4.2-2-1.6-6-2.6-6-1.4 0 .5-.9.9-1.9.9-1.4 0-1.8.5-1.4 2 .7 2.7-2.3 2.7-3.7 0-1.2-2.3-.6-4 1.6-4 .8 0 1.4-.9 1.4-2.1 0-1.5.4-1.9 1.6-1.5 1.2.5 1.1-.1-.6-2.9l-2.1-3.4 2.2-3c2-2.7 2.1-3.3 1-7.3-.7-2.4-1.4-5.9-1.5-7.9-.3-4.4-1.2-5.9-3.6-5.9-1 0-3.4-1.9-5.2-4.2-1.8-2.3-4.8-5.6-6.5-7.4-1.8-1.8-3.3-3.7-3.3-4.3 0-.6-1.4-1.8-3-2.6-3.4-1.8-3.1-3.5.5-3.5 1.3 0 2.5-.5 2.7-1.1.3-.9 1-.9 2.7.1 1.9 1 2.2 1 1.6-.1-.6-.9-.3-1.1.8-.6 1 .4 2.9.2 4.4-.4 2.4-.9 2.5-1.1 1-2.6-1.2-1.3-1.9-1.4-3-.4-1.5 1.2-4.7.5-4.7-.9 0-.5.5-1.2 1.1-1.5.7-.5.4-1.4-.8-2.8-1.4-1.8-1.5-1.9-.1-.9 1.4 1.1 1.8 1 2.8-.7.6-1.3 2.1-2.1 3.5-2.1 1.5 0 2.5-.6 2.5-1.4 0-.8.4-1.6 1-1.8 1.5-.5.1-4.3-2.1-5.6-1.6-1-2.5-.9-5 .4-2.9 1.5-3.3 1.5-4.8-.1s-1.5-1.7.6-.6c1.9 1 2.4.7 4.3-1.9 1.8-2.5 2.5-2.9 3.7-1.9 1.2 1 1.6 1 2.3-.1.6-.9.4-1.7-.3-2.2-.9-.5-.9-1 .1-2 1.7-1.7 4 .5 2.4 2.4-.6.8-.7 1.9-.2 2.7.4.8.6 1.9.4 2.5-.3.7.5 1.2 1.7 1.3 2.2.2 4.8 2.9 4.9 5 0 1.6 1.6 1.7 2.5.2.5-.6 2 .4 4.1 2.6 2.9 3.2 3.8 3.6 7.2 3.4 3.9-.3 4.3-.1 10.8 5.9 3.3 2.9 5.4 3.1 5.4.5 0-1.8 4.1-.8 5.3 1.3.4.8 1.5 1.4 2.2 1.4.8 0 1.5.6 1.5 1.4 0 2.5-1.2 4.6-2.6 4.6-.8 0-1.4.3-1.4.7.1 2 1.9 3.2 6.2 3.8 4.3.7 4.7.9 3.7 2.7-.8 1.5-.7 2.4.5 3.7.9 1 1.3 2 1 2.4-.3.3.4 1 1.5 1.7 1.4.7 2.1.7 2.1 0 0-.5.9-1 2.1-1 1.5 0 1.9.5 1.5 1.5-.3.8-.1 1.5.4 1.5.6 0 1-.8 1-1.9 0-1 .7-2.5 1.6-3.2 1.4-1.1 1.9-1 3.6 1.1 1.1 1.3 2.9 2.5 4.1 2.7 1.2.2 2.7 1 3.4 1.9.6.8 1.4 1.1 1.7.6.6-1-4.3-5.6-6-5.7-.6 0-2.4-1.6-4-3.4-1.8-2.2-2.3-3.3-1.2-2.9.9.4 1.8.4 2.1.1 1.1-1 13.7-1.1 13.7-.1 0 .6.7.4 1.6-.3 1.4-1.1 1.8-1 2.9.5.8 1 1.8 1.5 2.3 1.2.6-.3 1.3.1 1.6 1 .4 1.2.2 1.5-.9 1-3.2-1.2-1.3 1.4 2.3 3 2 1 4.5 2.4 5.4 3.2 2.3 2 3.8.7 3.8-3.4 0-2.7.4-3.4 2-3.4 1.1 0 2-.5 2-1 0-.6.9-1 2-1s2-.5 2-1c0-.6 1.3-1 2.9-1 4.8 0 7.7-1.6 9.1-5 1.1-2.5 1.8-3.1 3.7-2.7 1.5.3 2.3-.1 2.3-.9s1.1-1.4 2.5-1.4c1.5 0 2.5-.6 2.5-1.4 0-1.9 1.7-2.9 3.1-2 .8.5.8.9-.1 1.4-.9.6-.2 1.8 2.4 4.3 3.1 3.1 4 3.5 6.1 2.7 1.4-.5 3.1-.7 3.9-.4.8.3 1.7 0 2.1-.5.3-.6 1.1-.8 1.7-.5.7.4.8-.2.3-1.7-.8-2.5-.9-3.3-.7-6.3.1-1.1.7-1.6 1.6-1.3 1 .4 2.3-.7 3.6-2.9 1.2-1.9 2.5-3.2 3-2.9.4.3 1.3-.2 2-1 1.1-1.3 1-1.4-.1-1-1.1.4-1.9-.9-3-4.5-1.3-4.3-1.4-5-.1-5 2.4 0 5.1-4.2 4.1-6.2-.8-1.5-.6-1.8 1.3-1.8 3.1 0 7.8-6 7.8-9.9 0-1.9.7-3.5 1.9-4.2 1-.7 1.6-2 1.4-2.9-.3-1 .6-2.3 2.1-3.4 1.8-1.1 2.6-2.5 2.6-4.5 0-3 2.2-5.7 3.9-4.7.5.3.7 1.6.4 2.7-.6 2.2-.6 2.2 2.5.4 2.9-1.8 3.5-4.2.7-3.1-.7.2-1.6-.1-1.8-.8-.8-2 .9-3.9 3-3.4 1.6.4 1.9.1 1.5-1.7-.3-1.9-.7-2.1-2.7-1.1-1.3.6-2.1 1.4-1.9 1.7.2.4-.3 1.2-1.1 1.9-1.3 1.1-1.7.8-2.6-1.9-.6-1.7-1.5-2.8-2.1-2.5-.5.4-2.1 0-3.6-.7-1.9-1.1-2.6-1.1-2.9-.2-.3.8-1.2.9-2.8.3-2.7-1-3.5-.5-3.5 2.5 0 2.3-6.5 6.5-10 6.5-1.1 0-2.2.4-2.5 1-.3.5-2.2 1-4.1 1-2.9 0-4.4.9-8.5 5-2.7 2.7-5.4 6.1-5.9 7.5-.6 1.5-1.7 2.5-2.9 2.5-1 0-2.5.9-3.2 2-1.2 1.7-2.8 1.9-13 2.2-11.1.3-11.7.2-14.1-2.1-2.5-2.4-2.5-2.6-1.1-6 .9-2 2-4.5 2.5-5.5.9-1.6.4-2.4-2.3-4.7-1.9-1.5-3.4-3.4-3.4-4.1-.1-.7-.6-2.3-1.3-3.6-1.1-1.8-1-2.2.3-2.2.8 0 1.5-.9 1.5-2s-.4-2-1-2c-1.5 0-1.2-3 .3-3 .6 0 2.1-.8 3.2-1.6 2-1.5 2-1.5-.4-3.5-1.3-1-3.2-1.9-4.3-1.9-1.5 0-1.8-.5-1.3-2 .7-2.3-1.6-2.8-3.4-.7-1.5 1.9-6.9.9-8.4-1.4-1.2-2-7.7-2.8-7.7-1 0 .6-1.7.9-3.7.8-4.9-.4-6.4-2.7-4.1-6.8 1.6-2.8 1.6-3.2.2-5.4-.9-1.4-1.3-3.2-.9-4.2.6-1.7.7-1.7 1.9-.1 1.4 2 3.6 2.4 3.6.8 0-.6.7-1 1.6-1 1 0 1.3.6 1 1.7-.5 1.5.1 1.8 2.9 2.1 2.4.1 3.7-.3 4.1-1.3.4-.8 1.8-1.5 3.4-1.5 2 0 3.1-.6 3.5-2 .7-2.2 5.6-6 7.8-6 .8 0 2.8-1.5 4.5-3.4l2.9-3.4 3.2 2.5c1.7 1.3 3.9 2.3 4.8 2.1 1.4-.3 1.3-.7-.8-2.9-1.3-1.5-3.3-2.5-4.3-2.3-1.1.1-3.1-.4-4.5-1.1-1.4-.8-2-1.4-1.3-1.5.8 0 1-.5.6-1.3-.6-1-.4-1 .7 0 .7.7 1.9 1.3 2.7 1.3 1.2 0 1.2-.2.1-1.7-1.3-1.5-1.2-1.5.6-.5 1.8.9 2.3.6 3.7-1.9 1-1.6 1.3-2.9.8-2.9s-1.4-1-2.1-2.1c-.8-1.7-.8-2.3.1-2.9 1-.6.9-1.3-.3-3-1-1.5-1.6-1.8-2-.8-.3.8-.9.3-1.5-1.3-.6-1.5-2.4-3.3-4.1-4-3.5-1.6-4.7-5.1-3.2-9.2.7-1.7.7-2.7.1-2.7-.5 0-1.2-1.1-1.6-2.5-.3-1.4-1.3-2.5-2-2.5-.8 0-1.7-.7-2-1.5-.4-.8-1.5-1.5-2.5-1.5s-3.7-1.6-5.9-3.7c-4-3.5-4.2-3.6-8.5-2.6-2.4.5-5 .6-5.7.2-.7-.4-1.5-.3-1.9.3-.4.7-1.3.7-2.8-.1-1.8-1-2.1-.9-2.1.8 0 2.9-3.6 1.5-5.1-2.1-.6-1.6-2.5-4.3-4.1-5.9-2.8-2.7-2.9-3.1-2.2-8.9.6-5.8.6-6-2.6-9-1.8-1.6-3.7-3-4.2-3s-1.7-.9-2.6-1.9c-1.7-1.9-13.5-5.5-16.2-4.9-1.1.2-1.6-.7-1.8-3.3-.3-3.1-.6-3.6-2.2-3.2-1.1.3-2.7-.2-3.5-1.1-.9-.9-2.5-1.6-3.5-1.6s-2.2-.5-2.5-1c-.5-.8-1.1-.7-2.1 0-1 .9-2.9.8-7.9-.3-3.6-.8-6.6-1.1-6.6-.6-.1.5-.2 1.5-.3 2.1 0 .7-1.8 1.4-3.8 1.6-2.1.2-3.8.8-3.8 1.4 0 .5-.7.8-1.5.4-.8-.3-1.5-.1-1.5.3 0 1.6-3.2 2.2-4.8.9-1-.8-1.3-.9-.9-.2 1 1.7-1.9 2.5-3.2 1-.6-.7-2.3-1.1-4-.8-2.2.3-3.6-.2-5.3-1.9-1.4-1.4-3.3-2.3-4.5-2.1-1.2.2-3.3-.4-4.7-1.3-2-1.4-2.4-2.1-1.6-3.5 1.6-3 1.2-4.2-1-3.5-2.4.8-5-1-5-3.4 0-.9-2-3.3-4.5-5.5-2.5-2.1-4.5-4.5-4.5-5.2 0-.7-.9-1.8-1.9-2.4-2.6-1.3-6.1-1.3-6.1.2 0 .7-.6.6-1.7-.4-4.3-3.5-6.8-4.5-9.7-3.7zm75.4 32.3c0 .3-.4.8-1 1.1-.5.3-1 .1-1-.4 0-.6.5-1.1 1-1.1.6 0 1 .2 1 .4zm-35.9 45.7c1.4.7 1.9 1.9 1.8 4.2-.1 1.8.3 4.3.8 5.7.8 2 .7 2.8-.8 4.1-1.8 1.5-1.8 1.7.6 3.9 1.3 1.2 3.6 2.2 5 2.2 1.5 0 2.9.6 3.1 1.3.4 1 1.7 1 6.1-.2 3-.8 5.7-1.2 6-.9.8.8-3.5 7.3-5.3 8-.9.3-2.3-.2-3.2-1.2-1-1-3-2.4-4.5-3-2.7-1.1-2.8-1.1-2.2.9.6 1.9.5 2-1.4.9-1.2-.6-2.7-2-3.4-3-.6-1.1-1.9-2-2.8-2-.9 0-2.6-2.1-4-4.7-1.5-2.9-3.2-4.9-4.4-5.1-1.1-.2-2.7-.6-3.5-.9-.8-.3-2.1-.5-2.7-.4-.7.1-1.3-.2-1.3-.7 0-1.3 3.4-2.6 3.8-1.4.1.5 1.6.6 3.3.4 2.5-.4 3.1-1.1 4.1-4.8 1.3-4.7 1.8-5 4.9-3.3zm-58.5 8.4c.4.8 1.2 1.5 1.9 1.5 2.8 0 2.5 2-.9 5.8-2 2.2-3.2 4.3-2.8 4.7.4.4-.3.6-1.5.3-1.6-.4-2-.2-1.6.8.7 1.8-.5 1.8-4.1-.1-2.5-1.3-2.7-1.3-2.2.1.5 1.2.1 1.4-1.5.9-1.2-.4-2.9-.8-3.7-.9-2.2-.4-2.7-2.5-.8-3.2 2-.8 2-2.3 0-4.5s-1.1-3.9 1.7-3.2c1.2.4 2.5 0 2.9-.7.5-.8 2.1-1.5 3.7-1.8 1.5-.2 3-.5 3.2-.8 1.1-1 5.2-.3 5.7 1.1zm231.4 111.9c0 1.1-1.9 1.5-2.5.6-.3-.5.1-1 .9-1 .9 0 1.6.2 1.6.4zm-37.1 10c-.2.2-1.6.7-3.2 1.1-2.1.6-2.7.4-2.7-.9 0-.9.6-1.3 1.4-1 .8.3 1.7 0 2.1-.6.5-.8 1-.9 1.8-.1.6.6.9 1.3.6 1.5zm-7.6 2.2c.3.4-.1 1.3-.9 2.1-1.7 1.8-2.9 1.1-2.1-1.2.7-1.6 1.9-2 3-.9zm-529.8 73c.9.9 1.4 1.8 1.2 2-.8.8-6.7-1.8-6.1-2.7.8-1.4 3.1-1.1 4.9.7zm446.5 27.4c-1.8 1.8-2.4 2-3.1.9-.6-1-.2-1.8 1.1-2.8 1.1-.7 2-2.1 2.1-3 0-1.2.3-1.1 1.1.5.8 1.8.6 2.6-1.2 4.4zm34 108.5c.7.8 1.8 1.5 2.6 1.5 1.5 0 4.4 3.8 4.4 5.8 0 1-.8.9-3.1-.5-2.8-1.6-6.9-6.2-6.9-7.7 0-1.1 1.8-.6 3 .9zm-280.7 14.9c2.1 1.6 2.2 2.6.3 2.6-.8 0-1.6.8-1.8 1.7-.3 1.5-.5 1.5-1.8.2-.8-.9-2.4-2-3.5-2.7-2-1.1-2-1.1.2-1.2 1.2 0 2.5-.5 2.8-1 .8-1.3 1.6-1.2 3.8.4zm-37.1 18.3c2.2 2 2.5 6.5.3 5.7-1-.4-1.5 0-1.5 1.5 0 1.6-.5 2-2.2 1.7-1.3-.2-2.2-.9-2-1.5.1-.6-.3-1.1-1-1.1-.6 0-.1-.9 1.1-1.9 1.3-1.1 2-2.5 1.6-3-.6-1.1.1-3.1 1.2-3.1.4 0 1.5.7 2.5 1.7zm115.3 36.2c.3.5-.3 1.2-1.3 1.6-2.2.6-5.2-.3-5.2-1.6 0-1.2 5.7-1.2 6.5 0zm94.9 22.6c.3.8.1 1.5-.4 1.5-.6 0-1-.7-1-1.5s.2-1.5.4-1.5.6.7 1 1.5zm-74.4 13.5c0 1.7-.5 2.5-1.4 2.2-.4-.1-1.4.2-2.1.8-1 .8-1.5.8-2 0-.4-.6-.5-1.2-.4-1.3.2-.1 1.3-.7 2.4-1.4 2.5-1.5 3.5-1.6 3.5-.3zm83.4 31.8l2.3 1.7-2.4 1.9c-1.4 1-2.2 2.4-1.9 3.2.3.8.1 1.4-.4 1.4s-1.2-1.1-1.6-2.5c-.3-1.4-1-2.3-1.4-2-1.6 1-2-1.3-.5-2.5.8-.7 1.2-1.6.9-2.1-1-1.6 2.7-.9 5 .9zm-81.7 13.2c.1 1.1-.4 2-1.1 2-2 0-2.6-1.1-1.3-2.6 1.7-1.9 2.3-1.7 2.4.6zm119.3 49.9c-.1 1.3-.3 1.3-1.5-.3-1.9-2.6-1.9-4.2 0-2.6.8.7 1.5 2 1.5 2.9z"/><path d="M263.899 43.84c.2 2.1-.1 4.4-.5 5.1-.7 1.2 1.8 4.1 3.7 4.2 1.7 0 .5 2.1-1.9 3.2-2 1-2.7.9-3.4-.2-.7-1.1-.9-1-.8.6.1 1.2.7 2.1 1.3 2.1 3.2 0 4.3.6 5.4 3 .8 1.8.9 2.9.1 3.7-.5.5-1 1.4-1 1.8 0 .7 1.9-.2 5.8-2.8.2-.1-.4-1.4-1.3-2.8-1.4-2.1-1.5-2.5-.3-2.1 1.2.5 1.5-.2 1.3-2.9-.1-2-.7-4.2-1.3-4.9-.6-.7-1.4-2.8-1.7-4.7-.7-4.1-1.1-4.7-3.6-6.1-1.9-1-2-.8-1.8 2.8zm7.9 9.7c0 .2-.7.9-1.5 1.6-1.2 1-1.5 1-1.5-.4 0-.9.7-1.6 1.5-1.6s1.5.2 1.5.4zM260.799 68.04c0 .6.4 1.3 1 1.6.6.3.7-.1.4-.9-.7-1.8-1.4-2.1-1.4-.7zM300.999 91.14c1.4 2.2 2.4 1.9 1.5-.5-.4-.8-1.1-1.5-1.7-1.5-.6 0-.6.7.2 2zM249.799 98.64c-1 1.3-.9 1.5.9 1.5 1.1 0 2.1-.4 2.1-.9 0-1.8-1.8-2.1-3-.6zM682.299 147.14c-.3.5-.1 1 .4 1 .6 0 1.1-.5 1.1-1 0-.6-.2-1-.4-1-.3 0-.8.4-1.1 1zM652.399 148.64c-.9 2.6-.7 3.2.5 1.2.6-1 .9-2.1.6-2.3-.2-.3-.7.2-1.1 1.1zM656.599 149.84c-.2 1.9-.8 2.8-2 2.7-1-.1-1.9.8-2.3 2.3-.3 1.3-1 2.1-1.5 1.8-.5-.3-1.1-.1-1.5.5-.4.6-.9.8-1.3.6-1.4-.8-4.5 2.3-3.9 3.9.7 1.7 4.7 2.1 4.7.5 0-.7 2.6-1 6.5-.9 3.6.1 6.8-.1 7.2-.4.3-.4 1.4-.2 2.4.3 1.2.7 2 .7 2.4 0 .4-.6 2.4-1.9 4.6-3 2.1-1.1 3.9-2.7 3.9-3.5 0-2.3-3.7-3.7-8.4-3-3.6.6-4.7.3-7.4-1.9l-3.1-2.7-.3 2.8zM633.899 160.74c0 1.1.3 1.4.6.6.3-.7.2-1.6-.1-1.9-.3-.4-.6.2-.5 1.3zM637.799 161.14c0 .5.5 1 1 1 .6 0 1-.5 1-1 0-.6-.4-1-1-1-.5 0-1 .4-1 1zM558.799 162.14c.8.5 2.4 1 3.4 1 2.6 0 1.8-.6-1.9-1.4-2.2-.5-2.6-.4-1.5.4zM639.799 165.24c0 1.3-.4 1.8-1.2 1.3-1-.5-1-.4-.1.6 1 1.1 1.5 1.1 2.8 0 1.9-1.6 1.9-2.6 0-3.4-1-.4-1.5.1-1.5 1.5zM627.799 165.14c0 .5.5 1 1 1 .6 0 1-.5 1-1 0-.6-.4-1-1-1-.5 0-1 .4-1 1zM588.099 240.64c-.3.9-.3 1.8-.1 2.1.3.3.8-.4 1.1-1.6.6-2.3-.1-2.7-1-.5zM584.999 245.34c-.7.7-1.2 1.9-1.1 2.7 0 1.1.2 1.2.6.3.8-1.9 2.3-1.4 2.3.8 0 1.1.6 2.2 1.3 2.4.6.2 2.7.8 4.6 1.4 1.9.7 3.6 1 3.8.9.1-.2-.3-1.7-.9-3.4-.8-2-2.4-3.6-4.8-4.7-4.4-1.9-4.3-1.9-5.8-.4zM463.799 290.04c0 .6.4 1.3 1 1.6.6.3.7-.1.4-.9-.7-1.8-1.4-2.1-1.4-.7zM214.899 303.84c.7 1.2 1.5 2 1.8 1.7.3-.2-.3-1.2-1.3-2.2-1.7-1.6-1.8-1.6-.5.5z"/><path d="M205.799 304.74c0 .9 1 2.4 2.3 3.5 1.8 1.5 1.9 2 .8 2.8-1 .7-.7 1.2 1.5 2.3 2.1 1 2.8 2 2.6 3.5-.4 2.8 2.3 4.3 8.7 4.7 4.8.4 4.9.3 5.5-2.7.5-2.5.1-3.6-2-5.7l-2.7-2.5 2.1 2.9c2.7 3.5 2.7 3.8.1 5.5-2 1.2-2.1 1.1-1.6-.8.3-1.3 0-2.1-.8-2.1-2.2 0-4.2-7.5-2.3-8.6.4-.3.8-1.3.8-2.2-.1-1.5-.3-1.4-1.6.3-.8 1.1-2 1.9-2.5 1.7-.5-.1-.9.2-.9.8 0 1.4-3.3 1.3-4.8-.2-.7-.7-.8-1.7-.1-3 .8-1.6.6-1.8-2.1-1.8-2.1 0-3 .5-3 1.6zM221.299 328.14c.1 1.6.7 3.5 1.3 4.2.5.7 1.2 2.4 1.4 3.8.2 1.7 1.4 3 3.8 4.1 1.9 1 3.6 1.6 3.6 1.6.1-.1.4-1.9.8-3.9.6-3.4.3-4.2-3.5-8.3-4.9-5.4-7.8-6-7.4-1.5zM159.999 337.14c0 1.4.2 1.9.5 1.2.2-.6.2-1.8 0-2.5-.3-.6-.5-.1-.5 1.3zM221.999 347.04c-1.7 5.4-1.5 6.9.8 7.6 2.4.8 3.6.1 4.3-2.4.3-1.5-.2-2.1-2.2-2.6-2.3-.6-2.4-.8-1-1.9 1.4-.9 1.5-1.5.4-2.9-1-1.5-1.3-1.2-2.3 2.2zM216.799 355.74c0 .9.5 1.4 1.2 1.2 1.8-.6 2.1-2.8.4-2.8-.9 0-1.6.7-1.6 1.6zM569.799 370.54c0 .2.9.6 2 .9 1.1.3 1.8.1 1.4-.4-.5-.9-3.4-1.3-3.4-.5zM295.799 383.74c0 1.2.4 1.2 2 .4 1.1-.6 2-1.2 2-1.3 0-.2-.9-.3-2-.4-1.2-.1-2 .4-2 1.3zM408.299 451.04c.6 2 .4 2.3-.9 1.8-2.5-1-1.8 1.6 1 3.7 1.9 1.3 2.9 1.5 3.7.7.8-.8.5-1.1-1.1-1.1-2.3 0-2.8-1-1.3-2.6.6-.5.4-1.7-.6-2.9-1.5-1.9-1.5-1.9-.8.4zM223.399 452.94c-.3.5.1 1.8.9 2.8 1.4 1.8 1.4 1.8 1.5-.3 0-2.3-1.5-3.9-2.4-2.5zM389.799 456.54c0 1.6-.7 2.6-2.2 2.9l-2.3.6 2.1 1.9c3.8 3.5 6 3.6 8.4.2 2.4-3.4 2.1-6-.9-6-1.1 0-2.3-.5-2.6-1-1.1-1.8-2.5-1-2.5 1.4zM403.399 455.64c.4.8.8 1.5 1 1.5.2 0 .4-.7.4-1.5s-.4-1.5-1-1.5c-.5 0-.7.7-.4 1.5zM534.199 468.54c-.9 2.2.9 4.1 2.9 3 1.2-.8 1.1-1.2-.4-2.8-1.7-1.8-1.9-1.8-2.5-.2zM192.199 527.64c-1 1.6-1.3 3.1-.8 4.2 1.4 3.2 1.2 5.5-.3 4.9-.8-.3-1.9-.6-2.4-.6s-.9-.9-.9-2-.5-2-1.1-2c-.7 0-1.8-.8-2.6-1.8-.8-.9-1.2-1.1-.8-.4.4.7.1 1.9-.5 2.7-1.7 2.1-.3 3.8 2.1 2.5 1.5-.9 1.9-.7 1.9.5 0 .8-.6 1.5-1.4 1.5-.8 0-1.7.9-2.1 1.9-.3 1.1-1.6 2.2-2.8 2.4l-2.2.4 2.2.8c2.9 1 3.8 4.6 1.5 6.5-1.4 1.1-1.7 2.5-1.4 5.3.2 2 .7 3.7 1.1 3.7 2.3 0 5.1 4.4 5.1 8 0 2.1.5 4.2 1 4.5 1.7 1.1 1.1 3-2 6.2-2.3 2.3-2.9 3.8-2.8 6.7.1 3.9 2.8 6.9 5.3 6 .7-.3 1.6-.1 2 .5.3.6 1.5 1.1 2.6 1.1s1.9.7 1.9 1.7c0 1.4.3 1.3 1.6-.6 1.1-1.5 2.3-2.1 3.5-1.8 1.5.4 1.9 0 1.9-2 0-2.2.3-2.4 2.7-1.8 2 .5 3.1.1 4.2-1.3 1.6-1.9 1.7-1.9 8.4.3 6.8 2.2 11.7 5.7 11.7 8.2 0 .7.9 1.3 1.9 1.3 1.1 0 3.3 1.2 5 2.6 1.7 1.4 3.1 2.3 3.1 1.9 0-.4.7-.1 1.6.6 2.2 1.8 4.5 1.7 6.7-.3 1.5-1.3 1.7-2 .8-3.7-1-1.8-.9-2.1.9-2.1 1.4 0 2-.7 2-2.3 0-2.5 4.2-7.2 5.3-6 .4.3.7-.3.7-1.5s-.5-2.2-1.1-2.2c-.6 0-.9-.6-.7-1.2.3-.7-.2-1.9-.9-2.7-.8-.8-1.2-2.3-1-3.3.3-1.1.1-3.3-.5-4.9-.8-2.4-1.5-2.9-3.2-2.5-2.4.6-6.1-1.8-5.1-3.3.3-.6.2-1.1-.3-1.1-1.6 0-6.7-7.3-5.4-7.8.7-.2 1.2-.8 1.2-1.4 0-1.2-4.6-5.7-6.1-5.9-4.3-.6-5.1-1.7-4.4-5.9.4-2.3.2-4.1-.4-4.5-.6-.3-1.1-.1-1.1.4 0 1.9-4.9 1.2-6.2-.9-1-1.5-2.4-2-6-2-4.3 0-4.8-.3-5.4-2.5-.7-2.7-6.4-6.6-6.4-4.3 0 .9-.3.9-1.2 0-.7-.7-2.2-1.2-3.4-1.2-1.3 0-2.6-.5-2.9-1-1-1.6-2.4-1.2-4.1 1.5zM522.899 591.04c-.1.8-.8 1.1-1.8.7-1.5-.5-1.4-.3.2.9 2 1.6 3.1.7 2.2-1.8-.4-.9-.6-.9-.6.2z"/><path d="M202.399 595.64c-.3.8-.1 1.5.4 1.5.6 0 1-.7 1-1.5s-.2-1.5-.4-1.5-.6.7-1 1.5zM241.299 604.14c-.3.5-.1 1.8.4 2.7.9 1.6 1 1.4 1.1-1 0-2.8-.5-3.4-1.5-1.7zM237.399 612.64c-.3.9.2 2.7 1 4.1 1.7 2.5 3.3 2.7 1.8.2-.5-.7-1-2.2-1.1-3.2-.5-2.7-.9-3-1.7-1.1zM237.799 624.04c0 1.2.5 2.1 1 2.1.6 0 1-.6 1-1.4 0-.8-.4-1.8-1-2.1-.5-.3-1 .3-1 1.4zM224.599 627.14c-1.5 1.1-3.1 2-3.7 2-.7 0-2.3.7-3.6 1.6-2 1.3-3.1 1.4-5.6.5l-3.2-1.1.6 6 .7 6-2.5-.6c-2.1-.5-2.5-.3-2.5 1.5 0 1.4-.6 2.1-2 2.1-1.1 0-2 .4-2 1 0 .5.6 1 1.4 1 1.1 0 1.2.5.3 2.4-.7 1.3-1.6 2.2-2.1 1.9-1.1-.7 0 1.1 3.1 5.3 1.3 1.7 2.3 3.6 2.3 4.2 0 .6.9 1.3 1.9 1.7 1.1.3 4.2 3.1 7 6.1 2.7 2.9 5.5 5.4 6.1 5.4 1.1 0 .9 4.2-.6 12.1-.5 2.6 1.2 5.3 3.8 6.1 1.8.6 1.1 6.6-1.2 9.6-1.1 1.3-2 3.1-2 3.8 0 .8-.6 1.4-1.4 1.4-.8 0-1.8.9-2.1 2-.3 1.1-1.4 2-2.4 2s-2.4.7-3.1 1.5c-.7.8-1.7 1.5-2.2 1.5-.5 0-1.7.9-2.6 2-1 1.1-3.3 2.8-5.2 3.8-2.9 1.4-3.5 2.3-3.8 5.5-.3 3.5-.1 3.8 4 5.7 2.4 1.2 5.4 2.7 6.7 3.5 2.6 1.5 6.7.3 5.6-1.6-.4-.5 1-.9 3-.9 2.1 0 4.9-.9 6.5-2 2.6-1.9 3-1.9 3.8-.4.6 1.1 1.1 1.3 1.6.5 1.1-1.8 2.3-1.3 6.6 2.5 3.6 3.2 4.4 3.6 6.3 2.6 5.2-2.7 7.5-3.1 8.1-1.6.3.8 1.2 1.4 2 1.4s2.7 1 4.3 2.2c4.1 3.3 7 4.8 9.2 4.8 1.1 0 2.3.4 2.6 1 1.2 2 3.3.9 3.9-2 .7-3.8.7-4 .1-4-.3 0-1.7-1.1-3.2-2.4-1.7-1.6-3.1-2.2-3.7-1.6-.6.4-2.3.6-3.8.3-2.8-.5-3.6-1.7-1.9-2.8.6-.3.5-1.9-.2-4-1.4-4.1-7-8.5-9.8-7.8-1 .3-2.5.1-3.2-.5-.7-.6-2.5-.9-3.9-.8-3.6.4-4.2-1.6-1.2-3.9 1.3-1 2.4-2.8 2.4-4.1 0-1.2.5-2.6 1-2.9 1.5-.9 1.2-2.5-.5-2.5-1 0-1.7-1.4-2.1-4-.4-2.2-1.1-4.3-1.5-4.6-1.6-.9-1-7.2.7-8.2 1.3-.7 1.6-2 1.2-6.1l-.5-5.1 3.6.5 3.6.6-2.8-2.1c-4.4-3.5-5.1-5.6-2.7-8 1.8-1.8 1.9-2.4.9-3.6-1-1.3-1-1.7.1-2.4s.8-1.1-1.1-2c-2.7-1.2-6.8-7-5-7 1.5 0 1.4-6.3-.1-7.9-1.1-1-.8-1.6 1.1-3 1.7-1.3 2.2-2.5 1.8-4-.3-1.4-.1-2.1.9-2.1 2.4 0-.3-3.9-3.4-5.1-2.1-.8-2.9-.7-3.7.5-.8 1.3-1.5 1-4.6-2l-3.5-3.5-2.6 2.1zm28.2 106c0 .5-.2 1-.4 1-.3 0-.8-.5-1.1-1-.3-.6-.1-1 .4-1 .6 0 1.1.4 1.1 1z"/><path d="M271.499 625.84c-.4.3-.7 2.3-.7 4.4 0 2-.4 3.9-.9 4.1-1 .3-1.8 10.4-.9 11.3.3.4-.5 1.7-1.8 3s-2.4 3.4-2.4 4.5c0 1.3-.8 2.4-2 2.7-1.1.3-2 .9-2 1.5 0 .5-1.6 1.8-3.5 2.9-3.3 2-3.4 2.2-2 4.3.8 1.2 1.2 2.5.9 2.8-.3.4-.1 1.6.6 2.7.9 1.8.8 2.1-.8 2.1-1.5 0-1.8.5-1.4 2.5.3 2 .1 2.4-1.2 1.9-.9-.3-1.6-.1-1.6.5s.6 1.1 1.4 1.1c1.7 0 7 8.6 6.1 10-.3.5.5 1.5 1.9 2.2 1.6.7 2.6 1.9 2.6 3.2 0 1.2.3 3.2.7 4.4.5 2 1.1 2.3 3.9 2 1.9-.2 3.4 0 3.4.4 0 2.1 8.5.1 10.1-2.5.4-.6 1.3-.5 2.5.1 1.1.5 4.5 1.3 7.7 1.6 5.3.7 5.7.6 5.7-1.4v-2.1l3 2.3c1.7 1.2 3 2.7 3 3.4 0 1.6 2.8 2.6 3.2 1.2.3-.8 1-.8 2.5.1 1.7.8 2.8.8 4.7-.1 1.4-.6 2.6-1.5 2.6-1.9 0-.4 1.1-2 2.5-3.5 2.8-3 3.1-4.4 1.3-6.2-1-1-1-1.4 0-2.1.7-.4 1-1.5.6-2.4-.4-1 0-1.9.9-2.3.9-.3 1.3-1.2 1-2-.3-.9.2-1.4 1.4-1.4 2.7 0 4.5-3.4 3.3-6.5-.5-1.4-.6-2.5-.1-2.5s.9-1 .9-2.3c0-1.2.2-3 .4-3.9.3-1.9-10.7-14.8-12.8-14.8-.7 0-1.6-1-1.9-2.3-1.7-5.5-3.8-8.8-5.5-8.5-1 .2-3.5-1.3-5.7-3.2-3.9-3.6-13.7-7-20.1-7-1.6 0-4.6-1.1-6.6-2.5-4.1-2.8-4-2.8-4.9-1.8zM255.099 747.14c-.6 2.4-1.9 2.6-2.7.5-.8-2.2-3.4-1.8-4.1.5-.3 1.1-1.1 2-1.6 2s-.9 1.1-.9 2.5c0 1.8-.5 2.5-1.9 2.5-1.1 0-2.2.4-2.5.9-.3.5-2.8 1.4-5.5 2.1-2.7.6-5.2 1.8-5.5 2.6-.6 1.7-3.6 1.9-3.6.3 0-.8-.5-.8-1.5.1-.8.7-1.5.9-1.5.4s-.7.4-1.5 2c-.8 1.5-1.5 3-1.5 3.1 0 .6 6.6 2.8 8.5 2.9 1 .1 2.5 1.2 3.2 2.6.7 1.4 1.3 2 1.3 1.5 0-.6.7-.2 1.5.8 1.3 1.8 1.4 1.8 3.2 0 1.1-1.1 1.7-2.5 1.5-3.3-.3-.9.1-1.1 1.1-.7 1.3.5 1.6 0 1.3-2.3-.4-3.6 2.1-9 3.9-8.4.7.3 1.6 0 2-.6.4-.7 1.1-.8 1.8-.2 2.3 1.8 5.7 2.1 5.7.5 0-.9.6-1.3 1.4-1 1 .4 1.5-.6 2-3.3.4-2.6 1.5-4.5 3.3-5.9l2.8-2-3.2-.1c-1.7 0-3.5-.5-3.8-1-1-1.6-2.7-1.1-3.2 1zM258.599 762.64c.2 1.4.8 2.5 1.2 2.5 1.4 0 1.9-2.7.7-3.9-1.8-1.8-2.5-1.3-1.9 1.4z"/></g></svg>