<?xml version="1.0" standalone="no"?>
<!DOCTYPE svg PUBLIC "-//W3C//DTD SVG 20010904//EN"
 "http://www.w3.org/TR/2001/REC-SVG-20010904/DTD/svg10.dtd">
<svg version="1.0" xmlns="http://www.w3.org/2000/svg"
 width="788.454219pt" height="861.818472pt" viewBox="0 0 788.454219 861.818472"
 preserveAspectRatio="xMidYMid meet">
<metadata>
Created by potrace 1.15, written by Peter Selinger 2001-2017
</metadata>
<g transform="translate(-537.545781,1455.818472) scale(0.100000,-0.100000)"
fill="#222222" stroke="none">
<path d="M9908 14537 c-21 -12 -38 -27 -38 -33 0 -17 58 -55 65 -43 4 5 17 14
30 19 30 11 24 54 -6 45 -13 -5 -19 -1 -19 10 0 10 5 13 12 9 7 -4 8 -3 4 4
-9 14 -3 16 -48 -11z"/>
<path d="M9658 14543 c-2 -5 -22 -26 -45 -47 -36 -33 -45 -37 -58 -26 -12 10
-15 10 -15 -2 0 -20 -34 -50 -45 -41 -5 5 -4 1 1 -7 15 -20 -5 -69 -25 -62
-10 3 -12 0 -8 -11 3 -9 -1 -21 -9 -28 -8 -6 -13 -17 -11 -22 5 -17 -31 -47
-57 -47 -30 0 -42 -16 -19 -24 12 -5 14 -9 6 -14 -8 -5 -9 -19 -3 -45 7 -34 6
-38 -8 -33 -13 5 -12 2 2 -9 11 -8 27 -15 37 -15 17 0 69 -46 69 -61 0 -5 9
-9 20 -9 13 0 20 7 20 20 0 11 7 23 16 27 12 4 14 14 10 34 -4 24 -2 29 13 29
21 0 37 17 42 44 3 13 16 23 38 28 26 7 32 13 28 29 -6 23 -4 23 33 4 40 -20
90 -3 90 31 0 13 -6 24 -13 24 -10 0 -14 13 -13 44 1 24 4 42 8 39 8 -4 57 46
58 60 0 14 -64 36 -74 26 -15 -14 -26 -11 -26 7 0 8 -13 20 -29 25 -20 7 -28
15 -24 25 5 14 -2 20 -9 7z"/>
<path d="M9295 14266 c25 -37 47 -42 27 -5 -9 16 -23 29 -30 29 -9 0 -8 -6 3
-24z"/>
<path d="M9797 14255 c-9 -6 -17 -19 -17 -27 0 -16 -30 -47 -30 -32 0 5 -5 2
-11 -6 -8 -11 -12 -12 -16 -2 -2 6 -13 12 -24 12 -10 0 -19 6 -19 13 -1 7 -6
5 -14 -5 -10 -13 -15 -15 -24 -6 -7 7 -12 8 -12 4 0 -12 32 -35 48 -36 7 0 10
5 6 11 -4 7 1 10 11 7 26 -5 29 -25 5 -31 -13 -3 -18 -10 -14 -21 3 -9 2 -16
-3 -16 -5 0 -8 -13 -5 -30 4 -25 1 -30 -17 -30 -12 0 -21 -6 -21 -14 0 -8 -9
-18 -20 -21 -11 -3 -20 -11 -20 -16 0 -6 -4 -8 -9 -5 -5 4 -20 2 -33 -3 -17
-7 -18 -10 -5 -10 11 -1 17 -9 17 -25 0 -13 7 -29 15 -36 9 -7 12 -22 9 -40
-4 -15 -1 -31 5 -34 7 -5 7 -14 -1 -31 -9 -20 -8 -28 5 -43 21 -23 22 -116 3
-152 -13 -22 -12 -27 9 -46 12 -11 23 -32 23 -46 0 -21 -4 -24 -27 -20 -14 3
-32 9 -39 15 -9 7 -11 6 -7 -5 4 -11 -3 -19 -23 -26 -22 -7 -32 -19 -37 -41
-9 -40 -66 -85 -99 -79 -17 4 -26 0 -29 -12 -2 -9 -18 -23 -35 -31 -23 -10
-31 -21 -36 -48 -6 -38 -69 -111 -96 -111 -9 0 -21 -5 -28 -12 -9 -9 -15 -9
-24 0 -19 19 -51 15 -44 -4 4 -10 0 -21 -9 -28 -14 -10 -13 -16 10 -50 15 -22
29 -57 31 -79 4 -33 1 -44 -22 -68 -20 -21 -25 -32 -17 -40 12 -12 -11 -132
-26 -137 -4 -1 -5 -16 -3 -32 3 -18 0 -30 -7 -30 -6 0 -19 -16 -28 -35 -9 -19
-25 -37 -35 -41 -10 -3 -18 -13 -18 -23 0 -10 -9 -26 -20 -36 -11 -10 -20 -24
-20 -32 0 -11 -4 -11 -21 -3 -19 11 -20 9 -13 -24 5 -31 4 -35 -10 -30 -19 7
-20 3 -5 -30 9 -20 9 -28 -3 -40 -8 -8 -21 -14 -29 -13 -8 1 -30 -4 -49 -12
-28 -11 -40 -23 -54 -60 -25 -61 -42 -79 -87 -91 -21 -6 -40 -18 -43 -28 -8
-24 -65 -45 -83 -31 -10 9 -20 4 -43 -21 -16 -18 -30 -36 -30 -41 0 -5 -7 -9
-15 -9 -8 0 -15 -4 -15 -9 0 -5 -14 -14 -30 -20 -25 -8 -32 -7 -37 4 -8 23
-36 19 -28 -5 6 -18 -22 -76 -32 -66 -3 3 -15 -6 -28 -20 -12 -13 -32 -24 -44
-24 -12 0 -31 -5 -42 -10 -15 -8 -19 -7 -19 3 0 11 -15 15 -57 16 -32 0 -65 4
-75 7 -11 3 -18 0 -19 -8 -2 -47 -11 -74 -28 -92 -19 -19 -21 -19 -39 -3 -28
25 -52 22 -52 -8 0 -20 -5 -25 -26 -25 -21 0 -25 -4 -21 -20 3 -12 -1 -23 -10
-29 -9 -4 -15 -20 -15 -35 0 -27 -1 -27 -49 -21 -42 6 -52 4 -82 -19 -19 -14
-44 -26 -57 -26 -13 0 -50 -8 -82 -17 -55 -16 -59 -20 -75 -63 -24 -62 -103
-140 -142 -140 -23 0 -30 -5 -33 -22 -2 -17 -11 -24 -31 -26 -23 -3 -28 -8
-24 -22 3 -11 -2 -25 -10 -31 -8 -7 -21 -25 -29 -41 -9 -18 -26 -31 -44 -34
-16 -4 -36 -14 -45 -24 -9 -10 -23 -16 -31 -13 -10 4 -14 -3 -14 -20 0 -26
-28 -44 -58 -38 -7 1 -18 -12 -25 -28 -6 -17 -15 -31 -20 -31 -5 0 -6 -16 -3
-35 5 -27 3 -37 -12 -46 -13 -8 -17 -20 -14 -40 4 -24 1 -29 -17 -29 -12 0
-24 -7 -27 -15 -4 -8 -13 -15 -21 -15 -8 0 -11 -5 -8 -11 11 -17 -4 -61 -18
-52 -20 14 -127 10 -127 -4 0 -7 -9 -13 -21 -13 -12 0 -23 -8 -26 -20 -7 -26
-99 -55 -170 -53 l-53 1 0 -33 c0 -34 -20 -52 -43 -38 -7 3 -9 3 -5 -2 10 -10
-29 -65 -46 -65 -9 0 -12 -9 -8 -26 3 -17 1 -25 -6 -21 -12 8 -22 -15 -22 -49
0 -13 -5 -24 -10 -24 -6 0 -20 -12 -33 -26 -22 -25 -36 -77 -40 -144 -2 -38
-61 -130 -84 -130 -7 0 -13 -11 -13 -24 0 -16 -7 -27 -20 -31 -11 -3 -20 -13
-20 -21 0 -17 -2 -17 -35 -2 -14 6 -25 20 -25 30 0 11 -4 16 -10 13 -5 -3 -19
-1 -30 5 -17 9 -20 8 -20 -11 0 -16 -5 -20 -20 -16 -12 3 -20 0 -20 -8 0 -14
-50 -35 -85 -35 -13 0 -28 -6 -34 -14 -6 -7 -22 -11 -35 -9 -15 3 -36 -3 -54
-17 -20 -15 -39 -21 -56 -18 -14 3 -26 1 -26 -4 0 -6 -17 -7 -40 -3 -38 6 -55
-5 -30 -20 6 -4 8 -10 5 -15 -3 -4 2 -27 10 -50 8 -23 15 -55 15 -71 0 -15 5
-31 10 -34 13 -8 13 -65 0 -65 -5 0 -7 -7 -4 -15 4 -9 1 -15 -7 -15 -8 0 -14
-11 -14 -25 0 -20 7 -28 34 -36 29 -10 35 -9 43 5 8 15 12 14 39 -9 17 -14 39
-25 49 -25 10 0 31 -16 47 -35 16 -19 38 -36 49 -38 11 -1 38 -17 60 -35 21
-18 47 -32 56 -32 10 0 35 -16 57 -35 21 -19 52 -37 68 -39 45 -5 55 -14 42
-38 -14 -26 -3 -68 17 -68 10 0 14 -6 10 -15 -3 -9 0 -24 6 -35 10 -16 8 -23
-11 -44 -19 -21 -22 -28 -12 -40 7 -8 11 -23 9 -33 -3 -23 29 -67 100 -135 28
-28 52 -55 52 -61 0 -8 29 -47 76 -100 10 -13 23 -17 39 -13 28 7 55 -2 55
-18 0 -7 11 -19 25 -26 14 -7 25 -22 25 -32 0 -10 7 -21 15 -24 17 -7 56 -70
48 -78 -4 -3 -14 -6 -24 -6 -15 0 -17 -6 -13 -29 4 -16 1 -32 -5 -35 -16 -10
-14 -47 4 -66 22 -24 8 -60 -23 -60 -14 0 -33 7 -42 15 -23 21 -94 49 -84 34
5 -8 2 -10 -8 -6 -9 3 -24 -3 -34 -14 -9 -10 -25 -19 -36 -19 -21 0 -23 -11
-7 -27 7 -7 12 -22 13 -34 1 -15 8 -23 25 -26 31 -4 61 -31 61 -53 0 -10 19
-25 50 -38 69 -30 83 -29 68 4 -9 19 -9 30 0 44 7 12 8 21 2 25 -17 10 -11 37
7 33 23 -4 36 -55 16 -62 -8 -3 -11 -10 -8 -16 4 -6 9 -8 13 -6 4 2 7 -22 6
-55 0 -32 2 -60 5 -60 3 -1 17 -2 31 -3 14 -1 42 -6 63 -10 30 -6 37 -4 37 9
0 9 5 13 11 9 8 -5 8 -1 0 13 -6 11 -8 23 -4 26 3 3 -4 22 -16 42 l-21 35 21
21 c11 11 24 17 29 14 6 -4 10 11 10 33 0 26 -5 42 -15 46 -18 7 -20 37 -3 54
22 22 63 13 102 -23 21 -19 41 -34 44 -32 9 2 62 -34 62 -42 0 -4 -13 -6 -30
-3 -16 2 -30 2 -30 0 0 -3 14 -23 31 -44 29 -37 30 -42 24 -100 -5 -48 -3 -65
9 -77 14 -14 14 -16 0 -21 -10 -4 -15 -16 -13 -33 4 -42 -11 -93 -27 -93 -8 0
-15 -10 -16 -22 0 -13 -2 -29 -2 -36 -1 -8 -8 -17 -17 -22 -10 -6 -16 -24 -17
-47 -1 -21 -7 -42 -14 -48 -7 -5 -14 -19 -16 -30 -2 -11 -6 -33 -9 -48 -5 -26
-3 -28 23 -25 25 3 29 0 27 -19 -2 -13 1 -23 5 -23 5 0 7 -18 6 -40 -2 -44 -1
-45 45 -29 25 9 39 9 59 -1 15 -8 32 -13 39 -11 6 1 14 -3 18 -9 3 -5 15 -10
25 -10 21 0 38 -39 22 -49 -14 -9 30 -59 47 -53 11 4 13 -4 8 -31 -5 -30 0
-43 27 -79 51 -67 60 -87 45 -104 -10 -12 -8 -19 8 -37 18 -20 31 -44 39 -72
1 -5 13 -34 25 -63 20 -45 22 -58 13 -92 -10 -37 -9 -41 20 -68 17 -16 50 -35
73 -42 28 -9 50 -24 65 -46 13 -19 29 -34 36 -34 7 0 15 -7 18 -15 4 -8 17
-15 30 -15 14 0 36 -7 50 -16 21 -14 29 -15 48 -4 22 11 30 7 96 -39 40 -28
83 -51 96 -51 13 0 26 -4 29 -10 3 -6 16 -10 29 -10 13 0 35 -14 53 -35 17
-19 40 -35 51 -35 13 0 24 -10 30 -29 6 -16 8 -31 6 -34 -2 -2 2 -10 11 -17
25 -20 18 -40 -14 -40 -33 0 -43 -17 -34 -60 4 -20 2 -30 -7 -30 -6 0 0 -14
14 -31 14 -17 26 -34 26 -38 0 -4 21 -21 48 -38 70 -44 69 -44 68 -21 -1 15 7
24 24 28 15 4 23 12 21 21 -2 8 -6 30 -9 50 -5 48 15 60 24 14 3 -19 10 -38
15 -41 5 -3 7 -10 3 -15 -8 -14 27 -51 43 -45 9 4 16 -5 20 -25 4 -19 16 -35
34 -44 37 -20 42 -19 36 5 -3 11 -2 22 3 25 4 3 10 -4 13 -15 3 -11 9 -20 14
-18 35 9 71 -36 38 -48 -8 -4 -12 -10 -9 -15 3 -5 0 -9 -5 -9 -6 0 -11 5 -11
10 0 6 -7 10 -16 10 -13 0 -14 -3 -5 -14 7 -8 11 -22 9 -32 -2 -9 3 -19 10
-21 6 -3 12 0 12 7 0 6 5 8 11 5 5 -4 19 4 30 17 18 20 20 20 17 4 -4 -25 29
-47 42 -26 8 12 16 11 57 -10 26 -13 55 -23 63 -22 8 1 10 -1 4 -4 -23 -10 -1
-40 57 -76 40 -26 59 -44 59 -58 0 -23 33 -60 54 -60 8 0 16 10 18 23 2 12 9
21 15 20 6 -1 14 9 17 22 4 14 13 25 20 25 9 0 12 7 9 19 -8 31 16 35 55 9 38
-26 62 -26 62 -2 0 8 10 14 24 14 29 0 41 27 32 73 -5 27 0 39 35 79 22 27 45
48 50 48 6 0 7 -4 4 -10 -3 -5 -1 -10 4 -10 6 0 11 5 11 11 0 5 5 7 10 4 6 -3
10 -19 10 -35 0 -19 6 -31 18 -35 11 -3 24 -23 32 -48 7 -23 15 -36 17 -29 7
18 21 15 28 -8 6 -19 7 -19 32 -3 30 20 63 24 80 11 9 -7 15 -5 19 5 3 9 14
19 25 22 10 4 19 15 19 25 0 12 10 21 28 25 15 3 36 20 47 38 26 41 47 44 80
11 23 -23 29 -25 39 -13 22 29 66 49 91 43 14 -3 25 -10 25 -14 0 -4 25 -8 55
-9 31 0 59 -3 64 -5 4 -3 14 6 21 20 8 13 27 28 44 32 21 6 31 14 31 28 0 10
8 20 18 22 9 2 17 12 17 23 0 22 31 26 74 9 21 -8 28 -6 37 9 8 12 20 16 35
13 18 -3 24 0 24 13 0 14 7 16 33 13 28 -3 33 -1 30 13 -3 11 3 19 16 24 12 3
21 13 21 21 0 8 5 14 10 14 6 0 10 9 10 20 0 13 7 20 20 20 11 0 23 7 26 15 3
8 15 17 25 20 11 4 22 19 25 35 4 16 19 41 35 56 19 19 29 38 29 58 l1 31 20
-27 c12 -17 30 -28 44 -28 27 0 50 -24 39 -41 -4 -8 -3 -9 4 -5 8 5 12 0 12
-13 0 -27 18 -36 38 -18 9 8 23 12 30 10 8 -3 10 1 5 12 -5 15 -3 16 16 6 23
-13 45 -6 36 10 -4 5 8 9 24 9 17 0 31 4 31 9 0 19 32 41 61 41 22 0 29 5 29
20 0 11 6 20 14 20 8 0 17 13 21 29 3 16 16 33 30 39 18 8 25 22 30 56 4 24 4
49 0 55 -3 6 1 11 11 11 9 0 22 8 29 17 10 14 16 15 28 5 12 -10 16 -10 21 3
3 8 15 15 26 15 30 0 60 18 60 35 0 14 9 35 32 75 29 52 32 62 21 79 -8 12 -8
32 -1 67 6 27 9 65 7 84 -8 90 -4 119 19 140 16 15 21 28 16 42 -5 18 -3 20
15 15 13 -3 21 0 21 8 0 10 35 24 74 29 5 1 17 25 27 55 10 29 23 59 28 65 6
7 7 23 4 37 -6 21 -4 22 9 11 13 -10 19 -10 33 4 9 9 37 19 63 21 72 6 93 12
91 26 -6 34 39 125 55 110 3 -3 6 7 6 24 0 17 -7 36 -15 43 -8 7 -15 18 -15
25 0 19 -75 48 -109 42 -22 -5 -38 0 -63 18 -18 14 -47 32 -65 40 -17 8 -34
19 -38 25 -4 7 -13 6 -27 -1 -25 -13 -64 -4 -67 16 -4 32 -4 61 0 90 3 26 1
30 -19 30 -12 0 -27 6 -31 14 -5 8 -16 11 -26 8 -9 -4 -13 -11 -10 -17 3 -5
-3 -10 -14 -10 -26 0 -63 -40 -57 -62 6 -25 -4 -22 -39 10 -17 15 -25 23 -18
18 19 -13 28 1 14 18 -7 8 -10 19 -7 24 3 5 -15 22 -39 38 -46 29 -56 44 -30
44 28 0 15 28 -15 35 -32 7 -39 22 -15 31 11 5 12 10 4 26 -8 14 -8 23 0 31
19 19 12 25 -44 32 -55 6 -55 7 -55 41 0 28 -4 34 -17 32 -10 -2 -17 3 -16 10
2 6 -4 12 -12 12 -8 0 -15 5 -15 10 0 6 15 10 34 10 24 0 39 7 49 20 8 11 20
18 28 16 17 -7 64 34 74 63 3 11 11 21 17 21 5 0 7 7 4 16 -4 9 -1 30 6 45 10
23 19 29 45 29 34 0 59 19 73 55 12 31 99 47 167 30 28 -6 32 -5 35 16 2 13 9
23 16 22 6 -2 12 6 12 18 0 11 10 29 22 39 19 15 21 21 11 41 -6 13 -14 46
-17 74 -5 38 -4 47 6 37 20 -20 36 -14 31 12 -3 16 0 24 9 23 43 -2 58 4 58
23 0 15 7 20 24 20 15 0 27 7 31 19 6 21 55 36 55 17 0 -7 16 -12 35 -13 20
-1 41 -6 48 -12 14 -11 128 -31 140 -24 4 2 7 -1 7 -7 0 -20 23 -5 40 26 14
24 24 29 56 31 21 1 56 -3 76 -9 32 -9 41 -9 56 5 10 10 23 17 28 17 25 1 36
18 25 39 -10 17 -9 26 4 43 8 13 15 33 15 46 0 21 3 23 29 17 17 -3 50 -8 75
-10 38 -3 46 0 51 16 5 14 16 19 40 19 19 0 37 5 40 11 4 6 14 8 22 5 9 -4 25
4 40 20 15 16 31 24 43 21 17 -4 28 7 35 38 19 80 27 95 49 95 32 0 51 61 31
100 -10 20 -11 30 -3 38 8 8 8 23 -3 54 -15 47 -14 65 6 88 15 17 9 80 -8 80
-6 0 -8 3 -4 6 3 4 -1 20 -9 36 -14 27 -14 32 1 48 9 10 12 21 7 24 -6 3 -15
19 -20 35 -8 24 -7 37 9 67 10 21 19 44 19 50 0 6 15 15 33 18 60 11 72 13 90
15 10 0 16 5 12 10 -3 5 -1 12 5 16 5 3 10 15 10 25 0 10 9 22 20 25 11 3 20
13 20 20 0 8 6 18 14 22 7 4 13 19 12 32 -1 20 4 23 39 27 23 2 45 11 53 21
30 43 43 53 67 53 18 0 25 5 25 20 0 11 6 20 13 20 6 0 21 21 32 46 11 25 27
51 35 58 17 13 38 52 42 81 2 13 12 21 29 23 24 3 28 9 38 62 6 32 20 69 31
82 35 45 53 105 46 152 -4 25 -3 47 3 50 5 3 7 14 4 25 -3 10 3 34 12 52 14
27 16 48 12 112 -4 44 -11 85 -16 91 -5 6 -11 25 -12 41 -2 17 -8 33 -13 37
-5 3 -10 21 -10 40 -1 33 -9 40 -33 31 -9 -4 -10 -10 -3 -24 8 -15 7 -17 -5
-13 -8 4 -23 0 -32 -7 -9 -8 -19 -13 -22 -12 -3 2 -7 -23 -7 -55 -1 -31 -7
-76 -13 -99 -10 -36 -16 -43 -37 -43 -21 0 -24 -4 -19 -20 10 -30 -4 -60 -26
-60 -16 0 -19 -4 -14 -22 4 -13 13 -33 21 -44 15 -25 7 -39 -13 -23 -10 9 -13
7 -13 -9 0 -28 -30 -61 -60 -65 -38 -5 -70 -29 -70 -54 0 -13 -9 -32 -20 -43
-11 -11 -20 -28 -20 -38 0 -11 -11 -24 -25 -30 -14 -6 -25 -16 -25 -22 0 -15
-21 -12 -44 8 -20 16 -20 16 -7 0 12 -16 11 -18 -6 -18 -11 0 -23 -3 -27 -7
-4 -5 -11 -8 -14 -9 -4 0 -15 -4 -24 -8 -10 -5 -26 -2 -39 8 -17 11 -26 13
-36 5 -9 -8 -19 -7 -37 4 -17 12 -26 13 -34 5 -8 -8 -18 -8 -37 0 -34 16 -60
15 -98 -2 -68 -30 -126 -48 -136 -41 -6 3 -11 2 -11 -3 0 -5 -13 -15 -29 -21
-25 -11 -28 -17 -25 -52 2 -37 1 -39 -27 -39 -16 0 -29 -5 -29 -11 0 -6 -8 -8
-18 -5 -14 5 -18 1 -18 -15 1 -27 -59 -49 -125 -44 -54 4 -72 12 -64 25 3 5
-8 16 -25 25 -30 16 -31 15 -57 -16 -23 -27 -28 -29 -38 -16 -9 13 -15 13 -46
-2 -19 -10 -40 -16 -47 -13 -7 2 -12 -3 -12 -11 0 -10 -8 -13 -26 -9 -23 4
-25 8 -19 40 8 42 28 65 43 50 17 -17 34 0 22 22 -15 27 -12 32 9 21 21 -12
31 2 31 46 0 14 11 38 25 55 14 16 25 39 25 50 0 12 -3 18 -7 15 -11 -12 -43
25 -43 50 0 14 4 21 10 18 6 -3 10 3 10 15 0 11 8 23 18 27 23 8 52 44 52 65
0 10 11 20 25 24 14 3 25 12 25 20 0 8 9 22 20 31 23 20 26 51 6 67 -8 6 -17
21 -21 33 -5 18 -3 22 9 17 19 -7 32 19 19 38 -12 18 -10 109 1 97 6 -5 19 -9
29 -9 18 0 18 2 4 23 -8 12 -22 21 -30 21 -9 -1 -18 5 -22 14 -6 15 1 15 133
-3 13 -2 35 3 50 10 15 8 35 16 45 19 27 8 20 40 -22 96 -22 29 -42 67 -45 85
-4 18 -15 40 -26 50 -15 13 -20 31 -20 67 0 49 -28 119 -53 135 -26 16 -47 56
-41 80 4 14 2 23 -5 23 -6 0 -11 7 -11 15 0 8 -6 15 -12 15 -7 0 -22 7 -32 15
-18 13 -18 16 -4 28 28 22 41 71 29 112 -7 25 -7 44 0 56 6 13 6 25 -1 38 -13
26 -3 50 27 62 23 8 24 13 17 47 -4 20 -9 51 -9 67 -5 84 -17 116 -49 135 -40
24 -56 38 -56 50 0 6 5 10 11 10 18 0 41 30 35 45 -7 20 41 103 65 110 10 4
19 15 19 26 0 14 7 19 25 19 14 0 25 2 25 4 0 3 -14 34 -31 71 -17 36 -31 79
-31 96 -1 16 -5 29 -10 29 -5 0 -8 6 -7 13 2 6 -4 32 -11 55 -13 40 -46 69
-72 64 -17 -4 -7 18 13 29 17 9 19 13 8 20 -8 5 -22 6 -31 3 -14 -4 -15 0 -8
28 4 18 10 56 13 85 6 50 5 52 -28 72 -19 11 -43 38 -55 60 -18 37 -24 40 -47
35 -19 -5 -24 -4 -19 5 5 7 1 20 -7 29 -30 36 -26 109 6 97 8 -4 12 7 12 33 0
32 -7 45 -41 78 -23 22 -46 38 -53 36 -6 -2 -11 1 -11 6 0 6 -9 14 -21 17 -11
4 -24 18 -29 31 -10 26 -54 48 -77 40 -10 -4 -12 -16 -7 -41 5 -28 3 -35 -9
-35 -9 0 -19 5 -22 10 -4 6 -15 8 -25 5 -10 -3 -25 1 -34 10 -15 15 -17 15
-23 -2 -11 -30 -48 -70 -61 -65 -7 2 -12 0 -12 -5 0 -5 -8 -10 -17 -10 -65 1
-94 -4 -87 -14 3 -6 1 -15 -5 -19 -20 -12 -61 1 -73 23 -16 31 -50 56 -76 57
-13 0 -21 4 -17 9 9 15 -63 81 -80 75 -9 -4 -15 0 -15 10 0 13 -30 38 -50 41
-31 5 -51 21 -60 49 -9 28 -24 40 -95 76 -64 31 -87 48 -91 66 -7 27 -27 30
-71 13 -15 -7 -44 -11 -64 -10 -28 1 -43 -5 -65 -27 -38 -37 -78 -47 -107 -27
-40 28 -91 37 -123 20 -39 -20 -40 -20 -80 20 -30 31 -41 35 -84 35 -43 0 -56
5 -87 34 -55 48 -75 57 -96 41z m-1277 -2445 c0 -5 -2 -10 -4 -10 -3 0 -8 5
-11 10 -3 6 -1 10 4 10 6 0 11 -4 11 -10z m2964 -915 c3 -9 0 -15 -9 -15 -8 0
-15 7 -15 15 0 8 4 15 9 15 5 0 11 -7 15 -15z m1241 -55 c3 -5 1 -10 -4 -10
-6 0 -11 5 -11 10 0 6 2 10 4 10 3 0 8 -4 11 -10z m-1312 -95 c-5 -13 -23 -22
-23 -11 0 15 14 35 21 31 4 -3 6 -12 2 -20z m179 -187 c-7 -7 -12 -8 -12 -2 0
14 12 26 19 19 2 -3 -1 -11 -7 -17z m-66 -17 c-4 -5 -1 -11 5 -13 8 -3 7 -7
-3 -15 -10 -9 -16 -6 -25 13 -10 21 -9 24 9 24 10 0 17 -4 14 -9z m-11 -1211
c3 -5 2 -10 -4 -10 -5 0 -13 5 -16 10 -3 6 -2 10 4 10 5 0 13 -4 16 -10z m65
-41 c0 -6 -4 -7 -10 -4 -5 3 -10 11 -10 16 0 6 5 7 10 4 6 -3 10 -11 10 -16z
m-992 -596 c3 -44 0 -53 -18 -63 -12 -6 -23 -10 -25 -8 -7 8 -17 52 -10 46 5
-5 14 1 22 11 10 14 10 26 3 46 -9 23 -8 26 7 23 14 -2 19 -15 21 -55z m352
-357 c0 -3 -4 -8 -10 -11 -5 -3 -10 -1 -10 4 0 6 5 11 10 11 6 0 10 -2 10 -4z
m34 -102 c8 -18 12 -35 8 -39 -4 -4 -7 -12 -7 -18 0 -7 -16 -12 -39 -12 -30 0
-40 4 -42 18 -1 10 -9 26 -17 35 -13 14 -13 20 -3 35 7 9 18 17 25 17 6 0 11
7 11 15 0 24 45 -12 64 -51z m126 -114 c0 -5 -7 -7 -15 -4 -8 4 -12 10 -9 15
6 11 24 2 24 -11z m-60 -15 c0 -8 -4 -15 -10 -15 -5 0 -10 7 -10 15 0 8 5 15
10 15 6 0 10 -7 10 -15z m-2444 -1449 c-10 -16 -22 -23 -31 -20 -12 5 -13 10
-4 20 6 8 8 14 3 15 -5 1 2 4 16 8 33 10 36 6 16 -23z m-97 -421 l0 -20 -9 20
c-5 11 -9 29 -9 40 l0 20 9 -20 c5 -11 9 -29 9 -40z m613 48 c-15 -3 -22 -10
-18 -19 5 -14 -15 -20 -27 -7 -12 12 15 33 42 32 24 -2 25 -2 3 -6z m-95 -35
c15 -17 14 -18 -18 -12 -19 4 -31 3 -27 -1 4 -5 3 -14 -3 -21 -7 -8 -7 -14 1
-19 18 -11 11 -28 -10 -22 -13 3 -20 0 -20 -9 0 -8 -9 -14 -20 -14 -23 0 -24
3 -7 30 10 17 9 22 -3 30 -13 8 -10 14 14 35 33 28 69 29 93 3z m-297 -164 c0
-8 -4 -14 -9 -14 -12 0 -32 26 -25 33 10 9 34 -4 34 -19z"/>
<path d="M9633 14163 c-7 -2 -13 -11 -13 -19 0 -9 -5 -12 -12 -8 -6 4 -8 3 -5
-3 11 -18 57 -3 57 18 0 19 -5 21 -27 12z"/>
<path d="M9562 14059 c-15 -23 -4 -43 16 -30 8 5 10 15 5 29 l-8 22 -13 -21z"/>
<path d="M9510 14012 c0 -12 3 -12 15 -2 8 7 15 13 15 15 0 1 -7 2 -15 2 -8 0
-15 -7 -15 -15z"/>
<path d="M9505 13980 c-3 -5 -1 -10 4 -10 6 0 11 5 11 10 0 6 -2 10 -4 10 -3
0 -8 -4 -11 -10z"/>
<path d="M11649 13838 c-7 -33 -7 -48 1 -48 6 0 10 7 10 15 0 9 6 12 16 8 12
-4 15 -2 12 8 -4 12 -37 27 -39 17z"/>
<path d="M8366 12115 c-4 -10 1 -15 16 -15 17 0 18 2 8 15 -7 8 -14 15 -15 15
-2 0 -5 -7 -9 -15z"/>
<path d="M13240 11676 c0 -9 5 -16 10 -16 6 0 10 4 10 9 0 6 -4 13 -10 16 -5
3 -10 -1 -10 -9z"/>
<path d="M11960 10660 c-13 -8 -12 -10 3 -10 9 0 17 5 17 10 0 12 -1 12 -20 0z"/>
<path d="M5464 9812 c5 -14 -5 -28 -37 -55 -25 -20 -47 -34 -49 -31 -3 2 -3
-6 -1 -20 4 -22 9 -23 46 -19 60 7 133 31 148 49 11 13 10 15 -2 12 -13 -3
-22 3 -84 58 -23 21 -26 22 -21 6z"/>
<path d="M6017 9050 c-3 -13 0 -20 9 -20 15 0 19 26 5 34 -5 3 -11 -3 -14 -14z"/>
<path d="M6080 9024 c0 -10 -5 -14 -15 -10 -13 4 -14 2 -5 -14 6 -11 16 -20
21 -20 6 0 9 -7 6 -15 -4 -8 -2 -17 3 -20 5 -3 6 -22 3 -42 -4 -24 -3 -34 5
-30 14 10 42 -2 42 -18 0 -7 3 -15 8 -17 12 -5 62 -69 62 -79 0 -5 -7 -9 -15
-9 -20 0 -18 -20 5 -50 11 -14 20 -31 20 -38 0 -14 18 -48 39 -74 8 -10 10
-18 5 -18 -5 0 -3 -4 4 -9 7 -4 24 -6 38 -3 28 5 33 42 9 62 -12 10 -45 65
-45 76 0 1 9 0 20 -3 16 -4 20 0 20 21 0 19 5 26 19 26 12 0 25 13 35 35 10
20 26 41 37 48 23 14 24 21 4 51 -15 23 -18 23 -46 9 -40 -20 -76 -3 -111 53
-22 35 -33 44 -56 44 -32 0 -53 16 -45 36 3 10 0 12 -10 8 -9 -3 -25 -1 -36 6
-17 9 -21 8 -21 -6z"/>
<path d="M6325 8660 c3 -5 8 -10 11 -10 2 0 4 5 4 10 0 6 -5 10 -11 10 -5 0
-7 -4 -4 -10z"/>
<path d="M6341 8630 c-1 -21 16 -46 26 -37 4 5 3 11 -3 15 -6 4 -14 14 -17 22
-5 13 -5 13 -6 0z"/>
<path d="M6790 8541 c0 -5 9 -11 20 -14 24 -6 27 8 4 17 -21 8 -24 8 -24 -3z"/>
<path d="M10952 8513 c2 -10 14 -20 28 -22 25 -3 25 -3 6 18 -23 26 -39 27
-34 4z"/>
<path d="M6395 8350 c-3 -6 0 -13 9 -16 9 -3 12 -13 9 -22 -4 -12 -1 -12 10 3
11 14 12 24 5 32 -13 16 -25 17 -33 3z"/>
<path d="M6520 8324 c0 -16 34 -44 53 -44 20 0 21 9 3 32 -10 14 -15 15 -25 5
-9 -9 -14 -9 -21 3 -5 8 -10 10 -10 4z"/>
<path d="M6760 8221 c0 -4 11 -6 25 -3 14 2 25 6 25 8 0 2 -11 4 -25 4 -14 0
-25 -4 -25 -9z"/>
<path d="M8870 5986 c0 -2 8 -10 18 -17 15 -13 16 -12 3 4 -13 16 -21 21 -21
13z"/>
<path d="M8840 5966 c0 -2 7 -9 15 -16 9 -7 15 -8 15 -2 0 5 -7 12 -15 16 -8
3 -15 4 -15 2z"/>
</g>
</svg>
