<?xml version="1.0" standalone="no"?>
<!DOCTYPE svg PUBLIC "-//W3C//DTD SVG 20010904//EN"
 "http://www.w3.org/TR/2001/REC-SVG-20010904/DTD/svg10.dtd">
<svg version="1.0" xmlns="http://www.w3.org/2000/svg"
 width="800.808045pt" height="915.689325pt" viewBox="0 0 800.808045 915.689325"
 preserveAspectRatio="xMidYMid meet">
<metadata>
Created by potrace 1.15, written by Peter Selinger 2001-2017
</metadata>
<g transform="translate(-599.683686,1508.827323) scale(0.100000,-0.100000)"
fill="#222222" stroke="none">
<path d="M10593 15076 c10 -24 -17 -31 -46 -11 -24 16 -25 15 -20 -3 3 -11 13
-22 24 -25 11 -3 22 -17 25 -35 6 -30 46 -58 65 -47 5 4 9 1 9 -5 0 -6 10 -24
22 -40 l22 -30 -22 -23 c-12 -13 -22 -32 -22 -43 1 -23 24 -56 33 -47 4 3 7
-3 7 -15 0 -12 -4 -22 -10 -22 -5 0 -10 -8 -10 -17 0 -35 -24 -83 -42 -83 -23
0 -23 -5 4 -40 16 -23 25 -27 35 -19 7 7 27 9 48 5 42 -8 112 10 142 37 16 14
29 17 51 12 22 -4 31 -2 35 9 4 9 16 16 27 16 11 0 20 7 20 15 0 10 10 15 28
15 17 0 38 10 52 25 13 14 29 25 37 25 7 0 13 7 13 15 0 8 9 15 19 15 15 0 20
9 23 45 2 25 0 45 -4 45 -4 0 -17 18 -28 40 -11 22 -25 40 -30 40 -16 0 -90
-42 -90 -51 0 -5 -6 -9 -14 -9 -8 0 -28 -13 -46 -30 -18 -16 -35 -30 -39 -30
-4 0 -15 13 -24 29 -10 17 -26 33 -37 36 -12 4 -24 21 -30 45 -8 30 -18 41
-48 53 -20 9 -31 16 -24 16 20 1 14 21 -10 31 -13 6 -39 20 -58 31 -19 12 -42
23 -52 24 -10 2 -23 7 -30 11 -8 5 -9 2 -5 -10z"/>
<path d="M11810 15058 c0 -22 -36 -42 -78 -44 -26 -1 -36 4 -44 22 -14 29 -20
30 -43 4 -11 -12 -22 -17 -29 -12 -17 13 -107 2 -113 -14 -3 -8 -11 -14 -18
-14 -7 0 -16 -11 -19 -25 -4 -14 -13 -25 -21 -25 -8 0 -15 -7 -15 -15 0 -8 -9
-15 -20 -15 -15 0 -20 -7 -20 -25 0 -14 -4 -25 -10 -25 -5 0 -6 -8 -3 -17 7
-17 5 -17 -18 -2 -24 16 -26 16 -59 -23 -31 -35 -39 -39 -68 -34 -18 3 -40 2
-47 -1 -13 -4 -13 -8 0 -26 10 -14 11 -25 4 -39 -11 -21 2 -75 28 -115 8 -12
11 -28 7 -34 -4 -7 -7 -27 -6 -46 1 -23 -3 -33 -13 -33 -8 0 -18 -12 -21 -27
-4 -16 -18 -39 -31 -52 -13 -13 -23 -36 -23 -52 0 -15 -6 -29 -12 -32 -9 -3
-7 -7 6 -12 10 -5 26 -4 35 2 12 7 20 5 33 -13 27 -34 24 -57 -8 -51 -18 3
-24 1 -20 -9 3 -8 1 -14 -4 -14 -4 0 -11 -13 -15 -30 -4 -17 -13 -30 -21 -30
-8 0 -17 -6 -20 -14 -3 -8 -12 -12 -20 -9 -8 3 -14 -1 -14 -11 0 -10 -9 -16
-25 -16 -16 0 -25 -6 -25 -15 0 -18 -5 -18 -30 -5 -14 7 -23 6 -34 -6 -20 -20
-20 -33 1 -56 9 -10 11 -18 6 -18 -6 0 -16 7 -23 15 -7 9 -18 14 -24 12 -6 -2
-24 2 -39 10 -22 11 -32 12 -43 2 -12 -9 -17 -9 -27 4 -18 24 -62 26 -62 4 0
-21 -30 -41 -45 -32 -17 10 -52 -6 -46 -21 5 -13 -7 -18 -42 -17 -9 1 -11 -7
-7 -27 4 -16 2 -31 -5 -35 -7 -4 4 -21 29 -46 41 -38 50 -62 31 -74 -7 -4 -7
-13 0 -26 7 -12 7 -26 2 -36 -10 -19 -10 -36 2 -95 6 -28 15 -39 38 -49 23 -9
28 -17 24 -34 -4 -16 3 -31 24 -54 17 -17 30 -42 30 -55 0 -13 7 -29 16 -37 9
-7 13 -21 10 -33 -3 -11 4 -47 16 -79 18 -49 19 -61 8 -81 -6 -13 -9 -33 -6
-44 4 -11 9 -30 11 -42 2 -12 9 -27 14 -34 6 -6 14 -31 19 -54 8 -34 7 -42 -4
-42 -8 0 -14 -7 -14 -15 0 -8 -4 -15 -10 -15 -5 0 -10 -7 -10 -15 0 -8 -5 -15
-11 -15 -7 0 -9 -11 -6 -28 4 -20 0 -33 -18 -50 -12 -12 -28 -22 -34 -22 -6 0
-11 -5 -11 -11 0 -6 -13 -8 -30 -5 -37 5 -38 -7 -5 -36 27 -24 32 -47 13 -66
-10 -10 -10 -17 0 -32 19 -31 15 -37 -24 -35 -19 0 -40 -5 -46 -12 -6 -7 -16
-13 -22 -13 -6 0 -19 -18 -29 -40 -10 -22 -25 -40 -32 -40 -8 0 -16 -9 -20
-19 -11 -35 -54 -40 -113 -14 -87 38 -217 25 -199 -20 7 -20 -12 -37 -40 -37
-20 0 -22 -3 -14 -18 13 -24 -6 -112 -24 -112 -9 0 -12 -6 -9 -15 4 -9 0 -15
-9 -15 -25 0 -75 -33 -81 -52 -2 -11 -14 -18 -28 -18 -12 0 -32 -7 -42 -15
-19 -14 -18 -15 12 -26 18 -6 32 -15 32 -19 0 -5 9 -10 20 -12 28 -4 10 -30
-24 -31 -14 -1 -26 -8 -26 -14 0 -7 -6 -13 -14 -13 -8 0 -16 -7 -18 -15 -3
-12 -9 -11 -44 4 -39 18 -41 18 -64 -1 -13 -10 -30 -16 -37 -14 -8 3 -12 2 -9
-3 3 -5 -5 -11 -17 -15 -13 -3 -40 -17 -60 -30 -30 -21 -42 -24 -62 -16 -18 7
-25 6 -25 -2 0 -6 -7 -20 -17 -30 -15 -17 -17 -17 -35 -2 -16 15 -18 15 -18 2
0 -22 -67 -87 -96 -94 -13 -3 -26 -15 -29 -25 -6 -16 -16 -19 -81 -19 -56 0
-74 -3 -74 -14 0 -21 -54 -40 -78 -27 -13 7 -29 8 -44 2 -16 -6 -30 -4 -45 6
-21 14 -23 13 -33 -12 -5 -14 -10 -30 -10 -35 0 -5 -5 -10 -11 -12 -9 -3 -9
-9 0 -25 14 -27 8 -31 -56 -30 -29 0 -59 -5 -66 -11 -16 -13 -59 -4 -70 15 -4
7 -18 13 -30 13 -13 0 -30 9 -40 20 -13 15 -22 18 -40 11 -12 -5 -52 -8 -89
-7 -65 3 -104 20 -138 60 -7 9 -16 13 -21 10 -5 -2 -28 1 -51 8 -60 17 -105
19 -160 6 -40 -10 -53 -9 -83 5 -43 21 -45 21 -45 3 0 -9 -12 -14 -36 -14 -19
0 -38 -3 -41 -6 -4 -3 -15 2 -25 11 -20 18 -32 22 -83 28 -36 4 -115 42 -132
65 -14 17 -13 19 -16 -48 -1 -22 5 -39 17 -50 11 -9 16 -11 12 -5 -6 10 -1 11
21 3 15 -6 34 -13 42 -15 11 -4 11 -8 0 -22 -12 -15 -11 -16 9 -11 18 5 22 2
22 -18 0 -13 5 -25 10 -25 6 -1 14 -2 19 -3 16 -2 60 -55 50 -61 -5 -4 -9 -15
-9 -26 0 -10 -4 -19 -8 -19 -8 0 -10 -13 -13 -91 -1 -35 -11 -69 -34 -112 -33
-63 -44 -117 -30 -150 8 -18 -18 -67 -35 -67 -5 0 -6 -7 -3 -17 4 -10 2 -14
-4 -10 -8 5 -8 -5 -1 -34 9 -35 8 -43 -11 -63 -11 -12 -21 -27 -21 -33 0 -6
-7 -16 -16 -24 -9 -7 -13 -21 -10 -34 6 -25 -34 -92 -52 -88 -24 6 -11 -8 21
-22 20 -8 36 -10 43 -4 7 6 21 6 37 0 14 -5 34 -7 45 -4 11 2 29 0 40 -6 16
-8 24 -6 44 12 13 13 31 36 38 53 12 27 52 54 86 60 6 1 25 -20 43 -47 17 -27
37 -49 44 -49 7 0 32 -14 55 -31 24 -17 46 -29 49 -26 3 4 14 2 25 -4 11 -6
50 -15 86 -20 36 -5 73 -15 81 -23 9 -7 24 -16 34 -19 10 -4 17 -12 15 -19 -6
-27 18 -21 37 9 24 38 54 45 48 11 -6 -33 21 -104 39 -100 8 1 22 -13 31 -33
15 -31 15 -39 2 -76 -8 -23 -15 -50 -15 -60 0 -11 -7 -19 -15 -19 -8 0 -15 -7
-15 -15 0 -8 -9 -15 -20 -15 -16 0 -20 -7 -20 -30 0 -19 -7 -34 -20 -42 -11
-7 -20 -19 -20 -26 0 -9 -5 -10 -18 -3 -12 6 -23 5 -35 -4 -27 -19 -124 -17
-132 3 -5 13 -10 11 -30 -10 -13 -14 -28 -28 -32 -29 -12 -6 -53 -91 -53 -111
0 -10 -9 -22 -20 -28 -13 -7 -20 -21 -20 -40 0 -17 -5 -30 -11 -30 -5 0 -7 -5
-4 -10 5 -8 11 -8 20 0 9 7 16 6 25 -5 7 -8 16 -13 20 -10 5 3 11 1 14 -4 3
-5 -1 -11 -9 -15 -11 -4 -15 -22 -15 -70 0 -59 -2 -65 -22 -68 -19 -2 -24 -11
-30 -52 -4 -26 -3 -58 0 -70 4 -11 6 -48 5 -81 -7 -138 -5 -134 -61 -190 -13
-13 -22 -30 -20 -37 3 -7 -6 -28 -19 -47 -26 -38 -29 -61 -11 -79 7 -7 15 -47
19 -88 6 -71 8 -78 42 -109 42 -38 43 -42 22 -72 -13 -19 -13 -22 1 -27 14 -5
15 -17 9 -74 -4 -37 -11 -72 -16 -78 -5 -6 -6 -14 -2 -18 4 -4 -2 -15 -15 -24
-22 -17 -22 -18 -6 -91 8 -41 17 -78 20 -83 3 -4 1 -8 -4 -8 -5 0 -10 -24 -10
-52 -1 -40 -6 -57 -22 -70 -11 -9 -20 -23 -20 -31 0 -26 -12 -47 -26 -47 -8 0
-17 -7 -20 -15 -9 -21 -21 -19 -46 10 -12 14 -37 28 -57 31 -20 4 -47 15 -60
25 -14 11 -40 19 -62 19 -33 0 -39 -3 -39 -21 0 -15 -5 -20 -22 -17 -19 2 -22
8 -20 31 2 16 -2 35 -9 43 -13 16 -13 16 21 31 26 11 25 13 -27 29 -7 2 -15
16 -18 31 -4 15 -11 37 -16 48 -37 76 -64 91 -189 106 -82 10 -147 27 -169 43
-8 6 -22 10 -31 8 -22 -4 -70 52 -71 81 0 12 -3 17 -6 10 -3 -8 -10 -9 -21 -4
-67 34 -71 35 -89 19 -10 -9 -34 -19 -53 -23 -19 -4 -41 -12 -49 -19 -12 -9
-13 -8 -8 7 4 11 3 16 -3 12 -6 -3 -15 -3 -21 1 -8 4 -7 9 2 15 10 6 8 9 -8 9
-12 0 -24 -6 -26 -12 -4 -10 -6 -10 -6 0 -1 6 -7 12 -13 12 -18 0 -19 48 -1
54 8 3 11 11 8 16 -4 7 2 9 19 4 24 -6 26 -3 26 24 0 17 6 32 15 35 10 5 14
20 12 56 -2 50 -3 51 -48 71 -45 19 -63 42 -71 95 -2 13 -12 21 -28 23 -14 2
-29 10 -33 18 -5 8 -28 24 -53 35 -24 12 -44 25 -44 30 0 5 -6 9 -14 9 -22 0
-29 -60 -10 -75 11 -8 13 -14 6 -19 -12 -7 -5 -74 10 -93 5 -7 5 -14 -2 -18
-6 -3 -8 -11 -5 -16 4 -5 -2 -9 -13 -9 -31 0 -101 -72 -118 -123 -8 -25 -22
-51 -30 -58 -8 -6 -14 -16 -14 -22 0 -6 -7 -19 -16 -29 -18 -19 -14 -23 31
-30 12 -2 23 -15 28 -33 5 -17 13 -38 18 -47 5 -10 5 -28 -1 -44 -14 -37 -5
-62 42 -110 29 -30 41 -52 45 -83 5 -37 4 -41 -16 -41 -11 0 -21 -4 -21 -10 0
-5 -7 -10 -15 -10 -8 0 -15 -4 -15 -10 0 -5 -11 -10 -24 -10 -34 0 -119 -38
-111 -50 3 -5 2 -10 -4 -10 -5 0 -13 5 -16 10 -3 6 -17 10 -30 10 -26 0 -91
56 -87 76 3 13 -62 39 -76 30 -20 -12 -3 -89 28 -128 34 -41 31 -60 -11 -73
-14 -5 -18 -12 -14 -26 7 -22 -22 -39 -35 -20 -5 9 -9 8 -14 -5 -6 -16 -10
-14 -32 14 -25 31 -66 43 -79 22 -8 -13 -36 0 -28 14 3 6 2 7 -3 3 -5 -5 -9
-22 -10 -40 -1 -17 -9 -36 -18 -42 -12 -9 -14 -19 -6 -43 9 -33 3 -41 -18 -20
-9 9 -12 9 -12 -3 0 -18 -57 -23 -78 -6 -8 7 -12 5 -12 -7 0 -9 -11 -22 -25
-28 -16 -7 -22 -15 -16 -22 20 -24 60 -104 55 -109 -3 -3 1 -21 10 -40 8 -20
12 -44 10 -55 -3 -10 1 -24 10 -31 8 -7 12 -19 9 -27 -5 -14 0 -28 26 -82 3
-7 34 -26 69 -41 35 -15 77 -41 95 -58 35 -32 67 -48 67 -33 0 6 12 10 27 10
19 0 41 -16 83 -60 31 -33 54 -62 52 -64 -2 -3 4 -16 14 -30 9 -15 14 -29 11
-32 -8 -8 39 -94 59 -109 10 -7 18 -21 19 -32 2 -27 36 -69 62 -77 23 -7 93
-135 93 -170 0 -10 9 -29 20 -44 25 -31 26 -127 2 -141 -11 -6 -12 -12 -2 -30
10 -19 8 -27 -14 -56 -22 -28 -23 -34 -9 -39 8 -4 21 -2 28 4 10 8 18 1 34
-25 11 -20 23 -48 27 -63 3 -15 9 -36 14 -47 4 -11 11 -28 14 -37 5 -18 66
-61 74 -53 3 2 7 30 11 62 6 56 7 58 33 55 20 -2 32 5 53 32 16 21 32 33 41
29 10 -4 12 0 8 10 -3 9 -12 13 -19 11 -7 -3 -16 -1 -19 4 -3 5 4 12 15 15 23
6 17 27 -7 27 -14 0 -19 12 -8 22 9 10 59 -9 56 -21 -1 -6 6 -11 16 -11 20 0
85 67 77 80 -8 13 24 20 49 10 31 -11 69 -2 62 16 -4 10 6 14 37 15 23 1 45 1
50 0 11 -2 8 12 -7 32 -8 10 -12 26 -9 37 3 12 -3 22 -19 30 -32 17 -31 16
-19 39 9 16 6 29 -15 66 -17 31 -22 50 -16 58 5 7 12 29 16 50 4 20 11 37 16
37 12 0 41 60 34 72 -3 5 -7 20 -9 34 -1 14 -7 30 -13 36 -8 8 -7 14 4 23 8 6
18 30 21 54 4 31 11 45 24 48 20 5 24 23 20 81 -3 33 -2 34 29 27 37 -8 90 11
90 32 0 10 6 12 19 8 31 -9 71 4 64 22 -5 13 -2 13 14 5 14 -8 30 -7 59 3 31
10 40 19 42 40 3 23 8 26 27 22 14 -2 22 -1 20 3 -10 16 23 32 43 21 16 -8 22
-7 28 7 4 9 6 20 6 25 -1 4 4 7 10 7 9 0 8 4 -2 10 -21 14 2 13 51 -2 33 -10
44 -8 76 8 44 22 55 34 48 52 -3 8 7 12 30 12 25 0 37 -6 46 -21 16 -30 31 -4
16 28 -5 13 -7 26 -3 30 13 13 41 -14 41 -40 1 -38 9 -43 78 -46 10 -1 17 -9
17 -21 0 -13 5 -17 14 -14 16 6 71 -19 79 -36 3 -6 4 -5 3 2 -2 7 6 28 16 46
14 26 16 37 7 53 -6 11 -8 27 -5 36 4 10 -9 31 -36 58 -33 33 -43 50 -42 74 1
42 5 44 43 25 18 -9 36 -13 40 -8 16 22 81 5 81 -21 0 -8 6 -15 13 -15 16 0
45 19 32 21 -5 0 1 4 15 8 20 5 26 16 32 50 4 24 10 46 13 49 2 3 20 -11 39
-31 33 -35 60 -47 68 -29 4 11 107 52 129 52 11 0 19 -6 19 -14 0 -8 3 -22 7
-32 5 -14 3 -16 -12 -10 -17 6 -18 5 -3 -11 21 -24 29 -51 18 -58 -5 -3 -7
-12 -3 -20 3 -10 -2 -15 -16 -15 -20 0 -20 -2 -7 -22 7 -13 16 -38 20 -56 7
-42 42 -92 64 -93 26 -1 77 -34 77 -50 0 -10 -10 -13 -32 -11 -29 2 -32 0 -29
-20 3 -13 5 -25 5 -28 1 -3 6 2 11 10 7 12 12 12 22 2 6 -6 20 -12 29 -12 26
0 30 -25 12 -81 -15 -47 -15 -52 1 -80 20 -34 13 -117 -11 -126 -12 -5 -13
-22 -8 -93 6 -93 1 -120 -22 -120 -10 0 -12 -6 -8 -19 3 -11 1 -23 -6 -26 -8
-6 -7 -10 2 -16 12 -7 12 -12 1 -29 -8 -14 -9 -26 -3 -38 7 -12 4 -22 -10 -37
-66 -70 -69 -75 -59 -100 6 -17 17 -25 33 -25 26 0 57 -52 57 -97 0 -31 47
-116 60 -108 5 3 14 -3 20 -14 8 -16 6 -23 -9 -33 -18 -13 -18 -14 -1 -36 10
-12 29 -22 44 -22 15 0 31 -8 38 -20 7 -11 18 -20 25 -20 7 0 13 -7 13 -15 0
-14 17 -20 47 -16 7 1 17 -7 22 -18 10 -19 54 -35 96 -36 29 0 30 -33 2 -63
-25 -27 -40 -67 -42 -112 -1 -14 -8 -39 -17 -56 -14 -29 -14 -32 3 -42 11 -7
16 -18 12 -28 -4 -10 1 -17 14 -20 16 -5 20 -13 18 -43 -3 -59 -27 -83 -40
-42 -4 14 -11 18 -23 14 -9 -4 -11 -8 -5 -10 7 -3 9 -11 6 -19 -3 -8 1 -14 11
-14 9 0 16 -5 16 -11 0 -9 21 -10 70 -6 41 3 70 2 70 -4 0 -5 7 -9 15 -9 8 0
15 8 15 19 0 14 6 17 26 13 23 -4 25 -8 20 -34 -5 -26 -4 -28 15 -17 13 6 18
16 15 26 -5 11 -2 13 11 8 10 -4 32 -9 50 -12 26 -4 34 -1 49 23 10 16 22 31
26 34 4 3 9 18 12 34 6 35 23 48 53 41 23 -5 26 1 35 60 4 27 52 43 78 27 12
-7 20 -8 20 -2 0 5 11 10 25 10 19 0 25 5 25 21 0 11 4 17 10 14 5 -3 20 5 33
19 22 23 27 24 55 14 27 -10 34 -9 52 7 20 18 21 18 53 -12 17 -17 42 -36 54
-42 16 -8 23 -22 25 -54 3 -40 5 -42 43 -51 22 -5 54 -15 72 -22 17 -8 36 -14
41 -14 6 0 14 -9 17 -20 7 -23 43 -27 51 -6 5 14 44 12 80 -6 36 -17 68 -6 83
30 12 27 20 32 48 32 18 0 33 -4 33 -8 0 -14 70 -7 80 7 4 8 17 12 29 8 15 -4
27 3 42 21 16 20 28 26 51 23 22 -2 29 1 26 11 -5 13 27 48 44 48 4 0 17 -9
29 -21 23 -23 49 -19 83 12 22 21 34 23 56 9 9 -5 19 -5 27 2 9 7 14 6 19 -6
3 -9 11 -16 16 -16 5 0 17 -9 26 -19 15 -16 25 -18 70 -12 39 6 55 4 63 -6 7
-7 26 -13 44 -13 18 0 39 -7 46 -17 13 -15 14 -13 19 12 4 22 12 31 38 37 20
5 40 5 51 -2 27 -14 68 -13 74 3 3 9 8 9 21 -2 12 -10 22 -11 39 -4 26 12 57
-3 50 -24 -3 -7 -1 -13 4 -13 11 0 53 55 53 70 0 5 6 10 14 10 8 0 16 7 20 15
3 8 16 20 30 26 32 15 39 44 15 65 -22 20 -24 37 -7 64 10 16 8 27 -10 66 -17
34 -20 49 -12 54 9 6 9 13 1 28 -14 26 -14 35 -1 27 6 -3 10 -1 10 4 0 6 -4
11 -9 11 -5 0 -14 14 -20 31 -9 28 -9 30 9 24 16 -5 20 -2 20 19 0 26 23 36
35 16 10 -16 25 -12 25 6 0 11 6 15 19 11 17 -4 18 -2 10 20 -5 14 -6 29 -3
34 3 6 0 17 -7 25 -10 12 -10 17 0 23 9 6 6 16 -13 38 -31 37 -33 46 -7 38 15
-4 20 1 24 27 2 18 0 39 -6 46 -5 7 -10 31 -11 55 -1 37 -4 42 -25 42 -18 0
-26 7 -32 28 -4 16 -13 35 -20 43 -9 11 -8 14 3 14 22 0 31 76 13 109 -11 22
-11 31 1 54 8 15 12 32 9 37 -3 6 1 10 9 10 11 0 16 9 16 30 0 17 5 30 13 30
8 0 8 3 -2 9 -23 14 2 60 39 73 24 8 29 15 25 29 -8 23 8 25 25 4 10 -12 16
-13 24 -5 8 8 8 13 0 18 -6 4 -15 18 -19 30 -6 21 -5 22 12 14 20 -11 63 1 63
18 0 5 14 10 30 10 26 0 30 4 31 28 0 15 3 21 6 15 7 -20 17 -16 36 16 16 27
16 29 -3 46 -26 24 -11 35 47 35 32 0 45 -5 53 -20 6 -12 21 -20 35 -20 16 0
25 -6 25 -15 0 -8 5 -15 10 -15 6 0 10 4 10 9 0 5 15 15 34 21 34 11 34 12 32
61 -3 51 -17 72 -43 62 -8 -3 -15 5 -19 25 -4 17 -13 33 -21 36 -9 4 -12 13
-8 25 3 11 1 22 -5 26 -6 3 -8 10 -5 15 3 5 -1 22 -9 38 -8 16 -13 32 -9 35 3
4 -6 11 -21 17 -15 5 -25 14 -22 19 3 5 -1 11 -9 15 -8 3 -15 1 -15 -5 0 -13
-45 -2 -106 28 -42 20 -51 28 -47 44 5 18 7 19 23 4 19 -17 75 -11 64 7 -9 14
56 77 72 71 8 -3 17 2 20 11 3 9 12 16 20 16 8 0 14 7 14 15 0 8 8 23 18 33
28 29 25 49 -13 72 -19 12 -36 27 -37 33 0 7 -2 26 -3 42 -1 17 -6 38 -10 48
-5 12 -1 25 11 38 14 16 15 22 5 28 -8 5 -12 25 -10 54 3 54 -19 87 -60 87
-45 0 -101 80 -66 94 8 3 15 13 15 21 0 9 5 13 10 10 6 -3 10 4 10 17 0 14 6
33 14 43 8 11 12 25 9 31 -2 7 5 15 16 19 12 3 19 11 16 16 -4 5 1 16 9 25 20
19 12 34 -18 34 -24 0 -106 53 -106 69 0 5 11 12 24 15 27 7 26 27 -4 81 -14
25 -23 30 -54 30 -20 0 -40 6 -45 14 -5 7 -13 11 -18 8 -5 -4 -20 1 -34 11
-13 9 -36 15 -50 14 -15 -2 -30 1 -34 7 -3 6 -16 11 -28 11 -26 0 -77 44 -77
66 0 11 -4 12 -19 4 -27 -14 -47 -13 -63 3 -21 22 -55 37 -80 37 -14 0 -37 13
-53 30 -16 17 -34 30 -41 30 -7 0 -16 9 -19 20 -4 11 -18 34 -32 50 l-25 30
27 0 c16 0 39 -13 61 -34 20 -19 42 -32 49 -30 7 3 15 -5 19 -20 7 -29 22 -32
50 -11 11 8 28 15 39 15 14 0 18 5 14 19 -6 26 27 41 85 38 41 -2 50 2 75 29
25 28 33 31 83 29 30 -1 70 4 89 13 38 15 180 21 219 8 16 -5 22 -3 22 7 0 9
14 17 37 20 31 5 46 1 86 -25 37 -23 53 -29 66 -22 9 5 39 7 66 3 28 -3 52 -2
54 3 2 5 13 21 25 35 19 22 25 24 44 14 14 -8 22 -21 22 -39 1 -25 2 -25 14
-9 16 21 96 25 96 4 0 -7 26 -27 58 -44 32 -18 67 -41 77 -53 10 -11 23 -20
30 -20 7 0 20 -9 30 -20 10 -12 24 -19 31 -16 19 7 44 -27 38 -51 -7 -24 40
-63 78 -63 12 0 36 -7 52 -15 15 -8 32 -12 37 -9 5 3 9 1 9 -5 0 -18 31 -41
56 -41 22 0 29 -10 25 -33 -1 -5 3 -5 9 -2 6 4 9 12 7 18 -2 6 5 20 15 31 18
20 18 20 46 -1 29 -22 40 -57 23 -77 -8 -10 -6 -18 9 -31 11 -10 20 -27 20
-38 0 -15 3 -17 14 -8 7 6 21 9 30 5 9 -4 16 -1 16 6 0 9 4 9 13 2 20 -16 92
0 101 24 3 8 15 14 26 14 11 0 20 6 20 14 0 8 7 17 15 20 12 4 14 10 5 25 -15
29 -13 32 16 21 32 -13 37 -12 29 0 -3 6 -2 10 4 10 5 0 13 -4 16 -10 4 -6 16
-5 33 4 15 7 39 16 53 20 30 6 44 43 33 79 -6 18 -4 20 7 11 8 -7 28 -9 46 -7
23 4 33 12 38 30 5 21 10 24 35 18 33 -7 31 -12 35 90 1 28 -5 66 -13 85 -23
58 -31 90 -22 90 5 0 7 7 3 16 -3 8 -11 13 -19 10 -7 -3 -14 0 -16 6 -2 6 -21
11 -42 10 -21 -1 -48 4 -60 10 -11 7 -27 11 -33 10 -7 -2 -13 6 -13 18 0 11 5
20 11 20 8 0 9 13 5 40 -4 24 -2 47 5 59 10 15 8 27 -9 63 -12 24 -22 51 -22
58 0 8 -12 27 -27 42 -27 29 -26 38 10 50 4 2 10 35 14 73 4 45 12 74 21 81
13 10 14 18 2 58 -11 42 -11 48 5 66 10 11 24 20 32 20 12 0 13 14 8 73 -4 39
-13 77 -19 82 -14 11 -30 46 -27 58 0 4 -4 18 -11 30 -24 43 -35 85 -26 100 6
11 3 17 -12 22 -11 3 -20 11 -20 17 0 6 -10 8 -24 4 -27 -7 -46 11 -26 24 10
6 10 15 1 40 -6 18 -11 50 -11 71 0 29 -4 39 -15 39 -9 0 -27 11 -41 25 -29
29 -40 31 -52 8 -12 -21 -47 -10 -38 13 3 9 2 12 -5 9 -5 -4 -21 1 -35 10
l-25 16 26 30 c14 17 27 40 29 52 13 62 14 85 6 93 -4 5 -4 32 0 59 6 37 4 54
-6 65 -15 17 -47 101 -41 107 2 2 10 -3 17 -12 9 -11 17 -12 32 -4 11 6 25 8
33 6 20 -8 62 43 75 92 6 24 13 75 15 114 2 39 8 73 13 76 6 3 9 30 7 59 l-2
54 31 -6 c25 -4 36 0 60 24 16 17 33 30 38 30 17 0 24 44 16 98 -9 54 -28 80
-115 153 -16 14 -65 0 -59 -17 3 -7 1 -16 -4 -19 -6 -4 -11 -1 -11 4 -1 6 -3
16 -4 21 -1 6 -3 17 -4 25 -1 17 -72 65 -96 65 -22 0 -18 17 6 30 12 7 18 18
15 26 -4 10 4 14 30 14 31 0 36 3 31 20 -3 11 -1 20 4 20 5 0 9 13 9 29 0 16
6 34 14 40 8 6 16 24 18 39 3 15 8 34 12 43 5 11 0 24 -14 37 -12 11 -20 26
-17 34 2 7 -1 22 -6 33 -20 36 -16 78 9 108 23 27 23 30 9 58 -14 27 -14 31 0
45 17 18 21 69 4 59 -6 -4 -17 2 -25 14 -9 12 -20 19 -25 15 -7 -4 -8 9 -4 39
l7 45 -39 5 c-23 3 -47 -1 -60 -9 -19 -12 -24 -12 -37 2 -16 15 -18 22 -20 58
-1 14 -12 22 -36 29 -35 9 -53 24 -44 39 3 4 -2 8 -10 8 -9 0 -16 -7 -16 -15
0 -12 -4 -13 -26 -3 -21 10 -24 17 -19 37 12 51 10 56 -27 74 -20 10 -40 28
-43 40 -17 62 -28 77 -46 72 -12 -4 -19 -1 -19 7 -1 7 -12 27 -25 43 -20 24
-27 27 -34 16 -5 -8 -16 -11 -26 -8 -9 4 -26 0 -39 -8 -21 -14 -25 -14 -36 0
-16 19 -31 19 -24 0 4 -8 2 -15 -4 -15 -5 0 -13 8 -17 18 -6 16 -7 16 -19 0
-18 -25 -35 -22 -46 6 -10 28 -49 44 -60 26 -5 -9 -22 -11 -48 -8 -33 5 -39 3
-35 -8 3 -8 11 -13 17 -11 6 3 21 -4 33 -15 20 -19 23 -19 44 -4 21 14 24 14
37 -5 12 -18 11 -22 -9 -40 -24 -20 -44 -24 -53 -10 -3 5 -21 9 -40 8 -19 0
-33 -5 -30 -9 3 -4 -7 -3 -21 2 -15 6 -30 8 -35 5 -4 -3 -15 6 -24 20 -9 14
-22 25 -30 25 -34 0 -78 119 -57 158 9 17 7 20 -17 26 -15 3 -38 14 -51 24
-20 16 -22 22 -12 40 6 11 20 23 30 27 12 4 18 12 14 20 -3 8 0 29 6 47 8 24
8 38 -1 59 -11 24 -13 26 -24 11 -10 -14 -15 -14 -25 -5 -10 10 -9 16 4 31 9
10 14 22 10 25 -3 4 -2 7 4 7 24 0 -2 62 -43 103 -24 25 -44 49 -44 56 0 16
83 14 106 -4 26 -20 55 -20 47 1 -4 12 0 14 21 8 15 -3 26 -2 26 4 0 6 11 7
27 3 27 -7 51 -55 33 -66 -5 -3 -5 -16 0 -30 5 -14 5 -25 0 -27 -5 -2 -7 -19
-4 -38 5 -27 18 -44 55 -73 27 -21 49 -44 49 -52 0 -7 7 -18 15 -25 8 -7 13
-15 11 -19 -3 -3 16 -15 40 -25 24 -10 44 -22 44 -26 0 -17 50 -17 69 1 16 15
25 17 45 9 21 -8 26 -6 31 11 5 14 1 25 -11 33 -16 12 -16 13 2 11 11 0 26 -5
33 -9 24 -15 3 46 -23 69 -13 11 -29 37 -35 57 -10 29 -18 37 -39 40 -24 3
-27 8 -30 45 -2 33 -11 50 -44 82 -22 23 -44 41 -49 41 -5 0 -6 20 -2 45 5 37
3 45 -10 45 -18 0 -67 45 -67 62 0 5 -11 23 -24 39 -13 15 -26 34 -28 40 -2 7
-21 13 -41 14 -21 1 -45 9 -55 17 -24 21 -80 49 -95 47 -42 -5 -69 2 -74 21
-4 15 -14 20 -37 20 -23 0 -40 10 -69 40 -20 22 -46 40 -56 40 -11 0 -22 8
-25 18 -5 14 -66 63 -115 92 -8 5 -15 26 -17 48 -2 58 -22 81 -64 77 -19 -2
-45 -7 -57 -10 -16 -5 -25 -3 -29 9 -3 9 -13 16 -21 16 -8 0 -12 4 -8 10 3 5
-6 32 -20 60 -15 29 -21 50 -14 50 8 0 8 4 -1 15 -6 8 -9 19 -6 24 4 5 2 12
-3 16 -13 7 -10 48 3 57 6 4 -9 6 -32 5 -29 -1 -46 4 -52 13 -8 13 -10 12 -10
-2z m-1130 -1318 c0 -5 -5 -10 -11 -10 -5 0 -7 5 -4 10 3 6 8 10 11 10 2 0 4
-4 4 -10z m-2685 -1890 c3 -5 1 -10 -4 -10 -6 0 -11 5 -11 10 0 6 2 10 4 10 3
0 8 -4 11 -10z m822 -156 c-3 -3 -12 -4 -19 -1 -8 3 -5 6 6 6 11 1 17 -2 13
-5z m2227 -1934 c25 -13 29 -13 41 3 11 15 17 16 39 6 20 -10 25 -17 20 -33
-9 -31 -14 -33 -29 -13 -10 14 -14 15 -18 4 -7 -20 -68 -27 -84 -11 -14 13
-18 68 -5 62 4 -2 20 -10 36 -18z m-4097 -1228 c17 -11 27 -59 13 -67 -14 -9
-50 23 -50 45 0 27 15 36 37 22z m148 -22 c14 0 25 -4 25 -10 0 -5 -4 -10 -9
-10 -8 0 -24 -37 -22 -52 1 -5 -3 -8 -9 -8 -16 0 -30 36 -30 77 1 31 3 35 11
21 5 -10 21 -18 34 -18z m263 7 l22 -24 -24 -11 c-19 -9 -27 -8 -37 4 -7 9
-16 11 -23 5 -15 -12 -50 -10 -58 3 -14 20 -8 28 16 22 15 -4 28 0 36 9 18 22
43 18 68 -8z m1399 -67 c-1 -12 -7 -19 -16 -18 -22 4 -25 26 -4 31 10 3 19 5
20 6 1 0 1 -8 0 -19z m-1441 -16 c3 8 13 12 25 9 22 -6 26 -23 4 -23 -8 0 -15
-4 -15 -10 0 -22 -45 -9 -57 16 -12 25 -12 25 13 9 21 -13 25 -14 30 -1z
m-306 -53 c0 -5 -7 -11 -14 -14 -10 -4 -13 -1 -9 9 6 15 23 19 23 5z m-95 -61
c-10 -11 -22 -17 -28 -13 -6 4 -3 12 8 20 28 20 41 16 20 -7z m105 -40 c0 -22
-40 -54 -52 -42 -6 6 -6 12 1 16 5 4 8 13 5 21 -3 7 0 24 7 36 11 22 12 22 25
4 8 -10 14 -26 14 -35z m5155 -288 c0 -29 -3 -52 -7 -52 -5 0 -8 10 -8 23 0
13 -5 28 -11 34 -14 14 -2 56 14 50 7 -2 12 -25 12 -55z m-2807 -1712 c10 -17
10 -20 -3 -20 -8 0 -15 2 -15 4 0 2 -3 11 -6 20 -9 23 9 20 24 -4z"/>
<path d="M10527 14576 l-28 -12 23 -12 c13 -7 38 -12 55 -10 30 2 32 4 19 23
-16 25 -33 27 -69 11z"/>
<path d="M13022 13680 c-17 -27 -15 -67 3 -74 8 -3 15 -14 15 -25 0 -21 34
-46 49 -37 4 3 11 26 15 52 5 37 2 52 -15 75 -24 34 -49 37 -67 9z"/>
<path d="M13226 13453 l-20 -27 27 20 c14 10 27 22 27 27 0 15 -16 6 -34 -20z"/>
<path d="M13645 12710 c-3 -5 -1 -10 4 -10 6 0 11 5 11 10 0 6 -2 10 -4 10 -3
0 -8 -4 -11 -10z"/>
<path d="M6880 12573 c8 -3 22 -11 30 -17 13 -10 13 -9 1 7 -7 9 -21 17 -30
16 -13 0 -14 -1 -1 -6z"/>
<path d="M6940 12545 c-9 -10 -9 -15 -1 -15 6 0 11 -11 11 -25 0 -21 5 -25 29
-25 16 0 34 7 41 15 11 13 9 20 -10 40 -27 28 -52 32 -70 10z"/>
<path d="M7052 12482 c2 -10 14 -17 31 -19 36 -2 34 10 -4 24 -26 10 -30 10
-27 -5z"/>
<path d="M7345 12311 c-7 -13 21 -40 50 -47 14 -3 27 -14 30 -24 3 -10 13 -21
21 -24 8 -3 12 -10 9 -16 -3 -6 2 -13 12 -16 10 -3 25 -9 34 -14 24 -13 28 -3
18 36 -6 18 -9 40 -8 46 3 29 -2 35 -33 35 -56 1 -83 7 -96 20 -16 15 -29 17
-37 4z"/>
<path d="M7542 12254 c10 -10 20 -16 22 -13 3 3 -5 11 -17 18 -21 13 -21 12
-5 -5z"/>
<path d="M7581 12132 c-6 -11 -6 -24 0 -33 14 -22 11 -26 -15 -26 -15 0 -28 8
-34 21 -9 20 -10 19 -16 -12 -4 -18 -12 -30 -17 -26 -5 3 -9 -2 -9 -10 0 -9
-6 -13 -14 -10 -19 7 -31 -33 -16 -51 7 -8 22 -15 34 -15 11 -1 32 -7 46 -15
22 -12 27 -11 42 2 15 13 25 14 62 4 63 -16 74 -14 78 11 2 18 12 24 46 31 44
9 54 32 15 32 -12 0 -24 3 -28 7 -4 4 -13 4 -20 2 -7 -3 -15 2 -18 10 -4 9
-15 16 -26 16 -11 0 -22 8 -26 19 -9 28 -40 61 -58 61 -9 0 -21 -8 -26 -18z"/>
<path d="M7222 11997 c7 -8 20 -12 30 -9 25 6 12 22 -18 22 -20 0 -23 -2 -12
-13z"/>
<path d="M7846 11985 c9 -14 19 -24 21 -21 6 6 -20 46 -30 46 -4 0 0 -11 9
-25z"/>
<path d="M7360 11970 c-13 -8 -12 -10 3 -10 9 0 17 -7 17 -15 0 -24 26 -17 38
10 11 23 10 25 -16 25 -15 0 -34 -5 -42 -10z"/>
<path d="M7836 11915 c4 -8 9 -15 13 -15 4 0 8 7 8 15 0 8 -6 15 -13 15 -8 0
-11 -6 -8 -15z"/>
<path d="M7906 11813 c5 -5 12 -12 16 -18 4 -6 8 -2 8 8 0 9 -7 17 -17 17 -9
0 -12 -3 -7 -7z"/>
<path d="M8340 10295 c7 -9 15 -13 17 -11 7 7 -7 26 -19 26 -6 0 -6 -6 2 -15z"/>
<path d="M6885 9531 c-7 -13 12 -51 25 -51 6 0 10 8 10 19 0 23 -25 46 -35 32z"/>
<path d="M6780 9511 c0 -5 5 -13 10 -16 6 -3 10 -2 10 4 0 5 -4 13 -10 16 -5
3 -10 2 -10 -4z"/>
<path d="M6440 9140 c0 -5 5 -10 11 -10 5 0 7 5 4 10 -3 6 -8 10 -11 10 -2 0
-4 -4 -4 -10z"/>
<path d="M6490 9134 c0 -6 10 -19 22 -30 19 -15 20 -16 9 -1 -9 11 -10 17 -2
17 6 0 11 6 11 14 0 9 -9 14 -20 13 -11 -1 -20 -6 -20 -13z"/>
<path d="M6400 9127 c0 -7 -16 -25 -35 -41 -19 -16 -32 -33 -28 -39 3 -5 -1
-14 -8 -19 -10 -7 -8 -8 8 -3 16 4 26 0 39 -19 9 -14 20 -23 26 -20 11 7 48
-24 48 -41 0 -28 23 -34 54 -12 17 12 35 28 39 35 4 6 21 12 37 12 39 0 39 20
-2 70 -25 32 -34 38 -45 28 -10 -8 -13 -22 -8 -44 4 -23 1 -35 -9 -41 -7 -4
-15 -17 -17 -27 -2 -11 -8 -18 -14 -15 -5 2 -9 8 -7 12 1 5 -2 6 -6 3 -5 -3
-18 4 -28 15 -16 18 -16 19 -1 13 22 -8 23 23 2 46 -14 15 -14 18 0 30 23 19
18 37 -15 54 -21 10 -30 11 -30 3z"/>
<path d="M6416 8809 c-7 -17 -16 -30 -20 -29 -23 5 -27 -9 -5 -18 15 -6 33
-19 41 -29 19 -25 73 -52 87 -44 17 11 -5 62 -29 68 -16 4 -20 14 -20 44 0 33
-3 39 -20 39 -14 0 -25 -11 -34 -31z"/>
<path d="M6340 8780 c0 -5 5 -10 11 -10 5 0 7 5 4 10 -3 6 -8 10 -11 10 -2 0
-4 -4 -4 -10z"/>
<path d="M6525 8655 c0 -14 5 -27 11 -29 13 -5 12 30 -2 44 -5 5 -9 0 -9 -15z"/>
<path d="M6136 8401 c-4 -5 3 -7 14 -4 23 6 26 13 6 13 -8 0 -17 -4 -20 -9z"/>
<path d="M6080 8369 c0 -5 5 -7 10 -4 6 3 10 8 10 11 0 2 -4 4 -10 4 -5 0 -10
-5 -10 -11z"/>
<path d="M6062 7925 c8 -18 14 -22 19 -13 4 7 3 18 -3 25 -18 22 -28 14 -16
-12z"/>
<path d="M8258 7878 c-13 -9 -15 -17 -8 -28 12 -19 34 0 28 24 -2 14 -6 15
-20 4z"/>
<path d="M8246 7815 c-3 -8 3 -19 14 -25 17 -9 20 -7 20 9 0 23 -26 35 -34 16z"/>
<path d="M8303 7798 c-9 -18 -16 -40 -14 -48 4 -21 24 -31 33 -17 6 9 8 9 8 0
0 -7 7 -13 16 -13 10 0 14 6 11 14 -3 8 -1 16 5 18 6 2 8 13 4 26 -4 12 -12
20 -17 17 -5 -4 -9 3 -9 14 0 31 -17 25 -37 -11z"/>
<path d="M9777 6242 c-5 -7 -13 -10 -18 -6 -5 3 -9 2 -8 -3 1 -4 1 -19 0 -32
-1 -17 -5 -22 -17 -17 -11 4 -22 -1 -32 -15 -11 -15 -21 -19 -39 -14 -21 5
-24 3 -19 -11 4 -11 -1 -22 -14 -31 -20 -14 -20 -14 0 -51 l20 -37 -20 -3
c-24 -4 -24 -1 -5 -45 14 -35 54 -65 41 -31 -4 10 1 25 10 35 9 10 14 25 11
34 -7 17 8 21 18 5 3 -5 17 -10 31 -10 14 0 23 4 19 9 -3 6 3 10 12 10 10 1
34 3 54 7 31 5 43 1 83 -30 52 -39 72 -45 62 -19 -6 15 -5 15 11 2 23 -20 53
-13 53 12 0 11 4 18 9 15 8 -6 21 15 21 34 0 17 -32 40 -55 40 -30 0 -55 38
-34 51 8 5 18 9 22 9 5 0 6 4 3 9 -4 5 -18 6 -34 2 -22 -6 -36 -1 -76 28 -48
34 -94 52 -81 31 3 -5 2 -10 -4 -10 -5 0 -11 10 -13 23 -2 15 -5 18 -11 9z"/>
<path d="M9690 6220 c0 -5 4 -10 9 -10 6 0 13 5 16 10 3 6 -1 10 -9 10 -9 0
-16 -4 -16 -10z"/>
<path d="M9290 6150 c0 -5 5 -10 11 -10 5 0 7 5 4 10 -3 6 -8 10 -11 10 -2 0
-4 -4 -4 -10z"/>
<path d="M9555 6150 c3 -5 10 -10 16 -10 5 0 9 5 9 10 0 6 -7 10 -16 10 -8 0
-12 -4 -9 -10z"/>
<path d="M9464 6084 c-19 -17 -25 -28 -16 -31 6 -2 12 -11 12 -18 0 -8 4 -16
9 -20 6 -3 7 9 4 31 -6 34 -4 36 16 29 12 -4 21 -2 21 4 0 6 -5 11 -11 11 -5
0 -7 5 -4 10 10 17 -1 11 -31 -16z"/>
</g>
</svg>
