<svg version="1" xmlns="http://www.w3.org/2000/svg" width="633.804" height="629.55" viewBox="0 0 475.353 472.162"><g fill="#222"><path d="M272.023 1.877c.8 1.3 4.2 3.8 7.3 5.4 4.1 2.2 5.9 3.7 6.1 5.3.2 1.3 1.4 2.7 2.8 3.2 2.7 1.1 3.3 4.7.9 5.6-.8.3-1.7 1.4-2 2.5-.4 1.1-1.1 1.7-1.6 1.4-1.2-.8-1.1 0 .5 4 .8 1.9 1.2 3.5.9 3.5-.3 0 0 .7.7 1.5.9 1.1 1.6 1.3 2.4.5 1.5-1.5 3.6-1.2 3.6.5 0 .9 1.2 2.1 2.8 2.7 6.3 2.7 13.3 9.1 16.3 15 1.6 3.1 2.9 6.3 2.9 6.9 0 1.3 5.2 6.2 11.8 11.1 2.3 1.7 4.2 3.6 4.2 4.1 0 2.1 3.2 3.4 5.6 2.3 1.3-.6 2.4-1.5 2.4-1.9 0-.5.5-.5 1-.2 1.7 1 1.1 3.5-.7 3.5-1.5 0-1.3.4.7 2s2.2 2 .8 2c-1 0-1.8.2-1.8.5 0 1.5 3.1 6.2 5.4 8.4 2.1 2 2.8 2.2 4.1 1.1.8-.7 1.5-2.1 1.5-3.1 0-1.1.5-1.9 1.1-1.9.5 0 .7-.5.4-1-.9-1.5.8-1.2 3.1.4 1.3 1 2.3 1.1 3.1.4 1-.8 1.3-.4 1.3 1.4 0 3.1 1.3 4.7 7.3 8.8 2.6 1.8 4.7 3.7 4.7 4.1 0 .5.6.6 1.4.3.7-.3 1.1-1.5.9-2.7-.3-1.5.7-3.4 3.1-6 3.5-3.6 4.2-5.5 3.7-10.7-.1-1.3.5-2.9 1.4-3.6 1.4-1.1 1.4-1.2 0-1.8-1.9-.7-5.5 1.4-5.5 3.1 0 .7-1.1 1.3-2.5 1.3-1.3 0-2.8.7-3.3 1.6-.5 1-1.4 1.4-2.1.9-.9-.5-.8-1.1.4-2.5 1.4-1.5 1.4-1.9.1-2.9-.8-.7-2-1-2.5-.7-.5.4-1.2.2-1.6-.3-.3-.6-1.2-.8-2-.4-.8.3-1.5.1-1.5-.5 0-.5-1.3-1.5-3-2.2-1.6-.7-3-1.6-3-2.1s-.9-.4-2 .3c-1.6 1-2.8.8-7.1-.9-5-2.2-5.1-2.2-5.6-.3-.6 2.4-1.6 2.5-3.2.6-.7-.8-2.2-1.7-3.5-2-1.9-.5-2.2-1.1-1.8-3.7.3-2 0-3.6-.9-4.3-.8-.6-1.5-2.2-1.6-3.6-.7-8.7-2.3-14.5-4.7-16.7-1.4-1.3-2.8-3.4-3.2-4.8-.3-1.3-1.2-2.6-2-2.9-.8-.3-1.4-1.2-1.4-2 0-.9-1.1-1.8-2.5-2.2-1.3-.3-2.7-1.5-3-2.5-.4-1.1-1.6-1.9-2.9-1.9-2.1 0-6.6-3.7-6.6-5.5 0-2-5.3-7.5-7.2-7.5-1.2 0-2.9-.6-3.7-1.4-.9-.8-4.7-2.3-8.6-3.5-4.3-1.2-7.5-2.8-8.2-4-.7-1.1-2.2-2.5-3.4-3.2-2.1-1.1-2.1-1-.5 1.2zM276.623 46.977c-2.3 1.2-4.7 1.6-7.2 1.3-3.2-.4-3.8-.2-3.8 1.3 0 1 .5 2.3 1.1 2.9.8.8.6 1.3-.9 1.7-1.4.5-1.8 1.3-1.5 2.6.6 2.4.1 2.3 5.4.5 4-1.5 4.5-1.4 5.6.1 2.3 3.1 3.4-1.1 1.8-6.6-.7-2.4-.7-2.4.7-.5.8 1.1 2 3.3 2.6 5 .6 1.6 1.1 2.4 1.1 1.7.1-.6 1-1.2 2.1-1.2 2.3 0 2.6-2.5.9-6.3-1.7-3.8-3.9-4.5-7.9-2.5zM253.123 56.777c-.4.6-1.5.8-2.6.5-1.4-.5-2 0-2.5 2.1-.5 1.8-.3 2.9.4 3.2.7.2 1.2 1.4 1.2 2.6 0 1.5.6 2.2 2 2.2 1.1 0 2-.4 2-.8s1.4-.8 3-.8c2 0 3-.5 3-1.5 0-.8.4-1.5.9-1.5s1.1-1.1 1.3-2.5c.4-2.1.1-2.5-1.9-2.5-1.3 0-3.3-.5-4.3-1-1.3-.7-2.1-.7-2.5 0zM249.623 69.677c0 .6-.7.8-1.5.5-.8-.4-1.5-.1-1.5.5s-.7 1.1-1.5 1.1-1.5.6-1.5 1.3c0 .8-.9 2.2-1.9 3.1-1.1 1-2.3 3.1-2.6 4.6-.5 2.1-1.4 3-3.5 3.5-1.8.4-3 1.4-3.4 2.9-.5 2-1.4 2.4-6.2 3-3 .3-5.9.4-6.4.1-.5-.3-1.1.4-1.5 1.4-.3 1.1-1.4 2.3-2.4 2.6-1.3.4-1.7 1.2-1.3 3 .3 2 0 2.5-1.6 2.5-1.3 0-2.5 1.1-3.4 3-.7 1.6-1.6 3-2 3-.4 0-.3 1.2.2 2.6.8 1.9.6 2.9-.5 4.1-1.4 1.3-1.8 1.3-3.8 0-2.1-1.4-2.4-1.3-3.6.5-.9 1.4-.9 2.4-.2 3.1.6.6.5 1.7-.5 3.3-1.2 1.8-1.3 2.7-.4 4.4.6 1.1 1.5 1.8 2.1 1.4 1.2-.7 3.9 1.4 3.9 3 0 .7-.4.6-.9-.2-.6-1.1-.9-.9-1.3.6s-.1 1.8 1.3 1.5c2-.5 2.6 1.1.9 2.2-.5.3-2.6.5-4.7.5-8.4-.2-11.7.1-12.9 1.1-.8.6-1.3.5-1.8-.6-.6-1.5-3.6-2.1-3.6-.7 0 .5 1.3 2.1 3 3.7 1.6 1.6 2.8 3 2.6 3.3-.3.2.7 1.4 2.1 2.7l2.6 2.2-2.1 3.4c-2.2 3.7-2.1 7.4.4 8.3 1.9.7 1.8 4.5-.3 6.8-1.4 1.6-1.5 2.4-.5 5 .6 1.7.8 3.8.3 4.7-1.4 2.7-.3 12.5 1.6 13.8 1.5 1.2 1.5 1.4-.2 3.3-1.8 1.9-1.8 2 .4 2 1.2 0 2.9.4 3.9.9.9.5 2.9 1.4 4.4 2 1.8.6 3.4 2.5 4.5 5 .9 2.2 2.8 4.5 4 5.2 1.6.9 2.5 2.5 2.9 5.1.5 2.9 1 3.6 1.9 2.8.9-.7 1.6-.6 2.5.5.7.8 1.7 1.2 2.4.8 2-1.3 3.6-1.1 3.6.4 0 2.4-2 5.3-3.7 5.3-1.5 0-1.5.2-.1 1.7 1.5 1.7 1.1 5.4-.5 5.5-.3 0-1.6.2-2.7.5-1.9.5-1.9.7-.5 2.3 1.4 1.5 1.3 1.8-.4 3.4-1.8 1.7-2 1.6-4-.1-1.2-.9-2.1-2.3-2.1-2.9 0-1.9-2.8-2.4-3.4-.7-.3.8-.4 1.9 0 2.4.3.5 0 .9-.5.9-.6 0-1.1-.6-1.1-1.4 0-.7-1-1.6-2.1-1.9-1.4-.4-2-1.1-1.6-2.1.3-.8 0-2-.8-2.6-.8-.6-1.2-1.7-.9-2.3.4-1.3-2.8-6.8-4.2-7-.5-.1-.8-1.3-.7-2.7.2-1.9-.7-3.2-3.8-5.5-3-2.2-3.9-3.5-3.6-5.2.4-2-2-3.8-4.6-3.4-.4.1-1.6-.3-2.6-.9-2.6-1.3-3.8.5-3.5 5.7.1 3.2-.3 4.7-2.2 6.4-1.3 1.2-2.1 2.6-1.8 3 .3.5-.2.9-1 .9-.9 0-1.8 1.2-2.2 2.7-.4 1.6-1.3 3.3-2 3.9-1.2.9-1.1 1.6.7 3.8 1.1 1.4 2.4 2.4 2.9 2.1.4-.2.8.7.8 2.1 0 1.4-.7 2.8-1.4 3.1-.8.3-1.4 1.1-1.4 1.9 0 .7-.7 1.7-1.6 2.2-.9.5-1.6 2.3-1.6 4.3-.1 1.9-1.1 5-2.4 6.9-2.6 3.9-4.5 12.8-2.6 11.6 1.7-1.1 1.5 2.9-.4 6.6-1.2 2.4-2.1 2.9-4 2.5-1.3-.2-3.2.2-4.1.9-2.6 2-6.1 1.7-10-.8-3.5-2.1-3.5-2.1-2.9-.1 1 3.1-2.4 4-4.7 1.2-1.4-1.7-2.5-2.1-5.5-1.6-2.1.2-4.6.1-5.4-.4-1.2-.7-2.5 0-5.1 2.6-3.1 3.1-3.3 3.6-2 5.5 1.2 1.8 1.2 2-.1 2-1.1 0-1.6.9-1.6 2.9 0 2.3-.5 3-2.9 3.4-4.9 1-4.5 3.3 1.5 9.2 3.9 3.9 5.4 6.1 5 7.3-.4 1 .1 2.7.9 3.8.8 1 1.5 2.9 1.5 4.1 0 3.6 1.1 5.3 3.5 5.3 1.2 0 3 .9 4 2s3.5 2.5 5.5 3c2.9.8 4 1.8 5.2 4.7 2.8 6.7 4.1 12.1 3.6 14.7-.3 1.6.2 3.2 1.3 4.5 1.1 1.1 1.9 2.4 1.9 2.9 0 1 4.4 3.2 6.6 3.2.8 0 1.7.8 2 1.7.3 1 1.3 3.5 2.2 5.5 1.4 3.1 2.1 3.6 4 3.1 1.4-.3 3 .1 4.2 1.2 1.8 1.6 2.2 1.7 3.8.3.9-.9 2.7-1.9 3.9-2.2 1.8-.6 2.2-.4 1.7.7-.3 1 .2 1.8 1.6 2.2 1.2.4 2.6 1.9 3.1 3.3l1.1 2.7 1.8-2.2 1.8-2.2 1.1 4.4c1.2 4.8 3.1 5.7 7.2 3.5 1.2-.7 2.5-.7 3.7-.1 2.4 1.3 4.4 0 3.2-1.9-2.1-3.3-.9-4.1 2.2-1.5l3.1 2.7 1.2-2.3c.9-1.6 1.4-1.8 1.7-.8.4 1 1.2.7 3.2-1.4 3.1-3.3 3-2.8 1.1-7.4-1.4-3.2-1.4-3.8 0-5.3 1.8-2 2-3.3.3-2.8-.6.2-2-.4-3.1-1.5-1.6-1.6-1.7-2.1-.6-2.8.8-.5 1.8-.9 2.2-.9.5 0 .7-1.2.5-2.6-.2-1.8.3-3 1.6-3.8 1.1-.6 3-2.1 4.2-3.4 1.1-1.2 2.6-2.2 3.3-2.2.6 0 1.1-.5 1.1-1.1 0-.8 1.3-.9 4-.5 2.6.4 4 .2 4-.5 0-.6.8-.8 2-.4 1.7.5 2 .2 2-2 0-1.7.4-2.5 1.3-2.2.6.2 1.1 1 .9 1.7-.2 1.1 0 1.1 1.1.2 1.1-1 1.7-.9 2.7.3 1.5 1.8 4 2 4 .3 0-.6.3-.8.7-.5.3.4 1.2.2 1.9-.4.8-.6 2.1-.8 3.1-.4 1 .5 2.4.7 3.2.6.8-.2 2.5.3 3.8 1 1.8 1 2.6 1 3.6 0 1.2-1.2 1.4-1.6 1.6-5.1.1-1.4 1-2.2 3.1-2.7 1.7-.3 3.5-1.4 4.1-2.4.5-1.1 1.6-1.9 2.3-1.9.7 0 1.6-1.4 2-3 .4-2.1 1.1-3 2.6-3 1.9 0 2.5-1.4 2.1-4.7-.1-.6 1.2-1.4 2.9-1.8 1.7-.4 2.7-1.1 2.4-1.6-.7-1.3 1.5-4.1 2.7-3.3.5.3.9-.2.9-1 0-1 .9-1.6 2.1-1.6 1.5 0 1.9-.4 1.5-1.6-.4-.9-.1-2.3.5-3 .8-1 .7-1.9-.5-3.6-1.4-2-1.4-2.3.1-4 .9-1 2.7-1.8 4-1.8 1.5 0 2.3-.6 2.3-1.8 0-.9.9-3.2 2-5 1.1-1.8 2-3.9 2-4.6 0-1.8 2-2.5 5.2-1.9 2.3.4 2.7 0 3.9-4.2 1.3-4.3 1.6-4.6 4.1-4.1 4.1.8 7.2-.8 9.6-4.8 1.2-2 3.2-3.8 4.6-4.2 2.2-.5 2.6-1.2 2.6-4.3 0-3.5.2-3.7 4.4-4.9 2.4-.6 5.1-1.8 6-2.7.8-.9 1.8-1.4 2-1.3 1.4.8 4.6-3.5 4.6-6.2 0-2.2.4-2.9 1.8-2.8 4.5.4 5.3-.1 4.6-3-.4-2-.3-2.3.5-1.2.8 1.2 1.4 1 3.3-1.3 3.4-3.9 4.8-3.5 4.8 1.7 0 2.5.5 4.8 1 5.1.6.3 1 1.5 1 2.6 0 1 .5 1.9 1.1 1.9.6 0 .1 1.1-1.2 2.5-1.3 1.3-3 2.5-3.6 2.5-1.7 0-1.6 1.5.1 2.9 1.2 1.1 1.3 1.7.1 4.5-1.6 3.7-.9 7.5 1.9 11.9 1.2 1.7 1.4 2.7.6 3.2-.6.4-.8 1.6-.4 2.8.3 1.2.3 1.9-.1 1.5-.4-.4-1.7.4-2.8 1.8-1.2 1.6-2.5 2.3-3.6 1.9-1.3-.5-1.4-.4-.3.6.6.7 1.2 2.3 1.2 3.6 0 2 .5 2.3 3.5 2.3 1.9 0 3.5.4 3.5.9 0 .6 2.2.3 5-.5s5.5-1.2 6-.9c.6.3 1-.3 1-1.4 0-1.8.3-1.9 3-1 1.6.6 2.7 1.5 2.4 2-.5.8.2 1 4.6 1.4.9 0 2.9 1 4.5 2.2 1.7 1.1 4.9 3 7.2 4.2 4.1 2 9.3 7.6 9.3 9.9 0 .7.4 1.2 1 1.2.5 0 2.1 2.1 3.6 4.7 1.5 2.7 2.9 5 3.1 5.2.4.6 9.9 2.2 13.1 2.3 1.5 0 2.2.6 2.2 1.9 0 1 .6 1.9 1.4 1.9 1.6 0 2.9-4.4 2.1-7.1-.8-2.3 2.1-2.5 7.8-.5 3.7 1.3 3.7 1.3 3.1-.8-.5-1.7-.4-1.9.7-.9 1.3 1.3 9.1 1.8 10.2.7.3-.4-1-2.4-3-4.5-3.1-3.3-4-3.7-6.7-3.2-2.7.6-2.9.5-1.8-.9.9-1.1 1-1.8.2-2.3-.5-.3-1-1.5-1-2.6 0-5.4-7.1-13.9-10.5-12.5-1.9.7-6.8-5.6-6-7.7.4-.8.2-1.8-.4-2.2-.6-.3-1.1-1.2-1.1-2 0-2-4.7-6.8-5.9-6-.6.3-1.1 1.5-1.1 2.6 0 2.5-1.1 2.4-6.8-.5-3.6-1.8-5.9-2.3-9.2-2-3.7.4-5.6-.1-10.4-2.8-3.3-1.8-6.3-4-6.7-4.8-2.4-4.5-5-11.3-4.5-11.8.4-.3-.2-1.5-1.3-2.6-2.4-2.7-3.9-7.2-2-6.1.8.5.3-.3-1-1.8-2.2-2.4-2.2-5.5.1-4.1 1.9 1.2 2.8-2 1-4-1.6-1.8-1.6-1.8.6-1.2 1.4.5 2.7.2 3.7-.8 2-2 1.9-2.9-.9-5.8-1.3-1.4-2.6-4.4-3-6.7-.4-2.8-1.1-4.1-2.2-4.1-.9 0-1.8-.9-2.1-2-.3-1.1-.9-2-1.4-2-.5 0-1.6-1.1-2.5-2.5-2.2-3.4-1.2-9.9 1.5-9 1.5.4 2-.1 2.3-2.6.5-2.9.4-3-.8-1.4-.8 1-1.7 1.6-2 1.2-1.3-1.3-4.4 1.4-4.4 3.8 0 1.8-.5 2.5-2 2.5s-2 .7-2 2.9c0 2.6-.4 3-3.2 3.3-2.8.3-3.3.7-4 4.1-.9 4.4.1 7 4.3 10.7 1.5 1.4 2.9 3.6 3 5 .2 3.8-.2 4.8-1 2-.3-1.4-2-3.2-3.7-4-4-1.9-6.8-6.5-5.4-8.9.6-1.2.5-2.2-.2-2.9-.9-.9-.6-1.7.9-3.4 1.5-1.6 2-3.1 1.6-4.9-.3-1.6.1-3 1.1-3.8.9-.8 1.6-3 1.7-5 .1-7.1 3-12.9 6.6-13.6.5-.1-3.6-12.2-5-14.9-.9-1.6-1.5-5.6-1.6-9.8 0-3.8-.4-7.4-.7-8-.5-.8.3-.9 2.4-.5 3.3.7 5.1-.6 3-2-.9-.5-.3-.9 1.7-1.3 2.2-.4 3-1.1 2.8-2.5-.1-1.1.2-2.2.5-2.5.4-.3 1.2-1.8 1.7-3.4 1.2-3.4 3.7-4.8 3.2-1.8-.2 1.1-.8 2.6-1.4 3.4-1.2 1.4-.2 6.2 2 9.5.4.6.2 1.3-.5 1.5-.8.3-.3 1.4 1.5 3 1.5 1.4 2.7 3 2.7 3.6 0 .6.9 1.6 2 2.2 1.5.8 1.9 1.7 1.5 3.1-.5 1.4-.2 1.9 1.2 1.9 1.1 0 2.4.5 3 1.1 1.4 1.4 9.6 1.9 10.5.6.4-.6.2-1.8-.5-2.5-.9-1.2-.3-1.3 3.7-.7 4.2.7 4.8.5 5.2-1.3.4-1.4 1.1-1.8 2.7-1.4 1.6.4 1.9.2 1.4-1.1-.4-1-.2-1.7.4-1.7.6 0 .7-.5.4-1-.3-.6-.1-1 .5-1s1.3.7 1.6 1.5c.3.8 2.8 2.8 5.6 4.5 3.1 1.9 5.3 4.1 5.9 6 .6 1.6 1.9 3.2 2.8 3.5 1.3.4 1.7 1.3 1.3 3.1-.3 1.6.1 3 .9 3.5 2.3 1.4 3.2 1 2.6-1.1-.6-2.4.5-2.6 2.3-.5.9 1 1.6 1.2 2.5.5.8-.6 1.5-.6 2.3.2.8.8 1.6.8 2.8-.3 1.2-.9 1.5-1 1-.2-.4.8-.1 1.3.8 1.3s1.6.4 1.6.9 2.5.8 5.5.8c6-.1 6.9-1.2 3.5-4.2-1.1-1-2-2.6-1.9-3.4.3-3.9-.2-6.1-1.5-6.1-.8 0-1.6-1-2-2.3-.6-2.5-4.2-5.1-5.6-4.2-.6.4-.7 1.7-.4 3.1.5 1.8.2 2.4-1.1 2.4-1.2 0-1.5.5-1.1 1.7.6 1.6.6 1.6-1.2 0-1-.9-2.5-1.7-3.3-1.7-.8 0-2-.5-2.6-1.1-.6-.6-2.2-1.6-3.5-2.3-1.2-.6-2.9-2.6-3.7-4.4-1.1-2.5-1.9-3.1-3.4-2.6-1.2.4-2.6-.2-3.9-1.6-1.9-2-2.8-2.2-9.2-1.8-6.9.5-12.6-1-12.6-3.1 0-.5-1.7-1.6-3.7-2.4-2.1-.8-6.2-3.8-9.1-6.6-3-2.8-5.9-5-6.5-4.9-1.4.3-11.1-9-12-11.5-.4-1-1.7-1.7-3.2-1.7-1.4 0-2.5-.5-2.5-1 0-.6-.9-3-2.1-5.5-1.8-3.7-2.6-4.5-4.9-4.5-1.5 0-3.5-.9-4.5-2s-2.4-2-3.2-2c-.8 0-3.5-2-6.1-4.4-2.6-2.5-6.1-4.8-7.7-5.2-1.7-.4-4.3-1.5-5.9-2.5-2.1-1.3-3.4-1.5-4.2-.8-1.6 1.3-11 .1-12.5-1.7-.8-1-1.6-.9-4.2.7-1.8 1-4.7 1.9-6.5 1.9-2 0-3.5.6-3.8 1.5-.8 2-2.2 1.9-7.2-.7-4-2.2-4.4-2.2-5.3-.6-1.1 2-5.4 2.4-6.5.7-.3-.6-2.2-1.7-4.1-2.5-1.8-.8-3.8-2.5-4.2-3.7-1.1-2.7-5.1-6.5-5.1-4.8 0 .8-1.2.5-3.5-.9-1.9-1.2-3.5-1.7-3.5-1.1zm-30.9 74.4c-1.3 1.3-4.1.1-4.1-1.7 0-1.3.4-1.4 2.5-.4 1.6.7 2.2 1.5 1.6 2.1zm5.6 66.9c-.3.8-.6.5-.6-.6-.1-1.1.2-1.7.5-1.3.3.3.4 1.2.1 1.9zm-5.7-.2c0 .5-.4 1-1 1-.5 0-1-.5-1-1 0-.6.5-1 1-1 .6 0 1 .4 1 1zm151.1 9.7c1.3 1.6 1.2 1.7-.3.4-1.7-1.3-2.2-2.1-1.4-2.1.2 0 1 .8 1.7 1.7zm15.6 45.5c2.5 2.3 2.9 4.8 1.3 7.8-.7 1.2-1.6 1.7-2.7 1.3-1.2-.5-1.4-.3-.8.7.6.9.4 1.1-.4.6-.7-.5-1-1-.7-1.3.2-.3-.7-1.6-2.2-2.9-1.5-1.3-2.1-2.4-1.4-2.4.7 0 1.8-1.4 2.3-3 1.3-3.6 1.6-3.6 4.6-.8zm4.3 11.8c0 .5-.4 1-1 1-.5 0-1-.5-1-1 0-.6.5-1 1-1 .6 0 1 .4 1 1zm-205.5 84.9c.3.5.1 1.2-.5 1.6-.5.3-1-.1-1-.9 0-1.8.6-2.1 1.5-.7zM333.823 82.777c0 1.4.2 1.9.5 1.2.2-.6.2-1.8 0-2.5-.3-.6-.5-.1-.5 1.3z"/><path d="M365.823 111.677c-1.2.7-1.2 1.2-.1 2.9 1.6 2.5 3.3 3.4 5.4 2.6 2.2-.9 1.8-3.4-.5-3.4-1.1 0-2-.7-2-1.5 0-1.7-.9-1.9-2.8-.6zM408.923 125.877c-1.9 1.9-1.6 4.7.7 5.9 1.1.6 2 1.7 2 2.4 0 1.4 5.7 2.8 6.5 1.6.2-.3-.9-1.4-2.5-2.5s-3.5-3.5-4.2-5.3c-1-2.7-1.5-3.1-2.5-2.1zM398.123 127.777c-.3.5-.1 1 .4 1 .6 0 1.1-.5 1.1-1 0-.6-.2-1-.4-1-.3 0-.8.4-1.1 1zM401.723 129.477c0 1.6.3 2.2.6 1.5.2-.6 1.2-1.2 2-1.2 1.3 0 1.3-.3.3-1.5-1.9-2.3-3-1.8-2.9 1.2zM433.623 138.777c0 .5.5 1 1 1 .6 0 1-.5 1-1 0-.6-.4-1-1-1-.5 0-1 .4-1 1zM439.923 141.477c.6 1.3 1.3 2 1.6 1.5.3-.5 1.5-1.3 2.5-1.9 1.7-.9 1.4-1.1-1.6-1.5-3.4-.4-3.5-.3-2.5 1.9zM407.123 149.777c.3.5.1 1-.5 1s-.8.4-.5 1c1 1.7 2.5 1.1 2.5-1 0-1.1-.5-2-1.1-2-.5 0-.7.4-.4 1zM406.623 155.677c0 .6-.8 1.1-1.7 1.2-1 0-1.3.3-.6.5 1.8.8 4.9-1.1 3.4-2-.6-.4-1.1-.2-1.1.3zM444.123 169.777c.3.5-.1 1-.9 1-1 0-1.3.6-1 1.5.4.8 1.5 1.5 2.6 1.5 1.4 0 1.8-.5 1.4-1.6-.3-.9-.6-2-.6-2.5s-.5-.9-1.1-.9c-.5 0-.7.4-.4 1zM368.223 177.177c.4 1.2 0 1.6-1.5 1.6-1.2 0-2.1.6-2.1 1.5 0 .8.7 1.5 1.5 1.5s1.5-.5 1.5-1c0-.6.7-1 1.5-1 1.9 0 1.9-1.4 0-3-1.3-1.1-1.4-1-.9.4zM6.023 181.477c.3.8.6 2.3.6 3.4 0 1 .5 1.9 1.1 1.9.6 0 .9-.6.6-1.4-.3-.7 0-2.2.8-3.2 1.1-1.7 1-1.9-1.2-2-1.8-.2-2.3.2-1.9 1.3zM444.423 181.477c.7.3 1.6.2 1.9-.1.4-.3-.2-.6-1.3-.5-1.1 0-1.4.3-.6.6zM445.023 184.177c-.3.9-1.7 1.6-3.1 1.6-1.7 0-2.3.4-2 1.4.3.8.3 1.7-.1 2.1-.4.3-.7 2.5-.8 4.8-.1 2.3-.6 4.1-1.2 4-.6-.2-.8 1.3-.5 3.7.4 2.6.2 4-.5 4-.6 0-.9.7-.6 1.5.4.8.2 2.1-.4 2.8-2 2.4-2.5 8.6-.9 11 1.3 2.1 1.3 2.5-.9 5-1.3 1.5-3.2 2.7-4.4 2.7-1.1 0-2 .6-2 1.4 0 .7-.8 1.6-1.9 1.9-1 .2-2.1 1.7-2.5 3.3-.4 1.5-1.4 3.3-2.3 3.9-1.4 1.1-1.4 1.2 0 1.8 1 .4 1.8-.1 2.2-1.4.7-2.2 2.1-2.5 3.2-.6.4.8 2.3 1.9 4.2 2.5 3.2 1.1 3.3 1.1 2.7-1.1-.5-2.1-.2-2.2 3.9-1.9 3.2.3 4.5 0 4.5-.9 0-1 .3-1 1.2-.1 1.3 1.3 3.9 1.6 3.7.4-.3-2 .2-4.3.9-3.8.5.3 1.6-1.1 2.6-3.1 1.3-2.8 1.4-3.8.5-4.4-.7-.4-1.4-2.7-1.5-5.1-.2-4-.4-4.3-3-4.3-3.4 0-4.4-2.2-1.2-2.7 4-.5 8.8.4 8.8 1.7 0 1.9 2.3 2.4 3.8.9.9-1 1-1.9.2-3.3-1.3-2.5-1.3-3.4 0-2.6.5.3.7 0 .5-.7-.3-.8 0-2.2.8-3.2 1.2-1.7 1.4-1.7 3.5.1 2 1.5 2.7 3.1 3.1 6.4.2 1.1 5.9 1.6 7.5.7 2.2-1.2 2-3.6-.1-3.4-1.1 0-1.7-.5-1.5-1.5.2-1.6-7.4-9.9-9.1-9.9-.4 0-1.3-1.3-1.8-2.9-.7-2-1.9-3-3.9-3.5-2-.3-3.7-1.8-5.3-4.3-1.3-2.1-3.2-4.4-4.1-5.2-1.3-1.1-1.7-1.1-2.2.3zM5.723 189.077c0 1-.5 1.5-1.1 1.2-.5-.3-1-.1-1 .4 0 .6-.6 1.1-1.4 1.1-1.8 0-2.9 2.9-1.8 4.4.5.6 1.2 2.4 1.6 4 .4 1.7 1.4 3.5 2.2 4 .7.6 1.5 2.4 1.7 4.1.2 1.6.6 3.1 1 3.2 3 1.1 3.6-1.6 1.2-6.3-1.5-3-1.1-7.4.7-7.4.6 0 .5-.7-.2-1.6-.8-.8-1.7-3.2-2.1-5.2-.3-2-.7-2.9-.8-1.9z"/><path d="M432.623 204.777c0 .5.4 1 .9 1 .6 0 1.3-.5 1.6-1 .3-.6-.1-1-.9-1-.9 0-1.6.4-1.6 1zM19.423 208.477c.7.3 1.6.2 1.9-.1.4-.3-.2-.6-1.3-.5-1.1 0-1.4.3-.6.6zM11.623 212.377c0 .8-.4 1.2-1 .9-1.3-.8-1.3-.2.2 3 .6 1.4 2 2.5 3 2.5s3.4.7 5.3 1.4c3.5 1.5 3.5 1.5 3.5-1.2 0-2-.3-2.3-.9-1.3-1.2 1.9-3.9.7-4.6-2.2-.8-2.9-5.5-5.6-5.5-3.1zM17.623 211.777c0 .5.7 1 1.6 1 .8 0 1.2-.5.9-1-.3-.6-1-1-1.6-1-.5 0-.9.4-.9 1zM43.123 218.377c-1.1 1.2-1.9 1.3-2.9.5-.9-.8-1.8-.3-3.4 1.9-1.2 1.6-2.2 3.3-2.2 3.8s-1.3 1.2-3 1.5c-4.1.9-3.8 2.3.4 2.4 2.6.1 3.5-.4 3.9-1.9.3-1.1 1-1.7 1.7-1.3.6.4 1.7.2 2.5-.5 1.7-1.4 5.8.8 5 2.8-.9 2.4 2.9.8 4-1.6 1-2.3 4.5-3.1 4.6-1 0 .7.4.2 1-1 1.2-3 .4-4.2-2.7-4.2-1.4 0-2.7-.7-3-1.5-.8-2-3.8-1.9-5.9.1zM472.323 218.777c.6 2.1 2.1 3.5 2.9 2.7.6-.6-1.8-4.7-2.7-4.7-.4 0-.5.9-.2 2zM61.623 224.177c-1.4 1.4-1.3 3.3.3 3.9.6.3-.1.6-1.8.7-3.1.2-2.8.4 1.8 1.4 2 .5 2.7 1.2 2.7 2.9 0 1.3.5 2.8 1.1 3.4.9.9.8 1.6-.5 2.8-.9.9-1.6 2.2-1.6 3 0 .7-.8 1.5-1.8 1.8-1.1.2-2.1 1.7-2.5 3.4-.3 1.7-1.3 3.8-2.2 4.7-.9.9-1.4 2-1.1 2.5.3.5-.1 1.2-.9 1.5-1.3.5-1.3.9-.3 2.6.9 1.3.9 2.3.3 2.8-1.3.9-1.8 3.5-.5 2.7.5-.3 1.9-.1 3.1.5 1.9 1.1 2 1 1.4-1-.8-2.4 2.7-7 5.2-7 .8 0 2.3-.5 3.3-1 1.6-.9 1.8-1.5.9-3.6-.8-2.2-.7-2.5.6-2 .9.3 1.8-.1 2.1-.9.5-1.1 1-1.2 2.6-.4 1.6.9 6.3 1.6 13.8 2.1 2.1.1 2.9-.6 3.5-3.4.6-2.7.3-3.6-1.9-5.4-1.4-1.3-2.6-3.3-2.6-4.6 0-1.5-1.2-3.1-3.3-4.6-3.5-2.4-5.7-2.8-5.7-1.2 0 1.6-3.6 1.2-5-.6-1.1-1.3-1-1.6.8-2.1 2.8-.7 2.8-1.1-.5-3.7-2.9-2.3-9.5-3-11.3-1.2zM91.223 250.377c-.5 1.7 0 3.4 1.4 5.4 1.2 1.7 1.9 3.4 1.6 3.9-.3.5.1 1.4.9 2.1 1.5 1.3 2.1 4.1.8 3.9-2-.3-3.4.2-2.8 1.1.4.6 1.5.5 3-.2 3.5-1.6 5.5-.4 5.5 3.2 0 2.5.4 3.1 1.8 2.8 1.2-.3 1.6-1.2 1.5-3.1-.2-3.2.3-3.3 3-1 1.9 1.7 2 1.7 1.4 0-.5-1.4 0-1.7 2.8-1.7 3.1 0 3.4-.3 3.1-2.3-.2-1.6-.9-2.1-2.5-1.9-2.2.3-2.6-.5-1.2-2.7.5-.8 0-2.9-1.6-5.7-1.9-3.3-3.3-4.6-6.1-5.3-2.3-.7-4-.7-4.8 0-.8.6-2.1.6-3.8-.1-3.5-1.3-3.3-1.4-4 1.6zM43.423 260.877c-1 .5-1.8 1.6-1.8 2.3 0 1.7 4.8 2.7 5.7 1.3.3-.5.1-.7-.4-.4-1.2.8-2.6-2-1.7-3.4.7-1.1.3-1.1-1.8.2zM50.023 267.177c-1.2.9-2.4 1.3-2.7 1-.3-.3-.8 0-1.3.7-.4.8-.3 1 .4.5.7-.4 1.2-.2 1.2.4 0 .6.8 1 1.7.8 1.2-.2 1.8.5 1.9 2.4.2 1.6-.2 2.8-.8 2.8-.6 0-.8.9-.5 2 .4 1.7 0 2-2.4 2-2.8 0-2.9.2-2.9 4.5 0 3.6.5 4.8 2.4 6.1 1.7 1 3 1.3 4.1.7 1.5-.9 1.5-1.1.1-2.2-1.9-1.6-2.1-3.1-.3-3.1 2.1 0 5.5-4.2 5.8-7.1.2-1.4-.3-3.4-1.1-4.4-.8-1-1.9-3.3-2.5-5.2-.9-3.2-1.1-3.3-3.1-1.9zM376.723 276.077c-.1 1.5-.8 1.8-3.5 1.6-1.9-.2-3.8 0-4.2.4-.4.4-1.8.7-3.1.7-3 0-2.9 1.2.1 2.6 2 .9 2.6.9 3.1-.3.3-1 1.4-1.4 3-1.1 3.2.7 5.9-1.3 5.2-3.8-.4-1.7-.5-1.7-.6-.1zM99.323 276.977c1.1 1.8.4 5.1-1.3 6.1-2.4 1.4-1.6 2.5 2.2 2.9 4 .5 5-.4 3.5-2.9-.6-1.1-.6-2.4 0-3.5.7-1.3.4-2-1-2.8-2.7-1.4-4.4-1.3-3.4.2zM102.123 289.777c-.3 1.1-1 2-1.5 2s-.7.7-.3 1.5c.5 1.4.7 1.4 2.3 0 .9-.8 2.2-1.5 2.9-1.5.8 0 1.1-.6.7-1.6-.3-.9-.6-1.8-.6-2 0-1.4-3 0-3.5 1.6zM47.623 292.577c0 .7-.7 1.2-1.6 1.2-1.4 0-1.4.3-.4 1.5 1.3 1.6 6 2.1 6 .7 0-.5-.9-1.7-2-2.7-1.1-1-2-1.3-2-.7zM51.323 298.477c-.3.5-.2 1.5.2 2.2.7 1 1 1 1.6.1.4-.6.3-1.6-.3-2.2-.5-.5-1.2-.6-1.5-.1zM68.323 300.377c-.4.4-.7 1.9-.7 3.4 0 1.7-1.2 4-3.1 6-3.2 3.3-3.4 4.6-1.5 12.7.3 1.6-.1 2.3-2 2.7-1.3.4-4.5 2.6-7.1 5.1-2.7 2.5-5.4 4.3-6 4-.7-.2-1.3 0-1.3.5 0 .6-.6 1-1.2 1-.7 0-2.1 1.4-3.1 3.1-1.6 2.9-2 3-5.7 2.4-3.1-.5-3.9-.4-3.5.7.7 2.1-4.3 7.2-5.8 5.9-1-.8-1.6.1-2.6 3.5-.7 2.4-2.1 4.9-3 5.4-1.5.9-1.5.9.1 1 2.8 0 3 1.7.9 6.5-1.3 3-2.6 4.5-3.9 4.5-1 0-2.5 1.1-3.2 2.6-1.3 2.3-1.2 2.7 1.2 4.7 1.4 1.2 3.3 3.5 4.1 5.1 1.2 2.6 1.2 3.3-.4 6.5-1.6 3.4-1.6 3.7.3 7.5 2 3.9 2 3.9 0 6.5-1.1 1.4-2.7 2.5-3.6 2.5-.9-.1-1.6.4-1.6 1.2 0 .8.5 1.4 1 1.4.6 0 1 .9 1 1.9 0 1.1.5 2.3 1 2.6.6.4.8 1.1.5 1.6-.4.5.2 2.1 1.3 3.7 1.1 1.5 2.2 4.4 2.6 6.5.6 3 1.3 4.1 3.6 4.9 1.6.5 3.2 1.8 3.5 2.8.3 1.1 1.5 2.2 2.6 2.5 1 .4 1.9 1.1 1.9 1.6 0 .6.9 2.8 1.9 4.9 1.1 2.2 1.5 4.2 1 4.6-1.4.8-1.1 2 1.6 5.2 2.5 3 3.4 7.2 1.5 7.2-.5 0-1 .7-1 1.6 0 1.2.5 1.4 1.8.8.9-.4 3.3-.8 5.2-.9 1.9-.1 4.4-.6 5.6-1.3 1.8-1 2.3-.8 3.4 1.2.7 1.3 2.3 2.9 3.7 3.5 3 1.4 4.3 1.4 2.3 0-1.1-.8-1.2-1.2-.2-1.6.6-.2 1.2-1.2 1.2-2 0-1.3.2-1.3 1.7-.2 1.3 1.1 1.7 1.1 2 .1.3-.6.9-1 1.4-.6.5.3.9 0 .9-.5 0-.6-.7-1.1-1.5-1.1s-2.1-1.4-3-3c-1.8-3.6-1.7-3.6 3-.9 1.9 1.2 4.2 1.9 5 1.5.8-.3 1.7 0 2.1.6.4.7.9.6 1.4-.2.6-.9 1.9-.7 5.4.9 3.4 1.4 5.3 1.8 7 1.1 1.2-.4 2.8-.5 3.5 0 1.1.6 1.1.8 0 1.2-.7.2-1 1.1-.6 2.1.6 1.5.9 1.5 4-.3 3.4-2 3.4-2.1 2.2-5.6-.7-2-1.7-3.9-2.2-4.3-.6-.3-1.4-2.2-1.8-4.1-.4-1.9-1.4-4.3-2.3-5.3-1.3-1.5-1.4-2.3-.4-4.9.8-2.3.9-3.5.1-4.5-.9-1-.6-1.5 1.1-2.1 3.1-1.2 6-8.6 4.9-12.6-1-3.5-.5-4.6 2.3-4.6 2 0 1.9-.2-.6-2.3l-2.7-2.3 2.6-1.4c1.4-.7 2.5-2.1 2.5-3.1s1.9-2.8 4.6-4.4c3.1-1.8 4.4-3.1 4-4.2-.3-.8-.9-2.7-1.3-4.1-1.1-4.6-3.5-7.1-6.9-7.2-4 0-4.1-2.4-.2-5.3 3.1-2.3 3.6-3.7 1.3-3.7-.8 0-1.5.4-1.5.9s-1.3.8-2.9.6c-2.4-.3-3 .1-3.5 2-.4 1.4-1.2 2.2-1.9 2-.8-.4-1.3 1-1.4 4.7-.1 2.9-.7 5.5-1.5 5.9-1 .7-1 .9 0 .9 2.1 0 1.3 3.4-1.3 5.4-6.3 4.7-5.8 4.6-9.3 2.4-2.5-1.5-3.6-1.8-4.5-.9-.6.6-2.7 1.1-4.6 1.1-2.9 0-3.8-.5-4.9-2.8-1-2.3-1-2.9.3-3.8.8-.6 1.5-1.9 1.5-2.8 0-.9.9-2.5 1.9-3.5 1.9-1.9 1.9-2-.5-5.3-1.4-1.8-3.3-3.6-4.2-4-1.4-.5-1.3-.7.5-.7 1.2-.1 2.5-.6 2.8-1.2.4-.5 1.2-.8 1.8-.6 1.5.5 6.7-2 6.7-3.2 0-.5 2-2.1 4.4-3.5 3.4-2 4.5-3.3 4.8-5.7.7-4.4-.6-10.4-2.6-12.4-.9-.9-1.6-2.1-1.6-2.6s-.6-.9-1.4-.9c-.8 0-1.9-1.3-2.4-2.9-.8-2.4-1.4-2.8-3.6-2.4-1.6.3-2.6.1-2.6-.6 0-2.3 3.3-6.1 5.2-6.1 1.6 0 1.7-.3.8-2.1-.7-1.1-.9-2.7-.6-3.4.2-.7-.6-2.1-2-3.1-1.8-1.4-2.4-2.8-2.4-5.6 0-2.9-.6-4.2-3.2-6.2-1.8-1.4-2.8-2.6-2.1-2.6.6 0 1.5-.9 1.8-2 .5-1.6 1.2-1.9 3.2-1.4 2.2.6 2.5.4 2-1-.4-1-.7-2.2-.7-2.7s-.6-.9-1.4-.9c-.8 0-1.6-.5-1.8-1.1-.2-.5-.7-.7-1.1-.3zm-17.9 36.6c-.2.6-1 1.4-1.6 1.6-.7.2-1-.2-.6-1.2.7-1.8 2.8-2.2 2.2-.4zm-26.3 31.8c.3.5.1 1-.4 1-.6 0-1.1-.5-1.1-1 0-.6.2-1 .4-1 .3 0 .8.4 1.1 1zm3.5.5c-.7.9-1.5 1.3-1.7 1.1-.7-.7.7-2.6 1.9-2.6.6 0 .6.6-.2 1.5zm69.4 12c-.4.8-1.2 1.5-2 1.5-1.7 0-1.8-1.7-.1-2.3 2.2-.9 2.7-.7 2.1.8z"/><path d="M59.523 304.977c.4 1.7 1.1 3.3 1.7 3.5 1.1.4 1.1-3.7 0-5.5-1.4-2.3-2.3-1.2-1.7 2zM458.323 311.077c-.3.7.3 1.3 1.3 1.3s1.6-.6 1.3-1.3c-.3-.7-.9-1.3-1.3-1.3s-1 .6-1.3 1.3zM55.323 320.477c-.8.8-.9 4.3-.2 4.3 1.7 0 6.5-3.2 6-4-.7-1.1-4.8-1.3-5.8-.3zM214.723 335.177c-1 1.2-.8 1.3.8.9 1.2-.3 2.1-.9 2.1-1.4 0-1.4-1.6-1.1-2.9.5zM198.623 369.577c-.1 3.2-2.6 5.3-5.3 4.7-3.2-.8-5.6 2.7-3.6 5.1 1 1.2 1.4 1.1 2.4-.8.8-1.6 1.9-2.2 3.5-2 1.3.1 2.7-.3 3-.9.8-1.3 5.8.9 7.9 3.5.7.9 1.7 1.3 2.2 1.1.5-.3 1.4.3 2 1.3 1.4 2.3 5.3 1.8 4.4-.5-.3-1.1-.1-1.3 1-.9 1.3.5 1.5-.3 1.1-5.2l-.4-5.7-4.6-.1c-2.5-.1-5.3-.5-6.2-.8-1.1-.4-1.5-.2-1.1.8.3.8-.2 2-1 2.8-1.4 1.1-1.6 1.1-1.1-.2.4-1-.3-2-1.8-2.7-2-.9-2.4-.8-2.4.5z"/><path d="M175.923 378.677c-1.1 1.7-.8 2.4 1.8 5 1.6 1.7 3.2 4 3.4 5.1.2 1.1.7 2.5 1 3 .4.6.1.9-.7.8-.7-.2-1.2.4-1 1.2.2.8-.5 2-1.4 2.7-1.1.8-1.3 1.3-.5 1.3 1.6 0 4.2-2.6 3.4-3.4-.4-.3.6-.6 2.1-.6 3.2 0 7.4 2 10 4.9 1.5 1.7 1.6 2.3.6 3.6-.7.8-1.7 1.2-2.2.9-.6-.4-1.3-.2-1.7.4-.4.7-1.6 1.3-2.7 1.4-1 .2-2.9 1.1-4.2 2l-2.3 1.6 3.2 3.1c2.3 2.4 3.3 4.3 3.5 7.2.1 2.1-.2 3.9-.7 3.9-.5 0-.9.4-.9.9 0 1.1 4.9 1.1 5.6-.1.3-.5 1.2-.4 2 .3 1.8 1.5 2.3 1 2.6-2.7.1-1.6.6-3.4 1.1-4.1.5-.7.6-2 .3-3-.5-1.6 0-1.9 3.4-1.9 2.3-.1 4.3-.4 4.6-.6.8-.8-1.6-6-3.3-7.3-2.3-1.7-1-6.7 1.5-5.8 1.4.5 1.5.3.5-.8-.7-.7-1.3-2.1-1.3-3.1s-.7-1.8-1.5-1.8c-.9 0-2-1.1-2.5-2.5s-1.5-2.5-2.2-2.5c-.8 0-.6-.5.5-1.1 1-.6 1.7-2.2 1.7-4 0-2.7-.2-2.9-2.7-2.3-1.6.4-3.3 1.4-3.9 2.3-1 1.3-1.4 1.3-3.7-.2-3.2-2.1-3.8-2.1-3.1-.3.3.7-.2 1.6-1 1.9-1 .4-1.7-.2-2.2-1.5-.5-1.5 0-2.6 1.7-3.9l2.4-1.9h-5c-3.9 0-5.3.4-6.2 1.9zM174.623 399.777c0 .5.5 1 1.1 1 .5 0 .7-.5.4-1-.3-.6-.8-1-1.1-1-.2 0-.4.4-.4 1zM88.623 462.177c0 .7-.7 1.9-1.5 2.6-2.4 2-1.8 5.5 1 6.8 1.5.7 2.5.8 2.5.2 0-.6.7-1 1.5-1 2.1 0 1.8-2.3-.6-4.3-1.5-1.4-1.8-2.1-1-3.1.9-1 .8-1.5-.4-2-.9-.3-1.5 0-1.5.8z"/></g></svg>