<svg version="1" xmlns="http://www.w3.org/2000/svg" width="500.85" height="1119.902" viewBox="0 0 375.637 839.926"><g fill="#222"><path d="M213.48 1c-.3.5-.1 1 .4 1 .6 0 1.1-.5 1.1-1 0-.6-.2-1-.4-1-.3 0-.8.4-1.1 1zM230.08 1.6c0 1.1.3 1.4.6.6.3-.7.2-1.6-.1-1.9-.3-.4-.6.2-.5 1.3zM215.98 3.1c0 .5.5.7 1 .4.6-.3 1-.8 1-1.1 0-.2-.4-.4-1-.4-.5 0-1 .5-1 1.1zM220.98 8.7c0 1.8-.4 3.3-.8 3.3-.8 0-1.5 4.5-1.4 8.7 0 1.3-.5 2.3-1 2.3-.6 0-.6.6.1 1.4 1.2 1.4 4.1 1.5 7.2.2 1-.5 1.9-.1 2.2.8.3.8 1.5 1.9 2.5 2.5 2.7 1.4 3.5-.8 1.7-4.2-.9-1.7-1.1-3.6-.6-5.4.4-1.5.4-4.1-.2-5.6-.5-1.5-.7-3.6-.4-4.7.4-1.7-.1-2.2-2.3-2.2-.3 0-1.6.3-2.9.7-1.4.4-2.1.3-1.8-.2.4-.5 0-1-.8-1-1 0-1.5 1.1-1.5 3.4zM177.98 19.9c-.5 1.1-1 2.8-1 3.8 0 2.7-3.4 5.3-6 4.6-2-.5-2.1-.4-1.1 1.6.7 1.2 1 2.9.7 3.9-.7 2.4 1.8 5.4 3.8 4.6 1.3-.5 1.6.1 1.6 2.9 0 2.6.7 4.1 2.5 5.5l2.6 2-2.3.7c-1.3.4-3 1.3-3.8 2-.8.8-2.7 1.7-4.2 2-2.2.6-2.9.3-3.5-1.1-.6-1.6-.8-1.4-1.3 1.1-.4 2.4-1.1 3.1-3.3 3.3-2.9.4-3.4 1.1-1.6 2.9 1.2 1.2-1.5 6.3-3.3 6.3-1.6 0 .2 6.3 2.6 8.9l2.1 2.3-2.2 1.5c-3.1 2.1-2.9 3.3 1.1 6.5 2.6 2.1 3.2 3.2 2.9 5.2-.3 1.6-.1 2.6.6 2.6 1.8 0 1.2 3.6-.9 5.5-1.3 1.2-1.7 2.2-1 3 1.1 1.3.2 5.5-1.2 5.5-.6 0-.8 1.2-.5 2.9.4 2 .1 3.3-.9 4.2-1.3 1-1.3 1.5 0 3.4 1.3 2 1.2 2.4-.4 3.8-1 .8-2.1 1.3-2.4 1-.3-.4-.6.3-.6 1.5s-.6 2.2-1.4 2.2c-.7 0-1.9.7-2.6 1.5-.8.9-2.2 1.2-4.1.8-2.9-.5-2.9-.5-1.9 2.1 1.3 3.5 1.3 3.3-1 3.9-2.4.6-1.7 3.7.9 3.7 1.4.1 1.4.2-.2 1.4-1.5 1.1-1.6 1.6-.5 2.3.7.4 1.8 2.1 2.3 3.8.6 1.6 2 3.4 3.2 4 3.3 1.4 3.6 4.5.7 8.2-1.4 1.8-3.1 3.3-3.8 3.3-.8 0-1.7 1-2.1 2.2-.4 1.4-.8 1.8-1.2 1-.7-1.7-2.3-1.5-2.3.3 0 2.1 4.6 4.8 7.1 4.2 1.7-.5 2.4.1 3.2 2.4.6 1.6 1.5 2.9 1.8 2.9 1.8 0 3.9 3.4 3.9 6.1 0 1.9.5 2.9 1.5 2.9.9 0 2 1.1 2.5 2.5s1.4 2.5 2 2.5c.6 0 1.5 1.1 2 2.5.9 2.4 1.9 2.9 4.8 2.6.8-.1 2.3.6 3.3 1.5 1.4 1.2 2.3 1.4 3 .7 1-1 6.7 1 7.9 2.8.3.4 2.2.4 4.1 0 3.5-.8 3.7-.7 6 3.5 1.3 2.4 2.8 4.4 3.3 4.4.4 0 .3.6-.3 1.3-.8 1.1-.6 1.8.9 3.2 1.1 1 2 1.4 2 1 0-.9 4 4.5 7.1 9.7 1.3 2.1 2.8 3.8 3.5 3.8 2.4 0 7.6 5.2 7.1 7.2-.3 1-.1 2.1.4 2.4.5.3.6 1.1.2 1.7-1.2 1.9-1.5 3.8-1.4 9.4.1 3.3-.4 5.7-1.4 6.6-1.3 1.3-1.3 1.7.2 2.9 1.8 1.4 5.4 1.2 6.5-.5.4-.7 1.3-.3 2.5 1.1 1.7 2 5.9 2.9 10.3 2.1.8-.2 3.7.1 6.3.5 4 .7 4.8 1.2 4.4 2.7-.3 1 .1 2.3.9 3 1.1.9 1 1.7-.6 4.7-1.1 2.1-2.6 4.5-3.2 5.4-1 1.3-.9 2 .4 3.5 1.4 1.5 1.5 2.3.4 5.4-1.6 4.5-.5 7.1 2.7 6.4 1.5-.4 4 .6 7.6 3 6.3 4.2 9.4 4.2 15.6-.1l3.7-2.5 5.5 5.7c4.8 4.9 5.8 5.6 7.4 4.6 1.3-.8 2-.8 2.5-.1.3.6 2 .9 3.7.6 1.7-.2 4.5.2 6.2.9 3.8 1.6 8.7 5.3 8.1 6.3-.3.4.8 1.5 2.5 2.5 1.6.9 2.9 2.1 2.9 2.7 0 .5.6.9 1.3.9.7 0 1.7.8 2.3 1.8 1.8 2.8 7 2.6 11.8-.5 3.7-2.4 4.4-3.5 5.5-8.3.7-3 1.7-6 2.3-6.7.5-.7.7-1.6.4-2.1-.3-.6.2-.9 1.2-.8 2.7.2 2.1-3.7-.9-5.1-2.1-1-2.5-1.8-2.1-3.8.2-1.4.8-2.5 1.3-2.5 1.5 0 1-2.3-1.1-4.5-1.7-1.8-1.8-2.5-.7-4.8.6-1.5 2-2.7 3-2.7.9 0 1.7-.5 1.7-1 0-.6.9-1 2-1 2.1 0 6.7-3.9 6.2-5.4-.1-.4.2-1.4.7-2 .8-.9.7-1.8-.3-3.1-1.5-2.1-.1-8.4 2.1-9.2.7-.3 1.6-2.3 1.9-4.4.4-2.1 1.1-3.9 1.7-3.9.6 0-.8-1.2-3.2-2.8-2.8-1.8-4.4-3.6-4.8-5.5-.3-1.5-1.7-3.6-3-4.7-2-1.5-2.4-2.7-2.1-5.3.3-2.9-.2-3.7-4.4-7.2-4.7-4-6.2-7.7-3.9-10.1.6-.5.3-2.3-.8-4.5-1-2-2.1-5-2.4-6.8-.6-2.9-.5-3.1 2.2-3.1 2.4 0 2.8-.4 2.4-1.9-.3-1.1-.1-2.7.5-3.7.7-1.3.5-2.6-.9-4.8-2.1-3.5-2.5-7.2-.7-7.8 1.6-.6.3-3.7-1.9-4.5-2.2-.8-5.3-4-4.6-4.7.3-.3.2-2.5-.1-4.8-.8-5.4-3.3-7.3-7.2-5.6-2.2 1-2.7.9-3.5-.5-.6-.9-1.9-1.7-2.9-1.7-1.1 0-3.7-1.6-5.7-3.5-2.6-2.4-3.2-3.5-2.1-3.5 1.4 0 1.6-.7 1.1-3.5-.4-2.3-.2-3.5.6-3.5 1.6 0 1.4-2.5-.4-4-1-.8-1.2-1.7-.5-3 .6-1.2.4-2.4-.6-3.9-.8-1.1-1.3-3-.9-4 .3-1-.1-2.4-1-3.1-.8-.7-1.5-1.9-1.5-2.8 0-2.2-3.8-8.1-8.6-13.3-5.5-6-6.2-9.6-3.5-17.6l2.1-6.2-3-3c-3.9-3.9-3.9-7.4 0-11.1 1.7-1.5 3-3.5 3-4.3 0-.8.6-1.7 1.4-2 3.5-1.4-2-9.7-6.5-9.7-1 0-2.2-.6-2.6-1.3-.4-.8-1.7-1.9-2.7-2.4-1.6-.9-2.5-.6-4.6 1.6-1.4 1.4-2.9 3.4-3.3 4.3-.9 2.5-5.6 5.2-8.7 5-1.7-.1-3 .4-3.4 1.3-.4 1.2-.9 1.3-2.4.4-2.1-1.3-9.3.3-11.2 2.6-2.1 2.5-4.5 1.7-7.9-2.5-1.9-2.4-2.7-4-1.8-4 .9 0 1.2-1 .9-3.5-.2-1.9-.1-4.3.3-5.2 1.1-2.6.6-5.6-1.2-7-.8-.6-1.3-1.9-1.1-2.9.3-1.8-4.2-7.4-6-7.4-.6 0-.8 1-.5 2.2.4 2 .3 2.1-.7.5-.6-.9-2.1-1.7-3.4-1.7-1.3 0-3.5-1.1-5-2.5-2-1.9-2.8-2.1-3.2-1.1-.6 1.5-4.4 1-4.4-.5 0-.5-1.1-.9-2.4-.9-1.4 0-2.7-.4-3-.9-.3-.4-2.4-1.1-4.6-1.5-2.2-.3-4.3-1.3-4.6-2.1-.5-1.1-1.7-1.4-4.4-1-2.8.3-4 .1-4.4-1-.4-1.2-.9-1.3-2.4-.4-1.5 1-2.6.9-5.2-.5-4.1-2-3.7-2-5 .3z"/><path d="M233.88 30.1c1.1 3.2 3.2 3.7 2.8.7-.2-1.2-1.1-2.4-2-2.6-1.4-.3-1.5.1-.8 1.9zM237.98 33.9c0 .5.7 1.4 1.5 2.1 1 .9 1.5.9 1.5.1 0-.6-.5-1.1-1.1-1.1-.5 0-.7-.5-.4-1 .3-.6.1-1-.4-1-.6 0-1.1.4-1.1.9zM138.98 161.9c0 .5.7 1.2 1.6 1.5 1.4.5 1.5.4.4-.9-1.4-1.7-2-1.9-2-.6zM278.68 320.7c-.5 1.2-1.6 2.3-2.3 2.3-.7 0-1.4 1.4-1.6 3.2-.2 2.5-.8 3.4-2.4 3.6-1.7.2-2.1.8-1.6 2.4.3 1.3-.1 2.4-1.2 3-.9.5-1.4 1.4-1 1.9.3.6.1 2.2-.4 3.7-.6 1.5-1.6 4.8-2.3 7.4-.9 3-2 4.8-3.2 5.2-1.5.4-1.7.8-.7 2.6.6 1.1 1.3 3.3 1.5 4.8.3 1.5.9 4.5 1.4 6.7.6 2.5.7 4.3.1 4.9-.6.6-1 1.7-1 2.5 0 1.3.2 1.3.9.3.7-1.1.9-1.1 1.4.2.5 1.2 0 1.6-1.8 1.6-1.4 0-2.5.4-2.5 1 0 .5-.5 1-1.1 1-.6 0-.8-.7-.5-1.5.4-1.1-.3-1.9-1.9-2.5-1.4-.5-2.5-1.6-2.5-2.5 0-.8-.7-1.5-1.6-1.5-1.4 0-1.4.2 0 2.2 2 2.8 2 3.8 0 3.8-1 0-1.4.7-1.3 2.2.5 3.2-4 9-6.4 8.4-1.2-.3-3 .8-5.2 3.1-2 2.2-3.5 3.1-4 2.4-.3-.6-1.1-.9-1.6-.6-.5.4-2.5-.9-4.4-2.8-5.2-5-12.3-6.2-16.1-2.6-1.2 1.1-3.2 2.1-4.5 2.3-2.9.3-3.2.6-2.4 2.8.4 1 0 3.2-.9 4.9-1.3 2.5-1.3 3.5-.4 4.8.6.9.1.6-1.2-.6-1.9-1.8-2.2-2.5-1.2-3.5.7-.7 1.2-2.7 1.2-4.5 0-2.9-.3-3.3-3.7-3.9-2.1-.3-4.9-1.3-6.1-2.1-2.3-1.4-2.4-1.4-1.6.9.4 1.2 1.4 2.8 2.3 3.5 1.4 1 1.4 1.2-.2 1.9-1.5.5-1.8 1.4-1.4 3.8.3 1.7.3 2.5 0 1.8-.3-.8-.9-1-1.6-.3-1.2.9-4 1.4-6.4 1.2-.7 0-1.3-.9-1.3-1.9 0-2.8-1.1-3.4-2.6-1.4-1.1 1.6-1.3 1.5-2.2-.9-1.1-2.8-3-3.9-6.8-3.9-1.3 0-2.4-.5-2.4-1.2 0-.6-1-.2-2.3 1-2 1.9-2.5 2-4.3.8-1.3-1-2.5-1.1-3.5-.5-.8.5-2.6.9-4.1.9-4.2 0-5.6.9-5 3.2.4 1.8.1 2-2 1.6l-2.5-.5.3 9.1c.2 6.5-.2 9.7-1.2 11.3-.8 1.2-1.4 3-1.4 3.8 0 2.4-2.5 4.5-5.4 4.5-1.4 0-2.6.4-2.6 1 0 .5-.4 1-1 1-.5 0-.6-.8-.3-1.8.6-1.5.5-1.5-1-.3-.9.7-1.7 1.9-1.7 2.6 0 1.8-2.3 2.5-6.2 1.9-2.9-.5-3.6-.2-4.8 2-1.2 2.4-1.2 2.8.6 4.1 1.8 1.4 1.8 1.4-.4 1.5-1.4 0-2.2.5-1.9 1.2.6 2-2.5 3.7-5.5 3.1-2-.4-2.9 0-3.7 1.5-.9 1.7-2.1 2.1-6 2-2.8 0-5.4.3-6 .6-.6.4-2 .1-3.2-.6-1.7-1-2.3-1-2.6-.1-.3.7-1.8 1.3-3.5 1.3-2.5 0-2.9.3-2.5 2 .5 2.1-1.6 2.9-2.8 1-.4-.6-1.4-.5-2.8.4-1.2.8-3.8 1.7-5.7 2.1-1.9.4-4.3 1.5-5.2 2.4-3.8 3.6-5 4.3-6.9 3.8-1.8-.5-1.9-.2-1.4 2.3.5 2.2.1 3.2-2.1 4.9-1.5 1.2-3.9 2.4-5.3 2.7-2.4.6-6.4 2.9-13.4 7.6-2 1.4-3.7 1.7-5.8 1.3-1.8-.4-3.6-.2-4.5.6-1.2 1-1.8.9-3.1-.3-1.4-1.5-1.8-1.4-4.7.3-1.7 1-4.2 1.9-5.6 1.9-1.5 0-3.1.5-3.7 1.1-.8.8-1.3.8-1.7 0-.4-.6-1.1-1.1-1.7-1.1-.5 0-.4.9.3 2 1.8 2.8.1 4.1-4.4 3.1-3.2-.8-3.7-.6-4.3 1.3-.4 1.1-.7 2.4-.6 2.8.1.5-.6.8-1.4.8-2.5 0-1.7 2 1.2 3.1 3.5 1.3 6.6 4.6 5.3 5.4-.6.3-1 1.5-1 2.6 0 1-.7 1.9-1.5 1.9-1.9 0-1.9 2-.1 5.7 3.2 6.4 4 10.4 5 24.5.4 5.5.2 6.8-.9 6.8-.8 0-1.5.5-1.5 1 0 .6-.9 2.4-2.1 3.9-1.5 2.1-2.1 4.4-2.1 8.7-.1 4.9.3 6 2.3 7.7 1.3 1.1 2.3 2.1 2.2 2.3-.8 1.2-.1 3.4 1 3.4.7 0 2.5 1.4 3.9 3 2.7 3.1 2.7 3.1.8 5-2.2 2.2-1.7 5 1 5 2.9 0 4.3 2.5 2.8 5-1.2 1.9-1 2.4 1.7 4.7 1.6 1.4 3.1 2.1 3.3 1.5.6-1.8 6.2.7 6.2 2.8 0 1 .7 2.1 1.6 2.4 2.9 1.1 8.7.6 10.4-.9 1.9-1.7 6.2-2.1 9.7-1 1.8.6 2.6.1 4.1-2.4 1.9-3.1 1.9-3.1 3.7-1.1 1.6 1.8 1.9 1.8 2.9.4s1.4-1.3 3 .5c1.1 1.2 2.7 2.1 3.7 2.1 1.1 0 2.4.8 3 1.8.8 1.3 2 1.7 4.1 1.4 1.9-.3 3.3.1 3.9.9.5.8 2.9 1.4 6.4 1.5 5.2.2 5.5.1 5.5-2.2 0-2.3.3-2.4 4-1.8 2.9.5 4 .3 4-.6 0-2.9 2.7 1.2 4 6.1 1.2 4.3 2 5.4 4.7 6.6 1.8.7 3.3 2 3.3 2.8 0 .8 1.9 2.7 4.3 4.2 2.3 1.5 4.4 2.8 4.6 3 .2.2-.3 1.1-1.2 2.1-2.5 2.7-2.1 3.2 1.3 1.9 2.3-.9 3.3-.9 3.8 0 .4.6 1.9 1.4 3.4 1.8 2.7.7 4.2 3.9 4.3 9.5 0 1.9 1.2 3 5.7 5.5 4.5 2.3 5.8 3.5 5.8 5.3 0 2.3.4 2.6 5.2 3.6 3.8.9 5.8 5 5.1 10.7-.7 6.2-.6 7.9.8 12.2 1 3.1 1 4 0 4.6-.9.6-.9 1.3 0 3.4.9 2.1.9 3 0 4.1-.7.8-1.1 2.8-1 4.3.2 1.5 0 3.3-.4 4-.4.6-.3 1.5.3 1.8.6.4.8 1.5.5 2.6-.4 1.1.2 3 1.3 4.7 4.1 5.9 3 11.2-2.4 11.2-1.8 0-2.4.7-2.9 3.4-.5 2.6-1.3 3.6-3.8 4.4l-3.2 1 4.1.1c2.7.1 4.7.8 5.9 2.1.9 1 2 1.8 2.4 1.8.3-.1 1.7.2 3 .6 1.4.5 2.7.4 3.4-.3.8-.8.6-1.1-.6-1.1-2.2 0-5.1-3-5.5-5.7-.2-1.5.4-2.2 2.3-2.7 1.4-.4 2.5-1.1 2.5-1.6 0-.6.7-1 1.5-1 2.3 0 3-4.7 1.1-6.9-2.1-2.3-2-2.9.2-2.7 1.3.1 1.7-.7 1.8-3.3 0-1.9.5-3.6 1.2-3.9 1.4-.4 1.6-3.2.2-3.2-.5 0-1-.4-1-.8s1.2-.8 2.8-.7c1.6 0 2.6-.5 2.5-1.3-.2-.6.5-1.2 1.5-1.2 2.7 0 3.3-1 2.1-3.3-.9-1.6-.8-2.2.5-2.9 2.1-1.2 2.1-5.6-.1-8-1.4-1.6-1.5-1.8 0-1.8 1.4 0 1.4-.3.2-2.8-.8-1.5-1.8-2.7-2.2-2.7-3.1-.1-5.7-9.1-3.3-11.9.8-1.1.8-2 .1-3.5-1-1.7-.7-2.2 1.6-3.3 2-.9 2.9-2.2 3.1-4.3.2-1.7.8-3.5 1.3-4.1.5-.6.1-2.6-1-5-3.3-6.8-3.5-8.5-1.2-9.1 2.7-.7 3-6.9.4-8.8-1.5-1.1-1.5-1.5-.4-2.9 1.3-1.5 1.1-5.7-.5-12.2-.4-1.7.1-2.5 2.6-3.8 1.8-.8 3.6-1.3 4.1-1 .5.3.9 0 .9-.6 0-.7.5-.8 1.3-.3 2.1 1.3 5.5 1 5-.4-.3-.8.2-2.2 1.2-3.3 1.1-1.2 1.5-2.8 1.2-4.1-.5-1.8-.2-2 1.9-1.5 2.6.7 6.4-2.2 6.4-4.9 0-.9.8-3 1.7-4.8.9-1.8 1.6-4.4 1.5-6-.2-1.6.3-2.7 1-2.7 2.6-.1 6.9-5.7 7-9.1 0-1.9.6-4.1 1.3-4.9 1.6-1.9 1.2-7.5-.7-9.7-3.1-3.7-3.1-4.4-.1-3.7 1.5.4 3.7 1.3 4.7 2 1.7 1.2 2.3 1.1 3.7-.2 1.6-1.4 1.8-1.4 2.4.6.4 1.2 1.2 1.9 1.8 1.7.7-.2 2 .2 2.9 1 1.9 1.7 3.8 1 3.8-1.6 0-2.5 2.5-5.7 3.4-4.3 1.1 1.9 3.4 1.4 4.1-.8.5-1.5 1.2-1.9 2.6-1.5 1 .3 2.8.8 3.9 1.1 1.5.4 2.1-.1 2.6-2.1.6-2.3 1-2.5 3.8-1.9 1.7.4 4.9.8 7.1.9 2.2.1 6.5.5 9.5.9 5.6.8 5.6.8 9.6-3.2 2.2-2.2 3.8-4.5 3.6-5.2-.3-.8.1-.9 1.4-.3 1.1.4 3.3.8 4.9.8 2.2 0 3-.4 2.9-1.8-.1-1.2.6-1.7 2.7-1.7 2.7 0 2.9-.3 3-4.3.1-2.3 0-5.2-.1-6.5-.1-1.3.3-2.9.9-3.6 1.9-2.3.3-4.3-2.8-3.8-2.3.3-3.3-.2-4.6-2.2-1.6-2.3-1.6-2.7-.1-4.1 2.2-2.3 2.1-3.1-1.8-7.8-1.8-2.3-3.9-5.2-4.5-6.5-.6-1.2-1.8-2.2-2.5-2.2-2.1 0-4.2-3.1-6.2-9-1.8-5.6-1.9-9.2-.3-9.8 1.8-.7-1.3-3.2-3.8-3.2-1.4 0-3.6-.9-5-2s-3.4-2-4.3-2c-1 0-2.3-.7-3-1.5-.7-.8-2-1.5-2.9-1.6-.9-.1.4-.7 2.8-1.5 2.9-.9 4.8-1 5.6-.4 2 1.6 6.4-1.1 7.1-4.5.9-4 3.3-7.5 5.2-7.5.8 0 2.1-.8 2.8-1.8 1.1-1.4 1.6-1.5 3.1-.4 1 .7 2.6 1.5 3.5 1.8 1.4.5 1.5 1 .7 2.5-1.1 2.2-.6 2.4 2.2.8 1.5-.7 2.4-.7 3.4.1.8.7 1.8.9 2.3.7.4-.3 1.4-.2 2.2.3 1.1.7 2.4 0 4.8-2.3 2.7-2.6 3.4-2.9 4.2-1.7 1.9 2.9 2.3 8.2.9 9.1-1.1.7-1 .9.4.9 2 0 2.3 2.6.5 3.3-.8.3-.6.6.5.6 1.3.1 1.6.7 1.1 2.6-.5 2.2-.3 2.5 1.9 2.5 1.5 0 3.6-.4 4.9-.9 1.3-.5 3.2-1.2 4.2-1.6 1.4-.4 1.6-.9.9-1.6-1.1-1.1 1-6.5 3-8 .4-.3.5-1.3.1-2.2-.4-1.2-.1-1.7 1-1.7.9 0 1.6-.7 1.6-1.5 0-1.2.4-1.3 1.8-.7 2.3 1.3 6.3-.3 5.6-2.2-.3-.9 0-1.4.8-1.2 1.6.2 6.6 3.6 5.4 3.6-.5 0-.3.6.3 1.4.8 1 .9 1.6.1 2.1-2.1 1.3-.8 4.1 3.3 7.1 4.5 3.3 9.7 5.1 9.7 3.4 0-.5.9-1 2.1-1 1.1 0 3.4-.8 5-1.7 2.4-1.5 3.4-1.5 6.1-.5 3.6 1.3 5.2.7 4.5-1.9-.3-1.1-.2-1.9.3-1.9.4 0 .6-1.1.4-2.5-.2-2.1.3-2.7 2.6-3.2 2.6-.5 2.8-.8 1.9-3-.8-2.1-.7-2.4.6-1.9.9.3 1.4.2 1-.3-.3-.5 0-1.1.7-1.3.8-.3.6-.7-.5-1.1-.9-.3-1.7-.2-1.7.3 0 2-2.3.9-7.6-3.7-3-2.6-5.4-5.4-5.4-6.3 0-1-1.8-3.8-4.1-6.3-2.2-2.6-3.8-5-3.5-5.5.5-.9-1.3-6.7-2.7-9-.9-1.3.6-3.9 3.1-5.5 1-.7 1-1.2.1-2.3-.6-.8-.9-2.6-.6-4.1.3-1.6-.2-3.7-1.1-5.2-1.6-2.4-1.6-2.4.6-1.9 1.6.4 2.9 0 4.3-1.5 2-2.2 2-4.4 0-3.9-1.7.3-3.7-4.6-2.5-6.6.5-.9.9-4.6.9-8.1 0-5.7-.2-6.4-2.3-7.2-1.3-.5-2.1-.5-1.8 0 .9 1.4-2.2 2.1-3.3.7-.7-.8-3.2-1.2-6.8-1.1-6 .2-11.3-2.2-11.3-5.2 0-.7-.6-1.3-1.4-1.3-.8 0-2.3-1.1-3.3-2.4-1.9-2.6-7.7-4-7.8-1.9 0 .6-.4 1.5-.8 1.9-1.3 1.3-2.8-1.8-2.2-4.4.3-1.3.1-3-.6-3.8-.9-1.1-.7-1.4 1-1.4 1.2 0 2.5-.8 2.8-1.8.4-.9 1.4-2.4 2.4-3.3 1.2-1 1.5-2 .9-2.9-1-1.6-.2-6.2 1.2-7.1.6-.4.8-1.6.6-2.9l-.3-2.2-2.7 2.2c-1.6 1.2-2.8 1.7-2.8 1 0-.6-1-.4-2.5.6-2.2 1.4-2.5 1.5-2.5.1 0-1.1-1.4-1.8-4.7-2.2-2.7-.3-6.6-1.1-8.8-1.7-2.2-.6-7.1-1.2-10.8-1.3-6.3-.2-7 0-8 2.2zm-74.7 81.8c1.1 1.3 1 1.4-.4.9-.9-.3-1.6-1-1.6-1.5 0-1.3.6-1.1 2 .6zm90.4 39.1c.4 1 .1 1.4-.6 1.2-1.5-.5-2.3-2.8-1-2.8.5 0 1.3.7 1.6 1.6z"/><path d="M130.98 420.6c0 .8.5 1.2 1 .9.6-.3 1-1 1-1.6 0-.5-.4-.9-1-.9-.5 0-1 .7-1 1.6zM303.08 461.3c.2.1 1.3.9 2.4 1.7 1.9 1.4 1.9 1.4.6-.3-.7-.9-1.8-1.7-2.4-1.7-.6 0-.8.1-.6.3zM139.48 718c-.3.5-.1 1 .4 1 .6 0 1.1-.5 1.1-1 0-.6-.2-1-.4-1-.3 0-.8.4-1.1 1zM161.08 718.6c0 1.1.3 1.4.6.6.3-.7.2-1.6-.1-1.9-.3-.4-.6.2-.5 1.3zM136.38 725.5c-1.4 2-1.8 3.8-1.3 4.6.6 1.1.9 1 1.5-.4.4-1 1.3-1.6 2-1.3 1 .4 1.4-.3 1.4-2.4 0-4.1-1.2-4.3-3.6-.5zM130.38 733.1c-5.5 1.3-7.3 4.7-4.1 7.7 1.6 1.5 2.7 1.8 3.7 1.2 2.3-1.5 2.8-1.2 3.2 1.7.2 1.8 1 2.9 2.2 3.1 1.5.3 1.7 0 1.2-1.4-.4-.9-.2-2 .4-2.4.7-.4-.1-1.5-2.2-2.8-1.8-1.2-2.8-2.2-2.2-2.2.7 0 1.4-1.4 1.6-3 .3-1.7.4-3 .4-2.9-.1.1-1.9.5-4.2 1zM121.48 745.9c-2 .4-2.6.9-1.8 1.4 1 .6 1 1.5-.3 3.8-.8 1.7-2.2 3.3-3 3.6-.7.3-1.4 1.2-1.4 1.9 0 1.2-.4 1.2-2.1.4-1.1-.6-3.4-.8-5-.5-2.4.5-2.8 1-1.9 2 1.5 1.8.5 3.5-2 3.5-1 0-2.2.4-2.5 1-.3.5-1.7 1-3.1 1-1.5 0-2.4.6-2.4 1.5 0 1.2-.4 1.4-2 .5-1.5-.8-2.1-.6-3 1-.6 1.1-1.7 2-2.5 2-.7 0-1.6.9-2 2-.3 1.1-1.8 2.5-3.3 3.2-2.2 1.1-2.7 2-2.9 5.5-.1 4.9-3 11.3-4.9 11.3-.8 0-1.4.6-1.4 1.3 0 .8-1.6 2.2-3.5 3.3-1.9 1-3.5 2.2-3.5 2.6 0 1 7 9 9 10.2.8.5 3.5 2.9 5.9 5.3 2.9 2.7 5.7 4.5 8 4.9 2 .4 4.4 1.3 5.3 2.1.9.8 2.2 1.2 2.7.8.6-.3 1.1-.1 1.1.4 0 .6-.5 1.1-1.2 1.1-.6 0-.9.2-.6.5.8.8 5.8-1.9 5.8-3.3 0-.6.2-1.2.5-1.2 1.2 0 5.5 2.4 5.5 3.2 0 .4.5.8 1 .8 1.6 0 1.2-2.1-.7-4.3-1.7-1.9-1.7-2-.1-1.4 1.3.5 1.7-.1 2-2.5.2-1.7 1-3.4 1.8-3.6 1.2-.4 1.3-.2.4.9-2 2.5.1 5.9 3.6 5.9 1.7 0 2.9-.4 2.6-.9-.5-.8 6.3-2.6 9.2-2.4.6 0 1.2-.8 1.2-1.8 0-1.1.6-1.9 1.3-1.9 1.9 0 3.7 2.1 3.7 4.2 0 1 .5 1.8 1.1 1.8.6 0 .9-.6.6-1.4-.3-.8 0-1.7.8-2 .8-.3 1.7.3 2 1.4 1.2 3.8 10.5 8.2 10.5 5 0-.6 1-.8 2.4-.4 4.3 1 9.6-6.5 7.3-10.4-.6-.8-.1-1.2 1.6-1.2 1.8 0 2.7-.7 3.1-2.5l.7-2.6 3.3 3.5c1.8 1.9 4.6 4 6.2 4.6l2.9 1.1-2.9-3c-1.6-1.7-3.3-2.8-3.7-2.5-.8.5-5.9-9.4-5.9-11.4 0-.7-.7-1.2-1.6-1.2-1.1 0-1.5-.6-1.1-2 .3-1-.1-2.7-.9-3.7-2-2.7-1.8-2.9 3.5-2.7l5 .1.6-4.1c.4-2.3 1.2-4.6 1.7-5.3 1.3-1.6-.9-8.3-2.7-8.3-.8 0-1.2-.6-.9-1.4.3-.8-.3-2.7-1.3-4.2s-1.6-3.7-1.5-4.9c.2-1.5-.6-2.5-3.2-3.6-2.9-1.3-3.3-1.4-2.9-.1.5 1.2.2 1.2-1.8.2-1.7-1-2.4-1-2.7-.1-.2.6-.8.9-1.3.5-.5-.3-.9.2-.9 1.2 0 1.3-.6 1.5-3.1 1-1.7-.3-3.9-.6-4.9-.6-.9 0-3.8-1.6-6.3-3.6-2.6-2-5.3-3.4-6.1-3.1-.8.3-2.9-.5-4.7-1.9-1.8-1.3-3.3-2.3-3.3-2.3-.1.1-1.4.4-3.1.8zM182.18 817.5c.1 1.6.9 3 1.6 3.3 1.8.6 1.5-3.3-.4-4.9-1.4-1.1-1.5-.9-1.2 1.6zM191.28 825.9c0 1.6 1.4 3.1 3 3.1s.6-3.8-1.1-4.2c-1.2-.4-1.9 0-1.9 1.1zM199.58 829.7c.4 1.7.1 2.3-1 2.3-.9 0-1.6.4-1.6 1 0 1.2 1 1.3 2.9.1 1.2-.8 1.2-1.4.3-3.3-1.2-2.3-1.2-2.3-.6-.1zM193.48 831c-.4.7-.2 1.6.6 2.1 1.8 1.1 2.3.4 1.1-1.7-.7-1.2-1.1-1.3-1.7-.4zM192.68 839.1c.7.7 1.5 1 1.8.7.3-.3-.2-.9-1.2-1.2-1.4-.6-1.5-.5-.6.5zM196.78 839.7c.7.3 1.6.2 1.9-.1.4-.3-.2-.6-1.3-.5-1.1 0-1.4.3-.6.6z"/></g></svg>