<?xml version="1.0" standalone="no"?>
<!DOCTYPE svg PUBLIC "-//W3C//DTD SVG 20010904//EN"
 "http://www.w3.org/TR/2001/REC-SVG-20010904/DTD/svg10.dtd">
<svg version="1.0" xmlns="http://www.w3.org/2000/svg"
 width="550.694509pt" height="678.841430pt" viewBox="0 0 550.694509 678.841430"
 preserveAspectRatio="xMidYMid meet">
<metadata>
Created by potrace 1.15, written by Peter Selinger 2001-2017
</metadata>
<g transform="translate(-709.127266,1327.020300) scale(0.100000,-0.100000)"
fill="#222222" stroke="none">
<path d="M8005 13205 c-6 -56 -9 -65 -27 -65 -13 0 -18 -5 -15 -14 4 -10 -15
-18 -69 -31 -59 -14 -74 -21 -74 -36 0 -22 -34 -42 -58 -35 -9 3 -23 2 -31 -3
-10 -6 -5 -12 18 -22 34 -15 39 -27 17 -35 -8 -3 -13 -11 -10 -18 7 -18 -67
-40 -78 -23 -5 7 -8 -1 -8 -20 0 -17 -5 -35 -10 -38 -6 -4 -8 -15 -5 -25 7
-22 -17 -37 -102 -64 -29 -10 -53 -21 -53 -26 0 -5 -9 -11 -19 -15 -12 -3 -18
-12 -15 -20 4 -9 -5 -13 -33 -14 -102 -2 -112 -5 -133 -39 l-20 -33 30 -30
c26 -26 28 -34 19 -52 -10 -18 -8 -24 15 -44 15 -13 35 -23 45 -23 10 0 24 -6
30 -14 7 -8 27 -17 45 -20 38 -7 49 -24 51 -77 2 -41 12 -62 28 -56 7 2 24 -2
39 -9 19 -10 27 -11 30 -2 3 8 12 8 37 0 30 -11 35 -9 63 18 21 21 34 28 46
22 40 -18 180 1 189 25 4 11 13 8 37 -14 61 -57 110 -83 154 -83 31 0 44 -5
49 -17 4 -10 14 -23 22 -30 22 -16 4 -30 -19 -15 -24 14 -26 7 -5 -14 17 -17
21 -49 5 -39 -11 7 -13 -6 -4 -29 3 -9 11 -16 18 -16 6 0 22 -16 36 -34 22
-31 30 -34 70 -33 37 2 45 -1 44 -15 -1 -10 3 -19 10 -20 6 0 16 -2 21 -3 6
-2 15 -3 21 -4 7 0 14 -10 17 -21 3 -11 12 -20 20 -20 9 0 26 -17 38 -37 28
-45 51 -65 63 -53 14 14 85 -29 92 -56 9 -34 30 -49 37 -25 4 18 49 51 46 34
-4 -22 3 -33 19 -33 27 0 47 -50 75 -185 1 -5 -2 -10 -8 -10 -5 0 -8 8 -7 18
2 11 -3 17 -16 17 -18 0 -27 10 -31 33 -2 14 -31 66 -40 71 -6 4 -5 -9 1 -30
5 -20 7 -38 4 -41 -3 -3 6 -20 19 -38 14 -17 25 -37 25 -43 0 -6 7 -17 15 -26
12 -11 13 -21 5 -42 -6 -14 -8 -35 -5 -45 4 -10 -1 -34 -11 -54 l-16 -35 34
-43 c19 -23 37 -49 40 -58 4 -9 23 -20 43 -23 20 -4 57 -17 83 -28 26 -12 65
-23 87 -25 22 -1 47 -6 55 -10 8 -3 40 -8 70 -9 30 -2 65 -4 77 -5 12 -1 25
-10 28 -20 6 -17 12 -21 31 -18 3 0 20 -11 39 -25 18 -14 40 -26 49 -26 8 0
29 -25 46 -56 34 -58 76 -104 97 -104 14 0 18 -13 33 -110 6 -41 16 -92 21
-112 7 -28 6 -46 -6 -74 -8 -20 -15 -37 -15 -38 0 -8 84 -3 122 6 37 9 50 9
62 -1 10 -8 26 -11 42 -7 22 6 25 4 20 -9 -3 -9 -6 -28 -6 -41 0 -20 -4 -24
-17 -20 -25 8 -79 -9 -75 -23 1 -6 -2 -11 -6 -11 -18 0 -52 -42 -52 -64 0 -14
-9 -27 -24 -34 -20 -9 -26 -21 -32 -68 -5 -47 -4 -58 10 -66 20 -11 21 -28 1
-28 -10 0 -15 -10 -15 -34 0 -22 -12 -51 -36 -86 -33 -49 -36 -56 -26 -87 6
-19 9 -40 6 -47 -5 -14 89 -70 99 -59 13 12 37 -20 37 -48 0 -16 11 -58 25
-94 13 -36 20 -65 15 -65 -5 0 -6 -8 -3 -17 5 -12 2 -15 -9 -10 -16 6 -29 -10
-34 -43 -2 -8 -5 -24 -9 -35 -4 -15 2 -24 27 -39 47 -26 81 -38 73 -26 -3 6 3
10 15 10 12 0 18 -4 15 -10 -3 -5 1 -10 11 -10 13 0 15 6 11 30 -4 17 -3 30 1
30 17 0 82 -101 82 -128 0 -15 9 -35 21 -45 11 -10 25 -31 30 -46 6 -16 20
-34 33 -40 17 -9 22 -19 18 -37 -3 -16 1 -26 12 -30 16 -6 16 -8 0 -25 -10
-11 -24 -17 -33 -15 -9 3 -27 -1 -40 -8 l-25 -14 33 -17 c19 -9 44 -15 57 -12
15 2 30 -3 40 -14 10 -11 28 -19 41 -19 14 0 23 -6 23 -15 0 -8 8 -15 18 -16
10 0 12 -3 5 -6 -24 -9 5 -44 31 -37 17 4 31 -4 59 -33 20 -20 37 -43 37 -49
0 -7 6 -14 13 -17 9 -3 9 -7 -1 -19 -9 -12 -10 -18 -2 -23 7 -4 10 -16 7 -26
-3 -10 -1 -22 4 -25 6 -3 8 -11 6 -17 -2 -7 4 -23 14 -36 24 -31 24 -53 -1
-76 -19 -17 -19 -19 -3 -38 10 -10 46 -32 80 -48 54 -25 74 -29 160 -30 61 -1
110 -7 130 -16 34 -16 73 -10 73 10 0 7 13 18 30 24 27 10 36 8 89 -24 47 -28
61 -42 67 -67 4 -17 13 -40 20 -51 7 -11 13 -23 14 -27 0 -14 5 -28 14 -50 5
-11 19 -18 35 -18 15 0 36 -7 47 -15 25 -19 44 -19 44 0 0 24 16 18 60 -23 23
-23 43 -52 46 -70 10 -50 30 -59 49 -23 8 17 21 31 28 31 15 1 57 35 57 47 0
4 14 17 30 28 31 20 38 39 20 50 -7 4 -7 13 0 26 14 25 4 40 -23 38 -51 -5
-54 -2 -52 58 l2 57 59 28 c32 15 65 28 72 28 6 0 12 5 12 10 0 6 5 10 10 10
6 0 10 -7 10 -16 0 -12 6 -15 23 -10 12 3 25 6 28 6 4 0 10 11 13 25 4 14 13
25 21 25 12 0 14 7 9 26 -6 24 -5 25 14 15 11 -6 25 -11 31 -11 16 0 40 61 43
108 1 23 5 42 8 42 4 0 13 18 20 41 12 37 12 42 -3 51 -20 11 -23 30 -4 27 6
-1 20 1 31 6 11 5 21 3 25 -4 6 -9 14 -9 34 0 15 7 27 15 27 19 0 3 16 12 35
20 19 8 42 25 51 38 9 13 18 21 21 18 4 -3 13 4 21 16 15 20 13 23 -29 60 -46
40 -113 68 -161 68 -19 0 -38 11 -59 33 -17 17 -27 26 -23 18 5 -11 3 -13 -10
-8 -10 4 -22 7 -27 7 -5 0 -9 6 -9 14 0 9 -7 12 -19 9 -10 -3 -29 0 -41 7 -26
14 -38 6 -21 -14 10 -12 8 -17 -7 -25 -11 -6 -24 -24 -30 -40 -6 -16 -20 -32
-31 -36 -24 -7 -94 12 -86 24 10 17 -31 38 -75 40 -25 1 -49 2 -55 2 -5 1 -30
-4 -55 -11 -51 -13 -64 -14 -103 -4 -19 4 -33 1 -46 -10 -15 -13 -24 -15 -47
-6 -20 8 -25 13 -15 19 10 7 11 13 1 31 -9 17 -9 24 0 30 6 4 10 13 9 21 -6
33 14 89 33 95 12 3 17 11 14 21 -3 8 -2 23 4 33 7 14 6 17 -8 16 -12 -1 -16
5 -14 23 3 21 1 23 -27 19 -20 -3 -31 0 -31 8 0 6 -7 17 -15 24 -12 10 -15 9
-15 -4 0 -10 -4 -15 -9 -12 -5 3 -11 0 -14 -7 -2 -7 -20 -14 -38 -15 -19 -1
-39 -9 -46 -18 -10 -14 -14 -14 -37 1 -14 10 -23 21 -20 26 3 5 -13 27 -36 49
-33 32 -39 44 -34 65 4 15 1 31 -6 40 -10 12 -9 15 8 15 12 0 30 9 41 21 18
19 23 20 58 9 21 -7 44 -17 51 -23 8 -7 12 -5 12 7 0 9 4 16 9 16 15 0 22 32
9 47 -9 11 -9 16 0 22 6 4 23 28 36 54 24 45 25 47 7 57 -13 6 -17 17 -14 30
4 14 -1 22 -21 30 -14 5 -32 7 -39 4 -7 -2 -30 9 -51 25 -21 17 -42 28 -47 25
-5 -3 -14 7 -20 23 -5 15 -22 40 -36 55 -21 22 -28 25 -44 15 -17 -10 -23 -7
-45 21 -14 17 -34 32 -44 32 -10 0 -20 5 -22 11 -2 6 -23 12 -46 14 -23 2 -53
12 -67 23 -19 15 -35 19 -63 15 -31 -4 -44 0 -68 20 -34 29 -51 34 -78 22 -48
-21 -66 42 -23 80 24 21 25 55 2 55 -26 0 -28 23 -4 40 19 15 21 21 10 34 -7
8 -10 20 -6 25 3 6 1 19 -5 30 -7 13 -7 22 0 26 7 4 7 12 0 25 -8 14 -5 21 15
34 13 9 30 28 37 42 17 36 48 46 83 28 15 -8 35 -14 44 -14 9 0 26 -7 37 -15
12 -8 24 -12 26 -9 3 2 11 -2 18 -11 21 -26 70 -12 70 20 0 5 -5 3 -10 -5 -8
-13 -13 -13 -37 0 -35 19 -39 56 -6 52 20 -3 21 0 16 32 -5 31 -2 36 26 51 21
11 34 26 38 46 5 29 6 29 26 12 20 -17 20 -17 15 5 -4 12 -2 22 3 22 15 0 -11
54 -42 86 -21 22 -32 46 -38 83 -4 29 -17 61 -29 74 -17 19 -18 24 -6 35 8 7
18 10 23 7 5 -3 13 4 16 16 6 17 -1 29 -29 55 -42 38 -41 36 -20 98 15 45 15
48 -2 60 -14 11 -18 28 -19 74 0 33 -3 64 -7 68 -17 16 -7 50 20 66 60 38 67
44 75 56 7 11 11 11 24 0 13 -10 17 -10 20 0 3 6 9 10 14 6 5 -3 9 0 9 5 0 6
7 11 15 11 8 0 17 11 21 25 4 15 11 22 18 18 21 -13 86 -13 86 0 0 6 18 20 40
30 45 21 52 45 19 65 -16 10 -18 17 -10 25 18 18 12 44 -15 62 l-26 17 20 21
c33 36 50 80 42 103 -11 29 14 103 45 130 13 12 22 24 20 26 -2 2 -6 16 -9 32
-3 16 -8 31 -11 34 -3 3 1 12 9 21 16 19 29 130 17 149 -5 8 -19 13 -32 12
-42 -4 -49 0 -49 23 0 41 -12 45 -132 52 -111 7 -116 9 -105 26 10 17 7 24
-26 54 -21 19 -42 35 -47 35 -5 0 -16 7 -24 16 -14 13 -16 13 -16 1 0 -18 -63
-32 -87 -19 -10 5 -35 12 -56 16 -52 10 -115 43 -134 72 -13 21 -17 22 -30 9
-17 -18 -19 -18 -60 -6 -24 7 -31 6 -27 -4 7 -17 -73 -30 -92 -14 -11 9 -14 8
-14 -5 0 -9 -13 -25 -29 -34 -17 -9 -35 -27 -40 -39 -12 -25 -31 -29 -49 -11
-8 8 -15 8 -26 -2 -9 -7 -13 -16 -10 -21 3 -5 -1 -9 -8 -9 -7 0 -21 -14 -30
-30 -11 -18 -25 -30 -38 -30 -12 0 -30 -5 -41 -11 -16 -8 -34 -3 -95 30 -42
23 -84 41 -95 41 -10 0 -19 7 -19 15 0 8 -7 15 -15 15 -8 0 -15 7 -15 15 0 22
-26 18 -51 -7 -12 -13 -19 -17 -15 -10 5 8 0 12 -16 12 -28 0 -52 15 -45 26 2
5 1 19 -4 31 -6 16 -13 21 -25 16 -14 -5 -16 -3 -11 11 4 10 7 24 7 32 0 8 11
19 25 24 16 6 23 15 19 25 -3 8 -10 13 -14 10 -4 -3 -10 2 -14 10 -3 8 -16 15
-29 15 -19 0 -26 7 -30 30 -7 33 -21 37 -62 18 -21 -10 -29 -9 -43 5 -15 16
-15 17 0 17 9 0 19 6 22 13 5 10 7 10 12 0 9 -19 24 -16 24 5 0 19 -18 42 -32
42 -4 0 -8 -9 -8 -20 0 -11 -6 -20 -14 -20 -8 0 -21 -3 -30 -6 -10 -4 -25 9
-45 37 -17 23 -31 39 -31 35 0 -4 -6 -1 -14 6 -8 7 -11 16 -7 21 10 10 71 -12
97 -34 29 -27 37 -24 29 14 -10 42 -31 74 -38 55 -2 -7 -8 -9 -13 -5 -5 5 -1
14 9 21 22 17 22 18 -6 48 -24 25 -106 48 -176 48 -20 0 -51 9 -70 21 -31 19
-35 19 -43 5 -5 -9 -13 -14 -18 -11 -5 3 -12 -7 -16 -22 -9 -36 -43 -68 -74
-70 -14 -1 -29 -8 -35 -15 -5 -7 -22 -19 -37 -25 -16 -7 -28 -20 -28 -28 0 -9
-4 -14 -9 -11 -5 4 -11 1 -13 -5 -3 -9 -16 -8 -48 3 -38 12 -46 19 -48 43 -6
47 -37 82 -71 81 -16 -1 -27 -4 -24 -8 12 -20 -14 -4 -54 33 -41 38 -46 40
-62 25 -23 -21 -101 -22 -101 -2 0 9 -20 19 -55 27 -31 7 -58 16 -61 21 -13
21 -22 3 -29 -57z m1095 -322 c0 -11 -4 -11 -20 -3 -11 6 -20 15 -20 19 0 5 9
7 20 4 11 -3 20 -12 20 -20z m120 -48 c14 -16 10 -18 -14 -9 -9 3 -16 10 -16
15 0 14 16 11 30 -6z m-1295 -195 c3 -5 1 -10 -4 -10 -6 0 -11 5 -11 10 0 6 2
10 4 10 3 0 8 -4 11 -10z m-1 -98 c3 -5 7 -20 10 -35 3 -19 0 -27 -10 -27 -8
0 -14 5 -14 11 0 6 -10 20 -22 31 -13 11 -18 17 -11 14 6 -4 14 -2 18 4 7 12
22 13 29 2z m944 -301 c3 -8 -1 -12 -9 -9 -7 2 -15 10 -17 17 -3 8 1 12 9 9 7
-2 15 -10 17 -17z m82 -201 c0 -5 -7 -10 -15 -10 -8 0 -15 5 -15 10 0 6 7 10
15 10 8 0 15 -4 15 -10z m-30 -47 c0 -24 -25 -9 -28 17 -3 21 -2 22 12 11 9
-7 16 -20 16 -28z m1575 -283 c3 -5 2 -10 -4 -10 -5 0 -13 5 -16 10 -3 6 -2
10 4 10 5 0 13 -4 16 -10z m-436 -1009 c9 -6 10 -11 2 -15 -6 -4 -18 0 -27 8
-12 12 -12 16 -2 16 7 0 19 -4 27 -9z m-109 -26 c0 -8 -9 -15 -20 -15 -12 0
-25 -10 -32 -25 -11 -25 -32 -33 -42 -16 -8 13 54 71 76 71 10 0 18 -7 18 -15z
m1660 -1614 c0 -5 -7 -12 -16 -15 -22 -9 -24 -8 -24 9 0 8 9 15 20 15 11 0 20
-4 20 -9z"/>
<path d="M9260 13005 c0 -8 -7 -18 -15 -21 -8 -4 -15 -12 -15 -20 0 -7 6 -11
13 -9 17 7 37 54 26 61 -5 3 -9 -2 -9 -11z"/>
<path d="M10360 12716 c0 -2 6 -9 13 -15 10 -8 14 -7 14 4 0 8 -6 15 -14 15
-7 0 -13 -2 -13 -4z"/>
<path d="M7110 12692 c0 -4 5 -13 12 -20 9 -9 9 -12 0 -12 -9 0 -10 -5 -3 -17
7 -14 4 -24 -12 -42 -21 -22 -21 -23 -2 -13 15 7 25 7 40 -4 25 -19 54 -18 62
2 4 11 13 14 29 10 20 -5 24 -3 24 18 0 13 -7 26 -15 30 -8 3 -15 1 -15 -5 0
-6 -7 -6 -20 1 -11 6 -25 8 -30 5 -6 -3 -10 1 -10 9 0 9 -6 16 -14 16 -8 0
-16 7 -20 15 -6 16 -26 21 -26 7z"/>
<path d="M9429 10666 c7 -8 10 -20 7 -25 -4 -5 -2 -12 3 -16 6 -3 7 -13 4 -22
-5 -12 -2 -15 10 -10 9 3 17 2 17 -2 0 -17 -25 -18 -38 -2 -8 9 -11 10 -7 4 3
-7 1 -13 -5 -13 -6 0 -8 -10 -4 -24 4 -16 1 -25 -11 -30 -10 -3 -13 -11 -8
-18 4 -7 6 -24 4 -37 -2 -16 5 -30 18 -40 20 -15 20 -18 5 -39 -10 -15 -23
-22 -35 -19 -10 3 -20 -2 -23 -10 -5 -12 -9 -13 -21 -3 -13 11 -14 10 -8 -5
11 -30 44 -57 61 -52 78 25 98 37 113 67 13 28 17 30 28 16 14 -17 41 -22 41
-8 0 4 -6 14 -12 20 -9 9 -10 15 -2 20 6 4 14 30 17 57 6 56 -9 87 -45 92 -31
5 -33 10 -13 33 15 17 16 20 3 20 -9 0 -21 7 -28 15 -7 8 -21 15 -31 15 -11 0
-19 4 -19 9 0 5 -7 12 -16 15 -14 5 -15 4 -5 -8z"/>
<path d="M9338 10293 c7 -3 16 -2 19 1 4 3 -2 6 -13 5 -11 0 -14 -3 -6 -6z"/>
<path d="M11065 9612 c-3 -3 -5 -14 -5 -24 0 -10 -5 -18 -12 -18 -7 0 -5 -7 5
-18 15 -17 60 -23 73 -9 3 3 3 19 -1 35 -4 21 -13 31 -30 35 -14 2 -27 2 -30
-1z"/>
<path d="M9605 9570 c-3 -6 1 -7 9 -4 18 7 21 14 7 14 -6 0 -13 -4 -16 -10z"/>
<path d="M9815 9500 c4 -6 11 -8 16 -5 14 9 11 15 -7 15 -8 0 -12 -5 -9 -10z"/>
<path d="M12087 9225 c-10 -7 -17 -21 -15 -30 3 -16 5 -15 28 3 30 24 17 50
-13 27z"/>
<path d="M11991 9170 c-5 -17 -16 -30 -23 -30 -9 0 -9 -3 2 -10 13 -8 18 -26
23 -97 2 -18 4 -20 17 -9 8 7 23 16 34 20 17 6 17 8 2 31 -11 17 -14 36 -10
62 4 31 2 40 -14 50 -18 11 -22 9 -31 -17z"/>
<path d="M11962 8965 c14 -34 26 -45 49 -45 12 0 15 7 11 25 -3 18 -11 25 -26
25 -12 0 -28 6 -35 13 -10 9 -10 6 1 -18z"/>
<path d="M11728 8961 c37 -24 103 -30 80 -8 -7 7 -22 14 -33 14 -11 1 -33 5
-50 8 l-30 7 33 -21z"/>
<path d="M11835 8920 c5 -14 2 -20 -9 -20 -21 0 -21 -39 0 -68 17 -25 44 -29
44 -7 0 9 -6 12 -15 9 -8 -4 -15 -1 -15 5 0 6 9 11 20 11 21 0 41 35 33 57 -3
6 -18 16 -34 22 -28 9 -30 9 -24 -9z"/>
<path d="M11905 8910 c4 -6 11 -8 16 -5 14 9 11 15 -7 15 -8 0 -12 -5 -9 -10z"/>
<path d="M11401 8530 c0 -33 1 -34 11 -12 8 17 8 26 0 34 -9 9 -12 4 -11 -22z"/>
<path d="M11234 8225 c3 -8 1 -15 -5 -15 -6 0 -7 -5 -4 -10 4 -6 -4 -26 -18
-43 -19 -25 -23 -37 -15 -51 12 -21 -18 -60 -39 -52 -25 10 -13 -31 13 -43 22
-10 24 -14 13 -27 -12 -14 -14 -14 -26 2 -12 17 -13 17 -13 -2 -1 -10 -11 -37
-24 -59 -25 -43 -45 -47 -79 -17 -9 8 -39 17 -65 18 -26 1 -64 6 -86 10 -34 6
-38 5 -32 -12 7 -22 -12 -57 -21 -36 -2 6 -12 12 -22 12 -9 0 -25 14 -34 30
-17 29 -37 40 -37 21 0 -11 -50 -44 -67 -44 -7 0 -13 -4 -13 -8 0 -4 -13 -1
-30 7 -16 9 -30 20 -30 25 0 5 -6 9 -14 9 -8 0 -27 15 -43 33 -16 18 -35 31
-41 29 -7 -2 -10 -8 -7 -12 3 -5 -8 -16 -25 -25 -16 -8 -30 -20 -30 -26 0 -19
-35 -56 -48 -51 -9 3 -11 -3 -6 -23 6 -24 5 -26 -21 -19 -25 6 -27 5 -20 -16
4 -13 16 -33 26 -44 11 -11 19 -24 19 -29 0 -5 11 -31 24 -57 15 -31 21 -52
15 -61 -13 -21 -11 -67 4 -76 8 -4 17 -20 21 -35 5 -21 3 -28 -9 -28 -19 0
-19 -7 0 -61 9 -24 13 -55 10 -70 -6 -27 -29 -44 -46 -33 -5 3 -9 1 -9 -4 0
-15 28 -22 34 -9 3 7 3 -3 0 -21 -4 -24 -2 -34 11 -38 13 -5 14 -8 3 -15 -10
-7 -9 -11 5 -21 22 -16 13 -48 -13 -48 -10 0 -20 -7 -24 -15 -3 -8 -12 -15
-21 -15 -18 0 -18 -2 -3 -35 6 -14 19 -25 29 -25 9 0 20 -6 22 -12 4 -10 6
-10 6 0 1 8 9 10 26 6 17 -4 26 -2 29 7 2 8 7 23 12 34 4 11 6 28 5 38 -1 9 3
16 10 15 8 -2 12 17 14 57 2 47 6 61 19 63 9 2 14 8 11 13 -4 5 5 9 19 9 30 0
42 16 26 35 -10 12 -9 15 8 15 13 0 24 11 32 33 7 17 12 35 11 40 -2 13 36 7
49 -8 16 -19 40 -20 40 -1 0 8 7 16 15 20 11 4 13 14 8 37 -4 23 -3 30 5 25 7
-4 12 -1 12 9 0 11 5 15 15 12 8 -4 17 -1 21 4 4 6 20 8 39 5 22 -5 36 -2 45
9 15 18 73 20 92 2 20 -18 112 -41 116 -28 2 6 12 11 21 11 10 0 20 3 24 6 11
11 -18 45 -50 59 -27 12 -33 19 -33 46 0 30 1 31 35 25 27 -5 39 -2 56 15 15
15 18 24 10 32 -16 16 -13 28 7 25 12 -2 16 3 15 18 -2 22 38 49 67 45 27 -4
60 -24 60 -38 0 -7 7 -13 15 -13 11 0 12 -5 5 -26 -16 -41 -12 -67 16 -97 24
-26 25 -29 10 -58 -11 -22 -12 -37 -6 -55 12 -31 12 -37 1 -30 -5 4 -12 -7
-16 -24 -4 -18 -13 -30 -22 -30 -14 0 -14 -2 0 -22 8 -13 22 -22 30 -22 8 1
26 -19 40 -44 19 -35 31 -46 51 -47 14 0 26 2 26 5 0 4 14 22 31 41 26 29 30
40 25 70 -4 27 -2 38 8 42 35 14 17 109 -23 122 -11 3 -24 20 -30 37 -11 32
-7 48 12 48 7 0 18 9 25 21 11 17 10 27 -9 65 -15 33 -19 54 -14 80 5 27 2 41
-11 55 -10 11 -18 29 -20 42 -1 12 -3 25 -3 29 -1 4 -14 14 -30 22 -17 9 -35
31 -45 56 -9 22 -20 40 -25 40 -5 0 -11 10 -14 21 -4 16 -11 20 -26 16 -19 -5
-25 3 -23 24 1 4 -8 15 -18 24 -11 10 -20 23 -20 30 0 13 -32 45 -44 45 -5 0
-6 -7 -2 -15z m-73 -328 c-1 -4 -1 -14 -1 -22 0 -20 -29 -19 -37 1 -3 9 0 20
8 25 15 10 31 8 30 -4z m269 -419 c0 -16 -3 -19 -11 -11 -6 6 -8 16 -5 22 11
17 16 13 16 -11z m-893 -125 c-13 -14 -16 -13 -26 6 -8 14 -8 21 -1 21 5 0 10
10 10 23 1 20 2 20 16 -7 14 -25 14 -30 1 -43z"/>
<path d="M11260 7730 c19 -13 30 -13 30 0 0 6 -10 10 -22 10 -19 0 -20 -2 -8
-10z"/>
<path d="M10370 7512 c0 -12 19 -26 26 -19 2 2 -2 10 -11 17 -9 8 -15 8 -15 2z"/>
<path d="M10240 7481 c-5 -11 -7 -26 -4 -34 7 -19 -22 -47 -47 -47 -11 0 -32
9 -47 20 -36 27 -71 33 -79 15 -3 -10 -13 -13 -27 -9 -14 3 -27 -1 -35 -10 -8
-9 -23 -16 -35 -16 -31 0 -54 -59 -30 -77 16 -11 16 -13 1 -19 -9 -3 -20 -3
-25 0 -6 3 -9 -21 -8 -57 1 -54 -2 -66 -24 -89 -50 -54 -60 -68 -60 -88 0 -11
-7 -20 -15 -20 -31 0 -14 -17 18 -17 17 -1 46 -4 63 -8 26 -6 34 -3 52 20 18
23 24 25 37 15 12 -10 21 -10 41 -1 14 6 32 11 40 11 9 0 22 7 30 15 9 8 12
15 7 15 -5 0 -9 19 -9 43 -1 23 1 36 3 30 3 -10 10 -10 24 -2 11 5 24 7 29 4
6 -3 10 -2 10 4 0 6 12 8 30 5 18 -4 30 -2 30 4 0 14 52 72 65 72 14 0 40 41
40 64 1 27 21 31 28 6 3 -11 12 -20 20 -20 18 0 31 50 22 81 -5 15 -4 19 4 14
18 -11 2 48 -18 63 -9 7 -15 18 -13 23 2 9 -15 7 -54 -8 -7 -2 -15 0 -19 6
-10 17 -33 13 -45 -8z"/>
<path d="M11274 7461 c-12 -9 -23 -23 -26 -31 -2 -8 -13 -15 -24 -16 -10 0
-31 -1 -46 -2 -15 -1 -36 -12 -48 -24 -16 -17 -20 -18 -20 -6 0 9 -7 19 -16
22 -10 4 -13 2 -8 -6 4 -6 -9 1 -29 16 -30 23 -40 26 -52 16 -8 -7 -21 -10
-29 -7 -18 7 -40 -18 -31 -33 4 -6 4 -23 1 -36 -5 -20 -10 -23 -20 -15 -11 9
-15 6 -20 -14 -4 -14 -13 -25 -21 -25 -11 0 -12 -5 -5 -26 14 -35 13 -42 -7
-47 -14 -4 -12 -5 5 -6 13 -1 22 -7 22 -18 0 -9 7 -24 16 -34 19 -22 10 -79
-12 -79 -15 0 -14 -11 3 -56 2 -6 -16 -32 -41 -58 -39 -42 -47 -46 -65 -36
-16 8 -28 7 -50 -5 -38 -19 -50 -19 -73 2 -14 12 -18 13 -18 2 0 -21 52 -61
69 -52 9 3 36 7 60 8 33 1 49 8 63 25 17 21 20 22 36 6 10 -9 29 -16 41 -16
18 0 21 4 16 21 -7 21 -6 21 16 5 30 -20 69 -21 69 -1 0 8 5 14 12 13 6 -2 15
16 20 42 5 25 16 50 24 56 12 10 6 16 -33 35 -26 13 -58 23 -72 23 -26 1 -43
26 -17 26 9 0 26 5 39 12 47 24 57 28 97 34 26 4 45 2 55 -6 35 -29 143 17
129 55 -6 16 12 15 64 -1 18 -5 15 2 -13 30 -28 29 -31 49 -11 88 11 20 12 37
6 58 -5 17 -7 37 -4 43 2 7 -4 17 -14 23 -14 9 -22 8 -38 -5z"/>
<path d="M11520 7293 c0 -7 -10 -13 -22 -13 -13 0 -32 -7 -43 -15 -18 -15 -18
-17 21 -58 22 -23 49 -55 59 -72 10 -16 27 -36 37 -43 22 -16 24 -32 3 -32
-18 0 -21 -45 -3 -56 28 -18 56 -13 62 11 3 13 3 30 0 38 -3 8 -1 18 5 22 19
11 12 43 -16 74 -46 50 -73 88 -73 103 0 18 -29 58 -30 41z"/>
<path d="M11595 6972 c2 -27 16 -44 31 -38 7 3 18 -3 23 -13 14 -25 -18 -50
-54 -43 -20 3 -26 1 -21 -7 4 -6 3 -11 -2 -11 -6 0 -8 -9 -5 -20 4 -16 8 -18
19 -9 11 9 21 8 44 -1 16 -7 30 -16 30 -21 0 -5 7 -9 15 -9 8 0 15 5 15 10 0
6 9 10 20 10 11 0 20 5 20 10 0 6 14 10 30 10 32 0 40 19 16 39 -8 6 -19 24
-26 40 -9 23 -20 30 -53 36 -23 4 -47 7 -53 6 -6 -1 -17 6 -24 14 -17 20 -27
19 -25 -3z"/>
<path d="M10545 6950 c3 -5 14 -10 23 -10 15 0 15 2 2 10 -20 13 -33 13 -25 0z"/>
<path d="M10590 6936 c0 -2 7 -6 15 -10 8 -3 15 -1 15 4 0 6 -7 10 -15 10 -8
0 -15 -2 -15 -4z"/>
<path d="M10607 6903 c-11 -3 -16 -10 -13 -20 3 -8 6 -18 6 -22 0 -4 8 -7 19
-7 12 0 17 6 13 18 -2 10 1 18 7 18 6 0 11 5 11 10 0 10 -12 11 -43 3z"/>
<path d="M11842 6861 c-11 -6 -10 -11 3 -25 9 -9 22 -16 28 -16 7 0 23 -3 37
-6 24 -6 23 -5 -8 25 -36 33 -40 35 -60 22z"/>
<path d="M11953 6814 c-7 -3 -13 -14 -13 -25 0 -10 -4 -19 -9 -19 -5 0 -8 -8
-7 -17 1 -22 43 -45 68 -38 14 5 18 1 18 -19 0 -16 8 -30 21 -37 12 -6 18 -14
13 -18 -5 -3 -9 -17 -9 -30 0 -18 8 -27 32 -35 18 -6 37 -16 44 -23 13 -13 4
-33 -17 -33 -16 0 -18 -9 -4 -30 8 -13 11 -11 16 8 7 25 36 29 54 7 18 -22 39
-18 52 10 7 17 19 25 35 25 14 0 21 4 18 10 -4 6 6 10 24 10 20 0 36 8 50 26
16 21 21 23 21 10 0 -10 6 -16 13 -13 6 2 11 10 10 16 -2 6 4 11 12 11 22 0
18 18 -7 31 -13 7 -28 19 -34 27 -7 9 -18 13 -29 8 -10 -3 -24 -1 -32 6 -12
10 -13 7 -8 -18 4 -16 3 -24 -2 -18 -4 6 -34 19 -66 28 -32 9 -55 21 -52 26 3
5 -5 16 -17 24 -13 9 -23 24 -23 34 0 11 -8 17 -23 17 -13 0 -30 8 -37 18 -12
17 -89 32 -112 21z"/>
<path d="M12440 6621 c0 -6 9 -29 21 -51 23 -44 44 -50 79 -22 28 22 19 48
-10 32 -12 -6 -21 -7 -25 0 -10 17 -65 52 -65 41z"/>
<path d="M12578 6593 c7 -3 16 -2 19 1 4 3 -2 6 -13 5 -11 0 -14 -3 -6 -6z"/>
<path d="M12345 6560 c3 -5 8 -10 11 -10 2 0 4 5 4 10 0 6 -5 10 -11 10 -5 0
-7 -4 -4 -10z"/>
</g>
</svg>
