<?xml version="1.0" standalone="no"?>
<!DOCTYPE svg PUBLIC "-//W3C//DTD SVG 20010904//EN"
 "http://www.w3.org/TR/2001/REC-SVG-20010904/DTD/svg10.dtd">
<svg version="1.0" xmlns="http://www.w3.org/2000/svg"
 width="589.879265pt" height="453.292743pt" viewBox="0 0 589.879265 453.292743"
 preserveAspectRatio="xMidYMid meet">
<metadata>
Created by potrace 1.15, written by Peter Selinger 2001-2017
</metadata>
<g transform="translate(-741.990976,1222.759551) scale(0.100000,-0.100000)"
fill="#222222" stroke="none">
<path d="M7422 12223 c7 -13 16 -23 19 -23 4 0 10 -11 13 -25 4 -14 11 -25 16
-25 6 0 10 -7 10 -15 0 -15 49 -65 63 -65 10 0 46 -41 47 -54 0 -5 -6 -3 -14
3 -11 9 -15 5 -19 -19 -8 -37 -1 -58 24 -65 22 -7 24 -16 7 -33 -9 -9 -9 -12
3 -12 34 0 50 -35 66 -142 3 -21 11 -42 19 -49 19 -15 18 -49 -2 -63 -13 -10
-13 -12 5 -13 12 -1 26 7 31 18 6 11 15 17 21 14 12 -8 12 2 -1 26 -9 16 -7
19 10 19 11 0 23 -7 26 -15 6 -14 8 -13 21 2 9 11 12 12 8 3 -5 -12 -4 -12 7
1 7 9 19 14 26 12 6 -3 12 -1 12 4 0 13 53 8 78 -8 16 -10 23 -10 35 0 13 10
21 9 46 -3 30 -16 31 -15 44 10 9 17 17 23 21 15 10 -16 36 -14 30 3 -3 8 3
16 15 19 21 5 49 52 38 63 -12 12 -87 -8 -87 -23 0 -11 -5 -13 -17 -8 -10 5
-39 13 -65 18 -36 8 -48 15 -48 30 0 10 -4 16 -9 12 -17 -10 -61 18 -82 52
-11 18 -25 31 -30 27 -5 -3 -12 2 -15 11 -4 9 -13 14 -21 11 -23 -9 -53 12
-53 37 0 13 -7 32 -15 43 -12 16 -16 17 -24 4 -5 -8 -7 -18 -4 -24 3 -5 1 -6
-6 -2 -6 4 -9 16 -6 25 3 10 -1 24 -10 31 -11 9 -14 22 -10 40 4 19 0 31 -15
45 -11 10 -20 25 -20 33 0 11 -3 12 -14 3 -8 -7 -33 -14 -55 -16 -38 -3 -45 0
-87 43 -25 26 -39 37 -32 25z"/>
<path d="M12099 12183 c-13 -16 -12 -17 4 -4 16 13 21 21 13 21 -2 0 -10 -8
-17 -17z"/>
<path d="M12147 12160 c-3 -13 2 -25 16 -35 20 -14 22 -14 25 5 7 46 -30 72
-41 30z"/>
<path d="M12084 12133 c1 -25 6 -33 19 -33 10 0 20 -7 23 -15 7 -18 -22 -50
-31 -35 -3 6 -21 18 -38 27 -30 15 -31 15 -18 -1 13 -16 12 -17 -12 -11 -23 6
-27 4 -27 -13 0 -24 -15 -37 -55 -46 -16 -4 -33 -12 -36 -18 -4 -7 -14 -6 -28
2 -21 11 -22 10 -12 -9 13 -23 5 -51 -15 -51 -17 0 -18 -17 -1 -23 9 -4 9 -8
0 -14 -8 -6 -8 -13 3 -27 8 -11 14 -16 14 -11 0 6 16 -14 35 -43 20 -28 41
-52 47 -52 6 0 19 -7 29 -16 14 -12 22 -13 38 -4 25 13 27 3 5 -28 -8 -12 -24
-22 -35 -22 -10 0 -28 -8 -38 -17 -43 -39 -51 -43 -76 -37 -23 6 -25 3 -25
-25 0 -20 -5 -31 -14 -31 -8 0 -16 -6 -19 -14 -8 -21 -45 -26 -63 -9 -13 13
-12 18 12 38 28 24 41 70 23 81 -13 7 -49 -24 -49 -43 0 -7 -7 -13 -16 -13
-11 0 -13 -6 -9 -19 4 -14 1 -19 -12 -17 -12 0 -19 -7 -21 -22 -3 -21 -8 -23
-45 -20 -40 3 -41 2 -43 -31 -2 -38 -16 -51 -60 -51 -20 0 -39 9 -54 25 -13
14 -34 25 -46 25 -13 0 -26 5 -29 10 -4 6 -16 8 -27 4 -21 -6 -40 9 -74 60
l-19 29 -6 -33 c-6 -29 -3 -38 24 -63 17 -16 39 -29 49 -30 19 -1 29 -17 35
-56 3 -20 1 -23 -16 -18 -12 3 -21 1 -21 -4 0 -5 -9 -9 -19 -9 -14 0 -18 -5
-14 -20 6 -21 -6 -27 -23 -10 -15 15 -60 -4 -74 -30 -6 -12 -18 -19 -25 -16
-9 3 -12 0 -8 -10 3 -7 0 -14 -6 -14 -6 0 -17 -13 -25 -29 -19 -36 -43 -46
-62 -26 -9 8 -21 16 -27 16 -27 3 -52 -4 -59 -14 -4 -7 -21 -10 -39 -9 -17 2
-35 -1 -39 -7 -4 -8 -15 -5 -32 9 -15 11 -33 20 -41 20 -7 0 -22 10 -33 21
-29 33 -71 47 -113 38 -19 -4 -37 -13 -39 -18 -2 -6 -16 -11 -32 -11 -16 0
-41 -5 -55 -10 -22 -8 -34 -6 -62 11 -19 12 -37 19 -40 15 -3 -3 -12 -1 -19 5
-15 12 -44 -25 -44 -57 0 -13 -12 -37 -27 -54 -24 -29 -25 -35 -15 -62 13 -35
3 -61 -29 -79 -11 -6 -25 -23 -30 -38 -8 -22 -15 -27 -33 -24 -26 5 -79 -24
-70 -38 3 -5 -8 -9 -24 -9 -16 0 -35 -6 -41 -14 -7 -8 -23 -17 -36 -20 -14 -4
-25 -13 -25 -21 0 -8 -7 -18 -17 -23 -14 -9 -14 -10 5 -16 24 -8 29 -30 11
-42 -8 -4 -3 -12 13 -20 21 -11 25 -19 22 -51 -3 -43 -28 -67 -54 -53 -24 13
-60 8 -60 -8 0 -8 -7 -11 -17 -8 -66 19 -70 19 -81 -13 -8 -23 -7 -32 3 -41
17 -14 8 -48 -16 -63 -12 -8 -19 -23 -19 -44 0 -44 -16 -83 -35 -83 -8 0 -15
-7 -15 -15 0 -8 -6 -15 -13 -15 -28 0 -77 -32 -77 -50 0 -21 -29 -34 -54 -24
-10 4 -16 1 -16 -8 0 -8 -9 -23 -19 -32 -11 -10 -17 -24 -14 -32 8 -21 -15
-43 -53 -50 -29 -5 -33 -9 -28 -29 4 -17 0 -27 -15 -36 -14 -10 -17 -17 -10
-26 12 -14 2 -56 -12 -48 -5 4 -9 1 -9 -6 0 -8 -4 -8 -15 1 -11 9 -15 9 -15 1
0 -6 7 -14 15 -17 12 -5 13 -10 5 -20 -7 -7 -18 -10 -26 -7 -13 5 -14 -1 -9
-29 6 -33 5 -35 -17 -31 -30 6 -111 -73 -89 -86 12 -8 12 -14 1 -40 -7 -17
-17 -31 -22 -31 -5 0 -15 -15 -23 -32 -14 -35 -65 -88 -102 -107 -15 -7 -20
-17 -16 -31 3 -12 -2 -29 -13 -41 -12 -13 -18 -35 -18 -60 1 -21 -1 -39 -5
-39 -3 0 -26 5 -50 11 -40 9 -45 8 -59 -13 -9 -12 -15 -35 -13 -50 2 -20 -2
-28 -13 -28 -9 0 -16 -5 -16 -10 0 -6 -13 -18 -28 -28 -18 -11 -26 -23 -24
-36 2 -11 -2 -24 -10 -30 -23 -17 -39 -53 -31 -72 4 -12 3 -15 -5 -10 -7 4
-12 2 -12 -3 0 -6 4 -11 8 -11 5 0 14 -10 21 -23 7 -13 26 -31 42 -41 16 -9
29 -23 29 -30 0 -7 27 -30 59 -51 66 -44 87 -73 97 -134 4 -28 19 -55 44 -84
32 -36 44 -42 79 -43 22 0 41 3 41 8 0 5 9 6 20 3 16 -5 20 -2 20 14 0 15 6
21 23 21 27 0 64 34 48 44 -6 4 -9 27 -6 53 2 26 -1 53 -6 60 -8 9 -4 14 18
19 15 4 33 14 39 22 6 9 28 16 48 16 30 1 39 6 49 29 6 15 17 27 22 27 9 0 39
60 32 66 -12 10 -47 13 -47 4 0 -6 -4 -8 -10 -5 -6 3 -7 -1 -4 -9 4 -10 1 -16
-9 -16 -8 0 -17 -6 -20 -12 -3 -8 -9 -3 -15 12 -5 14 -6 26 -1 28 5 2 9 10 9
18 0 8 3 13 8 13 20 -3 31 2 28 14 -12 37 -16 68 -8 63 5 -3 19 5 31 18 31 33
67 41 97 21 33 -22 64 -20 64 5 0 10 16 35 35 54 27 27 35 44 35 70 0 19 -4
37 -8 40 -5 3 -7 19 -4 37 l5 32 63 -6 c58 -6 64 -4 64 12 0 19 26 31 71 31
64 0 164 93 152 141 -4 14 5 22 35 35 25 11 38 23 35 31 -3 8 3 13 16 13 30 0
101 38 101 53 0 7 9 23 19 34 14 15 16 24 8 32 -18 18 2 25 22 7 18 -17 19
-16 26 3 3 12 11 21 16 21 12 0 12 33 -1 46 -7 7 -6 19 4 38 16 31 30 19 20
-18 -4 -17 -1 -27 12 -34 13 -7 16 -19 12 -55 -5 -43 -4 -45 25 -54 25 -7 33
-17 47 -60 9 -28 24 -63 33 -77 10 -14 17 -31 17 -37 0 -7 7 -21 17 -31 11
-12 12 -18 3 -18 -7 0 -10 -7 -6 -15 4 -12 0 -14 -17 -10 -19 5 -23 2 -25 -20
-1 -17 2 -25 10 -23 26 9 47 -36 42 -88 -4 -47 -29 -112 -48 -126 -5 -3 -2
-14 7 -23 10 -9 17 -20 17 -24 0 -4 8 -8 18 -9 44 -4 61 -9 85 -25 30 -19 47
-22 47 -7 0 18 36 11 74 -15 20 -14 43 -25 51 -25 8 0 15 -4 15 -10 0 -5 -8
-10 -19 -10 -29 0 -45 -24 -26 -40 34 -29 0 -110 -47 -110 l-27 0 31 -47 c18
-26 27 -48 21 -50 -5 -2 -8 -14 -6 -27 4 -20 0 -24 -29 -29 -18 -2 -38 -1 -44
4 -16 13 -25 -1 -13 -22 7 -15 6 -19 -5 -19 -9 0 -20 -9 -27 -21 -9 -17 -7
-25 11 -44 l23 -24 -29 2 c-22 2 -30 8 -32 25 -4 25 -14 28 -31 8 -8 -9 -10
-28 -5 -52 5 -30 3 -40 -11 -50 -14 -11 -16 -16 -6 -28 8 -10 9 -16 1 -21 -5
-3 -10 -15 -10 -26 0 -11 -7 -22 -15 -25 -8 -4 -15 -17 -15 -29 0 -13 -4 -27
-10 -30 -5 -3 -10 -24 -10 -45 0 -25 -7 -46 -19 -57 -10 -10 -24 -28 -30 -40
-7 -14 -21 -23 -35 -23 -19 0 -24 -7 -30 -37 -3 -21 -6 -51 -6 -66 0 -16 -4
-26 -10 -22 -18 11 -10 -11 10 -30 24 -22 25 -41 4 -105 -11 -33 -22 -50 -37
-54 -12 -3 -29 -20 -37 -38 -9 -20 -22 -32 -32 -32 -14 1 -18 -6 -18 -36 0
-22 5 -40 13 -43 9 -3 6 -16 -10 -51 -26 -54 -28 -67 -10 -60 8 3 19 -1 25 -9
9 -10 7 -18 -8 -34 -10 -12 -16 -23 -14 -26 10 -9 -17 -48 -29 -44 -7 2 -25
-5 -41 -16 -27 -19 -28 -21 -10 -28 10 -3 28 -2 39 4 33 17 78 18 120 1 27
-11 41 -12 43 -4 2 6 14 23 27 38 17 21 21 35 17 62 -4 29 -3 33 9 23 11 -9
19 -8 33 3 11 8 30 14 42 14 13 0 25 4 28 9 3 5 19 11 36 13 26 4 30 2 30 -20
0 -20 3 -22 14 -13 23 19 83 3 93 -24 7 -21 10 -22 26 -10 15 11 17 17 7 35
-10 19 -10 21 8 16 24 -8 52 2 52 18 0 14 41 36 66 36 8 0 26 12 40 26 25 24
25 26 8 45 -12 14 -14 19 -4 19 10 0 9 3 -2 13 -9 6 -18 23 -20 37 -2 19 3 26
27 33 18 5 48 31 73 62 29 36 53 56 73 60 19 4 34 16 39 31 5 13 15 24 23 24
22 0 80 67 73 85 -3 9 1 27 10 40 13 20 13 30 3 64 -10 33 -10 46 1 66 7 13
17 22 21 19 4 -2 11 1 14 7 4 5 13 8 20 5 8 -3 15 0 18 7 2 6 12 12 23 13 62
3 70 5 79 26 6 12 25 29 42 37 24 12 32 22 32 41 0 14 -3 20 -5 13 -3 -7 -13
-4 -28 10 -68 63 -93 84 -109 90 -9 3 -29 27 -45 52 -15 25 -32 43 -39 41 -16
-6 -24 7 -28 47 -2 18 -1 26 2 19 2 -6 9 -10 14 -7 4 3 19 -1 32 -10 21 -14
27 -14 54 0 17 9 34 22 37 30 4 11 21 15 60 15 40 0 55 4 60 16 4 10 13 13 25
9 22 -7 71 20 71 39 0 6 13 16 28 22 16 6 35 25 44 45 9 19 28 45 42 58 14 14
26 35 26 48 0 14 4 21 10 18 6 -4 15 7 21 24 8 22 19 32 42 37 18 3 35 11 39
17 5 8 13 6 25 -5 19 -17 43 -13 56 9 5 7 12 11 18 8 5 -4 9 1 9 9 0 24 51 12
77 -18 23 -27 23 -27 47 -9 24 19 24 20 5 44 -10 13 -19 36 -19 50 0 15 -9 38
-20 52 -11 14 -20 29 -20 33 0 4 -7 16 -16 25 -15 16 -15 26 -5 79 7 33 9 65
6 71 -4 6 2 13 14 16 15 4 21 13 21 33 0 15 7 33 15 40 8 7 15 28 15 46 0 29
3 34 24 34 29 0 36 20 36 119 0 64 2 72 15 61 12 -10 15 -10 15 1 1 9 8 6 19
-8 11 -13 24 -23 29 -23 6 0 14 -9 17 -20 3 -11 15 -24 24 -30 16 -8 20 -5 25
21 3 17 1 39 -4 50 -15 28 3 55 52 77 27 13 36 22 28 27 -9 6 -9 9 1 15 10 7
6 17 -14 44 -24 31 -25 36 -12 50 8 8 15 30 15 50 0 26 6 38 23 47 12 7 25 17
29 23 11 16 9 66 -2 66 -6 0 -18 16 -27 35 -9 19 -23 35 -30 35 -8 0 -24 7
-38 16 -18 12 -34 13 -66 7 -43 -8 -43 -8 -51 -70 -2 -17 -13 -16 -47 1 -24
13 -27 19 -23 51 2 20 10 39 17 42 10 3 12 18 8 50 -4 40 -3 44 14 39 65 -19
70 -18 77 9 5 21 10 24 20 16 10 -9 15 -8 20 4 3 8 12 15 21 15 8 0 15 4 15 9
0 14 -26 21 -38 9 -6 -6 -12 -6 -18 3 -4 7 -3 14 4 17 15 5 16 68 2 77 -5 3
-10 16 -10 29 0 12 -6 28 -12 35 -11 10 -9 15 6 26 13 10 17 22 14 40 -4 21
-1 25 17 25 31 0 75 58 65 85 -4 11 -3 28 1 38 5 9 13 26 19 37 6 12 6 21 0
25 -20 12 -10 45 15 51 14 3 25 13 25 21 0 11 7 14 25 11 19 -4 25 -1 25 13 0
11 6 19 14 19 8 0 17 14 21 30 5 22 10 28 18 21 8 -6 18 -5 30 4 15 11 17 21
12 62 -4 26 -14 55 -22 64 -8 9 -16 36 -18 60 -2 24 -6 57 -10 72 -5 20 -3 33
10 47 19 21 13 40 -15 40 -10 0 -20 7 -24 15 -3 9 -18 15 -37 15 -22 0 -32 5
-36 20 -6 24 -23 27 -23 4 0 -13 -3 -14 -14 -4 -13 10 -15 7 -13 -17 3 -32
-17 -52 -50 -53 -13 0 -23 -4 -23 -10 0 -5 -5 -10 -11 -10 -5 0 -7 4 -4 10 3
5 0 20 -7 32 -7 13 -11 29 -10 35 6 27 -20 93 -39 104 -12 6 -18 17 -15 25 3
8 -4 19 -17 25 -38 20 -37 19 -37 144 -1 17 -4 25 -8 18 -5 -8 -13 -9 -22 -3
-11 7 -12 10 -2 10 10 0 10 5 -2 22 -16 22 -22 48 -10 35 10 -9 41 35 45 63 3
20 -1 26 -18 28 -13 2 -23 10 -23 18 0 8 -6 14 -14 14 -8 0 -16 6 -19 13 -2 6
-4 -3 -3 -20z m81 -483 c3 -5 -1 -10 -9 -10 -9 0 -16 5 -16 10 0 6 4 10 9 10
6 0 13 -4 16 -10z m45 -51 c0 -5 -7 -9 -15 -9 -9 0 -15 9 -15 21 0 18 2 19 15
9 8 -7 15 -16 15 -21z m-720 -139 c0 -5 -7 -10 -15 -10 -8 0 -15 5 -15 10 0 6
7 10 15 10 8 0 15 -4 15 -10z m385 -70 c3 -5 1 -10 -4 -10 -6 0 -11 5 -11 10
0 6 2 10 4 10 3 0 8 -4 11 -10z m-786 -181 c-7 -4 -17 -5 -22 -2 -5 3 -3 9 4
14 7 4 17 5 22 2 5 -3 3 -9 -4 -14z m291 -102 c-1 -21 -1 -21 -15 -3 -8 10
-12 23 -9 28 9 14 24 -2 24 -25z m388 -261 c34 -18 46 -40 32 -64 -33 -59 -49
-112 -42 -133 6 -16 4 -28 -7 -41 -34 -40 -80 -13 -116 70 -11 27 -24 42 -36
42 -10 0 -28 14 -40 31 -21 30 -21 31 -2 20 17 -8 22 -7 27 4 3 8 16 15 30 15
13 0 26 6 29 13 3 9 7 9 20 -2 15 -12 17 -10 17 15 0 16 -4 44 -10 63 -14 50
-3 56 35 17 18 -19 47 -41 63 -50z m-158 -725 c0 -10 -7 -21 -15 -25 -16 -6
-19 3 -9 28 8 22 24 20 24 -3z m-1537 -85 c3 -8 20 -22 36 -31 30 -15 31 -15
31 5 0 33 17 14 18 -20 0 -17 -4 -28 -9 -24 -6 3 -7 -4 -3 -20 5 -20 1 -30
-17 -45 -24 -19 -24 -19 -46 1 -26 24 -31 53 -9 45 23 -9 39 18 20 33 -20 18
-47 70 -35 70 5 0 11 -7 14 -14z m87 -157 c0 -11 -4 -17 -10 -14 -5 3 -10 13
-10 21 0 8 5 14 10 14 6 0 10 -9 10 -21z m17 -21 c-3 -8 -6 -5 -6 6 -1 11 2
17 5 13 3 -3 4 -12 1 -19z m713 -632 c0 -3 -4 -8 -10 -11 -5 -3 -10 -1 -10 4
0 6 5 11 10 11 6 0 10 -2 10 -4z m117 -42 c-9 -9 -28 6 -21 18 4 6 10 6 17 -1
6 -6 8 -13 4 -17z m269 -549 c4 -8 11 -12 17 -8 6 3 7 1 3 -5 -3 -6 2 -15 11
-21 10 -5 14 -13 10 -17 -5 -5 -11 -4 -15 2 -4 5 -20 17 -35 27 -15 10 -25 22
-22 27 9 15 25 12 31 -5z m-586 -636 c0 -6 -4 -7 -10 -4 -5 3 -10 11 -10 16 0
6 5 7 10 4 6 -3 10 -11 10 -16z"/>
<path d="M9701 12034 c-12 -13 -27 -24 -35 -24 -7 0 -18 -6 -24 -13 -12 -14
-82 -11 -82 3 0 4 -9 10 -20 13 -26 7 -25 -6 4 -40 19 -22 22 -32 14 -49 -6
-12 -19 -25 -29 -27 -11 -3 -19 -14 -19 -26 0 -34 -21 -69 -46 -75 -26 -7 -72
1 -90 16 -7 5 -25 8 -41 6 -16 -1 -34 1 -40 5 -6 4 -13 0 -16 -7 -3 -8 -31
-31 -62 -51 -41 -26 -60 -33 -73 -26 -11 6 -19 5 -27 -6 -10 -13 -16 -13 -34
-3 -12 6 -44 18 -71 26 -30 9 -58 26 -74 45 -18 21 -32 29 -45 24 -10 -3 -23
1 -31 10 -7 8 -27 15 -44 15 -24 0 -35 -7 -48 -30 -9 -17 -23 -30 -31 -30 -7
0 -24 -12 -38 -26 -18 -19 -31 -24 -50 -20 -35 7 -43 -3 -22 -26 9 -10 12 -18
7 -18 -11 0 17 -20 29 -20 4 0 7 7 7 15 0 13 4 14 23 3 12 -7 25 -12 29 -13 3
0 10 -3 14 -7 14 -15 26 -8 14 7 -16 20 -6 19 25 -1 14 -9 25 -22 25 -29 0 -9
18 -12 65 -10 54 2 68 -1 75 -16 6 -10 19 -21 30 -24 11 -4 18 -10 15 -15 -3
-5 15 -25 40 -45 25 -21 45 -45 45 -55 0 -14 12 -19 56 -24 32 -4 67 -15 82
-26 29 -23 48 -25 55 -6 7 18 51 9 73 -15 20 -22 54 -25 54 -6 0 7 13 23 29
35 21 15 28 27 24 42 -4 14 -1 20 13 20 9 0 15 3 12 6 -3 3 4 16 17 30 15 16
28 22 40 17 12 -4 16 -3 12 4 -4 6 0 16 7 22 10 8 16 9 21 1 3 -6 11 -7 17 -4
20 13 83 11 103 -2 25 -18 37 -18 61 2 10 8 13 13 7 9 -8 -4 -13 1 -13 12 0
11 -4 23 -10 29 -9 9 -4 40 16 88 6 15 4 18 -7 14 -25 -9 -56 9 -61 37 -4 19
-2 25 8 21 7 -3 15 0 17 7 3 8 13 4 29 -10 25 -24 62 -30 73 -13 3 6 -2 10
-12 10 -22 0 -50 31 -59 64 -9 38 13 94 39 98 25 3 36 43 18 61 -6 6 -11 18
-11 27 0 25 -56 21 -79 -6z"/>
<path d="M8508 11947 c-9 -10 -20 -12 -29 -7 -8 5 -19 4 -27 -2 -9 -8 -16 -8
-24 0 -7 7 -26 12 -44 12 -27 0 -31 -3 -27 -23 4 -18 -2 -26 -22 -35 -15 -7
-31 -10 -36 -7 -5 4 -19 -1 -31 -11 -23 -16 -23 -16 9 -10 27 4 38 0 65 -24
23 -22 43 -30 68 -30 19 0 52 -9 73 -20 20 -11 37 -17 37 -14 0 3 13 -4 29
-15 16 -12 32 -21 36 -21 9 0 -3 37 -26 84 -18 35 -18 40 -4 55 19 22 19 23
-8 55 -21 24 -26 26 -39 13z"/>
<path d="M8160 11840 c0 -5 9 -10 21 -10 11 0 17 5 14 10 -3 6 -13 10 -21 10
-8 0 -14 -4 -14 -10z"/>
<path d="M9820 11790 c0 -5 4 -10 9 -10 5 0 11 -9 14 -20 5 -21 -7 -28 -18
-10 -10 16 -32 -5 -37 -35 -3 -13 0 -29 5 -34 8 -8 6 -15 -7 -24 -11 -8 -15
-19 -10 -30 8 -22 20 -22 28 0 5 12 9 14 18 5 14 -14 52 -16 43 -3 -12 20 50
31 93 17 17 -6 22 -3 22 9 0 12 6 15 20 10 28 -9 26 15 -5 61 -14 20 -25 43
-25 50 0 19 -25 18 -40 -1 -10 -12 -10 -19 -2 -27 15 -15 16 -32 2 -23 -6 3
-10 -4 -10 -16 0 -22 1 -22 13 -4 8 10 19 15 25 11 9 -5 7 -14 -5 -31 -21 -27
-43 -17 -43 21 0 26 -55 94 -76 94 -8 0 -14 -4 -14 -10z"/>
<path d="M9181 11774 c0 -11 3 -14 6 -6 3 7 2 16 -1 19 -3 4 -6 -2 -5 -13z"/>
<path d="M11310 11682 c0 -4 -16 -6 -36 -4 l-36 4 16 -31 c17 -32 30 -43 20
-16 -4 10 0 15 15 15 14 0 19 -5 15 -15 -4 -8 -1 -15 5 -15 6 0 11 -6 11 -14
0 -19 32 -30 42 -14 4 7 8 21 8 31 0 9 6 17 13 18 6 0 -3 7 -20 15 -18 8 -33
19 -33 24 0 6 -4 10 -10 10 -5 0 -10 -4 -10 -8z"/>
<path d="M7748 11643 c-9 -2 -22 -16 -28 -31 -19 -46 -34 -72 -42 -72 -3 0 -3
-13 2 -29 9 -32 5 -42 -15 -35 -7 3 -15 -4 -18 -15 -4 -15 3 -24 32 -38 36
-18 71 -19 71 -3 0 5 -9 12 -20 15 -27 9 -25 23 5 37 30 14 32 29 5 53 -11 10
-20 22 -20 27 0 4 9 8 20 8 15 0 20 7 20 26 0 19 4 25 15 20 18 -7 19 5 3 25
-7 9 -21 14 -30 12z"/>
<path d="M12541 11634 c0 -11 3 -14 6 -6 3 7 2 16 -1 19 -3 4 -6 -2 -5 -13z"/>
<path d="M10335 11630 c-3 -6 -16 -8 -29 -4 -14 3 -27 -1 -35 -10 -10 -12 -18
-13 -33 -5 -11 6 -21 9 -22 7 -1 -2 -8 -15 -16 -30 -8 -17 -22 -28 -34 -29
-16 0 -13 -3 9 -10 19 -5 31 -5 36 2 4 7 14 7 30 0 13 -5 36 -12 51 -15 17 -4
34 -18 43 -36 9 -17 24 -30 35 -30 13 0 28 -19 51 -65 18 -36 35 -68 39 -70 4
-3 20 14 36 36 23 34 32 40 56 37 20 -3 29 0 33 13 3 10 15 21 26 24 11 4 31
17 46 31 21 20 23 25 10 30 -9 3 -21 3 -27 -1 -6 -3 -20 6 -33 21 -12 14 -32
38 -45 51 -17 18 -20 28 -13 37 6 7 8 16 4 19 -11 11 -23 8 -23 -6 0 -16 -37
-57 -50 -57 -6 0 -10 6 -10 13 0 6 -27 22 -59 35 -67 25 -68 25 -76 12z"/>
<path d="M10091 11594 c6 -8 18 -14 26 -14 20 0 8 16 -17 23 -17 4 -19 3 -9
-9z"/>
<path d="M7598 11568 c4 -18 2 -20 -17 -15 -16 4 -21 1 -19 -9 2 -8 6 -15 11
-15 4 1 25 1 46 1 l39 0 -14 30 c-18 36 -55 43 -46 8z"/>
<path d="M7520 11509 c-35 -14 -36 -17 -10 -44 30 -32 60 -33 60 -2 0 38 -21
57 -50 46z"/>
<path d="M8922 11476 c-7 -16 -29 -30 -70 -44 -53 -18 -61 -18 -75 -5 -8 9
-28 17 -44 19 -27 3 -29 1 -25 -30 2 -20 -5 -54 -19 -85 -16 -39 -19 -55 -10
-64 14 -14 15 -54 1 -62 -17 -11 -11 -25 15 -35 14 -5 25 -14 25 -20 0 -6 9
-20 20 -32 26 -28 26 -68 0 -75 -11 -3 -17 -9 -14 -14 3 -5 0 -9 -5 -9 -6 0
-11 6 -11 13 0 7 -7 4 -15 -7 -8 -11 -15 -14 -15 -8 0 25 -38 12 -45 -15 -14
-49 -13 -64 2 -52 10 9 13 6 13 -15 0 -16 4 -25 10 -21 6 3 10 -1 10 -9 0 -8
-4 -17 -10 -21 -5 -3 -7 -12 -4 -19 5 -14 -52 -32 -88 -28 -22 2 -22 -1 -3
-38 13 -25 13 -29 -1 -34 -9 -3 -24 -6 -35 -6 -10 0 -19 -5 -19 -11 0 -7 -12
-10 -29 -7 -24 3 -27 1 -23 -15 5 -18 2 -19 -24 -12 -31 9 -96 8 -157 -1 -36
-6 -37 -7 -22 -24 8 -9 13 -24 10 -32 -3 -8 1 -21 10 -28 24 -20 18 -33 -7
-16 -26 18 -48 21 -48 6 0 -5 5 -10 10 -10 6 0 30 -10 55 -21 42 -20 89 -73
108 -122 4 -10 12 -15 17 -12 8 5 7 11 -1 21 -6 8 -8 14 -3 14 15 -1 49 -33
75 -72 13 -21 32 -38 41 -38 17 0 58 -45 58 -64 0 -6 11 -12 25 -12 30 -2 93
-55 87 -73 -4 -13 52 -71 69 -71 5 0 8 -5 6 -12 -1 -7 13 -20 31 -29 21 -11
29 -20 22 -24 -8 -5 -4 -16 13 -34 14 -14 29 -38 32 -53 4 -15 13 -32 21 -39
8 -6 14 -18 14 -25 0 -8 10 -14 24 -14 13 0 27 -6 29 -12 3 -7 6 -1 6 15 1 29
10 34 29 15 16 -16 16 -31 0 -22 -7 5 3 -11 22 -34 39 -46 45 -49 54 -26 3 9
13 14 21 11 11 -5 12 -1 5 19 -6 14 -10 40 -10 59 0 27 5 35 29 43 38 13 53
-1 40 -36 -8 -21 -7 -29 7 -39 10 -7 25 -13 34 -13 9 0 26 -14 39 -31 20 -26
27 -29 54 -23 30 6 52 26 57 49 1 6 8 18 17 27 13 14 13 20 3 33 -9 11 -9 19
-2 28 7 7 7 18 2 27 -5 9 -3 21 6 34 8 11 14 31 14 44 0 23 49 82 69 82 6 0
15 9 21 20 7 13 21 20 42 20 17 0 49 8 69 18 31 14 39 22 39 45 0 17 7 30 18
34 9 4 23 13 30 20 7 7 22 13 33 13 12 0 17 4 13 11 -3 6 2 28 11 50 17 37 17
40 0 59 -15 16 -16 25 -7 43 6 12 12 39 14 61 4 33 0 41 -24 59 -32 23 -36 37
-12 37 9 0 27 11 40 25 13 14 28 25 35 25 7 0 9 9 6 22 -3 12 3 43 14 69 22
51 19 69 -11 69 -17 0 -40 26 -40 44 0 4 15 0 34 -8 31 -13 36 -13 50 3 21 23
20 30 -6 59 -22 23 -22 24 -3 20 16 -2 20 3 21 23 1 14 4 31 8 37 8 14 -12 20
-50 15 -24 -4 -35 0 -46 15 -8 12 -27 26 -44 32 -27 11 -28 13 -11 24 9 7 17
25 17 40 0 14 5 26 10 26 6 0 3 11 -7 25 -11 14 -25 22 -34 19 -17 -5 -49 19
-49 37 0 6 -4 8 -9 5 -4 -3 -16 3 -26 14 -16 18 -16 20 -2 26 13 5 10 12 -18
40 -19 19 -38 34 -41 34 -4 0 -16 8 -27 18 -11 9 -17 11 -13 4 4 -7 5 -25 2
-38 -5 -20 -11 -24 -24 -19 -28 13 -92 16 -92 5 0 -16 -126 -12 -139 4 -7 8
-20 12 -31 9 -11 -3 -40 6 -64 20 -26 14 -54 23 -65 20 -12 -3 -46 9 -84 31
l-64 35 -11 -23z m721 -452 c-8 -22 -23 -6 -23 24 1 25 2 26 15 9 7 -11 11
-25 8 -33z m167 -74 c0 -5 -2 -10 -4 -10 -3 0 -8 5 -11 10 -3 6 -1 10 4 10 6
0 11 -4 11 -10z m-644 -919 c-8 -7 -22 -11 -31 -7 -23 9 -9 26 20 24 22 -2 23
-4 11 -17z m24 -32 c0 -20 -15 -26 -25 -9 -9 15 3 43 15 35 5 -3 10 -15 10
-26z"/>
<path d="M7793 11463 c-10 -16 -21 -31 -26 -34 -10 -7 42 -19 80 -19 19 0 24
4 19 16 -3 9 -9 27 -12 40 -8 33 -39 31 -61 -3z"/>
<path d="M11350 11449 c0 -5 5 -7 10 -4 6 3 10 8 10 11 0 2 -4 4 -10 4 -5 0
-10 -5 -10 -11z"/>
<path d="M7744 11375 c-4 -11 -9 -23 -11 -27 -6 -11 9 -10 26 1 10 6 11 13 3
27 -10 18 -11 18 -18 -1z"/>
<path d="M8168 10599 c-3 -18 1 -30 10 -34 24 -9 29 -6 29 24 0 41 -33 50 -39
10z"/>
<path d="M12366 9941 c-4 -5 -2 -12 3 -15 5 -4 12 -2 15 3 4 5 2 12 -3 15 -5
4 -12 2 -15 -3z"/>
<path d="M8586 9557 c-15 -16 -16 -23 -6 -43 10 -19 17 -21 32 -13 15 8 16 14
8 30 -6 11 -8 24 -5 29 11 18 -11 16 -29 -3z"/>
<path d="M8560 9386 c0 -9 -6 -16 -12 -16 -7 0 3 -10 22 -21 19 -12 38 -26 42
-32 4 -8 9 -5 14 6 3 9 12 17 20 17 8 0 14 4 14 9 0 5 9 7 20 4 14 -4 20 0 20
10 0 21 -6 24 -77 32 -54 6 -63 5 -63 -9z"/>
<path d="M8777 9364 c-4 -4 -7 -18 -7 -31 0 -12 -4 -23 -9 -23 -13 0 -24 -51
-13 -62 5 -5 20 0 35 12 l27 21 31 -31 c17 -17 33 -29 35 -27 3 2 -2 10 -11
17 -8 7 -15 19 -15 26 0 8 -6 13 -12 12 -8 -2 -15 13 -18 42 -5 43 -24 62 -43
44z"/>
<path d="M12247 9294 c4 -12 0 -15 -18 -13 -13 1 -32 -1 -42 -6 -9 -4 -28 -5
-40 -3 -22 4 -23 3 -13 -35 10 -35 8 -41 -12 -58 -21 -17 -22 -20 -9 -46 12
-22 12 -43 5 -102 -9 -64 -8 -79 7 -103 9 -16 14 -36 11 -44 -3 -9 2 -38 11
-65 15 -42 16 -51 4 -58 -7 -5 -10 -14 -6 -21 4 -7 -1 -13 -14 -17 -12 -3 -21
-10 -21 -17 0 -18 -46 -56 -67 -56 -24 0 -64 -45 -57 -64 4 -11 -4 -14 -38
-14 -24 1 -54 -4 -66 -11 -21 -11 -21 -13 -6 -36 9 -14 19 -25 23 -25 4 0 21
-13 39 -30 18 -16 42 -35 53 -40 11 -6 17 -15 14 -21 -4 -5 -1 -9 5 -9 6 0 16
-11 22 -25 12 -27 37 -32 56 -13 9 9 13 7 18 -5 3 -9 12 -17 20 -17 11 0 11
-5 2 -25 -9 -19 -7 -31 6 -57 17 -32 17 -32 13 -5 -5 33 5 34 65 8 25 -12 55
-36 72 -60 28 -39 56 -54 56 -30 0 5 4 8 9 5 5 -3 14 1 21 9 7 8 23 15 37 15
13 0 32 4 41 9 19 10 102 -7 102 -21 0 -4 6 -8 14 -8 11 0 14 10 13 34 -2 19
-6 38 -10 42 -13 13 -7 26 8 20 8 -3 15 -1 15 4 0 6 -4 10 -10 10 -5 0 -10 14
-10 30 0 34 21 40 54 15 28 -21 54 -18 67 8 6 12 13 23 14 25 2 2 14 -4 28
-13 14 -8 31 -14 38 -13 7 2 18 -7 24 -20 6 -13 18 -21 30 -20 61 4 93 -3 98
-21 3 -14 -3 -23 -24 -31 -29 -12 -43 -45 -14 -34 8 4 13 10 10 14 -3 5 11 6
31 3 34 -6 36 -5 26 14 -13 24 3 57 17 34 6 -10 10 -10 16 -1 4 6 14 9 22 6 8
-3 11 -1 8 5 -5 7 4 8 27 4 44 -8 88 9 88 34 0 15 10 23 43 31 23 6 47 13 54
15 7 2 15 0 19 -6 4 -7 10 -6 19 1 7 6 20 7 29 4 15 -6 15 -3 4 21 -9 19 -9
31 -1 44 7 12 8 23 1 35 -7 13 -5 23 8 37 9 10 12 19 6 19 -6 0 -14 9 -17 20
-3 11 -17 23 -31 26 -28 7 -30 16 -8 50 14 20 15 30 5 50 -6 14 -16 22 -21 19
-6 -3 -14 5 -20 19 -5 14 -16 26 -24 26 -10 0 -13 6 -10 15 4 9 -3 19 -20 27
l-27 12 31 19 c20 12 30 27 30 43 0 14 6 24 14 24 17 0 10 34 -10 51 -15 12
-20 99 -6 99 5 0 19 9 31 19 13 11 27 21 31 23 5 2 11 14 14 28 4 19 -1 30
-24 48 l-30 24 0 -32 c0 -28 -3 -31 -22 -25 -13 4 -33 13 -45 21 -16 10 -23
11 -26 1 -7 -19 -61 14 -65 40 -4 27 -40 60 -76 69 -25 6 -28 5 -24 -12 10
-33 10 -39 9 -58 -1 -13 -6 -16 -18 -11 -10 4 -23 8 -30 9 -7 1 -16 5 -19 9
-22 21 -38 -12 -24 -48 8 -22 7 -25 -11 -25 -11 0 -21 6 -23 13 -2 6 -8 27
-14 44 -7 22 -7 35 0 39 5 4 0 16 -12 30 -27 27 -80 49 -80 32 0 -6 -7 -20
-16 -29 -13 -14 -21 -16 -35 -8 -13 6 -19 6 -19 -1 0 -5 -11 -10 -25 -10 -14
0 -25 -4 -25 -10 0 -5 -20 -10 -45 -10 -32 0 -45 -4 -45 -14 0 -23 -47 -28
-105 -11 -30 9 -60 13 -66 10 -13 -9 -69 53 -69 76 0 9 -11 24 -25 33 -22 15
-24 15 -18 0z m1053 -775 c0 -6 -4 -7 -10 -4 -5 3 -10 11 -10 16 0 6 5 7 10 4
6 -3 10 -11 10 -16z"/>
<path d="M10640 8914 c0 -9 5 -14 12 -12 18 6 21 28 4 28 -9 0 -16 -7 -16 -16z"/>
<path d="M13290 8593 c8 -3 19 -11 23 -17 6 -7 7 -6 4 4 -2 8 -12 16 -23 17
-13 2 -15 1 -4 -4z"/>
<path d="M12850 8279 c0 -5 5 -7 10 -4 6 3 10 8 10 11 0 2 -4 4 -10 4 -5 0
-10 -5 -10 -11z"/>
</g>
</svg>
