<?xml version="1.0" standalone="no"?>
<!DOCTYPE svg PUBLIC "-//W3C//DTD SVG 20010904//EN"
 "http://www.w3.org/TR/2001/REC-SVG-20010904/DTD/svg10.dtd">
<svg version="1.0" xmlns="http://www.w3.org/2000/svg"
 width="345.116559pt" height="1005.204824pt" viewBox="0 0 345.116559 1005.204824"
 preserveAspectRatio="xMidYMid meet">
<metadata>
Created by potrace 1.15, written by Peter Selinger 2001-2017
</metadata>
<g transform="translate(-816.064640,1480.992221) scale(0.100000,-0.100000)"
fill="#222222" stroke="none">
<path d="M9991 14796 c-6 -8 -10 -20 -9 -27 5 -21 -86 -36 -125 -20 -61 25
-67 25 -67 2 0 -11 -6 -21 -14 -21 -7 0 -19 -7 -26 -15 -9 -11 -22 -14 -40
-10 -21 5 -33 -1 -58 -26 -18 -18 -32 -35 -32 -39 0 -3 -13 -13 -29 -23 -16
-9 -32 -28 -35 -41 -7 -29 -61 -70 -77 -60 -7 4 -10 0 -7 -12 1 -10 -8 -30
-22 -46 -16 -18 -25 -41 -25 -61 0 -26 -6 -35 -36 -51 -20 -11 -41 -32 -47
-48 -9 -24 -15 -28 -51 -28 -23 0 -41 -4 -41 -8 0 -4 -16 -6 -35 -4 -38 5 -49
-12 -15 -23 16 -5 18 -10 10 -25 -5 -10 -7 -26 -4 -34 5 -12 2 -15 -10 -10 -9
3 -19 17 -22 30 -5 21 -12 24 -53 24 -68 0 -94 9 -80 26 10 12 9 13 -5 8 -15
-6 -21 -22 -17 -51 1 -8 -9 -13 -24 -13 -16 0 -25 -6 -25 -15 0 -8 4 -15 10
-15 5 0 9 -22 7 -50 -1 -32 -7 -50 -14 -50 -7 0 -13 -6 -13 -14 0 -8 -6 -17
-12 -19 -10 -4 -10 -6 0 -6 6 -1 12 -7 12 -15 0 -7 7 -19 15 -26 9 -7 14 -19
11 -26 -3 -8 0 -11 10 -7 9 3 14 -2 14 -16 0 -12 9 -30 20 -41 16 -16 21 -35
22 -88 2 -37 7 -70 13 -74 18 -13 53 -9 59 8 3 8 10 13 14 10 13 -8 52 23 52
40 0 8 10 14 25 14 14 0 25 -4 25 -10 0 -19 39 -10 54 12 l16 22 20 -22 c24
-26 32 -28 24 -7 -4 8 -2 15 3 15 12 0 42 -37 36 -44 -12 -11 13 -6 30 7 13
10 21 33 26 80 1 4 8 7 17 7 8 0 12 5 9 11 -4 6 2 13 14 16 12 3 21 13 21 25
0 10 4 17 8 14 13 -8 1 57 -14 74 -7 9 -16 43 -20 75 -4 39 -14 68 -27 82 -19
21 -19 24 -3 41 9 11 14 26 10 36 -4 11 -1 16 10 16 8 0 23 11 32 25 9 14 23
25 30 25 8 0 14 7 14 15 0 8 6 15 14 15 9 0 12 7 9 20 -3 11 0 20 6 20 6 0 11
9 11 19 0 10 7 22 15 25 14 5 14 8 0 29 -21 33 -10 57 26 57 16 0 29 4 29 9 0
4 9 20 21 34 17 23 23 25 39 15 15 -10 23 -9 39 6 17 15 25 16 51 8 38 -14 80
0 80 26 0 13 12 22 39 31 21 6 49 25 62 41 13 16 29 30 35 30 6 0 17 7 24 15
7 8 25 15 40 15 15 0 34 7 41 17 13 15 12 15 -9 4 -20 -11 -23 -9 -32 14 -6
15 -10 31 -10 36 0 14 -76 11 -89 -5z"/>
<path d="M10162 14798 c-15 -15 -16 -38 -2 -38 12 0 23 25 18 40 -2 7 -7 7
-16 -2z"/>
<path d="M9370 13761 c0 -6 4 -13 10 -16 6 -3 7 1 4 9 -7 18 -14 21 -14 7z"/>
<path d="M9010 13680 c-8 -5 -25 -10 -37 -10 -13 0 -23 -3 -23 -8 0 -4 -12
-20 -26 -35 -24 -26 -25 -31 -13 -53 9 -18 10 -27 2 -35 -6 -6 -9 -18 -6 -25
3 -9 -2 -14 -12 -14 -15 0 -17 -7 -13 -44 4 -35 2 -43 -8 -39 -8 3 -21 0 -29
-7 -12 -10 -16 -8 -23 11 -6 14 -11 18 -16 11 -4 -7 -19 -9 -37 -5 l-30 6 6
-49 c7 -50 -14 -124 -35 -124 -6 0 -10 -11 -10 -24 0 -17 -6 -26 -21 -28 -13
-2 -32 -23 -50 -53 -55 -95 -57 -106 -34 -170 13 -37 13 -41 -6 -54 -10 -7
-19 -22 -19 -32 0 -11 -7 -19 -15 -19 -21 0 -19 -34 6 -82 13 -25 18 -49 14
-65 -4 -17 1 -33 20 -54 14 -17 25 -40 25 -51 0 -12 12 -36 26 -55 22 -29 25
-41 20 -76 -12 -84 -13 -132 -3 -139 7 -4 6 -16 -2 -36 -7 -17 -10 -35 -7 -40
3 -5 -1 -15 -9 -22 -8 -7 -15 -18 -15 -26 0 -7 -10 -20 -22 -28 -17 -12 -19
-18 -9 -30 8 -10 9 -16 1 -21 -13 -8 -13 -72 0 -88 44 -53 70 -93 70 -109 0
-11 11 -23 25 -28 29 -11 45 -45 45 -96 0 -22 5 -34 13 -34 30 0 45 -33 41
-93 -1 -33 -8 -65 -14 -72 -15 -18 -2 -151 16 -166 8 -6 14 -16 14 -22 0 -6
-3 -7 -6 -4 -6 6 -34 -44 -47 -85 -4 -11 -13 -15 -26 -11 -20 5 -47 -29 -37
-46 3 -5 -1 -12 -9 -15 -13 -4 -14 -10 -5 -26 9 -16 8 -20 -5 -20 -8 0 -21
-11 -27 -25 -7 -16 -19 -25 -35 -25 -14 0 -23 -5 -21 -12 1 -7 -2 -23 -6 -36
-5 -16 -13 -21 -26 -17 -10 3 -30 3 -44 -1 -22 -5 -24 -9 -15 -25 16 -31 0
-89 -27 -99 -27 -10 -28 -17 -15 -53 8 -20 6 -29 -10 -43 -16 -15 -17 -19 -5
-33 22 -26 28 -68 10 -75 -8 -3 -12 -11 -9 -16 4 -6 1 -18 -6 -26 -10 -13 -10
-17 2 -25 8 -5 20 -9 27 -9 6 0 12 -4 12 -9 0 -5 3 -17 7 -27 5 -13 3 -16 -9
-12 -10 4 -19 -2 -27 -18 -6 -13 -18 -24 -26 -24 -9 0 -25 -5 -36 -11 -19 -10
-18 -12 20 -50 23 -21 41 -48 41 -60 0 -11 5 -30 12 -42 7 -12 13 -26 14 -32
1 -5 5 -23 8 -39 3 -16 7 -30 9 -33 10 -9 150 -4 160 6 6 6 26 11 44 11 21 0
36 6 41 18 11 21 26 93 23 107 -5 19 -3 76 3 82 3 4 14 -1 23 -10 22 -19 43
-6 64 41 12 27 19 32 46 32 27 0 33 -4 34 -22 0 -14 2 -17 6 -8 2 8 9 25 15
37 6 12 8 29 5 37 -7 17 0 19 88 20 l50 1 1 44 c1 39 -2 44 -28 55 -24 11 -27
15 -15 24 9 7 27 9 47 5 29 -5 32 -4 27 11 -6 16 -5 16 23 -1 44 -26 80 -85
80 -132 0 -22 4 -42 9 -45 5 -3 7 -15 4 -26 -3 -10 4 -35 16 -53 27 -44 28
-67 2 -43 -18 16 -18 16 -14 -9 6 -27 -11 -34 -24 -11 -9 15 -53 31 -53 19 0
-15 -48 -31 -59 -20 -16 16 -14 -2 9 -68 11 -32 18 -60 15 -63 -2 -3 0 -12 5
-22 10 -18 -14 -75 -45 -110 -17 -19 -13 -82 8 -107 7 -9 5 -13 -6 -13 -8 0
-25 -9 -38 -20 -23 -18 -23 -19 -4 -21 11 -1 27 -1 36 0 9 1 22 -5 29 -14 7
-8 21 -15 31 -15 23 0 35 -18 21 -32 -7 -7 -4 -19 10 -39 18 -24 20 -33 10
-53 -6 -14 -7 -26 -2 -28 19 -6 -2 -48 -24 -48 -19 0 -24 -10 -39 -81 -9 -45
-14 -86 -11 -91 4 -6 -1 -8 -13 -4 -14 4 -23 -2 -36 -23 -12 -21 -27 -30 -57
-35 -49 -8 -57 -24 -36 -67 20 -39 20 -44 1 -63 -14 -13 -13 -19 2 -50 15 -33
15 -38 -1 -73 -13 -30 -14 -45 -6 -72 8 -27 6 -38 -5 -51 -10 -11 -13 -27 -9
-47 4 -22 -1 -39 -21 -68 -17 -26 -24 -47 -20 -62 3 -14 1 -23 -6 -23 -7 0 -8
-7 -4 -17 12 -29 12 -144 -1 -151 -12 -8 -27 -40 -28 -62 -1 -10 -16 -17 -51
-20 -30 -3 -51 -10 -53 -18 -1 -8 2 -11 7 -8 17 11 23 -45 6 -64 -11 -12 -13
-20 -5 -25 5 -3 7 -11 3 -17 -3 -7 -5 -34 -4 -62 2 -37 9 -60 29 -85 17 -23
22 -36 14 -39 -17 -5 -15 -77 3 -112 8 -15 26 -37 40 -48 23 -18 24 -22 9 -30
-12 -6 -15 -17 -11 -33 31 -119 30 -117 71 -133 33 -13 37 -18 26 -31 -14 -17
-6 -62 16 -87 10 -10 12 -18 5 -22 -12 -8 -5 -88 11 -126 27 -66 36 -75 79
-81 24 -3 45 -11 47 -18 2 -7 15 -16 28 -21 27 -11 53 -62 35 -68 -16 -5 -13
-30 5 -40 13 -7 20 -23 23 -54 1 -4 9 -7 19 -6 9 1 34 0 55 0 32 -2 40 -7 51
-32 7 -17 15 -27 19 -24 4 4 14 1 22 -6 13 -11 13 -15 3 -21 -9 -6 -9 -9 -1
-9 6 0 15 5 18 10 3 6 16 10 29 10 14 0 28 10 36 25 10 19 21 25 39 23 22 -3
26 -7 23 -31 -3 -25 0 -28 17 -22 12 4 21 2 21 -4 0 -6 -4 -11 -9 -11 -5 0 -4
-13 2 -30 8 -22 16 -28 32 -25 25 6 75 -36 75 -64 0 -11 4 -22 9 -25 5 -3 11
-17 13 -31 5 -21 2 -25 -13 -20 -14 5 -19 1 -19 -11 0 -14 -3 -15 -11 -7 -9 9
-17 6 -31 -13 -11 -13 -26 -24 -34 -24 -8 0 -14 -6 -14 -13 0 -8 -13 -12 -39
-10 -30 1 -39 -2 -35 -11 3 -8 -4 -16 -18 -19 -17 -5 -20 -9 -11 -18 12 -12 1
-58 -18 -70 -7 -4 -4 -13 7 -23 14 -14 15 -22 5 -42 -14 -30 -14 -81 -1 -89
17 -11 -10 -53 -31 -48 -14 4 -23 -3 -34 -30 -8 -20 -12 -43 -9 -51 4 -10 -1
-18 -12 -22 -11 -4 -25 -12 -32 -17 -17 -14 2 -27 40 -27 16 0 33 -9 41 -21 8
-11 21 -20 28 -19 45 7 69 -1 69 -21 0 -24 39 -99 52 -99 10 0 39 -56 32 -63
-3 -3 3 -8 13 -11 27 -9 93 -71 93 -87 -1 -9 -6 -7 -16 6 -15 20 -15 20 -13 0
4 -35 -1 -56 -10 -51 -4 3 -16 -3 -26 -14 -15 -17 -15 -23 -4 -49 7 -16 21
-32 30 -34 9 -3 20 -18 24 -35 7 -36 23 -51 54 -54 18 -2 31 8 55 42 23 33 38
45 56 45 18 0 25 5 24 17 -1 14 2 15 15 8 27 -14 85 25 78 52 -6 20 -6 20 17
-1 27 -25 86 -31 66 -6 -11 13 -8 15 15 15 20 0 26 -4 21 -15 -3 -9 3 -19 16
-26 27 -15 72 7 62 30 -4 9 -8 27 -9 41 -1 14 -6 34 -10 44 -6 14 -5 17 3 12
17 -10 52 3 52 20 0 8 7 14 15 14 17 0 20 16 5 25 -5 3 -10 19 -10 36 0 23 4
29 21 29 17 0 19 4 13 23 -6 21 -6 21 12 6 11 -9 33 -18 50 -21 26 -3 33 1 54
34 13 21 30 36 37 34 6 -3 13 0 15 6 3 8 10 8 25 0 17 -9 22 -9 27 3 3 8 14
15 24 15 11 0 24 6 29 13 13 15 15 77 3 77 -5 0 -7 13 -4 29 5 25 0 36 -30 66
-36 36 -45 55 -26 55 6 0 10 8 10 18 0 10 5 23 10 28 8 8 7 19 0 39 -7 19 -7
31 0 40 8 10 8 15 0 20 -6 4 -9 13 -6 20 2 7 -1 18 -7 24 -8 8 -7 15 5 27 11
11 14 27 11 54 -3 24 0 46 10 61 34 54 -16 178 -71 177 -32 -1 -72 18 -72 33
0 6 -6 9 -13 6 -19 -7 -39 12 -67 66 -13 26 -28 47 -32 47 -12 0 -97 55 -98
63 0 16 -29 37 -49 37 -12 0 -21 5 -21 11 0 5 -4 8 -9 5 -4 -3 -17 11 -27 30
-18 34 -18 36 -1 48 9 8 15 20 13 27 -2 8 -7 29 -10 47 -5 30 -4 32 14 22 17
-9 26 -6 50 19 17 16 30 39 30 50 0 11 9 22 21 26 16 6 19 12 14 36 -6 24 -2
33 20 51 16 13 25 28 23 42 -1 12 10 45 25 74 25 48 27 58 22 143 -3 65 -1 98
9 117 10 19 11 34 4 52 -14 36 -1 140 20 170 26 36 34 84 17 106 -9 13 -12 32
-8 57 3 20 0 63 -6 95 -7 31 -13 64 -15 73 -1 10 -8 24 -15 33 -7 9 -10 16 -5
16 5 1 0 8 -11 18 -21 17 -40 50 -37 64 1 4 -11 14 -26 22 -16 8 -46 39 -66
69 -36 52 -37 56 -26 96 9 36 8 45 -8 69 -10 15 -22 41 -25 58 -8 42 3 104 18
104 6 0 17 12 24 26 10 22 9 30 -5 45 -15 17 -15 19 0 34 18 18 21 35 7 35 -5
0 -14 13 -19 29 -12 33 -28 26 132 50 49 8 73 7 82 0 8 -6 26 -8 44 -4 19 4
30 3 30 -4 0 -6 11 -11 25 -11 14 0 25 4 25 10 0 5 21 15 48 23 41 12 50 19
68 57 12 24 20 50 17 57 -4 9 5 13 27 13 23 0 33 5 37 20 3 11 11 20 18 20 7
0 20 12 30 26 14 21 15 31 6 51 -27 58 1 103 64 103 23 0 35 8 50 33 28 46 43
95 44 145 1 40 2 42 17 28 21 -21 27 -20 14 3 -9 18 -8 19 27 9 26 -7 38 -7
41 0 2 6 10 8 18 5 8 -3 14 0 14 6 0 9 5 9 21 1 19 -11 20 -10 9 10 -10 19 -7
26 30 57 23 20 46 47 51 60 5 13 13 22 18 19 5 -3 16 5 24 18 12 18 13 26 4
35 -19 19 29 8 51 -12 10 -9 21 -14 25 -11 3 4 18 -3 33 -15 26 -21 64 -28 64
-13 0 4 30 6 68 4 46 -2 76 -10 95 -24 27 -19 30 -19 48 -3 10 10 16 21 14 25
-3 4 2 13 10 20 8 7 15 20 15 30 0 13 6 17 18 13 28 -7 66 87 50 125 -6 15
-10 37 -10 48 1 12 -5 27 -13 34 -13 11 -13 14 2 27 13 10 15 16 6 19 -7 3
-13 21 -13 39 0 29 -6 37 -47 62 -27 15 -55 31 -63 35 -12 5 -11 7 3 7 10 1
15 6 12 11 -3 6 0 10 8 10 17 0 47 -32 47 -50 0 -10 3 -10 15 0 24 20 -20 63
-58 57 -33 -4 -44 8 -25 30 7 9 12 24 10 35 -2 10 2 18 7 18 6 0 11 7 11 16 0
8 4 13 9 10 5 -4 7 3 4 14 -7 26 -20 25 -34 -2 -24 -48 -38 -57 -70 -46 -17 6
-29 17 -29 28 0 25 -27 33 -39 12 -9 -16 -13 -16 -58 2 -26 10 -55 18 -63 18
-70 -5 -100 -27 -100 -75 0 -26 -6 -37 -25 -47 -24 -13 -24 -14 -8 -33 17 -18
17 -19 -2 -33 -28 -21 -45 -17 -45 10 0 18 -10 29 -42 45 -59 29 -86 54 -102
92 -13 31 -12 34 10 52 13 10 24 29 24 42 0 12 7 25 15 29 8 3 18 24 21 46 4
22 11 43 15 46 16 10 9 24 -11 24 -11 0 -20 5 -20 10 0 6 -8 10 -18 10 -21 0
-66 43 -56 53 4 4 8 24 10 44 6 70 9 81 27 101 10 11 21 36 24 56 4 26 11 36
24 36 15 0 18 7 16 50 -2 42 2 53 24 74 14 13 34 26 45 28 11 2 17 10 15 19
-2 8 -6 28 -9 44 -2 17 -13 40 -24 52 l-20 21 28 4 c26 3 29 6 26 37 -1 19 4
52 13 73 14 35 14 41 -1 63 -10 15 -12 25 -5 25 6 0 21 18 33 40 16 28 28 38
40 34 40 -12 20 33 -22 49 -9 3 -5 6 11 6 14 1 31 -5 38 -11 11 -11 13 -9 9 8
-5 20 -3 21 29 13 39 -8 103 -1 103 12 0 5 7 9 15 9 8 0 15 9 15 19 0 11 7 27
16 35 8 9 14 22 11 29 -2 6 4 23 14 36 25 31 24 62 -2 90 -16 17 -27 21 -51
16 -24 -6 -33 -3 -45 15 -15 22 -17 22 -29 5 -10 -13 -21 -16 -43 -12 -24 5
-30 2 -34 -15 -3 -11 1 -27 9 -35 8 -8 14 -24 14 -36 0 -30 -36 -87 -55 -87
-8 0 -15 -4 -15 -10 0 -5 5 -10 10 -10 14 0 12 -26 -3 -39 -10 -8 -17 -7 -26
2 -10 9 -16 7 -31 -11 -16 -20 -22 -21 -39 -11 -25 17 -34 59 -12 59 14 1 14
2 -1 14 -10 7 -14 17 -10 21 4 5 0 6 -10 2 -9 -3 -23 2 -32 12 -17 19 -22 36
-7 27 5 -4 16 -3 25 0 11 4 13 11 6 30 -10 26 -4 54 12 54 5 0 6 9 3 20 -6 18
-2 20 34 20 34 0 41 3 41 19 0 10 7 22 16 25 13 5 14 9 5 20 -8 10 -9 16 -1
21 5 3 10 18 10 32 0 18 4 24 15 19 10 -3 18 1 22 12 4 9 10 19 14 22 3 3 3
15 -2 28 -6 17 -14 22 -27 18 -13 -5 -22 1 -30 18 -9 20 -7 27 13 46 14 13 22
27 19 32 -3 5 1 17 9 26 8 9 19 34 22 55 5 28 11 35 18 28 16 -16 27 -13 27 5
0 9 6 14 13 11 10 -4 13 2 9 18 -2 13 -13 26 -24 28 -11 3 -22 15 -25 26 -3
12 -17 22 -34 26 -16 4 -46 22 -66 41 -19 19 -39 34 -43 34 -5 0 -17 16 -29
36 -17 29 -26 35 -49 32 -23 -3 -27 -8 -30 -40 -2 -29 -8 -37 -25 -40 -16 -2
-21 -9 -19 -25 3 -18 -2 -23 -20 -23 -13 0 -41 -7 -63 -14 -38 -14 -42 -13
-73 10 -21 17 -39 23 -52 19 -14 -4 -22 -1 -26 10 -5 13 -14 15 -36 11 -31 -6
-72 9 -64 23 6 9 -43 79 -49 71 -2 -3 -14 5 -27 16 -24 23 -79 30 -108 14 -9
-5 -26 -7 -37 -4 -18 5 -19 9 -9 35 8 24 8 35 -4 56 -17 30 -47 46 -37 20 7
-18 -8 -33 -38 -39 -11 -2 -20 -10 -20 -18 -1 -31 -24 -58 -45 -53 -16 4 -20
0 -20 -16 0 -18 -5 -22 -27 -19 -19 2 -29 10 -31 23 -5 27 -17 39 -19 17 -1
-9 -4 -39 -6 -66 -6 -56 -1 -76 19 -76 25 0 15 -37 -24 -87 -37 -46 -44 -61
-61 -130 -7 -24 -5 -33 5 -37 20 -8 18 -75 -2 -83 -13 -5 -13 -7 -2 -14 10 -7
11 -12 1 -28 -11 -18 -10 -22 16 -36 38 -19 70 -72 75 -123 3 -32 1 -39 -10
-35 -10 3 -14 -2 -14 -18 0 -37 -15 -52 -41 -46 -20 5 -28 0 -47 -33 -12 -21
-22 -49 -22 -60 0 -12 -18 -47 -40 -77 -22 -31 -40 -62 -40 -70 0 -7 -4 -13
-10 -13 -5 0 -10 -5 -10 -11 0 -22 -47 -57 -63 -47 -9 5 -26 4 -39 -1 -13 -5
-40 -12 -60 -16 -21 -3 -43 -12 -51 -19 -7 -7 -28 -16 -47 -19 -19 -3 -47 -9
-62 -12 -24 -6 -28 -4 -28 13 0 12 5 24 10 27 6 4 7 13 1 23 -5 10 -6 36 -1
59 7 40 6 43 -21 55 -17 7 -29 21 -29 31 0 10 -13 26 -30 35 -16 9 -30 20 -30
25 0 4 -13 7 -28 7 -18 0 -38 11 -57 30 -16 17 -39 30 -53 30 -21 0 -22 1 -7
16 8 9 22 13 30 10 13 -4 13 -2 5 14 -6 12 -7 21 0 25 5 3 7 12 3 20 -3 8 0
15 6 15 13 0 15 46 2 55 -12 7 -11 64 0 71 13 8 -2 33 -16 27 -11 -4 -14 6
-13 42 0 39 -4 51 -31 79 -24 24 -31 41 -31 70 0 20 -5 47 -11 58 -16 29 -17
140 -1 146 17 5 15 57 -3 72 -9 8 -13 21 -9 36 8 32 -12 86 -42 115 l-25 23
21 16 c24 18 32 49 17 67 -6 9 -5 23 3 42 17 43 -7 86 -55 95 -39 8 -75 0 -75
-14 0 -5 -11 -4 -25 2 -26 12 -32 24 -14 30 6 2 1 15 -11 31 -18 22 -19 27 -6
27 21 0 20 9 -1 33 -17 19 -17 20 5 8 20 -11 22 -10 22 19 0 34 0 33 -20 20z
m-155 -320 c3 -5 1 -10 -4 -10 -6 0 -11 5 -11 10 0 6 2 10 4 10 3 0 8 -4 11
-10z m1465 -6718 c0 -10 -22 -32 -32 -32 -4 0 -8 5 -8 11 0 5 5 7 12 3 8 -5 9
-2 5 9 -4 11 -1 17 8 17 8 0 15 -4 15 -8z"/>
<path d="M10034 13165 c-17 -13 -17 -14 -2 -15 9 0 20 5 23 11 11 17 0 20 -21
4z"/>
<path d="M8310 10619 c0 -12 25 -22 41 -17 6 2 0 9 -15 16 -16 7 -26 8 -26 1z"/>
<path d="M8900 10620 c0 -5 5 -10 11 -10 5 0 7 5 4 10 -3 6 -8 10 -11 10 -2 0
-4 -4 -4 -10z"/>
<path d="M10266 6574 c-3 -9 -13 -14 -20 -11 -14 6 -30 -16 -19 -26 10 -11 53
17 53 35 0 22 -6 23 -14 2z"/>
<path d="M10173 6419 c-1 -19 5 -30 25 -40 14 -8 34 -22 44 -31 20 -20 39 -23
54 -9 5 5 19 5 33 0 19 -8 22 -14 16 -37 -5 -21 -4 -24 5 -15 7 6 15 32 17 57
3 27 10 43 16 39 5 -3 8 0 5 8 -3 9 -20 14 -49 14 -30 -1 -49 5 -59 18 -10 11
-31 19 -60 20 -42 3 -45 1 -47 -24z"/>
<path d="M9732 6157 c-12 -13 -22 -28 -22 -35 0 -18 -40 -36 -53 -23 -7 7 -21
-6 -47 -42 -31 -44 -41 -52 -64 -49 -18 2 -25 -1 -21 -8 4 -6 -14 -34 -39 -63
-26 -29 -61 -69 -79 -89 -17 -20 -31 -44 -29 -52 2 -9 -1 -16 -5 -17 -4 0 -38
-2 -76 -4 -56 -3 -77 -10 -125 -40 -32 -19 -70 -35 -86 -35 -28 0 -29 0 -11
-20 14 -16 15 -23 6 -34 -7 -8 -19 -12 -27 -9 -8 3 -14 0 -14 -6 0 -6 -11 -16
-24 -23 -21 -9 -24 -16 -19 -39 5 -26 3 -29 -22 -29 -24 0 -26 -3 -25 -32 4
-70 1 -77 -37 -93 -20 -9 -43 -13 -50 -11 -7 3 -24 1 -38 -4 -21 -8 -24 -14
-19 -34 4 -16 0 -34 -10 -48 -9 -12 -16 -33 -16 -45 0 -17 -6 -23 -22 -23 -13
-1 -39 -14 -58 -30 -19 -17 -45 -30 -58 -30 -13 0 -32 -5 -43 -10 -16 -9 -19
-7 -16 12 2 19 -4 24 -28 26 -16 2 -38 11 -47 19 -12 11 -18 12 -18 4 0 -7
-10 -11 -22 -10 -26 3 -56 -5 -106 -28 -31 -14 -35 -13 -47 4 -14 17 -14 16
-15 -7 0 -24 -1 -24 -20 8 -11 18 -20 41 -20 52 0 11 -4 20 -10 20 -5 0 -10
-9 -10 -21 0 -14 -5 -19 -14 -16 -9 4 -13 -2 -12 -16 1 -12 6 -21 11 -20 6 1
11 -17 13 -39 2 -32 -1 -41 -17 -45 -16 -4 -18 -8 -9 -23 15 -23 3 -64 -27
-94 -28 -28 -32 -46 -11 -46 7 0 19 -7 26 -16 18 -21 65 -15 64 9 -1 9 2 17 7
17 5 0 9 -16 9 -35 0 -25 -6 -37 -21 -45 -18 -10 -19 -13 -5 -23 23 -18 10
-67 -19 -67 -12 0 -28 -7 -35 -15 -10 -12 -8 -16 11 -23 19 -7 26 -5 34 12 7
15 23 23 53 27 24 3 45 2 48 -3 3 -4 10 -8 16 -8 7 0 6 5 -1 14 -14 16 -1 29
21 21 26 -10 63 101 47 141 -9 25 -2 28 41 25 8 0 21 3 29 8 13 8 13 12 1 26
-10 12 -4 11 23 -5 20 -12 37 -26 37 -30 0 -12 29 -40 41 -40 6 0 7 9 4 21 -6
18 -4 20 27 15 86 -15 106 -14 124 5 12 14 21 16 30 9 19 -17 60 -1 73 27 9
20 15 23 23 15 7 -7 20 -12 29 -12 10 0 38 -9 63 -20 51 -21 58 -18 21 11 -23
19 -23 21 -8 39 12 13 16 34 14 65 -2 41 -1 45 21 45 36 1 57 22 51 52 -4 23
-1 28 22 34 16 4 24 11 21 20 -3 8 4 18 14 24 11 6 20 17 20 24 0 7 11 19 25
26 14 7 25 22 25 32 0 10 4 18 8 18 5 0 16 6 26 13 15 11 17 17 7 35 -11 20
-9 22 15 22 17 0 28 6 31 20 4 14 14 20 34 20 16 0 29 5 29 11 0 5 5 7 11 3 6
-4 36 -8 66 -10 30 -2 70 -11 88 -18 22 -9 37 -11 41 -5 3 5 32 8 65 6 32 -2
56 -1 54 3 -3 4 2 13 10 20 8 7 15 21 15 31 0 11 6 19 13 19 7 0 29 18 50 40
20 22 44 40 53 40 11 0 14 5 10 16 -3 9 -6 22 -6 30 0 8 -3 13 -7 12 -17 -3
-43 15 -43 31 0 9 -5 22 -12 29 -9 9 -7 13 6 18 10 4 23 1 29 -6 9 -10 9 -14
0 -17 -7 -3 -13 -8 -13 -12 0 -11 120 -54 127 -47 4 3 -1 6 -11 6 -15 0 -15 3
-2 28 12 24 11 34 -4 82 -11 36 -24 58 -38 65 -24 11 -28 20 -12 30 8 5 8 11
0 20 -7 8 -7 15 -1 19 5 3 7 15 4 26 -3 11 0 26 6 34 8 10 8 16 -3 25 -8 7
-24 36 -36 66 -12 30 -28 55 -35 55 -7 0 -15 5 -17 11 -2 5 -13 0 -26 -14z
m-1377 -1147 c-5 -8 -11 -8 -17 -2 -6 6 -7 16 -3 22 5 8 11 8 17 2 6 -6 7 -16
3 -22z"/>
<path d="M9030 5131 c0 -5 7 -11 14 -14 10 -4 13 -1 9 9 -6 15 -23 19 -23 5z"/>
</g>
</svg>
