<?xml version="1.0" standalone="no"?>
<!DOCTYPE svg PUBLIC "-//W3C//DTD SVG 20010904//EN"
 "http://www.w3.org/TR/2001/REC-SVG-20010904/DTD/svg10.dtd">
<svg version="1.0" xmlns="http://www.w3.org/2000/svg"
 width="861.767610pt" height="553.368222pt" viewBox="0 0 861.767610 553.368222"
 preserveAspectRatio="xMidYMid meet">
<metadata>
Created by potrace 1.15, written by Peter Selinger 2001-2017
</metadata>
<g transform="translate(-603.025737,1336.515172) scale(0.100000,-0.100000)"
fill="#222222" stroke="none">
<path d="M8400 13337 c0 -31 2 -34 26 -29 17 3 23 9 20 19 -3 8 -6 16 -6 18 0
3 -9 9 -20 15 -18 10 -20 8 -20 -23z"/>
<path d="M8494 13285 c11 -8 25 -15 30 -15 6 0 2 7 -8 15 -11 8 -25 15 -30 15
-6 0 -2 -7 8 -15z"/>
<path d="M8500 13228 c0 -18 7 -42 15 -52 24 -32 17 -58 -27 -103 -37 -38 -39
-43 -21 -43 12 0 24 4 28 10 4 6 15 5 30 -2 17 -8 32 -7 56 1 45 15 47 15 65
-20 12 -25 20 -30 37 -24 12 4 32 6 44 6 12 0 25 4 28 10 4 6 18 14 31 19 24
9 24 11 9 39 -8 17 -15 48 -15 70 0 32 -3 39 -15 35 -8 -4 -22 -1 -29 6 -11 8
-20 9 -35 0 -15 -8 -34 -7 -73 3 -44 11 -55 18 -67 45 -10 23 -21 32 -38 32
-19 0 -23 -5 -23 -32z"/>
<path d="M8392 13014 c-7 -8 -21 -14 -31 -14 -11 0 -21 -7 -25 -15 -3 -8 -14
-15 -25 -15 -10 0 -22 -7 -25 -16 -3 -8 -14 -15 -23 -14 -36 4 -61 -13 -78
-49 -12 -28 -22 -37 -38 -36 -12 1 -23 9 -25 18 -5 27 -27 20 -59 -21 -27 -34
-35 -37 -74 -37 -24 1 -57 7 -72 13 -16 7 -32 12 -37 12 -11 0 -51 -83 -54
-115 -2 -14 -11 -31 -21 -39 -15 -11 -16 -18 -7 -44 8 -23 8 -32 -1 -35 -15
-5 52 -47 75 -47 10 0 15 6 12 18 -5 21 67 81 108 89 15 3 28 9 28 14 0 12 37
11 45 -1 3 -5 15 -10 25 -10 10 0 25 -6 32 -14 17 -16 164 -31 173 -17 3 6 15
7 28 2 31 -12 79 16 71 42 -5 17 -2 19 35 15 37 -3 41 -1 46 24 4 17 13 28 23
28 12 0 13 3 4 12 -17 17 -16 78 2 78 7 0 16 9 19 20 4 16 -3 25 -34 40 -41
21 -55 52 -19 43 17 -5 18 -2 10 28 -11 39 -17 45 -50 52 -15 3 -30 0 -38 -9z"/>
<path d="M8823 13008 c7 -24 -26 -68 -50 -68 -7 0 -13 -4 -13 -10 0 -10 14
-14 39 -10 8 1 24 -11 37 -27 21 -27 23 -27 41 -10 11 9 25 17 31 17 15 0 16
26 2 35 -12 7 6 28 33 38 30 11 14 32 -22 29 -18 -2 -43 3 -56 12 -34 22 -48
20 -42 -6z"/>
<path d="M8310 12989 c0 -5 5 -7 10 -4 6 3 10 8 10 11 0 2 -4 4 -10 4 -5 0
-10 -5 -10 -11z"/>
<path d="M8475 12680 c-3 -5 -3 -15 1 -21 6 -11 23 6 24 24 0 10 -18 9 -25 -3z"/>
<path d="M7759 12543 c-24 -6 -79 -78 -79 -103 0 -27 -41 -64 -72 -65 -16 0
-24 -7 -26 -22 -2 -13 -8 -20 -16 -17 -8 3 -16 -4 -19 -15 -6 -23 -53 -29 -88
-11 -14 8 -19 7 -19 -3 0 -16 -42 -37 -75 -37 -37 0 -75 -18 -75 -36 0 -26
-64 -84 -87 -78 -11 3 -27 -2 -37 -11 -10 -10 -26 -15 -39 -12 -12 3 -32 8
-44 11 -13 2 -23 1 -23 -5 0 -5 -7 -9 -15 -9 -9 0 -12 -6 -8 -17 5 -12 2 -15
-10 -10 -19 7 -24 -21 -8 -38 5 -6 12 -31 15 -56 l7 -47 -58 -39 c-37 -26 -57
-46 -55 -57 4 -23 -21 -20 -36 5 -11 17 -16 18 -28 8 -11 -9 -18 -8 -33 5 -18
17 -20 16 -26 -3 l-6 -21 -29 20 c-39 28 -48 25 -45 -13 3 -31 0 -36 -36 -51
-21 -10 -39 -24 -39 -32 0 -31 -27 -13 -28 19 -1 56 -5 68 -18 63 -14 -5 -61
45 -74 79 -5 11 -14 48 -20 81 l-12 61 -29 -14 c-22 -11 -46 -13 -90 -8 -54 6
-63 11 -82 41 -23 34 -42 44 -89 44 -31 0 -37 -20 -13 -40 18 -15 9 -33 -15
-27 -15 4 -16 1 -6 -25 9 -25 8 -32 -7 -42 -21 -16 -21 -24 -3 -45 7 -9 17
-26 21 -39 5 -19 2 -25 -14 -29 -11 -3 -23 -14 -26 -24 -5 -16 -16 -19 -61
-19 -30 0 -54 -3 -54 -7 0 -5 18 -16 40 -26 22 -10 38 -22 36 -26 -8 -12 28
-56 49 -59 32 -6 42 -22 23 -36 -10 -7 -18 -23 -18 -35 0 -17 6 -21 35 -21 28
0 35 4 35 19 0 14 5 18 21 14 20 -6 37 -21 133 -122 26 -28 54 -51 62 -51 8 0
24 -16 35 -35 12 -19 26 -35 33 -35 7 0 23 -11 36 -25 13 -14 31 -25 40 -25 9
0 25 -9 36 -21 19 -21 53 -22 123 -3 16 5 22 3 18 -3 -10 -16 19 -36 51 -35
33 0 102 -34 102 -51 1 -7 6 -5 14 6 23 30 65 18 46 -13 -6 -10 -4 -21 7 -32
9 -10 13 -28 11 -43 -3 -14 1 -30 8 -36 8 -6 11 -16 7 -22 -3 -5 -2 -8 3 -5
58 31 89 40 103 29 9 -6 26 -15 37 -20 12 -5 24 -19 27 -30 6 -23 52 -30 59
-9 5 13 70 -28 96 -61 7 -9 18 -16 25 -16 7 -1 11 -7 9 -14 -1 -7 8 -21 20
-31 13 -9 32 -43 43 -75 10 -31 24 -59 31 -62 8 -3 6 -16 -8 -44 -11 -23 -16
-49 -13 -60 5 -15 1 -22 -14 -26 -21 -5 -21 -6 5 -31 24 -25 24 -27 8 -39 -14
-10 -15 -16 -6 -25 7 -7 12 -19 12 -27 0 -8 16 -29 35 -47 20 -18 35 -41 35
-54 0 -19 -4 -21 -26 -16 -22 6 -25 4 -20 -10 5 -12 2 -15 -10 -10 -8 3 -18 6
-20 6 -2 0 -4 6 -4 13 0 6 -29 21 -65 32 -36 10 -65 24 -65 31 0 6 -9 19 -20
29 -20 18 -20 17 -20 -8 0 -32 -4 -33 -38 -6 l-27 21 -3 -56 c-2 -41 -7 -56
-17 -56 -8 0 -15 -7 -15 -16 0 -14 -7 -15 -44 -10 -35 6 -45 4 -50 -9 -3 -9
-3 -21 0 -27 4 -6 -2 -8 -12 -6 -13 2 -19 12 -19 32 -1 20 -7 31 -22 37 -11 4
-23 15 -27 24 -5 15 -8 14 -24 -6 -18 -21 -20 -22 -52 -5 -35 17 -54 8 -43
-21 6 -16 -9 -17 -23 -3 -8 8 -23 7 -52 -3 -36 -13 -42 -12 -56 2 -14 13 -16
13 -16 0 0 -17 28 -60 46 -72 7 -4 11 -14 8 -21 -3 -8 5 -21 17 -29 14 -10 19
-22 15 -32 -4 -12 -2 -16 7 -12 9 3 20 -10 32 -36 37 -88 47 -106 61 -111 8
-3 14 -17 14 -31 0 -19 -5 -25 -21 -25 -11 0 -17 -4 -14 -10 3 -5 -1 -10 -9
-10 -27 0 -64 -22 -69 -41 -4 -14 2 -21 21 -25 15 -4 34 -15 42 -25 13 -16 20
-17 54 -8 22 6 52 9 68 7 22 -4 28 -1 28 14 0 11 12 30 26 43 22 21 25 27 14
40 -10 12 -10 15 2 15 24 0 48 33 38 50 -14 23 -12 30 9 30 11 0 23 5 26 11 4
5 12 8 18 6 21 -7 98 41 121 75 12 18 31 37 42 43 11 6 19 16 16 23 -6 18 53
15 73 -4 9 -9 13 -19 10 -22 -3 -3 -10 -1 -16 5 -8 8 -17 6 -32 -8 -11 -10
-26 -19 -31 -19 -7 0 -10 -20 -7 -51 3 -49 2 -52 -18 -46 -12 3 -21 1 -21 -4
0 -5 -8 -9 -18 -9 -19 0 -22 -25 -8 -68 5 -15 2 -27 -8 -38 -18 -18 -21 -44
-5 -44 6 0 9 -6 6 -14 -3 -8 3 -22 14 -32 16 -14 24 -15 44 -6 25 12 33 36 15
47 -37 23 28 42 70 20 34 -17 80 -20 80 -4 0 6 8 8 18 5 14 -5 22 1 32 21 7
16 12 34 11 42 -1 7 4 11 11 9 7 -3 14 -14 16 -26 3 -18 8 -20 39 -15 27 5 38
2 45 -10 5 -10 23 -17 41 -18 19 -1 24 -3 14 -6 -17 -4 -17 -6 4 -21 20 -14
23 -14 35 3 8 10 14 25 14 32 0 7 7 13 15 13 8 0 15 -7 15 -15 0 -8 6 -15 14
-15 16 0 46 -53 46 -82 0 -10 4 -18 10 -18 5 0 7 -13 5 -30 -3 -23 1 -30 13
-31 11 0 12 -2 5 -6 -7 -2 -13 -12 -13 -21 0 -8 -8 -24 -17 -35 -16 -17 -16
-20 -2 -31 9 -6 20 -26 24 -44 8 -37 66 -88 90 -78 9 3 13 2 10 -3 -3 -5 -1
-12 5 -16 5 -3 10 -29 10 -57 0 -91 38 -178 78 -178 11 0 13 -8 9 -35 -5 -30
-3 -35 14 -35 10 0 19 -4 19 -9 0 -27 207 -52 238 -28 8 6 12 5 12 -3 0 -7 7
-10 15 -6 9 3 33 -7 55 -23 41 -30 74 -32 84 -5 8 20 85 18 107 -2 10 -9 34
-16 53 -16 24 0 36 -5 36 -14 0 -8 5 -14 11 -14 5 0 7 -5 3 -12 -5 -8 2 -9 24
-5 26 5 35 2 51 -19 16 -20 25 -24 43 -18 13 4 36 6 51 5 21 -2 30 2 34 17 4
18 9 16 44 -19 22 -22 44 -37 49 -34 9 5 84 -41 86 -53 0 -4 7 -27 14 -52 15
-47 28 -63 44 -53 5 4 7 -1 3 -9 -3 -9 2 -23 12 -32 22 -20 32 -20 25 -1 -4 9
0 16 7 17 21 2 31 4 62 13 23 6 28 12 23 29 -4 18 -3 19 7 6 7 -8 22 -21 35
-28 18 -10 22 -10 22 3 0 8 6 15 14 15 7 0 24 21 38 48 22 41 28 47 53 44 41
-5 65 -20 65 -41 0 -22 38 -35 56 -20 8 7 14 7 19 -1 4 -7 13 -5 28 5 23 16
87 21 87 6 0 -5 9 -12 20 -16 18 -6 19 -8 4 -30 -9 -13 -23 -25 -32 -27 -11
-2 -16 -16 -17 -50 -1 -41 2 -48 18 -48 11 0 26 8 33 17 9 13 27 18 69 18 43
1 60 5 70 19 9 12 20 16 34 11 25 -8 61 10 61 30 0 19 15 19 34 0 8 -8 20 -15
26 -15 6 0 9 -4 6 -9 -8 -12 26 -24 33 -13 3 5 15 14 26 20 16 8 24 7 38 -6
20 -18 82 -42 110 -42 10 0 20 -6 22 -12 6 -16 58 -20 66 -6 5 7 13 7 25 -1
11 -6 15 -11 10 -11 -5 0 -3 -6 4 -14 6 -8 17 -13 24 -10 7 3 18 -2 25 -10 12
-14 20 -14 59 1 9 3 22 7 27 7 6 1 9 14 7 29 -2 23 1 27 24 27 14 0 40 -11 56
-25 16 -14 33 -23 38 -20 10 6 22 -20 27 -59 4 -26 3 -28 -11 -17 -24 20 -19
7 10 -24 14 -15 23 -34 20 -42 -3 -8 1 -25 10 -38 11 -16 12 -25 4 -30 -8 -5
-6 -13 6 -26 17 -18 16 -34 -4 -110 -6 -24 -6 -42 1 -55 14 -23 15 -47 4 -55
-12 -8 14 -49 30 -49 7 0 13 5 13 11 0 7 9 9 22 6 12 -4 43 1 69 10 41 15 52
15 90 3 24 -7 68 -31 97 -52 43 -32 52 -43 47 -61 -5 -19 -5 -20 5 -4 6 9 17
17 25 17 10 0 12 7 5 29 -8 28 -7 29 23 30 63 1 74 4 69 23 -4 18 -3 18 24 2
16 -9 37 -32 47 -51 15 -31 16 -36 2 -56 -17 -25 -20 -63 -4 -72 16 -11 22 1
10 22 -8 15 -7 20 5 20 7 0 14 -3 14 -7 0 -4 11 -12 24 -18 21 -9 25 -8 30 11
5 20 6 20 18 5 7 -9 25 -22 40 -27 21 -8 28 -7 32 6 4 9 13 13 22 9 13 -5 15
-2 11 15 -4 15 -2 19 8 15 8 -3 17 -1 20 4 3 5 15 3 28 -4 53 -29 122 -77 130
-91 4 -8 15 -15 22 -15 20 0 19 -25 -1 -55 -9 -14 -15 -25 -13 -26 21 -6 79
-4 79 3 0 4 5 8 11 8 17 0 99 -91 99 -110 0 -19 40 -60 58 -60 7 0 11 -6 9
-12 -1 -7 8 -14 21 -16 12 -2 22 1 22 7 0 5 8 12 18 14 9 3 5 4 -10 4 -15 -1
-24 -5 -21 -11 3 -5 1 -6 -5 -2 -7 4 -12 16 -12 28 0 16 3 18 14 9 11 -10 16
-8 21 8 3 12 4 25 1 30 -4 5 10 26 30 46 34 36 35 38 18 56 -10 11 -19 27 -20
36 -2 8 -12 22 -23 30 -12 8 -21 22 -21 31 1 16 1 16 10 0 8 -13 14 -14 34 -5
18 9 22 15 14 24 -13 16 -2 47 13 37 7 -4 9 -3 5 4 -3 6 -2 13 4 17 5 3 10 17
10 31 0 13 4 24 8 24 5 0 9 17 9 38 0 20 1 62 2 92 3 72 -3 105 -17 104 -26
-2 -32 -4 -31 -11 4 -22 -4 -22 -28 -3 -27 21 -28 22 -31 2 -3 -16 -12 -20
-57 -21 -41 -1 -57 3 -67 17 -7 9 -25 23 -40 29 -16 7 -30 23 -34 38 -8 34
-89 75 -158 81 -28 3 -58 7 -66 11 -30 13 -76 11 -106 -3 -18 -7 -47 -14 -65
-14 -19 0 -49 0 -68 0 -19 1 -41 -6 -50 -14 -9 -7 -26 -17 -39 -21 -12 -3 -20
-11 -17 -16 10 -15 -12 -10 -25 6 -15 18 -47 20 -52 4 -3 -8 -20 -9 -55 -4
-40 5 -53 11 -62 31 -14 32 -15 77 0 69 5 -4 19 1 29 10 12 11 33 17 52 16 18
-1 56 -1 84 -1 44 0 52 -3 62 -24 11 -24 58 -41 68 -24 3 4 10 6 15 3 5 -4 14
5 21 19 6 14 19 26 30 26 10 0 18 6 18 13 0 23 55 67 83 67 17 0 30 7 34 18 9
25 20 29 64 26 43 -3 49 5 19 24 -22 13 -29 48 -7 36 10 -6 10 -4 0 7 -19 19
-16 38 5 34 9 -2 20 -4 24 -4 3 -1 4 -11 2 -23 -3 -18 -1 -17 8 5 7 15 18 27
25 27 7 0 13 6 13 13 0 16 36 48 45 39 3 -4 10 -1 14 6 11 18 59 5 66 -19 11
-33 27 -22 20 14 -10 43 -13 47 -35 47 -10 0 -22 4 -25 10 -3 5 0 7 8 4 17 -6
32 12 18 20 -5 4 -7 31 -5 61 5 50 3 57 -22 80 l-28 26 35 -3 c29 -3 34 1 37
20 2 12 10 22 18 22 8 0 14 5 14 10 0 6 -16 10 -35 10 -33 0 -48 14 -24 22 13
4 -23 48 -40 48 -6 0 -11 9 -11 20 0 13 -11 25 -32 34 -18 7 -44 26 -58 42
l-25 28 25 -15 c14 -9 36 -22 49 -30 13 -8 37 -27 55 -43 l31 -29 9 32 c12 41
35 37 58 -9 19 -37 43 -54 101 -70 39 -11 60 -36 71 -82 5 -21 3 -28 -8 -28
-26 0 34 -113 68 -130 43 -22 44 -66 5 -138 -43 -80 -48 -85 -67 -70 -13 11
-14 10 -8 -7 5 -16 0 -23 -22 -31 -16 -6 -38 -7 -50 -3 -17 6 -24 5 -28 -6 -7
-17 -56 -18 -88 -2 -12 6 -21 5 -25 -2 -5 -7 -14 -4 -29 9 -26 24 -29 9 -8
-36 7 -16 19 -43 27 -61 9 -22 23 -34 50 -42 20 -6 40 -18 43 -26 7 -19 30
-19 50 0 12 12 20 13 40 3 14 -6 26 -19 26 -29 0 -21 31 -34 42 -17 6 10 12 8
26 -8 9 -12 25 -24 35 -27 9 -4 17 -13 17 -22 0 -8 9 -15 20 -15 26 0 101 -38
117 -59 7 -9 13 -23 13 -31 0 -8 14 -24 30 -35 16 -11 30 -24 30 -30 0 -5 9
-21 20 -35 11 -14 20 -33 20 -42 0 -9 9 -20 20 -23 11 -4 18 -10 15 -15 -3 -4
1 -10 9 -13 8 -3 17 1 20 9 11 28 45 16 62 -23 8 -21 16 -45 17 -54 0 -9 7
-15 13 -12 7 3 19 -5 26 -16 16 -26 84 -31 74 -6 -3 9 0 15 9 15 8 0 15 6 15
13 0 8 13 12 38 11 48 -3 82 14 82 40 0 12 9 28 20 36 11 8 20 22 20 32 0 22
18 24 26 3 8 -21 34 -19 34 2 0 13 3 14 12 5 7 -7 25 -12 40 -12 15 0 28 -4
28 -9 0 -5 11 -19 25 -32 13 -13 25 -28 25 -33 0 -14 52 -71 64 -70 6 0 19 4
30 9 11 5 36 2 65 -9 72 -26 103 -21 121 16 18 39 36 46 45 19 4 -14 15 -21
30 -21 23 0 24 2 18 48 -3 26 -10 55 -14 64 -13 24 -12 25 21 32 31 6 53 37
32 44 -7 2 -12 8 -12 13 0 5 11 4 26 -1 14 -6 30 -8 34 -5 5 3 18 -3 30 -15
24 -24 33 -25 50 -5 10 13 10 19 -3 33 -8 9 -17 28 -19 42 -1 13 -16 33 -33
45 -17 11 -29 27 -27 35 1 9 -12 34 -30 55 -36 44 -41 84 -15 113 17 19 14 51
-10 88 -7 11 -10 24 -6 27 3 4 -2 13 -11 20 -17 12 -17 17 -5 50 12 34 11 38
-7 52 -10 8 -30 15 -44 15 -14 0 -41 10 -60 22 -19 12 -47 23 -63 24 -16 1
-36 12 -48 28 -11 14 -29 26 -39 26 -10 0 -27 11 -37 24 -21 28 -143 71 -176
62 -12 -3 -28 1 -38 10 -12 11 -23 12 -41 5 -19 -7 -31 -5 -50 7 -35 23 -88
78 -88 91 0 19 -33 29 -57 18 -27 -12 -88 12 -111 44 -7 10 -19 19 -26 19 -7
0 -24 9 -37 19 -21 16 -27 17 -43 6 -16 -12 -22 -10 -51 21 -18 18 -45 37 -61
40 -18 3 -39 20 -56 44 -33 46 -35 57 -8 65 28 9 26 35 -2 32 -19 -2 -25 5
-34 42 -12 50 -24 59 -48 36 -14 -14 -18 -14 -46 0 -26 14 -30 14 -30 0 0 -12
-4 -13 -24 -4 -17 8 -24 19 -23 36 1 14 -5 29 -13 33 -8 4 -29 15 -47 24 l-32
17 14 -41 c13 -36 13 -42 -1 -47 -11 -4 -12 -9 -4 -18 13 -15 -3 -30 -20 -20
-15 9 -12 -8 5 -31 19 -25 19 -44 0 -44 -8 0 -15 -6 -15 -13 0 -15 -38 -40
-50 -32 -5 3 -11 1 -15 -5 -4 -6 -10 -8 -15 -5 -5 3 -25 -4 -45 -16 -35 -21
-36 -21 -50 -3 -8 12 -10 24 -4 35 12 24 -33 51 -93 57 -45 4 -64 -7 -38 -23
6 -3 10 -13 10 -22 0 -10 -10 -5 -29 16 -16 17 -38 31 -49 31 -31 0 -52 11
-52 26 0 7 -11 21 -25 30 -20 13 -23 20 -14 30 8 10 7 18 -6 30 -11 11 -14 25
-10 41 3 15 0 32 -7 41 -10 12 -10 16 -1 19 13 5 3 29 -26 66 -8 9 -11 17 -6
17 4 0 2 6 -4 14 -6 8 -10 20 -9 27 2 8 -3 13 -11 11 -8 -2 -43 -7 -78 -11
-58 -7 -65 -5 -84 15 -12 12 -19 27 -15 32 5 9 -104 93 -136 105 -31 11 -21
30 12 24 25 -5 30 -3 30 12 0 10 9 30 20 44 11 14 20 32 20 39 0 21 -39 96
-40 76 0 -11 -5 -15 -14 -12 -22 8 -29 37 -13 49 13 9 13 14 1 38 -8 15 -19
27 -24 27 -6 0 -8 23 -5 55 2 30 1 55 -4 55 -5 0 -31 29 -57 65 -26 36 -51 65
-55 65 -15 0 -71 54 -80 76 -4 13 -19 26 -32 29 -17 5 -26 18 -36 50 -8 27
-20 47 -31 50 -11 3 -22 15 -25 26 -4 10 -10 19 -15 19 -5 0 -11 8 -15 18 -3
11 -18 25 -33 32 -21 11 -23 14 -10 17 14 4 15 8 6 23 -10 15 -16 16 -32 8
-15 -8 -22 -7 -32 6 -9 13 -13 14 -17 4 -4 -8 -6 -7 -6 5 -1 9 3 17 9 17 6 0
5 11 -3 27 -9 20 -9 27 0 30 7 3 10 10 7 17 -3 7 5 17 18 23 22 10 21 10 -8 8
-41 -2 -55 -12 -47 -32 4 -10 2 -14 -5 -9 -6 3 -14 1 -17 -5 -4 -5 -13 -8 -21
-5 -7 3 -11 0 -8 -7 2 -7 -9 -21 -25 -32 -17 -11 -28 -21 -26 -23 2 -2 -3 -15
-10 -29 -7 -14 -11 -32 -8 -39 3 -8 -1 -14 -10 -14 -14 0 -14 -3 -1 -30 9 -16
20 -31 25 -31 5 -1 15 -2 22 -3 6 -1 11 -7 10 -14 -2 -6 8 -14 22 -18 14 -3
25 -12 25 -20 0 -10 12 -14 39 -14 38 0 56 -11 63 -40 2 -8 8 -18 13 -22 6 -5
5 -11 -4 -17 -7 -5 -11 -13 -8 -18 3 -5 -3 -24 -13 -41 -20 -33 -18 -57 6 -66
18 -7 18 -33 -1 -52 -13 -13 -20 -9 -61 31 -26 25 -54 45 -63 45 -10 0 -22 5
-27 10 -6 6 -19 8 -29 4 -15 -6 -16 -9 -3 -18 8 -6 15 -15 15 -21 -1 -18 67
-57 90 -52 19 3 23 0 23 -19 0 -12 5 -26 11 -29 6 -4 8 -13 5 -21 -3 -9 2 -14
14 -14 29 0 25 -15 -11 -42 -46 -35 -89 -81 -89 -96 0 -7 -7 -26 -15 -42 -13
-26 -20 -29 -53 -26 -20 2 -50 9 -67 16 -16 7 -40 12 -52 11 -13 -1 -23 2 -23
8 0 6 -4 11 -10 11 -5 0 -10 -8 -10 -18 0 -10 -3 -22 -6 -25 -7 -7 -67 23 -72
36 -2 4 -9 7 -16 7 -19 0 -59 47 -47 55 8 4 8 12 0 26 -6 11 -8 27 -5 35 3 8
-1 14 -10 14 -8 0 -14 6 -13 13 3 26 -2 36 -21 42 -12 4 -20 15 -20 29 0 13
-9 28 -22 35 -13 7 -39 20 -58 31 -21 11 -46 16 -62 13 -23 -4 -28 -2 -28 13
-1 22 -72 79 -119 95 -24 8 -39 8 -62 -1 -25 -11 -36 -10 -72 5 -23 9 -52 21
-64 26 -12 4 -27 20 -35 35 -16 32 -130 94 -174 94 -25 0 -45 13 -93 59 -33
32 -62 54 -63 49 -7 -21 -35 6 -60 60 -20 43 -36 63 -66 80 -21 12 -41 19 -44
16 -10 -10 -54 18 -73 46 -14 21 -31 31 -60 36 -22 3 -48 10 -57 16 -11 5 -18
5 -18 0 0 -6 -10 -12 -22 -15 -24 -7 -58 17 -58 40 0 7 -5 13 -11 13 -6 0 -8
8 -4 19 11 36 -3 48 -58 50 -29 0 -63 5 -77 10 -14 5 -37 12 -52 15 -15 4 -36
16 -47 27 -12 13 -26 19 -35 16 -9 -4 -16 -2 -16 4 0 6 -5 7 -11 4 -6 -4 -8
-13 -6 -20 8 -19 -26 -13 -50 10 -11 11 -24 30 -27 43 -9 27 -26 30 -19 2 4
-15 0 -20 -15 -20 -12 0 -24 5 -27 10 -5 8 -11 7 -21 -1 -11 -9 -17 -9 -28 0
-16 13 -59 16 -99 6 -21 -6 -31 -3 -40 9 -12 16 -15 14 -37 -16 -19 -25 -32
-33 -57 -33 -24 0 -32 4 -30 15 1 8 -4 14 -11 12 -8 -1 -29 3 -48 10 -25 9
-34 18 -34 35 0 14 6 23 16 23 11 0 14 5 10 17 -6 15 -5 16 11 1 25 -21 45
-12 109 48 13 12 26 19 30 15 4 -3 5 1 2 9 -3 8 -18 17 -34 20 -21 4 -34 15
-49 45 -31 62 -47 70 -66 32 -14 -28 -14 -34 -1 -50 21 -24 7 -33 -30 -19 -25
9 -34 9 -39 0 -5 -7 -11 -10 -14 -6 -8 8 5 59 14 54 20 -13 33 15 32 68 0 57
5 66 27 44 20 -20 14 7 -8 35 -14 17 -26 23 -40 20 -11 -3 -17 -10 -13 -15 3
-6 0 -8 -8 -6 -8 3 -13 12 -11 22 2 9 -2 16 -8 16 -5 0 -18 8 -29 19 -14 14
-16 23 -8 37 6 11 13 21 17 24 14 11 20 43 9 56 -9 11 -9 14 0 14 7 0 9 9 5
25 -4 15 -2 25 5 25 19 0 12 38 -9 45 -22 7 -27 25 -7 25 8 0 8 3 1 8 -21 14
-22 41 -3 78 19 38 19 38 -3 61 l-21 23 21 0 c29 0 38 35 17 66 -9 15 -27 68
-39 119 -18 73 -20 96 -11 109 7 9 17 16 23 16 6 0 16 9 22 20 6 11 9 19 8 19
-2 -1 -10 -3 -19 -6z m417 -2221 c-15 -15 -80 -21 -93 -8 -9 9 39 53 62 58 12
2 26 -4 34 -15 11 -16 11 -21 -3 -35z m-1301 -32 c3 -5 1 -10 -4 -10 -6 0 -11
5 -11 10 0 6 2 10 4 10 3 0 8 -4 11 -10z m161 -44 c10 -8 16 -18 11 -22 -10
-10 -59 8 -65 24 -5 17 30 15 54 -2z m652 -69 c4 -22 -25 -34 -41 -17 -10 10
-8 11 8 6 16 -6 18 -5 8 5 -18 18 -16 31 4 27 10 -2 19 -11 21 -21z m42 -17
c13 -8 13 -10 -2 -10 -9 0 -20 5 -23 10 -8 13 5 13 25 0z m40 -21 c0 -11 -4
-17 -10 -14 -5 3 -10 13 -10 21 0 8 5 14 10 14 6 0 10 -9 10 -21z m2928 -859
c13 0 12 -4 -6 -23 l-21 -22 24 -21 c13 -12 26 -19 29 -16 3 3 15 -3 26 -13
16 -14 19 -27 16 -58 -5 -39 -5 -39 24 -34 39 8 59 -15 31 -35 -12 -8 -18 -18
-14 -21 3 -4 -4 -15 -15 -26 -12 -10 -22 -23 -22 -30 0 -6 -7 -11 -16 -11 -11
0 -15 6 -11 20 3 11 0 20 -5 20 -6 0 -4 8 4 18 12 13 13 23 6 42 -6 14 -12 20
-15 14 -3 -8 -17 -5 -46 8 -25 13 -43 16 -45 10 -4 -12 -66 -6 -98 10 -17 8
-20 16 -16 41 6 42 5 58 -3 83 -5 18 -2 22 22 27 15 3 32 1 38 -4 13 -13 19
-12 45 11 13 12 30 18 38 15 7 -3 21 -5 30 -5z m-454 -22 c4 -18 22 -69 31
-92 6 -14 4 -18 -6 -14 -18 6 -79 86 -79 104 0 18 49 19 54 2z m3213 -821 c-6
-20 -27 -19 -27 2 0 14 5 19 15 14 9 -3 14 -10 12 -16z m-1407 -227 c0 -5 -5
-10 -11 -10 -5 0 -7 5 -4 10 3 6 8 10 11 10 2 0 4 -4 4 -10z"/>
<path d="M7790 11865 c0 -8 7 -15 16 -15 14 0 14 3 4 15 -7 8 -14 15 -16 15
-2 0 -4 -7 -4 -15z"/>
<path d="M8114 11478 c-3 -4 2 -8 10 -8 8 0 17 4 20 8 3 5 -2 9 -10 9 -8 0
-17 -4 -20 -9z"/>
<path d="M8406 11362 c-3 -5 1 -9 9 -9 8 0 15 4 15 9 0 4 -4 8 -9 8 -6 0 -12
-4 -15 -8z"/>
<path d="M10670 11130 c0 -5 5 -10 11 -10 5 0 7 5 4 10 -3 6 -8 10 -11 10 -2
0 -4 -4 -4 -10z"/>
<path d="M10612 11114 c-7 -7 -12 -18 -12 -24 0 -5 -5 -10 -10 -10 -6 0 -5 -8
2 -20 13 -20 14 -19 40 9 16 17 28 34 28 39 0 16 -35 20 -48 6z m18 -18 c0 -3
-4 -8 -10 -11 -5 -3 -10 -1 -10 4 0 6 5 11 10 11 6 0 10 -2 10 -4z"/>
<path d="M10466 11065 c-3 -8 -12 -15 -21 -15 -15 0 -41 -48 -31 -57 8 -9 27
8 20 18 -8 13 37 48 53 42 7 -3 13 2 13 11 0 20 -26 21 -34 1z"/>
<path d="M6650 10942 c13 -18 27 -32 32 -32 14 0 -2 25 -29 44 l-26 19 23 -31z"/>
<path d="M6823 10894 c-29 -13 -53 -29 -53 -34 0 -17 -29 -11 -50 10 -29 29
-43 25 -35 -9 4 -21 2 -30 -10 -35 -21 -8 -13 -34 26 -97 16 -25 29 -53 29
-62 0 -44 77 -120 88 -87 5 15 42 -13 42 -33 0 -24 43 -40 51 -19 5 14 7 13
18 -3 7 -12 14 -15 17 -9 3 6 15 26 29 44 26 35 24 60 -6 60 -12 0 -19 7 -19
20 0 11 5 20 11 20 7 0 10 12 7 30 -3 21 0 30 9 30 11 0 11 6 -2 30 -18 36
-19 40 -2 40 20 0 14 40 -10 64 -22 22 -79 66 -85 66 -1 0 -27 -12 -55 -26z"/>
<path d="M6454 10262 c12 -14 17 -30 13 -48 -7 -36 13 -84 36 -84 17 0 17 -1
0 -24 -10 -13 -22 -22 -27 -19 -5 3 -6 0 -4 -8 3 -8 17 -13 34 -12 18 2 37 -6
51 -19 26 -24 93 -51 93 -37 0 5 12 9 28 9 15 0 34 5 42 10 12 8 10 10 -10 8
-17 -2 -25 3 -28 16 -2 10 -17 30 -33 43 -17 15 -29 35 -29 49 0 14 -10 30
-25 40 -14 9 -25 25 -25 35 0 11 -3 18 -7 18 -21 -3 -33 2 -33 15 0 9 -12 14
-34 14 -19 0 -41 3 -48 8 -7 4 -5 -2 6 -14z m61 -112 c3 -5 1 -10 -4 -10 -6 0
-11 5 -11 10 0 6 2 10 4 10 3 0 8 -4 11 -10z"/>
<path d="M14372 10180 c2 -9 -6 -16 -20 -18 -13 -2 -26 -10 -29 -18 -3 -8 -11
-14 -19 -14 -8 0 -14 -6 -14 -14 0 -14 -36 -46 -52 -46 -5 0 -8 6 -8 14 0 20
-24 26 -58 16 -20 -5 -34 -4 -42 3 -8 9 -10 8 -4 -6 5 -15 3 -16 -17 -8 -13 4
-24 15 -24 22 0 8 -12 15 -27 17 -22 3 -27 0 -22 -12 3 -9 1 -16 -5 -16 -6 0
-11 -8 -11 -19 0 -20 -25 -31 -72 -31 -25 0 -28 -4 -28 -33 0 -31 -3 -34 -32
-35 -17 0 -34 -6 -38 -12 -4 -6 -15 -8 -24 -4 -16 6 -17 5 -6 -17 7 -12 9 -24
4 -26 -33 -11 -74 -46 -74 -62 0 -10 -7 -21 -15 -25 -8 -3 -15 -12 -15 -20 0
-22 -74 -76 -104 -76 -14 0 -26 -6 -26 -12 0 -18 -86 -108 -103 -108 -7 0 -18
-13 -24 -30 -9 -23 -18 -30 -37 -30 -16 0 -26 -6 -26 -14 0 -23 -49 -30 -71
-10 -15 14 -17 19 -7 26 8 5 -2 8 -26 8 -25 0 -44 6 -53 18 -10 12 -16 13 -19
5 -4 -9 -12 -8 -31 4 -24 16 -26 16 -38 0 -7 -10 -17 -17 -21 -16 -5 1 -22 -1
-37 -6 -20 -5 -25 -11 -18 -18 7 -7 4 -18 -9 -34 -15 -20 -16 -29 -7 -61 6
-20 16 -44 23 -52 6 -8 15 -26 19 -40 4 -14 17 -35 28 -48 21 -22 47 -84 47
-111 0 -8 7 -23 17 -33 13 -15 14 -23 5 -43 -14 -31 -9 -46 28 -74 17 -12 30
-30 30 -41 0 -25 35 -43 67 -35 13 3 23 2 20 -2 -3 -4 11 -9 30 -10 19 -1 42
-8 51 -15 11 -9 14 -10 8 0 -5 8 1 12 21 12 24 0 30 -6 41 -37 7 -21 15 -58
17 -82 2 -24 15 -60 29 -82 31 -47 34 -79 6 -86 -14 -4 -20 -14 -20 -33 0 -20
-6 -31 -20 -35 -26 -8 -26 -22 0 -30 14 -4 19 -12 15 -24 -3 -11 5 -22 25 -34
17 -10 30 -25 30 -33 0 -18 34 -18 54 1 19 20 26 19 26 -4 0 -10 7 -25 16 -32
25 -21 38 -62 22 -74 -20 -16 -22 -39 -3 -31 9 3 34 6 56 6 40 0 55 22 23 34
-9 4 -14 13 -10 22 3 8 -1 25 -9 38 -15 22 -14 23 12 21 33 -2 73 -25 73 -41
0 -7 8 -11 18 -10 18 1 20 -15 6 -49 -7 -18 -6 -19 11 -5 10 8 26 14 37 12 11
-2 18 3 18 12 0 19 7 20 40 1 22 -12 27 -11 42 2 20 18 48 11 48 -12 0 -9 -4
-13 -10 -10 -15 9 -12 -15 4 -31 21 -20 44 -17 48 6 2 12 8 21 13 20 12 0 15
-49 4 -56 -10 -6 0 -34 12 -34 5 0 9 7 9 16 0 12 7 15 29 12 l30 -4 3 69 c2
46 -1 76 -10 88 -12 17 -10 19 14 19 22 0 25 4 21 21 -4 15 0 23 13 26 16 4
18 9 9 25 -12 23 -14 21 28 37 37 15 49 41 32 72 -10 20 -9 21 14 17 23 -5 50
19 52 47 1 17 38 85 46 85 10 0 -1 140 -13 163 -6 12 -5 17 5 17 11 0 12 11 5
56 -7 44 -16 63 -48 96 -28 29 -40 51 -42 77 -3 31 -8 37 -38 47 -18 6 -38 20
-43 32 -5 11 -19 25 -31 30 -11 6 -15 11 -8 11 31 2 69 65 52 86 -7 9 -8 15 0
20 15 9 13 21 -7 41 -10 10 -18 20 -19 23 -5 36 -19 61 -34 61 -47 0 -65 26
-35 50 8 7 15 18 14 24 0 7 -2 6 -6 -1 -7 -19 -20 -16 -26 7 -6 22 19 35 47
24 11 -4 16 -1 16 10 0 9 8 16 20 16 13 0 18 5 14 15 -4 10 1 13 23 12 24 -2
31 4 48 40 11 23 39 55 62 72 23 16 45 36 50 43 19 30 46 35 80 15 30 -17 33
-18 39 -2 4 9 2 21 -5 28 -8 8 -11 8 -11 0 0 -6 -9 -9 -21 -6 -19 5 -19 7 -5
15 9 5 14 13 11 19 -4 5 1 9 10 9 9 0 14 -4 11 -9 -5 -8 44 -33 92 -46 25 -7
25 -10 7 52 -6 21 -8 22 -33 9 -33 -17 -71 -3 -53 18 8 10 6 18 -9 31 -11 10
-20 27 -20 38 0 11 -2 18 -5 15 -3 -3 -25 0 -48 7 -36 10 -42 16 -45 42 -2 17
-14 41 -28 54 -16 15 -24 19 -22 9z m-682 -1616 c0 -1 -4 -14 -10 -29 -8 -22
-13 -24 -30 -15 -18 10 -27 40 -15 52 5 5 55 -2 55 -8z"/>
<path d="M6766 10024 c11 -17 20 -22 27 -15 12 12 -8 41 -29 41 -12 0 -11 -5
2 -26z"/>
<path d="M7030 9939 c0 -5 5 -7 10 -4 6 3 10 8 10 11 0 2 -4 4 -10 4 -5 0 -10
-5 -10 -11z"/>
<path d="M12151 9644 c0 -11 3 -14 6 -6 3 7 2 16 -1 19 -3 4 -6 -2 -5 -13z"/>
<path d="M11610 8850 c0 -5 4 -10 9 -10 4 0 25 -11 46 -25 40 -28 68 -30 42
-3 -9 8 -13 18 -10 22 4 3 -6 6 -21 6 -15 0 -36 5 -47 10 -13 7 -19 7 -19 0z"/>
<path d="M14320 8610 c0 -5 5 -10 11 -10 5 0 7 5 4 10 -3 6 -8 10 -11 10 -2 0
-4 -4 -4 -10z"/>
<path d="M13546 8463 c-13 -27 -13 -31 1 -46 15 -14 18 -14 36 9 20 26 20 26
-1 46 l-20 21 -16 -30z"/>
<path d="M13620 8462 c0 -24 8 -32 26 -25 10 4 11 9 1 24 -15 24 -27 24 -27 1z"/>
<path d="M13594 8395 c-19 -14 -19 -14 2 -15 12 0 21 6 21 15 0 18 1 18 -23 0z"/>
<path d="M13950 8379 c0 -16 31 -71 37 -66 2 3 1 16 -3 29 -4 13 -7 26 -6 30
1 3 -5 9 -13 12 -8 3 -15 1 -15 -5z"/>
<path d="M13540 8373 c0 -6 -3 -18 -6 -27 -4 -10 -1 -16 9 -16 23 0 28 15 12
36 -8 10 -15 14 -15 7z"/>
<path d="M13810 8345 c0 -27 1 -28 24 -19 24 9 20 44 -4 44 -15 0 -20 -7 -20
-25z"/>
<path d="M13900 8325 c-16 -20 -6 -30 30 -30 27 0 28 2 16 19 -17 27 -30 30
-46 11z"/>
<path d="M13565 8320 c-8 -14 3 -30 21 -30 18 0 18 8 0 26 -9 9 -17 10 -21 4z"/>
<path d="M13600 8323 c0 -5 5 -15 10 -23 8 -12 10 -11 10 8 0 12 -4 22 -10 22
-5 0 -10 -3 -10 -7z"/>
<path d="M13655 8287 c-6 -12 -17 -23 -25 -23 -8 -1 -19 -2 -24 -3 -5 0 -3 -8
4 -16 7 -8 10 -21 7 -29 -5 -13 1 -16 56 -31 4 -2 12 -3 17 -4 6 0 19 -10 29
-20 18 -18 20 -18 21 -3 0 9 2 33 3 52 1 19 6 41 10 48 5 8 3 12 -7 12 -8 0
-19 7 -24 15 -4 9 -19 18 -33 20 -18 3 -27 -1 -34 -18z"/>
<path d="M13580 8240 c0 -5 5 -10 11 -10 5 0 7 5 4 10 -3 6 -8 10 -11 10 -2 0
-4 -4 -4 -10z"/>
<path d="M12058 8144 c-4 -33 -2 -35 19 -31 13 2 23 1 23 -3 0 -4 14 -13 30
-20 17 -7 30 -18 30 -26 0 -7 5 -16 11 -20 7 -4 10 -1 7 6 -5 16 37 60 57 60
8 0 15 5 15 11 0 8 5 8 15 -1 13 -11 15 -8 15 14 0 14 -3 27 -7 27 -49 8 -130
4 -141 -7 -10 -11 -16 -10 -32 6 -28 28 -37 25 -42 -16z"/>
</g>
</svg>
