<?xml version="1.0" standalone="no"?>
<!DOCTYPE svg PUBLIC "-//W3C//DTD SVG 20010904//EN"
 "http://www.w3.org/TR/2001/REC-SVG-20010904/DTD/svg10.dtd">
<svg version="1.0" xmlns="http://www.w3.org/2000/svg"
 width="405.879726pt" height="638.404569pt" viewBox="0 0 405.879726 638.404569"
 preserveAspectRatio="xMidYMid meet">
<metadata>
Created by potrace 1.15, written by Peter Selinger 2001-2017
</metadata>
<g transform="translate(-873.082140,1314.918443) scale(0.100000,-0.100000)"
fill="#222222" stroke="none">
<path d="M11375 13140 c5 -8 2 -10 -11 -6 -11 3 -28 -2 -39 -10 -17 -12 -18
-16 -5 -24 8 -5 21 -5 33 1 10 6 25 8 33 5 11 -4 15 0 12 16 -2 12 -9 23 -17
26 -9 3 -11 0 -6 -8z"/>
<path d="M11285 13111 c-3 -5 -1 -12 5 -16 5 -3 10 1 10 9 0 18 -6 21 -15 7z"/>
<path d="M11361 13035 c1 -11 -4 -35 -9 -52 -7 -22 -7 -35 -1 -39 6 -3 13 -4
16 -1 9 10 11 83 3 98 -7 10 -9 9 -9 -6z"/>
<path d="M9926 13012 c-8 -13 5 -52 18 -52 17 0 34 -48 38 -105 3 -43 0 -50
-14 -49 -10 1 -18 -2 -18 -7 0 -5 -11 -14 -25 -21 -23 -10 -26 -28 -4 -28 6 0
7 5 4 10 -10 16 11 12 25 -4 6 -8 23 -16 37 -18 22 -3 26 -9 29 -46 4 -48 -7
-78 -39 -104 -20 -15 -20 -18 -6 -35 9 -10 14 -24 12 -31 -3 -8 8 -27 23 -44
20 -21 23 -29 12 -25 -22 8 -25 -18 -3 -27 8 -3 15 -1 15 5 0 6 7 8 15 5 11
-4 19 3 25 20 12 31 32 27 40 -7 7 -25 22 -29 73 -16 25 7 29 4 48 -35 11 -24
26 -54 34 -68 8 -14 15 -37 15 -52 0 -28 12 -40 43 -45 10 -2 17 3 17 12 0 8
9 15 19 15 11 0 32 10 48 23 15 13 49 38 76 56 45 31 47 34 47 81 0 54 15 70
65 70 14 0 39 7 54 15 16 8 65 17 110 21 55 5 81 11 81 20 0 7 13 15 28 19 16
3 44 21 62 40 19 19 40 35 47 35 7 0 13 6 13 14 0 8 5 16 11 18 7 2 0 12 -15
21 -25 17 -26 17 -26 -3 0 -29 -26 -25 -57 10 -26 30 -63 41 -63 18 0 -7 -6
-7 -17 3 -44 35 -64 41 -82 25 -22 -20 -35 -20 -51 -1 -7 9 -18 14 -24 12 -6
-2 -23 14 -38 34 -39 54 -71 73 -97 59 -18 -9 -32 -3 -92 36 -49 33 -73 44
-81 36 -6 -6 -17 -8 -24 -5 -8 3 -14 1 -14 -5 0 -21 -39 -19 -66 4 -16 13 -40
23 -53 24 -13 0 -36 11 -53 25 -16 14 -39 25 -50 25 -12 0 -30 8 -40 17 -18
16 -18 16 -12 0 5 -14 1 -16 -27 -11 -19 4 -42 11 -51 15 -21 11 -35 11 -42 1z"/>
<path d="M11248 12997 c10 -12 11 -21 2 -37 -6 -11 -15 -18 -21 -15 -8 5 -14
-30 -12 -73 1 -9 -6 -12 -18 -9 -10 3 -36 -3 -57 -13 -22 -11 -49 -16 -65 -13
-20 4 -27 1 -27 -10 0 -9 -10 -23 -22 -31 -17 -12 -19 -18 -9 -30 9 -11 9 -15
0 -18 -9 -3 -8 -10 2 -26 16 -26 29 -29 29 -6 0 13 5 12 29 -5 35 -25 47 -26
55 -6 3 8 12 15 20 15 9 0 18 11 22 25 3 14 10 23 14 20 17 -10 40 8 40 32 0
18 4 24 15 19 10 -4 19 3 25 18 5 13 15 26 22 28 10 4 9 10 -4 25 -19 21 -24
38 -9 29 5 -3 11 14 12 38 2 24 1 42 -3 40 -4 -3 -18 1 -30 7 -21 11 -22 11
-10 -4z"/>
<path d="M11343 12892 c-25 -4 -30 -17 -12 -28 6 -3 18 1 27 10 19 18 15 23
-15 18z"/>
<path d="M11408 12863 c7 -3 16 -2 19 1 4 3 -2 6 -13 5 -11 0 -14 -3 -6 -6z"/>
<path d="M11020 12664 c0 -12 20 -42 20 -30 0 5 7 3 15 -4 12 -10 19 -10 27
-2 9 9 7 12 -7 12 -10 0 -27 7 -37 17 -10 9 -18 12 -18 7z"/>
<path d="M11120 12584 c0 -3 6 -12 14 -19 12 -12 16 -12 25 -1 6 7 8 16 4 19
-8 8 -43 9 -43 1z"/>
<path d="M10299 12203 c-15 -2 -38 -17 -53 -34 -14 -16 -35 -29 -46 -29 -17 0
-20 -7 -20 -39 0 -30 -5 -41 -19 -46 -11 -3 -21 -19 -25 -37 -3 -17 -16 -38
-27 -46 -15 -10 -19 -22 -16 -40 6 -34 -11 -80 -31 -84 -16 -4 -27 -1 -71 22
-14 6 -23 5 -31 -5 -7 -8 -21 -15 -31 -15 -21 0 -26 -16 -8 -22 9 -3 9 -10 0
-26 -12 -23 -35 -29 -46 -12 -4 7 -12 7 -25 0 -10 -5 -32 -7 -49 -4 -18 4 -31
2 -31 -4 0 -5 -19 -28 -41 -51 -32 -32 -49 -41 -75 -41 -22 0 -37 -6 -40 -15
-4 -10 -14 -13 -29 -9 -14 4 -33 -1 -47 -10 -12 -9 -33 -16 -45 -16 -16 0 -23
-6 -23 -20 0 -12 -10 -25 -24 -31 -15 -7 -22 -17 -19 -25 4 -10 0 -12 -11 -8
-9 4 -24 0 -34 -8 -19 -16 -59 -21 -67 -8 -8 13 -45 0 -45 -16 0 -17 3 -17
-53 2 -35 12 -47 21 -47 36 0 15 -4 18 -17 13 -10 -4 -31 -11 -48 -15 -16 -4
-25 -8 -20 -9 6 -1 3 -5 -5 -11 -12 -7 -11 -10 5 -16 11 -5 20 -3 23 4 6 20
22 13 22 -9 0 -22 -36 -58 -57 -59 -8 0 -13 14 -13 35 0 33 -2 35 -20 25 -11
-6 -18 -15 -15 -21 9 -13 -22 -11 -45 3 -15 10 -25 10 -38 2 -18 -12 -88 -12
-99 0 -15 14 -19 3 -20 -54 -1 -50 2 -60 18 -65 25 -8 24 -22 -1 -30 -20 -6
-20 -8 -3 -35 9 -16 21 -27 27 -24 6 3 3 -1 -7 -9 -12 -10 -14 -17 -8 -22 8
-4 8 -12 1 -25 -6 -12 -7 -21 0 -25 5 -3 7 -12 3 -21 -3 -8 2 -23 11 -33 13
-14 16 -35 14 -93 -1 -55 2 -80 13 -90 19 -19 49 -30 49 -18 0 6 6 10 14 10
21 0 46 -39 46 -70 0 -40 20 -73 62 -103 21 -15 42 -27 47 -27 11 0 21 36 21
82 l0 37 28 -15 c32 -16 58 -18 67 -4 11 18 54 11 65 -11 9 -15 8 -24 -1 -37
-16 -20 -69 -72 -74 -72 -14 0 -55 -51 -55 -69 0 -15 -6 -21 -21 -21 -20 0
-21 -4 -16 -52 4 -31 13 -58 23 -65 13 -9 14 -15 3 -34 -6 -13 -14 -41 -15
-63 -2 -22 -8 -44 -14 -50 -15 -15 -12 -46 5 -52 17 -7 11 -43 -9 -56 -6 -4
-7 -8 -3 -8 4 0 3 -9 -4 -21 -9 -17 -17 -20 -44 -15 l-34 7 25 -58 c16 -36 22
-59 15 -61 -6 -2 -11 -17 -11 -33 0 -23 -4 -29 -22 -30 -15 0 -18 -2 -8 -6 32
-12 50 -35 39 -50 -8 -8 -8 -13 -1 -13 11 0 10 -41 -3 -78 -6 -19 -13 -22 -31
-18 -27 7 -33 -11 -11 -33 10 -11 8 -12 -10 -6 -16 4 -23 2 -23 -7 0 -17 -35
-48 -55 -48 -11 0 -13 -8 -9 -29 7 -33 -10 -71 -32 -71 -8 0 -26 -10 -40 -23
-31 -29 -23 -54 20 -62 23 -5 43 -21 75 -62 30 -39 48 -54 60 -50 25 6 51 -10
51 -32 0 -31 24 -70 47 -74 16 -3 23 1 23 11 0 12 3 12 15 2 11 -9 20 -8 45
10 19 13 37 19 50 15 18 -6 19 -8 4 -22 -10 -11 -14 -25 -10 -42 4 -14 8 -37
10 -51 2 -14 7 -35 11 -47 4 -14 3 -23 -3 -23 -17 0 -42 -30 -42 -51 0 -10 6
-19 13 -19 7 0 18 -9 25 -21 7 -11 19 -18 26 -16 7 3 26 -5 42 -19 16 -13 34
-23 40 -24 7 0 21 -18 33 -40 25 -48 25 -50 7 -50 -11 0 -13 -10 -9 -42 3 -24
10 -51 14 -60 7 -13 4 -17 -14 -20 -35 -5 -33 -39 5 -80 18 -19 43 -41 56 -47
12 -7 20 -16 17 -20 -2 -5 10 -28 29 -51 21 -26 31 -50 29 -63 -2 -13 10 -44
32 -77 19 -30 35 -58 35 -63 0 -5 7 -7 15 -3 9 3 19 -3 25 -14 8 -15 8 -20 -2
-20 -9 0 -9 -3 2 -10 24 -15 37 -12 43 12 l6 22 26 -24 c19 -18 22 -26 13 -32
-12 -7 -3 -12 16 -9 11 2 96 -79 96 -91 0 -4 -6 -8 -14 -8 -23 0 -27 -29 -6
-42 11 -7 20 -19 20 -26 0 -25 30 -71 50 -77 13 -4 20 -15 20 -31 0 -15 4 -23
10 -19 6 4 19 -4 30 -17 18 -21 19 -34 14 -133 -5 -107 -22 -175 -44 -175 -14
0 -6 -128 9 -143 6 -6 11 -18 11 -27 0 -10 7 -31 16 -49 18 -36 11 -106 -11
-118 -8 -5 -11 -18 -8 -35 6 -34 59 -50 78 -24 8 10 27 16 51 16 44 0 84 33
84 68 0 12 5 24 10 27 6 3 10 19 10 36 0 24 4 29 25 29 34 0 92 54 100 93 11
57 16 67 30 67 21 0 39 64 25 90 -10 19 -8 24 10 37 12 9 31 34 41 57 10 22
19 35 19 29 0 -15 30 -18 30 -3 0 6 9 6 25 0 23 -9 25 -7 25 17 0 14 7 31 17
38 20 15 11 47 -12 39 -9 -4 -15 0 -15 10 0 10 -6 13 -17 10 -11 -4 -14 -3 -7
3 6 4 15 19 19 32 5 17 10 20 18 12 6 -6 18 -11 26 -11 8 0 11 3 7 8 -4 4 -13
7 -19 7 -7 0 -13 14 -15 32 -3 26 -9 34 -38 45 -41 15 -42 21 -7 37 19 9 29 9
31 2 2 -6 12 -11 23 -11 14 0 19 7 19 25 0 19 4 23 17 18 13 -5 15 -3 8 13
-16 36 -18 116 -4 125 11 7 10 9 -4 9 -11 0 -22 12 -28 29 -6 17 -21 33 -35
38 -23 8 -23 10 -10 29 20 28 62 20 84 -16 16 -25 39 -29 52 -9 3 4 18 10 33
13 34 6 47 14 47 30 0 6 6 18 13 25 6 6 12 24 13 39 2 88 3 94 24 87 31 -10
24 13 -10 30 -31 16 -31 16 -24 -10 4 -17 2 -25 -7 -25 -7 0 -20 -7 -30 -16
-13 -12 -22 -13 -38 -5 -25 14 -34 14 -25 0 4 -8 0 -8 -15 0 -38 21 -135 -19
-117 -47 10 -16 -32 -21 -45 -6 -7 8 -18 13 -26 10 -8 -3 -27 4 -43 16 -23 16
-32 19 -43 10 -8 -7 -17 -9 -21 -5 -4 4 -11 1 -16 -7 -7 -12 -15 -9 -40 15
-17 17 -41 30 -52 30 -11 0 -24 7 -29 15 -12 23 -22 54 -21 63 4 16 -53 6 -74
-14 -15 -14 -29 -19 -41 -15 -17 7 -17 8 -1 20 12 9 19 34 24 88 l7 76 -47 45
c-26 24 -65 52 -86 62 -33 15 -40 23 -40 47 0 16 6 31 15 34 12 5 12 9 -3 29
-17 22 -39 23 -55 1 -4 -6 -5 3 -1 19 4 17 10 32 14 35 4 3 15 20 24 38 9 17
21 32 27 32 6 0 7 5 4 10 -3 6 -15 10 -27 10 -16 0 -18 3 -9 14 6 7 9 21 5 30
-4 11 -1 16 11 16 16 0 16 1 0 26 -12 19 -15 37 -11 66 4 22 2 48 -5 60 -8 15
-8 23 -1 26 5 1 8 12 5 22 -3 11 2 32 12 46 14 22 15 31 6 52 -15 32 -9 36 20
14 46 -36 132 -22 121 20 -4 17 -2 20 12 15 10 -4 20 -7 22 -7 2 0 4 -9 4 -19
0 -11 12 -29 26 -40 30 -24 53 -28 35 -7 -15 18 -3 76 15 69 30 -11 13 36 -23
63 -20 15 -31 30 -25 32 7 2 10 8 6 13 -3 5 0 9 6 9 7 0 10 7 6 15 -7 20 3 19
42 -5 18 -11 34 -20 36 -20 3 0 5 11 8 49 3 23 21 17 54 -15 30 -31 84 -33 84
-4 0 11 6 20 14 20 8 0 17 7 20 16 4 9 9 14 13 11 9 -10 43 12 43 28 0 8 6 15
14 15 8 0 18 9 21 20 4 14 15 20 35 20 19 0 33 7 40 20 6 11 15 18 20 15 4 -3
6 4 3 15 -4 16 0 20 19 20 23 0 24 2 21 63 -4 63 6 142 14 119 3 -6 9 -10 14
-6 5 3 5 13 -1 24 -8 15 -4 25 21 49 17 17 35 31 40 31 5 0 9 9 9 20 0 19 44
50 72 50 12 0 44 -66 39 -80 -1 -3 -18 -3 -38 -1 -33 3 -36 1 -24 -13 10 -12
10 -19 -3 -37 -14 -20 -13 -25 4 -60 11 -21 24 -40 29 -43 5 -3 9 -36 8 -74 0
-50 5 -75 18 -96 16 -24 20 -26 30 -13 10 14 15 9 34 -29 13 -28 27 -44 34
-41 7 3 23 0 34 -7 21 -11 23 -14 23 -36 0 -5 7 -7 16 -3 11 4 14 13 9 30 -5
21 -3 23 14 14 11 -6 21 -16 23 -23 4 -10 11 -10 32 2 28 15 34 12 50 -25 7
-16 25 16 18 33 -4 11 -1 14 10 9 10 -3 25 4 38 19 17 17 30 22 46 18 21 -5
23 -2 26 43 2 32 7 47 16 45 6 -1 12 5 12 13 0 8 4 15 8 15 23 0 29 -27 25
-108 -4 -78 -2 -90 17 -112 14 -17 32 -24 60 -25 58 -2 58 -3 52 -30 -6 -31
27 -95 74 -141 69 -70 94 -112 92 -160 -3 -48 16 -80 31 -55 8 12 14 10 35 -7
28 -21 21 -36 -11 -26 -13 4 -15 3 -5 -4 20 -14 10 -47 -16 -50 -21 -3 -32
-32 -12 -32 6 0 15 -12 21 -27 9 -24 5 -38 -26 -100 -20 -40 -42 -73 -49 -73
-7 0 -17 -17 -22 -37 -7 -30 -14 -38 -32 -37 -12 0 -22 -5 -22 -13 0 -7 -6
-13 -14 -13 -8 0 -16 -7 -20 -15 -3 -8 -17 -15 -30 -15 -14 0 -31 -6 -38 -14
-9 -9 -20 -11 -34 -5 -18 6 -23 4 -27 -13 -5 -18 -9 -19 -21 -9 -13 11 -16 9
-22 -14 -6 -24 -7 -25 -25 -9 -22 20 -65 12 -92 -17 -17 -18 -17 -22 -3 -43 8
-13 31 -34 51 -46 22 -14 35 -29 33 -39 -2 -9 6 -24 17 -33 l20 -17 -22 -16
c-12 -8 -21 -23 -21 -33 1 -9 -2 -26 -5 -38 -5 -15 -1 -26 15 -40 12 -10 18
-13 14 -6 -11 18 9 15 27 -5 13 -16 14 -21 2 -43 -8 -14 -14 -33 -15 -44 0
-12 -5 -16 -15 -12 -11 4 -10 -5 7 -34 13 -22 25 -40 28 -40 7 0 30 51 30 67
0 16 12 17 29 1 11 -11 13 -10 8 5 -8 21 -10 21 43 -4 32 -16 48 -18 64 -11
12 6 29 13 39 16 9 3 17 15 17 27 0 19 4 21 39 15 38 -6 65 7 39 17 -23 10 30
7 55 -2 27 -10 40 -4 50 22 3 9 15 17 25 17 15 0 18 5 14 27 -4 22 -2 25 12
20 24 -9 84 20 92 45 5 15 11 18 32 13 45 -11 64 -54 42 -94 -6 -13 -5 -24 4
-37 13 -17 15 -17 46 9 40 34 63 34 87 1 17 -24 23 -25 65 -19 41 6 48 11 53
36 4 16 10 29 15 29 4 0 5 20 2 45 -5 50 -2 52 57 35 43 -12 71 9 71 52 0 21
5 28 19 28 10 0 21 7 25 15 3 8 13 15 22 15 22 0 64 46 64 70 0 27 12 31 44
14 35 -18 46 -18 46 0 0 9 12 16 28 18 19 2 28 9 30 26 2 12 7 22 12 22 5 0
21 12 35 28 18 19 25 35 22 55 -2 15 0 27 4 27 3 0 9 9 12 19 4 16 10 18 38
12 38 -9 62 -4 53 10 -3 5 0 9 5 9 6 0 11 10 11 23 -1 16 -13 28 -50 46 -30
14 -53 34 -60 50 -6 15 -28 34 -50 44 -26 12 -40 25 -40 38 0 10 -4 19 -8 19
-13 0 -56 91 -62 130 -4 27 -9 34 -23 32 -10 -2 -33 8 -50 21 -32 24 -32 24
-62 5 -16 -10 -40 -18 -52 -18 -12 0 -23 -5 -25 -10 -5 -15 -78 38 -88 65 -6
17 -16 22 -37 21 -15 -1 -34 -5 -41 -9 -8 -5 -15 -2 -19 10 -3 10 -12 22 -20
26 -7 4 -13 15 -13 23 0 9 -14 29 -31 45 -17 16 -26 29 -20 29 19 0 12 26 -18
64 -38 48 -54 96 -49 149 3 30 -1 46 -14 59 -20 20 -24 48 -7 48 6 0 8 7 5 16
-4 12 -1 14 13 9 19 -6 19 -5 0 34 -10 22 -19 45 -19 50 0 6 -9 15 -21 21 -20
11 -20 12 -3 32 20 21 20 38 9 186 -6 71 -10 82 -26 82 -10 0 -28 9 -40 21
-18 18 -22 19 -43 6 -23 -16 -62 -5 -51 14 4 5 -9 9 -29 9 -19 0 -36 5 -38 12
-2 6 -12 13 -21 15 -9 1 -24 4 -32 6 -8 2 -21 9 -27 15 -7 7 -18 12 -25 12 -7
0 -16 15 -21 33 -7 25 -13 31 -30 29 -16 -2 -23 3 -28 25 -4 15 -27 50 -53 76
-55 58 -81 74 -91 58 -11 -18 -42 -1 -37 20 4 13 -2 19 -24 24 -16 4 -33 4
-38 1 -18 -12 -30 19 -21 57 6 30 4 42 -12 62 -28 36 -56 49 -74 34 -11 -9
-14 -8 -14 4 0 26 -60 62 -97 58 -25 -2 -33 1 -33 13 0 10 -9 16 -21 16 -16 0
-20 -5 -16 -20 4 -14 -3 -26 -24 -41 -16 -11 -29 -18 -29 -14 0 3 -9 1 -19 -4
-22 -12 -47 8 -31 25 5 5 3 17 -6 28 -12 17 -14 18 -14 3 0 -9 -7 -17 -15 -17
-8 0 -15 4 -15 9 0 13 -59 31 -97 29 -38 -1 -73 -36 -73 -73 0 -31 -22 -33
-50 -5 -11 11 -20 27 -20 35 0 16 -8 18 -53 15 -15 -1 -27 2 -26 7 1 4 1 10
-1 13 -1 3 -3 16 -6 30 -2 14 -10 38 -16 54 -7 17 -11 41 -10 55 1 13 -5 33
-15 43 -15 17 -15 18 11 18 15 0 36 5 46 10 16 8 18 15 10 35 -8 20 -6 25 6
25 10 0 13 6 10 18 -4 11 2 23 14 32 11 8 20 18 20 23 0 5 -7 4 -16 -3 -13
-11 -16 -10 -21 8 -3 12 -16 25 -28 28 -13 3 -26 13 -29 21 -4 10 -2 13 8 10
12 -5 14 6 14 56 -1 86 10 127 34 127 21 0 26 10 32 58 2 18 12 40 23 47 24
17 24 82 -1 120 -9 13 -16 29 -16 34 0 20 -24 61 -35 61 -17 0 -55 44 -55 63
0 10 -8 17 -19 17 -23 0 -66 64 -57 85 3 8 -3 19 -12 24 -9 5 -17 22 -17 37 0
20 -8 32 -30 45 -16 10 -32 17 -35 17 -3 -1 -17 -3 -31 -5z m-304 -882 c3 -5
1 -12 -5 -16 -6 -4 -8 -11 -5 -16 9 -14 -5 -11 -21 6 -9 9 -11 15 -4 15 6 0 8
5 5 10 -3 6 1 10 9 10 8 0 17 -4 21 -9z m-405 -221 c0 -5 -4 -10 -10 -10 -5 0
-10 5 -10 10 0 6 5 10 10 10 6 0 10 -4 10 -10z m-486 -301 c-6 -11 -24 -2 -24
11 0 5 7 7 15 4 8 -4 12 -10 9 -15z m1716 -439 c0 -5 -2 -10 -4 -10 -3 0 -8 5
-11 10 -3 6 -1 10 4 10 6 0 11 -4 11 -10z m-360 -2246 c0 -8 -5 -12 -10 -9 -6
4 -8 11 -5 16 9 14 15 11 15 -7z"/>
<path d="M9118 10729 c8 -22 24 -27 30 -10 2 5 -6 15 -17 21 -18 9 -20 8 -13
-11z"/>
<path d="M9040 10633 c0 -12 38 -48 45 -41 3 2 -6 15 -20 28 -14 13 -25 19
-25 13z"/>
<path d="M9020 10585 c7 -9 15 -13 17 -11 7 7 -7 26 -19 26 -6 0 -6 -6 2 -15z"/>
<path d="M10540 9936 c0 -2 7 -7 16 -10 8 -3 12 -2 9 4 -6 10 -25 14 -25 6z"/>
<path d="M10830 9837 c-9 -15 -10 -22 -1 -25 6 -2 9 -8 5 -13 -3 -5 1 -9 9 -9
8 0 17 7 21 15 3 8 15 15 28 15 25 0 16 11 -23 27 -22 9 -27 8 -39 -10z"/>
<path d="M8743 9633 c-3 -10 -8 -22 -11 -27 -3 -5 0 -6 6 -2 6 3 14 1 18 -5 5
-8 9 -7 14 2 7 10 11 10 24 0 9 -7 14 -17 11 -21 -3 -5 -1 -11 4 -14 5 -4 9
12 8 36 -2 41 -4 43 -35 46 -24 2 -34 -1 -39 -15z"/>
<path d="M8820 9524 c0 -2 13 -10 30 -19 24 -13 29 -13 24 -1 -4 12 -54 30
-54 20z"/>
<path d="M9180 9190 c0 -5 5 -10 11 -10 5 0 7 5 4 10 -3 6 -8 10 -11 10 -2 0
-4 -4 -4 -10z"/>
<path d="M12166 8448 c10 -28 11 -45 4 -52 -16 -16 -12 -46 5 -40 8 4 12 10 9
15 -3 5 0 9 7 9 14 0 4 77 -13 97 -21 26 -27 12 -12 -29z"/>
<path d="M10455 8210 c3 -5 8 -10 11 -10 2 0 4 5 4 10 0 6 -5 10 -11 10 -5 0
-7 -4 -4 -10z"/>
<path d="M9878 7386 c-20 -7 -28 -17 -28 -33 0 -23 -26 -45 -68 -58 -13 -4
-43 -27 -68 -51 -25 -24 -55 -44 -66 -44 -10 0 -17 -4 -13 -9 5 -9 -21 -16
-85 -23 -14 -2 -31 4 -38 12 -12 13 -13 12 -7 -5 4 -11 11 -36 16 -55 4 -19
20 -45 34 -57 14 -13 20 -23 13 -23 -9 0 -9 -3 2 -10 12 -7 12 -12 3 -21 -10
-10 -14 -9 -19 4 -4 11 -18 17 -40 17 -19 0 -34 -2 -34 -6 0 -3 11 -21 25 -41
17 -25 21 -40 15 -49 -6 -6 -7 -20 -3 -31 9 -23 75 -83 92 -83 6 0 13 -10 16
-23 5 -20 14 -24 51 -26 35 -1 44 1 44 15 0 10 5 14 14 11 8 -3 16 -1 19 6 3
9 10 9 28 1 16 -8 33 -8 52 -1 20 6 37 5 60 -4 18 -8 40 -12 50 -11 10 2 29
-4 43 -12 20 -14 24 -14 24 -2 0 8 -4 16 -9 18 -6 2 -12 15 -15 30 -3 21 1 32
19 46 14 11 22 22 19 24 -2 3 2 11 11 18 8 7 15 23 15 36 0 16 6 24 18 24 13
0 17 9 18 44 1 30 -3 47 -13 50 -9 4 -11 14 -7 30 3 13 1 27 -5 30 -5 4 -7 22
-4 42 6 34 -21 104 -39 104 -5 0 -8 7 -8 15 0 8 -9 15 -20 15 -14 0 -27 14
-42 45 -25 51 -33 55 -70 41z"/>
<path d="M9397 7283 c3 -10 11 -22 17 -28 6 -5 19 -22 29 -37 18 -29 47 -38
47 -15 0 7 -5 18 -12 25 -9 9 -8 12 5 12 15 0 16 3 6 21 -7 14 -14 18 -18 11
-5 -8 -17 -5 -39 8 -40 24 -43 25 -35 3z"/>
</g>
</svg>
