<svg version="1" xmlns="http://www.w3.org/2000/svg" width="569.788" height="1204.218" viewBox="0 0 427.341 903.164"><g fill="#222"><path d="M29.427 1.882c.4 1.2 1.4 3.2 2.1 4.5.8 1.2 1.2 2.7.9 3.2-.3.6.3 1 1.3 1 1.1 0 2.3.7 2.6 1.6.9 2.4.8 2.5-1.9 1.8-2.1-.5-2.5-.3-2.5 1.5 0 2.6-4 11.2-6 12.8-1.3 1.1-1.3 1.2 0 1.3 1 0 1.1.3.4.8-.9.5-.7 2.4.7 6.8 1.8 5.8 2.1 6.2 5.5 6.9 3.7.7 8.8 5 7.8 6.7-.3.5-1.1.4-1.9-.2-1.9-1.6-3.5-.4-3.5 2.6 0 1.9-.5 2.4-2.4 2.4s-2.6.7-3.1 2.9-1.1 2.8-2.3 2.4c-1-.3-.3.9 1.5 2.8 3.3 3.5 3.6 5 4.2 18.5.1.7 1.1 1.4 2.4 1.8 1.2.3 4 2.1 6.1 3.9 4.4 3.9 4.4 4.3-2.1 10.1-2.6 2.2-4.2 4.4-3.9 5.2.3.8.1 2.5-.4 3.8-.5 1.3-.6 2.7-.2 3.1.4.4.7 1.6.7 2.8.1 1.2 1 3.5 2 5.1 1.9 2.9 1.9 2.9-.3 4.4-1.2.8-2.2 2.1-2.2 2.8 0 .8-.4 1.4-1 1.4-.5 0-.9-.5-.7-1.2.1-.7-.5-1.2-1.3-1.3-.8 0-2-1.1-2.6-2.3l-1.2-2.4-1.6 3.3c-.9 1.7-1.6 4.3-1.6 5.7 0 2.6 3.3 6.2 5.7 6.2 3.2 0 3.6 8.7.5 12.2-.8 1-1.2 2.6-.9 3.8.3 1.1.2 2-.2 2s-1.4 1.2-2.1 2.6c-1.2 2.2-1.2 2.7 0 3.4 2.3 1.5 2.9 1.2 2.3-1-.3-1.1-.3-2 0-2 .9 0 3 4.2 3.3 6.5.1 1.1.7 5 1.3 8.7 1.2 7.4.7 11.8-1.5 11.8-.7 0-1.1.6-.8 1.3.5 1.3-2.6 5.2-4.8 5.9-1.1.4-1 .8.1 2.1 1 1.3 1 1.7.1 1.7-.7 0-1 .8-.7 2 .3 1.1.1 2-.5 2-.5 0-2.7 2-4.9 4.4-2.7 2.9-5.2 4.6-7.5 5-1.9.4-3.4 1.2-3.4 1.9s-.9 1.8-2 2.5c-2.2 1.3-2.7 5.7-.7 6.5 1 .4 1 .6 0 .6-.7.1-1.3.8-1.3 1.6s-.5 1.5-1.1 1.5c-.5 0-1.6 1.5-2.4 3.4-.8 1.9-2 3.6-2.7 3.9-.7.2-.9.8-.5 1.3s1.1.4 1.5-.2c.8-1.3 5.2-2.4 14.5-3.9 2.1-.3 3.5-1 3.2-1.6-.8-1.1 1.4-3.4 4.1-4.3 2.3-.7 8.4 4.3 8.4 6.9 0 2.5 4.9 3.9 7 2 1-.9 2.4-1.5 3.1-1.3.9.2 1.3-.4 1.1-1.5-.3-1.9 3.2-2.5 4.3-.7.3.5 1.1 1 1.6 1 .6 0 .7-.5.4-1-.3-.6-.1-1 .5-1 2.4 0 7.9-4.6 7.7-6.5-.2-1.8.4-2 4.8-2 5.2 0 7.9-1 7-2.6-.4-.5.1-.9 1-.9.8 0 2 1.1 2.5 2.4.5 1.3 1.4 2.7 2 3.1.5.3.8 1 .5 1.4-.4.8 2.5 7.1 4.4 9.5.7.9.5 2.7-.9 6.4-2.3 6-2.5 9.3-.7 11.1 1 1.1 1 1.4 0 1.8-.7.3-1.3 1.3-1.3 2.4 0 1-.5 1.9-1 1.9-.6 0-.3 1.1.6 2.5 1.7 2.6.7 3.4-1.4 1.3-.9-.9-1.2-.8-1.2.5s-.6 1.6-2.5 1.3c-3.3-.6-2.8 1.4.9 3.4 2.9 1.6 3.1 1.6 5.3-.8 2.1-2.3 2.9-1.9 2.4 1.1-.1.4.8.3 1.8-.3 2.1-1 4 .3 2.1 1.5-.5.3-1 1.1-1 1.8 0 .8.3.8 1.2-.1 1.5-1.5 7-1.6 8.4-.2.5.5 2.2 1.1 3.7 1.2 1.5.1 2.7.8 2.7 1.5s.9 1.7 2 2.3c1.1.6 2.5 2 3.1 3.3 1.3 2.3 1.3 10.2.1 12.1-.4.6-.7 1.5-.7 2.1 0 .5-1.3 1.6-2.9 2.4l-2.8 1.3 4 3.7c2.2 2.1 4.4 5.1 4.7 6.7 1.4 6.3 2.8 10 4.5 11.9 1 1.2 2 4.4 2.3 7.8.3 3.2 1.5 7.2 2.6 9.1 1.2 1.8 2.1 4.1 2.1 5 0 .9.9 2.5 1.9 3.5 1 1 2.2 3.8 2.6 6.1.7 4.2.7 4.3-1.8 3.6-2-.5-2.5-.2-2.9 1.8-.7 3.3 1.5 4.9 8.7 6.5 3.3.7 7.7 2.2 9.9 3.3 3.1 1.6 4 1.7 4.7.7.6-1 1.8-.8 5.3 1.2 5.5 3 10.3 8.9 11.2 13.8.4 2 1.6 4.2 2.6 5 1.3.9 1.8 2 1.4 3.4-.6 2.4 1 4.8 2.8 4.1.6-.2 2.2 1.3 3.4 3.4 1.2 2.2 2.9 4.5 3.7 5.2.8.7 1.5 2.1 1.5 3.2s.9 4.1 2.1 6.8c2.1 5 5.4 8 8.6 8 1 0 2.4.9 3.1 2 .7 1.1 1.8 2 2.5 2s2.5 1.2 4 2.6c3.3 3 3.3 6.3-.1 8-3.3 1.6-3.6 2.2-2.3 3.8 1 1.2.8 1.6-.8 2.1s-1.8 1-1.1 2.9.4 2.5-2 3.9c-2.5 1.5-3 1.6-4.3.2-2.1-2-2.4-1.9-2.9 1-.3 1.4 0 3 .7 3.5 1.9 1.5.7 4.8-1.9 5.2-1.9.3-2.2 1.1-2.6 7.2-.3 4.1-1 7.1-1.7 7.3-.7.3-.9 1.1-.6 1.9.4 1.2 0 1.4-1.9.9-1.6-.4-2.9-.1-3.7.8-.7.9-2.1 1.3-3.3.9-2-.5-2.1-.4-.6 1.7 1.9 2.6 1.2 6.1-1.1 6.1-1.8 0-4.6 5.3-3.8 7.4.3.7.1 1.9-.4 2.7-.5.9-.3 2.2.7 3.6.8 1.3 1 2.3.5 2.3-.6 0-.4 1.5.5 3.5.7 1.9 1.4 4.8 1.4 6.4 0 1.8.9 3.8 2.1 5 1.6 1.4 2 2.7 1.5 4.5-.5 2.2-.2 2.6 3.1 3.7 5.1 1.5 7.9 6.8 5.8 10.9-1.1 2.1-1.1 3-.2 4 .9 1 .9 1.3 0 1.7-.8.3-.9 1.2-.3 2.8.7 1.9.5 2.5-.9 3-1.5.5-1.7 1.2-1.2 3.8 1 4.7-.1 10.7-2 10.7-1.5 0-1 2.8 1.2 7.7 1.9 4.1 1.9 4.8.6 5.8-1.7 1.2-3.7 7.6-3.7 11.6 0 1.5-.7 3-1.5 3.3-1.3.5-1.5 2-1.3 7.8.3 7.1.2 7.3-2.1 7.2-2.2-.1-2.2 0-.7 1.2 1.6 1.2 1.6 1.4 0 4.5-1.1 2.3-1.3 3.4-.5 3.7.6.2.8.8.5 1.3-.3.6.1 1.8.9 2.7 2.3 2.7 2.8 7.6 1.1 10.1-1.2 1.6-1.3 2.9-.6 5 .6 1.7.6 3.4 0 4.4-.5 1-.7 2.1-.4 2.6.3.5-.1 1.4-1 2.1-.9.8-1.2 2-.8 2.9.4.9.8 4.2.8 7.4.1 3.2.6 6.1 1.1 6.5 1 .7 3.5 4.8 3.5 5.7 0 .3-.9.5-1.9.5-2.7 0-3.4 2.7-.9 3.3 2 .6 2 .6 0 2.7-1.9 2.1-1.9 2.1.2 9.2 1.8 5.9 2.7 7.3 4.8 8 1.5.5 3.1 2.2 3.8 3.8.7 1.7 3 3.9 5.3 5.2 4 2.3 7.5 6.8 7.6 9.9.1.9-.9 2.3-2.1 3.1l-2.1 1.4 3.1 2.3c1.8 1.2 3.2 3 3.2 3.9 0 2.3 7.8 9.2 10.4 9.2 1.2 0 2.6.4 3.1.9 2.1 2 10.5 1.7 10.5-.4s3.7-3.7 7.1-3c2.4.5 2.8.4 2.3-.9-1.5-4 6.3-.2 8 3.9.8 1.8 2 3.3 2.7 3.4.8.1 2.7.3 4.3.5 2.4.2 3.2 1.1 5.2 6.1 1.3 3.2 2.4 6.6 2.4 7.6 0 1.9 1.9 2.9 5.6 2.9 1.4 0 2.4.6 2.4 1.5 0 .8.8 1.9 1.9 2.4 1.4.8 2.3.5 4-1 2-1.9 2.3-1.9 5.6-.3 4 1.9 6.5 1.3 6.5-1.4 0-1.5.5-1.8 2.5-1.4 1.4.2 3.2 1.3 3.9 2.4 1.7 2.5 5.1 1.7 5.9-1.4.4-1.4 1.1-1.9 2.3-1.4 1.2.5 1.5.2 1-1s-.2-1.5 1-1c.8.3 1.8.6 2 .6.2 0 .4.6.4 1.3 0 2.1-3 7.7-4.1 7.7-.5 0-.9.8-.9 1.8 0 1.1-1.1 2.4-2.4 3-1.8.8-2.3 1.6-1.9 3.2.4 1.4-.2 2.9-1.7 4.5-1.3 1.4-1.9 2.8-1.4 3.6 1 1.7 1.2 5.9.2 5.9-1.2 0-1 5.4.3 6.7.7.7.7 1.7.1 2.9-.6 1.1-1.3 2.6-1.6 3.5-.5 1.9-7.2 3.1-9.8 1.8-2.1-1.1-4.8-.1-4.8 1.8 0 1.1-.4 1.3-1.2.6-1.7-1.3-6.6.7-6.1 2.4.3.7-.5 1.8-1.6 2.5-2.6 1.6-2.6 2.5-.2 3.3 1.2.4 1.8 1.2 1.4 2.1-.3.8-1.3 1.2-2.2.9-1.8-.5-5.1 3.9-5.1 6.9 0 1-.6 1.3-1.7.9-1.5-.5-1.6-.4-.5.8.7.8 1.8 1.4 2.5 1.4 1.3 0 1.3 2.5.1 6.4-.6 2.2-.5 2.3 2.4 1.6 2.5-.5 3.6-.2 5.5 1.7s3.2 2.3 6.5 2c2.7-.3 4.2-.9 4.3-1.8.1-.8.2-2 .3-2.7.1-.6-.4-2-1.2-3-1.3-1.5-1.3-1.7.1-1.7 2.6 0 8.7 7.2 8.7 10.2 0 2.9.9 3.5 2.6 1.8.7-.7 2.9-.1 6.8 2 4.1 2.2 6.4 2.9 7.9 2.3 1.2-.4 2.8-.6 3.5-.5.6.2 1.2-.1 1.2-.6s1.8-1.2 4-1.6c4.6-.7 12 .2 12 1.5 0 .5.9 1.8 2 2.9 1.1 1.1 2 1.5 2 .9 0-.7 1.1-.8 3-.4 2.5.6 3.1.3 4.1-1.8.7-1.6 1.8-2.4 3-2.2 1.8.4 1.9-.9.3-4.9-.7-1.7-.4-1.8 2.9-1.2 3.3.6 3.7.4 5.2-2.5 1.6-3.1 1.7-3.1 3.8-1.2 3.7 3.1 6 2.4 7.4-2.6 1-3.6 1-4.5-.2-5.7-.7-.8-1.7-2.3-2-3.5-.4-1.2-1.3-1.8-2-1.5-1.2.4-15.5-13-16.3-15.4-.2-.5-1-.6-1.7-.4-.9.4-1.7-.4-2.1-2-.3-1.5-2.2-3.8-4-5.3-1.9-1.4-3.4-3-3.4-3.5 0-.6.7-.5 1.5.2 1.3 1.1 1.8 1 2.9-.5.9-1.3 1.5-1.5 2-.7.4.7 1.9 1.2 3.3 1.2 2.1 0 2.4-.2 1.3-1.5-.9-1-.9-1.5-.1-1.5 2.1 0 1.1-3.2-2.4-7.3-4-4.6-4.1-5.3-1.9-7.8 1.3-1.4 1.4-2.4.5-5.6-1.4-4.7-1.4-5.6-.1-4.8.6.3 1 .2 1-.4 0-.6 1.2-1.4 2.6-1.7 2.5-.7 2.6-.8 1.9-5.8-.4-2.8-.7-5.8-.6-6.6.5-5.7.7-6.9 1.4-7.6 1.8-1.8.5-4.1-3-5.4-2.1-.8-4.5-1.5-5.3-1.5-.8 0-2.1-.4-2.8-.8-1.1-.7-1-1.3.3-2.7 1.6-1.7 1.5-1.9-.4-2.9-1.1-.6-2.1-2.3-2.3-3.8-.2-1.9-1.2-3.2-3-4.1-1.6-.7-3.1-2.4-3.4-3.8-.5-1.8-1.2-2.4-2.7-2.2-1.2.2-3.4-1-5.4-3-3.1-2.8-3.6-3-4.9-1.7-.9.8-2.2 1.5-3 1.5-.8 0-3.3.9-5.5 2-3 1.6-4.4 1.8-5.9 1-1.1-.6-2-1.5-2-2s-.7-.7-1.5-.4c-1.7.7-6.3-2.6-5.8-4.2.4-1.3-4.2-3.7-7.9-4.1-2.1-.2-2.8.2-2.8 1.5-.1 1.6-.2 1.6-1.4-.1-.8-1-2.7-2.2-4.2-2.6-1.5-.4-3-1.3-3.2-2.1-.3-.9.1-1.1 1.1-.7 1 .4 1.7-.1 2-1.4.4-1.4 0-1.9-1.4-1.9-1 0-1.9-.3-2-.8 0-.4-.2-2.7-.4-5.2-.1-2.5-.5-5.3-.7-6.2-.6-2.7-3.8-5.7-5.4-5.1-.8.3-1.4-.1-1.4-.9 0-2.1-2.2-4.5-4.7-5.3-1.7-.5-2.3-.2-2.3.9 0 .9-.9 1.6-2 1.6s-2-.4-2-.9c0-.6-1.8-1-3.9-.9-2.2 0-4.3-.2-4.9-.6-.5-.3-1-3.9-1.1-8.1-.2-6.8 0-7.5 1.7-7.5 2.2 0 4.4-6.1 3.5-10.2-.4-2 0-2.7 1.6-3.3 2.5-.8 2.9-5.1.6-8.1-.8-1-1.5-2.6-1.5-3.5 0-.9-.9-1.9-2-2.2-1.1-.3-2-1.4-2-2.5 0-2.4-3-5.2-5.8-5.2-1.4 0-2.4-1-3.2-3.4-.9-2.7-1.5-3.3-3.1-2.9-1.5.4-2.8-.3-4.5-2.3-1.3-1.6-2.3-3.5-2.4-4.2 0-.6-.9-1.2-1.9-1.2-3 0-6.3-4.8-5.6-8.1.4-1.5.2-3.6-.3-4.6-1-2 1.1-8.3 2.8-8.3.6 0 .8-1.1.4-2.6-.5-1.9-.4-2.5.5-2 1.2.8 1.2.8 1.5-10.6.2-5.6.7-8.3 1.9-9.6.9-1 1.7-3 1.7-4.4 0-1.4.7-3.1 1.5-3.8.8-.7 1.5-2.6 1.5-4.2 0-2.1.6-3.1 2-3.5 1.1-.3 2-1.3 2-2.2 0-1.9 3.7-4.6 6.5-4.6 1.7 0 2-.6 1.7-4.3-.2-2.9.3-5.3 1.6-7.5 1.4-2.3 1.7-3.8 1.1-5.4-.6-1.7-.2-3.2 1.8-6.3 1.5-2.2 3.1-4 3.5-4 .5 0 .6-.9.3-2s-.2-2 .2-2c.5 0 1.8-1.9 2.8-4.3 2-4.4 2.9-11.2 2.8-21-.1-4.5.2-5.7 1.3-5.3.8.3 1.9-.7 2.9-2.6 1.7-3.5 2-6.8.5-6.8-.5 0-1-2-1-4.5 0-2.9.4-4.5 1.3-4.5.6 0 2.7-1.3 4.5-2.9 3.4-2.8 3.4-2.8 2.1-7.2-.7-2.4-1.8-4.7-2.5-5.2-1.6-.9 3.9-10.3 8.5-14.6 2.9-2.7 3.1-3.3 2.5-7.3-.4-2.4-1.3-5.6-2.1-7.1-1.3-2.6-1.3-3.1.2-4.8 1.3-1.3 1.6-2.7 1.1-5.3-.4-2-.2-4.5.4-5.5.7-1.4.7-2.2 0-2.6-.6-.4-.8-1.4-.6-2.3.3-1-.5-4-1.8-6.7l-2.3-5.1 2.3-3.4c2.2-3.2 2.3-3.5.8-5.9-1.6-2.3-1.5-2.5.2-3.8 1.6-1.2 1.9-2.9 2.1-10.6 0-5-.3-9.9-.7-10.8-.5-.9-1-3.7-1.2-6.2-.2-2.6-.6-4.7-1-4.7-.3 0-1.2-1.7-1.8-3.8-1.7-5-2.3-5.5-5.4-4.1-2.3 1.1-2.9 1-5.1-1.1-1.4-1.3-2.5-3.4-2.5-4.7 0-1.6-.8-2.7-2.4-3.3-1.3-.5-2.7-1.8-3.1-2.9-.3-1.2-1.1-2.1-1.6-2.1s-.9-.5-.9-1.1c0-.6-1.1-2-2.4-3-4.1-3.2-5.9-8.2-4.6-13 1-3.8.9-4.6-2.7-11.7-2-4.2-3.8-7.9-3.8-8.2-.5-3.2-1.8-4.7-3.5-4.3-1.1.3-2 0-2-.6s.6-1.1 1.3-1.1c.6 0 .3-.7-.8-1.6-1.1-.8-2.5-1.2-3.3-.9-.7.2-2.4-.2-3.7-1.1-1.4-.9-3.3-1.3-4.4-.9-3.1 1-7.9-3-7.3-6.1.3-1.7-.3-3.1-1.8-4.4-2.3-2-2.3-2.1-.4-3.4 1.5-1.2 1.7-1.9.8-4.3-.8-2.4-1.5-2.8-4.6-2.8-2 0-4.2-.5-4.9-1.2-.6-.6-1.7-.9-2.4-.6-.7.2-1.6-.5-2-1.6-.3-1.2-1.3-2.1-2.1-2.1s-1.4-.3-1.4-.8c0-1 2-3.9 2-2.8 0 .5.6.3 1.4-.3 1.2-1 1.7-.8 2.5.7.6 1.1.7 2.2.3 2.6-.3.4.1.4 1 .1 2.2-.9 2.8-5 .9-6.9-.8-.9-1.1-1.6-.5-1.6.6 0 2.1-2.3 3.4-5.1 2.4-5 2.4-5.1.5-6.2-1.8-1-1.8-1.1-.1-1.7.9-.3 1.6-.8 1.5-1-.1-.3.3-1.5.9-2.7.9-1.7.9-2.2-.2-2.6-.8-.3-1.7-2.5-2.1-4.9-.8-4.9-2.1-7.8-4.4-9.6-1.4-1.1-1.4-1.1.2-.6 1.3.5 2 .1 2.4-1.5.3-1.2 1.1-2 1.8-1.7 2.1.8 9.5-1.5 9.5-3 0-.8.7-1.4 1.5-1.4s1.5-.9 1.5-1.9c0-1.1.5-2.1 1.1-2.3 1.4-.5 0-3.8-1.7-3.8s-3.4-3.1-3.4-6.3c0-2 .4-2.4 1.9-2 1.5.4 1.8 0 1.4-1.9-.3-1.8.3-2.7 3.2-4.2 2.6-1.5 3.5-2.5 3.1-3.8-.2-1.2.3-2.4 1.5-3.1 1.3-.8 1.9-2.3 1.9-4.7 0-2 .5-4.1 1.2-4.8.9-.9.8-1.6-.4-2.9-.8-1-1.6-3.3-1.6-5.2 0-1.8-.8-4.1-1.7-5.1-1.1-1.2-1.3-2-.6-2.5 1.9-1.1 1.3-5.3-.9-6-1.4-.4-2-1.5-2-3.6 0-1.6-.5-2.9-1.2-2.9-2.5 0-4.7-3.2-4.2-6 .5-2.1-.1-3.5-2.6-6.4-1.8-2-2.7-3.6-2-3.6.6 0 .8-.5.5-1-1.3-2.1-1.1-13 .3-13 .6 0 1.2-.6 1.2-1.4 0-.8.9-3 2-4.9l2-3.4-2-2.6c-1.5-1.8-1.7-2.8-.9-3.3.9-.5.8-1-.3-1.8-.8-.6-2-2.7-2.7-4.7-.6-1.9-2.5-4.5-4.1-5.8-1.7-1.2-3-2.8-3-3.6 0-.8-1.3-2.9-2.9-4.7-3.3-3.9-5.4-7.6-4.7-8.6.2-.4-1.8-2.1-4.4-3.7-2.7-1.7-5.1-3.7-5.3-4.7-.3-.9-2.3-2.8-4.5-4.2-2.2-1.4-4.3-3-4.7-3.6-.4-.7-1.6-.3-3.5 1-2.4 1.7-2.9 1.8-4 .5-.8-1-1.7-1.2-2.9-.6-.9.5-2 1-2.6 1.1-1.8.3-3.1 1.5-3.8 3.3-.8 2.1-2.7 1.4-2.7-.9 0-1.2-.7-1.4-3-.9-1.7.4-3 .2-3-.3s-.7-1.3-1.6-1.6c-1.4-.5-1.5-.4-.5.8 1 1.2.9 1.6-.6 2.4-3.9 2-7.3 2.3-7.9.7-.5-1.3-4.4-2.3-4.4-1 0 .2 1.8 2.2 4 4.4 4.5 4.4 4.4 4 3 7.7-1.3 3.2.2 5.4 3.5 5.4 1.3 0 2.7 1 3.6 2.6 1.2 2.3 1.2 2.7-.6 4-1.8 1.3-1.7 1.4.8 1.4 1.5 0 2.7-.5 2.7-1.1 0-.8 1.5-1 4.4-.7 2.4.3 5 .1 5.9-.3 1.8-1.1 4.3-.3 4.5 1.4.1.7.4 2.5.8 4.1.6 2.6.5 2.7-1.4 1.7-1.5-.8-2.2-.8-2.6.2-.4.8-.8.9-1.1.1-.5-1-6.2-1-7.3 0-.2.3-.5 1.6-.6 3 0 1.4-.4 2.6-.8 2.6s-.5.6-.2 1.4c.6 1.6-3.1 4-4.7 3.1-.6-.4-.7.3-.3 1.9.5 2.2.3 2.6-1.5 2.6-1.2 0-2.1-.5-2.1-1 0-.6-.8-1.4-1.7-1.7-1-.4-2.7-1.5-3.7-2.5-2.2-2-3.6-2.3-3.6-.8 0 .5-1.1 1-2.4 1-1.4 0-2.8-.5-3.1-1-.3-.6-1.4-1-2.5-1-1 0-2-.7-2.4-1.5-.3-.8-1.6-1.5-3-1.5-1.6 0-2.7-.7-3.1-2-1.3-4-5.3-6-12.4-6-3.7 0-7.2-.5-7.9-1.2-.8-.8-1.5-.8-2.7.2-1.4 1.1-1.8 1.1-2.5.1-.4-.8-1.3-1-1.9-.7-.6.4-.9 1.1-.6 1.6.9 1.5-2.3 3.1-5 2.4-4.1-1-6.1-4.9-5.6-11.2.3-5.3.2-5.5-2-4.9-3.3.9-8.2-2.8-7.3-5.5.4-1.4.3-1.8-.5-1.3-.7.4-1.8.2-2.4-.4-.9-.7-3-.6-7 .3l-5.8 1.4 1.6-2.4c1.6-2.5 1.1-5.2-1.4-7.1-1.3-.9-1.4-1.6-.5-3 .9-1.4 2.2-1.7 5.2-1.5 3.9.3 4.2.2 5-3 .5-1.8.5-3.5 0-3.6-.4-.2-.5-.8-.2-1.4.4-.6-.1-.8-1.5-.3-1.6.5-2.1.2-2.1-1s-.6-1.5-2-1c-1.5.5-1.8.3-1.4-.9.3-.9 1-1.6 1.6-1.6.5 0 .7-.4.3-1-.8-1.2-3.3-.2-3.1 1.3.2 2.5-5.1 2.3-5.9-.2-.3-1.1-1.3-2.2-2.1-2.5-1.2-.5-1.4-.1-.9 1.7zm6.3 132.6c.3.8-.1 1.2-.9.9-.7-.2-1.5-1-1.7-1.7-.3-.8.1-1.2.9-.9.7.2 1.5 1 1.7 1.7zm65.5 75.6c-.6 1.7-2.5 1.5-3.1-.3-.2-.7.5-1.2 1.7-1.2 1.4 0 1.9.5 1.4 1.5zm-23.8 3.5c1.8 1.9 1.7 2-.3 2-1.5 0-2.2-.6-2.2-2 0-1.1.2-2 .3-2 .2 0 1.2.9 2.2 2zm213 523c.3.5.1 1-.4 1-.6 0-1.1-.5-1.1-1 0-.6.2-1 .4-1 .3 0 .8.4 1.1 1zM19.427 1.682c.4.6 1.3.8 2.1.5.8-.3 1.4-.1 1.4.4 0 .6.4 1 .8 1 .5 0 .9-.7.9-1.5 0-1-1-1.5-2.9-1.5-1.8 0-2.7.4-2.3 1.1z"/><path d="M42.927 2.582c0 1.2 4 3.4 4.7 2.6.9-.8-1.7-3.6-3.3-3.6-.8 0-1.4.4-1.4 1zM49.927 8.582c0 .5.5 1 1 1 .6 0 1-.5 1-1 0-.6-.4-1-1-1-.5 0-1 .4-1 1zM21.127 114.482c-1.1.7-1.1.9.1 1.4 1.6.6 2.7 0 2.7-1.5 0-1-1.1-1-2.8.1zM22.927 118.982c0 .2.7.7 1.6 1 .8.3 1.2.2.9-.4-.6-1-2.5-1.4-2.5-.6zM49.827 227.382c-3.4 1-3.9 3.4-1.7 7 1.4 2.2 1.8 3.7 1.1 3.9-1.8.6-.3 8.6 2.2 11.3 1.7 1.8 2.2 3.3 1.8 5.2l-.5 2.8h6.1c4.9 0 6.1-.3 6.1-1.6 0-.8-.4-1.3-.9-.9-.5.3-2.1 0-3.5-.6-2-1-2.3-1.5-1.5-2.6.6-.7 2-1.3 3-1.3 1.1 0 1.9-.7 1.9-1.6 0-1.1.6-1.5 1.9-1.1 2.5.6 3.8-3 3.6-9.8-.1-2.8.1-6 .6-7.3.5-1.3.5-2.2-.1-2.2s-1 .5-1 1.1c0 .7-1.5 1-4 .7-2.2-.2-4 0-4 .5s-.8-.1-1.8-1.3c-1.7-2.1-6.1-3.1-9.3-2.2zM190.927 227.582c0 .5.4 1 .9 1 .6 0 1.3-.5 1.6-1 .3-.6-.1-1-.9-1-.9 0-1.6.4-1.6 1zM369.927 790.382c0 1.2.3 1.2 1.8.1.9-.7 1.9-1.4 2.1-1.6.2-.1-.6-.1-1.8 0-1.1.1-2.1.8-2.1 1.5zM374.927 792.682c0 .6-.8.8-2 .4-2.5-.8-7 2.2-7 4.7 0 1.8-.2 1.9-1.7.7-.9-.8-1.9-1.3-2.2-1.2-.3.2-.6-.3-.6-1-.1-3.7-6-5.2-8.6-2.1-.8 1-2.2 1.4-3.8 1.1-1.4-.3-3.7.1-5.1.8-1.4.8-3.6 1.5-5 1.5h-2.5l2.5 1.9c1.3 1.1 2.7 1.9 3 1.8.3-.1 2 1.3 3.9 3.1 1.8 1.8 4.3 3.2 5.5 3.2 1.2 0 2.7.5 3.3 1.1.8.8 1.3.8 1.7 0 1-1.6 2.6-1.4 2 .2-.2.7.5 2.2 1.6 3.2 1.7 1.6 2.6 1.7 6.5.8 2.4-.5 4.8-.6 5.2-.2 1.3 1.3 8.5-1 7.7-2.3-.5-.7 0-.9 1.4-.6 1.2.4 2.5.2 2.8-.3.3-.5 1-.9 1.5-.9.6 0 .8.4.5.8-.3.5.1 2.6.8 4.7 1.7 4.9 1.1 6.9-1.5 5.5-1.4-.8-1.7-.7-1.3.4.3.8 1.4 1.6 2.5 1.9 2.4.6 2.6 3.9.2 3.6-3.3-.3-3.6.1-2 1.9 1.3 1.4 1.5 2.5.7 4.8-.5 1.6-1.5 5-2.2 7.6-1 4-1.7 4.8-4 5.4-1.8.3-3.5.1-4.6-.8-1.5-1.2-1.6-1.1-.3.4.9 1.3 1 1.8.2 1.8s-.6 1 .6 3c.9 1.6 2.3 3 3 3 .7 0 1.3.6 1.3 1.4 0 .8.6 2.1 1.3 2.8 1.6 1.7 1.9 6.8.3 6.9-.6 0-.1.4 1 .9 2.4.9 3.8 6.7 2.3 8.6-1 1.3.8 6.4 2.3 6.4.4 0 .8 1.2.8 2.6 0 1.5.7 3.2 1.5 3.8 1.6 1.2 2.1 4.9 1 8.1-.5 1.6.4 2.8 4.4 5.8 4.8 3.7 5.1 3.8 9 2.6 3.3-1 4.1-1.7 4.1-3.6 0-1.2.6-2.3 1.3-2.3.8 0 2.4-1.1 3.7-2.4 2.2-2.5 2.3-3.5.5-9.4-.6-1.9-.4-2.2 1.8-2.2 1.4 0 2.9-.5 3.2-1.1.4-.6 1.3-.8 2.1-.5 1 .4 1.1 0 .2-1.8-.8-2-.7-2.7 1.1-4.5 1.1-1.1 2.3-3.3 2.7-4.8.4-1.6 1.3-3.6 2.1-4.5.8-.9 1.3-2.3 1-3-.2-.7-.1-2 .4-2.9.6-1.1.3-2.1-.6-2.9-.9-.8-1.3-2.1-.9-3.2 1-3.4-.6-7.8-3.5-9.3-2.2-1.1-2.7-2-2.6-4.5.1-1.6 0-2.8-.3-2.5-.9.9-3.2-1.7-3.2-3.6 0-1.4.7-1.9 3-1.9 2 0 3-.5 3-1.5 0-.8.5-1.5 1.2-1.5.6 0 .2-1-.9-2.3-2.7-3-4-8.2-1.9-7.4 2 .8 2 .4-.3-6.2-1-2.9-3.2-6.7-4.9-8.4-2.6-2.6-3.3-2.8-4.6-1.8-.9.7-1.3 1.8-1 2.5.3.6-.6-.2-2.1-1.7-2.1-2.4-2.8-2.7-4-1.7-1.1.9-1.5.9-1.5.1s-1.1-1-3.4-.6c-2.8.6-3.6.3-4.5-1.4-.7-1.2-1.9-2.1-2.8-2.1-.8 0-3.1-1.4-5-3-2.5-2.3-4.4-3-7.3-3-2.2 0-4 .5-4 1.1zM233.227 799.282c-.8.3-1.1 1.4-.7 2.7.3 1.2 0 3.4-.5 5-.9 2.1-.8 3.2.4 4.9.8 1.2 1.5 2.9 1.5 3.9 0 2.5 4.2 2.3 6.5-.2 1.7-1.9 1.7-2-.9-4.1l-2.6-2.1 2.6-2c2-1.6 2.4-2.6 1.9-4.7-.9-3.7-4.2-5.1-8.2-3.4zM412.427 799.582c-.3.5-.1 1 .4 1 .6 0 1.1-.5 1.1-1 0-.6-.2-1-.4-1-.3 0-.8.4-1.1 1zM221.427 801.582c.4.6 1.1.8 1.6.5 1.4-.9 1.1-1.5-.7-1.5-.8 0-1.2.5-.9 1z"/><path d="M416.127 885.782c.2.6 1 1.4 1.6 1.6.7.2 1-.2.6-1.2-.7-1.8-2.8-2.2-2.2-.4zM416.627 892.582c-2.3 3.3-2.1 4.7.5 5.3 2.9.8 3 .7 2-3.9l-.8-3.8-1.7 2.4z"/></g></svg>