<?xml version="1.0" standalone="no"?>
<!DOCTYPE svg PUBLIC "-//W3C//DTD SVG 20010904//EN"
 "http://www.w3.org/TR/2001/REC-SVG-20010904/DTD/svg10.dtd">
<svg version="1.0" xmlns="http://www.w3.org/2000/svg"
 width="469.759282pt" height="688.320833pt" viewBox="0 0 469.759282 688.320833"
 preserveAspectRatio="xMidYMid meet">
<metadata>
Created by potrace 1.15, written by Peter Selinger 2001-2017
</metadata>
<g transform="translate(-724.560708,1383.860725) scale(0.100000,-0.100000)"
fill="#222222" stroke="none">
<path d="M7268 13833 c-18 -3 -25 -9 -21 -19 3 -8 11 -14 19 -14 8 0 15 -8 15
-17 1 -10 2 -25 3 -33 2 -25 16 -40 38 -40 21 0 21 0 -1 24 l-23 25 31 19 c30
18 31 21 16 36 -9 9 -21 14 -26 11 -5 -4 -9 -1 -9 4 0 6 -3 10 -7 10 -5 -1
-20 -4 -35 -6z"/>
<path d="M7360 13658 c0 -9 5 -20 11 -23 17 -11 18 -2 3 19 -12 17 -14 17 -14
4z"/>
<path d="M7440 13571 c0 -5 5 -13 10 -16 6 -3 10 -2 10 4 0 5 -4 13 -10 16 -5
3 -10 2 -10 -4z"/>
<path d="M8273 13510 c-6 -22 -45 -39 -51 -21 -4 13 -32 15 -32 2 0 -6 9 -16
20 -24 17 -12 18 -16 6 -26 -9 -8 -14 -30 -13 -64 1 -54 -8 -81 -23 -72 -5 3
-25 -3 -45 -14 -22 -12 -31 -21 -23 -24 9 -4 10 -8 2 -14 -6 -4 -13 -14 -16
-22 -3 -11 -9 -9 -26 9 -19 21 -22 21 -28 6 -4 -11 -13 -15 -25 -11 -12 4 -21
1 -25 -9 -3 -8 -18 -14 -37 -14 -18 0 -46 -2 -63 -5 -26 -3 -33 1 -44 26 -7
16 -15 25 -19 21 -11 -15 -31 -15 -31 1 0 8 -9 19 -21 25 -16 9 -26 8 -45 -5
-22 -14 -28 -15 -47 -2 -12 8 -28 12 -34 10 -18 -6 -16 -30 2 -37 8 -3 15 -15
15 -26 0 -32 25 -34 73 -5 25 14 51 24 58 23 16 -3 32 -71 18 -76 -5 -2 -3
-13 3 -25 7 -12 13 -37 13 -54 1 -18 9 -41 18 -51 10 -11 14 -26 10 -40 -3
-13 -1 -22 6 -22 6 0 11 -7 11 -15 0 -12 4 -13 18 -6 16 8 21 3 37 -36 26 -63
26 -85 -2 -106 -28 -23 -30 -47 -3 -54 11 -3 20 -11 20 -18 0 -7 7 -15 15 -19
8 -3 15 0 15 7 0 9 3 8 9 -1 5 -9 17 -11 36 -6 24 6 27 4 22 -10 -4 -10 -7
-22 -7 -27 0 -6 -8 -5 -20 1 -16 8 -22 7 -32 -10 -7 -11 -19 -20 -26 -20 -7 0
-17 -11 -22 -25 -6 -16 -17 -25 -30 -25 -15 0 -19 -4 -13 -12 11 -19 10 -72
-2 -80 -6 -5 -5 -11 3 -17 22 -14 -25 -52 -55 -45 -16 4 -23 2 -23 -7 0 -18
62 -19 67 -2 4 10 10 10 26 -2 19 -13 23 -13 38 1 17 15 19 14 24 -9 7 -27 47
-53 65 -42 7 4 14 -1 17 -14 3 -12 9 -21 14 -21 5 0 9 -5 9 -11 0 -6 -9 -8
-20 -4 -14 4 -20 2 -20 -9 0 -23 47 -69 64 -63 11 5 17 -5 22 -41 3 -26 10
-52 15 -57 4 -6 15 -32 24 -59 12 -36 14 -55 7 -71 -8 -17 -7 -28 4 -44 11
-16 12 -25 4 -41 -6 -12 -8 -29 -5 -40 4 -12 -3 -27 -18 -43 -14 -13 -32 -49
-41 -80 l-17 -57 39 -38 c37 -36 47 -70 29 -99 -4 -7 -3 -14 3 -18 13 -8 13
-45 0 -45 -23 0 -8 -18 23 -27 24 -7 31 -14 29 -29 -2 -10 -4 -28 -4 -39 0
-11 -5 -32 -10 -46 -10 -29 10 -83 33 -91 14 -5 -16 -68 -31 -68 -6 0 -10 -11
-10 -24 0 -14 -5 -28 -10 -31 -6 -4 -8 -11 -4 -16 3 -5 10 -6 16 -3 7 4 8 -2
3 -17 -6 -20 -5 -22 6 -11 19 18 38 15 32 -6 -6 -26 41 -67 76 -64 24 2 29 -3
40 -38 7 -23 18 -40 26 -40 8 0 15 -3 15 -7 1 -5 10 -19 20 -32 16 -18 23 -21
34 -12 8 7 25 9 39 6 20 -5 29 0 55 36 23 30 30 49 26 66 -6 21 -3 23 29 23
47 0 82 16 97 46 8 13 30 28 54 36 28 9 45 22 54 41 10 21 19 27 34 24 17 -5
18 -2 12 26 -6 31 -6 32 14 14 24 -22 77 -14 67 10 -3 10 -1 13 8 10 14 -5 60
27 50 36 -7 8 22 37 36 37 7 0 9 10 5 25 -5 22 -3 25 22 26 86 3 139 -19 159
-67 13 -31 16 -33 40 -24 14 5 49 11 78 13 29 3 59 7 68 11 8 4 28 2 43 -4 15
-5 32 -8 36 -5 10 6 49 -13 63 -30 5 -6 7 -3 3 8 -3 10 0 17 7 17 16 0 51 75
44 94 -5 13 1 16 26 16 35 0 94 -31 103 -55 3 -8 27 -29 52 -47 50 -35 102
-41 102 -12 0 39 83 -23 96 -72 7 -27 74 -62 74 -39 0 19 5 19 35 -1 28 -18
95 -25 95 -9 1 20 34 -51 39 -85 5 -28 11 -36 32 -38 15 -2 37 -14 50 -28 12
-13 28 -24 35 -24 7 0 29 -13 47 -30 19 -16 42 -30 50 -30 21 0 57 -48 57 -76
0 -12 4 -25 9 -28 5 -3 11 -18 14 -33 9 -51 34 -106 55 -122 11 -9 27 -38 35
-66 l15 -50 41 2 c30 1 41 -2 41 -13 0 -22 37 -17 54 8 19 27 20 39 4 35 -23
-4 -21 51 1 65 12 7 21 21 21 30 0 11 5 15 15 12 11 -5 13 -2 9 10 -3 9 -14
16 -23 16 -10 0 -32 32 -61 91 -28 58 -53 95 -67 102 -13 6 -23 14 -23 18 0
10 -79 89 -89 89 -5 0 -14 14 -20 32 -10 27 -8 35 9 53 11 12 20 33 20 48 0
24 3 27 23 22 15 -4 28 -1 37 10 12 15 11 16 -13 10 -21 -6 -27 -3 -27 8 0 9
-6 20 -14 24 -7 4 -23 26 -34 48 -31 57 -43 71 -74 79 -21 5 -28 13 -28 30 0
24 -14 34 -60 43 -14 2 -32 11 -41 18 -11 11 -18 12 -26 4 -8 -8 -19 0 -38 29
-20 31 -26 50 -24 83 3 34 0 44 -16 50 -11 4 -15 8 -10 9 6 0 2 5 -7 11 -10 5
-18 17 -18 25 0 11 -6 13 -20 9 -15 -5 -31 2 -56 24 -19 17 -39 31 -44 31 -5
0 -8 12 -7 27 2 22 -5 31 -28 43 -65 33 -84 52 -91 86 -8 41 -24 55 -24 21 0
-14 -7 -27 -15 -31 -8 -3 -15 -1 -15 4 0 6 -7 10 -16 10 -15 0 -15 2 -1 23 16
25 13 36 -16 52 -10 6 -18 13 -18 18 1 4 -12 19 -29 35 -23 21 -30 37 -32 70
-1 24 -6 46 -10 48 -4 3 -8 13 -8 23 0 25 -28 77 -37 71 -4 -3 -10 9 -13 25
-6 28 -7 29 -14 8 -9 -28 -27 -29 -50 -4 -12 13 -30 19 -56 18 -25 -1 -46 5
-59 17 -14 13 -28 16 -47 12 -15 -4 -32 -2 -40 5 -11 9 -18 8 -30 -1 -13 -11
-16 -10 -20 6 -9 30 -84 86 -108 80 -12 -3 -30 2 -40 10 -11 8 -30 14 -42 14
-12 0 -24 7 -28 15 -3 8 -25 27 -48 43 -31 19 -42 33 -40 46 5 24 -7 35 -46
40 -35 4 -62 22 -62 42 0 17 -14 25 -57 30 -21 3 -39 7 -41 9 -10 9 -10 75 -1
75 6 0 6 8 -1 19 -13 26 -13 31 4 25 8 -3 18 7 26 25 7 17 18 36 26 42 23 19
17 73 -11 97 -14 12 -25 32 -26 44 -3 74 -11 104 -39 152 -16 30 -43 62 -58
72 -15 9 -31 23 -35 31 -5 8 -19 13 -31 11 -13 -1 -30 3 -39 10 -12 10 -25 11
-51 4 -27 -8 -38 -7 -47 4 -6 7 -15 12 -19 9 -5 -3 -15 3 -22 14 -9 12 -26 20
-44 20 -53 0 -69 7 -67 29 2 15 -2 20 -12 16 -10 -4 -15 0 -15 16 0 11 -4 19
-8 16 -4 -2 -18 11 -31 30 -13 19 -29 34 -37 34 -15 0 -28 35 -18 51 3 6 0 15
-7 20 -21 13 -30 11 -36 -11z"/>
<path d="M7536 13388 c3 -4 9 -8 15 -8 5 0 9 4 9 8 0 5 -7 9 -15 9 -8 0 -12
-4 -9 -9z"/>
<path d="M7586 13358 c10 -50 30 -77 54 -71 11 3 20 8 20 12 0 15 -41 71 -59
81 -19 10 -20 8 -15 -22z"/>
<path d="M9024 11313 c4 -7 2 -13 -3 -13 -20 0 -11 -16 9 -17 24 -2 26 10 3
28 -11 10 -14 10 -9 2z"/>
<path d="M9760 11050 c-8 -5 -28 -10 -44 -10 -21 0 -39 -11 -63 -37 -18 -21
-33 -41 -33 -45 0 -5 -11 -8 -25 -8 -17 0 -23 -4 -19 -14 3 -8 1 -17 -4 -20
-5 -3 -7 -16 -5 -29 3 -17 -2 -26 -19 -34 l-23 -12 23 0 c12 -1 22 -7 22 -14
0 -21 60 -87 80 -87 25 0 43 -23 28 -38 -9 -9 -9 -12 3 -13 15 -1 27 -3 69
-15 14 -4 21 -3 17 2 -12 13 81 46 101 35 25 -12 46 -3 31 15 -18 22 44 68 64
47 4 -3 -1 -12 -10 -18 -13 -9 -14 -17 -7 -26 6 -8 11 -24 12 -36 1 -21 -4
-23 -44 -23 -24 0 -44 -4 -44 -9 0 -5 -9 -11 -20 -14 -12 -3 -20 0 -20 7 0 6
-8 16 -17 22 -15 9 -18 7 -20 -10 -7 -75 -19 -91 -61 -75 -14 5 -27 7 -30 4
-3 -3 -6 -31 -6 -63 -1 -44 -6 -61 -21 -75 l-20 -19 20 7 c11 4 26 8 34 8 8 0
16 9 19 19 2 10 8 15 13 12 13 -8 -9 -44 -27 -44 -18 0 -44 -23 -44 -39 0 -6
-7 -8 -15 -5 -24 10 -49 -4 -37 -19 6 -7 9 -23 6 -34 -6 -23 -56 -49 -73 -38
-6 3 -11 -1 -11 -10 0 -18 -13 -35 -57 -78 -18 -17 -33 -39 -33 -49 0 -51 -87
-154 -121 -145 -14 4 -24 -3 -35 -24 -17 -33 -68 -69 -99 -69 -17 -1 -15 -3 8
-16 22 -12 31 -13 43 -3 12 9 22 3 57 -36 49 -55 86 -120 87 -153 0 -17 7 -24
30 -28 18 -4 30 -13 30 -23 1 -34 80 -94 80 -60 0 8 6 6 18 -4 23 -21 61 -22
68 -2 8 20 24 19 54 -6 54 -44 98 -68 117 -63 12 3 30 -5 48 -22 15 -14 41
-31 57 -36 21 -8 28 -16 28 -37 0 -35 37 -70 76 -73 41 -2 51 -12 70 -71 9
-29 25 -60 35 -70 24 -23 24 -34 -1 -47 -19 -10 -19 -12 -3 -45 17 -35 45 -55
51 -36 6 18 20 12 28 -11 10 -27 14 -61 15 -105 0 -18 5 -33 10 -33 5 0 14
-11 19 -25 5 -14 21 -30 35 -35 14 -5 25 -16 25 -24 0 -9 14 -26 31 -38 29
-22 31 -26 25 -73 -4 -27 -14 -69 -23 -93 -11 -30 -13 -49 -6 -64 8 -19 10
-20 26 -4 9 10 21 14 27 11 5 -3 10 1 10 9 0 23 21 20 27 -4 5 -19 6 -20 19
-3 9 12 13 14 14 5 0 -16 39 -12 57 5 7 6 21 10 30 8 10 -2 21 -4 26 -4 4 -1
7 -8 7 -16 0 -8 5 -15 10 -15 6 0 10 7 10 15 0 18 26 20 37 3 4 -7 8 -27 9
-45 0 -17 8 -39 17 -48 18 -18 23 -40 7 -30 -5 3 -10 -1 -10 -9 0 -9 6 -15 12
-14 7 2 14 -7 16 -19 2 -13 8 -23 13 -23 5 0 9 -9 9 -19 0 -10 7 -22 16 -25
11 -4 14 -13 10 -29 -4 -16 1 -31 14 -45 26 -27 26 -78 1 -94 -18 -11 -18 -13
7 -50 14 -22 42 -46 61 -55 39 -18 39 -18 126 -33 65 -11 107 -28 100 -41 -8
-12 6 -39 21 -39 32 0 43 -48 53 -225 1 -23 4 -26 11 -15 11 17 8 20 42 -51
17 -37 23 -61 17 -70 -5 -8 -6 -22 -3 -32 4 -11 -1 -24 -12 -31 -16 -12 -15
-15 14 -36 18 -13 32 -30 32 -37 0 -8 18 -41 40 -75 29 -46 37 -65 30 -78 -5
-10 -7 -20 -4 -22 4 -5 11 -64 18 -161 4 -48 13 -63 67 -110 11 -10 23 -16 26
-14 7 8 63 -54 63 -69 0 -11 5 -11 25 -2 14 6 25 18 25 27 0 14 2 14 10 1 7
-11 10 -12 10 -2 0 9 10 12 28 10 22 -2 28 1 30 21 4 24 15 25 67 7 18 -7 18
-6 3 4 -20 12 -24 50 -6 50 6 0 1 11 -12 26 -21 21 -22 27 -10 34 8 5 19 10
24 10 4 0 5 11 2 25 -5 19 -2 25 9 25 9 0 13 5 10 10 -4 6 -10 8 -15 5 -4 -3
-11 2 -14 11 -9 24 -8 26 14 19 16 -5 20 -2 20 16 0 12 9 37 21 56 12 19 19
43 16 54 -3 12 0 22 8 25 21 9 6 34 -20 34 -13 0 -27 5 -31 12 -5 8 -2 9 9 5
11 -4 17 -1 17 8 0 7 12 23 26 34 14 11 23 24 21 28 -3 5 1 16 8 26 11 15 18
16 33 8 45 -24 142 62 142 126 0 12 8 30 19 40 32 32 32 85 0 113 -3 3 -5 30
-5 60 0 47 -3 57 -22 66 -41 20 -63 46 -51 60 6 7 9 22 7 32 -2 11 6 30 17 42
12 14 16 24 8 28 -11 8 -28 52 -25 65 1 4 -4 18 -13 30 -17 25 -20 63 -5 72 6
4 3 16 -10 32 -24 31 -26 45 -3 36 18 -7 13 7 -15 40 -9 10 -16 41 -18 80 -1
34 -4 71 -6 81 -2 13 5 22 27 29 38 13 65 46 54 67 -20 38 -33 170 -16 170 16
0 6 31 -21 62 -29 34 -31 41 -18 71 11 24 -1 52 -17 39 -8 -7 -24 -6 -52 4
-22 7 -46 14 -54 14 -8 0 -34 20 -58 45 -36 38 -49 45 -82 45 -61 0 -100 11
-106 30 -3 10 -13 20 -23 23 -99 32 -192 75 -199 93 -3 7 -15 16 -26 20 -12 4
-41 23 -64 43 -83 72 -102 83 -128 77 -14 -4 -25 -2 -25 3 0 5 -9 13 -20 16
-12 4 -20 15 -20 29 0 30 -36 75 -58 73 -9 0 -29 7 -44 17 -23 15 -26 21 -17
43 8 21 4 32 -26 73 -19 26 -35 51 -35 55 0 5 -19 25 -41 46 -38 35 -41 42
-36 75 5 28 1 43 -14 62 -11 15 -19 38 -18 52 2 14 -3 36 -10 49 -11 20 -11
26 2 39 11 11 13 21 7 38 -5 13 -7 30 -4 37 3 8 -6 18 -21 25 -30 14 -32 37
-5 54 11 7 20 18 20 25 0 7 7 13 15 13 9 0 15 9 15 23 0 13 5 28 10 33 7 7 7
21 -1 42 -6 18 -8 44 -5 57 4 16 0 35 -11 52 -12 17 -14 28 -6 30 6 2 9 13 6
24 -4 15 -2 18 11 13 14 -5 14 -3 0 26 -9 17 -24 34 -33 36 -31 10 -46 21 -46
35 0 8 -11 24 -25 37 -16 15 -21 25 -13 28 16 7 5 34 -12 28 -7 -3 -16 3 -19
13 -8 25 -49 26 -43 1 3 -11 0 -18 -8 -18 -8 0 -19 -8 -25 -17 -9 -15 -10 -13
-5 10 4 21 2 27 -11 27 -26 0 -80 45 -94 80 -11 27 -11 32 5 44 17 12 17 15
-1 54 -12 25 -26 42 -36 42 -10 0 -18 -4 -18 -9 0 -5 -16 -9 -35 -9 -25 0 -38
6 -50 24 -8 13 -21 24 -29 24 -7 0 -21 9 -31 20 -10 11 -22 17 -26 14 -5 -3
-28 6 -52 20 -24 15 -51 26 -60 26 -10 0 -17 7 -17 16 0 13 -7 15 -42 9 -24
-4 -50 -15 -58 -25 -13 -16 -18 -17 -32 -6 -10 7 -18 21 -18 30 0 18 -45 22
-70 6z"/>
<path d="M8418 10893 c0 -5 -1 -23 -2 -40 -1 -34 8 -40 33 -24 12 8 12 14 1
40 -12 29 -28 41 -32 24z"/>
<path d="M10680 10519 c0 -5 5 -7 10 -4 6 3 10 8 10 11 0 2 -4 4 -10 4 -5 0
-10 -5 -10 -11z"/>
<path d="M10544 8535 c3 -8 1 -17 -4 -20 -17 -10 -11 -20 21 -34 26 -11 33
-11 45 0 17 18 8 31 -34 52 -28 14 -33 14 -28 2z"/>
</g>
</svg>
