<?xml version="1.0" standalone="no"?>
<!DOCTYPE svg PUBLIC "-//W3C//DTD SVG 20010904//EN"
 "http://www.w3.org/TR/2001/REC-SVG-20010904/DTD/svg10.dtd">
<svg version="1.0" xmlns="http://www.w3.org/2000/svg"
 width="969.875388pt" height="356.757852pt" viewBox="0 0 969.875388 356.757852"
 preserveAspectRatio="xMidYMid meet">
<metadata>
Created by potrace 1.15, written by Peter Selinger 2001-2017
</metadata>
<g transform="translate(-536.000000,1138.757852) scale(0.100000,-0.100000)"
fill="#222222" stroke="none">
<path d="M11097 11379 c7 -7 15 -10 18 -7 3 3 -2 9 -12 12 -14 6 -15 5 -6 -5z"/>
<path d="M11130 11316 c0 -2 7 -7 16 -10 8 -3 12 -2 9 4 -6 10 -25 14 -25 6z"/>
<path d="M11151 11262 c-11 -21 4 -53 22 -46 7 2 30 -2 50 -11 21 -9 37 -11
37 -5 0 5 -11 12 -25 16 -14 3 -32 19 -41 35 -17 33 -29 37 -43 11z"/>
<path d="M11300 11264 c0 -8 5 -12 10 -9 6 4 8 11 5 16 -9 14 -15 11 -15 -7z"/>
<path d="M11287 11223 c-21 -6 -17 -27 6 -31 11 -2 15 3 14 17 -1 12 -1 20 -2
20 0 -1 -8 -3 -18 -6z"/>
<path d="M11338 11198 c9 -12 16 -54 13 -85 -1 -7 -8 -13 -16 -13 -10 0 -13
-9 -11 -33 4 -46 34 -89 56 -82 12 4 25 -3 38 -20 21 -26 21 -26 1 -46 -20
-20 -27 -79 -8 -79 5 0 7 -4 4 -10 -3 -5 1 -22 9 -38 13 -26 13 -31 0 -50 -12
-18 -19 -20 -40 -12 -14 6 -27 10 -29 10 -1 0 -6 -16 -9 -35 -8 -41 -18 -44
-40 -10 -12 19 -25 25 -51 25 -19 0 -35 5 -35 11 0 8 -4 8 -14 0 -13 -11 -24
-10 -63 6 -36 14 -73 10 -73 -9 0 -10 -5 -18 -10 -18 -7 0 -7 -6 0 -19 14 -26
13 -28 -10 -34 -14 -3 -20 -14 -20 -31 0 -25 -17 -32 -65 -27 -6 0 -19 -13
-30 -29 -11 -16 -29 -31 -40 -32 -13 -2 -19 -9 -17 -21 3 -19 -5 -19 -55 0 -7
3 -13 -2 -13 -11 0 -9 -4 -16 -10 -16 -5 0 -10 -9 -10 -19 0 -11 -9 -23 -20
-26 -11 -3 -20 -14 -20 -23 0 -10 -13 -22 -30 -29 -20 -8 -30 -18 -30 -32 0
-22 -8 -28 -50 -35 -14 -3 -27 -5 -30 -6 -16 -6 -46 5 -92 35 -30 20 -56 31
-62 26 -19 -14 -105 -34 -125 -28 -15 4 -22 -2 -30 -26 -6 -16 -11 -42 -11
-56 0 -14 -6 -49 -12 -78 -10 -40 -17 -53 -31 -53 -32 0 -87 -52 -87 -82 0
-19 -13 -37 -47 -67 -27 -23 -55 -41 -63 -41 -8 0 -24 -7 -34 -15 -11 -8 -30
-15 -42 -15 -13 0 -25 -8 -29 -19 -3 -10 -17 -22 -30 -25 -21 -5 -24 -11 -19
-31 5 -19 2 -25 -10 -25 -9 0 -16 -5 -16 -11 0 -6 -6 -9 -14 -6 -10 4 -16 -7
-22 -36 -4 -23 -7 -48 -7 -56 2 -22 -35 -101 -62 -133 -14 -16 -25 -36 -25
-44 0 -19 -38 -94 -48 -94 -4 0 -13 4 -21 9 -16 10 -76 -21 -85 -44 -3 -8 -16
-15 -29 -15 -13 0 -34 -11 -46 -24 -20 -21 -22 -29 -13 -53 7 -22 6 -34 -4
-48 -8 -10 -14 -28 -14 -38 0 -36 -39 -87 -67 -87 -25 0 -93 -59 -93 -81 0 -5
-11 -7 -25 -3 -20 5 -25 3 -24 -12 0 -12 3 -14 6 -6 4 10 8 10 19 1 8 -6 11
-15 8 -20 -7 -13 -2 -12 50 11 25 12 46 26 46 32 0 7 5 6 15 -2 8 -6 18 -9 23
-6 14 9 33 -19 26 -38 -3 -9 -2 -16 2 -17 18 -1 46 -8 61 -13 12 -5 13 -9 4
-20 -10 -11 -7 -16 11 -22 13 -4 27 -7 32 -6 17 5 46 -10 46 -23 0 -8 11 -22
25 -31 27 -18 34 -54 11 -54 -8 0 -17 -4 -20 -9 -10 -15 18 -69 41 -80 13 -6
23 -17 23 -25 0 -7 7 -17 16 -20 8 -3 12 -10 9 -16 -3 -5 1 -10 9 -10 9 0 30
-9 48 -20 39 -24 58 -25 58 -5 0 20 10 18 44 -9 16 -13 26 -28 22 -34 -3 -6
-2 -13 4 -17 5 -3 10 1 10 10 0 9 6 15 13 12 6 -2 20 0 30 5 12 6 28 4 49 -6
17 -9 38 -16 46 -16 9 0 13 -7 9 -19 -3 -13 3 -22 20 -30 22 -10 25 -17 21
-56 -3 -37 0 -45 14 -45 20 0 32 -16 18 -25 -5 -3 -10 -20 -10 -36 0 -32 -11
-48 -48 -68 -19 -10 -20 -14 -10 -31 9 -13 19 -18 35 -14 13 4 23 2 23 -4 0
-21 91 -74 133 -78 23 -3 47 -7 54 -9 6 -2 17 3 24 11 8 10 15 11 24 4 9 -8
14 -7 17 1 3 9 12 7 31 -6 15 -9 34 -15 42 -11 8 3 26 1 39 -5 20 -9 27 -8 45
10 26 26 33 26 56 1 10 -11 15 -20 10 -20 -4 0 -2 -7 5 -15 7 -9 22 -12 40 -9
15 4 31 1 34 -5 4 -6 14 -11 23 -11 9 0 27 -10 40 -21 18 -18 37 -22 93 -25
64 -2 75 -6 113 -36 38 -31 44 -33 67 -21 14 7 25 21 26 32 1 24 30 55 44 46
5 -3 10 -15 10 -26 0 -23 38 -27 46 -4 15 38 81 -51 98 -132 4 -17 14 -37 22
-43 7 -7 11 -16 8 -21 -9 -15 2 -10 58 24 68 41 81 57 63 76 -12 12 -12 16 2
26 12 9 14 18 8 31 -5 10 -9 45 -10 77 -1 53 1 58 27 69 35 16 36 38 3 66 -25
21 -33 42 -17 42 4 0 13 -5 18 -10 11 -11 88 25 129 60 11 9 45 22 76 29 44 9
59 17 67 36 7 14 20 25 31 25 11 0 23 12 31 30 10 23 19 30 40 30 35 0 127 80
146 127 13 29 17 32 44 26 29 -5 30 -4 30 30 0 34 2 36 43 44 34 7 44 14 52
38 8 24 15 29 33 27 13 -2 31 3 40 11 11 9 32 14 55 12 35 -3 40 0 63 37 24
38 27 39 64 33 37 -6 40 -5 65 34 15 22 24 45 20 50 -9 15 17 14 40 -3 11 -7
32 -16 47 -20 25 -6 35 1 89 59 34 35 66 62 71 59 5 -3 23 0 39 6 26 11 29 17
24 41 -7 32 -7 33 29 19 23 -8 26 -7 26 12 0 12 19 40 45 65 25 23 45 49 45
58 0 9 9 15 25 15 14 0 25 -4 25 -8 0 -14 58 -42 74 -36 9 3 13 11 10 16 -4 5
0 22 7 36 7 15 14 28 14 29 1 2 19 -6 41 -17 24 -13 40 -16 42 -10 3 7 12 6
26 -3 19 -13 25 -13 41 -1 10 8 33 14 51 14 22 0 43 9 61 26 22 21 35 25 67
22 36 -3 44 0 75 35 20 22 42 50 49 63 7 14 18 22 23 18 6 -3 21 -1 33 6 17 9
21 18 18 40 -4 25 2 33 47 62 47 31 51 36 51 74 0 31 6 46 25 62 19 16 24 28
19 45 -5 22 0 26 50 41 31 10 66 26 80 37 13 10 29 19 35 19 7 0 14 7 18 15 3
9 23 33 44 55 l39 39 19 -25 c10 -13 28 -24 40 -24 14 0 19 -5 14 -15 -7 -19
56 -115 75 -115 11 0 16 13 13 33 -2 10 23 9 35 -3 5 -5 30 -6 59 -2 40 6 49
11 47 25 -3 19 18 23 35 6 14 -14 63 -1 63 17 0 8 3 13 8 12 25 -5 64 26 82
66 22 52 59 81 94 72 17 -4 26 -1 30 10 9 23 8 24 -10 17 -8 -3 -25 -1 -37 5
-12 6 -31 12 -42 14 -12 2 -27 19 -39 46 -11 23 -24 42 -30 42 -21 1 -56 38
-50 53 3 9 -5 31 -18 50 l-23 35 -25 -34 c-16 -22 -31 -31 -42 -28 -9 3 -19 0
-23 -6 -5 -8 -12 -7 -23 2 -10 8 -13 9 -9 1 9 -15 -64 -31 -114 -25 -30 3 -38
9 -49 40 -10 27 -10 37 -1 40 9 3 9 7 0 18 -8 10 -6 20 10 43 12 16 21 34 21
40 0 6 5 11 10 11 6 0 10 18 10 40 0 21 6 43 13 47 34 22 43 83 12 83 -12 0
-25 27 -30 63 -2 14 0 15 13 5 13 -11 14 -7 10 37 -4 27 -11 51 -17 53 -16 5
-43 61 -38 77 3 7 -6 18 -19 24 -20 9 -28 8 -40 -4 -18 -17 -54 -20 -54 -4 0
6 -12 1 -27 -11 -19 -15 -28 -17 -34 -9 -11 19 -100 14 -111 -5 -7 -12 -14
-14 -28 -6 -13 7 -21 7 -25 0 -18 -29 -90 23 -100 73 -4 17 -15 51 -26 74 -24
53 -26 98 -4 89 11 -4 15 1 15 18 0 13 -7 29 -15 36 -8 7 -15 18 -15 25 0 7
-7 15 -15 19 -8 3 -15 15 -15 26 0 18 -3 19 -20 8 -14 -9 -18 -19 -13 -37 5
-20 3 -23 -11 -18 -13 5 -16 0 -16 -23 0 -16 5 -32 10 -35 6 -3 10 -17 10 -31
0 -24 -1 -24 -24 -9 -14 9 -39 18 -56 20 -18 3 -43 16 -57 31 -14 15 -28 23
-31 18 -15 -20 -41 -13 -58 14 -11 20 -23 28 -34 25 -10 -3 -21 0 -24 6 -4 5
-13 8 -21 4 -17 -6 -20 -33 -4 -33 6 0 24 -9 40 -21 16 -11 29 -17 29 -13 0 3
7 1 16 -7 11 -9 14 -22 9 -48 -4 -20 -11 -40 -16 -45 -5 -6 -1 -19 13 -33 19
-20 19 -23 4 -29 -11 -4 -16 -18 -16 -44 0 -22 -5 -42 -10 -45 -6 -4 -8 -11
-5 -16 4 -5 -5 -13 -18 -18 -19 -8 -23 -15 -20 -34 7 -34 -34 -59 -52 -33 -7
9 -20 16 -30 16 -21 0 -85 40 -85 53 0 13 -63 72 -73 69 -5 -2 -11 6 -14 17
-4 17 -28 26 -80 33 -18 2 -108 88 -93 88 10 0 10 3 0 15 -17 21 -25 19 -38
-10 -6 -14 -18 -25 -26 -25 -16 0 -67 -46 -65 -58 1 -4 1 -20 0 -35 -1 -34
-21 -26 -21 9 0 19 -5 24 -25 24 -14 0 -25 -6 -25 -12 0 -9 -3 -8 -10 2 -5 8
-7 25 -3 37 6 26 1 28 -28 13 -10 -6 -19 -19 -19 -29 0 -25 -18 -38 -67 -46
-31 -5 -40 -10 -36 -21 4 -12 0 -14 -21 -8 -25 6 -61 -10 -94 -42 -7 -7 -29
-18 -49 -23 -32 -9 -40 -8 -58 9 -14 13 -35 20 -61 20 -21 0 -63 1 -93 1 -34
0 -57 -5 -62 -13 -7 -10 -11 -10 -21 0 -14 14 -54 16 -63 2 -9 -15 -91 -12
-104 3 -6 8 -8 17 -4 20 3 4 0 13 -7 22 -7 8 -10 22 -6 30 3 10 -1 18 -12 22
-9 3 -26 13 -36 22 -11 9 -16 10 -12 4 9 -16 2 -16 -46 -3 -21 6 -42 20 -48
31 -8 14 -17 18 -35 13 -14 -3 -25 -2 -25 2 0 5 -12 10 -26 10 -34 2 -39 10
-26 38 9 21 8 27 -13 40 -27 18 -56 71 -49 90 6 16 -32 46 -56 46 -9 0 -26 9
-37 19 -12 11 -23 17 -26 14 -3 -3 -12 4 -19 16 -7 12 -17 21 -22 21 -4 0 -4
-6 2 -12z m2766 -1349 c-6 -11 -24 -2 -24 11 0 5 7 7 15 4 8 -4 12 -10 9 -15z"/>
<path d="M13640 10896 c0 -2 7 -7 16 -10 8 -3 12 -2 9 4 -6 10 -25 14 -25 6z"/>
<path d="M6024 10865 c-10 -8 -14 -15 -7 -15 19 0 43 11 43 21 0 13 -14 11
-36 -6z"/>
<path d="M5828 10813 c-3 -16 -9 -36 -13 -45 -7 -17 -5 -17 30 -2 21 8 48 13
60 10 16 -4 25 -1 29 10 4 11 2 15 -8 11 -8 -3 -25 5 -38 18 -31 33 -55 32
-60 -2z"/>
<path d="M5755 10750 c-4 -6 -15 -10 -26 -10 -10 0 -19 -6 -19 -14 0 -8 -5
-16 -11 -18 -9 -3 -8 -10 1 -25 11 -18 17 -19 37 -10 13 5 23 18 23 27 0 9 12
20 27 26 l27 9 -27 12 c-16 8 -29 9 -32 3z"/>
<path d="M5620 10645 c-18 -19 -29 -23 -49 -18 -14 3 -23 2 -18 -2 4 -5 -5
-22 -20 -38 -19 -20 -24 -31 -15 -34 6 -3 12 -11 12 -19 0 -10 -8 -13 -25 -10
-15 3 -23 1 -20 -5 4 -5 10 -7 15 -4 5 3 20 -7 34 -22 14 -15 26 -22 26 -15 0
18 56 -12 100 -54 19 -18 51 -47 72 -66 20 -18 38 -44 40 -57 1 -14 9 -26 16
-29 11 -3 12 0 3 17 -16 30 -1 26 25 -6 15 -19 26 -24 39 -19 14 5 16 9 7 18
-7 7 -12 20 -12 30 0 28 -36 94 -64 116 -17 13 -23 25 -20 39 3 12 1 24 -5 27
-6 4 -11 3 -11 -2 0 -4 -14 -18 -31 -31 -29 -22 -31 -22 -50 -5 -11 10 -18 26
-16 36 3 10 1 21 -4 24 -17 10 -9 22 11 17 26 -7 63 25 57 48 -3 10 1 27 9 37
13 19 11 21 -33 36 -26 9 -47 16 -48 16 -1 0 -12 -11 -25 -25z"/>
<path d="M5430 10594 c0 -8 5 -12 10 -9 6 3 10 10 10 16 0 5 -4 9 -10 9 -5 0
-10 -7 -10 -16z"/>
<path d="M5450 10570 c0 -5 9 -14 21 -20 19 -11 20 -10 9 9 -11 22 -30 29 -30
11z"/>
<path d="M5417 10555 c-31 -30 -10 -69 26 -48 11 6 12 13 2 36 -11 27 -13 28
-28 12z"/>
<path d="M5360 10480 c0 -5 5 -10 11 -10 5 0 7 5 4 10 -3 6 -8 10 -11 10 -2 0
-4 -4 -4 -10z"/>
<path d="M5610 10347 c0 -17 29 -56 30 -39 0 14 30 17 30 2 0 -5 -5 -10 -11
-10 -5 0 -7 -5 -3 -11 5 -8 10 -6 16 5 10 18 -8 60 -22 51 -5 -3 -11 -1 -15 5
-9 14 -25 12 -25 -3z"/>
<path d="M5717 10307 c-3 -9 -2 -19 4 -23 15 -9 18 -2 9 20 -6 17 -7 18 -13 3z"/>
<path d="M14952 10253 c-50 -4 -52 -5 -46 -29 3 -13 2 -24 -4 -24 -16 0 -8
-79 10 -96 18 -19 40 -11 31 11 -7 19 7 19 35 -1 21 -15 24 -14 41 8 13 15 16
27 10 34 -7 8 -4 11 8 10 14 -1 19 8 21 42 2 27 -1 42 -7 38 -5 -4 -12 -2 -16
4 -3 5 -12 9 -18 8 -7 -1 -36 -3 -65 -5z"/>
<path d="M5850 10225 c14 -8 32 -14 40 -14 9 0 4 6 -10 14 -14 8 -32 14 -40
14 -9 0 -4 -6 10 -14z"/>
<path d="M14759 10178 c-7 -23 -24 -54 -37 -70 -13 -15 -20 -28 -15 -28 20 0
56 35 69 67 11 25 19 33 32 29 9 -3 24 -1 32 4 12 7 11 10 -5 15 -11 4 -28 11
-37 16 -24 13 -23 14 -39 -33z"/>
<path d="M5937 10173 c5 -28 19 -50 56 -85 27 -27 55 -48 62 -48 6 0 20 -9 30
-20 14 -16 26 -18 61 -13 34 4 44 2 44 -8 0 -8 10 -20 23 -28 21 -13 22 -13 5
6 -10 11 -18 24 -18 29 -1 14 -105 94 -123 94 -9 0 -24 11 -33 25 -16 25 -91
85 -105 85 -4 0 -5 -17 -2 -37z"/>
<path d="M14640 10050 c0 -5 5 -10 11 -10 5 0 7 5 4 10 -3 6 -8 10 -11 10 -2
0 -4 -4 -4 -10z"/>
<path d="M6274 9915 c5 -19 2 -25 -10 -25 -12 0 -14 -3 -6 -12 6 -7 15 -39 21
-72 6 -32 16 -64 21 -71 6 -7 10 -17 9 -21 -1 -5 -1 -18 0 -28 1 -19 2 -19 14
-2 12 16 14 16 31 -3 l19 -21 33 30 c34 30 58 31 68 4 4 -11 11 -12 24 -5 11
6 24 6 35 -1 10 -5 25 -7 33 -4 7 3 34 -8 59 -25 44 -29 75 -33 75 -8 0 6 7 8
16 5 8 -3 13 -2 10 3 -3 5 -18 12 -33 16 -16 3 -37 15 -48 25 -11 9 -36 20
-56 24 -20 3 -46 18 -59 31 -13 14 -30 23 -36 21 -7 -3 -18 2 -24 10 -7 8 -23
14 -37 14 -24 0 -96 65 -130 118 -20 30 -37 28 -29 -3z"/>
<path d="M7649 9860 c-36 -3 -72 -10 -80 -17 -9 -7 -20 -8 -28 -3 -30 18 -58
-10 -82 -84 -23 -69 -26 -72 -69 -87 -25 -9 -58 -21 -73 -27 -16 -7 -42 -12
-58 -12 -18 0 -28 -4 -24 -10 7 -12 -20 -42 -29 -33 -9 9 -66 9 -66 0 0 -9
-76 29 -85 43 -3 5 -15 10 -26 10 -10 0 -19 4 -19 8 0 5 -9 18 -20 30 -25 27
-80 31 -80 6 0 -12 -6 -15 -22 -10 -13 4 -41 10 -63 13 -35 6 -38 5 -25 -9 9
-8 24 -33 34 -55 19 -43 10 -38 211 -99 62 -18 98 -35 115 -54 16 -17 56 -37
110 -55 47 -16 92 -34 100 -40 8 -7 23 -15 32 -18 11 -4 17 -16 17 -29 -1 -22
12 -68 34 -116 6 -12 17 -20 24 -18 18 7 101 -19 122 -38 10 -9 42 -29 72 -44
51 -25 54 -29 55 -66 1 -45 15 -56 61 -49 19 3 39 0 48 -7 10 -9 15 -9 15 -1
0 6 5 11 10 11 6 0 10 -15 9 -32 -2 -48 61 -174 105 -208 10 -8 28 -25 40 -37
16 -16 26 -19 39 -12 9 6 17 17 17 25 0 14 19 13 67 -1 6 -2 14 3 17 11 5 13
10 13 40 0 38 -16 46 -13 46 18 0 18 3 17 31 -10 21 -19 33 -25 36 -16 3 6 14
12 26 12 11 0 18 -3 14 -6 -3 -4 1 -21 10 -38 10 -17 17 -35 18 -41 0 -5 10
-11 23 -13 12 -2 22 -8 22 -13 0 -16 54 -59 68 -54 7 2 22 -11 35 -30 12 -19
30 -35 40 -35 10 0 16 4 13 9 -3 5 0 9 7 8 36 -1 61 4 51 11 -6 4 -14 17 -18
30 -4 12 -15 22 -24 22 -28 1 -62 36 -62 64 0 26 -32 52 -50 41 -6 -4 -13 1
-16 9 -3 9 -15 16 -27 16 -11 0 -17 3 -14 6 3 4 2 15 -4 25 -13 25 -3 24 47
-5 l42 -24 7 42 c4 22 7 58 6 79 0 26 4 37 14 37 8 0 15 -5 15 -11 0 -5 4 -8
9 -4 5 3 12 1 16 -5 3 -5 18 -10 32 -10 15 0 35 -7 45 -17 17 -15 18 -14 18
20 0 23 6 39 16 45 13 7 15 18 10 45 -5 29 -13 38 -41 47 -18 6 -39 18 -45 26
-14 16 -65 20 -55 4 3 -5 -3 -10 -15 -10 -11 0 -23 7 -26 15 -3 8 -14 17 -25
20 -28 9 -25 46 4 41 14 -2 21 -9 19 -20 -2 -9 2 -16 8 -16 6 0 9 4 6 9 -8 12
21 34 34 26 5 -3 10 1 10 9 0 9 9 33 20 53 27 50 25 63 -10 101 -16 18 -30 38
-30 43 0 6 -4 8 -9 4 -13 -8 -32 30 -25 49 3 8 -1 25 -10 38 -21 30 -20 50 3
80 19 24 19 25 1 65 -16 37 -22 41 -60 45 -26 2 -48 -1 -55 -9 -11 -10 -15
-10 -24 1 -9 11 -18 7 -47 -21 -36 -33 -38 -34 -105 -29 -77 5 -100 14 -76 28
19 10 11 41 -9 34 -27 -10 -79 32 -107 88 -16 31 -26 60 -22 66 3 5 -1 10 -9
10 -9 0 -13 -6 -10 -15 11 -27 -5 -34 -40 -20 -25 11 -36 11 -38 3 -5 -13 -78
-2 -78 12 0 4 -3 15 -6 23 -4 12 0 14 17 10 14 -4 20 -2 15 5 -3 6 -2 13 4 17
19 12 10 20 -27 23 -20 1 -46 11 -58 21 -34 31 -57 37 -126 31z m176 -161
c-10 -15 -25 -10 -19 6 4 8 10 12 15 9 5 -3 7 -10 4 -15z"/>
<path d="M6746 9674 c-4 -10 -1 -14 6 -12 15 5 23 28 10 28 -5 0 -13 -7 -16
-16z"/>
<path d="M9000 8994 c0 -22 4 -24 43 -23 35 0 38 2 20 9 -13 5 -23 13 -23 19
0 5 -9 11 -20 14 -16 4 -20 0 -20 -19z"/>
<path d="M9150 9010 c0 -5 5 -10 10 -10 6 0 10 5 10 10 0 6 -4 10 -10 10 -5 0
-10 -4 -10 -10z"/>
<path d="M8751 8986 c-10 -11 -8 -16 9 -21 26 -8 33 -3 24 19 -8 20 -18 20
-33 2z"/>
<path d="M9105 8989 c-4 -6 -4 -13 -1 -16 8 -8 36 5 36 17 0 13 -27 13 -35 -1z"/>
<path d="M8940 8975 c-14 -16 -3 -20 19 -6 8 5 9 11 3 15 -5 3 -15 -1 -22 -9z"/>
<path d="M8954 8942 c4 -13 1 -18 -14 -18 -11 0 -20 6 -20 13 0 7 -5 13 -11
13 -5 0 -8 -3 -5 -8 2 -4 -14 -6 -37 -5 l-42 3 30 -15 c20 -9 24 -14 12 -15
-9 0 -23 -11 -29 -25 -9 -19 -16 -24 -32 -19 -17 6 -19 4 -10 -7 15 -18 0 -59
-21 -59 -8 0 -20 -12 -26 -27 -6 -16 -17 -36 -26 -45 -19 -21 -10 -48 16 -48
11 0 24 -7 29 -15 6 -13 14 -13 40 -4 25 8 36 8 47 -1 12 -10 15 -10 15 3 0
19 35 26 118 24 34 -1 62 0 62 2 0 3 -12 18 -27 33 l-27 28 22 46 c17 34 20
49 12 59 -7 9 -7 15 -1 19 6 4 3 18 -7 35 -9 16 -20 27 -23 25 -4 -2 -14 3
-22 11 -21 20 -30 19 -23 -3z m32 -59 c7 -10 14 -26 14 -35 0 -10 5 -18 11
-18 5 0 7 -5 3 -11 -6 -11 -54 54 -54 74 0 12 12 8 26 -10z m7 -161 c-7 -2
-13 -9 -13 -17 0 -16 -32 -13 -38 3 -2 7 3 12 12 12 9 0 16 8 16 18 0 29 12
34 25 9 8 -17 8 -23 -2 -25z"/>
<path d="M11150 7906 c0 -2 8 -10 18 -17 15 -13 16 -12 3 4 -13 16 -21 21 -21
13z"/>
<path d="M11200 7830 c0 -5 5 -10 10 -10 6 0 10 5 10 10 0 6 -4 10 -10 10 -5
0 -10 -4 -10 -10z"/>
</g>
</svg>
