<svg version="1" xmlns="http://www.w3.org/2000/svg" width="724.446" height="467.899" viewBox="0 0 543.334 350.925"><g fill="#222"><path d="M320.5.316c.3.7.1 1.3-.6 1.3-.8 0-.9.3 0 1.4 1.4 1.6-1.1 4.2-3 3.1-.6-.4-2.4.7-4 2.5-1.9 2-3.5 3-4.5 2.6-1.2-.5-1.5-.2-1 1s.2 1.5-1.1 1c-1.7-.7-1.7-.6-.2.9 1.4 1.4 1.6 3.2 1.2 10.3-.4 6-1 9.1-2 9.9-1.1.9-1.2 1.6-.3 3.2.7 1.4.7 2.1.1 2.1s-2 1.8-3.1 4c-1.3 2.5-2.7 4-3.9 4-1.4 0-1.7.6-1.4 2.3.4 2 1 2.3 4.6 2.2 6.1-.2 9.6 1.2 9 3.6-.3 1-1.1 1.9-1.9 1.9-.8 0-1.1.6-.8 1.5.5 1.2 1 1.3 2 .4.8-.6 1.4-.9 1.4-.5s2-.4 4.4-1.8l4.4-2.5-.4 2.4c-.5 2.8 2.8 4.4 5.1 2.5 1.4-1.1 8.4-1 13 .3 1.1.3 3.2.8 4.8 1.2 1.5.4 2.7 1.4 2.8 2.4 0 1 .2 1.2.6.3.3-.7-.2-2.4-1.1-3.7-1.4-2.1-1.4-2.4-.1-1.9.8.4 1.5 1 1.5 1.6 0 .5.5.6 1 .3.6-.4 1 .5 1 1.9 0 2.8.9 3.3 2.8 1.4 2-2 1.4-.1-1.3 3.8-3.2 4.7-3.2 8.7 0 14.7 2.4 4.4 2.5 5 1.2 7.6-1.2 2.5-1.2 3 .4 5 1.2 1.5 1.6 3.1 1.3 5.1-.5 2.2-.1 3.1 1.5 4 2.7 1.4 6.2.4 5.9-1.7-.2-1 .9-2 2.7-2.7 2-.7 3-1.7 2.7-2.7-.3-1.4.2-1.5 4.5-.4 5.1 1.3 8.3.6 8.3-2 0-1 1.1-1.4 3.8-1.2 3.5.2 3.7 0 4-3.1.3-2.9.7-3.2 3.5-3.2 1.8 0 4.2-.3 5.5-.6 2.1-.6 2.2-1.1 1.6-5-.6-4.3-.6-4.3 2.7-4.6 3-.3 3.4-.7 3.7-3.5.3-2.8.1-3.1-1.8-2.6-1.7.5-2 1.1-1.5 3.1.5 2.1.3 2.4-1.4 1.9-1.1-.3-2.2 0-2.4.6-.5 1.6-8.4-2.5-9.6-5-.6-1.2-2.6-2.9-4.4-3.7-1.9-.8-3.7-1.8-4.1-2.4-.3-.6-1.5-.8-2.5-.5-1.3.3-2.4-.2-3.3-1.6-.7-1.2-2.2-2.1-3.4-2.1-2.7 0-5.4-3-5.4-6 0-2.4-7.3-10-9.6-10-.7 0-1.6-1-2-2.2-1.4-4.4-6.1-8.8-9.5-8.8-1.5 0-3.1-.5-3.4-1-.3-.6.1-1 1.1-1 1.3 0 1.5-.6 1-3.3-.4-1.7-.6-4.9-.6-7 .1-3.7 0-3.8-3-3.5-2.5.2-3.5-.2-4.8-2.4-1.5-2.5-1.5-2.8.1-4.6.9-1 1.7-3.3 1.7-5 0-3.2-1.7-5.3-2.9-3.4-1 1.7-8.1 3.3-8.1 1.8 0-.7-.7-2.1-1.6-3.2-.8-1-1.3-1.3-.9-.7zM295.4 56.516c0 1.5.3 1.7 1.3.9.7-.6 1-1.4.7-1.9-.9-1.5-2-1-2 1zM427.4 66.116c-.4.8-1.3 1.5-2.1 1.5s-2.4 1.1-3.4 2.4c-1.1 1.4-3.5 3-5.5 3.6l-3.5 1.2 2.6 2.4c1.4 1.3 4 3.1 5.7 4 1.6.9 5.8 4.5 9.2 8.1 3.3 3.6 7.5 7.2 9.1 8 6.8 3.3 7.6 3.9 8.2 6.3.9 3.9 2.3 5.1 5.2 4.5 2.2-.5 3 0 4.5 2.5 2.2 3.8 5.8 5.4 11.3 5.1 2.6-.2 5.1.4 6.7 1.5 3.3 2.1 4.1 1.5 1.8-1.7-.9-1.3-1.8-4.1-1.9-6.1-.3-3.7-.3-3.7 3.2-3.1 2.8.4 3.5.2 3.5-1.1 0-.9.6-1.6 1.4-1.6.8 0 2.1-2.4 3.1-5.8 1-3.1 2-6.1 2.3-6.6.3-.5 0-.6-.6-.2-.5.3-1.2.1-1.4-.5-.3-.9-.9-.9-2.4-.1s-2.4.8-3.2 0c-1.5-1.5-1.6-4.8-.2-4.8 2 0 1-2.9-1.2-3.5-4.1-1.2-11.3-5-12.5-6.5-.7-.8-1.3-2.2-1.3-3-.1-2.3-1.9-4.7-2.7-3.5-1.6 2-5 3.3-6.4 2.4-2.3-1.5-8.9-1.1-9.5.6-.9 2.3-3.1 1.8-6.4-1.4-1.9-1.8-3.8-2.7-4.9-2.4-1.1.3-2.8-.4-4-1.6-2.5-2.5-3.9-2.7-4.7-.6zM405 74.616c1.9 1.3 3 1.3 3 0 0-.6-1-1-2.2-1-1.9 0-2 .2-.8 1zM539 95.116c0 .8-.8 1.5-1.7 1.6-1.5 0-1.5.2.2.9 2.1.8 5-1.4 3.9-3.1-.8-1.4-2.4-1-2.4.6z"/><path d="M381.5 95.616c.4.6.1 1.7-.5 2.5s-.9 1.9-.5 2.5c.3.5.1 1-.5 1s-.8.5-.5 1c.4.6 1 .8 1.5.5.4-.3 1.3.1 1.9.9 1.2 1.5 3.4 1.6 3.9.3.6-1.4-1.1-8.2-2.2-8.9-1.7-1.1-3.8-.9-3.1.2zM369.6 103.316c0 1.6.4 3.9.8 5.1l.8 2.4 1.5-2.2c.8-1.2 2.5-2.5 3.7-2.9 2-.8 1.9-.9-1.4-3-4.6-2.8-5.5-2.7-5.4.6zM538.1 102.516c-.8.5-2 .7-2.8.4-.8-.3-1.3.3-1.3 1.7 0 1.1-.4 1.9-.9 1.6-.5-.3-2.8.1-5.2.8-8.6 2.8-12.9 3.9-13.5 3.4-.3-.4-2 .9-3.7 2.8-2.8 3-3.6 3.3-6.2 2.6-1.7-.5-4.2-.5-5.7.1-1.9.6-3.9.5-5.9-.2-4.7-1.6-8.4-1.3-10.2.7-2.2 2.4-2.2 7.8-.1 8.6 1.1.4 1.3 1 .6 2.3-.6.9-.6 2.9-.1 4.6.7 2.4.4 3.3-1.6 5.3-3.4 3.3-3.1 4.1 1 3.6 1.9-.2 4.9.1 6.7.7 1.7.6 3.4.7 3.7.3 1-1.5 6.4-2 12.1-1.2 4.3.6 5.7.5 6.7-.7.9-1.1 1.6-1.2 3.1-.4 1.1.6 2.2.8 2.5.4.3-.3 1.4.2 2.3 1.1 2.5 2.6 4.3.3 1.9-2.3-1.2-1.5-1.6-2.9-1.2-5.1.4-1.7.2-3-.3-3-.6 0-1-.7-1-1.6 0-1.1.6-1.5 2-1.1 1.1.3 1.8.1 1.4-.4-.3-.5-.1-.9.5-.9.5 0 1.2.4 1.6 1 .8 1.2 5.5-.9 5.5-2.5 0-.7 1.4-1.5 3-1.9 2.3-.4 3-1.1 3-2.9 0-1.3.9-3.2 2.1-4.3 1.1-1 2.9-3.6 3.9-5.7 1.8-3.7 1.8-3.8-.3-6.2-1.6-1.8-2.6-2.2-3.6-1.6zM337.5 116.616c-.3.5-.1 1 .4 1 .6 0 1.1-.5 1.1-1 0-.6-.2-1-.4-1-.3 0-.8.4-1.1 1zM368.6 116.416c-.4.7-.5 1.6-.1 2.2.7 1.1 3.5.2 3.5-1.2 0-.5-.4-.7-.9-.4-.5.4-1.1.1-1.3-.6-.3-.9-.6-.9-1.2 0zM363.9 120.916c-.9.7-1.9 2.2-2.3 3.5-.8 2.4-3.5 2.9-5.3 1.1-.9-.9-1-.7-.6 1 .3 1.3.1 2.1-.6 2.1s-.9.5-.5 1.2c.5.8.2.9-1 .5-1-.4-2-.7-2.2-.7-.2 0-.4-.7-.4-1.5s-.4-1.5-1-1.5c-1.4 0-1.3 2.3.1 3.7.9.9.9 2-.1 4.2-1.5 3.8-4.2 4-6.5.5-1.3-2-1.9-2.3-3-1.4-.8.7-1.5.7-1.9.1-.3-.5 0-1.1.6-1.4.8-.3.1-.9-1.4-1.6-1.5-.6-3.3-.8-4-.6-2 .8-1.9-4.7 0-7 1.6-1.9 1.6-1.9-.3-.4-1.1.9-2.9 2-4.1 2.3-1.6.5-2 1.2-1.6 3.1.3 2 0 2.5-1.5 2.5-1 0-2.8.7-4 1.5-1.8 1.3-2.2 1.3-3.3 0-1-1.3-1.6-1.3-4.1 0-2.6 1.4-3.1 1.3-6.6-.6-3.3-1.9-6.4-2.5-15.6-3.2-.9-.1-1.9-.9-2.2-1.8-.5-1.5-.9-1.5-3.2.7-2.9 2.6-4.3 3-6 1.3-.8-.8-1.9-.2-4.1 2.2-2 2.3-2.6 3.6-1.9 4.1.6.4.8 1 .4 1.4-.4.4-.1 1.4.6 2.2 1 1.3.9 1.4-1 .8-2-.6-2-.5-.8 3 1.1 3.1 1 4.1-.7 7.6-1.4 2.8-2.4 3.8-3.5 3.4-1.2-.5-1.4-.1-1 1.3.3 1.1-.2 2.6-1 3.2-.8.7-1.2 2-1 2.9.2.9-.9 3.6-2.4 5.9-1.6 2.3-2.9 4.8-2.9 5.6 0 .8-1.8 2.7-4 4.1-4.6 3.1-4.8 3.6-1.9 5.6 2.1 1.3 2.1 1.6.8 5.4-.7 2.1-1.2 4.2-1.1 4.6.1.5-.9.8-2.2.8-3.2 0-6.2 5.3-4.1 7 1.1.9 3.5 9 3.5 11.6 0 .2-1.2.1-2.6-.2-2.2-.6-2.5-.4-1.8.7.5.8.9 2.9 1 4.7l.1 3.4-4.4-.7-4.4-.6 1.6 2.5c1.6 2.4 1.6 2.8-.9 7.7-2 4.1-2.4 6-1.9 9.4.5 3.8.3 4.4-1.6 5-1.3.4-2.1 1.5-2.1 2.8 0 1.2-1.2 3.1-2.6 4.2-4.6 3.6-8.3 7.8-7.7 8.8.4.7-.1.7-1.3.2-7.2-2.9-7.5-3-8.3-1.6-.5.8-1.8 1.2-3 .8-1.2-.3-2.1-.1-2.1.3 0 .5-.9 1.2-2 1.5-1.1.4-1.8 1-1.5 1.5.3.5 0 1.2-.6 1.5-.6.4-.8 1.8-.5 3 .8 2.9-.2 5.5-2 5.5-2.2 0-1.6 3.1.6 3.7 1.2.3 2 1.2 1.8 2.2-.1.9.1 2.1.5 2.8.4.7-.2 1.8-1.4 2.7-1.9 1.3-2 1.8-1.1 4.3 1.3 3.1 1.3 7.2 0 8.9-.4.6-2.4 1.1-4.5 1.2-4.3.2-8.8 4.2-8 7.2.3 1.1-.3 2.6-1.4 3.6-1 .9-1.9 2.5-1.9 3.4 0 1-1.1 2.6-2.5 3.6s-2.5 2.4-2.5 3c0 .7-1.5 1.9-3.4 2.8-2.2 1-3.6 2.5-3.8 3.9-.2 1.2-.9 2.1-1.6 1.9-.6-.1-1.2.4-1.2 1.2 0 1.5 3.7 2.9 4.2 1.5.2-.5 2.7-1.8 5.7-2.9 3-1.1 6.4-2.8 7.5-3.8 3.5-3.2 14.7-2.1 19.1 1.8 3.1 2.7 5.9 3.2 9.8 1.5 3.3-1.4 3.6-1.8 3.2-4.8-.3-1.7-.3-2.6.1-2 .3.7 1.3 1.3 2.1 1.3 1.2 0 1.4-.7.9-3.2-.8-4-4.2-7.8-7-7.8-1.2 0-3.4-.7-5-1.5-1.6-.9-3.2-1.2-3.5-.8-.3.4-1.4.9-2.3 1.1-1.4.2-1.8-.4-1.8-2.6 0-3 1.6-4.8 6.3-7.2 2.7-1.3 3.6-3 1.7-3-.5 0-1-1.5-1-3.4 0-3.4 0-3.4 5.1-3.8 4.1-.2 5.3.1 6 1.5.6.9.8 2.1.5 2.6-.3.5.1 1.4.9 2.1.8.7 1.5 1.6 1.5 2 0 .4 1.4 2.3 3.1 4.1 2.9 3.1 3.8 3.4 10.8 4 4.2.3 9.2 1.2 11.1 2.1 1.9.8 4.9 1.9 6.6 2.5 3 1 3.2.9 4.4-2.5 1.2-3.4 1.2-3.4 6.4-2.9 2.8.2 6.1.1 7.3-.4 2.5-.9 5.9-1.1 15.1-.6 3.4.2 6.2.1 6.2-.3 0-.9 10.1-.3 14.5.9 5.4 1.4 6.5 1.4 6.5-.4 0-2.6 4.3-1.3 8.7 2.8 2.2 2 2.3 2 6.3.2 2.4-1.1 3.9-2.4 3.6-3.1-.3-.7.4-1.4 1.7-1.6 1.2-.2 2.3-1.2 2.6-2.3.2-1.1.9-2.4 1.7-2.8.8-.4 1.4-1.5 1.4-2.3 0-1.1.9-1.3 4-.8 3.2.5 4.1.3 4.6-1 .6-1.5.9-1.5 3 .5 1.9 1.8 3.1 2.1 6.8 1.7 3.2-.4 4.9-.1 5.7.8.6.8 1.7 1.4 2.4 1.4.6 0 2.2.9 3.5 2 2.5 2.2 4 2.6 4 1 0-.6 1.8-1 4-1 4.3 0 10 2.3 10 4.1 0 .6.4.8.9.5.5-.3 2.6.1 4.6 1 2 .8 3.4 1.1 3.1.5-.4-.6.5-.9 2-.8 2.5.2 3.7-.9 4.8-4.6.6-2 5.5-2.3 7.5-.5 1 1.1 1 .8.2-1.5-.8-2.1-.8-3.4.1-5 .6-1.2 1.2-3.2 1.3-4.4.1-2.4 3.2-6.3 5-6.3.6 0 2.4-1.4 3.9-3.1 2-2.2 3.4-2.9 4.8-2.6 2.2.6 5.8-1.1 5.8-2.8 0-.5 1.6-2 3.5-3.2 1.9-1.3 3.7-3.4 4.1-4.8.3-1.4.9-2.3 1.3-2.1.3.2.6-1.2.5-3.2-.1-4.2-2.3-8.5-3.9-7.3-.5.4-2.6.4-4.5 0-3.2-.6-3.3-.7-1.2-1.4 2.3-.8 2.7-1.6 1.5-2.9-.5-.4-.8-1.1-.8-1.4-.1-.4-.9-2.1-1.8-3.9-1.6-3-1.6-3.3 0-4.2 1.6-.8 1.4-1-.9-1.6-2.5-.6-5.8-5.8-4.5-7.1.3-.3 2.8-.7 5.5-.7 4.1-.2 5.1-.6 6-2.6.8-1.6.8-2.8.2-3.6-.8-.9-.4-1.4 1.2-1.9 3.1-.8 6.3-.8 5.5.1-.4.3 0 1.4.8 2.3 2.6 2.9 12.8 0 10.9-3.1-.2-.4.3-1.2 1.1-1.9 1.1-.9 1.2-1.6.5-2.5-.8-1-.4-1.4 1.7-2 1.5-.3 3.1-1.1 3.5-1.7.9-1.6-.2-8-1.8-9.9-.9-1-1-1.9-.3-2.6.6-.6.6-1.8-.1-3.7-.5-1.5-1-3.7-1-4.8 0-1.2-.7-2.9-1.6-3.9-1.5-1.6-1.4-1.9.5-3.1 1.4-.9 1.9-1.9 1.5-3.5-.4-1.4-.2-2.3.5-2.3.6 0 1.6-1.1 2.3-2.5.6-1.4 2.3-2.7 3.8-3 3.2-.7 4.8-4.8 3-7.1-.9-1-.5-2.1 1.5-4.9 2.5-3.2 2.6-3.8 1.5-6.5-.7-1.6-1-3.9-.7-5 .3-1.1-.3-3-1.5-4.5-1-1.4-1.6-2.9-1.3-3.5.3-.5.1-1-.4-1-2.1 0-2.6-.3-3.9-2.1-1.4-2-4.2-2.6-4.2-.9 0 .5-.9 1-2 1s-2 .4-2 .9c0 1.2-8.1.6-8.9-.6-.3-.6-2.9-1.3-5.8-1.6-5.1-.6-5.2-.5-5.8 2.4-.4 1.6-1.1 2.9-1.6 2.9s-.9.9-.9 2c0 1.7-.4 1.8-2.4 1-1.8-.7-2.6-.5-3 .6-.3.8-1.1 1.4-1.8 1.3-2.7-.3-3.6.2-4.1 2.2-.3 1.2-1 1.8-1.6 1.4-.7-.4-1.1.4-1.1 1.9 0 3.1-.2 3.1-4.9.7-2-1.1-5.3-2.2-7.3-2.6-2.1-.3-4.4-1.2-5.2-2-.8-.8-1.9-1.5-2.5-1.5-1.1 0-1.6-2.6-1.2-6.4 0-1-.4-2.5-1-3.2-.9-1.1-.7-1.4 1-1.4 1.1 0 2.1.4 2.1.9s.9 1.2 1.9 1.6c1.2.3 1.8 1.2 1.5 2-.7 1.7 2.4 2.4 5.3 1.2 1.6-.7 2.7-.6 3.8.3 2.7 2.2 2.7.3.1-2.3-3.3-3.3-3.3-4.3.3-5.5 5.2-1.8 4.7-9.6-.8-10.4-2.6-.4-2.9-.2-1.9 1.1.7.9 1.9 2.2 2.7 2.8 1 .9 1.1 1.3.2 1.3-.7 0-1.9-.7-2.7-1.5-2.4-2.4-3.4-1.8-3.4 2 0 3-.4 3.6-2.7 4.1-1.6.3-4.4 1-6.3 1.5-2.9.7-4.1.5-7.2-1.6-2.1-1.4-3.9-2.5-4.2-2.5-1 0-1.2 5-.2 5.4.6.2 0 .5-1.3.5-1.9.1-2.1.4-1.2 1.5 2 2.4-3.9 5.4-8.2 4-1.8-.6-1.8-.7.1-2.7 2.4-2.6 4.6-7.7 3.2-7.7-.5 0-1.2.4-1.5 1-.7 1.2-7.6 1.1-9.2-.2-.7-.6-1.4-.5-1.8.2-1 1.7-3.4-2-3.5-5.2 0-1.4.6-2.8 1.2-3 1-.4.9-.8-.2-1.9-3.6-3.4-4.5-3.8-6.1-2.6zm35.1 16.7c0 .5-.4 1-.9 1-.6 0-1.3-.5-1.6-1-.3-.6.1-1 .9-1 .9 0 1.6.4 1.6 1zm-21.1 5.6c-1.2 1.5-4.1 1.9-5.3.7-.8-.8 4.5-3.2 5.7-2.6.4.3.3 1.1-.4 1.9zm-121.9 63.4c0 .5-.2 1-.4 1-.3 0-.8-.5-1.1-1-.3-.6-.1-1 .4-1 .6 0 1.1.4 1.1 1zm172.5 17c1.1 1.2 1.5 2.6 1 3.7-.6 1.6-.9 1.5-3.1-1-1.3-1.5-2.4-3.2-2.4-3.8 0-1.6 2.6-1 4.5 1.1zm6.5 29.1c0 1.8-1.8.9-2.3-1.2-.4-1.6-.3-1.8.9-.8.8.6 1.4 1.5 1.4 2zm-188.4 7.2c.2 1.6 0 2.7-.6 2.7s-.8.5-.5 1c.5.8 1.1.8 1.9.1 1.4-1.2 3.4.5 5.4 4.5 1.2 2.3 4.9 3.8 5.8 2.3.3-.5 1.8-.9 3.4-.9 2.4 0 3.5.8 5.4 3.9 1.4 2.2 3.4 4.2 4.6 4.6 2.3.7 2.7 3.5.5 3.5-.8 0-1.5.4-1.5.9s-.7 1.7-1.6 2.6c-1.5 1.5-1.8 1.5-3.5-.1-1.5-1.4-2.4-1.5-4.2-.7-1.2.6-3.3 1.1-4.7 1.1-1.3.1-2.9.8-3.5 1.6-.9 1.2-1.4 1.2-3.5-.1-2.3-1.3-2.3-1.4-.3-1 1.5.3 2 .1 1.6-.9-.5-1.3.7-1.8 3.5-1.5 1.9.3 1.4-1-1.5-4.1-1.6-1.7-2.1-2.8-1.3-2.8.9 0 .8-.6-.6-2.1-1.5-1.7-1.9-1.8-2.4-.5-.4 1.3-.8 1.3-2.8-.2-1.9-1.5-2.1-2.2-1.4-4.3.7-1.6.6-3.1 0-4.3-.5-.9-.7-2.8-.4-4.2.4-1.3.1-3.4-.5-4.7-1-2-1-2.1.5-.6.9.8 1.9 2.7 2.2 4.2zm-34.1 10.3c-.9.9-1.9 1.3-2.3 1-.3-.4 0-1.1.8-1.6 2.4-1.5 3.3-1.1 1.5.6zm54.9 19.9c-.4.8-.8 1.5-1 1.5-.2 0-.4-.7-.4-1.5s.4-1.5 1-1.5c.5 0 .7.7.4 1.5z"/><path d="M324 122.616c0 .5.5 1 1.1 1 .5 0 .7-.5.4-1-.3-.6-.8-1-1.1-1-.2 0-.4.4-.4 1zM373.6 123.116c.4.8.8 1.5 1 1.5.2 0 .4-.7.4-1.5s-.4-1.5-1-1.5c-.5 0-.7.7-.4 1.5zM377.2 126.916c.3.6 2.7 1.5 5.4 1.8 2.7.3 5.7.9 6.7 1.3 1.9.9 2.2-.1.8-2.3-1.2-1.9-13.5-2.7-12.9-.8zM497.3 194.116c.4.9.2 2.5-.5 3.4-1.2 1.4-1.1 1.4.5.2 2-1.6 2.2-3.7.5-4.7-.8-.5-.9-.2-.5 1.1zM492.6 202.616c-1.4 1.7-2.6 3.5-2.6 3.9 0 .4-1.8 1.5-4.1 2.5-3.3 1.5-4.6 1.6-6.5.7-3.5-1.6-5.9-1.4-7.6.6-2.2 2.5-2.8 7.1-1.2 8.4 2.1 1.7 1.8 6.9-.4 6.9-.9 0-2.3.9-3 2-1.4 2.3-.5 2.5 3.5.8 1.5-.6 3.3-1.2 3.8-1.2 1.2-.1 1.2-5.3 0-8-.7-1.5-.5-1.7 1.3-1.2 1.4.5 2.5.1 3.4-1.1 1.9-2.6 6.3-4.6 8.6-3.9 1.5.5 2.1.1 2.5-1.6.4-1.3 2-3.1 3.7-4.1 3-1.8 3.7-4 2.1-6.5-.6-1-1.5-.6-3.5 1.8zM196 225.116c0 1.8-1.4 1.9-4.2.4-1.6-.8-2.2-.8-2.9.2-.4.7-.5 1.7-.3 2.1.3.4-.4.8-1.5.8-1.4 0-2.1.6-2.1 1.9 0 1.1-.8 2.6-1.8 3.3-2.6 1.8-3.5 6.8-1.3 6.8s5.8 2.6 4.9 3.5c-.3.4-1.7.1-3-.6-2.3-1.2-2.3-1.2-.4 1 1.1 1.1 2.9 2.1 4 2.1 3.8 0 5.1 1.5 3.8 4.4-.8 1.9-.8 2.6.1 2.9.9.3.9.8-.1 1.9-1.4 1.8-1 2.2 3.1 3.2 1.5.3 2.7 1.1 2.7 1.6 0 .6.5 1 1 1 2.3 0-.3-9.1-3.5-12.4-1.5-1.5-1.5-1.6.5-1.6 1.1 0 2.3.7 2.6 1.5 1 2.5 2.1 1.7 4.3-2.8 2.2-4.5 2.8-10.2 1.2-11.1-1.3-.8-5.1-8.4-5.1-10.1 0-.8-.4-1.5-1-1.5-.5 0-1 .7-1 1.5zM464.1 231.216c0 1.1.3 1.4.6.6.3-.7.2-1.6-.1-1.9-.3-.4-.6.2-.5 1.3zM455 233.216c0 .3.7 1.3 1.6 2.1 1.3 1.4 1.7 1.4 2.5.2 1.4-2.3 1.1-2.9-1.6-2.9-1.4 0-2.5.3-2.5.6zM446 241.816c-1.1 2.3-2.1 3.2-3.4 3-1.1-.2-1.7.1-1.4 1 .3.9 2 1.2 5.1 1.1 2.6-.1 4.7.2 4.7.7 0 .6.5 1 1 1 .6 0 1-1.1 1-2.4 0-1.3.4-2.6 1-2.8 1.4-.5 0-4.8-1.6-4.8-1.7 0-1.8 1.2-.2 2.8.6.6.9 1.5.5 1.8-1.1 1.1-3.7-.4-4.5-2.6-.7-2-.9-1.9-2.2 1.2zM122.6 250.116c-.3.8-1.2 1.2-2.1.9-1.2-.5-1.5.2-1.5 3.5 0 3-.4 4.1-1.5 4.1-1.7 0-2.1 2.6-.4 3.2 1.6.5 0 3.5-2.2 4.1-1.1.3-1.9 1.4-1.9 2.6 0 1.1-.9 2.6-2 3.3-1.1.7-2 1.8-2 2.5s-.9 2.1-2.1 3.2c-1.3 1.2-2 3-1.9 4.8.3 4.5.1 5.3-1.5 4.7-1-.4-1.5 0-1.5 1.1s-.5 1.5-1.5 1.1c-1.8-.7-6.5 1-6.5 2.3 0 .5 1.3 1.2 3 1.6 1.6.4 3.8 1.7 4.7 2.9 2 2.5 6.3 4.1 6.3 2.3.1-.7 1.1.1 2.4 1.7 1.6 1.9 2.6 2.4 3.1 1.7.5-.9 1.1-.9 2.3.1 1.5 1.1 1.5 1.1.6-.2-1.2-1.6-2.7-7-2-7 .3 0 1.7.5 3.2 1 2.1.8 2.9.7 3.9-.6.6-1 1.7-1.4 2.3-1 .6.3 1.2-.1 1.4-1 .3-1.4.6-1.4 2.8.3 2.8 2.3 11.6 5.4 12.4 4.6.3-.4.9.7 1.2 2.3.4 2.1 1.5 3.4 3.7 4.4 1.8.8 3.7 1.3 4.3 1.2.6-.1 1.6.9 2.2 2.3.7 1.4 2.4 3.1 3.9 3.7 1.6.7 3.8 2.1 5 3.2 2 1.7 2.6 1.8 4.7.7 1.3-.8 2.9-1 3.5-.7.6.4 1.1.3 1.1-.3 0-.5 1.6-1.5 3.5-2.1 2.7-.9 3.5-1.7 3.5-3.6 0-1.5.6-2.4 1.5-2.4.8 0 1.5-.4 1.5-1 0-.5.7-.7 1.5-.4.8.4 1.7-.1 2.1-1 .5-1.3.9-1.4 2.1-.5 2.7 2.3 3.3-.4 1.6-7.1-.8-3.6-2.2-7.7-2.9-9.1-1.2-2.3-1.2-2.8.1-3.3.8-.3 1.5-1.1 1.5-1.7 0-.9-.3-.9-1.4 0-1 .9-1.6.8-2.6-.4-.9-1.1-3-1.6-6.4-1.5-10 .1-11-.1-12.8-1.6-.9-.9-2.9-1.7-4.3-1.7-1.6 0-3.2-.8-4.1-2.3-.9-1.3-2.4-2.6-3.5-2.9-1.1-.4-2.6-2-3.4-3.6-.9-1.6-2.7-3.2-4-3.5-1.4-.3-2.5-1-2.5-1.6 0-.5-.4-.7-.9-.4-.5.3-1.4 0-2-.8-.6-.7-2.4-1.6-4-1.9-1.8-.4-3.2-1.5-3.6-2.7-.6-1.8-.9-1.9-2.2-.8-1.2 1-1.8.9-2.9-.7-1.7-2.2-1.7-3.2-.4-4 1.4-.9 1.2-2.2-.4-2.8-.8-.3-1.7.1-2 .8zM444 249.616c0 .6.7 1 1.5 1s1.5-.2 1.5-.4-.7-.6-1.5-1c-.8-.3-1.5-.1-1.5.4z"/><path d="M78.6 252.816c.4.7.9 3.2 1 5.6.3 3.9.1 4.3-1.6 3.9-1.6-.4-1.8 0-1.3 3.1.6 3.2.4 3.5-1.6 2.9-1.7-.4-2.4 0-3.1 1.9-.6 1.4-2.6 3.2-4.7 4.2l-3.8 1.7.6 5.6c.3 3.1.9 6.1 1.2 6.6.4.6-.4 1.3-1.8 1.5-1.7.4-2.5.1-2.5-.8 0-.8-.7-1.4-1.5-1.4-2.1 0-1.9 3.3.3 5.3 1.7 1.5 2.3 1.6 7.7.2 3.2-.9 7.1-1.3 8.6-1 2 .5 3 .1 3.7-1.2.9-1.5 1.5-1.6 4.1-.6 3.2 1.2 7.1.7 7.1-.8 0-.5 1.6-.9 3.5-.9 4.2 0 5.8-2.5 3-4.6-1.2-.9-1.4-1.4-.6-1.4 1.1 0 1.1-.3.1-1.5-1.3-1.6-.5-6.8 1.6-10 1.2-1.9 1.1-2.6-1.4-6.6-1.5-2.5-3.6-6.1-4.6-8.2-1.3-2.5-2.2-3.4-2.7-2.5-.6.9-1.2.8-2.7-.5-2.2-2-9.8-2.4-8.6-.5zM32 257.316c0 1.3-.9 3.2-2 4.3l-2 2h2.6c4.2 0 5.4-2 3.2-5.5-1.6-2.7-1.8-2.8-1.8-.8zM195 265.616c0 1.6-.4 3-1 3-.5 0-1 .9-1 1.9 0 1.2 1.1 2.3 3.1 3 4.3 1.5 4.9 1.4 4.9-.7 0-1 .5-2.3 1.2-3 .9-.9.7-1.6-1-3.2-1.1-1.1-2.6-2-3.2-2-.5 0-1-.5-1-1 0-.6-.4-1-1-1-.5 0-1 1.3-1 3zM33.9 265.316c-1.3 1.5-1.2 1.5.9.4 2.3-1.2 2.8-2.1 1.3-2.1-.5 0-1.5.7-2.2 1.7zM202 264.216c0 1.7 1.8 3.6 3 3.2.7-.2.4-1-.9-2.2-1.2-1.1-2.1-1.5-2.1-1zM27 265.616c0 .5.9 1 2.1 1 1.1 0 1.7-.5 1.4-1-.3-.6-1.3-1-2.1-1s-1.4.4-1.4 1zM152.6 265.516c-.4.7-.5 1.5-.2 1.8.9.9 1.9-.4 1.4-1.8-.4-1.1-.6-1.1-1.2 0zM36.7 268.716c.7.7 1.5 1 1.8.7.3-.3-.2-.9-1.2-1.2-1.4-.6-1.5-.5-.6.5zM41 268.616c0 .5.7.7 1.5.4.8-.4 1.5-.8 1.5-1 0-.2-.7-.4-1.5-.4s-1.5.4-1.5 1zM20.7 272.716c-.9.6-1.7 1.6-1.7 2.3 0 .8-.7 1.9-1.5 2.6-1.8 1.5-2 5.1-.3 6.8 1.5 1.5 7.8 1.6 7.8.1 0-.6-.5-1.9-1-3-.9-1.5-.7-1.9.5-1.9s1.5-.6.9-2.3c-1.3-4.1-2.8-5.6-4.7-4.6zM191.1 273.216c0 1.1.3 1.4.6.6.3-.7.2-1.6-.1-1.9-.3-.4-.6.2-.5 1.3zM202.6 278.216c-.8 2.2-.9 2.1 1.4 2.7 2.3.6 2.5-.1.6-2.6-1.2-1.6-1.4-1.6-2-.1zM16.5 288.116c-3.6 1.2-3.9 2.3-2.5 7.6.8 3 .8 4.4-.1 5.5-.9 1.1-.8 1.4.5 1.4.9 0 1.6.8 1.7 1.7.4 6.3-1.6 9.9-5 8.8-1.1-.3-2.2-.1-2.5.4-.7 1 1.9 4.1 3.4 4.1.5 0 .7.7.4 1.5-.4.9 0 1.5 1 1.5.9 0 1.6.6 1.6 1.4 0 2.1 2.1 3.1 3 1.6.5-.8 1.9-1.1 3.4-.8 2.5.5 2.6.4 1-1.3-2.5-2.8-2.7-9.6-.4-11.9 1.8-1.8 2-1.8 2.9-.2 1 1.6 1 1.6 1.1-.1 0-.9.4-1.7.9-1.7s1.1-1.2 1.3-2.8c.2-2.2.9-2.8 3.8-3.2 2.8-.4 3.5-.9 3.4-2.7 0-1.2.3-2 .7-1.7.4.2.9-.1 1.1-.8.2-.6 2-1.1 3.9-1 3.2.1 4.6-.2 11.9-2.9 3.5-1.3 3-2.9-.9-2.9-1.6 0-3.4-.7-4.1-1.5-1.5-1.8-5.4-.1-4.6 2.1.4 1-.3 1.4-2.9 1.4-1.8 0-3.7-.5-4-1-.3-.6-1.9-1-3.4-1s-3.1-.4-3.6-.9c-1.6-1.4-9.7-1.8-13-.6zm4.5 18.9c0 .3-.4.8-1 1.1-.5.3-1 .1-1-.4 0-.6.5-1.1 1-1.1.6 0 1 .2 1 .4zM161.1 319.716c-.1 2.1-1 3-4.5 4.4-2.8 1.1-4.7 2.7-5 3.9-.3 1.2-2.1 3.2-4.1 4.5-1.9 1.3-3.5 3.1-3.5 4.1 0 2.1-2.5 4.3-4.2 3.8-1.6-.6-3.8 1.6-3.8 3.7 0 .9-.9 1.9-2 2.2-3.2.8-2.5 4 .9 4.5 2.3.3 3.2-.1 4.2-1.8.7-1.4 1.7-2 2.8-1.7.9.4 1.3.3 1-.1-.9-.9 5.4-7.6 7.2-7.6 2 0 3.8-2 3.3-3.5-.3-.8.2-1.2 1.3-1.2 1.3.2 1.9-.6 2.1-2.5.3-2.4.6-2.7 2.3-1.8 2.3 1.3 7.9-1.2 7.9-3.5 0-.8.5-1.5 1.1-1.5 1.6 0 .6-4.5-1.1-4.6-4.2-.3-4.9-.5-5.3-2.2-.3-1.1-.5-.8-.6.9zM10.4 324.016c-.9 2-.9 2.6.4 3.1 1.9.7 2.1.5 2.4-2.5.4-3.1-1.4-3.5-2.8-.6zM6.5 328.616c.4.6 1.1.8 1.6.5 1.4-.9 1.1-1.5-.7-1.5-.8 0-1.2.5-.9 1zM9.2 337.616c.7 1.1 1.6 2 2 2 .3 0 1.3.3 2.2.6 1.2.5 1.6 0 1.6-2 0-2.7-1.5-3.6-2.3-1.4-.3 1-.9 1-2.6 0-2-1.2-2.1-1.1-.9.8zM12 343.516c0 1 1.9 2.5 2.5 2 .1-.2-.3-1-1.1-1.7s-1.4-.8-1.4-.3zM2 345.616c0 1.2-.4 1.8-1 1.5-.5-.3-1-.1-1 .4 0 1.5 2.3 1.4 4.5-.3 1.8-1.3 1.8-1.4-.3-2.5-1.9-1-2.2-.9-2.2.9z"/></g></svg>