<svg version="1" xmlns="http://www.w3.org/2000/svg" width="699.928" height="648.141" viewBox="0 0 524.946 486.106"><g fill="#222"><path d="M276.78 1.271c-2.1 1.3-3.2 1.5-3.7.7-.5-.7-.8-.5-.8.6 0 1.2-1.4 2.1-4.2 2.9-5 1.4-5.7 1.4-8.2.4-1.6-.7-1.8-.5-1.4 1.3.4 1.2.2 2.2-.2 2.2-.5 0-1.1.9-1.5 1.9-.3 1-1.9 2.4-3.6 3.1-3.5 1.5-5.3 4.3-4.4 7.1.4 1.1.1 3.4-.5 5-1 2.3-1.7 2.8-3.3 2.3-1.2-.4-1.7-.2-1.3.4.6 1-7.3 4.2-10.6 4.2-1 0-1.8.7-1.8 1.5 0 2-1.7 1.8-6-.4-3.8-2.1-5.4-1.7-11.9 2.7-2.1 1.3-4.1 2-5 1.6-.9-.4-4.2-.6-7.3-.5-3.5.1-5.8-.2-5.8-.8 0-.7-1.6-.8-4.4-.5-3.6.5-4.7.3-6.5-1.5-1.3-1.3-3.2-2.1-4.4-1.9-1.4.2-3-.7-4.5-2.5-1.4-1.5-3.4-2.7-4.8-2.7-1.6 0-2.8-.9-3.9-3-1.7-3.2-5.9-6.3-4.9-3.5.7 1.8-2.1 4.4-4.8 4.5-1.1 0-1.8 1-2 2.7-.2 2.3-.7 2.8-2.7 2.5-2.1-.2-2.2 0-1 1.5.9 1.1 1 1.4.2.9-1.2-.7-1.4-.3-1.7 3.3-.2 2.5-2.2 2.3-5.5-.4-1.7-1.5-3.6-2.3-4.2-2-.6.4-2.4.8-3.9.9-4 .3-4.5 1.1-2.7 4 2.1 3.1.2 5.1-3.4 3.8-1.3-.5-3.2-.7-4.2-.4-1.4.3-1.6.7-.6 1.8.9 1 .8 2.4-.2 5.9-.7 2.5-1.7 4.5-2.2 4.5-.5 0-.6.7-.3 1.6.4 1-.3 2.6-1.6 4-4.5 4.6-6.3 6.9-6.3 7.9 0 .5-1.6 1.5-3.5 2.2-2.6.8-3.4 1.6-3.3 3.1.1 1.1-.4 2.6-1.2 3.2-.8.7-1.5 2.3-1.5 3.6 0 1.5-.6 2.4-1.5 2.4-.8 0-1.5.8-1.5 1.9 0 2-2.5 3.1-7.2 3.1-2.1 0-2.5.4-2.1 2 .5 1.8-.5 2.5-2.9 2.1-1-.1-1 .7.2 4.8.9 3.1.8 3.3-1.3 2.7-1.2-.3-2.9-.1-3.7.4-.9.6-1.7.5-2.2-.3-.5-.8-1.3-.6-2.7.7-1.2 1.1-1.8 2.4-1.3 3 1.7 2.3-1 9.6-3.5 9.6-1.6 0-1.6.2-.2 3.4 1 2.2.8 2.9-1.6 5.8-1.7 2-3.5 3.2-4.6 3-1.2-.2-1.9.3-1.9 1.2 0 2.2-2.8 4.6-5.4 4.6-1.9 0-2.5.7-3 3.9-.3 2.2-.3 4.7 0 5.6.6 1.6-2.6 4.8-5.1 5.1-.5.1-2.5.8-4.2 1.5-2.6 1.1-3.3 1.9-3.3 4.1 0 1.6-.6 2.8-1.2 2.8-.9 0-.8.4.2 1 1.4.9.7 1.5-1.4 1.1-.4-.1-.5 1-.2 2.4.5 2 0 3.2-2.4 5.6-1.6 1.7-3 3.6-3 4.3 0 2.6-3.8 4.9-7 4.3-1.7-.4-3-.2-3 .3 0 .6.7 1 1.5 1 2.2 0 3.8 3.7 1.9 4.4-2.1.8-.8 2.5 1.5 1.9 2-.5 4 1.5 2.5 2.6-1.1.7-4.8 8.2-4.9 9.6 0 .5-.6 1.6-1.3 2.4-1 1.1-1 1.6.5 2.6 1.7 1.3 1.7 1.5 0 4.8-1.4 2.5-1.6 4-.9 5.3.5 1.1 1.5 4.1 2.1 6.8 1 4.2 1 5.1-.3 5.8-1.3.7-1.3 1.2 0 4.5.9 2 1.3 4.7.9 6-.6 2.4-4.8 6.7-6.8 6.9-3 .4-5.7 1.7-5.7 2.8 0 .9-1.4 1.1-5 .6-4.3-.5-5.1-.4-5.6 1.2-.3 1-1 1.8-1.5 1.8s-.9.7-.9 1.5c0 1.7-.9 1.9-2.9.6-2-1.3-4.4 1.8-2.9 3.6.5.7.7 1.7.3 2.3-.4.6.3 2.2 1.5 3.5 1.8 1.9 2.3 3.8 2.5 9 .2 3.6.9 7.2 1.5 8 .7.8 1 2.2.6 3-.3.8-.1 2.7.4 4.1.7 1.7.7 3.1.1 3.8-1.5 1.8-.2 5.2 3 8.8 2 2 2.8 3.7 2.4 4.9-.4 1.1-.2 1.9.5 1.9 1.4 0 4.5 3 4.5 4.4 0 .6.5 1.1 1 1.2.6 0 2.6.8 4.5 1.8 3.5 1.7 3.5 1.7 3.2 7.7-.3 5.2-.1 6.4 1.8 8.4 1.7 1.8 2 3 1.5 5.3-.3 1.7-1.3 3.6-2.1 4.3-.8.6-1.4 2.2-1.4 3.5 0 1.2-.6 2.6-1.2 3.1-1.3.7-1.8.8-7.2 1.1-2.7.2-2.8.3-1.4 1.9.9 1 2.1 3.4 2.7 5.3.7 2.2 2.3 4.3 4.2 5.4 1.8 1.1 2.8 2.3 2.5 3.2-.3.8-.8 3.6-1.2 6.4-.5 4.1-.3 5.4 1.1 7 1.4 1.5 1.5 2 .4 2-2.3 0-4.2 1.7-3.4 2.9.5.9 1 .9 2 .1 1.9-1.6 4.7-.1 4 2.1-.4 1.1-.2 1.9.5 1.9.6 0 .8.5.5 1-.3.6-1.7.7-3 .4l-2.3-.6 2.3 5.9c1.5 3.6 3.1 5.9 4.2 6.2 2.1.4 6.3 3.4 11.6 8.5 2 2 4.3 3.6 5.1 3.6 1.5 0 5.9 6.4 5.9 8.6 0 .8 1.1 1.4 2.4 1.4 1.3 0 2.3.4 2.3.9s3 1.1 6.8 1.5c3.7.3 7.4.6 8.2.7.8.1 2.4.9 3.5 1.9 2.6 2.2 7.9 3.2 9.4 1.7.8-.8 1.1-.4 1.1 1.5 0 1.5.5 3 1 3.3.6.4.8 1.1.5 1.6-.3.5.1.6.9.3s1.9.3 2.5 1.5c1.5 2.7 1.4 4.1-.4 4.1-1.8 0-1.9.9-.1 3.3 1.5 1.9 3 .9 2.1-1.5-.6-1.7 1.5-4.3 4-5.2 1.7-.5 2.1-1.5 2.1-6.1.1-7 1.1-8.1 5.5-6.1 1.9.8 4.6 1.7 6.1 2.1 3 .6 6.3 5.7 5.4 8.1-.3.8.2 1.8 1.1 2.1.9.3 3.7 2.6 6.2 4.9 3.4 3.2 5.4 4.4 7.7 4.4 5.2 0 11.4 6.5 11.4 11.8 0 2.5 2.1 4.2 5.7 4.6 1.5.2 2.8.9 2.8 1.5 0 .7.8 1.8 1.8 2.5.9.7 1.7 2.3 1.7 3.5 0 1.1.7 2.2 1.5 2.2.8.1 2.1.2 2.8.3.6 0 1.3 1.1 1.5 2.3.2 1.2 1 2.7 1.8 3.3.8.7 1.4 1.9 1.4 2.6 0 .8.7 1.4 1.5 1.4s1.9.8 2.4 1.9c.6 1 2.4 2.1 4.2 2.5 1.9.4 3.3 1.3 3.6 2.6.3 1.1 1 2 1.5 2 .6 0 .7.7.4 1.6-.5 1.3-.4 1.4.7.5.8-.6 2.5-1.2 3.9-1.3 2-.2 2.4-.6 2-2.3-.5-1.8-.4-1.9 1.3-.5 1.7 1.4 1.8 1.3 1.2-.3-.8-2 .9-4.2 3.3-4.2.9 0 1.9-1.5 2.4-3.8.9-3.6 1.2-3.8 3.8-3.3 2 .4 3 .1 3.4-.9.9-2.3 3-1.8 5.3 1.1 1.5 1.9 3.2 2.7 5.8 2.9 2.1.1 5 .6 6.6 1 3 .8 3.4-.2 1.6-3.7-1.4-2.5-.7-3.2 2-1.9 1.2.6 3 1.6 4.1 2.1 1.4.7 2 .7 2-.1 0-.5.8-.9 1.8-.7 2.5.4 4.2-1 4.2-3.5 0-2.8 3.5-3.2 10.4-1.1 3.5 1 5.3 1.1 6.2.3.7-.6 4-1.1 7.3-1.3 3.3-.1 6.3-.5 6.7-.9 1.1-1.1 11.3-.8 13.5.4 1.8.9 1.9.8 1.1-.8-.5-1-.7-3.5-.5-5.6.5-3.6 1.6-4.7 2.8-2.7.3.5 1.6 1 2.9 1 1.9 0 2.2-.5 2.1-3.9 0-2.1-.9-5-1.8-6.4-2.4-3.7-2.1-4.7 1.3-4.7 1.9 0 3-.5 3-1.4 0-.7.8-1.6 1.9-1.9 2.5-.6 3.7-5.8 1.8-7.2-.9-.6-1.8-2.8-2.2-4.8-.6-3.1-.4-3.7 1-3.7s1.6-.5 1-2.7c-.4-1.6-1.2-3.4-1.8-4.1-.6-.7-1.2-2.3-1.3-3.6-.3-2.6-5.3-8.6-7.1-8.6-.7 0-1.3-1-1.3-2.1 0-1.3-1.8-3.7-4.4-6-4.1-3.6-4.4-4.2-4.4-8.8 0-4.3.3-5 2.3-5.5 1.3-.3 3.2-2.2 4.4-4.1 1.9-3.3 2-3.8.6-6.5-.9-1.8-1.1-3.1-.5-3.5 3.1-1.9-2.9-11.3-9.3-14.6-2.1-1.1-3.5-2.4-3.2-2.9.3-.4 0-1-.6-1.2-.7-.2-.7-1.1.2-3 1.5-3.3.6-5.8-2-5.8-1.1 0-3.6-.8-5.6-1.7-3.5-1.7-4.5-1.5-4.9.9-.4 2.6-2.7 5.8-4.2 5.8-.8 0-1.3-.4-.9-.9 1-1.6-1.2-2.1-2.5-.6-.7.8-1 2.6-.6 4 .9 3.5-.9 6.5-3.9 6.5-1.4 0-2.5.5-2.5 1.1 0 .8-.4.8-1.3.1-1-.9-1.8-.6-3.1.9-1.2 1.5-2.1 1.8-2.8 1.1-.7-.7-1.6-.7-2.8 0-1.4.9-2.7.6-6.1-1.4-4.3-2.5-4.5-2.6-6.7-.8-2.9 2.4-11 1.8-18.4-1.4-2.1-.9-4.9-1.6-6.4-1.6-3.4 0-6.8-4.3-7.2-9-.3-4.6-2.3-5.9-9.1-5.9-3.2.1-5.7-.3-5.9-1-1.3-3.8-7.4-5.6-8.6-2.5-.6 1.6-.8 1.6-2.4 0-2.4-2.1-4.3-2.1-3.5 0 .5 1.5.3 1.5-2-.1-2.9-1.8-3.3-3-1.7-4 .6-.3 1-1.3 1-2.1s-.4-1.3-.9-1c-.5.3-1.1-.1-1.5-.9-.3-.8-.1-1.7.4-2 1.6-1 1.2-8.1-.5-9.5-.8-.7-1.5-2-1.5-3 0-.9-.9-2.5-2-3.5s-2-2.2-2-2.6c0-1.4 5.4 1.3 7.8 3.9 1.6 1.7 2.7 2.1 3.4 1.4 1.2-1.2.2-3.2-1.7-3.2-1.7 0-2.9-3.5-1.9-5.2.5-.7.7-2.8.5-4.6-.2-3 0-3.3 1.7-2.7 1.7.5 2.4-.1 3.7-2.9.9-1.9 1.4-4 1-4.7-.5-.7-.3-1 .6-.7 1.9.7 6.9-2.3 6.9-4.1 0-.8-1-2.5-2.2-3.8-1.8-1.9-1.9-2.3-.5-2.3 1.2 0 1.6-.8 1.5-2.8-.3-3.7-1.7-4.4-4.1-2.1-2.5 2.3-5.5 2.5-6.4.3-.3-.8-1.6-1.9-2.9-2.4-2.3-.9-2.3-1.2-1.2-9.5.2-1.4-.8-2.4-3.7-3.8-2.7-1.3-4-1.6-4.3-.8-.3.9-.7.9-1.8 0s-1.4-.7-1.4 1c0 1.9-.4 2.1-3.3 1.6-2.4-.5-3.7-.2-4.6.9-1.9 2.3-5.5 2-8.9-.9-1.7-1.4-4-2.5-5.3-2.5-1.3-.1-3.5-.7-4.9-1.5-1.4-.8-3.6-1.4-5-1.5-1.7 0-3-1-4.3-3.1-1-1.8-2-2.9-2.4-2.6-.3.4-1.9-.1-3.5-.9-1.5-.8-3.4-1.3-4.1-1.2-1.5.3-9.3-8-8.4-8.9.4-.3-.5-1.9-1.9-3.6-2.1-2.5-2.5-3.9-2.2-7.1.3-2.3.8-4.8 1.2-5.7.4-1-.2-2.7-1.7-4.5-1.3-1.6-2.2-3.4-2-4 .2-.6-.3-1.7-1.2-2.4-.8-.7-1.5-1.7-1.5-2.2 0-.5-1.2-2.5-2.6-4.3-2.3-3.1-2.4-3.6-1.1-5 .9-.8 2.4-1.5 3.5-1.5 1.5 0 1.8-.5 1.5-2.3-.4-1.8.4-3 2.9-4.9 1.8-1.4 4.3-2.8 5.6-3.2 1.2-.4 2.2-1.5 2.2-2.6 0-1.4.9-2 3.3-2.2 2.9-.3 3.2-.6 2.9-3.6-.2-2.6.2-3.2 1.7-3.2 1.1 0 2.1-.9 2.5-2.2.5-2.2.6-2.2 2-.3 2.1 2.8 2 1-.1-2.7-1.7-2.8-1.7-3 0-3.9 1-.6 1.7-2.2 1.7-3.8 0-1.7.7-3.1 1.6-3.5 1.9-.7 1.6-6.2-.4-5.8-1.6.3-7.2-2.6-7.2-3.7 0-.5-.9-.7-2-.4-1.2.3-2.8-.4-4.4-2.2-1.3-1.4-3.3-2.5-4.3-2.4-4.2.5-6.9-1.2-9.6-6.4-2.6-4.7-2.7-5.5-1.5-7.8l1.3-2.5 2.5 2.4c1.4 1.3 3.5 2.8 4.8 3.3 2.2.9 3.1 2.9 1.1 2.9-1.7 0 4.1 6.8 7 8.3 3.3 1.7 7 1.5 8.1-.2 1.2-2 3.2-.3 2.5 2-.9 2.7 1 4.7 5.6 5.9 2.2.6 3.7 1.5 3.4 2-.3.5 0 1.8.7 2.9 1 1.7.9 2.4-1.1 4.5-1.4 1.5-1.9 2.6-1.2 3.1.8.4.6 1.5-.4 3.5-.8 1.6-1.5 3.6-1.5 4.5 0 .9-.6 1.8-1.4 2.1-1.7.7-1.9 8.1-.3 9.1.6.4.8 0 .4-1-.3-.9.1-2.1 1.1-2.9 1.5-1.2 1.6-1.1.3.4-1.1 1.5-1.1 1.8.1 1.8.8 0 2-1.1 2.7-2.4l1.3-2.4 3.7 2.1c2 1.2 3.9 2.6 4.3 3.2.4.5.8.7.8.3 0-.4 1.5-.1 3.4.7 3.4 1.4 3.6 1.4 6.5-1.5 1.6-1.7 3.4-3 4-3 1.8 0 2.3-2 .9-3.7-.9-1.2-.9-1.5 0-.9 2 1.2 1.4.1-1.8-3.3-1.7-1.7-3.7-3.1-4.6-3.1-1 0-1.4-.6-1-1.5.3-.8-.1-1.8-.8-2.2-.7-.5-1.5-1.9-1.8-3.3-.4-2.4-.2-2.5 4.4-2.5 2.6-.1 4.9.3 5 .7 0 .4.1 1.4.2 2 .1.7.8 1.9 1.6 2.6 1.2 1.1 1.2 1.4.2 1.9-1 .4-.8 1.1.7 2.7 1.6 1.6 2.9 2.1 5.1 1.8 1.7-.2 3-.9 3-1.4 0-.6 1.1-.7 2.4-.4 1.6.4 2.6.1 3-.9.3-.8 1.2-1.5 2.1-1.5.8 0 1.5-.5 1.5-1.1 0-.6 2.1 1 4.6 3.5 2.8 2.9 5.4 4.6 6.9 4.6 1.3 0 2.7.4 3 1 .3.5 1.9 1 3.4 1s3.6.9 4.7 2.1c5.4 5.9 7.7 7.9 9.1 7.9.8 0 1.2-.4.9-.9-.8-1.2 4.3-.5 6 1 1.1.9 1.8.8 3.2-.5 1-.9 2.6-1.6 3.5-1.6 1.1 0 1.7-.8 1.7-2.5 0-2.1.5-2.5 2.9-2.5 1.7 0 3.3-.5 3.6-1 .3-.6 1.5-1 2.6-1 2.3 0 2.4-.4.2-3.7l-1.7-2.6 2.9.7c1.7.4 3.7 1.4 4.5 2.1 1 .9 2.1 1 3.1.5 1-.6 3.2-.1 6.5 1.4 7.2 3.3 10.4 4 10.4 2.1 0-2.1 2.3-1.9 5.4.6 1.5 1.1 3.3 1.9 4 1.6 1.5-.6 4.9 2.7 5.9 5.6.4 1 1.1 1.5 1.7 1.2.5-.3 1 0 1 .7 0 3.9 6.9 4 9.7.1 1-1.3 1.7-1.4 3.7-.5 1.8.8 2.8.7 4.4-.3 1-.8 2.3-1.1 2.7-.7.4.4.4-.9 0-2.9-.4-2.1-.3-3.9.3-4.3.6-.3.8-1.6.4-2.8-.4-1.7-.2-2 1.2-1.5 2.3.9 5.6-2.5 4.5-4.6-.7-1.1-.1-2.2 2-3.9 2.5-2.2 2.7-2.6 1.2-3.6-1.3-.9-1-1.1 1.9-1.3 1.9-.1 4.4-.1 5.6 0 1.2.1 3.4-.5 5-1.4 1.6-.8 3.4-1.5 4.1-1.5.6 0 1.6-1.3 2.1-2.9.8-2.2 1.8-3 4.7-3.5 2.5-.5 3.5-1.2 3.2-2.1-.4-.8.4-1.5 2.1-1.8 2.1-.5 3.2 0 4.7 1.8 2.5 3 3.5 3.2 3.5.5 0-1.5.7-2 2.5-2 2.5 0 2.5-.2 2.2-5.3-.2-2.8.1-6.3.8-7.7.6-1.4 1-3.5.9-4.8 0-1.2.3-2.2.7-2.2 1.4 0 5-8 4.2-9.3-.4-.7.2-.5 1.2.3 1.7 1.4 1.8 1.3 1.2-.8-.4-1.6-.2-2.2.6-1.9 4.6 1.9 4.7 1.9 4.7 0 0-1.1.9-2.8 2-3.8s2-3.1 2-4.8c0-2.2.4-2.8 1.5-2.3 1.5.5 1.9-.4 1.6-3.7-.3-2.3 1.4-2.2 3.9.3 1.2 1.2 3.2 2.5 4.5 3 2.1.8 2.5.7 2.5-1 0-1 .8-2.1 1.8-2.3 1.6-.4 1.6-.5 0-.6-1 0-1.8-.5-1.8-1.1 0-.5-.3-.9-.7-.9-2.1.3-2.2-.3-.3-2.3 1.2-1.3 1.6-2.4 1-2.6-.5-.2-.8-.7-.5-1.2.3-.4-.2-1.3-1-2s-1.5-2.3-1.5-3.6c0-1.2-.4-2.5-.9-2.8-.5-.3-1.2-2.3-1.6-4.3-.4-2.1-1.3-5-2.1-6.5-1.1-2.1-1.2-3.3-.4-4.8.8-1.6.4-2.5-2.3-5.2-1.9-1.8-5.6-4.4-8.3-5.8-2.7-1.4-5.4-3.1-6-3.9-.6-.8-1.8-1.1-2.7-.8-1.2.5-1.8-.1-2.3-2.1-.3-1.5-1.2-4.4-2.1-6.4-1.5-3.5-1.6-3.6-3.8-2.2-2.9 1.9-8.5 1-13.5-2.1-1.9-1.2-4.2-2.4-5-2.8-1.2-.4-1.1-.6.3-.6 2.4-.1 2.1-1.8-.8-3.7-2-1.3-2.3-2-1.4-3.5.7-1.4.6-2.6-.6-4.7-1.4-2.4-2.2-2.7-6.6-2.7-3.3 0-4.9-.4-4.9-1.2 0-.7-1.1-1.3-2.5-1.3-2.3 0-3.1-1.3-2.6-4.3 0-.4-.3-.7-.9-.7-1.6 0-1.1-2.7.6-3.4.9-.3 1.4-1.3 1.1-2-.9-2.2 1.8-2.7 4.4-.9 1.2.9 1.9 1.1 1.5.5-.8-1.3-5-3.6-8.1-4.5-1.1-.3-3.3.3-5 1.2zm32.5 132.6c-1 1.2-1.1 1.8-.2 2.4.7.4.8 1.2.2 2.1-.7 1.1-1 1.2-1 .2 0-.7-.8-1.2-1.7-1.1-3.4.3-4.3-.1-4.3-1.9 0-1.3.2-1.4.9-.3.6.9 1.1 1 1.5.2.4-.6 1.2-.8 1.8-.5.7.4.7 0-.1-1.3-1.4-2.8.7-5 2.8-2.9 1.2 1.3 1.2 1.8.1 3.1zm-152 202.5c0 1.2-3.6 1.8-5.1.9-1.2-.8-1.2-1 0-1.8 1.5-.9 5.1-.3 5.1.9zm21.7 28c-.1 1.1-.7 2-1.4 2-1.6 0-1.6-.7 0-2.5 1.6-1.9 1.6-1.8 1.4.5zm3.7.4c1.4-.5 4.6 2.1 4.6 3.7 0 .5-.7.9-1.6.9-1.7 0-5.4-3.8-5.3-5.5 0-.6.3-.5.5.2.3.7 1.1 1 1.8.7zm-19.9 5.6c-.9 1.4-2.5-.5-2.5-3 0-1.2.3-1.2 1.6.2.9.9 1.3 2.1.9 2.8zM361.98 90.071c-1.5 1.4-.6 4 1.9 5.1 1.4.7 2.3.8 1.9.2-.4-.6.5-1 1.9-1 1.7 0 2.6-.6 2.6-1.6 0-.8-.4-1.3-.9-1-.5.3-1.4-.1-2.1-.9-1.3-1.6-4.2-2-5.3-.8z"/><path d="M373.98 95.571c-.3 1-1.4 1.8-2.6 1.8-1.2 0-2.4.6-2.7 1.4-.4 1.2-1 1.2-3.5-.1-1.6-.8-2.9-2-2.9-2.6-.1-.7-1 .6-2.1 2.7-2.8 5.3-1.6 8.1 4 9 4.3.6 4.7 1.1 3.2 3.5-.6.9-.4 2.3.6 3.8 1.2 1.9 2.4 2.3 6.1 2.3 3.8 0 5 .5 7 2.7 1.6 1.9 2.5 2.4 2.9 1.5.7-1.9 8.2 6.8 8.3 9.7 0 2.9 2.6 5 6.3 5.1 2.1 0 2.7.5 2.7 2.3 0 3.1 11.3 12.8 15.6 13.3 2.1.2 2.2 0 1.3-1.8-1.6-3-.5-3.1 2.6-.2 1.7 1.6 3 2.2 3.4 1.5.5-.7 1.8-.8 4.1-.1 3.9 1.1 4.8.7 3.1-1.4-.9-1.1-1-2.4-.2-5 .5-2.2.6-3.6 0-3.6-.5 0-.9-2.2-.9-4.8 0-2.7-.6-5.5-1.2-6.4-2.3-2.7-8.1-6.3-8.5-5.1-.3.8-1.4.8-3.5.2-4.7-1.3-8-3.8-7.4-5.5.7-1.9-1.9-8.4-3.3-8.4-.6 0-1.1-1.3-1.1-2.9 0-3.5-1.7-4.3-6.5-3-3.3.9-4 .8-6.3-1.3-1.5-1.3-3-2.7-3.3-3.1-.3-.5-1.9-1-3.5-1.2-1.6-.1-3.7-1.4-5-3.1-2.6-3.2-6-3.9-6.7-1.2z"/><path d="M431.28 148.171c0 .5.7.9 1.5.9s1.2-.4.9-.9c-.3-.4-.9-.8-1.5-.8-.5 0-.9.4-.9.8zM436.28 152.771c0 .7-.6 1.9-1.4 2.5-1.1 1-1.2 1.9-.4 4.2.5 1.6 1.3 2.9 1.7 2.9 1.8 0 .7 4.2-1.5 5.7-2.2 1.4-2.3 1.8-1 2.5.9.5 1.6 1.8 1.6 2.9 0 1.1 1 2.3 2.4 2.9 1.3.5 2.9 1.7 3.5 2.7.9 1.6 1 1.6 1.1.1 0-1.6.2-1.6 2.9 0 1.6.9 2.7 2.1 2.4 2.8-.2.7.5 1.9 1.7 2.7 1.1.8 2 1.8 1.8 2.3-.1.5.3 1.9 1.1 3.2.7 1.3 1 2.8.8 3.5-.2.7 0 2.1.5 3.1.9 1.6.7 1.8-1.2 1.3s-2.1-.3-1.5 1.6c.3 1.2 1.1 4.2 1.7 6.7.7 2.7 2 5.2 3.7 6.4 5.3 4.1 7.3 6.7 6.8 8.6-.7 2.7 2.4 5.1 8.7 6.5 5 1.2 5.5 1.1 5.9-.6.4-1.6 1-1.7 4.1-.8 2.8.8 4.1.6 5.9-.6 1.4-.9 3.2-1.3 4.2-.9 1.3.5 1.6.4 1.1-.4-.4-.7-.3-1.2.3-1.2.5 0 1.3.4 1.6 1 1.1 1.7 2.4 1.1 3.1-1.5.4-1.8 1.3-2.5 2.9-2.5 1.3 0 2.7.4 3 1 1.1 1.8 5.4 1.1 7.8-1.3 1.2-1.2 2.1-2.5 2-2.8-.1-.4.9-1.9 2.2-3.3 2.2-2.4 2.4-3.2 1.8-8.6l-.6-6h-3.9c-2.2 0-4.8-.4-5.8-1-1.3-.7-1.9-.6-2.3.4-.3.8-2 1.7-3.7 2.1-2 .4-3.4 1.5-4 3.1-1.2 3.2-2.8 3-4.1-.3-.8-2.1-.7-2.8.5-3.5.8-.5 1.3-1.5 1-2.3-.3-.8.1-2.2 1-3 .9-.9 1.7-1.3 1.7-.8.1.4.5-1 .8-3.1.4-2.4 1.4-4.3 2.6-5 1.1-.6 2.3-1.4 2.6-1.9.3-.4 2.9-.8 5.7-.8 5.6-.2 6.2-.7 3.4-3.2-1.1-1.1-2.2-1.3-3.2-.7-.9.6-2.5.3-4.5-1-1.6-1-4.2-1.9-5.7-2-1.6-.1-4-.2-5.5-.3-1.6-.1-3.7-1.3-4.8-2.6-1.7-1.9-3.5-2.5-9.5-3.1-7.8-.8-11-1.7-11-3 0-.4-2-2.9-4.5-5.6-2.5-2.6-4.5-4.2-4.5-3.6 0 1.5-4.3.9-4.8-.6-.2-.8-.8-.7-1.8.3-1.3 1.3-2.2 1.1-7.5-1.6-3.2-1.7-5.6-3.5-5.3-4 .3-.5-.4-.9-1.5-.9-1.2 0-2.1.6-2.1 1.4zM517.28 197.571c0 .7.7 2.1 1.4 3.1 1.3 1.6 1.4 1.6 1.8-.7.3-1.4.1-2.3-.3-2-.5.3-.9 0-.9-.5 0-.6-.4-1.1-1-1.1-.5 0-1 .6-1 1.2zM523.28 200.371c0 .5.5 1 1.1 1 .5 0 .7-.5.4-1-.3-.6-.8-1-1.1-1-.2 0-.4.4-.4 1zM492.28 230.071c0 1.4.3 2.3.7 2 .3-.4 1.2-.2 2 .4 1.4 1.2 1.6.6.7-2.9-.9-3.1-3.4-2.8-3.4.5zM172.28 317.371c0 .5.5 1 1 1 .6 0 1-.5 1-1 0-.6-.4-1-1-1-.5 0-1 .4-1 1zM163.58 321.171c-.1 2 0 4.7.3 5.9.5 2.5 3.2 3.1 4 .9.3-.8 1.6-1.7 3-2 3.4-.9 3-2.2-1.1-3.6-1.9-.6-3.7-2-4-3.1-1-3-2-2.2-2.2 1.9zM73.78 419.371c.3.5 1.1 1 1.6 1 .6 0 .7-.5.4-1-.3-.6-1.1-1-1.6-1-.6 0-.7.4-.4 1zM284.88 444.871c.4.8 1 1.5 1.5 1.5s.9-.7.9-1.5-.7-1.5-1.5-1.5c-.9 0-1.2.6-.9 1.5zM289.08 444.571c.7.7 1.2 2.5 1.2 4s.5 2.8 1 2.8c1.3 0 1.3-3.6 0-6.1-.6-1-1.6-1.9-2.2-1.9-.9 0-.9.3 0 1.2zM287.28 453.371c0 .5.5 1 1.1 1 .5 0 .7-.5.4-1-.3-.6-.8-1-1.1-1-.2 0-.4.4-.4 1z"/></g></svg>