<?xml version="1.0" standalone="no"?>
<!DOCTYPE svg PUBLIC "-//W3C//DTD SVG 20010904//EN"
 "http://www.w3.org/TR/2001/REC-SVG-20010904/DTD/svg10.dtd">
<svg version="1.0" xmlns="http://www.w3.org/2000/svg"
 width="723.339350pt" height="1009.669246pt" viewBox="0 0 723.339350 1009.669246"
 preserveAspectRatio="xMidYMid meet">
<metadata>
Created by potrace 1.15, written by Peter Selinger 2001-2017
</metadata>
<g transform="translate(-669.205187,1497.883455) scale(0.100000,-0.100000)"
fill="#222222" stroke="none">
<path d="M8672 14943 c5 -37 4 -41 -16 -41 -39 0 -61 -7 -72 -21 -7 -8 -18
-11 -28 -8 -13 5 -19 1 -23 -12 -3 -11 -24 -32 -46 -48 -23 -15 -44 -31 -47
-35 -5 -6 -65 -4 -65 2 0 8 -56 7 -60 -1 -11 -17 -42 -9 -58 14 -16 22 -16 22
-16 1 -1 -12 -8 -27 -16 -34 -8 -7 -15 -19 -15 -26 0 -8 -8 -14 -18 -14 -11 0
-27 -9 -38 -21 -23 -26 -69 -50 -78 -42 -3 4 -17 0 -31 -7 -22 -12 -28 -11
-48 8 -30 28 -73 29 -80 2 -3 -12 -14 -21 -29 -21 -70 -4 -84 -3 -95 11 -10
13 -15 13 -34 2 -19 -12 -27 -10 -71 17 -27 17 -59 31 -70 31 -12 0 -40 -20
-65 -45 -23 -25 -48 -45 -54 -45 -7 0 -8 -11 -4 -29 4 -17 2 -32 -5 -36 -6 -4
-10 -26 -9 -49 1 -22 -1 -48 -4 -56 -3 -8 -7 -22 -10 -31 -3 -9 -19 -19 -37
-22 -25 -5 -30 -11 -25 -25 3 -11 -1 -25 -10 -32 -9 -8 -13 -21 -9 -32 9 -29
-27 -97 -53 -98 -16 0 -20 -5 -16 -20 4 -14 0 -20 -12 -20 -21 0 -95 -61 -95
-78 0 -17 -55 -73 -64 -65 -3 4 -6 1 -6 -5 0 -16 15 -15 30 3 10 12 16 12 39
2 32 -16 61 -11 62 11 0 11 2 12 6 5 2 -7 10 -13 16 -13 22 -1 63 -45 81 -87
11 -24 27 -43 39 -47 26 -6 37 2 18 14 -20 12 -6 40 20 40 18 0 19 2 9 15 -10
12 -9 16 4 21 9 3 14 10 11 14 -3 5 -1 11 4 14 6 4 6 19 0 39 -12 41 -12 40 6
33 8 -3 15 0 15 7 0 7 7 4 15 -6 12 -16 11 -23 -4 -50 -9 -18 -17 -48 -16 -67
2 -45 32 -103 50 -97 9 4 11 -1 8 -14 -3 -10 -11 -19 -19 -19 -17 0 -37 -37
-30 -56 4 -10 -2 -14 -19 -14 -32 0 -75 20 -75 35 0 7 -12 20 -26 30 -15 10
-23 12 -19 4 6 -9 4 -11 -8 -6 -9 3 -17 2 -19 -2 -2 -4 -22 -5 -45 -3 -36 3
-47 10 -73 45 -16 22 -31 45 -34 51 -7 19 -33 -25 -34 -57 0 -16 8 -46 18 -65
18 -33 18 -37 4 -53 -9 -10 -22 -15 -30 -12 -10 4 -10 -4 4 -36 10 -23 24 -41
33 -41 17 0 44 -53 54 -107 4 -22 3 -33 -5 -33 -6 0 -8 -5 -5 -10 4 -6 11 -8
16 -5 5 4 9 0 9 -8 0 -8 -6 -17 -14 -20 -17 -7 -11 -41 10 -58 12 -10 13 -8 8
7 -4 11 10 2 32 -21 22 -22 56 -54 76 -70 33 -27 68 -99 39 -81 -6 4 -11 1
-11 -8 0 -9 -4 -16 -10 -16 -5 0 -15 -20 -21 -45 -6 -25 -15 -48 -20 -51 -10
-6 -12 -48 -3 -57 4 -3 16 1 29 9 16 11 21 21 17 41 -4 23 -2 25 22 21 14 -3
26 -1 26 4 0 5 9 6 20 3 30 -10 26 30 -5 51 -30 20 -33 34 -4 27 28 -8 109 35
109 58 0 12 6 18 18 17 35 -4 93 15 103 34 9 16 17 19 45 13 30 -5 34 -3 34
15 0 25 5 25 46 -1 25 -15 34 -28 34 -47 0 -19 11 -34 35 -52 19 -14 34 -32
33 -40 -2 -24 13 -50 28 -50 8 0 14 -5 14 -10 0 -17 -32 -60 -40 -55 -10 6
-20 -47 -12 -60 4 -5 8 -18 9 -29 3 -15 1 -17 -11 -6 -18 14 -36 5 -36 -17 0
-10 -6 -13 -16 -9 -17 7 -14 -13 13 -71 12 -26 12 -35 1 -52 -14 -23 -38 -27
-56 -9 -18 18 -32 -2 -34 -45 -1 -43 -18 -51 -18 -9 0 35 -8 45 -25 29 -9 -8
-10 -18 -4 -29 8 -16 5 -18 -26 -18 -19 0 -35 -5 -35 -11 0 -6 -7 -9 -15 -5
-9 3 -15 0 -15 -9 0 -17 -61 -65 -82 -65 -17 0 -31 -26 -22 -41 3 -5 0 -9 -5
-9 -21 0 -11 -49 13 -65 15 -10 22 -23 19 -33 -2 -10 0 -28 5 -41 8 -23 10
-21 31 24 12 26 20 54 17 62 -4 10 -1 13 14 8 27 -9 72 23 65 46 -5 14 0 18
22 21 17 2 32 11 38 26 11 25 25 29 25 7 0 -8 4 -15 8 -15 5 0 14 -11 20 -25
12 -27 52 -35 52 -11 0 22 23 24 44 4 25 -23 36 -23 36 0 0 15 8 18 43 18 36
-1 42 -4 39 -21 -2 -11 -8 -21 -13 -23 -5 -2 -4 -12 2 -24 6 -11 12 -36 14
-55 3 -33 2 -35 -26 -31 -24 4 -27 2 -16 -10 10 -13 9 -14 -10 -4 -27 15 -36
15 -28 2 10 -17 -16 -41 -36 -35 -11 4 -19 1 -19 -6 0 -8 -4 -8 -12 -2 -9 6
-22 5 -38 -3 -14 -8 -21 -14 -15 -14 5 0 -1 -7 -13 -16 -13 -9 -36 -14 -52
-12 -19 3 -26 0 -23 -8 6 -17 -51 -46 -105 -54 l-44 -7 5 30 c3 24 2 27 -7 15
-6 -8 -16 -13 -23 -11 -6 2 -21 -5 -33 -17 -29 -29 -82 -37 -110 -17 -12 9
-28 13 -36 10 -9 -3 -18 6 -25 23 -25 68 -42 94 -60 94 -10 0 -17 6 -16 13 2
6 -3 -3 -12 -21 -10 -24 -19 -32 -32 -29 -11 3 -16 0 -13 -8 3 -7 1 -16 -5
-20 -6 -3 -11 -24 -11 -45 0 -46 -18 -60 -70 -53 -37 5 -52 -4 -75 -51 -6 -11
-19 -20 -28 -20 -23 2 -21 -7 7 -34 16 -14 26 -18 28 -10 4 12 51 -23 97 -74
14 -16 33 -28 42 -28 8 0 64 -15 123 -34 108 -35 166 -42 166 -21 0 7 11 10
30 7 19 -3 30 0 30 8 0 6 8 9 19 5 10 -3 24 1 31 10 11 13 10 18 -7 30 -21 15
-38 55 -22 55 4 0 6 6 3 14 -3 8 -1 17 5 21 16 9 13 42 -5 70 -17 26 -8 33 24
16 19 -11 73 -25 85 -23 4 1 7 -4 7 -10 0 -7 12 11 26 40 20 43 30 53 47 51
12 -2 33 3 45 10 13 7 35 10 48 7 16 -4 24 -2 24 7 0 14 43 17 56 5 4 -4 13
-3 20 3 10 8 22 8 43 1 25 -9 32 -7 54 16 13 15 27 35 31 45 6 18 9 17 51 -8
44 -25 90 -31 90 -10 1 6 7 20 15 32 11 18 17 20 29 10 12 -10 13 -9 6 2 -6
11 -4 13 11 7 10 -5 27 -11 37 -13 12 -4 16 -12 12 -24 -4 -12 3 -28 19 -44
35 -35 36 -86 2 -104 -13 -8 -29 -10 -35 -7 -7 5 -11 -6 -11 -31 0 -21 -1 -56
-4 -78 -2 -22 1 -43 7 -46 5 -4 10 -24 10 -45 -1 -60 -2 -64 -17 -64 -8 0 -18
-9 -21 -20 -3 -11 -10 -20 -15 -20 -4 0 -7 -8 -6 -17 0 -11 -5 -17 -14 -14 -8
2 -26 7 -40 10 -40 10 -88 44 -99 68 -9 19 -14 21 -36 13 -21 -8 -25 -7 -25
10 0 11 -7 20 -15 20 -17 0 -20 -16 -5 -25 6 -4 8 -15 5 -26 -6 -17 -4 -18 22
-8 l28 10 -22 -20 c-12 -12 -25 -21 -28 -21 -22 0 -38 -36 -38 -85 0 -38 -5
-60 -18 -74 -10 -10 -15 -22 -12 -25 4 -3 -2 -6 -13 -6 -11 0 -25 -9 -32 -20
-8 -13 -23 -20 -41 -20 -17 0 -33 -5 -37 -11 -3 -6 -17 -8 -30 -5 -13 4 -24 4
-24 2 0 -13 62 -95 75 -100 21 -8 7 -36 -17 -36 -17 0 -18 -3 -8 -15 6 -8 20
-30 30 -49 17 -35 17 -36 -6 -61 -24 -26 -28 -37 -25 -63 1 -8 -7 -16 -17 -19
-23 -6 -41 -71 -22 -83 14 -9 2 -40 -16 -40 -8 0 -14 -4 -14 -10 0 -5 7 -10
15 -10 9 0 18 -7 21 -15 4 -9 13 -14 21 -13 7 2 22 -10 31 -25 15 -24 15 -29
3 -37 -12 -7 -10 -11 10 -20 13 -6 34 -26 46 -45 14 -21 28 -32 37 -29 8 3 17
1 20 -4 3 -5 17 -7 31 -4 24 4 30 -3 26 -34 -1 -7 5 -14 14 -18 9 -3 15 0 15
10 0 11 6 14 16 10 9 -3 18 -6 20 -6 2 0 4 -9 4 -20 0 -11 6 -19 13 -17 8 1
13 -15 15 -52 2 -39 8 -59 21 -68 10 -7 22 -24 25 -37 4 -17 11 -23 21 -20 26
10 45 -16 45 -62 0 -37 -3 -44 -20 -44 -31 0 -13 -27 26 -40 19 -6 34 -17 34
-24 0 -7 10 -18 23 -24 14 -7 17 -11 7 -12 -10 0 -6 -5 9 -14 16 -9 25 -24 28
-46 2 -18 9 -40 16 -48 9 -12 9 -16 -1 -19 -6 -3 -9 -9 -6 -14 3 -6 11 -4 17
5 9 11 16 13 27 6 13 -9 13 -11 0 -20 -13 -9 -13 -10 0 -10 15 0 57 -40 42
-40 -4 -1 4 -7 18 -15 17 -9 29 -10 37 -4 8 7 15 4 23 -10 6 -12 18 -21 27
-21 9 0 25 -7 35 -17 10 -9 30 -18 45 -19 49 -5 148 -141 128 -175 -4 -6 -18
-8 -34 -4 -24 6 -25 5 -9 -11 24 -25 72 -11 62 18 -5 18 -3 20 19 14 15 -3 29
-1 36 8 10 12 21 9 69 -14 49 -24 59 -26 73 -14 8 8 21 14 29 14 10 0 10 3 0
15 -10 12 -10 15 4 15 9 0 16 6 16 14 0 11 9 13 34 9 29 -4 34 -2 39 18 6 24
6 24 26 4 17 -17 26 -39 30 -76 1 -4 9 -6 19 -5 11 1 16 -5 14 -18 -2 -10 1
-15 6 -12 11 7 25 -21 17 -34 -11 -18 30 -21 43 -3 7 10 18 17 23 16 5 -2 9 1
9 6 0 5 10 11 23 13 14 2 27 15 36 36 9 19 22 32 32 32 15 0 17 5 10 22 -9 24
8 68 27 68 6 0 12 5 12 11 0 18 48 70 55 59 7 -12 75 30 75 48 0 17 10 15 25
-4 9 -14 16 -14 33 -5 31 16 99 -3 126 -36 57 -70 64 -74 101 -67 47 8 95 54
95 89 0 19 4 26 14 22 10 -4 12 0 9 14 -5 19 3 23 40 19 15 -1 17 3 12 22 -7
21 -5 21 26 -8 19 -18 45 -35 58 -39 13 -4 41 -19 62 -34 31 -22 39 -35 50
-85 8 -34 21 -63 31 -70 10 -6 18 -16 18 -22 0 -7 7 -14 15 -18 9 -3 15 0 15
9 0 14 46 15 80 2 23 -8 71 -18 115 -24 21 -2 58 -8 81 -12 38 -7 41 -6 38 14
-1 13 -7 32 -14 45 -15 27 -6 53 17 48 10 -2 25 4 33 14 14 15 37 22 67 19 12
-1 11 -79 -1 -99 -8 -14 35 -3 54 14 8 7 18 13 23 13 4 1 7 4 8 9 0 4 9 10 21
15 17 6 18 10 8 22 -7 8 -8 15 -3 15 5 0 15 12 22 26 10 22 9 30 -3 43 -11 12
-12 26 -6 61 13 64 12 80 -4 80 -15 0 -29 73 -15 78 16 6 -11 42 -31 42 -11 0
-20 3 -21 8 -1 4 -2 23 -3 42 -2 19 -10 48 -18 64 -14 26 -14 32 1 57 14 26
14 29 -4 48 -12 15 -21 18 -26 10 -5 -8 -8 -8 -13 0 -4 6 0 14 8 17 12 5 13
10 5 25 -8 15 -6 21 6 25 10 4 13 13 10 25 -4 11 -2 19 4 19 20 0 11 34 -19
80 -35 53 -37 64 -10 57 10 -3 21 0 23 7 4 10 18 -16 30 -55 3 -9 18 -20 33
-23 22 -6 33 -2 58 23 17 17 25 31 19 31 -7 0 -10 7 -6 16 4 12 -1 15 -23 12
-23 -2 -30 1 -32 19 -2 13 6 28 20 38 23 17 23 17 -13 12 -28 -4 -50 2 -94 25
l-57 30 4 -36 c4 -37 -4 -44 -32 -26 -9 5 -19 5 -27 -2 -10 -8 -18 -6 -31 6
-10 9 -31 16 -45 16 -22 0 -26 4 -25 25 1 14 6 25 10 25 4 0 8 5 8 10 0 6 -11
10 -25 10 -14 0 -25 -4 -25 -10 0 -5 -5 -10 -11 -10 -6 0 -8 8 -4 19 6 21 -19
41 -52 41 -10 0 -26 9 -36 21 -12 13 -24 18 -37 14 -26 -8 -60 11 -60 35 0 11
-5 20 -12 20 -6 0 -20 8 -30 17 -11 10 -29 18 -41 18 -17 0 -23 7 -25 30 -3
23 -12 34 -38 46 -19 9 -34 12 -34 7 0 -6 -9 -8 -19 -5 -13 3 -21 -1 -23 -10
-2 -12 -9 -10 -32 8 -16 13 -48 26 -70 29 -30 4 -44 11 -51 28 -7 16 -16 21
-29 18 -10 -2 -30 0 -45 6 -145 59 -170 71 -165 80 9 14 -22 54 -59 77 -26 16
-34 27 -30 41 6 23 32 33 59 24 18 -7 18 -6 2 12 -17 19 -18 23 -18 47 0 8
-11 19 -24 25 -24 11 -63 58 -54 67 2 2 28 -7 57 -20 37 -18 58 -22 70 -16 19
11 20 45 3 78 -7 12 -12 31 -12 42 0 22 -9 30 -40 36 -11 2 -30 11 -42 21 -13
9 -16 14 -7 11 12 -4 14 1 11 24 -2 16 -10 29 -18 29 -17 0 -44 39 -44 65 0
30 -15 47 -40 49 -18 1 -23 8 -26 36 -2 19 -6 45 -9 57 -3 13 0 43 6 68 11 44
10 47 -17 76 -15 16 -36 29 -45 29 -10 0 -25 10 -33 22 -19 26 -13 36 10 17
15 -12 17 -12 12 0 -5 17 -58 34 -58 20 0 -5 -11 -15 -25 -21 -14 -6 -25 -17
-25 -25 0 -7 -8 -17 -17 -20 -10 -4 -21 -11 -24 -16 -4 -5 -15 -5 -27 2 -14 7
-19 17 -15 32 4 12 0 25 -7 29 -11 7 -11 11 -1 24 8 9 10 26 6 43 -9 42 -72
123 -95 123 -11 0 -20 5 -20 11 0 7 -9 9 -22 6 -16 -5 -31 3 -55 26 -18 18
-33 38 -33 45 0 7 -14 12 -35 12 -24 0 -35 -5 -35 -15 0 -8 -14 -18 -32 -23
-23 -6 -34 -15 -36 -30 -4 -25 -12 -28 -30 -10 -9 9 -12 4 -12 -25 0 -27 -5
-39 -17 -44 -10 -3 -26 -13 -36 -21 -12 -11 -21 -12 -28 -5 -15 15 -137 -55
-151 -88 -2 -3 -17 -9 -35 -12 -27 -5 -32 -3 -35 15 -4 29 -77 47 -90 24 -5
-8 -15 -13 -23 -10 -9 4 -15 0 -15 -10 0 -22 -37 -39 -76 -34 -19 2 -34 -1
-35 -7 0 -5 -6 8 -13 30 -8 25 -9 45 -4 52 6 7 6 19 0 30 -8 13 -4 24 14 46
30 35 34 91 6 83 -14 -5 -22 1 -31 20 -9 20 -17 25 -36 22 -34 -7 -61 27 -60
74 0 30 -4 38 -17 38 -20 0 -25 39 -9 69 12 22 3 61 -13 61 -15 0 -58 74 -49
83 3 4 1 13 -6 21 -17 20 -32 76 -20 76 17 0 9 28 -17 59 -20 24 -23 35 -15
45 6 8 8 27 4 46 -4 22 -3 31 5 27 6 -5 8 0 5 13 -3 11 -1 20 5 20 20 0 43 32
37 51 -4 13 -2 19 9 19 9 0 16 11 18 28 2 19 9 28 26 30 12 2 20 7 17 12 -7
11 14 7 40 -7 24 -13 49 -3 82 34 12 14 30 24 40 23 37 -4 51 1 56 20 3 13 17
22 36 26 29 6 31 9 31 53 0 26 -6 56 -14 67 -8 12 -11 26 -6 33 4 7 5 22 3 32
-3 11 0 26 7 34 9 10 9 15 1 15 -6 0 -11 -4 -11 -10 0 -17 -41 -33 -53 -21 -6
6 -19 11 -29 11 -16 0 -17 3 -8 20 8 15 7 27 -5 49 -20 40 -19 48 8 57 36 11
51 26 35 35 -10 7 -10 9 0 9 6 0 12 9 12 21 0 15 5 19 19 14 10 -3 24 1 31 10
7 8 29 15 50 15 25 0 40 5 44 15 5 14 9 14 35 0 38 -19 84 -10 114 22 12 13
37 30 55 38 17 8 32 19 32 24 0 15 73 14 88 -1 9 -9 12 -9 12 0 0 8 7 9 26 2
38 -15 45 -12 38 15 -5 20 -2 25 12 25 17 1 17 2 -3 19 -13 11 -23 27 -23 36
0 15 2 16 16 4 15 -12 16 -11 9 10 -6 20 -4 23 9 18 19 -7 20 -3 5 24 -19 37
-20 61 -1 55 9 -2 32 -7 50 -11 17 -4 32 -11 32 -17 0 -7 17 -9 45 -6 35 4 48
2 62 -14 23 -26 79 -66 69 -50 -13 21 10 13 34 -13 18 -20 26 -22 42 -14 14 8
18 17 14 35 -5 18 -3 22 9 18 20 -8 -40 107 -62 120 -13 7 -15 5 -9 -9 5 -13
2 -16 -10 -11 -8 3 -18 6 -20 6 -2 0 -4 14 -4 31 0 19 -7 37 -17 45 -15 11
-16 16 -6 33 15 24 10 42 -18 59 -15 9 -24 10 -33 3 -7 -6 -15 -8 -18 -5 -3 2
-5 -8 -5 -23 0 -15 -6 -29 -12 -31 -6 -2 -11 -10 -11 -18 0 -10 -7 -13 -25 -8
-14 3 -31 1 -39 -5 -22 -18 -70 30 -64 63 4 18 -3 35 -23 58 -33 39 -37 64 -9
73 25 8 29 65 5 65 -8 0 -15 5 -15 11 0 5 5 7 10 4 24 -15 21 28 -3 53 -24 25
-25 28 -9 39 13 8 14 14 5 23 -9 10 -18 10 -42 1 -31 -14 -78 0 -66 20 4 5 2
9 -4 9 -5 0 -17 3 -27 7 -15 5 -16 1 -12 -34z m193 -423 c3 -5 2 -10 -4 -10
-5 0 -13 5 -16 10 -3 6 -2 10 4 10 5 0 13 -4 16 -10z m-795 -640 c0 -19 -18
-19 -23 -1 -3 14 -1 18 9 14 8 -3 14 -9 14 -13z m210 -70 c0 -5 -4 -10 -10
-10 -5 0 -10 5 -10 10 0 6 5 10 10 10 6 0 10 -4 10 -10z m-170 -105 c0 -8 -4
-15 -10 -15 -5 0 -10 7 -10 15 0 8 5 15 10 15 6 0 10 -7 10 -15z m-87 -52
c-19 -7 -16 -23 4 -23 27 0 6 -13 -26 -15 -39 -3 -48 21 -19 50 20 19 25 20
38 7 11 -11 12 -16 3 -19z m-45 -140 c2 -8 -5 -13 -17 -13 -12 0 -21 6 -21 16
0 18 31 15 38 -3z m-398 -41 c0 -10 -21 -32 -31 -32 -4 0 -5 9 -2 20 5 19 33
29 33 12z m1229 -756 c-14 -15 -22 0 -13 26 7 22 7 22 14 3 4 -11 4 -24 -1
-29z m-489 -212 c0 -14 -3 -14 -15 -4 -8 7 -15 14 -15 16 0 2 7 4 15 4 8 0 15
-7 15 -16z m-820 -184 c0 -5 -2 -10 -4 -10 -3 0 -8 5 -11 10 -3 6 -1 10 4 10
6 0 11 -4 11 -10z m3245 -1230 c3 -5 1 -10 -4 -10 -6 0 -11 5 -11 10 0 6 2 10
4 10 3 0 8 -4 11 -10z m-1050 -110 c3 -5 1 -10 -4 -10 -6 0 -11 5 -11 10 0 6
2 10 4 10 3 0 8 -4 11 -10z m816 -313 c-13 -13 -26 -3 -16 12 3 6 11 8 17 5 6
-4 6 -10 -1 -17z m49 -485 c0 -12 -46 -32 -54 -25 -16 16 -8 22 47 32 4 0 7
-3 7 -7z"/>
<path d="M6850 14132 c0 -4 9 -18 20 -32 l20 -25 0 26 c0 18 -6 28 -20 32 -11
3 -20 2 -20 -1z"/>
<path d="M6940 14060 c11 -11 23 -20 27 -20 3 0 -2 9 -12 20 -10 11 -22 20
-27 20 -4 0 1 -9 12 -20z"/>
<path d="M7040 14010 c11 -7 12 -12 3 -18 -8 -5 -3 -15 16 -33 21 -19 33 -24
49 -18 37 14 27 44 -21 63 -48 18 -70 21 -47 6z"/>
<path d="M8590 13921 c0 -30 -2 -31 -40 -31 -39 0 -40 -1 -29 -22 10 -18 9
-20 -5 -15 -28 11 -10 -27 31 -68 37 -37 48 -43 40 -21 -3 7 0 19 6 25 8 8 8
11 -1 11 -7 0 -12 5 -12 10 0 19 23 10 71 -31 27 -22 49 -36 49 -30 0 6 10 11
23 11 24 1 74 37 64 47 -4 3 -13 0 -22 -7 -13 -10 -15 -9 -15 8 0 11 5 22 12
24 7 3 9 14 4 33 -5 21 -10 25 -16 16 -4 -8 -15 -11 -23 -8 -8 3 -33 -3 -54
-14 -36 -18 -39 -19 -51 -2 -11 15 -11 19 2 21 21 5 20 9 -9 44 l-25 30 0 -31z"/>
<path d="M8378 13888 c9 -9 15 -9 24 0 9 9 7 12 -12 12 -19 0 -21 -3 -12 -12z"/>
<path d="M8428 13889 c16 -14 62 -19 62 -7 0 8 -13 13 -34 13 -19 0 -32 -3
-28 -6z"/>
<path d="M7425 13860 c3 -5 8 -10 11 -10 2 0 4 5 4 10 0 6 -5 10 -11 10 -5 0
-7 -4 -4 -10z"/>
<path d="M8699 13707 c10 -28 31 -34 31 -9 0 11 -8 22 -19 25 -16 4 -18 1 -12
-16z"/>
<path d="M7732 12888 c-6 -6 -12 -18 -12 -26 0 -10 3 -10 16 2 8 9 14 21 12
26 -2 7 -8 6 -16 -2z"/>
<path d="M7417 12621 c-3 -14 -11 -18 -25 -15 -14 4 -21 0 -25 -15 -6 -25 -20
-27 -41 -6 -25 25 -77 5 -82 -31 -3 -19 44 -40 58 -26 7 7 20 12 30 12 9 0 40
14 68 30 28 17 57 30 65 30 8 0 15 9 15 20 0 28 -55 29 -63 1z"/>
<path d="M7200 12547 c-12 -21 -12 -21 6 -7 10 8 20 15 22 16 2 1 -1 4 -5 7
-5 3 -15 -4 -23 -16z"/>
<path d="M7221 12521 c-12 -8 -12 -12 -2 -25 16 -19 31 -12 31 15 0 21 -7 23
-29 10z"/>
<path d="M8270 12306 c0 -2 7 -9 15 -16 9 -7 15 -8 15 -2 0 5 -7 12 -15 16 -8
3 -15 4 -15 2z"/>
<path d="M6822 12255 c-9 -10 -22 -13 -39 -9 -19 5 -24 4 -18 -6 4 -7 2 -16
-6 -21 -8 -4 -15 -13 -15 -19 -1 -5 -2 -14 -3 -20 0 -5 -8 -7 -16 -4 -11 5
-15 -1 -15 -23 0 -16 -6 -35 -12 -42 -11 -11 -7 -12 17 -7 17 4 41 1 55 -7 14
-7 39 -10 55 -7 26 5 30 10 30 38 0 17 3 32 8 32 4 0 16 14 26 31 10 17 22 30
27 29 5 -1 10 4 13 11 2 6 -1 9 -7 5 -6 -3 -14 0 -19 8 -12 21 -66 28 -81 11z"/>
<path d="M7887 11023 c4 -10 17 -29 30 -42 26 -26 28 -37 12 -47 -8 -4 -7 -9
2 -15 24 -15 28 -10 22 25 -3 18 0 43 6 54 11 21 -2 42 -14 22 -5 -8 -15 -6
-31 4 -30 20 -35 20 -27 -1z"/>
<path d="M10792 10949 c2 -17 10 -25 28 -27 20 -2 22 -1 10 7 -8 6 -15 16 -15
22 0 7 -6 14 -13 17 -9 3 -13 -3 -10 -19z"/>
<path d="M7944 10864 c-15 -15 -18 -27 -12 -43 5 -16 3 -23 -7 -27 -16 -7 -21
-34 -6 -34 5 0 12 -11 15 -25 4 -14 11 -25 16 -25 6 0 10 -9 10 -20 0 -11 4
-20 9 -20 5 0 13 -9 16 -20 7 -22 25 -27 25 -7 0 8 11 24 26 38 24 22 24 24 7
37 -10 7 -18 18 -18 25 0 26 -39 136 -49 140 -6 2 -20 -7 -32 -19z"/>
<path d="M8077 10607 c3 -14 0 -28 -6 -31 -7 -5 -4 -14 9 -28 11 -12 20 -30
20 -39 0 -10 5 -29 11 -43 14 -31 106 -78 128 -67 17 9 38 5 59 -12 9 -7 9
-13 1 -23 -16 -19 8 -19 27 0 7 8 22 12 33 9 22 -6 35 -29 21 -38 -19 -12 -9
-30 23 -46 20 -10 31 -23 29 -33 -4 -23 15 -20 28 4 9 18 6 27 -18 55 -17 18
-33 47 -37 64 -3 17 -10 30 -13 30 -4 -1 -10 0 -14 1 -18 6 -33 5 -38 -2 -3
-4 -23 -5 -43 -1 -29 4 -35 8 -26 19 6 7 8 18 4 24 -3 5 -1 10 4 10 6 0 11 7
11 15 0 8 -9 15 -19 15 -14 0 -21 9 -26 31 -5 21 -10 27 -15 19 -4 -7 -13 -9
-19 -6 -16 10 -14 26 3 26 19 0 31 39 17 53 -8 8 -15 6 -24 -8 -11 -14 -21
-17 -45 -12 -21 4 -32 3 -32 -5 0 -7 -13 1 -29 16 l-28 27 4 -24z"/>
<path d="M10852 10243 c-6 -2 -10 -9 -6 -14 8 -14 21 -11 28 6 6 15 1 17 -22
8z"/>
<path d="M8455 10231 c-3 -5 -1 -12 4 -15 5 -3 11 1 15 9 6 16 -9 21 -19 6z"/>
<path d="M11710 10204 c0 -8 5 -12 10 -9 6 4 8 11 5 16 -9 14 -15 11 -15 -7z"/>
<path d="M11663 10155 c-3 -9 -3 -18 -1 -21 3 -3 8 4 11 16 6 23 -1 27 -10 5z"/>
<path d="M10634 10130 c-5 -24 -13 -31 -43 -37 -20 -4 -40 -6 -44 -5 -5 1 -6
-2 -2 -7 8 -13 -32 -34 -51 -27 -10 4 -12 2 -8 -6 4 -6 1 -16 -7 -22 -8 -6
-24 -26 -37 -44 -18 -25 -19 -32 -7 -32 8 0 24 9 34 19 11 11 37 24 58 30 32
9 40 8 51 -7 13 -16 14 -16 23 1 6 9 15 17 20 17 6 0 7 -4 4 -10 -3 -5 0 -7 7
-5 26 10 39 44 27 67 -7 13 -8 23 -1 27 12 7 3 71 -9 71 -5 0 -12 -13 -15 -30z"/>
<path d="M11548 10143 c-16 -4 -23 -27 -19 -60 1 -7 -9 -13 -22 -13 -35 0 -80
-61 -56 -76 6 -3 8 -12 5 -20 -3 -7 2 -20 10 -29 8 -8 12 -20 9 -25 -18 -30
26 -100 50 -80 10 9 16 7 24 -8 6 -11 22 -23 37 -26 21 -6 25 -11 20 -28 -5
-23 9 -48 26 -48 6 0 5 7 -2 15 -15 17 -7 19 21 5 11 -6 19 -7 19 -1 0 16 27
20 54 6 21 -11 26 -11 26 -1 0 20 -27 40 -35 26 -9 -15 -25 -2 -25 20 0 13 5
17 19 13 16 -4 20 3 26 58 6 54 5 64 -11 76 -15 11 -19 11 -27 -3 -8 -14 -11
-14 -28 2 -14 12 -18 26 -14 41 4 16 1 23 -9 23 -8 0 -16 7 -19 14 -4 10 -1
13 9 9 9 -3 14 1 14 12 0 13 3 15 13 7 19 -16 40 2 32 27 -4 14 -15 21 -32 21
-15 0 -23 3 -20 7 8 8 -48 44 -66 42 -6 -1 -20 -3 -29 -6z"/>
<path d="M11731 10066 c-9 -11 -9 -16 1 -22 7 -4 10 -4 6 1 -4 4 -3 14 3 22 6
7 9 13 6 13 -2 0 -10 -6 -16 -14z"/>
<path d="M11827 9979 c7 -7 15 -10 18 -7 3 3 -2 9 -12 12 -14 6 -15 5 -6 -5z"/>
<path d="M10630 9958 c0 -10 -7 -18 -16 -18 -13 0 -14 -3 -4 -15 17 -20 6 -43
-26 -55 -15 -6 -24 -13 -20 -17 12 -12 -77 -55 -119 -57 -25 -1 -31 -6 -33
-30 -2 -18 -11 -30 -23 -33 -20 -6 -26 -37 -9 -48 16 -10 12 -28 -5 -22 -8 4
-17 2 -20 -3 -4 -6 -14 -10 -25 -10 -10 0 -21 -7 -24 -16 -3 -8 -10 -13 -15
-9 -5 3 -12 1 -16 -5 -8 -13 -52 -13 -60 0 -10 16 -59 -40 -78 -89 -17 -42
-17 -43 0 -37 41 16 75 19 83 6 12 -19 55 23 46 46 -5 13 -2 15 20 10 31 -8
90 -51 98 -71 3 -8 1 -17 -5 -21 -6 -4 -4 -15 6 -30 16 -24 12 -50 -6 -39 -5
3 -6 -1 -3 -9 3 -9 1 -16 -5 -16 -6 0 -11 -14 -11 -31 0 -24 -4 -30 -15 -25
-9 3 -15 -1 -15 -11 0 -13 -3 -13 -15 -3 -8 7 -15 8 -15 3 0 -16 -55 -42 -70
-33 -14 9 -25 1 -53 -40 -10 -14 -38 -32 -65 -40 -27 -9 -46 -21 -44 -28 2
-10 -3 -10 -18 -2 -17 9 -20 8 -20 -10 0 -13 -7 -20 -19 -20 -11 0 -23 -9 -26
-21 -4 -12 -12 -18 -21 -15 -8 3 -14 1 -14 -4 0 -6 -7 -10 -15 -10 -8 0 -15
-7 -15 -15 0 -12 7 -14 28 -9 15 4 29 8 31 10 2 2 10 -1 17 -7 14 -11 64 15
64 33 0 6 11 8 25 6 13 -3 22 -1 19 4 -3 5 7 6 23 2 15 -4 30 -11 31 -16 5
-12 50 -10 57 3 4 6 13 8 21 5 25 -10 73 6 79 25 4 11 16 19 27 19 17 0 20 5
16 30 -3 17 -1 33 4 36 4 3 8 14 8 25 0 22 11 24 28 7 18 -18 34 9 26 46 -4
19 -3 26 5 22 7 -4 11 1 11 14 0 11 5 29 12 39 8 14 9 27 2 43 -12 29 -6 88 8
88 6 0 20 -7 29 -16 10 -9 30 -18 44 -20 14 -1 32 -8 40 -14 12 -10 18 -10 30
0 8 6 19 9 25 5 13 -8 13 40 0 66 -19 34 5 20 67 -38 l60 -58 -3 -57 c-3 -56
-2 -58 21 -58 19 0 23 -4 18 -17 -5 -13 -2 -15 18 -10 13 4 31 7 39 7 8 0 32
15 52 34 21 19 47 37 58 41 15 5 20 15 20 41 0 40 15 73 42 92 10 7 18 22 18
33 0 11 11 35 26 54 15 21 21 36 15 40 -6 3 -11 17 -11 31 0 29 18 31 80 9 24
-8 59 -17 79 -19 20 -2 41 -4 46 -6 23 -6 35 1 35 20 0 13 7 20 20 20 11 0 20
-5 20 -12 0 -6 8 -2 18 9 17 21 18 21 42 1 13 -10 29 -29 34 -40 15 -29 33
-33 41 -9 3 12 18 24 31 27 22 6 24 10 18 36 -4 21 -2 33 7 39 11 6 6 18 -19
54 -17 25 -32 50 -32 55 0 6 -10 10 -21 10 -12 0 -41 18 -64 39 -47 43 -114
68 -142 53 -12 -7 -23 -4 -41 13 -19 18 -28 21 -38 12 -14 -13 -7 -24 28 -41
25 -12 40 -52 17 -44 -8 3 -21 -4 -29 -15 -14 -17 -20 -18 -40 -7 -20 11 -25
10 -37 -6 -7 -10 -13 -27 -13 -39 0 -12 -3 -25 -7 -29 -4 -4 -7 -19 -8 -34 0
-20 -6 -28 -23 -30 -19 -3 -21 -6 -11 -18 10 -13 6 -14 -29 -8 -29 4 -42 3
-42 -5 0 -6 -4 -11 -9 -11 -11 0 -80 53 -135 106 -24 22 -58 46 -75 53 -16 7
-33 21 -36 31 -7 23 -36 34 -46 18 -6 -10 -15 -6 -36 14 l-27 27 22 24 c27 29
28 36 2 34 -12 -1 -20 -8 -20 -19z"/>
<path d="M11800 9872 c0 -29 2 -32 20 -22 17 9 46 48 38 51 -2 0 -15 2 -30 3
-25 1 -28 -2 -28 -32z"/>
<path d="M11760 9835 c0 -5 4 -17 10 -25 6 -9 5 -19 -3 -29 -10 -11 -9 -13 3
-9 21 7 23 30 6 53 -9 11 -15 16 -16 10z"/>
<path d="M11850 9791 c0 -5 -12 -11 -27 -13 -22 -2 -28 -8 -26 -25 2 -16 -3
-23 -13 -23 -14 0 -14 -3 -3 -16 7 -8 14 -31 16 -50 4 -34 9 -42 66 -107 l28
-32 -27 -11 c-17 -7 -22 -14 -15 -18 19 -12 12 -43 -11 -49 -12 -4 -19 -9 -15
-13 3 -4 2 -16 -4 -26 -8 -16 -18 -19 -39 -14 -23 4 -28 2 -23 -9 4 -11 -2
-15 -19 -15 -14 0 -33 -9 -42 -19 -11 -12 -25 -17 -39 -13 -19 5 -20 3 -10
-10 10 -11 10 -21 1 -46 -7 -18 -17 -32 -22 -32 -5 0 -1 -10 10 -21 19 -22 19
-22 -2 -11 -30 16 -64 11 -64 -9 0 -11 -11 -20 -32 -25 -47 -10 -98 -36 -92
-46 3 -5 14 -6 25 -3 15 5 19 1 19 -15 0 -13 8 -24 20 -27 10 -3 34 -27 51
-55 21 -32 37 -47 46 -44 8 4 17 6 19 6 2 0 4 11 4 25 0 26 32 51 51 39 13 -8
2 35 -12 51 -20 21 -9 36 26 33 19 -1 37 1 40 4 13 13 -7 99 -26 109 -25 13
-27 69 -1 69 13 0 14 2 4 9 -9 5 -1 10 24 14 31 5 43 2 60 -14 13 -12 21 -29
19 -40 -4 -22 14 -37 25 -19 6 10 15 10 43 0 l34 -13 -25 -22 c-22 -19 -23
-24 -12 -45 l12 -23 -51 6 c-41 5 -51 3 -51 -8 0 -8 -15 -21 -32 -29 l-33 -14
32 -14 c33 -14 83 -68 64 -68 -6 0 -11 -8 -11 -18 0 -10 -11 -29 -25 -42 -13
-12 -22 -27 -19 -31 7 -12 -10 -11 -22 1 -12 12 -54 -15 -54 -34 0 -8 16 -16
38 -20 61 -10 72 -8 72 14 0 13 7 20 20 20 10 0 30 11 44 25 14 14 27 21 30
16 4 -5 15 -7 26 -4 25 7 16 23 -12 23 -14 0 -18 5 -14 16 3 9 6 24 6 34 0 15
6 17 39 13 36 -5 41 -3 45 18 19 83 24 113 19 125 -3 8 -1 14 4 14 12 0 13 32
1 47 -6 7 -4 20 6 36 9 13 13 28 9 32 -5 5 -1 4 8 -3 17 -13 29 -7 29 16 0 8
7 20 15 26 11 8 15 36 17 114 1 56 6 102 10 102 13 0 19 37 9 61 -29 70 -148
150 -203 136 -12 -3 -30 -2 -40 4 -11 6 -18 6 -18 0z m70 -495 c0 -3 -4 -8
-10 -11 -5 -3 -10 -1 -10 4 0 6 5 11 10 11 6 0 10 -2 10 -4z m-213 -80 c0 -8
-6 -12 -14 -9 -7 3 -13 9 -13 14 0 5 6 9 13 9 8 0 14 -6 14 -14z"/>
<path d="M11716 9703 l-27 -28 22 -17 c26 -22 35 -17 41 22 7 47 -6 56 -36 23z"/>
<path d="M11666 9605 c-13 -20 -25 -25 -55 -25 -22 0 -41 -5 -43 -11 -2 -7
-12 -7 -29 0 -19 7 -30 6 -38 -2 -8 -8 -11 -6 -11 9 -1 19 -1 19 -15 0 -8 -11
-15 -36 -15 -57 0 -29 9 -45 44 -84 25 -26 49 -44 54 -41 6 3 23 1 39 -6 15
-6 32 -10 37 -9 4 1 14 -6 22 -16 12 -17 14 -15 25 15 9 25 15 31 30 27 15 -5
19 -1 19 19 0 16 6 26 14 26 30 0 15 104 -16 118 -5 2 -8 9 -8 16 0 7 -8 20
-19 30 -17 16 -19 15 -35 -9z"/>
<path d="M11330 9590 c0 -5 4 -10 9 -10 6 0 13 5 16 10 3 6 -1 10 -9 10 -9 0
-16 -4 -16 -10z"/>
<path d="M10062 9479 c2 -21 0 -39 -4 -39 -5 0 -8 -7 -8 -15 0 -19 -11 -19
-54 -1 -25 10 -37 11 -45 3 -17 -17 -13 -35 9 -47 20 -10 19 -11 -6 -49 -21
-32 -24 -43 -14 -60 13 -26 13 -26 66 1 35 17 41 24 32 35 -9 11 -8 13 1 11
25 -6 49 45 54 119 5 65 4 71 -15 76 -18 5 -20 2 -16 -34z"/>
<path d="M10330 9399 c0 -12 -8 -23 -20 -26 -11 -3 -20 -9 -20 -14 0 -12 53 1
62 15 12 18 9 33 -7 40 -10 4 -15 -1 -15 -15z"/>
<path d="M11490 9321 c0 -13 28 -33 33 -23 3 4 -3 13 -14 20 -10 7 -19 8 -19
3z"/>
<path d="M10722 9229 c1 -43 13 -66 38 -74 11 -3 20 -15 20 -25 0 -13 5 -17
20 -13 14 4 30 -3 45 -17 l25 -23 0 32 c0 21 -8 40 -25 55 -16 15 -23 30 -19
40 3 9 1 23 -6 31 -10 12 -10 15 0 15 8 0 11 2 9 4 -2 2 -23 1 -46 -3 -25 -5
-46 -4 -52 2 -6 6 -10 -2 -9 -24z"/>
<path d="M10690 9210 c0 -5 5 -10 11 -10 5 0 7 5 4 10 -3 6 -8 10 -11 10 -2 0
-4 -4 -4 -10z"/>
<path d="M9642 9142 c-45 -19 -82 -41 -82 -47 0 -14 -44 -25 -95 -25 -25 0
-34 -5 -38 -21 -5 -19 -11 -21 -51 -17 -31 4 -43 2 -40 -6 3 -9 -11 -10 -53
-5 -32 3 -59 5 -61 4 -9 -7 53 -60 80 -69 27 -9 34 -17 36 -43 2 -22 -1 -33
-10 -33 -7 0 -2 -6 12 -13 22 -11 27 -10 41 7 12 14 31 21 65 23 27 1 49 3 49
3 0 1 8 3 18 5 9 2 17 -3 17 -11 0 -16 16 -19 25 -4 9 14 48 13 63 -2 9 -9 15
-9 24 0 18 18 28 14 28 -12 0 -27 22 -40 39 -23 8 8 11 8 11 0 0 -6 6 -13 13
-16 10 -4 13 2 9 20 -3 13 -11 27 -18 30 -22 8 -16 28 16 51 17 13 30 29 30
37 0 8 16 21 35 29 19 8 35 20 35 26 0 6 10 10 22 8 29 -4 33 14 8 45 -15 19
-31 27 -62 29 -35 2 -46 9 -63 34 l-21 32 -82 -36z"/>
<path d="M11411 9144 c0 -11 3 -14 6 -6 3 7 2 16 -1 19 -3 4 -6 -2 -5 -13z"/>
<path d="M12050 9060 c0 -5 -10 -10 -22 -10 -16 0 -19 -3 -11 -11 9 -9 19 -6
39 10 19 15 22 21 10 21 -9 0 -16 -4 -16 -10z"/>
<path d="M11966 9023 c3 -12 1 -24 -5 -27 -17 -11 -13 -26 4 -20 8 4 13 10 10
14 -3 5 1 10 7 13 10 3 9 9 -4 22 -16 17 -17 17 -12 -2z"/>
<path d="M10865 9001 c-7 -12 12 -24 25 -16 11 7 4 25 -10 25 -5 0 -11 -4 -15
-9z"/>
<path d="M11528 8983 c-26 -4 -41 -23 -18 -23 5 0 7 -7 3 -16 -4 -10 -14 -14
-29 -11 -19 3 -24 0 -24 -15 0 -18 -1 -18 -16 -4 -23 24 -41 19 -55 -12 -15
-35 -79 -74 -100 -61 -8 5 -24 9 -37 9 -18 0 -21 -4 -17 -22 6 -29 -38 -66
-59 -49 -8 7 -16 7 -23 0 -7 -7 -14 -5 -23 6 -13 16 -85 22 -76 6 3 -5 -1 -14
-9 -21 -9 -7 -23 -28 -32 -47 -10 -22 -27 -39 -45 -45 -15 -6 -28 -16 -28 -24
0 -8 -7 -14 -15 -14 -17 0 -20 -26 -4 -36 6 -3 15 -1 19 6 5 7 17 10 30 7 13
-3 23 0 27 9 3 10 12 12 26 8 16 -5 19 -3 13 11 -9 24 12 85 29 85 7 0 15 4
17 10 6 17 46 0 41 -18 -2 -10 3 -26 12 -37 14 -19 15 -19 29 -2 15 19 46 17
73 -5 7 -6 19 -5 33 2 18 10 27 6 60 -24 22 -20 52 -38 67 -41 16 -3 50 -13
77 -21 26 -7 56 -14 66 -14 10 0 21 -6 24 -12 3 -9 11 -6 25 11 13 15 27 21
37 17 14 -5 9 -12 -22 -36 -21 -16 -44 -30 -51 -30 -7 0 -16 -15 -21 -32 -7
-27 -13 -32 -33 -30 -18 2 -31 -6 -47 -28 -12 -16 -31 -30 -42 -30 -11 0 -20
-7 -20 -15 0 -8 -9 -15 -20 -15 -13 0 -22 -9 -26 -25 -7 -28 -31 -45 -64 -45
-12 0 -18 -4 -15 -11 4 -6 -1 -17 -11 -25 -18 -14 -18 -14 -1 -28 18 -14 18
-15 0 -24 -10 -5 -37 -9 -61 -7 -23 1 -45 -2 -48 -7 -4 -5 -22 -7 -40 -3 -28
5 -34 3 -34 -11 0 -22 -32 -45 -46 -33 -7 6 -11 -5 -13 -37 -2 -58 -5 -64 -42
-64 -27 0 -29 -2 -18 -21 11 -22 2 -53 -28 -90 -7 -8 -15 -42 -19 -75 -5 -56
-4 -61 19 -73 14 -7 31 -25 38 -40 8 -14 20 -31 28 -37 9 -7 10 -13 4 -17 -6
-4 -8 -18 -5 -32 3 -20 1 -24 -12 -19 -11 4 -16 1 -16 -11 0 -12 -5 -15 -20
-10 -17 5 -20 2 -20 -20 0 -18 9 -31 30 -43 16 -9 30 -25 30 -34 0 -22 -46
-28 -82 -11 -37 18 -60 8 -52 -24 5 -19 3 -24 -7 -21 -8 3 -22 1 -33 -4 -12
-7 -22 -6 -29 1 -6 6 -17 11 -25 11 -12 0 -12 -3 -1 -16 21 -26 21 -56 -1 -71
-11 -8 -20 -20 -20 -28 0 -17 -34 -28 -61 -20 -18 6 -20 4 -14 -16 14 -42 13
-104 0 -123 -12 -16 -17 -17 -52 -4 -21 7 -49 25 -64 41 l-25 27 -22 -30 c-12
-16 -22 -34 -22 -40 0 -7 -12 -9 -35 -4 -33 6 -35 5 -35 -21 0 -18 -6 -29 -18
-32 -11 -2 -31 -24 -47 -49 -15 -24 -36 -46 -46 -49 -12 -4 -19 -16 -19 -31 0
-13 -6 -24 -13 -24 -17 0 -57 -42 -57 -59 0 -10 -4 -10 -12 -3 -7 5 -42 12
-78 14 -36 3 -73 9 -84 13 -30 13 -10 -35 29 -67 35 -30 37 -59 6 -107 -9 -14
-14 -34 -13 -47 2 -13 -4 -24 -13 -28 -13 -5 -15 -13 -10 -37 6 -27 2 -35 -30
-65 -21 -19 -44 -34 -52 -34 -10 0 -11 -4 -3 -19 15 -29 12 -81 -5 -87 -8 -4
-12 -11 -7 -18 9 -14 9 -166 0 -166 -12 0 3 -33 26 -58 l20 -23 -22 -6 c-12
-3 -22 -12 -22 -19 0 -8 -7 -14 -15 -14 -8 0 -15 -5 -15 -10 0 -7 -7 -7 -22 1
-19 10 -20 9 -13 -7 4 -11 9 -38 12 -60 4 -34 2 -44 -17 -57 -27 -19 -24 -65
5 -81 11 -6 30 -21 41 -33 12 -12 24 -19 27 -16 3 3 3 -5 0 -17 -3 -12 -11
-24 -18 -26 -25 -10 0 -82 41 -119 22 -19 42 -34 46 -35 5 0 37 -21 73 -47 50
-36 68 -56 81 -90 17 -43 17 -45 -4 -65 -19 -19 -20 -24 -7 -57 7 -20 16 -48
19 -63 4 -18 19 -32 49 -47 51 -25 61 -26 53 -6 -7 20 3 19 26 -2 11 -9 34
-17 53 -17 33 0 54 -19 35 -31 -20 -12 -9 -23 28 -28 44 -5 72 14 72 50 0 13
4 21 10 18 15 -9 23 41 10 64 -6 12 -8 21 -5 21 3 0 1 9 -4 19 -9 15 -6 22 14
35 24 16 30 12 26 -16 -1 -12 40 -20 52 -10 7 6 37 9 67 8 42 -1 61 -7 78 -24
23 -23 43 -21 75 7 16 13 18 24 12 68 -4 35 -3 53 4 53 6 0 11 12 11 26 0 20
4 24 19 19 10 -3 24 1 31 10 7 8 21 15 32 15 15 0 18 4 13 18 -4 9 -11 36 -15
60 -6 37 -5 42 9 36 43 -18 57 -16 70 12 8 17 9 30 3 32 -5 1 -8 11 -5 21 2
10 -2 25 -10 33 -17 16 -25 57 -15 73 10 17 -3 65 -18 65 -20 0 -17 30 4 46
16 13 16 15 0 28 -10 7 -18 18 -18 23 0 11 43 33 63 33 27 0 43 34 39 84 -3
37 0 54 17 77 13 18 17 30 10 34 -7 5 -5 13 5 23 12 15 12 20 1 36 -10 13 -11
24 -5 36 5 10 7 20 4 23 -3 3 0 16 7 29 7 12 15 36 18 51 l6 28 23 -21 c12
-11 22 -32 22 -46 0 -19 6 -26 30 -30 17 -4 30 -11 30 -16 0 -6 7 -4 16 3 14
11 18 10 30 -6 12 -17 14 -17 14 -2 0 9 7 17 15 17 9 0 15 9 15 21 0 15 4 19
16 15 9 -4 23 -1 30 5 7 6 19 7 26 2 7 -4 32 -13 56 -19 34 -9 42 -8 42 2 0 8
11 16 24 20 13 3 29 16 36 30 8 13 19 24 27 24 7 0 13 7 13 15 0 9 9 15 23 15
13 0 32 7 43 15 10 8 33 15 49 15 17 0 35 4 40 8 11 7 18 45 17 89 0 17 8 23
39 28 21 4 43 4 49 0 6 -4 7 0 4 10 -5 13 -2 15 22 9 16 -3 34 -11 39 -18 6
-6 24 -18 42 -27 30 -16 32 -16 56 7 31 28 37 30 37 8 0 -8 4 -12 10 -9 11 7
25 -39 16 -53 -3 -5 0 -23 6 -40 11 -28 10 -33 -15 -52 -32 -26 -34 -36 -6
-43 12 -3 18 -10 14 -16 -3 -6 -1 -11 6 -11 24 0 0 -65 -38 -98 -33 -29 -35
-34 -24 -56 14 -26 8 -46 -13 -46 -20 0 -67 -40 -61 -51 4 -5 15 -9 26 -9 11
0 17 5 14 10 -3 6 -2 10 4 10 5 0 13 -4 16 -10 3 -5 15 -10 26 -10 10 0 27 -8
38 -19 25 -25 45 -12 39 28 -4 28 -3 30 19 24 20 -4 24 -2 21 13 -4 26 40 21
60 -7 11 -16 21 -20 42 -15 23 4 29 1 34 -18 13 -52 117 -59 133 -9 l9 25 27
-27 c15 -15 25 -31 22 -35 -3 -4 4 -28 15 -53 21 -46 61 -87 86 -87 17 0 18
-17 2 -23 -9 -2 0 -18 23 -44 25 -27 41 -38 50 -32 7 4 21 3 31 -2 10 -5 18
-7 18 -3 0 4 8 0 18 -8 9 -8 25 -18 34 -21 10 -4 15 -12 12 -21 -3 -8 2 -29
11 -46 9 -17 14 -39 11 -47 -4 -9 -1 -22 5 -29 6 -8 9 -21 5 -29 -6 -16 -1
-19 44 -29 18 -4 30 -16 39 -43 17 -48 54 -83 87 -83 67 0 168 -42 203 -84 7
-9 20 -16 27 -16 18 0 48 -46 39 -60 -8 -13 22 -50 42 -50 18 0 17 -39 -1 -46
-8 -3 -12 -12 -9 -20 8 -21 23 -17 23 7 0 20 1 20 31 -5 17 -14 34 -24 39 -21
21 13 30 -88 11 -123 -7 -14 -8 -23 -1 -27 12 -8 35 -49 23 -42 -4 2 -17 1
-28 -4 -15 -6 -11 -8 18 -8 30 -1 40 3 44 18 7 29 30 33 66 11 39 -24 47 -25
47 -5 0 8 9 15 20 15 22 0 60 -53 60 -83 0 -11 9 -21 20 -24 11 -3 21 -13 22
-22 2 -31 4 -36 11 -48 4 -7 14 -10 22 -7 7 3 25 -2 39 -11 19 -13 29 -14 45
-6 30 16 59 13 65 -6 7 -23 76 -29 76 -7 0 8 6 14 14 14 19 0 28 28 16 50 -13
25 -13 73 1 87 9 9 5 18 -15 38 -14 14 -26 35 -26 47 0 11 -19 38 -42 60 -27
25 -38 42 -30 45 16 6 15 42 -3 73 -18 31 -18 40 -2 40 16 0 39 58 26 66 -5 3
-6 10 -2 17 25 41 -4 108 -66 151 -22 15 -47 43 -56 62 -14 30 -14 37 -1 61
12 24 12 31 0 48 -19 25 -18 44 4 68 9 11 12 17 6 14 -18 -11 -44 38 -44 83 0
37 11 52 24 31 3 -5 15 -7 26 -4 11 3 17 10 14 15 -4 6 0 14 7 19 12 7 12 11
-1 22 -24 23 -80 30 -87 11 -5 -13 -8 -13 -22 0 -11 10 -33 13 -73 10 -42 -3
-58 -1 -58 8 0 20 -75 58 -114 58 -19 0 -38 5 -41 10 -3 6 -14 10 -24 10 -27
0 -54 33 -39 48 9 9 9 12 -1 12 -6 0 -17 13 -22 30 -6 16 -14 28 -18 26 -4 -3
-13 0 -21 6 -12 8 -12 9 2 5 12 -4 16 0 15 13 -1 22 -58 41 -65 22 -2 -7 -15
-1 -30 13 -15 14 -31 25 -36 25 -5 0 -6 16 -3 35 3 19 1 37 -4 41 -6 3 -8 12
-5 19 2 7 -1 16 -8 18 -8 3 -14 16 -15 29 -1 13 -2 34 -4 48 -2 24 0 25 56 26
31 0 57 -4 57 -9 0 -15 33 -36 56 -37 11 0 29 -9 39 -20 16 -18 20 -19 27 -5
12 21 38 19 38 -3 0 -29 10 -32 33 -9 l22 22 3 -22 c4 -26 33 -30 71 -9 20 11
21 14 6 20 -9 3 -15 12 -12 20 3 7 -3 32 -14 56 -10 23 -19 50 -19 60 0 10 -7
20 -15 24 -8 3 -15 1 -15 -4 0 -15 -69 -24 -85 -10 -10 9 -15 9 -15 1 0 -20
-26 -11 -55 19 -48 50 -114 35 -85 -20 15 -27 8 -35 -18 -19 -17 10 -23 10
-37 -4 -9 -9 -23 -17 -32 -17 -8 0 -28 -11 -45 -25 -31 -26 -62 -32 -73 -15
-4 6 -19 0 -38 -16 -44 -37 -72 -46 -102 -32 -21 9 -27 8 -43 -12 l-19 -24
-37 22 c-20 12 -45 22 -55 22 -10 0 -23 12 -30 26 -6 15 -15 24 -18 20 -3 -3
-12 2 -19 12 -9 12 -9 19 -1 24 7 4 2 11 -13 17 -14 5 -19 10 -11 10 8 1 12 4
8 7 -3 3 -16 -1 -29 -10 -29 -21 -47 -20 -55 2 -4 9 -13 23 -20 31 -8 7 -11
16 -8 19 3 4 10 0 15 -8 6 -8 10 -10 10 -4 0 17 -53 71 -75 75 -14 3 -21 13
-23 37 -3 34 6 39 38 22 14 -8 25 -4 49 16 26 21 29 29 21 50 -16 42 5 137 24
106 10 -17 76 11 82 36 5 19 13 22 50 22 25 0 44 5 44 11 0 14 102 1 112 -15
5 -7 8 -5 8 6 0 11 11 20 28 24 22 6 65 30 92 52 3 2 -3 10 -14 17 -28 21 -14
47 21 39 39 -9 43 -13 43 -34 0 -10 7 -20 15 -24 8 -3 15 -17 15 -31 0 -16 6
-25 15 -25 8 0 15 -5 15 -10 0 -6 -7 -13 -15 -16 -8 -4 -15 -12 -15 -20 0 -8
-6 -14 -13 -14 -8 0 -21 -8 -30 -18 -14 -16 -14 -19 1 -38 9 -12 33 -25 54
-28 34 -6 37 -5 47 26 17 55 3 128 -25 128 -9 0 -14 12 -14 33 -1 42 -14 58
-73 87 -53 27 -100 80 -91 104 5 12 0 16 -19 16 -25 0 -42 23 -31 41 3 6 0 16
-6 24 -7 8 -13 35 -14 60 -2 55 -26 78 -72 70 -28 -5 -35 -1 -53 27 -11 18
-26 42 -33 53 -7 11 -30 40 -50 64 -43 50 -47 61 -16 53 15 -4 19 -2 14 7 -7
11 -24 98 -29 148 -1 12 -5 25 -9 29 -5 4 -8 25 -8 46 0 45 -8 47 -80 18 -73
-29 -91 -26 -122 21 -16 21 -28 44 -28 50 0 7 -11 9 -26 6 -40 -7 -82 22 -96
68 -10 29 -18 40 -33 40 -11 0 -33 9 -49 21 -25 18 -28 26 -28 73 1 30 7 60
15 70 9 11 13 45 12 120 -1 86 -4 105 -18 113 -17 9 -57 78 -57 97 0 6 7 8 15
5 25 -10 19 52 -7 78 -23 23 -29 77 -14 151 6 31 3 43 -20 72 -17 23 -35 35
-50 35 -13 0 -33 9 -45 21 -27 27 -34 18 -34 -41 0 -58 -24 -90 -67 -90 -16 0
-31 -6 -34 -15 -5 -13 -9 -13 -22 -3 -13 11 -14 9 -8 -15 9 -36 -1 -67 -20
-67 -8 0 -13 -4 -10 -9 3 -4 0 -22 -6 -38 -9 -23 -17 -30 -35 -29 -13 0 -23 7
-23 16 0 8 -13 23 -30 32 -16 9 -29 25 -29 35 -2 77 0 98 14 113 8 9 12 20 8
23 -3 4 3 7 14 7 15 0 22 8 25 30 4 25 1 29 -21 32 -17 2 -27 10 -29 23 -4 22
-30 46 -46 44 -6 -1 -23 -4 -38 -6z m49 -39 c-3 -3 -12 -4 -19 -1 -8 3 -5 6 6
6 11 1 17 -2 13 -5z m-209 -1547 c7 -18 12 -43 12 -55 0 -11 5 -24 10 -27 31
-19 -13 -55 -85 -69 -27 -6 -32 -2 -52 34 l-21 40 32 35 c19 19 43 35 55 35
14 0 21 6 21 20 0 31 15 24 28 -13z m272 -139 c0 -11 -7 -10 -31 2 -28 16 -23
32 6 18 14 -6 25 -15 25 -20z m489 -146 c20 5 38 -29 23 -44 -9 -9 -17 -7 -36
11 -14 13 -22 30 -19 38 4 10 8 11 13 3 4 -6 12 -10 19 -8z m-1648 -1625 c-1
-12 -15 -9 -19 4 -3 6 1 10 8 8 6 -3 11 -8 11 -12z"/>
<path d="M11350 7301 c0 -5 5 -13 10 -16 6 -3 10 -2 10 4 0 5 -4 13 -10 16 -5
3 -10 2 -10 -4z"/>
<path d="M10843 8973 c-15 -5 -17 -23 -4 -23 5 0 11 7 15 15 3 8 4 15 3 14 -1
0 -8 -3 -14 -6z"/>
<path d="M13085 6834 c17 -40 18 -74 2 -74 -8 0 -18 -7 -21 -16 -8 -22 -8 -23
12 -19 9 2 20 4 25 4 4 1 7 8 7 16 0 19 9 19 32 -2 10 -9 21 -13 25 -10 4 4
-2 14 -13 22 -11 8 -14 15 -6 15 7 0 4 8 -8 20 -11 11 -20 24 -20 30 0 5 -10
14 -22 21 -19 10 -20 9 -13 -7z"/>
<path d="M13022 6734 c-14 -16 -5 -18 17 -5 7 5 9 11 5 14 -5 3 -15 -1 -22 -9z"/>
<path d="M13110 6702 c-19 -2 -40 -9 -45 -16 -6 -7 -20 -16 -32 -20 -14 -4
-20 -12 -16 -22 3 -8 -1 -14 -11 -14 -20 0 -21 -14 -1 -30 13 -11 14 -10 9 5
-6 16 -3 15 22 -4 31 -22 67 -20 58 3 -3 7 7 18 21 24 14 7 28 19 31 27 4 8
12 15 18 15 18 0 15 28 -3 32 -9 2 -32 2 -51 0z"/>
<path d="M13352 6384 c2 -11 11 -20 22 -22 13 -3 17 1 14 14 -2 11 -11 20 -22
22 -13 3 -17 -1 -14 -14z"/>
<path d="M11780 6241 c0 -5 5 -13 10 -16 6 -3 10 -2 10 4 0 5 -4 13 -10 16 -5
3 -10 2 -10 -4z"/>
<path d="M11051 6214 c0 -11 3 -14 6 -6 3 7 2 16 -1 19 -3 4 -6 -2 -5 -13z"/>
<path d="M11879 6196 c7 -8 10 -20 6 -26 -9 -15 11 -12 24 3 8 11 5 17 -16 26
-23 11 -25 10 -14 -3z"/>
<path d="M10631 5363 c-11 -13 -12 -17 0 -23 16 -10 29 -4 29 15 0 21 -13 25
-29 8z"/>
<path d="M10502 5268 c-2 -30 -2 -31 11 -14 8 11 19 16 25 12 6 -3 13 -2 17 4
3 5 -2 10 -12 10 -11 0 -23 4 -29 10 -6 6 -11 -1 -12 -22z"/>
<path d="M10630 5289 c0 -5 5 -7 10 -4 6 3 10 8 10 11 0 2 -4 4 -10 4 -5 0
-10 -5 -10 -11z"/>
<path d="M10576 5265 c3 -7 12 -16 19 -19 9 -3 12 0 9 9 -3 7 -12 16 -19 19
-9 3 -12 0 -9 -9z"/>
<path d="M10550 5240 c-11 -7 -12 -12 -4 -20 8 -8 13 -6 17 9 3 12 4 21 4 21
-1 0 -9 -5 -17 -10z"/>
<path d="M10494 5195 c-10 -8 -14 -14 -9 -15 15 0 40 18 34 24 -3 3 -14 -1
-25 -9z"/>
</g>
</svg>
