<?xml version="1.0" standalone="no"?>
<!DOCTYPE svg PUBLIC "-//W3C//DTD SVG 20010904//EN"
 "http://www.w3.org/TR/2001/REC-SVG-20010904/DTD/svg10.dtd">
<svg version="1.0" xmlns="http://www.w3.org/2000/svg"
 width="642.622990pt" height="741.008530pt" viewBox="0 0 642.622990 741.008530"
 preserveAspectRatio="xMidYMid meet">
<metadata>
Created by potrace 1.15, written by Peter Selinger 2001-2017
</metadata>
<g transform="translate(-648.043677,1368.008530) scale(0.100000,-0.100000)"
fill="#222222" stroke="none">
<path d="M7310 13634 c-9 -31 -17 -43 -26 -40 -8 3 -14 1 -14 -4 0 -5 -16 -12
-36 -16 -28 -5 -35 -10 -31 -25 4 -14 0 -19 -14 -19 -11 0 -19 -7 -19 -16 0
-11 -9 -15 -32 -14 -53 3 -74 0 -62 -8 6 -4 13 -15 17 -24 3 -10 12 -16 19
-13 18 6 61 -32 55 -49 -6 -15 -83 -26 -96 -13 -4 4 -13 2 -19 -6 -18 -21 16
-74 63 -100 45 -25 58 -64 41 -128 -8 -31 -6 -40 13 -60 12 -13 18 -25 12 -27
-5 -2 -8 -14 -5 -27 2 -13 0 -27 -6 -30 -6 -4 2 -22 21 -46 28 -36 29 -40 12
-46 -19 -7 -43 -28 -43 -37 0 -3 9 -6 20 -6 17 0 19 -3 10 -19 -13 -26 -13
-91 1 -91 6 0 17 -7 25 -15 9 -8 11 -15 6 -15 -5 0 -9 -19 -10 -41 -1 -23 -6
-47 -11 -53 -16 -19 -23 -83 -13 -103 8 -13 7 -22 -3 -33 -20 -22 -24 -75 -5
-75 13 0 69 -70 70 -87 0 -5 -6 -8 -14 -8 -7 0 -19 -7 -26 -15 -7 -9 -8 -15
-2 -15 14 0 -6 -56 -35 -96 -14 -20 -18 -35 -12 -41 11 -11 2 -43 -12 -43 -5
0 -9 -7 -9 -15 0 -14 -25 -20 -59 -15 -12 1 -13 -1 -2 -13 10 -13 9 -17 -6
-26 -17 -9 -17 -11 -1 -43 21 -41 22 -108 1 -108 -10 0 -12 -6 -8 -20 4 -14
-2 -30 -19 -51 -31 -36 -30 -34 -10 -90 9 -24 18 -72 20 -106 3 -56 1 -63 -16
-63 -18 0 -18 -2 -4 -36 12 -28 13 -39 3 -44 -7 -5 -12 -35 -13 -74 -1 -56 -4
-66 -18 -66 -11 0 -18 -8 -18 -20 0 -14 -7 -20 -21 -20 -19 0 -21 -5 -17 -55
3 -51 1 -55 -19 -55 -32 0 -50 -58 -29 -97 10 -20 11 -34 5 -46 -7 -11 -6 -24
1 -37 8 -16 7 -22 -10 -32 -11 -7 -20 -20 -20 -29 0 -8 -10 -26 -22 -39 -33
-35 -58 -89 -68 -146 -8 -46 -25 -93 -48 -134 -29 -51 -31 -58 -17 -70 19 -16
19 -50 1 -75 -14 -21 -17 -118 -3 -131 4 -4 2 -13 -4 -20 -13 -15 -38 -191
-31 -217 3 -10 -5 -32 -18 -49 -12 -17 -20 -38 -17 -49 5 -19 -16 -73 -24 -64
-3 2 -14 -12 -24 -33 -43 -80 -68 -112 -81 -102 -13 12 -24 -7 -24 -41 0 -10
-6 -19 -12 -19 -10 0 -10 -2 -1 -8 6 -4 27 -31 47 -61 29 -42 35 -61 31 -82
-4 -17 0 -40 9 -58 18 -34 21 -83 7 -109 -12 -23 -21 -173 -10 -166 13 8 11
-10 -2 -23 -8 -8 -8 -17 -1 -30 6 -11 13 -37 15 -59 3 -21 10 -52 16 -67 15
-39 14 -97 -2 -97 -17 0 -15 -122 2 -128 7 -2 16 -15 22 -29 9 -24 -4 -65 -33
-105 -11 -15 -7 -23 21 -52 19 -20 38 -33 43 -30 19 12 5 -24 -22 -56 -20 -22
-30 -45 -30 -67 0 -17 -4 -35 -10 -38 -6 -4 -4 -17 6 -36 25 -50 16 -72 -39
-89 -45 -14 -47 -16 -41 -45 3 -16 17 -39 30 -50 23 -19 24 -25 21 -93 -5 -69
-4 -73 22 -91 22 -16 30 -17 49 -7 17 9 20 14 10 24 -8 8 -8 12 -1 12 17 0 36
-28 29 -45 -3 -9 -12 -15 -19 -13 -7 2 -24 -6 -39 -18 l-26 -21 28 -16 c15 -9
38 -17 49 -17 12 0 21 -5 21 -11 0 -6 7 -8 17 -5 21 8 63 -30 63 -58 0 -20 16
-32 104 -83 11 -7 17 -13 11 -13 -5 -1 -1 -5 11 -10 30 -12 67 -140 41 -140
-7 0 -13 -10 -14 -22 -4 -45 -12 -193 -12 -221 -1 -20 -4 -26 -12 -21 -9 5
-10 2 -5 -12 5 -10 10 -36 13 -56 4 -29 2 -39 -11 -44 -13 -5 -14 -9 -4 -21 7
-9 14 -35 15 -59 3 -35 0 -44 -13 -44 -12 0 -8 -9 15 -35 17 -20 31 -46 32
-58 0 -12 3 -16 6 -9 7 17 20 15 25 -6 4 -14 30 -30 110 -69 4 -2 5 3 2 11 -3
9 -1 16 5 16 6 0 11 7 11 15 0 26 18 16 29 -15 7 -22 7 -30 -1 -30 -20 0 33
-48 60 -56 15 -4 30 -7 35 -6 10 3 77 -59 77 -70 0 -5 -4 -6 -10 -3 -5 3 -10
2 -10 -4 0 -5 9 -12 19 -16 10 -3 21 -15 24 -25 3 -13 14 -20 28 -20 12 0 19
-3 16 -7 -11 -11 14 -32 30 -26 12 5 15 2 11 -9 -6 -15 25 -77 39 -79 5 0 19
-2 33 -3 24 -3 110 -89 110 -111 1 -5 11 -23 24 -39 l23 -28 11 31 c6 17 8 30
4 30 -21 -3 -23 3 -7 21 10 11 24 20 32 20 10 0 11 5 3 19 -14 28 -13 33 8 22
29 -16 46 7 24 32 -12 15 -14 21 -4 24 6 3 12 11 12 19 0 8 8 14 18 14 21 0
52 29 52 48 0 21 17 13 36 -15 9 -15 26 -36 36 -47 10 -11 18 -23 18 -27 0 -4
8 -9 19 -12 24 -6 60 -95 42 -106 -8 -5 -3 -11 14 -19 16 -7 28 -23 31 -41 4
-16 11 -28 18 -26 14 5 40 -15 49 -37 3 -10 18 -20 33 -24 20 -5 31 -1 50 20
22 23 32 26 95 26 39 0 80 -5 92 -11 16 -9 22 -9 25 0 2 6 21 11 43 11 32 0
41 5 51 25 8 19 14 22 24 14 7 -6 18 -8 24 -4 7 4 10 0 8 -11 -2 -14 4 -20 22
-22 14 -2 32 -10 41 -18 15 -13 19 -13 32 1 38 38 122 27 143 -20 10 -20 8
-27 -14 -45 -18 -17 -21 -24 -12 -30 14 -9 52 9 44 21 -2 4 3 12 10 19 12 9
21 7 43 -6 l28 -18 -19 22 c-17 20 -17 22 -2 28 9 4 16 14 14 23 -1 9 4 26 12
38 12 17 19 19 31 10 22 -16 41 -55 30 -61 -16 -11 2 -57 31 -77 19 -14 38
-19 56 -16 17 3 41 -3 65 -16 37 -21 39 -21 52 -4 13 18 14 18 33 -1 35 -35
61 -45 68 -27 5 13 10 11 32 -10 13 -14 29 -25 34 -25 19 0 54 23 87 58 37 40
103 74 125 66 7 -3 25 9 39 25 14 17 30 31 35 31 5 0 15 7 22 15 7 8 23 15 35
15 34 0 66 44 58 81 -3 18 -1 29 6 29 6 0 11 9 11 20 0 11 7 20 15 20 8 0 15
-4 15 -10 0 -5 17 -14 38 -19 49 -14 49 -14 55 8 5 20 5 20 82 1 23 -6 56 1
50 10 -3 6 -2 10 4 10 5 0 13 -5 17 -12 5 -7 10 -4 16 11 4 12 13 19 18 16 14
-9 54 -16 100 -19 19 -1 45 -5 57 -9 28 -10 93 -105 93 -138 0 -33 17 -49 52
-49 23 0 28 4 28 25 0 29 30 45 87 45 19 0 62 12 94 26 50 23 58 30 53 47 -6
18 -3 19 36 12 35 -6 45 -4 61 14 11 12 24 21 28 21 5 0 13 13 19 28 8 23 19
30 61 40 33 7 59 8 75 2 18 -6 28 -5 36 6 7 7 18 14 26 14 7 0 15 8 19 18 3 9
22 27 42 40 l36 23 29 -28 c20 -19 43 -29 76 -33 43 -5 50 -2 80 27 17 18 32
38 32 44 0 7 10 9 24 7 21 -4 24 -1 23 21 -2 19 3 26 18 27 38 3 40 5 20 20
-14 11 -17 17 -8 22 7 4 12 22 10 40 -2 28 -6 32 -30 32 -16 0 -37 5 -48 10
-17 10 -18 8 -9 -16 9 -23 8 -25 -7 -19 -10 4 -26 7 -35 7 -10 0 -23 8 -28 19
-12 21 -5 43 10 34 14 -9 34 36 35 77 1 48 8 54 49 41 36 -11 59 -1 50 22 -7
18 49 27 59 9 4 -8 21 -21 37 -29 45 -23 61 -44 54 -71 -4 -14 -1 -31 6 -39 7
-9 14 -29 15 -44 2 -16 10 -40 19 -52 9 -13 16 -29 16 -37 0 -20 37 -55 52
-49 19 7 50 -12 42 -26 -5 -9 -3 -8 7 1 7 6 21 12 31 12 10 0 21 7 24 15 4 8
12 15 20 15 8 0 14 5 14 11 0 8 5 8 15 -1 17 -14 21 -35 5 -25 -5 3 -10 -2
-10 -11 0 -37 -24 -83 -44 -86 -17 -2 -21 -9 -19 -33 1 -16 -3 -32 -9 -37 -9
-5 -7 -12 5 -26 10 -10 15 -26 12 -34 -4 -9 5 -27 20 -44 14 -15 28 -39 32
-53 6 -25 29 -50 46 -51 5 0 5 5 1 12 -5 8 -2 9 11 4 11 -4 43 -4 72 0 45 5
53 9 53 28 0 20 1 20 20 -4 10 -14 27 -26 37 -27 10 -2 28 -4 41 -6 13 -2 28
-10 33 -18 8 -11 14 -9 35 15 25 29 27 29 40 11 8 -10 14 -34 14 -52 0 -22 6
-36 20 -43 23 -12 40 -6 40 16 0 8 4 14 9 14 5 0 13 9 16 20 3 11 15 20 26 20
10 0 19 5 19 10 0 6 7 10 15 10 8 0 22 12 31 26 16 24 16 27 0 56 -10 16 -16
40 -13 54 3 18 0 24 -14 24 -19 0 -24 18 -20 68 1 13 -3 30 -10 38 -22 27 -2
25 25 -3 22 -22 38 -28 86 -30 41 -3 62 1 73 11 12 13 20 10 62 -20 27 -19 54
-34 60 -34 17 0 45 -34 50 -60 2 -13 11 -30 18 -39 8 -9 13 -21 10 -27 -2 -6
3 -17 12 -24 8 -7 15 -9 15 -5 0 4 7 2 15 -5 12 -10 15 -9 16 6 1 11 1 23 0
27 -1 5 4 7 11 5 20 -7 34 13 41 56 7 42 -8 69 -65 124 -24 23 -25 27 -10 38
12 9 17 31 19 88 1 42 -1 75 -5 73 -4 -3 -20 9 -37 26 l-30 30 34 -6 c28 -6
39 -3 58 15 13 12 23 27 23 35 0 7 9 18 19 25 15 9 17 17 10 34 -5 14 -4 26 1
29 6 4 10 15 10 26 0 11 7 22 15 25 10 4 13 14 9 29 -4 16 1 27 17 39 20 13
23 25 25 83 1 38 2 79 3 91 1 15 9 26 21 29 31 8 33 37 5 78 -14 21 -25 44
-25 51 0 9 -11 14 -29 14 -16 0 -35 8 -42 17 -12 15 -12 16 8 11 15 -4 20 -2
16 8 -2 7 0 21 5 30 6 11 6 27 0 45 -7 21 -5 34 8 56 20 31 73 83 86 83 4 0 8
9 8 20 0 11 4 20 8 20 15 0 9 34 -7 47 -14 11 -14 13 4 14 11 1 23 1 26 1 3
-1 6 6 6 14 0 7 -4 14 -9 14 -8 0 -12 8 -40 79 -30 80 -66 136 -85 134 -29 -3
-79 24 -98 54 -10 16 -29 40 -42 54 -13 15 -24 33 -23 40 7 46 -1 79 -18 79
-10 0 -25 9 -35 20 -9 11 -26 20 -38 20 -27 0 -48 27 -49 61 0 14 -5 30 -12
37 -8 8 -8 15 -1 24 17 21 25 86 13 108 -8 15 -7 27 5 49 15 31 11 61 -9 61
-23 1 -101 90 -78 90 20 0 -2 77 -31 107 -29 31 -30 34 -13 46 16 12 16 15 2
42 -9 17 -16 34 -16 38 0 14 44 46 63 47 11 0 17 8 17 24 0 15 7 26 20 29 26
7 27 64 1 115 -18 35 -19 102 -1 102 13 0 25 45 22 83 -2 24 -8 37 -18 37 -8
0 -14 4 -14 9 0 5 -16 18 -35 30 -19 11 -35 28 -35 36 0 9 -6 26 -12 38 -19
33 -36 105 -28 117 4 6 14 8 23 5 8 -4 25 -2 36 5 17 9 19 15 11 30 -15 27
-12 32 10 20 19 -10 20 -9 14 16 -7 25 -6 26 27 19 29 -7 32 -6 21 8 -10 12
-10 16 1 20 18 7 28 57 16 80 -7 12 -6 19 4 23 15 5 16 31 3 52 -4 8 -14 11
-22 8 -7 -3 -26 5 -41 18 -27 22 -90 54 -145 75 -16 6 -28 18 -28 26 0 9 -12
27 -27 41 -23 21 -28 34 -26 70 1 34 -2 44 -17 49 -10 3 -21 19 -25 34 -7 31
-94 128 -135 149 -60 31 -63 36 -64 119 0 43 -5 81 -10 84 -13 10 -26 102 -15
113 12 13 12 29 -1 21 -17 -10 -47 13 -60 47 -28 77 -97 202 -122 224 -28 23
-52 69 -43 84 2 4 -4 15 -15 25 -11 10 -20 24 -20 32 0 7 -9 13 -19 13 -11 0
-29 14 -41 30 -13 18 -30 30 -44 30 -13 0 -31 9 -41 20 -10 11 -14 20 -10 20
4 0 0 9 -9 19 -10 11 -15 24 -12 30 12 20 -35 103 -50 88 -3 -3 3 -13 14 -23
17 -14 18 -20 9 -35 -7 -11 -19 -19 -29 -19 -9 0 -20 -4 -23 -10 -3 -5 -32
-10 -63 -10 -35 0 -66 -6 -79 -15 -26 -18 -121 -27 -130 -11 -9 13 -12 28 -20
84 -4 32 -10 42 -24 42 -10 0 -20 4 -23 9 -3 5 -21 12 -40 15 -41 8 -52 37
-31 79 l14 29 -24 -16 c-13 -9 -31 -13 -39 -10 -17 7 -22 44 -6 44 6 0 10 7
10 15 0 8 7 15 15 15 9 0 18 7 21 15 4 8 12 15 19 15 15 0 28 27 20 40 -3 5
-12 7 -20 4 -23 -9 -8 87 16 106 17 13 17 19 7 53 -11 36 -14 38 -41 33 -30
-6 -90 14 -102 35 -6 8 -4 10 5 4 10 -6 11 -3 6 16 -4 13 -8 31 -8 39 0 8 -7
23 -15 32 -8 9 -12 22 -8 28 3 6 4 24 0 39 -4 21 -15 33 -37 40 -52 18 -89 61
-53 61 13 0 14 4 5 20 -13 25 12 68 45 76 23 6 65 79 65 114 0 11 7 20 15 20
9 0 19 8 22 18 4 9 10 19 13 22 11 8 18 110 9 116 -19 11 -7 25 19 22 24 -3
28 1 36 34 6 23 17 40 28 44 13 4 17 11 13 25 -4 13 -2 19 9 19 8 0 31 11 50
24 l36 24 -31 23 c-19 15 -30 33 -31 49 0 14 -5 35 -10 47 -7 15 -7 31 1 54 8
24 8 35 0 46 -10 11 -14 10 -24 -3 -17 -23 -32 -11 -33 26 0 19 -10 41 -24 55
l-23 23 4 -44 c2 -28 -1 -44 -8 -44 -17 0 -13 -37 5 -44 9 -3 14 -13 10 -21
-3 -8 1 -18 8 -22 13 -7 20 -32 17 -58 -1 -14 -57 -11 -95 4 -16 7 -32 8 -35
4 -3 -4 -15 -8 -26 -8 -11 0 -20 -7 -21 -15 -2 -34 -5 -38 -29 -44 -14 -4 -23
-11 -20 -16 7 -11 -51 -66 -77 -75 -10 -4 -15 -12 -11 -20 4 -12 -1 -14 -26
-9 -18 4 -37 2 -46 -6 -8 -6 -19 -9 -24 -6 -6 4 -16 -5 -24 -20 l-14 -27 -15
22 c-13 19 -16 20 -22 6 -3 -9 -6 -25 -6 -36 0 -10 -6 -19 -14 -19 -8 0 -17
-7 -20 -15 -3 -9 -14 -15 -23 -13 -15 2 -18 -3 -16 -29 2 -25 -2 -33 -20 -39
-12 -4 -25 -11 -28 -16 -7 -11 -59 -14 -81 -4 -13 6 -18 4 -18 -8 0 -29 -34
-37 -71 -16 -19 11 -42 22 -52 26 -9 3 -16 14 -15 22 2 11 -8 20 -28 27 -17 5
-38 16 -47 23 -19 16 -172 11 -190 -7 -6 -6 -32 -11 -58 -11 -26 0 -51 -4 -54
-10 -3 -5 -18 -10 -32 -10 -21 0 -23 -3 -14 -14 10 -12 8 -17 -8 -26 -12 -6
-21 -7 -21 -3 0 4 -9 -3 -20 -15 -12 -12 -25 -22 -30 -22 -5 0 -15 -6 -22 -12
-7 -7 -27 -18 -45 -24 -33 -12 -53 -3 -53 23 0 7 -9 13 -20 13 -18 0 -19 -3
-10 -20 9 -16 8 -22 -4 -26 -8 -3 -18 -14 -21 -24 -7 -23 -51 -32 -66 -14 -6
8 -20 14 -31 14 -16 0 -19 5 -14 23 3 12 6 28 6 35 0 7 4 11 9 7 5 -3 12 -1
15 4 9 13 -21 34 -39 27 -11 -4 -19 3 -25 19 -5 14 -15 25 -22 25 -7 0 -24 16
-38 35 -14 18 -35 36 -48 40 -13 3 -20 10 -17 14 3 5 -26 36 -64 68 -45 37
-70 66 -70 79 -1 31 -62 88 -108 102 -21 6 -75 13 -121 16 -45 2 -89 10 -97
16 -8 7 -15 9 -15 5 0 -5 -9 0 -20 10 -13 12 -18 25 -14 41 4 16 0 25 -15 34
-12 6 -21 18 -21 26 0 8 -4 13 -9 10 -17 -11 -35 26 -38 76 -2 42 -9 58 -40
93 -29 33 -46 43 -69 44 -22 1 -37 9 -48 26 -12 18 -13 25 -4 25 7 1 1 7 -14
15 -15 8 -29 24 -33 34 -3 11 -12 22 -20 25 -8 3 -22 20 -31 38 -27 52 -102
126 -113 110 -4 -7 -20 -19 -34 -27 -20 -10 -29 -11 -44 0 -10 7 -36 15 -58
19 -22 5 -58 21 -79 37 -22 16 -49 29 -61 29 -12 0 -30 7 -41 15 -28 21 -34
18 -34 -14 0 -23 -5 -30 -25 -33 -14 -3 -28 -1 -31 4 -3 5 -11 4 -19 -2 -10
-8 -26 -5 -64 15 -28 14 -53 25 -56 25 -43 -1 -49 1 -35 10 9 6 10 10 3 10 -6
0 -15 -5 -18 -11 -4 -6 -13 -8 -20 -5 -18 6 -75 -31 -75 -49 0 -14 -3 -14 -29
-1 -16 9 -32 23 -36 33 -6 16 -8 16 -26 -5 l-19 -24 -26 31 c-14 17 -30 28
-35 25 -14 -8 -39 15 -39 37 0 35 -17 19 -30 -27z m-31 -103 c7 -5 10 -14 7
-20 -9 -15 7 -14 22 1 7 7 12 10 13 8 10 -70 10 -70 -20 -66 -15 2 -33 6 -39
10 -6 3 -19 -4 -29 -17 -14 -19 -22 -22 -35 -14 -14 10 -14 13 7 29 13 10 26
32 30 48 7 31 19 37 44 21z m5541 -5601 c0 -5 -4 -10 -10 -10 -5 0 -10 5 -10
10 0 6 5 10 10 10 6 0 10 -4 10 -10z m-1620 -782 c0 -6 -6 -5 -15 2 -8 7 -15
14 -15 16 0 2 7 1 15 -2 8 -4 15 -11 15 -16z m60 -278 c0 -11 -4 -20 -10 -20
-5 0 -10 9 -10 20 0 11 5 20 10 20 6 0 10 -9 10 -20z m-55 -39 c-10 -16 -25
-3 -25 22 0 20 1 20 16 5 9 -9 13 -21 9 -27z m-3521 -87 c3 -8 2 -12 -4 -9 -6
3 -10 10 -10 16 0 14 7 11 14 -7z"/>
<path d="M11250 13533 c-8 -3 -21 -12 -28 -20 -7 -7 -20 -13 -28 -13 -8 0 -23
-9 -34 -20 -11 -11 -27 -20 -36 -20 -9 0 -12 -5 -8 -12 13 -21 10 -120 -3
-125 -7 -3 -13 -13 -13 -22 0 -9 -18 -36 -40 -60 -22 -23 -40 -47 -40 -52 0
-6 -8 -9 -17 -7 -17 3 -18 -1 -14 -34 1 -9 20 -13 64 -11 36 1 75 -5 95 -13
18 -9 40 -14 50 -13 9 1 19 0 22 -1 3 -1 14 -3 25 -5 11 -2 30 -6 42 -10 16
-5 25 -3 29 9 3 9 13 16 21 16 9 0 13 6 9 15 -3 9 0 15 9 15 21 0 39 72 22 85
-8 6 -20 24 -28 40 -8 17 -22 30 -31 30 -10 0 -23 8 -30 16 -7 9 -26 20 -42
23 -30 7 -26 22 9 28 11 1 26 18 34 36 11 23 21 32 39 32 22 0 24 3 17 36 -4
26 -3 34 5 29 8 -5 11 -1 8 10 -2 14 -14 19 -48 21 -25 2 -52 0 -60 -3z m-113
-359 c-3 -3 -12 -4 -19 -1 -8 3 -5 6 6 6 11 1 17 -2 13 -5z"/>
<path d="M11060 13477 c8 -7 21 -19 28 -27 10 -12 12 -12 12 1 0 9 -12 21 -27
28 -23 9 -25 9 -13 -2z"/>
<path d="M11320 6968 c0 -19 2 -20 10 -8 13 19 13 30 0 30 -5 0 -10 -10 -10
-22z"/>
<path d="M11630 6561 c0 -5 5 -13 10 -16 6 -3 10 -2 10 4 0 5 -4 13 -10 16 -5
3 -10 2 -10 -4z"/>
<path d="M7649 6480 c-1 -14 0 -32 1 -40 1 -8 -1 -12 -6 -8 -7 8 -33 -20 -34
-35 0 -5 10 -7 23 -5 14 2 22 10 23 23 1 11 4 29 7 40 4 11 2 27 -3 35 -8 12
-10 10 -11 -10z"/>
<path d="M7600 6476 c0 -2 7 -7 16 -10 8 -3 12 -2 9 4 -6 10 -25 14 -25 6z"/>
</g>
</svg>
