<?xml version="1.0" standalone="no"?>
<!DOCTYPE svg PUBLIC "-//W3C//DTD SVG 20010904//EN"
 "http://www.w3.org/TR/2001/REC-SVG-20010904/DTD/svg10.dtd">
<svg version="1.0" xmlns="http://www.w3.org/2000/svg"
 width="605.941189pt" height="197.581290pt" viewBox="0 0 605.941189 197.581290"
 preserveAspectRatio="xMidYMid meet">
<metadata>
Created by potrace 1.15, written by Peter Selinger 2001-2017
</metadata>
<g transform="translate(-666.917390,1083.608665) scale(0.100000,-0.100000)"
fill="#222222" stroke="none">
<path d="M9513 10823 c-17 -43 -65 -63 -104 -43 -14 8 -26 6 -46 -7 -16 -10
-31 -21 -34 -26 -4 -5 -16 -6 -28 -2 -19 6 -21 4 -15 -20 12 -46 9 -59 -11
-63 -11 -2 -23 -9 -27 -15 -4 -6 -32 -11 -62 -11 -40 1 -56 -3 -56 -12 0 -7
-9 -18 -20 -24 -11 -6 -18 -15 -15 -21 4 -5 -3 -9 -15 -9 -11 0 -23 -6 -26
-14 -4 -11 -12 -13 -29 -6 -15 6 -35 5 -54 -1 -26 -9 -30 -15 -29 -50 0 -22
-6 -48 -15 -57 -8 -9 -12 -23 -10 -29 7 -19 -8 -16 -23 5 -12 16 -13 15 -14
-5 0 -17 -6 -23 -24 -23 -13 0 -29 7 -36 15 -17 21 -29 19 -51 -9 -14 -18 -28
-24 -52 -23 -34 1 -106 -17 -147 -38 -29 -14 -62 -14 -82 2 -18 15 -87 43
-105 43 -8 0 -21 -7 -29 -15 -19 -18 -38 -20 -27 -2 11 18 12 35 3 67 -7 23
-5 30 6 30 18 0 19 29 1 36 -7 2 -13 20 -14 39 -1 18 -8 44 -17 57 -9 12 -16
35 -16 49 0 20 -9 33 -35 49 -19 12 -39 19 -44 16 -5 -3 -11 4 -14 15 -3 12
-10 18 -16 15 -6 -4 -18 1 -28 11 -18 18 -59 20 -48 3 3 -5 1 -11 -4 -14 -5
-3 -4 -26 1 -53 5 -27 11 -66 12 -89 1 -22 12 -54 24 -71 28 -39 37 -80 23
-97 -8 -10 -9 -16 -1 -21 7 -4 7 -12 0 -26 -7 -13 -7 -19 0 -19 14 0 13 -37
-2 -42 -16 -6 20 -138 38 -138 8 0 14 -6 14 -14 0 -9 -8 -12 -24 -9 -21 4 -24
2 -22 -18 6 -58 29 -101 68 -129 l40 -30 -31 -17 c-17 -10 -31 -23 -31 -30 0
-6 -14 -23 -31 -37 -30 -25 -30 -26 -12 -51 10 -13 27 -25 38 -25 11 0 30 -3
42 -6 15 -4 27 1 40 16 31 37 71 53 103 41 21 -7 33 -6 47 4 10 8 25 15 34 15
24 0 69 24 69 36 0 7 6 14 14 17 8 3 16 22 18 44 2 31 7 39 26 41 18 3 22 10
22 37 0 19 4 36 9 40 5 3 12 18 16 34 5 22 10 28 26 24 13 -4 19 0 19 11 0 10
5 14 10 11 6 -3 10 1 10 9 0 8 8 17 18 20 12 4 23 24 31 59 8 28 18 58 24 65
17 22 100 15 141 -13 20 -14 41 -25 47 -25 5 0 17 -16 25 -35 15 -36 30 -38
66 -8 20 18 38 9 38 -17 0 -13 9 -22 28 -26 47 -10 52 -13 52 -32 0 -10 18
-37 40 -60 22 -22 40 -47 40 -55 0 -9 20 -33 45 -55 25 -22 45 -44 45 -50 0
-5 9 -8 20 -5 13 4 22 -1 27 -13 4 -11 13 -25 20 -32 7 -7 13 -22 13 -33 0
-23 26 -25 38 -3 8 15 17 14 92 -5 99 -25 101 -25 94 -8 -6 16 25 19 42 6 7
-6 16 -3 24 6 11 14 10 17 -8 22 -12 3 -22 9 -22 14 0 9 5 11 33 13 6 1 15 6
19 11 5 6 8 5 8 -2 0 -7 5 -13 10 -13 7 0 7 6 0 19 -10 19 -50 19 -50 0 0 -5
-5 -9 -11 -9 -6 0 -18 -7 -26 -16 -13 -12 -18 -13 -24 -3 -4 8 -3 16 3 20 7 4
6 9 -3 13 -8 3 -4 3 9 0 16 -4 22 -1 22 10 0 9 7 16 15 16 8 0 15 5 15 11 0 7
11 9 30 6 17 -4 30 -2 30 3 0 6 5 10 10 10 6 0 10 -9 10 -20 0 -12 5 -17 13
-14 8 3 13 -6 15 -26 1 -18 -3 -33 -11 -35 -13 -6 -16 -73 -4 -93 4 -6 21 -13
37 -17 32 -7 38 -23 18 -43 -9 -9 -9 -12 3 -12 22 0 42 17 35 29 -4 6 -3 18 2
27 5 10 6 32 1 53 -5 24 -4 37 3 40 6 2 20 13 32 25 11 11 24 21 27 21 9 0 39
33 39 44 0 16 48 106 55 102 3 -2 15 -1 27 2 14 4 19 11 15 21 -5 12 0 16 16
16 34 0 42 11 45 65 2 36 8 55 23 67 18 16 19 19 5 24 -9 3 -16 15 -16 25 0
18 2 18 24 4 16 -11 26 -13 31 -5 3 6 11 8 16 5 5 -4 9 10 9 29 0 20 -4 36
-10 36 -5 0 -10 8 -10 19 0 10 -6 24 -14 30 -7 6 -16 25 -20 41 -3 17 -12 30
-19 30 -8 0 -19 11 -25 25 -7 14 -8 25 -2 25 11 0 1 32 -14 42 -6 4 -4 14 7
26 33 36 -11 91 -74 92 -20 0 -57 6 -82 14 -26 8 -47 10 -47 6 0 -4 -12 -11
-26 -14 -19 -5 -37 1 -70 24 -25 16 -47 30 -48 30 -2 0 -7 -11 -10 -24 -5 -19
-11 -23 -28 -19 l-23 6 20 -23 c11 -13 15 -20 8 -16 -7 4 -28 8 -48 10 -19 1
-45 12 -57 23 -13 11 -33 26 -45 32 -29 15 -29 27 -2 34 12 3 18 10 14 17 -4
6 -14 9 -22 6 -8 -4 -30 3 -49 15 -32 20 -34 20 -41 2z"/>
<path d="M12126 10481 c-4 -7 -16 -9 -26 -6 -15 5 -17 2 -13 -15 4 -14 1 -20
-11 -20 -8 0 -23 -11 -32 -24 -8 -14 -21 -23 -28 -20 -7 3 -19 -2 -26 -10 -11
-14 -16 -13 -42 6 -29 20 -30 20 -24 1 4 -14 -2 -27 -24 -46 -18 -17 -34 -44
-41 -72 -8 -33 -16 -45 -30 -45 -23 0 -34 -17 -20 -34 19 -22 -10 -35 -65 -31
-47 4 -52 2 -75 -28 -29 -38 -58 -96 -59 -116 0 -8 -7 -19 -17 -26 -10 -8 -16
-25 -15 -46 2 -66 -6 -82 -38 -77 -17 3 -30 1 -30 -4 0 -5 -25 -8 -57 -7 -47
2 -59 -1 -73 -19 -14 -17 -25 -20 -53 -15 -29 4 -37 2 -46 -16 -6 -11 -24 -27
-39 -35 -15 -9 -22 -16 -17 -17 6 -1 21 -3 35 -4 14 -2 36 -8 49 -13 21 -7 30
-3 61 30 42 42 76 50 76 17 0 -16 -5 -19 -23 -14 -13 3 -23 1 -23 -4 0 -5 -8
-12 -18 -15 -15 -5 -18 -16 -17 -59 2 -28 6 -62 10 -75 6 -17 4 -23 -6 -21 -8
1 -27 -3 -42 -9 -36 -15 -50 -15 -65 0 -6 6 -22 12 -34 13 -33 4 -61 -55 -46
-96 8 -24 7 -34 -6 -48 -19 -21 -9 -66 23 -107 16 -20 18 -30 10 -40 -8 -10
-2 -14 26 -20 28 -5 39 -13 50 -40 8 -19 12 -41 9 -48 -3 -7 2 -16 10 -19 9
-4 16 -18 16 -32 0 -16 6 -25 16 -25 11 0 15 6 11 20 -7 26 13 31 43 10 14
-10 39 -21 56 -24 17 -4 44 -20 60 -37 24 -25 26 -31 14 -39 -13 -8 -13 -12 3
-27 15 -15 19 -16 27 -3 5 8 7 17 4 22 -2 4 11 10 31 14 19 3 38 10 41 15 3 5
23 6 45 3 28 -5 39 -3 39 6 0 9 3 10 13 1 8 -6 17 -8 21 -4 4 4 12 1 17 -7 8
-11 9 -10 4 8 -5 17 -2 22 13 22 17 0 19 6 16 50 -4 54 0 56 62 51 12 -1 24 5
27 13 5 12 14 11 61 -2 50 -14 59 -22 55 -48 -1 -3 18 -26 42 -50 31 -32 51
-44 72 -44 16 0 42 -11 58 -25 l29 -24 45 22 c36 18 44 27 45 50 0 16 4 26 10
22 6 -4 10 5 10 19 0 14 -3 26 -7 26 -5 0 -8 14 -9 30 -1 26 2 30 25 30 15 0
32 -5 39 -12 9 -9 12 -9 12 0 0 6 9 20 21 30 14 14 18 26 14 45 -8 31 -47 75
-53 59 -2 -7 -8 -12 -13 -12 -12 0 -7 43 6 52 6 5 5 12 -3 20 -17 17 -15 75 3
82 8 3 15 16 15 30 0 18 6 26 21 28 16 2 25 14 34 48 7 25 20 62 29 82 15 35
15 38 -1 47 -17 9 -17 10 -1 28 15 17 16 22 3 46 -12 23 -12 27 1 27 8 0 14 6
14 14 0 8 5 16 12 18 8 3 9 15 1 46 -10 38 -9 42 8 42 11 0 32 15 48 33 22 24
33 29 41 21 31 -31 107 52 96 104 -5 22 -1 30 23 44 21 12 32 27 37 53 6 34 4
40 -25 62 -17 14 -31 30 -30 36 3 25 -2 37 -13 35 -13 -3 -14 5 -3 33 4 10 0
19 -11 23 -13 5 -15 2 -11 -16 12 -49 -37 -69 -82 -34 -12 9 -13 7 -9 -11 5
-20 2 -23 -27 -23 -26 0 -39 7 -54 29 -11 16 -35 36 -53 45 -18 8 -44 27 -57
41 -13 14 -33 25 -45 25 -12 0 -31 7 -43 15 -28 20 -128 31 -137 16z m-681
-851 c3 -5 1 -10 -4 -10 -6 0 -11 5 -11 10 0 6 2 10 4 10 3 0 8 -4 11 -10z"/>
<path d="M10372 10030 c-8 -17 -17 -28 -21 -25 -5 2 -6 -7 -3 -20 2 -14 9 -25
14 -25 5 0 6 -4 3 -10 -3 -5 -15 -10 -26 -10 -10 0 -19 -6 -19 -13 0 -13 -49
-37 -89 -43 -16 -2 -30 4 -39 17 -13 19 -15 19 -33 3 -10 -9 -25 -14 -34 -11
-10 5 -15 0 -15 -13 0 -10 -4 -22 -10 -25 -5 -3 -10 -15 -10 -26 0 -10 -4 -19
-9 -19 -4 0 -22 -13 -39 -30 -18 -16 -36 -30 -42 -30 -5 0 -10 -7 -10 -16 0
-12 -3 -14 -13 -6 -8 7 -18 7 -27 2 -13 -8 -12 -9 0 -13 8 -2 29 -9 47 -14 24
-8 36 -8 50 2 10 7 36 13 56 12 31 -1 44 5 68 31 29 31 40 36 66 33 6 -1 14 3
18 8 3 6 13 7 21 4 12 -4 15 0 12 18 -2 17 4 27 27 38 17 9 32 19 33 24 2 4
13 7 24 7 11 0 32 9 47 19 22 16 27 26 23 50 -4 29 -2 31 27 31 17 0 31 4 31
9 0 16 -43 41 -69 41 -13 0 -29 7 -35 15 -9 13 -13 11 -24 -15z"/>
<path d="M10562 9973 c-54 -3 -63 -7 -58 -20 4 -9 2 -19 -4 -23 -6 -4 -6 -17
0 -41 12 -39 4 -89 -13 -89 -7 0 -21 -7 -31 -15 -19 -14 -19 -15 7 -39 29 -27
33 -49 17 -90 -13 -35 4 -33 30 4 20 29 22 29 49 15 16 -8 30 -13 32 -11 2 2
19 6 38 10 l33 6 -4 -46 c-3 -44 -2 -45 21 -41 14 3 35 -2 47 -10 15 -9 24
-11 29 -4 3 6 17 11 29 11 16 0 32 13 50 39 28 40 51 56 67 45 5 -3 9 2 9 10
0 8 13 24 29 35 25 18 33 20 56 9 19 -9 28 -9 37 0 7 7 42 12 85 12 63 0 73 2
73 18 0 32 -17 43 -80 52 -34 5 -86 21 -116 36 -31 15 -60 24 -70 20 -17 -7
-70 21 -60 31 3 3 -13 19 -35 35 -34 25 -45 28 -68 20 -20 -7 -30 -6 -37 4
-11 15 -75 22 -162 17z"/>
<path d="M8070 9890 c0 -11 -7 -20 -15 -20 -11 0 -12 -5 -5 -24 5 -13 6 -27 2
-32 -4 -4 -1 -4 6 0 6 4 12 16 12 26 0 34 11 48 33 43 22 -4 22 -4 3 11 -26
21 -36 20 -36 -4z"/>
<path d="M9650 9830 c10 -6 7 -16 -9 -39 -13 -17 -27 -29 -32 -26 -13 9 -11
-3 6 -29 13 -20 23 -22 75 -21 40 1 64 -3 71 -12 16 -18 27 -16 31 4 2 10 -5
26 -15 36 -11 11 -17 27 -14 37 7 25 -36 52 -86 55 -22 1 -33 -1 -27 -5z"/>
<path d="M8015 9790 c3 -5 8 -10 11 -10 2 0 4 5 4 10 0 6 -5 10 -11 10 -5 0
-7 -4 -4 -10z"/>
<path d="M7988 9763 c-30 -5 -37 -20 -13 -29 20 -8 19 -44 -1 -44 -12 0 -15
-6 -10 -22 3 -13 6 -26 6 -30 0 -13 40 -9 40 4 0 6 3 8 6 5 4 -4 19 1 35 10
23 14 27 22 26 58 -1 29 -6 41 -17 41 -8 1 -22 3 -30 6 -8 3 -27 3 -42 1z"/>
<path d="M6766 9666 c2 -30 -3 -37 -30 -51 -69 -36 -74 -40 -62 -51 7 -6 12
-37 11 -70 -1 -46 3 -62 17 -72 10 -7 16 -17 13 -22 -3 -5 4 -11 15 -15 11 -3
27 -19 36 -34 12 -20 24 -28 43 -28 14 0 35 -3 45 -8 17 -7 19 -5 13 23 -7 35
-5 37 23 22 23 -12 44 11 35 40 -4 11 -2 20 4 20 6 0 11 -6 11 -12 1 -20 51
-53 59 -39 5 7 15 3 31 -14 21 -22 25 -23 40 -10 14 13 18 12 33 -5 9 -11 26
-20 36 -20 21 0 61 -44 61 -66 0 -14 48 -10 82 7 9 5 26 9 38 9 16 0 21 5 18
23 -2 16 3 23 20 25 12 2 22 7 22 12 0 21 -40 70 -115 140 -44 41 -81 78 -83
82 -2 5 -9 8 -17 8 -7 0 -18 7 -25 15 -6 8 -19 14 -28 13 -46 -3 -73 5 -107
32 -21 17 -49 30 -62 30 -13 0 -26 6 -29 14 -3 7 -24 16 -47 19 -23 4 -56 9
-72 12 -29 6 -30 5 -29 -29z"/>
<path d="M9832 9681 c-30 -26 -31 -105 -2 -121 11 -6 20 -19 20 -30 0 -11 9
-24 20 -30 17 -9 20 -8 20 13 0 13 -9 32 -20 42 -24 22 -26 41 -4 49 9 3 12
11 8 18 -4 7 -7 27 -6 45 3 38 -6 41 -36 14z"/>
<path d="M7860 9621 c0 -11 -9 -23 -21 -26 -11 -4 -24 -18 -29 -31 -7 -18 -17
-24 -38 -24 -15 0 -32 -4 -37 -9 -6 -5 -27 -14 -49 -20 -34 -9 -41 -8 -58 12
-10 12 -24 34 -29 49 -12 31 -33 28 -24 -3 5 -15 1 -19 -14 -19 -22 0 -28 -14
-11 -25 6 -4 8 -16 4 -27 -4 -13 0 -24 14 -34 24 -17 18 -64 -9 -71 -11 -3
-19 -12 -19 -20 0 -8 -5 -13 -11 -11 -7 2 -25 -9 -40 -25 -24 -24 -34 -27 -60
-22 -29 6 -30 6 -20 -13 6 -12 11 -31 11 -44 0 -33 65 -99 73 -75 2 7 15 2 36
-16 32 -27 69 -37 55 -16 -4 8 -1 8 12 1 11 -5 36 -12 57 -16 20 -4 37 -13 37
-20 0 -30 24 -46 63 -40 l38 7 -21 22 c-11 11 -20 31 -20 43 0 11 -6 24 -12
29 -8 4 0 10 22 14 41 9 55 -1 64 -43 5 -24 9 -29 18 -20 6 6 11 25 11 42 0
22 5 30 18 30 10 0 21 5 24 10 3 6 17 10 31 10 22 0 24 3 19 23 -18 62 -29 85
-39 81 -6 -2 -16 13 -23 33 -10 32 -10 40 3 50 17 12 20 56 12 131 -6 46 -5
46 21 33 14 -8 21 -4 35 20 9 16 14 34 11 39 -8 13 -65 13 -65 0 0 -7 -6 -7
-20 0 -17 9 -20 8 -20 -9z"/>
<path d="M10584 9556 c-8 -20 9 -47 22 -38 6 4 14 17 18 30 6 18 4 22 -14 22
-11 0 -23 -6 -26 -14z"/>
<path d="M9870 9449 c-14 -4 -20 -7 -15 -8 13 -1 36 -61 29 -72 -3 -5 -1 -9 5
-9 17 0 22 19 10 41 -9 17 -8 23 2 30 22 13 -2 27 -31 18z"/>
<path d="M7785 9070 c-18 -20 -18 -20 8 -20 28 0 32 6 19 28 -7 9 -13 8 -27
-8z"/>
<path d="M7720 8995 c0 -14 5 -25 10 -25 6 0 10 -6 10 -14 0 -9 -13 -16 -32
-18 l-33 -4 28 -12 c15 -6 27 -16 27 -21 0 -14 -26 -32 -35 -23 -5 4 -5 1 -1
-5 9 -15 52 -17 61 -3 3 6 3 16 -2 22 -10 17 -4 70 10 87 10 12 9 14 -5 9 -19
-8 -34 18 -15 26 7 2 4 5 -5 5 -13 1 -18 -7 -18 -24z"/>
</g>
</svg>
