<?xml version="1.0" standalone="no"?>
<!DOCTYPE svg PUBLIC "-//W3C//DTD SVG 20010904//EN"
 "http://www.w3.org/TR/2001/REC-SVG-20010904/DTD/svg10.dtd">
<svg version="1.0" xmlns="http://www.w3.org/2000/svg"
 width="1120.163609pt" height="920.276150pt" viewBox="0 0 1120.163609 920.276150"
 preserveAspectRatio="xMidYMid meet">
<metadata>
Created by potrace 1.15, written by Peter Selinger 2001-2017
</metadata>
<g transform="translate(-471.477241,1477.466203) scale(0.100000,-0.100000)"
fill="#222222" stroke="none">
<path d="M6299 14756 c-10 -20 -15 -23 -30 -16 -11 6 -20 6 -23 1 -4 -5 -1
-11 6 -13 9 -3 8 -10 -5 -23 -23 -23 -37 -58 -37 -95 0 -29 -19 -44 -46 -33
-26 10 -129 -47 -143 -79 -10 -22 -18 -27 -30 -22 -9 4 -28 8 -43 8 -16 1 -28
4 -28 7 0 4 -9 18 -21 33 -20 26 -21 26 -49 9 -21 -12 -28 -23 -24 -37 3 -16
-5 -27 -32 -44 l-37 -24 37 -31 c39 -35 48 -62 17 -52 -15 5 -18 1 -13 -20 3
-20 0 -25 -17 -25 -11 0 -21 -4 -21 -10 0 -5 9 -10 19 -10 27 0 81 -54 82 -82
3 -76 4 -83 18 -80 28 6 71 -21 87 -53 23 -49 93 -69 94 -27 1 12 9 8 29 -16
23 -27 27 -39 21 -60 -4 -15 -13 -26 -20 -24 -7 1 -19 -3 -27 -10 -13 -11 -13
-13 0 -23 13 -9 13 -13 1 -30 -8 -10 -15 -16 -15 -12 -4 18 -6 23 -17 43 -10
19 -16 21 -49 13 -44 -10 -98 4 -113 29 -9 16 -11 16 -23 1 -13 -18 -124 -32
-133 -17 -3 4 -10 6 -15 3 -5 -4 -13 5 -18 18 -7 17 -26 31 -58 43 -26 10 -70
33 -96 51 -27 18 -52 33 -56 33 -4 0 -13 11 -19 25 -7 14 -23 30 -37 37 -14 6
-25 17 -25 24 0 7 -9 18 -21 24 -16 9 -26 8 -45 -5 -20 -13 -29 -14 -39 -5
-12 10 -12 14 0 26 9 9 12 25 9 43 -4 20 -1 30 10 34 12 5 14 14 9 37 -4 21 0
42 12 64 17 32 17 36 1 70 -9 19 -24 39 -33 44 -10 6 -14 16 -10 26 5 13 -1
18 -23 23 -16 3 -27 9 -24 14 3 5 -1 12 -9 15 -9 3 -13 13 -10 24 9 36 -6 66
-41 82 -32 16 -33 16 -29 -1 7 -27 -23 -46 -50 -33 -12 6 -33 14 -47 18 -14 3
-33 13 -42 22 -16 13 -18 13 -24 -1 -3 -9 -3 -21 1 -27 4 -6 -5 -10 -23 -10
-39 0 -44 -8 -26 -43 15 -27 15 -29 0 -24 -9 4 -16 2 -16 -2 0 -5 -9 -7 -20
-4 -15 4 -20 0 -20 -14 0 -19 -22 -25 -45 -11 -6 3 -24 6 -41 6 -27 0 -31 -3
-27 -19 3 -10 0 -19 -6 -19 -5 0 -8 -7 -5 -15 6 -14 -5 -19 -33 -16 -8 1 -10
-5 -7 -14 5 -12 10 -13 17 -6 19 19 40 13 34 -9 -3 -10 1 -27 9 -37 7 -10 14
-25 14 -34 0 -9 11 -20 25 -23 26 -7 28 -13 29 -106 1 -29 4 -35 21 -33 13 1
24 -6 30 -20 6 -12 20 -23 33 -25 12 -2 22 -7 22 -11 0 -5 14 -11 30 -14 24
-5 30 -12 30 -32 0 -14 9 -35 20 -47 12 -13 20 -36 20 -54 0 -36 17 -55 26
-30 3 9 11 13 17 9 7 -4 8 0 2 13 -4 10 -10 31 -13 47 -6 36 19 36 36 0 17
-38 15 -50 -10 -67 -12 -9 -18 -16 -12 -16 5 0 14 4 20 10 5 5 15 6 22 1 10
-6 8 -13 -7 -33 -21 -27 -13 -48 19 -48 21 -1 73 -80 73 -112 0 -16 3 -28 7
-28 14 0 31 -53 21 -63 -7 -7 -2 -16 14 -28 26 -21 45 -24 45 -8 0 5 5 7 10 4
6 -3 10 -15 10 -27 0 -17 -4 -19 -26 -14 -22 6 -25 4 -20 -10 4 -11 2 -15 -8
-11 -8 3 -20 -1 -27 -9 -9 -11 -15 -12 -25 -3 -11 9 -14 8 -14 -5 0 -18 -48
-96 -59 -96 -4 0 -11 4 -16 9 -6 4 -23 13 -40 19 -16 5 -38 13 -47 17 -24 10
-23 -6 2 -33 12 -13 33 -22 49 -22 15 0 36 -9 46 -20 10 -11 24 -20 32 -20 8
0 29 -15 47 -32 92 -89 105 -99 133 -93 16 3 22 2 15 -1 -10 -5 -10 -10 4 -25
16 -18 16 -19 0 -19 -9 0 -27 6 -39 14 -35 22 -85 29 -118 16 -16 -7 -29 -17
-29 -22 0 -5 -10 2 -22 16 -22 24 -97 49 -84 28 3 -6 0 -12 -6 -15 -10 -3 -10
-7 0 -19 16 -20 -1 -68 -24 -68 -13 0 -14 -3 -5 -13 6 -8 8 -17 4 -20 -3 -4
-8 -21 -10 -39 -2 -18 -9 -35 -16 -40 -9 -6 -9 -10 1 -20 11 -11 16 -10 26 5
20 26 52 9 47 -25 0 -4 9 -10 21 -14 31 -9 132 -113 149 -151 8 -18 19 -33 25
-33 16 0 79 -61 87 -83 4 -11 -2 -34 -15 -56 l-22 -38 21 -48 c15 -34 18 -56
13 -71 -5 -13 -4 -26 3 -33 8 -8 7 -14 -6 -23 -9 -7 -18 -26 -19 -43 -1 -16
-6 -35 -10 -42 -6 -8 -4 -10 9 -7 23 6 72 -54 54 -65 -16 -10 -9 -41 15 -76
12 -17 29 -45 38 -62 14 -28 22 -33 51 -33 31 0 35 -3 35 -25 0 -16 6 -26 18
-27 9 -1 24 -2 32 -4 8 -1 20 -2 26 -3 6 -1 16 -13 23 -28 l13 -28 -23 20 -22
20 12 -22 c6 -13 18 -23 26 -23 8 0 15 -5 15 -11 0 -6 -7 -9 -15 -5 -8 3 -15
1 -15 -4 0 -6 6 -10 13 -10 6 -1 -3 -7 -20 -15 -18 -8 -33 -18 -33 -24 0 -5
-16 -15 -36 -21 -19 -7 -38 -18 -41 -26 -3 -8 -15 -14 -28 -14 -12 0 -28 -7
-35 -15 -7 -8 -18 -15 -25 -15 -7 0 -15 -7 -19 -15 -3 -8 -13 -15 -22 -15 -14
0 -14 -2 -3 -16 11 -14 10 -19 -13 -39 l-26 -23 29 -28 30 -29 -22 -18 c-20
-16 -21 -21 -11 -38 18 -29 -40 -125 -85 -141 -28 -10 -33 -17 -33 -44 l0 -32
-57 0 c-41 1 -60 -4 -68 -16 -15 -20 -38 -20 -75 -1 -27 14 -44 5 -20 -10 6
-3 10 -18 10 -33 0 -15 4 -33 9 -41 11 -18 -6 -60 -32 -82 -19 -16 -19 -16 0
-30 11 -8 24 -25 28 -39 4 -14 21 -40 36 -58 16 -18 29 -41 29 -52 0 -10 5
-22 10 -25 17 -10 11 -22 -12 -28 -12 -4 -19 -9 -15 -13 4 -4 2 -13 -4 -20 -6
-8 -8 -21 -4 -31 5 -10 7 -24 6 -30 -2 -12 19 -18 42 -14 5 1 11 -7 14 -18 3
-12 11 -17 19 -14 9 3 12 13 8 30 -6 23 -5 24 14 14 15 -8 21 -8 25 2 3 9 7 9
18 1 8 -6 31 -14 52 -18 20 -4 37 -11 37 -16 0 -6 5 -10 10 -10 11 0 14 33 3
43 -3 4 -12 2 -20 -5 -10 -8 -17 -8 -25 0 -9 9 -9 12 0 12 6 0 9 7 6 15 -7 17
7 20 23 4 7 -7 19 -3 41 15 16 14 37 26 45 26 8 0 20 7 27 15 7 8 22 15 35 15
12 0 30 9 40 20 14 15 22 17 38 9 23 -13 67 6 67 28 0 21 14 15 45 -17 37 -39
70 -37 71 3 1 15 4 30 7 33 10 11 48 -21 44 -38 -5 -18 35 -35 41 -18 2 6 8 8
12 5 14 -9 50 18 50 37 0 24 37 60 58 57 31 -4 70 13 75 32 3 12 14 19 29 19
29 0 68 38 69 66 0 18 1 17 16 -3 8 -13 22 -23 29 -23 10 0 14 -13 14 -39 0
-53 -8 -71 -28 -64 -15 4 -15 3 -2 -6 8 -6 25 -11 37 -11 12 0 25 -4 28 -10 3
-5 14 -10 23 -10 12 0 13 3 4 12 -19 19 -14 28 13 28 17 0 23 4 19 14 -7 19
13 56 31 56 8 0 15 8 15 19 0 20 47 35 74 25 8 -3 24 -1 35 6 18 9 23 7 33
-15 11 -23 16 -26 62 -24 28 2 61 -1 74 -5 14 -4 22 -3 22 3 0 6 9 11 20 11
16 0 19 5 15 28 -7 35 38 72 64 53 9 -6 23 -14 31 -17 42 -16 60 -29 60 -41 0
-7 6 -13 14 -13 7 0 43 -15 79 -34 62 -31 99 -34 82 -6 -6 10 -1 11 19 6 40
-10 55 7 49 57 -3 23 -11 56 -19 74 -18 41 -18 59 2 67 10 4 14 12 10 22 -5
13 -1 15 19 10 17 -4 25 -2 25 7 0 7 8 20 18 29 9 9 28 30 42 47 23 30 66 42
84 24 11 -11 79 -33 104 -33 15 0 22 6 22 20 0 14 7 20 22 20 16 0 19 -3 11
-11 -9 -9 -8 -15 3 -26 18 -19 18 -28 -3 -48 -15 -16 -18 -15 -34 7 l-19 23 0
-31 c0 -20 -6 -34 -16 -38 -10 -4 -14 -12 -10 -22 4 -9 2 -22 -4 -29 -6 -7
-12 -27 -15 -44 -2 -17 -11 -38 -19 -47 -9 -8 -16 -19 -16 -24 0 -5 -14 -11
-30 -15 -30 -6 -38 -31 -16 -46 4 -4 3 -16 -3 -27 -8 -16 -6 -27 12 -53 13
-19 26 -42 30 -51 8 -22 -2 -50 -14 -42 -5 3 -8 -8 -7 -24 1 -17 -4 -37 -11
-46 -12 -14 -16 -14 -42 0 -33 17 -34 14 -15 -49 13 -45 13 -47 -6 -47 -16 0
-19 -5 -14 -24 3 -14 1 -28 -4 -31 -6 -4 -3 -17 10 -34 10 -16 17 -30 15 -33
-3 -3 4 -13 14 -22 11 -10 17 -25 14 -33 -5 -13 -1 -15 20 -11 16 3 31 0 38
-8 6 -8 17 -14 25 -14 7 0 18 -10 25 -21 10 -20 9 -21 -12 -17 -13 3 -31 9
-40 12 -13 6 -18 0 -21 -28 -3 -26 0 -36 10 -36 7 0 20 -16 28 -35 8 -19 18
-35 23 -35 13 0 32 -48 21 -55 -5 -3 4 -31 20 -62 l31 -57 -28 -23 c-16 -12
-31 -22 -36 -23 -4 0 -5 -11 -1 -25 5 -19 2 -25 -10 -25 -12 0 -16 -10 -16
-40 0 -29 4 -40 15 -40 16 0 30 -42 21 -65 -3 -8 -4 -17 -3 -18 6 -9 -34 -37
-52 -37 -18 0 -19 -3 -11 -25 8 -21 6 -32 -13 -56 -21 -29 -21 -31 -5 -43 10
-7 15 -16 11 -19 -3 -4 1 -7 10 -7 8 0 22 7 31 15 8 8 17 15 21 15 3 0 20 -29
37 -65 22 -48 39 -70 62 -81 40 -21 116 -98 116 -118 0 -9 8 -16 19 -16 21 0
37 -30 22 -39 -6 -4 -6 -12 -1 -21 10 -17 -5 -40 -27 -40 -8 0 -11 -5 -8 -11
4 -6 19 -7 35 -4 22 5 32 1 47 -18 10 -13 33 -32 51 -41 18 -9 32 -21 32 -27
0 -6 5 -7 10 -4 16 10 50 -5 44 -19 -3 -8 7 -12 33 -11 21 0 43 4 49 7 5 4 16
3 24 -3 8 -5 25 -9 38 -9 18 0 22 -6 22 -30 0 -17 -5 -30 -12 -30 -7 0 -1 -10
15 -21 15 -11 27 -25 27 -31 0 -29 51 -115 75 -126 16 -7 28 -23 31 -42 8 -37
19 -46 68 -53 21 -3 47 -15 58 -27 10 -11 25 -20 33 -20 8 0 15 -4 15 -9 0
-19 93 -103 117 -106 34 -3 47 -19 35 -41 -7 -13 -5 -22 9 -37 10 -11 16 -23
14 -28 -3 -4 6 -16 20 -27 14 -11 30 -34 36 -51 9 -24 14 -29 24 -21 17 14 84
-28 85 -52 0 -10 5 -18 10 -18 6 0 14 -8 17 -17 8 -21 18 -35 56 -76 23 -24
31 -27 37 -16 7 11 10 10 16 -4 3 -10 21 -24 38 -31 26 -11 34 -11 48 1 13 12
23 12 57 2 23 -7 41 -18 41 -25 0 -10 6 -11 24 -4 15 5 27 5 34 -2 13 -13 105
15 147 45 22 16 43 21 80 20 40 -2 53 1 66 18 13 18 18 19 42 8 15 -7 27 -18
27 -25 0 -6 14 -17 31 -23 40 -14 39 -14 39 4 0 10 10 15 29 15 16 0 32 6 34
13 3 7 6 5 6 -6 1 -16 3 -16 38 -2 21 9 42 23 46 31 6 10 16 13 30 8 28 -10
77 -6 92 6 19 15 71 -36 55 -54 -15 -20 -1 -25 39 -14 26 7 31 12 22 21 -7 7
-15 12 -19 12 -19 1 -81 52 -79 65 1 10 -9 17 -32 20 -44 6 -47 18 -17 63 21
30 46 95 46 118 0 3 -12 11 -26 18 -15 6 -24 14 -21 18 3 3 0 12 -8 20 -17 17
-20 47 -4 37 7 -4 9 0 5 14 -6 17 -3 19 14 15 11 -3 20 0 20 6 0 6 -4 11 -10
11 -5 0 -10 4 -10 9 0 11 42 6 68 -8 31 -16 41 -14 48 14 3 14 9 25 13 25 13
0 46 -28 46 -39 0 -6 3 -10 6 -8 4 1 15 -5 25 -14 26 -23 164 -46 164 -28 0
14 90 50 108 45 12 -4 25 0 32 10 10 11 23 14 47 9 24 -4 47 1 83 18 l50 24
23 -27 c13 -15 40 -33 59 -39 20 -7 39 -18 42 -26 3 -8 12 -15 20 -15 7 0 33
-9 57 -19 29 -14 48 -17 60 -10 13 6 23 3 40 -15 19 -20 26 -22 50 -12 37 13
50 1 55 -51 7 -75 15 -101 34 -118 11 -10 20 -26 20 -36 0 -9 21 -36 48 -59
26 -23 52 -51 59 -63 15 -27 17 -74 3 -82 -14 -8 -3 -25 16 -25 18 0 84 -67
84 -85 0 -7 7 -16 16 -19 8 -3 12 -10 9 -16 -3 -6 1 -7 9 -4 9 3 24 3 34 -2 9
-4 30 -8 45 -8 24 -1 34 -10 57 -51 28 -51 53 -66 125 -78 17 -3 37 -8 46 -12
9 -3 33 1 54 9 30 13 35 19 30 36 -4 12 -2 20 5 20 6 0 8 5 5 10 -3 6 1 10 9
10 17 0 21 17 8 36 -9 14 -81 38 -89 30 -3 -3 -15 1 -27 9 -11 8 -28 15 -38
15 -20 0 -23 17 -8 56 10 26 11 26 25 8 14 -18 15 -17 9 8 -5 24 -3 26 18 21
12 -3 30 -15 39 -26 12 -15 30 -21 65 -22 27 -1 62 -7 77 -13 34 -14 50 -15
42 -3 -3 6 1 14 10 18 12 7 13 16 6 41 -6 19 -6 34 0 37 17 11 9 37 -26 79
-19 23 -42 60 -50 80 -15 34 -15 40 -1 55 13 15 14 23 2 66 -8 28 -17 57 -20
66 -4 9 0 21 9 29 8 7 15 25 15 41 0 15 5 40 12 53 9 21 8 29 -5 44 -19 21
-22 42 -7 42 5 0 7 7 3 15 -3 9 3 25 13 36 16 18 16 24 5 52 -7 18 -13 39 -14
47 -1 8 -10 22 -19 32 -20 20 -25 53 -6 42 8 -5 9 4 4 34 -6 42 -6 42 24 42
22 0 40 9 60 31 16 18 33 28 39 24 15 -9 43 14 34 28 -3 5 -1 7 5 3 6 -3 13
-2 17 4 3 5 0 10 -7 10 -11 0 -11 2 0 9 7 4 19 29 27 54 12 40 12 47 0 47 -7
0 -17 9 -20 20 -4 11 -11 18 -16 15 -17 -11 -9 17 19 74 32 62 30 71 -28 133
-50 53 -75 93 -76 119 0 15 -15 44 -35 67 -27 31 -45 42 -87 51 -64 13 -102 6
-102 -20 0 -10 -4 -19 -8 -19 -14 0 -53 46 -46 53 4 4 -4 17 -17 30 -37 36
-50 62 -36 76 8 8 8 14 0 22 -13 13 26 59 51 59 20 0 20 1 0 42 -18 38 -90 94
-97 75 -2 -7 -10 -1 -17 13 -10 18 -10 25 -1 28 16 5 -6 32 -25 32 -8 0 -19
11 -24 25 -5 14 -17 28 -25 31 -15 6 -21 34 -7 34 4 0 7 16 7 35 0 26 -8 42
-32 64 -18 17 -33 36 -33 45 0 13 -11 23 -89 84 -31 23 -81 104 -81 130 0 8
-8 24 -17 34 -17 19 -12 29 20 41 4 1 12 20 17 41 7 33 5 47 -16 87 -13 27
-24 57 -24 67 0 10 -3 22 -7 26 -21 20 -8 215 15 238 6 6 12 24 12 38 0 14 5
31 11 37 8 8 2 16 -20 29 -16 10 -36 31 -42 47 -11 26 -10 31 16 51 19 16 25
25 16 30 -6 4 -9 12 -5 17 3 5 10 7 15 4 13 -9 11 7 -5 28 -8 11 -20 15 -32
11 -16 -5 -16 -4 -4 5 10 7 11 11 3 11 -7 0 -13 5 -13 10 0 7 6 7 20 0 14 -7
20 -7 20 0 0 5 6 10 13 10 8 0 24 11 37 25 13 14 29 25 37 25 7 0 13 6 13 14
0 8 3 21 6 30 4 12 0 16 -15 16 -14 0 -21 6 -21 20 0 11 -4 20 -9 20 -5 0 -7
8 -4 18 2 11 -6 32 -21 49 -14 17 -26 38 -26 47 0 14 -4 15 -20 6 -11 -6 -20
-17 -20 -25 0 -8 -7 -15 -15 -15 -8 0 -15 -4 -15 -9 0 -5 -12 -11 -27 -13 -20
-2 -29 -9 -31 -25 -5 -32 -19 -28 -42 10 -11 19 -32 39 -46 45 -31 15 -37 15
-29 2 9 -14 -4 -12 -20 3 -8 6 -35 30 -61 52 -25 22 -59 52 -74 68 -16 15 -32
27 -37 28 -4 0 -33 29 -63 64 -30 34 -57 61 -59 59 -2 -2 -11 1 -18 8 -11 9
-16 9 -22 -1 -12 -18 -49 1 -103 53 -32 31 -48 54 -48 71 0 14 -5 25 -11 25
-7 0 -9 -12 -5 -32 3 -18 6 -59 7 -91 2 -45 -2 -62 -18 -80 -11 -12 -28 -48
-37 -79 -17 -56 -17 -57 5 -87 12 -16 21 -42 21 -58 0 -15 3 -32 6 -37 3 -6 6
-21 7 -34 1 -19 -3 -22 -22 -17 -16 4 -23 1 -23 -9 0 -24 -33 -86 -45 -86 -6
0 -16 5 -23 12 -9 9 -12 8 -12 -4 0 -9 5 -20 11 -24 12 -7 -38 -64 -57 -64 -6
0 -15 -7 -18 -16 -4 -10 -13 -13 -26 -9 -11 3 -20 2 -20 -4 0 -5 10 -11 22
-13 29 -4 34 -24 8 -31 -13 -3 -23 0 -27 9 -3 8 -15 14 -27 13 -11 -2 -31 2
-43 9 -12 7 -29 9 -37 6 -12 -5 -16 0 -16 20 0 21 -8 30 -40 43 -24 11 -40 25
-42 38 -2 11 -12 21 -23 23 -15 2 -17 1 -6 -6 10 -8 11 -14 1 -31 -10 -19 -14
-20 -28 -9 -13 11 -15 11 -9 -4 7 -20 -17 -45 -28 -28 -3 6 -11 7 -17 4 -7 -5
-9 -2 -6 7 4 10 -2 15 -18 17 -13 1 -23 -2 -23 -6 4 -22 -4 -33 -26 -42 -14
-5 -25 -15 -25 -21 0 -7 -11 -2 -24 10 -15 14 -28 44 -36 81 -7 33 -19 65 -26
71 -8 6 -14 17 -14 25 0 7 -15 25 -34 39 -19 14 -36 38 -39 53 -3 16 -17 34
-31 42 -15 7 -26 18 -25 24 3 27 -15 55 -40 64 -30 11 -74 6 -79 -9 -5 -14
-32 9 -32 27 0 8 -4 14 -10 14 -5 0 -19 11 -32 24 -29 30 -55 39 -62 21 -3 -8
-16 -21 -30 -30 -24 -16 -27 -16 -52 4 -34 27 -38 26 -52 -4 -10 -21 -18 -25
-49 -23 -21 2 -43 9 -49 17 -5 7 -31 15 -57 18 -39 5 -47 3 -47 -11 0 -17 -16
-22 -22 -6 -1 5 -18 14 -35 19 -30 9 -32 8 -23 -9 13 -24 13 -30 0 -30 -5 0
-10 7 -10 15 0 9 -7 18 -16 22 -11 4 -14 13 -9 30 3 15 0 30 -10 39 -8 9 -15
13 -15 9 0 -3 -10 -1 -22 6 -19 10 -20 9 -13 -7 8 -21 9 -74 1 -114 -2 -14 -5
-28 -5 -31 -1 -4 -13 -10 -27 -13 -31 -8 -64 -45 -57 -64 3 -7 -4 -23 -16 -36
-16 -17 -29 -21 -53 -18 -24 4 -29 2 -23 -9 5 -7 -5 -3 -22 9 -44 31 -88 39
-97 17 -12 -33 -85 4 -86 43 0 7 4 10 10 7 5 -3 7 0 5 7 -3 8 -19 19 -36 25
-25 10 -37 9 -64 -4 -27 -13 -41 -14 -74 -6 -28 7 -41 8 -41 1 0 -19 -29 13
-55 60 -15 26 -24 57 -22 69 7 37 -21 50 -111 55 -72 4 -86 8 -110 31 -16 15
-35 27 -43 27 -28 0 -89 60 -89 88 0 19 -11 35 -35 52 -18 14 -36 35 -39 47
-4 12 -22 34 -42 49 -28 22 -34 32 -30 50 5 20 1 25 -36 35 -24 7 -51 21 -61
32 -10 12 -35 21 -62 25 -36 4 -50 11 -66 33 -11 16 -25 27 -30 24 -5 -4 -19
1 -31 9 -12 9 -42 16 -65 16 -31 0 -48 6 -65 23 -13 13 -43 36 -66 51 -24 15
-41 30 -38 33 3 4 1 12 -4 18 -7 9 -6 16 4 24 12 10 11 19 -7 61 -26 62 -16
105 23 105 16 0 30 9 38 24 10 17 20 22 38 18 17 -3 25 1 30 15 4 13 11 17 24
13 13 -4 23 2 36 23 14 25 25 31 71 36 38 4 62 14 81 31 15 14 31 25 35 25 5
0 6 11 3 24 -6 26 12 36 70 36 17 0 37 7 44 15 7 8 21 15 31 15 12 0 19 7 19
20 0 31 17 24 50 -22 16 -22 30 -37 30 -33 0 17 29 -30 30 -48 0 -16 2 -16 24
-2 13 9 26 25 29 37 5 16 11 19 31 14 19 -5 26 -2 26 9 0 9 9 15 22 15 12 0
29 7 38 15 9 8 38 19 64 24 38 7 49 6 53 -5 6 -17 44 -9 56 12 11 18 31 18 47
-1 7 -8 21 -15 31 -15 14 0 19 7 19 28 0 20 7 33 23 41 19 10 22 19 19 44 -6
45 -40 90 -63 84 -39 -10 -29 55 10 68 11 3 32 3 48 0 15 -3 22 -2 16 1 -8 3
-13 24 -13 50 0 25 -5 54 -10 65 -8 15 -7 19 5 19 12 0 15 15 15 87 0 84 -1
88 -32 120 -18 18 -27 33 -20 33 7 0 12 7 12 16 0 11 6 15 19 11 28 -7 20 22
-10 38 -38 21 -62 28 -93 29 -16 1 -32 8 -36 16 -30 62 -46 88 -67 111 -15 16
-21 32 -17 43 3 9 0 24 -8 34 -8 9 -22 34 -32 54 -16 37 -36 58 -36 40 0 -5
-11 -12 -25 -14 -23 -5 -30 2 -26 25 1 4 -10 12 -23 17 -29 11 -26 46 5 55 10
4 19 10 19 14 0 5 12 21 27 37 29 30 38 64 20 76 -11 7 -57 -39 -57 -56 0 -6
-14 5 -31 22 -35 36 -47 39 -55 17 -7 -17 -37 -20 -65 -5 -24 13 -27 -11 -4
-30 14 -11 13 -14 -7 -25 -19 -10 -25 -9 -35 3 -7 8 -10 19 -6 25 3 6 2 8 -3
5 -5 -3 -18 -2 -29 2 -13 5 -26 2 -37 -8 -17 -14 -19 -13 -28 15 -9 25 -21 33
-80 52 -39 12 -70 26 -70 32 0 5 4 9 8 9 5 0 14 10 19 23 9 19 8 26 -8 36 -11
6 -25 9 -31 5 -5 -4 -15 0 -20 7 -8 11 -9 10 -5 -3 5 -13 -5 -19 -44 -29 -27
-7 -49 -16 -49 -21 0 -4 -9 -8 -19 -8 -11 0 -23 -4 -26 -10 -14 -23 -42 -29
-68 -15 -48 25 -107 19 -107 -11 0 -8 -1 -14 -2 -14 -28 1 -109 37 -144 64
-25 19 -67 42 -93 51 -26 8 -61 28 -77 43 -59 56 -62 57 -75 28z m-249 -262
c0 -8 -5 -12 -10 -9 -6 4 -8 11 -5 16 9 14 15 11 15 -7z m1395 -184 c3 -5 -1
-10 -10 -10 -9 0 -13 5 -10 10 3 6 8 10 10 10 2 0 7 -4 10 -10z m-1081 -62 c4
-17 2 -28 -4 -28 -5 0 -10 14 -10 32 0 36 4 35 14 -4z m1410 -607 c3 -5 -2
-19 -13 -32 l-18 -23 5 32 c4 31 15 41 26 23z m-2654 -421 c0 -11 -7 -20 -15
-20 -8 0 -15 9 -15 20 0 11 7 20 15 20 8 0 15 -9 15 -20z m850 -20 c0 -5 -4
-10 -10 -10 -5 0 -10 5 -10 10 0 6 5 10 10 10 6 0 10 -4 10 -10z m100 -116 c9
-10 8 -22 -1 -49 -15 -40 -20 -42 -43 -16 -12 13 -14 21 -6 26 8 5 8 11 -1 21
-17 20 -4 43 20 37 11 -3 25 -11 31 -19z m-320 -44 c0 -5 -4 -10 -9 -10 -6 0
-13 5 -16 10 -3 6 1 10 9 10 9 0 16 -4 16 -10z m140 -150 c0 -5 -2 -10 -4 -10
-3 0 -8 5 -11 10 -3 6 -1 10 4 10 6 0 11 -4 11 -10z m4894 -1284 c-5 -13 -9
-14 -21 -4 -13 10 -13 13 4 19 23 8 25 6 17 -15z m-1250 -2252 c7 -19 -9 -18
-28 2 -21 20 -20 23 3 17 11 -3 22 -11 25 -19z m12 -42 c6 -9 19 -17 28 -18
36 -5 43 -13 44 -48 1 -28 -2 -36 -16 -36 -34 0 -62 13 -62 27 0 8 -11 31 -25
51 -14 20 -25 40 -25 43 0 12 44 -4 56 -19z m-228 -234 c18 -18 15 -28 -8 -28
-11 0 -23 -7 -26 -15 -8 -19 -21 -19 -21 -1 0 8 11 17 25 21 19 5 22 8 12 20
-15 18 1 20 18 3z m172 -28 c0 -5 -2 -10 -4 -10 -3 0 -8 5 -11 10 -3 6 -1 10
4 10 6 0 11 -4 11 -10z m63 -69 c8 -16 11 -34 7 -41 -10 -16 -73 -8 -76 10 -1
8 -5 23 -9 33 -6 15 -4 17 18 12 14 -4 28 -2 31 4 10 16 13 14 29 -18z m1517
-642 c0 -5 -4 -9 -10 -9 -5 0 -10 7 -10 16 0 8 5 12 10 9 6 -3 10 -10 10 -16z
m85 -19 c3 -5 12 -7 19 -4 8 3 17 1 21 -5 6 -11 -7 -15 -32 -12 -7 1 -13 -7
-13 -19 0 -11 -4 -20 -10 -20 -5 0 -10 16 -10 35 0 33 12 46 25 25z"/>
<path d="M9565 9240 c4 -6 11 -8 16 -5 14 9 11 15 -7 15 -8 0 -12 -5 -9 -10z"/>
<path d="M7398 14653 c-19 -5 -33 -37 -23 -53 8 -13 42 9 48 32 6 21 -1 26
-25 21z"/>
<path d="M5715 14440 c3 -5 11 -10 16 -10 6 0 7 5 4 10 -3 6 -11 10 -16 10 -6
0 -7 -4 -4 -10z"/>
<path d="M7853 14068 c-2 -16 1 -18 10 -9 7 7 8 14 1 21 -6 6 -10 2 -11 -12z"/>
<path d="M7760 13270 c0 -11 2 -20 5 -20 2 0 9 9 15 20 9 16 8 20 -5 20 -8 0
-15 -9 -15 -20z"/>
<path d="M10306 12835 c5 -11 2 -13 -10 -9 -11 4 -16 1 -16 -10 0 -9 5 -16 10
-16 15 0 12 -30 -4 -36 -11 -4 -12 -12 -4 -35 5 -16 14 -29 19 -29 5 0 9 -8 9
-19 0 -14 6 -18 27 -15 15 1 29 8 31 13 2 6 8 9 12 6 5 -3 12 11 16 31 5 25 3
39 -6 44 -7 4 -11 17 -8 28 4 15 -2 22 -28 33 -19 7 -34 16 -34 21 0 4 -4 8
-10 8 -5 0 -7 -7 -4 -15z"/>
<path d="M10213 12706 c3 -16 -45 -36 -64 -25 -20 10 -34 -4 -25 -26 2 -7 0
-15 -5 -17 -7 -2 -7 -13 0 -31 7 -17 16 -25 22 -21 6 3 15 1 20 -7 11 -19 81
53 73 75 -4 11 0 16 14 16 13 0 21 8 24 25 5 23 3 25 -28 23 -18 -1 -32 -6
-31 -12z"/>
<path d="M10330 12641 c0 -5 5 -13 10 -16 6 -3 10 -2 10 4 0 5 -4 13 -10 16
-5 3 -10 2 -10 -4z"/>
<path d="M10115 12500 c-4 -6 -11 -8 -16 -5 -5 4 -9 1 -9 -4 0 -15 13 -14 36
4 10 8 14 15 7 15 -6 0 -15 -5 -18 -10z"/>
<path d="M10026 12476 c4 -11 2 -21 -6 -26 -11 -7 -10 -14 2 -40 17 -35 22
-32 32 16 5 23 2 34 -14 49 -19 18 -20 18 -14 1z"/>
<path d="M9190 12040 c-24 -15 -7 -18 20 -3 14 7 18 13 10 13 -8 0 -22 -4 -30
-10z"/>
<path d="M7164 11224 c3 -8 6 -18 6 -20 0 -3 5 -2 10 1 15 9 12 22 -6 29 -12
5 -15 2 -10 -10z"/>
<path d="M7170 11180 c-9 -6 -10 -10 -3 -10 6 0 15 5 18 10 8 12 4 12 -15 0z"/>
<path d="M9627 8866 c-4 -10 -1 -13 8 -9 8 3 12 9 9 14 -7 12 -11 11 -17 -5z"/>
<path d="M11670 8399 c0 -5 5 -7 10 -4 6 3 10 8 10 11 0 2 -4 4 -10 4 -5 0
-10 -5 -10 -11z"/>
<path d="M11600 8346 c-7 -17 -18 -34 -24 -38 -8 -6 -6 -11 4 -18 11 -7 19 -4
31 11 13 18 19 19 37 10 29 -16 48 17 27 45 -8 11 -15 16 -15 12 0 -4 -10 -4
-23 1 -20 8 -25 5 -37 -23z"/>
<path d="M11472 8295 c-6 -8 -19 -12 -27 -9 -32 13 -13 -8 23 -24 32 -14 34
-17 15 -20 -15 -2 -20 -8 -16 -19 4 -11 2 -14 -5 -9 -12 7 -36 -29 -28 -43 3
-5 17 -11 30 -13 22 -4 24 -3 16 13 -14 26 -13 29 16 29 33 0 64 17 64 35 0 9
6 12 16 8 14 -5 15 -3 5 15 -7 14 -17 19 -31 15 -14 -4 -20 0 -20 10 0 9 8 18
18 20 9 3 -1 5 -23 5 -23 1 -45 -5 -53 -13z"/>
<path d="M10911 8254 c13 -14 25 -20 27 -15 2 6 10 11 18 11 8 0 14 4 14 9 0
10 -34 21 -64 21 -18 0 -18 -2 5 -26z"/>
<path d="M11382 8135 c-8 -18 -22 -26 -52 -31 -29 -5 -38 -10 -31 -18 12 -15
-3 -41 -18 -32 -6 4 -11 0 -11 -11 -1 -32 -23 -51 -53 -46 -24 5 -27 2 -27
-20 0 -17 -7 -28 -20 -32 -11 -3 -20 -11 -20 -16 0 -5 -6 -9 -14 -9 -15 0 -31
-74 -20 -92 4 -6 1 -14 -5 -18 -9 -5 -8 -18 5 -50 14 -35 15 -48 6 -74 -7 -18
-12 -38 -12 -45 0 -7 -9 -24 -20 -38 -28 -35 -25 -60 10 -100 17 -18 30 -38
30 -43 0 -9 35 -23 60 -24 11 -1 15 -12 13 -45 -1 -36 3 -48 23 -63 23 -19 35
-46 14 -33 -6 3 -15 -6 -20 -20 -13 -34 -13 -35 4 -35 8 0 16 -4 18 -9 7 -19
78 -10 78 10 0 5 7 9 16 9 8 0 12 5 9 10 -3 6 4 14 17 19 21 8 21 10 5 16 -12
5 -16 14 -12 26 5 13 -5 29 -32 54 -21 19 -43 35 -49 35 -15 0 -24 48 -10 54
6 2 3 5 -6 5 -25 1 -29 15 -17 51 9 25 16 30 33 26 39 -10 65 3 63 32 -2 22 3
28 24 30 21 3 27 11 37 50 16 66 18 95 8 111 -7 11 -5 13 6 9 11 -5 14 0 12
17 -2 22 1 23 34 18 21 -3 51 -9 69 -13 25 -6 35 -4 49 11 10 12 30 19 51 19
22 0 32 4 27 11 -3 6 -19 9 -35 5 -15 -3 -31 -1 -34 4 -4 6 -11 8 -16 5 -12
-8 -18 10 -21 59 -3 40 -11 48 -60 66 -21 7 -28 16 -28 36 0 15 -7 35 -16 45
-12 14 -13 22 -4 39 9 18 8 25 -6 41 -23 26 -39 24 -52 -6z"/>
<path d="M11792 7860 c0 -14 2 -19 5 -12 2 6 2 18 0 25 -3 6 -5 1 -5 -13z"/>
<path d="M11740 7814 c0 -13 30 -41 30 -28 1 5 9 -1 20 -14 10 -13 17 -29 14
-36 -3 -8 0 -17 5 -21 6 -3 9 -11 6 -16 -4 -5 -2 -9 4 -9 11 0 61 -86 61 -106
0 -8 -6 -14 -13 -14 -8 0 -14 -12 -14 -30 0 -33 -29 -73 -47 -63 -6 3 -8 3 -4
-1 3 -4 -5 -24 -18 -44 -14 -20 -23 -41 -20 -48 6 -16 -19 -26 -49 -18 -24 6
-43 -10 -25 -21 5 -3 10 -10 10 -15 0 -13 -60 10 -82 32 -22 22 -61 24 -78 3
-7 -9 -19 -14 -27 -11 -9 4 -13 -4 -13 -24 0 -25 -4 -30 -25 -30 -18 0 -26 -7
-31 -25 -5 -19 -13 -25 -34 -25 -20 0 -39 -11 -64 -37 -29 -32 -37 -35 -50
-24 -13 11 -16 11 -16 -2 0 -9 -9 -21 -20 -27 -11 -6 -20 -15 -20 -21 0 -6 5
-7 11 -4 5 4 15 -7 22 -24 7 -20 20 -32 38 -36 15 -4 46 -26 68 -50 22 -24 42
-40 45 -37 3 3 5 -10 3 -28 -2 -25 -10 -38 -32 -50 -17 -10 -36 -15 -43 -12
-13 4 -12 -10 4 -69 3 -9 -2 -22 -11 -29 -19 -15 -2 -52 20 -44 17 7 21 -21 5
-31 -6 -4 -8 -11 -5 -16 4 -5 2 -9 -4 -9 -6 0 -8 -7 -5 -15 5 -11 2 -13 -10
-9 -11 4 -15 2 -11 -8 4 -9 -4 -20 -20 -28 -23 -12 -24 -15 -10 -30 8 -9 22
-38 31 -63 9 -26 20 -49 24 -52 12 -8 -1 -127 -17 -151 -12 -19 -11 -27 3 -58
14 -28 15 -41 7 -58 -21 -44 -22 -57 -5 -67 15 -9 15 -11 -1 -29 -18 -20 -15
-72 4 -72 5 0 9 -9 9 -21 0 -12 8 -23 18 -26 23 -6 43 -52 36 -80 -4 -13 -2
-23 4 -23 6 0 16 -16 22 -36 8 -25 15 -32 20 -24 6 10 16 9 47 -5 21 -10 44
-25 51 -34 12 -15 14 -15 24 1 11 15 15 15 49 -3 21 -10 40 -23 44 -28 3 -5
19 -17 36 -25 28 -14 34 -14 61 0 16 8 32 22 35 30 4 11 13 14 30 9 19 -4 26
-1 30 14 4 17 8 18 25 8 16 -10 22 -9 32 5 12 17 56 18 124 3 12 -3 22 -1 22
4 0 11 31 23 70 27 47 6 50 7 50 16 0 13 20 9 36 -7 19 -18 44 -20 44 -2 0 8
4 7 10 -3 14 -21 12 -30 -6 -30 -8 0 -12 -4 -9 -10 3 -5 -3 -10 -13 -10 -13 0
-21 -9 -24 -25 -4 -19 -1 -25 13 -25 10 0 21 -5 24 -11 4 -6 13 -8 20 -5 8 3
19 -2 25 -10 10 -11 10 -14 1 -14 -7 0 -10 -4 -7 -8 3 -5 -4 -16 -15 -25 -10
-9 -19 -21 -19 -26 0 -12 20 -27 45 -33 11 -3 29 -9 39 -14 14 -5 17 -4 11 6
-5 8 -3 11 6 8 8 -3 16 -13 17 -24 5 -25 18 -38 31 -30 7 5 6 15 -5 32 -9 13
-14 32 -11 43 2 10 0 26 -6 36 -7 14 -6 21 7 31 11 8 13 14 7 19 -6 3 -11 15
-11 26 0 14 -7 19 -25 19 -35 0 -42 26 -15 55 12 13 19 28 16 33 -8 13 26 72
41 72 17 0 5 30 -23 58 -28 27 -31 42 -7 42 13 0 14 3 5 12 -19 19 -14 45 15
67 22 18 25 25 15 45 -10 22 -8 24 18 28 16 3 32 0 34 -6 3 -7 5 -6 5 2 1 6
12 12 24 12 22 0 24 4 23 52 -1 39 3 57 17 71 18 18 20 18 46 -7 15 -14 32
-26 39 -26 7 0 12 -8 12 -17 0 -15 1 -15 13 -1 6 9 23 18 37 20 20 2 26 10 31
38 l5 35 14 -27 c7 -16 24 -29 41 -33 15 -4 33 -13 40 -21 6 -8 20 -14 30 -14
31 0 65 -21 83 -51 9 -16 14 -29 10 -29 -4 0 1 -6 11 -14 10 -7 27 -11 37 -8
10 2 29 -3 42 -11 23 -16 66 -13 66 4 0 5 10 9 21 9 18 0 19 2 9 15 -10 13 -9
15 12 15 14 0 36 -13 54 -31 35 -37 74 -59 132 -75 41 -11 42 -10 42 13 0 22
3 23 40 17 35 -6 40 -4 40 13 0 10 11 34 25 53 14 19 24 39 21 45 -6 16 24 32
54 30 14 -2 33 2 43 7 10 5 24 5 35 -1 10 -5 24 -6 32 -1 9 6 30 0 59 -17 40
-22 46 -23 56 -9 7 9 20 13 32 10 15 -4 23 0 28 14 8 27 31 31 81 13 34 -12
47 -13 68 -3 22 10 25 16 20 39 -4 16 -15 36 -25 46 -24 23 -14 50 15 41 11
-4 25 -13 31 -21 13 -17 75 -7 75 13 0 8 9 14 20 14 23 0 24 8 10 44 -8 23 -7
26 15 32 14 3 25 14 25 23 1 25 47 54 75 47 13 -3 27 -1 31 5 3 6 19 9 33 6
23 -5 29 -1 41 26 7 18 13 40 12 50 -1 10 5 28 13 40 8 12 15 31 15 42 1 18 1
19 11 2 6 -9 15 -15 20 -12 5 4 6 12 2 18 -4 7 -10 33 -13 59 -5 39 -4 45 7
36 30 -24 17 41 -15 74 -19 21 -29 25 -39 17 -10 -9 -13 -8 -13 1 0 7 -7 10
-16 6 -9 -4 -22 -2 -28 3 -14 12 -98 -7 -145 -33 -27 -14 -45 -17 -90 -11 -31
4 -60 10 -66 13 -31 19 -75 0 -75 -32 0 -9 -4 -16 -8 -16 -12 0 -32 -47 -32
-76 0 -18 -9 -29 -35 -41 -19 -9 -32 -20 -29 -24 2 -4 0 -11 -6 -14 -6 -4 -9
-1 -8 6 4 15 -58 24 -67 9 -3 -5 -21 -10 -40 -10 -25 0 -35 -5 -40 -19 -4 -15
-11 -18 -25 -13 -26 10 -82 83 -76 99 3 8 -2 13 -14 13 -15 0 -20 7 -20 26 0
17 -12 37 -35 59 -23 20 -33 38 -30 47 4 9 2 19 -4 23 -8 4 -8 12 -1 25 7 14
7 25 -1 37 -16 26 -73 65 -77 53 -6 -17 -47 -11 -69 10 -15 13 -19 26 -15 42
5 18 7 19 10 6 4 -21 40 -34 55 -19 9 9 8 17 -1 31 -7 11 -8 20 -3 20 5 0 7 9
4 20 -3 11 -9 20 -14 20 -5 0 -9 9 -9 20 0 12 7 20 16 20 23 0 43 29 44 62 0
15 5 30 10 33 6 4 8 15 5 26 -4 11 -2 19 4 19 6 0 11 7 11 15 0 8 -5 15 -11
15 -5 0 -7 5 -4 11 13 19 -5 59 -33 73 -21 11 -39 12 -76 5 -42 -8 -52 -6 -80
14 -17 12 -33 22 -36 22 -26 2 -71 35 -84 63 -14 28 -21 33 -39 28 -14 -3 -33
1 -46 10 -17 12 -25 13 -36 4 -12 -10 -18 -10 -29 -1 -12 10 -20 9 -40 -4 -20
-13 -37 -15 -78 -10 -29 4 -63 11 -74 16 -13 4 -26 3 -32 -3 -7 -7 -18 -4 -36
7 -25 16 -28 17 -45 1 -17 -16 -20 -15 -46 20 -24 31 -29 34 -37 20 -5 -9 -6
-25 -3 -36 8 -26 2 -25 -51 6 -36 21 -52 25 -81 19 -20 -4 -42 -14 -49 -23 -8
-10 -33 -18 -74 -22 -56 -5 -64 -4 -86 18 -13 14 -24 36 -24 51 0 14 -4 31 -8
37 -12 17 -39 23 -51 11 -15 -15 -51 19 -51 50 0 12 -5 23 -11 23 -7 0 -18 8
-25 18 -12 15 -13 15 -14 1 0 -26 -32 -46 -83 -52 -42 -4 -49 -2 -66 21 -16
23 -29 27 -85 32 -46 4 -66 2 -66 -6z m-172 -628 c0 -17 -5 -23 -14 -19 -16 6
-16 6 -8 27 9 24 22 19 22 -8z m-86 -221 c0 -5 -5 -11 -11 -13 -6 -2 -11 4
-11 13 0 9 5 15 11 13 6 -2 11 -8 11 -13z"/>
<path d="M11006 7361 c-4 -6 -16 -11 -26 -11 -12 0 -22 -9 -26 -25 -3 -13 -12
-29 -20 -36 -12 -10 -11 -14 6 -26 11 -8 23 -12 28 -10 15 9 47 -11 47 -29 0
-46 76 -14 87 36 3 14 7 32 9 40 3 11 -4 14 -28 11 -27 -2 -36 3 -52 29 -11
19 -22 27 -25 21z"/>
<path d="M10791 7309 c-1 -9 -11 -21 -24 -28 -18 -10 -22 -19 -19 -41 3 -22
-2 -32 -22 -45 -16 -11 -26 -26 -26 -41 0 -14 -7 -27 -15 -30 -8 -4 -15 -18
-15 -34 0 -32 -34 -80 -57 -80 -11 0 -13 -5 -8 -17 4 -10 8 -29 9 -43 1 -17 7
-24 16 -21 61 16 70 10 45 -29 -59 -91 -60 -95 -31 -133 14 -18 26 -39 26 -44
0 -6 13 -25 30 -43 16 -18 28 -36 25 -40 -3 -5 4 -6 15 -3 21 6 25 -3 11 -26
-6 -9 -11 -10 -15 -2 -4 6 -12 11 -19 11 -6 0 -3 -6 6 -12 9 -7 18 -24 19 -38
3 -25 36 -60 58 -60 6 0 8 -5 4 -12 -5 -8 -2 -9 12 -4 10 4 33 10 49 13 17 3
36 10 42 16 7 5 22 7 33 4 11 -3 23 -1 26 4 3 5 16 9 28 9 24 0 56 37 56 64 0
22 75 43 94 27 8 -7 19 -10 24 -7 12 7 52 -22 52 -39 0 -8 9 -13 20 -12 21 1
37 37 25 57 -3 5 1 13 9 16 10 4 16 18 16 38 0 24 -3 27 -10 16 -16 -24 -12
-9 14 55 14 33 30 61 35 63 17 6 13 43 -6 64 -9 11 -17 31 -18 46 0 19 -5 26
-16 24 -12 -2 -18 9 -23 37 -8 50 -20 58 -52 32 -15 -12 -34 -21 -44 -21 -28
0 -70 39 -70 65 0 16 -7 25 -25 29 -14 4 -31 18 -37 32 -12 26 -46 40 -79 31
-13 -3 -36 3 -58 16 -20 13 -45 27 -56 33 -11 7 -27 34 -37 65 -9 30 -17 47
-17 38z"/>
<path d="M11170 7181 c0 -9 31 -31 44 -31 3 0 6 7 6 15 0 8 -4 15 -9 15 -5 0
-16 3 -25 6 -9 3 -16 1 -16 -5z"/>
<path d="M11171 7132 c-2 -27 20 -52 44 -52 14 0 25 -5 25 -12 0 -6 2 -9 5 -6
3 2 0 19 -6 37 -10 27 -15 32 -34 27 -14 -4 -25 -1 -28 7 -4 9 -6 9 -6 -1z"/>
<path d="M15570 7075 c0 -8 7 -15 15 -15 8 0 15 4 15 9 0 5 -7 11 -15 15 -9 3
-15 0 -15 -9z"/>
<path d="M15520 7053 c0 -5 4 -14 9 -21 6 -10 10 -9 14 7 3 14 0 21 -9 21 -8
0 -14 -3 -14 -7z"/>
<path d="M15588 7045 c-3 -3 -4 -19 -2 -36 4 -33 -17 -49 -40 -30 -7 6 -15 9
-17 7 -2 -2 -23 -1 -46 3 l-41 8 -17 -44 c-10 -25 -23 -47 -31 -50 -8 -3 -14
-11 -14 -18 0 -10 -7 -11 -35 -2 -41 12 -44 10 -49 -32 -5 -44 -16 -53 -51
-42 -25 7 -33 4 -50 -17 -11 -13 -28 -33 -37 -43 -10 -11 -18 -25 -18 -33 0
-22 -65 -30 -94 -11 -23 15 -25 15 -39 -5 -22 -32 -67 -53 -108 -51 -48 1
-179 -33 -189 -49 -5 -8 -19 -11 -35 -8 -33 7 -94 -8 -117 -29 -9 -8 -22 -12
-28 -8 -17 10 -70 -5 -70 -21 0 -20 -11 -18 -50 11 -36 27 -67 34 -53 13 4 -7
6 -23 4 -35 -1 -16 3 -23 13 -23 18 0 20 -5 7 -28 -8 -15 -4 -17 28 -17 37 1
71 22 71 45 0 18 25 6 28 -13 2 -10 -3 -17 -11 -17 -8 0 -25 -8 -38 -19 -13
-10 -30 -16 -36 -14 -7 3 -13 -2 -13 -10 0 -8 -9 -25 -19 -38 -19 -24 -19 -24
-40 -5 -21 19 -22 19 -49 -7 -20 -19 -31 -24 -39 -16 -7 7 -12 3 -17 -16 -4
-14 -11 -23 -16 -20 -6 3 -7 -1 -4 -10 4 -9 -1 -21 -11 -28 -9 -7 -15 -22 -13
-33 2 -13 -3 -20 -19 -22 -13 -2 -23 -10 -23 -18 0 -8 -6 -14 -12 -14 -9 0
-10 -2 -2 -8 14 -8 15 -60 3 -68 -5 -3 -18 -7 -30 -9 -35 -7 -50 -25 -39 -45
14 -26 13 -30 -11 -38 -21 -8 -20 -8 5 -33 14 -13 26 -31 26 -39 0 -9 6 -22
13 -29 10 -10 8 -15 -8 -27 -14 -11 -15 -15 -5 -14 34 5 48 -1 54 -22 6 -18 9
-20 14 -8 8 17 18 20 67 22 24 1 37 8 46 25 9 16 18 21 31 17 10 -3 18 -1 18
5 0 7 8 7 27 0 18 -7 28 -6 33 1 7 11 75 9 87 -3 9 -9 33 12 33 29 0 8 11 14
26 14 17 0 39 12 59 33 27 28 30 35 17 46 -10 10 -11 16 -3 20 6 4 20 31 30
60 10 29 23 56 29 60 7 4 8 12 2 21 -14 22 -12 34 3 22 21 -17 45 9 42 46 -2
17 1 32 6 32 5 0 9 7 9 15 0 8 7 15 16 15 14 0 16 7 11 40 -4 34 -2 40 11 38
13 -2 16 4 14 27 -2 29 -2 29 13 10 8 -11 13 -25 11 -32 -3 -7 0 -13 7 -13 7
0 28 -13 47 -28 36 -29 90 -47 90 -30 0 6 11 7 24 4 35 -9 56 3 56 30 0 13 5
24 11 24 6 0 8 9 4 20 -6 19 -4 19 19 9 22 -10 26 -19 26 -54 0 -40 2 -42 55
-68 31 -15 64 -27 75 -27 10 0 22 -4 25 -10 3 -5 10 -10 15 -10 12 0 2 30 -18
52 -13 15 -11 20 14 42 33 29 38 30 65 16 14 -8 25 -7 41 5 31 21 54 19 72 -6
11 -17 20 -20 45 -14 21 4 31 13 31 25 0 13 17 27 52 44 l51 25 38 -20 c23
-11 40 -15 44 -9 3 6 -4 10 -15 10 -16 0 -20 4 -16 16 3 9 6 18 6 20 0 2 17 4
39 4 32 0 40 -4 45 -22 5 -18 8 -20 15 -9 7 12 14 10 36 -7 21 -17 30 -19 45
-10 14 9 22 9 34 -1 17 -14 35 -8 32 12 -7 41 -19 58 -36 52 -20 -6 -28 2 -40
46 -5 17 -5 27 0 24 5 -3 13 9 18 27 6 24 5 39 -6 57 -12 18 -13 29 -5 52 7
18 8 29 2 29 -6 0 -7 5 -4 10 4 6 -3 21 -14 33 -12 12 -28 31 -37 42 -14 19
-15 19 -10 1 5 -15 4 -17 -7 -8 -8 7 -17 9 -20 6 -6 -7 -62 47 -70 68 -5 10
-8 10 -19 -2 -14 -17 -52 -15 -42 2 4 6 2 13 -4 17 -6 4 -7 25 -2 56 10 64 -8
114 -32 90z m125 -538 c-7 -11 -23 12 -23 33 1 12 4 11 15 -4 8 -10 12 -23 8
-29z m-28 14 c10 -17 -12 -21 -25 -6 -10 12 -10 15 3 15 9 0 18 -4 22 -9z
m-953 -36 l31 -26 -42 2 c-22 2 -41 7 -41 11 0 4 -11 8 -25 8 -14 0 -25 -4
-25 -10 0 -5 -19 -10 -42 -10 -33 0 -39 -3 -30 -12 7 -7 12 -22 12 -35 l0 -23
-39 28 c-48 33 -39 52 25 52 32 0 44 4 44 14 0 13 19 19 84 24 10 1 32 -9 48
-23z m428 -95 c0 -10 -26 -20 -34 -13 -14 14 -5 31 14 26 11 -3 20 -9 20 -13z"/>
<path d="M14451 6881 c-8 -5 -9 -11 -3 -15 5 -3 12 1 16 9 6 17 6 18 -13 6z"/>
<path d="M15720 6440 c0 -5 6 -10 13 -10 7 -1 5 -6 -5 -14 -20 -14 -14 -26 13
-26 9 0 20 -6 22 -12 4 -10 6 -10 6 -1 1 6 -3 14 -9 18 -5 3 -7 11 -4 18 2 7
-5 18 -16 25 -12 7 -20 8 -20 2z"/>
<path d="M15683 6381 c1 -17 3 -31 5 -31 6 0 34 31 31 33 -2 2 -12 9 -21 16
-16 12 -17 10 -15 -18z"/>
<path d="M14120 5856 c0 -9 7 -19 15 -23 23 -8 25 0 4 21 -17 18 -19 18 -19 2z"/>
</g>
</svg>
