<?xml version="1.0" standalone="no"?>
<!DOCTYPE svg PUBLIC "-//W3C//DTD SVG 20010904//EN"
 "http://www.w3.org/TR/2001/REC-SVG-20010904/DTD/svg10.dtd">
<svg version="1.0" xmlns="http://www.w3.org/2000/svg"
 width="360.060228pt" height="672.472528pt" viewBox="0 0 360.060228 672.472528"
 preserveAspectRatio="xMidYMid meet">
<metadata>
Created by potrace 1.15, written by Peter Selinger 2001-2017
</metadata>
<g transform="translate(-836.504062,1338.472528) scale(0.100000,-0.100000)"
fill="#222222" stroke="none">
<path d="M11134 13365 c-22 -34 -12 -43 20 -17 22 17 24 22 12 32 -12 9 -18 6
-32 -15z"/>
<path d="M11080 13316 c0 -7 -9 -21 -20 -31 -11 -10 -20 -24 -20 -31 0 -10 -6
-11 -25 -4 -14 5 -32 7 -40 3 -9 -3 -21 2 -29 12 -12 16 -14 16 -41 -9 -15
-14 -33 -26 -40 -26 -7 0 -19 -8 -28 -18 -23 -26 -4 -42 50 -42 36 0 43 -3 43
-19 0 -11 5 -23 11 -26 6 -4 8 -13 5 -20 -2 -7 3 -23 11 -35 15 -21 15 -23 -1
-32 -9 -5 -13 -14 -10 -20 4 -6 8 -20 9 -32 1 -11 3 -24 4 -27 0 -4 12 -10 26
-13 15 -4 26 -14 27 -26 0 -11 1 -26 2 -32 1 -7 -4 -12 -10 -11 -7 1 -17 -19
-24 -45 -9 -38 -9 -48 2 -57 8 -5 15 -21 15 -34 2 -18 -1 -21 -10 -12 -13 13
-28 15 -26 4 1 -5 1 -25 0 -45 -1 -27 -6 -38 -16 -38 -9 0 -15 -9 -15 -25 0
-14 -8 -29 -20 -35 -17 -9 -18 -14 -9 -31 5 -11 17 -22 25 -25 8 -2 20 -6 28
-8 18 -6 9 -46 -10 -46 -19 0 -18 -6 10 -43 18 -24 22 -40 19 -65 -3 -19 -12
-36 -19 -39 -10 -4 -11 -10 -3 -24 6 -13 6 -19 -1 -19 -13 0 -13 -29 2 -85 11
-40 10 -49 -9 -88 l-21 -43 26 -23 c23 -21 27 -21 38 -7 13 18 44 11 44 -10 0
-9 8 -12 28 -8 19 4 32 1 41 -10 16 -20 22 -86 9 -102 -16 -20 -1 -63 36 -101
41 -43 52 -69 38 -86 -5 -7 -8 -22 -6 -34 2 -13 -1 -23 -6 -23 -17 0 -11 -24
17 -68 29 -45 43 -53 44 -24 0 31 34 -28 35 -62 0 -17 4 -55 8 -83 7 -46 11
-53 31 -53 34 0 50 -65 21 -89 -7 -6 -11 -22 -9 -35 4 -17 -1 -27 -16 -36 -17
-8 -19 -15 -12 -29 7 -12 6 -22 -2 -30 -9 -9 -8 -14 3 -21 8 -5 10 -10 4 -10
-20 0 -36 -88 -24 -126 11 -31 9 -37 -17 -68 -15 -18 -39 -40 -53 -49 -18 -11
-25 -25 -26 -49 -1 -18 -7 -51 -13 -73 -6 -23 -8 -67 -4 -102 4 -49 3 -63 -8
-63 -8 0 -6 -5 6 -14 16 -12 17 -16 6 -30 -12 -14 -11 -19 4 -36 10 -11 18
-36 19 -57 1 -33 -3 -39 -32 -53 -20 -10 -29 -19 -23 -25 19 -20 -52 -81 -81
-70 -21 8 -49 -56 -39 -92 5 -19 3 -31 -6 -38 -7 -6 -14 -27 -15 -48 -1 -35
-4 -38 -25 -34 -17 3 -23 0 -23 -14 0 -10 -7 -24 -15 -32 -8 -8 -12 -17 -9
-20 3 -3 -4 -8 -16 -12 -19 -6 -21 -12 -17 -40 4 -27 1 -35 -18 -45 -14 -7
-22 -17 -19 -21 5 -9 -8 -64 -36 -144 -21 -60 -75 -125 -103 -125 -12 0 -12
-7 -3 -40 7 -30 7 -49 -1 -71 -8 -20 -9 -39 -2 -55 14 -38 11 -51 -11 -57 -13
-3 -20 -14 -20 -29 0 -16 -9 -29 -25 -38 -14 -7 -25 -21 -25 -31 0 -10 -11
-26 -25 -37 -14 -11 -25 -23 -25 -28 0 -4 -12 -20 -26 -36 -26 -26 -26 -28
-10 -53 10 -14 15 -32 13 -38 -2 -7 4 -25 14 -41 17 -29 17 -29 -7 -49 -24
-18 -24 -20 -8 -38 10 -11 19 -35 20 -54 2 -19 12 -52 24 -74 11 -22 20 -46
20 -52 0 -29 37 -89 61 -99 19 -8 28 -21 31 -42 7 -42 -10 -109 -31 -128 -10
-9 -16 -21 -13 -28 6 -19 22 -14 22 7 0 12 11 23 29 29 16 6 32 20 36 31 3 12
11 21 17 21 6 0 8 10 4 24 -4 16 -1 28 7 33 8 4 16 16 20 26 4 9 21 20 38 24
19 3 35 15 41 29 6 13 17 24 25 24 7 0 21 9 30 20 10 11 25 20 35 20 10 0 18
5 18 10 0 6 7 10 16 10 10 0 14 5 10 15 -3 9 2 20 13 27 11 6 17 18 13 26 -3
8 2 19 11 24 11 6 17 22 17 48 0 22 4 40 9 40 5 0 41 32 79 70 56 57 76 85 96
138 14 37 26 77 26 89 0 12 6 34 14 50 7 15 22 46 32 68 11 22 38 60 61 85 25
27 43 57 45 75 2 22 9 31 28 35 45 10 98 42 104 64 3 12 6 33 6 47 0 18 8 29
25 37 14 6 25 16 25 21 0 6 14 30 30 53 17 24 36 66 43 93 6 28 17 50 24 50 6
0 15 3 19 7 4 4 18 5 31 2 23 -6 23 -5 17 33 -4 29 -2 42 10 52 26 21 31 75
10 110 -10 17 -22 31 -26 31 -13 0 -21 71 -10 94 7 16 6 27 -5 41 -8 11 -12
28 -9 39 2 10 0 29 -6 42 -10 21 -8 27 10 40 31 22 53 69 68 144 10 54 10 70
-2 93 -20 38 -20 127 0 165 10 19 12 33 6 37 -17 10 -11 25 10 25 17 0 20 7
20 39 0 31 -6 43 -27 59 -23 17 -25 22 -14 36 7 9 22 16 32 16 11 0 19 6 19
13 0 8 11 24 24 36 21 20 23 27 15 49 -8 21 -7 29 7 39 13 10 16 22 12 60 -7
58 -2 73 22 73 20 0 34 26 19 35 -5 4 -7 10 -4 15 3 4 -9 22 -25 40 -16 18
-27 36 -24 41 3 5 0 9 -7 9 -8 0 -8 4 2 16 10 13 10 17 -2 25 -8 5 -20 9 -26
9 -7 0 -13 7 -13 15 0 8 -5 15 -10 15 -7 0 -7 -7 1 -21 14 -27 2 -39 -42 -44
-18 -3 -37 -11 -41 -19 -5 -9 -18 -13 -31 -11 -28 6 -77 59 -77 84 0 11 -9 22
-19 26 -11 3 -24 19 -30 35 -5 17 -16 30 -24 30 -7 0 -28 14 -45 31 -32 31
-41 62 -22 74 6 4 0 24 -16 50 -14 25 -23 48 -21 52 12 20 -24 44 -81 54 -49
9 -61 15 -66 33 -3 12 -20 29 -38 37 l-32 14 3 70 c2 61 6 73 27 90 14 11 26
27 28 35 1 8 10 32 19 53 46 103 46 103 30 120 -8 8 -18 36 -20 61 -5 44 -5
46 21 46 14 0 26 5 26 10 0 6 6 10 13 9 21 -2 57 13 57 25 1 22 61 78 80 73
14 -4 19 2 22 25 3 16 1 31 -4 34 -5 3 -2 14 7 24 19 21 28 99 13 118 -8 9 -6
12 4 12 11 0 14 7 11 24 -4 17 2 30 17 43 39 32 43 59 14 88 -21 22 -25 32
-20 60 11 56 -47 146 -76 117 -12 -12 -1 -52 15 -52 6 0 1 -7 -11 -16 -12 -8
-22 -22 -22 -30 0 -22 -18 -17 -26 9 -6 21 -48 67 -61 67 -3 0 -24 16 -46 36
-30 28 -41 33 -48 23 -11 -19 -79 20 -97 55 -7 14 -19 26 -27 26 -8 0 -22 12
-32 26 -15 23 -18 24 -23 9 -5 -15 -8 -16 -21 -3 -20 20 -59 29 -59 14z"/>
<path d="M11460 13256 c0 -3 9 -10 19 -16 15 -7 22 -7 27 2 4 7 4 10 -1 6 -4
-4 -16 -3 -26 3 -11 5 -19 7 -19 5z"/>
<path d="M10915 13090 c-3 -5 -1 -10 4 -10 6 0 11 5 11 10 0 6 -2 10 -4 10 -3
0 -8 -4 -11 -10z"/>
<path d="M10677 8492 c-10 -21 -15 -45 -11 -55 4 -13 0 -23 -15 -33 -11 -8
-21 -23 -21 -32 0 -9 -13 -31 -29 -48 l-30 -32 44 -16 c43 -17 43 -17 69 9 14
14 30 25 36 25 5 0 10 10 10 23 0 12 7 33 16 45 23 33 14 110 -15 133 -31 25
-33 25 -54 -19z"/>
<path d="M10446 8285 c-6 -25 -45 -43 -65 -30 -6 3 -11 1 -11 -4 0 -6 -11 -11
-25 -11 -17 0 -29 -8 -36 -24 -6 -13 -22 -29 -35 -35 -13 -6 -24 -15 -24 -21
0 -6 -11 -5 -28 4 -33 17 -62 5 -62 -24 0 -12 -7 -20 -17 -20 -16 -1 -16 -2 1
-15 24 -18 36 -19 36 -4 0 28 89 55 103 32 3 -5 37 -7 76 -5 55 3 71 7 76 21
3 9 19 25 36 35 24 14 29 23 25 41 -4 15 -1 25 9 29 24 9 18 21 -19 39 -34 16
-34 15 -40 -8z"/>
<path d="M10538 8283 c7 -3 16 -2 19 1 4 3 -2 6 -13 5 -11 0 -14 -3 -6 -6z"/>
<path d="M9846 8105 c-4 -10 -12 -13 -28 -7 -38 12 -55 8 -82 -21 -20 -22 -31
-26 -52 -21 -20 5 -31 2 -41 -12 -11 -15 -25 -19 -68 -17 -59 2 -60 1 -45 -27
7 -13 7 -21 0 -25 -6 -4 -7 -12 -3 -18 4 -7 9 -34 10 -61 1 -37 -4 -58 -19
-79 l-20 -29 31 -32 c19 -20 34 -48 38 -70 5 -35 18 -54 30 -43 2 3 0 13 -5
23 -11 20 1 37 36 48 24 8 29 -3 10 -22 -9 -9 -9 -12 3 -12 9 0 24 9 34 20 10
11 26 22 36 25 11 4 22 18 25 31 5 18 12 24 24 21 13 -3 19 3 24 25 5 23 10
28 25 23 11 -3 31 -3 46 1 23 6 26 11 22 38 -4 29 8 63 26 77 4 3 3 18 -3 33
-5 15 -10 29 -10 30 0 2 20 1 44 -1 40 -5 44 -3 50 21 6 23 9 25 27 15 26 -13
34 -6 20 18 -9 18 -6 19 39 18 35 -1 47 2 43 12 -3 7 -19 13 -37 14 -90 3
-183 9 -202 14 -14 3 -24 -1 -28 -10z"/>
<path d="M9195 7957 c9 -27 23 -43 31 -35 10 10 -5 46 -22 52 -12 5 -14 1 -9
-17z"/>
<path d="M9150 7905 c0 -23 -4 -25 -42 -26 -24 -1 -47 0 -53 2 -18 5 -186 -3
-180 -9 2 -3 -8 -20 -22 -39 -18 -23 -32 -33 -45 -30 -10 3 -18 2 -18 -3 0 -8
-64 -5 -80 5 -5 3 -10 -2 -10 -14 0 -23 -16 -36 -25 -21 -3 5 -13 10 -22 10
-12 0 -13 -3 -4 -13 17 -21 0 -29 -21 -10 -15 13 -18 14 -18 1 0 -8 -13 -24
-30 -36 -16 -13 -30 -28 -30 -34 0 -7 -12 -22 -27 -33 -25 -20 -26 -24 -16
-63 9 -36 9 -41 -9 -45 -17 -5 -18 -8 -7 -28 9 -17 9 -24 0 -27 -6 -2 -11 -13
-11 -25 0 -38 -12 -67 -26 -67 -8 0 -20 -11 -26 -25 -6 -14 -15 -25 -19 -25
-14 0 -20 -52 -7 -68 15 -18 17 -84 3 -94 -5 -4 -2 -15 9 -27 12 -13 16 -28
13 -43 -4 -13 -15 -54 -25 -93 -17 -62 -17 -73 -5 -99 11 -20 12 -31 4 -39 -6
-6 -11 -19 -11 -29 0 -10 -7 -18 -15 -18 -9 0 -12 -6 -9 -15 4 -8 12 -15 20
-15 14 0 37 -34 28 -42 -3 -3 10 -8 29 -12 27 -5 34 -11 35 -29 0 -36 13 -67
28 -67 8 0 14 8 14 18 0 9 11 30 25 46 14 16 25 32 25 35 0 8 50 31 67 31 7 0
13 5 13 10 0 6 9 10 20 10 11 0 20 5 20 11 0 7 14 8 40 4 37 -6 40 -5 40 15 0
18 4 21 24 16 15 -4 28 0 36 9 8 10 21 13 38 8 18 -4 29 -1 38 12 8 10 20 15
29 11 32 -12 92 5 105 29 7 13 26 29 42 36 24 10 28 16 24 35 -5 19 1 26 36
46 31 17 44 31 48 53 4 17 12 40 18 52 9 16 9 24 1 29 -7 4 -9 22 -6 45 3 22
1 41 -3 44 -10 6 -8 57 1 53 3 -2 12 2 20 8 8 6 35 15 62 18 l47 7 0 50 c0 28
5 49 11 49 6 0 8 8 4 20 -3 11 0 44 7 74 10 43 17 56 35 61 14 3 23 13 23 25
0 11 13 34 28 52 36 42 69 130 42 113 -5 -3 -10 -1 -10 5 0 5 -16 18 -35 27
-28 13 -39 14 -60 5 -31 -14 -111 -16 -119 -3 -4 5 -1 11 5 13 30 10 -29 68
-83 82 -25 6 -28 4 -28 -19z"/>
</g>
</svg>
