<?xml version="1.0" standalone="no"?>
<!DOCTYPE svg PUBLIC "-//W3C//DTD SVG 20010904//EN"
 "http://www.w3.org/TR/2001/REC-SVG-20010904/DTD/svg10.dtd">
<svg version="1.0" xmlns="http://www.w3.org/2000/svg"
 width="1013.609599pt" height="951.643823pt" viewBox="0 0 1013.609599 951.643823"
 preserveAspectRatio="xMidYMid meet">
<metadata>
Created by potrace 1.15, written by Peter Selinger 2001-2017
</metadata>
<g transform="translate(-519.497680,1493.168952) scale(0.100000,-0.100000)"
fill="#222222" stroke="none">
<path d="M5367 14923 c-9 -20 0 -37 24 -43 21 -6 25 -4 25 14 -1 29 -37 51
-49 29z"/>
<path d="M5502 14859 c3 -8 -1 -21 -8 -29 -15 -18 -9 -29 24 -48 14 -8 22 -8
22 -1 0 5 5 7 10 4 6 -4 8 -11 5 -16 -4 -5 -1 -9 4 -9 6 0 11 7 11 16 0 8 5
12 10 9 6 -3 10 -4 10 0 0 3 -11 10 -25 15 -14 5 -30 21 -35 34 -9 25 -37 50
-28 25z"/>
<path d="M5450 14821 c0 -6 5 -13 10 -16 6 -3 10 1 10 9 0 9 -4 16 -10 16 -5
0 -10 -4 -10 -9z"/>
<path d="M5619 14763 c-1 -2 -2 -6 -3 -10 -1 -5 -5 -14 -10 -21 -6 -11 -12
-45 -15 -104 -1 -5 -7 -8 -15 -8 -8 0 -18 -9 -21 -20 -3 -11 -11 -20 -16 -20
-5 0 -9 -7 -9 -15 0 -8 -4 -15 -9 -15 -5 0 -12 -11 -15 -25 -4 -14 -14 -29
-24 -32 -9 -4 -29 -15 -44 -26 -22 -16 -25 -24 -17 -43 5 -15 5 -34 -2 -51 -6
-15 -9 -46 -8 -68 1 -22 -2 -48 -6 -57 -4 -10 -5 -25 -1 -33 3 -8 -2 -19 -11
-23 -14 -8 -14 -16 -5 -53 11 -41 10 -45 -13 -62 -14 -11 -25 -29 -25 -42 0
-13 -4 -25 -10 -27 -6 -2 -5 -19 1 -47 7 -30 6 -47 -2 -57 -8 -10 -7 -19 5
-36 9 -12 16 -31 16 -41 0 -10 5 -15 10 -12 16 10 40 -15 40 -41 0 -13 9 -28
20 -34 11 -6 20 -21 20 -35 0 -13 7 -31 16 -40 15 -15 15 -17 0 -34 -9 -10
-16 -23 -16 -29 0 -7 -7 -12 -15 -12 -23 0 -18 -24 10 -48 14 -12 25 -33 25
-46 0 -14 5 -28 11 -31 6 -4 8 -13 5 -21 -3 -8 3 -23 14 -34 11 -11 20 -16 20
-12 0 5 14 9 30 9 17 0 30 -6 30 -12 0 -7 14 -18 30 -25 17 -7 38 -25 47 -41
9 -15 24 -30 33 -32 19 -5 31 -49 20 -68 -11 -17 22 -69 43 -69 34 0 47 -25
41 -74 -4 -26 -11 -49 -15 -52 -5 -3 -4 -14 2 -25 6 -11 8 -32 4 -47 -5 -23
-1 -30 24 -45 20 -12 32 -14 36 -6 9 14 88 1 98 -17 14 -24 37 -15 54 20 14
29 19 33 35 25 21 -11 24 -47 5 -63 -7 -6 -11 -10 -8 -9 7 4 87 -40 109 -61
58 -53 82 -82 82 -96 0 -9 5 -21 11 -27 6 -6 17 -22 23 -35 9 -18 21 -24 54
-25 26 -2 42 2 42 8 0 8 4 8 14 0 17 -14 18 -54 1 -42 -14 10 -56 -34 -43 -47
6 -6 6 -12 -1 -16 -12 -8 -15 -59 -4 -69 3 -4 8 -19 9 -34 4 -39 -39 -83 -83
-83 -31 0 -32 -1 -27 -32 4 -18 20 -50 36 -70 16 -21 24 -38 18 -38 -5 0 -10
-8 -10 -18 0 -11 -11 -24 -25 -30 -14 -6 -25 -18 -25 -26 0 -9 -20 -27 -44
-41 -36 -21 -46 -33 -55 -70 -12 -46 -19 -53 -38 -34 -8 8 -13 3 -18 -19 -3
-17 -13 -33 -21 -36 -8 -3 -14 -11 -14 -19 0 -20 -100 -58 -154 -58 -10 0 -27
8 -37 17 -11 9 -19 12 -19 6 0 -16 -82 -11 -102 6 -27 23 -24 -6 4 -35 12 -13
16 -23 9 -23 -28 0 -43 -29 -36 -70 5 -27 3 -40 -5 -40 -6 0 -8 -5 -5 -11 4
-5 -1 -19 -12 -31 -14 -16 -19 -39 -20 -107 -3 -80 -7 -121 -19 -179 -3 -14
-16 -27 -33 -33 -22 -8 -32 -21 -45 -61 -12 -38 -13 -53 -5 -59 14 -8 3 -29
-16 -29 -16 0 -31 -40 -18 -49 19 -13 20 -38 2 -62 -10 -13 -19 -29 -19 -36 0
-6 -6 -14 -12 -16 -10 -4 -10 -8 1 -15 8 -6 11 -17 8 -25 -3 -8 0 -20 6 -26 8
-8 7 -11 -5 -11 -11 0 -14 -7 -10 -25 2 -15 0 -25 -7 -25 -6 0 -11 -9 -11 -19
0 -11 -4 -23 -10 -26 -12 -7 -3 -84 12 -102 6 -7 16 -13 23 -13 17 0 24 -64 9
-85 -7 -9 -30 -23 -51 -30 l-38 -14 48 -1 c35 0 47 4 47 15 0 16 16 20 24 6
10 -15 74 10 79 30 9 34 53 23 104 -26 49 -47 62 -52 80 -34 12 12 44 -18 83
-77 35 -51 67 -67 131 -62 34 2 64 10 69 17 4 8 16 11 29 6 12 -4 21 -2 21 4
0 6 6 11 14 11 7 0 19 7 27 16 7 9 21 13 33 10 11 -3 28 2 38 11 17 15 18 15
18 -1 0 -27 44 -16 48 12 2 12 -1 22 -7 22 -6 0 -11 10 -11 21 0 16 5 20 20
16 29 -7 63 38 55 74 -4 18 1 38 14 60 19 31 19 35 4 51 -15 17 -14 18 28 18
42 0 45 2 54 32 9 30 15 34 60 42 78 13 130 13 128 -1 -2 -7 1 -13 6 -13 5 0
16 -18 25 -39 8 -22 22 -43 30 -48 16 -9 11 -53 -6 -53 -10 0 -29 -15 -63 -47
-12 -13 -31 -23 -42 -23 -27 0 -34 -9 -23 -31 7 -12 6 -20 -1 -25 -8 -4 -7 -9
2 -16 11 -7 9 -12 -8 -25 -28 -19 -30 -43 -3 -43 11 0 20 -5 20 -11 0 -6 -9
-9 -20 -6 -16 4 -20 0 -20 -17 0 -12 6 -28 12 -34 10 -10 10 -17 0 -32 -6 -11
-12 -26 -12 -34 0 -7 -8 -24 -19 -37 -33 -43 -16 -94 28 -84 16 3 34 0 46 -9
11 -9 26 -16 34 -16 8 0 23 -8 34 -17 11 -10 17 -12 13 -5 -12 21 31 14 53 -9
25 -27 34 -64 21 -89 -13 -25 -13 -30 4 -30 17 0 31 -33 16 -38 -16 -6 8 -32
30 -32 26 0 43 -23 27 -39 -9 -9 -9 -14 2 -20 9 -6 12 -18 7 -37 -4 -16 -8
-36 -10 -44 -1 -8 -8 -25 -14 -37 -11 -20 -8 -25 28 -54 44 -36 47 -44 26 -84
-16 -31 -8 -63 27 -102 11 -12 17 -29 14 -37 -4 -9 -2 -18 2 -21 5 -2 11 -13
13 -23 4 -16 0 -19 -26 -18 -17 1 -36 -5 -42 -13 -9 -11 -15 -11 -40 2 -16 9
-23 16 -16 17 6 0 12 9 12 19 0 10 8 22 18 26 16 6 16 7 -2 20 -17 13 -21 12
-31 -2 -10 -13 -17 -14 -49 -3 -29 9 -40 9 -52 -1 -13 -11 -19 -8 -37 14 -12
14 -33 27 -46 29 -17 2 -27 12 -34 33 -5 17 -17 38 -25 48 -19 22 -73 37 -89
25 -7 -5 -14 -5 -18 2 -3 5 -24 10 -45 10 -33 0 -41 4 -53 29 -11 22 -12 32
-3 41 8 8 3 8 -16 -1 -16 -7 -28 -16 -28 -21 0 -5 -4 -7 -9 -4 -11 7 -63 -19
-54 -27 3 -4 -1 -7 -9 -7 -8 0 -33 16 -54 36 -21 20 -40 32 -42 26 -2 -6 -10
-8 -17 -5 -19 7 -75 -18 -75 -34 0 -6 8 -14 18 -16 16 -4 16 -5 0 -6 -10 0
-18 -5 -18 -11 0 -5 -10 -10 -23 -10 -19 0 -22 -5 -20 -32 1 -18 5 -44 9 -57
6 -20 4 -23 -9 -18 -24 9 -47 -29 -40 -64 3 -18 1 -29 -6 -29 -6 0 -17 -16
-25 -35 -8 -19 -21 -35 -28 -35 -17 0 -17 -32 1 -85 16 -48 31 -67 31 -40 1
17 2 18 13 5 7 -8 24 -21 40 -29 31 -16 47 -59 27 -71 -8 -5 -10 -18 -5 -40 6
-26 4 -31 -6 -25 -11 6 -11 5 -2 -5 10 -11 7 -18 -12 -36 -13 -12 -21 -25 -18
-28 3 -3 1 -12 -6 -20 -9 -11 -7 -15 14 -18 14 -3 30 1 36 8 19 24 68 17 78
-9 8 -20 15 -23 40 -19 25 3 36 -1 51 -21 15 -18 34 -28 68 -33 26 -3 52 -11
59 -16 7 -6 16 -1 27 14 9 12 16 20 16 17 0 -3 20 -3 45 1 31 5 51 3 63 -6 25
-20 32 -18 95 30 56 42 60 43 102 34 31 -7 50 -6 65 2 15 8 25 9 32 2 12 -12
68 24 68 44 0 16 57 -4 82 -28 23 -22 44 -23 52 -2 4 9 9 14 13 11 3 -4 11 -3
17 2 16 13 68 1 62 -14 -7 -20 45 -60 74 -56 14 2 29 8 33 15 5 7 7 3 5 -9 -2
-11 2 -20 9 -20 13 0 53 -48 53 -64 0 -6 -7 -8 -15 -5 -12 5 -13 2 -6 -17 4
-13 4 -37 0 -53 -7 -22 -4 -35 12 -58 12 -16 19 -32 16 -35 -4 -3 3 -13 15
-22 14 -12 21 -31 23 -59 2 -41 29 -87 45 -77 5 3 17 -6 27 -19 10 -14 24 -26
32 -28 8 -2 23 -11 34 -21 18 -18 78 -20 104 -4 6 4 21 -5 33 -18 21 -22 32
-25 96 -25 62 0 76 3 93 21 20 22 41 26 149 33 33 2 57 8 63 17 7 11 9 11 9
-3 0 -10 5 -18 12 -18 6 0 19 -6 27 -14 9 -7 29 -18 45 -23 17 -5 31 -16 34
-24 3 -11 2 -11 -7 1 -6 8 -11 10 -11 4 0 -7 -12 -15 -27 -19 -25 -6 -26 -8
-9 -14 11 -4 37 -3 58 3 28 8 41 7 46 -1 4 -6 19 -14 32 -18 14 -3 34 -19 44
-34 11 -15 33 -32 50 -37 17 -5 35 -19 41 -31 10 -22 92 -70 102 -59 4 4 13
-8 20 -26 14 -34 9 -88 -9 -88 -6 0 -8 -12 -5 -30 4 -16 3 -31 -1 -34 -10 -6
-9 -163 1 -173 9 -9 28 17 21 29 -3 4 4 8 15 8 12 0 21 4 21 9 0 5 12 11 26
14 26 5 54 -14 54 -37 0 -7 14 -25 30 -41 17 -16 30 -25 30 -21 0 5 12 1 26
-9 14 -9 32 -14 40 -11 22 8 33 48 18 63 -23 23 -48 11 -25 -13 18 -18 -13
-34 -40 -20 -29 14 -36 50 -14 73 16 16 16 17 -1 30 -17 12 -17 13 3 13 23 0
33 18 33 59 0 32 42 68 90 77 23 5 30 12 30 29 0 12 -6 28 -14 34 -15 13 -11
43 12 79 12 18 12 25 1 38 -11 14 -8 15 37 13 l49 -3 0 31 0 32 68 -5 c81 -5
89 -1 77 30 -7 21 -6 23 11 19 20 -6 27 13 7 19 -8 3 -5 16 11 41 19 32 21 45
16 92 l-7 56 28 -6 29 -6 -25 15 c-24 14 -24 15 -5 21 11 4 31 12 44 18 19 10
25 8 37 -8 8 -10 14 -13 14 -7 0 13 25 11 55 -5 40 -21 85 -26 91 -9 8 22 30
20 46 -3 7 -10 29 -22 48 -26 19 -4 41 -12 49 -18 10 -9 16 -7 26 6 8 12 15
14 20 7 3 -5 11 -8 16 -4 14 8 49 -25 49 -47 0 -10 12 -27 26 -38 23 -18 28
-19 41 -5 14 14 18 13 37 -5 12 -12 27 -21 33 -21 16 0 28 -41 14 -49 -20 -13
34 -53 65 -49 21 2 30 -2 32 -15 3 -16 1 -17 -16 -8 -27 14 -35 14 -25 -1 4
-7 7 -22 8 -32 0 -11 6 -21 14 -24 10 -3 11 0 5 9 -6 12 -5 12 8 1 9 -8 18
-23 20 -35 4 -25 38 -37 38 -13 0 28 20 17 26 -14 4 -16 13 -35 20 -41 8 -6
14 -18 14 -26 0 -18 32 -47 82 -73 25 -13 40 -30 44 -48 4 -15 11 -33 17 -39
5 -7 7 -27 5 -45 -4 -22 2 -46 18 -75 28 -48 30 -75 9 -93 -11 -9 -12 -17 -4
-31 7 -15 6 -19 -6 -19 -8 0 -15 -7 -15 -15 0 -8 -4 -15 -9 -15 -5 0 -15 -2
-23 -5 -7 -3 -18 6 -24 19 -9 19 -8 36 6 76 16 47 16 52 1 58 -9 3 -20 11 -26
18 -5 6 -26 14 -46 17 -33 5 -36 3 -32 -18 4 -18 -1 -25 -28 -34 -17 -6 -42
-11 -55 -11 -13 0 -26 -4 -29 -10 -11 -18 -26 -10 -20 10 5 15 2 20 -13 20
-23 0 -33 -19 -25 -49 4 -14 -1 -26 -12 -35 -10 -7 -15 -18 -11 -24 4 -7 9
-35 11 -63 3 -28 8 -56 12 -62 4 -7 8 -18 9 -25 4 -24 12 -25 94 -12 75 12 80
14 80 37 0 22 1 23 16 9 8 -9 21 -16 29 -16 7 0 16 -6 18 -12 3 -7 6 -3 6 10
1 25 2 26 35 11 20 -10 33 -8 70 11 26 12 53 20 61 17 7 -3 15 -1 17 4 2 7 13
6 31 -2 21 -9 36 -10 66 -1 48 15 104 16 96 2 -4 -6 5 -10 19 -10 16 0 26 -6
26 -15 0 -18 57 -29 100 -20 25 5 30 11 25 26 -6 18 -4 18 22 7 15 -6 36 -18
45 -26 9 -8 21 -11 27 -8 5 4 12 2 16 -4 3 -5 18 -7 32 -4 22 6 32 0 62 -35
38 -44 99 -69 120 -48 7 7 21 1 46 -18 32 -24 36 -31 31 -59 -5 -26 -1 -37 17
-55 21 -19 23 -27 17 -62 -4 -22 -3 -42 1 -45 5 -3 9 -13 9 -22 0 -23 50 -52
87 -52 38 0 62 -18 71 -55 6 -20 16 -31 30 -33 12 -2 31 -21 46 -47 30 -51 31
-55 10 -55 -11 0 -14 -5 -9 -17 4 -10 8 -23 8 -28 0 -12 36 -14 53 -3 6 4 14
5 18 1 10 -10 7 -43 -5 -43 -5 0 -7 -5 -4 -10 3 -6 -1 -13 -9 -16 -14 -5 -13
-10 4 -42 10 -21 39 -59 64 -85 25 -27 46 -55 46 -62 0 -8 25 -39 55 -69 30
-30 55 -61 55 -69 0 -16 44 -32 60 -22 5 3 6 13 3 21 -4 10 2 17 15 21 14 3
19 10 14 21 -5 15 -4 15 11 3 11 -9 21 -10 30 -4 6 5 40 9 75 8 34 0 62 3 62
7 0 4 6 8 14 8 7 0 19 7 26 15 14 16 106 19 116 3 3 -4 14 -3 25 2 11 6 23 9
28 6 13 -9 34 22 27 39 -3 9 1 18 9 22 10 3 13 12 10 24 -7 23 3 24 29 4 23
-17 37 -4 29 25 -6 22 -50 32 -57 13 -5 -11 -9 -11 -26 -1 -11 7 -19 17 -18
23 4 20 -22 54 -37 48 -13 -5 -13 -7 2 -18 28 -20 9 -28 -28 -12 -38 16 -89
60 -89 77 0 5 15 10 34 10 19 0 47 5 62 10 21 8 31 7 44 -5 21 -19 40 -19 69
1 22 16 25 15 61 -5 20 -11 47 -22 58 -24 12 -2 25 -6 28 -10 12 -12 22 -8 29
12 5 16 10 18 34 8 23 -8 32 -7 45 5 9 9 16 23 16 32 0 22 17 28 39 14 15 -9
25 -9 47 1 24 11 30 9 54 -14 17 -16 37 -25 58 -25 18 0 32 -5 32 -11 0 -6 6
-9 14 -6 8 3 16 1 18 -5 4 -12 78 -15 95 -5 6 4 16 0 23 -8 8 -10 18 -11 36
-4 14 5 34 9 46 9 11 0 28 10 38 22 17 21 18 21 35 4 16 -16 19 -16 33 -2 12
12 13 18 3 29 -9 12 -8 16 4 21 16 6 21 51 7 60 -5 3 -9 19 -10 36 -1 26 4 32
29 37 16 3 29 10 29 14 0 5 11 15 25 21 17 8 25 19 25 37 1 25 1 25 15 7 8
-10 24 -24 36 -30 33 -16 33 -28 -1 -71 -29 -36 -29 -39 -13 -57 13 -14 18
-16 25 -6 5 9 8 6 8 -9 0 -13 5 -23 10 -23 7 0 7 -6 1 -19 -10 -18 -6 -31 11
-31 4 0 8 7 8 15 0 9 6 12 15 9 8 -4 17 1 21 10 16 41 78 -8 87 -69 4 -21 15
-51 26 -66 22 -29 13 -49 -23 -49 -15 0 -10 -7 22 -26 30 -18 42 -32 42 -48 0
-13 7 -27 16 -30 10 -4 13 -13 9 -26 -4 -14 1 -27 19 -44 14 -13 26 -28 26
-33 0 -6 29 -19 65 -29 58 -17 68 -23 85 -57 11 -21 18 -42 15 -46 -2 -5 4
-16 15 -26 11 -10 20 -24 20 -32 0 -7 7 -25 16 -39 15 -23 15 -24 0 -18 -12 5
-17 2 -16 -7 1 -8 2 -20 1 -26 -1 -14 -56 -45 -64 -37 -3 3 -17 7 -31 8 -18 2
-26 -2 -26 -12 0 -12 -9 -13 -45 -9 l-45 7 4 -43 c2 -23 2 -36 -1 -29 -6 17
-23 15 -23 -2 0 -8 12 -38 27 -68 26 -51 31 -87 12 -99 -5 -3 2 -20 16 -39 14
-19 23 -41 20 -51 -3 -10 5 -30 20 -47 14 -16 25 -35 25 -41 0 -6 3 -10 8 -10
29 5 42 -3 42 -25 0 -14 7 -32 16 -41 10 -10 14 -24 10 -39 -4 -16 -1 -26 9
-30 9 -3 26 -28 39 -56 28 -59 40 -67 41 -25 0 24 4 29 19 27 15 -3 18 1 13
17 -3 12 -1 21 4 21 5 0 9 7 9 15 0 9 6 12 15 9 8 -4 15 -2 15 3 0 5 11 10 24
11 19 1 25 -4 28 -21 4 -28 51 -52 75 -39 13 8 24 2 53 -30 38 -43 99 -65 132
-47 20 11 68 -1 121 -28 15 -8 27 -11 27 -7 0 3 7 1 15 -6 8 -7 12 -16 9 -21
-3 -5 6 -14 20 -21 14 -6 26 -17 26 -23 0 -8 10 -10 25 -7 29 5 65 -21 65 -49
0 -20 72 -67 78 -50 2 6 16 8 33 4 28 -5 29 -4 29 35 l0 40 60 7 c33 4 63 11
66 16 9 15 21 10 27 -12 7 -26 39 -19 78 17 30 29 60 31 75 6 12 -19 76 -24
102 -8 7 4 26 8 42 8 18 1 30 6 30 14 0 7 6 17 14 21 8 4 15 17 17 28 3 11 16
23 35 28 25 7 34 18 48 57 10 27 15 58 11 70 -4 13 -2 20 7 21 7 1 25 3 41 5
15 1 27 -1 27 -7 0 -12 57 -12 65 1 4 6 9 8 13 6 4 -2 15 1 24 8 18 13 25 83
13 134 -6 27 -12 32 -36 32 -16 0 -29 5 -29 11 0 6 -9 24 -21 40 -13 18 -18
37 -14 47 6 16 7 16 20 -1 9 -13 22 -17 50 -14 42 5 55 15 58 45 1 20 3 21 24
7 18 -12 23 -13 23 -2 0 7 8 22 18 33 23 25 15 53 -23 78 -15 10 -24 23 -21
31 13 34 -42 125 -75 125 -10 0 -21 9 -24 20 -4 12 -15 20 -28 20 -29 0 -40 9
-54 43 -11 23 -19 27 -55 29 -24 1 -54 1 -67 0 -13 -1 -32 3 -42 8 -27 15 -97
21 -104 10 -4 -6 -15 -6 -31 0 -33 13 -34 13 -34 -4 0 -9 -14 -15 -37 -18 -31
-4 -41 0 -56 19 -11 14 -29 23 -46 23 -15 0 -33 6 -39 12 -10 10 -17 10 -32 0
-26 -16 -48 -6 -92 41 -30 31 -43 38 -63 35 -23 -5 -26 -2 -25 21 1 14 1 31 0
36 -1 6 -3 16 -4 24 0 8 -11 16 -24 18 -38 5 -67 24 -52 33 19 12 17 137 -3
157 -15 16 -14 18 21 30 23 7 38 9 40 3 2 -6 8 -10 13 -10 6 0 7 5 4 10 -8 13
1 13 26 -1 11 -5 29 -7 39 -4 18 6 18 9 6 28 -7 12 -17 35 -20 51 -6 25 -5 28
7 18 15 -13 27 -6 27 14 0 6 -10 14 -22 17 -21 6 -21 7 -5 25 9 10 17 24 17
31 0 7 4 10 8 7 5 -3 9 0 9 7 0 7 3 22 7 34 6 18 2 25 -18 35 -19 8 -25 17
-21 29 4 13 -5 30 -30 54 -35 35 -38 55 -9 55 20 0 18 17 -6 47 -17 22 -19 35
-14 88 5 47 3 69 -10 93 -23 44 -20 59 7 34 13 -12 35 -22 48 -22 28 0 69 33
69 56 0 8 6 17 14 20 8 3 12 13 9 24 -4 14 4 21 30 31 35 12 35 13 21 41 -21
41 -52 57 -109 55 -46 -2 -50 -4 -59 -32 -6 -16 -11 -32 -12 -34 -6 -8 -77 55
-84 73 -4 12 -3 31 3 44 8 18 6 27 -14 48 -13 14 -23 34 -21 44 2 9 -4 20 -13
24 -14 5 -14 8 2 31 10 13 25 25 34 25 28 0 40 50 13 50 -9 0 -28 9 -42 21
l-26 20 -16 -21 c-14 -19 -25 -22 -73 -19 -32 2 -58 0 -60 -6 -2 -5 -21 -10
-42 -12 -29 -1 -35 1 -27 9 7 7 12 20 12 29 0 9 7 19 15 23 23 8 19 21 -20 63
-27 30 -35 34 -35 19 0 -15 -3 -16 -15 -6 -8 6 -19 9 -25 5 -5 -3 -10 -1 -10
4 0 6 -8 11 -17 11 -14 -1 -12 -6 10 -26 24 -20 27 -27 17 -39 -7 -8 -10 -26
-7 -41 3 -18 1 -24 -9 -20 -8 3 -14 1 -14 -4 0 -5 -6 -8 -12 -6 -7 1 -10 1 -5
-1 4 -3 7 -12 7 -22 0 -12 -10 -17 -40 -17 -25 -1 -37 2 -33 9 3 6 1 7 -6 3
-6 -4 -9 -12 -6 -17 4 -5 -1 -9 -9 -9 -8 0 -21 -6 -29 -14 -20 -20 -95 -39
-125 -31 -22 5 -24 4 -18 -18 5 -20 1 -26 -17 -31 -37 -10 -122 -7 -134 5 -6
6 -33 13 -60 15 -48 4 -58 4 -99 2 -12 0 -27 -10 -33 -22 -10 -17 -19 -21 -47
-18 -44 5 -66 -12 -57 -46 5 -22 3 -24 -16 -19 -24 6 -25 0 -11 -37 7 -21 6
-26 -5 -26 -8 0 -15 -9 -15 -20 0 -11 -5 -20 -11 -20 -6 0 -10 12 -9 28 3 44
-10 74 -29 66 -9 -3 -26 -9 -38 -11 -12 -3 -24 -13 -26 -22 -2 -9 -3 13 -3 49
1 63 0 65 -22 62 -30 -4 -62 24 -62 55 0 12 -6 23 -13 23 -8 0 -24 12 -38 26
-22 24 -28 25 -74 18 -74 -11 -113 -6 -145 18 -23 17 -32 19 -44 9 -8 -7 -25
-9 -40 -5 -16 4 -32 1 -41 -6 -17 -14 -28 -8 -31 16 -5 30 -14 45 -24 39 -5
-3 -13 7 -16 22 -7 28 -41 60 -57 55 -17 -5 -78 41 -93 70 -15 28 -15 30 0 25
23 -9 20 7 -6 29 -18 16 -21 17 -15 2 12 -33 -19 -8 -33 27 -7 19 -20 37 -27
40 -8 2 -11 10 -7 16 4 8 3 9 -4 5 -6 -4 -22 -1 -34 6 -13 7 -28 11 -35 10 -7
-2 -13 12 -15 30 -3 33 -23 47 -148 103 -13 6 -28 26 -34 45 -9 28 -16 35 -36
35 -21 0 -25 5 -25 30 0 17 -4 33 -10 37 -15 11 -2 17 42 20 l41 3 -20 36
c-15 27 -19 50 -17 92 4 52 2 57 -21 67 -24 11 -24 12 -6 26 16 11 18 18 8 39
-6 13 -23 27 -37 31 -32 8 -32 26 0 58 19 19 23 31 19 54 -3 16 -2 32 4 36 13
8 2 57 -15 63 -7 3 -20 17 -27 32 -13 24 -11 29 26 83 22 32 45 55 49 52 5 -3
9 2 9 10 0 9 8 16 19 16 17 0 18 4 10 32 -5 17 -7 33 -6 34 2 2 16 -3 31 -11
36 -19 38 -19 34 3 -2 11 4 18 20 20 27 4 30 22 3 22 -16 0 -19 6 -17 28 1 15
-2 33 -7 39 -6 9 -4 15 8 19 11 5 21 1 27 -9 17 -31 36 -18 52 34 13 47 13 54
-1 76 -13 20 -14 26 -3 33 15 9 50 95 50 123 0 22 45 64 83 78 19 8 27 18 27
36 0 19 4 23 18 19 13 -4 28 5 51 29 17 19 36 35 41 35 5 0 17 15 26 33 9 17
23 36 30 40 8 4 14 16 14 27 0 13 5 17 19 13 15 -4 21 2 26 26 3 17 1 39 -5
51 -9 18 -8 25 5 40 12 13 15 28 11 45 -7 27 12 105 24 105 4 0 14 -10 22 -22
l15 -22 5 27 c3 15 1 27 -3 27 -5 0 -9 6 -9 13 0 6 -13 21 -28 31 -23 15 -31
32 -41 80 -8 40 -21 68 -37 83 -29 26 -31 43 -6 43 10 0 27 6 37 14 17 12 18
16 5 32 -14 16 -13 17 13 12 15 -3 30 -1 33 3 3 5 0 9 -7 9 -7 0 -2 8 9 19 12
10 19 21 16 24 -8 7 22 75 43 99 9 10 12 25 8 37 -4 13 -1 23 7 26 7 3 13 19
12 38 -1 48 -3 51 -21 36 -15 -13 -16 -10 -11 33 4 32 2 48 -7 52 -15 5 -40
90 -30 105 3 6 13 11 21 11 13 0 19 22 15 62 -1 9 8 22 20 28 15 9 18 15 10
23 -18 18 -13 25 15 19 17 -3 30 0 35 10 6 10 21 14 49 13 22 -1 43 2 46 6 3
5 14 9 25 9 10 0 19 4 19 8 0 5 11 14 25 20 19 9 25 19 25 41 0 23 4 29 15 25
10 -4 15 0 15 14 0 16 -9 23 -42 29 -55 11 -60 30 -11 49 65 26 81 66 57 147
-4 11 0 17 10 17 9 0 16 5 16 10 0 6 -4 10 -9 10 -5 0 -18 16 -30 36 -18 30
-25 35 -50 31 -16 -3 -41 1 -55 8 -14 7 -34 11 -46 8 -11 -3 -32 2 -46 12 -15
9 -35 14 -48 11 -14 -3 -25 1 -33 13 -10 16 -9 20 6 24 22 5 35 77 14 77 -7 0
-17 8 -22 19 -16 28 -41 33 -70 14 -43 -29 -90 -51 -96 -45 -12 12 -4 31 11
25 26 -10 13 30 -14 42 -12 5 -22 13 -22 18 0 4 -5 5 -10 2 -6 -4 -16 -2 -23
3 -20 16 -87 52 -97 52 -6 0 -10 -9 -10 -20 0 -16 -7 -20 -30 -20 -33 0 -80
-38 -80 -64 0 -18 97 -121 123 -129 9 -4 22 -19 27 -34 6 -16 17 -40 25 -55
19 -33 19 -58 0 -58 -17 0 -17 -46 1 -60 19 -16 5 -68 -20 -72 -13 -2 -20 -10
-20 -21 2 -14 -1 -15 -12 -6 -11 9 -21 9 -41 0 -14 -6 -23 -15 -19 -18 3 -4 0
-13 -8 -22 -13 -14 -11 -22 16 -63 21 -32 39 -48 52 -48 12 0 34 -11 50 -23
l29 -24 -33 -7 c-27 -5 -41 -1 -72 20 -21 15 -38 30 -38 34 0 4 -18 19 -40 34
-33 22 -44 25 -61 15 -15 -8 -24 -8 -32 0 -15 15 -64 14 -73 -1 -6 -9 -10 -5
-14 12 -4 17 -15 26 -35 30 -17 4 -44 14 -62 23 -18 9 -43 17 -56 17 -14 0
-42 8 -63 17 -22 9 -50 18 -64 19 -41 4 -94 12 -107 16 -6 1 -18 -5 -25 -14
-12 -16 -47 -21 -125 -19 -19 1 -42 10 -53 21 -12 12 -25 18 -29 15 -5 -3 -32
11 -61 30 -46 31 -105 55 -137 55 -7 0 -13 9 -13 20 0 11 -4 20 -9 20 -14 0
-70 49 -82 72 -7 14 -7 18 -1 14 14 -8 13 32 -1 61 -8 17 -7 27 4 40 10 13 14
42 13 98 l-1 80 -52 46 c-28 25 -51 51 -51 58 0 21 -30 72 -40 66 -14 -8 -22
13 -12 31 13 23 3 56 -15 50 -17 -7 -42 17 -70 66 -19 32 -20 38 -7 49 13 11
12 14 -10 26 -27 14 -33 28 -16 38 19 12 10 25 -18 25 -16 0 -36 8 -46 19 -23
25 -65 16 -77 -16 -9 -24 -11 -24 -32 -10 -22 14 -26 13 -72 -20 -40 -30 -52
-34 -67 -24 -10 6 -28 11 -40 11 -13 0 -32 7 -42 15 -26 19 -55 19 -62 0 -5
-13 -11 -11 -31 10 -14 13 -29 23 -33 20 -4 -3 -24 13 -44 35 -20 23 -40 39
-45 36 -14 -9 -51 24 -51 45 0 11 7 22 15 25 24 9 17 27 -19 54 -30 22 -33 27
-20 41 18 20 18 29 1 29 -30 0 -57 45 -57 96 0 46 -2 50 -30 61 -16 6 -30 18
-30 26 0 8 -11 17 -25 19 -31 6 -33 -14 -3 -27 16 -7 25 -23 31 -52 4 -24 12
-43 18 -43 5 0 7 -11 3 -25 -3 -14 1 -37 9 -55 15 -29 15 -31 -13 -61 -15 -17
-33 -28 -39 -25 -5 4 -28 8 -50 11 -31 3 -40 0 -44 -14 -7 -29 -46 -34 -58 -7
-7 15 -18 22 -32 20 -12 -1 -33 -3 -47 -3 -14 -1 -37 -12 -51 -25 -18 -16 -30
-21 -40 -15 -21 13 -29 11 -29 -8 -1 -28 -37 -66 -56 -59 -12 5 -15 2 -12 -12
6 -22 -16 -57 -30 -48 -6 3 -13 -1 -16 -9 -4 -11 -13 -14 -30 -9 -33 8 -69
-12 -61 -35 3 -12 0 -21 -10 -25 -8 -3 -15 -12 -15 -19 0 -8 -14 -17 -32 -21
-31 -7 -32 -8 -14 -21 11 -8 26 -15 33 -15 7 0 13 -7 13 -15 0 -12 4 -13 19
-5 11 5 39 10 63 10 24 0 49 5 55 11 15 15 33 3 33 -22 0 -11 -7 -19 -17 -19
-15 0 -15 -2 -4 -9 12 -8 10 -16 -13 -45 -15 -20 -31 -36 -35 -36 -5 0 -6 -11
-3 -25 5 -31 -17 -34 -43 -5 -10 11 -21 18 -24 16 -4 -3 -5 13 -3 35 3 29 0
39 -10 39 -20 0 -88 59 -88 76 0 8 -8 14 -19 14 -10 0 -25 8 -32 18 -11 14
-11 15 1 5 8 -7 22 -13 33 -13 15 0 12 5 -13 27 -24 20 -36 24 -49 17 -14 -9
-52 -11 -98 -5 -7 0 -13 8 -13 17 0 11 6 14 20 9 24 -8 27 10 4 19 -10 4 -14
14 -12 24 4 12 -1 18 -13 18 -11 0 -19 -6 -19 -13 0 -9 -8 -11 -25 -7 -19 5
-25 2 -25 -11 0 -12 -5 -15 -20 -10 -11 4 -20 2 -20 -4 0 -17 -35 -48 -48 -43
-7 2 -12 9 -12 16 0 6 -10 24 -22 39 -20 25 -23 26 -40 11 -15 -14 -22 -15
-47 -5 -20 9 -35 9 -47 2 -29 -15 -106 -33 -138 -32 -23 0 -38 -9 -64 -39 -22
-26 -42 -40 -58 -40 -14 0 -24 -6 -24 -14 0 -8 -19 -21 -41 -30 -37 -15 -44
-15 -65 -2 -20 14 -24 14 -38 0 -9 -8 -16 -21 -16 -28 0 -18 -44 -36 -61 -25
-25 16 -69 9 -106 -16 -20 -13 -41 -21 -47 -18 -6 3 -8 2 -3 -2 4 -5 0 -16 -9
-26 -13 -15 -20 -16 -38 -7 -18 10 -19 9 -9 -3 9 -11 8 -19 -6 -38 -14 -19
-23 -22 -42 -15 -39 14 -82 11 -117 -8 -40 -22 -56 -23 -72 -3 -7 8 -16 12
-22 9 -5 -3 -15 0 -23 6 -9 8 -15 8 -15 2 0 -5 -9 -8 -19 -5 -12 3 -29 -4 -42
-16 -34 -32 -87 -23 -73 12 4 12 1 17 -10 17 -9 0 -20 16 -27 43 -7 23 -17 47
-22 52 -7 7 -8 6 -3 -2 5 -9 0 -13 -14 -13 -16 0 -21 5 -18 23 2 15 9 21 21
19 24 -4 47 21 40 46 -7 28 -40 35 -46 10 -3 -11 -10 -17 -16 -13 -6 3 -9 10
-6 15 7 12 -63 42 -84 35 -11 -3 -26 1 -34 10 -23 22 -105 55 -122 49 -33 -13
-5 35 33 55 12 6 27 9 33 5 33 -20 41 94 9 128 -29 32 -25 45 18 55 30 7 38
14 40 35 4 30 67 64 101 53 16 -5 20 -3 15 10 -9 22 14 71 49 106 17 18 27 35
23 44 -3 8 -9 22 -12 31 -5 12 -1 14 21 8 26 -6 26 -5 15 15 -10 20 -9 23 9
28 26 7 26 15 1 38 -18 17 -20 17 -14 2 9 -25 -41 -23 -73 3 -14 11 -39 20
-55 20 -21 0 -31 6 -38 24 -9 25 -25 39 -47 42 -7 1 -13 -2 -13 -7 0 -4 -6 -6
-14 -3 -18 7 -28 46 -14 55 7 4 11 40 10 96 l0 88 -42 37 c-22 20 -36 39 -31
42 11 7 -5 44 -32 70 -9 10 -17 32 -17 51 0 33 0 33 40 28 40 -6 47 0 31 26
-6 9 -5 23 2 38 8 18 7 27 -6 40 -16 19 -13 78 4 67 5 -3 6 3 2 12 -5 14 -3
16 12 11 9 -4 23 -3 30 3 7 6 17 10 21 8 5 -1 24 6 41 17 26 15 32 24 27 40
-6 17 -5 18 10 6 14 -12 16 -11 16 3 0 9 10 30 22 46 17 24 19 34 11 52 -17
38 -15 43 16 49 21 4 32 2 35 -7 7 -18 36 -18 36 0 0 20 -29 86 -38 86 -16 0
-41 108 -47 195 -7 126 -12 145 -41 145 -22 0 -24 4 -24 55 0 46 -3 55 -18 55
-10 0 -31 13 -46 29 -18 19 -34 27 -47 24 -10 -3 -19 0 -19 6 0 6 -5 11 -11
11 -5 0 -8 -4 -5 -8 2 -4 -3 -23 -11 -41 -16 -31 -19 -33 -60 -28 -35 4 -43 1
-48 -14 -4 -11 -14 -19 -24 -19 -10 0 -30 -9 -44 -20 -14 -11 -35 -20 -46 -20
-12 0 -21 -6 -21 -15 0 -27 -39 -39 -84 -25 -23 7 -43 16 -46 21 -3 5 -23 4
-44 -2 -27 -7 -46 -8 -62 -1 -17 9 -26 7 -39 -8 -19 -21 -50 -16 -69 11 -9 13
-27 19 -62 21 -44 3 -49 5 -47 25 2 17 -8 29 -42 48 -49 29 -65 26 -65 -11 0
-13 -10 -34 -22 -46 -13 -13 -22 -26 -21 -30 4 -12 -58 -21 -69 -10 -6 6 -17
8 -24 5 -8 -3 -14 0 -14 7 0 9 -4 9 -13 2 -8 -7 -29 -7 -61 -1 -55 10 -56 10
-59 -20 -1 -11 -5 -21 -9 -21 -4 0 -8 -7 -8 -15 0 -8 -4 -15 -10 -15 -5 0 -13
0 -17 0 -5 0 -8 10 -8 22 0 12 -6 23 -13 26 -6 2 -12 -4 -12 -13 0 -12 -6 -16
-20 -12 -15 4 -20 0 -20 -14 0 -10 -4 -19 -10 -19 -5 0 -10 5 -10 10 0 16 -47
12 -64 -6 -9 -8 -16 -19 -16 -24 0 -4 -17 -2 -37 5 -25 9 -42 10 -50 4 -16
-14 -46 7 -62 42 -7 16 -16 27 -21 24 -4 -3 -18 4 -31 14 -16 13 -33 17 -55
14 -34 -6 -43 9 -44 72 -1 41 -22 76 -54 89 -26 11 -27 11 -6 24 19 12 22 11
27 -8 4 -15 11 -20 24 -17 11 3 17 1 13 -4 -3 -5 0 -9 6 -9 17 0 23 29 10 45
-7 8 -22 15 -33 15 -11 0 -26 8 -34 18 -8 9 -12 12 -9 7 2 -6 1 -17 -5 -25 -6
-12 -9 -9 -9 10 0 24 -4 26 -40 25 -22 0 -41 -1 -41 -2z m4601 -2163 c0 -5 5
-9 11 -7 6 1 13 -3 16 -9 4 -11 -22 -23 -59 -28 -22 -3 -32 22 -17 40 13 16
49 19 49 4z m-37 -107 c6 -16 14 -30 18 -33 15 -12 29 -50 19 -50 -6 0 -8 -4
-5 -10 3 -5 -1 -10 -9 -10 -9 0 -18 0 -21 0 -3 0 -6 3 -7 8 -1 4 -9 14 -19 22
-12 11 -15 26 -12 58 6 49 18 54 36 15z m87 -97 c0 -15 -24 -16 -37 -1 -4 4
-2 5 5 1 6 -4 12 -2 12 3 0 6 5 11 10 11 6 0 10 -6 10 -14z m-3814 -1141 c10
-8 14 -15 8 -15 -5 0 -19 7 -30 15 -10 8 -14 15 -8 15 5 0 19 -7 30 -15z
m2601 -2531 c-3 -3 -12 -4 -19 -1 -8 3 -5 6 6 6 11 1 17 -2 13 -5z m3936
-1011 c-7 -2 -13 -11 -13 -18 0 -17 -31 -28 -44 -15 -7 7 -3 10 13 10 16 0 21
4 17 15 -4 11 1 15 17 14 12 0 16 -3 10 -6z m281 -62 c21 -23 14 -41 -16 -41
-11 0 -22 8 -25 20 -3 11 -10 20 -17 21 -6 0 -2 4 9 9 29 12 30 12 49 -9z
m-84 -47 c0 -9 -5 -14 -12 -12 -18 6 -21 28 -4 28 9 0 16 -7 16 -16z m-1635
-384 c3 -5 -1 -10 -9 -10 -8 0 -18 5 -21 10 -3 6 1 10 9 10 8 0 18 -4 21 -10z
m1290 -30 c3 -5 1 -10 -4 -10 -6 0 -11 5 -11 10 0 6 2 10 4 10 3 0 8 -4 11
-10z m-980 -159 c6 -11 -33 -26 -43 -16 -4 3 0 10 8 15 19 12 27 12 35 1z
m-55 -43 c0 -14 -18 -17 -34 -5 -14 11 -13 12 9 12 14 0 25 -3 25 -7z"/>
<path d="M7756 14083 c-6 -14 -5 -15 5 -6 7 7 10 15 7 18 -3 3 -9 -2 -12 -12z"/>
<path d="M7800 14075 c0 -8 -3 -14 -7 -14 -26 4 -32 -3 -26 -31 3 -19 1 -30
-6 -30 -17 0 -13 -25 7 -44 18 -15 21 -15 45 4 23 18 24 23 14 50 -6 17 -15
30 -19 30 -5 0 -6 11 -2 25 3 14 3 25 0 25 -3 0 -6 -7 -6 -15z"/>
<path d="M7750 13911 c0 -6 4 -12 8 -15 5 -3 9 1 9 9 0 8 -4 15 -9 15 -4 0 -8
-4 -8 -9z"/>
<path d="M7780 13866 c0 -9 5 -16 10 -16 6 0 10 4 10 9 0 6 -4 13 -10 16 -5 3
-10 -1 -10 -9z"/>
<path d="M5390 13730 c19 -13 30 -13 30 0 0 6 -10 10 -22 10 -19 0 -20 -2 -8
-10z"/>
<path d="M7930 13093 c0 -7 -10 -13 -22 -13 -23 0 -23 -1 2 -14 30 -16 46 -5
31 21 -6 10 -11 12 -11 6z"/>
<path d="M7787 13070 c-18 -18 -18 -19 1 -29 32 -17 70 -13 82 8 11 22 7 26
-35 34 -22 4 -35 1 -48 -13z"/>
<path d="M10308 12620 c-3 -16 -2 -28 0 -25 8 8 32 -16 26 -26 -3 -5 2 -9 10
-9 32 0 7 88 -25 90 -4 0 -9 -13 -11 -30z"/>
<path d="M7887 12455 c-4 -8 -2 -17 3 -20 6 -4 10 -4 10 -1 0 2 3 11 6 20 3 9
2 16 -4 16 -5 0 -12 -7 -15 -15z"/>
<path d="M7770 12430 c14 -4 32 -8 40 -9 13 -1 13 0 0 9 -8 5 -26 9 -40 9
l-25 -1 25 -8z"/>
<path d="M7680 12385 c0 -3 10 -19 22 -35 16 -22 25 -27 37 -20 12 6 22 2 38
-18 17 -20 22 -23 23 -10 0 9 5 18 11 20 8 3 6 10 -5 20 -9 9 -16 22 -16 28 0
7 -8 9 -19 5 -11 -3 -22 -1 -26 5 -6 10 -65 15 -65 5z"/>
<path d="M7720 12250 c0 -5 5 -10 11 -10 5 0 7 5 4 10 -3 6 -8 10 -11 10 -2 0
-4 -4 -4 -10z"/>
<path d="M12145 12020 c-3 -5 -1 -10 4 -10 6 0 11 5 11 10 0 6 -2 10 -4 10 -3
0 -8 -4 -11 -10z"/>
<path d="M5440 11035 c0 -8 4 -15 10 -15 5 0 7 7 4 15 -4 8 -8 15 -10 15 -2 0
-4 -7 -4 -15z"/>
<path d="M5274 10789 c-3 -5 -2 -14 1 -19 4 -6 2 -17 -5 -25 -7 -9 -8 -15 0
-20 5 -3 10 -12 10 -20 0 -13 -8 -17 -63 -29 -23 -5 -26 -10 -18 -20 7 -8 23
-16 37 -19 21 -4 25 -1 21 14 -6 20 8 26 19 8 4 -8 9 -8 17 0 19 19 44 12 62
-16 17 -25 17 -26 -1 -19 -10 4 -15 3 -10 -1 4 -4 18 -8 30 -8 34 -1 26 43
-14 77 -27 22 -34 35 -35 65 0 32 -3 38 -23 39 -12 1 -25 -2 -28 -7z"/>
<path d="M6541 10691 c-8 -6 -9 -11 -3 -15 6 -3 14 -1 17 5 9 14 2 20 -14 10z"/>
<path d="M6270 9828 c0 -18 18 -34 28 -24 3 4 -2 14 -11 23 -16 16 -17 16 -17
1z"/>
<path d="M5893 9053 c10 -9 57 -10 57 -1 0 4 -14 8 -32 8 -17 0 -28 -3 -25 -7z"/>
<path d="M9825 8280 c3 -5 8 -10 11 -10 2 0 4 5 4 10 0 6 -5 10 -11 10 -5 0
-7 -4 -4 -10z"/>
<path d="M9801 8241 c-10 -6 -10 -13 -2 -28 12 -24 6 -34 -17 -26 -13 5 -14 3
-5 -7 7 -8 22 -10 38 -6 22 6 26 11 23 38 -3 34 -15 43 -37 29z"/>
<path d="M9685 7891 c-3 -5 -1 -12 5 -16 5 -3 10 1 10 9 0 18 -6 21 -15 7z"/>
<path d="M10179 7641 c12 -16 21 -36 21 -44 0 -8 7 -20 15 -27 8 -7 15 -28 15
-46 0 -27 4 -34 20 -34 14 0 20 7 20 21 0 16 5 20 20 16 17 -4 19 -1 14 21 -9
36 -13 42 -28 42 -7 0 -19 11 -26 25 -7 14 -19 25 -25 25 -7 0 -18 7 -25 15
-7 8 -19 15 -27 15 -11 0 -10 -7 6 -29z"/>
<path d="M10236 7435 c-3 -8 -1 -15 4 -15 6 0 10 7 10 15 0 8 -2 15 -4 15 -2
0 -6 -7 -10 -15z"/>
<path d="M10225 7370 c-3 -5 -1 -10 4 -10 6 0 11 5 11 10 0 6 -2 10 -4 10 -3
0 -8 -4 -11 -10z"/>
<path d="M13095 6900 c10 -11 20 -20 23 -20 3 0 -3 9 -13 20 -10 11 -20 20
-23 20 -3 0 3 -9 13 -20z"/>
<path d="M13090 6840 c-9 -6 -10 -10 -3 -10 6 0 15 5 18 10 8 12 4 12 -15 0z"/>
<path d="M11272 6828 c3 -7 15 -15 28 -16 21 -3 22 -2 11 12 -16 19 -44 21
-39 4z"/>
<path d="M11480 6545 c-8 -9 -8 -15 -2 -15 12 0 26 19 19 26 -2 2 -10 -2 -17
-11z"/>
<path d="M11434 6525 c-4 -9 0 -24 10 -33 15 -15 16 -14 16 10 0 32 -17 46
-26 23z"/>
<path d="M11453 6401 c0 -21 4 -28 14 -24 16 6 14 45 -3 50 -6 2 -11 -9 -11
-26z"/>
<path d="M13491 6412 c-1 -7 -5 -10 -11 -7 -5 3 -10 2 -10 -3 0 -15 30 -23 48
-12 16 9 16 9 0 10 -9 0 -19 6 -21 13 -4 9 -6 9 -6 -1z"/>
</g>
</svg>
