<?xml version="1.0" standalone="no"?>
<!DOCTYPE svg PUBLIC "-//W3C//DTD SVG 20010904//EN"
 "http://www.w3.org/TR/2001/REC-SVG-20010904/DTD/svg10.dtd">
<svg version="1.0" xmlns="http://www.w3.org/2000/svg"
 width="831.467432pt" height="743.903343pt" viewBox="0 0 831.467432 743.903343"
 preserveAspectRatio="xMidYMid meet">
<metadata>
Created by potrace 1.15, written by Peter Selinger 2001-2017
</metadata>
<g transform="translate(-626.295756,1313.934539) scale(0.100000,-0.100000)"
fill="#222222" stroke="none">
<path d="M8089 13126 c-14 -7 -48 -12 -77 -10 -29 1 -52 -2 -52 -7 0 -5 -9 -9
-20 -9 -11 0 -20 5 -20 11 0 7 -11 8 -30 4 -18 -4 -36 -2 -45 5 -10 9 -15 5
-20 -20 -5 -23 -12 -30 -31 -30 -13 0 -24 -5 -24 -11 0 -6 -9 -8 -21 -4 -27 9
-61 -21 -53 -47 3 -11 0 -18 -8 -18 -9 0 -13 -16 -14 -47 -1 -26 -7 -49 -12
-51 -7 -2 -1 -25 16 -58 24 -49 29 -54 59 -54 23 0 35 -5 39 -17 11 -35 22
-48 40 -46 11 1 35 -3 55 -9 35 -10 41 -20 28 -43 -18 -29 -19 -86 -3 -110 16
-24 15 -26 -7 -45 -13 -10 -34 -19 -46 -20 -12 0 -24 -6 -26 -12 -4 -10 -7
-10 -15 0 -12 18 -39 -79 -37 -133 1 -22 0 -44 -3 -50 -4 -5 -5 -22 -3 -37 1
-16 -2 -28 -9 -28 -11 0 -9 -15 8 -59 4 -10 1 -13 -9 -9 -21 8 -17 -49 5 -65
16 -11 15 -15 -1 -54 -10 -24 -24 -43 -32 -43 -11 0 -11 -3 0 -16 11 -13 11
-15 -2 -14 -42 6 -69 -1 -69 -18 0 -11 -12 -22 -31 -29 -38 -15 -34 -37 7 -40
16 -1 49 -4 73 -7 38 -5 47 -3 66 18 13 14 20 27 17 30 -3 3 2 6 11 6 9 0 17
-6 17 -13 0 -8 11 -19 24 -25 20 -9 25 -8 30 4 4 10 13 13 25 9 10 -3 30 -1
45 4 21 9 26 17 26 45 0 21 6 36 15 40 8 3 20 17 25 32 7 18 15 24 26 20 44
-17 84 61 65 129 -6 21 -9 40 -7 42 2 2 14 -5 27 -15 13 -11 29 -17 35 -15 6
2 23 -16 39 -41 15 -24 38 -49 51 -55 13 -6 24 -15 24 -21 0 -5 11 -10 24 -10
18 0 23 -4 20 -17 -3 -10 1 -27 9 -37 13 -17 16 -18 35 -4 23 16 20 30 -4 21
-9 -3 -18 5 -25 26 -6 17 -15 28 -20 25 -5 -3 -9 4 -9 15 0 11 5 23 11 26 6 4
8 13 5 20 -2 7 -2 16 2 20 4 4 7 11 7 17 0 6 18 20 40 30 67 32 70 35 68 54
-1 10 10 31 24 48 17 21 23 38 21 58 -4 26 -2 28 28 28 27 0 34 -5 43 -31 6
-18 11 -40 11 -49 0 -9 12 -22 26 -29 17 -7 24 -17 20 -26 -3 -9 6 -26 24 -42
29 -25 41 -73 19 -73 -5 0 -7 -4 -4 -10 10 -16 45 -12 45 5 0 9 22 25 50 37
28 12 50 28 50 35 0 7 5 13 11 13 11 0 8 20 -8 74 -4 15 -1 18 11 13 13 -5 15
-3 7 12 -22 40 -79 62 -159 61 -45 0 -32 16 21 26 57 10 60 11 80 12 9 1 17 9
17 18 0 11 5 14 16 10 18 -7 40 3 28 13 -21 15 -43 68 -33 78 8 8 7 17 -1 32
-6 12 -8 26 -4 32 3 6 -2 19 -11 29 -19 22 -17 69 7 118 19 40 12 85 -17 98
-13 6 -29 8 -36 3 -7 -4 -30 0 -51 8 -35 14 -40 14 -57 -1 -16 -15 -19 -15
-37 5 -10 12 -31 28 -47 35 -15 8 -25 19 -22 24 4 6 0 10 -9 10 -8 0 -16 -5
-18 -11 -2 -6 -14 -5 -33 5 -17 9 -35 16 -42 16 -7 0 -16 7 -20 15 -13 22
-115 95 -134 95 -9 0 -29 15 -43 33 -15 17 -31 38 -37 45 -13 16 -37 15 -70
-2z m-240 -365 c9 -6 10 -11 2 -15 -6 -4 -18 0 -27 8 -12 12 -12 16 -2 16 7 0
19 -4 27 -9z m721 -336 c10 -12 10 -15 -4 -15 -9 0 -16 7 -16 15 0 8 2 15 4
15 2 0 9 -7 16 -15z"/>
<path d="M8459 12986 c4 -16 12 -31 19 -34 18 -6 14 13 -8 39 l-19 24 8 -29z"/>
<path d="M7532 12849 c-19 -17 -40 -28 -48 -25 -9 3 -14 -1 -14 -14 0 -23 -40
-31 -56 -11 -8 11 -18 11 -40 4 -16 -6 -28 -16 -26 -22 2 -11 -45 -36 -61 -32
-5 1 -6 -3 -2 -9 3 -6 10 -8 15 -5 4 3 11 -2 14 -11 5 -13 2 -15 -14 -11 -13
3 -21 -1 -25 -14 -4 -10 -15 -19 -26 -19 -10 0 -19 -6 -19 -14 0 -10 -7 -12
-22 -8 -17 4 -20 2 -15 -12 4 -10 7 -20 7 -22 0 -2 9 -4 20 -4 12 0 34 -7 50
-15 18 -9 31 -11 35 -5 3 6 17 10 30 10 13 0 28 6 32 13 4 7 20 20 36 30 15
10 27 22 27 28 0 6 14 24 31 40 24 22 35 27 44 19 10 -8 25 -8 55 0 23 6 48 9
56 6 8 -3 14 1 14 10 0 8 4 13 9 10 16 -11 31 21 25 52 -5 25 -14 34 -38 41
-17 5 -38 11 -46 15 -9 3 -29 -7 -48 -25z"/>
<path d="M6560 12787 c0 -19 -7 -40 -15 -47 -8 -7 -15 -19 -15 -26 0 -8 -4
-14 -10 -14 -5 0 -10 4 -10 10 0 5 -21 9 -47 8 -27 -1 -56 2 -67 6 -18 9 -18
8 -1 -17 9 -15 22 -27 29 -27 26 -1 40 -21 42 -60 2 -34 0 -39 -12 -29 -15 13
-64 4 -64 -11 0 -6 5 -10 10 -10 6 0 10 5 10 11 0 8 5 8 15 -1 8 -7 25 -10 39
-6 29 7 50 -15 41 -43 -4 -14 0 -21 13 -25 10 -3 24 -22 31 -41 8 -23 19 -35
31 -35 11 0 35 -13 53 -30 19 -16 40 -30 46 -30 6 0 20 -14 33 -30 14 -19 25
-27 31 -21 6 6 17 1 30 -16 15 -19 17 -27 7 -33 -7 -4 -10 -12 -7 -17 4 -6 1
-23 -5 -39 -9 -26 -7 -37 20 -89 21 -41 31 -53 32 -38 0 12 8 24 20 28 12 4
22 19 26 41 3 19 11 34 16 34 6 0 8 7 5 14 -4 9 1 17 12 21 10 3 23 17 29 30
6 14 16 25 22 25 6 0 8 5 4 11 -5 8 -13 4 -26 -12 -12 -15 -18 -17 -15 -7 3 9
-3 24 -14 34 -21 19 -27 43 -5 25 7 -6 28 -9 47 -7 19 3 37 5 42 5 4 1 1 15
-8 31 -9 17 -12 30 -8 30 4 0 2 5 -5 12 -18 18 -14 30 6 19 19 -10 45 0 73 28
13 14 14 19 2 29 -18 17 -17 33 2 26 8 -4 12 -10 9 -15 -3 -5 0 -9 5 -9 6 0
11 9 11 20 0 13 -7 20 -20 20 -11 0 -21 6 -22 13 -2 23 -5 32 -16 60 -7 16
-12 39 -12 53 0 13 -9 32 -21 42 -26 22 -54 72 -50 92 1 8 -5 5 -14 -7 -9 -13
-27 -23 -40 -23 -13 0 -36 -5 -50 -10 -20 -8 -39 -6 -72 5 -24 8 -48 13 -52
10 -5 -2 -16 4 -25 14 -11 12 -25 17 -37 14 -12 -4 -32 3 -50 16 l-29 22 0
-34z m380 -357 c0 -5 -2 -10 -4 -10 -3 0 -8 5 -11 10 -3 6 -1 10 4 10 6 0 11
-4 11 -10z"/>
<path d="M7270 12804 c0 -8 5 -12 10 -9 6 3 10 10 10 16 0 5 -4 9 -10 9 -5 0
-10 -7 -10 -16z"/>
<path d="M7246 12734 c-4 -10 -2 -22 3 -27 7 -7 13 -5 17 7 4 10 2 22 -3 27
-7 7 -13 5 -17 -7z"/>
<path d="M7120 12660 c8 -5 24 -9 35 -9 l20 0 -20 9 c-11 5 -27 9 -35 9 -13 1
-13 0 0 -9z"/>
<path d="M6450 12545 c0 -8 2 -15 4 -15 2 0 6 7 10 15 3 8 1 15 -4 15 -6 0
-10 -7 -10 -15z"/>
<path d="M7136 12434 c-4 -10 -14 -14 -26 -11 -11 3 -20 0 -20 -5 0 -6 -8 -4
-18 5 -26 24 -34 21 -31 -10 3 -28 -5 -35 -29 -25 -20 7 -25 -4 -12 -28 9 -16
9 -25 -1 -36 -9 -11 -7 -14 14 -14 14 0 31 -8 37 -17 11 -17 11 -17 6 0 -6 19
4 23 21 6 8 -8 13 -8 17 0 10 16 26 13 26 -4 0 -8 4 -15 10 -15 5 0 7 7 4 15
-4 11 1 15 17 15 37 0 46 11 51 60 3 33 -1 49 -14 62 -22 22 -44 23 -52 2z"/>
<path d="M6970 12290 c0 -15 21 -23 32 -12 6 6 2 11 -11 15 -12 3 -21 1 -21
-3z"/>
<path d="M6292 12118 c16 -27 36 -48 44 -48 7 0 33 -24 56 -54 24 -30 67 -72
96 -95 28 -23 52 -43 52 -46 0 -2 -4 -14 -9 -27 -10 -27 6 -51 52 -81 32 -21
35 -37 7 -44 -11 -3 -20 -8 -21 -12 -2 -15 -6 -121 -5 -121 1 0 17 11 36 25
37 27 69 32 88 13 9 -9 12 -9 12 1 0 7 4 10 10 6 5 -3 18 0 29 7 16 10 23 10
33 0 9 -9 16 -8 31 6 10 9 20 16 21 14 0 -2 9 0 19 4 17 6 16 9 -9 35 l-28 29
28 29 c24 25 28 36 22 61 -9 46 22 96 52 85 7 -2 23 0 36 5 27 10 52 -9 43
-32 -2 -7 3 -26 11 -43 9 -16 16 -33 17 -37 0 -5 5 -8 10 -9 35 -2 58 -62 34
-86 -8 -8 -4 -16 14 -28 14 -9 32 -34 41 -56 9 -21 23 -39 31 -39 8 0 15 -4
15 -9 0 -4 11 -20 25 -35 29 -32 65 -35 65 -6 0 24 8 25 38 4 20 -14 22 -14
23 3 0 16 1 16 8 -2 5 -11 6 -25 4 -32 -7 -19 16 -53 38 -53 15 0 18 5 14 23
-4 16 0 29 14 41 22 20 20 56 -3 85 -6 7 -11 19 -12 25 0 6 -2 17 -2 24 -1 6
-10 12 -21 12 -27 0 -45 27 -48 72 -2 31 3 44 19 58 l22 17 -22 12 c-17 9 -22
9 -22 0 0 -9 -3 -9 -14 0 -18 15 -27 49 -15 57 11 7 -19 61 -38 69 -9 3 -11 0
-7 -6 4 -7 1 -10 -7 -7 -8 3 -14 14 -14 25 0 11 -6 27 -14 36 -12 15 -15 15
-25 3 -9 -13 -18 -12 -60 9 l-48 23 -32 -36 c-39 -46 -46 -51 -62 -45 -8 3
-28 -4 -47 -16 -33 -20 -33 -20 -50 -1 -9 11 -17 29 -17 40 0 12 -6 23 -13 26
-22 8 -130 11 -157 4 -41 -10 -60 -1 -60 28 0 16 -8 32 -20 40 -13 8 -20 8
-20 2 0 -7 -6 -8 -19 0 -11 5 -37 10 -59 10 -24 0 -49 8 -64 19 -15 13 -33 18
-46 14 -12 -3 -22 -1 -22 3 -1 26 -33 49 -69 49 l-38 0 29 -47z"/>
<path d="M8630 12094 c0 -9 7 -14 17 -12 25 5 28 28 4 28 -12 0 -21 -6 -21
-16z"/>
<path d="M6790 12030 c0 -5 5 -10 10 -10 6 0 10 5 10 10 0 6 -4 10 -10 10 -5
0 -10 -4 -10 -10z"/>
<path d="M7383 11988 c2 -24 -1 -38 -9 -38 -6 0 -17 -7 -25 -16 -11 -13 -9
-15 17 -12 20 2 28 -1 26 -11 -1 -7 0 -21 3 -31 7 -23 65 -22 80 1 9 13 12 13
28 -3 9 -10 18 -21 18 -25 1 -5 4 -16 8 -26 6 -16 8 -16 28 3 12 11 27 20 33
20 6 0 10 8 8 18 -2 9 -10 16 -17 14 -19 -4 -40 17 -56 55 -12 28 -19 33 -47
33 -19 0 -44 7 -56 16 -12 8 -22 12 -23 7 0 -4 -5 1 -10 12 -7 16 -8 12 -6
-17z m32 -8 c3 -5 -1 -10 -10 -10 -9 0 -13 5 -10 10 3 6 8 10 10 10 2 0 7 -4
10 -10z"/>
<path d="M7295 11950 c-3 -5 -1 -10 4 -10 6 0 11 5 11 10 0 6 -2 10 -4 10 -3
0 -8 -4 -11 -10z"/>
<path d="M7977 11880 c-4 -16 -1 -20 11 -18 19 4 23 29 6 35 -6 2 -14 -6 -17
-17z"/>
<path d="M7945 11842 c-10 -7 -16 -122 -6 -122 20 1 51 14 51 22 0 5 -4 6 -10
3 -11 -7 -13 8 -10 68 1 36 -5 44 -25 29z"/>
<path d="M8613 11794 c-3 -8 -1 -20 5 -26 18 -18 -14 -71 -39 -63 -15 5 -19 2
-19 -14 0 -12 -4 -21 -10 -21 -5 0 -23 -14 -40 -30 -30 -29 -33 -30 -73 -19
-135 35 -127 34 -127 14 0 -8 5 -15 10 -15 6 0 10 -6 10 -14 0 -8 7 -16 15
-20 15 -5 21 -36 8 -36 -5 0 -23 9 -42 21 -31 19 -34 19 -52 3 -16 -14 -24
-15 -44 -6 -23 11 -25 10 -25 -12 0 -19 -4 -23 -21 -19 -15 4 -28 -4 -49 -28
-16 -19 -29 -28 -30 -21 0 19 -28 14 -35 -8 -5 -17 -62 -60 -80 -60 -4 0 -4
11 -1 24 3 14 3 31 0 40 -5 12 -12 9 -35 -15 -16 -16 -29 -35 -29 -41 0 -6 -9
-8 -21 -5 -12 3 -29 2 -38 -3 -35 -18 -76 -33 -83 -32 -5 1 -8 -5 -8 -13 0
-11 -5 -12 -25 -5 -18 7 -27 6 -32 -4 -10 -16 -61 -27 -69 -15 -9 16 -47 10
-41 -6 8 -19 -57 -32 -77 -15 -24 19 -64 -13 -58 -48 8 -47 2 -126 -11 -134
-6 -4 -12 -11 -13 -15 0 -4 -8 -26 -17 -47 -10 -22 -15 -47 -12 -57 3 -10 -3
-36 -14 -58 -17 -32 -19 -45 -11 -67 8 -21 6 -36 -11 -73 -12 -25 -31 -56 -43
-69 -17 -19 -18 -27 -9 -51 9 -24 7 -31 -9 -45 -15 -13 -19 -28 -17 -63 2 -34
-1 -48 -15 -59 -18 -12 -17 -14 3 -40 29 -36 28 -64 -1 -57 -17 3 -19 2 -9 -5
17 -12 6 -67 -11 -56 -7 4 -8 3 -4 -4 4 -7 4 -17 0 -24 -11 -17 -11 -81 0 -96
5 -7 10 -38 12 -70 4 -62 -11 -96 -46 -107 -17 -6 -19 -9 -9 -22 10 -11 10
-16 0 -22 -9 -6 -5 -14 16 -30 15 -11 35 -26 43 -33 8 -7 15 -11 16 -8 1 3 5
2 9 -2 4 -3 -3 -9 -15 -13 l-22 -7 21 -22 c18 -19 21 -33 19 -84 -3 -51 -6
-62 -20 -62 -10 0 -18 -5 -18 -12 0 -6 -8 -20 -17 -30 -16 -18 -16 -22 -1 -48
9 -16 12 -33 7 -41 -9 -15 6 -39 25 -39 16 -1 66 -70 66 -91 0 -26 31 -39 94
-39 33 0 56 -4 56 -11 0 -5 4 -8 9 -5 5 3 14 -1 21 -8 6 -8 25 -18 41 -21 35
-8 45 -21 29 -40 -10 -12 -9 -15 2 -15 29 0 77 -31 72 -45 -9 -23 4 -35 29
-26 23 9 77 -11 77 -29 0 -14 57 -13 62 1 5 16 60 -1 65 -21 4 -13 12 -15 51
-9 26 3 62 12 80 19 18 7 50 10 72 8 28 -2 40 0 40 9 0 8 12 13 31 13 25 0 32
6 45 35 9 23 21 35 34 35 12 0 30 16 45 39 20 30 31 38 47 33 11 -2 23 0 27 6
9 15 60 17 92 4 19 -7 39 -7 69 0 l43 11 -34 18 c-19 10 -42 18 -51 19 -26 0
-88 31 -131 63 l-38 29 -47 -17 c-26 -10 -55 -25 -65 -33 -16 -14 -20 -13 -47
19 -16 19 -29 42 -30 52 0 10 -6 17 -12 16 -27 -3 -59 14 -56 30 1 9 -2 23 -7
31 -5 8 -11 30 -15 49 -4 28 -14 40 -45 58 -36 21 -38 24 -18 29 18 5 23 16
28 59 7 51 3 73 -32 169 -13 36 -13 39 12 62 14 12 25 29 25 36 0 7 9 19 20
26 13 8 20 23 20 42 0 17 5 30 10 30 6 0 1 9 -10 20 -11 11 -20 26 -20 33 0 8
-4 7 -11 -3 -8 -12 -9 -10 -7 10 3 27 36 40 48 19 13 -20 77 -21 84 -1 3 9 9
23 12 30 3 6 -1 12 -9 12 -15 0 -29 34 -32 83 -3 27 8 36 20 17 4 -6 15 -4 30
6 19 13 23 22 18 45 -3 18 -1 29 5 29 7 0 4 12 -6 29 -13 24 -14 32 -3 44 14
17 71 20 71 4 0 -6 3 -8 6 -4 3 3 -4 19 -16 35 -12 16 -23 40 -24 53 -2 13 -6
34 -10 47 -5 15 -3 22 5 22 9 0 10 3 2 11 -11 11 -5 59 8 59 5 0 9 12 9 28 1
31 31 72 54 72 9 0 16 4 16 9 0 5 11 12 24 15 14 3 28 15 31 26 3 11 13 20 22
20 10 0 14 6 10 20 -3 11 -1 20 4 20 5 0 9 -4 9 -9 0 -4 19 -7 42 -5 41 3 75
-9 91 -30 5 -7 7 -3 5 9 -2 12 4 21 16 23 14 3 17 0 13 -12 -3 -8 -2 -18 3
-21 6 -4 10 -1 10 6 0 23 48 -32 54 -63 4 -18 14 -32 26 -35 22 -6 43 -63 47
-128 1 -22 5 -59 9 -83 4 -30 2 -48 -8 -60 -8 -9 -19 -29 -26 -44 -8 -20 -19
-28 -36 -28 -14 0 -28 -5 -31 -10 -4 -6 -11 -8 -16 -5 -16 10 -10 -17 7 -29
16 -12 10 -46 -8 -46 -5 0 -17 -7 -25 -16 -11 -11 -26 -14 -47 -10 -27 5 -32
3 -33 -15 -1 -12 3 -19 10 -16 7 2 23 -4 36 -14 13 -11 39 -19 57 -19 19 0 34
-5 34 -11 0 -5 4 -8 9 -4 5 3 12 1 16 -5 3 -5 17 -10 30 -10 18 0 23 4 19 15
-4 8 -1 15 5 15 6 0 11 8 11 18 1 16 1 16 11 -1 6 -10 8 -25 5 -32 -3 -8 -2
-14 2 -13 13 4 52 -26 52 -40 0 -10 -5 -10 -22 -1 -19 9 -21 9 -10 -2 14 -15
16 -33 3 -25 -11 7 -24 -59 -16 -84 7 -21 55 -29 55 -9 0 5 5 7 10 4 6 -3 10
-11 10 -16 0 -6 -5 -7 -11 -3 -8 5 -10 -1 -5 -19 4 -18 1 -29 -10 -35 -13 -7
-12 -11 10 -26 16 -10 26 -26 26 -40 0 -13 7 -29 15 -36 8 -7 15 -19 15 -26 0
-9 13 -14 40 -15 22 -1 55 -2 73 -3 19 -1 38 5 47 15 8 9 31 21 51 28 32 10
36 15 33 41 -2 16 1 32 7 36 6 4 3 11 -9 20 -16 11 -19 23 -16 78 3 61 -6 90
-21 67 -7 -12 -56 4 -67 22 -4 6 2 17 13 25 10 7 19 19 19 25 0 7 7 23 16 36
l17 23 24 -26 c30 -32 40 -33 54 -2 l11 24 34 -20 c19 -11 31 -25 28 -33 -3
-7 4 -19 16 -25 12 -6 39 -27 61 -47 38 -34 55 -40 150 -47 53 -5 63 -13 47
-39 -15 -24 -15 -32 -3 -60 4 -10 13 -16 20 -13 14 5 45 -25 64 -61 6 -13 18
-23 25 -23 8 0 19 -7 26 -15 15 -18 71 -20 88 -3 8 8 14 5 21 -15 6 -15 14
-27 19 -27 10 0 47 -71 43 -84 -1 -4 6 -20 15 -34 9 -14 18 -35 19 -46 1 -12
3 -25 4 -29 0 -4 17 -5 37 -1 29 5 40 2 60 -17 13 -12 24 -28 24 -34 0 -6 11
-18 25 -25 17 -9 25 -22 25 -39 0 -15 8 -31 20 -39 11 -7 17 -18 14 -27 -7
-16 26 -105 39 -105 4 0 7 -9 7 -19 0 -21 19 -31 60 -31 39 0 60 -9 60 -26 0
-18 41 -34 70 -27 16 4 23 0 27 -16 3 -11 10 -21 15 -21 6 0 8 -6 5 -14 -3 -8
3 -22 13 -31 10 -9 22 -36 25 -58 4 -23 11 -47 16 -53 12 -14 -1 -54 -17 -54
-20 0 -17 -13 7 -44 14 -18 18 -31 11 -39 -12 -15 -22 -67 -13 -67 4 0 5 -16
3 -35 -5 -38 13 -69 35 -61 13 5 44 -42 50 -77 2 -10 12 -28 24 -40 11 -12 27
-34 35 -49 15 -29 42 -42 89 -43 23 0 31 -5 33 -22 2 -15 10 -23 24 -23 11 0
35 -7 54 -16 27 -13 37 -14 48 -5 12 10 18 7 31 -13 10 -14 26 -26 36 -26 29
0 44 -39 44 -117 0 -54 -4 -73 -13 -73 -7 0 -10 -5 -6 -12 4 -6 10 -25 14 -42
4 -22 12 -31 25 -31 14 0 20 -7 20 -21 0 -12 7 -30 16 -40 9 -11 17 -34 17
-53 0 -18 9 -43 19 -55 10 -11 18 -28 17 -36 -1 -15 -27 -82 -43 -111 -5 -9
-5 -22 0 -30 5 -8 6 -22 3 -32 -3 -10 -1 -24 6 -32 8 -10 7 -16 -5 -23 -14 -7
-15 -12 -4 -29 7 -12 19 -18 29 -16 25 7 43 -22 37 -57 -6 -28 12 -57 21 -32
2 8 9 9 23 2 16 -9 20 -6 25 16 4 15 2 35 -4 45 -9 14 -7 18 14 23 26 7 30 28
25 128 l-3 46 39 -13 c56 -21 83 -19 83 5 0 26 6 25 49 -7 20 -16 40 -27 44
-25 4 1 18 -3 30 -10 29 -16 105 -37 139 -38 15 0 30 -5 33 -11 5 -7 13 -5 25
6 11 10 26 14 38 10 11 -3 32 -3 46 1 20 5 25 11 21 25 -5 13 -1 19 9 19 9 0
24 16 33 34 14 30 19 33 35 25 11 -6 37 -12 58 -13 22 -2 50 -10 62 -18 13 -9
39 -19 58 -23 19 -4 48 -19 65 -32 28 -23 31 -31 33 -88 2 -59 1 -65 -23 -81
l-26 -17 33 -20 c18 -12 34 -22 36 -23 9 -6 -25 -44 -40 -44 -14 0 -18 -8 -18
-35 0 -34 20 -49 35 -25 4 6 12 4 22 -5 9 -9 22 -14 29 -11 8 3 11 0 7 -10 -3
-7 -8 -14 -12 -14 -9 0 -8 -42 1 -56 11 -16 -2 -54 -19 -54 -9 0 -2 -11 16
-26 18 -15 31 -35 31 -49 0 -18 11 -28 46 -45 25 -12 51 -31 57 -41 14 -23 37
-25 37 -4 0 20 6 19 44 -5 18 -10 54 -21 81 -23 44 -3 53 0 77 24 16 15 28 26
28 25 0 -2 18 0 40 4 22 4 40 3 40 -1 0 -5 9 -9 20 -9 11 0 20 -4 20 -9 0 -15
23 -19 65 -12 26 5 49 3 66 -5 35 -17 87 -19 122 -5 16 6 39 8 53 5 15 -4 24
-2 24 5 0 6 11 17 25 23 14 6 25 18 25 26 0 8 6 12 15 8 9 -3 15 0 15 9 0 7 6
20 13 27 6 7 12 22 12 33 0 12 6 19 14 17 23 -5 51 9 51 25 0 9 6 13 15 9 10
-3 15 1 15 12 0 9 7 26 15 36 18 23 19 58 4 73 -8 8 -5 18 14 38 16 18 23 34
19 49 -5 18 -3 19 10 8 13 -10 16 -9 21 10 4 13 2 27 -3 32 -6 6 -10 20 -10
33 0 16 -8 27 -26 33 -14 6 -23 14 -19 19 3 5 -4 12 -15 16 -11 3 -20 13 -20
21 0 24 19 54 35 54 9 0 12 6 8 15 -5 13 -2 14 21 4 23 -11 29 -9 49 9 32 30
37 28 37 -18 0 -22 -4 -40 -8 -40 -14 0 -30 -57 -21 -73 5 -8 23 -18 39 -22
24 -5 29 -11 25 -25 -4 -11 4 -28 20 -46 14 -15 25 -30 25 -34 0 -4 12 -12 26
-19 17 -7 24 -17 20 -26 -3 -9 7 -29 24 -48 16 -18 32 -45 36 -61 4 -18 11
-25 21 -22 8 4 11 1 7 -5 -3 -6 3 -21 15 -33 11 -11 38 -42 59 -67 32 -38 44
-46 71 -45 41 1 62 -19 30 -29 -17 -6 -19 -9 -8 -16 11 -7 11 -9 -3 -9 -10 0
-22 -9 -27 -19 -9 -15 -7 -20 9 -24 13 -3 21 1 25 14 7 21 35 26 35 7 0 -7 -3
-23 -6 -35 -5 -19 -11 -22 -33 -17 -14 3 -38 15 -53 25 -34 24 -41 24 -29 0
15 -27 -13 -81 -37 -74 -15 4 -18 -1 -14 -30 3 -29 0 -36 -17 -42 -25 -8 -26
-14 -5 -43 15 -21 14 -23 -16 -35 l-31 -13 26 -12 c14 -6 25 -16 25 -22 0 -19
-14 -10 -57 35 -46 49 -57 55 -50 28 2 -10 -5 -33 -16 -52 -19 -31 -19 -34 -3
-43 14 -8 15 -11 1 -24 -8 -9 -15 -24 -15 -34 0 -10 -6 -20 -12 -23 -10 -3
-10 -7 1 -20 12 -15 11 -17 -7 -17 -12 0 -25 -7 -30 -16 -7 -12 -19 -15 -41
-12 -26 4 -31 2 -25 -11 18 -43 13 -107 -12 -154 -22 -41 -24 -52 -15 -75 7
-15 10 -50 7 -77 -5 -60 22 -105 63 -105 37 0 91 -36 91 -59 0 -11 5 -23 10
-26 20 -12 89 7 116 31 14 14 33 23 40 20 8 -3 14 0 15 7 0 7 2 22 5 35 4 20
0 22 -39 22 -37 0 -46 4 -55 25 -10 22 -9 25 8 25 11 0 20 4 20 9 0 5 11 9 26
9 14 0 35 9 48 21 17 16 30 20 52 15 24 -4 37 0 62 21 18 15 39 25 46 22 8 -3
17 2 21 11 6 15 7 15 17 -3 14 -26 30 -36 46 -30 6 2 12 -3 12 -13 1 -14 4
-13 19 6 11 12 26 22 35 22 9 0 16 5 16 10 0 13 33 13 46 0 15 -15 126 24 143
51 9 13 21 27 27 31 7 5 10 16 7 27 -3 11 2 21 11 24 9 4 16 16 16 27 0 12 7
34 15 50 10 19 13 43 9 67 -4 25 0 48 10 68 17 32 21 55 9 55 -5 0 -15 13 -25
29 -13 24 -22 29 -50 28 -28 -2 -34 2 -36 22 -2 13 1 27 6 30 6 3 14 22 19 41
9 32 7 38 -24 68 -29 27 -33 38 -31 73 3 35 6 40 25 36 17 -3 25 4 39 35 12
27 21 35 28 28 5 -5 20 -10 33 -10 17 0 23 -6 24 -22 1 -13 2 -27 4 -33 1 -5
3 -14 4 -20 1 -5 6 -3 11 5 7 12 12 12 22 2 22 -22 38 -14 38 21 0 19 8 42 18
52 17 19 17 20 -15 48 -35 31 -42 47 -19 47 9 0 12 7 9 20 -4 14 0 20 11 20
20 0 20 30 2 83 -12 33 -12 38 3 47 14 9 12 14 -18 39 -31 27 -61 32 -61 10 0
-15 -40 -10 -46 6 -4 9 -19 15 -41 15 -21 0 -32 -4 -28 -10 4 -7 -2 -9 -17 -5
-12 3 -40 7 -62 9 -25 2 -44 10 -55 24 -16 20 -16 20 -39 2 -13 -11 -20 -25
-16 -33 7 -19 -21 -35 -85 -51 -39 -9 -46 -15 -49 -38 -3 -29 -20 -36 -39 -17
-8 8 -17 8 -32 -1 -13 -6 -31 -8 -44 -4 -12 5 -28 7 -34 6 -7 -2 -13 2 -13 8
0 5 4 10 9 10 5 0 8 8 7 17 0 11 7 19 20 21 16 2 20 8 17 23 -4 13 0 19 11 19
19 0 21 31 5 61 -8 17 -6 24 16 41 14 11 24 26 21 33 -6 16 45 28 59 14 18
-17 54 -9 75 18 20 25 70 42 70 22 0 -12 42 -7 58 8 12 11 11 71 -2 91 -3 5 0
32 8 61 10 41 11 53 1 61 -7 6 -11 19 -8 29 3 12 -3 24 -17 34 -27 19 -19 56
21 97 18 18 28 37 27 52 -2 17 3 24 20 26 12 2 22 11 23 20 0 9 1 34 3 55 2
26 -1 37 -11 37 -9 0 -11 5 -6 13 11 18 11 77 0 84 -5 3 -13 0 -17 -7 -5 -8
-17 -10 -34 -6 -15 4 -24 11 -21 16 3 6 -1 11 -9 11 -24 2 -30 4 -42 11 -6 4
-25 5 -42 3 -25 -3 -35 1 -48 20 l-15 23 -28 -29 c-28 -28 -45 -30 -34 -3 3 8
0 14 -6 14 -6 0 -11 -4 -11 -10 0 -17 -26 -11 -54 11 -19 15 -24 25 -17 32 6
6 0 19 -19 38 -38 39 -65 39 -41 0 9 -14 -19 -51 -39 -51 -5 0 -7 -6 -4 -14 5
-12 -5 -14 -49 -10 -40 3 -59 1 -68 -9 -8 -8 -21 -12 -31 -9 -13 3 -18 -1 -18
-16 0 -12 -9 -26 -19 -32 -33 -17 -44 -12 -37 16 6 23 4 26 -13 21 -10 -2 -32
4 -47 14 -20 13 -33 15 -45 8 -48 -25 -136 6 -145 51 -5 25 -9 27 -24 18 -10
-7 -16 -16 -14 -22 6 -15 -75 -13 -103 2 -17 9 -28 9 -47 0 -14 -6 -26 -15
-26 -21 0 -5 -7 -6 -16 -3 -9 3 -33 1 -55 -5 -30 -10 -42 -9 -54 1 -15 12 -15
14 -1 22 23 13 20 26 -11 52 -27 23 -27 23 -5 30 12 4 19 13 16 21 -5 11 -11
11 -30 3 -18 -8 -31 -8 -49 0 -35 16 -63 16 -47 0 23 -23 12 -27 -22 -9 l-34
20 -13 -30 c-11 -28 -15 -30 -50 -24 -34 6 -37 5 -32 -14 6 -24 -5 -26 -41
-10 -22 10 -28 9 -46 -12 -15 -16 -23 -20 -26 -11 -3 6 -12 12 -19 12 -8 0
-26 11 -41 25 -15 14 -36 25 -46 25 -11 0 -22 9 -25 20 -4 14 -14 20 -34 20
l-29 0 16 -37 c9 -21 18 -44 21 -50 3 -7 -2 -13 -11 -13 -12 0 -14 -7 -10 -29
6 -26 3 -30 -25 -36 -36 -8 -39 -18 -11 -38 21 -15 36 -77 19 -77 -5 0 -9 -6
-9 -14 0 -13 -20 -26 -39 -26 -4 0 -13 11 -19 25 -9 18 -19 25 -41 25 -16 0
-36 6 -43 13 -7 6 -26 13 -43 15 -59 5 -75 12 -75 32 0 11 7 20 15 20 8 0 15
5 15 10 0 6 6 10 14 10 21 0 29 33 15 64 -14 31 -9 39 25 39 14 0 23 3 20 8
-3 5 -13 9 -22 9 -13 0 -13 2 3 14 37 27 26 109 -19 136 -12 7 -18 9 -13 5 12
-14 -32 -53 -54 -48 -10 3 -19 11 -19 18 0 7 -7 15 -15 19 -9 3 -15 0 -15 -9
0 -15 -38 -40 -47 -31 -3 3 -14 1 -23 -4 -13 -7 -27 -5 -47 5 -15 8 -41 15
-56 15 -16 0 -30 7 -34 15 -5 14 -7 14 -23 0 -15 -14 -19 -13 -41 11 -19 20
-21 27 -10 34 8 4 11 15 7 25 -4 12 0 18 13 22 28 7 32 39 8 69 l-20 26 23 18
c15 11 19 19 11 24 -6 4 -16 4 -21 1 -6 -4 -17 -1 -25 5 -12 10 -15 9 -15 -2
0 -20 -34 -50 -45 -41 -5 5 -4 1 3 -8 13 -17 13 -17 -83 -22 -19 -1 -30 -7
-30 -17 0 -25 -31 -51 -71 -60 -42 -10 -64 1 -64 30 0 9 -11 29 -25 44 -23 25
-30 27 -68 21 -23 -4 -49 -13 -57 -20 -18 -15 -62 -27 -55 -15 3 5 0 12 -7 17
-7 4 -13 15 -13 23 0 8 -9 19 -20 25 -42 21 -62 41 -69 68 -4 17 -2 27 4 27 6
0 8 5 4 11 -5 8 -10 6 -16 -5 -13 -24 -27 -10 -23 23 3 19 -3 35 -16 47 -10 9
-19 25 -19 35 0 31 -32 89 -44 80 -16 -13 -50 14 -43 34 6 13 26 19 65 18 6
-1 12 3 12 8 0 5 8 5 17 2 12 -5 15 -2 10 9 -25 67 -30 98 -16 114 13 16 10
17 -31 11 -48 -6 -77 3 -66 22 4 6 15 11 26 11 13 0 17 5 13 20 -4 14 0 20 11
20 9 0 16 6 16 13 0 16 -20 46 -20 30 0 -8 -12 -5 -35 8 -45 27 -50 36 -31 58
11 12 13 25 7 46 -7 26 -12 30 -40 27 -21 -1 -34 3 -37 13 -7 17 -44 21 -44 5
0 -5 -7 -10 -15 -10 -17 0 -20 -16 -6 -25 6 -3 14 3 20 12 5 10 13 15 16 11 4
-4 1 -16 -7 -27 -12 -17 -17 -19 -34 -7 -10 7 -39 13 -63 14 -49 1 -46 -1 -56
31 -4 14 -3 21 2 18 6 -4 15 5 22 19 10 24 12 24 28 9 15 -16 18 -15 33 6 11
13 24 20 33 16 11 -4 19 3 26 24 9 27 7 33 -13 30 -16 -3 -34 20 -40 53 -5 25
-24 50 -73 95 -37 33 -64 64 -60 67 10 10 77 12 77 3 0 -5 14 -15 30 -24 29
-15 30 -15 30 5 0 11 5 20 11 20 6 0 9 -6 6 -14 -7 -17 27 -51 41 -42 13 8 3
46 -12 46 -8 0 -12 14 -12 35 1 24 5 34 14 30 7 -2 12 4 12 15 0 12 5 17 14
14 7 -3 16 2 20 11 4 12 1 15 -13 13 -23 -4 -51 19 -51 43 0 11 -6 28 -12 39
-10 16 -9 22 6 33 15 11 16 17 7 35 -6 11 -11 33 -11 47 0 15 -9 39 -20 55
-11 15 -16 31 -12 35 4 4 -9 4 -29 0 -29 -5 -40 -3 -55 13 -11 10 -29 24 -41
31 -12 6 -20 17 -18 24 10 24 -38 68 -80 74 -22 2 -46 12 -53 21 -7 9 -18 17
-25 17 -7 1 -24 5 -40 9 -17 5 -32 4 -41 -3 -8 -7 -20 -11 -28 -10 -7 1 -36 1
-65 0 -40 -1 -53 -5 -57 -19 -5 -15 -14 -17 -63 -12 -32 4 -74 14 -93 22 -19
9 -55 20 -79 25 -40 7 -43 10 -30 23 8 8 18 23 22 33 4 10 11 16 16 12 5 -3
12 -1 16 4 3 6 13 7 21 4 8 -3 27 0 40 8 21 11 25 18 20 43 -6 29 -6 29 14 11
20 -18 20 -18 14 15 -5 24 -4 31 4 26 17 -10 15 49 -1 66 -20 19 -9 83 19 113
16 17 24 38 24 60 0 25 4 33 13 29 20 -7 34 15 42 70 4 33 3 46 -4 41 -6 -3
-11 1 -11 9 0 9 5 16 10 16 21 0 10 48 -15 64 -33 21 -55 66 -59 119 -4 59
-46 121 -58 87 -2 -6 -29 -14 -60 -17 -50 -5 -58 -3 -65 13 -4 11 -20 31 -36
46 -20 19 -27 33 -22 47 3 12 0 21 -10 25 -8 3 -15 14 -15 24 0 23 -30 52 -53
52 -9 0 -21 9 -27 20 -6 11 -19 24 -29 29 -16 9 -17 7 -13 -14 3 -18 0 -25
-12 -25 -9 0 -16 -7 -16 -15 0 -17 -35 -21 -45 -5 -9 14 -23 12 -22 -2 1 -33
-4 -49 -13 -43 -5 3 -8 0 -5 -7 3 -8 -14 -22 -47 -36 -29 -13 -67 -30 -85 -38
-39 -18 -47 -18 -85 2 -29 15 -31 15 -58 -11 l-28 -26 -38 20 c-26 15 -48 19
-67 15 -18 -4 -34 -1 -45 9 -9 8 -30 17 -46 21 -16 4 -43 18 -59 32 -22 19
-32 22 -43 13 -7 -6 -22 -8 -32 -5 -18 6 -20 11 -24 56 -3 26 -25 33 -37 12
-6 -10 -11 -12 -11 -4 0 6 -11 12 -24 12 -19 0 -28 8 -37 35 -14 37 -35 46
-46 19z m-688 -454 c3 -6 -1 -17 -9 -26 -9 -8 -16 -20 -16 -25 0 -5 -4 -9 -10
-9 -15 0 -12 57 3 63 19 8 25 8 32 -3z m-26 -145 c7 -36 18 -68 23 -71 5 -3
-1 -17 -14 -31 -15 -16 -18 -23 -8 -21 9 2 16 -6 18 -19 3 -17 0 -21 -12 -17
-12 4 -16 0 -16 -15 0 -12 -6 -21 -13 -21 -27 0 -68 -26 -73 -47 -9 -33 -42
-59 -56 -45 -9 9 -7 16 6 31 10 11 15 25 11 30 -3 6 -1 11 6 11 8 0 5 7 -6 20
-12 14 -16 27 -11 47 4 15 9 44 11 63 3 19 9 36 13 38 5 1 18 9 28 16 15 12
16 16 5 30 -12 14 -11 16 8 16 22 0 30 29 9 31 -13 1 27 16 48 18 6 1 16 -28
23 -64z m1254 -487 c7 -25 3 -33 -12 -23 -13 8 -15 45 -2 45 5 0 11 -10 14
-22z m-13 -60 c0 -10 2 -10 8 -1 7 10 14 10 35 0 42 -19 35 -40 -10 -33 -33 6
-39 4 -49 -17 -9 -19 -8 -26 4 -34 22 -13 7 -31 -20 -26 -17 3 -23 12 -24 34
-1 16 3 29 7 29 5 0 9 6 9 14 0 8 7 17 16 20 8 3 12 10 9 16 -3 5 -1 10 4 10
6 0 11 -6 11 -12z m43 -65 c2 -10 8 -26 12 -35 5 -14 2 -18 -12 -18 -15 0 -19
8 -21 35 -3 36 12 48 21 18z m40 -13 c-3 -11 -9 -17 -14 -14 -14 8 -10 34 5
34 9 0 12 -7 9 -20z m1357 -901 c0 -6 -4 -7 -10 -4 -5 3 -10 11 -10 16 0 6 5
7 10 4 6 -3 10 -11 10 -16z m160 -93 c0 -3 -4 -8 -10 -11 -5 -3 -10 -1 -10 4
0 6 5 11 10 11 6 0 10 -2 10 -4z m1188 -874 c6 -18 -15 -14 -22 4 -4 10 -1 14
6 12 6 -2 14 -10 16 -16z m1742 -196 c0 -11 -19 -15 -25 -6 -3 5 1 10 9 10 9
0 16 -2 16 -4z m-450 -27 c0 -15 -30 -23 -42 -11 -6 6 -7 15 -4 20 7 12 46 4
46 -9z m-92 -17 c2 -7 -3 -12 -12 -12 -9 0 -16 7 -16 16 0 17 22 14 28 -4z
m-1068 -297 c8 -10 24 -14 42 -11 26 4 33 -3 29 -27 -1 -4 6 -10 14 -13 17 -7
21 -34 4 -34 -6 0 -9 -7 -5 -15 7 -20 4 -19 -40 7 -20 12 -46 23 -58 24 -11 1
-23 3 -25 3 -2 1 2 8 9 16 7 8 10 25 6 40 -7 28 5 33 24 10z m170 -51 c0 -8
-7 -14 -15 -14 -8 0 -15 9 -15 20 0 13 5 18 15 14 8 -4 15 -12 15 -20z m-10
-64 c0 -5 -2 -10 -4 -10 -3 0 -8 5 -11 10 -3 6 -1 10 4 10 6 0 11 -4 11 -10z
m759 -10 c-10 -7 -10 -12 0 -23 7 -9 8 -18 2 -21 -5 -3 -12 0 -14 6 -4 8 -6 9
-6 2 -1 -6 6 -17 14 -24 10 -9 15 -9 15 -1 0 6 5 11 10 11 6 0 9 -3 9 -7 -1
-5 0 -10 1 -13 1 -3 3 -24 4 -48 2 -45 -10 -64 -25 -41 -7 11 -10 9 -15 -9 -5
-18 -11 -21 -28 -16 -38 12 -63 64 -31 64 8 0 15 4 15 10 0 5 -7 7 -15 4 -11
-5 -8 9 12 52 27 61 41 77 56 67 5 -3 3 -9 -4 -13z m-1289 -10 c0 -5 -2 -10
-4 -10 -3 0 -8 5 -11 10 -3 6 -1 10 4 10 6 0 11 -4 11 -10z m456 -48 c15 -9
37 -52 31 -59 -9 -9 -47 8 -67 30 -15 16 -17 23 -8 29 16 10 30 10 44 0z m242
-327 c-7 -16 -14 -21 -18 -14 -10 14 -21 14 -31 -3 -5 -8 -2 -15 9 -20 16 -6
10 -8 -35 -8 -4 0 -8 10 -8 22 0 13 -3 28 -7 34 -13 19 4 25 23 8 16 -15 19
-14 30 4 10 16 17 18 31 11 15 -8 16 -13 6 -34z m1337 -1055 c4 -6 11 -8 16
-5 5 4 9 1 9 -5 0 -15 -42 -8 -48 8 -4 14 14 16 23 2z"/>
<path d="M7879 11114 c-12 -14 -11 -16 5 -13 11 2 21 10 24 17 5 17 -13 15
-29 -4z"/>
<path d="M7873 11669 c-9 -9 -8 -19 3 -40 19 -38 48 -53 74 -39 20 11 27 30
11 30 -5 0 -23 14 -41 30 -37 35 -33 33 -47 19z m32 -47 c-3 -3 -11 0 -18 7
-9 10 -8 11 6 5 10 -3 15 -9 12 -12z"/>
<path d="M7947 11666 c-4 -10 0 -12 14 -9 10 3 16 9 13 14 -8 13 -21 11 -27
-5z"/>
<path d="M6568 11545 c2 -14 9 -25 14 -25 6 0 7 7 4 16 -3 9 -6 20 -6 25 0 5
-4 9 -9 9 -4 0 -6 -11 -3 -25z"/>
<path d="M6521 11460 c-22 -31 -27 -65 -11 -75 6 -3 10 -2 10 4 0 6 11 20 24
33 13 13 26 32 28 43 8 32 -26 28 -51 -5z"/>
<path d="M7359 11403 c6 -10 19 -29 30 -43 20 -25 21 -25 21 -3 0 12 -9 27
-20 33 -11 6 -18 15 -15 21 4 5 -1 9 -10 9 -12 0 -13 -4 -6 -17z"/>
<path d="M6465 11368 c-59 -34 -52 -63 15 -70 37 -3 39 -2 42 28 3 23 -2 35
-14 43 -21 13 -18 13 -43 -1z"/>
<path d="M6531 11257 c-9 -13 -9 -22 -2 -31 6 -7 8 -15 5 -19 -3 -3 4 -11 16
-17 15 -8 19 -17 15 -28 -13 -29 -23 -92 -14 -87 4 3 11 -16 14 -42 10 -70 29
-107 57 -108 16 0 23 -6 23 -20 0 -23 36 -47 47 -31 4 6 23 -1 48 -18 41 -27
110 -44 110 -27 0 4 -12 25 -26 46 -14 21 -22 45 -19 53 3 8 0 19 -7 23 -17
11 18 49 45 49 11 0 17 3 14 7 -4 3 -2 12 3 18 7 9 1 19 -22 37 -18 13 -41 27
-50 31 -14 5 -15 11 -6 41 10 33 9 36 -22 63 -19 15 -45 29 -59 30 -57 4 -91
15 -103 31 -17 23 -53 23 -67 -1z"/>
<path d="M6543 11033 c-7 -3 -13 -11 -13 -20 0 -12 2 -12 16 2 18 17 16 25 -3
18z"/>
<path d="M6490 10976 c0 -7 7 -19 15 -26 13 -11 15 -8 13 14 -2 26 -28 38 -28
12z"/>
<path d="M8460 10536 c0 -16 -34 -31 -50 -21 -9 6 -14 -14 -11 -42 1 -7 -9
-13 -22 -13 -21 0 -23 -4 -19 -31 4 -29 7 -31 35 -25 38 8 52 27 29 41 -22 13
-22 49 0 53 9 2 25 -1 36 -7 14 -7 21 -5 30 10 16 25 15 26 -8 39 -16 8 -20 8
-20 -4z"/>
<path d="M8450 10461 c0 -5 7 -12 16 -15 14 -5 15 -4 4 9 -14 17 -20 19 -20 6z"/>
<path d="M11275 10309 c-5 -23 -9 -28 -16 -18 -6 11 -9 9 -9 -8 0 -12 9 -28
21 -36 18 -13 19 -18 7 -36 -7 -12 -18 -21 -24 -21 -14 0 -26 -28 -18 -41 3
-6 1 -16 -6 -24 -8 -10 -8 -19 0 -34 13 -25 26 -27 34 -5 6 15 8 15 25 -1 11
-9 28 -15 38 -13 15 3 18 13 18 56 1 33 -3 52 -11 52 -14 0 -26 113 -13 118
13 5 -10 42 -26 42 -7 0 -17 -14 -20 -31z"/>
<path d="M10588 10313 c-22 -5 -12 -33 12 -33 11 0 21 4 24 9 8 12 -16 28 -36
24z"/>
<path d="M10670 10250 c11 -22 20 -53 20 -70 0 -36 28 -42 48 -9 11 18 11 24
-4 40 -9 10 -23 19 -30 19 -14 0 -37 34 -28 42 3 3 -2 8 -11 11 -12 5 -11 -1
5 -33z"/>
<path d="M9410 10201 c0 -15 38 -56 45 -49 3 3 1 15 -7 27 -13 22 -38 36 -38
22z"/>
<path d="M10777 10137 c-5 -14 30 -57 47 -57 4 0 15 7 23 16 12 12 14 20 6 33
-13 21 -69 27 -76 8z"/>
<path d="M11073 10122 c-20 -2 -33 -9 -33 -17 0 -8 -12 -15 -27 -17 -23 -2
-29 -9 -31 -33 -2 -16 2 -46 9 -67 13 -40 39 -60 39 -29 0 10 6 21 14 24 9 3
12 15 9 31 -3 15 -1 26 5 26 6 0 27 10 45 23 33 22 34 25 18 43 -11 13 -26 18
-48 16z"/>
<path d="M11038 9923 c-16 -8 -32 -23 -38 -33 -6 -11 -16 -17 -25 -14 -8 4
-15 2 -15 -3 0 -5 19 -10 43 -10 40 0 44 3 59 39 18 41 16 43 -24 21z"/>
<path d="M10587 9796 c-4 -10 0 -12 14 -9 10 3 16 9 13 14 -8 13 -21 11 -27
-5z"/>
<path d="M8802 9493 c-12 -2 -20 -9 -16 -14 3 -6 -3 -18 -14 -27 -26 -24 -18
-46 11 -29 12 7 24 15 27 18 3 4 15 9 28 13 12 4 22 12 22 18 0 7 5 6 15 -2
19 -16 40 -3 24 16 -11 13 -49 16 -97 7z"/>
<path d="M8580 9481 c0 -6 15 -11 34 -11 18 0 49 -3 67 -6 25 -4 30 -3 18 5
-24 16 -119 26 -119 12z"/>
<path d="M8735 9460 c-3 -5 -1 -10 4 -10 6 0 11 5 11 10 0 6 -2 10 -4 10 -3 0
-8 -4 -11 -10z"/>
<path d="M12267 9196 c3 -14 9 -26 14 -26 13 0 11 -34 -3 -48 -9 -9 -8 -12 7
-12 10 0 27 -8 38 -17 16 -14 19 -15 15 -3 -3 8 -2 22 3 31 6 11 1 23 -17 38
-14 13 -23 29 -20 37 3 8 1 14 -3 14 -5 0 -16 3 -24 6 -11 4 -13 -1 -10 -20z"/>
<path d="M12097 9178 c4 -7 8 -15 8 -18 0 -3 9 -14 20 -25 15 -15 28 -19 45
-15 l25 6 -27 7 c-18 5 -25 12 -22 21 3 8 -3 19 -15 25 -27 15 -44 14 -34 -1z"/>
<path d="M12036 9152 c-3 -6 1 -13 10 -16 23 -9 28 -2 10 13 -8 7 -17 8 -20 3z"/>
<path d="M12200 9115 c0 -2 10 -10 23 -16 20 -11 21 -11 8 4 -13 16 -31 23
-31 12z"/>
<path d="M12228 9034 c-39 -20 -35 -34 10 -34 31 1 34 2 19 11 -14 8 -16 14
-6 25 14 17 11 17 -23 -2z"/>
<path d="M12381 9028 c-1 -10 -7 -18 -13 -18 -7 0 -5 -5 5 -11 24 -14 30 -7
18 22 -7 17 -10 19 -10 7z"/>
<path d="M10270 8989 c0 -5 5 -7 10 -4 6 3 10 8 10 11 0 2 -4 4 -10 4 -5 0
-10 -5 -10 -11z"/>
<path d="M11000 8990 c0 -5 13 -8 29 -7 16 1 27 5 24 10 -6 10 -53 9 -53 -3z"/>
<path d="M10260 8965 c8 -10 8 -14 -1 -17 -7 -2 -9 -10 -5 -17 6 -9 11 -8 22
6 18 25 17 30 -7 36 -16 4 -18 3 -9 -8z"/>
<path d="M12380 8943 c0 -28 11 -29 35 -3 16 18 20 18 34 6 25 -23 72 -31 82
-15 19 30 8 35 -71 35 -77 1 -80 0 -80 -23z"/>
<path d="M10285 8930 c4 -6 1 -18 -6 -26 -6 -8 -9 -17 -5 -21 3 -3 6 -1 6 5 0
6 6 9 14 6 8 -3 19 3 25 14 8 16 7 21 -5 26 -24 9 -36 7 -29 -4z"/>
<path d="M12578 8869 c7 -9 10 -23 6 -32 -3 -8 0 -18 7 -23 9 -5 10 -2 6 9 -3
9 -1 17 4 19 6 2 0 12 -13 23 -13 12 -18 13 -10 4z"/>
<path d="M12555 8782 c4 -10 0 -13 -15 -9 -27 7 -25 -1 6 -30 17 -15 33 -22
45 -18 20 7 27 25 9 25 -5 0 -10 10 -10 23 0 16 -6 23 -20 23 -14 0 -19 -5
-15 -14z"/>
<path d="M13615 8700 c3 -5 1 -18 -4 -29 -13 -23 8 -45 33 -35 21 8 20 37 -2
57 -20 19 -37 23 -27 7z"/>
<path d="M13923 7810 c-13 -5 -23 -16 -23 -24 0 -11 5 -12 25 -3 13 7 27 18
30 25 5 14 -1 14 -32 2z"/>
<path d="M11023 7654 c-18 -12 -29 -24 -26 -28 4 -3 -1 -6 -11 -6 -9 0 -15 -4
-12 -9 3 -5 -1 -14 -9 -21 -12 -10 -15 -10 -15 3 0 22 -20 32 -31 16 -4 -8 -4
-16 2 -20 5 -3 13 -29 18 -57 4 -29 15 -60 24 -70 21 -23 14 -121 -8 -138 -19
-14 -19 -34 1 -62 20 -29 10 -128 -16 -157 -10 -11 -25 -33 -34 -50 -10 -16
-32 -52 -51 -79 -19 -27 -32 -53 -29 -57 2 -4 -5 -10 -16 -14 -19 -6 -22 -10
-24 -37 -2 -27 -34 -73 -52 -76 -10 -2 -29 -13 -41 -24 -18 -16 -25 -18 -36
-9 -8 6 -22 9 -30 5 -13 -5 -14 -9 -5 -24 6 -10 17 -16 23 -13 19 7 26 -24 9
-37 -8 -7 -14 -21 -14 -31 0 -16 -34 -36 -53 -31 -5 1 -7 -6 -6 -15 2 -10 0
-28 -5 -40 -10 -30 13 -64 39 -57 11 2 51 -7 89 -20 66 -23 69 -24 73 -5 6 20
16 22 48 10 14 -6 26 -2 42 13 44 43 50 46 64 30 6 -8 17 -13 23 -11 6 2 24
-7 40 -20 18 -15 35 -21 47 -18 11 4 19 2 19 -4 0 -6 5 -10 12 -8 6 1 18 -10
25 -26 8 -15 27 -34 42 -42 35 -17 42 -35 34 -77 -5 -24 -2 -34 13 -45 18 -14
18 -15 -15 -44 l-33 -31 20 -21 c11 -12 18 -27 15 -33 -5 -16 132 -11 151 5 8
7 12 19 10 26 -4 8 3 15 18 17 15 2 24 11 26 26 2 14 10 22 23 22 40 0 59 19
59 58 0 44 23 115 39 120 6 2 11 8 11 13 0 4 -6 6 -14 3 -8 -3 -17 0 -22 7 -4
7 -2 15 4 17 7 2 12 9 12 15 -1 16 -48 50 -59 43 -5 -3 -14 1 -21 9 -10 13 -9
15 9 15 21 0 26 15 15 44 -3 8 -12 12 -20 9 -10 -3 -12 0 -8 10 6 18 -30 41
-51 33 -22 -8 -26 9 -10 40 14 27 13 29 -20 57 -19 16 -35 35 -35 43 0 8 -4
14 -10 14 -15 0 -30 36 -35 80 -2 22 -6 44 -10 50 -3 5 1 10 9 10 12 0 16 10
16 36 0 20 9 48 19 63 11 15 20 43 20 62 -1 41 -26 124 -48 158 -10 16 -12 26
-5 28 19 6 -3 101 -31 135 -33 40 -57 86 -50 98 3 5 -14 27 -39 50 -24 22 -50
53 -57 68 l-14 28 -32 -22z"/>
<path d="M12976 7285 c4 -8 10 -15 15 -15 5 0 9 7 9 15 0 8 -7 15 -15 15 -9 0
-12 -6 -9 -15z"/>
<path d="M13330 7075 c-7 -9 -10 -18 -6 -22 3 -3 6 -1 6 6 0 7 7 11 14 8 10
-4 13 -1 9 9 -6 18 -8 18 -23 -1z"/>
<path d="M13940 6470 c0 -5 -6 -10 -14 -10 -9 0 -12 -7 -9 -20 3 -11 1 -20 -5
-20 -11 0 -37 -58 -30 -66 9 -9 55 61 61 94 4 17 4 32 2 32 -3 0 -5 -4 -5 -10z"/>
<path d="M13153 6455 c0 -8 4 -12 9 -9 4 3 8 9 8 15 0 5 -4 9 -8 9 -5 0 -9 -7
-9 -15z"/>
<path d="M13116 6448 c3 -4 9 -8 15 -8 5 0 9 4 9 8 0 5 -7 9 -15 9 -8 0 -12
-4 -9 -9z"/>
<path d="M13845 6320 c-3 -5 1 -10 9 -10 8 0 18 5 21 10 3 6 -1 10 -9 10 -8 0
-18 -4 -21 -10z"/>
<path d="M13876 6255 c-5 -21 -1 -32 19 -50 14 -13 25 -22 25 -20 0 3 11 0 25
-5 20 -8 25 -6 25 6 0 11 6 14 23 8 35 -10 56 -34 59 -67 2 -22 11 -35 28 -44
36 -18 40 5 5 33 -15 12 -25 26 -21 32 9 15 -44 74 -61 68 -10 -4 -13 -1 -8
14 5 15 -1 22 -27 33 -28 12 -34 12 -41 0 -8 -12 -12 -12 -27 2 -16 15 -18 14
-24 -10z"/>
<path d="M14162 6016 c23 -22 43 -33 53 -30 9 4 15 0 15 -10 0 -8 13 -22 29
-30 15 -8 35 -26 44 -39 8 -13 29 -30 46 -36 16 -7 32 -20 35 -29 3 -10 3 -1
0 18 -3 19 -5 46 -5 60 0 14 -2 35 -4 47 -6 24 -10 25 -94 23 -31 0 -52 6 -75
23 -17 13 -42 27 -56 31 -22 7 -21 4 12 -28z"/>
<path d="M14383 5794 c-11 -23 -9 -26 25 -40 53 -22 69 -11 40 25 -13 15 -27
26 -32 23 -4 -2 -11 0 -15 6 -3 6 -11 0 -18 -14z"/>
<path d="M14504 5759 c-3 -6 -1 -22 7 -35 9 -18 21 -24 43 -24 28 1 29 2 14
14 -10 7 -18 17 -18 22 0 16 -38 35 -46 23z"/>
</g>
</svg>
