<svg version="1" xmlns="http://www.w3.org/2000/svg" width="1307.435" height="969.961" viewBox="0 0 980.576 727.47"><g fill="#222"><path d="M869.076 1c.3.5 1.1 1 1.6 1 .6 0 .7-.5.4-1-.3-.6-1.1-1-1.6-1-.6 0-.7.4-.4 1zM872.576 3.4c0 .2.7.7 1.6 1 .8.3 1.2.2.9-.4-.6-1-2.5-1.4-2.5-.6zM850.576 6.9c-.5 1.1-1 3.1-1 4.5 0 1.9-.5 2.6-2 2.6-1.3 0-2 .7-2 2 0 1.1-.7 2-1.5 2s-1.5.7-1.5 1.5-.9 1.5-1.9 1.5c-1.4 0-1.8.5-1.4 1.9.2 1-.3 2.5-1.1 3.4-1.6 1.6-2.3 5.2-.8 4.3.5-.3 2.5.4 4.6 1.5 2.7 1.4 4.1 1.7 5.6.9 1-.5 2.8-1 3.9-1s2.5-.9 3.1-2c.6-1.1 1.7-2 2.5-2 .9 0 1.2-.6.9-1.5-.5-1.2-.1-1.3 2.5-.4 1.7.6 3.1 1.7 3.1 2.4s.9 1.5 2 1.8c3.2.8 2.8-5.5-.5-8.1-1.4-1.1-2.5-2.9-2.5-4.1 0-1.5-.6-2.1-2.1-2.1-1.1 0-1.8-.4-1.5-.9.4-.5-.2-.7-1.2-.4-1 .2-3-.6-4.5-2-2.4-2-2.7-2.7-1.8-5 1.2-3.1.6-3.6-.9-.8zM870.876 8.1c-2.4.9-4.7 4.4-3.8 5.8 1 1.7 4.3-.1 5.6-3 1.4-3.5 1.1-3.9-1.8-2.8zM824.876 28.7c-1.9.7-1.6 2.7.7 5.6 1.1 1.4 1.8 3.1 1.5 3.9-.7 1.8 1 4.2 2.4 3.4.6-.4.9-1.7.5-3-.4-1.6.3-3.2 2.5-5.5l3.1-3.3-3.2.5c-1.9.3-3.9-.1-4.8-.8-.8-.7-2.1-1-2.7-.8zM824.876 45.6c-1.3 1.1-2.3 2.8-2.3 3.7 0 .9-1 1.9-2.2 2.3-3.1.9-5.8 3.9-5.8 6.3 0 1.1-.8 2.6-1.7 3.3-1.1.8-1.8 2.7-1.9 4.7l-.1 3.5 1.9-4c2.3-4.5 6.6-9.4 8.4-9.4 1.4 0 2.4-2.2 2.4-5.3 0-1.1 1-3.1 2.2-4.4 2.8-3 2-3.6-.9-.7zM805.776 71.9c.9 1.5 1.5 1.7 2.5.9 2-1.6 1.5-2.8-1.2-2.8-2.2 0-2.4.2-1.3 1.9zM800.576 81.1c0 1.4-.7 1.9-3 1.9-1.6 0-3 .5-3 1.1 0 .6-.9.8-2 .4-2.3-.7-6.8 1.9-5.1 3 .6.3 1.1 1.6 1.1 2.7 0 1.2.7 2.9 1.6 3.9 2.2 2.4 1.2 3.5-3.7 4.2-4.7.6-9-.9-8.2-2.9.7-2-.5-3.3-2.6-2.7-1.6.4-1.8.9-1 2.9 1.1 3.2-1.1 4.2-5.5 2.6-4.3-1.6-6.3-1.5-7 .3-.3.8-1.2 1.5-2 1.5s-1.8.9-2.1 2c-.4 1.3-1.5 2-3.1 2-2.1 0-4.4 2.4-3.3 3.4 1 .9 6.9-.8 6.9-2 0-.8.8-1.4 1.8-1.5 5.8-.3 7.4-.6 8.1-1.8.6-1 1-1 1.6-.2.5.9 1 .9 2.1 0 1-.8 1.4-.8 1.4 0 0 .6 1.6 1.1 3.5 1.1 2.8 0 3.5.4 3.5 1.9 0 1.1-.4 2.2-.8 2.5-.5.3-.9 1.9-1 3.6 0 1.7-.4 4.5-.7 6.2-.6 2.5-.4 3 .8 2.5.9-.3 1.8.1 2.1 1 .7 1.8-.1 3.3-1.8 3.3-.9 0-1.5 1.8-1.9 4.7-.4 3.7-1.1 5.2-3.3 6.8-8.9 6.5-8.9 6.5-9 18.3l-.1 10.7-2.9 1.7c-2.5 1.6-2.6 2.3-.1 1.9 1.2-.2.8 2.3-.8 4.6-.9 1.3-1.1 2.4-.6 2.8 2.1 1.2 4.1 6.8 3 8.1-1.3 1.6-.2 5.4 1.6 5.4.8 0 1.8.7 2.3 1.7.7 1.2 1.8 1.5 4.5 1 3.9-.6 5.7.6 5.7 3.8 0 1.2.5 2.6 1.1 3.2 1.6 1.6.4 3-3.3 3.5-3.6.6-8.8-1.1-8.8-2.8 0-2.7-5.7-3.2-7.6-.7-1.1 1.5-1.6 1.6-3.3.5-1.2-.6-3-1.7-4.1-2.2-1.1-.6-2.9-1.5-4-2-2.7-1.4-5.7-1.3-6.3.2-.4 1-.6 1-.6 0-.1-.6-.7-1.2-1.5-1.2-1.6 0-6.6-4.5-6.6-6 0-.7-1.2-1-2.9-.8-2.1.2-3.7-.5-5.6-2.5-3.2-3.1-4-3.2-7.9-1.2-1.5.8-3.4 1.5-4.2 1.5-.8 0-1.1.6-.7 1.6.3.9-.3 2.1-1.8 3.2-2.5 1.8-8.6 2.4-9.5 1-.3-.4-2.5-.8-5-.8-3.4 0-4.4.4-4.4 1.6 0 1-.6 1.4-1.4 1.1-.7-.3-1.8-.1-2.3.4-.5.5-2.9 1.1-5.4 1.3-5.5.5-11 3.2-10.3 5.1.3.7-.4 1.8-1.6 2.5-1.1.6-1.8 1.5-1.5 2.1.4.5.1.9-.5.9s-1.6 1.1-2.2 2.5c-.6 1.4-1.6 2.5-2.2 2.5-1.1 0-3.6 4.5-3.6 6.6 0 .6-.7 1.4-1.5 1.8-.9.3-1.5 1.8-1.5 3.9 0 2.5-.9 4.4-3.5 7.1-2.6 2.8-3.5 4.6-3.5 7.1 0 1.9.5 3.7 1.1 4 .6.4.8 1.3.6 1.9-.3.7-.2 1.8.3 2.5.8 1.4-2.9 6.1-4.8 6.1-.5 0-.9.8-.8 1.7.1 1.4-.6 1.7-3.2 1.5-3.6-.4-6.2 1.6-6.2 4.6 0 2.6-3.1 5.2-6.3 5.2-3.6 0-9.6 3.8-10.3 6.5-.3 1.3-2.6 3.6-5 5.1-3.4 2.1-4.4 3.4-4 4.7.3 1.3-.2 2.1-1.5 2.4-1.4.4-1.8 1.1-1.4 2.4.4 1.3 0 2.1-1.1 2.6-1 .4-1.9.2-2.2-.5-.2-.7-.8-.9-1.3-.6-1.4.8-3.9-1.5-3.9-3.7 0-2.5-1.8-3.3-3.8-1.6-2.1 1.8-11.9 2.8-14.9 1.4-1.9-.8-2.7-.6-5 1.8-2.8 2.8-8.9 6-10.8 5.7-.6-.1-1.8 1-2.8 2.6-3.5 5.7-4.4 6.4-6.4 5.4-1.3-.8-2.2-.7-3.5.5-2.4 2.1-4.9.1-4.6-3.6.2-1.7-.2-2.5-1-2.3-.7.1-1.5-.5-1.8-1.3-.4-.8-1.5-1.5-2.6-1.5-1 0-3.3-.7-4.9-1.6-1.7-.8-3.6-1.3-4.2-1.1-.7.2-1.7-.3-2.3-1.1-.7-1-2.9-1.6-6-1.6-4-.1-4.9-.5-5.2-2-.2-1 .3-2.3 1.1-2.7.9-.6 1.3-1.8.9-3.6-.6-3.5-2.1-5.5-3.6-4.6-.7.4-.7.1.1-.7 1-1 .8-1.9-.9-4.3-1.9-2.7-3.3-7.7-2.1-7.7.2 0 1.3.5 2.4 1 1.6.9 2.1.6 3.1-1.5 1.1-2.4.9-2.9-2.5-6.1-4.3-4-4.6-4.9-1.6-4.1 1.2.3 3.5.3 5 0 2.2-.4 2.9-1.1 2.9-2.9 0-1.9.5-2.4 2.4-2.4 2.2 0 2.6-.6 3.2-4.5.4-3.3 1.1-4.5 2.2-4.3.8.2 1.7-.3 1.9-1 .8-2.2-4.5-1.4-6.1 1l-1.6 2.2-2.7-2.5c-1.5-1.3-3.2-3-3.6-3.7-.6-1-1.4-.8-3.4.8-3.1 2.4-7.5 2.6-9.4.4-1.1-1.4-1.3-1.4-2.1 0-.5.8-2.4 1.8-4.4 2.2-3.2.6-3.5.9-3.2 3.6.3 2.6-.2 3.3-3.9 5.2-2.8 1.4-4.3 2.8-4.3 4.1 0 1.1-.9 2.6-2.1 3.3-1.8 1.1-2.4 1.1-3.8-.2-2-1.8-5.1-2.1-5.1-.6 0 .5-1 1-2.2.9-1.3 0-5.3.3-8.9.6-5.2.4-6.9.2-7.9-1s-1.6-1.3-2.7-.4c-.8.7-3.5 1.1-6 1-2.5 0-5.2.4-5.9 1-1.6 1.3-6.7-.2-9.6-2.8-1.7-1.5-1.9-1.5-3.9.2-2.3 2.2-7.4 2.4-13.4.6-5.3-1.5-10.7-2-12.1-.9-1.8 1.3-4.2-.1-4.8-2.8-.4-1.6-1.9-3.1-4.1-4-1.9-.8-3.5-1.9-3.5-2.4s-.6-.7-1.4-.4c-1.6.6-7.6-2.2-7.6-3.5 0-.5-1.6-.5-3.5-.1-2.5.6-3.5.5-3.3-.4.4-2-1.4-5.7-2.5-5.3-.7.2-2.3-.4-3.6-1.4-1.3-1.1-3.4-1.9-4.6-1.9-1.3 0-3.4-1.3-4.8-3-1.7-1.9-3.5-3-5.2-3-1.4 0-3.6-.5-4.7-1.1-3.5-1.9-8.4-7.6-9.9-11.6-1.6-4.1-5.4-5.8-6.5-2.9-.8 2-2.4 2.1-2.4.1 0-1.7-1.6-2-2.5-.5-1 1.6-2.4 1.2-4.9-1.3-2.2-2.2-2.3-2.7-1.3-7.9 1.1-6.3.6-8.8-1.9-8.8-1.6 0-4.3-2.7-4.4-4.4 0-.4.7-.6 1.5-.2 2 .7 1.9.3-.5-3.6-2.7-4.5-2.5-5.1.9-3.3 1.9.9 3.2 1.1 3.6.5.3-.6-.1-1.2-.9-1.5-.9-.3-2.3-.7-3.1-1-1.3-.4-1.3-.9.1-4 1-2.6 1.2-4.1.4-5.5-1.5-2.9-1.2-4.8 1-5.5 2-.6 1.9-.9-1.3-5.3-1.9-2.6-3.8-5.7-4.1-7-.4-1.2-1.2-2-1.7-1.7-.5.4-1.2-.1-1.5-.9-.3-.9-1-1.3-1.6-1-.5.3-.8-.6-.6-2.2.3-2.5-.1-2.9-3.2-3.5-1.9-.4-5.2-1.2-7.4-1.7-2.1-.6-4.4-.8-5.1-.6-2.6 1-3.4-9.2-.9-11.1 1.5-1.1 1.5-1.4 0-4.3-1.4-2.6-2.1-3.1-4-2.6-1.3.3-2.7.1-3-.5-.4-.6-2.8-2-5.3-3.1-3.6-1.6-4.8-1.8-5.4-.8-1.4 2.2-3.9-1.4-4.8-6.8-.6-3.5-1-4.4-1.6-3.2-.6 1.6-1.1 1.5-4.8-1.5-3.5-2.7-4.9-3.2-9-3-2.8 0-5.6.8-6.6 1.7-1 .9-2.3 1.6-2.9 1.6-.6 0-1.6.9-2.2 2.1-1 1.7-1.8 1.9-5 1.4-3.6-.6-3.8-.5-4.5 2.4-.5 2.2-1.2 3.1-2.6 3.1-1 0-1.9-.7-1.9-1.5s-.4-1.5-1-1.5c-.5 0-1 .5-1 1.1 0 .6-.7.9-1.5.5-.8-.3-1.5-.1-1.5.5s-.9 2.2-2 3.6c-3.4 4.4-2.6 5.3 5.2 5.6 1.9.1 2.9.8 3.2 2.3 1 3.8-.3 5.6-3.5 5.2-1.6-.3-2.9-.1-2.9.4 0 .4-1.8.8-4 .8-3.1 0-3.8.3-3.4 1.5.4 1 0 1.5-1.4 1.5-1.2 0-2.4.5-2.7 1-1.1 1.7-6.6.7-7.7-1.4-1.3-2.5-5-5.6-6-5-.3.2-.3 1.8.2 3.4.5 1.8.5 3-.1 3-.5 0-.9.6-.9 1.4 0 .8-.6 1.6-1.4 1.9-.9.4-1.2 1.4-.9 2.6.3 1.2-.1 2.9-.8 3.8-1.1 1.3-1.1 1.7-.1 2 1.5.6 1.6 4.3.1 4.3-.5 0-.8.4-.4.9.3.5.1 1.2-.4 1.6-.7.3-.7 1.5-.1 2.9.5 1.3.6 3.3.3 4.5-.8 2.9 5.7 10.6 10.1 12.1 2.6.8 4.5.8 7.8-.1 5.6-1.6 11-1.7 12.3-.2 1.1 1.3 5.5 0 5.5-1.7 0-.5.6-1 1.4-1 .8 0 1.6-.7 2-1.5.3-.8 1.4-1.5 2.5-1.5s2.3-.5 2.6-1c.3-.6 1.5-1 2.6-1 1.4 0 1.9.7 1.9 2.6 0 2.3.2 2.5 1.5 1.4.9-.7 1.4-1.9 1.1-2.7-.6-1.5 2-1.8 2.9-.3 1 1.6 4.4 1.1 6.5-1 2.5-2.5 3.5-2.5 5.4.1 1 1.5 2.1 2 3.5 1.6 2.8-.7 3.6.8 1.7 3.4-1.3 1.9-1.3 2.5-.1 4.3 1.6 2.3 1.1 3.5-2.3 5.8l-2.3 1.5 2.7 1.8c2 1.3 3.8 1.6 6.9 1.2 5.2-.8 6.7.6 9.1 8 1 3.3 2.5 5.5 4 6.4 1.3.7 2.4 2 2.4 2.8 0 .9.6 2.6 1.4 3.7.8 1.1 1.6 3 1.8 4.3.1 1.4.9 2.6 1.6 2.9 1 .3 1.2-.4.7-3.1l-.7-3.4 5.8.9c3.5.5 6.1.5 6.7-.1 1.2-1.2 8.9 4 11.4 7.7 1 1.5 2.5 2.7 3.3 2.7 1.2 0 1.4 1.1 1.2 5.3-.3 3.7.1 6 1.3 7.8 2 3.1 1.5 4.9-3.1 9.8-2.8 3-3.5 4.5-3.3 7.1.2 1.8-.2 4-1 4.8-.9 1.2-1 2.1-.1 3.6.6 1.2 1.5 2.1 2 2.1.6 0 1 .9 1 1.9 0 1.1.4 2.2.9 2.5 1.2.8 1.2 9.4 0 10.2-.5.3-.5 1.3.2 2.5.7 1.5.7 2.4-.1 3.4-.7.9-.8 1.5 0 2 .5.3 1 .3 1-.1s.9.1 2 1.1c1.3 1.2 1.8 2.5 1.4 3.4-1 2.5-.4 9.5.9 10.4.9.7.9 1 0 1.4-.9.3-1 1-.3 2.4.8 1.4.7 1.9-.1 1.9-.8 0-.4.9.8 2.2 2 2.3 2.1 5.8.1 5.8-.6 0-.8 1.1-.6 2.5.3 1.4 0 2.9-.7 3.3-.7.4-1.7 1.7-2.4 2.9-.6 1.3-1.8 2.3-2.6 2.3s-1.5.5-1.5 1.1c0 .7-.7.8-1.7.4-3.2-1.2-6.3-1.3-6.3 0 0 1.6-4.9.8-7.1-1.2-1.3-1.1-1.8-1.1-2.1-.2-.4 1.3-4-.2-6.6-2.8-.7-.7-2.2-1.3-3.3-1.3-1.1 0-2.2-.7-2.5-1.5-.4-.8-1.2-1.5-1.9-1.5-.8 0-1.7-.9-2-2-.6-1.8-.8-1.8-2.1-.5-1.1 1.1-2 1.2-3.4.5-2.6-1.4-3.2-1.3-6.3 1.4-2.5 2.2-2.6 2.5-1.1 3.4 1.6.9 1.5 1.1-.4 2.1-1.2.7-2.2.9-2.2.5s-1.1.3-2.5 1.6c-2.9 2.7-3.1 4.2-1.1 7.3 1.3 2 1.3 2.5-.4 4.7-1.5 2-2.1 2.2-3.4 1.1-1.3-1.1-1.7-.7-3.1 2.6-.9 2.1-1.8 5.9-2 8.5-.4 6-1 6.8-4.7 6.8-2.3 0-4.1 1.1-7.4 4.5-4.6 4.8-6.2 5.3-9.7 3.1-2.9-1.9-9.3-.7-9.1 1.7.1 1.3-.5 1.5-3 1-1.7-.3-3.9-1.3-4.8-2.1-1.7-1.4-1.8-1.3-1.8 1.3 0 2.7-.2 2.7-4.1 2.2-2.9-.4-4.2-.1-4.6.9-.3.8-1 1.1-1.5.8-.6-.4-.5.3.1 1.5.8 1.4.8 2.1.1 2.1-.5 0-1 1.5-1 3.3 0 4.2-1.8 6.7-5 6.9-1.4.1-2.8.7-3.2 1.2-.4.6-1.6.6-3.3-.2-2.9-1.3-4.5-.9-4.5 1.2 0 2-2.7 4-3.5 2.6-.5-.8-1.1-.8-2.1.1-1.5 1.2-4.2-.4-7.3-4.4-1.2-1.8-1.4-1.7-3.2 1.3-1.1 1.7-2.6 3.3-3.5 3.7-.8.3-2.9 1.9-4.6 3.7-2.9 2.9-3.2 2.9-4.2 1.2-.6-1-2.1-3.3-3.3-5.2-1.2-1.8-2.3-4.5-2.5-6.1-.2-2.2-1.4-3.4-5.5-5.6-3.4-1.8-5.3-3.5-5.3-4.7 0-1-.6-2-1.4-2.3-.8-.3-1.5-2.4-1.8-5.2-.3-3.7 0-4.9 1.4-5.6 1.7-.9 1.7-1.1.2-3.5-2-2.9-1.1-4.3 1.6-2.6 2.9 1.8 5 1.5 5-.7 0-1.1.5-2.3 1-2.6 1.3-.8.7-7-.9-8.9-.6-.7-.9-2.1-.6-3 .3-.9.7-2.3 1-3.2.4-1.4.7-1.4 2.7 0 2.5 1.8 6.3 2.2 5.3.6-.3-.6-.1-1 .4-1 .6 0 1.1.6 1.1 1.2 0 1.9 2.8-2.5 3.5-5.5.8-3.2-1-3.8-2-.7-.4 1.3-1.5 2-3.1 2-1.3 0-2.4.4-2.4 1 0 1.6-2.7 1.2-4.5-.7-1.1-1.1-1.5-2.6-1.1-4.4.3-1.5.1-2.9-.3-3.1-.5-.2-1.2-1.4-1.6-2.7-.6-2.1-.5-2.3 1.1-1.6 1.1.4 2.8.8 3.9 1 1.1.1 2.3.3 2.6.4.8.1 2.4 4.6 2.8 7.5 0 .6.7.1 1.5-1 1.3-1.7 1.2-2.3-.7-5.4l-2.1-3.5 2.4 2c1.6 1.4 2.4 1.6 2.7.7.3-.6 1.1-1.2 1.8-1.2s1.5-.9 1.8-2.1c.5-1.7.9-1.9 2.6-1 1.1.6 2.2 1.1 2.5 1.1.6 0-.1-11-.8-11.8-.3-.3-.6-1.5-.6-2.8 0-1.7-.4-2.1-2-1.7-1.1.3-2 1-2 1.5 0 .8-8.9.5-9.4-.4-1.6-2.6-2.6-6.3-1.7-6.6.6-.2.8-1.6.4-3.3-.5-2.5-.2-2.9 1.6-2.9 2.1 0 2.9-2.4 1.1-3.5-.6-.3-1-1-1-1.4 0-1.1 4.6-3.1 7-3.1 2.4 0 2.4.1.6-3.6-.8-1.6-1.7-4.6-2-6.8-.4-2.1-.9-4.2-1.2-4.7-.3-.5.4-.9 1.4-.9 1.1 0 2.2-.7 2.6-1.5.8-2.3-2.6-1.9-5.3.6-1.4 1.3-3.6 2.2-5.3 2.1-2.4-.1-2.8.2-2.3 1.9.5 1.4-.1 2.6-1.9 4-1.4 1.1-2.6 2.7-2.6 3.5 0 2.6-3.6 5.7-5.9 4.9-1.2-.3-2.1-.2-2.1.3s-1.1 1.4-2.5 2c-1.5.7-2.5 2-2.5 3.2 0 1.1-.6 2-1.2 2-.7 0-2.4.9-3.8 2s-3.5 2-4.8 2c-1.2 0-2.5.7-2.8 1.5-.7 1.8-6 4.5-8.7 4.5-1.1 0-2.5.8-3.2 1.7-1.1 1.5-1.9 1.6-5.5.7-3.6-1-4.1-1-3.7.5.2.9.9 1.5 1.6 1.3.7-.1 1.1.3.9 1-.3.7-2.4 1.4-4.9 1.6-2.4.2-4.9.7-5.4 1.2-1.4 1.1-5.8-1.7-5-3.1.4-.5-.8-.9-2.6-.9-3.1 0-3.1 0-1.5 2.5 1.7 2.6 2.2 7.5.7 7.5-.5 0-1.1 1-1.4 2.1-.5 1.7-1.1 2-3.1 1.7-2-.4-2.6-.1-2.6 1.2 0 1.7-3.8 4-6.8 4-1.5.1-1.5.3.3 1.8 2.2 1.8 4.5 7.5 4.5 10.9 0 1.2 1.2 3.1 2.6 4.2 1.7 1.3 2.4 2.6 2 3.6-.3.9-1 1.3-1.6 1-1.4-.9-1.3 1.8.2 3.3.7.7 2 1.2 3 1.2 3.1 0 6.6 3 7.8 6.6.8 2.3 2 3.6 3.6 4 2.2.6 2.4 1 1.9 3.8-.4 1.7-1.4 4.2-2.2 5.5-.8 1.3-1.3 3.5-1 4.9.3 1.4-.2 3.6-1 4.9-.9 1.4-1.2 3.3-.8 5.1.4 2 .1 3.3-.9 4.2-.9.7-1.3 1.7-.9 2.3.3.5.8 2.9.9 5.1.2 2.3.6 5.6 1 7.4.4 2.3.2 3.8-.9 5-.8.9-1.8 2.8-2.2 4.2-.4 1.4-1.7 3.5-2.9 4.8-1.4 1.6-2.1 3.7-2.1 6.6-.1 4.1.1 4.3 2 3.2 1.1-.6 2.4-1.7 2.8-2.4.6-.9 1.9-1.1 3.8-.7 1.5.4 3.4.3 4.1-.1 1.9-1.2 5.8-1.4 5.8-.2 0 .6 1 .8 2.2.5 1.2-.4 2.8-.1 3.5.5.9.8 1.3.7 1.3-.2 0-.8.9-1 2.6-.6 1.8.5 3.2.2 4.5-1 1.7-1.5 2.1-1.5 6.4.9 2.5 1.5 5.2 2.4 6 2 2.1-.8 1.8 1.1-.5 3.2-1.6 1.5-1.8 2.1-.7 3.3.8 1.1.9 1.6.1 1.9-.6.2-.9 1.5-.6 2.8.3 1.7-.1 2.7-1.2 3.1-.9.3-1.6 1.2-1.6 2 0 2.8-13.1 3-14.4.1-.5-.9-.7-.9-1.2.1-.3.6-1 1-1.5.6-1.6-.9-11.2-1.4-12.4-.5-2.6 2.1-6.2 2-10.2-.3-3-1.8-4.4-2.1-5.2-1.3-.9.9-1.7.8-3.1-.1-1.7-1-2.1-1-2.6.3-.4.8-1.2 1.5-1.9 1.5-2.3 0-11.5-8-11.5-9.9 0-1.2-.9-2-2.5-2.3-2.1-.5-2.3-.3-1.4 1.4.6 1.1.8 3 .5 4.3-.8 3.1 1.7 5.3 3.9 3.5 2-1.7 2.1-1.4 2.8 4.3.4 4.4.3 4.9-1.9 5.7-1.5.6-2.4 1.8-2.4 3.1 0 1.2-1.1 3.2-2.5 4.5-1.4 1.3-2.5 2.7-2.5 3.1-.1 2.7-1.8 3.5-5.1 2.3-3-1-4.2-.8-10.4 1.9-3.8 1.6-7.3 2.7-7.8 2.4-.5-.3-.6-1.9-.3-3.5.4-2 .1-3-.8-3.4-.8-.3-2-1.9-2.6-3.5-.9-2.2-1.9-2.9-3.9-2.9-1.5 0-3.1-.8-3.8-1.9-.8-1.3-1.9-1.7-3.8-1.4-3.1.6-2.8 2.3.7 4.1 2.6 1.2 3.5 3.4 3.7 9.4 0 1.6-.5 2.8-1.2 2.8-1.7.1 4.1 5 5.8 5 .8 0 1.9.9 2.5 2 .9 1.7.8 2-.8 2-1.1 0-2.7-1-3.6-2.3-1-1.4-1.4-1.6-1-.5.4 1 .1 1.8-.5 1.8-2.4 0-.5 8.1 2.4 10.2.5.4 1.5-.2 2.3-1.3.7-1 2-1.9 2.8-1.9.8 0 1.4-.5 1.4-1.1 0-.5.5-.7 1-.4.6.3 1 .1 1-.4 0-.6-.5-1.1-1.2-1.1-.6 0-.3-.9.7-2 2.4-2.6 3.4-2.5 2.9.2-.2 1.3-.2 1.7.2 1 .8-1.7 6.9-1.5 8.4.3.6.8.9 1.8.6 2.3-.3.6.8 1.5 2.4 2.2 1.7.7 3 1.8 3.1 2.4 0 .6.3 2 .6 3.1.2 1.1.7 3.3 1 5 .3 1.6 1 3.5 1.5 4.2.5.7.5 1.4-.2 1.8-1.6 1-1.2 2.1 1.3 3.2 1.8.9 2.5.8 3.3-.4.6-1 1.7-1.3 3.7-.8 2.4.6 2.8 1.2 2.3 3.1-.3 1.2-.2 2.6.4 2.9.5.3 1 2.1 1 3.9 0 3.7 2.1 6.1 4.5 5.2.9-.3 1.8 0 2.1.8.3.7 2.3 2.1 4.5 3.1 3.6 1.7 5.2 3.5 2.9 3.5-.5 0-1 1.8-1 4.1 0 3.1.4 4.2 1.8 4.6 1 .2 1.9 1.4 1.9 2.5.1 1.2 1.5 3.5 3.1 5.2 1.7 1.8 2.9 4 2.7 5.3-.1 1.2.1 2.2.4 2.1 3.3-.3 4.1.7 6.4 7.9 3.6 11.4 4.1 14.2 2.5 14.8-.9.4-1.3 1.9-1.1 4.5.1 2.9-.2 4-1.2 4-.8 0-1.7-.5-2.1-1.1-.5-.8-1-.6-1.6.5-.5.9-1.6 1.6-2.4 1.6-3.2 0-4.1 2.1-2.4 5.6 1.5 3.3 4.9 5.2 6 3.3.4-.5 2 .3 3.7 1.9 2.7 2.6 3.4 5 2.3 8.7-.1.5-.2 1.7-.1 2.5.1 1.2.3 1.2 1 .2.6-1.1 1.4-.8 3.7 1.3 2.7 2.5 2.7 2.6.6 3.2-1.7.4-2 .9-1.2 2.3 1.2 2.3 8 3.9 15 3.5 3.4-.1 6.3.3 7.5 1.1 2.3 1.7 4.5 1.8 4.5.3 0-.6.7-1.8 1.6-2.7 1.5-1.5 1.7-1.5 2.9.1 1.6 2.3 2.4 2.2 5.1-.8 1.7-1.8 1.9-2.5.8-2.5-.8 0-1.9-1.1-2.4-2.4-.5-1.4-1.9-3-3.2-3.7-1.3-.7-4.1-3.1-6.3-5.5-3.2-3.4-3.8-4.4-2.7-5.4 1.1-.9 1.6-.8 2.7.6.8 1.1 1.5 1.4 1.5.7 0-.6.9-1.5 2.1-1.8 1.2-.4 1.8-1.2 1.5-2.1-.3-.8.1-1.7.9-2 .7-.3 1.1-1.2.8-2-.3-.8 0-1.4.7-1.4.8 0 1-.8.6-2.3-.4-1.6.1-2.6 1.4-3.5 1.2-.7 1.7-1.8 1.3-2.8-.5-1.3-.2-1.5 1.5-.9 1.6.4 2.2.2 2.2-.8 0-.8.7-2 1.5-2.7 1.2-1 1.5-.9 1.5.8 0 1.5.5 1.9 1.9 1.5 2-.5 5.1 2 5.1 4.3 0 .8.4 1.4.9 1.4s.7-.9.4-2c-.8-3.1 1.1-2.4 4.4 1.8 3.4 4.2 5 8.2 3.4 8.2-.6 0-1.1.4-1.1 1 0 .5.8 1 1.8 1 1.1 0 2.7.9 3.7 2 .9 1 2.2 1.8 2.8 1.7 1.2-.2 1.7 4.2.9 8.6-.3 1.8-1.4 3.2-2.7 3.7-1.3.5-2.6 1.4-3 2-.5.8-1 .8-2 0-1-.9-2.1-.7-4.2.7-4 2.5-5.7 5.3-3.2 5.3.5 0 .7-.5.4-1-.3-.6.1-1 .9-1 .9 0 1.5.3 1.4.7-.2.5.6 1.9 1.7 3.2 4.6 5.6 5.6 6.2 8.5 5.7 1.7-.2 3.2 0 3.6.5.3.5 1.5.9 2.8.9 1.3 0 3 .8 3.9 1.8 2.1 2.3 2.2 3.6.1 2.8-1-.4-1.3-.2-.8.6.5.7 0 .9-1.4.6-1.6-.5-2.2-.2-2.2 1-.1 1.4-.3 1.3-1.3-.4-1.5-2.5-3.7-2-3.7.8 0 1.2.3 1.8.7 1.5.9-.9 4.3 2.2 4.3 4 0 .7-.4 1.3-.9 1.3-.8 0-1.2 1.4-2.7 8.7-.1.7.4 1.7 1.2 2.4 1.4 1.2 1 5.3-.8 7.5-1.3 1.7 4 3.3 7.6 2.3 2.3-.6 3.2-.3 5.3 1.9 1.6 1.7 3.5 2.7 5.4 2.7 2.7 0 2.9-.3 2.9-3.8 0-3.4.2-3.7 1.9-2.7 1.4.7 2.3.6 3.3-.3.7-.8 1.9-1.2 2.6-.9 1.4.4 1.6-1 .2-2.4-1.4-1.4 0-5.4 2-5.4 2.1 0 3.1-2 2.3-4.9-.6-2.4 1.2-2.9 2.1-.5.3.9 1.2 1.4 2 1.1.7-.3 1.9-.1 2.5.4.6.5.9.6.7.3-.6-.9 5.9-6.4 7.5-6.4.8 0 2.2-1.1 3.3-2.4 1-1.4 2.4-2.2 3.2-1.9.8.3 1.4 0 1.4-.6s1.3-1.1 2.9-1.1c1.6 0 4.2-.3 5.9-.6 2.7-.5 3-.9 2.2-2.5-1.5-2.7-1.2-3.9.9-3.9 2.4 0 3.7-1.6 5.4-6.6.7-2.1 1.8-3.8 2.5-3.6.7.1 1.2-.5 1.2-1.4 0-1.1.6-1.5 1.9-1.1 2.1.5 4.8-3.7 3.1-4.8-1.5-.9-1.2-4.5.4-4.5s2.9-4.4 2.1-7.1c-.5-1.3-.2-1.9 1-1.9 1.3 0 1.5-.7.9-3.8-.8-4.6-1.2-5.2-3-5.2-.8 0-1.4-1-1.4-2.4 0-1.3-.7-4-1.6-6.1-1.4-3.3-1.4-3.7 0-3.2 1 .4 1.7-.2 2.2-1.6 1.1-3.8 3.4-5.8 5.4-4.7 1.4.8 1.9.5 2.5-1.3.4-1.2.7-2.5.6-3-.1-.4.6-.7 1.4-.7 1.8 0 1.8.5.5 3-.8 1.5-.6 2.1 1.1 3 2.6 1.4 3.6.6 1.9-1.5-1-1.3-.9-1.5.9-1.5 1.2 0 2.1-.6 2.1-1.5s.6-1.2 1.5-.9c1 .4 1.5 0 1.5-1.1 0-1.3.6-1.6 2.6-1.2 2.1.4 2.5.1 2.1-1.4-.3-1.1-.1-1.9.4-1.9s1.5-1.3 2.3-2.9c1.5-2.8 6.7-4.9 10.6-4.2 2.2.4 6.7 4.5 6.3 5.7-.2.6.4 1.7 1.4 2.5 1.7 1.3 1.7 1.3.4-.4-1.3-1.6-1.3-2 0-2.8.8-.5 1.9-.9 2.5-.9 1.7 0 4.7-3.7 3.9-4.9-1.2-2 3.2-1.1 5.1 1 2.5 2.7 7.2 5.2 8.9 4.5 2-.7 6.2 4.5 6.8 8.6.3 2 1.3 4.8 2.3 6.3 2.2 3.4 13.3 10.6 15.9 10.4 3.7-.2 4.3.1 3.8 2-.3 1.3.2 2.3 1.5 3 1.7.9 2.2.8 2.7-.9.7-2.3 1.2-2.4 4.5-.5 1.4.8 3.7 1.4 5.2 1.5 1.5 0 2.9.4 3.3 1 .3.5 1.2.7 2 .4 2.6-1 9.9 4.9 9 7.3-.4 1.2 1 2.6 3.7 3.6 2.1.8 5.8-2.4 5.8-5.1 0-1.2.5-3.3 1.2-4.7.9-2 1.7-2.5 3.4-2.1 1.3.4 2.7 0 3.5-1 .7-.8 2.5-2.2 4.1-3 1.6-.8 2.8-2.3 2.8-3.4 0-1.3.7-2 2-2 2.4 0 2.6-1.7.5-4-1.4-1.5-1.2-1.8 2.3-3.4 3.4-1.5 3.8-2.1 3.4-4.7-.3-1.9 0-2.9.8-2.9 1.8 0 .4-10.9-1.7-13.2-.9-1-1.2-1.8-.7-1.8 1 0 3.8-5.9 3.5-7.4-.1-.4.6-1.4 1.6-2.1 1.6-1.2 2.2-1 4.9 1.6 2.6 2.5 3.8 3 7 2.7 2.2-.2 4.3.2 4.9.9.6.7 2.3 1.3 4 1.5 2.3.2 3-.1 3.3-1.7.3-1.1.9-2.3 1.6-2.7.7-.5.7-.8-.3-.8s-1.1-.3-.2-1.4c.9-1 .7-1.7-.5-2.7-1.2-1-1.4-2.3-1-5.1.5-3 .2-4.2-1.4-5.8-2.9-2.9-2.6-4.6.5-2.6 3.3 2.2 6.2 2 7-.4.8-2.5 2.1-2.6 3.4-.3 1.5 2.7 6.9 2.4 7.6-.4.4-1.8 1.2-2.1 5.1-2.1 2.9 0 4.7.5 5 1.3.7 1.6 3.5.8 3.2-.9-.1-.6.2-2.1.6-3.4.9-2.6 3.5-2.3 6.9.8 1.6 1.6 1.7 1.9.4 2.7-1 .5-1.3 1.7-1 3.5.4 2.1 1.5 3 5.1 4.2 2.5.9 5.5 1.6 6.7 1.6 1.1 0 2.6.5 3.3 1.2.8.8 1.4.5 2.2-1.6.6-1.6 1.9-3 3-3.3 1.1-.3 2-1.1 2-1.7 0-1.3 3.4-1.3 6.4-.1 1.2.5 2.1.3 2.7-.6.6-1 .9-1 .9-.2 0 .7.7 1.3 1.5 1.3s1.5.7 1.5 1.5.5 1.5 1 1.5c1.6 0 1.2 3-.5 3.6-.8.4-1.2 1-.9 1.5.3.5-.5 1.4-1.8 1.9-2.9 1.4-5.1 5.7-3.3 6.4.7.2 1.7 0 2.2-.5.5-.5.8.2.7 1.8 0 1.5-.6 2.9-1.2 3.1-.7.2-.4 1.2.9 2.5 1.6 1.7 2.2 1.9 2.8.8.6-.8 1.6-1.1 3.1-.6 1.6.5 2 1.2 1.6 2.9-.7 2.7 3.4 7.2 5.8 6.3.8-.3 2.2.3 3.1 1.3 1 1.1 3 1.8 5 1.8 1.9 0 3.8.3 4.4.7.6.3 1.1-.1 1.1-.9 0-1.1 1-1.6 3.3-1.6 2.5 0 4.2.9 6.6 3.4 3.5 3.7 6.6 3.9 5.5.4-.5-1.7-.3-1.9 1.5-1.3 2.5.7 8.4-3.3 7.7-5.2-.3-.7-.1-2.6.5-4.1l1.1-2.7 1.5 2.2c1.2 1.9 1.8 2 3.9 1.1 2.7-1.2 3-2.7 1.2-4.7-1.1-1.1-.7-1.2 2-.6 2.8.6 3.2.4 3.2-1.4 0-1.2.6-2 1.3-1.8.6.1 1.1-.6.9-1.5-.2-1.2.6-1.9 2.5-2.4 1.5-.3 3.5-.8 4.3-1 .8-.2 2.1.1 2.9.6 1.1.6 2 .2 3.3-1.2 1-1.2 1.8-2.4 1.8-2.8 0-.4.9-1 2-1.3 1.5-.4 2-1.4 2-3.6 0-1.9.6-3.4 1.5-3.7 1.1-.5 1.2-1 .4-2.6-.8-1.4-.8-2.3 0-3.1.6-.6.8-3.4.4-7.2-.5-5.9-.4-6.2 2.2-7.9 3.8-2.5 7.4-6.7 7.5-8.7 0-.9.9-1.9 2-2.2 1.3-.3 2-1.4 2-2.9 0-4.3 1.2-6.8 3.1-6.8 1.1 0 2.2.7 2.5 1.5.9 2.2 3 1.9 7.2-1 2-1.4 4.6-2.5 5.9-2.5 1.6 0 2.3-.8 2.8-3 .4-1.7 1.3-3 2-3 1.5 0 2.9-2.8 2.6-5-.2-.8-1.2-2.5-2.3-3.7-1.6-1.7-1.7-2.3-.6-3 3-1.8 4.7-5.9 4.1-10-.4-3.4-.2-4.1 1.5-4.5 1.7-.5 1.9-1.1 1.3-4.4-.8-4.2-5.6-15-7.2-15.9-.5-.4-.9-2.1-.9-4 0-3.3-.6-4.2-5-7.8-1.5-1.3-2.1-2.6-1.7-4.3.2-1.3 0-2.7-.4-3-1.5-.9-1-3.1.8-3.8 1.9-.8 3.3.9 3.3 4.1 0 1.3 2 4.3 5 7.2 4.5 4.5 5.5 5 10.7 5.6 3.2.3 7.6 1.4 9.8 2.5 2.2 1 5.4 1.8 7 1.8 3.5 0 8.5-2.4 8.5-3.9 0-1.7 4.3.1 7.1 3.1 1.4 1.5 3.6 3.3 4.8 4 1.7.9 2.2 1.8 1.8 3.6-.6 3.1.6 3.9 2.4 1.7 1-1.2 1-1.4.2-.9-.8.4-1.3.1-1.3-.8s.4-1.6 1-1.6c1.6 0 2.3-4.9 1-6.5-1-1.2-.7-1.5 1.4-2.1 3.8-.9 5.1-.1 6.6 4.5s2.5 5.2 3.5 2c.5-1.6 0-2.8-1.9-4.6-3-2.8-3.5-5.6-.8-4.6.9.3 1.4.3 1-.2-1.3-1.4 1.8-3.3 4.5-2.8 1.9.4 2.7.1 2.8-.8 0-.8.8.4 1.8 2.6 1.3 2.9 1.5 4.4.7 5.7-.5.9-1.4 1.4-1.9 1.1-1.1-.7-3.8 2.9-3.2 4.4.3.9-3 11.1-4 12.1-.2.2-1.4-.2-2.7-.9-2.2-1.3-7.3-1.3-9.3-.1-.5.3-2.7.5-4.8.3-3.5-.2-3.8-.1-3.3 1.7.9 2.8-.5 3.4-4.5 2-2.9-1-3.4-.9-5 1.1-1.3 1.6-2.5 2.1-3.9 1.6-1.6-.5-2-.2-2 1.8 0 2.6-3.7 6.7-6.1 6.7-1.5 0-5.1 3.5-4.3 4.2.2.3-1.2 1.1-3.1 1.8-1.9.8-3.5 1.8-3.5 2.3 0 .5-.8.7-1.8.5-1.6-.5-1.9.1-1.8 3.8.1 3.6-.4 4.9-2.6 6.9-3.4 3.1-3.6 6.1-.5 6.9 1.2.3 3 1.9 4 3.6 1 1.6 2.2 3 2.7 3s1.6.7 2.4 1.5c1.2 1.2 2 1.3 3.5.5 2.7-1.4 2.4-5.2-.4-4.8-1.3.2-2.7-.7-4.1-2.7-2.4-3.3-2.1-5.5.6-5.5 3.5 0 5.2-1.1 3.9-2.6-.6-.7-.9-1.9-.7-2.6.3-.8 1.3-.3 3 1.5 2 2.1 2.8 2.5 3.5 1.5.5-.9 1 0 1.3 2.6.6 4.7 3 6.7 6 4.8 1.1-.6 3.1-1.2 4.5-1.2 1.7 0 2.5-.5 2.5-1.8 0-2.3 2.9-6.4 3-4.2 0 1 .3 1.1 1.2.2.8-.8.8-1.5-.1-2.6-1-1.2-.6-1.3 2.6-.5 3.1.7 4 .5 5.1-.8 1.5-2 1.5-3 .2-3.8-1.8-1.1-1.1-2.3 1-1.8 1.6.4 2 0 2-2.1s.5-2.6 2.4-2.6c1.6 0 2.7-.7 3.1-2.1.4-1.1 1.3-1.8 2-1.5 2.2.8 2.6-3.5.5-5.3-1-.9-2.6-2.8-3.5-4.3l-1.7-2.7 3.1.4c2.3.3 3.5-.2 4.3-1.5 1.1-1.7 1.5-1.5 5.4 2.8 4.6 5 6.2 9.9 4.4 13.3-1.6 2.8-.6 4.9 2.4 4.9 3.5 0 4.3 3 1.4 5.4l-2.3 1.8 3.4 2.9c3.4 2.8 5.3 3.2 7.9 1.5.7-.4 1.4-.6 1.5-.5.1.2 1 1.9 2 3.7 1.1 1.8 1.7 4.2 1.4 5.3-.5 1.7-.1 2 2.6 1.7 2.9-.3 3.2-.6 3.2-3.4 0-3.1.1-3.2 3.8-2.7 3.7.4 3.8.3 2.6-1.8-1-2-.9-2.1.7-1.5 3.7 1.5 8.1 1.8 8.8.7 1-1.6 2.6-1.3 2.6.5 0 .9.8 1.4 1.8 1.3.9-.1 2.2-.1 2.9 0 2.2.2 8.3 6.2 8.3 8.1 0 1.1.5 2.2 1 2.5.6.3 1 .1 1-.5 0-.8.9-1 2.5-.6 2.1.5 2.7.2 3.5-1.9.6-1.5 1-4 1-5.6 0-1.6.4-2.9.8-2.9 1.6 0 .6-4.3-1.3-5.6-1.4-1-1.5-1.4-.4-1.4 1.8 0 5.9-4.3 5.9-6.3 0-.9.5-1.9 1-2.2.6-.3 1 .4 1 1.6 0 1.7.3 2 1.1 1.2.9-.9 1.8-.7 3.7.5 1.5.9 3.8 1.8 5.2 1.9 1.4.2 4.5.5 7 .8 4.2.6 4.6.4 6.2-2.5 2.3-4.1 4.4-4.7 6.7-1.9 1.7 2.1 2 2.2 2.6.7.4-1 0-3.2-.9-4.9-1.7-3.4-1.2-5.4.7-2.9 1.3 1.6 4.3 1.5 6.5-.3.9-.7 2-.3 4.1 1.7 2.9 2.7 2.9 2.8 4 .8.7-1.4 3.6-2.8 8.3-4.3 7.3-2.2 12-4.9 8.6-4.9-2.7 0-4-2.4-2.4-4.5 1-1.4 1.1-2.4.3-3.5-1.4-2.4-.1-6.7 2.3-7.5 1.3-.4 2-1.5 2-3.1 0-1.4.6-2.4 1.4-2.4.8 0 1.6-1.2 1.8-2.7.2-2.3 1-2.9 4.8-4s4.6-1.1 5.9.2c1.1 1.1 1.2 1.5.2 1.5-.9 0-.8.4.3 1.6.9.8 1.6 2.2 1.6 3 0 .8.8 1.4 1.7 1.4 1.6 0 1.6.1.1 1.7-1.4 1.3-2 1.4-3.2.4-1.3-1.1-2.1-.9-4.8 1.4-1.8 1.6-3.2 3.5-3 4.3.2.8-.1 1.1-.7.7-.8-.4-.7.2 0 1.9.7 1.4 2.1 2.6 3.3 2.8 2.7.4 3.7 5.8 1.1 5.8-1.1 0-1.5.5-1.1 1.5.3.8.1 1.5-.4 1.5-.6 0-1 .9-1 2.1 0 1.1.4 1.7 1 1.4.5-.3 2.5-.2 4.3.3 3.5 1 7.2-.1 6.2-1.9-.4-.5-.1-.9.4-.9.6 0 1.1 1 1.1 2.1 0 1.8.2 1.9 1.5.9.9-.8 1.3-2.1.9-3.6-.5-2-.3-2.3 1.2-1.7 1.1.3 2.9 1.6 4 2.7 1.2 1.2 4.2 3.6 6.8 5.5 3.6 2.6 5.3 3.2 7.8 2.8 2.4-.3 4.5.3 7.6 2 2.3 1.4 4.2 2 4.2 1.4 0-1.5 2-1.4 5.2.3 1.6.9 3 1.1 3.3.5.7-1 5.4-.2 6.9 1.2.6.5 1.7.9 2.5.9.9 0 2.9 1.1 4.5 2.5 2.3 2 3.2 2.2 3.9 1.3.6-1 1-1 1.3-.1.4.9 1 1 2.4.1s2.2-.9 3.3 0c3.2 2.7 3.7-2.1.5-5.6-2.1-2.3-2.2-2.5-.3-1.7 1.1.4 3.1.9 4.3 1 2.1.3 2.3 0 1.8-2.1-.6-2.2-.5-2.3 1.9-1.2 1.3.6 2.7 1.9 3 2.8.3 1 1.5 2 2.6 2.3 1.7.5 1.9.9.9 2.6-.9 1.7-.8 2.2.5 2.8.9.3 2.3-.1 3.2-.9 1.3-1.3 1.3-1.9.2-3.9-1.9-3.3-1.7-7 .4-9.1.9-1 1.7-3.1 1.7-4.7 0-1.7.5-3.3 1-3.6.6-.4-.4-2.4-2.5-4.8-1.9-2.2-3.5-4.6-3.5-5.3 0-.7-1.6-2.1-3.5-3.3-1.9-1.1-3.5-2.6-3.5-3.2 0-.7 1-.3 2.3.9 1.4 1.4 2.7 1.8 3.3 1.3.5-.6 2.9-1.1 5.4-1.3 3.8-.3 4.6-.7 4.8-2.6.2-1.2.8-2.2 1.3-2.2 1.1 0 3-4.5 3.3-8 .6-5.8 1.6-7.2 5.1-6.9 1.8.2 4-.3 4.9-1 1.8-1.5 2.2-4.1.6-4.1-.5 0-1-.9-1-1.9 0-1.4.9-2 3.5-2.3 1.9-.2 3.5-.1 3.5.2 0 .4 1.2 1.2 2.7 1.9 2.7 1.2 2.7 1.2 1-.7-2.5-2.8-1-5.9 2.6-5.3 1.1.2 4.7-1.8 4.7-2.7 0-.4-1-1.2-2.2-1.7-1.4-.6-2.4-2.1-2.6-3.8-.2-1.5-.8-2.7-1.3-2.7s-.9-.6-.9-1.4c0-.8-.8-1.7-1.9-2.1-2.9-.9-6.9-4.8-7.1-7-.4-3.7 0-4.5 2-4.5 1.2 0 2-.7 2-1.7 0-1.3.3-1.4 1.2-.5 1.8 1.8 3.8 1.4 3.8-.7 0-1.1.9-2.3 2-2.6 1.1-.3 2-1.3 2-2.1s-.4-1.2-1-.9c-.5.3-2.4-.2-4-1.2-2.5-1.4-3-2.3-2.5-4.2.5-1.9-.1-3.1-2.6-5.4-3.2-2.9-3.3-3-1.3-4.6 1.5-1.2 1.8-2.4 1.4-5.1-.4-1.9-1.2-4.5-1.8-5.7-.7-1.2-1.2-2.9-1.2-3.9 0-1.6.1-1.6 1.9 0 1.3 1.2 2.1 1.4 2.6.6.3-.5 2.2-1.7 4.1-2.5 3-1.2 4.8-4.5 2.5-4.5-2.4 0-4.1-3.3-3.5-6.5.4-2.2 0-4.4-1.2-6.6-1-1.9-1.7-4.6-1.5-6.1.1-1.4-.4-3-1.2-3.5-.7-.4-1.6-1.6-2-2.6-.5-1.4-.2-1.6 1.8-1.1 2.1.5 2.5.3 2.5-1.5 0-1.3-.7-2.1-1.7-2.2-1-.1 0-.5 2.2-.9 2.3-.5 4.8-.4 5.9.2 2.1 1.1 2.1 1.6-.5-11-1.3-5.8-2.9-7.7-4.4-5.2-.4.7-1.1.8-1.8.1-.7-.5-1.6-.9-2.2-.9-.5 0-1.5-1.7-2.2-3.8-.7-2.1-2.1-4.6-3-5.6-1-1.1-1.2-1.8-.4-1.8 2.5 0-.9-3.7-5.1-5.4-9.9-4.2-11.6-5.2-13.1-7.8-.9-1.6-2.5-2.8-3.6-2.8s-2.3-.5-2.6-1c-1-1.7-2.5-1.1-2.5 1 0 1.3-.7 2-1.8 2-3.2 0-4.1 2-3.5 7.2.5 4.4.4 4.8-1.2 4.1-1.4-.5-1.7-.3-1.3.9.4 1-.4 2.3-2.2 3.6-1.6 1.2-4.1 4.4-5.6 7.2-1.5 2.7-3.3 5-4.1 5-2.9 0-7.1 3-8.3 5.9-1.4 3.6-5 6.1-8.5 6.1-3.1 0-8.4 5.5-8.5 8.9 0 1.7-.4 2.2-1.6 1.7-.9-.3-1.8-.6-2-.6-1.2 0-.2-3 1.3-3.8 1.3-.8 1.1-1-1-1-2.5 0-2.7.3-2.7 4.8 0 2.7-.3 5.5-.6 6.4-.3.9.4 2.5 2 3.9 3.3 3.1 2.6 4.9-2.7 6.7-3.3 1.2-4.3 2-4.5 4.1-.2 2.1-.8 2.5-2.5 2.2-1.7-.3-2.5.4-3.7 2.9-1.3 2.8-2 3.3-4.7 3.2-1.8-.1-3.3.1-3.3.6 0 1.2-10 6-12.6 6-2.2 0-2.3.2-1.3 2.1 1.1 2.2 0 3.8-2.6 3.9-.5 0-2.3 1.1-3.9 2.5-2.7 2.3-2.8 2.8-1.9 5.8.7 2.5.7 3.6-.3 4.5-.7.6-1.5.8-1.8.3-.3-.5-1.7-1.1-3-1.3-2.3-.5-2.4-.4-.9 1.8 2.4 3.7 1.3 6.7-3.4 8.9-2.3 1.1-4.4 2.8-4.7 3.9-.2 1-.9 1.5-1.5 1.1-.7-.3-1.1.2-1.1 1.4s-.7 2.1-1.5 2.1-1.5.5-1.5 1.1c0 .6-.6.9-1.2.6-.7-.2-2.1 0-3 .5-1.1.5-2.5.5-3.7-.1-1.5-.8-2-.7-2.5.5s-1.4 1.5-3.8 1c-4.1-.8-5.8-2.3-5.8-5.2 0-1.6.7-2.4 2.3-2.6 1.2-.2 2.2-.9 2.2-1.7 0-.8.6-1.6 1.3-1.9.6-.2 1.2.1 1.2.7s1.4 1.1 3 1.1c3.9 0 3.8-1.4-.2-5-2.4-2.2-3.3-3.9-3.3-6.5-.1-3.1 1.5-5.2 2.9-3.8.9.9 7.6.9 7.6 0 0-.4.6-.7 1.4-.7.9 0 1.2-.7.9-2-.3-1.1-1-1.7-1.5-1.4-.5.3-1.7-.1-2.6-.9-2.1-1.8-5.5-3-4.7-1.7.9 1.5-1.1 1.2-2.2-.3-1.5-1.8-3.2-7.4-2.6-8.1 2.3-2.3.3-11.6-2.5-11.6-.8 0-2.4-.7-3.4-1.6-1.2-1.1-2.2-1.4-3-.7-1.6 1.1-8.6 1.8-7.5.7.9-.9-2.1-4.4-3.8-4.4-2.4 0-4.4-3.5-3.9-6.6.3-2-.1-3.5-1-4.3-1.4-1.1-1.3-1.6 0-3.7 1.3-1.9 1.4-3 .6-5.4-.9-2.6-.8-3.2 1.3-4.8 1.7-1.4 2.2-2.5 1.8-4.6-.4-2.2-.1-2.8 1.5-3.3 3.1-.8 3.5-3.6 1.3-7.7-2-3.5-2-3.6-.2-3.6 2.2 0 4.5-2.5 3.7-3.9-.4-.5.4-1.1 1.6-1.3 1.3-.2 2.7-1.3 3.3-2.5.6-1.4 1.6-2.1 2.5-1.8 1.7.5 7-3.7 7-5.6 0-.6.7-.8 1.5-.5 1.1.4 1.7-.3 2.2-2.5.3-1.9 1.4-3.4 2.8-3.9 2.4-.9 3.8-4.4 3.9-9.9.1-2.8-.3-3.5-2.6-4.3-2.1-.8-2.8-1.6-2.8-3.7 0-1.5-.5-3.2-1.1-3.8-.7-.7-.2-1.4 2-2.1 1.7-.6 3.1-1.5 3.1-2.1 0-.5 1.9-.3 4.5.5 4.1 1.2 4.5 1.2 4.5-.4 0-.9 1.1-2.7 2.3-3.9 2-1.8 2.3-3.1 2.2-8.2-.1-5.7 0-6.1 1.9-5.5 1.2.3 2.6 1.2 3.2 2 1.5 1.9 2.5 1.8 1.7-.2-.3-.9 0-2 .7-2.4 1.1-.7 1.1-1.1 0-2.5-.7-.8-1.8-1.4-2.4-1.2-.6.2-2.3-.2-3.9-1-2.5-1.3-2.7-1.7-2.3-6.6.2-2.9 1.1-6.9 2-8.9.9-2.1 1.6-4.5 1.6-5.3 0-.9.4-1.4.8-1.1.5.3.7-1.3.5-3.4-.3-3.4-.1-4 1.5-4 1 0 2.7.7 3.8 1.5 1 .8 3.5 1.4 5.4 1.4h3.5l-3.7-2c-2.1-1.1-3.8-2.3-3.8-2.8 0-.4-1.1-1.4-2.5-2.1-1.7-.9-2.2-1.7-1.5-2.5 1-1.3-.9-3.4-6.8-7.4-4-2.8-6.1-6.1-3.3-5.4 2 .5 2.1-1.4.2-6.1-.6-1.6-.9-3.7-.5-4.8.3-1 0-2.5-.6-3.3-.9-1.1-.9-2.2.1-5 .7-1.9 1.6-3.5 2.1-3.5.9 0-.2-3.3-1.4-4.1-.5-.3.3-1.1 1.7-1.9 2.7-1.4 3.6-4.6 1-3.7-.8.4-1.7.2-2-.3-.4-.6-1.9-1-3.5-1-3.8 0-6.7-4.8-5-8 .6-1.2 1.3-3.4 1.5-5.1.3-2.4-.1-3.2-2-3.9-2.6-1-8.8-6.9-10.7-10.2-1.3-2.3-1.4-2.8-1.7-8.4-.1-2.7-.5-3.2-2.6-3.2-1.8 0-2.5.6-2.5 1.9zm-12.9 23.5c.7.9 2.2 1.4 3.6 1.1 2.9-.5 5.4 2 3.2 3.4-1.9 1.2-2.6 1.1-3.5-.2-.4-.8-.9-.7-1.5.2-.6 1-1.3.7-2.8-1.2-2.1-2.5-2.7-4.9-1.2-4.9.5 0 1.4.7 2.2 1.6zm31.9 33.9c0 .8.9 1.5 1.9 1.5 1.1 0 2.3.5 2.7 1.2.5.8.2.9-1 .5-1-.4-2.3-.7-2.9-.7-2.1 0-4-1.7-3.3-2.9 1-1.6 2.6-1.4 2.6.4zm-94 49.5c0 .5-.2 1-.4 1-.3 0-.8-.5-1.1-1-.3-.6-.1-1 .4-1 .6 0 1.1.4 1.1 1zm71.8 75.2c-.6 1.8-2.8 2.1-2.8.4 0-.9.7-1.6 1.6-1.6.9 0 1.4.5 1.2 1.2zm-644.8 12.8c0 .5-.6 1-1.4 1-.8 0-1.8-.5-2.1-1-.3-.6.3-1 1.4-1 1.2 0 2.1.4 2.1 1zm717 63c0 .6 1.7 1.8 3.7 2.7 2.1 1 4.4 3 5.1 4.6.7 1.5 1.7 2.7 2.3 2.7.5 0 .9.9.9 2s.5 2 1.1 2c.5 0 .7.4.4 1-.3.5.3 1.7 1.5 2.7 2.3 2 2.6 4.3.8 6.1-1.9 1.9-2.3 1.6-5.9-4.4-1.9-3.1-4.6-6.8-6.1-8.2-1.6-1.4-2.8-3.1-2.8-3.9 0-.9-1.5-1.3-5.1-1.3-3.1 0-4.8-.4-4.4-1 .3-.6 1.7-1 3-1 1.9 0 2.2-.4 1.8-2.3-.3-1.2-1.2-2.9-1.9-3.7-.7-.8-1.5-2.9-1.9-4.5-.7-3-.7-3 3.4 1.3 2.3 2.4 4.1 4.7 4.1 5.2zm84-5c0 .5-.2 1-.4 1-.3 0-.8-.5-1.1-1-.3-.6-.1-1 .4-1 .6 0 1.1.4 1.1 1zm-697.5 12c.3.5.1 1-.4 1-.6 0-1.1-.5-1.1-1 0-.6.2-1 .4-1 .3 0 .8.4 1.1 1zm536.5 20.1c1.4 2.4-1.1 2.7-3.4.3-2-1.9-2-1.9.4-2.1 1.1-.1 2.5.7 3 1.8zm163 1.9c0 .5-.4 1-.9 1-.6 0-1.3-.5-1.6-1-.3-.6.1-1 .9-1 .9 0 1.6.4 1.6 1zm-154 4c0 .5-.2 1-.4 1-.3 0-.8-.5-1.1-1-.3-.6-.1-1 .4-1 .6 0 1.1.4 1.1 1zm163.7 4.2c-.3.7-.5.2-.5-1.2s.2-1.9.5-1.3c.2.7.2 1.9 0 2.5zm-70.7 7.3c0 .8-1 1.1-2.7.8-2.8-.3-2.8-.3-.4.7 1.4.6 3 .9 3.6.6 1.9-.7 1.2 5.9-.9 8-1.6 1.6-1.8 1.6-1.3.2.3-.9-.1-2.2-.8-2.8-.8-.7-1.2-1.6-.9-2.1.3-.5-.2-.9-1-.9-2.1 0-2-2.9 0-5.1 1.7-1.9 4.4-1.5 4.4.6zm-420 65.9c0 .3-.4.8-1 1.1-.5.3-1 .1-1-.4 0-.6.5-1.1 1-1.1.6 0 1 .2 1 .4zm-434 12.6c0 .5-.4 1-1 1-.5 0-1-.5-1-1 0-.6.5-1 1-1 .6 0 1 .4 1 1zm-6 1c0 .5-.4 1-1 1-.5 0-1-.5-1-1 0-.6.5-1 1-1 .6 0 1 .4 1 1zm437.5 1c.3.5.2 1-.4 1-.5 0-1.3-.5-1.6-1-.3-.6-.2-1 .4-1 .5 0 1.3.4 1.6 1zm244.5 1c0 .5-.4 1-1 1-.5 0-1-.5-1-1 0-.6.5-1 1-1 .6 0 1 .4 1 1zm-230 1.1c0 .8.4.8 1.4 0 1.1-1 1.6-.8 2.1.8.7 2.4 2.5 2.8 2.5.6 0-1.9 1.6-2 2.3-.1.5 1.3-.1 5.6-.9 5.6-1.7 0-5.4-2.2-4.9-3 .6-.9.2-1.2-2.7-1.4-2.6-.2-3.8-3.6-1.3-3.6.8 0 1.5.5 1.5 1.1zm-15.4 1.4c1.4 1.3 1.3 2-.8 5.7-3.9 7.3-4.8 7.6-5 2.1 0-2.6-.2-5.5-.2-6.3-.3-3 3.6-4 6-1.5zm-412.6 8.1c0 .8-.5 1.2-1 .9-.6-.4-.8-1.1-.5-1.6.9-1.4 1.5-1.1 1.5.7zm-4 9.3c0 1.2-2 2.5-2.7 1.8-.7-.7.6-2.7 1.8-2.7.5 0 .9.4.9.9zm118 97.7c0 .9.7 1.4 1.8 1.2 2-.3 4.2.9 4.2 2.3 0 1.3-3.7.2-6.7-2-2.6-1.9-2.9-3.1-.8-3.1.8 0 1.5.7 1.5 1.6zm22.7 26c.4 1 .8 1.2 1.2.5.4-.7 1.8 0 3.7 1.7 1.6 1.5 3.8 2.6 4.7 2.4 1-.2 1.7.3 1.7 1.1 0 2.6-1.2 4.7-2.6 4.7-.8 0-1.4.7-1.4 1.5s-.4 1.5-1 1.5c-.5 0-1-.6-1-1.4 0-2.5-4.9-7.4-6.8-7-1 .3-2.2-.4-3.1-1.7-1.2-2-1.1-2.4.5-3.6 2.3-1.7 3.3-1.6 4.1.3zm-13.2 2.4c.3.5-.1 1-1 1-.8 0-1.9.8-2.2 1.7-.6 1.5-.7 1.4-1.3-.3-.4-1-.6-2.2-.3-2.7.6-1 4.1-.9 4.8.3zm-.8 32.6c-.3.4-1.4.3-2.4 0-1.5-.6-1.5-.8-.3-1.6 1.6-1 3.9.4 2.7 1.6z"/><path d="M769.576 114.5c0 .8-.6 1.5-1.3 1.5-.7 0-1.4 1.2-1.5 2.7-.1 1.6-.7 3-1.2 3.1-.6.2-.7.8-.4 1.3.3.6 1.1.6 2-.2.7-.6 1.1-1.5.8-2-.7-1.1-.1-1.1 3 .1 1.7.6 2.6.6 2.6 0s.7-1 1.5-1c2.4 0 1.7-1.9-1-2.6-1.6-.4-2.5-1.3-2.5-2.5 0-1-.4-1.9-1-1.9-.5 0-1 .7-1 1.5zM745.076 117c-.3.5-1.6 1-2.8 1-2 0-5.7 3.8-4 4.1 4.1.7 5.3.5 4.3-.6-.8-.9-.4-1.4 1.5-1.9 1.4-.4 2.5-1.3 2.5-2.1 0-1.7-.6-1.9-1.5-.5zM753.576 121c-.8.5-2.6 1-3.9 1-2 0-2.2.3-1.3 1.2 1.9 1.9 1.4 2.8-1.8 2.8-1.6 0-3-.4-3-.9 0-2.2-4-.5-5.1 2-.7 1.7-1.6 2.6-2.5 2.2-.8-.3-1.4 0-1.4.6s.6 1.1 1.4 1.1c.8 0 1.6.5 1.8 1 .2.6 1.5 1.3 2.8 1.5 2.1.4 2.8-.1 3.7-2.5 1-2.7 1.3-2.9 4.3-2 1.8.5 3.7 1.4 4.4 1.9.9.7 1.6.7 2.3 0 .8-.8 1.3-.5 1.7.9 1 2.9 5.6 3.5 8.2 1 1.4-1.2 2.4-1.6 2.9-.9.3.6 1.1 1.1 1.6 1.1s.2-1.1-.7-2.5c-.9-1.4-2.5-2.5-3.5-2.5-1.1 0-1.9-.6-1.9-1.4 0-1.6-5.6-6.6-7.3-6.6-.7 0-1.9.5-2.7 1zM761.076 121c.3.5 1.1 1 1.6 1 .6 0 .7-.5.4-1-.3-.6-1.1-1-1.6-1-.6 0-.7.4-.4 1zM734.576 122.9c0 1.1.4 2.1.9 2.1 1.8 0 2.1-1.8.6-3-1.3-1-1.5-.9-1.5.9z"/><path d="M745.076 124c.3.5.8 1 1.1 1 .2 0 .4-.5.4-1 0-.6-.5-1-1.1-1-.5 0-.7.4-.4 1zM739.176 135.8c.2.2-.1 1.3-.7 2.4-1.4 2.6-.4 3.4 1.7 1.3 1.5-1.4 1.5-1.8.2-2.9-.8-.8-1.3-1.1-1.2-.8zM736.276 144.7c-.3 1.5-.1 3.4.5 4 .7.9.7 1.3-.1 1.3-.9 0-1.1 2.8-1 9.7.3 11.1-.7 14.3-4.6 14.3-2.1 0-2.5.5-2.5 3s-.4 3-2.5 3c-2.4 0-2.5.2-1.3 2.2 1 2 1.3 2.1 1.6.5.4-1.9 1.3-2.2 2.8-.8 2.3 2.2 12.3 7 12.8 6.2.4-.5 1.5-.7 2.6-.4 1.6.4 2 0 2-2.1 0-1.5.4-2.5.9-2.2.5.4.7-.3.4-1.3-.3-1.3.2-2.3 1.7-3.1 2-1.1 2.2-1.7 1.6-6.1-.5-3.7-.3-4.9.6-4.9.7 0-.5-1.7-2.6-3.7-3.8-3.5-6.6-9.8-6.6-14.8 0-1.2-1.3-3.4-2.9-4.9l-2.8-2.7-.6 2.8zM853.576 174.5c0 1.8-.5 1.9-3.2.4-1.3-.7-1.8-.7-1.4-.1.3.6 2.3 1.6 4.3 2.3 2.1.6 4.4 2.1 5.3 3.2 1.8 2.2 4.3 1.6 3.3-.8-.5-1.6.5-1.9 3-.9 1.1.4 1.3 1.3.7 3.9-.6 2.9-.5 3.4 1.4 4 1.1.4 3.2.6 4.6.5 3-.1 7.8 3.3 9 6.4l.9 2.1v-2.2c.1-1.7.5-2 2.3-1.5 1.7.4 2 .2 1.4-1.3-.4-1.2 0-2.4 1.2-3.6 2.6-2.4 4.2-.7 3.5 3.7-.5 3.1-.4 3.3 2.5 3.2 1.7-.1 3.3-.7 3.6-1.5.9-2.1-1.5-6.2-3.8-6.5-1.6-.2-2.1-1-2.1-3.3 0-1.7-.4-3.1-1-3.2-.5-.1-.9.5-.9 1.3.1.8-.2 1.4-.7 1.4-.5 0-.9-.4-.9-.9 0-.8-5.2-3.1-7.1-3.1-.5 0-.9.6-.9 1.3 0 1.3-3.9 3.7-5.9 3.7-.4 0-1.3-1.1-1.9-2.4-1.1-2.4-7.1-5.2-9.5-4.3-.6.2-2.3-.4-3.6-1.4-2.9-2.3-4.1-2.4-4.1-.4zM767.576 197c0 .5.5 1 1 1 .6 0 1-.5 1-1 0-.6-.4-1-1-1-.5 0-1 .4-1 1zM881.576 197.1c0 .5.5.7 1 .4.6-.3 1-.8 1-1.1 0-.2-.4-.4-1-.4-.5 0-1 .5-1 1.1zM337.076 201c.3.5 1.2.7 2 .3 2.1-.7 1.9-1.3-.6-1.3-1.1 0-1.8.4-1.4 1zM847.576 204.4c0 1.7-2.1 2.6-6 2.6-2 0-2.9.6-3.3 2.1-.4 1.5-.3 1.8.7 1 .7-.6 3.7-1.3 6.6-1.4 4.2-.3 5.5-.8 6-2.3.4-1 .6-2.2.3-2.7-.8-1.3-4.3-.7-4.3.7zM855.076 205c.3.5.8 1 1.1 1 .2 0 .4-.5.4-1 0-.6-.5-1-1.1-1-.5 0-.7.4-.4 1zM172.976 294.2c-.5.7-1 2.2-1.1 3.3-.3 1.5-.1 1.7.8.8.9-.9 1.6-1 2.6-.2 1 .9 1.3.7 1.3-.9 0-2.7-2.5-4.8-3.6-3zM178.576 301c0 1.3 1.8 2.2 2.4 1.1.3-.5-.1-1.1-.9-1.5-.8-.3-1.5-.1-1.5.4zM825.576 349.8c0 1.2 1.9 2.6 2.6 1.9.2-.2-.2-1-1.1-1.7-.9-.8-1.5-.8-1.5-.2zM822.576 353.6c0 1-.6 1.4-1.5 1-.8-.3-1.5-.1-1.5.4 0 1.4 2.2 1.2 4.3-.4 2.1-1.6 2.2-2.6.2-2.6-.8 0-1.5.7-1.5 1.6zM816.376 357.7c.7.3 1.6.2 1.9-.1.4-.3-.2-.6-1.3-.5-1.1 0-1.4.3-.6.6zM958.576 406c0 .5.5 1 1.1 1 .5 0 .7-.5.4-1-.3-.6-.8-1-1.1-1-.2 0-.4.4-.4 1zM686.376 421.5c.5 4 1.8 4.6 2.4 1.2.6-2.9 0-4.7-1.6-4.7-.8 0-1.1 1.2-.8 3.5zM679.376 422.2c-2.5 3-2.2 4.1.5 2.6 1.2-.7 2.4-1.2 2.7-1.1.3.1 1.1-.6 1.9-1.4 1.2-1.3 1.1-1.4-.9-.8-1.5.5-2 .4-1.6-.4 1.3-2-.9-1.1-2.6 1.1zM936.676 463.6c0 1.1.3 1.4.6.6.3-.7.2-1.6-.1-1.9-.3-.4-.6.2-.5 1.3zM35.176 469.7c1.2 1 2.4 2.6 2.7 3.5.4 1.1 1.7 1.8 3.3 1.8 3.1 0 2.8-2.3-.4-2.8-1.2-.2-2.2-.7-2.2-1.1 0-.4-1.2-1.3-2.7-2-2.8-1.1-2.8-1.1-.7.6zM630.176 470.9c-.3.5.1 1.4.9 2.1 1.2 1 1.5 1 1.5-.3 0-1.9-1.6-3.1-2.4-1.8zM25.676 474.6c-.6 1.4-.9 3-.6 3.5 1.2 1.8 3.1.9 4.2-2 .8-2.3 1.5-2.9 3.2-2.4 1.1.3 2.1.9 2.1 1.4 0 .5-.7.6-1.5.3-.9-.4-1.5 0-1.5.9 0 2.6 2.5 2.6 3.7 0 1-2.1.9-2.5-1.3-3.4-4.4-1.6-7-1.1-8.3 1.7zM17.076 476c-.3.6.1.7.9.4 1.8-.7 2.1-1.4.7-1.4-.6 0-1.3.4-1.6 1zM12.776 478.6c.3 1.7 2.1 2.1 2.6.6.1-.5-.4-1.2-1.3-1.6-1.1-.4-1.5-.1-1.3 1zM11.576 484c-.7 1.3-1.7 1.9-2.6 1.6-1.2-.4-1.2-.2-.4 1.4 1.5 2.7 2.3 2.5 3.9-1.1 1.5-3.5.8-5.1-.9-1.9zM6.276 491.6c-1.3 1.3-.7 5.5.8 6 .8.4 1.5 1.5 1.5 2.5 0 3.1 1.7 2.2 2.2-1.1.7-4.5-2.4-9.5-4.5-7.4zM7.876 503.7c-.7.2-1.3 1.6-1.3 2.9 0 3.1 1.6 2.3 2.2-1.1.3-1.4.5-2.5.4-2.4 0 0-.7.3-1.3.6zM3.576 514.2c.4 9.4.1 10.9-2 11.5-1.6.4-1.9 1.1-1.4 3.2.8 3.3 1.3 4.1 2.4 4.1.4 0 .6-.8.3-1.9-.3-1.2.2-2 1.6-2.4 1.2-.3 2.1-1.3 2.1-2.4 0-1 .5-2.4 1.2-3.1.9-.9.8-1.6-.6-3-1-1.2-1.8-3.9-1.9-6.6-.1-2.5-.6-4.6-1-4.6-.5 0-.8 2.4-.7 5.2zM465.576 516.7c0 1.2.3 1.3 1.4.4 1.8-1.5 3.1.2 4 4.9.6 3.4 5.3 7.9 7.7 7.2 1.3-.3 6.9 2.9 6.9 4 0 1.8 6 .8 7-1.2.6-1.1 1.8-2 2.6-2s1.3-.4 1-.8c-.2-.4-.1-1.4.4-2.2 1.7-2.7-1.8-5-7.7-5-4.1 0-5.3-.3-5.3-1.6 0-2-5.2-4-12.2-4.7-4.8-.5-5.8-.3-5.8 1zM45.176 540.2c.6 3.2 5.6 8.8 7.9 8.8.5 0 2.4 2.4 4.2 5.3 3.1 5.1 3.1 5.2 1 5.7-1.9.5-1.7.8 1.5 2.3 4.2 2 8 2.2 7.6.4-.1-.6.3-2.2 1-3.3.9-1.8.9-2.4-.3-3.4-.8-.7-1.5-2-1.5-2.9 0-.9-.5-2.2-1.2-2.9-.7-.7-.9-1.2-.5-1.2.3 0 .2-1.1-.3-2.5-1-2.6-.2-3.3 1.7-1.4.9.9 1.9.6 3.9-1 2.4-1.9 2.4-2.6 0-2.2-.4.1-1.4-.6-2.2-1.6-.7-1-1.4-1.4-1.4-.9 0 .5-.9.1-2-.9-1.6-1.4-2.3-1.6-3.2-.7-.7.7-2.7 1.2-4.5 1.2-2.6 0-3.3.4-3.3 2 0 2.7-1 2.5-4.8-1-1.8-1.7-3.5-3-3.7-3-.3 0-.2 1.5.1 3.2zM252.276 556.4c-.3.8 0 1.7.8 1.9.7.3 1.2 0 1.1-.8-.3-2.2-1.3-2.7-1.9-1.1zM257.076 558.6c-2.2 2.2-.5 4 2.4 2.5 2.4-1.3 2.8-4.1.7-4.1-.8 0-2.2.7-3.1 1.6zM67.376 566.1c-2.5 1.6.6 2.6 4.1 1.4l3.5-1.2-3.2-.5c-1.7-.2-3.7-.1-4.4.3zM62.576 567c1.9 1.3 3 1.3 3 0 0-.6-1-1-2.2-1-1.9 0-2 .2-.8 1zM76.576 567.9c0 .5.5 1.3 1 1.6.6.3 1 .2 1-.4 0-.5-.4-1.3-1-1.6-.5-.3-1-.2-1 .4zM140.276 596.3c-.7 1.8 1.1 3.7 3.6 3.7 1.2 0 1.7-.6 1.5-1.8-.2-.9-1-1.6-1.8-1.4-.7.2-1.6-.2-2-.8-.5-.8-.9-.7-1.3.3zM198.576 642.7c0 .3 2.9 3.4 6.4 6.9 3.6 3.5 6.7 7.3 7.1 8.4.3 1.1 1.1 2 1.7 2 .5 0 1.9 1.2 3 2.6 2.8 3.4 3.9 1.9 2.5-3.4-.9-3.5-1.7-4.4-3.9-4.9-1.5-.3-4-1.9-5.7-3.7-4.9-5.1-11.1-9.5-11.1-7.9zM222.476 666.2c-.1.2-.3 1.6-.5 3.2-.1 1.5-1 3.6-1.9 4.6-2.1 2.4-2.7 7-.9 7 .8 0 1.4.5 1.4 1.1 0 .6-.6.9-1.4.6-1-.4-1.7.4-2.1 2.6-.4 1.8-1.1 3.7-1.6 4.3-.5.7.1 2 1.6 3.4s2.5 3.5 2.5 5.2c0 1.5.5 2.8 1.1 2.8.6 0 .8-.9.4-2-.5-1.5 0-2.2 1.8-2.9 1.8-.7 2.6-2 3.1-4.6.6-3.2 1-3.6 3-3.1 4.9 1.2 5.6-4.8 1-7.9-1.6-1-2.4-2.5-2.4-4.3 0-1.6-.7-3.7-1.5-4.8-.8-1-1.5-2.7-1.5-3.7 0-1.3-1.6-2.5-2.1-1.5zM257.676 677.9c-1 .7-1.1 1.3-.1 3.1 1.2 2.3 1.2 2.3-4.3 1.6-3.3-.3-5.8-.2-6.2.4-.3.5-2.5.7-5 .3-3.1-.4-4.5-.2-4.5.6 0 .6-.6 1.1-1.4 1.1-.9 0-1.2.7-.9 2.1.5 1.8 1.1 2 4.4 1.5 3.5-.6 4-.4 5.3 2.2 1.6 3.2 6.1 6.6 7.5 5.7.5-.3 2.8 1.9 5.2 4.7 4.9 6.1 8 8.8 9.1 8.2.4-.3.8-.1.8.5s.7.8 1.6.4c1.2-.4.8-1-1.6-2.4-2.8-1.7-3-2.2-2.4-5.8.4-2.2.2-4.1-.4-4.5-1.6-1-.1-4.8 3-7.9 2.6-2.7 3.7-5.7 2-5.7-.4 0-1.2-1-1.7-2.1-.6-1.2-2.8-2.8-5-3.5-2.2-.8-4-1.4-4-1.4s-.6.4-1.4.9zM213.576 700.4c0 .2 1.1.6 2.5.8 1.3.3 2.2.1 1.9-.3-.5-.9-4.4-1.3-4.4-.5zM217.376 705.3c-.6 3.1 1.5 4.8 3.5 2.8.8-.8.7-1.1-.5-1.1-1 0-1.8-1-2-2.3-.3-2-.4-1.9-1 .6zM264.076 712.7c-2.1.4-5.5 5.3-5.5 7.9 0 .8 1 1.9 2.3 2.5 1.2.6 3.8 1.9 5.7 3 3.5 1.9 3.5 1.9 4.2-.2.5-1.1 1.8-2.9 3.1-4 1.2-1.1 1.8-1.8 1.2-1.7-1.3.4-6.7-5.1-6-6.2.4-.6-2.2-2.4-2.8-1.9-.1.1-1.1.4-2.2.6z"/></g></svg>