<?xml version="1.0" standalone="no"?>
<!DOCTYPE svg PUBLIC "-//W3C//DTD SVG 20010904//EN"
 "http://www.w3.org/TR/2001/REC-SVG-20010904/DTD/svg10.dtd">
<svg version="1.0" xmlns="http://www.w3.org/2000/svg"
 width="644.040741pt" height="948.789252pt" viewBox="0 0 644.040741 948.789252"
 preserveAspectRatio="xMidYMid meet">
<metadata>
Created by potrace 1.15, written by Peter Selinger 2001-2017
</metadata>
<g transform="translate(-686.543556,1537.807144) scale(0.100000,-0.100000)"
fill="#222222" stroke="none">
<path d="M7421 15360 c-2 -35 -16 -56 -26 -40 -6 9 -12 6 -21 -11 -7 -13 -13
-18 -14 -10 0 8 -3 12 -6 8 -3 -3 -19 0 -36 7 -24 11 -37 10 -70 -1 -24 -8
-45 -10 -52 -5 -6 5 -21 12 -34 15 -18 4 -22 2 -20 -11 2 -9 12 -18 23 -21 34
-6 62 -44 97 -129 9 -22 18 -32 29 -29 13 3 19 -8 29 -52 16 -67 19 -131 6
-148 -6 -10 -1 -13 18 -13 14 0 26 -4 26 -10 0 -5 7 -10 16 -10 27 0 75 -34
80 -57 4 -13 10 -23 15 -23 5 0 6 -7 3 -15 -4 -10 -13 -13 -25 -10 -13 4 -19
1 -19 -9 0 -9 -7 -16 -15 -16 -11 0 -14 -7 -9 -24 4 -19 1 -25 -18 -30 -40
-11 -63 -33 -49 -49 9 -11 8 -17 -4 -27 -8 -7 -15 -23 -15 -36 0 -17 -6 -24
-20 -24 -13 0 -20 -7 -20 -20 0 -16 -7 -20 -30 -20 -16 0 -30 -4 -30 -10 0 -5
-6 -10 -13 -10 -7 0 -27 -16 -44 -35 l-31 -34 52 -20 c28 -10 65 -25 81 -32
17 -7 33 -13 36 -13 13 -2 65 -63 77 -90 7 -16 24 -38 37 -48 14 -11 30 -29
36 -40 14 -26 19 -68 8 -68 -19 0 -7 -27 25 -58 22 -21 33 -40 29 -50 -4 -14
-3 -14 5 -3 5 8 30 17 55 21 43 6 46 5 53 -19 4 -14 6 -30 5 -34 -1 -5 3 -6 9
-2 5 3 15 3 22 -1 8 -5 6 -11 -6 -20 -10 -7 -15 -18 -11 -24 5 -8 14 -6 29 8
11 11 31 23 44 27 12 3 22 12 22 20 0 7 16 16 37 20 20 3 32 10 26 13 -20 13
-35 54 -25 64 6 6 8 17 5 24 -3 9 2 14 17 14 11 0 19 4 15 10 -10 16 18 50 37
44 13 -4 18 0 18 14 0 10 11 28 25 40 19 17 25 32 25 64 0 59 10 71 38 48 12
-10 22 -21 22 -25 0 -4 6 -21 13 -38 30 -70 36 -99 26 -123 -6 -16 -5 -32 1
-44 7 -13 7 -21 -1 -26 -18 -11 -5 -98 19 -129 12 -15 22 -36 22 -46 0 -11 25
-46 55 -79 30 -33 55 -68 55 -77 1 -20 43 -73 58 -73 13 0 25 -28 27 -62 2
-14 10 -41 19 -58 16 -34 14 -50 -8 -50 -19 0 -96 -60 -96 -76 0 -7 -11 -21
-25 -30 -19 -12 -25 -25 -25 -50 0 -29 -3 -34 -24 -34 -25 0 -63 -44 -46 -55
5 -3 -1 -25 -13 -50 -19 -38 -26 -44 -54 -45 -17 0 -35 -5 -38 -10 -4 -6 -13
-7 -23 -1 -12 6 -24 5 -37 -5 -10 -8 -40 -14 -66 -14 -26 0 -51 -4 -54 -10 -3
-5 -21 -10 -39 -10 -26 0 -35 5 -40 23 l-7 22 -9 -21 c-7 -17 -17 -21 -49 -21
-23 0 -44 4 -47 8 -3 5 -16 9 -29 9 -23 0 -24 -2 -13 -25 6 -14 15 -25 20 -25
4 0 8 -4 8 -10 0 -5 -9 -10 -20 -10 -14 0 -18 -5 -13 -17 4 -11 3 -14 -5 -9
-17 10 -15 1 8 -41 25 -48 25 -56 -4 -87 -25 -28 -52 -34 -59 -13 -8 21 -20
-2 -19 -35 1 -18 -6 -54 -15 -80 -15 -43 -15 -47 1 -63 9 -10 15 -24 12 -32
-3 -8 -1 -11 4 -8 5 3 36 -21 70 -53 48 -47 60 -65 60 -90 0 -17 5 -54 11 -83
8 -38 8 -58 0 -76 -8 -18 -8 -29 -1 -38 7 -9 6 -16 -5 -25 -21 -18 3 -59 54
-90 22 -14 39 -30 37 -36 -4 -11 31 -38 49 -39 6 0 10 -4 10 -10 0 -5 4 -15 8
-22 9 -14 -2 -21 -25 -18 -11 2 -18 -3 -18 -12 0 -20 -49 -13 -73 10 -23 23
-42 10 -51 -33 -4 -20 -11 -30 -24 -30 -23 0 -46 -62 -29 -79 8 -8 5 -11 -10
-11 -42 0 -68 -142 -34 -184 12 -14 5 -46 -9 -46 -4 0 -10 7 -14 15 -3 8 -10
15 -15 15 -6 0 -7 -7 -4 -17 4 -11 3 -14 -5 -9 -8 5 -12 -2 -12 -22 0 -24 -5
-31 -26 -36 -15 -4 -32 -2 -40 5 -9 8 -14 8 -14 1 0 -6 -17 -14 -37 -18 -21
-4 -44 -15 -51 -26 -7 -10 -22 -18 -33 -18 -18 0 -20 -4 -14 -30 11 -49 -4
-112 -27 -118 -20 -5 -21 -32 -3 -89 6 -18 2 -22 -25 -28 -17 -4 -34 -13 -37
-21 -3 -8 -11 -14 -19 -14 -25 0 -55 -75 -48 -119 6 -35 3 -43 -21 -65 -21
-20 -26 -31 -21 -51 5 -20 0 -34 -20 -58 -15 -18 -31 -31 -36 -29 -36 10 -110
-66 -89 -92 5 -6 11 -22 13 -36 2 -18 9 -25 25 -25 12 0 31 -10 43 -22 11 -13
25 -23 30 -23 6 0 10 -7 10 -16 0 -22 41 -64 64 -64 14 0 17 -5 13 -20 -3 -12
-2 -34 3 -49 9 -33 -4 -52 -29 -44 -9 3 -2 -6 14 -21 17 -14 24 -25 18 -26
-10 0 -10 -6 -1 -25 8 -19 19 -25 43 -25 45 0 63 -22 115 -145 4 -11 10 -27
13 -36 3 -9 26 -22 54 -29 73 -20 76 -20 88 -3 10 14 14 14 36 1 29 -19 93
-32 84 -18 -8 13 8 13 21 1 16 -16 65 0 76 25 9 19 16 22 36 17 17 -4 23 -2
18 6 -5 7 2 11 18 11 15 0 30 8 36 20 6 11 16 18 21 14 6 -3 17 3 25 14 7 11
28 22 46 25 18 3 42 7 53 9 11 2 25 9 31 17 6 8 15 11 21 8 16 -10 68 39 68
64 0 21 6 24 40 27 22 2 43 8 46 14 9 15 46 -7 54 -33 5 -15 10 -18 18 -10 17
17 50 14 43 -4 -3 -9 0 -15 9 -15 8 0 15 4 15 10 0 5 18 8 40 5 22 -2 42 1 45
6 10 15 25 10 25 -9 0 -21 29 -64 30 -44 0 9 11 5 30 -12 27 -22 34 -24 61
-14 26 9 30 15 26 35 -4 22 -2 25 24 21 15 -3 26 -1 23 3 -2 4 7 16 20 26 l23
19 -22 28 c-18 23 -28 27 -49 22 -14 -3 -26 -11 -26 -16 0 -6 -6 -10 -14 -10
-8 0 -21 -8 -28 -19 -7 -10 -28 -22 -46 -25 -28 -7 -32 -5 -32 14 0 11 -7 23
-15 26 -20 8 -27 37 -29 116 -1 55 1 67 14 65 8 -1 15 3 15 10 0 6 12 21 28
33 29 23 35 44 15 57 -23 14 -41 54 -29 66 17 17 -18 59 -44 53 -14 -4 -30 1
-44 13 -21 19 -28 41 -12 41 13 0 24 41 22 86 -2 26 3 45 13 53 8 7 12 19 9
28 -5 13 -3 13 15 4 30 -16 34 -14 21 12 -12 22 -12 22 10 3 11 -11 21 -25 21
-33 0 -7 5 -13 10 -13 18 0 11 -20 -7 -21 -11 0 -13 -3 -5 -6 17 -7 15 -23 -2
-23 -19 0 -28 -14 -20 -33 4 -11 13 -13 42 -6 20 4 37 7 37 6 1 -1 9 -15 19
-30 10 -16 15 -31 12 -35 -4 -3 2 -15 13 -26 23 -26 36 -66 22 -66 -6 0 -11
-7 -11 -15 0 -7 -8 -18 -17 -23 -15 -9 -15 -12 -1 -33 12 -20 23 -24 58 -22
23 0 46 7 51 14 6 11 12 10 27 -4 19 -17 22 -17 58 -2 l39 16 27 -32 c24 -29
31 -31 66 -25 29 4 43 2 52 -9 7 -8 18 -15 25 -15 35 0 60 -79 25 -81 -13 0
-13 -1 0 -6 24 -9 70 -50 63 -57 -3 -3 2 -17 12 -32 12 -19 20 -23 28 -15 14
14 36 -15 37 -47 0 -19 -4 -22 -20 -17 -11 4 -20 2 -20 -4 0 -6 7 -11 16 -11
9 0 14 -6 11 -13 -3 -8 3 -32 13 -55 12 -26 15 -44 9 -48 -6 -4 -4 -13 6 -24
18 -20 11 -45 -10 -36 -10 3 -13 -5 -13 -27 2 -48 -20 -138 -38 -158 -19 -21
-4 -59 24 -59 20 0 55 -42 66 -78 4 -12 12 -22 17 -22 5 0 9 -9 9 -20 0 -11 5
-20 10 -20 6 0 10 -7 10 -15 0 -8 -6 -15 -14 -15 -8 0 -17 -11 -20 -25 -4 -16
-13 -25 -27 -25 -19 0 -37 -25 -26 -36 3 -4 45 -7 94 -9 48 -1 101 -8 116 -14
16 -6 30 -11 33 -11 10 0 3 25 -11 40 -14 15 -14 21 0 55 15 34 15 39 0 55
-11 12 -13 20 -6 25 17 10 1 57 -27 83 -22 21 -23 24 -8 41 9 10 16 28 16 40
0 32 -39 79 -76 91 -34 12 -52 39 -33 50 8 6 8 13 -1 29 -9 18 -8 27 5 47 8
13 20 24 25 24 6 0 10 8 10 19 0 10 9 25 19 32 19 14 19 15 2 84 -25 93 -37
121 -54 128 -10 3 -13 14 -10 31 4 19 1 26 -10 26 -9 0 -21 9 -27 20 -10 19
-9 20 17 14 15 -4 33 -11 39 -15 13 -11 34 9 34 32 0 10 6 19 12 21 8 3 3 14
-15 30 -15 14 -27 35 -27 46 0 12 -14 37 -31 57 -17 19 -26 35 -20 35 19 0 12
24 -10 38 -12 7 -18 16 -15 19 3 3 -1 11 -10 17 -12 9 -13 17 -5 39 16 40 13
77 -5 84 -8 3 -13 12 -10 20 4 9 -1 17 -14 20 -21 6 -28 39 -9 45 8 3 6 14 -5
37 -10 18 -16 47 -15 64 3 42 -9 86 -33 119 -10 14 -21 41 -25 58 -3 19 -13
35 -24 37 -16 4 -32 58 -23 75 7 11 60 -46 73 -80 8 -18 20 -36 27 -40 7 -4
14 -22 16 -39 1 -21 6 -29 13 -24 25 20 61 20 72 1 17 -25 50 -15 69 22 13 24
18 27 30 17 12 -9 20 -9 40 1 21 12 30 12 57 0 18 -7 48 -13 67 -13 19 0 40
-6 45 -14 7 -10 23 -12 56 -7 36 5 49 12 58 30 6 13 17 24 25 24 9 0 12 7 9
20 -4 14 0 20 11 20 9 0 16 4 16 9 0 4 12 21 26 36 l26 28 -25 21 c-14 12 -32
38 -40 59 -15 34 -15 37 0 37 11 0 14 7 10 27 -7 35 19 87 39 79 23 -9 123 46
124 67 0 9 3 17 8 17 4 0 7 32 7 71 0 71 0 71 -40 105 -22 18 -41 41 -42 51
-2 14 -7 42 -12 61 -1 1 -9 -2 -19 -7 -14 -7 -21 -5 -30 10 -7 10 -21 19 -31
19 -11 0 -23 5 -26 10 -9 15 -25 12 -25 -5 0 -18 -12 -19 -28 -3 -9 9 -18 6
-37 -12 -22 -21 -29 -23 -55 -13 -25 9 -31 8 -42 -8 -11 -16 -19 -17 -51 -10
-20 5 -50 17 -65 27 -15 11 -31 19 -37 19 -24 1 -76 31 -81 48 -3 9 -20 23
-38 31 -34 14 -63 64 -53 90 3 8 -3 22 -13 31 -11 10 -19 20 -18 24 0 3 0 22
-1 42 -1 28 -6 38 -26 47 -14 7 -35 12 -45 12 -11 0 -29 8 -39 18 -11 9 -31
25 -45 35 -20 14 -25 24 -21 38 5 14 -1 28 -20 45 -14 13 -30 25 -36 25 -18 3
-24 5 -47 17 -12 7 -20 17 -17 23 4 5 -7 12 -24 15 -31 7 -59 30 -48 41 4 3
-2 18 -13 33 -11 16 -20 33 -20 38 0 5 -8 13 -17 17 -16 6 -15 8 6 24 21 16
23 41 2 41 -18 0 -81 70 -81 90 0 34 -25 72 -69 108 -23 18 -41 37 -41 43 0 6
5 7 10 4 19 -12 10 13 -15 43 -24 28 -34 59 -17 48 5 -3 30 1 56 9 55 17 108
67 104 99 -3 19 2 21 52 22 30 1 63 5 73 9 13 5 22 2 32 -11 46 -65 76 -77 93
-40 7 16 22 26 46 30 20 4 40 15 46 26 9 16 15 18 37 9 21 -8 28 -7 35 6 5 8
14 13 19 9 5 -3 16 0 24 6 8 6 19 9 25 5 5 -3 13 0 16 8 6 18 42 29 50 16 7
-12 51 -11 75 1 11 6 19 21 19 36 0 24 1 24 27 11 25 -13 28 -13 49 13 20 23
23 34 17 78 -5 45 -3 51 16 57 11 3 21 11 21 16 0 5 6 9 14 9 7 0 19 7 26 15
10 12 10 19 -2 37 -8 13 -20 47 -27 77 -9 35 -23 62 -40 77 -14 12 -23 25 -19
29 13 13 35 -3 49 -34 16 -36 25 -39 34 -10 4 13 0 27 -11 40 -16 18 -16 19 9
19 16 0 35 -11 51 -31 21 -25 29 -29 41 -19 8 6 20 8 26 4 9 -5 10 -2 6 10 -4
10 -10 28 -13 41 -4 15 -21 32 -45 43 -24 12 -35 22 -27 25 10 4 9 9 -4 17
-10 6 -18 23 -19 38 0 15 -3 21 -6 15 -2 -7 -12 -13 -21 -13 -8 0 -23 -7 -33
-16 -12 -10 -25 -14 -36 -9 -14 6 -15 9 -4 12 17 7 -41 34 -83 39 -17 3 -40
14 -53 26 -13 12 -23 17 -23 11 0 -10 -11 -12 -83 -12 -26 -1 -28 -3 -22 -29
5 -26 3 -29 -17 -27 -13 1 -23 3 -23 4 0 1 -20 4 -43 6 -27 2 -49 10 -57 22
-13 17 -14 17 -28 -1 -13 -17 -14 -17 -27 13 -10 24 -16 29 -26 20 -16 -13
-37 -2 -30 16 3 8 0 16 -7 18 -9 3 -9 8 2 20 11 14 11 18 -2 23 -9 3 -23 17
-32 31 -16 24 -16 24 3 14 18 -10 20 -7 18 29 -1 25 -10 48 -24 63 -24 25 -28
52 -11 63 8 4 10 28 6 70 -4 43 -1 80 9 115 12 39 13 58 5 78 -15 36 -19 140
-5 149 17 11 36 51 29 62 -3 6 -19 10 -34 10 -15 0 -36 9 -46 20 -16 17 -19
18 -29 5 -19 -26 -78 -1 -141 60 -56 53 -71 94 -32 87 13 -2 15 2 8 20 -4 13
-18 24 -30 26 -16 3 -21 8 -17 19 4 9 -1 24 -10 34 -9 10 -14 22 -11 26 9 15
-31 57 -55 58 -13 1 -29 5 -36 9 -11 7 -72 -49 -72 -66 0 -5 -9 -8 -20 -8 -17
0 -20 -7 -20 -47 0 -31 -7 -57 -19 -73 -19 -24 -19 -25 0 -51 23 -33 24 -40 4
-33 -11 5 -15 -1 -17 -22 -2 -43 -3 -48 -11 -61 -5 -7 -6 -17 -3 -22 9 -14 -4
-41 -20 -41 -7 0 -18 -9 -24 -20 -8 -15 -6 -21 10 -30 11 -6 19 -14 16 -18 -2
-4 -5 -30 -7 -57 -3 -59 -13 -75 -46 -75 -13 0 -26 -7 -29 -15 -4 -8 -15 -15
-25 -15 -11 0 -19 -7 -19 -16 0 -9 -5 -12 -12 -8 -7 5 -9 2 -6 -8 4 -9 -8 -28
-31 -50 -38 -35 -38 -36 -20 -59 13 -17 15 -27 7 -37 -8 -9 -8 -16 0 -24 14
-14 16 -38 3 -38 -5 0 -14 14 -20 30 -8 25 -15 30 -44 30 l-34 0 11 50 c7 35
14 49 23 46 7 -3 13 -1 13 4 0 6 -6 10 -13 10 -17 0 -34 30 -42 74 -4 20 -12
36 -17 36 -6 0 -28 18 -49 40 -37 38 -38 41 -24 67 8 15 16 36 19 46 4 11 16
17 37 17 31 0 31 0 27 45 -2 29 1 45 8 45 6 0 17 7 24 15 10 12 8 16 -14 25
-14 5 -26 14 -26 20 0 7 6 8 19 0 36 -19 46 -10 16 14 -29 23 -29 23 -40 3 -5
-11 -13 -19 -18 -19 -4 1 -23 4 -42 8 -23 4 -49 1 -75 -10 -24 -9 -41 -12 -45
-6 -3 6 3 10 15 10 12 0 18 4 15 11 -4 6 1 16 11 23 16 12 16 17 4 47 -22 53
-53 97 -72 102 -10 3 -18 15 -18 26 0 21 -26 70 -43 82 -5 4 -18 4 -28 2 -13
-4 -20 2 -25 21 -3 15 -14 31 -24 36 -10 6 -21 20 -23 32 -4 22 -4 22 -6 -2z
m798 -2226 c17 -14 31 -21 31 -14 0 6 5 8 13 3 6 -4 16 -8 20 -8 14 0 58 -115
50 -128 -4 -7 -8 -39 -8 -71 0 -33 -5 -61 -10 -63 -15 -5 -108 84 -100 96 3 6
-7 31 -24 56 -17 25 -27 45 -22 45 17 0 20 45 6 74 -18 36 -18 36 -1 36 8 0
28 -12 45 -26z m159 -528 c9 -20 8 -25 -5 -30 -9 -4 -20 -1 -25 6 -6 10 -8 10
-8 -1 0 -8 -3 -11 -6 -8 -4 4 -1 14 6 23 12 13 11 17 -1 25 -11 7 -10 9 7 9
12 0 25 -10 32 -24z m-68 -26 c0 -5 -4 -10 -9 -10 -6 0 -13 5 -16 10 -3 6 1
10 9 10 9 0 16 -4 16 -10z m-210 -110 c0 -5 -4 -10 -10 -10 -5 0 -10 5 -10 10
0 6 5 10 10 10 6 0 10 -4 10 -10z m-41 -52 c-15 -28 -53 -21 -43 7 3 7 16 12
29 11 19 -1 21 -4 14 -18z m-68 -38 c10 -6 19 -17 19 -25 0 -7 10 -15 23 -17
16 -2 22 -9 21 -28 -2 -35 -15 -70 -26 -70 -24 0 -66 32 -72 55 -4 14 -13 25
-22 25 -11 0 -12 -4 -5 -19 9 -15 7 -20 -10 -24 -15 -4 -23 1 -31 19 -6 13 -9
25 -7 27 2 2 21 17 42 35 43 36 41 36 68 22z m856 -816 c-2 -2 -12 -2 -21 2
-15 6 -15 7 1 20 15 11 19 10 21 -2 2 -9 2 -18 -1 -20z m139 -911 c-10 -10
-19 5 -10 18 6 11 8 11 12 0 2 -7 1 -15 -2 -18z"/>
<path d="M7580 13981 c0 -6 9 -20 20 -31 12 -12 18 -25 15 -30 -4 -6 -1 -10 4
-10 12 0 12 3 14 48 1 22 -4 28 -26 30 -15 2 -27 -1 -27 -7z"/>
<path d="M7688 13933 c7 -3 16 -2 19 1 4 3 -2 6 -13 5 -11 0 -14 -3 -6 -6z"/>
<path d="M7570 13910 c0 -5 5 -10 11 -10 5 0 7 5 4 10 -3 6 -8 10 -11 10 -2 0
-4 -4 -4 -10z"/>
<path d="M7691 13882 c-14 -27 -12 -35 8 -23 7 5 11 17 9 27 -4 17 -5 17 -17
-4z"/>
<path d="M7710 13845 c-10 -12 -10 -15 4 -15 9 0 16 7 16 15 0 8 -2 15 -4 15
-2 0 -9 -7 -16 -15z"/>
<path d="M7541 13840 c-9 -5 -11 -21 -6 -54 5 -30 3 -51 -4 -60 -12 -14 -5
-66 8 -66 18 1 30 20 36 63 4 26 11 50 16 53 5 3 9 15 9 28 0 25 -39 49 -59
36z"/>
<path d="M7670 13831 c0 -6 5 -13 10 -16 6 -3 10 1 10 9 0 9 -4 16 -10 16 -5
0 -10 -4 -10 -9z"/>
<path d="M7665 13790 c3 -5 8 -10 11 -10 2 0 4 5 4 10 0 6 -5 10 -11 10 -5 0
-7 -4 -4 -10z"/>
<path d="M7646 13735 c4 -18 1 -27 -10 -31 -26 -10 -1 -44 33 -44 32 0 62 -27
44 -38 -6 -4 -15 -20 -18 -35 -6 -21 -4 -27 10 -27 19 0 47 25 38 34 -7 7 28
10 67 7 l24 -2 -19 21 c-11 12 -19 24 -17 26 6 9 -12 60 -26 77 -9 10 -29 17
-48 17 -18 0 -36 5 -39 10 -3 6 -15 10 -26 10 -16 0 -18 -5 -13 -25z"/>
<path d="M8497 13324 c-4 -4 -7 -22 -7 -39 0 -31 2 -32 40 -32 24 0 40 4 40
11 0 19 -27 52 -36 44 -4 -4 -12 -1 -18 8 -6 8 -15 12 -19 8z"/>
<path d="M7395 13180 c-3 -5 1 -10 10 -10 9 0 13 5 10 10 -3 6 -8 10 -10 10
-2 0 -7 -4 -10 -10z"/>
<path d="M7430 13165 c-10 -12 -6 -18 23 -35 19 -12 38 -28 41 -36 3 -8 11
-12 16 -9 8 5 7 11 -1 21 -8 10 -8 14 0 14 6 0 11 5 11 10 0 6 -8 10 -18 10
-9 0 -23 9 -30 20 -15 24 -25 25 -42 5z"/>
<path d="M9710 12091 c0 -20 39 -51 65 -51 8 0 15 -4 15 -10 0 -5 4 -10 9 -10
5 0 9 10 7 23 -3 27 -36 79 -36 57 0 -11 -3 -11 -12 -2 -19 19 -48 15 -48 -7z"/>
<path d="M7400 11803 c0 -11 7 -23 15 -27 19 -7 19 3 0 28 -15 19 -15 19 -15
-1z"/>
<path d="M10698 10857 c-2 -13 1 -29 9 -35 10 -10 14 -7 19 12 6 25 -1 46 -15
46 -5 0 -11 -10 -13 -23z"/>
<path d="M10643 10743 c-18 -9 -33 -23 -33 -31 0 -10 8 -12 33 -7 43 10 47 13
47 36 0 23 -5 23 -47 2z"/>
<path d="M10550 10690 c0 -5 7 -7 15 -4 8 4 15 8 15 10 0 2 -7 4 -15 4 -8 0
-15 -4 -15 -10z"/>
<path d="M10400 10640 c-13 -11 -27 -20 -32 -20 -4 0 -8 -6 -8 -14 0 -8 -9
-18 -20 -21 -11 -3 -20 -10 -20 -15 0 -5 -16 -8 -35 -6 -31 2 -34 0 -29 -17 4
-14 3 -17 -6 -12 -9 5 -10 2 -6 -12 4 -12 -1 -29 -14 -45 l-20 -26 23 -6 c59
-16 93 -7 130 34 20 22 45 40 56 40 12 0 21 6 21 15 0 9 7 18 15 21 8 4 15 11
15 17 0 6 17 29 38 51 20 22 30 35 21 28 -12 -9 -24 -10 -43 -2 -40 15 -60 12
-86 -10z"/>
<path d="M8584 10478 c6 -33 4 -38 -21 -52 -15 -8 -24 -15 -19 -16 11 0 -25
-29 -36 -30 -5 0 -8 7 -8 15 0 15 -29 22 -31 8 0 -5 -2 -19 -5 -32 -5 -29 10
-41 54 -41 22 0 32 5 32 15 0 12 4 13 19 5 11 -5 30 -10 43 -10 13 0 29 -5 36
-12 6 -6 27 -17 47 -24 34 -11 36 -10 60 19 l24 31 -27 12 c-33 14 -56 40 -47
54 3 5 -5 15 -19 21 -14 7 -28 20 -31 30 -4 11 -12 16 -21 12 -8 -3 -24 3 -36
13 l-21 19 7 -37z"/>
<path d="M10106 10482 c-3 -6 -3 -17 0 -26 3 -9 1 -16 -6 -16 -6 0 -9 -4 -6
-9 10 -15 -5 -43 -19 -37 -12 4 -25 -13 -25 -33 0 -8 100 2 117 12 6 4 16 20
21 37 10 27 9 30 -9 30 -10 0 -19 -5 -19 -11 0 -5 -5 -7 -11 -4 -6 4 -8 13 -5
20 6 16 -30 50 -38 37z"/>
<path d="M12222 10328 c-3 -11 -13 -18 -29 -18 -13 0 -22 -4 -18 -9 3 -5 -3
-12 -14 -16 -12 -4 -17 -12 -14 -24 3 -11 -5 -24 -22 -35 -19 -13 -23 -21 -16
-33 7 -13 -3 -28 -41 -67 -27 -28 -56 -65 -63 -82 -16 -38 -60 -70 -91 -66
-12 2 -24 -3 -27 -12 -4 -10 -18 -16 -36 -16 -21 0 -35 -7 -46 -23 -17 -27
-88 -47 -150 -44 -52 3 -61 10 -69 52 -8 40 -40 65 -50 39 -3 -9 -12 -14 -20
-11 -7 3 -19 0 -25 -6 -19 -19 -122 -25 -159 -10 -31 13 -33 13 -24 -4 8 -13
5 -24 -9 -44 -18 -25 -37 -29 -90 -20 -9 1 -24 71 -21 97 1 13 -14 38 -41 66
-41 44 -43 45 -39 19 2 -16 -2 -32 -12 -40 -8 -7 -12 -19 -9 -27 4 -10 -3 -14
-25 -14 -17 0 -33 -6 -35 -12 -4 -10 -6 -10 -6 0 -1 6 -6 12 -13 12 -6 0 -3
-9 7 -20 10 -11 14 -20 9 -20 -17 -1 38 -40 56 -40 21 0 60 -45 60 -68 0 -9 8
-24 18 -35 16 -19 16 -19 -5 -13 -15 5 -25 1 -35 -13 -13 -18 -19 -19 -51 -10
-21 5 -42 7 -47 4 -6 -3 -10 -1 -10 4 0 6 -5 11 -11 11 -6 0 -9 -6 -6 -14 6
-16 -17 -41 -30 -33 -5 3 -15 -8 -22 -25 -10 -22 -16 -27 -22 -17 -5 8 -9 10
-9 4 0 -5 -5 -2 -11 8 -5 9 -18 17 -28 17 -21 0 -61 51 -61 78 0 10 -7 33 -16
51 -10 20 -13 42 -9 62 6 28 5 30 -15 24 -28 -9 -49 19 -50 66 0 37 21 66 39
55 5 -3 16 -3 25 0 12 5 13 9 3 25 -11 18 -13 18 -24 3 -12 -16 -15 -16 -51 0
-21 9 -42 27 -47 39 -6 13 -17 21 -28 19 -9 -2 -20 4 -23 12 -3 9 -10 13 -15
10 -6 -3 -16 0 -24 6 -10 8 -15 9 -15 2 0 -12 -64 -5 -93 10 -17 9 -17 7 -6
-14 6 -13 21 -35 31 -51 16 -22 17 -29 6 -40 -17 -16 -65 -20 -74 -6 -5 8 -8
8 -13 0 -5 -8 -21 -4 -52 12 -36 18 -53 21 -80 14 -25 -6 -49 -3 -80 7 -39 14
-46 14 -67 0 -13 -8 -31 -14 -40 -13 -9 1 -25 -1 -34 -6 -10 -4 -25 -5 -32 -2
-12 5 -11 13 7 46 13 23 29 41 39 41 14 0 16 6 11 33 -3 17 -11 34 -16 36 -5
2 -19 13 -30 24 -18 18 -19 21 -4 32 9 7 14 14 11 17 -9 9 -59 -43 -56 -58 2
-8 -2 -14 -8 -14 -8 0 -9 -11 -5 -30 5 -22 3 -30 -7 -30 -14 -1 22 -35 44 -42
9 -3 8 -12 -5 -32 -10 -14 -15 -31 -11 -37 7 -12 -29 -41 -64 -51 -19 -5 -25
-3 -29 11 -5 19 -53 48 -53 32 0 -12 -50 -44 -58 -37 -3 3 5 17 17 30 l22 24
-44 6 c-35 5 -52 3 -76 -12 l-32 -19 26 -17 c14 -9 25 -23 25 -32 0 -14 2 -14
16 0 8 9 20 16 25 16 15 0 10 -40 -6 -46 -9 -4 -13 -13 -10 -24 3 -9 -2 -23
-10 -30 -10 -9 -14 -22 -11 -36 4 -16 -1 -28 -19 -42 -14 -11 -25 -30 -25 -43
0 -39 -20 -100 -35 -105 -19 -8 -27 -34 -15 -49 18 -21 -5 -65 -34 -65 -14 0
-30 -10 -40 -25 -16 -25 -16 -27 8 -56 19 -22 24 -37 20 -55 -5 -18 -2 -24 11
-24 24 0 85 -39 85 -54 0 -7 12 -19 26 -27 14 -7 36 -25 48 -39 12 -14 29 -29
39 -33 29 -11 21 -52 -13 -69 l-29 -14 20 -33 c10 -17 24 -29 29 -26 5 3 19
-4 31 -16 17 -17 19 -23 8 -30 -11 -6 -10 -9 4 -14 15 -6 15 -10 -6 -46 -12
-21 -31 -42 -41 -45 -30 -10 -93 -93 -80 -106 2 -3 -13 -4 -33 -3 -33 2 -38 6
-41 29 -4 32 -19 34 -24 4 -2 -13 -7 -21 -12 -20 -14 6 -23 -16 -18 -48 2 -17
9 -27 15 -23 5 3 23 7 38 9 28 3 29 2 29 -37 0 -26 -5 -42 -15 -45 -8 -4 -15
-14 -15 -23 0 -10 -3 -21 -7 -25 -16 -15 -8 -66 10 -72 9 -3 17 -10 17 -15 0
-5 8 -9 19 -9 10 0 24 -7 31 -15 17 -20 27 -19 33 5 4 16 14 20 47 20 36 0 41
2 35 18 -17 42 -16 52 9 75 14 13 26 28 26 33 0 5 4 16 10 24 7 12 12 11 32
-5 13 -11 17 -13 11 -5 -19 21 -16 28 11 23 17 -4 28 2 40 19 16 22 17 22 31
4 8 -10 12 -23 8 -29 -3 -5 4 -18 17 -27 26 -20 62 -16 53 6 -5 14 7 18 36 14
9 -1 12 5 8 19 -3 12 -1 19 3 16 5 -3 11 9 15 25 5 25 10 29 20 20 11 -9 15
-4 21 27 9 52 10 53 46 43 17 -5 38 -6 46 -1 13 7 12 11 -7 20 -16 9 -26 9
-36 1 -18 -15 -31 6 -15 25 9 10 7 16 -7 24 -19 10 -21 9 31 25 7 3 18 0 24
-6 15 -15 27 11 23 50 -3 32 -2 33 21 21 23 -13 87 -20 161 -19 21 0 37 -4 37
-11 0 -6 9 -9 19 -6 13 3 21 -1 24 -14 3 -11 21 -26 41 -34 19 -8 40 -23 45
-33 10 -19 105 -54 125 -46 7 3 19 -2 26 -11 10 -12 16 -13 27 -4 10 9 17 8
31 -3 10 -9 38 -16 69 -16 79 -1 134 -20 165 -56 28 -32 36 -52 16 -40 -7 4
-8 3 -4 -4 5 -8 13 -9 24 -3 9 4 23 6 30 4 6 -3 12 0 12 6 0 5 17 15 37 20 32
9 38 8 51 -10 10 -15 17 -18 22 -9 5 8 9 5 13 -9 3 -14 0 -21 -9 -21 -12 0
-12 -4 2 -25 9 -14 24 -25 33 -25 10 0 28 -11 41 -25 22 -24 58 -34 61 -17 1
4 3 18 4 31 3 31 48 71 81 71 13 0 24 4 24 9 0 6 14 6 35 0 37 -10 61 -3 85
25 7 9 28 16 47 16 21 0 36 6 39 15 4 8 17 15 30 15 15 0 24 6 24 15 0 9 11
20 25 25 14 5 25 18 25 27 0 10 10 23 23 28 15 7 23 20 25 43 2 22 8 32 21 32
9 0 22 5 27 10 6 6 24 13 40 16 35 6 144 55 144 66 0 4 20 21 45 38 36 24 45
37 45 59 0 22 6 30 24 35 46 11 136 70 136 88 0 21 1 21 34 9 23 -9 24 -8 23
17 -2 24 1 27 26 25 16 -1 44 -13 62 -28 21 -16 47 -25 69 -25 23 0 42 -7 56
-22 13 -14 20 -17 20 -8 0 11 3 11 12 2 13 -13 58 -17 58 -4 0 4 -9 16 -21 25
-19 17 -20 20 -5 36 13 15 14 20 3 29 -13 11 -15 82 -3 117 13 35 23 50 30 45
4 -3 12 2 17 12 5 9 17 14 28 11 20 -5 61 28 61 50 0 8 -3 7 -10 -3 -7 -12
-12 -12 -21 -3 -7 7 -10 16 -6 19 11 11 57 -6 57 -21 0 -8 5 -15 10 -15 6 0
10 5 10 11 0 5 5 7 10 4 6 -4 17 -2 24 4 10 8 16 5 26 -14 11 -20 10 -32 -2
-70 l-16 -46 26 -10 c22 -8 30 -5 57 21 24 24 31 38 28 58 l-5 27 21 -25 c15
-19 21 -22 25 -10 9 30 2 53 -25 83 -28 30 -34 31 -101 11 -14 -4 -18 1 -18
20 0 14 4 26 8 26 5 0 14 11 20 24 9 21 14 23 51 16 35 -6 41 -5 41 9 0 10 5
22 11 28 8 8 7 21 -2 47 -12 33 -11 37 9 56 12 12 22 18 22 14 0 -4 9 3 20 16
11 13 20 27 20 32 0 4 7 8 16 8 21 0 47 27 34 35 -6 4 -7 11 -4 17 5 8 1 9
-10 5 -12 -5 -32 3 -59 23 -38 28 -42 29 -49 13 -5 -14 -7 -13 -7 8 -1 14 -6
30 -13 37 -12 12 -7 16 37 25 15 4 13 5 -7 6 -18 1 -29 8 -33 22 -7 20 -16 21
-57 4 -11 -4 -18 0 -23 14 -3 12 -15 26 -26 31 -10 6 -19 17 -19 25 0 11 5 12
26 5 36 -14 46 -12 42 8 -2 11 -13 17 -33 17 -20 0 -30 5 -31 15 0 8 -4 25 -8
38 -7 20 -14 22 -82 22 -43 0 -74 -4 -74 -10 0 -5 -14 -10 -30 -10 -17 0 -42
-7 -56 -16 -22 -15 -28 -15 -52 -3 -15 8 -33 22 -40 32 -7 9 -23 17 -34 17
-12 0 -29 6 -37 14 -9 7 -29 16 -45 20 -27 7 -28 6 -15 -10 13 -16 10 -16 -36
-10 -28 5 -54 14 -58 22 -6 10 -24 14 -59 13 -40 -2 -52 -6 -56 -21z m-1032
-453 c0 -8 -4 -15 -10 -15 -5 0 -10 7 -10 15 0 8 5 15 10 15 6 0 10 -7 10 -15z
m-1460 -1045 c0 -5 -5 -10 -10 -10 -6 0 -5 -8 2 -20 14 -22 3 -39 -13 -23 -13
13 -4 63 11 63 6 0 10 -4 10 -10z"/>
<path d="M7357 10203 c-14 -13 -6 -33 23 -63 17 -17 30 -26 30 -20 0 5 11 10
24 10 13 0 26 5 28 12 5 15 -48 62 -61 54 -5 -4 -12 -2 -16 4 -7 12 -19 13
-28 3z"/>
<path d="M9917 10177 c-3 -7 -1 -20 4 -28 6 -11 11 -11 21 -1 10 10 9 15 -4
28 -13 13 -16 13 -21 1z"/>
<path d="M9935 10119 c-4 -6 -5 -12 -2 -15 2 -3 7 2 10 11 7 17 1 20 -8 4z"/>
<path d="M13095 10100 c3 -5 8 -10 11 -10 2 0 4 5 4 10 0 6 -5 10 -11 10 -5 0
-7 -4 -4 -10z"/>
<path d="M13070 10060 c-12 -8 -9 -10 13 -10 16 0 26 4 22 10 -8 12 -16 12
-35 0z"/>
<path d="M9660 9992 c0 -16 -5 -19 -21 -15 -12 3 -24 2 -28 -3 -14 -20 -58
-33 -70 -21 -9 9 -15 8 -22 -5 -6 -10 -16 -18 -24 -18 -7 0 -15 -7 -17 -15 -3
-12 -7 -12 -35 2 -31 15 -34 14 -62 -10 -16 -13 -26 -28 -21 -33 4 -5 2 -25
-6 -44 -13 -33 -17 -36 -49 -32 -29 4 -34 1 -29 -12 4 -11 1 -16 -11 -16 -17
0 -17 -1 -2 -18 10 -10 17 -32 17 -48 0 -28 -2 -30 -35 -26 -32 4 -35 2 -35
-20 0 -25 -61 -78 -111 -96 -22 -8 -22 -9 9 -31 19 -13 29 -27 26 -36 -3 -8 6
-26 21 -41 25 -25 25 -27 8 -40 -20 -15 -15 -17 36 -18 23 -1 42 6 57 21 18
18 20 28 14 63 -6 35 -4 46 11 61 11 11 24 19 30 19 8 0 7 5 -1 15 -11 13 -10
18 5 29 10 7 19 26 20 42 1 16 3 40 3 53 2 18 6 22 22 18 13 -3 20 0 20 9 0
10 7 13 24 8 13 -3 27 -1 30 5 4 6 16 11 27 11 15 0 19 7 19 35 0 31 3 35 25
35 14 0 34 9 46 21 16 16 30 20 61 17 35 -3 44 1 78 34 40 40 58 88 33 88 -7
0 -25 7 -38 16 -24 15 -25 15 -25 -4z"/>
<path d="M10960 9815 c0 -8 9 -15 20 -15 11 0 20 2 20 5 0 2 -9 9 -20 15 -16
9 -20 8 -20 -5z"/>
<path d="M9590 8770 c0 -5 5 -10 11 -10 5 0 7 5 4 10 -3 6 -8 10 -11 10 -2 0
-4 -4 -4 -10z"/>
<path d="M12189 8612 c-1 -4 -1 -10 -1 -13 1 -3 -10 -4 -23 -1 -15 2 -25 0
-25 -7 0 -7 -13 -17 -30 -22 -16 -6 -30 -17 -30 -23 0 -17 -43 -36 -80 -36
-24 0 -35 -8 -56 -40 -20 -29 -32 -39 -45 -35 -9 3 -20 1 -24 -4 -4 -7 -15 -7
-33 0 -15 6 -46 8 -69 4 -36 -5 -43 -3 -53 14 -9 18 -20 21 -78 21 -41 0 -73
5 -80 13 -7 6 -25 12 -40 12 l-27 0 19 -38 c16 -32 17 -42 5 -70 -7 -17 -13
-33 -14 -35 -3 -5 -65 30 -65 37 0 4 7 16 15 27 18 24 19 65 1 109 -10 23 -11
35 -3 38 6 2 7 9 3 15 -9 15 -36 16 -36 2 0 -7 -6 -7 -20 0 -17 9 -20 8 -20
-10 0 -11 -4 -20 -10 -20 -16 0 -12 -19 12 -50 13 -18 31 -30 44 -30 50 0 20
-79 -32 -81 -11 0 -2 -7 20 -15 56 -20 73 -39 80 -89 4 -24 13 -49 21 -55 11
-9 13 -26 9 -69 -4 -31 -10 -60 -14 -64 -12 -14 -60 12 -70 39 -7 18 -15 24
-26 20 -9 -3 -20 -6 -25 -6 -5 0 -9 -5 -9 -11 0 -5 5 -7 10 -4 14 9 12 -7 -6
-50 -9 -21 -10 -34 -4 -30 6 4 17 0 23 -8 7 -8 21 -17 32 -19 27 -4 40 -94 17
-120 -8 -10 -16 -44 -18 -80 -3 -39 -9 -65 -16 -67 -7 -2 -25 -18 -41 -34 -20
-22 -34 -28 -52 -25 l-25 5 21 -33 c11 -19 18 -38 15 -43 -4 -5 5 -21 19 -36
18 -17 25 -34 23 -53 -4 -35 -61 -82 -99 -82 -16 0 -47 -7 -70 -17 -33 -13
-46 -14 -60 -5 -10 7 -27 12 -38 12 -11 0 -28 10 -38 23 -10 13 -24 22 -31 19
-6 -2 -15 4 -18 13 -5 12 -14 14 -35 10 -22 -5 -29 -3 -29 9 0 8 -4 18 -10 21
-6 3 -7 -1 -4 -9 4 -11 0 -16 -15 -16 -28 0 -28 -36 -1 -43 22 -6 28 -37 8
-37 -7 0 -5 -5 5 -11 20 -12 23 -41 3 -33 -31 12 -23 -16 16 -57 25 -27 42
-39 45 -31 3 6 16 12 29 12 18 0 24 5 24 23 0 16 3 18 9 8 12 -19 -4 -79 -29
-106 -14 -15 -20 -30 -16 -41 4 -10 1 -21 -6 -25 -7 -4 -9 -11 -6 -15 11 -11
58 -13 58 -3 0 6 7 6 18 0 18 -9 58 10 46 22 -3 3 10 9 30 12 35 7 41 16 38
57 -2 20 25 32 35 15 9 -15 4 -79 -9 -94 -7 -8 -2 -12 18 -15 15 -2 30 -9 32
-17 4 -11 -3 -13 -34 -8 -22 4 -33 3 -26 -2 10 -6 7 -10 -12 -13 -14 -3 -27 0
-30 6 -2 6 -2 -14 -1 -46 2 -41 9 -62 24 -77 12 -12 21 -26 21 -33 0 -6 7 -20
16 -30 14 -14 14 -20 4 -33 -7 -8 -10 -25 -7 -36 3 -13 0 -28 -9 -36 -13 -14
-13 -18 2 -34 21 -23 43 -24 59 -2 11 15 15 14 39 -10 15 -15 38 -27 51 -27
28 0 30 -3 13 -30 -11 -17 -8 -24 22 -55 19 -19 41 -35 49 -35 9 0 36 -23 61
-51 38 -43 52 -51 89 -56 25 -4 60 -17 79 -30 19 -12 41 -23 49 -23 7 0 21
-16 30 -36 14 -29 15 -37 4 -43 -17 -11 -5 -51 15 -51 8 0 17 7 20 15 4 10 17
14 42 11 49 -4 73 -14 94 -40 10 -12 18 -15 18 -8 0 6 9 12 19 12 11 0 21 6
24 13 3 9 7 9 18 0 23 -19 72 -35 63 -21 -5 8 -2 9 10 5 9 -4 25 -1 35 5 15 9
24 8 45 -5 14 -10 48 -18 78 -19 29 -1 61 -5 70 -10 12 -6 20 -3 28 11 13 25
13 31 -1 31 -5 0 -7 -4 -4 -10 3 -5 2 -10 -4 -10 -11 0 -72 49 -84 68 -5 7
-12 10 -18 7 -5 -4 -9 1 -9 9 0 9 9 16 20 16 13 0 20 7 20 18 0 10 13 36 30
58 16 21 30 47 30 56 0 9 6 18 13 21 10 4 10 7 0 18 -17 17 -16 32 0 26 29
-11 38 9 16 34 -15 16 -23 20 -26 12 -6 -15 -33 -17 -33 -3 0 6 5 10 10 10 6
0 10 9 10 21 0 18 5 20 43 18 28 -2 41 1 39 9 -1 7 2 12 8 12 5 0 10 -4 10 -9
0 -5 9 -11 20 -14 18 -4 19 -1 16 36 -2 23 -4 48 -5 56 -1 9 -11 12 -34 9 -28
-3 -33 -1 -30 13 5 18 -30 44 -45 35 -5 -3 -30 12 -56 34 -55 46 -132 65 -148
36 -8 -13 -13 -11 -41 19 -35 38 -64 45 -74 18 -9 -23 -23 -37 -48 -47 -18 -7
-19 -8 -3 -17 10 -5 15 -16 12 -24 -7 -19 -44 -20 -44 -2 0 7 -14 23 -30 35
-24 18 -34 20 -49 12 -28 -15 -32 -13 -76 25 -22 19 -47 33 -55 32 -8 -1 -16
6 -18 15 -2 12 2 15 16 11 15 -3 21 2 26 22 4 14 4 31 0 37 -5 7 0 9 14 6 26
-7 27 -5 6 27 -9 13 -13 28 -10 34 3 5 3 17 0 26 -5 12 -14 14 -34 10 -28 -6
-41 7 -45 46 -1 10 -12 30 -23 47 -24 33 -20 44 13 36 15 -4 24 0 29 11 9 25
-3 37 -21 20 -14 -15 -17 -14 -35 4 -10 12 -22 21 -26 21 -19 1 -45 33 -61 76
-17 47 -17 50 0 68 18 18 19 17 35 -23 17 -43 41 -51 36 -12 -3 18 0 22 15 17
15 -5 23 2 35 31 27 64 31 83 16 88 -9 4 -12 20 -10 55 3 32 0 50 -7 50 -6 0
-11 -5 -11 -11 0 -5 -4 -7 -10 -4 -18 11 11 115 33 115 5 0 4 -7 -3 -15 -15
-19 -10 -19 24 -2 14 8 22 17 18 21 -3 4 4 15 16 25 20 14 22 21 13 44 -7 18
-7 27 0 27 5 0 13 -8 16 -17 8 -19 73 -88 73 -77 0 4 -7 16 -17 26 -15 17 -15
18 9 18 19 0 27 7 32 25 4 14 13 25 21 25 8 0 15 12 17 28 3 23 7 27 31 24 19
-3 28 1 26 10 -3 26 1 38 15 38 8 0 16 -4 18 -10 2 -5 13 -7 26 -3 13 3 21 11
19 17 -3 6 3 19 12 29 9 11 16 32 17 48 1 23 -5 33 -27 44 -15 8 -30 11 -33 6
-3 -5 -22 -12 -42 -15 -28 -6 -33 -10 -24 -21 8 -10 6 -18 -11 -34 -26 -24
-35 -26 -44 -10 -5 7 -14 3 -26 -10 -11 -12 -26 -21 -34 -21 -8 0 -15 -7 -15
-15 0 -16 -27 -20 -49 -6 -11 7 -7 13 18 25 17 9 31 21 31 26 0 5 6 7 14 4 9
-3 17 3 21 15 7 23 43 29 62 10 7 -7 13 -7 17 -1 8 14 -4 43 -15 37 -5 -3 -16
3 -26 15 -20 23 -30 25 -36 8 -2 -7 -2 -1 0 13 3 21 -3 32 -26 49 l-31 21 -10
-25 c-6 -16 -17 -26 -30 -26 -22 0 -26 -16 -10 -40 8 -13 10 -12 10 4 0 12 5
16 16 12 9 -3 18 -6 20 -6 12 0 1 -29 -16 -45 -11 -10 -17 -22 -14 -26 3 -5 0
-9 -5 -9 -6 0 -11 -14 -11 -31 0 -20 -4 -29 -12 -26 -7 2 -13 18 -13 35 0 33
-5 38 -21 22 -5 -5 -15 -6 -24 0 -12 7 -12 15 -2 43 7 18 12 49 12 68 0 23 3
30 9 20 15 -23 79 6 83 38 2 20 9 27 31 29 15 2 32 12 37 23 6 10 17 19 24 19
8 0 16 9 19 21 4 16 11 19 27 14 15 -5 29 -1 43 13 37 34 81 51 100 41 11 -7
17 -6 17 1 0 5 7 10 15 10 8 0 15 -4 15 -10 0 -5 7 -10 15 -10 10 0 15 10 15
26 0 26 1 26 25 10 22 -15 25 -15 35 2 7 11 13 13 16 5 3 -6 18 -31 34 -55 16
-23 31 -55 35 -69 5 -21 11 -26 27 -21 18 4 18 6 4 14 -18 10 -22 28 -5 28 6
0 17 -7 25 -15 18 -17 34 -20 34 -4 0 5 -4 8 -9 5 -11 -7 -37 22 -50 57 -12
31 3 57 27 49 6 -2 15 5 19 15 3 10 13 26 21 36 13 15 13 23 2 58 -15 44 -16
45 -72 52 -31 5 -37 2 -42 -16 -6 -21 -8 -20 -41 15 -19 21 -36 34 -36 30z
m-629 -793 c0 -5 -4 -9 -10 -9 -5 0 -10 7 -10 16 0 8 5 12 10 9 6 -3 10 -10
10 -16z m57 -201 c2 -11 -5 -27 -14 -34 -23 -17 -37 -18 -26 -1 4 6 8 19 10
27 1 8 7 16 13 18 5 2 7 9 3 15 -3 7 -2 9 2 4 5 -4 10 -17 12 -29z m-352 -278
c3 -5 1 -10 -4 -10 -6 0 -11 5 -11 10 0 6 2 10 4 10 3 0 8 -4 11 -10z m48 -25
c-3 -9 -8 -14 -10 -11 -3 3 -2 9 2 15 9 16 15 13 8 -4z"/>
<path d="M11395 8410 c-3 -5 -1 -10 4 -10 6 0 11 5 11 10 0 6 -2 10 -4 10 -3
0 -8 -4 -11 -10z"/>
<path d="M11346 8392 c-3 -6 -1 -14 5 -17 14 -9 20 -2 10 14 -6 8 -11 9 -15 3z"/>
<path d="M11220 8372 c0 -39 53 -59 63 -23 3 13 -3 22 -20 30 -33 15 -43 14
-43 -7z"/>
<path d="M11297 8329 c3 -10 9 -16 14 -13 13 8 11 21 -5 27 -10 4 -12 0 -9
-14z"/>
<path d="M12078 8271 c-5 -17 -12 -22 -24 -17 -14 5 -15 1 -10 -31 4 -21 7
-45 8 -54 2 -10 9 -14 20 -11 23 6 24 45 2 63 -14 12 -14 14 1 25 9 7 15 21
13 31 -3 15 -5 14 -10 -6z"/>
<path d="M11310 8276 c0 -5 8 -18 17 -28 15 -17 15 -19 -1 -31 -17 -13 -17
-14 -1 -30 20 -21 51 -22 59 -2 3 8 11 15 18 15 9 0 8 -3 -2 -10 -9 -6 -10
-10 -3 -10 7 0 17 9 23 20 9 16 6 22 -19 35 -17 8 -39 15 -50 15 -11 0 -25 8
-30 18 -6 9 -11 13 -11 8z"/>
<path d="M12124 8099 c-3 -6 0 -15 7 -20 21 -13 25 -11 26 11 2 21 -21 28 -33
9z"/>
<path d="M11706 7763 c-6 -14 -5 -15 5 -6 7 7 10 15 7 18 -3 3 -9 -2 -12 -12z"/>
<path d="M10847 7665 c-7 -18 47 -75 62 -66 7 5 22 6 32 4 28 -8 27 43 -1 52
-11 3 -20 10 -20 14 0 11 -69 8 -73 -4z"/>
<path d="M11761 7626 c-10 -12 -8 -17 10 -26 19 -11 21 -10 16 4 -4 9 -2 16 4
16 6 0 7 5 4 10 -9 14 -21 12 -34 -4z"/>
<path d="M10956 7575 c-3 -9 0 -15 9 -15 9 0 12 6 9 15 -4 8 -7 15 -9 15 -2 0
-5 -7 -9 -15z"/>
<path d="M10915 7460 c3 -5 8 -10 11 -10 2 0 4 5 4 10 0 6 -5 10 -11 10 -5 0
-7 -4 -4 -10z"/>
<path d="M10843 7395 c-4 -13 2 -25 20 -39 26 -21 39 -55 16 -40 -6 3 17 -22
50 -56 34 -35 64 -60 68 -56 3 3 1 6 -5 6 -7 0 -12 9 -12 19 0 11 -16 54 -37
96 -26 55 -40 74 -51 70 -8 -3 -21 0 -28 6 -11 9 -15 7 -21 -6z"/>
<path d="M12650 7122 c0 -4 -14 -13 -31 -21 -23 -10 -28 -16 -19 -25 9 -8 14
-8 17 2 5 13 43 17 43 4 0 -4 -5 -13 -11 -19 -8 -8 -8 -17 1 -33 6 -12 9 -24
6 -27 -3 -3 2 -11 11 -18 11 -8 13 -17 7 -26 -19 -30 -12 -69 17 -99 31 -31
56 -39 77 -27 7 5 14 3 16 -5 2 -7 7 -21 10 -32 5 -13 2 -17 -8 -13 -12 5 -13
-1 -9 -29 4 -22 2 -34 -6 -34 -6 0 -10 -3 -10 -7 4 -28 -3 -44 -18 -42 -18 2
-45 -5 -75 -21 -12 -7 -20 -3 -33 16 -9 14 -14 28 -11 31 9 9 -15 34 -25 27
-5 -3 -15 -2 -21 3 -21 13 -78 10 -78 -5 0 -13 -40 -33 -53 -25 -4 2 -6 -11
-5 -29 3 -29 0 -33 -24 -36 -16 -2 -28 -8 -28 -13 0 -12 37 -49 50 -49 5 0 17
-14 25 -31 13 -25 19 -28 31 -18 8 6 14 19 14 27 0 15 2 15 17 0 15 -16 15
-18 -8 -38 -13 -11 -32 -18 -41 -16 -12 3 -18 -2 -18 -14 0 -17 -33 -37 -52
-32 -5 1 -8 -3 -8 -9 0 -6 -6 -9 -14 -6 -12 5 -13 1 -4 -24 5 -16 8 -36 5 -43
-6 -16 35 -62 63 -71 24 -8 31 -87 11 -138 -11 -29 -12 -43 -3 -62 10 -21 9
-25 -3 -25 -9 0 -15 -9 -15 -23 0 -16 9 -26 31 -34 18 -7 29 -17 26 -25 -5
-14 20 -69 36 -79 5 -4 23 -3 40 2 20 5 35 5 43 -2 7 -6 18 -8 23 -5 5 4 12 2
16 -4 11 -18 24 -11 27 17 2 22 11 29 53 43 88 28 150 65 147 85 -2 12 1 16
11 12 23 -9 29 4 10 25 -15 17 -15 18 15 12 47 -9 66 0 51 27 -7 14 -8 24 -1
28 5 3 13 24 16 46 4 22 16 51 28 65 17 21 29 25 76 26 31 0 58 6 60 12 2 6 9
9 16 6 7 -3 26 14 42 38 16 24 32 44 35 46 12 5 -3 41 -14 36 -7 -2 -13 6 -13
21 -1 14 2 22 8 19 6 -4 8 2 3 15 -6 19 -3 21 34 21 22 0 43 5 46 10 4 6 -5
34 -19 63 -26 56 -34 117 -21 178 6 35 5 36 -25 43 -50 9 -100 7 -137 -6 -23
-8 -36 -9 -41 -2 -25 37 -105 59 -115 32 -3 -10 -7 -10 -20 1 -10 7 -17 9 -17
3 0 -5 -9 -12 -19 -15 -23 -6 -45 15 -60 56 -6 16 -18 27 -30 27 -31 0 -43 26
-43 92 -1 65 -10 90 -32 82 -8 -3 -18 7 -25 25 -11 25 -51 51 -51 33z m-230
-750 c0 -15 -2 -15 -10 -2 -13 20 -13 33 0 25 6 -3 10 -14 10 -23z"/>
<path d="M12584 6946 c-3 -9 -14 -16 -23 -16 -15 0 -18 -9 -17 -60 1 -58 2
-60 27 -60 31 0 52 21 44 42 -4 9 0 22 8 30 17 17 4 64 -14 52 -7 -4 -9 -3 -5
4 3 6 2 13 -4 17 -6 3 -13 -1 -16 -9z"/>
<path d="M12480 6915 c0 -27 18 -33 38 -13 20 20 14 38 -13 38 -20 0 -25 -5
-25 -25z"/>
<path d="M12507 6843 c-6 -34 1 -46 10 -15 3 13 10 19 17 15 6 -4 5 1 -3 10
-17 22 -18 22 -24 -10z"/>
<path d="M12508 6793 c7 -3 16 -2 19 1 4 3 -2 6 -13 5 -11 0 -14 -3 -6 -6z"/>
<path d="M12521 6754 c0 -11 3 -14 6 -6 3 7 2 16 -1 19 -3 4 -6 -2 -5 -13z"/>
<path d="M12954 6068 c-4 -6 -3 -8 4 -4 5 3 13 0 15 -6 3 -8 6 -6 6 5 1 19
-14 23 -25 5z"/>
<path d="M12915 6040 c-3 -5 -2 -10 4 -10 5 0 13 5 16 10 3 6 2 10 -4 10 -5 0
-13 -4 -16 -10z"/>
</g>
</svg>
