<?xml version="1.0" standalone="no"?>
<!DOCTYPE svg PUBLIC "-//W3C//DTD SVG 20010904//EN"
 "http://www.w3.org/TR/2001/REC-SVG-20010904/DTD/svg10.dtd">
<svg version="1.0" xmlns="http://www.w3.org/2000/svg"
 width="998.386662pt" height="608.013131pt" viewBox="0 0 998.386662 608.013131"
 preserveAspectRatio="xMidYMid meet">
<metadata>
Created by potrace 1.15, written by Peter Selinger 2001-2017
</metadata>
<g transform="translate(-530.465174,1301.028347) scale(0.100000,-0.100000)"
fill="#222222" stroke="none">
<path d="M14073 12990 c-3 -11 -12 -20 -20 -20 -8 0 -17 -9 -20 -20 -6 -22
-41 -27 -73 -10 -17 9 -19 5 -26 -47 -7 -58 -26 -86 -51 -76 -7 3 -13 9 -13
15 0 15 -29 40 -39 34 -5 -3 -29 3 -54 14 l-45 20 -43 -24 c-39 -22 -54 -24
-128 -21 -58 2 -88 8 -95 17 -22 29 -42 27 -55 -6 -7 -17 -20 -46 -28 -65 -9
-20 -11 -36 -6 -40 5 -3 18 -20 28 -38 15 -26 16 -34 6 -47 -8 -9 -20 -16 -27
-16 -7 0 -11 -6 -8 -14 3 -8 -10 -31 -30 -52 -20 -21 -36 -42 -36 -47 0 -5 -5
-7 -12 -5 -6 2 -21 -6 -33 -18 -15 -15 -30 -21 -43 -17 -15 4 -33 -7 -66 -41
-24 -25 -50 -46 -57 -46 -8 0 -6 -7 5 -19 14 -16 22 -18 36 -9 20 13 80 -6 80
-24 0 -6 -7 -5 -15 2 -9 8 -15 9 -15 2 0 -6 4 -13 9 -16 13 -8 42 4 35 15 -3
5 0 9 5 9 6 0 11 -4 11 -10 0 -5 7 -10 15 -10 8 0 14 -3 13 -7 -1 -5 4 -25 10
-45 12 -33 48 -68 76 -72 6 -1 17 -5 24 -9 6 -5 12 -5 12 0 0 4 5 0 11 -9 5
-10 17 -18 24 -18 8 0 15 -4 15 -8 0 -4 10 -8 23 -9 27 -2 70 -50 63 -69 -3
-8 -2 -14 3 -14 5 0 9 -19 9 -42 1 -93 3 -96 85 -118 41 -11 50 -11 58 1 8 12
10 12 18 0 7 -11 13 -12 23 -4 7 5 28 13 46 16 26 5 32 3 32 -11 0 -13 2 -14
9 -3 6 10 13 10 29 2 11 -6 27 -8 35 -5 23 8 28 -23 7 -48 -13 -16 -15 -28 -9
-40 8 -14 6 -18 -8 -18 -10 0 -14 -3 -8 -8 6 -4 10 -44 11 -89 0 -68 -3 -83
-16 -83 -10 0 -4 -11 18 -31 18 -17 34 -30 36 -28 14 22 25 65 21 81 -6 16 -3
18 19 12 22 -5 27 -2 36 21 8 20 15 25 28 20 34 -14 47 -11 44 13 -3 17 2 22
18 22 12 0 30 -5 41 -10 13 -7 19 -7 19 0 0 5 7 10 16 10 9 0 18 9 21 19 7 29
31 33 54 10 16 -16 23 -18 34 -9 12 10 12 17 3 34 -13 24 -11 109 3 114 20 8
-4 22 -26 16 -16 -4 -30 1 -44 15 -20 20 -20 20 -26 0 -4 -10 -13 -19 -21 -19
-8 0 -14 -8 -14 -17 -1 -16 -3 -16 -18 3 -10 11 -23 19 -30 16 -7 -2 -20 4
-27 14 -15 20 -14 42 11 129 13 45 17 51 41 50 20 0 28 6 35 30 5 17 16 44 25
62 14 29 14 40 0 115 -16 87 -14 130 9 148 7 6 11 17 8 25 -3 7 7 17 25 23 33
12 44 38 12 27 -20 -6 -86 28 -94 49 -7 18 8 42 17 27 8 -13 16 -14 34 -2 11
6 6 23 -22 79 -41 81 -41 83 -22 76 8 -3 24 -1 35 6 15 7 27 8 40 0 14 -7 20
-7 23 2 3 7 11 9 24 3 10 -4 24 -7 30 -6 6 1 17 -12 24 -28 12 -29 12 -29 40
-13 19 11 26 20 20 26 -11 11 -13 46 -4 70 5 14 9 14 34 1 35 -18 54 -19 44
-3 -10 15 -6 68 5 82 5 7 -5 24 -25 44 l-34 32 -21 -21 c-18 -18 -24 -19 -50
-9 -16 7 -29 16 -29 21 0 5 -11 9 -25 9 -18 0 -25 -5 -25 -19 0 -56 -84 -63
-131 -12 -33 36 -39 38 -46 11z"/>
<path d="M8665 12852 c-11 -2 -24 -10 -28 -18 -5 -9 -18 -11 -37 -8 -26 6 -29
4 -35 -29 -4 -19 -4 -45 0 -56 4 -13 1 -27 -9 -36 -13 -13 -13 -19 -1 -42 8
-14 19 -29 26 -33 6 -4 8 -13 5 -19 -5 -8 -13 -7 -28 3 -11 8 -26 12 -34 9 -7
-2 -19 5 -26 16 -17 28 -25 27 -55 -10 -14 -16 -31 -28 -37 -26 -6 3 -3 -15 9
-39 13 -29 26 -44 39 -44 16 0 18 -6 14 -44 -3 -25 -1 -49 5 -55 8 -8 8 -14 0
-22 -8 -8 -8 -20 -3 -35 7 -18 6 -24 -5 -24 -8 0 -15 -12 -17 -27 -2 -22 -8
-28 -25 -27 -22 1 -30 -20 -24 -64 1 -8 -5 -19 -15 -26 -15 -11 -15 -17 -4
-52 7 -21 23 -48 35 -60 12 -11 24 -27 27 -34 2 -8 11 -11 22 -7 14 6 17 14
12 45 -4 20 -2 51 3 67 5 17 10 24 10 17 1 -7 12 -17 26 -22 14 -5 25 -17 25
-26 0 -13 10 -15 48 -14 63 3 63 3 96 -25 28 -24 53 -34 42 -17 -3 5 17 16 44
26 26 9 56 26 65 36 12 14 27 18 51 14 28 -3 34 -1 34 15 0 11 8 22 19 26 10
3 18 13 17 23 0 9 6 17 14 17 8 0 15 -8 15 -18 0 -10 14 -35 32 -56 l32 -38
-27 -25 c-15 -14 -32 -23 -39 -21 -7 2 -15 -7 -19 -22 -5 -22 -11 -25 -30 -21
-13 4 -24 2 -24 -3 0 -6 -16 -27 -36 -48 -34 -37 -35 -40 -30 -95 5 -50 3 -59
-14 -68 -11 -6 -20 -21 -20 -34 0 -58 -12 -86 -36 -86 -26 0 -30 -10 -13 -27
7 -7 3 -18 -14 -37 -13 -14 -29 -26 -36 -26 -6 0 -11 -7 -11 -15 0 -8 -5 -15
-12 -15 -9 0 -9 -3 -1 -11 7 -7 8 -20 3 -33 -5 -14 -3 -28 5 -40 8 -10 11 -24
9 -31 -3 -7 2 -27 11 -44 8 -17 13 -31 10 -31 -2 0 3 -9 12 -19 18 -21 43 -86
43 -113 0 -10 9 -23 20 -30 11 -7 20 -21 20 -30 0 -14 9 -18 35 -19 58 -3 60
-3 72 -19 15 -18 17 -90 3 -90 -6 0 7 -23 27 -51 21 -28 37 -55 35 -61 -1 -5
2 -6 8 -3 6 4 19 1 28 -7 9 -8 28 -15 41 -16 13 0 28 -7 32 -14 14 -22 10 -29
-11 -18 -14 7 -20 7 -20 0 0 -18 -26 -11 -54 15 -33 30 -42 31 -49 5 -4 -14
-14 -20 -35 -20 -21 0 -31 -6 -35 -20 -3 -12 -14 -20 -25 -20 -12 0 -24 -5
-27 -11 -4 -6 -13 -8 -19 -6 -7 3 -19 1 -27 -4 -8 -5 -22 -3 -35 6 -19 12 -22
12 -32 -10 -9 -20 -17 -24 -49 -21 -24 2 -40 10 -46 22 -5 11 -23 30 -40 44
-17 14 -28 20 -24 13 5 -7 -1 -17 -14 -24 -21 -11 -38 0 -39 25 0 5 -22 6 -50
2 -43 -6 -57 -3 -106 24 -31 16 -65 30 -76 30 -11 0 -28 5 -39 11 -15 7 -24 7
-34 -1 -8 -7 -20 -10 -26 -8 -7 2 -24 -7 -38 -20 -19 -18 -33 -22 -56 -19
-126 21 -170 25 -182 15 -16 -13 -61 4 -117 44 -51 37 -64 36 -62 -4 0 -21 -3
-32 -11 -31 -6 2 -27 3 -45 3 -49 0 -90 1 -118 3 -20 2 -24 -2 -22 -19 1 -11
-6 -29 -17 -38 -11 -10 -18 -22 -16 -26 3 -4 -17 -10 -43 -13 -35 -4 -49 -1
-55 9 -5 9 -16 12 -26 9 -12 -4 -21 2 -29 17 -11 23 -11 23 -11 -4 -1 -21 -5
-26 -17 -21 -10 4 -17 -1 -21 -16 -3 -11 -12 -21 -19 -21 -8 0 -17 -7 -20 -15
-4 -8 -11 -12 -18 -8 -6 4 -24 8 -41 8 -16 1 -42 5 -57 9 -24 7 -29 5 -38 -18
-9 -26 -13 -27 -72 -24 -57 3 -63 5 -69 28 -4 14 -7 20 -8 13 -1 -17 -31 -4
-31 13 0 10 -14 14 -49 14 -27 0 -58 3 -68 7 -16 6 -16 5 -4 -10 12 -15 11
-20 -3 -36 -11 -12 -13 -21 -7 -25 6 -4 8 -12 6 -19 -2 -7 -6 -25 -9 -40 -4
-17 -16 -31 -31 -37 -17 -6 -26 -20 -31 -45 -3 -19 -10 -37 -14 -40 -5 -3 -6
-15 -2 -27 4 -18 2 -20 -16 -16 -13 4 -20 2 -19 -6 1 -6 -6 -10 -15 -10 -11 1
-18 -5 -18 -15 0 -9 -3 -26 -6 -38 -5 -20 -3 -22 24 -20 25 2 28 5 19 17 -9
12 -7 12 8 -1 31 -25 55 -30 61 -14 5 11 10 12 24 2 18 -10 18 -13 3 -29 -9
-10 -19 -15 -24 -12 -10 6 -23 -41 -15 -54 6 -10 -62 -37 -71 -28 -4 3 -12 1
-20 -6 -11 -9 -11 -14 3 -29 13 -15 14 -21 3 -41 -7 -13 -12 -29 -11 -36 4
-16 -26 -28 -39 -15 -5 5 -11 25 -13 44 -2 19 -10 50 -18 69 -14 32 -13 36 4
48 10 7 16 17 13 22 -3 5 -1 11 5 15 23 14 8 31 -29 32 -36 2 -40 -1 -46 -27
-4 -16 -3 -40 1 -52 4 -13 6 -37 5 -54 -1 -18 2 -35 8 -39 16 -9 13 -25 -4
-25 -34 0 -45 -65 -20 -114 9 -16 14 -31 11 -33 -2 -2 7 -15 19 -27 29 -29 84
-49 99 -37 15 12 68 17 83 8 6 -4 15 -2 18 4 4 6 18 8 31 5 13 -4 41 -2 63 3
28 6 47 5 63 -3 13 -7 29 -11 36 -8 6 2 12 -1 12 -7 0 -6 -4 -11 -10 -11 -5 0
-18 -20 -29 -44 -11 -25 -28 -50 -39 -57 -13 -8 -17 -19 -14 -32 4 -14 1 -18
-7 -13 -8 6 -10 1 -6 -17 4 -15 2 -28 -6 -32 -8 -6 -10 -4 -4 5 6 10 4 12 -9
7 -10 -4 -19 -7 -22 -7 -2 0 0 -7 3 -17 5 -12 3 -14 -7 -8 -9 5 -7 0 3 -16 9
-13 17 -36 17 -52 0 -15 6 -30 14 -33 8 -3 17 -12 20 -20 4 -11 0 -13 -19 -8
-20 5 -25 2 -25 -12 0 -11 4 -25 9 -33 14 -22 1 -53 -20 -48 -13 4 -19 0 -19
-13 0 -14 -11 -19 -47 -25 -27 -4 -56 -11 -65 -16 -10 -6 -19 -5 -23 1 -3 5
-11 7 -18 4 -7 -2 -28 9 -47 26 -37 33 -45 36 -55 19 -5 -7 -14 -3 -26 10 -21
22 -39 27 -39 11 0 -5 -5 -10 -10 -10 -17 0 -59 -53 -60 -74 0 -14 -3 -16 -13
-7 -8 6 -18 7 -23 2 -20 -18 -77 -32 -85 -20 -4 6 -16 8 -28 4 -21 -6 -21 -8
-7 -31 23 -34 20 -99 -6 -145 -16 -29 -26 -38 -40 -33 -11 3 -18 0 -18 -8 0
-8 -16 -20 -35 -28 -27 -11 -34 -18 -29 -32 3 -12 0 -18 -10 -18 -8 0 -19 -7
-24 -16 -14 -25 -55 -10 -86 31 -26 33 -26 35 -7 35 12 0 21 7 21 16 0 8 -4
13 -9 10 -10 -6 -61 49 -61 65 0 5 5 9 12 9 31 0 -9 15 -48 17 -33 3 -44 0
-44 -11 0 -8 4 -16 8 -18 5 -1 12 -15 15 -30 6 -22 3 -28 -15 -34 -13 -4 -24
-2 -26 4 -2 7 -22 17 -44 23 -45 12 -81 40 -61 46 9 3 8 13 -4 38 -10 22 -21
31 -30 28 -8 -3 -19 0 -24 8 -13 20 -11 27 9 32 12 2 7 7 -16 13 -17 5 -32 12
-32 17 0 14 -40 47 -65 53 -14 3 -25 9 -25 13 0 4 -11 22 -25 41 l-25 34 6
-32 c5 -24 3 -33 -10 -38 -20 -8 -20 -77 0 -111 12 -19 11 -22 -13 -28 -14 -3
-23 -8 -20 -11 2 -3 -8 -18 -23 -34 -19 -20 -26 -37 -23 -50 4 -15 9 -18 17
-11 21 18 90 6 101 -17 5 -11 16 -20 25 -20 8 1 46 -11 84 -27 56 -22 70 -25
78 -14 5 8 11 10 14 4 15 -34 47 -77 52 -69 11 15 124 15 142 0 8 -7 35 -23
58 -35 53 -26 112 -21 112 10 0 14 7 19 28 19 21 0 32 7 40 25 7 16 20 25 34
25 21 0 21 0 2 -15 -15 -11 -16 -14 -3 -15 8 0 26 -10 38 -22 19 -17 27 -19
40 -10 31 23 42 24 92 7 33 -10 55 -13 61 -7 14 14 47 2 60 -22 12 -20 12 -20
18 7 4 25 7 27 23 15 10 -7 20 -27 22 -43 5 -42 5 -42 15 -17 8 18 14 21 37
16 16 -4 31 -9 36 -11 15 -9 6 -30 -16 -40 -19 -9 -23 -17 -19 -41 2 -18 12
-34 25 -39 l21 -9 -22 -22 c-19 -19 -19 -22 -5 -34 9 -7 24 -12 35 -10 22 4
23 -10 3 -48 -14 -28 -14 -32 8 -67 20 -33 22 -44 14 -81 -8 -35 -7 -45 8 -62
14 -15 15 -23 6 -33 -8 -11 -6 -18 8 -31 11 -10 20 -25 20 -34 1 -35 9 -81 16
-91 3 -6 1 -11 -4 -11 -6 0 -11 -7 -11 -15 0 -8 -5 -15 -11 -15 -6 0 -9 -7 -6
-15 4 -8 2 -17 -2 -20 -15 -9 -22 -71 -11 -96 6 -13 28 -49 50 -79 41 -57 53
-97 25 -86 -23 8 -19 -26 8 -65 12 -19 22 -47 22 -64 0 -39 -29 -80 -49 -72
-10 4 -16 1 -16 -8 0 -8 -9 -15 -19 -15 -11 0 -22 -6 -24 -12 -4 -10 -7 -10
-15 0 -6 9 -11 6 -20 -13 -6 -14 -18 -25 -27 -25 -8 0 -15 -7 -15 -16 0 -11 8
-14 24 -12 16 2 38 -9 64 -30 23 -17 45 -32 51 -32 6 0 8 -6 5 -14 -4 -9 13
-29 45 -53 47 -36 101 -118 101 -155 0 -8 9 -24 20 -36 11 -12 20 -25 20 -29
1 -19 49 -41 86 -40 21 1 45 -4 54 -12 10 -10 15 -10 18 -2 2 7 14 4 33 -10
17 -12 33 -19 36 -15 3 3 18 -1 34 -9 15 -8 40 -15 54 -15 15 0 35 -5 46 -11
29 -15 59 -2 59 26 0 22 3 24 30 18 30 -6 31 -5 25 27 -5 28 -3 31 12 25 36
-15 63 -17 77 -6 7 6 20 9 28 6 9 -4 19 4 26 20 15 33 31 32 43 -2 8 -24 15
-28 47 -28 36 0 37 -1 37 -35 -1 -37 17 -59 48 -60 10 0 17 -8 17 -18 0 -11
14 -25 35 -35 19 -9 35 -12 35 -7 0 6 5 10 10 10 6 0 10 -7 10 -15 0 -8 -5
-15 -11 -15 -7 0 -10 -21 -7 -60 2 -37 -1 -61 -8 -64 -6 -2 -14 -19 -18 -37
-5 -25 -1 -38 15 -55 13 -14 18 -28 13 -36 -6 -10 -4 -10 9 1 11 8 17 28 17
52 0 22 4 39 8 39 12 0 75 -48 85 -65 14 -25 37 -17 54 21 14 27 15 39 6 53
-18 28 -14 98 6 106 13 6 13 8 -6 16 -12 4 -33 30 -47 57 -13 26 -32 54 -40
61 -22 18 -20 31 4 31 28 0 25 10 -14 48 l-34 33 24 24 c14 14 31 25 38 25 8
0 16 7 20 15 3 8 15 15 26 15 21 0 27 14 10 25 -5 3 -10 21 -10 40 0 25 5 35
20 40 11 3 20 13 20 21 0 8 -4 13 -9 10 -5 -3 -11 3 -14 14 -3 11 -2 22 3 25
11 7 20 59 14 83 -6 22 -41 36 -47 18 -3 -8 -8 -8 -17 1 -9 9 -21 8 -49 -1
-21 -8 -47 -10 -63 -5 -15 4 -29 4 -32 1 -3 -3 -6 2 -6 12 0 10 -11 19 -30 23
-29 5 -40 26 -20 38 20 12 9 36 -22 50 -18 8 -28 15 -23 15 6 1 -7 10 -27 21
-37 19 -38 20 -38 79 0 45 4 60 14 60 14 0 26 21 26 44 0 7 -24 25 -52 40 -70
37 -88 54 -88 82 0 13 -4 25 -10 29 -5 3 -17 30 -26 60 -10 30 -21 55 -26 55
-4 0 -8 7 -8 15 0 8 5 15 10 15 6 0 10 8 11 18 0 10 3 12 6 5 2 -7 11 -13 19
-13 8 0 11 6 8 15 -4 8 -12 15 -19 15 -6 0 -17 15 -23 33 -10 31 -10 32 -11 5
-1 -31 -32 -43 -95 -39 -17 1 -17 3 -2 26 9 13 16 35 16 49 0 14 14 40 33 60
27 28 42 35 75 37 27 2 48 -2 58 -12 21 -22 74 -13 74 12 0 11 5 19 10 19 6 0
10 -7 10 -15 0 -9 9 -15 25 -15 18 0 26 7 31 24 3 15 11 23 19 20 7 -3 16 -1
20 5 3 6 15 11 26 11 17 0 19 5 14 34 -6 29 -4 35 14 41 25 7 44 -2 38 -19 -3
-7 4 -12 15 -12 17 0 19 5 14 35 -3 19 -13 39 -21 44 -16 8 -24 24 -40 77 -8
24 -7 24 18 7 35 -23 42 -21 25 6 -10 15 -13 29 -7 45 12 32 26 27 33 -11 7
-36 36 -67 65 -67 19 0 45 23 35 32 -2 3 2 8 10 11 8 3 22 -3 31 -13 10 -11
22 -17 27 -14 18 11 92 -19 120 -48 15 -15 36 -28 47 -28 24 0 28 -22 7 -39
-11 -9 -27 -6 -70 13 -38 17 -67 23 -85 20 -16 -4 -32 -1 -35 5 -11 18 -24 13
-28 -11 -2 -12 -9 -23 -17 -26 -9 -3 -11 2 -6 17 5 17 1 23 -20 31 -34 13 -65
13 -65 0 0 -5 5 -9 12 -7 6 1 22 -13 35 -32 12 -19 23 -31 23 -27 0 4 9 2 19
-3 14 -8 22 -7 30 3 10 12 18 11 51 -5 21 -10 44 -19 50 -19 6 0 21 -12 33
-26 21 -24 26 -25 85 -18 54 6 62 9 57 25 -4 12 1 19 17 25 13 3 26 12 30 18
4 6 13 -5 22 -26 9 -20 20 -39 26 -43 5 -3 10 -17 10 -30 0 -13 5 -27 11 -31
6 -4 9 -19 5 -35 -6 -31 20 -69 48 -69 24 0 46 12 40 21 -3 5 0 9 6 9 7 0 14
-9 17 -19 3 -12 11 -17 19 -14 10 4 14 -3 14 -21 0 -36 42 -63 78 -50 22 8 27
16 27 43 0 19 6 36 13 38 6 3 10 9 6 14 -3 5 6 14 20 20 21 10 24 16 19 48 -2
20 -9 48 -15 63 -5 15 -7 31 -4 37 4 5 2 13 -4 16 -6 4 -10 24 -8 45 1 21 -4
45 -11 54 -16 19 -12 20 23 6 33 -12 86 -2 86 16 0 8 5 14 11 14 5 0 7 5 3 11
-3 6 -1 15 6 19 9 6 9 13 -1 31 -7 13 -13 27 -14 31 0 3 -3 10 -7 14 -5 4 -8
15 -8 24 0 9 -14 21 -35 29 -24 8 -35 19 -35 32 0 17 5 18 40 13 32 -5 40 -3
40 8 0 9 7 21 15 28 10 9 15 9 15 1 0 -6 4 -11 9 -11 14 0 18 70 5 88 -8 11
-9 22 -3 35 6 10 7 27 3 39 -7 24 9 38 49 38 21 0 27 5 27 21 0 16 4 19 18 14
38 -17 54 -11 66 25 9 30 15 35 39 32 24 -3 27 0 27 25 0 35 16 53 47 53 13 0
26 7 29 15 4 8 12 15 20 15 8 0 14 5 14 11 0 7 9 9 21 6 27 -7 49 1 49 19 0
12 4 12 20 4 12 -6 20 -7 20 -1 0 5 14 12 30 16 17 4 30 11 30 16 0 18 46 9
82 -16 55 -37 101 -32 156 18 19 18 26 19 42 9 12 -7 21 -8 25 -2 14 23 27 8
23 -25 -2 -19 -1 -35 3 -35 4 0 9 -9 12 -20 3 -11 14 -20 24 -20 11 0 28 -6
38 -14 12 -9 26 -11 35 -6 8 4 39 11 69 14 30 3 58 11 63 18 12 18 36 -15 44
-61 4 -20 20 -50 37 -68 25 -27 28 -35 17 -48 -10 -13 -9 -15 6 -16 11 -1 27
-1 37 0 9 1 17 -4 17 -13 0 -9 6 -16 13 -16 7 0 26 -13 41 -29 16 -16 34 -27
41 -25 6 3 17 -2 24 -10 10 -12 9 -21 -5 -48 -30 -59 -34 -67 -34 -82 0 -8 6
-16 14 -19 7 -3 16 -28 20 -59 4 -29 15 -61 24 -72 13 -14 14 -20 5 -23 -9 -3
-5 -15 12 -37 14 -18 25 -45 25 -59 0 -22 -5 -27 -26 -27 -16 0 -24 -5 -21
-12 2 -7 12 -12 21 -12 9 1 15 -3 13 -9 -2 -7 7 -20 21 -31 20 -16 25 -17 33
-5 5 8 9 20 9 27 0 7 5 10 11 6 8 -5 8 -1 0 14 -6 11 -11 30 -11 41 0 12 -3
21 -8 21 -4 0 -13 21 -19 48 -7 26 -15 57 -19 70 -5 19 -3 22 20 22 15 0 29 7
32 15 4 8 17 15 29 15 13 0 25 6 28 13 3 9 11 8 34 -4 25 -14 32 -14 50 -2 14
10 23 11 28 4 3 -6 1 -11 -6 -11 -7 0 -9 -3 -6 -7 4 -3 2 -12 -3 -18 -7 -9 -6
-14 4 -18 9 -4 16 2 20 16 l5 21 24 -22 c18 -17 35 -22 75 -22 30 0 52 4 52
11 0 6 8 3 17 -7 16 -16 18 -15 30 15 17 41 35 39 49 -4 9 -29 8 -35 -3 -35
-30 0 -5 -25 28 -28 35 -3 89 -51 89 -79 0 -12 13 -14 68 -9 37 3 77 5 88 6
14 0 24 9 28 23 3 13 19 30 36 38 l30 14 -50 2 c-27 0 -47 -3 -44 -8 3 -5 -1
-9 -10 -9 -8 0 -16 -5 -18 -12 -3 -8 -11 -7 -28 5 -14 9 -37 17 -52 17 -32 0
-105 67 -89 83 6 6 4 22 -5 43 -17 41 -17 45 -1 43 6 -1 25 3 40 9 16 7 34 9
40 5 18 -11 57 -10 57 1 0 6 5 5 12 -2 15 -15 74 -16 83 -1 4 6 -2 13 -14 16
-24 6 -26 13 -8 33 10 12 9 12 -4 2 -13 -9 -21 -6 -44 18 -16 16 -26 33 -22
37 4 3 32 6 62 6 56 0 102 -24 88 -46 -3 -6 -1 -7 5 -3 7 4 12 14 12 22 0 9 6
14 13 11 7 -2 11 -16 9 -32 -3 -23 -1 -27 13 -21 12 4 16 2 12 -8 -3 -8 1 -13
11 -12 14 1 17 -9 17 -51 0 -28 4 -55 9 -60 5 -4 7 1 3 15 -4 17 -1 22 13 22
10 0 21 -8 24 -17 8 -25 66 -24 88 2 12 14 16 30 12 53 -6 30 -5 32 24 32 24
0 43 12 82 50 27 28 50 56 50 62 0 6 10 8 25 4 19 -5 27 -2 31 11 26 85 83
147 104 113 7 -10 10 -11 10 -2 0 6 9 12 19 12 11 0 22 6 24 13 4 9 7 9 14 -1
6 -8 23 -10 54 -6 43 6 45 8 41 34 -4 26 0 30 38 40 23 6 56 20 73 31 25 15
42 18 78 13 44 -6 48 -5 73 29 33 44 117 67 171 47 93 -34 92 -34 135 8 37 36
141 82 184 82 11 0 16 9 16 30 0 26 5 31 30 37 17 3 30 10 30 16 0 7 4 7 12
-1 9 -9 9 -15 0 -24 -15 -15 3 -48 27 -48 15 0 18 5 14 23 l-5 22 16 -22 c10
-13 23 -23 31 -23 18 0 30 -39 16 -53 -7 -7 5 -25 39 -59 26 -26 54 -48 60
-48 22 0 40 29 40 64 0 29 4 36 19 36 39 0 52 27 48 101 l-3 69 33 -2 c18 -1
35 1 39 5 14 14 -19 89 -44 100 -23 11 -23 11 20 32 36 17 44 25 46 53 3 29 6
32 37 32 38 0 65 22 65 51 0 11 5 17 10 14 6 -3 10 -1 10 4 0 6 7 11 16 11 11
0 14 6 9 21 -6 19 -4 20 29 14 28 -6 37 -4 42 9 4 10 13 15 20 12 19 -7 67 12
59 23 -3 6 21 8 62 5 39 -2 70 -9 75 -17 23 -38 28 -42 36 -30 11 18 102 -25
102 -48 0 -20 67 -32 88 -16 7 6 31 10 53 9 29 -1 44 4 57 19 9 12 23 27 30
35 7 8 10 14 5 14 -4 0 1 6 11 12 17 9 24 6 48 -23 47 -56 50 -60 45 -66 -3
-2 -1 -17 4 -32 7 -20 20 -30 50 -38 37 -10 42 -9 46 8 4 15 11 18 27 12 11
-4 36 -7 54 -8 18 -1 42 -11 55 -23 22 -21 24 -21 65 -5 33 13 42 21 42 41 0
21 3 23 25 18 19 -5 25 -2 25 10 0 20 28 43 53 44 10 0 17 8 17 19 0 11 5 23
10 26 6 3 10 18 10 32 0 22 3 24 26 19 15 -4 33 -14 41 -21 17 -17 59 -20 68
-5 5 8 11 7 21 -1 11 -9 21 -9 44 1 16 7 36 10 45 6 8 -3 15 -1 15 4 0 6 7 10
15 10 12 0 15 9 11 40 -5 39 -4 40 28 40 17 0 38 -6 45 -12 10 -11 11 -10 6 5
-6 13 -2 17 14 17 17 0 21 6 21 30 0 24 -7 35 -34 51 -19 11 -37 27 -40 35 -4
10 -2 13 6 8 7 -5 9 0 6 14 -9 33 18 27 39 -8 9 -16 22 -30 28 -30 21 0 65 25
65 38 0 6 9 12 19 12 11 0 22 -6 24 -12 3 -7 6 -4 6 8 2 42 -37 58 -124 53
-11 0 -31 2 -44 7 -18 5 -22 4 -17 -5 11 -16 -63 -4 -84 15 -8 7 -49 30 -91
51 l-76 38 5 -50 c2 -27 8 -54 13 -59 18 -20 8 -28 -23 -22 -18 4 -50 7 -71 7
-26 1 -41 7 -48 20 -11 22 -34 26 -26 5 7 -18 -28 -52 -38 -37 -8 13 -48 8
-53 -7 -3 -10 -110 32 -122 48 -3 4 -17 10 -32 14 -16 3 -28 12 -28 20 0 7 -7
19 -16 26 -12 11 -15 11 -12 -1 2 -9 -5 -14 -18 -13 -15 0 -20 -5 -17 -20 3
-12 -4 -30 -14 -41 -10 -11 -17 -31 -15 -45 2 -18 0 -21 -6 -11 -7 9 -19 11
-36 7 -22 -5 -33 1 -67 34 -22 22 -45 38 -49 35 -5 -3 -18 3 -30 15 -11 11
-25 20 -31 20 -7 0 -31 21 -54 46 -42 45 -42 46 -20 54 31 12 39 28 24 46 -10
12 -8 19 10 37 11 13 21 31 21 40 0 9 5 17 11 17 8 0 8 4 -1 15 -6 8 -9 19 -5
25 12 20 -6 31 -27 16 -20 -14 -52 -11 -43 4 3 4 -4 10 -14 13 -15 3 -18 12
-16 38 2 20 8 33 15 31 23 -5 40 20 40 59 0 22 -4 39 -10 39 -5 0 -10 8 -10
19 0 10 -11 35 -25 54 -32 48 -37 93 -10 90 10 -1 36 12 57 29 28 22 38 37 38
58 0 41 18 76 47 91 16 9 23 19 20 31 -3 11 0 18 8 18 10 0 12 7 5 30 -14 48
-18 50 -55 18 -19 -17 -32 -35 -29 -40 3 -4 -9 -11 -26 -14 -17 -4 -28 -9 -25
-12 2 -3 -4 -11 -15 -19 -11 -8 -20 -23 -20 -34 0 -11 -6 -22 -14 -25 -8 -3
-16 -14 -19 -25 -7 -25 -23 -24 -37 1 -12 23 -32 27 -24 5 4 -8 1 -15 -4 -15
-6 0 -18 -8 -28 -17 -14 -15 -34 -18 -111 -16 l-93 1 0 -39 c0 -37 -2 -39 -25
-33 -19 5 -25 2 -25 -10 0 -9 -5 -16 -11 -16 -5 0 -7 5 -4 10 3 6 -3 10 -14
10 -16 0 -21 6 -21 24 0 19 -6 25 -27 28 -26 4 -25 5 13 16 32 9 43 18 46 37
3 14 -1 30 -8 36 -11 9 -11 14 2 26 8 9 13 22 9 31 -3 8 2 20 11 27 15 11 15
15 3 44 -8 18 -24 34 -36 37 -13 4 -23 10 -23 14 0 23 -35 18 -62 -9 -26 -26
-32 -28 -59 -18 -16 6 -29 17 -29 24 0 7 -8 17 -19 22 -12 7 -21 26 -25 55 -6
39 -10 45 -34 48 -16 2 -31 12 -39 28 -11 22 -10 26 8 32 11 4 17 12 14 18 -3
5 -1 10 6 10 7 0 3 10 -9 23 -15 16 -22 36 -22 63 0 21 -4 34 -8 29 -4 -6 -19
-16 -33 -22 -16 -7 -34 -28 -44 -51 -10 -21 -26 -44 -37 -51 -20 -13 -58 -6
-58 10 0 5 -5 9 -11 9 -7 0 -10 -13 -7 -33 3 -32 3 -32 -34 -28 -21 1 -38 7
-38 12 0 5 -8 9 -19 9 -14 0 -22 -12 -30 -44 -6 -25 -15 -47 -19 -50 -4 -3
-25 -1 -45 4 -33 7 -37 6 -37 -12 0 -10 -4 -17 -9 -14 -5 3 -14 -1 -21 -10 -7
-8 -16 -11 -19 -7 -3 4 -16 17 -29 27 -23 20 -23 20 -16 0 4 -10 15 -28 26
-40 22 -25 21 -73 -4 -97 -24 -24 -23 -48 4 -83 20 -24 20 -27 4 -21 -25 10
-45 -9 -39 -34 5 -18 2 -20 -23 -18 -16 2 -35 0 -42 -5 -7 -4 -19 0 -29 9 -12
12 -25 15 -52 10 -42 -8 -49 -13 -54 -42 -2 -13 -6 -25 -10 -29 -3 -4 -2 -15
4 -25 7 -15 6 -19 -5 -19 -7 0 -17 -11 -20 -24 -7 -29 3 -86 15 -86 5 0 9 -7
9 -16 0 -27 40 -73 79 -94 37 -18 69 -69 63 -97 -2 -7 2 -13 9 -13 6 0 9 -7 5
-15 -3 -9 4 -20 22 -29 15 -8 40 -31 55 -50 26 -34 27 -36 7 -36 -26 0 -26
-27 0 -60 14 -19 28 -25 56 -25 23 0 39 -5 42 -14 3 -8 0 -11 -6 -7 -6 3 -13
2 -17 -4 -3 -5 -18 -10 -33 -10 -19 0 -30 -7 -37 -22 -12 -29 -48 -30 -55 -3
-4 13 -16 21 -35 23 -40 3 -185 74 -185 90 0 6 -7 12 -15 12 -25 0 -65 47 -65
75 0 16 -11 35 -27 49 -24 21 -25 26 -15 54 10 28 9 32 -7 32 -9 0 -32 15 -50
34 -27 28 -30 34 -16 40 9 3 21 4 26 0 19 -11 8 13 -15 35 -14 14 -30 20 -37
16 -7 -5 -19 1 -29 15 -13 17 -28 23 -62 24 -25 1 -57 10 -72 19 -14 9 -35 17
-46 17 -11 0 -37 7 -57 15 -39 17 -68 13 -77 -10 -8 -21 -20 -19 -56 11 -30
26 -31 26 -52 8 l-21 -19 7 37 c6 31 3 39 -14 48 -12 6 -25 22 -30 36 -10 25
-52 34 -65 14 -3 -5 -15 -10 -25 -10 -13 0 -17 -5 -14 -15 4 -9 1 -15 -7 -15
-23 1 -56 33 -63 63 -6 26 -5 27 21 22 25 -6 26 -5 8 6 -27 16 -47 39 -64 71
-15 30 -44 44 -63 31 -7 -4 -22 -6 -33 -4 -16 3 -17 1 -6 -13 19 -22 9 -29
-23 -17 -24 10 -26 8 -26 -14 0 -16 -6 -25 -15 -25 -8 0 -15 -4 -15 -10 0 -5
-16 -2 -35 7 -19 9 -35 24 -35 33 0 9 -11 22 -25 28 -23 11 -25 16 -20 46 4
19 4 43 1 54 -8 25 -70 55 -96 47 -11 -4 -20 -2 -20 3 0 19 -33 22 -46 5 -7
-10 -14 -13 -14 -7 0 14 -129 17 -146 3 -20 -17 -45 0 -38 27 4 16 1 26 -10
30 -11 4 -14 16 -12 45 3 31 0 42 -16 53 -15 11 -19 21 -14 43 3 15 2 35 -4
43 -6 10 -10 11 -10 3 0 -7 -5 -13 -11 -13 -6 0 -8 8 -4 19 3 10 3 26 -1 35
-7 17 -64 52 -64 39 0 -4 -7 2 -15 13 -8 10 -15 33 -15 49 0 23 -13 45 -50 84
-49 52 -59 77 -41 96 6 6 4 25 -5 50 -21 60 -19 77 9 70 25 -7 53 16 43 34 -4
6 4 28 18 49 16 26 21 43 15 53 -7 11 -9 11 -9 -3 0 -12 -8 -18 -25 -18 -14 0
-29 -8 -35 -20 -6 -11 -16 -18 -22 -14 -6 4 -25 7 -42 6 -21 -1 -40 8 -58 25
-16 15 -28 21 -28 15 0 -7 -6 -12 -12 -12 -19 0 -120 43 -148 63 -13 9 -31 17
-40 17 -8 1 -46 12 -85 25 -57 19 -73 30 -85 54 -8 17 -24 34 -34 37 -11 4
-31 20 -46 36 -29 31 -99 55 -101 34 0 -6 -7 4 -15 22 -12 28 -17 32 -29 22
-8 -6 -19 -9 -25 -5 -5 3 -10 -1 -10 -9 0 -20 -17 -29 -51 -28 -16 0 -29 -5
-29 -11 0 -8 -4 -7 -9 2 -8 12 -12 12 -26 -2 -9 -10 -23 -17 -31 -17 -8 0 -14
-4 -14 -9 0 -14 -42 -18 -62 -6 -13 7 -24 6 -38 -2 -12 -8 -21 -9 -25 -3 -3 6
-16 10 -28 11 l-22 0 22 11 c27 13 37 36 22 54 -6 8 -8 14 -3 14 5 0 1 7 -10
15 -10 8 -20 27 -21 42 -4 45 -15 67 -41 86 -28 21 -59 15 -50 -8 3 -9 -3 -19
-15 -25 -14 -8 -18 -17 -14 -31 12 -36 -23 -21 -82 36 -43 42 -60 52 -70 43
-7 -6 -13 -17 -13 -24 0 -16 -16 -19 -24 -5 -3 5 -15 7 -25 4 -13 -3 -29 4
-45 20 -16 16 -39 27 -63 29 -33 3 -38 7 -50 45 -10 29 -19 40 -29 36 -8 -3
-20 -1 -27 4 -6 5 -21 7 -32 5z m3377 -2277 c20 -10 34 -23 32 -30 -3 -7 1
-15 9 -18 10 -4 17 2 20 14 5 17 9 19 26 9 12 -6 21 -21 21 -35 0 -13 5 -27
10 -30 15 -9 41 -76 34 -87 -3 -5 3 -19 15 -32 25 -27 18 -65 -13 -67 -11 -1
-33 -3 -48 -5 -16 -1 -28 0 -29 4 -6 73 -5 82 8 82 8 0 11 5 8 11 -6 9 -11 30
-19 84 -1 12 -12 21 -25 23 -13 2 -26 12 -28 23 -6 23 -23 25 -23 4 0 -12 -4
-13 -19 -6 -15 8 -20 7 -24 -8 -2 -11 0 -24 5 -29 6 -6 6 -12 -1 -16 -5 -4
-17 9 -27 29 -9 19 -20 37 -24 40 -3 2 -5 17 -2 33 3 24 8 28 30 27 15 -1 43
-10 64 -20z m258 -105 c0 -5 -2 -10 -4 -10 -3 0 -8 5 -11 10 -3 6 -1 10 4 10
6 0 11 -4 11 -10z m-5549 -213 c-13 -13 -26 -3 -16 12 3 6 11 8 17 5 6 -4 6
-10 -1 -17z m-171 -7 c0 -5 -4 -10 -10 -10 -5 0 -10 5 -10 10 0 6 5 10 10 10
6 0 10 -4 10 -10z m648 -284 c-24 -12 -38 3 -15 15 9 6 18 20 18 32 1 17 3 15
8 -8 5 -23 3 -32 -11 -39z m5589 -48 c-3 -8 -6 -5 -6 6 -1 11 2 17 5 13 3 -3
4 -12 1 -19z m-5877 -29 c0 -6 -4 -7 -10 -4 -5 3 -10 11 -10 16 0 6 5 7 10 4
6 -3 10 -11 10 -16z m5876 -16 c-10 -10 -19 5 -10 18 6 11 8 11 12 0 2 -7 1
-15 -2 -18z m14 -60 c0 -26 -4 -29 -50 -36 -34 -6 -34 -6 -7 5 19 9 26 17 21
30 -7 22 17 51 28 34 4 -6 8 -21 8 -33z m-51 -120 c6 -10 11 -12 11 -5 0 6 7
12 16 12 11 0 14 -5 10 -16 -3 -9 -6 -18 -6 -20 0 -2 -8 -4 -18 -4 -21 0 -56
33 -45 43 11 11 21 8 32 -10z m-5855 -94 c-3 -5 -10 -7 -15 -3 -5 3 -7 10 -3
15 3 5 10 7 15 3 5 -3 7 -10 3 -15z m-574 -130 c0 -6 -4 -7 -10 -4 -5 3 -10
11 -10 16 0 6 5 7 10 4 6 -3 10 -11 10 -16z m638 -8 c3 -8 -1 -12 -9 -9 -7 2
-15 10 -17 17 -3 8 1 12 9 9 7 -2 15 -10 17 -17z m32 -2 c0 -6 -4 -7 -10 -4
-5 3 -10 11 -10 16 0 6 5 7 10 4 6 -3 10 -11 10 -16z m-659 -66 c-9 -16 -10
-14 -11 12 0 21 3 26 11 18 8 -8 8 -16 0 -30z m556 -2 c10 -15 9 -22 -2 -31
-8 -7 -15 -21 -15 -31 0 -19 -23 -25 -53 -13 -12 4 -12 10 2 40 8 18 21 34 28
34 7 0 13 5 13 10 0 16 14 11 27 -9z m-477 -20 c0 -4 -9 -7 -20 -7 -11 0 -20
1 -20 2 0 1 3 10 6 18 5 13 9 14 20 5 8 -6 14 -14 14 -18z m-120 -31 c0 -18
-3 -19 -20 -10 -11 6 -20 15 -20 20 0 6 9 10 20 10 13 0 20 -7 20 -20z m4925
-159 c3 -5 1 -12 -4 -15 -5 -3 -11 1 -15 9 -6 16 9 21 19 6z m-885 -42 c0 -18
-18 -9 -23 12 -4 16 -3 18 9 8 8 -6 14 -15 14 -20z m936 10 c9 -16 -13 -27
-43 -21 l-26 5 24 13 c30 16 36 17 45 3z m-1098 -64 c-3 -3 -9 2 -12 12 -6 14
-5 15 5 6 7 -7 10 -15 7 -18z m2 -25 c0 -5 -2 -10 -4 -10 -3 0 -8 5 -11 10 -3
6 -1 10 4 10 6 0 11 -4 11 -10z m528 -21 c-2 -6 -8 -10 -13 -10 -5 0 -11 4
-13 10 -2 6 4 11 13 11 9 0 15 -5 13 -11z m-65 -21 c9 -31 0 -39 -28 -26 -28
13 -30 19 -13 36 18 18 35 14 41 -10z m-2928 -1628 c3 -5 2 -10 -4 -10 -5 0
-13 5 -16 10 -3 6 -2 10 4 10 5 0 13 -4 16 -10z"/>
<path d="M14270 12562 c0 -11 5 -24 10 -27 6 -4 9 2 7 14 -4 29 -17 39 -17 13z"/>
<path d="M12740 11680 c0 -5 4 -10 9 -10 6 0 13 5 16 10 3 6 -1 10 -9 10 -9 0
-16 -4 -16 -10z"/>
<path d="M12665 11661 c-3 -5 -1 -12 4 -15 13 -8 42 4 35 15 -7 12 -31 12 -39
0z"/>
<path d="M11320 11510 c-11 -11 -24 -20 -28 -20 -14 0 -7 -57 9 -76 12 -16 12
-17 -4 -11 -10 4 -26 1 -36 -5 -17 -11 -18 -14 -4 -34 8 -13 12 -28 8 -34 -3
-5 1 -10 10 -10 8 0 18 7 22 16 4 10 13 14 28 10 18 -5 24 0 33 31 8 25 8 41
2 47 -14 14 -13 22 7 41 16 16 16 18 0 27 -10 5 -15 13 -12 18 12 19 -16 19
-35 0z"/>
<path d="M12130 11036 c0 -7 6 -18 13 -24 10 -8 13 -6 13 8 0 11 -6 22 -13 24
-7 3 -13 -1 -13 -8z"/>
<path d="M12116 10984 c-4 -9 -2 -22 4 -28 15 -15 12 -29 -5 -22 -8 3 -15 1
-15 -5 0 -6 -9 -8 -20 -4 -11 4 -20 2 -20 -4 0 -6 7 -11 15 -11 23 0 18 -17
-7 -24 -20 -5 -17 -8 26 -30 27 -14 53 -23 58 -20 4 3 8 0 8 -5 0 -6 4 -11 9
-11 10 0 21 57 12 65 -13 13 -10 50 6 67 15 17 15 20 3 28 -8 5 -23 7 -34 4
-10 -4 -22 -1 -26 6 -5 8 -9 7 -14 -6z"/>
<path d="M6615 10510 c-8 -13 -1 -24 14 -19 6 3 7 10 2 18 -6 10 -10 10 -16 1z"/>
<path d="M6564 10468 c6 -10 21 -18 33 -18 43 0 20 34 -23 35 -18 1 -20 -2
-10 -17z"/>
<path d="M14960 10309 c0 -14 -5 -19 -14 -16 -20 8 -27 -3 -16 -24 7 -12 6
-19 -3 -22 -20 -6 10 -35 41 -39 15 -2 27 -9 27 -16 0 -7 19 -24 43 -38 l42
-25 0 30 c0 17 5 51 12 76 11 39 10 48 -2 55 -19 12 -33 13 -26 1 8 -13 -28
-20 -48 -9 -11 6 -15 16 -11 29 5 15 1 19 -19 19 -20 0 -26 -5 -26 -21z"/>
<path d="M15080 10090 c0 -5 5 -10 11 -10 5 0 7 5 4 10 -3 6 -8 10 -11 10 -2
0 -4 -4 -4 -10z"/>
<path d="M6475 10070 c3 -5 13 -10 21 -10 8 0 14 5 14 10 0 6 -9 10 -21 10
-11 0 -17 -4 -14 -10z"/>
<path d="M15134 10067 c-11 -6 -28 -23 -36 -38 -19 -33 -7 -42 44 -32 23 4 34
2 43 -10 10 -14 18 -15 43 -6 l30 10 -20 35 c-30 52 -59 63 -104 41z"/>
<path d="M15256 10031 c-3 -5 1 -14 8 -20 16 -13 32 2 21 19 -8 12 -22 13 -29
1z"/>
<path d="M6550 10015 c0 -10 -14 -17 -40 -21 -23 -4 -40 -12 -40 -20 0 -7 -13
-28 -30 -46 -16 -18 -30 -40 -30 -50 0 -9 -4 -20 -10 -23 -5 -3 -10 -19 -10
-35 0 -19 -7 -33 -20 -40 -14 -8 -19 -17 -15 -30 3 -10 8 -49 10 -87 2 -37 7
-78 11 -91 l6 -22 24 26 c14 14 22 29 19 34 -3 4 2 13 10 20 17 14 21 85 5 95
-17 11 -11 25 11 25 20 0 21 4 17 45 -5 44 -5 45 23 45 21 0 29 -5 29 -17 0
-13 3 -14 12 -5 9 9 9 18 0 37 -16 34 -15 38 5 31 17 -7 53 24 53 47 0 7 5 18
12 25 12 12 11 13 -32 16 -10 1 -14 10 -12 29 1 15 0 27 -3 27 -3 0 -5 -7 -5
-15z"/>
<path d="M5330 9346 c0 -9 40 -13 46 -5 3 5 -6 9 -20 9 -14 0 -26 -2 -26 -4z"/>
<path d="M5306 9321 c-3 -5 0 -14 8 -20 11 -9 15 -8 20 5 3 8 6 18 6 20 0 8
-29 4 -34 -5z"/>
<path d="M10967 9159 c4 -13 8 -18 11 -10 2 7 -1 18 -6 23 -8 8 -9 4 -5 -13z"/>
<path d="M11084 9105 c3 -9 6 -21 6 -26 0 -5 6 -9 13 -9 21 0 13 44 -8 49 -13
2 -16 -1 -11 -14z"/>
<path d="M10823 9044 c-22 -23 -15 -51 12 -58 21 -5 32 0 55 26 16 17 27 34
24 37 -9 9 -38 7 -46 -3 -4 -6 -12 -5 -20 1 -9 8 -16 7 -25 -3z"/>
<path d="M6570 8986 c0 -13 25 -46 35 -46 8 0 -9 35 -22 48 -11 11 -13 11 -13
-2z"/>
<path d="M11164 8934 c3 -8 6 -20 6 -25 0 -6 5 -7 10 -4 15 10 12 32 -6 39
-12 5 -15 2 -10 -10z"/>
<path d="M10477 8934 c-3 -3 -1 -17 5 -30 8 -18 7 -34 -6 -68 -14 -36 -15 -49
-6 -66 7 -12 9 -33 6 -46 -4 -13 -3 -24 1 -24 5 0 15 -4 23 -10 12 -7 10 -13
-13 -34 -18 -16 -25 -31 -20 -42 4 -11 -2 -22 -17 -34 -19 -14 -21 -20 -11
-38 7 -14 8 -23 1 -27 -6 -4 -8 -11 -4 -16 3 -5 10 -7 15 -4 5 4 14 -5 21 -19
14 -32 54 -35 91 -6 31 25 33 25 40 -1 3 -12 10 -18 15 -15 5 3 17 -9 26 -27
8 -17 16 -26 16 -18 0 8 3 11 6 8 4 -3 15 -2 26 4 13 7 23 7 32 -1 9 -7 22 -7
38 -1 27 10 31 41 9 81 -18 31 -23 70 -9 70 5 0 7 9 3 19 -5 16 -2 18 17 14
13 -3 35 -15 50 -25 23 -16 27 -16 22 -4 -4 9 -1 23 6 30 8 11 9 20 0 36 -12
23 -6 40 15 40 16 0 29 31 17 39 -5 3 -12 16 -16 29 -5 14 -15 22 -30 22 -12
0 -27 5 -34 12 -9 9 -18 8 -37 -2 -21 -11 -30 -12 -45 -2 -25 15 -47 15 -53 0
-3 -9 -11 -7 -27 9 -21 20 -21 23 -7 43 14 20 14 25 0 46 -12 19 -19 22 -34
14 -14 -8 -23 -6 -39 10 -11 11 -20 25 -20 30 0 11 -63 14 -73 4z m355 -216
c-9 -9 -12 -7 -12 12 0 19 3 21 12 12 9 -9 9 -15 0 -24z"/>
<path d="M7918 8752 c-14 -3 -16 -8 -8 -21 5 -10 7 -21 4 -24 -4 -3 3 -18 15
-33 13 -17 19 -34 15 -49 -4 -18 2 -29 30 -50 20 -15 33 -31 31 -36 -3 -4 4
-13 15 -19 17 -9 19 -14 9 -26 -9 -11 -8 -14 8 -14 17 0 19 5 15 28 -5 25 -4
26 14 12 18 -14 18 -14 5 2 -7 10 -11 25 -7 33 3 9 0 15 -9 15 -8 0 -15 7 -15
16 0 8 -5 12 -10 9 -15 -9 -40 14 -33 30 14 37 -47 135 -79 127z"/>
<path d="M8470 8510 c0 -19 3 -21 12 -12 9 9 9 15 0 24 -9 9 -12 7 -12 -12z"/>
<path d="M8581 8438 c-1 -10 -11 -20 -23 -23 -25 -6 -48 -46 -48 -82 0 -13 -7
-26 -15 -30 -14 -5 -14 -8 -2 -22 12 -14 12 -21 0 -49 -7 -18 -23 -36 -35 -41
-14 -5 -17 -10 -10 -15 7 -4 12 -16 12 -27 0 -24 -49 -119 -61 -119 -14 0 -10
-53 6 -74 17 -23 12 -34 -22 -47 -21 -8 -24 -14 -19 -35 4 -15 3 -23 -2 -20
-6 3 -15 -1 -22 -9 -10 -12 -9 -15 8 -15 11 0 23 7 26 16 9 25 41 13 41 -16 0
-33 39 -40 66 -11 22 24 28 25 63 11 23 -8 26 -7 26 10 0 15 9 22 30 27 25 5
28 8 18 20 -8 9 -8 17 -2 21 6 4 18 26 27 49 14 36 14 42 2 47 -8 3 -15 2 -15
-3 0 -12 -49 -20 -56 -10 -2 5 -13 1 -24 -9 -52 -47 -52 -47 -72 -22 -10 13
-17 29 -14 37 3 7 0 13 -6 13 -9 0 -9 3 0 12 9 9 7 14 -6 24 -15 12 -15 13 8
14 33 1 62 42 62 86 0 25 4 34 13 30 9 -3 20 11 32 40 10 24 23 44 28 44 26 1
37 17 26 39 -11 19 -9 21 14 21 14 0 34 9 45 20 17 17 18 23 8 46 -7 14 -14
21 -16 15 -10 -30 -70 -3 -85 39 -4 12 -6 12 -6 -2z"/>
<path d="M8666 8032 c-11 -10 -6 -22 9 -22 8 0 15 -8 15 -17 0 -13 2 -15 8 -5
5 7 16 10 24 7 11 -5 16 0 16 17 0 20 -6 24 -34 25 -18 1 -35 -2 -38 -5z"/>
<path d="M7689 6973 c-16 -19 -3 -43 23 -43 30 0 52 15 44 29 -4 6 -3 11 2 11
6 0 12 -7 16 -15 3 -8 15 -15 27 -15 15 0 19 4 15 16 -3 9 -6 18 -6 20 0 3 -5
2 -10 -1 -6 -4 -16 -2 -23 3 -18 14 -76 11 -88 -5z"/>
</g>
</svg>
