<?xml version="1.0" standalone="no"?>
<!DOCTYPE svg PUBLIC "-//W3C//DTD SVG 20010904//EN"
 "http://www.w3.org/TR/2001/REC-SVG-20010904/DTD/svg10.dtd">
<svg version="1.0" xmlns="http://www.w3.org/2000/svg"
 width="921.717662pt" height="430.575392pt" viewBox="0 0 921.717662 430.575392"
 preserveAspectRatio="xMidYMid meet">
<metadata>
Created by potrace 1.15, written by Peter Selinger 2001-2017
</metadata>
<g transform="translate(-604.333813,1237.000000) scale(0.100000,-0.100000)"
fill="#222222" stroke="none">
<path d="M11466 12356 c4 -11 1 -16 -12 -16 -16 0 -16 -2 4 -20 12 -11 24 -20
27 -20 12 0 4 48 -10 60 -13 11 -14 10 -9 -4z"/>
<path d="M11506 12355 c-3 -9 0 -15 9 -15 8 0 15 7 15 15 0 8 -4 15 -9 15 -5
0 -11 -7 -15 -15z"/>
<path d="M11456 12266 c-3 -13 -15 -26 -27 -29 -14 -4 -19 -11 -15 -24 7 -24
-17 -55 -37 -47 -11 4 -18 -2 -22 -19 -5 -17 -16 -27 -36 -31 -24 -5 -29 -10
-29 -35 0 -16 5 -33 10 -36 11 -7 -30 -45 -49 -45 -6 0 -11 -6 -11 -13 0 -23
-66 -50 -110 -44 -45 6 -50 -1 -20 -28 19 -17 19 -19 2 -31 -9 -7 -12 -14 -7
-14 6 0 16 5 22 11 14 14 47 4 38 -11 -3 -6 0 -13 8 -16 15 -5 9 -38 -13 -85
-4 -8 -3 -23 2 -33 7 -13 7 -21 -2 -26 -17 -10 -5 -27 31 -45 27 -14 29 -14
30 2 0 16 1 15 8 -2 9 -23 -13 -65 -34 -65 -8 0 -15 -10 -17 -22 -2 -18 -9
-23 -31 -21 -15 1 -27 1 -27 -1 0 -1 9 -20 19 -42 18 -36 19 -40 4 -51 -11 -8
-12 -13 -4 -13 7 0 9 -4 6 -10 -3 -5 0 -10 8 -10 8 0 17 9 20 20 3 11 12 20
21 20 10 0 16 9 16 24 0 16 7 27 20 31 11 4 18 11 14 16 -9 15 7 52 18 41 11
-11 83 -5 114 10 12 6 27 20 33 32 11 19 27 25 89 29 24 2 29 16 10 36 -11 10
-10 11 3 6 18 -7 29 19 29 66 0 14 5 30 11 36 10 10 -4 43 -48 109 -12 19 -13
28 -4 37 14 14 15 74 1 79 -5 2 -12 18 -16 36 -5 26 -3 32 11 32 13 0 16 6 11
24 -3 14 -1 36 5 50 13 28 3 120 -12 110 -5 -3 -16 -1 -23 5 -11 9 -15 6 -20
-13z"/>
<path d="M13533 11919 c-10 -38 -9 -41 14 -50 13 -5 26 -9 28 -9 9 0 -7 76
-18 87 -10 11 -15 5 -24 -28z"/>
<path d="M13576 11837 c3 -10 9 -15 12 -12 3 3 0 11 -7 18 -10 9 -11 8 -5 -6z"/>
<path d="M13558 11758 c-13 -46 -18 -53 -40 -53 -13 0 -25 -5 -25 -12 0 -7 4
-10 9 -7 25 16 -3 -82 -29 -101 -10 -7 -14 -19 -10 -29 4 -10 1 -16 -7 -16 -7
0 -21 -9 -31 -20 -10 -11 -24 -20 -32 -20 -7 0 -13 -9 -13 -20 0 -13 -7 -20
-19 -20 -10 0 -21 -6 -24 -13 -2 -7 -23 -22 -45 -32 -46 -23 -55 -47 -40 -103
14 -50 -5 -112 -34 -112 -17 0 -18 -2 -8 -15 7 -9 10 -18 7 -22 -4 -3 -2 -14
4 -24 7 -15 6 -17 -5 -13 -8 3 -28 -7 -46 -24 -27 -26 -29 -32 -16 -44 8 -8
16 -35 19 -59 2 -24 8 -52 12 -61 5 -13 3 -18 -8 -18 -8 0 -24 -18 -36 -39
l-20 -40 32 -9 c49 -14 118 -8 129 12 5 9 13 14 19 11 5 -4 9 2 9 11 0 13 12
6 41 -26 30 -32 43 -40 49 -30 12 19 61 15 77 -6 7 -10 13 -12 13 -6 0 21 40
13 65 -14 16 -17 31 -25 43 -22 11 3 30 -3 43 -13 34 -26 57 -24 65 7 6 23 10
25 44 19 31 -5 42 -2 68 22 36 31 39 48 15 75 -15 17 -15 18 5 18 25 0 30 28
7 36 -8 4 -15 10 -15 15 0 4 7 6 15 3 11 -4 13 -2 9 9 -3 9 -12 18 -20 21 -18
7 -18 26 -1 26 8 0 30 19 51 41 33 37 40 41 72 36 32 -5 35 -4 40 23 4 16 12
31 20 34 17 7 18 48 2 64 -7 7 -19 12 -28 12 -20 0 -53 34 -43 43 8 8 -52 67
-69 67 -8 1 -6 6 5 14 9 7 17 18 17 25 0 6 4 11 9 11 6 0 6 13 0 33 -5 17 -8
67 -7 109 3 75 2 78 -27 105 -29 26 -73 34 -59 11 4 -6 -1 -6 -14 1 -29 16
-54 4 -42 -19 8 -15 6 -17 -10 -13 -11 3 -20 0 -20 -6 0 -14 -76 -15 -85 -1
-4 6 -24 19 -46 31 -51 26 -57 43 -26 74 21 22 26 23 37 10 7 -8 16 -15 21
-15 16 0 9 30 -11 47 -11 10 -20 22 -20 28 0 5 -7 18 -14 28 -12 15 -15 12
-28 -35z"/>
<path d="M11071 11776 c11 -9 69 -15 64 -6 -3 6 -20 10 -37 10 -17 0 -29 -2
-27 -4z"/>
<path d="M13800 11725 c0 -9 6 -12 15 -9 8 4 12 10 9 15 -8 14 -24 10 -24 -6z"/>
<path d="M12249 11689 c-14 -19 -28 -28 -38 -24 -8 3 -12 3 -8 -1 13 -13 -15
-34 -47 -34 -20 0 -35 -7 -44 -20 -7 -11 -18 -17 -27 -14 -8 3 -30 -3 -48 -15
-19 -12 -41 -21 -50 -21 -16 0 -67 58 -67 77 0 5 -16 17 -35 26 -19 9 -35 12
-35 7 0 -6 -13 -10 -30 -10 -20 0 -35 8 -46 25 -9 14 -21 22 -27 18 -6 -3 -38
-9 -71 -12 -44 -4 -61 -10 -61 -21 0 -8 -10 -24 -22 -37 -13 -12 -23 -27 -23
-34 0 -7 -13 -10 -35 -7 -25 3 -35 0 -35 -9 0 -11 -5 -11 -21 -3 -14 8 -24 8
-33 1 -7 -6 -17 -7 -22 -3 -4 4 -2 -1 5 -10 12 -16 10 -19 -15 -29 -16 -7 -55
-14 -86 -17 -40 -3 -58 -9 -58 -18 0 -8 -8 -14 -19 -14 -14 0 -17 -6 -13 -25
3 -18 -3 -32 -21 -49 -23 -22 -28 -22 -46 -9 -12 8 -21 13 -22 11 0 -2 -2 -11
-4 -21 -5 -25 -15 -34 -15 -14 0 9 -4 17 -10 17 -5 0 -10 -4 -10 -10 0 -5 -9
-10 -20 -10 -11 0 -20 -7 -20 -15 0 -7 -7 -18 -16 -23 -13 -7 -8 -15 25 -45
23 -20 41 -43 41 -51 0 -18 -31 -30 -41 -15 -4 6 -11 9 -17 5 -6 -3 -13 0 -15
6 -4 8 -6 7 -6 -3 -1 -9 -12 -20 -26 -23 -16 -4 -22 -11 -19 -21 3 -8 0 -28
-7 -45 -11 -22 -21 -30 -40 -30 -15 0 -30 -7 -33 -16 -4 -10 -13 -13 -26 -10
-11 3 -29 8 -39 11 -16 5 -18 2 -14 -16 6 -21 4 -22 -45 -15 -36 5 -52 3 -52
-5 0 -7 -7 -8 -17 -4 -10 3 -40 11 -67 16 -27 5 -58 17 -69 27 -10 9 -29 16
-42 14 -13 -2 -26 2 -30 7 -3 6 -17 11 -29 11 -13 0 -29 6 -35 14 -7 8 -29 23
-49 34 -40 21 -37 22 -96 -35 -18 -18 -41 -33 -50 -33 -9 0 -16 -6 -15 -12 5
-42 -23 -50 -86 -24 l-34 15 35 -51 c19 -28 34 -58 32 -67 -1 -9 17 -35 40
-57 31 -31 42 -50 42 -72 0 -22 9 -36 34 -56 19 -14 41 -26 49 -26 8 0 20 -7
27 -15 14 -17 35 -21 25 -5 -3 6 1 7 10 4 8 -4 20 -15 26 -26 8 -15 14 -17 22
-9 14 14 40 15 32 1 -3 -5 1 -10 10 -10 8 0 18 7 21 15 5 12 11 10 33 -12 l26
-28 3 25 c6 39 16 42 48 12 45 -42 64 -73 64 -109 0 -26 6 -36 25 -45 16 -7
25 -19 25 -35 0 -12 5 -23 11 -23 6 0 8 7 4 18 -4 12 -3 14 5 6 7 -7 8 -27 4
-52 -5 -32 -11 -42 -25 -42 -23 0 -69 -21 -69 -32 0 -4 -11 -8 -25 -8 -14 0
-25 -4 -25 -9 0 -12 149 -9 168 3 9 5 12 21 10 43 -4 34 -3 35 66 70 65 31 78
34 143 31 64 -3 73 -1 77 16 5 18 7 19 23 4 30 -25 49 -27 61 -7 14 23 32 25
32 4 0 -17 34 -41 73 -50 21 -6 27 -4 27 9 0 20 9 20 34 1 22 -17 81 -21 71
-5 -11 18 43 11 77 -10 18 -11 40 -20 49 -20 22 0 41 -24 29 -36 -6 -6 3 -28
25 -62 20 -28 38 -65 41 -82 7 -32 14 -36 31 -19 7 7 17 0 32 -26 13 -22 27
-35 35 -32 7 3 19 0 26 -6 10 -10 10 -7 1 11 -13 25 -5 28 22 8 28 -22 106
-10 133 19 13 14 28 25 34 25 5 0 10 7 10 16 0 13 3 14 13 5 8 -6 17 -8 20 -4
4 3 7 1 7 -5 0 -5 -5 -12 -12 -14 -8 -3 -8 -9 0 -24 7 -12 12 -14 12 -5 0 27
40 -21 40 -49 0 -15 8 -35 19 -44 23 -21 86 -32 95 -17 4 6 18 11 31 11 13 0
27 5 31 11 4 7 21 9 46 5 52 -8 101 11 94 37 -4 16 0 18 20 13 13 -4 24 -3 24
1 1 16 29 44 48 48 27 5 60 27 67 43 3 7 0 22 -6 33 -14 26 8 47 58 55 35 5
39 9 35 29 -3 20 -1 22 31 19 48 -6 53 7 22 55 -14 23 -25 43 -25 47 0 16 79
-11 106 -37 17 -16 33 -27 36 -23 4 3 18 -2 32 -11 25 -17 26 -16 35 8 8 22
42 47 40 29 -3 -20 3 -32 16 -32 8 0 15 5 15 11 0 5 14 15 31 21 17 6 41 27
55 49 23 38 26 39 67 33 23 -3 47 -7 53 -9 6 -2 20 14 30 36 11 21 22 39 26
39 4 0 5 7 2 15 -7 16 21 22 30 6 3 -5 17 -8 31 -8 14 0 34 -8 44 -17 22 -20
31 -20 31 0 0 11 6 14 20 9 11 -4 20 -2 20 4 0 6 10 13 23 16 33 9 34 52 1 86
-15 15 -33 25 -40 22 -8 -3 -29 1 -46 8 -23 9 -33 10 -35 2 -3 -7 -11 -9 -19
-6 -8 3 -20 -1 -27 -10 -7 -8 -29 -17 -49 -20 -35 -5 -37 -4 -53 35 -9 22 -13
43 -10 46 2 3 -7 20 -21 39 -14 18 -20 33 -14 33 6 0 4 8 -6 17 -15 15 -18 15
-28 1 -10 -14 -15 -12 -40 13 -16 16 -33 29 -38 29 -5 0 -4 9 2 21 7 11 10 22
8 23 -2 1 -16 7 -31 14 -26 11 -28 15 -23 57 4 44 4 45 -25 45 -16 0 -29 -4
-29 -10 0 -5 -13 -10 -30 -10 -19 0 -30 -5 -30 -14 0 -8 -15 -16 -37 -19 -21
-3 -48 -9 -59 -12 -15 -5 -23 -1 -28 10 -5 13 -2 16 11 11 9 -4 19 -2 23 4 7
11 -10 73 -23 86 -16 16 -7 36 14 31 22 -6 25 -1 33 55 3 27 0 43 -11 54 -19
19 -6 50 21 48 11 -1 16 7 16 27 0 33 19 38 45 12 20 -19 44 -9 56 24 9 25
-22 63 -52 63 -31 0 -57 18 -74 49 -8 16 -31 38 -51 51 -28 16 -34 17 -24 5
13 -15 10 -20 -20 -46 -23 -18 -43 -27 -59 -24 -35 6 -38 14 -12 34 13 10 21
23 17 29 -3 6 -2 13 3 16 7 5 -4 81 -15 94 -8 11 -107 9 -140 -3 -21 -7 -46
-10 -54 -5 -8 4 -34 10 -57 13 -37 4 -44 2 -64 -24z m-1849 -803 c1 15 30 -29
30 -44 0 -11 -10 -13 -47 -7 -48 7 -88 27 -77 38 3 3 12 3 19 1 8 -3 19 4 25
16 11 21 12 21 31 4 10 -9 19 -13 19 -8z m2100 -51 c0 -8 -2 -15 -4 -15 -2 0
-6 7 -10 15 -3 8 -1 15 4 15 6 0 10 -7 10 -15z m7 -31 c-3 -3 -12 -4 -19 -1
-8 3 -5 6 6 6 11 1 17 -2 13 -5z m-984 -121 c6 -5 -21 -32 -33 -33 -3 0 -6 9
-7 20 -2 19 25 28 40 13z m1097 -32 c0 -17 -18 -21 -24 -6 -3 9 0 15 9 15 8 0
15 -4 15 -9z m-154 -68 c-4 -4 -11 -1 -16 7 -16 25 -11 35 7 17 9 -9 13 -20 9
-24z m-212 -62 c10 -16 -4 -38 -31 -50 -32 -15 -38 -9 -21 21 20 36 41 47 52
29z m16 -116 c7 -8 8 -15 2 -15 -5 0 -15 7 -22 15 -7 8 -8 15 -2 15 5 0 15 -7
22 -15z"/>
<path d="M13828 11703 c7 -3 16 -2 19 1 4 3 -2 6 -13 5 -11 0 -14 -3 -6 -6z"/>
<path d="M13787 11659 c7 -7 15 -10 18 -7 3 3 -2 9 -12 12 -14 6 -15 5 -6 -5z"/>
<path d="M13080 11464 c0 -8 -9 -23 -20 -34 -16 -16 -25 -18 -40 -10 -12 7
-21 7 -25 0 -9 -14 -52 -12 -58 3 -4 9 -6 8 -6 -2 -1 -23 -33 -40 -53 -30 -13
7 -16 6 -12 -4 3 -10 -5 -14 -29 -15 -19 -1 -47 -6 -63 -13 -27 -10 -27 -12
-9 -19 12 -4 31 -2 45 5 14 7 31 10 39 7 8 -2 18 3 23 11 7 13 14 14 36 6 14
-6 30 -15 33 -21 4 -6 22 -11 41 -11 18 0 41 -7 51 -16 24 -20 77 -24 77 -5 0
8 9 14 20 14 11 0 20 5 20 10 0 6 3 9 8 9 43 -7 62 38 33 78 -18 25 -31 32
-78 43 -25 6 -33 5 -33 -6z"/>
<path d="M13234 11452 c-16 -2 -20 -8 -16 -28 6 -30 22 -42 22 -15 0 10 5 21
12 23 19 7 4 23 -18 20z"/>
<path d="M6141 11114 c0 -11 3 -14 6 -6 3 7 2 16 -1 19 -3 4 -6 -2 -5 -13z"/>
<path d="M6120 11074 c0 -23 35 -74 51 -74 10 0 -9 42 -35 75 -15 20 -15 20
-16 -1z"/>
<path d="M6045 11050 c3 -5 8 -10 11 -10 2 0 4 5 4 10 0 6 -5 10 -11 10 -5 0
-7 -4 -4 -10z"/>
<path d="M6286 10964 c-3 -8 -12 -11 -21 -8 -9 4 -3 -8 14 -26 28 -31 31 -32
70 -23 43 11 57 6 106 -43 13 -13 30 -24 37 -24 20 0 -74 90 -112 107 -65 28
-88 32 -94 17z"/>
<path d="M6764 10845 c-5 -11 -22 -15 -67 -15 -42 0 -66 -5 -78 -16 -15 -13
-24 -14 -50 -5 -18 6 -38 11 -45 11 -16 0 -12 -64 7 -86 11 -14 12 -18 1 -22
-11 -3 -11 -7 1 -21 8 -9 19 -54 25 -100 11 -75 10 -85 -5 -96 -22 -16 -8 -35
28 -35 16 0 28 -3 27 -7 -2 -5 8 -19 21 -32 14 -14 20 -26 14 -28 -6 -2 -9
-13 -6 -24 4 -14 1 -18 -10 -14 -10 4 -16 -2 -19 -19 -3 -14 -1 -26 3 -26 5 0
9 -7 9 -15 0 -9 9 -15 24 -15 13 0 29 -7 37 -16 23 -28 87 -54 133 -54 40 0
47 4 60 29 14 26 19 28 48 21 44 -9 82 11 97 52 7 18 17 41 22 50 13 25 11 38
-6 38 -8 0 -15 9 -15 20 0 11 7 20 15 20 9 0 21 11 27 25 10 23 13 24 29 9 10
-9 22 -13 28 -10 5 3 22 1 37 -4 21 -8 31 -7 45 6 25 23 24 27 -10 47 -17 10
-33 26 -36 37 -4 11 -17 23 -31 26 -13 3 -24 10 -24 14 0 4 -16 17 -35 29 -20
11 -39 29 -43 38 -4 10 -13 18 -21 18 -21 0 -35 63 -22 92 10 21 8 25 -17 34
-15 6 -37 20 -49 31 -18 17 -31 20 -68 16 -25 -3 -45 -2 -45 3 0 15 -30 10
-36 -6z"/>
<path d="M7838 10823 c-6 -8 -17 -12 -23 -9 -8 3 -15 -7 -18 -23 -5 -22 -13
-30 -38 -35 -40 -8 -59 -23 -59 -47 0 -12 -11 -24 -27 -32 -16 -6 -31 -16 -35
-21 -4 -6 -13 -5 -22 3 -20 17 -20 31 -1 31 28 0 15 20 -22 35 -29 12 -38 13
-44 3 -4 -7 -3 -16 4 -20 7 -4 8 -8 3 -8 -6 0 -5 -5 2 -12 19 -19 14 -26 -13
-21 -28 6 -56 33 -34 33 11 0 11 2 -1 9 -20 13 -31 4 -25 -22 6 -22 -25 -67
-45 -67 -5 0 -7 -7 -4 -15 7 -17 -11 -21 -22 -4 -6 10 -14 0 -45 -58 -7 -13
-18 -23 -26 -23 -7 0 -13 -6 -13 -14 0 -8 -8 -15 -17 -15 -67 -1 -88 -7 -91
-28 -3 -23 5 -37 46 -78 30 -31 28 -38 -10 -30 -33 7 -33 7 -14 -14 15 -16 16
-24 7 -35 -9 -11 -5 -16 19 -26 35 -15 36 -19 12 -51 -12 -16 -18 -37 -16 -61
3 -42 9 -39 -91 -42 -43 -1 -67 3 -84 16 -17 13 -28 15 -42 8 -13 -8 -29 -6
-55 5 -21 8 -39 13 -42 10 -3 -3 -10 -1 -16 4 -18 15 -83 24 -90 13 -3 -6 -1
-14 5 -18 8 -4 9 -3 5 4 -11 17 9 15 24 -3 9 -11 9 -15 1 -15 -7 0 -9 -4 -6
-10 8 -14 48 -13 63 2 13 13 38 -3 47 -31 3 -10 17 -24 30 -31 14 -7 25 -19
25 -26 0 -6 7 -14 15 -18 9 -3 15 0 15 9 0 8 4 15 9 15 12 0 24 -37 16 -50 -3
-5 -2 -10 3 -10 5 0 10 -12 10 -27 0 -14 7 -32 16 -38 14 -11 12 -15 -16 -38
-28 -24 -30 -29 -20 -52 7 -14 12 -57 12 -95 0 -40 4 -70 10 -70 6 0 10 -4 10
-10 0 -5 -8 -10 -18 -10 -25 0 -58 -37 -54 -61 2 -14 -3 -19 -18 -19 -17 0
-19 -3 -10 -20 20 -37 -50 -51 -84 -17 -23 23 -28 22 -64 -13 -18 -16 -36 -30
-41 -30 -5 0 -11 -9 -14 -20 -3 -11 -13 -20 -22 -20 -12 0 -16 -8 -13 -32 3
-29 0 -33 -20 -32 l-23 1 21 -21 c17 -18 22 -19 30 -7 7 12 11 9 21 -12 11
-25 9 -32 -20 -74 -25 -34 -29 -48 -20 -54 7 -4 17 -5 21 -3 4 3 15 1 25 -4
11 -7 26 -4 50 9 27 15 38 17 54 8 11 -6 27 -8 34 -5 16 6 27 -17 19 -39 -7
-17 -34 -21 -34 -4 0 5 -4 7 -10 4 -14 -9 -12 -51 3 -63 24 -20 65 -24 88 -9
12 9 28 13 35 10 10 -4 14 4 14 26 0 17 5 31 10 31 6 0 9 -3 8 -7 -4 -14 22
-53 35 -53 20 0 100 -41 93 -47 -7 -7 12 -43 24 -43 5 0 11 8 15 19 5 16 11
18 41 11 20 -5 42 -17 50 -27 12 -16 15 -16 24 -3 9 12 10 12 8 -5 -2 -16 2
-19 21 -17 24 2 41 -12 41 -35 0 -7 -7 -10 -16 -6 -12 4 -14 0 -8 -21 5 -20 2
-26 -10 -26 -13 0 -15 -6 -10 -27 4 -16 11 -37 17 -47 8 -17 10 -18 18 -3 5 9
16 14 23 11 8 -3 22 6 32 19 18 22 21 23 52 10 17 -7 32 -18 32 -23 0 -6 16
-10 35 -10 24 0 35 5 35 15 0 9 6 12 15 9 9 -4 15 0 16 7 0 8 2 35 4 61 3 32
-1 50 -11 58 -7 7 -14 19 -14 26 0 8 -4 14 -8 14 -5 0 -9 14 -10 30 -1 27 2
30 24 26 24 -5 33 7 14 19 -5 3 -10 1 -10 -6 0 -30 -24 12 -27 48 -2 21 -13
47 -24 59 -23 25 -25 52 -3 61 8 3 13 12 10 19 -3 8 1 14 9 14 11 0 15 13 15
50 0 44 3 52 25 62 14 6 25 18 25 27 0 9 7 27 16 39 14 20 14 23 -2 29 -14 5
-14 8 6 23 14 11 23 29 24 51 1 22 7 35 17 37 9 2 22 20 29 42 11 34 30 49 61
50 10 0 30 -51 24 -61 -4 -5 -1 -9 4 -9 6 0 11 9 11 20 0 11 4 20 9 20 5 0 13
-9 16 -20 4 -12 15 -20 28 -20 20 0 22 6 24 60 2 46 -1 60 -12 60 -8 0 -17 5
-20 11 -4 6 4 9 22 7 22 -2 28 1 27 15 -1 9 1 17 5 17 12 0 12 93 -1 101 -7 4
-9 11 -5 15 3 4 13 1 22 -6 10 -8 15 -9 15 -1 0 6 11 11 24 11 35 0 39 45 8
84 -13 16 -20 36 -17 46 4 13 -2 20 -22 26 -15 4 -32 8 -38 8 -5 1 -13 6 -17
11 -9 13 -141 13 -150 0 -4 -5 -14 6 -22 25 -8 19 -18 39 -23 43 -4 5 -8 12
-9 15 0 4 -6 19 -12 34 -12 28 -7 58 9 58 5 0 9 4 9 9 0 6 -10 8 -22 6 -12 -3
-34 3 -48 12 -14 10 -31 16 -37 15 -15 -3 -17 24 -3 33 6 3 10 12 10 18 0 7
-7 4 -14 -6 -13 -16 -19 -17 -54 -6 -30 8 -41 18 -45 35 -2 13 0 24 4 24 5 0
9 12 9 26 l0 25 26 -28 c18 -20 24 -23 20 -9 -5 13 -2 17 9 12 8 -3 21 -9 29
-12 20 -8 96 76 117 128 11 29 22 42 33 40 16 -3 20 12 16 51 -1 9 2 17 7 16
30 -5 55 2 50 15 -3 8 1 20 9 26 8 7 14 18 14 25 0 7 6 18 14 24 8 7 12 20 9
30 -6 24 -49 33 -65 14z m-238 -333 c0 -5 -8 -10 -17 -10 -15 0 -16 2 -3 10
19 12 20 12 20 0z m-300 -201 c0 -6 -4 -7 -10 -4 -5 3 -10 11 -10 16 0 6 5 7
10 4 6 -3 10 -11 10 -16z m437 -114 c0 -10 -6 -14 -14 -10 -8 3 -17 5 -19 5
-3 0 -2 5 1 10 10 16 32 12 32 -5z m133 -95 c0 -5 -5 -10 -11 -10 -5 0 -7 5
-4 10 3 6 8 10 11 10 2 0 4 -4 4 -10z m-673 -462 c-3 -8 -6 -5 -6 6 -1 11 2
17 5 13 3 -3 4 -12 1 -19z m-40 -414 c1 -5 -2 -16 -7 -24 -11 -17 -24 -7 -35
27 -6 20 -4 22 16 14 13 -4 24 -12 26 -17z m317 -103 c9 -11 8 -13 -4 -9 -8 2
-16 18 -17 34 -1 18 0 22 4 9 3 -11 10 -26 17 -34z m126 -48 c0 -11 -7 -14
-24 -9 -15 4 -28 0 -36 -9 -7 -8 -9 -15 -5 -15 5 0 6 -2 3 -5 -7 -8 -58 16
-58 27 0 11 17 10 25 -2 7 -11 28 -14 22 -2 -3 4 -1 17 4 29 7 20 11 21 39 12
16 -6 30 -18 30 -26z m30 -19 c0 -8 -4 -12 -10 -9 -5 3 -10 10 -10 16 0 5 5 9
10 9 6 0 10 -7 10 -16z"/>
<path d="M9944 10740 c-12 -5 -25 -14 -29 -20 -5 -7 -21 -9 -47 -5 -39 7 -39
6 -28 -15 9 -17 8 -26 -5 -47 -12 -18 -14 -28 -6 -36 8 -8 11 -7 11 2 0 8 7
10 19 6 21 -6 71 38 97 88 18 34 16 37 -12 27z"/>
<path d="M7655 10721 c-3 -5 -1 -12 5 -16 5 -3 10 1 10 9 0 18 -6 21 -15 7z"/>
<path d="M10410 10705 c7 -8 16 -12 21 -9 13 8 1 24 -18 24 -13 0 -13 -3 -3
-15z"/>
<path d="M13590 10697 c0 -4 -20 -6 -45 -5 -34 1 -53 -4 -73 -20 -15 -12 -37
-26 -48 -31 -12 -5 -34 -21 -50 -36 -16 -14 -41 -29 -56 -32 -32 -6 -34 -16
-13 -67 10 -24 22 -36 35 -36 12 0 36 -7 55 -14 32 -14 35 -13 35 2 1 13 6 11
25 -11 19 -21 22 -32 16 -50 -9 -23 -1 -90 9 -86 14 6 90 -13 90 -22 0 -6 -8
-8 -17 -5 -16 5 -16 4 1 -8 24 -20 10 -68 -24 -76 -21 -5 -21 -7 -6 -19 19
-16 14 -41 -15 -83 -11 -14 -19 -36 -19 -47 0 -12 -5 -21 -10 -21 -7 0 -7 -6
-1 -18 5 -10 10 -41 9 -68 0 -54 19 -111 45 -133 10 -7 17 -28 17 -45 0 -17 7
-39 15 -50 10 -13 11 -24 5 -37 -13 -24 -13 -25 12 -49 19 -18 21 -24 11 -50
-8 -23 -8 -32 0 -37 7 -5 21 -25 32 -47 11 -21 28 -41 37 -43 9 -3 22 -18 28
-33 12 -29 59 -56 82 -47 7 2 20 1 29 -4 8 -4 58 -10 111 -13 82 -4 97 -3 102
11 4 9 9 13 13 10 3 -4 12 1 19 11 12 16 14 16 36 -5 28 -27 68 -31 68 -7 0
10 6 14 14 11 8 -3 17 1 20 9 3 9 10 13 15 9 5 -3 13 -1 16 5 5 8 11 8 20 0 9
-8 14 -5 18 10 6 24 58 51 64 33 3 -8 12 -9 27 -3 37 14 104 1 112 -22 8 -26
47 -39 95 -32 30 5 44 2 59 -11 11 -10 20 -22 20 -27 0 -18 100 -107 114 -102
8 3 24 -7 37 -25 13 -17 31 -31 40 -31 13 0 19 -11 24 -44 6 -37 12 -47 36
-56 16 -7 30 -18 30 -24 1 -6 2 -18 3 -26 0 -8 12 -17 26 -20 14 -3 26 -10 26
-15 6 -39 19 -54 52 -61 21 -4 43 -6 50 -5 6 1 12 -5 12 -14 0 -9 7 -18 15
-21 18 -7 47 14 39 27 -7 12 3 11 27 -1 15 -9 19 -7 19 5 0 9 -4 14 -9 11 -12
-8 -34 21 -26 33 3 6 1 19 -5 30 -7 14 -7 22 1 26 6 4 8 13 5 20 -2 7 0 17 5
22 16 16 -1 91 -22 96 -11 3 -19 12 -19 21 0 9 -5 16 -11 16 -6 0 -9 12 -7 27
2 22 -3 30 -24 41 -32 15 -37 32 -10 32 17 1 62 32 62 44 0 4 11 24 25 46 14
22 25 46 25 55 0 19 46 49 61 39 9 -5 10 0 6 17 -20 72 -20 100 1 128 26 35
28 49 14 84 -7 17 -19 27 -32 27 -29 0 -100 23 -100 33 0 4 -11 18 -25 31 -22
20 -24 28 -15 50 8 21 7 26 -5 26 -8 0 -15 5 -15 10 0 6 -7 10 -16 10 -13 0
-14 3 -5 14 9 11 9 16 0 21 -6 4 -15 1 -20 -6 -8 -12 -10 -12 -18 0 -11 18
-41 7 -41 -15 0 -12 -5 -14 -17 -9 -10 5 -29 8 -43 9 -19 1 -25 -4 -25 -19 0
-22 -25 -65 -38 -65 -4 0 -17 9 -29 20 -20 19 -21 20 -2 26 27 10 60 45 69 72
6 21 4 23 -14 17 -17 -5 -21 -2 -21 14 0 12 -4 21 -9 21 -4 0 -24 19 -42 43
-35 43 -61 51 -116 33 -14 -4 -31 -1 -45 8 -13 8 -41 22 -63 31 -36 16 -38 16
-26 1 12 -15 10 -18 -18 -29 -17 -6 -31 -15 -31 -19 0 -4 -15 -8 -33 -8 -18 0
-59 -7 -91 -15 -32 -8 -63 -12 -69 -8 -7 4 -26 6 -43 4 -24 -2 -37 4 -57 28
-14 17 -27 36 -29 42 -3 9 -9 9 -23 2 -19 -11 -45 4 -45 25 0 5 -9 17 -20 27
-12 11 -17 22 -12 27 14 14 1 112 -15 121 -12 7 -13 22 -8 67 8 71 1 99 -25
97 -11 -1 -20 -7 -20 -14 0 -7 -7 -13 -16 -13 -11 0 -15 6 -11 20 3 13 0 20
-8 20 -8 0 -21 10 -29 22 -12 16 -24 21 -55 20 -31 -1 -43 3 -51 17 -5 11 -22
21 -36 23 -18 2 -32 13 -43 33 -31 57 -31 57 -48 43 -13 -10 -19 -8 -35 12
-19 24 -78 36 -78 17z"/>
<path d="M9776 10615 c-10 -7 -15 -18 -11 -24 3 -6 3 -11 -2 -11 -4 0 -15 -5
-23 -10 -13 -8 -12 -11 4 -23 34 -25 53 -11 53 39 0 24 -1 44 -1 44 -1 0 -9
-7 -20 -15z"/>
<path d="M10428 10623 c7 -3 16 -2 19 1 4 3 -2 6 -13 5 -11 0 -14 -3 -6 -6z"/>
<path d="M9555 10591 c-3 -11 -11 -21 -16 -21 -5 0 -9 -6 -9 -14 0 -15 -63
-16 -113 -2 -16 5 -32 4 -40 -2 -7 -6 -22 -9 -34 -6 -16 4 -23 0 -28 -18 -15
-45 -73 -75 -91 -47 -5 8 -10 6 -16 -5 -5 -9 -17 -16 -27 -16 -10 0 -26 -9
-36 -20 -10 -11 -24 -20 -32 -20 -7 0 -13 -4 -13 -9 0 -5 -15 -18 -34 -29 -37
-22 -73 -79 -50 -79 7 0 11 4 8 9 -3 4 -1 8 4 8 11 0 52 -39 52 -50 0 -5 9
-12 20 -15 11 -3 20 -10 20 -15 0 -9 -41 -7 -57 3 -6 4 -13 -3 -16 -14 -3 -12
-10 -18 -15 -15 -12 7 -25 -22 -16 -36 4 -6 10 -5 15 3 10 16 43 -10 62 -50 7
-14 21 -25 30 -25 21 2 23 -15 2 -22 -8 -4 -15 -13 -15 -21 0 -13 -2 -13 -16
-2 -15 12 -16 11 -10 -16 4 -20 2 -37 -8 -50 -9 -11 -16 -28 -16 -37 0 -19
-11 -23 -24 -10 -4 4 -26 12 -49 17 -23 6 -42 17 -42 23 0 7 -6 17 -14 21 -22
14 -49 1 -60 -30 -5 -16 -17 -29 -25 -29 -9 0 -16 -7 -16 -15 0 -8 -7 -15 -15
-15 -8 0 -15 9 -15 20 0 11 -4 20 -10 20 -15 0 -12 58 5 84 14 21 14 24 0 29
-8 4 -15 14 -15 24 0 16 -1 16 -16 1 -13 -13 -14 -20 -4 -39 12 -21 9 -26 -28
-61 -23 -21 -36 -38 -30 -38 6 0 1 -11 -12 -25 -17 -18 -27 -22 -41 -15 -12 7
-19 6 -21 -2 -3 -7 -10 -8 -17 -3 -24 14 -159 15 -165 0 -3 -8 -13 -11 -25 -8
-17 4 -21 1 -21 -20 0 -18 -10 -32 -35 -47 -33 -21 -37 -21 -54 -6 -10 9 -23
34 -30 55 -13 44 -75 101 -109 101 -11 0 -23 6 -26 13 -4 6 -4 -3 -1 -22 3
-18 18 -49 35 -68 16 -18 30 -38 30 -43 0 -15 67 -78 101 -95 22 -12 30 -22
27 -39 -1 -13 3 -30 10 -39 8 -10 9 -17 3 -21 -6 -4 -8 -13 -4 -21 3 -10 -1
-15 -12 -15 -13 0 -15 -6 -10 -30 5 -22 3 -30 -7 -30 -8 0 -9 -3 -3 -8 6 -4
20 -25 31 -47 19 -35 43 -55 78 -68 5 -2 6 -9 2 -16 -7 -11 -10 -11 -17 0 -5
8 -9 9 -9 3 0 -6 7 -17 15 -24 32 -27 5 -132 -37 -146 -11 -3 -18 -15 -18 -30
0 -28 -8 -31 -24 -8 -8 10 -23 14 -40 12 -28 -3 -28 -3 -10 -24 11 -12 32 -25
47 -28 23 -6 30 -3 34 13 3 13 10 18 21 13 24 -8 122 -81 122 -90 0 -5 16 -14
36 -21 21 -8 40 -23 47 -39 6 -15 28 -49 49 -76 21 -27 38 -52 38 -57 0 -4 9
-11 20 -14 13 -4 20 -15 20 -32 0 -16 7 -27 20 -30 11 -3 20 -12 20 -19 0 -22
38 -54 55 -48 10 4 15 0 15 -15 0 -12 5 -21 10 -21 6 0 10 -8 10 -19 0 -24 44
-43 92 -39 28 1 46 -6 86 -37 53 -40 68 -60 52 -70 -13 -8 -1 -35 16 -35 8 0
14 10 14 25 0 18 5 25 20 25 17 0 19 3 10 19 -14 28 -12 41 5 35 8 -4 13 -10
10 -14 -3 -4 2 -13 10 -20 12 -10 15 -10 16 1 0 8 4 4 9 -9 6 -14 21 -25 40
-28 16 -4 30 -11 30 -16 0 -5 4 -7 9 -4 5 3 14 -1 21 -9 10 -13 9 -15 -11 -16
-17 -1 -19 -3 -6 -6 9 -2 17 -12 17 -21 0 -9 14 -30 29 -45 16 -16 35 -41 41
-57 7 -16 17 -27 23 -24 7 2 18 -9 26 -26 17 -39 70 -65 88 -43 7 9 19 12 31
9 11 -4 23 -2 27 3 8 14 118 7 123 -7 2 -7 12 -12 21 -12 23 0 81 -29 81 -40
0 -5 -4 -12 -10 -15 -19 -12 -10 -38 26 -73 24 -23 32 -37 24 -42 -7 -5 0 -16
21 -34 29 -25 34 -26 45 -12 7 10 18 14 28 10 9 -3 23 -1 31 6 12 10 15 9 15
-6 0 -14 3 -15 8 -6 6 9 21 11 50 6 52 -8 97 16 87 47 -6 17 -1 19 35 19 23 0
55 8 71 17 24 14 29 24 29 54 0 20 6 42 14 48 12 10 18 7 31 -13 10 -14 23
-26 31 -26 7 0 18 -8 23 -17 10 -16 12 -16 23 -3 7 9 34 24 61 34 39 14 47 22
47 42 0 15 4 23 10 19 23 -14 84 -12 120 4 32 14 36 20 28 35 -7 12 -7 21 0
28 13 13 -16 78 -34 78 -18 0 -37 28 -28 42 14 23 13 92 -2 115 -8 12 -14 31
-14 41 0 10 -18 35 -40 55 -22 19 -40 42 -40 51 0 8 11 32 25 52 17 26 22 41
15 48 -5 5 -10 20 -10 33 0 13 -4 23 -8 23 -13 0 -30 78 -19 89 11 11 -16 61
-33 61 -6 0 -10 13 -10 29 0 16 -7 45 -15 64 -14 33 -13 36 4 42 10 3 26 3 35
-1 13 -5 16 2 16 44 0 29 5 52 11 54 7 2 17 19 23 38 9 27 17 35 35 35 26 0
39 19 21 30 -6 4 -24 11 -41 15 -23 7 -30 6 -26 -3 3 -9 -6 -14 -27 -15 -17
-1 -40 -3 -50 -4 -25 -4 -38 41 -19 60 15 15 9 32 -12 32 -11 0 -12 7 -4 32
10 35 5 48 -13 30 -38 -38 -117 14 -98 64 8 20 5 27 -16 40 -22 15 -46 18
-107 14 -13 -1 -15 -5 -8 -19 12 -22 -1 -43 -22 -35 -12 4 -17 1 -17 -10 0
-20 -19 -20 -44 -1 -13 10 -23 11 -31 5 -20 -16 -47 13 -51 54 -2 21 -7 43
-12 50 -5 6 -8 29 -7 51 1 22 -2 50 -6 63 -5 13 -5 22 1 22 6 0 10 15 10 34 0
19 5 36 11 38 13 4 2 78 -12 78 -14 0 -48 33 -43 42 3 4 -6 20 -20 35 -17 18
-22 31 -16 37 6 6 10 17 10 26 0 20 -44 63 -54 53 -13 -13 -26 20 -26 66 0 36
-5 48 -34 75 -58 53 -85 126 -47 126 30 0 15 39 -33 83 -32 30 -52 40 -87 44
-41 5 -48 3 -54 -16z m-545 -691 c0 -19 7 -30 25 -38 14 -6 27 -24 31 -39 4
-15 14 -38 21 -50 9 -13 12 -31 8 -43 -5 -17 0 -23 28 -35 42 -17 56 -55 33
-90 -15 -22 -13 -25 26 -64 22 -23 46 -41 54 -41 7 0 18 -8 23 -17 9 -15 12
-16 20 -3 8 12 14 10 35 -13 13 -14 33 -40 42 -57 10 -16 26 -32 34 -35 9 -3
26 -18 38 -34 12 -16 35 -32 52 -36 17 -4 37 -13 45 -22 13 -13 15 -12 15 3 0
16 2 15 20 -3 16 -18 25 -20 52 -13 17 6 32 9 32 7 1 -1 7 -12 14 -25 16 -29
6 -67 -22 -80 -19 -8 -23 -17 -22 -54 1 -24 6 -49 10 -56 5 -9 3 -13 -5 -11
-29 3 -40 -1 -33 -13 5 -8 0 -7 -11 2 -17 14 -18 13 -12 -4 5 -13 3 -17 -7
-13 -8 3 -20 -1 -27 -9 -9 -11 -15 -11 -25 -3 -8 6 -24 9 -36 6 -26 -7 -95 44
-104 76 -3 13 -24 31 -47 43 l-42 20 -37 -21 c-20 -11 -46 -29 -57 -39 -11
-10 -41 -21 -66 -24 l-46 -5 3 -41 c3 -36 0 -41 -20 -44 -21 -3 -23 0 -20 35
4 46 -16 73 -54 73 -25 0 -27 2 -16 19 6 10 18 17 26 13 11 -4 13 0 7 19 -4
13 -13 31 -20 39 -7 8 -21 26 -31 39 -10 13 -26 31 -35 40 -22 22 -49 76 -49
98 0 10 -9 32 -20 50 -11 19 -15 35 -10 38 6 4 3 16 -6 30 -14 21 -14 26 1 49
11 16 15 35 11 50 -4 16 -1 26 9 29 23 9 30 73 11 102 -9 13 -12 26 -7 30 10
6 8 66 -3 84 -5 7 1 12 16 13 13 1 30 2 39 3 9 0 23 6 31 13 8 6 18 9 21 5 4
-3 7 8 7 25 0 17 5 34 10 37 6 4 8 10 5 15 -3 4 4 6 15 3 14 -4 20 -14 20 -33z
m-327 -180 c6 0 3 -8 -6 -17 -16 -16 -19 -16 -27 -3 -14 22 -12 33 6 26 9 -3
21 -6 27 -6z m54 -105 c6 -14 8 -25 3 -25 -4 0 -5 -11 -3 -24 3 -13 -2 -35
-11 -48 -9 -14 -14 -27 -11 -29 2 -3 -11 -5 -30 -5 -19 0 -35 3 -35 7 0 3 -11
4 -25 1 -14 -2 -25 -10 -25 -17 0 -14 -47 -9 -56 6 -3 5 -16 9 -29 9 -22 0
-43 16 -33 25 2 2 20 5 41 7 20 1 37 6 37 10 0 4 13 8 29 8 20 0 30 6 34 20 3
13 17 22 38 27 28 5 30 7 15 19 -16 11 -16 13 1 23 29 17 47 13 60 -14z m1407
-121 c3 -8 2 -12 -4 -9 -6 3 -10 10 -10 16 0 14 7 11 14 -7z m166 -24 c0 -5
-2 -10 -4 -10 -3 0 -8 5 -11 10 -3 6 -1 10 4 10 6 0 11 -4 11 -10z m-520 -230
c0 -5 -7 -7 -15 -4 -8 4 -15 8 -15 10 0 2 7 4 15 4 8 0 15 -4 15 -10z m585
-60 c3 -6 -1 -7 -9 -4 -18 7 -21 14 -7 14 6 0 13 -4 16 -10z m-585 -174 c0 -3
-4 -8 -10 -11 -5 -3 -10 -1 -10 4 0 6 5 11 10 11 6 0 10 -2 10 -4z m-630 -298
c0 -13 -23 -5 -28 10 -2 7 2 10 12 6 9 -3 16 -11 16 -16z m300 -48 c0 -5 -4
-10 -10 -10 -5 0 -10 5 -10 10 0 6 5 10 10 10 6 0 10 -4 10 -10z m315 -64 c18
-13 18 -14 -2 -24 -16 -9 -24 -8 -37 7 -27 29 4 43 39 17z"/>
<path d="M12671 10414 c0 -11 3 -14 6 -6 3 7 2 16 -1 19 -3 4 -6 -2 -5 -13z"/>
<path d="M10510 10403 c0 -9 -9 -26 -20 -38 l-20 -22 40 -13 c48 -16 103 -4
108 24 3 13 0 17 -10 14 -8 -3 -33 7 -56 23 -34 23 -42 25 -42 12z"/>
<path d="M10427 10350 c-3 -13 -11 -18 -20 -14 -9 3 -17 -3 -21 -18 -8 -31 -8
-38 2 -38 13 0 62 79 52 85 -4 3 -10 -4 -13 -15z"/>
<path d="M9950 10235 c0 -20 -22 -65 -29 -60 -4 2 -6 -18 -6 -43 0 -39 4 -49
22 -57 12 -5 24 -17 26 -27 7 -26 24 -22 31 6 3 14 15 28 26 31 11 3 25 15 31
26 5 11 14 17 19 14 5 -3 25 6 45 19 20 14 42 23 49 20 8 -3 27 3 44 13 l31
19 -35 0 c-19 0 -34 -4 -34 -8 0 -13 -22 -9 -42 9 -11 10 -18 12 -18 4 0 -17
-64 -3 -117 25 -32 17 -43 19 -43 9z"/>
<path d="M10319 10224 c-13 -15 -18 -25 -10 -22 13 4 49 48 39 48 -2 0 -15
-12 -29 -26z"/>
<path d="M8942 10177 c-6 -7 -15 -24 -21 -39 -9 -23 -7 -25 10 -21 23 6 30 16
34 49 3 26 -7 31 -23 11z"/>
<path d="M8980 10171 c0 -12 5 -21 10 -21 6 0 10 6 10 14 0 8 -4 18 -10 21 -5
3 -10 -3 -10 -14z"/>
<path d="M8876 10105 c-3 -8 -12 -15 -20 -15 -10 0 -6 -9 12 -28 31 -32 38
-33 23 -3 -9 16 -8 22 5 29 13 7 13 10 1 21 -12 9 -16 8 -21 -4z"/>
<path d="M11247 10099 c7 -7 15 -10 18 -7 3 3 -2 9 -12 12 -14 6 -15 5 -6 -5z"/>
<path d="M11230 10014 c-7 -18 -6 -32 5 -52 l14 -27 1 25 c1 14 3 37 5 53 5
34 -12 35 -25 1z"/>
<path d="M11200 9930 c0 -5 -7 -10 -15 -10 -19 0 -19 -19 0 -26 17 -7 49 21
40 36 -8 13 -25 13 -25 0z"/>
<path d="M11130 9871 c0 -5 7 -11 14 -14 10 -4 13 -1 9 9 -6 15 -23 19 -23 5z"/>
<path d="M11047 9833 c-4 -3 -7 -11 -7 -17 0 -6 5 -5 12 2 6 6 9 14 7 17 -3 3
-9 2 -12 -2z"/>
<path d="M10967 9783 c-22 -4 -26 -7 -17 -18 7 -9 8 -15 1 -19 -18 -11 0 -36
26 -36 20 0 24 4 21 24 -1 13 3 31 11 40 15 18 15 17 -42 9z"/>
<path d="M7997 9668 c5 -7 9 -28 9 -47 -1 -29 -5 -36 -28 -42 -16 -4 -31 -3
-34 2 -3 6 -14 7 -25 4 -12 -4 -29 2 -45 14 -15 12 -21 21 -13 21 28 0 -10 23
-43 25 -34 3 -48 -7 -48 -37 0 -12 8 -18 24 -18 13 0 27 -6 29 -12 3 -8 6 -6
6 5 1 9 5 17 9 17 12 0 42 -34 42 -48 0 -6 11 -19 24 -29 13 -10 26 -29 30
-41 4 -13 16 -22 27 -22 14 0 19 -7 19 -27 0 -16 4 -35 9 -42 6 -9 6 -22 1
-31 -17 -31 72 -62 95 -33 8 10 16 10 37 -1 16 -9 30 -11 33 -5 4 5 -5 13 -19
19 -14 5 -26 16 -26 25 0 8 -8 15 -18 15 -11 0 -27 9 -37 20 -17 19 -17 21 1
41 18 20 18 21 0 35 -15 10 -16 17 -8 27 9 10 8 17 -1 26 -9 11 -9 14 1 18 6
3 12 11 12 18 0 27 -39 102 -55 109 -13 5 -15 3 -8 -6z"/>
<path d="M10844 9643 c-4 -21 -13 -47 -20 -58 -8 -11 -14 -27 -14 -37 0 -12
-12 -19 -45 -24 -25 -3 -45 -10 -45 -15 0 -5 -9 -9 -20 -9 -11 0 -28 -8 -38
-18 -10 -10 -32 -24 -50 -31 -31 -13 -42 -34 -23 -45 5 -3 11 3 14 14 5 20 12
20 62 0 11 -4 42 -12 70 -16 45 -8 50 -12 55 -39 4 -21 12 -31 26 -33 26 -4
41 14 46 53 2 22 8 30 21 29 10 -1 37 15 59 37 l41 39 -7 71 c-3 39 -11 79
-16 88 -5 9 -10 12 -10 8 0 -5 -7 -1 -16 7 -8 9 -31 16 -49 16 -31 0 -35 -3
-41 -37z"/>
<path d="M8225 9370 c3 -5 8 -10 11 -10 2 0 4 5 4 10 0 6 -5 10 -11 10 -5 0
-7 -4 -4 -10z"/>
<path d="M8270 9370 c0 -5 0 -13 1 -17 1 -4 -12 -14 -28 -21 -25 -11 -25 -12
-4 -8 14 3 31 0 39 -7 13 -10 14 -8 8 11 -6 18 -4 21 9 15 15 -5 15 -3 4 16
-15 22 -29 28 -29 11z"/>
<path d="M8180 9301 c0 -5 5 -13 10 -16 6 -3 10 -2 10 4 0 5 -4 13 -10 16 -5
3 -10 2 -10 -4z"/>
<path d="M6508 9253 c6 -10 20 -27 31 -37 21 -19 22 -19 35 0 10 13 24 18 48
16 22 -2 39 2 47 12 7 9 17 13 22 10 5 -3 9 0 9 5 0 7 -30 11 -80 11 -48 0
-80 -4 -80 -10 0 -7 -7 -7 -21 0 -18 10 -19 9 -11 -7z"/>
<path d="M8210 9262 c0 -12 23 -32 37 -32 18 0 16 27 -3 34 -21 8 -34 8 -34
-2z"/>
<path d="M7392 8728 c3 -7 13 -15 23 -17 17 -3 17 -2 3 13 -20 19 -31 21 -26
4z"/>
<path d="M9183 8587 c3 -9 2 -19 -3 -22 -15 -10 -12 -32 6 -39 12 -4 15 -2 10
9 -3 8 -2 15 3 15 13 0 9 25 -8 40 -13 13 -14 12 -8 -3z"/>
<path d="M9280 8400 c0 -5 5 -10 11 -10 5 0 7 5 4 10 -3 6 -8 10 -11 10 -2 0
-4 -4 -4 -10z"/>
<path d="M10040 8080 c-8 -5 -12 -12 -9 -15 4 -3 12 1 19 10 14 17 11 19 -10
5z"/>
</g>
</svg>
