<?xml version="1.0" standalone="no"?>
<!DOCTYPE svg PUBLIC "-//W3C//DTD SVG 20010904//EN"
 "http://www.w3.org/TR/2001/REC-SVG-20010904/DTD/svg10.dtd">
<svg version="1.0" xmlns="http://www.w3.org/2000/svg"
 width="1321.272398pt" height="747.349456pt" viewBox="0 0 1321.272398 747.349456"
 preserveAspectRatio="xMidYMid meet">
<metadata>
Created by potrace 1.15, written by Peter Selinger 2001-2017
</metadata>
<g transform="translate(-363.336089,1378.593954) scale(0.100000,-0.100000)"
fill="#222222" stroke="none">
<path d="M8357 13760 c-15 -16 -27 -34 -27 -41 0 -6 -13 -25 -30 -41 -18 -16
-30 -38 -30 -53 0 -17 -8 -29 -24 -36 -13 -6 -30 -26 -39 -44 -13 -26 -24 -35
-53 -41 -38 -7 -39 -8 -18 -83 5 -16 4 -22 -4 -17 -17 10 -64 -15 -57 -32 4
-10 0 -13 -15 -9 -25 6 -26 -11 -2 -29 16 -13 16 -15 -3 -29 -18 -14 -20 -28
-20 -141 0 -110 -2 -127 -18 -136 -10 -5 -22 -21 -28 -35 -6 -17 -14 -23 -25
-19 -8 3 -12 2 -9 -4 8 -13 -24 -60 -41 -60 -21 0 -17 -27 5 -33 24 -6 59 -67
38 -67 -8 0 -14 -6 -14 -13 0 -7 10 -13 21 -13 17 1 21 -5 22 -31 0 -17 7 -39
14 -49 14 -15 16 -42 11 -143 -1 -30 -3 -33 -13 -19 -13 17 -138 72 -138 61 0
-3 -9 2 -21 13 -13 12 -18 26 -15 40 4 13 0 27 -9 34 -9 7 -12 22 -9 40 4 15
1 31 -5 34 -6 4 -11 18 -11 32 0 22 -4 25 -32 22 -27 -2 -36 2 -50 25 -23 35
-40 34 -58 -6 -13 -27 -20 -32 -45 -29 -16 2 -37 10 -47 18 -11 10 -18 12 -23
5 -3 -6 -19 -11 -36 -11 -16 0 -29 -5 -29 -12 0 -6 -8 -4 -20 7 -19 17 -19 17
-7 -14 10 -27 9 -33 -10 -50 -13 -13 -29 -18 -44 -14 -16 3 -20 2 -11 -4 9 -7
10 -16 3 -36 -13 -33 -6 -54 20 -62 21 -7 25 -20 9 -30 -7 -4 -6 -13 1 -26 14
-28 6 -33 -30 -21 -26 9 -31 8 -31 -5 0 -10 -6 -13 -16 -9 -14 5 -15 4 -4 -9
7 -9 18 -14 24 -12 7 3 25 -8 40 -24 30 -29 60 -37 71 -19 4 6 18 1 35 -14 17
-14 37 -22 48 -19 14 3 22 -4 32 -29 7 -18 18 -39 24 -47 11 -14 14 -26 20
-86 7 -62 18 -97 40 -130 43 -61 79 -72 119 -34 12 10 25 19 30 19 4 0 1 7 -7
16 -26 25 -18 36 12 17 28 -18 49 -42 69 -81 12 -22 11 -23 -11 -20 -26 3 -56
-17 -56 -39 0 -8 -5 -11 -12 -7 -7 5 -9 2 -5 -8 3 -9 1 -20 -5 -26 -7 -7 -7
-20 0 -40 18 -51 -18 -60 -43 -11 -22 42 -50 68 -65 59 -9 -5 -9 -13 -1 -27
12 -23 -6 -45 -47 -58 -13 -4 -27 -17 -32 -30 -5 -13 -27 -34 -50 -47 -28 -16
-38 -28 -34 -38 15 -36 22 -96 12 -114 -8 -14 -12 -16 -18 -6 -12 20 -30 2
-30 -31 0 -27 -2 -29 -39 -29 -31 0 -41 -4 -46 -20 -9 -28 -33 -38 -89 -36
-32 2 -53 8 -61 19 -7 9 -24 17 -39 17 -16 0 -41 14 -67 37 -36 32 -42 35 -50
21 -6 -12 -29 -19 -69 -24 -33 -4 -60 -10 -60 -15 0 -10 -69 0 -95 15 -35 18
-110 35 -116 25 -10 -17 -64 11 -83 42 -9 16 -23 29 -29 27 -7 -1 -26 6 -44
15 -47 25 -78 22 -91 -8 -10 -21 -15 -24 -31 -15 -14 7 -20 7 -23 -1 -2 -7
-23 -4 -60 8 -37 13 -61 16 -67 10 -6 -6 -25 -4 -53 6 -38 12 -48 13 -69 1
-28 -16 -59 -18 -59 -4 0 19 -55 61 -74 56 -18 -5 -63 18 -78 39 -4 5 -8 24
-8 41 0 25 -7 34 -40 53 -45 25 -55 51 -46 118 5 39 4 44 -10 39 -9 -4 -29 1
-43 10 -14 9 -23 13 -18 9 4 -5 -4 -20 -17 -34 -14 -14 -34 -48 -45 -76 -11
-27 -20 -46 -20 -42 -1 11 -61 -55 -61 -67 0 -22 -35 -86 -47 -86 -7 0 -13 -6
-13 -13 0 -15 -41 -37 -69 -37 -11 0 -22 -7 -25 -16 -15 -38 -136 14 -193 82
-26 33 -39 42 -48 34 -9 -7 -21 -7 -39 0 -15 5 -39 10 -53 10 -13 0 -36 9 -50
20 -15 12 -41 20 -63 20 -33 0 -41 -5 -59 -36 -19 -32 -25 -35 -49 -30 -15 4
-34 8 -42 9 -9 2 -22 7 -30 12 -9 5 -15 4 -18 -3 -2 -7 -15 -9 -33 -5 -18 3
-29 1 -29 -5 0 -7 -12 -6 -34 3 -30 13 -36 13 -46 0 -14 -17 -50 -20 -50 -5 0
6 -6 10 -14 10 -8 0 -12 -8 -9 -23 5 -25 -20 -53 -52 -59 -16 -3 -20 -12 -21
-63 0 -33 -3 -65 -5 -70 -5 -11 41 -60 56 -60 6 0 11 -12 13 -27 2 -15 16 -40
33 -55 16 -15 29 -32 29 -36 0 -19 42 -67 71 -81 l30 -15 -6 36 c-3 19 -8 40
-12 46 -3 5 -1 7 5 3 5 -3 13 0 16 6 3 9 9 8 20 -6 10 -12 29 -19 56 -20 28 0
39 -5 36 -13 -3 -7 -1 -15 4 -18 6 -4 7 -18 3 -32 -6 -24 -5 -25 11 -12 9 8
25 22 36 32 23 24 44 17 94 -28 22 -19 43 -35 48 -35 4 0 8 -8 8 -19 0 -10 7
-24 15 -31 9 -7 13 -21 10 -31 -4 -11 2 -23 17 -33 13 -9 23 -22 23 -29 0 -6
9 -12 19 -12 61 0 -7 -70 -78 -81 -33 -4 -47 -3 -42 4 8 14 -23 44 -40 38 -7
-3 -26 1 -41 9 -41 21 -50 18 -25 -8 12 -13 22 -33 22 -45 0 -28 17 -37 25
-12 9 30 22 24 30 -12 4 -18 13 -40 20 -48 16 -20 26 -50 17 -50 -4 0 -12 -11
-18 -24 -13 -27 1 -68 36 -113 11 -14 20 -35 20 -47 1 -40 26 -59 84 -64 41
-3 60 -10 77 -28 12 -13 34 -24 47 -24 21 0 22 -2 12 -15 -10 -12 -10 -15 0
-15 13 0 49 -40 50 -55 0 -15 33 -33 74 -41 29 -5 40 -3 50 11 11 15 22 17 63
12 39 -4 55 -2 69 11 11 9 33 17 50 16 30 -1 84 -29 84 -44 0 -4 11 -5 24 -3
16 3 36 -3 55 -16 29 -21 31 -21 63 -4 45 24 49 23 84 -10 20 -18 34 -25 38
-18 4 6 18 11 31 11 20 0 26 -7 35 -41 6 -22 18 -43 26 -46 7 -3 14 -13 14
-22 0 -10 12 -23 26 -30 23 -10 26 -9 31 10 6 21 39 39 75 39 30 0 108 39 108
54 0 7 15 18 34 24 31 11 35 17 41 62 5 35 14 54 31 67 14 11 22 24 19 34 -6
18 33 34 68 30 9 -1 29 11 43 28 21 26 29 29 50 21 38 -15 54 -12 54 10 0 15
7 20 26 20 20 0 24 -4 19 -19 -3 -10 -1 -30 5 -45 8 -21 7 -28 -5 -32 -17 -7
-21 -34 -5 -34 11 0 43 46 46 67 2 8 14 31 28 52 14 20 26 42 26 49 0 26 -24
61 -44 64 -24 3 -35 46 -14 52 50 16 67 16 61 0 -3 -9 -13 -14 -24 -11 -23 6
-34 -22 -12 -30 10 -4 23 2 34 16 12 15 25 20 37 17 13 -4 25 3 40 24 13 16
29 30 37 30 8 0 15 5 15 10 0 6 15 10 33 10 27 0 32 -3 32 -25 0 -24 -2 -24
-51 -19 -63 8 -80 -9 -42 -41 14 -12 28 -31 30 -41 2 -13 10 -18 23 -16 32 6
46 22 36 41 -6 11 -4 23 5 35 7 10 11 23 8 27 -3 5 -1 9 5 9 16 0 51 -41 53
-62 0 -10 1 -24 2 -30 1 -14 -18 -15 -46 -3 -21 8 -35 -30 -18 -50 9 -11 9
-19 2 -28 -6 -7 -9 -23 -6 -35 4 -13 0 -28 -10 -37 -9 -9 -16 -29 -16 -43 0
-16 -8 -32 -20 -40 -11 -7 -20 -19 -20 -28 0 -30 -33 -86 -57 -95 -13 -5 -26
-16 -29 -24 -4 -8 -17 -15 -31 -15 -36 0 -83 -37 -83 -65 0 -14 -9 -29 -20
-35 -29 -16 -25 -30 5 -17 14 7 25 15 25 19 0 3 27 6 60 6 52 0 63 -4 90 -30
29 -27 33 -28 49 -14 13 12 28 13 66 7 30 -4 49 -12 48 -19 -4 -15 41 -16 68
-2 10 6 19 17 19 25 0 8 6 15 13 15 19 0 40 -17 34 -26 -8 -13 52 -9 65 4 7 7
17 12 24 12 7 0 10 8 7 20 -6 23 6 26 26 8 10 -9 15 -10 18 -2 2 6 14 9 26 7
14 -3 29 2 36 11 8 9 24 16 36 16 22 0 85 52 85 70 0 5 13 28 28 52 36 53 44
76 32 83 -16 10 -11 28 5 21 8 -3 15 -1 15 3 0 5 3 16 6 25 4 11 -2 19 -20 26
-15 5 -29 17 -32 25 -4 9 -25 25 -47 36 -26 14 -36 24 -28 28 8 5 10 18 5 35
-4 18 -1 32 9 44 19 21 17 47 -5 64 -17 14 -31 48 -20 48 4 0 13 -9 20 -20 17
-27 40 -25 54 5 12 27 45 34 54 10 3 -8 -1 -29 -10 -46 -9 -18 -16 -33 -16
-33 0 -1 17 -1 39 -1 32 -1 40 3 50 27 7 15 21 30 32 33 10 4 19 11 19 16 0 6
5 7 10 4 15 -10 24 23 10 40 -9 11 -7 21 14 47 18 24 23 41 19 57 -4 16 -2 22
4 18 6 -4 14 0 17 9 3 8 11 12 16 9 6 -4 27 -9 46 -11 28 -4 40 1 63 23 37 37
40 52 24 91 -13 31 -12 32 10 32 14 0 32 -12 45 -30 20 -27 21 -34 11 -75 -7
-26 -8 -56 -3 -72 10 -37 11 -43 13 -77 1 -25 4 -28 26 -24 30 6 30 4 5 -37
-11 -17 -20 -45 -20 -61 0 -16 -1 -42 -1 -59 -1 -20 6 -34 20 -44 12 -7 21
-21 21 -30 0 -9 9 -22 20 -28 17 -11 18 -10 13 4 -5 13 -2 15 11 10 10 -4 19
-7 21 -7 2 0 1 -9 -2 -19 -3 -11 -29 -32 -59 -47 -54 -27 -63 -37 -44 -49 18
-11 10 -22 -13 -18 -39 8 -48 -15 -35 -81 10 -44 10 -61 0 -76 -7 -11 -12 -33
-12 -50 0 -23 -5 -30 -19 -30 -10 0 -29 -8 -42 -18 -13 -10 -32 -21 -41 -25
-10 -3 -18 -11 -18 -16 0 -5 -8 -12 -18 -16 -11 -3 -24 -17 -30 -30 -7 -14
-19 -28 -28 -32 -20 -7 -67 -54 -61 -60 3 -2 -5 -15 -18 -27 -22 -22 -52 -34
-100 -39 -11 -1 -21 -11 -23 -22 -6 -28 -21 -45 -43 -45 -10 0 -20 -8 -24 -19
-8 -25 -78 -73 -97 -66 -8 3 -23 -3 -33 -15 -10 -11 -24 -20 -32 -20 -15 0
-50 -19 -71 -37 -7 -7 -17 -13 -22 -13 -4 0 -10 -9 -13 -21 -4 -16 -11 -19
-27 -14 -20 6 -21 5 -10 -14 6 -12 8 -25 5 -30 -3 -5 0 -21 6 -35 15 -33 5
-69 -24 -85 -15 -8 -23 -22 -24 -39 -2 -63 -3 -73 -12 -67 -5 3 -12 2 -15 -3
-7 -12 25 -38 57 -46 23 -5 27 -3 27 14 0 12 -5 30 -10 41 -13 23 -10 23 35 5
19 -8 35 -12 35 -8 0 4 6 0 13 -8 21 -26 52 -39 70 -29 21 12 70 -36 75 -75 2
-18 0 -26 -7 -21 -6 3 -11 1 -11 -5 0 -7 8 -14 18 -17 19 -5 42 -54 42 -91 0
-14 -7 -22 -22 -24 -19 -2 -23 -8 -20 -36 2 -28 -1 -32 -22 -32 -17 0 -27 -9
-36 -30 -8 -18 -20 -30 -31 -30 -11 0 -19 -7 -19 -15 0 -29 -44 -105 -61 -105
-21 0 -70 25 -79 41 -10 15 -33 1 -26 -17 3 -8 0 -11 -9 -7 -8 3 -17 -2 -21
-10 -3 -9 -11 -14 -18 -11 -7 3 -18 -2 -25 -10 -10 -11 -6 -18 19 -36 16 -12
30 -28 30 -36 0 -8 11 -26 24 -39 17 -17 20 -27 13 -34 -8 -8 -8 -14 1 -23 7
-7 12 -20 12 -29 0 -10 5 -21 11 -25 19 -11 71 -15 83 -5 6 5 27 7 46 6 22 -2
45 4 63 17 27 19 29 19 48 2 16 -14 19 -25 13 -60 -4 -26 -1 -50 7 -65 7 -13
14 -50 16 -82 2 -48 9 -65 35 -98 22 -27 38 -39 50 -36 21 6 43 -26 34 -50
-10 -24 5 -63 23 -63 14 0 17 -7 13 -30 -2 -17 -12 -36 -21 -43 -25 -18 -48
-69 -35 -74 7 -2 10 -12 7 -23 -4 -15 -1 -18 15 -13 14 3 19 10 15 21 -4 13 0
12 17 -5 16 -15 21 -27 15 -40 -5 -10 -7 -23 -6 -30 1 -7 -20 -18 -46 -26 -26
-8 -65 -25 -86 -37 -30 -18 -43 -20 -60 -13 -12 6 -31 7 -42 2 -11 -4 -30 -8
-42 -8 -19 -1 -21 3 -16 33 4 26 1 35 -13 40 -15 6 -17 5 -6 -5 18 -19 15 -25
-15 -24 -23 0 -29 -5 -34 -30 -4 -24 0 -36 25 -62 25 -28 30 -41 31 -89 0 -45
5 -59 23 -72 12 -9 28 -35 35 -57 11 -32 21 -42 50 -52 20 -7 49 -20 63 -30
15 -9 38 -17 53 -18 21 0 27 -6 32 -35 3 -19 11 -47 17 -62 6 -15 9 -34 7 -41
-3 -6 4 -30 15 -52 11 -22 16 -43 11 -48 -5 -5 -5 -25 0 -45 11 -50 11 -52 -6
-52 -20 0 -19 -2 10 -60 14 -27 25 -63 25 -79 0 -31 22 -61 45 -61 13 0 42
-58 37 -74 -2 -4 4 -19 13 -32 8 -13 15 -32 15 -44 0 -28 -46 -27 -77 2 -20
18 -23 19 -23 5 0 -22 -13 -21 -34 2 -10 11 -24 17 -31 15 -8 -3 -19 6 -27 23
-9 20 -22 29 -43 31 -17 2 -38 13 -47 25 -17 22 -18 21 -19 -28 -1 -34 -3 -43
-7 -27 -8 26 -58 62 -87 62 -14 0 -16 -3 -8 -11 6 -6 9 -18 6 -25 -3 -8 1 -21
8 -30 14 -17 13 -88 -2 -116 -7 -13 2 -28 41 -68 49 -51 60 -70 39 -70 -6 0 3
-19 20 -42 33 -45 39 -75 17 -84 -8 -3 -17 -17 -21 -32 -4 -15 -12 -30 -18
-34 -8 -5 -5 -9 7 -14 27 -10 70 40 62 72 -5 19 -2 25 19 30 14 3 35 4 46 1
12 -3 22 0 26 9 3 8 10 14 17 14 6 0 17 9 24 20 10 16 16 18 31 10 25 -13 81
-2 81 16 0 8 7 14 15 14 9 0 20 11 25 25 8 21 13 23 34 15 18 -7 28 -5 37 6 7
9 15 11 18 5 4 -5 19 -13 34 -16 21 -6 27 -4 27 9 0 12 10 16 41 16 42 0 109
-25 109 -41 0 -5 5 -9 12 -9 7 0 27 -14 45 -32 18 -18 33 -26 33 -20 0 7 6 12
13 11 6 -1 20 1 29 5 9 4 26 2 38 -4 19 -10 26 -8 49 14 24 23 30 25 40 12 10
-12 49 -25 96 -31 6 -1 18 -5 28 -10 11 -4 23 -3 30 4 8 8 7 11 -6 11 -21 0
-51 45 -43 65 3 8 14 15 25 15 11 0 31 4 46 10 22 8 24 13 15 31 -10 17 -8 21
8 26 17 4 19 11 15 44 -5 33 -2 43 16 55 12 9 21 26 21 41 0 41 30 93 69 119
20 13 46 31 58 40 17 12 26 13 42 5 17 -9 25 -6 53 21 18 18 32 36 30 41 -1 5
8 1 20 -7 25 -18 53 -21 43 -6 -3 6 -2 10 4 10 17 0 65 -21 72 -31 10 -18 39
3 39 28 0 49 53 71 80 33 13 -18 15 -18 32 -4 9 9 24 14 33 11 8 -4 15 -1 15
6 0 7 5 4 11 -5 5 -10 16 -18 23 -18 7 0 27 -14 44 -31 19 -19 32 -26 32 -17
0 7 9 22 21 32 17 14 36 17 93 15 83 -3 136 20 136 59 0 17 6 22 24 22 13 0
29 7 36 15 7 8 19 15 26 15 8 0 11 6 8 15 -4 8 -1 15 5 15 19 0 12 40 -11 64
-26 25 -34 86 -12 86 8 0 14 8 14 18 0 10 11 25 25 32 13 7 31 27 39 44 23 48
50 69 78 60 13 -4 29 -7 36 -5 7 1 22 -9 33 -23 44 -56 139 -20 139 52 0 30 3
32 33 32 43 0 48 6 31 38 -18 35 -18 40 4 38 12 -1 16 5 14 18 -3 17 -2 18 12
7 13 -11 22 -11 45 -1 41 17 108 4 122 -22 10 -18 9 -20 -5 -15 -11 4 -16 1
-16 -11 0 -22 -65 -56 -100 -53 -15 1 -33 -6 -42 -16 -22 -26 -43 -92 -40
-130 2 -27 0 -31 -18 -26 -27 7 -26 -14 3 -45 16 -18 17 -24 6 -19 -22 8 -59
-19 -59 -44 0 -10 -7 -19 -15 -19 -8 0 -15 -4 -15 -10 0 -5 10 -10 23 -10 17
0 28 -10 40 -34 14 -31 44 -48 92 -50 5 -1 11 -10 13 -21 2 -11 9 -24 14 -30
8 -7 9 -6 4 3 -9 16 -5 15 30 -3 27 -14 29 -13 36 6 8 20 16 20 66 2 6 -3 12
0 12 6 0 26 32 8 48 -27 19 -43 70 -102 88 -102 6 0 22 -8 35 -19 13 -10 38
-21 55 -25 26 -6 33 -13 37 -39 2 -18 0 -38 -7 -46 -6 -8 -11 -45 -11 -83 0
-50 -4 -68 -13 -68 -25 0 -8 -43 19 -51 22 -5 29 -2 43 22 9 16 23 29 30 29 8
0 16 6 19 14 3 8 19 17 36 21 17 4 31 11 31 16 0 5 23 6 55 3 48 -6 58 -4 70
12 8 10 15 16 16 12 1 -5 2 -11 3 -15 3 -17 42 -55 65 -64 22 -9 23 -11 7 -22
-15 -11 -16 -15 -3 -41 14 -26 15 -27 22 -7 3 11 9 20 13 19 4 -1 15 2 26 7
12 5 21 3 26 -5 7 -11 11 -11 23 -1 10 8 28 10 50 6 27 -5 39 -2 64 19 17 14
38 26 46 26 8 0 17 9 20 20 3 12 14 20 25 20 12 0 24 5 27 10 3 6 1 10 -6 10
-7 0 -10 3 -6 6 3 3 33 -3 66 -15 76 -26 89 -26 66 -1 -10 11 -15 20 -11 20
18 0 84 -41 108 -68 35 -40 76 -48 137 -27 53 17 67 35 51 65 -8 15 -6 24 9
39 10 10 27 21 38 23 10 2 25 17 33 33 28 55 30 57 48 39 15 -15 16 -15 23 2
4 11 8 15 9 9 0 -5 7 -2 15 9 10 14 21 17 41 12 20 -5 30 -2 40 13 8 11 28 22
44 26 17 4 30 13 30 20 0 9 6 12 16 8 9 -3 20 0 24 7 15 24 29 2 17 -29 -5
-15 -7 -36 -4 -45 7 -17 51 -39 79 -38 9 0 27 -15 40 -34 13 -21 34 -37 50
-41 26 -5 55 -43 97 -125 16 -32 62 -45 104 -29 15 6 33 8 41 5 8 -3 19 3 26
15 7 14 7 21 1 21 -6 0 -10 18 -8 40 2 42 6 47 23 30 15 -15 44 -1 44 20 0 11
5 22 11 25 7 5 4 14 -7 27 -16 16 -16 21 -4 28 20 13 30 12 30 0 0 -15 49 -1
83 22 15 11 34 17 42 14 9 -3 19 3 26 15 6 13 19 19 32 18 36 -5 104 45 117
86 8 23 18 35 30 35 24 0 37 20 20 30 -7 4 -10 13 -6 19 4 6 -2 21 -14 33 -13
14 -18 29 -14 42 7 23 7 22 5 54 0 12 -4 21 -8 21 -23 -4 -28 6 -28 50 0 27 3
53 8 57 4 4 7 16 7 26 0 11 7 18 20 18 16 0 20 7 20 30 0 23 -5 31 -24 36 -14
3 -34 3 -45 -1 -29 -9 -49 39 -26 61 8 9 15 23 15 31 0 9 3 13 6 10 8 -8 44
36 44 55 0 7 7 22 15 32 8 11 15 28 15 38 0 21 11 23 27 7 9 -9 20 -9 42 1 17
7 31 16 31 21 0 4 9 11 21 14 11 4 24 18 29 31 9 21 13 23 31 14 23 -13 61 6
79 39 9 17 19 19 83 17 39 -2 83 1 96 6 17 6 32 3 58 -12 20 -12 62 -23 103
-26 68 -7 70 -6 79 20 9 21 17 26 46 26 30 0 35 3 35 23 0 12 4 29 10 37 7 12
12 12 29 -4 16 -15 28 -16 63 -10 51 9 88 6 106 -8 9 -8 12 -6 12 6 0 18 8 20
29 7 10 -7 20 -2 33 15 11 13 17 28 14 33 -3 5 0 23 7 40 12 29 14 30 31 13
14 -13 17 -14 13 -2 -25 67 -28 86 -18 113 9 23 15 27 32 22 15 -5 19 -4 15 4
-7 11 -6 12 32 16 25 3 51 31 52 57 0 14 4 13 24 -7 13 -13 26 -35 30 -49 7
-28 51 -55 78 -49 10 3 30 -7 45 -21 15 -14 31 -27 35 -27 5 -1 12 -2 17 -3
13 -1 68 -52 73 -66 2 -6 10 -12 18 -13 8 -2 21 -6 29 -11 10 -6 12 -4 7 12
-6 19 -5 20 22 10 25 -10 35 -8 66 10 l36 21 27 -34 c22 -28 32 -33 55 -28 43
9 74 -4 88 -36 11 -27 50 -50 50 -30 0 5 11 9 23 9 27 0 57 -28 57 -53 0 -9 4
-17 10 -17 5 0 24 -13 43 -29 22 -20 46 -31 72 -33 35 -3 40 -6 40 -29 0 -14
5 -37 12 -50 6 -13 21 -52 33 -86 23 -63 75 -131 120 -154 14 -7 42 -14 62
-16 29 -3 39 0 47 16 6 11 19 22 30 26 22 7 34 42 17 49 -6 2 -2 5 9 5 26 1
51 -35 30 -43 -23 -9 -18 -20 20 -40 31 -17 35 -24 36 -60 1 -23 1 -44 0 -48
0 -5 9 -8 20 -8 21 0 21 -3 15 -62 -19 -177 -15 -198 39 -198 18 0 29 6 32 20
7 26 16 25 29 -3 12 -26 -1 -91 -17 -81 -12 7 -79 -23 -79 -36 0 -6 -6 -10
-14 -10 -32 0 -31 -82 1 -123 12 -16 25 -41 28 -57 4 -17 11 -30 16 -30 5 0 9
-8 9 -19 0 -10 12 -26 26 -36 21 -13 24 -19 13 -26 -11 -7 -9 -9 7 -9 12 0 27
-7 34 -14 9 -11 18 -13 37 -5 23 8 29 5 60 -31 37 -42 72 -50 104 -23 15 12
19 11 35 -9 26 -32 54 -25 54 13 0 16 5 29 11 29 6 0 8 9 4 20 -4 11 -2 20 4
20 6 0 11 7 11 16 0 15 2 15 26 -1 14 -9 32 -14 39 -11 7 2 19 -2 25 -10 7 -8
23 -14 37 -14 20 0 23 4 18 20 -4 14 -2 20 8 20 11 0 13 10 9 48 -5 50 -16 72
-37 72 -16 0 -45 85 -38 111 4 13 14 19 32 19 19 0 34 10 50 30 22 31 28 32
79 13 6 -3 12 2 12 11 0 9 8 16 20 16 11 0 20 5 20 10 0 6 7 10 15 10 8 0 15
5 15 11 0 7 8 6 23 -4 21 -13 24 -12 40 10 16 20 21 22 35 11 10 -8 13 -9 9
-1 -5 7 1 13 15 15 15 2 22 9 21 21 -1 18 0 17 20 -1 12 -11 31 -22 42 -24 25
-4 57 26 48 48 -6 15 -4 15 19 0 31 -20 39 -13 25 23 -11 31 7 86 38 111 12
10 13 16 3 28 -11 13 -10 14 11 7 16 -5 21 -4 17 4 -5 7 2 11 18 11 18 0 26 5
26 18 0 10 6 27 14 38 9 12 11 23 5 30 -6 7 -5 22 1 40 10 25 8 31 -12 49 -13
11 -22 28 -20 38 2 10 0 26 -4 35 -4 9 -6 22 -5 28 1 7 -9 14 -21 17 -13 4
-29 16 -37 28 -12 20 -11 24 5 36 12 9 18 23 16 39 -2 14 2 31 8 39 9 10 9 19
0 35 -9 17 -9 25 2 38 15 17 13 52 -2 52 -8 0 -67 95 -82 132 -4 11 -2 20 7
25 16 10 9 53 -9 54 -37 2 -63 12 -90 35 -17 14 -46 34 -63 45 -18 12 -33 29
-33 39 0 11 -10 26 -22 34 -11 8 -22 25 -24 38 -4 40 -21 72 -55 108 -18 19
-32 40 -31 47 1 6 -2 14 -7 18 -7 4 -7 15 0 32 7 20 6 28 -3 35 -7 4 -8 8 -3
8 6 1 -4 13 -21 28 -33 29 -61 92 -45 101 17 11 -25 50 -48 44 -15 -4 -21 -1
-21 11 0 18 -29 27 -92 29 -27 1 -48 8 -56 19 -9 13 -19 15 -41 8 -16 -4 -32
-6 -34 -3 -3 2 -11 6 -19 7 -40 8 -76 21 -96 34 -13 9 -50 17 -83 19 -55 3
-59 2 -50 -15 8 -16 5 -21 -22 -33 -30 -13 -63 -15 -127 -7 -21 2 -24 -1 -22
-19 3 -19 -1 -21 -35 -18 -49 4 -104 -10 -135 -35 -14 -11 -27 -17 -29 -15 -3
2 -3 22 -1 44 3 32 9 40 28 45 26 7 33 26 9 26 -8 0 -25 11 -39 25 -14 14 -33
25 -43 25 -23 0 -83 36 -83 50 0 6 -11 28 -25 50 -14 22 -25 46 -25 54 0 8 -7
19 -16 24 -15 8 -15 11 5 31 24 24 28 61 7 61 -8 0 -17 7 -20 16 -4 12 -1 14
13 9 11 -3 22 -1 26 5 3 5 17 10 31 10 14 0 36 11 49 24 22 22 28 23 59 14 26
-8 41 -7 65 3 17 8 31 17 31 21 0 5 12 8 28 8 33 0 102 31 121 53 7 10 21 17
30 17 21 0 66 47 76 78 4 13 14 22 26 22 20 0 27 34 9 45 -6 4 -5 19 4 40 8
19 11 37 6 40 -14 9 -40 67 -34 76 3 5 16 9 30 9 16 0 24 6 24 17 0 9 3 14 6
10 3 -3 15 3 27 13 19 19 20 21 3 39 -16 18 -16 18 6 17 18 -1 23 4 22 22 0
15 4 21 13 18 13 -5 17 4 14 37 -1 9 5 24 14 33 9 9 14 23 11 30 -3 8 -1 14 4
14 14 0 12 54 -2 68 -7 7 -22 12 -34 12 -21 0 -34 17 -34 45 0 7 16 22 35 34
24 14 35 28 35 43 0 15 9 27 23 33 17 8 24 23 31 63 9 51 10 52 42 52 26 0 32
4 28 15 -4 9 0 15 10 15 8 0 22 13 30 29 14 27 14 30 -10 52 -13 12 -28 37
-33 53 l-9 31 -1 -33 c-1 -19 -5 -31 -11 -27 -13 8 -13 -8 2 -40 11 -24 8 -29
-30 -63 -23 -21 -42 -46 -42 -55 0 -13 -9 -17 -35 -17 -26 0 -33 -3 -29 -15 5
-12 0 -14 -27 -8 -27 5 -31 4 -26 -10 7 -19 -18 -30 -42 -18 -14 8 -17 5 -16
-16 0 -14 -6 -28 -12 -30 -7 -3 -13 2 -13 11 0 11 -9 16 -32 16 -17 0 -39 6
-47 13 -9 7 -33 18 -53 24 -31 9 -38 8 -38 -2 0 -17 -31 -28 -54 -19 -19 7
-21 21 -4 26 9 3 9 12 -1 36 -7 18 -17 32 -21 32 -5 0 -30 21 -56 48 -26 26
-52 47 -58 47 -6 0 -10 10 -8 23 2 12 -2 22 -8 22 -6 0 -8 10 -4 25 8 31 -10
55 -41 55 -12 0 -33 9 -47 19 -32 25 -94 37 -113 21 -8 -6 -18 -9 -24 -6 -5 3
-20 -3 -33 -15 -15 -14 -40 -22 -73 -24 -49 -3 -96 8 -94 22 5 30 -15 44 -71
49 -91 9 -131 18 -146 35 -12 13 -21 16 -34 9 -13 -7 -31 -3 -66 15 -27 14
-55 25 -62 25 -23 0 -46 40 -49 85 -2 25 -1 45 1 45 2 0 23 -7 46 -15 23 -8
53 -15 65 -15 12 0 30 -8 39 -19 9 -10 37 -24 61 -31 40 -11 45 -10 66 9 17
16 20 23 10 35 -9 11 -8 17 5 30 10 11 14 25 10 41 -5 18 -1 25 13 30 11 3 24
19 30 35 5 17 15 30 20 30 6 0 11 9 11 20 0 23 32 43 54 34 12 -5 15 -2 10 10
-3 9 -2 16 4 16 12 0 22 62 12 75 -15 18 1 62 26 74 14 6 31 26 39 44 8 17 14
28 15 24 0 -4 9 -3 20 3 11 6 17 16 14 25 -4 10 0 15 11 15 24 0 45 25 45 54
0 25 12 31 48 27 6 -1 12 3 12 10 0 8 10 9 31 5 27 -5 30 -3 27 17 -2 12 -9
28 -15 35 -22 23 -26 61 -11 106 13 40 13 47 -4 79 -10 20 -22 39 -28 42 -5 3
-10 21 -10 39 0 19 -7 39 -15 46 -8 7 -15 23 -15 36 0 13 -9 28 -19 34 -19 10
-19 11 -1 59 10 28 15 53 11 56 -5 6 -11 99 -11 175 0 14 7 30 15 36 12 9 13
17 5 38 -9 25 -19 31 -49 26 -7 -1 -19 7 -27 18 -7 11 -30 23 -51 27 -20 4
-49 15 -64 26 -29 21 -74 25 -84 9 -4 -6 -15 -8 -26 -5 -14 5 -17 3 -13 -9 5
-13 0 -15 -27 -10 -54 9 -59 12 -59 33 0 13 -11 23 -34 31 -19 6 -40 17 -46
25 -7 8 -24 12 -41 10 -29 -4 -35 5 -30 43 1 7 -7 24 -18 39 -12 14 -21 31
-21 37 0 6 -10 16 -22 21 -23 10 -29 9 -103 -28 -13 -7 -20 -6 -23 1 -2 8 -11
8 -30 1 -43 -17 -89 -13 -122 11 -32 23 -60 21 -92 -7 -10 -9 -28 -13 -43 -11
-13 3 -29 0 -35 -7 -10 -12 -38 -14 -56 -2 -7 4 -36 -7 -65 -23 -30 -16 -62
-27 -72 -24 -13 4 -21 -4 -33 -33 -9 -21 -25 -48 -36 -59 -19 -21 -10 -43 12
-29 6 3 10 -3 10 -14 0 -26 -18 -37 -26 -16 -5 12 -9 13 -21 4 -25 -22 -44 11
-48 82 -2 35 -4 69 -4 75 -1 6 -28 11 -68 11 -48 1 -70 6 -78 16 -13 18 -95
49 -95 36 0 -5 -7 -9 -15 -9 -17 0 -19 -9 -5 -30 5 -9 5 -19 -1 -26 -12 -14
52 -81 86 -90 14 -3 25 -10 25 -15 0 -5 -22 2 -50 16 -51 26 -108 94 -95 114
3 6 1 11 -4 11 -6 0 -11 9 -11 19 0 11 -5 23 -10 26 -6 4 -8 10 -5 15 3 5 0
12 -6 16 -8 4 -9 3 -5 -4 8 -13 -6 -17 -18 -5 -8 9 -25 12 -106 19 -36 3 -72
12 -80 19 -12 13 -17 12 -40 -10 -19 -18 -38 -24 -76 -26 -28 -1 -56 1 -63 5
-7 5 -24 3 -37 -4 -19 -11 -29 -11 -51 -1 -19 9 -29 9 -31 2 -7 -21 -54 -11
-92 19 -20 16 -40 27 -43 24 -3 -3 -22 4 -44 15 -21 11 -33 20 -28 21 22 1
-22 20 -47 20 -41 0 -58 10 -58 34 0 15 -9 27 -26 34 -14 7 -23 8 -19 2 8 -13
-16 -13 -49 0 -33 12 -89 -17 -76 -40 13 -24 23 -83 13 -77 -4 3 -17 -15 -27
-39 -12 -29 -24 -44 -36 -44 -10 0 -34 -13 -52 -30 -18 -16 -36 -30 -40 -30
-11 0 -38 31 -38 45 0 7 -15 18 -32 26 -18 7 -37 19 -41 26 -10 17 -78 7 -90
-13 -5 -9 -17 -12 -32 -8 -18 4 -27 0 -40 -20 -10 -14 -23 -26 -30 -26 -7 0
-21 -12 -31 -27 -9 -16 -26 -34 -36 -41 -10 -7 -18 -24 -18 -36 0 -28 -22 -49
-43 -40 -8 3 -25 0 -37 -6 -16 -9 -25 -9 -33 -1 -6 6 -31 11 -57 11 -25 0 -51
4 -58 9 -9 5 -28 -6 -58 -35 -25 -23 -58 -46 -75 -49 -16 -4 -34 -15 -39 -26
-10 -18 -13 -18 -40 -4 -41 21 -51 19 -44 -9 8 -34 -4 -66 -21 -59 -16 6 -26
-13 -29 -52 0 -14 -6 -25 -13 -25 -7 0 -18 -10 -24 -22 -11 -21 -12 -21 -26
-2 -9 13 -16 15 -21 7 -4 -6 -29 -14 -55 -18 -46 -7 -48 -9 -42 -34 8 -39 -18
-94 -66 -135 -43 -37 -59 -37 -89 -2 -7 9 -19 16 -28 16 -8 0 -34 16 -58 35
-48 40 -54 42 -54 19 0 -13 -7 -15 -35 -11 -25 4 -41 0 -60 -15 -19 -14 -30
-17 -37 -10 -7 7 -16 7 -28 0 -14 -9 -33 -6 -84 10 -37 12 -73 22 -80 22 -19
0 -47 56 -40 78 4 12 3 13 -3 4 -7 -9 -17 -10 -40 -1 -25 8 -37 7 -55 -4 -13
-8 -47 -17 -76 -20 -45 -3 -56 -1 -65 14 -8 13 -24 19 -49 19 -20 0 -40 5 -43
11 -4 5 -32 21 -62 35 -41 18 -59 21 -69 13 -9 -7 -21 -6 -44 6 -18 9 -39 14
-47 10 -9 -3 -24 2 -34 11 -17 16 -19 16 -19 1 0 -21 -30 -37 -67 -37 -16 0
-33 -4 -38 -9 -6 -6 -30 -14 -54 -20 -39 -9 -48 -7 -84 17 -28 19 -42 23 -45
14 -5 -15 -48 -16 -58 -1 -4 7 -21 9 -46 5 -54 -9 -81 7 -73 44 5 23 2 31 -14
40 -12 6 -21 8 -21 6 0 -3 -15 3 -32 12 -26 15 -34 26 -36 54 -4 46 -37 62
-96 48 -25 -5 -46 -5 -57 1 -10 5 -34 9 -54 9 -38 0 -85 35 -85 64 0 32 -35
87 -71 111 -48 31 -64 59 -46 77 9 9 13 34 12 71 -3 64 2 70 62 71 18 1 33 4
33 8 0 5 6 7 13 5 7 -1 12 10 12 29 0 20 4 30 11 27 24 -9 25 19 1 70 -39 83
-42 98 -19 94 11 -2 27 -9 36 -16 8 -7 20 -10 26 -6 18 11 11 33 -20 55 -22
16 -30 29 -30 53 l0 32 -13 -25 c-25 -48 -105 -15 -92 38 4 17 -1 29 -17 42
-19 16 -20 19 -6 20 9 0 20 9 23 20 13 40 11 111 -2 130 -12 17 -12 23 -1 35
26 29 34 40 41 58 3 9 11 17 16 17 6 0 13 16 17 36 5 27 2 40 -10 52 -14 14
-18 15 -25 3 -7 -10 -16 -11 -38 -4 -22 8 -31 7 -42 -4 -7 -8 -22 -12 -32 -10
-11 3 -21 1 -24 -4 -3 -4 -18 -4 -33 2 -21 8 -29 7 -39 -7 -8 -11 -22 -15 -42
-12 -33 5 -38 -1 -19 -20 10 -10 7 -16 -10 -28 -12 -8 -20 -20 -17 -25 10 -14
-28 -10 -52 6 -12 8 -23 31 -27 52 -15 87 -18 94 -42 103 -17 7 -24 17 -24 36
0 19 -4 25 -14 21 -8 -3 -20 1 -26 8 -7 8 -17 12 -22 9 -5 -3 -15 2 -23 12
-12 17 -11 22 6 40 19 20 19 21 -1 39 -33 30 -83 28 -113 -5z m-297 -1157 c0
-13 -3 -13 -15 -3 -8 7 -12 16 -9 21 8 13 24 1 24 -18z m-324 -319 c17 -14 17
-15 1 -10 -10 3 -23 6 -28 6 -5 0 -9 5 -9 10 0 14 13 12 36 -6z m89 -33 c14
-28 14 -30 -6 -36 -12 -4 -26 -2 -33 5 -8 10 -6 12 12 7 22 -5 30 7 12 18 -10
6 -14 35 -5 35 2 0 11 -13 20 -29z m115 -151 c0 -5 -4 -10 -10 -10 -5 0 -10 5
-10 10 0 6 5 10 10 10 6 0 10 -4 10 -10z m50 -61 c0 -5 -4 -9 -10 -9 -5 0 -10
7 -10 16 0 8 5 12 10 9 6 -3 10 -10 10 -16z m-2106 -14 c4 -12 2 -13 -13 -6
-10 6 -21 8 -24 5 -3 -3 -8 -1 -12 5 -4 7 4 11 18 11 14 0 27 -7 31 -15z
m2171 -14 c3 -10 2 -26 -1 -36 -5 -12 -4 -16 3 -12 6 4 14 0 17 -9 10 -27 7
-44 -10 -44 -10 0 -14 -6 -10 -15 5 -15 -8 -20 -46 -17 -10 1 -18 -3 -18 -8 0
-18 -29 -10 -40 10 -8 16 -8 22 3 26 11 4 12 15 7 46 -10 51 -3 70 20 63 10
-3 21 -1 25 5 10 17 43 11 50 -9z m-232 -251 c3 -13 0 -20 -9 -20 -8 0 -14 9
-14 20 0 11 4 20 9 20 5 0 11 -9 14 -20z m127 -20 c0 -5 -6 -10 -14 -10 -8 0
-18 5 -21 10 -3 6 3 10 14 10 12 0 21 -4 21 -10z m170 -40 c0 -5 -2 -10 -4
-10 -3 0 -8 5 -11 10 -3 6 -1 10 4 10 6 0 11 -4 11 -10z m3017 -32 c-3 -8 -6
-5 -6 6 -1 11 2 17 5 13 3 -3 4 -12 1 -19z m-3121 -95 c-2 -2 -11 0 -20 3 -14
5 -15 9 -5 15 12 7 34 -10 25 -18z m-3016 -113 c0 -5 -7 -10 -15 -10 -8 0 -15
5 -15 10 0 6 7 10 15 10 8 0 15 -4 15 -10z m2712 -410 c-2 -17 -10 -30 -18
-30 -8 0 -14 -4 -14 -10 0 -5 -7 -10 -17 -10 -9 0 -14 3 -10 6 3 3 2 16 -3 29
-11 28 4 45 40 45 24 0 26 -3 22 -30z m-872 -190 c14 -26 2 -116 -12 -102 -12
12 -17 122 -6 122 4 0 12 -9 18 -20z m7030 -304 c0 -3 -4 -8 -10 -11 -5 -3
-10 -1 -10 4 0 6 5 11 10 11 6 0 10 -2 10 -4z m-6445 -2506 c3 -5 2 -10 -4
-10 -5 0 -13 5 -16 10 -3 6 -2 10 4 10 5 0 13 -4 16 -10z m2975 -140 c13 -8
13 -10 -2 -10 -9 0 -20 5 -23 10 -8 13 5 13 25 0z m1949 -94 c9 -11 8 -22 -6
-51 -17 -35 -18 -36 -24 -14 -18 65 -1 102 30 65z m-1329 -72 c0 -8 -5 -12
-10 -9 -6 4 -8 11 -5 16 9 14 15 11 15 -7z m1212 -1 c23 -21 23 -43 -1 -43
-19 0 -31 18 -31 46 0 18 9 18 32 -3z m48 -63 c0 -5 -2 -10 -4 -10 -3 0 -8 5
-11 10 -3 6 -1 10 4 10 6 0 11 -4 11 -10z m90 -20 c8 -5 11 -10 5 -10 -5 0
-17 5 -25 10 -8 5 -10 10 -5 10 6 0 17 -5 25 -10z m-1910 -150 c0 -11 -2 -20
-5 -20 -2 0 -9 9 -15 20 -9 16 -8 20 5 20 8 0 15 -9 15 -20z m2001 -289 c27
-25 21 -55 -12 -58 -19 -1 -30 6 -44 29 -15 27 -16 30 -2 25 9 -3 18 0 21 9 7
18 13 18 37 -5z"/>
<path d="M3980 12278 c0 -4 -7 -5 -15 -2 -8 4 -22 3 -31 0 -13 -5 -14 -9 -3
-22 10 -13 9 -16 -9 -20 -11 -4 -21 -13 -20 -22 0 -10 -4 -28 -8 -41 -6 -19
-4 -22 7 -15 26 16 40 12 57 -14 9 -15 22 -31 28 -37 6 -5 25 -29 43 -52 18
-24 38 -43 45 -43 21 0 54 -43 58 -75 2 -23 11 -34 37 -47 44 -22 56 -43 42
-74 -7 -16 -19 -24 -36 -24 -22 0 -30 -9 -51 -55 -14 -30 -31 -55 -39 -55 -8
0 -11 -7 -8 -20 4 -14 1 -20 -7 -18 -20 4 -27 -41 -17 -95 8 -39 7 -55 -7 -83
-19 -41 -20 -58 -5 -83 17 -26 3 -71 -22 -71 -12 0 -17 -4 -13 -11 3 -6 1 -22
-7 -35 -12 -23 -14 -23 -31 -7 -10 9 -18 12 -18 8 0 -5 -11 2 -24 14 -20 18
-31 22 -56 16 -32 -7 -32 -7 -28 24 3 18 0 35 -5 38 -6 3 -7 1 -3 -5 7 -12 0
-14 -49 -17 -11 0 -28 7 -39 17 -16 15 -20 15 -33 2 -18 -18 -23 -18 -50 1
-12 9 -24 11 -27 6 -8 -12 4 -42 13 -37 9 6 7 -46 -2 -61 -5 -7 0 -16 12 -22
14 -8 21 -8 24 2 4 8 6 7 6 -3 0 -8 -6 -24 -14 -34 -8 -11 -15 -31 -15 -44 0
-13 -7 -30 -16 -39 -22 -22 -1 -42 26 -25 30 18 43 15 31 -7 -8 -13 -5 -28 9
-56 11 -21 17 -42 14 -47 -4 -5 7 -8 22 -6 17 2 33 12 39 24 6 11 15 19 20 17
6 -1 17 2 25 7 13 8 12 11 -5 24 -13 10 -15 15 -7 16 15 0 51 39 52 55 0 13
102 44 155 47 44 3 70 30 55 58 -4 8 -11 37 -14 63 -6 44 -5 49 14 54 12 3 19
11 16 19 -3 7 -1 16 4 19 6 4 10 15 10 27 0 15 3 18 13 10 18 -14 58 -8 69 11
5 9 15 17 23 17 8 0 11 7 8 18 -2 10 5 26 16 36 12 11 21 25 21 33 0 7 5 13
10 13 6 0 10 11 10 25 0 14 5 25 11 25 6 0 9 12 7 28 -2 21 1 26 15 24 11 -2
17 4 17 18 0 17 6 20 39 20 52 0 71 8 71 31 0 15 9 18 57 21 64 3 80 23 47 59
-16 17 -16 19 -1 19 24 0 22 51 -3 78 l-21 22 26 27 c14 15 25 32 25 36 0 5
11 6 25 3 16 -4 25 -2 25 5 0 7 8 5 20 -6 18 -17 19 -16 25 8 4 14 2 34 -4 45
-9 16 -18 19 -55 15 -38 -5 -45 -3 -50 15 -4 13 -19 23 -39 27 -41 8 -78 26
-72 35 3 4 -6 10 -20 12 -18 4 -26 0 -30 -13 -6 -16 -9 -17 -47 -3 -22 7 -56
28 -76 45 -42 37 -93 61 -107 49 -5 -4 -25 -11 -43 -15 -26 -5 -36 -3 -47 12
-19 24 -19 37 0 29 18 -7 20 19 3 31 -16 9 -98 10 -98 1z"/>
<path d="M4684 12183 c-18 -42 -11 -66 14 -41 8 8 15 8 27 -2 13 -10 15 -9 15
7 0 18 -28 53 -42 53 -3 0 -9 -8 -14 -17z"/>
<path d="M5847 12115 c3 -8 9 -12 14 -9 12 7 11 11 -5 17 -10 4 -13 1 -9 -8z"/>
<path d="M7652 12078 c2 -6 10 -13 16 -14 7 -1 8 0 2 3 -5 2 -8 9 -4 14 3 5 0
9 -6 9 -7 0 -10 -5 -8 -12z"/>
<path d="M7710 12065 c0 -3 9 -15 20 -27 l20 -22 0 27 c0 20 -5 27 -20 27 -11
0 -20 -2 -20 -5z"/>
<path d="M4237 11486 c-4 -10 -1 -13 8 -9 8 3 12 9 9 14 -7 12 -11 11 -17 -5z"/>
<path d="M5085 11150 c3 -5 8 -10 11 -10 2 0 4 5 4 10 0 6 -5 10 -11 10 -5 0
-7 -4 -4 -10z"/>
<path d="M14990 11128 c0 -10 -10 -18 -22 -20 -35 -5 -25 -22 15 -29 33 -5 35
-4 33 18 -3 29 -26 56 -26 31z"/>
<path d="M16157 11024 c-19 -17 -35 -24 -49 -21 -17 5 -19 2 -13 -21 3 -15 21
-42 38 -60 l31 -32 13 42 c7 24 10 50 7 60 -2 9 0 19 6 23 12 7 14 35 2 35 -4
0 -20 -12 -35 -26z"/>
<path d="M7627 10869 c7 -7 15 -10 18 -7 3 3 -2 9 -12 12 -14 6 -15 5 -6 -5z"/>
<path d="M16186 10861 c-4 -6 -5 -15 -2 -20 9 -14 -47 -21 -64 -8 -12 10 -21
6 -49 -21 -33 -32 -33 -33 -12 -39 15 -4 20 -11 16 -22 -4 -9 -9 -37 -12 -63
-5 -43 -4 -48 14 -48 24 0 48 26 56 60 4 14 24 39 46 55 21 17 37 34 34 38 -3
4 0 13 5 20 8 9 5 19 -7 36 -12 16 -21 20 -25 12z"/>
<path d="M16150 10675 c21 -28 41 -48 43 -44 2 2 8 11 15 21 10 12 10 18 1 24
-7 4 -9 3 -5 -4 12 -20 -19 -19 -44 2 -22 19 -23 19 -10 1z"/>
<path d="M6690 10662 c0 -10 4 -22 9 -27 12 -14 21 -85 10 -85 -21 0 -6 -16
34 -38 54 -28 81 -29 72 -2 -4 13 -2 20 7 20 8 1 7 5 -5 14 -12 9 -14 16 -8
21 18 10 13 19 -19 33 -16 8 -30 19 -30 25 -1 7 -16 22 -35 34 -32 20 -35 20
-35 5z"/>
<path d="M16127 10645 c-4 -8 -2 -17 3 -20 6 -4 10 3 10 14 0 25 -6 27 -13 6z"/>
<path d="M16000 10631 c0 -6 5 -13 10 -16 6 -3 10 1 10 9 0 9 -4 16 -10 16 -5
0 -10 -4 -10 -9z"/>
<path d="M6670 10314 c-52 -34 -155 -37 -196 -5 -27 21 -30 21 -39 5 -30 -52
-50 -65 -106 -71 -43 -4 -62 -2 -82 11 -25 17 -26 17 -29 -11 -2 -20 -9 -29
-25 -31 -12 -2 -27 -10 -33 -18 -7 -8 -20 -14 -30 -14 -10 0 -21 -8 -24 -17
-8 -21 18 -43 50 -43 13 0 25 -4 28 -9 14 -22 84 -22 135 0 57 24 70 20 97
-34 11 -21 21 -28 35 -24 10 3 21 1 24 -4 3 -5 14 -3 25 3 10 7 17 15 14 19
-2 4 3 10 12 13 13 5 13 10 -6 36 -21 30 -21 30 -1 30 11 0 22 9 26 19 3 11
19 24 36 30 30 10 30 11 14 41 -17 32 -11 38 14 16 19 -16 85 -30 76 -16 -3 6
5 10 18 10 29 0 57 29 57 58 0 15 -5 20 -15 16 -8 -4 -21 -2 -28 4 -8 7 -23 3
-47 -14z"/>
<path d="M5756 10231 c-3 -5 -15 -7 -26 -4 -14 4 -22 -1 -29 -20 -10 -27 -29
-37 -69 -37 -15 0 -44 -6 -65 -13 l-38 -14 44 -34 c40 -31 43 -37 35 -64 -4
-16 -5 -39 -1 -50 4 -11 7 -23 8 -27 1 -23 15 -16 15 8 0 40 14 58 44 59 14 1
37 12 51 25 14 13 25 19 25 14 0 -5 8 7 18 26 17 35 17 35 80 33 l63 -3 -30
31 c-17 17 -31 35 -31 40 0 16 -86 44 -94 30z"/>
<path d="M6060 10155 c0 -9 6 -12 15 -9 8 4 15 7 15 9 0 2 -7 5 -15 9 -9 3
-15 0 -15 -9z"/>
<path d="M5495 10150 c-4 -6 -21 -9 -38 -6 -18 3 -26 3 -19 0 6 -3 12 -12 12
-20 0 -8 5 -14 10 -14 6 0 10 5 10 11 0 5 4 8 9 5 4 -3 16 1 26 8 12 8 14 15
7 20 -6 3 -14 1 -17 -4z"/>
<path d="M5995 10130 c3 -5 14 -10 23 -10 15 0 15 2 2 10 -20 13 -33 13 -25 0z"/>
<path d="M7340 9075 c0 -8 2 -15 4 -15 2 0 6 7 10 15 3 8 1 15 -4 15 -6 0 -10
-7 -10 -15z"/>
<path d="M15555 9038 c-4 -10 -13 -18 -20 -18 -15 0 -8 -38 10 -56 17 -18 38
36 26 67 -8 21 -10 22 -16 7z"/>
<path d="M15465 8960 c-4 -6 5 -10 20 -10 15 0 24 4 20 10 -3 6 -12 10 -20 10
-8 0 -17 -4 -20 -10z"/>
<path d="M13080 7680 c20 -13 33 -13 25 0 -3 6 -14 10 -23 10 -15 0 -15 -2 -2
-10z"/>
<path d="M10027 7454 c-4 -4 -20 -8 -37 -9 -76 -4 -78 -5 -82 -29 -4 -19 -1
-23 11 -19 9 4 22 11 30 17 9 7 16 7 18 1 2 -5 8 -17 13 -25 9 -13 11 -13 20
0 5 8 8 19 7 25 -2 5 6 17 17 27 12 10 18 17 15 18 -3 0 -9 -3 -12 -6z"/>
<path d="M16770 7290 c-12 -7 -12 -12 -2 -22 9 -9 12 -9 12 5 0 21 19 22 26 2
4 -8 10 -12 16 -9 5 3 1 12 -9 20 -22 16 -24 16 -43 4z"/>
<path d="M16683 7273 c-9 -3 -10 -10 -2 -24 5 -11 7 -34 4 -53 -4 -20 -2 -36
4 -40 6 -4 11 -16 11 -27 0 -11 4 -18 9 -14 20 12 19 -12 -1 -30 -21 -17 -21
-18 -3 -31 17 -13 20 -10 36 24 10 20 24 38 31 38 7 1 19 2 26 3 8 1 10 9 6
26 -4 15 -2 25 5 25 15 0 14 53 -1 68 -9 9 -14 8 -22 -3 -11 -13 -33 -18 -69
-16 -13 1 -16 7 -11 25 6 25 -3 36 -23 29z"/>
<path d="M9320 7247 c0 -9 12 -16 29 -19 21 -3 28 -1 24 9 -3 7 -9 13 -13 13
-5 0 -15 3 -24 6 -10 4 -16 1 -16 -9z"/>
<path d="M16635 7250 c-4 -6 -11 -7 -17 -4 -7 4 -8 2 -4 -4 9 -14 33 -16 41
-3 3 5 1 12 -4 15 -5 4 -12 2 -16 -4z"/>
<path d="M7228 7223 c-43 -18 -44 -21 -23 -49 15 -19 15 -19 34 3 16 20 21 21
31 8 14 -16 40 -20 40 -6 0 5 -7 14 -15 21 -8 7 -15 19 -15 26 0 17 -4 16 -52
-3z"/>
<path d="M7351 7172 c-10 -19 -8 -23 18 -37 17 -8 40 -15 52 -15 21 0 20 2
-11 25 -19 14 -37 30 -41 36 -4 8 -11 5 -18 -9z"/>
<path d="M16098 6875 c-8 -8 3 -55 13 -55 5 0 8 14 7 30 -2 29 -8 36 -20 25z"/>
<path d="M12448 6844 c-10 -9 3 -42 19 -48 8 -3 12 -10 8 -15 -3 -6 3 -15 14
-20 15 -9 20 -7 26 12 4 12 8 27 9 32 1 10 16 25 26 25 3 0 6 -11 6 -25 1 -14
-2 -25 -7 -25 -13 0 -11 -47 1 -55 6 -4 8 -15 5 -25 -6 -19 20 -36 30 -19 11
17 25 -1 25 -31 0 -21 12 -42 41 -72 24 -24 43 -54 43 -67 1 -14 7 -26 14 -29
7 -2 12 -10 12 -18 0 -8 5 -14 10 -14 6 0 10 5 10 10 0 6 4 10 10 10 10 0 2
-62 -10 -70 -4 -3 -7 -20 -8 -38 0 -22 5 -35 19 -43 29 -15 49 -4 49 25 0 17
11 33 30 48 17 12 30 30 30 39 0 10 11 26 25 37 20 16 24 26 19 49 -5 27 -3
31 25 36 33 7 40 27 16 47 -12 10 -15 10 -15 -4 0 -11 -9 -16 -29 -16 -32 0
-47 15 -43 42 3 16 -32 61 -41 52 -2 -2 -25 19 -51 46 -45 47 -50 50 -69 37
-19 -12 -25 -11 -57 7 -49 28 -57 38 -55 64 1 18 -3 22 -27 22 -16 0 -27 -4
-24 -9 3 -5 -6 -12 -21 -16 -19 -4 -29 -2 -35 9 -9 16 -20 20 -30 10z"/>
<path d="M10990 6820 c0 -5 5 -10 11 -10 5 0 7 5 4 10 -3 6 -8 10 -11 10 -2 0
-4 -4 -4 -10z"/>
</g>
</svg>
