<?xml version="1.0" standalone="no"?>
<!DOCTYPE svg PUBLIC "-//W3C//DTD SVG 20010904//EN"
 "http://www.w3.org/TR/2001/REC-SVG-20010904/DTD/svg10.dtd">
<svg version="1.0" xmlns="http://www.w3.org/2000/svg"
 width="1177.713333pt" height="995.645821pt" viewBox="0 0 1177.713333 995.645821"
 preserveAspectRatio="xMidYMid meet">
<metadata>
Created by potrace 1.15, written by Peter Selinger 2001-2017
</metadata>
<g transform="translate(-376.001588,1510.000000) scale(0.100000,-0.100000)"
fill="#222222" stroke="none">
<path d="M6467 15081 c-3 -14 -11 -18 -26 -14 -15 4 -21 1 -21 -11 0 -9 -9
-25 -19 -35 -16 -16 -30 -18 -86 -15 -37 2 -71 7 -76 10 -5 3 -12 -8 -15 -25
-4 -17 -14 -33 -25 -36 -15 -5 -17 -10 -9 -25 13 -25 13 -30 -5 -30 -10 0 -12
-6 -8 -17 6 -16 5 -16 -10 -4 -14 11 -20 11 -34 0 -13 -11 -17 -11 -20 -1 -3
6 -11 12 -19 12 -17 0 -60 26 -86 53 -10 9 -22 17 -27 17 -5 0 -13 9 -16 21
-4 13 -12 18 -22 15 -9 -4 -21 -2 -28 4 -6 5 -29 12 -50 15 -21 2 -46 12 -56
21 -22 20 -24 9 -4 -26 20 -34 18 -50 -4 -50 -11 0 -21 -5 -23 -12 -3 -8 -11
-7 -28 5 -14 9 -27 17 -31 17 -3 0 -18 -23 -32 -50 -21 -40 -24 -56 -17 -76
14 -35 13 -37 -10 -31 -16 4 -20 0 -20 -19 0 -13 -6 -24 -13 -24 -7 0 -29 -25
-48 -54 -35 -57 -50 -66 -107 -66 -38 0 -59 -20 -96 -91 -28 -52 -39 -63 -81
-76 -16 -5 -30 -16 -31 -24 -3 -38 -4 -40 -26 -34 -20 6 -19 3 10 -27 46 -49
43 -74 -9 -69 -9 1 -22 -5 -29 -14 -7 -8 -9 -15 -6 -15 4 0 2 -8 -3 -18 -7
-14 -6 -25 7 -43 9 -13 18 -43 20 -67 1 -24 9 -57 17 -72 16 -31 20 -70 7 -70
-4 0 -13 -20 -20 -44 -9 -34 -9 -52 0 -77 9 -26 9 -34 -2 -37 -14 -5 72 -88
100 -97 25 -8 32 -26 72 -188 9 -39 9 -50 -1 -56 -9 -6 -10 -11 -2 -15 17 -11
14 -49 -4 -42 -21 8 -20 -47 1 -68 19 -19 28 -21 18 -3 -4 6 0 5 9 -3 20 -20
39 -151 24 -165 -23 -20 -14 -49 18 -55 55 -12 72 -27 79 -71 5 -28 3 -45 -5
-50 -9 -5 -7 -13 5 -30 9 -13 16 -36 16 -51 0 -16 4 -28 9 -28 10 0 23 -32 26
-63 1 -10 -9 -27 -22 -37 -28 -22 -23 -41 9 -35 33 7 39 -4 17 -26 l-21 -21
21 -15 c14 -9 32 -12 50 -8 23 5 30 2 33 -11 3 -16 4 -16 19 -1 17 16 54 17
92 2 9 -4 24 -2 33 5 12 11 17 10 30 -8 8 -12 25 -22 38 -22 15 0 27 -9 34
-25 7 -14 20 -25 31 -25 22 0 45 25 36 39 -3 6 15 25 40 43 31 22 48 42 52 61
3 15 14 32 24 38 10 5 16 15 13 23 -4 10 8 15 40 20 43 7 63 26 50 48 -4 5 4
8 17 6 19 -2 26 3 35 32 20 62 109 68 125 7 9 -34 -11 -47 -71 -47 -37 0 -41
-3 -46 -30 -4 -16 -12 -30 -19 -30 -8 0 -11 -8 -8 -21 4 -14 0 -25 -9 -30 -9
-5 -14 -18 -11 -32 3 -17 -4 -33 -27 -55 -30 -31 -31 -33 -24 -94 4 -35 13
-76 21 -92 8 -15 13 -37 10 -47 -3 -11 -1 -19 3 -19 4 0 13 -13 18 -30 7 -19
16 -28 25 -24 17 6 45 -24 31 -34 -9 -7 -14 -35 -14 -91 0 -24 -6 -34 -20 -38
-15 -4 -18 -11 -14 -29 6 -22 3 -24 -27 -24 -23 0 -40 -8 -58 -29 -29 -32 -62
-51 -86 -51 -9 0 -31 -10 -48 -22 -18 -13 -37 -22 -44 -20 -7 1 -17 -6 -22
-17 -16 -29 -78 -37 -105 -14 -11 11 -43 25 -71 31 -36 9 -60 23 -85 51 -20
21 -41 36 -49 33 -8 -3 -20 3 -28 14 -18 25 -16 37 6 31 14 -3 20 1 23 18 7
34 -14 55 -56 55 -24 0 -36 5 -36 14 0 8 -9 24 -21 37 l-21 24 6 -25 c5 -23 4
-24 -9 -6 -9 12 -29 19 -60 21 -25 2 -43 0 -41 -4 3 -4 -4 -22 -14 -39 -17
-28 -24 -32 -52 -27 -17 3 -35 8 -40 11 -4 3 -17 7 -29 9 -29 6 -49 24 -49 46
0 10 -9 23 -20 29 -16 9 -20 8 -20 -5 0 -12 -6 -15 -22 -9 -13 3 -27 13 -31
20 -4 8 -15 14 -23 14 -8 0 -19 11 -25 24 -7 14 -23 26 -39 30 -17 3 -31 14
-35 26 -5 16 -10 18 -20 10 -10 -8 -15 -8 -20 0 -5 8 -11 8 -21 -1 -12 -9 -20
-9 -39 1 -14 7 -25 18 -25 24 0 6 -9 17 -20 23 -15 10 -21 10 -27 0 -4 -6 -18
-18 -30 -25 -20 -10 -23 -10 -23 3 0 9 -11 20 -25 25 -17 7 -25 17 -25 34 0
14 -9 32 -22 41 -20 13 -21 18 -10 36 16 24 12 30 -31 45 -24 8 -32 17 -33 36
-1 14 -4 30 -8 36 -3 6 -2 13 4 17 20 12 10 26 -10 15 -16 -8 -27 -7 -51 7
-30 18 -31 18 -49 -5 -19 -23 -44 -22 -54 3 -3 10 -13 12 -33 6 -15 -4 -34 -6
-42 -3 -10 3 -12 0 -8 -12 5 -12 3 -16 -5 -14 -7 3 -15 15 -18 29 -5 20 -12
24 -44 24 -41 0 -50 -9 -61 -57 -4 -22 -11 -28 -30 -28 -16 0 -25 6 -25 15 0
8 -3 16 -7 16 -5 1 -21 3 -37 5 -16 2 -32 7 -35 12 -11 17 -51 21 -51 5 0 -8
-4 -11 -10 -8 -5 3 -10 -1 -10 -9 0 -18 -13 -20 -40 -6 -27 15 -53 2 -46 -24
8 -34 -68 -70 -133 -64 -46 5 -50 3 -54 -20 -3 -15 2 -37 11 -50 15 -23 15
-26 -6 -42 -12 -10 -22 -24 -22 -32 0 -7 29 -44 65 -82 36 -38 64 -74 62 -80
-3 -6 2 -19 11 -29 12 -13 13 -22 5 -40 -9 -20 -6 -27 26 -53 20 -16 53 -38
74 -49 36 -19 47 -38 27 -50 -5 -3 -7 -12 -4 -19 3 -8 1 -17 -4 -20 -10 -6 0
-81 12 -93 3 -3 22 -7 41 -8 41 -1 53 -11 37 -27 -20 -20 -14 -37 18 -53 21
-11 30 -23 30 -41 0 -14 7 -39 16 -55 8 -17 13 -33 10 -36 -8 -8 -26 7 -26 23
0 8 -4 14 -8 14 -15 0 -6 -42 10 -51 24 -14 48 0 54 31 3 14 12 27 19 27 8 0
12 -4 9 -8 -5 -9 15 -50 31 -61 5 -4 13 -2 17 5 6 9 8 9 8 0 0 -7 11 -13 25
-13 15 0 23 5 20 13 -3 6 4 18 14 24 21 13 51 8 51 -8 0 -4 7 -6 15 -3 8 4 15
1 15 -5 0 -6 5 -11 11 -11 5 0 7 5 4 10 -8 12 5 13 24 1 8 -5 12 -18 8 -29 -7
-30 12 -32 52 -5 24 16 43 22 61 18 18 -4 37 2 64 20 20 14 43 25 50 25 6 0
21 6 31 14 12 8 26 11 35 6 28 -14 78 0 84 25 6 22 7 22 47 9 43 -15 59 -12
59 13 0 12 3 13 14 4 10 -8 16 -9 21 -1 3 6 11 8 16 5 5 -4 12 1 15 9 4 9 18
16 33 16 15 0 32 5 38 11 15 15 97 -14 101 -35 2 -9 -3 -16 -13 -16 -8 0 -19
-10 -24 -22 -11 -31 -11 -118 0 -118 21 0 8 -41 -16 -50 -29 -11 -31 -22 -8
-56 16 -25 16 -25 -10 -19 -25 7 -26 6 -18 -23 6 -20 5 -34 -2 -42 -9 -9 -5
-18 19 -38 41 -36 60 -93 44 -133 -7 -16 -20 -29 -29 -30 -9 0 -2 -7 16 -16
18 -9 35 -25 39 -35 3 -10 10 -18 16 -18 5 0 8 7 4 15 -6 18 -3 18 48 4 29 -8
41 -8 46 1 9 14 30 5 30 -13 0 -14 72 -57 94 -57 9 0 16 -6 16 -12 1 -29 17
-41 40 -28 32 17 49 -3 19 -24 -26 -18 -27 -16 27 -40 36 -16 43 -23 48 -57 4
-22 10 -37 15 -34 5 3 12 -4 16 -15 3 -11 15 -20 26 -20 24 0 46 -49 28 -61
-9 -5 -3 -16 19 -35 18 -16 32 -34 32 -40 0 -20 50 -47 64 -35 8 7 21 6 40 -4
15 -8 45 -14 66 -13 43 1 72 -14 124 -67 19 -19 38 -30 41 -25 3 6 10 10 16
10 13 0 11 -44 -3 -58 -9 -9 -8 -13 5 -18 9 -3 19 -20 23 -37 3 -17 17 -48 29
-68 13 -20 25 -49 27 -65 3 -26 6 -29 39 -28 32 1 39 -3 62 -39 25 -38 28 -65
6 -51 -6 3 -5 -3 3 -15 13 -21 45 -37 55 -28 10 11 62 -15 68 -33 6 -19 21
-26 66 -35 13 -3 27 -11 31 -20 6 -9 23 -15 43 -15 23 0 35 -5 35 -14 0 -8 7
-16 15 -20 8 -3 15 -13 15 -23 0 -10 9 -24 19 -30 12 -7 17 -19 15 -31 -3 -10
2 -38 10 -62 12 -34 12 -46 3 -52 -9 -6 -8 -11 3 -18 8 -6 20 -14 26 -18 14
-10 59 -85 56 -94 -1 -5 4 -7 11 -5 7 1 13 -11 15 -28 2 -16 9 -34 16 -40 21
-16 27 -45 11 -45 -20 0 -20 -49 0 -76 8 -12 12 -24 9 -27 -3 -3 10 -13 30
-22 25 -12 36 -24 36 -39 0 -11 4 -27 9 -35 11 -17 76 -41 112 -41 34 0 54
-21 36 -39 -9 -10 -8 -14 6 -22 9 -6 24 -24 33 -40 12 -24 18 -28 29 -19 8 7
19 9 25 5 7 -4 30 -7 52 -7 22 1 51 -6 64 -15 30 -19 52 -11 60 22 7 30 39 31
39 1 0 -20 6 -24 73 -52 23 -9 57 -28 74 -41 18 -12 37 -23 43 -23 5 0 39 -27
74 -60 35 -33 68 -60 73 -60 12 0 71 -42 81 -58 5 -7 13 -10 18 -6 5 3 21 -1
34 -10 13 -9 31 -16 38 -16 8 0 20 -7 27 -15 7 -8 22 -15 34 -15 12 0 32 -7
45 -16 21 -15 25 -15 50 4 25 18 30 19 61 6 18 -8 35 -12 38 -10 2 3 21 -6 42
-19 21 -13 51 -27 67 -31 15 -4 33 -11 39 -16 6 -4 18 -6 25 -3 8 2 22 -7 32
-21 16 -21 16 -28 6 -41 -18 -21 -11 -85 11 -100 11 -8 16 -21 13 -31 -3 -14
-13 -18 -41 -17 -20 1 -45 -2 -55 -7 -14 -7 -22 -5 -31 7 -10 14 -21 15 -59
10 -41 -6 -47 -10 -47 -31 0 -23 -9 -28 -47 -27 -9 0 -9 -4 0 -19 10 -15 9
-20 -2 -27 -11 -7 -11 -9 0 -13 10 -4 6 -13 -15 -32 -15 -15 -31 -25 -33 -22
-3 3 -15 -6 -26 -20 -17 -22 -18 -29 -7 -50 7 -13 22 -33 33 -44 17 -20 18
-23 3 -39 -21 -23 -20 -37 5 -78 18 -29 21 -45 17 -97 -4 -43 -1 -68 8 -81 7
-10 10 -23 7 -29 -15 -24 -9 -48 14 -57 16 -6 22 -13 17 -21 -6 -10 -4 -10 8
0 13 10 18 10 24 1 4 -7 3 -9 -3 -6 -6 4 -16 -6 -22 -23 -9 -28 -41 -43 -41
-20 0 7 -6 7 -18 1 -13 -7 -31 -3 -65 13 -35 17 -47 20 -47 10 0 -9 -12 -14
-31 -14 -31 0 -31 -1 -26 -35 5 -28 2 -35 -11 -36 -10 0 -3 -7 16 -15 17 -8
32 -18 32 -22 0 -15 91 -34 106 -21 7 6 24 12 38 13 23 3 26 -1 32 -40 3 -24
11 -41 16 -38 13 8 48 -26 48 -48 0 -10 -5 -18 -12 -18 -9 0 -9 -3 1 -12 10
-11 14 -10 22 4 10 18 34 14 58 -9 7 -8 25 -13 40 -11 14 2 31 -2 36 -9 14
-16 64 -18 102 -4 23 9 34 21 38 43 5 23 17 34 52 49 24 10 54 19 66 19 12 0
43 11 69 25 l46 25 47 -21 c34 -15 50 -18 58 -10 18 18 33 13 80 -31 59 -56
74 -68 79 -62 3 2 10 -7 16 -21 10 -22 9 -25 -9 -25 -16 0 -18 -3 -9 -19 6
-12 6 -22 1 -26 -6 -3 -16 -19 -25 -35 -13 -28 -13 -31 6 -44 23 -16 48 -11
48 10 0 8 7 14 15 14 9 0 15 9 15 25 0 21 3 24 18 16 12 -7 24 -4 41 10 40 32
54 25 47 -23 -8 -60 -11 -72 -20 -86 -5 -8 2 -12 23 -12 37 0 62 -9 55 -21 -3
-5 6 -4 20 3 14 6 26 15 26 19 0 5 14 6 31 2 40 -8 54 12 33 45 -26 39 -9 50
23 15 35 -37 62 -42 70 -13 7 25 30 26 56 3 11 -10 18 -13 14 -8 -3 6 8 17 24
24 33 14 35 24 14 65 -14 26 -14 31 0 53 16 23 15 26 -17 63 -18 21 -39 37
-46 34 -19 -5 -62 17 -62 33 0 7 6 16 14 19 10 4 12 14 6 38 -10 46 -19 58
-38 52 -19 -6 -92 56 -92 78 0 7 -13 25 -30 41 -16 16 -33 43 -36 61 -4 20
-14 36 -25 39 -19 6 -26 35 -12 49 4 3 16 -3 27 -14 60 -59 98 -80 148 -80 42
0 50 -3 60 -25 6 -14 18 -25 25 -25 8 0 40 -26 71 -58 56 -56 58 -57 86 -44
18 9 31 11 38 4 6 -6 6 -12 0 -16 -31 -19 25 -66 78 -66 11 0 20 -10 24 -25 6
-24 26 -36 26 -15 0 6 9 10 20 10 11 0 20 5 20 11 0 21 19 -2 25 -31 4 -17 13
-30 21 -30 9 0 13 -4 10 -8 -3 -5 11 -23 31 -41 27 -24 33 -35 24 -41 -10 -5
-10 -9 -1 -15 6 -4 9 -18 5 -34 -5 -23 -1 -31 20 -45 14 -9 25 -23 25 -30 0
-7 7 -19 15 -26 9 -7 14 -19 11 -25 -11 -29 44 -56 66 -31 11 12 15 12 30 -1
13 -12 21 -12 38 -3 18 10 25 9 39 -4 15 -15 14 -17 -6 -22 -19 -5 -21 -9 -12
-26 6 -11 8 -30 5 -43 -5 -18 1 -29 25 -49 37 -31 68 -33 103 -5 24 19 28 20
50 6 13 -9 33 -13 45 -10 28 7 86 -23 102 -54 7 -13 21 -23 33 -23 25 0 108
39 122 58 8 11 23 13 65 8 30 -3 61 -7 69 -8 8 0 20 -5 26 -9 7 -6 16 -3 24 6
9 11 9 15 1 15 -7 0 -9 5 -6 10 3 6 15 10 26 10 10 0 19 5 19 11 0 6 7 8 15 5
11 -4 17 3 22 24 6 34 22 39 30 10 6 -24 19 -26 27 -4 6 15 9 15 29 -5 13 -12
36 -21 54 -21 17 0 42 -10 59 -25 32 -27 41 -30 64 -15 12 7 12 12 2 22 -21
21 -13 28 33 28 43 0 46 -2 61 -40 9 -22 22 -40 29 -40 21 0 40 -29 27 -42 -8
-8 -5 -16 13 -29 28 -23 45 -24 45 -4 0 9 9 15 24 15 19 0 27 -8 35 -33 13
-40 7 -63 -19 -70 -17 -4 -18 -8 -8 -35 7 -17 20 -33 30 -35 14 -4 17 -11 11
-39 -3 -18 -10 -36 -16 -39 -5 -4 -5 -9 2 -13 6 -4 9 -12 6 -17 -4 -5 -2 -9 4
-9 5 0 11 5 13 12 3 7 12 9 22 5 12 -5 17 -16 15 -34 -5 -42 8 -56 45 -49 37
6 88 -31 106 -79 10 -26 9 -32 -10 -47 -12 -10 -35 -18 -51 -18 -23 0 -29 -4
-29 -22 0 -13 -7 -32 -15 -42 -21 -28 -19 -37 8 -31 14 4 50 -6 92 -24 59 -25
70 -33 70 -54 0 -13 5 -30 11 -38 6 -8 14 -29 16 -46 4 -28 1 -33 -15 -33 -14
0 -18 -5 -14 -20 3 -13 -1 -21 -15 -26 -15 -4 -17 -9 -9 -17 6 -6 11 -18 11
-26 0 -8 7 -22 16 -32 9 -10 17 -35 18 -57 1 -22 11 -51 24 -67 12 -15 22 -32
22 -38 0 -6 7 -19 16 -29 14 -14 14 -20 4 -33 -10 -12 -10 -15 1 -15 7 0 23
-10 36 -22 22 -21 24 -21 37 -3 9 13 20 16 37 12 13 -3 43 -1 67 5 43 11 44
10 85 -28 84 -79 78 -77 121 -48 39 27 80 33 149 21 29 -5 37 -4 37 8 0 8 6
15 14 15 8 0 25 18 37 40 15 26 30 40 43 40 51 0 75 151 46 288 -15 71 -9 85
19 51 18 -22 20 -22 21 -5 0 11 3 16 7 13 9 -9 53 33 53 50 0 15 12 17 26 3
14 -14 94 20 94 39 0 27 14 0 16 -32 4 -45 -4 -65 -27 -72 -15 -5 -20 -15 -19
-38 3 -51 1 -57 -19 -57 -22 0 -31 -19 -31 -65 0 -28 4 -33 27 -38 16 -3 31
-1 34 5 4 6 15 7 26 4 16 -5 23 2 39 39 13 34 22 44 34 39 8 -4 25 -7 37 -8
12 -1 25 -4 29 -8 12 -12 79 -9 91 3 9 9 14 5 19 -17 4 -16 22 -43 40 -60 29
-27 36 -30 51 -19 12 9 22 10 29 4 18 -15 45 1 39 22 -4 13 -1 19 9 19 9 0 16
-4 16 -10 0 -5 6 -10 14 -10 14 0 30 55 20 71 -3 6 0 17 7 25 11 13 9 19 -11
35 -20 15 -22 19 -7 19 21 0 23 18 2 26 -21 8 -19 44 2 44 15 0 14 2 -3 15
-19 14 -19 14 2 15 32 0 72 23 83 48 13 28 37 38 56 22 16 -13 39 -4 29 11 -3
6 3 13 14 16 14 3 19 10 15 21 -5 12 -2 14 11 9 22 -9 56 9 56 28 0 20 6 19
41 -6 l29 -21 19 23 18 22 6 -29 c3 -16 18 -42 33 -58 27 -29 28 -29 37 -8 6
12 18 24 27 27 12 4 16 12 13 24 -7 26 27 43 66 35 30 -6 31 -5 33 32 4 82 -6
124 -42 193 -28 52 -32 67 -26 103 23 149 27 161 48 140 7 -7 17 -8 29 -1 30
16 43 6 56 -41 13 -48 8 -83 -10 -77 -6 2 -17 -6 -23 -18 -14 -28 -6 -85 12
-85 8 0 14 -5 14 -10 0 -12 32 -9 41 3 4 5 19 2 35 -6 20 -10 47 -13 87 -9 51
4 61 2 83 -19 24 -23 26 -23 38 -6 7 9 21 17 30 17 9 0 19 6 22 13 6 16 37 16
56 -1 26 -21 94 -26 128 -9 35 18 57 14 65 -13 9 -28 37 -17 57 22 15 29 16
40 6 68 -9 28 -9 35 2 38 8 3 25 16 38 29 36 36 60 17 53 -43 -1 -6 8 -19 18
-28 11 -10 17 -24 15 -31 -6 -14 24 -35 41 -29 6 2 15 -12 21 -30 9 -28 8 -38
-4 -49 -12 -13 -12 -18 3 -40 9 -15 17 -47 17 -72 1 -41 6 -51 52 -99 49 -50
53 -52 86 -44 19 5 42 9 50 9 25 1 60 21 60 36 0 17 65 83 82 83 8 0 18 4 23
9 6 5 21 11 35 13 20 2 25 9 25 30 0 14 3 30 8 34 4 4 7 17 7 29 0 14 9 26 25
33 15 7 25 20 25 33 0 15 5 19 15 15 17 -6 16 -9 16 107 0 50 -4 84 -13 94
-15 18 -20 71 -7 79 5 3 5 14 -1 25 -13 23 -3 25 22 2 15 -13 18 -14 18 -2 0
8 -5 20 -12 27 -14 14 -72 16 -63 2 3 -6 -1 -7 -9 -4 -9 3 -16 17 -16 30 0 14
-6 24 -14 24 -8 0 -18 9 -21 20 -3 11 -10 20 -15 20 -4 0 -15 18 -24 39 -8 22
-24 42 -36 46 -24 7 -26 21 -5 29 20 7 1 49 -30 66 -13 7 -26 21 -29 32 -4 16
-10 19 -31 14 -20 -5 -40 2 -81 28 -47 29 -53 36 -41 48 8 8 33 20 55 27 24 8
42 21 45 33 5 18 6 18 41 -2 44 -24 46 -24 46 -4 0 11 5 14 17 10 19 -8 33 9
33 42 0 19 3 21 19 13 14 -8 22 -7 31 4 7 8 19 15 26 15 8 0 14 10 14 23 0 14
9 26 23 32 12 6 28 25 36 43 11 23 21 32 38 32 13 0 23 5 23 11 0 6 7 9 15 5
22 -8 18 15 -10 57 -23 33 -31 39 -51 36 -8 -1 -24 22 -24 34 0 4 14 7 30 7
35 0 38 13 10 58 -16 26 -24 31 -38 24 -38 -21 -95 29 -101 88 -4 43 -16 67
-49 95 -26 22 -26 64 0 49 7 -4 5 1 -4 11 -24 26 -109 32 -131 10 -9 -9 -21
-14 -26 -10 -5 3 -13 0 -16 -5 -5 -8 -11 -6 -18 4 -11 13 -35 20 -64 17 -6 0
-9 -9 -7 -18 5 -19 -42 -48 -51 -32 -3 4 -12 6 -19 3 -14 -5 -77 42 -73 54 1
4 -7 17 -18 29 -37 40 -50 58 -50 68 0 5 -10 30 -23 55 -12 25 -24 60 -28 78
-6 30 -5 32 23 32 42 0 46 9 19 45 -17 22 -21 36 -15 47 14 24 -8 33 -29 12
-16 -17 -17 -16 -23 7 -3 13 -12 40 -21 59 -8 19 -18 42 -21 50 -3 11 -7 8
-15 -11 -9 -22 -16 -26 -56 -26 -40 -1 -46 2 -46 21 0 11 -12 39 -25 61 -26
42 -76 65 -142 65 -26 0 -33 4 -33 19 0 11 -6 21 -12 23 -10 4 -8 14 6 40 20
37 17 100 -6 114 -8 5 -9 2 -5 -10 9 -23 -13 -30 -67 -18 -48 10 -45 13 -47
-49 0 -20 -1 -20 -13 -4 -9 13 -20 16 -39 11 -20 -5 -27 -3 -27 7 0 8 -8 25
-19 38 -19 25 -35 119 -20 119 21 0 6 29 -30 62 -21 19 -49 54 -60 77 -28 55
-55 80 -91 88 -40 8 -58 29 -31 38 18 6 19 7 4 25 -9 10 -22 16 -29 13 -8 -3
-14 0 -14 6 0 6 -8 11 -17 11 -12 0 -14 3 -6 8 11 7 2 89 -13 114 -4 6 0 16 8
22 13 10 9 24 -29 104 -25 52 -52 96 -62 99 -9 3 -27 15 -40 27 -13 12 -21 15
-16 7 6 -11 3 -13 -16 -8 -13 4 -27 7 -31 7 -3 0 -11 13 -16 29 -10 27 -58 61
-89 61 -7 0 -13 5 -13 11 0 24 -30 39 -77 39 -27 0 -54 5 -61 12 -9 9 -12 8
-12 -4 0 -29 -20 -30 -30 -3 -9 23 -14 25 -45 19 -37 -7 -70 9 -59 28 4 6 0
15 -7 20 -11 8 -11 11 -1 15 10 4 10 8 1 19 -9 11 -7 14 9 14 16 0 24 10 34
47 11 40 18 48 46 55 24 6 32 14 32 30 0 31 47 95 75 102 20 5 24 14 30 65 7
58 7 59 38 57 30 -1 32 1 31 32 -1 17 2 32 7 32 4 0 7 18 4 40 -3 35 -2 38 14
28 13 -8 28 -5 63 11 26 11 50 21 54 21 4 0 12 8 19 17 11 15 16 16 39 4 14
-8 23 -18 20 -23 -3 -4 2 -8 10 -8 9 0 16 7 16 15 0 17 46 65 62 65 5 0 6 5 3
10 -3 6 -1 10 4 10 14 0 14 -13 1 -26 -14 -14 -2 -44 16 -44 8 0 14 -6 14 -12
1 -7 14 -29 30 -48 33 -38 38 -55 15 -46 -9 3 -15 0 -15 -9 0 -7 -9 -16 -19
-20 -20 -6 -20 -6 0 -26 14 -14 27 -18 47 -13 57 12 104 38 118 66 19 36 64
56 76 34 6 -11 17 -14 40 -9 22 4 29 3 24 -6 -11 -17 22 -25 40 -10 14 11 20
9 43 -19 14 -18 34 -32 44 -32 28 0 19 25 -14 37 -17 7 -33 21 -36 31 -3 14
-11 18 -24 15 -14 -4 -19 0 -19 15 0 22 -22 44 -41 40 -6 -2 -19 10 -28 27 -9
16 -26 38 -39 48 -12 10 -19 23 -16 29 4 7 2 8 -5 4 -6 -4 -14 -1 -17 7 -3 8
-14 17 -24 20 -12 3 -21 19 -27 48 -8 39 -7 45 10 52 10 4 23 5 28 1 16 -10 9
9 -8 22 -17 13 -17 13 0 14 10 0 16 4 13 9 -9 15 4 40 19 35 7 -3 15 2 18 10
4 9 14 16 22 16 11 0 15 6 11 18 -5 13 2 21 27 30 31 12 31 13 12 25 -12 7
-19 20 -17 30 3 15 -1 17 -25 11 -15 -4 -31 -12 -34 -17 -4 -5 -14 -7 -23 -4
-8 3 -18 2 -21 -2 -8 -14 -73 -4 -92 14 -15 16 -17 16 -26 0 -7 -13 -11 -14
-17 -5 -5 9 -9 9 -14 1 -4 -6 -2 -11 3 -11 6 0 11 -11 11 -24 0 -28 -30 -44
-42 -22 -8 15 -42 11 -65 -7 -9 -6 -13 -5 -13 4 0 8 -9 31 -20 52 -24 45 -27
117 -5 117 17 0 21 45 5 55 -10 6 -8 81 3 91 3 4 -5 18 -19 33 -13 14 -22 32
-19 39 5 15 -31 17 -40 2 -4 -7 -20 -3 -43 10 -19 12 -44 19 -54 17 -10 -3
-18 -2 -18 2 0 12 -44 11 -67 0 -13 -7 -19 -17 -16 -27 5 -12 1 -14 -15 -10
-15 4 -22 2 -22 -8 0 -8 -6 -14 -14 -14 -8 0 -16 -5 -18 -11 -4 -12 -68 -38
-112 -44 -22 -3 -29 0 -33 15 -5 19 -33 29 -33 11 0 -18 42 -61 60 -61 10 0
22 -5 26 -11 8 -13 -17 -32 -29 -20 -4 4 -20 6 -36 3 -25 -3 -30 -10 -37 -45
-4 -23 -7 -48 -7 -54 0 -7 -3 -10 -9 -7 -17 11 -38 -17 -28 -36 6 -10 10 -33
10 -50 0 -37 -21 -48 -62 -32 -26 9 -30 8 -37 -9 -6 -18 -107 -69 -135 -69 -5
0 -24 -12 -43 -26 -27 -20 -40 -24 -61 -18 -15 4 -36 9 -47 10 -11 1 -30 5
-42 9 -16 5 -23 2 -28 -16 -6 -19 -9 -20 -19 -8 -6 8 -26 19 -44 26 -30 11
-34 10 -50 -15 -30 -47 -48 -63 -65 -56 -12 4 -17 1 -17 -11 0 -13 -5 -16 -22
-10 -13 3 -27 6 -33 5 -5 -1 -40 -4 -76 -6 -61 -5 -68 -4 -83 17 -9 13 -16 17
-16 10 0 -10 -5 -10 -25 3 -13 9 -31 16 -38 16 -8 0 -20 7 -27 15 -11 14 -14
13 -27 -5 -8 -11 -11 -25 -7 -32 7 -11 -30 -8 -67 7 -10 4 -19 -3 -27 -20 -14
-29 -32 -28 -88 6 -17 11 -43 19 -58 19 -30 0 -86 26 -86 40 0 11 -35 22 -81
25 -20 1 -53 14 -75 29 -21 14 -44 26 -50 26 -6 0 -17 7 -24 15 -7 8 -27 15
-45 15 -24 0 -40 8 -57 29 -21 25 -26 26 -35 13 -9 -15 -12 -15 -37 2 -15 9
-30 15 -33 12 -7 -7 -56 19 -72 38 -26 31 -39 19 -30 -26 10 -54 -6 -73 -57
-70 -21 2 -33 -1 -30 -7 4 -6 -2 -15 -13 -21 -17 -9 -23 -6 -37 15 -15 23 -43
38 -29 15 3 -5 -1 -10 -9 -10 -9 0 -16 6 -16 13 0 6 -5 4 -11 -6 -7 -12 -17
-16 -30 -12 -15 5 -19 2 -19 -14 0 -12 -7 -21 -15 -21 -8 0 -15 -6 -15 -13 0
-8 -11 -23 -24 -36 -20 -19 -27 -20 -49 -10 -15 7 -24 15 -22 19 3 4 -4 15
-15 25 -14 13 -27 15 -47 10 -15 -3 -38 -7 -50 -7 -13 0 -23 -6 -23 -13 0 -8
-16 -14 -40 -17 -22 -2 -40 0 -40 5 0 18 -44 65 -56 60 -8 -3 -35 1 -60 8 -46
14 -84 56 -84 92 0 9 -13 23 -30 32 -16 8 -37 27 -46 40 -17 26 -54 34 -54 13
0 -7 -17 5 -38 25 -21 20 -43 37 -50 37 -7 0 -12 9 -12 20 0 10 -6 23 -13 27
-26 16 -45 58 -35 77 5 9 7 23 5 30 -3 8 -1 18 5 24 8 8 8 15 0 24 -5 7 -11
18 -11 23 -10 81 -81 170 -141 173 -19 2 -36 7 -38 12 -2 5 -21 31 -43 58 -21
28 -39 55 -39 61 0 13 -33 31 -59 31 -11 0 -25 9 -31 20 -6 11 -21 20 -34 20
-13 0 -36 14 -54 35 -18 19 -46 41 -62 50 -17 9 -30 24 -30 35 0 10 -5 22 -11
25 -17 11 -28 49 -17 62 14 17 -76 103 -100 97 -11 -3 -27 8 -45 30 -25 32
-26 39 -18 78 7 27 7 44 1 46 -14 5 -12 40 2 44 8 3 5 15 -11 36 -12 18 -18
32 -13 32 6 0 12 6 15 14 4 10 -4 12 -36 9 -70 -6 -137 3 -152 22 -14 17 -64
42 -99 50 -16 3 -30 14 -33 25 -3 11 -15 22 -27 26 -24 8 -47 35 -39 47 2 4 9
5 14 2 17 -11 52 32 47 59 -4 21 -3 23 14 13 10 -7 21 -20 24 -29 3 -10 16
-21 29 -24 25 -6 110 -105 110 -129 0 -22 17 -33 50 -35 46 -3 57 -1 50 10 -9
15 0 12 39 -11 20 -12 36 -27 36 -35 0 -20 18 -17 24 4 4 10 14 19 24 20 40 5
56 2 63 -10 6 -9 9 -8 14 4 10 26 -4 40 -33 35 -19 -4 -33 2 -50 20 -19 21
-29 24 -58 18 -21 -3 -34 -2 -30 3 8 14 -42 80 -73 96 -18 10 -30 26 -34 43
-6 31 -72 73 -79 51 -3 -8 -37 -13 -94 -14 -71 -2 -95 2 -121 16 -37 21 -55 9
-29 -19 20 -22 11 -32 -18 -22 -11 5 -27 6 -33 4 -19 -7 -16 8 5 24 15 12 12
13 -28 8 -25 -3 -64 -5 -88 -5 -26 1 -56 -7 -75 -19 -31 -18 -87 -26 -87 -11
0 4 -27 -2 -59 -12 l-59 -19 -28 28 c-27 27 -27 27 -37 6 -10 -23 -47 -32
-156 -38 -35 -3 -69 -9 -75 -15 -15 -15 -36 -12 -36 5 0 9 -16 31 -35 50 -46
47 -64 84 -70 144 -5 57 10 80 44 62 27 -15 31 -14 31 8 0 11 8 33 17 50 17
29 17 31 -2 45 -18 14 -18 15 -2 16 22 0 23 20 1 20 -13 0 -14 3 -5 14 8 10 8
16 -1 24 -7 6 -16 10 -20 9 -3 -1 -19 9 -33 21 -19 17 -36 23 -55 20 -22 -3
-30 0 -34 16 -3 12 2 24 12 32 9 7 14 16 9 20 -4 4 -7 2 -7 -6 0 -19 -30 8
-41 37 -5 13 -17 23 -28 23 -11 0 -23 9 -26 20 -7 24 -18 25 -34 6 -21 -26
-85 -53 -105 -46 -11 3 -41 3 -68 -1 -27 -4 -56 -5 -63 -2 -10 3 -18 -5 -25
-21 -5 -15 -16 -26 -22 -24 -7 1 -30 -1 -50 -5 -26 -6 -46 -3 -67 8 -39 20
-37 20 -50 -16 -13 -38 -27 -31 -33 16 -3 29 -1 35 14 35 24 0 22 9 -8 44 -23
25 -30 28 -71 23 -31 -3 -53 -13 -69 -30 -28 -31 -93 -44 -123 -25 -12 7 -21
16 -21 20 0 10 82 88 92 88 4 0 8 21 8 48 0 28 4 42 9 34 6 -10 10 -10 20 1
13 16 -2 37 -42 59 -22 12 -28 14 -60 16 -11 1 -17 9 -16 20 4 20 -21 62 -37
62 -16 0 -11 58 7 100 11 25 29 41 57 54 36 16 41 22 36 42 -5 21 -2 24 22 25
24 1 25 2 6 6 -26 5 -50 47 -48 83 1 14 -1 37 -5 51 -5 18 -2 32 7 41 12 12
11 17 -8 38 l-22 24 -7 -30 c-3 -17 -9 -36 -13 -42 -10 -16 -36 -3 -36 18 0
11 -4 21 -9 24 -5 3 -7 33 -4 65 5 51 3 60 -14 69 -33 18 -78 92 -75 123 5 44
-7 72 -28 66 -20 -5 -35 19 -46 79 l-7 38 26 -17 c33 -21 77 -23 77 -2 0 21
34 36 70 29 24 -5 36 -2 56 17 22 20 28 22 45 10 12 -7 18 -8 14 -2 -3 6 -2
11 4 11 21 0 24 50 5 71 -23 25 -28 103 -7 95 7 -3 13 -1 13 4 0 20 59 10 76
-12 11 -16 15 -17 11 -5 -4 10 -1 17 6 17 7 0 25 16 40 35 15 19 37 35 48 35
15 0 19 6 17 30 -1 16 -4 27 -6 25 -3 -2 -11 3 -19 11 -12 12 -18 12 -30 2
-13 -11 -18 -9 -30 8 -12 19 -18 21 -53 12 -22 -6 -39 -13 -38 -17 1 -3 -2
-14 -7 -24 -6 -14 -18 -18 -49 -17 -62 3 -66 2 -66 -19 0 -28 -31 -34 -69 -15
-24 12 -36 13 -44 5 -6 -6 -21 -11 -33 -11 -12 0 -27 -6 -33 -14 -10 -12 -19
-12 -56 -1 -59 18 -85 33 -85 49 0 7 -9 21 -20 31 -23 21 -27 55 -5 55 8 0 15
5 15 11 0 5 -4 8 -9 5 -5 -4 -30 10 -55 29 -26 19 -48 35 -50 35 -2 0 -6 -9
-9 -19z m-17 -1376 c17 -21 5 -31 -15 -12 -8 9 -15 18 -15 21 0 11 18 6 30 -9z
m-134 -150 c8 -19 20 -35 27 -35 7 0 18 -9 24 -19 17 -28 -9 -91 -37 -91 -11
0 -20 -4 -20 -10 0 -5 8 -10 18 -10 20 1 73 29 55 30 -7 0 -13 4 -13 9 0 17
29 20 56 7 23 -12 24 -15 9 -23 -9 -6 -16 -13 -16 -16 4 -30 -1 -48 -11 -44
-9 3 -13 -10 -14 -46 -1 -34 -6 -54 -16 -61 -12 -7 -13 -15 -5 -36 14 -38 4
-60 -25 -53 -35 8 -89 64 -86 88 1 11 -7 37 -19 58 -12 20 -18 37 -13 37 5 0
6 9 1 22 -6 16 -3 28 11 42 17 19 17 20 -4 43 l-22 23 25 -2 c15 -2 23 2 22
10 -2 6 5 12 15 12 29 0 34 11 15 32 -14 16 -15 21 -4 28 8 4 11 15 8 24 -13
32 4 15 19 -19z m444 -441 c0 -7 -7 -15 -16 -18 -14 -5 -13 -10 10 -33 36 -36
33 -45 -16 -39 -24 3 -53 5 -65 5 -14 1 -24 11 -32 32 -6 18 -11 32 -11 33 0
1 17 2 38 3 20 2 41 9 46 17 12 17 46 17 46 0z m134 -79 c-4 -8 -11 -12 -16
-9 -6 4 -5 10 3 15 19 12 19 11 13 -6z m-2825 -851 c15 9 30 -9 20 -24 -8 -13
-12 -12 -24 4 -8 11 -15 25 -14 30 0 6 3 5 6 -2 2 -6 8 -10 12 -8z m121 -284
c0 -5 -2 -10 -4 -10 -3 0 -8 5 -11 10 -3 6 -1 10 4 10 6 0 11 -4 11 -10z
m1810 -190 c0 -5 -4 -10 -10 -10 -5 0 -10 5 -10 10 0 6 5 10 10 10 6 0 10 -4
10 -10z m-116 -61 c-6 -11 -24 -2 -24 11 0 5 7 7 15 4 8 -4 12 -10 9 -15z
m-172 -78 c11 6 20 4 28 -6 7 -9 8 -15 2 -15 -5 0 -8 -9 -5 -20 6 -24 21 -26
29 -5 4 8 11 15 17 15 5 0 3 -8 -7 -18 -14 -16 -26 -50 -50 -142 -3 -8 -5 -27
-5 -42 -1 -19 -6 -28 -17 -28 -14 0 -14 -3 -4 -15 10 -12 9 -15 -6 -17 -11 0
-27 -1 -36 0 -13 1 -18 -5 -18 -22 0 -25 26 -44 32 -24 3 8 10 8 22 1 16 -9
15 -12 -15 -22 -25 -9 -30 -14 -20 -20 8 -5 11 -16 7 -26 -5 -15 -9 -15 -22
-4 -17 14 -34 50 -41 84 -2 10 -12 28 -22 40 -10 11 -18 34 -18 50 0 24 7 34
34 48 19 9 43 17 54 17 19 0 43 40 30 50 -17 13 -29 62 -24 94 4 29 8 34 22
27 10 -6 23 -6 33 0z m88 -321 c0 -5 -7 -10 -15 -10 -8 0 -15 5 -15 10 0 6 7
10 15 10 8 0 15 -4 15 -10z m200 -190 c0 -5 -2 -10 -4 -10 -3 0 -8 5 -11 10
-3 6 -1 10 4 10 6 0 11 -4 11 -10z m255 -270 c3 -5 -1 -10 -9 -10 -8 0 -18 5
-21 10 -3 6 1 10 9 10 8 0 18 -4 21 -10z m37 3 c-6 -2 -10 -9 -6 -14 3 -5 0
-9 -5 -9 -12 0 -14 13 -4 23 3 4 11 7 17 6 6 0 5 -3 -2 -6z m-102 -313 c0 -5
-4 -10 -10 -10 -5 0 -10 5 -10 10 0 6 5 10 10 10 6 0 10 -4 10 -10z m7630
-2490 c16 -9 20 -18 16 -35 -8 -31 12 -75 34 -75 10 0 33 -3 51 -6 23 -4 30
-3 20 4 -24 17 8 26 107 30 89 4 94 6 114 33 l22 29 21 -20 c12 -12 46 -30 74
-41 49 -18 52 -18 47 -2 -8 26 63 26 84 0 9 -11 30 -21 48 -23 18 -2 42 -10
55 -18 24 -16 53 -96 44 -121 -4 -8 -2 -17 2 -20 5 -3 7 -14 4 -24 -7 -26 32
-64 57 -56 12 4 25 -3 39 -21 l21 -26 -28 -33 c-19 -23 -31 -29 -39 -22 -23
17 -23 -30 -1 -68 10 -16 18 -39 18 -49 0 -18 -1 -18 -19 -2 -13 11 -27 15
-40 11 -22 -7 -27 -20 -12 -29 4 -3 11 -20 15 -37 7 -36 -7 -59 -35 -59 -11 0
-19 -4 -19 -10 0 -5 5 -10 12 -10 6 0 4 -7 -5 -18 -10 -10 -17 -24 -17 -30 0
-7 -15 -11 -37 -9 -32 2 -38 -1 -38 -18 0 -17 -9 -21 -50 -26 -27 -3 -55 -2
-62 3 -6 5 -17 29 -24 53 -18 59 -79 125 -79 84 0 -5 -4 -7 -10 -4 -5 3 -10
13 -10 21 0 8 4 12 10 9 15 -10 -1 28 -18 43 -12 9 -12 12 -3 12 26 0 -10 30
-73 61 -44 22 -67 28 -86 23 -14 -4 -33 -6 -43 -5 -27 4 -85 -26 -89 -45 -2
-13 -8 -12 -29 8 l-26 25 29 11 c18 6 27 15 23 22 -10 17 15 70 34 71 9 0 4 5
-11 11 -16 5 -28 14 -28 19 0 8 7 10 50 13 8 1 21 5 27 9 9 5 28 -7 57 -36 24
-25 53 -48 65 -52 13 -4 18 -11 14 -18 -4 -7 5 -4 21 6 20 14 31 16 39 8 19
-19 27 -12 27 25 0 19 5 44 10 54 6 11 6 21 1 24 -5 3 -11 -1 -15 -9 -9 -24
-56 -18 -78 10 -11 14 -25 25 -32 25 -6 0 -17 14 -23 30 -9 24 -17 30 -42 30
-21 0 -31 5 -31 15 0 8 -6 15 -12 15 -33 1 -40 16 -24 48 9 17 16 37 15 44 0
7 -5 1 -11 -14 -5 -16 -14 -28 -19 -28 -6 0 -7 -4 -4 -10 3 -5 3 -10 -2 -10
-11 0 -33 -50 -33 -76 0 -13 -4 -26 -10 -29 -15 -9 -12 -25 5 -25 8 0 15 -7
15 -15 0 -21 -9 -19 -30 7 -14 17 -21 20 -31 11 -14 -11 -79 -22 -77 -13 0 3
-9 23 -21 45 -11 22 -21 45 -21 51 0 23 -69 82 -103 88 -40 7 -46 18 -39 64 4
27 8 32 24 26 16 -5 19 -2 16 17 -2 17 3 25 17 27 11 2 28 11 38 20 17 16 20
15 32 -2 16 -21 60 -13 51 10 -6 17 28 13 64 -6z m-372 -114 c2 -21 -4 -56
-12 -77 -17 -41 -9 -83 16 -91 8 -3 13 -21 14 -47 0 -23 5 -46 11 -49 22 -14
84 -176 81 -214 -1 -29 4 -44 25 -66 15 -15 27 -35 27 -44 0 -9 9 -20 20 -23
11 -3 20 -15 20 -26 0 -25 -8 -24 -32 6 -20 25 -58 34 -58 14 0 -7 -11 -9 -29
-6 -15 3 -33 1 -39 -5 -15 -15 -42 8 -42 36 -1 23 -17 49 -40 60 -15 7 -43 23
-67 39 -10 6 -9 13 3 32 18 27 7 57 -26 75 -11 6 -20 15 -20 21 0 6 5 7 10 4
6 -4 10 7 10 25 0 16 5 39 12 49 9 15 7 23 -10 41 -11 12 -25 20 -30 17 -13
-9 -70 48 -78 77 -5 23 -3 26 19 26 14 0 28 7 31 16 3 8 2 13 -2 10 -4 -2 -16
2 -26 9 -18 14 -18 15 7 26 23 10 25 15 15 33 -13 24 -20 66 -10 66 3 0 16
-12 28 -27 21 -27 23 -27 42 -10 17 16 21 16 32 2 19 -23 39 -18 58 15 22 38
36 33 40 -14z m1182 -106 c0 -5 -4 -10 -9 -10 -6 0 -13 5 -16 10 -3 6 1 10 9
10 9 0 16 -4 16 -10z m10 -30 c0 -5 -2 -10 -4 -10 -3 0 -8 5 -11 10 -3 6 -1
10 4 10 6 0 11 -4 11 -10z m200 -196 c0 -8 -5 -12 -10 -9 -6 4 -8 11 -5 16 9
14 15 11 15 -7z m-640 -225 c0 -5 -7 -9 -15 -9 -8 0 -15 7 -15 15 0 9 6 12 15
9 8 -4 15 -10 15 -15z m-2826 -14 c3 -8 1 -15 -4 -15 -6 0 -10 7 -10 15 0 8 2
15 4 15 2 0 6 -7 10 -15z"/>
<path d="M6710 13070 c0 -5 -7 -10 -15 -10 -8 0 -15 -4 -15 -10 0 -5 11 -10
24 -10 19 0 23 4 19 20 -6 21 -13 27 -13 10z"/>
<path d="M5677 11483 c4 -9 10 -10 24 -2 24 13 24 14 -5 14 -14 0 -22 -5 -19
-12z"/>
<path d="M14345 7890 c3 -5 8 -10 11 -10 2 0 4 5 4 10 0 6 -5 10 -11 10 -5 0
-7 -4 -4 -10z"/>
<path d="M14290 7881 c0 -10 22 -31 32 -31 17 0 7 28 -12 33 -11 3 -20 2 -20
-2z"/>
<path d="M13880 7841 c0 -5 7 -11 14 -14 10 -4 13 -1 9 9 -6 15 -23 19 -23 5z"/>
<path d="M14322 7816 c2 -23 8 -30 27 -31 19 -2 21 0 9 9 -8 6 -20 20 -26 31
-11 18 -12 18 -10 -9z"/>
<path d="M14164 7793 c-9 -15 -15 -16 -37 -6 -15 7 -27 9 -28 5 0 -4 -2 -17
-3 -29 -2 -14 2 -19 11 -16 7 3 13 -1 13 -9 0 -8 6 -22 13 -33 13 -17 16 -17
60 5 26 13 47 30 47 37 0 9 8 11 24 7 17 -4 25 -1 30 13 3 10 9 24 12 30 4 10
-3 11 -28 6 -18 -3 -34 -10 -36 -15 -6 -13 -28 -9 -42 7 -16 19 -23 19 -36 -2z"/>
<path d="M14555 7540 c3 -5 8 -10 11 -10 2 0 4 5 4 10 0 6 -5 10 -11 10 -5 0
-7 -4 -4 -10z"/>
<path d="M6225 15040 c-3 -5 -1 -10 4 -10 6 0 11 5 11 10 0 6 -2 10 -4 10 -3
0 -8 -4 -11 -10z"/>
<path d="M5130 14576 c0 -9 -4 -16 -10 -16 -5 0 -10 -7 -10 -15 0 -18 -20 -19
-54 -3 -21 9 -33 8 -65 -7 -23 -10 -54 -16 -74 -13 -32 3 -34 2 -27 -18 7 -17
4 -24 -16 -32 l-24 -11 30 -45 c17 -24 36 -46 44 -49 7 -3 16 -24 20 -46 4
-27 11 -41 21 -41 8 0 15 -4 15 -10 0 -5 9 -10 20 -10 12 0 20 7 20 18 0 14 2
15 10 2 5 -8 10 -11 10 -6 0 5 6 3 14 -3 12 -10 17 -8 27 11 17 30 13 59 -12
80 -23 19 -25 54 -4 62 11 4 19 -3 27 -22 7 -15 13 -28 14 -30 5 -9 59 23 86
50 18 18 34 32 35 31 12 -11 18 3 15 32 -3 25 1 42 13 55 10 11 13 20 7 20 -6
0 -12 -6 -15 -12 -3 -9 -12 -6 -30 10 -31 29 -87 40 -87 18z"/>
<path d="M4710 14501 c0 -15 65 -43 91 -39 l23 3 -24 16 c-33 21 -90 34 -90
20z"/>
<path d="M4747 14407 c-39 -45 -37 -56 7 -36 21 10 28 8 52 -14 27 -26 44 -27
44 -4 0 7 -10 17 -22 22 -13 6 -28 20 -34 33 -16 33 -17 33 -47 -1z"/>
<path d="M7194 14216 c-6 -6 -14 -24 -18 -39 -5 -21 -12 -27 -34 -27 -52 0
-67 -9 -66 -40 0 -16 9 -40 18 -55 14 -21 20 -24 32 -15 7 7 11 16 8 21 -3 5
5 9 17 9 17 0 20 4 16 20 -3 12 1 33 9 48 8 15 14 32 14 39 0 7 8 16 18 22 11
6 14 13 7 20 -7 6 -14 5 -21 -3z"/>
<path d="M7103 14014 c-17 -7 -34 -18 -38 -23 -8 -13 16 -51 32 -51 8 0 13
-14 13 -39 0 -46 36 -105 68 -109 17 -3 23 -12 28 -43 4 -21 13 -44 20 -50 8
-6 14 -18 14 -25 0 -8 5 -14 10 -14 19 0 10 -42 -10 -47 -27 -7 -25 -22 5 -57
14 -16 25 -37 25 -48 0 -22 38 -25 47 -3 6 16 43 17 54 1 4 -4 16 -3 27 3 14
7 23 8 27 1 3 -5 -1 -10 -9 -10 -28 0 -26 -18 4 -37 36 -23 110 -20 110 4 0 9
-20 34 -44 55 -25 22 -42 46 -40 53 3 7 1 16 -5 19 -6 4 -8 20 -4 36 4 25 0
35 -27 60 -19 17 -46 34 -61 37 -42 8 -71 55 -68 109 2 25 -2 48 -8 52 -6 4
-12 16 -14 27 -3 12 -17 24 -39 31 -23 8 -36 19 -38 33 -2 11 -10 21 -18 21
-8 0 -14 7 -14 15 0 18 -5 18 -47 -1z"/>
<path d="M8870 12751 c0 -6 5 -13 10 -16 6 -3 10 1 10 9 0 9 -4 16 -10 16 -5
0 -10 -4 -10 -9z"/>
<path d="M5710 12720 c0 -5 7 -10 15 -10 8 0 15 5 15 10 0 6 -7 10 -15 10 -8
0 -15 -4 -15 -10z"/>
<path d="M9780 12698 c0 -6 -13 -8 -33 -5 -30 5 -37 1 -71 -39 -36 -42 -68
-55 -81 -34 -3 6 -14 10 -24 10 -20 0 -64 -34 -55 -43 3 -3 -4 -16 -15 -29
-21 -22 -21 -23 -4 -36 15 -11 19 -11 21 2 4 19 7 19 32 6 11 -6 17 -16 13
-25 -3 -9 0 -29 7 -46 11 -26 11 -33 -3 -46 -14 -15 -14 -19 4 -55 18 -36 39
-51 39 -28 0 6 6 10 14 10 7 0 25 9 40 21 14 11 30 18 35 15 17 -11 41 6 41
29 0 16 8 26 27 32 l27 9 -24 24 c-14 14 -25 29 -25 35 -1 5 -7 22 -15 38 -10
21 -11 30 -2 39 7 7 12 21 12 31 0 16 2 17 15 7 13 -11 13 -15 3 -22 -9 -5 -6
-7 9 -5 12 2 25 6 29 10 4 3 15 2 25 -4 11 -5 19 -6 20 -2 3 22 -3 60 -13 80
-11 22 -48 39 -48 21z"/>
<path d="M9406 12651 c-9 -13 15 -28 57 -36 30 -6 37 -4 37 9 0 28 -79 51 -94
27z"/>
<path d="M9928 12633 c-10 -2 -18 -11 -18 -19 0 -8 -7 -14 -15 -14 -11 0 -6
-10 15 -30 33 -33 62 -89 53 -104 -4 -5 -1 -6 6 -2 6 4 9 11 6 16 -3 4 4 6 15
3 21 -6 21 -6 26 47 3 39 -18 80 -41 80 -8 0 -15 7 -15 15 0 15 -2 16 -32 8z"/>
<path d="M6145 12220 c4 -6 11 -8 16 -5 14 9 11 15 -7 15 -8 0 -12 -5 -9 -10z"/>
<path d="M13637 11269 c7 -7 15 -10 18 -7 3 3 -2 9 -12 12 -14 6 -15 5 -6 -5z"/>
<path d="M13478 10673 c7 -3 16 -2 19 1 4 3 -2 6 -13 5 -11 0 -14 -3 -6 -6z"/>
<path d="M13980 10649 c0 -5 5 -7 10 -4 6 3 10 8 10 11 0 2 -4 4 -10 4 -5 0
-10 -5 -10 -11z"/>
<path d="M13960 10636 c0 -8 4 -17 9 -20 5 -4 7 3 4 14 -6 23 -13 26 -13 6z"/>
<path d="M6190 10432 c0 -5 9 -20 20 -33 17 -21 21 -22 30 -9 14 21 13 27 -7
34 -10 3 -24 9 -30 12 -7 3 -13 1 -13 -4z"/>
<path d="M6160 10389 c0 -5 5 -7 10 -4 6 3 10 8 10 11 0 2 -4 4 -10 4 -5 0
-10 -5 -10 -11z"/>
<path d="M6201 10373 c-1 -8 -12 -11 -33 -7 l-33 6 24 -20 c21 -17 27 -18 39
-6 7 8 11 20 9 27 -4 9 -6 9 -6 0z"/>
<path d="M13027 10219 c6 -20 9 -21 36 -11 15 6 13 9 -11 18 -26 10 -29 9 -25
-7z"/>
<path d="M14104 9611 c-27 -8 -74 -46 -74 -61 0 -7 14 -25 31 -41 25 -23 34
-26 55 -19 28 11 29 18 10 65 -10 23 -11 35 -4 37 20 7 3 24 -18 19z"/>
<path d="M14054 9458 c3 -10 9 -25 12 -33 3 -8 1 -15 -5 -15 -6 0 -11 -13 -11
-30 0 -22 4 -28 15 -24 20 8 19 73 -2 99 -13 16 -14 17 -9 3z"/>
<path d="M13940 9320 c0 -5 7 -10 16 -10 8 0 12 5 9 10 -3 6 -10 10 -16 10 -5
0 -9 -4 -9 -10z"/>
<path d="M13980 9302 c0 -10 7 -27 15 -38 16 -21 20 -8 9 34 -8 26 -24 29 -24
4z"/>
<path d="M13891 9286 c-9 -11 -8 -15 5 -20 25 -9 27 -7 13 11 -13 15 -12 16 9
11 12 -4 22 -2 22 3 0 14 -36 11 -49 -5z"/>
<path d="M13845 9200 c-3 -5 1 -10 9 -10 9 0 16 5 16 10 0 6 -4 10 -9 10 -6 0
-13 -4 -16 -10z"/>
<path d="M15400 8632 c0 -5 7 -9 15 -9 8 0 12 4 9 9 -3 4 -9 8 -15 8 -5 0 -9
-4 -9 -8z"/>
<path d="M15360 8595 c0 -8 -11 -17 -24 -21 -20 -5 -25 -13 -28 -51 -2 -29 1
-48 10 -56 8 -6 18 -22 23 -35 5 -13 18 -26 29 -29 22 -6 27 -23 8 -23 -10 0
-9 -3 1 -9 7 -5 10 -14 7 -20 -4 -7 0 -11 12 -11 59 0 133 81 111 122 -9 16
-8 19 2 13 9 -6 11 -3 6 8 -4 10 0 20 10 25 10 6 13 14 7 23 -5 8 -9 20 -9 28
0 8 -6 16 -12 18 -9 3 -11 -4 -7 -24 5 -24 1 -31 -18 -40 -18 -8 -28 -7 -43 3
-10 8 -27 14 -37 14 -10 0 -18 5 -18 10 0 6 9 10 20 10 32 0 22 28 -17 49 -28
14 -33 14 -33 -4z"/>
<path d="M15201 8338 c-5 -13 -21 -33 -36 -46 -25 -22 -61 -89 -52 -98 2 -2
27 0 55 6 29 5 59 7 69 3 11 -4 14 -3 9 5 -16 26 99 28 122 2 8 -8 11 -9 7 -2
-4 7 -2 19 4 25 13 17 -31 67 -59 67 -11 0 -20 6 -20 13 0 15 -51 47 -74 47
-9 0 -20 -10 -25 -22z"/>
<path d="M8017 8060 c-3 -11 -3 -20 -1 -20 2 0 8 9 14 20 6 11 7 20 2 20 -6 0
-12 -9 -15 -20z"/>
<path d="M9460 7748 c0 -8 5 -19 12 -26 20 -20 40 -14 36 11 -3 25 -48 39 -48
15z"/>
<path d="M8925 7570 c-3 -5 -4 -10 -1 -10 2 0 12 -3 22 -7 11 -4 15 -3 11 4
-4 6 -1 14 5 16 7 3 3 6 -9 6 -12 1 -25 -3 -28 -9z"/>
<path d="M8900 7550 c0 -12 28 -25 36 -17 3 3 -4 10 -15 17 -15 7 -21 7 -21 0z"/>
<path d="M9004 7528 c8 -42 11 -44 42 -27 l26 13 -29 23 c-38 31 -47 29 -39
-9z"/>
<path d="M15024 7443 c3 -6 2 -14 -4 -18 -12 -8 -13 -25 -1 -25 15 0 22 33 10
44 -9 8 -10 8 -5 -1z"/>
<path d="M15031 7364 c14 -38 19 -45 29 -39 9 6 -20 65 -32 65 -4 0 -3 -12 3
-26z"/>
<path d="M15170 7230 c0 -5 5 -10 11 -10 5 0 7 5 4 10 -3 6 -8 10 -11 10 -2 0
-4 -4 -4 -10z"/>
<path d="M15205 7230 c-3 -5 -1 -10 4 -10 6 0 11 5 11 10 0 6 -2 10 -4 10 -3
0 -8 -4 -11 -10z"/>
<path d="M13460 6670 c0 -5 5 -10 11 -10 5 0 7 5 4 10 -3 6 -8 10 -11 10 -2 0
-4 -4 -4 -10z"/>
<path d="M14575 6640 c-8 -13 15 -13 35 0 12 8 11 10 -7 10 -12 0 -25 -4 -28
-10z"/>
<path d="M13245 6610 c-3 -6 1 -7 9 -4 18 7 21 14 7 14 -6 0 -13 -4 -16 -10z"/>
<path d="M13133 6490 c-11 -16 -10 -21 7 -30 18 -10 20 -8 20 20 0 35 -10 38
-27 10z"/>
<path d="M12555 6480 c3 -5 8 -10 11 -10 2 0 4 5 4 10 0 6 -5 10 -11 10 -5 0
-7 -4 -4 -10z"/>
<path d="M11644 6089 c-3 -6 -1 -16 5 -22 8 -8 11 -8 11 1 0 7 14 12 32 12 38
0 34 5 -9 13 -19 4 -35 2 -39 -4z"/>
<path d="M11347 6054 c-21 -8 -50 -27 -63 -44 -14 -16 -33 -30 -41 -30 -8 0
-13 -6 -11 -12 3 -7 -3 -20 -11 -28 -15 -14 -32 -17 -118 -23 -17 -1 -29 -6
-26 -10 9 -15 -19 -56 -33 -50 -17 6 -17 2 -5 -31 7 -16 7 -26 0 -28 -5 -2
-12 -20 -16 -41 -4 -27 -1 -42 11 -56 15 -17 15 -20 -4 -44 -12 -15 -19 -31
-15 -37 3 -5 -5 -21 -19 -35 -15 -14 -26 -31 -26 -37 0 -6 -10 -33 -22 -59
-18 -38 -28 -48 -48 -49 -22 0 -27 -7 -40 -62 -14 -58 -17 -63 -45 -66 -40 -5
-48 -22 -24 -48 20 -22 21 -22 40 -3 10 10 19 23 19 28 0 5 6 14 14 20 11 10
21 9 45 -3 44 -23 80 -20 102 8 11 14 35 34 55 46 22 14 33 28 30 36 -4 11 1
13 19 8 30 -8 73 32 82 76 5 28 9 30 33 25 34 -7 77 9 84 32 3 10 16 23 28 28
29 13 31 61 5 92 -18 21 -18 22 1 32 17 9 20 18 15 46 -4 23 -2 35 6 35 6 0
11 9 11 19 0 10 7 21 15 25 8 3 15 15 15 26 0 11 9 29 20 40 11 11 20 27 20
35 0 8 5 15 11 15 5 0 8 4 4 10 -3 5 -3 21 1 35 4 18 13 25 29 25 13 0 26 -4
30 -10 13 -22 82 26 77 53 -3 15 -9 17 -30 11 -15 -4 -40 -7 -56 -6 -16 1 -44
-6 -63 -15 -35 -16 -48 -13 -48 14 0 22 -13 23 -58 7z"/>
<path d="M10741 5294 c-7 -8 -19 -13 -27 -10 -8 3 -14 -1 -14 -9 0 -8 -5 -15
-12 -15 -6 0 -9 -2 -6 -5 9 -10 78 28 78 42 0 16 -2 16 -19 -3z"/>
<path d="M10540 5222 c0 -5 8 -16 18 -26 21 -19 74 -13 93 10 17 21 6 27 -25
13 -20 -9 -32 -9 -51 -1 -31 14 -35 15 -35 4z"/>
<path d="M10484 5189 c-3 -6 -1 -16 5 -23 6 -7 7 -16 3 -20 -6 -7 48 3 56 10
2 1 1 11 -2 21 -6 19 -52 28 -62 12z"/>
</g>
</svg>
