<svg version="1" xmlns="http://www.w3.org/2000/svg" width="581.356" height="651.45" viewBox="0 0 436.017 488.587"><g fill="#222"><path d="M248 1c0 .5.5 1 1.1 1 .5 0 .7-.5.4-1-.3-.6-.8-1-1.1-1-.2 0-.4.4-.4 1zM244.8 5.5c.3 1.7-.1 2.7-1.2 3.1-.9.3-1.6 1.2-1.6 1.9s-.4 1.5-.9 1.7c-.4.1-1.1 1.3-1.5 2.5-.5 1.6 0 2.6 2.4 4.3 2.9 2.1 3 2.3 1.3 3.5-1 .7-2.1 1.1-2.5.9-1.6-1-.7 1.3 1.7 4.5 1.7 2.5 2.2 3.8 1.5 5.1-1.1 2 .5 4 3.1 4 2.3 0 3.1 2.8 2 6.5-.4 1.7-.6 4.5-.3 6.3.3 2 0 3.2-.7 3.2s-1 .4-.6.9c.3.5-.5 1.3-1.7 1.7-1.3.4-2.9 1.5-3.6 2.5-.7 1.1-2.2 1.9-3.2 1.9s-2.5.6-3.3 1.4c-.8.9-2.4 1.2-3.6.9-1.1-.3-2.1-.1-2.1.5 0 .7-.9.6-2.5-.1-1.4-.7-2.5-1.6-2.5-2 0-.5.5-.5 1-.2 1 .6 1.4-.7 1.1-3.3-.1-.7.5-1.5 1.4-1.8.8-.3 1.5-1.3 1.5-2.2 0-1.2-.5-1.1-2.3.6l-2.3 2.1-2.5-2.3c-1.8-1.7-3.3-2.2-5.2-1.9-2.9.6-3 .8-1.8 3.8.5 1.1.4 2.5-.1 3.2-.6.7-.5 1.9.2 3.3.8 1.6.8 2.1-.3 2.5-1.5.6-8.2-1.9-9.2-3.5-.3-.5-1.3-1-2.2-1-1.2 0-1.4.9-.8 5.2.4 2.9 1.1 5.4 1.6 5.6.5.2.9 1.5.9 2.8 0 1.7.6 2.4 2 2.4 1.1 0 2 .6 2 1.4 0 .8 1.5 1.9 3.2 2.5 2.8 1 3.5.9 4.5-.6 1.2-1.6 1.3-1.5 1.3.3 0 2.4-6.3 5.7-7.9 4.1-1.4-1.4-4 3.1-4.2 7.3 0 1.9.2 5.5.6 8 .8 5-.8 10.6-2.7 9.4-.7-.4-.8-.3-.4.4 1.5 2.5 13.6.1 13.6-2.7 0-1 1.8-2.4 4.5-3.6 3.7-1.6 4.5-2.5 4.5-4.6 0-2.2.8-3 4.9-4.8 2.7-1.1 6-2.1 7.4-2.1 1.4 0 2.4-.6 2.4-1.5 0-.8-.6-1.5-1.4-1.5-.7 0-1.3-.9-1.3-1.9 0-1-.7-2.1-1.5-2.5-.8-.3-1.5-1.7-1.5-3.2 0-1.5-.8-3.3-1.7-4-1.7-1.2-1.7-1.4-.1-4 1.6-2.7 8.1-5.9 10.3-5 .7.2 1-.7.7-2.5-.4-2.4-.1-2.8 1.2-2.3.9.3 2.8-.1 4.2-1.1 2-1.3 2.3-1.9 1.3-3.1-.9-1.1-.8-1.4.4-1.4 3.1 0 6.6-2.3 7.2-4.7.6-2.7-.3-5.2-1.4-3.5-.3.6-2-.2-3.9-1.9-3.3-3-3.5-4.9-.4-4.9 2.7 0 2.3-10-.6-13.9-1.2-1.7-2.2-3.6-2.2-4.3 0-.8-.8-2.4-1.7-3.8-1.1-1.5-1.3-2.5-.6-2.7.8-.3.8-1.4.2-3.5-.7-2.4-.5-3.4.7-4.3 1.5-1 1.4-1.4-.8-3.8-3.2-3.4-4.7-3.4-4-.2zM233 90c0 .5-.2 1-.4 1-.3 0-.8-.5-1.1-1-.3-.6-.1-1 .4-1 .6 0 1.1.4 1.1 1z"/><path d="M317.8 45.2l-2.7 3.5 2 3.2c1 1.7 1.9 3.8 1.9 4.6 0 .7 1.2 2.3 2.7 3.4 1.4 1.2 2.3 2.4 2 2.8-.4.3.1 1.1 1 1.8 1.5 1.1 1.5 1.4 0 3.5-1 1.4-1.4 3.3-1.1 4.6.5 1.8-.4 3.2-3.7 6.3-2.5 2.4-5.2 4.1-6.6 4.1-1.3 0-2.6.6-2.9 1.3-.3.8-1.9 1.4-3.5 1.5-2.3 0-2.9-.3-2.5-1.4.4-.9-.4-1.9-1.9-2.6-1.9-.9-2.9-.7-5 .6-1.4.9-2.5 2-2.5 2.4 0 .4-2 .8-4.5.9-4.3.2-4.5.1-3.5-1.8.6-1.1 1.6-1.6 2.2-1.3.8.5.9.1.5-1-.4-1-.7-2.6-.7-3.6 0-1.7-.4-1.9-9.9-3.6-1.6-.4-3.6.5-6.1 2.5l-3.7 3-4.2-2.1c-3.9-1.9-4.4-2-5.9-.5s-1.5 1.9.1 5.3c1 2 1.5 4.5 1.2 5.6-.4 1-.1 2.7.7 3.6.7.9-.1.5-1.9-.8-3.5-2.7-5.2-6.2-3.4-6.8 2.8-.9-.3-1.9-3.6-1.1-4.6 1-8.2 5-7.5 8.5.5 2.7.3 2.8-3.1 1.5-2-.8-2.6-.5-4.1 2-.9 1.6-2.4 2.9-3.2 2.9-.9 0-3 1.5-4.8 3.2-5.6 5.7-8.7 7.8-11.2 7.8-1.3 0-4.8 1.6-7.8 3.5-3.4 2.1-6.1 3.2-7.1 2.9-1.3-.6-1.4-.8-.3-1.5 2.6-1.6-1.4-3.7-7.9-4.1-5.4-.4-6.3-.2-6.3 1.3 0 2.3-2.4 3-6 1.7-2.9-1-3.4-.7-9 4.3-3.9 3.6-5.7 6-5.5 7.2.6 3-.5 4.7-3 4.7-1.9 0-2.4.7-3 4.7-.4 2.6-1.4 5.2-2.3 5.9-1.4 1-1.4 1.8-.4 6.3 1.6 7.1.3 9.9-4.5 9.6-2-.1-4.1-.8-4.7-1.6-1.4-1.7-6.1-4.5-5.1-3 .3.7-.3 1.1-1.5 1.1-1.3 0-2-.5-1.8-1.2 1.1-3.2-7.3-6.3-9.9-3.7-.8.8-2.1.4-4.7-1.3-3.3-2.1-5.6-6.1-4.3-7.5.5-.5-1.3-2.4-6.3-6.6-1.2-1-2.9-1.7-3.9-1.5-1 .2-2-.2-2.2-.7-.4-1.1-8.5-6.1-14.2-8.7-3.2-1.5-3.7-1.6-3.7-.3 0 1.7-1.4 1.9-3.9.5-1.4-.7-2.4-.4-4.1 1.5-2.8 3-4.1 3.1-6.5.5-1.2-1.3-3.1-2-5.4-2-3.1 0-3.8-.5-5.1-3.3-.8-1.7-1.3-3.5-1.2-4 .1-.4-1.2-.7-2.8-.7-2.2 0-3.3.6-4 2.2-.5 1.3-.9 1.7-.9.8-.1-.8-.8-2.7-1.5-4.3-1.2-2.2-1.2-2.7-.1-2.7 2.1 0 .6-3.6-2.1-5.1-1.4-.7-2.7-2.3-3-3.6-.4-1.3-1.2-2.3-2-2.3s-2.4-1.1-3.6-2.5L44.6 93l-2.4 2.2c-1.3 1.3-3 3.5-3.8 5-.8 1.6-2 2.8-2.7 2.8-2.1 0-3.7 1.6-4.2 3.9-.2 1.3-.9 2.9-1.6 3.7-.6.7-.9 3.3-.7 5.6l.3 4.3-3.7-.2-3.8-.2.7 4.6c.3 2.6 1.5 5.7 2.7 7 2 2.4 3.1 9.3 1.4 9.3-.5 0-1.1.8-1.5 1.7-.3 1-1.3 2.6-2.1 3.5-1.4 1.6-1.3 1.8.6 1.8 1.3 0 4.4 2.3 7.7 5.5 3 3 6.4 5.5 7.5 5.5 1.8 0 2.6 1.6 2.1 4.3-.1.5.3.6.7.3.5-.3 1.7.3 2.7 1.4 1.2 1.3 2.5 1.8 4 1.4 1.5-.4 3.8.5 7 2.5 2.7 1.7 5.3 3.1 5.8 3.1s2.2 1.1 3.9 2.5c1.6 1.4 3.5 2.5 4.3 2.5.7 0 1.7.6 2.3 1.3.6.7 3.4 1.9 6.2 2.7 2.7.7 5 1.7 5 2.1 0 1 8.3 8.9 9.3 8.9.4 0 .5-1 .2-2.3-.5-1.7 0-2.5 2.4-3.5 1.9-.9 2.8-1.8 2.4-2.8-.7-1.8 1.1-1.8 2.6 0 1.4 1.7 6.1 2.7 6.1 1.4 0-.6-.9-1.2-2-1.5-2.1-.6-2.8-2.3-.9-2.3.8 0 .7-.6-.2-1.7-1.2-1.5-1.2-1.6.4-1 1 .4 2.3.7 2.8.7.4 0 .6.7.2 1.6-.4 1.2-.2 1.5.8 1.2.8-.3 1.4-1.4 1.3-2.4 0-2.7 4.9-2.4 7.9.4 1.3 1.2 2.9 2.2 3.5 2.2.7 0 2.4.7 3.7 1.6 1.3.9 3 1.4 3.7 1.1.7-.2 2.1.3 3.2 1.2 1.2 1.1 3.5 1.5 6.8 1.4 4.2-.1 5.1.2 5.5 1.8.5 1.9 3.3 2.7 3.3 1 0-.5.8-.7 1.8-.4 1 .2 2.4-.3 3.1-1.1.8-.9 1.9-1.6 2.6-1.6.8 0 1.5-.6 1.7-1.2.3-.8 2.5-1.3 5.9-1.3 4.9 0 5.4-.2 5.2-2.2-.1-1.1.4-2.7 1.2-3.3 2.2-1.9 1.8-3.9-1-5-1.5-.6-2.5-1.7-2.5-2.9 0-2.7-2.1-4.1-5.9-3.6-3.1.4-7.1-1.1-7.1-2.7 0-.5.7-.8 1.5-.8 1.1 0 1.3-.7.9-2.8-.4-1.9-.1-3.2 1-4.1 1.9-1.6 2.2-.1.4 1.7-.9.9-.9 1.2-.1 1.2.7 0 1.5-.5 1.8-1 .3-.6 1.5-1 2.6-1s2.4-1.1 3.1-2.6c1-2.1 1.7-2.5 4-2 2 .4 3 .1 3.4-.9.4-.8 1.3-1.5 2.1-1.5 1.4 0 5.7-3 9.6-6.7 1-1 1.6-2.6 1.3-3.6-.4-1.7-.3-1.8 1.3-.3 1.5 1.4 2 1.4 2.9.3.7-.8.9-1.6.6-2-.3-.3.4-.8 1.5-1.2 1.3-.4 1.8-1.1 1.4-2.2-.5-1.3-.3-1.3 1.5-.2 1.1.7 1.8 1.8 1.5 2.3-.4.5-.8 1.9-.9 3-.1 1.2-.6 5.3-1.1 9.3l-.9 7.1 3.2 2.6c1.8 1.4 3.8 4.2 4.5 6.1.7 1.9 1.9 3.5 2.7 3.5.8 0 1.2-.6.9-1.4-.4-1.1.1-1.1 3.1-.1 2.5.9 4.4 1 6.2.3 1.4-.5 3.9-1 5.7-1 2.4 0 3.3-.5 3.7-2.3.8-3 3.5-4 5.1-1.8 1.1 1.5 1.7 1.5 3.9.5 1.8-.8 2.4-1.7 2-2.5-.5-.8-.2-.8.9.2 1.4 1.1 1.7 1.1 1.7 0 0-2.1-3.3-6.7-4.5-6.2-.6.2-1.1-1.4-1.1-3.6-.1-2.1-.9-4.9-1.8-6.2-2.3-3.4-2-4.1 1.4-3.4 2.1.5 4.2 0 7.2-1.5 9.7-4.9 9.8-5 12.4-4 2.3.9 3 .6 6.1-2.5 1.9-1.9 3.9-3.3 4.4-3 .4.3 1.4-.3 2.1-1.5.7-1.1 2.1-2 3-2 1 0 1.8-.7 1.8-1.5s.4-1.5 1-1.5c1.7 0 2.3-7 1-11.7-.8-2.5-2.6-5.9-4.2-7.5-2.8-2.9-3.7-5.8-1.8-5.8.6 0 1-.9 1-2 0-2.3 2.2-2.6 3.9-.6 1.6 1.9 6.1 2.7 5.4.9-.3-.7 0-1.3.6-1.3.8 0 .7-.6-.1-2-.7-1.1-1.8-2-2.5-2-1.1 0-5.3-6.8-5.3-8.5 0-1.2 2.8-.4 4.3 1.3 2 2.2 5 2.2 7.5-.1 2.5-2.2 9.2-2 9.2.3 0 3.6-6.8 6.8-8.5 4-.9-1.5-5.8-1.3-5.1.2.3.7.9 2.1 1.2 3.1.5 1.3 1.2 1.6 2.8 1.1 2.2-.8 2.5-.8 7.1-.1 2.4.4 3 .9 3 2.9 0 1.4 1.4 3.8 3.3 5.8 2.7 2.7 3.2 3.8 2.7 6.1-.5 2.2-.3 2.9.9 2.9.9 0 1.6.4 1.6.8 0 .6 2.8 1.6 11.2 3.8.9.3 2-.2 2.5-1.1.8-1.3 1.5-1.3 6.8.1 9.7 2.7 14.1 3.2 15.9 1.9 2.1-1.6 2.1-5.1-.1-6.4-1.4-.8-1.1-1.1 2-2.5 3.6-1.5 5-4.7 2.7-6.1-.5-.3-1-1.5-1-2.6 0-1-.4-1.9-.9-1.9-1.8 0-2.1-3.7-.6-6.6.9-1.7 1.1-3 .5-3.2-.6-.2-1-2-1-4 0-2.1-.9-5.1-1.9-6.9-1.9-3.1-1.9-3.1.1-3.6 1.6-.5 1.9-1.2 1.6-3l-.5-2.5 3.4 1.6c1.8.9 3.6 2.6 3.9 3.8.3 1.3 1.6 2.4 3 2.7 1.8.3 2.4.1 2-.9-.3-.9.2-1.4 1.3-1.4 1 0 2.2.7 2.5 1.6.9 2.4.7 5.4-.4 5.4-.5 0-1 .9-1 2s-1.6 3.5-3.5 5.2l-3.6 3.1 2.3 1.1c2.3 1.2 3.4 4.5 2.4 7.2-.8 2-.6 2.9.6 2.6.6-.1 1.6.2 2.3.8.9.8 1.4.6 2-.7.6-1.7.7-1.7 2 0 .7 1 1.6 1.4 1.9.8.4-.5.2-1.2-.4-1.6-1.5-1-1.2-5.5.4-5.5.9 0 1.2-.7.9-1.9-.3-1.1.2-2.1 1.2-2.4 1.3-.5 1.4-1.1.5-2.7-.8-1.4-.8-2.5-.2-3.3.6-.7 1.2-2.7 1.4-4.4.3-3.2.4-3.3 3-1.9 2.3 1.2 2.6 1.2 2.1 0-.4-1 0-1.3 1.3-.9 1.5.5 1.4.3-.3-1.1-1.4-1-2.3-2.7-2.3-4.3 0-2.5-1.6-4.6-7.4-10-1.9-1.7-3.4-2.2-5.4-1.8-1.6.3-3.3 0-4.3-.9-1.4-1.2-1.7-1.1-2.9 1.1-1.4 2.7-2.5 3.1-3.5 1.5-.5-.8-1.2-.7-2.2.1-1.2 1.1-1.4 1-1.2-.2.2-.7-.1-2.5-.5-3.8-.6-1.8-.4-2.6.8-3.3 2.6-1.4.1-3.8-3.9-3.8-3 0-6.5-2.5-6.5-4.6 0-.6-.6-1.8-1.3-2.8-1.2-1.7-1.5-1.5-3.9 1.6zM335.5 66c.8 1.3-.5 1.3-2.5 0-1.3-.8-1.3-1 .2-1 .9 0 2 .4 2.3 1zm-121.2 87.3c.3.7-.6 1.3-1.9 1.3-1.7.1-2.4-.3-2.4-1.6s.6-1.7 1.9-1.3c1.1.3 2.2 1 2.4 1.6zM230 49.9c0 .5.7 1.1 1.5 1.5.9.3 1.5 0 1.5-.9 0-.8-.7-1.5-1.5-1.5s-1.5.4-1.5.9zM23.7 63c.6 2.1 1.8 2.6 2.8 1.1.3-.6-.3-1.5-1.4-2-1.6-.9-1.8-.8-1.4.9zM13 64.6c.5 1.2.6 2.5.2 2.9-.4.4.2.6 1.3.3 3.1-.5 3.2-4.4.1-5-2.2-.4-2.3-.3-1.6 1.8zM32 66.9c-.6 1.6-1.8 3.2-2.6 3.5-.8.3-1.4 1.5-1.4 2.6s-.5 2-1.2 2c-.6 0-.3.7.8 1.6 1.7 1.4 1.6 1.4-.8 0L24 75v3.3c0 1.8.5 3.8 1.1 4.4.7.7.3 1.8-1.4 3.5-1.8 1.8-2.3 3.2-2 5.1.3 1.5.1 2.7-.3 2.7-.5 0-2.3.9-4.1 1.9-3 1.9-3.1 2.2-2 5 .6 1.7 1.5 3.1 2 3.1.4 0 .6-.4.3-.8s2.1-2.2 5.3-4c5.3-2.9 5.8-3.4 5.3-5.9-.5-2.6-.4-2.7 1.2-1.4 1.1.9 1.5 2.3 1.2 3.5-.5 2-.5 2 .9.2.8-1 1.6-2.4 1.8-3 .3-.8.8-.7 1.9.2 1.3 1 1.9 1 3.2-.4 1.1-1 2.5-1.4 4.1-1 2.1.5 2.3.3 2.1-1.9-.1-1.4-1-3.3-1.9-4.3-1.2-1.3-1.7-3.7-1.7-7.9 0-5.5-.3-6.4-3.3-9.7-1.8-2-3.6-3.6-3.9-3.6-.3 0-1.1 1.3-1.8 2.9zM22.8 73.7c.7.3 1.6.2 1.9-.1.4-.3-.2-.6-1.3-.5-1.1 0-1.4.3-.6.6z"/><path d="M303 79.4c0 .9.5 1.6 1 1.6.6 0 1-.4 1-.9 0-.6-.4-1.3-1-1.6-.5-.3-1 .1-1 .9zM306 82c0 .5.5 1 1.1 1 .5 0 .7-.5.4-1-.3-.6-.8-1-1.1-1-.2 0-.4.4-.4 1zM401 100.3c0 2.6 3.8 6.7 6.2 6.7 2.3 0 4.5 3.2 4.4 6.5-.1 2.5-.5 3-2.6 3-3.2 0-5.3 1.3-4.6 3 .2.7-.2 1.6-1 1.9-.9.3-1.2.1-.9-.4.3-.6-.4-1-1.7-1-1.6 0-1.9.3-1 .8 1 .7.6 2.7-1.7 9.3-1.6 4.6-2.8 8.5-2.6 8.8.6.6-6.8 7.1-8.2 7.1-.6 0-1.5-1-1.8-2.1-.5-1.5-.9-1.8-1.5-.9-.5.8-1.2 0-2-2.4-.9-2.9-1.7-3.6-3.8-3.6-2.8-.1-8-3.6-6.8-4.7.3-.3 2.6-.2 5.1.4 2.4.5 4.2.6 3.9.2-.9-1.5 1.4-1 3 .6 1.4 1.4 1.9 1.4 4.7 0 2.3-1.2 2.8-2 2-2.8-1.6-1.6-1.4-5.7.4-5.7 3.2 0 1.3-2.6-3-4.1-4.1-1.5-4.4-1.5-3.5.1.6 1.2.3 2.1-1.1 3.3-1 .9-2.3 1.7-2.8 1.7s-1.1.5-1.3 1c-.2.6-2.6 1.2-5.3 1.3-2.8.2-5.5.6-6.1 1-.6.4-3.3-.1-5.9-.9-4-1.4-4.9-1.4-6.1-.2-2.1 2.1-9.4 1.1-9.4-1.3 0-1-.5-3-1.2-4.4-.9-1.9-.9-3.1-.1-4.4.7-1.1.8-2.3.1-3.4-.7-1.3-.5-1.7.7-1.7 1.7 0 1.5-2-.9-6.9-1.2-2.6-6.6-3.8-6.6-1.4 0 .7-.9 1.8-2 2.5-2.4 1.5-2.5 3.6-.5 6.5 1.8 2.6 1 8-.9 6.4-1.8-1.5-3.9.3-3.2 2.6.9 2.7-1.5 4.6-4.8 3.7-2.3-.5-2.8-.2-4.6 3.7-1.1 2.4-2 5.1-2 5.9 0 .8-.9 2.1-2 2.8-1.1.7-2 2.3-2 3.7 0 1.9-.5 2.5-2.1 2.5-1.2 0-1.7.4-1.4 1.1.4.6-.2 1.3-1.2 1.5-1.5.4-1.9 1.2-1.6 2.9.5 2.5-1.5 4.4-2.7 2.5-.6-.9-1.3-.9-2.8-.1-1.5.8-2.3.7-3.2-.4-1.9-2.3-8.7-2-10 .5-.6 1.2-2.1 2-3.6 2-1.7 0-2.8.7-3.1 2-.3 1.1-1.1 2-1.8 2-.6 0-1.7 1.1-2.3 2.5-1 2.3-1.5 2.4-5.9 1.9-2.6-.3-6-.9-7.5-1.4-1.5-.5-2.8-.5-3-.1-.2.4-1.7 1.7-3.5 2.9-2.3 1.7-3 2.7-2.6 4.3.6 2 .3 2.1-3 1.5-3.3-.6-3.7-.5-3.7 1.4 0 1.1-.4 2-1 2-.5 0-1.3 1.2-1.6 2.6-.5 1.8-1 2.2-1.7 1.5-1.4-1.4-3-1.4-2.2-.1 1 1.6-1.9 5-4.2 5-1.4 0-2.3.6-2.3 1.5 0 1.1-.5 1.2-2.4.5-2.3-.8-2.5-.6-3.1 2.9-.6 3.6-.8 3.8-4.1 3.5l-3.5-.2.2 4.6c.1 2.6-.2 5.7-.6 6.9-.7 2.1-.4 2.3 2.8 2.3 1.9 0 4 .6 4.7 1.4.6.8 1.7 1.3 2.4 1 1.6-.6 7 5.1 6.1 6.6-.4.6-1.3.9-2 .6-.7-.2-1.7.6-2.4 2-.6 1.4-1.9 2.4-3 2.4-1.4 0-1.9.5-1.5 1.5.7 1.7 5.9 2.1 6.9.5.4-.6.1-1.8-.6-2.6-1.5-1.9-1-2.3 3.7-3.1 4.9-.8 12.9-6.3 12.9-8.9 0-1 .4-2.5.8-3.2.5-.7.6-2.1.2-3.1-.4-1.3 0-2 1.6-2.4 1.1-.3 1.9-1 1.6-1.5-.3-.4.7-.7 2.2-.4 1.6.2 3.2-.1 3.5-.7.4-.6 1.3-1.1 2-1.1 1.7 0 8.6-6.5 10.2-9.5.6-1.3 1-3.4.7-4.8-.3-1.3 0-2.8.6-3.1.5-.4.7-1.4.4-2.2-.9-2.3 3.1-.9 6.2 2.2 3.5 3.5 5.6 3 9.7-2.6 2-2.8 3.9-4.6 4.3-4 .3.6 1.1.8 1.6.5.5-.4.9-.3.9.2 0 .4 1.1 1.3 2.4 1.9 2 .9 2.6.9 3-.2.5-1.2.9-1.2 2.7-.2 1.6 1 1.9 2 1.5 4.5-.2 1.8 0 3.5.5 3.9 1.1.7-3.5 3.4-5.6 3.4-.8 0-1.7.9-2 2-.4 1.3-1.5 2-3.1 2-1.4 0-3.2.7-4 1.5-.9.8-1.1 1.5-.5 1.5.6 0 1.1.4 1.1 1 0 .5-.9 1-2 1s-2.1.6-2.1 1.2c-.1.7-.3 2.5-.5 4-.1 1.5.3 3.4 1.1 4.2.8.7 1 1.7.5 2.2-.4.5-.5 3-.1 5.6.4 2.7.4 4.8-.1 4.8-.4 0-.8.7-.8 1.5 0 2.2 3.3 1.8 5-.5 2-2.7 8-2.8 8.7-.1.5 1.9 5.5 3.7 6.1 2.2.1-.5 1.5-.6 3-.3s2.4.1 2-.3c-.4-.4 0-1.4.8-2.2.9-1 1.1-1.9.5-2.7-.5-.6-1.2-2.7-1.6-4.6-.4-1.9-1.4-4.7-2.1-6.3-1.3-2.4-1.3-2.7.1-2.7.9 0 2 1.1 2.5 2.5.9 2.3 1.5 2.5 6.9 2.5 5.5 0 5.9.2 6.5 2.6.4 1.5 1.8 4.1 3.2 5.9 1.3 1.7 2.4 3.7 2.4 4.4 0 .9.5.9 2 .1s2.1-.6 3 1c.9 1.7 1.4 1.9 3.3.8 1.2-.7 2.6-1.1 3.1-1 .5.2.4-.3-.2-1-.9-1.1-.5-1.4 1.5-1.6 1.4-.1 3.2.3 4 1 2 1.6 4.1-.5 2.5-2.5-1.6-1.8 1.5-10 3.5-9.3.7.3 1.3-.1 1.3-.9s.5-1.5 1-1.5c1.5 0 1.2-1.9-.5-3.6-2.4-2.5-1.8-3.6 1.5-2.9 2.6.6 3 .4 3-1.4 0-1.2.5-2.1 1.1-2.1 1.6 0 4.1-2.8 3.5-3.9-.3-.5.8-1.4 2.4-2 1.7-.5 3-1.7 3-2.6 0-1.6 3.9-3.6 7.7-3.8 2.7-.2 2.7-.1.7-3.2-1.6-2.5-1.6-2.5 1.5-2.5 3.8 0 6-1.8 5.3-4.2-.3-1.2.4-2.1 2.2-2.9 1.4-.7 2.8-2 3.1-3.1.4-1 1.5-1.8 2.5-1.8 1.5 0 2-1 2.6-4.5.3-2.5 1.2-4.5 1.8-4.5.6 0 2.6-1.4 4.4-3 1.8-1.7 4-3 4.8-3 .8 0 1.4-.6 1.4-1.4 0-.8.6-2.1 1.3-2.8.6-.7 1.2-1.8 1.2-2.3 0-.6.4-3.6.8-6.7.6-3.8.5-6.4-.3-7.8-.7-1.2-1.3-3.6-1.6-5.3-1.1-9-3.2-15.7-4.8-15.7-.7 0-2.3-1.2-3.7-2.6-1.3-1.4-3.2-3-4.1-3.5-1.5-.8-1.8-.6-1.8 1.4zm-49.2 78.1c1.6-2.7 1.5-1.1-.1 2l-1.4 2.5-2-2.2c-1.3-1.6-1.6-2.6-.9-3.4.8-.7 1.4-.5 2.2 1 1.1 2 1.2 2 2.2.1zM251.5 180c.3.5.1 1-.4 1-.6 0-1.1-.5-1.1-1 0-.6.2-1 .4-1 .3 0 .8.4 1.1 1zm3.1 12.9c-.3.5.1 1.2 1 1.5.8.3 1.3 1 .9 1.5-.6 1.1-3.6.3-4.7-1.3-.4-.6-.2-1.4.5-1.8 1.6-1.1 2.9-1 2.3.1zM10.4 106.4c-.3.9-1.7 1.6-3 1.6s-2.4.4-2.4.9c0 1.6 2 2.3 3.3 1.3.7-.6 2.3-1.2 3.7-1.4 1.4-.1 2.5-1 2.5-1.8 0-2-3.4-2.5-4.1-.6zM0 113c0 1.6 4 5.1 5 4.5 1.5-.9-1.1-5.5-3.2-5.5-1 0-1.8.4-1.8 1zM3.5 120c-.3.6.1 1.3 1 1.6 1.9.8 3 0 2-1.5-.8-1.4-2.2-1.4-3-.1zM416 145c0 .5.5 1 1.1 1 .5 0 .7-.5.4-1-.3-.6-.8-1-1.1-1-.2 0-.4.4-.4 1zM185.5 157c-.4.6-1.6.8-2.7.4-1.1-.3-2.3-.2-2.7.3-.3.5-1.8 1.6-3.3 2.6-3.1 2-3.3 2.5-1.4 4.9 1.6 2.2 5.6 1.3 5.6-1.3 0-1 1.3-2.5 2.9-3.4 3.4-1.7 4.5-3.1 3.2-3.9-.5-.4-1.3-.2-1.6.4zM220.8 168.1c-1.4 3.3-1.4 3.8-.3 2.9.8-.7 1.5-1.9 1.5-2.7 0-.7.7-1.6 1.5-1.9 1.8-.7 2-2.4.3-2.4-.7 0-2.1 1.9-3 4.1zM171.6 169.5c.4.8 1 1.2 1.5.9 1.4-.8 1-2.4-.6-2.4-.9 0-1.2.6-.9 1.5zM217.5 175.9c.3 1.1-.1 2.4-1.1 3.2-.9.7-2 2.4-2.5 3.7-.5 1.2-2.5 3-4.4 3.8-2.7 1.1-3.7 2.2-4.2 4.6-.4 2.2-1.4 3.4-3.4 4.2-1.6.5-3 1.7-3.1 2.5-.2 1-1.5 1.5-3.3 1.6-2.4 0-3.1.5-3.3 2.3-.3 2.2-.1 2.3 3 1.6 1.8-.4 4.6-.7 6.2-.6 1.8.1 4.5-1 7.3-3 3.6-2.6 4.7-3 6.2-2.1 1.6 1 2.4.5 5.6-2.7l3.8-3.8-2.3-3.7c-1.6-2.6-1.9-3.9-1.1-4.4.8-.5.6-1.9-.6-4.9-1.8-4.1-4-6-2.8-2.3zM132.9 190.8c-2.2.4-2.2 5.2 0 9.5 1.9 3.7 3.5 5.8 6.8 8.9 1.2 1.1 1.9 2.7 1.6 3.4-.3.8 0 1.4.6 1.4s2.1 1.1 3.3 2.5c2.2 2.6 7.8 3.6 7.8 1.4 0-.6.9-.9 1.9-.6 1.3.3 1.8 0 1.5-.8-.6-1.6 2.2-4.5 4.4-4.5 1.5-.1 1.5-.2.2-1.3-2-1.6-5-7.4-5-9.5 0-1-.9-2.3-2-3-1.1-.6-1.7-1.8-1.4-2.5.2-.7-.7-1.9-2.1-2.7-2.1-1.1-3-1.2-4.6-.2-1 .7-1.9.9-1.9.4 0-1-8.8-2.9-11.1-2.4zM87 194c0 .7-.7 1-1.4.7-2.4-.9-3.2 3.4-1 5 2.4 1.8 3.8 1.6 5.8-.6 1.4-1.5 1.5-2.4.7-3.8-.6-1-1.1-1.4-1.1-.9 0 .5-.7.3-1.5-.4-1.2-1-1.5-1-1.5 0z"/><path d="M258.6 197.9c-.3.4.6 1.9 1.9 3.1 1.4 1.3 2.5 3.1 2.6 3.9 0 1 .4.8.9-.7.5-1.2.7-2.8.4-3.6-.6-1.7-5.2-3.8-5.8-2.7zM96 200.9c0 1.1.9 2.1 2.2 2.5 1.8.4 2 .8 1 1.8-1.4 1.4-1.6 2.8-.3 2.8.5 0 1.3-.9 1.6-2 .4-1.2 1.1-1.7 1.8-1.3.7.4-.2-.7-2-2.5-3.6-3.7-4.3-3.9-4.3-1.3zM185.3 204.7c-1.1.2-3.8 2-5.8 4l-3.6 3.5 2.6 2.8c1.5 1.6 2.5 3.2 2.2 3.7-.2.4 1.1 1.5 2.9 2.4 3.3 1.6 3.4 1.6 3.4-.6 0-1.2.6-2.8 1.4-3.4 2.8-2.3 2.5-13.6-.3-13-.3.1-1.6.4-2.8.6zM362.7 207.1c1.4 1.4.6 3.9-1.2 3.9-1.9 0-7.8 10.7-7.1 12.7.4.9-.1 2.6-.9 4-1.5 2.3-1.6 6.5-.2 7.9 1.4 1.4.7 2.2-1.5 1.6-1.6-.4-2-.2-1.6 1 .4.8.2 2.1-.3 2.9-.7 1.1-.9 1-.9-.5 0-1.2-.5-1.6-1.5-1.2-1.7.6-2.1-.9-.5-1.9.6-.3.8-1.6.4-2.9-.3-1.4.2-3.1 1.5-4.8 2-2.4 2-2.6.2-4.2-.9-.9-2.7-1.6-3.9-1.6-1.1 0-2.4-.5-2.7-1-.4-.6-1.1-.8-1.6-.5-.5.4-.9-.2-.9-1.2 0-1.7-5.5-5.1-6.6-4-.3.2.4 2.1 1.6 4.2 1.1 2 2.3 5.8 2.6 8.3.8 6.8 2.1 8.8 6.5 10.1 2.1.7 3.9 1.8 3.9 2.6s.5 1.7 1.2 2.1c.7.4.8.3.4-.4-.5-.8 0-1.2 1.3-1.2 1.2 0 2.1-.6 2.1-1.4 0-.9.8-1.2 2.5-.8 2.3.4 2.4.6 1.1 2.1-1 1.1-1.2 2.1-.6 3.1.8 1.2 1 1.1 1.1-.5v-2l.8 2c1 2.5.4 3.8-1.5 3.1-1.2-.4-1.2-.2-.4 1.4.6 1.1.8 2.5.4 3.1-.3.6.3 1.3 1.5 1.6 1.9.5 2 1 1.5 6.2-.4 3.1-1 6-1.4 6.6-1 1.4-2.4 7.7-2.1 9.4.2.9-.3 1.2-1.4.7-1.1-.4-1.5-.2-1.2.6.2.7 1.1 1.2 1.9 1 1.2-.2 1.4 1.2 1.2 7.5-.1 5 .4 8.8 1.3 10.5 1.2 2.4 1.2 2.8-.1 2.8-.9 0-1.2.7-.9 2.1.3 1.2 0 2.5-.7 2.9-1.8 1.1 2.3 7.6 6 9.5 1.5.8 3.4 2 4.2 2.7 1.9 1.9 8.6 4.6 13.1 5.4 2 .3 3.7 1.2 3.7 1.9s.7 1.5 1.5 1.9c.8.3 1.5 1.2 1.5 2.1 0 .8.7 1.5 1.5 1.5s1.5-.7 1.5-1.5c0-1.8 2.2-1.9 6.9-.3 4.4 1.6 6 3.5 6.1 7.1 0 2.1-.6 3-2 3.4-1.1.3-2 .9-2 1.4 0 .5-.7.9-1.5.9-1.2 0-1.3.4-.5 1.9 1.4 2.7 1.3 3.4-.4 2.8-2.1-.8-2.5 2.2-.9 5.5 1.5 3.2 4.7 3.7 6.2 1 .6-.9 1.1-1.3 1.1-.8s.6.4 1.3-.2c1-.8 2.1-.6 4.5.8 1.8 1.1 3.2 2.5 3.2 3.1 0 .6.7.4 1.5-.5.8-.8 1.5-3 1.5-4.8l.1-3.3 1.9 2.3c1.4 1.7 2.5 2.1 4.5 1.6 2.5-.6 3-3.2.5-2.6-.7.2-1.1-.9-1-3 .4-6 0-7.8-1.4-7.8-.8 0-2.1-.6-2.8-1.3-2.4-2.5-5.6-3.8-6-2.6-.6 1.7-6.8.1-6.8-1.7 0-.8.5-1.4 1-1.4 1.8 0 1.1-3.9-.9-5-5.1-2.7-6.5-6.8-3.5-10.1 1.6-1.8 1.1-4.4-.7-3.4-.5.4-.9.1-.9-.4 0-.6.5-1.1 1-1.1.6 0 .5-.8-.2-1.9-.9-1.5-.9-2.3 0-3.4 1-1.2.6-1.9-2.3-4.1-1.9-1.5-3.5-3.3-3.5-4.1 0-1.5 2.9-2.5 6.5-2.3 1.1.1 3.5.1 5.4 0 3.2-.2 3.3-.4 2.8-3.2-.4-1.9-.2-3 .4-3 .8 0 .7-.5-.1-1.5-.7-.8-2-1.5-2.9-1.5-1 0-1.2-.3-.5-.8 1.8-1.2 2.4-4.2 1.4-6.3-.8-1.3-.7-2.5.1-4.1.9-1.6.9-2.3 0-2.6-.6-.2-1.1-.8-1.1-1.3 0-.6.5-.7 1.1-.4.5.4 2.3.1 4-.5 3-1.3 3.8-4 2-6.9-1-1.6.7-5.1 2.4-5.1.5 0 1-1.4 1-3.1 0-2.3-.7-3.4-2.7-4.5-1.6-.8-2.8-1.9-2.8-2.4s-1.8-.8-4-.7c-3.3.1-4.6-.5-7.5-3.3-2.4-2.3-3.5-4.3-3.5-6.2 0-1.5-.4-2.8-.8-2.8-.9 0-3.2-5.9-3.2-8.3 0-.9-.8-2.2-1.8-2.9-1.1-.7-2.5-3-3.1-5.1-1.4-4-5.1-6.7-9.5-6.7-1.4 0-2.8-.5-3.2-1.2-.5-.8-1-.7-1.8.4-1.5 2-5.6.6-6.3-2.2-.3-1.1-1.2-2-2.1-2-1.2 0-1.3.3-.5 1.1zm-3 30.5c-.9.9-2.8-.6-2.1-1.8.4-.6 1-.6 1.7.1.6.6.8 1.3.4 1.7zM97.5 210.9c-.8 1.5.3 3.1 2.1 3.1.9 0 1.4-.7 1.2-1.7-.4-2-2.4-2.8-3.3-1.4zM259.4 213.6c.5 1.3.1 1.5-1.8 1.2-1.9-.4-2.3-.1-2 1.1.3.9-.2.6-1.2-.7-2-2.7-4.4-2.9-4.4-.2 0 1.1.4 2 .8 2 .5 0 1.6 1.7 2.6 3.7 1.4 2.9 2 3.4 2.7 2.2.5-.8.9-2.1.9-3.1 0-.9 1.2-2.5 2.7-3.6 1.5-1.1 2.3-2.4 1.9-3-1.1-1.8-2.9-1.4-2.2.4zM292.1 220.6c0 1.1.3 1.4.6.6.3-.7.2-1.6-.1-1.9-.3-.4-.6.2-.5 1.3zM227.2 222.6c-1.3.9-2.9 1.3-3.7 1-1.8-.6-2.5 1.4-1.3 3.8.7 1.3.6 2.1-.2 2.6-.6.4-1 1.8-.8 3 .1 1.3-.3 2.5-.9 2.7-.8.3-1.3-.4-1.3-1.6 0-2.4-.4-2.5-3-1.1-1.3.7-3.4.6-6.7-.2-5.7-1.4-6.9-2.2-8.6-5.7-1-2.1-2-2.6-5-2.7-2.6-.1-3.7.3-3.7 1.3s-.9 1.4-2.7 1.2c-4.8-.4-7 .9-7.7 4.5-.7 3.9-3 6.1-6.9 6.8-2 .4-3 0-3.7-1.2-.5-1-1.8-2-2.9-2.3-1.7-.4-1.8 0-1.4 3.3.5 3.4.3 3.8-2.1 4.4-2.7.7-3.4 2-1.6 3.1 1.3.8 1.3 7.1-.1 13.5-.9 4.3-1.4 5-3.4 5-1.5 0-2.6.7-3 2.1-.4 1.1-1.2 1.8-1.8 1.6-.7-.2-2.4.2-3.8.9-1.5.7-3.6 1.1-4.8.9-1.1-.2-2.3.1-2.7.6-.8 1.3-4.4-2.9-4.4-5.2 0-1-.4-2.1-1-2.4-.5-.3-1 .3-1 1.4 0 1.4-.6 2.1-2 2.1-1.1 0-2 .5-2 1.1 0 .6-.8.8-1.8.5-1.2-.4-2.8.4-4.7 2.4-1.6 1.6-3.7 3-4.7 3-1.4 0-1.7.5-1.2 2.4.5 2.1.1 2.4-2.9 3-3.5.6-5.4 3.6-4 6 .4.6.8 2.6 1 4.5.3 2.3 1.4 4.4 3.3 6.1 3.4 3.1 4.6 7.3 2.5 9-1 .8-1.3 2-.9 3.4.4 1.2.8 3 .9 4.1.2 1.2.8 1.8 1.6 1.6.8-.2 3.7-.7 6.4-1 4.8-.6 9.5-3.6 9.5-6.1 0-1.3 1.3-1.3 4.3.1 1.9.8 3 .8 4.8-.2 2.2-1.3 2.8-1.5 5.4-1.8.6 0 1.1-1.1 1.2-2.4.4-5 2.6-13.7 3.3-13.2.5.3 2.4-.4 4.3-1.5 2.8-1.7 3.9-1.9 6.3-1 2.2.9 3.1.8 3.9-.3 1.5-2.1 7.5-4.9 9.2-4.3 1.5.6 7.3-4.4 7.3-6.2 0-.5.7-1.3 1.6-1.6 1-.4 1.3-1.3.9-2.5-.8-2.7 2.3-7.4 4.6-6.8 1 .3 2-.1 2.3-.9.3-.8 2.3-2.1 4.5-3 2.2-.9 4.3-2.4 4.6-3.5.4-1 1.1-1.9 1.6-1.9 1.1 0 1.1 1.1-.1 3-.5.9-.5 1.9.1 2.6.5.7 1.4 2.6 1.9 4.3.7 2.7.6 3.1-1.1 3.1-1.7 0-1.8.3-.7 2 1.6 2.6 5.4 3.6 7.4 2 1-.9 1.8-1 2.5-.3s2 .6 4-.4c3.1-1.6 3.8-3.7 1.4-4.7-.8-.3-1.5-1.2-1.5-2s-.8-1.7-1.7-2.1c-1-.3-2.6-1.7-3.7-3.1-1.5-2.1-1.6-3-.7-5 1.1-2.5 5.2-4.8 6.1-3.5.7 1 9.2 4.3 9.7 3.8.2-.3.5-1.4.6-2.6.1-1.1.7-2.1 1.3-2.1.7 0 1.4-.7 1.8-1.5.3-.8 1.4-1.5 2.4-1.5 1.1 0 2.6-.7 3.3-1.7 1.5-1.8 4-12.5 2.7-11.7-.4.3-.8-.1-.8-.9s-1.2-1.8-2.7-2.2c-3.5-.8-6.3-3.3-6.3-5.5 0-1.3-.6-1.6-2.5-1.2-2 .3-2.4.1-1.9-1.2.8-2 .4-2-2.4 0zM169 224.2c-.9 1.2-2.9 2-5.1 2.1-2.9.2-3.5.5-3.1 2 .5 1.9 4 4.2 4.9 3.3.4-.3 1.3 0 2.1.7 1.2.9 1.2.6-.2-1.4-1.5-2.4-1.5-2.7-.1-3.3.9-.3 2.5-.6 3.6-.6 2.1 0 2.5-2.2.7-3.8-.9-.7-1.7-.4-2.8 1zM254.6 228.6c.6 2.5.5 2.5-3 1.9l-3.6-.7.1 3.8c.1 2.2-.1 5.5-.4 7.4-.3 1.9-.5 4.5-.6 5.8-.1 1.4-.5 2.1-1.2 1.6-1.7-1-2.9 1.7-1.6 3.8.9 1.3.9 2.1.1 2.6-1.9 1.3-2.4 4-.7 4.6 1 .4 1.4 1.5 1.1 3.1-.3 1.4-.1 2.5.3 2.5.5 0 .8.6.7 1.2-.2.7.7 1.4 2 1.6 3.3.5 3.9-2.4 1.2-6-2.4-3.3-1.9-4.9 1-3 1.1.7 2 .8 2 .4 0-1.1 5.1-3.6 6.8-3.3 1.8.3 1.5-1.6-.4-2.3-1.3-.5-1.4-.9-.4-2.1.7-.8 1-2.4.7-3.5-.3-1.1.3-3.1 1.5-4.6 1.2-1.4 2.1-4.1 2.1-6.2.1-3-.6-4.4-3.7-7.5-2.1-2-4-3.7-4.2-3.7-.2 0-.1 1.2.2 2.6z"/><path d="M334 228.1c0 .5.5.7 1 .4.6-.3 1-.8 1-1.1 0-.2-.4-.4-1-.4-.5 0-1 .5-1 1.1zM284.3 230.9c1.2 3.4 2.2 3.3 2.9-.4.4-2.1.1-2.5-1.8-2.5-2.1 0-2.1.2-1.1 2.9zM329 230.2c0 .7-.7 2.6-1.5 4.1-.8 1.5-1.2 3.4-.8 4.2.3.9-.1 1.5-1 1.5-2.4 0-1.4 2.9 2.1 5.8 1.7 1.5 3.5 3.9 4.1 5.4 1 2.6 1 2.7-2.7 2.1-4.6-.7-8.7-2.7-10.4-5.1-.7-1-2.1-2.1-3-2.5-1-.3-3.2-2.9-4.9-5.7-1.7-2.7-3.6-5-4.2-5-.8 0-.7-.4.2-.9 1.1-.7.9-1.1-.8-2-1.5-.8-2.1-.8-2.1-.1 0 .7-.6.8-1.6.2-1.6-.9-5.4-.5-5.4.5 0 .2.5 1.4 1.1 2.5 1 1.8.8 2.4-.7 3.5-1.8 1.3-1.8 1.4.4 2 1.6.4 2.1 1.1 1.7 2.3-.7 2.1.4 5.2 1.5 4.5.5-.3 1.1-.1 1.5.5.3.5-.1 1-.9 1-2.8 0-1.7 3.1 2.4 6.7 2.2 2 4 4.5 4 5.5 0 3 6.2 8.6 9.2 8.2 1.8-.2 3.5.7 5.7 3l3.2 3.3-2.8 1.1c-1.5.6-4.6 1.3-6.8 1.5-2.2.2-4.6.6-5.3 1.1-.8.5-1.2-.1-1.2-2 0-2.2-.3-2.5-2.2-2-1.3.3-2.9.6-3.5.6-.7 0-1.3.7-1.3 1.5 0 .9-.7 1.8-1.5 2.1-1.1.5-1.2 1-.4 2.6.8 1.4.8 2.3 0 3.1-.6.6-1.1 1.8-1.1 2.7 0 .9-.9 2.5-2 3.5s-2 2.7-2 3.7c0 1.1-.9 2.7-2 3.6-3.2 2.8-3.6 6.8-.8 9.3l2.4 2.1-2.3 4.6c-2.9 5.8-5.1 8.2-7.5 8.2-2.6 0-2.3 3.2.7 6.4 1.4 1.5 2.5 3.3 2.5 4.1 0 .8.9 1.9 2 2.5 1.6.9 2 .8 2-.5 0-2.1 1.3-1.9 3.5.5 1.7 1.9 4.1 1.8 3-.1-.8-1.3.9-1.1 2.2.2 1.2 1.2 5.3.3 5.3-1.2 0-.5-.5-.8-1.2-.6-.6.1-1.3-.6-1.5-1.5-.3-1.1.3-1.8 1.9-2 2.1-.3 2.3-.8 2.1-5.5-.1-2.8-.6-6.1-1.2-7.2-1.5-2.7-1.4-3.1 1-3.1 1.1 0 1.7-.4 1.4-1-.7-1.2 3.9-2.4 6-1.6.9.3 1.5 0 1.5-.9 0-1.1 1.1-1.5 3.8-1.5 2.9 0 4.5-.7 6.7-3s3.2-2.7 4.6-1.9c1.3.6 1.9.6 1.9 0s.7-.7 1.7-.4c1.1.4 1.4.3.9-.5-.4-.7-.3-1.2.3-1.2.5 0 1.1.5 1.3 1.1.2.6 2 1.7 4 2.4 3.1 1 3.8 1 4.2-.1.3-.8 1.2-1.4 2.1-1.4.8 0 2.6-1 4-2.2 2.1-1.8 2.4-2.7 1.9-5.7-.4-2-1-3.8-1.4-4.1-.4-.3-1-1.4-1.3-2.5-.4-1.9-.5-1.9-.6.1-.1 2.4-3.9 4-5.5 2.4-.6-.6-1.8-1-2.8-1-1 0-1.7-.5-1.5-1.1.1-.6-.8-1.2-2-1.4-2.1-.1-2.3.3-2.3 4.2 0 3.5-.3 4.3-1.9 4.3-1 0-2.4-.7-3.1-1.6-.8-.8-2.1-1.9-3.1-2.5-1.5-.8-1.7-.6-1.2.7.4 1.2.3 1.5-.5 1-1.4-.9-1.6-5.2-.3-6.1.5-.3 1.2-.1 1.6.5.3.5.1 1-.6 1s-1 .2-.7.5c1.3 1.4 3.6-.9 3.5-3.3-.2-2.3.2-2.7 2.3-2.7 2 0 2.5-.5 2.3-2.3-.2-1.2.2-2.2.7-2.2.7 0 .6-.8-.1-2.3-1.6-3-2.4-3.4-6.1-3.2-2.8.2-2.9.1-1.3-1.1 1-.8 1.9-2.3 2-3.4.1-1.1.5-2.3.8-2.6.3-.4.2-1.6-.4-2.7-.7-1.2-.7-1.7-.1-1.3.5.3 1.2-.1 1.6-.9.7-1.9 4-1.9 5.6 0 .9 1.1 1 1.9.1 2.8-.8 1-.8 1.6 0 2.4.7.7 1.2 4.1 1.2 7.7 0 3.6.5 6.6.9 6.6.5 0 .7.4.4.9-.3.5.1 1.5 1 2.2 1.2 1 2 1 3.5.1 1-.7 2.6-1.2 3.4-1.2.9 0 1.4-.4 1.1-.8-.3-.5.4-.8 1.6-.8 5.2.2.8-4.4-5.1-5.3-.4 0-1.7-2.2-2.8-4.9-1.7-4-1.8-5-.7-6 .8-.7 1.4-2.3 1.4-3.5 0-1.6-.3-1.8-.9-.8-.7 1-1 1-1.6.1-.4-.7-.3-1.5.3-1.9.7-.4.8-1.2.2-2-.4-.8-.6-1.9-.4-2.5.5-1.7-1.7-4-5.3-5.5-3.2-1.3-4.6-3.9-3.3-6.1 1.3-2 0-4.3-1.5-3-.9.8-1.5.8-2 0-.3-.5-.1-1 .4-1 .6 0 1.1-.7 1.1-1.5s.8-1.5 1.7-1.5c.9 0 1.3-.3 1-.7-.4-.3 0-1.4.8-2.3 1.3-1.5 1.3-1.9-.5-3.8-2.3-2.4-5-2.9-5-1zm2 70.4c0 .3-.6 1.2-1.4 1.9-1.2 1.2-1.5 1.2-1.9 0-.3-.7-.1-1.6.6-1.9 1.7-.7 2.7-.7 2.7 0zM283.1 236.6c0 1.1.3 1.4.6.6.3-.7.2-1.6-.1-1.9-.3-.4-.6.2-.5 1.3zM284.3 241.2c.4 1 .2 2-.3 2.3-1.5.9-1.2 3.5.4 3.5.9 0 1.7 1.5 2.1 4 .4 2.2 1 4.2 1.3 4.4.8.5 1-9.7.2-10.4-.4-.3-1.4-1.6-2.4-3s-1.6-1.7-1.3-.8zM289 240.8c0 1.4 3.1 3.1 4.8 2.5.6-.3 1.2-.9 1.2-1.5s-.7-.7-1.6-.4c-.9.4-2.3.1-3-.5-1-.8-1.4-.8-1.4-.1zM221.6 253.7c-1 1-.7 2.5.3 1.8.6-.3 1.5.4 2.1 1.5 1.1 2 5 2.8 5 1 0-.6-.6-1-1.3-1-.7 0-2.3-.9-3.4-1.9-1.2-1.1-2.4-1.7-2.7-1.4zM417 260.9c0 .5.9 1.9 2 3.2 2.2 2.8 2.8.6.6-2.4-1.4-1.8-2.6-2.2-2.6-.8zM226.6 262.6c-1.1 2.9-.6 4.2 1.7 4.8 3.1.7 11.2 10.7 9.5 11.7-.9.6-.9 1.1.1 2.3 1.4 1.6 6.7 2.3 5.7.8-1-1.7-1.6-7.3-.7-6.8 1.7 1.1 2.2-2.7.5-4.5-1-1.1-1.3-2.5-.9-4 .8-2.3-1.4-4.6-2.6-2.7-.4.7-1.3.7-2.7-.1-1.5-.8-2.2-.8-2.6.2-.4.8-1.1.5-2.2-1.1-1.9-2.6-4.9-2.9-5.8-.6zM350.1 265.6c0 1.1.3 1.4.6.6.3-.7.2-1.6-.1-1.9-.3-.4-.6.2-.5 1.3z"/><path d="M271.3 269.7c-.7.2-1.3 1.1-1.3 1.9 0 .8-.7 1.4-1.6 1.4-.9 0-2.9 1.1-4.6 2.5-3.3 2.8-5.7 3.2-7.7 1.2-1.1-1-1.3-.6-.9 2 .3 1.8.1 3.3-.4 3.3-.4 0-1.8 1-3 2.2-2.2 2.2-3.3 2.5-10 3.1-1.5.1-3.6.9-4.6 1.8-1 .8-2.4 1.3-3.1 1.1-1.1-.4-1.3.3-.8 2.5.8 4-.2 7.6-1.7 6.4-.8-.7-1.1.7-1.1 5.1 0 3.3-.4 6.2-.8 6.5-.4.2-.5 1.2-.2 2.2.4 1.4-.5 2-4.6 3.1-4.4 1.2-5.4 2-8.2 6.6-1.8 2.9-4 5.5-4.9 5.7-2 .6-2.5 3.7-.6 3.7.7 0-.2 1.3-2 2.9-1.7 1.7-3.2 3.9-3.2 5 0 1.7-.6 2.1-3 2.1s-3.1.5-3.6 2.7c-.3 1.6-.9 3.8-1.4 5-.5 1.3-.7 3-.3 4 .5 1.2.3 1.4-.7.8-.7-.4-2.9-.8-4.8-.9-3.1-.1-3.7.3-4.9 3.2-.9 2.1-1.8 3-2.6 2.6-.9-.5-.9-.4.1.7 1.7 1.9 1.5 4-.5 3.7-1-.2-2.6 1-3.9 2.9-1.2 1.8-2.4 3-2.7 2.7-.3-.3-.3.3-.1 1.3.4 1.4-.4 2.3-3.1 3.6-2 .9-4.2 1.7-5 1.7-.8 0-1.8 1.2-2.2 2.7-1.5 6.1-6.6 11.3-10.9 11.3-1.8 0-1.5 5.9.4 7.8 2 2.2 1.4 4.9-1.9 7.6-1.7 1.4-2.9 2.6-2.7 2.7.2 0 3.1.2 6.6.5l6.2.5.7-3.1c.5-2.8.9-3.1 3.2-2.5 1.4.4 5.2.9 8.4 1.2 4.6.4 5.7.2 5.7-1 0-1.1 1.3-1.5 5.2-1.5 3.6-.1 5.6-.6 6.4-1.6 1.3-1.8 3.5-2.1 5-.6.6.6 2.3.1 4.8-1.6l3.8-2.6-2.3-2.4c-1.2-1.3-1.9-2.4-1.5-2.4.5 0 .3-.7-.5-1.6-1-1.3-1-1.7.1-2.4.7-.4 1.5-2.3 1.7-4.2.2-1.8 1.2-4.5 2.2-5.9 1-1.4 2.4-5.1 3.1-8.3.6-3.2 2-6.5 3.1-7.4 1.2-1 1.6-2.4 1.3-3.8-.4-1.4 0-2.3 1-2.7.9-.4 1.6-1.6 1.6-2.7 0-1.9.5-2.1 3.8-1.8 3.1.2 3.7 0 3.8-1.7.2-3.6.4-4.1 2.4-6.2 1.5-1.7 1.6-2.2.5-2.7-.9-.3-1.4-1.8-1.3-4.1.1-3.4 1.1-4.5 2.3-2.5.9 1.5 6.3 1.2 9-.6 2.6-1.7 6.5-1.1 6.5 1.1 0 2.1 8.2 2.6 10 .6.8-.9 2.3-1.5 3.4-1.3 2.3.5 3.8-1.6 3.1-4.6-.4-1.5-.1-2.2 1-2.2.8 0 1.5-.5 1.5-1 0-.6 1.1-.9 2.5-.7 2.5.3 4.7 1.7 2.7 1.7-.7 0-1.2.4-1.2.9 0 1 6.2.3 7-.8.3-.3 1.6-1.1 3-1.7 2.5-1.1 2.5-1.1-1.3-2.3-3.4-1.2-4-1.1-5.2.6-1.4 1.7-1.4 1.7-1.5-.7 0-1.4-.7-3.6-1.6-4.8-.8-1.2-1.4-3-1.2-4 .1-.9-.5-2.8-1.5-4.2-1.4-2-1.5-2.7-.4-4.4 1.2-1.7 1.1-2.7-.5-6.8-2.4-6.4-2.3-7 .9-6.2 2.2.6 2.5.4 1.9-1.1-.9-2.4 1.1-4.5 4.1-4.5 2.4 0 2.5-.2 1.8-3.7-.4-2.1-1-4-1.3-4.3-.4-.3-.8-1.8-1-3.4-.3-2.2 0-2.7 1.2-2.3 1.1.5 1.6 0 1.6-1.3 0-2-.5-2.3-2.7-1.3zM317.8 272.6c1.2.8 2.7 1.2 3.4.8.8-.5.6-1-.8-1.5-3.5-1.4-5-1-2.6.7zM312.5 276c.3.5.8 1 1.1 1 .2 0 .4-.5.4-1 0-.6-.5-1-1.1-1-.5 0-.7.4-.4 1zM220 280c0 .5.5 1 1.1 1 .5 0 .7-.5.4-1-.3-.6-.8-1-1.1-1-.2 0-.4.4-.4 1z"/><path d="M225.8 282.4c-2.3 1.7-2.3 2.6.2 2.6 2.7 0 4 2.9 3.3 8-.7 5.3 1.3 4.8 2.3-.6.3-1.9 1.5-4.1 2.6-4.8 1.7-1.2 1.7-1.4.3-2-2.5-.9-2.8-.8-2.1 1.1.4 1.1-.2.8-1.4-.7-1.1-1.4-2-3.1-2-3.8 0-1.5-1-1.5-3.2.2zM233 282c-.9.6-1 1-.3 1 .6 0 1.5-.5 1.8-1 .8-1.2.4-1.2-1.5 0zM236.5 283c-.3.5-.1 1 .4 1 .6 0 1.1-.5 1.1-1 0-.6-.2-1-.4-1-.3 0-.8.4-1.1 1zM396.3 298.1c1.4.8 2.2.8 3 0 .8-.8.3-1.1-1.8-1.1-2.6.1-2.8.2-1.2 1.1zM334.9 310.5c.5 1.6 1.2 3.8 1.6 4.7.5 1.2.2 2-.9 2.4-2.6 1-1.8 2.4 1.2 2.4 1.7 0 3.7.9 4.8 2.2 1.7 1.9 1.7 2.1.2 1.5-1.9-.7-2.5.8-.7 1.8.6.5.8 2.2.4 4.8-.6 3.3-.5 3.9.8 3.4 1.6-.6 3.8 3.1 4.3 7.3.2 1.4.6 3.5.9 4.7.8 3.2-.8 3.5-3.7.8-2.4-2.2-6.8-3.1-6.8-1.3 0 1.3-3.8.9-5.2-.5-.7-.8-2.3-1.9-3.6-2.6-2-1.1-2.2-.9-2.2 1.4 0 1.4.7 2.8 1.6 3.2.8.3 1.3 1.1 1 1.8-.2.7.2 2.2 1 3.4.8 1.1 1.4 2.6 1.2 3.3-.1.7.5 2.6 1.4 4.3.8 1.6 1.8 4.9 2.2 7.2.6 3.9.4 4.3-1.4 4.3-1.7 0-2 .6-1.8 3.2.3 2.7-.1 3.4-1.7 3.6-1.2.2-2.6 1.5-3.2 3.2-.6 1.7-1.8 3-2.7 3-2 0-2 0 0 4 1.6 3.1 1.6 3.4-.1 4.6-1.3 1-1.5 1.7-.8 2.6 1.3 1.7 1.3 5.1-.1 6-.7.5-.6.8.3.8 1.1 0 1 .5-.3 2.5-.9 1.3-1.6 3.1-1.6 4 0 1-1 1.5-3.3 1.5-4.4 0-4.9.7-3.2 4.1.8 1.5 1.2 3.4.9 4.2-.3.9.3 1.6 1.5 2 1.3.3 2.1 1.3 2.1 2.6 0 1.2.6 2.1 1.5 2.1 1.2 0 1.2.5-.4 3.2-1 1.8-2.1 4.4-2.4 5.8-.8 3.1-5.4 5.5-7.4 3.9-1-.9-1.3-.4-1.3 2.9 0 2.3.5 4.2 1.3 4.5.9.3.9.8.1 1.7-1.9 2-.4 4.8 3.2 6 2.8 1 3.4 1.6 3.4 4 0 1.6.5 3.2 1 3.5 1.5.9 1.2 4.1-.5 5.5-1.7 1.4-2 5.7-.5 8 .6.9 1 1.1 1 .3 0-.7.7-1 1.5-.7.8.4 2.4-.5 3.8-2.1 3-3.5 6.2-2.7 8.4 2.1 1.3 2.6 2.3 3.4 4.4 3.4 3 0 5.2 2.1 4.4 4.2-.3.8.7 2.9 2.3 4.8 2.8 3.1 3 3.2 4 1.4.7-1.4.6-2.6-.4-4.4-.7-1.4-1.3-3.6-1.4-4.9 0-2 .2-2.2 1.6-1 1.3 1 1.7 1 2.4 0 .5-.9 1-1 1.4-.3.4.7 1.5.8 2.7.4 1.7-.7 2.1-1.8 2.3-7 .2-5.1 0-6.2-1.2-5.7-.7.3-2 .5-2.9.5-1 0-1.3.6-.9 1.6.3.8.2 1.3-.3 1-.5-.3-1.2-2.1-1.5-4.1-1-4.9-5.3-9.8-8.3-9.2-1.2.2-2.8-.2-3.4-.9-.9-1.1-.7-1.4.8-1.4 2.6 0 3.5-1 2.2-2.6-.7-.9-.6-1.2.3-1 3.3.7 6.7 2.7 8.1 4.6l1.5 2.2 2.1-2.1c2.1-2.1 2.9-4.7 1.1-3.6-.5.3-1-.1-1-.9 0-1 .8-1.3 3-1.1 2.1.3 3 0 3-1 0-.8.5-1.5 1-1.5.6 0 1.5-1.2 2-2.6.6-1.4 1.9-2.8 3.1-3.1 1.2-.4 1.8-1.1 1.5-2-.3-.7.1-1.6 1-2 .9-.3 2-1.5 2.4-2.7.7-1.8.9-1.8.9-.3.1 2.5 2.1 1.1 2.1-1.5 0-1.2.3-1.9.6-1.5.3.3 1.6-.3 2.8-1.4 1.1-1.2 4.4-3.2 7.1-4.6 2.8-1.4 5.3-3.1 5.7-3.8.4-.7 1.8-1 3.3-.7 1.4.2 2.5 0 2.5-.6s1.4-1.3 3.1-1.7c2.4-.5 3.5-.2 5 1.4 2.4 2.5 6.6 1.5 6.1-1.5-.2-1.1-.4-2.7-.6-3.8-.1-1-1.1-2.3-2.2-3-1-.6-1.9-1.7-2-2.4-.1-.6-.2-1.7-.2-2.2-.1-.6-1.8-1-3.7-1-3.1 0-3.5-.3-3.5-2.5 0-1.4.5-2.5 1.1-2.5.5 0 .7-.5.4-1-.3-.6.3-1.4 1.5-1.8 2-.8 1.9-1-2-3.7-2.4-1.6-5.3-3-6.6-3-2.7-.2-6.4-3.1-6.4-5.2 0-.7-.9-2.1-1.9-3-1.1-.9-1.7-2.1-1.4-2.6.3-.5-.5-1.5-1.7-2.4-1.2-.9-1.9-2.1-1.6-3 .3-.8.1-2.4-.5-3.5-.9-1.6-.7-2.3 1-3.5 2.8-1.9 2.6-3.3-.4-3.3-3.6 0-8.2-2.6-9-5-.4-1.4-1.5-2-3.6-2-1.7 0-3.2-.6-3.6-1.5-.6-1.8 2.3-5.5 4.3-5.5.7 0 2.4-.5 3.7-1.1 2-.9 2.4-1.7 2.2-4.5-.4-4.5-1.3-5.6-3.6-4.9-1 .4-1.9.2-1.9-.3 0-.6-1.5-.7-3.7-.2-2.1.4-5.5.7-7.5.6-2.1-.1-3.8.2-3.8.6 0 1.8-4-1.8-4.9-4.4-1.1-3.2 0-4.4 2.7-2.9 1.1.6 2.2.7 2.6.4.3-.3.6.2.7 1.3 0 1.2.3 1.4.6.6.3-.7-.5-2.4-1.8-3.8-2.2-2.4-2.2-2.4-.3-4.6 1.5-1.8 1.6-2 .2-.9-1.8 1.3-2.4.7-1.9-2.1.2-1.7-4.2-8.8-5.5-8.8-.8 0-1.4-1-1.4-2.4 0-1.3-.7-2.7-1.6-3-2.2-.9-2.4-.8-2.4.9 0 2-1 1.9-2.6-.3-1.2-1.5-1.2-1.3-.5 1.3zm24.2 61.8c1.3 1.7-.4 5.9-2.7 6.7-1.3.5-2.4 1.7-2.4 2.6 0 1.1-.5 1.4-1.6 1-.9-.3-2-.6-2.5-.6s-.9-.5-.9-1.1c0-.6.9-.8 2.2-.3 2.2.7 2.2.6.4-2-1-1.7-1.5-3.4-1-4.4.4-.9.6-2 .6-2.5-.1-.4.7-.7 1.8-.7s2-.5 2-1.1c0-1.1 2.7.5 4.1 2.4zM117 315c0 2.4-3.6 5-4.9 3.7-.9-.9-1.4-.8-2 .2-.5.7-1.4 1-2 .6-1.2-.7-4.1 1.1-4.1 2.5 0 1.3 6.3 2.1 7.1.9.4-.6 2.9-1.2 5.6-1.3l4.8-.1-.3-3.2c-.3-1.9-.9-3-1.4-2.7-.6.4-1.4 0-1.9-.7-.7-1.2-.9-1.1-.9.1z"/><path d="M358 321.9c0 .6.6 1.1 1.4 1.1.9 0 1.3.9 1.1 2.5-.3 3 .8 3.9 3.4 3 2.1-.6 3.5-6.5 1.6-6.5-.7 0-2.7-.3-4.4-.6-2-.4-3.1-.3-3.1.5zM307.5 337c-.3.5-.1 1 .4 1 .6 0 1.1-.5 1.1-1 0-.6-.2-1-.4-1-.3 0-.8.4-1.1 1zM424.1 338.6c1.1 1.3 1.1 1.8.2 2.1-.7.3-1.3 1.1-1.3 1.8 0 1.4 6 1.4 9.2.1.9-.4 2.2-.5 2.8-.1 1.8 1.1 1.1-1-1.1-2.8-1.1-1-2.8-1.5-3.8-1.2-1 .3-3.1.1-4.6-.5-2.6-1-2.7-.9-1.4.6zM386 344.8c0 .4-1.2.7-2.7.6-1.6-.1-3.2.1-3.8.5-.5.3-1.4.6-2 .7-.5 0-1.5.2-2.1.2-.7.1-1.4 1.3-1.6 2.7-.6 2.9 2.3 6.1 4.8 5.1.8-.3 2.1-.3 2.7.1 1.6 1 5.7 1 5.7 0 0-.4.4-.6.9-.3 1.9 1.2 3.9-.6 3.6-3.2-.1-1.5.2-3.2.7-3.9 1-1.3.4-1.8-3.4-2.7-1.6-.3-2.8-.3-2.8.2zM209 395.8c0 .5 1 1.7 2.1 2.8 2.2 1.9 2.2 1.9 1-.3-1.2-2.4-3.1-3.9-3.1-2.5zM214 399c0 .5.5 1 1 1 .6 0 1-.5 1-1 0-.6-.4-1-1-1-.5 0-1 .4-1 1zM221.8 401.7c-4.3.5-4.5.9-1.8 4.3 1.1 1.4 2 3.1 2 3.7 0 .7.5 1.3 1 1.3.6 0 1 .8 1 1.9 0 1.2.9 2 2.7 2.4 3.7.7 5.2-.1 4.8-2.5-.5-2.4-1.5-3.7-1.5-2 0 .7-.4 1.2-1 1.2-.5 0-1-1.1-1-2.4 0-1.3-.8-2.7-1.7-3-1.2-.5-1.4-.9-.5-1.8 1.3-1.3 1.6-3.9.5-3.6-.5.1-2.5.3-4.5.5zM379 427.5c0 .8.5 1.5 1 1.5.6 0 1-.7 1-1.5s-.4-1.5-1-1.5c-.5 0-1 .7-1 1.5z"/></g></svg>