<svg version="1" xmlns="http://www.w3.org/2000/svg" width="1402.202" height="1086.481" viewBox="0 0 1051.651 814.861"><g fill="#222"><path d="M204 .161c0 .4 1.1 2.3 2.5 4.3s2.5 4.5 2.5 5.4c0 .9 1.1 3.4 2.5 5.4 2.5 3.7 3.5 10.6 1.5 10.6-.7 0-.7.7.1 2.1.6 1.2.9 3.4.7 5-.3 1.7.1 3.4.9 4 1.8 1.5 1.7 5.8-.2 6.5-1.5.6-2.2 3.5-.7 3.3 2-.3 3.1.2 2.6 1.5-.3.7.2 1.6 1.1 1.9.8.4 2 1.8 2.5 3.2.5 1.4 1.6 2.5 2.4 2.5 1.5 0 6.6-4.5 6.6-5.7 0-.4.6-1.4 1.4-2.2 2.1-2.5.3-7.3-3.6-9.6-1.8-1.1-4-1.8-4.8-1.7-2 .2-6.1-7.9-5.3-10.7.6-2.2 2.7-2.8 3.8-1.1.4.7 1.3.7 2.6 0 1.6-.9 1.7-1.5.8-3.1-.6-1.2-1.3-3.2-1.5-4.7-.7-3.7-1.2-4.2-4-4.2-1.9 0-2.4-.5-2.4-2.4 0-2.9-5.9-9.3-9.4-10.2-1.4-.3-2.6-.4-2.6-.1zM457.4 49.261c-2.3 1.8-1.2 3.3 1.6 2 1.2-.6 1.7-1.4 1.2-2.1-.7-1-1.2-1-2.8.1zM163 50.761c0 1.2 2.8 4.1 3.9 4.1.5 0 1.1 1.8 1.5 4 .7 4.3 3.9 7.2 5 4.5.3-.8 1-1.5 1.5-1.5.9 0 4.2 6.2 4.5 8.6.1.7 1 2.2 2.1 3.4 2.2 2.5 8.2 2.7 10 .4.6-.9 2.7-1.7 4.6-1.9 2.5-.2 3.5-.8 3.7-2.1.4-3.3-1.2-4.8-3.7-3.4-2.9 1.5-8.7.9-8.3-.9.2-.9-.4-1.2-1.8-.8-1.3.3-2.3 0-2.6-.8-.3-.7-3.2-2.7-6.5-4.5-3.9-2.1-5.9-3.7-5.5-4.5.3-.8-.9-2.2-2.8-3.4-3.6-2.3-5.6-2.7-5.6-1.2zM453 49.961c0 .4.7 2.5 1.5 4.8.8 2.2 1 4.1.5 4.1-2.1 0-.9 3.1 1.6 4 2.6 1 2.7 1.9.7 9.5-.5 1.9-.4 1.9 1.1-.1.8-1.1 1.6-2.7 1.8-3.5.2-.7.9-2 1.6-2.7 1.4-1.6 1.6-8.2.2-8.2-.5 0-2.7-1.9-4.9-4.3-2.2-2.3-4.1-3.9-4.1-3.6zM459 52.861c0 .5.5 1 1 1 .6 0 1-.5 1-1 0-.6-.4-1-1-1-.5 0-1 .4-1 1z"/><path d="M209.1 61.461c-2.6 4.5-3.5 5.4-5.1 4.9-1.3-.4-2.2-.1-2.6.9-.8 2 1.2 5.3 3.6 6.1 1.5.5 1.8 1.2 1.4 3.4-.6 3 1 5.1 2 2.6.3-.8 1.3-1.5 2.2-1.5 1 0 1.4-.5 1-1.5-.4-1 .1-1.4 1.7-1.2 1.6.1 2.3-.4 2.5-2.1.2-1.4 1-2.2 2.2-2.2 1.4 0 2.1-1 2.5-3.8.4-2 .8-4.1.9-4.5.1-.5 2.1 2.3 4.5 6.3 2.3 3.9 4 7.4 3.7 7.7-.3.3.1 2.1.9 4 1.9 4.4 1.9 4.3-.4 4.3-1.8 0-3.4-.7-12.5-5.2-2.1-1.1-3.5-1.5-3.1-.8.4.6 0 1.9-.7 2.8-1.3 1.4-1.3 2.1-.2 4.2 1 1.9 1.4 2 1.4.7 0-1.4.8-1.7 4.9-1.5 4.1.2 5.2.7 6.2 2.5 1.5 2.7 2.6 2.9 3.1.6.3-1.5.4-1.5 1.7.1 1.3 1.5 1.2 1.8-.7 2.3-1.2.3-2.2 1.2-2.2 1.9 0 .8-1.1 1.9-2.4 2.5-2.9 1.4-4.1 5.1-2.6 8 .6 1.1 1 3.2.8 4.7-.2 2.1-.9 2.8-3 3-2 .2-2.8.9-2.8 2.3 0 1-.7 1.9-1.5 1.9-1.8 0-1.9 1.2-.3 2.8.8.8.8 1.2.1 1.2-1.2 0-11.3 9.7-11.3 10.9 0 .5.9 2 2 3.3 1 1.4 1.6 2.9 1.2 3.3-.4.5 0 .6.9.2.9-.3 2.2 0 2.8.6.6.6 1.1.7 1.1.2 0-1.9 4 3 5 6.1.7 1.9 1.7 3.4 2.4 3.4 1.9 0 4 5 2.6 6.4-.7.7-.2 1.7 1.7 3.2 2.7 2.1 2.7 2.3 1 4.2-1 1.1-1.4 2.3-.9 2.6 1.3.8 2.2 5.9 1.5 8.5-.5 1.9-1 2.1-5.7 1.5-2.8-.3-6.1-1.3-7.3-2-1.9-1.2-2.3-1.2-2.3-.1 0 .8-1.1 1.9-2.5 2.5-2.5 1.1-2.9.5-2.4-3.4.1-1-2.4-2.4-4.3-2.4-1 0-1.8.7-1.8 1.5s-.9 1.5-1.9 1.5c-1.1 0-2.3.5-2.6 1-.5.8-1.1.7-2.1-.1-1.1-.9-2.1-.9-3.9-.1-1.4.7-2.5 1.6-2.5 2.1s-1.5 1.2-3.4 1.5c-2.2.4-3.7 1.4-4.1 2.6-.5 1.6-1.5 2-5 2-2.4 0-4.7-.5-5-1-1-1.6-2.5-1.1-2.5.8 0 2.9-1.9 4-6.1 3.5-2.7-.4-3.9-.2-3.9.6s-1.3.4-3.6-1c-2.7-1.6-3.8-1.9-4.4-1-.9 1.6-1.3 1.5-5-.4-1.6-.8-3.3-1.4-3.7-1.3-1.5.5-6.2-3.9-7.3-6.6-.5-1.5-1.4-2.5-1.9-2.2-.5.3-1.2-.6-1.6-2.1-.3-1.5-.9-2.3-1.3-1.7-.4.5-3 .9-5.9.9-5.1 0-5.2 0-3.7 2.2.7 1.2 1.4 2.4 1.4 2.6 0 .2-2.1 1.5-4.6 2.8-4.4 2.2-4.7 2.3-7.6.6-3.9-2.2-5.5-2.1-6.3.3-.4 1.4-1.5 2-3.6 2-3 0-3.6.9-1.9 2.6 1.5 1.5 2.3 6.4 1 6.4-.5 0-1 .6-1 1.4 0 .7-.6 1.9-1.4 2.5-1.1 1-1.9.8-3.5-.6-1.2-.9-2.1-2.2-2.1-2.7s-.7-1.7-1.5-2.6c-1.3-1.5-1.3-2.1-.2-4.9 1.6-3.7 1.2-7.5-.9-9.2-1.1-.9-1.4-.7-1.4 1 0 2.9-2.5 3.7-5.5 1.7-2.1-1.4-2.5-1.4-2.5-.2 0 .8-1.7 2-3.7 2.6-2.1.7-4.6 1.9-5.5 2.8-1.4 1.2-2.1 1.2-3.2.3-1.1-.9-2-1-3.5-.2-1.1.6-3.1 1.1-4.6 1.1-1.5 0-2.4.4-2 1 .3.5.3 1-.2 1-1.1-.1-3.8-4-4.7-6.6-.4-1.2-1.6-2.4-2.7-2.7-2.4-.6-1.7-2.7.9-2.7 1.3 0 1.3-.2-.4-1.5-2.6-1.9-3.4-1.9-3.4.4 0 1.9-2.6 3.6-3.4 2.3-.2-.4-.3-2.2-.2-4 .2-2.3-.6-4-2.7-6.3-2.2-2.5-2.5-3.4-1.5-4 1-.7 1-.9 0-.9-.7 0-2.2-2-3.4-4.4-1.1-2.4-3.2-4.9-4.6-5.6-2.2-1-2.8-.7-5.2 2.2-2.3 2.7-3 3.1-4.3 2-.9-.8-1.8-.9-2.1-.3-.4.5-2.7.9-5.1.8-4.4-.2-4.5-.1-4.5 2.8 0 1.7-.5 3.6-1.1 4.2-.9.9-.3 2 2 4.5 3.6 3.9 3.8 4.9 1.1 6.6-1.1.6-1.7 1.8-1.4 2.6.4 1-.2 1.6-1.8 1.8-2.1.3-1.8.8 3.8 6.5 3.4 3.5 7.2 6.7 8.5 7.1 1.3.5 2.8 2.3 3.4 4.3.8 2.2 1.8 3.4 3.1 3.5 2.3.1 6.6 2.2 7.6 3.8.5.8.8.7.8-.2 0-.6.9-1.2 2-1.2s2.3-.8 2.6-1.8c1.6-4.7 3.6-8.2 4.8-8.2 1.7 0 2.9 2.7 1.6 3.5-.6.4-1 1.6-1 2.7 0 3.1-2.3 9.1-3.9 10.4-1.2 1-.9 1.4 1.7 2.8 1.8.9 3.2 2.1 3.2 2.6 0 .6 1.6 1 3.5 1 3.3 0 4.4.7 8.3 5.4 1.3 1.6 6.2 2.2 6.2.8 0-.4 2.6-1.7 5.8-2.7 7.5-2.5 15.2-8.2 15.9-11.7.3-1.5 1.7-3.5 3.2-4.4 1.4-1 3.2-2.5 3.8-3.3 1.2-1.6 1.2-.2-.1 6.9-.2 1.2.9 1.5 5.3 1.5 5.3 0 5.6.1 5.3 2.4-.2 1.3-1.3 3.2-2.4 4.1-2.1 1.6-2.1 1.7-.2 3.1 2.3 1.7 3.1 4.4 1 3.6-2.2-.9-2.8 2.2-1.2 5.5 1.5 2.8 1.4 2.9-.7 2.6-2.5-.3-6.7-8-4.8-8.6.6-.2.9-.8.5-1.3-.7-1.2-2.4-1.1-2.4.2 0 1.9-2.7 3.8-4.8 3.2-1.4-.3-2.4.2-3.2 1.6-.9 1.8-.7 2.5 1.7 4.7 1.5 1.4 3.8 3.5 5 4.6 1.3 1.3 3.6 2.2 6 2.3 3.5.1 3.8.3 3.5 2.8-.2 1.5.1 2.7.7 2.7s1 .5.9 1.2c-.2.7.7 1.7 2 2.3 1.2.5 2.2 1.7 2.2 2.6 0 1.8-3.7 3.3-4.6 1.8-.3-.5 0-.9.7-.9 1.7 0 .5-1.1-1.5-1.4-.9-.1-2.2-1-2.9-2-1.3-1.7-1.6-1.6-5.2 1.7-2.3 2.2-3.5 3.9-3 4.7.5.9.2 1-1.4.5-2.2-.7-2.5 0-2.1 3.9.1 1-.3 1.5-.8 1.2-.6-.4-1.3-.2-1.7.4-.3.6.1 1.3.9 1.6 2.5 1 1.9 4.3-.9 5-1.3.3-2.7 1.5-3 2.5-.4 1-1.1 1.9-1.6 1.9s-.7 1.4-.5 3.1c.4 3.7 4.1 8.9 5.3 7.3.4-.6 2-1.4 3.6-1.8 1.8-.4 2.7-1.3 2.7-2.6 0-1 .4-2.1.9-2.4.4-.3 1.1-1.9 1.4-3.6.5-2.3 1.2-3 2.9-3 1.3 0 3.2-.7 4.2-1.5 2.5-1.9 7.4-1.9 11.9 0 2 .8 3.9 1.5 4.2 1.5.3 0 .5-.7.5-1.5 0-1.7 4.6-2.1 6.9-.6 2.2 1.4 3.8.2 3.3-2.5-.6-3.1.7-3.1 7.1.1 5.1 2.6 6.6 2.3 6.7-1.3 0-2.2 2.1-1.2 6.7 3.3 3.5 3.3 5 4.2 5.9 3.4.7-.6 2.9-.9 4.8-.8 1.9.2 3.8 0 4.2-.4.4-.4 1.6-.7 2.6-.7 1.1 0 1.6-.5 1.3-1-.3-.6-.3-1.6.2-2.2.4-.7.7-2.2.8-3.3 0-1.4.6-1.9 2-1.8 2.9.3 3.1-4.4.1-5.3-2.1-.7-3.6-2.2-3.6-3.8 0-.5.6-.4 1.3.1.6.6 2.4 1.3 4 1.7 2 .5 2.7 1.3 2.7 2.9 0 1.3.5 2.8 1.2 3.5.9.9.8 1.5-.4 2.4-2.1 1.8-2.9 4.6-1.5 5.1.9.3.9.8-.1 2-1.1 1.3-1.1 2.1.2 4.6 1.6 3 1.3 8.4-.7 10.9-1.1 1.4 1.7 5.2 4 5.2.7 0 1.3.4 1.3.8 0 1.4 5.4.2 8-1.8 2.3-1.8 2.4-1.9.7-3.8-.9-1-1.7-2.2-1.7-2.5 0-1.1 8.4.5 9.2 1.7 1.6 2.3.7 3.6-2.2 3.6-3.2 0-3.6.9-2 4 .6 1.1 1.7 1.6 2.9 1.3 1-.3 2.2 0 2.5.6 1 1.6 3.7 1.3 5-.4.9-1.3 1.6-1.3 4.3-.3 4.2 1.6 6.8 6.8 6.4 13.1-.3 5.7 1.7 8.7 6.1 8.7 1.8 0 2.8.5 2.8 1.5 0 .8.9 1.5 1.9 1.5 3.6 0 5.9 3.1 5.4 7.3-.4 2.7-.9 3.7-1.9 3.3-1.7-.7-1.7-.4-.2 2.9.6 1.4 1.5 2.5 2 2.5s1.3 1.1 1.8 2.5 1.5 2.4 2.2 2.3c.7-.2 1.4.8 1.6 2.2.2 1.4.9 2.8 1.6 3.2.6.4 1.1 1.1 1.2 1.5 0 .4.4 1.6.8 2.5.5 1.1 0 2.7-1.4 4.6-1.2 1.6-2.1 4.4-2.2 6.3 0 4.8-.7 6.9-2.4 6.9-.8 0-1.4.7-1.4 1.5s-.9 1.5-1.9 1.5c-1.1 0-2.2.8-2.6 1.8-.3 1.1-2.3 2.5-4.6 3.2-3.6 1.2-4 1.7-3.6 4 .7 3.2.3 3.8-5.1 7.3-3.3 2.1-4.2 3.3-3.7 4.5.4.9.9 3.2 1 4.9.3 2.9 0 3.3-2 3.3-1.3 0-2.7-.4-3-1-.3-.5-1.6-.9-2.9-.8-2.6.2-2.8 2.5-.4 3.9.9.5 1.9 2.5 2.2 4.4.7 3.6.9 3.7 7.2 3.9 4.5.2 6.4 2.1 5.7 5.9-.3 1.8-1 3.7-1.5 4.3-.5.7-.3 1.4.5 1.7 2 .8 1.4 4.4-1.1 6.7-1.2 1.2-2.2 2.6-2.2 3.3-.1 2.3-3.8 5.7-6.4 5.7-1.8 0-2.4.4-2 1.5.9 2.3-2 1.8-7.5-1.2-2.7-1.4-5.2-3.4-5.4-4.5-.8-3-3.4-2.2-3.4 1.2 0 1.6.5 3 1 3s.7.7.3 1.5c-.3.8 0 1.5.7 1.5.6 0 0 .8-1.3 1.7-1.4 1-2.8 1.7-3.2 1.5-.5-.1-.8.8-.8 1.9 0 1.7-.5 2-2 1.6-1.8-.4-2-.2-1.4 1.6.9 2.9 2.4 4.8 3.4 4.2 1.1-.7 3.3 2.3 2.7 3.8-.2.7-.1 3.7.4 6.7.7 4.3.5 6.2-.7 8.9-1.2 2.4-1.3 3.6-.5 4.4.6.6 1.1 2.1 1.1 3.4 0 2.9-4.8 5.2-6.2 3.1-.6-1-.8-.8-.8.4 0 1-.4 1.8-.9 1.8-1.7 0-4.2 3.2-3.7 4.7.7 1.8-2 7.3-3.6 7.3-.9 0-.9.3 0 1.2 1.6 1.6 1.6 4.8 0 4.8-.9 0-.9.3 0 1.2 1.9 1.9 1.4 2.8-1.4 2.8-1.8 0-2.8.6-3.1 2-.4 1.5-1.1 1.9-2.4 1.5-1.5-.5-1.9-.1-1.9 1.5 0 1.2.4 1.9.9 1.6.5-.3 1.4.1 2.1.9.7.8 1.8 1.5 2.6 1.5 1.7 0 3.7 3.7 3 5.6-.4 1 0 1.4 1.2 1.2 1.1-.2 1.6.3 1.4 1.4-.2 1.2.2 1.6 1.1 1.2.8-.3 2.1.2 3 1 .9.9 2.4 1.6 3.5 1.6 1 0 2.8 1 4 2.3 2.8 2.9 8.2 2.6 8.2-.4 0-2.1.8-2.3 2.9-1 1.6 1 2.3 3.2 2.4 7.1 0 2.3.3 2.5 3.5 2.2 5.4-.7 14.8 4.7 15.6 9 .6 2.8 1.9 4.8 3.1 4.8.7 0 1.6.7 1.9 1.6.9 2.5.7 7.4-.4 7.4-.5 0 1 2.1 3.4 4.7 3.5 3.7 4.2 5.1 3.5 6.5-.6 1.1-1.6 1.5-2.7 1.1-1-.4-.6.4 1.1 2 1.5 1.5 3.6 2.7 4.5 2.7 1.9.1 6.2 3 4.4 3-.7 0-1.2.7-1.2 1.7 0 .9.3 1.3.7 1 .3-.4 1.2-.2 2 .5.8.6 1.7.7 2.2.2 1.3-1.6 3.2-10.9 2.5-12.7-.5-1.4 0-1.7 2.2-1.7 4.1 0 9.4-5.2 9.4-9.1 0-1.7-.5-3.9-1-5-.8-1.4-.7-1.9.3-1.9.7 0 2.4-1.1 3.7-2.5 1.3-1.4 3.8-2.7 5.6-3.1 1.8-.3 3.9-1.2 4.5-2 .7-.8 2-1.2 3-.9 1.2.4 1.9-.1 2.4-1.5.3-1.1 1.5-2.1 2.6-2.1 2.3-.2 2.7-.3 6.2-1.7 3.7-1.6 4.4-1.5 5.5.3.7 1.3 1.4 1.4 3.6.5 1.5-.5 3.2-.7 3.8-.4.6.4 2.4.7 4 .6 2.3-.1 2.8.3 2.4 1.4-.3.9-.1 2.4.4 3.5.8 1.5.7 1.9-.5 1.9-.8 0-1.5.7-1.5 1.5s.5 1.5 1 1.5c.6 0 1 .9 1 2 0 2.2 1.6 2.7 2.2.8.3-.9 1.3-.7 3.3.7 1.5 1.1 3.9 2.7 5.2 3.7 2.4 1.6 7.7 12.4 6.8 13.9-.3.3.2 1.3 1.1 2 .9.7 2.9 3.2 4.5 5.6 2.5 3.5 2.8 4.6 1.9 6.3-1.6 3.1 1.5 7.7 7.6 11.5 3.2 1.9 4.8 3.6 4.6 4.6-.1.9 2 4.1 4.7 7 5.6 6 6 6.9 3.1 6.9-1.3 0-1.8.5-1.3 1.6.8 2.2-5.3 8.3-7.8 7.7-2.1-.6-2 .1 1.1 6.3 1.8 3.4 1.8 3.6 0 5.4-1.2 1.2-2.6 1.7-3.6 1.3-1.4-.5-1.4-.3-.3 1.6 1.6 2.4 3.7 2.8 4.5.7.7-1.8 3.1-1 3.9 1.3.9 3 7.3 5 14 4.4 6.1-.6 8.5-1.8 7.7-4.1-.3-1.1.6-1.2 4.3-.6 4.6.6 4.7.6 3.6-1.5-1.2-2.1.2-3.1 1.4-1.1 1 1.6 3.5 1.1 3.5-.7 0-1.3.6-1.1 2.8 1 1.8 1.7 3.9 2.7 5.8 2.7 3.7 0 14.4 5 14.4 6.8 0 .9.5 1 1.6.4 2.3-1.3 8.7.5 11.5 3.1 1.3 1.2 3.7 2.2 5.4 2.3 1.6 0 4.2.4 5.6.8 2.1.6 3.1.3 4.8-1.5 1.1-1.3 2.1-1.8 2.1-1.2 0 .8 1.2 1 3.4.6 3-.5 4 0 7.2 3.1 2.3 2.2 5.6 4.2 8.3 4.9 3.3.9 4.6 1.8 5.3 3.8.5 1.5 2.1 3 4.1 3.7 2.2.8 3.9 2.4 5 4.6.9 1.9 2.9 4 4.4 4.8 2.5 1.2 2.8 1.9 2.8 6.1 0 2.7.5 4.7 1.1 4.7.6 0 2.1 1.1 3.4 2.5 1.8 1.9 3.2 2.4 6.3 2.3 2.5-.1 4.4.4 5.1 1.4.6.8 2.1 2 3.4 2.7 1.5.8 2.2 2.1 2.2 4 0 2.4.5 2.9 2.9 3.3 2.1.3 2.8.1 2.4-.9-.4-1 0-1.1 1.8-.5 1.3.5 4.1.7 6.2.4 2.3-.2 3.7 0 3.7.7 0 1.6 5.2 1.3 7.4-.4 2.4-1.8 6.9-1.9 9.9-.3 3.2 1.7 10.5 1.8 11.1.1.4-.9 1.4-1.1 3-.7 1.9.4 2.7 0 3.7-1.8.7-1.2 1.2-2.8 1.1-3.4-.1-.7.4-1.4 1.3-1.7.9-.4 1.2-1.3.8-2.4-.6-1.5-.4-1.6.8-.6.8.6 3 1.4 5 1.8 2.3.4 4.1 1.5 4.8 2.8 2.6 4.8 8.1 5.1 8.1.4 0-1.6.3-1.7 1.5-.7 1.4 1.1 1.9.7 1.6-1.3 0-.4.5-.7 1.1-.8.7 0 .3-.4-.9-.9-1.3-.5-2.3-1.8-2.3-2.9 0-1.4.5-1.9 1.5-1.5 1.8.7 1.9 2.1.3 2.7-.8.3-.6.6.5.6.9.1 1.7-.3 1.7-.9 0-.5 1-.9 2.3-.7 1.9.2 2.3-.4 3.1-4.6.6-2.8 1.5-4.7 2.3-4.7.7 0 1.3.7 1.3 1.6 0 .9.6 1.4 1.3 1.1.6-.2 1.2-.9 1.1-1.5-.1-.7-.2-2.1-.2-3.3-.1-1.1-.6-1.8-1.1-1.5-.4.3-1.3-.6-2-2-1.4-3.2-1.4-3.4.5-3.4 2.6 0 .6-1.7-2.7-2.2-1.9-.3-3.3 0-3.6.8-.3.9-1.4.6-3.9-1.1-2-1.3-4.2-2.1-5-1.8-.8.3-1.4-.1-1.4-1 0-2-6.7-7.1-7.2-5.5-.3.7-2-.3-4.2-2.5-2.1-2.1-4.7-3.7-5.9-3.7-1.3 0-3.2-.6-4.3-1.4-1.6-1.2-2.2-1.2-3.4-.2-.8.8-2.6 1.6-4 1.9-1.4.3-3.4.8-4.5 1.2-1.5.4-3.1-.4-6.1-3.2-2.3-2.1-4.4-4.6-4.7-5.6-.4-1.1-1.7-1.7-3.5-1.7-1.6 0-3.5-.7-4.3-1.6-.9-1.1-2.2-1.4-4.8-.9-2 .4-3.9 1.1-4.2 1.6-.4.6-1.6.5-3.2-.2-2.5-1.1-2.5-1.3-.9-2.5 1.3-1 1.5-1.7.7-3.1-1.4-2.4-.7-6.6.8-5.6.7.3-.2-.7-1.9-2.3-1.7-1.6-4.3-3-5.8-3.2-2.9-.2-3.1 0-1.5 3.1 1.1 2.1 1 2.1-1.2-.2-1.7-1.6-2-2.5-1.1-2.8.6-.3 1.2-1 1.2-1.8 0-.9 1.3-1.1 4.8-.7 2.6.3 4.9.9 5 1.3.2.5.8.7 1.3.3 1.1-.6 1.2-2.5.2-2.2-.5.1-1.7-.3-2.9-.9-1.2-.7-2.5-.8-3.5-.2-2.1 1.3-2.4 1.1-2.5-1.6-.2-1.9.3-2.5 1.7-2.5 1.1 0 2.3-1 2.8-2.2l.8-2.2 1.4 2.2c.8 1.2 1.9 2.2 2.6 2.2.6 0 1.4.6 1.6 1.2.4 1 .6 1 .6.1.1-.6-.3-1.5-.9-1.8-.5-.3-1-1.1-1-1.6s1.1-.2 2.4.8l2.4 1.8-2.1 2.3-2.2 2.4 4 3.4c3.1 2.6 4.1 3 4.3 1.8.3-1 1.1-1.4 2.3-1.1 1.2.3 2-.1 2.4-1.4.4-1 1.5-1.9 2.6-1.9 1.4 0 1.9-.7 1.9-3 0-1.7-.4-3-1-3-.5 0-1.9-.9-3-2s-2.7-2-3.5-2c-1.2 0-1.4-.8-.8-4.3.4-2.3.7-5.1.7-6.2 0-1 .8-2.7 1.8-3.7 1.9-1.9 3.3-2.4 2.3-.8-1 1.6 1.1 1.1 2.6-.6.7-.8 2.1-1.3 3.1-1.1 1.5.4 1.6.2.7-1.5-.8-1.5-1.3-1.7-2.5-.7-1.1.9-1.4.8-1.4-.4 0-.8.6-1.7 1.3-2 .9-.3.7-.9-.5-2.3-1.1-1.3-1.5-2.8-1.1-4.3.4-1.8.2-2.2-.8-1.9-.8.2-1.5 1.4-1.7 2.6-.3 2-2.2 3.2-2.2 1.4 0-.5-1.8-1.8-4-3.1-3.9-2.2-4-2.2-4-.2 0 1.3-.6 1.9-1.7 1.9-1-.1-2.7.2-3.9.6-2.7.8-5.4-1.8-2.8-2.8 1.3-.5 1.4-.9.4-2.1-.7-.8-1-2.1-.7-2.9.3-.7 0-1.9-.6-2.6-1-1-.8-1.2.7-.6 1.1.4 2.3.2 2.7-.5.5-.9 1.4-.9 3.6-.1 6.4 2.4 8 2.4 8.7-.4.5-1.9 1.1-2.4 2.6-1.9 1.4.5 2 .2 2-.9 0-.9.7-1.6 1.5-1.6s1.5.4 1.5 1c0 1.8 3.2 1.1 5.1-1.1 1.6-1.8 2-1.9 2.5-.6.8 2.1 4.6 1.7 6.3-.6.7-1 1.9-1.6 2.7-1.3.8.3 1.4-.1 1.4-.9s.9-2 2-2.8c1.3-.9 1.8-2 1.4-3.1-.7-1.8 0-2 2.6-.6 2.8 1.5 7-.7 7-3.6 0-1.2-.6-2.5-1.2-2.7-1-.4-.9-.8.2-1.6 1.2-.9 1.3-1.4.2-3.1-1.6-2.7-1.5-2.9.9-2.3 1.6.4 3-.4 5.5-3.3 3.1-3.4 3.7-3.7 5.4-2.6 2.5 1.5 2.8-.4.6-3.4-1.2-1.5-1.8-1.7-3.3-.8-1.4.9-2.9.5-7.3-1.7-3-1.6-6.3-3.1-7.2-3.3-1-.3-1.8-1.2-1.8-2.1 0-1.2.4-1.3 1.8-.5.9.5 3.7 1.6 6.2 2.4 4.8 1.6 7 .9 7-2.4 0-1.1 1.5-2.3 4.1-3.3 3-1.2 4-2.1 3.6-3.2-.5-1.2.2-1.5 3.3-1.5 3 0 4.3-.6 5.9-2.6 1.2-1.5 2.1-3.3 2.1-4.1 0-.8.8-1.3 1.8-1.1 1.1.2 2.6-.2 3.4-.9 1.9-1.6 5.4.7 7.1 4.9.9 2.3 2.4 3.4 6.6 4.8 3.8 1.4 5.9 1.7 7.2 1 1.4-.8 2.1-.5 3.3 1.1 1.3 1.9 2.1 2.1 7 1.5 5.3-.7 5.6-.6 6.7 1.8.7 1.4 1.6 2.6 2 2.6.4 0 1 .8 1.2 1.7.4 1.7.5 1.7.6 0 .1-1.1.6-1.5 1.3-1.1.7.5.9.2.5-.8-.4-1.1.1-1.8 1.4-2.1 1.3-.3 1.9-1.4 1.9-3.2 0-2.2.3-2.6 1.8-1.9.9.4 2.7.7 4 .7 1.2-.1 2.2.5 2.2 1.3s.9 1.4 2 1.4 2-.3 2-.8c0-.4 1.2-1.3 2.7-1.9 3.4-1.6 7.7.2 8.1 3.5.2 1.2.7 2.2 1.2 2.2s.7.7.3 1.5c-.3.9-.2 1.5.3 1.4 2.3-.4 3.4.3 3.4 2.1 0 1.1-.7 2-1.6 2-1.5 0-1.5.7-.5 9.1.1.4 1.2.6 2.6.5 1.8-.1 2.4-.5 2-1.6-.5-1.2-.4-1.3.6-.3.7.7 2 1.3 2.9 1.3 2 0 9.9 3.7 12.3 5.8.9.8 1.7 2.3 1.7 3.2 0 1 .7 2.1 1.6 2.4.9.3 1.2.2.9-.5-.4-.6.4-.9 2.1-.7 1.7.2 4.4 2 7.2 5 2.4 2.6 4.8 4.6 5.2 4.3.4-.3 2.9 1.3 5.6 3.5 2.6 2.1 5.1 3.7 5.4 3.5.4-.2 1.8.7 3 2 2.2 2.3 2.2 2.5.4 2.5-1.6 0-1.4.5 1.4 3.1 3 2.8 3.7 4.5 3.3 7.7-.3 1.6 7.1 14.3 9.3 16.2.9.7 1.6 2.5 1.6 4 0 6.8 1.1 8.8 6.9 12.6 3.1 2.1 6.3 3.8 7.1 3.9.8 0 1.8 1.5 2.3 3.2.6 1.8 1.8 3.5 2.9 3.9 1.1.3 1.7.8 1.4 1.1-.3.3 1.7 3.5 4.5 7 2.7 3.5 4.7 6.8 4.4 7.3-1.1 1.7 1.2 4.5 5.8 6.9 4.8 2.6 7.8 6.2 5.8 6.9-.7.2-.3 1.3 1.1 2.7 1.6 1.7 3 2.2 5.5 1.9 2.4-.3 3.7.2 5.3 1.8 1.1 1.2 1.8 2.8 1.5 3.5-.2.8.4 2.2 1.5 3.3 1.1 1.1 2 2.8 2 3.9 0 1 .9 2.1 2 2.4 1.5.4 2 1.4 2 4 0 4.5 2.6 9.6 5.6 10.7 2.3.9 3 3.1 2.6 8.2-.2 2 6.3 5.2 9.9 5 1.5-.1 3.2.5 3.9 1.3.7.8 1.8 1.5 2.5 1.5.6 0 1.7 1.7 2.3 3.7.8 2.7 2.7 5 6.7 8 3 2.4 6.4 4.3 7.4 4.3s4.1 1.8 6.7 4c2.7 2.2 5.7 4 6.7 4s1.6.4 1.3.9c-.3.4.1 1.7.9 2.7.8 1 1.5 2.6 1.5 3.5 0 .9.7 2 1.6 2.3 2.3.9 2.4.8 1.7-1-.5-1.3 0-1.4 3.3-.8 2.2.3 4.3 1 4.9 1.5 1.6 1.5 3.3 1 4-1.2.4-1.2 1.3-1.8 2-1.5.7.2 2.1-.6 3-2l1.6-2.5 3.1 3.1c2 2 3.6 2.9 4.8 2.5 1-.3 4.3-.6 7.4-.6 3.9-.1 5.6-.5 5.6-1.4 0-1.7 6.8-2.5 8.1-.9 1.3 1.6 5.7 2.3 6.3 1 .3-.6 1.6.1 3 1.7 1.5 1.7 2.3 3.3 1.9 4-.4.7-.8 2.4-.8 3.9 0 2.4.4 2.8 2.7 2.8 1.9 0 2.9.7 3.4 2.2.5 1.3.7 2.6.6 3-.1.3 1.7 2.3 3.9 4.3 3.2 2.8 4.3 3.4 5.4 2.5 1-.9 2-.7 4.1.7 1.6 1 2.5 1.2 2 .5-1.1-1.9 3.9-9.2 6.4-9.2 1 0 3-.5 4.3-1.1 2-.9 3-.7 6.1 1.3 1.9 1.2 3.6 2.9 3.6 3.6 0 2 3.2 7 4.7 7.6 1 .4 7.9-1.8 9.1-2.9.1-.1-.5-1.9-1.5-4.1-.9-2.1-1.6-4.6-1.4-5.5.1-.9-.5-1.9-1.2-2.2-.8-.3-2.2-2-3.1-3.8-1.7-3.4-2.2-6.4-.7-4 .6.9.8.2.6-2-.2-2.7-.7-3.5-2.6-3.7-1.3-.2-2.9-.8-3.5-1.3-.8-.6-1.4-.4-1.8.8-.7 1.6-.9 1.6-2.4-.5-1.1-1.4-2.6-2.2-4.1-2-1.8.2-2.5-.4-3.4-3.2-.7-1.9-2-3.6-3.2-4-1.1-.3-4.1-1.8-6.6-3.3-3.5-2.1-4.8-3.5-5.1-5.7-.5-3.6 1.4-4.6 3.8-1.9.9 1 2.4 1.9 3.3 1.9.9 0 2.7.7 3.9 1.6 2.3 1.6 5.2 1.3 5.2-.6 0-.5-.7-1-1.6-1-.8 0-1.2-.4-.9-1 .3-.5.1-1.8-.5-2.9-.8-1.6-.6-2.1.9-2.6 1.1-.3 3.1-.3 4.5.1 1.7.4 3.5 0 5.1-1 3.1-2 5.4-2 8.4 0 1.8 1.3 2 1.8 1 2.6-1.1.7-1.1 1.1-.1 1.5.6.2 1 .9.6 1.4-.3.5-1.3 0-2.2-1.1l-1.7-2.1-3.3 3.2c-3.3 3.2-4 4.9-2.1 4.9.5 0 .7-.4.4-1-1-1.6.7-1.2 1.9.5.6.8 2.3 1.6 3.9 1.7 2.9.3 3.6 1.5 1.2 2.4-2.3.9-.6 2.6 2 2 2.1-.5 4.2.7 4.4 2.6.1.5.3.8.6.8h1.5c.7 0 .7-.7 0-2.1-.9-1.5-.8-2.4.1-3.5.6-.8.8-1.4.3-1.4-.5-.1.3-.8 1.9-1.6 1.5-.8 2.7-1.9 2.7-2.4 0-.6 1.1-1 2.4-1 3.1 0 4.2-1.5 1.8-2.5-1.5-.6-1.4-.8.7-1.6 1.6-.6 2.8-.5 3.8.2 1.2 1 1.3.6.7-2.9-.5-3.4-.4-4.2.9-4.2 2 0 2.6-1 3.1-4.8.4-3.7 0-4.4-3.9-6.1-2.9-1.3-3-1.3-.7-2.2 2.5-1 2.9-3.4.7-4.3-.8-.3-1.5-1.8-1.5-3.3 0-1.6-.7-3.9-1.6-5.1-1.3-1.9-1.3-2.2 0-2.2.8 0 1.8-1 2.1-2.1.6-1.8-.3-3.1-4.3-6.8-2.7-2.5-5.7-4.5-6.6-4.3-.9.2-1.9-.4-2.2-1.3-.4-.8-2-2.3-3.6-3.1-1.9-1-2.8-2.2-2.6-3.3.2-1-.3-2.6-1.1-3.5-1.2-1.4-1.2-1.9-.2-2.6.8-.4 1.1-1.2.8-1.7-.3-.5-.2-2.5.2-4.4l.8-3.5-5 .1c-3.1 0-5.2.5-5.4 1.2-.3.7-1.3 1.3-2.4 1.3-1.3 0-1.7.5-1.2 1.6.5 1.3.2 1.5-1.8.9-3.1-.9-3.2-1.1-2.4-2.4.3-.6 1.5-1.1 2.5-1.1s2.2-.5 2.6-1.2c.4-.6.3-.8-.4-.4-1.9 1.2-2.3-1.3-.6-3.8 1.5-2.4 1.5-2.8-.7-7.3-1.3-2.7-2.4-5.3-2.4-6 0-.7-.8-1.8-1.8-2.5-2.2-1.7-3.9-8.6-2.7-10.7.8-1.4.9-1.4 1-.1 0 1.3.1 1.3 1 0 .7-1.1.4-1.7-1.1-2.2-1.1-.4-1.7-1.3-1.4-1.9.4-.6 1.3-.8 2.1-.5.8.3 1.4-.1 1.4-.9s.7-1.5 1.5-1.5 1.5-.4 1.5-1c0-.5 1.1-1.7 2.5-2.6 2.3-1.5 2.7-1.5 4.3-.1 1.8 1.7 6.2 1.3 6.2-.5 0-.6 1.1-.7 2.5-.4 3.9 1 3.2-2.7-1.2-6.3-2.8-2.3-4-2.8-5.4-2-1.5.8-2.6.1-6-3.6-3.8-4.1-6.9-5.8-6.9-3.7 0 .5-1.2.8-2.7.7-2.2-.1-2.9.4-3.3 2.3-.3 1.6-1.9 3.3-4.4 4.7-2.1 1.2-4.2 2.9-4.8 3.8-.7 1.4-1.3 1.5-3 .6-2.1-1.1-1.9-1.3 2.3-2.8 3.5-1.3 4.8-2.5 6.4-5.7 2.3-4.6 8.6-12.8 12.4-16.1 1.4-1.3 2.3-2.3 1.8-2.3-1.2 0 1.9-5.3 4.7-7.9 1.4-1.4 2.6-3 2.6-3.8 0-.7 1.1-1.3 2.5-1.3s2.5-.6 2.5-1.3c0-.7.9-1.8 2-2.5s2-2.3 2-3.7c0-1.4.4-2.5.9-2.5s1.9-1.6 3.1-3.5c1.8-2.9 2-3.8.9-5.1-.7-.8-1.3-2.7-1.4-4.1 0-1.4-1.1-3.4-2.4-4.4-1.3-1.1-1.9-1.9-1.3-1.9 2.3 0 2.1-3.4-.3-6.6-1.6-2.1-2.1-3.4-1.3-3.6.9-.3.7-1.7-.6-5.1-1.3-3.5-1.5-5.4-.8-7.9.8-2.9.6-3.6-1.4-5.1-1.2-.9-2.8-1.7-3.5-1.7-.6 0-1.9-.9-2.9-2-.9-1.1-3.8-2.9-6.3-4-2.4-1.1-4.8-2.8-5.1-3.7-.7-1.7.9-3.3 3.1-3.3.7 0 1-.7.7-1.5-.4-.8.1-1.7 1-2.1 2.4-.9 2-2.1-.9-2.6-1.6-.3-2.5-.1-2.5.7 0 .7-1 1.5-2.2 1.9-1.7.4-2.8-.1-4.4-2-2.5-3-3.1-9.4-.9-9.4.8 0 1.5-.5 1.5-1.1 0-.8 1.2-1 3.5-.6 2 .3 3.3.2 3-.3-.3-.4-.1-1 .4-1.2.6-.2.4-2.2-.5-4.9-1.6-4.6-1.5-4.7 1.3-7.5 1.5-1.6 3.4-2.7 4.2-2.6 2.7.6 4.2-.7 3.2-2.7-.9-1.5-.7-2 .9-2.4 1.5-.4 2-1.4 2-3.7 0-2.6.3-3.1 1.8-2.5 1.4.5 1.5.4.5-.6-.7-.7-1.3-2.4-1.3-3.6 0-1.9.3-2.2 1.8-1.5 2.1 1.1 4.2.5 3.6-1.1-.2-.7.9-2 2.6-3 1.6-1 3-2.3 3-2.9 0-2.1 4.2-9.8 5-9.3.4.3 1-.1 1.3-.9.3-.8-.5-1.8-1.9-2.5-1.3-.6-2.4-1.5-2.4-2 0-1.8-5-6-6.4-5.5-1.7.7-2.6-.7-2.6-3.8v-7c0-2.6.5-5 1-5.3 2-1.2 1.1-6.7-1.6-9.2-1.5-1.4-2.3-3-2-3.9.3-.8-.1-1.7-.9-2.1-1.2-.4-1.3-.9-.4-1.9.9-1.1.8-1.4-.6-1.4-1.2 0-1.6-.6-1.2-2 .3-1.3 0-2-.9-2-.8 0-1.4-.5-1.4-1 0-.6.8-1 1.7-1 1.5 0 1.5-.1-.1-1.3s-1.6-1.6-.3-5.4c.8-2.3 1.2-5.4.9-6.9-.3-1.6.1-2.9.9-3.4 1.1-.7.9-1.3-.6-3-2-2.2-2-2.2.3-4 1.3-1.1 2-2.4 1.6-3.4-.5-1.2 0-1.6 2-1.6 1.4 0 2.6.4 2.6 1 0 .5 1.3 1 2.9 1 3.2 0 4.5-2.4 4.2-7.3-.1-1.5.3-2.7.8-2.7.6 0 1.1-1.1 1.1-2.4 0-1.3.5-2.6 1-2.8.7-.2.7-2 .1-5.3-.5-2.7-.6-5.2-.2-5.5.4-.3 1-1.5 1.3-2.7.8-2.9-2.1-3.5-4.3-.9-1.5 1.8-1.7 1.8-6.9.1-3.8-1.3-5.5-1.5-5.8-.6-.6 1.8-6.2 1.3-6.9-.7-.4-.9-.9-1.9-1.2-2.2-.3-.3-1.1-1.4-1.7-2.5-.6-1.1-2.3-2.6-3.7-3.3-3.1-1.5-3.3-2.4-1.2-4.2 1.6-1.3 1.5-4.8-.3-9.3-1.4-3.4-2.5-3.4-4-.2-.6 1.4-1.5 2.5-1.9 2.5-.5 0-1.8-2.3-3.1-5-1.3-2.8-2.8-4.8-3.3-4.4-.5.3-1.6.1-2.4-.6-.9-.8-1.5-.8-2 0-.4.6-1.5.8-2.4.5-1-.3-2.9.4-4.4 1.5-3.3 2.6-6.5 2.5-9.4-.2-2.3-2.1-3.7-2.6-9.6-3.2-3-.3-4.8-2.1-4.1-4.1.3-.6-.3-1.8-1.2-2.6-1.6-1.2-1.7-1.2-1.1.3.5 1.4 0 1.9-2.1 2.3-1.5.3-4.7 1-7.2 1.6-2.5.7-5.4 1.4-6.5 1.6-1.5.3-2.8-.7-5.2-4-2.6-3.8-2.9-4.8-1.9-6.4.7-1 1-3 .7-4.6-.6-2.6-.7-2.7-2.8-1.2-1.3.9-2.3 2.5-2.3 3.5 0 2.1-2.9 3.4-5.4 2.4-1.3-.5-1.5-.2-.8 1.7.7 1.7.4 2.8-1 4.3-1.8 2-1.8 2-3.3-.1-1-1.4-2.3-1.9-4.3-1.7-2.3.3-3.2-.2-4.1-2.2-.6-1.4-1.1-3.3-1.1-4.3s-1.2-3-2.6-4.4c-2.1-2.2-2.9-2.4-5.3-1.6-1.8.6-3.6.6-5.2 0-1.3-.5-1.8-1-1.2-1 .9-.1.8-.7-.4-2.1-1.3-1.4-2-1.7-3-.8-.7.6-2.6.8-4.2.5-2.1-.4-3.7 0-5.4 1.3-2.1 1.7-2.9 1.8-5.6.7-2.4-.9-3.6-.9-5 0-1.5 1-2.2.9-3.1-.2-1.6-1.9-3.7-1.9-5.5-.1-1.2 1.1-1.1 1.7.1 3.5.8 1.1 1.2 2.1.7 2.1-.4 0-.1.5.7 1 1.3.8 1.2 1-.3 1-1.1 0-2 1-2.3 3-.4 1.6-1.3 3-2.1 3-.7 0-1.6.7-1.9 1.5-.5 1.1-1.1 1.2-2.5.4-1.6-.8-1.9-.6-1.9 1 0 1.1-.4 2.3-1 2.6-1.6 1-1.2 2.5.8 2.5 1.2 0 1.8.9 1.9 3 .1 1.9-.2 2.8-.8 2.4-.6-.3-1.3.4-1.6 1.5-.3 1.3-1.2 2.1-2.2 1.9-1.2-.3-1.6-1.5-1.6-5.3-.1-4.2-.4-5.2-2.3-6-1.8-.8-3.3-3-3.7-5.5 0-.3-.9-1.7-1.9-3.3-1.1-1.6-1.6-3.7-1.4-5.2.4-1.9.2-2.3-.7-1.5-.9.7-2.1.7-3.9 0-2.4-.9-2.8-.7-3.6 1.5-1.1 2.9-3.8 3.3-4.7.7-.4-.9-1.4-2.2-2.2-2.8-.9-.7-2.5-3.5-3.6-6.3-1.4-3.6-2.7-5.4-4.8-6.2-1.5-.7-3.8-2.9-5-5-1.2-2.1-2.9-4-3.8-4.2-2-.5-2.9-5-2.2-10.5.4-3.3.2-4.3-1.1-4.8-.9-.3-1.6-1.2-1.6-2s-.5-1.4-1.1-1.4c-.6 0-.8-.8-.4-1.9.4-1.4-.1-2-2-2.5-1.4-.4-2.5-1.2-2.5-1.9 0-.6-2.3-3.9-5-7.2-2.8-3.3-5-6.7-5-7.6 0-.9-.8-2.4-1.9-3.3-1.7-1.6-1.9-1.6-2.4.5-.5 1.9-.8 2-2.1.9-1.2-.9-1.6-.9-1.6-.1s-.8 1-2 .6c-1.1-.4-2-.2-2 .4 0 2.1-5.8 1.1-8.9-1.5-1.7-1.4-3.5-2.3-4.1-1.9-.6.3-1-.4-1-1.8 0-1.3-1-3.2-2.1-4.3-1.2-1-2.5-2.9-3-4-.6-1.8-2.1-2.4-8.1-3.4-7.2-1.2-10.8-3.1-10.8-5.7 0-.7-.6-1.3-1.3-1.3-2.5 0-14.2-4.2-15.9-5.7-1.3-1.1-2.1-1.2-3.8-.3-1.4.8-1.8 1.5-1.2 2.3.5.7 1.4 2.6 2 4.4 1.1 3.2 1 3.2-2.6 3.9-4 .7-7.4 2.2-8.3 3.6-.9 1.3-3.8-.2-3.3-1.7.3-.7-.4-1.6-1.5-2-1.2-.3-1.9-1.1-1.6-1.6.4-.5-.2-1.2-1.2-1.6-1-.4-2.8-1.7-4-3-1.5-1.5-3.3-2.3-5.5-2.2-1.8 0-2.7.3-2 .6 2.1.8.3 2.3-2.9 2.3-2.2 0-2.9-.5-2.9-2 0-1.1-.4-2-1-2-.5 0-1-.6-1-1.3 0-.8-.9-2.2-2-3.2-2.3-2.1-2.6-4-.5-3.2 1.9.8 3-1 1.6-2.7-1.6-1.9-6.1-2.7-5.4-1 .5 1.3-3.3 3.4-6.2 3.4-1.9 0-2.9-3.3-1.3-4.5 1.5-1.1 1.2-4.5-.3-4.5-.5 0-.9-.7-.9-1.5 0-2.2.8-1.9 3.5 1.2 2.4 2.9 3.6 2.7 4-.4.4-4.2 1.7-7.1 3-6.7.7.3 1.6.1 2-.5.3-.6-.2-1.1-1.3-1.1-2 0-3.2-2.5-3.2-6.7 0-1.5.5-2.1 1.4-1.7.9.4 1.4 0 1.2-1-.3-2.4-1.3-2.8-3.4-1.5-1.6 1-2.3 1-3.6 0-.9-.7-1.3-1.7-1-2.2.3-.5.2-1-.3-1-.4-.1-1.7-.3-2.8-.5-1.1-.1-2.9-.5-4-.8-11.3-3.1-11.5-3.1-11.5-.5 0 1.1 2 4 4.5 6.3 2.5 2.4 4.5 5 4.5 5.8 0 .8 1.6 3.1 3.6 5.2 1.9 2 3.2 4.1 2.8 4.7-.6 1.1-5.1-2.9-4.7-4.3.2-.4-.6-1.2-1.6-1.8-1.1-.5-2.2-2.3-2.6-4-.4-1.6-1.2-3-2-3-.7 0-3.2-2.5-5.5-5.6-3.7-5-3.9-5.5-1.9-4.9 2.1.7 2.2.6 1-.9-1.4-1.7-7.1-2.3-7.1-.7 0 .5-1.1 1.2-2.5 1.5-1.4.4-3.1 1.8-3.7 3.2-1.2 2.6-1.4 2.6-8.4 2-7.8-.7-9.9.2-6.2 2.8 1.2.9 1.7 1.6 1.1 1.6-.7 0-1.9 1.2-2.6 2.6-1.7 3.3-2.7 2-3.3-3.9-.3-3.1-1.3-5-3.9-7.7l-3.6-3.5-2.9 3.5c-1.6 1.9-2.8 4-2.5 4.7.6 1.7-2.8 4.3-5.5 4.3-2.1 0-1.8.6 2.8 4.7 2.9 2.7 5.2 5.6 5.2 6.5 0 2.5-1.6 2.2-2.4-.5l-.7-2.2-.9 2.2c-.9 2.1-4 3.3-4 1.5 0-1.1-4.4-1-5.1.1-1 1.4-9.8-.3-9.2-1.8.6-1.8-7-5.8-8.4-4.4-.6.6-2.2 0-4.3-1.6-2.3-1.7-3.7-2.2-4.4-1.5-.5.5-1.7 1-2.5 1s-2.4.9-3.5 1.9c-1.7 1.6-2.9 1.8-6.6 1.1-2.5-.4-5.3-1.1-6.2-1.5-1.1-.4-1.8-.3-1.8.4 0 1.6-4-.6-5.8-3.1-1.4-1.9-5.7-2.5-6.7-.8-.9 1.4-3.5 1.2-6.9-.5-1.7-.9-3.8-1.3-5-.8-3.1 1-7.9.4-9.2-1.3-1-1.2-1.3-1.2-2.5.2-.7.9-2.2 1.4-3.6 1.1l-2.2-.4 1.9 2.7c1.3 1.8 1.6 3 .9 3.7-.6.6-.6 1.9.1 3.7.8 2.3.7 3.4-1.1 6.2-1.1 1.8-1.8 3.8-1.4 4.4.3.5-.1 1-1 1s-1.3.5-1 1c.4.6.1 1.7-.5 2.5-.7.8-1 2.2-.6 3 .4 1.1-.2 1.5-2.4 1.5-2 0-3-.5-3-1.5 0-.8-1.4-2.2-3-3-2.6-1.4-3.1-1.4-3.6-.1-.6 1.6-5.7 2.8-13 3.1-6.3.2-7.4.9-7.4 4.7 0 2.3-.4 2.9-1.5 2.4-.8-.3-3.5.3-6 1.4-2.4 1-4.6 1.6-4.9 1.2-.2-.4-1.9-.9-3.7-1-4-.3-7.9-3.7-7.9-6.8 0-2.5-5.5-7.4-8.3-7.4-1 0-2.3-1.5-3.1-3.4-2.1-4.9-9.5-9.1-15.8-8.8-2.6.1-6.5-.5-8.7-1.4-2.1-.8-4.5-1.4-5.2-1.3-2.5.5-5.4-1-6.4-3.3-.7-1.6-1.7-2.2-3.2-2-1.2.2-2.4-.2-2.8-.8-.3-.5-2.3-1-4.4-1-2.1 0-5.8-.7-8.1-1.5-5.5-1.9-5.7-1.9-6.3.6-.5 1.7-1.1 2-3.1 1.5-1.4-.3-3.7-.9-5.2-1.2-2.1-.5-3.3.1-7 4-2.5 2.6-5 4.6-5.5 4.4-.6-.2-.9-.6-.7-1 .6-1.2-4.7-6-8.2-7.4-4.1-1.7-6.9-5.2-5-6.4 1.7-1.1-4.7-13-7-13-1.6 0-6-5-6-7 0-.5-.4-1-1-1-.5 0-1 .6-1 1.2 0 .7-1.4-1.3-3-4.5-2.9-5.5-4-12.7-2.1-12.7.5 0 .7-1 .4-2.1-.6-2-.5-2.1 1.8-.7 3 1.9 6.4 1 6.5-1.7.1-1.1.5-3.9.9-6.2.6-3.6.5-4.1-1.1-4-1.4.2-1.9-.5-1.9-2.2 0-2.3-.4-2.5-5.6-2.5-4.8-.1-5.8-.5-8.7-3.4-1.7-1.7-3.5-3.2-4-3.2s-1.9-1.1-3.2-2.5c-1.2-1.3-2.7-2.2-3.1-1.9-.5.3-.9 0-.9-.7 0-.8-.3-.9-1.4 0-1 .9-1.6.8-2.6-.4-2.6-3.2-5.6-1.8-8.9 4.1zm327.3 84.1c.3.7-.1 1.3-.8 1.3-.8 0-1.6.6-1.9 1.2-.3 1-.9.9-2.2-.3-1.4-1.4-1.5-2-.4-3.7 1-1.6 1.6-1.8 3.1-.9.9.7 2 1.7 2.2 2.4zm-9.5 6.1c1.2 1.2 1.6 1.1 2.3-.2.5-.9 1.5-1.6 2.3-1.6 2 0 3 2.1 1.4 3.1-2 1.2-6.6 1.1-7.4-.2-.4-.6-1.3-.8-2.1-.5-1.4.5-1.9-.5-.8-1.7.9-.9 2.6-.4 4.3 1.1zm32.5 4.8c-.5 1.8 0 3.4 1.6 5.6 1.6 2.2 1.9 3.2 1 3.8-.8.5-.7 1.1.4 2.3.9.8 1.6 2.3 1.6 3.3 0 1.2-1.6.1-5-3.4-2.7-2.8-5-5.8-5-6.6 0-.8-.7-1.9-1.6-2.4-1.4-.8-1.2-1.2 1.1-3 1.5-1.2 3.6-2.2 4.7-2.2 1.5 0 1.7.5 1.2 2.6zm-21.4.4c0 .5-.2 1-.4 1-.3 0-.8-.5-1.1-1-.3-.6-.1-1 .4-1 .6 0 1.1.4 1.1 1zm-8.5 3c.3.5.1 1-.4 1-.6 0-1.1-.5-1.1-1 0-.6.2-1 .4-1 .3 0 .8.4 1.1 1zm74.5 9c0 .5-.5 1-1.1 1-.5 0-.7-.5-.4-1 .3-.6.8-1 1.1-1 .2 0 .4.4.4 1zm-560 7c0 .6.6 1 1.4 1 .7 0 1.9.7 2.6 1.5 1 1.2.7 2.2-1.2 5.2l-2.3 3.8-.3-3.8c-.2-2-.7-3.7-1.2-3.7-.8 0-5-6.1-5-7.4 0-.4 1.4 0 3 .9 1.7.9 3 2 3 2.5zm5 1.1c0 .6-.4.7-1 .4-.5-.3-1-1.1-1-1.6 0-.6.5-.7 1-.4.6.3 1 1.1 1 1.6zm158.7 100.4c.9 2.5 0 2.6-3.2.5l-3-2h2.8c1.6 0 3 .7 3.4 1.5zm744.8 31.5c.3.5-.1 1-.9 1-.9 0-1.6-.5-1.6-1 0-.6.4-1 .9-1 .6 0 1.3.4 1.6 1zm-737.5 90.2c0 1.5-2.3.8-3.6-1-2.1-2.7-1.6-3.4 1.1-1.5 1.3 1 2.5 2.1 2.5 2.5zm-27.6 65.7c.3.5-.1 1.4-.8 2.1-1.2.9-1.7.7-2.6-.9-.9-1.8-.8-2.1.9-2.1 1.1 0 2.2.4 2.5.9zm735.4 12.1c.1 1.6-.2 3-.8 3-.5 0-.7.6-.4 1.4.3.9-.3 1.7-1.5 2.1-1.1.3-3.2 2-4.6 3.7-2.4 2.8-2.7 2.9-5.6 1.8-2.2-1-2.8-1.7-2.3-2.9.4-.9.7-2.6.7-3.9-.1-1.2.3-2.2.8-2.2s.9-.6.9-1.4c0-2 1.7-2.9 5.1-2.8 1.6 0 3.1-.4 3.4-.9.4-.5 1.4-.9 2.3-.9 1.2 0 1.8.9 2 3zm-741.2-1.2c2.1 1.5 2.4 4.1.4 5.2-1.5.8-2.3.6-4-1.2-1.8-1.9-1.9-2.4-.6-2.6.9-.2 1.6-.8 1.6-1.3 0-1.1 1.1-1.1 2.6-.1zm749.2 5.4c1.6 1.4 1.5 3.8-.1 3.8-1.4 0-3.6-2.1-5.2-4.9-.6-1-.2-1.1 1.6-.6 1.3.4 3 1.2 3.7 1.7zm-9.8 114.7c0 .5.8.8 1.8.7 1.7-.1 2 1.5.7 4.6-.9 2.3 2 2.5 3.3.2.8-1.4 1.2-1.4 3-.3 2.3 1.4 3 3.9 1.2 3.9-.5 0-1 .7-1 1.6 0 1.2-.6 1.5-2.2.9-1.3-.3-2.9-.7-3.5-.7-.7-.1-1.3-.5-1.3-1 0-1-6.6-.5-7.7.5-1.3 1.4-3 .6-6.8-2.9-4.2-3.8-3.8-5.4 1.6-5.4 1.5 0 4.2-.7 6-1.5 4-1.7 4.9-1.8 4.9-.6zm-443 8.4c0 2-2.5-.1-2.8-2.4-.2-2.3-.2-2.3 1.3-.5.8 1.1 1.5 2.4 1.5 2.9zm-14 10.7c0 .5-.4 1-.9 1-.6 0-1.3-.5-1.6-1-.3-.6.1-1 .9-1 .9 0 1.6.4 1.6 1zm20 2.4c-1.4 1.4-2.4 0-1.6-2.1.6-1.5.8-1.5 1.6-.3.6.9.5 1.9 0 2.4zm415.2.6c-.5 3.2-1.9 4-2.8 1.6-.7-1.7 1.4-5.9 2.5-5.2.4.3.6 1.9.3 3.6zm-.7 7c.8 3.6 0 5-2.7 5-1.5 0-1.9-.5-1.5-2 .3-1.1.1-2.3-.5-2.6-.9-.5 1.9-3.3 3.4-3.4.3 0 .9 1.3 1.3 3zm-4.2 10.6c1.1 1.1-.3 2.4-1.8 1.8-.8-.4-1.2-1-.9-1.5.6-1.1 1.8-1.2 2.7-.3zm-479.8 4.3c.3.5.1 1.2-.5 1.6-.5.3-1-.1-1-.9 0-1.8.6-2.1 1.5-.7zm476.5 23.2c0 .5-.7.9-1.5.9-.9 0-1.2-.6-.9-1.5.6-1.5 2.4-1.1 2.4.6zm-11.9 16.6c1.3 1.6 1.2 1.7-.3.4-1-.7-1.8-1.5-1.8-1.7 0-.8.8-.3 2.1 1.3zm25.3 10.4c-.2.4.4 1.3 1.5 1.9 1.2.6 1.8 1.6 1.5 2.5-.5 1.1-1.1 1.1-3.9-.5l-3.3-1.9.3 3.5c.2 3.2 0 3.5-2.4 3.2-2-.2-2.6-.9-2.7-2.8-.1-1.4-.5-3.3-.9-4.3-1.3-3 .2-5 3.5-4.5 1.7.3 3 0 3-.5 0-.6.9-.2 2 .8s1.7 2.1 1.4 2.6zM487.6 63.261c.3.8-.4 2.1-1.6 2.9-1.2.9-1.9 2-1.5 2.6.9 1.6-1.6 1.4-6-.5-4-1.7-5.5-1.3-3.6 1 1.5 1.8-.1 3-2.9 2.1-1.7-.6-14 3.1-14 4.2 0 .2.9.1 2.1-.2 1.4-.5 2.7 0 4.2 1.4 1.2 1.2 4.3 3.9 6.9 6.2 2.6 2.2 5 4.9 5.3 6 .4 1.2 1.6 1.9 3 1.9 1.3 0 3.5.4 4.9 1 1.8.6 2.6.6 2.6-.1 0-1.5 8.8 0 12.7 2.2l3.2 1.8 3.4-3.9c1.9-2.2 3.9-4 4.5-4 .7 0 .3-.9-.8-2s-1.7-2.6-1.4-3.5c.4-1 0-1.5-1.5-1.5-1.1 0-3-1.3-4.3-3-1.2-1.7-2.8-3-3.5-3-.8 0-3-.7-5.1-1.6-3-1.3-3.4-1.7-1.9-2.3 1.6-.6 1.6-.9-.7-3-2-1.9-2.3-2.8-1.5-4.2.8-1.6.6-1.9-1-1.9-1.3 0-1.9.5-1.5 1.4zM553.6 94.061c-.9.5-1.6 1.8-1.6 2.8 0 1.1-.4 2-1 2-.5 0-1 1.6-1 3.5 0 2.4.5 3.5 1.5 3.5.8 0 1.5-.7 1.5-1.6 0-1 .6-1.4 1.5-1 1 .4 1.5-.1 1.5-1.5 0-1.6.3-1.8 1.9-1 1.6.9 1.7.7 1.3-1.6-.7-3.7-3.5-6.3-5.6-5.1zM522 100.961c0 .5-.4.7-1 .4-1.5-.9-1.2 1.1.4 2.4.8.7 1.3 2.3 1.1 3.6-.2 2.4.5 3.2 1.8 1.8.4-.3.1-1.3-.6-2.1-1-1.3-.7-1.4 2.1-1 3.6.5 4-.5 1.6-4-1.5-2.2-5.4-3.1-5.4-1.1zM506.8 103.161c1.3 1.4 3.6 2.7 5 3 2.6.5 2.6.4.7-1-1.1-.8-3.3-2.2-5-3l-3-1.6 2.3 2.6zM516.8 107.561c1.2.2 2.2.9 2.2 1.4 0 .5.4.9 1 .9.5 0 .7-.7.4-1.5-.4-.9-1.7-1.4-3.3-1.4-2.3.2-2.4.2-.3.6z"/><path d="M528 109.661c0 .5.7 1.6 1.6 2.3 1.4 1.2 1.6 1.1 1.3-.5-.4-2-2.9-3.5-2.9-1.8zM543.2 112.061c-.7.7-1.2 2.1-1.2 3.1 0 1.5-.3 1.7-1.4.8-1-.9-1.5-.8-2 .4-.3.8-.1 1.5.4 1.5 1.8 0 3 3.8 2 6.4-.7 2-.6 2.4.5 2 .7-.3 1.1-1.2.8-2-.3-.8 0-1.4.6-1.4s1.1-.6 1.1-1.4c0-.8.8-2.1 1.9-2.8 1-.7 2.2-2.8 2.5-4.6.7-2.9.5-3.2-1.6-3.2-1.3 0-2.9.5-3.6 1.2zM604.2 125.161c-1 1.2-.9 1.6.4 2.1 2.1.8 2.3.6 1.5-1.7-.6-1.7-.9-1.7-1.9-.4zM49.5 151.861c.3.5-.3 1-1.4 1-1.2 0-2.1.4-2.1.9s.6.8 1.3.8c2.7-.2 9.3 1.6 11.2 3.2 1.8 1.4 1.8 1.3-.1-.9-1.2-1.4-2-3-1.7-3.6.2-.6-.6-1.4-1.9-1.8-3.5-.9-6-.7-5.3.4zM39.5 154.961c-.9 2.7-.4 3 1.8.9 1.5-1.5 1.6-1.8.3-2.3-.9-.4-1.7.2-2.1 1.4zM0 160.261c0 .2.6.9 1.4 1.5 1 .9 1.5.8 2-.4.4-1-.1-1.5-1.4-1.5-1.1 0-2 .2-2 .4zM32.5 205.061c.4 1.3 1.3 2.9 2.1 3.7 2.2 2.4 3.1-1.5.9-3.9-2.4-2.7-3.8-2.5-3 .2zM1007.6 241.661c.2.2-.1 1.3-.6 2.3-1.3 2.3.4 3.4 2.1 1.3 1-1.2 1-1.7-.3-2.8-.8-.8-1.3-1.1-1.2-.8zM1002 242.261c0 .2.7.7 1.6 1 .8.3 1.2.2.9-.4-.6-1-2.5-1.4-2.5-.6zM992.5 243.861c.3.5 1 1 1.6 1 .5 0 .9-.5.9-1 0-.6-.7-1-1.6-1-.8 0-1.2.4-.9 1zM996.1 246.961c-2.4 3-5.5 3.6-9.6 2-3-1.2-4.5.5-3.5 3.9.8 2.6 8.4 11 10 11 .4 0 1.3 1.1 2 2.5.8 1.4 1.8 2.4 2.4 2.2 1.5-.5 3-14.8 1.7-15.6-.5-.3-1.2-1.8-1.6-3.3-.5-1.9-.2-2.9 1-3.6 1-.5 1.3-1.2.8-1.5-.5-.3-1.9.8-3.2 2.4zM974 246.461c0 .8.5 1.2 1 .9.6-.3 1-.3 1 .2 0 .4 1.1.8 2.5.8s2.5-.3 2.5-.8c0-.4-.7-.7-1.5-.7s-1.5-.5-1.5-1c0-.6-.9-1-2-1s-2 .7-2 1.6zM974 252.261c0 .2.7.9 1.5 1.6 1.3 1.1 1.4 1 .9-.4-.5-1.4-2.4-2.3-2.4-1.2zM993.7 273.361c-1.2 2.6-2.3 3.5-4.1 3.5-1.5 0-3 .8-3.6 2-.6 1.1-.8 2-.4 2s-.1.9-1.1 2c-1.1 1.2-1.9 3.6-1.9 5.5s-.4 3.5-.8 3.5-.8 1.1-.8 2.5c0 1.8-.5 2.5-2 2.5-1.1 0-2 .4-2 1 0 .5-.7 1-1.5 1s-1.5.7-1.5 1.5c0 .9-1 1.5-2.6 1.5-2.3 0-5.4 2-5.4 3.5 0 .3.9.3 2 0 1.2-.4 3.1 0 4.5.9 1.9 1.2 3 1.4 4.7.5 1.9-.8 3.4-.5 7.7 1.6 2.9 1.5 5.5 3.3 5.8 4.1.3.8.9 1.1 1.4.8.5-.3 1.3.6 1.9 2 1.1 3 3 3.5 3 .8 0-1.4.8-1.9 3-1.9 1.8 0 4-.9 5.4-2.2 1.6-1.5 3.1-2.1 4.4-1.7 2.4.8 3.6-1.7 2.2-4.4-1.5-2.7-1.2-3.3 1-2.7 1.7.4 2 0 2-2.9 0-2.4-.5-3.4-1.5-3.4-.9 0-2.4-1.4-3.3-3-.9-1.7-2.5-3.3-3.4-3.6-1.6-.5-9.8-11.7-9.8-13.4 0-.5.4-2 .9-3.3.9-2.3 0-3.7-2.3-3.7-.1 0-1 1.6-1.9 3.5zM1027.2 298.061c.3.7 1.3 1.5 2.4 1.7 1.6.3 1.7.1.5-1.3-1.6-1.9-3.4-2.1-2.9-.4zM1036.6 301.361c.4.8 1 1.5 1.4 1.5.4 0 1-.7 1.4-1.5.4-1-.1-1.5-1.4-1.5-1.3 0-1.8.5-1.4 1.5zM1040 306.261c0 .7.7 1.9 1.5 2.6.8.7 1.3 1.6 1 2-.3.5.4.6 1.5.3s3.2.2 4.6 1.2c1.4.9 2.8 1.5 3 1.2.3-.3-2.2-2.3-5.6-4.6-3.8-2.6-6-3.6-6-2.7zM175.1 348.461c-1.2 1.4-1.1 1.6.4 1.2 1-.1 2-.9 2.3-1.6.5-1.7-1-1.5-2.7.4zM187.5 347.861c-.3.5-1.7 1-3.1 1-2.5 0-11.8 5.2-10.9 6.2.3.3-.1 1.1-1 1.8-.8.7-1.5 2.1-1.5 3.2 0 1-1.3 3.1-2.8 4.6-3.7 3.6-3.8 7.2-.1 7.2 1.4 0 3.3.8 4.3 1.9.9 1 2.7 1.7 3.9 1.6 1.2-.1 3.6.4 5.4 1.1 2.9 1.2 3.2 1.1 3.7-1.2.5-1.7 0-3.4-1.4-5.4-2.4-3.4-2.5-4-.5-4 .9 0 1.5-.9 1.5-2.4 0-1.4.4-2.7 1-3.1.6-.3.6-1.5 0-3-.6-1.7-.5-2.5.5-2.9.8-.3 1.1-1.3.8-2.5-.3-1.2 0-2.8.7-3.6.7-.8 1-1.5.7-1.5-.3 0-.9.4-1.2 1zM152 371.961c0 .5-.7.9-1.7.9-1.5 0-1.5.1 0 1.8 1 1 1.4 2.3 1 2.7-.5.5-.1.4.8-.3s3.7-1.5 6.3-1.8c4.4-.6 6.5-1.9 5.2-3.1-.9-1-11.6-1.1-11.6-.2zM146.8 383.561c-.3 3.5-.5 3.7-5.5 5.1-4.6 1.2-5.4 1.9-6.5 4.9-1.1 2.9-1.6 3.3-3.7 2.8-2.4-.6-2.4-.6-.8 1.9 1.7 2.5 1.8 5 .4 7.3-1 1.6-.2 3 2.5 4.4 1.8 1 2 .9 1.5-.5-1.1-2.8 1.1-1.7 3 1.4.9 1.6 2.3 3 2.9 3 .7 0 1.6.9 1.9 2 1.4 4.4 3.2 1.1 2.7-5.1-.1-.9 1.3-2 3.4-2.8 4.2-1.5 5.2-3.5 3.1-5.9-.9-.9-2.2-3.6-3-5.9-1.3-3.9-1.3-4.4.3-5.8 1.7-1.5 1.8-3.1 1.1-9.3 0-.6-.7-1.2-1.5-1.2-1 0-1.6 1.3-1.8 3.7zM144.8 421.261c-.2 1.1.2 3.4 1 5.1.8 1.6 1.6 3.9 1.7 5 .5 3.8.6 4 1.9 2.2 1.2-1.5 1.5-1.5 2.6-.2.7.8 2.1 1.5 3.1 1.5 1.1 0 1.9.4 1.9 1 0 .5.9 1 1.9 1 1.1 0 2.3.4 2.6 1 .3.5 1.4 1 2.4 1s2.4.7 3.1 1.5c1 1.3 1.5 1.3 2.1.3.6-.9 1-.8 1.5.5 1 2.8 2.3 1.9 2.1-1.6-.3-4.4-1.4-5.7-4.7-5.7-1.6 0-4.6-1.1-6.6-2.5s-3.3-2.5-2.9-2.5c.4 0 .2-.7-.5-1.5-.9-1-.9-1.5-.1-1.5.6 0 1.1-.7 1.1-1.5 0-1.4-.2-1.4-2.3 0-2.2 1.4-2.5 1.4-4.2-.5-1-1.1-3.1-2.6-4.6-3.4-2.6-1.3-2.8-1.2-3.1.8zM176 428.961c0 .7-.8 2.2-1.7 3.3-1.8 2.1-1.8 2.1.4.2 1.9-1.5 2.5-1.6 3.8-.6 1.1.9 1.5.9 1.5.1 0-.7.4-1 .9-.7.5.3 1.2-.1 1.5-1 .4-1.2 0-1.5-1.7-1.3-1.2.2-2.8 0-3.4-.4-.8-.5-1.3-.3-1.3.4zM101 471.861c0 .5-1 1-2.3 1-2.8 0-7.6 5.8-5.8 6.9.6.4.9 1.4.6 2.3-.8 2.1 9.9 5.8 11.7 4 .7-.7 2.2-1.2 3.4-1.2 1.9 0 3.4-1.7 3.4-3.9 0-.4-2-2.2-4.5-4.1-2.5-1.9-4.5-4-4.5-4.7 0-.7-.4-1.3-1-1.3-.5 0-1 .4-1 1zM62.5 473.661c-1.4 1-1.2 4.5.3 5 .6.2 1.2 1 1.2 1.8s.4 1.4.8 1.4c1 0 .7-3.8-.4-6.7-.5-1.2-1.4-1.9-1.9-1.5zM69 475.861c0 .5.5 1 1 1 .6 0 1-.5 1-1 0-.6-.4-1-1-1-.5 0-1 .4-1 1zM140.5 475.861c-1.1.5-3 .6-4.2.3-1.4-.3-2.5 0-2.8.9-.4 1.1-2.1 1.3-6.9 1-6-.4-6.5-.2-8.1 2.1-.9 1.4-2.6 2.7-3.8 2.9-1.4.2-2.3 1.1-2.3 2.3-.1 1.1-.9 3.6-1.7 5.5-1.4 3.5-1.3 6.5.3 5.5.4-.3 1.3.2 2 1s2 1.5 2.9 1.5c.9 0 2.1.4 2.7.9 1.6 1.5 10.4 2.4 10.4 1 0-.8.4-.8 1.5.1 1.2 1 1.9.9 3.8-.3 2.2-1.4 2.6-1.4 5.3.8 3.3 2.8 4.4 3.1 4.4 1.2 0-1.6 3.8-4.9 4.5-3.8.8 1.4 5.3 1.9 6.4.8 1.4-1.4 1.4-7.3-.1-11.3-1.7-4.7-7.8-7-7.8-2.9 0 .9-.6 1.2-1.5.9-.8-.4-1.5-.1-1.5.5 0 .9-.5.9-2 .1-2.2-1.2-2.7-3.2-.7-2.9 2.6.3 3.5-.2 4.1-2.5 1.1-4.5-1.1-7-4.9-5.6zM944 477.261c0 1-.9 2-2 2.3-2.9.8-2.4 2.1.6 1.5 2.9-.5 4.2-2.8 2.5-4.5-.8-.8-1.1-.6-1.1.7zM70.6 479.461c-.4 1-.3 2 .1 2.3.5.3.8 2.1.8 3.8 0 2.8-.4 3.3-2.4 3.3-1.7 0-2.2.3-1.5 1 .8.8 1.9.7 3.9 0 2.2-.8 3.1-.7 4.5.5.9.8 2.1 1.5 2.7 1.5.6 0 1.4.8 1.7 1.7.6 1.5.8 1.4 2.1-.4.8-1.2 1.2-2.8.9-3.7-.4-1.1.1-1.5 2.3-1.3 2.2.2 2.9-.3 3.1-2.1.5-3.6-2.4-5.3-8.4-5-3.9.2-5.7-.2-7.2-1.5-1.8-1.7-2-1.7-2.6-.1zM64.5 490.861c.3.5.8 1 1.1 1 .2 0 .4-.5.4-1 0-.6-.5-1-1.1-1-.5 0-.7.4-.4 1zM956.5 497.761c-.6 1.1.9 2.3 1.9 1.4.9-.9.7-2.3-.3-2.3-.6 0-1.2.4-1.6.9zM58 504.561c0 1.2-2.6 1.8-5.7 1.4-1.8-.2-1.6 1.5.3 4.4 2.3 3.5 5.4 3.3 5.4-.2 0-2 .3-2.4 1.2-1.5 1.8 1.8 6.7-1.3 6.8-4.3 0-.6-1.8-1.1-4-1-2.5 0-4 .5-4 1.2zM1000.3 509.661c-.3 1.2-.9 2-1.3 1.7-1.5-.9-8.2 1.6-7.7 2.9.9 2.3-5.5 7.6-9 7.6-2.3 0-3 .4-2.9 1.7.1 1.4-.6 1.7-3.1 1.6-2.4-.2-3.1.1-2.7 1 .3.8-1 2.4-2.9 3.7-5.1 3.5-6.1 7.3-3.8 14 1.6 4.5 1.7 5.6.6 6.5-1.2.8-1.2 1.3 0 2.9.7 1 1.8 1.5 2.4 1.1.6-.3 1.1-.4 1.1 0 0 1-3.4 6-4.7 6.8-1.9 1.2-.9 12.5 1.6 17.4 2.3 4.7 2.7 8.3.9 8.3-.7 0-.2.7 1 1.6 2.5 1.8 2.9 5.2.6 6.1-1.3.5-1.2.8.5 2.4 2.2 2 5.1 2.5 5.1.9 0-.6.7-1 1.6-1 .8 0 1.3.4.9.9-.3.5 1.2 0 3.3-1.2 2.6-1.4 3.8-2.6 3.5-3.7-.3-1 .8-2.1 3.1-3.3 2.5-1.1 3.6-2.3 3.6-3.8 0-1.3.5-1.9 1.3-1.6.8.3 1.2-.7 1.2-3.2 0-3.2.3-3.6 2.8-3.9 1.5-.2 2.7-.9 2.7-1.8 0-.8.8-1.4 1.8-1.5 1 0 1.2-.3.5-.6-2-.7-1.5-2.3.6-2.3 1.4 0 2.1-.8 2.3-2.8.3-2.7.7-2.9 4.4-1.8 1.6.5 2.3 0 3.2-1.9.6-1.4.9-3.2.6-4-.4-.9 0-1.5.8-1.5 2.5 0 5.1-3.7 4.6-6.5-.4-1.7-.1-2.5.8-2.5.8 0 1.4-.7 1.4-1.5s-.4-1.5-.9-1.5-1.1-.9-1.4-2.1c-.4-1.3-1.2-1.9-2.4-1.8-2.7.5-4.3-.9-4.3-3.6 0-1.6-1-3-3-4.2-1.6-.9-3-2.1-3-2.6s1.4.1 3.1 1.3c1.6 1.2 3.3 2 3.6 1.7.3-.4-.2-2.5-1.1-4.7-1.6-4.1-1.6-4.2.4-4.7 2.6-.7 2-2.9-.8-2.6-1.3.2-3.5-1.4-6.1-4.2-3.7-4-5.5-7.5-3.2-6.1 1 .7.7-4.1-.3-5.1-.4-.4-.9.3-1.3 1.5zm-26.3 37.3c1.1.8 1.2 1.2.2 1.6-.6.2-1 .9-.6 1.4.3.5-.2.9-1 .9-1 0-1.6-.9-1.6-2.5 0-2.7.7-3 3-1.4zM642.6 526.361c.4.8 1.1 1.5 1.6 1.5.6 0 .5-.6-.2-1.5-.7-.8-1.4-1.5-1.6-1.5-.2 0-.1.7.2 1.5zM221.7 566.861c-.3 1.1-.1 2 .4 2s.9-.2.9-.4.3-1.1.6-2c.3-.9.2-1.6-.4-1.6-.5 0-1.2.9-1.5 2zM551.3 591.261c-2.7 2.5-2.9 3.6-.8 3.6.8 0 1.5-.6 1.5-1.4 0-.8.5-1.6 1.2-1.8.6-.2.9-.9.7-1.5-.2-.5-1.4-.1-2.6 1.1zM965.6 594.761c-.3.5.1 1.1.9 1.5.8.3 1.5.1 1.5-.4 0-1.3-1.8-2.2-2.4-1.1zM518 595.661c0 1.5 1.1 2.1 2.7 1.5 1.2-.5 1.2-.7.1-1.4-1.7-1.1-2.8-1.1-2.8-.1zM545.8 597.661c-.4 1.4-1.3 1.8-3.4 1.6-1.6-.1-6.3-.6-10.4-1-6.9-.7-7.4-.6-6.1.9 1.1 1.4 1.1 1.8-.1 2.2-1 .4-1.3 1.5-1 3.1.3 1.9.7 2.2 1.8 1.3.9-.7 1.4-.8 1.4-.1 0 .5 1 1 2.3.9 1.2 0 2.9.3 3.8.7 1.2.5 2.5-.1 4.2-2 1.5-1.5 3.1-2.4 4-2.1 2.2.8 5.7-2.1 5.7-4.9 0-2.8-1.5-3.2-2.2-.6zM520.1 608.261c-1 1.2-.8 1.3.9.9 2.5-.7 3.7-2.3 1.7-2.3-.8 0-2 .6-2.6 1.4zM331 635.761c0 2.7.2 2.8 2.3 1.8 2.2-1 2.2-1.2.8-2.9-2.2-2.6-3.1-2.2-3.1 1.1zM956.2 732.361c-1.5 3.3-1.5 3.6.2 2.9 1.8-.7 2.6-2.7 1.7-4.3-.5-.8-1.1-.3-1.9 1.4zM960 755.761c0 .5.5 1.3 1 1.6.6.3 1 .2 1-.4 0-.5-.4-1.3-1-1.6-.5-.3-1-.2-1 .4zM954.5 764.861c-.4.6-1.4 1-2.3.9-3.4-.3-4.2.2-5 3.3-.6 2.6-1.3 3.2-3.7 3.3-1.7.1-4.8-.7-7-1.6-3.9-1.8-5.5-1.7-5.5.3 0 .5.7.7 1.5.4 1.1-.4 1.9.3 2.5 1.9.5 1.4 1.6 2.5 2.4 2.5.7 0 1.6.9 1.9 2 .4 1.4 0 2-1.1 2-1 0-2.8.9-4.2 1.9-2.1 1.7-2.3 2.2-1.2 4.6 1.5 3.2 1.6 7.9.2 7-1.4-.9-1.2.9.2 2.3 1 1 1 1.5-.2 2.2-.9.6-1.6.6-1.8 0-.2-.6-1.8-1-3.6-1s-3.8-.6-4.5-1.3c-1-1-1.1-.9-.6.4.3.9-.1 2.4-1 3.3-.9.9-1.3 2.1-.9 2.7.4.7-.3 1.9-1.5 2.8-1.4 1.1-2.3 3-2.5 5.2-.3 3-.1 3.5 1.8 3.5 2.8 0 4.8-2 3.9-4.2-.4-1.2-.3-1.5.5-1 .7.4 1.2.2 1.2-.3 0-.6.5-1 1.2-.9.7.2 1.5-1.1 1.8-2.8.5-2.9.8-3.1 4.5-3 2.2.1 4.6.5 5.4 1 1.1.7 1.3.5.8-.8-.4-.9-.3-1.4.2-1.1 1.4.8 4-3.4 3.4-5.6-.6-2.3-.3-2.3 4.4-.4 4.6 1.9 5.3 1.9 5.3-.3.1-1.6.1-1.6 1.4 0 1.6 2.2 2.5 2.3 4.1.1 1.3-1.7 5.1-1.1 4 .7-.8 1.2.3 7 1.3 7 .4 0 2.5-1.6 4.7-3.5 3-2.7 3.6-3.8 2.6-4.4-.9-.6-1-1-.2-1.6.7-.3.9-1.5.6-2.6-.5-1.4 0-2.2 1.7-2.8 1.3-.6 1.9-1 1.4-1-.5-.1-.3-.8.4-1.6 1.5-1.8.9-1.9-2.4-.3-2.2.9-2.9.8-4.5-.6-1.1-1-2.1-3.2-2.3-5-.2-2.5-.7-3.1-2.6-3-2.2.1-2.3-.2-1.9-4.8.3-3.9 0-5.1-1.4-5.9-2.2-1.2-2.6-1.1-3.4.1z"/><path d="M941.4 801.461c-1.8 1.4-1.8 1.4.6.3 3.1-1.4 3.6-1.9 2.4-1.9-.6 0-1.9.7-3 1.6zM911.5 813.861c.3.5 1.1 1 1.6 1 .6 0 .7-.5.4-1-.3-.6-1.1-1-1.6-1-.6 0-.7.4-.4 1z"/></g></svg>