<svg version="1" xmlns="http://www.w3.org/2000/svg" width="683.726" height="1176.823" viewBox="0 0 512.794 882.617"><g fill="#222"><path d="M353.474 1.7c-.5 1.2-.9 1.4-1.8.5-1.7-1.7-7-1.5-9.4.3-1 .8-2.7 1.5-3.6 1.5-1 0-1.8.2-1.8.4s-.3 1.2-.6 2.1c-.5 1.2-.2 1.6 1.2 1.3 1.4-.2 2.5.9 4.1 4.4 1.3 2.6 3.2 4.9 4.3 5.3 1.1.3 2 1 2 1.5 0 1.1 3.6 2.2 7.8 2.5 1.8.1 3.8.7 4.4 1.3 1.9 1.9 3.1 1.4 2.4-1.2-.4-1.8-.1-2.5 1.4-2.9 1.1-.3 2-1.1 2-1.7 0-.7-.7-1-1.5-.7-2.6 1-2.6-1 0-2.7 2.8-1.8 3.3-3.6 1-3.6-.8 0-1.5-.5-1.5-1 0-.6.9-1 2-1s2-.4 2-.9c0-1.3-3.3-2.3-5.1-1.6-1.8.7-8.2-3.2-7.4-4.5.3-.6.2-1-.3-1-.6 0-1.3.8-1.6 1.7zM487.174 4.2c-.4.7-2.5 2.1-4.6 3.1-4.1 1.9-4.2 4.1-.1 3.1 1.8-.5 2.9-.1 3.8 1.1 1.1 1.5 1.5 1.5 3.3.4 1.9-1.1 2.6-.9 5.7 1.5 2 1.5 3.6 2.2 3.6 1.7 0-.6 1.6-1.1 3.6-1.1 2.4 0 3.4-.4 3.1-1.3-.2-.6 0-2 .5-3.1.7-1.2.6-2.2-.1-2.9-.8-.8-1.1-.4-1.1 1.6 0 3.4-.9 3.4-4.6-.2-1.7-1.6-4.3-3.3-6-3.6-1.6-.4-3.7-.9-4.6-1.1-.9-.3-2 .1-2.5.8zM264.874 10.1c0 2.2 6.9 9.1 8.3 8.2.4-.3 0-1.4-1-2.5-1.6-1.8-1.7-2 0-2.9 2.7-1.6 0-4.9-4-4.9-2.7 0-3.3.4-3.3 2.1zM331.374 9.1c-1.1 1.7.1 2.1 1.5.4.8-.9.8-1.5.2-1.5-.6 0-1.4.5-1.7 1.1z"/><path d="M370.574 13.7c.3 2.1 1.3 4.4 2.1 5.1 1.3 1 1.4 1.7.6 3-1.6 2.5-4.1 2.6-4.9.3-.9-3-1.8-2.6-3.8 1.8-1.1 2.5-1.5 4.9-1.1 6.5.9 3.7-.2 3.2-3.2-1.4-1.7-2.6-3.1-3.7-3.7-3.1-1.4 1.4-6.5-.7-7.2-3-.5-1.6-1-1.8-2-.9-.8.6-1.1 1.8-.8 2.6.5 1.3-1.4 2-4.1 1.5-.6-.1-2.1 0-3.4.4-1.9.5-2.3 1-1.8 2.9.5 2 .1 2.5-2.1 3.1-1.9.4-2.9.2-3.5-.9-.5-.9-2-1.6-3.3-1.6-2.2 0-2.3.3-1.5 2.4 1.9 5.1 1 8.4-3.4 11.3-2.3 1.5-4.2 2.8-4.4 2.9-.1 0 0 .9.4 1.8.3.9 1 1.4 1.5 1.1 1.1-.7 3.6 3.3 4.3 7 .8 4.2-.6 12.7-2.3 13.3-.9.3-1.1-.1-.7-1.4.8-2.7-.4-4-4.6-5.2-3.2-.9-3.7-.8-4.1 1-.6 1.9-1.8 2-10.4.2-1.5-.3-2.4.2-2.8 1.6-.6 2-2.5 2.8-2.5 1 0-1.5-4.2-5-6.2-5-1.1 0-1.8-.7-1.8-1.9 0-1.1-.5-2.3-1-2.6-.6-.4-.7-2.3-.4-4.7l.7-4-4.2 2.3c-3.1 1.8-4 2.9-3.7 4.3.3 1.2-.2 2-1.5 2.3-1.5.4-1.9 1.1-1.5 2.6.3 1.2 0 2.7-.6 3.4-.7.9-.7 1.7.1 2.7.9 1.1.7 1.5-.6 1.8-2.9.8-6.7 9.3-6.5 14.5.2 3.8 7.1 11.9 12 14 1.8.7 3.5 2 3.9 2.8.6 1.7 4.3 2 4.3.4 0-.6 2.1 1.2 4.6 4 3.2 3.6 5.2 5 6.4 4.6.9-.3 2.3.1 3 1 1.6 2 6 2 6 0 0-1.4.3-1.4 3 0 1.6.8 3.6 1.5 4.4 1.5 2.3 0 7.6 3.3 8.2 5.2.3 1.2 2 2 4.5 2.4 2.8.5 3.9 1.1 3.8 2.3-.3 3.9.2 6 1.4 5.6.6-.3 2.6-.1 4.2.4 2.3.7 2.5.9.9 1-2.7.1-3.9 2.8-1.6 3.5.9.3 2.5 1.9 3.4 3.6 1.6 2.8 5.8 4.3 5.8 2 0-2 3.1-.9 4.2 1.4 1.3 3 .4 5.8-1.7 5-1-.4-1.5 0-1.5 1.5 0 1.2.5 2.1 1.1 2.1.6 0 .8.7.5 1.6-.4 1 .2 2.3 1.6 3.3 2.1 1.8 2.1 1.8.2 3.7-1.3 1.3-1.9 3.2-1.8 6 0 4.1 2.5 9.4 4.4 9.4.5 0 1.2 1 1.6 2.2 1.1 3.3 1.3 4.9.6 4.4-4-2.2-8.5-3.7-9.7-3.2-.9.3-1.5 0-1.5-.9 0-1.7-3-3.4-4.9-2.7-.8.2-2.2-.6-3.2-1.9-1.5-1.9-2.2-2.2-3.6-1.3-2.1 1.3-11.8-2.6-14.5-6-2.1-2.5-2.3-5.6-.4-5.6s2.9-2.9 1.6-4.5c-.8-.9-.6-1.4.5-1.9 1.6-.6 4.6-6.7 5.9-11.9.6-2.6.5-2.8-1.5-2.2-1.1.4-3.2.8-4.5 1-3.3.3-6.4 3.3-6.4 6 0 1.2-.7 4.1-1.5 6.5-1.1 3.2-1.2 4.7-.3 6.3.8 1.6.8 2.2-.1 2.5-.6.2-.9.8-.5 1.3.3.5-.5 1-1.8 1-1.3.1-3.9.3-5.8.5-1.9.1-3.8-.2-4.1-.8-.4-.6-1.5-.8-2.4-.4-1.4.5-1.5.9-.5 2.1.7.9.8 1.5.2 1.5-.5 0-.8.9-.5 2.1.5 1.9.3 2-4.1 1.4-3.6-.6-4.6-.4-4.6.6s-1.9 1.4-7.1 1.6c-5.5.1-7.5.6-8.9 2-3 3.3-3.9 5.9-3.3 9.7.6 4-1.6 7.6-4.6 7.6-.9 0-2.4.9-3.4 2-.9 1.1-2.3 2-3.1 2-.7 0-1.9.7-2.6 1.5-1.5 1.8-6.4 1-10.3-1.6-1.5-1.1-3.2-1.7-3.8-1.4-.5.4-1.6.2-2.4-.5-1-.8-1.9-.8-3.4-.1-2.3 1.3-9.1 1.5-9.1.3 0-1.4-7.9-4.2-8.6-3.1-.3.5-1 .7-1.5.4-.5-.4-.9-.1-.9.5 0 1.2-5.3.9-9.8-.5-1.8-.6-2.1-.4-1.6.9.9 2.4-1.5 2-9.2-1.6-3.8-1.8-7.7-3.1-8.8-2.9-1 .1-3.2 1.8-4.9 3.8-2 2.3-3.7 3.3-4.9 3-1-.3-1.8-.1-1.8.4s-.4.9-1 .9c-.5 0-1-.7-1-1.5 0-1.7-1.6-2-2.5-.5-.9 1.5-2.5 1.2-2.5-.5 0-.9-.6-1.2-1.5-.9-1.2.5-1 1 .8 2.4 2.1 1.8 2.1 1.9.6 6.1-1.1 3.1-2.3 4.5-4 4.9-1.9.5-2 .7-.8 1.2 2 .8 3.4 9.5 1.9 11.3-.8.9-.2 2 2.1 3.9 6.7 5.6 9.8 13.3 6.7 16.4-.9.9-.8 1.2.5 1.2 2 0 2.4 5.5.5 6.4-.7.3-.1.3 1.5-.1 2.1-.4 2.6-.2 2.1 1-.3.9-1.3 1.3-2.5 1-2.8-.8-2.5 3.3.4 4.8 1.2.7 2.5 1.8 2.9 2.5.5.6 1.7 1 2.8.7 1.1-.3 2 0 2 .6 0 1.6 2.6 1.3 4.1-.5.7-.9 2.4-2 3.7-2.5 1.6-.6 2.2-1.4 1.8-2.7-.5-1.4.4-2 4.6-3 4.5-1 5.3-1 6.1.3.5 1 2.3 1.5 5.1 1.5 3.5 0 4.5-.4 4.9-2 .5-1.9.7-1.9 4-.5 3.6 1.5 5.2 1.2 14.1-2.3 5.5-2.3 9.8-2 12.5.7 2.1 2.1 2.8 2.2 9.9 1.6 4.2-.4 7.8-1 8-1.5 1-2.9 6.8-8.6 9.3-9.3 1.6-.4 2.9-1.4 2.9-2.3 0-.9 1.4-2.1 3-2.7 1.7-.6 3.3-1.9 3.6-2.9.3-1 1-1.6 1.5-1.3.5.4.9-.3.9-1.5 0-1.7.4-2 2-1.5 1.5.5 1.8.3 1.4-.9-.4-1-.1-1.6.9-1.6.8 0 2-.7 2.7-1.5 1.1-1.4 1.4-1.3 2.5.1 1 1.4 1.7 1.5 4.7.5 2.8-.9 4-.9 6.4.4 4 2.1 4.5 2 8.7-2 2-1.9 4.6-3.5 5.6-3.5 2.3 0 6.6 6.6 4.8 7.4-.7.2-.4.5.6.5.9.1 1.7-.6 1.7-1.4 0-2 2.6-1.9 3.4.1.9 2.3.8 2.6-.6 1.8-.7-.5-.1.8 1.5 2.8 1.5 2 2.7 4.3 2.7 5.1 0 .7 1.1 2.4 2.5 3.7 1.4 1.3 2.4 2.9 2.3 3.5-.2.6.8 3.5 2.2 6.5 1.8 3.9 2.2 5.4 1.2 5.8-.6.2-1.2 1.9-1.2 3.7 0 2.5-.5 3.5-2 4-1.2.4-2 1.5-2 2.9 0 3-1.6 4.2-6.7 5.1-3.6.6-4.3 1.1-4.8 3.6-.4 1.6-.4 4.3 0 5.9.6 2.9.5 3-1.9 2.4-2-.5-2.6-.2-2.6 1.1 0 1.1-.5 1.5-1.5 1.1-1.1-.4-1.5.1-1.5 1.7 0 1.2-.4 2.9-1 3.7-.6.9-.5 1.9.3 2.9.9 1.1.9 1.5 0 1.8-1 .4-1 1-.2 2.4.8 1.5.7 2.6-.3 4.2-.8 1.2-2.2 4.4-3.2 7-1.5 3.9-1.6 5-.5 6.3.9 1.1.9 1.8.2 2.2-1.1.7-2.6 4.5-2.8 7.4-.2 1.8 6.4 7.8 8.5 7.8 1.9 0 10 5.1 10 6.3 0 .7 1.1 2.3 2.5 3.5 1.9 1.9 3.1 2.2 5.5 1.7 2.4-.5 2.9-.4 2.4.8-.4 1.1-2.7 1.8-7 2.3l-6.5.6.6 3.9c.4 2.5.3 3.9-.4 3.9-1.3 0-3.5 5.1-4.5 10.2-.5 2.8-1.6 4.4-4.7 6.5-2.3 1.5-4.8 3.6-5.7 4.5-.9 1-2.5 1.8-3.6 1.8-1.6 0-1.7.3-.8 1.2 2 2 1.4 4-1 3.7-1.3-.2-2.9 0-3.6.5-.7.4-1.9.2-2.8-.5-1.2-.9-2-.9-3.8.1-1.3.7-2.9.9-3.5.6-1.6-1-1.4.6.5 3.2.8 1.2 1.2 2.2.8 2.2-.4 0 0 .8.8 1.7.8 1 1.8 2.7 2 3.8.3 1.1.9 2.8 1.3 3.9.7 1.6.6 1.7-1.3.7-2.6-1.4-4 .3-2.1 2.5 1.1 1.3.9 1.9-1 3.3-2.1 1.6-2.2 2.1-1.2 5.7.6 2.1 1.1 5.6 1.1 7.6s.5 4.9 1.2 6.3c.7 1.6.8 2.9.2 3.3-1.9 1.4-3.4 5.3-3.4 8.7 0 2-.4 3.4-.9 3-.6-.3-1.2 1.4-1.4 3.7-.7 6-.6 9.8.2 9.8.3.1 2.3 1.5 4.3 3.3 2.4 2.1 3.9 4.4 4.3 6.7.6 3.3.4 3.6-3 5.4-3.1 1.7-3.8 1.8-4.6.5-.5-.7-.9-.9-.9-.3 0 .6.7 1.8 1.6 2.5 1.4 1.2 1.4 1.4-.3 2-2 .7-4.6-.8-3.7-2.3.3-.5-.8-1.4-2.5-2.1-1.7-.6-3.1-1.5-3.1-2 0-.4-1-.3-2.1.4-1.7.9-2.3.8-3-.2-1.3-2.1-1.1-4.6.6-5.3 1.9-.7 1.9-4 0-5.6-.9-.7-1.3-2.1-1-3 .4-1.1-.3-2.3-1.9-3.3-1.7-1.2-2.3-2.2-1.9-3.7.3-1.1.1-2-.5-2s-1.2-1.2-1.4-2.8c-.3-2.5-.7-2.7-4.5-2.8-2.4 0-4.3.2-4.3.6 0 .5-3.9.6-8.2.2-1-.1-1.8-.8-1.8-1.5 0-.8-.9-2.2-2-3.2-1.9-1.8-2-1.7-2 .2 0 1.1-2 4.1-4.5 6.7-4.1 4.3-4.3 4.9-3.2 7.3.9 2.1.9 2.7-.1 3.1-.6.2-1.2 1.2-1.2 2.3 0 1.5-.5 1.8-2.3 1.4-3.3-.9-11.9 4.3-12.7 7.6-.5 2.2-1.1 2.4-6 2.4-4.1 0-6.1-.5-8-2.1-4.2-3.5-9.9-6.4-11.5-5.8-.8.4-1.5.2-1.5-.2-.1-3-1.7-3.4-6.1-1.5-2.4 1-7.4 2.2-11.1 2.6-3.8.4-7.2 1.3-7.9 2.1-.6.8-1.8 1.4-2.6 1.4-2.6 0-5.2 4.2-4.2 6.8 1.2 3.1 1.3 3-1.8 3.4l-2.7.3 3.2 3.3c1.8 1.8 3.2 3.7 3.2 4.2 0 .4.3 1.6.6 2.5.4.9.3 1.5-.2 1.4-.5-.1-1.9-.1-3.2 0-2.2.1-2.2.2-.7 3.1 1.4 2.7 1.4 3.2.1 4.5-.8.8-2 1.5-2.6 1.5-.8 0-.9 1-.5 3 .5 2.2.1 3.9-1.4 6.4-1.2 1.8-2.1 4.1-2.1 5 0 .9-1.1 2.1-2.4 2.7-1.7.8-2.2 1.7-1.8 3.2.4 1.6.2 1.9-1.2 1.4-1.4-.6-1.5-.3-.6 1.4 1.3 2.4.4 5.9-1.6 5.9-.8 0-1.4.9-1.4 2 0 3.6-2.2 6.7-5.6 7.9-2.7 1-3.3 1.7-2.9 3.1.6 2-2.9 8.5-5.1 9.4-.9.3-1.4 1.8-1.4 3.8 0 1.8-.3 5.9-.8 9.1-.8 5.4-.6 6 2.2 10.4 2.7 4.1 3.1 4.4 3.4 2.5.4-2.7 1.4-2.8 3.4-.5s2.1 8.2.2 11.1c-.9 1.3-1.3 2.7-.9 3 .3.4 1 0 1.5-.7 1.3-2.2 3.7-.6 6 4 1.7 3.2 1.8 4 .7 3.6-1.1-.4-1.3 0-1 1.4.4 1.2-.2 2.6-1.3 3.5-1.8 1.3-1.7 1.4.8.8 2-.4 2.9-.2 3.4 1 .3.9 1.6 1.6 2.8 1.6 1.8-.1 1.9-.2.4-1-1.5-.9-1.5-1.2.6-3.5 1.3-1.4 2.8-2.5 3.4-2.5.5 0 .8-1 .5-2.3l-.6-2.2 2.5 2.2c2.7 2.6 6.1 2.9 9.7.9 2.1-1.2 4.9-1 9.6.5 1.5.4 5.5-1.1 5.5-2.1 0-.5.8-.8 1.9-.7 2.5.2 4.6 5.6 2.5 6.4-1.3.5-1.2.8.2 2.4 1.6 1.8 1.6 1.9.1 1.9-1.1 0-1.7.8-1.7 2.5 0 1.5-.5 2.3-1.2 2-1.9-.7-6.9 6-6.1 8 .7 1.9-1.5 3.7-3.1 2.7-1.4-.8-4.6-1-4.7-.3-.1.3-.2 6.3-.4 13.2-.1 6.9-.5 13.1-.9 13.7-.9 1.5 3.6 2.6 7.4 1.8 2.2-.4 3.2-.1 3.9 1.3.6 1 .8 2.1.5 2.3-.2.3 1.6 2 4 3.9 2.5 1.9 4.6 3.8 4.6 4.3 0 2.4 3.7 8.6 5 8.6.8 0 2.5.3 3.7.6 1.7.5 2.6-.1 4.1-2.6 1.6-2.5 2.1-2.8 2.6-1.4 1.7 4.4-3.1 12.8-8.1 14-2.4.6-3.2 2.4-1 2.4.8 0 .9.2.1.8-.7.4-1.4 1.6-1.6 2.7-.4 2-1 2.2-4 1-1.5-.6-1.6-.3-.8 2.4.6 2.3.5 3.1-.4 3.1-.7 0-1.2 1-1.2 2.2.1 1.3-.4 2.2-1.1 2-.7-.1-1.8-.3-2.5-.5-.6-.1-1.4.6-1.6 1.5-.2 1.1.2 1.8 1.2 1.8.9 0 1.6.8 1.6 2 0 1.1-.7 2-1.5 2s-1.8 0-2.2.1c-.5 0-1.4 1.1-2.1 2.5-1.1 2.1-1.7 2.3-5.1 1.8-2.4-.4-4.1-.2-4.5.5-.4.6-1.2.9-1.7.5-.6-.3-.7.4-.3 2 .5 2.2.1 2.8-3.3 4.5-2.1 1.1-5 2.5-6.4 3.1-1.9.8-2.9 2.3-3.9 5.9-1 3.8-1.7 4.7-3 4.4-1.3-.3-1.9.3-2.5 2.4-.3 1.5-.6 3-.5 3.3.1.2-.7.7-1.7 1.1-2.3.8-2.9 9.5-.6 10.3 1 .4 1.4 1.8 1.2 4.3-.1 2.1.3 4.8.9 6 1.7 3 1.5 4.1-.7 4.8-1.1.3-2.1 1.6-2.3 2.8-.4 2.3-.5 2.3-5.1 1.2-2.3-.6-2.7-.4-2.7 1.3 0 1.2-.5 2.4-1.1 2.7-.5.4-1.4 1.8-1.9 3.1-.7 1.8-1.7 2.4-3.8 2.4-2.9 0-6.2 2.6-6.2 4.9 0 .7-.4 1-1 .6-.5-.3-2.9-.7-5.3-1l-4.5-.3-.6 3.8c-.5 3-1.7 4.8-5.3 7.9-3.2 2.7-5.5 4-6.7 3.7-1.1-.3-2.5.2-3.1 1.1-1.1 1.5-1.6 1.5-4.9-.5-2.2-1.3-5.4-2.2-7.7-2.2-4.2 0-9.9-2.3-9.9-4.1 0-.6-.5-.7-1.1-.4-.5.4-1.9-.1-2.9-1-1.5-1.4-2.3-1.5-3.3-.6-.8.6-4.3 1.1-7.8 1.1-13.6.1-14.9.3-14.9 2.7 0 1.3-.5 2.3-1.2 2.3-.6 0-1.9.7-2.9 1.6-1.6 1.5-1.7 1.4-1.2-.4.6-2.3-.8-3.5-3.1-2.6-2 .8-2.1 2.4-.1 2.4.8 0 1.5.5 1.5 1.1 0 .5-.5.7-1.1.3-.7-.4-.9 0-.5 1.4.5 1.4.1 2.1-1.4 2.5-2.2.6-2.7 3.6-1 6.7.8 1.5.6 2-1.1 2.5-1.4.5-1.7 1-1 1.9.7.8.7 1.6.1 2.2-1.5 1.5 0 5.4 2.1 5.4 2.7 0 3.2 1.8.7 2.6-1.3.4-3.4 1.5-4.8 2.6-2.3 1.8-2.5 1.8-3.7.2-1-1.4-1-2 0-3.2 1-1.3.9-1.4-1-.4l-2.2 1.2 2.1 6.1c1.6 4.7 1.8 6.3.8 6.9-1 .6-.9 1.3.1 3.5.8 1.5 1.7 2.6 2 2.4.4-.2 1.6.5 2.8 1.5 1.1 1 4.4 2.3 7.2 2.7 3.6.6 5.6 1.5 7.1 3.4 1.7 2.2 7.2 5.3 10.3 5.9.6.1 3.2 1.4 5.7 2.9 2.6 1.5 5.1 2.7 5.7 2.7.6 0 1.1.9 1.1 1.9 0 2.7 4.1 8.7 6.8 10 1.5.7 2.2.7 2.2 0 0-.6 1.3-.1 2.9 1 1.6 1.2 3.4 2.1 3.9 2.1.6 0 2 1.2 3.1 2.6 1.6 2 1.8 3.1 1 5-1.3 3.5-1.1 4.4.5 4.4.8 0 1.7.9 2.1 1.9.7 2.3 5.7 3.2 9.7 1.7 2.1-.8 3.1-.8 3.6 0 1.1 1.7 5.2 2.8 5.2 1.4 0-.6.5-1 1.1-.8.6.2.9.7.7 1.2-.5 1.2 4.3 3.5 7.5 3.6 2.4 0 2.7-.4 2.7-3.1 0-2.5.3-2.9 1.9-2.4 1 .3 2.4-.1 3.1-1 1.4-1.7 4-2 4-.4 0 .6.6.9 1.4.6.7-.3 1.8-.1 2.3.4.7.7 1.6.1 2.7-1.5 1-1.6 2.6-2.6 4.1-2.6 1.3 0 2.7-.5 3-1.1.4-.6 1.3-.8 2.1-.5.8.3 1.4.1 1.4-.4 0-.6.9-1 2-1s2-.5 2-1.1c0-.6.9-.9 2-.6 1.5.4 2.2-.1 2.6-1.9.8-3 3.4-5.4 3.4-3 0 .9.5 1.6 1.1 1.6.6 0 .9-.7.5-1.5-.4-1.1.2-1.5 2.3-1.5 1.6 0 3.1-.7 3.5-1.5.3-.8 1.4-1.5 2.5-1.5 2.2 0 4.1-2.7 3.4-4.8-.3-.6.2-1.2 1.1-1.2.9 0 2.4-.8 3.4-1.8 1.5-1.5 1.7-2.9 1.2-9.2-.3-4.1-.2-7.7.2-7.8.4-.2.8-1.3.8-2.3 0-1.1 1.1-3.7 2.5-5.7 1.4-2.1 2.5-5.1 2.5-6.9 0-2.6.4-3.3 2-3.3s1.8-.4 1.1-2.3c-.8-2.1-.6-11.5.3-12.4.6-.6 7.5 2.4 9.2 4.2 2.1 2 9.4 2.1 9.4 0 0-1.5 3.5-3.4 9.5-5.2 3.5-1 4.4-3.7 2-6.4-1.7-1.8-1.7-2 .6-3.8 1.3-1.1 2.8-2 3.2-2.1 1.2 0 3.7-2.7 3.7-3.9 0-.5.5-2.2 1-3.6.8-2.1 1.3-2.5 2.4-1.6 1.1.9 1.5.7 1.9-.8.2-1.1 0-2.4-.7-3.1-.8-.8-.7-1.3.4-2 .8-.5 1.7-.7 2.1-.4.4.2 1-.3 1.3-1.2.3-.8 1-1.3 1.5-.9.5.3 1.2.1 1.5-.4.7-1.1 4.3-.3 7.6 1.8 1.5 1 2.1 1.1 1.7.3-1-1.5-.2-1.5 2.2 0 2.5 1.5 8.5-.8 7.7-2.9-.5-1.2.4-1.3 4.8-.8l5.3.7.6-3.9c.4-2.5 1.6-4.6 3.5-6.2 2.1-1.7 2.8-3 2.4-4.4-.4-1.6-.2-1.9 1.2-1.4 4.3 1.7 7.2-3.5 4.6-8.4-1.5-2.7.3-2.4 3.1.5 1.8 1.9 3 2.3 5.1 1.9 3.7-.7 6 1.3 5.8 5.1-.1 1.7-.1 3.3 0 3.6.3.6.8 3.4 1.2 6.6.1 1.5.7 2 1.8 1.6 2.1-.8 3.9-3.4 3.3-4.9-.4-1 0-1.1 1.9-.4 2.6 1 5.9-.1 3.9-1.3-.6-.4-1.6-.4-2.1-.1-1.4.9-3.3-4.5-2.6-7.6.3-1.5-.1-3.5-1-4.8-.8-1.1-1.1-2.1-.6-2.1.5 0 1.2-1.3 1.5-2.9.4-1.8 1.4-3.2 2.8-3.6 1.8-.6 2-1.2 1.4-4.1-.5-2.7-.3-3.4 1-3.4 1.7 0 1.8-1 .6-6.3-.5-2.2-.5-3.7 0-3.7.6 0 .5-1-.2-2.1-.9-1.7-.8-2.5.4-3.6 1.2-1.3 1.3-2.1.4-4.1-.9-2-.9-2.6.1-3 2-.6 1.3-3.9-1.3-5.6-1.9-1.3-2.3-2.2-1.9-4.4.4-1.9.1-3.2-1-4.1-1.9-1.6-2.2-6.1-.4-6.1.8 0 .9-.3.1-1.1-.5-.5-.8-2.1-.5-3.4.5-2.7 4.8-4.2 7.9-2.8 1.6.8 4 .9 5.3.3.4-.2 3.1-.6 8.7-1.2 1.2-.1 2.6-3.8 1.5-3.8-.4 0-1.6-.7-2.7-1.6-1.7-1.3-1.8-1.6-.5-2.4 2.3-1.5 4.4-1.2 6.8 1 1.9 1.8 2.2 1.9 2.2.4 0-2-4.7-6.6-5.5-5.4-.3.5-1.8.2-3.4-.6-3.3-1.7-6-4.4-4.2-4.4.6 0 .8-1.1.5-3-.4-1.9-.2-3 .5-3 .8 0 .8-.8-.2-2.8-1.5-3.2-1.1-7.3.7-6.6.7.3 1.8-.7 2.4-2.1.8-1.7 1.9-2.5 3.8-2.5 2.5 0 2.6-.1 2.3-6.3-.2-3.4-.5-6.6-.8-7.1-1.1-2.3-.7-6.2.9-8.1 1.3-1.5 1.5-2.6.9-4.3-.4-1.2-1.2-2.2-1.7-2.2-.6 0-.9-1.8-.8-4 .1-3.4.4-4 2.4-4 1.2 0 2.2-.4 2.2-.9s1.2-1.1 2.6-1.4c1.9-.3 2.8.1 3.4 1.7.5 1.1.9 1.5.9.8.1-.6.9-1.2 1.9-1.2 1.5 0 1.8-.6 1.4-3-.4-2.8-.2-3 2.7-3 2.9 0 3.1-.3 3.1-3.3 0-4.5 2.6-7.3 7-7.6 11.2-.7 24.7-.4 26.7.7 1.4.8 2.4.9 2.8.2.3-.5 1.6-.8 2.8-.6 1.7.3 2.1.9 1.9 3-.2 1.9.1 2.4 1.2 2 .8-.3 1.2-1.2.9-2-1.3-3.4 3.3.2 5.2 4 .6 1.2 1.9 2.2 3 2.4 3.8.7 10 8.5 7.4 9.4-1.5.5 0 3.8 1.8 3.8 2.5 0 7.3 3 7.3 4.6 0 .8.4 1.2 1 .9.6-.4.5-1.3-.2-2.4-1.3-2.2-.5-4.9 1.8-5.8 1.8-.7 3.6 1.5 2.6 3.2-.3.5-.7 2.3-.7 3.9 0 1.8-.7 3.1-1.8 3.5-1.5.6-1.6.9-.4 2.5 2 2.7 6.7 3.1 6.7.5 0-1.2.7-1.9 1.9-1.9 1.1 0 2.2-.8 2.6-1.9.3-1 2.4-2.5 4.6-3.4 4.6-1.8 5-4.3.9-6.4-2.6-1.3-4.2-5.4-4.2-10.8-.1-1.6-.7-3.5-1.4-4.3-1.2-1.1-1.2-1.6.1-2.8.8-.9 2-1.2 2.6-.9.5.4 2.6.4 4.6 0 2.6-.5 3.3-.9 2.4-1.8-1.6-1.6-1.4-2.7.7-2.7 1 0 2.8-.7 4.1-1.6 1.7-1.2 2.1-2.2 1.7-4-.6-2.2-.5-2.3 1.3-1.2 1.6 1 2.7.8 6.1-.7 3.5-1.6 4.3-1.7 5.1-.4.5.8.9 1 .9.4 0-.5.5-.4 1.1.2.6.6 1.7.9 2.4.7.7-.3 3.2.4 5.4 1.6 4.2 2.1 4.4 2.7 2.5 8.8-.6 1.9 5.7 4.4 7.5 2.9 1.5-1.3 4.6-1.2 10.9.5 4.1 1 5.2 2.1 3.2 3.3-1.6 1-1.2 4.7 1 8.2 2.2 3.8 4 4.2 4.7 1.3.6-2.3 3.2-2.6 5.2-.8 1.1 1 1.4 1 1.8 0 .3-.6 1.3-1.2 2.3-1.2 1.9 0 2.5-3.2 1-5.5-.4-.6-.7-2.5-.8-4.4-.3-4.4-1-5.3-3.3-4.6-1.2.4-1.9.2-1.9-.6 0-.7-.7-2.1-1.6-3.1-.9-.9-1.8-3.4-2-5.4-.2-2.3-1.1-4.2-2.4-5.1-3.1-2.2-2.4-9.7 1.1-10.8 1.5-.5 1.7-1.3 1.2-3.8-.3-1.8-1.2-3.9-2.1-4.7-1.3-1.3-1.4-1.3-.9.2.4 1 .4 1.8.1 1.8-.9 0-7.4-2.9-8.6-3.9-7-5.5-9.8-8.5-8.8-9.5.5-.5 1-1.8 1-2.7 0-.9.7-2.2 1.5-2.9 1.7-1.4 1-9.3-1.1-12.5-.8-1.1-1.4-3-1.4-4.2 0-1.5-.9-2.7-2.4-3.5-2.6-1.1-4.1-4-5.1-10.1-.3-2-1-3.7-1.5-3.7-.6 0-1-.8-1-1.9 0-1-.7-2.4-1.6-3.2-1.4-1.1-1.4-1.3.2-2.2 1.4-.8 1.2-1.2-1.6-2.3-1.7-.8-3.6-1.1-4.1-.8-.5.3-.9-.2-.9-1.1 0-1.2-3.6-3.5-5.6-3.5-.5 0 2.1 4.3 5.5 8.9 1.5 2 2.6 4.9 2.7 7.2.2 3.5 0 3.9-2.3 3.9-2.2 0-2.4.4-2.2 3.2.3 4.7-1 7.8-3.2 7.8-1.1 0-1.9.7-1.9 1.5 0 1-1 1.5-2.9 1.5-2.9 0-3 .1-1.9 3 .5 1.7 1.9 3.6 2.9 4.4 1.6 1.1 1.7 1.5.6 1.9-.8.3-1.7 2.4-2.1 4.7-.5 3-1.1 4-2 3.7-.8-.3-1.6.2-1.9 1.4-.3 1-1.3 1.9-2.2 1.9-1.2 0-1.5.5-1.1 1.6.5 1.2.2 1.5-1.1.9-7.9-3.2-12-2.1-10.7 2.8.7 2.9 1.9 3.5 2.7 1.4.3-.6.6 0 .6 1.5.1 2.4-.3 2.8-2.6 2.8-1.4 0-3.5-.8-4.5-1.7-1.1-1-3.4-2.2-5.1-2.8-3.5-1.1-3.9-3.9-1-6.2.9-.7 1.3-1.9 1-2.7-.5-1.3-.2-1.3 2-.5 2.9 1.1 4 .5 2.6-1.3-.6-.7-1.1-3.8-1.2-6.8-.1-4.2-.6-5.8-2.1-6.9-1.1-.7-2-2.4-2-3.7 0-1.2-.4-2.6-1-2.9-1.4-.9-1.2-2.5.3-2.2.7.1 1.1-.8 1-2.6-.1-1.5.2-2.7.7-2.7 1.8 0 4.1-6.1 3.5-9-.5-2.3-.2-3.2 1.8-4.5 1.4-.9 3.8-1.7 5.3-1.8 3.9-.3 4.9-1.5 5.2-6.2.1-2.2.7-4.2 1.3-4.4 1.6-.5 3.2-5.2 2.9-8.6-.2-2.5 0-2.7 1.3-1.7 1.2 1 1.6 1 2.1-.3.3-.8 1.2-1.5 2.1-1.5 1 0 1.5-1 1.5-3.4 0-1.9.5-3.8 1.1-4.2.6-.3.9-1.5.6-2.5-.3-1.2.2-2.3 1.4-2.9 1-.6 1.9-1.7 1.9-2.5s.9-2 2-2.7c1.1-.7 2-2 2-2.8 0-.9.9-2.3 1.9-3.2 1.1-.9 2.3-3.3 2.7-5.3.3-2 1.3-3.9 2-4.2 1.1-.4 1.3-1.5.8-4-.6-3.2-.5-3.4 1.2-2.5 1.5.8 2.9.5 5.9-1.4 4.2-2.5 8-3 10.5-1.4 1.1.7 1.6.4 2.1-1.3.4-1.5 1.2-2.1 2.6-2 1.6.2 2.6-.8 4.1-4 3-6.4 1.8-11.2-3.1-11.9-1.7-.2-2.3-1.1-2.5-3.6-.2-1.7-.8-3.2-1.3-3.2s-.7 1-.4 2.3c.9 3.5-2.9 7-7.1 6.5-2.5-.3-3.4 0-3.4 1 0 1.2-.3 1.2-1.5.2s-1.5-1-1.5.3c0 2.2-2.8 2.9-4.2.9-.7-.9-2.6-1.8-4.2-1.9-1.8 0-4.2-1.4-6.5-3.7-4.4-4.3-7.5-4.9-6.1-1.2.8 2.1.5 2.4-2.2 3-2.1.4-3.7.1-4.8-.9-2-1.8-7.1-2-8.8-.3-1 1-1.4.8-1.8-1-.4-1.2-1.1-2.2-1.8-2.2-.8 0-.8-.2 0-.8 2-1.3 2.5-4.8.9-6.2-.8-.7-1.5-1.9-1.5-2.6 0-.8-1.6-3.1-3.5-5.3-3.3-3.6-3.5-4.3-3.5-10.4 0-5.8-.3-6.6-2.1-7.2-1.1-.4-1.8-1.2-1.6-1.9.3-.7-.8-2-2.4-3-3.2-1.9-3.4-2.7-4.5-13.1-1-10.7-1-16.8.2-17.2.6-.2.8-1.7.6-3.3-.4-2.6-.2-2.9 1.3-2.3 1.6.6 1.8.2 1.2-4-.5-3.5-.3-4.8.8-5.5 1.3-.7 1.3-1.1-.1-3-.8-1.2-2.2-2.2-3-2.2-1.4 0-2-5.6-1.5-13.5.3-4.1-1.7-9.4-2.8-7.6-1.5 2.4-2.9.2-2.7-4.4.1-3-.3-4.5-1.1-4.5-.7 0-1.3-1.2-1.3-2.6 0-2.2.3-2.4 2.3-1.8 1.2.4 2.5 1.2 2.9 1.8.5.8 1.1.7 2-.2.9-.9.9-1.2-.1-1.2-.7 0-1.1-.6-.8-1.5.4-.8.1-1.7-.5-2.1-.6-.4-.8-2.1-.5-4 .5-2.7.2-3.4-1.1-3.4-2.6-.1-7.5-4.8-6.8-6.6.9-2.4-3-7.2-6.2-7.6-2.4-.3-2.7-.7-2.4-3.8.1-1.9.9-4.1 1.7-5 2.2-2.5 1.9-7.3-.6-8.8-1.9-1.2-2-1.5-.5-3.1 1.8-2 1.3-4.6-1-5.5-2.5-.9-1.5-2.4 2.1-3 1.9-.4 3.5-1.1 3.5-1.7 0-.5 1.1-.7 2.6-.3 1.9.5 2.5.3 2-.4-.4-.7.8-1.5 3.3-2.2 3.8-1 4.4-2.1 2.7-4.8-1.1-1.9-.6-2 3.2-1 1.8.5 3 1.3 2.7 1.8-.5.9 7.1 3.7 7.9 2.9.2-.2.7-1.8 1-3.4.3-1.7.8-4.2 1.2-5.6.5-2.4.2-2.8-2.4-3.4-1.6-.3-3.8-1.5-4.8-2.6-1.1-1.2-3-1.9-5.5-1.9-3.3 0-4-.4-5.4-3.4-.9-1.8-2.7-3.8-4.1-4.5-1.7-.7-2.4-1.7-2-2.6.3-.8.1-1.5-.4-1.5-.6 0-2-1-3.2-2.2l-2.1-2.1-.9 2.2-.8 2.2-3.2-2.3c-1.8-1.2-4.3-3.4-5.5-4.8-1.2-1.4-2.3-1.9-2.3-1.3 0 2-1.5 1.6-4.8-1.2-3.5-2.9-5.8-3.1-8.5-.8-1.5 1.3-2.1 1.5-2.4.5-.3-.6-1.8-1.2-3.4-1.2-1.6 0-2.9-.5-2.9-1 0-.6.6-1 1.3-.9.6.1 2.9-.6 5-1.5s4.7-1.6 5.6-1.4c1 .2 3.2-1.1 4.8-2.7 3.7-3.7 7.4-6.9 9.2-8 1.1-.6 1.3-.4.8.8-.3.8 0 2.1.8 2.7 1.1.9 1.6.7 2.5-1 .6-1.2.9-2.6.6-3.3-.3-.9-.5-.9-.5 0-.1.7-.6 1.3-1.2 1.3-.5 0-.7-.5-.4-1 .3-.6.3-1.5-.1-2.2-1-1.6-1.3-6.8-.4-6.8 1 0 .7-2.7-.5-3.7-.4-.4-.5-.2 0 .6.5.9.4 1.2-.2.8-.6-.4-.8-1.7-.6-3.1.5-2.2.2-2.4-3.4-2.3-2.1 0-4.5.6-5.3 1.2-4.4 3.5-9.1 1.8-11-4-1.2-3.6-4.4-5.3-7.5-4.1-.8.3-1.5.1-1.5-.3 0-.5.6-1.1 1.3-1.4 1.7-.6-2.1-4.8-4.1-4.5-1.7.3-5.2-5.8-5.5-9.7-.1-1.4-.9-3-1.7-3.6-1.3-.8-1.2-1.1.4-2 1-.6 2.7-2 3.7-3 1.1-1.1 2.8-1.9 3.9-1.9s2.3-.7 2.7-1.6c.3-.9 1.6-1.5 3.2-1.4 4.4.3 5.1.1 4.4-1.6-.5-1.4-.1-1.5 2.4-1 2.9.7 3.1.5 3.7-3.4 1-6.5-.2-11.5-3.3-13.3-1.6-.9-3.2-3.1-3.8-5.2-1.1-3.4-1-3.6 1-3 1.2.4 3.5 1.6 5 2.7 1.6 1.1 3.1 1.7 3.4 1.4.9-.9-.6-3.8-1.7-3.1-.5.3-1-.3-1-1.4 0-1.2.7-2.1 1.6-2.1 1.1 0 1.4-.6.9-2-.7-2.3-.2-2.5 2.6-1 1.4.8 2.7.7 4.9-.5 2.9-1.5 3.5-2.8 3.2-6.8-.1-.9.3-1.7.8-1.7.6 0 1-.7 1-1.5s.5-1.5 1.1-1.5c.7 0 .5-1-.5-2.5-1.9-2.9-2-3.9-.3-2.9.7.5.6 0-.3-1.1-1.1-1.4-1.2-1.9-.2-2.2.6-.3 1.2-1.3 1.2-2.3 0-1 1-2 2.3-2.3 2-.6 2.2-1.1 1.9-6.7-.2-3.3-.7-5.8-1.1-5.6-.3.3-1.8-.4-3.1-1.5-1.4-1-1.9-1.9-1.3-1.9.9 0 1-.7.2-2.6-.7-2.1-.6-3.1.7-4.5 1.8-2 3.9-1.5 3 .7-.3.7.7 2.2 2.1 3.4 2.4 1.9 2.7 1.9 3.8.3 1-1.3 1-2.1.1-3.5-.6-1-1.4-1.8-1.8-1.8-.5 0-.8-.7-.8-1.6 0-.8-.4-1.2-1-.9-2.7 1.7-16-5.1-16-8.2 0-.8-.9-2.6-2-4s-2-3.1-2-3.8c0-.7-.7-1.8-1.5-2.5-1.2-1-1.3-.6-.8 2.7zm-50.7 60.9c0 .2-.7.4-1.5.4s-1.5-.4-1.5-1c0-.5.7-.7 1.5-.4.8.4 1.5.8 1.5 1zm36 125.4c0 .5-.4 1-1 1-.5 0-1-.5-1-1 0-.6.5-1 1-1 .6 0 1 .4 1 1zm42.2 21.2c-1.3 1.3-3.2.2-3.2-1.8 0-1.2.4-1.3 2.1-.3 1.4.7 1.8 1.4 1.1 2.1zm50.8 191.8c0 .5-.4 1-1 1-.5 0-1-.5-1-1 0-.6.5-1 1-1 .6 0 1 .4 1 1zm-30.4 29.1c.3.5.1.9-.5.9-1.7 0-4.1-1.2-4.1-2 0-1 3.8-.1 4.6 1.1zm-4.6 101.9c.4 0 1.1 1.5 1.4 3.3.3 1.9 1.8 4.5 3.2 5.8 2.5 2.3 6 7.9 4.9 7.9-4.1 0-5.8 2-5.2 6.1.4 2.9.2 3.9-.9 3.9-.8 0-1.4.4-1.4 1 0 .5-.6 1-1.4 1-1 0-1.3-1.6-1.2-6.5.1-4.4.5-6.5 1.3-6.5.7 0 1-.7.7-1.5-.4-.8-1.3-1.5-2-1.5-.8 0-1.7-.7-2-1.5-.4-.8-1.3-1.5-2.1-1.5s-1.1.5-.7 1.1c.4.7.1 1-.7.7-.9-.3-1.4-2.1-1.4-5.1-.1-3.7.3-4.8 1.7-5.3 1-.3 1.8-1 1.8-1.6 0-.5.7-.7 1.6-.4.9.3 1.9.6 2.4.6zm-273.6 4.6c1 .4 1.6 1.8 1.6 3.6v3l-3-3.2c-1.6-1.8-3-3.4-3-3.6 0-.6 2.6-.5 4.4.2zm295.1 9.4c.3.5.1 1-.4 1-.6 0-1.1-.5-1.1-1 0-.6.2-1 .4-1 .3 0 .8.4 1.1 1zm-85 25c.3.5.1 1-.4 1-.6 0-1.1-.5-1.1-1 0-.6.2-1 .4-1 .3 0 .8.4 1.1 1zm73.8 20.2c.4 1.4.2 1.6-1.3.8-2.8-1.5-3.3-2.9-1.1-2.7 1.1 0 2.2.9 2.4 1.9zm-374.2 205.3c-.1 1.5-2.4 1.2-2.9-.3-.3-.9.2-1.3 1.2-1 1 .1 1.7.7 1.7 1.3zm-7.6 2.5c.3.6-.1.7-.9.4-1.8-.7-2.1-1.4-.7-1.4.6 0 1.3.4 1.6 1zM467.374 13.4c-4.4 2.3-5.1 2.4-7.6 1.1-2.6-1.4-2.7-1.3-3.3 1-.5 2-1.3 2.5-3.6 2.5-4 0-3.8 1.7.4 3.7 2.7 1.3 4 1.4 6.6.5 2-.7 3.8-.8 4.9-.3 1.6.9 4.2 0 7.2-2.7.8-.7 2.8-2.4 4.4-3.7 2.5-2.1 2.7-2.7 1.5-3.5-.9-.5-1.9-.5-2.5 0-.7.6-1.5.6-2.1 0-.7-.7-2.7-.2-5.9 1.4z"/><path d="M366.574 17.4c-.3.8.2 1.6 1.4 1.9 2.2.6 2.5-.6.5-2.2-1-.9-1.5-.8-1.9.3zM272.874 20.4c0 .3 1.5.9 3.2 1.4 1.8.4 3.3 1.5 3.4 2.3.2 3.1 1.7 7.8 2.4 7.4.4-.2.7-2.5.6-5.1-.1-4.3-.3-4.7-2.8-5-1.6-.1-3.7-.5-4.8-.9-1.1-.3-2-.4-2-.1zM439.874 24.5c-.8 1.4-2 2.3-2.7 2.1-.8-.3-1.3.2-1.3 1.4 0 2.6 2.6 2.6 4 0 .6-1.1 2.2-2.3 3.6-2.6 2.8-.7 2.7-2.8-.2-3.2-1.3-.2-2.5.6-3.4 2.3zM431.574 32.2c-1 6.4-2.5 9-4.7 8.3-1.4-.4-2-.2-2 .8 0 .9-1.6 1.9-3.9 2.5-3.2.8-4.4.6-6.2-.6-1.9-1.3-2.2-1.3-3.1.2-1.1 2-4.4 2.1-5.2 0-.3-.8-1-1.3-1.5-1-.5.3-3.5-.3-6.7-1.3-3.3-1-6-1.8-6.2-1.6-1 .9 1.5 3.5 3.9 4 1.6.4 3.4 1.5 3.9 2.6.6 1 .8 1.9.5 1.9-.2 0 .3.9 1.2 2 1 1.1 3 2 4.5 2s3 .4 3.3 1c.7 1.1 8.5.9 8.5-.2 0-.4 1.7-1.2 3.8-1.8 5-1.3 15.1-10.6 15.3-14 .2-4 0-4.8-1.7-6.4-2.3-2.3-3.1-2-3.7 1.6zM497.074 92c.2 5.5.6 5.8 3.7 3.2 2.6-2.1 1.9-5.5-1.4-7-2.3-1.1-2.4-1-2.3 3.8zM499.874 99.5c1.7 2.1.1 3.7-3.1 3.3-1.6-.3-2.9-.1-2.9.3 0 .7 2 1.7 3.1 1.5.3 0 1.3.5 2.2 1.3 1.4 1.1 1.8 1.1 2.4-.5.3-1.1 1-2.2 1.5-2.5 1.4-.9-.1-3.7-2.3-4.2-1.6-.4-1.8-.3-.9.8zM492.574 107.1c.4 1.3.8 1.8 1.1 1 .2-.7-.1-1.8-.6-2.3-.8-.8-.9-.4-.5 1.3zM485.274 112.5c-.4.8-1.5 1.5-2.5 1.5s-1.8.3-1.7.7c.1.5-.3 1.8-1 3-.9 1.7-.9 2.2.1 2.6 1.8.6 7.7-2.4 7.7-4 0-.7.7-1.3 1.6-1.3 1.1 0 1.4-.5 1-1.6-.3-.9-.6-1.8-.6-2 0-1.2-4.1-.2-4.6 1.1zM491.874 112c0 .5.5 1 1 1 .6 0 1-.5 1-1 0-.6-.4-1-1-1-.5 0-1 .4-1 1zM501.074 120.3c-2 2.1-2.9 4.7-1.7 4.7 2.3 0 5.5-2.7 5.5-4.7 0-2.9-1.1-2.9-3.8 0zM472.874 121c0 .6-.6 1-1.4.7-.8-.3-3.1-.1-5.1.4-3 .9-3.5 1.3-2.9 3.1.5 1.8.3 2-1.5 1.5-1.8-.4-2.1-.1-2.1 2.4 0 3.4-3 5.5-5.8 4-1.3-.7-2.4-.4-4.2 1-1.4 1-3.5 1.9-4.7 1.9-1.9 0-2.3.5-2.3 3.5 0 2.7-.3 3.3-1.5 2.9-2-.8-4.2 1.1-6.6 5.8-1.1 2.1-2.7 3.8-3.5 3.8-1.2 0-1.5.7-1.2 2.5.4 1.9.1 2.5-1.1 2.5-1 0-2.3-.6-3-1.3-.6-.6-.3.8.7 3.3 1.1 2.5 2.3 6.4 2.7 8.7.6 3.6.4 4.3-.9 4.3-.9 0-1.6.6-1.6 1.4 0 .8-1.1 2.3-2.5 3.3-2.3 1.6-2.4 2.1-1.3 4.5.7 1.4 2.5 3.3 3.9 4.2 2.2 1.3 2.7 2.5 3.3 7.6.5 4.1 1.1 6 2.1 6 1.4 0 3.1 3.7 2.6 5.5-.1.5.8 0 2.1-1.3 1.4-1.2 3.3-2.2 4.4-2.2 1 0 2.5-.4 3.3-.9.7-.5 3.1-.3 5.6.5 2.4.7 4.6 1 4.8.7.3-.3 2.8.1 5.6.8 4.1 1 5.3 1 6.6-.1.9-.8 1.4-2.2 1.2-3.2-.3-1.1-.1-1.5.6-1.1.6.4.8-.1.5-1.4-.4-1.6-.1-1.9 1.7-1.5 1.3.2 2.6-.1 2.9-.7.4-.6 1.6-1.1 2.7-1.1s3.1-.7 4.5-1.6c1.9-1.3 2.2-1.9 1.3-3-1-1.2-.9-1.3.5-.8 1 .4 1.6.1 1.6-.7 0-.8 2-3.2 4.5-5.3 3.7-3.4 4.2-4.3 3.3-6-.8-1.5-.6-2.2.9-3.5 1.1-.9 2.6-3.5 3.3-5.9.7-2.3 1.9-4.2 2.7-4.2 2 0 1.5-3.2-1-6-1.2-1.4-4.8-4.6-8.1-7-6.7-5-8.9-8.6-6.5-10.4 1.8-1.3 1.3-4.6-1-6.2-1.1-.9-2-.9-2.9-.1-1.1.8-1.1.5-.1-1.9.7-1.6 1.6-3.3 2-3.8 1.3-1.6-.3-3.6-2.9-3.6-1.4 0-3.4-.7-4.4-1.7-1.2-1.1-1.8-1.2-1.8-.3zm-25 75.4c0 .3-.4.8-1 1.1-.5.3-1 .1-1-.4 0-.6.5-1.1 1-1.1.6 0 1 .2 1 .4zM336.974 127.9c-.7.5-1.2 1.4-1 2 .2.6 1 .2 1.7-.9 1.4-2.2 1.3-2.3-.7-1.1zM328.474 131.4c.7 1.9 3.8 2.2 3.2.3-.3-.6-1.2-1.3-2.1-1.5-1.2-.2-1.5.1-1.1 1.2zM390.074 160.7c.2.9.8 1.8 1.5 2 .7.3.9-.3.6-1.6-.6-2.5-2.6-2.8-2.1-.4zM427.874 206.3c0 1.3-.5 2.8-1.2 3.5-.9.9-.9 1.2 0 1.2s.8.7-.3 2.4c-1.4 2-1.4 2.8-.3 4.5 1.7 2.7 2.4 2.6 4.4-.5 1-1.4 2.3-2.3 3.1-2 1 .4.9 0-.3-1.8-1-1.6-1.2-2.6-.5-3.1 1.8-1 1.2-4.4-.8-5.5-3-1.6-4.1-1.2-4.1 1.3zM424.174 222.1c-1.5 1.5-.5 3.9 1.7 3.9 1.9 0 3.4-2.5 2.4-4.1-.7-1.2-2.8-1.1-4.1.2zM320.474 225.9c-.3.5-.3 1.7 0 2.6.6 1.4.3 1.6-1.4 1.1-1.8-.6-2.1-.4-1.5 1 .5 1.4.3 1.5-1.5.5-1.5-.8-2.2-.8-2.2-.1 0 .5-1.3 1-2.9 1-3.2 0-7.3 3.1-5.2 3.8.7.2 1.8-.4 2.5-1.3 1-1.4 2.2-1.7 5.2-1.3 2.1.4 4.7.9 5.7 1.3 1.3.5 1.7.2 1.7-1.3 0-1.2.5-2.4 1-2.7 1.3-.8 1.3-4.2.1-5-.5-.3-1.2-.1-1.5.4zM303.874 230c0 .5.5 1 1 1 .6 0 1-.5 1-1 0-.6-.4-1-1-1-.5 0-1 .4-1 1zM505.374 388.2c.6 2.7 1.5 3.6 1.5 1.5 0-1 .5-1.7 1.1-1.7.5 0 .8.4.5.9-.3.5.5 1.1 1.9 1.3 3.1.6 3.2-.5.3-1.9-4.8-2.3-5.7-2.3-5.3-.1zM504.074 393.9c-.8.4-1 1.5-.6 2.6.5 1.3.4 1.6-.4 1.1-1.9-1.1-1.4 3 .5 4.9 1.4 1.4 1.8 1.5 2.8.4.6-.8 1.9-1.9 3-2.5 2.2-1.2 2.9-3.3 1.7-5-1-1.5-5.4-2.5-7-1.5zM499.874 404.4c0 .2.7.6 1.5 1 .8.3 1.5.1 1.5-.4 0-.6-.7-1-1.5-1s-1.5.2-1.5.4zM493.074 407.8c.4 3.2 3.2 3.7 3.6.6.2-1.5-.3-2.3-1.8-2.7-1.8-.5-2.1-.2-1.8 2.1zM146.374 439c-.4.7-.2 1.6.6 2 1 .7.9 1.6-.6 4.9-2 4.5-2.6 4.9-4.5 2.6-1.1-1.3-1.4-1.3-2.6.2-1.8 2.4-1.7 3.1.4 3.7.9.3 3 1.7 4.7 3.1 2.2 2 3.6 2.4 5.5 1.9 1.4-.3 3.2-.7 4-.7 2.6 0 2.9-1.9.7-4.9-1.8-2.5-1.9-3-.7-3.9 1.1-.6 1.2-1.1.4-1.7-.6-.4-1.5-2.2-1.9-4-.3-1.7-1-3.2-1.5-3.2s-1.5-.3-2.3-.6c-.8-.3-1.8 0-2.2.6zM128.874 450.4c0 .2 1.1.6 2.5.8 1.3.3 2.2.1 1.9-.3-.5-.9-4.4-1.3-4.4-.5zM423.874 546c0 .6.7 1 1.5 1s1.5-.2 1.5-.4-.7-.6-1.5-1c-.8-.3-1.5-.1-1.5.4zM137.374 565.9c-.3.6-1 .9-1.5.6-.5-.3-1.1-.1-1.5.5-.3.5.3 1 1.4 1 2 0 3.8-1.7 2.8-2.6-.3-.3-.8 0-1.2.5zM158.374 599c2.7 2.8 5.5 3.5 5.5 1.5 0-1.8-2.5-3.6-5.5-4l-2.6-.2 2.6 2.7zM167.174 607.4c.7 1.3 1.5 2.2 1.9 2 .8-.5-1.3-4.4-2.3-4.4-.4 0-.2 1.1.4 2.4zM419.274 626c-.4 2.2-1 4-1.5 4s-.5.8-.2 1.7c.6 1.6.5 1.6-1 .4-1.4-1.1-1.8-1.1-2.3.3-.6 1.7-3.9 2.2-4.8.7-.9-1.5-5.5 0-6.1 2-.5 1.4-1.2 1.8-3 1.3-1.9-.5-2.4-.1-2.7 1.8-.3 2-.9 2.3-5 2.6-3.9.3-5.4 1-9.4 4.7-3.7 3.5-5.1 4.2-6.5 3.5-1.4-.8-1.9-.6-2.4 1-.6 1.9-1.6 2.4-4.2 2.1-.7-.1-1.3.5-1.3 1.4 0 2.3-5.7 2-6.9-.4-.8-1.5-6.9-3.4-10.1-3.2-1.2.1-.6 4 .6 4.5 1.6.6 1.9 6.6.4 6.6-.5 0-1 1.6-1 3.5 0 2.7-.6 3.8-2.7 5-5.2 2.8-7.7 5.5-6.5 6.7 1.6 1.6 1.5 2.3-.5 4.4-1.7 1.7-1.7 1.7-.1 1.1 1.9-.7 3.4.8 1.8 1.8-.7.4-.7 1.2 0 2.5.8 1.6 2.1 1.8 8.5 1.6 5.2-.1 7.9.2 8.7 1.1.6.7 1.6 1.3 2.3 1.3.8 0 2.6.6 4.2 1.4 7.5 3.8 8.3 4 9.5 2.8 1.6-1.6 3.8-1.5 3.8 0 0 1.9 4.3 3.6 6.7 2.7 1.4-.5 2.2-2 2.7-4.7.3-2.2 1.3-4.2 2.1-4.6 1-.4 1.5-1.6 1.3-3.3-.2-1.7.2-2.8 1-2.8 1.8 0 1.9-1.2.1-3.3-1.8-2.1-3.1-8.2-1.8-8.2.5 0 2.5.9 4.6 2.1 2.4 1.3 3.9 1.7 4.1 1 .2-.6 1-1.1 1.8-1.1s1.4-.5 1.4-1.2c0-.6.9-.3 2.1.8 2.3 2.1 11.1 2.4 11.7.5.2-.6 1-1.1 1.8-1.1 1.9 0 1.3-4.2-.8-5.8-1.1-.8-1.5-2.1-1.2-3.8.3-1.6.1-2.3-.6-1.9-.5.3-1-.1-1-1s1.6-2.5 3.5-3.6c1.9-1.2 3.5-2.4 3.6-2.7 0-.4.2-1.8.3-3 .2-1.3.8-2.7 1.4-3.1.7-.4.8-1.2.2-2.1-1.1-1.8-.2-8.4 1.6-11.8 1-2.1 1-2.7-.2-3.9-.8-.8-1.4-2.3-1.4-3.3 0-1.8-1.9-3-4.6-3-.8 0-1.6 1.5-2 4zM321.674 660.7c.7.3 1.6.2 1.9-.1.4-.3-.2-.6-1.3-.5-1.1 0-1.4.3-.6.6z"/><path d="M403.174 679.3c-1.3.5-2.3 1.4-2.3 1.9 0 1.3 3.7.9 4.9-.6 1.6-1.9.1-2.6-2.6-1.3zM149.474 679.8c-1.1 1-.6 4 .9 5.2 1.8 1.5 2 3.4.3 2.4-.7-.5-.9-.2-.6.7 1.8 4.8 1.8 5.6 0 5.4-.9 0-2.3-.4-2.9-.8-.7-.5-.5.5.4 2.2 1.4 2.3 2 2.7 3.1 1.8 2.3-1.8 3-4.9 2-8.9-.5-2.4-.4-4.6.2-5.7.7-1.5.6-2-1-2.4-1-.3-2.1-.2-2.4.1zM397.274 686.8l-2.1 1.7 2 3.3 2 3.4 1.6-2.6c.9-1.4 1.9-2.6 2.3-2.6 1.5 0 .8-3.8-.8-4.4-2.2-.8-2.6-.7-5 1.2zM180.874 688.1c0 .5.5.7 1 .4.6-.3 1-.8 1-1.1 0-.2-.4-.4-1-.4-.5 0-1 .5-1 1.1zM379.874 699.4c0 .7.9 1.6 2 1.9 1.3.3 1.8.1 1.3-.6-.4-.7.8 0 2.6 1.5 3.9 3.3 5.6 3.6 4.1.8-.6-1.1-1.7-2-2.4-2-.8 0-1.6-.6-1.9-1.3-.7-1.8-5.7-2-5.7-.3zM398.874 700.9c0 .5.5 1.3 1 1.6.6.3 1 .2 1-.4 0-.5-.4-1.3-1-1.6-.5-.3-1-.2-1 .4zM150.674 705.5c.5 4.1 2.2 3.7 2.2-.6 0-1.7-.5-2.9-1.3-2.9-.9 0-1.2 1.1-.9 3.5zM146.374 710c.3.5 1.4 1 2.3 1 1.5 0 1.5-.2.2-1-2-1.3-3.3-1.3-2.5 0zM139.274 712c-.5.5-3.2 1.1-5.8 1.2-7.4.2-11.2 1.8-10.8 4.5.5 3.1 5.2 3.3 5.2.3 0-2.7 5-2.8 5.7-.1.4 1.6.9 1.7 3.8.8 1.8-.5 3.9-2 4.5-3.2 1.8-3.3-.2-5.9-2.6-3.5zM145.474 715.7c-.6 1.4-.5 1.5.5.6.7-.7 1-1.5.7-1.8-.3-.3-.9.2-1.2 1.2zM147.974 715.6c0 1.1.3 1.4.6.6.3-.7.2-1.6-.1-1.9-.3-.4-.6.2-.5 1.3zM117.874 761c0 1.1.7 2 1.5 2 1.7 0 1.8-.2.9-2.4-.9-2.3-2.4-2-2.4.4zM29.874 770.9c0 .5.7 1.2 1.6 1.5 2.4.9 2.8.7 1.4-.9-1.4-1.7-3-2-3-.6zM35.474 772.3c.3 1 .9 1.5 1.2 1.2.3-.3 0-1.1-.7-1.8-1-.9-1.1-.8-.5.6zM34.074 775.9c.7.9 1.3 1.7 1.4 1.9.1.1.6-.4 1.3-1.2.9-1.1.7-1.5-1.4-1.8-2.2-.5-2.4-.3-1.3 1.1zM30.374 779.6c-1.1 1.1-2.1 2.6-2.2 3.3-.4 1.4 1.4 1.5 2.2.1.4-.6 1-.8 1.5-.5.4.2 1-.7 1.3-2 .6-3.3-.3-3.6-2.8-.9zM30.874 803.6c0 .8.5 1.2 1 .9.6-.4.8-1.1.5-1.6-.9-1.4-1.5-1.1-1.5.7zM20.474 809.8c-.3.5-3 1.3-6 1.6-3.9.5-5.3 1.1-5 2 .6 1.7-4.9 4-7.6 3.3-2.8-.7-2.5-.2 1.3 2 2.5 1.5 3.9 1.8 5.7 1.1 1.4-.5 3.5-.7 4.8-.5 1.4.3 2.2-.1 2.2-.9s1.1-1.4 2.5-1.4c1.8 0 2.5-.5 2.5-2 0-1 .7-2.3 1.6-2.8 1.3-.7 1.3-1 .1-2.1-.9-.7-1.8-.8-2.1-.3zM111.874 881.6c0 .8.5 1.2 1 .9.6-.3 1-1 1-1.6 0-.5-.4-.9-1-.9-.5 0-1 .7-1 1.6z"/></g></svg>