<?xml version="1.0" standalone="no"?>
<!DOCTYPE svg PUBLIC "-//W3C//DTD SVG 20010904//EN"
 "http://www.w3.org/TR/2001/REC-SVG-20010904/DTD/svg10.dtd">
<svg version="1.0" xmlns="http://www.w3.org/2000/svg"
 width="750.541638pt" height="300.807174pt" viewBox="0 0 750.541638 300.807174"
 preserveAspectRatio="xMidYMid meet">
<metadata>
Created by potrace 1.15, written by Peter Selinger 2001-2017
</metadata>
<g transform="translate(-627.160473,1121.903561) scale(0.100000,-0.100000)"
fill="#222222" stroke="none">
<path d="M8783 11208 c-10 -17 -11 -30 -1 -50 11 -22 0 -48 -21 -48 -14 -1
-14 -2 2 -14 9 -7 17 -18 17 -23 0 -10 8 -14 64 -32 11 -4 21 -17 23 -30 2
-14 8 -30 14 -37 7 -8 5 -17 -6 -27 -8 -9 -15 -20 -15 -26 0 -21 -19 -11 -49
27 -16 21 -49 51 -73 67 -24 16 -53 38 -65 48 -13 12 -29 17 -40 13 -13 -4
-26 1 -38 14 -21 24 -56 11 -48 -18 3 -12 -9 -28 -37 -51 -37 -30 -44 -32 -72
-22 -39 14 -38 14 -32 -4 4 -8 1 -15 -5 -15 -18 0 -24 26 -11 49 9 17 8 21 -6
21 -11 0 -14 -5 -10 -16 5 -14 1 -16 -33 -11 -21 2 -43 1 -48 -4 -13 -13 -53
1 -53 20 0 11 -9 17 -26 19 -15 1 -33 7 -39 12 -9 8 -15 6 -19 -6 -4 -10 -1
-21 6 -25 20 -13 16 -93 -6 -117 -10 -12 -16 -27 -13 -34 2 -7 -3 -25 -12 -41
-13 -24 -20 -27 -49 -22 -19 3 -38 7 -42 10 -11 7 -21 -40 -13 -61 5 -14 2
-16 -19 -11 -21 6 -27 3 -31 -14 -4 -15 -11 -20 -21 -16 -10 4 -16 1 -16 -8 0
-8 6 -15 14 -15 8 0 16 -13 18 -30 3 -22 0 -30 -10 -30 -12 0 -13 -10 -8 -50
5 -41 4 -50 -8 -50 -9 0 -18 -12 -22 -27 -3 -16 -9 -37 -14 -48 -5 -11 -11
-41 -15 -67 -5 -42 -10 -48 -38 -57 -38 -13 -77 -68 -77 -109 0 -18 -10 -36
-30 -54 -16 -14 -30 -23 -30 -20 0 4 -7 -1 -15 -12 -9 -12 -11 -25 -5 -41 8
-20 6 -24 -13 -27 -28 -4 -34 -34 -12 -58 12 -14 23 -16 38 -11 19 7 22 15 19
60 -2 31 1 51 8 51 5 0 10 -13 10 -30 0 -16 5 -30 11 -30 5 0 9 -10 7 -22 -2
-11 3 -23 10 -25 6 -3 12 2 12 11 0 18 5 18 35 7 11 -5 32 -5 46 -1 16 5 31 4
37 -2 14 -14 52 0 52 19 0 11 5 13 18 7 26 -11 85 -5 101 11 13 13 17 12 36
-4 43 -40 93 -61 121 -51 14 6 29 8 33 5 9 -5 31 38 31 60 0 8 12 22 26 32 22
14 29 14 46 4 18 -11 25 -8 60 26 35 34 39 42 35 75 -5 34 -3 36 27 41 17 2
46 11 64 18 30 13 37 12 72 -9 46 -26 63 -27 80 -7 7 8 23 15 36 15 14 0 25 8
29 20 7 22 30 27 41 9 5 -8 9 -8 14 1 11 18 72 -19 65 -39 -9 -24 37 -81 66
-81 15 0 32 -7 39 -15 7 -8 18 -15 25 -15 7 0 18 7 25 15 29 34 80 1 57 -36
-9 -14 -6 -28 13 -66 24 -48 30 -110 12 -122 -5 -3 -14 -16 -20 -28 -7 -12
-22 -23 -34 -26 -21 -3 -22 -4 -4 -12 11 -5 26 -4 37 3 25 16 26 15 32 -8 5
-19 27 -29 27 -12 0 5 23 8 50 6 28 -1 50 1 50 6 0 4 12 11 28 15 15 3 34 12
42 19 23 20 48 26 53 13 2 -6 19 -12 38 -12 23 0 34 -5 34 -15 0 -8 9 -20 20
-26 22 -13 85 -7 85 7 0 5 23 9 50 9 35 0 50 -4 50 -13 0 -20 150 -1 166 21
11 15 14 15 33 -2 19 -17 21 -17 21 -2 0 31 102 50 128 24 9 -9 17 -8 37 2 20
11 29 11 49 1 26 -14 46 -8 46 13 0 18 44 36 60 26 8 -5 21 -5 30 0 9 5 23 4
32 -1 13 -7 18 -3 23 21 7 33 -10 54 -67 85 -30 17 -34 25 -17 42 8 8 8 13 0
17 -6 4 -11 23 -11 41 0 27 -6 38 -27 50 -62 33 -113 101 -113 149 0 7 -18 31
-39 53 -39 39 -61 92 -61 149 0 33 -39 79 -68 79 -9 0 -16 6 -15 13 2 6 -2 12
-7 12 -13 0 -13 33 0 46 14 14 -35 90 -72 108 -17 9 -41 16 -54 16 -17 0 -25
9 -34 35 -11 35 -43 62 -67 57 -7 -2 -13 4 -13 12 0 8 -28 28 -63 45 -63 31
-97 69 -97 108 0 26 -33 55 -53 47 -9 -3 -39 2 -66 11 -28 9 -56 13 -63 8 -17
-10 -49 -4 -69 13 -14 13 -18 12 -33 -10 -9 -14 -16 -30 -16 -36 0 -7 -16 -10
-40 -9 -35 3 -44 -1 -64 -25 -19 -25 -26 -28 -52 -21 -16 5 -33 10 -39 10 -55
8 -98 46 -77 67 12 12 4 41 -8 33 -5 -3 -25 4 -45 15 -42 23 -51 25 -62 8z"/>
<path d="M8116 11135 c4 -8 8 -15 10 -15 2 0 4 7 4 15 0 8 -4 15 -10 15 -5 0
-7 -7 -4 -15z"/>
<path d="M8145 11130 c-4 -7 0 -19 9 -28 21 -21 27 -12 12 17 -9 17 -15 20
-21 11z"/>
<path d="M12746 10543 c-4 -4 -11 -8 -14 -8 -49 -4 -101 -18 -96 -27 10 -15
-27 -90 -42 -84 -7 3 -15 -2 -18 -10 -8 -20 -63 -18 -76 4 -9 15 -10 15 -8 0
2 -9 0 -17 -4 -17 -35 -3 -38 0 -31 26 l6 28 -34 -26 c-32 -25 -37 -26 -62
-13 -15 8 -27 10 -27 5 0 -5 -17 -15 -37 -22 l-37 -12 37 -16 c20 -8 38 -24
42 -36 3 -11 20 -37 39 -57 31 -36 37 -38 110 -44 51 -4 81 -2 90 6 9 7 16 7
20 1 4 -6 13 -8 21 -4 9 3 21 0 29 -6 7 -6 16 -8 20 -4 3 4 28 -15 55 -41 32
-32 51 -44 56 -36 4 7 17 9 32 5 14 -3 31 -1 39 6 11 9 18 8 33 -5 10 -9 25
-14 34 -11 30 12 27 47 -10 114 -22 41 -31 67 -24 69 6 2 9 8 5 13 -3 5 1 9 9
9 8 0 26 9 41 21 20 16 25 26 20 43 -7 21 -6 21 14 2 21 -18 21 -18 18 17 -2
23 -16 50 -40 79 -34 39 -37 41 -31 16 8 -33 -6 -37 -33 -10 -11 11 -34 17
-62 18 -25 0 -52 4 -61 8 -8 4 -19 3 -23 -1z"/>
<path d="M12151 10492 c-1 -9 -11 -11 -34 -7 -30 6 -36 3 -59 -27 -14 -18 -24
-40 -23 -48 2 -9 -8 -21 -21 -27 -18 -8 -24 -8 -24 1 0 6 -9 12 -20 12 -15 0
-20 -7 -20 -28 0 -21 4 -26 16 -21 15 6 15 4 0 -18 -15 -24 -15 -25 17 -41 17
-9 44 -19 60 -22 19 -5 27 -13 27 -27 0 -15 5 -19 16 -15 9 3 17 6 20 6 2 0 1
6 -2 14 -3 9 3 17 16 21 12 4 19 12 17 19 -4 9 2 11 19 8 29 -5 30 7 4 41
l-21 26 21 11 c11 6 18 16 14 22 -4 5 -10 33 -14 62 -4 28 -8 45 -9 38z m-126
-122 c3 -5 1 -10 -4 -10 -6 0 -11 5 -11 10 0 6 2 10 4 10 3 0 8 -4 11 -10z"/>
<path d="M6856 10481 c-3 -5 1 -14 9 -21 13 -10 15 -9 15 9 0 21 -14 28 -24
12z"/>
<path d="M6886 10412 c-3 -5 3 -17 14 -27 23 -21 26 -9 6 18 -8 10 -17 14 -20
9z"/>
<path d="M6565 10350 c10 -11 27 -22 39 -26 11 -3 29 -14 39 -23 17 -15 20
-14 33 4 8 10 14 21 14 25 0 11 -81 40 -112 40 -30 0 -31 0 -13 -20z"/>
<path d="M12264 10345 c-6 -13 -8 -29 -3 -36 6 -10 11 -5 19 15 13 36 -1 54
-16 21z"/>
<path d="M6950 10332 c0 -10 -5 -23 -12 -30 -9 -9 -9 -12 0 -12 7 0 12 5 12
11 0 6 7 9 15 5 11 -4 15 1 15 19 0 16 -6 25 -15 25 -8 0 -15 -8 -15 -18z"/>
<path d="M11880 10322 c-15 -7 -23 -52 -10 -52 4 0 12 -11 18 -25 10 -21 8
-26 -16 -44 -15 -10 -38 -21 -52 -22 -14 -2 -31 -11 -38 -19 -12 -13 -13 -12
-9 6 3 13 -3 25 -14 32 -16 10 -20 8 -25 -14 -5 -19 -2 -29 9 -35 10 -6 16
-23 15 -50 0 -30 5 -44 20 -55 45 -31 66 -64 42 -64 -14 0 -47 -72 -42 -92 2
-12 14 -18 35 -19 57 -2 107 2 139 11 30 9 65 -1 79 -23 4 -5 9 -4 14 3 4 7
-1 13 -13 17 -16 4 -22 15 -24 42 -3 31 -7 36 -30 39 -32 4 -32 3 -16 37 8 18
8 29 1 36 -12 12 -6 87 8 105 5 6 4 39 -2 75 -14 92 -13 91 -48 71 -16 -9 -33
-14 -36 -10 -12 12 5 28 30 28 12 0 25 7 29 15 4 11 -2 15 -22 14 -15 0 -34
-3 -42 -7z"/>
<path d="M12233 10283 c-9 -3 -10 -10 -3 -24 13 -23 26 -25 33 -5 7 17 -13 35
-30 29z"/>
<path d="M12175 10270 c3 -5 13 -10 21 -10 8 0 14 5 14 10 0 6 -9 10 -21 10
-11 0 -17 -4 -14 -10z"/>
<path d="M6958 10253 c0 -10 -2 -24 -2 -32 -2 -19 -42 -32 -86 -27 -37 5 -38
4 -44 -34 -3 -21 -14 -45 -24 -52 -24 -17 -33 -43 -19 -57 6 -6 33 -11 60 -11
44 0 48 2 42 20 -5 15 -2 20 14 20 32 0 50 11 44 26 -3 8 2 23 12 34 9 10 14
24 10 30 -5 7 0 11 11 9 11 -2 32 0 47 4 l28 8 -41 39 c-47 46 -49 46 -52 23z"/>
<path d="M6640 10210 c0 -12 26 -31 33 -23 12 11 7 21 -13 26 -11 3 -20 2 -20
-3z"/>
<path d="M7010 10146 c0 -9 5 -16 10 -16 6 0 10 4 10 9 0 6 -4 13 -10 16 -5 3
-10 -1 -10 -9z"/>
<path d="M6680 10140 c0 -10 19 -25 43 -33 29 -11 19 11 -13 27 -16 8 -30 11
-30 6z"/>
<path d="M12961 10113 c7 -12 15 -20 18 -17 3 2 -3 12 -13 22 -17 16 -18 16
-5 -5z"/>
<path d="M6724 10082 c3 -5 -5 -17 -18 -26 -23 -15 -25 -14 -31 4 -4 12 -15
20 -28 20 -20 -1 -19 -3 11 -30 18 -17 38 -30 46 -30 15 0 16 -86 1 -110 -5
-8 -9 -43 -7 -77 1 -42 -3 -66 -13 -76 -10 -11 -11 -17 -2 -26 8 -8 8 -11 -1
-11 -7 0 -12 -7 -12 -15 0 -8 -9 -15 -20 -15 -24 0 -24 2 0 -60 16 -41 18 -54
8 -69 -9 -15 -9 -26 0 -45 10 -22 9 -26 -10 -31 -16 -6 -19 -13 -14 -36 3 -18
1 -29 -5 -29 -8 0 -8 -4 0 -14 24 -29 32 -79 15 -103 -8 -14 -12 -33 -9 -44 8
-24 -44 -149 -61 -149 -20 0 -66 -50 -60 -65 4 -10 -3 -17 -22 -20 -45 -9 -77
-29 -80 -50 -7 -51 -13 -65 -27 -65 -20 0 -42 -37 -50 -82 -4 -21 -13 -38 -20
-38 -9 0 -8 -9 4 -34 17 -38 53 -63 83 -58 22 4 24 -14 2 -26 -12 -7 -13 -13
-4 -34 9 -18 9 -31 2 -45 -12 -22 -6 -35 23 -51 15 -8 24 -7 37 5 15 14 16 13
11 -9 -7 -29 -30 -48 -60 -48 -16 0 -21 4 -17 15 5 11 2 13 -11 9 -14 -6 -15
-9 -2 -21 12 -12 10 -18 -15 -45 -15 -16 -28 -38 -28 -47 0 -9 -10 -22 -21
-29 -19 -12 -21 -20 -15 -65 6 -45 6 -49 -9 -37 -8 7 -18 11 -20 8 -11 -10 7
-36 33 -49 44 -22 45 -22 38 -10 -5 7 1 11 13 11 14 0 19 5 15 15 -4 9 0 15
10 15 9 0 16 6 16 14 0 9 7 12 19 9 11 -3 17 -11 15 -18 -10 -25 16 -26 28 -1
6 14 14 27 17 27 27 6 51 5 51 -2 0 -5 3 -8 8 -8 4 1 14 1 22 -1 11 -1 9 -4
-5 -10 -16 -7 -13 -9 17 -9 29 -1 38 4 43 19 4 12 14 20 23 19 32 -3 36 1 16
16 -19 15 -19 15 1 31 20 15 20 16 -9 40 -30 26 -26 44 10 46 13 1 19 10 20
29 1 33 93 144 127 155 12 4 27 14 33 22 7 9 21 13 36 10 20 -4 28 2 47 34 17
29 19 43 11 57 -14 27 -13 31 8 31 9 0 32 9 50 20 25 16 32 25 27 40 -5 15 0
22 19 30 21 8 26 16 26 45 0 24 5 35 15 35 17 0 21 63 6 103 -9 22 -7 24 12
19 20 -5 21 -4 7 13 -11 14 -12 19 -2 22 18 7 14 20 -8 26 -26 7 -26 23 1 30
17 5 20 11 15 31 -5 22 -3 26 16 26 18 0 26 9 36 40 6 22 12 46 12 54 0 19 47
49 56 35 3 -6 20 -9 36 -7 19 3 32 0 35 -8 6 -15 -47 -84 -64 -84 -7 0 -13 -4
-13 -9 0 -5 -8 -12 -18 -15 -16 -5 -18 -14 -14 -60 4 -50 3 -54 -21 -59 -19
-5 -24 -12 -22 -32 2 -14 -4 -40 -13 -58 -9 -17 -15 -42 -13 -54 1 -14 -3 -23
-11 -23 -7 0 -4 -6 7 -12 11 -6 26 -20 33 -30 7 -10 18 -18 23 -18 6 0 17 -7
25 -15 21 -21 57 -19 71 3 8 13 20 18 40 15 23 -3 32 2 49 29 14 23 19 40 14
54 -12 30 0 74 19 74 20 0 43 34 35 54 -3 8 -1 23 5 33 8 15 6 23 -9 35 -10 9
-21 14 -23 11 -10 -10 -57 73 -57 100 0 16 -9 40 -20 54 -20 26 -29 89 -10 78
6 -3 10 -19 10 -35 0 -30 14 -40 61 -40 18 0 29 5 29 14 0 8 9 18 20 21 11 3
20 11 20 16 0 5 6 9 14 9 8 0 16 5 18 11 2 7 17 7 48 -1 59 -15 77 -14 96 4 8
9 24 16 34 16 13 0 17 5 13 20 -4 16 -2 19 11 14 10 -4 25 1 35 10 21 19 32
10 50 -35 12 -34 -1 -53 -33 -47 -14 3 -23 1 -20 -3 3 -5 18 -9 34 -9 25 0 32
7 50 47 11 26 19 52 16 59 -3 7 8 17 25 23 17 6 28 15 25 20 -4 5 -1 22 4 37
9 23 7 33 -15 66 -22 33 -31 39 -51 34 -13 -4 -32 -1 -43 6 -15 9 -23 9 -35
-1 -9 -8 -16 -19 -16 -27 0 -7 -5 -16 -10 -19 -15 -9 -50 4 -50 20 0 17 -52
55 -75 55 -28 0 -15 43 14 45 14 1 31 12 39 23 8 12 21 22 28 22 21 0 17 53
-5 67 -11 7 -20 27 -23 47 -2 19 0 33 4 30 4 -2 12 4 17 15 8 14 7 22 -4 31
-8 7 -15 19 -15 26 0 8 -3 14 -6 14 -12 0 -49 -24 -57 -37 -5 -9 -17 -11 -35
-6 -24 6 -26 5 -13 -10 15 -19 3 -42 -28 -52 -18 -5 -41 -57 -41 -93 0 -18 -6
-22 -30 -22 -20 0 -30 -5 -30 -15 0 -8 -4 -15 -10 -15 -5 0 -10 -9 -10 -20 0
-10 -8 -23 -17 -29 -14 -8 -15 -12 -4 -25 11 -13 11 -19 1 -31 -18 -22 -30 -9
-24 25 5 25 2 31 -27 46 -19 9 -55 40 -81 68 -38 40 -48 58 -48 86 0 19 -4 30
-8 24 -8 -12 -40 -12 -60 0 -7 4 -27 2 -43 -4 -23 -10 -33 -10 -42 -1 -6 6
-23 11 -37 11 -15 0 -35 9 -44 19 -17 18 -17 19 1 24 20 4 9 11 -38 21 -14 3
-41 19 -60 36 -19 16 -42 30 -52 30 -11 0 -21 8 -24 18 -2 10 -13 24 -25 31
-11 7 -17 8 -14 3z m592 -588 c-3 -8 -10 -14 -16 -14 -14 0 -13 27 2 53 l13
22 3 -23 c2 -13 1 -30 -2 -38z m-111 -54 c3 -6 -1 -7 -9 -4 -18 7 -21 14 -7
14 6 0 13 -4 16 -10z m-41 -73 c-3 -8 -11 -14 -19 -14 -18 0 -20 13 -2 20 21
9 27 7 21 -6z m-25 -26 c10 -6 10 -10 1 -16 -7 -4 -19 0 -28 9 -14 13 -14 16
-2 16 8 0 21 -4 29 -9z"/>
<path d="M13060 10056 c0 -2 7 -7 16 -10 8 -3 12 -2 9 4 -6 10 -25 14 -25 6z"/>
<path d="M7625 10040 c3 -5 11 -10 16 -10 6 0 7 5 4 10 -3 6 -11 10 -16 10 -6
0 -7 -4 -4 -10z"/>
<path d="M13097 10019 c13 -13 -10 -64 -34 -73 -14 -6 -12 -10 12 -22 16 -8
39 -13 51 -10 26 7 38 42 17 50 -8 3 -12 10 -8 16 9 15 -13 50 -32 50 -12 0
-14 -3 -6 -11z"/>
<path d="M13268 10017 c-12 -9 -14 -17 -7 -30 8 -14 6 -17 -10 -17 -25 0 -36
-16 -16 -24 8 -3 15 -1 15 5 0 6 5 7 12 3 6 -4 24 -8 39 -8 21 -1 26 3 24 19
-2 21 -26 65 -35 65 -3 0 -12 -6 -22 -13z"/>
<path d="M7740 9990 c6 -11 16 -20 22 -20 6 0 3 9 -7 20 -10 11 -20 20 -22 20
-2 0 1 -9 7 -20z"/>
<path d="M10376 9932 c6 -20 26 -48 43 -62 26 -23 28 -27 14 -36 -12 -7 -17
-26 -17 -61 -1 -28 -5 -49 -9 -46 -5 3 -5 -3 1 -13 5 -11 7 -39 5 -64 -9 -107
-7 -104 -45 -115 -34 -10 -35 -11 -21 -32 9 -13 21 -23 27 -23 6 0 23 -7 39
-14 23 -13 27 -13 27 0 0 8 -6 14 -12 15 -7 0 -4 4 7 9 13 5 30 2 51 -10 23
-13 48 -17 97 -15 65 3 65 3 79 -28 7 -18 12 -36 10 -41 -6 -19 29 -57 47 -51
12 3 21 0 25 -10 3 -8 17 -15 31 -15 14 0 28 -7 31 -15 4 -8 12 -15 18 -15 17
0 43 -59 41 -92 -1 -15 -9 -36 -19 -47 -12 -14 -14 -20 -5 -23 8 -3 10 -11 6
-22 -4 -10 -12 -14 -19 -11 -7 4 3 -9 23 -27 21 -18 45 -49 54 -68 23 -46 22
-45 40 -30 14 11 17 10 22 -8 5 -23 37 -30 48 -12 3 6 17 10 31 10 17 0 24 5
24 20 0 17 7 20 43 20 24 0 48 -5 53 -10 15 -15 44 -1 44 20 0 10 -7 20 -15
24 -8 3 -15 16 -15 29 0 14 -7 30 -15 37 -9 7 -15 20 -13 29 4 28 -14 65 -48
104 -35 38 -45 59 -19 37 24 -20 18 6 -9 35 -13 14 -27 42 -30 63 -11 60 -16
72 -32 72 -22 0 -67 49 -60 66 3 8 -1 17 -9 21 -10 3 -12 9 -7 17 5 6 12 28
15 48 4 29 2 38 -11 42 -12 4 -17 17 -17 38 0 32 -2 33 -45 38 -85 10 -152 79
-154 158 -1 44 -21 74 -21 32 0 -11 -4 -19 -10 -19 -16 2 -39 10 -56 19 -10 5
-21 4 -27 -2 -6 -6 -20 -4 -42 7 -17 9 -39 14 -47 11 -8 -3 -27 3 -43 14 -30
22 -50 26 -50 10 0 -5 -15 -1 -33 9 l-34 19 13 -36z"/>
<path d="M7780 9938 c0 -21 26 -43 35 -28 3 6 11 8 16 5 5 -4 9 -1 9 4 0 6 -8
11 -18 11 -10 0 -23 5 -30 12 -9 9 -12 8 -12 -4z"/>
<path d="M13400 9878 c0 -9 9 -26 20 -39 19 -23 19 -23 20 -3 0 11 -9 29 -20
39 -17 15 -20 16 -20 3z"/>
<path d="M11830 9832 c0 -5 7 -13 16 -16 10 -4 14 -1 12 6 -5 15 -28 23 -28
10z"/>
<path d="M12083 9813 c4 -27 14 -40 35 -45 16 -5 18 -1 13 26 -5 22 -13 32
-29 34 -17 3 -21 -1 -19 -15z"/>
<path d="M12420 9821 c0 -6 4 -13 10 -16 6 -3 7 1 4 9 -7 18 -14 21 -14 7z"/>
<path d="M13460 9745 c7 -19 6 -26 -8 -34 -25 -14 -7 -25 18 -11 16 9 19 15
11 23 -6 6 -11 19 -11 29 0 10 -4 18 -10 18 -6 0 -6 -9 0 -25z"/>
<path d="M13210 9746 c0 -11 -7 -24 -16 -30 -14 -11 -13 -17 10 -59 23 -44 24
-50 11 -81 -13 -30 -12 -35 4 -52 17 -18 17 -20 -6 -42 -18 -17 -28 -20 -41
-12 -9 5 -13 10 -9 10 18 0 -23 30 -42 30 -18 0 -21 -6 -21 -39 0 -30 6 -42
24 -54 20 -13 27 -14 50 -2 23 12 27 12 36 -6 6 -10 8 -19 4 -19 -3 0 -2 -6 4
-13 9 -10 7 -19 -4 -35 -14 -20 -12 -26 9 -23 7 1 8 -2 11 -31 0 -7 11 -17 22
-23 33 -17 54 -36 51 -48 -1 -7 7 -12 17 -12 11 0 21 -5 23 -12 4 -12 -31 -36
-40 -27 -3 3 -10 -4 -16 -15 -9 -16 -8 -27 3 -50 8 -15 12 -32 8 -36 -4 -3 -2
-5 3 -4 6 2 20 0 33 -5 26 -9 31 -51 6 -60 -25 -9 13 -54 42 -48 24 4 41 42
19 42 -8 0 -14 8 -14 18 1 9 -2 27 -6 38 -5 17 0 26 24 40 30 18 41 47 21 59
-12 7 20 45 38 45 12 0 12 3 2 15 -7 8 -17 15 -22 15 -17 0 -68 41 -63 50 3 5
1 11 -5 15 -5 3 -10 11 -10 17 0 6 11 2 23 -11 13 -12 30 -19 38 -16 8 2 19 1
25 -3 17 -11 39 -55 36 -72 -2 -10 0 -11 5 -4 10 15 103 15 103 0 1 -6 10 -22
20 -35 20 -23 20 -23 48 -5 15 10 30 18 33 17 3 -1 16 29 29 68 l24 70 -46 47
c-25 26 -58 71 -72 100 -15 28 -31 52 -37 52 -5 0 -21 11 -33 24 -13 12 -31
26 -41 29 -9 4 -13 12 -9 18 4 8 3 9 -4 5 -7 -4 -23 4 -36 17 -14 14 -27 20
-29 14 -2 -6 -6 -3 -10 6 -3 9 -2 17 4 17 6 0 7 5 4 10 -3 6 -11 10 -16 10 -6
0 -7 -4 -4 -10 3 -5 -1 -10 -9 -10 -9 0 -16 12 -18 33 -2 19 -8 31 -15 30 -7
-2 -13 5 -13 15 0 26 -60 46 -104 34 -23 -7 -38 -6 -45 1 -8 8 -11 6 -11 -7z
m250 -176 c0 -5 -4 -10 -10 -10 -5 0 -10 5 -10 10 0 6 5 10 10 10 6 0 10 -4
10 -10z m-100 -321 c0 -6 -4 -7 -10 -4 -5 3 -10 11 -10 16 0 6 5 7 10 4 6 -3
10 -11 10 -16z m24 -35 c3 -8 2 -12 -4 -9 -6 3 -10 10 -10 16 0 14 7 11 14 -7z"/>
<path d="M12136 9735 c-3 -8 -1 -15 4 -15 6 0 10 7 10 15 0 8 -2 15 -4 15 -2
0 -6 -7 -10 -15z"/>
<path d="M12450 9741 c0 -6 -9 -11 -20 -11 -16 0 -18 -4 -12 -22 12 -33 4 -55
-21 -62 -17 -4 -19 -8 -9 -18 6 -6 12 -17 12 -24 0 -17 -52 -74 -67 -74 -7 0
-28 -13 -46 -30 -19 -16 -40 -30 -46 -30 -6 0 -11 -9 -11 -21 0 -14 -5 -19
-14 -16 -10 4 -20 -7 -30 -34 -9 -21 -22 -39 -30 -39 -7 0 -21 -11 -30 -25 -9
-14 -27 -27 -40 -31 -13 -3 -26 -15 -29 -26 -4 -15 -11 -18 -26 -13 -16 5 -19
3 -15 -9 3 -8 12 -17 20 -20 8 -3 11 -12 7 -22 -3 -9 0 -20 7 -24 10 -6 8 -11
-7 -19 -16 -8 -24 -6 -38 9 -15 16 -15 22 -5 35 8 10 9 15 1 15 -6 0 -26 17
-45 38 -30 32 -37 35 -54 25 -11 -6 -23 -9 -26 -6 -3 3 -27 7 -53 8 -27 1 -59
6 -73 12 -21 10 -28 8 -42 -8 -12 -14 -33 -21 -67 -24 -57 -4 -91 -19 -91 -40
0 -11 -11 -15 -36 -15 -31 0 -36 -3 -31 -20 4 -16 0 -20 -19 -20 -15 0 -24 -6
-24 -15 0 -8 -4 -15 -9 -15 -4 0 -6 -12 -3 -26 5 -26 5 -26 -21 -9 -14 9 -30
14 -35 11 -6 -3 -26 1 -46 9 -35 15 -36 15 -33 -7 1 -17 -4 -24 -20 -26 -19
-3 -21 -7 -12 -28 5 -14 7 -29 5 -33 -3 -4 0 -8 7 -9 7 0 38 -5 70 -10 46 -7
60 -6 64 5 3 7 13 13 22 13 26 0 49 33 40 58 -8 20 -6 21 36 15 44 -6 56 2 34
24 -6 6 -9 20 -7 32 3 21 4 21 28 4 27 -19 51 -23 61 -9 4 4 33 -1 65 -13 38
-13 62 -17 69 -11 8 7 18 4 30 -10 10 -11 26 -20 36 -20 10 0 21 -9 24 -21 8
-25 61 -49 109 -49 19 0 38 -5 42 -11 3 -6 15 -9 25 -6 12 3 24 -4 34 -19 13
-21 21 -23 53 -19 27 5 46 0 72 -15 82 -48 100 -55 119 -43 13 8 23 7 41 -2
17 -9 30 -10 43 -3 13 7 22 7 29 0 7 -7 17 -4 31 9 11 10 27 19 34 19 12 0 17
15 16 48 -1 6 5 12 13 12 8 0 14 5 14 10 0 6 13 10 28 10 23 0 30 6 41 37 8
20 14 55 15 77 1 23 5 47 10 54 4 7 5 16 2 19 -13 14 27 63 69 83 41 20 59 40
35 40 -5 0 -10 12 -10 26 0 20 4 25 16 20 13 -5 15 -2 11 14 -4 17 -2 20 13
15 13 -4 19 1 25 22 3 15 11 31 17 34 18 11 -3 31 -28 26 -24 -4 -34 9 -34 44
0 10 5 19 12 19 9 0 9 3 1 11 -8 8 -20 9 -42 1 -23 -8 -31 -8 -31 1 -1 21 -48
67 -70 67 -11 0 -20 4 -20 9 0 5 -9 11 -20 14 -11 3 -28 19 -37 35 -10 17 -25
33 -33 36 -8 4 -21 9 -27 12 -7 3 -13 1 -13 -5z"/>
<path d="M12208 9723 c7 -3 16 -2 19 1 4 3 -2 6 -13 5 -11 0 -14 -3 -6 -6z"/>
<path d="M13512 9703 c-17 -3 -22 -9 -17 -21 4 -9 13 -30 19 -47 15 -40 30
-55 46 -45 11 7 10 18 -4 64 -10 31 -19 55 -19 55 -1 -1 -12 -4 -25 -6z"/>
<path d="M13565 9700 c-3 -5 1 -10 10 -10 9 0 13 5 10 10 -3 6 -8 10 -10 10
-2 0 -7 -4 -10 -10z"/>
<path d="M7950 9510 c-18 -4 -21 -8 -10 -12 17 -6 58 6 44 14 -5 3 -20 2 -34
-2z"/>
<path d="M8080 9460 c-13 -8 -12 -10 3 -10 9 0 17 5 17 10 0 12 -1 12 -20 0z"/>
<path d="M8020 9430 c8 -5 22 -10 30 -10 13 0 13 1 0 10 -8 5 -22 10 -30 10
-13 0 -13 -1 0 -10z"/>
<path d="M8036 9398 c4 -6 3 -13 -2 -17 -21 -15 -45 -75 -47 -116 -1 -37 4
-48 31 -74 36 -35 40 -36 66 -16 21 16 46 5 46 -20 0 -10 7 -11 33 -3 68 23
77 30 66 50 -5 10 -7 23 -4 28 4 6 -2 13 -12 16 -35 11 -62 27 -58 34 7 11
-82 117 -104 123 -13 3 -19 1 -15 -5z"/>
<path d="M8278 9194 c18 -9 32 -24 32 -34 0 -20 26 -34 35 -20 4 6 2 10 -4 10
-6 0 -13 11 -17 25 -3 14 -11 25 -18 25 -6 0 -22 3 -36 6 -20 4 -19 2 8 -12z"/>
<path d="M13532 9174 c2 -8 7 -14 12 -14 5 1 13 -4 17 -12 7 -10 9 -10 9 3 0
16 -19 39 -33 39 -5 0 -7 -7 -5 -16z"/>
<path d="M13750 9166 c0 -2 7 -9 15 -16 13 -11 14 -10 9 4 -5 14 -24 23 -24
12z"/>
<path d="M13297 9025 c6 -18 34 -16 41 3 2 7 -6 12 -22 12 -19 0 -24 -4 -19
-15z"/>
<path d="M10875 8936 c21 -31 11 -50 -21 -42 -14 4 -24 2 -24 -4 0 -17 76 -16
98 2 6 6 12 22 12 35 0 21 -4 24 -22 20 -12 -3 -30 -1 -40 4 -19 10 -19 9 -3
-15z"/>
<path d="M10885 8820 c3 -5 10 -10 16 -10 5 0 9 5 9 10 0 6 -7 10 -16 10 -8 0
-12 -4 -9 -10z"/>
</g>
</svg>
