<svg version="1" xmlns="http://www.w3.org/2000/svg" width="745.493" height="551.354" viewBox="0 0 559.12 413.515"><g fill="#222"><path d="M443.189 1c.3.5 1.3 1 2.1 1s1.4-.5 1.4-1c0-.6-.9-1-2.1-1-1.1 0-1.7.4-1.4 1zM448.389 4.9c.2.2-.9 1.4-2.2 2.7-2.9 2.6-3.1 3.4-1.1 3.4 2.7 0 2.9 2.2.5 4.1-1.4 1.1-1.8 1.9-1 1.9 1 0 1.1.3.3 1.3-.8.9-.5 1.9.8 3.7 2.3 2.9 2.5 6.7.7 9.5-.7 1.1-1.4 3.3-1.6 5-.1 1.6-.9 4-1.7 5.2-1.3 2.1-1.3 2.3.6 2.3 1.3 0 2-.7 2-2 0-2.2 1-2.6 2.8-.8.8.8 1.5.8 2.7-.2 1.3-1 1.8-1 3.3.2.9.8 2.8 2.1 4.2 3l2.5 1.5-.1-10.1c0-7.3-.5-11-1.7-13.3-1-1.8-1.7-3.9-1.7-4.8 0-.8-.7-1.5-1.5-1.5-.9 0-1.8-1.2-2.1-2.8-.3-1.5-1.8-4.1-3.2-5.7-1.5-1.7-2.6-2.8-2.5-2.6zM472.089 43.5c-1 .8-3.2 1.5-4.7 1.5-1.6 0-2.6.4-2.2.9.7 1.3 10.4 3.4 13.3 3 2.3-.4 2.3-.4.4-2.4-1-1.1-1.7-2.6-1.4-3.3.5-1.7-3-1.5-5.4.3zM479.189 52c-.3.6-.3 2 0 3.1.4 1.3.2 2.5-.4 2.9-.9.5-.8 1 .4 2 1.3 1.1 1.5.9 1.5-.9 0-2.7 2.9-2.8 6.1-.2 1.3 1 3.8 2.1 5.5 2.5 1.7.4 3.7 1.7 4.3 2.9.8 1.4 2.2 2.3 3.9 2.4 1.5.1 2-.1 1.2-.4-.8-.3-3.2-2.2-5.2-4.2-2.6-2.5-3.6-4.1-3.2-5.4.4-1.1-.1-2.4-1.3-3.2-2.4-1.9-3.3-1.8-3.3 0 0 2.1-1.3 1.9-3.5-.5-1.9-2.1-5-2.6-6-1zM401.189 58c-1.1.4-2.4.5-3 .2-.5-.3-.7-.1-.2.3 1 1.2-2.2 4.5-3.9 3.8-.8-.3-1.4 0-1.4.6 0 .7.7 1.4 1.5 1.7 2.4 1 1.7 3.8-1.4 5.7-3.5 2.1-3.6 2.1-5.5.1-.9-.8-1.6-1.1-1.6-.5 0 .5.5 1.3 1 1.6 1.8 1.1 1.1 3.5-1 3.5-1.1 0-2.3.7-2.6 1.5-.3.8-1.4 1.7-2.5 2-1 .4-1.9 1.5-1.9 2.5s-.4 2.1-.9 2.4c-.5.3-.7 1.5-.4 2.5.3 1 0 2.2-.6 2.5-.6.4-1.1 1.4-1.1 2.2 0 2.8 3.8-1.9 4.2-5.1.3-2.7.7-3 4.1-3.2 2.7-.1 4.3-.8 5.8-2.7 1.8-2.2 2.8-2.6 7.6-2.6 4.9 0 5.4-.2 4.3-1.5-1.8-2.2-.4-3.1 2.4-1.6 1.3.8 2.9 1 3.5.7.6-.4 2.3.2 3.7 1.3 3.6 2.8 5.2 2.6 9.8-1.3 3.4-2.9 3.7-3.5 2.7-5.5-1-1.9-.9-2.2 1.4-3.1 1.4-.5 2.5-1.5 2.5-2.1 0-.7-.7-.8-1.7-.4s-2.8 1-4 1.2c-1.3.3-2.3.9-2.3 1.3 0 .7-4.1.3-7-.7-.8-.3-3-.6-4.8-.8-3.6-.2-6.3-2.7-3.7-3.3.8-.2 1.5-.7 1.5-1.2 0-1.6-2.6-2.7-4.5-2z"/><path d="M510.989 71.8c-5.8 2.2-5.4 5.5.7 6.4 1.9.2 2.6 1 3 3.2.4 2.2 1.2 3.2 3.3 3.7 1.6.4 2.5.3 2.1-.2-.7-1.2.3-1.1 2.7.1 2.1 1.2 2.6 4.6.7 5.3-.8.3.2 1.8 2.6 4.1 3.8 3.6 5.3 4.5 4.1 2.6-.3-.6.1-.7.9-.4.9.3 1.6 1.1 1.6 1.6 0 .6.6 1.6 1.4 2.2 1.3 1 2.1 5.5 1.7 9.7 0 .9-1 1.9-2.2 2.2-1.5.4-1.9 1.1-1.5 2.4.6 2.1-.2 3.7-2.4 4.6-.8.3.8.6 3.7.6 6 .1 7.4 1.3 3.6 3-2.2 1-2.8 1-3.5-.3-.5-.9-1.7-1.6-2.7-1.6-1 0-2.5-.7-3.2-1.6-.7-.9-2.3-2-3.6-2.5-1.3-.5-2.3-1.5-2.3-2.3 0-.8-1-1.6-2.2-1.8-1.7-.2-2.2-.9-2-2.3.2-1.7.1-1.8-.8-.5-1 1.3-1.2 1.3-1.7 0-.3-.8-3.2-3.9-6.4-6.9-3.2-2.9-5.6-5.8-5.3-6.2.3-.5-1.1-1.8-3-3-1.9-1.1-3.8-2.9-4.1-3.9-.3-1-1.2-2.1-2-2.4-.8-.3-1.5-1.6-1.5-3 0-2.1-.6-2.5-5-3.1-2.7-.4-5.4-.4-6 0-.6.4-2.5.1-4.2-.6-2.7-1.1-3.2-1-4.4.6-1.4 1.8-1.5 1.8-5.4-.4-2.2-1.2-4.4-2-4.9-1.6-.5.3-1.2.1-1.6-.5-.3-.6-2.4-1.9-4.5-3-4.7-2.4-9.3-1.8-10.8 1.4-.5 1.2-2.1 2.7-3.5 3.5-2.2 1.2-2.7 1.1-4.6-.8-1.2-1.2-2.1-2.6-2.1-3.2 0-.6-.6-.9-1.4-.6-.8.3-2 0-2.6-.7-.9-1.2-6-2.9-6-2.1 0 .2.7 1.6 1.5 3.1.9 1.7 1.1 3 .5 3.2-.6.2-.4 1.3.5 2.5 1.3 1.8 1.3 2.3-.1 3.8-1.8 2-1 5.9 1.2 5.9.8 0 1.4.4 1.4.9s1.3 1.1 3 1.4c2.7.6 2.9.9 2 3.2-.5 1.3-.7 3.2-.4 4 .4.8 0 1.7-.9 2-1.1.5-1.3 1.7-.9 5.1.4 3.6.2 4.4-1.1 4.4s-1.6.9-1.3 4c.2 2.2 0 4.3-.5 4.6-.4.2-.6 1.1-.3 1.9.6 1.6-.9 3.5-4.2 5.3-2.2 1.2-7.7 1-10.7-.3-.9-.4-2.3-.2-3 .4-1 .8-1.7.7-2.5-.1-.8-.8-1.5-.8-2.6.1-.8.7-1.9 1-2.5.7-.5-.3-1.1-.3-1.3.1-.1.5-2.8 2-5.8 3.4-7 3.3-13.1 3.4-14.5.1-.5-1.2-1.5-2.2-2.2-2.2-.6 0-2-1.4-3-3-.9-1.7-2.1-3-2.6-3s-.5-.9-.2-2 .3-2.9 0-4c-.5-1.7-1.5-2-6-2-3.3 0-5.5-.5-5.8-1.3-.3-.7-.6-.5-.6.5-.1 2.2-2.6 2.3-6.3.4-2.6-1.4-2.9-1.3-4.7 1-1.1 1.4-2.2 2-2.6 1.4-.3-.5-2.2-1-4.1-1-2.3 0-3.4-.5-3.4-1.5 0-.8-.9-1.9-2-2.5-1.4-.8-2-.8-2 0 0 .6-.4.8-1 .5-.5-.3-1-1.7-1-3.1 0-1.3-.4-2.4-.9-2.4-1.2 0-1.1-5.9.1-6.6 1.3-.8-2.2-6.1-4.9-7.3-1.7-.8-2.3-1.9-2.3-4.1 0-1.8-.4-2.9-1-2.5-.5.3-1 .3-1-.2 0-.4-1.4-1.6-3-2.5l-3-1.7v4.7c0 2.7-.4 5.2-.9 5.7-.5.6-1.1 2.1-1.3 3.5-.2 2-.8 2.5-2.9 2.3-2.2-.1-2.8.4-3.2 2.6-.3 1.5-1.2 2.8-1.9 2.9-.7.1-2.8.4-4.7.7-2.4.3-4 0-5.2-1.1-1.6-1.5-1.7-1.4-1.2.8.3 1.2 1.4 3.2 2.4 4.3 1 1.1 1.8 2.3 1.7 2.8-.1 3.4 1.7 13.6 2.8 15.1 1 1.4 1.1 2.3.2 3.3-.8 1-.7 1.3.5 1.3 1.5 0 4.7 3.5 4.7 5.1 0 .4-.9.5-2 .2-2-.5-2.8 1.1-1.1 2.1.5.4.5 2.2.1 4.3-.5 2-.7 4.1-.4 4.5.3.4-.1.8-.9.8s-1.8 1.1-2.1 2.5c-.7 2.8-4.4 4.2-7.3 2.7-1-.5-2.3-.8-2.9-.5-.5.2-3.1-1.7-5.7-4.2-5-4.8-6.2-5.3-7-3.1-.3.7-2 1.6-3.8 2-1.8.3-4 1.3-4.9 2.1-1.5 1.4-2.1 1.3-5.3-.9-3.2-2.2-3.8-2.3-5.1-1-1.3 1.2-1.6 1.2-2.8-.4-1.9-2.6-4.5-3.4-5.2-1.5-.4.9-.9 1.3-1.3 1-.3-.3-1.8 0-3.4.8-1.5.8-3.7 1.5-4.9 1.5-1.3 0-2 .7-2 2 0 1.6-.7 2-3 2s-3 .5-3 1.9c0 2.3-1.6 3.7-2.2 2-.2-.7-1.9-1.3-3.7-1.4-3.9-.3-8.3-4.9-7.5-7.8.4-1.1-.4-2.8-1.9-4.3-1.6-1.6-2.3-3.2-2-4.4.5-1.8 0-2-4.3-2.2-2.7 0-5.7-.1-6.6 0-1.1.1-1.9-.9-2.3-2.8-.4-1.7-1.1-3-1.6-3s-.4 1.2.2 2.6c.5 1.5.6 3.6.2 4.8-.4 1.1-.7 2.5-.8 3.1 0 .5-1.6 1.4-3.5 2-2.6.7-3.6 1.6-3.8 3.5-.2 1.4-1.7 4.2-3.3 6.2-1.6 2-2.9 4.3-2.9 5 0 .7-1 1.8-2.2 2.3-2.1.9-2.3 1.6-2.1 7.7.1 5.3-.2 6.8-1.3 6.8-.8 0-1.7-.7-2-1.5-.5-1.2-.9-1.3-2-.4s-1.8.8-3.2-.3c-2.4-2-12.3-4.3-13.1-3-.4.7-10.2 3.2-12.8 3.2-.2 0-.3 1.4-.3 3.1 0 1.7-.6 3.7-1.4 4.4-.7.8-1.6 3.2-2 5.5-.4 2.4-1.7 5.2-3.2 6.7-1.5 1.5-2.4 3.3-2.1 4.4.3 1 0 2-.7 2.3-.6.2-.4.5.5.5 1.2.1 1.8 1.3 2.1 4.1.3 3.6.1 4-1.9 4-1.3 0-2.3-.6-2.3-1.4 0-.8-.7-1.6-1.5-2-.8-.3-1.5-.1-1.5.4s-1.7.8-3.7.7c-2.9-.1-3.8.2-4.1 1.5-.3 1.4.3 1.8 2.7 1.8 2.7 0 3.4.6 5.4 4.7 1.2 2.7 2.6 5.1 3 5.4.5.3.9 1 .9 1.5s.5 2 1 3.4c1.2 3.1-.2 5.5-3.1 5.4-1.1 0-2.1.5-2.1 1.3 0 1.8-.7 1.6-3-.7-1.1-1.1-2.3-3.4-2.7-5-.6-3.2-2.9-5.7-4.1-4.6-.4.4-.7 1.1-.7 1.6 0 1.6-6.9 9-8.3 9-1.2 0-1.2-.3-.2-1.5 1.1-1.3.9-1.9-.8-3.6-1.2-1.1-2.2-2.6-2.2-3.3 0-.7-1-1.8-2.3-2.5-3.1-1.6-7.9-9.8-7.2-12.1.3-1 .1-2.1-.4-2.5-.6-.3-2.2-2.9-3.6-5.8-3.5-7-5.4-9-7.1-7.6-.7.6-1.9.7-2.6.3-.7-.4-.4.2.6 1.4 1.5 1.7 2.2 2 3.3 1 1.8-1.5 3.6.7 2.9 3.6-.3 1.1.2 3.5.9 5.4 1.4 3.1 1.3 3.4-.4 3.9-1 .2-2.8 2.2-3.9 4.2l-2.2 3.8 2.5 2.3c1.4 1.3 2.9 3.8 3.3 5.4.6 2.2 1.9 3.6 4.8 5 2.1 1 5.1 2.5 6.6 3.2 3.2 1.7 9.5 1.8 10 .2.4-1.1 4 1.6 9.8 7.4 1.9 1.9 3.6 2.6 6.3 2.5 2.3-.1 4.4.6 5.7 1.8 1.8 1.6 2.3 1.7 3 .5.6-.9.5-1.9 0-2.4-.6-.6-1-1.8-1-2.8 0-1-.6-1.8-1.4-1.8-.8 0-2.4-.9-3.7-2-2.1-1.7-2.2-2.1-.9-3 2.3-1.5 3.5-1.2 6.2 1.5 2.2 2.2 2.7 2.3 3.8 1 2.5-3 5.6-1.8 9.3 3.7 3.4 5.2 3.5 5.3 1.5 6.4-2 1.1-1.9 1.1.8 1.8 3.5.9 6.8 4.3 6.9 7 0 1.2.8 2.2 1.8 2.4 1.3.3 1.7-.4 1.8-3 .1-1.8.1-3.7 0-4.2s.3-1.2.9-1.6c.8-.5.8-1.4-.1-3.3-.7-1.5-1.5-2.4-1.9-2.2-.4.3-1.5-.6-2.4-2-1.6-2.5-1.6-2.5 1.1-2.5 2.5 0 2.5-.1.9-1.3-1-.8-2.9-1.2-4.1-.9-3.1.6-3.8-2.8-1-4.6 1.4-1 1.5-1.2.3-.8-1 .3-2 .1-2.3-.4-.8-1.3 1.7-1.8 4.5-.8 1.9.7 2.7.5 3.7-.7 1.3-2 3.3-1.2 3.3 1.3.1 2.5 4-2.4 4-4.9 0-3.9 9.3-.9 14 4.5 2.3 2.6 3.6 3.4 4.5 2.6.8-.7 1.5-.3 2.5 1.5.7 1.4 1.7 2.5 2.2 2.5.5 0 .6-.5.3-1-.3-.6-.1-1 .4-1 .6 0 1.1.4 1.1 1 0 .5.9 1 1.9 1 1 0 2.1.7 2.5 1.5.5 1.5 7.1 5.9 9.1 6.1.5 0 1.5.2 2 .4 2.5.6 4.1.5 6-.6 2.3-1.3 8.5-2.4 8.5-1.5 0 .3 2.3.7 5 .8 2.8.1 5-.3 5-.8s2.9.2 6.5 1.6c5.4 2 6.5 2.2 6.5.9 0-1.1.6-1.3 2-.9 2.2.7 7.5-1.7 8.3-3.8.8-2.2 10.4-3.1 13.2-1.3 2 1.3 2.5 1.3 3.5.1.8-.9 2.1-1.3 3.5-.9 1.9.5 2.4.1 2.7-1.8.2-1.8 1-2.4 3.8-2.6 2.1-.2 4.6-1.4 6.2-2.9 2.5-2.4 2.8-2.4 4.3-.9.9.9 1.4 2.3 1.1 3.1-.6 1.8 1 2 2 .3.5-.8 1.1-.5 2 .7.8 1 3 2.4 5 3.1 3.1 1.1 3.5 1 3-.3-.5-1.2-.1-1.4 2.1-.8 1.6.3 3.5 1.3 4.4 2.1 2 1.8 3.5 1.8 4.3-.1.4-1.3 1-1.4 2.6-.5 1.9 1 2 .9 1.4-1.4-.7-2.9.4-3.3 3.9-1.5 1.2.7 3.5 1.2 5.2 1.1 1.6 0 4 .6 5.2 1.4 1.2.7 3.6 1.4 5.2 1.4 3.3 0 6.8 3.8 5.8 6.3-.8 2.2.9 4.1 2.9 3.2 1.1-.5 2.5-.7 3.3-.6 1 .2 1.2-.5.9-2.3-.5-2.4.6-3.7 1.4-1.8.2.5 1.7 1.2 3.5 1.5 2.6.5 3.1.3 2.6-.8-.7-1.9.7-1.9 3.5.1 1.6 1.1 2.2 1.2 2.2.3 0-.7 1-.3 2.3.9 1.3 1.2 2.7 1.9 3.1 1.5.4-.4.5 1.1.2 3.4-.4 3.8-.2 4.5 2.6 6.8 2.6 2.2 2.9 3 2.4 5.8-.4 2.2-.1 4 .9 5.2.8 1.1 1.5 2.9 1.5 4.1 0 1.2 1 2.5 2.5 3.2 2.4 1.1 2.5 1.6 2 5.9-.4 3.4-.1 5.5 1 7.3.8 1.4 2 3.8 2.7 5.3.8 1.8 2.3 3 4 3.4 1.7.3 2.8 1.3 3.2 2.9 1.1 4.4 11.7 10.5 12.8 7.3.2-.5 1.4.2 2.7 1.7 2.3 2.6 2.3 2.7.2 2.1-1.1-.3-2.1-.1-2.1.4s.9.9 1.9.9c2 0 3.4 1.4 3.7 3.9.2.8-.7.4-2.2-1-1.3-1.2-2.4-1.8-2.4-1.2 0 1.3 3.3 4.3 4.8 4.3 1.1 0 4.2 5.5 4.2 7.5 0 .7.7 1.8 1.5 2.5.9.7 1.3 2 1 3-.3 1.1.3 2.1 2 3 2.8 1.5 3 2.2 1.5 5-.9 1.6-.8 1.8.6 1.3s1.5-.1.9 2.8c-.4 1.9-1.1 3.5-1.6 3.7-1.5.6-1 6 .5 6.9.8.4 1.4 1.7 1.3 2.7-.3 3.4 10.7 5.1 11.7 1.8.6-1.8 5.1-2.3 7.5-.8.6.4 1.8.3 2.6-.4 1-.9 1.9-.8 3.7.4 1.6 1 2.8 1.2 3.8.6.8-.5 2.8-1 4.4-1 2.5 0 2.8-.3 2.4-2.5-.6-2.9-.5-2.9 2.2-1.3 1.7 1.1 2.2 1 3-.2.5-.8 1-1.1 1-.5 0 .5.5.3 1-.5s1.9-1.5 3.2-1.5c1.8 0 2.3-.5 2.1-2.5l-.3-2.5 1.9 2.4c1 1.4 2.3 2.1 3 1.7.8-.5 0-1.5-2.1-3-1.8-1.2-3.3-2.7-3.3-3.3 0-.7-.6-1.8-1.2-2.5-1.9-1.8-1.6-3.5.8-4.1 1.1-.3 2.3-1.5 2.6-2.6.6-2.2 4.6-3 5.8-1.1.9 1.4 3.6 0 4.4-2.3.5-1.2.2-3.1-.5-4.6-1.2-2.3-1.1-2.8 1.3-4.8 1.4-1.3 3-2.3 3.5-2.3 1.5 0 .8-4-.8-4.7-.8-.3-2.7 0-4 .8-1.9 1-2.4 1.9-2 3.5.4 1.4.1 2.4-1 2.8-.8.3-1.3 1-.9 1.5.9 1.5-.8 2-3.4 1-1.5-.6-2.1-1.4-1.7-2.4.4-1.2-.3-1.5-2.9-1.5-3.9 0-3.8.1-2.6-5.3.5-2 .5-3.9.1-4.2-.4-.2-1-2.6-1.4-5.2-.5-3.5-1.3-5.3-3.2-6.6-1.4-1.1-2.8-1.6-3.1-1.3-.9.8-6.4-2.4-5.8-3.4.3-.4-.6-1.7-2-2.8-1.4-1.1-2.5-2.7-2.5-3.5 0-.9-1.2-2.5-2.7-3.7-4.2-3.3-6.6-8-4-8 1.8 0 4-3.9 2.9-5.3-1.3-1.7-3.5-10.4-2.9-11.4.3-.5-1.4-3.1-3.9-5.8-3.9-4.4-4.5-4.8-5.4-3.3-1.5 2.4-4.6 2.3-6.3-.2-.8-1.1-2.8-2.3-4.5-2.6-3.7-.8-4.5-1.6-6.1-6.7-1.3-3.8-2.6-4.7-3.4-2.5-.4 1-.7 1-1.7.1-1.1-1-1-1.4.6-1.9 1-.4 2.6-1.3 3.4-1.9 1.9-1.6 6.9-2.5 7.6-1.4.3.5 1.4.9 2.5.9 1.4 0 1.9-.7 1.9-2.5s.5-2.5 1.9-2.5c1 0 2.4-.6 3-1.4 1.4-1.7 6.2-2.7 7.6-1.7.6.5 2.4 1.1 4.2 1.4 3.1.6 3.3.5 4-3.1.4-2 .6-4.6.4-5.6-.2-1.4.2-1.7 1.3-1.3 2.6 1 1.9-1.9-1.4-5.4-3.3-3.7-2.9-4.4 3.1-5.4 3-.5 3.8-1.2 4.2-3.3.6-2.8-.6-7.7-2.8-12.2-.7-1.4-1.6-4-2-5.8-.6-3.1-.5-3.3 1.4-2.7 1.6.5 2.3 0 3.3-1.9 1.3-2.9 1.2-2.9 5.5-1.7 2.4.7 3.5.6 4.4-.5.6-.8 1.7-1.4 2.3-1.4 1.9 0 3.7-5 2.5-7.2-.9-1.6-.7-2.3 1-3.5 1.6-1.1 2.1-2.5 2.1-6.2 0-4.5.2-4.8 3.5-6.1 1.9-.7 3.2-1.7 2.9-2.2-.9-1.5 4.5-.8 5.8.7 3.5 4.3 5 5.2 7.3 4.7 3-.5 3.2-1.8.6-2.7-1.3-.4-1.7-1.2-1.4-2.5.3-1.1.9-1.8 1.3-1.5.5.3 1.1.1 1.5-.5.3-.5 1.3-1 2.1-1s1.2.4.9 1c-.9 1.4 4.4 6 6.1 5.3.8-.3 1.4.1 1.4.8 0 .8.8-.2 1.9-2.1 1.1-2 2.6-3.5 3.7-3.6 1.1 0 3.1-.4 4.6-.8 2.6-.8 2.7-.9 1.2-3.2-.9-1.3-1.4-2.9-1.1-3.6.2-.7 0-2.1-.5-3.2-.9-1.7-.7-1.8 1.8-1.1 4 1 8.7 1.1 10.3.1.7-.5 1.8-.3 2.4.3.7.7.4 1.3-1.4 2.1-2 .8-1.7.9 1.6.4 2.2-.4 4.1-.8 4.3-.9.1-.1-1-1.4-2.4-2.9-1.5-1.4-2.4-2.9-2.1-3.3.4-.3-.1-1.2-1.1-1.9-2.4-1.7-1-2.7 2.2-1.5 1.4.6 2.6.8 2.6.5 0-1.6-3.3-6.5-5-7.4-1.1-.6-2-1.6-2-2.3 0-.7-.9-2.3-2-3.7-2.5-3.1-2.5-4-.2-4 3.4 0 7.7-2.9 9-6 .8-1.7 2.1-3 3.2-3 .9 0 2.4-.7 3.1-1.6.7-.9 2.2-2 3.4-2.4 1.7-.6 2-1.6 1.9-6.2-.1-6.6-2.2-10.3-6.2-10.4-1.5 0-2.9.3-3.2.6-1.4 1.8-8.1-.4-11.2-3.7-3.3-3.5-8.6-6.9-10.1-6.5-.4.1-1.6-.2-2.5-.7-1.4-.7-2.1-.5-3 1-1.2 1.9-1.3 1.9-3.7.2-1.4-1-2.4-2.6-2.2-3.7.3-2.5-.9-2.7-6-.8zm23.8 20.5c-.1 1.2-1.5.9-1.9-.4-.3-.6.1-1 .8-.8.6.3 1.1.8 1.1 1.2zm6.9 2.7c0 .5-1.1.7-2.5.6-1.7-.1-2.3-.6-2-1.4.3-.8.5-1.8.5-2.4 0-.6.9-.3 2 .7s2 2.1 2 2.5zm-107.3 34.7c.3.7-.3.9-1.6.6-1.2-.3-2.1-1-2.1-1.5 0-1.3 3.2-.6 3.7.9zm-34 106.9c-.3.3-1.2.4-1.9.1-.8-.3-.5-.6.6-.6 1.1-.1 1.7.2 1.3.5zm20.2 1c3.2.7 3.2.7.9 1.9-2.4 1.2-7.2 0-6.2-1.6.6-1.1 1.2-1.1 5.3-.3z"/><path d="M328.689 81c0 .5-1.6 1-3.5 1s-3.5.3-3.5.8c0 .7 3 2.5 6.3 3.8.9.3 1.7 1 1.7 1.4 0 .5.9.6 2.1.3 1.3-.4 1.8-1.1 1.4-2.1-.3-.8 0-1.9.6-2.3.8-.4.4-.9-1-1.4-1.1-.3-2.1-1.1-2.1-1.6s-.4-.9-1-.9c-.5 0-1 .4-1 1zm2 2.4c0 .3-.4.8-1 1.1-.5.3-1 .1-1-.4 0-.6.5-1.1 1-1.1.6 0 1 .2 1 .4zM374.189 94c-.3.5-.1 1 .4 1 .6 0 1.1-.5 1.1-1 0-.6-.2-1-.4-1-.3 0-.8.4-1.1 1zM526.189 99c.3.5.8 1 1.1 1 .2 0 .4-.5.4-1 0-.6-.5-1-1.1-1-.5 0-.7.4-.4 1zM529.389 100.6c-.4.4-2.1.9-3.9 1.1-3.9.4-5.1 1.4-4.3 3.6 1 2.5 3.5 3 3.5.7 0-2.2 1.5-2.7 2.5-.9.5.6 1.3.3 2.2-1.1 1.4-2 1.5-4.8 0-3.4zM515.989 106.7c.9.9 2 1.3 2.4.9.4-.4.1-1.1-.7-1.6-2.5-1.6-3.5-1.1-1.7.7zM365.289 113.5c.4.8 1.2 1.5 2 1.5s1.4-.7 1.4-1.5-.9-1.5-2-1.5c-1.3 0-1.8.5-1.4 1.5zM53.889 166.7c-2.3.8-4 1.9-3.6 2.4.3.5-.1 1.2-1 1.5-2 .8-.9 3.2 1.7 3.6 1.2.2 2 .7 1.9 1.2-.2.5.2 1.2.9 1.7.7.4 1.4 1.8 1.4 3.1.1 1.3.5 2.9.9 3.6 1.1 1.7 2.6 1.5 1.9-.3-.3-.9-.2-1.5.3-1.4 1.2.4 8.5-2.8 10.4-4.5 2.6-2.3 6-2.9 7.8-1.4 3.3 2.6 7.2 1.1 7.2-2.8 0-1.3-.4-2.4-.9-2.4s-1.1-.8-1.3-1.8c-.2-1.3-.9-.7-2.7 2.2-2.1 3.4-2.5 3.6-3.4 2-.7-1.3-.7-1.9.1-2.2 2.9-.9.7-1.7-5.3-1.9-4.6-.1-7.3-.7-9.3-2.1-2.5-1.8-3-1.8-7-.5zM81.089 182.4c-.7.7-.6 1.9.5 3.8 1.5 2.6 1.5 2.8-.6 4.3-1.3.9-2.3 2-2.3 2.6 0 1.6 4 1 5.7-1 .9-1.1 2.2-1.7 2.9-1.4 2.1.8 1-2.3-2.2-5.9-2-2.3-3.3-3.1-4-2.4zM45.089 186.4c-.6.6-.9 1.7-.6 2.4.2.6-.2 1.2-.9 1.2-1 0-1 .3-.1 1.2 1.4 1.4 1.6 6 .3 7.3-.5.6-1.2 2.1-1.6 3.4-.6 1.9-.4 2.3.8 1.8.9-.3 2.1.1 2.7.9 1 1.1.9 1.4-.4 1.4-.9 0-1.6.7-1.6 1.6 0 1-.6 1.4-1.5 1-.9-.3-1.5 0-1.5.9 0 .8-.4 1.5-1 1.5-.5 0-.7.7-.3 1.6.5 1.4 0 1.6-3.5 1.3-2.2-.3-3.9-.2-3.7.1.2.3-2.8.6-6.7.7-3.8 0-7.1.3-7.4.5-.2.2 0 1.9.5 3.6.6 2 .6 3.2 0 3.2s-.5.8.1 2 1 2.8.9 3.8c-.3 3.6.1 5.2 1.5 5.2 1.1 0 1.3 1 1.1 3.7-.2 2.1.1 5.3.6 7.1.9 2.6.7 4-1 7.5-1.2 2.4-2.1 4.9-2.1 5.5 0 .7-.6 1.2-1.2 1.3-.7 0-.3.5.9 1.1 1.2.6 2.5 2.4 2.8 4 .5 2 1.8 3.4 4.5 4.8 2.2 1.1 4.3 2.8 4.9 3.7.9 1.7 1.1 1.6 3.5-.6s2.6-2.3 4.2-.6c1.7 1.7 1.9 1.6 3.5-.4.9-1.1 2.2-2.1 2.7-2.1s2.7 2.2 4.8 5c3.3 4.3 3.9 4.7 4.9 3.3.7-.9 1.9-1.4 2.8-1 .8.3 2.1-.1 2.7-.9.7-.8 2.1-1.4 3.1-1.4s2.1-.5 2.5-1.1c.4-.6 2-.8 3.9-.5 2.3.5 3.6.2 4.5-.9.7-.9 1.9-1.3 2.7-1.1 2.3.9 10.6-1.3 14.6-4 3.2-2.1 3.6-2.8 3.1-5.1-.5-1.7-.3-2.4.3-2 .6.4 1.6 0 2.3-.8.7-.8 2.3-1.5 3.5-1.5 1.5 0 2.5-.8 2.8-2.2.6-2.3-1.6-6.8-3.3-6.8-.6 0-1-.7-1-1.6 0-.8-.4-1.3-.9-1-.4.3-1.6-.1-2.6-.8-1.6-1.1-2.3-1-5.3 1-1.9 1.3-3.9 2.1-4.6 1.7-.6-.4-1.8-.8-2.6-.8-2.1 0-2.5-3.6-.5-5.1 1.1-.9 1.5-2.3 1.3-5.1-.2-3.1-.7-3.9-2.6-4.1-1.5-.2-2.2-.9-1.8-1.7 1.7-4.5 1.7-8.5 0-11.5-1.4-2.3-1.6-3.5-.8-4.8 2.1-3.3.5-8.4-3.8-12.1-3.1-2.5-3.1-3.9-.1-2.3 1.5.8 2.1.6 3-1.4 1-2.2.9-2.6-1-3.3-1.2-.5-4.4-.7-7.2-.5-7.5.6-10.5.5-11.8-.6-.7-.5-2.9-2.3-4.9-4.1-2.1-1.7-3.8-2.8-3.8-2.5 0 .4-.8.3-1.7-.3-1.2-.6-2.2-.5-2.9.3zm7.3 5.7c2 .8 2.3 1.2 1.3 2.4-.6.8-.9 1.8-.6 2.3 1.1 1.9-4.2 1.9-5.8.1-1.4-1.7-1.4-2 .5-3.2 1.1-.8 1.8-2 1.6-2.8-.2-.8-.2-1 .1-.6.2.5 1.5 1.3 2.9 1.8zm41.3 66.9c0 .5-.2 1-.4 1-.3 0-.8-.5-1.1-1-.3-.6-.1-1 .4-1 .6 0 1.1.4 1.1 1z"/><path d="M37.189 200c-.3.5-.2 1 .4 1 .5 0 1.3-.5 1.6-1 .3-.6.2-1-.4-1-.5 0-1.3.4-1.6 1zM126.689 212c-1.3.8-1.2 1 .3 1 .9 0 1.7-.5 1.7-1 0-1.2-.1-1.2-2 0zM125.489 215.6c1.3 2.5 4.2 5 4.2 3.7 0-.5-1.2-2-2.6-3.4-2.4-2.1-2.6-2.2-1.6-.3zM182.389 232.9c-.3 1.4.3 2.5 1.9 3.6 2.1 1.4 2.4 1.4 2.4 0 0-.8.1-1.8.3-2.1.1-.4-.8-1.3-1.9-2.1-1.9-1.2-2.2-1.2-2.7.6zM174.489 236.7c-1.6.8-2.8 2.1-2.8 2.9 0 .7-.5 1.4-1.2 1.4-.6 0-.8.3-.5.6.4.4 1.4.1 2.3-.7 1.5-1.2 1.6-1.2 1 .7-.7 2.3.1 5.4 1.5 5.4.5 0 .9-.7.9-1.5s.8-1.5 1.8-1.5c1.3 0 2.2-1.2 3-3.7.6-2 .9-4 .6-4.5-.7-1.2-3.5-.8-6.6.9zM189.689 236.4c0 1.2 3.7 7.4 4.5 7.5.6 0 1.2.8 1.4 1.8.2 1 1.2 2.4 2.2 3.1 1.3.9 1.9 2.5 1.9 5.2 0 2.9.5 4.2 2 5 1.1.6 2 1.5 2 2s-.9.8-2 .7c-1.2-.1-2-.8-2-1.9 0-.9-.4-2-1-2.3-.5-.3-1-1.6-1-2.7 0-1.9-.4-2-4.3-1.5-2.8.4-5.3.1-6.9-.7-2.4-1.3-2.7-1.2-3.2.6-.3 1.2-1 1.8-1.9 1.5-.7-.3-2.2.5-3.2 1.7-1.3 1.5-2.7 2.1-4.3 1.8-2.2-.4-2.2-.2-1.6 3.9.4 2.4 1.1 5.2 1.6 6.2 1.2 2.4-2.6 6.3-5.7 5.9-1.5-.2-2.7 1-4.8 4.4-2.6 4.3-2.7 4.8-1.2 7 .9 1.3 1.5 4 1.3 5.9-.2 3.9-.4 4.1-2.3 2.1-1.3-1.2-4.6-1.4-12-.6-.5.1-.1.5 1.1 1 1.3.5 2.4 2.1 2.7 3.9.4 1.8 1.3 3.1 2.2 3.1 1 0 1.5 1 1.5 3 0 1.6.5 3 1 3 2 0 1.1 4.8-1 5.3s-2.7 3.1-1 4.2c.5.3.7 1.2.4 2-.8 2.1 3.7 3.7 5.1 1.9.8-1.2 1.5-1.2 3.9.1 1.5.8 3.2 1.2 3.7.9 1.3-.8 1.1.3-.6 3.6-.9 1.7-2.1 3-2.7 3-.6 0-.3.9.8 2.1 1.1 1.2 2.6 1.8 3.7 1.5 2.8-.7 4.7.3 4.7 2.5 0 1 .5 1.9 1.2 1.9.9 0 .9.3 0 1.2-1.7 1.7-1.5 4.9.5 6.3 1.5 1.1 1.5 1.3-.6 2-1.5.4-2 1.2-1.7 2.2.5 1.3.1 1.4-2.3 1-1.7-.4-3.3-.3-3.5.2-.9 1.4 1.8 6.1 3.7 6.7 1.7.5 1.6.9-.9 3.5-1.5 1.6-3.3 2.9-3.9 2.9-.7 0-2 1.6-3.1 3.5-1.2 2.3-2.2 3.1-2.8 2.5-2-2-4.6-1.1-5.2 2-.4 1.8-1.5 3.2-2.7 3.6-2 .6-2 .7-.3 1.9 1.3 1 1.7 2.4 1.4 5.7-.2 3.7.1 4.4 2 5.3 1.2.5 2.5 1.8 2.8 2.7.3 1 1 1.8 1.6 1.8.6 0 .8 1 .4 2.4-.6 2.6 1.7 5.6 2.9 3.6 1.1-1.8 3.3-1.1 6.6 2.4 1.7 1.9 3.8 3.2 4.5 2.9 1-.4 1.4.4 1.4 2.6 0 3-1.3 4.1-2.5 2.1-.9-1.5-3.5 0-3.5 2.1 0 1 1 2.5 2.3 3.4 2.1 1.5 2.2 1.5 3.1-1 .6-1.4 1.6-2.5 2.4-2.5.9 0 1.2-.6.8-1.6-.4-.9-.1-2.3.5-3 .7-.8.9-2.7.5-4.5-.3-1.6-.2-2.8.3-2.5.5.3 1.2-.5 1.5-1.9.4-1.4 1.3-2.5 2.1-2.5s1.5-.9 1.5-1.9c0-3.5 1-4.8 3.4-4.4 2 .4 2.5-.1 3.4-3.6.7-2.9.7-5.2-.1-7.6-.6-1.9-.8-3.7-.6-4 .9-.8 6.9 1.9 6.9 3.1 0 2.7 3.9 4.5 10.4 4.8 3.7.2 6.4 0 6-.5-.7-1.2 3.3-1.1 5.6.1 3 1.6 7-.4 6.3-3.1-.5-1.8-.3-2 1.5-1.4 1.3.4 3 0 4.4-.9 1.2-.9 3.1-1.3 4.5-1 1.5.4 2.3.2 2.3-.6 0-.7.7-1 1.5-.6 1.1.4 1.5-.2 1.5-2.3 0-1.6.7-3.4 1.5-4.1.9-.7 1.3-2.1 1-3.1-.4-1.1.2-2.6 1.4-3.8 1.2-1.2 2.1-2.8 2.1-3.8 0-1.4.3-1.4 2.1.3l2.2 1.9-.7-3c-1-4-4.5-7.3-5.7-5.4-1 1.7-1.5 1.2-2.4-3-.7-3.2-.6-3.3 1.9-2.7 3.5.9 4.9-2.1 5-10.4.1-3.6.5-6.8 1.1-7.2.5-.4.1-1.6-1.2-3-1.6-1.7-2.1-3.7-2.2-8.1 0-3.2.3-5.7.9-5.7.6 0 1-.9 1-2s.5-2 1-2c.6 0 1-.5 1-1 0-.6-.7-1-1.6-1-.8 0-1.3-.3-1.1-.8.8-1.2-1.7-2.9-4.1-2.7-3.1.2-3.6-.9-3.8-8.8-.1-4.8-.6-7.3-1.9-8.7-.9-1-1.4-2.3-1.1-2.9.4-.5.2-1.2-.4-1.6-.7-.4-.7-1.3.1-2.6 1.5-3 .7-6.1-2.3-8.7-1.6-1.4-2.8-3.4-2.8-4.8 0-1.8-.7-2.5-2.7-3-1.6-.3-3.6-.8-4.7-1.1-1-.3-2.2 0-2.6.7-1.4 2.3-3 .1-2-2.6.8-2.1.6-2.6-1.3-3.3-4-1.5-8.4-1.6-10.1-.2-1.4 1.1-1.6 1.1-1.6-.2 0-.9-.9-2.1-2-2.7-1-.6-1.7-1.6-1.5-2.3.3-.6-1.4-2.3-3.7-3.7-4.6-2.6-11.8-6.1-11.8-5.6zm52.5 107.6c.3.5.1 1-.4 1-.6 0-1.1-.5-1.1-1 0-.6.2-1 .4-1 .3 0 .8.4 1.1 1zM135.389 245.9c-1.8.6-1.8.7 0 2.2 1 .9 3.7 1.6 6 1.6l4.2.1-3.5-2.4c-3.8-2.6-4-2.6-6.7-1.5zM147.889 250.2c.6 1.8 2.2 2 4.2.5 1.6-1.1 1.4-1.3-1.4-1.5-2.1-.2-3 .2-2.8 1zM128.589 252.1c-.8.5-2.4.9-3.6.9-1.6 0-2.3.6-2.4 2-.2 3.4-.4 3.9-1.6 5.1-.9.9-1.8.7-3.9-1-2.3-1.8-3.6-2.1-6.9-1.5-2.2.3-4.4 1.3-4.8 2-.4.8-2 1.4-3.5 1.4-3.1 0-9.1 4.8-8.5 6.7.5 1.4 5.5 1.8 6.7.6.9-1 3.3-1.3 9.4-1.4 4.5 0 5.2-.3 5.2-2s.3-1.8 2.2-.8c1.7.9 2.4.9 3.3-.5.7-.9 1.8-1.6 2.6-1.6 3-.1 9.9-4 9.9-5.6 0-1.4.3-1.4 1.5-.4 1.2 1 1.9 1 2.8.1 2.9-2.9-4.5-6.5-8.4-4zM144.689 252.9c0 1-.5 2.1-1.1 2.3-.9.3-.8 1 .1 2.8 1 1.8 1 2.5.1 2.8-.6.2-1.8 1.7-2.7 3.4-1.4 2.8-1.4 3 .5 3.5 1 .3 2.2 1.6 2.5 2.9.6 2.1.9 2.2 3 1.3 2.9-1.3 4-6.3 1.9-8.1-.8-.7-1.2-2.1-.9-3.4.4-1.3 0-2.7-.9-3.4-.9-.7-1.3-2.1-1-3.1.3-.9.1-2-.5-2.4-.5-.3-1 .2-1 1.4zM10.689 256.5c0 .8-.6 1.5-1.4 1.5-2.1 0-2.8 5.3-.8 6.7 2.2 1.8 3.2 1.6 3.2-.4 0-1 1.1-2.6 2.5-3.8l2.5-2-3-1.7c-2.5-1.4-3-1.5-3-.3zM7.989 270.7c-.8 1.6-2.9 3.5-4.6 4.4-3.9 1.9-4.4 3.5-1.7 4.9 1.8 1 2.5.7 5.1-2.2 4.5-5 6.1-7.6 5.4-8.8-1.1-1.7-2.5-1.1-4.2 1.7zM142.489 274.7c-2.5.6-2.2 2.2.6 3.4 1.3.6 2.7 2 2.9 3 .7 2.7 3.5 3.4 5.6 1.5 1-.9 2.3-1.6 3-1.6 2.2 0 0-2-4.9-4.5-2.7-1.4-5.1-2.4-5.2-2.4-.2.1-1.1.3-2 .6zM8.289 278.5c.4.8.8 1.5 1 1.5.2 0 .4-.7.4-1.5s-.4-1.5-1-1.5c-.5 0-.7.7-.4 1.5zM135.189 278.7c-1.1.2-3 .6-4.2.8-1.5.4-2 1-1.6 2.5.6 2.4.1 2.4 5.1 0 2.2-1.1 4.6-2 5.2-2 .6 0 .8-.5.5-1-.6-1-1.5-1.1-5-.3zM125.689 284c0 .5.4 1 .9 1 .6 0 1.3-.5 1.6-1 .3-.6-.1-1-.9-1-.9 0-1.6.4-1.6 1zM498.389 311.6c.5 1.3.3 1.5-.7.9-.9-.5-1.1-.4-.6.3.4.7 1.4 1.2 2.2 1.2 1.8 0 1.5-3.1-.4-3.8-.8-.2-1 .2-.5 1.4z"/><path d="M250.689 345.5c0 .8.7 1.5 1.5 1.5s1.5-.7 1.5-1.5-.7-1.5-1.5-1.5-1.5.7-1.5 1.5zM264.289 350.5c-.2.7-1.8 1.9-3.5 2.6-3.7 1.6-4 4.3-.8 6 2.2 1.2 3.8 3.1 3.8 4.6-.1 1.6 5.4 2.3 6.4.9.9-1.2 1.4-1.2 3.5 0 3.1 1.6 6 1.8 6 .3 0-.8.5-.8 1.5.1.9.8 1.5.9 1.5.2 0-1.5-4-4.2-6.1-4.2-2 0-6.3-6.7-4.7-7.2.8-.3.8-1 0-2.4-.6-1-1.2-1.6-1.2-1.2 0 .4-1.3.3-2.9-.2-2.1-.6-3.1-.5-3.5.5zm13.4 13.6c0 .6-.4.7-1 .4-.5-.3-1-1.1-1-1.6 0-.6.5-.7 1-.4.6.3 1 1.1 1 1.6zM253.689 354.4c0 .2.7.7 1.6 1 .8.3 1.2.2.9-.4-.6-1-2.5-1.4-2.5-.6z"/></g></svg>