<svg version="1" xmlns="http://www.w3.org/2000/svg" width="803.625" height="637.808" viewBox="0 0 602.719 478.356"><g fill="#222"><path d="M455 1.95c0 1.1-.5 2-1.1 2-.5 0-.7-.6-.4-1.3.4-.6-.2-.2-1.3 1-1.1 1.3-2.7 2.3-3.5 2.3-.9 0-1.8.9-2.2 1.9-.3 1.1-1.6 2.1-2.8 2.3-1.2.2-3.3 2-4.6 4-1.7 2.7-3.2 3.8-4.9 3.8-1.7 0-2.2-.4-1.9-1.4.5-1.3-2.5-3-4.7-2.7-.5.1-1.3-.4-1.7-1.1-.7-1-.9-.9-.9.4 0 2.8-3 5-5.7 4.3-1.7-.4-2.3-.2-1.8.6.6.8-.3 1-3.1.6-7.8-1.1-9.4-1.6-12.6-3.5-4.4-2.7-11.5-2.7-12.9 0-.6 1.1-2.5 2.6-4.4 3.3-4.5 1.9-5 5.2-1.4 9.6 2.3 2.8 3.5 3.5 7.1 3.7 13.2.8 16.7 1.1 21 1.8 2.6.3 5.3 1.3 5.9 2 .6.8 2 1.4 3.1 1.4 3 0 8.8 2.8 8.8 4.2 0 1.4 14.3 14.2 16 14.4.6.1 1.9.2 3 .3 1.4.1 2 .8 2 2.7 0 2.1.4 2.5 2.3 2.2 1.8-.2 2.3-1.1 2.7-5.1.5-3.7.2-5.2-1.2-6.7-1.6-1.7-1.6-2-.2-3.4.8-.9 2-1.6 2.5-1.6.6 0 .7-.5.4-1-1.1-1.7-2.4-1.1-6.9 3.3-3.7 3.5-4.3 4.6-3.4 6.1 1 1.8.9 1.8-1.8.3-1.6-.8-3.7-1.8-4.8-2.1-1.4-.5-1.7-1.3-1.3-3.5.3-1.5.1-3.3-.6-4-.6-.6-.7-1.1-.3-1.1.5 0 .3-.7-.4-1.5-1.4-1.6-.6-3.5 1.6-3.5.8 0 1.4-.9 1.4-1.9 0-3 1.1-5.1 2.6-5.1.8 0 1.7-.8 2.1-1.8 1.2-3.7 4.8-10.8 6-12 .8-.8 2.2-1.1 3.4-.7 2.7.9 4.1-1.2 2.7-3.9-.8-1.5-.7-2.2.8-3.3 1-.7 1.5-1.3 1.1-1.3-.4 0-.3-.9.3-2.1.9-1.5.8-2.4-.1-3.5-1.7-2-3.9-1.7-3.9.6zM373.5 19.75c-.6 1.7 1.5 3.7 3.9 3.7 1.3 0 2-.8 2.3-2.6.3-2.3 0-2.6-2.7-2.5-1.6.1-3.2.7-3.5 1.4zM350.9 57.85c-2.6.9-5.4 2.3-6.2 2.9-1.2 1.1-2.2 1-5-.2-3.1-1.2-3.6-1.2-4.1 0-.3.8-1.4 1.4-2.4 1.4s-2.3.5-2.8 1c-.7.7-1.9.8-3.7.1-2.3-.9-2.6-.7-2.9 1.2-.2 1.7-.9 2.1-2.6 1.9-1.5-.2-3 .5-4.2 2.1-1.6 2.1-2.6 2.4-6.5 2.1-2.5-.2-4.5.1-4.5.6s-1.2.8-2.7.7c-2-.2-3.2-1.2-4.7-4-1.7-3.2-2.1-3.5-2.7-2-.8 2.2-.1 3.6 1.3 2.7 1.4-.9-.1 3.9-1.6 4.8-1.8 1.3-3.6.9-3.6-.7 0-.8.3-1.4.8-1.4 1.7.3 3.5-.1 2.9-.7-.3-.4-2.4-.7-4.7-.8-2.2-.1-3.6.1-3 .4.6.4.8 1.4.4 2.3-.4 1.2-.1 1.7 1.1 1.7.9 0 1.3.4 1 1-.4.6.5.8 2.2.4 2.8-.5 2.9-.5 2.8 3.9 0 2.5-.3 4.9-.7 5.3-.5.4-.8 1.5-.8 2.5s-.9 2.1-2 2.4c-1.1.3-2 1.1-2 1.6 0 .6-.4.8-.8.5-.5-.3-1.4 1.1-2.1 3-.7 1.9-1.7 3.2-2.2 2.8-.6-.3-1.9.2-3 1.2-1.7 1.6-1.8 1.9-.4 4 1.8 2.7.6 3.9-4.5 4.3-1.9.1-4 .9-4.6 1.7-.6.8-2.7 1.9-4.5 2.6-1.9.6-4.2 1.9-5.2 2.9-2.4 2.5-3.7 2.4-3.8-.4 0-1.2-.3-1.6-.6-1-.2.7-1.5 1.3-2.8 1.3-1.3 0-2.5.5-2.7 1.1-.2.6-2.2 0-4.9-1.6-3.9-2.1-5.3-2.4-8.5-1.7-2.9.6-3.8 1.3-3.6 2.6.3 1.6.1 1.6-2 .3-3.8-2.4-8.7-2.9-10.5-1.1-.9.8-3 1.5-4.7 1.4-4.9-.3-5.4-.1-6.1 1.9-.7 2.2-7.3 6-9.3 5.3-.7-.2-2.2.8-3.3 2.2-1.2 1.5-3 2.6-4.5 2.6-2.1 0-2.4.3-1.8 2.5.4 1.8 0 3-2 4.8-1.4 1.3-2.6 2.9-2.6 3.6 0 2-4.7 1.2-6.3-1.2l-1.6-2.2v2.7c-.1 2.1-.6 2.8-2.2 2.8-1.1 0-2.9.5-4 1-1.1.6-1.9.7-1.9.2 0-.6-1.2-1.7-2.6-2.7-2.2-1.4-3-1.5-5-.5-1.9 1.1-2.6 1.1-3.9 0-.8-.7-1.8-1-2.1-.7-.9.8-3-1.5-3.8-4.1-1.3-3.9-10.7-1.8-11.9 2.7-.3 1.3-1.7 2.2-4.3 2.7-2.2.3-4.5 1.1-5.2 1.7-.9.7-2 .6-3.7-.1-2.3-1.1-2.4-1-1.3.8.7 1.1 2.3 2 3.5 2 1.6 0 2.3.6 2.3 1.9 0 1.5-.7 1.9-3.2 1.7-1.7 0-3.3.4-3.5 1-.4 1.3 3.6 6 4.9 5.6.5-.1.7.1.4.6-.3.5.6 2.4 1.9 4.2 2.6 3.5 3.2 6 1.5 6-.5 0-1 .9-1 2s-.4 2-1 2c-1.6 0-1.1 4.1 1 8.7 1.2 2.8 1.5 4.3.8 4.3s.5 1.6 2.6 3.5 4.2 3.2 4.7 2.9c.5-.3.9.4.9 1.5 0 1.5-.5 1.9-1.7 1.4-1.4-.5-1.5-.3-.6.7 1.6 1.7.5 4-2.5 5.1-2.2.8-2.4 1.4-1.8 4.7.3 2 1.2 4.2 2.1 4.8 1.3 1 1.3 1.3.1 2.4-.9.6-2 .8-2.7.4-.7-.4-1-.2-.7.7.2.7-.4 2.2-1.3 3.3-1 1-1.6 2.3-1.3 2.8.3.4 0 .8-.6.8s-.5 1.1.5 3c1.8 3.4 1.5 3.3 4.9 2 2.1-.8 3.1-.5 5.6 1.6l3 2.6v-2.4c.1-2.2.2-2.1 3 1.1 2.7 3.2 3.1 5.1 1 5.1-.5 0-.7-.6-.4-1.3.3-1-1.1-1.4-5.3-1.6-3.2-.1-7.4-.3-9.3-.4-3.3-.2-3.5 0-4 3.2-.4 2.7-.7 3.1-1.6 2-.6-.8-1.4-2.3-1.8-3.4-.7-2-.8-2-2.2 0-.8 1.1-1.2 2.5-1 3.2.3.7.1 1.5-.4 1.8-.7.4-.6 1.3 0 2.5 1.3 2.4 1.3 3.3 0 2.5-1.1-.7-2.6 2.2-1.7 3.1.9 1 4.7-2.1 4.7-3.8 0-1.1.5-1.5 1.5-1.2.8.4 1.2 1 .9 1.5-.3.5 0 .9.5.9 1.5 0 1.4 3.7-.1 4.3-1 .3-.9.9.3 2.3.9 1 1.9 2.8 2.3 3.9.3 1.2 1.9 2.9 3.6 3.8 2.4 1.5 3 2.5 3.1 5.5 0 2 .3 4.8.5 6.2.3 1.4.6 3.7.8 5.1.1 1.4 1 3.7 1.9 5 1 1.3 1.7 2.9 1.7 3.5 0 .6.6 1.7 1.4 2.3.7.6 1.4 2.2 1.4 3.4 0 2.8 6.1 11.7 8 11.7.7 0 1.1.4.7.9-.3.6.4 2.5 1.4 4.2 1.9 3.1 1.9 3.4.4 5.2-1.4 1.5-1.5 2.2-.5 3.7.6 1.1.9 2.6.6 3.4-.3.8-.1 1.7.5 2 1.6 1.1.1 3.6-2.2 3.6-1.2 0-3.4-1.2-4.9-2.7-1.5-1.5-2.8-2.1-2.8-1.5 0 .7-.6 1.2-1.4 1.2-.9 0-1.2.7-.9 2 .6 2.2 0 2.5-2.7 1-1.5-.8-1.7-.7-1.2 1.3s.4 2-1.1.8c-1.3-1-1.7-1-1.7-.1 0 .7-.8 1-1.9.7-1.4-.3-1.7 0-1.4 1.4.3 1.1.1 1.9-.5 1.9-.5 0-.9.8-.8 1.7 0 1.1-.6 1.7-1.6 1.7-1-.1-1.8.2-1.8.7 0 .5-1.2.6-2.7.3-1.5-.4-3.4-.7-4.3-.7-.8 0-2.4-.8-3.5-1.7-1.1-1-2.9-2-4-2.2-1.3-.2-2-1.2-2.1-2.8-.1-4.1-.3-4.8-2-6.4-1.9-1.9-3.4-2.1-3.4-.3 0 1.9 3.3 8 5.7 10.6 3 3.2 3.5 6.9 1.2 7.6-1.7.6-2.4 2.4-2 4.9.1.5-.6.5-1.6.1-4.1-1.6-4.7-1.6-2.5.3 1.2 1.2 1.8 2.3 1.3 2.6-1 .6-.7 3.7.4 5.6 1 1.5 4.5 1.2 5.1-.5.4-1 1.3-1.3 2.5-1 1.1.4 1.9.2 1.9-.4 0-1.9 3.2-1.2 3.7.8.6 2.5 3 3.4 3.7 1.5.3-.8 1-1.4 1.7-1.4.6 0 2.3-.9 3.9-2 1.5-1.1 3-1.6 3.4-1.3.3.4 1.3-.2 2.1-1.3 1.2-1.6 1.4-1.6 1.5-.3 0 .9 1.1 2.1 2.4 2.7 2.2 1 2.5.8 3.2-1.6.4-1.5.6-3.6.5-4.7-.2-1.5 0-1.7 1.1-.7.8.6 1.7.9 2.1.6.3-.3 2.4-.8 4.7-1 3.5-.3 4.5.1 6.6 2.3 1.3 1.4 2.4 3.4 2.4 4.4 0 1 .5 2.1 1 2.4.6.3 1 .1 1-.5s.5-.8 1-.5c.6.3 1 .1 1-.6 0-1 .3-1 1.1-.2.9.9.6 1.9-1 4.2-2.5 3.5-6.4 4.1-9.7 1.6-1-.8-2.7-1.5-3.6-1.5-1 0-1.8-.4-1.8-1 0-.5-1.1.2-2.5 1.6-1.4 1.4-3.2 2.3-4 2.1-.7-.3-1.6 0-1.9.8-.2.7-1.3 1.1-2.3.9-1-.3-3.9.4-6.6 1.6-3.8 1.7-4.7 2.6-4.7 4.5 0 1.4-.4 2.5-.9 2.5-1.5 0-1.9 3.9-.5 5.1.8.6 1.4 1.7 1.4 2.4 0 1.8 2.9 7.7 7.2 14.3 1.9 3.1 2.3 3.3 6.2 2.7 5-.9 5-.9 3.6-3.4-1.2-2.4-.3-2.7 2.3-.7 1.5 1.2 2.4 1.2 5.7-.2 3.3-1.4 3.8-2.1 3.3-4-.4-1.9-.1-2.2 2.5-2.2 1.8 0 4.3 1 6.1 2.6 1.7 1.4 3.1 2.1 3.1 1.5 0-.6 1.3-1.7 2.9-2.6 1.6-.8 3.2-2.3 3.6-3.3.4-1.4 2.3-2.3 7.3-3.3 5.7-1.2 6.7-1.7 7-3.7.2-1.3.9-2.1 1.5-1.9.7.2 2.3-.4 3.6-1.4 1.3-1.1 3.4-1.9 4.7-1.9 1.2 0 2.9-.7 3.8-1.5.8-.8 2.4-1.5 3.5-1.5 1.2 0 2.1-.5 2.1-1 0-.6.3-.9.8-.8.4.2 2.1-.6 3.9-1.7 3.4-2 5.9-6.5 4.9-9-.7-1.8-.4-3.1.7-2.7.4.1.8-.4.8-1 .1-.7.3-2 .4-2.8.1-.8.3-2.3.4-3.3.1-1.5.6-1.7 3.2-1.2 2.3.5 3 .4 2.4-.5-.5-.9-.1-1 1.6-.5 1.3.4 2.6.8 2.9.8 1.4.3 6-3.8 6-5.4 0-1.1.7-1.9 1.5-1.9s1.5-.9 1.5-1.9c0-1.1.5-2.3 1.1-2.6 1.9-1.2 3-5.5 1.9-7.5-1-1.8-.8-1.8 4.3 0 4.4 1.6 5.4 1.7 6.1.5.8-1.1 1.6-1 4.7.5 2.4 1.3 6.3 2 11.8 2.2 4.6.2 8.5.6 8.8 1 1.1 2 3.3.6 3.3-2.1 0-4 2.2-5.6 5.8-4.3 1.6.5 4 .8 5.5.5 1.6-.3 4.3.5 7.6 2.2 2.9 1.6 5.8 2.5 7 2.2 1.1-.3 2.8.1 3.8.8 1.3 1 2.2 1 3.1.3.9-.8 1.9-.5 3.5 1l2.3 2.2 3.9-2.1c3.3-1.8 4.4-1.9 7.6-1 2 .6 4.5 1.1 5.6 1.1 1.1 0 2.8.9 3.8 2s2.6 2 3.5 2c2 0 4.3 2.4 3.3 3.3-.3.4.6.7 2 .7 1.5 0 2.7-.5 2.7-1.1 0-.5.5-.7 1.1-.4.5.4.8 1.2.6 1.8-.2.6.5 1.8 1.5 2.7 1.5 1.2 1.6 2.2.9 5.4-1.1 4.6-.5 6.6 1.9 6.6 1.1 0 2.1.4 2.4.9.7 1.1 6.8.4 7.6-1 .4-.5-.2-2.8-1.3-4.9-2.3-4.8-3-10.5-1.4-11.8 1.2-1 7.1 1.9 6.6 3.3-.1.3 1.1 3.3 2.6 6.5 2.4 5.1 3.2 5.8 6.3 6.3 5.5.9 6.9 2.9 6.5 8.9-.1 2.9.1 4.8.5 4.2 1.3-2 3.7-2.1 7.3-.3 2 1 4.3 2.9 5.3 4.3 1.3 2 2.5 2.6 5.5 2.6 2.4 0 4.4.7 5.5 1.9 1.3 1.5 2.6 1.7 6.4 1.3 2.6-.3 5.1-1.1 5.5-1.8.5-.9 1.4-1.1 3.1-.4 1.3.5 2.7.6 3 .3.3-.3 1.7.6 3.2 2.2 1.4 1.5 2.1 3.1 1.6 3.4-1.7 1.1 2.9 9.5 6.1 11.1 2.2 1.1 3.4 2.6 4.3 5.7.6 2.3 1 4.5.8 4.8-.2.3-.1.2.4-.1.4-.3.7-1.6.7-2.7 0-1.7.7-2.3 2.8-2.5 3.4-.4 5.7-5 5-9.8-.3-1.8 0-4.1.6-5.2.8-1.5.7-2.3-.4-3.2-.9-.7-1.3-2.1-.9-3.4.6-2.3-5.1-10.6-7.3-10.6-.7 0-2-1.4-2.8-3.1-1.7-3.3-1.3-5.1.7-3.1 1.6 1.6 2.8 1.5 2.8-.3 0-.8.9-1.5 1.9-1.5 1 0 2.2-.7 2.5-1.6.3-.8 1-1.2 1.6-.9 1.4.9 1.3-1.1-.2-3.6-1-1.7-1-2.3 0-2.6.6-.3 1.2-1.1 1.2-1.9 0-1.7.5-1.7 3.1-.4 1.3.8 3.1.7 5.9-.1l4-1.2-2-2.2c-2.1-2.3-2.7-6-1-7 .6-.3 1-1.5 1-2.6 0-1 .9-2.8 2.1-4 1.7-1.7 1.9-2.5 1-5-.6-1.9-.6-3.1 0-3.5.6-.3.8-1.2.5-2-.3-.8-.1-1.4.4-1.4 1.3 0 1.3-2.7 0-3.5-.6-.4-1.7-.1-2.5.5-1.2 1-1.3.6-.8-2.4.4-2.4.2-3.6-.6-3.6-.6 0-1.6-1-2.1-2.3-.6-1.2-1.4-2.9-1.9-3.7-.5-.8-1.4-2.6-2-4-.6-1.4-1.5-3.2-2-4-2.1-3.7-3.3-6.9-2.7-7.8.3-.6-1.4-1.3-3.9-1.7-2.5-.3-4.3-1-4-1.5.3-.5.1-1.8-.5-2.9-.8-1.6-.6-2 .8-2.4 1.6-.4 1.6-.5 0-.6-1.2-.1-1.8-.9-1.8-2.5 0-5-1.7-7.3-6.7-9.2-5.5-2-10.1-5.8-10.9-9.1-.4-1.3-1.9-3.4-3.5-4.8-2.4-2-2.9-3.1-2.7-6.1.2-3.1-.3-4.1-3-6.4-1.8-1.4-3.2-3.1-3.2-3.7 0-.6-.7-1.6-1.5-2.3-1-.9-1.2-1.7-.5-3 1.1-2.1.9-8.8-.4-10.8-.4-.7-.5-2.4-.2-3.7.3-1.3-.1-4.4-.9-6.7-2.5-7.2-1.7-11.1 1.5-7.3 2.8 3.4 5.4 1.2 8.1-6.8 1.1-3.3 1.6-6.7 1.2-9.2-1.1-8.2-1.1-12.1-.1-14.3 1-1.8.8-2.6-1.2-4.7s-2.1-2.5-.6-2.5c1 0 1.4-.5 1-1.1-.3-.6-.2-1.4.3-1.8.6-.3.8-2.1.6-3.9-.4-2.3-1.1-3.2-2.4-3.2-1.8 0-3.5-4.8-2.7-8 .2-.9-1.2-1.9-3.7-2.8-2.9-.9-5-2.7-7.5-6.3-1.9-2.7-4.2-4.9-5-4.9-.8 0-3.7-1-6.3-2.2-5.1-2.4-5-2.2-3.5-8.9.2-.8-.5-1.4-1.7-1.4-2 0-8.3-6.7-6.8-7.2.5-.2 3.3.3 6.3 1.1s5.7 1.3 5.8 1.1c.8-.8-1-4.4-2.1-4.2-.6.1-1.6-.8-2.1-2-.6-1.2-2-2.4-3.1-2.5-1.2-.2-1.9-.9-1.6-1.8.9-3.7.6-5.5-1-5.2-.8.1-2.2-.9-2.9-2.3-.7-1.4-2-2.5-2.7-2.5-.8 0-2.1-.7-2.9-1.5-1.9-1.9-3.4-1.9-3.4-.1 0 .9-1.7 1.6-4.5 2-2.5.4-4.5 1.2-4.5 1.7 0 1.7-1.8 0-3.3-3-.8-1.7-1.1-3.5-.6-4.2.4-.7.3-1.9-.3-2.6-.6-.7-.8-1.3-.4-1.3.9 0-2.3-6.1-4.4-8.5-1-1.1-2-3.1-2.2-4.4-.4-3.1-1.2-3.2-6.9-1.2zm10.5 145.4c.8 1.3.8 2 0 2.5-.6.4-1.4 1.6-1.9 2.7-.8 1.9-.9 1.8-1.3-.5-.2-1.4-1.2-3.3-2.3-4.3-1-1-1.9-2.4-1.9-3.2 0-1.3.5-1.3 3.2-.2 1.7.7 3.6 2.1 4.2 3zm-164.4 5.7c0 .5-.5 1-1.1 1-.5 0-.7-.5-.4-1 .3-.6.8-1 1.1-1 .2 0 .4.4.4 1zm-1.4 4.7c-1 1-1.9-.5-1-1.8.6-1.1.8-1.1 1.2 0 .2.7.1 1.5-.2 1.8zm164.8-1.2c.4 1-.5 2.2-2.7 3.5-3 1.9-3.3 1.9-4.4.3-1.9-2.5-1.6-4.2.6-3.6 1 .3 2.2 0 2.5-.6 1-1.6 3.3-1.3 4 .4zm-11.4 15.5c0 .5-.2 1-.4 1-.3 0-.8-.5-1.1-1-.3-.6-.1-1 .4-1 .6 0 1.1.4 1.1 1zm-201 13c0 .5-.4 1-.9 1-.6 0-1.3-.5-1.6-1-.3-.6.1-1 .9-1 .9 0 1.6.4 1.6 1zm60.3 8c.3 1.1.1 2-.4 2s-.9-.9-.9-2 .2-2 .4-2 .6.9.9 2zm-37.9 59.4c2.3 2.1 3.4 4.6 2.1 4.6-2.1 0-7.2-3.1-7.2-4.3 0-.9.4-1.4.9-1.1.4.3.8 0 .8-.5 0-1.6.6-1.4 3.4 1.3zm-.4 30.6c0 .5-.2 1-.4 1-.3 0-.8-.5-1.1-1-.3-.6-.1-1 .4-1 .6 0 1.1.4 1.1 1zM465.2 57.15c-.7.7-1.2 1.8-1.2 2.5s-.7 1-1.5.7c-.8-.4-1.5-.1-1.5.5s-1.9 1.1-4.2 1.2c-2.4 0-3.8.3-3.2.5.6.2.8 1.8.6 3.4-.3 2.4.1 3.5 2.2 5.1 2.8 2.2 3.1 3.5 1.6 5.9-.8 1.2-1.3 1.3-3 .2-1.4-.8-2-.9-2-.1 0 .6.9 1.3 2 1.6 1.1.3 2 1.2 2 2 0 1.1.7 1.3 2.5.9 1.9-.5 2.5-.2 2.6 1.1.4 3.9.6 4.9 1.3 6.6.5 1 .3 2.3-.4 3.2-1.5 1.8-.7 1.9 2.1.2 1.7-1 2.2-.9 3.5.8 1 1.3 2.7 2 4.7 2 2.9 0 3.3.4 4.1 3.8.8 3 1.4 3.7 3 3.5 1.2-.2 2.8.3 3.6 1 .8.7 4.2 3.8 7.5 6.8 3.7 3.3 7.3 5.6 9.3 6 2.1.4 3.7 1.4 4.2 2.8.5 1.1.9 1.7.9 1.2.1-1.3 5.1 3.5 5.1 4.9 0 .6 1.6 2.7 3.6 4.8 2.1 2.1 3.4 4.3 3.1 5.1-.6 1.6 1.3 6.6 2.6 6.6.4 0 .7 1.1.7 2.4 0 1.3.7 4.3 1.5 6.6 1.6 4.6 1.1 9-1.1 9s-4.2 4.9-2.5 6c.8.4 1 1.3.6 2s-.2 1.6.6 2.1c1.1.7 1 1.3-.8 2.7-1.5 1.1-2.3 3-2.5 5.7-.3 3.6-.7 4.1-3.6 5-3.6 1-3.7 2.5-.3 4 1.9.9 2.2 1.5 1.6 4.5-.4 1.9-.7 4.3-.7 5.2.1 1.8-2.4 3.2-3.9 2.2-.5-.3-.9.2-.9 1.1 0 2.3 2.8 3 6.4 1.7 2-.8 3.2-.9 3.4-.2.2.5 1 1 1.8 1 1.1 0 1.1.6.3 2.7-1.4 3.7.8 12.1 3.5 13.5 1.1.6 2.7 1.7 3.4 2.5 1.2 1.2 1.6 1.1 2.6-.2 2-2.8 6.7-1.5 8.5 2.3 1.2 2.5 2.1 3.2 3.8 2.9 1.6-.3 2.3.1 2.5 1.6.3 2.4 2.8 3.6 2.8 1.4 0-1.6 4.4-3.2 6-2.2.6.4 1-.4 1-1.6 0-1.2-.3-1.9-.7-1.6-1.3 1.4-4.3-2.7-4.3-5.8 0-1.7.3-3.4.6-3.8 1-.9 3.4.4 3.4 1.9 0 1.9.7 1.8 3.2-.6 1.2-1.1 3-2 4-2 1.3 0 1.8-.8 1.8-3 0-3.6 2.4-4 6.1-1.1 2.4 1.8 2.5 1.8 6.4-.4 3.4-2 3.9-2.7 3.8-5.6 0-1.9-.8-4.8-1.7-6.4-1.6-3-2.2-6.4-.9-5.2.7.8 3.3-1.1 3.3-2.3 0-.5-1-.6-2.2-.3-1.8.4-2 .3-.8-.6 1.5-1 1.6-1.4 1.9-5.1.1-2.3 3-2.7 6.1-.8 2.5 1.6 5-.3 3.2-2.5-.8-1-.6-2 .8-4.2 1-1.6 1.6-3.3 1.3-3.8-1-1.6 2.1-2.7 3.7-1.3 2 1.8 8.1.9 7.3-1-.3-.8 0-2.1.7-2.9 1-1.3 1-1.9-.4-3.3-.9-1-1.6-2.4-1.6-3 0-1.5-2.7-1.6-3.6-.1-.4.7-1.6.1-3.4-1.6-1.6-1.6-3-2.2-3.4-1.7-.4.6.2 1.7 1.3 2.4 1 .7 2 2.2 2.3 3.3.5 2.4-2.7 5.6-4.8 4.8-1-.4-1.9.5-2.7 2.6-1.3 3.5-2.6 3.5-4.3.2-.6-1.2-1.8-2.7-2.7-3.4-.9-.7-1.7-2.3-1.9-3.7-.2-1.8-1.5-3.1-4.4-4.5-2.3-1.1-3.9-2.5-3.7-3.2.3-.7-.3-2.3-1.1-3.5-.9-1.2-1.6-3.4-1.6-4.8-.1-1.9-.9-2.9-3.5-4.1-2.3-1.1-3.6-1.3-3.8-.5-.3.6-.8.3-1.2-.8-.5-1.1-.3-2.7.3-3.7.7-1 1.2-3.1 1.2-4.7 0-1.5.5-3.3 1.2-4 .9-.9.8-1.2-.6-1.2-1.6 0-1.8-.6-1.2-4 .5-3.3.3-4.1-1.4-5-1.4-.8-1.9-1.7-1.5-3 .5-1.5 0-1.8-2.7-1.8-3.9.1-8.8-1.7-8.8-3.2 0-1.4-3.7-1.3-4.2.2-.8 2.2-3.7-.1-9.9-7.6-3.4-4.2-6.6-7.3-7-7-.5.3-1.2-.8-1.5-2.5-1.1-5.1-5-7.7-14.3-9.5-5.6-1-9.2-2.3-10.5-3.6-3.4-3.3-12.3-10-13.4-10-.5 0-1.2-.7-1.6-1.5-.3-.8-1.5-1.5-2.6-1.5-1.4 0-2.7-1.4-4.3-4.7-2.5-5.3-7.5-9.1-9.5-7.1zm111.5 130.4c-.3.3-1.2.4-1.9.1-.8-.3-.5-.6.6-.6 1.1-.1 1.7.2 1.3.5zm-2.3 3c1.1 2.8.6 5.4-.8 5.4-.8 0-1.8-.5-2.1-1-.4-.6-1.1-.8-1.6-.4-.6.3-1.6.3-2.4 0-2.3-.8-.6-3.6 2.2-3.6 1.3 0 2.1-.4 1.8-1-.3-.6 0-1 .8-1s1.8.7 2.1 1.6zM385.6 68.65c-1.6 9-1.4 9.6 2.4 10 1.9.3 3.9.9 4.5 1.4 1.6 1.6 3.5 1 3.5-1.1 0-1-.9-2.7-1.9-3.7-1.4-1.3-1.7-2.3-1.1-3.3 1.6-2.5 1.1-3.5-2.2-5-1.8-.7-3.6-1.5-3.9-1.7-.4-.2-1 1.3-1.3 3.4z"/><path d="M285.5 76.95c.4.6 1.1.8 1.6.5 1.4-.9 1.1-1.5-.7-1.5-.8 0-1.2.5-.9 1zM456.1 84.55c0 1.1.3 1.4.6.6.3-.7.2-1.6-.1-1.9-.3-.4-.6.2-.5 1.3zM449.2 89.05c.2.6.7 1 1.1 1 .4-.1 1.5-.1 2.5-.1 1.4 0 1.5-.2.2-1-2-1.3-4.3-1.3-3.8.1zM443 93.15c0 .4.7.8 1.5.8s1.5-.4 1.5-.8c0-.5-.7-.9-1.5-.9s-1.5.4-1.5.9zM423.3 96.45c-.9 1.9-2 3.5-2.5 3.5-.4 0-.8.9-.8 2s-.6 2-1.2 2.1c-.7 0-2.9.2-4.8.4s-4.8-.1-6.3-.7c-3.8-1.5-5.6.2-3.8 3.5.7 1.3 1.1 3.7 1 5.3-.4 3.6 1.2 4.4 2.7 1.4l1.2-2.2 2.2 2.2 2.2 2.2 2.6-2.7 2.5-2.7 2.3 3.8c1.3 2.2 2.4 4.4 2.4 5 0 .6 1 1.8 2.3 2.7 2.1 1.4 2.1 1.6.5 3.3-1.8 2.1-1.9 4.4-.1 6.5.6.8 1.4 2.8 1.7 4.5.6 2.5 1.1 3.1 2.7 2.7 1.1-.3 1.9 0 1.9.8 0 .7.7 2.1 1.7 3.1.9 1.1 1.1 1.8.5 1.8-.7 0-1.2.9-1.2 2 0 1.2-1.1 3.1-2.5 4.4l-2.5 2.4 2.7 3.1c2.9 3.3 4.3 3.9 4.3 1.8 0-1.3 2.3-3.5 5.6-5.2 1-.6 4.7-1 8.1-1 4 0 6.4-.4 6.7-1.2.3-.7.1-1.5-.4-1.8-.6-.4-1-.1-1 .4 0 .6-.5 1.1-1.2 1.1-.8 0-.6-.6.5-1.7 1.5-1.6 1.8-1.5 3.8.3 1.8 1.5 2.1 1.6 1.6.3-.3-.9-.1-2.1.5-2.7.6-.6.6-1.2-.1-1.6-1.7-1.1-1.3-2.3.9-2.9 1.6-.4 1.8-1.1 1.4-4.3-.3-2.2-.9-5.1-1.4-6.5-.4-1.4-.4-3.2.1-4.1.5-1 .1-2.9-1.1-5.4-1.1-2.1-2-4.6-2-5.5 0-1-.5-3-1.1-4.6l-1.1-2.8-1.3 2.5c-1.4 2.6-1.4 2.7-2.9-2.4-.3-.8-1.5-1.6-2.7-1.8-1.2-.2-2.5-1-2.9-1.8-.4-.8-1.5-2.9-2.4-4.7-.9-1.7-1.4-3.8-1-4.6.9-2.4-7.4-4.4-10.8-2.6-1.2.6-2.5.6-3.8-.1-1.7-.9-2.2-.6-3.7 2.5zM122.2 201.75c-.8 1.7-.9 2.8-.2 3.2.6.4.8 1.4.4 2.3-.4 1-.1 1.7.6 1.7s1 .8.7 2c-.3 1 .1 2.7.9 3.7 1.7 2.2 1.9 5.7.2 4.7-.7-.5-.8-.3-.3.6.6 1 1.1 1 2-.3 1.8-2.5 2.2-2.1 1.9 1.8-.3 2.9 0 3.5 1.7 3.5s1.8-.3.9-2.1c-.7-1.1-.8-2.4-.4-2.7.4-.4.9-.1 1.1.6.3.6.9 1 1.4.6.5-.3.3-1.2-.5-2-1.6-1.6-1.2-3.8 1.2-6.6.8-.9 1.2-2.3 1-3-.3-.7.1-2.4.8-3.7 1-2 1.1-2.7.1-3.3-2-1.3-4.4-.9-5.1.7-.8 2.2-2.1 1.8-3.6-.9-1.8-3.5-3.4-3.8-4.8-.8zM562.6 226.65c-.6 1.4-.9 1.5-1.6.4-.4-.8-1.5-1.1-2.4-.8-2.6 1-.2 4.4 3.6 5.2 1.8.4 3.6 1.2 3.9 1.8.4.5 1.4.7 2.3.4 2-.8 2.1-5.1.1-6.7-.8-.7-1.5-.9-1.5-.4 0 .4-.5.3-1.2-.4-1.6-1.6-2.5-1.5-3.2.5zM332.2 320.15c-.7.7-1.2 1.9-1.2 2.8 0 1.4-.8 1.5-4.7 1-2.7-.4-5.6-1-6.5-1.4-1.1-.5-2-.1-2.9 1.5-1 1.9-.9 2.5.7 3.9 2.8 2.3 4.5 5.8 3.4 6.5-.6.3-1 1.6-1 2.8 0 3.1-3.1 4.8-6.8 3.7-1.7-.4-3.3-.6-3.5-.4-.3.3-1.4-.6-2.5-2-1.5-2-2.1-2.2-2.5-1.2-.4 1-1.5 1.2-3.9.7-4.7-.9-7.6-.3-8.3 1.9-.4 1.2-1.7 2-3.8 2.2-2.4.2-3.3.8-3.5 2.5-.4 2.5-2.9 3.8-4.7 2.3-.9-.7-1.6-.6-2.4.4-.7.8-2.9 2-4.9 2.7-3.9 1.2-6.5 2.9-4.4 2.9.7 0 1.2.4 1.2.9 0 1.2-9.5-1.3-12.5-3.3-1.3-.9-2.9-1.6-3.5-1.6-.5 0-2.8-1.3-5-2.9-3.4-2.4-4.8-2.8-9.8-2.7-3.1.1-6.4.6-7.2 1.2-.8.5-3.1 1.4-5 2-2.2.7-3.4 1.6-3.1 2.5 1.6 6.4 1.3 9.1-1.2 11.7-1.4 1.5-2.9 3.9-3.2 5.4-.6 2.3-1 2.6-3 1.8-1.7-.7-2.5-.5-2.9.6-.3.8-1.6 1.4-2.9 1.4-2.6 0-7.7 2.1-7.7 3.2 0 .5.5.8 1 .8.6 0 1.6 1.1 2.2 2.5.6 1.4 1.7 2.5 2.3 2.5.7 0 2.6.7 4.1 1.5 2.8 1.4 2.9 1.4 3.9-.9.8-1.9 1.4-2.2 2.7-1.5 1.2.7 2.2-.2 4.9-4.6 3.2-5.4 3.4-5.5 7.8-5.3 4.7.1 6.8-.2 8.7-1.4.6-.4 2.2 0 3.5 1 1.3.9 3.7 1.7 5.2 1.8 1.5.1 3.6.9 4.6 1.8 1 .9 2.9 1.6 4.4 1.6 1.5 0 3.2.9 4 2 .8 1.1 1.6 1.7 2 1.4.3-.3 1.3.6 2.2 2 1.4 2.1 2 2.3 4.1 1.5 1.4-.5 5-.6 8-.3 3.5.5 5.4.3 5.4-.4 0-.5.9-.8 2-.5 1.1.3 2 0 2-.6s.7-1.1 1.5-1.1 1.5-.7 1.5-1.5c0-3.3 3.4-8.4 5.9-9 1.5-.3 3.1-1.6 3.6-2.8 1.1-2.4 5.4-3.4 8.2-1.9 1 .6 2.4.6 3.8 0s2.9-.5 5 .6c2.4 1.3 3.1 1.3 3.7.2.5-.9 2.2-1.2 5.8-.8 4.4.4 5 .2 5-1.4.1-1.8.1-1.8 1.2.1 1.7 3 3 3.5 4.3 1.8 1.1-1.4 1.2-1.4 1.8.1 1.2 2.9 8.7 1 8.7-2.3 0-1.2 1.1-1.4 3.4-.5.9.3 1.6 1.4 1.6 2.4s.7 2.3 1.5 3c1.3 1.1 1.5.8 1.5-1.4 0-1.9.5-2.6 1.9-2.6 1.3 0 1.8-.6 1.6-2.3-.1-1.2-.4-2.3-.5-2.5-.1-.1-.3-.5-.5-1-.1-.4-.4-1.4-.8-2.2-.3-.8-.8-4.8-1.1-8.8-.4-4.1-1.1-8.2-1.7-9.3-.6-1.3-.6-1.9.1-1.9.5 0 1-.9 1-2 0-2.4-1.3-2.6-3-.5-1 1.2-1.8 1.1-5.8-.9-2.6-1.3-6.4-4.2-8.5-6.5-4.1-4.4-4.7-4.7-6.5-2.9zM107.7 362.95c-2.7.5-5.4 1.5-6 2.3-1.9 2.4-5 2.4-7.2.2-1.1-1.2-1.9-1.9-1.7-1.6.1.2-1 1.7-2.5 3.3-2 2.1-3.2 2.6-5.1 2.1-2.1-.5-2.4-.3-1.9 1 .3.9.2 1.9-.3 2.2-.6.4-6.5.8-13.3.9-16.3.5-15.9.4-15.1 1.7.5.8.2.9-1.1.2s-3.1-.3-6.9 1.5c-2.8 1.4-5.9 3.2-6.8 4-1 .8-2.5 1.2-3.3.8-.9-.3-3.5-.3-5.7 0-3.5.6-3.9 1-3.5 3 .3 1.6 0 2.4-.9 2.4-.8 0-1.4.7-1.4 1.5 0 .9-.6 1.2-1.7.9-1.5-.5-1.6-.4-.3.5s1 1.4-1.5 3.6c-1.6 1.3-4.1 2.5-5.5 2.5l-2.5.1 2.4 1.9c2.9 2.5 4.2 2.5 4.8.1.3-1.3 1.1-1.7 2.4-1.4 1.4.4 1.9 0 1.9-1.7 0-1.6.4-2.1 1.6-1.6 1.2.5 1.5.2 1-.9-.3-.9-.2-1.3.4-1 .6.3 1 1.2 1 2 0 2.6 2 2.6 3 0 .8-2.1 1.6-2.6 3.8-2.3 2.1.2 2.7.8 2.7 2.8 0 3.5-.5 4.3-2.1 2.9-.9-.7-1.4-.8-1.4-.1 0 2 1.2 4.2 2.1 3.6 1.5-.9 4.9 1.6 4.9 3.7 0 1.1-.7 3.3-1.5 4.9-.8 1.6-1.1 3-.6 3.2.5.2 1.1 2.5 1.3 5.3.3 4.6.1 5-1.9 4.9-1.9 0-2.2.3-1.7 2.3.5 1.7.2 2.3-1 2.3-.9 0-1.6.4-1.6 1s-.9.6-2.4 0c-2.2-.8-2.4-.6-2.9 3-.3 2.1-1.2 5.3-2.1 7.1-.9 1.8-1.6 3.3-1.6 3.5 0 .2 3.4.2 7.5 0 5.6-.2 7.8 0 8.7 1.1.7.8 2.1 1.2 3.4.9 2.7-.7 5.6 2.1 3.5 3.4-1 .6-1 .9-.1 1.5.7.4 1.6.2 2-.5.5-.9 1.2-.5 2.4 1.1 2.1 3.1 2 3.9-.4 3.9-1.7 0-1.9.4-1.4 2.6.5 1.8.1 2.9-1.2 3.9-1.6 1.2-1.7 1.6-.5 2.4 1.1.7 1.1 1.5.3 3.9-.9 2.5-.7 3.3.8 4.7 2 1.9 6.5 1.2 7.4-1.2.4-.9 1.3-1.2 2.6-.8 1.3.4 2 .2 2-.6 0-.7 1.6.2 3.5 2.1 3.3 3.2 3.8 3.3 6.5 2.3 2.6-1 3.2-.9 4 .8.8 1.3 2.1 1.9 4.6 1.9 3.4 0 7.3 1.4 8.4 3.1.7 1 11.6-.5 18-2.4 3.8-1.1 4.6-1.8 5-4.2.5-2.7.7-2.8 1.6-1.1.8 1.3 1.6 1.6 2.8.9 1.5-.8 1.5-1.1 0-3.2-1.2-1.6-2.3-2.2-4-1.8-1.9.3-2.4-.1-3-2.7-.3-1.7-1.6-4.2-2.9-5.6-2.7-3-3.8-6.9-2.4-8.7.8-.9.4-1.4-1.8-1.9-4.5-1.1-7.4-4.4-3.8-4.4 1.9 0 1.9-1.4 0-3-1.1-.9-1.2-1.6-.5-2.5.8-1 .4-2-1.5-3.8l-2.7-2.4 3.6-3.5c4-3.9 4.3-5.5 2-10-.9-1.7-1.3-3.9-1.1-4.9.3-1.1-.3-3.6-1.3-5.6-1.3-2.7-1.5-4.5-.9-6.6.6-2.1.4-3.8-.8-6.1-1.3-2.6-1.4-2.9-.1-1.9 1.2 1.1 2 .7 4.6-2.1 1.7-1.9 4-3.7 5.1-4.1 1.5-.4 2.1-1.5 2.1-3.4 0-3.1 1.6-5.1 4.2-5.1 1.1 0 1.8-.7 1.8-2s.7-2 2-2c2 0 2.6-1.7 2.2-6.3-.1-.9.3-1.7.9-1.7.8 0 .7-.5-.1-1.5-.7-.9-1.9-1.4-2.6-1.1-.7.3-1.6.1-1.9-.4-.4-.6-.9-.9-1.3-.9-.4.1-2.9.5-5.5.9zM353 368.45c-.7.8-1.9 1.5-2.6 1.5-.8 0-1.4.4-1.4.9 0 2.8 5.6 1.9 6.3-1 .7-2.5-.7-3.3-2.3-1.4z"/><path d="M119.5 372.25c.7 1.7 4.2 3.3 5.2 2.3.4-.3 0-.6-.7-.6s-2.2-.8-3.2-1.7c-1.7-1.5-1.8-1.5-1.3 0zM128.2 373.65c-1.5.6-.6 2.3 1.4 2.3.8 0 1.4-.7 1.4-1.5 0-1.5-.6-1.7-2.8-.8zM7.2 380.95c0 1.4.2 1.9.5 1.2.2-.6.2-1.8 0-2.5-.3-.6-.5-.1-.5 1.3zM10 379.55c0 .9 4.7 5.2 7.1 6.4 1.4.8 1.8 1.7 1.4 3.1-.4 1-.2 1.9.3 1.9 1.8 0 1.9-2.4.3-5.2-.9-1.5-2.2-2.8-2.8-2.8-.7 0-1.3-.6-1.3-1.4 0-.8-.7-1.7-1.6-2-2-.8-3.4-.8-3.4 0zM10.4 384.45c.3.8-.2 1.8-1.1 2.3-1.4.8-1.4 1 .1 1.5 1.7.7 4.1-2.6 3.1-4.3-1-1.6-2.8-1.2-2.1.5zM2.8 391.65c-1 .2-1.8.8-1.8 1.1 0 .4-.3 1.7-.6 2.9-.4 1.4-.2 2.3.5 2.3.6 0 1.1-1 1.1-2.1 0-1.2.8-2.8 1.8-3.5 1.8-1.4 1.7-1.4-1-.7zM437 393.65c2.5.9 4.1 2.6 3.2 3.2-.5.3-.7 1.4-.3 2.3.5 1.5.9 1.4 2.8-.8l2.1-2.4-2.4-.6c-1.3-.3-2.4-1-2.4-1.5s-1-.9-2.2-.8c-1.5 0-1.8.2-.8.6zM449.2 396.55c-1.6 1.6-1.9 2.3-1 2.6 2.4.8 4.8-.4 4.5-2.3-.4-2.7-.9-2.8-3.5-.3zM0 400.95c0 .5.5 1 1 1 .6 0 1-.5 1-1 0-.6-.4-1-1-1-.5 0-1 .4-1 1z"/></g></svg>