<?xml version="1.0" standalone="no"?>
<!DOCTYPE svg PUBLIC "-//W3C//DTD SVG 20010904//EN"
 "http://www.w3.org/TR/2001/REC-SVG-20010904/DTD/svg10.dtd">
<svg version="1.0" xmlns="http://www.w3.org/2000/svg"
 width="807.422750pt" height="372.734870pt" viewBox="0 0 807.422750 372.734870"
 preserveAspectRatio="xMidYMid meet">
<metadata>
Created by potrace 1.15, written by Peter Selinger 2001-2017
</metadata>
<g transform="translate(-557.618615,1118.231869) scale(0.100000,-0.100000)"
fill="#222222" stroke="none">
<path d="M7725 11157 c8 -30 -31 -91 -52 -83 -28 11 -42 -6 -49 -60 -3 -30
-10 -54 -16 -54 -5 0 -8 -6 -6 -13 2 -7 -12 -27 -29 -45 -18 -17 -33 -38 -33
-46 0 -8 -6 -16 -12 -19 -21 -8 -112 5 -120 17 -5 8 -8 7 -8 -1 0 -7 -24 -26
-52 -43 -47 -26 -49 -37 -6 -32 11 2 16 -24 7 -39 -7 -11 -9 -11 -9 -1 0 7 -4
11 -9 8 -5 -4 -3 -28 5 -59 18 -68 18 -78 -3 -75 -10 2 -19 -4 -21 -15 -3 -12
5 -19 27 -23 34 -7 39 -18 16 -31 -13 -8 -13 -11 1 -31 18 -26 71 -31 80 -7 4
8 10 15 15 15 5 0 6 -37 2 -87 -4 -64 -3 -84 5 -79 8 5 12 0 12 -12 0 -27 49
-59 61 -41 7 11 11 10 23 -6 18 -24 20 -35 5 -35 -6 0 -22 -9 -36 -20 -14 -11
-34 -20 -44 -20 -10 0 -34 -16 -53 -35 -20 -19 -40 -35 -46 -35 -6 0 -13 -6
-16 -14 -3 -8 -13 -12 -23 -9 -9 2 -23 -3 -30 -11 -8 -9 -21 -16 -30 -16 -30
0 -99 -39 -106 -59 -3 -12 -19 -21 -40 -25 -40 -8 -49 -19 -36 -43 6 -10 13
-35 16 -55 3 -21 18 -50 35 -68 16 -17 29 -39 28 -48 -3 -34 4 -48 33 -70 24
-19 32 -22 44 -12 12 10 20 9 40 -4 14 -9 25 -21 25 -26 0 -6 7 -10 17 -10 9
0 13 -3 10 -7 -11 -10 14 -33 35 -33 14 0 18 -5 14 -16 -4 -10 3 -18 24 -26
17 -5 30 -14 30 -20 0 -5 9 -6 21 -3 34 11 69 -3 69 -28 1 -21 1 -21 15 -3 12
16 17 17 30 6 13 -11 20 -11 40 0 20 11 27 11 40 0 8 -7 13 -16 10 -20 -2 -4
9 -20 26 -36 24 -23 28 -34 24 -56 -4 -15 -1 -45 6 -65 7 -21 14 -54 15 -73 5
-62 16 -100 33 -113 9 -6 23 -28 31 -47 18 -46 29 -60 57 -71 13 -5 23 -15 23
-22 0 -8 11 -20 25 -27 15 -8 25 -22 25 -36 0 -16 10 -26 39 -37 22 -9 46 -26
54 -38 10 -13 22 -19 31 -16 11 5 16 0 16 -13 0 -12 -12 -23 -34 -31 -19 -7
-33 -16 -30 -21 3 -4 -1 -8 -9 -8 -13 0 -15 -23 -6 -55 7 -22 -13 -56 -29 -51
-13 5 -20 -4 -30 -34 -6 -22 -12 -49 -12 -60 0 -11 -4 -20 -9 -20 -18 0 -20
-31 -4 -65 9 -19 20 -35 25 -35 4 0 7 -26 6 -57 -3 -50 -1 -58 17 -61 11 -3
23 -9 26 -14 4 -6 12 -7 18 -4 8 5 7 12 -4 22 -8 9 -15 21 -15 28 0 18 44 36
86 36 21 0 33 4 29 10 -8 13 56 13 92 -1 22 -8 30 -7 39 6 11 14 15 12 41 -20
15 -20 48 -45 73 -56 42 -19 45 -19 57 -3 12 16 13 15 13 -9 0 -14 5 -37 11
-50 9 -20 8 -30 -5 -50 -14 -20 -15 -29 -5 -51 7 -14 16 -26 20 -26 4 0 20
-11 35 -25 15 -14 35 -25 45 -25 20 0 35 -16 20 -22 -12 -4 -15 -47 -6 -75 4
-12 13 -19 20 -17 7 3 24 -6 38 -20 15 -14 34 -26 43 -26 10 0 14 -3 11 -6
-10 -11 33 -64 51 -64 29 -1 60 -33 71 -75 12 -46 48 -73 102 -77 19 -1 54
-10 78 -20 24 -10 66 -20 94 -22 27 -2 52 -8 56 -13 3 -4 20 -15 36 -22 23
-11 26 -15 13 -18 -22 -5 -24 -23 -3 -23 11 0 14 -7 9 -25 -3 -14 -2 -25 4
-25 6 0 8 -9 5 -20 -8 -30 28 -101 49 -96 11 2 20 -4 23 -16 5 -15 10 -17 20
-8 8 7 23 9 34 5 20 -6 22 2 6 40 -12 26 -10 88 2 92 9 3 -3 37 -41 113 -7 16
-20 25 -35 25 -13 0 -34 14 -49 32 -15 17 -35 35 -45 40 -17 9 -15 13 17 45
20 20 36 44 36 53 0 10 7 23 17 30 14 10 10 13 -25 19 -41 6 -42 7 -42 46 0
31 4 40 18 41 9 0 29 2 45 3 19 1 26 -2 23 -11 -7 -17 4 -16 48 2 40 17 42 22
22 50 -8 11 -12 25 -9 32 3 7 0 20 -7 28 -10 12 -9 15 5 15 14 0 15 6 10 33
-4 17 -16 42 -27 54 -11 12 -17 26 -14 31 9 15 -33 102 -52 109 -38 14 -50 33
-45 73 4 31 2 41 -11 46 -11 4 -16 18 -16 46 0 39 1 39 33 37 21 -2 43 4 60
16 14 11 37 28 51 37 13 10 26 28 28 40 2 18 9 23 31 21 22 -2 27 2 27 22 0
13 -6 26 -12 28 -7 3 0 6 15 6 39 1 67 18 67 41 0 15 8 19 43 22 38 3 42 6 45
31 2 16 12 37 23 48 11 11 19 33 19 54 0 30 5 37 33 49 35 14 77 59 77 82 0
16 16 19 25 4 4 -6 12 -4 21 5 9 8 22 15 30 15 8 0 14 10 14 24 0 26 36 42 71
31 11 -4 19 -2 19 4 0 13 30 14 49 2 8 -5 14 -22 15 -38 1 -26 4 -28 54 -33
53 -6 74 2 66 24 -3 8 16 17 48 26 29 7 59 19 67 27 8 8 22 12 32 10 14 -4 19
0 19 14 0 24 2 24 42 -1 22 -13 36 -16 44 -9 8 6 14 7 18 0 8 -12 56 31 56 49
0 13 71 5 103 -12 14 -7 28 -3 58 18 22 15 44 35 49 45 6 10 27 20 50 24 22 4
42 11 46 16 3 5 10 6 16 3 16 -10 86 29 97 54 6 12 15 22 20 22 6 0 15 17 21
38 12 43 73 90 94 73 9 -7 16 -7 23 0 19 19 58 6 61 -19 2 -13 10 -26 17 -28
8 -3 13 -11 11 -17 -1 -7 -1 -9 1 -4 3 4 22 10 44 13 43 7 45 10 24 38 -13 17
-15 18 -15 3 0 -21 -9 -21 -34 -2 -14 11 -16 15 -5 15 8 0 21 5 29 10 12 7 11
13 -10 34 -13 15 -19 26 -13 26 7 0 9 21 7 57 l-3 57 25 -25 c14 -14 26 -36
28 -50 7 -50 15 -58 61 -56 33 2 45 7 49 20 2 10 10 17 18 16 7 -1 28 -1 46 0
28 1 32 4 27 20 -4 14 1 23 17 32 13 6 27 18 31 26 6 10 18 12 37 8 18 -4 31
-2 37 7 4 7 29 14 58 15 28 1 65 4 83 8 30 7 31 8 15 21 -17 13 -17 13 2 14
32 0 45 18 34 48 -11 29 -8 35 15 26 9 -3 16 -17 16 -30 0 -22 10 -29 34 -25
5 1 16 -5 25 -13 9 -7 25 -16 36 -18 11 -3 -7 -6 -39 -9 -42 -3 -64 0 -73 10
-8 7 -17 10 -21 6 -4 -3 2 -13 13 -22 11 -8 19 -19 18 -24 -3 -9 10 -13 39
-10 12 2 15 -4 11 -19 -3 -11 -9 -20 -14 -20 -14 0 -11 -46 4 -58 7 -6 37 -12
67 -14 55 -3 55 -3 55 -35 0 -20 5 -33 12 -33 7 0 17 -9 24 -21 8 -15 18 -20
35 -16 20 3 24 0 24 -18 0 -16 -8 -25 -24 -29 -32 -8 -24 -42 17 -67 26 -15
31 -24 30 -59 0 -30 4 -43 19 -51 11 -6 17 -17 14 -25 -3 -8 -1 -14 4 -14 6 0
10 5 10 12 0 6 9 3 20 -7 11 -10 20 -26 20 -37 0 -15 5 -17 28 -12 15 3 35 15
44 26 10 11 25 18 33 14 9 -3 15 0 15 9 0 8 -4 15 -10 15 -5 0 -10 5 -10 11 0
8 4 8 15 -1 11 -9 25 -6 70 15 62 31 68 36 59 59 -8 20 -24 11 -24 -15 0 -27
-28 -24 -32 4 -2 16 -11 23 -31 25 -35 4 -44 24 -23 54 9 12 16 30 16 38 0 9
11 27 25 40 14 13 25 28 25 34 0 6 11 21 24 34 14 12 27 35 31 50 5 23 69 82
90 82 3 0 15 8 26 18 19 19 19 19 -2 46 -16 21 -19 34 -14 65 l6 39 37 -21
c53 -31 63 -49 66 -124 3 -58 7 -70 31 -90 24 -21 34 -23 102 -20 74 4 143 -8
143 -24 0 -13 103 -139 113 -139 6 0 7 19 4 44 l-6 44 49 6 c52 7 57 18 22 59
-14 15 -13 17 2 17 20 0 39 46 32 75 -4 15 3 25 25 38 22 12 29 22 25 33 -5
13 -1 15 20 11 25 -4 26 -3 20 34 -7 45 2 48 67 25 26 -10 37 -10 37 -2 0 11
55 47 65 43 11 -5 35 57 29 75 -3 12 1 27 12 39 15 16 16 23 6 37 -33 46 -36
62 -16 77 15 11 17 17 8 32 -6 10 -10 34 -8 52 5 39 -23 81 -38 59 -6 -10 -11
-9 -22 5 -12 15 -14 16 -20 2 -3 -8 -18 -20 -33 -26 -24 -9 -30 -7 -46 15 -10
15 -23 24 -28 21 -4 -3 -23 2 -41 11 -20 10 -52 16 -81 15 -34 -1 -59 5 -82
19 -33 20 -33 20 -38 0 -3 -11 -1 -20 4 -20 5 0 9 -4 9 -8 0 -4 -16 -9 -37 -9
-22 -1 -40 -7 -45 -17 -5 -9 -14 -16 -21 -16 -7 0 -29 -5 -49 -10 -30 -9 -37
-15 -35 -33 2 -18 -3 -22 -27 -22 -19 -1 -34 -9 -44 -23 -12 -18 -24 -22 -63
-22 -38 0 -49 -4 -54 -19 -6 -19 -54 -35 -78 -25 -8 3 -30 -13 -50 -35 -23
-25 -51 -44 -75 -51 -27 -7 -42 -17 -45 -31 -4 -14 -10 -18 -18 -13 -7 4 -4
-5 7 -19 10 -15 23 -27 28 -27 5 0 15 -8 22 -17 10 -15 15 -16 25 -5 19 17 54
15 70 -5 12 -16 12 -17 -2 -6 -11 9 -25 10 -50 3 -55 -17 -97 -15 -119 5 -15
14 -23 15 -34 6 -18 -15 -26 -3 -19 30 3 19 18 33 49 48 24 12 44 27 44 32 0
5 7 9 16 9 11 0 14 6 9 20 -3 11 -2 27 3 37 7 12 4 27 -10 52 -29 52 -39 63
-56 56 -8 -3 -22 0 -30 7 -12 10 -14 10 -8 1 8 -15 -17 -57 -28 -46 -4 4 -10
2 -15 -5 -4 -6 -32 -30 -62 -53 -42 -31 -60 -39 -81 -35 -18 4 -28 1 -28 -6 0
-8 -3 -8 -9 -2 -5 5 -11 35 -13 67 -4 47 -2 57 11 57 9 0 23 16 32 37 14 32
14 40 1 65 -8 16 -12 43 -10 60 3 17 -2 53 -10 81 -11 37 -11 51 -2 57 8 5 4
18 -15 46 -15 22 -22 40 -15 42 15 5 42 61 34 73 -4 7 -12 5 -23 -5 -15 -14
-20 -13 -46 4 -36 24 -43 25 -47 4 -2 -12 -15 -4 -50 31 -27 26 -48 50 -48 54
0 3 -15 12 -32 20 -18 8 -41 21 -52 30 -10 9 -21 15 -25 14 -11 -5 -46 9 -53
21 -10 16 -41 14 -54 -4 -9 -11 -42 -15 -140 -17 -121 -3 -132 -2 -180 22 -27
14 -72 27 -100 29 -80 6 -107 15 -137 48 -18 19 -33 28 -44 24 -9 -4 -24 1
-34 10 -24 21 -59 13 -103 -26 -38 -34 -48 -36 -65 -16 -7 8 -21 12 -31 9 -11
-3 -20 -1 -20 5 0 19 -61 19 -97 0 l-35 -19 -46 28 c-26 15 -60 28 -75 29 -16
1 -39 12 -53 25 l-24 22 -2 -24 c0 -13 -1 -30 -1 -36 1 -14 -10 -17 -20 -6
-10 10 -71 10 -84 0 -7 -5 -20 -4 -32 2 -14 8 -22 8 -26 0 -8 -12 -45 17 -45
35 0 15 -114 68 -118 56 -2 -5 -9 -7 -16 -4 -7 3 -33 0 -57 -6 -65 -17 -96
-21 -176 -23 -60 -2 -75 -5 -87 -22 -13 -19 -23 -21 -101 -18 -81 3 -89 1
-118 -23 -24 -20 -38 -25 -64 -21 -28 5 -33 3 -33 -15 0 -17 -4 -19 -26 -14
-14 4 -32 2 -39 -4 -10 -9 -16 -6 -25 11 l-12 21 -17 -23 c-16 -24 -78 -39
-90 -22 -14 19 -110 62 -152 68 -36 5 -47 4 -52 -8 -4 -11 -15 -13 -49 -7 -44
8 -78 -7 -78 -34 0 -6 -15 -11 -34 -12 -18 0 -53 -10 -77 -21 -24 -11 -61 -26
-81 -32 -21 -7 -38 -18 -38 -25 0 -7 -20 -30 -45 -52 -25 -21 -45 -46 -45 -54
0 -21 -20 -40 -42 -40 -15 0 -17 -5 -12 -25 4 -16 2 -25 -6 -25 -7 0 -9 -8 -5
-19 3 -11 1 -28 -6 -38 -9 -15 -8 -26 4 -49 13 -26 13 -35 0 -79 -8 -27 -19
-67 -25 -87 -6 -20 -8 -44 -4 -54 8 -21 -10 -44 -35 -44 -11 0 -21 -9 -25 -24
-4 -16 -11 -23 -20 -19 -21 8 -74 -20 -74 -39 0 -23 -42 -24 -64 -2 -20 19
-20 28 -1 44 10 8 12 17 6 23 -5 5 -4 19 5 35 9 17 10 30 4 36 -6 6 -10 18
-10 28 0 10 -7 18 -17 18 -23 1 -110 80 -97 88 5 4 9 14 9 22 -1 8 3 23 7 33
13 26 1 39 -22 24 -11 -6 -20 -16 -20 -22 0 -5 -4 -16 -9 -23 -7 -12 -14 -11
-38 2 -17 8 -33 12 -37 9 -3 -4 -6 3 -6 15 0 14 7 23 18 23 9 1 24 2 32 3 26
2 38 15 33 36 -6 22 7 26 25 8 9 -9 12 -8 12 6 0 9 5 14 10 11 17 -10 24 25
10 50 -9 16 -11 42 -6 81 4 39 3 61 -6 72 -10 12 -10 16 0 19 15 6 16 35 0 51
-8 8 -8 15 0 25 7 8 9 17 5 21 -4 4 -1 11 7 16 11 7 11 11 1 24 -9 11 -10 16
-2 16 6 0 11 9 11 20 0 11 4 20 9 20 12 0 23 29 15 41 -4 6 -11 6 -19 -1 -10
-9 -19 -6 -34 9 -12 12 -28 21 -36 21 -8 0 -15 8 -15 18 0 10 -7 5 -16 -15
-15 -29 -18 -31 -38 -21 -11 7 -25 11 -30 10 -4 -2 -6 10 -4 27 4 26 1 30 -26
37 -17 4 -34 8 -38 9 -5 1 -18 3 -29 4 -18 1 -19 4 -9 16 10 12 8 20 -11 42
-13 16 -36 39 -52 52 l-28 23 6 -25z m201 -245 c-12 -13 -18 -13 -30 -2 -9 7
-16 19 -16 28 0 8 3 13 6 9 4 -3 13 1 22 10 14 14 16 13 24 -8 6 -16 4 -27 -6
-37z m14 -53 c0 -6 -4 -7 -10 -4 -5 3 -10 11 -10 16 0 6 5 7 10 4 6 -3 10 -11
10 -16z m3950 -693 c0 -3 -4 -8 -10 -11 -5 -3 -10 -1 -10 4 0 6 5 11 10 11 6
0 10 -2 10 -4z m-3771 -80 c26 -26 29 -35 17 -39 -10 -4 -13 -1 -10 7 3 7 -9
25 -26 40 -17 14 -28 26 -23 26 5 0 24 -15 42 -34z m21 -102 c0 -15 -12 -17
-47 -8 -13 4 -23 12 -23 19 0 17 40 24 58 12 6 -5 12 -16 12 -23z m3164 -59
c-4 -8 -8 -15 -10 -15 -2 0 -4 7 -4 15 0 8 4 15 10 15 5 0 7 -7 4 -15z m-107
-39 c-3 -8 -2 -16 4 -18 5 -2 0 -9 -10 -15 -11 -7 -22 -9 -24 -5 -7 12 11 52
24 52 6 0 9 -6 6 -14z m856 0 c16 -12 16 -14 1 -20 -26 -10 -34 -7 -34 14 0
23 8 25 33 6z m-763 -8 c0 -4 -7 -8 -15 -8 -8 0 -15 4 -15 8 0 5 7 9 15 9 8 0
15 -4 15 -9z m1615 -51 c11 -6 23 -16 27 -22 5 -6 8 -5 8 3 0 15 22 16 38 0
19 -19 -17 -70 -45 -63 -23 5 -40 -9 -23 -20 16 -10 12 -25 -5 -19 -8 4 -15
12 -15 19 0 19 -60 67 -76 61 -19 -7 -18 8 1 24 8 7 15 23 15 36 0 24 1 24 28
9 15 -8 36 -21 47 -28z m-1665 8 c0 -8 -7 -15 -15 -15 -8 0 -15 7 -15 15 0 8
7 15 15 15 8 0 15 -7 15 -15z m736 -13 c-22 -5 -30 3 -21 18 5 8 11 7 22 -2
15 -12 14 -13 -1 -16z m-163 -49 c-7 -2 -21 -2 -30 0 -10 3 -4 5 12 5 17 0 24
-2 18 -5z m-2728 -1989 c14 -22 15 -28 4 -35 -27 -17 -49 -8 -68 28 -16 31
-15 33 18 33 20 0 34 -8 46 -26z m125 -153 c0 -5 -9 -7 -20 -4 -11 3 -20 12
-20 20 0 11 4 11 20 3 11 -6 20 -15 20 -19z"/>
<path d="M7952 11038 c3 -7 12 -14 21 -16 12 -2 15 1 11 12 -7 19 -38 22 -32
4z"/>
<path d="M6446 10630 c-14 -39 -25 -54 -50 -64 -56 -25 -116 -86 -116 -119 0
-20 -6 -30 -20 -34 -11 -3 -20 -10 -20 -15 0 -6 -14 -8 -31 -6 -28 4 -30 3
-26 -19 3 -19 -1 -27 -20 -34 -13 -5 -29 -8 -35 -6 -18 4 -68 -104 -62 -134 4
-21 -1 -31 -26 -50 -17 -13 -49 -41 -72 -61 -22 -21 -46 -38 -54 -38 -8 0 -14
-7 -14 -16 0 -12 6 -15 23 -10 12 3 39 6 60 6 30 0 37 4 37 20 0 15 7 20 28
20 15 0 34 4 42 9 8 6 18 7 24 4 5 -4 32 -8 60 -9 88 -6 106 -10 122 -30 8
-10 12 -13 9 -6 -5 10 -3 11 11 4 11 -5 36 -17 56 -25 20 -9 45 -28 54 -42 9
-14 25 -25 35 -25 10 0 24 -9 31 -20 16 -25 52 -26 75 -1 10 10 29 18 42 16
21 -1 24 -7 25 -45 1 -25 7 -45 14 -48 6 -2 12 1 12 7 0 7 13 2 29 -10 16 -12
34 -18 40 -15 16 10 14 -36 -3 -60 -12 -17 -12 -20 2 -20 10 0 38 -4 64 -8 43
-6 47 -5 54 16 5 13 9 34 9 48 0 23 4 25 42 25 32 0 48 6 70 28 16 15 33 27
39 27 5 0 9 15 9 33 0 21 4 31 13 29 23 -4 39 23 39 66 0 23 -3 42 -7 42 -13
0 -34 55 -35 90 0 33 -2 35 -35 35 -32 0 -35 2 -33 27 2 33 31 75 56 84 17 5
16 8 -8 20 -25 13 -30 12 -56 -11 -16 -13 -29 -27 -29 -30 0 -9 -2 -8 -76 14
-39 11 -79 21 -88 21 -9 0 -16 5 -16 10 0 6 -7 10 -15 10 -8 0 -15 -3 -15 -8
0 -4 -19 -8 -42 -9 -24 0 -58 -4 -76 -8 -25 -6 -36 -3 -45 9 -17 23 -97 34
-97 15 -1 -8 -7 -3 -14 11 -19 33 -11 42 27 35 18 -3 39 -1 47 4 12 9 8 18
-27 53 -23 25 -44 57 -48 77 -5 23 -4 31 4 27 6 -4 11 -2 11 5 0 6 14 -3 32
-20 17 -17 42 -31 55 -31 17 0 24 -7 29 -27 3 -16 14 -45 24 -67 10 -21 16
-44 14 -51 -3 -7 -1 -16 4 -19 12 -7 23 44 15 73 -3 14 -1 21 8 21 8 0 4 7 -8
15 -29 20 -59 64 -67 97 -5 22 -3 26 9 22 11 -5 15 1 14 22 0 22 -11 38 -41
62 -23 18 -47 31 -54 28 -7 -3 -14 0 -16 5 -2 6 -12 -12 -22 -41z m234 -734
c0 -2 -7 -6 -15 -10 -8 -3 -15 -1 -15 4 0 6 7 10 15 10 8 0 15 -2 15 -4z"/>
<path d="M8070 10383 c0 -13 5 -23 10 -23 13 0 13 11 0 30 -8 12 -10 11 -10
-7z"/>
<path d="M5775 10192 c-11 -7 -11 -10 -13 -70 -2 -32 -7 -41 -29 -51 l-28 -13
28 -15 c22 -11 32 -12 43 -2 7 6 26 9 41 6 15 -3 32 1 40 8 11 12 6 15 -29 22
-34 7 -44 13 -46 31 -2 13 3 25 12 28 9 3 16 12 16 18 0 20 -24 46 -35 38z"/>
<path d="M8185 10110 c3 -5 10 -10 16 -10 5 0 9 5 9 10 0 6 -7 10 -16 10 -8 0
-12 -4 -9 -10z"/>
<path d="M8165 10090 c3 -5 11 -10 16 -10 6 0 7 5 4 10 -3 6 -11 10 -16 10 -6
0 -7 -4 -4 -10z"/>
<path d="M5617 10015 c-10 -14 -23 -25 -30 -25 -21 0 -8 -79 15 -91 20 -11 56
-4 45 8 -4 3 5 16 19 28 17 15 24 27 19 35 -6 10 -2 12 13 8 25 -7 29 4 7 22
-8 7 -15 19 -15 26 0 24 -53 16 -73 -11z"/>
<path d="M6609 9824 c-9 -12 -10 -15 -1 -10 6 4 12 3 12 -2 0 -6 9 -8 20 -5
12 3 19 11 17 17 -6 18 -33 18 -48 0z"/>
<path d="M6655 9750 c3 -5 8 -10 11 -10 2 0 4 5 4 10 0 6 -5 10 -11 10 -5 0
-7 -4 -4 -10z"/>
<path d="M11080 9543 c0 -12 28 -38 34 -32 2 2 -5 13 -15 23 -11 11 -19 15
-19 9z"/>
<path d="M11130 9526 c0 -8 8 -17 17 -20 20 -8 37 15 20 26 -19 12 -37 9 -37
-6z"/>
<path d="M12875 9379 c4 -11 7 -40 7 -63 1 -33 6 -45 22 -52 12 -5 22 -20 24
-37 3 -26 42 -61 42 -37 0 5 19 10 41 10 36 0 40 2 29 15 -8 10 -9 15 -1 15 7
0 7 7 -1 25 -6 14 -14 25 -18 25 -17 0 -51 44 -47 61 4 13 0 19 -11 19 -10 0
-30 9 -47 20 -38 25 -48 25 -40 -1z"/>
<path d="M13130 9177 c0 -8 7 -14 15 -14 11 0 12 4 4 14 -6 7 -13 13 -15 13
-2 0 -4 -6 -4 -13z"/>
<path d="M13171 9147 c-12 -12 -15 -38 -3 -35 11 3 55 -23 68 -41 7 -8 9 -21
6 -29 -3 -8 1 -17 8 -22 9 -5 9 -13 2 -27 -9 -16 -7 -18 14 -18 14 1 28 6 33
11 11 11 -4 54 -18 54 -5 0 -13 20 -16 45 -4 24 -13 50 -21 56 -8 6 -14 9 -14
5 0 -3 -11 -1 -24 4 -15 5 -27 5 -35 -3z"/>
<path d="M13190 8955 c0 -17 -26 -21 -32 -4 -5 16 -39 -1 -37 -20 2 -27 -13
-61 -27 -61 -8 0 -14 -7 -14 -15 0 -8 -5 -15 -11 -15 -7 0 -9 -16 -4 -49 l7
-48 -46 -29 c-38 -24 -45 -33 -41 -52 5 -20 3 -22 -21 -16 -26 7 -26 6 -19
-37 4 -24 9 -46 11 -48 2 -2 24 -5 50 -8 49 -4 79 16 68 46 -6 19 21 58 46 66
13 4 20 15 20 30 0 14 9 29 20 35 22 12 27 36 8 43 -17 7 12 29 29 22 7 -2 15
0 18 5 16 26 60 -12 78 -65 2 -6 11 -4 20 4 13 10 15 17 6 27 -19 23 -1 16 21
-8 16 -17 23 -19 32 -10 7 7 20 12 30 12 10 0 18 4 18 9 0 9 -26 21 -43 20
-17 -1 -36 36 -37 69 0 19 -5 32 -12 32 -7 0 -30 16 -50 35 -21 18 -38 31 -38
27 0 -3 -5 -1 -12 6 -17 17 -38 15 -38 -3z"/>
<path d="M13570 8880 c0 -5 -11 -10 -23 -10 -27 0 -62 -33 -52 -49 3 -6 -2
-11 -12 -11 -28 0 5 -26 48 -38 34 -9 38 -7 67 24 17 19 36 34 42 34 21 0 9
26 -19 43 -33 19 -51 22 -51 7z"/>
<path d="M13444 8769 c-3 -6 -1 -16 5 -22 6 -6 11 -8 11 -4 0 4 14 1 30 -8 27
-14 30 -14 30 1 0 9 -9 18 -20 21 -11 3 -20 9 -20 14 0 13 -27 11 -36 -2z"/>
<path d="M9357 8083 c-4 -3 -7 -11 -7 -17 0 -6 5 -5 12 2 6 6 9 14 7 17 -3 3
-9 2 -12 -2z"/>
</g>
</svg>
