<?xml version="1.0" standalone="no"?>
<!DOCTYPE svg PUBLIC "-//W3C//DTD SVG 20010904//EN"
 "http://www.w3.org/TR/2001/REC-SVG-20010904/DTD/svg10.dtd">
<svg version="1.0" xmlns="http://www.w3.org/2000/svg"
 width="879.912638pt" height="623.401616pt" viewBox="0 0 879.912638 623.401616"
 preserveAspectRatio="xMidYMid meet">
<metadata>
Created by potrace 1.15, written by Peter Selinger 2001-2017
</metadata>
<g transform="translate(-600.333813,1310.956307) scale(0.100000,-0.100000)"
fill="#222222" stroke="none">
<path d="M11213 13085 c-13 -12 -23 -27 -23 -34 0 -6 -9 -11 -20 -11 -11 0
-40 -20 -63 -45 -26 -26 -53 -45 -65 -45 -15 0 -22 -6 -22 -19 0 -11 -5 -21
-12 -23 -8 -3 -6 -15 9 -39 40 -66 39 -78 -5 -96 -26 -10 -40 -22 -39 -32 0
-9 -2 -28 -6 -42 -5 -18 -2 -31 8 -39 16 -13 21 -40 7 -40 -14 0 -82 -110 -82
-133 0 -28 35 -63 73 -72 33 -9 34 -42 1 -37 -24 3 -46 -35 -37 -67 3 -14 0
-23 -11 -27 -9 -3 -16 -13 -16 -21 0 -15 -23 -15 -62 2 -14 5 -18 2 -18 -14 0
-16 -6 -21 -26 -21 -41 0 -115 -38 -112 -58 2 -9 -5 -18 -14 -20 -13 -2 -18 3
-18 17 0 14 -6 21 -19 21 -10 0 -24 6 -30 14 -14 16 -47 10 -55 -10 -5 -13 -9
-12 -24 3 -10 10 -22 26 -25 36 -4 9 -15 17 -26 17 -21 0 -35 28 -36 69 0 37
-44 56 -126 56 -49 0 -69 4 -69 13 0 6 -6 12 -13 12 -7 0 -19 -6 -26 -12 -11
-11 -13 -9 -9 7 4 15 0 21 -12 21 -15 0 -17 -8 -13 -57 5 -45 2 -57 -11 -62
-9 -4 -16 -2 -16 4 0 6 -4 8 -9 4 -6 -3 -15 4 -21 15 -8 14 -8 20 0 20 7 0 9
8 5 19 -3 12 3 29 18 47 19 23 22 35 16 56 -4 15 -6 43 -4 63 3 27 -1 38 -18
50 -12 8 -23 11 -25 7 -1 -5 -14 -7 -28 -4 -25 5 -26 3 -19 -29 l8 -33 -39 29
c-22 16 -49 38 -61 49 -13 11 -38 21 -57 23 -30 3 -34 0 -39 -25 -5 -24 -11
-29 -36 -29 -20 0 -33 6 -36 17 -4 14 -15 17 -52 14 -72 -6 -89 -22 -92 -88
-2 -51 0 -56 26 -70 30 -15 50 -46 55 -85 3 -20 9 -24 51 -27 26 -2 53 -7 60
-11 7 -4 45 -6 85 -4 53 2 79 -1 97 -13 13 -9 30 -13 38 -10 8 3 17 -2 20 -10
4 -9 17 -16 29 -16 31 -1 53 -19 61 -51 5 -21 2 -28 -18 -37 -15 -7 -25 -20
-25 -32 0 -11 -6 -20 -14 -20 -8 0 -22 -9 -30 -21 -9 -13 -19 -18 -27 -14 -8
5 -10 4 -5 -3 4 -7 3 -12 -1 -12 -5 0 -14 -9 -21 -21 -11 -17 -11 -25 3 -45
14 -22 14 -26 -4 -45 -16 -18 -22 -19 -40 -7 -18 11 -23 11 -30 -1 -7 -10 -12
-8 -24 9 -15 22 -16 22 -26 -16 -6 -22 -11 -48 -11 -60 0 -12 -5 -36 -11 -53
-8 -24 -9 -39 0 -57 8 -19 8 -24 -4 -24 -8 0 -17 -11 -21 -25 -3 -14 -10 -25
-15 -25 -5 0 -9 -8 -9 -19 0 -12 -9 -20 -28 -24 -30 -6 -57 -54 -53 -94 1 -19
-3 -23 -24 -23 -23 0 -24 -2 -15 -20 16 -30 2 -62 -40 -95 -25 -19 -39 -38
-40 -53 0 -15 -11 -29 -29 -40 -24 -14 -31 -25 -35 -62 -5 -43 -3 -144 3 -165
6 -20 -12 -55 -28 -55 -23 0 -54 -39 -48 -61 4 -14 -3 -21 -29 -29 -19 -7 -32
-15 -29 -20 9 -14 -7 -41 -21 -36 -20 8 -74 -14 -74 -29 0 -12 -80 -30 -106
-24 -5 1 -22 -3 -37 -9 -39 -16 -67 -15 -89 5 -17 15 -18 15 -18 -6 0 -19 -4
-21 -39 -15 -24 4 -41 2 -45 -5 -4 -6 -17 -11 -28 -11 -12 0 -29 -7 -39 -16
-14 -13 -21 -13 -40 -4 -14 8 -46 11 -84 8 -50 -4 -66 -2 -86 13 -28 22 -61
24 -89 7 -17 -11 -22 -10 -31 2 -8 12 -12 12 -16 2 -3 -9 -9 -10 -17 -3 -6 5
-30 7 -54 4 -39 -5 -41 -7 -35 -32 6 -25 6 -25 -20 -8 -18 12 -28 13 -33 6 -4
-8 -14 -4 -26 12 -14 16 -18 18 -14 7 6 -21 -19 -25 -27 -5 -7 15 -27 -10 -26
-33 0 -10 3 -8 9 5 8 19 9 19 9 -3 1 -20 -2 -22 -26 -16 -26 7 -27 6 -13 -11
9 -11 10 -16 2 -11 -7 4 -15 1 -18 -9 -4 -10 -16 -15 -33 -13 -14 1 -43 -2
-64 -6 -25 -6 -42 -5 -49 2 -8 8 -16 6 -27 -6 -9 -10 -21 -18 -28 -17 -16 0
-29 15 -13 15 7 0 10 3 7 7 -4 3 -2 11 3 18 5 6 10 27 12 46 1 19 6 37 11 40
14 10 26 96 15 107 -5 5 -11 32 -13 60 -4 60 -12 76 -59 120 -32 30 -53 65
-70 114 -3 10 -11 15 -20 12 -8 -3 -17 0 -21 6 -4 6 -15 8 -24 5 -23 -7 -45
19 -38 45 5 18 -2 24 -19 18 -3 -2 -7 -25 -9 -52 -2 -36 -8 -54 -23 -66 -13
-11 -17 -21 -12 -30 6 -9 -1 -25 -20 -47 -16 -18 -34 -52 -40 -75 -6 -24 -12
-47 -14 -53 -2 -5 1 -18 6 -27 7 -14 5 -18 -10 -18 -10 0 -23 5 -30 12 -8 8
-15 8 -25 -1 -11 -8 -22 -9 -41 -1 -36 13 -36 13 -36 -9 0 -19 -25 -31 -47
-24 -7 3 -13 12 -13 20 0 9 -6 13 -15 10 -8 -4 -22 4 -32 16 -28 36 -42 41
-64 22 -26 -24 -79 -27 -103 -7 -10 10 -21 16 -25 15 -3 -1 -17 1 -30 4 -13 3
-31 2 -40 -3 -19 -11 -238 -10 -263 1 -13 5 -18 3 -18 -9 0 -11 9 -16 29 -16
23 0 31 -6 40 -30 5 -16 15 -30 21 -30 12 0 3 -41 -11 -50 -11 -7 16 -116 37
-148 9 -15 28 -36 42 -48 20 -17 25 -31 28 -77 2 -32 -1 -55 -5 -53 -4 3 -18
-5 -31 -19 -17 -18 -21 -30 -15 -52 4 -15 9 -36 11 -46 2 -10 6 -27 9 -38 7
-22 -12 -52 -27 -43 -5 3 -6 -6 -2 -23 6 -24 5 -26 -8 -15 -13 10 -18 9 -28
-3 -7 -9 -21 -13 -31 -10 -15 5 -19 1 -19 -15 0 -13 -8 -24 -18 -27 -10 -2
-22 -14 -27 -26 -7 -16 -17 -21 -34 -19 -21 3 -23 1 -18 -19 9 -32 -36 -79
-75 -79 -21 0 -28 -5 -28 -19 0 -10 -7 -24 -15 -31 -18 -15 -19 -68 -4 -121 9
-30 9 -42 0 -53 -16 -19 -6 -53 20 -66 23 -13 25 -48 4 -56 -8 -4 -15 -10 -15
-15 0 -5 7 -9 15 -9 10 0 15 -10 15 -29 0 -37 53 -80 79 -64 9 5 28 6 43 2 17
-4 29 -3 32 4 3 7 3 2 0 -11 -3 -13 1 -28 10 -38 19 -18 21 -47 4 -41 -8 2
-19 -13 -28 -37 -11 -29 -22 -42 -38 -44 -12 -2 -22 -9 -22 -15 0 -7 -9 -18
-20 -25 -11 -7 -20 -18 -20 -26 0 -8 -11 -17 -25 -20 -15 -4 -30 -17 -35 -31
-5 -14 -14 -25 -20 -25 -5 0 -10 -5 -10 -11 0 -8 6 -7 17 2 15 12 16 12 9 -6
-4 -11 -8 -22 -8 -25 -2 -20 4 -30 20 -30 19 -1 56 -65 46 -81 -3 -6 2 -17 12
-25 18 -13 18 -15 2 -27 -10 -8 -14 -17 -10 -21 4 -5 0 -6 -8 -5 -8 2 -28 -9
-44 -24 -16 -15 -40 -27 -52 -27 -16 0 -24 -6 -24 -18 0 -13 7 -18 27 -18 32
1 53 -31 53 -82 0 -22 6 -35 18 -39 9 -4 23 -13 30 -20 17 -17 50 3 59 35 3
15 11 21 20 18 10 -4 13 -1 8 13 -6 20 30 51 60 51 8 0 15 9 15 21 0 11 5 29
10 40 7 13 7 19 0 19 -5 0 -10 6 -10 13 0 8 12 13 28 13 47 0 92 21 92 43 0
24 6 25 40 6 34 -20 74 -20 66 0 -6 16 9 21 18 6 3 -4 19 -11 36 -14 36 -8 70
-57 70 -103 0 -17 7 -37 15 -44 8 -7 12 -16 9 -22 -3 -5 0 -16 7 -24 7 -8 13
-37 14 -65 2 -39 -1 -49 -15 -49 -22 0 -40 -20 -40 -44 0 -34 -34 -96 -51 -93
-22 3 -75 -45 -71 -65 2 -9 -7 -23 -19 -31 -11 -9 -18 -20 -14 -27 4 -6 -5
-26 -19 -44 l-25 -34 20 -18 c11 -10 28 -31 37 -46 9 -16 22 -28 29 -28 7 0
19 -13 28 -30 13 -25 18 -28 39 -20 21 8 25 5 30 -16 4 -14 14 -24 24 -24 9 0
29 -20 43 -44 24 -40 102 -96 133 -96 7 0 25 -14 41 -30 35 -36 25 -39 -19 -5
-18 14 -45 25 -59 25 -14 0 -29 5 -32 10 -4 6 -11 7 -17 4 -5 -3 8 -16 31 -27
22 -11 38 -24 35 -28 -2 -4 2 -9 8 -12 10 -4 11 -7 1 -18 -7 -7 -13 -23 -13
-36 0 -16 -6 -23 -20 -23 -11 0 -20 -4 -20 -9 0 -13 26 -32 33 -24 4 3 7 0 7
-7 0 -9 10 -5 27 11 23 21 25 22 18 4 -4 -11 -8 -28 -10 -39 -2 -26 -44 -47
-69 -34 -16 9 -23 6 -39 -13 -11 -13 -24 -23 -28 -22 -5 2 -9 -6 -9 -16 0 -11
-6 -22 -12 -24 -8 -3 -6 -6 5 -6 9 -1 17 -7 17 -14 0 -16 33 -45 57 -49 11 -2
22 6 28 20 15 34 43 29 37 -7 -3 -23 2 -36 24 -56 30 -28 33 -54 10 -87 -11
-15 -15 -16 -41 -2 -15 8 -29 13 -29 12 -24 -48 -32 -58 -43 -58 -7 0 -13 -7
-13 -16 0 -10 -6 -13 -18 -10 -16 6 -17 1 -11 -46 10 -77 19 -98 40 -98 14 0
19 -7 19 -25 0 -14 5 -25 10 -25 6 0 14 -10 19 -22 7 -18 15 -21 69 -20 34 0
64 -4 68 -9 3 -5 9 -7 14 -4 4 3 36 -4 69 -14 39 -12 61 -15 61 -8 0 6 15 -4
34 -22 23 -22 41 -32 57 -29 23 3 24 6 23 83 -2 71 0 77 12 60 10 -14 28 -20
59 -21 44 -2 45 -1 47 30 2 46 4 59 12 78 12 26 -21 84 -55 98 -16 7 -29 18
-29 24 0 6 -15 13 -32 14 -18 2 -34 6 -36 11 -1 4 -9 17 -18 27 -9 13 -13 14
-12 4 2 -8 -1 -14 -7 -15 -5 0 -15 -3 -21 -7 -14 -9 -24 0 -18 17 3 7 1 16 -5
20 -6 3 -11 15 -11 26 0 11 -7 19 -16 19 -20 0 -43 28 -44 53 0 9 -11 27 -25
39 -17 15 -25 32 -25 54 0 17 -7 37 -15 44 -20 17 -20 44 0 36 21 -8 45 42 26
54 -9 5 -11 17 -7 34 5 22 3 26 -16 26 -29 0 -52 14 -47 29 3 7 13 6 33 -4 16
-9 31 -13 34 -10 3 2 -3 7 -12 11 -9 3 -16 10 -16 14 0 9 50 20 50 11 0 -3 4
-12 9 -20 11 -16 51 2 51 24 0 7 5 17 12 21 8 5 9 2 5 -10 -4 -10 -1 -19 8
-22 8 -4 15 -14 15 -24 0 -25 11 -51 19 -46 4 3 13 1 21 -5 13 -7 12 -9 -2 -9
-10 0 -18 -4 -18 -9 0 -4 -11 -20 -24 -34 -24 -26 -24 -27 -5 -37 21 -12 27
-60 7 -60 -8 -1 -6 -6 5 -14 20 -16 22 -32 5 -40 -9 -4 -10 -8 -2 -11 6 -3 9
-17 6 -32 -3 -19 -1 -24 7 -18 8 4 14 -1 18 -15 4 -15 11 -20 24 -17 15 4 17
0 13 -23 -4 -15 -1 -31 5 -34 6 -4 12 -17 12 -29 1 -18 2 -19 6 -4 4 14 12 18
29 14 14 -2 24 1 24 8 0 6 27 24 60 40 56 27 60 31 75 81 8 29 15 69 15 89 0
36 1 37 30 33 16 -2 31 0 33 6 2 6 17 -1 34 -15 28 -24 34 -25 104 -18 40 3
75 12 77 18 2 6 15 11 29 11 14 0 36 9 50 20 30 23 96 26 159 7 35 -10 117
-78 118 -99 2 -14 17 -22 24 -11 10 16 64 3 69 -17 3 -10 16 -23 29 -30 13 -8
24 -17 24 -22 0 -4 7 -8 15 -8 10 0 15 10 15 29 0 17 5 33 10 36 6 3 10 -3 10
-13 0 -11 12 -27 26 -37 23 -15 30 -15 53 -4 14 7 30 12 34 11 4 -1 10 5 13
13 4 8 13 15 20 15 11 0 12 4 4 19 -15 29 -13 66 3 53 14 -11 57 2 57 17 0 6
16 13 35 17 44 8 65 28 65 61 0 20 4 24 20 20 11 -3 23 -1 26 4 3 5 16 9 30 9
17 0 27 8 34 24 7 19 14 23 37 18 40 -7 52 -19 51 -54 -1 -16 5 -34 13 -39 19
-11 35 6 22 23 -6 7 -13 23 -17 34 -6 20 -3 22 39 22 56 1 68 8 59 34 -5 17
-3 19 15 13 18 -5 21 -3 19 17 -3 20 1 23 30 20 38 -4 42 5 7 18 -14 5 -30 21
-37 34 -6 14 -18 26 -27 28 -13 3 -11 7 7 24 19 18 21 25 13 47 l-10 27 88 -4
c74 -4 95 -2 128 15 31 16 40 17 48 6 14 -19 73 -19 83 -1 7 12 19 5 60 -35
29 -28 52 -55 52 -60 0 -5 11 -12 25 -15 14 -4 25 -14 25 -22 0 -11 5 -14 16
-10 9 3 29 6 45 6 19 0 29 5 29 15 0 8 5 15 11 15 5 0 28 14 49 31 21 17 43
28 49 25 5 -4 15 10 22 29 7 19 19 35 26 35 7 0 13 4 13 9 0 16 61 32 77 20
21 -18 93 33 86 61 -4 15 -2 19 9 15 11 -4 17 3 22 25 8 43 -9 73 -36 64 -17
-5 -20 -3 -15 11 4 9 7 19 7 21 0 2 11 4 25 4 22 0 25 3 19 26 -5 18 0 34 14
54 19 25 20 32 9 61 -7 19 -23 43 -37 55 -13 12 -25 33 -25 46 -2 36 -13 48
-45 48 -21 0 -35 9 -50 30 -19 27 -21 34 -10 61 10 23 10 33 1 42 -14 14 -15
30 -1 22 21 -13 27 6 15 42 -9 26 -10 40 -3 44 7 4 8 22 5 44 -5 31 -3 38 13
42 17 4 19 12 16 47 -2 22 -7 49 -11 60 -7 15 -5 17 12 12 12 -4 25 -1 33 9 7
8 19 15 26 15 8 0 17 14 21 30 3 17 10 30 15 30 6 0 7 7 4 16 -4 9 -1 23 5 30
6 7 8 17 5 22 -10 16 37 22 54 7 8 -7 20 -13 25 -12 15 1 55 -63 55 -88 0 -33
81 -88 112 -76 26 10 52 37 61 64 4 10 11 15 17 12 6 -3 24 7 40 24 41 41 64
46 98 23 32 -23 76 -20 139 9 23 11 57 23 77 26 20 3 36 11 36 18 0 6 9 20 20
30 11 10 20 24 20 32 0 17 5 16 35 -3 24 -16 25 -15 42 13 16 29 63 63 87 63
7 0 18 11 24 24 9 21 16 24 44 19 30 -4 35 -1 46 22 12 26 14 26 31 11 23 -21
39 -20 43 1 3 16 4 16 20 0 19 -19 39 -23 35 -6 -1 6 14 19 33 30 19 10 40 31
46 45 l11 26 27 -46 c19 -33 24 -51 18 -62 -6 -10 -5 -27 1 -45 9 -23 8 -32
-8 -48 -10 -12 -13 -21 -7 -21 6 0 12 -15 14 -32 2 -21 10 -36 24 -43 16 -8
19 -15 14 -31 -7 -18 -4 -20 24 -18 50 4 76 -6 92 -37 16 -32 38 -38 48 -13
11 30 6 51 -19 74 -15 14 -25 35 -25 51 0 22 -8 32 -40 50 -25 14 -40 29 -38
39 2 8 -28 59 -65 113 -37 53 -67 101 -67 106 0 12 -45 98 -61 117 -15 18 -24
18 -43 -1 -12 -12 -20 -13 -35 -5 -11 5 -31 10 -45 10 -16 0 -32 9 -42 25 -9
13 -26 27 -37 31 -38 12 -88 56 -82 72 14 37 -199 192 -264 192 -39 0 -91 66
-69 88 15 15 32 16 23 2 -3 -5 1 -10 9 -10 14 0 14 3 4 20 -7 11 -17 20 -23
20 -6 0 -16 9 -23 20 -7 12 -8 20 -2 20 15 0 12 27 -4 33 -13 5 -19 30 -29
122 -4 35 20 60 40 43 9 -7 13 -7 13 1 0 7 8 8 27 0 33 -12 91 -3 115 18 15
13 18 13 29 -5 10 -15 20 -19 48 -15 32 4 40 0 70 -32 24 -27 39 -35 54 -31
24 6 136 -31 152 -50 21 -25 75 -20 75 7 0 6 9 22 19 35 l19 25 7 -23 c10 -32
66 -83 87 -79 10 1 27 -4 39 -12 22 -16 59 -12 59 6 0 6 7 1 16 -11 8 -12 19
-20 24 -17 5 3 37 -9 72 -27 35 -18 66 -31 71 -30 8 2 10 -15 7 -70 -1 -21 5
-47 13 -58 7 -11 12 -33 9 -50 -4 -29 -14 -34 -59 -33 -7 1 -13 -6 -13 -13 0
-8 -7 -26 -16 -40 -14 -21 -15 -27 -3 -42 8 -9 14 -32 14 -51 -1 -27 5 -38 27
-50 15 -9 31 -27 36 -40 8 -23 8 -23 27 -5 13 13 20 15 23 6 2 -6 12 -12 22
-12 10 0 22 -4 25 -10 3 -5 1 -10 -5 -10 -6 0 -2 -12 9 -26 12 -15 21 -38 21
-51 0 -19 4 -23 18 -19 10 4 33 -1 50 -10 31 -15 32 -15 57 13 14 15 23 36 21
46 -2 9 0 17 5 17 5 0 9 -5 9 -11 0 -8 5 -7 16 2 19 15 113 16 142 0 16 -8 21
-7 26 4 8 22 53 19 60 -3 5 -14 14 -17 34 -14 20 3 38 -4 59 -22 17 -14 40
-26 51 -26 12 0 28 -13 40 -34 15 -26 32 -38 61 -46 23 -6 41 -16 41 -22 0 -6
3 -8 6 -5 4 3 15 2 25 -4 15 -7 17 -6 13 6 -4 10 0 15 15 15 12 0 21 -5 21
-10 0 -6 8 -5 20 2 12 8 20 24 20 40 0 24 4 28 29 28 24 0 29 5 33 29 3 22 0
31 -14 34 -17 5 -17 7 2 52 11 26 20 52 20 58 -1 23 -58 80 -74 74 -9 -4 -26
7 -44 27 -15 18 -36 35 -45 39 -11 4 -16 18 -15 46 0 21 -3 44 -6 49 -3 6 -2
13 4 17 7 4 7 12 0 25 -8 15 -6 21 6 28 14 8 16 18 9 63 -4 30 -9 72 -10 94
-2 22 -8 53 -14 68 -6 16 -11 30 -11 32 0 9 66 -17 76 -30 8 -11 13 -12 22 -3
7 7 12 18 12 25 0 7 9 13 20 13 17 0 18 3 10 26 -13 33 -13 34 5 34 11 0 13 8
8 31 -5 28 -4 31 12 22 20 -12 65 5 65 25 0 20 10 14 47 -28 34 -39 78 -56 67
-26 -8 22 34 31 55 12 29 -26 59 -20 63 12 2 15 9 27 17 27 7 0 17 10 22 22 7
19 2 27 -34 51 -47 31 -60 76 -25 85 10 3 18 2 18 -2 0 -4 10 -7 23 -6 29 2
54 49 37 71 -10 11 -9 14 6 14 11 -1 32 -7 48 -13 43 -18 83 -10 90 18 5 18
11 22 28 17 13 -3 26 -10 30 -16 5 -7 8 -6 8 3 0 11 4 11 19 -3 10 -9 25 -14
33 -11 10 4 24 -5 38 -25 17 -24 28 -30 44 -26 36 9 61 -4 74 -36 9 -24 16
-29 32 -25 11 3 23 1 26 -4 3 -5 9 -7 14 -4 4 3 29 -4 55 -15 56 -24 85 -26
85 -5 0 8 9 15 20 15 11 0 20 -4 20 -8 0 -4 20 -18 45 -30 44 -21 54 -35 35
-47 -32 -20 6 -92 71 -135 l43 -29 23 25 c22 23 22 27 8 54 -8 16 -12 31 -7
33 15 9 53 -13 62 -38 6 -15 17 -25 30 -25 11 0 20 -4 20 -9 0 -6 16 -27 35
-48 19 -21 37 -50 40 -65 7 -32 50 -62 165 -117 50 -23 76 -27 82 -10 6 17
-45 68 -58 58 -11 -9 -35 14 -47 44 -3 9 -11 17 -17 17 -14 0 -13 -17 2 -22
13 -5 4 -38 -11 -38 -16 0 -25 61 -10 71 9 5 4 10 -17 15 -16 4 -35 16 -42 26
-7 10 -17 16 -21 14 -4 -3 -13 -1 -21 4 -12 7 -11 12 3 28 16 17 16 22 2 55
-13 32 -13 37 -1 37 8 0 18 -9 21 -20 3 -11 11 -20 16 -20 6 0 6 7 0 18 -8 15
-3 26 28 56 24 23 43 35 53 31 20 -8 34 13 19 28 -13 13 -15 13 -83 15 -32 1
-48 6 -48 15 0 10 -16 12 -65 9 -67 -4 -79 3 -51 31 10 10 11 18 5 24 -7 7 -2
9 15 6 27 -5 56 11 56 30 0 8 -4 7 -11 0 -17 -17 -58 12 -52 36 3 13 -5 22
-29 32 -18 7 -41 12 -52 10 -13 -2 -16 1 -10 11 6 10 5 11 -7 2 -24 -19 -68
-25 -88 -12 -14 9 -17 16 -10 24 10 12 -27 99 -59 136 -8 9 -15 30 -16 45 -4
39 -22 70 -47 78 -11 4 -28 23 -36 43 -8 21 -22 45 -30 54 -14 16 -14 18 1 24
9 4 23 22 31 41 13 30 13 39 0 69 -13 31 -13 36 0 41 21 8 19 57 -4 77 -13 12
-27 15 -46 10 -22 -5 -32 -1 -56 26 -16 17 -35 53 -41 78 -7 26 -23 62 -36 80
-14 17 -19 32 -13 32 9 0 9 5 0 22 -9 17 -9 24 4 33 10 7 14 20 11 32 -4 15 0
22 18 27 l23 7 -25 11 c-25 10 -25 10 16 28 45 20 60 35 44 45 -6 4 -8 11 -5
16 4 5 2 9 -3 9 -5 0 -13 21 -17 46 -6 42 -4 49 18 68 27 23 53 96 44 121 -5
10 1 18 17 24 22 9 37 36 51 91 5 19 4 21 -4 10 -9 -13 -13 -12 -26 8 -22 31
-72 56 -79 39 -3 -8 -8 -6 -16 6 -11 18 -13 18 -32 0 -19 -17 -20 -17 -36 3
-20 25 -49 37 -57 24 -9 -15 -38 -12 -74 6 -31 15 -33 15 -66 -11 -20 -14 -40
-23 -46 -20 -6 4 -46 4 -90 0 -59 -5 -79 -11 -75 -20 7 -19 -40 -25 -63 -8
-18 12 -21 11 -30 -6 -10 -18 -47 -30 -138 -45 -25 -4 -34 -1 -46 18 -16 24
-95 53 -119 43 -8 -2 -24 4 -37 14 -13 11 -20 19 -16 19 4 0 -7 16 -24 35 -17
20 -31 40 -31 45 0 6 -5 9 -11 8 -6 -2 -16 6 -22 17 -7 11 -13 22 -15 25 -2 2
-29 5 -62 6 -51 2 -60 0 -65 -17 -6 -18 -9 -17 -36 12 -22 24 -32 29 -43 20
-7 -6 -16 -8 -19 -4 -4 3 -7 1 -7 -6 0 -7 -5 -9 -10 -6 -8 5 -8 11 0 20 8 9 6
14 -5 19 -9 3 -14 10 -11 14 3 5 -5 7 -18 5 -17 -4 -23 -12 -24 -34 -1 -29
-21 -77 -22 -50 0 11 -4 11 -18 -2 -10 -10 -24 -17 -30 -17 -7 0 -12 -6 -12
-14 0 -8 -7 -16 -15 -20 -8 -3 -15 -14 -15 -25 0 -24 -42 -35 -86 -22 -21 6
-35 5 -47 -4 -11 -7 -34 -11 -60 -8 -39 4 -43 2 -60 -26 -21 -36 -26 -37 -55
-11 -23 22 -42 26 -42 9 0 -5 -4 -8 -9 -5 -5 4 -11 1 -13 -6 -3 -7 -13 -3 -29
13 l-24 24 -3 -22 c-2 -13 -8 -23 -13 -23 -5 0 -23 -10 -39 -22 -21 -15 -27
-25 -20 -37 12 -23 -20 -59 -56 -63 -26 -3 -29 -7 -32 -40 -2 -24 1 -38 8 -38
7 0 10 -7 6 -15 -3 -8 -2 -15 3 -15 4 0 8 -14 7 -30 -1 -24 -5 -30 -18 -27 -9
3 -19 0 -21 -7 -2 -7 -34 -11 -91 -11 -81 0 -89 -2 -108 -24 -19 -24 -20 -24
-51 -8 -60 31 -114 37 -129 14 -8 -13 1 -39 12 -32 18 11 18 -27 1 -44 -11
-11 -21 -30 -23 -43 -3 -20 -8 -23 -43 -20 -22 2 -47 10 -55 18 -13 13 -13 16
3 25 19 11 24 39 6 39 -5 0 -7 5 -3 12 5 8 2 9 -10 5 -10 -4 -24 1 -36 13 -11
11 -27 20 -35 20 -16 0 -20 15 -7 24 5 3 7 18 6 34 -2 26 1 28 25 24 14 -3 32
-9 38 -14 7 -6 20 -8 28 -4 8 3 15 1 15 -4 0 -6 5 -10 10 -10 6 0 10 9 10 19
0 21 16 37 22 22 1 -5 14 -11 28 -13 18 -2 24 1 21 12 -2 8 -6 28 -9 44 -4 25
-2 28 15 24 18 -5 19 -3 9 16 -6 11 -15 28 -21 36 -9 15 -11 19 -13 53 -3 27
-22 20 -22 -8 0 -16 -6 -25 -15 -25 -9 0 -15 9 -15 25 0 22 -9 29 -32 27 -3
-1 -12 6 -19 15 -12 14 -11 15 9 9 18 -6 21 -4 16 9 -4 9 -2 26 4 38 6 12 12
33 14 47 2 13 13 29 24 35 52 26 81 69 61 93 -5 7 -13 41 -16 75 -5 54 -9 62
-28 65 -16 2 -20 8 -16 20 3 9 3 14 -2 10 -14 -13 -57 42 -51 66 3 11 9 31 12
43 5 18 1 23 -19 28 -42 11 -68 -2 -61 -30 5 -20 1 -25 -21 -31 -15 -4 -31 -2
-38 5 -8 8 -8 11 2 11 9 0 8 9 -6 33 -14 24 -17 43 -13 75 5 33 3 45 -9 52
-14 8 -14 9 1 10 21 0 13 29 -14 48 -10 7 -18 20 -18 28 0 8 -11 19 -25 26
-13 6 -22 15 -19 19 10 17 -11 7 -33 -16z m-229 -781 c4 -10 1 -14 -6 -12 -15
5 -23 28 -10 28 5 0 13 -7 16 -16z m2512 -243 c1 -12 9 -30 19 -41 17 -18 13
-46 -6 -35 -5 4 -9 -4 -9 -17 0 -13 -4 -18 -8 -13 -4 6 -14 10 -22 10 -10 0
-16 13 -18 43 -2 23 -8 42 -15 42 -8 0 -8 3 1 12 7 7 12 21 12 31 0 18 2 18
23 5 12 -9 23 -25 23 -37z m4 -137 c0 -8 -5 -12 -10 -9 -6 4 -8 11 -5 16 9 14
15 11 15 -7z m-2710 -104 c0 -5 -4 -10 -10 -10 -5 0 -10 5 -10 10 0 6 5 10 10
10 6 0 10 -4 10 -10z m2375 -37 c5 -13 14 -23 19 -23 13 0 35 -33 36 -54 0
-13 -4 -16 -17 -11 -35 15 -71 17 -94 5 -14 -8 -24 -9 -26 -3 -2 6 -10 19 -18
29 -11 14 -17 16 -23 7 -4 -7 -13 -9 -21 -3 -12 7 -12 13 -1 40 8 19 18 29 26
26 8 -3 14 -1 14 5 0 6 20 9 48 7 38 -2 49 -7 57 -25z m-122 -112 c3 -13 0
-18 -12 -16 -9 2 -19 4 -23 4 -5 1 -8 5 -8 11 0 5 7 7 15 4 8 -4 15 -1 15 5 0
17 7 13 13 -8z m37 -1 c0 -5 -4 -10 -9 -10 -6 0 -13 5 -16 10 -3 6 1 10 9 10
9 0 16 -4 16 -10z m-125 -30 c3 -5 1 -10 -4 -10 -6 0 -11 5 -11 10 0 6 2 10 4
10 3 0 8 -4 11 -10z m467 -243 c47 -32 62 -47 60 -62 -2 -11 -9 -23 -15 -27
-9 -6 -8 -10 2 -17 7 -5 11 -13 8 -17 -7 -12 -107 -5 -107 7 0 5 5 9 10 9 10
0 4 9 -29 47 -13 13 -13 19 1 43 14 26 14 29 0 44 -30 30 6 16 70 -27z m220
-91 c63 -4 157 -38 197 -71 44 -38 77 -47 96 -29 16 16 45 13 45 -6 0 -5 6
-10 13 -10 26 0 45 -52 37 -100 -13 -80 -26 -96 -48 -60 -10 16 -10 20 0 20 8
0 4 7 -7 16 -11 8 -25 12 -33 9 -7 -2 -12 1 -11 8 4 30 -3 41 -11 20 -12 -28
-39 -29 -82 -3 -18 11 -43 20 -55 20 -12 0 -25 5 -28 10 -3 6 1 10 9 10 10 0
13 6 9 18 -11 31 -36 52 -54 47 -9 -3 -20 -1 -24 5 -4 6 -13 9 -21 6 -7 -3
-17 1 -21 9 -5 7 -25 25 -46 39 l-38 26 -18 -21 c-12 -15 -24 -20 -35 -16 -26
10 -14 30 22 41 18 5 32 13 32 18 0 5 4 6 10 3 5 -3 33 -7 62 -9z m-177 -56
c3 -5 2 -10 -4 -10 -5 0 -13 5 -16 10 -3 6 -2 10 4 10 5 0 13 -4 16 -10z m19
-32 c-3 -4 -9 -8 -15 -8 -5 0 -9 4 -9 8 0 5 7 9 15 9 8 0 12 -4 9 -9z m-5006
-524 c-4 -3 -12 5 -18 18 -12 22 -12 22 6 6 10 -10 15 -20 12 -24z m2512 -18
c0 -3 -4 -8 -10 -11 -5 -3 -10 -1 -10 4 0 6 5 11 10 11 6 0 10 -2 10 -4z
m-2970 -53 c-1 -27 -1 -27 -15 -9 -19 25 -19 36 0 36 10 0 15 -10 15 -27z
m3080 7 c0 -5 -2 -10 -4 -10 -3 0 -8 5 -11 10 -3 6 -1 10 4 10 6 0 11 -4 11
-10z m-170 -21 c0 -6 -4 -7 -10 -4 -5 3 -10 11 -10 16 0 6 5 7 10 4 6 -3 10
-11 10 -16z m-2780 -330 c0 -6 -4 -7 -10 -4 -5 3 -10 11 -10 16 0 6 5 7 10 4
6 -3 10 -11 10 -16z m90 -19 c0 -5 -11 -10 -25 -10 -14 0 -25 5 -25 10 0 6 11
10 25 10 14 0 25 -4 25 -10z m-826 -1045 c3 -8 1 -15 -3 -15 -5 0 -11 7 -15
15 -3 8 -1 15 3 15 5 0 11 -7 15 -15z m66 -19 c0 -3 -4 -8 -10 -11 -5 -3 -10
-1 -10 4 0 6 5 11 10 11 6 0 10 -2 10 -4z m1986 -1107 c3 -6 14 -9 23 -6 14 3
17 -1 13 -19 -2 -13 -8 -24 -12 -24 -7 0 -32 27 -44 48 -9 15 10 16 20 1z
m-1800 -156 c-10 -10 -19 5 -10 18 6 11 8 11 12 0 2 -7 1 -15 -2 -18z m1356
-59 c-2 -5 -12 -9 -22 -8 -11 0 -20 -4 -20 -10 0 -6 -4 -4 -10 4 -6 9 -5 17 3
22 16 9 53 4 49 -8z m-1150 -291 c18 -16 25 -63 9 -63 -17 0 -21 -32 -6 -53
22 -32 19 -45 -10 -39 -23 4 -30 13 -26 36 1 5 -5 24 -14 42 -14 31 -14 36 0
64 18 35 22 36 47 13z"/>
<path d="M9610 13027 c0 -7 5 -19 10 -27 8 -13 10 -13 10 2 0 9 6 18 12 20 7
3 2 7 -10 10 -13 4 -22 2 -22 -5z"/>
<path d="M9590 12985 c7 -8 17 -15 22 -15 5 0 3 7 -6 15 -8 8 -18 15 -22 15
-3 0 -1 -7 6 -15z"/>
<path d="M9605 12898 c-5 -18 -12 -25 -22 -21 -22 9 -6 -36 21 -58 24 -20 32
-10 17 20 -8 14 -8 20 1 23 8 3 8 12 1 34 l-11 29 -7 -27z"/>
<path d="M9682 12904 c-17 -19 -33 -64 -26 -75 3 -5 0 -9 -5 -9 -6 0 -11 -9
-11 -19 0 -11 -7 -26 -15 -35 -14 -13 -12 -16 12 -28 38 -18 39 -34 3 -42 -27
-5 -29 -8 -21 -25 6 -10 7 -21 4 -25 -12 -12 31 -46 59 -46 20 0 28 5 28 18 0
10 3 22 7 25 3 4 7 50 9 103 2 72 -2 105 -15 133 -13 31 -19 36 -29 25z"/>
<path d="M10099 12663 c6 -29 38 -80 44 -72 3 2 2 24 -2 49 -5 36 -10 46 -27
48 -19 3 -21 0 -15 -25z"/>
<path d="M11510 12346 c0 -9 5 -16 10 -16 6 0 10 4 10 9 0 6 -4 13 -10 16 -5
3 -10 -1 -10 -9z"/>
<path d="M11521 12316 c12 -10 60 -16 54 -6 -3 5 -18 10 -32 10 -15 0 -24 -2
-22 -4z"/>
<path d="M11530 12080 c0 -5 7 -10 16 -10 8 0 12 5 9 10 -3 6 -10 10 -16 10
-5 0 -9 -4 -9 -10z"/>
<path d="M7850 11351 c0 -11 29 -35 35 -29 2 2 -4 12 -15 21 -11 9 -20 13 -20
8z"/>
<path d="M14592 10496 c2 -14 11 -21 29 -23 21 -1 26 2 22 17 -3 10 -16 20
-29 23 -21 4 -25 1 -22 -17z"/>
<path d="M14660 10505 c6 -8 9 -23 5 -34 -8 -26 10 -35 30 -15 12 13 13 19 4
24 -6 4 -9 12 -5 18 3 5 -1 13 -10 16 -27 10 -37 7 -24 -9z"/>
<path d="M11861 9394 c0 -11 3 -14 6 -6 3 7 2 16 -1 19 -3 4 -6 -2 -5 -13z"/>
<path d="M12130 9400 c-13 -8 -12 -10 3 -10 9 0 17 5 17 10 0 12 -1 12 -20 0z"/>
<path d="M12114 9366 c-8 -22 3 -33 18 -18 9 9 9 15 0 24 -9 9 -13 7 -18 -6z"/>
<path d="M11654 9329 c-5 -9 3 -13 20 -10 5 1 13 -4 17 -11 7 -10 9 -9 9 3 0
18 -37 33 -46 18z"/>
<path d="M12091 9318 c-1 -12 -9 -18 -25 -18 -14 0 -28 -5 -31 -10 -4 -7 -24
-8 -50 -4 -29 4 -55 1 -74 -7 -34 -15 -35 -17 -21 -39 10 -16 -14 -50 -36 -50
-8 0 -13 -11 -13 -27 0 -43 -12 -97 -25 -106 -7 -6 -4 -7 7 -3 10 3 29 -1 42
-10 21 -14 24 -14 38 6 14 20 22 21 92 17 43 -3 81 -9 86 -14 13 -13 70 -3 76
14 4 10 9 11 19 2 22 -18 16 5 -11 45 -14 20 -25 43 -25 51 0 8 -5 17 -11 20
-6 4 -9 29 -8 55 2 32 -3 56 -14 72 -13 19 -16 20 -16 6z"/>
<path d="M11567 9291 c5 -19 33 -51 33 -37 0 4 9 2 20 -4 11 -6 25 -8 31 -5
15 10 -10 36 -31 33 -10 -2 -27 5 -38 15 -20 18 -20 18 -15 -2z"/>
<path d="M11640 9301 c0 -5 7 -12 16 -15 14 -5 15 -4 4 9 -14 17 -20 19 -20 6z"/>
<path d="M11676 9254 c-4 -19 -4 -39 -1 -44 4 -6 0 -13 -8 -15 -19 -8 -13 -91
7 -114 18 -20 21 -41 6 -41 -5 0 -10 -7 -10 -15 0 -8 -4 -15 -10 -15 -18 0
-10 -18 11 -23 16 -4 18 -3 9 8 -13 15 3 30 20 20 6 -4 9 -1 8 7 -2 9 6 12 25
11 15 -1 27 3 27 8 0 5 9 22 20 37 l20 27 -35 65 c-19 36 -35 72 -35 81 0 9
-11 21 -24 27 -22 10 -24 8 -30 -24z"/>
<path d="M6853 8831 c-8 -13 -9 -22 -3 -26 11 -7 24 18 18 35 -2 6 -9 1 -15
-9z"/>
<path d="M9680 8208 c0 -9 5 -20 10 -23 13 -8 13 5 0 25 -8 13 -10 13 -10 -2z"/>
<path d="M6620 8121 c0 -12 5 -21 10 -21 6 0 10 6 10 14 0 8 -4 18 -10 21 -5
3 -10 -3 -10 -14z"/>
<path d="M10056 8130 c-11 -3 -15 -9 -10 -13 10 -6 42 9 34 16 -3 3 -14 1 -24
-3z"/>
<path d="M6142 8068 c-7 -7 -12 -18 -12 -25 0 -7 -9 -22 -21 -34 l-21 -21 21
-22 c12 -12 21 -28 21 -34 0 -8 19 -12 54 -12 48 0 58 -4 87 -32 18 -18 32
-40 31 -49 -2 -11 14 -23 47 -38 60 -25 61 -26 61 -3 0 13 2 14 9 3 7 -11 12
-10 27 8 10 11 27 21 37 21 15 0 17 3 9 13 -6 7 -12 30 -14 52 -3 35 -7 41
-35 50 -24 7 -36 18 -44 42 -9 30 -14 33 -49 33 -28 0 -43 6 -54 22 -13 18
-18 19 -31 8 -12 -10 -15 -10 -15 4 0 13 -4 14 -25 4 -20 -9 -28 -8 -43 5 -22
20 -25 20 -40 5z"/>
<path d="M6594 8057 c-34 -8 -43 -15 -53 -44 -10 -25 -18 -34 -30 -30 -16 4
-17 1 -5 -32 17 -48 17 -61 -2 -61 -9 0 -14 -7 -12 -17 2 -10 9 -18 15 -18 7
0 18 -6 25 -12 10 -10 8 -13 -7 -13 -10 0 -15 -3 -12 -7 4 -3 -2 -13 -14 -21
-11 -8 -24 -23 -28 -34 -7 -19 -9 -19 -23 -4 -23 22 -29 20 -23 -7 4 -14 -1
-30 -15 -44 -24 -26 -25 -33 -5 -33 8 0 15 -4 15 -9 0 -13 -30 -22 -43 -14 -7
4 -6 -1 2 -10 8 -10 11 -21 7 -24 -12 -12 -40 -12 -48 0 -5 8 -8 7 -8 -4 0
-18 -37 -33 -46 -18 -3 5 -10 9 -16 9 -6 0 -3 -9 7 -20 16 -18 18 -35 16 -108
-1 -48 -6 -91 -10 -97 -5 -5 -11 -22 -15 -37 -5 -23 -3 -28 11 -28 17 -1 17
-1 1 -14 -13 -9 -14 -16 -6 -24 6 -6 12 -26 13 -46 2 -25 13 -43 37 -64 18
-17 36 -28 40 -26 13 9 9 34 -6 34 -11 0 -26 20 -26 36 0 11 66 35 86 31 17
-3 24 0 24 10 0 9 6 13 14 10 10 -4 18 4 25 24 5 16 14 29 18 28 16 -4 43 13
36 24 -4 7 16 8 60 5 37 -3 67 -2 67 3 0 5 9 9 19 9 27 0 52 11 46 20 -3 4 7
11 22 15 17 4 29 2 31 -4 2 -6 13 -11 24 -11 15 0 18 4 13 22 -6 16 -4 20 9
15 12 -5 71 8 84 19 2 1 -1 12 -8 23 -10 19 -8 21 19 21 16 0 33 5 36 11 4 6
19 7 35 4 16 -3 31 -2 35 4 3 6 14 11 24 11 10 0 24 7 31 15 11 14 15 14 29 0
17 -14 26 -12 70 21 1 1 -1 9 -5 16 -5 7 -9 33 -10 58 0 25 -4 56 -8 69 -7 21
-6 23 22 16 28 -6 30 -4 24 17 -5 21 -4 22 14 8 10 -8 26 -22 36 -30 9 -9 34
-22 55 -29 21 -8 41 -19 45 -25 4 -6 11 -11 15 -11 4 -1 23 -9 40 -18 27 -15
32 -15 27 -2 -4 9 0 15 9 15 9 0 21 16 28 38 6 20 16 42 21 49 15 19 0 51 -32
65 -16 7 -31 20 -33 30 -3 10 -17 23 -31 29 -23 11 -28 10 -40 -6 -12 -17 -18
-18 -55 -6 -23 6 -45 10 -50 7 -5 -3 -14 1 -21 9 -9 11 -30 15 -74 14 -34 0
-70 1 -81 3 -23 4 -34 -34 -15 -57 13 -15 -3 -31 -20 -20 -6 4 -16 2 -23 -3
-16 -13 -57 3 -57 23 0 8 -4 15 -10 15 -5 0 -10 7 -10 15 0 8 -8 15 -19 15
-19 0 -45 23 -36 32 3 3 -1 11 -10 18 -11 9 -15 9 -15 1 0 -9 -5 -9 -20 -1
-11 6 -20 17 -20 25 0 8 -5 15 -10 15 -6 0 -15 11 -20 25 -6 15 -17 25 -29 25
-10 0 -24 7 -31 15 -8 9 -21 13 -32 9 -20 -6 -46 10 -57 36 -5 13 -14 14 -47
7z m286 -207 c0 -5 -2 -10 -4 -10 -3 0 -8 5 -11 10 -3 6 -1 10 4 10 6 0 11 -4
11 -10z m-430 -232 c10 -21 10 -22 -3 -5 -10 12 -17 14 -22 7 -7 -11 -25 -4
-25 11 0 19 40 8 50 -13z"/>
<path d="M7750 8055 c-10 -12 -10 -21 0 -45 7 -16 16 -30 21 -30 12 0 11 17
-1 25 -11 7 5 45 24 57 6 5 2 8 -10 8 -12 0 -27 -7 -34 -15z"/>
<path d="M6040 7940 c0 -19 3 -21 12 -12 9 9 9 15 0 24 -9 9 -12 7 -12 -12z"/>
<path d="M6090 7950 c-9 -6 -10 -10 -3 -10 6 0 15 5 18 10 8 12 4 12 -15 0z"/>
<path d="M6005 7910 c3 -5 8 -10 11 -10 2 0 4 5 4 10 0 6 -5 10 -11 10 -5 0
-7 -4 -4 -10z"/>
<path d="M6345 7640 c3 -5 8 -10 11 -10 2 0 4 5 4 10 0 6 -5 10 -11 10 -5 0
-7 -4 -4 -10z"/>
<path d="M7178 7428 c-3 -18 1 -27 19 -35 29 -14 31 1 4 36 l-18 24 -5 -25z"/>
<path d="M7453 7363 c-18 -37 -17 -41 12 -35 16 3 25 11 25 23 0 11 0 22 1 27
1 20 -28 9 -38 -15z"/>
<path d="M7360 7300 c0 -19 -44 -29 -61 -14 -23 21 -29 17 -29 -16 0 -17 9
-39 20 -50 11 -11 20 -31 20 -45 0 -16 6 -25 15 -25 8 0 15 7 15 15 0 8 5 15
10 15 6 0 10 7 10 15 0 16 34 55 49 55 5 0 11 11 13 25 5 26 -6 35 -16 13 -3
-9 -8 -8 -16 5 -12 19 -30 23 -30 7z"/>
<path d="M6385 7170 c-9 -14 1 -27 25 -33 17 -4 18 -2 10 13 -13 25 -27 33
-35 20z"/>
<path d="M6345 7094 c-8 -18 -15 -39 -15 -49 0 -9 -4 -14 -9 -11 -11 7 -23
-78 -14 -100 4 -12 3 -15 -5 -10 -7 4 -12 2 -12 -3 0 -6 -9 -11 -20 -11 -35 0
-21 -18 19 -25 67 -11 111 -13 105 -4 -3 5 4 9 15 9 15 0 22 9 27 35 5 30 10
35 34 35 26 0 56 21 44 32 -2 3 7 6 21 6 17 0 25 -6 25 -17 0 -26 45 -62 59
-48 8 8 11 6 11 -6 0 -17 1 -17 25 0 24 18 34 43 16 43 -5 0 -13 9 -16 21 -5
14 -10 18 -17 11 -9 -9 -36 -1 -86 24 -1 1 2 13 7 27 11 29 0 37 -54 37 -18 0
-38 6 -44 14 -7 8 -32 16 -56 18 -42 3 -46 1 -60 -28z"/>
<path d="M6580 7046 c0 -8 5 -18 10 -21 6 -3 10 3 10 14 0 12 -4 21 -10 21 -5
0 -10 -6 -10 -14z"/>
</g>
</svg>
