<?xml version="1.0" standalone="no"?>
<!DOCTYPE svg PUBLIC "-//W3C//DTD SVG 20010904//EN"
 "http://www.w3.org/TR/2001/REC-SVG-20010904/DTD/svg10.dtd">
<svg version="1.0" xmlns="http://www.w3.org/2000/svg"
 width="674.993227pt" height="803.693992pt" viewBox="0 0 674.993227 803.693992"
 preserveAspectRatio="xMidYMid meet">
<metadata>
Created by potrace 1.15, written by Peter Selinger 2001-2017
</metadata>
<g transform="translate(-701.037865,1422.000000) scale(0.100000,-0.100000)"
fill="#222222" stroke="none">
<path d="M7050 14210 c0 -5 5 -10 10 -10 6 0 10 5 10 10 0 6 -4 10 -10 10 -5
0 -10 -4 -10 -10z"/>
<path d="M7057 14166 c-9 -7 -17 -20 -17 -29 0 -8 -7 -17 -15 -21 -19 -7 -20
-26 -2 -26 8 0 19 -11 25 -25 6 -14 15 -25 20 -25 19 0 73 -64 69 -82 -3 -10
-1 -21 5 -24 13 -8 0 -57 -18 -67 -8 -5 -12 -12 -9 -18 4 -5 -1 -9 -9 -9 -20
0 -20 -4 -1 -41 9 -16 16 -51 17 -76 0 -26 4 -54 8 -63 4 -8 16 -34 25 -57 10
-24 26 -45 37 -48 10 -4 25 -20 33 -36 14 -26 14 -32 0 -51 -21 -31 -19 -38 9
-38 21 0 69 -22 150 -67 17 -10 24 -10 34 1 16 15 62 9 62 -9 0 -6 9 -20 20
-30 26 -24 26 -27 -12 -64 -23 -23 -39 -30 -54 -27 -18 5 -21 2 -19 -18 2 -13
8 -33 14 -44 9 -17 6 -23 -22 -39 -46 -28 -66 -33 -72 -22 -4 5 -11 7 -16 4
-5 -4 -12 0 -15 9 -9 24 -30 8 -29 -22 1 -23 7 -27 33 -30 22 -2 34 2 38 12 5
14 10 14 39 2 28 -12 35 -12 47 1 16 15 13 17 77 -63 19 -23 23 -54 7 -54 -12
0 -13 -4 -3 -23 20 -38 41 -63 58 -69 10 -4 25 -31 34 -60 10 -29 28 -72 42
-96 13 -23 23 -50 21 -60 -2 -9 11 -37 29 -61 18 -24 33 -52 33 -63 0 -11 5
-40 11 -65 10 -36 18 -47 41 -55 l29 -10 -3 -88 c-2 -56 2 -93 9 -102 7 -8 12
-23 11 -33 0 -11 7 -37 16 -57 10 -24 12 -38 5 -38 -16 0 -1 -39 39 -98 33
-49 37 -51 44 -32 4 12 6 26 3 30 -3 5 4 11 15 15 11 4 18 11 14 16 -3 6 -1
16 6 23 6 8 8 25 5 39 -7 25 20 75 52 102 15 12 -1 90 -23 116 -8 8 -14 22
-14 31 0 8 -11 20 -25 26 -22 10 -24 15 -15 32 9 16 6 33 -10 78 -12 31 -27
64 -34 72 -8 8 -16 32 -20 52 -6 33 -3 39 22 58 26 19 29 26 22 56 -6 24 -4
37 7 45 21 18 39 57 53 117 7 29 23 66 37 82 22 27 23 32 12 72 -7 25 -14 37
-17 28 -8 -23 -20 -28 -73 -26 -27 0 -49 -3 -49 -7 0 -5 -4 -5 -10 -2 -17 10
-11 35 8 35 24 0 46 36 27 44 -26 10 -16 25 21 32 26 5 39 3 46 -7 8 -11 9
-10 4 4 -4 13 0 17 19 17 14 0 25 2 25 5 0 17 -33 65 -44 65 -7 0 -21 19 -30
43 -11 28 -37 61 -83 100 l-66 59 -82 -3 c-70 -3 -85 0 -108 18 -14 11 -40 26
-57 33 -27 11 -30 17 -30 54 0 22 -4 57 -9 76 -5 19 -12 52 -16 74 -7 41 -48
88 -70 80 -8 -4 -20 7 -31 28 -9 18 -25 44 -35 57 -11 13 -19 32 -19 42 0 20
-39 35 -65 25 -24 -9 -45 4 -45 28 0 12 -9 27 -21 34 -15 10 -19 20 -15 37 6
24 -44 129 -52 107 -9 -27 -32 -10 -38 28 -4 22 -11 37 -16 34 -5 -3 -14 -1
-21 4 -8 7 -18 6 -30 -2z"/>
<path d="M7926 11893 c-2 -10 -3 -44 -1 -76 3 -67 -2 -97 -19 -97 -13 0 -46
-55 -46 -76 0 -13 -58 -50 -72 -46 -5 1 -8 -7 -8 -18 0 -10 -7 -23 -17 -28 -9
-6 -14 -16 -10 -25 4 -10 -1 -17 -14 -20 -12 -3 -17 -1 -13 6 4 7 0 5 -9 -3
-18 -17 -32 -126 -17 -135 6 -4 8 -10 5 -15 -3 -5 1 -23 9 -39 14 -26 14 -30
0 -41 -11 -10 -21 -10 -38 -2 l-23 10 2 -87 c1 -49 5 -93 9 -100 4 -6 5 -11 1
-11 -3 0 -1 -9 5 -20 8 -16 8 -22 -4 -26 -12 -5 -10 -14 10 -54 13 -26 24 -55
24 -64 0 -8 16 -28 35 -43 30 -24 35 -34 35 -71 0 -34 8 -54 41 -98 31 -42 39
-61 35 -80 -9 -36 9 -62 49 -70 21 -4 37 -13 40 -25 4 -11 17 -27 30 -35 20
-13 24 -23 22 -62 -1 -32 6 -62 21 -94 22 -44 23 -52 13 -140 -11 -93 -7 -107
25 -108 6 0 17 -7 24 -15 7 -8 25 -15 40 -15 34 0 90 -44 90 -70 0 -10 5 -22
10 -25 6 -3 10 -19 10 -35 0 -21 6 -29 23 -34 24 -6 40 -20 83 -73 14 -18 28
-32 32 -32 22 4 28 -4 24 -31 -2 -16 -10 -35 -18 -41 -8 -6 -14 -18 -14 -25 0
-8 -4 -14 -9 -14 -5 0 -12 -13 -16 -29 -3 -16 -12 -35 -20 -41 -20 -16 -37
-100 -27 -134 10 -38 33 -47 26 -12 -3 18 0 26 10 26 8 0 18 -4 21 -10 3 -5
19 -10 35 -10 16 0 32 -4 35 -10 3 -5 17 -10 30 -10 13 0 26 -4 30 -9 7 -12
-22 -41 -40 -41 -20 0 -24 -23 -9 -45 19 -25 18 -65 -1 -65 -19 0 -20 -38 -1
-59 22 -26 32 -72 31 -139 -1 -44 -5 -66 -15 -72 -15 -9 -13 -11 12 -14 7 0
12 -18 13 -42 1 -34 10 -53 51 -103 27 -34 57 -61 67 -61 10 0 28 -11 41 -25
26 -28 53 -32 82 -11 13 10 23 11 31 4 9 -7 13 -7 13 1 0 8 9 7 30 -4 16 -8
38 -15 50 -15 16 0 20 -6 20 -34 0 -19 5 -38 11 -41 13 -9 80 -151 83 -179 2
-11 8 -32 13 -46 6 -14 16 -43 23 -65 7 -22 21 -48 31 -58 19 -18 27 -63 9
-52 -17 11 2 -59 24 -85 18 -22 28 -26 77 -25 62 0 102 -23 97 -56 -2 -9 9
-31 24 -48 15 -16 34 -45 42 -64 l14 -34 -35 -12 c-25 -9 -33 -17 -28 -29 3
-8 1 -18 -4 -22 -19 -11 0 -50 24 -50 14 0 26 -9 33 -25 7 -14 18 -25 24 -24
23 3 38 -1 38 -9 0 -5 -19 -8 -42 -8 -25 1 -43 -4 -45 -11 -3 -7 3 -13 12 -13
12 0 16 -6 12 -20 -4 -15 0 -20 15 -20 15 0 19 5 15 19 -3 14 3 23 24 31 44
19 54 35 39 69 -16 40 1 71 40 71 16 0 32 5 35 10 3 6 15 10 26 10 12 0 19 7
19 20 0 11 7 20 15 20 8 0 12 6 9 14 -4 12 6 14 51 13 48 -1 59 2 78 24 32 37
70 58 88 49 8 -5 52 -11 98 -13 72 -4 86 -2 102 14 10 10 26 19 35 19 8 0 13
4 10 9 -9 14 94 4 112 -12 25 -22 61 -30 77 -17 7 6 39 12 70 13 47 2 59 -2
70 -18 8 -11 20 -27 27 -35 7 -8 13 -27 13 -43 0 -22 10 -36 48 -64 35 -26 47
-31 47 -19 0 22 13 20 37 -6 27 -31 39 -55 47 -102 7 -35 9 -38 35 -33 20 4
35 0 49 -14 12 -10 28 -19 36 -19 17 0 46 -49 46 -78 0 -11 -7 -22 -15 -26 -9
-3 -15 -18 -15 -35 0 -69 -48 -118 -128 -130 -43 -6 -47 -9 -45 -33 1 -20 -2
-25 -13 -21 -8 3 -14 -1 -14 -11 0 -9 -9 -24 -20 -33 -11 -10 -20 -22 -20 -28
-1 -5 -10 -21 -21 -34 l-20 -24 -15 21 c-12 17 -25 22 -63 22 -42 0 -54 5 -95
41 -38 33 -52 40 -76 37 -18 -3 -35 1 -42 9 -9 11 -13 10 -25 -7 -8 -11 -25
-20 -38 -20 -29 0 -38 -40 -17 -83 7 -15 10 -31 8 -36 -3 -5 1 -14 10 -21 8
-7 11 -16 7 -19 -5 -3 -16 -18 -25 -33 l-18 -27 45 -17 c39 -14 50 -26 85 -86
29 -51 38 -76 34 -96 -4 -19 0 -32 10 -41 9 -8 16 -24 16 -37 0 -23 45 -74 66
-74 17 0 86 -79 79 -91 -4 -5 -7 -32 -9 -59 -1 -29 -9 -56 -19 -68 -9 -10 -17
-26 -17 -34 0 -9 -8 -19 -17 -22 -12 -5 -14 -9 -5 -18 7 -7 12 -22 12 -33 0
-18 6 -22 33 -22 17 0 57 -3 87 -6 57 -6 130 7 130 23 0 5 17 18 38 28 69 35
97 52 87 52 -5 0 -2 5 8 11 30 18 39 55 22 96 -20 47 -19 56 5 48 14 -5 20 -2
20 10 0 8 7 18 15 21 8 4 12 10 9 15 -3 5 4 9 15 9 14 0 21 6 21 20 0 26 35
61 55 54 8 -4 15 -1 15 6 0 9 3 10 14 1 7 -6 21 -9 30 -5 10 4 16 1 16 -9 0
-15 37 -30 52 -21 4 3 8 16 8 29 0 34 10 55 26 55 8 0 14 5 14 10 0 6 6 10 14
10 10 0 12 7 8 22 -4 18 -2 20 19 14 13 -4 51 -9 84 -11 33 -3 70 -10 82 -16
17 -9 26 -9 36 -1 7 6 39 14 70 17 48 5 60 2 80 -15 17 -15 23 -28 20 -45 -7
-33 22 -37 73 -9 30 16 45 19 58 12 39 -22 75 -26 113 -13 21 8 56 11 78 9 35
-5 46 -1 87 33 26 21 70 56 98 77 28 22 50 47 50 58 0 13 8 18 29 18 17 0 33
5 37 11 3 6 22 17 41 25 18 8 36 21 40 29 3 8 16 15 29 15 13 0 24 5 24 10 0
14 27 12 37 -2 23 -36 112 -56 99 -22 -8 21 5 17 35 -12 15 -15 25 -32 23 -39
-3 -7 5 -15 18 -19 31 -8 53 -8 44 1 -3 4 15 12 41 19 42 11 52 10 86 -7 21
-11 43 -19 50 -17 7 1 22 -1 33 -5 27 -9 74 8 74 27 0 26 20 28 62 6 24 -12
50 -19 63 -16 14 4 28 0 35 -9 20 -24 34 -18 60 30 14 25 29 45 33 45 5 0 6 7
3 16 -5 14 0 15 31 10 21 -3 61 -7 88 -8 42 -3 53 1 71 21 16 19 32 25 63 25
22 1 41 5 41 9 0 5 18 6 41 2 32 -6 45 -3 61 12 11 10 36 23 57 28 28 8 38 17
46 43 6 20 14 31 22 28 7 -3 13 1 13 9 0 8 9 15 20 15 11 0 20 5 20 10 0 6 12
10 26 10 20 0 25 4 20 16 -4 12 -2 15 9 10 8 -3 15 -2 15 3 0 4 11 6 25 3 25
-4 36 13 13 20 -18 6 -38 99 -31 150 5 42 7 46 27 39 70 -26 71 -26 74 42 2
42 11 75 26 102 19 32 21 45 14 68 -7 19 -6 43 1 72 18 72 16 78 -18 61 -16
-9 -32 -12 -35 -8 -4 3 -11 0 -16 -8 -7 -12 -12 -12 -22 -2 -15 15 -28 15 -28
0 0 -7 -17 -24 -37 -37 -31 -20 -43 -22 -87 -16 -28 3 -59 13 -68 22 -16 14
-20 14 -40 1 -20 -13 -25 -13 -37 -1 -7 8 -20 12 -28 9 -8 -3 -32 8 -54 26
-34 27 -42 30 -50 18 -8 -11 -12 -12 -16 -2 -2 6 -10 12 -17 12 -21 0 -57 46
-59 76 -3 27 -6 29 -39 26 -26 -2 -37 2 -42 14 -4 11 -10 13 -19 6 -19 -15
-147 -24 -142 -9 3 7 -9 27 -26 46 -25 27 -39 34 -76 36 -24 2 -52 10 -62 19
-10 9 -22 16 -28 16 -6 0 -20 12 -30 26 -21 29 -108 63 -163 64 -43 0 -100 34
-75 44 22 8 27 8 21 -3 -3 -5 3 -11 14 -14 13 -3 20 0 20 10 0 8 5 11 11 7 6
-3 3 8 -5 25 -9 17 -23 31 -30 31 -13 0 -41 20 -87 62 -15 14 -17 22 -8 48 8
21 8 39 0 61 -15 43 -14 99 2 105 8 3 11 17 9 38 -3 25 2 40 18 56 20 20 21
23 6 54 -8 18 -13 41 -10 52 5 20 -31 54 -90 84 -41 20 -91 96 -92 140 -2 48
-14 111 -26 137 -12 24 -89 83 -110 83 -12 0 -48 81 -57 127 0 4 -7 1 -13 -5
-10 -10 -16 -8 -30 10 -15 20 -18 21 -18 5 0 -11 -12 -22 -30 -28 -20 -7 -30
-18 -30 -31 0 -18 -5 -19 -42 -14 -72 11 -158 9 -173 -4 -8 -6 -19 -9 -25 -5
-6 4 -34 -18 -63 -48 l-52 -54 -65 8 c-106 12 -220 -8 -220 -38 0 -7 -9 -13
-20 -13 -19 0 -66 -17 -123 -46 -16 -8 -34 -14 -42 -14 -7 0 -15 -9 -18 -20
-4 -15 -14 -20 -36 -20 -18 0 -45 -9 -60 -21 -23 -17 -32 -19 -50 -10 -18 10
-23 8 -40 -20 -11 -18 -22 -26 -25 -20 -10 16 -46 13 -52 -4 -5 -11 -10 -12
-26 -4 -11 6 -32 9 -46 6 -32 -6 -69 10 -75 33 -2 9 -19 25 -37 34 -40 20 -38
20 -43 -1 -4 -15 -6 -15 -12 5 -4 12 -13 22 -21 22 -7 0 -29 9 -49 20 -42 24
-88 26 -105 5 -23 -27 -61 -14 -109 38 -30 32 -53 36 -108 18 -37 -12 -43 -12
-81 13 -23 14 -42 33 -42 42 0 8 -13 20 -28 27 -27 12 -58 33 -126 90 -19 15
-39 27 -45 27 -6 0 -11 11 -11 25 0 13 -11 41 -25 61 -14 21 -24 43 -21 50 3
7 -4 23 -14 36 -15 18 -19 20 -20 7 0 -9 -10 -19 -22 -23 -17 -4 -29 1 -46 22
-19 23 -24 25 -32 12 -5 -8 -10 -21 -10 -27 0 -8 -14 -13 -35 -13 -29 0 -36 4
-41 26 -5 20 -11 24 -27 20 -22 -5 -52 21 -63 57 -4 12 -17 29 -30 39 -14 11
-21 25 -17 34 11 30 -97 234 -131 247 -10 4 -20 -1 -26 -13 -8 -15 -21 -20
-54 -20 -48 0 -79 19 -99 60 -9 19 -22 26 -50 28 -23 2 -37 8 -37 17 0 8 -6
18 -12 22 -7 4 -24 30 -37 56 -13 26 -41 67 -62 91 -33 38 -37 46 -24 56 8 7
12 17 8 24 -4 6 -9 22 -10 36 -4 57 -17 96 -36 118 -27 30 -44 127 -38 217 2
17 -1 60 -5 97 -5 48 -3 72 6 82 7 10 9 27 5 47 -5 22 -3 34 6 40 11 6 9 21
-8 76 -12 37 -24 83 -28 101 -4 18 -18 46 -32 62 l-25 30 21 36 c21 34 21 38
5 55 -9 11 -15 19 -12 19 3 0 2 15 -2 34 -4 20 -3 39 2 44 14 14 -32 92 -54
92 -10 0 -24 13 -32 29 -16 29 -40 41 -88 41 -15 0 -29 4 -32 9 -3 4 -27 16
-53 26 -86 33 -144 77 -163 123 -6 13 -14 20 -20 17 -5 -3 -20 1 -33 10 -22
14 -29 14 -81 -6 l-57 -22 -27 26 c-16 15 -32 27 -38 27 -12 1 -90 60 -84 65
6 4 -41 55 -51 55 -4 0 -10 -8 -13 -17z"/>
<path d="M8295 9412 c-19 -14 -37 -42 -27 -42 5 0 17 11 26 25 17 26 17 29 1
17z"/>
<path d="M9190 7970 c0 -5 5 -10 11 -10 5 0 7 5 4 10 -3 6 -8 10 -11 10 -2 0
-4 -4 -4 -10z"/>
<path d="M10250 6422 c0 -7 -5 -12 -10 -12 -6 0 -23 -11 -38 -25 l-26 -25 36
2 c28 1 39 7 48 26 8 17 8 28 0 36 -7 7 -10 6 -10 -2z"/>
<path d="M10156 6326 c6 -26 -21 -96 -38 -96 -5 0 -6 -5 -2 -11 3 -6 1 -15 -6
-19 -9 -6 -6 -10 10 -15 25 -8 42 9 33 32 -3 7 1 13 10 13 19 0 31 73 17 100
-15 28 -32 25 -24 -4z"/>
</g>
</svg>
