<svg version="1" xmlns="http://www.w3.org/2000/svg" width="1660.963" height="1140.567" viewBox="0 0 1245.722 855.425"><g fill="#222"><path d="M111.227 1.07c.4.6-.1 1.6-1.1 2.3-1.6 1.2-1.6 1.4.5 3.5 1.5 1.5 1.8 2.3.9 2.5-.7.2-2 .6-2.9.9-.9.3-2.2 0-2.8-.6-.9-.9-1.1-.8-.6.4.4 1.1-.3 2-2.4 2.9-3.2 1.3-7.6.6-5.3-.9 2.2-1.3-2.3-4.8-7.2-5.5-3.6-.6-5.1-.3-7 1.1-1.5 1-2.3 2.5-2 3.4.7 2.3-4 6.2-6.5 5.4-1.2-.4-2.1-.2-2.1.4 0 1.6-2.9 1.3-4.6-.4-2.3-2.2-3.4-1.8-3.4 1.2 0 4.8-1.2 7.3-3.5 7.9-1.3.3-2.9 1.9-3.6 3.5-.8 2.1-2.1 3.2-4 3.6-1.7.3-2.9 1.2-2.9 2.1 0 1.3-.3 1.3-1.2.4-2-2-3.6-1.4-5.3 2-1.5 3.2-1.5 3.4.6 5.1 3.7 2.9 3.4 14.7-.3 14.7-4.3 0-7.3 6.5-6.2 13.6l.6 4.1-3.4-.5c-1.8-.2-4.1-1.3-5.1-2.3-2.3-2.5-3.4-2.4-4.3.3-1 3.2-3.7 6.7-5.1 6.8-.6 0-1.4 1.3-1.8 3-.4 1.9-1.3 3-2.3 3-1.8 0-4.3 3.1-5.3 6.5-.3 1.4-1.4 2-3.2 2-1.6-.1-2.7.5-2.7 1.2s-.4 1.3-1 1.3c-.5 0-1 .7-1 1.5s-.7 1.5-1.6 1.5c-1 0-1.4.6-1.1 1.4.3.7 0 1.9-.6 2.5-.8.8-.5 1.1 1.1 1.1 1.3 0 2.5-.6 2.8-1.3.2-.7 1.4-1.3 2.5-1.4 2.9-.2 8.8-4.4 9.5-6.6.6-1.9 1.6-1.9 5.8-.1 1.4.5 1.7.4 1.2-.5-.6-1 .1-1.2 3-.9 3.5.3 3.8.1 4.6-3 .8-3.1 2.8-3.6 2.8-.6 0 1.8 3.4 1.8 4.9 0 .9-1 .8-1.6-.4-2.6-2.3-1.9-1.8-3 1.3-3 4-.1 6.4-3.8 5.2-8.1-1.3-4.3-1.3-4.4.4-2.9.8.6 2.8 1.1 4.3.9 1.5-.1 4.7.3 7 1 4.5 1.2 6.7.7 10.5-2.7 1.7-1.5 3.4-1.8 11.5-2.7 2.4-.2 4.8-.7 5.3-1 .6-.4 2.1 0 3.3.8 1.5 1 2.9 1.2 4.6.5 1.8-.6 2.7-.4 3.6.8 1 1.4 1.7 1.5 4.3.6 1.6-.6 3.3-.8 3.6-.5.3.3 1.2.1 2-.6 1.1-.9 1.7-.8 3 .4 1.3 1.4 1.7 1.4 2.1.2.5-1.1 1.7-.8 6.3 1.5 3.7 1.8 6.5 2.6 8.1 2.3 1.6-.4 3.1.1 4.7 1.6 2.3 2.2 4.4 1.9 4.4-.7 0-.8.9-1.4 2.1-1.4 1.5 0 1.9-.4 1.5-1.6-.4-1 .1-2.2 1.1-3 1.3-1 1.4-1.3.4-1.4-.8 0-2 .8-2.7 1.7-1.1 1.5-1.6 1.6-3.4.5-1.5-.9-2.6-1-4-.2-1.8.9-2 .8-2-1.5 0-1.8-.5-2.5-2-2.5-1.1 0-2.9-.9-4-2s-2.6-1.7-3.3-1.4c-.8.3-1.7-.2-2-1-.4-.9-1.4-1.6-2.4-1.6s-2.4-.9-3.1-2.1c-1.6-2.5-.8-3.7 1.2-2 1.2 1 1.4.9.9-.8-.6-2.3-5.2-2.6-6-.4-.3.7-1 1.3-1.5 1.3-.6 0-.8-.6-.5-1.4.3-.8 0-2-.8-2.6-.9-.8-1.4-3.1-1.4-6.5.1-5.9-.7-9.2-2.7-11.3-2-1.9-1.7-4.4.4-4.1 4.7.4 7-.2 7.5-2.1.7-2.6 3.2-2.5 6.5 0 1.6 1.3 2.8 1.7 3.2 1 .4-.6 1.4-.8 2.3-.5 1.2.5 1.6 0 1.5-2.6-.1-2.4.6-3.8 2.6-5.4l2.8-2.2-2.6-4.2c-1.4-2.2-2.6-4.4-2.5-4.8.3-2-.2-3.3-1.3-3.1-.7.2-1.4-.7-1.6-1.9-.2-1.3-.8-2-1.6-1.7-.8.3-2-.2-2.9-1-1.8-1.8-3.1-2.1-2.2-.5z"/><path d="M102.827 33.57c0 1.1.3 1.4.6.6.3-.7.2-1.6-.1-1.9-.3-.4-.6.2-.5 1.3zM395.427 34.87c-.8 4 .1 6.5 2.6 7.7 1.4.6 2.1 1.6 1.9 2.9-.2 1.1-.4 2.8-.5 3.7-.1.9-.5 1.5-.8 1.2-.4-.2-1.1.1-1.4.7-.4.5-1.3.8-2.1.5-1.5-.6-2.2-.3-8.9 3.5-2.2 1.3-5 2.2-6.2 2.1-1.8-.3-2.3.2-2.3 1.7 0 1.8-.6 2.1-4.6 2.1-2.5 0-5.4-.5-6.5-1-1.4-.8-2.5-.7-4.3.5-1.7 1.2-3 1.4-4.3.7-3.7-1.9-9-2.3-10.3-.7-1.1 1.3-1.7 1.2-5.4-1-4.6-2.7-7.2-3.2-7.8-1.4-.2.6-1.5 0-2.8-1.5-3-3.1-5.3-3.3-8.7-.6-3 2.3-4.9 2.5-8.3.5-1.5-.8-2.9-1-3.6-.4-.6.4-3.2 1.1-5.8 1.3-5.2.5-8.6 2.8-8.6 5.7 0 1-.7 2.2-1.6 2.7-.9.5-1.7 2.6-1.9 5.2-.1 2.5-.8 4.6-1.4 4.8-1.6.5-1.3 5.3.4 7.6 1.1 1.4 1.2 2.3.4 3.3-.9.9-.8 1.7.1 2.8.9 1 .9 1.5.1 1.5-.6 0-1.1.7-1.1 1.5s-.5 1.5-1.2 1.5c-.6 0-.1 1.1 1.2 2.5 1.2 1.3 2.7 2.2 3.2 1.9.5-.3.7 1.3.6 3.5-.2 2.3-.7 4.1-1.1 4.1-.5 0-.5.4-.2 1 .3.5 1.5 1 2.5 1 1.3 0 1.7.5 1.4 1.5-.4.9 0 1.5 1 1.5.9 0 1.6.6 1.6 1.2 0 .7 1.4 3.1 3 5.2 1.7 2.2 3 5 3 6.3 0 1.3 1 3.8 2.2 5.6 1.3 1.8 2.4 3.4 2.5 3.6.1.1 1.4.4 3 .4 2.7.2 4.6 1.9 6.8 6.1.6 1.1 2.4 2.3 4.2 2.8 1.9.5 4.4 2.4 6.3 4.8 1.7 2.2 3.8 4 4.6 4 .8 0 2.6.7 3.9 1.6 1.9 1.3 2.4 2.2 1.9 4.3-.9 4.3-2.6 7-4 6.4-1.4-.5-.8 3.3.7 4.3.5.3.9 1.6.9 3s.5 3.5 1.1 4.6c.8 1.4.8 2.3 0 3.1-.6.6-1.1 1.8-1.1 2.6s-.7 2.2-1.6 3.2c-1.5 1.7-1.4 1.9 1.2 2.5 1.6.4 3.3.9 3.9 1.2.5.4 3 .7 5.5.9 3.7.2 5.1-.2 7.3-2.3 1.5-1.3 2.7-3 2.8-3.7 0-.7.7.5 1.6 2.5.9 2.3 2.2 3.8 3.2 3.8 2.6 0 4.1 2.1 4.1 5.8 0 2.7.9 4.3 4.5 7.8 2.5 2.4 5.9 5.1 7.6 5.9 1.6.9 3.4 2.8 4 4.2 1.3 3.5 2.1 2.4.9-1.3-2.3-7.4-3.9-10.8-5.5-12-.9-.7-1.5-2.2-1.4-3.6.2-1.3 0-2.9-.4-3.5-.5-.8.2-2.2 1.9-3.6 1.9-1.7 2.5-2.8 1.8-3.8-1.5-2.5-1.4-4.4.6-7.4l1.9-2.9.6 2.7c.4 1.5.5 3.7.2 4.9-.3 1.2-.1 3 .5 4.2.8 1.5.8 2.1-.1 2.4-.6.2-1.1 1-1.1 1.8s-.9 1.4-2 1.4c-2.6 0-2.5.5 1 8.4 2.2 4.7 3.6 6.6 4.9 6.6 1 0 2.1.6 2.4 1.2.8 2.3-.5 7.8-1.9 7.8-.7 0-1.1.6-.8 1.4.3.8-.3 1.9-1.5 2.6-2.3 1.2-2.9 4-.8 4 .7 0 1.8-.5 2.5-1.2.8-.8 1.2-.9 1.2-.1 0 .6.3 1.9.7 2.9.4 1.2.3 1.5-.5 1s-1.2 0-1.2 1.3c0 1.2.4 2.1 1 2.1.5 0 .7.6.4 1.3-.2.7.4 2.2 1.6 3.2 2.5 2.3 2.6 3.5 0 3.5-1.1 0-2 .7-2 1.5s-.9 1.5-2 1.5-2 .7-2 1.5-.5 1.5-1.1 1.5c-.5 0-.8.4-.4.9.3.5-.2 2.6-1.2 4.5-1.5 3.2-1.5 3.7-.1 5.3 1.5 1.7 1.7 6 .3 8.2-.3.6 0 1.1.8 1.1.9 0 1.2.9.9 2.7-.3 2.7-.6 2.8-5.7 2.8-5.5 0-8.8 1.6-6.4 3 .8.5 1 .4.5-.3-.9-1.5-.3-1.5 2.8-.1 3.4 1.6 3.9 3.5 2.5 9.1-1.4 5.4-2.8 5.9-8.1 3-1.8-1-5.3-1.9-7.8-2-2.8-.1-5.3-.9-7-2.2-1.4-1.1-4.7-3.6-7.5-5.5l-5-3.5-1.7 2.2c-1.6 2.2-1.6 2.5.8 6.6l2.6 4.4-2.1 2c-1.2 1.1-2.4 3.3-2.8 4.9-.4 2-1 2.8-1.9 2.5-.8-.3-1.4.1-1.4.8 0 .9-1 1.3-2.5 1.2-1.4 0-2.5-.5-2.5-1 0-.4-1.1-.5-2.4-.2-1.4.3-2.8.2-3.1-.4-.3-.5-1.9-1-3.6-1-1.6 0-2.9-.4-2.9-.9 0-2.1-3.5-2.1-5.1 0-.9 1.2-2.1 1.9-2.6 1.6-1.3-.8-4.6 5-3.9 6.9.5 1.3-8.2 10.6-11.9 12.7-2.3 1.2-1.9 3.6.5 3 1.7-.5 2 0 2 2.6 0 2-.5 3.1-1.4 3.1-1.4 0-2.6 2.9-2.6 6.7 0 1.3.5 2.3 1 2.3.6 0 1 .6 1 1.4 0 .8.4 1.6 1 1.8.5.1 1.1 1.2 1.3 2.3.1 1.1.6 2.5 1 3.2.4.7-.1 1.4-1.3 1.8-1.1.3-2 1.4-2 2.4 0 2 2.3 4.4 3.3 3.5.3-.4 1.8-.3 3.2 0 2.1.5 2.5 1.1 1.9 2.9-.4 1.2-1.2 2.5-1.8 2.9-.6.4.9.6 3.4.5l4.5-.2.1 5.7c.1 4.8-.3 5.9-1.8 6.4-1 .3-1.8 1.3-1.8 2.2-.1 2.8-3.5 6.6-5.4 5.9-1.8-.7-2.3 1.7-.6 2.8.6.4.8 1.1.4 1.6-.3.6.2 1.9 1.1 2.9 2.4 2.6 1.6 13.8-1.1 15.7-1 .7-1.4 1.6-1 2 .4.4 1.1.1 1.6-.7.7-1.1 1.5-.7 4.4 1.7l3.5 3.1-2.4 2.6c-1.2 1.3-2 2.8-1.6 3.1.3.4-.6.4-2.1 0-2-.5-2.9-.2-3.7 1.3-.6 1.2-2 2.4-3.2 2.7-1.6.5-2 1.4-1.8 3.8.4 5.4-2.2 12.7-5.3 14.5-2.5 1.4-2.6 1.9-2.1 6.5.5 4.1.1 6-2.5 11.5-1.6 3.7-3.4 8.5-3.9 10.7-.6 2.9-1.3 4-2.6 3.9-1.3-.2-1.5.1-.7 1.1 1.3 1.5-2.2 8-5.1 9.6-1.1.5-1.9 1.9-1.9 2.9 0 1.1-.5 2-1.2 2-.6 0-.8.3-.5.7.4.3.1 1.3-.6 2.1-1 1.3-.8 1.4 1.8.8 5-1.2 8.5-.7 11.8 1.8 3.2 2.4 9.3 4.4 8.3 2.8-.3-.5 1.5-1 4.1-1.1 2.5 0 4.9-.4 5.3-.6.5-.3 1.1-.1 1.5.5 1.2 2 10.8-.5 12.6-3.2.3-.5 1.8-.6 3.3-.2 2 .5 2.6 1.2 2.4 2.7-.2 1.5.7 2.7 3.1 4.1 2 1.1 3.1 1.4 2.6.7-.5-.9-.3-1.2.6-.9 2.5.8 4.7 12.6 2.5 13.4-1 .4-1.1 1.6-.5 4.7 1.1 5.9 1.1 6-1.1 5.4-1.8-.5-2-.1-1.7 5.8.1 3.5.5 6.1 1 5.8.4-.2 1.2-.1 1.7.2.7.4.1 1.6-1.5 3.1-2.2 2-2.4 2.5-1 3 .9.4 3.1.4 5 .1 1.9-.3 3.5-.2 3.5.2 0 .5 1.2 1.6 2.6 2.6 2.2 1.4 2.8 1.5 3.5.4.4-.8 1.6-1.4 2.6-1.4 1.3 0 1.7-.7 1.6-2.3-.2-1.7.2-2.2 1.9-2.2s1.9-.3 1-1.2c-.7-.7-1.2-2.1-1.2-3.1s-.9-2.1-2-2.4c-2.2-.6-2.6-2.3-1-3.9.8-.8.6-1.5-.5-2.4-1.9-1.6-1.9-3.6 0-4.4.8-.3 1.5-1.3 1.5-2.1 0-1.2.8-1.6 2.8-1.4 1.5.2 3.3 0 4-.5.7-.4 1.6-.5 1.9-.2.3.3 1.7-.8 3.1-2.4 2-2.2 2.9-2.7 4.3-1.9 2.3 1.2 4.7.2 5.4-2.2.4-1 .9-1.8 1.3-1.7 1.7.3 6.2-2.3 6.2-3.7 0-1.9 1.3-1.9 5 0 1.7.9 3 2.3 3 3.1 0 1.3.7 1.5 3.8.8 2-.4 5-.8 6.5-.7 2 0 2.7-.5 2.6-1.6-.3-3.5.1-4.3 2.1-3.8 1.3.3 2 0 2-1 0-.8 1.3-2.6 3-3.9 2.9-2.5 2.9-2.6 1.4-5.5-1.4-2.9-1.4-3.3 1.3-8.9 2.1-4.6 3.2-5.9 4.5-5.4 2.3.7 4.2-2.9 2.8-5.5-.5-1.1-1-3.9-1-6.2 0-2.5-.8-5.5-2.1-7.5-2-3.4-2-3.4-.1-3.4 1.8 0 1.9-.3.9-3.1-.8-2-2.4-3.7-4.2-4.5-1.7-.7-3.6-2.3-4.3-3.6-.7-1.3-3.1-3.3-5.2-4.6-2.8-1.5-4-3-4-4.5 0-3.8-1.3-4.8-4.9-3.7-1.7.5-3.9.6-4.7.3-1.5-.5-2-4.3-.6-4.3.5 0 .6-1.4.4-3.2l-.5-3.1 3.7 2.9c2 1.6 4.4 3.9 5.2 5.2 1.2 1.9 1.8 2.1 3 1.1 1.1-.9 1.1-1.5.3-2.5-1.8-2.1 2.7-3.3 8.9-2.3 6.4 1 6.8 1.2 8.1 4.9.7 2.3.7 3.3-.3 4.2-1 1-.7 1.8 1.8 4 1.7 1.6 3.8 3.1 4.8 3.4.9.2 2 1.8 2.3 3.5.4 1.8 1.7 3.5 3.6 4.4 2 1.1 2.9 2.3 2.9 3.9 0 3.6 1 5.6 2.9 5.6.9 0 3.1 1.3 4.9 2.9 2.5 2.3 3.2 3.8 3.2 6.5 0 2 .5 3.6 1 3.6.6 0 1-.7 1-1.5s1.9-2.7 4.3-4.2c2.3-1.5 4.5-3.3 4.9-3.9.6-.8 1.8-.8 4.7-.1 3.7 1 4.2.9 6.7-1.6 2.1-2.1 3-2.5 4-1.6 1 .8 1.4.8 1.4 0 0-1.5 3.7-1.4 4.3.1.3 1 1.1 1 3.9 0 1.9-.6 4.5-1.2 5.9-1.2 2.8 0 5.3-2.5 6.2-6.2.6-2.1 1.1-2.4 3.3-2 1.5.3 2.9-.1 3.4-.8.8-1.3 1.9-.6 8.8 5.7 1.9 1.8 4.5 3.3 5.8 3.3 1.3 0 2.7.7 3.1 1.5.5.8 1.7 1.6 2.8 1.8 1.1.2 2.8.7 3.7 1.1 2.1.9 3.8 0 3.8-2 0-1.2.6-1.3 2.3-.8 3.1 1.1 7.9.7 8.8-.8 1.3-2 4.9 2 4.7 5.1-.1 1.5.1 3.2.6 3.9.4.7.2 1.2-.3 1.2-2 0-1.1 2.9 1.5 5.3 1.5 1.4 2.4 3.1 2.2 3.8-.3.8-.1 2.2.4 3.1.6 1.3.3 2.2-1 3.3-2.6 2.3-1.6 11 1.8 14.8 3.2 3.7 5.1 8.8 3.7 10.4-.6.9-.6 1.3.3 1.3.7 0 2.1 1.1 3.1 2.4 1.4 1.7 2.9 2.4 5.2 2.4 4.2 0 9.1.7 10.5 1.6.7.4 3.4 1.4 6.2 2.2 4.3 1.3 5.3 2.1 7.7 6.2 3.4 5.9 10.4 14.9 12.2 15.7.8.3 2.6-.6 4.2-2.1 2-1.9 3.3-2.4 5.1-1.9 3 .9 12.8 11 12.8 13.3 0 1 1.6 2.4 3.8 3.4 2.1 1 4.8 2.7 6.1 3.9 2 1.9 2.1 2.2.7 3.8-1.6 1.8-2.2 5.2-.8 5 .4-.1 1.5-.1 2.6 0 1.5.1 1.6.4.6 1.6-.6.8-.9 2.3-.5 3.4.5 1.6.1 2-2 2.3-2 .2-3.4 1.5-5.4 5.3-2 3.6-3.4 5-5 5-1.2 0-2.6.6-3 1.3-.9 1.4-3.5.7-6.6-1.7-1.1-.9-1.7-1.2-1.3-.7.4.5 0 1.5-.8 2.3-1.2 1.3-1.8 1.2-4.8-.6l-3.3-2.1.6 3.2c.5 2.3 1.4 3.4 3.1 3.8 1.6.4 2.6 1.4 2.8 2.9.2 1.2 1.1 2.5 2 2.8.9.4 2.2 1.4 2.9 2.2 1.6 2.3 15.3 2.3 15.3.1.1-2 5 3.6 5 5.6 0 2.9 3.4 5.9 7 6.2 1.9.2 5.7 1.6 8.3 3l4.9 2.6 1.7-2.2c1.5-2.1 1.8-2.1 3.9-.6 1.8 1.3 2.6 1.3 3.8.3 1-.8 1.1-1.6.5-2.2-.6-.6.1-1.8 2-3.4 1.6-1.4 2.6-3 2.2-3.5-.4-.7.1-.9 1.5-.6 1.3.4 2.3 0 2.6-.8.3-.8.1-1.4-.4-1.4-1.7 0-1.1-2.4 1.4-6 2.7-4.1 3.7-9.2 2.1-10.7-.7-.6-1-2.5-.7-4.2l.4-3 9.7.6c7.8.5 10.3 1.1 13.2 3 2.8 1.9 4.5 2.3 7 1.8 2.4-.4 4.6 0 7.3 1.4 2.6 1.4 4.3 1.7 5.1 1.1.8-.7 1.9-.2 3.5 1.5 1.7 1.8 2.7 2.2 4 1.5 1.1-.6 2.1-.5 2.8.2.8.8 1.5.8 2.5 0 1-.9 1.9-.8 3.5.4 1.5 1 2.2 1.1 2.2.3 0-1.8 7.3-.1 9.1 2.3 1.1 1.4 2.2 1.8 3.7 1.4 1.1-.4 2.3-.3 2.6.2.3.5 2.2.7 4.3.5 2.9-.2 4.3.3 6.3 2.2 1.6 1.6 3.5 2.4 5.3 2.2 2.1-.2 3.2.5 4.5 2.8.9 1.6 1.8 3.2 2 3.4.1.2 1.2.5 2.5.6 1.8.1 2.1.7 1.9 3.1-.7 5.9-.4 8.4 1.1 8.4 1.8 0 6.2-5.2 5.9-6.8-.2-.6.7-1.2 1.8-1.2 1.2 0 3-.5 4-1 1.3-.7 2.1-.7 2.5 0 .7 1.2 4.5 1.3 4.5.2 0-.5 1.9-1.5 4.3-2.2 2.3-.8 5.3-2.2 6.6-3.2 1.3-1 3.2-1.8 4.2-1.8 1.4 0 1.9-.7 1.9-2.6 0-2.1.4-2.5 2-2.1 1.3.3 2 0 2-.8s.9-1.7 2-2c1.1-.3 2.5-1.5 3-2.6.8-1.3 2.1-1.9 4.8-1.9 2.7 0 4.1-.6 5-2.1.9-1.4 1.9-1.8 3.4-1.3 1.2.3 2.4.1 2.8-.6.5-.8 1.3-.9 2.6-.2 5.5 2.7 12.4 3.6 10.9 1.3-.7-1.3 5.3-.5 6.9.8 1.2 1 2.2.9 5-.4 2-1 3.6-2.1 3.6-2.6s.9-.9 2-.9c1.2 0 2 .7 2 1.6 0 2.1 4 1.5 5.4-.9.9-1.4.7-2-.7-2.8-1-.6-3.3-2.4-5.1-3.9-2.3-2-3.9-2.7-5.4-2.3-1.2.3-2.9 0-3.7-.7-1.3-1.1-2-1-4.1 0-1.9 1.1-2.7 1.1-3.6.2-.7-.7-2.2-1.2-3.4-1.2-1.4 0-2.5-.8-2.9-2.1-.5-1.6-1.2-1.9-3.4-1.4-1.8.4-3.2.1-3.9-.7-.6-.8-2.6-1.5-4.4-1.6-2.9-.2-3.5.2-4.4 2.6-.8 2.1-2 3.1-4.4 3.6-4 .7-6.3-.8-2.9-1.9 3.5-1.1 5-3 3.6-4.4-.9-.9-.6-1.3 1.1-1.7 1.5-.5 2.2-1.4 2.2-3.1 0-1.8.4-2.4 1.5-1.9 1 .3 1.5-.1 1.5-1.3 0-1 .7-2.2 1.6-2.5 1-.4 1.3-1.3.9-2.6-.8-2.6 1.1-5 3.9-5 2.4 0 7.6-5.7 12-13.4 2.8-4.7 2.8-5 1.2-8.2-1.5-3.2-1.4-3.4.4-4.4 1.5-.8 2-2.1 2-5.3 0-6.6.9-8.7 3.6-8.7 1.4 0 2.7-.7 3-1.5.4-.8 1.3-1.5 2.1-1.5 1.1 0 1.3-.7.9-2.4-.5-1.9.1-3.2 2-5.1 2.5-2.5 2.5-2.7.8-4.6-.9-1-2.4-1.9-3.2-1.9-.8 0-1.2-.6-.9-1.4.4-.9-.3-1.6-1.9-2-2.7-.7-4.5-5.3-2.4-6.6.9-.6.8-1-.6-1.9-1.8-1-1.8-1.1.4-1.7 2.4-.7 2.5-1.1 2.2-6.2-.1-1.8.6-4.9 1.5-6.8 1.5-3.2 1.5-3.5-.7-7.5-1.5-2.8-1.9-4.3-1.2-4.6.8-.2 1-1.8.7-4.3-.5-3.3-.3-4 1.1-4 1.5 0 1.5-.2.1-2.4-1.1-1.6-1.3-2.6-.5-3.1.6-.3.9-2.3.7-4.2-.3-2.8-.9-3.7-2.6-4-1.3-.2-2 .1-1.6.7 1 1.7-1.3 1.1-6.5-1.5-6.1-3.1-6.2-3.1-5 0 .6 1.7.6 2.5-.1 2.5-.6 0-.7.4-.4 1 .9 1.5-1.6 1.2-4.9-.5-1.5-.8-3.4-1.5-4.1-1.5-2 0-4.1-3.2-6-9-.9-3-2-5.7-2.4-6-1.3-.9-3-10.6-2.5-14.1.7-5.1 1.2-5.9 2.8-5.3 1.1.4 1.9-.3 2.6-2 .8-2.3 1.5-2.6 4.3-2.3 1.8.2 3.9.7 4.7 1.2 1 .6 2.3-.3 4.7-3 4.5-5.2 4.4-6-2-11.1-1.5-1.3-1.2-7.4.4-7.4.5 0 .7-1.1.3-2.5-.7-2.8 2.1-6.9 3.9-5.8.6.4.7-2.1.2-7.2-.4-4.5-.3-7.5.2-7.2.5.3 1.5.2 2.1-.2 1-.6.4-2.2-2.3-6.2-1.9-3-3.8-6.2-4.1-7.2-.3-.9-1.1-1.7-1.7-1.6-2.6.3-3.8-.2-6-2.7-1.2-1.4-2.3-3-2.3-3.5-.1-.5-.2-1.3-.3-1.8-.1-1-5.1-2.2-5.1-1.2 0 .4-1.5.5-3.4.3-3.1-.4-3.4-.2-2.9 1.7.3 1.4.1 2.1-.8 2.1-1.1 0-1.1.3.1 1.1 1.1.8 1.2 1.2.3 1.6-.7.2-1.3 1.3-1.3 2.3 0 1-1.3 3.2-3 5-1.6 1.8-3 4-3 4.9 0 1.3-.7 1.6-3.4 1.3-3.1-.4-4 .1-7.5 3.9-3 3.3-3.7 4.7-3 6 .6 1.2.2 2.6-1.4 5-1.8 2.7-3.3 3.5-8.2 4.6-3.3.8-7 1.1-8.2.8-1.6-.4-2.3-.1-2.3 1 0 .8.4 1.5.8 1.5.5 0 .7 1.3.4 3-.4 2.6-.8 3-3.7 3-2.5 0-3.5.5-4 2-.4 1.1-1.1 1.8-1.6 1.5-.5-.4-.9 0-.9.7-.1 1.4-6.4 5.8-8.3 5.8-.7 0-3.1-1-5.5-2.2-3.7-2-4.4-2.1-5.2-.8-.5.8-.7 2.3-.4 3.3.8 2.7-1.3 4.5-6.1 5.2-3.6.6-4.2 1-3.8 2.6 1.1 3.9-3.5.8-5.1-3.5-.4-1.1-1.2-1.6-2.2-1.2-.8.3-2.8-.1-4.5-.9-1.6-.9-2.9-1.3-2.9-1 0 .3-.8-.3-1.8-1.3s-2.9-2.5-4.1-3.4c-2.2-1.6-2.2-1.8-.8-4.6 1.7-3.6 1-5.2-2.7-5.6-2.8-.3-6.2-2.6-3.8-2.6.7 0 1.2-.6 1.2-1.4 0-2.4 4.1-8.6 5.6-8.6.8 0 1.4-.6 1.4-1.3 0-.8 1.1-1.9 2.4-2.7 2.1-1.1 2.3-1.6 1.5-3.7-.6-1.6-.6-3.8 0-6.1.6-1.9.8-3.9.6-4.3-.3-.4.4-.5 1.5-.2 1.2.3 2 0 2-.7 0-2.4 3-4.3 5.3-3.3 1.9.9 2.2.7 2.4-1.5 0-1.3.7-2.8 1.4-3.3 1-.6 1-1.1-.1-2.4-.7-.9-1.9-1.4-2.5-1.1-.8.3-1-.4-.7-2 .2-1.3.8-2.2 1.2-1.9 1 .6 2.1-2.1 1.2-3-.4-.4-.7-1-.8-1.3-.5-3.6-4.4-6.8-4.4-3.7 0 .8-1 1.6-2.2 1.7-3.3.2-4.1.1-6-.7-1.2-.5-1.8-.3-1.8.6-.1.8-1 2.5-2.1 3.8-1.9 2.3-2 2.3-3.4.5-1.7-2.2-2-5.4-.5-5.4.6 0 1-1.1 1-2.5 0-2.3-.3-2.4-4.8-2.1-4.5.2-4.8.1-6.5-3.1-.9-1.9-1.7-4.2-1.7-5.2 0-.9-1.1-2.8-2.5-4.1-1.4-1.3-2.5-2.9-2.5-3.7 0-.7-.7-1.3-1.5-1.3s-1.5-.7-1.5-1.5-.9-2.4-2-3.5c-2.1-2.1-2.7-6-1-6 .6 0 1-.6 1-1.4 0-.8.7-1.6 1.5-2 .8-.3 1.5-1.6 1.5-2.9 0-3-4.4-5.4-6.6-3.6-1.1.9-2 .4-4.4-2.1-2.2-2.4-3.5-3-5.1-2.5-1.6.5-2.9-.1-5.3-2.7-1.8-1.9-4-3.8-5-4.1-.9-.4-1.9-1.5-2.2-2.4-.4-1-1.5-3.6-2.5-5.9-1.1-2.2-1.9-4.5-1.9-5.1 0-.6-1.5-2.9-3.4-5.2-1.9-2.2-3.6-4.5-3.8-4.9-.1-.5-1.5-1.2-3-1.6-2.6-.6-2.8-.4-2.8 2.4 0 3.2-1.1 3.6-5.7 2.4-1.6-.4-2.3-1.4-2.3-3 0-1.4-.7-2.7-1.5-3.1-1.7-.6-4.7-5.7-4-6.7.3-.3.2-.4-.1-.2-.3.3-1.7.1-3-.4-1.5-.6-2.6-.6-3 .1-.8 1.4-3.6-1.1-3-2.7.3-.7.1-1.6-.4-1.9-.6-.4-1-.1-1 .5 0 2.5-2.4.2-3.7-3.4-.9-2.7-1-5-.3-7.9.5-2.3.5-4.4.1-4.7-.4-.3-1-1.3-1.4-2.3-.3-.9-1.3-1.7-2-1.7-.8 0-2.1-.8-3.1-1.9-1.1-1.2-2.5-1.6-4.1-1.3-1.4.2-2.5 0-2.5-.6 0-.5-2.4-1-5.2-1-4.6-.1-5.7-.6-8-3.2-1.6-1.7-2.8-2.6-2.8-2 0 1.9-1.7 1-2.8-1.6-.7-1.4-1.6-2.3-2-2-1.2.7-4-8.1-4.1-12.4 0-5.6-.1-14.3-.1-16.9 0-3.1-.4-3.4-4-3.7-2-.1-3 .3-3 1.2 0 .8-.9 2.2-2 3.1-1.1 1-2 2.3-2 3 0 1.4-1.3 1.6-4.6.7-1.9-.5-4.9-6.2-3.9-7.3.3-.2.5.2.6 1 0 .8.4.5.8-.6.5-1.2.4-2.6-.3-3.4-.8-1.1-.8-1.5.2-1.8.6-.3 1.2-.9 1.2-1.3 0-.5-1.4-.4-3.1.2-3.4 1.2-4.9.1-4.9-3.5 0-.9-.4-1.7-1-1.7-.5 0-1-.9-1-2 0-2.8-4-8-6.1-8-1 0-2.1-.5-2.4-1-.3-.6-1.5-1-2.6-1-2.1 0-6.7-2.3-11.7-5.9-1.9-1.3-5.2-3.3-7.5-4.6-10.9-5.7-17.4-9.9-19.5-12.6-1.3-1.6-3-2.9-3.7-2.9-.8 0-2.3-1.4-3.5-3-1.6-2.3-2.9-3-5.3-3-2.1 0-4.5-1-6.8-2.9-3.6-3-7.9-3.3-7.9-.6 0 .8-.9 1-2.5.7-1.4-.2-2.5-.8-2.5-1.3 0-1.4-5.7-3.9-9.2-4-1.8 0-4.9-1-6.8-2.3l-3.5-2.3-1 2.1c-.8 1.6-1.9 2-4.3 1.8-1.9-.2-3.8.3-4.7 1.1-.8.9-2 1.7-2.6 1.9-.9.3-1 1.2-.1 3.6.9 2.5.8 3.5-.4 4.6-1.9 1.9-1.8 3.3.4 4.5 1.4.8 1.5 1.2.5 2.2-.7.7-1.3 2.3-1.3 3.5 0 4.1-1.1 5.4-4.5 5.4-2.5 0-3.4.5-3.9 2.2-.3 1.3-.1 2.7.4 3.2.6.6 1 1.9 1 3.1 0 1.2.5 2.6 1.2 3.3.9.9.9 1.2-.1 1.2-.9 0-1 1.2-.5 4.5.5 3.8.4 4.5-1 4.5-.9 0-2 .8-2.3 1.7-.7 1.8-4.3 4.9-5.3 4.6-.3-.1-.7 1-.8 2.5-.1 1.4-.6 2.8-1.1 3.1-.5.3-1.2 3.4-1.6 6.8-.6 5.8-.9 6.3-3.1 6.3-1.3 0-2.4.5-2.4 1.1 0 .5-.5.7-1.2.3-.8-.5-.9 0-.5 1.5.3 1.3.1 2.1-.5 1.9-.5-.2-.9-.6-.8-.8.4-1-6.9-8-8.4-8-.8 0-3.2.8-5.3 1.7-3.5 1.7-4.5 2.4-9.1 6.4-1 .8-2.6 1.8-3.5 2.2-1.1.4-1.4 1.2-1 2.3.5 1.4.2 1.6-2 1-2-.5-2.7-.3-2.7.8s.8 1.3 3.5.9c3-.5 3.5-.3 3.5 1.3-.1 2.8-3.5 6.5-5.4 5.8-1.2-.5-1.5-.2-1 1 .3.9.1 1.6-.4 1.6-.6 0-1.2.8-1.4 1.9-.2 1.5-.8 1.7-2.5 1-1.8-.6-2.3-1.6-2.3-4.2 0-4.5 1.8-6.2 4.2-4 2.1 1.9 3.5 1.2 1.5-.8-.8-.8-1.6-2.7-1.9-4.2-.4-2.2-.2-2.7 1.4-2.7 1.3 0 1.8-.5 1.5-1.4-.3-.8.1-2 .9-2.6.8-.7 1.4-1.9 1.4-2.6 0-.9 1.1-1.4 3-1.4 2 0 3.5-.8 4.6-2.5.9-1.3 2.5-2.7 3.7-3.1 2.4-.7 5.6-4.3 5.7-6.2 0-.6.9-1.2 2-1.2 1.4 0 2-.7 2-2.1 0-1.1.5-2.9 1-4 .8-1.4.7-2.7-.5-4.8-1.9-3.8-1.9-3.9.8-4.3 1.6-.2 2.1-.9 1.9-2.3-.2-1.1-.3-2.8-.3-3.8s-1.1-2.2-2.5-2.7c-3.1-1.2-3-2.1.5-4.2 2.2-1.2 2.8-2.1 2.4-3.7-.4-1.6-.1-2.1 1.4-2.1 3.6 0 8.2 2.1 7.7 3.4-.9 2.4 2.7 2.7 5.7.5 1.6-1.1 2.9-2.4 2.9-2.9s.7-.7 1.6-.3c1.4.5 1.5.3.5-1.5-.6-1.2-1.8-2.5-2.6-3-.9-.5-1.8-2.9-2.2-5.9-.4-3.9-1.3-5.9-3.4-7.9-3.4-3.2-3.6-4.4-1-4.4 1.1 0 2.3-.5 2.7-1.1.3-.6 1.5-.8 2.6-.5 1.1.2 3.1-.2 4.4-1.1 1.7-1.1 3.5-1.3 6-.9l3.5.7-2.2-3c-1.5-2-2.5-2.7-3-2-1 1.6-2.9.2-2.9-2.2 0-1.3-.7-1.9-2.4-1.9-2.8 0-5.4-2.9-8.6-9.6-1.2-2.4-2.5-4.4-2.9-4.4-.4 0-1.6-.6-2.6-1.4-1.9-1.4-1.9-1.4 0-3.6 1.6-1.8 1.7-2.4.6-4.1-.8-1.5-.9-2.4-.2-3.3.8-.9.6-1.8-.4-3.2-1.8-2.4-1.9-4.5-.1-3.8.9.3 1.7-.3 2.1-1.6.5-1.7 1-1.9 2.1-.9.8.6 1.4.8 1.4.3-.1-1.9-5.1-4.6-7.6-4-1.4.4-2.4.2-2.4-.4 0-.5-1.6-1-3.5-1-2.3 0-3.5-.5-3.5-1.4 0-2.8-2.8-2.5-3.3.3zm162.3 112.1c0 .5-.2 1-.4 1-.3 0-.8-.5-1.1-1-.3-.6-.1-1 .4-1 .6 0 1.1.4 1.1 1zm-188 36c0 .5-.4 1-1 1-.5 0-1-.5-1-1 0-.6.5-1 1-1 .6 0 1 .4 1 1zm48.3 36.5c.1.5-.6 1.1-1.5 1.3-1.1.2-1.8-.3-1.8-1.3 0-1.7 3-1.8 3.3 0zm239.1 26.5c2 .7 2.6 1.6 2.6 4 0 1.6-.4 3-.9 3-1.2 0-3.5-2.9-2.8-3.6.3-.4-.4-1.5-1.6-2.5-2.4-2-1.2-2.4 2.7-.9zm-20.7 48.8c1.9 1.2-.6 7.2-3 7.2-2.3 0-4.7-2.3-4.7-4.4 0-1.1.9-1.6 3.1-1.6 1.7 0 2.8-.4 2.4-1-.7-1.2.5-1.3 2.2-.2zm-311.7 3.2c0 .5-.2 1-.4 1-.3 0-.8-.5-1.1-1-.3-.6-.1-1 .4-1 .6 0 1.1.4 1.1 1zm397.8 22.8c.2.7-.2 1-1.2.6-.9-.3-1.6-1.1-1.6-1.6 0-1.3 2.3-.5 2.8 1zm-11.8 26.2c0 .5-.2 1-.4 1-.3 0-.8-.5-1.1-1-.3-.6-.1-1 .4-1 .6 0 1.1.4 1.1 1zm-217.3 39.3c.2 1.7.1 1.9-.7.7-1.1-1.7-1.4-4.7-.3-3.6.4.3.8 1.7 1 2.9zm2.8 11.3c.9 1.9 1.5 3.8 1.2 4-.6.6-3.2-3.5-4.2-6.5-1.1-3.5.9-1.8 3 2.5zm3-3.6c.3.5.1 1-.4 1-.6 0-1.1-.5-1.1-1 0-.6.2-1 .4-1 .3 0 .8.4 1.1 1zm16.5 5.6c0 .8-.4 1.2-1 .9-.5-.3-1-1-1-1.6 0-.5.5-.9 1-.9.6 0 1 .7 1 1.6zm32 52.9c1.4-.8 7.7 5.8 7.2 7.4-.5 1.4-4.2 1.4-4.2 0 0-.6-.7-.9-1.5-.6-.8.4-1.7.2-2.1-.4-.3-.6-1.2-.8-1.9-.5-.7.2-2.1-.4-3-1.4-1.6-1.7-1.5-2 .2-3.8 1.2-1.2 2.2-1.6 3-1 .7.6 1.7.7 2.3.3z"/><path d="M447.727 66.77c0 1.9 1.7 4.9 2.3 4.2.3-.3.7-1.5 1.1-2.6.5-1.6.2-2.3-1.4-2.7-1.4-.4-2 0-2 1.1zM236.827 69.97c0 .8.6 2.3 1.4 3.3 1.9 2.6.9 4.4-2.6 4.5-1.8 0-3.8 1-4.9 2.3-1.4 1.5-2.7 2-4.9 1.7-2.2-.3-2.8-.1-2.3 1.1.3.9.1 1.2-.6.7-.7-.4-1.2-2.2-1.2-4.1 0-1.8-.3-4.1-.6-5-.5-1.3-1-1-2.5 1.4-1 1.7-2.4 3.1-3 3.1-.7 0-.4.9.7 2.1 1.6 1.7 1.6 2.2.4 3-.8.5-2.1.7-2.7.4-.7-.2-1.3.1-1.3.7 0 2 4.4 7.8 5.9 7.8 1.1 0 1.1.3.2 1.4-.9 1.1-.9 2-.2 3.4 1.8 3.4 1.9 11 .2 15.7-1.5 4.2-1.5 4.5.7 7.4 1.2 1.7 2.2 4 2.2 5.1 0 2.5 3.8 4.2 6.1 2.7 1-.6 1.5-1.7 1.2-2.5-.5-1.1-.2-1.2 1.4-.2 1.6 1 2.6.9 6.1-.9 2.3-1.1 4.8-2.1 5.7-2.1.9 0 2.7-1.1 4.1-2.5 1.4-1.4 3.1-2.5 3.8-2.5.8 0 1.9-.6 2.6-1.4.6-.8 2.6-1.6 4.3-1.8 2.8-.3 3.2-.6 3-3.1-.1-1.8.7-3.6 2.4-5.3 1.6-1.6 2.3-3.2 2-4.5-.4-1.4-.1-1.9.7-1.6.6.3 1.9-.1 2.8-.7 1.3-1 1.7-2.6 1.5-7.5-.3-6-.2-6.2 2-5.8 1.2.2 2 0 1.7-.4-.3-.5 0-.9.5-.9.6 0 1.1.5 1.1 1 0 .6 1.1.8 2.5.4 2-.5 2.6-.1 3.5 2.1.7 1.8.7 3.3-.1 4.7-.9 1.7-.8 2.4.5 3.3.9.7 1.4 1.9 1.1 2.6-.7 1.8 4.4 4.9 8 4.9 4.3 0 2.8-3.2-2.3-4.8-2.3-.8-3.9-1.8-3.6-2.3.3-.5 0-.9-.5-.9-.6 0-1.1-.7-1.1-1.5s.7-1.5 1.5-1.5c1.7 0 1.5-2.1-.6-6.4-1-2.1-1.1-3-.2-3.3 1.2-.4.6-4-1-6.1-.6-.7-1.9-1.1-2.8-.9-1 .3-2.4-.2-3-1-2.3-2.7-4.8-3.5-6.4-1.9-.8.8-1.5 2.1-1.5 3 0 1.1-.8 1.4-3 1.1-3.6-.4-5-1.2-5-2.9 0-.7-1.2-1.9-2.6-2.7-2.3-1.2-2.7-1.1-3.9.4-.7 1-1.6 1.4-1.9.9-.9-1.5-5.8-2.2-5.3-.8.3.8-.9 1.2-3.4 1.3-3.3.2-4.1-.2-5.4-2.5-.8-1.5-1.4-2-1.4-1.2zm41.7 12c3.2 3 2.7 4.4-.8 2.3-1.6-.9-3-2.3-3-3 0-1.9 1.3-1.6 3.8.7zM107.727 73.07c-1.9.5-4.8.8-6.5.8-4.6-.2-4.7-.1-3.1 3 .9 1.6 1.2 3.1.9 3.5-.4.3-.1.6.7.6 1 0 1 .3 0 1.5-1.4 1.7-4.4 1.2-7-1-.8-.7-2.5-1.2-3.7-1.1-2.4.1-7.3 4-7.3 5.7 0 .6-.7.9-1.5.5-.9-.3-1.5 0-1.5 1 0 1.2-.7 1.5-2.5 1.2-1.7-.4-2.5-.1-2.5.8 0 .8-.7 1.4-1.5 1.4s-1.5.7-1.5 1.5-.9 1.5-2 1.5-2 .7-2 1.5-.7 1.5-1.6 1.5c-1.1 0-1.4-.6-.9-2 .5-1.7.3-1.9-1.7-1.1-1.2.4-3.5.5-4.9.1-2.4-.7-2.8-.5-4 3.4-.7 2.2-1.8 4.5-2.4 4.9-.7.6-.6 1 .3 1.4.6.2 1.2 1.3 1.2 2.4 0 1.3-.7 1.9-2.4 1.9-2 0-2.5.6-3.1 4.2-1.1 7.4-.7 14 1.2 21.8.7 2.4 1.5 3.5 2.7 3.3 1.3-.1 1.5.3 1 1.5-1.8 4.1-.5 7.6 4.3 11.9 3 2.6 5.4 4 6.5 3.7 1.2-.3 2.4.8 4.2 3.9 3 5 3.4 9.2 1 10.1-1.3.5-1.4.9-.4 2.2 1.1 1.2 1 1.7-.8 3-1.2.8-1.9 2-1.6 2.8.7 1.8-1.5 3.4-5.1 3.8-2.6.3-3 .7-3.1 3.3-.1 7.6-.4 8.5-2.4 8.5-2.1 0-3.7 4-2.5 6.1 1.1 1.7 1.4 13.9.3 14.5-.5.3-.3 1.5.5 2.7 1.6 2.6 1.1 9.7-.7 9.7-.7 0-1.9 1.2-2.6 2.6-1.7 3-.4 5.7 2.9 6.2 1.2.2 1.9.8 1.6 1.3-.4.5-.3 1.4.1 2 .5.8.8.8 1.3 0 1.2-1.9 10.6 6.9 12.6 11.9 1.9 4.7 4.7 8.1 7.7 9.3 1 .3 1.5 1.2 1.2 2-.3.8.2 2.1 1 3 2 2 2 3.4-.1 4.5-1.4.9-1.4 1.1.6 2.2 3.5 1.8 10.3.9 12.4-1.7.9-1.2 1.6-2.5 1.5-3-.1-.4.3-1.8 1-3 .8-1.5 1.8-2 3.3-1.6 2.1.6 2.1.6.4-2.1-2.3-3.5-.6-5.9 2.3-3.3 1 .9 2.5 1.7 3.3 1.7.8 0 2.1.6 2.8 1.2 1.1 1 1.4 1 1.8 0 .7-1.8 3.3-1.5 3.5.5.1 2 .1 5.3-.1 6.8 0 .5-1.9-.8-4-2.9l-4-3.9-2.4 2.9c-2.6 2.9-2.1 5.4.9 5.4 2.4 0 2.6 2 .6 5.5-2 3.3-2 3.4-.1 3.2 1-.1 1.9-.5 1.9-.9 0-1.4 5-.9 7.4.7 1.8 1.2 4.3 1.5 10 1.2 4.2-.3 7.9 0 8.2.5.3.5 1.2.4 2-.3 1.2-1 1.2-1.4.2-2-1-.7-1-.9 0-.9.6 0 1.2-.6 1.2-1.4 0-1.1.7-1.3 3-.6 2.4.7 3 .6 3-.6 0-1.1.6-1.3 2-.9 1.3.4 2.2.1 2.6-.9 1-2.5 5.1-1.9 7.8 1.1 1.6 1.7 3.6 2.7 5.3 2.8 2.1 0 2.9.5 3.1 2.2.2 1.3.7 2.3 1.2 2.3s.7-1.3.4-2.9c-.6-2.7-.4-2.8 4.2-3.5 2.6-.3 5.3-1.1 6-1.7.8-.6 2.3-.9 3.4-.6 1.1.3 2 .1 2-.5s1.1-.8 2.5-.5c2.5.4 5.3-2.2 3.8-3.7-.3-.3.3-.6 1.4-.6 1.1 0 3-1.1 4.3-2.5 1.3-1.4 2.9-2.5 3.6-2.5.7 0 1.6-.9 1.9-2 .3-1.1 1.4-2 2.4-2s2.3-1 2.9-2.3c1.6-3.2 2.3-10.5 1.1-11.3-.6-.3-.7-1-.1-1.7s.9-3.1.7-5.5c-.2-4-.1-4.2 2.7-4.2 2.9 0 2.9 0 2.3-4.4-.7-4.2-.6-4.4 1.4-3.9 2.3.6 3-1.4.7-2.3-2.4-.9-3.9-5.9-2.6-8.3.6-1.2 1.5-2.1 2-2.1.4 0 1.1-1.4 1.5-3.1.4-1.7 1.4-3.3 2.3-3.6 2.6-1 3.2-2.5 2.6-6.5-.5-3-.3-3.8 1.5-4.7 1.7-1 1.9-1.5 1.1-3.1-.8-1.6-.6-2.6 1.2-5.1 1.4-1.9 2.2-4.1 2-5.9-.2-1.9.3-3.2 1.7-4.2l2-1.4-2.1-4.3c-1.7-3.5-2.3-4-3-2.7-1.1 2-3.8 2.1-6.3.2-1.4-1-1.8-2.5-1.7-6.1.2-5.3-1.3-8.2-3.3-6.5-1.3 1-6.5-.5-6.5-1.9 0-.3-1.1-.7-2.4-.7-1.7-.1-2.6.4-2.8 1.7-.3 1.9-.5 1.9-5.3-.5-2.8-1.5-5.5-3.7-6.2-5.1-1.3-2.9-.2-3.3 2.3-.8.9.9 2.6 1.8 3.8 1.8 1.1.1 3.4.5 4.9.9 3 .9 11.7-1 11.7-2.5 0-.5.7-.9 1.5-.9.9 0 2.4-1.3 3.3-3 .9-1.6 2.1-3 2.5-3 .5 0 .6-.4.2-1-.3-.5-1.2-.7-2-.4-.7.3-2.2.1-3.2-.4-1.3-.8-2.3-.6-3.5.5-1.4 1.3-2 1.3-3.3.3-1.2-1-1.5-1-1.5 0 0 .8-1.2 1.1-3.4.8-3.1-.3-3.3-.2-2.5 1.4 1.2 2.3.3 2.3-1.9 0-2.1-2-5-8.4-5.6-12.5-.3-1.5-1.4-3.9-2.5-5.3-2.4-3-2.7-5-.8-5.7.8-.4.2-1.5-1.8-3.3-1.6-1.5-2.9-3.3-2.7-4 .1-.8-1.5-1.8-4-2.5-2.4-.7-6.5-3.1-9.2-5.3-4.2-3.5-5.4-3.9-9.3-3.7-2.8.1-5.1-.3-6.2-1.2-.9-.8-2.5-1.7-3.6-1.9-1.4-.2-2.1-1.3-2.3-3.3-.2-1.7-1.6-4.2-3.3-5.7-1.7-1.6-2.8-3.2-2.4-3.7.3-.6-.4-.8-1.6-.6-1.4.3-1.9 0-1.6-.9.8-2.1-.4-2.7-2.5-1.2-1.1.8-2.7 1.2-3.8.9-1-.3-2.1 0-2.4.6-.5.8-1.3.8-2.6.1-1.1-.6-3.2-.7-4.6-.4-2.5.6-2.6.5-2-2 .5-2.1.3-2.6-1.3-2.6-1.1 0-2.6-.7-3.5-1.5-.8-.8-1.6-1.5-1.8-1.4-.2.1-1.9.5-3.8 1zm75.2 80.6c-.5 2.7-1 2.8-3.3.7-.9-.8-1.5-2.3-1.2-3.3.8-3 5.1-.4 4.5 2.6zM444.327 74.47c.6 2 3.1 4.5 4.5 4.5.4 0 .7-1.5.6-3.3-.2-3-.5-3.4-2.9-3.3-2.3.1-2.7.5-2.2 2.1zM221.927 132.57c-.7 1.3-1.3 1.4-2.9.5-2.4-1.2-3.3-.6-3.3 2.6 0 1.7.6 2.3 2.1 2.3 3.1 0 7.9-3.2 7.9-5.2 0-2.2-2.6-2.4-3.8-.2z"/><path d="M215.327 158.27c.3 1 .9 1.5 1.2 1.2.3-.3 0-1.1-.7-1.8-1-.9-1.1-.8-.5.6zM213.227 162.07c-.8 1.2-.5 1.6 1.5 2.1 1.5.3 2-.2 2-2.2 0-1.3-2.7-1.3-3.5.1zM225.227 173.97c-.3.5-.1 1 .4 1 .6 0 1.1-.5 1.1-1 0-.6-.2-1-.4-1-.3 0-.8.4-1.1 1zM330.227 183.97c-.6.9.1 1.4 1.7 1.1.4 0 1.2.8 1.8 1.9.6 1.1 1.5 1.8 2.1 1.4 1.2-.7-.5-3-3.2-4.5-1.1-.6-2-.5-2.4.1zM362.727 204.67c0 .4.5 1.5 1 2.3.8 1.3 1 1.3 1-.2 0-.9-.4-2-1-2.3-.5-.3-1-.3-1 .2zM367.227 205.97c-.7 2.3.1 4 1.8 4 1.3 0 3.8-4.6 2.9-5.5-1.3-1.2-4.1-.4-4.7 1.5zM637.227 213.67c-3 .7-4.3 2.3-1.9 2.3 1.1 0 2.5.5 3 1 .6.6 1.8.8 2.7.4 1.3-.5 1.4-1 .6-2.5-.5-1-1.3-1.8-1.7-1.8-.4.1-1.6.3-2.7.6zM362.927 217.37c-.7 1.7-1.1 3.3-1 3.6.4.8 3.1 0 5.6-1.6 1.8-1.2 2.1-1.8 1.2-2.9-2.2-2.7-4.6-2.4-5.8.9zM644.727 216.07c0 .5.5.7 1 .4.6-.3 1-.8 1-1.1 0-.2-.4-.4-1-.4-.5 0-1 .5-1 1.1zM633.827 219.87c-1 .6-1 1-.1 1.6 1.3.8 2.4.1 1.9-1.4-.3-.6-1-.7-1.8-.2zM333.227 253.97c.3.5.2 1-.4 1-.6 0-.8.6-.5 1.4.6 1.5-4.5 4.8-6.9 4.5-4.8-.6-5 .1-1.2 3.6 2.2 1.9 4.1 3.2 4.4 3 .2-.3 1.5.2 2.8 1 1.3.9 2.3 1.1 2.3.5 0-1.3 5.7-1.3 6.5 0 .4.6 1.2.4 2.2-.6 1-1 2.5-1.3 3.9-1 2.8.7 2.8.7 1-2.9-.8-1.5-1.2-3.3-1-3.9.7-1.8-3.6-5.3-8.1-6.5-5-1.4-5.8-1.4-5-.1zM70.427 258.37c-2.2 1.7-2.2 2.6.2 2.6 2.3 0 3.3-1.1 2.3-2.7-.5-.8-1.2-.8-2.5.1zM312.327 283.47c.4.8.8 1.5 1 1.5.2 0 .4-.7.4-1.5s-.4-1.5-1-1.5c-.5 0-.7.7-.4 1.5zM316.327 286.17c.4 1.3 0 1.8-1.3 1.9-1.4 0-1.2.3.6 1 3.3 1.3 5.1.5 5.1-2.3 0-1.8-.6-2.3-2.5-2.3s-2.3.4-1.9 1.7zM730.727 306.47c0 .8.4 1.5.9 1.5s1.4-.7 2.1-1.5c1-1.3.9-1.5-.9-1.5-1.2 0-2.1.6-2.1 1.5zM354.427 506.77c-2.1 2.2-2.2 6.5-.3 8.1 1 .9 1.9.4 4-2.3 2.5-3.3 2.5-3.5.7-4.1-1.2-.4-1.8-1.2-1.4-2.1.7-2-1.1-1.8-3 .4zM596.827 558.87c-1 .6-.9 1 .3 1.4.9.4 1.6 1.3 1.6 2.2 0 1.2 1.2 1.5 5.5 1.5 3 0 5.5-.5 5.5-1 0-.6-2.2-1-5-1-3.7 0-5-.4-5-1.4 0-1.9-1.3-2.7-2.9-1.7zM610.727 564.47c0 1.5.6 2.5 1.4 2.5 2.3 0 2.8-1.7 1-3.4-2.1-2.1-2.4-2-2.4.9zM592.027 567.17c-3.2 3.6-3.5 4.7-1.4 4.1 1.1-.3 2.4-1.8 3-3.4 1.2-3.5 1-3.6-1.6-.7zM868.727 570.77c0 1.1 1.1 3.2 2.6 4.8 2.6 3 6.1 9.8 7.5 14.6.6 2.2.4 2.8-1.1 3.3s-1.7 1.4-1.4 5.7c.2 2.8.9 5.5 1.5 5.9.8.5.8.8 0 1.4-.8.4-.9 1.1-.2 1.8 1.1 1.4.9 8.6-.4 10.7-1.2 2-1.3 6 0 7 .5.4 2.1.8 3.5.8s3.5.3 4.8.7c1.4.5 2.2.3 2.2-.4 0-.6-1.1-1.1-2.5-1.1-3 0-3.2-1.4-.7-3.2 1.1-.7 2.1-1.9 2.3-2.6.7-2.1 4.9 2.5 4.9 5.3 0 1.8 1.1 3.2 3.8 4.9 4 2.5 9.1 7.6 7.7 7.6-.5 0 .4 1.3 1.9 2.9 2.5 2.6 3.1 2.8 6.7 2 4.6-1.1 5.7-.7 7 2.8 1.2 3.1 3.2 2.5 4-1.3.3-1.9 1-2.8 2-2.5.8.2 2.4.5 3.7.6 1.2.2 3.8 1.7 5.8 3.4 1.9 1.7 3.9 3.1 4.4 3.1 1.9 0 7.1 6.7 8.2 10.5.6 2.2 2 4.8 3.1 5.7 1 1 1.4 1.8.8 1.8-1.5 0-.3 4.9 1.7 7.2 1.3 1.6 1.2 2.1-1.7 5.3-1.7 2-3.1 4.2-3.1 4.9 0 1.1-.7 1.1-4.2-.1-2.4-.8-4.7-1.9-5.3-2.6-.5-.7-2.1-1.4-3.5-1.6-2.8-.3-4.2-1.9-3.5-3.9.2-.7-.4-1.2-1.5-1.2s-2.4-1-3.1-2.1c-.9-1.7-1.3-1.9-2-.8-.6 1-.9 1.1-.9.1 0-.6-.9-1.2-2.1-1.2-1.5 0-1.9.5-1.4 1.9.8 2.5-2.5 3.8-3.8 1.5-.8-1.3-1.1-1.4-1.8-.3-1.3 2-1.1 2.9.5 2.9.8 0 1.7.7 2 1.6.9 2.2.8 2.4-.9 2.4-1 0-1.5 1-1.5 2.9 0 2.6-.4 3-4 3.6-2.1.4-4.4.4-5 0-.5-.3-1 .2-1 1.2-.1 2.4-1.9 4.6-5.1 6-2.1.9-2.6 1.7-2.2 3.7.3 1.5.1 2.6-.6 2.6-.6 0-2.4 1.4-4 3-2.5 2.6-3.2 2.9-5.5 2.1-2.3-.9-2.6-.8-3.2 1.5-.5 1.8-1.9 3.2-4.8 4.4-4.1 1.8-4.1 1.8-1.4 2.5 2.7.7 4.7 3.5 2.6 3.5-.6 0-.2 1 .9 2.2 1.2 1.3 2.4 4.1 2.8 6.3.5 3.2 1.8 7.1 3.1 9.3.6 1 6.2-3.1 6.7-4.9.5-1.7 1.1-2 2.9-1.6 1.7.5 2.7.1 3.6-1.3 1-1.6 2.3-2 6.6-2 3.5 0 5.8-.5 6.6-1.5.7-.8 1.8-1.5 2.6-1.5.7 0 1.8-.9 2.4-2.1.9-1.6 1.8-1.9 3.9-1.4 2.3.5 3.3 0 5.4-2.4 1.4-1.7 3.1-3.1 3.7-3.1.8 0 1-.9.5-2.7-.5-2.2-.4-2.5.8-1.5 1.1 1 1.7.9 2.7-.3 1.3-1.6 7.3-1.6 11.1 0 1 .3 2 .2 2.4-.4.3-.6 1.5-1.1 2.6-1.1 2.1 0 7.6-5.6 9.7-10.1.8-1.5 2.5-3 3.8-3.3 2.6-.7 3.1-2 1.3-3.2-.8-.4-.7-.9.2-1.5 1.1-.6 1-1.2-.4-2.7-.9-1-1.4-2.2-1-2.5.3-.4.2-.7-.3-.7s-1-1.7-1.1-3.8l-.2-3.7 5.3.1c2.9 0 5.8.4 6.3.7.6.4 1.3.1 1.6-.5.3-1 .7-1 1.7-.1 1.3 1.2.4 3.7-1.1 2.8-.5-.4-.9.1-.9 1.1 0 1.3-.3 1.4-1.4.5-1.8-1.5-5.6-2.2-5.6-1 0 .5-.8.9-1.7 1-1.5 0-1.5.2.2.8 1.1.5 2 1.2 2.1 1.7 0 .5.4 1.8.9 2.8.6 1.3.3 2.3-.8 3.1-1 .7-1.7 2.4-1.7 3.9 0 3-2.5 6.3-3.5 4.6-.4-.6-1.1-.8-1.6-.5-1.7 1.1-.9 5.2 1.6 8 1.8 2.2 2.1 3.2 1.3 4.2-.6.8-.9 1.5-.7 1.6 4 2.8 5.7 3.5 6.8 2.4 1.7-1.7 1.3-3.4-.9-4-1.1-.3-2-1-2-1.6 0-.8.6-.9 1.8-.3 1.2.6 2.2.3 3.5-1 .9-1 1.7-2 1.7-2.3v-.9c0-.3 1.2.1 2.6.9 1.5.7 3.3 1.1 4.1.8 1.2-.5 1.2-.8-.2-2.3-2.3-2.5-1.9-3 2.5-3 3.7 0 4-.2 3-1.9-1.6-3.1-1.2-3.4 1.6-1.2 1.9 1.5 3.1 1.8 4.3 1.1 1-.5 2.7-.6 3.9-.3 1.5.3 2.2.1 2.2-.8 0-.8-1.3-1.5-3.1-1.6-1.7-.1-3.7-.7-4.4-1.3-.6-.5-1.5-.6-1.9-.2-1.3 1.2-3.6-3-3.6-6.4 0-1.9-.6-3.4-1.5-3.8-.9-.3-1.5 0-1.5 1 0 .9-.5 1.4-1.2 1.2-1.5-.5-1.9-3.8-.5-3.8.7 0 .4-.6-.5-1.3-1.5-1.2-1.5-1.4.5-2.7 1.2-.8 4.5-1.7 7.2-2 4.2-.6 5.2-.4 6.3 1.1.7 1.1 2.1 1.9 3.1 1.9 2.7 0 11.1-3.1 11.1-4.1 0-.5.9-.9 1.9-.9 1.1 0 2.3-.9 2.6-2 .5-1.5 1.2-1.9 3.1-1.4 1.8.5 2.4.2 2.4-1 0-.9.3-1.6.8-1.6.4 0 3.7-2.8 7.5-6.3 6.9-6.4 8.6-10.1 4.7-10.4-3.4-.3-7.4-3.9-9.8-8.7-1.3-2.5-2.8-4.6-3.3-4.6s-.9-.6-.9-1.4c0-.7-2-2.9-4.5-4.7-2.4-1.9-4.7-4.2-5-5.2-.4-.9-1-1.5-1.3-1.3-1.2.7-3.7-1.8-4-3.9-.2-1.1-.4-3.5-.5-5.3-.1-2.6-.6-3.4-2.5-3.9-1.4-.3-2.7-.1-3.2.7-.6.9-1.2.9-3 0-1.7-.9-2.5-.9-3.9.4-1.5 1.4-2.1 1.4-6.2-.2-2.4-.9-4.4-2.2-4.4-2.7-.2-2.6-3-6.5-4.7-6.5-1.8 0-1.9.5-1.3 6l.7 6-3.7-.5c-2.5-.3-3.8 0-4.2 1-.8 2.3-3.9 1.8-5.7-1-1.8-2.7-5.2-3.5-4.2-1 .6 1.8-2.2 3.5-5.8 3.5-1.4 0-2.6.4-2.6 1 0 1.4-1.3 1.2-3.6-.5-1.6-1.3-1.6-1.4-.1-.9 1.8.6 2.1-.3 1.1-3-.3-.9-1-1.3-1.6-1-.5.3-2 .3-3.4 0-1.8-.5-2.4-1.3-2.4-3.4 0-1.5-.9-3.8-1.9-5.2-1.9-2.4-2-2.4-4.1-.5-1.2 1.1-1.9 2.7-1.6 3.8.5 2.2-2.7 3.7-7.6 3.5-1.8 0-4.4.2-5.7.7-1.5.5-2.1.4-1.7-.3.3-.6-.4-1.8-1.6-2.6-3.4-2.4-4.9-5.8-3.2-7.1 1.1-.8.2-1.7-4.1-4.5-3-1.9-7.7-5.5-10.4-8-4-3.7-4.7-4.9-4-6.3.8-1.4.6-1.7-1.3-1.7-1.3 0-4.6-.6-7.5-1.4-4.6-1.2-5.2-1.2-5.8.1-.5 1.4-.8 1.3-2.5-.2-1.1-1-2-2.8-2-4 0-1.2-1.3-3.4-3-4.8-2.6-2.4-3-2.5-3-.9zm67.5 43.2c.4.6 1.1.8 1.6.5.5-.4.9-.2.9.3 0 1.6-3.3 2.4-4.2 1-.4-.7-.8-1.6-.8-2.1 0-1.1 1.8-.9 2.5.3zm41.4 75.2c1.1 1.1 1.4 1 1.8 0 .3-.9 1.2-.7 3 .8 1.4 1.1 3.3 2 4.1 2 1.2 0 1.3.3.5 1.1s-1.7.8-3.1 0c-1.1-.6-2.9-1.1-3.9-1.1s-3.1-.9-4.8-2c-2.6-1.7-2.7-2-.9-2 1.1 0 2.6.6 3.3 1.2zM1043.727 594.37c0 1.6-1.4 2-5.6 1.7-1.8-.2-2.1.2-1.7 2.4.3 1.4 1 2.8 1.6 3.2.6.3.7.1.3-.6-.7-1.1.7-2 4-2.5 2-.3 3.8-4.2 2.4-5.1-.6-.4-1 .1-1 .9zM1009.027 599.67c.9.2 2.3.2 3 0 .6-.3-.1-.5-1.8-.5-1.6 0-2.2.2-1.2.5z"/><path d="M1041.727 602.97c0 1.5-.7 2-2.5 2-1.3 0-4 1.4-6 3.1l-3.5 3.1-4.1-2.8c-2.3-1.6-4.3-3.4-4.6-4.1-.6-1.5-6.3-1.2-6.3.4 0 .6-.6 1.3-1.2 1.6-1 .3-1 .7 0 2 .8.9 1.1 2.1.7 2.7-.4.6-.1 2.5.6 4.2 1 2.4 1 3.1-.1 3.8-2.2 1.4 3.5 4.4 7 3.7 2.3-.5 3.2-.2 4 1.3.6 1.1 2 2.4 3.1 3 3.2 1.8 5.1-.5 4.7-5.7-.2-3.1 0-4.2.9-3.9 1.6.6 3.3-2.4 3.3-5.7 0-1.6.8-2.8 2.5-3.5 1.5-.7 2.5-2 2.5-3.2 0-1.1.5-2 1-2 .6 0 1-.5 1-1 0-.6-.7-1-1.5-1s-1.5.9-1.5 2zM1066.327 624.47c-1.9 1.4-1.6 4.5.4 4.5.5 0 1 .7 1 1.6 0 1.1-.5 1.4-1.6 1-1.2-.4-1.4-.1-.9 1.4.9 2.7-.3 6-2.2 6-2.5 0-7.3-4-7.3-6.1 0-1-.6-1.9-1.2-1.9-.7 0-3.3-1.3-5.7-2.9-2.5-1.7-4.8-2.8-5.3-2.5-.4.3-.8.1-.8-.3 0-1.1-6.8-.4-7.5.7-.2.4 1.5 2 3.9 3.5 3.2 2 4.2 3.2 3.9 4.6-.3 1 .5 3.4 1.7 5.4 1.2 2 2 3.9 1.6 4.2-.3.3.6 2 2.1 3.7 2.2 2.7 2.4 3.1.9 3.4-.9.2-1.5.9-1.4 1.4.6 1.7 4.5 1.9 5.2.3.3-.8 1.5-1.5 2.6-1.5 1.3 0 2.5-1 3.3-2.8 1.4-3.3 2.7-4.3 4.7-3.7.8.2 3 .1 4.8-.3l3.2-.7-2.5-2.7c-2.3-2.5-2.3-2.7-.6-3.3 1.3-.4 1.8-1.7 2-5.1 0-2.6.3-5 .6-5.4.8-1.2-.6-4-1.9-4-.6 0-1.9.7-3 1.5zM1073.927 626.77c-2.6.8-1.1 3.8 2.6 5.5 2.1.9 4.5 1.7 5.3 1.7.8 0 2 .9 2.7 2 .7 1.1 2.3 2 3.5 2 3.2 0 3.9.9 2.1 2.8-1.4 1.4-1.4 1.6 0 2.4 2.8 1.6 2 5.5-1.4 6.7-1.6.5-3 1.4-3 1.9s2 2.6 4.5 4.7c2.5 2 4.2 4.1 3.9 4.6-.3.6 0 .9.7.7 1.7-.3 10.1 4.7 14 8.4 3.3 3 4.1 7.5 1.2 6.3-1.4-.5-1.5-.3-.6.6 1.2 1.2 0 4.5-2.2 6.1-.5.4-.7.8-.2.9.4.1 1 .2 1.5.3 2.3.5 5.2 3.4 5.2 5.2 0 1.1.9 2.9 2 3.9 1.5 1.3 1.7 2.2 1 3.6-1.8 3.3-1.2 9.3 1 10.7 1.2.7 2.5 1 3.1.6.5-.3 1.7 0 2.5.7 1.1.9 1.2 1.4.3 2-.9.5-.8 1.4.5 3.4 1 1.5 1.5 3.2 1.3 4-.3.7 1 2.7 2.9 4.6 2.5 2.5 3.2 3.8 2.8 5.6-.5 1.9-.2 2.3 1.7 2.3 3 0 8.5 3.5 7 4.4-.9.6-.8 1.6.6 5.6.4.8.8 2.4 1 3.4.7 3.6 2.4 4.6 7.9 4.6 2.9 0 5.6-.5 5.9-1 .3-.6.1-1-.4-1-.6 0-1.1-.4-1.1-1 0-.5.6-.9 1.3-.7.6.1 1.1-.4 1-1.1-.2-.6 0-1.2.5-1.2 1.2 0 2.7 1.4 3 3 .7 3.4 5.3 11.9 7.9 14.7 2.3 2.4 4 3.2 8.5 3.7 5.8.7 8.8 3.2 8.8 7.1 0 1.7 2.5 2.1 3.5.5.8-1.4 4.5.6 4.5 2.4 0 1.8 2.5 2.7 3.7 1.5.6-.6 3.9-.2 9 1 7 1.6 8.6 2.5 12.6 6.4 2.4 2.5 6 5.3 7.8 6.3 1.9.9 4.8 2.8 6.5 4 1.7 1.3 4 2.4 5.1 2.4 1 0 2.9.9 4.1 2 2.1 2 4.2 2.6 4.2 1.2 0-2.4-2.3-8.2-3.3-8.4-.7 0-1.7-.2-2.2-.2-.6-.1-2.4-1.1-3.9-2.4-1.9-1.5-3.6-2-5.2-1.6-2.1.6-2.4.3-2.4-2.5 0-1.7-.5-3.1-1.2-3.1-.6 0-.8-.3-.5-.6.3-.4.1-1.6-.5-2.7-.9-1.7-.8-1.9.6-1.4 1.6.6 2-.3 1.7-3.2-.2-.7.2-1 .7-.7 1.2.7 2.5-2.2 1.6-3.5-.3-.5-2.2-1.2-4.3-1.5-2.7-.4-4.2-1.3-4.9-2.9-.6-1.3-3.2-3.3-5.9-4.5-2.6-1.2-6-2.8-7.5-3.5-1.6-.8-2.8-1-2.8-.6 0 1.4-3.9 2-4.5.7-.4-.8-.7-.8-1.1.1-.4.9-1.4.3-3.1-1.7-1.5-1.8-3.4-3-4.9-3-1.4 0-2.2.4-1.9 1 .8 1.3-.5 1.3-2.5 0-1.3-.9-1.3-1 0-1 3-.1-1.4-2-4.6-2-2.5 0-3.3-.6-4.7-3.9-1-2.1-1.4-4.6-1.1-5.5.4-1-.1-2.5-1.1-3.6s-1.5-2.6-1.2-3.5c.4-.8.2-1.5-.3-1.5s-2-1.1-3.3-2.5c-2.7-3-4.9-2.6-6.5 1.1-1.3 2.7-3.2 3.2-3.2.8 0-.8-.5-1.2-1.1-.9-.6.4-1.3-.2-1.6-1.4-.3-1.2-1.2-2.1-2-2.1-1.1 0-.7-.9 1.1-3.1 1.4-1.7 2.6-3.7 2.6-4.5 0-.8.5-1.4 1.1-1.4.7 0 .8-.7.4-1.8-.4-.9-.7-3-.6-4.6.1-1.6-.6-3.7-1.5-4.7s-1.3-2.3-.9-2.8c.3-.6-.2-1.1-1.3-1.1-3.1 0-3.4-1.2-.8-3.9 2.7-3 4-8.3 2.4-9.9-.8-.8-.8-1.5.2-2.7 1.1-1.3 1.1-2 0-3.9-.6-1.3-.9-3.3-.5-4.4.7-2.3-.9-6-3.4-7.9-1-.8-1.1-1.2-.4-1.3 1.9 0-.5-5.8-3.1-7.2-1.1-.7-2.5-1.2-3.1-1.3-.5 0-4-1.5-7.7-3.3-4.7-2.4-7-4.2-7.8-6.2-1.3-3-3-3.8-6.7-3.2-1.6.3-2.3 1.1-2.3 2.8 0 1.9-.5 2.4-2.5 2.4-1.4 0-3.4.5-4.4 1.2-1.5.9-2.3.9-3.6-.2-.9-.7-3.5-1.4-5.7-1.4-3.4-.1-4.3-.6-5.1-2.6-2.4-6.3-2.7-6.6-5.9-6.2-2.2.3-2.9.1-2.3-.7.9-1.6-2.8-5.6-6.6-7.1-2-.9-2.9-2-2.9-3.5 0-2-2.8-4-5.2-3.6-.5.1-.8-.3-.8-.8 0-1-4-1.9-5.8-1.3zm83.3 104.4c2.6 1.2 3.4 2.8 1.3 2.8-1.7-.1-6.7-3.9-5.1-4 .7 0 2.4.5 3.8 1.2zm-4.8 1.4c-.3.3-1.2.4-1.9.1-.8-.3-.5-.6.6-.6 1.1-.1 1.7.2 1.3.5zm34.3 22.8c0 .3-.4.8-1 1.1-.5.3-1 .1-1-.4 0-.6.5-1.1 1-1.1.6 0 1 .2 1 .4zM1077.527 646.17c.7.7 1.2 2.4 1.2 3.9 0 3.4 4.2 6.6 5.9 4.5.9-1.1.5-2.2-1.6-4.7-3.1-3.8-4.4-4.9-5.7-4.9-.6 0-.5.5.2 1.2zM1039.027 651.57c0 .8.6 1.4 1.4 1.4.7 0 1.3-.4 1.3-.9s-.6-1.1-1.3-1.4c-.8-.3-1.4.1-1.4.9zM1042.527 658.97c.3 2.5 0 4-.7 4-.6 0-1.1.5-1.1 1.1 0 .6-.9 2.2-2 3.6s-2 2.2-2 1.7c0-.5-.5-.2-1 .6-.8 1.3-1.3 1.3-3.9-.3-2.9-1.7-3.6-.9-1.8 2 .5.7.5 1.9 0 2.5-.4.7-.6 2.2-.4 3.2.2 1.5-.2 1.8-1.8 1.3-1.2-.3-2.1-.1-2.1.3 0 .5-1.8 1.1-4.1 1.5-3 .5-3.9 1.1-3.5 2.2.4 1 .1 1.3-1.3.8-1.5-.4-1.8-.1-1.5 1.7.6 3.1-5 9.2-7.6 8.5-1.5-.4-2 .1-2.2 2.2-.2 1.8-1 2.7-2.5 2.9-2.8.4-3 2.8-.3 4.4 1.1.7 2 1.8 2 2.5s.6 1.3 1.3 1.3c.9 0 .8.3-.2.9-.7.5-1 1.4-.7 2 .4.6.3 1.1-.3 1.1s-.8.7-.5 1.5c.5 1.2 1.5 1.4 4.3.9 2-.4 4.3-.8 5.1-.9.9 0 2.1-.5 2.8-.9.9-.5 1.9-.1 2.8 1.3.8 1.2 2.1 2.1 2.8 2.1.7 0 2.5.9 4 2.1 1.4 1.1 2.6 1.5 2.6.9 0-.7.8-.9 2.1-.5 1.6.6 2 .4 1.4-.6-.5-.8 0-.7 1.1.3 2.1 1.8 7.2 1.5 8.9-.6 2.5-3.1 8.1-2.4 6.9.8-.3.7.9 2.9 2.5 5 1.6 2 3.1 4.2 3.3 4.7.4 1.3 7.8.1 7.8-1.2 0-.5-.4-.9-1-.9-.5 0-1-1.1-1-2.5 0-2 .5-2.5 2.5-2.5 2.7 0 4.7-3.2 3.7-5.9-.3-.9 0-1.2.9-.9.8.3 1.3 1.2 1.1 1.9-.1.8.4.5 1.3-.5.8-1.1 1.5-3 1.5-4.3 0-1.4.6-2.3 1.5-2.3.8 0 1.5-.7 1.5-1.6 0-.8.4-1.3.9-.9.5.3 1.2.1 1.6-.5.3-.5.2-1-.3-1-.6 0-2-1.7-3.2-3.8-2.4-4-2.9-12.4-.8-14.9.7-.9.6-1.4-.6-1.9-1-.4-1.5-1.2-1.2-2 .3-.7-.1-1.8-.9-2.4-.7-.6-2.1-2.6-3-4.5-1.2-2.6-2.2-3.5-4-3.5-3.4 0-9.2-5.4-9.2-8.4 0-1.5-1.2-3.5-2.9-5-3.1-2.7-4.4-3.2-4.4-1.6 0 .7-.6.7-1.9 0-2.7-1.4-2.7-1.5-2.3 3zm-.3 18c.4.6 1 .8 1.4.6.4-.3.8.8.8 2.4 0 3.5-3.4 5.3-4.9 2.6-.8-1.4-1.3-1.5-2.4-.5-1.1.9-2.1.9-3.9.1-1.4-.6-3.3-.9-4.2-.6-1.5.5-1.5.3.2-1.1 1.3-1 3-1.4 4.8-1.1 1.9.4 3.3 0 4.5-1.3 2-2.2 2.8-2.5 3.7-1.1zM968.327 717.67c.9 3.7 1.1 3.8 2.4 1.3 1-1.8.9-2.4-.1-3.1-2.4-1.5-3-1-2.3 1.8zM1032.727 723.87c0 2.5.6 2.7 1.3.6.4-.8.2-1.7-.3-2-.6-.4-1 .3-1 1.4zM971.927 725.47c-.7.8-1.1 1.5-1 1.6 4 .9 5.8.6 5.8-1.2 0-2.3-2.9-2.5-4.8-.4zM884.427 737.57c-.4.4-.7 1.4-.7 2.3 0 1.1.3 1.2 1.1.4.6-.6 1-1.6.7-2.3-.2-.6-.7-.8-1.1-.4zM881.727 741.97c0 .5.5 1 1.1 1 .5 0 .7-.5.4-1-.3-.6-.8-1-1.1-1-.2 0-.4.4-.4 1zM879.427 747.37c-.4 1-.4 2.3 0 2.9.3.7-.2.4-1.3-.5-1.9-1.7-2-1.6-3.3 2.7-.7 2.5-1.8 4.9-2.5 5.3-.6.4-2 2.4-3.1 4.5-1 2.1-3.1 4.9-4.6 6.2-1.6 1.2-2.5 2.5-2.2 2.9.3.3-.6 1-2.1 1.6-1.5.5-2.9 1.7-3.3 2.5-.3.9-2 2.6-3.8 3.8-6 4.1-10.8 8.9-9.7 9.6 1.6 1 1.1 5.3-.6 4.6-1-.3-1.3.3-1 2.2.4 3.5-3.7 5.8-8.7 4.9-2.7-.5-3.4-1.2-3.7-3.3-.2-2-1.4-3.3-4-4.7-2.7-1.4-3.8-2.6-3.8-4.2 0-2.9-1.6-3.9-3.6-2.3-1.3 1.1-1.8 1-2.5-.4-.9-1.5-1.2-1.5-3.7.8-1.5 1.4-3.7 2.8-4.9 3.1-1.4.4-2 1.1-1.6 2 .3.9-.4 2.4-1.6 3.5-1.2 1.1-2.4 3.4-2.8 5-.4 2.2-.9 2.7-2.1 2-2.5-1.4-5.2-.1-5.2 2.6 0 2.5 2 5.3 3.8 5.3 1.4 0 2.2 2.6 1.1 3.7-.6.6-.1.9 1.3.9 2.5-.1 5.8-2.4 5.8-4.1 0-2.4 2.6-6.5 4.2-6.5.9 0 1.9-.6 2.2-1.3.3-.6.4 1 0 3.8-.3 2.7-.6 6.9-.7 9.2-.1 2.4-.5 4.3-.9 4.3s.6 2.7 2.4 6c1.8 3.4 3.3 8.1 3.6 11 .2 2.7 1.1 5.5 1.8 6.1.8.6 1.4 2 1.4 3 0 2 3.5 4.4 5 3.4.9-.6 8.3 3.6 9.4 5.3.3.5 1.5.8 2.8.6 1.3-.1 2.8-.3 3.3-.3.6-.1 1.7-2.1 2.4-4.5.7-2.5 1.6-4.6 2.1-4.8.4-.2 1-2 1.4-4 .6-3.2.4-3.9-1.6-4.9-3.7-1.9-5.3-5.9-2.4-5.9 1.9 0 2.7-5.8.9-6.5-.8-.2-1.1-.9-.8-1.5.3-.5.2-1-.4-1-.6 0-.8-.6-.5-1.4.3-.8.1-1.7-.5-2.1-1.7-1 1.1-3.2 3.9-3.1 2.2.1 2.5-.4 2.8-3.9.4-4.6 1.6-5.7 5.6-4.9 1.9.4 2.6.3 2.2-.5-.4-.6 0-1.1.9-1.1 1 0 3-1.1 4.7-2.5 1.6-1.4 3.6-2.5 4.4-2.5 1 0 1.4-1.3 1.4-5 0-3 .4-5 1.1-5 .6 0 .9-.6.6-1.4-.3-.8-.1-3.1.6-5.1.8-2.8 1.5-3.5 2.9-3.2 1 .3 1.8 0 1.8-.7 0-1.7 3.8-4.7 4.5-3.6 1.2 2 4.5 1 5.1-1.5.4-1.8 1.3-2.5 2.9-2.5 4.1 0 4-5.5-.1-7-3.6-1.4-3.1-3.8.6-3.2 2.6.4 3 .1 3-2 0-1.3-.6-3-1.2-3.7-1.3-1.2-1.4-1.6-1.7-4.6 0-.8-.8-1.5-1.7-1.5-.9 0-2.4-1-3.3-2.2-1.6-1.9-1.8-2-2.4-.4z"/><path d="M805.127 816.47c.3.8.1 1.5-.4 1.5s-.7.7-.4 1.5c.4.8 1.2 1.5 1.9 1.5.8 0 1.7.9 2 2 .3 1.1 1.1 2 1.7 2 .6 0 .3-1.1-.6-2.5-.9-1.4-1.4-3-1.1-3.6.8-1.1-1.2-3.9-2.7-3.9-.6 0-.8.7-.4 1.5z"/></g></svg>