<?xml version="1.0" standalone="no"?>
<!DOCTYPE svg PUBLIC "-//W3C//DTD SVG 20010904//EN"
 "http://www.w3.org/TR/2001/REC-SVG-20010904/DTD/svg10.dtd">
<svg version="1.0" xmlns="http://www.w3.org/2000/svg"
 width="1072.867898pt" height="550.322734pt" viewBox="0 0 1072.867898 550.322734"
 preserveAspectRatio="xMidYMid meet">
<metadata>
Created by potrace 1.15, written by Peter Selinger 2001-2017
</metadata>
<g transform="translate(-486.352763,1286.438456) scale(0.100000,-0.100000)"
fill="#222222" stroke="none">
<path d="M14560 12846 c-12 -33 -36 -48 -75 -48 -39 0 -43 -8 -17 -34 21 -21
25 -125 5 -117 -14 5 -33 -35 -33 -69 0 -11 -8 -26 -17 -33 -16 -12 -16 -14 0
-38 19 -29 23 -77 6 -77 -6 0 -9 -10 -8 -22 3 -35 -11 -58 -35 -58 -44 0 -46
-13 -15 -69 33 -61 39 -107 13 -97 -11 4 -15 2 -11 -8 9 -22 -3 -26 -29 -10
-13 9 -28 13 -33 9 -6 -3 -20 -1 -31 5 -17 9 -22 7 -32 -15 -10 -22 -9 -28 3
-36 10 -6 10 -9 2 -9 -7 0 -13 -5 -13 -11 0 -21 -83 -85 -142 -109 -24 -11
-26 -15 -23 -66 2 -30 0 -54 -4 -54 -5 0 -4 -20 2 -44 11 -50 5 -78 -17 -70
-21 8 -31 -33 -14 -58 19 -29 2 -115 -25 -124 -23 -7 -39 -48 -31 -78 4 -19 0
-25 -25 -36 -17 -6 -33 -20 -36 -30 -9 -27 -111 -93 -134 -85 -10 3 -24 -1
-31 -10 -7 -8 -20 -13 -30 -10 -10 3 -28 -5 -45 -21 -19 -18 -34 -24 -51 -20
-17 4 -24 1 -29 -13 -4 -14 -19 -20 -66 -25 -47 -6 -59 -10 -57 -23 2 -12 -10
-20 -40 -29 -47 -14 -78 -6 -116 28 -13 11 -23 14 -31 8 -6 -5 -16 -5 -25 0
-8 6 -24 10 -35 10 -11 0 -31 11 -43 25 -16 17 -31 23 -45 20 -27 -7 -113 18
-136 39 -51 48 -61 55 -83 58 -14 2 -24 11 -26 24 -2 12 -16 34 -32 49 -24 23
-32 26 -44 16 -9 -8 -16 -8 -20 -2 -4 6 -13 8 -21 5 -7 -3 -18 3 -24 14 -6 11
-24 33 -39 49 -25 25 -33 27 -60 19 -23 -6 -36 -5 -48 5 -17 14 -67 21 -95 13
-11 -3 -14 -13 -11 -36 4 -25 2 -30 -11 -25 -9 3 -17 1 -19 -5 -6 -17 -83 23
-95 50 -12 24 -3 28 25 13 12 -6 24 -4 37 5 19 14 19 15 -1 20 -12 3 -26 16
-32 29 -6 12 -37 40 -69 61 -56 38 -58 41 -61 87 -2 26 -7 47 -13 47 -5 0 -9
-7 -9 -15 0 -12 -4 -13 -19 -5 -32 17 -54 13 -48 -10 5 -21 -16 -45 -33 -35
-5 3 -10 2 -10 -3 0 -15 -70 -82 -86 -82 -8 0 -17 -6 -20 -14 -3 -8 -17 -22
-30 -31 -22 -14 -26 -14 -48 0 -13 8 -30 13 -38 10 -10 -4 -25 6 -41 24 -14
17 -30 31 -36 31 -6 0 -11 9 -11 20 0 11 -7 20 -15 20 -21 0 -19 17 3 24 9 4
30 24 45 46 16 22 35 40 44 40 13 0 15 8 10 41 -5 39 -3 42 24 52 34 13 40 55
10 74 -16 10 -23 7 -49 -26 -23 -28 -28 -41 -20 -49 7 -7 13 -21 15 -32 2 -15
-2 -20 -14 -18 -12 2 -19 -4 -21 -20 -2 -12 -8 -20 -13 -17 -5 3 -7 0 -4 -7 6
-19 -43 -71 -60 -64 -8 3 -15 1 -15 -5 0 -7 -10 -9 -26 -5 -17 5 -23 3 -19 -4
4 -6 -12 -19 -37 -30 -24 -11 -37 -20 -29 -20 9 0 11 -8 7 -24 -4 -16 1 -32
15 -50 l20 -26 -39 0 c-44 0 -69 -19 -50 -38 7 -7 14 -49 15 -95 2 -45 5 -99
6 -119 3 -43 -2 -45 -60 -18 -41 18 -43 18 -43 1 0 -19 -23 -45 -32 -36 -3 3
-11 -1 -18 -10 -19 -23 -54 -18 -126 16 -54 25 -73 29 -109 23 -74 -11 -205
48 -205 92 0 7 -17 31 -37 52 -43 45 -63 75 -63 97 0 8 -8 15 -18 15 -11 0
-24 11 -30 25 -7 16 -23 28 -42 31 -29 6 -29 7 -15 40 7 18 11 33 7 32 -11 -3
-52 13 -53 20 -7 34 -5 58 5 64 7 5 8 10 1 17 -8 8 -16 5 -27 -9 -10 -11 -13
-22 -8 -25 15 -10 12 -61 -5 -75 -8 -7 -15 -27 -15 -46 0 -37 -6 -43 -45 -46
-20 -2 -28 -9 -32 -31 -4 -18 -15 -32 -30 -38 -25 -9 -25 -9 31 -70 31 -33 56
-65 56 -71 0 -5 7 -7 16 -4 19 7 97 -31 89 -44 -4 -6 -2 -10 4 -10 5 0 13 5
17 11 4 7 15 1 29 -17 13 -16 27 -29 32 -29 4 0 23 -11 41 -23 24 -17 36 -21
45 -13 9 7 16 5 25 -10 14 -23 32 -25 32 -4 0 17 9 19 28 7 9 -7 10 -15 3 -35
-7 -17 -7 -27 -1 -27 6 0 10 -10 10 -23 0 -13 5 -28 12 -35 9 -9 8 -12 -5 -12
-10 0 -24 -6 -31 -12 -11 -11 -11 -17 3 -38 8 -14 19 -28 24 -31 5 -3 -1 -9
-12 -12 -13 -3 -21 -13 -21 -25 0 -11 -11 -29 -25 -40 l-25 -20 26 -21 c35
-28 48 -26 76 7 13 15 31 28 40 30 15 2 17 -3 12 -27 -5 -26 -1 -36 27 -62 21
-20 29 -34 22 -36 -10 -4 -9 -8 2 -20 8 -8 15 -23 15 -33 0 -10 7 -20 15 -24
8 -3 14 -9 13 -13 -1 -4 2 -21 7 -37 6 -24 4 -32 -16 -46 -21 -17 -24 -17 -36
-2 -16 22 -16 32 1 32 17 0 28 24 20 44 -3 8 -17 22 -32 32 -23 15 -26 15 -37
0 -7 -8 -15 -12 -19 -8 -4 4 -12 -1 -17 -10 -13 -23 -34 -13 -59 28 -27 46
-26 58 5 50 18 -5 25 -2 25 9 0 8 6 15 14 15 8 0 18 5 21 10 13 21 -79 2 -97
-20 -9 -11 -22 -20 -30 -20 -10 0 -9 -3 2 -10 11 -7 8 -10 -16 -10 -40 0 -70
-29 -78 -78 -3 -23 -16 -50 -31 -63 -13 -13 -25 -30 -25 -36 0 -9 -19 -13 -59
-13 -41 0 -62 -5 -71 -15 -7 -9 -19 -14 -27 -11 -8 3 -13 -2 -13 -12 0 -11
-22 -27 -65 -47 -36 -16 -65 -35 -65 -43 0 -16 -86 -55 -109 -49 -12 3 -21 -5
-29 -23 -17 -38 -50 -70 -72 -70 -15 0 -20 -7 -20 -25 0 -14 3 -25 8 -25 11 0
10 -104 -2 -112 -7 -5 -5 -16 7 -37 23 -39 22 -41 -19 -89 -30 -35 -41 -42
-73 -42 -20 0 -42 -5 -49 -12 -9 -9 -12 -9 -12 3 0 23 -39 53 -93 73 -27 10
-50 23 -53 30 -2 6 -29 23 -59 36 -30 14 -55 30 -55 36 0 6 -7 26 -16 44 -9
17 -16 43 -16 56 0 17 -7 26 -24 30 -22 6 -84 72 -84 89 0 4 -8 14 -17 21 -15
11 -16 16 -5 33 6 12 12 31 12 43 0 13 7 31 15 42 10 13 11 24 5 37 -14 25
-13 29 8 29 26 0 25 39 -1 60 -12 10 -26 15 -32 10 -6 -5 -24 3 -42 19 l-32
26 25 12 c13 6 22 7 18 2 -8 -14 5 -11 36 7 25 15 26 19 14 42 -7 14 -18 28
-25 32 -16 10 -2 30 20 30 10 0 26 9 35 19 13 14 24 17 39 12 26 -10 57 24 57
61 0 12 6 43 14 68 12 41 16 45 46 45 29 0 34 5 49 42 9 23 27 53 40 67 13 14
21 31 18 38 -2 8 11 29 30 48 28 29 34 41 30 66 -6 36 0 49 29 58 18 6 23 17
29 73 5 46 4 68 -4 71 -6 2 -11 8 -11 13 0 6 4 7 10 4 7 -4 7 3 0 19 -7 18 -6
26 1 26 8 0 8 4 2 13 -6 6 -13 25 -17 40 -4 16 -16 38 -26 50 -11 11 -20 31
-20 44 0 20 4 23 28 18 21 -5 24 -4 10 4 -24 16 -11 51 19 51 20 0 24 4 20 19
-3 12 4 27 18 39 l24 21 10 -30 c10 -29 33 -37 60 -20 9 6 10 11 2 15 -6 4 -9
12 -5 17 3 5 10 7 15 4 8 -6 13 8 10 28 -2 13 33 42 64 52 22 8 31 18 33 38 3
23 -3 29 -35 44 -44 21 -52 29 -59 65 -4 14 -15 28 -25 31 -15 4 -19 14 -19
47 0 23 -5 50 -11 62 -8 14 -7 28 2 49 9 23 9 33 0 42 -9 9 -14 9 -20 -2 -5
-7 -14 -10 -20 -7 -6 4 -9 11 -6 16 3 4 -5 11 -18 15 -13 4 -17 8 -10 11 19 8
37 84 23 98 -8 8 -13 7 -19 -2 -4 -8 -16 -12 -26 -10 -14 2 -21 -6 -27 -31 -6
-23 -12 -30 -17 -22 -6 10 -10 9 -15 -4 -4 -12 -14 -16 -31 -13 -14 3 -25 1
-25 -3 0 -5 -3 -8 -7 -8 -30 5 -43 -3 -43 -26 0 -30 3 -30 -45 -5 -22 11 -47
20 -56 20 -9 0 -27 10 -40 23 -26 25 -59 41 -59 29 0 -5 5 -13 11 -19 13 -13
4 -33 -16 -33 -7 0 -23 -13 -34 -29 -12 -16 -29 -28 -38 -27 -14 1 -18 -6 -16
-34 1 -19 -3 -37 -8 -41 -19 -11 -38 -108 -28 -141 8 -29 5 -35 -49 -89 -31
-33 -62 -57 -69 -55 -7 3 -10 -1 -7 -8 3 -8 0 -17 -6 -21 -7 -4 -14 2 -17 14
-3 12 -11 21 -18 21 -7 0 -24 12 -37 28 -13 15 -30 28 -37 30 -7 1 -20 9 -28
17 -8 8 -18 15 -22 15 -3 0 -15 14 -24 30 -18 30 -18 30 4 30 21 0 21 1 6 18
-10 10 -17 28 -17 40 0 11 -8 27 -19 34 -10 7 -21 27 -25 45 -6 28 -10 31 -25
21 -19 -12 -70 0 -72 17 -4 23 -61 54 -90 48 -20 -4 -30 -1 -34 9 -6 15 -48
14 -70 -2 -16 -12 -65 -21 -65 -12 0 4 -13 13 -29 19 -25 9 -30 8 -34 -8 -3
-11 -15 -20 -29 -20 -12 -1 -30 -2 -38 -3 -8 -1 -33 -10 -55 -20 -32 -16 -44
-17 -69 -8 -36 14 -37 13 -39 -32 -1 -20 -5 -36 -9 -36 -13 0 -9 -50 7 -80 9
-17 22 -30 29 -30 16 0 66 -118 66 -155 0 -14 -5 -25 -11 -25 -8 0 -8 -5 1
-15 7 -8 18 -15 24 -15 7 0 12 -27 14 -72 2 -40 6 -77 9 -82 4 -5 7 -34 9 -64
1 -41 7 -57 22 -68 11 -8 28 -35 38 -60 14 -38 15 -47 4 -54 -10 -6 -11 -12
-3 -22 6 -7 8 -30 6 -50 -4 -32 -9 -38 -30 -38 -18 0 -27 -8 -34 -29 -10 -29
-32 -41 -76 -41 -12 0 -35 -11 -51 -25 -16 -13 -32 -21 -36 -17 -4 4 -6 1 -4
-7 2 -8 -14 -20 -42 -30 -25 -9 -56 -26 -68 -39 -13 -12 -36 -25 -52 -28 -20
-5 -27 -11 -23 -21 5 -12 1 -14 -15 -8 -14 4 -22 2 -22 -5 0 -6 -11 -15 -25
-20 -14 -5 -25 -16 -25 -23 0 -8 -9 -22 -20 -32 -11 -10 -20 -24 -20 -31 0
-19 -47 -29 -65 -14 -8 6 -19 8 -26 4 -7 -4 -25 -7 -41 -6 -26 1 -29 -2 -26
-27 3 -34 -46 -84 -116 -119 -25 -13 -46 -28 -46 -34 0 -6 -3 -8 -7 -5 -3 4
-16 0 -29 -8 -20 -13 -27 -12 -70 10 -35 18 -50 21 -55 13 -6 -9 -12 -8 -26 3
-10 8 -30 20 -45 27 -16 6 -28 15 -28 19 0 5 -27 8 -60 9 -33 0 -60 -1 -60 -3
0 -2 11 -16 25 -31 25 -27 33 -52 15 -52 -5 0 -7 -7 -4 -15 4 -8 1 -15 -6 -15
-6 0 -10 10 -8 22 3 24 -30 48 -69 48 -29 0 -33 -9 -23 -50 4 -19 8 -31 9 -27
1 9 75 -61 77 -71 0 -4 6 -20 12 -35 7 -16 12 -37 12 -48 0 -10 4 -19 8 -19 5
0 17 -6 27 -14 17 -12 17 -14 2 -37 -10 -13 -17 -40 -17 -61 0 -27 -4 -38 -15
-38 -21 0 -19 -14 6 -36 33 -29 42 -53 29 -70 -7 -7 -10 -23 -7 -34 3 -11 0
-20 -6 -20 -7 -1 0 -8 16 -16 15 -8 27 -21 27 -29 0 -8 6 -15 13 -15 6 -1 3
-6 -9 -13 -12 -7 -19 -18 -16 -27 4 -12 3 -13 -10 -2 -13 10 -18 8 -32 -13 -9
-14 -23 -25 -32 -25 -8 0 -12 -5 -9 -11 4 -6 -1 -13 -12 -15 -12 -4 -24 -24
-36 -65 -16 -55 -19 -59 -47 -59 -26 0 -30 -4 -30 -27 0 -34 -14 -58 -28 -49
-17 10 -53 -25 -41 -40 7 -8 7 -19 1 -31 -17 -31 -25 -120 -12 -128 7 -4 9
-21 5 -45 -5 -32 -3 -38 13 -42 21 -6 21 -28 0 -100 -8 -27 -15 -35 -27 -30
-14 5 -14 3 2 -15 9 -11 17 -26 17 -34 0 -8 11 -31 25 -52 16 -23 28 -57 31
-90 5 -47 13 -74 34 -117 4 -8 18 -20 31 -27 19 -10 26 -25 36 -75 6 -35 17
-85 22 -112 8 -35 8 -53 0 -62 -11 -14 -3 -38 11 -29 4 3 7 -3 6 -12 0 -10 6
-18 14 -19 8 0 23 -2 33 -2 12 -2 17 -11 17 -32 0 -16 -4 -30 -10 -30 -5 0 -7
-7 -4 -15 4 -8 -1 -17 -10 -21 -11 -4 -14 -13 -11 -25 4 -13 1 -19 -8 -19 -11
0 -14 -8 -11 -27 5 -40 -18 -68 -45 -54 -27 15 -30 14 -24 -9 6 -22 -22 -29
-30 -7 -3 9 -7 9 -20 -2 -14 -11 -18 -10 -29 13 -6 15 -17 25 -24 22 -6 -2
-17 1 -23 7 -8 8 -11 8 -11 0 0 -11 -43 -9 -62 3 -5 3 -25 8 -46 10 -20 3 -41
9 -46 14 -15 15 -29 12 -23 -5 4 -8 2 -17 -3 -20 -5 -3 -7 -12 -3 -20 3 -9 -1
-22 -8 -31 -16 -20 6 -44 45 -48 15 -2 31 -7 34 -13 4 -5 15 -13 26 -16 15 -6
18 -14 13 -45 -3 -20 -3 -31 0 -24 10 27 54 -77 52 -123 -2 -24 3 -50 10 -59
11 -13 11 -16 -3 -16 -9 0 -16 -7 -16 -15 0 -8 -4 -15 -8 -15 -15 0 0 -63 19
-84 21 -22 24 -36 9 -36 -18 0 -10 -18 25 -54 19 -20 41 -36 49 -36 8 0 38 -5
66 -11 38 -8 49 -14 41 -22 -8 -8 -14 -8 -22 0 -12 12 -61 5 -53 -8 12 -21 -8
-69 -31 -75 -14 -3 -27 -15 -31 -26 -3 -11 -12 -17 -20 -14 -15 6 -20 -19 -5
-29 5 -3 13 -31 17 -63 3 -31 11 -62 16 -69 6 -8 3 -21 -9 -39 -12 -19 -14
-29 -6 -31 12 -4 7 -71 -7 -86 -3 -4 -23 -8 -43 -9 -27 -1 -37 -6 -37 -17 0
-9 -7 -26 -15 -38 -12 -17 -13 -23 -3 -30 30 -19 65 -36 90 -43 26 -8 27 -7
34 38 5 34 15 54 35 73 16 14 29 32 29 40 0 9 14 15 40 17 38 2 40 1 41 -28 2
-42 3 -47 12 -56 4 -4 7 -2 7 5 0 8 11 10 35 5 40 -7 75 15 75 48 0 10 7 21
15 24 8 3 26 29 40 57 29 60 46 89 62 108 15 18 19 51 10 66 -4 7 -3 21 3 32
7 13 7 22 0 26 -5 3 -10 11 -10 16 0 6 5 7 11 4 6 -4 21 3 34 15 14 13 31 20
39 17 10 -4 16 -1 16 8 0 11 11 13 50 8 37 -4 56 -1 74 11 14 9 35 16 46 16
54 0 111 23 125 50 8 15 28 33 44 40 23 9 32 21 37 46 7 37 32 46 54 19 11
-13 15 -13 33 0 12 8 37 15 57 15 24 0 39 6 48 20 14 23 32 26 32 5 0 -8 11
-22 25 -31 24 -16 27 -16 38 1 12 15 18 16 56 4 37 -11 47 -10 75 5 23 12 43
16 67 11 138 -27 217 -27 232 0 6 12 12 13 21 6 9 -8 17 -2 29 24 9 19 22 35
29 35 22 0 -15 20 -38 20 -25 0 -54 29 -54 54 0 9 -7 30 -15 46 -13 25 -13 29
0 34 8 3 15 12 15 21 0 8 7 15 15 15 25 0 17 15 -29 54 -25 20 -46 47 -48 59
-2 16 -13 24 -41 30 -25 6 -37 14 -33 22 3 8 -15 30 -40 50 -24 20 -44 43 -44
51 0 14 -23 19 -67 15 -16 -1 -27 8 -39 31 -9 18 -35 50 -58 72 -38 36 -43 37
-72 27 -45 -16 -60 -14 -90 14 -14 13 -30 22 -34 20 -5 -3 -13 9 -19 26 -6 18
-27 46 -46 63 -27 24 -34 36 -29 54 5 16 14 22 36 22 17 0 27 4 23 10 -3 6 0
10 7 10 10 0 10 2 -1 9 -7 5 -9 11 -4 14 12 7 46 -20 39 -31 -3 -6 8 -15 26
-21 l32 -11 -21 22 c-16 17 -19 27 -12 41 6 9 14 17 18 17 10 0 24 -38 22 -57
-1 -8 5 -10 14 -7 8 3 15 1 15 -5 0 -7 20 -11 50 -11 37 0 50 4 50 15 0 9 6
12 15 9 11 -5 13 -10 5 -19 -7 -8 -4 -17 9 -29 12 -11 21 -14 26 -7 9 16 21
14 41 -6 9 -10 31 -25 48 -33 17 -8 32 -24 35 -35 2 -11 12 -32 22 -46 17 -25
22 -26 86 -22 37 2 70 8 71 13 2 6 12 10 23 10 11 0 19 7 20 18 0 13 3 12 11
-5 11 -22 28 -29 41 -17 3 4 -1 16 -9 29 -14 22 -14 22 37 28 54 7 89 -4 89
-27 0 -8 12 -17 26 -20 19 -5 24 -10 16 -18 -16 -16 6 -57 39 -74 17 -8 40
-11 58 -8 19 4 37 2 46 -6 11 -9 20 -8 46 11 31 22 31 22 25 1 -5 -15 -2 -22
14 -27 13 -4 20 -15 20 -31 0 -14 7 -27 15 -30 8 -4 15 -13 15 -21 0 -24 28
-45 50 -38 29 9 52 -12 40 -35 -6 -10 -10 -27 -10 -38 0 -15 5 -18 24 -15 23
5 24 3 20 -28 -3 -21 -15 -42 -30 -53 -19 -14 -22 -21 -13 -27 10 -6 9 -13 -4
-33 -22 -32 -23 -53 -3 -37 20 17 56 -7 56 -36 0 -32 -74 -85 -106 -77 -20 5
-24 2 -24 -18 0 -14 -9 -33 -20 -43 -11 -10 -20 -30 -20 -44 0 -25 -3 -26 -40
-23 -35 4 -39 2 -34 -13 6 -15 4 -16 -14 -6 -25 14 -42 14 -42 1 0 -5 6 -7 14
-4 9 3 17 -3 21 -15 8 -26 -1 -41 -25 -41 -12 0 -21 -10 -25 -31 -4 -17 -4
-33 -1 -37 4 -3 30 2 60 11 29 9 69 17 90 17 50 0 92 23 100 56 6 23 11 26 44
22 27 -3 45 1 65 16 18 13 40 19 61 18 26 -3 34 1 43 21 7 15 26 30 46 36 23
8 45 27 63 54 26 38 29 40 32 20 2 -15 10 -23 23 -23 11 0 18 -4 14 -9 -5 -9
24 -31 39 -31 3 0 6 14 6 30 0 30 1 30 55 30 42 0 59 5 74 21 11 12 24 18 29
15 6 -3 36 19 69 49 32 30 64 55 72 55 8 0 11 6 7 16 -3 8 -2 12 4 9 20 -12
50 6 50 31 0 19 5 24 25 24 18 0 25 5 25 18 0 11 9 27 20 37 11 10 22 26 25
36 9 26 38 24 73 -6 37 -31 42 -31 42 0 0 14 7 28 15 31 20 8 19 51 -2 63 -17
9 -17 11 0 45 9 20 22 36 28 36 7 0 9 9 6 21 -4 16 1 23 24 31 23 8 29 16 29
39 0 20 5 29 16 29 8 0 13 4 10 8 -7 11 35 34 54 30 8 -2 19 7 25 20 5 12 18
22 27 22 13 0 18 8 18 25 0 18 5 25 20 25 11 0 20 6 20 13 0 20 64 77 96 86
16 4 35 18 41 32 7 13 13 20 13 15 0 -5 8 -2 18 7 10 10 21 15 24 12 12 -12
18 58 6 72 -9 11 -9 16 3 24 8 5 19 9 26 9 6 0 20 11 31 25 11 14 34 30 51 36
35 12 40 40 20 98 -13 36 -6 50 15 32 11 -9 15 -8 20 5 5 13 9 14 22 3 8 -7
13 -21 10 -31 -3 -14 3 -22 22 -30 15 -7 36 -20 47 -29 31 -27 75 -29 75 -4 0
11 7 13 29 9 27 -6 28 -4 24 22 -3 20 -2 25 5 16 7 -10 13 -5 25 19 19 40 17
45 -24 53 -21 4 -29 10 -26 20 3 8 -1 22 -8 33 -8 10 -15 14 -15 9 0 -5 -11 1
-25 14 -14 13 -25 18 -25 11 0 -7 -4 -9 -10 -6 -17 10 -11 25 9 25 10 0 21 7
25 15 3 8 12 12 21 9 11 -5 15 1 15 20 0 17 5 26 16 26 11 0 14 8 12 28 -2 18
4 33 19 45 27 22 35 21 55 -2 8 -10 20 -20 26 -22 5 -2 12 -14 16 -26 6 -18 4
-22 -7 -17 -11 4 -17 -4 -22 -26 -5 -21 -12 -30 -20 -26 -9 3 -12 0 -8 -9 3
-8 -2 -18 -11 -21 -9 -3 -16 -13 -16 -21 0 -12 3 -13 14 -3 11 8 20 9 33 1 13
-7 22 -6 33 4 12 11 24 11 57 2 23 -6 45 -8 49 -4 4 3 -3 22 -14 42 -17 27
-19 41 -12 60 10 26 24 32 35 15 9 -14 37 -12 59 5 11 9 15 18 10 27 -14 20
-11 58 3 58 26 0 12 31 -27 56 -22 15 -40 30 -40 34 0 12 -49 30 -66 23 -10
-3 -22 0 -28 8 -6 8 -33 25 -60 39 -37 19 -53 34 -64 63 -8 20 -18 37 -22 37
-4 0 -18 10 -32 23 -36 32 -67 49 -78 42 -6 -4 -10 -1 -10 5 0 17 -58 38 -120
44 -19 2 -53 11 -75 22 l-40 18 41 9 c29 6 45 17 53 33 6 13 16 24 22 24 7 0
9 9 5 25 -6 23 -4 25 31 25 l36 0 -24 27 c-21 23 -22 25 -4 18 44 -17 65 -18
65 -2 0 9 20 28 45 43 34 19 45 32 45 50 0 24 1 24 30 9 34 -17 29 -19 128 35
33 19 41 28 37 44 -3 12 -2 15 1 9 8 -19 20 -16 66 17 53 38 73 38 31 0 -18
-16 -33 -31 -33 -33 0 -8 66 7 72 16 4 7 11 7 21 -1 12 -10 16 -9 21 3 4 11
13 14 26 10 15 -5 20 -2 20 11 0 15 2 16 13 5 10 -11 10 -14 0 -18 -7 -3 -13
-13 -13 -22 0 -10 -9 -30 -21 -45 l-21 -27 27 -21 c15 -11 24 -27 21 -35 -3
-7 0 -16 7 -19 8 -3 11 -17 9 -40 -4 -30 -7 -34 -25 -28 -17 5 -19 3 -14 -15
4 -15 0 -21 -11 -21 -10 -1 -27 -17 -39 -36 -19 -29 -21 -38 -10 -54 6 -11 19
-20 29 -20 9 0 20 -5 23 -10 4 -6 10 -8 15 -5 5 3 14 -3 19 -14 6 -11 7 -21 2
-23 -5 -2 -4 -14 1 -28 6 -15 12 -20 15 -12 3 6 16 12 29 12 13 0 24 -6 24
-12 1 -20 40 -60 103 -102 52 -36 59 -38 81 -26 14 7 32 10 42 6 9 -3 22 -2
29 4 9 7 15 8 19 1 4 -6 13 -8 21 -5 7 3 23 0 34 -6 17 -9 22 -8 27 5 4 9 18
15 35 15 22 0 30 6 35 25 4 16 13 25 26 25 15 0 18 4 13 18 -24 56 -10 89 24
57 12 -10 27 -14 44 -10 14 4 27 2 31 -3 3 -5 17 -7 31 -4 20 3 25 10 25 32 0
22 4 27 18 24 12 -4 21 4 30 25 10 22 20 30 35 30 12 -1 39 6 59 15 38 16 59
12 138 -27 27 -14 41 -14 83 -2 22 6 33 3 51 -14 12 -11 26 -21 32 -21 13 0
84 -77 84 -91 0 -8 4 -8 15 1 8 7 15 19 15 27 0 9 6 13 15 9 8 -3 15 -1 15 3
0 17 80 96 81 81 1 -8 3 -22 4 -30 1 -8 3 -21 4 -29 1 -11 4 -11 16 -1 8 7 23
9 32 6 13 -5 14 -9 5 -15 -9 -5 -5 -14 14 -30 19 -17 23 -26 15 -34 -6 -6 -11
-20 -11 -30 0 -13 -5 -17 -16 -13 -9 3 -4 -7 11 -23 24 -24 30 -27 51 -17 13
6 24 17 24 24 0 8 5 10 12 6 18 -11 78 -13 78 -2 0 4 11 6 25 2 21 -5 25 -3
25 14 0 16 8 22 33 26 72 11 113 12 133 3 31 -13 53 -76 47 -130 -6 -50 5 -64
37 -47 15 8 19 17 14 34 -5 21 -3 22 25 18 25 -3 30 -1 25 11 -3 8 -1 18 5 21
7 5 1 21 -15 45 -14 21 -27 52 -28 67 -3 19 -9 29 -20 28 -9 -1 -16 2 -16 7 0
5 5 9 10 9 7 0 7 6 1 19 -6 10 -8 35 -4 55 3 22 1 42 -7 51 -9 11 -8 20 9 44
17 24 19 34 11 56 -10 26 -9 27 14 21 28 -7 42 8 37 42 -2 16 3 22 17 22 23 0
38 18 36 45 -3 48 -5 54 -25 60 -11 4 -18 12 -16 18 2 7 0 25 -4 41 -11 38 4
63 41 71 31 7 42 25 15 25 -18 0 -20 30 -2 30 6 0 -1 12 -17 26 -16 14 -32 21
-35 16 -8 -13 -51 4 -51 20 0 7 -4 6 -12 -4 -7 -8 -21 -18 -31 -21 -16 -6 -16
-5 -1 19 9 13 15 26 13 27 -2 1 -13 7 -24 13 -11 6 -22 21 -23 34 -4 22 -2 22
36 -9 36 -28 42 -30 56 -16 8 9 31 16 51 17 28 1 43 -6 71 -33 22 -21 33 -41
30 -51 -3 -14 2 -18 24 -18 16 0 32 -4 35 -10 9 -14 56 -12 85 4 17 10 30 11
43 5 31 -17 40 0 34 63 l-5 60 26 -8 c15 -4 43 -9 63 -10 47 -2 56 -8 64 -43
5 -22 13 -30 36 -35 18 -3 29 -12 29 -22 0 -26 40 -84 58 -84 21 -1 52 -23 52
-38 0 -6 11 -24 25 -40 15 -19 21 -33 15 -37 -15 -9 -12 -25 4 -25 8 0 17 -11
20 -24 5 -21 12 -25 39 -23 19 1 42 10 51 20 20 20 37 22 34 5 -2 -8 12 -14
37 -16 32 -3 38 -1 28 9 -19 19 -16 29 10 26 17 -1 21 2 19 17 -3 14 1 17 12
13 9 -4 16 -1 16 5 0 6 12 36 26 66 l26 54 24 -23 c13 -12 24 -30 25 -38 0 -9
7 -2 14 14 8 17 14 26 15 20 0 -5 4 -4 9 3 9 15 -47 121 -65 122 -5 0 -21 10
-34 22 -22 21 -22 22 -4 29 21 8 14 12 -38 23 -35 8 -36 24 -2 28 29 3 48 33
61 93 7 37 12 42 63 61 30 11 79 31 108 44 49 21 52 25 52 59 1 34 1 35 16 16
14 -19 15 -19 39 10 13 17 27 38 30 48 7 20 26 22 43 5 7 -7 12 -8 12 -2 0 5
13 15 29 22 19 8 28 20 28 35 -1 41 24 77 53 77 15 0 32 6 38 13 13 16 5 58
-15 73 -11 9 -6 13 23 18 32 6 36 10 31 32 -2 13 0 27 5 30 6 4 7 28 3 57 -6
43 -5 49 8 44 26 -10 40 18 32 64 -5 29 -13 43 -26 46 -11 3 -22 16 -25 29 -3
13 -10 24 -14 24 -17 0 -15 36 4 51 17 14 18 20 6 69 -11 47 -11 55 3 65 9 6
16 25 16 41 -2 45 17 105 40 128 12 11 21 15 21 9 0 -7 7 -10 15 -7 12 5 10
13 -13 45 -15 21 -32 39 -38 39 -6 0 -16 11 -23 23 -10 19 -19 23 -39 19 -15
-3 -32 -8 -37 -13 -12 -9 -27 -10 -89 -10 -46 0 -49 2 -50 41 -1 16 -4 30 -8
30 -4 0 -4 10 1 23 7 17 4 29 -10 48 -10 13 -19 29 -19 34 0 11 -76 45 -100
45 -8 0 -29 15 -48 33 l-33 32 7 -28 c5 -21 3 -28 -7 -26 -8 1 -22 -1 -33 -6
-12 -5 -21 -3 -27 6 -7 11 -9 10 -9 -5 0 -15 -5 -17 -27 -11 -16 3 -31 12 -35
18 -25 41 -28 43 -38 27 -5 -8 -11 -19 -13 -24 -2 -6 -13 -3 -26 6 -14 10 -18
18 -12 23 6 3 11 17 11 31 0 23 -9 28 -47 27 -7 -1 -11 3 -8 7 3 5 -4 11 -15
15 -11 3 -25 15 -30 26 -12 21 -70 27 -70 7 0 -7 -12 0 -27 16 -19 19 -24 30
-16 33 15 6 7 50 -13 74 -18 20 -18 44 1 63 14 13 13 17 -6 35 -12 11 -18 24
-14 30 3 6 1 11 -5 11 -6 0 -9 4 -6 9 10 15 -4 39 -25 44 -14 4 -23 -1 -29
-17z m-2230 -1437 c0 -18 -2 -19 -15 -9 -15 12 -12 30 6 30 5 0 9 -10 9 -21z
m2980 -235 c0 -8 -4 -12 -10 -9 -5 3 -10 10 -10 16 0 5 5 9 10 9 6 0 10 -7 10
-16z m-3830 -24 c0 -5 -2 -10 -4 -10 -3 0 -8 5 -11 10 -3 6 -1 10 4 10 6 0 11
-4 11 -10z m-162 -52 c7 -7 12 -16 12 -20 0 -15 -15 -8 -28 12 -13 22 -3 27
16 8z m-23 -137 c3 -5 1 -12 -5 -16 -5 -3 -10 1 -10 9 0 18 6 21 15 7z m335
-11 c8 -5 11 -12 8 -16 -4 -4 -3 -15 3 -25 8 -16 6 -19 -16 -19 -14 0 -25 -5
-25 -11 0 -8 -4 -8 -14 0 -23 19 -10 81 17 81 7 0 19 -4 27 -10z m210 -131 c0
-6 9 -8 23 -4 20 5 20 5 -3 -9 -18 -11 -27 -11 -32 -3 -11 17 -10 27 2 27 6 0
10 -5 10 -11z m-4185 -29 c4 -6 10 -8 15 -5 5 3 11 1 14 -4 3 -5 -3 -11 -14
-14 -13 -3 -24 1 -30 14 -11 20 3 28 15 9z m3405 -24 c0 -3 -4 -8 -10 -11 -5
-3 -10 -1 -10 4 0 6 5 11 10 11 6 0 10 -2 10 -4z m2738 -78 c-7 -19 -21 -12
-25 11 -3 20 -1 22 12 11 9 -7 14 -17 13 -22z m-3985 -41 c-3 -5 -10 -4 -15 1
-6 6 -7 16 -3 22 6 9 9 9 16 -1 4 -7 5 -17 2 -22z m2102 -17 c3 -5 -3 -10 -14
-10 -12 0 -21 5 -21 10 0 6 6 10 14 10 8 0 18 -4 21 -10z m-3125 -1457 c0 -15
-28 -17 -49 -4 -8 5 -11 16 -8 24 5 13 10 14 31 4 14 -7 26 -18 26 -24z m5
-33 c3 -5 2 -10 -4 -10 -5 0 -13 5 -16 10 -3 6 -2 10 4 10 5 0 13 -4 16 -10z
m-31 -56 c9 -23 7 -44 -3 -44 -5 0 -11 8 -15 18 -3 9 -9 23 -12 30 -3 6 1 12
9 12 8 0 18 -7 21 -16z m13 -80 c-3 -3 -12 -4 -19 -1 -8 3 -5 6 6 6 11 1 17
-2 13 -5z m924 -331 c-12 -20 -14 -14 -5 12 4 9 9 14 11 11 3 -2 0 -13 -6 -23z
m-1911 -591 c0 -4 -9 -15 -20 -25 -19 -16 -20 -16 -20 8 0 18 5 25 20 25 11 0
20 -3 20 -8z m-60 -52 c0 -5 -12 -10 -26 -10 -14 0 -23 4 -19 10 3 6 15 10 26
10 10 0 19 -4 19 -10z"/>
<path d="M15505 12432 c-6 -4 -16 -17 -23 -29 -11 -20 -10 -23 8 -23 10 0 24
8 29 18 11 20 1 45 -14 34z"/>
<path d="M15466 12341 c-4 -5 -2 -12 4 -16 6 -4 7 -11 4 -17 -4 -6 -1 -9 7 -6
17 6 19 40 2 45 -6 2 -14 0 -17 -6z"/>
<path d="M15457 12273 c-2 -10 -8 -26 -12 -35 -5 -13 -2 -18 9 -18 12 0 16 10
16 35 0 38 -5 45 -13 18z"/>
<path d="M11850 12097 c0 -8 6 -14 14 -14 8 0 12 6 9 14 -3 7 -9 13 -14 13 -5
0 -9 -6 -9 -13z"/>
<path d="M11820 12050 c0 -5 10 -20 21 -31 19 -19 23 -20 30 -6 14 23 0 47
-27 47 -13 0 -24 -4 -24 -10z"/>
<path d="M12010 12034 c-22 -12 -23 -13 -5 -13 24 -1 50 14 38 22 -4 3 -19 -1
-33 -9z"/>
<path d="M12150 11875 c0 -15 6 -25 14 -25 8 0 16 -5 18 -10 2 -7 11 -5 23 4
18 14 18 15 3 16 -10 0 -18 6 -18 14 0 12 -20 26 -36 26 -2 0 -4 -11 -4 -25z"/>
<path d="M10697 11841 c-3 -12 0 -18 9 -17 22 3 26 12 10 25 -11 9 -15 7 -19
-8z"/>
<path d="M7535 10760 c-4 -6 5 -10 20 -10 15 0 24 4 20 10 -3 6 -12 10 -20 10
-8 0 -17 -4 -20 -10z"/>
<path d="M9850 10740 c33 -28 34 -31 17 -44 -12 -9 -14 -16 -7 -21 5 -3 7 -11
4 -17 -5 -7 -1 -9 9 -5 11 4 17 1 17 -9 0 -17 24 -29 39 -20 6 4 4 17 -5 34
-7 15 -14 32 -14 37 -1 19 -38 55 -66 65 -28 10 -28 10 6 -20z"/>
<path d="M10009 10628 c19 -26 40 -49 49 -53 12 -4 12 -3 3 8 -6 8 -10 25 -9
38 2 19 -2 25 -22 27 -14 2 -32 9 -40 15 -8 7 1 -9 19 -35z"/>
<path d="M6660 10530 c-8 -11 -20 -20 -27 -20 -29 0 -47 -101 -23 -124 9 -8
11 -6 5 12 -5 17 -2 22 11 22 16 0 15 2 -2 21 -19 21 -19 22 2 15 15 -5 24 -2
28 9 3 9 11 13 17 9 8 -4 9 -3 5 4 -4 6 -3 20 3 30 15 27 -2 46 -19 22z"/>
<path d="M7053 10359 c3 -12 0 -22 -9 -26 -8 -3 -11 -9 -8 -14 3 -5 -6 -9 -21
-9 -17 0 -29 -8 -37 -24 -14 -33 -46 -36 -87 -9 -19 13 -42 23 -52 23 -11 0
-19 6 -19 13 0 8 -3 9 -8 1 -12 -18 -52 -35 -64 -28 -7 5 -32 9 -56 10 -24 2
-50 8 -58 15 -10 8 -14 8 -14 0 0 -17 72 -92 84 -88 6 2 16 -3 21 -10 9 -13
16 -11 47 7 32 19 37 19 51 5 19 -18 54 -20 60 -2 3 9 9 7 24 -5 22 -21 71
-23 107 -7 20 9 29 9 43 -2 15 -11 16 -11 6 1 -19 20 -16 57 5 78 13 13 16 25
11 40 -5 12 -6 29 -3 37 4 10 0 15 -11 15 -13 0 -16 -6 -12 -21z"/>
<path d="M7408 10192 c-9 -2 -20 -11 -23 -20 -3 -9 -16 -22 -31 -29 -21 -10
-26 -9 -31 4 -5 12 -7 12 -15 1 -6 -10 -14 -7 -33 15 -34 38 -45 34 -45 -17 0
-45 -11 -63 -31 -50 -8 5 -8 8 0 14 7 3 -14 15 -46 26 -32 10 -63 25 -69 32
-8 11 -12 11 -23 -2 -11 -13 -10 -20 7 -41 12 -15 18 -34 15 -45 -4 -16 -2
-19 11 -14 20 8 66 -32 66 -57 0 -20 20 -29 66 -29 25 0 42 -8 59 -26 34 -37
87 -63 132 -65 21 -1 43 -6 50 -11 7 -6 14 -4 19 3 5 8 3 9 -6 4 -10 -6 -11 1
-8 31 3 25 -2 55 -15 84 -19 46 -30 151 -17 160 14 9 -14 36 -32 32z"/>
<path d="M7450 10088 c0 -25 12 -58 21 -58 5 0 8 6 7 13 -2 6 5 11 14 11 16
-2 16 0 0 22 -18 25 -42 32 -42 12z"/>
<path d="M13417 9871 c-3 -11 1 -22 8 -24 8 -4 10 3 7 19 -5 29 -8 30 -15 5z"/>
<path d="M7257 9855 c10 -32 9 -50 -3 -48 -6 1 -21 -8 -33 -21 -20 -21 -20
-25 -7 -57 8 -19 26 -45 39 -58 22 -20 31 -22 69 -16 34 6 53 18 91 57 46 47
52 68 21 68 -23 0 -58 40 -45 53 7 7 7 16 0 28 -8 16 -20 18 -74 16 -60 -2
-64 -4 -58 -22z"/>
<path d="M13831 9773 c-8 -16 -14 -16 -42 -6 -25 10 -35 10 -40 1 -6 -9 -14
-9 -35 1 -21 9 -29 9 -35 0 -4 -7 -15 -9 -25 -5 -18 6 -18 5 -1 -8 9 -7 17
-18 17 -23 0 -6 7 -16 16 -24 12 -10 17 -10 23 -1 14 23 40 2 39 -32 -2 -58
39 -111 75 -97 17 7 33 2 66 -17 38 -23 42 -28 38 -56 -3 -17 2 -50 10 -74 8
-24 13 -56 11 -72 -3 -30 16 -60 38 -60 8 0 13 -8 12 -17 -3 -39 3 -49 35 -61
18 -7 42 -12 52 -12 10 0 35 -5 54 -11 20 -7 42 -13 49 -15 10 -3 10 -9 2 -23
-16 -31 6 -36 26 -6 11 17 15 37 11 59 -3 19 -1 38 4 43 6 6 -3 18 -21 31 -19
15 -30 31 -30 47 0 14 -14 44 -31 68 -24 32 -30 49 -26 74 4 23 0 36 -14 49
-12 11 -18 26 -15 37 2 10 0 32 -6 48 -9 27 -13 29 -44 23 -32 -6 -35 -4 -45
25 -6 17 -14 30 -17 29 -20 -5 -50 14 -46 30 6 23 -7 41 -31 45 -11 2 -30 8
-42 15 -18 10 -23 9 -32 -5z"/>
<path d="M6600 9761 c0 -6 5 -13 10 -16 6 -3 10 1 10 9 0 9 -4 16 -10 16 -5 0
-10 -4 -10 -9z"/>
<path d="M6316 9689 c13 -26 13 -29 -1 -29 -9 0 -15 -9 -15 -21 0 -16 -5 -20
-20 -16 -13 3 -20 0 -20 -9 0 -8 -7 -14 -15 -14 -8 0 -15 -5 -15 -12 0 -6 -11
-26 -24 -43 -18 -24 -36 -34 -65 -39 -27 -4 -41 -11 -41 -21 0 -8 -3 -15 -7
-16 -58 -5 -91 -13 -116 -26 -26 -13 -32 -13 -41 -1 -11 15 -124 44 -133 34
-3 -3 -36 10 -74 29 -38 19 -73 35 -79 35 -15 0 -3 -41 16 -56 17 -13 19 -44
3 -44 -7 0 -10 -25 -7 -72 2 -47 -1 -73 -9 -75 -8 -3 -7 -15 4 -43 13 -33 14
-41 2 -52 -8 -7 -24 -13 -36 -12 -13 1 -28 -5 -34 -12 -6 -8 -22 -14 -35 -14
-13 0 -33 -9 -44 -20 -11 -11 -27 -20 -35 -20 -10 0 -15 -10 -15 -30 0 -20 -5
-30 -15 -30 -9 0 -12 -6 -9 -15 4 -8 1 -15 -5 -15 -18 0 -42 -100 -35 -150 6
-45 5 -47 -25 -60 -17 -7 -31 -16 -31 -21 0 -5 -12 -9 -27 -9 -39 -1 -67 -24
-60 -50 3 -11 2 -18 -3 -15 -4 3 -14 -2 -21 -11 -8 -10 -21 -13 -36 -9 -21 5
-23 3 -17 -20 5 -20 3 -24 -9 -19 -12 4 -14 1 -10 -15 4 -15 -1 -23 -20 -30
-24 -9 -24 -12 -13 -45 12 -34 53 -76 74 -76 6 0 14 -9 17 -20 4 -12 15 -20
27 -20 11 0 27 -8 34 -17 11 -17 13 -16 24 11 12 32 6 61 -10 51 -6 -4 -17 -1
-25 5 -10 9 -19 9 -27 2 -15 -11 -58 2 -58 18 0 12 13 13 24 3 10 -11 76 -11
76 -1 0 5 8 4 19 -1 12 -7 18 -21 17 -39 0 -16 7 -37 17 -46 17 -17 24 -58 9
-53 -12 3 -62 -39 -62 -54 0 -7 -3 -10 -6 -6 -4 3 -13 -1 -22 -9 -8 -9 -25
-14 -39 -11 -31 6 -50 -17 -32 -39 11 -14 10 -18 -6 -30 -16 -12 -17 -16 -6
-23 9 -6 11 -18 8 -33 -4 -14 -2 -39 3 -57 12 -43 -5 -71 -42 -71 -26 0 -35
-15 -29 -52 0 -4 -11 -11 -27 -14 -38 -9 -131 -85 -132 -108 0 -12 -5 -16 -15
-12 -9 3 -15 0 -15 -10 0 -10 -6 -13 -18 -10 -27 9 -51 -37 -32 -59 9 -11 21
-14 34 -10 12 4 44 11 71 15 28 4 72 11 98 15 33 5 55 4 72 -5 18 -10 31 -10
56 -1 47 16 116 14 126 -4 9 -16 104 -38 127 -29 8 3 20 19 26 35 12 27 14 29
34 15 19 -12 26 -12 48 0 19 10 34 11 52 4 16 -6 27 -6 31 0 4 6 15 10 26 10
16 0 19 7 19 45 0 25 4 45 9 45 5 0 11 14 13 30 3 17 1 30 -3 30 -7 0 10 56
25 78 6 11 12 10 26 -3 17 -16 19 -15 30 4 6 11 14 20 18 19 17 -5 51 23 45
38 -4 12 2 14 28 13 19 -1 44 1 56 5 13 4 28 4 35 0 6 -4 23 -8 37 -9 14 -1
31 -3 36 -4 6 -2 27 -3 48 -2 31 1 37 5 37 22 0 18 3 19 14 10 11 -9 20 -9 34
-2 11 6 23 7 27 3 4 -4 2 3 -4 16 -9 18 -10 27 -1 37 7 9 9 26 5 45 -4 19 -3
30 4 30 7 0 6 13 -4 37 -11 27 -12 38 -4 44 8 5 8 8 0 10 -7 3 -8 14 -3 34 5
19 11 25 16 17 4 -7 14 -12 22 -12 8 0 12 5 9 10 -3 6 -1 10 4 10 6 0 11 21
11 48 0 49 14 78 59 120 13 12 20 22 15 22 -5 0 2 9 15 19 23 17 23 19 6 45
-12 19 -16 37 -12 63 4 23 2 42 -6 52 -10 12 -9 14 9 9 11 -3 29 1 39 8 10 8
40 14 67 14 46 0 48 1 48 28 1 38 26 70 42 54 10 -10 10 -15 -1 -21 -11 -7
-10 -15 8 -40 18 -25 25 -29 40 -20 13 9 27 7 61 -9 46 -21 60 -17 60 19 0 29
27 43 55 31 18 -8 25 -8 25 -1 0 7 9 9 21 6 12 -3 29 -1 39 6 14 8 22 8 35 -3
13 -11 18 -11 24 -1 5 7 27 15 50 18 25 4 41 11 41 19 0 8 5 14 10 14 16 0 50
80 50 118 0 25 5 35 25 42 14 5 25 16 25 25 0 8 9 15 20 15 11 0 23 7 26 15 8
20 24 19 24 -2 0 -14 2 -14 20 2 19 18 22 18 56 2 42 -21 44 -21 44 -2 0 9 9
15 23 15 23 0 28 21 14 60 -3 8 -8 23 -11 33 -4 13 -12 16 -30 11 -19 -4 -28
1 -45 25 -35 49 -41 83 -20 109 10 13 23 48 30 80 6 31 15 59 19 62 3 3 3 20
-2 39 -8 28 -12 32 -31 26 -12 -4 -36 -7 -54 -6 -18 0 -35 -4 -38 -9 -3 -6 0
-10 7 -10 10 0 10 -2 0 -9 -8 -4 -13 -12 -13 -17 2 -17 -24 -9 -27 9 -2 9 1
17 6 17 6 0 8 9 5 20 -6 22 -41 27 -48 8 -3 -7 -18 -14 -34 -15 -15 -1 -32 -3
-37 -4 -5 -2 -33 1 -62 5 -35 5 -57 4 -66 -3 -7 -6 -20 -9 -28 -6 -9 4 -20 -4
-28 -20 -17 -31 -38 -32 -45 -2 -4 13 -15 29 -27 36 -11 7 -17 8 -13 2 8 -14
-1 -14 -24 -1 -13 7 -17 17 -13 36 4 25 3 26 -26 19 -28 -6 -32 -4 -38 20 -5
19 -9 23 -15 14 -4 -8 0 -24 13 -41 15 -22 17 -32 8 -43 -6 -7 -10 -22 -8 -31
2 -14 -6 -20 -35 -25 -21 -3 -43 -11 -50 -18 -17 -17 -48 -14 -41 4 4 8 1 15
-5 15 -6 0 -11 -4 -11 -10 0 -5 -7 -10 -15 -10 -8 0 -12 -6 -9 -14 8 -20 -55
-69 -80 -62 -12 3 -33 6 -48 6 -20 0 -32 8 -43 30 -19 38 -19 43 4 35 26 -8
45 18 32 44 -14 26 -14 34 1 29 19 -7 38 17 38 46 0 19 -5 26 -20 26 -11 0
-20 6 -20 14 0 7 -9 16 -20 19 -18 5 -19 3 -4 -24z m789 -128 c3 -5 0 -16 -7
-23 -7 -8 -18 -22 -24 -33 -12 -22 -39 -34 -31 -14 2 8 9 13 14 12 5 -1 7 12
5 29 -4 26 -2 30 12 25 9 -4 16 -2 16 3 0 13 7 13 15 1z m-71 -147 c5 -12 2
-15 -10 -10 -8 3 -18 6 -20 6 -3 0 -2 5 1 10 9 15 22 12 29 -6z m51 -134 c3
-5 1 -10 -4 -10 -6 0 -11 5 -11 10 0 6 2 10 4 10 3 0 8 -4 11 -10z m-571 -271
c-5 -9 -44 11 -44 23 0 4 11 3 25 -4 13 -6 22 -15 19 -19z m26 -39 c0 -5 -9
-10 -20 -10 -11 0 -20 5 -20 10 0 6 9 10 20 10 11 0 20 -4 20 -10z m177 -72
c-3 -8 -6 -5 -6 6 -1 11 2 17 5 13 3 -3 4 -12 1 -19z"/>
<path d="M5620 9566 c0 -2 7 -6 15 -10 8 -3 15 -1 15 4 0 6 -7 10 -15 10 -8 0
-15 -2 -15 -4z"/>
<path d="M11725 9520 c-4 -6 -13 -9 -21 -6 -8 3 -14 1 -14 -4 0 -6 4 -10 9
-10 15 0 20 -41 8 -61 -7 -11 -19 -19 -28 -19 -9 0 -22 -7 -30 -16 -11 -13
-10 -21 6 -50 20 -37 60 -69 49 -39 -4 9 -1 15 8 15 26 0 61 48 62 85 1 21 6
35 14 35 7 0 12 14 12 35 0 28 -4 35 -19 35 -11 0 -26 3 -34 6 -8 3 -18 0 -22
-6z"/>
<path d="M5481 9425 c13 -22 17 -35 9 -35 -6 0 0 -14 14 -31 14 -17 29 -41 32
-55 4 -17 13 -24 29 -24 13 0 27 -4 30 -10 11 -18 35 -11 35 11 0 11 -4 17
-10 14 -6 -4 -10 13 -10 44 0 40 -4 51 -19 56 -10 3 -22 16 -25 29 -6 24 -31
36 -78 36 l-27 0 20 -35z"/>
<path d="M14115 9000 c10 -11 22 -20 27 -20 4 0 8 9 8 20 0 15 -7 20 -27 20
-25 0 -26 0 -8 -20z"/>
<path d="M14155 8960 c4 -6 11 -8 16 -5 14 9 11 15 -7 15 -8 0 -12 -5 -9 -10z"/>
<path d="M14176 8925 c4 -8 10 -15 15 -15 5 0 9 -7 9 -15 0 -8 7 -15 16 -15
10 0 12 -5 7 -12 -15 -25 -10 -35 19 -35 16 0 24 3 18 7 -6 4 -8 14 -4 23 7
19 -9 38 -54 61 -27 14 -31 14 -26 1z"/>
<path d="M14252 8798 c-23 -23 -13 -58 29 -99 34 -33 39 -42 28 -55 -16 -19 4
-45 22 -27 7 7 21 6 47 -2 28 -10 39 -10 44 -2 7 11 12 2 9 -15 0 -5 5 -8 12
-9 6 -1 21 -2 32 -3 16 -1 20 -8 18 -36 -3 -82 -13 -142 -26 -170 -14 -27 -14
-30 4 -35 10 -4 23 -3 29 0 5 3 10 2 10 -3 0 -6 7 -12 15 -15 11 -5 12 -1 5
18 -6 15 -6 25 -1 25 5 0 11 -5 13 -11 6 -18 56 1 62 24 3 12 0 37 -7 56 -9
26 -9 35 0 38 15 5 6 31 -20 60 -10 12 -16 26 -12 32 3 6 -1 11 -9 11 -8 0
-36 18 -62 41 -35 31 -53 39 -70 35 -18 -5 -34 4 -71 40 -28 27 -43 48 -36 51
16 6 5 33 -14 33 -9 0 -21 7 -27 15 -9 13 -14 13 -24 3z"/>
<path d="M5060 8630 c0 -21 -3 -22 -50 -16 -28 4 -58 9 -68 13 -13 5 -12 1 5
-17 18 -19 31 -23 72 -21 27 1 52 -3 56 -9 11 -18 25 -11 25 13 0 13 -9 32
-20 42 -19 18 -20 17 -20 -5z"/>
<path d="M6280 8396 c0 -2 7 -7 16 -10 8 -3 12 -2 9 4 -6 10 -25 14 -25 6z"/>
<path d="M9350 7961 c-5 -11 -10 -24 -10 -30 0 -13 -136 -151 -149 -151 -5 0
-19 -16 -31 -35 -17 -27 -28 -35 -51 -35 -21 0 -32 -7 -43 -29 -9 -16 -36 -41
-62 -55 l-46 -26 -28 20 c-16 11 -35 18 -43 14 -8 -3 -26 6 -41 21 -27 27 -36
52 -13 39 8 -5 7 -2 -2 9 -10 13 -22 16 -47 11 -23 -4 -34 -2 -34 5 0 9 -5 9
-17 2 -13 -7 -23 -5 -34 5 -9 8 -30 16 -47 19 -17 2 -36 6 -42 10 -5 3 -10 2
-10 -3 0 -15 -57 -34 -79 -27 -15 5 -21 2 -21 -9 0 -28 -28 -17 -39 15 -6 18
-11 36 -11 40 0 15 22 10 36 -8 12 -16 13 -14 14 16 0 27 -3 32 -16 27 -9 -4
-27 1 -40 9 -23 15 -24 15 -24 -12 0 -39 -13 -55 -46 -57 -36 -3 -74 -26 -74
-45 0 -8 -7 -11 -20 -8 l-20 5 20 -28 c22 -31 26 -55 10 -65 -15 -9 -12 -61 4
-74 8 -7 18 -25 21 -41 5 -24 13 -30 45 -35 27 -5 48 -17 66 -38 15 -18 33
-31 39 -29 7 1 15 -4 19 -13 8 -22 19 -19 54 15 18 17 36 30 41 30 5 0 11 7
15 15 9 23 35 18 67 -14 22 -23 39 -30 79 -33 37 -2 50 0 50 11 0 9 6 11 23 6
12 -4 39 -8 59 -9 20 -1 40 -4 43 -8 7 -7 90 46 101 63 4 7 12 5 22 -4 10 -8
26 -17 37 -19 11 -2 20 -10 20 -17 0 -8 6 -16 13 -18 6 -3 12 3 12 12 0 9 4
14 9 11 15 -10 20 22 5 34 -21 18 -17 30 9 30 12 1 35 12 51 25 27 22 32 22
57 10 24 -13 30 -12 54 6 23 19 32 20 73 12 47 -9 47 -9 47 16 0 21 5 26 26
26 14 1 38 9 53 19 l27 17 -25 24 c-14 13 -26 31 -26 40 0 9 -7 27 -16 40 -11
17 -12 25 -5 25 8 0 6 10 -6 30 -9 17 -21 30 -25 30 -14 0 -42 64 -29 68 16 5
14 36 -6 76 -21 41 -28 44 -43 17z"/>
<path d="M9460 7520 c-8 -5 -10 -10 -5 -10 6 0 17 5 25 10 8 5 11 10 5 10 -5
0 -17 -5 -25 -10z"/>
<path d="M8320 7441 c0 -17 18 -21 24 -6 3 9 0 15 -9 15 -8 0 -15 -4 -15 -9z"/>
</g>
</svg>
