<?xml version="1.0" standalone="no"?>
<!DOCTYPE svg PUBLIC "-//W3C//DTD SVG 20010904//EN"
 "http://www.w3.org/TR/2001/REC-SVG-20010904/DTD/svg10.dtd">
<svg version="1.0" xmlns="http://www.w3.org/2000/svg"
 width="544.655084pt" height="673.708329pt" viewBox="0 0 544.655084 673.708329"
 preserveAspectRatio="xMidYMid meet">
<metadata>
Created by potrace 1.15, written by Peter Selinger 2001-2017
</metadata>
<g transform="translate(-720.344916,1374.000000) scale(0.100000,-0.100000)"
fill="#222222" stroke="none">
<path d="M9416 13711 c-21 -17 -51 -36 -67 -43 -18 -8 -28 -19 -27 -30 3 -19
-39 -68 -58 -68 -24 0 19 -59 50 -70 43 -15 56 -12 56 10 0 18 7 20 54 20 52
0 53 0 48 27 -3 18 1 30 12 39 16 11 16 13 -3 19 -26 8 -34 36 -26 85 4 22 5
40 2 40 -2 0 -21 -13 -41 -29z"/>
<path d="M9080 13546 c0 -3 5 -17 12 -31 15 -34 0 -45 -53 -38 -27 4 -39 2
-39 -7 0 -8 -4 -9 -12 -3 -9 6 -29 6 -58 -2 -26 -6 -39 -14 -30 -17 8 -3 28
-1 43 3 30 8 57 2 69 -15 14 -20 9 -76 -7 -82 -8 -4 -15 -13 -15 -20 0 -8 -13
-17 -29 -20 -23 -5 -28 -11 -26 -30 3 -28 -10 -31 -24 -6 -9 14 -12 14 -20 3
-5 -7 -6 -22 -4 -32 3 -12 0 -19 -8 -19 -7 0 1 -15 19 -33 18 -18 32 -37 32
-42 0 -11 48 -81 78 -114 12 -13 21 -29 19 -34 -7 -21 21 -102 34 -102 10 0
15 -15 17 -47 3 -41 0 -49 -23 -64 l-26 -17 34 -36 c43 -45 61 -77 47 -86 -6
-3 -14 5 -20 19 -6 16 -17 26 -30 26 -11 0 -23 7 -26 15 -10 25 -25 17 -18
-10 5 -21 3 -25 -15 -25 -17 0 -20 -4 -15 -30 5 -22 2 -31 -10 -36 -12 -5 -15
-15 -10 -45 6 -38 6 -39 -25 -39 -24 0 -31 -4 -31 -20 0 -15 -7 -20 -25 -20
-14 0 -25 -6 -25 -12 0 -10 -2 -10 -9 0 -5 9 -17 11 -34 6 -20 -4 -27 -13 -27
-30 0 -13 5 -24 10 -24 6 0 10 -6 10 -12 1 -19 38 -60 48 -54 5 3 28 -12 52
-34 32 -30 50 -39 75 -38 17 1 37 -2 43 -6 7 -4 12 -3 12 2 0 21 48 18 76 -5
16 -12 36 -23 44 -23 10 0 11 -3 3 -8 -8 -5 -8 -12 3 -26 8 -11 14 -16 14 -12
0 5 11 1 25 -8 27 -18 60 -22 50 -6 -3 6 -3 10 2 10 10 0 9 -92 -1 -108 -4 -7
-1 -12 7 -12 8 0 26 -9 41 -21 l26 -20 0 31 c0 29 2 32 24 26 30 -7 43 9 24
31 -12 15 -11 15 9 5 29 -16 36 -15 50 6 18 29 -1 46 -49 47 -36 0 -43 3 -43
20 0 34 -28 47 -64 29 -17 -8 -39 -14 -48 -12 -21 4 -30 28 -10 28 8 0 21 9
28 20 15 21 59 26 134 14 33 -5 44 -2 59 15 11 12 31 21 48 21 15 0 28 5 28
10 0 6 8 10 18 8 10 -2 17 3 17 12 0 9 -7 14 -17 12 -10 -2 -18 2 -18 8 0 6 5
8 10 5 6 -3 10 1 10 9 0 8 6 19 14 23 19 11 56 110 49 130 -3 8 -19 29 -34 46
-18 19 -29 43 -29 60 0 16 -6 38 -12 50 -7 12 -14 40 -15 62 -3 66 -15 125
-24 125 -5 0 -9 7 -9 16 0 37 -104 114 -154 114 -13 0 -26 6 -29 13 -2 8 -22
11 -54 11 -42 -2 -52 1 -56 16 -3 11 2 21 10 24 11 4 13 14 8 36 -5 24 -3 30
10 30 14 0 16 6 12 30 -5 23 -2 32 13 40 11 6 20 17 20 25 0 8 5 15 11 15 7 0
4 10 -6 26 -9 14 -14 35 -11 47 3 12 0 27 -6 35 -10 11 -8 16 5 23 16 9 16 12
1 41 -14 27 -14 30 -1 25 24 -9 28 19 6 39 -14 13 -22 15 -30 7 -15 -15 -79
-5 -104 17 -25 21 -45 33 -45 26z"/>
<path d="M8753 12554 c-3 -9 -1 -19 4 -23 5 -3 14 -14 19 -24 8 -14 10 -10 10
18 0 36 -22 56 -33 29z"/>
<path d="M10564 12381 c4 -6 3 -18 -3 -24 -12 -16 -84 -16 -102 0 -29 23 -57
24 -96 3 -36 -18 -45 -19 -91 -9 -39 10 -61 10 -90 1 -22 -7 -49 -12 -62 -12
-15 0 -20 -5 -17 -14 3 -8 -5 -18 -19 -25 -13 -6 -32 -28 -41 -48 -32 -70 -52
-92 -91 -99 -56 -9 -110 -49 -107 -79 4 -32 13 -44 38 -56 77 -33 113 -89 68
-104 -11 -3 -22 -12 -25 -20 -6 -17 -50 -5 -52 14 -1 6 -2 18 -3 26 0 8 -5 15
-11 15 -5 0 -10 -7 -10 -15 0 -8 -7 -15 -15 -15 -8 0 -12 -6 -9 -14 3 -8 1
-17 -4 -20 -15 -9 -2 -44 24 -65 20 -16 23 -25 17 -52 -7 -34 -31 -69 -48 -69
-5 0 -22 6 -37 14 -31 16 -64 11 -72 -11 -5 -11 -10 -12 -19 -5 -6 6 -16 10
-21 11 -5 0 -14 10 -20 22 -16 31 -31 20 -32 -24 -1 -40 -27 -81 -47 -74 -7 2
-17 14 -24 27 -13 27 -31 40 -57 40 -16 0 -17 -2 -5 -17 12 -15 12 -16 -3 -11
-10 4 -19 1 -22 -8 -3 -9 -17 -14 -34 -12 -15 1 -32 -1 -38 -5 -6 -3 -19 4
-29 16 -13 15 -20 18 -23 8 -2 -7 0 -17 6 -23 10 -10 1 -50 -20 -91 -12 -24 8
-50 33 -42 9 3 29 3 43 -1 23 -5 25 -10 20 -43 -7 -45 -12 -53 -27 -44 -7 3
-3 -3 7 -15 11 -12 15 -22 10 -22 -5 -1 8 -10 28 -20 20 -11 39 -29 43 -40 8
-24 25 -17 25 10 0 24 19 17 44 -16 14 -20 16 -31 8 -48 -11 -25 -7 -36 23
-52 24 -13 32 -53 13 -65 -10 -6 -10 -13 -2 -26 6 -10 8 -25 3 -33 -4 -8 -10
-23 -13 -34 -4 -11 -12 -16 -21 -12 -12 4 -14 0 -9 -22 4 -15 11 -32 15 -38 5
-6 4 -15 -1 -20 -12 -12 17 -57 30 -49 5 3 12 0 16 -6 5 -8 3 -9 -6 -4 -18 11
-3 -31 25 -73 18 -26 21 -40 15 -61 -8 -28 7 -61 27 -61 5 0 17 -8 27 -19 13
-15 15 -24 6 -47 -7 -16 -14 -24 -18 -18 -12 19 -45 31 -92 32 -25 2 -54 3
-65 5 -15 1 -21 -5 -23 -23 -6 -56 -13 -70 -32 -70 -13 0 -20 -7 -20 -19 0
-11 -9 -23 -20 -26 -11 -3 -20 -12 -20 -20 0 -7 -9 -15 -20 -18 -12 -3 -20
-14 -20 -26 0 -18 -3 -19 -27 -10 -29 11 -39 5 -45 -26 -3 -16 -12 -20 -43
-21 -22 0 -50 -4 -62 -8 -17 -5 -23 -2 -28 15 -5 14 -10 18 -17 11 -6 -6 -7
-20 -2 -33 4 -13 7 -27 6 -31 -1 -5 16 -8 38 -8 28 0 40 4 40 15 0 7 8 18 17
23 35 20 128 -69 101 -96 -16 -16 -3 -39 34 -58 18 -9 51 -28 73 -42 38 -24
95 -36 95 -20 0 11 52 -10 72 -29 10 -8 24 -13 32 -10 23 9 30 -13 10 -28 -17
-12 -21 -11 -37 8 -17 22 -17 22 -7 -8 12 -33 -4 -125 -22 -125 -6 0 -4 -10 4
-22 10 -16 12 -32 7 -51 -10 -36 -4 -52 27 -72 14 -9 22 -20 18 -26 -3 -5 -1
-16 5 -23 8 -10 7 -16 -3 -25 -24 -20 -30 -68 -12 -93 9 -12 16 -32 16 -44 0
-32 65 -86 94 -78 14 3 27 -1 35 -10 8 -9 10 -16 7 -16 -4 0 5 -20 19 -44 20
-35 24 -49 16 -64 -8 -16 -6 -21 14 -32 14 -8 21 -18 18 -27 -12 -30 -8 -68 8
-80 18 -14 32 -53 19 -53 -5 0 -12 5 -15 10 -4 6 -10 8 -15 5 -12 -8 -6 -53
10 -68 10 -10 11 -8 5 10 -5 18 -3 22 9 17 9 -3 16 -14 16 -23 0 -9 6 -23 13
-30 10 -11 9 -13 -5 -8 -11 4 -18 -2 -22 -19 -4 -14 -4 -29 -1 -34 4 -6 -1
-10 -9 -10 -10 0 -16 -9 -16 -21 0 -20 4 -21 52 -17 29 3 65 1 80 -4 20 -7 33
-7 43 2 8 6 23 9 35 5 12 -4 20 -2 20 6 0 9 4 8 15 -1 8 -7 13 -23 11 -35 -6
-30 39 -101 88 -141 32 -25 39 -37 44 -79 7 -66 49 -130 96 -148 22 -9 32 -37
17 -47 -10 -6 -9 -14 3 -39 10 -18 14 -41 10 -55 -6 -24 16 -51 24 -28 6 19
24 14 57 -14 17 -14 35 -29 40 -32 6 -4 23 -33 39 -64 l28 -58 29 28 c16 15
35 27 42 27 20 1 36 15 31 28 -5 14 59 110 68 101 3 -3 22 11 41 31 30 31 36
43 34 78 0 23 -6 45 -11 49 -7 5 -4 12 7 20 14 11 18 24 15 58 -2 25 -7 45
-13 46 -60 3 -118 35 -108 60 10 26 -18 46 -53 40 -29 -6 -36 -2 -74 41 -23
27 -51 53 -63 60 -12 6 -23 16 -23 22 -1 6 -2 15 -3 19 -3 19 -41 54 -54 49
-14 -5 -43 31 -33 41 3 3 6 0 6 -6 0 -17 25 -15 40 4 8 8 9 14 4 13 -35 -6
-53 3 -56 29 -2 20 -9 28 -28 30 -22 2 -23 1 -7 -8 11 -7 16 -18 12 -30 -3
-10 -1 -21 5 -25 5 -3 10 -10 10 -14 0 -12 -37 -20 -47 -11 -13 13 -65 14 -93
3 -14 -6 -30 -7 -36 -2 -7 6 -10 1 -10 -14 1 -17 -5 -23 -29 -25 -27 -3 -30 0
-32 30 -4 46 -81 118 -119 110 -23 -4 -26 -2 -20 13 3 10 2 23 -2 29 -12 14
-11 47 0 40 5 -3 24 -7 42 -9 29 -2 35 1 40 20 3 13 3 31 0 39 -4 10 -1 16 7
16 10 0 10 3 2 11 -8 8 -1 22 29 50 23 22 45 39 50 39 18 0 6 34 -22 60 -16
15 -30 31 -30 35 0 4 -11 16 -25 27 -14 11 -25 27 -25 37 0 9 -5 22 -11 28
-12 12 -4 33 12 33 5 0 17 -9 27 -21 9 -11 32 -27 50 -34 25 -11 32 -20 32
-41 0 -15 3 -24 6 -21 10 9 46 -12 39 -24 -4 -5 6 -9 20 -9 18 0 29 6 32 20 3
11 14 20 25 20 11 0 22 8 25 19 3 11 11 22 19 25 7 3 11 12 8 21 -4 11 4 20
30 30 32 14 35 17 26 41 -6 14 -10 37 -10 51 0 15 -7 34 -15 43 -8 8 -17 36
-20 60 -7 54 -18 68 -40 50 -23 -19 -60 18 -50 49 7 23 32 23 27 0 -2 -9 4 -7
17 5 29 27 99 29 106 5 4 -11 11 -19 17 -19 6 0 6 6 -2 15 -7 8 -10 15 -6 15
4 0 -1 11 -10 25 -9 13 -13 33 -9 44 4 13 -2 25 -18 37 -24 20 -57 63 -57 76
0 5 9 8 19 8 14 0 18 5 14 19 -4 14 -13 19 -36 19 -18 0 -36 -4 -42 -8 -10 -8
-54 -14 -67 -10 -19 6 -30 8 -56 9 -16 0 -42 12 -58 26 -16 14 -32 25 -35 25
-4 0 -9 24 -13 53 -3 28 -9 69 -12 90 -4 24 -2 37 5 37 6 0 11 9 11 20 0 24
-29 39 -40 20 -13 -22 -22 8 -9 32 10 19 8 25 -20 50 l-31 28 26 0 c14 0 32 6
39 14 12 12 11 16 -5 31 -11 10 -20 27 -20 37 0 14 -5 18 -19 13 -13 -4 -23 2
-35 20 -9 14 -25 25 -35 25 -10 0 -24 7 -31 15 -10 12 -10 15 3 15 9 0 19 5
23 12 4 7 3 8 -4 4 -17 -10 -15 10 3 37 16 26 5 53 -18 44 -9 -3 -21 1 -28 9
-17 21 -64 44 -89 44 -22 0 -25 12 -10 41 7 12 21 19 41 19 17 0 43 6 57 14
15 8 35 17 45 20 16 5 18 12 12 46 -6 38 5 55 20 30 3 -5 15 -10 25 -10 11 0
35 -9 54 -20 l35 -19 32 28 c27 25 35 28 63 20 45 -13 99 -11 121 5 44 30 112
29 101 -1 -4 -10 1 -14 17 -12 12 1 35 -3 50 -9 16 -7 34 -12 40 -12 7 0 6 -4
-3 -10 -8 -5 -10 -10 -4 -10 6 0 23 -11 37 -24 14 -13 39 -33 56 -46 18 -12
51 -42 75 -67 31 -33 47 -44 57 -37 8 5 21 9 29 9 8 0 19 12 24 27 8 21 6 32
-7 46 -17 19 -15 73 4 98 5 6 6 14 3 17 -4 3 5 12 20 18 21 10 27 21 32 60 4
27 13 54 20 60 8 6 14 18 14 25 0 8 6 11 15 8 8 -4 15 -1 15 5 0 6 14 11 31
11 38 0 69 16 69 35 0 9 10 15 25 15 14 0 29 8 35 20 6 11 14 18 19 16 13 -9
61 44 61 68 0 13 9 35 21 50 18 23 18 27 5 32 -21 8 -22 74 -2 74 23 0 16 206
-8 242 -23 35 -29 95 -10 102 16 6 19 66 3 66 -16 0 -39 65 -39 110 0 31 -7
48 -34 77 -18 21 -38 48 -45 61 -6 12 -20 22 -31 22 -16 0 -60 47 -60 65 0 4
-9 20 -21 36 -14 20 -19 38 -15 54 5 19 2 25 -9 25 -9 0 -13 -4 -10 -10 3 -5
1 -10 -5 -10 -6 0 -9 -4 -5 -9 3 -5 1 -12 -5 -16 -5 -3 -10 -17 -10 -30 l0
-23 -51 18 c-56 21 -64 26 -64 43 0 6 -22 16 -50 23 -27 7 -61 16 -74 20 -18
5 -22 4 -17 -5z m-420 -663 c-5 -16 -2 -18 19 -13 26 7 47 -15 47 -49 0 -14
-59 -83 -61 -71 -5 19 -4 33 2 58 4 15 4 25 0 22 -14 -8 -63 74 -56 95 6 18 7
18 31 -2 16 -14 22 -28 18 -40z m-253 -711 c-10 -9 -11 -8 -5 6 3 10 9 15 12
12 3 -3 0 -11 -7 -18z m-131 -268 c0 -5 -7 -9 -15 -9 -8 0 -15 7 -15 15 0 9 6
12 15 9 8 -4 15 -10 15 -15z m265 -349 c3 -5 -1 -10 -9 -10 -9 0 -16 5 -16 10
0 6 4 10 9 10 6 0 13 -4 16 -10z m-185 -150 c0 -5 -2 -10 -4 -10 -3 0 -8 5
-11 10 -3 6 -1 10 4 10 6 0 11 -4 11 -10z m327 -102 c-3 -8 -6 -5 -6 6 -1 11
2 17 5 13 3 -3 4 -12 1 -19z m-427 -70 c0 -10 -32 -10 -46 0 -17 12 -23 39
-11 51 8 8 17 4 34 -16 12 -16 22 -31 23 -35z m366 35 c-10 -10 -19 5 -10 18
6 11 8 11 12 0 2 -7 1 -15 -2 -18z m224 -118 c11 -13 8 -15 -13 -15 -28 0 -44
15 -25 23 21 9 25 8 38 -8z m-79 -108 c-1 -12 -15 -9 -19 4 -3 6 1 10 8 8 6
-3 11 -8 11 -12z m-213 -85 c3 -17 8 -21 22 -17 26 8 30 -7 8 -28 -15 -14 -19
-15 -24 -3 -3 8 -14 16 -25 19 -26 7 -28 60 -1 55 9 -2 18 -13 20 -26z m86
-76 c12 5 15 2 10 -10 -3 -9 -8 -16 -11 -16 -13 0 -43 22 -43 32 0 7 4 7 14
-1 7 -6 21 -9 30 -5z m-94 -77 c0 -6 -4 -7 -10 -4 -5 3 -10 11 -10 16 0 6 5 7
10 4 6 -3 10 -11 10 -16z m350 -671 c0 -11 -32 -10 -48 1 -9 5 -3 8 17 7 17
-1 31 -4 31 -8z m276 -409 c7 -12 54 -11 54 1 0 21 28 9 34 -15 7 -28 -2 -54
-13 -37 -3 5 -15 12 -27 16 -18 5 -20 3 -16 -22 3 -21 0 -29 -12 -29 -9 0 -16
6 -16 14 0 7 -11 18 -25 23 -19 7 -25 17 -25 39 0 24 3 28 20 24 11 -3 23 -9
26 -14z"/>
<path d="M9606 12283 c5 -47 9 -57 22 -59 25 -3 42 -18 37 -34 -8 -26 18 -42
58 -35 19 4 44 2 55 -4 16 -9 21 -7 25 10 5 17 3 18 -10 7 -13 -10 -17 -10
-20 0 -3 6 -11 12 -19 12 -8 0 -14 6 -14 13 0 6 -12 19 -28 28 -15 8 -33 29
-41 45 -7 16 -17 36 -21 44 -4 8 -17 16 -28 18 -20 3 -21 0 -16 -45z"/>
<path d="M8870 12291 c0 -6 -7 -11 -15 -11 -20 0 -19 -26 1 -34 20 -8 19 -8
28 21 4 12 2 24 -4 28 -5 3 -10 1 -10 -4z"/>
<path d="M8890 12240 c-11 -11 -20 -27 -20 -36 0 -8 -5 -12 -10 -9 -13 8 -70
-32 -70 -49 0 -17 -45 -26 -125 -26 -54 0 -65 -3 -77 -23 -11 -15 -13 -29 -7
-45 7 -19 2 -29 -30 -60 -32 -31 -39 -46 -44 -88 -6 -51 -6 -52 24 -56 16 -3
29 -1 29 4 0 12 38 10 46 -3 3 -6 16 -8 29 -5 18 5 29 -2 49 -29 15 -19 35
-35 45 -35 9 0 22 -5 29 -12 8 -8 15 -8 27 2 14 11 22 8 55 -25 22 -22 40 -44
40 -50 0 -7 9 -20 20 -30 12 -11 20 -31 20 -52 0 -28 7 -38 45 -65 25 -18 52
-33 60 -34 24 -4 47 -26 41 -40 -3 -7 12 -22 37 -34 23 -12 52 -31 64 -42 12
-11 26 -17 32 -13 6 3 16 -6 23 -20 10 -21 13 -23 20 -10 15 25 38 17 77 -26
30 -31 40 -37 48 -27 22 28 25 59 7 96 -12 25 -13 37 -5 40 6 2 8 8 5 13 -4 6
-11 6 -19 -1 -17 -14 -90 52 -81 75 3 9 -10 30 -35 55 -22 21 -45 53 -50 70
-7 19 -20 32 -35 36 -18 5 -24 13 -24 34 0 29 -27 90 -40 90 -4 0 -14 21 -21
46 -8 26 -21 49 -29 52 -8 3 -27 18 -42 34 -22 24 -24 28 -8 28 10 0 22 9 25
21 9 28 -2 69 -20 69 -8 0 -19 10 -26 22 -10 18 -9 20 5 15 11 -5 18 4 27 33
7 22 15 37 20 35 4 -3 1 8 -7 25 -9 17 -19 28 -24 25 -5 -3 -17 6 -28 20 -24
30 -45 32 -72 5z m215 -659 c3 -5 1 -12 -5 -16 -5 -3 -10 1 -10 9 0 18 6 21
15 7z m125 -26 c0 -19 -11 -19 -36 0 -18 14 -18 14 9 15 17 0 27 -5 27 -15z"/>
<path d="M7208 12123 c7 -3 16 -2 19 1 4 3 -2 6 -13 5 -11 0 -14 -3 -6 -6z"/>
<path d="M9796 12100 c-19 -6 -19 -7 -1 -13 20 -8 29 -4 24 11 -2 5 -13 6 -23
2z"/>
<path d="M7260 12073 c0 -11 -4 -11 -21 -3 -27 15 -31 9 -19 -27 8 -21 8 -38
0 -58 -10 -26 -7 -34 27 -83 21 -30 40 -64 43 -76 8 -29 34 -26 38 4 2 14 10
29 18 33 8 4 14 17 14 27 0 11 7 20 15 20 15 0 19 14 17 59 -1 13 8 35 18 49
11 13 20 28 20 32 0 15 -50 20 -69 8 -17 -10 -23 -9 -41 7 -25 22 -60 27 -60
8z"/>
<path d="M9318 12028 c16 -16 15 -28 -3 -28 -19 0 -19 -20 1 -48 22 -32 32
-27 29 16 -3 45 -13 72 -28 72 -7 0 -7 -4 1 -12z"/>
<path d="M9030 12008 c0 -8 5 -19 12 -26 9 -9 6 -14 -13 -22 -23 -10 -23 -10
4 -5 19 4 29 1 33 -10 7 -18 44 -20 43 -2 -1 18 -79 83 -79 65z"/>
<path d="M9132 11910 c-4 -11 -6 -37 -4 -56 4 -30 9 -36 34 -41 26 -5 28 -7
13 -16 -14 -8 -15 -11 -4 -18 11 -7 12 -11 1 -17 -16 -11 0 -26 38 -35 23 -5
23 -5 7 7 -16 13 -15 14 17 14 25 0 43 -7 58 -24 26 -27 37 -29 62 -11 16 12
15 16 -9 70 -14 32 -23 62 -20 67 3 5 -4 7 -16 5 -12 -3 -27 -1 -33 2 -6 4
-22 7 -36 7 -18 1 -25 6 -23 19 0 10 -1 16 -5 13 -3 -3 -20 4 -39 15 l-33 21
-8 -22z"/>
<path d="M12060 11901 c0 -8 -6 -11 -15 -7 -9 3 -15 0 -15 -9 0 -8 -9 -15 -19
-15 -19 0 -31 -18 -31 -47 0 -8 -14 -31 -30 -50 -25 -28 -29 -38 -19 -49 7 -9
8 -14 1 -14 -6 0 -14 -9 -17 -20 -4 -11 -15 -20 -27 -20 -17 0 -20 -5 -16 -35
3 -24 0 -35 -9 -35 -7 0 -13 5 -13 10 0 6 -4 10 -10 10 -5 0 -7 -6 -4 -14 6
-15 -29 -40 -40 -29 -6 6 -24 9 -96 16 -14 1 -31 -2 -39 -8 -10 -7 -16 -6 -19
3 -3 9 -11 2 -24 -18 -14 -24 -23 -30 -36 -24 -20 10 -100 10 -109 0 -4 -3 -2
-11 4 -17 6 -6 9 -18 6 -26 -4 -11 -12 -10 -40 7 -41 24 -113 28 -113 5 0 -8
-7 -15 -15 -15 -8 0 -15 -4 -15 -9 0 -5 -17 -7 -37 -4 -36 4 -39 3 -61 -39
-12 -24 -22 -52 -22 -62 0 -11 -3 -16 -7 -12 -4 3 -12 -8 -17 -26 -9 -27 -17
-34 -44 -36 -33 -3 -102 -62 -102 -87 0 -7 -7 -15 -15 -19 -11 -4 -14 -13 -9
-30 3 -13 1 -33 -5 -44 -7 -14 -8 -23 -1 -27 18 -11 10 -35 -12 -35 l-21 0 23
-24 c15 -17 21 -33 18 -51 -3 -14 -1 -28 3 -31 5 -3 9 -14 9 -25 0 -11 5 -17
10 -14 6 3 13 -2 16 -12 3 -10 9 -25 13 -33 5 -9 5 -42 0 -75 -5 -33 -6 -67
-3 -77 3 -9 0 -19 -6 -23 -6 -3 -7 -11 -4 -17 4 -6 3 -8 -2 -5 -15 9 -28 -4
-49 -51 -10 -24 -36 -57 -56 -73 -21 -16 -41 -40 -45 -52 -11 -38 -34 -56 -65
-52 -16 2 -33 6 -39 10 -6 4 -10 -4 -10 -19 0 -37 -17 -41 -35 -6 -13 26 -19
29 -36 20 -10 -6 -24 -8 -30 -4 -8 4 -7 0 0 -15 10 -17 9 -21 -5 -21 -13 0
-16 -7 -11 -33 5 -32 -13 -73 -26 -60 -16 15 -5 -33 15 -69 21 -38 25 -39 59
-34 46 7 54 -8 35 -67 -17 -54 -18 -84 -3 -116 7 -14 12 -56 12 -93 -1 -56 2
-67 17 -71 14 -4 18 -15 18 -54 0 -27 3 -53 7 -56 3 -4 6 -24 6 -44 0 -26 6
-42 19 -51 10 -7 18 -19 18 -25 0 -7 14 -18 31 -24 28 -11 30 -15 26 -53 -2
-22 -1 -43 4 -45 4 -3 3 -20 -2 -37 -5 -18 -7 -39 -4 -48 3 -9 -9 -24 -30 -39
-19 -13 -35 -29 -35 -36 0 -19 -33 -14 -57 8 -13 11 -26 17 -30 13 -4 -4 3
-16 17 -26 14 -10 22 -22 18 -26 -8 -7 26 -37 54 -47 13 -5 19 0 24 18 6 24
34 25 34 0 0 -7 7 -18 15 -25 8 -7 15 -25 15 -39 0 -38 41 -75 72 -66 12 4 31
14 40 22 9 8 35 17 58 20 31 4 44 11 50 29 22 56 81 90 120 69 17 -9 29 -10
37 -3 7 6 19 8 27 5 8 -3 16 2 19 12 4 16 11 17 67 9 46 -7 65 -7 70 2 5 8 14
2 28 -17 12 -15 22 -22 22 -15 0 8 16 12 45 12 29 0 45 4 46 13 0 6 5 0 11
-15 10 -28 22 -35 32 -19 3 4 17 6 32 3 20 -4 25 -1 22 9 -3 8 -10 13 -16 12
-5 -1 -16 4 -22 12 -16 19 -11 19 34 0 34 -14 36 -14 36 4 0 32 11 51 29 51
26 0 31 9 20 34 -9 19 -5 28 20 55 27 29 33 61 11 61 -4 0 -10 13 -12 30 -4
24 -2 27 9 18 29 -24 25 4 -6 35 -18 20 -29 40 -26 48 3 9 -7 27 -25 44 l-30
29 41 38 c23 21 39 42 35 45 -3 4 1 14 10 24 9 10 14 24 11 32 -3 7 4 19 14
25 20 13 26 47 9 57 -15 9 -12 25 4 25 28 0 39 27 25 65 -7 19 -16 35 -20 35
-10 0 -5 85 6 101 6 8 9 25 7 39 -1 14 -4 41 -7 60 -2 19 -6 47 -8 63 -4 27 6
36 18 17 4 -6 16 -4 31 6 18 12 22 20 14 29 -8 9 -8 15 -1 20 7 4 5 15 -5 31
-15 22 -15 26 0 49 9 14 22 25 28 25 6 0 8 3 5 7 -4 3 2 17 14 29 19 21 20 24
5 53 -18 34 -19 41 -6 56 12 15 1 27 -42 49 -35 18 -38 23 -38 62 0 24 -5 46
-10 49 -6 4 -8 16 -4 27 3 11 0 33 -7 49 -9 23 -9 33 0 42 6 6 11 19 11 29 0
11 9 28 19 39 17 18 17 24 5 47 -16 32 -15 33 33 36 82 6 83 6 77 21 -5 11 1
15 23 15 40 0 66 29 57 65 -5 19 -3 26 4 21 36 -22 65 85 35 130 -14 22 -14
24 1 24 9 0 19 7 22 15 4 8 13 15 21 15 12 0 14 8 9 35 -6 30 -4 35 11 35 21
0 57 36 44 44 -15 10 1 64 20 69 24 7 26 52 2 66 -10 5 -18 18 -18 28 0 10
-10 22 -22 28 -15 6 -23 18 -23 35 0 14 -5 32 -10 40 -6 10 -4 22 5 36 12 19
12 24 -3 36 -25 22 -50 29 -55 15 -3 -8 -14 -3 -31 12 -15 14 -26 19 -26 12z"/>
<path d="M8444 11828 c-23 -45 -22 -45 -40 -20 -24 35 -41 27 -40 -18 0 -34 3
-40 22 -40 27 0 76 25 67 33 -3 4 -1 7 7 7 10 0 10 3 0 15 -7 8 -8 15 -2 15 5
0 12 9 15 20 8 32 -11 23 -29 -12z m-24 -58 c0 -5 -7 -10 -16 -10 -8 0 -12 5
-9 10 3 6 10 10 16 10 5 0 9 -4 9 -10z"/>
<path d="M8300 11800 c0 -5 -11 -12 -25 -16 -35 -9 -49 -29 -20 -29 13 0 21 4
17 9 -3 6 3 6 14 2 10 -5 26 -9 34 -10 8 0 18 -8 23 -16 4 -8 5 -2 1 15 -6 32
-21 55 -35 55 -5 0 -9 -4 -9 -10z"/>
<path d="M7310 11766 c0 -9 5 -16 10 -16 6 0 10 4 10 9 0 6 -4 13 -10 16 -5 3
-10 -1 -10 -9z"/>
<path d="M7283 11724 c-3 -8 -11 -14 -19 -14 -28 0 -13 -25 24 -40 47 -20 96
-12 100 15 2 18 2 19 -8 3 -15 -25 -24 -22 -36 10 -12 32 -52 49 -61 26z"/>
<path d="M8212 11713 c3 -18 17 -33 30 -33 4 0 2 11 -4 25 -13 29 -30 34 -26
8z"/>
<path d="M7656 11702 c-3 -6 -14 -8 -25 -5 -10 3 -34 -3 -52 -13 -30 -16 -43
-17 -84 -10 -5 1 -19 7 -31 13 -28 16 -64 5 -64 -19 0 -23 48 -67 73 -68 10 0
27 5 38 11 29 15 79 2 79 -21 0 -10 9 -21 19 -25 13 -4 17 -12 14 -26 -5 -19
-4 -20 16 -9 18 9 27 8 46 -4 14 -9 33 -16 43 -16 11 0 38 -7 61 -15 36 -12
43 -12 47 0 10 24 73 13 105 -20 23 -22 32 -26 41 -17 17 17 77 15 84 -3 11
-27 21 -16 16 16 -4 24 -2 30 8 24 9 -5 11 -4 6 4 -4 7 2 19 14 29 26 21 23
24 -60 70 -107 58 -120 67 -120 79 0 6 5 13 12 15 9 3 9 6 0 12 -7 4 -12 3
-12 -3 0 -6 -12 -8 -30 -5 -16 4 -36 2 -43 -5 -10 -8 -18 -7 -32 3 -14 10 -28
11 -53 4 -32 -9 -57 -7 -95 8 -8 3 -18 1 -21 -4z"/>
<path d="M8193 11635 c-10 -15 -26 -34 -35 -43 -20 -18 -24 -57 -8 -67 6 -3
10 -15 10 -26 0 -12 10 -29 22 -39 19 -15 25 -16 41 -5 11 8 25 11 31 9 6 -2
12 4 13 15 1 12 -3 18 -11 15 -7 -3 -19 3 -27 12 -9 12 -10 15 -1 10 7 -4 12
-1 12 8 0 8 -9 20 -20 26 -11 6 -20 19 -20 30 0 10 -6 21 -12 23 -9 4 -7 6 3
6 9 1 33 -15 53 -34 38 -35 56 -43 56 -25 0 6 -5 10 -11 10 -5 0 -8 4 -4 10 3
5 -6 17 -20 26 -14 9 -25 22 -25 29 0 7 -6 18 -14 24 -11 10 -18 7 -33 -14z"/>
<path d="M9291 11564 c0 -11 3 -14 6 -6 3 7 2 16 -1 19 -3 4 -6 -2 -5 -13z"/>
<path d="M7568 11513 c7 -3 16 -2 19 1 4 3 -2 6 -13 5 -11 0 -14 -3 -6 -6z"/>
<path d="M9051 11417 c-25 -13 -30 -29 -12 -35 6 -2 11 2 11 9 0 6 8 18 18 25
22 17 14 17 -17 1z"/>
<path d="M8231 11393 c5 -16 12 -34 15 -42 2 -8 7 -12 9 -9 6 5 -22 78 -30 78
-2 0 0 -12 6 -27z"/>
<path d="M8260 11297 c0 -28 6 -32 28 -19 9 7 8 13 -8 27 -20 18 -20 18 -20
-8z"/>
<path d="M9351 11264 c0 -11 3 -14 6 -6 3 7 2 16 -1 19 -3 4 -6 -2 -5 -13z"/>
<path d="M9375 11190 c3 -5 8 -10 11 -10 2 0 4 5 4 10 0 6 -5 10 -11 10 -5 0
-7 -4 -4 -10z"/>
<path d="M10094 10826 c-3 -8 -2 -22 3 -31 8 -13 10 -10 10 14 0 34 -5 39 -13
17z"/>
<path d="M10025 10790 c-16 -7 -17 -9 -3 -9 9 -1 24 -8 33 -17 22 -22 45 -3
25 21 -14 17 -25 18 -55 5z"/>
<path d="M9990 10755 c0 -8 4 -15 10 -15 5 0 7 7 4 15 -4 8 -8 15 -10 15 -2 0
-4 -7 -4 -15z"/>
<path d="M9967 10734 c-4 -4 -7 -16 -7 -26 0 -20 36 -26 42 -6 6 17 67 -32 67
-53 1 -18 21 -29 53 -29 19 0 20 1 5 18 -16 17 -17 20 -17 47 0 10 -10 15 -30
15 -16 0 -30 5 -30 10 0 6 -15 10 -34 10 -19 0 -36 5 -38 11 -2 5 -7 7 -11 3z"/>
<path d="M10743 9656 c18 -14 23 -46 7 -46 -5 0 -10 -7 -10 -15 0 -9 9 -15 23
-15 13 0 27 -3 31 -7 3 -4 15 -7 24 -8 14 -1 17 4 14 23 -3 13 -12 26 -21 30
-9 3 -26 16 -38 29 -12 13 -28 23 -35 23 -9 -1 -7 -5 5 -14z"/>
<path d="M10609 9588 c5 -15 17 -23 32 -23 33 0 36 -29 4 -43 -23 -11 -29 -10
-45 10 -11 13 -19 27 -20 32 0 5 -6 4 -13 -2 -8 -7 -19 -6 -37 3 -23 12 -25
11 -37 -17 -11 -26 -15 -28 -28 -18 -12 10 -21 10 -43 1 -19 -9 -28 -9 -30 -2
-2 6 -17 18 -33 27 -23 12 -30 12 -28 2 4 -34 -2 -58 -16 -58 -24 0 -17 -14
15 -28 26 -12 32 -11 59 9 16 12 34 19 39 15 5 -3 12 1 15 9 5 11 13 12 37 5
18 -5 38 -14 45 -20 18 -15 55 -3 55 18 0 13 3 12 16 -6 20 -30 37 -28 74 8
17 17 35 30 41 30 5 0 7 12 3 28 -9 35 -6 33 -41 20 -26 -10 -34 -9 -48 5 -22
23 -26 21 -16 -5z"/>
<path d="M10045 9240 c-4 -6 -3 -16 3 -22 13 -13 23 4 13 21 -7 10 -10 10 -16
1z"/>
<path d="M9787 9206 c-4 -9 -1 -16 5 -16 7 0 6 -5 -2 -15 -7 -9 -11 -18 -8
-20 3 -3 11 6 18 20 10 18 10 29 3 36 -7 7 -12 6 -16 -5z"/>
<path d="M9650 9177 c0 -8 -9 -17 -20 -20 -12 -3 -20 -14 -20 -26 0 -16 -6
-21 -25 -21 -16 0 -25 -6 -25 -15 0 -9 -9 -15 -21 -15 -15 0 -19 -4 -15 -16 3
-9 6 -20 6 -24 0 -19 70 -2 89 21 10 13 29 24 42 25 40 2 89 15 89 24 0 5 -3
16 -6 25 -5 12 -9 13 -14 4 -12 -19 -60 -2 -60 21 0 10 -4 22 -10 25 -5 3 -10
0 -10 -8z"/>
<path d="M10485 9050 c3 -5 14 -10 23 -10 15 0 15 2 2 10 -20 13 -33 13 -25 0z"/>
<path d="M10560 9041 c0 -6 -9 -11 -19 -11 -10 0 -21 -7 -25 -15 -3 -8 -1 -15
3 -15 5 0 15 -2 23 -5 15 -6 41 42 27 51 -5 3 -9 0 -9 -5z"/>
<path d="M12240 8951 c0 -5 5 -22 10 -37 8 -20 14 -24 22 -16 9 9 7 16 -5 30
-9 10 -14 22 -10 25 3 4 1 7 -5 7 -7 0 -12 -4 -12 -9z"/>
<path d="M12040 8923 c0 -7 -7 -13 -16 -13 -8 0 -12 -5 -9 -11 4 -6 9 -30 11
-55 3 -34 1 -44 -10 -44 -18 0 -22 -6 -31 -47 -5 -28 -4 -32 9 -27 9 3 23 1
31 -6 31 -26 45 26 21 82 -7 14 -1 16 40 15 39 -2 49 1 52 16 3 13 -3 17 -31
17 -39 0 -51 8 -37 25 7 9 4 20 -10 36 -10 13 -19 18 -20 12z"/>
<path d="M12236 8871 c-4 -5 -14 -7 -23 -4 -11 4 -14 3 -9 -6 5 -7 5 -27 2
-46 -5 -26 -14 -36 -38 -44 -24 -9 -28 -14 -19 -24 8 -11 5 -17 -13 -27 -14
-7 -27 -23 -30 -36 -4 -13 -13 -24 -22 -24 -8 0 -18 -8 -21 -17 -9 -24 -29
-43 -43 -43 -7 0 -10 7 -7 15 4 8 2 17 -3 20 -14 8 -35 -7 -35 -25 0 -18 -62
-27 -78 -11 -18 18 -24 12 -19 -19 4 -25 7 -28 19 -19 11 10 17 7 31 -12 23
-33 21 -43 -8 -49 -23 -4 -25 -7 -15 -27 8 -16 15 -19 22 -12 15 15 33 3 33
-22 0 -19 3 -18 39 8 21 15 36 33 34 40 -8 21 35 15 66 -8 26 -19 31 -20 50
-7 11 8 18 18 14 21 -3 4 1 7 9 7 38 0 52 56 24 90 -24 28 -25 48 -5 66 10 9
19 27 19 40 0 12 11 35 24 51 12 15 21 34 19 41 -3 6 -1 12 4 12 4 0 13 8 20
19 10 16 8 22 -12 41 -14 13 -25 17 -29 11z"/>
<path d="M11986 8690 c6 -8 13 -22 16 -30 3 -9 7 -10 11 -3 4 6 -3 19 -16 29
-12 11 -17 12 -11 4z"/>
<path d="M11571 8566 c-7 -8 -11 -32 -9 -53 3 -38 3 -38 51 -41 48 -3 59 6 32
28 -8 7 -15 21 -15 31 0 18 -25 49 -39 49 -5 0 -14 -6 -20 -14z"/>
<path d="M11830 8508 c0 -51 11 -68 41 -66 30 2 37 12 19 23 -6 4 -9 19 -8 33
3 23 -1 27 -24 30 -24 3 -28 0 -28 -20z"/>
<path d="M10750 8450 c0 -5 5 -10 10 -10 6 0 10 5 10 10 0 6 -4 10 -10 10 -5
0 -10 -4 -10 -10z"/>
<path d="M11422 8439 c2 -7 10 -15 17 -17 8 -3 12 1 9 9 -2 7 -10 15 -17 17
-8 3 -12 -1 -9 -9z"/>
<path d="M11465 8440 c3 -5 10 -10 16 -10 5 0 9 5 9 10 0 6 -7 10 -16 10 -8 0
-12 -4 -9 -10z"/>
<path d="M11540 8432 c0 -5 7 -13 16 -16 10 -4 14 -1 12 6 -5 15 -28 23 -28
10z"/>
<path d="M11690 8422 c0 -6 -16 -19 -35 -31 -32 -19 -37 -19 -71 -5 -25 11
-39 12 -48 5 -7 -6 -16 -8 -19 -4 -4 3 -7 -1 -7 -9 0 -23 -28 -30 -52 -14 -15
10 -27 12 -45 5 -13 -5 -27 -8 -31 -6 -4 1 -22 -12 -39 -30 -17 -17 -34 -29
-37 -26 -3 4 -16 7 -29 8 -13 1 -22 8 -22 18 0 22 -25 46 -50 48 -51 5 -65 -1
-65 -27 0 -17 -6 -28 -20 -31 -11 -3 -20 -9 -20 -14 0 -5 -6 -6 -14 -3 -8 3
-16 -3 -19 -15 -3 -15 -13 -21 -31 -21 -19 0 -26 -5 -26 -20 0 -12 -7 -20 -17
-20 -10 0 -24 -4 -32 -9 -11 -7 -10 -13 3 -34 11 -17 14 -27 7 -32 -14 -8 -31
3 -31 20 0 16 -62 31 -80 20 -6 -4 -18 1 -25 11 -13 17 -14 17 -15 2 0 -36
-115 -12 -155 31 -47 53 -119 76 -95 31 14 -26 13 -33 -5 -26 -8 3 -29 3 -46
-1 -27 -5 -29 -8 -23 -35 6 -29 5 -30 -25 -23 -34 7 -41 -8 -21 -46 9 -15 7
-21 -5 -25 -42 -16 11 -101 82 -131 35 -14 44 -42 19 -62 -8 -7 -17 -30 -21
-51 -5 -31 -12 -41 -37 -49 -25 -9 -29 -15 -24 -35 3 -14 2 -36 -3 -49 -11
-29 8 -43 37 -28 26 14 66 -22 60 -54 -6 -26 14 -51 32 -40 16 10 12 36 -14
87 l-23 46 28 4 c16 3 31 2 34 -1 3 -2 13 -6 23 -7 9 -1 27 -6 40 -9 14 -5 22
-3 22 4 0 7 14 17 30 22 17 6 30 16 30 23 0 7 11 22 23 34 19 18 37 23 88 24
65 2 124 -17 100 -32 -16 -9 35 -44 55 -36 10 4 18 -4 25 -22 10 -25 12 -26
23 -10 7 10 16 15 20 11 4 -4 4 0 1 9 -4 9 0 18 11 22 13 5 15 2 11 -13 -8
-30 7 -45 31 -32 32 17 72 57 72 71 0 18 30 -8 40 -35 7 -16 9 -17 9 -3 1 10
10 22 21 28 11 6 20 20 20 30 0 11 7 20 15 20 9 0 20 11 25 25 5 14 14 26 20
26 41 5 77 4 92 -3 11 -5 18 -3 22 8 5 13 10 13 38 -2 41 -21 92 -56 96 -66 2
-5 21 -8 43 -8 21 0 38 -3 37 -7 -5 -26 17 -43 53 -43 34 0 39 -3 40 -22 0
-13 3 -18 5 -12 3 7 13 10 23 7 23 -6 64 14 56 28 -8 12 46 -12 64 -29 12 -12
16 -11 23 2 5 9 13 14 19 11 5 -3 6 1 3 10 -4 10 -10 13 -16 7 -5 -5 -23 -6
-41 -3 -26 6 -34 15 -53 60 -12 31 -31 59 -44 66 -24 13 -37 45 -18 45 6 0 8
12 4 30 -4 22 -2 29 6 24 6 -4 4 3 -5 17 -18 25 -23 69 -8 69 6 0 13 -5 16
-10 13 -21 67 -42 78 -31 17 17 34 13 62 -16 20 -21 25 -35 21 -56 -3 -16 -1
-37 4 -48 7 -12 7 -19 1 -19 -5 0 -9 -9 -8 -19 1 -13 6 -17 14 -12 8 4 51 2
97 -4 73 -10 87 -15 109 -41 17 -18 24 -36 21 -50 -3 -12 1 -26 10 -33 9 -8
16 -21 16 -31 0 -31 27 -31 40 0 7 17 17 27 25 24 7 -3 16 4 20 15 3 12 15 21
26 21 10 0 19 5 19 10 0 6 7 10 15 10 8 0 15 5 15 11 0 5 5 7 10 4 6 -3 10
-17 10 -30 0 -26 21 -46 28 -27 5 16 18 15 36 -3 14 -14 18 -14 46 0 16 8 30
23 30 31 0 13 3 14 14 5 11 -9 17 -8 29 4 9 8 21 15 27 15 7 0 8 6 1 18 -5 10
-8 33 -5 50 5 33 -2 38 -46 34 -8 -1 -22 1 -30 5 -8 3 -22 7 -30 7 -8 1 -25
20 -38 44 -13 23 -28 42 -33 42 -5 0 -20 9 -32 21 l-22 20 -3 -20 c-5 -35 -61
-26 -75 11 -4 11 -23 19 -64 24 -32 3 -68 10 -80 15 -31 12 -84 71 -78 88 3 8
-1 21 -9 30 -8 9 -16 25 -18 36 -2 13 -17 24 -43 33 -63 19 -86 34 -80 50 3 8
-4 29 -16 48 -13 22 -16 34 -9 34 10 0 10 4 0 15 -20 24 -66 19 -74 -7 -6 -21
-7 -21 -17 -5 -12 21 -29 22 -29 2 0 -19 -10 -19 -38 1 -17 12 -22 12 -22 2 0
-9 -3 -10 -8 -2 -10 15 -52 28 -52 16z m68 -477 c-3 -3 -9 2 -12 12 -6 14 -5
15 5 6 7 -7 10 -15 7 -18z m-599 -124 c8 -5 9 -11 3 -15 -5 -3 -15 1 -22 9
-14 16 -3 20 19 6z"/>
<path d="M11510 8409 c0 -5 5 -7 10 -4 6 3 10 8 10 11 0 2 -4 4 -10 4 -5 0
-10 -5 -10 -11z"/>
<path d="M12635 7790 c-3 -5 -1 -10 4 -10 6 0 11 5 11 10 0 6 -2 10 -4 10 -3
0 -8 -4 -11 -10z"/>
<path d="M10870 7762 c0 -13 -6 -22 -15 -22 -8 0 -22 -14 -30 -30 -14 -28 -20
-30 -54 -26 -21 2 -56 0 -77 -5 -21 -6 -50 -10 -63 -10 -18 1 -22 -3 -17 -16
4 -9 10 -36 13 -59 5 -36 3 -43 -15 -48 -20 -7 -35 -38 -32 -68 1 -12 -6 -18
-18 -18 -22 0 -32 -25 -32 -82 0 -31 4 -38 19 -38 33 0 44 -24 30 -64 -14 -40
-47 -51 -88 -30 -31 16 -51 18 -51 4 0 -5 -7 -10 -16 -10 -8 0 -12 4 -9 10 3
5 -2 24 -11 41 -15 29 -15 33 0 41 13 8 14 13 4 31 -7 12 -11 26 -10 31 2 5
-5 18 -15 29 -17 18 -17 20 -1 30 15 10 15 13 -3 38 -20 28 -20 28 0 39 22 11
37 66 27 98 -8 25 -39 19 -80 -15 -29 -24 -47 -26 -88 -8 -14 5 -18 2 -18 -12
0 -10 -18 -42 -40 -72 -22 -29 -40 -57 -40 -62 0 -5 -6 -9 -12 -9 -7 0 -26 -7
-42 -15 -15 -8 -39 -12 -51 -9 -19 5 -27 0 -39 -25 -9 -16 -16 -44 -16 -61 0
-17 -5 -30 -12 -30 -8 -1 -5 -6 5 -15 10 -7 17 -22 15 -32 -6 -29 37 -56 78
-50 29 5 34 3 34 -14 0 -11 11 -30 25 -43 14 -13 25 -28 25 -33 0 -5 11 -15
24 -21 13 -6 31 -23 38 -39 10 -21 20 -27 38 -25 13 1 33 -7 47 -20 13 -12 23
-16 23 -9 0 9 5 9 21 0 18 -9 24 -8 30 3 5 9 29 21 54 28 25 7 45 17 45 22 0
5 10 6 22 3 17 -6 20 -4 15 9 -4 10 -1 19 8 22 10 4 13 14 9 31 -6 22 -4 23
20 17 22 -5 25 -3 20 11 -6 15 -4 15 13 5 16 -10 26 -9 59 8 36 18 45 19 77 8
20 -7 40 -15 43 -19 4 -4 17 -4 29 -1 12 3 41 0 64 -6 l41 -11 -15 -29 c-19
-36 -19 -41 0 -33 9 3 14 8 11 11 -3 2 3 17 14 32 11 16 20 36 20 45 0 10 5
15 14 12 22 -9 49 32 42 65 -4 18 0 38 10 53 9 14 14 31 11 40 -4 8 -2 17 3
20 15 9 12 25 -4 19 -16 -6 -78 44 -71 57 3 4 -1 22 -10 38 -19 38 -19 41 5
41 11 0 20 -4 20 -10 0 -18 32 -10 37 9 3 11 15 21 27 23 13 2 21 10 21 23 0
11 10 26 23 33 12 7 22 22 22 33 0 11 -4 18 -9 14 -5 -3 -12 -1 -16 5 -3 5 2
10 13 10 10 0 26 8 35 18 20 22 23 56 5 49 -7 -2 -12 -10 -10 -17 5 -19 -18
-30 -65 -30 -63 0 -72 6 -66 44 4 25 1 35 -12 40 -9 3 -21 3 -27 0 -5 -3 -18
2 -29 12 -18 16 -19 16 -19 -4z m35 -232 c3 -5 2 -10 -4 -10 -5 0 -13 5 -16
10 -3 6 -2 10 4 10 5 0 13 -4 16 -10z"/>
<path d="M11223 7725 c-3 -9 -3 -18 -1 -21 3 -3 8 4 11 16 6 23 -1 27 -10 5z"/>
<path d="M10520 7680 c0 -5 7 -10 16 -10 8 0 12 5 9 10 -3 6 -10 10 -16 10 -5
0 -9 -4 -9 -10z"/>
<path d="M11217 7653 c-10 -16 10 -56 26 -50 17 5 20 27 4 27 -9 0 -17 8 -19
18 -2 12 -6 14 -11 5z"/>
<path d="M11140 7611 c0 -6 -6 -11 -14 -11 -10 0 -17 -16 -22 -45 -3 -25 -11
-45 -16 -45 -6 0 -5 -6 2 -15 10 -12 9 -15 -5 -15 -14 0 -16 -6 -11 -30 4 -24
2 -30 -12 -31 -10 0 -12 -3 -4 -6 17 -7 15 -30 -3 -37 -20 -7 -20 -56 0 -56 8
0 19 -9 25 -19 13 -26 13 -31 -5 -31 -9 0 -15 -9 -15 -25 0 -19 -5 -25 -22
-25 -13 0 -33 -11 -46 -25 l-24 -25 31 11 c17 6 34 15 37 20 3 5 16 9 29 9 12
0 25 6 28 14 3 8 24 20 46 27 23 7 41 18 41 26 0 10 6 12 23 7 12 -4 30 -7 40
-8 10 -1 21 -6 25 -12 9 -13 55 -14 63 -1 4 6 25 3 52 -6 47 -16 66 -9 61 21
-1 6 -2 17 -3 22 0 6 -4 9 -8 9 -23 -4 -33 3 -33 24 -1 19 -2 20 -11 5 -8 -14
-15 -15 -37 -7 -15 6 -35 17 -44 26 -14 12 -23 13 -47 5 -37 -13 -103 -4 -114
15 -5 8 -17 11 -31 7 -18 -4 -25 -1 -29 16 -5 19 -2 21 18 16 19 -5 23 -3 19
9 -4 9 0 15 10 15 19 0 11 29 -13 48 -14 11 -14 14 -1 22 8 5 23 10 33 10 10
0 17 8 17 20 0 11 5 20 11 20 5 0 7 5 4 11 -4 6 -14 8 -22 5 -10 -4 -13 -1 -8
13 3 11 1 22 -5 26 -5 3 -10 1 -10 -4z"/>
<path d="M11260 7564 c0 -12 7 -27 15 -34 8 -7 15 -22 16 -34 0 -11 3 -15 6
-8 7 18 31 15 55 -7 11 -11 26 -17 34 -14 11 4 10 10 -3 31 -24 39 -43 52 -74
52 -16 0 -32 8 -38 18 -9 15 -10 15 -11 -4z"/>
<path d="M11260 7470 c0 -5 5 -10 11 -10 5 0 7 5 4 10 -3 6 -8 10 -11 10 -2 0
-4 -4 -4 -10z"/>
<path d="M11435 7440 c3 -5 8 -10 11 -10 2 0 4 5 4 10 0 6 -5 10 -11 10 -5 0
-7 -4 -4 -10z"/>
<path d="M11475 7250 c-8 -13 25 -13 45 0 12 8 9 10 -12 10 -15 0 -30 -4 -33
-10z"/>
</g>
</svg>
