<?xml version="1.0" standalone="no"?>
<!DOCTYPE svg PUBLIC "-//W3C//DTD SVG 20010904//EN"
 "http://www.w3.org/TR/2001/REC-SVG-20010904/DTD/svg10.dtd">
<svg version="1.0" xmlns="http://www.w3.org/2000/svg"
 width="842.650797pt" height="682.072255pt" viewBox="0 0 842.650797 682.072255"
 preserveAspectRatio="xMidYMid meet">
<metadata>
Created by potrace 1.15, written by Peter Selinger 2001-2017
</metadata>
<g transform="translate(-559.154581,1368.888241) scale(0.100000,-0.100000)"
fill="#222222" stroke="none">
<path d="M5600 13685 c0 -7 7 -20 15 -28 8 -8 12 -17 8 -20 -3 -3 8 -4 23 -2
16 2 38 4 49 5 19 1 19 1 1 11 -13 8 -20 8 -25 0 -5 -7 -18 0 -39 19 -20 18
-32 24 -32 15z"/>
<path d="M5801 13667 c0 -10 -5 -15 -11 -12 -5 3 -10 -3 -10 -14 0 -18 95
-121 112 -121 5 0 16 -15 24 -34 12 -24 22 -32 34 -29 29 8 60 -15 60 -43 0
-13 7 -27 15 -30 8 -4 13 -10 10 -15 -3 -4 -1 -16 4 -26 5 -10 14 -44 21 -75
11 -55 13 -57 55 -74 25 -9 56 -31 69 -49 23 -29 25 -41 24 -124 0 -54 4 -97
10 -103 6 -6 8 -24 5 -40 -4 -19 0 -35 10 -46 11 -12 13 -22 7 -32 -5 -8 -10
-25 -10 -37 0 -12 -6 -23 -12 -26 -9 -2 -3 -20 20 -56 17 -29 32 -59 32 -67 0
-8 15 -21 34 -29 18 -8 48 -26 65 -40 17 -15 36 -23 42 -20 6 4 26 -7 44 -25
18 -18 38 -29 44 -25 6 3 9 10 6 15 -3 5 -1 19 4 32 5 15 5 31 0 41 -9 16 -2
22 24 18 4 0 7 8 7 19 0 13 7 20 19 20 26 0 37 20 20 32 -10 7 -8 8 7 3 13 -3
26 1 34 10 10 11 15 13 20 4 10 -15 50 -2 50 16 0 8 -5 26 -11 42 -8 21 -7 25
1 17 9 -9 18 -8 38 2 15 8 35 14 45 14 19 0 22 22 7 51 -6 10 -7 19 -3 19 15
-1 43 -27 43 -41 1 -19 20 -43 46 -57 18 -9 25 -8 40 9 12 13 21 16 28 9 5 -5
53 -10 107 -10 95 0 159 -13 159 -32 0 -5 5 -6 10 -3 6 3 10 1 10 -6 0 -8 4
-8 13 -1 6 6 36 8 65 6 42 -4 52 -2 52 11 0 11 9 14 33 13 17 -1 47 2 66 6 29
7 33 6 28 -8 -4 -10 -1 -16 8 -16 8 0 15 -4 15 -10 0 -5 -6 -10 -14 -10 -31 0
-24 -19 15 -39 22 -12 37 -16 34 -10 -5 7 0 7 16 -1 21 -12 22 -13 5 -26 -21
-15 -13 -54 10 -54 9 0 14 -11 14 -30 0 -20 5 -30 15 -30 8 0 15 -4 15 -10 0
-5 4 -10 9 -10 5 0 3 13 -5 29 -17 35 -25 89 -13 97 15 9 10 41 -11 77 -18 30
-19 35 -5 41 23 8 18 28 -15 66 -16 19 -29 40 -30 46 0 7 -9 14 -19 17 -18 4
-18 7 -6 43 8 22 14 56 15 77 0 26 4 37 15 37 19 0 19 32 0 85 -18 50 -18 56
0 49 34 -13 11 13 -27 31 -33 15 -44 27 -50 53 -19 79 -25 91 -53 114 -43 36
-75 52 -75 37 0 -7 -9 -5 -25 5 -24 15 -26 16 -32 0 -5 -13 -15 -15 -57 -9
-28 3 -56 11 -63 17 -9 7 -20 6 -38 -6 -13 -9 -34 -16 -45 -16 -12 0 -19 -4
-16 -9 3 -5 -15 -6 -39 -3 -41 4 -45 3 -39 -13 7 -16 4 -16 -22 3 -16 11 -49
33 -74 48 -34 21 -41 29 -27 32 14 3 16 7 6 18 -17 21 -49 18 -49 -4 0 -29
-35 -55 -63 -48 -17 4 -30 0 -42 -14 -24 -27 -56 -25 -117 6 -32 16 -61 24
-77 21 -16 -3 -36 2 -53 15 -19 13 -28 15 -28 7 0 -9 -3 -10 -11 -2 -8 8 -18
7 -37 -3 -23 -11 -29 -11 -43 2 -10 9 -16 21 -13 27 2 7 0 17 -4 23 -16 25
-93 63 -145 73 -57 10 -93 28 -135 65 -23 21 -31 17 -46 -19 -2 -6 -21 0 -44
13 -50 27 -48 27 -55 1 -5 -17 -9 -19 -24 -10 -33 20 -61 47 -66 67 -4 17 -5
17 -6 1z"/>
<path d="M5592 13605 c11 -11 60 -16 53 -5 -3 5 -18 10 -32 10 -15 0 -24 -2
-21 -5z"/>
<path d="M8970 13116 c0 -2 8 -10 18 -17 15 -13 16 -12 3 4 -13 16 -21 21 -21
13z"/>
<path d="M8995 13069 c-4 -5 0 -18 9 -28 28 -31 13 -71 -26 -71 -10 0 -18 -4
-18 -10 0 -5 -13 -16 -30 -25 -16 -9 -30 -23 -30 -31 0 -14 -3 -14 -16 -3 -15
13 -26 6 -37 -24 -4 -13 -90 24 -108 46 -17 20 -17 20 -28 -1 -6 -12 -21 -22
-32 -22 -12 0 -30 -11 -41 -25 -11 -14 -26 -25 -34 -25 -8 0 -25 -7 -38 -15
-21 -14 -25 -14 -36 0 -11 13 -27 15 -90 10 -74 -6 -78 -5 -93 18 -18 28 -57
43 -57 22 0 -8 5 -17 10 -20 7 -4 7 -12 0 -25 -14 -26 -13 -28 19 -35 32 -7
43 -34 46 -110 3 -70 4 -73 35 -80 37 -8 55 -37 40 -64 -14 -28 -13 -49 11
-127 23 -75 43 -102 103 -143 21 -14 44 -30 51 -35 22 -16 72 15 90 57 19 42
48 48 53 9 3 -18 10 -22 37 -22 18 0 40 -3 48 -6 9 -3 16 3 20 16 4 17 11 20
26 15 16 -5 21 -2 21 10 0 11 5 15 14 12 18 -7 27 48 16 97 -7 32 -6 36 12 36
32 0 58 19 58 43 0 12 9 28 21 35 13 9 18 19 14 32 -3 10 -2 21 4 24 5 3 7 15
4 26 -3 12 1 28 9 38 11 12 15 39 14 99 -1 45 -5 85 -9 89 -14 15 -7 54 13 64
15 8 20 21 20 48 0 49 -20 76 -56 77 -22 0 -28 4 -26 18 3 19 -3 23 -13 6z"/>
<path d="M8170 12961 c6 -12 20 -21 32 -21 12 0 19 1 17 3 -2 2 -17 11 -32 21
-28 17 -28 17 -17 -3z"/>
<path d="M7660 12966 c0 -13 34 -36 53 -36 22 0 21 1 -3 20 -23 18 -50 26 -50
16z"/>
<path d="M7757 12964 c-10 -10 16 -42 30 -37 20 8 16 43 -5 43 -10 0 -21 -3
-25 -6z"/>
<path d="M7910 12941 c0 -6 4 -13 10 -16 6 -3 7 1 4 9 -7 18 -14 21 -14 7z"/>
<path d="M7750 12912 c6 -13 14 -21 18 -18 3 4 -2 14 -12 24 -18 16 -18 16 -6
-6z"/>
<path d="M7914 12891 c3 -5 -1 -12 -10 -15 -8 -3 -13 -10 -9 -16 3 -5 1 -19
-5 -31 -10 -17 -8 -23 7 -34 15 -11 16 -14 3 -19 -10 -4 -16 -23 -18 -53 -2
-26 0 -44 4 -40 4 4 13 2 21 -4 10 -9 13 -6 13 14 0 14 5 29 10 32 6 3 10 14
10 23 0 18 41 62 57 62 5 0 16 9 26 20 15 18 15 21 2 26 -8 4 -15 15 -15 25 0
17 -3 18 -20 9 -14 -7 -26 -8 -39 0 -24 12 -44 13 -37 1z m59 -66 c-3 -9 -8
-14 -10 -11 -3 3 -2 9 2 15 9 16 15 13 8 -4z"/>
<path d="M7790 12870 c-12 -8 -12 -10 2 -15 9 -4 20 -21 24 -38 3 -18 12 -40
19 -50 12 -17 13 -17 17 1 3 11 1 27 -4 37 -7 12 -7 20 1 24 7 5 4 14 -9 29
-23 24 -28 26 -50 12z"/>
<path d="M7836 12724 c-6 -16 2 -18 22 -5 11 7 11 9 -1 14 -9 3 -18 -1 -21 -9z"/>
<path d="M7960 12673 c0 -6 -12 -13 -27 -15 -24 -2 -28 -7 -26 -31 2 -24 0
-26 -18 -17 -10 6 -19 7 -19 3 0 -4 -5 0 -11 9 -9 16 -12 16 -33 3 -12 -8 -26
-12 -29 -8 -4 3 -7 1 -7 -5 0 -8 -13 -7 -45 2 -25 8 -42 10 -39 5 3 -5 -2 -9
-10 -9 -10 0 -13 -6 -10 -15 4 -8 2 -15 -3 -15 -8 0 -10 -53 -5 -98 3 -21 45
-31 67 -16 26 19 32 18 40 -6 3 -11 17 -23 31 -26 13 -3 24 -12 24 -19 0 -7
11 -16 25 -19 16 -4 26 -14 27 -29 1 -12 3 -31 4 -42 1 -11 3 -27 3 -35 1 -13
3 -13 10 -1 7 11 13 12 23 3 8 -6 23 -9 34 -6 21 6 47 51 37 67 -3 5 1 13 8
18 11 7 11 9 1 9 -7 0 -15 -6 -18 -14 -3 -8 -14 -16 -25 -19 -15 -4 -19 0 -19
23 0 19 6 29 20 33 13 3 18 11 14 21 -6 15 22 28 70 30 14 1 27 14 40 39 17
36 17 40 2 55 -10 11 -16 12 -16 4 0 -16 -25 -15 -42 1 -7 8 -23 19 -36 26
-16 8 -22 21 -22 44 0 29 -19 78 -20 50z"/>
<path d="M8231 12623 c-14 -13 -34 -22 -44 -21 -11 2 -23 -4 -27 -12 -4 -8
-15 -30 -24 -48 -10 -17 -14 -37 -11 -42 4 -6 2 -17 -4 -23 -20 -25 -7 -85 27
-120 22 -23 32 -42 32 -65 0 -18 5 -32 10 -32 6 0 10 -6 10 -14 0 -16 63 -49
68 -35 2 5 12 -1 21 -13 13 -15 28 -21 55 -20 20 1 34 -3 31 -8 -3 -5 4 -11
15 -14 11 -3 29 -9 40 -12 14 -4 20 -1 20 10 0 11 10 16 33 16 19 0 37 3 40 6
4 4 -14 29 -40 55 -32 33 -55 48 -72 48 -50 0 -72 8 -98 34 -22 22 -24 28 -13
41 9 12 10 23 2 43 -18 47 -19 68 -2 78 14 9 14 17 3 70 -8 33 -22 69 -31 81
l-17 20 -24 -23z m53 -358 c20 -30 20 -30 -3 -32 -10 -1 -22 6 -25 15 -3 9 -9
23 -12 30 -11 23 24 12 40 -13z"/>
<path d="M6520 12521 c0 -5 5 -13 11 -16 7 -5 3 -14 -10 -26 -19 -18 -20 -22
-6 -43 8 -13 34 -29 58 -36 23 -8 69 -33 101 -57 33 -24 65 -43 71 -43 13 0
59 -47 72 -75 6 -11 13 -35 17 -54 3 -19 14 -43 23 -53 9 -10 21 -28 28 -41 6
-12 19 -21 30 -20 11 1 23 -4 28 -10 7 -9 10 -9 13 0 4 9 11 9 31 0 21 -9 27
-9 31 1 5 16 42 -3 42 -22 0 -21 24 -36 48 -29 12 3 20 9 17 13 -3 5 -1 11 5
15 15 9 12 25 -5 25 -17 0 -19 18 -6 39 9 14 -17 71 -31 71 -5 0 -8 12 -8 27
0 20 -16 41 -62 85 -35 32 -68 58 -75 58 -17 0 -37 40 -26 51 11 11 -10 103
-28 126 -11 12 -14 12 -21 -1 -5 -9 -15 -16 -23 -16 -8 0 -19 -9 -25 -20 -7
-13 -21 -20 -38 -20 -16 0 -32 -4 -37 -9 -6 -5 -24 -12 -42 -16 -27 -5 -36 -1
-66 29 -37 37 -117 83 -117 67z"/>
<path d="M7776 12405 c4 -8 8 -15 10 -15 2 0 4 7 4 15 0 8 -4 15 -10 15 -5 0
-7 -7 -4 -15z"/>
<path d="M7480 12381 c0 -6 -20 -19 -45 -30 -25 -11 -52 -26 -60 -33 -44 -40
-65 -49 -65 -29 0 21 -51 21 -90 -1 -47 -27 -49 -35 -14 -48 21 -8 25 -15 20
-33 -3 -12 -6 -26 -6 -31 0 -4 -11 -6 -24 -4 -18 4 -26 0 -30 -16 -7 -26 12
-48 35 -41 9 3 20 2 22 -3 10 -14 -10 -35 -27 -29 -14 6 -15 3 -6 -13 6 -11 8
-25 5 -30 -4 -6 2 -13 12 -17 10 -4 21 -11 25 -17 5 -8 8 -7 8 1 0 7 7 10 17
6 10 -4 14 -2 10 4 -4 6 0 13 8 17 16 6 22 -28 7 -38 -11 -7 -9 -47 3 -66 9
-15 15 -34 17 -57 2 -19 48 -60 48 -42 0 8 -7 23 -15 33 -8 10 -12 23 -9 28 3
5 -1 20 -10 33 -27 41 -21 62 18 63 19 1 38 2 42 3 28 6 84 -36 84 -63 0 -10
7 -18 15 -18 40 0 -14 89 -72 119 -13 7 -23 19 -23 28 0 15 2 15 18 0 23 -21
32 -21 32 -2 0 9 9 15 22 15 17 0 13 5 -17 20 -44 22 -59 25 -50 9 4 -6 -2
-19 -13 -30 -19 -17 -23 -17 -56 -4 -19 8 -44 15 -55 15 -13 0 -19 7 -18 23 1
12 -3 33 -7 47 l-8 25 21 -22 c12 -13 29 -23 39 -24 37 -2 67 4 86 17 27 18
46 18 46 -1 0 -20 14 -19 35 1 20 21 25 15 32 -34 4 -33 2 -41 -14 -46 -24 -8
-25 -31 -2 -52 17 -15 20 -14 41 8 19 20 40 27 51 18 1 -1 11 -3 22 -4 11 -2
30 -6 43 -10 14 -5 22 -3 22 4 0 6 11 15 25 20 14 5 25 17 25 26 0 13 7 15 36
9 31 -5 36 -4 30 9 -3 9 -9 23 -12 31 -9 22 13 18 37 -6 15 -15 19 -28 15 -47
-4 -15 -7 -33 -8 -39 -1 -7 -8 -13 -16 -13 -12 0 -12 -4 3 -20 26 -29 47 -26
44 8 -1 15 1 57 6 94 6 55 4 73 -9 93 -9 14 -12 25 -6 25 5 0 10 9 10 20 0 22
10 26 27 9 7 -7 12 0 17 26 10 51 0 73 -41 90 -41 18 -46 18 -38 6 8 -14 -9
-21 -25 -11 -10 6 -21 4 -32 -7 -14 -13 -20 -13 -33 -3 -8 7 -12 16 -9 21 3 5
0 9 -5 9 -6 0 -11 -5 -11 -11 0 -5 -4 -7 -10 -4 -13 8 -13 -11 1 -36 9 -18 7
-20 -17 -17 -15 2 -38 13 -50 26 -13 12 -33 22 -44 22 -12 0 -34 7 -50 15 -17
9 -30 11 -30 6z"/>
<path d="M7146 12245 c11 -46 26 -67 19 -25 -3 19 -10 39 -16 45 -7 7 -8 1 -3
-20z"/>
<path d="M8653 12224 c-8 -20 8 -35 41 -38 l27 -3 -27 28 c-32 34 -33 34 -41
13z"/>
<path d="M8631 12204 c0 -11 3 -14 6 -6 3 7 2 16 -1 19 -3 4 -6 -2 -5 -13z"/>
<path d="M8552 12174 c14 -14 21 -15 30 -6 8 8 9 12 1 12 -6 0 -20 3 -30 6
-17 7 -17 6 -1 -12z"/>
<path d="M8215 12160 c3 -5 3 -10 -2 -10 -4 0 -15 -13 -25 -29 -12 -22 -21
-28 -37 -24 -12 3 -27 1 -34 -5 -8 -7 -26 -8 -52 -2 -22 5 -47 7 -57 4 -9 -3
-19 0 -23 6 -3 5 -17 10 -31 10 -13 0 -24 5 -24 10 0 6 -14 -5 -31 -25 l-32
-36 22 -20 c21 -20 21 -59 0 -67 -5 -2 -6 -8 -3 -14 4 -6 -2 -6 -14 1 -28 15
-32 14 -25 -5 4 -11 1 -15 -13 -13 -10 2 -30 -4 -44 -14 -13 -9 -30 -17 -37
-17 -8 0 -13 -12 -13 -30 0 -25 -4 -30 -25 -30 -18 0 -25 -5 -25 -19 0 -11 -4
-21 -10 -23 -5 -1 -12 -27 -15 -56 -3 -30 -8 -59 -12 -65 -24 -39 2 -76 55
-77 18 0 47 -7 63 -16 28 -14 30 -19 25 -49 -7 -38 15 -85 40 -85 8 0 13 -3
13 -7 -4 -23 3 -35 16 -29 10 3 19 -1 23 -12 10 -24 33 -26 39 -2 5 20 5 20
30 0 14 -11 37 -20 51 -20 26 0 116 -86 106 -101 -3 -5 3 -20 12 -34 18 -27
54 -34 54 -10 0 21 6 19 46 -11 29 -23 35 -24 40 -10 9 22 21 20 49 -9 20 -19
38 -25 88 -28 73 -5 98 -16 139 -63 20 -23 39 -34 57 -34 21 0 34 -11 61 -51
19 -28 39 -59 44 -68 5 -9 33 -27 62 -41 80 -36 150 -120 123 -147 -6 -6 3
-18 22 -32 21 -16 27 -26 21 -34 -14 -17 22 -108 58 -146 17 -18 40 -31 54
-31 13 0 29 -7 36 -15 7 -8 18 -15 25 -15 6 0 20 -9 30 -20 14 -15 26 -19 45
-15 19 4 31 0 45 -15 10 -11 26 -20 37 -20 11 0 18 -7 18 -19 0 -11 5 -23 10
-26 16 -10 12 -48 -4 -42 -22 9 -26 -38 -4 -52 11 -7 18 -7 18 -1 0 5 7 10 15
10 11 0 14 -7 9 -25 -3 -14 -3 -37 0 -51 7 -25 8 -26 26 -9 23 20 26 45 8 63
-9 9 -9 12 2 12 10 0 10 4 -2 18 -9 9 -18 29 -20 45 -4 22 -1 27 14 27 11 0
16 5 13 10 -3 6 2 10 12 10 10 0 28 3 41 6 19 5 22 2 22 -19 0 -14 4 -28 9
-32 5 -3 15 -31 21 -63 6 -31 15 -74 21 -95 7 -28 7 -42 -1 -52 -8 -10 -8 -15
0 -20 8 -5 8 -11 0 -20 -13 -15 13 -41 31 -29 9 5 10 -9 5 -60 -6 -60 -4 -74
19 -121 14 -30 25 -59 25 -64 0 -15 26 -14 59 3 44 23 68 10 97 -53 14 -31 33
-70 41 -88 14 -29 14 -35 0 -57 -14 -20 -14 -25 -2 -30 8 -3 17 3 20 14 6 19
19 25 70 32 14 2 21 12 23 36 2 20 9 32 18 32 14 0 14 -10 -2 -70 -5 -22 8
-36 33 -36 21 0 22 4 16 39 -6 37 -5 39 15 28 11 -6 24 -16 27 -22 4 -6 16 -1
30 13 51 51 61 55 93 39 66 -34 70 -34 96 -17 31 20 36 20 36 0 0 -8 4 -13 8
-10 14 9 50 -23 54 -47 3 -20 8 -22 51 -19 42 3 49 1 54 -17 3 -11 14 -23 24
-26 10 -4 19 -11 19 -16 0 -5 7 -9 15 -9 8 0 15 8 15 18 0 12 10 5 34 -23 20
-24 43 -40 57 -40 13 -1 34 -7 47 -14 19 -10 22 -9 22 4 0 10 7 16 18 14 39
-4 44 0 37 30 -4 19 -1 34 9 44 9 9 13 23 9 33 -6 15 -5 15 20 0 21 -15 29
-15 46 -4 12 7 21 19 21 26 0 9 7 11 20 7 15 -5 18 -3 14 9 -5 12 0 16 18 16
25 0 45 31 63 97 5 19 10 20 38 12 39 -11 97 -1 104 18 3 8 -2 22 -11 31 -12
13 -16 13 -16 2 0 -9 -7 -7 -23 8 -13 12 -28 22 -34 22 -6 0 -31 12 -57 26
-37 21 -49 24 -61 14 -12 -10 -22 -5 -52 27 -35 36 -38 44 -35 84 3 39 0 46
-27 67 -17 12 -31 31 -31 40 0 10 -16 33 -35 52 -26 25 -35 42 -35 67 0 24 -4
33 -17 33 -14 0 -14 3 4 23 21 22 22 70 2 83 -5 3 -9 16 -9 29 0 27 -35 44
-53 26 -8 -8 -16 -6 -29 6 -14 12 -21 13 -32 4 -11 -9 -15 -9 -18 1 -4 11 -8
11 -20 0 -9 -7 -23 -10 -32 -6 -11 4 -16 1 -16 -10 0 -9 -8 -16 -20 -16 -11 0
-20 -5 -20 -11 0 -5 -4 -7 -10 -4 -16 10 -11 -18 9 -49 22 -33 18 -56 -11 -56
-10 0 -17 3 -15 8 3 4 -27 7 -66 8 -56 1 -73 5 -84 20 -7 10 -11 24 -9 30 3 7
-2 15 -11 18 -11 4 -12 10 -5 19 5 6 13 30 16 52 6 37 4 42 -23 63 -21 15 -28
27 -24 39 5 13 2 15 -11 10 -10 -4 -23 -7 -31 -7 -7 0 -15 -9 -18 -20 -4 -15
-14 -20 -36 -20 -21 0 -31 -5 -31 -16 0 -8 -5 -12 -10 -9 -6 3 -13 -1 -16 -9
-10 -26 -32 -18 -36 12 -3 26 -4 27 -65 26 -40 -1 -63 3 -63 10 -1 18 -37 56
-53 56 -8 0 -34 9 -58 19 -42 19 -42 19 -70 -1 -24 -18 -32 -19 -60 -9 -18 6
-40 18 -50 27 -20 18 -119 29 -119 13 0 -6 -7 -8 -16 -5 -8 3 -27 3 -40 0 -21
-5 -25 -12 -22 -38 2 -25 -1 -30 -15 -28 -24 4 -21 -15 4 -28 16 -9 18 -14 9
-26 -7 -7 -9 -22 -6 -31 4 -10 -11 0 -34 22 -22 22 -38 45 -36 52 3 8 -3 13
-15 13 -13 0 -19 6 -17 17 2 11 -5 19 -17 21 -11 3 -25 12 -31 20 -10 13 -8
19 6 29 15 11 16 19 9 50 -11 49 -11 55 1 48 16 -10 -1 57 -21 87 -11 14 -19
30 -19 36 0 19 -43 63 -81 82 -29 16 -39 26 -39 45 0 15 -12 36 -30 52 -35 31
-50 36 -103 34 -42 -2 -97 32 -97 60 0 9 -16 24 -37 34 -45 21 -83 61 -83 87
0 11 -4 17 -9 14 -22 -14 -47 51 -27 71 3 3 1 14 -5 25 -5 10 -6 24 -2 31 4 6
8 25 9 41 1 16 8 32 15 37 18 11 30 11 26 0 -3 -13 17 -15 21 -2 2 6 -9 16
-24 21 -21 8 -24 14 -16 22 7 7 12 19 12 28 -1 13 -2 13 -13 0 -12 -15 -37
-25 -37 -14 0 17 34 35 69 37 23 1 41 7 41 13 0 7 8 15 18 19 13 6 8 10 -22
17 -32 7 -42 5 -48 -7 -5 -8 -17 -15 -28 -15 -10 0 -20 -5 -22 -11 -6 -18 -36
1 -57 37 -11 19 -25 34 -30 34 -10 0 -9 8 5 48 4 9 7 31 8 47 0 17 9 37 18 46
10 9 18 24 18 33 0 10 5 26 10 37 10 17 7 19 -29 19 -25 0 -41 5 -45 15 -3 8
-16 14 -28 13 -13 -1 -42 2 -65 6 -31 6 -43 4 -43 -4 0 -8 -4 -9 -12 -3 -20
15 -97 35 -108 28 -17 -10 -51 15 -65 48 -13 30 -12 32 9 37 22 5 22 6 9 68
-8 34 -19 62 -24 62 -6 0 -7 -4 -4 -10z m-299 -366 c-5 -36 -22 -66 -46 -81
-13 -9 -18 -6 -27 18 -10 25 -8 30 14 44 18 12 22 20 14 29 -6 6 -13 32 -16
56 l-6 45 35 -40 c28 -31 35 -47 32 -71z m1942 -1717 c2 -12 -3 -17 -17 -17
-15 0 -21 6 -21 21 0 25 33 22 38 -4z m213 2 c11 -11 18 -26 16 -33 -3 -7 1
-23 8 -36 10 -19 11 -28 2 -40 -10 -13 -10 -13 6 -1 9 7 18 12 18 10 1 -2 3
-16 5 -31 3 -33 -15 -37 -41 -8 -10 11 -25 20 -34 21 -24 0 -61 52 -54 77 3
14 10 19 21 15 10 -4 13 -2 8 5 -4 7 -2 12 3 12 6 0 10 3 10 8 -5 27 5 28 32
1z"/>
<path d="M8683 12158 c-40 -13 -40 -18 -5 -42 15 -11 22 -13 15 -6 -10 11 -8
16 9 24 21 11 37 37 21 35 -4 -1 -23 -6 -40 -11z"/>
<path d="M8687 12059 c4 -16 8 -17 14 -7 13 19 11 28 -5 28 -9 0 -12 -7 -9
-21z"/>
<path d="M8653 12010 c-24 -10 -30 -45 -14 -85 7 -18 8 -17 14 7 5 19 12 25
25 21 16 -4 18 1 18 31 -1 38 -6 41 -43 26z"/>
<path d="M8880 11800 c0 -5 7 -10 16 -10 8 0 12 5 9 10 -3 6 -10 10 -16 10 -5
0 -9 -4 -9 -10z"/>
<path d="M8894 11738 c4 -13 -2 -20 -22 -25 -32 -8 -52 -26 -52 -46 0 -19 15
-24 52 -19 23 4 28 9 28 32 0 16 5 30 10 32 6 2 4 11 -5 23 -14 16 -16 17 -11
3z"/>
<path d="M9267 10733 c-9 -2 -15 -9 -12 -14 9 -14 32 -11 39 6 6 15 4 16 -27
8z"/>
<path d="M9240 10690 c-9 -6 -10 -10 -3 -10 6 0 15 5 18 10 8 12 4 12 -15 0z"/>
<path d="M9225 10653 c2 -10 4 -22 4 -27 1 -6 5 -6 11 0 11 11 3 44 -10 44 -5
0 -7 -8 -5 -17z"/>
<path d="M10118 10623 c7 -3 16 -2 19 1 4 3 -2 6 -13 5 -11 0 -14 -3 -6 -6z"/>
<path d="M9376 10360 c-16 -33 -12 -36 31 -17 19 8 27 18 25 30 -6 28 -39 20
-56 -13z"/>
<path d="M12880 10323 c0 -4 5 -15 10 -23 8 -13 10 -13 10 2 0 9 -4 20 -10 23
-5 3 -10 3 -10 -2z"/>
<path d="M12931 10272 c1 -9 0 -19 -1 -22 -1 -3 -3 -26 -4 -52 -1 -35 -7 -51
-25 -67 -13 -12 -30 -21 -37 -21 -7 0 -14 -4 -16 -9 -8 -20 -45 -21 -69 -1
-13 12 -32 19 -42 16 -10 -2 -23 3 -29 14 -11 17 -14 12 -30 -38 -10 -31 -15
-65 -12 -74 3 -10 0 -18 -5 -18 -6 0 -19 -16 -28 -35 -15 -31 -21 -35 -54 -35
-38 0 -38 0 -27 -30 7 -23 7 -34 -2 -45 -7 -8 -9 -15 -4 -15 5 0 -4 -7 -20
-15 -16 -9 -36 -13 -43 -11 -7 3 -18 -5 -24 -17 -7 -12 -23 -33 -36 -46 -18
-19 -21 -27 -12 -38 15 -18 -16 -90 -42 -98 -14 -5 -18 -12 -13 -31 12 -48 10
-59 -13 -59 -19 0 -27 -6 -22 -17 1 -2 2 -19 3 -38 1 -20 5 -40 8 -45 3 -6 1
-41 -4 -79 -8 -51 -7 -82 2 -121 7 -30 10 -60 7 -69 -3 -8 -2 -18 3 -21 6 -4
10 -17 10 -29 0 -13 7 -37 15 -52 19 -37 19 -53 -1 -61 -16 -6 -16 -7 0 -18
14 -11 14 -14 1 -25 -8 -7 -21 -10 -29 -7 -7 3 -18 1 -24 -5 -8 -8 -13 -3 -18
16 -7 30 -12 32 -29 10 -10 -15 -14 -15 -44 1 -42 21 -65 13 -57 -20 6 -25 -7
-34 -20 -14 -8 14 -33 -26 -34 -53 0 -22 -3 -22 -70 2 -57 21 -95 26 -86 12 3
-5 0 -27 -6 -50 -7 -28 -16 -42 -27 -42 -9 0 -21 -4 -26 -9 -14 -12 -105 -21
-105 -9 0 5 7 11 15 14 8 4 13 10 10 14 -6 10 -56 7 -73 -3 -7 -5 -22 -8 -35
-7 -42 4 -57 0 -57 -15 0 -11 -11 -15 -40 -15 -38 0 -52 12 -30 25 16 10 12
23 -10 30 -30 10 -79 88 -68 109 6 11 5 31 -5 59 -12 36 -18 42 -44 45 -17 2
-39 12 -49 23 -9 10 -27 19 -39 19 -41 0 -72 59 -45 86 14 14 3 41 -20 47 -19
5 -41 61 -32 85 2 7 12 10 22 7 11 -3 20 1 24 11 8 20 -40 68 -60 60 -7 -3
-15 0 -17 7 -3 7 -8 -3 -12 -20 -6 -28 -11 -32 -31 -27 -14 4 -24 2 -24 -4 0
-17 -59 -25 -160 -23 -107 2 -130 6 -130 26 0 8 -15 17 -35 21 -19 3 -35 9
-35 13 0 4 -8 7 -17 8 -86 4 -138 22 -148 52 -6 21 -36 33 -54 21 -7 -3 -13
-22 -15 -42 -2 -19 -6 -40 -10 -46 -4 -6 -1 -20 6 -31 10 -17 9 -23 -6 -40
-18 -20 -18 -21 5 -41 15 -12 32 -18 44 -14 11 3 33 7 50 7 19 1 30 8 31 17 1
8 2 27 2 41 2 20 9 29 27 33 14 4 25 13 25 21 0 17 26 20 35 5 3 -5 14 -10 24
-10 31 0 37 -63 10 -95 -13 -14 -29 -25 -37 -25 -10 0 -13 -8 -10 -25 6 -28 1
-30 -37 -15 -19 7 -46 7 -89 -1 -33 -6 -71 -13 -83 -15 -16 -3 -20 -9 -16 -24
5 -19 3 -20 -20 -9 -17 8 -28 23 -32 43 -4 17 -12 46 -18 64 -9 25 -8 37 1 52
14 24 16 50 2 50 -5 0 -7 -7 -4 -15 4 -8 -1 -17 -9 -21 -9 -3 -13 -12 -10 -20
7 -19 -26 -18 -55 2 -12 8 -31 13 -42 9 -10 -3 -28 -1 -40 5 -24 13 -26 3 -4
-28 9 -13 22 -21 29 -18 20 7 60 -42 57 -69 -2 -16 8 -37 32 -63 20 -21 33
-42 29 -46 -3 -3 3 -6 14 -6 11 0 28 -9 38 -20 l18 -20 14 20 c14 19 53 28 53
12 0 -4 -7 -18 -16 -30 -8 -12 -15 -32 -14 -45 6 -64 1 -77 -27 -77 l-26 0 23
-25 c13 -14 20 -25 16 -25 -5 0 -1 -12 9 -26 13 -20 14 -28 5 -34 -9 -5 -9
-13 -2 -27 6 -11 8 -30 5 -43 -4 -15 -2 -21 5 -17 16 10 20 -14 8 -51 -7 -25
-7 -35 2 -41 7 -4 11 -18 10 -32 -2 -35 22 -131 39 -150 19 -23 30 -128 14
-138 -9 -6 -9 -14 0 -34 7 -15 16 -27 20 -27 13 0 39 -56 39 -83 0 -12 -5 -28
-12 -35 -9 -9 -3 -15 25 -27 20 -8 37 -19 37 -24 0 -15 30 -21 71 -15 23 4 39
12 39 20 0 8 7 14 15 14 7 0 18 8 24 17 9 17 12 16 40 -5 27 -20 93 -38 169
-47 13 -1 36 -12 51 -23 20 -15 32 -17 39 -10 7 7 20 7 41 0 24 -9 29 -8 25 3
-7 17 41 49 61 41 8 -3 15 -15 15 -26 0 -11 4 -20 8 -20 13 0 42 -57 42 -83 0
-31 22 -55 58 -63 28 -7 72 -45 72 -64 0 -13 -22 -53 -35 -62 -5 -4 -6 -10 -2
-14 4 -5 -2 -13 -14 -19 -20 -11 -20 -12 -3 -29 13 -14 15 -22 7 -34 -8 -13
-1 -23 31 -50 23 -19 48 -45 56 -58 19 -31 34 -30 47 4 9 25 11 26 18 7 20
-49 46 -46 84 11 36 52 36 54 15 54 -9 0 -24 10 -34 22 -15 19 -20 20 -34 9
-14 -12 -16 -11 -16 8 0 11 6 21 13 21 15 0 39 49 30 63 -3 5 0 13 7 17 10 6
9 15 -4 40 -20 41 -20 40 4 40 11 0 23 7 26 15 4 8 12 15 19 15 7 0 15 6 18
14 7 17 63 26 100 15 21 -6 29 -4 34 7 4 11 14 13 33 9 23 -5 28 -3 26 12 -1
15 7 18 49 19 37 2 53 7 67 24 9 12 22 19 28 15 5 -3 10 0 10 7 0 7 9 19 20
26 11 7 20 23 20 37 0 15 6 25 15 25 18 0 35 31 35 62 0 13 7 33 15 44 8 10
15 27 15 36 0 23 20 28 50 12 14 -7 34 -16 45 -19 13 -5 16 -9 7 -12 -10 -4
-10 -8 -1 -19 12 -15 19 -114 7 -114 -5 0 -8 -7 -8 -15 0 -8 -5 -24 -12 -34
-9 -15 -7 -27 15 -63 14 -25 33 -50 41 -58 9 -7 16 -23 16 -37 0 -16 10 -29
30 -41 33 -19 41 -39 26 -64 -7 -12 -7 -27 1 -47 6 -16 8 -42 4 -58 -8 -39
-37 -77 -51 -68 -16 10 -78 -52 -85 -86 -4 -15 -15 -31 -26 -34 -27 -9 -24
-23 6 -31 14 -3 25 -10 25 -16 0 -5 -4 -7 -9 -3 -5 3 -13 0 -16 -5 -4 -6 -18
-15 -31 -20 -49 -19 -13 -59 56 -63 24 -2 88 -62 82 -79 -3 -10 3 -10 57 3 35
8 48 7 67 -5 17 -12 24 -13 27 -3 3 7 6 6 6 -4 1 -17 31 -36 31 -19 0 5 8 7
18 3 14 -5 13 -3 -3 10 -20 16 -19 16 7 17 33 0 68 41 61 71 -6 20 -5 21 18 6
14 -9 35 -13 51 -10 24 5 26 8 17 30 l-9 25 32 -20 c47 -28 108 -35 129 -16
10 9 33 16 52 16 27 0 37 6 51 29 9 16 24 29 31 29 11 0 13 8 8 30 -5 25 -3
29 11 24 9 -3 16 -1 16 5 0 6 7 11 15 11 14 0 19 11 16 37 -1 7 5 10 13 7 9
-3 29 4 47 16 25 19 33 20 40 9 5 -8 9 -20 9 -27 0 -10 5 -10 21 -2 11 7 40 9
62 6 23 -3 45 -5 50 -5 4 -1 7 -7 7 -15 0 -7 6 -19 14 -25 8 -7 18 -26 21 -42
4 -17 13 -29 22 -29 10 0 13 6 9 16 -5 12 1 11 28 -5 34 -22 106 -29 106 -11
0 6 5 10 10 10 6 0 21 12 34 26 19 23 25 25 43 15 29 -15 64 -13 87 4 27 21
48 19 75 -6 14 -13 30 -19 43 -16 12 4 30 2 40 -4 14 -7 18 -6 18 6 0 11 11
15 39 15 43 0 75 23 68 49 -3 9 -6 23 -8 31 -2 8 -12 18 -23 23 -11 4 -16 13
-12 22 3 8 9 21 12 29 8 19 -22 45 -46 39 -12 -3 -22 1 -26 11 -3 9 -12 16
-19 16 -8 0 -20 6 -27 13 -20 20 -40 25 -66 16 -22 -8 -59 3 -72 21 -3 4 -35
10 -72 13 -59 5 -68 4 -68 -10 0 -14 -2 -14 -20 2 -19 17 -20 17 -40 -8 -13
-16 -27 -24 -36 -20 -8 3 -13 8 -10 11 3 2 -5 18 -19 34 -13 16 -22 35 -19 43
4 10 0 15 -14 15 -12 0 -24 5 -27 10 -4 6 -12 4 -21 -5 -9 -8 -13 -19 -9 -25
3 -5 -3 -15 -15 -22 -11 -7 -20 -21 -20 -30 0 -22 -8 -23 -30 -3 -13 12 -23
13 -43 6 -14 -6 -42 -7 -61 -4 -21 3 -36 2 -36 -4 0 -14 -56 -37 -69 -29 -6 4
-8 13 -5 20 3 8 1 17 -5 21 -6 3 -11 1 -11 -5 0 -6 -4 -8 -10 -5 -5 3 -10 16
-10 29 0 25 -62 66 -99 66 -11 0 -21 6 -21 13 0 9 -2 9 -8 -1 -12 -19 -44 20
-41 50 2 13 0 29 -4 36 -5 7 -2 18 5 26 15 14 17 75 4 114 -6 17 -3 27 10 36
18 14 54 10 54 -5 0 -5 7 -6 15 -2 15 5 13 16 -3 19 -47 10 -71 34 -33 34 26
0 37 19 36 60 0 26 -5 34 -16 32 -9 -1 -29 10 -45 25 -34 32 -47 35 -70 19
-14 -11 -14 -14 -2 -27 19 -20 48 -67 48 -77 0 -6 -8 -12 -18 -14 -25 -7 -54
-68 -41 -85 14 -16 5 -28 -30 -46 -18 -9 -34 -11 -44 -6 -12 7 -16 0 -22 -41
-7 -53 -17 -60 -47 -33 -14 12 -18 13 -18 2 0 -31 -32 20 -37 60 -6 46 -12 50
-38 21 -10 -11 -24 -20 -32 -20 -7 0 -16 -7 -19 -15 -5 -11 -19 -14 -55 -13
-27 1 -49 5 -49 9 0 3 7 20 16 37 14 29 14 34 0 54 -20 29 -20 35 3 41 28 7
34 57 9 84 l-20 21 22 7 c14 5 20 13 18 28 -2 18 3 23 25 25 16 2 31 10 34 18
8 21 38 17 71 -11 18 -15 42 -25 61 -25 25 0 31 -4 31 -21 0 -18 4 -20 28 -15
38 9 44 9 66 1 16 -7 18 -5 14 13 -4 12 -2 24 2 27 4 3 6 15 3 28 -4 17 -2 19
5 8 16 -22 39 2 44 45 3 29 -1 39 -20 55 -14 10 -31 19 -39 19 -11 0 -12 8 -7
35 3 19 2 36 -2 36 -5 1 -22 3 -38 5 -31 3 -79 41 -70 56 3 5 0 7 -7 6 -6 -2
-14 3 -16 10 -3 7 5 12 21 12 30 0 57 24 77 68 15 36 26 39 55 17 10 -8 29
-15 42 -15 18 0 22 5 22 30 0 17 5 30 10 30 15 0 53 -23 67 -40 7 -8 13 -11
13 -7 0 4 8 3 18 -2 16 -9 18 -5 18 45 -1 30 4 58 10 62 6 4 16 17 23 30 11
20 9 26 -13 43 -27 21 -35 44 -13 36 14 -4 57 66 57 94 0 29 61 89 90 89 16 0
47 20 89 57 59 53 62 58 41 63 -17 4 -28 19 -42 60 -10 30 -16 61 -13 68 8 23
-27 27 -44 5 -9 -11 -27 -26 -40 -32 -19 -11 -22 -18 -16 -50 5 -33 3 -39 -20
-51 -20 -11 -31 -11 -44 -3 -13 8 -22 8 -29 1 -8 -8 -22 -6 -48 7 l-36 17 -26
-27 c-23 -25 -30 -27 -88 -23 -70 4 -83 11 -65 32 9 10 9 16 1 21 -26 16 -29
52 -9 93 16 32 18 45 10 61 -13 24 -14 51 -2 51 14 0 61 -53 61 -68 0 -15 54
-22 62 -9 4 7 12 13 18 13 5 1 15 2 20 3 6 0 10 8 10 16 0 8 7 15 16 15 8 0
12 5 9 10 -3 6 -19 10 -36 10 -21 0 -29 5 -29 18 0 10 -6 24 -12 31 -11 10 -9
15 6 26 26 20 14 82 -18 95 -23 9 -54 70 -35 70 5 0 9 5 9 10 0 6 -3 9 -7 9
-22 -4 -33 3 -33 20 0 11 -14 33 -31 50 -17 17 -28 31 -25 31 4 0 -3 19 -15
41 l-21 42 30 -6 c29 -6 49 5 51 28 0 6 6 17 13 25 7 8 12 24 10 36 -2 14 8
29 31 47 20 15 37 38 40 55 4 21 15 33 36 40 20 7 33 20 37 36 5 20 13 26 33
26 19 1 32 11 48 36 24 37 21 64 -7 64 -10 0 -20 5 -22 11 -2 7 -12 7 -29 0
-19 -7 -34 -6 -53 4 -25 13 -27 13 -25 -3z m-511 -1332 c-15 -9 -30 -4 -30 10
0 5 7 6 17 3 12 -5 14 -3 8 8 -7 12 -5 12 6 1 12 -11 12 -14 -1 -22z m470
-780 c0 -5 -2 -10 -4 -10 -3 0 -8 5 -11 10 -3 6 -1 10 4 10 6 0 11 -4 11 -10z
m-260 -184 c0 -2 -6 -9 -14 -15 -11 -9 -16 -9 -22 0 -4 7 -3 9 4 5 6 -3 13 -2
17 4 6 10 15 14 15 6z m235 -95 c3 -5 1 -12 -5 -16 -5 -3 -10 1 -10 9 0 18 6
21 15 7z m28 -92 c-3 -10 -9 -19 -14 -19 -11 0 -12 44 -2 53 10 11 21 -13 16
-34z m-3 -50 c0 -5 -4 -9 -10 -9 -5 0 -10 7 -10 16 0 8 5 12 10 9 6 -3 10 -10
10 -16z m-383 -356 c4 -10 11 -21 16 -24 6 -4 6 -17 1 -33 l-9 -27 -24 20
c-13 12 -21 24 -18 28 4 3 2 12 -4 19 -6 7 -8 18 -4 24 10 16 35 12 42 -7z"/>
<path d="M12710 10150 c0 -5 5 -10 11 -10 5 0 7 5 4 10 -3 6 -8 10 -11 10 -2
0 -4 -4 -4 -10z"/>
<path d="M12501 9944 c0 -11 3 -14 6 -6 3 7 2 16 -1 19 -3 4 -6 -2 -5 -13z"/>
<path d="M11070 9821 c0 -12 35 -41 49 -41 19 0 -5 37 -29 43 -11 3 -20 2 -20
-2z"/>
<path d="M11154 9799 c-3 -6 -2 -14 3 -18 5 -3 12 -14 16 -23 7 -20 15 -22 34
-10 10 7 10 14 0 35 -12 27 -40 36 -53 16z"/>
<path d="M9590 9704 c0 -10 -7 -26 -17 -36 -9 -10 -16 -32 -16 -48 0 -18 -6
-30 -14 -30 -16 0 -17 -36 -1 -46 7 -4 28 -9 48 -11 34 -4 60 -25 60 -50 0 -7
-6 -10 -15 -7 -19 8 -20 -16 -1 -41 10 -14 11 -25 5 -37 -5 -10 -6 -18 -1 -18
5 0 8 -10 8 -22 -1 -18 5 -24 26 -26 24 -3 27 -8 30 -45 2 -31 7 -41 18 -38
16 4 18 4 73 -5 23 -4 37 -2 37 5 0 6 6 8 14 5 7 -3 16 2 20 11 3 9 -1 18 -10
22 -20 7 54 35 76 28 25 -8 40 38 28 87 -13 52 -21 63 -44 54 -16 -6 -16 -8 0
-25 16 -17 16 -19 -5 -24 -14 -4 -20 -11 -16 -20 3 -9 -2 -17 -13 -20 -15 -4
-26 6 -45 39 -14 24 -32 44 -39 44 -7 0 -21 9 -31 20 -10 11 -30 20 -44 20
-19 0 -30 9 -42 33 -9 17 -32 40 -52 51 l-35 19 25 23 c31 28 23 27 66 9 39
-16 55 -7 39 22 -7 12 -5 24 5 39 9 15 11 24 4 29 -6 3 -11 -1 -11 -9 0 -11
-9 -16 -30 -16 -16 0 -30 4 -30 10 0 5 -6 7 -14 4 -8 -3 -24 -1 -35 6 -17 9
-21 8 -21 -6z"/>
<path d="M10043 9615 c1 -37 10 -54 30 -55 4 0 7 16 7 35 0 20 5 35 12 35 6 0
9 3 6 6 -4 3 -15 1 -26 -5 -17 -9 -21 -8 -25 7 -2 9 -4 -1 -4 -23z"/>
<path d="M9300 9607 c0 -18 -48 -29 -71 -16 -20 10 -69 -23 -69 -47 0 -8 -4
-14 -10 -14 -25 0 -6 -65 31 -105 10 -11 20 -36 22 -55 4 -42 16 -70 29 -70 5
0 7 4 4 8 -9 15 105 62 151 62 17 0 20 4 15 23 -5 19 -3 20 10 10 8 -7 18 -10
21 -6 4 3 -3 13 -16 22 l-22 16 30 5 c24 4 29 10 27 27 -2 12 2 24 7 27 14 9
2 36 -13 30 -6 -2 -23 7 -36 21 -13 14 -29 25 -36 25 -7 0 -26 12 -43 26 -22
18 -31 22 -31 11z"/>
<path d="M9950 9604 c0 -17 17 -36 24 -26 3 5 -1 15 -9 22 -8 7 -15 9 -15 4z"/>
<path d="M9914 9577 c-3 -9 -12 -13 -20 -10 -20 8 -17 -21 4 -40 34 -31 62
-17 39 20 -4 6 -2 13 4 15 7 2 5 9 -5 17 -13 11 -17 11 -22 -2z"/>
<path d="M9498 9573 c7 -3 16 -2 19 1 4 3 -2 6 -13 5 -11 0 -14 -3 -6 -6z"/>
<path d="M10146 9535 c-3 -9 0 -15 9 -15 9 0 12 6 9 15 -4 8 -7 15 -9 15 -2 0
-5 -7 -9 -15z"/>
<path d="M9502 9531 c2 -7 7 -12 11 -12 12 1 9 15 -3 20 -7 2 -11 -2 -8 -8z"/>
<path d="M9972 9528 c2 -6 19 -19 37 -29 32 -17 35 -17 56 -1 15 11 19 19 11
24 -6 4 -12 3 -14 -2 -2 -6 -19 -3 -39 5 -43 18 -56 19 -51 3z"/>
<path d="M10100 9519 c0 -5 5 -7 10 -4 6 3 10 8 10 11 0 2 -4 4 -10 4 -5 0
-10 -5 -10 -11z"/>
<path d="M11305 9420 c-3 -5 -1 -10 4 -10 6 0 11 5 11 10 0 6 -2 10 -4 10 -3
0 -8 -4 -11 -10z"/>
<path d="M13170 9423 c1 -18 18 -35 24 -24 4 6 4 16 1 21 -7 12 -25 13 -25 3z"/>
<path d="M9474 9371 c4 -27 2 -41 -6 -43 -8 -3 -5 -13 9 -32 21 -26 22 -27 33
-7 11 22 40 18 40 -5 0 -16 16 -19 25 -4 3 5 13 6 22 3 12 -5 15 -2 10 10 -4
9 -10 24 -13 32 -4 9 1 17 10 21 9 3 16 12 16 20 0 10 -6 11 -26 4 -37 -14
-46 -13 -78 15 -41 35 -50 32 -42 -14z"/>
<path d="M9170 9266 c0 -9 8 -12 26 -8 19 3 22 7 12 13 -20 13 -38 11 -38 -5z"/>
<path d="M9610 9240 c14 -11 32 -20 40 -20 8 0 0 9 -18 20 -41 25 -55 25 -22
0z"/>
<path d="M9856 9198 c-16 -61 5 -76 47 -34 19 19 21 26 12 40 -18 24 -52 20
-59 -6z"/>
<path d="M10257 9194 c8 -21 33 -25 33 -6 0 11 -8 18 -19 18 -11 0 -17 -6 -14
-12z"/>
<path d="M9610 9183 c-14 -9 -29 -23 -33 -30 -5 -7 -12 -11 -18 -8 -5 4 -9 -1
-9 -9 0 -9 -7 -16 -15 -16 -17 0 -19 -30 -5 -79 6 -24 6 -39 -1 -47 -18 -21 0
-54 32 -61 35 -7 35 -10 7 -40 -17 -18 -19 -26 -10 -35 9 -9 12 -7 12 10 0 24
27 30 60 12 13 -7 21 -7 25 0 3 5 -1 10 -9 10 -8 0 -18 9 -21 20 -3 11 -15 25
-26 30 -10 6 -19 15 -19 21 0 6 8 5 21 -2 21 -11 22 -10 16 25 -3 20 -2 36 4
36 5 0 9 12 9 27 0 26 1 26 15 7 13 -18 14 -18 21 13 3 18 9 31 13 29 14 -9
-3 80 -18 91 -21 16 -22 16 -51 -4z"/>
<path d="M10256 9099 c2 -31 -1 -39 -12 -35 -8 3 -14 1 -14 -4 0 -6 11 -10 24
-10 26 0 71 51 58 65 -4 4 3 2 16 -4 13 -7 25 -18 28 -26 4 -9 12 -7 30 10 30
28 30 33 2 31 -13 -1 -27 0 -33 3 -5 3 -30 6 -55 8 l-46 3 2 -41z"/>
<path d="M9845 9080 c-3 -5 -1 -10 4 -10 6 0 11 5 11 10 0 6 -2 10 -4 10 -3 0
-8 -4 -11 -10z"/>
<path d="M9827 9013 c4 -11 8 -13 11 -5 2 7 9 9 14 6 7 -4 8 -2 4 4 -12 19
-36 15 -29 -5z"/>
<path d="M9800 8986 c0 -3 4 -17 10 -31 12 -31 30 -24 30 11 0 17 -5 24 -20
24 -11 0 -20 -2 -20 -4z"/>
<path d="M9810 8891 c0 -32 -11 -51 -30 -51 -10 0 -23 -7 -30 -15 -11 -13 -16
-13 -47 0 -44 18 -44 18 -36 -1 4 -10 -1 -17 -16 -21 l-21 -5 22 -30 c17 -25
18 -32 7 -39 -12 -7 -12 -9 1 -9 42 0 60 13 70 51 9 33 15 39 38 39 15 0 38
-7 50 -16 18 -12 26 -13 37 -4 11 10 11 14 -6 31 -18 18 -23 36 -20 72 1 9 -3
17 -8 17 -6 0 -11 -9 -11 -19z"/>
<path d="M9856 8768 c4 -6 3 -8 -4 -4 -6 3 -22 1 -36 -5 -20 -10 -24 -17 -20
-36 5 -17 2 -23 -10 -23 -9 0 -16 5 -16 10 0 6 -14 10 -31 10 -24 0 -30 -4
-25 -15 3 -8 0 -15 -6 -15 -7 0 -8 -12 -4 -32 8 -42 51 -82 80 -73 47 13 56
13 66 -3 8 -13 9 -8 7 24 -2 22 -11 51 -20 64 -20 28 -22 44 -5 34 7 -5 9 -2
5 9 -4 11 -2 14 9 10 10 -4 17 2 21 16 3 11 10 21 15 21 5 0 6 5 3 10 -3 6
-13 10 -21 10 -9 0 -12 -5 -8 -12z"/>
<path d="M9864 8553 c4 -7 2 -13 -4 -13 -6 0 -8 -4 -5 -10 3 -5 10 -10 15 -10
10 0 7 27 -5 37 -4 4 -5 2 -1 -4z"/>
<path d="M13227 8473 c3 -10 10 -23 15 -30 5 -7 4 -13 -4 -16 -10 -4 -10 -8 2
-21 15 -15 16 -14 15 6 -2 25 -22 78 -29 78 -3 0 -3 -8 1 -17z"/>
<path d="M12998 8443 c-10 -3 -15 -10 -11 -19 3 -8 0 -14 -7 -14 -6 0 -8 -5
-3 -12 4 -7 9 -22 10 -33 1 -11 5 -32 9 -47 4 -20 2 -28 -6 -28 -10 0 -9 -5 3
-17 26 -30 32 -71 12 -93 -9 -10 -15 -26 -13 -36 2 -14 10 -10 46 19 28 24 57
38 86 42 37 6 47 12 56 36 10 23 10 32 -1 45 -10 13 -10 17 1 24 12 7 10 13
-9 29 -13 12 -28 21 -33 21 -5 0 -13 11 -18 25 -6 15 -17 25 -30 25 -11 0 -23
7 -26 15 -4 8 -10 12 -15 9 -6 -3 -15 -2 -22 3 -7 5 -20 8 -29 6z"/>
<path d="M13263 8365 c-9 -10 -7 -14 13 -18 21 -4 23 -2 12 12 -7 9 -12 17
-13 17 0 1 -5 -4 -12 -11z"/>
<path d="M13200 8330 c0 -12 37 -14 44 -2 2 4 -6 9 -20 10 -13 1 -24 -3 -24
-8z"/>
<path d="M12910 8019 c0 -5 5 -7 10 -4 6 3 10 8 10 11 0 2 -4 4 -10 4 -5 0
-10 -5 -10 -11z"/>
<path d="M12932 7960 c2 -14 -3 -30 -11 -36 -10 -8 1 -15 50 -32 35 -12 63
-20 63 -19 1 1 -23 27 -52 57 -47 48 -53 52 -50 30z"/>
<path d="M13070 7870 c0 -5 -9 -10 -20 -10 -24 0 -26 -17 -5 -40 19 -21 92
-16 74 6 -6 8 -9 14 -5 14 3 0 -2 9 -11 20 -19 22 -33 26 -33 10z"/>
<path d="M11884 7519 c-3 -5 -14 -7 -25 -4 -13 5 -19 2 -19 -10 0 -11 -6 -14
-25 -9 -20 5 -28 0 -45 -28 -17 -30 -25 -35 -57 -33 -27 0 -41 7 -48 21 -10
20 -51 64 -60 64 -3 0 -5 -11 -5 -25 0 -18 -9 -31 -30 -43 -16 -9 -30 -20 -30
-24 0 -5 -12 -8 -26 -8 -14 0 -23 -4 -20 -9 3 -5 -5 -12 -19 -15 -14 -4 -25
-13 -25 -20 0 -8 -5 -16 -11 -18 -8 -3 -6 -14 5 -37 16 -30 16 -35 1 -57 -8
-13 -20 -24 -26 -24 -6 0 -8 -9 -4 -20 4 -11 1 -36 -5 -56 -7 -19 -10 -37 -7
-40 7 -7 107 98 107 113 0 7 5 13 11 13 8 0 9 -12 5 -37 -4 -21 -8 -43 -8 -50
-1 -7 -8 -15 -16 -18 -8 -3 -11 -12 -8 -20 3 -8 2 -15 -2 -15 -5 0 -8 -16 -8
-35 0 -43 8 -44 44 -4 l28 31 12 -26 c10 -23 9 -26 -7 -26 -27 0 -33 -24 -9
-39 16 -10 18 -10 13 0 -5 8 -4 10 3 5 21 -13 13 -24 -20 -29 -21 -3 -36 0
-40 8 -8 13 -58 9 -58 -5 0 -4 -8 -10 -17 -14 -10 -3 -26 -11 -35 -18 -14 -10
-21 -9 -41 10 l-24 23 -17 -27 c-17 -25 -17 -26 1 -20 10 3 31 -1 47 -9 15 -8
36 -15 46 -15 10 0 27 -12 37 -26 l19 -26 52 51 c46 45 55 50 73 40 28 -15 50
-4 48 23 -1 13 -1 30 -1 39 2 20 48 42 72 34 9 -3 23 1 30 10 18 22 54 19 108
-10 37 -20 48 -22 50 -11 2 8 12 16 23 19 11 3 19 14 19 27 0 11 4 19 9 16 13
-8 34 21 27 39 -4 11 2 15 23 15 16 0 31 7 35 15 3 8 13 15 22 15 13 0 15 6 9
28 l-7 27 24 -23 c25 -22 25 -22 43 -2 10 11 26 22 36 25 11 4 23 23 29 46 6
22 17 42 23 45 17 6 19 44 2 44 -7 0 -16 11 -19 24 -7 28 -64 43 -73 19 -3 -7
-14 -13 -24 -13 -22 0 -93 42 -127 76 -28 28 -79 47 -88 33z m-339 -218 c3 -5
1 -12 -5 -16 -5 -3 -10 1 -10 9 0 18 6 21 15 7z m58 -201 c-9 -33 -23 -22 -23
18 1 33 2 35 14 19 8 -10 12 -27 9 -37z"/>
<path d="M11366 7093 c-6 -14 -5 -15 5 -6 7 7 10 15 7 18 -3 3 -9 -2 -12 -12z"/>
<path d="M11350 7061 c0 -5 5 -13 10 -16 6 -3 10 -2 10 4 0 5 -4 13 -10 16 -5
3 -10 2 -10 -4z"/>
<path d="M11240 6920 c0 -5 5 -10 10 -10 6 0 10 5 10 10 0 6 -4 10 -10 10 -5
0 -10 -4 -10 -10z"/>
</g>
</svg>
