<?xml version="1.0" standalone="no"?>
<!DOCTYPE svg PUBLIC "-//W3C//DTD SVG 20010904//EN"
 "http://www.w3.org/TR/2001/REC-SVG-20010904/DTD/svg10.dtd">
<svg version="1.0" xmlns="http://www.w3.org/2000/svg"
 width="454.501520pt" height="471.737162pt" viewBox="0 0 454.501520 471.737162"
 preserveAspectRatio="xMidYMid meet">
<metadata>
Created by potrace 1.15, written by Peter Selinger 2001-2017
</metadata>
<g transform="translate(-804.051417,1231.951763) scale(0.100000,-0.100000)"
fill="#222222" stroke="none">
<path d="M9405 12310 c-5 -7 4 -30 23 -60 2 -2 7 2 12 9 5 8 4 24 -3 38 -11
24 -22 29 -32 13z"/>
<path d="M9455 12229 c8 -25 -13 -43 -32 -27 -10 8 -13 6 -13 -5 0 -11 10 -15
35 -15 19 0 37 3 40 7 7 13 -7 49 -22 55 -11 5 -13 1 -8 -15z"/>
<path d="M9511 12194 c0 -11 3 -14 6 -6 3 7 2 16 -1 19 -3 4 -6 -2 -5 -13z"/>
<path d="M9330 12180 c-6 -11 -19 -20 -29 -20 -23 0 -36 -55 -22 -93 11 -28
-12 -72 -33 -64 -17 7 -8 -42 11 -65 16 -18 10 -38 -13 -38 -8 0 -14 -9 -14
-20 0 -11 5 -20 10 -20 6 0 10 -4 10 -10 0 -5 -7 -7 -15 -4 -11 5 -14 2 -9
-12 4 -11 11 -25 17 -31 6 -9 6 -13 -2 -13 -6 0 -11 -7 -11 -15 0 -8 -7 -15
-15 -15 -8 0 -15 -4 -15 -10 0 -5 -7 -10 -16 -10 -13 0 -12 -5 5 -29 22 -31
27 -66 12 -76 -5 -3 -12 -18 -16 -34 -5 -24 -12 -30 -46 -35 -35 -6 -39 -9
-39 -36 0 -17 -4 -31 -10 -31 -5 -1 -16 -2 -22 -3 -7 -1 -17 -5 -21 -11 -6 -7
-10 -6 -13 2 -5 10 -58 2 -71 -11 -7 -7 17 -47 25 -42 11 7 37 -11 38 -26 0
-7 2 -25 2 -39 2 -22 7 -27 27 -25 16 0 23 6 20 14 -2 6 2 12 10 12 8 0 15 7
15 15 0 8 7 15 15 15 8 0 15 5 15 11 0 6 7 9 15 5 9 -3 15 0 15 10 0 11 9 6
29 -15 l29 -31 38 35 c36 33 37 35 20 54 -17 19 -17 19 17 17 19 -2 39 -6 44
-9 16 -10 23 32 11 59 -10 20 -8 27 8 39 10 8 24 15 31 15 6 0 9 9 6 23 -5 18
-3 20 8 10 7 -7 21 -13 31 -13 18 0 25 -15 11 -23 -5 -2 -2 -2 5 0 8 1 19 3
26 3 14 0 15 91 1 123 -5 12 -3 17 6 15 13 -3 18 13 23 78 2 17 6 36 10 42 10
16 -3 39 -27 47 -14 4 -17 8 -9 12 6 2 10 9 6 14 -3 5 0 9 5 9 6 0 11 6 11 13
0 19 33 47 54 47 25 0 30 24 11 59 -9 19 -23 31 -35 31 -11 0 -20 4 -20 9 0 5
-9 11 -20 14 -14 4 -19 12 -18 29 3 20 -2 23 -37 26 -42 4 -68 18 -59 33 3 5
-4 9 -15 9 -11 0 -25 -9 -31 -20z"/>
<path d="M9490 12159 c0 -5 5 -7 10 -4 6 3 10 8 10 11 0 2 -4 4 -10 4 -5 0
-10 -5 -10 -11z"/>
<path d="M8702 11800 c17 -28 -2 -40 -64 -40 -37 0 -48 -4 -48 -16 0 -8 -5
-12 -11 -8 -8 4 -9 0 -4 -15 5 -15 2 -21 -9 -21 -9 0 -16 -4 -16 -9 0 -6 -15
-12 -32 -14 l-33 -4 37 -1 c20 -1 40 -7 43 -13 4 -6 23 -8 46 -5 21 3 57 9 79
12 30 4 40 10 40 24 0 16 3 17 30 7 26 -10 33 -9 50 8 23 24 14 45 -20 48 -14
1 -31 15 -44 34 -24 37 -66 49 -44 13z"/>
<path d="M8406 11655 c4 -10 7 -29 8 -44 1 -22 6 -26 34 -29 25 -3 32 0 32 15
0 10 3 27 6 39 5 18 1 21 -23 21 -15 0 -36 3 -46 7 -14 7 -16 5 -11 -9z"/>
<path d="M8323 11493 c9 -2 23 -2 30 0 6 3 -1 5 -18 5 -16 0 -22 -2 -12 -5z"/>
<path d="M8286 11475 c-4 -11 -13 -14 -31 -9 -22 5 -25 3 -25 -20 0 -16 6 -26
15 -26 8 0 15 5 15 10 0 6 9 10 20 10 15 0 20 7 20 25 0 28 -5 32 -14 10z"/>
<path d="M8193 11452 c10 -10 14 -21 11 -24 -3 -3 -1 -9 5 -13 15 -9 14 28 -1
43 -19 19 -33 14 -15 -6z"/>
<path d="M9002 11411 c-8 -5 -12 -16 -10 -25 2 -12 6 -10 15 9 6 14 10 25 10
25 -1 0 -8 -4 -15 -9z"/>
<path d="M8182 11355 c-49 -23 -52 -26 -41 -46 6 -12 7 -24 3 -28 -5 -3 -9
-12 -10 -18 -2 -27 -5 -29 -35 -27 l-30 2 5 -48 c4 -39 1 -51 -14 -65 -23 -21
-26 -51 -6 -58 17 -7 28 -61 17 -90 -7 -17 -3 -33 15 -62 26 -44 31 -75 12
-76 -7 0 -4 -4 7 -8 13 -5 23 -3 30 5 8 11 18 12 50 2 68 -20 111 -3 100 39
-4 16 -1 23 10 23 19 0 19 34 0 50 -10 8 -12 17 -6 24 14 16 10 59 -6 71 -9 7
-14 41 -16 102 -1 63 -6 94 -14 98 -16 5 -17 37 -2 52 11 11 3 83 -10 83 -3 0
-30 -11 -59 -25z"/>
<path d="M9011 11321 c-12 -8 -13 -12 -1 -25 7 -9 14 -34 16 -56 3 -34 2 -38
-14 -33 -9 4 -19 10 -22 14 -3 4 -12 4 -20 -1 -20 -13 -4 -26 41 -34 29 -5 38
-3 43 10 4 10 12 14 22 10 12 -5 15 -2 10 10 -3 8 -6 22 -6 30 0 8 -6 14 -13
14 -8 0 -22 9 -32 20 -15 16 -15 22 -5 35 14 17 3 20 -19 6z"/>
<path d="M9109 11208 c-7 -23 -4 -39 7 -49 22 -18 39 3 25 30 -10 17 -29 29
-32 19z"/>
<path d="M8860 11140 c0 -5 5 -10 11 -10 5 0 7 5 4 10 -3 6 -8 10 -11 10 -2 0
-4 -4 -4 -10z"/>
<path d="M9148 11091 c6 -57 -7 -131 -21 -131 -8 0 -12 -18 -11 -53 1 -60 8
-79 27 -71 7 2 22 -4 32 -16 19 -21 8 -29 -13 -8 -9 9 -12 6 -12 -13 0 -29
-17 -49 -42 -49 -27 0 -22 -23 12 -54 17 -15 33 -40 37 -57 4 -21 9 -27 17
-20 16 14 41 8 65 -13 12 -11 29 -16 40 -13 14 3 25 -2 35 -18 12 -19 23 -22
65 -21 55 2 56 0 52 -57 -1 -16 5 -40 15 -55 10 -15 18 -42 18 -62 1 -28 5
-36 24 -38 15 -2 22 2 22 13 0 10 4 13 13 8 18 -11 117 -14 117 -3 0 5 -11 12
-24 16 -27 6 -44 50 -27 67 8 8 6 16 -5 28 -11 12 -14 25 -9 36 20 43 31 102
24 122 -8 21 -4 28 34 54 25 17 12 47 -24 54 -35 7 -45 19 -29 38 7 8 7 15 1
19 -5 4 -12 2 -16 -4 -4 -6 -12 -4 -22 5 -9 9 -23 13 -35 10 -10 -4 -25 -2
-33 5 -10 8 -15 8 -22 -3 -11 -20 -75 -34 -71 -16 2 8 -7 15 -19 17 -12 2 -20
9 -17 15 3 8 -5 13 -18 14 -13 1 -24 7 -26 13 -2 6 -12 19 -22 28 -22 21 -48
82 -43 99 3 7 -2 16 -11 19 -9 3 -16 12 -16 20 0 7 -10 29 -22 47 -13 19 -28
42 -33 52 -8 14 -10 8 -7 -24z"/>
<path d="M8865 11071 c5 -37 3 -42 -17 -50 -13 -5 -30 -16 -37 -25 -7 -9 -20
-16 -27 -16 -8 0 -14 -7 -14 -15 0 -8 -9 -23 -20 -32 -14 -13 -16 -19 -7 -25
6 -4 12 -18 13 -30 3 -91 4 -95 28 -106 19 -8 26 -8 30 1 3 8 14 1 30 -18 20
-23 26 -26 26 -12 0 9 7 17 16 17 8 0 12 5 9 10 -3 6 -1 10 5 10 6 0 8 6 4 13
-6 10 -4 10 7 0 7 -7 22 -13 34 -13 12 0 26 -5 32 -11 16 -16 33 -2 33 27 0
14 10 34 22 43 26 22 21 32 -31 57 -23 10 -41 24 -41 30 0 7 -6 12 -12 11 -56
-2 -66 3 -70 35 -4 21 1 37 13 49 16 16 17 21 3 48 -24 48 -36 49 -29 2z"/>
<path d="M8255 10766 c0 -36 5 -49 23 -62 15 -10 21 -22 17 -34 -8 -24 55 -38
68 -15 15 27 37 16 127 -68 36 -33 46 -38 64 -31 20 8 21 24 1 24 -8 0 -19 9
-24 19 -9 15 -7 20 9 24 11 3 23 1 26 -4 3 -5 16 -7 30 -5 17 3 24 0 24 -11 0
-13 -3 -13 -15 -3 -12 10 -15 9 -15 -7 0 -10 7 -28 15 -39 8 -10 15 -28 15
-39 0 -12 5 -26 10 -31 7 -7 6 -23 -4 -50 -12 -34 -12 -43 0 -59 8 -10 14 -15
15 -9 0 5 9 -9 19 -31 18 -37 18 -41 2 -49 -37 -21 -51 -53 -18 -40 7 3 20 -6
29 -19 9 -14 28 -28 44 -31 15 -4 44 -17 63 -30 26 -17 42 -21 63 -15 15 4 27
3 27 -2 0 -5 8 -9 18 -9 10 0 27 -8 38 -18 15 -14 26 -16 52 -10 36 10 42 23
13 31 -10 2 -26 19 -35 37 -20 40 -20 40 -1 40 12 0 13 4 5 19 -5 11 -10 29
-10 41 0 15 -8 22 -29 26 -22 5 -27 10 -24 25 3 11 -2 28 -11 38 -14 15 -15
19 -3 24 41 16 11 184 -40 224 -18 15 -35 20 -50 17 -16 -5 -25 -1 -30 12 -3
11 -13 30 -22 43 -19 30 -21 61 -5 68 7 2 10 11 8 18 -8 20 -32 7 -36 -18 -3
-21 -8 -22 -75 -19 -40 1 -84 7 -99 12 -41 16 -134 13 -140 -5 -4 -8 -10 -15
-15 -15 -5 0 -9 7 -9 15 0 9 -9 15 -23 15 -14 0 -26 9 -32 23 -6 13 -20 23
-35 25 -24 3 -26 0 -25 -42z"/>
<path d="M10371 10716 c-11 -13 -11 -16 3 -16 13 0 14 -3 5 -18 -9 -14 -7 -27
11 -61 23 -47 37 -51 20 -6 -6 15 -8 36 -5 46 3 10 0 30 -8 44 -12 24 -15 25
-26 11z"/>
<path d="M10393 10540 c-4 -13 -14 -20 -30 -20 -21 0 -22 -3 -13 -20 8 -15 6
-24 -9 -39 -22 -22 -50 -29 -68 -18 -7 4 -14 0 -18 -12 -3 -11 -16 -23 -28
-27 -38 -11 -49 -25 -31 -38 14 -11 14 -17 -1 -69 -9 -31 -14 -61 -11 -66 14
-22 -7 -71 -39 -89 -22 -13 -34 -30 -38 -51 -4 -18 -11 -30 -15 -27 -5 3 -8
-14 -7 -37 1 -49 -4 -69 -15 -62 -11 7 -22 -28 -15 -46 6 -15 -1 -17 -67 -22
-27 -2 -34 -7 -36 -27 -2 -14 -11 -33 -19 -42 -9 -10 -12 -18 -8 -18 5 0 0 -9
-11 -20 -34 -34 -41 -45 -36 -59 3 -9 -2 -11 -15 -7 -21 7 -55 -19 -84 -64
-14 -22 -19 -23 -40 -13 -13 6 -39 16 -57 22 -30 9 -32 9 -22 -10 9 -16 6 -26
-14 -50 -14 -17 -26 -39 -26 -50 0 -13 -7 -19 -22 -19 -26 0 -78 -47 -78 -71
0 -9 7 -20 16 -23 14 -5 12 -10 -10 -27 -41 -32 -27 -71 17 -45 15 9 25 3 63
-36 44 -47 44 -48 28 -73 -24 -37 -37 -104 -23 -121 9 -11 7 -14 -14 -14 -32
0 -73 -32 -62 -49 6 -11 9 -10 16 0 8 12 12 11 22 -2 13 -17 37 -14 37 4 0 7
4 18 9 25 7 12 12 12 30 1 11 -8 21 -18 21 -24 0 -13 42 -40 58 -37 6 2 12 -3
12 -11 0 -9 -10 -13 -32 -10 -18 2 -27 0 -20 -3 14 -7 16 -40 2 -49 -11 -7
-59 25 -60 39 0 10 -31 35 -42 36 -5 0 -8 -7 -8 -15 0 -23 -35 -36 -67 -25
-25 9 -26 9 -10 -4 23 -18 18 -52 -7 -49 -15 1 -14 -3 8 -26 17 -18 24 -33 20
-48 -4 -15 3 -27 29 -47 18 -14 41 -26 50 -26 10 0 17 -5 17 -11 0 -7 12 -10
33 -7 17 3 38 3 45 1 16 -6 15 -44 -3 -68 -10 -12 -13 -30 -9 -51 9 -47 -3
-74 -32 -74 -13 0 -24 -4 -24 -9 0 -5 -13 -12 -29 -16 -22 -5 -30 -13 -35 -36
-3 -17 -12 -29 -21 -29 -8 0 -23 -8 -33 -18 -10 -10 -24 -16 -30 -14 -12 4
-17 -15 -14 -52 2 -13 -3 -16 -13 -12 -9 3 -13 2 -10 -4 9 -15 -36 -11 -65 5
-34 19 -40 18 -40 -6 0 -11 -7 -27 -15 -35 -21 -21 -19 -34 5 -34 10 0 34 -16
53 -35 39 -40 49 -43 68 -16 17 25 65 18 74 -10 4 -10 11 -19 16 -19 6 0 7 -4
4 -10 -11 -18 9 -10 38 15 15 13 27 29 27 34 0 7 9 7 27 0 29 -11 103 -3 103
11 0 5 9 12 20 15 14 4 19 13 16 23 -12 40 73 86 87 48 3 -7 18 -17 34 -21 15
-3 30 -11 33 -16 3 -5 20 -12 38 -15 25 -5 32 -3 32 9 0 19 29 36 49 29 10 -3
13 2 9 22 -3 15 0 31 8 37 8 6 14 17 14 25 0 17 50 14 69 -4 9 -8 28 -12 50
-10 42 5 76 -18 61 -42 -15 -23 -12 -29 10 -23 11 3 20 9 20 14 0 5 7 9 15 9
8 0 15 7 15 15 0 8 6 14 13 13 6 -2 11 5 11 15 -2 21 9 22 26 2 7 -8 17 -12
22 -9 5 3 7 8 5 11 -9 8 44 53 63 53 36 0 69 19 76 45 7 30 3 29 42 9 33 -16
77 -11 66 8 -6 9 12 27 28 28 4 0 10 -10 13 -22 4 -13 17 -33 28 -45 11 -13
16 -23 10 -23 -12 0 -36 -47 -39 -77 -4 -32 6 -29 41 12 16 20 35 33 42 31 9
-4 13 5 13 29 0 37 21 48 37 21 5 -9 32 -15 78 -17 l70 -4 3 38 c3 34 6 37 25
31 54 -17 97 -40 97 -53 0 -9 6 -11 23 -6 12 4 40 9 62 11 22 1 43 3 46 3 4 1
9 12 11 26 4 20 -2 32 -26 52 -41 34 -51 61 -30 84 14 15 14 21 4 34 -7 8 -19
15 -26 15 -32 0 -6 72 34 96 17 9 28 23 26 29 -3 7 4 15 15 18 14 3 21 15 23
38 2 25 10 37 33 49 16 8 35 21 43 28 7 6 28 12 46 12 19 0 39 6 45 14 8 10
23 13 46 9 28 -4 35 -1 46 18 7 13 19 29 27 35 13 9 12 12 -3 18 -16 6 -14 10
16 30 19 12 49 28 67 35 17 8 32 17 32 22 0 5 5 9 10 9 6 0 8 -11 4 -27 -6
-21 -4 -25 9 -20 8 3 21 0 27 -8 8 -10 5 -19 -16 -40 -25 -25 -54 -28 -54 -5
0 5 -7 10 -16 10 -9 0 -12 -5 -8 -12 5 -7 2 -9 -7 -6 -11 4 -14 -1 -11 -26 3
-22 12 -37 33 -48 20 -12 29 -25 29 -42 0 -13 12 -38 26 -55 19 -23 25 -40 22
-61 -3 -22 0 -31 14 -36 12 -3 18 -15 18 -35 0 -16 -4 -29 -8 -29 -11 0 -41
-85 -33 -97 8 -13 54 -38 64 -35 4 1 17 -18 28 -43 14 -31 26 -45 39 -45 11 0
20 -5 20 -11 0 -6 -6 -9 -13 -6 -8 3 -14 -1 -14 -9 0 -8 6 -14 13 -14 10 0 12
-10 8 -32 -3 -18 -5 -61 -6 -95 0 -60 -2 -63 -24 -63 -15 0 -24 -6 -24 -16 0
-12 6 -15 25 -10 14 4 25 2 25 -4 0 -5 5 -9 12 -8 6 2 15 -13 20 -32 5 -19 12
-45 15 -57 4 -17 1 -23 -12 -23 -12 0 -15 -5 -9 -22 11 -34 7 -55 -14 -76 -18
-18 -19 -18 -30 -1 -12 19 -53 45 -51 32 1 -4 -1 -16 -5 -25 -18 -40 7 -59
101 -78 1 0 0 6 -3 14 -9 25 38 23 78 -2 20 -13 39 -31 42 -40 4 -9 13 -28 21
-41 8 -15 10 -31 5 -40 -19 -36 -15 -101 8 -127 18 -20 18 -64 1 -64 -6 0 -8
-13 -5 -30 2 -16 0 -30 -5 -30 -5 0 -9 -5 -9 -10 0 -17 30 -24 53 -12 12 5 30
13 40 16 12 4 17 16 17 41 0 22 4 34 10 30 6 -4 25 -8 43 -10 18 -3 49 -7 70
-11 24 -4 37 -2 37 5 0 11 -13 15 -36 12 -7 -1 -14 5 -18 14 -3 9 0 15 9 15
19 0 19 9 1 52 -8 19 -16 56 -18 83 l-3 50 40 5 c37 5 40 7 48 48 7 38 11 41
32 36 33 -8 63 3 70 27 4 10 13 19 21 19 8 0 14 10 14 23 0 53 12 96 29 96 65
2 71 8 55 59 -5 19 -3 22 19 22 14 0 29 -5 32 -10 12 -20 24 1 18 32 -5 25 -3
29 8 23 8 -5 5 1 -5 13 -11 12 -26 21 -35 20 -10 -2 -18 10 -24 37 -6 22 -16
46 -24 53 -15 16 -17 32 -3 32 6 0 3 11 -6 24 -16 26 -39 25 -60 -2 -6 -8 -16
-12 -21 -9 -6 4 -16 0 -22 -7 -9 -11 -20 -12 -44 -5 -24 7 -33 5 -40 -6 -10
-19 -37 -19 -63 -1 -17 13 -21 12 -42 -12 -18 -21 -22 -22 -16 -7 14 39 16 75
5 75 -6 0 -11 9 -11 20 0 11 5 20 10 20 6 0 3 15 -6 33 -11 20 -17 54 -17 90
1 32 -5 71 -13 85 -8 15 -14 35 -14 45 0 10 -16 34 -35 54 -19 19 -37 44 -40
54 -3 10 -15 21 -26 24 -25 8 -42 40 -34 66 4 13 -4 34 -28 67 -19 26 -34 54
-34 62 0 8 -4 28 -8 44 -6 21 -5 27 4 22 7 -5 11 0 11 13 0 17 6 21 31 21 l31
0 -23 24 c-13 14 -26 20 -29 15 -7 -10 -65 4 -86 22 -11 9 -14 7 -14 -10 0
-19 -5 -22 -37 -21 -5 0 -8 8 -8 18 -1 48 -35 83 -48 50 -4 -10 -8 -10 -15 0
-8 11 -10 11 -15 -1 -6 -16 -52 -12 -74 6 -9 6 -13 5 -13 -3 0 -9 -6 -8 -19 4
-19 17 -20 17 -31 -4 -9 -16 -9 -25 -1 -33 8 -8 11 -5 11 11 0 30 11 28 45 -8
16 -16 23 -30 16 -30 -8 0 -10 -8 -6 -22 4 -16 3 -19 -3 -10 -5 8 -13 13 -18
13 -5 0 -24 4 -43 9 -28 8 -36 6 -50 -11 -16 -20 -51 -18 -51 2 0 5 -5 9 -12
9 -6 0 -22 10 -35 22 -19 18 -23 19 -23 5 0 -13 -5 -15 -25 -7 -20 7 -25 6
-25 -5 0 -18 -12 -19 -27 -4 -8 8 -15 6 -25 -10 -9 -15 -23 -21 -49 -21 -42 0
-61 -17 -53 -47 5 -18 0 -23 -31 -32 -39 -10 -69 -5 -59 10 5 9 -24 6 -63 -7
-17 -5 -44 6 -38 15 2 4 -2 8 -10 8 -8 0 -15 -8 -15 -17 0 -29 -62 -100 -87
-100 -14 0 -23 -6 -23 -15 0 -9 -9 -15 -25 -15 -15 0 -25 6 -25 14 0 28 12 46
31 46 10 0 19 6 19 14 0 8 7 17 16 20 9 3 14 12 11 20 -4 9 3 16 19 20 l25 7
-30 26 c-24 22 -28 30 -20 45 7 13 7 23 -1 33 -7 8 -7 14 -1 17 12 4 -28 99
-48 114 -12 10 -13 15 -3 27 11 12 10 18 -3 29 -56 45 -65 60 -65 114 0 30 -4
54 -10 54 -12 0 -79 104 -93 144 -8 23 -7 30 6 37 34 20 -22 116 -92 159 -31
19 -41 31 -41 53 0 15 -12 46 -26 69 l-26 41 22 17 c17 13 23 28 24 59 1 29 6
43 17 46 17 6 15 45 -1 45 -13 0 -40 95 -33 118 3 12 -1 42 -8 67 -12 42 -16
45 -46 45 -18 0 -33 3 -33 8 0 4 -12 12 -26 19 -23 11 -27 10 -31 -7z m-318
-1441 c14 -22 -3 -18 -26 7 -23 25 -23 26 -2 15 12 -6 25 -16 28 -22z m295 -8
c0 -6 -4 -13 -10 -16 -5 -3 -10 1 -10 9 0 9 5 16 10 16 6 0 10 -4 10 -9z
m-237 -15 c17 -13 24 -36 10 -36 -10 0 -43 32 -43 42 0 12 12 10 33 -6z m436
-212 c3 -16 1 -17 -13 -5 -19 16 -21 34 -3 29 6 -3 14 -13 16 -24z m-204 -94
c3 -5 1 -10 -4 -10 -6 0 -11 5 -11 10 0 6 2 10 4 10 3 0 8 -4 11 -10z m-365
-21 c0 -6 -4 -7 -10 -4 -5 3 -10 11 -10 16 0 6 5 7 10 4 6 -3 10 -11 10 -16z
m610 -129 c0 -5 -6 -10 -14 -10 -8 0 -18 5 -21 10 -3 6 3 10 14 10 12 0 21 -4
21 -10z m150 -96 c0 -8 -4 -12 -10 -9 -5 3 -10 10 -10 16 0 5 5 9 10 9 6 0 10
-7 10 -16z m-345 -24 c3 -6 -4 -10 -17 -10 -18 0 -20 2 -8 10 19 12 18 12 25
0z"/>
<path d="M9163 10406 c1 -6 -4 -10 -12 -8 -7 1 -18 -2 -25 -7 -7 -6 -17 -6
-26 -1 -25 16 -37 11 -35 -15 3 -19 -1 -25 -15 -25 -10 0 -22 -4 -25 -10 -3
-5 -15 -10 -26 -10 -18 0 -16 -3 10 -26 33 -28 41 -47 15 -37 -14 5 -14 3 -3
-16 11 -17 11 -25 1 -41 -11 -18 -10 -25 8 -49 24 -35 25 -41 5 -41 -8 0 -15
-4 -15 -10 0 -15 27 -12 44 5 18 18 43 10 51 -16 4 -11 16 -19 30 -19 18 0 24
-7 29 -32 13 -65 12 -73 -8 -70 -15 3 -17 0 -11 -15 4 -10 9 -25 12 -35 3 -9
13 -18 24 -21 13 -3 19 -14 19 -31 0 -14 4 -26 10 -26 5 0 24 -16 42 -36 18
-20 46 -43 61 -51 16 -8 26 -20 24 -26 -2 -7 8 -17 22 -23 21 -9 30 -8 44 4
24 21 21 51 -8 82 l-25 26 25 36 c21 31 22 38 10 54 -8 11 -15 29 -15 41 0 12
-11 35 -25 52 l-26 30 23 3 c16 2 24 11 26 28 2 14 8 35 14 47 6 12 8 31 5 42
-3 14 0 21 10 21 8 0 17 9 20 20 4 14 11 19 23 15 9 -3 23 1 30 10 8 9 8 15 2
15 -6 0 -13 8 -17 19 -3 10 -14 28 -24 40 -16 18 -23 20 -47 11 -20 -8 -30 -8
-32 -1 -2 6 -10 11 -18 11 -8 0 -14 10 -14 25 0 18 -7 26 -27 31 -17 5 -28 3
-31 -5 -3 -8 -8 -9 -15 -2 -23 18 -116 49 -114 37z"/>
<path d="M9146 9631 c-10 -11 -15 -25 -11 -30 3 -6 1 -11 -5 -11 -6 0 -9 -4
-5 -10 3 -5 1 -17 -4 -27 -5 -10 -12 -26 -15 -36 -4 -13 -12 -16 -25 -12 -11
3 -22 1 -26 -5 -3 -5 -15 -10 -26 -10 -10 0 -19 -7 -19 -15 0 -8 -9 -15 -19
-15 -11 0 -23 -5 -26 -10 -4 -6 -15 -8 -25 -5 -24 8 -63 -12 -57 -28 2 -7 -1
-19 -8 -27 -17 -20 -28 -77 -17 -84 11 -7 3 -58 -11 -68 -19 -12 11 -63 39
-66 20 -1 25 2 20 13 -4 10 1 15 14 15 11 0 28 9 38 21 16 16 27 19 56 13 28
-5 41 -2 56 11 10 9 32 18 47 20 32 3 85 25 95 40 4 5 10 3 13 -7 4 -9 13 -19
21 -22 21 -8 43 4 37 20 -3 9 2 14 16 14 26 0 26 1 1 45 -24 42 -27 63 -7 46
11 -8 13 -4 12 24 -1 40 12 48 53 34 36 -12 61 -64 47 -96 -5 -13 -16 -23 -23
-23 -7 0 -10 5 -7 10 3 6 2 10 -3 10 -20 0 -20 -40 -1 -50 15 -9 17 -8 12 6
-5 14 -2 16 19 11 22 -6 27 -3 32 19 4 13 4 30 1 37 -4 7 7 -3 23 -20 31 -36
42 -41 42 -18 0 18 -36 56 -44 48 -3 -4 -6 3 -6 15 0 11 -8 23 -19 27 -40 13
-58 38 -54 80 5 48 -12 75 -50 79 -21 3 -27 -1 -27 -15 0 -29 -15 -23 -70 26
-28 25 -54 45 -59 45 -4 0 -16 -9 -25 -19z m118 -229 c2 -4 -1 -17 -8 -29 -11
-22 -12 -22 -24 -3 -8 13 -8 20 -1 20 5 0 7 5 4 10 -3 6 1 10 9 10 8 0 17 -3
20 -8z"/>
<path d="M9400 9630 c0 -5 5 -10 10 -10 6 0 10 5 10 10 0 6 -4 10 -10 10 -5 0
-10 -4 -10 -10z"/>
<path d="M9430 9541 c0 -11 -7 -18 -16 -17 -26 2 -27 -18 -2 -29 13 -6 24 -16
24 -22 3 -26 4 -28 13 -14 15 23 11 89 -5 95 -9 3 -14 -1 -14 -13z"/>
<path d="M9226 9255 c4 -8 16 -15 28 -15 21 1 21 1 2 15 -25 19 -37 19 -30 0z"/>
<path d="M11626 9247 c3 -10 9 -15 12 -12 3 3 0 11 -7 18 -10 9 -11 8 -5 -6z"/>
<path d="M11232 8608 c5 -15 28 -23 28 -10 0 5 -7 13 -16 16 -10 4 -14 1 -12
-6z"/>
<path d="M10722 8429 c2 -7 10 -15 17 -17 8 -3 12 1 9 9 -2 7 -10 15 -17 17
-8 3 -12 -1 -9 -9z"/>
<path d="M10790 8404 c-8 -19 -15 -24 -30 -19 -17 5 -20 2 -21 -24 -1 -17 -2
-37 -3 -43 -1 -7 15 -18 34 -24 39 -13 68 -54 69 -99 1 -21 4 -26 10 -16 6 9
20 11 50 6 33 -5 40 -10 31 -20 -8 -9 -6 -14 5 -19 17 -6 21 -51 5 -61 -5 -3
-7 -20 -3 -37 5 -23 2 -34 -12 -45 -13 -8 -14 -13 -5 -13 7 0 11 -3 8 -6 -4
-3 2 -14 13 -25 14 -14 29 -18 57 -15 37 4 42 12 27 49 -6 13 -3 16 9 11 9 -4
18 0 22 9 7 19 74 43 83 30 5 -7 17 -9 36 -4 3 0 -16 21 -42 45 -42 39 -48 42
-59 28 -10 -14 -14 -14 -28 -3 -9 8 -15 20 -12 27 3 8 -2 17 -11 22 -14 8 -14
10 1 15 28 11 20 63 -13 86 -15 11 -31 18 -33 15 -3 -2 -8 9 -12 26 -4 23 -14
35 -39 45 -19 8 -39 21 -46 29 -7 8 -28 24 -47 35 l-35 21 -9 -26z"/>
<path d="M12515 8420 c3 -5 8 -10 11 -10 2 0 4 5 4 10 0 6 -5 10 -11 10 -5 0
-7 -4 -4 -10z"/>
<path d="M12246 7717 c3 -10 9 -15 12 -12 3 3 0 11 -7 18 -10 9 -11 8 -5 -6z"/>
</g>
</svg>
