<svg version="1" xmlns="http://www.w3.org/2000/svg" width="927.768" height="1214.447" viewBox="0 0 695.826 910.835"><g fill="#222"><path d="M452.72 1.035c-1.3.6-2.3 1.7-2.3 2.4 0 .8-1.2 1.6-2.7 2-1.6.3-3.9 1-5.3 1.6-1.4.6-3.5 1-4.7.9-2.7-.3-2.8.2-.9 2.2.8.7 1.6 2.5 1.7 3.8.4 2.5-.3 3.6-5 8.7-2 2.2-2.1 2.7-.9 3.6.8.6 1.8 2.1 2.2 3.3.5 1.5 2 2.6 4.4 3.3 2 .5 4.7 1.7 6 2.6 1.8 1.2 2.6 1.3 3.7.4s1.7-.5 2.9 1.9c.9 1.6 1.6 3.9 1.6 5 0 1.4.9 2.2 2.8 2.7 5.7 1.2 10.8 4.6 10.4 6.9-.2.9.1 1.4.6 1.1 1.7-1 2.1-7 .6-8.7-1.2-1.3-1-1.9 1.5-4.6 2.2-2.4 3.1-2.9 4.5-2.1 1.4.8 1.9.5 2.3-1 .5-2.2 8.1-4.9 10.8-3.9.8.4 1.5.2 1.5-.4 0-.7 1.1-.8 2.9-.4 2.4.5 3.3.2 4.3-1.4.7-1.2 1.7-2.1 2.1-2.1 1.2 0-.2 3.9-2.2 5.9-1.8 1.8-3.2 1.9-9.3.3-3.9-1-4.7-.5-2.6 1.6 1 1 1 1.5-.1 2.1-.9.6-1 1.1-.2 1.5.6.4.8 2 .4 3.9-.3 1.8-.2 2.9.2 2.5.4-.4 2.3-.1 4.3.7 3.5 1.5 3.5 1.5 7.3-2.5 2.1-2.2 4.3-4 4.9-4 .5 0 1-1 1-2.1 0-1.8.3-1.9 1.5-.9 1.1.9 1.8.9 3.2-.2 2.2-1.6 2.3-3.9.3-5.5-1.3-1.1-1.3-1.2.1-1.3.9 0 2.4.9 3.4 2s2.4 2 3.1 2c.7 0 2 1.2 2.8 2.7.8 1.6 1.5 2.3 1.6 1.7 0-.6-.9-2.3-2-3.7-1.1-1.4-2-2.8-2-3.1 0-.8-6.8-10.5-9.4-13.4-1.7-1.9-1.8-2.2-.3-2.2 2.5 0 4.4-4.5 2.7-6.5-1.6-1.9-3-1.9-3 0s-1.6 2-2.3.1c-.8-2.1-9.3-1.8-13.8.3-2.8 1.4-4.1 1.5-5.5.7-2.3-1.3-8.3-1.6-9-.4-1.2 1.9-5 .6-6.9-2.4-1.2-1.9-3.2-3.5-5.1-4-1.9-.5-3.4-1.6-3.7-2.8-.6-2.2-1.2-2.3-4.4-.8zm36.9 28c-1.2 1.2-4.2.4-4.2-1.2 0-.5.7-1 1.5-1s1.5-.8 1.6-1.8c0-1.3.3-1.2 1.1.6.8 1.6.8 2.6 0 3.4zm13.8-.7c0 .8-.9 1.5-2 1.5-1.7 0-1.9-.2-.8-1.5 1.7-1.9 2.8-1.9 2.8 0zM516.12 41.535c-.2.4 1 1.9 2.7 3.2l3.1 2.5-2.5-3c-1.4-1.6-2.6-3-2.6-3.2-.1-.2-.4 0-.7.5zM523.52 49.035c2.1 3.8 12.3 11.8 13.5 10.5.3-.3-.9-1.5-2.5-2.7-1.7-1.2-3.1-3-3.1-4 0-1.9-3.1-4.3-6.7-5.2-2-.5-2.1-.4-1.2 1.4zM468.42 54.735c0 .6-.6 1.1-1.4 1.1-1.3 0-1.3.4 0 2.7 1.6 3.3 1.8 5.3.4 5.3-.5 0-1 1.1-1 2.4 0 1.4-.4 2.8-1 3.1-.5.3-1 1.5-1 2.7 0 1.7.5 2 2.9 1.5 2.3-.5 3-.2 3.9 1.8.8 1.8.8 2.5-.1 2.8-1.8.6 2 5.7 4.3 5.7 2.2 0 6.2-3.5 5.2-4.5-.3-.3 1.3-.3 3.6.1 3.7.6 4.2.4 3.6-1-.5-1.4-.3-1.5 2.1-.6 3.8 1.4 4.5 1.3 4.5-1 0-1.1.6-2 1.4-2 1.7 0 2.7-2.5 1.9-4.7-.5-1.4-.7-1.3-1.4.5-1 2.6-5.4 5.6-7 4.6-.8-.5-.7-.9.5-1.6.9-.5 1.4-1.4 1-1.9-.3-.5-.1-1.6.5-2.3.8-.9.7-1.3-.2-1.4-.6-.1-2.4-.4-3.9-.8-1.8-.4-2.8-.2-2.8.5 0 1.7-1.8 1.3-5-1-1.6-1.2-3.6-1.9-4.4-1.6-1.2.5-1.6 0-1.6-1.8 0-1.3-.4-2.7-1-3-.5-.3-1-1.4-1-2.4s-.7-2.4-1.5-3.1c-1-.9-1.5-.9-1.5-.1zM497.72 54.535c-1.5.6-1.8 9.3-.3 9.3.6 0 1-1 1-2.2 0-1.2.7-2.9 1.6-3.9 2.3-2.6.9-4.5-2.3-3.2zM215.42 56.435c0 1.3 1.8 3.9 2.4 3.4.2-.3-.2-1.4-1-2.4-.8-1.1-1.4-1.6-1.4-1zM217.92 63.735c-.4.7-2.4 1.9-4.6 2.7-2.2 1-3.6 2.1-3.2 2.7.4.6 0 .8-1 .4s-1.8.1-2.2 1.4c-.4 1-1.3 1.9-2.1 1.9s-4 1.9-7.1 4.2c-7.1 5.2-12.8 6.6-17.4 4.2-1.8-.9-3.5-1.3-3.6-.8-1.3 3.8-8.4 13-10.8 14-1.1.5-2.6 2.3-3.4 4-1.8 4.1-6.2 6.1-14.4 6.7-7.4.5-10.4 2.3-13.3 7.9-1.1 2.1-2.4 2.9-5.3 3.4-3.3.5-4 1.1-4.5 3.5-.5 2.6-1 2.9-4.2 2.9-2.9 0-4.4.7-7 3.5-2.8 3-3.6 3.4-5.7 2.6-2-.8-2.9-.6-4.2.9-1.6 1.7-2 1.8-3.8.5-3-2.1-5.7-1.9-5.7.3 0 1.1-1.2 2.4-2.6 3.1-1.9.8-2.5 1.7-2.1 3.1.3 1.1.1 2.3-.4 2.6-.5.3-.9 1.5-.9 2.8 0 1.3-1.3 3.7-3 5.4-1.6 1.8-3 3.8-3 4.6 0 .9-1.7 3.3-3.7 5.5-3.8 3.9-3.8 3.9-3.8 12.4 0 4.7.3 8.9.7 9.3 1.1 1-2.4 6.5-3.8 6s-4.8 4-5.7 7.6c-.5 1.9-1.5 2.8-3.8 3.3-2.2.5-2.8 1-1.8 1.5 1 .7 1 1.1 0 2.4-1 1.2-1.1 1.9-.2 3 .9 1 .8 1.6-.4 2.6-1.7 1.4-2 6.6-.4 7.5.6.4.8 1.3.5 2-.2.7.8 1.8 2.2 2.5 1.5.7 3.3 1.5 4.1 1.9 1.7.8 2.2 6 .9 7.8-.6.7-.7 1.7-.3 2.3.3.5.1 1-.5 1-.7 0-.9.7-.6 1.5.3.9-.1 1.8-.9 2.1-.8.4-1.5 1.4-1.5 2.5 0 1-.7 2.2-1.7 2.7-1.2.7-1.4 1.8-1 4 .8 3.7-.8 9.1-3.4 11.3-1.7 1.6-1.7 1.7.7 2.9 2.1 1.2 2.3 1.8 1.8 4.9-.8 4.5-1.2 5.1-2.9 5.1-2 0-3.7 3.7-3 6.2.8 2.4-1.3 6.8-3.2 6.8-1.1 0-1.1.4.1 2.2 2.2 3.6 2.8 8.8 1.1 8.8-1.7 0-1.9 1.1-.6 2.5 1.4 1.6 2.3 6.5 1.2 6.5-.6 0-.8.7-.5 1.5.4.8.1 1.5-.6 1.5-.6 0-.9.4-.6.9.3.5 0 1.1-.8 1.4-.9.4-1.2 1.4-.9 2.5.2 1.1-.3 3.1-1.2 4.5-1.5 2.4-1.7 2.4-6 1.2l-4.3-1.4-.7 3.9c-.4 2.2-.4 4.4 0 5 .8 1.3-.1 1.3-2.8-.1-1.8-.9-2-.9-1 .1.6.7.9 2 .6 2.9-.4 1.2-.3 1.3.5.3.7-1.1 1.1-.8 1.6 1.2.6 2.4 2.4 3.1 3.6 1.4.3-.3 2.8-.9 5.5-1.1 2.8-.3 5.1-.6 5.3-.6.1-.1.2-.8.2-1.7 0-1.3.4-1.2 2.6.5 1.5 1.1 3 1.8 3.4 1.6.5-.3 1.8.7 3 2.2l2.2 2.8-3 .3c-5.3.5-5.4 5.2-.1 5.2 2.2 0 3.4.8 4.9 3.2 1.3 2.2 1.6 3.4.8 3.9-.7.4-.6 1 .4 1.5 1.7 1 4.3 5.5 4 6.6-.3 1.1 2.6 1 4.7-.2 1.4-.7 2.6-.3 5.2 1.5 1.8 1.4 4.1 2.5 5.1 2.5s2.1.7 2.4 1.5c.4 1 1.3 1.3 2.4 1 1.5-.5 1.7-.2 1.3 1.5-.6 2.4-5.4 2.8-7.3.5-.8-.9-1.7-1.2-2.4-.7-.6.5-2.8.8-4.8.7-2.1-.1-3.8 0-3.8.2s1.7 1 3.8 1.8c2.9 1.2 3.7 2.1 3.9 4.2 0 1.5-.5 3.2-1.3 3.8-.8.6-1 1.5-.6 2.2 1.3 2 6.1-.7 5.9-3.2-.3-2.8 2.7-2.6 3.1.2.4 2.4 2.6 3 5.2 1.3 1.2-.7 1.3-1.6.3-5.2-1.3-4.9-.7-5.9 3.3-6.1 1.6-.1 3.2-.6 3.5-1 .9-1.3 4.9.2 4.9 1.8 0 .7 1.2 2.3 2.6 3.6 1.5 1.3 3.9 3.5 5.3 4.9 1.4 1.4 3.3 2.5 4.1 2.5 4.7-.4 10-1.9 10-3 0-1.8 4.9-2.8 6.6-1.4 1.9 1.5 1.8 2.9-.2 2.9-2.2 0-1.4 5.6 1.1 7.4 1.9 1.4 1.9 1.6.3 2.8-1.1.9-1.5 2.2-1.1 4 .3 1.5.9 2.5 1.4 2.2.5-.3.9 0 .9.6 0 1.4 11.3.5 11.8-.9.2-.6 1.2-1.1 2.3-1.1 1.2 0 1.9-.7 1.9-2 0-1.4.7-2 2.3-2 4.7.1 7.6 4.8 4.1 6.8-1.7.9-1.6 3.3.2 11.9.5 2.9.3 3.5-2.5 5-1.7 1-3.3 2.9-3.6 4.4-.4 1.8-1.2 2.5-2.8 2.5-1.6-.1-2.4.8-3.3 3.4-1.3 3.9-3 5-3.6 2.3-.2-1-.4.5-.3 3.4 0 3.8-.6 5.9-2.2 8.2-1.3 1.6-2.3 3.9-2.3 5s-.4 2.2-.9 2.5c-1.2.8-2 5.5-.9 6.2.4.3.5 1.1.1 1.7-.4.7-.6 2-.5 3 .2 1-.8 3.1-2.3 4.8-1.6 2-2.2 3.5-1.7 4.3 1.1 1.4.9 10.7-.3 12.6-.5.8-.8 2.9-.7 4.7.2 2.4-.2 3.3-1.3 3.3-.8 0-1.5.9-1.5 2 0 1.3-1 2.4-2.6 3-1.7.7-2.4 1.5-2 2.5.3.8-.4 2.1-1.6 2.9-1.1.8-1.7 1.9-1.3 2.6.4.6 0 1.9-.8 2.8-.7.9-1.6 2.4-2 3.3-.4 1.1-1.4 1.5-3.7 1.1-2.1-.3-3.5 0-4.1.9-.7 1.1-1 1.1-2.1-.3-1.2-1.6-1.5-1.5-3.2.9-1.1 1.5-1.4 2.3-.8 1.9.7-.4 1.2-.3 1.2.3 0 .5-.5 1.3-1 1.6-.7.4-.7 1.3 0 2.6 1 1.8.6 2.3-1.2 2-.5 0-.8.7-.8 1.8 0 3.9-3.1 9.2-5.9 10.2-2.2.8-2.8 1.5-2.4 3 .6 2.2-2.2 5.9-4.5 5.9-1.1 0-1.3.9-.9 4.1.5 3.7.3 4.2-2.4 5.7-1.6 1-2.9 2-2.9 2.4 0 .5-.9.8-1.9.8-1.1 0-2.3.4-2.6 1-.3.5-1.5 1-2.6 1-1 0-1.9.3-1.8.7.4 2.5-1.6 5.3-3.5 5.3-2.2 0-6.5 2.7-10 6.3-1.4 1.3-1.5 2.1-.7 3.1 1.4 1.7.5 4.3-2.7 7.8-2 2.2-3.5 2.8-6.8 2.8-2.9 0-4.4.5-4.8 1.6-.3.8-1 1.2-1.6.9-.5-.3-1-.1-1 .5s-.4.8-1 .5c-.5-.3-1-1.8-1-3.3 0-1.9-.3-2.3-.9-1.3-.5.8-1.6 1.1-3 .6-1.5-.5-2.1-.2-2.1.9 0 1-.9 1.6-2.4 1.6-1.3 0-2.7.7-3 1.6-.3.8-1 1.2-1.6.9-1.5-.9-1.2.2.6 3 .9 1.4 2.3 2.5 3 2.5.9 0 1.4 1.1 1.4 3 0 1.6-.3 3-.7 3-1.9 0-7.5-4.2-8.5-6.5-.6-1.5-2.5-2.9-4.7-3.6-4.5-1.4-6.8-3.3-2.8-2.4 2.6.7 2.8.6 2.3-2.1-.5-2.6-2.1-4.3-3.9-4.4-.4 0-.3 1 .4 2.1 1.3 2.5-.4 4.2-3.3 3.5-2-.5-2.9 1.4-2.1 4.3.4 1.7.1 2.1-2.1 2.1-1.7 0-2.6.5-2.6 1.6s-.6 1.5-1.9 1.1c-1.7-.4-1.8-.2-1 2 .5 1.4.7 2.8.4 3.3-.2.4.4 1.5 1.4 2.4 1.1 1 2.2 2.9 2.6 4.3.5 2.2 1 2.5 4 2.1 2.8-.3 3.6 0 4.5 2.1l1.1 2.4 2.2-3.5c1.9-3 2.5-3.4 4.5-2.7 1.7.6 2.2.5 2.2-.7s.4-1.2 2-.4c1.1.6 2 1.7 2 2.5 0 1 1 1.5 2.9 1.5 1.7 0 3.3.5 3.7 1.1.4.8.9.7 1.6-.2.7-1.1 1.1-1 2.1.5.7 1.1 2.7 3.4 4.5 5.1 1.8 1.7 3.9 4.1 4.5 5.2.7 1.1 2 3.2 3.1 4.7 1 1.5 1.9 3.5 2 4.6 0 1 1.7 2.9 3.6 4.3 2.1 1.4 3.4 3 3.2 4-.2 1.1.4 1.7 1.8 1.7 1.1 0 3.9.9 6.1 2 2.2 1.2 4.4 1.8 4.9 1.5.6-.3 2 .1 3.2.9 2.8 2 3.8 2 3.8.1 0-.8.9-2.4 2-3.5 1.7-1.7 2.4-1.8 4.1-.9 1.6.8 3 .7 6-.5 2.2-.9 5.9-1.6 8.4-1.6 3.5 0 4.5-.4 5-2.1.6-1.7.9-1.8 2.2-.7.9.7 2.6 1.3 3.7 1.3 1.8 0 2 .5 1.8 3.2-.3 2.8 0 3.2 2.8 3.8 1.9.4 3.6.2 4.5-.5.8-.6 1.9-.9 2.4-.6.5.4 1.2.2 1.6-.3.4-.7 1.5-.7 3.1-.1 1.4.6 3.9 1.2 5.7 1.5 2.1.4 4.7 2.2 7.7 5.4 2.5 2.6 5.7 5.2 7 5.6 3.2 1 9 5.7 9 7.2 0 .7.6 1.3 1.4 1.3.7 0 1.9.7 2.6 1.5.7.8 2 1.5 3 1.5 2.1 0 5.4 3.5 4.6 4.9-.4.5-.1 1.3.5 1.7.8.5.8.8 0 1.4-1.7 1-.2 4 1.9 4 2 0 4.4 4.8 3.8 7.7-.2 1 .7 2.7 2 3.8 2 1.7 2.2 2.4 1.3 4.7-.9 2.5-.6 3.8 1 3.8.5 0 .6-.7.3-1.5-.8-1.9.6-1.9 3.1-.2 1.2 1 1.4 1.6.7 2.1-2.2 1.3-1.2 4.5 2.1 7 2.8 2.2 4.7 2.7 11.4 3 4.5.2 9 .9 10.2 1.5 1.6.9 2.1.9 2.1 0 0-.6.7-.8 1.5-.5.8.3 2.2.9 3 1.2 1 .4 1.5.2 1.3-.7-.2-1.1.7-1.3 3.9-1.1 5.1.4 8.3-.5 8.3-2.3 0-1.9 3.9-4.5 6.7-4.5 1.6 0 2.3.6 2.3 1.9 0 2.2-2.5 4.5-4 3.6-.5-.3-1 0-1 .8s-.7 2-1.5 2.7c-2.1 1.8-1.9 3.7.6 4.3 1.4.4 2 1.3 1.8 2.9-.3 3.5 1.1 7.7 2.5 7.2 1.5-.6 6.4 4.7 5.8 6.4-.2.7.5 1.2 1.6 1.2 2.7 0 5.5 3.4 4.8 5.8-.4 1.1 0 2.4.9 3.2 2 1.7 2 7.9 0 8.6-1.1.5-1.2 1-.6 1.8.6.7.9 2.5.8 4.2-.1 2 .3 2.9 1.3 3 3 .2 7 2.4 7 3.9 0 .8-.4 1.5-1 1.5-.5 0-1 .5-1 1.2 0 .6-.7 1.9-1.5 2.8-1.3 1.4-2.2 7.6-1.5 10.5.7 2.8 0 3.5-2 2.3-1.5-1-2.2-1-3.2 0-.6.6-2.2 1.2-3.5 1.2-2.8 0-2.9 1.1-.3 3.5 1.5 1.3 1.8 2.6 1.4 5.1-.4 2.5 0 3.8 1.6 5.4l2 2-2.4 1.1c-1.3.6-2.7 2-2.9 3.1-.3 1.1-1 1.7-1.6 1.4-.6-.4-.4 1 .4 3.3l1.3 3.9-4 3.7c-3.6 3.4-4.4 3.7-8.4 3.2-2.4-.2-4.4-.1-4.4.4s-.7.9-1.6.9c-.8 0-2.2.6-2.9 1.4-1.6 1.5-.7 2.7 3 4 1.7.6 1.8.9.5 1.9-1.5 1.2-1.6 5.7-.1 5.7.5 0 .6 2.2.3 4.9-.2 2.6 0 5.1.6 5.4.5.4-.1 2.7-1.5 5.8-1.9 3.9-2.3 5.9-1.8 9 .6 3.5.5 3.9-1.5 3.9-1.4 0-2-.5-1.8-1.6.2-1-.3-1.9-1-2.1-.7-.3-1 .1-.6 1.1.3.9.1 1.6-.5 1.6s-.8.7-.5 1.5c.4.8 1.1 1.5 1.8 1.5.6 0 2.5 2 4.1 4.4 3.5 5.3 6.4 7 8.3 5 1.4-1.5 7.7-2 6.7-.5-.7 1.3 3.4 4.1 6 4.1 1.2 0 2.6-.5 3.3-1.2.9-.9 1.2-.9 1.2 0 0 .6.6.9 1.4.6.8-.3 1.2-1.2.9-2-.4-1.1 0-1.2 2.4-.3 2.5.8 2.9 1.4 2.5 3.9-.3 2.5-.1 2.9 1.2 2.4 1.1-.4 1.9.2 2.6 2 .5 1.5 1.7 2.6 2.8 2.6 2.8 0 6.2 2.9 6.2 5.3 0 1.5 1 2.6 3.1 3.6 1.7.7 3.5 2.4 4.1 3.6.6 1.3 1.6 2.1 2.3 1.8.8-.2 1.9.5 2.5 1.7.7 1.4 1.9 2 3.3 1.8 1.2-.2 2.9.4 3.7 1.4 2.2 2.4 6 3.3 6 1.4 0-1.3.7-1.2 3.8.8 5.6 3.6 11.3 4.1 16.5 1.4 2.3-1.2 5.7-2 7.5-1.9 2.9.1 3.4-.2 4.4-3 1-2.9 1.3-3.1 4.6-2.5 1.9.3 4.5 1.4 5.7 2.6 2.2 2.1 9.5 2.9 9.5 1 0-.5.7-.7 1.5-.4.8.3 2.8-.4 4.5-1.6 2.3-1.7 3.4-2 4.3-1.1 2 2 4.9 1.2 8.3-2.5 1.9-1.9 3.9-3.2 4.4-2.9 1.8 1.1 8 1.3 8 .2 0-.6.9-.2 2 .8 1.3 1.2 1.8 2.5 1.4 4-.4 1.6.3 2.9 2.6 4.8 1.7 1.4 3.1 3 3.1 3.4 0 .4.7 1.2 1.5 1.6.8.5 1.2 1.2.9 1.7-.6.9 4.2 2.3 9.5 2.6 1.9.1 4.9.6 6.7 1.2 2.7.9 3.6.7 5.8-1 2.5-2 2.6-2 4.7-.2 1.1 1.1 2.2 1.8 2.4 1.6 1.9-1.1 6.4 3.1 6.4 6 0 1 .4 1.8.9 1.8 1.3 0 2.1-2.7 2.1-7.1 0-2.1.4-3.9 1-3.9 1.4 0 5-4.1 6.2-7 1.5-3.5 1.7-6.3.4-5-1.5 1.5-3.6 1.2-3.6-.4 0-.8-1.4-2.6-3.2-4.1-2.7-2.3-3.3-3.6-3.9-8.4-.4-4.2-.3-5.8.8-6.4 1.5-.9 1.7-4.1.3-6.6-.7-1.5-.4-2 1.5-2.9 3.1-1.5 3.2-2.6.1-4-2.3-1-2.4-1.5-2.2-9.6.1-4.7.8-9.1 1.4-9.9 1.2-1.5 1.8-7.8 1-11-.6-2.3-2.8-4.6-2.8-2.9 0 1.6-3.2 1.6-4.8 0-.7-.7-1.2-.9-1.2-.4 0 .4-1 0-2.2-.9-1.5-1-2.4-2.7-2.5-4.8-.1-1.7-.3-3.9-.4-4.7-.2-3.2.7-4.5 4-5.7 2.4-.8 4-.9 5.4-.2 2.1 1.2 4.7.5 4.7-1.1 0-.5-.9-1-1.9-1-2.8 0-3.4-1.5-3.6-8.9-.1-3.6-.5-8-.9-9.6-.7-2.6-.7-2.8.5-1.4 1.8 2.1 7.9 3.1 7.9 1.3 0-1.4 5.4-.9 7.5.6.6.4 4.4 1.1 8.5 1.4 4.1.4 9.3 1.6 11.5 2.6 6.4 2.9 8.5 3.3 8.5 1.7 0-1.1 1.7-1.7 6-2.2 5-.6 6-1 6-2.6 0-2.4 2.7-3.6 4.3-2 2.7 2.7 12.9-.9 14-5 .5-1.9 1-2.1 4.2-1.5 3.2.6 3.7.4 4.2-1.3.4-1.5 1.3-2.1 3.4-2.1 2.2 0 2.9-.5 2.9-2 0-2.3.4-2.4 3.1-1 1.5.9 1.9.7 1.9-.5 0-1.1.6-1.4 2.5-.9 1.6.4 3.4 0 5-1 1.3-.9 3.3-1.6 4.4-1.6 1.2 0 2.1-.9 2.4-2.8 1.9-8.6 1.9-8.9.2-10.5-1.5-1.6-1.5-1.7.4-1.7 1.2 0 2.1-.6 2.1-1.4 0-1 1.6-1.7 4.8-2.1 6.9-1 8.2-1.5 7.6-3-.3-.8.4-1.6 1.7-2 1.3-.4 4-2.4 5.9-4.4 2.9-2.9 4.5-3.7 7.4-3.8 2.6-.1 4.2-.8 5.2-2.2 1.3-1.7 2.6-2.1 7.7-2.1 3.5 0 6.9-.6 7.9-1.4 1.3-.9 3.1-1.1 6.5-.5 3.8.6 5.1.4 6-.8.7-.9 1.9-1.3 2.7-1 .8.3 3-.8 5.1-2.9 2-1.9 4-3.4 4.5-3.4.4 0 1.1-1.2 1.5-2.8l.7-2.7 1.1 3c1.2 3.9 3.7 6.7 5.3 6.1.7-.3 1.4.4 1.7 1.5.7 2.5 2.3 2.4 3.7-.1.6-1.1 1.9-2 3-2 1.4 0 1.8-.5 1.3-1.7-.5-1.4-.1-1.5 2.5-1 1.7.4 3.4.2 3.7-.3.4-.6 1.7-.7 3-.4 2.1.5 2.5.1 3.6-3.6.7-2.3 2-4.4 2.8-4.7 3.2-1 8.6-3.8 9.3-4.8.3-.6 1.9-3.1 3.5-5.7 1.6-2.8 3.3-4.6 4.1-4.3 1.3.5 4.6-1 6.9-3.2.7-.6 1.3-2.8 1.3-4.7 0-2 .5-3.6 1-3.6.6 0 .9-.3.8-.8 0-.4.6-2.4 1.5-4.4 1.9-4.3 2.4-9.6.6-6.6-1.3 2.3-4.4 2.4-3.5.2.3-.9.6-2.7.6-4.1 0-2 .3-2.3 1.3-1.4 1.9 1.5 2.9.2 1.2-1.6-2.1-2-2-12.6 0-14.3 1.1-.9 1.3-1.6.5-2.4-1.5-1.5-1.2-2.9.5-2.2 1.7.6 2.1-1.9.4-3-.6-.3-.9-1.4-.6-2.5.3-1-.3-2.5-1.4-3.5-1-.9-1.9-2.5-1.9-3.4 0-2.5-4.3-6-7.3-6-3.5 0-3.5-1.8 0-3.1 2.4-.9 3.1-.7 4.8 1.3 1.1 1.3 2.7 2.2 3.7 2 .9-.2 1.9.1 2.2.7.4.7 1.5.7 3.1.1 1.9-.7 2.5-.6 3 .9.3.9 1.9 3.2 3.6 4.9 1.7 1.8 2.6 3.2 2 3.2-.8 0-1 .8-.6 2.1s.1 2.7-1 3.9c-1.4 1.6-2.1 1.7-3.8.8-2.1-1.1-2.1-1-.4 1.5 2.2 3.5 2.1 4.3-.5 5.2-1.4.4-1.8.8-1 1.2.6.2 1.2.9 1.2 1.4 0 .6-.4.8-.9.5-.5-.3-1.1.4-1.5 1.7-.9 3.3-.8 3.5 1.8 3 1.9-.4 2.7.1 3.7 2.3.8 1.6 1.7 2.7 2.2 2.6.4-.1 1.5-.2 2.5-.2 1.6 0 1.9-.8 1.8-5.1-.1-4.7-.5-5.5-4.1-8.7l-4-3.5 5.3.6c4.4.5 5.2.4 5.3-1.1 0-1.2.3-1 1 .6.5 1.4 1.4 2.1 2.1 1.8.7-.3 2.1-.9 3.1-1.2 2.1-.8 2.2-1.8.1-3.8-.9-.9-1.1-1.6-.4-1.6.6 0 .8-.5.5-1-.9-1.4.4-5.2 1.6-4.5.5.4.9 1.4.9 2.4 0 1.2.9 2 2.5 2.3 1.6.3 2.2.1 1.8-.6-.4-.5-.9-2.6-1.2-4.4-.5-3.1-1.1-3.6-5.4-5-3.8-1.2-4.7-1.9-4.4-3.3.3-1 0-1.7-.6-1.6-.6.1-1.3-.8-1.5-2-.2-1.2-1.5-2.6-3.4-3.4-1.8-.7-3.4-2.4-4-4-.7-2-1.9-3-4.1-3.4-1.8-.4-4.2-1.6-5.4-2.7-1.8-1.6-2.7-1.8-5-1.1-2.5.9-3.1.6-5.5-2-1.6-1.7-2.8-3.9-2.8-4.9 0-1.3-.6-1.8-1.8-1.6-2.2.4-5.2-1.9-5.2-3.8 0-2.1-2.8-1.7-4 .6-1.6 2.9-2.8 2.5-4.8-1.7-1.3-2.7-1.4-3.7-.4-4 1.2-.5 1.7-5.5.5-6.6-.3-.4-.7-4.5-.9-9.2-.2-7.3-.6-8.8-2.3-10.3-1.6-1.3-2.2-3.2-2.6-7.7-.6-8.2-.7-8.5-2-8.5-.8 0-1-1-.7-2.6.3-1.8-.3-3.4-2.4-5.7-1.6-1.8-4-4.7-5.3-6.5-2.2-3.2-2.2-3.3-.2-2.3 1.5.9 2.9.8 5.4-.2 1.8-.8 4.7-1.2 6.4-1 2.6.4 3.1.1 3.7-2 .3-1.4 0-3.7-.9-5.3-.8-1.6-1.5-3.6-1.5-4.4 0-1.1-.9-1.6-2.7-1.5-2.2 0-2.9-.5-3.1-2.3-.2-1.2.1-2.2.6-2.2 1.4 0 .8-5.1-1-8.5-.8-1.7-1.8-4-2.2-5.2-.6-1.8-.4-2.1 1.4-1.6 1.3.4 2.6-.1 3.4-1.2.7-1 1.7-1.5 2.2-1.2.6.3.8-.9.6-3-.3-2.2-1.1-3.7-2.1-4-1.2-.3-1.7-1.6-1.8-4.5-.2-4.1-3.3-8.8-5.9-8.8-1.4 0-3-3.8-2-4.7 1-1-2.5-4.2-4-3.6-.9.3-1.5-.7-2-3.6-.5-3.2-1.2-4.3-3-4.7-1.2-.3-2.7-.4-3.1-.1-.5.3-2.3-.1-4.1-.8-1.8-.8-3.4-1.3-3.5-1.2-.2.1-2-1.1-4.1-2.6-2-1.6-4.3-2.6-5.1-2.4-.7.3-2.1-.1-3.2-.8-1.7-1.3-1.7-1.4 0-1.5.9 0 2.5-.8 3.5-1.8 1.3-1.3 3.2-1.8 7.2-1.7 7.1.2 9.6-.7 10.4-4 .6-2.5.9-2.6 5.1-1.9 3.6.5 4.9.2 7.1-1.5 1.5-1.2 3.3-2.1 4-2.1.9 0 1.4-1.1 1.4-2.8 0-1.5.5-3.3 1.1-3.9.8-.8.7-1.7-.4-3.4-1.5-2.1-1.4-2.3 3.9-6.2 3.2-2.4 5.3-4.6 5-5.4-.5-1.1 1.2-1.8 3.6-1.4.4 0 1-.8 1.3-1.9.4-1.3 1.5-2 3.1-2 1.7 0 2.4-.5 2.4-2 0-1.1.7-2.3 1.5-2.6.9-.4 1.5-1.9 1.5-4 0-2.3.5-3.4 1.4-3.4 1.4 0 6-6.6 5.8-8.5 0-.6-.3-2.5-.6-4.3-.3-2.2-.1-3.2.8-3.2.7 0 2-1.6 2.9-3.5 1.5-3.1 1.5-3.6.2-4.1-.8-.4-1.5-1.8-1.6-3.3 0-1.4-.4-3.5-.8-4.6-.6-1.4.3-3.5 3.3-7.9 2.3-3.2 5.3-7.1 6.7-8.5 3.1-3.1 4.7-10.8 2.9-14.1-1.5-2.8-.9-3.3 3.4-2.5 2.6.5 3.6 1.2 3.6 2.6 0 1.1.6 1.9 1.4 1.9 2.1 0 3-1.9 1.6-3.5-.6-.8-.9-1.9-.5-2.4.3-.6.3-3.3-.1-6-.5-3.8-1.1-5.1-2.6-5.4-1.1-.3-1.8-1.2-1.6-1.9 1.4-4-5.2-16.8-8.7-16.8-2 0-6-5.1-5.7-7.3.1-1.2-.8-3.4-2-4.8-2.3-2.5-6.1-9-5.6-9.4.2-.1 2.9-.7 6.1-1.4 6.2-1.4 6.2-1.3 4.7-4.2-1.3-2.3.2-2.6 2-.3.8.8 2.9 2.2 4.9 3 3.2 1.3 3.6 1.3 4.5-.3 1.9-3.4 1.6-5.1-1-5.7-1.4-.4-3.8-2-5.3-3.7l-2.8-3-4.4 1.9c-5.7 2.4-15.5 2.8-17.9.7-1.5-1.4-2-1.2-5.6 1.9-2.2 1.9-5.3 3.6-7 3.8-2.3.2-2.8.7-2.6 2.5.4 3.2-2.6 7.3-5.4 7.3-1.4 0-2.4.6-2.4 1.4 0 .8-.6 1.6-1.2 1.8-1.7.6-7.1-1.6-6.2-2.5.4-.4.2-1.3-.5-2-.6-.8-.9-2.1-.6-3 .4-.9-.2-2.1-1.3-2.8-1.9-1.4-2.2-1.9-2.2-3.9 0-.6-.6-1-1.4-1-1.6 0-2.6-2.1-2.6-5.3 0-2.7-2.2-9-3.7-10.8-.6-.8-1.1-1.6-1.2-1.9 0-2.1-1.7-3.9-3.9-4.5-1.5-.3-4.4-1.7-6.4-3.1-2.1-1.3-4.2-2.4-4.8-2.4-.5 0-1-1.1-1-2.5 0-1.5-.6-2.5-1.5-2.5-.8 0-3.8-1.1-6.7-2.4-2.9-1.4-6.5-2.8-8.1-3.1-1.6-.3-3.6-1.9-5-4-1.4-2.2-3-3.5-4.4-3.5-4.2 0-13.2-4.7-14.3-7.4-.5-1.4-2.1-3.2-3.5-4.2-1.4-.9-2.5-2.5-2.5-3.6 0-1.5-.4-1.7-1.8-.9-1.6.8-3-.1-8.3-5.5-3.5-3.5-7.1-6.4-8.1-6.4s-1.8-.5-1.8-1.1c0-.8-.4-.8-1.4 0-1 .9-2 .9-4 0-1.4-.7-2.6-1.5-2.6-1.9 0-.4-2.5-2-5.5-3.6-3.6-1.8-5.8-3.7-6.1-5.1-.4-1.3-1.4-2.3-2.4-2.3-1.2 0-2.1-1-2.5-3.1-.5-2.2-1.5-3.4-3.6-4.1-1.6-.5-2.7-1.4-2.4-1.8.3-.4-.1-1-.9-1.3-1.1-.4-1.3-2-.9-6.6.4-4.2.2-6.1-.6-6.1-.6 0-1.1-1.5-1.1-3.3 0-2.1-.7-3.6-2-4.5-1.1-.7-2-2.1-2-3.1 0-1.1-.9-2.2-1.9-2.6-2.1-.7-3.5-4.4-2.1-6 .5-.6.8-2.5.8-4.4-.1-2.3-.7-3.5-2.2-4.1-1.2-.5-1.8-.9-1.3-.9 1-.1-2.8-7.4-4.7-9-2.4-2-1.9-3.2.8-2.5 2.2.5 2.6.1 4.3-4.5 1-2.8 2.4-5.1 3.1-5.1.9 0 1-.5.2-1.9-1.4-2.8-1.3-2.9 1.6-2.3 2.5.5 2.6.3 2-2.3-.5-2.1-.4-2.6.7-2.2 1 .4 1.3-.1.9-1.9-.2-1.3-.9-2.4-1.4-2.4-.6 0-.8-.9-.5-1.9.6-2.3-3.2-3.8-4.5-1.8-.5.8-.8.4-.8-.9 0-2.5-2.7-3.9-4.5-2.4-.8.6-3.7 1.3-6.5 1.5-2.9.2-5.3.5-5.4.7-2.8 4.8-6.2 8.7-7.5 8.6-.9-.1-3.1 0-4.8 0-3 .2-3.3.5-3.3 3.2s-.3 3-3.3 3c-1.8 0-3.8.5-4.4 1.1-.8.8-1.7.8-2.9.1-1.2-.7-2.8-.5-5.2.5-2.7 1.1-3.7 1.1-4.9.2-1.2-1.1-1.3-.9-.8 1.4.7 2.4.4 2.7-2 2.7s-2.7.3-2.2 2.6c.2 1.4 0 3.6-.7 4.8-.9 1.8-1.9 2.1-6.3 2-2.9 0-5.3.3-5.3.8s-1.2 2-2.6 3.3c-2.1 1.9-2.3 2.5-1 2.5.9 0 1.6.5 1.6 1.1 0 .7-.8.9-2.2.4-1.3-.4-3.9-.9-6-1.2-3-.4-3.8-.1-4.8 1.7-.6 1.2-.9 2.9-.6 3.7.4.9.1 2.2-.5 3-1 1.1-.6 2 1.9 4.4 2.6 2.5 3 3.6 2.6 6.2-1.4 8-5.8 12.7-9.8 10.5-2.3-1.3-2.9-.6-1.7 2.4 1 2.7-.1 5.4-1.8 4.4-.6-.4-1.1 0-1.1.8 0 .9-.6 1.6-1.3 1.6-.8 0-2.1.8-3.1 1.9-1.5 1.6-1.5 1.9-.1 3.1 1.1.9 1.4 2.6 1.1 6.1-.3 2.7-.7 5.3-1.1 5.9-.3.5-.1 1 .4 1 .6 0 1.1-.6 1.1-1.3 0-.6 1 .2 2.1 2 2.1 3.3 1.9 5.3-.6 5.3-2.2 0-2.3 2.4-.1 3.5 2.5 1.2 3.7 6.1 1.3 5.2-1-.4-1.7.2-2.1 1.9-.6 2.4-3.9 3.4-5 1.5-.3-.5-1.5-1.1-2.6-1.4-1.5-.4-1.9 0-1.7 1.7.2 1.7-.4 2.2-2.9 2.4-2.7.3-3.3-.1-3.9-2.5-.5-1.5-.8-3.1-.7-3.5.2-.8-5.8-2.3-7.3-1.9-.5.2-3.1.5-5.6.7-5.1.3-5.1.3-5-8 .1-4-.1-4.6-1.3-3.7-1 .9-1.6.8-2.6-.4-1.7-2-4-1.9-4 .2 0 1.2-.9.6-3.2-1.9-1.8-1.9-4.1-3.8-5.1-4.2-1.3-.4-1.8-1.4-1.6-3.3.2-1.6 0-3.4-.5-4.1-.4-.7-.2-2 .5-2.8 1.6-2 2-4.2.8-5-2.1-1.3-.6-2.3 2.9-2 2.3.2 3.8.9 4 1.9.2.8 1.7 1.7 3.4 2.1 2.4.5 2.9 1 2.5 2.6-.6 2.4 1.8 4 6.2 4 2.8 0 3.1-.3 3.1-2.9 0-1.7.5-3.3 1.1-3.6.6-.4.8-2.6.5-5.6-.3-2.8-.1-4.9.4-4.9 1.9 0 1-3.7-1.5-6-1.7-1.6-2.3-3-1.9-4.4.3-1.4.2-1.7-.4-.8-.7 1.1-6.4 1.2-9.7.2-.5-.2-1.8 0-2.8.5-1.5.6-3.5-.9-9.8-7.4-8.5-8.6-12.4-15.3-11.4-19.4.4-1.5.1-3-.9-4-.9-.8-1.6-2-1.6-2.6 0-.6-.9-2-2-3.1-2.1-2.1-2.7-5.6-1-6.2.6-.2 1.2-2.9 1.3-6 .2-4.6.6-5.9 2.2-6.7 2-1 2-1-.2-1.6-2.6-.8-4.5-3.5-6.3-9-.7-2.2-2.1-5.2-3.1-6.7-1.1-1.4-1.9-3.1-1.9-3.7 0-1.4-3.5-1.4-5.9-.1-1.2.6-2.9.5-4.9-.2-2.8-1.1-3.3-.9-7.1 2.5-4.5 4.1-7.4 4.6-10.3 2-1.6-1.5-2.1-1.5-2.8-.3-.7 1.2-1.5.9-4-1.5-2.1-2-3-2.4-3-1.3 0 1-.8 1.4-2.5 1.2-1.9-.2-2.9.5-4 2.6-.8 1.5-2.8 3.6-4.5 4.7-2.7 1.7-3.7 1.8-9.8.9-6.3-1-14.1-4.6-9.9-4.6 2.3 0 3-2 1.8-5.3-.7-1.8-.7-2.7.2-3 .7-.3-.3-.8-2-1.2-1.8-.4-3.3-1.3-3.3-2 0-2.9-8-5.9-9.5-3.6zm5.5 6.5c0 .3-.4.8-1 1.1-.5.3-1 .1-1-.4 0-.6.5-1.1 1-1.1.6 0 1 .2 1 .4zm129 136.2c0 .8-.4 1.2-1 .9-.5-.3-1-1-1-1.6 0-.5.5-.9 1-.9.6 0 1 .7 1 1.6zm-4 3.9c1.1 1.3 1 1.4-.4.9-.9-.3-1.6-1-1.6-1.5 0-1.3.6-1.1 2 .6zm-302 365.5c0 .5-.2 1-.4 1-.3 0-.8-.5-1.1-1-.3-.6-.1-1 .4-1 .6 0 1.1.4 1.1 1zm-4 6.2c0 1.3-2.3.5-2.8-1-.2-.7.2-1 1.2-.6.9.3 1.6 1.1 1.6 1.6zm-5.7 7.8c.6 2.4-1.1 3.8-1.9 1.5-.4-.9-1.3-1.4-2-1.1-.8.3-1.1 0-.7-1 .8-2.1 4-1.7 4.6.6zm623.7 54c0 .5-.2 1-.4 1-.3 0-.8-.5-1.1-1-.3-.6-.1-1 .4-1 .6 0 1.1.4 1.1 1zm-2 3c0 .5-.2 1-.4 1-.3 0-.8-.5-1.1-1-.3-.6-.1-1 .4-1 .6 0 1.1.4 1.1 1zm-483.5 20c.3.5.2 1-.4 1-.5 0-1.3-.5-1.6-1-.3-.6-.2-1 .4-1 .5 0 1.3.4 1.6 1zm238 124.8c-.8.8-2.5-1-1.9-2 .4-.6.9-.5 1.5.3.4.7.6 1.5.4 1.7zm-13.5-.3c0 .8-.7 1.5-1.5 1.5-1.6 0-2-1.2-.8-2.3 1.1-1.2 2.3-.8 2.3.8zm-7.9 11.8c-.1 1.2-1.5.9-1.9-.4-.3-.6.1-1 .8-.8.6.3 1.1.8 1.1 1.2zm14.3 31c0 3.1-.4 6-.8 6.4-.3.4-1.9-.5-3.4-2-2.6-2.7-2.6-2.7-.4-2.7 1.3 0 2.2-.6 2.2-1.5 0-.8-.4-1.5-.9-1.5-.4 0-.6-1.1-.3-2.5.3-1.7 1-2.5 2.1-2.3 1.3.3 1.6 1.5 1.5 6.1z"/><path d="M292.42 67.735c0 .5.3 1.7.6 2.5.6 1.5.8 1.5 1.9-.1 1-1.3 1-2 .2-2.5-1.6-1-2.7-1-2.7.1zM540.42 73.835c0 .5.5 1.2 1 1.5.6.3 1 .2 1-.2 0-.5.9-.9 2-.9s2 .6 2 1.2c0 1.5 2.9 3.9 3.7 3 .3-.3.2-1.6-.4-2.9-.8-1.7-1.9-2.3-5.2-2.4-2.2-.1-4.1.2-4.1.7zM482.02 86.335c-.3.8-.1 1.5.3 1.5.5 0 1.1-.7 1.5-1.5.3-.8.1-1.5-.3-1.5-.5 0-1.1.7-1.5 1.5zM541.32 88.535c-.6 3.1-.4 11.3.2 11.3.5 0 .6-.8.2-1.8-.3-.9-.3-1.4.2-1 1.3 1.2 3.3-1.6 3-4.3-.1-1.3-.3-3-.4-3.7-.1-1.3-3-1.7-3.2-.5zM473.92 89.835c.3.5 1.8 1 3.3 1 2.1 0 2.4-.2 1.2-1-2-1.3-5.3-1.3-4.5 0zM546.52 95.135c-1.7 1.7-1.3 3.4.9 4 1.1.3 1.7.1 1.4-.4-.3-.6-.1-1.6.5-2.3 1.5-1.8-1.1-3-2.8-1.3zM85.42 127.835c0 .5.5 1 1.1 1 .5 0 .7-.5.4-1-.3-.6-.8-1-1.1-1-.2 0-.4.4-.4 1zM679.92 281.835c.9 1.6 2.3 3 3.2 3 1.3 0 1-.7-1.2-3-1.6-1.7-3-3-3.2-3-.2 0 .3 1.3 1.2 3zM49.92 332.735c-.2.5.1 1.4.9 2 1 .9 1.5.8 1.9-.3.6-1.5-1.9-3.1-2.8-1.7zM49.02 338.435c-2 2-2 2.1.4 3.4 1.5.8 1.8.8 1.4-.3-.3-.8.2-1.7 1-2 .9-.4 1.6-1.1 1.6-1.7 0-1.5-2.7-1.2-4.4.6zM27.42 600.435c0 1.4.3 1.4 1.5.4.8-.7 1.5-1.4 1.5-1.6 0-.2-.7-.4-1.5-.4s-1.5.7-1.5 1.6zM682.42 663.935c0 .5.5.7 1 .4.6-.3 1-.8 1-1.1 0-.2-.4-.4-1-.4-.5 0-1 .5-1 1.1zM216.72 704.035c-2.5 3.6-1.6 6 1.8 5.1 1.3-.4 2.9.3 4.4 1.7 1.4 1.3 2.5 1.8 2.5 1.1s.5-.9 1.3-.5c.6.4.2-.4-1-1.8-1.3-1.3-2.3-2.8-2.3-3.4-.1-.9-3.5-5.4-4.2-5.4-.1 0-1.3 1.5-2.5 3.2z"/><path d="M213.82 710.935c-.3.5-.3 1.3 0 1.7.2.4.1 1.4-.4 2.1-1.1 1.8.9 3.9 3.2 3.3 2.9-.7 5.9 3.7 5.3 7.5-.7 3.7 0 4 4 1.9 2.7-1.4 2.7-1.4.6-2.8-1.1-.7-2.1-2.3-2.1-3.6 0-1.4-.9-2.7-2.5-3.4-1.8-.8-2.4-1.7-1.9-2.7 1.4-3.5.9-4.5-2.4-4.7-1.8-.1-3.5.2-3.8.7zM232.12 731.935c.7.7 1.5 1 1.8.7.3-.3-.2-.9-1.2-1.2-1.4-.6-1.5-.5-.6.5zM235.02 734.335c-.4 1 .3 2 1.9 2.7 1.4.6 2.5 1.7 2.5 2.4s.6 1.5 1.3 1.7c1 .4 1 .6 0 .6-.7.1-1.3 1.1-1.3 2.3l.1 2.3 1.3-2.3c1.7-3.1.8-7.9-1.7-9.7-2.7-1.9-3.3-1.9-4.1 0zM438.52 799.535c-.2 2-4 3.6-5.6 2.3-1.8-1.5-3.2.7-1.6 2.3.9.9 1 .7.5-.8-.7-1.7-.5-1.8.7-.8.9.7 2.4 1.4 3.5 1.6 1 .1 2.5.6 3.2 1 1.7 1.1 1.5 3-.3 2.3-.9-.3-1.5 0-1.5.8s-.4 1.6-.9 1.8c-.5.1-1.1 1.2-1.3 2.3-.2 1.7.3 2 3.2 2.1 1.9 0 3.7.2 4 .3.3.2 1.4.4 2.5.6 1.1.1 2.7.5 3.6.9 1.8.8 5.4-2.7 4.6-4.6-.2-.8-1.8-1.4-3.3-1.6-1.6-.1-3.7-1.2-4.7-2.4-.9-1.3-2.6-3.3-3.6-4.5-1.1-1.3-2.2-2.8-2.4-3.5-.4-1-.6-1-.6-.1zM427.02 801.135c.3 1 .9 1.5 1.2 1.2.3-.3 0-1.1-.7-1.8-1-.9-1.1-.8-.5.6zM474.42 808.235c0 2-4.1 4.4-8.1 4.8-2.2.2-3.4.8-3.4 1.8 0 .8.5 1.4 1.2 1.3.6-.1 1.4.4 1.7 1.3.3.8.2 1.2-.3.9-1.9-1.1-2.3 1.7-.5 3.6 1.4 1.6 1.5 2.3.6 4.5-.7 1.3-1.2 2.9-1.2 3.4 0 1.5 3.6 1.2 4.9-.4.7-.8 2.3-1.7 3.7-2 1.5-.4 2.2-1.1 1.8-1.8-1.3-2.1-.5-7.2 1.3-8.5 1.4-1.1 1.5-1.7.6-3.2-.9-1.4-.8-2.1.3-3.2 1.2-1.2 1.1-1.6-.6-2.7-1.6-1-2-1-2 .2zM429.02 811.335c.4.8 1 1.5 1.5 1.5.4 0 .6-.7.3-1.5-.4-.8-1-1.5-1.5-1.5-.4 0-.6.7-.3 1.5zM478.42 814.335c0 .8.2 1.5.4 1.5s.6-.7 1-1.5c.3-.8.1-1.5-.4-1.5-.6 0-1 .7-1 1.5zM430.82 854.635c0 1 .8 1.9 1.9 1.9 1.2.1 1.7-.4 1.5-1.5-.5-2.4-3.4-2.7-3.4-.4z"/></g></svg>