<?xml version="1.0" standalone="no"?>
<!DOCTYPE svg PUBLIC "-//W3C//DTD SVG 20010904//EN"
 "http://www.w3.org/TR/2001/REC-SVG-20010904/DTD/svg10.dtd">
<svg version="1.0" xmlns="http://www.w3.org/2000/svg"
 width="451.191763pt" height="1052.261403pt" viewBox="0 0 451.191763 1052.261403"
 preserveAspectRatio="xMidYMid meet">
<metadata>
Created by potrace 1.15, written by Peter Selinger 2001-2017
</metadata>
<g transform="translate(-789.523707,1563.027934) scale(0.100000,-0.100000)"
fill="#222222" stroke="none">
<path d="M8304 15615 c3 -9 -1 -18 -9 -21 -9 -4 -15 -19 -15 -36 0 -25 -4 -29
-22 -27 -13 2 -29 0 -36 -5 -8 -5 -18 -4 -24 2 -6 6 -17 8 -25 5 -16 -6 -53
24 -53 44 0 7 -8 13 -18 13 -15 0 -18 -6 -14 -32 2 -18 9 -39 14 -45 6 -7 7
-20 4 -29 -4 -9 6 -30 24 -52 16 -20 30 -42 30 -49 0 -7 27 -40 60 -74 33 -33
60 -69 60 -79 0 -10 7 -21 16 -24 8 -3 13 -9 10 -14 -5 -9 39 -84 46 -77 3 3
13 -4 23 -15 20 -22 71 -27 78 -7 3 9 7 9 17 0 10 -9 17 -9 32 0 15 10 20 9
27 -2 6 -9 18 -11 33 -8 21 6 24 12 26 65 1 32 13 89 27 126 18 50 22 73 15
86 -13 24 -13 33 0 25 16 -10 12 21 -5 35 -8 7 -15 19 -15 26 0 8 -6 11 -15 8
-8 -4 -15 -2 -15 4 0 6 -9 8 -20 5 -23 -6 -42 32 -33 67 5 21 3 22 -25 18 -18
-2 -32 -1 -32 4 0 4 8 8 18 8 10 0 2 9 -22 24 -23 14 -50 22 -67 20 -15 -2
-31 1 -34 6 -4 6 -10 8 -15 5 -5 -3 -11 -1 -15 5 -10 17 -38 12 -31 -5z"/>
<path d="M8650 15072 c-54 -8 -85 -77 -40 -89 11 -3 19 -10 18 -17 -3 -23 15
-86 29 -97 8 -7 23 -29 33 -48 10 -20 32 -49 48 -65 17 -16 41 -53 53 -83 21
-53 22 -56 5 -85 -10 -16 -19 -48 -20 -70 -2 -31 -7 -43 -23 -49 -12 -4 -24
-12 -28 -18 -3 -6 -15 -11 -26 -11 -21 0 -59 -19 -72 -35 -4 -6 -12 -3 -21 8
-22 29 -60 21 -90 -18 l-27 -35 22 -36 c15 -25 18 -39 11 -46 -7 -7 -7 -19 -2
-33 6 -15 4 -27 -3 -34 -19 -19 -15 -84 6 -99 9 -7 17 -18 17 -24 0 -5 11 -23
25 -40 14 -16 25 -38 25 -49 0 -10 5 -19 11 -19 5 0 7 -5 3 -11 -4 -7 3 -19
16 -29 12 -9 23 -28 24 -41 1 -18 7 -24 24 -23 12 0 22 -2 22 -5 0 -3 14 -12
30 -19 17 -8 30 -18 30 -24 0 -5 7 -16 15 -24 14 -15 10 -48 -6 -39 -4 3 -6
11 -4 18 7 17 -48 46 -98 53 -64 9 -97 24 -103 49 -3 13 -23 30 -51 44 -40 19
-48 20 -55 8 -4 -8 -28 -27 -53 -42 -34 -20 -53 -25 -75 -20 -22 5 -30 3 -30
-8 0 -16 -34 -50 -42 -41 -4 3 -9 -4 -13 -15 -5 -17 -10 -19 -25 -11 -10 6
-37 10 -59 10 -34 0 -41 -3 -41 -19 0 -14 -5 -18 -20 -14 -11 3 -17 9 -14 14
3 5 10 7 15 4 5 -4 9 -1 9 5 0 7 -7 9 -16 6 -9 -3 -23 -6 -31 -6 -14 0 -14 -3
2 -20 10 -11 13 -20 7 -20 -7 0 -12 4 -12 9 0 12 -39 21 -46 10 -3 -5 -2 -8 3
-7 14 4 70 -31 77 -48 4 -9 5 -17 4 -18 -28 -11 -44 -28 -46 -51 -2 -15 -15
-45 -28 -65 -23 -35 -24 -42 -14 -80 6 -23 8 -45 5 -49 -4 -3 -27 -10 -52 -16
-33 -7 -48 -16 -54 -32 -7 -20 -5 -23 16 -23 22 0 25 -4 23 -31 -2 -29 18 -53
46 -54 5 0 11 -6 14 -14 3 -8 0 -11 -6 -7 -22 13 -23 -16 -2 -39 15 -16 32
-23 57 -22 25 1 41 -5 53 -21 10 -11 20 -18 24 -15 8 8 36 -17 36 -33 0 -8 -8
-14 -17 -15 -14 0 -13 -3 5 -11 16 -8 22 -20 22 -43 0 -17 -4 -35 -9 -41 -5
-5 -12 -19 -16 -31 -5 -17 -2 -23 10 -23 9 0 15 -6 13 -12 -3 -7 3 -19 12 -28
9 -8 22 -27 28 -42 9 -23 9 -28 -2 -28 -21 0 -25 -31 -8 -64 11 -23 12 -34 3
-48 -8 -13 -8 -24 -1 -38 6 -11 8 -24 5 -29 -3 -5 1 -12 7 -14 7 -3 3 -6 -10
-6 -19 -1 -21 -4 -12 -21 5 -11 15 -29 20 -40 15 -29 12 -39 -9 -33 -13 3 -25
-5 -40 -26 -12 -17 -29 -31 -38 -31 -12 0 -14 -7 -9 -30 3 -16 2 -30 -3 -30
-9 0 -7 -53 3 -92 5 -17 3 -34 -7 -50 -30 -45 -21 -105 20 -147 8 -8 12 -22
10 -33 -3 -10 1 -25 10 -33 8 -8 11 -19 8 -25 -3 -5 0 -10 9 -10 8 0 28 -11
44 -25 17 -14 35 -25 41 -25 6 0 11 -6 11 -13 0 -8 9 -22 19 -31 15 -13 20
-14 24 -4 4 10 7 11 18 1 7 -7 21 -13 30 -13 20 0 53 -46 56 -79 1 -13 9 -31
17 -40 18 -20 21 -51 6 -51 -5 0 -10 6 -11 13 0 6 -5 1 -10 -12 -10 -26 -3
-43 10 -22 7 10 10 9 14 -3 5 -11 1 -16 -13 -16 -14 0 -20 -7 -20 -21 0 -11
-3 -18 -7 -16 -5 3 -8 -6 -8 -19 0 -19 4 -22 22 -18 17 5 25 -1 38 -30 10 -20
15 -45 12 -56 -7 -27 7 -34 68 -33 39 0 55 -5 73 -23 13 -13 21 -28 18 -33 -4
-6 8 -9 31 -7 21 2 43 -1 49 -6 18 -13 42 1 37 22 -6 23 13 60 32 60 7 0 15 5
17 12 3 8 9 8 24 0 10 -6 13 -12 7 -12 -22 0 -14 -28 17 -60 17 -17 30 -34 30
-39 0 -15 69 -81 85 -81 8 0 18 -7 22 -15 8 -22 -2 -29 -18 -13 -19 18 -59 18
-59 1 0 -8 4 -12 8 -9 15 9 62 -30 92 -77 16 -26 50 -66 75 -90 25 -24 45 -49
45 -55 0 -6 16 -23 35 -38 19 -14 35 -33 35 -40 0 -21 21 -17 27 6 8 32 23 12
23 -31 0 -36 -2 -40 -20 -34 -21 7 -25 -2 -14 -29 6 -15 8 -15 20 1 11 15 12
6 10 -65 -4 -79 -3 -83 23 -101 17 -12 33 -16 46 -11 18 7 20 17 20 94 0 47 1
86 3 86 2 0 12 -5 24 -11 25 -14 35 -4 17 17 -12 15 -12 16 6 11 11 -4 32 0
47 7 26 14 68 12 68 -3 0 -4 -9 -15 -21 -25 l-21 -18 21 -22 c12 -12 18 -25
15 -29 -3 -3 -3 -11 1 -17 8 -12 45 15 45 33 0 14 32 36 52 37 9 0 29 11 43
24 22 20 25 28 16 45 -15 27 -14 31 7 31 12 0 23 13 31 36 12 33 11 37 -8 50
-12 9 -21 20 -21 26 0 28 -57 133 -94 171 -23 23 -45 50 -51 60 -11 19 -67 27
-97 13 -12 -6 -17 -2 -20 15 -2 12 -12 27 -23 33 -11 6 -26 19 -33 29 -7 9
-21 17 -31 17 -10 0 -23 11 -29 25 -7 14 -20 25 -31 25 -10 0 -22 7 -25 16 -4
9 -13 14 -21 10 -8 -3 -15 0 -15 7 -1 7 -6 6 -13 -5 -9 -11 -22 -14 -40 -11
-21 4 -26 10 -22 27 7 30 -9 50 -42 51 -21 0 -27 5 -25 18 2 9 -3 18 -10 18
-28 3 -34 4 -52 15 -12 7 -17 18 -13 28 4 9 1 16 -5 16 -7 0 -6 6 3 16 7 8 21
13 31 11 10 -3 21 -1 24 4 3 5 15 9 28 9 12 0 27 5 33 11 8 8 17 7 34 -5 13
-9 28 -16 34 -16 16 0 48 62 35 70 -14 9 11 61 28 55 14 -5 16 11 2 20 -6 4
-8 10 -5 14 2 5 -6 6 -19 4 -17 -4 -25 1 -29 16 -6 23 3 27 20 10 16 -16 24 3
17 40 -4 16 -11 29 -18 28 -6 -1 -10 3 -9 10 2 7 -11 20 -27 30 -17 9 -32 24
-35 33 -3 8 -18 30 -34 47 -16 18 -27 34 -25 36 8 7 -40 34 -72 40 -17 3 -35
2 -41 -4 -6 -6 -27 2 -56 21 -26 16 -49 30 -50 30 -1 0 -2 -18 -2 -41 0 -22
-6 -43 -12 -47 -7 -5 -14 -19 -15 -32 -2 -17 3 -25 17 -28 30 -6 45 -22 45
-47 0 -28 -24 -39 -53 -23 -12 7 -28 11 -34 10 -15 -3 -17 22 -3 48 11 20 -11
47 -30 35 -5 -3 -15 6 -20 20 -7 19 -15 25 -26 21 -9 -3 -20 -6 -26 -6 -6 0
-8 -12 -5 -27 l5 -27 -18 24 c-10 14 -17 27 -14 29 2 2 -1 10 -7 18 -9 9 -8
13 0 13 8 0 9 6 3 18 -5 9 -7 23 -5 29 3 7 -7 17 -21 23 -14 5 -26 14 -26 19
0 5 -3 16 -6 24 -4 12 0 14 17 10 31 -8 49 20 49 79 0 26 5 48 10 48 15 0 12
26 -5 40 -11 9 -12 16 -5 25 6 7 11 41 11 76 1 66 14 99 38 99 11 0 11 4 -2
18 -10 10 -14 22 -10 27 5 4 3 5 -4 1 -6 -3 -14 -2 -18 4 -3 5 0 10 8 10 16 0
57 53 57 74 0 8 5 18 11 21 6 4 8 13 5 21 -4 10 2 14 21 14 25 0 25 1 9 18
-15 18 -15 20 2 35 10 10 24 17 30 17 7 0 12 5 12 10 0 6 11 15 24 20 23 8 23
11 12 44 -17 48 -19 49 -61 32 -49 -21 -65 -20 -65 3 0 11 -5 23 -11 27 -8 4
-9 -1 -4 -16 6 -20 5 -21 -14 -11 -29 16 -26 27 9 40 20 7 30 17 30 30 0 12 6
21 14 21 8 0 16 7 20 15 3 8 14 15 25 15 11 0 22 4 26 10 3 5 12 7 20 3 8 -3
15 0 15 7 0 7 8 10 20 7 12 -3 33 1 48 9 15 8 33 14 40 14 6 0 12 8 12 19 0
24 24 44 47 39 15 -4 76 30 93 52 3 4 13 9 22 13 17 6 14 47 -3 47 -20 0 -7
18 26 36 24 13 35 26 35 41 0 13 5 23 10 23 24 0 21 32 -5 56 -16 14 -24 31
-21 40 3 8 -1 17 -9 20 -13 5 -13 9 0 27 8 12 25 27 37 35 13 7 15 11 6 8 -11
-3 -15 0 -12 8 6 15 97 38 117 30 19 -7 39 -52 27 -59 -18 -11 -10 -25 14 -25
28 0 32 8 41 83 4 32 11 57 14 57 4 0 7 10 7 22 -1 15 6 24 19 26 29 6 36 24
20 49 -8 12 -15 39 -15 60 0 21 -7 46 -15 56 -7 11 -11 25 -9 32 3 7 -2 15
-11 19 -10 3 -15 12 -12 20 6 16 -31 96 -44 96 -5 0 -9 7 -9 15 0 8 -12 21
-27 29 l-28 15 33 1 c22 0 32 5 32 15 0 8 5 15 10 15 13 0 13 11 0 30 -8 12
-12 13 -19 1 -12 -18 -53 3 -45 24 4 9 1 22 -6 30 -10 13 -9 15 9 15 28 0 34
17 22 69 l-9 43 26 -7 c15 -4 29 -11 33 -16 6 -10 18 2 69 63 19 23 37 35 46
31 16 -6 46 12 94 56 24 21 38 28 49 21 19 -10 53 24 44 46 -3 8 5 18 21 25
27 12 31 24 20 54 -4 10 -9 13 -13 6 -4 -6 -22 9 -41 34 -38 48 -55 57 -47 24
8 -31 -15 -51 -45 -40 -28 10 -78 72 -78 96 0 25 -52 65 -71 54 -12 -6 -42 5
-105 36 -49 25 -95 45 -102 45 -7 0 -27 16 -44 36 l-32 36 -9 -26 c-7 -20 -15
-26 -31 -24 -11 1 -34 -6 -50 -17 -27 -18 -30 -18 -58 -2 -35 20 -55 22 -60 5
-3 -7 -11 -9 -24 -3 -10 4 -24 7 -30 6 -6 0 -24 6 -40 14 -33 17 -68 20 -59 5
13 -20 -58 2 -80 25 -5 6 -21 9 -35 7z m215 -1308 c14 -9 31 -14 39 -11 20 8
39 -18 32 -41 -4 -11 0 -24 9 -32 15 -13 17 -60 2 -60 -4 0 -25 14 -46 30 -23
19 -47 29 -62 28 -21 -3 -24 1 -25 29 0 17 -7 39 -15 49 -12 16 -12 17 3 11
10 -3 20 -2 23 3 8 13 12 13 40 -6z m-210 -564 c3 -5 1 -10 -4 -10 -6 0 -11 5
-11 10 0 6 2 10 4 10 3 0 8 -4 11 -10z m-335 -570 c0 -5 -4 -12 -10 -15 -5 -3
-10 -4 -10 -1 0 2 -3 12 -6 20 -5 12 -2 15 10 10 9 -3 16 -10 16 -14z m21
-137 c13 -17 13 -17 -6 -3 -11 8 -22 16 -24 17 -2 2 0 3 6 3 6 0 17 -8 24 -17z
m614 -510 c3 -13 2 -23 -3 -23 -11 0 -22 24 -22 48 0 21 15 5 25 -25z m205
-83 c0 -5 -4 -10 -10 -10 -5 0 -10 5 -10 10 0 6 5 10 10 10 6 0 10 -4 10 -10z
m-240 -60 c0 -5 -5 -10 -11 -10 -5 0 -7 5 -4 10 3 6 8 10 11 10 2 0 4 -4 4
-10z m-79 -210 c5 0 9 -4 9 -10 0 -5 -6 -10 -14 -10 -17 0 -29 27 -19 43 5 8
9 6 11 -5 2 -10 8 -18 13 -18z"/>
<path d="M8500 15056 c0 -8 4 -17 9 -20 5 -4 7 3 4 14 -6 23 -13 26 -13 6z"/>
<path d="M8495 14420 c3 -5 8 -10 11 -10 2 0 4 5 4 10 0 6 -5 10 -11 10 -5 0
-7 -4 -4 -10z"/>
<path d="M9640 13595 c-7 -9 -29 -15 -51 -15 -32 0 -39 -3 -39 -20 0 -27 -36
-45 -58 -28 -12 9 -11 5 3 -11 11 -14 15 -21 8 -18 -6 4 -14 3 -18 -3 -9 -14
-28 -13 -23 2 4 12 -30 42 -84 73 l-28 16 0 -38 c0 -21 -7 -46 -15 -56 -7 -11
-11 -25 -9 -32 3 -8 -4 -16 -18 -20 -37 -10 -72 -29 -81 -43 -5 -7 -13 -10
-18 -6 -6 3 -18 -2 -28 -12 -16 -17 -17 -23 -3 -62 11 -33 11 -46 2 -57 -6 -8
-9 -23 -5 -35 4 -12 1 -28 -6 -36 -7 -8 -13 -32 -14 -52 -2 -20 -8 -50 -14
-65 -8 -21 -8 -34 1 -50 10 -20 12 -20 18 -3 5 17 8 16 23 -8 10 -14 17 -36
18 -48 1 -48 -18 -144 -34 -175 -24 -45 -21 -80 8 -106 42 -38 42 -69 0 -108
-38 -36 -65 -80 -61 -101 2 -7 8 -25 15 -39 11 -22 11 -30 -2 -50 -9 -13 -19
-50 -22 -82 -5 -39 -15 -68 -31 -87 -27 -31 -31 -45 -11 -37 20 8 91 -36 96
-58 2 -11 12 -26 23 -33 11 -8 18 -23 16 -34 -2 -16 3 -22 22 -25 36 -5 49
-22 27 -34 -9 -6 -15 -14 -12 -20 4 -5 -4 -9 -15 -9 -17 0 -20 -4 -15 -17 17
-42 17 -56 1 -65 -9 -5 -14 -13 -11 -19 4 -5 8 -19 10 -31 5 -29 81 -95 117
-103 31 -7 72 -75 51 -82 -8 -3 -9 -12 -3 -28 7 -18 6 -27 -6 -33 -12 -7 -13
-14 -4 -36 5 -15 8 -32 5 -37 -4 -5 -2 -17 4 -26 18 -33 144 -5 140 31 -2 21
13 56 25 56 6 -1 22 -7 36 -15 32 -18 54 -19 47 -1 -4 10 3 13 28 11 28 -3 38
3 71 42 22 26 38 54 36 64 -2 12 3 19 12 19 9 0 16 7 16 15 0 13 7 15 34 10
31 -6 34 -4 44 23 6 17 20 33 32 37 22 7 22 14 5 60 -7 16 -2 14 23 -9 17 -15
43 -29 59 -30 15 -1 34 -5 41 -10 8 -5 18 -4 25 3 8 8 8 11 -1 11 -7 0 -12 13
-12 28 0 20 7 33 24 42 20 10 23 16 13 30 -8 14 -8 22 3 35 11 14 9 19 -18 43
-37 32 -80 111 -65 120 6 4 9 18 8 32 -1 19 -9 26 -36 32 -19 4 -40 5 -47 3
-8 -3 -15 7 -19 25 -4 21 -13 32 -29 36 -13 3 -24 10 -24 14 0 5 -9 6 -20 3
-14 -4 -20 0 -21 11 -4 44 -11 51 -36 35 -15 -9 -26 -8 -51 5 -17 9 -41 16
-52 16 -12 0 -31 5 -42 11 -15 8 -19 8 -14 0 12 -18 -10 -12 -28 8 -10 11 -24
17 -32 14 -8 -3 -14 -1 -14 5 0 14 27 23 46 15 13 -5 12 2 -6 36 -12 24 -21
55 -20 69 4 55 -1 68 -34 90 -21 14 -34 32 -34 45 -2 50 -10 89 -20 99 -17 17
-15 33 2 19 7 -6 21 -9 30 -5 14 5 15 2 7 -20 -6 -14 -6 -28 -1 -31 4 -3 10 1
13 7 3 10 9 9 22 -4 24 -22 60 -6 74 33 5 16 16 29 23 29 18 0 27 82 14 136
-8 31 -8 31 31 28 21 -2 42 -3 46 -3 5 -1 6 -5 3 -10 -3 -5 10 -28 29 -51 33
-39 35 -40 35 -17 0 14 3 33 6 41 5 14 10 12 31 -10 l24 -26 20 26 c11 14 27
26 35 26 8 0 14 5 14 10 0 6 8 10 18 10 10 0 27 6 37 14 17 12 18 16 5 31 -13
15 -11 20 16 45 17 15 34 40 38 55 4 15 10 25 13 21 3 -3 11 4 18 17 8 15 8
24 1 29 -7 5 -4 8 7 8 9 0 17 6 18 13 4 41 -5 74 -22 86 -10 7 -19 24 -19 37
0 13 -9 32 -21 42 -14 14 -18 26 -14 44 5 20 -1 34 -24 61 -22 24 -31 45 -31
69 0 37 -22 64 -75 91 -22 11 -50 13 -105 10 -67 -5 -77 -3 -94 16 -23 25 -29
26 -46 6z m-330 -1082 c0 -10 11 -26 25 -38 31 -26 43 -72 21 -81 -9 -3 -30
-1 -47 6 -27 12 -30 16 -25 45 6 28 2 36 -29 59 -42 32 -43 42 -8 53 21 7 31
5 45 -9 10 -10 18 -26 18 -35z m-97 -15 c-2 -5 -10 -8 -18 -8 -14 0 -28 27
-20 41 7 10 44 -23 38 -33z m227 -68 c0 -5 -4 -10 -10 -10 -5 0 -10 5 -10 10
0 6 5 10 10 10 6 0 10 -4 10 -10z m110 -33 c0 -5 -4 -5 -10 -2 -5 3 -10 14
-10 23 0 15 2 15 10 2 5 -8 10 -19 10 -23z m35 -87 c3 -5 2 -10 -4 -10 -5 0
-13 5 -16 10 -3 6 -2 10 4 10 5 0 13 -4 16 -10z m286 -177 l18 -32 -47 2 c-37
2 -47 6 -47 19 0 10 -6 23 -13 30 -20 20 -14 25 30 19 33 -5 45 -12 59 -38z
m-440 -6 c-13 -13 -26 -3 -16 12 3 6 11 8 17 5 6 -4 6 -10 -1 -17z m-186 -77
c3 -5 1 -10 -4 -10 -6 0 -11 5 -11 10 0 6 2 10 4 10 3 0 8 -4 11 -10z"/>
<path d="M10022 12905 c-10 -22 -9 -25 7 -25 23 0 34 25 17 39 -10 8 -16 5
-24 -14z"/>
<path d="M9985 12880 c3 -5 8 -10 11 -10 2 0 4 5 4 10 0 6 -5 10 -11 10 -5 0
-7 -4 -4 -10z"/>
<path d="M8867 12361 c-3 -12 3 -27 12 -35 25 -22 28 -20 29 19 1 28 -2 35
-17 35 -10 0 -21 -9 -24 -19z"/>
<path d="M8816 12325 c-3 -9 0 -15 9 -15 8 0 15 7 15 15 0 8 -4 15 -9 15 -5 0
-11 -7 -15 -15z"/>
<path d="M10095 11840 c-4 -6 0 -24 9 -40 8 -17 10 -32 5 -36 -5 -3 -9 -9 -9
-13 0 -9 31 -8 47 2 14 9 33 -22 33 -51 0 -10 6 -19 14 -19 15 0 20 53 5 62
-5 4 -9 17 -9 31 0 13 -4 24 -9 24 -6 0 -22 11 -37 25 -29 27 -40 30 -49 15z"/>
<path d="M8970 11749 c0 -5 5 -7 10 -4 6 3 10 8 10 11 0 2 -4 4 -10 4 -5 0
-10 -5 -10 -11z"/>
<path d="M8730 11476 c0 -9 5 -16 10 -16 6 0 10 4 10 9 0 6 -4 13 -10 16 -5 3
-10 -1 -10 -9z"/>
<path d="M9610 11320 c0 -5 5 -10 11 -10 5 0 7 5 4 10 -3 6 -8 10 -11 10 -2 0
-4 -4 -4 -10z"/>
<path d="M9383 10749 c23 -19 38 -43 47 -74 7 -25 15 -43 18 -40 3 3 15 -4 27
-15 19 -18 72 -19 60 0 -3 4 6 10 20 12 18 4 25 1 25 -11 0 -9 7 -26 15 -37 8
-12 12 -24 9 -27 -3 -3 -3 -10 0 -16 7 -11 46 22 46 39 0 6 11 3 25 -6 14 -9
28 -14 31 -11 3 3 -4 8 -16 12 -16 5 -19 12 -14 28 4 12 10 24 14 27 5 3 2 13
-5 23 -12 17 -14 16 -34 -9 l-22 -28 -15 22 c-8 12 -23 22 -34 22 -11 0 -22
11 -29 30 -9 28 -41 43 -41 19 0 -19 -51 0 -81 30 -15 16 -40 31 -54 34 -26 4
-25 4 8 -24z"/>
<path d="M9988 10630 c-8 -12 -24 -20 -39 -20 -36 0 -89 -20 -89 -33 0 -6 -9
-1 -20 11 -26 28 -28 28 -22 -5 6 -38 29 -55 55 -42 10 6 36 8 56 5 86 -15
101 -6 112 67 5 34 3 37 -18 37 -12 0 -28 -9 -35 -20z"/>
<path d="M10038 10494 c12 -8 22 -21 22 -29 0 -7 9 -17 21 -20 13 -4 18 -12
15 -22 -3 -8 -6 -19 -6 -25 0 -6 -9 -3 -20 7 -11 10 -18 20 -15 23 7 7 -25 42
-39 42 -7 0 -7 -3 1 -11 7 -7 4 -17 -14 -35 -23 -23 -54 -33 -52 -16 5 29 -5
49 -32 64 -33 20 -32 21 -96 -58 -19 -22 -25 -25 -38 -14 -12 10 -18 8 -36
-11 -12 -14 -22 -19 -25 -13 -22 52 -95 73 -150 43 -24 -13 -35 -15 -44 -6
-10 9 -14 9 -17 0 -3 -7 -13 -13 -24 -13 -10 0 -19 -7 -19 -15 0 -8 -3 -15 -6
-15 -12 0 -50 24 -61 39 -16 23 -25 8 -14 -23 10 -24 9 -26 -19 -26 -23 0 -30
-5 -30 -19 0 -11 -15 -34 -32 -50 -24 -22 -28 -31 -17 -31 9 0 19 -6 22 -13 6
-17 -3 -66 -14 -73 -5 -3 -4 -15 2 -27 9 -16 9 -22 0 -25 -9 -3 -9 -8 1 -21 8
-9 24 -41 37 -71 13 -30 29 -69 36 -86 9 -22 10 -35 2 -49 -7 -14 -7 -20 1
-23 7 -2 12 -18 12 -36 0 -17 7 -41 15 -52 8 -12 11 -25 7 -28 -4 -4 11 -6 33
-4 34 3 40 6 41 27 1 14 9 30 18 36 9 7 16 17 16 24 0 6 11 11 25 11 14 0 25
-4 25 -10 0 -13 66 -40 99 -40 22 0 26 -5 27 -31 1 -21 10 -38 24 -49 14 -11
18 -19 11 -21 -8 -3 -7 -10 3 -24 10 -13 18 -16 23 -10 5 6 33 9 65 7 45 -3
57 -7 61 -23 4 -14 -1 -21 -19 -25 -21 -5 -23 -9 -12 -22 7 -8 12 -23 10 -34
-2 -11 3 -18 12 -18 9 0 25 -18 35 -39 20 -39 83 -87 99 -77 5 3 17 -20 27
-52 10 -31 21 -64 25 -72 4 -9 11 -30 15 -48 4 -20 15 -36 27 -41 14 -5 22
-18 25 -42 2 -19 12 -41 22 -49 27 -22 34 -60 11 -60 -18 0 -30 -19 -30 -48 0
-8 -10 -26 -21 -39 l-22 -22 26 -35 c20 -25 36 -35 64 -38 41 -6 74 15 65 41
-6 18 25 41 56 41 17 0 23 -5 20 -17 -2 -10 -9 -19 -16 -19 -6 -1 -16 -2 -22
-3 -5 0 -10 -12 -10 -25 0 -17 -7 -27 -22 -32 -24 -7 -98 -79 -98 -95 0 -12
-27 -11 -67 3 -18 7 -33 18 -33 26 0 28 -35 7 -38 -23 -2 -17 -12 -39 -21 -50
-10 -11 -22 -33 -25 -50 -4 -16 -14 -38 -23 -47 -12 -14 -13 -23 -4 -49 7 -21
8 -36 2 -42 -7 -7 -7 -17 0 -29 7 -14 6 -18 -6 -18 -19 0 -20 3 10 -58 29 -60
29 -62 13 -62 -7 -1 -26 -11 -41 -24 l-28 -23 58 -59 c100 -101 157 -192 146
-233 -3 -14 3 -38 16 -61 17 -31 19 -43 11 -65 -14 -36 -13 -75 3 -75 6 0 25
-18 41 -40 17 -22 33 -40 38 -40 14 0 9 -27 -8 -41 -10 -8 -14 -24 -12 -46 3
-24 0 -33 -10 -33 -9 0 -13 -7 -9 -20 3 -11 1 -23 -5 -26 -5 -3 -7 -12 -4 -19
3 -8 0 -15 -5 -17 -14 -5 -17 -72 -4 -73 20 -1 36 -17 33 -33 -6 -42 62 -96
75 -59 3 8 13 5 36 -11 24 -18 31 -19 31 -7 0 13 4 13 35 -2 19 -9 35 -24 36
-32 0 -11 2 -12 6 -3 2 7 18 26 35 42 21 21 29 37 25 51 -3 12 -2 29 3 38 5 9
13 37 18 63 7 36 6 50 -4 59 -7 6 -11 16 -8 23 3 7 -2 19 -10 26 -17 13 -14
42 11 97 13 28 12 35 -6 76 -16 36 -19 52 -11 72 6 14 10 44 10 66 0 21 5 40
10 41 6 0 16 1 23 2 6 1 19 8 27 17 18 19 119 43 143 33 25 -9 20 -22 -12 -29
-16 -3 -38 -17 -50 -29 -15 -16 -30 -22 -44 -19 -17 5 -19 3 -11 -6 15 -17 5
-54 -12 -47 -8 3 -14 -1 -14 -9 0 -8 -8 -15 -18 -15 -27 0 -32 -9 -20 -34 23
-45 29 -58 45 -104 9 -26 17 -56 18 -67 1 -11 9 -19 17 -19 11 1 15 -7 13 -30
-2 -17 -3 -37 -4 -44 -1 -8 -6 -10 -13 -6 -10 6 -10 4 0 -8 7 -9 21 -14 31
-11 11 3 21 -2 24 -11 4 -9 15 -16 25 -16 34 0 90 -78 71 -97 -8 -8 -5 -17 7
-30 11 -11 24 -28 29 -37 14 -24 45 -10 45 19 0 12 9 33 19 47 11 13 23 37 26
51 4 15 14 27 21 27 24 0 74 42 74 62 0 11 5 16 10 13 10 -6 15 13 12 48 -1 9
2 17 6 17 12 0 -3 99 -23 159 -9 27 -30 67 -46 88 -17 20 -26 39 -20 41 6 2
11 8 11 13 0 6 -4 7 -10 4 -5 -3 -10 3 -10 14 0 14 9 23 28 27 38 9 82 36 76
46 -3 5 -10 6 -15 3 -14 -9 -23 25 -11 37 8 8 8 17 1 30 -6 11 -8 25 -6 32 3
7 -2 19 -12 27 -29 23 -91 53 -97 46 -4 -4 -21 4 -38 16 -18 13 -46 22 -66 22
-26 0 -35 4 -35 17 0 9 -4 20 -8 24 -13 13 -7 24 13 24 16 0 20 7 20 38 0 32
3 38 22 39 12 1 27 -2 33 -6 15 -12 55 -20 55 -11 0 4 -7 13 -15 20 -8 7 -15
16 -15 21 0 14 26 10 40 -6 7 -8 21 -15 31 -15 11 0 19 7 19 15 0 8 8 15 19
15 19 0 31 41 35 116 0 18 8 40 17 50 31 36 28 48 -15 66 -23 9 -51 17 -63 17
-13 1 -23 5 -23 9 0 5 39 9 87 9 65 0 88 3 91 13 3 8 16 26 29 40 l23 25 -21
16 c-17 13 -19 20 -11 35 6 11 7 27 1 41 -6 15 -5 23 2 23 7 0 9 10 5 24 -5
19 -1 25 17 30 14 4 18 9 11 13 -6 5 -15 19 -19 33 -10 32 -35 61 -47 54 -12
-8 -46 9 -110 53 -35 24 -48 29 -48 18 0 -9 -9 -15 -23 -15 -12 0 -40 -9 -61
-21 -34 -18 -40 -19 -48 -6 -8 15 -48 32 -93 40 -33 6 -55 19 -49 28 2 5 0 18
-6 29 -8 16 -8 20 4 20 11 0 14 11 13 44 -2 33 -5 42 -14 34 -9 -7 -16 0 -27
27 -14 33 -19 36 -42 31 -22 -6 -33 -1 -59 26 -45 46 -62 58 -80 58 -8 0 -15
6 -15 14 0 7 -7 19 -15 26 -8 7 -15 19 -15 28 0 8 -15 31 -34 52 -21 24 -36
53 -41 79 -4 23 -11 39 -15 36 -5 -3 -12 0 -16 6 -5 8 -8 8 -14 0 -5 -9 -10
-8 -20 4 -11 13 -8 16 19 21 27 6 31 10 31 41 0 19 3 32 8 29 4 -2 16 2 26 10
18 13 18 15 3 56 -12 30 -14 44 -6 49 8 5 -2 24 -30 57 -26 30 -44 63 -46 83
-3 19 -12 39 -21 46 -13 9 -14 15 -3 34 20 38 22 158 3 187 -15 23 -15 25 0
19 9 -4 16 -1 16 5 0 7 5 6 15 -2 18 -15 20 1 3 18 -7 7 -9 12 -6 12 8 0 -9
77 -25 113 -6 15 -18 27 -25 27 -8 0 -25 9 -39 20 -19 15 -30 17 -43 10 -13
-7 -21 -7 -25 0 -3 5 -11 10 -18 10 -6 0 -1 -7 11 -16z m102 -114 c0 -5 -2
-10 -4 -10 -3 0 -8 5 -11 10 -3 6 -1 10 4 10 6 0 11 -4 11 -10z m100 -1835
c23 -17 37 -22 45 -15 21 17 24 -24 5 -50 -20 -27 -41 -23 -65 13 -14 23 -30
77 -22 77 2 0 18 -11 37 -25z m540 -5 c0 -5 -2 -10 -4 -10 -3 0 -8 5 -11 10
-3 6 -1 10 4 10 6 0 11 -4 11 -10z m-35 -10 c-3 -5 -10 -10 -16 -10 -5 0 -9 5
-9 10 0 6 7 10 16 10 8 0 12 -4 9 -10z m-336 -127 c1 -21 -13 -14 -25 12 -9
18 -9 25 0 28 11 4 24 -17 25 -40z m221 -123 c0 -13 -7 -20 -19 -20 -14 0 -18
5 -14 20 3 11 12 20 19 20 8 0 14 -9 14 -20z m-177 -4 c4 -10 1 -13 -8 -9 -8
3 -12 9 -9 14 7 12 11 11 17 -5z m54 -47 c21 -8 24 -12 14 -19 -17 -10 -38 -3
-45 16 -6 17 -5 17 31 3z m78 -9 c3 -5 1 -10 -4 -10 -6 0 -11 5 -11 10 0 6 2
10 4 10 3 0 8 -4 11 -10z m245 -69 c0 -5 -7 -11 -15 -15 -15 -5 -20 5 -8 17 9
10 23 9 23 -2z"/>
<path d="M10052 9000 c0 -14 2 -19 5 -12 2 6 2 18 0 25 -3 6 -5 1 -5 -13z"/>
<path d="M9907 8953 c-19 -19 -5 -50 28 -63 22 -9 34 -20 33 -29 -2 -10 6 -17
22 -19 21 -2 29 5 51 52 25 54 26 56 6 62 -11 4 -26 0 -35 -10 -15 -15 -14
-16 8 -17 l25 0 -22 -16 c-13 -8 -23 -22 -23 -29 0 -11 -5 -11 -25 -2 -14 6
-25 15 -25 20 0 39 -25 69 -43 51z"/>
<path d="M11760 8796 c0 -9 -9 -16 -20 -16 -11 0 -23 -7 -26 -15 -4 -8 -12
-15 -19 -15 -8 0 -15 -10 -17 -22 -2 -17 -15 -26 -58 -38 -34 -10 -56 -22 -58
-32 -3 -15 -7 -15 -44 -2 -36 13 -43 12 -58 -1 -15 -14 -21 -13 -64 10 -26 14
-56 25 -67 25 -12 0 -19 7 -19 20 0 17 -13 25 -41 22 -3 0 -22 3 -42 8 -22 4
-39 4 -43 -1 -3 -5 -10 -6 -16 -3 -8 5 -9 1 -5 -10 4 -10 7 -22 7 -27 0 -5 26
-7 59 -5 63 5 81 -4 76 -37 -2 -12 9 -24 35 -37 25 -13 42 -30 49 -50 6 -18
15 -29 21 -25 18 11 65 -4 93 -31 20 -18 27 -21 27 -9 0 19 14 19 30 0 16 -19
25 -19 45 1 15 15 18 15 38 -4 36 -34 77 -45 97 -27 12 11 19 12 28 3 9 -9 12
-9 12 0 0 7 7 12 15 12 8 0 15 5 15 10 0 6 7 10 15 10 19 0 20 19 1 26 -8 3
-12 12 -9 20 7 20 23 17 23 -4 0 -28 20 -43 42 -31 25 13 23 24 -9 38 -21 10
-24 14 -13 21 12 7 12 12 2 22 -15 15 -16 32 -1 23 5 -4 18 0 27 9 12 10 22
12 32 6 36 -23 40 -2 8 33 -13 13 -34 28 -48 32 -37 11 -51 26 -45 46 4 13 1
19 -8 19 -8 0 -26 9 -41 21 -21 17 -26 18 -26 5z"/>
<path d="M10995 8679 c-11 -16 0 -21 30 -13 20 5 23 9 13 15 -18 12 -36 11
-43 -2z"/>
<path d="M11110 8679 c0 -7 -10 -9 -25 -5 -26 7 -35 -8 -11 -17 19 -7 86 11
86 23 0 6 -11 10 -25 10 -14 0 -25 -5 -25 -11z"/>
<path d="M11960 8629 c0 -6 5 -19 10 -30 13 -23 70 -55 70 -38 0 6 7 9 14 6
10 -4 13 -1 9 8 -3 8 -9 13 -13 10 -4 -3 -22 9 -40 25 -33 31 -50 38 -50 19z"/>
<path d="M10965 8010 c3 -5 8 -10 11 -10 2 0 4 5 4 10 0 6 -5 10 -11 10 -5 0
-7 -4 -4 -10z"/>
<path d="M10720 7346 c0 -28 -4 -31 -63 -41 -29 -5 -36 -9 -28 -19 7 -9 5 -23
-7 -49 -16 -34 -19 -36 -62 -33 -25 1 -58 8 -73 14 -16 7 -32 10 -37 7 -4 -2
-17 16 -28 42 -23 53 -33 39 -27 -39 5 -65 19 -88 58 -90 56 -3 62 -4 74 -11
6 -4 18 -4 27 -1 9 3 27 -1 41 -10 15 -10 26 -12 30 -5 9 14 45 1 67 -25 15
-18 17 -19 18 -3 0 9 4 17 9 17 12 0 41 -57 41 -80 0 -25 25 -43 49 -35 13 4
23 0 30 -12 5 -10 13 -15 16 -11 4 4 -9 44 -30 90 -51 117 -62 154 -70 230 -4
38 -13 72 -21 79 -11 9 -14 7 -14 -15z"/>
<path d="M10068 6993 c7 -3 16 -2 19 1 4 3 -2 6 -13 5 -11 0 -14 -3 -6 -6z"/>
<path d="M10573 6975 c-6 -14 -7 -22 -2 -19 5 3 14 -7 19 -21 13 -34 44 -30
48 6 3 27 -20 59 -41 59 -7 0 -17 -11 -24 -25z"/>
<path d="M10063 6958 c-1 -10 3 -18 9 -16 18 6 21 25 5 31 -8 3 -13 -3 -14
-15z"/>
<path d="M10107 6969 c8 -8 7 -19 -4 -40 -8 -16 -11 -34 -7 -41 5 -7 7 -25 5
-40 -1 -16 2 -28 8 -28 6 0 11 8 11 18 0 10 5 23 12 30 8 8 8 15 0 25 -7 8 -9
29 -5 50 5 31 3 37 -13 37 -13 0 -15 -3 -7 -11z"/>
<path d="M10735 6919 c-4 -5 -12 -9 -18 -8 -33 4 -53 -3 -65 -22 -10 -15 -11
-24 -3 -32 17 -17 13 -30 -6 -22 -10 5 -48 9 -84 9 -61 1 -66 0 -62 -19 4 -15
0 -14 -14 8 -10 16 -27 27 -40 27 -20 0 -23 -5 -23 -41 0 -24 -4 -38 -10 -34
-14 9 -52 -14 -44 -26 3 -6 15 -9 25 -6 11 3 19 1 19 -4 0 -8 -15 -13 -32 -10
-4 0 -5 -6 -2 -14 4 -9 0 -15 -9 -15 -9 0 -18 -8 -22 -18 -3 -11 -17 -24 -31
-31 -19 -9 -25 -17 -21 -32 4 -15 2 -19 -9 -15 -9 3 -12 1 -9 -4 13 -21 -19
-69 -50 -76 -16 -4 -42 -17 -57 -30 -37 -31 -63 -37 -89 -23 -17 9 -19 13 -8
20 8 5 9 9 3 9 -6 0 -17 -7 -24 -15 -7 -8 -19 -15 -26 -15 -8 0 -14 -7 -14
-15 0 -8 -5 -15 -10 -15 -6 0 -18 -16 -27 -35 -14 -29 -15 -42 -6 -65 7 -18 7
-32 2 -36 -5 -3 -9 -14 -9 -25 0 -19 -15 -26 -24 -11 -7 11 -66 3 -66 -9 0 -5
-7 -9 -16 -9 -10 0 -13 -6 -9 -18 3 -13 -4 -28 -21 -45 -15 -15 -22 -27 -15
-27 6 0 11 -7 11 -15 0 -9 7 -18 15 -21 8 -4 12 -10 9 -15 -9 -15 -24 -10 -24
7 0 14 -3 14 -15 4 -13 -11 -13 -15 -3 -22 10 -7 10 -9 -2 -5 -17 5 -82 -47
-93 -76 -5 -13 0 -27 14 -45 18 -24 19 -28 5 -38 -9 -6 -16 -16 -16 -21 0 -17
65 -83 82 -83 9 0 21 -7 28 -15 10 -12 15 -13 20 -4 4 6 13 8 19 4 18 -11 3
-64 -25 -90 -28 -26 -29 -31 -10 -51 17 -16 30 -19 21 -4 -9 15 1 12 44 -10
45 -22 51 -35 51 -99 0 -35 5 -53 20 -66 11 -10 20 -23 20 -28 0 -6 7 -19 16
-29 14 -14 14 -20 4 -33 -8 -10 -9 -15 -1 -15 6 0 23 -14 38 -30 14 -17 34
-29 42 -28 9 2 15 -3 13 -11 -2 -9 3 -11 13 -7 9 3 24 -4 37 -19 14 -16 28
-23 39 -20 12 4 23 -3 35 -24 21 -36 52 -46 76 -24 16 15 19 14 37 -8 17 -20
20 -21 21 -6 0 19 11 22 27 6 7 -7 13 -8 17 0 10 15 53 -7 59 -31 4 -14 11
-18 25 -13 11 3 23 1 27 -5 3 -5 18 -10 33 -10 14 0 46 -8 70 -17 36 -13 50
-14 74 -5 24 9 37 8 62 -3 17 -7 25 -14 19 -14 -7 -1 -13 -7 -13 -15 0 -12 8
-11 45 5 25 11 50 17 56 14 6 -4 18 0 27 8 9 7 25 17 34 20 15 5 16 10 7 31
-27 58 29 144 87 133 13 -2 25 1 27 7 3 8 11 7 27 -2 20 -12 21 -12 15 9 -5
15 -4 19 4 15 6 -4 14 0 17 8 3 9 10 13 16 10 5 -3 7 -12 4 -20 -8 -21 44 -18
59 3 13 17 14 17 32 0 11 -9 25 -17 32 -17 7 0 19 -16 27 -36 14 -32 17 -35
45 -29 52 12 74 28 71 53 -2 12 1 22 7 22 8 0 7 7 -1 20 -7 11 -18 20 -25 20
-7 0 -10 6 -7 14 3 8 -4 16 -19 20 -37 9 -34 54 5 87 26 21 31 35 35 80 6 77
10 84 29 65 8 -9 20 -16 26 -16 5 0 8 -7 4 -15 -3 -10 5 -20 26 -31 28 -14 32
-14 39 -1 5 9 17 13 28 10 13 -3 28 7 51 35 21 27 37 38 50 35 10 -3 31 2 46
10 25 13 33 13 56 1 17 -9 29 -10 33 -4 4 6 11 7 17 4 6 -4 35 -8 64 -10 29
-1 61 -7 72 -13 23 -12 32 -5 32 26 0 22 3 24 29 18 24 -5 30 -2 36 14 8 25
25 28 25 5 0 -13 7 -15 33 -10 17 4 42 7 55 6 19 0 21 4 16 26 -6 24 -5 25 14
15 11 -6 27 -8 35 -5 9 3 18 -2 21 -13 3 -10 24 -26 47 -35 37 -16 40 -16 35
-1 -4 9 1 24 10 34 12 13 13 22 5 38 -6 11 -11 35 -11 53 0 37 -6 48 -35 64
-11 7 -19 18 -17 26 1 9 -5 21 -13 28 -10 9 -15 9 -15 1 0 -6 -9 -11 -21 -11
-14 0 -19 5 -16 15 6 14 -35 55 -55 55 -5 0 -21 13 -37 29 -20 20 -35 27 -52
24 -26 -4 -58 21 -118 96 -32 41 -34 42 -48 22 -15 -22 -67 -29 -78 -11 -15
25 -195 -13 -195 -41 0 -16 -36 -10 -58 11 -12 11 -26 20 -31 20 -6 0 -26 11
-45 24 -29 19 -33 25 -19 30 15 6 15 8 1 23 -19 19 -38 10 -38 -19 0 -19 -2
-19 -21 6 -12 15 -30 26 -45 26 -24 0 -24 0 -9 -31 15 -28 15 -33 -2 -69 -19
-43 -50 -61 -64 -39 -5 8 -4 15 1 17 15 6 12 19 -5 19 -8 0 -15 -4 -15 -9 0
-13 -32 -9 -49 6 -9 7 -29 18 -46 23 -21 7 -30 16 -30 32 -1 29 -20 40 -65 37
-19 -2 -43 1 -53 6 -10 5 -27 6 -37 3 -19 -6 -17 -10 15 -52 39 -51 43 -70 18
-88 -16 -12 -15 -15 14 -32 18 -10 38 -28 44 -40 7 -12 23 -23 38 -25 22 -3
26 -9 29 -40 5 -54 -20 -76 -80 -74 -43 2 -48 0 -48 -20 0 -14 -15 -33 -46
-55 -26 -19 -58 -44 -71 -57 -16 -15 -31 -21 -44 -17 -14 5 -19 1 -19 -14 0
-14 -9 -23 -25 -27 -20 -5 -23 -9 -14 -20 6 -8 18 -14 27 -14 11 0 13 -8 9
-36 -5 -27 -1 -44 13 -64 10 -14 26 -45 35 -68 10 -23 21 -42 25 -42 4 0 11
-7 14 -15 4 -10 1 -15 -8 -13 -8 2 -24 -8 -35 -21 -21 -24 -22 -24 -51 -8 -27
17 -30 16 -74 -7 -35 -19 -46 -21 -46 -10 0 18 -20 18 -44 -1 -33 -25 -97 -1
-102 40 -1 6 -2 14 -3 19 0 5 -7 3 -15 -3 -10 -9 -15 -8 -20 4 -9 26 -29 17
-22 -10 9 -35 -19 -60 -64 -59 -46 2 -77 16 -124 57 -31 27 -45 33 -72 30 -41
-4 -54 13 -54 71 0 14 -11 38 -25 54 -30 36 -31 42 -6 35 23 -6 35 34 21 72
-5 14 -10 41 -10 59 0 19 -6 39 -14 45 -18 15 -9 49 15 56 14 5 18 12 14 26
-4 10 -3 19 2 19 13 0 9 108 -4 121 -20 20 -15 26 15 21 19 -2 33 3 46 17 11
12 25 21 33 21 8 0 11 5 8 10 -3 6 1 10 9 10 12 0 15 9 14 32 -3 27 1 33 27
40 17 5 42 6 58 4 16 -4 27 -1 27 6 0 6 9 3 20 -7 11 -10 36 -18 57 -19 30 -1
40 4 47 21 12 25 117 78 140 70 11 -5 16 0 16 14 0 18 4 20 26 15 21 -6 25 -4
20 11 -5 18 44 83 63 83 20 0 21 20 2 39 -11 11 -23 32 -27 47 -6 23 -4 25 15
19 15 -5 21 -2 21 10 0 12 4 14 18 6 10 -6 29 -7 41 -4 18 5 21 10 16 34 -6
25 -4 27 17 22 13 -3 28 -10 34 -14 6 -5 14 -6 17 -2 4 3 7 1 7 -5 0 -7 5 -12
10 -12 18 0 10 22 -10 27 -11 3 -20 10 -20 17 0 6 -14 19 -30 28 -30 17 -40
38 -18 38 6 0 1 11 -12 25 -13 14 -34 25 -47 25 -27 0 -40 24 -24 44 21 25 -6
55 -54 60 -13 1 -45 47 -45 63 0 7 7 10 16 6 9 -3 19 -1 23 5 4 7 12 6 25 -4
11 -7 16 -17 12 -21 -4 -4 -11 -1 -15 6 -5 8 -11 9 -15 3 -7 -12 22 -25 36
-16 12 7 64 -47 73 -76 6 -20 7 -20 26 4 10 13 22 39 25 56 5 25 11 31 25 27
22 -6 26 15 7 30 -7 6 -40 18 -73 27 -33 10 -74 24 -92 31 -21 9 -34 11 -38 4z
m-25 -359 c0 -5 -2 -10 -4 -10 -3 0 -8 5 -11 10 -3 6 -1 10 4 10 6 0 11 -4 11
-10z m568 -502 c-3 -7 -11 -13 -18 -13 -7 0 -15 6 -17 13 -3 7 4 12 17 12 13
0 20 -5 18 -12z m927 -138 c3 -5 2 -10 -4 -10 -5 0 -13 5 -16 10 -3 6 -2 10 4
10 5 0 13 -4 16 -10z"/>
<path d="M11381 6894 c-13 -30 -7 -44 19 -44 23 0 36 18 22 32 -6 6 -8 17 -5
24 10 26 -24 14 -36 -12z"/>
<path d="M11368 6816 c-18 -13 -41 -93 -29 -101 5 -2 1 -27 -8 -54 -16 -54
-23 -58 -103 -63 -26 -1 -34 -5 -28 -13 6 -8 -1 -10 -25 -7 -30 4 -35 1 -35
-17 0 -12 -8 -25 -17 -28 -25 -9 -34 -25 -27 -47 5 -13 2 -17 -7 -12 -8 4 2
-6 21 -23 31 -28 32 -31 12 -31 -12 0 -22 -4 -22 -10 0 -5 -8 -10 -18 -10 -11
0 -24 -12 -30 -26 -7 -14 -17 -22 -22 -19 -6 3 -10 1 -10 -4 0 -6 8 -11 17
-11 13 0 14 -3 6 -11 -6 -6 -9 -18 -6 -25 3 -8 -1 -14 -11 -14 -9 0 -16 -3
-16 -7 0 -11 51 -33 61 -27 5 3 29 -2 54 -11 56 -18 55 -18 55 0 0 8 -11 17
-25 21 -30 7 -32 20 -6 27 14 3 18 11 14 25 -5 20 -3 20 33 10 22 -7 46 -18
55 -25 8 -7 31 -13 51 -13 22 0 41 -7 53 -20 37 -41 85 -16 85 43 0 13 3 27 8
31 4 4 8 20 8 34 1 15 2 39 3 54 0 15 8 34 17 43 15 14 15 18 -1 42 -15 23
-16 25 -2 20 26 -10 37 21 20 54 -8 16 -12 37 -9 46 3 10 -3 29 -14 43 -16 20
-20 22 -20 8 0 -10 -5 -18 -11 -18 -7 0 -9 10 -5 26 5 17 3 23 -4 19 -12 -8
-13 5 -1 24 6 9 2 26 -11 47 -25 43 -29 45 -50 30z"/>
<path d="M10117 6694 c-4 -4 -7 -17 -7 -30 0 -12 -6 -25 -12 -27 -9 -4 -5 -12
12 -26 22 -17 23 -23 13 -40 -8 -12 -9 -22 -3 -26 11 -7 30 26 30 54 0 11 -4
22 -10 26 -5 3 -7 11 -4 18 6 17 -10 60 -19 51z"/>
<path d="M11620 6605 c0 -8 7 -15 16 -15 14 0 14 3 4 15 -7 8 -14 15 -16 15
-2 0 -4 -7 -4 -15z"/>
<path d="M11582 6594 c10 -10 20 -15 24 -12 3 4 -5 12 -18 18 -22 12 -22 12
-6 -6z"/>
<path d="M10981 6544 c0 -11 3 -14 6 -6 3 7 2 16 -1 19 -3 4 -6 -2 -5 -13z"/>
<path d="M10896 6495 c4 -8 1 -15 -5 -15 -6 0 -8 -7 -4 -16 3 -9 -3 -21 -16
-30 -15 -11 -20 -22 -15 -36 3 -11 8 -28 9 -37 2 -9 4 -18 4 -20 1 -2 8 2 16
9 13 11 21 8 45 -15 17 -16 30 -23 30 -16 0 6 9 21 20 33 11 12 20 28 20 35 0
7 5 13 10 13 18 0 50 39 50 61 0 17 -4 20 -22 16 -12 -3 -30 -2 -40 4 -21 11
-22 6 -8 -22 7 -13 7 -19 0 -19 -5 0 -10 7 -10 15 0 8 -5 15 -11 15 -6 0 -22
9 -36 20 -30 24 -45 26 -37 5z"/>
<path d="M10936 6265 c4 -9 11 -14 16 -13 15 5 11 23 -6 26 -11 2 -14 -2 -10
-13z"/>
<path d="M12299 6035 c-3 -2 -19 -5 -36 -7 -31 -2 -31 -2 -16 -31 8 -16 12
-35 9 -43 -3 -9 7 -19 29 -28 19 -8 35 -20 35 -25 0 -6 7 -11 15 -11 8 0 14 5
13 12 -2 6 6 13 17 15 42 8 49 13 37 25 -7 7 -12 25 -12 40 0 15 -3 28 -7 29
-27 3 -47 9 -56 18 -12 12 -21 14 -28 6z"/>
<path d="M11321 5251 c-8 -14 -7 -22 5 -32 8 -7 13 -17 11 -24 -3 -6 6 -10 22
-10 14 1 32 -3 39 -8 18 -14 15 4 -9 43 -33 53 -52 62 -68 31z"/>
<path d="M11425 5140 c-3 -5 -1 -10 4 -10 6 0 11 5 11 10 0 6 -2 10 -4 10 -3
0 -8 -4 -11 -10z"/>
</g>
</svg>
