<?xml version="1.0" standalone="no"?>
<!DOCTYPE svg PUBLIC "-//W3C//DTD SVG 20010904//EN"
 "http://www.w3.org/TR/2001/REC-SVG-20010904/DTD/svg10.dtd">
<svg version="1.0" xmlns="http://www.w3.org/2000/svg"
 width="618.000000pt" height="716.988574pt" viewBox="0 0 618.000000 716.988574"
 preserveAspectRatio="xMidYMid meet">
<metadata>
Created by potrace 1.15, written by Peter Selinger 2001-2017
</metadata>
<g transform="translate(-699.000000,1386.458291) scale(0.100000,-0.100000)"
fill="#222222" stroke="none">
<path d="M9455 13847 c1 -12 6 -35 10 -51 5 -20 4 -27 -3 -22 -18 11 -7 -56
17 -99 11 -22 21 -45 21 -52 0 -9 16 -13 46 -13 27 0 43 4 39 10 -7 12 5 13
23 1 10 -6 9 -14 -5 -39 -10 -18 -21 -32 -25 -32 -4 0 -5 -6 -2 -14 4 -11 0
-13 -16 -9 -13 4 -26 0 -31 -8 -12 -19 -11 -59 1 -59 6 0 10 -12 10 -28 0 -29
-34 -67 -50 -57 -6 4 -10 -1 -10 -9 0 -12 -10 -16 -36 -16 -32 0 -35 -2 -29
-22 6 -16 4 -20 -8 -15 -11 4 -16 -4 -21 -32 -6 -38 -47 -91 -71 -91 -7 0 -22
-16 -34 -35 -13 -22 -28 -35 -41 -35 -28 0 -25 -17 5 -24 14 -4 25 -13 25 -21
0 -21 38 -39 54 -26 6 6 22 8 34 4 28 -7 72 21 72 47 0 25 17 35 35 20 8 -7
15 -9 15 -4 0 5 7 1 15 -10 7 -10 18 -15 24 -12 11 7 9 -9 -9 -94 -4 -20 -3
-46 2 -59 4 -12 5 -33 2 -46 -4 -17 -1 -24 13 -28 10 -3 51 -13 91 -23 43 -11
72 -23 72 -31 0 -17 17 -17 23 0 4 9 7 9 18 -1 10 -10 11 -19 2 -42 -9 -25 -9
-32 5 -40 15 -9 15 -11 -4 -27 -32 -27 -45 -58 -44 -110 0 -77 -4 -123 -12
-123 -5 0 -8 -9 -8 -20 0 -15 -7 -20 -25 -20 -18 0 -25 -5 -25 -19 0 -10 -7
-21 -15 -25 -19 -7 -19 -20 0 -39 8 -8 11 -17 8 -21 -4 -3 1 -6 9 -6 34 0 41
-27 16 -69 -13 -23 -28 -41 -34 -41 -21 0 -46 -38 -39 -59 4 -13 2 -21 -5 -21
-17 0 -37 -23 -32 -38 2 -6 -3 -12 -11 -12 -7 0 -22 -9 -32 -20 -10 -11 -24
-20 -32 -20 -8 0 -29 -15 -46 -32 -18 -18 -57 -43 -87 -54 -30 -12 -54 -26
-53 -30 1 -5 5 -17 8 -26 9 -23 -17 -24 -35 -3 -7 8 -21 15 -32 15 -10 0 -21
-7 -24 -15 -4 -8 -14 -15 -23 -16 -10 0 -11 -2 -3 -6 6 -2 12 -9 12 -14 0 -6
-10 -5 -22 2 -16 9 -23 9 -26 1 -2 -8 -12 -6 -29 5 -25 16 -25 16 -20 -2 8
-26 -17 -59 -38 -52 -9 4 -15 1 -15 -7 0 -9 -7 -12 -19 -9 -20 5 -20 1 -7
-119 2 -18 -2 -28 -11 -28 -15 0 -36 -47 -27 -61 3 -6 -2 -21 -11 -35 -9 -13
-13 -29 -10 -34 3 -6 -3 -10 -14 -10 -15 0 -21 -6 -21 -21 0 -11 -5 -17 -10
-14 -6 3 -14 -5 -20 -19 -7 -19 -17 -26 -35 -26 -16 0 -25 -6 -25 -15 0 -23
-45 -41 -73 -28 -32 16 -72 11 -96 -11 -17 -15 -23 -16 -36 -6 -19 16 -52 5
-37 -13 6 -6 10 -16 11 -22 0 -14 31 -19 31 -6 0 6 9 11 20 11 11 0 20 5 20
10 0 6 7 10 16 10 8 0 12 5 9 10 -7 11 21 12 48 1 16 -6 16 -9 -7 -30 -23 -22
-24 -25 -9 -36 22 -17 9 -49 -17 -42 -17 4 -19 1 -14 -19 3 -13 2 -25 -2 -25
-36 -6 -71 -5 -79 2 -20 15 -100 39 -131 39 -19 0 -34 -6 -38 -15 -3 -8 -17
-15 -31 -15 -18 0 -25 -5 -25 -20 0 -11 -7 -20 -16 -20 -25 0 -94 44 -89 57 2
7 -4 18 -13 25 -21 16 -62 74 -62 88 0 5 7 10 15 10 24 0 17 39 -12 66 -14 13
-31 24 -37 23 -24 -3 -46 1 -46 9 0 5 10 8 23 8 16 -1 21 4 19 17 -2 10 2 25
9 33 11 13 9 14 -14 9 -17 -5 -27 -3 -27 4 0 17 -47 13 -54 -5 -3 -8 -10 -12
-16 -9 -5 3 -10 -1 -10 -9 0 -9 4 -16 8 -16 4 0 8 -9 8 -20 0 -11 -4 -20 -8
-20 -4 0 -8 -9 -8 -20 0 -16 -7 -20 -31 -20 -25 0 -29 3 -24 19 6 20 -9 37
-40 43 -14 2 -19 10 -17 25 2 12 -2 24 -8 28 -14 9 -13 42 3 48 7 3 5 6 -6 6
-9 1 -26 -4 -36 -10 -14 -9 -26 -9 -51 0 -40 13 -45 10 -29 -20 9 -17 9 -24 0
-27 -18 -6 -13 -19 10 -25 11 -3 23 -14 26 -25 2 -11 22 -28 44 -37 47 -22 71
-47 67 -71 -2 -10 2 -19 7 -19 6 0 16 -4 22 -8 21 -13 -7 -37 -29 -26 -16 9
-18 5 -18 -30 0 -30 6 -44 22 -55 l23 -16 -20 -37 c-11 -20 -19 -45 -17 -55 2
-10 0 -18 -5 -19 -96 -9 -119 -8 -130 7 -7 10 -13 12 -18 4 -4 -6 -20 -8 -40
-4 -19 3 -35 1 -39 -5 -4 -6 -15 -11 -25 -11 -14 0 -17 -6 -13 -28 2 -18 -2
-33 -12 -41 -16 -14 -22 -51 -8 -51 4 0 8 -36 8 -81 l1 -80 -29 -6 c-35 -7
-32 -27 6 -31 18 -2 30 -12 36 -28 5 -13 12 -24 15 -24 4 0 3 5 0 10 -3 6 -2
10 3 10 10 0 52 -55 52 -68 0 -5 7 -15 15 -22 22 -19 19 -73 -5 -88 -12 -7
-25 -10 -30 -7 -6 4 -10 1 -10 -4 0 -6 -7 -11 -17 -11 -22 0 -12 -9 18 -16 74
-17 113 -16 145 1 19 10 34 22 34 27 0 4 7 8 15 8 8 0 15 7 15 15 0 8 6 15 14
15 8 0 17 6 19 13 3 6 6 -9 6 -35 1 -36 6 -51 21 -60 12 -8 20 -24 20 -42 0
-25 2 -27 16 -15 12 10 17 10 23 0 11 -18 171 -23 171 -5 0 35 55 23 75 -17
18 -35 19 -39 1 -39 -9 0 -12 -7 -9 -20 3 -13 -1 -22 -11 -26 -10 -4 -16 -15
-15 -28 2 -11 -3 -31 -9 -44 -9 -15 -10 -28 -3 -39 9 -16 -8 -67 -33 -102 -6
-7 -11 -20 -12 -29 -3 -20 -56 -62 -69 -55 -5 3 -5 1 1 -6 8 -9 18 -9 40 -1
23 9 27 9 17 -1 -7 -7 -13 -23 -13 -35 0 -12 -5 -24 -11 -26 -5 -2 17 -23 51
-46 33 -24 58 -47 55 -52 -3 -5 -1 -12 5 -15 8 -5 8 -11 0 -20 -8 -10 -8 -19
-1 -34 6 -11 8 -26 5 -34 -3 -8 14 -38 38 -68 23 -30 43 -58 44 -64 2 -26 30
-76 45 -80 9 -3 19 -18 22 -33 7 -35 84 -89 107 -74 9 5 25 6 38 1 34 -13 72
-1 72 22 0 12 5 16 15 13 9 -4 15 0 15 10 0 14 3 14 34 -1 32 -15 38 -15 78 0
39 15 49 15 103 2 79 -19 78 -19 73 10 -6 29 -7 29 27 13 15 -7 24 -17 21 -25
-4 -8 3 -13 17 -14 42 -1 90 -23 93 -44 2 -11 13 -27 26 -35 12 -8 29 -23 37
-32 9 -10 23 -18 33 -18 9 0 20 -9 23 -20 3 -11 13 -20 22 -20 10 0 13 -6 9
-16 -3 -9 -6 -17 -6 -19 0 -2 -15 -7 -34 -10 -31 -6 -37 -14 -65 -76 -17 -38
-36 -69 -42 -69 -8 0 -10 -18 -5 -59 5 -42 3 -70 -7 -94 -15 -34 -15 -66 -2
-99 5 -12 2 -18 -8 -18 -8 0 -17 -7 -21 -15 -3 -8 -15 -15 -27 -15 -12 0 -23
-8 -26 -20 -3 -11 -14 -20 -24 -20 -14 0 -19 -7 -19 -27 0 -50 -44 -84 -96
-76 -33 5 -47 -8 -23 -23 11 -6 -16 -26 -53 -40 -10 -3 -19 -22 -23 -45 -4
-25 -12 -39 -21 -39 -10 0 -12 -5 -7 -12 4 -7 8 -25 9 -41 1 -22 -1 -25 -12
-17 -7 7 -11 17 -8 24 3 7 -2 13 -11 13 -10 0 -13 -6 -9 -19 8 -28 -17 -79
-37 -73 -13 4 -16 -1 -15 -27 1 -18 3 -35 6 -38 24 -23 40 -63 34 -87 -4 -16
-3 -25 1 -21 5 4 14 3 22 -3 16 -14 18 -79 1 -79 -8 0 -6 -6 4 -16 15 -16 15
-19 -3 -43 -18 -25 -19 -29 -4 -70 15 -43 16 -83 3 -97 -4 -3 0 -17 9 -30 14
-23 14 -26 -8 -58 -13 -19 -27 -32 -31 -30 -4 3 -8 -2 -8 -10 0 -9 -11 -18
-25 -22 -14 -3 -30 -15 -36 -25 -5 -11 -15 -16 -21 -13 -8 5 -9 1 -5 -10 4
-10 4 -23 0 -29 -4 -7 -9 -32 -10 -56 -2 -28 -10 -49 -21 -57 -9 -7 -25 -19
-35 -26 -11 -8 -18 -27 -19 -48 0 -19 -5 -41 -10 -47 -6 -7 -7 -21 -3 -30 6
-17 7 -17 16 0 9 15 13 16 27 5 13 -11 14 -11 6 2 -11 18 -13 60 -3 60 11 0
39 -30 39 -41 0 -20 18 -8 24 16 6 25 29 34 41 15 3 -5 13 -6 21 -3 9 3 27 -5
42 -19 41 -38 73 -53 82 -38 4 7 13 9 19 5 7 -4 18 -1 26 5 11 9 23 9 44 2 35
-12 57 6 67 56 6 29 7 30 28 16 13 -8 25 -11 29 -8 3 3 24 3 47 -1 35 -6 44
-13 58 -43 9 -21 27 -48 39 -61 18 -20 25 -22 36 -12 12 9 23 7 57 -10 33 -17
46 -19 63 -11 43 21 66 23 90 7 24 -15 57 -12 57 7 0 5 8 8 18 6 10 -2 37 9
59 25 22 15 48 27 59 26 44 -4 68 1 57 12 -6 6 -9 18 -6 25 4 10 -3 14 -23 14
-25 1 -27 2 -11 11 10 6 24 8 31 6 18 -7 38 37 24 51 -6 6 -1 9 16 9 30 0 56
19 56 39 0 8 8 14 18 14 10 0 40 7 66 16 47 16 48 17 41 53 -11 62 -28 89 -67
107 -20 9 -39 23 -42 30 -3 8 -12 11 -21 7 -13 -4 -16 -1 -13 18 2 17 -4 27
-23 36 -16 8 -33 30 -43 54 -13 32 -21 40 -39 37 -15 -2 -30 7 -49 31 -32 39
-31 36 -18 61 9 16 6 21 -15 26 -14 3 -25 10 -25 15 0 4 -13 16 -29 25 -17 10
-27 23 -24 31 6 15 39 18 48 3 4 -6 14 -9 23 -8 9 2 17 -4 18 -12 1 -8 9 -33
19 -55 17 -39 18 -40 27 -15 7 19 5 27 -8 37 -10 7 -12 13 -6 13 7 0 12 9 12
20 0 19 1 19 20 3 23 -20 26 -43 8 -61 -9 -9 -9 -12 2 -12 10 0 9 -4 -3 -18
-21 -23 -22 -42 -2 -42 8 0 15 -8 15 -17 1 -15 4 -14 20 5 15 18 25 22 42 16
13 -5 44 -8 70 -9 40 0 48 3 48 18 0 10 7 20 16 24 10 4 14 16 12 37 -3 28 0
31 23 29 21 -1 26 2 22 17 -3 10 3 23 14 31 11 8 23 23 27 34 5 13 10 16 13 7
3 -6 9 -10 13 -7 18 11 29 -31 16 -57 -11 -22 -10 -28 10 -54 13 -16 24 -37
24 -47 0 -11 10 -20 30 -23 36 -8 54 -28 47 -53 -3 -11 2 -29 9 -40 8 -11 10
-22 5 -25 -15 -9 -21 -64 -14 -128 5 -47 10 -62 25 -66 25 -6 23 -22 -4 -21
-44 1 -108 -14 -108 -25 0 -6 -6 -4 -13 4 -14 17 -86 45 -94 36 -4 -3 1 -6 10
-6 9 0 19 -5 23 -12 5 -8 2 -9 -10 -5 -16 6 -16 5 -1 -15 17 -25 21 -88 5 -88
-16 0 -12 -63 6 -88 9 -13 13 -30 10 -38 -9 -23 3 -37 20 -23 11 9 19 7 37
-12 12 -14 33 -32 47 -42 20 -14 22 -19 11 -26 -8 -5 -11 -16 -8 -24 3 -9 1
-18 -6 -21 -8 -3 -5 -10 8 -21 11 -9 19 -21 17 -26 -1 -5 4 -9 10 -9 7 0 23
-11 36 -24 l22 -24 -29 -7 c-24 -5 -31 -13 -40 -50 -14 -55 1 -89 34 -78 11 4
34 8 50 8 17 0 36 4 43 8 6 5 17 5 24 1 15 -10 100 -5 111 6 9 8 90 -41 102
-61 4 -5 13 -3 21 6 9 8 33 15 54 15 31 0 43 5 55 24 11 16 22 22 35 19 14 -4
20 0 20 11 0 9 15 22 33 30 28 12 36 12 65 -5 26 -15 32 -16 32 -4 0 8 11 17
25 21 28 7 32 25 10 47 -13 13 -13 16 2 21 18 7 43 -10 43 -30 0 -7 7 -17 16
-22 11 -6 13 -16 9 -35 -8 -29 -12 -32 -35 -17 -8 5 -10 10 -3 10 6 0 9 9 6
21 -5 18 -7 18 -24 -10 -10 -17 -27 -36 -38 -42 -10 -7 -17 -18 -14 -25 5 -15
-34 -8 -56 10 -11 8 -13 8 -10 -3 3 -7 20 -19 39 -25 19 -6 35 -18 35 -26 0
-8 3 -19 6 -25 4 -5 9 -27 13 -47 4 -22 22 -54 43 -78 l37 -40 19 30 c13 20
18 42 15 65 -2 19 0 35 5 35 18 0 46 45 40 65 -5 16 -3 18 8 8 20 -16 90 56
76 79 -6 9 -7 24 -2 34 4 11 7 25 6 32 -1 6 3 12 9 12 5 0 10 9 10 21 0 11 4
18 9 15 5 -3 12 6 15 19 4 14 11 23 16 20 6 -3 10 1 10 9 0 17 22 24 85 28 28
2 40 8 40 18 0 11 -16 17 -55 23 -30 5 -70 10 -88 13 -23 4 -32 10 -29 18 3 8
-1 25 -8 40 -12 23 -12 26 3 27 9 1 24 3 32 4 8 1 23 3 33 4 9 0 17 6 17 12 0
7 -11 8 -30 4 -23 -5 -30 -3 -30 9 0 8 5 18 10 21 16 10 1 25 -25 25 -23 0
-23 1 -9 28 28 53 11 68 -51 46 -22 -8 -52 -12 -67 -9 -19 3 -28 0 -28 -9 0
-18 -47 -49 -62 -40 -6 4 -18 8 -27 9 -9 1 -27 6 -41 12 -57 24 -73 26 -67 9
3 -8 1 -18 -4 -22 -6 -3 -8 -17 -4 -31 5 -21 3 -23 -13 -14 -11 6 -22 8 -25 5
-3 -3 -16 0 -29 7 -12 7 -31 12 -41 10 -11 -1 -26 7 -34 19 -11 16 -18 18 -28
10 -26 -21 -74 26 -79 77 -2 15 -56 58 -56 44 0 -17 -53 -9 -73 11 -14 14 -22
16 -32 8 -9 -8 -15 -8 -20 0 -4 7 -25 8 -56 4 -33 -4 -49 -3 -49 4 0 23 34 30
74 17 21 -7 45 -11 52 -8 8 3 21 0 28 -6 10 -8 16 -9 21 -1 3 6 11 8 16 5 16
-11 51 6 45 21 -3 9 1 14 14 14 24 0 37 20 19 31 -8 5 -10 9 -5 9 5 0 24 -17
43 -37 22 -25 36 -34 39 -25 3 6 20 12 38 12 17 0 48 11 69 26 23 15 45 23 56
19 19 -6 36 18 26 36 -4 5 7 6 23 3 17 -4 32 -1 36 5 4 6 12 8 18 5 7 -4 8 -2
4 4 -4 7 -2 12 3 12 6 0 11 7 11 15 0 8 7 15 15 15 9 0 18 7 21 15 4 8 12 15
19 15 7 0 19 8 26 17 8 9 9 14 3 10 -6 -4 -18 1 -26 11 -13 15 -19 36 -32 124
-1 9 -9 24 -17 34 -11 15 -6 14 26 -5 22 -13 44 -29 48 -37 5 -8 13 -12 18 -8
5 3 22 -2 37 -11 15 -10 21 -12 15 -4 -32 33 3 58 89 65 67 6 98 -1 98 -21 0
-18 30 -28 46 -14 8 6 14 28 14 48 0 29 7 44 36 72 20 18 45 52 56 74 11 22
26 43 32 47 8 5 7 11 -1 19 -18 18 -3 179 16 179 7 0 91 -169 91 -184 0 -4 -3
-5 -7 -3 -14 9 -15 -117 -1 -177 10 -47 18 -61 38 -70 26 -11 40 -25 40 -39 0
-5 -4 -6 -9 -3 -8 6 -10 -8 -14 -106 -2 -53 -4 -57 -22 -51 -17 5 -18 4 -7
-10 8 -9 11 -21 7 -27 -3 -5 -1 -10 4 -10 6 0 11 -12 11 -27 0 -36 13 -55 32
-48 8 3 21 -1 28 -10 20 -24 26 -18 22 20 -3 22 -12 40 -23 46 -18 9 -27 38
-11 40 33 3 50 11 67 33 12 15 27 26 35 26 23 0 80 75 80 104 0 14 4 26 9 26
5 0 11 11 13 25 3 14 1 25 -4 25 -5 0 -6 5 -3 10 8 12 114 3 131 -11 6 -5 17
-23 24 -39 13 -32 29 -37 60 -18 15 10 23 9 39 -6 12 -11 21 -26 21 -35 0 -20
58 -73 71 -65 5 3 7 9 4 14 -10 16 24 70 44 70 15 0 18 5 13 22 -4 16 -2 20
10 16 8 -4 21 2 29 13 7 10 19 19 26 19 7 0 13 6 13 13 0 6 14 21 30 32 18 11
29 27 27 35 -5 21 18 41 38 34 8 -4 22 -1 29 6 10 7 21 8 33 3 20 -10 70 -3
93 12 21 14 50 80 50 114 0 30 36 71 62 71 12 0 17 12 20 45 2 32 -1 45 -10
45 -9 0 -11 7 -7 20 4 11 -1 43 -10 71 -14 41 -20 49 -36 44 -13 -4 -19 -2
-19 8 0 8 -12 32 -26 53 -16 23 -22 40 -15 42 6 2 11 12 11 21 0 10 9 29 19
43 13 16 17 29 10 39 -13 20 -11 29 6 29 20 0 19 34 -1 65 -10 15 -12 25 -5
25 6 0 11 7 11 15 0 8 3 15 6 15 11 0 49 -23 56 -34 4 -6 13 -11 19 -11 19 0
37 -37 21 -42 -10 -4 -9 -9 4 -24 17 -19 18 -19 44 6 26 24 90 43 90 25 0 -11
67 -50 86 -50 12 0 31 8 63 27 2 2 -4 12 -14 23 -10 11 -15 23 -10 28 4 4 10
1 12 -6 4 -9 8 -10 18 -2 9 8 11 20 5 41 -7 22 -5 29 6 29 8 0 14 5 14 10 0
16 35 47 66 57 24 8 28 14 26 39 -4 28 -3 29 13 9 15 -18 16 -18 11 -2 -3 10
-6 25 -6 32 0 8 -7 11 -20 8 -11 -3 -26 0 -33 6 -8 6 -17 8 -21 4 -4 -4 -17 5
-29 19 -21 26 -24 26 -82 17 -77 -13 -75 -13 -107 -4 -19 5 -28 3 -28 -5 0
-20 -43 1 -82 41 -22 22 -35 45 -32 53 3 8 -4 20 -15 28 -12 8 -19 17 -16 20
3 3 -6 13 -20 22 -14 9 -25 23 -25 32 0 8 -10 28 -22 44 -12 16 -22 39 -23 50
-1 15 -19 29 -60 50 -63 31 -64 33 -69 130 -3 52 -6 58 -61 113 -45 45 -63 58
-84 55 -14 -1 -33 2 -41 7 -8 5 -24 11 -35 12 -10 2 -28 9 -40 17 -11 7 -42
16 -69 19 -27 4 -62 13 -77 21 -17 8 -31 10 -35 5 -3 -5 -14 -9 -24 -9 -27 0
-30 -30 -7 -68 14 -25 16 -33 6 -30 -17 4 -59 -36 -59 -56 0 -17 -39 -48 -52
-40 -4 3 -8 -6 -8 -20 0 -29 15 -43 24 -21 6 17 34 19 56 5 13 -8 11 -11 -7
-16 -28 -8 -28 -9 -2 -35 15 -15 19 -28 14 -47 -5 -22 -4 -24 8 -13 17 14 33
-1 21 -21 -4 -6 -3 -8 3 -5 17 11 62 -94 67 -155 3 -38 12 -67 25 -84 18 -23
19 -28 6 -41 -20 -20 -19 -21 14 -17 23 3 30 -1 35 -18 9 -36 21 -13 25 50 1
6 8 12 17 12 13 0 15 -6 9 -27 -3 -15 -12 -31 -18 -35 -7 -4 -9 -8 -4 -9 4 -1
12 -3 17 -4 6 -1 13 -3 16 -4 3 0 -2 -11 -10 -23 -9 -12 -16 -30 -16 -40 0
-11 -5 -15 -15 -12 -23 9 -65 -5 -65 -21 0 -9 -15 -23 -34 -32 -32 -15 -37
-15 -59 0 -24 15 -25 15 -20 -3 3 -11 0 -20 -6 -20 -6 0 -11 5 -11 10 0 6 -4
10 -9 10 -5 0 -7 -9 -4 -20 4 -16 2 -19 -11 -14 -20 8 -21 -9 -1 -26 22 -18
19 -36 -10 -58 -14 -11 -25 -25 -25 -31 0 -6 -4 -11 -10 -11 -5 0 -10 -6 -10
-14 0 -24 -32 -28 -47 -6 -8 11 -22 20 -31 20 -9 0 -26 7 -36 15 -11 8 -27 15
-37 15 -22 0 -25 82 -4 100 8 7 15 26 15 42 0 17 6 31 16 35 12 4 14 14 9 43
-5 28 -3 39 8 43 9 3 21 22 28 41 7 20 19 36 26 36 9 0 11 17 6 68 -5 53 -11
71 -30 87 -12 11 -24 33 -25 49 -1 16 -9 31 -17 34 -24 9 -60 55 -61 76 0 11
-7 27 -16 37 -13 14 -13 21 -3 37 17 27 -2 72 -31 72 -12 0 -25 10 -31 24 -6
13 -34 39 -61 56 -44 29 -49 36 -47 64 4 38 -38 103 -63 98 -21 -4 -35 18 -18
28 7 5 10 15 6 25 -3 10 -1 24 5 31 7 8 9 27 5 45 -5 26 -3 30 13 24 27 -8 35
24 16 61 -8 16 -15 39 -15 51 0 12 -8 26 -17 32 -15 8 -16 13 -5 30 16 28 15
31 -8 31 -11 0 -20 5 -20 11 0 6 -10 9 -22 8 -13 -2 -30 1 -38 6 -8 5 -29 8
-47 6 -17 -1 -41 3 -52 9 -15 8 -26 7 -40 -2 -17 -10 -24 -9 -45 12 -22 20
-29 22 -51 12 -38 -17 -92 -15 -99 4 -5 13 -9 13 -31 -3 -13 -10 -25 -25 -25
-34 0 -26 -68 -31 -108 -8 -19 11 -37 17 -42 14 -4 -3 -13 2 -20 10 -16 19
-30 19 -30 0 0 -14 -27 -20 -72 -17 -12 1 -18 -5 -18 -19 0 -17 -3 -19 -14
-10 -10 9 -15 8 -19 -4 -4 -8 -13 -12 -21 -9 -22 8 -31 45 -15 55 11 8 10 12
-6 25 -16 12 -22 12 -30 2 -6 -7 -19 -18 -30 -24 -11 -7 -19 -19 -17 -28 3
-19 -21 -21 -36 -3 -6 7 -9 23 -6 35 4 15 -2 28 -19 45 -29 26 -28 71 1 60 11
-5 13 -3 7 7 -5 8 -2 18 10 26 14 10 16 22 12 49 -3 19 -1 49 5 66 9 25 7 32
-7 43 -15 11 -14 13 9 24 20 9 32 9 51 0 19 -9 28 -9 37 0 17 17 25 15 31 -8
6 -23 37 -27 37 -5 0 8 6 14 12 13 7 -2 14 7 16 20 3 22 -12 30 -23 12 -4 -6
-11 -8 -16 -5 -17 11 -9 52 16 89 14 20 25 43 25 51 0 8 9 15 20 15 20 0 25
13 20 54 -1 13 3 17 14 13 12 -5 16 0 16 18 0 13 -4 27 -10 30 -5 3 -10 21
-10 38 0 18 -7 42 -15 54 -8 12 -11 24 -6 27 5 3 2 24 -6 47 -10 31 -11 50 -4
71 13 37 6 55 -25 61 -25 4 -34 -8 -11 -16 6 -2 9 -8 5 -12 -11 -12 -86 57
-87 81 -1 11 -7 26 -13 33 -10 11 -10 14 0 18 6 3 12 13 12 23 0 13 -5 17 -20
13 -16 -4 -20 0 -20 20 0 19 9 30 32 41 17 9 35 16 40 16 13 0 38 26 38 39 0
16 20 13 26 -4 5 -11 10 -12 26 -4 24 13 28 10 71 -57 24 -37 40 -50 65 -55
19 -4 38 -11 44 -17 14 -14 38 -4 31 14 -8 21 4 17 54 -16 50 -34 49 -34 66
-20 7 6 22 19 35 30 13 10 22 27 20 38 -4 24 21 72 39 72 7 0 13 4 13 9 0 5 8
8 18 7 13 -1 16 5 14 24 -1 14 -7 26 -12 28 -5 2 -12 19 -16 38 -3 19 -12 34
-20 34 -8 0 -14 -4 -14 -9 0 -5 -9 -7 -21 -4 -11 3 -18 11 -15 18 5 15 -47 69
-57 58 -4 -3 -7 1 -7 10 0 8 5 17 11 19 9 3 9 10 0 26 -8 14 -8 22 -1 22 5 0
10 7 10 15 0 8 -4 15 -10 15 -5 0 -10 9 -10 20 0 11 -6 20 -13 20 -19 0 -37
-21 -37 -42 0 -19 -25 -25 -35 -8 -4 6 -26 8 -55 4 -105 -14 -109 -5 -94 188
l6 76 -31 23 c-18 13 -29 29 -27 35 3 7 -2 18 -10 25 -11 9 -12 15 -3 25 6 8
8 14 4 14 -4 0 -3 6 3 13 13 15 3 32 -17 32 -8 0 -21 15 -30 32 -9 18 -21 31
-28 29 -6 -3 -25 11 -42 30 -33 36 -45 41 -57 22 -5 -8 -10 -7 -18 3 -20 25
-51 38 -69 27 -18 -10 -37 -3 -37 13 0 5 7 9 15 9 19 0 19 4 0 40 -9 16 -26
32 -38 35 -12 4 -36 27 -51 51 -24 38 -27 48 -15 56 11 8 10 9 -4 4 -24 -8
-69 3 -61 15 2 5 7 22 9 38 3 25 -1 30 -28 37 -36 9 -53 11 -83 13 -11 1 -29
9 -39 19 -16 14 -29 16 -75 11 -53 -6 -90 2 -90 21 0 5 8 14 18 20 16 11 16
11 -2 6 -15 -5 -17 -2 -13 13 3 11 1 21 -4 23 -5 2 -2 15 5 30 13 24 13 29 0
36 -8 5 -26 31 -39 58 -22 45 -22 50 -8 66 9 10 22 18 29 18 7 0 18 9 24 20
10 19 43 29 38 13 -4 -15 27 -53 44 -53 9 0 20 10 24 22 l7 23 9 -25 c13 -36
2 -70 -23 -70 -15 0 -19 -5 -15 -15 3 -9 0 -15 -10 -15 -8 0 -12 -5 -9 -10 4
-6 11 -8 16 -5 5 4 9 2 9 -4 0 -15 91 -54 122 -52 30 3 77 -26 78 -46 0 -14
22 -17 34 -5 4 4 12 8 17 8 5 1 14 2 19 3 15 2 12 37 -7 79 -9 20 -17 41 -17
47 -1 5 -14 16 -31 24 -24 12 -26 16 -12 19 12 2 16 9 13 19 -4 9 1 17 14 20
27 7 26 41 -2 71 -21 22 -22 25 -6 36 11 8 14 21 11 39 -6 28 -18 36 -26 15
-5 -15 -17 -6 -21 14 -1 7 -15 27 -32 44 -25 26 -33 30 -54 22 -19 -7 -27 -5
-37 9 -8 9 -11 23 -9 30 4 9 -5 13 -29 13 -26 0 -39 6 -51 25 -9 14 -14 31
-11 39 4 9 -3 16 -19 20 -13 4 -24 13 -24 22 0 8 -6 27 -14 42 -18 37 -10 106
12 97 13 -5 12 -2 -3 15 -10 11 -24 20 -31 20 -7 0 -25 16 -39 35 -15 19 -30
34 -33 34 -24 -4 -30 4 -27 33 l5 32 -17 -25 c-9 -13 -23 -28 -30 -32 -9 -5
-10 -15 -3 -32 8 -20 6 -25 -6 -25 -8 0 -13 4 -10 9 11 18 -7 42 -49 66 -23
14 -47 36 -53 50 -6 14 -17 25 -25 25 -24 0 -45 35 -34 56 5 10 6 16 2 12 -4
-4 -16 -3 -25 2 -15 8 -18 6 -15 -13z m289 -193 c3 -8 2 -12 -4 -9 -6 3 -10
10 -10 16 0 14 7 11 14 -7z m60 -191 c12 5 16 0 16 -18 0 -15 -5 -24 -12 -22
-7 1 -12 -4 -10 -10 4 -22 -27 -14 -53 12 -28 27 -31 43 -11 51 8 3 12 13 10
22 -3 9 6 4 19 -12 16 -19 31 -27 41 -23z m-478 -1621 c-9 -9 -37 8 -31 18 5
8 11 7 21 -1 8 -6 12 -14 10 -17z m-1226 -440 c-25 -4 -35 2 -26 17 5 7 13 7
27 -2 20 -12 20 -12 -1 -15z m1970 -712 c17 -17 18 -23 8 -46 -10 -22 -10 -28
6 -40 18 -13 57 -3 55 14 -4 22 3 33 16 28 8 -3 18 2 23 11 13 23 30 8 26 -24
-2 -19 7 -40 32 -69 19 -23 34 -53 34 -66 0 -13 7 -36 16 -53 9 -16 18 -39 20
-50 2 -11 6 -29 9 -40 4 -14 -2 -30 -20 -49 -18 -20 -25 -37 -22 -53 4 -19 1
-22 -14 -18 -11 4 -19 2 -19 -4 0 -6 3 -11 8 -11 15 0 43 -63 32 -74 -13 -13
-13 -59 1 -73 6 -6 8 -17 4 -23 -5 -8 -10 -9 -18 -1 -28 28 -114 0 -101 -33 4
-11 0 -16 -12 -18 -11 0 -24 -2 -30 -2 -16 -2 -46 -28 -39 -34 3 -3 0 -11 -5
-17 -7 -9 -5 -26 8 -56 10 -24 22 -63 26 -87 6 -39 4 -43 -19 -54 -22 -10 -29
-8 -50 12 -15 14 -32 21 -44 17 -15 -3 -21 1 -23 16 -2 15 -11 20 -36 21 -18
1 -32 -4 -32 -10 0 -7 -17 -15 -37 -19 -20 -4 -42 -13 -48 -20 -8 -11 -20 -12
-58 -4 -46 10 -49 10 -74 -17 -22 -24 -27 -26 -37 -12 -6 8 -28 20 -48 27 -31
10 -41 10 -62 -4 -14 -9 -30 -14 -36 -10 -5 3 -10 2 -10 -4 0 -6 -11 -13 -25
-17 -22 -6 -52 -39 -48 -54 4 -13 -73 4 -83 19 -10 12 -8 18 7 29 11 7 27 12
37 11 29 -4 52 12 52 36 0 17 5 22 18 18 21 -5 40 27 57 97 9 39 14 45 35 42
13 -1 27 -6 30 -10 3 -4 20 -9 38 -10 l32 -2 0 50 c0 38 4 50 15 50 8 0 15 5
15 11 0 6 30 9 85 7 47 -2 85 0 85 5 0 4 16 7 35 7 30 0 35 3 35 23 0 12 6 34
14 48 8 16 10 32 5 40 -6 10 -1 15 19 19 22 4 28 11 30 38 2 24 8 32 23 32 21
0 26 36 10 68 -5 9 -14 28 -20 42 -6 14 -22 44 -35 67 -16 29 -20 45 -13 52
13 13 -8 58 -40 84 -15 12 -21 26 -19 40 3 12 5 25 5 28 1 4 19 19 41 34 30
21 39 33 35 46 -6 16 -1 19 34 19 28 0 48 -7 61 -20z m-843 -895 c9 -25 -4
-29 -17 -6 -7 15 -7 21 0 21 6 0 13 -7 17 -15z m-5 -52 c-6 -2 -9 -9 -6 -15 4
-6 1 -9 -6 -6 -24 8 -23 28 2 27 13 0 17 -3 10 -6z m93 -94 c11 -17 -1 -21
-15 -4 -8 9 -8 15 -2 15 6 0 14 -5 17 -11z m-88 -265 c-3 -3 -12 -4 -19 -1 -8
3 -5 6 6 6 11 1 17 -2 13 -5z m2873 -109 c0 -8 -4 -15 -10 -15 -5 0 -7 7 -4
15 4 8 8 15 10 15 2 0 4 -7 4 -15z m-80 -5 c0 -5 -2 -10 -4 -10 -3 0 -8 5 -11
10 -3 6 -1 10 4 10 6 0 11 -4 11 -10z m-496 -351 c-3 -5 -10 -7 -15 -3 -5 3
-7 10 -3 15 3 5 10 7 15 3 5 -3 7 -10 3 -15z m10 -36 c4 -9 2 -19 -4 -23 -6
-4 -8 -14 -4 -23 4 -11 1 -17 -9 -17 -23 0 -29 16 -22 50 7 33 29 40 39 13z
m-29 -83 c-3 -5 -11 -10 -16 -10 -6 0 -7 5 -4 10 3 6 11 10 16 10 6 0 7 -4 4
-10z m85 -210 c0 -5 -2 -10 -4 -10 -3 0 -8 5 -11 10 -3 6 -1 10 4 10 6 0 11
-4 11 -10z m80 -51 c0 -6 -3 -8 -7 -6 -5 2 -16 7 -26 10 -10 4 -15 11 -12 17
7 12 45 -5 45 -21z m107 -95 c-7 -7 -37 7 -37 17 0 6 9 5 21 -1 11 -7 19 -14
16 -16z m-16 -42 c-19 -6 -41 6 -41 23 0 14 3 13 26 -2 15 -9 21 -19 15 -21z
m-66 7 c11 -17 -1 -21 -15 -4 -8 9 -8 15 -2 15 6 0 14 -5 17 -11z m-2897 -124
c-3 -3 -9 2 -12 12 -6 14 -5 15 5 6 7 -7 10 -15 7 -18z m3136 -12 c3 -8 4 -19
0 -24 -6 -11 -25 -12 -22 -1 1 4 -3 17 -10 29 -10 19 -9 20 7 16 11 -3 22 -12
25 -20z m42 -193 c3 0 2 5 -1 10 -3 6 -2 10 4 10 5 0 13 -5 17 -11 3 -6 17 -8
30 -5 20 5 24 3 24 -15 0 -18 -4 -20 -27 -14 -16 4 -43 9 -61 10 -31 2 -35 7
-25 32 4 9 9 9 20 -2 8 -8 17 -15 19 -15z m-1726 -898 c0 -26 -23 -6 -26 22
-3 26 -2 27 11 10 8 -11 15 -25 15 -32z"/>
<path d="M9771 13431 c-8 -6 -9 -11 -3 -15 6 -3 14 -1 17 5 9 14 2 20 -14 10z"/>
<path d="M10170 10610 c0 -5 5 -10 10 -10 6 0 10 5 10 10 0 6 -4 10 -10 10 -5
0 -10 -4 -10 -10z"/>
<path d="M8807 12990 c-8 -11 -16 -19 -18 -17 -2 1 2 -4 10 -10 8 -7 20 -13
25 -13 6 -1 -5 -8 -24 -16 -43 -19 -42 -17 -35 -47 5 -17 12 -24 21 -20 11 4
12 9 3 19 -9 11 -9 14 0 14 7 0 9 5 5 11 -4 8 0 7 15 -1 28 -15 32 -27 23 -70
-6 -28 -12 -34 -29 -32 -30 4 -41 -44 -16 -69 16 -16 22 -16 58 -4 30 11 41
11 47 2 6 -9 10 -9 16 -1 4 6 14 14 22 17 10 4 8 6 -7 6 -12 1 -24 5 -27 10
-3 4 -20 11 -38 15 l-33 7 25 12 c22 11 27 11 38 -5 7 -10 19 -18 26 -18 19 0
49 37 41 50 -4 7 -2 16 5 20 9 6 0 16 -30 35 -33 21 -41 31 -37 47 3 12 3 34
0 49 -5 25 -10 29 -39 29 -21 0 -38 -7 -47 -20z"/>
<path d="M9866 12912 c-2 -4 -1 -14 3 -21 5 -7 6 -21 4 -31 -3 -12 3 -22 16
-29 25 -14 26 -10 5 32 -12 22 -13 32 -5 35 6 2 9 8 5 13 -6 11 -21 12 -28 1z"/>
<path d="M9969 12854 c-12 -14 -11 -16 5 -13 11 2 21 10 24 17 5 17 -13 15
-29 -4z"/>
<path d="M9473 12821 c-18 -16 -36 -25 -43 -21 -7 4 -23 -3 -37 -16 -14 -13
-29 -24 -34 -24 -4 0 -20 15 -35 33 -15 17 -31 31 -36 29 -5 -1 -17 2 -28 8
-14 8 -19 6 -22 -7 -4 -21 -64 -24 -99 -5 -35 20 -75 9 -83 -21 -5 -20 -11
-23 -36 -19 -23 3 -30 0 -30 -12 0 -8 11 -18 25 -22 19 -5 26 -15 31 -43 10
-54 21 -69 66 -91 50 -24 48 -24 48 -5 0 9 7 18 15 21 8 4 15 12 15 20 0 8 6
14 14 14 8 0 16 5 18 12 3 7 13 5 31 -7 15 -9 35 -15 46 -12 29 7 49 -9 43
-38 -4 -25 3 -30 37 -25 11 1 13 -9 9 -43 -3 -24 -1 -52 5 -62 8 -15 7 -17 -8
-11 -15 5 -16 4 -5 -9 17 -20 27 -19 35 5 8 25 43 26 61 3 11 -14 13 -15 9 -2
-4 11 0 15 17 15 19 -1 23 4 24 32 0 18 8 42 17 52 9 11 17 29 17 40 0 10 5
22 11 25 6 4 8 13 5 21 -3 8 -1 25 4 38 6 17 4 34 -10 62 -10 22 -21 51 -24
67 -8 35 -33 35 -73 -2z"/>
<path d="M10205 12810 c4 -6 -5 -10 -19 -10 -14 0 -26 -5 -26 -11 0 -6 -9 -9
-20 -6 -11 3 -36 0 -55 -6 -28 -8 -32 -13 -23 -24 6 -7 19 -11 30 -7 10 3 24
2 31 -3 36 -27 124 31 102 67 -3 5 -11 10 -16 10 -6 0 -7 -4 -4 -10z"/>
<path d="M10256 12775 c4 -8 11 -15 16 -15 6 0 5 6 -2 15 -7 8 -14 15 -16 15
-2 0 -1 -7 2 -15z"/>
<path d="M7671 12772 c-6 -2 -11 -8 -11 -14 0 -15 -22 -33 -57 -45 -24 -9 -35
-8 -52 3 -18 13 -21 12 -31 -7 -9 -15 -9 -24 -1 -32 15 -15 14 -27 -3 -27 -10
0 -16 -13 -18 -37 -2 -31 -7 -37 -22 -35 -10 2 -22 -2 -27 -9 -6 -10 -13 -10
-32 -2 -21 10 -28 8 -50 -15 l-25 -27 23 -17 c13 -10 33 -18 44 -18 14 0 21
-9 26 -31 4 -17 14 -33 23 -36 10 -3 37 -26 61 -50 31 -32 46 -41 52 -32 11
18 41 20 59 5 21 -18 50 -27 50 -16 0 14 64 12 78 -2 9 -9 12 -9 12 1 0 8 7
10 21 6 15 -5 19 -4 15 4 -4 6 -2 11 4 11 6 0 13 -7 16 -15 8 -20 31 -19 42 2
9 15 14 12 41 -17 17 -19 31 -29 31 -22 0 6 5 12 10 12 6 0 29 18 52 40 23 21
44 37 48 35 4 -3 10 -22 13 -43 8 -62 36 -112 61 -112 29 0 39 -10 25 -27 -8
-8 -8 -13 -1 -13 6 0 12 6 15 13 3 9 9 9 25 0 16 -10 22 -10 25 0 3 8 11 4 22
-10 21 -30 39 -29 31 1 -5 19 -1 26 24 36 18 7 30 20 30 31 0 24 19 34 26 15
3 -9 10 -16 16 -16 5 0 6 4 3 10 -3 5 0 7 9 4 17 -7 118 45 111 56 -3 4 3 10
13 12 18 5 27 38 10 38 -4 0 -8 8 -8 18 0 26 -31 52 -68 56 -16 3 -40 9 -51
16 -12 6 -26 8 -32 5 -5 -4 -17 -1 -26 7 -14 11 -16 10 -11 -14 4 -24 2 -28
-18 -28 -12 0 -24 -5 -26 -11 -3 -8 -14 -6 -37 5 -19 10 -40 14 -49 10 -10 -4
-20 -6 -24 -6 -13 3 -47 -36 -40 -44 4 -4 1 -4 -5 0 -7 4 -13 13 -13 21 0 7
-7 15 -15 19 -8 3 -20 17 -25 31 -5 13 -27 37 -49 52 -22 16 -42 36 -44 46 -4
12 -15 17 -40 17 -44 0 -100 47 -129 107 -14 31 -31 47 -67 65 -27 13 -54 22
-60 20z m-261 -227 c-7 -8 -16 -12 -21 -9 -13 8 -1 24 18 24 13 0 13 -3 3 -15z
m956 -104 c0 -11 -5 -17 -13 -14 -7 3 -13 11 -13 19 0 8 6 14 13 14 7 0 13 -8
13 -19z m-96 -131 c0 -5 -2 -10 -4 -10 -3 0 -8 5 -11 10 -3 6 -1 10 4 10 6 0
11 -4 11 -10z"/>
<path d="M8740 12702 c0 -16 -53 -58 -92 -74 -13 -5 -18 -19 -18 -52 0 -50 21
-67 50 -41 14 12 19 13 22 4 8 -23 77 18 84 49 4 15 13 35 21 44 10 11 13 27
8 48 -4 17 -9 29 -12 27 -2 -3 -18 -1 -34 3 -24 7 -29 6 -29 -8z"/>
<path d="M7058 12519 c-9 -10 -22 -27 -28 -39 -6 -11 -16 -18 -21 -14 -6 3 -3
-9 6 -27 17 -31 18 -32 29 -12 6 11 16 18 22 16 7 -2 12 2 11 9 -2 45 5 67 21
70 15 3 14 4 -3 9 -12 3 -27 -2 -37 -12z"/>
<path d="M7225 12505 c0 -28 32 -36 42 -10 6 18 5 20 -22 29 -16 5 -20 1 -20
-19z"/>
<path d="M7280 12522 c0 -14 11 -21 26 -15 21 8 17 23 -6 23 -11 0 -20 -4 -20
-8z"/>
<path d="M8575 12506 c-16 -6 -36 -18 -42 -26 -11 -13 -14 -13 -23 0 -5 9 -10
10 -10 3 0 -6 -3 -19 -7 -29 -5 -13 -3 -15 8 -8 8 4 20 9 28 11 31 4 72 27 82
44 11 21 7 22 -36 5z"/>
<path d="M9327 12484 c6 -15 23 -19 23 -5 0 5 -7 11 -14 14 -10 4 -13 1 -9 -9z"/>
<path d="M7192 12440 c1 -17 2 -30 2 -30 1 0 9 9 19 20 16 18 15 20 -3 30 -16
9 -19 6 -18 -20z"/>
<path d="M7056 12411 c-10 -11 -15 -24 -12 -30 3 -5 1 -11 -5 -13 -7 -2 -9
-13 -5 -26 5 -16 15 -22 37 -22 24 0 29 4 29 26 0 39 17 63 40 57 11 -3 20 0
20 6 0 6 -13 11 -29 11 -16 0 -36 2 -43 5 -8 3 -22 -3 -32 -14z"/>
<path d="M6990 12400 c0 -6 7 -10 15 -10 8 0 15 2 15 4 0 2 -7 6 -15 10 -8 3
-15 1 -15 -4z"/>
<path d="M7586 12326 c3 -7 -2 -16 -10 -19 -20 -8 -21 -27 -1 -27 9 0 20 -11
25 -25 5 -14 15 -25 21 -25 6 0 9 7 5 15 -3 9 0 15 8 15 8 0 16 13 18 29 3 23
0 31 -16 36 -45 15 -55 15 -50 1z"/>
<path d="M7505 12280 c-18 -7 -18 -9 -3 -15 10 -4 20 -15 23 -26 4 -11 11 -17
16 -14 5 4 12 -1 15 -9 3 -9 12 -16 19 -16 17 0 36 -25 40 -52 1 -13 8 -35 15
-50 l13 -28 19 22 c17 20 17 24 4 33 -8 6 -16 29 -18 51 -3 34 -7 40 -31 44
-16 3 -33 15 -40 29 -14 28 -44 41 -72 31z"/>
<path d="M10986 12041 c2 -57 3 -58 29 -63 23 -5 25 -2 25 28 0 24 -7 38 -27
52 l-28 20 1 -37z"/>
<path d="M7650 12050 c0 -6 7 -10 15 -10 8 0 15 2 15 4 0 2 -7 6 -15 10 -8 3
-15 1 -15 -4z"/>
<path d="M7816 12007 c3 -9 13 -19 23 -22 24 -7 26 -55 2 -55 -29 0 -33 -36
-5 -49 13 -6 24 -18 24 -26 0 -9 -4 -13 -10 -10 -5 3 -7 0 -4 -9 4 -11 -3 -17
-23 -22 -15 -3 -38 -17 -49 -31 -21 -25 -21 -25 -2 -65 17 -36 22 -39 46 -33
82 20 78 21 98 -34 10 -28 22 -51 27 -51 14 0 58 -50 52 -60 -5 -8 23 -36 29
-29 2 2 7 18 10 36 6 26 4 34 -13 43 -12 6 -21 15 -21 21 0 6 7 6 19 -1 11 -5
24 -10 30 -10 16 0 13 26 -4 40 -8 7 -15 16 -15 21 0 13 47 11 72 -2 16 -9 23
-8 29 2 6 10 9 5 9 -14 0 -24 35 -78 42 -66 22 35 25 47 16 63 -6 10 -6 22 0
29 5 7 8 28 8 47 -1 27 -8 39 -33 56 -18 12 -30 24 -27 26 8 9 -27 31 -54 34
-26 3 -86 60 -77 74 3 4 -1 19 -8 33 -13 27 -54 40 -81 25 -16 -9 -45 4 -94
38 -20 15 -22 15 -16 1z"/>
<path d="M11115 11981 c3 -12 0 -21 -10 -25 -13 -4 -15 -1 -10 14 5 17 2 20
-20 20 -23 0 -26 -4 -23 -27 2 -23 -1 -28 -19 -28 -11 0 -25 -4 -30 -9 -5 -5
-1 -7 10 -3 14 5 17 0 18 -26 1 -18 1 -38 0 -45 -2 -10 4 -12 18 -7 16 5 23 1
30 -18 5 -14 7 -34 4 -45 -3 -13 3 -28 16 -41 12 -12 21 -25 21 -29 0 -4 5
-13 11 -19 13 -13 30 -1 42 30 3 9 13 17 21 17 7 0 16 9 19 20 3 11 1 20 -5
20 -10 0 -2 78 13 117 9 24 -15 40 -36 23 -17 -14 -62 37 -46 53 17 17 13 27
-10 27 -15 0 -19 -5 -14 -19z"/>
<path d="M10935 11850 c-23 -10 -21 -11 18 -16 18 -2 27 2 27 12 0 16 -15 17
-45 4z"/>
<path d="M11230 11830 c0 -5 5 -10 11 -10 5 0 7 5 4 10 -3 6 -8 10 -11 10 -2
0 -4 -4 -4 -10z"/>
<path d="M8227 11743 c-12 -11 -7 -33 7 -33 7 0 19 6 25 14 9 11 8 15 -5 20
-19 7 -19 7 -27 -1z"/>
<path d="M7731 11600 c17 -26 39 -38 39 -22 0 5 -12 18 -27 28 l-28 18 16 -24z"/>
<path d="M8050 11581 c0 -6 5 -13 10 -16 6 -3 10 1 10 9 0 9 -4 16 -10 16 -5
0 -10 -4 -10 -9z"/>
<path d="M10603 11440 c-27 -11 -28 -19 -8 -46 12 -16 14 -17 15 -3 0 9 7 19
15 23 8 3 15 12 15 21 0 17 -5 18 -37 5z"/>
<path d="M11630 10702 c0 -7 -9 -12 -21 -12 -16 0 -60 -28 -47 -31 19 -3 80
-5 71 -2 -10 4 -10 10 -2 25 6 11 8 22 5 26 -3 3 -6 0 -6 -6z"/>
<path d="M11568 10623 c-18 -20 -24 -43 -10 -43 19 1 33 19 30 40 -3 22 -3 22
-20 3z"/>
<path d="M11440 10570 c0 -5 5 -10 11 -10 5 0 7 5 4 10 -3 6 -8 10 -11 10 -2
0 -4 -4 -4 -10z"/>
<path d="M11409 10547 c17 -17 13 -45 -10 -68 -12 -12 -24 -33 -28 -48 -5 -18
-18 -29 -41 -37 l-34 -11 40 -25 c59 -37 72 -40 83 -19 7 13 6 24 -5 39 -12
17 -12 22 -2 22 19 0 39 70 27 93 -6 10 -7 26 -4 36 4 13 -1 20 -16 24 -16 4
-19 3 -10 -6z"/>
<path d="M11750 10068 c0 -19 11 -31 47 -56 17 -12 35 -31 38 -42 4 -11 10
-18 15 -15 14 9 -9 51 -36 66 -25 13 -32 29 -12 29 16 0 -23 29 -39 30 -7 0
-13 -6 -13 -12z"/>
<path d="M13156 9185 c-3 -9 -18 -15 -40 -15 -28 0 -38 -5 -49 -27 -7 -16 -19
-27 -25 -25 -7 1 -12 -4 -12 -12 0 -8 -5 -16 -12 -18 -25 -9 3 -24 43 -23 38
0 43 3 46 27 2 15 17 42 33 60 17 18 30 36 30 40 0 13 -7 9 -14 -7z"/>
<path d="M13033 9043 c-19 -7 -16 -20 5 -25 12 -4 18 1 18 13 0 20 -3 21 -23
12z"/>
<path d="M11343 8123 c-7 -15 -13 -42 -13 -60 0 -29 -3 -33 -28 -33 -15 0 -45
12 -66 26 -32 22 -43 25 -57 15 -10 -6 -30 -11 -44 -11 -22 0 -24 -2 -13 -24
8 -20 7 -28 -5 -41 -9 -8 -13 -23 -10 -31 5 -14 3 -15 -15 -5 -30 16 -35 14
-28 -14 5 -18 2 -25 -8 -25 -8 0 -19 -7 -24 -17 -5 -9 -16 -14 -24 -10 -19 7
-43 -60 -28 -78 5 -6 7 -25 5 -43 -2 -18 0 -32 6 -32 5 0 20 -9 32 -21 12 -11
37 -27 54 -36 l33 -15 -17 -29 c-10 -16 -24 -29 -33 -30 -8 0 -1 -7 15 -14 33
-14 53 -1 34 22 -7 8 -7 18 1 32 6 12 8 21 6 21 -3 0 6 11 20 25 15 15 36 25
54 25 16 0 31 4 34 9 3 5 15 7 25 4 10 -3 22 0 25 6 4 6 23 11 42 11 42 0 51
17 30 59 -21 40 -20 44 9 39 17 -4 25 -1 25 8 0 8 5 14 10 14 14 0 13 107 -2
116 -8 5 -6 10 7 14 32 11 27 70 -9 113 l-31 37 -12 -27z"/>
<path d="M11684 7945 c-4 -8 -17 -15 -29 -15 -32 0 -37 -12 -19 -39 10 -13 22
-20 31 -16 9 3 22 0 29 -6 11 -9 14 -9 14 0 0 9 5 9 20 1 25 -13 56 11 46 36
-3 8 1 17 9 20 8 4 15 12 15 20 0 20 -46 18 -54 -2 -6 -16 -8 -16 -24 0 -23
20 -31 20 -38 1z"/>
<path d="M11775 7850 c3 -5 8 -10 11 -10 2 0 4 5 4 10 0 6 -5 10 -11 10 -5 0
-7 -4 -4 -10z"/>
<path d="M9954 7803 c-3 -13 -11 -23 -16 -23 -6 0 0 -11 13 -24 21 -22 26 -23
40 -10 10 9 19 11 23 6 3 -6 0 -13 -6 -15 -7 -3 -2 -6 12 -6 14 0 32 4 40 9
11 7 4 14 -32 30 -26 11 -52 28 -58 38 -9 15 -10 15 -16 -5z"/>
<path d="M9910 7771 c11 -22 30 -37 30 -24 -1 11 -26 43 -34 43 -4 0 -2 -9 4
-19z"/>
<path d="M11563 7773 c-7 -3 -13 -15 -13 -28 0 -26 -21 -46 -28 -27 -2 7 -8
10 -12 7 -5 -3 -6 -13 -3 -21 5 -14 1 -15 -25 -9 -25 5 -32 3 -32 -9 0 -8 9
-20 20 -26 11 -6 20 -18 20 -28 0 -14 2 -14 9 -3 7 11 11 9 20 -8 7 -11 8 -21
3 -21 -5 0 -15 -17 -21 -38 -11 -32 -17 -38 -36 -34 -12 2 -25 0 -28 -5 -3 -5
10 -10 29 -10 19 -1 34 3 34 8 0 5 7 9 16 9 8 0 13 4 9 9 -3 5 -1 12 5 16 5 3
10 15 10 27 0 16 5 19 25 15 22 -4 29 2 45 32 12 23 19 29 20 18 0 -10 4 -16
9 -13 4 3 16 -1 27 -8 10 -8 25 -12 34 -9 12 4 12 3 1 -5 -20 -15 -4 -31 27
-27 15 2 32 4 39 4 7 1 10 8 7 16 -4 10 0 15 11 15 9 0 13 5 10 10 -4 6 -10 8
-15 5 -5 -3 -11 4 -15 15 -3 11 -9 19 -13 17 -20 -5 -94 36 -104 58 -6 14 -16
24 -22 22 -6 -3 -20 3 -31 13 -11 10 -26 15 -32 13z"/>
<path d="M11000 7676 c0 -16 7 -25 23 -29 21 -6 21 -5 3 8 -11 8 -16 21 -13
30 4 8 2 15 -3 15 -6 0 -10 -11 -10 -24z"/>
<path d="M11152 7528 c-14 -14 -16 -58 -3 -58 7 0 22 60 17 67 -1 2 -8 -3 -14
-9z"/>
<path d="M9703 7477 c-25 -11 -27 -15 -14 -36 11 -18 -30 -43 -57 -35 -9 2 -2
-3 17 -11 24 -12 36 -13 41 -5 4 6 14 8 23 4 12 -4 20 2 27 21 12 32 28 25 25
-10 -2 -14 1 -23 6 -19 5 3 9 1 9 -5 0 -5 14 -8 30 -6 17 2 30 0 30 -5 0 -6 7
-10 15 -10 8 0 15 -8 15 -19 0 -10 7 -24 15 -31 9 -7 14 -19 11 -25 -7 -20 11
-38 41 -41 24 -3 31 1 40 27 10 25 9 31 -3 36 -8 3 -14 14 -14 24 0 17 3 18
21 9 11 -7 23 -9 26 -6 6 6 -14 16 -44 21 -10 1 -17 8 -15 14 1 6 -5 11 -13
11 -17 0 -20 17 -4 22 7 2 1 16 -14 33 l-25 30 5 -26 c7 -36 -20 -57 -39 -30
-8 11 -27 22 -43 25 -16 3 -36 14 -45 24 -20 26 -41 31 -67 19z"/>
<path d="M11388 7393 c-10 -3 -18 -8 -18 -12 0 -4 -11 -13 -25 -19 -21 -10
-30 -9 -50 4 -16 10 -25 12 -25 5 0 -6 -9 -11 -19 -11 -29 0 -32 -25 -5 -49
17 -14 32 -19 48 -15 13 3 27 1 30 -5 10 -16 36 -14 36 3 0 8 7 16 15 20 8 3
15 17 15 31 0 16 6 25 15 25 15 0 21 16 8 23 -5 2 -16 2 -25 0z"/>
<path d="M9631 7377 c2 -1 14 -11 27 -21 20 -17 22 -18 22 -2 0 9 -4 15 -9 11
-5 -3 -12 -1 -16 5 -3 5 -11 10 -17 10 -6 0 -9 -1 -7 -3z"/>
<path d="M9963 7203 c-7 -3 -13 -16 -13 -30 0 -16 -7 -27 -19 -30 -11 -3 -21
-16 -24 -31 -2 -15 -6 -34 -8 -42 -3 -12 5 -15 40 -13 45 2 81 27 81 57 0 8 6
16 13 19 16 5 -9 37 -30 37 -7 0 -17 8 -21 18 -4 11 -13 17 -19 15z"/>
<path d="M10790 6831 c-19 -5 -24 -13 -22 -30 2 -12 -1 -28 -7 -35 -16 -19 4
-70 23 -63 8 3 16 1 18 -5 2 -6 11 -3 22 7 13 13 20 15 29 6 6 -6 13 -11 17
-11 5 0 4 62 -3 94 -3 18 -34 47 -46 45 -3 -1 -17 -4 -31 -8z"/>
</g>
</svg>
