<?xml version="1.0" standalone="no"?>
<!DOCTYPE svg PUBLIC "-//W3C//DTD SVG 20010904//EN"
 "http://www.w3.org/TR/2001/REC-SVG-20010904/DTD/svg10.dtd">
<svg version="1.0" xmlns="http://www.w3.org/2000/svg"
 width="598.959385pt" height="696.692544pt" viewBox="0 0 598.959385 696.692544"
 preserveAspectRatio="xMidYMid meet">
<metadata>
Created by potrace 1.15, written by Peter Selinger 2001-2017
</metadata>
<g transform="translate(-757.040615,1378.692544) scale(0.100000,-0.100000)"
fill="#222222" stroke="none">
<path d="M13108 13780 c14 -17 16 -34 2 -25 -5 3 -10 2 -10 -3 0 -5 11 -12 25
-15 34 -6 30 19 -5 41 -18 11 -21 12 -12 2z"/>
<path d="M13113 13694 c-4 -11 1 -22 13 -31 16 -12 17 -15 4 -23 -13 -8 -12
-15 6 -47 13 -22 31 -39 43 -41 25 -4 27 12 6 48 -16 28 -19 44 -7 36 18 -11
5 31 -16 52 -26 26 -40 28 -49 6z"/>
<path d="M12954 13623 c1 -30 -3 -38 -17 -38 -9 0 -33 -13 -52 -28 -34 -27
-34 -27 -48 -6 l-15 20 -14 -20 c-13 -18 -17 -19 -35 -6 -18 13 -21 12 -32
-11 -6 -14 -11 -31 -11 -39 0 -8 -8 -15 -17 -16 -11 0 -13 -3 -5 -6 20 -8 14
-43 -13 -75 -26 -31 -26 -64 -1 -80 8 -6 7 -8 -1 -8 -7 0 -10 -7 -7 -15 9 -22
-15 -48 -32 -35 -10 9 -11 7 -7 -9 4 -15 1 -21 -11 -21 -9 0 -19 -7 -22 -15
-4 -10 -20 -15 -49 -15 -37 0 -44 -3 -49 -25 -4 -14 -12 -24 -18 -22 -7 1 -14
-8 -16 -21 -3 -19 -9 -23 -33 -20 -23 2 -32 -2 -42 -22 -7 -14 -29 -33 -50
-43 -20 -10 -37 -24 -37 -30 0 -13 -44 -31 -117 -48 -26 -7 -43 -16 -43 -25 0
-18 -89 -106 -100 -99 -5 3 -11 -8 -15 -24 -4 -20 -14 -31 -30 -35 -15 -4 -27
-16 -31 -30 -4 -17 -11 -22 -23 -19 -15 4 -19 -3 -25 -35 -5 -32 -11 -41 -31
-46 -14 -4 -25 -11 -25 -16 0 -6 -6 -10 -14 -10 -7 0 -16 -9 -19 -21 -3 -12
-10 -18 -16 -15 -6 4 -21 1 -33 -6 -13 -6 -30 -11 -39 -10 -8 2 -21 -9 -27
-23 -10 -22 -15 -24 -32 -15 -18 10 -20 8 -20 -18 0 -33 -22 -57 -44 -49 -8 3
-16 1 -18 -5 -2 -5 -29 -12 -61 -14 -50 -4 -56 -2 -50 13 6 16 5 16 -10 4 -14
-11 -22 -11 -47 -1 -22 9 -34 10 -43 1 -8 -6 -17 -8 -21 -4 -4 4 -6 -9 -5 -28
2 -19 -1 -40 -5 -47 -4 -7 -3 -19 3 -26 9 -11 6 -15 -14 -20 -21 -5 -26 -12
-23 -34 2 -15 9 -27 18 -28 33 -2 37 -5 36 -24 0 -12 -7 -25 -15 -29 -10 -6
-10 -13 -3 -28 6 -11 7 -24 2 -29 -4 -5 -10 -20 -12 -34 -2 -21 -8 -24 -30
-22 -42 5 -50 -5 -32 -40 12 -24 14 -39 6 -69 -6 -22 -8 -48 -5 -59 4 -14 0
-20 -12 -20 -11 0 -15 -5 -10 -19 4 -14 0 -20 -20 -23 -14 -3 -25 -1 -25 3 0
5 -10 9 -23 9 -34 0 -50 50 -31 96 13 31 13 35 -1 40 -8 4 -21 1 -29 -5 -7 -6
-20 -9 -28 -6 -9 4 -18 -1 -22 -10 -3 -10 -11 -13 -18 -9 -10 6 -11 4 0 -7 16
-18 17 -48 0 -31 -9 9 -18 2 -40 -31 -15 -23 -28 -49 -28 -58 0 -18 -17 -24
-100 -35 -37 -5 -59 -13 -69 -26 -11 -16 -20 -18 -54 -12 -23 3 -47 14 -53 22
-13 17 -94 26 -94 10 0 -5 -4 -7 -9 -3 -5 3 -12 1 -16 -5 -4 -6 -9 -8 -13 -6
-10 6 -37 -16 -45 -36 -8 -22 -30 -23 -47 -4 -6 8 -17 13 -25 10 -7 -3 -16 0
-20 6 -5 8 -11 8 -21 -1 -8 -6 -17 -9 -21 -5 -4 3 -17 -4 -30 -16 -18 -17 -23
-32 -23 -69 0 -52 -10 -62 -49 -47 -14 5 -30 7 -37 4 -17 -6 -30 14 -16 23 13
8 5 22 -28 44 -19 13 -21 17 -7 17 9 0 17 5 17 10 0 7 13 8 35 4 30 -5 34 -4
29 10 -3 9 -1 16 5 16 29 0 72 72 51 85 -5 3 -10 -1 -10 -10 0 -13 -4 -14 -21
-5 -11 7 -18 17 -16 25 3 7 1 17 -4 22 -17 17 1 63 27 69 13 3 24 12 24 20 0
16 16 19 25 4 4 -7 14 -6 28 2 12 7 24 12 27 11 3 -1 4 13 2 31 -4 31 -2 33
21 29 14 -3 35 0 46 7 18 9 30 7 65 -9 53 -26 59 -26 51 -1 -6 20 1 24 37 21
19 -2 34 37 20 51 -6 6 -8 16 -6 23 3 7 0 32 -6 56 -11 41 -13 43 -27 24 -13
-18 -16 -18 -25 -4 -10 15 -13 14 -28 -1 -10 -10 -42 -23 -70 -29 -45 -10 -57
-9 -78 5 l-26 17 22 8 c28 11 30 49 2 49 -21 0 -40 -27 -33 -47 3 -7 -1 -13
-7 -13 -8 0 -10 -8 -6 -22 14 -46 13 -54 -10 -85 -13 -17 -24 -36 -24 -42 0
-6 -7 -11 -16 -11 -8 0 -13 -3 -11 -7 3 -5 -11 -8 -31 -8 -21 0 -43 -6 -50
-13 -8 -7 -29 -24 -49 -39 -29 -22 -36 -24 -44 -12 -5 8 -9 20 -9 27 0 15 -26
16 -36 1 -3 -6 -19 -9 -34 -5 -19 3 -30 1 -34 -9 -3 -8 -12 -15 -19 -15 -17 0
-38 -72 -27 -90 4 -6 18 -17 31 -24 14 -7 30 -29 39 -54 13 -37 13 -45 -1 -69
-9 -16 -19 -41 -23 -56 -5 -23 -11 -27 -28 -21 -25 8 -38 -9 -38 -53 0 -21 -5
-33 -14 -33 -8 0 -13 8 -12 18 2 25 -52 30 -61 5 -4 -10 -16 -26 -28 -35 -12
-11 -15 -17 -7 -18 7 0 23 11 36 25 24 26 46 33 46 15 0 -5 -4 -10 -10 -10 -5
0 -7 -6 -4 -13 6 -16 -36 -37 -71 -37 -13 0 -26 -6 -28 -12 -4 -8 -6 -7 -6 4
-1 9 5 19 12 21 8 4 7 6 -3 6 -20 1 -80 56 -80 73 0 15 -19 38 -31 38 -4 0 -9
-8 -11 -17 -2 -12 -12 0 -29 35 -14 30 -30 54 -35 55 -5 1 -12 -16 -16 -38 -6
-34 -3 -43 16 -61 28 -25 28 -69 0 -69 -10 0 -23 -6 -28 -14 -7 -11 -10 -11
-17 0 -6 10 -9 6 -9 -13 0 -30 31 -68 55 -68 18 0 20 -41 3 -58 -8 -8 -8 -15
1 -26 6 -7 11 -18 9 -22 -1 -5 12 -23 30 -41 17 -17 32 -27 32 -22 0 6 4 8 9
4 5 -3 12 -1 16 5 3 5 0 10 -7 11 -7 1 -2 4 12 8 20 6 27 2 37 -17 16 -31 16
-39 1 -24 -10 10 -17 6 -36 -15 -13 -16 -28 -39 -33 -52 -7 -16 -14 -21 -27
-16 -14 5 -15 4 -4 -6 14 -15 16 -59 2 -59 -5 0 -10 -9 -10 -20 0 -10 -7 -23
-17 -28 -12 -7 -15 -18 -10 -46 3 -20 2 -36 -4 -36 -19 0 -8 -27 16 -40 17 -9
22 -17 15 -25 -5 -7 -6 -16 -2 -21 4 -4 0 -4 -8 2 -8 6 -27 10 -42 9 -16 0
-28 3 -28 7 0 4 5 8 10 8 7 0 7 6 0 20 -6 11 -7 20 -3 21 4 0 -3 5 -16 10 -15
6 -27 6 -30 1 -8 -12 -72 -26 -70 -15 4 23 -6 28 -61 28 -37 1 -61 -4 -64 -11
-3 -7 -18 -15 -35 -19 -20 -4 -30 -12 -29 -23 4 -50 -3 -73 -24 -81 -13 -5
-17 -10 -10 -15 6 -3 13 -2 17 4 11 18 33 11 28 -9 -3 -10 0 -22 6 -25 6 -4
11 0 11 9 0 13 6 16 25 11 14 -3 36 -9 50 -12 14 -4 25 -2 25 4 0 5 7 13 16
16 19 7 54 -20 54 -41 0 -7 8 -26 18 -40 9 -15 11 -24 5 -20 -8 5 -13 3 -13
-7 0 -9 -7 -16 -15 -16 -10 0 -15 -11 -16 -37 -2 -39 -4 -69 -7 -89 -3 -15
-69 -47 -82 -39 -6 3 -10 1 -10 -4 0 -6 -12 -11 -27 -11 -19 0 -24 -3 -15 -9
10 -6 11 -19 6 -45 -5 -30 -10 -37 -25 -33 -17 5 -18 1 -13 -34 5 -30 3 -40
-10 -45 -9 -3 -16 -12 -16 -20 0 -8 -4 -14 -8 -14 -15 0 -52 -37 -52 -52 0
-28 -27 -51 -61 -52 -25 -1 -37 -7 -49 -28 -13 -25 -13 -29 2 -45 16 -16 16
-19 -4 -52 -29 -47 -43 -61 -61 -61 -29 0 -47 -12 -47 -31 0 -12 -7 -19 -19
-19 -13 0 -18 -5 -14 -18 7 -29 -14 -73 -32 -66 -9 4 -15 3 -13 -2 1 -5 -12
-23 -30 -41 -17 -17 -32 -39 -32 -47 0 -20 -1 -20 60 4 l51 20 39 -20 c47 -24
60 -25 60 -5 0 9 9 15 23 15 28 0 47 17 47 45 0 11 5 27 10 35 8 12 19 6 61
-37 50 -52 83 -66 92 -40 4 10 7 10 18 0 16 -16 46 -17 51 -2 2 7 13 9 27 4
18 -5 21 -12 17 -31 -6 -24 -4 -25 34 -22 35 2 39 4 34 22 -6 18 -5 19 10 7 9
-7 16 -19 16 -25 0 -13 -53 -56 -70 -56 -5 0 -10 -11 -10 -24 0 -15 -7 -27
-19 -31 -14 -4 -17 -12 -13 -33 8 -43 32 -72 74 -89 36 -14 38 -17 38 -59 0
-25 5 -44 11 -44 6 0 9 -6 6 -12 -2 -7 -10 -12 -17 -10 -16 4 -2 -39 19 -56
13 -11 19 -10 33 8 10 12 19 16 23 10 3 -6 11 -8 16 -5 5 4 9 -1 9 -9 0 -8 -4
-17 -9 -20 -5 -3 -7 -15 -4 -25 3 -13 -7 -30 -31 -52 l-35 -34 21 -22 c27 -29
38 -113 14 -113 -8 0 -18 -11 -22 -25 -3 -14 -23 -38 -43 -54 -29 -23 -46 -29
-75 -27 -47 4 -64 19 -46 41 10 12 10 15 -4 15 -9 0 -22 16 -30 35 -8 19 -20
35 -26 35 -6 0 -8 -5 -4 -11 4 -7 -14 -10 -60 -7 -36 1 -66 1 -66 -1 0 -3 8
-13 17 -23 10 -11 13 -19 8 -18 -26 5 -54 -15 -74 -52 -11 -22 -21 -46 -21
-53 0 -21 -42 -26 -56 -7 -12 16 -13 16 -14 -2 0 -15 -6 -17 -30 -14 -17 3
-33 2 -35 -2 -2 -3 -19 -5 -38 -4 -29 3 -34 0 -30 -14 2 -10 -5 -26 -16 -36
-12 -11 -21 -27 -21 -36 0 -20 -19 -30 -55 -30 -18 0 -24 -7 -28 -32 -2 -18 0
-39 6 -46 8 -11 5 -18 -13 -32 -14 -10 -28 -16 -33 -13 -5 3 -23 2 -42 -1 -24
-5 -35 -13 -39 -31 -6 -25 -40 -37 -34 -12 3 13 -3 17 -29 17 -10 0 -14 -4 -8
-8 6 -4 19 -17 29 -29 26 -31 5 -29 -32 2 -21 18 -32 21 -34 13 -4 -11 -12
-11 -40 0 -19 6 -44 12 -55 12 -19 0 -82 27 -93 39 -3 3 -22 18 -42 34 -35 26
-96 39 -83 17 3 -5 0 -10 -7 -10 -8 0 -9 -3 -3 -8 6 -4 16 -19 22 -33 10 -24
9 -30 -13 -50 -13 -12 -24 -28 -24 -35 0 -8 -6 -11 -15 -8 -17 7 -21 -11 -5
-21 19 -12 10 -35 -14 -35 -17 0 -23 -5 -22 -17 0 -11 -7 -19 -20 -21 -17 -2
-23 -12 -27 -45 -8 -62 9 -77 87 -72 33 2 66 -1 72 -6 8 -7 14 -6 19 1 3 5 19
10 35 10 25 0 32 -7 49 -42 21 -47 20 -58 -4 -38 -13 11 -15 8 -15 -19 0 -38
-17 -74 -31 -66 -5 4 -9 0 -9 -9 0 -8 6 -17 13 -19 9 -4 9 -6 -1 -6 -9 -1 -9
-7 3 -24 8 -13 13 -26 10 -29 -21 -20 105 -69 129 -49 10 8 46 8 88 -1 8 -2
12 4 10 17 -2 10 2 36 9 57 9 30 9 40 0 52 -11 13 -15 14 -27 1 -17 -17 -44
-9 -44 12 0 9 -6 13 -15 9 -17 -6 -21 9 -4 20 6 3 8 17 4 33 -5 21 -4 24 6 14
7 -7 19 -13 26 -13 20 0 16 25 -8 46 -21 19 -49 76 -49 100 0 8 9 14 20 14 11
0 29 6 40 12 16 10 26 9 54 -6 25 -13 39 -15 52 -8 26 14 64 -6 64 -33 0 -12
10 -30 22 -41 21 -18 21 -18 15 0 -6 14 -4 17 10 12 9 -4 19 -2 23 3 4 7 16 5
34 -4 36 -19 52 -19 60 0 7 18 -13 65 -33 81 -13 10 -13 15 2 37 21 32 21 34
2 34 -9 0 -14 -6 -11 -14 14 -35 -39 1 -54 37 -10 24 -10 33 0 45 7 8 16 12
21 9 16 -10 49 39 37 54 -6 7 -8 15 -5 19 4 3 2 12 -4 20 -9 9 -8 13 0 13 6 0
11 7 11 16 0 8 4 12 10 9 6 -3 7 1 4 9 -3 9 -2 16 2 17 69 5 124 29 124 52 0
6 7 2 15 -10 19 -28 76 -37 82 -12 5 19 35 19 72 0 18 -10 25 -10 31 -1 6 9
13 9 29 1 15 -8 21 -21 21 -46 0 -47 8 -64 40 -80 18 -9 31 -26 35 -46 11 -48
42 -73 86 -70 20 1 40 -3 44 -8 3 -6 10 -9 15 -6 10 6 18 -22 18 -62 1 -16 -5
-23 -19 -23 -10 0 -19 -4 -19 -10 0 -5 -6 -10 -14 -10 -8 0 -28 -13 -44 -30
-36 -35 -34 -70 4 -70 31 0 39 -16 20 -45 -13 -20 -13 -24 -1 -29 8 -3 15 -16
15 -30 0 -19 9 -27 41 -40 30 -12 38 -20 31 -29 -5 -7 -12 -24 -16 -39 -6 -24
-3 -27 26 -30 29 -3 33 -6 33 -33 0 -16 -5 -32 -12 -35 -15 -6 0 -27 42 -56
25 -17 35 -19 55 -10 14 6 28 15 31 20 4 5 17 1 30 -8 32 -22 95 -20 129 4 20
14 31 17 36 9 13 -22 23 16 17 69 -4 38 -2 52 7 52 8 0 10 8 6 25 -5 20 -3 25
14 25 16 0 20 7 20 35 0 34 1 35 37 35 20 0 33 3 30 6 -4 4 5 20 18 36 14 16
25 33 25 37 0 4 15 16 33 26 32 17 35 17 60 0 15 -9 33 -29 40 -43 14 -30 75
-52 87 -31 11 18 43 -36 36 -59 -5 -13 -1 -22 11 -26 15 -6 15 -8 3 -16 -12
-8 -12 -10 4 -10 15 0 17 6 14 30 -4 27 -2 30 21 30 20 0 31 9 45 35 11 19 25
35 33 35 7 0 13 9 13 19 0 14 11 23 38 31 20 7 41 16 46 21 6 5 19 9 31 9 26
0 75 45 75 69 0 19 31 51 68 70 16 8 22 9 22 1 0 -6 13 -2 29 9 15 11 31 17
35 14 4 -4 9 3 13 15 3 12 6 22 8 22 5 0 100 -41 118 -51 12 -7 17 -5 17 5 0
8 3 21 6 30 3 9 1 16 -6 16 -6 0 -8 -4 -5 -10 3 -5 0 -10 -8 -10 -16 0 -30 40
-22 63 3 7 -1 20 -10 27 -8 7 -15 17 -15 22 0 5 -13 21 -30 35 -24 19 -30 33
-30 63 0 20 -6 55 -14 76 -7 22 -11 44 -9 50 2 6 -7 18 -19 26 -13 9 -36 28
-52 43 -25 23 -36 26 -82 23 -41 -2 -54 0 -57 12 -8 37 5 50 74 70 38 12 69
26 69 31 0 6 12 8 29 4 17 -3 32 -2 36 4 10 17 43 13 64 -8 18 -18 19 -18 25
17 4 25 1 41 -9 52 -8 9 -15 24 -15 34 0 21 -43 38 -77 30 l-25 -7 17 33 c17
33 28 35 94 14 22 -6 22 -5 11 16 -8 16 -9 25 -1 29 19 12 9 94 -16 125 -29
34 -23 45 11 22 28 -18 76 -22 76 -6 0 16 17 11 24 -7 4 -9 1 -20 -6 -24 -9
-6 -8 -10 5 -15 9 -3 14 -10 11 -15 -3 -5 0 -9 5 -9 6 0 11 5 11 11 0 5 5 7
10 4 6 -3 17 6 26 22 9 15 35 38 58 49 30 16 41 27 41 45 0 15 5 23 13 21 8
-1 12 3 10 10 -3 7 -13 15 -24 16 -10 2 -24 9 -29 16 -13 17 -75 9 -75 -9 0
-14 -22 -25 -50 -25 -10 0 -20 -6 -23 -14 -3 -8 -18 -16 -34 -18 -20 -2 -27
-8 -25 -20 2 -10 -1 -18 -6 -18 -14 0 -32 23 -32 43 0 19 36 56 56 57 20 0 24
41 7 67 -18 28 -20 153 -3 199 9 22 7 31 -10 49 -11 12 -20 27 -20 35 0 7 -6
21 -14 29 -7 9 -16 35 -19 58 -4 35 -1 44 18 59 16 12 23 27 23 53 0 20 5 56
11 81 20 77 42 183 48 230 3 25 11 49 19 53 8 4 14 21 14 37 0 17 9 39 20 50
26 26 25 40 -1 37 -17 -1 -22 4 -25 27 -3 27 -1 28 27 22 17 -3 50 -20 75 -38
35 -25 57 -33 103 -36 55 -4 59 -3 65 21 6 24 8 25 36 14 26 -10 36 -9 60 5
28 16 29 16 70 -19 22 -19 44 -33 47 -30 3 4 19 -1 35 -9 16 -8 34 -12 40 -8
7 4 25 -9 45 -32 18 -21 31 -32 28 -23 -5 12 1 18 19 23 14 3 26 11 26 16 0 6
6 10 14 10 8 0 17 7 20 16 5 12 9 14 20 5 10 -9 17 -6 30 13 9 14 16 32 16 41
0 8 9 24 20 35 11 11 20 28 20 38 0 10 5 23 12 30 10 10 7 18 -13 38 -14 14
-35 26 -47 27 -27 2 -29 27 -3 27 11 0 23 9 26 21 9 27 3 32 -28 20 -14 -5
-28 -7 -31 -4 -12 12 -6 33 9 33 22 0 20 50 -2 51 -10 0 -13 3 -7 5 11 5 11
55 -1 73 -9 15 -45 14 -45 -1 -1 -7 -10 -2 -20 11 -15 17 -26 22 -44 17 -16
-4 -28 -1 -33 8 -7 12 -50 20 -90 17 -6 -1 -14 -14 -18 -31 -4 -16 -12 -30
-19 -30 -7 0 -26 -11 -41 -24 -16 -14 -32 -23 -36 -20 -4 2 -9 -1 -11 -6 -2
-7 -12 -8 -26 -3 -13 5 -22 13 -20 18 2 6 -12 11 -30 13 -25 3 -32 7 -28 19 3
8 6 23 6 34 0 12 7 19 20 19 11 0 20 1 20 3 0 1 -4 18 -10 36 -7 26 -6 42 5
65 9 16 13 38 9 48 -4 14 0 18 16 18 12 0 35 11 52 25 16 14 36 25 44 25 8 0
14 6 13 13 -3 27 2 36 24 39 18 2 23 10 25 41 3 38 4 39 23 21 13 -12 40 -19
77 -21 35 -2 61 -9 68 -18 9 -12 16 -9 42 15 27 24 39 29 72 25 24 -2 38 0 35
6 -4 5 -1 9 5 9 8 0 8 6 0 21 -7 11 -9 27 -6 35 3 9 -8 27 -29 46 -28 24 -33
33 -24 44 16 20 3 47 -20 39 -11 -3 -24 1 -32 11 -7 9 -25 20 -39 26 l-25 10
33 13 c17 8 32 19 32 26 0 6 7 8 15 5 9 -3 18 1 21 9 4 9 19 15 35 15 16 0 29
5 29 10 0 6 11 10 25 10 14 0 35 10 46 21 18 18 20 29 15 66 -5 39 -3 46 14
50 24 6 26 19 4 27 -8 3 -12 10 -9 16 3 6 -1 13 -9 16 -9 3 -16 10 -16 14 0 9
74 -11 86 -23 4 -4 17 -7 29 -7 20 0 55 -28 55 -44 0 -4 10 -21 22 -39 13 -18
24 -34 25 -35 2 -4 45 -11 122 -19 53 -5 54 -5 47 20 -7 31 3 39 50 39 20 0
31 4 28 10 -4 5 3 5 15 -2 28 -15 51 2 51 38 0 14 12 41 26 60 26 33 29 34 75
29 32 -4 49 -2 49 5 0 6 10 8 25 4 18 -5 31 0 46 15 12 12 33 27 47 35 23 11
27 10 43 -10 11 -13 35 -27 56 -31 27 -5 33 -9 22 -15 -10 -7 -11 -12 -3 -20
9 -9 16 -6 28 12 13 18 20 21 34 12 9 -6 22 -21 28 -32 6 -12 14 -19 17 -15 4
3 8 -2 9 -13 0 -10 3 -32 5 -49 2 -16 4 -37 4 -45 1 -8 9 -23 17 -32 10 -12
11 -18 3 -18 -8 0 -8 -5 1 -20 8 -13 24 -20 42 -20 21 0 39 -11 66 -39 20 -22
48 -45 63 -50 15 -6 27 -16 27 -24 0 -7 12 -18 28 -25 15 -7 38 -19 52 -27 22
-13 25 -13 28 0 4 20 51 19 58 0 4 -8 11 -12 16 -9 6 4 5 10 -3 15 -19 11 15
24 39 14 30 -14 42 -14 56 0 10 10 16 11 25 2 8 -8 11 -8 11 1 0 7 -7 15 -15
18 -9 4 -15 19 -15 35 0 25 -4 29 -29 29 -31 0 -56 22 -48 43 7 19 -47 86 -85
105 -24 13 -37 28 -46 60 -8 23 -18 42 -23 42 -4 0 -13 9 -19 21 -9 17 -8 23
7 34 17 13 17 14 -2 29 -18 13 -21 13 -27 -5 -10 -26 -21 -25 -13 1 4 13 -1
34 -13 54 l-20 34 72 50 c60 42 75 48 95 40 32 -12 49 -4 61 27 5 14 16 25 25
25 8 0 15 7 15 15 0 8 12 18 28 21 36 9 40 18 35 68 -4 32 1 54 18 87 13 24
22 52 20 62 -1 9 2 17 6 17 11 0 33 59 33 87 0 11 10 27 21 35 21 13 21 15 5
46 -9 18 -14 37 -11 43 4 5 2 16 -5 23 -8 10 -8 26 0 58 9 36 9 52 -2 79 -8
19 -15 51 -16 73 -2 21 -12 56 -23 77 -13 27 -17 45 -11 57 5 9 12 34 16 55 4
20 10 37 14 37 21 -1 42 -31 42 -58 0 -17 4 -33 9 -37 11 -6 41 21 41 36 0 11
-40 50 -89 87 -17 13 -30 28 -28 34 1 6 -9 17 -23 25 -21 11 -27 10 -36 -2
-16 -21 -42 -19 -49 5 -4 11 -10 18 -14 16 -4 -3 -30 3 -57 13 -32 13 -52 27
-59 44 -5 13 -13 24 -16 23 -3 0 -20 16 -39 37 -18 21 -27 37 -19 35 14 -3 15
5 4 35 -4 10 -3 17 4 17 9 0 9 5 1 20 -6 11 -15 18 -19 15 -14 -8 -71 16 -71
30 0 7 -8 15 -17 18 -10 4 -32 18 -49 32 l-31 26 1 -38z m-2554 -1594 c0 -14
-17 -10 -23 5 -4 10 -1 13 9 9 7 -3 14 -9 14 -14z m-125 -49 c-3 -5 -10 -10
-16 -10 -5 0 -9 5 -9 10 0 6 7 10 16 10 8 0 12 -4 9 -10z m2010 -50 c-3 -5
-10 -10 -16 -10 -5 0 -9 5 -9 10 0 6 7 10 16 10 8 0 12 -4 9 -10z m-1920 -404
c15 -23 11 -61 -6 -50 -5 3 -9 -2 -9 -10 0 -18 -30 -36 -59 -36 -13 0 -18 -5
-15 -13 3 -8 -2 -20 -11 -27 -8 -7 -15 -18 -15 -26 0 -7 -20 -25 -45 -40 -25
-14 -45 -31 -45 -38 0 -6 -8 -16 -18 -23 -15 -9 -21 -7 -30 8 -7 10 -17 19
-23 19 -6 0 -4 -7 5 -15 11 -12 13 -22 6 -39 -5 -13 -6 -33 -3 -45 3 -12 1
-21 -6 -21 -7 0 -9 -9 -5 -25 5 -22 4 -24 -12 -18 -24 9 -45 35 -40 49 2 6 -4
16 -15 22 -16 10 -17 14 -4 38 8 15 11 40 8 60 -3 19 -1 34 4 34 13 0 47 76
39 88 -3 5 19 12 51 15 31 3 59 11 63 18 6 8 13 6 26 -10 24 -27 54 -28 54 -1
0 12 7 20 16 20 13 0 15 7 10 38 -3 22 -2 29 3 18 5 -14 10 -16 15 -8 4 7 11
10 16 7 5 -3 11 4 15 15 8 26 11 25 30 -4z m259 -15 c-13 -12 -21 -15 -26 -7
-13 20 -9 26 19 26 26 0 26 0 7 -19z m-757 -77 c14 -28 14 -33 -2 -57 -18 -27
-48 -36 -60 -17 -4 6 -1 17 5 25 6 8 9 23 5 35 -4 14 -1 22 10 26 9 4 14 13
11 21 -4 8 -3 20 1 26 5 8 9 5 11 -8 2 -11 10 -34 19 -51z m23 -161 c0 -14
-26 -18 -34 -4 -7 11 0 18 19 18 8 0 15 -6 15 -14z m280 -193 c0 -5 -7 -7 -15
-4 -8 4 -12 10 -9 15 6 11 24 2 24 -11z m-343 -77 c1 -13 -6 -18 -23 -18 -27
0 -30 5 -12 23 17 17 34 15 35 -5z m563 -63 c0 -5 -4 -10 -10 -10 -5 0 -10 5
-10 10 0 6 5 10 10 10 6 0 10 -4 10 -10z m98 -28 c2 -7 -4 -12 -14 -12 -18 0
-54 27 -54 42 0 12 63 -16 68 -30z m612 34 c0 -3 -4 -8 -10 -11 -5 -3 -10 -1
-10 4 0 6 5 11 10 11 6 0 10 -2 10 -4z m-1524 -101 c-8 -23 -23 -10 -23 21 0
23 1 24 15 11 8 -9 12 -23 8 -32z m806 13 c2 -14 9 -22 19 -20 9 1 21 -9 27
-23 11 -24 10 -25 -18 -25 -28 0 -30 -3 -30 -35 0 -21 6 -37 16 -43 13 -8 14
-11 2 -23 -8 -8 -17 -23 -21 -33 -6 -15 -10 -17 -20 -7 -9 9 -17 5 -37 -18
-25 -29 -26 -29 -78 -18 -39 8 -58 8 -71 0 -21 -13 -47 -1 -36 16 4 7 14 11
23 9 11 -2 23 8 33 30 14 29 17 31 29 17 11 -14 16 -11 36 19 13 19 24 39 24
44 0 5 9 12 20 15 22 6 40 44 40 88 0 22 5 29 19 29 13 0 21 -8 23 -22z m-362
-170 c0 -14 -16 -9 -34 11 -13 15 -14 20 -4 24 13 5 38 -19 38 -35z m18 -21
c8 -23 0 -57 -13 -57 -8 0 -15 9 -15 19 0 11 -4 23 -10 26 -5 3 -10 9 -10 13
0 10 44 8 48 -1z m-374 -18 c5 -5 4 -14 -3 -23 -6 -7 -10 -20 -9 -27 2 -9 -8
-15 -24 -17 -30 -4 -33 3 -22 57 6 26 10 30 28 25 11 -3 25 -10 30 -15z m456
1 c0 -10 -31 -23 -38 -15 -8 7 19 35 29 29 5 -3 9 -9 9 -14z m-162 -66 c27
-18 28 -35 3 -58 -19 -18 -71 -14 -71 6 0 5 5 6 10 3 13 -8 13 31 -1 57 -10
18 -8 19 13 13 12 -4 33 -13 46 -21z m-590 -559 c-2 -1 -15 -5 -30 -9 -24 -5
-28 -3 -28 15 0 12 3 20 6 16 4 -3 13 1 22 10 14 14 16 13 24 -7 5 -13 7 -24
6 -25z m567 -5 c3 -5 2 -10 -4 -10 -5 0 -13 5 -16 10 -3 6 -2 10 4 10 5 0 13
-4 16 -10z m45 -65 c20 -24 8 -51 -20 -47 -33 5 -33 5 -19 36 14 30 22 32 39
11z m220 -85 c12 -7 12 -12 3 -21 -9 -9 -16 -9 -28 1 -29 24 -9 42 25 20z
m470 -165 c0 -8 8 -20 18 -27 19 -14 72 -87 72 -100 0 -5 -15 -8 -32 -8 -32 0
-34 2 -56 73 -12 39 -22 76 -22 80 0 14 20 -4 20 -18z m-130 -5 c16 9 25 9 36
-1 12 -10 9 -14 -18 -28 -24 -13 -36 -14 -43 -6 -18 21 -45 26 -45 8 0 -12 -7
-14 -29 -10 -15 3 -33 1 -38 -4 -7 -7 -13 -7 -17 -1 -9 15 31 45 64 46 16 1
30 5 30 10 0 5 9 1 19 -8 16 -14 23 -15 41 -6z m307 -246 c-3 -3 -12 -4 -19
-1 -8 3 -5 6 6 6 11 1 17 -2 13 -5z m-832 -88 c6 -10 21 -19 35 -20 14 -2 43
-11 65 -21 22 -10 48 -17 58 -16 9 1 17 -3 17 -10 0 -10 3 -10 11 -2 6 6 17 9
24 6 8 -2 16 5 20 18 5 15 10 18 15 10 5 -8 19 -10 42 -6 27 5 37 3 41 -10 5
-10 0 -18 -13 -23 -18 -7 -19 -10 -6 -27 12 -16 12 -23 -1 -50 -8 -16 -29 -39
-46 -50 -48 -32 -55 -49 -33 -89 13 -24 17 -45 12 -66 -3 -18 -1 -40 4 -50 7
-13 7 -21 -1 -26 -8 -4 -7 -9 2 -15 11 -7 9 -9 -6 -10 -11 -1 -28 0 -39 1 -11
1 -15 -3 -11 -9 10 -17 -17 -80 -37 -87 -10 -3 -18 -10 -18 -15 0 -5 -9 -4
-19 3 -10 6 -17 18 -14 26 4 9 0 13 -13 11 -23 -4 -60 30 -63 57 -1 10 -1 42
-1 71 1 28 -4 54 -10 58 -7 4 -5 11 5 21 18 18 20 34 4 34 -7 0 -8 18 -4 55 4
31 8 69 9 86 1 21 9 35 26 46 l25 14 -32 -5 c-19 -3 -33 -1 -33 4 0 14 -50 34
-77 31 -24 -3 -31 13 -10 23 9 4 9 7 0 12 -6 3 -23 16 -38 30 l-26 24 40 0
c22 0 43 5 47 12 7 11 25 -5 49 -46z m51 -564 c10 -15 8 -18 -7 -18 -10 0 -20
8 -22 18 -3 10 0 18 7 18 6 0 16 -8 22 -18z m-596 -472 c0 -5 -2 -10 -4 -10
-3 0 -8 5 -11 10 -3 6 -1 10 4 10 6 0 11 -4 11 -10z m86 -24 c3 -8 -2 -26 -12
-40 -15 -25 -17 -25 -30 -9 -17 23 -18 50 -1 56 23 10 38 7 43 -7z"/>
<path d="M10180 9040 c0 -5 12 -10 28 -10 21 0 24 2 12 10 -20 13 -40 13 -40
0z"/>
<path d="M10125 9030 c-20 -9 -20 -9 1 -9 11 -1 25 -6 32 -13 17 -17 28 -2 12
17 -14 17 -17 17 -45 5z"/>
<path d="M10116 8971 c-4 -6 4 -15 16 -22 13 -6 31 -21 40 -33 l18 -21 -4 25
c-3 27 -60 68 -70 51z"/>
<path d="M10120 8884 c0 -8 5 -12 10 -9 6 4 8 11 5 16 -9 14 -15 11 -15 -7z"/>
<path d="M11530 12536 c0 -2 7 -9 15 -16 9 -7 15 -8 15 -2 0 5 -7 12 -15 16
-8 3 -15 4 -15 2z"/>
<path d="M11490 12506 c0 -10 9 -16 21 -16 24 0 21 23 -4 28 -10 2 -17 -3 -17
-12z"/>
<path d="M10735 12051 c8 -16 12 -31 9 -33 -3 -3 2 -8 10 -11 10 -4 13 -1 9 9
-3 7 0 14 6 14 20 0 11 15 -19 32 l-30 17 15 -28z"/>
<path d="M10490 12001 c0 -5 8 -15 18 -24 16 -15 18 -15 18 3 0 10 -8 21 -18
23 -10 3 -18 2 -18 -2z"/>
<path d="M10398 11850 c-4 -26 -1 -30 19 -30 29 0 32 35 4 49 -16 9 -19 6 -23
-19z"/>
<path d="M10475 11870 c3 -5 11 -10 16 -10 6 0 7 5 4 10 -3 6 -11 10 -16 10
-6 0 -7 -4 -4 -10z"/>
<path d="M11877 11603 c-4 -3 -7 -11 -7 -17 0 -6 5 -5 12 2 6 6 9 14 7 17 -3
3 -9 2 -12 -2z"/>
<path d="M11831 11553 c-7 -8 -11 -16 -8 -19 2 -2 10 2 17 11 17 20 9 27 -9 8z"/>
<path d="M7980 11444 c0 -11 -6 -14 -20 -9 -15 5 -23 0 -32 -22 -7 -15 -13
-29 -14 -31 -1 -1 -13 2 -28 7 -24 10 -26 9 -26 -17 0 -15 -9 -35 -20 -45 -31
-26 -25 -40 13 -34 19 3 40 1 48 -3 8 -5 19 -4 26 2 7 6 24 8 39 5 18 -3 24
-1 20 8 -2 8 -1 26 3 41 8 30 44 42 68 22 8 -6 4 6 -8 28 l-23 39 27 -24 c17
-15 27 -20 27 -11 0 9 6 8 20 -5 23 -21 26 -45 8 -64 -11 -10 -7 -10 16 -1 58
22 116 -13 66 -40 -11 -6 -20 -21 -20 -33 0 -13 -5 -28 -11 -34 -8 -8 -8 -13
0 -17 6 -4 11 -21 11 -37 0 -49 16 -69 55 -69 28 0 44 -9 85 -50 50 -50 51
-50 76 -33 21 14 27 14 34 3 5 -8 6 -18 3 -22 -2 -5 1 -16 8 -24 10 -12 10
-17 1 -23 -9 -5 -5 -14 13 -31 14 -13 25 -29 25 -36 0 -6 7 -17 15 -24 11 -9
12 -17 4 -31 -6 -12 -6 -19 0 -19 5 0 36 -27 69 -60 33 -34 67 -60 79 -60 33
0 72 -38 83 -81 7 -26 27 -56 56 -83 30 -29 44 -51 44 -68 0 -32 66 -80 80
-59 5 9 14 3 30 -19 16 -23 21 -39 16 -63 -5 -25 -1 -36 14 -50 11 -9 20 -24
20 -32 0 -8 6 -15 14 -15 19 0 39 27 33 43 -4 10 10 14 59 15 70 1 94 14 94
55 0 13 10 37 23 53 22 29 30 84 12 84 -12 0 -65 81 -65 99 0 7 7 25 15 40 14
28 14 29 -25 46 -26 12 -40 25 -40 37 0 10 -11 29 -25 42 -14 13 -25 31 -25
40 0 10 -4 15 -8 12 -5 -3 -19 8 -31 24 -12 17 -30 30 -40 30 -10 0 -21 3 -25
8 -4 4 -26 14 -49 23 -37 15 -39 17 -19 23 12 4 22 14 22 22 0 13 -2 13 -15 2
-8 -7 -21 -19 -30 -26 -8 -7 -15 -24 -15 -37 0 -30 -9 -31 -41 -5 -47 38 -59
54 -59 76 0 25 -15 39 -53 48 -26 6 -27 5 -17 -14 16 -30 9 -41 -19 -27 -27
13 -65 73 -58 91 3 7 -1 23 -8 36 -11 21 -13 22 -22 5 -8 -14 -16 -16 -39 -9
-16 4 -47 9 -69 11 -72 5 -75 6 -75 25 0 12 -11 23 -30 29 -16 6 -30 15 -30
21 0 5 -5 6 -10 3 -12 -7 -40 12 -40 27 0 6 8 7 17 4 31 -12 42 31 21 81 -6
15 -12 36 -13 46 -2 9 -3 23 -4 30 -1 9 -3 9 -10 -2 -6 -9 -11 -10 -15 -2 -4
6 -16 11 -27 11 -14 0 -21 9 -25 30 -4 17 -12 31 -18 31 -6 1 -15 2 -21 4 -5
1 -22 3 -36 3 -17 1 -28 9 -32 20 -8 31 -127 46 -127 16z m510 -509 c0 -8 -8
-11 -20 -8 -30 8 -33 21 -5 21 14 0 25 -6 25 -13z"/>
<path d="M7690 11319 c0 -5 -4 -8 -9 -4 -6 3 -14 -1 -18 -10 -7 -12 -14 -13
-41 -3 -25 10 -34 10 -44 -1 -11 -10 -10 -12 2 -10 8 2 25 -2 38 -9 12 -7 22
-9 22 -5 0 4 5 0 11 -9 5 -10 18 -18 27 -18 10 0 24 -6 30 -12 9 -9 15 -10 20
-2 4 6 15 13 25 17 25 9 21 23 -16 51 -37 28 -47 32 -47 15z"/>
<path d="M9216 10681 c2 -65 7 -72 46 -59 26 9 29 13 16 22 -8 6 -22 25 -31
43 -25 48 -33 47 -31 -6z"/>
<path d="M9318 10668 c-10 -10 -18 -24 -18 -30 0 -7 5 -5 11 5 7 12 17 15 35
11 28 -7 32 6 7 22 -14 8 -22 6 -35 -8z"/>
<path d="M9360 10605 c0 -15 4 -24 10 -20 6 3 10 12 10 20 0 8 -4 17 -10 20
-6 4 -10 -5 -10 -20z"/>
<path d="M9055 10223 c5 -18 3 -22 -9 -17 -12 5 -16 0 -15 -17 0 -13 3 -18 6
-11 2 6 11 12 18 12 22 0 26 15 9 36 -14 18 -15 18 -9 -3z"/>
<path d="M8995 10136 c-22 -34 -17 -40 15 -16 19 14 22 22 13 31 -8 8 -15 5
-28 -15z"/>
<path d="M8789 9773 c-13 -16 -12 -17 4 -4 9 7 17 15 17 17 0 8 -8 3 -21 -13z"/>
<path d="M8710 9759 c0 -5 -18 -9 -39 -9 -22 0 -43 -5 -46 -10 -4 -6 -11 -8
-16 -5 -5 4 -9 -1 -9 -9 0 -9 -4 -16 -10 -16 -5 0 -10 -5 -10 -10 0 -6 10 -8
24 -4 13 3 27 1 30 -4 9 -15 64 3 93 30 28 26 29 34 3 41 -11 3 -20 1 -20 -4z"/>
<path d="M11150 9531 c0 -23 26 -35 34 -16 3 8 -3 19 -14 25 -17 9 -20 7 -20
-9z"/>
<path d="M10800 9300 c0 -5 5 -10 11 -10 5 0 7 5 4 10 -3 6 -8 10 -11 10 -2 0
-4 -4 -4 -10z"/>
<path d="M8774 8325 c-19 -14 -19 -15 5 -34 21 -16 23 -24 18 -61 -7 -55 9
-88 47 -98 42 -11 56 -59 23 -85 -12 -9 -30 -15 -39 -13 -11 2 -33 -11 -57
-35 -21 -21 -37 -40 -35 -40 2 -1 9 -2 15 -3 11 -1 42 -76 32 -76 -3 0 0 -7 7
-15 7 -8 21 -15 31 -15 19 0 23 13 19 59 -1 16 3 22 12 18 7 -2 23 5 36 17
l24 21 49 -28 c27 -15 49 -22 49 -17 0 6 13 4 30 -5 45 -23 70 -20 70 10 0 14
-5 24 -12 23 -7 -2 -14 8 -16 22 -4 27 -22 53 -22 32 0 -20 -32 -13 -37 8 -3
11 -9 20 -14 20 -5 0 -20 25 -34 55 -13 30 -29 55 -35 55 -5 0 -7 13 -4 29 5
25 3 30 -17 33 -13 2 -30 15 -39 31 -13 24 -13 29 0 37 16 10 8 14 -22 11 -10
-1 -18 4 -18 13 0 15 -26 46 -39 46 -4 0 -16 -7 -27 -15z"/>
<path d="M8630 8286 c0 -9 5 -16 10 -16 6 0 10 4 10 9 0 6 -4 13 -10 16 -5 3
-10 -1 -10 -9z"/>
<path d="M9850 8001 c0 -17 -6 -19 -57 -14 -32 2 -66 9 -76 15 -16 8 -18 7
-12 -12 5 -17 2 -23 -15 -27 -12 -3 -19 -11 -16 -18 6 -16 -25 -30 -34 -15 -9
15 -38 -21 -35 -43 3 -16 1 -17 -13 -5 -9 8 -23 13 -29 12 -7 -1 -21 -2 -30
-3 -15 -1 -14 -5 7 -21 22 -17 23 -22 13 -39 -7 -12 -13 -28 -13 -36 0 -8 -7
-15 -17 -15 -14 0 -14 -2 2 -20 10 -11 14 -20 9 -20 -22 -1 24 -20 47 -20 33
0 77 -39 57 -51 -10 -7 -10 -9 0 -9 7 0 10 -5 7 -10 -4 -6 -11 -8 -16 -5 -5 4
-9 -3 -9 -14 0 -12 -6 -21 -14 -21 -7 0 -16 -9 -19 -21 -3 -12 -10 -18 -16
-14 -7 3 -11 -2 -11 -14 0 -12 -5 -21 -12 -21 -6 0 -9 -2 -7 -5 3 -2 27 3 53
13 37 13 53 26 67 52 10 19 28 42 39 51 31 27 41 63 23 88 -11 17 -12 25 -3
36 8 10 8 15 0 20 -7 4 -9 17 -6 28 3 13 -1 25 -12 33 -16 12 -16 13 0 14 9 0
28 -4 42 -10 22 -8 26 -7 26 9 0 12 9 20 25 23 16 4 25 1 25 -8 0 -26 46 -64
78 -64 41 0 62 9 62 27 0 11 8 12 38 7 43 -7 64 -17 127 -62 26 -18 48 -32 49
-30 0 2 7 14 14 27 10 17 11 26 3 34 -8 8 4 17 42 33 28 12 53 29 55 38 3 11
-1 14 -13 10 -13 -5 -14 -9 -4 -15 24 -14 -58 -22 -98 -8 -21 7 -58 14 -83 16
-78 6 -84 8 -114 36 -16 15 -38 27 -48 27 -11 0 -22 9 -25 20 -3 11 -10 20
-15 20 -5 0 -6 5 -3 10 3 6 -3 10 -14 10 -14 0 -21 -6 -21 -19z m-210 -101 c0
-5 -2 -10 -4 -10 -3 0 -8 5 -11 10 -3 6 -1 10 4 10 6 0 11 -4 11 -10z"/>
<path d="M8600 7942 c0 -7 5 -12 10 -12 6 0 10 -7 10 -15 0 -8 7 -15 15 -15 8
0 15 -9 15 -20 0 -11 5 -20 11 -20 6 0 8 9 4 21 -5 15 -4 19 4 14 15 -9 41 13
41 34 0 19 -42 26 -69 11 -12 -6 -22 -5 -29 2 -9 9 -12 9 -12 0z"/>
<path d="M9153 7929 c-7 -7 -9 -18 -6 -25 4 -10 0 -12 -11 -8 -24 9 -33 -26
-11 -42 20 -15 31 -74 14 -74 -5 0 -7 -5 -3 -12 5 -7 7 -25 6 -40 -2 -22 2
-28 18 -28 22 0 25 -7 10 -30 -6 -9 -5 -17 3 -22 21 -13 13 -42 -18 -68 -16
-14 -30 -32 -30 -40 0 -9 -11 -16 -27 -18 -22 -3 -27 -8 -24 -25 2 -16 11 -23
32 -25 16 -2 34 -8 41 -14 6 -5 35 -7 62 -4 28 3 51 2 51 -2 0 -4 14 -13 31
-21 20 -9 28 -18 25 -28 -4 -9 -1 -13 6 -11 25 9 19 36 -14 67 -35 33 -53 38
-62 19 -3 -10 -8 -8 -15 4 -6 9 -25 20 -42 23 -18 4 -27 10 -21 14 7 4 8 12 2
21 -13 21 -12 30 3 30 7 0 21 6 31 13 15 11 16 16 3 47 -15 35 -18 83 -6 78 4
-2 16 5 27 15 18 17 32 63 33 112 0 21 -28 48 -42 39 -4 -2 -19 11 -32 30 -17
26 -27 32 -34 25z"/>
<path d="M8506 7886 c5 -13 1 -15 -22 -10 -25 4 -32 0 -46 -25 -12 -21 -25
-31 -41 -31 -22 0 -24 -3 -23 -69 0 -39 4 -67 9 -64 4 3 8 -19 7 -49 -1 -29 1
-78 5 -109 6 -48 4 -63 -20 -112 -14 -31 -34 -64 -42 -73 -15 -14 -14 -18 11
-42 l27 -27 -5 31 c-5 27 -1 35 22 50 51 35 68 41 89 33 14 -5 25 -3 33 6 13
16 34 10 25 -6 -4 -5 1 -9 9 -9 11 0 16 9 16 30 0 23 4 30 20 30 13 0 20 7 20
19 0 11 5 23 10 26 6 4 8 11 4 17 -4 6 8 9 32 8 81 -4 83 6 18 79 -25 28 -43
55 -39 61 8 13 -13 50 -29 50 -14 0 -26 20 -32 52 -4 18 29 34 47 22 9 -5 10
3 5 28 -4 25 -2 39 8 47 29 24 7 41 -47 37 -29 -2 -58 1 -65 6 -9 8 -11 7 -6
-6z m13 -455 c9 -6 10 -11 2 -15 -13 -8 -31 1 -31 15 0 11 11 11 29 0z"/>
<path d="M9381 7844 c-13 -19 -27 -31 -30 -27 -3 4 -15 15 -25 23 -18 14 -19
13 -13 -3 4 -11 1 -20 -8 -24 -10 -3 -13 -12 -10 -24 5 -14 1 -19 -13 -19 -17
0 -20 -6 -19 -37 2 -35 4 -38 30 -35 29 3 37 -15 12 -24 -12 -5 -13 -10 -4
-20 15 -18 33 -18 26 0 -4 10 4 15 29 18 32 4 34 2 34 -24 0 -36 26 -37 42 -2
8 17 18 24 30 21 13 -4 18 0 18 14 0 10 6 19 14 19 19 0 24 37 11 73 -8 23 -7
31 8 41 26 20 21 33 -12 32 -16 -1 -27 -4 -24 -8 2 -5 -1 -8 -7 -8 -6 0 -13 7
-16 15 -4 8 -10 12 -15 9 -5 -3 -12 2 -15 10 -9 23 -16 20 -43 -20z"/>
<path d="M9410 7585 c0 -2 10 -10 23 -16 20 -11 21 -11 8 4 -13 16 -31 23 -31
12z"/>
<path d="M9215 7541 c18 -35 35 -48 35 -27 0 9 -4 16 -10 16 -5 0 -10 9 -10
20 0 11 -7 20 -15 20 -14 0 -14 -3 0 -29z"/>
<path d="M9510 7505 c0 -21 -27 -30 -45 -15 -15 12 -55 5 -55 -10 0 -5 -3 -16
-7 -26 -5 -14 -2 -16 14 -12 11 3 27 1 36 -3 21 -12 67 10 67 32 0 9 3 24 6
33 3 9 1 16 -5 16 -6 0 -11 -7 -11 -15z"/>
<path d="M9360 7421 c-10 -20 -4 -51 10 -51 4 0 10 16 12 35 4 38 -6 46 -22
16z"/>
<path d="M9542 7398 c-9 -25 -14 -30 -24 -20 -18 18 -36 15 -43 -8 -5 -16 -10
-17 -31 -10 -19 8 -24 6 -24 -6 0 -12 -6 -15 -21 -11 -12 3 -18 3 -15 0 3 -3
1 -14 -4 -23 -11 -20 14 -42 63 -54 22 -5 29 -3 35 14 l8 21 26 -21 c15 -11
30 -19 35 -18 4 1 18 -4 31 -11 l23 -12 -18 27 c-19 29 -27 114 -11 114 5 0 7
4 3 9 -3 5 -1 12 5 16 6 4 8 11 5 16 -12 18 -31 8 -43 -23z"/>
<path d="M8966 7385 c-22 -19 -27 -30 -22 -49 4 -15 1 -26 -7 -29 -8 -4 -8 -6
-1 -6 7 -1 25 6 40 14 16 8 25 15 20 15 -4 0 -2 10 6 23 14 21 14 57 0 57 -4
0 -20 -11 -36 -25z"/>
<path d="M9255 7341 c-4 -17 -11 -31 -16 -31 -5 0 -9 -13 -9 -28 0 -17 -9 -37
-21 -48 -12 -10 -30 -36 -41 -57 l-19 -39 33 7 c18 4 37 14 41 21 4 8 17 14
28 14 34 0 79 50 79 87 0 17 5 44 10 59 6 15 9 28 7 30 -1 2 -21 6 -44 10 -40
6 -41 5 -48 -25z"/>
<path d="M9040 7320 c0 -5 5 -10 10 -10 6 0 10 5 10 10 0 6 -4 10 -10 10 -5 0
-10 -4 -10 -10z"/>
<path d="M8850 7305 c-6 -7 -18 -11 -26 -8 -8 3 -14 0 -14 -6 0 -6 -6 -8 -13
-5 -16 6 -61 -41 -53 -55 9 -13 -11 -24 -48 -26 -17 -1 -43 -5 -58 -10 l-27
-7 26 -35 27 -35 -47 7 c-43 7 -47 5 -58 -19 -9 -20 -17 -24 -34 -20 -18 4
-23 1 -27 -21 -6 -28 17 -85 33 -85 5 0 11 0 14 0 3 0 14 -9 26 -21 19 -19 22
-19 38 -5 27 25 38 19 34 -16 -3 -24 -2 -29 6 -19 8 12 12 12 25 2 9 -8 16
-19 16 -25 0 -8 11 -11 29 -8 16 2 32 -1 35 -7 11 -18 26 -13 26 9 0 18 3 19
20 10 11 -6 20 -17 20 -25 0 -8 5 -15 11 -15 6 0 9 -9 6 -20 -3 -11 -2 -20 3
-20 10 0 20 36 20 73 0 20 5 27 20 27 15 0 20 7 21 28 2 45 -1 54 -27 74 -29
23 -30 37 -4 84 18 34 18 39 4 67 -9 17 -12 32 -7 36 6 3 12 17 16 30 4 18 1
24 -14 28 -18 5 -19 7 -4 23 9 10 12 21 7 24 -5 3 -15 -1 -22 -9z m-14 -413
c-10 -10 -29 15 -21 28 6 9 10 8 17 -4 6 -10 7 -20 4 -24z"/>
<path d="M8998 7303 c7 -3 16 -2 19 1 4 3 -2 6 -13 5 -11 0 -14 -3 -6 -6z"/>
<path d="M8315 7260 c-4 -6 7 -10 24 -10 37 0 38 -9 7 -72 -20 -41 -21 -50 -9
-60 9 -7 13 -26 12 -48 -2 -19 1 -42 6 -49 6 -11 3 -13 -12 -9 -16 4 -19 2
-16 -13 3 -10 14 -21 24 -24 12 -4 19 -16 19 -32 l0 -26 20 23 c11 13 20 20
20 15 0 -4 6 -3 13 2 6 6 24 13 40 17 34 8 37 40 5 57 l-23 12 23 10 c26 12
29 32 5 46 -10 5 -18 18 -18 28 0 10 -4 18 -10 19 -5 0 -21 6 -35 13 -22 10
-25 18 -22 48 3 27 0 40 -14 50 -21 15 -50 17 -59 3z"/>
</g>
</svg>
