<svg version="1" xmlns="http://www.w3.org/2000/svg" width="460.416" height="1052.924" viewBox="0 0 345.312 789.693"><g fill="#222"><path d="M101.3 1.6c-.3.8.2 2.3 1.1 3.2.9 1 1.6 1.2 1.6.5s-.5-1.5-1-1.8c-.8-.5-.7-1.1.1-2.1.9-1 .9-1.4 0-1.4-.6 0-1.4.7-1.8 1.6zM104.3 9.7c-2.1.7-1.5 2 1.2 2.7 1.7.4 2.5 1.3 2.5 2.9 0 1.6 1.5 3 5.3 5.2 2.8 1.7 5.2 3.5 5.2 4 0 .6.5 1.8 1.1 2.9.9 1.4 1.1.7 1-3.8-.1-4.1-.5-5.8-1.6-6.1-.9-.3-2.1-1.8-2.7-3.5-.6-1.6-1.6-3-2.2-3-.6 0-.8.8-.4 1.7.6 1.7.5 1.7-1.3.2-2.6-2.1-6.6-3.7-8.1-3.2zM113 33.1c0 .6-.9.8-2 .4-1.7-.5-2-.2-2 2 0 2.4-.3 2.6-2.7 2.1-3.1-.6-6.9 1.6-5.8 3.3.4.7-.8 1.1-3.3 1.1-3.5 0-3.9.2-3.5 2 .3 1.1.9 2 1.4 2 .5 0 .9.8.9 1.7 0 1 .5 2.5 1 3.3.8 1.3 1.1 1.3 1.9.1.5-.8 1.6-1.1 2.4-.8 1.9.7 4.3-2 3.9-4.4-.2-1.4.6-2 3.3-2.5 3.1-.6 4.1-.2 6.6 2.2 1.6 1.5 3.1 2.5 3.4 2.3.7-.8 1.4-9.9.7-9.9-.4 0-1.5-1.4-2.4-3-1.7-3-3.8-4-3.8-1.9zM91 59.5c0 1.4-1.1 1.9-3.7 1.6-.7-.1-1.3.5-1.3 1.4 0 .8-.4 1.5-.9 1.5s-.4 1.3.2 3c.6 1.6 1.5 3 1.9 3 .4 0 .8.9.8 2.1 0 1.1.5 2.9 1 4 .8 1.4.7 2.8-.6 5.4-1.6 3.5-2 6.4-1.1 10 .2 1.1-.3 4-1.1 6.3-1 3-1.2 5-.5 6.5s.5 3-.4 4.7c-.7 1.4-1.3 4.2-1.3 6.2 0 3.5.7 4.4 3.4 3.9.5-.1.6 1 .3 2.5-.3 2 0 2.8 1.4 3.1 1.1.3 1.9.9 1.9 1.4 0 .5 1.4 1.5 3 2.4 2.5 1.3 3 2.2 3 5 0 1.9.5 3.5 1 3.5.6 0 2 2.1 3.1 4.7l2 4.6-2.1 2.2c-2.5 2.7-3.7 8.9-2.1 10.9 2.1 2.6 2.3 6.7.4 8.2-1 .7-1.4 1.4-1 1.4.4 0 .3.9-.3 2-.9 1.6-.8 2 .6 2 1.3 0 1.4.3.4 1.5-.7.8-1.9 1.5-2.6 1.5-1 0-1.2.8-.7 3 .4 2.1.2 3-.7 3-.8 0-2.1.7-3.1 1.6-1.3 1.2-2.2 1.3-3.7.5-1.1-.6-2.3-.7-2.7-.3-.5.4-.5.1-.1-.6.5-.7.1-1.2-1.1-1.3-1 0-1.3-.3-.6-.5.7-.3.9-1.2.6-2-.3-.8.1-1.4 1.1-1.4.9 0 1.6-.7 1.6-1.5s.5-1.5 1.1-1.5c.5 0 .8-.4.4-.9-.3-.5-.1-1.2.4-1.6 1.2-.7 1-4.4-.3-4.2-.5.1-1.3-1.2-1.7-2.9-1.1-4-3.3-4.9-7.2-2.9-3.1 1.6-4.6.9-4.7-2.2 0-2.6-3.6-7.3-5.6-7.3-1.1 0-2.5-.5-3-1-1.5-1.5-4.4-.2-3.7 1.6.6 1.6-2 1-4.6-1-1.1-.8-1.5-.8-1.8.1-.3.8-1.4 1.1-2.9.7-1.9-.5-2.4-.2-2.5 1.2 0 1.1-.3 3.7-.5 5.9-.3 2.1-.2 3.6.2 3.3.4-.4 1.5-.3 2.5.3 1.4.7 1.7.6 1.3-.4-.6-1.5 3.3-1.7 5.6-.2.8.5 2.6 1.6 3.9 2.2 2 1.2 2.2 1.1 1.6-.5-.4-1 .7-.4 2.7 1.5 1.8 1.7 4.2 3.3 5.2 3.5 1.8.3 1.9.4.3 2-2.3 2.3-2.1 2.8.8 2.8 1.4 0 2.8.7 3.1 1.5.4.8 1 1.3 1.4 1 .4-.3 1 .5 1.4 1.8.3 1.2.2 2.3-.3 2.5-.5.2-.7 1.1-.4 2.2.5 2 4.3 3.5 4.3 1.7 0-.6.3-.8.6-.4.3.3.2 1.2-.2 1.9-.5.7-.9 2-1 2.8-.2 2.9-2.9 8-4.1 8-1.7 0-1.7 4.5.1 7.8 3.6 7 3.9 8.1 2.8 9.5-.9 1.1-.8 1.8.6 3.1 1 .9 2.2 1.3 2.5.9.4-.3 1.7.2 3 1.3 1.2 1.1 3.4 2.6 4.9 3.3 1.4.8 4 3.2 5.6 5.5 2.2 3 4.3 4.6 8 5.9 2.8 1 5.8 2.4 6.6 3.2 1.8 1.8 3.8 1.9 5.4.3 1.7-1.7 8.1-3.7 8.8-2.7.3.5 1.2.9 2.1.9 1.1 0 1.4-.6.9-2.5-.5-2-.3-2.5 1.2-2.5 1.1 0 2.7-.9 3.7-2 2.2-2.5 2.6-2.5 5.4-.1 1.3 1.1 2.9 1.7 3.6 1.5 1.6-.6 3.4 2.4 3.2 5.1-.1 1.4.5 2.1 2.1 2.3 1.5.2 2.2-.2 2.2-1.2 0-.9 1.5-2.2 3.4-3 1.9-.8 3.8-2.2 4.3-3.1 1-1.7 9-3.8 9.7-2.6.2.3 3.3.8 6.7.9 3.5.2 6.8.7 7.4 1.1.5.5 2.6.1 4.5-.7l3.5-1.5-6.5-2.2c-5.7-1.9-6.8-2-9.3-.8-2 1-3.2 1.1-4.8.3-1.1-.7-2.7-.9-3.5-.6-.8.3-3.7-.8-6.5-2.5-4.8-2.8-5.3-2.9-7-1.3-1 .9-2.5 1.4-3.3 1.1-.8-.3-1.7-.3-2.1.1-.4.4-3.2.8-6.3.9-3.2 0-6.5.2-7.6.3-2.2.1-9.6-4.8-9.6-6.5 0-.6-1.6-1.9-3.6-2.8-1.9-1-3.2-2.1-2.9-2.7.3-.5-1.4-.7-4.5-.3-4.5.5-5.3.3-7.6-2.1-2.1-2-2.4-2.9-1.5-3.9.8-1.1.6-1.8-.9-3.2-2.9-2.6-2.5-9.5.6-9.5 2.1 0 .5-2.8-1.8-3.2-1.6-.2-2.5-1.8-3.9-6.2-1-3.2-1.7-6.2-1.4-6.6.2-.4 2.1-1 4.2-1.3 2.1-.4 4.5-1.6 5.4-2.8 1.1-1.4 3.1-2.3 6.3-2.6 4-.5 4.6-.8 4.1-2.4-1-3 3.4-6.9 7.8-7.1 2.1-.1 4-.4 4.2-.8.2-.4-1.8-2.4-4.5-4.4-2.8-2.1-5.1-4.3-5.1-5-.6-5.9-2.1-9.4-4.9-11.5-1.7-1.2-3-2.8-3-3.6 0-.8-.4-1.5-1-1.5-1.2 0-2.8-2.9-3.4-6.4-.3-1.4-1.3-3.7-2.3-5-1.1-1.3-2.7-4.9-3.8-7.9-1.8-5.4-1.8-5.7-.1-7.6 1.7-1.9 1.7-2.3.3-6-1.3-3.3-1.4-4.1-.3-5 1.1-.9.7-1.8-2.1-4.6-3.6-3.6-3.6-3.6-1.6-9.6.2-1-.5-2.6-1.9-3.9-2.1-2.1-2.2-2.2-.3-1.6 1.9.5 2.3-.1 3.6-5.7 1.4-6.3 1.4-6.3-.7-5.9-2.2.4-5.8-3.3-4.9-4.9.3-.4-.2-.9-1-1.3-.9-.3-1.5 0-1.5.9zM96 223c0 .5-.2 1-.4 1-.3 0-.8-.5-1.1-1-.3-.6-.1-1 .4-1 .6 0 1.1.4 1.1 1zM103.5 59.8c-1 .7-2 4.2-1.1 4.2.8 0 3.6-3.1 3.6-4.1 0-1.1-1.1-1.2-2.5-.1zM109.2 63c0 1.4.2 1.9.5 1.2.2-.6.2-1.8 0-2.5-.3-.6-.5-.1-.5 1.3zM105 67c-.9.6-1 1-.3 1 .6 0 1.5-.5 1.8-1 .8-1.2.4-1.2-1.5 0z"/><path d="M58 142.8c-.8.4-1.6 1.7-1.7 3-.3 1.9 0 2.1 1.6 1.2 1.1-.5 2.7-.7 3.5-.4 1.9.7 2.2-1.6.4-3.4-1.3-1.3-1.6-1.4-3.8-.4zM53.4 146.7c.5 1.5.2 2.2-.8 2.5-1 .2-1.2.8-.8 1.6.6.9 1.2.5 2.2-1.3 1.1-2.1 1.1-2.8.1-3.8-1.1-1-1.2-.8-.7 1zM41.2 159c0 1.4.2 1.9.5 1.2.2-.6.2-1.8 0-2.5-.3-.6-.5-.1-.5 1.3zM39.6 162.9c-.4.5.4 1.5 1.6 2.2 2.2 1.2 2.2 1.1.8-.7-.8-1-1.5-2-1.6-2.2-.1-.2-.5.1-.8.7zM51.7 166.7c-1.2 1.1-.8 2.3.8 2.3.8 0 1.5-.7 1.5-1.5 0-1.6-1.2-2-2.3-.8zM41 168.4c0 1.5 4.5 5.6 6.1 5.6.5 0 .9-1.1.9-2.5 0-1.8-.7-2.8-2.6-3.5-3.5-1.3-4.4-1.3-4.4.4zM62 168.5c.6.7 2 1.5 3.1 1.8 1.6.4 1.8.3.9-.8-.6-.7-2-1.5-3.1-1.8-1.6-.4-1.8-.3-.9.8zM52.9 172.8c-7 4.8-10.2 8.3-8.9 9.6.7.7 1.6.7 3-.2 1.1-.7 2-.8 2-.3s1.2 1.2 2.7 1.6c3.7.9 5.3 2.3 4.6 4.1-.4 1 .4 1.4 3 1.4 3.2 0 3.7.4 4.7 3.5.6 1.9 1.6 3.7 2.1 4 1.5 1 4.6-1.4 5.3-4.1.7-2.5.8-2.6 2.1-.8 1.4 1.8 1.4 1.8 1.5-.2 0-1.2.7-2.7 1.5-3.4 1.9-1.6 1.9-3.7.1-4.7-.8-.4-1.6-2.2-1.8-3.8-.2-2.3-.9-3.1-2.8-3.3-1.4-.2-3.3-1.1-4.3-2-1.4-1.2-2.2-1.4-3.5-.6-1.3.8-2 .7-2.8-.4-1.5-2.1-5.8-2.3-8.5-.4zm-.2 9.4c-.3.8-.6.5-.6-.6-.1-1.1.2-1.7.5-1.3.3.3.4 1.2.1 1.9zm11.8-.2c.3.5.2 1-.4 1-.5 0-1.3-.5-1.6-1-.3-.6-.2-1 .4-1 .5 0 1.3.4 1.6 1zM69 172.1c0 .5.5.7 1 .4.6-.3 1-.8 1-1.1 0-.2-.4-.4-1-.4-.5 0-1 .5-1 1.1zM65 218.3c0 2.2-.6 2.7-3.3 3.2-2.6.5-3.2 1.1-3.2 2.9.1 1.2.4 2.7.8 3.3.4.6 0 1.6-.8 2.3-1.3 1.1-1.3 1.6.2 4.1 2.4 4 8.2 8.5 12.2 9.4 2 .4 3.5 1.5 3.8 2.6.5 1.6.9 1.4 3.4-1.7 2.2-2.8 2.6-4 1.8-5-1.8-2.2-.3-4.5 2.4-3.9 1.7.5 2.6.2 3-.9.4-.9 1.3-1.6 2.1-1.6.9 0 1.3-.6 1-1.5-.4-.9.3-1.9 2-2.6 2.5-1.2 3.7-4.9 1.6-4.9-.5 0-1 .6-1 1.3 0 .8-.9 1.3-2.2 1.2-1.3-.1-2.8.2-3.4.7-.8.5-1.4.3-1.8-.7-.4-1-1.3-1.4-2.8-1-1.8.4-2.8-.1-4.3-2.5-1.4-2-3.1-3.2-5.5-3.6-1.9-.3-4.1-1.3-4.7-2.2-1.1-1.4-1.3-1.2-1.3 1.1zM41.8 219.4c.3 1.2 2.3 3.8 4.4 6 2.1 2.1 3.7 4 3.5 4.2-.6.7-6.2.7-7.8 0-1-.5-1.9-.1-2.2.8-.4.9-.2 1.6.3 1.6 1.2 0 2.2 3.4 1.4 5.4-.4 1.1-1.3 1.5-2.5 1.1-1.6-.5-1.8-.2-1.3 2.4.6 2.8.4 3.1-2 3.1-1.6 0-2.6.5-2.6 1.5 0 .8-1.2 1.8-2.7 2.1-3.9 1-7.2 3.6-7.3 5.6 0 .9-.4 2-1 2.3-1.4.8-1.3 3.5.3 6.8 1.2 2.6 2.3 3.1 5.8 2.8 1.8-.2 3.9 4.5 3.9 8.7 0 1.5 1.3 3.6 3.6 5.7 2.2 2 3.1 3.5 2.5 4-.6.3-1.1 1.7-1.1 3.1 0 3.1-1.5 3.1-3.6-.1-2-3.1-3.4-3.3-2.7-.4.6 2 .3 2.1-2.1 1.5l-2.8-.7.7 5.3c.4 2.9 1.1 5.4 1.6 5.6.5.2.9 1.2.9 2.3 0 1.7 1.6 2.4 4.3 2 .4 0 .7.6.7 1.4 0 1.7-3.6 2.1-4.2.5-.1-.5-2 .5-4 2.3-2.7 2.4-3.4 3.7-2.8 4.7.8 1.2 1 1.2 1 .1 0-1.1.3-1.1 1.6 0 1.4 1.1 1.8 1 3-.6.8-1 1.4-2.5 1.4-3.2 0-1.9 1.3-1.6 8.5 1.4 5.1 2.2 6.3 3.2 5.9 4.5-.3 1-.1 1.8.5 1.8s1.2-.8 1.2-1.8c.1-.9.3-3.1.4-4.7.1-1.7-.3-3.6-.8-4.3-.7-.8-.5-1.8.7-3.1 1.6-1.7 1.6-1.9-.6-2.5-1.4-.5-1.8-.9-1-1.3.6-.2 1.2-1.5 1.2-2.7 0-1.2.4-2.6.9-3.2 1.1-1.1.3-6.4-1-6.4-.5 0-.4-.9.3-1.9 1.1-1.9 1.3-1.8 3.6 1.6 2.2 3.3 2.3 3.7.9 4.8-1.2.8-1.3 1.5-.6 2.2.8.8.8 1.7 0 3.1-1.9 3.6-1.2 4.9 3.4 7.1 4.2 1.9 4.7 2 6.1.6 1-1 1.4-2.4 1-3.8-.7-3-4.8-7.7-6.6-7.7-1.2-.1-1.1-.3.3-1.4.9-.7 1.7-1.8 1.7-2.3 0-1.6-2.9-7-4.5-8.3-1.7-1.4-2.1-3.5-.5-2.5.6.3 1-.1 1-.9s-1-1.6-2.1-1.8c-3.3-.5-4.6-3.2-2.9-6.2 1.2-2.4 1.1-2.8-.9-5-2-2.1-2.1-2.5-.7-3.9.9-.9 1.6-2 1.6-2.5 0-1.8-5.8-7.2-7.8-7.2-1.1 0-2.6-.7-3.3-1.7-1.3-1.5-1.1-1.6 1.6-.8 1.7.4 3.7.7 4.5.6.8-.1 2.5-.2 3.8-.2 1.2-.1 2.2-.7 2.2-1.5s.4-1.4 1-1.4c1 0 6-9.5 6-11.5 0-.7-1.3-2.2-3-3.5-2.4-1.8-2.8-2.7-2.3-5.1.7-3.4-1.1-5.4-5.3-6.1-2.7-.4-3-.2-2.6 1.6zm1.6 65.7c-.7 1.2-4.4 1.1-4.4 0 0-.5.3-1.7.6-2.6.6-1.5.8-1.4 2.5.1 1 .9 1.6 2.1 1.3 2.5zm0 5.5c2.1 2 2.1 4.1 0 2.4-.8-.8-1.4-.9-1.3-.4.4 2-.2 2.4-2.1 1.4-2.4-1.3-2.6-3-.5-3 .8 0 1.5-.5 1.5-1 0-1.4.6-1.3 2.4.6zM201.4 223.5c-1.9 1.4-1.8 1.4.4 1.5 1.3 0 2.2-.6 2.2-1.5 0-1.9-.1-1.9-2.6 0zM194.4 225.6c.2.6-.1 1.7-.7 2.3-.8.8-.7 1.1.5 1.1.9 0 2.2-1 3-2.3 1.4-2.1 1.4-2.2-.9-2.2-1.3 0-2.1.5-1.9 1.1zM60.7 248.6c-.6.6-.3 1.5 2.1 6.1 1.8 3.4 2.8 10.8 1.4 9.9-.8-.5-1.2.3-1.2 2.4 0 1.9.6 3.3 1.6 3.7 1.8.7 6.6-1.6 5.8-2.9-.7-1.1 1.3-1 3.7.2 1.3.7 1.9.7 1.9 0 0-.5.8-1 1.9-1 2.2 0 4.5-2.5 3.7-3.9-.3-.5 0-1.1.6-1.4 1-.3.8-1-.6-2.5-1.5-1.7-1.6-2.5-.7-3.6.9-1 .9-2 0-3.9-.8-1.9-1.8-2.4-4.3-2.4-1.7.1-3.7-.2-4.4-.7-.7-.4-1.2-.2-1.2.7 0 .8-.7 2-1.5 2.7-1.2 1-1.6.8-2.5-1.4-.9-2.5-4.6-3.6-6.3-2zM62.6 273.7c.8 3.5 1.2 3.9 2.3 2.7 1.1-1.1-.4-5.4-1.9-5.4-.6 0-.8 1.1-.4 2.7z"/><path d="M57.4 286.2c.3 1.3.6 2.6.6 3 0 1.4 2 .8 4-1.2 2.8-2.8 2.5-3.6-1.6-3.8-3.4-.3-3.6-.1-3 2zM58 306.4c0 .2.7.7 1.6 1 .8.3 1.2.2.9-.4-.6-1-2.5-1.4-2.5-.6zM48 310.3c0 1.4.4 2.8.9 3.1.5.4.8-.5.6-1.9-.3-3.5-1.5-4.4-1.5-1.2zM31.3 311.5c-6.9 6-7.7 6.8-6.1 6.2 1-.3 1.9 0 2.2.9 1 2.5.7 3.2-1.4 3.9-1.4.4-2 1.5-2 3.5 0 1.6-.7 3-1.5 3.4-.8.3-1.4 1.1-1.3 1.8.2.9-.9 1.3-3.5 1.3-2.1 0-3.7.5-3.7 1.1 0 1.5 4 2.6 5.4 1.6.6-.5 3.4-.9 6.1-1 4.7-.2 5.1 0 7.3 3.3 1.5 2.3 2 4.3 1.6 5.9-.6 2.6 1.9 4.8 4.4 3.9.7-.3 2.4.3 3.9 1.2 1.8 1.2 2.8 1.4 3.3.6.3-.7 1.4-.9 2.3-.6 3.3 1.3 11.1-5.2 12.3-10.3.8-3.2 2.3-4.3 4.7-3.6.9.3 1.7.3 1.7 0 0-1.2-3.5-4.6-4.7-4.6-.6 0-1.6-.6-2-1.3-.4-.6-2-1.8-3.6-2.6-1.5-.8-3-2.4-3.3-3.5-.7-2.8-5.1-4.8-7.5-3.6-2.8 1.6-4.4 1.3-2.9-.5 1.5-1.8-1-5.3-5.6-7.7-3.2-1.7-3.4-1.6-6.1.7zM64 312.8c.6 1.3 1.4 2.1 1.8 1.8.3-.4-.2-1.4-1.2-2.4-1.8-1.6-1.8-1.6-.6.6zM65.8 318.4c-1.6 1.2-1.5 1.5 1.7 4.6 2.9 2.8 3.5 3.1 4.1 1.7.7-1.9-1.6-7.7-3.1-7.7-.5 0-1.8.7-2.7 1.4z"/><path d="M17.6 329.5c.4.8 1 1.5 1.5 1.5s.9-.7.9-1.5-.7-1.5-1.5-1.5c-.9 0-1.2.6-.9 1.5zM0 330.4c0 .7.9 1.6 2 1.9 1.1.3 2 .2 2-.2 0-.3-.9-1.2-2-1.9-1.6-1-2-1-2 .2zM75.1 340.4c.6 1.3 2 2.7 3.2 3 1.7.4 1.5 0-.9-2.5-3.4-3.5-3.7-3.6-2.3-.5zM81 343.6c0 1.2 6.3 10 9.2 12.8 1.2 1.2 3.3 2.5 4.4 2.8 1.9.5 2.2 0 2.8-4 .7-5-1.4-8.8-4.2-7.7-.8.3-2.2-.1-3.1-.8-.9-.8-2.5-1.7-3.6-1.9-1.1-.3-2.8-.9-3.7-1.3-1-.4-1.8-.3-1.8.1zM90.6 363.9c-.3 2-.2 3.7.3 3.9.5.2 3.3 1.8 6.3 3.5 9.9 6 7.8.4-3.4-8.9l-2.6-2.2-.6 3.7zM85 369c0 .5.6 1 1.4 1 .8 0 1.8-.5 2.1-1 .3-.6-.3-1-1.4-1-1.2 0-2.1.4-2.1 1zM112 373.2c0 .7.4 1.9.9 2.7 1.1 1.7 2.3-.1 1.5-2.3-.7-1.9-2.4-2.1-2.4-.4zM115 384c0 1.1.7 2 1.5 2s1.5.7 1.5 1.5c0 1.5 1.9 2.2 2.1.7.8-4.7.4-5.8-2.3-6-2.2-.2-2.8.2-2.8 1.8zM121 388c0 1.1 2.9 4.2 5.1 5.6.8.5 1.9 1.8 2.5 2.8 1.2 2.2 3.4 3.3 3.4 1.8 0-1.1-9.4-11.2-10.4-11.2-.3 0-.6.4-.6 1zM136 405.5c0 .9-.6 1.2-1.6.8-1-.4-1.7.1-2.1 1.6-.4 1.6-1.1 1.9-2.8 1.5-1.7-.4-2.4 0-2.8 1.5-.6 2.5 1 3.8 4.3 3.5 3-.2 6.3 1.3 5.5 2.7-.4.5-.1.9.4.9 1.5 0 5.4 4 4.7 4.8-1 .9 3.6 5.2 5.6 5.2 2.5 0 2.3-.7-1.3-3.7-2.7-2.3-3-3.1-2.8-7.6.2-3.9-.1-5.2-1.6-6.3-1.5-1.1-2.1-1.1-2.7-.1-.7.9-.8.8-.7-.3.3-3.3-.2-6-1.1-6-.5 0-1 .7-1 1.5zM127 406.5c0 .9.6 1.2 1.5.9.8-.4 1.2-1 .9-1.5-.8-1.4-2.4-1-2.4.6zM262.5 406c.3.5.8 1 1.1 1 .2 0 .4-.5.4-1 0-.6-.5-1-1.1-1-.5 0-.7.4-.4 1zM257.5 409.6c-2 1.5-2 1.5.5 3.4 2.2 1.7 2.3 2 .7 2.5-.9.4-1.4 1.1-1.1 1.6.3.5-.2 1.2-1.1 1.5-.9.4-1.4 1.3-1.1 2 1 2.6-1.3 1.4-2.6-1.3-2.2-4.5-3.9-4-2 .6.9 2.3 2.3 4.1 3 4.1.6 0 1.2.4 1.2 1 0 .5-.4 1-1 1-1.5 0-1.2 2.6.5 4 .9.7 1.3 2 1 3-.3.9.9 3.5 2.8 6.1 3.2 4.3 6.7 12.7 6.7 16.1 0 .9.4 1.8 1 2 1.7.5 0 4.3-2.5 5.4-2 1-2.4.9-2.8-.7-.3-1.2-1.4-1.9-2.9-1.9-1.2 0-1.8-.4-1.3-.8 2.8-2 3.7-4.2 2.5-5.7-.7-.8-1-2.5-.7-3.7.7-2.4-1.4-6.8-5.2-11.1-1.8-2-3.4-2.7-6-2.7-5.5 0-9.4-1.9-12.5-6.2-2.1-2.9-3.4-3.8-5.1-3.6-1.2.1-3-.3-3.9-1.1-1.5-1.3-3.3-1.2-9.7.4-2 .5-2.6 0-3.8-2.6-.8-1.8-2.6-3.6-4.5-4.4-4-1.6-10.8-2.6-10.1-1.5.3.5.1 1.1-.5 1.5-.5.3-.7 1.7-.4 3 .5 2.1.3 2.4-2.2 2.4-1.6 0-6.6.5-11 1-10.6 1.2-15.7.2-19.9-3.9-3.2-3.1-3.3-3.1-4-1.1-.3 1.2-1.5 2.1-2.6 2.1-1.7 0-2.1.6-1.8 2.7.1 1.1-3.1 2.4-4.4 1.7-.6-.4.3.7 2.1 2.4 1.7 1.7 3.2 3.6 3.2 4.3 0 .6.8.9 2 .6 1.3-.3 2 0 2 .9 0 .8.7 2.8 1.5 4.3 1.3 2.6 1.3 3-.5 4.6-2.5 2.2-2.6 6.3-.2 8.1 1.6 1.3 1.6 1.3 0 1.4-1.1 0-1.8.8-1.8 1.9 0 1.4-.5 1.8-1.9 1.4-1.3-.3-2 .2-2.5 2.1-.3 1.4-1.1 2.6-1.6 2.6-.6 0-1 .7-1 1.5s-.4 1.5-.8 1.5c-1.2 0-.2 9.7 1.3 12.6 1.2 2.4 1.4 2.5 2.3.7.6-1 .9-3.7.8-6.1l-.2-4.2 2.4 2.3c1.4 1.2 3.2 3.3 4.1 4.7.9 1.4 2.2 2.5 2.9 2.6.6.1 1.9.2 2.7.2.8.1 1.5.9 1.5 1.7 0 1.7-1.2 1.9-2.7.4-.7-.7-1.2 1.2-1.7 6.3-.3 3.9-1.1 7.5-1.6 7.8-2.4 1.5 11 8.8 16.9 9.3 1.4.1 2.7 1 3.2 2.4.6 1.5 1.7 2.3 3.3 2.3 1.8 0 3.1 1.1 5.2 4.7 1.5 2.7 4.6 7.6 6.8 11 7.7 11.6 8.6 13.4 8.6 16.9 0 2 .5 4.4 1 5.5.9 1.5.7 1.9-.5 1.9-1.3 0-1.4.4-.5 2 .7 1.2 2.5 2.2 5 2.6 2.1.4 4.1 1.2 4.4 1.9.2.7 1.5 1.1 2.8.8 2.2-.4 2.4-.9 2.4-5.8-.1-4.5.3-5.7 2.7-7.9 1.5-1.4 2.7-3.2 2.7-4.2s.5-1.4 1.5-1c.8.3 1.5 0 1.5-.6s.8-2 1.7-3.1c1-1 1.8-2.6 1.8-3.5 0-1 .6-1.6 1.4-1.4 2.3.5 6.1-1.9 6.1-3.9 0-.9.7-1.9 1.5-2.3.8-.3 1.2-1.2.9-2.1-.4-.9 0-1.5 1-1.5.8 0 1.3-.6 1.1-1.3-.5-1.2 3.7-3.7 6.1-3.7.6 0 2.1-2.4 3.3-5.3 2.1-5 2.3-5.1 3.5-2.9.6 1.2 1.5 1.9 2 1.5.4-.4 1.1-.1 1.6.6.7 1.2 1.3 1.2 3.5-.3 3.1-2.1 4.2-4.3 2.6-5.9-1.7-1.7-1.3-2.7 1.2-2.7 1.2 0 3.4-1.1 4.9-2.5 1.5-1.4 3.6-2.4 4.8-2.2 1.4.1 2.6-.8 3.8-2.8.9-1.6 2.3-3.5 3.1-4.1 1.1-.8 1.2-2.6.8-7.5-.3-3.5-.4-5.8-.1-5.2.9 2 2.4 1.5 2.4-.6 0-1.1.9-2.1 2.4-2.5 2.4-.6 4.1-4.2 2.5-5.2-.6-.3-.9-1.3-.7-2.2.1-1-.1-2.3-.5-3-.5-.7-.4-1.2.2-1.2.6 0 1.1-.8 1.1-1.7 0-1.4.4-1.2 2.5.7 1.4 1.3 2.5 2 2.5 1.6 0-.4.7-.3 1.6.2 2.5 1.4 6.8-3 5.9-5.9-.6-1.9-.4-2.1 1.7-1.7l2.4.4-1.8-7c-1.9-7.3-3.6-9.6-7.3-9.6-2.2 0-4.3-2.6-6.1-7.5-1-2.8-1.4-3-6.6-3.1-5.2-.1-5.5.1-5.2 2.3.3 2.7.3 2.7-4.2.8-2-.8-3.3-1.9-3-2.4.7-1-1.8-3.4-2.7-2.5-1.2 1.2-5-3.5-4.4-5.5.3-1.3-.7-3-3.3-5.5-4.2-4-5.5-4.3-8.5-2zm16 47.4c.3.5.1 1-.5 1s-.8.4-.5 1c.3.5 1.4 1 2.4 1 1.8 0 3.5 3.3 2.3 4.4-1.3 1.3-3 .4-3.6-1.9-.3-1.3-1.5-2.9-2.6-3.5-1.1-.6-1.8-1.5-1.5-2.1.8-1.2 3.2-1.2 4 .1zM139 473.5c.5 2.1-.1 2.5-2 1.5-1.7-.9-2-.8-1.9 1.2 0 1.3-.2 4.2-.4 6.5-.4 5.3.7 8.5 2.8 7.7 1-.4 1.5 0 1.6 1.2 0 1.8.1 1.8.7.2.9-2.1 7.2-5.7 9-5.1 1.7.6 1.5-2.2-.2-3.6-.8-.7-2.5-.9-4-.5-2.5.6-2.5.5-1.5-2.5.6-1.8 1-3.3.8-3.4-.2-.1-1.4-1.1-2.7-2.2-1.3-1.1-2.3-1.5-2.2-1zM127.6 493.5c.8 1.9 3.9 3.7 4.8 2.8.8-.9-2.4-4.3-4-4.3-.8 0-1.1.6-.8 1.5zM134 495.1c0 1.1.4 1.8 1 1.4.5-.3.7-1.2.3-2-.7-2.1-1.3-1.9-1.3.6zM339.9 562.2c-.7 3-2 4.9-4.2 6.4-1.9 1.2-3.1 2.7-2.9 3.7.3 1.6-1.1 2.1-4.8 1.8-.9-.1-1.6.8-1.6 2.4-.3 4-1.2 5.5-3.4 5.5-2.3 0-8.8 3.8-10.9 6.4-.7.9-1.9 1.6-2.6 1.6-.7 0-1.8.7-2.5 1.5-.7.9-2 1.3-2.8 1-1.9-.7-7.2 1.6-7.2 3.2 0 .7-.9 1.3-1.9 1.3-1.1 0-2.2.9-2.6 1.9-1 3.4-10.9 5.7-10.3 2.4.2-1-.7-1.9-2.4-2.4-2.1-.5-2.8-.4-2.8.6 0 2.1-1.6 2.6-4.4 1.5-2.3-.8-2.6-.7-2.6 1.1 0 1.1-.4 1.7-1 1.4-.5-.3-1-.2-1 .3 0 .6-.8.8-1.8.5-1-.2-2.9 0-4.4.6-2 .8-2.5 1.5-2.1 3.5.3 1.4.1 2.6-.4 2.6-1.3 0-.8 4.7.7 6.5 1.3 1.5 7.2 1.5 13.2 0 2.4-.6 3.5-.1 7.7 4.1 2.6 2.7 7.5 7.3 10.6 10.2 5.3 4.9 6.1 5.2 8.1 4.1 1.2-.6 3-.9 3.8-.6 1.9.7 6.6-3.3 6.6-5.7 0-.9-.4-1.6-1-1.6-1.3 0-1.3-2.7 0-3.5.6-.4 2.5-.7 4.3-.7 3.4-.1 10.9-4.6 10.3-6.3-.4-1.3 2.4-3.4 4.7-3.5 1 0 2.3-1.3 3.1-3.1 1.1-2.6 1.1-3.6-.1-6-.8-1.6-1.8-2.7-2.2-2.4-.4.2-2.1-1-3.7-2.7l-2.9-3.1 4.7.5c4.1.5 4.8.3 5.4-1.5.4-1.3.9-1.6 1.3-.8.6.9 1.1.8 2.1-.4 1-1.2 1-1.5.1-1.3-.7.2-1.8-.4-2.3-1.3-1.1-1.6-.3-3.7 4.7-12.9.9-1.5 1-2.8.5-3.5-1.4-1.6 0-5.5 1.9-5.5 2.6 0 5-3.4 3.9-5.5-.7-1.1-.6-2.1.1-2.8.7-.7.5-1.4-.7-2.3-2.6-2-3.1-1.7-4.3 2.8zM221.1 563.7c-.1 1.3-.7 2.3-1.6 2.3-.9 0-1.6 1.4-2 3.7-.8 5-1.7 6.6-4.4 7.8-1.5.7-2 1.6-1.7 3 .3 1.1-.2 2.9-1 3.9-.8 1.1-1.4 2.7-1.4 3.7 0 .9-1 2.3-2.1 3.1-1.9 1.2-2 1.7-1 3.6 1 1.8.9 2.3-.3 2.8-3.2 1.2-2.9 7.6.4 9.4 2.3 1.2 6.3.1 5.6-1.6-.3-.8-.1-1.4.5-1.4.5 0 1.2.7 1.5 1.5.4.8 1.6 1.5 2.9 1.5 1.2 0 2.8.7 3.5 1.5.7.8 2.1 1.5 3.2 1.5 1.6 0 1.9.5 1.5 2.2-.9 3.7.7 9.3 2.6 9.2.9-.1 1.7.2 1.7.8 0 .5.4.6 1 .3.5-.3 1.5.3 2.1 1.4 1.2 1.7 1.5 1.8 3.5.4 1.3-.8 2.8-1.2 3.4-.8.5.3 1 .2 1-.4 0-.6 1.3-.6 3.6.1 2.4.6 3.9.6 4.3 0 .3-.6 1.7-1.2 3.1-1.3 1.7-.3 2.5-1 2.4-2.2-.1-.9.2-1.7.8-1.7.5 0 .6-.5.3-1.1-.4-.5.1-1.9 1-2.9 1.2-1.3 1.6-2.9 1.2-4.8-.3-1.6-.1-3.4.4-3.9.6-.6.6-1.9.1-3.4-.5-1.3-.7-4.1-.4-6.1.3-2.8 0-3.9-1.2-4.4-.9-.3-1.6-1.6-1.6-2.9 0-2.5-3.1-4-4.8-2.3-.6.6-1.9.7-3.1.3-2.2-.7-21.9-19.7-23.8-23-1.2-1.9-1.2-1.9-1.2.2zM121 568.4c0 .4 1.6 2 3.5 3.7 1.9 1.7 3.5 4 3.5 5.1 0 1 1.2 2.9 2.7 4.2 3 2.6 5.5 9.6 4.1 11.9-.5 1-.2 3.8.9 7.6 1.4 4.5 2.3 6.1 4 6.6 1.4.3 3.1 2.4 4.8 6.1 2.8 5.9 6.9 10.4 11.8 13 1.5.8 2.7 2.1 2.7 2.9 0 .8.5 1.5 1 1.5.6 0 .8 1 .5 2.2-.4 1.9.2 2.7 4.1 4.6 2.5 1.3 4.7 2.2 4.9 2 .1-.2 1-2.5 1.9-5.3 1-3.1 1.2-4.5.4-3.7-.7.7-1.9 1.2-2.7 1.2-1.8 0-4.5-5.1-3.2-5.9.5-.3 1.2-3 1.6-5.9.4-2.8 1.1-4.9 1.6-4.6.5.3.9-.1.9-1 0-.8-.4-1.6-.9-1.8-.5-.2-1.3-1.5-1.6-3.1-.7-2.5-.5-2.7 2.1-2.8 1.6 0 3.7-.4 4.8-.8 1.7-.6 1.6-1-1.3-3.4-1.7-1.4-3.8-2.4-4.5-2.1-1.9.7-3-1.4-2.7-5.5.2-4-3-8.1-6.6-8.1-1.4 0-4.2-1.9-7.2-4.8-7.3-7-10.1-8.7-13.8-8.3-2 .1-4.6-.6-6.7-1.8-1.8-1.1-3.6-1.8-3.9-1.4-.4.3-1.3 0-2.2-.7-.8-.7-1.5-.9-1.5-.5s-.7.2-1.5-.5-1.5-1-1.5-.6zM179.7 597.7c-.2.5-.3 1.6-.2 2.5.2 1 0 1.8-.5 1.8-1.7 0-2 3.4-.4 5.1.8.9 1.5 2.6 1.4 3.6-.1 1-.1 2 0 2.3.8 2.3.8 5.5 0 6.5-.8.9-.6 1.4.5 1.9 1.6.6 2.2 6.6.6 6.6-1.7 0-1.9 4-.3 5 1.4.8 1.5 1.1.3 1.9-2.1 1.4-.5 2.9 2.5 2.3 2.6-.5 2.6-.6.9-1.8-1-.8-1.5-1.5-.9-1.5.5-.1 1.6-.2 2.4-.3.8 0 1.4-.9 1.2-1.8-.2-1.5.1-1.6 2-.7 3.8 1.7 7.3 7.6 7.1 12.3 0 2.3.6 5 1.3 6.1 1.8 2.6 1.8 6.9-.1 8.5-.8.7-1.5 2.1-1.5 3.1s-.5 2.1-1.1 2.4c-.6.4-.7 1.4-.3 2.4 1.2 2.8.5 6-2 9.9-2.3 3.4-2.4 4.1-1.5 8.4 1 4.4 1.3 4.8 3.9 4.8 2.5 0 3-.5 3.6-3.5.3-1.9 1-3.5 1.5-3.5s.9-.8.9-1.8.7-2.7 1.5-3.8c.8-1.2 1.1-2.5.7-2.9-.4-.4.3-.5 1.6-.2 1.9.4 2.2.1 2.2-2.4 0-3.9 2.4-4.7 6-2 1.6 1.1 3.6 2.1 4.4 2.1.8 0 1.8.4 2.1 1 .3.5.2 1-.4 1-.6 0-.1 2.1 1 4.7 1.3 3 1.6 4.9 1 5.1-.6.2-1.1 1.2-1.1 2.3 0 3.1-1.9 2.2-3.5-1.7-.8-1.9-1.9-3.3-2.4-2.9-.6.3-2.1-.5-3.3-1.7-2.1-2.1-2.3-2.1-2.6-.5-.2 1 .3 2.6 1.1 3.5 2.8 3.2 5.8 10.2 4.5 10.2-1 0-.9.3.1.9 2 1.3 7.4-.8 6.7-2.5-.6-1.6.6-1.8 2-.4s6.4-.8 6.4-2.7c0-1 .5-1.1 1.9-.3 2.6 1.4 3.1 1.3 3.1-.6 0-.9.6-1.4 1.2-1.2 3.9 1.3 1.3 11.8-2.9 11.8-1.8 0-2.3.6-2.3 2.5 0 1.4-.5 2.5-1.1 2.5-.6 0-.8.9-.4 2 .4 1.2.2 2-.5 2-.6 0-.8.5-.4 1.2.9 1.5 1.1 7.8.2 7.8-.4 0-.5 1.3-.1 3 .3 1.7.1 3-.4 3-.6 0-.8 1.1-.5 2.5.3 1.9 0 2.5-1.3 2.5-2.6 0-5.9 4.1-4.3 5.2.9.6.7.8-.7.7-6.1-.5-7.3 1.5-3 4.9 2.1 1.7 2.3 2.1 1 3.2-1.1.9-1.8 1-2.8.1-.8-.6-1.7-.8-2-.4-.4.3-.7-.4-.7-1.7 0-1.2-.8-2.9-1.7-3.6-1.3-.9-1.5-1.6-.7-2.1 1.5-1.1 1.2-5.6-.4-6.6-.7-.5-.9-1.3-.6-1.9.5-.8.1-.9-1-.5-1.9.7-1.5-.4 1.2-3.6 2.4-2.7.5-3.2-3.6-.9-4.2 2.3-10.3 2.1-13.3-.5-1.5-1.2-1.6-1.1-1.1 1.3.3 1.4 0 2.9-.7 3.3-.9.6-.7 2 .8 5.3 1.1 2.5 2.4 4.9 3 5.3.6.3.9 1 .6 1.5-.3.5.4 1.1 1.5 1.5 2.1.7 2.9 5.8 1 7-.5.3-1 1.5-1 2.6 0 1-.4 1.9-1 1.9-.5 0-1 .7-1 1.6 0 .8-.4 1.3-.9 1-.4-.3-1.6.3-2.5 1.3-1.6 1.8-1.5 1.9 1.4 2.9 1.7.6 4.4 2.1 6 3.2 1.8 1.2 3.1 1.6 3.5 1 1.7-2.7 9.2.2 11.5 4.4.7 1.4 3.6 3.7 6.4 5.1 2.8 1.3 4.4 2.4 3.5 2.5-1.6 0-2.9 1.9-2.9 4.1 0 .6.9.8 1.9.4 2.5-.8 6.1 3.9 4.3 5.7-1.4 1.4.2 4.7 3.4 7.2 2.5 1.8 2.6 1.8 2.2-.5-.2-1.8.3-2.4 2.8-3.1 4.6-1.2 5.8-5.8 1.6-5.8-1.8 0-4.8-3.8-3.8-4.7.3-.3.8.2 1.2 1.1.3.9 1 1.3 1.5 1 .6-.3 1.6 0 2.4.6 1.6 1.4 1.8.6 1.6-5.5-.1-1.7-.2-3.5-.2-4-.1-3.4 1.5-12.5 2.3-12.5.5 0 .6-.6.1-1.3-1.2-1.9-1.4-4.9-.3-4.2.5.3 1 1.3 1 2.2 0 1.1.7 1.4 2.6 1 2-.3 2.7.1 3.4 1.9.8 2 1.7 2.4 5 2.4 2.2 0 4 .4 4 1 0 2.1 3 .9 3.6-1.5.4-1.4 1.1-2.4 1.8-2.2 1.2.4 4.6-3.5 4.6-5.3 0-.8 1.1-1.1 3-.8 1.7.3 3 .1 3-.4 0-.4-.5-.8-1.1-.8-.6 0-.9-1.5-.8-3.4.2-1.9 0-3.8-.4-4.2-.4-.4-.7 0-.7.9 0 1.3-.9 1.7-4 1.7-3.3 0-4.2-.4-5.2-2.5-.6-1.3-2.6-3.1-4.4-4-2.2-1-3.4-2.3-3.4-3.6 0-1.1-.4-1.8-.9-1.5-.5.4-1.2-.7-1.6-2.4-.7-3-4.6-6-7.9-6-.8 0-2-.9-2.6-2-.6-1.1-1.6-2-2.3-2-.7 0-2.2-1.8-3.5-4-2.4-4.2-2.3-4.6.7-3 1.7.8 1.8.5 1.3-3.6-.3-3 0-5 1-6.2 3.1-3.8 4.1-6.8 2.8-9.2-1.5-2.8-.9-3.4 2.4-1.9 2.4 1.1 2.9 1 5.4-1.4 1.6-1.5 3.3-2.7 4-2.7.6 0 .9-.7.6-1.5-.4-.9 0-1.5.9-1.5.8 0 1.7-.9 2-2 .4-1.4 1.2-1.9 2.9-1.8 1.8.2 2.2-.1 2-1.7-.2-1.1-.3-3.9-.3-6.2.2-3.8-.1-4.3-2.5-4.9-1.7-.4-2.9-.2-3.4.6-.4.7-1.3.9-1.9.6-1.4-.9-4.1 1.7-4.1 3.8 0 .9-.7 1.6-1.5 1.6s-2.4.8-3.4 1.7c-4.6 4.2-4.8 4.3-6.5 2.4-.9-1-1.6-2.5-1.6-3.4 0-.9-.5-1.9-1.1-2.3-.6-.4-.9-1.9-.5-3.6.3-1.6.1-3.9-.6-5.1-.8-1.6-.8-2.2.1-2.5.6-.2.9-.7.6-1.1-.2-.5 1.3-1.7 3.5-2.7 2.2-1 4-2.4 4-3 0-1.2-5.5-8.5-7.3-9.6-.8-.5-.8-1 0-2 1.7-2-2.5-10.2-5.4-10.6-1.4-.2-2.4-1.2-2.8-3-.9-4.4-6.5-6.7-6.5-2.8 0 2.3-4.7 4.8-6.9 3.7-1.2-.7-2.1-.7-2.8 0-1.9 1.9-3.5-1.6-2.5-5.4 1.3-4.7.8-8.1-1.8-11.7-1.9-2.7-5-4.5-3.5-2 .4.6-1.4 0-4-1.2-4-1.9-4.3-2.3-2.5-3 2.7-1 2.7-4.2 0-3.5-1.7.4-4.6-1.4-3.6-2.4.2-.2-1.6-.5-4.2-.6-2.5-.1-5-.7-5.6-1.3-1.2-1.2-2.3-1.3-2.9-.3zm25.3 21.7c0 .2-.7.7-1.6 1-.8.3-1.2.2-.9-.4.6-1 2.5-1.4 2.5-.6zm23.1 21.7c-.3.8-.4 2.6-.3 4.1.1 1.5-.3 3-.9 3.4-.6.4-.4 1.3.6 2.4 1.5 1.7 1.4 2-1.3 4.8-1.7 1.7-2.7 3.3-2.4 3.6.3.3.1.6-.5.6-2.1 0-4.3-3.9-5.4-9.6-.7-3.2-1.9-6.7-2.7-7.7-1.4-1.6-1.2-1.7 2.7-1.7 2.3 0 4-.3 3.8-.8-.3-.4 1.1-.7 3.1-.6 2.7 0 3.6.4 3.3 1.5zm-7.8 21.4c.4.8.2 1.7-.3 2-.6.4-1 .4-1 .1 0-.2-.3-1.1-.6-2-.3-.9-.2-1.6.4-1.6.5 0 1.2.7 1.5 1.5zM232 729c-.8.6-2.1.9-2.9.7-1.8-.3-1.1-2.3.7-2.1.6.1 1.2-.3 1.2-.9 0-.7.4-.7 1.2.1 1 1 1 1.5-.2 2.2zm8.6-.3c-.7.7-2.6-.7-2.6-1.9 0-.6.6-.6 1.5.2.9.7 1.3 1.5 1.1 1.7zm-1.9 2.8c.6 1.4.9 2.5.6 2.5-.9 0-3.3-2.9-3.3-3.9 0-1.9 1.5-1.1 2.7 1.4zm9.5 2.9c0 1.1.1 2.7.1 3.3-.1 1.6.9 1.7 2.5.1.9-.9 1.3-.7 1.8.6.4 1.1.1 2.2-.7 2.7-2 1.3-3.9 1.1-4.3-.4-2-7.5-2.2-9.5-.9-9 .7.3 1.4 1.5 1.5 2.7zm-20.2-1.3c0 .5-.5.9-1.1.9-.5 0-.7.4-.4 1 .3.5.2 1-.3 1-1.2 0-3.4-2.5-2.7-3.1.8-.9 4.5-.8 4.5.2zm37.4 11.4c.3.8.1 1.5-.4 1.5-.6 0-1-.7-1-1.5s.2-1.5.4-1.5.6.7 1 1.5zM176 599c0 .5.7 1 1.6 1 .8 0 1.2-.5.9-1-.3-.6-1-1-1.6-1-.5 0-.9.4-.9 1z"/><path d="M200 603c-.6 1.1-.7 2-.2 2 .6 0 1.2-.9 1.5-2 .3-1.1.3-2 .1-2-.2 0-.8.9-1.4 2zM152.6 632.9c-.4.6-1.1.9-1.5.7-1.3-.9-3.3 4-3.5 8.2 0 2.7.6 4.7 1.8 6.1 1.5 1.6 1.6 2.4.7 3.5-.8.9-.8 1.5-.1 1.8 1.8.6-1.3 5.8-3.5 5.8-1.1 0-2.7.4-3.5 1-1.2.8-1.2 1 .3 1.6 1.9.7 2.3 4.4.5 4.4-.7 0 0 .8 1.5 1.8 2.5 1.5 2.8 2.1 2.4 5.6-.5 3.6 1.9 10 5.4 14.3.7.7.9 1.6.6 1.9-.3.3 1 2 3 3.7 1.9 1.7 3.9 4.1 4.4 5.4.5 1.4 1.4 2.1 2 1.8 1.4-.9.2-5.7-1.8-7.2-1.4-1.1-1.4-1.7-.5-3.8 1.4-3.1 1.6-8.2.3-8.9-.5-.3-.7-1.5-.4-2.6.3-1.1 0-3.4-.7-5-1-2.3-1-3.3-.1-4.4.9-1.1 1-2 .1-3.6s-.8-2.5.1-3.7c.7-.8 1.4-4.6 1.5-8.6.2-6-.2-7.6-1.8-9.4-1.6-1.7-1.8-2.5-.9-4.2.9-1.6.9-2.1-.1-2.1-.7 0-2.2-1.2-3.4-2.7-1.4-1.8-2.3-2.3-2.8-1.4zM294.3 639.2c-1.3.6-2.3 1.5-2.3 2s-.4.7-.9.4c-1.7-1.1-3.9 2-4.4 6.1-.4 3.3-.2 4.3.9 4.3.8 0 1.4.5 1.4 1 0 .6 1.1.4 2.4-.5 2.3-1.5 5.6-1.2 5.6.6 0 .5.7.9 1.5.9s1.5-.7 1.5-1.5.6-1.2 1.4-.9c.9.3 1.7-.3 2.1-1.6.4-1.2 1.2-1.9 2-1.6 1.4.5 2.8-1.8 1.8-2.8-.4-.3-1.5-.6-2.5-.6s-1.8-.7-1.8-1.5-.5-1.5-1.1-1.5c-.5 0-.8-.4-.4-.9.3-.6-.3-1.5-1.4-2-2.4-1.3-2.9-1.3-5.8.1zM248 646.4c0 1.7-.4 2.5-1.1 2.1-.6-.4-1.6.1-2.4 1.1-1.5 2.1-.4 3.4 3 3.4 2.1-.1 7.5-4.2 7.5-5.8 0-1.7-2.7-3.4-3.5-2.2-.5.8-1.1.8-2.1-.1-1.1-.9-1.4-.7-1.4 1.5zM258 651.7c1.1 1.5 2.9 2.7 4 2.8 2.6.2 1.8-.9-2.6-3.4l-3.6-2.1 2.2 2.7zM286 654.1c0 .5.5.7 1 .4.6-.3 1-.8 1-1.1 0-.2-.4-.4-1-.4-.5 0-1 .5-1 1.1zM195 691.5c0 .8-.9 2.4-1.9 3.4-1.7 1.7-1.8 2.1-.4 4.1 1.6 2.2 1 7.6-.7 6.5-2.1-1.3-9-1.4-9-.1 0 1.8-6.4 1.4-8.7-.4-1-.8-2.8-2.1-4-2.8-3.7-2-2.9 1 .7 3.1 1.7 1 3.7 3.1 4.5 4.8 1.4 2.6 2.1 2.9 6.3 2.9 2.7 0 5.7.7 7 1.6 1.2.8 2.2 1.2 2.2.9 0-.3 1 .1 2.2.9 2.9 2 5.4 2 6.2 0 .3-.9 1.1-1.2 1.8-.8 1.7 1.1 4.8 1.3 4.8.3 0-.4 1.8-1 4-1.4 2.6-.4 4-1.2 4-2.2 0-.9-.6-1.2-1.8-.9-1.1.4-2.2-.2-3-1.5-1.1-1.8-1.1-2.3.5-3.4 1-.7 1.5-1.7 1.1-2.1-.4-.4-1.4-.2-2.1.4-.8.7-1.7.9-2 .5-.4-.3-.7.1-.7 1s-.4 1.7-1 1.7c-.5 0-.9-1.5-.8-3.3.1-1.7 0-4.5 0-6-.3-4.9-9.2-11.8-9.2-7.2zm2.6 23c-.4 1.4-1.1 2.3-1.6 2-.6-.4-.8-1-.6-1.4.3-.4.1-1.3-.4-2.1s-.4-2.2.2-3.4c1.1-2.1 1.1-2.1 2.1.1.5 1.2.7 3.3.3 4.8zm7.4-4.4c0 .5-.4.7-1 .4-.5-.3-1 .3-1 1.4 0 1.2-.4 2.1-.9 2.1-.4 0-.6-1.1-.3-2.5.4-2.4 3.2-3.6 3.2-1.4zm-14 .9c0 1.3-1.1 1.3-3 0-1.2-.8-1.1-1 .8-1 1.2 0 2.2.4 2.2 1zM210.9 693.9c.8.5 1 1.4.5 2.2-.6 1.1-.4 1.1 1 0 1.3-1.1 1.4-1.6.4-2.2-.7-.5-1.7-.9-2.3-.9-.5 0-.4.4.4.9zM215.6 717.3c.3 1 .9 1.5 1.2 1.2.3-.3 0-1.1-.7-1.8-1-.9-1.1-.8-.5.6zM220.8 716.7c-2.7.7-2.2 3 .7 3.5 1.4.3 2.5.1 2.5-.3 0-.5-.5-.9-1.1-.9-.8 0-.8-.5.1-1.5 1.3-1.5.9-1.6-2.2-.8zM221.5 723c.3.5 1.3 1 2.1 1s1.2-.5.9-1c-.3-.6-1.3-1-2.1-1s-1.2.4-.9 1zM188 749.4c0 .2.7.7 1.6 1 .8.3 1.2.2.9-.4-.6-1-2.5-1.4-2.5-.6zM242.1 780.1c.6 1.2.7 1.9.1 1.5-1.7-1-2.2 2.3-.6 3.9 1.7 1.7 2.4 1.8 4 .7 2.2-1.4 2.1-3.7-.3-6-3.1-2.8-4.7-2.9-3.2-.1zM251 779.9c0 2.5.6 2.7 1.3.6.4-.8.2-1.7-.3-2-.6-.4-1 .3-1 1.4z"/></g></svg>