<?xml version="1.0" standalone="no"?>
<!DOCTYPE svg PUBLIC "-//W3C//DTD SVG 20010904//EN"
 "http://www.w3.org/TR/2001/REC-SVG-20010904/DTD/svg10.dtd">
<svg version="1.0" xmlns="http://www.w3.org/2000/svg"
 width="993.075153pt" height="400.344289pt" viewBox="0 0 993.075153 400.344289"
 preserveAspectRatio="xMidYMid meet">
<metadata>
Created by potrace 1.15, written by Peter Selinger 2001-2017
</metadata>
<g transform="translate(-499.724356,1192.973439) scale(0.100000,-0.100000)"
fill="#222222" stroke="none">
<path d="M5060 11919 c0 -8 -11 -9 -32 -5 -28 5 -31 4 -16 -7 11 -9 14 -18 8
-27 -5 -8 -6 -18 -4 -22 3 -4 -1 -8 -9 -8 -10 0 -12 -11 -7 -52 4 -29 3 -55
-1 -58 -5 -3 1 -14 13 -24 11 -10 17 -21 12 -25 -6 -3 -10 -18 -9 -33 0 -25 4
-28 34 -28 25 0 41 -9 68 -37 43 -47 57 -61 98 -96 22 -18 35 -40 39 -65 4
-20 9 -45 12 -55 6 -19 58 -50 67 -40 4 3 14 0 24 -8 15 -13 16 -12 10 6 -5
13 0 10 17 -10 21 -26 25 -28 31 -13 6 14 11 15 27 7 16 -9 20 -7 25 10 3 14
16 23 39 27 26 5 34 12 39 35 4 16 11 29 16 29 13 0 11 44 -3 58 -7 7 -9 12
-4 12 14 0 66 -58 66 -74 0 -9 6 -16 13 -16 7 0 33 -24 58 -54 39 -46 45 -60
44 -93 -2 -22 -7 -49 -14 -61 -6 -11 -11 -26 -11 -32 0 -6 -12 -27 -26 -46
-22 -28 -27 -46 -29 -99 -2 -61 -7 -79 -23 -81 -4 0 -20 -6 -36 -13 -19 -8
-32 -8 -40 -1 -7 5 -17 6 -22 1 -5 -4 -31 -16 -57 -25 -27 -10 -56 -27 -66
-37 -21 -23 -42 -18 -56 13 -12 25 -38 38 -29 14 4 -10 1 -16 -7 -16 -7 0 -1
-12 14 -28 15 -15 27 -31 27 -35 0 -3 -26 -33 -57 -67 -44 -46 -62 -59 -77
-54 -18 6 -18 4 3 -25 12 -17 27 -31 32 -31 5 0 9 -6 9 -14 0 -7 18 -37 41
-65 35 -43 42 -62 49 -117 5 -35 16 -77 26 -92 10 -15 19 -30 19 -34 0 -4 15
-19 34 -33 19 -14 31 -25 26 -25 -5 0 0 -6 10 -14 16 -11 17 -22 12 -80 -5
-52 -3 -66 7 -66 33 0 34 -62 1 -115 -24 -40 -32 -98 -17 -123 5 -7 24 -21 43
-31 24 -13 33 -25 32 -40 -2 -14 7 -25 27 -36 26 -13 30 -21 30 -56 0 -27 5
-42 16 -46 8 -3 20 -17 25 -30 5 -13 22 -31 37 -40 16 -9 38 -31 50 -50 12
-18 30 -33 40 -33 9 0 34 -11 54 -25 20 -14 44 -22 52 -19 12 5 16 0 16 -19 0
-25 51 -70 57 -50 2 5 16 8 31 5 20 -2 34 -14 47 -38 20 -37 38 -43 61 -19 22
21 52 19 59 -5 14 -43 133 -61 122 -19 -7 27 16 24 51 -6 35 -29 63 -32 97 -9
13 9 30 12 36 8 7 -4 9 -3 6 3 -4 6 -26 16 -50 22 -25 6 -50 17 -57 26 -7 8
-19 15 -27 15 -8 0 -11 5 -8 10 3 6 -1 10 -9 10 -21 0 -21 46 -1 54 18 6 19 1
5 -25 -9 -16 -7 -19 9 -19 15 0 18 5 14 23 l-5 22 16 -23 c13 -17 21 -20 35
-12 10 5 22 6 26 2 4 -4 5 5 2 19 -6 23 -4 26 17 22 17 -4 28 1 38 16 10 16
23 21 55 21 32 0 43 4 43 15 0 8 -5 15 -12 15 -6 0 -9 3 -5 6 3 3 -15 17 -41
31 -26 13 -52 30 -58 38 -5 8 -22 17 -37 20 -15 4 -27 11 -27 16 0 5 -9 9 -20
9 -15 0 -20 7 -20 25 0 13 -8 29 -17 34 -16 9 -16 12 -3 21 25 17 -14 40 -56
33 -44 -7 -79 19 -63 48 5 10 13 18 17 18 28 -5 32 2 17 31 -16 31 -32 42 -21
15 3 -9 0 -15 -9 -15 -8 0 -15 5 -15 11 0 27 -69 -18 -83 -54 -9 -23 -34 -21
-47 4 -6 11 -26 29 -43 40 l-32 20 51 -7 c37 -4 54 -2 65 8 8 7 25 14 38 15
31 2 34 6 34 53 0 22 6 45 13 51 17 14 9 30 -10 23 -8 -3 -17 -1 -21 5 -3 7 3
11 15 11 13 0 24 8 27 20 3 11 11 20 18 20 8 0 11 -8 8 -19 -4 -16 2 -22 28
-29 23 -6 36 -5 41 2 11 16 -1 126 -18 157 -18 36 -18 39 7 39 19 0 20 2 8 16
-8 10 -15 12 -17 5 -4 -13 -50 -4 -72 15 -8 7 -28 16 -45 20 -27 7 -29 6 -16
-10 18 -22 1 -64 -26 -61 -35 3 -68 18 -90 41 -14 16 -23 19 -26 11 -9 -25
-32 14 -31 56 0 30 -6 47 -21 59 -20 18 -20 18 7 39 23 17 26 24 18 40 -7 11
-7 19 -1 19 9 0 2 29 -20 85 -20 53 -20 77 1 82 11 3 20 14 20 24 0 11 7 19
15 19 8 0 15 6 15 13 -1 22 -27 47 -49 47 -12 0 -21 6 -21 15 0 9 -7 18 -15
21 -13 5 -13 8 0 21 8 8 19 12 23 9 14 -8 62 -15 62 -9 0 4 -7 15 -17 25 -15
17 -14 18 16 18 19 0 30 4 26 10 -3 6 -2 10 3 10 15 0 6 42 -11 52 -20 11 -49
63 -40 72 4 3 14 6 24 6 12 0 16 5 13 15 -5 13 -9 13 -22 3 -13 -11 -15 -10
-10 3 5 12 1 15 -18 11 -19 -3 -24 0 -24 17 0 12 6 24 14 27 11 4 12 12 4 35
-8 23 -16 29 -39 29 -19 0 -29 -5 -29 -15 0 -21 -51 -20 -98 2 l-37 17 38 4
c24 2 42 10 50 23 6 10 19 19 29 19 29 0 30 18 1 22 -28 3 -28 3 -25 72 2 55
-1 67 -12 63 -25 -10 -49 74 -26 88 6 3 10 10 10 15 0 9 -48 24 -67 21 -7 -1
-13 3 -13 9 0 6 -12 15 -26 21 -25 9 -26 11 -9 23 17 12 17 13 -2 18 -16 4
-20 11 -16 32 3 15 1 26 -6 26 -6 0 -11 8 -11 18 0 12 -22 28 -68 50 -38 19
-72 43 -77 55 -6 12 -22 28 -38 37 -23 13 -29 13 -36 1 -6 -9 -15 -11 -27 -6
-11 5 -22 7 -27 7 -4 -1 -13 9 -19 23 -8 17 -19 25 -37 25 -15 0 -31 8 -39 20
-10 16 -10 20 2 20 9 0 12 7 9 21 -4 12 -11 18 -20 15 -24 -10 -65 5 -59 20 3
8 -1 14 -9 14 -8 0 -15 -5 -15 -11 0 -6 -9 -9 -20 -6 -11 3 -20 1 -20 -5 0 -5
-15 -1 -32 10 -18 11 -39 17 -45 15 -7 -3 -16 2 -19 11 -7 18 -24 22 -24 5z"/>
<path d="M5295 11320 c3 -5 8 -10 11 -10 2 0 4 5 4 10 0 6 -5 10 -11 10 -5 0
-7 -4 -4 -10z"/>
<path d="M9599 11107 c-24 -29 -25 -35 -13 -52 9 -12 17 -15 23 -9 9 9 26 94
19 94 -1 0 -15 -15 -29 -33z"/>
<path d="M9586 10992 c-15 -18 -15 -20 6 -41 13 -12 36 -32 52 -45 26 -20 27
-25 16 -45 -6 -13 -9 -34 -6 -47 4 -14 2 -24 -4 -24 -5 0 -10 -7 -10 -15 0 -8
-7 -15 -16 -15 -8 0 -13 -4 -9 -10 8 -12 35 -1 35 15 0 7 12 16 26 19 15 4 24
10 20 13 -3 3 1 11 10 17 14 10 13 15 -5 38 -12 14 -21 37 -21 50 0 13 -4 28
-9 34 -5 5 -11 18 -13 29 -3 17 -31 44 -49 45 -3 0 -13 -8 -23 -18z"/>
<path d="M6041 10995 c-1 -13 19 -35 31 -35 4 0 8 5 8 10 0 6 -6 10 -14 10 -8
0 -17 6 -19 13 -3 6 -6 7 -6 2z"/>
<path d="M12755 10951 c-14 -45 -45 -71 -85 -71 -21 0 -43 6 -50 15 -16 20
-22 19 -49 -6 -13 -12 -37 -22 -55 -23 -31 -1 -56 -16 -56 -34 0 -5 -18 -12
-40 -16 -23 -3 -43 -13 -47 -21 -3 -9 -13 -13 -22 -10 -19 6 -75 -41 -66 -55
3 -5 -2 -21 -11 -35 -13 -20 -19 -23 -26 -13 -6 8 -11 9 -14 2 -2 -6 -18 -8
-34 -6 -17 2 -37 -1 -45 -8 -8 -6 -19 -9 -25 -5 -5 3 -13 -1 -16 -10 -4 -9
-13 -14 -20 -11 -7 3 -16 0 -20 -5 -4 -6 -20 -8 -36 -5 -30 6 -30 5 -24 -25 5
-28 4 -30 -10 -18 -13 11 -15 11 -14 -2 5 -31 0 -40 -19 -34 -15 5 -18 1 -13
-20 4 -22 1 -25 -22 -25 -22 0 -28 -6 -33 -30 -6 -34 -28 -50 -69 -50 -15 0
-24 -3 -21 -6 3 -4 -7 -26 -24 -49 -24 -33 -39 -44 -68 -49 -31 -5 -37 -10
-36 -28 1 -13 5 -31 9 -40 4 -9 6 -21 3 -25 -6 -10 20 -68 50 -109 30 -41 40
-84 22 -95 -11 -7 -10 -9 3 -9 21 0 35 -44 20 -63 -16 -21 -23 -65 -11 -73 9
-5 6 -11 -6 -21 -11 -7 -14 -13 -9 -13 12 0 35 -94 37 -150 2 -26 -2 -36 -15
-38 -13 -2 -16 1 -12 12 5 13 -26 40 -48 41 -3 0 -10 3 -14 8 -4 4 -20 7 -35
7 -15 0 -31 5 -34 10 -3 6 3 10 13 10 23 0 34 38 32 114 -1 38 3 51 19 62 11
8 19 23 18 33 -1 16 -7 19 -42 15 -22 -3 -57 -6 -77 -7 -41 -2 -45 -6 -25 -26
10 -11 9 -13 -5 -8 -10 4 -18 2 -18 -4 0 -7 -10 -9 -27 -4 -29 7 -43 21 -43
44 0 11 5 10 24 -2 20 -14 25 -14 30 -2 2 7 0 16 -7 19 -9 3 -8 7 3 15 8 5 12
12 10 14 -21 16 -69 47 -75 47 -3 0 -4 -8 0 -19 3 -10 0 -30 -6 -45 -11 -24
-17 -28 -35 -25 -11 1 -24 -25 -24 -48 0 -12 -7 -28 -15 -36 -8 -8 -11 -17 -8
-21 4 -3 -1 -6 -10 -6 -9 0 -17 -4 -17 -10 0 -5 -7 -10 -15 -10 -9 0 -15 9
-15 25 0 17 6 25 18 25 13 0 14 2 3 9 -11 7 -11 9 0 13 9 3 8 6 -5 11 -20 8
-66 -32 -66 -58 0 -12 -6 -14 -26 -9 -21 5 -25 3 -23 -12 2 -11 -1 -30 -6 -44
-9 -25 -11 -33 -13 -59 -1 -8 -8 -11 -18 -7 -9 4 -13 2 -8 -5 3 -6 17 -9 31
-6 16 3 23 0 19 -8 -3 -8 4 -10 20 -7 18 3 33 -4 59 -32 29 -32 41 -37 92 -41
72 -6 115 -15 129 -26 12 -9 36 11 33 27 -7 42 7 43 56 4 23 -19 42 -27 49
-22 6 5 30 8 54 6 33 -2 42 1 42 14 0 24 15 3 35 -49 11 -31 22 -46 33 -45 10
1 18 -8 20 -21 2 -16 -2 -23 -13 -23 -14 0 -14 -3 0 -30 9 -16 23 -30 33 -30
15 0 15 2 2 10 -13 9 -13 10 0 10 8 -1 24 -7 34 -15 27 -21 36 -19 36 8 1 19
2 20 13 6 16 -21 74 -13 88 12 5 11 16 19 24 19 8 0 15 5 15 10 0 6 -5 10 -10
10 -6 0 -5 8 2 20 15 23 56 27 64 5 4 -8 10 -12 16 -9 16 10 58 -5 58 -21 0
-8 -7 -15 -15 -15 -13 0 -13 -4 -3 -22 18 -31 31 -39 41 -25 5 8 21 -2 50 -35
31 -34 46 -44 57 -38 20 11 120 -80 120 -109 0 -11 6 -24 13 -28 7 -4 17 -21
22 -38 8 -23 17 -30 38 -30 20 -1 32 -9 43 -29 22 -43 46 -59 60 -40 6 8 18
12 26 9 14 -5 44 39 40 58 -3 12 23 8 44 -8 24 -18 90 -10 119 15 14 12 42 17
95 19 44 1 84 8 97 17 13 8 47 14 83 14 45 0 62 4 66 15 4 8 14 15 24 15 14 0
18 6 14 24 -3 20 1 25 18 28 15 2 24 11 26 25 2 14 8 20 18 16 10 -4 13 1 12
18 -5 39 34 31 44 -8 5 -18 14 -33 20 -33 6 0 8 -3 4 -7 -4 -5 -18 -8 -29 -8
-17 0 -23 -7 -25 -32 -2 -18 1 -33 7 -33 11 0 9 -129 -3 -148 -4 -7 -16 -12
-26 -12 -10 0 -22 -4 -25 -10 -3 -5 -22 -10 -41 -10 -19 0 -34 -4 -34 -10 0
-5 -9 -10 -21 -10 -11 0 -29 -5 -40 -11 -16 -8 -18 -17 -13 -44 5 -28 2 -35
-16 -45 -20 -11 -22 -18 -17 -63 4 -49 3 -53 -44 -109 -45 -54 -49 -63 -49
-112 0 -47 -4 -58 -35 -90 -36 -39 -38 -44 -39 -111 -1 -36 -4 -40 -28 -43
-16 -2 -28 -7 -28 -12 0 -4 -11 -11 -25 -14 -14 -4 -25 -11 -25 -16 0 -6 -9
-10 -19 -10 -14 0 -24 -13 -36 -43 -13 -33 -25 -47 -50 -57 l-34 -13 32 -31
c18 -17 37 -31 42 -31 6 -1 25 -9 44 -19 52 -28 190 -38 216 -16 8 7 19 9 25
5 5 -3 10 -1 10 4 0 18 74 8 88 -11 7 -10 21 -18 31 -18 19 0 45 -23 36 -32
-10 -9 20 -26 50 -30 26 -3 30 0 28 20 -3 26 -8 26 58 4 80 -27 138 -2 175 73
15 32 25 41 49 43 16 2 33 9 37 15 5 8 14 7 33 -1 30 -14 60 -8 87 15 15 13
23 13 66 0 44 -12 50 -12 59 2 9 13 14 14 31 4 18 -11 22 -10 27 8 4 11 14 18
23 17 13 -2 16 3 14 22 -3 24 -1 23 33 -12 41 -44 52 -47 57 -16 3 20 4 21 20
5 18 -19 38 -22 38 -7 0 11 29 2 51 -17 19 -16 33 -5 17 14 -8 10 -6 19 12 38
30 32 40 32 40 0 0 -21 5 -25 29 -25 17 0 33 -5 36 -10 5 -8 11 -8 20 0 11 9
18 5 32 -17 9 -15 20 -30 24 -33 3 -3 9 -22 13 -42 5 -29 4 -38 -7 -38 -10 0
-13 -8 -9 -25 3 -20 0 -25 -16 -25 -12 0 -25 -7 -30 -16 -6 -11 -17 -15 -31
-11 -23 6 -48 -24 -36 -43 3 -6 1 -10 -4 -10 -6 0 -11 -10 -11 -22 1 -28 26
-65 32 -47 6 18 98 39 124 29 18 -7 26 -4 39 16 11 18 23 24 36 21 10 -3 19
-1 19 5 0 6 7 7 16 4 10 -4 27 5 45 21 31 29 36 52 18 70 -12 12 -3 37 11 28
4 -3 8 1 7 8 0 6 1 26 2 42 1 25 3 28 14 15 16 -21 57 -23 64 -4 4 11 9 12 19
4 9 -8 19 -8 34 0 12 6 28 9 35 6 9 -3 12 0 9 9 -4 9 4 19 20 26 14 7 26 18
26 25 0 7 8 15 18 18 34 11 83 62 76 80 -4 12 -2 15 9 11 17 -7 21 38 5 70
-12 23 -58 64 -73 65 -5 0 -32 23 -58 50 -27 27 -42 47 -34 44 15 -5 31 21 22
36 -3 5 -1 11 5 15 5 3 10 15 10 27 0 11 8 22 20 25 11 3 20 13 20 22 0 10 12
24 26 32 22 11 25 18 21 46 -4 23 -2 33 7 33 7 0 17 10 23 23 14 32 10 161 -6
181 -11 13 -11 19 -1 31 10 12 10 15 0 15 -7 0 -10 6 -7 14 3 8 2 16 -2 18
-11 4 -22 78 -12 78 5 0 6 10 4 23 -6 27 -104 97 -137 97 -23 0 -51 22 -41 32
8 8 -29 3 -43 -6 -7 -4 -20 -2 -28 5 -11 9 -18 9 -26 1 -8 -8 -16 -7 -29 1
-15 9 -25 8 -49 -7 -29 -16 -33 -16 -55 -2 -13 9 -31 16 -40 16 -14 0 -20 16
-17 50 4 49 -37 105 -77 105 -8 0 -16 6 -19 14 -3 9 0 11 9 6 8 -5 11 -4 6 1
-5 5 -13 10 -18 10 -5 1 -13 2 -18 3 -5 0 -12 9 -14 19 -3 12 -5 10 -6 -7 -1
-20 -3 -21 -16 -11 -8 7 -12 16 -9 21 9 16 -6 48 -27 54 -10 4 -19 11 -19 16
0 5 -9 18 -20 29 -24 24 -26 40 -5 40 8 0 15 5 15 11 0 8 -15 9 -45 5 -37 -6
-46 -4 -52 10 -6 16 -7 16 -19 0 -11 -16 -15 -14 -39 18 -31 41 -40 81 -23
100 10 11 18 11 45 -1 18 -7 33 -12 33 -9 0 8 -81 56 -95 56 -9 0 -20 11 -25
25 -5 14 -16 25 -24 25 -10 0 -13 -6 -10 -15 4 -10 0 -15 -11 -15 -14 0 -15
-3 -6 -14 9 -10 8 -15 -3 -19 -9 -4 -17 1 -21 12 -3 11 -15 21 -25 24 -20 5
-28 -7 -11 -18 15 -9 8 -45 -8 -45 -11 0 -11 -4 3 -19 17 -19 24 -41 33 -100
5 -32 4 -34 -21 -27 -15 4 -26 2 -26 -4 0 -5 7 -10 15 -10 18 0 19 -12 3 -28
-19 -19 -28 -14 -28 16 0 15 -6 34 -12 41 -10 11 -10 13 0 7 8 -5 12 1 12 18
0 29 -15 33 -44 11 -16 -12 -17 -17 -6 -30 7 -8 10 -24 7 -35 -3 -14 1 -25 13
-33 15 -9 17 -14 7 -27 -9 -12 -9 -13 3 -2 23 20 30 14 23 -20 -8 -43 -10 -44
-32 -24 -17 16 -19 16 -24 -4 -6 -23 -27 -27 -27 -5 0 8 4 15 9 15 21 0 18 42
-5 65 -13 13 -24 33 -24 44 0 11 -6 22 -12 24 -10 4 -10 6 0 6 6 1 12 10 12
20 0 14 5 18 20 14 25 -7 36 19 23 50 -9 19 -5 27 25 55 32 29 34 32 14 32
-24 0 -28 10 -11 27 7 7 -7 7 -43 -2 -29 -7 -57 -14 -63 -15 -24 -6 -36 2 -55
33 -11 17 -20 29 -20 25 0 -4 -21 4 -46 17 -26 14 -55 25 -65 25 -30 0 -30 16
1 55 41 52 42 116 0 164 -15 18 -26 39 -24 46 6 15 -6 24 -37 30 -45 9 -92 55
-56 55 18 0 19 36 1 51 -8 6 -14 16 -14 21 0 6 6 6 14 -1 9 -7 17 -8 20 -3 8
13 -19 23 -39 16 -10 -4 -18 3 -25 20 -5 14 -13 25 -17 24 -5 0 -15 1 -23 4
-8 3 -34 11 -57 17 -24 7 -43 17 -43 24 0 7 -14 29 -31 50 -17 21 -28 44 -25
52 3 8 1 17 -4 20 -6 3 -6 15 0 29 5 13 6 27 3 30 -4 3 0 24 7 45 12 36 11 42
-9 67 -11 14 -21 32 -21 39 0 7 -7 18 -15 25 -18 15 -10 31 10 23 10 -3 15 2
15 16 0 12 -5 21 -11 21 -14 0 -39 -26 -39 -40 0 -7 -6 -8 -18 -1 -22 12 -48
9 -64 -7 -7 -7 -18 -12 -25 -12 -7 0 -13 -5 -13 -10 0 -6 -12 -15 -26 -20 -17
-7 -24 -15 -20 -25 4 -10 -1 -15 -15 -15 -12 0 -23 8 -26 20 -3 11 -10 20 -16
20 -6 0 -7 3 -4 7 4 3 2 13 -5 20 -8 11 -9 16 -1 21 26 16 -39 62 -87 62 -10
0 -21 -9 -25 -19z m768 -1077 c-10 -26 -33 -15 -33 16 0 28 1 29 19 13 11 -9
17 -22 14 -29z m31 20 c3 -8 2 -12 -4 -9 -6 3 -10 10 -10 16 0 14 7 11 14 -7z
m-1725 -90 c3 -16 1 -17 -13 -5 -19 16 -21 34 -3 29 6 -3 14 -13 16 -24z
m2341 -233 c0 -6 -4 -13 -10 -16 -5 -3 -10 1 -10 9 0 9 5 16 10 16 6 0 10 -4
10 -9z m-430 -27 c0 -8 -4 -12 -10 -9 -5 3 -10 10 -10 16 0 5 5 9 10 9 6 0 10
-7 10 -16z m200 -86 c0 -5 -7 -8 -15 -8 -10 0 -15 10 -15 27 0 26 1 26 15 7 8
-10 15 -22 15 -26z m-280 -53 c0 -7 7 -15 15 -19 8 -3 15 -12 15 -20 0 -13 -4
-13 -27 1 -28 16 -42 66 -15 56 6 -3 12 -11 12 -18z m610 -5 c0 -5 -2 -10 -4
-10 -3 0 -8 5 -11 10 -3 6 -1 10 4 10 6 0 11 -4 11 -10z m165 -162 c3 1 5 0 5
-3 0 -3 0 -11 0 -19 0 -17 -56 -47 -74 -40 -8 3 -16 -3 -19 -15 -3 -13 -1 -18
8 -15 7 3 16 1 19 -4 3 -5 -6 -9 -20 -9 -21 0 -25 4 -22 26 2 20 8 26 26 25
15 0 22 5 22 17 0 10 5 30 12 44 11 25 13 26 25 8 8 -10 16 -17 18 -15z
m-1025 -12 c0 -11 -19 -15 -25 -6 -3 5 1 10 9 10 9 0 16 -2 16 -4z m915 -135
c-9 -16 -25 -3 -18 15 4 10 9 12 15 6 6 -6 7 -15 3 -21z m-297 -243 c12 -16
21 -88 11 -88 -4 0 -15 -7 -23 -16 -14 -14 -17 -14 -22 0 -3 8 -12 12 -20 9
-22 -8 -17 35 6 47 12 6 20 21 20 35 0 27 12 32 28 13z m-78 -112 c0 -3 -4 -8
-10 -11 -5 -3 -10 -1 -10 4 0 6 5 11 10 11 6 0 10 -2 10 -4z"/>
<path d="M6044 10938 c2 -7 6 -20 9 -28 12 -29 11 -45 -2 -68 -8 -15 -10 -38
-6 -64 6 -34 4 -42 -14 -55 -12 -8 -19 -19 -15 -24 9 -16 -28 -101 -42 -95 -8
3 -11 0 -7 -10 3 -8 8 -13 10 -10 3 2 18 0 34 -6 21 -7 29 -16 29 -33 0 -13 5
-27 10 -30 6 -3 10 -19 10 -34 0 -16 6 -34 14 -41 8 -6 13 -17 10 -25 -3 -7 4
-16 16 -20 11 -4 31 -16 44 -28 89 -84 150 -127 162 -114 3 3 -1 16 -10 29 -9
12 -16 30 -16 40 0 13 -6 16 -33 11 -35 -5 -38 -2 -85 100 -2 4 8 3 22 -3 21
-8 27 -6 36 10 10 18 7 20 -20 20 -43 0 -37 14 14 29 37 11 46 18 60 54 9 23
12 45 7 50 -12 12 -61 16 -61 5 0 -5 -4 -7 -9 -3 -16 9 -22 -12 -11 -40 9 -23
8 -26 -4 -22 -11 4 -13 1 -10 -11 5 -15 3 -14 -10 1 -20 25 -11 95 16 125 12
12 18 22 14 22 -5 0 -3 6 3 14 9 11 8 23 -6 52 -9 22 -23 46 -31 56 -8 10 -10
18 -3 22 13 8 -26 76 -44 76 -7 0 -18 6 -25 14 -6 8 -18 12 -26 9 -8 -3 -14 1
-14 10 0 9 -4 18 -9 21 -5 4 -8 0 -7 -6z m84 -258 c7 -11 12 -21 11 -22 0 -2
4 -15 10 -30 9 -23 7 -27 -15 -32 -19 -5 -30 1 -53 26 -16 18 -26 38 -23 46 3
9 7 10 11 3 4 -6 12 -7 21 0 13 8 13 10 0 19 -12 8 -12 10 5 10 11 0 26 -9 33
-20z"/>
<path d="M8294 10914 c3 -9 6 -20 6 -25 0 -5 6 -9 13 -9 16 0 18 32 3 42 -18
13 -28 9 -22 -8z"/>
<path d="M6510 10821 c-6 -12 -21 -21 -33 -21 -12 0 -33 -7 -45 -16 -21 -15
-25 -15 -41 0 -17 16 -18 15 -15 -6 3 -18 -5 -28 -38 -49 -24 -14 -51 -29 -60
-32 -15 -5 -16 -11 -6 -38 6 -17 18 -34 27 -36 18 -5 28 -88 11 -98 -15 -9
-12 -25 5 -25 8 0 15 -5 15 -10 0 -6 -6 -10 -12 -9 -7 1 -22 1 -32 0 -20 -1
-20 -1 0 -16 10 -8 27 -15 37 -15 10 0 16 -4 13 -9 -3 -4 -1 -22 4 -40 6 -24
5 -31 -5 -31 -7 0 -16 -7 -19 -16 -9 -24 -7 -74 3 -74 5 0 13 -10 16 -22 4
-13 13 -38 22 -56 8 -19 12 -44 9 -56 -3 -13 -2 -26 2 -30 4 -4 12 -29 18 -56
8 -37 8 -56 -2 -79 -10 -24 -10 -32 1 -41 8 -6 12 -17 9 -25 -4 -8 8 -17 30
-25 33 -11 40 -21 39 -57 0 -6 6 -9 13 -6 8 3 14 12 14 20 0 12 3 13 15 3 8
-6 18 -9 23 -6 6 3 26 -1 46 -9 46 -19 66 -19 66 1 0 13 3 14 15 4 11 -10 18
-9 30 4 20 20 25 20 40 -1 13 -18 111 -28 120 -12 8 12 52 11 76 -1 13 -7 19
-7 19 0 0 5 7 10 15 10 9 0 12 6 8 16 -5 14 -3 14 26 -1 27 -13 35 -14 48 -3
13 10 17 10 21 0 2 -7 10 -19 18 -26 20 -20 18 -26 -11 -26 -21 0 -25 -5 -25
-30 0 -20 -8 -35 -25 -46 -15 -10 -25 -26 -25 -40 0 -20 -4 -23 -28 -18 -23 5
-29 1 -39 -25 -9 -25 -17 -31 -41 -31 -18 0 -43 -10 -60 -25 -20 -16 -45 -26
-71 -28 -35 -2 -40 -5 -35 -22 3 -11 19 -32 35 -46 34 -30 36 -39 10 -39 -29
0 -34 -16 -15 -45 9 -14 12 -25 5 -25 -12 0 -3 -63 11 -68 4 -2 8 -9 8 -15 0
-5 -3 -7 -7 -4 -3 4 -16 1 -27 -6 -12 -8 -38 -14 -60 -15 -21 -1 -44 -6 -52
-13 -7 -6 -18 -8 -24 -4 -5 3 -10 1 -10 -6 0 -7 -10 -9 -30 -5 -18 3 -30 1
-30 -5 0 -6 -4 -7 -10 -4 -15 9 -12 -12 5 -45 9 -17 22 -30 30 -30 15 0 32
-61 21 -78 -3 -5 20 -19 52 -31 45 -16 60 -28 72 -53 8 -18 25 -37 37 -43 12
-5 27 -19 34 -31 17 -33 51 -44 107 -35 34 5 58 4 73 -4 32 -16 89 -26 89 -16
0 8 53 -7 77 -22 7 -4 24 -5 38 -1 23 6 25 3 25 -23 0 -17 9 -38 20 -48 11
-10 20 -29 20 -42 0 -13 6 -23 14 -23 20 0 30 -38 16 -55 -10 -12 -9 -15 4
-15 22 0 20 -35 -3 -46 -18 -8 -18 -11 -4 -46 12 -30 21 -38 40 -38 21 0 24
-4 21 -27 -2 -20 6 -36 31 -60 27 -26 32 -36 23 -45 -17 -17 -15 -48 3 -48 8
0 15 4 15 9 0 5 23 12 50 16 28 4 51 12 52 18 1 7 2 23 2 37 1 18 10 30 32 40
30 15 30 17 15 40 -15 23 -15 24 1 12 11 -9 18 -10 23 -3 3 7 16 0 32 -17 14
-15 20 -19 14 -10 -16 22 6 61 32 54 20 -5 22 12 6 48 -10 21 -15 23 -36 15
-17 -6 -25 -5 -29 5 -3 8 -17 16 -32 19 -21 4 -27 12 -29 33 0 14 -5 29 -10
33 -14 10 -31 56 -38 104 -4 26 -12 45 -19 44 -7 -1 -13 22 -16 65 -3 36 -8
70 -12 74 -4 3 -3 15 3 25 11 22 -27 88 -67 114 -33 21 -30 44 6 52 17 3 30
12 30 20 0 9 6 13 15 9 10 -3 15 1 15 12 0 13 2 14 9 3 5 -7 13 -11 19 -7 6 4
26 -3 44 -14 18 -11 40 -20 49 -20 9 0 22 -6 28 -14 7 -8 35 -16 64 -18 29 -2
59 -6 67 -9 10 -2 14 2 13 14 -1 16 5 18 38 15 32 -3 39 0 39 14 0 25 -3 33
-15 34 -5 1 -17 3 -25 4 -9 1 -5 6 11 13 36 16 35 30 -4 43 -24 8 -32 17 -32
36 -1 14 -10 38 -20 54 -11 16 -19 31 -18 34 0 3 4 15 8 28 6 21 4 22 -27 19
-46 -5 -119 -45 -125 -68 -3 -10 -9 -16 -14 -13 -5 3 -9 -2 -9 -10 0 -9 -8
-16 -19 -16 -22 0 -48 -61 -35 -82 5 -8 2 -9 -9 -5 -10 4 -17 2 -17 -5 0 -7
-4 -7 -13 1 -10 8 -17 7 -25 -1 -9 -9 -12 -9 -12 1 0 11 -3 11 -14 2 -11 -9
-19 -9 -34 0 -17 10 -25 10 -46 -4 -26 -17 -26 -17 -6 -37 23 -23 25 -36 9
-46 -6 -3 -29 12 -51 35 -22 22 -45 41 -50 41 -5 0 -2 7 6 16 14 14 14 18 1
37 -8 12 -15 34 -15 49 0 18 -5 28 -14 28 -11 0 -66 80 -66 97 0 2 9 7 20 11
19 7 19 8 3 32 -22 31 -25 118 -4 122 23 5 22 78 -2 137 -16 41 -19 55 -9 58
6 3 12 11 12 20 0 30 44 9 63 -29 9 -21 21 -38 25 -38 4 0 8 -12 7 -27 0 -20
6 -28 25 -33 18 -5 24 -12 23 -27 -2 -17 4 -22 32 -25 28 -3 36 0 41 15 6 18
7 18 30 -4 16 -15 22 -29 18 -45 -8 -32 47 -85 58 -55 6 19 84 16 114 -4 16
-11 35 -18 42 -17 8 2 21 -3 29 -10 15 -12 15 -11 3 11 -11 21 -10 26 5 37 10
7 31 10 51 7 29 -5 34 -3 34 15 0 11 7 27 15 36 8 8 15 22 15 30 0 9 7 16 16
16 11 0 15 6 11 20 -3 13 1 21 14 25 16 5 18 13 12 51 -5 37 -3 44 11 44 19 0
21 16 3 27 -40 26 -58 114 -27 133 9 6 14 21 12 44 -3 27 0 35 10 31 15 -6 48
43 41 61 -2 6 5 14 15 16 26 7 38 107 14 124 -19 14 -102 17 -102 4 0 -12 -60
-13 -79 -1 -7 5 -11 13 -8 18 4 6 -11 18 -33 28 -26 12 -40 25 -40 37 0 22
-13 23 -30 3 -15 -18 -68 -45 -87 -45 -8 0 -22 -8 -31 -19 -20 -22 -107 -55
-121 -46 -6 3 -21 -1 -34 -10 -13 -8 -26 -13 -29 -9 -3 3 -19 7 -34 9 -38 5
-80 21 -89 34 -13 22 -32 10 -53 -33 -12 -24 -22 -55 -22 -68 0 -17 -7 -27
-20 -31 -23 -6 -17 -37 6 -37 20 0 17 -18 -5 -32 -16 -10 -18 -21 -14 -77 4
-62 3 -65 -12 -46 -9 12 -13 30 -10 45 7 35 -19 103 -44 115 -11 5 -21 16 -21
23 0 7 -13 18 -30 23 -16 6 -30 15 -30 20 0 5 -11 9 -24 9 -27 0 -76 35 -76
54 0 21 -31 77 -46 83 -19 7 -18 23 1 23 8 0 15 9 15 20 0 15 -7 20 -28 20
-32 0 -67 32 -77 70 -7 30 -24 51 -50 66 -19 11 -33 36 -18 33 25 -4 31 4 29
41 -2 46 -21 74 -35 51 -6 -10 -10 -10 -16 -1 -5 8 -12 7 -26 -6 -12 -11 -27
-14 -43 -10 -24 6 -56 -14 -56 -35 0 -5 -6 -9 -14 -9 -8 0 -16 -6 -19 -12 -3
-9 -10 -6 -21 9 -11 14 -23 20 -34 16 -11 -4 -8 1 7 14 13 11 25 29 26 40 1
23 29 53 67 72 19 10 30 25 34 48 3 18 12 33 20 33 18 0 18 24 0 39 -12 10
-17 8 -26 -8z m540 -924 c0 -23 -2 -22 -19 10 -10 19 -9 22 4 17 8 -4 15 -15
15 -27z m77 -51 c-10 -26 -25 -18 -19 10 3 17 8 22 15 15 5 -5 7 -17 4 -25z
m658 15 c3 -5 1 -12 -5 -16 -5 -3 -10 1 -10 9 0 18 6 21 15 7z m-417 -879 c2
-7 -3 -12 -12 -12 -9 0 -16 7 -16 16 0 17 22 14 28 -4z"/>
<path d="M8840 10791 c0 -5 5 -13 10 -16 6 -3 10 -2 10 4 0 5 -4 13 -10 16 -5
3 -10 2 -10 -4z"/>
<path d="M8433 10760 c2 -8 7 -25 11 -37 5 -16 2 -23 -15 -28 -13 -5 -17 -10
-10 -14 14 -9 27 -71 13 -71 -5 0 -15 -20 -21 -45 -10 -41 -14 -45 -41 -45
-23 0 -30 4 -30 20 0 13 -7 20 -20 20 -17 0 -19 -5 -14 -24 6 -27 -10 -35 -58
-28 -18 3 -30 13 -36 32 -12 34 -62 46 -123 30 -23 -6 -47 -9 -55 -6 -12 4
-12 2 -4 -15 9 -16 6 -30 -12 -67 -12 -26 -21 -52 -20 -59 1 -6 -6 -18 -17
-25 -15 -11 -19 -24 -18 -67 2 -40 -2 -56 -16 -66 -17 -12 -17 -13 0 -19 12
-5 24 0 35 14 9 11 19 16 22 11 4 -5 31 -9 61 -8 31 1 60 -4 67 -11 16 -16 63
-15 91 2 12 7 50 19 84 26 48 10 69 20 91 44 15 17 29 34 30 39 1 4 9 21 17
37 13 25 19 29 35 20 26 -14 30 -13 30 10 0 11 7 20 15 20 10 0 15 10 15 30
l0 30 55 -6 54 -7 13 47 c7 28 19 48 30 52 10 3 18 13 18 22 0 10 3 13 8 7 13
-18 62 -18 62 0 0 11 -6 14 -24 9 -17 -4 -27 0 -35 13 -6 10 -11 14 -11 9 0
-6 -13 3 -30 19 -23 22 -30 25 -30 12 0 -19 -15 -23 -25 -7 -4 6 -10 8 -15 5
-5 -3 -19 -1 -31 6 -17 9 -23 8 -30 -2 -6 -10 -9 -11 -9 -1 0 6 -11 12 -25 12
-24 0 -47 17 -73 56 -8 11 -11 13 -9 4z"/>
<path d="M8825 10740 c3 -5 13 -10 21 -10 8 0 12 5 9 10 -3 6 -13 10 -21 10
-8 0 -12 -4 -9 -10z"/>
<path d="M9595 10711 c-3 -5 -1 -12 5 -16 5 -3 10 1 10 9 0 18 -6 21 -15 7z"/>
<path d="M9570 10675 c-7 -8 -19 -15 -27 -15 -8 0 -11 -4 -8 -10 3 -5 1 -10
-4 -10 -17 0 -51 -39 -41 -45 18 -11 10 -26 -10 -20 -12 4 -20 2 -20 -5 0 -7
-5 -8 -17 -2 -13 8 -21 4 -35 -13 -10 -13 -18 -28 -18 -34 0 -6 -7 -11 -15
-11 -8 0 -15 -5 -15 -11 0 -5 -5 -7 -11 -3 -6 3 -9 16 -7 28 4 20 0 21 -56 21
-34 0 -67 4 -75 10 -11 8 -12 5 -6 -15 4 -14 12 -26 16 -28 13 -5 11 -46 -2
-59 -14 -14 18 -53 44 -53 11 0 15 -5 11 -11 -15 -24 32 11 60 45 16 20 38 36
48 36 24 0 69 -30 63 -40 -3 -5 0 -12 6 -16 7 -4 9 -3 6 3 -8 13 20 22 96 29
46 5 58 3 56 -7 -1 -8 2 -25 8 -39 6 -14 14 -33 17 -42 5 -18 52 -35 63 -24 4
3 -3 16 -15 29 -12 13 -22 31 -22 40 0 9 -8 24 -19 34 -23 23 -35 59 -21 68
14 9 13 52 -2 58 -10 3 -10 8 -2 16 8 9 7 23 -3 54 -18 53 -27 62 -43 42z"/>
<path d="M8923 10659 c-10 -4 -21 -5 -24 -3 -3 2 -4 -8 -1 -21 6 -36 58 -76
87 -69 17 4 32 -2 56 -25 17 -17 39 -31 48 -31 10 0 23 -6 30 -12 10 -11 11
-7 5 17 -9 40 -13 45 -30 45 -8 0 -14 7 -14 16 0 8 -4 12 -10 9 -5 -3 -10 1
-10 9 0 18 -11 21 -26 6 -7 -7 -24 2 -52 28 -29 26 -46 36 -59 31z"/>
<path d="M8825 10650 c3 -5 8 -10 11 -10 2 0 4 5 4 10 0 6 -5 10 -11 10 -5 0
-7 -4 -4 -10z"/>
<path d="M8854 10602 c11 -12 25 -22 32 -22 7 0 15 -8 17 -17 3 -12 5 -9 6 8
1 17 -5 28 -16 32 -10 2 -27 8 -38 13 -20 7 -20 7 -1 -14z"/>
<path d="M10200 10559 c-19 -10 -40 -19 -47 -19 -7 0 -13 -5 -13 -10 0 -6 -11
-15 -24 -21 -25 -12 -41 -48 -37 -82 2 -16 -6 -17 -98 -14 l-100 4 -32 -33
c-19 -19 -43 -34 -56 -34 -13 0 -31 -4 -41 -9 -9 -5 -25 -12 -34 -15 -12 -4
-18 -16 -18 -35 0 -22 -6 -32 -22 -37 -21 -6 -21 -7 -2 -21 10 -8 18 -19 16
-25 -5 -19 10 -49 23 -44 28 10 53 -22 53 -67 -1 -24 6 -54 16 -68 9 -15 18
-53 20 -90 2 -35 4 -67 5 -71 1 -8 69 -3 78 6 10 9 53 7 53 -3 0 -5 8 -7 18
-5 11 3 26 -8 42 -31 19 -26 32 -35 55 -35 17 0 43 -11 60 -26 68 -58 135
-125 135 -134 0 -5 12 -13 27 -16 39 -10 93 -44 93 -59 0 -8 9 -10 26 -7 21 4
25 9 21 27 -3 20 1 24 30 27 25 3 38 -1 46 -13 7 -9 43 -34 81 -54 52 -29 70
-35 76 -25 4 7 15 10 24 7 12 -5 16 0 16 17 0 19 4 23 20 19 12 -3 20 0 20 7
0 7 8 9 20 5 16 -5 20 -2 20 14 0 25 15 28 28 5 7 -13 13 -12 40 11 18 15 32
36 32 47 0 16 5 19 20 15 17 -4 20 -2 15 13 -5 15 1 20 29 25 19 4 48 4 65 0
25 -5 31 -3 31 11 0 15 9 16 70 12 39 -3 70 -2 70 2 0 10 -26 31 -31 25 -9 -8
-82 16 -120 41 -21 13 -47 24 -57 24 -10 0 -24 11 -30 25 -6 14 -18 25 -27 25
-25 0 -76 55 -69 74 7 19 -25 23 -44 4 -9 -9 -15 -9 -24 0 -7 7 -18 12 -24 12
-31 0 -104 94 -104 134 0 9 -13 22 -29 30 -19 10 -30 26 -35 47 -7 36 -7 80 1
62 3 -9 11 -7 25 7 18 16 19 22 8 35 -10 12 -11 18 -2 24 6 4 8 12 2 20 -5 9
-4 22 3 32 9 15 7 23 -13 44 -13 14 -19 25 -13 25 21 0 30 52 15 83 -15 29
-15 30 -83 23 -39 -3 -84 -15 -104 -26 -28 -16 -40 -18 -55 -10 -11 6 -20 15
-20 20 0 6 -7 10 -15 10 -32 0 -65 23 -59 42 7 24 -20 23 -66 -3z"/>
<path d="M8940 10540 c0 -21 24 -27 49 -11 9 6 10 11 2 15 -6 4 -11 5 -11 1 0
-3 -9 -1 -20 5 -17 9 -20 8 -20 -10z"/>
<path d="M10095 10520 c3 -5 8 -10 11 -10 2 0 4 5 4 10 0 6 -5 10 -11 10 -5 0
-7 -4 -4 -10z"/>
<path d="M9055 10470 c3 -5 8 -10 11 -10 2 0 4 5 4 10 0 6 -5 10 -11 10 -5 0
-7 -4 -4 -10z"/>
<path d="M9100 10425 c0 -8 4 -15 9 -15 4 0 20 -11 35 -25 15 -14 31 -25 37
-25 15 0 10 20 -6 26 -8 4 -15 17 -15 30 0 20 -5 24 -30 24 -20 0 -30 -5 -30
-15z"/>
<path d="M13600 10428 c0 -33 -40 -53 -97 -50 -49 4 -54 2 -51 -15 2 -13 12
-18 33 -18 21 0 31 -5 33 -20 3 -11 20 -38 38 -61 19 -22 34 -45 34 -49 0 -5
8 -17 18 -28 12 -15 14 -21 5 -24 -18 -6 -16 -18 5 -39 9 -10 17 -21 17 -26 0
-17 59 -58 76 -53 12 4 23 -1 31 -14 9 -15 19 -18 40 -14 16 3 28 1 28 -5 0
-7 9 -6 25 1 14 7 25 18 25 25 0 6 4 12 8 12 12 0 62 -54 62 -67 0 -23 31 -21
60 3 23 19 30 34 30 60 0 29 3 34 24 34 18 0 27 8 35 31 14 41 15 39 -10 39
-15 0 -19 4 -14 19 3 11 1 22 -5 26 -15 9 -12 25 4 25 11 0 11 7 -4 38 -10 21
-26 44 -34 52 -17 13 -21 42 -9 54 15 15 8 45 -13 55 -19 8 -26 7 -36 -8 -21
-30 -55 -43 -78 -31 -18 9 -20 8 -20 -15 0 -29 -21 -32 -60 -10 -14 8 -37 14
-52 15 -19 0 -32 9 -44 29 -15 25 -22 29 -46 24 -16 -3 -34 0 -43 7 -12 10
-15 10 -15 -2z"/>
<path d="M6210 10389 c0 -11 5 -17 10 -14 6 3 10 13 10 21 0 8 -4 14 -10 14
-5 0 -10 -9 -10 -21z"/>
<path d="M9210 10376 c0 -8 5 -18 10 -21 6 -3 10 -1 10 5 0 6 4 8 10 5 6 -3 7
1 4 9 -8 20 -34 21 -34 2z"/>
<path d="M14030 10381 c0 -6 5 -13 10 -16 6 -4 8 -11 5 -16 -8 -11 19 -39 37
-39 7 0 2 7 -11 16 -16 12 -20 19 -12 27 7 7 7 14 0 24 -13 15 -29 17 -29 4z"/>
<path d="M9185 10300 c4 -6 11 -8 16 -5 14 9 11 15 -7 15 -8 0 -12 -5 -9 -10z"/>
<path d="M6962 10217 c1 -14 8 -29 15 -31 17 -7 16 14 -2 38 -14 19 -15 19
-13 -7z"/>
<path d="M7010 10164 c0 -12 7 -27 15 -34 19 -16 19 -3 0 30 -13 24 -14 24
-15 4z"/>
<path d="M6330 10146 c0 -8 5 -18 10 -21 6 -3 10 1 10 9 0 8 -4 18 -10 21 -5
3 -10 -1 -10 -9z"/>
<path d="M8523 9963 c-9 -23 2 -48 22 -48 15 0 21 8 23 30 2 26 -1 31 -19 31
-12 0 -23 -6 -26 -13z"/>
<path d="M13840 9951 c0 -6 4 -13 10 -16 6 -3 7 1 4 9 -7 18 -14 21 -14 7z"/>
<path d="M14162 9870 c-47 -25 -48 -29 -13 -28 17 1 31 5 31 11 0 5 11 7 24 3
28 -7 40 2 25 21 -14 16 -25 15 -67 -7z"/>
<path d="M8515 9871 c-3 -6 -13 -11 -22 -11 -9 0 -25 -7 -35 -16 -14 -13 -21
-14 -32 -5 -10 8 -16 9 -21 2 -4 -7 -14 -6 -29 4 -21 14 -24 14 -30 -1 -4 -11
-13 -14 -31 -10 -18 5 -23 3 -19 -8 4 -9 -6 -16 -30 -20 -33 -6 -35 -9 -25
-27 16 -30 5 -47 -25 -42 -16 3 -26 1 -26 -6 0 -7 4 -10 9 -6 13 7 30 -26 23
-44 -3 -9 0 -11 8 -6 7 4 18 -2 27 -15 14 -19 23 -22 64 -18 26 3 52 1 57 -4
15 -15 53 14 59 45 7 34 17 41 33 22 7 -8 18 -15 24 -15 6 0 33 -21 60 -47 28
-26 52 -41 54 -35 2 7 8 10 13 7 5 -4 6 1 3 9 -3 8 -12 17 -20 20 -10 4 -13
13 -9 25 5 15 -2 24 -27 37 -58 29 -68 43 -55 71 8 19 8 26 -2 32 -10 7 -10
14 4 35 10 15 15 29 12 32 -3 3 -8 1 -12 -5z"/>
<path d="M7873 9796 c2 -6 10 -11 18 -11 7 0 17 -13 22 -30 17 -57 44 -100 67
-103 21 -4 70 38 70 59 0 5 6 9 13 8 27 -3 36 2 30 17 -5 14 -3 15 17 4 15 -8
25 -9 32 -2 7 7 1 15 -19 26 -23 11 -33 12 -42 3 -6 -6 -11 -7 -11 -1 0 5 -4
3 -9 -5 -8 -12 -20 -9 -73 16 -63 31 -122 41 -115 19z"/>
<path d="M8166 9765 c4 -8 12 -15 20 -15 8 0 14 7 14 15 0 8 -9 15 -20 15 -13
0 -18 -5 -14 -15z"/>
<path d="M8162 9707 c2 -17 7 -23 17 -19 10 4 11 7 3 10 -7 2 -10 8 -7 12 3 5
1 11 -5 15 -6 4 -9 -4 -8 -18z"/>
<path d="M14284 9636 c-11 -30 15 -74 47 -78 38 -6 55 13 38 41 -11 17 -25 26
-71 49 -5 2 -11 -4 -14 -12z"/>
<path d="M10726 9541 c-4 -7 -5 -15 -2 -18 9 -9 19 4 14 18 -4 11 -6 11 -12 0z"/>
<path d="M7640 9500 c0 -6 16 -18 35 -27 19 -9 32 -20 30 -24 -3 -4 4 -5 15
-2 18 5 16 9 -17 34 -39 29 -63 37 -63 19z"/>
<path d="M7780 9479 c0 -11 4 -18 10 -14 5 3 7 12 3 20 -7 21 -13 19 -13 -6z"/>
<path d="M11785 9470 c-9 -10 -14 -23 -11 -29 4 -6 -7 -8 -30 -4 -34 6 -36 4
-29 -16 5 -15 2 -21 -9 -21 -9 0 -16 -7 -16 -15 0 -16 9 -19 34 -9 9 3 13 10
10 15 -5 8 12 13 44 12 6 -1 12 4 12 10 0 6 3 8 6 4 6 -6 44 23 44 35 0 5 -7
8 -16 8 -8 0 -13 4 -9 9 11 19 -13 20 -30 1z"/>
<path d="M7790 9443 c0 -4 5 -15 10 -23 8 -13 10 -13 10 2 0 9 -4 20 -10 23
-5 3 -10 3 -10 -2z"/>
<path d="M7814 9398 c-4 -7 -3 -10 1 -5 5 4 19 -3 32 -15 28 -26 44 -16 18 12
-21 23 -41 26 -51 8z"/>
<path d="M7915 9400 c3 -5 8 -10 11 -10 2 0 4 5 4 10 0 6 -5 10 -11 10 -5 0
-7 -4 -4 -10z"/>
<path d="M11756 9358 c1 -21 6 -34 17 -36 25 -5 27 12 4 42 l-22 27 1 -33z"/>
<path d="M7848 9335 c-7 -9 -18 -21 -23 -28 -17 -20 -11 -42 12 -45 17 -3 21
0 17 12 -8 21 4 20 44 -4 39 -24 41 -20 5 16 -17 17 -23 29 -15 32 9 3 8 7 -2
18 -18 18 -22 18 -38 -1z"/>
<path d="M7781 9274 c0 -11 3 -14 6 -6 3 7 2 16 -1 19 -3 4 -6 -2 -5 -13z"/>
<path d="M13319 9248 c-1 -2 -3 -13 -4 -25 -1 -14 2 -20 11 -16 16 6 18 29 4
38 -5 3 -11 5 -11 3z"/>
<path d="M7610 8500 c0 -9 39 -25 45 -18 2 2 -7 8 -21 15 -13 6 -24 7 -24 3z"/>
<path d="M7271 8329 c-13 -10 -39 -19 -57 -19 -32 0 -33 -1 -22 -20 18 -28 49
-36 60 -16 5 10 21 21 34 26 23 9 32 34 16 43 -4 3 -18 -3 -31 -14z"/>
</g>
</svg>
