<?xml version="1.0" standalone="no"?>
<!DOCTYPE svg PUBLIC "-//W3C//DTD SVG 20010904//EN"
 "http://www.w3.org/TR/2001/REC-SVG-20010904/DTD/svg10.dtd">
<svg version="1.0" xmlns="http://www.w3.org/2000/svg"
 width="527.521491pt" height="498.505823pt" viewBox="0 0 527.521491 498.505823"
 preserveAspectRatio="xMidYMid meet">
<metadata>
Created by potrace 1.15, written by Peter Selinger 2001-2017
</metadata>
<g transform="translate(-751.000000,1183.000000) scale(0.100000,-0.100000)"
fill="#222222" stroke="none">
<path d="M8916 11815 c4 -8 10 -12 15 -9 11 6 2 24 -11 24 -5 0 -7 -7 -4 -15z"/>
<path d="M8896 11791 c-3 -5 1 -11 9 -14 9 -4 12 -1 8 9 -6 16 -10 17 -17 5z"/>
<path d="M9071 11782 c-15 -28 -14 -31 9 -25 14 4 20 0 20 -11 0 -9 -8 -16
-19 -16 -12 0 -25 -11 -33 -27 -17 -36 -42 -40 -70 -10 -13 13 -31 26 -41 30
-10 4 -15 11 -12 17 3 5 0 10 -8 10 -16 0 -15 -36 2 -69 8 -15 21 -21 45 -21
21 0 40 -8 52 -21 10 -11 26 -18 36 -16 10 3 18 1 18 -4 0 -5 -4 -9 -10 -9
-17 0 -11 -26 10 -45 11 -10 26 -15 36 -11 11 4 26 -2 41 -16 23 -21 24 -21
37 -3 12 17 17 18 40 7 38 -17 46 -15 46 13 0 18 -4 23 -16 18 -10 -4 -23 2
-33 15 -11 15 -30 22 -62 25 -44 4 -95 28 -83 39 3 4 19 2 36 -3 26 -7 31 -5
35 12 4 14 9 17 18 9 9 -8 15 -8 20 0 10 15 42 12 49 -6 5 -12 8 -13 19 -2 23
21 15 38 -22 48 -20 5 -41 10 -47 10 -6 0 -17 7 -24 15 -7 8 -21 15 -32 15
-12 0 -17 4 -12 13 4 6 3 8 -1 4 -5 -4 -14 2 -21 14 l-11 22 -12 -21z"/>
<path d="M9476 11727 c3 -8 21 -11 55 -8 62 4 58 11 -9 16 -38 3 -50 1 -46 -8z"/>
<path d="M9452 11683 c-6 -2 -10 -9 -6 -14 3 -5 -10 -10 -28 -10 -18 -1 -25
-3 -15 -6 15 -4 17 -11 12 -31 -8 -34 -14 -40 -24 -24 -6 10 -10 10 -20 -1 -9
-11 -8 -17 3 -26 8 -7 12 -19 9 -27 -3 -9 0 -14 8 -12 7 2 13 -4 14 -12 1 -14
16 -54 36 -92 15 -29 11 -58 -8 -58 -9 0 -25 -7 -35 -17 -17 -15 -18 -15 -18
10 0 19 5 27 18 27 14 0 14 2 3 9 -9 6 -19 4 -28 -5 -13 -12 -11 -22 7 -72 12
-31 24 -70 27 -85 3 -16 12 -31 19 -34 8 -3 11 -9 8 -14 -3 -5 0 -17 5 -26 6
-10 11 -14 11 -10 0 4 15 -3 33 -17 19 -14 37 -23 40 -19 4 3 7 -5 7 -19 0
-33 21 -41 59 -22 17 9 35 13 41 9 5 -3 10 3 10 14 0 12 6 21 14 21 23 0 36
-25 30 -59 -4 -21 -3 -31 5 -31 7 0 9 -5 5 -12 -4 -7 -3 -8 4 -4 14 8 32 -24
28 -50 -2 -10 1 -28 7 -38 9 -19 10 -19 20 0 15 24 48 114 51 134 3 20 53 70
71 70 16 0 66 46 58 54 -3 2 14 29 36 59 33 43 46 53 64 50 19 -4 23 0 22 23
-2 30 -19 42 -38 26 -8 -7 -20 -6 -37 3 -31 18 -77 19 -83 3 -5 -16 -106 18
-124 41 -14 18 -17 3 -4 -18 6 -9 5 -19 -3 -27 -16 -16 -106 -14 -106 3 0 6
-6 14 -12 17 -9 3 -7 9 6 20 19 15 18 16 -12 22 -23 5 -34 14 -38 30 -7 27
-44 54 -74 54 -11 0 -20 5 -20 11 0 5 5 7 10 4 7 -4 9 2 4 19 -6 26 8 37 21
16 11 -18 21 -11 34 26 14 38 3 58 -24 48 -7 -3 -15 2 -18 10 -4 9 -15 16 -26
16 -14 0 -23 9 -27 25 -6 25 -9 27 -32 18z m46 -207 c3 -13 0 -16 -10 -10 -7
5 -21 7 -30 6 -11 -2 -18 3 -18 13 0 24 54 16 58 -9z m347 -146 c3 -5 1 -10
-4 -10 -6 0 -11 5 -11 10 0 6 2 10 4 10 3 0 8 -4 11 -10z m-235 -161 c0 -6 -4
-7 -10 -4 -5 3 -10 11 -10 16 0 6 5 7 10 4 6 -3 10 -11 10 -16z"/>
<path d="M9250 11630 c-6 -11 -9 -20 -7 -20 2 0 14 9 27 20 18 16 19 20 7 20
-9 0 -21 -9 -27 -20z"/>
<path d="M9300 11620 c20 -13 33 -13 25 0 -3 6 -14 10 -23 10 -15 0 -15 -2 -2
-10z"/>
<path d="M8921 11561 c-14 -3 -26 -12 -29 -19 -5 -15 6 -15 47 -1 24 9 35 9
44 0 15 -15 50 -14 45 1 -2 6 -13 13 -24 14 -10 1 -28 5 -39 7 -11 3 -31 2
-44 -2z"/>
<path d="M9210 11522 c0 -11 -7 -36 -15 -55 -19 -46 -19 -45 11 -39 17 3 33
-3 49 -18 l23 -22 21 21 c12 12 21 30 21 42 0 16 4 19 23 14 12 -4 27 -13 33
-21 9 -11 13 -12 16 -2 10 25 -7 43 -42 46 -19 2 -47 10 -63 18 -15 8 -32 12
-36 9 -5 -3 -17 2 -25 11 -15 14 -16 14 -16 -4z"/>
<path d="M9933 11131 c-3 -11 -11 -17 -18 -15 -25 10 -25 -27 0 -53 28 -31 24
-48 -8 -30 -24 14 -40 15 -75 3 -23 -8 -22 -21 1 -21 5 0 12 -6 15 -12 2 -7
-3 -13 -11 -13 -8 0 -22 -12 -32 -26 -33 -50 -53 -64 -78 -55 -13 5 -32 9 -43
8 -10 -1 -19 4 -19 12 0 8 -6 16 -12 19 -7 2 -13 -1 -13 -8 0 -8 -6 -8 -20 0
-15 8 -21 6 -30 -10 -9 -16 -15 -18 -30 -10 -11 6 -20 19 -20 29 0 27 -10 31
-35 15 -13 -8 -30 -11 -40 -8 -13 6 -16 4 -10 -5 4 -8 2 -17 -6 -22 -21 -13
-67 -11 -76 4 -4 7 -21 17 -38 22 -27 10 -32 8 -50 -19 -12 -18 -33 -33 -50
-36 -46 -10 -77 -32 -71 -53 3 -14 1 -16 -8 -8 -15 13 -26 4 -26 -21 0 -10 -6
-17 -12 -15 -7 1 -14 -8 -16 -20 -3 -18 -10 -23 -33 -23 -18 0 -29 -5 -29 -14
0 -7 -8 -20 -17 -27 -14 -12 -16 -12 -8 0 6 11 4 13 -7 8 -11 -4 -18 2 -22 19
-8 29 -30 27 -34 -3 -4 -29 24 -48 69 -44 42 3 45 0 29 -29 -7 -13 -7 -21 0
-25 5 -3 10 -15 10 -26 0 -11 4 -18 9 -14 5 3 21 -5 35 -18 33 -31 35 -82 4
-108 -29 -26 -48 -24 -45 4 2 18 -3 22 -30 24 -28 1 -33 -2 -33 -22 0 -26 -35
-56 -94 -80 -24 -10 -36 -22 -36 -35 0 -11 -10 -25 -22 -31 -42 -21 -59 -41
-48 -54 8 -10 2 -14 -25 -19 -32 -6 -41 -18 -36 -48 0 -5 -4 -8 -9 -8 -6 0
-10 -13 -10 -29 0 -35 -4 -39 -67 -50 -40 -8 -53 -6 -80 10 -29 18 -32 18 -41
3 -8 -15 -15 -15 -61 -4 -53 13 -111 5 -168 -23 -18 -8 -27 -7 -41 6 -10 10
-21 15 -24 12 -3 -3 -22 2 -43 12 -35 17 -37 17 -47 0 -6 -11 -16 -16 -27 -12
-10 3 -24 -1 -31 -10 -23 -28 -77 -35 -128 -17 -26 9 -52 23 -58 31 -15 19
-74 23 -67 5 7 -20 -17 -46 -38 -41 -13 4 -19 -3 -23 -28 -7 -34 -44 -62 -70
-52 -8 3 -20 -1 -27 -9 -7 -9 -20 -13 -28 -11 -9 3 -31 10 -49 16 -23 7 -30 7
-26 -1 5 -8 -4 -9 -29 -5 -22 3 -37 2 -37 -4 0 -6 4 -8 8 -5 12 7 53 -49 49
-66 -2 -7 -2 -10 0 -6 3 5 13 3 23 -2 22 -12 34 -57 43 -172 1 -10 9 -18 18
-18 9 0 19 -6 22 -14 7 -16 55 -27 60 -13 2 6 13 -6 25 -27 26 -45 80 -70 140
-67 24 2 50 -3 59 -10 8 -7 29 -13 47 -14 27 0 31 -3 32 -30 1 -16 2 -37 3
-46 1 -19 68 -49 106 -49 18 0 25 5 25 20 0 13 7 20 20 20 15 0 20 7 20 25 0
14 7 28 16 32 8 3 20 17 25 31 8 21 14 24 39 18 18 -3 30 -1 30 5 0 15 70 42
94 36 12 -3 59 -15 106 -27 84 -22 149 -27 160 -11 3 4 26 14 53 22 32 9 47
19 47 31 0 12 8 17 28 17 15 0 59 9 97 19 58 17 73 18 85 7 18 -15 40 1 32 24
-3 8 9 3 27 -10 24 -17 34 -20 40 -11 5 9 16 9 42 2 22 -7 35 -7 37 0 5 15 28
12 42 -5 22 -27 42 -20 95 33 12 12 26 22 31 22 15 1 54 37 54 50 0 7 8 10 19
7 12 -3 22 1 25 9 3 8 14 14 24 14 10 0 26 8 35 18 16 17 15 20 -12 46 -17 17
-27 34 -24 43 4 11 0 14 -17 11 -19 -2 -28 7 -51 50 l-29 52 24 0 c16 0 27 -7
31 -21 5 -16 10 -18 21 -8 7 6 21 9 29 5 8 -3 15 -1 15 4 0 6 -4 10 -9 10 -5
0 -11 6 -14 13 -3 9 18 12 88 12 52 0 96 -3 100 -7 4 -4 16 1 27 11 15 15 26
17 51 10 61 -15 77 -21 77 -30 0 -13 59 -67 80 -74 30 -9 32 -56 4 -86 -18
-19 -24 -36 -24 -71 0 -55 -34 -111 -70 -116 -14 -2 -29 -8 -34 -13 -15 -14
-26 -11 -26 7 0 14 -3 14 -15 4 -11 -9 -12 -16 -5 -25 6 -8 5 -18 -4 -30 -12
-17 -10 -24 12 -57 14 -22 27 -53 29 -71 2 -18 5 -43 7 -57 2 -14 4 -31 5 -37
0 -7 13 -16 28 -19 36 -9 46 -21 60 -66 9 -31 8 -38 -5 -43 -12 -4 -13 -8 -4
-17 17 -17 16 -59 -1 -52 -8 3 -25 -13 -42 -41 -16 -25 -34 -45 -41 -45 -7 0
-17 -13 -23 -30 -9 -26 -8 -30 9 -30 36 0 135 30 160 49 14 10 45 22 68 26 23
4 42 11 42 16 0 5 11 16 25 25 25 16 27 16 53 -10 16 -14 31 -26 35 -26 4 0
24 -11 45 -24 45 -30 68 -34 107 -19 17 6 47 14 67 18 21 3 38 12 40 21 2 11
11 8 35 -14 17 -16 38 -32 46 -35 21 -8 39 14 27 33 -15 24 -11 32 9 20 27
-14 31 -13 25 5 -4 8 -1 22 5 29 8 10 9 16 1 21 -6 4 -7 12 0 24 6 12 6 21 -1
28 -6 6 -5 14 5 22 12 10 20 10 38 -3 12 -9 32 -16 44 -16 26 0 40 28 19 36
-8 4 -15 12 -15 18 0 17 -45 40 -63 33 -14 -5 -69 10 -94 26 -7 5 -13 17 -13
28 0 11 -4 18 -9 15 -5 -3 -12 1 -15 10 -3 8 -10 13 -15 9 -5 -3 -12 -1 -16 5
-4 6 -10 8 -15 5 -4 -3 -10 4 -13 15 -3 11 -1 23 5 26 5 3 7 13 4 21 -5 12 -1
14 20 9 15 -4 32 -2 41 6 12 10 17 9 27 -4 14 -19 44 -18 56 1 5 9 10 10 14 2
4 -6 12 -11 17 -11 6 0 8 3 5 8 -7 12 22 45 33 37 6 -3 11 -15 11 -26 0 -10 6
-19 14 -19 9 0 16 -12 18 -32 2 -27 7 -32 23 -30 12 1 31 -7 43 -18 12 -11 22
-17 22 -12 0 5 -7 15 -15 22 -21 17 -19 33 4 25 10 -3 24 1 31 10 7 8 17 12
22 9 6 -4 5 2 -1 14 -7 13 -7 22 -1 24 7 2 7 14 1 35 -6 20 -6 35 0 38 5 4 9
22 9 41 0 23 5 34 15 34 18 0 12 19 -27 79 -32 52 -35 71 -10 72 12 0 11 3 -7
10 -16 6 -21 14 -17 26 6 16 6 16 -12 0 -17 -16 -19 -15 -34 11 -9 15 -14 38
-11 53 4 21 -1 28 -31 44 -35 19 -53 46 -42 64 3 5 -1 14 -9 21 -8 7 -15 21
-15 31 0 11 -10 23 -24 28 -27 11 -39 34 -24 49 17 17 -13 74 -35 68 -25 -6
-76 13 -86 33 -5 9 -7 32 -5 51 6 49 -3 70 -32 70 -13 0 -23 5 -21 12 1 6 -7
16 -18 22 -20 11 -28 52 -10 50 6 -1 32 -7 58 -14 39 -10 50 -11 57 -1 5 10 9
9 13 -3 4 -9 11 -16 17 -16 15 0 2 49 -22 84 -22 30 -14 46 24 46 12 0 21 13
28 41 10 35 14 39 33 33 12 -3 32 -12 44 -20 26 -16 39 -17 35 -2 -4 16 18 37
33 32 13 -5 29 12 30 31 0 6 11 9 24 7 22 -2 23 0 19 48 -3 31 -1 51 6 54 7 3
6 5 -1 5 -7 1 -13 12 -13 26 0 13 -6 28 -13 32 -8 4 -19 17 -25 28 -11 19 -11
19 -12 1 0 -15 -3 -16 -15 -6 -8 7 -15 19 -15 26 0 8 -15 20 -32 27 -18 8 -39
21 -47 30 -7 10 -22 17 -33 17 -11 0 -38 10 -59 22 -33 18 -42 20 -65 9 -15
-7 -41 -9 -61 -5 -33 6 -35 5 -29 -17 6 -21 5 -22 -6 -8 -7 9 -28 20 -46 23
-17 4 -40 18 -49 30 -10 12 -24 21 -31 18 -6 -2 -12 1 -12 6 0 6 -8 8 -19 5
-12 -3 -24 3 -35 18 l-16 23 0 -22 c0 -17 -4 -22 -17 -18 -10 2 -32 7 -50 11
-21 4 -30 11 -27 20 3 7 -4 18 -15 24 -27 15 -32 14 -38 -8z m75 -83 c19 -19
14 -37 -8 -31 -11 3 -20 14 -20 24 0 22 11 24 28 7z m320 -296 c3 -9 -3 -13
-19 -10 -12 1 -24 9 -27 16 -3 9 3 13 19 10 12 -1 24 -9 27 -16z m-1085 -128
c-4 -34 -2 -48 8 -55 12 -8 12 -10 0 -18 -19 -12 -67 17 -52 32 6 6 6 19 0 35
-5 13 -8 26 -7 27 10 8 44 24 50 25 4 0 5 -21 1 -46z m672 -944 c3 -6 -1 -7
-9 -4 -18 7 -21 14 -7 14 6 0 13 -4 16 -10z m387 -152 c-9 -9 -15 -9 -24 0 -9
9 -7 12 12 12 19 0 21 -3 12 -12z m2 -41 c3 3 6 1 6 -5 0 -18 -25 -14 -41 5
-13 15 -12 15 7 5 12 -6 24 -8 28 -5z m252 -144 c-10 -10 -19 5 -10 18 6 11 8
11 12 0 2 -7 1 -15 -2 -18z m-382 -109 c4 -10 1 -14 -6 -12 -15 5 -23 28 -10
28 5 0 13 -7 16 -16z"/>
<path d="M9680 10940 c0 -5 5 -10 11 -10 5 0 7 5 4 10 -3 6 -8 10 -11 10 -2 0
-4 -4 -4 -10z"/>
<path d="M9101 10833 c-1 -7 -9 -13 -18 -13 -13 0 -14 -3 -5 -12 15 -15 37 3
29 24 -4 9 -6 10 -6 1z"/>
<path d="M9060 10545 c0 -8 2 -15 4 -15 2 0 6 7 10 15 3 8 1 15 -4 15 -6 0
-10 -7 -10 -15z"/>
<path d="M10480 10443 c-21 -8 -30 -24 -30 -51 0 -15 -7 -26 -20 -29 -26 -7
-26 -30 -1 -38 12 -4 18 -12 14 -21 -4 -11 -9 -12 -19 -3 -11 9 -14 9 -14 0 0
-29 84 -35 117 -9 7 5 17 7 23 3 5 -3 15 -3 20 0 6 4 -8 23 -30 45 -30 29 -41
47 -42 74 -2 20 -3 36 -3 35 0 0 -7 -3 -15 -6z"/>
<path d="M10786 9963 c-15 -4 -16 -7 -5 -14 11 -7 11 -9 -3 -9 -10 0 -18 6
-19 13 -1 15 -17 -23 -18 -43 -1 -8 13 -23 30 -33 30 -17 32 -16 60 4 33 23
33 22 17 52 -13 22 -29 38 -38 36 -3 -1 -14 -4 -24 -6z"/>
<path d="M11715 9680 c3 -5 10 -10 16 -10 5 0 9 5 9 10 0 6 -7 10 -16 10 -8 0
-12 -4 -9 -10z"/>
<path d="M11718 9598 c-5 -34 -1 -39 30 -27 29 11 28 31 -2 45 -22 10 -24 9
-28 -18z"/>
<path d="M11689 9554 c-6 -8 -22 -14 -35 -14 -13 0 -41 -7 -63 -16 -30 -12
-44 -13 -60 -5 -30 16 -33 13 -15 -14 15 -23 15 -25 0 -25 -9 0 -16 -7 -16
-16 0 -8 -4 -13 -9 -10 -10 7 -21 -16 -21 -44 0 -21 -19 -30 -61 -30 -27 0
-35 -11 -30 -42 0 -4 -24 -5 -53 -3 -52 4 -54 4 -59 -23 -3 -15 0 -36 7 -47
10 -14 10 -26 3 -43 -8 -18 -6 -27 14 -48 l24 -26 -27 7 c-19 5 -28 3 -28 -5
0 -7 -7 -10 -16 -6 -8 3 -12 2 -9 -4 3 -6 -1 -10 -9 -10 -8 0 -20 9 -26 20 -7
12 -16 17 -27 13 -15 -6 -14 -8 5 -21 12 -8 22 -18 22 -23 0 -15 -28 -10 -34
7 -9 24 -50 14 -54 -15 -3 -22 -1 -23 31 -17 35 7 44 -1 53 -43 5 -28 41 -53
64 -46 13 4 19 12 16 21 -8 20 14 17 30 -3 11 -15 16 -16 33 -6 14 9 21 9 23
1 2 -6 14 5 26 25 15 27 28 37 46 37 14 0 28 5 31 10 4 6 15 8 26 5 14 -5 19
-1 19 12 0 16 2 16 18 -4 14 -19 24 -21 59 -16 31 4 43 11 47 27 5 18 8 19 16
6 5 -8 10 -27 10 -42 0 -42 16 -33 17 9 1 28 -5 41 -23 56 -23 17 -35 45 -15
32 5 -3 12 -1 15 4 8 12 -3 39 -17 44 -7 2 -4 3 6 2 9 -2 17 1 17 5 0 4 8 6
18 3 26 -6 46 21 33 45 -6 11 -7 23 -3 27 4 3 -1 13 -12 20 -16 13 -17 16 -3
36 12 17 13 26 4 46 -7 16 -8 27 -1 31 18 12 23 39 11 52 -9 10 -9 11 0 6 6
-3 14 -2 18 4 3 5 15 10 26 10 31 0 22 25 -16 42 -29 13 -36 13 -46 2z m-2
-56 c-2 -23 -19 -23 -48 2 l-24 19 37 -1 c29 -1 36 -5 35 -20z"/>
<path d="M10735 9383 c10 -20 -6 -63 -24 -63 -9 0 -22 -4 -30 -9 -10 -7 -7
-15 18 -36 17 -16 31 -37 31 -47 0 -13 8 -18 29 -18 23 0 30 6 35 25 4 14 4
30 1 35 -3 5 0 18 7 29 11 17 9 23 -9 41 -12 11 -25 20 -29 20 -4 0 -13 8 -21
18 -8 9 -12 12 -8 5z"/>
<path d="M11725 9330 c3 -5 8 -10 11 -10 2 0 4 5 4 10 0 6 -5 10 -11 10 -5 0
-7 -4 -4 -10z"/>
<path d="M11120 9270 c-1 -8 -1 -25 0 -37 1 -23 -14 -31 -25 -13 -10 17 -24 2
-18 -20 4 -15 0 -20 -15 -20 -18 0 -33 23 -36 57 -2 19 -16 28 -16 10 0 -13
-8 -17 -29 -15 -15 1 -40 -6 -54 -15 -15 -9 -34 -17 -44 -17 -14 0 -18 -8 -18
-32 0 -50 33 -62 89 -33 38 20 46 19 46 -5 0 -11 6 -20 14 -20 8 0 21 -3 30
-6 11 -4 16 -1 16 10 0 9 8 16 19 16 11 0 26 6 33 13 7 7 21 16 30 20 14 5 15
12 8 37 -5 17 -9 32 -10 35 0 3 -5 15 -10 27 -5 15 -9 18 -10 8z m-140 -70
c23 -18 23 -20 5 -20 -11 0 -26 9 -33 20 -15 25 -4 25 28 0z"/>
<path d="M10723 9189 c-5 -5 -44 -11 -86 -14 -42 -2 -81 -6 -87 -10 -5 -3 2
-22 15 -42 31 -45 33 -67 5 -58 -16 5 -20 2 -20 -19 0 -19 5 -26 19 -26 11 0
23 5 26 10 3 6 17 10 31 10 13 0 41 9 61 20 21 11 45 20 55 20 23 0 68 -21 68
-32 0 -5 10 -8 22 -6 30 4 42 66 18 94 -32 37 -110 70 -127 53z"/>
<path d="M11230 9170 c0 -5 5 -10 11 -10 5 0 7 5 4 10 -3 6 -8 10 -11 10 -2 0
-4 -4 -4 -10z"/>
<path d="M9501 9081 c-13 -12 -18 -22 -11 -26 5 -3 10 -3 10 1 0 4 9 -1 20
-11 19 -18 20 -17 20 3 0 27 15 28 33 2 12 -17 17 -18 58 -6 26 8 45 20 47 30
4 18 -13 22 -23 6 -8 -13 -62 -8 -92 8 -29 16 -36 15 -62 -7z"/>
<path d="M10514 9065 c4 -12 0 -25 -14 -38 -12 -10 -19 -25 -16 -33 3 -7 1
-16 -4 -19 -17 -10 -11 -32 10 -38 17 -4 19 -1 14 19 -5 19 -2 24 12 24 16 1
15 3 -6 15 -25 14 -25 14 -2 15 18 0 22 6 22 29 0 17 -5 33 -12 37 -8 5 -9 2
-4 -11z"/>
<path d="M10997 9063 c-4 -3 -7 -15 -7 -25 0 -15 -5 -18 -20 -13 -23 7 -26 -6
-9 -37 8 -16 8 -23 -2 -30 -10 -7 -6 -8 13 -4 30 7 33 -11 5 -38 -30 -31 -15
-79 28 -90 14 -4 25 -11 25 -16 0 -17 22 -11 62 16 21 15 38 35 38 45 0 10 5
30 12 44 8 19 8 31 -1 51 -10 22 -9 30 5 45 9 11 15 19 13 20 -25 5 -51 4 -54
-2 -6 -9 -85 21 -85 33 0 10 -14 11 -23 1z"/>
<path d="M10419 8933 c-3 -53 -4 -58 -11 -69 -4 -6 -1 -19 6 -30 12 -16 12
-20 -3 -30 -13 -10 -14 -15 -3 -25 16 -17 15 -51 -3 -75 -8 -10 -15 -29 -15
-41 0 -16 -5 -20 -20 -16 -17 5 -18 3 -8 -19 l12 -25 32 36 c29 31 32 40 29
79 -3 24 -8 49 -12 55 -4 7 1 6 10 -2 15 -12 17 -11 17 3 0 9 5 16 10 16 13 0
13 37 0 45 -7 4 -7 12 0 25 14 25 13 30 -6 30 -11 0 -14 8 -12 32 2 18 -2 33
-9 35 -8 3 -14 -6 -14 -24z"/>
<path d="M12090 8772 c0 -21 -3 -23 -10 -12 -10 17 -13 15 -26 -25 -5 -16 -16
-31 -24 -31 -8 -1 -19 -3 -25 -4 -5 -1 -14 -2 -19 -1 -4 1 -14 -3 -22 -10 -8
-6 -20 -9 -28 -6 -8 3 -20 -1 -26 -9 -7 -8 -21 -14 -31 -14 -10 0 -25 -13 -34
-30 -9 -16 -19 -30 -24 -30 -5 0 -11 -9 -14 -19 -5 -20 -5 -20 -42 -1 -34 17
-40 18 -66 5 -38 -20 -39 -19 -34 14 l3 29 -29 -16 c-16 -10 -29 -23 -29 -31
0 -9 -8 -11 -27 -7 -15 4 -29 3 -33 -4 -9 -15 -42 -1 -36 16 7 18 -59 84 -84
84 -12 0 -35 7 -52 16 -18 9 -42 14 -59 10 -16 -3 -31 -1 -34 4 -3 6 -11 10
-16 10 -6 0 -7 -5 -4 -10 9 -14 -52 -73 -69 -67 -8 3 -11 16 -8 36 5 39 -12
61 -48 61 -18 0 -36 9 -48 25 l-19 24 -23 -24 c-13 -13 -32 -23 -43 -22 -15 1
-22 -6 -29 -30 -5 -18 -13 -33 -18 -33 -6 0 -10 -7 -10 -15 0 -12 -4 -13 -19
-5 -11 5 -26 8 -34 5 -7 -3 -39 -2 -70 3 -31 5 -57 5 -57 1 0 -11 38 -22 49
-14 13 7 31 -27 31 -58 0 -14 -7 -27 -15 -31 -10 -4 -13 -14 -9 -35 6 -26 3
-31 -19 -36 -18 -5 -24 -12 -20 -22 5 -13 2 -13 -19 1 -23 15 -26 15 -31 1 -4
-8 -12 -15 -20 -15 -19 0 -60 46 -53 59 4 5 -2 15 -13 20 -28 16 -35 13 -20
-5 8 -10 15 -53 17 -116 l4 -99 38 -24 c47 -30 55 -41 36 -52 -12 -7 -10 -14
15 -42 34 -39 34 -39 13 -62 -14 -16 -14 -18 3 -28 11 -5 27 -28 37 -49 12
-26 24 -39 34 -37 10 1 11 0 5 -2 -7 -3 -13 -10 -13 -18 0 -16 -25 -26 -44
-19 -8 3 -17 0 -21 -6 -5 -8 -11 -6 -20 6 -12 17 -14 17 -38 1 -24 -16 -70
-20 -61 -6 2 4 0 10 -6 14 -5 3 -12 -6 -16 -20 -4 -18 -15 -28 -35 -32 -39 -8
-28 -21 14 -17 22 3 39 -1 47 -11 9 -10 9 -15 1 -15 -6 0 -11 5 -11 12 0 9 -3
9 -11 1 -8 -8 0 -26 32 -67 45 -57 65 -68 75 -41 4 10 10 12 18 6 12 -10 46
-15 84 -13 17 2 22 8 22 28 0 19 4 25 15 20 19 -7 35 31 40 90 3 56 8 61 58
70 53 11 94 6 123 -13 21 -13 24 -13 43 6 26 26 46 18 58 -22 7 -25 14 -31 31
-29 20 3 46 -10 148 -75 41 -27 47 -28 78 -7 15 9 26 11 30 5 4 -6 13 -8 21
-5 15 6 49 -48 38 -60 -4 -3 0 -6 8 -6 8 0 19 4 25 10 6 6 24 2 49 -10 22 -10
48 -21 57 -24 20 -6 35 -72 21 -94 -6 -11 -3 -21 13 -37 11 -11 23 -25 25 -31
2 -5 34 -24 72 -42 43 -22 67 -39 67 -50 0 -10 9 -23 21 -30 15 -10 20 -22 18
-50 -2 -46 10 -112 22 -112 5 0 15 -16 23 -35 17 -41 36 -46 36 -10 0 35 14
31 28 -8 16 -43 15 -52 -2 -38 -11 9 -15 7 -19 -8 -2 -11 0 -24 6 -30 8 -8 6
-11 -7 -11 -35 0 -56 -39 -37 -68 12 -19 58 -5 65 21 l7 22 17 -24 c9 -13 27
-34 38 -46 12 -13 20 -26 18 -28 -3 -3 9 -3 25 -1 37 4 81 -30 117 -92 16 -27
33 -44 44 -44 11 0 21 -4 24 -9 3 -5 15 -7 27 -4 15 4 22 0 26 -16 6 -24 23
-29 23 -6 0 8 14 17 34 21 27 4 33 10 28 22 -5 15 -4 15 11 3 11 -9 15 -21 11
-37 -4 -14 -2 -24 5 -24 6 0 8 6 5 14 -3 8 3 16 15 19 24 6 29 37 6 37 -19 0
-39 37 -23 42 8 3 12 26 12 60 0 53 1 56 20 46 16 -9 24 -6 42 16 13 14 21 33
18 41 -4 10 0 15 11 15 28 0 11 25 -20 28 -33 4 -72 37 -56 47 16 10 13 19
-11 34 -28 18 -128 23 -125 7 1 -7 -13 -11 -36 -10 -36 0 -38 -1 -34 -26 8
-38 -22 -72 -67 -76 -30 -3 -36 -1 -27 10 6 7 8 16 4 19 -3 4 -1 7 5 7 16 0
52 59 52 85 0 23 36 59 50 50 5 -3 12 0 15 5 13 20 55 31 77 19 25 -14 32 -6
31 34 -1 27 6 37 38 60 27 20 39 36 39 53 0 17 5 24 20 24 11 0 29 9 40 20 21
21 55 26 65 10 3 -5 15 -10 26 -10 10 0 19 -6 19 -13 0 -8 9 -22 20 -32 11
-10 17 -22 14 -26 -3 -5 0 -9 7 -9 19 0 1 73 -24 95 -31 28 -31 92 1 100 12 3
22 12 22 20 0 8 9 19 20 25 11 6 20 19 20 30 0 10 5 22 10 25 8 5 7 12 -2 22
-7 9 -11 17 -9 17 4 1 -33 75 -54 107 -39 61 -46 79 -30 79 18 0 20 26 3 33
-8 3 -5 6 5 6 11 1 15 6 11 12 -3 6 -1 14 5 18 8 5 5 16 -10 35 -18 23 -19 30
-8 36 10 7 7 11 -12 19 -28 10 -39 29 -39 66 0 12 -7 28 -14 35 -8 6 -20 28
-27 48 -23 72 -91 138 -112 108 -5 -6 -7 3 -4 22 3 28 1 31 -15 26 -11 -3 -20
0 -24 9 -3 9 -16 13 -32 11 -23 -3 -30 3 -42 29 -8 18 -14 39 -15 47 0 9 -10
15 -27 16 -14 1 -38 11 -53 22 -15 12 -34 22 -42 22 -12 0 -12 3 1 16 9 8 14
19 11 24 -3 5 0 10 7 12 24 8 -9 58 -42 65 -17 3 -36 13 -43 22 -7 9 -27 24
-45 33 l-32 17 0 -27z m-760 -216 c0 -3 -4 -8 -10 -11 -5 -3 -10 -1 -10 4 0 6
5 11 10 11 6 0 10 -2 10 -4z m-430 -335 c0 -3 -4 -12 -9 -19 -7 -11 -10 -10
-15 3 -10 26 -7 35 9 29 8 -4 15 -9 15 -13z m740 -412 c0 -6 -4 -7 -10 -4 -5
3 -10 11 -10 16 0 6 5 7 10 4 6 -3 10 -11 10 -16z"/>
<path d="M11690 8654 c0 -22 2 -25 15 -14 12 10 13 16 4 26 -16 20 -19 18 -19
-12z"/>
<path d="M10371 8581 c3 -8 16 -21 29 -30 18 -12 22 -13 19 -2 -3 8 -16 21
-29 30 -18 12 -22 13 -19 2z"/>
<path d="M10455 8530 c-4 -6 -11 -8 -16 -5 -5 4 -9 1 -9 -4 0 -6 2 -11 4 -11
2 0 11 -2 18 -5 9 -4 14 2 15 15 2 22 -2 26 -12 10z"/>
<path d="M10430 8440 c0 -5 7 -10 16 -10 8 0 12 5 9 10 -3 6 -10 10 -16 10 -5
0 -9 -4 -9 -10z"/>
<path d="M10605 8040 c3 -5 8 -10 11 -10 2 0 4 5 4 10 0 6 -5 10 -11 10 -5 0
-7 -4 -4 -10z"/>
<path d="M12412 6871 c-8 -4 -5 -11 8 -19 16 -10 20 -10 20 2 0 19 -13 27 -28
17z"/>
</g>
</svg>
