<?xml version="1.0" standalone="no"?>
<!DOCTYPE svg PUBLIC "-//W3C//DTD SVG 20010904//EN"
 "http://www.w3.org/TR/2001/REC-SVG-20010904/DTD/svg10.dtd">
<svg version="1.0" xmlns="http://www.w3.org/2000/svg"
 width="613.777277pt" height="989.904731pt" viewBox="0 0 613.777277 989.904731"
 preserveAspectRatio="xMidYMid meet">
<metadata>
Created by potrace 1.15, written by Peter Selinger 2001-2017
</metadata>
<g transform="translate(-762.568459,1468.323630) scale(0.100000,-0.100000)"
fill="#222222" stroke="none">
<path d="M7917 14668 c-11 -11 -25 -17 -34 -14 -18 7 -43 -10 -43 -30 0 -8 11
-19 25 -24 14 -5 28 -17 32 -26 4 -11 12 -3 29 31 25 48 30 71 17 78 -5 2 -16
-5 -26 -15z"/>
<path d="M7887 14543 c-4 -3 -7 -15 -7 -26 0 -11 -9 -21 -21 -24 -16 -4 -19
-11 -15 -29 4 -15 2 -24 -5 -24 -8 0 -8 -4 0 -14 9 -10 9 -16 1 -21 -6 -4 -8
-15 -5 -26 5 -14 2 -19 -10 -19 -13 0 -16 6 -11 25 8 31 -4 32 -52 1 -34 -21
-85 -71 -54 -52 17 10 52 -2 52 -19 0 -8 5 -26 12 -42 6 -15 12 -41 14 -58 4
-41 21 -85 34 -85 5 0 10 -9 10 -21 0 -11 -4 -17 -10 -14 -7 4 -9 -2 -4 -19 3
-14 2 -26 -3 -26 -5 0 -14 -13 -20 -30 -12 -32 -27 -36 -78 -22 -42 12 -52 6
-47 -29 3 -22 -1 -36 -18 -51 -17 -16 -21 -28 -16 -50 3 -16 2 -27 -3 -23 -5
3 -7 -4 -4 -15 3 -11 13 -20 22 -20 9 0 22 -9 29 -20 7 -12 17 -18 21 -15 5 3
12 -17 16 -44 4 -28 13 -55 21 -62 8 -6 14 -19 14 -29 0 -10 12 -29 28 -42 28
-25 38 -58 20 -69 -18 -11 -40 1 -28 16 8 9 3 10 -25 1 -32 -10 -33 -12 -18
-28 9 -10 20 -15 24 -12 15 9 47 -6 52 -24 3 -10 5 -6 6 11 3 68 53 -1 55 -76
1 -26 -3 -36 -11 -32 -49 20 -49 20 -34 2 12 -15 11 -17 -3 -17 -19 0 -20 -7
-6 -47 6 -16 25 -40 41 -52 28 -21 29 -24 15 -40 -20 -22 -13 -42 19 -58 21
-9 29 -8 50 9 15 11 27 19 28 17 2 -2 8 -11 15 -20 8 -11 9 -25 1 -53 -9 -33
-8 -40 10 -57 11 -10 24 -19 29 -19 10 0 72 -59 72 -69 0 -11 -15 -27 -25 -26
-5 0 -23 11 -38 25 -30 26 -77 35 -77 13 0 -7 9 -17 21 -23 16 -9 19 -17 14
-40 -7 -32 9 -48 30 -30 19 16 41 7 56 -22 12 -23 12 -23 -10 -4 -21 19 -21
19 -21 -13 0 -24 5 -34 20 -38 11 -3 20 -14 20 -25 0 -14 6 -19 23 -16 12 1
33 -5 46 -14 31 -22 85 -6 76 22 -5 15 -2 17 16 13 14 -4 25 0 31 11 9 16 12
16 33 2 14 -9 34 -16 46 -16 18 0 19 2 9 15 -20 24 -4 18 26 -10 15 -14 23
-25 19 -25 -4 0 -2 -6 4 -14 8 -9 8 -16 2 -20 -6 -4 -8 -13 -4 -22 4 -11 9
-12 19 -3 8 6 15 8 15 3 1 -5 2 -16 3 -24 1 -16 17 -18 55 -5 15 4 21 3 17 -3
-3 -5 4 -12 17 -15 12 -2 30 -8 39 -12 13 -5 15 -2 11 14 -4 16 1 21 31 26
l35 7 -3 49 -3 50 29 -6 c20 -5 30 -2 34 9 5 12 10 14 19 6 9 -8 15 -8 20 0 3
5 19 10 36 10 19 0 29 5 29 15 0 9 11 21 25 27 14 6 25 17 25 24 0 19 55 27
79 12 17 -11 24 -9 46 12 14 13 25 31 25 39 1 15 2 15 13 0 20 -26 72 -36 157
-30 11 0 20 8 20 16 0 19 10 19 39 -1 18 -13 28 -14 47 -5 20 9 24 18 24 51 0
34 6 47 32 71 18 16 41 29 51 29 14 0 17 5 13 17 -4 9 -1 20 5 24 9 5 8 16 -4
42 -10 19 -17 41 -17 49 0 10 -2 10 -9 -1 -5 -8 -20 -15 -34 -15 -20 -1 -26 5
-37 44 -7 25 -22 55 -33 68 l-21 22 22 16 c29 20 30 58 2 49 -14 -4 -18 -2
-15 7 5 13 -44 50 -62 47 -32 -5 -83 42 -110 101 -3 8 -17 25 -30 38 -13 12
-19 22 -12 22 6 0 17 7 23 15 6 8 26 18 44 21 28 6 34 4 39 -15 6 -24 18 -27
27 -6 3 8 20 21 38 28 30 13 35 12 51 -4 21 -22 79 -25 96 -6 12 15 0 29 -46
55 -19 10 -23 10 -23 -2 0 -18 -27 -28 -48 -17 -9 4 -41 7 -70 6 -50 -1 -54 1
-58 24 -4 15 -25 41 -51 61 -40 30 -47 32 -57 18 -10 -14 -19 -13 -91 11 -44
15 -86 31 -94 36 -27 16 -95 24 -110 12 -7 -6 -51 -13 -97 -14 -69 -2 -84 0
-84 13 0 8 -6 14 -12 12 -21 -4 -69 12 -85 27 -8 8 -23 15 -34 15 -17 0 -18 3
-9 20 8 15 7 25 -4 43 -9 12 -17 32 -19 42 -5 34 -15 42 -46 37 -29 -4 -31 -2
-37 37 -4 27 -14 45 -30 56 -13 8 -24 23 -24 32 0 9 -10 27 -22 40 l-22 24 22
6 c27 7 28 19 2 33 -11 6 -20 21 -20 34 0 13 -7 29 -15 36 -8 7 -15 21 -15 30
0 30 -11 49 -25 44 -19 -8 -75 24 -70 39 6 15 -45 47 -100 62 -22 6 -49 14
-61 18 -11 4 -23 4 -27 0z m478 -558 c-3 -14 -7 -36 -10 -48 -3 -18 1 -27 20
-35 14 -7 28 -19 31 -27 4 -8 11 -15 17 -15 14 0 47 -30 47 -43 0 -6 -9 -2
-19 7 -11 10 -24 15 -30 12 -12 -8 -54 31 -46 43 4 7 -18 19 -47 25 -3 0 -10
5 -15 9 -4 5 -24 16 -43 24 -19 8 -30 17 -23 20 7 2 20 0 31 -6 24 -13 62 11
62 40 0 10 7 19 15 19 11 0 14 -7 10 -25z m-275 -246 c0 -10 -4 -19 -9 -19
-12 0 -23 29 -15 41 8 14 24 0 24 -22z m-186 -385 c3 -8 2 -12 -4 -9 -6 3 -10
10 -10 16 0 14 7 11 14 -7z m646 -654 c0 -5 -4 -10 -10 -10 -5 0 -10 5 -10 10
0 6 5 10 10 10 6 0 10 -4 10 -10z"/>
<path d="M7666 14355 c-3 -8 -1 -17 3 -20 5 -3 11 2 15 10 3 8 1 17 -3 20 -5
3 -11 -2 -15 -10z"/>
<path d="M9399 13836 c-2 -2 -29 -6 -59 -8 -50 -4 -60 -8 -60 -23 0 -2 11 0
24 5 29 11 51 -3 65 -42 6 -16 17 -28 25 -28 7 0 19 -6 25 -14 17 -20 80 1 94
31 6 13 14 23 19 23 5 0 6 5 3 10 -3 6 3 10 13 10 11 0 22 8 25 19 3 14 0 17
-14 14 -11 -3 -19 -9 -19 -13 0 -20 -40 -20 -72 0 -31 19 -59 25 -69 16z"/>
<path d="M9365 13720 c-3 -5 -1 -10 4 -10 6 0 11 5 11 10 0 6 -2 10 -4 10 -3
0 -8 -4 -11 -10z"/>
<path d="M7677 13569 c3 -10 11 -15 19 -12 20 7 17 20 -5 26 -14 3 -17 0 -14
-14z"/>
<path d="M7790 13441 c0 -5 5 -13 10 -16 6 -3 10 -2 10 4 0 5 -4 13 -10 16 -5
3 -10 2 -10 -4z"/>
<path d="M7753 13350 c-13 -10 -23 -26 -23 -35 0 -14 -7 -16 -32 -13 -18 3
-42 8 -53 12 -14 5 -11 0 10 -18 30 -26 65 -35 65 -17 0 5 8 12 18 15 14 5 47
64 39 72 -1 1 -12 -6 -24 -16z"/>
<path d="M9740 13085 c-8 -10 -30 -15 -60 -15 -46 0 -49 -2 -55 -30 -5 -23
-12 -30 -30 -30 -17 0 -24 -7 -28 -29 -6 -29 -22 -41 -130 -101 l-37 -21 -23
25 c-28 30 -83 50 -94 33 -4 -6 -7 -36 -6 -65 1 -41 6 -59 23 -77 12 -13 20
-29 18 -37 -3 -7 1 -24 8 -37 10 -19 11 -27 1 -33 -6 -4 -8 -10 -4 -14 4 -4
-9 -18 -28 -31 -38 -25 -42 -41 -23 -93 9 -29 9 -35 -7 -46 -17 -13 -16 -14
13 -20 18 -4 32 -12 32 -18 0 -6 5 -4 10 4 5 8 10 11 11 5 1 -5 3 -14 3 -20 1
-5 7 -20 14 -32 8 -14 9 -24 2 -28 -12 -8 -32 3 -25 14 13 22 -79 71 -118 64
-23 -4 -29 -1 -34 15 -5 20 -6 20 -32 4 -14 -9 -29 -22 -33 -28 -5 -7 -18 -10
-30 -8 -14 3 -9 -1 11 -10 18 -9 52 -16 76 -16 26 0 47 -6 55 -15 15 -18 40
-20 40 -4 0 8 4 8 15 -1 8 -6 19 -9 25 -5 5 3 10 -1 10 -9 0 -9 4 -16 9 -16 5
0 16 -3 25 -6 10 -4 16 -1 16 8 0 11 12 14 46 13 50 -1 84 -28 84 -66 0 -23
-32 -99 -42 -99 -14 0 -73 -64 -74 -80 0 -8 -4 -28 -8 -43 -7 -22 -13 -27 -29
-23 -13 3 -25 -1 -33 -12 -10 -13 -16 -14 -37 -5 -20 10 -28 9 -38 -3 -9 -11
-15 -12 -25 -3 -8 6 -14 17 -14 23 0 18 -59 75 -84 82 -13 3 -26 14 -29 25 -7
24 -37 25 -37 0 0 -10 -15 -33 -33 -52 -30 -30 -37 -33 -86 -30 -49 2 -53 1
-46 -16 19 -46 17 -58 -15 -71 -17 -8 -37 -11 -45 -8 -9 3 -15 0 -15 -9 0 -20
-16 -19 -38 3 -13 13 -26 16 -51 11 -46 -10 -55 -22 -31 -44 11 -10 20 -27 20
-37 0 -21 36 -57 58 -58 6 0 12 5 12 11 0 7 10 9 25 7 14 -3 28 -1 31 3 11 19
25 8 22 -18 -2 -21 2 -28 17 -31 11 -2 31 -14 45 -27 23 -21 73 -34 151 -40
15 -1 39 -11 54 -23 35 -27 75 -28 103 -2 12 11 26 20 32 20 5 0 10 4 10 9 0
5 9 11 20 14 12 3 20 14 20 25 0 12 5 24 10 27 6 3 10 17 10 29 0 13 7 29 15
36 8 7 14 18 13 24 -1 6 1 31 5 56 10 62 33 76 88 53 40 -15 43 -15 55 2 9 12
20 16 38 11 15 -3 26 -2 26 3 0 5 18 7 40 4 26 -4 47 -1 63 10 15 9 29 12 37
7 20 -12 29 -4 23 20 -3 12 1 28 11 38 9 9 23 26 30 36 13 19 15 19 30 3 9 -9
16 -20 16 -24 -1 -4 3 -9 9 -11 6 -2 11 9 11 26 0 26 3 29 32 30 50 1 77 51
42 77 -13 9 -14 16 -5 33 6 11 11 37 11 58 0 34 2 36 27 31 20 -4 32 2 55 27
25 27 35 31 81 32 46 0 53 3 65 27 17 34 7 65 -23 79 -14 6 -21 16 -18 24 3 8
-1 14 -9 14 -24 0 -78 58 -71 76 7 18 -16 66 -28 58 -4 -2 -7 23 -7 56 1 54 3
60 22 60 26 0 37 8 58 42 15 23 15 28 3 38 -17 14 -21 35 -5 25 6 -3 10 3 10
14 0 11 -5 23 -11 26 -6 4 -8 14 -5 22 3 8 0 23 -8 34 -13 19 -15 19 -30 3
-15 -14 -21 -14 -49 -3 -18 7 -34 16 -37 21 -7 9 -82 -12 -92 -27 -4 -6 -21 5
-43 28 -40 42 -39 42 -55 22z"/>
<path d="M8010 12860 c0 -5 5 -10 10 -10 6 0 10 5 10 10 0 6 -4 10 -10 10 -5
0 -10 -4 -10 -10z"/>
<path d="M8630 12680 c-24 -6 -25 -6 -4 -17 22 -13 47 -4 36 13 -4 6 -18 8
-32 4z"/>
<path d="M8630 12630 c0 -5 5 -10 11 -10 5 0 7 5 4 10 -3 6 -8 10 -11 10 -2 0
-4 -4 -4 -10z"/>
<path d="M10243 12544 c-12 -26 -5 -36 35 -48 14 -5 22 -3 22 4 0 6 4 8 10 5
6 -3 7 1 4 9 -3 9 -12 16 -20 16 -7 0 -19 9 -26 19 -13 18 -14 18 -25 -5z"/>
<path d="M8923 12510 c-18 -8 -33 -18 -33 -22 0 -15 61 -8 66 7 10 26 0 30
-33 15z"/>
<path d="M10184 12514 c3 -9 6 -21 6 -27 1 -13 30 22 30 35 0 4 -9 8 -21 8
-15 0 -19 -4 -15 -16z"/>
<path d="M10146 12442 c-3 -6 -2 -13 4 -17 5 -3 10 -11 10 -16 0 -6 -5 -7 -11
-3 -7 4 -7 -1 1 -16 6 -12 9 -27 7 -34 -3 -6 1 -20 9 -31 18 -25 18 -45 -2
-45 -8 0 -12 -5 -9 -11 4 -6 14 -8 22 -5 8 3 23 1 34 -4 13 -8 25 -7 40 0 16
9 24 8 39 -5 14 -13 19 -13 23 -3 4 10 6 10 6 1 1 -18 21 -16 21 1 0 8 5 16
11 18 15 5 19 89 5 107 -8 11 -8 15 2 18 17 6 15 23 -4 23 -18 0 -44 -23 -44
-39 0 -15 -12 -14 -36 4 -12 8 -24 11 -28 8 -8 -9 -57 18 -77 41 -10 13 -18
15 -23 8z"/>
<path d="M9406 12348 c5 -7 9 -17 10 -23 0 -5 2 -16 2 -24 2 -10 5 -11 15 -2
8 6 17 7 22 3 4 -4 4 4 0 18 -7 23 -7 24 11 10 18 -14 18 -14 5 3 -8 10 -19
16 -25 14 -6 -3 -19 0 -30 5 -14 8 -17 7 -10 -4z"/>
<path d="M9310 12261 c0 -5 -11 -11 -23 -15 -28 -7 -30 -38 -4 -63 16 -16 17
-16 17 5 0 12 3 22 8 22 4 0 7 14 8 30 1 17 0 30 -2 30 -2 0 -4 -4 -4 -9z"/>
<path d="M9762 12119 c-10 -15 -10 -25 -3 -32 12 -12 25 12 19 38 -2 13 -6 12
-16 -6z"/>
<path d="M9806 12081 c-4 -7 -5 -15 -2 -18 9 -9 19 4 14 18 -4 11 -6 11 -12 0z"/>
<path d="M8796 11818 c3 -4 -6 -12 -20 -18 -14 -5 -34 -18 -45 -29 -12 -12
-27 -18 -36 -15 -8 4 -15 2 -15 -2 0 -5 -43 -9 -95 -9 -101 1 -100 1 -98 -52
1 -7 -7 -13 -17 -13 -10 0 -20 -6 -23 -12 -3 -10 -8 -10 -21 1 -9 8 -14 16
-11 19 3 3 -2 13 -11 23 -10 11 -15 29 -12 48 3 21 1 28 -9 24 -7 -3 -13 -6
-13 -7 0 0 4 -16 9 -34 9 -29 7 -35 -17 -57 -29 -27 -42 -31 -59 -14 -8 8 -13
7 -18 -1 -4 -7 -1 -16 6 -21 10 -6 11 -11 3 -16 -15 -11 -5 -83 12 -90 8 -3
14 -11 14 -19 0 -8 6 -14 14 -14 19 0 30 17 14 22 -7 3 1 18 21 38 18 19 35
30 39 25 4 -6 15 -10 25 -11 49 -2 58 -6 67 -28 5 -13 14 -27 21 -32 8 -4 10
-3 5 4 -9 15 -1 15 25 1 11 -5 17 -15 13 -21 -5 -7 5 -9 32 -4 38 7 64 28 64
52 0 20 50 27 64 9 13 -18 59 -13 89 10 15 11 17 17 7 35 -10 18 -8 24 7 36
17 13 17 15 2 27 -15 11 -15 17 2 72 24 76 24 72 -10 77 -17 2 -28 1 -25 -4z"/>
<path d="M8203 11766 c0 -15 -9 -36 -18 -46 -19 -21 -7 -28 13 -8 15 15 28 2
14 -15 -8 -10 -6 -16 9 -25 17 -11 19 -9 21 15 2 49 -2 68 -21 86 -18 18 -18
18 -18 -7z"/>
<path d="M8108 11746 c-4 -19 0 -25 19 -29 18 -3 21 -1 14 6 -6 6 -11 19 -11
29 0 27 -17 22 -22 -6z"/>
<path d="M8426 11715 c4 -8 8 -15 10 -15 2 0 4 7 4 15 0 8 -4 15 -10 15 -5 0
-7 -7 -4 -15z"/>
<path d="M8167 11658 c3 -18 10 -34 15 -36 4 -2 8 -11 9 -20 0 -12 2 -13 6 -4
4 10 9 9 20 -5 14 -17 14 -17 10 5 -3 12 0 22 5 22 6 0 -5 16 -25 35 -20 19
-38 35 -41 35 -3 0 -3 -15 1 -32z"/>
<path d="M8240 11580 c0 -6 7 -10 15 -10 8 0 15 2 15 4 0 2 -7 6 -15 10 -8 3
-15 1 -15 -4z"/>
<path d="M8536 11471 c-9 -10 -16 -25 -16 -33 0 -9 -7 -29 -15 -44 -20 -38
-19 -51 5 -64 25 -13 70 -3 70 16 0 12 4 12 20 4 10 -6 17 -16 15 -23 -5 -12
54 -47 80 -47 18 0 34 -28 28 -50 -3 -10 1 -29 8 -41 7 -13 12 -27 11 -31 -1
-5 11 -8 27 -8 18 0 35 -8 44 -20 13 -18 64 -45 80 -41 4 0 16 -3 26 -9 14 -7
23 -4 37 11 28 31 58 40 88 26 14 -7 26 -15 26 -19 0 -5 7 -8 15 -8 19 0 19 4
1 39 -13 25 -13 31 0 50 20 28 10 55 -29 83 -42 29 -95 85 -102 108 -5 17 -72
30 -185 35 -25 1 -57 2 -71 3 -14 1 -40 15 -58 31 -48 43 -85 54 -105 32z"/>
<path d="M8853 11045 c-13 -5 -23 -18 -23 -27 0 -10 -6 -18 -14 -18 -17 0 -72
-61 -81 -89 -3 -11 1 -40 9 -64 8 -24 12 -54 9 -65 -10 -40 5 -70 40 -81 19
-6 34 -17 35 -24 3 -43 13 -77 32 -109 19 -33 24 -36 41 -25 15 9 18 20 14 47
-4 25 -2 31 5 20 16 -25 33 2 21 33 -9 23 -8 27 9 27 10 0 22 5 25 10 4 6 25
22 47 36 34 22 38 27 27 41 -11 13 -10 17 5 29 10 7 24 15 29 17 12 4 -29 77
-43 77 -4 0 -14 14 -21 32 -10 25 -10 33 0 36 9 3 8 8 -4 21 -8 9 -26 31 -38
50 -19 29 -28 34 -62 35 -22 1 -50 -3 -62 -9z"/>
<path d="M9143 10918 c5 -13 1 -18 -12 -18 -14 0 -17 -8 -16 -37 1 -21 -3 -41
-9 -45 -17 -11 7 -42 35 -46 13 -2 44 -10 67 -19 36 -13 45 -14 52 -3 6 10 22
2 63 -34 31 -26 67 -62 81 -80 26 -34 61 -51 72 -35 10 18 62 9 120 -21 67
-34 103 -40 65 -11 -22 17 -22 19 -7 28 10 5 21 26 25 46 8 32 6 36 -13 39
-13 2 -22 11 -24 25 -2 14 -11 23 -25 25 -14 2 -23 11 -25 26 -4 25 -41 50
-51 34 -8 -12 -44 0 -39 13 2 6 -19 20 -45 33 -46 22 -50 22 -62 6 -11 -16
-15 -16 -29 -5 -11 9 -20 10 -28 4 -31 -24 -66 -20 -94 10 -16 16 -29 36 -30
45 -2 8 -8 20 -15 26 -9 8 -10 8 -5 -1 11 -21 -15 -26 -36 -6 -20 16 -21 17
-15 1z"/>
<path d="M8700 10739 c0 -5 5 -7 10 -4 6 3 10 8 10 11 0 2 -4 4 -10 4 -5 0
-10 -5 -10 -11z"/>
<path d="M9660 10522 c0 -6 11 -19 25 -30 14 -11 25 -23 25 -27 0 -4 10 -21
22 -38 l22 -30 -33 6 c-19 4 -38 7 -43 7 -6 0 -6 6 1 14 8 10 9 16 1 21 -6 3
-8 11 -5 16 4 5 2 9 -4 9 -5 0 -15 -13 -22 -30 -8 -16 -20 -31 -28 -32 -10 -2
-7 -11 13 -34 29 -36 32 -51 11 -78 -13 -17 -12 -22 5 -44 11 -13 17 -29 14
-34 -4 -6 -1 -14 7 -18 10 -7 10 -12 1 -23 -10 -12 -8 -17 12 -30 17 -11 23
-23 19 -36 -4 -15 1 -23 20 -30 29 -11 42 -55 35 -117 -3 -27 1 -41 19 -60 13
-15 23 -38 23 -55 0 -17 11 -47 25 -67 14 -20 25 -46 25 -57 0 -11 7 -38 14
-60 11 -30 23 -45 52 -59 53 -26 96 -117 62 -129 -10 -3 -10 -7 0 -19 14 -18
58 -31 117 -34 54 -4 78 -8 93 -18 7 -4 16 -5 19 -2 3 3 12 1 20 -6 22 -18 41
6 25 32 -14 23 -16 33 -3 26 5 -3 11 0 14 7 3 8 -13 35 -35 60 -37 44 -43 75
-13 63 32 -12 22 34 -22 107 -13 20 -19 37 -14 37 13 0 24 36 17 58 -4 13 -16
17 -46 16 -21 0 -45 3 -52 8 -10 6 -10 8 1 8 13 0 12 25 -4 63 -5 13 -2 17 14
17 29 0 47 45 26 66 -8 9 -15 24 -15 34 0 10 -14 42 -32 70 -28 45 -31 59 -30
116 2 66 -9 104 -31 104 -7 1 -22 23 -35 49 -45 96 -95 136 -166 132 -30 -1
-45 4 -65 23 -27 26 -101 46 -101 28z"/>
<path d="M9765 9559 c-4 -6 -24 -9 -44 -8 -21 2 -52 -3 -70 -10 -28 -12 -32
-18 -29 -45 2 -25 -1 -30 -15 -28 -26 4 -20 -15 7 -22 14 -3 38 -18 55 -32 17
-14 41 -25 53 -24 44 4 48 1 42 -28 -4 -19 0 -34 11 -45 10 -11 14 -25 10 -37
-5 -14 -2 -20 10 -20 10 0 13 5 9 13 -6 8 -3 8 9 -1 15 -13 15 -16 1 -29 -11
-12 -18 -13 -27 -4 -6 6 -14 11 -18 11 -9 0 6 -75 30 -144 15 -43 18 -63 10
-77 -5 -11 -8 -23 -5 -28 5 -8 94 17 106 29 29 29 39 31 66 13 l28 -18 -22 30
c-22 29 -22 32 -7 63 9 18 23 32 30 32 9 0 12 6 9 15 -4 9 0 15 9 15 18 0 34
40 19 49 -21 13 -44 77 -44 118 1 31 -4 48 -17 60 -10 8 -16 23 -14 33 4 14
-6 24 -36 38 -28 14 -42 16 -45 8 -3 -7 -12 -3 -23 10 -10 12 -29 26 -41 33
-12 7 -20 16 -17 20 3 5 -2 12 -11 15 -21 8 -22 8 -29 -5z"/>
<path d="M10787 9544 c-3 -4 3 -18 13 -32 24 -29 25 -46 6 -65 -22 -22 -24
-61 -3 -65 11 -2 17 3 17 13 0 9 9 19 20 22 11 3 20 6 20 7 0 0 -7 23 -15 50
-20 64 -39 88 -58 70z"/>
<path d="M10087 9409 c-16 -4 -35 -5 -43 -2 -8 3 -17 -2 -20 -11 -8 -21 3 -66
17 -66 6 0 22 -14 36 -30 28 -34 41 -34 23 0 -9 17 -9 24 -1 30 7 4 13 18 13
31 1 13 5 29 10 36 13 16 -2 21 -35 12z"/>
<path d="M10714 9335 c-4 -10 -14 -13 -30 -9 -15 4 -33 -1 -52 -14 -23 -17
-35 -19 -65 -12 -31 6 -37 5 -37 -8 0 -9 -9 -25 -20 -37 -28 -30 -33 -62 -12
-75 16 -9 16 -9 -1 -10 -10 0 -20 7 -23 15 -4 10 -10 12 -18 6 -6 -5 -32 -11
-56 -13 -41 -3 -45 -6 -48 -30 -4 -33 -11 -34 -62 -8 -21 11 -49 20 -62 20
-44 0 -58 3 -58 15 0 6 -11 21 -25 33 -15 13 -25 17 -25 9 1 -22 56 -74 99
-93 22 -10 41 -24 41 -31 0 -17 10 -16 24 2 17 22 58 8 54 -19 -3 -18 3 -21
36 -24 22 -2 36 1 32 6 -3 5 5 21 19 36 24 26 45 34 45 17 0 -5 11 -4 25 2 14
7 25 20 25 30 0 9 6 17 13 17 22 0 38 39 31 76 l-6 35 73 -4 74 -5 23 35 c12
19 22 39 22 44 0 15 -30 10 -36 -6z"/>
<path d="M10466 9081 c-4 -7 -5 -15 -2 -18 9 -9 19 4 14 18 -4 11 -6 11 -12 0z"/>
<path d="M9821 8924 c0 -11 3 -14 6 -6 3 7 2 16 -1 19 -3 4 -6 -2 -5 -13z"/>
<path d="M9645 8849 c5 -15 -1 -29 -20 -49 -27 -28 -27 -28 -5 -35 12 -4 19
-12 16 -20 -3 -8 0 -27 6 -42 9 -24 7 -39 -7 -76 -10 -26 -24 -47 -31 -47 -12
0 -12 -4 -2 -20 7 -11 19 -18 26 -15 19 7 119 -41 131 -63 6 -12 11 -41 11
-66 0 -36 -3 -44 -15 -40 -20 8 -19 -9 3 -36 25 -31 62 -20 62 19 0 16 7 34
16 42 10 8 14 22 10 40 -3 18 0 29 9 33 8 3 15 14 15 24 0 19 39 62 55 62 5 0
19 9 31 21 19 18 21 25 12 45 -6 13 -15 24 -20 24 -4 0 -8 9 -8 20 0 32 -34
89 -52 90 -10 0 -17 4 -15 9 1 5 -19 21 -45 35 -38 20 -49 22 -57 12 -6 -8 -9
-21 -5 -30 5 -12 2 -15 -12 -9 -13 5 -15 3 -10 -8 5 -8 -6 2 -24 21 -18 19
-36 45 -41 58 -11 29 -43 31 -34 1z"/>
<path d="M9790 8279 c0 -11 5 -29 10 -40 9 -16 7 -19 -10 -19 -21 0 -28 -24
-9 -36 6 -3 9 -20 7 -36 -3 -16 -1 -31 4 -34 13 -9 -1 -24 -23 -24 -11 0 -17
-4 -14 -10 7 -11 5 -11 -40 -14 -30 -1 -80 -41 -70 -56 6 -10 -20 -32 -29 -23
-4 4 -17 8 -30 10 -20 3 -23 0 -18 -22 2 -15 0 -25 -7 -25 -6 0 -11 5 -11 11
0 5 -4 8 -9 4 -5 -3 -12 -1 -16 5 -3 5 -13 10 -22 10 -9 0 -22 8 -29 17 -11
16 -13 16 -19 -10 -5 -19 -2 -33 9 -46 9 -10 16 -29 16 -44 0 -28 -15 -44 -25
-27 -9 15 -25 12 -25 -5 0 -8 9 -19 20 -25 16 -8 20 -8 20 4 0 13 20 26 40 26
10 0 6 -53 -5 -70 -9 -15 42 -12 75 5 27 14 29 14 35 -5 4 -11 11 -20 16 -20
12 0 11 27 -2 52 -10 19 -9 20 10 15 14 -3 21 0 21 8 0 27 23 63 46 74 13 6
24 17 24 26 0 20 68 48 105 42 34 -6 65 12 65 37 0 19 16 21 27 3 4 -8 20 -22
35 -31 25 -17 27 -16 33 4 5 15 -2 30 -24 56 -17 19 -31 46 -31 59 0 31 -40
90 -93 137 -49 43 -57 46 -57 17z m-200 -417 c-27 -4 -32 0 -24 22 6 16 8 16
26 -1 20 -18 20 -18 -2 -21z m-32 -41 c11 -7 11 -9 -1 -14 -9 -3 -18 1 -21 9
-6 16 2 18 22 5z"/>
<path d="M13520 8269 c0 -6 -7 -9 -15 -5 -10 4 -15 -1 -15 -14 0 -24 -1 -24
-47 -5 -46 20 -53 19 -53 -5 0 -16 -4 -18 -24 -10 -21 7 -23 6 -19 -11 3 -11
14 -24 25 -30 10 -5 16 -14 13 -18 -2 -5 5 -19 17 -32 13 -15 19 -18 15 -7 -3
9 1 22 9 28 8 7 14 20 14 29 0 13 10 18 40 19 24 2 40 -2 40 -8 0 -6 5 -8 11
-4 6 3 8 16 5 27 -3 12 2 29 11 39 15 17 15 18 -5 18 -12 0 -22 -5 -22 -11z"/>
<path d="M10127 8209 c8 -10 9 -20 3 -29 -6 -8 -10 -27 -10 -41 0 -33 -60
-102 -82 -94 -18 7 -32 -43 -17 -62 7 -7 6 -14 -1 -18 -6 -4 -8 -15 -5 -25 3
-11 -1 -20 -11 -24 -13 -5 -15 -14 -11 -41 6 -39 -9 -57 -48 -57 -14 0 -25 -5
-25 -11 0 -5 -14 -7 -35 -4 -19 3 -35 2 -35 -2 0 -14 -37 -51 -50 -51 -7 0
-20 -7 -29 -15 -67 -61 -62 -58 -90 -44 -45 23 -47 22 -23 -3 12 -13 22 -29
22 -36 0 -16 37 -35 45 -22 11 18 46 -9 43 -33 -2 -17 2 -22 18 -22 31 0 62
-32 76 -79 15 -51 16 -79 3 -88 -15 -11 15 -35 53 -43 20 -4 32 -3 32 4 0 7 6
8 18 2 9 -5 34 -17 55 -27 21 -11 45 -27 54 -36 9 -10 22 -18 29 -18 21 0 114
-124 114 -153 0 -8 14 -26 31 -41 21 -19 27 -31 21 -39 -24 -29 81 -98 169
-111 9 -1 24 -10 33 -19 19 -18 77 -37 119 -37 15 0 46 -9 69 -21 22 -11 49
-19 59 -16 10 3 25 -4 35 -14 9 -11 22 -18 28 -17 6 1 21 -1 33 -6 15 -4 35 0
63 14 27 14 53 19 78 16 24 -2 43 2 55 12 13 12 20 13 29 4 16 -16 28 -15 28
3 0 8 6 15 14 15 15 0 38 -23 35 -36 -4 -23 16 -55 37 -60 13 -3 28 -12 35
-20 8 -10 22 -12 43 -9 17 4 44 2 59 -4 16 -6 26 -7 23 -2 -10 16 18 61 34 55
29 -11 35 -9 38 14 5 30 22 28 22 -2 0 -17 -10 -31 -30 -43 -20 -12 -28 -23
-24 -33 3 -8 10 -30 14 -48 10 -41 5 -37 60 -55 33 -11 46 -12 49 -4 2 7 11
17 20 23 13 10 14 15 2 38 -8 14 -18 23 -22 20 -4 -2 -10 0 -13 5 -7 10 16 21
44 21 16 0 18 6 15 33 -8 63 -18 92 -38 108 -11 9 -20 29 -21 47 0 18 -7 34
-14 37 -8 3 -10 14 -6 29 3 13 2 26 -3 29 -14 9 -93 -5 -87 -14 3 -5 -2 -9
-10 -9 -8 0 -18 5 -21 10 -12 20 -14 112 -3 130 15 23 -5 52 -30 43 -15 -6
-15 -4 -4 9 9 11 10 18 2 23 -5 3 -10 18 -9 33 1 15 -1 34 -5 43 -4 10 -2 20
4 24 6 4 8 15 5 25 -7 21 23 35 55 25 11 -4 20 -2 20 4 0 6 12 11 28 11 17 0
32 8 40 20 7 12 17 18 22 15 4 -3 21 0 35 7 24 11 26 16 21 46 -4 27 -2 33 9
28 8 -3 15 -1 15 4 0 6 -5 10 -11 10 -7 0 -10 24 -8 68 1 37 -2 75 -6 85 -4
11 -1 34 9 58 9 21 24 57 33 80 13 32 14 45 5 60 -17 27 -16 29 26 29 41 0 56
-7 64 -31 5 -11 15 -15 38 -11 28 4 30 6 15 21 -8 10 -15 22 -15 28 0 6 -10
18 -22 26 -14 10 -19 19 -13 24 12 10 44 62 51 83 3 9 15 20 27 25 27 12 30
51 4 47 -28 -5 -73 28 -88 65 -9 25 -17 32 -28 26 -9 -3 -29 -7 -46 -8 -16 -1
-42 -8 -57 -15 -21 -10 -31 -10 -42 -1 -11 9 -14 8 -12 -5 1 -12 -13 -20 -46
-29 -27 -6 -48 -8 -48 -4 0 4 -15 9 -32 11 -23 2 -36 10 -43 26 -12 27 -41 29
-50 3 -9 -30 -32 -32 -54 -5 -11 13 -22 21 -25 16 -9 -16 -56 -20 -86 -9 -23
9 -32 7 -58 -11 -33 -24 -72 -28 -103 -11 -15 8 -24 7 -35 -2 -12 -10 -17 -8
-28 6 -7 10 -34 26 -59 35 -45 17 -48 17 -87 -2 -25 -12 -47 -17 -58 -13 -9 5
-27 7 -39 6 -13 -1 -32 4 -44 13 -19 13 -24 13 -45 -1 -13 -8 -33 -13 -44 -10
-10 3 -25 -2 -31 -10 -15 -17 -62 -42 -100 -53 -18 -6 -34 -3 -47 6 -13 9 -23
11 -27 4 -9 -15 -45 -12 -51 5 -4 8 -13 15 -20 15 -8 0 -19 11 -24 24 -5 14
-19 30 -32 37 -20 11 -21 10 -11 -2z m147 -227 c3 -5 -1 -9 -9 -9 -8 0 -15 4
-15 9 0 4 4 8 9 8 6 0 12 -4 15 -8z"/>
<path d="M13284 8143 c-16 -30 -26 -38 -50 -39 -35 -1 -66 -13 -77 -31 -11
-18 -77 -17 -104 2 -19 13 -22 13 -27 -2 -6 -14 -8 -14 -24 1 -21 18 -93 23
-75 5 8 -8 6 -16 -9 -31 -19 -19 -20 -19 -64 7 -41 24 -45 25 -35 7 16 -31 14
-44 -8 -37 -13 4 -26 -3 -43 -23 -35 -42 -64 -56 -72 -35 -6 14 -20 11 -21 -5
-3 -32 -19 -52 -42 -52 -14 0 -46 -10 -70 -22 -40 -20 -43 -24 -37 -50 3 -16
1 -35 -6 -43 -7 -9 -8 -15 0 -20 5 -3 10 -11 10 -16 0 -6 -4 -8 -9 -5 -5 3
-11 -3 -14 -14 -4 -16 -11 -18 -38 -14 -66 11 -128 1 -194 -33 -35 -18 -43
-19 -60 -7 -18 11 -25 11 -50 -3 -17 -8 -48 -19 -70 -24 -37 -7 -43 -5 -88 33
-36 30 -54 39 -73 35 -16 -3 -28 1 -31 9 -3 8 -15 14 -28 14 -12 0 -41 14 -63
30 -45 33 -52 35 -52 20 0 -5 5 -9 12 -7 6 1 14 -7 16 -18 2 -11 9 -24 16 -30
7 -5 13 -19 13 -30 2 -23 8 -52 23 -113 7 -29 7 -49 0 -62 -15 -28 -12 -55 10
-83 11 -14 20 -34 20 -45 0 -10 9 -27 20 -37 11 -10 17 -21 14 -26 -3 -5 0
-18 6 -29 6 -12 10 -28 8 -37 -2 -12 -9 -9 -32 13 -19 19 -30 25 -33 17 -3 -7
-11 -13 -18 -13 -7 0 -15 -11 -17 -24 -4 -18 2 -28 22 -39 26 -16 55 -10 42 9
-4 6 -16 14 -27 18 -19 7 -19 8 -3 17 12 7 25 6 40 -3 13 -7 28 -12 33 -13 6
0 10 -7 10 -15 0 -8 -6 -14 -13 -12 -8 1 -11 -2 -7 -8 4 -6 16 -8 27 -4 19 6
20 3 16 -35 -3 -41 -3 -42 34 -52 35 -9 43 -18 39 -42 -1 -5 2 -6 7 -4 4 3 30
-2 57 -12 48 -16 53 -22 57 -68 1 -7 7 -13 15 -13 7 0 13 -4 13 -8 0 -5 19
-18 42 -28 59 -26 98 -62 98 -88 0 -12 11 -33 25 -46 20 -19 24 -30 20 -51 -7
-32 4 -41 53 -42 46 0 58 -9 73 -55 7 -20 21 -43 32 -51 13 -10 17 -21 14 -40
-4 -17 1 -35 12 -50 10 -13 16 -32 14 -41 -4 -13 4 -19 30 -24 19 -4 41 -13
48 -22 8 -10 14 -12 19 -4 4 6 25 14 47 17 32 4 40 9 36 22 -3 14 3 17 33 17
21 0 39 5 41 11 3 7 11 9 19 6 19 -7 18 11 -1 27 -24 20 -17 30 21 30 34 0 35
1 20 21 -13 20 -12 26 24 78 20 31 41 66 44 78 6 19 11 21 27 13 14 -8 19 -7
19 1 0 7 3 9 7 5 9 -9 52 95 46 111 -3 7 0 13 6 13 6 0 17 15 25 33 15 37 60
87 77 87 7 0 6 9 -5 25 -28 42 -14 107 17 76 18 -18 27 -13 27 19 0 17 5 30
10 30 17 0 11 36 -9 54 -12 11 -21 38 -26 74 -4 31 -18 75 -31 98 -28 48 -29
54 -9 54 10 0 15 10 15 34 0 25 5 35 19 39 11 2 24 0 29 -5 6 -6 11 -4 15 5 4
10 -4 17 -25 21 -24 5 -28 9 -19 19 14 18 -22 53 -64 63 -16 4 -35 10 -40 15
-6 4 -22 9 -37 11 -32 5 -55 23 -74 60 -15 29 -7 37 14 16 9 -9 12 -9 12 0 0
10 5 10 20 2 10 -6 23 -9 28 -8 5 2 21 -10 36 -27 17 -19 26 -23 22 -12 -5 15
-2 16 14 7 14 -7 23 -6 34 6 20 20 20 44 0 73 -13 18 -18 20 -25 10 -7 -11 -9
-10 -9 3 0 12 -7 16 -27 14 -16 -2 -40 0 -54 4 -14 4 -33 4 -41 -1 -10 -6 -21
-3 -32 10 -15 17 -15 19 -1 25 10 3 13 11 9 18 -5 9 -2 8 10 -1 24 -20 66 -24
59 -5 -3 8 0 14 6 14 7 0 11 6 10 13 -4 34 1 49 14 39 10 -8 20 -2 41 24 21
27 34 34 49 30 27 -7 87 32 87 56 0 24 33 39 69 32 23 -5 37 -2 51 11 22 20
27 60 9 71 -6 3 -9 15 -6 25 4 14 0 19 -17 19 -16 0 -28 -11 -42 -37z m-1285
-863 c-6 -4 -8 -13 -5 -19 4 -6 3 -11 -3 -11 -9 0 -31 61 -31 85 1 6 12 -3 26
-19 18 -21 22 -31 13 -36z"/>
<path d="M11784 8085 c8 -8 18 -15 22 -15 3 0 1 7 -6 15 -7 8 -17 15 -22 15
-5 0 -3 -7 6 -15z"/>
<path d="M9410 8059 c0 -5 5 -7 10 -4 6 3 10 8 10 11 0 2 -4 4 -10 4 -5 0 -10
-5 -10 -11z"/>
<path d="M9540 8036 c0 -2 7 -9 15 -16 12 -10 15 -10 15 4 0 9 -7 16 -15 16
-8 0 -15 -2 -15 -4z"/>
<path d="M9384 8008 c-10 -15 1 -19 26 -10 l24 9 -22 5 c-12 4 -25 2 -28 -4z"/>
<path d="M9390 7845 c0 -9 6 -12 15 -9 8 4 15 10 15 15 0 5 -7 9 -15 9 -8 0
-15 -7 -15 -15z"/>
<path d="M13040 7823 c0 -8 5 -13 12 -11 18 6 21 25 3 25 -8 0 -15 -7 -15 -14z"/>
<path d="M9610 7751 c0 -6 5 -13 10 -16 6 -3 10 1 10 9 0 9 -4 16 -10 16 -5 0
-10 -4 -10 -9z"/>
<path d="M12530 6459 c0 -5 5 -7 10 -4 6 3 10 8 10 11 0 2 -4 4 -10 4 -5 0
-10 -5 -10 -11z"/>
<path d="M12471 6389 c-12 -17 -20 -37 -17 -45 3 -8 0 -14 -6 -14 -6 0 -8 -11
-5 -29 5 -21 2 -31 -9 -35 -12 -5 -14 -13 -9 -33 5 -22 4 -25 -8 -15 -11 9
-16 7 -25 -13 -15 -32 -57 -59 -82 -52 -17 4 -20 2 -15 -14 4 -12 2 -19 -7
-19 -17 0 -43 -30 -43 -49 0 -10 -11 -15 -35 -15 -27 -1 -37 -7 -48 -28 -7
-15 -21 -30 -32 -33 -11 -4 -18 -11 -15 -16 4 -5 0 -9 -8 -9 -29 0 -28 -31 3
-60 16 -15 30 -34 30 -41 0 -7 8 -22 19 -33 16 -19 28 -55 46 -138 3 -16 12
-28 20 -28 17 0 26 -14 30 -46 2 -18 -3 -24 -16 -24 -21 0 -27 -34 -8 -46 8
-4 8 -9 1 -13 -7 -4 -5 -18 6 -40 15 -31 15 -36 -2 -64 -12 -21 -14 -33 -6
-41 13 -13 13 -59 0 -51 -5 3 -10 2 -10 -4 0 -6 -15 -1 -34 10 -22 13 -37 16
-41 9 -4 -6 -12 -7 -23 -1 -22 12 -62 -7 -62 -31 0 -10 -4 -18 -10 -18 -5 0
-10 -7 -10 -15 0 -8 -9 -15 -20 -15 -15 0 -20 -7 -20 -25 0 -17 -7 -28 -22
-34 -15 -5 -18 -10 -9 -15 7 -5 15 -5 18 -2 3 3 18 -1 33 -9 25 -13 28 -13 38
9 7 16 22 26 46 30 19 4 42 16 50 28 l15 20 33 -20 c26 -16 44 -20 74 -15 21
3 42 12 47 19 5 10 17 6 47 -13 22 -15 40 -33 40 -40 0 -8 6 -13 13 -11 18 3
59 -12 79 -29 14 -13 34 -20 62 -22 4 -1 6 -7 3 -15 -3 -7 0 -19 6 -25 9 -9 8
-14 -3 -21 -12 -8 -12 -10 3 -16 9 -3 30 -4 47 -2 16 2 27 1 24 -4 -3 -4 0 -8
5 -8 6 0 11 -5 11 -11 0 -16 68 -79 85 -79 8 0 18 7 23 16 7 13 13 14 31 4 13
-7 20 -17 17 -26 -8 -21 37 -46 68 -38 14 3 26 9 26 13 0 3 4 12 9 20 7 11 16
8 46 -15 21 -16 43 -40 49 -54 15 -34 84 -95 117 -103 23 -6 27 -3 33 23 3 17
1 41 -4 55 -8 20 -6 24 8 23 45 -3 73 3 79 20 4 9 13 21 20 25 7 5 11 12 9 16
-3 4 12 24 33 45 33 32 39 35 51 21 7 -8 17 -15 23 -15 6 0 2 6 -8 14 -11 8
-20 25 -20 37 0 30 -32 38 -50 13 -12 -17 -14 -17 -39 -1 -32 21 -61 74 -57
106 3 25 -14 65 -37 90 -8 8 -11 22 -9 33 4 13 -2 20 -21 25 -23 5 -24 7 -8
19 10 7 15 18 11 25 -5 6 -8 21 -9 32 -1 11 -8 23 -16 27 -8 4 -30 15 -48 24
-17 10 -42 19 -54 21 -13 3 -30 13 -38 23 -22 26 -80 66 -117 81 -18 8 -33 18
-33 23 0 6 -8 7 -17 4 -17 -6 -17 -5 0 8 15 12 15 15 2 26 -12 10 -18 10 -31
-1 -13 -11 -17 -10 -25 4 -6 9 -15 17 -21 17 -16 0 -37 32 -38 57 0 19 -3 21
-24 14 -17 -7 -27 -5 -38 6 -13 12 -20 13 -38 3 -18 -10 -24 -9 -31 1 -5 8 -9
9 -9 3 0 -14 -58 -39 -68 -30 -4 4 1 12 10 17 20 11 50 68 42 80 -3 5 -1 9 4
9 11 0 20 30 15 48 -3 6 -9 12 -13 12 -5 0 -26 11 -46 25 -34 23 -35 25 -12
25 30 0 48 31 46 78 0 17 6 40 14 50 23 25 51 131 44 165 -4 21 -1 33 10 41
13 10 13 14 -5 35 -12 13 -21 30 -21 38 0 23 -52 93 -69 93 -10 0 -27 -14 -40
-31z m-391 -1134 c0 -8 -4 -15 -10 -15 -5 0 -10 7 -10 15 0 8 5 15 10 15 6 0
10 -7 10 -15z"/>
<path d="M13531 5116 c-8 -9 -19 -16 -25 -16 -7 0 -11 -18 -10 -51 2 -45 6
-55 34 -77 17 -13 29 -30 26 -37 -5 -15 12 -35 31 -35 7 0 13 8 13 17 0 9 3
13 7 10 3 -4 12 -2 19 4 8 6 21 9 29 5 11 -4 15 2 16 22 1 15 0 32 -1 37 -2 6
-4 18 -5 28 -1 10 -11 24 -22 30 -11 7 -31 18 -43 25 -12 8 -19 9 -16 3 4 -6
1 -11 -8 -11 -26 0 -46 12 -46 28 0 13 3 12 20 -3 22 -20 27 -8 7 19 -12 16
-14 16 -26 2z"/>
<path d="M13726 5089 c-9 -45 -8 -47 15 -60 15 -8 19 -8 15 0 -4 6 -3 11 2 11
12 0 2 57 -13 70 -9 8 -14 3 -19 -21z"/>
<path d="M13400 4983 c0 -9 8 -13 22 -11 31 4 34 26 3 26 -15 0 -25 -6 -25
-15z"/>
</g>
</svg>
