<?xml version="1.0" standalone="no"?>
<!DOCTYPE svg PUBLIC "-//W3C//DTD SVG 20010904//EN"
 "http://www.w3.org/TR/2001/REC-SVG-20010904/DTD/svg10.dtd">
<svg version="1.0" xmlns="http://www.w3.org/2000/svg"
 width="764.989870pt" height="392.686892pt" viewBox="0 0 764.989870 392.686892"
 preserveAspectRatio="xMidYMid meet">
<metadata>
Created by potrace 1.15, written by Peter Selinger 2001-2017
</metadata>
<g transform="translate(-624.375753,1217.000000) scale(0.100000,-0.100000)"
fill="#222222" stroke="none">
<path d="M9960 12160 c0 -5 5 -10 11 -10 5 0 7 5 4 10 -3 6 -8 10 -11 10 -2 0
-4 -4 -4 -10z"/>
<path d="M9980 12097 c8 -7 21 -24 27 -39 12 -27 33 -38 33 -18 0 6 6 10 13
10 24 0 14 25 -10 26 -13 1 -32 9 -42 18 -10 9 -22 16 -27 16 -5 0 -2 -6 6
-13z"/>
<path d="M9965 12050 c4 -6 11 -8 16 -5 14 9 11 15 -7 15 -8 0 -12 -5 -9 -10z"/>
<path d="M9945 12031 c-7 -12 12 -24 25 -16 11 7 4 25 -10 25 -5 0 -11 -4 -15
-9z"/>
<path d="M9945 11991 c-3 -5 -1 -12 5 -16 5 -3 10 1 10 9 0 18 -6 21 -15 7z"/>
<path d="M10027 11989 c7 -7 15 -10 18 -7 3 3 -2 9 -12 12 -14 6 -15 5 -6 -5z"/>
<path d="M9840 11975 c-7 -8 -19 -15 -26 -15 -8 0 -14 -3 -14 -7 1 -14 27 -43
39 -43 6 0 11 -6 11 -12 0 -10 3 -9 9 1 11 18 51 -3 51 -27 0 -14 2 -14 9 -3
8 12 12 12 24 3 18 -15 28 -73 16 -88 -12 -15 -1 -44 17 -44 8 0 14 7 14 15 0
17 12 19 26 5 7 -7 17 -5 30 6 10 8 13 12 5 8 -9 -4 -12 -2 -9 7 3 8 14 15 26
17 17 3 20 8 16 31 -4 20 -1 30 9 34 10 4 13 13 10 27 -3 13 0 25 7 30 15 9
-4 50 -24 50 -21 0 -40 -27 -24 -34 7 -3 3 -4 -9 -2 -13 2 -23 -1 -23 -7 -1
-7 -10 -1 -20 12 l-20 23 2 -23 c2 -15 -2 -23 -10 -21 -7 1 -20 3 -30 5 -9 1
-22 6 -29 10 -6 4 -14 3 -18 -3 -3 -5 -15 -10 -27 -10 -17 0 -18 3 -8 15 9 11
9 18 -3 35 -12 18 -16 19 -27 5z"/>
<path d="M11040 11855 c6 -16 5 -25 -3 -29 -9 -3 -9 -5 1 -5 6 -1 12 -6 12
-12 0 -6 7 -17 15 -25 17 -18 20 -74 4 -74 -8 0 -8 -4 0 -14 11 -13 78 -15 98
-3 17 11 22 68 6 74 -7 3 -13 11 -13 19 0 7 -6 11 -14 8 -22 -8 -69 26 -56 41
7 8 0 16 -25 28 l-34 16 9 -24z"/>
<path d="M10944 11846 c-4 -11 0 -24 10 -34 16 -16 17 -15 10 13 -9 38 -12 42
-20 21z"/>
<path d="M10975 11830 c3 -5 8 -10 11 -10 2 0 4 5 4 10 0 6 -5 10 -11 10 -5 0
-7 -4 -4 -10z"/>
<path d="M10103 11795 c4 -9 7 -28 7 -41 0 -15 6 -24 15 -24 22 0 18 -31 -10
-64 l-23 -29 24 -19 c13 -11 34 -19 46 -18 50 4 60 1 55 -20 -3 -10 1 -24 9
-31 8 -6 14 -17 14 -24 0 -7 11 -15 25 -17 14 -3 25 -3 25 -1 0 14 -37 49 -48
45 -14 -4 -17 15 -3 20 14 5 -14 103 -39 138 -12 17 -28 30 -36 30 -8 0 -14 8
-14 19 0 10 -12 27 -27 36 -24 16 -26 16 -20 0z"/>
<path d="M11401 11691 c-8 -5 -43 -15 -78 -22 -35 -7 -63 -16 -63 -20 0 -4
-23 0 -51 8 -43 13 -53 13 -60 2 -13 -20 -11 -29 5 -23 13 5 33 -29 28 -48 -1
-5 3 -7 10 -5 7 1 16 -16 21 -40 6 -24 15 -43 21 -43 19 -1 56 -38 51 -52 -3
-7 10 -22 29 -35 28 -18 35 -30 41 -70 3 -26 15 -67 25 -90 10 -24 15 -45 10
-48 -5 -3 -11 -1 -15 4 -3 6 -14 2 -25 -9 -11 -11 -27 -20 -35 -20 -8 0 -15
-7 -15 -15 0 -9 -8 -18 -17 -22 -10 -3 -25 -12 -34 -20 -14 -11 -24 -9 -72 17
-63 33 -87 38 -87 15 0 -23 -19 -18 -52 15 -16 17 -34 30 -39 30 -5 0 -9 4 -9
9 0 5 -9 7 -20 4 -12 -3 -20 0 -20 6 0 7 -5 9 -11 5 -6 -3 -15 -1 -19 5 -4 7
-13 14 -21 15 -31 6 -50 19 -45 31 7 19 -5 27 -21 13 -11 -9 -18 -8 -31 5 -13
14 -13 17 -2 17 9 0 6 6 -8 16 -12 8 -22 21 -22 28 0 18 -35 48 -44 39 -4 -5
-7 -3 -6 2 5 21 0 36 -10 30 -6 -4 -15 7 -21 25 -9 24 -14 28 -25 19 -11 -9
-15 -8 -20 5 -8 22 -31 20 -44 -4 -13 -24 -56 -26 -84 -5 -26 20 -44 19 -96
-6 -36 -17 -50 -19 -76 -11 -26 8 -36 7 -44 -4 -12 -14 -11 -16 43 -76 15 -17
27 -39 27 -48 0 -24 33 -87 38 -72 6 20 47 14 68 -10 10 -12 13 -18 5 -13 -8
4 -17 2 -22 -6 -7 -12 -11 -12 -18 -1 -6 10 -11 6 -19 -15 -15 -39 -12 -62 10
-69 21 -6 41 3 33 17 -4 5 1 9 9 9 9 0 16 -6 16 -12 0 -7 5 -5 11 5 6 11 9 29
7 42 -4 17 -1 21 12 18 17 -4 25 -43 9 -43 -5 0 -9 -9 -9 -20 0 -24 51 -53 57
-33 4 10 9 10 26 0 12 -7 23 -13 25 -13 2 -1 0 -18 -3 -37 -6 -29 -13 -36 -46
-47 -39 -13 -41 -13 -63 13 -13 15 -26 24 -30 20 -3 -3 -6 1 -6 10 0 8 4 17 9
19 5 2 4 11 -3 21 -18 24 -49 12 -41 -17 6 -20 6 -20 -9 -2 -14 17 -16 17 -22
3 -3 -10 -11 -17 -16 -17 -6 0 -7 8 -4 17 4 10 4 14 1 11 -10 -10 -94 38 -116
67 -17 21 -18 25 -5 25 10 0 16 9 16 25 0 15 6 25 15 25 12 0 13 5 4 27 -6 16
-6 30 -1 35 13 13 3 48 -14 48 -8 0 -14 5 -14 10 0 6 -16 25 -35 42 -25 23
-31 35 -24 44 13 16 -134 17 -201 2 l-45 -11 2 -49 c2 -33 0 -47 -7 -43 -6 4
-22 0 -35 -9 -13 -9 -38 -16 -55 -16 -16 0 -30 -4 -30 -10 0 -30 -103 -61
-207 -63 -44 0 -55 4 -77 29 -23 25 -27 27 -36 13 -7 -13 -18 -15 -48 -9 -21
4 -45 11 -52 15 -8 5 -24 10 -35 11 -12 1 -38 14 -59 28 -20 14 -44 22 -52 19
-11 -4 -15 0 -12 13 2 14 -2 18 -17 17 -34 -4 -65 7 -65 23 0 17 -106 68 -126
60 -7 -3 -18 2 -24 10 -7 8 -9 14 -4 14 5 0 -20 17 -55 37 -58 33 -68 35 -102
26 -30 -8 -44 -6 -73 9 -20 10 -36 22 -36 27 0 4 -23 11 -51 14 -28 4 -57 12
-65 18 -17 14 -19 -2 -3 -18 17 -17 2 -46 -20 -40 -28 7 -34 -30 -10 -64 10
-15 19 -38 19 -52 0 -25 -22 -52 -33 -40 -4 3 -7 -1 -7 -10 0 -10 -8 -17 -20
-17 -19 0 -25 -15 -21 -48 2 -16 -47 -6 -71 15 -15 13 -16 11 -11 -29 3 -24 9
-47 14 -53 15 -15 10 -25 -12 -25 -12 0 -37 -14 -56 -31 -24 -21 -42 -29 -56
-25 -12 3 -25 -1 -32 -11 -11 -14 -16 -14 -43 -2 -18 8 -32 17 -32 21 0 5 -7
8 -15 8 -8 0 -15 -5 -15 -10 0 -6 -15 -8 -40 -4 -33 5 -40 4 -40 -10 0 -11 -9
-16 -32 -16 -54 0 -61 -12 -30 -45 26 -27 27 -31 13 -47 -9 -10 -21 -18 -28
-18 -8 0 -12 -16 -11 -46 0 -32 -6 -54 -22 -76 l-22 -30 25 4 c17 2 35 -6 53
-22 19 -18 28 -21 31 -12 3 7 14 22 26 33 l21 19 -21 0 c-17 0 -21 8 -27 46
-12 88 -10 94 25 87 29 -6 31 -4 24 17 -7 22 -6 22 15 7 22 -15 64 -12 54 4
-9 15 23 10 35 -5 6 -7 9 -21 5 -30 -3 -9 -1 -23 6 -31 10 -12 9 -15 -8 -15
-14 0 -21 -9 -25 -29 -4 -18 -14 -32 -27 -36 -14 -4 -20 -15 -20 -36 0 -21 -5
-29 -17 -29 -13 0 -14 -3 -5 -12 18 -18 15 -36 -7 -43 -23 -7 -68 -45 -54 -45
12 0 5 -49 -9 -67 -6 -7 -14 -10 -20 -7 -5 3 -20 -1 -33 -10 -13 -9 -31 -16
-40 -16 -25 0 -17 30 10 40 14 5 25 16 24 22 -3 28 2 36 21 31 14 -4 20 0 20
11 0 9 7 16 15 16 36 0 6 61 -33 67 -9 1 -22 9 -28 18 -7 9 -18 15 -26 14 -33
-4 -48 2 -48 21 0 10 -10 29 -22 40 -19 18 -20 22 -8 30 12 7 12 12 2 22 -9 9
-12 9 -12 0 0 -18 -31 -15 -53 6 -19 16 -20 16 -14 -9 5 -21 3 -28 -13 -32
-13 -3 -18 -10 -14 -21 7 -18 -20 -23 -31 -6 -10 17 -27 11 -23 -7 2 -10 -5
-23 -17 -29 -17 -9 -20 -18 -17 -68 3 -48 9 -66 35 -98 32 -40 32 -40 98 -26
9 2 14 -6 14 -24 -1 -16 3 -28 7 -28 4 0 8 5 8 10 0 6 11 8 25 4 19 -5 25 -2
25 10 0 16 12 21 23 9 4 -3 -3 -13 -15 -21 -19 -14 -20 -16 -4 -28 16 -12 16
-14 1 -38 -17 -26 -45 -26 -45 1 0 23 -26 44 -46 36 -13 -5 -16 -3 -11 10 3 9
2 19 -3 22 -6 4 -10 -2 -10 -12 0 -15 -2 -14 -16 5 -8 12 -23 22 -33 22 -11 0
-21 6 -24 14 -3 7 -20 16 -37 18 -27 4 -31 2 -27 -14 4 -12 0 -18 -13 -18 -10
0 -20 -10 -24 -22 -5 -21 -66 -58 -94 -58 -7 0 -12 -5 -12 -11 0 -6 -9 -8 -20
-4 -11 3 -20 2 -20 -3 0 -9 -35 -8 -81 4 -41 9 -80 -20 -73 -55 5 -23 2 -29
-17 -34 -13 -4 -26 -2 -30 4 -3 5 -10 9 -15 8 -35 -6 -53 2 -50 24 1 13 5 28
9 34 4 6 0 10 -11 9 -10 0 -16 6 -16 17 2 22 -1 22 -37 -5 -18 -14 -33 -37
-40 -62 -11 -44 -32 -66 -60 -66 -20 0 -37 56 -21 72 7 7 7 20 0 40 -6 16 -8
47 -5 69 4 33 2 39 -13 39 -11 0 -22 5 -26 11 -3 6 -15 8 -25 6 -28 -8 -144
100 -128 119 8 10 -1 12 -49 11 -45 -1 -58 -5 -51 -14 7 -7 6 -14 -1 -18 -8
-5 3 -22 30 -50 28 -28 41 -49 37 -59 -5 -12 0 -16 18 -16 13 0 31 -10 39 -22
9 -12 16 -16 16 -9 0 9 6 11 18 6 9 -4 25 -7 35 -7 12 1 17 -4 13 -13 -9 -26
13 -73 33 -68 9 2 24 -3 31 -12 12 -15 12 -19 -4 -30 -10 -8 -15 -18 -12 -24
4 -6 2 -20 -5 -32 -8 -17 -8 -24 3 -35 16 -16 58 -8 58 12 0 16 18 18 38 5 11
-7 11 -9 -2 -14 -33 -13 -4 -142 36 -163 14 -7 29 -25 32 -40 6 -21 11 -25 31
-20 18 5 28 0 39 -16 9 -12 16 -26 16 -29 0 -4 -28 -9 -62 -12 -35 -2 -80 -7
-100 -10 -44 -6 -69 13 -48 38 10 12 9 22 -5 51 -15 33 -15 37 -1 53 15 16 14
22 -8 73 -24 54 -49 77 -61 58 -4 -6 -14 -10 -24 -10 -14 0 -17 -6 -13 -26 4
-24 3 -26 -19 -19 -13 4 -25 12 -27 16 -8 20 -24 7 -20 -16 5 -23 -6 -36 -14
-17 -1 5 -18 5 -35 0 -29 -8 -33 -12 -33 -44 0 -30 -4 -37 -29 -45 -23 -8 -27
-15 -23 -34 7 -38 -23 -43 -80 -13 -48 26 -48 26 -48 4 0 -11 -20 -43 -45 -70
-25 -27 -48 -60 -51 -73 -4 -16 -16 -26 -35 -30 -25 -5 -29 -12 -40 -62 -7
-31 -16 -61 -21 -67 -9 -12 -76 -26 -120 -25 -19 0 -29 -6 -33 -20 -6 -16 -13
-20 -36 -17 -26 4 -28 2 -23 -16 4 -12 14 -26 22 -32 10 -7 13 -19 8 -37 -3
-15 -2 -27 3 -27 5 0 12 -13 16 -30 4 -16 14 -34 23 -39 19 -11 21 -83 2 -89
-13 -5 16 -42 33 -42 22 0 34 33 26 69 -13 55 -11 74 6 67 17 -6 20 5 5 20 -7
7 0 17 20 32 25 19 33 21 46 10 39 -33 62 -62 57 -74 -3 -9 6 -13 29 -12 78 0
103 -7 106 -30 2 -13 8 -19 14 -16 6 4 17 -1 24 -11 10 -13 17 -15 27 -7 8 7
18 7 27 2 8 -6 25 -10 37 -10 12 0 30 -11 41 -25 11 -14 27 -25 35 -25 26 0
67 -22 67 -36 0 -10 14 -20 40 -29 3 -1 13 -5 23 -9 9 -5 24 -6 32 -3 8 4 17
2 21 -4 3 -5 14 -7 24 -4 14 4 24 -4 41 -34 19 -34 26 -39 48 -35 22 4 30 -2
56 -42 19 -32 25 -49 17 -52 -18 -6 -15 -26 8 -55 16 -21 17 -27 6 -36 -16
-13 -10 -100 8 -116 18 -16 19 -45 1 -45 -26 0 -85 28 -85 40 0 6 -12 3 -27
-8 -16 -10 -40 -22 -55 -26 -23 -5 -30 -2 -43 24 -9 16 -23 30 -33 30 -10 0
-23 5 -29 11 -7 7 -20 8 -34 3 -13 -4 -33 -9 -44 -10 -11 -1 -31 -5 -45 -9
-20 -5 -33 1 -65 31 -27 26 -48 37 -64 35 -16 -2 -22 1 -19 11 4 8 -2 13 -16
13 -11 1 -39 4 -61 8 -33 6 -37 5 -25 -5 8 -7 21 -21 29 -31 12 -16 12 -17 -5
-12 -10 4 -7 -1 9 -10 28 -16 34 -30 17 -40 -14 -9 -6 -71 9 -68 6 2 11 -4 11
-12 0 -8 16 -33 36 -55 20 -22 31 -40 24 -40 -10 0 -10 -3 0 -15 14 -17 5 -49
-11 -39 -7 4 -4 -7 6 -24 10 -17 23 -28 27 -26 32 20 121 -62 121 -112 0 -22
3 -24 51 -24 31 0 61 6 74 16 13 9 29 13 37 10 18 -6 75 15 74 29 -1 5 6 29
16 52 15 36 19 40 32 27 8 -8 19 -14 24 -14 13 0 69 58 69 71 0 5 16 17 35 26
28 13 35 23 35 45 0 16 5 28 13 28 17 0 59 -48 52 -59 -2 -5 2 -14 10 -21 18
-15 20 -50 3 -50 -7 0 -23 -16 -35 -35 -15 -23 -28 -32 -38 -29 -8 4 -15 2
-15 -4 0 -17 40 -45 118 -81 23 -11 42 -27 42 -35 0 -9 14 -15 40 -18 28 -2
40 0 40 9 0 21 31 15 37 -7 l6 -21 14 21 c8 11 11 25 7 32 -5 8 -2 9 10 5 14
-5 16 -3 11 12 -5 15 -1 18 20 13 15 -2 33 2 43 11 9 8 29 19 45 22 15 4 27
14 27 22 0 25 41 53 77 53 19 0 55 5 80 12 38 9 48 9 57 -3 17 -21 62 -39 73
-28 5 5 21 10 36 11 15 1 27 6 27 11 0 4 9 17 20 29 11 12 20 28 20 36 0 9 7
13 20 9 10 -3 24 1 31 9 6 8 15 11 20 8 5 -3 6 3 2 12 -5 14 -1 16 23 11 16
-3 39 -8 52 -12 17 -6 22 -3 22 9 0 10 4 15 10 11 9 -5 50 28 50 41 0 4 12 18
26 31 24 22 25 25 10 42 -19 21 -22 81 -3 81 7 0 29 -16 48 -37 19 -20 27 -33
17 -30 -13 5 -15 2 -11 -11 3 -9 10 -22 15 -29 6 -8 3 -16 -10 -24 -17 -11
-18 -16 -9 -37 8 -18 8 -29 -2 -44 -15 -25 -2 -38 40 -38 15 0 29 -7 33 -15 3
-8 1 -15 -4 -15 -26 0 0 -32 84 -104 32 -26 56 -25 56 5 0 12 9 21 25 25 18 4
25 13 25 30 0 17 6 24 19 24 12 0 21 9 25 25 4 14 22 34 46 47 22 13 39 28 38
33 -1 6 1 22 5 38 6 21 13 27 35 27 15 0 33 -5 40 -12 24 -24 35 3 41 96 1 5
21 6 46 3 41 -6 47 -4 57 18 8 19 7 27 -6 40 -9 9 -16 22 -16 28 0 21 -16 37
-38 42 -47 9 -82 38 -82 68 0 20 6 30 20 34 23 6 23 4 10 38 -15 38 9 28 37
-16 12 -19 31 -43 42 -55 12 -12 21 -29 21 -38 0 -20 74 -112 97 -120 21 -9
63 4 63 19 0 7 11 15 25 17 14 3 25 1 25 -3 0 -5 4 -9 9 -9 5 0 7 8 4 19 -6
24 13 36 32 21 12 -10 15 -7 21 16 4 15 2 35 -4 44 -9 15 -7 19 8 23 10 3 28
20 39 38 11 19 25 39 30 46 6 7 11 24 11 38 0 14 7 28 15 31 10 4 12 15 8 35
-4 22 -2 29 10 29 23 0 26 23 5 40 -19 15 -19 16 5 42 17 19 31 25 46 21 12
-3 21 -9 21 -14 0 -5 5 -9 11 -9 7 0 18 -8 26 -17 13 -17 14 -16 8 4 -5 20 -4
21 32 12 52 -12 50 -13 70 21 9 17 25 30 35 30 10 0 18 7 18 15 0 10 10 15 27
15 14 0 34 7 44 16 14 12 22 13 38 4 18 -9 27 -7 55 15 18 14 43 25 54 25 14
0 22 6 22 16 0 12 6 15 25 10 21 -5 25 -3 25 18 0 17 7 26 25 30 20 5 25 12
25 40 0 47 -35 120 -64 136 -14 7 -29 23 -32 34 -8 25 -33 45 -56 46 -20 0
-25 26 -7 32 9 3 8 14 -1 40 -7 20 -19 34 -25 32 -14 -6 -35 38 -35 71 0 16
-6 25 -15 25 -27 0 -16 19 13 22 21 2 28 9 30 31 2 15 9 27 17 27 14 0 31 37
26 55 -1 6 -4 33 -6 62 -2 38 -10 61 -31 89 -19 25 -25 39 -17 41 9 3 7 15 -7
44 l-20 39 20 0 c11 0 20 4 20 8 0 4 8 8 18 9 9 1 25 3 36 5 12 2 20 -4 21
-14 2 -10 -3 -18 -10 -18 -20 0 -24 -32 -7 -52 12 -14 12 -21 2 -33 -10 -12
-10 -18 0 -30 6 -8 9 -23 5 -35 -6 -18 -3 -20 31 -15 41 5 54 18 47 46 -8 28
6 23 17 -7 6 -14 14 -23 18 -20 5 3 26 -10 47 -29 24 -23 42 -32 49 -26 6 5
20 5 31 0 36 -14 55 -10 55 12 0 18 4 20 26 15 23 -6 25 -4 23 21 -4 48 0 65
14 60 48 -20 47 -20 40 -1 -6 17 -5 17 10 5 15 -12 19 -12 30 1 7 9 31 18 53
22 40 6 43 4 69 -34 15 -22 36 -40 45 -40 21 0 30 -30 23 -76 -5 -29 -3 -33
11 -28 10 4 18 0 22 -10 3 -9 10 -16 15 -16 12 0 11 37 -1 45 -5 3 -10 21 -10
38 0 22 3 28 9 18 11 -18 76 -40 99 -34 10 2 28 -7 41 -21 14 -14 32 -26 42
-26 9 0 22 -7 29 -14 6 -8 28 -20 47 -27 30 -10 38 -9 47 3 16 21 62 28 133
19 35 -4 64 -3 65 1 2 5 17 2 33 -6 28 -15 30 -15 33 2 3 19 90 46 116 36 7
-3 16 1 19 9 5 12 16 11 74 -8 56 -19 70 -20 82 -10 10 10 20 11 37 3 18 -9
28 -6 50 11 15 11 37 21 49 21 12 0 28 6 34 14 9 10 20 12 41 6 16 -4 31 -6
34 -3 3 3 12 1 19 -6 18 -14 78 -3 94 18 8 11 12 12 13 4 0 -21 14 -15 53 22
39 37 79 45 118 25 14 -8 19 -7 19 1 0 8 12 10 38 6 43 -7 78 13 68 38 -3 9 0
18 9 21 8 4 12 10 9 15 -6 10 19 39 33 39 4 0 14 4 21 9 11 7 11 15 -2 46 -9
20 -16 48 -16 60 0 17 -8 26 -32 34 -18 6 -48 25 -67 41 -18 17 -40 30 -47 30
-12 0 -12 6 1 36 20 47 19 57 -3 50 -13 -4 -25 3 -40 24 l-23 30 34 0 c31 0
33 2 29 30 -4 25 -32 66 -32 46 0 -4 -13 2 -29 13 -20 14 -30 32 -35 60 -4 28
-12 42 -27 46 -12 4 -39 23 -60 42 -21 20 -39 33 -39 30 0 -3 -25 19 -56 49
-31 30 -63 54 -71 54 -7 0 -19 11 -25 25 -6 14 -19 25 -28 25 -25 0 -70 38
-70 60 0 20 -73 90 -93 90 -27 0 -50 38 -44 70 8 37 -29 86 -52 71z m177 -740
c11 -7 10 -10 -3 -15 -20 -7 -38 1 -30 15 7 11 16 11 33 0z m-1304 -140 c4 -5
1 -11 -5 -13 -6 -2 8 -27 30 -56 23 -29 37 -52 31 -52 -16 0 -12 -30 5 -36 13
-5 13 -10 0 -40 -22 -54 -70 -89 -127 -91 -26 -2 -49 1 -49 5 -1 4 -3 22 -5
40 -2 20 -14 42 -31 57 l-28 23 28 7 c31 8 34 17 12 35 -19 16 -11 25 23 25
23 0 27 5 30 31 3 26 7 31 23 27 13 -4 19 0 19 11 0 9 5 16 11 16 5 0 7 5 4
10 -3 6 1 10 9 10 8 0 17 -4 20 -9z m1241 -69 c0 -29 -3 -52 -7 -52 -3 0 -10
-17 -15 -37 -4 -20 -13 -38 -19 -40 -13 -4 -18 66 -5 81 6 7 11 30 12 51 3 48
7 57 22 52 7 -2 12 -25 12 -55z m-815 -292 c0 -5 -2 -10 -4 -10 -3 0 -8 5 -11
10 -3 6 -1 10 4 10 6 0 11 -4 11 -10z m-3643 -286 c-3 -3 -12 -4 -19 -1 -8 3
-5 6 6 6 11 1 17 -2 13 -5z m575 -137 c33 6 43 -11 28 -48 -18 -41 -15 -43
-88 43 -30 36 -19 58 12 25 17 -18 30 -23 48 -20z m405 -31 c18 -12 33 -27 33
-34 0 -17 -29 -27 -42 -14 -7 7 -19 0 -40 -24 -17 -19 -36 -34 -44 -34 -8 0
-14 -4 -14 -10 0 -16 -66 -12 -80 5 -13 16 -55 21 -46 6 4 -5 -7 -4 -24 2 -40
15 -32 33 14 30 29 -2 36 1 36 16 0 18 39 37 66 32 15 -2 26 27 17 42 -4 8 -1
7 9 -1 13 -10 17 -10 22 3 7 19 46 11 93 -19z m-312 -22 c24 -16 33 -34 18
-34 -5 1 -21 12 -38 25 -33 28 -18 34 20 9z m-555 -50 c0 -8 -7 -14 -15 -14
-17 0 -18 2 -9 24 7 18 24 12 24 -10z m2380 -264 c0 -5 -5 -10 -11 -10 -5 0
-7 5 -4 10 3 6 8 10 11 10 2 0 4 -4 4 -10z m-2450 -200 c0 -5 -2 -10 -4 -10
-3 0 -8 5 -11 10 -3 6 -1 10 4 10 6 0 11 -4 11 -10z m270 -160 c0 -5 -4 -10
-10 -10 -5 0 -10 5 -10 10 0 6 5 10 10 10 6 0 10 -4 10 -10z m1050 -110 c0
-11 0 -23 1 -27 0 -4 -5 -9 -12 -12 -8 -2 -10 2 -6 12 3 8 -2 22 -12 31 -25
22 -32 20 -27 -9 3 -14 3 -25 1 -25 -2 0 -12 -3 -22 -7 -17 -7 -17 -6 0 11 14
15 15 21 5 33 -10 12 -9 17 5 25 12 6 16 16 12 31 -5 18 -1 16 24 -11 17 -18
31 -41 31 -52z m-1063 24 c-3 -3 -12 -4 -19 -1 -8 3 -5 6 6 6 11 1 17 -2 13
-5z"/>
<path d="M10250 11496 c0 -3 7 -14 17 -25 13 -16 18 -17 30 -6 18 18 16 28 -3
21 -9 -4 -23 -1 -30 5 -8 6 -14 9 -14 5z"/>
<path d="M13720 11482 c0 -12 19 -26 26 -19 2 2 -2 10 -11 17 -9 8 -15 8 -15
2z"/>
<path d="M13772 11449 c6 -16 12 -29 13 -27 6 6 -8 58 -16 58 -4 0 -3 -14 3
-31z"/>
<path d="M13750 11400 c0 -5 5 -10 10 -10 6 0 10 5 10 10 0 6 -4 10 -10 10 -5
0 -10 -4 -10 -10z"/>
<path d="M13650 11350 c-30 -24 -52 -25 -90 -5 -17 9 -31 14 -31 13 -1 -2 -2
-41 -3 -88 -3 -94 -22 -140 -59 -140 -44 0 -4 -13 49 -16 67 -4 88 -17 73 -46
-6 -11 -8 -26 -5 -34 3 -8 2 -14 -3 -14 -4 0 -8 -14 -8 -31 0 -19 -7 -38 -19
-48 -16 -12 -19 -24 -14 -51 5 -33 6 -33 12 -10 l7 24 24 -22 c13 -12 29 -22
35 -22 7 0 17 -9 24 -20 15 -24 34 -26 42 -4 4 9 9 14 12 12 3 -3 19 7 36 22
25 23 29 33 24 54 -8 31 10 55 36 48 10 -2 18 1 18 7 0 6 9 11 19 11 11 0 23
9 26 20 7 23 16 25 35 8 7 -7 4 0 -8 16 -12 16 -22 34 -22 40 0 7 -13 25 -30
41 -16 16 -30 38 -30 50 0 11 -6 27 -12 33 -7 7 -13 20 -13 30 0 9 -10 22 -23
27 -14 6 -26 22 -29 38 -3 15 -9 27 -14 27 -5 0 -14 11 -21 24 -13 25 -13 25
-38 6z m0 -256 c0 -2 -9 -4 -21 -4 -11 0 -18 4 -14 10 5 8 35 3 35 -6z"/>
<path d="M10880 11286 c0 -2 7 -7 16 -10 8 -3 12 -2 9 4 -6 10 -25 14 -25 6z"/>
<path d="M12219 11090 c-8 -25 -18 -40 -28 -40 -12 -1 -11 -3 4 -12 11 -6 35
-24 53 -40 28 -24 35 -26 52 -15 11 6 23 20 26 30 4 12 11 16 22 12 10 -4 33
-9 52 -11 29 -4 31 -3 13 5 -14 6 -24 23 -29 46 -7 39 -24 58 -24 26 0 -39
-43 -31 -87 16 -31 32 -40 29 -54 -17z"/>
<path d="M12510 11050 c0 -5 5 -10 11 -10 5 0 7 5 4 10 -3 6 -8 10 -11 10 -2
0 -4 -4 -4 -10z"/>
<path d="M12080 11040 c0 -5 6 -7 14 -4 9 3 20 -3 28 -15 16 -26 28 -27 28 -2
0 10 -7 22 -16 25 -24 9 -54 7 -54 -4z"/>
<path d="M13431 10926 c-13 -14 -29 -22 -37 -19 -15 6 -44 -51 -44 -86 0 -11
-9 -25 -20 -31 -22 -12 -27 -45 -7 -54 9 -3 7 -9 -6 -19 -14 -11 -15 -16 -5
-20 8 -4 9 -6 1 -6 -8 -1 -7 -10 4 -31 14 -30 13 -61 -6 -89 -6 -10 -13 -11
-29 -2 -14 7 -23 8 -27 1 -4 -6 -12 -7 -18 -3 -25 16 -77 30 -82 23 -3 -5 -2
-15 1 -24 9 -23 -4 -38 -25 -27 -13 8 -23 2 -44 -25 -16 -19 -35 -34 -44 -34
-13 0 -14 -3 -6 -11 14 -14 -24 -99 -43 -99 -6 0 -19 -11 -28 -25 -12 -19 -25
-25 -52 -25 -31 0 -34 -2 -25 -19 8 -14 7 -20 -3 -24 -8 -3 -20 -22 -27 -41
-14 -38 -29 -45 -51 -23 -16 17 -39 11 -32 -8 4 -9 -1 -13 -14 -12 -11 0 -18
6 -15 13 2 6 -8 15 -24 18 -15 4 -37 9 -48 12 -12 3 -6 -4 13 -17 19 -12 38
-33 43 -46 11 -29 36 -40 60 -25 26 17 26 17 47 -31 25 -57 50 -86 71 -80 9 2
26 -5 38 -16 25 -24 75 -28 95 -8 7 7 27 20 43 28 17 9 40 22 52 29 18 12 26
12 47 0 20 -10 31 -11 51 -2 34 15 32 16 39 -13 4 -14 11 -23 16 -20 5 3 7 12
4 19 -6 15 22 30 38 20 5 -3 17 1 27 10 16 15 19 15 31 1 22 -27 32 -17 25 25
-4 26 -3 40 4 40 18 0 13 25 -9 45 -23 21 -18 35 14 35 13 0 34 9 47 20 22 18
23 21 7 33 -13 11 -15 20 -7 57 13 63 16 81 18 113 1 17 7 27 17 27 13 0 12 5
-5 26 -12 15 -21 40 -21 55 0 19 -11 41 -30 61 -36 37 -37 54 -9 77 18 15 20
21 10 39 -8 14 -8 22 -1 22 19 0 50 40 50 65 0 17 6 25 17 25 14 0 13 3 -5 23
-12 13 -22 27 -22 31 0 4 -8 16 -18 26 -18 20 -19 20 -41 -4z"/>
<path d="M12171 10857 c-1 -14 -5 -16 -20 -8 -17 9 -18 8 -14 -12 9 -33 34
-58 58 -55 12 1 32 -6 46 -17 21 -17 25 -28 24 -70 0 -27 -4 -53 -10 -57 -5
-4 14 -29 45 -57 55 -49 62 -74 15 -53 -24 11 -27 9 -42 -22 -14 -30 -20 -34
-53 -32 -21 1 -46 8 -56 16 -16 14 -16 13 -5 -8 7 -12 11 -33 9 -44 -3 -22 7
-30 77 -60 21 -9 31 -21 33 -41 2 -15 8 -27 13 -27 5 0 9 -7 9 -15 0 -8 4 -15
9 -15 5 0 16 -3 25 -6 28 -11 18 32 -13 62 -38 36 -46 68 -24 94 10 11 23 20
30 20 7 0 13 10 13 23 0 25 25 66 34 56 4 -3 7 -25 9 -47 1 -32 6 -41 17 -37
19 6 89 -58 112 -103 19 -36 38 -42 38 -13 0 11 -9 23 -21 26 -19 6 -19 8 -4
25 9 9 15 21 14 26 -3 13 18 61 30 69 6 3 11 13 11 22 0 8 9 28 20 43 11 16
18 35 14 43 -3 8 6 27 20 42 24 26 25 29 9 41 -15 10 -19 9 -28 -10 -9 -20
-14 -21 -62 -13 -59 9 -74 32 -18 25 19 -2 35 -3 35 -1 0 1 -10 13 -22 26 -39
42 -71 82 -70 87 1 3 -20 5 -46 6 -26 0 -55 4 -64 8 -9 4 -25 3 -36 -3 -24
-13 -52 -5 -52 14 0 11 -24 24 -53 29 -4 0 -12 7 -16 15 -5 7 -13 11 -19 7 -6
-3 -13 0 -15 6 -3 8 -6 6 -6 -5z m219 -202 c10 -13 9 -15 -9 -15 -11 0 -21 -6
-21 -13 0 -8 -6 -14 -14 -14 -18 0 -16 14 4 38 19 22 25 23 40 4z m-90 -15 c0
-5 -2 -10 -4 -10 -3 0 -8 5 -11 10 -3 6 -1 10 4 10 6 0 11 -4 11 -10z"/>
<path d="M12402 10830 c0 -14 2 -19 5 -12 2 6 2 18 0 25 -3 6 -5 1 -5 -13z"/>
<path d="M7115 10739 c-4 -11 -4 -23 -1 -26 3 -4 6 1 6 10 0 8 5 17 12 19 9 3
9 6 1 11 -7 4 -14 -1 -18 -14z"/>
<path d="M12377 10289 c7 -7 15 -10 18 -7 3 3 -2 9 -12 12 -14 6 -15 5 -6 -5z"/>
<path d="M12520 10279 c-38 -17 -45 -18 -65 -5 -20 13 -25 13 -41 1 -15 -11
-16 -17 -6 -23 7 -5 10 -16 7 -25 -4 -8 -1 -25 5 -37 9 -17 8 -26 -2 -42 -12
-19 -11 -24 15 -50 20 -19 35 -27 48 -23 11 4 17 11 14 16 -10 16 19 10 55
-12 19 -12 29 -15 23 -8 -17 17 -16 44 1 59 11 8 12 18 5 36 -15 41 -11 94 6
94 9 0 18 -7 21 -15 8 -20 34 -19 34 1 0 8 5 12 10 9 6 -3 10 -1 10 5 0 7 -6
10 -14 7 -7 -3 -22 0 -32 7 -35 23 -51 24 -94 5z"/>
<path d="M6490 10131 c0 -5 9 -7 20 -4 11 3 20 7 20 9 0 2 -9 4 -20 4 -11 0
-20 -4 -20 -9z"/>
<path d="M6480 10090 c0 -11 5 -20 10 -20 6 0 10 9 10 20 0 11 -4 20 -10 20
-5 0 -10 -9 -10 -20z"/>
<path d="M6410 10065 c-9 -11 -9 -15 -1 -15 7 0 10 -4 7 -8 -9 -15 10 -31 31
-26 29 8 37 34 16 50 -24 18 -38 17 -53 -1z"/>
<path d="M13396 10043 c-3 -4 -6 -14 -6 -24 0 -14 7 -18 30 -16 20 1 30 7 28
16 -3 15 -43 33 -52 24z"/>
<path d="M12603 10033 c-15 -3 -20 -9 -16 -20 5 -12 2 -15 -10 -10 -11 4 -17
1 -17 -8 0 -8 -6 -15 -14 -15 -9 0 -12 -12 -11 -41 2 -32 -1 -43 -15 -46 -15
-4 -16 -10 -8 -43 12 -44 65 -113 83 -106 7 2 18 -1 24 -7 8 -8 11 -7 11 6 0
10 8 17 19 17 32 0 51 -11 51 -31 0 -11 5 -16 14 -13 7 3 29 -5 49 -16 l37
-22 29 25 30 25 -23 21 c-12 12 -25 18 -29 15 -3 -4 -17 -4 -31 0 -19 5 -26
14 -31 48 -12 82 -43 158 -61 151 -9 -3 -14 2 -14 17 0 28 -18 60 -33 59 -7
-1 -22 -4 -34 -6z"/>
<path d="M10092 9880 c0 -14 2 -19 5 -12 2 6 2 18 0 25 -3 6 -5 1 -5 -13z"/>
<path d="M10193 9862 c-13 -2 -23 -8 -23 -14 0 -5 -7 -8 -15 -4 -8 3 -15 1
-15 -4 0 -6 9 -10 19 -10 12 0 23 -11 30 -31 8 -23 15 -30 27 -25 8 3 18 6 20
6 3 0 2 5 -2 11 -4 8 1 9 17 4 27 -9 39 -22 39 -45 0 -9 5 -21 12 -28 9 -9 9
-15 0 -24 -16 -16 -15 -46 2 -64 19 -18 27 -18 20 1 -4 8 -1 22 6 30 14 17 5
68 -18 104 -10 18 -12 26 -4 29 7 2 12 10 12 18 0 8 -6 11 -15 8 -17 -7 -72
13 -83 30 -4 6 -17 10 -29 8z"/>
<path d="M10281 9867 c2 -1 13 -9 24 -17 19 -14 19 -14 6 3 -7 9 -18 17 -24
17 -6 0 -8 -1 -6 -3z"/>
<path d="M12895 9660 c3 -5 8 -10 11 -10 2 0 4 5 4 10 0 6 -5 10 -11 10 -5 0
-7 -4 -4 -10z"/>
<path d="M10356 9615 c-16 -14 -24 -25 -18 -25 18 0 3 -28 -19 -33 -15 -4 -18
-11 -13 -36 6 -27 4 -31 -14 -31 -15 0 -20 -5 -16 -15 4 -8 12 -15 19 -15 6 0
26 -7 43 -16 18 -8 40 -13 51 -9 34 10 56 -90 26 -115 -9 -7 -13 -15 -10 -18
3 -3 0 -11 -5 -17 -7 -8 0 -21 24 -43 19 -17 39 -39 44 -48 7 -13 13 -14 31
-5 11 7 21 18 21 25 0 9 14 12 48 10 l47 -3 3 39 c2 35 0 40 -18 40 -25 0 -36
25 -20 45 10 12 9 15 -4 15 -8 0 -18 10 -20 23 -11 54 -13 93 -4 110 9 18 -6
25 -17 7 -3 -5 -11 -10 -16 -10 -6 0 -7 5 -4 10 3 6 -3 10 -14 10 -26 0 -51
10 -51 21 0 5 6 9 13 9 7 0 21 10 31 21 17 21 17 22 -3 42 -12 12 -21 16 -21
9 0 -6 -7 -12 -15 -12 -8 0 -15 6 -15 14 0 7 -10 16 -22 20 -32 8 -30 9 -62
-19z m234 -375 c0 -5 -4 -10 -9 -10 -6 0 -13 5 -16 10 -3 6 1 10 9 10 9 0 16
-4 16 -10z"/>
<path d="M12880 9629 c0 -5 5 -7 10 -4 6 3 10 8 10 11 0 2 -4 4 -10 4 -5 0
-10 -5 -10 -11z"/>
<path d="M6610 9610 c0 -5 5 -10 11 -10 5 0 7 5 4 10 -3 6 -8 10 -11 10 -2 0
-4 -4 -4 -10z"/>
<path d="M6591 9554 c0 -11 3 -14 6 -6 3 7 2 16 -1 19 -3 4 -6 -2 -5 -13z"/>
<path d="M9495 9560 c3 -5 8 -10 11 -10 2 0 4 5 4 10 0 6 -5 10 -11 10 -5 0
-7 -4 -4 -10z"/>
<path d="M6352 9517 c-16 -20 -24 -67 -11 -67 8 0 7 -5 -2 -16 -7 -8 -20 -13
-30 -11 -11 3 -16 0 -13 -8 3 -7 -1 -15 -9 -18 -9 -3 -18 -19 -22 -36 -7 -34
14 -69 70 -119 16 -15 49 -46 74 -69 42 -42 71 -54 71 -32 0 6 9 8 22 4 17 -6
20 -4 15 9 -4 9 -1 29 5 44 6 15 10 35 9 45 -1 9 1 17 6 18 15 1 38 7 56 14
10 4 17 3 17 -5 0 -6 4 -9 8 -6 14 8 92 -32 123 -64 30 -29 57 -41 43 -19 -5
9 1 10 20 5 28 -7 30 -4 26 48 -1 21 2 27 12 23 17 -6 43 29 28 38 -19 12 -11
36 11 33 14 -2 29 7 42 25 20 26 20 28 4 44 -13 13 -20 15 -29 5 -7 -7 -20
-12 -30 -12 -10 0 -21 -7 -24 -15 -4 -9 -14 -14 -23 -11 -9 2 -26 7 -38 11
-16 4 -23 1 -28 -14 -5 -17 -31 -32 -62 -35 -7 -1 -19 -10 -27 -21 -11 -15
-12 -23 -3 -34 10 -12 9 -12 -10 0 -23 14 -33 69 -13 69 14 0 12 21 -6 55 -31
58 -34 74 -19 89 20 20 6 27 -39 19 -29 -4 -34 -8 -25 -19 14 -17 4 -48 -12
-38 -9 5 -10 -16 -4 -79 6 -81 6 -85 -15 -92 -27 -9 -37 0 -21 19 8 9 9 21 2
37 -5 13 -12 41 -16 62 -3 20 -10 37 -14 37 -5 0 -14 13 -19 29 -13 36 -84 78
-100 58z"/>
<path d="M6656 9404 c-7 -19 2 -37 15 -29 12 8 12 45 0 45 -5 0 -12 -7 -15
-16z"/>
<path d="M10659 9219 c26 -22 35 -20 25 5 -3 9 -16 16 -28 16 -21 -1 -21 -1 3
-21z"/>
<path d="M10740 9231 c0 -5 -9 -11 -20 -14 -19 -5 -18 -7 9 -35 35 -35 73 -49
64 -23 -3 9 -10 22 -16 28 -5 7 -7 19 -4 27 3 8 -1 17 -9 20 -21 8 -24 8 -24
-3z"/>
<path d="M6802 9153 c4 -22 43 -25 43 -3 0 8 -11 16 -23 18 -19 3 -23 0 -20
-15z"/>
<path d="M6776 9137 c3 -10 9 -15 12 -12 3 3 0 11 -7 18 -10 9 -11 8 -5 -6z"/>
<path d="M10860 9127 c0 -10 -6 -14 -15 -11 -25 10 -36 -5 -20 -29 8 -12 15
-29 15 -39 0 -21 16 -32 33 -21 6 4 22 6 35 4 25 -3 32 26 7 35 -8 4 -15 14
-15 24 0 9 -9 25 -20 35 -18 16 -20 16 -20 2z"/>
<path d="M6477 8839 c-9 -10 -24 -19 -32 -19 -17 0 -20 -26 -4 -35 6 -4 8 -13
5 -20 -6 -16 35 -45 62 -45 11 0 25 7 32 15 7 8 17 12 22 9 6 -4 5 3 -1 15 -7
11 -17 21 -23 21 -7 0 -6 5 2 15 10 12 10 18 0 31 -25 30 -45 34 -63 13z"/>
<path d="M6625 8763 c0 -26 3 -27 26 -10 15 11 15 14 -5 23 -18 8 -21 7 -21
-13z"/>
<path d="M6250 8776 c0 -2 7 -7 16 -10 8 -3 12 -2 9 4 -6 10 -25 14 -25 6z"/>
<path d="M6725 8720 c-14 -16 -16 -23 -7 -32 9 -9 15 -9 24 0 7 7 8 12 3 12
-6 0 -3 5 5 10 10 6 12 12 4 20 -7 7 -16 4 -29 -10z"/>
<path d="M7278 8733 c7 -3 16 -2 19 1 4 3 -2 6 -13 5 -11 0 -14 -3 -6 -6z"/>
<path d="M6560 8721 c0 -6 5 -13 10 -16 6 -3 10 1 10 9 0 9 -4 16 -10 16 -5 0
-10 -4 -10 -9z"/>
<path d="M8664 8687 c12 -11 19 -30 19 -61 1 -30 6 -46 15 -46 9 0 10 5 2 19
-8 15 -7 20 5 23 20 4 -2 46 -35 66 -23 13 -23 13 -6 -1z"/>
<path d="M7710 8661 c0 -17 18 -21 24 -6 3 9 0 15 -9 15 -8 0 -15 -4 -15 -9z"/>
<path d="M7671 8623 c-10 -4 -8 -9 10 -19 21 -11 22 -13 6 -19 -9 -4 -24 -2
-32 5 -10 9 -15 9 -15 1 0 -6 5 -11 10 -11 6 0 10 -9 10 -19 0 -15 -10 -21
-40 -26 -30 -5 -40 -11 -40 -26 0 -10 -6 -19 -12 -19 -13 0 -38 44 -38 65 0
16 -44 35 -60 25 -9 -6 -8 -9 6 -14 21 -7 54 -78 54 -118 0 -14 7 -28 15 -31
8 -4 23 -24 34 -45 11 -22 27 -42 36 -46 19 -7 74 19 82 40 7 20 25 18 51 -6
12 -12 22 -17 22 -11 0 5 12 13 28 19 15 5 37 19 48 30 20 19 23 19 37 4 9 -9
20 -12 24 -8 4 4 1 12 -7 17 -12 8 -9 9 10 7 14 -1 32 2 40 7 8 5 22 10 30 10
8 0 16 6 16 13 1 6 2 17 3 23 0 6 7 9 15 6 11 -5 11 2 0 41 -8 25 -20 50 -27
54 -9 6 -9 8 2 8 11 0 11 3 1 15 -16 19 -40 20 -40 1 0 -18 -26 -40 -34 -27
-6 10 -44 4 -62 -11 -6 -4 -19 -5 -29 -2 -9 4 -20 2 -24 -5 -12 -19 -61 32
-54 58 5 18 1 21 -28 20 -19 0 -40 -3 -48 -6z"/>
<path d="M8457 8582 c-7 -10 4 -62 13 -62 4 0 13 6 19 14 10 11 8 16 -8 21
-12 4 -18 12 -14 21 5 15 -2 20 -10 6z"/>
<path d="M8622 8532 c-15 -33 -11 -36 11 -7 9 13 14 26 9 29 -4 2 -13 -7 -20
-22z"/>
<path d="M8440 8512 c0 -11 7 -22 15 -26 9 -3 15 0 15 8 0 7 -7 19 -15 26 -12
10 -15 9 -15 -8z"/>
<path d="M8550 8524 c0 -3 5 -14 10 -24 6 -12 6 -21 1 -25 -6 -3 -4 -16 4 -31
7 -15 11 -33 8 -40 -6 -16 6 -18 27 -4 11 7 11 10 2 10 -7 0 -11 4 -7 9 3 5 1
12 -5 16 -14 9 -12 52 3 58 8 3 6 10 -8 21 -21 16 -35 20 -35 10z"/>
<path d="M8528 8393 c-9 -10 -21 -36 -28 -58 -21 -66 -38 -86 -69 -79 -23 5
-24 4 -7 -7 15 -9 26 -8 53 5 20 9 44 14 55 10 18 -5 20 -3 16 21 -4 17 -1 28
8 32 16 6 19 39 4 48 -6 4 -8 15 -5 26 8 24 -7 25 -27 2z"/>
</g>
</svg>
