<?xml version="1.0" standalone="no"?>
<!DOCTYPE svg PUBLIC "-//W3C//DTD SVG 20010904//EN"
 "http://www.w3.org/TR/2001/REC-SVG-20010904/DTD/svg10.dtd">
<svg version="1.0" xmlns="http://www.w3.org/2000/svg"
 width="849.167203pt" height="775.243710pt" viewBox="0 0 849.167203 775.243710"
 preserveAspectRatio="xMidYMid meet">
<metadata>
Created by potrace 1.15, written by Peter Selinger 2001-2017
</metadata>
<g transform="translate(-671.247494,1387.500000) scale(0.100000,-0.100000)"
fill="#222222" stroke="none">
<path d="M13323 13851 c4 -16 -1 -34 -14 -52 -13 -19 -18 -36 -13 -53 4 -17 2
-26 -6 -26 -9 0 -10 -11 -6 -35 6 -28 4 -35 -9 -35 -9 0 -15 -9 -15 -22 -1
-29 -21 -56 -38 -50 -11 3 -12 0 -3 -16 8 -15 8 -23 0 -27 -7 -5 -2 -17 14
-34 23 -25 44 -101 28 -101 -4 0 -7 -20 -7 -44 1 -35 -4 -49 -26 -71 -15 -15
-25 -31 -22 -36 7 -12 -60 -3 -86 11 -16 9 -20 8 -20 -4 0 -20 -46 -31 -73
-18 -48 24 -64 24 -72 0 -6 -20 -8 -21 -12 -5 -3 10 -15 22 -28 27 -17 6 -25
20 -30 48 -6 38 -36 82 -55 82 -17 0 -3 -33 21 -46 l24 -13 -25 -9 -25 -9 23
-7 c13 -4 22 -11 20 -14 -2 -4 -10 -19 -18 -35 -18 -37 -52 -45 -79 -18 -14
14 -29 19 -44 16 -28 -7 -122 52 -147 92 -23 37 -66 83 -78 83 -6 0 -13 7 -16
16 -5 12 -2 15 11 10 15 -6 16 -5 6 5 -7 7 -13 21 -13 31 0 10 -13 32 -29 50
-27 30 -30 31 -52 17 -16 -10 -33 -13 -49 -8 -38 11 -119 10 -141 -1 -14 -8
-18 -17 -13 -34 5 -23 -12 -50 -37 -58 -9 -3 -9 -9 0 -25 6 -12 11 -32 11 -44
0 -13 11 -34 24 -48 27 -30 43 -71 27 -71 -18 0 -12 -24 9 -38 22 -13 27 -51
8 -53 -61 -7 -86 -6 -105 7 -31 20 -32 19 -28 -28 3 -40 1 -43 -22 -44 -13 -1
-35 -11 -47 -23 -12 -12 -27 -21 -33 -21 -18 0 -28 -61 -12 -71 30 -18 37 -25
43 -46 7 -20 5 -21 -54 -16 -52 5 -60 4 -60 -11 0 -10 -5 -14 -11 -10 -8 5 -8
1 0 -14 6 -11 22 -23 36 -26 14 -4 25 -12 25 -19 0 -26 -36 -97 -47 -93 -17 7
-23 -18 -13 -53 6 -22 5 -33 -6 -42 -8 -7 -12 -20 -8 -35 9 -36 -21 -42 -53
-10 -14 14 -36 26 -49 26 -17 0 -24 7 -29 30 -4 17 -23 44 -45 62 -35 30 -37
34 -24 54 16 24 9 54 -12 54 -8 0 -19 11 -23 24 -5 13 -17 26 -26 30 -10 3
-15 15 -13 28 2 15 -5 26 -22 35 -27 13 -47 73 -28 84 5 4 3 9 -6 12 -9 4 -17
-1 -21 -14 -8 -25 -22 -24 -30 1 -3 11 -12 20 -20 20 -7 0 -16 7 -19 16 -8 22
-8 24 7 24 8 0 22 10 33 22 10 12 13 18 6 14 -17 -10 -36 42 -22 59 16 19 -17
95 -41 95 -14 0 -19 7 -19 25 0 29 11 31 45 9 26 -17 47 -12 39 11 -7 16 -24
24 -81 34 -26 5 -40 5 -37 -1 11 -17 -6 -60 -21 -54 -10 3 -15 -1 -15 -14 0
-14 -11 -22 -37 -29 -50 -14 -48 -15 -78 14 -27 28 -33 22 -10 -9 8 -11 15
-27 15 -36 0 -19 35 -41 54 -34 8 3 26 -2 41 -12 15 -10 30 -13 33 -8 12 16
52 35 62 29 6 -4 10 -13 10 -22 0 -9 -3 -13 -7 -10 -7 7 -43 -46 -43 -64 0 -6
-13 -30 -30 -54 -20 -30 -40 -46 -61 -50 -22 -5 -29 -11 -25 -22 4 -9 -1 -21
-11 -28 -10 -7 -18 -22 -18 -32 0 -17 -4 -18 -60 -10 -5 1 -9 -6 -7 -16 2 -10
-11 -34 -28 -53 -17 -19 -28 -39 -25 -45 4 -5 -1 -16 -10 -25 -13 -14 -18 -14
-32 -2 -14 11 -16 10 -11 -8 10 -38 -51 -87 -90 -73 -28 11 -50 2 -57 -22 -4
-10 -11 -19 -16 -19 -5 0 -9 -9 -9 -20 0 -11 -6 -20 -14 -20 -7 0 -25 -9 -39
-20 -14 -11 -35 -20 -46 -20 -13 0 -21 -6 -21 -17 0 -9 -3 -14 -6 -11 -7 8
-44 -28 -44 -43 0 -15 -70 -77 -102 -90 -15 -6 -30 -19 -33 -29 -3 -9 -23 -31
-44 -48 -36 -29 -42 -31 -71 -21 -26 9 -34 8 -51 -7 -23 -21 -84 -44 -117 -44
-21 0 -22 -1 -8 -16 26 -25 21 -88 -9 -110 -14 -10 -25 -24 -25 -31 0 -7 -10
-13 -23 -13 -13 0 -24 -6 -24 -12 0 -7 -4 -22 -9 -32 -4 -11 -4 -17 2 -14 5 3
20 -5 34 -18 14 -13 19 -24 12 -24 -7 0 -10 -5 -6 -11 17 -28 -57 -39 -90 -14
-22 17 -40 20 -32 6 10 -15 -58 -19 -86 -5 -15 8 -35 14 -44 14 -14 0 -16 7
-11 40 3 22 2 40 -2 40 -17 0 -81 -64 -81 -81 0 -23 -18 -24 -48 -3 -20 14
-22 14 -22 -1 0 -13 -4 -14 -20 -5 -11 6 -18 16 -14 22 5 7 -4 9 -27 4 -19 -4
-42 -7 -52 -7 -23 0 -67 -45 -65 -67 5 -59 -3 -80 -36 -103 -20 -13 -32 -29
-29 -37 4 -10 -4 -13 -38 -10 -39 3 -47 -1 -66 -26 -16 -20 -20 -37 -16 -57 4
-19 1 -29 -7 -29 -7 0 -10 -7 -6 -16 5 -12 -2 -15 -37 -12 -36 3 -44 -1 -54
-21 -7 -13 -13 -30 -13 -37 0 -8 -6 -14 -14 -14 -8 0 -16 -12 -18 -26 -2 -15
-11 -32 -21 -38 -10 -6 -37 -28 -60 -49 -71 -64 -87 -77 -97 -77 -18 0 -90
-42 -85 -50 3 -5 -13 -11 -35 -15 -30 -5 -41 -12 -46 -30 -4 -15 -23 -31 -57
-48 -29 -14 -56 -36 -62 -49 -14 -33 -51 -31 -47 2 l3 25 -15 -25 c-14 -22
-23 -42 -43 -90 -3 -8 -5 -24 -4 -34 2 -13 -2 -17 -13 -13 -11 5 -16 1 -16
-13 0 -16 -7 -20 -30 -20 -16 0 -30 -4 -30 -10 0 -5 -8 -10 -19 -10 -16 0 -19
-10 -23 -61 -3 -37 -10 -64 -19 -70 -12 -8 -12 -10 1 -19 10 -6 16 -6 18 0 6
18 58 11 77 -10 17 -19 41 -28 31 -12 -11 18 155 -46 212 -82 64 -40 113 -85
79 -73 -15 6 -16 4 -6 -16 7 -12 20 -33 31 -46 10 -14 15 -27 10 -30 -5 -3
-11 -14 -15 -24 -5 -13 -15 -16 -41 -13 -33 4 -34 3 -26 -20 7 -17 6 -24 -2
-24 -7 0 -5 -7 4 -17 8 -10 14 -31 12 -48 -1 -16 -3 -36 -3 -43 -1 -7 -5 -11
-10 -8 -15 10 -43 -6 -37 -20 3 -8 1 -14 -4 -14 -6 0 -10 -9 -10 -20 0 -11 -7
-23 -15 -26 -8 -4 -15 -13 -15 -21 0 -12 -3 -13 -14 -4 -10 9 -16 9 -21 1 -5
-8 -11 -6 -20 6 -11 16 -16 16 -58 2 -29 -9 -51 -12 -62 -6 -10 6 -21 6 -28
-1 -16 -12 -136 -4 -154 11 -7 6 -13 17 -13 24 0 16 -36 19 -45 3 -4 -6 -13
-8 -19 -6 -7 3 -19 1 -26 -3 -11 -7 -10 -15 5 -44 11 -19 16 -38 12 -42 -4 -4
0 -12 9 -18 9 -7 17 -33 20 -62 4 -50 4 -51 -21 -46 -20 3 -25 0 -25 -17 0
-29 -28 -27 -41 3 -7 14 -17 22 -24 20 -7 -3 -16 -1 -20 5 -3 6 -13 11 -20 11
-8 0 -38 18 -66 39 -29 22 -64 41 -79 43 -27 4 -27 4 -11 -23 17 -30 44 -42
59 -27 11 11 28 -8 34 -37 2 -11 10 -19 16 -18 7 2 12 -4 12 -12 0 -8 0 -17 0
-20 0 -3 -3 -4 -6 -2 -3 1 -10 -6 -15 -16 -6 -10 -19 -16 -32 -14 -12 2 -17 2
-10 0 31 -11 25 -66 -8 -73 -13 -3 -24 -9 -25 -15 -1 -30 -18 -65 -31 -65 -8
0 -20 -14 -26 -30 -11 -28 -38 -47 -63 -42 -7 1 -14 -4 -18 -13 -3 -8 -14 -15
-26 -15 -23 0 -60 -29 -60 -47 0 -19 -37 -16 -44 3 -9 22 3 37 25 31 16 -4 18
0 15 30 -6 44 -9 47 -36 33 -18 -10 -25 -9 -38 4 -15 15 -15 16 1 16 10 0 22
11 27 25 5 14 16 25 23 25 14 0 67 44 67 55 0 14 -37 3 -48 -15 -7 -11 -23
-20 -37 -20 -14 0 -29 -8 -35 -19 -5 -11 -19 -23 -30 -26 -13 -4 -23 -18 -27
-36 -4 -20 -12 -29 -24 -29 -11 0 -19 -5 -19 -11 0 -6 -9 -8 -21 -4 -15 5 -19
4 -14 -5 5 -7 1 -11 -11 -10 -44 5 -55 0 -49 -19 5 -17 1 -19 -28 -17 -31 3
-37 -1 -51 -30 -11 -25 -22 -34 -40 -34 -33 0 -56 -10 -56 -24 0 -24 -41 -56
-70 -56 -17 0 -30 -5 -30 -11 0 -5 -4 -8 -9 -5 -5 3 -12 -1 -15 -9 -3 -9 1
-18 9 -21 17 -7 21 -34 5 -34 -5 0 -10 -8 -10 -18 0 -22 -57 -92 -75 -92 -8 0
-22 -11 -30 -24 -12 -18 -27 -25 -63 -28 -26 -3 -52 -1 -58 4 -7 5 -28 -7 -55
-32 -53 -48 -104 -74 -127 -64 -28 12 -42 13 -48 3 -3 -5 -13 -5 -25 1 -16 9
-19 7 -19 -15 0 -21 -3 -24 -16 -17 -12 7 -28 -4 -66 -45 -32 -33 -59 -53 -73
-53 -19 0 -21 -4 -17 -26 4 -25 3 -26 -22 -22 -14 3 -29 1 -32 -3 -6 -10 2
-11 75 -9 51 2 98 19 86 32 -3 3 1 8 10 12 9 3 18 -1 21 -9 7 -17 79 -21 89
-5 5 8 11 8 19 1 7 -6 16 -8 19 -5 9 9 28 -43 21 -59 -3 -8 2 -20 11 -27 8 -7
15 -23 15 -36 0 -31 27 -38 80 -19 60 21 75 19 126 -16 36 -24 48 -28 59 -19
8 6 20 8 27 4 7 -4 25 -7 40 -6 19 2 28 -2 28 -13 0 -8 5 -15 10 -15 6 0 10
-7 10 -15 0 -8 5 -15 10 -15 6 0 10 -6 9 -12 -4 -25 13 -68 28 -68 25 0 73
-30 73 -46 0 -8 -4 -12 -10 -9 -5 3 -7 0 -4 -8 6 -16 54 -41 62 -32 3 2 11 0
19 -7 7 -6 16 -8 20 -5 3 4 12 2 19 -4 18 -15 74 16 74 41 0 11 7 20 15 20 9
0 18 7 21 15 4 8 13 15 21 15 18 0 64 46 55 54 -3 3 3 6 14 6 11 0 25 9 32 20
7 11 22 20 33 20 18 0 20 4 15 26 -6 23 -5 24 15 13 19 -10 25 -8 38 9 9 10
25 24 36 30 11 6 20 18 20 28 0 10 12 21 30 27 47 15 54 25 45 57 -6 22 -4 32
11 46 14 13 16 21 8 35 -7 14 -6 19 2 19 7 0 9 10 4 28 -5 21 -4 24 6 15 9 -9
17 -8 35 4 29 19 31 33 4 33 -20 0 -40 27 -40 55 0 10 5 13 12 9 7 -4 24 -8
39 -9 15 -1 35 -8 45 -16 16 -13 17 -12 11 16 -4 17 -10 45 -13 62 -7 35 -21
43 -30 18 -8 -19 -24 -20 -24 -1 0 7 -7 19 -15 26 -10 8 -12 16 -6 19 13 9 2
51 -13 51 -18 0 -19 71 -1 113 11 27 13 43 5 57 -13 24 -3 50 20 50 13 0 19
11 24 40 5 33 2 44 -16 62 l-23 23 37 3 c20 2 46 -2 58 -8 17 -9 20 -8 20 10
0 24 25 27 34 4 10 -26 7 -36 -10 -30 -12 5 -14 1 -9 -15 5 -13 3 -19 -3 -15
-18 11 -20 -57 -3 -84 53 -81 71 -121 71 -162 0 -73 -2 -83 -20 -103 -22 -24
-12 -43 33 -62 34 -15 34 -27 2 -55 -29 -25 -32 -53 -7 -67 16 -10 15 -10 -3
-11 -11 -1 -14 -4 -7 -7 22 -9 13 -25 -10 -17 -22 7 -22 6 -5 -20 10 -15 15
-31 12 -37 -4 -5 -1 -17 6 -26 11 -13 10 -18 -9 -34 -18 -14 -21 -24 -16 -45
5 -19 4 -25 -5 -20 -7 5 -11 -6 -11 -36 0 -38 5 -49 41 -83 22 -22 45 -50 49
-61 5 -12 22 -28 39 -35 16 -7 32 -24 36 -36 3 -12 17 -29 32 -37 24 -12 29
-12 38 1 15 20 44 7 38 -18 -4 -12 2 -26 13 -35 13 -10 15 -17 7 -20 -8 -4 -8
-12 3 -32 31 -60 2 -70 -65 -21 -28 20 -39 24 -33 13 7 -13 6 -24 -5 -40 -13
-21 -12 -25 7 -44 11 -11 25 -18 30 -15 5 3 12 0 16 -6 3 -6 1 -15 -5 -19 -19
-11 -2 -58 30 -81 16 -11 37 -39 47 -62 11 -23 31 -53 46 -66 14 -14 26 -32
26 -41 0 -9 18 -32 41 -51 l41 -34 -27 -11 c-23 -9 -24 -12 -11 -23 10 -8 13
-23 9 -45 -3 -20 -1 -36 6 -40 15 -10 14 -27 -1 -25 -36 4 -40 -1 -20 -33 24
-40 35 -148 16 -148 -8 0 -11 -6 -8 -15 4 -8 1 -15 -5 -15 -9 0 -9 -5 -1 -20
8 -16 8 -20 -4 -20 -8 0 -19 -7 -24 -17 -7 -12 -18 -14 -39 -10 -49 10 -73 -2
-89 -44 -12 -28 -23 -39 -45 -44 -22 -5 -31 -14 -37 -38 -7 -27 -13 -32 -35
-29 -18 2 -31 -4 -39 -18 -7 -11 -20 -20 -30 -20 -22 0 -34 -20 -17 -30 10 -7
10 -12 0 -23 -15 -19 5 -29 33 -15 14 8 17 7 14 -4 -3 -7 -13 -13 -24 -13 -10
0 -21 -3 -24 -7 -10 -13 -50 22 -50 43 0 11 -4 18 -9 15 -5 -4 -17 -3 -26 0
-12 5 -13 9 -5 14 9 6 6 10 -8 14 -28 9 -35 34 -12 46 16 9 17 15 8 40 -5 17
-14 30 -18 30 -5 0 -11 8 -13 18 -4 15 -5 15 -6 0 -1 -13 -12 -18 -48 -20
l-48 -3 3 -47 c3 -32 0 -48 -8 -48 -7 0 -9 -8 -5 -22 4 -13 9 -31 11 -40 4
-12 -3 -22 -20 -30 -14 -6 -26 -17 -26 -25 0 -21 -50 -36 -79 -23 -17 8 -27 8
-35 0 -5 -5 -22 -10 -37 -10 -15 0 -30 -4 -34 -9 -9 -15 -66 -41 -89 -41 -12
0 -27 4 -35 9 -10 6 -22 5 -34 -4 -20 -14 -41 -11 -67 10 -8 7 -30 17 -48 23
-18 6 -40 18 -48 27 -8 8 -26 15 -39 15 -14 0 -32 13 -50 36 -25 33 -69 60
-89 55 -5 -1 -12 3 -16 10 -6 9 -14 8 -31 -4 -13 -10 -32 -14 -46 -11 -12 4
-29 0 -37 -7 -33 -30 -46 -39 -54 -39 -5 0 1 -21 14 -48 15 -30 22 -58 19 -77
-6 -35 32 -85 64 -85 10 0 31 -15 45 -32 15 -18 31 -39 37 -46 13 -16 30 -6
23 13 -10 24 18 44 46 33 14 -5 37 -11 53 -13 15 -2 42 -16 60 -30 19 -14 41
-25 50 -25 10 0 17 -8 17 -19 0 -10 7 -21 15 -25 12 -4 13 -10 0 -45 -12 -36
-12 -41 5 -56 10 -9 28 -36 39 -60 14 -30 30 -46 53 -55 26 -10 29 -14 14 -17
-14 -4 -17 -11 -12 -36 3 -17 13 -38 22 -48 13 -15 13 -20 -2 -52 -20 -42 -14
-64 22 -77 18 -7 24 -15 20 -26 -3 -9 -6 -20 -6 -25 0 -5 -7 -9 -15 -9 -8 0
-12 -6 -9 -13 2 -7 -7 -19 -21 -27 -15 -8 -23 -19 -20 -27 3 -7 8 -20 11 -28
3 -8 1 -15 -5 -15 -6 0 -8 -11 -4 -30 4 -21 0 -36 -11 -49 -12 -13 -14 -21 -6
-26 5 -3 8 -11 5 -16 -4 -5 -2 -9 4 -9 14 0 29 32 23 49 -3 10 0 12 12 8 9 -4
30 -4 46 0 24 4 29 9 24 25 -3 10 0 25 6 33 10 12 9 20 -4 40 -9 14 -23 25
-30 25 -20 0 -27 27 -11 40 10 8 15 8 20 -1 4 -6 3 -14 -3 -18 -6 -4 2 -12 20
-20 23 -10 32 -11 37 -2 4 6 15 9 24 5 9 -3 23 1 32 10 14 14 14 19 -7 55
l-22 39 24 21 c21 17 27 18 36 6 14 -19 28 -19 43 -1 9 11 8 18 -5 31 -9 9
-22 14 -30 11 -7 -3 -18 2 -24 10 -9 10 -9 14 -1 14 6 0 11 7 11 16 0 11 6 15
20 11 10 -3 21 0 22 5 3 7 16 4 35 -6 18 -9 39 -13 47 -10 9 3 16 1 16 -6 0
-6 -5 -8 -12 -4 -7 4 -8 3 -4 -4 9 -15 62 -16 71 -2 3 6 24 10 45 10 31 0 43
5 56 25 l17 26 22 -21 c26 -24 37 -26 28 -4 -5 14 0 15 34 9 26 -4 43 -2 48 5
9 15 43 3 74 -26 14 -13 31 -24 38 -24 31 0 20 25 -34 75 -55 52 -83 67 -83
45 0 -14 -67 -13 -76 2 -5 8 -10 7 -18 -4 -11 -15 -46 -21 -46 -7 0 12 -61 79
-72 79 -5 0 -6 -4 -3 -10 8 -14 -30 -16 -82 -5 -18 4 -21 12 -20 48 0 23 -3
48 -7 55 -4 7 -3 12 3 12 8 0 8 58 0 107 -4 27 15 53 40 53 18 0 22 3 12 9 -9
6 -10 11 -2 15 6 4 8 18 5 32 -3 13 -3 36 0 50 5 20 11 24 24 19 9 -4 29 -8
44 -9 15 -1 49 -18 75 -37 52 -37 96 -59 122 -59 9 0 27 -13 41 -30 14 -16 30
-30 37 -30 21 0 26 -21 9 -39 -16 -17 -15 -19 4 -24 11 -3 20 -1 20 4 0 5 22
9 49 9 40 0 50 3 54 20 4 16 14 20 51 20 32 0 46 -4 46 -13 0 -14 77 -43 87
-34 3 3 18 1 34 -5 22 -7 33 -7 45 2 12 11 20 8 44 -15 19 -18 35 -25 46 -21
27 10 120 -31 132 -60 12 -26 45 -35 36 -9 -11 28 6 18 67 -39 13 -12 32 -37
41 -54 12 -23 24 -32 42 -32 14 0 42 -11 62 -25 34 -23 62 -30 105 -27 8 1 53
-28 98 -64 47 -37 89 -63 97 -60 8 3 14 2 14 -3 0 -5 9 -11 20 -14 13 -3 20 0
20 9 0 29 22 15 68 -41 8 -9 26 -15 45 -14 18 2 46 -5 64 -14 36 -19 63 -22
63 -7 0 6 15 9 33 8 24 -2 32 1 31 13 -2 20 35 14 43 -7 3 -8 17 -14 32 -14
15 0 32 -5 38 -11 7 -7 17 -8 25 -3 7 5 23 7 35 6 13 -2 26 4 32 17 6 10 26
25 45 31 22 7 39 21 47 39 19 41 53 54 84 29 14 -10 29 -17 35 -13 5 3 15 -3
22 -15 7 -11 23 -20 36 -20 13 0 22 -5 20 -12 -3 -14 3 -18 26 -18 21 0 7 42
-16 47 -19 6 -24 28 -8 38 14 9 12 19 -8 41 -10 10 -21 27 -25 37 -5 14 -2 16
18 11 21 -5 27 -1 42 31 16 33 16 38 2 48 -21 16 -43 57 -30 57 5 0 12 -4 15
-9 4 -5 26 -9 50 -9 57 0 95 33 76 68 -8 16 -9 25 0 35 8 10 7 21 -4 44 -21
40 -20 44 9 39 24 -5 24 -3 19 32 -4 25 -1 48 12 71 9 19 18 56 19 84 1 27 7
51 13 53 13 4 4 34 -14 45 -11 6 -10 15 4 43 13 26 22 34 39 31 13 -3 20 0 17
8 -3 7 7 34 21 60 23 43 24 50 10 65 -19 21 -19 29 2 52 15 17 15 18 -10 18
-27 0 -28 -2 -31 -55 -2 -34 -20 -52 -58 -58 -21 -3 -38 -2 -38 2 0 5 -13 14
-30 21 -34 14 -59 72 -41 94 7 9 7 16 -1 24 -15 15 -3 15 23 2 28 -15 42 -4
28 23 -11 21 -11 21 7 5 16 -14 25 -15 64 -5 25 6 49 17 53 24 4 7 16 13 26
13 10 0 25 7 32 16 7 9 24 20 37 25 18 7 23 15 19 30 -4 15 -2 19 9 15 11 -4
13 -2 6 11 -12 20 -3 55 12 50 6 -2 11 -12 11 -22 0 -10 10 -21 23 -26 13 -5
22 -5 22 1 0 6 -6 10 -13 10 -6 0 -18 13 -25 28 -10 24 -10 35 3 65 15 36 8
43 -23 24 -20 -13 -46 1 -70 38 -19 30 -20 36 -7 41 8 3 12 10 9 15 -9 16 39
49 54 37 9 -8 12 -6 12 5 0 15 18 21 80 30 24 4 41 18 34 29 -3 5 8 2 26 -7
23 -12 35 -13 44 -6 15 12 10 57 -8 80 -9 12 -8 13 7 8 44 -17 65 -18 78 -5 8
8 31 15 52 15 33 1 37 -2 37 -24 0 -19 4 -24 23 -21 14 2 22 -2 23 -12 1 -8 2
-19 3 -24 0 -6 7 -1 15 9 7 10 11 28 8 39 -4 18 -2 17 17 -6 20 -25 20 -58 -1
-58 -6 0 -7 -7 -4 -16 4 -11 -1 -18 -14 -21 -11 -3 -20 -9 -20 -14 0 -5 -8 -9
-17 -9 -14 -1 -12 -4 7 -15 14 -8 37 -12 51 -9 23 4 28 1 37 -25 9 -26 8 -31
-4 -31 -13 0 -13 -3 0 -22 9 -12 16 -33 16 -46 0 -14 8 -26 21 -30 12 -5 27
-24 34 -45 11 -34 11 -36 -9 -39 -34 -5 -32 -76 4 -125 26 -35 32 -37 84 -39
43 -1 56 2 56 13 0 10 8 12 34 8 36 -7 81 9 71 26 -7 11 2 11 30 0 11 -5 20
-14 20 -21 0 -7 5 -15 11 -17 7 -2 9 8 6 27 -4 29 -3 30 39 31 24 1 48 1 52 0
16 -3 37 28 37 53 0 14 5 26 10 26 7 0 7 7 0 21 -15 26 -6 49 18 49 35 0 45
25 26 61 -9 18 -19 58 -21 88 -2 29 -8 62 -13 72 -6 10 -7 24 -4 32 3 8 1 18
-5 22 -6 3 -8 17 -5 31 5 18 0 29 -17 44 -22 19 -23 21 -7 33 10 8 15 17 11
20 -3 4 -1 7 6 7 6 0 23 11 37 25 19 19 29 23 39 15 21 -17 47 -1 42 26 -2 13
-1 24 3 24 5 0 6 9 3 19 -3 13 3 25 21 36 25 16 25 18 8 43 -16 25 -16 25 7
19 21 -5 23 -3 17 24 -3 16 -1 29 4 29 19 0 10 24 -22 59 -18 18 -28 31 -21
27 23 -13 88 69 77 98 -4 9 5 28 19 46 21 24 25 40 25 86 -1 41 4 61 15 69 11
8 12 16 5 28 -6 11 -6 23 0 30 21 27 22 63 1 85 -16 18 -17 22 -4 22 12 0 14
6 9 26 -6 25 -5 26 20 22 17 -4 25 -1 23 6 -2 6 -14 10 -25 9 -39 -5 -72 14
-72 42 0 15 6 25 14 25 7 0 20 8 27 17 10 11 10 14 2 9 -17 -10 -16 -1 1 17
12 12 11 18 -10 40 -14 15 -36 27 -49 27 -14 0 -25 6 -25 13 0 7 -9 23 -20 35
-11 12 -20 23 -20 24 0 2 23 5 51 6 59 2 70 7 62 27 -3 9 1 15 10 15 9 0 19 4
22 10 3 5 0 7 -9 4 -12 -5 -13 0 -4 29 10 32 8 37 -22 71 -18 20 -41 36 -51
36 -10 0 -21 5 -25 12 -5 8 0 9 15 5 21 -5 22 -4 7 11 -8 10 -12 22 -8 28 11
17 39 23 50 12 7 -7 14 -3 23 13 7 13 12 28 11 32 -1 5 2 6 8 2 17 -10 47 13
58 45 6 16 18 30 26 30 11 0 16 10 16 33 0 53 10 75 29 70 14 -3 20 3 24 26 7
34 35 42 57 16 6 -8 24 -14 38 -15 75 -2 97 0 100 10 2 5 19 10 38 10 19 0 34
5 34 10 0 6 15 17 33 25 17 7 31 17 29 22 -1 4 13 9 32 11 26 2 33 7 29 18 -3
8 3 26 12 41 17 25 17 27 -6 44 -15 12 -19 19 -10 19 8 0 11 3 8 7 -4 3 0 15
10 25 18 20 36 50 52 85 9 20 13 21 35 11 22 -9 28 -8 45 13 11 13 20 34 21
45 0 12 8 25 17 28 27 11 100 -4 122 -25 11 -10 27 -19 35 -19 19 0 28 27 16
50 -14 26 -13 30 10 30 26 0 28 47 3 67 -10 8 -13 12 -6 8 8 -3 15 4 19 20 5
19 12 25 35 25 20 0 29 5 29 15 0 30 -31 75 -55 81 -18 4 -26 15 -31 40 -3 19
-10 37 -15 40 -18 11 24 38 60 39 21 1 56 10 78 21 l42 21 24 -21 c14 -12 28
-31 32 -43 8 -29 25 -30 32 -2 3 12 11 18 19 15 15 -6 19 9 5 18 -4 3 -11 20
-15 38 -3 17 -13 39 -21 48 -13 14 -12 16 8 17 12 1 27 9 33 18 10 14 15 14
33 3 12 -7 21 -16 21 -20 0 -5 9 -8 20 -8 35 0 90 -28 85 -43 -3 -7 3 -22 15
-32 11 -10 20 -24 20 -32 0 -7 5 -13 11 -13 6 0 27 -16 47 -36 33 -33 37 -34
49 -18 7 9 10 21 7 25 -3 5 0 17 6 28 7 13 7 22 0 26 -19 12 -10 35 16 41 22
6 25 11 20 35 -5 27 -3 28 40 35 29 4 50 2 57 -5 8 -8 14 -7 24 1 11 9 15 7
20 -10 7 -29 32 -28 77 3 20 14 41 25 46 25 5 0 7 7 3 15 -3 9 -2 15 3 13 22
-6 84 27 84 44 0 10 4 18 8 18 13 0 42 68 36 84 -3 8 3 19 15 26 14 7 21 21
21 40 0 24 44 166 56 179 2 2 10 -1 17 -8 17 -14 41 -6 73 24 17 16 23 31 21
61 -1 35 -4 40 -22 36 -11 -2 -30 -17 -40 -33 -23 -34 -35 -37 -42 -10 -4 16
-13 20 -45 18 -31 -1 -45 4 -58 21 l-18 22 2 -32 c1 -26 -4 -35 -28 -47 -22
-10 -31 -11 -34 -3 -5 17 -22 15 -22 -3 0 -10 -8 -7 -26 10 -22 21 -29 22 -38
11 -15 -18 -46 -28 -46 -15 0 6 -4 7 -10 4 -5 -3 -10 1 -10 9 0 9 9 21 20 28
14 9 20 24 20 51 0 33 3 38 29 43 28 6 28 6 13 36 -12 24 -12 35 -3 49 14 24
14 29 -3 29 -16 0 -29 27 -20 41 3 5 12 9 20 9 17 0 18 11 2 42 -12 22 -18 23
-88 20 -43 -2 -81 -9 -90 -17 -14 -12 -100 -26 -100 -16 0 2 8 10 17 16 17 13
17 14 0 33 -17 19 -21 19 -55 5 -34 -14 -36 -14 -54 9 -9 12 -18 19 -18 14 0
-5 -7 -3 -15 4 -8 7 -15 10 -15 6 0 -3 -12 -1 -27 5 -19 7 -28 6 -34 -2 -4 -7
-12 -8 -20 -3 -17 10 -62 5 -70 -7 -9 -14 -59 8 -59 25 0 9 -6 30 -14 48 -24
56 -30 72 -30 93 -1 15 -9 21 -31 23 -36 4 -68 30 -61 49 3 8 0 23 -7 35 -9
16 -9 22 0 25 8 3 8 13 -3 39 -17 40 -8 59 33 75 13 5 27 19 32 32 5 14 16 27
25 30 12 5 13 13 5 44 -6 21 -17 43 -25 49 -18 14 -31 74 -16 74 6 0 14 -4 17
-10 3 -5 21 -10 39 -10 29 0 33 3 29 23 -4 21 1 26 41 37 42 11 48 11 66 -5
17 -15 22 -16 36 -4 12 10 20 10 35 1 17 -11 19 -9 19 14 0 22 4 25 28 22 23
-3 27 1 30 26 2 17 18 47 36 68 30 34 32 42 28 90 -5 60 26 163 56 188 16 13
17 19 5 47 -7 17 -17 34 -23 38 -5 3 -10 11 -10 18 0 8 3 8 12 -1 17 -17 63
-15 78 3 7 8 21 15 32 15 13 0 18 5 15 13 -6 15 31 43 51 39 6 -2 12 4 12 12
0 25 22 66 37 66 7 0 13 11 13 27 0 14 3 23 7 20 3 -4 13 -2 20 5 11 9 16 9
22 -1 6 -10 10 -9 15 4 15 40 7 45 -68 45 -21 0 -27 3 -23 14 3 8 9 31 13 50
3 20 10 36 16 36 5 0 6 4 3 10 -3 5 5 15 18 21 16 7 25 19 25 35 0 13 -5 24
-10 24 -19 0 -26 45 -10 63 14 15 14 20 1 32 -23 24 -42 2 -44 -51 -3 -73 -13
-96 -36 -84 -14 8 -17 7 -13 -3 8 -21 -22 -40 -51 -33 -18 5 -25 2 -25 -9 0
-23 -16 -18 -49 14 -20 20 -28 36 -24 49 2 11 0 23 -6 26 -6 4 -11 22 -11 40
0 33 -42 86 -68 86 -6 0 -14 11 -18 24 -6 25 -29 40 -45 30 -14 -8 -47 35 -60
79 -7 20 -16 37 -20 37 -11 0 -61 89 -54 99 3 5 2 17 -1 26 -6 14 -15 16 -52
11 -39 -5 -49 -3 -70 16 l-25 23 6 -24z m357 -686 c14 -16 10 -18 -14 -9 -9 3
-16 10 -16 15 0 14 16 11 30 -6z m-3833 -1351 c29 -8 39 -34 12 -34 -13 0 -18
4 -13 13 6 9 4 9 -8 -1 -14 -11 -18 -10 -28 7 -12 23 -4 26 37 15z m73 -82 c0
-15 -2 -15 -10 -2 -13 20 -13 33 0 25 6 -3 10 -14 10 -23z m14 -143 c6 -5 -4
-8 -22 -6 -19 1 -32 8 -32 15 0 14 36 8 54 -9z m-731 -947 c-21 -3 -22 -5 -7
-27 23 -36 14 -66 -31 -96 -23 -16 -39 -34 -37 -43 3 -18 1 -19 -22 -10 -13 5
-14 9 -5 20 6 8 8 14 3 14 -4 0 1 7 12 15 10 8 14 15 7 15 -21 0 -19 35 2 45
11 6 20 16 20 23 0 7 6 17 14 21 7 5 11 13 7 19 -7 11 33 21 49 13 6 -4 0 -7
-12 -9z m-690 -656 c12 -9 14 -16 7 -21 -12 -7 -40 11 -40 26 0 13 12 11 33
-5z m3260 -159 c4 -11 2 -14 -8 -11 -7 3 -16 13 -19 22 -3 9 -9 23 -12 31 -4
7 2 5 13 -6 11 -11 22 -27 26 -36z m193 -44 c-7 -7 -26 7 -26 19 0 6 6 6 15
-2 9 -7 13 -15 11 -17z m92 -11 c6 -19 -27 -26 -53 -12 -14 7 -23 16 -21 19 7
11 70 4 74 -7z m-13 -110 c-3 -3 -11 0 -18 7 -9 10 -8 11 6 5 10 -3 15 -9 12
-12z m-51 -203 c16 -8 27 -24 32 -48 9 -40 12 -141 4 -141 -17 1 -26 21 -27
64 0 34 -6 52 -17 58 -19 11 -48 63 -39 72 9 9 19 8 47 -5z m-3789 -99 c3 -6
-1 -7 -9 -4 -18 7 -21 14 -7 14 6 0 13 -4 16 -10z m576 -763 c18 -49 20 -65 7
-73 -14 -9 -38 23 -31 43 4 9 -2 16 -16 20 -24 6 -27 18 -9 37 18 19 35 10 49
-27z m49 -48 c0 -6 -4 -7 -10 -4 -5 3 -10 11 -10 16 0 6 5 7 10 4 6 -3 10 -11
10 -16z m-60 -38 c0 -12 -20 -25 -27 -18 -7 7 6 27 18 27 5 0 9 -4 9 -9z
m1554 -312 c-3 -5 -10 -7 -15 -3 -5 3 -7 10 -3 15 3 5 10 7 15 3 5 -3 7 -10 3
-15z m96 -39 c0 -5 -4 -10 -10 -10 -5 0 -10 5 -10 10 0 6 5 10 10 10 6 0 10
-4 10 -10z m513 -195 c-3 -9 -8 -14 -10 -11 -3 3 -2 9 2 15 9 16 15 13 8 -4z
m-873 -19 c0 -3 -4 -8 -10 -11 -5 -3 -10 -1 -10 4 0 6 5 11 10 11 6 0 10 -2
10 -4z m-345 -102 c8 -18 15 -38 15 -45 0 -7 7 -20 16 -30 12 -14 22 -16 40
-8 20 7 31 4 53 -12 37 -27 66 -22 66 11 0 19 6 26 25 30 19 4 26 12 28 33 3
25 7 28 29 22 14 -3 39 -9 55 -12 16 -3 32 -12 35 -19 8 -20 71 -55 76 -41 2
6 34 13 76 15 l72 4 -6 -25 c-6 -21 0 -33 29 -63 20 -20 36 -43 36 -51 0 -7 5
-13 12 -13 9 0 9 -3 0 -12 -7 -7 -12 -23 -12 -35 0 -21 -3 -22 -21 -13 -15 9
-24 8 -37 -2 -9 -7 -13 -8 -9 -1 9 15 -53 37 -67 23 -5 -5 -18 -10 -28 -10
-15 0 -17 -4 -10 -16 15 -26 3 -56 -19 -49 -11 4 -19 2 -19 -5 0 -8 -6 -8 -20
0 -10 6 -17 17 -14 24 3 8 0 17 -7 22 -7 4 -10 3 -6 -4 4 -5 4 -17 1 -26 -5
-13 -10 -13 -27 -5 -39 20 -67 52 -67 76 0 13 -6 23 -14 23 -7 0 -19 7 -26 15
-7 8 -23 15 -37 15 -21 0 -92 43 -101 61 -1 3 -20 4 -41 3 -32 -1 -45 4 -67
27 -15 16 -34 29 -42 29 -12 0 -12 3 -2 15 8 9 8 15 2 15 -6 0 -10 8 -10 18 0
9 -3 30 -7 45 -7 27 -7 28 14 15 11 -7 28 -27 36 -44z m295 -364 c0 -5 -2 -10
-4 -10 -3 0 -8 5 -11 10 -3 6 -1 10 4 10 6 0 11 -4 11 -10z m740 -80 c0 -5 -4
-10 -9 -10 -6 0 -13 5 -16 10 -3 6 1 10 9 10 9 0 16 -4 16 -10z"/>
<path d="M12085 13701 c-3 -5 -1 -12 5 -16 12 -7 30 2 30 16 0 12 -27 12 -35
0z"/>
<path d="M12176 13696 c3 -7 -2 -16 -11 -20 -21 -8 -12 -20 37 -56 30 -22 43
-26 52 -18 14 13 9 58 -6 58 -5 0 -21 11 -36 25 -30 28 -44 32 -36 11z"/>
<path d="M11755 13654 c-4 -22 -2 -41 4 -47 17 -17 13 -30 -9 -24 -11 3 -20 1
-20 -4 0 -20 -42 -49 -71 -49 -19 0 -28 -4 -23 -11 3 -6 1 -22 -6 -35 -10 -18
-19 -22 -37 -18 -17 5 -23 2 -23 -10 0 -9 -7 -19 -15 -22 -9 -4 -15 -19 -15
-41 0 -19 4 -32 9 -28 5 3 12 1 16 -5 3 -5 17 -10 30 -10 13 0 28 -6 32 -14
11 -19 62 -22 95 -6 23 11 26 16 16 33 -10 19 -8 20 26 14 27 -4 36 -2 36 9 0
8 5 14 10 14 6 0 10 9 10 20 0 11 -5 20 -10 20 -6 0 -13 7 -16 15 -7 17 38 65
62 65 18 0 18 10 -2 38 -14 21 -14 22 11 22 17 0 25 5 22 13 -2 7 -18 11 -38
9 -28 -2 -31 -1 -16 8 18 12 24 50 7 50 -5 0 -10 7 -10 16 0 12 -3 14 -13 6
-8 -7 -18 -7 -27 -2 -24 15 -27 12 -35 -26z"/>
<path d="M11321 13158 c10 -19 39 -25 39 -8 0 6 7 10 16 10 8 0 12 4 9 10 -3
5 -21 9 -40 7 -28 -2 -32 -5 -24 -19z"/>
<path d="M15111 12319 c3 -29 -2 -40 -26 -49 -15 -6 -23 -15 -19 -24 8 -20
-17 -32 -30 -14 -12 16 -40 13 -30 -3 6 -10 -15 -34 -31 -34 -5 -1 -29 -4 -52
-9 -33 -6 -43 -12 -43 -27 0 -10 -4 -19 -10 -19 -5 0 -25 -10 -43 -23 -28 -19
-33 -27 -25 -41 9 -16 7 -17 -13 -11 -13 4 -21 4 -17 0 7 -7 -6 -23 -48 -58
-17 -14 -27 -15 -48 -8 -19 8 -26 7 -26 -1 0 -6 -7 -19 -15 -28 -12 -14 -13
-26 -4 -75 8 -45 8 -65 -2 -84 -7 -14 -11 -39 -10 -54 2 -16 -3 -42 -10 -58
-9 -23 -9 -35 0 -52 9 -17 9 -30 2 -50 -9 -23 -15 -26 -37 -21 -20 5 -25 4
-19 -5 4 -8 -1 -14 -14 -18 -12 -3 -21 -13 -21 -25 0 -17 5 -19 33 -13 17 4
37 13 43 21 8 10 21 13 38 8 33 -8 72 22 68 54 -4 25 -3 26 31 13 14 -6 28 -7
32 -3 4 4 24 7 46 8 46 0 57 9 41 32 -24 34 -33 65 -21 72 7 5 -6 19 -33 36
-33 23 -44 37 -46 61 -2 17 -9 37 -17 43 -12 10 -11 15 5 33 13 13 18 28 14
44 -5 20 -3 23 24 23 23 0 36 -8 52 -30 26 -37 35 -37 52 -2 19 38 4 122 -21
115 -10 -2 -23 3 -30 11 -10 12 -10 16 -2 16 23 0 81 55 81 77 0 27 16 38 34
23 8 -6 16 -7 18 -3 3 4 3 3 2 -4 -2 -6 4 -17 12 -23 8 -7 14 -21 14 -31 0
-13 5 -17 17 -12 11 4 14 3 9 -5 -7 -11 -2 -14 34 -16 8 -1 16 -11 18 -23 4
-28 22 -30 22 -3 0 13 7 20 20 20 13 0 18 5 13 15 -3 9 2 24 12 35 9 10 14 23
11 29 -4 5 3 12 14 16 11 3 20 11 20 16 0 5 7 9 14 9 12 0 13 6 4 32 -16 47
-39 70 -55 56 -13 -10 -18 -1 -14 29 1 6 -3 15 -9 18 -6 4 -11 1 -9 -6z"/>
<path d="M14875 12080 c3 -5 8 -10 11 -10 2 0 4 5 4 10 0 6 -5 10 -11 10 -5 0
-7 -4 -4 -10z"/>
<path d="M15141 12004 c-36 -36 -19 -40 20 -5 19 18 27 31 19 30 -8 -1 -26
-12 -39 -25z"/>
<path d="M14358 11493 c-10 -2 -18 -8 -18 -13 0 -18 16 -18 39 1 22 18 16 22
-21 12z"/>
<path d="M14435 11490 c-3 -5 1 -10 9 -10 9 0 16 5 16 10 0 6 -4 10 -9 10 -6
0 -13 -4 -16 -10z"/>
<path d="M14505 11490 c-3 -5 -1 -10 4 -10 6 0 11 5 11 10 0 6 -2 10 -4 10 -3
0 -8 -4 -11 -10z"/>
<path d="M8810 11271 c0 -5 5 -13 10 -16 6 -3 10 -2 10 4 0 5 -4 13 -10 16 -5
3 -10 2 -10 -4z"/>
<path d="M8842 11250 c5 -18 48 -27 48 -10 0 6 -5 8 -10 5 -6 -4 -18 -1 -27 7
-14 11 -16 11 -11 -2z"/>
<path d="M8174 10701 c-19 -10 -29 -22 -26 -30 3 -10 -1 -12 -17 -8 -11 3 -19
1 -16 -3 3 -5 -7 -10 -22 -12 -22 -2 -28 -8 -28 -27 0 -18 -11 -29 -44 -45
-54 -26 -61 -42 -24 -57 15 -6 46 -19 68 -30 22 -10 46 -19 53 -19 6 0 12 -5
12 -11 0 -13 51 -55 62 -52 4 2 10 -7 14 -20 13 -40 94 -75 94 -40 0 15 28 17
49 4 7 -5 11 -13 7 -19 -7 -12 31 -52 49 -52 6 0 18 9 27 20 16 18 16 21 1 35
-10 10 -25 14 -39 11 -18 -5 -27 0 -40 18 -8 14 -13 29 -10 35 3 5 1 11 -5 13
-7 2 -7 12 0 31 8 20 8 34 1 48 -12 22 -7 24 21 9 13 -7 19 -7 20 0 1 5 2 15
3 20 0 6 7 14 14 19 10 6 11 19 6 46 -5 26 -3 40 7 45 10 7 10 14 2 32 -7 13
-12 18 -12 11 -1 -14 -47 -3 -84 22 -14 9 -30 14 -35 11 -4 -2 -24 -1 -43 3
-23 5 -44 2 -65 -8z m147 -234 c-13 -13 -26 -3 -16 12 3 6 11 8 17 5 6 -4 6
-10 -1 -17z"/>
<path d="M7916 10584 c-9 -23 -2 -28 13 -10 7 8 8 17 3 20 -6 3 -13 -1 -16
-10z"/>
<path d="M8925 10560 c-6 -19 20 -70 36 -70 16 0 19 19 7 47 -6 15 -11 31 -10
36 4 17 -27 5 -33 -13z"/>
<path d="M7706 10554 c-9 -8 -20 -12 -26 -9 -15 9 -12 -17 4 -40 7 -11 12 -31
10 -45 -1 -14 -3 -29 -3 -33 -1 -4 -9 -7 -18 -5 -14 2 -17 -3 -15 -22 1 -13 9
-28 17 -33 8 -4 15 -14 15 -22 0 -8 16 -16 40 -20 24 -4 40 -12 40 -20 0 -8
14 -22 30 -32 28 -16 39 -33 22 -33 -4 0 -8 -12 -7 -27 0 -33 10 -34 40 -4 13
11 29 19 37 16 9 -4 20 7 31 30 9 19 20 35 24 35 14 0 7 58 -11 85 -12 18 -14
30 -7 39 7 8 6 24 -4 51 -8 22 -14 49 -15 60 -1 18 -1 19 -11 3 -17 -30 -78
-23 -119 12 -40 34 -52 36 -74 14z"/>
<path d="M7605 10380 c4 -6 11 -8 16 -5 14 9 11 15 -7 15 -8 0 -12 -5 -9 -10z"/>
<path d="M7890 10206 c0 -2 8 -10 18 -17 15 -13 16 -12 3 4 -13 16 -21 21 -21
13z"/>
<path d="M8050 10011 c0 -25 6 -27 13 -6 4 8 2 17 -3 20 -6 4 -10 -3 -10 -14z"/>
<path d="M8037 9836 c-4 -10 -5 -21 -2 -24 9 -9 17 6 13 25 -3 17 -4 17 -11
-1z"/>
<path d="M8316 9235 c-9 -26 -7 -32 5 -12 6 10 9 21 6 23 -2 3 -7 -2 -11 -11z"/>
<path d="M8256 9197 c2 -7 13 -18 24 -25 16 -10 20 -10 20 0 1 8 6 5 15 -6 13
-17 15 -17 29 -3 32 31 14 53 -30 37 -19 -8 -30 -8 -38 0 -14 14 -26 13 -20
-3z"/>
<path d="M6932 7786 c7 -8 17 -12 22 -9 4 3 2 9 -5 14 -22 13 -31 11 -17 -5z"/>
<path d="M6970 7784 c0 -4 16 -24 35 -45 19 -21 32 -44 30 -51 -5 -12 62 -58
84 -58 6 0 11 14 11 30 0 23 -6 33 -25 42 -14 6 -24 17 -21 24 6 17 -26 44
-53 44 -12 0 -31 5 -42 10 -10 6 -19 8 -19 4z"/>
<path d="M7131 7567 c-37 -69 -37 -69 -54 -53 -17 17 -37 21 -37 8 0 -5 11
-19 26 -32 21 -21 27 -22 35 -10 8 13 11 13 23 -3 11 -14 19 -16 40 -7 15 5
42 10 59 10 l32 0 -25 20 c-14 11 -30 20 -36 20 -6 0 -17 14 -24 30 -17 40
-25 44 -39 17z"/>
<path d="M7100 7445 c0 -8 4 -15 10 -15 5 0 7 7 4 15 -4 8 -8 15 -10 15 -2 0
-4 -7 -4 -15z"/>
<path d="M7550 7200 c0 -5 5 -10 11 -10 5 0 7 5 4 10 -3 6 -8 10 -11 10 -2 0
-4 -4 -4 -10z"/>
<path d="M9077 6731 c-4 -17 -3 -21 5 -13 5 5 8 16 6 23 -3 8 -7 3 -11 -10z"/>
<path d="M8603 6720 c4 -16 0 -20 -20 -20 -22 0 -24 -2 -12 -16 7 -8 21 -13
31 -11 11 3 18 0 18 -9 0 -8 5 -14 11 -14 5 0 8 -4 5 -9 -4 -5 -7 -35 -7 -67
-1 -44 2 -60 15 -70 12 -9 16 -22 13 -46 -4 -30 -5 -31 -12 -10 -4 12 -14 22
-22 22 -22 0 2 -36 34 -50 55 -22 72 -34 82 -57 8 -18 8 -23 -4 -23 -18 0 -18
0 1 -39 8 -17 20 -29 25 -26 5 4 9 1 9 -5 0 -8 9 -10 23 -7 42 11 51 -4 34
-62 -15 -51 -12 -62 18 -67 6 -1 18 -5 28 -9 14 -6 17 -2 17 20 0 18 6 29 20
32 11 3 17 9 14 14 -5 8 43 14 94 11 17 0 22 5 22 23 0 34 10 55 26 55 8 0 20
11 26 25 6 14 20 25 30 25 15 0 17 3 8 19 -14 28 -13 41 5 41 21 0 30 27 15
45 -7 8 -10 21 -7 29 3 8 -2 16 -14 19 -20 5 -20 6 0 26 28 28 27 45 -1 38
-48 -12 -92 58 -67 106 9 15 7 20 -10 24 -12 3 -21 12 -21 19 0 8 -9 14 -21
14 -12 0 -17 -4 -13 -11 4 -8 -3 -9 -23 -5 -23 5 -32 3 -36 -8 -4 -10 -19 -16
-37 -16 -40 0 -120 20 -120 30 0 8 -51 21 -87 22 -13 0 -23 4 -23 9 0 5 -16 9
-36 9 -31 0 -36 -3 -31 -20z"/>
<path d="M9110 6312 c0 -5 7 -15 15 -22 8 -7 15 -8 15 -2 0 5 -7 15 -15 22 -8
7 -15 8 -15 2z"/>
<path d="M8940 6158 c0 -19 2 -20 10 -8 13 19 13 30 0 30 -5 0 -10 -10 -10
-22z"/>
</g>
</svg>
