<?xml version="1.0" standalone="no"?>
<!DOCTYPE svg PUBLIC "-//W3C//DTD SVG 20010904//EN"
 "http://www.w3.org/TR/2001/REC-SVG-20010904/DTD/svg10.dtd">
<svg version="1.0" xmlns="http://www.w3.org/2000/svg"
 width="1011.543421pt" height="939.757812pt" viewBox="0 0 1011.543421 939.757812"
 preserveAspectRatio="xMidYMid meet">
<metadata>
Created by potrace 1.15, written by Peter Selinger 2001-2017
</metadata>
<g transform="translate(-500.456579,1474.360990) scale(0.100000,-0.100000)"
fill="#222222" stroke="none">
<path d="M5832 14734 c-8 -14 -19 -16 -62 -11 -48 6 -52 5 -47 -13 3 -13 0
-20 -9 -20 -8 0 -14 -6 -14 -12 0 -24 -49 -60 -73 -55 -12 3 -31 1 -42 -3 -11
-5 -15 -9 -10 -10 18 -3 -29 -19 -56 -19 -34 -1 -45 -27 -19 -41 24 -13 26
-30 5 -30 -8 0 -15 -4 -15 -10 0 -5 -6 -7 -14 -4 -8 3 -17 23 -21 45 -4 23
-12 39 -20 39 -7 0 -27 11 -44 25 -22 20 -34 24 -48 17 -50 -26 -91 -38 -120
-36 -20 1 -30 -2 -27 -8 9 -14 -15 -28 -49 -28 -25 0 -27 3 -21 23 3 12 3 19
-1 15 -4 -4 -15 -3 -25 2 -15 8 -18 4 -23 -32 -7 -50 0 -68 24 -68 10 0 19 -4
19 -8 0 -5 11 -14 25 -20 21 -10 25 -19 25 -52 0 -27 5 -43 15 -46 22 -9 18
-22 -11 -37 l-25 -13 24 -13 c33 -18 54 -68 47 -111 -3 -19 -1 -42 4 -51 15
-27 1 -45 -63 -80 -34 -19 -61 -39 -61 -46 0 -6 -9 -15 -20 -18 -17 -5 -18
-10 -8 -28 6 -12 12 -35 14 -52 2 -16 6 -52 10 -78 8 -63 -2 -114 -24 -121
-13 -4 -18 -18 -19 -48 -1 -25 -8 -47 -18 -54 -8 -6 -15 -18 -15 -27 0 -8 -6
-18 -12 -21 -7 -3 -2 -5 12 -4 66 3 83 -3 122 -42 22 -21 48 -42 59 -45 10 -4
19 -11 19 -17 0 -6 7 -19 15 -28 8 -9 17 -34 19 -56 1 -21 6 -47 11 -57 4 -9
4 -28 1 -41 -5 -20 0 -28 24 -43 30 -17 39 -33 20 -33 -5 0 -10 -9 -10 -21 0
-11 4 -18 9 -14 5 3 13 1 16 -5 4 -6 24 -18 46 -27 43 -17 45 -21 27 -70 -9
-25 -17 -33 -30 -29 -11 2 -18 -1 -17 -7 4 -35 -1 -40 -25 -24 -22 15 -25 15
-42 -4 -18 -20 -18 -21 0 -35 10 -7 23 -11 28 -8 4 3 11 -3 15 -13 3 -10 13
-26 20 -35 8 -9 12 -21 9 -27 -10 -16 14 -24 31 -9 9 7 19 12 22 12 29 -6 59
49 40 72 -7 8 -9 18 -5 22 4 4 13 0 19 -9 36 -47 55 -67 78 -82 26 -18 31 -38
44 -192 1 -16 12 -52 23 -78 12 -27 22 -57 22 -68 0 -10 6 -19 14 -19 20 0 64
-62 48 -68 -8 -2 -9 -9 -2 -22 7 -13 7 -27 -1 -43 -9 -20 -6 -28 20 -56 29
-31 31 -32 71 -20 58 18 90 1 90 -45 0 -19 -4 -38 -10 -41 -15 -9 -13 -18 15
-59 14 -21 25 -43 24 -49 -3 -20 13 -67 22 -67 5 0 9 -4 9 -10 0 -5 -7 -7 -15
-4 -9 4 -16 -3 -21 -20 -3 -14 -12 -26 -19 -26 -25 0 -20 -83 7 -126 10 -15
146 -25 192 -14 33 7 39 5 58 -20 14 -19 33 -31 59 -35 20 -4 45 -15 55 -26
21 -24 38 -25 29 -1 -4 9 -9 23 -12 30 -4 8 6 12 29 12 30 0 36 -5 47 -34 11
-27 19 -33 42 -32 16 1 29 6 29 13 0 7 8 17 18 22 14 8 25 4 45 -15 15 -14 27
-31 27 -39 0 -8 9 -19 20 -25 23 -12 27 -35 5 -26 -8 3 -15 1 -15 -4 0 -6 6
-10 14 -10 8 0 16 -7 20 -15 6 -15 36 -21 36 -7 0 4 19 9 42 9 27 2 38 -1 29
-6 -11 -7 -10 -12 8 -22 23 -15 30 -55 7 -46 -32 13 -48 -39 -20 -67 21 -22
37 -20 29 3 -5 18 -4 18 47 0 29 -10 63 -18 75 -19 31 0 74 -21 67 -32 -7 -11
55 -78 72 -78 6 0 24 -16 39 -35 14 -20 40 -41 56 -48 20 -8 40 -29 57 -62 20
-37 39 -56 70 -72 24 -12 58 -38 77 -57 18 -20 40 -34 47 -31 10 4 14 -3 13
-21 0 -19 6 -28 19 -30 10 -1 23 -7 29 -13 6 -6 23 -11 38 -11 15 0 31 -5 34
-10 10 -17 83 -60 100 -60 9 0 27 -8 41 -17 16 -10 28 -13 32 -7 8 12 52 16
52 5 0 -4 17 -13 39 -19 21 -7 44 -19 51 -27 7 -8 20 -15 30 -15 12 0 20 -10
24 -32 6 -33 39 -58 77 -58 9 0 22 -7 29 -15 7 -8 16 -12 22 -9 5 3 15 1 22
-5 7 -6 22 -8 31 -4 14 5 17 3 12 -9 -3 -10 1 -18 13 -21 13 -3 20 2 24 16 4
17 8 19 18 9 6 -6 22 -12 34 -12 36 0 54 -11 54 -32 0 -16 6 -19 34 -17 28 3
39 -2 55 -23 22 -28 27 -43 11 -33 -5 3 -10 -1 -10 -9 0 -9 6 -16 14 -16 14 0
52 -45 75 -88 8 -15 9 -28 2 -39 -6 -12 -5 -26 6 -46 9 -17 11 -33 5 -40 -19
-26 -11 -53 24 -72 26 -14 31 -21 23 -31 -9 -11 -7 -15 5 -20 9 -3 16 -12 16
-19 0 -7 8 -23 19 -36 14 -18 27 -23 55 -21 30 2 35 0 29 -14 -4 -10 1 -22 12
-30 14 -10 15 -16 6 -27 -9 -11 -8 -17 4 -27 8 -7 13 -16 10 -20 -3 -4 0 -22
6 -39 8 -23 8 -35 0 -45 -15 -18 3 -58 32 -71 15 -7 24 -26 34 -69 13 -56 12
-61 -12 -103 -19 -35 -24 -57 -23 -109 1 -39 6 -68 14 -75 8 -6 11 -22 8 -39
-4 -15 -1 -31 5 -34 6 -4 8 -13 4 -19 -4 -6 -7 -23 -7 -36 -1 -15 -9 -30 -22
-36 -21 -10 -21 -12 -5 -44 14 -26 15 -41 7 -81 -8 -41 -6 -55 11 -96 15 -35
18 -52 11 -61 -7 -9 -7 -13 0 -13 5 0 8 -9 5 -20 -3 -12 1 -22 10 -26 10 -4
14 -18 13 -47 -2 -23 1 -45 7 -48 14 -10 -12 -51 -29 -45 -20 8 -17 -7 7 -38
16 -21 17 -26 5 -26 -28 0 -65 -22 -59 -36 3 -10 -5 -16 -25 -20 -29 -6 -30
-9 -29 -48 l2 -41 -45 -5 c-28 -3 -40 -8 -32 -13 15 -10 16 -44 0 -49 -8 -3
-4 -12 10 -26 12 -12 22 -28 22 -34 0 -7 23 -28 50 -47 51 -35 101 -106 100
-145 0 -42 -3 -61 -11 -72 -6 -7 -1 -18 11 -29 15 -14 20 -31 20 -72 0 -29 5
-53 10 -53 6 0 10 5 10 10 0 6 12 10 28 10 18 0 23 -3 14 -9 -10 -6 -10 -10 2
-21 19 -15 11 -59 -13 -77 -15 -11 -15 -12 0 -13 9 0 21 11 27 25 13 28 27 32
35 11 3 -7 28 -16 57 -20 38 -5 53 -12 57 -25 2 -9 23 -24 45 -32 27 -9 47
-25 58 -44 13 -23 24 -30 48 -30 20 -1 32 4 32 12 0 7 5 13 10 13 6 0 10 13
10 29 0 41 20 91 36 91 8 0 14 9 14 21 0 16 4 19 17 15 9 -4 19 -3 22 1 12 17
70 52 94 58 14 4 28 13 31 22 3 8 10 12 15 9 5 -3 15 9 22 27 7 17 20 37 28
43 15 12 23 89 23 227 0 38 4 65 9 61 5 -3 9 1 9 9 0 8 8 17 19 20 13 3 20 18
25 51 4 25 11 46 17 46 5 0 9 8 9 17 0 9 3 14 6 10 8 -8 46 40 67 86 l17 38
31 -23 c19 -15 29 -29 25 -40 -2 -10 2 -21 8 -26 18 -10 36 -47 36 -72 0 -12
4 -19 9 -15 6 3 14 -3 20 -12 6 -10 11 -12 11 -5 0 25 18 10 34 -30 10 -24 20
-37 23 -30 12 31 49 -1 44 -39 -1 -10 8 -19 22 -23 13 -3 36 -17 51 -31 25
-23 50 -31 86 -26 44 6 116 -1 129 -13 32 -26 43 -29 39 -10 -3 19 19 54 35
54 14 0 57 49 48 54 -15 10 1 57 26 73 22 15 26 15 40 0 13 -13 14 -24 6 -66
-8 -39 -7 -53 4 -64 14 -13 8 -47 -7 -47 -5 0 -3 -12 5 -27 21 -41 7 -42 -26
-3 -18 21 -27 27 -23 15 16 -43 35 -63 55 -58 10 3 26 0 34 -7 19 -16 19 -59
0 -66 -20 -8 -19 -24 2 -39 15 -11 15 -14 1 -34 -12 -17 -15 -38 -11 -84 3
-34 10 -68 16 -75 7 -9 4 -18 -9 -33 -18 -20 -18 -21 6 -39 14 -10 25 -29 25
-44 2 -31 31 -66 56 -66 10 0 26 -11 35 -25 13 -21 15 -36 7 -88 -8 -55 -7
-65 9 -82 12 -12 15 -21 7 -25 -7 -5 0 -16 18 -30 25 -19 28 -20 31 -5 2 10
10 14 19 11 8 -3 19 -6 24 -6 5 0 9 -6 9 -14 0 -16 24 -28 43 -20 26 10 52
-22 51 -64 -1 -33 2 -39 16 -35 10 3 21 0 25 -7 9 -14 34 17 35 44 0 15 5 17
34 12 24 -5 37 -2 46 9 19 22 53 18 80 -10 22 -24 36 -27 90 -24 14 1 42 2 63
2 20 1 37 5 37 9 0 13 34 9 55 -6 14 -9 27 -11 43 -5 19 7 21 12 12 28 -14 27
-13 34 6 27 10 -4 25 5 42 24 32 37 65 39 80 6 9 -19 8 -27 -4 -37 -8 -7 -13
-18 -10 -25 3 -7 -2 -18 -10 -25 -9 -7 -13 -21 -10 -32 3 -13 0 -17 -9 -13 -7
2 -21 -4 -30 -14 -10 -11 -26 -22 -35 -25 -22 -7 -34 -49 -21 -73 12 -23 -20
-65 -43 -56 -25 10 -19 -10 14 -41 21 -20 27 -32 20 -40 -7 -9 -5 -17 6 -26
20 -17 64 -19 64 -4 0 6 9 11 20 11 15 0 20 -6 19 -21 -2 -11 0 -30 4 -41 8
-22 9 -22 179 -43 32 -4 63 -12 70 -19 7 -7 20 -12 29 -12 10 0 21 -9 24 -20
7 -21 79 -57 103 -52 7 2 27 -12 46 -30 18 -18 56 -49 84 -68 29 -19 52 -40
52 -46 0 -12 33 -30 73 -38 15 -4 27 -12 27 -20 0 -12 15 -16 122 -30 10 -1
25 -9 35 -18 10 -9 27 -18 38 -20 13 -2 19 -11 18 -23 -2 -21 63 -75 90 -75 8
0 20 -7 27 -15 7 -8 18 -15 25 -15 7 0 18 -7 25 -15 7 -9 20 -13 28 -10 10 4
13 0 9 -14 -3 -12 1 -22 10 -26 12 -4 14 0 10 15 -6 24 -6 24 78 5 50 -12 70
-13 81 -4 7 6 19 9 26 6 19 -6 66 23 71 45 3 11 14 18 31 18 14 0 26 4 26 9 0
5 9 12 19 16 11 3 23 15 26 26 9 29 47 44 73 30 19 -10 27 -6 62 25 22 20 40
43 40 50 0 18 4 18 41 -2 16 -8 39 -12 50 -9 11 4 35 0 54 -9 26 -13 32 -20
28 -37 -4 -12 -15 -24 -25 -27 -15 -3 -18 -11 -14 -28 4 -13 1 -24 -7 -27 -6
-3 3 -8 21 -12 36 -8 52 -30 52 -69 0 -17 10 -31 35 -46 20 -12 34 -27 32 -34
-2 -6 4 -22 14 -35 24 -30 24 -67 2 -80 -14 -8 -15 -13 -5 -35 7 -17 8 -34 3
-50 -8 -21 -6 -24 25 -34 21 -6 36 -7 40 -1 3 6 14 7 24 4 10 -3 20 0 23 8 6
15 83 41 96 33 5 -3 12 1 15 10 5 14 9 13 24 -5 10 -13 30 -22 50 -24 30 -2
50 -25 44 -49 -1 -5 3 -8 10 -8 6 0 8 -3 5 -6 -12 -13 44 -46 81 -48 21 -2 59
-15 85 -30 26 -16 54 -25 63 -22 18 7 77 -31 69 -44 -3 -4 6 -15 20 -24 28
-18 34 -46 10 -46 -12 0 -13 -4 -5 -19 14 -28 13 -31 -16 -31 -24 0 -24 -1
-10 -22 9 -12 16 -30 16 -38 0 -9 8 -25 18 -36 46 -49 52 -65 37 -94 -11 -21
-11 -30 -2 -39 9 -9 9 -14 -1 -20 -10 -6 -10 -10 2 -20 10 -8 12 -24 9 -52 -4
-29 -1 -44 12 -59 18 -20 62 -29 50 -11 -3 5 -1 12 5 16 5 3 10 17 10 31 0 16
8 27 23 33 12 5 29 25 36 44 13 31 19 35 62 41 32 4 49 11 49 21 0 17 39 85
49 85 16 0 52 43 47 57 -4 10 -1 13 12 9 27 -9 47 72 27 110 -9 18 -11 32 -5
40 7 7 2 23 -15 48 -14 21 -21 35 -16 32 5 -3 12 1 15 10 4 10 0 18 -13 21
-33 8 -30 87 5 131 5 7 74 -44 74 -55 0 -18 19 -16 27 3 3 9 -4 24 -16 36 -26
24 -22 34 8 19 15 -9 30 -7 63 6 55 21 126 23 138 3 5 -8 13 -15 17 -16 4 0
24 -4 43 -9 19 -5 49 -9 65 -10 22 -1 30 -6 30 -20 0 -14 13 -23 47 -33 30
-10 50 -23 57 -38 10 -22 12 -23 50 -9 21 7 42 11 45 8 3 -3 13 0 22 8 14 12
14 14 -6 21 -18 7 -19 11 -10 29 9 15 19 20 37 16 21 -4 24 -1 20 15 -5 16 -2
19 14 15 17 -4 18 -3 8 9 -9 11 -8 14 5 14 9 0 16 5 16 10 0 6 18 10 40 10
l40 0 0 59 c0 49 -4 65 -25 89 -17 20 -31 28 -44 25 -13 -3 -25 3 -36 20 -9
14 -23 23 -30 21 -7 -3 -18 3 -24 14 -6 11 -27 30 -46 42 -19 12 -35 28 -35
36 0 9 -25 27 -57 41 -59 27 -92 57 -93 82 0 8 -11 26 -24 40 -13 15 -34 59
-47 100 -13 40 -29 76 -36 78 -7 3 -13 19 -13 35 0 32 -38 78 -64 78 -10 0
-13 12 -12 40 1 22 -2 40 -7 40 -5 0 -3 10 6 23 13 21 13 25 -5 50 -11 15 -26
27 -34 27 -23 0 -64 31 -64 49 0 9 -18 24 -40 35 -29 14 -40 25 -40 41 0 13
-11 30 -25 39 -16 11 -25 26 -25 44 0 32 -46 63 -52 34 -2 -9 -17 -16 -43 -19
-22 -2 -45 -10 -50 -17 -8 -10 -16 -11 -27 -5 -10 6 -19 6 -22 0 -4 -5 -39 -7
-82 -4 -66 5 -79 3 -103 -15 -26 -19 -29 -19 -45 -4 -11 12 -19 13 -27 5 -7
-7 -21 -8 -40 -3 -26 8 -30 6 -35 -16 -5 -18 -11 -23 -24 -19 -11 4 -23 -1
-32 -13 -18 -26 -62 -40 -140 -46 -52 -4 -67 -3 -72 9 -3 8 -16 15 -28 15 -26
0 -67 24 -118 69 -28 24 -31 31 -16 31 14 0 16 3 8 13 -11 13 -12 17 -12 42 0
8 -9 24 -20 35 -11 11 -17 20 -12 20 4 0 0 5 -8 11 -13 8 -12 12 8 26 15 11
22 26 22 49 0 19 6 43 12 54 10 16 10 24 0 40 -8 13 -8 20 -2 20 7 0 7 6 0 20
-9 17 -8 20 10 20 11 0 20 6 20 13 0 7 14 21 30 30 25 15 30 24 30 59 0 31 3
39 15 34 15 -6 68 14 98 38 14 11 16 22 11 55 -4 27 -3 41 4 41 6 0 9 7 5 16
-4 12 0 14 21 8 21 -5 25 -3 20 10 -3 9 -2 16 2 16 5 0 10 23 11 50 3 47 1 50
-22 50 -14 0 -25 4 -25 9 0 5 -9 11 -20 13 -12 2 -20 5 -18 8 1 3 -13 27 -31
54 -19 27 -34 55 -34 63 0 7 -6 13 -14 13 -13 0 -17 17 -14 53 3 21 -14 21
-58 -1 -34 -17 -59 -51 -29 -40 17 7 78 -20 78 -34 0 -5 -4 -6 -10 -3 -5 3
-10 -1 -10 -10 0 -12 -7 -15 -27 -13 -21 2 -33 13 -47 43 -22 46 -28 105 -10
105 7 0 15 7 18 15 3 9 11 15 18 14 29 -3 38 2 38 25 0 13 -6 26 -12 29 -7 2
6 9 28 16 23 6 49 8 58 5 13 -5 16 2 16 40 0 36 6 52 29 78 38 44 61 101 61
154 0 23 5 46 10 49 15 9 12 51 -5 65 -8 7 -15 18 -15 25 0 8 -6 16 -12 18 -9
4 -9 6 -1 6 6 1 9 10 5 23 -4 16 -2 19 8 13 10 -6 11 -2 6 19 -3 14 -3 26 2
26 5 0 17 16 28 35 10 19 22 35 26 35 5 0 8 7 8 16 0 9 9 27 20 41 11 14 20
35 20 47 0 12 9 27 20 34 11 7 20 21 20 32 0 11 9 29 20 40 18 18 19 25 10 67
-11 48 -5 103 11 103 5 0 17 16 26 35 14 29 15 42 6 65 -9 24 -9 30 2 30 7 0
16 -6 19 -12 3 -9 8 -8 16 5 6 9 20 17 31 17 11 0 22 7 25 15 4 8 15 15 25 15
11 0 22 7 25 15 4 9 19 15 40 15 27 0 37 5 46 25 6 14 16 25 23 25 7 0 10 11
7 29 -2 18 -9 28 -16 25 -7 -3 -19 3 -27 12 -12 16 -12 17 4 11 13 -5 17 -1
17 14 0 13 -11 25 -34 34 -33 14 -54 53 -41 75 3 5 -12 13 -34 16 -54 9 -69
27 -42 51 36 31 26 47 -36 62 -64 14 -83 26 -83 49 0 9 -17 36 -38 61 -43 51
-58 79 -61 115 -2 30 -52 76 -81 76 -16 0 -32 4 -35 10 -9 15 -55 -19 -48 -36
3 -9 -2 -14 -15 -14 -11 0 -22 7 -26 15 -3 9 -18 15 -35 15 -23 0 -42 12 -74
44 -49 48 -58 50 -233 57 -71 3 -84 1 -108 -19 -20 -15 -42 -22 -73 -22 -24 0
-54 -5 -65 -11 -24 -13 -39 2 -31 30 7 26 -44 71 -81 72 -17 0 -25 3 -18 6 18
7 15 26 -9 46 -19 17 -20 20 -5 36 9 10 16 22 15 27 -3 20 2 35 10 29 5 -3 12
4 16 15 3 11 12 20 20 20 13 0 23 45 28 127 1 27 10 50 25 66 20 21 22 28 11
44 -10 17 -9 23 10 42 11 11 22 29 22 39 2 30 -3 57 -12 68 -11 13 -1 24 22
24 25 0 32 16 25 56 -9 44 -49 58 -72 25 -18 -25 -41 -27 -72 -5 -17 12 -26
13 -36 5 -23 -19 -52 0 -47 32 0 4 -8 7 -19 7 -31 0 -110 55 -139 97 -19 29
-26 34 -29 21 -4 -21 -11 -22 -49 -7 -22 8 -30 7 -40 -7 -7 -9 -10 -20 -8 -25
9 -14 -149 -1 -187 15 -44 19 -54 32 -38 51 10 12 9 20 -4 41 -10 14 -16 33
-14 42 2 9 -6 22 -17 27 -11 6 -21 23 -23 38 -2 15 -9 27 -18 27 -8 0 -14 4
-14 10 0 18 -55 100 -67 100 -16 0 -17 16 -3 25 6 4 7 11 4 17 -4 6 -8 20 -9
32 -1 11 -3 24 -4 28 0 3 -9 4 -19 1 -27 -7 -74 39 -66 63 4 10 3 16 -1 11 -5
-4 -18 0 -31 8 -19 12 -23 12 -28 0 -3 -9 -17 -20 -31 -27 -14 -6 -25 -17 -25
-24 0 -18 -66 -29 -96 -15 -22 9 -26 8 -33 -12 -11 -28 -37 -51 -49 -43 -5 3
-17 -3 -27 -14 -14 -15 -31 -20 -71 -20 -33 0 -54 -5 -57 -12 -3 -10 -9 -10
-23 -2 -20 12 -64 -1 -64 -19 0 -5 -11 -2 -25 7 -13 9 -31 16 -38 16 -8 0 -21
18 -30 40 -16 42 -20 44 -101 42 -34 -1 -45 5 -71 36 l-32 36 -28 -22 c-15
-12 -31 -19 -36 -16 -5 3 -9 1 -9 -5 0 -5 5 -13 10 -16 6 -3 10 -1 10 4 0 6 6
11 13 11 19 0 9 -65 -14 -86 -12 -11 -24 -14 -36 -9 -10 5 -21 9 -25 10 -5 2
-9 3 -10 5 -2 1 -18 2 -36 3 -20 1 -31 -2 -28 -9 8 -21 -60 -44 -111 -38 -80
9 -86 12 -141 59 -30 25 -61 45 -70 45 -10 0 -34 12 -55 26 -21 14 -54 32 -73
40 -32 13 -34 13 -34 -5 0 -10 -6 -19 -12 -18 -7 0 -26 -1 -42 -1 l-29 -2 27
-25 c14 -13 26 -29 26 -35 0 -14 -26 -41 -33 -34 -7 8 -50 -16 -60 -32 -4 -8
-15 -14 -22 -14 -8 0 -15 -5 -15 -11 0 -7 -11 -8 -30 -4 -19 4 -30 3 -30 -4 0
-19 -21 -12 -51 19 -20 19 -28 36 -25 47 4 13 -3 23 -25 35 -18 11 -27 22 -23
29 5 9 -7 10 -44 7 -52 -5 -82 10 -82 40 0 18 -20 24 -37 11 -13 -11 -19 -9
-39 14 -13 16 -24 35 -24 43 0 8 -9 24 -20 36 -11 12 -20 18 -20 14 0 -14 -32
17 -40 39 -4 11 -4 25 1 31 16 20 -3 52 -41 69 -27 12 -43 29 -55 56 -10 22
-24 44 -32 50 -10 9 -10 15 -2 25 7 9 7 18 0 33 -6 11 -11 29 -11 41 0 27 -25
67 -72 112 -41 40 -45 54 -24 83 16 22 10 44 -16 63 -21 15 -24 48 -5 55 15 5
-2 59 -21 63 -7 1 -8 0 -2 -3 15 -7 12 -23 -5 -23 -14 0 -16 -5 -19 -40 -1
-11 -11 -14 -34 -12 -18 2 -39 -2 -47 -8 -9 -7 -15 -8 -19 -1 -5 7 -15 7 -33
0 -19 -7 -30 -6 -42 5 -9 7 -31 17 -49 21 -23 5 -36 15 -44 33 -5 15 -14 34
-18 43 -4 8 -4 23 1 32 7 12 4 19 -10 26 -10 6 -25 31 -32 56 -9 31 -19 45
-31 45 -9 0 -22 9 -28 19 -9 18 -54 27 -144 31 -11 1 -41 12 -68 25 -45 23
-49 23 -80 8 -23 -12 -33 -13 -36 -5 -2 7 -17 12 -33 12 -16 0 -47 9 -69 20
-24 12 -41 16 -45 10 -8 -13 -52 -13 -60 0 -8 13 -52 13 -60 1 -8 -13 -60 6
-113 41 -31 20 -50 26 -68 22 -16 -4 -23 -12 -20 -20 4 -11 -5 -12 -42 -8 -26
3 -55 7 -64 9 -10 2 -18 -3 -18 -10 0 -7 -14 -15 -31 -19 -25 -5 -38 0 -73 29
-40 33 -48 35 -115 35 -40 0 -81 5 -92 10 -14 8 -19 7 -19 -1 0 -7 -9 -4 -21
7 -13 11 -19 27 -16 41 2 12 -1 24 -7 27 -7 3 -7 5 2 5 16 1 15 31 -2 54 -12
15 -14 16 -20 2 -8 -21 -23 -19 -31 6 -5 15 -10 17 -20 9 -8 -6 -22 -7 -36 -2
-13 5 -41 8 -61 6 -31 -2 -45 4 -75 33 -48 44 -93 64 -111 50 -10 -8 -16 -7
-23 4 -5 8 -9 9 -9 3 0 -16 -57 -15 -70 2 -7 7 -16 11 -21 8 -5 -2 -21 1 -36
9 -15 8 -33 12 -40 10 -14 -5 -35 32 -38 67 -1 14 -3 30 -3 37 -1 6 -18 20
-37 32 -24 14 -35 28 -35 43 0 15 -18 41 -46 68 -107 105 -143 145 -135 153
12 12 -19 47 -35 40 -10 -4 -14 5 -14 35 0 23 -6 45 -15 52 -8 7 -15 17 -15
23 0 18 -90 116 -113 123 -12 3 -30 13 -40 22 -9 8 -27 20 -40 26 -12 7 -28
24 -35 38 -18 38 -66 76 -112 88 -27 7 -50 24 -71 50 -22 28 -40 40 -57 40
-14 0 -34 8 -44 17 -14 13 -21 14 -30 5 -16 -16 -73 -15 -107 2 -15 8 -38 31
-52 50 -13 20 -31 36 -40 36 -15 0 -96 107 -91 122 1 4 -10 16 -23 26 -14 11
-25 26 -25 34 0 16 -46 62 -71 71 -9 3 -22 0 -28 -6 -8 -8 -11 -6 -11 10 0 31
-26 49 -38 27z m438 -898 c0 -10 7 -12 23 -8 20 5 21 4 8 -11 -18 -22 -23 -21
-44 8 -15 22 -16 25 -2 25 8 0 15 -6 15 -14z m4 -44 c5 -3 1 -9 -8 -14 -19
-11 -36 -3 -36 17 0 13 17 12 44 -3z m-340 -38 c9 -3 16 -13 16 -21 0 -8 -5
-11 -12 -8 -7 4 -4 -1 7 -9 57 -44 63 -53 58 -79 -6 -30 -17 -33 -51 -13 -21
11 -22 14 -8 25 23 20 20 33 -15 62 -19 15 -29 31 -25 37 8 14 9 14 30 6z
m121 -14 c3 -5 2 -10 -4 -10 -5 0 -13 5 -16 10 -3 6 -2 10 4 10 5 0 13 -4 16
-10z m-16 -26 c5 3 11 -3 14 -15 3 -11 2 -18 -1 -16 -4 2 -22 9 -39 16 -18 7
-33 20 -33 28 0 13 3 13 25 -1 14 -9 29 -14 34 -12z m75 -30 c4 -15 4 -29 1
-32 -7 -7 -34 29 -35 46 0 23 28 12 34 -14z m88 -36 c-11 -11 -32 -3 -32 12 0
5 7 7 15 4 9 -4 15 0 16 7 0 12 2 12 6 1 3 -8 1 -18 -5 -24z m7258 -5278 c0
-5 -2 -10 -4 -10 -3 0 -8 5 -11 10 -3 6 -1 10 4 10 6 0 11 -4 11 -10z m341
-1161 c11 -5 17 -15 13 -21 -4 -5 0 -14 7 -19 7 -4 10 -11 6 -16 -7 -7 -21 7
-31 32 -2 6 -11 6 -24 -2 -24 -14 -32 -9 -25 18 6 21 24 24 54 8z m-1196 -259
c3 -5 1 -10 -4 -10 -6 0 -11 5 -11 10 0 6 2 10 4 10 3 0 8 -4 11 -10z m-40
-11 c4 -6 19 -10 33 -9 54 4 61 -1 43 -29 -14 -22 -101 5 -101 30 0 21 15 25
25 8z"/>
<path d="M9513 12787 c4 -10 7 -23 7 -28 0 -5 7 -9 15 -9 21 0 19 14 -7 36
-20 18 -21 18 -15 1z"/>
<path d="M9520 12730 c0 -16 17 -20 28 -7 8 10 6 13 -9 14 -10 1 -19 -2 -19
-7z"/>
<path d="M8620 8038 c0 -9 5 -20 11 -23 17 -11 20 0 4 21 -13 17 -14 17 -15 2z"/>
<path d="M9043 7944 c-7 -20 12 -41 22 -23 6 8 4 10 -5 4 -10 -6 -12 -3 -8 13
7 25 0 30 -9 6z"/>
<path d="M8979 7911 c11 -7 10 -11 -5 -19 -24 -13 -15 -23 14 -15 26 6 29 28
6 37 -23 9 -31 7 -15 -3z"/>
<path d="M14063 5531 c-3 -12 -10 -21 -16 -21 -6 0 -1 -7 11 -16 25 -18 28
-31 7 -36 -9 -2 -3 -10 18 -24 31 -20 33 -20 62 -3 l30 19 -33 6 c-28 6 -32
11 -32 38 0 40 -38 70 -47 37z"/>
<path d="M13990 5525 c7 -8 19 -15 27 -15 12 0 12 2 -1 15 -8 8 -20 15 -27 15
-9 0 -8 -4 1 -15z"/>
<path d="M14258 5490 c4 -27 2 -30 -24 -31 -26 -2 -26 -2 -5 -6 12 -3 44 -16
69 -29 25 -13 46 -23 47 -22 2 2 6 17 9 34 6 28 3 33 -33 57 -54 36 -69 35
-63 -3z"/>
<path d="M14370 5466 c0 -8 9 -20 21 -26 19 -11 20 -10 10 9 -15 27 -31 36
-31 17z"/>
<path d="M14353 5373 c-3 -10 -8 -21 -9 -24 -2 -3 8 -4 22 -1 16 3 24 10 22
20 -4 23 -27 26 -35 5z"/>
</g>
</svg>
