<svg version="1" xmlns="http://www.w3.org/2000/svg" width="416.339" height="374.808" viewBox="0 0 312.254 281.106"><g fill="#222"><path d="M304.354.748c-2.2.6-2.1.7 1.3 1.9 2 .7 3.6 1.8 3.6 2.3 0 .5.7.9 1.5.9s1.5-.9 1.5-2c0-1.3-.7-2-2-2-1.1 0-2-.5-2-1 0-1.1-.4-1.1-3.9-.1zM299.354 3.248c-.7.9-2.3 1.6-3.5 1.6-3 0-4.6 1.8-4.6 5.3 0 3.8-1.7 6.8-3.5 6.1-1-.4-1.5 0-1.5 1.5 0 1.2-.6 2.4-1.4 2.7-.9.3-1.2 1.2-.9 2.1.4 1.1.3 1.4-.6.9-.8-.5-1.4-.1-1.8 1.3-.3 1.2-.9 2.1-1.3 2.1s-.7 1.5-.8 3.2c-.3 9.9-.5 10.3-4 10.6-3.8.4-10.5-3.9-9.6-6.2.3-.9-.5-1.5-2.3-1.9-1.5-.3-3.8-.7-5-1-1.8-.5-2.3-.2-2.3 1.3 0 1.1-.9 2.4-2 3-1.6.9-2 2.1-2 6.5 0 4.3-.4 5.7-2.1 6.9-1.2.8-1.8 1.9-1.4 2.6.4.6.1 1.8-.6 2.6-1.6 2 .6 3.6 3.8 2.8 1.6-.4 2.5-.1 2.9 1 .8 2.2 4.1 2 7.1-.4 1.9-1.5 3-1.7 4.3-1 3 1.6 4.7 1.2 5.4-1.3.5-2 1.1-2.3 3.6-1.9 3 .4 3.6-.5 3.1-4.6-.1-.6.5-1.2 1.4-1.2 1.1 0 1.5-1.1 1.5-4.5 0-2.5.5-4.5 1.1-4.5.6 0 .8-.8.4-1.9-.8-2.5 1.5-6.1 3.8-6.1 1 0 2.8-.5 4-1.2 1.2-.6 3.4-1.1 5-1 2.5.2 2.7 0 2.1-2.3-.5-1.9 0-3 2.5-5.1 3.1-2.5 3.1-2.7 1.6-5.1-.9-1.4-1.4-2.7-1.2-3 .3-.2.1-1.8-.5-3.4-.7-2.1-.7-3.3.2-4.4.6-.8 1-1.9.8-2.6-.2-.7-.8-.6-1.7.5zm-11.3 20.6c.7 1.1.8 2 .2 2-.5 0-1.4-.9-2-2-.6-1.1-.7-2-.3-2 .5 0 1.4.9 2.1 2zM229.254 29.248c0 2.1.5 2.4 2.6 2.3 1.5-.1 2.9.4 3.2 1.2.3.8 0 1.1-.7.7-.6-.4-1.1-.2-1.1.3 0 1.4 1.7 1.4 2.5.1.8-1.2-3.5-6.9-5.2-6.9-.7-.1-1.3 1-1.3 2.3zM7.254 30.148c0 .8-.6 1.5-1.2 1.4-3.2-.1-4.4.5-5.4 2.7-1.5 3.3-.2 5.5 2.1 3.6 1.5-1.2 1.9-1.2 3 .3.8 1.2 1.5 1.4 2 .8.3-.6 1.7-1.1 3.1-1.1 1.4 0 2.2-.4 1.9-1-.4-.6.6-.7 2.7-.3l3.3.6-1.9-2.1c-1.1-1.2-2.9-2.2-4.1-2.2-1.5 0-2.2-.6-2.1-1.7 0-1-.7-1.9-1.6-2.1-1.1-.2-1.8.3-1.8 1.1zM62.254 31.348c-1 1.2-1 1.8.1 3.2 1.3 1.6 1.2 1.7-.3.4-1-.7-1.8-.9-1.8-.3 0 1.4-5.2 2.2-7.3 1.1-.9-.6-1.7-.6-1.6-.2.1.4.1 1.6 0 2.6-.1 1.7-.3 1.7-2.3.3-1.2-.9-2.8-1.6-3.6-1.6-.7 0-2.8-1.1-4.5-2.4-2.8-2.2-3.7-2.3-7.7-1.6-5.6 1.1-8.1 2-9.9 3.7-1.1 1.2-1 1.8.9 3.8 1.3 1.4 2 2.8 1.7 3.1-.4.4.7 2.5 2.3 4.7 1.7 2.3 3 4.8 3 5.6.1 2.2 3.8 4.7 8.1 5.5 3.4.6 5.4 1.9 12.2 8.2 1.9 1.8 3.1 2.3 4 1.6 1.3-1.1 12.2-1.1 13.3.1.4.4 1.6.7 2.6.7 1.1 0 1.8.7 1.8 1.9 0 2.3 1.6 3.6 2.5 2.1.3-.5 2-1 3.7-1 2.3 0 2.9-.4 2.4-1.5-.6-1.8-.1-1.9 2.5-.5 1.5.8 1.9.7 1.9-.5 0-1.7 2.5-2.1 3.5-.5.4.6 1.2.4 2.2-.5 1.2-1.2 1.8-1.3 2.9-.4.8.6 1.4 1.7 1.4 2.4 0 1.9 2.8 2.6 4.9 1.3 1.5-.9 2.6-.7 5.7 1.3 2.2 1.3 4.2 2.3 4.5 2.2.3-.1 3-.4 5.9-.7 3.4-.3 6-1.2 7.2-2.4 1.9-1.9 1.9-1.9-2.7-3.3-4.2-1.2-5.3-2.2-9.1-8.1-2.4-3.7-4.4-7.5-4.4-8.5-.1-2-2.6-5.7-4-5.9-2.3-.3-2.4-.5-1.3-1.2.8-.5.9-1.2.2-2.2-.7-1.1-1.2-1.1-1.5-.3-.4.8-1.4.9-3.7.2-1.8-.6-4.3-1.2-5.6-1.5-1.4-.3-3-1.2-3.6-2.1-1-1.3-1.5-1.4-3.5-.2-1.8 1.1-2.4 1.1-2.7.1-.3-.6-.8-1-1.3-.7-1.2.8-7.3-2.1-9.2-4.4-1-1.2-2.5-2.2-3.3-2.2-3.2-.3-3.6-.4-4.4-1.7-.6-1-1-1-2.1.3zM238.354 30.748c-.8.5-.9 1.1-.3 1.5.5.3 1.2-.1 1.6-.9.6-1.7.6-1.8-1.3-.6zM232.754 37.848c-.3.5-.1 1 .4 1 .6 0 1.1-.5 1.1-1 0-.6-.2-1-.4-1-.3 0-.8.4-1.1 1zM255.654 62.448c.9 2.8-3.4 4.6-6.9 2.8-1.4-.7-2.3-.9-2-.5.2.5-2 2.6-5 4.6-3 2.1-5.7 4.6-6 5.6-.4 1.1-1.3 1.6-2.6 1.4-2-.4-9.1 3.3-10.4 5.5-.3.6-1 .8-1.5.5-.5-.3-2.3.1-4 1-2.4 1.2-4.4 1.4-8.3.9-6.6-.9-11.9-.6-13.1.6-.6.6-1.4.3-2.2-.8-1.1-1.6-1.3-1.5-2.3.8-1.9 4.5-3.5 5.8-6.4 5.3-1.9-.4-3.2 0-4 1.1-1 1.4-2.1 1.6-5.5 1-2.4-.4-5-1.3-5.8-2.1-1.2-1.3-1.5-1.2-2 .1-.4 1.1-1.9 1.6-4.3 1.6-2 0-4.2.5-4.7 1-.6.6-2.5.7-4.2.4-2.6-.5-3-.9-2.1-2 .9-1.1.5-1.6-1.7-2.6-1.6-.7-4.1-2.4-5.5-3.8-5.1-4.9-5.5-5-7.3-3.1-.9 1-1.6 2.9-1.6 4.3s-1.1 4.6-2.5 7.1c-1.4 2.4-2.3 5.1-2 5.9.3.8-.1 2.1-1 2.8-.8.7-1.5 2-1.5 2.9-.1 2.1-2.4 5.1-3.9 5.1-.7 0-1 .4-.7.9.4.5.2 2.1-.4 3.6-.8 2.2-1.5 2.6-3.5 2.3-2.1-.4-2.3-.3-1.4 1.3.5 1.1 1.6 1.9 2.4 1.9.8 0 1.5.7 1.5 1.5 0 .9 1 1.9 2.3 2.4 1.3.5 2.9 1.6 3.7 2.5 1.2 1.5 1.1 1.8-.8 2.2-1.1.3-2.3 1.7-2.7 3.1-.5 2-1.1 2.4-3 2.1-2.4-.5-2.5-.5-1.9 6.4.4 6.6.4 6.9-1.6 6.3-1.4-.5-2-.2-2 .9 0 2-1.1 2-3.6.1-2.1-1.6-5.8-2-4.9-.5.3.5-.4 1.9-1.5 3-1.6 1.6-2.4 1.8-4 1-1.4-.7-2-.7-2 0 0 .5-.6 1-1.2 1-.7 0-1.3 1.1-1.3 2.5 0 2.8 1.2 3.3 2.1 1 .9-2.2 3.1-1.8 3.8.7.9 3.4.8 3.8-.9 3.8-.8 0-1.5.7-1.5 1.6 0 .8-.4 1.3-.9 1-1.3-.8-2.1 4.7-.9 6.1.5.7.7 1.7.3 2.3-.8 1.3-3.5 1.3-3.5 0 0-.6.4-1 1-1 .5 0 .7-.7.4-1.5-.7-1.6-3.4-2.1-3.4-.6 0 .5-.8 1.2-1.7 1.4-1.6.4-1.6.5 0 .6 1 0 1.7.7 1.5 1.3-.3.7.8 3 2.3 5.1 2.1 2.9 2.7 4.6 2.2 6.8-.3 1.6 0 3.5.6 4.3.9 1.1.6 1.7-1.3 3-1.4.9-3 1.6-3.6 1.6-.7 0-.6 1 .3 2.6 1.2 2.3 1.2 3.4-.5 8.8-1.9 6.1-4.2 9.6-6.3 9.6-1.8 0-5.8 4.7-5 6 .4.6 0 1.7-.8 2.3-.8.7-1.7 2.9-2 5.1-.6 3.8-.6 3.8 2.3 3.4 2-.3 3.1 0 3.5 1.1.5 1.3.7 1.3 1.5.1.7-1.1 1.2-1.1 2.3-.2.7.7 1.7.9 2 .5.4-.3.7-.1.7.5 0 1.6 2.7 1.5 3.3-.1.8-2.3 1.8 0 1.1 2.7-.3 1.5-1.3 2.6-2.3 2.6-1.4 0-1.6.7-1.3 3.5.2 1.9.8 3.5 1.3 3.5s.9.5.9 1.2c0 .6.7 2 1.7 3 1.2 1.4 1.3 1.8.3 1.8-1.1 0-1.1.3-.2 1.2.7.7 1.2 2.4 1.2 3.9 0 2.9 4.9 7.9 7.8 7.9.8 0 3.1.5 4.9 1.2 2.8 1 3.8.9 6.3-.6 1.7-.9 4.4-1.8 6.1-1.8 1.8-.1 3.6-.9 4.4-2.1.7-1 1.8-1.6 2.4-1.3.5.4 1.7-.7 2.6-2.4 1-2 2.2-3 3.1-2.6.8.3 1.4-.1 1.4-1 0-1.4.9-1.5 5.3-1 7.1.8 9.5-1.1 10.4-8.1.6-5.1.7-5.3 5-6.9 2.4-.9 4.8-2.4 5.3-3.3.8-1.4 1.3-1.4 5.4.1 2.6 1 5.3 1.5 6.2 1.1.8-.3 2.3.2 3.2 1 1 .9 3.3 1.8 5.2 2 4.3.6 7 1.6 9.2 3.4.9.8 2.1 1.3 2.5 1 .5-.3 2.2.2 3.8 1.3 3 2 5.1 1.6 7.5-1.1 1.4-1.7 1.9-1.7 8.4.5 4.2 1.4 7.8 3.3 9 4.8 2.7 3.3 6.6 4.3 6.6 1.8 0-1.4.5-1.7 2.3-1.3 1.2.3 1.9.2 1.5-.2-.5-.5.8-1.8 2.8-3 3.4-2 3.7-2.6 3.6-6.6 0-2.4-.3-5.1-.6-5.9-.4-.9 0-3.7.8-6.4 1.1-3.6 1.2-5.5.5-6.9-.6-1-.8-2.9-.5-4.1.3-1.3-.3-3.5-1.5-5.5-1.8-3.1-1.9-3.5-.4-5.7.8-1.3 2.2-2.4 3-2.4 2 0 3-4.6 1.6-7.6-1.6-3.6-1.4-4.7.8-4.1 1.6.4 2-.2 2.3-3 .2-1.9-.1-4.2-.8-5.1-.7-1-1-3.8-.6-7.8.4-5.5.1-6.8-2.2-10.8l-2.7-4.6 2.4-.9c1.4-.5 3.4-2.3 4.6-4 1.3-1.7 3.3-3.4 4.7-3.7 1.8-.5 2.3-1.1 1.9-2.5-.4-1.2.1-2.1 1.5-2.9 1.1-.6 2-1.6 1.8-2.3-.4-2.3 1.3-5.7 2.5-5 .7.4.5-.4-.4-1.7-.9-1.4-2.6-2.7-3.8-3l-2.3-.5 2.5-2.3c1.5-1.4 3-2 4.1-1.6 1.4.5 1.7.2 1.4-1.3-.2-1.2 1.1-3.5 3-5.7 1.7-2 3.2-4.3 3.2-5.1 0-.8.8-1.5 1.8-1.5 2.7 0 4.2-6.6 2.8-12.4-.6-2.5-1.5-4.6-2.1-4.6-1.2 0-4-4.1-3.7-5.3.1-.4-.3-1.7-.9-2.9-.9-1.7-.8-2.3.5-3 2-1.1 2.1-3.2.2-4.8-.8-.6-1.2-1.8-1-2.5.3-.7-.4-2.3-1.6-3.5-1.2-1.2-1.9-2.8-1.6-3.5.2-.7.2-1.6-.2-2-.4-.4-.7-2.1-.7-3.8 0-2.5-.4-3.2-2-3.2-1.1-.1-2.6-.5-3.4-.9-1-.6-1.2-.4-.7 1zM131.254 74.848c0 .5.5 1 1 1 .6 0 1 .6 1 1.4 0 1 .7 1.2 2.2.8l2.1-.5-2.2-1.9c-2.6-2-4.1-2.3-4.1-.8zM268.854 242.648c-1.2 1.2-1.6 1.3-1.6.3 0-1.1-.3-1.1-1.4-.2-1.1.9-2 1-3.5.1-1.7-.8-2.1-.8-2.1.4 0 2.4-1.8 2.8-4.4 1.1-2.3-1.6-2.4-1.5-1.9.4.4 1.7 0 2-2.9 1.9-1.8 0-4-.7-4.9-1.4-1.4-1.2-1.8-1.1-3.4.6-1 1.1-2.5 2-3.4 2-.9 0-3.1 1.3-5 2.9-3 2.5-3.2 3-2.2 5 .7 1.2 1 3 .7 3.8-.5 1.1-.1 1.4 1.2 1.1 2.2-.6 5.8 1.7 4.3 2.7-1.6.9-1.3 2.8.3 2.2.8-.3 2 0 2.6.8.6.7 1.8 1.5 2.8 1.7 1.3.4 1.7-.2 1.8-2.8 0-1.8-.3-3.1-.7-2.9-.4.3-1-.2-1.3-1.1-.4-1.1-.1-1.4 1.2-1.2.9.2 1.7 1.2 1.8 2.3.1 1.1.4 2.8.8 3.7.4.9.4 2.3 0 2.9-.5.9-.2 1 .9.6 1-.3 1.7-.2 1.7.2 0 1.1-3.1 2.5-4.9 2.2-1-.2-.9.2.3 1.5 1 .9 1.5 2.5 1.3 3.5-.6 2.3 3.3 5.1 5.4 3.8.8-.4 3.9-1.3 6.9-1.9 3-.6 7.2-1.8 9.2-2.7 3.4-1.4 4.1-2.3 6.3-8.8.7-1.9.7-1.9 1.6.4.9 2.2 1.1 2.2 3.1.9 3.9-2.6 3.8-5.8-.1-9.8-1.9-1.9-4.4-4-5.6-4.5-1.1-.6-2-1.5-2-2 0-.6-.4-1.6-.8-2.2-1-1.6.3-3.8 2.2-3.8 2.4 0 2.3-2.1-.2-3.8-2.2-1.4-2.6-1.4-4.1.1z"/><path d="M133.154 261.048c-.6 1.4-.6 5.8 0 5.8 1.5 0 3.3-3 2.7-4.5-.4-1.3-2.3-2.1-2.7-1.3z"/></g></svg>