<?xml version="1.0" standalone="no"?>
<!DOCTYPE svg PUBLIC "-//W3C//DTD SVG 20010904//EN"
 "http://www.w3.org/TR/2001/REC-SVG-20010904/DTD/svg10.dtd">
<svg version="1.0" xmlns="http://www.w3.org/2000/svg"
 width="700.912021pt" height="870.262487pt" viewBox="0 0 700.912021 870.262487"
 preserveAspectRatio="xMidYMid meet">
<metadata>
Created by potrace 1.15, written by Peter Selinger 2001-2017
</metadata>
<g transform="translate(-652.087979,1428.455762) scale(0.100000,-0.100000)"
fill="#222222" stroke="none">
<path d="M10196 14252 c-4 -28 -11 -42 -21 -42 -8 0 -15 -5 -15 -10 0 -6 -11
-23 -24 -37 -14 -14 -22 -33 -18 -41 4 -12 0 -14 -22 -8 -25 6 -26 5 -16 -15
10 -18 8 -26 -8 -48 -11 -14 -25 -25 -31 -24 -6 2 -29 -15 -52 -37 -23 -22
-51 -42 -63 -46 -27 -8 -47 -24 -41 -34 4 -7 -22 -22 -58 -34 -16 -5 -18 -13
-12 -46 5 -32 3 -41 -9 -46 -9 -3 -16 -12 -16 -20 0 -8 -6 -11 -15 -8 -8 4
-15 1 -15 -6 0 -6 8 -10 18 -8 11 2 25 -2 33 -9 16 -13 32 -16 72 -14 27 1 28
2 23 53 -4 41 -11 56 -33 75 -15 13 -19 20 -9 15 22 -11 56 -4 56 10 0 7 15 8
38 5 36 -6 37 -5 55 36 9 23 17 50 17 60 0 21 33 55 67 68 21 8 30 6 49 -12
22 -21 25 -21 42 -6 11 10 22 13 32 7 19 -12 32 -2 25 20 -3 10 -1 21 5 25 5
3 10 15 10 26 0 12 7 19 18 19 10 0 24 6 30 12 10 10 14 8 18 -10 4 -12 10
-22 15 -22 5 0 3 13 -5 28 -13 25 -13 29 0 29 8 0 17 -11 20 -24 7 -27 19 -30
21 -5 3 36 -97 68 -118 38 -13 -16 -29 5 -23 30 4 15 2 24 -5 24 -7 0 -11 6
-10 13 1 6 -2 23 -8 36 -9 23 -10 22 -17 -17z"/>
<path d="M9701 13768 c-11 -30 -6 -34 24 -18 19 10 22 16 14 27 -16 19 -28 16
-38 -9z"/>
<path d="M9793 13686 c-13 -6 -23 -18 -23 -27 0 -10 -11 -19 -30 -22 -18 -4
-30 -13 -30 -22 0 -8 -7 -15 -15 -15 -9 0 -12 -6 -8 -17 5 -12 3 -14 -7 -8
-10 6 -12 4 -7 -8 3 -10 2 -17 -3 -17 -21 0 -8 -16 34 -41 42 -26 43 -26 42
-5 -1 11 6 32 16 44 16 22 16 26 1 48 -14 22 -14 24 1 24 9 0 16 6 16 13 0 7
10 17 22 22 13 6 24 18 26 28 4 19 -3 20 -35 3z"/>
<path d="M10390 13571 c0 -17 4 -31 8 -31 11 0 13 48 2 55 -6 4 -10 -7 -10
-24z"/>
<path d="M10340 13540 c0 -16 -4 -30 -8 -30 -4 0 -27 -18 -51 -40 -23 -22 -51
-40 -62 -40 -10 0 -19 -4 -19 -10 0 -5 17 -10 38 -10 21 0 43 -5 50 -12 9 -9
12 -9 12 3 0 17 54 79 69 79 18 0 13 28 -6 39 -10 6 -13 11 -6 11 6 0 9 9 6
20 -8 30 -23 24 -23 -10z"/>
<path d="M9775 13459 c-4 -6 -3 -14 2 -18 21 -13 19 -37 -4 -78 -24 -42 -25
-72 -3 -112 6 -12 14 -21 18 -21 4 0 12 -11 18 -24 10 -22 9 -25 -11 -30 -17
-4 -22 -11 -18 -26 7 -26 33 -26 33 1 0 17 7 13 46 -25 48 -49 59 -53 85 -33
16 12 19 18 19 39 0 7 13 -3 30 -22 16 -19 27 -40 25 -47 -2 -7 2 -10 11 -6 7
3 14 13 14 23 0 11 4 21 10 25 5 3 7 12 3 21 -3 8 2 23 12 33 16 18 15 20 -4
26 -12 3 -33 22 -47 41 -15 19 -34 34 -43 34 -9 0 -29 14 -45 30 -16 17 -33
30 -38 30 -4 0 -8 6 -8 14 0 8 -7 16 -15 20 -8 3 -15 12 -15 21 0 8 -5 15 -11
15 -5 0 -7 5 -4 11 4 5 -1 19 -12 31 -10 11 -17 23 -15 27 6 11 -26 12 -33 0z
m68 -169 c-8 -9 -21 24 -15 39 5 12 8 10 12 -9 4 -14 5 -27 3 -30z m58 -133
c-13 -13 -26 -3 -16 12 3 6 11 8 17 5 6 -4 6 -10 -1 -17z"/>
<path d="M10170 13349 c0 -12 -4 -17 -11 -14 -6 4 -5 -2 2 -13 13 -20 13 -20
26 5 17 33 16 43 -2 43 -8 0 -15 -9 -15 -21z"/>
<path d="M11437 13332 c-10 -10 -17 -26 -17 -35 0 -32 -46 -43 -110 -26 -11 3
-15 -5 -15 -31 0 -19 -3 -37 -6 -40 -4 -3 -9 -15 -13 -26 -9 -28 21 -41 39
-17 11 15 14 15 37 -10 14 -15 31 -27 37 -27 14 0 60 -50 61 -65 0 -6 9 -16
20 -22 16 -11 21 -10 28 3 6 11 12 13 16 6 4 -6 13 -9 21 -5 10 3 15 -1 15
-16 0 -14 5 -19 15 -15 8 3 14 9 13 12 -3 14 14 42 22 37 5 -3 11 -1 14 4 3 5
-1 11 -8 14 -10 4 -13 15 -9 34 3 15 6 45 6 66 0 20 4 37 10 37 6 0 -2 14 -18
30 -16 17 -34 29 -39 29 -25 -3 -36 2 -36 16 0 8 5 15 10 15 23 0 7 21 -20 27
-17 3 -33 10 -36 14 -8 14 -19 11 -37 -9z"/>
<path d="M10155 13260 c4 -6 2 -10 -4 -10 -5 0 -11 -12 -13 -27 -2 -22 -8 -28
-25 -26 -29 3 -24 -19 13 -58 41 -43 123 -77 111 -45 -3 7 -1 18 4 23 5 5 1
33 -12 70 -17 51 -25 63 -50 72 -18 6 -27 6 -24 1z"/>
<path d="M11090 13195 c-6 -19 -17 -35 -23 -35 -6 0 -4 -7 6 -17 18 -18 137
-26 137 -10 0 5 9 7 19 4 25 -6 33 13 16 37 -9 12 -20 16 -35 11 -14 -4 -35 2
-65 19 l-43 26 -12 -35z"/>
<path d="M11685 13200 c-3 -5 -16 -10 -29 -10 -29 0 -39 -10 -25 -27 13 -15
53 -18 44 -3 -3 6 3 10 14 10 12 0 21 6 21 14 0 8 6 17 13 19 6 3 2 6 -10 6
-12 1 -25 -3 -28 -9z"/>
<path d="M11220 13112 c0 -5 7 -9 15 -9 8 0 12 4 9 9 -3 4 -9 8 -15 8 -5 0 -9
-4 -9 -8z"/>
<path d="M10549 13063 c-8 -8 -18 -9 -40 -1 -23 8 -37 7 -53 -2 -17 -9 -33 -9
-64 -1 -22 6 -64 9 -95 5 -49 -6 -53 -8 -49 -29 3 -20 -2 -25 -52 -39 -61 -18
-59 -14 -60 -116 -1 -54 3 -68 22 -89 27 -29 28 -61 5 -118 -12 -29 -24 -43
-37 -43 -13 0 -17 -5 -13 -20 8 -29 -8 -25 -52 15 -40 36 -51 42 -51 26 0 -5
8 -12 18 -14 16 -4 16 -5 0 -6 -10 0 -18 -5 -18 -10 0 -6 -14 3 -31 19 -19 16
-28 33 -24 40 4 7 -4 24 -20 40 -26 27 -31 28 -94 24 -42 -3 -70 -10 -77 -20
-8 -10 -22 -13 -48 -9 -24 4 -36 2 -36 -6 0 -6 -8 -9 -20 -6 -15 4 -20 0 -20
-14 0 -16 -3 -18 -19 -10 -10 6 -21 7 -25 3 -4 -3 -11 0 -16 7 -7 12 -13 11
-37 -4 -33 -22 -78 -30 -87 -16 -4 6 -19 3 -39 -9 -18 -11 -42 -20 -55 -20
-13 0 -32 -5 -43 -10 -12 -7 -36 -8 -68 -2 -36 7 -55 5 -75 -5 -29 -15 -46
-10 -46 13 0 8 -10 14 -25 14 -14 0 -37 11 -51 25 -14 14 -31 25 -39 25 -8 0
-17 5 -20 10 -3 6 -30 10 -58 10 -38 1 -48 3 -35 10 24 14 12 42 -29 68 -29
20 -34 28 -31 53 3 20 0 29 -9 29 -7 0 -22 9 -32 19 -12 12 -21 15 -23 9 -3
-8 -11 -7 -27 1 -21 12 -22 11 -16 -11 7 -22 6 -21 -24 6 -17 17 -31 24 -31
17 0 -8 -6 -11 -15 -7 -9 3 -15 0 -15 -9 0 -9 -10 -15 -24 -15 -13 0 -27 -6
-30 -12 -3 -10 -8 -8 -16 4 -6 10 -17 15 -25 11 -13 -4 -14 -1 -5 22 15 38 15
38 -40 33 -27 -3 -50 -1 -50 3 0 17 -69 10 -79 -8 -8 -15 -13 -16 -30 -5 -19
11 -21 10 -21 -10 0 -44 -30 -60 -61 -32 -10 9 -26 14 -34 10 -28 -10 -61 4
-79 35 -20 34 -46 38 -46 8 0 -11 -9 -32 -19 -45 -11 -13 -22 -47 -26 -75 -4
-27 -13 -55 -19 -62 -10 -9 -8 -20 11 -52 27 -47 28 -56 8 -49 -8 4 -15 1 -15
-5 0 -7 7 -14 16 -18 11 -4 14 -13 10 -29 -5 -17 -2 -24 9 -24 17 0 22 -65 5
-75 -5 -3 -10 -15 -10 -26 0 -10 -5 -19 -11 -19 -6 0 -17 -7 -25 -15 -8 -8
-23 -19 -32 -25 -15 -9 -15 -12 7 -30 13 -11 31 -20 42 -20 10 0 22 -8 28 -17
5 -10 13 -15 17 -11 11 11 34 -11 28 -26 -4 -10 2 -12 21 -8 25 4 26 3 13 -17
-11 -18 -11 -23 1 -30 7 -5 11 -14 7 -20 -9 -13 38 -87 64 -101 18 -10 19 -13
5 -26 -17 -18 -20 -54 -4 -54 6 0 8 -8 5 -18 -8 -25 36 -66 61 -58 13 4 26 -2
39 -17 29 -33 37 -57 18 -57 -11 0 -12 -5 -6 -17 10 -20 -11 -83 -28 -83 -6 0
-6 -9 0 -26 6 -14 8 -29 5 -34 -2 -4 4 -15 15 -25 10 -9 16 -23 14 -30 -3 -7
0 -23 6 -35 9 -17 8 -25 -4 -39 -9 -10 -16 -25 -16 -33 0 -9 -7 -21 -15 -28
-11 -9 -12 -16 -2 -31 9 -14 9 -21 -1 -31 -19 -19 -15 -27 33 -49 25 -12 42
-25 40 -30 -3 -5 2 -20 11 -34 16 -25 29 -115 16 -115 -13 0 -7 -50 6 -55 6
-2 12 3 12 11 0 9 5 12 11 8 6 -3 15 -1 19 6 6 9 13 9 28 1 15 -8 23 -7 33 5
9 11 23 14 45 11 23 -4 34 -1 38 9 8 20 60 17 79 -4 9 -10 33 -19 54 -20 57
-4 79 -24 87 -76 4 -25 11 -46 17 -46 5 0 9 -11 9 -24 0 -19 9 -28 45 -43 25
-10 45 -21 45 -25 0 -7 58 -38 72 -38 4 0 8 7 8 16 0 19 34 10 63 -17 11 -10
24 -16 29 -13 4 3 8 -9 8 -25 0 -17 5 -31 10 -31 6 0 10 -7 10 -15 0 -8 6 -15
13 -15 8 0 13 -13 13 -35 0 -19 -4 -35 -8 -35 -4 0 -8 -6 -8 -13 0 -7 -9 -18
-19 -24 -16 -10 -20 -9 -25 4 -4 9 -9 13 -13 9 -3 -3 -17 1 -29 9 -20 13 -28
13 -73 -2 l-51 -16 -21 27 c-24 31 -36 29 -19 -3 8 -15 8 -21 0 -21 -6 0 -8
-5 -5 -10 4 -6 10 -8 15 -5 4 3 13 -1 19 -9 14 -17 4 -66 -14 -66 -16 0 -30
-33 -15 -38 6 -2 20 -22 31 -43 11 -22 24 -37 29 -34 10 6 80 -76 80 -94 0 -6
6 -11 13 -11 18 0 61 -46 54 -57 -12 -19 12 -35 57 -40 31 -4 46 -10 46 -20 0
-16 38 -52 56 -53 5 0 19 -8 30 -17 10 -10 28 -18 39 -18 17 0 21 -9 26 -60 6
-68 32 -129 69 -161 21 -19 25 -31 26 -85 1 -51 6 -66 23 -80 17 -14 20 -23
13 -36 -12 -25 -14 -223 -2 -223 6 0 10 -7 10 -15 0 -9 15 -22 33 -31 22 -10
38 -28 46 -49 12 -34 50 -53 74 -38 7 4 37 7 67 8 36 0 54 4 53 11 -4 20 35 3
52 -22 13 -20 19 -22 35 -14 35 19 83 6 51 -14 -4 -3 -11 -27 -14 -53 -3 -33
-11 -52 -26 -62 -12 -7 -21 -20 -21 -27 0 -8 -16 -21 -36 -29 -32 -13 -36 -18
-32 -42 3 -16 9 -36 13 -47 7 -16 6 -17 -15 -6 -18 10 -24 9 -31 -1 -5 -8 -9
-17 -9 -21 0 -4 -20 -10 -45 -13 -39 -6 -43 -9 -35 -25 9 -16 6 -19 -23 -18
-17 0 -38 5 -44 11 -9 6 -13 6 -13 -2 0 -8 -8 -10 -20 -6 -14 5 -20 2 -20 -10
0 -12 -9 -15 -42 -11 -24 2 -51 7 -61 11 -26 11 -33 -2 -14 -23 10 -10 17 -24
17 -30 0 -7 5 -12 10 -12 6 0 10 5 10 10 0 6 4 10 9 10 5 0 5 -15 1 -35 -4
-19 -5 -35 -1 -35 3 -1 -12 -7 -34 -15 -22 -8 -47 -12 -57 -9 -9 2 -19 0 -23
-6 -3 -6 -11 -7 -17 -4 -6 4 -14 1 -18 -6 -12 -19 -72 -18 -90 1 -25 28 -54
31 -78 8 -26 -24 -62 -18 -62 11 0 20 -45 54 -60 45 -5 -3 -28 6 -50 21 -23
15 -37 30 -32 33 5 3 -2 23 -15 45 -20 31 -29 37 -49 33 -20 -3 -25 0 -30 22
-15 77 -26 96 -63 113 -33 16 -36 21 -35 54 1 21 -3 48 -9 61 -7 17 -7 29 2
46 10 19 9 31 -9 72 -12 28 -27 73 -34 100 -10 38 -18 51 -35 53 -22 4 -27 26
-12 51 17 26 -7 65 -50 84 -43 19 -72 16 -101 -11 -14 -12 -21 -12 -32 -3 -10
9 -20 9 -34 2 -13 -7 -30 -6 -58 4 -21 7 -41 10 -44 5 -6 -9 -45 5 -55 20 -5
8 -11 8 -21 -1 -11 -9 -18 -6 -34 12 -10 13 -19 34 -20 46 0 15 -12 27 -39 40
-24 11 -42 27 -45 40 -7 26 -76 63 -116 63 -14 0 -31 5 -38 12 -12 12 -71 36
-112 45 -14 3 -33 13 -43 22 -11 9 -30 14 -43 13 -18 -3 -24 1 -24 15 -1 46
-109 96 -152 70 -13 -9 -21 -8 -30 1 -6 6 -22 12 -34 12 -12 0 -27 7 -34 15
-20 25 -43 19 -36 -9 8 -32 -15 -85 -44 -99 -12 -7 -28 -29 -35 -49 -11 -34
-11 -37 9 -41 12 -3 35 -3 53 -2 27 2 36 -3 55 -31 13 -19 28 -34 35 -34 8 0
10 -13 7 -42 -3 -27 -1 -44 7 -49 10 -6 10 -11 1 -22 -9 -11 -6 -19 18 -42 17
-16 29 -34 28 -39 -5 -21 27 -76 47 -82 26 -8 95 -70 116 -104 18 -29 70 -55
93 -47 22 9 38 -48 30 -113 -5 -48 -2 -64 20 -107 51 -102 66 -166 47 -202
-13 -24 0 -41 34 -45 41 -4 71 -52 66 -103 0 -7 -8 -13 -16 -13 -13 0 -14 -4
-5 -20 6 -11 8 -24 5 -29 -3 -5 -1 -11 4 -13 5 -1 11 -14 13 -28 2 -19 -2 -26
-18 -28 -25 -4 -37 -37 -24 -63 7 -12 4 -24 -10 -42 -11 -14 -20 -32 -20 -40
0 -9 -4 -18 -9 -21 -5 -4 -12 -23 -16 -44 -5 -32 -13 -42 -41 -55 -19 -9 -34
-21 -34 -27 0 -14 -43 -13 -58 2 -9 9 -12 5 -12 -19 0 -17 -6 -38 -13 -45 -7
-7 -25 -34 -40 -60 -32 -56 -41 -62 -83 -60 -26 2 -34 -3 -47 -30 -11 -22 -17
-28 -21 -18 -2 8 -9 31 -16 51 -8 28 -21 42 -56 60 -25 13 -68 46 -97 72 -42
39 -57 47 -78 43 -26 -5 -69 23 -69 44 0 5 -17 18 -39 28 -32 16 -43 17 -67 7
-19 -7 -24 -14 -16 -19 7 -4 12 -25 12 -47 0 -33 5 -42 31 -58 39 -24 87 -109
100 -176 11 -63 38 -125 54 -125 7 0 15 -18 19 -40 3 -21 14 -47 24 -57 10
-10 24 -31 32 -47 13 -25 13 -29 -4 -41 -23 -17 -14 -31 30 -50 20 -8 34 -21
34 -31 0 -14 -3 -15 -12 -6 -16 16 -28 15 -28 -2 0 -20 -18 -30 -33 -18 -24
18 -46 22 -40 6 3 -7 9 -14 14 -14 5 0 4 -9 -3 -20 -9 -14 -14 -16 -20 -7 -5
8 -8 4 -8 -10 0 -13 -5 -23 -11 -23 -5 0 -7 -6 -3 -12 10 -16 13 -48 3 -43
-10 7 -32 -22 -25 -33 3 -5 -3 -15 -12 -24 -33 -30 -53 -59 -46 -70 4 -7 9 -6
15 3 15 25 35 -19 34 -74 -2 -39 3 -57 17 -73 18 -20 18 -26 7 -65 -7 -24 -17
-50 -22 -56 -6 -9 -5 -18 3 -28 9 -10 9 -15 1 -15 -25 0 -8 -31 27 -49 22 -11
47 -32 56 -46 15 -23 21 -25 60 -20 56 9 118 -21 136 -64 8 -20 20 -32 34 -32
11 -1 38 -3 59 -4 39 -2 167 -61 167 -77 0 -5 14 -7 31 -3 34 8 85 -9 93 -31
3 -8 0 -14 -6 -14 -7 0 -3 -8 8 -18 15 -13 33 -16 82 -14 41 3 65 9 69 17 7
20 103 5 103 -15 0 -7 26 -7 60 0 3 0 -2 5 -11 10 -15 9 -15 14 -1 65 15 54
16 55 54 55 31 0 38 3 38 20 0 11 6 20 13 20 16 0 35 31 42 71 3 17 10 41 16
51 17 31 3 68 -25 68 -14 0 -26 -5 -28 -11 -2 -7 -9 -5 -17 5 -12 14 -9 16 22
16 31 0 36 3 39 27 3 25 4 26 19 10 9 -9 19 -13 22 -10 11 10 57 -7 57 -21 0
-22 43 -85 59 -86 7 0 33 -13 58 -30 24 -16 53 -30 63 -30 10 0 22 -5 26 -11
5 -8 8 -8 14 0 11 18 112 -55 129 -92 8 -18 15 -36 16 -42 4 -27 19 -71 28
-82 6 -9 5 -13 -3 -13 -9 0 -8 -5 3 -18 10 -10 17 -22 17 -27 0 -14 61 -134
71 -140 5 -4 9 0 9 7 0 7 14 -2 30 -21 30 -33 28 -64 -2 -45 -35 22 -60 4 -35
-24 19 -22 12 -39 -24 -58 -25 -12 -28 -18 -19 -34 7 -14 7 -20 0 -20 -5 0
-10 4 -10 9 0 5 -8 7 -19 4 -24 -6 -32 17 -21 57 8 27 7 30 -6 19 -8 -6 -57
-15 -108 -18 l-94 -6 29 33 c16 18 29 39 29 48 0 14 36 14 60 -1 5 -3 10 -1
10 5 0 7 5 10 11 8 7 -2 24 7 39 20 27 24 27 25 12 53 -9 15 -18 26 -20 24 -2
-1 -14 8 -28 22 -24 24 -29 55 -15 103 13 44 -25 120 -51 104 -16 -10 -67 7
-72 24 -3 9 -25 26 -49 38 l-43 21 -16 -22 c-10 -13 -13 -27 -8 -34 6 -11 9
-11 12 0 4 10 14 6 38 -16 42 -40 55 -64 41 -78 -6 -6 -11 -17 -11 -24 0 -17
-45 -60 -71 -68 -11 -4 -19 -11 -19 -16 0 -5 -9 -9 -19 -9 -27 0 -32 -20 -24
-104 7 -87 -2 -146 -22 -146 -18 0 -20 -26 -4 -36 7 -4 7 -9 2 -13 -6 -3 -14
-24 -19 -46 -7 -27 -18 -44 -34 -52 -14 -7 -19 -13 -11 -13 10 0 12 -9 7 -35
-7 -34 -6 -35 18 -29 19 4 26 2 26 -9 0 -8 11 -31 25 -51 24 -35 25 -40 11
-67 -18 -35 -9 -37 23 -4 19 21 33 25 76 25 30 0 57 5 61 11 4 7 23 9 48 6 52
-6 67 0 102 42 27 32 27 35 12 62 -15 25 -15 28 0 34 10 4 22 -1 30 -12 11
-16 14 -16 22 -3 5 8 10 21 10 27 0 15 48 48 57 39 3 -3 -2 -15 -11 -25 -17
-19 -17 -21 1 -45 10 -14 23 -26 29 -26 14 0 46 35 38 43 -3 3 12 17 33 31 35
23 43 25 72 15 28 -10 34 -9 45 7 11 15 17 16 29 6 23 -19 80 -34 87 -22 4 6
18 5 39 -3 23 -9 34 -20 38 -41 10 -46 51 -58 164 -44 52 6 99 15 106 20 6 5
22 6 36 3 15 -4 30 -1 40 9 10 10 18 12 22 6 10 -16 52 -12 59 5 3 9 11 15 18
14 52 -7 79 2 97 32 11 18 17 39 13 47 -4 12 -1 14 12 9 15 -6 16 -2 10 38 -4
29 -3 45 4 45 12 0 28 -39 23 -55 -1 -5 8 0 21 12 22 21 25 22 47 7 18 -13 28
-14 47 -5 13 6 24 15 24 21 0 5 6 10 14 10 18 0 29 27 13 33 -6 2 -18 -3 -26
-10 -7 -8 -18 -12 -25 -10 -21 7 -17 35 8 61 15 14 26 30 26 37 0 6 8 18 18
25 13 10 14 15 5 25 -9 9 -7 16 10 29 19 15 20 21 9 44 -15 33 -1 66 39 90 28
17 39 36 19 36 -5 0 -10 7 -10 15 0 8 5 15 10 15 6 0 3 11 -7 25 -10 13 -24
22 -31 20 -8 -3 -27 6 -44 20 -16 14 -39 25 -51 26 l-22 0 22 11 c15 7 23 21
25 46 4 42 21 51 44 23 13 -15 21 -18 31 -10 7 7 20 8 30 3 10 -4 23 -8 28 -8
6 -1 14 -15 19 -32 7 -25 18 -34 46 -43 50 -15 66 -14 106 5 19 9 45 14 59 12
21 -4 25 -1 25 18 0 13 5 24 11 24 5 0 7 4 4 10 -3 5 -8 29 -11 51 l-5 42 43
-7 c23 -4 45 -12 49 -18 4 -6 10 8 14 31 5 32 11 41 26 41 31 0 75 27 99 60
12 17 35 37 51 45 24 13 29 22 29 51 0 34 1 35 33 29 25 -5 37 -2 51 14 10 11
34 23 52 27 19 3 37 10 40 15 3 5 24 19 46 30 34 17 45 19 66 10 21 -10 28 -9
46 8 23 21 49 22 68 3 7 -7 17 -12 24 -12 17 0 102 -78 109 -101 6 -17 12 -20
38 -15 17 3 38 13 47 21 9 8 23 15 32 15 26 0 28 12 7 47 -20 33 -21 34 -3 31
17 -3 19 3 16 43 -2 27 1 50 7 54 6 3 8 17 5 30 -5 20 -1 25 18 30 37 9 29 42
-21 92 -33 33 -41 47 -32 56 6 6 11 19 11 28 0 9 7 20 16 23 13 5 15 16 9 61
-4 38 -3 55 5 55 7 0 6 8 -4 21 -8 12 -12 28 -9 35 3 8 0 14 -6 14 -6 0 -11
12 -11 26 0 42 -18 64 -50 64 -17 0 -30 5 -30 10 0 6 12 10 26 10 23 0 25 3
20 26 -6 24 -5 25 29 18 25 -4 35 -3 35 6 0 8 9 11 24 8 19 -4 26 0 30 16 10
38 6 57 -18 81 l-24 24 23 15 c28 19 66 95 67 136 1 21 -6 36 -20 46 -12 8
-22 24 -22 34 0 10 -12 28 -27 39 -82 62 -143 126 -143 151 0 14 -4 30 -9 35
-4 6 -6 29 -4 52 4 30 9 40 19 36 8 -3 14 1 14 11 0 10 8 16 21 16 18 0 20 5
16 27 -3 14 0 40 6 56 8 25 7 31 -7 39 -14 8 -16 18 -12 44 6 30 4 34 -21 40
-15 4 -43 16 -62 27 -24 14 -38 17 -49 11 -21 -14 -76 14 -96 48 -16 27 -16
27 16 30 28 2 35 9 43 36 5 18 14 31 21 28 16 -6 26 5 15 18 -13 17 -23 126
-11 126 17 0 11 38 -9 57 -36 35 -44 62 -26 89 8 13 20 24 25 24 5 0 12 9 15
20 3 11 15 20 25 20 28 0 78 32 89 57 10 22 41 23 41 2 0 -5 5 -9 10 -9 6 0
10 6 10 14 0 8 6 16 13 19 9 3 16 29 20 65 4 33 15 75 26 93 18 33 20 47 6 81
-6 16 4 25 75 59 14 7 49 13 79 13 45 1 55 4 62 22 4 12 15 24 24 28 14 5 16
14 12 41 -5 28 -3 35 11 35 10 0 22 -8 29 -18 11 -19 23 -20 81 -7 21 5 31 12
28 21 -6 15 18 26 39 18 9 -4 15 0 15 9 0 8 7 28 15 43 8 16 15 39 15 52 0 13
4 21 9 17 5 -3 12 -1 15 4 4 5 1 13 -6 17 -8 5 -4 10 10 15 16 6 22 17 22 38
0 16 6 31 15 34 12 5 12 12 3 39 -6 18 -18 43 -26 56 -8 12 -12 22 -9 22 17 0
65 -27 85 -48 14 -15 29 -21 40 -17 19 5 44 -16 55 -47 4 -12 12 -15 23 -11
13 5 16 3 11 -10 -4 -11 -1 -17 8 -17 9 0 23 -9 32 -20 20 -23 36 -25 52 -7 7
9 7 17 1 23 -7 7 4 11 32 13 46 2 81 17 73 31 -3 5 9 7 26 5 25 -3 38 2 55 20
13 14 20 25 17 25 -4 0 -2 5 5 12 7 7 12 20 12 30 0 10 2 18 5 18 15 0 64 -29
86 -50 32 -31 72 -107 64 -120 -3 -6 1 -10 10 -10 12 0 15 -5 11 -16 -3 -9 -6
-19 -6 -24 0 -4 -9 -10 -20 -13 -21 -5 -29 -51 -10 -62 23 -14 10 -67 -24
-100 -33 -32 -34 -32 -90 -23 -43 8 -56 14 -56 28 0 21 -17 36 -45 42 -18 3
-20 10 -17 63 1 42 -1 56 -8 45 -8 -12 -10 -11 -10 6 0 12 7 27 15 34 26 21
19 46 -12 44 -52 -2 -70 -13 -65 -40 2 -14 14 -31 25 -39 11 -8 18 -17 14 -21
-9 -10 12 -46 24 -39 5 4 9 1 9 -4 0 -6 -10 -11 -22 -11 -16 0 -19 -3 -11 -11
9 -9 7 -19 -8 -39 -19 -25 -25 -26 -71 -22 -47 4 -50 3 -44 -16 5 -15 2 -22
-11 -26 -20 -7 -44 -53 -42 -82 4 -40 -1 -54 -20 -54 -14 0 -18 -5 -14 -20 4
-14 -1 -21 -20 -25 -14 -4 -31 -4 -36 0 -7 3 -11 -2 -11 -14 0 -14 -6 -21 -20
-21 -11 0 -20 4 -20 10 0 19 -51 -14 -56 -37 -4 -14 -14 -23 -25 -23 -11 0
-19 -7 -19 -16 0 -8 -5 -12 -11 -8 -8 5 -8 1 0 -14 6 -12 19 -25 28 -30 21
-12 7 -35 -18 -27 -10 4 -19 2 -19 -3 0 -18 26 -31 48 -25 20 5 21 3 15 -28
-3 -19 -15 -40 -26 -48 -17 -12 -18 -15 -3 -23 18 -10 22 -38 5 -38 -6 0 -17
-7 -25 -15 -14 -13 -14 -16 1 -22 10 -3 30 -6 46 -7 19 -1 31 -8 38 -23 6 -13
16 -23 23 -23 9 0 9 -3 0 -12 -15 -15 -16 -58 -2 -58 6 0 10 -7 10 -15 0 -17
18 -19 54 -5 14 5 28 6 30 1 7 -10 65 -1 72 11 4 6 2 13 -3 17 -10 6 -24 51
-16 51 2 0 13 -5 24 -10 11 -6 19 -7 19 -1 0 5 -7 11 -15 15 -19 7 -20 26 -1
26 8 0 16 7 20 15 7 20 22 19 43 -4 25 -27 59 -32 55 -8 -3 15 1 17 17 13 12
-3 30 -9 41 -12 12 -3 20 -1 20 6 0 7 8 6 21 -4 12 -8 28 -12 35 -9 11 4 13
-2 8 -26 -8 -36 11 -64 36 -56 22 7 71 -71 72 -115 1 -18 6 -30 15 -30 7 0 18
-11 23 -25 6 -16 14 -23 25 -19 8 3 15 1 15 -5 0 -20 58 -13 65 8 4 13 12 17
25 14 13 -3 20 0 20 8 0 10 3 10 12 1 18 -18 25 -15 36 17 8 23 7 31 -4 35
-11 4 -12 10 -5 25 10 17 15 18 42 8 18 -7 45 -24 60 -39 15 -16 35 -28 43
-28 9 0 23 -15 31 -32 13 -28 14 -29 10 -7 -4 23 -2 26 20 21 15 -2 25 0 25 7
0 6 -11 11 -24 11 -33 0 -50 23 -37 49 18 32 13 75 -9 89 -15 9 -20 23 -20 57
0 25 4 45 10 45 5 0 7 7 4 15 -5 12 2 15 30 15 33 0 36 2 27 19 -13 23 8 45
33 35 9 -3 22 -2 29 4 6 6 26 12 42 14 24 2 31 8 33 31 2 15 16 41 31 58 19
20 27 38 23 51 -3 11 -1 23 4 27 5 3 15 18 21 34 8 16 20 27 32 27 25 0 37 18
22 33 -16 16 -14 55 4 64 13 8 11 14 -10 42 -13 19 -22 38 -18 44 3 6 -2 16
-12 23 -9 7 -15 19 -13 26 3 7 -4 18 -16 25 -18 10 -18 13 -5 18 10 4 14 15
11 34 -2 16 3 40 13 54 12 18 13 27 4 32 -6 4 -15 2 -19 -4 -7 -13 -55 -6 -77
11 -8 6 -14 2 -18 -14 -5 -13 -3 -24 4 -26 6 -2 11 -12 11 -21 0 -26 -57 -24
-64 1 -9 35 -47 18 -73 -32 -13 -25 -28 -46 -33 -48 -6 -2 -10 -10 -10 -18 0
-8 -12 -19 -26 -24 -21 -8 -34 -6 -62 10 -31 19 -36 20 -44 6 -11 -19 -51 -21
-66 -3 -6 7 -10 41 -9 74 1 43 -3 67 -14 80 -12 13 -16 44 -18 120 -1 93 1
103 20 117 19 13 21 22 17 80 -3 50 -1 66 9 66 8 0 18 12 23 26 11 28 34 54
47 54 15 0 44 40 50 70 4 22 1 31 -11 36 -20 8 -21 24 -2 24 8 0 16 10 20 23
3 15 20 29 51 41 29 13 42 23 36 29 -6 6 1 19 20 35 21 17 27 28 20 35 -18 18
-13 31 5 16 15 -12 16 -11 9 11 -4 14 -8 27 -8 30 -1 3 7 20 16 38 17 32 17
33 1 30 -14 -2 -18 4 -18 35 0 51 -27 50 -51 -2 -10 -22 -24 -42 -32 -45 -8
-3 -11 -11 -7 -17 3 -6 1 -15 -6 -19 -7 -4 -12 -26 -12 -48 1 -32 -3 -40 -14
-35 -8 3 -14 -1 -14 -11 0 -20 -23 -11 -63 26 -22 20 -28 31 -20 36 13 8 12
49 -1 70 -4 7 -18 12 -31 12 -13 0 -29 8 -34 18 -9 15 -12 15 -20 2 -9 -13
-13 -12 -32 7 -22 21 -20 61 2 47 7 -4 10 1 7 12 -2 11 -8 19 -13 19 -6 0 -16
4 -22 8 -9 6 -11 3 -7 -7 5 -12 0 -16 -20 -16 -14 0 -26 -5 -26 -11 0 -8 -5
-8 -15 1 -12 10 -15 9 -15 -4 0 -10 -4 -15 -9 -11 -5 3 -12 1 -16 -5 -4 -6
-23 -10 -43 -10 -73 0 -179 -7 -190 -14 -6 -3 -26 13 -45 36 -35 42 -36 43
-91 40 -51 -4 -56 -6 -56 -27 0 -13 -5 -27 -11 -31 -6 -4 -8 -20 -4 -40 7 -41
-9 -74 -35 -74 -11 0 -20 -7 -20 -16 0 -8 4 -13 8 -10 10 6 92 -70 92 -85 0
-24 -34 -59 -58 -59 -24 0 -24 -1 -9 -18 21 -23 22 -41 2 -48 -8 -3 -17 -14
-20 -25 -4 -11 -10 -17 -15 -14 -5 3 -11 -4 -15 -14 -5 -17 -10 -19 -31 -9
-18 9 -24 19 -24 45 0 34 -18 43 -49 24 -8 -5 -26 -5 -43 1 -21 8 -37 7 -56
-1 -22 -10 -28 -10 -38 3 -6 9 -16 16 -23 16 -24 0 -10 32 19 43 17 6 30 15
30 20 0 4 4 6 8 3 5 -3 15 6 23 20 12 23 19 25 64 24 69 -3 75 -2 75 14 0 7 9
20 20 27 20 13 20 16 6 58 -9 24 -14 47 -11 51 3 5 1 11 -4 14 -5 4 -7 30 -4
60 5 47 3 55 -15 65 -11 6 -32 32 -47 58 -20 37 -24 52 -16 65 7 11 7 19 1 23
-6 4 -9 12 -8 18 1 7 -3 21 -9 33 -11 19 -8 22 26 37 21 10 47 14 57 11 15 -6
17 -4 7 6 -10 11 -9 16 5 26 15 11 14 13 -11 23 -26 10 -27 12 -13 33 17 23 6
58 -18 58 -8 0 -27 15 -44 34 l-29 34 -29 -18 c-29 -18 -61 -18 -179 3 -16 3
-21 -1 -20 -19 0 -12 3 -26 8 -30 13 -13 7 -24 -12 -24 -11 0 -23 5 -27 12 -5
7 -10 4 -15 -11 -5 -12 -28 -30 -51 -41 -32 -14 -47 -29 -60 -57 -15 -35 -17
-36 -24 -15 -4 14 -14 22 -28 22 -11 0 -30 7 -40 15 -11 8 -40 15 -65 15 l-46
0 0 -61 c0 -54 3 -63 27 -80 15 -11 31 -21 35 -22 4 -1 7 -8 7 -14 -1 -7 3
-13 10 -13 6 0 12 -11 12 -25 2 -18 -3 -25 -17 -25 -14 0 -19 -7 -19 -25 0
-32 -28 -45 -45 -22 -17 24 -38 22 -30 -3 5 -15 2 -20 -10 -20 -13 0 -16 6
-12 21 4 14 -2 28 -19 44 -13 12 -24 29 -24 38 0 8 -15 25 -33 36 -31 19 -57
57 -71 104 -4 11 -15 21 -27 24 -11 3 -28 22 -38 42 -22 42 -47 66 -79 76 -12
3 -20 10 -17 15 8 12 -16 73 -38 97 -11 12 -17 29 -14 37 4 9 -1 20 -11 25
-15 8 -15 11 -2 15 12 5 15 27 15 114 0 111 -7 137 -32 128 -8 -3 -21 0 -29 8
-16 16 -19 96 -4 96 20 0 10 39 -15 58 -14 11 -25 28 -25 39 0 22 -18 43 -38
43 -8 0 -38 7 -68 16 -61 18 -109 59 -123 107 -5 18 -12 39 -15 47 -5 11 3 19
26 28 30 12 32 14 16 26 -24 18 -23 25 2 19 15 -4 20 0 20 13 0 31 -20 94 -30
94 -5 0 -8 9 -7 20 1 11 7 20 14 20 7 0 13 5 13 10 0 6 6 10 14 10 8 0 20 14
28 30 7 17 19 30 26 30 7 0 10 5 6 11 -4 7 1 9 12 7 11 -2 18 -9 17 -15 -4
-17 81 -88 108 -91 13 -2 43 -4 67 -5 31 -2 46 -9 58 -26 14 -19 23 -22 50
-18 20 3 34 1 36 -5 3 -7 10 -8 17 -4 9 6 9 11 0 22 -17 21 59 88 80 71 12
-10 13 -9 7 8 -4 11 -9 25 -10 31 -3 21 -28 44 -46 44 -13 0 -16 6 -13 24 9
43 -81 88 -113 56 -15 -15 -65 -19 -87 -8 -27 14 -108 22 -116 11 -3 -4 -17
-16 -31 -25 -24 -14 -27 -14 -46 1 -11 9 -23 24 -27 33 -4 11 -12 15 -22 12
-9 -4 -22 3 -33 15 -11 14 -35 24 -71 30 -29 5 -56 13 -60 19 -8 13 -60 10
-72 -5z m311 -156 c0 -6 -9 -2 -20 8 -11 10 -17 22 -13 28 6 10 33 -19 33 -36z
m-630 -482 c0 -8 -4 -15 -10 -15 -5 0 -10 7 -10 15 0 8 5 15 10 15 6 0 10 -7
10 -15z m20 -175 c0 -5 -8 -10 -17 -10 -15 0 -16 2 -3 10 19 12 20 12 20 0z
m1423 -1020 c-3 -11 -8 -20 -11 -20 -14 0 -42 35 -42 52 0 17 2 17 29 3 22
-11 28 -20 24 -35z m-133 -159 c0 -5 6 -9 13 -8 60 2 66 -28 8 -38 -29 -5 -46
-2 -65 10 -31 20 -34 40 -6 32 11 -3 23 -1 26 4 7 12 24 12 24 0z m-2445 -21
c3 -5 1 -10 -4 -10 -6 0 -11 5 -11 10 0 6 2 10 4 10 3 0 8 -4 11 -10z m2762
-177 c-3 -3 -15 -2 -26 2 l-21 6 22 19 c23 18 23 18 26 -2 2 -11 1 -22 -1 -25z
m-2622 27 c3 -5 -1 -10 -9 -10 -9 0 -16 5 -16 10 0 6 4 10 9 10 6 0 13 -4 16
-10z m3502 -802 c-3 -8 -6 -5 -6 6 -1 11 2 17 5 13 3 -3 4 -12 1 -19z m-557
-252 c0 -14 -4 -27 -8 -30 -5 -3 -9 8 -9 24 0 17 4 30 9 30 4 0 8 -11 8 -24z
m760 -426 c0 -5 -2 -10 -4 -10 -3 0 -8 5 -11 10 -3 6 -1 10 4 10 6 0 11 -4 11
-10z m-1582 -917 c-5 -25 -28 -28 -28 -4 0 12 6 21 16 21 9 0 14 -7 12 -17z
m-72 -84 c4 -7 10 -7 16 -1 11 11 39 5 50 -12 8 -12 -31 -35 -49 -28 -16 5
-46 52 -34 52 5 0 13 -5 17 -11z m164 -52 c0 -5 -7 -6 -16 -3 -9 3 -18 6 -20
6 -2 0 -4 7 -4 15 0 13 3 13 20 3 11 -7 20 -17 20 -21z m-1386 -656 c3 -4 -5
-19 -17 -33 -23 -26 -47 -27 -47 -2 0 9 5 12 11 9 6 -4 5 4 -3 16 -7 13 -20
28 -28 33 -12 8 -11 10 5 16 18 7 66 -17 79 -39z m-2644 25 c6 -8 17 -13 23
-11 19 7 68 -42 61 -60 -5 -12 -9 -13 -21 -4 -7 7 -27 13 -44 14 -36 3 -44 10
-53 48 -7 30 12 38 34 13z m2825 -226 c3 -5 1 -10 -4 -10 -6 0 -11 5 -11 10 0
6 2 10 4 10 3 0 8 -4 11 -10z m-1760 -50 c3 -5 2 -10 -4 -10 -5 0 -13 5 -16
10 -3 6 -2 10 4 10 5 0 13 -4 16 -10z m1815 -25 c0 -8 -4 -15 -10 -15 -5 0 -7
7 -4 15 4 8 8 15 10 15 2 0 4 -7 4 -15z m-314 -96 c19 -22 19 -22 -3 -10 -24
12 -39 31 -25 31 5 0 17 -10 28 -21z m-550 -465 c23 -16 24 -18 8 -35 -17 -19
-44 -26 -44 -11 0 4 5 13 12 20 9 9 7 13 -5 18 -9 3 -14 10 -11 15 7 12 11 12
40 -7z m-736 -229 c0 -8 -4 -15 -9 -15 -13 0 -22 16 -14 24 11 11 23 6 23 -9z
m-100 -35 c0 -5 -4 -10 -10 -10 -5 0 -10 5 -10 10 0 6 5 10 10 10 6 0 10 -4
10 -10z"/>
<path d="M12676 13045 c4 -8 10 -15 15 -15 4 0 6 7 3 15 -4 8 -10 15 -15 15
-4 0 -6 -7 -3 -15z"/>
<path d="M12640 13034 c0 -8 5 -12 10 -9 6 3 10 10 10 16 0 5 -4 9 -10 9 -5 0
-10 -7 -10 -16z"/>
<path d="M11450 13020 c0 -5 5 -10 11 -10 5 0 7 5 4 10 -3 6 -8 10 -11 10 -2
0 -4 -4 -4 -10z"/>
<path d="M12632 12989 c-7 -11 -10 -24 -7 -29 3 -5 -4 -15 -16 -23 -11 -8 -16
-18 -11 -21 15 -9 44 5 38 19 -2 7 2 23 11 35 9 13 12 25 6 31 -5 5 -14 0 -21
-12z"/>
<path d="M11430 12985 c-7 -8 -16 -12 -21 -9 -5 3 -9 1 -9 -5 0 -5 5 -13 10
-16 12 -7 3 -46 -12 -56 -5 -3 7 -18 26 -33 20 -15 36 -33 36 -41 0 -7 6 -15
13 -18 8 -2 16 14 23 46 11 47 10 52 -19 98 -16 27 -31 49 -32 49 -2 0 -8 -7
-15 -15z"/>
<path d="M11327 12865 c3 -8 9 -12 14 -9 12 7 11 11 -5 17 -10 4 -13 1 -9 -8z"/>
<path d="M12586 12845 c4 -8 18 -15 33 -15 l26 0 -29 15 c-35 19 -37 19 -30 0z"/>
<path d="M12661 12829 c-13 -5 -22 -11 -20 -12 2 -1 11 -8 20 -15 14 -11 17
-9 21 13 3 14 5 25 4 24 0 0 -12 -5 -25 -10z"/>
<path d="M11411 12777 c-5 -13 -16 -29 -25 -36 -22 -18 -20 -26 9 -39 14 -7
25 -20 25 -31 0 -19 19 -40 21 -24 6 36 5 53 -4 53 -5 0 2 11 17 25 32 30 34
61 4 69 -35 9 -38 8 -47 -17z"/>
<path d="M12675 12760 c4 -6 11 -8 16 -5 14 9 11 15 -7 15 -8 0 -12 -5 -9 -10z"/>
<path d="M12707 12689 c-4 -13 -10 -18 -18 -13 -8 4 -10 3 -5 -5 4 -6 0 -23
-8 -36 -9 -14 -14 -25 -11 -25 3 0 -4 -9 -15 -20 -11 -11 -25 -20 -31 -20 -5
0 -7 -4 -4 -10 3 -5 1 -10 -6 -10 -10 0 -10 -3 -1 -12 19 -19 14 -31 -13 -26
-14 3 -25 1 -25 -4 0 -6 -7 -7 -16 -4 -8 3 -33 0 -54 -7 -30 -9 -38 -16 -35
-28 7 -21 -44 -34 -52 -13 -3 8 -11 14 -19 14 -8 0 -14 5 -14 10 0 6 -7 10
-15 10 -8 0 -15 5 -15 11 0 8 -4 8 -13 1 -7 -7 -29 -10 -48 -8 -43 4 -119 28
-119 38 0 5 -11 8 -23 8 -15 0 -29 9 -36 23 -6 12 -10 15 -7 6 2 -8 -5 -21
-17 -28 -18 -12 -22 -11 -34 5 -7 10 -13 25 -13 33 -1 13 -3 13 -14 -2 -8 -11
-17 -14 -20 -8 -4 6 -16 6 -36 -1 -17 -5 -37 -7 -45 -4 -9 3 -15 0 -15 -10 0
-8 -11 -19 -24 -24 -21 -8 -23 -13 -19 -54 4 -35 2 -46 -8 -46 -11 0 -11 -2 1
-10 9 -5 15 -26 15 -52 0 -24 3 -50 5 -58 4 -10 -2 -15 -18 -15 -20 0 -41 -19
-42 -36 0 -4 18 -25 40 -48 22 -23 43 -55 47 -72 3 -16 16 -37 28 -47 23 -19
33 -86 14 -98 -6 -4 -2 -14 11 -26 12 -12 29 -36 36 -55 8 -19 21 -36 28 -39
8 -3 20 -19 26 -35 13 -30 40 -40 40 -14 0 8 10 20 23 26 12 7 28 20 35 31 7
10 19 18 27 18 8 0 23 10 34 21 11 12 27 19 35 16 18 -7 31 22 16 37 -19 19
-11 56 14 67 26 12 56 67 56 105 0 14 4 23 9 20 12 -8 38 24 46 57 8 29 31 35
66 17 13 -7 19 -7 19 0 0 5 16 10 35 10 28 0 38 5 47 25 6 14 19 25 28 25 9 0
20 3 24 7 7 8 40 14 74 13 19 0 21 4 16 26 -8 31 19 64 51 64 23 0 40 24 30
41 -3 5 -2 17 4 26 6 13 5 26 -5 43 -21 39 -18 51 11 44 20 -5 25 -2 25 12 1
18 1 18 11 2 6 -11 20 -17 34 -16 31 3 32 16 2 27 -28 11 -51 37 -43 50 7 10
-30 27 -51 23 -6 -1 -20 9 -31 23 -19 24 -20 24 -25 4z"/>
<path d="M12110 12664 c8 -10 15 -20 16 -22 1 -2 5 1 8 7 4 5 -4 15 -16 22
-22 12 -22 11 -8 -7z"/>
<path d="M10837 12604 c-3 -16 -1 -33 5 -39 8 -7 8 -6 3 4 -6 11 -4 13 8 8 21
-8 22 12 3 38 -12 17 -13 16 -19 -11z"/>
<path d="M12136 11023 c-3 -3 -1 -12 5 -20 6 -7 8 -13 4 -13 -4 0 -2 -7 5 -15
18 -22 32 -18 24 7 -8 27 -29 49 -38 41z"/>
<path d="M13484 10476 c-7 -18 1 -46 14 -46 9 0 9 47 -1 56 -4 4 -9 -1 -13
-10z"/>
<path d="M7153 10448 c-8 -19 -5 -30 14 -60 14 -20 22 -41 19 -46 -3 -6 8 -12
24 -14 17 -3 30 -1 30 4 0 17 50 7 78 -17 17 -14 38 -25 48 -24 15 0 13 3 -7
12 -28 13 -90 63 -155 128 -40 40 -41 40 -51 17z"/>
<path d="M12441 10424 c0 -11 3 -14 6 -6 3 7 2 16 -1 19 -3 4 -6 -2 -5 -13z"/>
<path d="M12346 10414 c-18 -17 -20 -24 -8 -24 4 0 13 9 20 20 15 24 9 26 -12
4z"/>
<path d="M12271 10403 c7 -10 15 -20 16 -22 2 -2 3 5 3 17 0 14 -6 22 -16 22
-14 0 -15 -3 -3 -17z"/>
<path d="M12300 10410 c0 -5 5 -10 11 -10 5 0 7 5 4 10 -3 6 -8 10 -11 10 -2
0 -4 -4 -4 -10z"/>
<path d="M13472 10408 c-23 -23 -13 -38 23 -38 31 0 35 3 35 26 0 21 -3 24
-13 15 -9 -7 -17 -7 -23 -1 -7 7 -14 6 -22 -2z"/>
<path d="M12249 10364 c-10 -12 -24 -15 -59 -10 -50 7 -110 -1 -110 -15 0 -12
60 -79 71 -79 16 0 22 50 8 66 -11 14 -9 16 21 14 59 -3 69 -1 80 20 13 24 7
26 -11 4z"/>
<path d="M7405 10300 c-3 -5 -2 -10 4 -10 5 0 13 5 16 10 3 6 2 10 -4 10 -5 0
-13 -4 -16 -10z"/>
<path d="M9760 9481 c0 -9 -8 -12 -24 -9 -18 4 -23 1 -19 -10 5 -11 -1 -11
-28 3 -34 18 -34 18 -16 -2 9 -11 17 -27 17 -36 0 -13 9 -17 33 -17 27 0 36 6
45 26 8 17 9 31 2 42 -6 12 -9 13 -10 3z"/>
<path d="M9665 9410 c3 -5 8 -10 11 -10 2 0 4 5 4 10 0 6 -5 10 -11 10 -5 0
-7 -4 -4 -10z"/>
<path d="M13226 9353 c-4 -9 -1 -20 6 -25 26 -16 35 -7 22 26 -8 21 -20 20
-28 -1z"/>
<path d="M6538 9153 c-34 -9 -14 -36 35 -48 22 -6 26 -4 21 9 -4 10 -1 16 7
16 8 1 3 7 -11 15 -14 8 -27 14 -30 13 -3 0 -13 -2 -22 -5z"/>
<path d="M6723 9116 c1 -11 9 -21 17 -23 10 -3 11 -2 4 4 -6 4 -14 15 -17 23
-5 11 -6 9 -4 -4z"/>
<path d="M6625 9110 c3 -5 8 -10 11 -10 2 0 4 5 4 10 0 6 -5 10 -11 10 -5 0
-7 -4 -4 -10z"/>
<path d="M6780 9060 c14 -10 27 -16 30 -13 6 6 -30 33 -44 33 -6 0 0 -9 14
-20z"/>
<path d="M6850 9030 c0 -5 -10 -10 -22 -10 -21 0 -21 -1 -6 -16 9 -9 28 -16
42 -16 15 0 29 -4 32 -9 3 -5 13 -9 23 -9 10 0 26 -9 37 -21 25 -28 8 -55 -32
-51 -23 2 -33 -3 -47 -28 -20 -32 -67 -43 -67 -15 0 8 -4 15 -10 15 -14 0 -13
-33 2 -48 7 -7 19 -12 28 -12 12 0 15 -8 12 -35 -4 -35 -4 -35 37 -35 33 0 41
-4 41 -18 0 -10 -6 -24 -12 -31 -11 -10 -8 -10 14 0 15 7 30 20 33 29 3 11 19
20 38 23 37 6 60 -9 37 -23 -13 -8 -12 -10 3 -10 15 0 17 7 15 38 -3 32 0 37
21 40 13 2 25 12 28 22 3 10 16 20 29 23 20 3 23 1 19 -13 -3 -10 -1 -21 5
-25 7 -5 9 -20 6 -40 -5 -22 -2 -36 9 -45 13 -10 15 -9 15 9 0 18 5 22 25 19
13 -2 23 1 22 5 -1 5 6 13 16 18 9 6 14 15 11 21 -4 6 -3 8 2 5 19 -11 53 28
55 65 2 20 1 40 -3 43 -3 4 -2 20 3 38 5 17 6 33 4 36 -3 2 -5 0 -5 -4 0 -5
-6 -2 -12 7 -7 9 -29 18 -50 21 -30 5 -37 2 -41 -15 -5 -17 -11 -20 -40 -15
-28 4 -34 2 -33 -11 2 -26 -79 -34 -100 -11 -9 10 -13 23 -8 30 5 9 0 10 -19
5 -14 -3 -29 -2 -32 4 -3 5 -14 10 -24 10 -10 0 -26 9 -36 20 -14 15 -20 17
-26 8 -6 -9 -10 -8 -15 5 -7 18 -24 23 -24 7z m340 -155 c0 -8 -7 -15 -15 -15
-16 0 -20 12 -8 23 11 12 23 8 23 -8z m64 -11 c9 -23 8 -27 -9 -20 -8 3 -15 1
-15 -3 0 -5 6 -11 13 -14 9 -4 9 -7 0 -17 -10 -11 -15 -11 -28 0 -16 14 -21
55 -5 45 6 -3 13 1 16 9 8 20 20 20 28 0z m-119 -4 c3 -5 -1 -10 -10 -10 -9 0
-13 5 -10 10 3 6 8 10 10 10 2 0 7 -4 10 -10z m-251 -55 c-6 -16 -24 -21 -24
-7 0 11 11 22 21 22 5 0 6 -7 3 -15z"/>
<path d="M6970 9031 c0 -6 9 -15 21 -21 18 -10 20 -9 17 7 -3 19 -38 32 -38
14z"/>
<path d="M7094 8722 c4 -32 17 -38 33 -13 10 16 8 20 -12 29 -22 10 -23 9 -21
-16z"/>
<path d="M6787 8713 c-5 -7 -19 -13 -33 -13 -44 0 -64 -32 -64 -107 0 -16 -6
-23 -20 -23 -12 0 -20 -7 -20 -16 0 -9 -11 -25 -25 -35 -14 -12 -22 -26 -18
-35 3 -9 -4 -29 -16 -45 -12 -16 -19 -34 -16 -39 3 -6 2 -10 -4 -10 -6 0 -15
-9 -21 -20 -9 -17 -8 -20 13 -20 16 0 26 7 30 21 3 11 11 19 19 18 25 -3 34 1
65 30 23 21 29 31 20 40 -8 8 -6 15 9 25 19 14 19 15 0 46 l-18 32 23 -7 c13
-4 33 -16 44 -26 13 -11 25 -15 34 -10 9 6 10 11 2 15 -6 4 -11 12 -11 17 0 6
5 7 10 4 13 -8 13 -2 -4 31 -16 29 -11 53 7 35 12 -12 37 3 37 22 0 6 8 20 17
31 10 12 12 16 4 10 -19 -17 -49 -5 -53 20 -2 15 -5 17 -11 9z"/>
<path d="M7080 8667 c0 -20 5 -25 25 -23 31 1 31 6 0 29 -25 18 -25 18 -25 -6z"/>
<path d="M11637 8333 c-12 -12 -7 -25 7 -20 8 3 19 -5 27 -19 11 -21 11 -27
-1 -35 -8 -5 -25 -8 -38 -6 -17 3 -20 1 -11 -9 6 -7 8 -18 4 -24 -4 -6 12 -28
34 -48 23 -21 41 -43 41 -51 0 -18 54 -87 113 -143 42 -40 48 -50 37 -63 -10
-12 -9 -16 4 -21 9 -3 23 -4 31 0 10 4 15 -1 15 -14 0 -11 5 -20 10 -20 9 0
12 8 9 26 0 4 3 10 8 13 14 10 44 85 42 106 -4 43 1 55 24 52 19 -2 22 3 25
35 3 30 -2 43 -22 62 -21 19 -24 25 -13 35 8 6 17 8 20 4 4 -3 9 2 13 11 4 11
13 15 25 11 22 -7 24 7 8 56 -17 49 -28 60 -48 49 -13 -6 -16 -18 -13 -39 3
-20 0 -31 -8 -31 -6 0 -10 -10 -8 -24 3 -25 -17 -56 -37 -56 -7 0 -18 -7 -25
-15 -15 -18 -80 -15 -104 4 -9 8 -19 12 -22 9 -3 -3 -20 8 -39 25 -26 23 -35
39 -35 62 0 45 -52 100 -73 78z"/>
<path d="M7360 7890 c-9 -6 -10 -10 -3 -10 6 0 15 5 18 10 8 12 4 12 -15 0z"/>
<path d="M11780 7880 c-13 -8 -11 -12 7 -30 22 -20 22 -20 33 -1 5 11 10 24
10 30 0 13 -30 14 -50 1z"/>
<path d="M8526 7331 c-3 -5 3 -11 13 -14 14 -3 18 -1 14 9 -6 16 -19 18 -27 5z"/>
<path d="M8945 6740 c3 -5 8 -10 11 -10 2 0 4 5 4 10 0 6 -5 10 -11 10 -5 0
-7 -4 -4 -10z"/>
<path d="M9000 6734 c0 -8 5 -12 10 -9 6 4 8 11 5 16 -9 14 -15 11 -15 -7z"/>
<path d="M9118 6443 c7 -3 16 -2 19 1 4 3 -2 6 -13 5 -11 0 -14 -3 -6 -6z"/>
<path d="M8939 6414 c-10 -12 -10 -19 -1 -32 6 -10 18 -31 26 -48 9 -20 26
-35 46 -42 28 -10 31 -10 26 4 -3 9 -6 18 -6 20 0 3 -4 2 -10 -1 -5 -3 -10 0
-10 9 0 8 5 16 11 18 8 3 7 13 -3 33 -9 17 -13 37 -11 45 3 10 2 11 -4 3 -6
-8 -14 -9 -23 -3 -21 13 -26 12 -41 -6z"/>
<path d="M9100 6425 c0 -4 5 -15 10 -26 8 -15 7 -19 -5 -19 -18 0 -20 -16 -2
-27 8 -4 16 -16 20 -25 3 -10 12 -15 19 -13 7 3 21 -8 30 -25 22 -38 36 -38
30 0 -3 23 0 30 12 30 9 0 16 6 16 13 -1 20 -27 48 -41 45 -9 -2 -15 8 -17 25
-3 23 -6 26 -17 17 -10 -8 -19 -8 -34 0 -12 6 -21 8 -21 5z"/>
<path d="M8196 6245 c-3 -8 -13 -15 -22 -15 -9 0 -29 -9 -44 -20 -16 -11 -35
-17 -43 -14 -8 3 -18 1 -22 -5 -3 -6 -20 -11 -36 -11 -28 0 -30 -2 -25 -27 3
-16 6 -50 8 -78 l2 -50 -37 0 c-20 0 -37 -5 -37 -11 0 -22 -32 -74 -45 -74 -8
0 -19 -9 -25 -20 -8 -15 -21 -20 -53 -20 l-42 1 24 19 c25 22 21 26 -10 10
-13 -7 -25 -7 -38 -1 -14 8 -23 6 -37 -10 -10 -11 -24 -17 -31 -15 -7 3 -12 0
-10 -6 1 -6 -10 -14 -25 -18 -15 -5 -27 -5 -26 -2 2 20 -3 32 -14 32 -8 0 -9
-3 -1 -11 11 -11 6 -59 -7 -59 -10 0 -8 -20 3 -37 5 -7 5 -17 2 -23 -3 -5 0
-7 9 -4 8 3 23 1 34 -5 30 -16 82 -3 82 20 0 11 9 27 20 36 11 10 20 23 20 30
0 18 17 16 24 -3 11 -29 6 -52 -13 -57 -11 -2 -21 -15 -23 -28 -4 -24 -9 -26
-40 -14 -13 5 -18 2 -18 -9 0 -9 -6 -16 -14 -16 -8 0 -16 -7 -20 -15 -3 -10 1
-15 14 -15 10 0 26 -9 34 -21 16 -24 36 -18 36 12 0 10 5 19 10 19 6 0 10 6 9
13 -7 57 17 40 26 -18 5 -39 11 -48 40 -62 31 -15 35 -15 50 0 10 11 13 25 9
42 -3 14 -1 31 5 39 9 11 6 15 -14 20 -35 9 -32 39 6 75 17 17 28 34 25 39 -3
5 10 12 28 15 19 3 44 15 55 26 12 12 27 21 35 21 9 0 16 17 21 45 3 26 11 43
16 39 6 -3 33 -3 61 1 37 5 52 12 55 25 3 11 18 23 34 29 16 5 32 17 35 26 4
9 17 20 30 25 12 5 24 19 26 32 2 13 8 22 14 21 6 -1 23 -4 37 -7 14 -2 33 -8
42 -13 8 -5 31 -7 50 -5 29 4 35 8 30 23 -4 12 1 22 14 31 15 9 17 15 9 25 -7
9 -7 13 1 13 6 0 11 6 11 13 -1 6 -9 2 -19 -10 -21 -26 -51 -31 -51 -9 0 9
-15 15 -45 18 -26 2 -45 -1 -45 -7 0 -6 -9 -16 -20 -22 -16 -11 -21 -10 -33 7
-8 11 -29 21 -50 24 -20 2 -41 7 -46 10 -5 3 -11 -1 -15 -9z"/>
<path d="M9047 6226 c-11 -27 33 -136 54 -136 6 0 7 -5 3 -12 -4 -7 -3 -8 4
-4 6 4 19 -5 28 -19 9 -14 19 -23 22 -20 3 2 11 0 19 -6 9 -8 13 -8 13 -1 0 6
6 9 14 6 11 -4 13 0 9 15 -3 12 -1 21 6 21 8 0 9 6 2 18 -5 9 -8 21 -8 26 1 5
-7 10 -18 12 -11 2 -28 13 -38 26 -64 81 -99 104 -110 74z"/>
<path d="M9176 5995 c4 -8 10 -12 15 -9 14 8 10 24 -6 24 -9 0 -12 -6 -9 -15z"/>
<path d="M9237 5976 c-5 -12 0 -32 13 -53 23 -40 25 -46 8 -38 -7 3 -3 -2 10
-11 13 -10 22 -27 22 -44 0 -23 4 -27 30 -27 16 0 27 4 24 8 -2 4 9 10 25 14
33 7 33 30 -1 38 -14 4 -18 11 -13 25 3 11 1 23 -5 27 -6 3 -8 10 -5 15 5 9
-55 40 -78 40 -9 0 -17 5 -19 12 -3 7 -7 5 -11 -6z"/>
<path d="M9240 5832 c0 -5 7 -9 15 -9 8 0 15 4 15 9 0 4 -7 8 -15 8 -8 0 -15
-4 -15 -8z"/>
<path d="M7613 5693 c9 -2 23 -2 30 0 6 3 -1 5 -18 5 -16 0 -22 -2 -12 -5z"/>
<path d="M7867 5597 c-3 -8 4 -14 19 -15 17 -1 22 2 18 13 -7 18 -30 20 -37 2z"/>
</g>
</svg>
