<?xml version="1.0" standalone="no"?>
<!DOCTYPE svg PUBLIC "-//W3C//DTD SVG 20010904//EN"
 "http://www.w3.org/TR/2001/REC-SVG-20010904/DTD/svg10.dtd">
<svg version="1.0" xmlns="http://www.w3.org/2000/svg"
 width="447.157809pt" height="325.715902pt" viewBox="0 0 447.157809 325.715902"
 preserveAspectRatio="xMidYMid meet">
<metadata>
Created by potrace 1.15, written by Peter Selinger 2001-2017
</metadata>
<g transform="translate(-774.196087,1197.000000) scale(0.100000,-0.100000)"
fill="#222222" stroke="none">
<path d="M9728 11934 c3 -24 0 -39 -9 -45 -21 -13 10 -12 50 2 31 11 31 12 16
35 -14 22 -14 23 2 18 15 -5 15 -3 -1 10 -11 9 -29 16 -41 16 -18 0 -20 -5
-17 -36z"/>
<path d="M9691 11870 c-1 -9 -14 -21 -31 -27 -17 -6 -30 -19 -30 -28 0 -12 -5
-15 -17 -10 -33 12 -36 10 -47 -30 -20 -71 -51 -108 -111 -135 -30 -13 -55
-29 -55 -35 0 -6 -11 -22 -25 -35 -17 -16 -22 -27 -15 -35 6 -7 7 -26 4 -44
-5 -24 -12 -31 -30 -31 -21 0 -24 -5 -24 -38 0 -32 5 -41 27 -53 20 -10 27
-11 30 -2 2 7 19 17 38 23 26 8 32 15 28 30 -3 12 0 20 6 20 7 0 10 4 6 9 -3
5 -1 12 4 15 16 10 39 -5 45 -29 4 -14 15 -29 26 -35 11 -6 20 -17 20 -24 0
-8 7 -20 16 -27 9 -8 28 -31 41 -53 18 -28 28 -35 36 -27 6 6 30 11 54 11 28
0 46 5 49 14 10 26 47 27 69 3 11 -13 28 -26 38 -30 20 -7 23 -27 5 -27 -7 0
-2 -9 11 -19 l23 -18 -25 -26 c-13 -15 -29 -27 -35 -27 -6 0 -13 -13 -17 -30
-5 -25 -11 -30 -36 -30 -16 0 -29 -4 -29 -9 0 -19 -75 -81 -98 -81 -13 0 -34
-12 -47 -26 -25 -27 -42 -28 -90 -8 -17 7 -18 6 -7 -8 11 -14 10 -23 -8 -57
-11 -23 -25 -41 -31 -41 -6 0 -7 -5 -4 -11 4 -6 -2 -13 -14 -16 -12 -3 -21 -9
-21 -14 0 -5 -6 -9 -14 -9 -8 0 -17 -11 -20 -25 -4 -14 -24 -43 -46 -65 -22
-22 -40 -45 -40 -50 0 -6 -13 -24 -30 -40 -24 -23 -27 -30 -15 -40 11 -9 10
-17 -7 -46 -11 -19 -28 -34 -37 -34 -19 0 -47 -79 -37 -105 3 -8 2 -15 -3 -15
-5 0 -11 -13 -14 -30 -6 -29 -9 -30 -57 -30 -27 0 -50 -4 -50 -9 0 -5 -14 -11
-32 -15 -35 -7 -68 15 -68 45 0 10 -9 23 -21 29 -17 9 -23 8 -33 -5 -10 -14
-16 -15 -34 -6 -19 10 -22 9 -22 -10 0 -20 -3 -21 -54 -15 -30 3 -62 9 -70 12
-13 5 -12 -4 8 -42 l24 -48 -25 -23 c-22 -21 -27 -22 -51 -10 -22 10 -32 10
-52 0 -22 -11 -27 -10 -40 5 -11 14 -25 17 -53 14 -20 -2 -37 -8 -37 -13 0 -4
-22 -6 -50 -4 -51 4 -56 1 -41 -25 14 -21 3 -32 -20 -20 -16 9 -19 8 -16 -11
1 -17 -5 -24 -30 -31 -19 -5 -33 -15 -33 -24 0 -8 -4 -12 -10 -9 -10 6 -58
-21 -75 -43 -10 -13 -94 -40 -152 -49 -23 -4 -41 1 -63 17 -26 19 -36 21 -56
11 -15 -6 -33 -7 -47 -2 -18 7 -28 3 -51 -20 -20 -20 -26 -33 -21 -46 23 -54
-14 -119 -61 -107 -29 7 -29 12 -3 -66 11 -35 18 -71 16 -81 -6 -22 35 -41 69
-33 17 4 31 1 44 -11 24 -21 80 -30 80 -12 1 6 7 1 15 -13 l14 -25 8 23 9 23
26 -20 c14 -12 36 -21 47 -21 12 0 21 -6 21 -14 0 -14 67 -46 94 -46 8 0 17
-12 20 -27 4 -17 19 -35 36 -45 17 -9 30 -24 30 -31 0 -8 9 -17 20 -20 12 -3
20 -14 20 -25 0 -12 8 -23 18 -26 9 -3 29 -25 44 -48 36 -58 84 -103 93 -88 5
8 10 8 21 -1 15 -12 20 -44 5 -35 -5 3 -11 -3 -14 -14 -3 -12 1 -23 10 -29 8
-4 16 -23 18 -42 2 -22 10 -38 26 -48 13 -9 29 -21 34 -27 16 -17 63 -44 77
-44 7 0 19 9 26 21 12 19 15 20 37 5 31 -20 37 -20 33 2 -2 12 5 18 25 20 15
2 27 9 27 18 0 8 5 14 10 14 7 0 6 8 -1 23 -10 19 -10 20 2 11 17 -14 65 13
64 36 0 8 5 21 12 28 24 25 52 11 92 -45 18 -26 29 -33 57 -33 20 0 34 -5 34
-12 0 -6 10 -27 23 -45 19 -29 27 -33 68 -33 44 0 47 2 53 30 5 26 10 30 38
32 18 0 41 0 52 -1 20 -1 56 34 56 56 0 7 7 13 15 13 11 0 12 5 5 26 -13 34
-13 34 11 34 21 0 22 9 4 52 -5 13 -2 15 14 11 16 -4 23 3 35 31 10 25 21 36
35 36 26 0 26 -10 1 -55 -14 -24 -16 -35 -8 -34 29 4 38 -2 38 -26 0 -32 -8
-32 -48 4 -31 29 -32 29 -26 7 3 -13 1 -27 -6 -31 -7 -4 -2 -16 15 -33 37 -37
44 -53 34 -81 -9 -23 -10 -24 -24 -5 -14 18 -15 17 -13 -15 3 -29 9 -38 47
-58 24 -12 48 -20 54 -16 5 3 7 1 3 -5 -3 -6 -2 -22 4 -36 7 -20 6 -27 -7 -34
-21 -12 -10 -28 24 -37 15 -3 42 -18 60 -33 18 -15 45 -37 61 -49 l29 -22 20
21 c12 11 26 17 32 14 12 -8 51 -92 51 -112 0 -19 40 -13 51 8 5 10 16 15 24
12 11 -5 15 1 15 24 0 17 4 34 10 37 5 3 7 19 3 35 -5 26 -3 30 16 30 12 0 20
4 17 9 -3 5 5 16 18 24 17 11 26 29 30 62 l7 46 43 -6 c41 -6 43 -5 56 24 7
17 19 31 27 31 10 0 12 6 8 21 -6 19 -4 21 14 16 20 -5 21 -3 15 49 -7 54 -7
54 21 54 18 0 28 6 32 20 4 14 14 20 35 20 31 0 31 -1 11 47 -3 7 6 17 21 23
14 5 26 14 26 19 0 5 7 16 15 25 17 17 21 52 10 79 -6 15 -4 17 18 12 26 -7
58 10 112 59 43 39 54 46 74 46 14 0 18 5 14 20 -4 14 5 32 30 58 75 78 83 90
82 113 0 14 -10 37 -22 53 -23 28 -32 62 -14 52 5 -4 11 -1 13 5 2 7 21 13 42
14 30 2 41 9 56 32 12 21 15 35 8 46 -7 13 -5 17 7 17 10 0 15 9 15 26 0 23 3
26 25 22 14 -3 28 -1 31 4 3 5 12 7 20 4 7 -3 16 -1 19 4 4 6 16 10 28 10 12
0 37 9 56 21 26 16 32 25 28 45 -3 15 0 24 9 24 7 0 11 10 9 26 -2 22 1 25 21
21 24 -4 34 9 34 45 0 15 5 19 20 15 11 -3 18 -1 15 3 -3 5 0 20 6 34 10 22
18 25 55 24 24 0 44 -5 44 -11 0 -7 4 -7 12 1 7 7 27 12 45 12 23 0 33 5 33
15 0 19 11 19 34 2 23 -17 66 -10 66 10 0 13 9 14 50 9 28 -4 50 -3 50 1 -1
21 -19 29 -58 28 -24 -1 -47 4 -54 12 -6 7 -25 13 -43 13 -24 0 -44 11 -81 45
-27 25 -62 48 -77 52 -16 3 -35 16 -44 30 -8 13 -21 22 -27 21 -15 -3 -94 44
-101 60 -2 7 -1 11 4 8 13 -8 32 19 26 36 -6 15 -125 25 -125 11 0 -5 -14 -9
-31 -9 -17 -1 -35 -7 -39 -13 -8 -14 -50 32 -50 55 0 8 -8 14 -19 14 -10 0
-43 27 -74 60 -30 33 -60 60 -65 60 -6 0 -14 10 -18 22 -4 12 -24 39 -45 61
-22 21 -39 44 -39 52 0 8 -7 15 -15 15 -8 0 -29 13 -47 29 -18 15 -43 33 -55
40 -19 9 -23 8 -28 -10 -6 -17 -12 -20 -33 -14 -15 3 -49 10 -75 14 -35 5 -58
17 -85 43 -23 23 -51 38 -76 43 -25 4 -50 18 -69 38 -16 17 -46 39 -67 48 -46
21 -80 80 -60 104 10 12 10 15 0 15 -7 0 -10 7 -6 15 6 17 -39 75 -59 75 -22
0 -47 30 -36 44 6 7 6 17 1 26 -13 20 -12 30 0 30 6 0 17 5 24 12 10 10 6 19
-21 45 -18 19 -33 41 -33 51 0 9 -6 35 -14 56 -9 27 -11 49 -5 70 13 44 11 56
-7 56 -12 0 -15 6 -11 22 8 28 -9 48 -38 48 -13 0 -26 6 -28 13 -4 8 -6 7 -6
-3z m199 -700 c0 -5 -2 -10 -4 -10 -3 0 -8 5 -11 10 -3 6 -1 10 4 10 6 0 11
-4 11 -10z m29 -19 c-15 -5 -22 6 -14 19 6 9 10 9 16 -1 5 -8 4 -15 -2 -18z
m861 -1133 c0 -6 -6 -5 -15 2 -8 7 -15 14 -15 16 0 2 7 1 15 -2 8 -4 15 -11
15 -16z m-15 -28 c3 -6 -1 -7 -9 -4 -18 7 -21 14 -7 14 6 0 13 -4 16 -10z"/>
<path d="M9310 11792 c0 -4 16 -20 36 -37 19 -17 36 -39 38 -50 4 -28 48 -30
65 -3 7 11 10 22 7 25 -2 3 0 17 5 31 12 31 -7 48 -28 26 -16 -15 -73 -19 -73
-5 0 5 -11 11 -25 13 -14 3 -25 3 -25 0z"/>
<path d="M12150 10571 c-8 -6 -18 -7 -22 -5 -4 3 -8 0 -8 -5 0 -6 -7 -11 -15
-11 -8 0 -15 -7 -15 -15 0 -8 -4 -15 -10 -15 -5 0 -10 -6 -10 -13 0 -6 -13
-18 -30 -25 -32 -14 -41 -42 -14 -42 11 0 14 -6 9 -21 -6 -17 -4 -19 12 -10
10 6 34 14 53 19 22 5 35 14 35 25 0 9 6 22 13 29 6 6 12 25 12 40 0 15 5 28
10 28 6 0 10 7 10 15 0 17 -9 19 -30 6z"/>
<path d="M11779 10492 c8 -15 6 -23 -12 -39 -12 -11 -30 -23 -39 -26 -10 -4
-18 -15 -18 -26 0 -26 -22 -35 -116 -47 -34 -4 -54 -12 -62 -25 -11 -17 -9
-18 19 -12 22 4 38 0 57 -14 15 -11 45 -26 67 -33 50 -15 53 -18 59 -54 3 -16
17 -42 32 -57 14 -15 23 -32 19 -38 -8 -15 16 -81 30 -81 6 0 22 -12 36 -26
24 -26 60 -46 89 -49 8 -1 30 -9 47 -18 17 -9 39 -14 47 -11 10 4 20 -3 27
-20 7 -14 18 -26 26 -26 7 0 13 -5 13 -11 0 -8 5 -7 15 1 9 7 33 14 53 15 35
1 37 3 38 35 0 19 -3 41 -9 48 -5 6 -6 12 -1 12 5 0 3 4 -5 9 -12 8 -12 13 1
33 32 49 27 125 -7 112 -9 -4 -15 0 -15 9 0 8 -7 20 -15 27 -8 7 -15 23 -15
37 0 14 -4 21 -10 18 -5 -3 -10 1 -10 9 0 8 5 18 11 21 16 10 -30 55 -56 55
-12 0 -30 11 -41 24 -10 14 -29 27 -42 31 -13 3 -22 11 -19 18 2 7 -3 17 -11
23 -13 9 -12 14 7 33 13 13 20 26 16 29 -4 4 -12 -1 -19 -10 -12 -16 -15 -15
-47 7 -21 14 -56 26 -92 30 -56 6 -58 6 -48 -13z"/>
</g>
</svg>
