<?xml version="1.0" standalone="no"?>
<!DOCTYPE svg PUBLIC "-//W3C//DTD SVG 20010904//EN"
 "http://www.w3.org/TR/2001/REC-SVG-20010904/DTD/svg10.dtd">
<svg version="1.0" xmlns="http://www.w3.org/2000/svg"
 width="918.109382pt" height="648.680055pt" viewBox="0 0 918.109382 648.680055"
 preserveAspectRatio="xMidYMid meet">
<metadata>
Created by potrace 1.15, written by Peter Selinger 2001-2017
</metadata>
<g transform="translate(-579.423411,1332.735560) scale(0.100000,-0.100000)"
fill="#222222" stroke="none">
<path d="M7935 13311 c-5 -16 -10 -18 -43 -9 -74 19 -90 20 -113 5 -13 -9 -36
-17 -51 -19 -15 -2 -30 -7 -34 -10 -3 -4 -12 -4 -20 -1 -7 2 -23 -2 -35 -10
-22 -16 -42 -13 -69 8 -19 16 -60 26 -60 15 0 -11 -71 -1 -84 11 -15 13 -26
11 -26 -5 0 -7 -11 -34 -25 -59 -20 -35 -33 -46 -59 -51 -27 -5 -35 -12 -40
-36 -3 -17 -27 -51 -56 -80 -45 -45 -50 -55 -48 -88 2 -31 0 -36 -14 -34 -12
2 -18 -4 -18 -17 0 -11 -13 -30 -30 -43 -16 -12 -30 -28 -30 -35 0 -7 -9 -13
-20 -13 -14 0 -20 -7 -20 -21 0 -15 -5 -19 -19 -14 -19 6 -28 -16 -29 -70 -1
-30 -21 -77 -31 -71 -4 3 -6 -6 -3 -19 3 -17 0 -25 -10 -25 -8 0 -20 -11 -26
-25 -8 -17 -20 -25 -38 -25 -23 0 -25 -3 -20 -24 4 -15 0 -28 -10 -37 -10 -8
-14 -22 -10 -41 3 -15 1 -30 -5 -34 -6 -3 -9 -15 -6 -25 3 -12 -2 -20 -14 -24
-25 -8 -32 -37 -20 -81 9 -33 8 -39 -10 -52 -60 -42 -72 -58 -60 -79 15 -29
14 -43 -4 -43 -19 0 -19 -30 0 -56 18 -24 19 -34 1 -34 -27 0 -27 -32 -1 -69
50 -71 53 -73 74 -66 12 3 22 3 22 -2 7 -47 6 -63 -2 -68 -18 -12 -10 -53 12
-60 16 -5 20 -13 16 -31 -2 -13 2 -29 9 -35 23 -19 28 -68 8 -90 -10 -11 -12
-19 -6 -19 7 0 12 -6 12 -14 0 -8 9 -21 19 -28 10 -8 21 -25 23 -38 2 -17 9
-25 23 -25 11 0 26 -4 33 -8 7 -5 12 -3 12 4 0 6 8 9 20 6 11 -3 27 1 35 10 8
8 15 10 15 4 0 -5 -7 -17 -16 -25 -8 -9 -13 -16 -9 -16 3 0 -6 -11 -20 -24
-24 -22 -24 -25 -9 -40 12 -13 19 -14 30 -5 8 6 14 18 14 25 0 17 26 19 36 3
4 -7 -1 -16 -10 -21 -12 -7 -14 -16 -9 -36 6 -24 5 -26 -10 -14 -13 11 -23 12
-54 1 -21 -7 -48 -13 -60 -15 -11 -1 -35 -12 -51 -24 -26 -19 -33 -20 -53 -9
-13 7 -28 18 -34 24 -14 17 -45 26 -45 14 0 -7 -11 -8 -29 -4 -22 5 -38 1 -59
-15 -17 -13 -47 -23 -72 -24 -35 -2 -44 1 -53 21 -10 23 -41 31 -52 13 -3 -5
-17 -10 -31 -10 -28 0 -30 -8 -9 -36 8 -10 15 -29 15 -41 0 -15 16 -32 49 -54
28 -17 52 -38 55 -45 3 -8 11 -14 18 -14 14 -1 68 -45 68 -55 0 -4 7 -13 15
-21 9 -10 15 -34 15 -64 0 -39 4 -52 22 -65 14 -9 24 -11 26 -5 2 5 15 10 28
10 18 0 24 -5 24 -21 0 -13 -4 -18 -12 -13 -7 4 -3 -3 9 -15 26 -25 43 -27 43
-6 0 8 8 15 18 15 10 0 23 5 30 12 9 9 12 6 12 -14 0 -17 -6 -28 -17 -31 -15
-4 -15 -5 2 -6 11 0 35 3 54 9 29 8 34 7 38 -10 3 -11 9 -20 14 -20 5 0 9 -15
9 -33 0 -23 -8 -40 -25 -55 -19 -16 -24 -28 -19 -46 6 -25 -10 -44 -21 -26 -3
5 -27 10 -52 10 -36 0 -49 -5 -65 -25 -21 -27 -58 -34 -58 -11 0 7 8 16 19 19
14 3 17 11 14 31 -5 22 -9 25 -27 19 -11 -4 -36 -8 -53 -8 -18 0 -33 -3 -33
-7 0 -3 -10 -4 -22 0 -21 5 -22 4 -9 -12 13 -16 12 -17 -12 -11 -21 6 -31 1
-55 -26 -23 -26 -32 -30 -46 -22 -17 10 -66 -3 -66 -17 0 -4 -15 -4 -34 -2
-27 3 -34 0 -38 -16 -3 -12 -29 -33 -56 -49 -42 -23 -72 -56 -72 -78 0 -16
134 -69 138 -55 2 6 11 10 20 10 13 0 14 -2 3 -9 -10 -7 -9 -11 6 -22 13 -9
18 -25 17 -46 -2 -34 0 -35 64 -48 25 -5 32 -3 32 8 0 21 27 15 44 -9 8 -10
26 -19 41 -19 22 -1 26 3 22 22 -7 38 19 26 36 -16 9 -22 21 -42 27 -46 5 -3
10 -19 10 -35 0 -16 5 -32 10 -35 15 -9 12 -36 -7 -57 -14 -16 -15 -23 -5 -39
9 -13 9 -19 1 -19 -7 0 -8 -7 -4 -17 4 -10 9 -37 11 -61 3 -40 2 -42 -18 -31
l-21 11 21 -29 c12 -17 18 -38 15 -53 -3 -18 5 -37 27 -65 18 -22 38 -40 44
-39 16 1 18 -38 3 -48 -8 -5 -5 -12 11 -23 12 -9 22 -25 22 -36 0 -10 6 -19
13 -19 9 0 12 -16 12 -52 0 -41 5 -57 20 -70 11 -10 16 -17 12 -18 -4 0 -3 -9
3 -21 11 -20 9 -20 -30 -18 -29 2 -46 -1 -54 -12 -6 -9 -17 -14 -24 -12 -7 3
-10 -1 -6 -10 3 -9 -4 -21 -17 -31 -18 -12 -20 -18 -10 -30 7 -8 10 -20 6 -26
-4 -7 2 -18 14 -26 22 -16 52 -62 32 -50 -26 16 -9 -44 22 -78 27 -29 33 -42
29 -67 -5 -32 28 -79 55 -79 26 0 37 -46 23 -90 -11 -33 -11 -47 1 -82 10 -32
11 -42 1 -46 -20 -6 -14 -28 11 -39 17 -8 28 -6 49 9 21 14 31 16 45 8 10 -5
30 -14 46 -20 20 -7 27 -16 27 -35 0 -18 5 -25 20 -25 13 0 20 -7 20 -19 0
-10 9 -21 20 -24 14 -3 18 -10 14 -22 -5 -11 0 -18 13 -21 25 -7 48 -43 35
-56 -12 -12 25 -53 56 -60 13 -4 20 -2 16 3 -3 6 6 8 23 5 15 -2 31 -5 34 -5
3 -1 4 -14 3 -31 -2 -26 0 -28 16 -20 32 17 37 11 39 -50 1 -55 -1 -64 -28
-90 -16 -17 -38 -30 -48 -30 -10 0 -24 -10 -32 -22 -12 -19 -11 -23 4 -35 16
-11 17 -17 7 -38 -10 -22 -14 -24 -26 -13 -8 8 -11 19 -6 28 8 17 3 40 -10 40
-5 0 -14 -9 -20 -20 -9 -17 -5 -27 20 -59 28 -35 34 -37 56 -27 15 7 24 19 24
34 0 16 6 22 23 22 42 0 68 12 62 28 -5 12 3 14 49 8 52 -6 54 -5 48 17 -5 20
-4 20 11 8 14 -11 22 -11 51 3 19 9 39 16 45 16 19 0 12 39 -9 50 -11 6 -20
17 -20 25 0 8 -14 22 -30 32 -27 16 -30 23 -28 57 2 28 -2 41 -15 50 -13 8
-20 8 -26 -2 -7 -11 -10 -10 -15 3 -9 24 -8 25 15 25 11 0 17 5 14 10 -3 6 1
13 9 16 9 3 16 12 16 20 0 8 5 14 10 14 6 0 10 6 10 13 0 16 55 77 69 77 7 0
7 8 1 25 -8 21 -7 25 9 25 10 0 21 7 25 15 3 8 12 15 21 15 9 0 15 9 15 21 0
16 5 20 18 17 23 -6 37 15 47 70 4 23 10 42 15 42 8 0 -2 70 -14 88 -4 7 -2
12 4 12 7 0 10 7 7 15 -4 8 -2 17 3 20 6 4 10 15 10 25 0 10 6 21 13 23 9 4 9
6 -1 6 -7 1 -24 13 -38 29 -13 15 -23 21 -22 13 4 -19 -48 -39 -62 -25 -6 6
-14 24 -19 41 -8 29 -7 31 20 35 16 3 29 1 29 -4 0 -13 50 -9 50 5 1 6 13 -3
29 -20 15 -18 32 -33 38 -33 5 0 35 -25 66 -56 50 -50 60 -56 89 -51 18 2 40
1 49 -4 12 -6 22 0 37 21 12 16 22 34 22 39 0 11 53 4 82 -10 30 -16 50 -11
43 10 -4 13 0 23 11 29 13 7 14 14 6 27 -12 23 9 48 33 38 28 -10 69 -9 82 3
6 6 13 22 15 35 1 13 10 30 19 36 10 7 22 26 27 42 9 26 8 31 -8 36 -12 4 -24
22 -31 48 -6 23 -17 46 -26 52 -8 6 -15 18 -17 27 -1 10 -11 27 -22 39 l-19
22 25 -14 c14 -7 29 -12 34 -11 5 2 16 0 25 -4 9 -4 21 -8 26 -8 6 -1 30 -8
54 -15 39 -11 50 -11 78 3 19 9 45 16 58 16 14 0 25 5 25 11 0 8 5 7 16 -2 13
-11 20 -8 44 21 27 31 33 33 86 32 39 -1 60 -6 68 -18 10 -12 29 -16 80 -16
77 1 101 13 85 44 -8 15 -8 22 0 28 7 3 9 14 6 22 -8 19 25 33 68 29 36 -3 86
19 93 42 4 14 9 16 20 6 8 -6 14 -7 14 -2 0 6 13 10 30 11 26 1 29 -2 20 -18
-5 -10 -7 -32 -4 -48 5 -24 2 -31 -15 -37 -15 -4 -20 -14 -18 -36 1 -16 7 -29
14 -29 6 0 25 -8 42 -17 25 -15 34 -16 51 -5 27 16 69 15 76 -2 5 -12 11 -13
30 -4 13 6 24 15 24 20 0 4 9 8 20 8 11 0 20 6 20 13 0 25 20 -18 20 -45 0
-18 -5 -28 -15 -28 -22 0 -18 -21 4 -27 13 -3 26 -22 35 -51 9 -25 16 -47 16
-48 0 -1 -10 -4 -22 -6 l-23 -3 22 -22 c28 -28 46 -62 40 -77 -3 -7 6 -22 19
-35 18 -17 30 -21 52 -16 24 5 32 1 45 -18 9 -13 30 -27 46 -30 30 -6 31 -8
25 -44 -5 -37 -4 -38 38 -55 24 -10 50 -18 59 -18 22 0 30 -11 18 -26 -7 -8
-7 -14 1 -19 5 -3 10 -13 10 -21 0 -9 -5 -12 -12 -8 -13 8 -5 -64 9 -76 4 -4
33 -4 64 -1 54 6 56 6 68 -20 12 -27 40 -38 104 -42 15 -1 27 -7 27 -13 0 -7
13 -14 29 -16 17 -2 28 -1 25 3 -2 4 9 22 24 39 26 28 30 29 42 14 8 -9 19
-26 25 -38 7 -13 19 -20 33 -19 18 2 22 -2 22 -25 0 -26 41 -82 60 -82 4 0 11
13 15 29 5 25 10 29 27 22 26 -9 52 -77 32 -85 -7 -3 -12 -19 -12 -36 1 -21 5
-29 14 -26 19 7 13 -36 -8 -55 -23 -21 -23 -32 2 -54 22 -20 27 -61 9 -67 -9
-3 -9 -9 0 -25 17 -33 14 -64 -5 -56 -9 3 -19 1 -23 -6 -5 -8 -15 -6 -33 9
-38 29 -61 25 -102 -20 -34 -38 -35 -42 -30 -97 3 -32 14 -75 25 -95 16 -34
17 -39 3 -53 -9 -8 -20 -15 -25 -15 -5 0 -9 -9 -9 -20 0 -11 5 -20 10 -20 15
0 12 -31 -9 -76 -16 -34 -25 -43 -55 -48 -23 -5 -36 -12 -36 -23 0 -13 -3 -13
-15 -3 -18 15 -45 6 -45 -15 0 -8 -4 -15 -9 -15 -5 0 -11 -15 -13 -32 -3 -18
-8 -41 -13 -50 -6 -15 -2 -18 25 -18 25 0 31 -3 26 -16 -4 -10 3 -23 18 -35
27 -21 48 -74 43 -107 -2 -12 -17 -34 -34 -49 -32 -30 -33 -53 -2 -53 10 0 19
-5 19 -11 0 -6 -7 -9 -15 -5 -21 8 -19 -8 4 -28 12 -11 27 -15 39 -12 10 4 32
0 48 -9 16 -8 34 -15 40 -15 6 0 21 -12 35 -26 25 -26 29 -27 122 -11 35 6 66
33 84 76 l14 33 22 -20 c30 -26 61 -42 86 -42 12 0 20 -4 18 -8 -3 -10 56 -62
111 -96 24 -15 63 -47 86 -72 l43 -45 46 13 c38 10 51 9 72 -2 24 -13 25 -15
10 -26 -11 -8 -13 -14 -5 -19 6 -4 14 -4 17 -1 3 3 14 1 24 -5 15 -7 19 -6 19
5 0 7 17 21 39 29 40 16 56 38 52 71 -3 20 3 18 51 -17 40 -29 48 -16 41 68
-4 52 -2 80 7 90 7 8 10 25 6 39 -3 14 -2 27 3 31 11 6 9 70 -2 81 -13 13 -7
22 12 17 11 -3 32 7 54 26 35 31 35 31 36 122 1 51 4 96 7 100 3 5 16 9 30 9
20 0 24 5 24 30 0 17 5 30 11 30 11 0 9 16 -6 53 -5 13 -2 17 13 17 25 0 72
20 72 31 0 4 -4 11 -10 14 -19 12 -11 43 13 47 30 6 47 0 47 -17 0 -18 46 -28
70 -15 10 5 28 10 39 10 11 0 22 8 25 18 3 9 20 23 38 31 45 20 99 76 92 95
-4 11 -1 16 10 16 9 0 16 8 16 19 0 11 16 37 35 58 29 31 35 46 35 81 0 28 6
50 19 63 14 16 18 30 14 55 -4 22 -2 34 6 34 6 0 11 7 11 16 0 22 29 43 58 44
12 0 22 5 22 11 0 5 4 8 8 5 5 -3 20 3 34 12 23 15 25 19 12 36 -7 10 -11 23
-8 27 3 5 -2 9 -10 9 -22 0 -51 102 -37 128 7 14 7 29 -2 52 -9 26 -9 34 1 37
6 3 12 11 12 18 0 7 5 15 12 17 7 3 8 9 2 19 -21 34 -33 83 -22 91 7 3 16 4
21 1 5 -3 6 4 2 16 -4 12 -2 21 4 21 6 0 11 11 11 25 0 18 5 25 19 25 26 0 31
20 13 47 -12 20 -12 23 1 29 9 3 13 13 10 24 -3 12 3 22 17 30 16 9 19 15 11
23 -16 16 -13 37 5 37 10 0 14 6 10 15 -8 22 3 18 24 -7 25 -32 30 -21 17 35
-8 35 -17 51 -33 57 -30 12 -30 76 -1 84 11 3 16 9 12 16 -5 9 -1 10 14 5 21
-6 22 -4 16 28 -6 32 -4 36 25 51 18 8 36 13 41 11 4 -3 13 4 19 16 l12 21 24
-23 c16 -15 21 -26 14 -33 -6 -6 2 -31 26 -74 25 -47 35 -75 33 -101 -2 -20 0
-42 4 -48 4 -6 3 -14 -1 -17 -5 -3 -4 -21 2 -41 11 -34 12 -35 63 -35 50 0 67
10 41 26 -15 9 18 34 46 34 12 0 33 14 48 32 25 31 31 33 97 35 40 1 71 -2 71
-7 0 -6 9 -10 19 -10 11 0 29 -12 41 -27 l22 -28 -21 -14 c-12 -7 -21 -24 -21
-37 0 -25 15 -33 23 -11 3 9 8 9 21 -2 17 -14 16 -15 -4 -23 -32 -12 -70 1
-80 28 -5 13 -17 24 -25 24 -9 0 -13 -4 -10 -10 3 -5 -15 -24 -40 -42 -25 -18
-43 -38 -41 -44 6 -15 -13 -31 -34 -32 -8 0 -33 -10 -55 -22 -22 -11 -32 -19
-23 -16 16 5 48 -17 48 -32 0 -4 -11 -16 -25 -26 -13 -10 -23 -22 -20 -26 6
-10 55 0 55 11 0 5 14 9 30 9 23 0 30 4 30 20 0 11 7 23 15 26 10 4 13 14 9
30 -7 27 7 31 49 15 20 -8 27 -6 31 6 9 22 55 9 84 -24 18 -20 26 -23 32 -13
4 7 13 10 18 6 6 -4 21 -1 32 6 18 11 23 10 34 -5 12 -15 15 -15 26 -2 7 8 22
15 34 15 11 0 33 6 47 14 17 9 44 12 73 9 32 -4 53 -1 70 11 31 20 63 20 109
1 27 -11 36 -12 40 -2 2 6 -6 17 -17 22 -12 6 -21 15 -22 20 0 11 -22 89 -31
111 -3 8 1 14 11 14 10 0 13 6 10 15 -4 8 -1 15 6 15 9 0 7 7 -5 20 -17 18
-17 20 -1 20 9 0 32 12 50 26 30 25 33 30 28 70 -6 57 29 194 50 194 5 0 8 9
8 20 0 11 -7 20 -15 20 -9 0 -15 9 -15 24 0 27 -14 42 -51 51 -21 5 -27 2 -31
-13 -4 -16 -12 -19 -34 -14 -16 3 -32 10 -36 16 -5 8 -8 7 -8 -1 0 -7 -7 -13
-15 -13 -9 0 -15 -9 -15 -21 0 -15 -5 -20 -22 -17 -15 2 -23 10 -23 23 0 28
-13 45 -35 45 -14 0 -18 5 -13 17 4 10 2 14 -5 9 -14 -9 -44 34 -33 48 16 19
16 53 1 71 -14 17 -13 18 2 13 21 -8 33 19 17 38 -9 11 -7 14 7 14 13 1 6 8
-18 21 -21 11 -38 26 -38 34 0 8 -4 15 -10 15 -5 0 -10 10 -10 23 0 25 -44 77
-65 77 -8 0 -19 9 -25 20 -6 11 -16 20 -22 20 -6 0 -20 7 -30 17 -11 10 -18
12 -18 4 0 -19 -38 6 -45 30 l-7 21 -19 -21 c-11 -12 -24 -21 -29 -21 -17 0
-11 38 7 44 14 6 15 9 4 16 -8 4 -11 15 -8 24 4 10 1 16 -7 16 -15 0 -56 42
-56 57 0 6 -7 16 -16 24 -14 12 -14 14 5 20 30 12 12 61 -43 113 -51 47 -55
60 -27 77 11 7 16 19 13 31 -5 22 33 26 41 4 5 -13 12 -13 46 2 23 9 41 23 41
30 0 9 10 11 36 6 42 -8 80 9 87 38 4 15 11 18 29 13 25 -8 25 -8 52 -6 11 1
16 6 13 15 -4 9 2 17 14 21 11 4 27 22 36 41 16 33 45 45 58 24 4 -7 13 -7 26
0 11 6 16 16 13 22 -5 7 -2 9 8 5 11 -4 18 2 22 16 10 38 7 40 -30 18 -19 -12
-48 -21 -65 -21 -16 0 -29 -4 -29 -10 0 -5 -11 -10 -23 -10 -27 0 -87 -27 -87
-40 0 -4 -13 -13 -30 -18 -29 -10 -30 -9 -48 31 -28 62 -50 77 -105 73 -25 -2
-49 0 -53 3 -3 3 -18 6 -32 6 -24 0 -27 4 -28 35 -3 74 -4 80 -20 80 -8 0 -20
13 -25 29 -6 16 -19 31 -29 34 -13 3 -17 0 -13 -9 4 -11 -3 -11 -43 1 -59 18
-78 36 -81 79 -1 19 -6 51 -12 73 -9 32 -15 38 -38 40 -15 1 -33 -3 -40 -8 -7
-7 -22 -3 -45 11 -18 11 -40 20 -50 20 -9 0 -25 12 -36 26 l-19 27 -16 -41
c-19 -48 -36 -59 -97 -61 -25 0 -47 -6 -48 -11 -2 -6 -20 -17 -39 -25 -32 -14
-37 -13 -62 4 -30 21 -98 45 -123 43 -9 0 -24 8 -34 19 -9 10 -21 19 -25 19
-5 0 -31 14 -59 31 -28 17 -57 28 -65 25 -9 -3 -15 0 -15 9 0 11 -6 12 -24 5
-19 -7 -28 -4 -45 16 -18 20 -25 23 -42 14 -11 -6 -29 -8 -41 -4 -11 3 -24 1
-27 -5 -5 -7 -17 -8 -38 -2 -27 8 -30 7 -26 -10 12 -43 -41 -57 -98 -28 -11 6
-21 4 -28 -5 -16 -19 31 -59 68 -59 26 0 31 -5 42 -45 10 -37 10 -45 -2 -53
-12 -8 -11 -11 3 -20 17 -9 17 -12 3 -40 l-16 -29 48 -30 c58 -37 127 -41 163
-10 24 21 57 19 72 -4 5 -6 8 -2 8 12 0 23 14 30 26 11 3 -6 1 -15 -6 -19 -8
-5 -5 -9 9 -13 12 -3 21 -2 21 3 0 10 51 7 68 -3 6 -5 12 -13 12 -18 0 -6 -4
-7 -10 -4 -5 3 -10 -1 -10 -9 0 -9 15 -23 33 -32 17 -9 33 -18 35 -19 2 -2 0
-20 -4 -40 -6 -32 -9 -36 -31 -31 l-24 7 25 -39 c18 -28 22 -42 14 -50 -8 -8
-6 -18 6 -36 21 -33 21 -34 -9 -29 -19 4 -25 0 -31 -21 -4 -17 -13 -26 -25
-26 -12 0 -19 -7 -19 -20 0 -10 -6 -23 -14 -27 -7 -4 -21 -23 -30 -42 -21 -40
-13 -129 12 -147 14 -10 13 -16 -11 -48 -23 -30 -25 -36 -11 -36 10 0 14 -3
11 -7 -4 -3 0 -14 9 -24 14 -16 13 -19 -13 -43 -15 -14 -37 -26 -48 -26 -11 0
-30 -6 -41 -13 -80 -46 -101 -55 -115 -46 -20 13 -26 11 -31 -9 -5 -16 -12
-18 -48 -13 -36 5 -46 11 -59 38 -18 36 -50 44 -71 18 -14 -17 -51 -20 -47 -4
1 6 -4 14 -10 16 -7 3 -13 -3 -13 -12 0 -9 -6 -15 -12 -12 -7 2 -12 11 -10 21
2 9 -2 16 -8 16 -5 0 -10 9 -10 20 0 11 -7 20 -15 20 -8 0 -19 10 -26 21 -9
18 -8 24 5 31 15 8 12 14 -19 42 -19 18 -35 41 -35 52 0 24 -49 74 -73 74 -9
0 -40 23 -69 51 -39 38 -58 50 -77 48 -17 -2 -43 10 -76 34 -27 20 -59 37 -71
37 -13 0 -37 20 -62 49 -28 33 -51 51 -70 53 -17 2 -26 8 -24 17 2 10 -5 12
-26 8 -17 -3 -34 -1 -41 6 -9 9 -14 8 -21 -3 -7 -10 -10 -11 -10 -2 0 24 -2
27 -16 35 -8 4 -14 15 -14 22 0 8 -4 15 -10 15 -5 0 -10 7 -10 16 0 10 -6 14
-17 10 -59 -17 -71 -17 -81 0 -10 19 -32 11 -32 -12 0 -19 -19 -18 -26 1 -5
11 -10 13 -19 5 -7 -6 -28 -15 -45 -20 -27 -8 -38 -6 -61 11 -37 26 -99 37
-99 18 0 -15 -75 -20 -97 -6 -6 4 -13 2 -15 -4 -3 -8 -13 -7 -35 5 -38 19 -53
20 -49 4 1 -7 1 -10 -1 -5 -3 4 -17 7 -33 7 -20 0 -31 -6 -35 -20 -7 -23 -25
-26 -43 -8 -9 9 -12 8 -12 -6 0 -19 -43 -66 -61 -66 -5 0 -9 8 -9 18 0 9 -11
35 -25 57 -13 22 -25 48 -25 57 0 18 -51 50 -71 46 -6 -2 -13 5 -14 16 -3 14
1 17 21 13 18 -3 24 0 24 14 0 10 7 22 16 27 9 5 14 15 10 21 -4 6 -11 9 -15
6 -5 -2 -14 15 -21 38 -6 23 -16 47 -22 54 -5 6 -10 27 -10 45 -1 18 -9 48
-20 66 -10 18 -18 39 -18 47 0 8 -4 15 -9 15 -5 0 -14 14 -20 30 -5 17 -6 30
-1 30 4 0 6 9 3 20 -3 12 1 22 11 26 10 4 16 18 16 38 0 55 11 76 50 96 31 16
39 17 43 5 4 -8 14 -11 25 -8 12 3 22 -1 25 -11 9 -23 20 -20 46 15 l23 30
-26 22 c-25 21 -37 55 -16 42 17 -11 38 20 33 47 -3 17 1 32 14 45 21 21 20
73 -2 73 -9 0 -12 -6 -9 -15 5 -11 -1 -15 -21 -15 -19 0 -26 4 -22 14 3 8 1
16 -6 19 -16 5 -10 74 10 103 15 23 14 26 -1 37 -9 7 -19 29 -23 50 -5 33 -3
37 16 37 26 0 46 17 55 48 4 12 12 22 17 22 21 0 -26 149 -51 165 -6 3 -10 14
-10 24 0 10 -11 26 -25 35 -15 10 -23 22 -19 29 4 7 4 9 0 6 -4 -4 -44 9 -89
27 l-82 35 -17 -21 c-14 -17 -18 -18 -25 -7 -12 21 -53 32 -53 15 0 -8 -13
-27 -30 -43 l-30 -29 -22 21 c-13 11 -38 28 -55 37 -18 9 -35 27 -39 40 -3 13
-17 29 -30 35 -33 14 -34 14 -34 -7 0 -18 -29 -52 -44 -52 -16 0 -81 -34 -89
-47 -6 -10 -25 -11 -78 -7 -60 6 -69 5 -69 -10 0 -18 -15 -22 -25 -6 -3 6 -17
10 -30 10 -29 0 -58 37 -46 59 14 26 11 93 -4 87 -7 -2 -18 1 -24 7 -11 11
-29 17 -71 22 -14 1 -27 4 -30 5 -3 1 -12 2 -20 1 -29 -2 -60 33 -68 78 -5 28
-14 48 -27 55 -11 5 -33 19 -48 29 -18 12 -39 17 -55 14 -17 -3 -35 2 -51 14
-13 10 -32 19 -42 19 -11 0 -31 17 -47 39 -15 22 -40 47 -56 56 -25 16 -27 19
-12 27 16 9 16 11 0 30 -12 12 -15 22 -8 26 14 9 16 30 15 112 -3 113 -3 115
-29 112 -13 -2 -32 4 -43 14 -14 13 -19 14 -19 4 0 -11 -3 -11 -12 -2 -14 14
-42 16 -33 2 10 -15 -28 1 -42 18 -7 9 -13 26 -13 39 0 22 -18 28 -31 9 -4 -4
-16 -3 -27 3 -17 9 -22 8 -27 -8z m-618 -1888 c22 -11 34 -26 39 -47 8 -37 33
-78 44 -71 11 7 52 -74 46 -90 -8 -22 32 -70 66 -78 18 -4 44 -11 56 -14 35
-8 71 -46 78 -80 5 -25 3 -29 -13 -28 -34 4 -51 16 -57 41 -4 14 -11 22 -16
19 -5 -3 -13 2 -19 12 -9 16 -11 17 -28 1 -13 -12 -23 -14 -33 -7 -8 5 -43 8
-78 8 -55 -2 -66 1 -90 24 -16 15 -32 27 -36 27 -11 0 -51 51 -51 65 0 5 -15
17 -33 27 -40 20 -61 45 -55 68 3 9 -3 24 -11 33 -22 21 -20 37 4 37 13 0 20
7 20 20 0 22 15 27 25 9 5 -7 15 -3 29 10 12 12 26 18 29 14 4 -3 7 6 7 22 0
27 1 27 23 11 12 -9 36 -24 54 -33z m707 11 c3 -9 6 -23 6 -32 0 -13 -5 -11
-19 8 -19 23 -19 40 -1 40 4 0 11 -7 14 -16z m-1074 -144 c0 -5 -2 -10 -4 -10
-3 0 -8 5 -11 10 -3 6 -1 10 4 10 6 0 11 -4 11 -10z m810 -130 c0 -8 46 -30
60 -30 6 0 10 6 10 13 0 8 8 23 18 35 18 20 19 20 34 2 9 -10 14 -21 11 -23
-3 -3 -1 -12 3 -19 5 -7 9 -24 11 -38 1 -14 4 -36 8 -50 5 -20 1 -27 -21 -37
-19 -9 -31 -10 -40 -2 -9 7 -15 6 -21 -6 -8 -14 -11 -14 -30 2 -25 22 -21 73
6 73 13 0 12 4 -5 18 -26 21 -74 86 -74 98 1 10 30 -26 30 -36z m-925 -40 c3
-5 1 -10 -4 -10 -6 0 -11 5 -11 10 0 6 2 10 4 10 3 0 8 -4 11 -10z m921 -98
c6 -4 13 -17 16 -29 5 -17 0 -22 -21 -26 -14 -3 -30 -2 -36 1 -5 4 -18 5 -27
4 -11 -2 -18 3 -18 12 0 9 5 16 11 16 5 0 7 5 4 10 -3 6 -2 10 4 10 5 0 13 -5
17 -11 5 -8 10 -6 16 5 10 18 17 19 34 8z m4797 -28 c15 -6 25 -24 12 -24 -13
0 -55 25 -55 32 0 6 6 7 13 4 6 -3 20 -9 30 -12z m-613 -44 c0 -5 -2 -10 -4
-10 -3 0 -8 5 -11 10 -3 6 -1 10 4 10 6 0 11 -4 11 -10z m1030 -172 c0 -9 4
-8 10 2 8 13 10 13 10 -2 0 -9 -5 -20 -10 -23 -17 -11 -40 3 -34 20 7 18 24
20 24 3z m-5783 -134 c-3 -3 -12 -4 -19 -1 -8 3 -5 6 6 6 11 1 17 -2 13 -5z
m-614 -281 c-7 -19 -19 -16 -43 9 -14 15 -17 24 -8 29 15 10 57 -22 51 -38z
m-77 10 c-8 -8 -36 5 -36 17 0 7 6 7 21 0 11 -7 18 -14 15 -17z m1114 -5 c0
-5 -9 -8 -20 -8 -18 0 -19 3 -9 21 9 17 13 19 20 8 5 -8 9 -17 9 -21z m5050 0
c0 -6 -6 -5 -15 2 -8 7 -15 14 -15 16 0 2 7 1 15 -2 8 -4 15 -11 15 -16z m71
-54 c12 -14 11 -16 -5 -13 -11 2 -21 10 -24 17 -5 17 13 15 29 -4z m-3175
-162 c-12 -11 -18 7 -10 30 l8 23 4 -23 c2 -13 1 -26 -2 -30z m2534 -36 c0 -3
-4 -8 -10 -11 -5 -3 -10 -1 -10 4 0 6 5 11 10 11 6 0 10 -2 10 -4z m-2480
-126 c0 -5 -5 -10 -11 -10 -5 0 -7 5 -4 10 3 6 8 10 11 10 2 0 4 -4 4 -10z
m1986 -97 c7 -27 93 -65 153 -68 35 -2 44 1 48 16 3 11 13 19 23 19 9 0 25 9
35 20 10 11 26 20 37 20 10 0 18 7 18 15 0 23 28 18 35 -6 5 -15 13 -20 30
-17 16 3 22 1 18 -8 -2 -7 5 -17 16 -24 22 -11 29 -40 11 -40 -6 0 -8 -10 -4
-24 4 -19 1 -26 -15 -31 -22 -7 -30 -50 -10 -57 25 -8 -39 -109 -87 -137 -11
-6 -13 -11 -6 -11 7 0 10 -4 7 -10 -3 -6 1 -7 9 -4 9 3 16 2 16 -4 0 -5 20
-10 45 -10 33 -1 48 4 58 18 11 16 16 17 29 7 9 -6 19 -23 23 -36 7 -22 5 -23
-29 -19 -32 4 -36 2 -36 -19 0 -15 -6 -23 -17 -23 -14 0 -14 -2 -2 -17 25 -30
42 -71 36 -86 -5 -14 11 -27 32 -27 4 0 13 16 21 35 13 34 33 45 45 25 3 -5
15 -10 26 -10 10 0 20 -7 21 -15 0 -8 1 -21 2 -27 1 -7 -8 -13 -19 -14 -11 0
-33 -6 -50 -13 -22 -9 -36 -9 -53 -1 -14 6 -30 7 -39 1 -18 -9 -55 -3 -48 9 4
6 -5 12 -74 44 -13 6 -27 20 -31 31 -15 39 -35 47 -99 41 -32 -3 -67 -9 -76
-12 -11 -4 -22 -1 -29 7 -17 21 -66 19 -66 -3 0 -10 -4 -18 -10 -18 -5 0 -10
-9 -10 -19 0 -11 -4 -23 -10 -26 -5 -3 -8 -19 -6 -36 2 -16 0 -32 -5 -35 -4
-2 -6 -12 -3 -22 3 -9 -8 -3 -25 16 -17 18 -31 41 -31 52 0 21 15 27 25 10 4
-6 11 -8 16 -5 13 9 11 42 -3 51 -7 4 -8 3 -4 -4 4 -7 1 -12 -8 -12 -8 0 -18
5 -21 11 -4 6 -13 8 -21 5 -8 -3 -22 2 -32 12 -10 9 -33 31 -52 47 -31 27 -35
36 -36 83 -2 50 0 54 26 64 30 10 43 37 29 59 -13 20 -11 39 4 39 9 0 12 11 9
34 -3 29 -1 34 22 40 14 3 26 13 26 21 0 8 8 15 18 15 15 0 19 8 18 43 -1 36
2 42 18 39 16 -3 18 -1 9 10 -5 7 -13 26 -17 41 l-7 28 36 -28 c20 -15 38 -38
41 -50z m484 21 c0 -8 -4 -12 -10 -9 -5 3 -10 10 -10 16 0 5 5 9 10 9 6 0 10
-7 10 -16z m-4234 -368 c10 -8 16 -17 12 -21 -3 -4 -16 3 -27 14 -24 24 -15
28 15 7z m-186 -106 c0 -5 -2 -10 -4 -10 -3 0 -8 5 -11 10 -3 6 -1 10 4 10 6
0 11 -4 11 -10z m3814 -215 c-4 -8 -12 -15 -20 -15 -8 0 -11 6 -8 15 4 8 12
15 20 15 8 0 11 -6 8 -15z m-3569 -65 c3 -5 1 -10 -4 -10 -6 0 -11 5 -11 10 0
6 2 10 4 10 3 0 8 -4 11 -10z m-465 -40 c0 -5 -2 -10 -4 -10 -3 0 -8 5 -11 10
-3 6 -1 10 4 10 6 0 11 -4 11 -10z m148 -77 c2 -8 -6 -13 -22 -13 -25 0 -33
10 -19 24 10 10 36 3 41 -11z m-51 -610 c-8 -7 -37 9 -31 19 3 5 12 4 20 -3 8
-6 13 -14 11 -16z"/>
<path d="M7165 11260 c-3 -5 1 -10 9 -10 8 0 18 5 21 10 3 6 -1 10 -9 10 -8 0
-18 -4 -21 -10z"/>
<path d="M9666 12435 c4 -8 12 -15 20 -15 8 0 11 6 8 15 -4 8 -12 15 -20 15
-8 0 -11 -6 -8 -15z"/>
<path d="M6206 11983 c-13 -27 -20 -34 -25 -23 -3 8 -15 16 -26 18 -11 1 -37
5 -57 9 -34 5 -38 3 -38 -16 0 -15 -6 -21 -23 -21 -37 0 -37 -8 -5 -56 16 -24
27 -48 24 -53 -3 -5 1 -11 9 -15 19 -7 21 -68 3 -65 -7 1 -20 -1 -28 -4 -8 -3
-24 -7 -35 -9 -26 -4 -31 -35 -7 -42 11 -4 19 -12 19 -19 -1 -49 4 -59 48 -78
52 -23 65 -43 65 -98 0 -30 -5 -43 -20 -51 -12 -6 -20 -21 -20 -36 0 -14 -5
-34 -11 -45 -8 -16 -7 -25 5 -38 21 -23 11 -51 -18 -51 -12 0 -32 -7 -44 -16
-22 -15 -47 -11 -37 6 6 10 -33 25 -42 16 -10 -10 7 -38 26 -43 11 -3 22 -11
25 -19 6 -16 46 -19 46 -4 0 6 13 4 29 -5 18 -9 32 -11 36 -5 4 6 13 5 26 -3
17 -10 23 -9 40 12 10 13 19 32 19 42 0 12 7 19 20 19 13 0 20 -7 20 -19 0
-10 11 -26 24 -34 22 -15 26 -14 60 10 20 15 36 30 36 35 0 5 8 7 19 3 10 -3
24 1 31 10 11 13 10 19 -4 34 -10 11 -30 25 -46 31 -16 7 -27 17 -24 24 3 7
-7 21 -21 30 -19 12 -24 22 -20 39 4 15 -4 38 -25 69 -21 32 -29 54 -25 67 3
11 1 29 -5 41 -11 21 3 29 16 9 3 -6 15 -8 26 -6 11 3 29 -4 46 -20 l27 -25 6
33 c3 19 2 42 -3 51 -9 20 -11 72 -2 81 4 3 22 0 40 -8 33 -14 34 -14 34 12 0
23 3 25 29 20 35 -7 43 7 25 41 -7 14 -10 31 -7 40 4 10 2 13 -5 8 -8 -5 -12
1 -12 18 0 26 -7 30 -44 26 -21 -2 -66 37 -66 58 0 10 -8 13 -26 9 -19 -3 -29
2 -41 19 -22 35 -47 30 -67 -13z"/>
<path d="M5795 11420 c-4 -6 7 -9 28 -8 19 2 33 6 30 11 -6 11 -51 9 -58 -3z"/>
<path d="M5896 11366 c3 -8 1 -17 -5 -21 -20 -11 -12 -33 14 -37 14 -3 25 -4
25 -3 0 8 -31 75 -35 75 -2 0 -2 -6 1 -14z"/>
<path d="M13676 11178 c3 -12 0 -18 -9 -18 -23 0 -42 -29 -29 -42 9 -9 12 -9
12 2 0 10 3 11 11 3 15 -15 59 4 53 22 -3 7 -1 16 5 20 19 11 12 23 -19 27
-26 4 -29 2 -24 -14z"/>
<path d="M13490 11171 c0 -11 -4 -23 -10 -26 -26 -16 4 -64 41 -65 20 0 49
-42 49 -70 0 -11 3 -20 8 -21 4 0 15 -2 25 -4 26 -5 21 22 -9 50 -26 24 -25
45 1 45 7 0 16 7 19 17 9 21 -32 65 -54 58 -9 -3 -25 4 -35 15 -23 25 -35 25
-35 1z"/>
<path d="M13488 11039 c-16 -11 -28 -16 -28 -9 0 7 -6 8 -19 0 -13 -7 -17 -16
-14 -31 5 -19 3 -21 -28 -14 -19 4 -40 12 -46 17 -9 7 -13 7 -13 -1 0 -6 -9
-11 -20 -11 -13 0 -20 -7 -20 -19 0 -11 -7 -21 -16 -23 -14 -3 -13 -7 6 -30
26 -34 56 -36 112 -7 23 12 52 19 65 16 22 -4 24 -2 20 20 -4 20 -1 24 14 20
13 -4 19 0 20 11 0 10 1 32 2 50 2 37 1 38 -35 11z"/>
<path d="M13114 11008 c3 -13 6 -28 6 -34 0 -7 20 -21 45 -33 54 -25 55 -25
55 -5 0 8 5 12 10 9 16 -10 11 22 -6 40 -9 9 -23 14 -30 11 -8 -3 -31 4 -50
15 l-37 20 7 -23z"/>
<path d="M13317 10860 c3 -11 9 -20 13 -20 5 0 6 9 3 20 -3 11 -9 20 -13 20
-5 0 -6 -9 -3 -20z"/>
<path d="M13126 10780 c-17 -22 -33 -40 -38 -40 -4 0 -5 -6 -2 -14 3 -8 -3
-16 -16 -19 -20 -5 -20 -7 -6 -29 8 -13 17 -39 18 -58 3 -32 0 -35 -25 -38
-23 -3 -26 -6 -17 -18 7 -7 10 -21 6 -29 -3 -10 5 -20 25 -31 17 -8 28 -11 25
-5 -9 14 7 14 20 1 6 -6 20 -4 38 5 34 18 58 5 52 -29 -3 -11 -5 -25 -5 -29
-1 -5 -7 -5 -13 -1 -7 4 -5 -2 5 -12 14 -15 19 -16 26 -5 6 9 11 10 15 2 13
-20 31 -12 45 20 13 29 12 32 -19 58 -24 20 -33 36 -36 66 -2 21 -7 41 -12 44
-5 3 -12 17 -16 31 -15 53 -29 80 -41 80 -7 0 -15 11 -17 24 -4 20 0 26 16 28
12 2 21 9 21 17 0 28 -20 20 -49 -19z"/>
<path d="M6277 10651 c3 -10 16 -21 29 -24 29 -5 30 -3 4 23 -25 25 -40 26
-33 1z"/>
<path d="M6357 10645 c-9 -7 -17 -15 -17 -19 0 -10 24 -6 43 8 24 18 -2 29
-26 11z"/>
<path d="M13071 10477 c2 -1 13 -9 24 -17 19 -14 19 -14 6 3 -7 9 -18 17 -24
17 -6 0 -8 -1 -6 -3z"/>
<path d="M13137 10440 c-3 -12 -10 -19 -16 -15 -12 7 -15 -14 -5 -39 11 -28
74 -17 74 13 0 10 -11 28 -24 40 l-23 22 -6 -21z"/>
<path d="M13508 10359 c6 -7 12 -28 12 -45 0 -37 22 -64 51 -64 14 0 19 7 19
25 0 21 5 25 28 25 15 0 22 4 16 8 -6 4 -15 16 -21 26 -6 11 -21 21 -34 22
-13 1 -37 6 -54 10 -25 5 -28 4 -17 -7z"/>
<path d="M13141 10351 c-11 -7 -10 -13 5 -33 23 -30 58 -48 75 -37 11 6 10 12
-4 27 -9 10 -17 23 -17 29 0 20 -36 28 -59 14z"/>
<path d="M13470 10340 c9 -6 9 -9 -1 -12 -9 -3 -8 -6 5 -11 9 -4 15 -3 11 2
-3 6 2 14 11 19 14 8 12 10 -11 10 -16 0 -22 -4 -15 -8z"/>
<path d="M13560 10221 c0 -5 -9 -11 -20 -14 -12 -3 -20 -14 -20 -25 0 -12 -8
-27 -18 -34 -9 -7 -23 -25 -29 -40 -7 -15 -22 -28 -34 -30 -15 -2 -26 -14 -33
-35 -6 -18 -19 -38 -29 -46 -17 -12 -17 -14 -3 -26 33 -28 14 -87 -27 -79 -19
4 -28 -2 -42 -28 -10 -18 -26 -34 -36 -36 -25 -4 -11 -25 24 -33 21 -6 27 -4
27 10 0 12 5 15 16 11 9 -3 18 -6 20 -6 3 0 2 -4 -1 -10 -3 -6 1 -7 9 -4 9 3
16 10 16 15 0 14 28 11 33 -3 3 -7 6 0 6 15 1 25 3 27 22 16 17 -9 25 -7 45
12 23 21 25 22 43 5 27 -25 108 -27 142 -4 25 17 27 17 42 0 8 -9 17 -30 19
-47 2 -19 11 -34 26 -41 26 -13 52 -56 52 -84 0 -13 6 -17 20 -13 11 3 33 1
49 -5 23 -8 31 -7 35 4 8 20 45 17 84 -6 41 -25 54 -25 25 -1 -12 10 -20 21
-17 23 6 6 -74 72 -98 81 -11 4 -18 1 -19 -6 -1 -7 -4 -1 -8 13 l-8 25 -14
-33 -14 -33 -42 28 c-24 15 -43 35 -43 45 0 9 -7 23 -15 32 -20 20 -19 39 5
56 22 16 26 50 8 68 -7 7 -11 29 -10 51 2 32 -2 41 -24 56 -17 11 -29 13 -33
7 -7 -12 -16 -11 -78 7 -45 12 -58 31 -22 31 19 0 21 4 15 38 -3 20 -6 42 -6
47 0 6 -9 16 -20 23 -11 7 -20 8 -20 3z"/>
<path d="M14106 9612 c11 -10 24 -30 28 -46 4 -16 14 -35 22 -44 9 -9 13 -24
10 -38 -4 -15 0 -27 12 -36 27 -19 40 -43 19 -35 -11 4 -14 2 -10 -9 3 -7 11
-14 18 -14 7 0 21 -3 31 -7 14 -5 16 -3 11 10 -4 9 -10 24 -13 32 -4 11 0 15
16 15 16 0 20 4 16 16 -3 9 -6 18 -6 20 0 2 -8 4 -17 4 -11 0 -24 15 -35 40
-13 32 -22 40 -42 40 -19 0 -26 5 -26 19 0 22 -25 51 -43 51 -7 -1 -3 -9 9
-18z"/>
<path d="M9160 9521 c-5 -11 -10 -29 -10 -40 0 -10 -6 -22 -12 -24 -8 -3 -5
-6 5 -6 32 -2 62 31 59 62 -4 31 -27 36 -42 8z"/>
<path d="M14280 9463 c0 -5 7 -19 16 -31 12 -18 24 -22 55 -20 43 2 56 28 14
28 -14 0 -25 5 -25 11 0 6 -7 8 -16 5 -9 -4 -23 -1 -30 5 -8 6 -14 7 -14 2z"/>
<path d="M9480 9431 c0 -6 5 -13 10 -16 6 -3 10 1 10 9 0 9 -4 16 -10 16 -5 0
-10 -4 -10 -9z"/>
<path d="M14390 9372 c0 -11 -9 -26 -20 -33 -15 -11 -20 -26 -21 -69 -1 -30 1
-65 5 -77 5 -16 2 -25 -14 -33 -16 -8 -19 -15 -11 -24 6 -7 8 -15 5 -19 -3 -3
6 -13 20 -22 14 -10 26 -27 26 -38 0 -11 4 -34 10 -51 5 -17 12 -43 15 -58 4
-20 13 -30 33 -34 40 -10 53 -23 46 -49 -3 -13 -1 -26 5 -30 18 -10 48 4 54
25 3 12 14 20 26 20 21 0 26 13 23 53 -2 18 -1 18 25 0 22 -15 38 -18 73 -12
31 4 51 2 64 -7 14 -10 23 -10 33 -3 17 15 43 4 43 -17 0 -10 6 -14 14 -11 7
3 23 -1 34 -8 20 -15 32 -11 32 11 0 7 -8 10 -20 7 -14 -4 -19 -1 -17 8 2 8 2
11 0 7 -2 -4 -11 -4 -19 -1 -10 4 -12 9 -4 18 12 15 -1 28 -44 45 -19 7 -26
15 -22 26 6 17 -19 74 -33 74 -5 0 -12 14 -16 31 -4 18 -16 34 -28 39 -37 14
-70 68 -63 102 4 23 0 37 -17 58 l-23 27 -29 -20 -28 -21 -18 23 c-13 16 -26
22 -40 18 -29 -8 -81 12 -75 28 3 8 -2 19 -10 25 -11 10 -14 9 -14 -8z"/>
<path d="M12297 9265 c-10 -7 -17 -25 -17 -44 0 -17 -6 -34 -12 -36 -61 -21
-67 -25 -62 -40 3 -8 10 -15 14 -15 5 0 22 -14 38 -30 26 -26 29 -32 16 -44
-16 -16 -19 -46 -5 -46 5 0 16 -3 25 -6 12 -4 16 0 16 15 0 17 8 22 40 27 22
4 45 13 51 20 6 8 24 14 40 14 37 0 80 20 103 48 14 18 21 20 32 11 11 -9 14
-6 14 20 0 35 -3 37 -105 66 -33 10 -77 24 -97 31 -27 10 -39 10 -44 2 -5 -8
-10 -6 -18 4 -10 13 -15 14 -29 3z"/>
<path d="M8866 9199 c-12 -18 -21 -20 -63 -15 -83 10 -97 8 -117 -20 -28 -38
-65 -74 -76 -74 -5 0 -30 6 -56 12 -41 11 -47 11 -59 -5 -11 -15 -17 -17 -35
-7 -24 13 -23 13 -38 -16 -10 -19 -17 -21 -46 -14 -21 5 -38 4 -45 -3 -7 -7
-16 -6 -29 6 -21 19 -42 22 -42 6 0 -6 -7 -9 -15 -5 -23 8 -31 -40 -12 -79 16
-34 8 -55 -20 -55 -7 0 -13 -6 -13 -13 0 -20 21 -36 37 -30 12 5 14 -2 11 -28
-2 -29 0 -34 20 -37 26 -4 29 -30 5 -47 -22 -16 -7 -37 39 -56 29 -12 32 -11
61 21 18 20 32 29 35 22 2 -8 18 -9 49 -5 31 4 44 3 40 -4 -15 -23 19 -34 57
-18 33 14 86 12 72 -2 -3 -4 2 -12 12 -19 16 -13 16 -13 0 -14 -22 0 -22 -7
-2 -56 13 -31 18 -35 25 -22 5 9 17 14 28 11 15 -4 18 -13 15 -50 -1 -25 -10
-53 -19 -63 -19 -21 -53 -32 -61 -19 -3 5 -1 9 5 9 6 0 8 7 5 15 -4 9 0 15 10
15 9 0 16 4 16 9 0 19 -19 21 -52 4 -18 -10 -34 -19 -36 -20 -2 -1 2 -11 8
-24 11 -20 10 -21 -9 -16 -16 4 -24 -2 -35 -24 -13 -26 -13 -30 1 -38 14 -8
14 -12 -4 -37 -22 -33 -28 -81 -12 -100 7 -9 5 -14 -11 -19 -12 -4 -17 -11
-13 -18 4 -7 8 -25 8 -42 1 -16 3 -37 6 -45 3 -11 -6 -16 -32 -18 -32 -3 -37
-7 -47 -39 -6 -20 -8 -41 -4 -47 4 -6 7 -28 8 -48 0 -33 -3 -38 -22 -38 -30 0
-47 -22 -31 -39 10 -11 8 -12 -8 -4 -12 6 -33 7 -53 1 -28 -7 -32 -13 -30 -37
1 -16 -6 -41 -16 -56 -21 -32 -16 -41 16 -24 47 25 54 26 81 17 15 -6 38 -7
52 -4 21 5 23 10 16 29 -7 17 -4 29 10 46 10 13 19 18 19 13 0 -6 11 0 25 13
13 14 33 25 44 25 11 0 29 10 40 21 13 14 27 20 40 16 11 -3 25 1 32 9 14 17
45 18 54 3 4 -6 13 -8 21 -5 15 6 19 2 28 -36 6 -25 3 -28 -29 -34 -41 -7 -45
-31 -8 -49 35 -18 54 -37 49 -51 -2 -6 2 -20 9 -31 8 -10 15 -26 15 -35 0 -9
10 -18 23 -20 14 -2 21 -9 21 -21 -1 -9 2 -17 7 -17 5 0 9 10 9 21 0 16 5 20
20 16 17 -4 18 -2 10 14 -6 10 -9 24 -8 31 2 7 -6 17 -18 22 -18 8 -21 18 -20
68 1 47 4 58 17 58 32 0 59 33 64 80 3 24 13 52 21 61 12 14 13 22 4 38 -9 18
-8 21 8 21 10 0 26 8 35 18 14 16 17 38 14 135 -3 91 -1 117 9 117 21 0 34 35
28 76 -9 59 -4 108 12 124 5 5 22 11 37 12 15 1 27 7 27 12 0 5 6 2 13 -9 19
-25 35 -12 29 25 -4 27 -1 30 21 30 14 0 33 7 42 16 15 15 14 27 -3 73 -4 10
-1 13 11 8 9 -3 19 -2 22 3 4 6 14 6 27 -1 19 -10 25 -8 45 17 13 16 27 34 32
39 5 6 -4 26 -23 50 -37 49 -48 57 -57 43 -4 -6 -18 -8 -32 -5 -22 6 -24 4
-19 -18 4 -22 1 -25 -25 -25 -32 0 -82 29 -52 30 34 0 29 49 -14 139 -7 13
-11 32 -9 41 1 9 -8 22 -23 30 -14 7 -25 19 -25 27 0 8 -13 13 -35 13 -19 0
-35 5 -35 11 0 6 -7 8 -16 5 -9 -4 -28 4 -46 19 -36 31 -52 31 -72 4z m-521
-1299 c3 -5 1 -10 -4 -10 -6 0 -11 5 -11 10 0 6 2 10 4 10 3 0 8 -4 11 -10z"/>
<path d="M12177 9036 c-6 -16 2 -28 14 -20 12 7 11 34 0 34 -5 0 -11 -6 -14
-14z"/>
<path d="M14946 8891 c-12 -13 -14 -21 -6 -26 6 -4 12 -5 13 -4 2 2 8 11 15
21 18 23 -2 31 -22 9z"/>
<path d="M14520 8794 c0 -9 5 -14 12 -12 18 6 21 28 4 28 -9 0 -16 -7 -16 -16z"/>
<path d="M8640 8586 c0 -2 11 -11 25 -20 25 -17 25 -16 13 4 -11 17 -38 29
-38 16z"/>
<path d="M7676 8307 c-19 -14 -19 -15 4 -53 26 -43 40 -55 52 -48 14 9 21 -25
8 -40 -9 -11 -8 -21 3 -43 8 -15 17 -45 21 -65 6 -31 11 -38 29 -38 13 0 29
-9 36 -19 12 -16 18 -17 33 -8 16 10 21 9 29 -5 6 -10 14 -18 20 -18 5 0 9 8
7 18 -2 13 4 17 25 18 16 1 33 7 37 15 7 11 10 10 16 -4 4 -10 17 -17 33 -17
15 0 32 -5 39 -12 9 -9 16 -8 30 5 10 9 26 17 34 17 9 0 19 6 21 13 4 10 6 10
6 0 1 -7 6 -13 11 -13 16 0 12 37 -5 44 -8 3 -15 13 -15 23 -1 25 -22 51 -38
45 -8 -2 -26 10 -40 27 -21 25 -38 33 -77 38 -27 3 -56 10 -62 16 -20 15 -16
74 5 86 13 7 14 13 5 22 -6 6 -17 8 -25 3 -13 -9 -125 -8 -188 2 -22 3 -42 0
-54 -9z m328 -206 c3 -5 -1 -12 -10 -15 -20 -8 -29 -1 -19 13 8 13 22 14 29 2z"/>
<path d="M7570 8102 c0 -20 -15 -28 -42 -23 -5 0 -8 -5 -8 -12 0 -8 -10 -19
-22 -25 -13 -6 -17 -11 -10 -11 6 -1 12 -10 12 -20 0 -29 11 -51 24 -51 7 0
22 -10 35 -21 17 -16 26 -18 34 -10 6 6 28 11 49 11 21 0 38 5 38 10 0 6 11
22 24 35 20 20 22 26 10 36 -8 6 -14 17 -14 24 0 6 -9 20 -20 30 -11 10 -20
14 -20 10 0 -4 -9 0 -19 9 -15 13 -20 14 -24 4 -3 -10 -9 -8 -26 6 -21 19 -21
19 -21 -2z"/>
<path d="M7773 7999 c-9 -9 -7 -20 5 -45 16 -34 37 -41 37 -13 0 8 4 20 9 27
9 14 -10 42 -28 42 -7 0 -17 -5 -23 -11z"/>
<path d="M7540 7916 c0 -2 7 -7 16 -10 8 -3 12 -2 9 4 -6 10 -25 14 -25 6z"/>
<path d="M8900 7700 c0 -5 7 -7 15 -4 8 4 15 8 15 10 0 2 -7 4 -15 4 -8 0 -15
-4 -15 -10z"/>
<path d="M9983 7582 c-13 -2 -23 -10 -23 -18 0 -11 7 -13 28 -8 33 8 32 8 24
19 -4 6 -17 9 -29 7z"/>
<path d="M9930 7506 c0 -2 7 -7 16 -10 8 -3 12 -2 9 4 -6 10 -25 14 -25 6z"/>
<path d="M9974 7477 c-5 -7 -13 -20 -17 -30 -3 -9 -17 -22 -29 -27 -13 -5 -32
-16 -42 -24 -16 -13 -18 -20 -8 -41 7 -15 8 -25 2 -25 -6 0 -10 -5 -10 -11 0
-6 7 -9 15 -6 8 4 17 1 21 -5 8 -13 -34 -51 -47 -42 -5 3 -18 3 -29 -1 -18 -6
-16 -11 21 -81 21 -41 39 -83 39 -92 0 -10 5 -23 12 -30 9 -9 8 -12 -5 -12
-20 0 -22 -11 -5 -28 8 -8 8 -15 -2 -27 -10 -13 -9 -15 8 -15 12 0 24 5 27 10
9 14 21 12 38 -5 13 -12 17 -12 31 4 16 18 15 20 -14 41 -26 19 -31 28 -28 57
1 20 -3 37 -11 42 -11 7 -10 11 4 19 18 10 30 62 17 72 -4 3 -15 18 -25 33
-25 39 -14 64 34 78 33 11 39 16 39 41 0 21 5 28 20 28 11 0 20 7 20 15 0 9 9
15 23 16 17 0 12 5 -19 19 -23 10 -45 23 -48 29 -9 14 -18 13 -32 -2z"/>
<path d="M10075 7480 c3 -5 13 -10 21 -10 8 0 14 5 14 10 0 6 -9 10 -21 10
-11 0 -17 -4 -14 -10z"/>
<path d="M9745 7453 c-2 -7 -14 -13 -25 -13 -12 0 -30 -5 -42 -11 -20 -11 -19
-11 8 -40 26 -27 30 -28 40 -14 10 13 17 14 33 6 28 -16 33 -14 21 8 -5 11
-18 22 -27 24 -10 2 -4 3 12 2 27 -3 30 0 30 25 0 22 -4 27 -22 26 -13 0 -25
-7 -28 -13z"/>
<path d="M10117 7463 c-4 -3 -7 -13 -7 -20 0 -12 3 -12 15 1 8 8 15 17 15 20
0 8 -15 7 -23 -1z"/>
<path d="M9835 7358 c-9 -23 -3 -39 11 -30 7 4 8 15 4 27 -7 18 -9 18 -15 3z"/>
<path d="M9831 6949 c-7 -21 -7 -37 0 -50 5 -10 7 -19 3 -19 -4 0 1 -9 11 -20
21 -23 45 -26 45 -5 0 8 -9 29 -20 47 -23 38 -26 64 -7 71 7 4 6 6 -5 6 -9 1
-20 -12 -27 -30z"/>
</g>
</svg>
