<svg version="1" xmlns="http://www.w3.org/2000/svg" width="958.559" height="1590.45" viewBox="0 0 718.919 1192.838"><g fill="#222"><path d="M372.79.596c.3 1.5 2.6 2.3 2.6.8 0-.6-.4-.9-.9-.6-.5.4-1.2.1-1.4-.4-.3-.6-.4-.5-.3.2zM368.39 6.396c0 1.5 2.1 2.3 3.2 1.2.6-.6.2-1.1-1.1-1.5-1.2-.3-2.1-.1-2.1.3zM374.69 6.096c-.7.2-1.3 1.4-1.3 2.5 0 1.8.4 2 4.5 1.4 3.7-.6 4.5-.4 4.5.8 0 .9.7 1.6 1.6 1.6 1.5 0 1.5.2 0 2.5-.9 1.3-1.6 3.5-1.6 4.9 0 1.9-.7 2.6-3 3.1-2.5.6-2.8.9-2 2.5 1.4 2.6 1.2 7-.3 7-1.9 0-4.9 4-4.3 5.6.3.9-.4 1.6-1.9 2-1.4.3-2.5 1-2.5 1.5s-.5.9-1.1.9c-.6 0-.9-.6-.6-1.4.3-.8.3-1.7 0-2-1.1-1.1-3.3 1.6-3.3 4 0 2.1.4 2.3 2.3 1.8 2-.4 2.6 0 3.7 2.5 1.2 2.9 1 3.3-2.1 7-2.3 2.6-4.1 3.8-5.5 3.6-1.1-.2-2.7.1-3.5.6-1.2.7-1.1 1.3.3 3.8 1.3 2.4 1.3 2.9.2 2.4-.8-.3-1.4.1-1.4 1 0 2.2 2.1 6.7 3.1 6.7 1.3 0 2.7 6.3 1.8 8-.4.8-1 2.3-1.3 3.3-.3 1-1 1.5-1.6 1.2-1.3-.8-1.3 0 .5 6.9 1.1 4.3 1.2 6.2.4 7.2-1.6 2-.2 5.1 2.9 6.2 5.7 2.1 6 2.2 5.5.1-.4-1.4 0-1.9 1.3-1.9s2.6-1.6 4.1-5c1.2-2.8 2.9-5 3.6-5 .8 0 2-.6 2.6-1.4.8-1 2.1-1.2 4.5-.6 2.9.6 3.5.5 3.9-1.2.4-1.4-.3-2.3-2.8-3.5-3.2-1.5-5.5-4.3-3.6-4.3 1.6 0 1.8-6 .3-8.1-1.1-1.7-1.2-2-.1-1.8 3.2.4 3.9-.2 3.9-3.5 0-2.9.4-3.4 3-4 2.5-.5 3-1 3-3.6 0-2 .5-3 1.5-3 .8 0 1.5-.6 1.5-1.4 0-2.7 4.2-8.6 6.5-9.2 1.3-.3 2.6-1.3 2.9-2.1.4-1.1 1.4-1.3 3.6-.8 3.5.8 3.9-.6 1.1-3.4-1.3-1.3-1.7-2.7-1.3-4.6.5-2.6.3-2.7-2.6-2.3-2 .3-3.3 0-3.6-.8-.3-.7-2.3-1.8-4.6-2.5-4.2-1.3-6.6-4-5.6-6.4.3-.8-.4-2.5-1.5-4-1.7-2.1-1.9-3.1-1.1-5.4.9-2.5.7-3.2-1.4-5.2-1.3-1.2-2.4-1.9-2.4-1.5 0 .5-.6.3-1.4-.3-.7-.6-2-.9-2.8-.6-.8.3-2.1-.1-2.8-1-1.3-1.6-1.7-1.7-3.7-.8z"/><path d="M335.39 15.496c0 .8 1.6 4.1 3.6 7.4 2.8 4.8 5.1 7 11 10.8 4.1 2.7 8 4.7 8.6 4.4.7-.2 2.1 0 3 .4 2.7 1.4 3-.6.6-4.8-4.4-7.8-9.4-11.2-12.3-8.4-1.9 1.7-7.5 0-9.5-2.9-1.3-1.8-1.6-3.1-1-3.5.5-.3 1-1.1 1-1.6 0-.6-.5-.7-1.2-.3-.6.4-1.7-.1-2.5-1.1-1-1.4-1.3-1.5-1.3-.4zM370.39 33.296c0 .7-.4.9-1 .6-.5-.3-1-.1-1 .4 0 .6.4 1.1.9 1.1 1.3 0 2.5-2 1.7-2.7-.3-.4-.6-.1-.6.6zM412.89 45.296c-.7 1.2 1.2 2.4 2.5 1.6 1.1-.7.4-2.5-1-2.5-.5 0-1.1.4-1.5.9zM428.99 45.296c-.3.5.1 1.1.9 1.5.8.3 1.5.1 1.5-.4 0-1.3-1.8-2.2-2.4-1.1zM420.69 46.796c-1.3.6-2.5 1.7-2.8 2.4-.2.7 0 1 .5.7.6-.3 1 .1 1 .9 0 2.4 3.8 3 6.7 1l2.7-1.7-2.2-1.7c-1.2-1-1.9-2-1.7-2.2.9-.8-1.9-.4-4.2.6zM364.39 47.496c0 .5.5.7 1 .4.6-.3 1-.8 1-1.1 0-.2-.4-.4-1-.4-.5 0-1 .5-1 1.1zM341.19 108.196l-4.7 2.5 4.3 2.7c4 2.6 11.6 11.2 11.6 13.1 0 .5.8.9 1.8.9s2.7.7 3.8 1.5c3 2.2 3.7 1.8 3-2-.4-1.9-.2-4.3.3-5.3.7-1.3.6-2.5-.3-3.8-1.3-1.9-2.6-7.2-2.7-10.7 0-2.2-5.7-2.4-6.5-.2-.7 1.8-2.2 1.9-4.3.2-1.4-1.1-2.3-.9-6.3 1.1zM369.09 141.796c-.3.8-.3 2.3-.1 3.4.4 1.4 0 2.1-1.5 2.5-1.8.4-1.9.8-1 3.6.6 1.7 1.8 3.1 2.6 3.1s2.9 1.2 4.8 2.7c2.9 2.3 3.2 2.9 2.3 5.2-.5 1.4-1.1 3.9-1.2 5.5-.1 1.7-.8 3.2-1.4 3.4-.7.2-1.2 1.1-1.2 2 0 1.3-.2 1.4-.9.4-1.9-3-15.9-4.3-18.5-1.7-1.6 1.7-4.7 2-6.1.6-.6-.4-2.5-1.3-4.2-1.9-2.7-.9-3.3-.8-3.3.4 0 2.7-1.9 1.3-6.6-4.9-2.6-3.4-4.8-6.3-4.8-6.3-.1-.1-1-.4-2.2-.8-1.6-.5-2.3 0-3.4 2.9-1 2.6-2 3.5-3.7 3.5-1.4 0-2.3.6-2.3 1.6 0 1.8-3.8 5.3-5.8 5.4-.9 0-1.1.7-.7 1.9.6 2-2 5.5-3.6 4.6-1.2-.8-6.5 2.1-7.3 4-.4 1.1-1.3 1.4-3.1.9-1.9-.5-2.5-.2-2.5 1.1 0 1.2-.5 1.5-1.9 1-1.6-.5-2 0-2.3 2.2-.2 2.3-.9 2.9-3.3 3.1-1.6.2-3.4 1-3.8 1.8-.7 1.2-1.2 1.1-3.4-.6-3-2.3-4.3-2.5-4.3-.6 0 2.1-2.8 2.7-3.9.8-.6-.9-1.1-1.2-1.1-.5 0 .8-1.2 1-3.5.6-2.7-.4-3.5-.2-3.5 1 0 1.8-5.3 2.8-9.2 1.6-2.5-.7-2.8-.5-2.8 1.6 0 1.3-.9 3-2 3.8-1.3.9-1.8 2-1.4 3.1.3.9.1 1.6-.5 1.6-.7 0-1.1 2.3-1.1 5.9 0 5.8-.1 6-2.7 6.3-4.6.5-4.3 2.3 2.2 14.8 2.1 4.1 2.1 4.5.6 5.6-1.2.9-1.8.9-2.4.1-.6-.9-1-.9-1.3 0-.7 1.6-4.8-.1-8.8-3.6-2.4-2.2-2.8-2.3-2.2-.7.4 1.1 1.1 3.8 1.6 6.1s1.4 5.5 2 7c.7 1.8.7 3.2.1 3.9-.7.8-.4 1.5.8 2.3 1.5.9 1.7 2.4 1.4 10.9-.3 6.4 0 10.6.8 12.1 1.3 2.5-.1 5.3-2.7 5.3-.8 0-1.4.5-1.4 1.1 0 .7-1 2.1-2.2 3.3-1.3 1.2-3.2 3.4-4.4 4.8-1.2 1.3-3.1 3.2-4.4 4.1l-2.2 1.6 2.8 4.2c2.9 4.2 4.1 5.2 7.8 6.3 1.5.5 1.6.9.6 2.2-1 1.1-1 1.8-.2 2.6.7.7 1.2 2 1.2 2.9 0 .9.7 1.9 1.5 2.3.8.3 1.2 1.2.9 2.1-.6 1.4-.8 1.4-2.4 0-.9-.8-2.1-1.5-2.7-1.5-.5 0-1.8-.9-2.9-2.1l-1.8-2-.8 2c-.5 1.4-1.6 2.1-3.2 2.1-1.8 0-2.7.7-3.1 2.2-.5 2.1-1.1 2.3-5.8 2-4.9-.3-5.4-.2-6.5 2.2-1.4 3.1-4.7 3.4-6.2.6-.6-1.1-2.3-2.3-3.8-2.6-1.5-.4-3-1.2-3.3-1.7-.7-1-6.5-3.4-10.6-4.4-4-.9-7.3.6-9 4.2-.9 2-2.6 3.6-4 4-1.4.3-3.5 1.7-4.8 3.1-3 3.2-6.3 2.5-8.9-1.9-1.4-2.3-2-2.8-2.4-1.7-1 2.9-3.6 3.8-9.9 3.5-5.1-.2-6.3 0-6.8 1.4-.3.9-1.7 2.5-3.2 3.5-2.2 1.6-2.9 1.7-4.6.6-2.1-1.2-2.1-1.2-.4 1.3 1.1 1.8 1.3 2.8.6 3.3-.6.3-.9 2.1-.7 4 .4 3.6-.5 4.4-4.7 4.4-1.3 0-3.7 1.1-5.3 2.5-1.7 1.4-3.6 2.5-4.3 2.5-2.5.1 4.1 5 6.7 5 1.3 0 2.4.4 2.4 1 0 .5.7.7 1.5.4.8-.4 1.5-.1 1.5.5 0 1.9.3 2.6 1.6 3.6.7.5 1.4 1.9 1.6 3 .2 1.3 1.2 2 2.8 2.1 1.4 0 3.3.4 4.4.9 1.2.5 2.1.3 2.7-.6.6-1 .9-.2.9 2.3 0 2.1-.5 3.8-1.1 3.8-.7 0-.9 1-.5 2.6.5 1.7.3 2.3-.4 1.9-.7-.4-.9.4-.5 2.4.3 1.7 0 4-.7 5.1-1 1.5-1 2.7-.1 5.1.7 1.7 1 3.6.7 4.3-.3.7 0 2.5.5 4 .9 2.1.8 2.8-.4 3.2-2.2.9-.8 8.2 2.2 11.7 1.3 1.7 2.2 4 2.1 5.5-.1 1.5.4 3.7 1.1 5 .6 1.2 1.1 2.8 1 3.5-.3 2.5.1 3.8 1.1 3.2 2.2-1.3 2.3 2.8.2 4.6-1.2.9-2.2 2.9-2.2 4.3 0 1.3-.4 2.8-1 3.1-1.8 1.1-1.1 4.5 1.4 6.6 2 1.7 2.3 2.7 1.9 7-.3 3.7 0 4.9 1 4.9 1.9 0 2.9 4 1.6 5.7-.6.6-.8 1.7-.4 2.2.3.6 0 .8-.8.5-1.7-.6-5.7 6.4-5.7 10 0 1.3-.6 2.6-1.4 2.9-.7.3-1.6 1.9-1.9 3.5-.4 2.2-1.3 3.1-2.9 3.4-1.6.2-2.2.9-2.1 2.4.2 1.5-.6 2.3-2.9 3-4.2 1.2-5.9 4.1-3.5 5.8 1.9 1.5 2.3 5.6.7 7.2-.7.7-.8 1.9-.1 3.7 1.1 2.8 2.1 3.3 3.7 1.8 2.5-2.5 12-.1 10.9 2.7-.3.7-.1 2.1.5 3.1 1.1 2.1-1.2 6.1-3.5 6.1-.9 0-1.2.6-.9 1.5.4.8.1 2.2-.6 3-.9 1.1-.8 2.1.6 4.5 1 1.7 2.4 2.8 3 2.6.6-.2 1.7.7 2.3 2 .9 2 .8 2.8-.4 4-.8.9-1.9 1.2-2.5.9-.6-.4-1 .5-1 1.9 0 2.2-.4 2.6-3.1 2.6-2.6 0-3 .3-2.4 1.7.3 1 .9 3.1 1.2 4.8.3 1.6 1 3.8 1.4 4.7.5.9.5 1.9.1 2.2-.4.2-.8 1.7-.7 3.3 0 2.3.8 3.2 4.7 5.1 5.6 2.6 9 2.2 10.7-1.4 1.3-2.9 2.1-3 4.8-.5 2.3 2.1 3.9 11.7 2.3 13.6-.5.7-.7 1.5-.3 1.8.3.4-.2 1.5-1.1 2.6-1.1 1.2-1.4 2.1-.7 2.5.7.5.7 1.3-.2 2.7-1 1.7-.9 2.2.5 3.3 1.6 1.2 1.6 1.5.2 3.5-1.3 1.7-1.9 2-3 1-.8-.6-1.4-1.8-1.4-2.5 0-.8-1.4-1.7-3-2.1-2.4-.4-2.8-.8-1.9-1.9 1.4-1.7.3-3.4-2.2-3.4-1 0-1.9-.5-1.9-1 0-.6-.8-.2-1.7.8-2 2-2.7 7.1-1.3 10.6.6 1.8.5 2.6-.5 3-.8.3-1.1 1.3-.8 2.6.7 2.5-3.1 7-5.9 7-3.2 0-2.1 3.5 1.5 4.8 4.6 1.7 4.7 1.6 4.7-2.3 0-1.9.5-3.5 1-3.5.6 0 1-.8 1-1.7 0-1.4.5-1.2 2.8.9 1.5 1.4 3.7 2.9 4.9 3.2 1.1.4 2.9 1.9 3.9 3.4.9 1.5 2.5 3.3 3.5 3.9 1 .8 1.5 2.1 1.2 3.2-.3 1.3.6 2.7 3.2 4.7 3 2.3 4 2.6 5.5 1.6 1.4-.9 1.9-.8 2.4.4.3.8 1 1.3 1.4 1 .9-.5 3.4 2 5.1 5.2.6 1.1 2.5 2.5 4.3 3.1 1.8.7 4.7 1.9 6.5 2.8 1.7.8 3.6 1.2 4.2.9.5-.4 1.3-.1 1.8.7 1.7 2.7 6.1 4.7 8.5 3.8 1.4-.5 3.4-.3 5.5.5 2.2 1 3.4 1 3.8.3.5-.7 1.4-.4 2.7.7 1.4 1.3 1.7 2.5 1.2 4.4-1.2 4.7-1.4 7.9-.3 8.6.7.4.4 1.2-.6 2.4-.9 1-1.2 2.1-.7 2.4 1.3.8.7 9.3-.7 10.9-1.2 1.5.4 3.7 2.7 3.7 1 0 1.3.8.9 2.6-.3 2 0 2.8 1.4 3.1 1 .3 2.1 1.4 2.4 2.4.4 1.3 1.6 1.9 3.6 1.9 2.2 0 2.9.5 2.9 1.9 0 1 .7 3.5 1.5 5.5.9 2 1.3 4.1 1 4.6-.3.5.1 2.3 1 4 .8 1.6 1.3 3 1.1 3-.3 0 .6 1.1 1.9 2.5 1.4 1.3 2.5 2.9 2.5 3.4 0 .7.8.7 2.3.2 2.9-1.1 7.7 1.3 7.7 3.9 0 1 1.6 3.1 3.4 4.5 3.7 2.8 5.7 7.2 5.6 12.1 0 1.6.2 4.4.6 6.1.5 2.6 1.1 3.3 3 3.3 1.4 0 2.4-.6 2.4-1.4 0-.8.9-1.8 2-2.1 1.1-.3 2-1.2 2-1.9 0-.8 1.3-1.9 3-2.6 1.6-.7 2.7-1.7 2.4-2.2-.4-.6-.1-1.4.7-1.8 1-.7 1-1.2-.2-2.6-1.3-1.6-1.2-1.7 1.3-1.1 2.7.7 4.7-.6 2.8-1.8-.6-.4-.8-1-.5-1.5.9-1.5 4.5.2 7.4 3.5 2 2.3 4 3.5 6.2 3.7 2.9.3 3.4.7 3.6 3.2.3 4 1.5 4.9 4.7 3.6 1.5-.5 3.3-.7 3.9-.3.6.3.3-.4-.6-1.8-2.5-3.5-2.1-4.9 1.3-4.9 2 0 3.2.6 3.6 1.7 1.1 3.5 2.2 4.8 4 4.8 1.1 0 2 .8 2.2 2 .2 1.1.9 2.6 1.6 3.4.8 1.1.8 1.5-.1 1.8-.7.2-1 1-.7 1.7.3.8-.3 1.6-1.2 2-1.5.6-1.3 1 1.4 2.6 1.8 1.1 3.2 2.6 3.2 3.4 0 .8.7 2.2 1.6 3.1 1 .9 1.9 3.3 2.1 5.3.2 2 1.1 5.1 2 6.9 1.2 2.7 1.3 3.6.3 4.8-1.1 1.3-.8 2.1 1.8 4.8 1.8 1.8 3.2 3.8 3.2 4.4 0 .7 1.1 2.4 2.5 3.9 2.6 2.8 3.2 6.3 1.6 9.3-.7 1.1-.4 2.8.7 5.1 2.1 4.6 2 4.6 3.4 3.2 2-2 2.8-1.3 1.8 1.4-.6 1.4-1 4.3-1 6.4 0 2.1-.5 4.2-1 4.5-.6.4-.8 1.6-.4 2.7.4 1.4.2 1.8-.5 1.4-.6-.4-1.1 0-1.1.9 0 1.4 1.1 1.6 9 1.1 8.5-.5 9-.4 9 1.4 0 1.3-.7 2-1.9 2-2.6 0-3.5 3.3-2 7.7.9 2.8.9 4.8 0 8.9-1.1 4.8-1 5.7.9 9.4 1.3 2.6 1.9 5.1 1.6 6.6-.3 1.2-.1 3.5.6 4.9 1 2.1.9 2.8-.2 3.5-2 1.2-2.3 15.5-.4 19.1 1.8 3.6 1.8 4.9-.1 4.9-1.3 0-2.1 2.5-1.6 5.3.1.4-.6.7-1.5.5-.9-.2-2 .5-2.5 1.4-.5 1-1.3 2.6-1.8 3.5-.4 1-2.2 1.9-4 2.1-2.8.3-3 .5-2 2.3.8 1.6.5 2.6-1.8 5.4-1.5 1.8-3.4 3.4-4.1 3.4-.8.1-1 .9-.6 2.6.4 1.6.2 2.5-.6 2.5s-1 .8-.7 2.1c.4 1.4-.1 2.7-1.4 3.8-1.8 1.5-1.8 1.9-.4 6.5.8 2.7 1.5 6.4 1.5 8.3 0 2.7-.4 3.3-2.1 3.3-1.6 0-2 .5-1.6 1.9.4 1.6-.3 2-4 2.6-4 .6-4.4.9-3.9 2.8.4 1.2 1.1 4.6 1.6 7.5.5 2.9 1.2 5.7 1.6 6.4.4.6-.1 1.7-1.1 2.5-1.1.7-1.5 1.3-1.1 1.3.4 0-.6 2.6-2.3 5.7-1.7 3.1-3.1 6.3-3.1 7 0 .8-1.2 1.3-2.9 1.3s-3.2.4-3.5.8c-.7 1.2-8.6 1.2-8.6 0 0-.4-1-.8-2.3-.8-1.3 0-2.8-.5-3.3-1-1.2-1.2-2.9.4-4.9 4.3-.6 1.2-2.2 2.7-3.5 3.4-1.4.7-2.5 1.6-2.6 2 0 .4-.4 1.6-.9 2.7s-.4 2.6.2 3.5c.9 1.5.9 5.2 0 12.9-.5 3.3-2.3 4.8-4 3.3-1.2-.9-1.6-.7-2.1 1.4-.4 1.4-.4 3-.1 3.5 1 1.7 2.5 1.1 2.5-1 0-1.8 1.9-2.7 3.2-1.5 1.1 1.1-5.1 6.5-7.4 6.5-1.5 0-1.9.3-1 .8 1.8 1.2.4 4-2.9 5.8-1.7.8-2.9 2.3-2.9 3.4 0 1.8-2.6 2.7-6.2 2.1-.5 0-.8.3-.8.9 0 .6-.5.9-1.1.8-1.2-.3-2.4 1.4-3.9 5.4-.8 2.4-1.6 2.8-4.7 2.9-2.1.1-4.2.1-4.8 0-.5 0-1.1 1-1.2 2.4-.4 4.6-.6 5.5-1.5 5.5-.4 0-.8.6-.8 1.3 0 .7-.9 1.8-2 2.4-1.6 1.1-2.3.9-4.5-1.3-1.4-1.4-2.5-2.9-2.5-3.3 0-3.4-12.5-5.1-16.7-2.4-1.3.9-3.2 1.3-4.4 1-1.7-.5-2-.2-1.6 1.4.4 1.4-.1 2.1-1.9 2.5-1.9.5-2.3 1.1-1.8 2.9.3 1.3-.1 2.8-1 3.8-.9.8-1.6 2.1-1.6 2.7 0 .8-.7.9-1.7.5-5.4-2.2-7.1-2.5-9.2-1.7-2.3.8-3.2 4.2-3.4 12.7-.1 1.1-.4 2.3-.9 2.6-.5.3-.3 2 .3 3.9 1.1 3 1 3.4-1.2 5.1-1.3 1-3 1.9-3.7 1.9-2 0 2 4.9 4.1 5 1.8 0 2.5 4 .7 4-.6 0-.9 1.7-.8 3.7.2 3 0 3.7-1.3 3.5-1.2-.2-1.5.5-1.1 3 .2 1.8.9 3.8 1.4 4.5.6.8-.4 2.2-3.1 4.4-2.2 1.7-4.3 4-4.7 5.1-.3 1-1 1.6-1.5 1.3-.5-.4-1 0-1 .7-.1.7-.3 2.4-.4 3.8-.2 1.4.3 3.2 1 4 .7.8 1.7 2.8 2.3 4.5.9 2.6 1.1 2.7 1.1.7.1-2.3 1.5-3 2.6-1.2.5.8 1.1.7 2.1-.1 1.1-.9 1.5-.8 2 .5 1 2.6 2.5 1.8 1.8-1-.6-2.4-.5-2.6 1.6-1.9 1.9.6 2.2.4 1.7-1-.7-1.8 1.6-4.9 2.8-3.7.4.4.4-.4 0-1.7-.5-1.7-.4-2.2.5-1.6 1 .6 1.2.1.8-1.8-.4-2.3-.3-2.5 1.4-1.6 2.2 1.2 3.9.4 3.2-1.5-1.2-3.1 9.4-2 23.2 2.4 3.7 1.2 8.8-.5 8-2.7-.4-.9.3-1.3 2.1-1.3 1.4 0 3.5-1 4.7-2.3 4.9-5.2 23.6 1.3 22.8 7.9-.4 3 2.1 4.1 5.4 2.4 2.9-1.6 3.2-1.4 3.9 3.4.7 6 1.4 7.6 3.2 6.9 1.2-.5 1.3-.2.5 1.3-1.9 3.7-1.8 8.2.3 9.8 1.7 1.2 1.8 1.8.7 3.3-.6 1-1.6 2.8-2.2 4-.5 1.3-1.8 2.3-2.9 2.3-2.3 0-4.5 2.5-3.8 4.3.3.9-1.1 2.1-4.3 3.5-5 2.2-6.9 5.2-4.4 7.3 1.9 1.5 1.8 3.9-.1 3.9-1.8 0-1.8.5-.5 3.1 1.5 2.6 2.7 2.4 4.2-.9.8-1.6 2.3-2.8 3.8-3 1.4-.2 3-.8 3.5-1.2.6-.5 2.4-.8 4-.8 4.2.1 9.5-1.2 9.5-2.3 0-2.2 3.3-.6 5.2 2.6 1.2 2.1 3.5 4.2 5.6 5 3.2 1.4 3.6 1.4 4.8-.4 1.3-1.8 1.4-1.8 5.5.2 3.1 1.5 6.4 2.1 12.3 2.2 4.5.1 8.3.3 8.6.5.3.1 1.4.1 2.4 0s3.6.6 5.7 1.6c3.7 1.6 4 1.6 5.8 0 1.6-1.5 1.9-1.5 3.1-.1.9 1.1 1 1.8.1 2.9-.9 1.1-.7 1.5.9 1.9 1.7.4 2 0 2-2.5 0-1.8.4-2.7 1-2.3.6.4 1.7.1 2.5-.5 1-.8 2.8-1 5.1-.5 3.1.5 3.6.4 3.1-.9-.4-1-.1-1.6.7-1.6.9 0 1.2-.8.8-2.5-.3-1.8 0-2.5 1.2-2.5 1.9 0 2.1-2.1.4-3.8-1.8-1.8.3-1.4 2.3.4 1.6 1.4 1.8 1.4 2.9-.5.6-1.2 1.6-2.1 2.3-2.1.7 0 1.8-.9 2.5-2 1-1.7.9-2.3-.8-4-1.2-1.2-2-2.9-1.9-3.8.4-4 0-4.6-1.8-2.9-2.6 2.3-6.8 2.6-6.8.5 0-.9-1.1-2.9-2.5-4.3-2.3-2.5-2.4-2.7-.5-2.5 4.2.5 5.5 0 4.8-1.7-1.1-2.7 5.7 2.8 7.4 6.1 1.1 2.1 1.7 2.5 2.3 1.6.4-.7 1.3-.9 1.9-.6.6.4 1.1 0 1.1-.8 0-.9.7-1.6 1.5-1.6s1.7-1.1 2.1-2.5c.5-2 1.2-2.5 4-2.5 2.7 0 3.2-.3 2.7-1.7-.5-1.3-.2-1.5 1.5-1.1 1.3.4 2.3 0 2.6-.9.7-1.8 7.4-4.7 10.6-4.5l2.5.2-2.2-1.2c-2.8-1.3-3-3.5-.4-4.3 2.1-.6 5.1.3 5.1 1.7 0 .5 1.2.8 2.8.6 2.1-.2 2.8-.9 3-3.1.3-2.5.7-2.8 2.8-2.3 4.3 1.1 10.2-1.3 11.3-4.5.8-2.2 1.6-2.9 3.6-2.9 2.2 0 2.5-.3 2-2-.5-1.5-.3-1.8.9-1.4 1.9.7 1.9.9.5 3.5-.7 1.3-1.6 1.8-2.9 1.4-1-.3-2.1-.1-2.5.4-.3.6 0 .9.7.6 1.7-.7 4 2.9 3.2 5-.4.9-1.2 1.4-2 1.1-.7-.3-1.8.1-2.4.9-.9 1-.1 1.4 3.7 1.7 3.5.4 5.1.1 6.1-1.1 1.7-2.1 1.5-7.1-.4-9.2-.9-1-1.9-3.9-2.2-6.5-.4-4.1-.3-4.6 1.1-4.1.9.3 1.9.2 2.2-.3.4-.6 1.9-1 3.6-1 2.2 0 2.9-.5 2.9-2 0-1.6.7-2 3-2 2.8 0 2.9.2 1.8 2-1.1 1.7-1 2.2.2 3 2.6 1.6 3.7-.6 3.3-6.7-.4-5.7-.4-5.8 1.4-3.8 1 1.1 2.6 1.9 3.5 1.7 1.2-.2 1.9.5 2.4 2.3.4 1.8 1 2.3 1.6 1.7 1.3-1.3 3.9-.4 5.5 1.7 1 1.4 1.5 1.3 4.1-1.2 2.1-2 3.6-2.7 5-2.3 1.4.5 2.6-.1 4.1-2 1.2-1.5 2.1-2.3 2.1-1.9 0 .4 1.1 0 2.5-.9 2.1-1.4 2.5-1.4 2.5-.2 0 .8-.4 1.8-1 2.1-.5.3-1 1.5-1 2.6 0 1 .5 1.9 1 1.9.6 0 1 .6 1 1.4 0 1.7-3.9 2.5-7 1.4-1.8-.6-2.1-.5-1.6.7.7 1.8-2.9 2.1-4 .3-.5-.7-1-.4-1.6 1.1-.7 2.1-1.3 2.3-6.3 1.9-5.1-.3-5.4-.2-4.9 1.8.4 1.7-.1 2.5-2.7 3.8-1.8.9-4.3 1.6-5.6 1.6-1.8 0-2.3.5-2.3 2.4s-.7 2.5-3.5 3c-3.6.7-4.4 2.3-2.3 4.4.9.9.7 1.2-1 1.2-1.3 0-2.5.7-2.8 1.5-.4.8-1 1.2-1.5.9-.5-.3-.9-.1-.9.4 0 .6-.9.8-2 .5-1.1-.3-2.7 0-3.5.7-1.4 1.1-1.4 1.5 0 3.6.8 1.3 1.5 3 1.5 3.8 0 1.8 6 6.6 8.2 6.6.8 0 2.9.5 4.6 1.1 2.5.9 3.2 1.7 3.7 5 .4 2.2 1.2 3.9 2 3.9.7 0 1.5.6 1.8 1.4.4.9 1.4 1.2 2.5.9 1.1-.2 2.3 0 2.6.6.5.8 1.3.8 2.7 0 2.3-1.2 5.9-.3 5.9 1.5 0 .8.7 1.9 1.5 2.6.9.7 1.5 2.9 1.5 5.5 0 4.3 1.4 6.4 4.5 6.9.8.1 2.2 1.1 3 2.2 1.1 1.4 1.4 1.5 1.5.4 0-1.1 1.3-1.5 5.2-1.5 5.1 0 5.3-.1 5.8-3 .4-2.4.7-2.6 1.2-1.3.4 1 1.4 1.8 2.2 1.8 1.5 0 1.7-3.1.2-4.2-.6-.4 1-.4 3.5-.1 2.4.3 4.5 1 4.7 1.4.6 1.5 2.2 1 2.2-.6 0-.8.4-1.5.9-1.5s.8-2.6.6-5.8c-.2-3.1-.1-5.2.1-4.5.3.7 1.4.9 3.2.4 1.5-.5 3.8-.4 5.1.1 2.6.9 3.7.5 2.6-1.1-.3-.6-1.7-1.1-3.1-1.1-2.7 0-3.2-2.2-1-4.2 1.1-1.1 1-1.7-.8-4.2-1.4-1.9-1.7-3-.9-3.3.6-.2.9-1.6.7-3.1-.3-2.3.3-3.1 4-5.5 3.1-1.9 4.3-3.2 3.9-4.5-.2-1 .5-2.6 1.6-3.6 1.2-1.1 2.1-2.5 2.1-3.2 0-.7.7-1.7 1.6-2.2 1.5-.8 1.5-1.2 0-4-1.6-3.1-1.6-3.2.9-3.8 1.7-.4 2.5-1.3 2.5-2.8 0-1.2.5-2.7 1.2-3.4.8-.8.8-1.5-.2-2.7-1-1.3-.9-1.5.7-1.5 1.1 0 2.8-.9 3.8-2 1.7-1.9 1.8-1.8 5.6 2.2 4 4.3 4.1 4.5 4.3 8.8.1 1.6.7 2.5 1.8 2.5.9 0 2.6.9 3.7 1.9 2.1 1.9 2.1 1.9 2.1-.3 0-1.9.3-2 2.1-1 1.5.8 1.9.8 1.5 0-1.1-1.8-.2-1.5 6 1.7 1.6.8 3.4.5 7.9-1.4 3.3-1.3 6.3-3 6.8-3.9.5-1 1.6-1.4 2.7-1 1 .3 2.1.1 2.5-.5.4-.6 1.6-.8 2.7-.4 1.7.5 2 .3 1.4-1.1-.4-1.2 0-1.8 1.3-2.2 1.1-.3 2.2-1.5 2.5-2.6.3-1.2 1.9-2.9 3.5-3.9 2.3-1.3 2.8-2.1 2.4-3.9-.5-1.9-.3-2.1 1.5-1.7 1.3.4 2.5.1 3-.7.4-.7 2.4-2 4.4-2.8 2.1-.9 4.3-2.6 4.8-3.9 1-2.1 1.6-2.3 7.3-2l6.2.4-3.3-3.5c-2.7-2.7-3.2-3.9-2.6-6.1.4-1.9 1.3-2.6 3-2.6 2.8 0 2.9-.5.9-4-1.9-3.2-1.8-4 .1-4 2 0 4.2-2.2 3.6-3.8-.2-.6-1.5-1.2-2.8-1.2-1.7 0-2.4-.6-2.4-1.9 0-2.9-2.9-9.1-4.6-9.8-1.3-.5-1.3-.7-.3-1.4 1-.6.4-1.2-2-2.2-3-1.3-3.2-1.5-1.4-2.1 1.1-.4 2.8-1.5 3.8-2.6 1.7-1.8 1.6-1.9-1.1-1.7-2.4.2-3-.2-3.2-2.2-.3-1.6.1-2.2 1-1.9 1.5.5 3.8-4.2 3.8-7.7 0-1.2.6-2.8 1.4-3.4 1.2-1 .9-1.7-1.5-4.4-1.6-1.7-2.9-3.8-2.9-4.6 0-.8-.7-2.2-1.5-3.1-2-2.2-2.9-11.9-1.1-12.6.7-.3 1.9-3.1 2.6-6.2 1.6-6.7 8.5-20.8 10.8-22.1 1.2-.7 1.7-2.6 1.8-6.9.2-4.7.9-7.3 3.6-12.2l3.3-6.1-3.2-2.8c-1.8-1.5-3.3-3.2-3.3-3.8 0-.6-.7-1.3-1.5-1.7-.8-.3-1.5-1.7-1.5-3.1 0-1.9-.5-2.5-2.1-2.5-1.7 0-1.9-.3-1-1.4 1.4-1.7-1.1-8.2-4.3-11.1-1.3-1.2-2.8-4.3-3.5-7.5-1.7-7.2-3.4-9.7-7-10.5-2.2-.5-3.3-1.6-4.5-4.6-2-4.9-2-5.5-.1-3.9 1 .9 1.5.9 1.5.1 0-.6.7-1.1 1.5-1.1.9 0 1.5-.9 1.5-2.5 0-3.5 2-7.4 4.2-8 1-.4 1.8-1.3 1.8-2.1s.5-1.2 1-.9c1.3.8 1.3-2.9-.2-7.6-1-3.4-.9-4.2.6-5.8 1.5-1.6 1.7-2.9 1.1-7.3-.8-5.4-.9-8.8-.7-16.6.2-3.5.6-4.5 2.2-4.9 1.3-.4 2-1.4 2-2.9 0-1.4.7-2.7 1.8-3.1 2.6-1 4-3.4 4.8-8.1.3-2.3 1-4.5 1.5-4.8.5-.3.5-1.3-.1-2.4-.5-1-1-2.8-1-3.9 0-1.4-.5-1.9-1.4-1.5-.8.3-2.4-.4-3.5-1.5-1.2-1.2-2.8-2.1-3.7-2.1-1.4 0-1.4-.3-.4-1.5 1.1-1.3.9-2.1-.8-4.5-1.8-2.4-4.7-11-3.7-11 .2 0-2.3-2.5-5.5-5.6-6.9-6.6-9.2-11-6.7-12.9 2.1-1.5 2.1-2.4 0-4.7-.9-1-1.2-1.8-.6-1.8s.6-1.8-.1-5.1c-.9-4.7-.8-5.4 1.7-9.9 1.5-2.6 2.7-5.6 2.7-6.6.1-4.2 8.9-7.5 17-6.3 4.3.6 4.7.4 8.4-3.2 2.9-3 4.6-3.9 7.2-3.9 2.7 0 3.4-.4 3.8-2.3 2.5-13.1 3.6-15.8 6.8-17 2.2-.8 7.9-8.7 7.2-9.8-.7-1.2 4.7-1.1 6.6.1 1.2.8 1 1-.9 1s-2.2.3-1.3 1.2c1.9 1.9 4.4-1 4-4.6-.3-2.9-.1-3.1 2.5-2.8 4 .4 5.7-1.4 5.7-6 0-3 .3-3.9 1.4-3.5 1.5.6 5.6-3.2 5.6-5.3 0-.7-.8-1.9-1.7-2.6-1.6-1.2-1.5-1.3 1.5-1.4 2.7 0 3.2-.4 3.2-2.5 0-1.4.5-2.5 1-2.5.6 0 1 .4 1 1s1 .5 2.5-.2c1.4-.6 2.5-1.7 2.5-2.4 0-1 .9-1.2 3-.8 2.2.5 3 .3 3-.8 0-2.1 5-1.6 9.2 1 2 1.2 4.2 2.2 5.1 2.2 2.1 0 2.7-5.7.9-9.3-1.1-2.3-1.2-3.2-.3-3.5 3.1-1-2-12.2-5.6-12.2-.7 0-1.3-1.1-1.3-2.5 0-1.8-.7-2.8-2.5-3.5-1.4-.5-2.5-1.5-2.5-2.1 0-.7-.9-.9-2.6-.5-1.8.5-3.2.2-4.5-.9-1-1-2.3-1.4-2.8-1-.7.3-1.1-.2-1.1-1.4 0-1-.3-2.6-.6-3.5-.4-1.1-.1-1.6 1.1-1.6.9 0 1.3-.5 1-1.1-.4-.6.1-1.6 1.1-2.4 1.8-1.3 1.8-1.5.1-5l-1.7-3.6-3.1 2.2c-1.7 1.2-3.4 3.2-3.9 4.5-.5 1.3-1.4 2.4-1.9 2.4-2.5 0-6.1-2.1-6.1-3.6 0-1.1-.5-1.4-1.6-1-.9.4-2.8-.1-4.2-1-1.9-1.3-3-1.4-4.8-.5-1.3.6-2.4.7-2.4.2 0-.4-1.1-1.4-2.5-2.1-3.1-1.6-3.2-3-.4-3 1.8 0 2-.5 1.6-2.6-.4-2.4-.3-2.5 2.8-2 2.4.5 3.4.3 3.9-.9.3-.9 1.4-1.5 2.3-1.3 1.5.2 1.8-.3 1.5-3-.2-3.1 0-3.2 3.5-3.3 2.1-.1 5.2-.1 7 0 2.5.2 3.5-.4 4.9-2.5 1.7-2.5 1.7-2.7-.2-4.1-1.9-1.4-1.8-1.4.6-3.3 1.4-1.1 2.1-2 1.6-2s-.3-.6.3-1.4c.6-.7.9-2 .5-2.9-.3-.8-.1-1.8.5-2.1 1.7-1.1.1-10.8-2.2-13.3l-2-2.2 3.2-2.6c1.7-1.5 3.1-3.6 3.1-4.6 0-1.2.4-1.7 1.1-1.3.6.3 2.4-.6 3.9-2.1 2.3-2.2 2.8-3.4 2.3-5.6-.5-2.7-.3-2.9 2.8-3 1.9 0 2.8-.3 2.1-.6-.6-.2-.9-.9-.6-1.4.3-.6 1.1-.5 2 .2.9.7 1.4.7 1.4.1 0-1.6 9.3-2.1 11.1-.5 1.3 1.1 2.2 1 5.7-.7 2.2-1.1 4.4-2.5 4.7-3.1.4-.6 1.6-1.4 2.7-1.8 2-.7 1.9-.9-1.2-4.5-1.8-2.1-3.9-3.5-4.6-3.2-.8.3-1.4-.1-1.4-.9s-.6-1.2-1.3-.9c-.8.3-2-.2-2.7-1.1-.8-1-2.9-1.5-6.2-1.5-2.7 0-5.9-.5-7-1.1-1.5-.8-1.9-.8-1.3.1.5.8 0 1.1-1.6.8-3.3-.4-3.4-2.2-.2-3.6 2.5-1 2.5-1.1.3-.6-1.4.4-3.7.7-5.2.9-1.6.1-3 .4-3.3.5-.3.1-.9.3-1.4.4-.5 0-1.3.4-1.7.8-.4.5-1.5.8-2.3.8-.9 0-2.4.9-3.4 2-1.1 1.3-2.9 2-5.3 2-2.9 0-3.5.3-3 1.6.3.9.6 2 .6 2.5 0 .6.5.7 1.1.3 1.8-1.1 0 3.9-2 5.4-1 .9-2.9 1.1-5.3.8-3.8-.6-4.3-.2-3.9 3.1.1.7-.7 1.3-1.8 1.3s-2.4.6-2.8 1.4c-.9 1.5-5.7 3.8-11.8 5.7-5.8 1.7-8.5 3.1-8.6 4.3 0 1.7-7.9 7.6-10.1 7.6-1.7 0-1.8.3-.8 1.5 2 2.4.2 3.7-3.1 2-1.6-.9-2.9-1.9-3-2.3 0-.4-.2-1.8-.3-3-.3-2.3-2.1-4.2-4-4.2-.5 0-.1.9.9 2s1.5 2.3 1.2 2.6c-.3.4 0 1.8.7 3.3.7 1.4 1.1 3.4.8 4.4-.3 1.5-1.1 1.7-4 1.3-2.1-.3-4.4-.5-5.3-.6-1.3 0-1.7-.9-1.7-3.5 0-2.1.5-3.5 1.2-3.5 2.3 0 3.2-4.3 3-13.8-.2-8.2 0-9.2 1.4-8.8 2.6.8 5.6-3.8 4.2-6.4-.8-1.5-.7-2.8.4-5.3.8-1.7 1.7-4.6 1.9-6.2.3-2.5.8-3 3.3-3.1 4.7-.1 5.1-.3 5.7-2.4.6-2.4-3.9-8.4-5.5-7.4-.7.5-.9-.2-.5-1.7.3-1.3.9-3.6 1.2-5.1.5-2.1.3-2.7-1.4-3.3-1.1-.3-2.5-2.1-3.2-4.2-.6-2-1.9-4.5-2.8-5.5-1.6-1.7-1.8-1.7-3.4.3-1.4 1.6-2.7 1.9-6.6 1.7-2.7-.2-4.7-.6-4.5-.9.2-.3-.3-1.5-1.1-2.5-1.4-1.8-1.4-1.8-1.5.9 0 2.5-.3 2.7-2.7 2.1-1.6-.4-3.8-1.3-5-2-1.2-.8-3.1-1.4-4.2-1.4s-2.3-.5-2.6-1.1c-.4-.6-1.3-.8-2.1-.5-.9.3-1.4-.1-1.4-1.2 0-1-.5-2.3-1.1-2.9-.9-.9-.7-1.1.7-.7 1.5.4 2.4-.3 3.7-3 1.1-2.4 2.4-3.6 3.7-3.6 1.1 0 2-.4 2-1 0-.9 5.1-2.6 10-3.2 3.5-.4 6-3.3 6-6.8 0-3.2.2-3.3 12-3.5 1.9 0 4.5-.6 5.8-1.3 1.2-.7 2.7-1 3.2-.7.5.3 2.5.3 4.5-.1 2.5-.4 3.5-1.1 3.5-2.5 0-1.3.7-1.9 2.4-1.9 1.3 0 2.6-.7 3-1.5.3-.8 1.2-1.5 2.1-1.5.8 0 1.5-.7 1.5-1.5 0-.9 1-1.9 2.2-2.4 2.1-.8 2.1-.8.1-2.2-3.1-2.2-4.6-5.6-2.8-6.3.8-.3 1.5-1.2 1.5-2s1-1.6 2.3-1.8c1.6-.2 2.3-1.1 2.5-3.3.2-1.6.8-3.3 1.4-3.6 1.9-1.2-5.9-3.1-8-2-1.1.6-2.4.6-3.3 0-2.4-1.5-3.7-1-3.2 1.1.3 1.1.8 1.8 1.2 1.6.3-.2.7.9.8 2.6.2 2.5-.3 3.2-2.7 4.1-1.8.7-3 1.9-3 2.9s-.5 1.8-1 1.8c-.7 0-.7.6 0 2 .8 1.6.8 1.8-.4 1.4-.9-.3-1.4-1.1-1.3-1.7.1-.5-.9-1-2.3-1-3.7 0-9 1.4-9 2.4 0 1.2-2.1 1.1-3.9 0-1.2-.8-1.2-1.2-.2-2.4 1-1.3.8-2.3-1.4-5.6-2.1-3.4-3.1-4.1-5.7-4.1-1.7 0-4-.8-5-1.7-1.8-1.6-1.8-1.7.8-4.4 2.4-2.5 2.4-2.8.9-4-4.4-3.6-6.5-6.4-6.6-8.8 0-1.4-.6-4.2-1.3-6.1-1.1-2.9-1.1-3.9.2-5.8.9-1.4 1-2.2.3-2.2-.6 0-1.1-.8-1.1-1.8 0-1.1-1.6-2.4-4.5-3.5-2.5-1.1-4.5-2.3-4.5-2.8s-.9-.9-2-.9-2.8-.9-3.7-2c-1-1.1-2.4-2-3.2-2-.7 0-2.4-1.2-3.7-2.8-1.9-2.2-2.1-2.8-.9-3 .8-.2 2-2.3 2.6-4.8.9-3.3 1.6-4.4 3.1-4.4 2.7 0 8.8 2.7 8.8 3.9 0 .6 1.1 1.1 2.5 1.1 1.6 0 2.5.6 2.5 1.5 0 1.8 1.7 2 2.2.3.3-.7 1.6-.3 3.7 1.3 2.1 1.5 3.4 2 3.9 1.3 1.1-1.7 5.4-2.4 7.6-1.2 1.1.6 2.9 2.2 4 3.5 1 1.4 2.8 2.9 4 3.4 1.1.6 3.2 1.6 4.6 2.4 2.2 1.3 2.6 1.2 3.4-.3.5-.9 1-1.9 1.2-2 .1-.2 1.7.4 3.4 1.5 3.1 1.8 3.2 1.8 4.6-.2.8-1.1 1.7-1.8 1.9-1.5.7.8 4.5-2.9 4.5-4.4 0-.8.9-1.8 2-2.1 4.5-1.4.4-7.6-5.8-9-2.7-.6-6.3-4.5-4.2-4.5.6 0 2.2-1.2 3.5-2.6 2-2.1 2.2-3 1.4-4.6-.6-1.1-1-4.8-.8-8.1.2-6.9-.6-9.8-2.6-9.1-.7.3-1.6.1-2-.5-.3-.6-1.5-1.1-2.6-1.1-1 0-2.7-.9-3.6-1.9-1.4-1.7-1.8-1.7-3-.5-.8.8-2.3 1.4-3.4 1.4-2.7 0-5.8 1.7-9.5 5.1-3.7 3.5-7.1 3.4-12.8-.5-3-2-4.2-2.3-5.2-1.5-.8.6-2.3.9-3.4.6-1.4-.4-2.9.3-4.6 2-1.4 1.4-2.9 2.2-3.3 1.7-.3-.6-1.9-1.1-3.5-1.2-3-.2-5.6-1.8-5.6-3.4 0-.5.8-.8 1.7-.6 1.2.2 2.1-.8 2.9-3.1 1-3 .8-4-.7-6.5-2.4-4-2.4-4.6.4-4.6 4.7 0 7-4.1 7.4-13 .2-3.6.6-8 .9-9.8.5-2.6.2-3.8-1.7-5.8s-2-2.4-.6-2.4c2.1 0 2-4.7-.1-7.2-.8-1-1.1-2.5-.7-3.7.3-1.1-.2-4.8-1.1-8.2-1.7-6-1.7-6.2.1-7.5 1-.8 2.5-1.4 3.2-1.4.7 0 1.3-.5 1.3-1.1 0-.5.4-.8 1-.4 1 .6.6-4.7-.5-6.5-.4-.6-.4-2.2-.1-3.6.5-2 1.1-2.4 2.7-1.9 1.7.6 2 .4 1.5-1.3-.7-2 1.9-5.1 3.1-3.8.3.3 1.3 0 2.2-.8 2.5-2.2 8.4-5.2 10.1-5.1.8 0 1.8-.3 2.1-.7.3-.4 2.8-.9 5.6-1.1 4-.2 5.8-1 8.6-3.4 1.9-1.7 3.8-4 4.2-5.2.4-1.4 1.2-2 2.1-1.7 1 .4 1.4-.2 1.4-2.1 0-2.2.2-2.4 1.5-1.3 1.3 1.1 1.8 1 3-.6.8-1 1.5-2.9 1.5-4.2 0-1.3.4-2.1.9-1.7.5.3 1.3 0 1.6-.6.4-.5 1.3-.8 2.1-.5.9.3 1.4-.1 1.4-1.2 0-.9 1.7-3.3 3.8-5.2 2-1.9 3.5-3.9 3.3-4.5-.9-2.7-.9-11.5.1-10.9.6.4.8-.2.6-1.2-.3-1.4-1.2-1.8-3.2-1.7-2.2.2-2.6-.1-2.2-1.4.4-.8.1-2.2-.5-2.9-.9-1.1-.8-1.8.4-3.2 1.1-1.2 1.3-2.2.7-3.2-.5-.8-1-2.5-1-3.7 0-1.9-3.8-5.4-4.1-3.8-.1.3-.2.9-.3 1.4-.3 2-1.5 2.2-2.5.3-.8-1.5-.8-2.1.1-2.4.7-.3.2-.7-1-1-2-.6-2.2-.3-1.7 1.5.4 1.2.8 2.9 1.1 3.7.3 1.3-2.8 3.9-6.9 5.8-.4.2-.5-2.1-.3-5.2.3-3.1.2-5.6-.3-5.6s-1.7-2.4-2.5-5.3c-1.9-6.2-3.6-9.2-3.6-6.4 0 1-.4 1.6-.8 1.3-.4-.3-2.7-.7-5-1-3.9-.4-4.3-.3-5.7 2.5-1.3 2.3-2.2 2.9-4.9 2.9-1.9 0-3.6.6-3.9 1.2-.7 2.1-9.7-2.7-9.7-5.1 0-1.1-.4-2.2-1-2.6-.5-.3-.7-1.2-.4-2 .6-1.5-4.2-6.4-6.2-6.5-.6 0-1.7-.7-2.4-1.5-1-1.2-1.6-1.3-2.7-.3-1.5 1.2-8.3 1.8-8.3.7 0-.4-1.5-1.1-3.2-1.5-1.8-.3-5.1-2.4-7.3-4.5-2.2-2.2-4.5-3.9-5.2-3.9-.6 0-1.4-.8-1.7-1.8-.5-1.5-2-1.7-11.8-1.7-6.2.1-11.9-.3-12.6-.9-1.8-1.3-6.2-1.7-6.2-.5 0 1.4-2.6 1.1-4-.6-.7-.9-1.5-1.3-1.8-1-.3.3-1.6-.5-2.9-1.7l-2.3-2.1v2.6c0 2.5-3.3 6.7-5.3 6.7-.4 0-.6.8-.3 1.8.5 1.5-.2 2.1-3.1 3-3.9 1.2-5.7.7-4.9-1.3.2-.7-.5-1.6-1.7-1.9-3.5-.9-3.8-.7-3.5 1.6.2 1.6-.2 2.3-1.4 2.3-1 0-2.5 1-3.3 2.3-1.2 1.6-2.6 2.2-5.2 2.2-2.9 0-3.3.3-2.4 1.4.9 1.1.7 1.5-.7 1.8-1.1.3-2.5.2-3.3-.2-2.4-1.3-7.7 0-8.2 2.1-.3 1-1.6 2.3-3 2.8-1.6.6-2.8 2.1-3.2 3.8-.5 2.6-4.7 8.3-6 8.3-.3 0-.5-1.1-.5-2.5s.5-2.5 1-2.5c.6 0 1 .5 1 1.1 0 .5.5.7 1.2.3.8-.5.6-1.1-.5-1.9-1-.7-1.7-2-1.7-3 0-1.1-.5-1.5-1.5-1.1-.8.3-1.9-.2-2.4-1.2-.5-.9-1.5-1.7-2.3-1.7-.7 0-1.4-.3-1.6-.7-.2-.4-1.9-2.4-3.8-4.4-1.9-2.1-3.4-4.3-3.4-4.9 0-1.4-7.2-8.5-8.6-8.5-.6 0-.8-1.5-.6-3.5.3-2.2-.2-4.5-1.2-6-1.6-2.5-1.7-2.5-3.6-.7-1.1 1-4.9 3.1-8.5 4.7-4.2 1.9-6.5 3.5-6.5 4.6 0 2.3-4.2 6.5-7.3 7.3-1.7.4-4.1 0-6.4-1-3.5-1.4-5.6-2.1-7.5-2.3-.4-.1-.5-.8-.1-1.6.4-1.1-.4-1.9-2.6-2.8-1.7-.6-3.1-1.7-3.1-2.3 0-.7-1.6-3.1-3.5-5.4-1.9-2.3-3.5-4.6-3.5-5.1 0-1.5-3.7-1-4.3.5zm80.7 45.7c.5.5.7 1.2.3 1.6-.9.8-5.7-1.7-5.7-2.9 0-1 4-.1 5.4 1.3zm50.9 3.3c1.2 1.3 3 3.5 4 5s2.8 2.6 4 2.6c4.8 0 6.6 1.2 8.2 5.4.9 2.2 1.7 5.4 1.9 6.9.2 1.6.8 3.2 1.5 3.6.6.4.9 1.5.6 2.3-.4.9-.1 1.9.5 2.3 1.7 1-.7 2.5-4.1 2.5-2.9 0-4.9-1.7-4.9-4.2 0-2.3-2.9-3.7-6.3-3.1-2.4.5-2.9.1-4.4-3.3-.9-2.2-1.5-5.1-1.5-6.5.1-1.4-.9-4.7-2.3-7.2-1.3-2.6-2-4.9-1.5-5.2.5-.3.7-1.2.3-2-.8-2.3 1.5-1.8 4 .9zm81.7 53.2c0 .2-.9.4-2.1.4-1.1 0-1.8-.4-1.4-1 .5-.8 3.5-.3 3.5.6zm12 12.9c0 .8-.4 1.5-1 1.5-.5 0-1-.7-1-1.5s.5-1.5 1-1.5c.6 0 1 .7 1 1.5zm-342.4 63.6c.5.8.9.8 1.4-.1.5-.8 1.2-.7 2.4.5 2 2 2.1 4.5.1 4.5-.8 0-1.2.6-.9 1.3.3.8-.2 2-1.1 2.7-1.4 1.1-1.7 1-2.2-.8-.5-2.1-2-2.7-5.1-2.3-1.8.3-5.3-2.9-4.6-4 .3-.5 1.4-.4 2.5.2 2.5 1.3 4.9.5 4.9-1.6 0-1.7 1.6-2 2.6-.4zm274.8 61.3c3.8-.9 4.2 1.7.9 5.4-1.5 1.8-3.3 3.2-3.9 3.2-.7 0-1.4.7-1.8 1.5-.3.8-.9 1.4-1.3 1.3-.4-.1-2.3.6-4.2 1.6-2.7 1.4-3.9 1.6-5.2.7-1.4-.8-2-.7-2.8.7-.5.9-1.3 1.3-1.7.9-1.2-1.2 1-4.2 3.4-4.5 1.4-.2 1.9-.8 1.5-1.8-.3-.9.3-2.2 1.6-3.1 1.3-.9 2-2.1 1.7-3-.5-1.2 0-1.3 2.3-.8 3 .6 4.8-1.4 3.4-3.8-.3-.7.3-.4 1.4.6 1.4 1.2 2.9 1.6 4.7 1.1zm6.4 7.5c.3 1 0 1-1.7.2-2.5-1.4-2.7-2-.4-1.7.9.2 1.9.8 2.1 1.5zm6.6 11.7c2.4.9 2 3.3-.4 2.7-1.1-.3-2-1.2-2-1.9 0-1.6.2-1.6 2.4-.8zm-8.4 2.4c1.3.8 1.3 1-.2 1-.9 0-2-.5-2.3-1-.8-1.3.5-1.3 2.5 0zm15 3.6c0 .2-.9.4-2 .4s-2-.4-2-.9.9-.7 2-.4c1.1.3 2 .7 2 .9zm16.5 9.2c1.7 1.2 1.7 3.5.1 2.9-.9-.4-2 .1-2.5 1.1-.8 1.4-1.2 1.5-2.2.4-1.1-1-1-1.2.4-1.2 1 0 1.7-.8 1.7-2 0-2.1.8-2.5 2.5-1.2zm-370.5 57.8c0 .2-.7.4-1.5.4s-1.5-.4-1.5-1c0-.5.7-.7 1.5-.4.8.4 1.5.8 1.5 1zm-17.2 2.5c.9 1.4 1.9 1.8 3.3 1.4 1.1-.4 3 0 4.4.9 1.3.9 3.1 1.6 3.8 1.6 2.3 0 4.2 2.9 2.9 4.2-.9.9-1.8.8-3.6-.2-1.4-.7-3.1-1-3.9-.7-.8.3-2 0-2.6-.6-.8-.8-1.1-.8-1.1 0 0 .7-.9 1.5-2.1 1.8-1.9.6-1.9.8-.5 2.4 2.2 2.4 2 3.8-.1 1.8-3.5-3-13.5-7.9-15.4-7.4-2.2.6-2.6-1.1-.4-1.9.8-.4 1.2-1.1.8-1.6-.4-.7.6-.8 3-.4 3 .6 3.8.3 4.7-1.4 1.4-2.6 5.2-2.6 6.8.1zm23.3 7.2c-.1 1.2-1.5.9-1.9-.4-.3-.6.1-1 .8-.8.6.3 1.1.8 1.1 1.2zm-2.3 3c.5 2.4-1.5 2.1-2.8-.4-1-1.8-.9-2 .7-1.7 1 .2 1.9 1.1 2.1 2.1zm-49.8 33.1c0 .3-.4.8-1 1.1-.5.3-1 .1-1-.4 0-.6.5-1.1 1-1.1.6 0 1 .2 1 .4zm444 60.6c0 .5-.2 1-.4 1-.3 0-.8-.5-1.1-1-.3-.6-.1-1 .4-1 .6 0 1.1.4 1.1 1zm15.8 14.9c3 2.6 3.2 3 1.5 3.5-1.9.6-1.8.9.8 6.4 3 6.5 4.4 13.7 2.9 14.7-.8.5-.8 1.1 0 2 .8 1 .8 1.5-.1 2-.6.4-1.4.3-1.8-.3-.3-.6-1.9-1.5-3.4-2.1-2.2-.9-2.7-1.7-2.7-4.4 0-2.1-.8-4.1-2-5.2-1-.9-1.8-2-1.7-2.4.2-.6-2.2-3.7-5.4-7.1-.9-.9-1.9-2.8-2.2-4.2-.6-2.4-.5-2.4 4.4-2.2 4.5.2 5 0 4.6-1.7-.7-2.7 1.2-2.3 5.1 1zm-318.3 434.1c.3.5.1 1-.4 1-.6 0-1.1-.5-1.1-1 0-.6.2-1 .4-1 .3 0 .8.4 1.1 1zm-4.9 4.3c.4.3 0 .9-.9 1.3-.9.3-1.3 1.2-1 2 .4 1-.4 1.4-3 1.4-3.1 0-4.7-1.3-4.7-3.6 0-1.8 8-2.7 9.6-1.1zm303.8 24.2c-.7 1.6-2.4 2.1-2.4.6 0-.8.7-1.3 2.7-2 .1-.1 0 .6-.3 1.4zm-40.4 9.6c0 .5-.4.9-1 .9-.5 0-1-.7-1-1.6 0-.8.5-1.2 1-.9.6.3 1 1 1 1.6zm-7.8 7.1c-.7.7-1.2.8-1.2.2 0-1.4 1.2-2.6 1.9-1.9.2.3-.1 1.1-.7 1.7zm20.1.5c.3.5-.4 2.7-1.5 5-1.7 3.6-2.2 4-3.4 2.8-1.5-1.5-.8-4.9.9-3.8.6.4.8-.3.3-2.1-.5-2.1-.3-2.6 1.3-2.6 1.1 0 2.2.3 2.4.7zm5 1c-.7.2-1.9.2-2.5 0-.7-.3-.2-.5 1.2-.5s1.9.2 1.3.5zm-178.6 26.5c-.3.8-.6.5-.6-.6-.1-1.1.2-1.7.5-1.3.3.3.4 1.2.1 1.9zm100.8 2.6c-1.1.2-2.3.8-2.6 1.3-.3.5-1.3.1-2.2-.8-1.5-1.8-1.4-1.8 2.6-1.4 2.4.3 3.4.6 2.2.9zm-297.5 1.1c0 2.5-1.5 3.5-3.6 2.3-1.4-.8-1.4-1 .1-2.5 2.2-2.2 3.5-2.1 3.5.2zm207 1.1c0 .5-.5 1-1.1 1-.5 0-.7-.5-.4-1 .3-.6.8-1 1.1-1 .2 0 .4.4.4 1zm-13 8c0 .5-.2 1-.4 1-.3 0-.8-.5-1.1-1-.3-.6-.1-1 .4-1 .6 0 1.1.4 1.1 1zm-5.7 4.2c.9.7 1.3 1.8.9 2.4-.5.8-1.3.4-2.5-1.2-1.9-2.6-1.1-3.2 1.6-1.2z"/><path d="M456.39 153.596c0 .8.7 2.3 1.5 3.4 1.4 1.9 1.4 1.9 1.5-.2 0-1.2-.7-2.7-1.5-3.4-1.2-1-1.5-1-1.5.2zM466.49 155.096c-.1.6-.9.9-2 .6-2.3-.6-3.9 1.6-2 2.8.8.5 1.5.4 1.7-.1.4-1.2 2.2-.3 2.2 1.1 0 .6-1.2.8-2.9.4-2.5-.5-2.9-.3-3.5 2-.4 1.4-.4 3 0 3.6.3.5 0 1.6-.6 2.4-.8 1-.9 1.5-.2 1.5.6 0 1.7-.9 2.5-2.1.9-1.3 1.7-1.6 2.2-1 1 1.7 2.5 1.3 1.9-.4-.8-2 .5-1.9 2.8.2 1 .9 1.8 1.2 1.8.7 0-1.5-3.9-13-3.9-11.7zM366.79 166.596c-.3.4.4.8 1.5.8s2.2-.4 2.5-.8c.2-.4-.4-.8-1.5-.8s-2.3.4-2.5.8zM586.39 166.996c0 1.7 2.2 1.4 2.8-.4.2-.7-.3-1.2-1.2-1.2-.9 0-1.6.7-1.6 1.6zM453.19 171.096c.7.3 1.6.2 1.9-.1.4-.3-.2-.6-1.3-.5-1.1 0-1.4.3-.6.6zM594.49 263.096c0 1.6.4 3.6.8 4.6.6 1.6.9 1.7 1.9.5.9-1.1.9-2.2 0-4.6-1.5-3.9-2.8-4.1-2.7-.5zM19.39 292.696c0 1.7.2 1.9.9.8.5-.7 1.4-1 2-.7.6.4 1.1.3 1.1-.2s-.9-1.2-2-1.5c-1.5-.4-2 0-2 1.6zM27.69 293.096c-.3.7-1.3 1.3-2.3 1.3-1 0-2.1.8-2.5 1.9-.3 1-1.5 2.9-2.6 4.2-1.8 2.1-2 3.3-1.6 9.1.3 3.8.2 7-.4 7.3-1.5 1 3.3 6.5 5.6 6.5 1.1 0 2.7.6 3.4 1.2 1 1.1 1.9.6 4.5-2.5 2.2-2.5 4.2-3.7 5.9-3.7 1.4 0 2.9-.5 3.2-1 .5-.8 1.1-.7 2.1.1 1.8 1.5 1.8.4-.2-2.6-1.4-2.2-1.4-2.3.5-1.8 1.6.4 1.9.1 1.4-1.7-.3-1.1-1.7-2.9-3-3.8-1.4-.9-3.2-2.5-4.1-3.5-.9-.9-2.2-1.7-2.8-1.7-.9 0-.8-1.2.2-4.7.8-2.5 1.4-5 1.4-5.4 0-1.2-8.2-.5-8.7.8zM42.19 321.096c.6.2 1.8.2 2.5 0 .6-.3.1-.5-1.3-.5-1.4 0-1.9.2-1.2.5zM19.69 325.696c-1.6.7-2.3 1.9-2.3 3.8 0 3.6-1.6 4.5-3.2 1.9-1.5-2.4-5.5-2.6-8.6-.4-1.7 1.2-2.6 1.3-3.6.5-1.1-.9-1.5-.6-1.9 1.5-.3 1.9 0 2.7 1.7 3.4 1.1.4 3 1.8 4.1 3 1.1 1.2 3.3 2.9 4.9 3.7 2.4 1.2 3 1.3 3.8.1.7-1 .8-.8.4.5-1.1 3.4 1.1 5.8 5.2 5.6 2-.1 4.9.2 6.3.5 1.6.5 3 .3 3.3-.3.9-1.4 6.6-1.5 6.6-.1 0 .5.7 1 1.5 1s1.5-.4 1.5-.9.8-.7 1.9-.4c2.3.6 3.6-1.1 1.8-2.4-1.8-1.5-10.7-4.1-10.7-3.3 0 1.7-5 1.7-6.5 0-1.7-1.9-2-4-.5-4 1.6 0 5.1-4 4.5-5-.4-.6-1.5-1-2.6-1-1.2 0-1.9-.7-1.9-1.9 0-1.1-.5-2.3-1.1-2.6-.6-.4-1.3-1.5-1.7-2.5-.6-1.4-1.1-1.5-2.9-.7zm.5 15.3c1.2.4 2.2 1 2.2 1.5 0 1.5-3.7 1-5-.6-1.3-1.6-.8-1.8 2.8-.9zM84.79 344.796c-.5 1.4-1.4 1.7-3.7 1.2-1.7-.4-3.6-.1-4.4.6-.9.7-4.7 1.2-10.1 1.1-4.8-.1-9.3.4-9.9.9-.7.6-2.2.8-3.3.5-1.1-.3-1.8-.1-1.5.4.4.5.1 2.6-.4 4.6-1 3.5-.8 4 2 6.9 2.5 2.6 3.1 4.1 3.1 7.3-.1 2.9.3 3.9 1.1 3.4 1.5-.9 9.2-2.4 14.7-2.7 5.8-.4 10.5-1.4 13.8-3.2 1.5-.8 3.3-1.4 4-1.4.6 0 1.2-1.1 1.2-2.3 0-2.4 2.7-5.7 4.7-5.7.6 0 1.6-.6 2.2-1.4 1-1.2.6-1.8-2.1-3.1-1.8-1-5-3.3-7-5.3-3.3-3.1-3.8-3.3-4.4-1.8zM101.19 350.296c-.5 3.4.3 3.9 2.2 1.5 1.1-1.2 1.1-1.8-.2-3-1.4-1.4-1.6-1.3-2 1.5zM105.89 351.396c.3.5 1.5 1 2.6 1 1 0 1.9-.5 1.9-1 0-.6-1.2-1-2.6-1-1.4 0-2.3.4-1.9 1zM646.79 434.496c-2.5 2.7.2 7.5 5.4 9.5 4.6 1.7 6.1 1.1 6.2-2.4 0-1 .8-1.2 3-.7 1.9.4 3 .3 3-.4 0-.6.8-1.1 1.8-1.1s2.3-.5 2.9-1.1c.8-.8 1.6-.3 2.7 2 .9 1.7 2.4 3.1 3.5 3.1 2.3 0 5.8 3.6 4 4.2-1.6.5-.4 2.4 2.3 3.9 1.5.8 1.9.8 1.4 0-.4-.6 0-1.1.9-1.1 2.4 0 0-3.9-3.1-5-1.4-.6-3.1-2.5-4-4.5-.8-2-2.2-3.9-3.2-4.2-.9-.3-2.8-1.4-4.3-2.4-3.4-2.4-20.3-2.3-22.5.2zM693.09 451.396c.7 2.7 1.9 3.4 2.7 1.5.3-.8-.3-1.9-1.3-2.5-1.6-.8-1.8-.7-1.4 1zM646.89 467.996c1.7 4.2 1.7 5.4.1 6-.9.3-1.3 1-1 1.6.8 1.2 6 0 9.8-2.3l3.1-1.9h-3.2c-1.8 0-3.6-.6-4-1.4-.4-.7-1.9-1.9-3.2-2.6-2.2-1.1-2.3-1.1-1.6.6zM658.39 469.296c0 .5.7 1.2 1.6 1.5 1.4.5 1.5.4.4-.9-1.4-1.7-2-1.9-2-.6zM665.69 472.096c-4.2.4-5.4 1.5-3.3 2.8 1.3.8.3 4.3-1.8 6.7-1 1.2-1.1 1.8-.3 1.8.6 0 1.1.8.9 1.7-.2 1.3.5 1.9 2.7 2.1 4.2.5 6.2 2.6 6.8 7.5.3 2.3 1.1 4.3 1.6 4.5.6.2 1.1 1.5 1.1 2.8 0 1.4.5 4.5 1.1 7 .9 3.3.9 4.8-.1 5.8-1.5 1.9-.3 10.5 1.5 11.3 1.7.6 5.7-1.5 5-2.7-.3-.5-.1-1.1.4-1.4.5-.4 1.2-.2 1.6.4.4.6 1.1.8 1.6.5.5-.4 1.2.1 1.5.9.5 1.4.8 1.4 3-.1 1.3-.8 2.4-2.2 2.4-2.9 0-.8.5-1.4 1.1-1.4.8 0 .7-.5-.1-1.5-1-1.3-1-1.9.3-3.3 1.4-1.5 1.5-2.8.7-8.4-.6-3.7-.7-7.4-.4-8.3.8-2.1-2.7-5.8-7.7-8-4.1-1.9-4.9-3.2-2.5-4.1 2.9-1.1-.3-6.3-6.6-10.4-3.3-2.2-6-3.9-6.1-3.8-.1.1-2.1.3-4.4.5zM671.89 529.496c-.4.6-1.3.8-2 .6-.6-.3-1.9.3-2.8 1.4-1.6 1.8-1.6 1.9.2 1.9 1.1 0 2.6.3 3.5.6 1.1.4 1.6 0 1.6-1.2.1-1.8.1-1.8 1.1-.2.5.9 1.6 1.5 2.4 1.2 1.2-.5 1.2-.9-.2-3-1.7-2.6-2.8-3-3.8-1.3zM699.49 530.996c0 1.1.3 1.4.6.6.3-.7.2-1.6-.1-1.9-.3-.4-.6.2-.5 1.3zM134.39 591.396c0 .5.5 1 1.1 1 .5 0 .7-.5.4-1-.3-.6-.8-1-1.1-1-.2 0-.4.4-.4 1zM654.79 622.996c.3.9.6 1.8.6 2 0 .2.5.4 1.1.4.6 0 .8-.7.5-1.6-.5-1.3-.2-1.5 1.4-1.1 1.1.3 1.8.1 1.4-.4-.3-.5-1.7-.9-3.1-.9-1.9 0-2.4.4-1.9 1.6zM677.49 622.596c.1.7.5 2.4.9 3.8l.8 2.5.7-2.3c.4-1.2 1.4-2.2 2.1-2.2.8 0 1.4-.7 1.4-1.5 0-1-1-1.5-3-1.5-1.8 0-3 .5-2.9 1.2zM295.19 742.596c-.7 1.9.1 3.7 2.4 4.9 1.6.9 1.9.8 1.2-.3-.5-.7-.9-1.9-1.1-2.7-.3-2.2-2-3.4-2.5-1.9zM249.39 748.896c0 .8.5 1.5 1.1 1.5.5 0 .8.4.5.9-.3.5.1 1.4.9 2.1 1.3 1.1 1.2 1.6-.6 4.1-1.7 2.5-1.8 2.9-.4 2.9 2.5 0 3.8-4.7 2.3-8.6-1.2-3.5-3.8-5.4-3.8-2.9zM250.89 769.396c-1.1 1.6-3 3.4-4.3 4-1.5.6-2.2 1.6-1.8 2.5.3.8.1 1.7-.4 2-1.6 1-1.2 2.5.6 2.5.9 0 1.8-.9 2.1-2 .3-1.1 2.3-2.7 4.5-3.7 3.4-1.5 3.8-2 3.3-4.3-1-3.9-1.9-4.2-4-1zM193.39 774.896c-.7.9-1.1 1.7-.9 1.8 3.8 2.7 6.3 3.7 8 3.2 2.8-.9 2-3.9-1.1-4.3-1.4-.2-3-.8-3.6-1.3-.7-.6-1.6-.4-2.4.6zM215.39 779.496c0 .5-.5.9-1.1.9-1.6 0-3.9 2.6-3.9 4.4 0 .9-.7 1.6-1.5 1.6-1.1 0-1.5 1.1-1.5 3.9 0 3.4.3 3.8 1.9 3.4 1-.3 2.8 0 3.9.6 2.5 1.3 12.3-.6 13.5-2.6 1.6-2.6 5.1-1.3 7.9 2.7 1.5 2.2 3.5 4 4.3 4 2 0 1.9-.9-.5-4.5-2.5-3.7-2.5-5.2-.2-5.9 1-.3 1.8-1.7 1.9-3.2 0-1.5.6-3 1.2-3.4.7-.4.2-1.1-1.3-1.8s-2.8-.7-3.1-.2c-.3.5-1.1.7-1.8.4-.7-.2-1.7.6-2.2 1.8-.6 1.3-1.9 2.3-3 2.3s-2.6.4-3.3.8c-1.2.8-3.2-2.7-3.2-5.6 0-.8-.3-.7-.9.2-.7 1.1-1.5 1.1-4 .3-1.9-.7-3.1-.7-3.1-.1zM200.39 784.596c0 .5.7 1.6 1.5 2.4 1.3 1.4 1.7 1.4 3 0 1.2-1.1 1.2-1.6.3-2.2-1.8-1.1-4.8-1.2-4.8-.2zM257.79 1022.096c1 1.1 3.7 1.2 3 .2-.3-.5-1.2-.9-2.1-.9-.9 0-1.3.3-.9.7zM259.39 1025.396c0 .5.5 1 1.1 1 .5 0 .7-.5.4-1-.3-.6-.8-1-1.1-1-.2 0-.4.4-.4 1zM191.89 1131.496c-.4.6-.3 1.5.3 2.1.6.6 1.1.4 1.5-.6.7-1.8-.9-3.1-1.8-1.5zM542.69 1132.896c-.9 1-.9 1.6-.2 2 1.4.9 2.2 0 1.7-1.8-.2-1.3-.5-1.3-1.5-.2zM153.09 1141.396c.3 1.1.9 2 1.3 2 .5 0 .6-.9.3-2s-.9-2-1.3-2c-.5 0-.6.9-.3 2zM178.19 1145.096c.7.3 1.6.2 1.9-.1.4-.3-.2-.6-1.3-.5-1.1 0-1.4.3-.6.6zM172.59 1149.696c-1.2 1.3-2.2 3.4-2.1 4.8.1 2.1.2 2 1.6-1.1.8-1.9 2-3.8 2.6-4.2.6-.4.9-.9.6-1.2-.3-.3-1.5.4-2.7 1.7zM509.39 1151.496c0 .5-.4.8-.9.4-1-.5-2.7 1.3-1.9 2.1.6.6 5.8-1.9 5.8-2.9 0-.4-.7-.7-1.5-.7s-1.5.5-1.5 1.1zM170.39 1158.196c0 .5.7 1.7 1.6 2.8 1.5 1.8 1.5 1.8.5-.2-.6-1.2-.7-2.4-.4-2.8.3-.3.1-.6-.5-.6-.7 0-1.2.4-1.2.8zM502.39 1177.796c0 .2.8 1 1.8 1.7 1.5 1.3 1.6 1.2.3-.4s-2.1-2.1-2.1-1.3zM494.19 1184.596c-1 .6-.9.8.4.8.9 0 2.1.7 2.6 1.6.5.9 2.1 1.6 3.6 1.6 1.4 0 2.9.4 3.2.9 1.2 2 2.2.7 2.2-2.6v-3.6l-5.4.2c-2.9.1-5.9.6-6.6 1.1zM486.89 1187.396c-.3.5-.3 1 .2 1 .4 0 .2.4-.6.9-.7.5-.9 1.1-.4 1.4 1.5.9 4.7-1.8 3.9-3.1-.9-1.5-2.3-1.5-3.1-.2z"/></g></svg>