<?xml version="1.0" standalone="no"?>
<!DOCTYPE svg PUBLIC "-//W3C//DTD SVG 20010904//EN"
 "http://www.w3.org/TR/2001/REC-SVG-20010904/DTD/svg10.dtd">
<svg version="1.0" xmlns="http://www.w3.org/2000/svg"
 width="284.900992pt" height="294.500000pt" viewBox="0 0 284.900992 294.500000"
 preserveAspectRatio="xMidYMid meet">
<metadata>
Created by potrace 1.15, written by Peter Selinger 2001-2017
</metadata>
<g transform="translate(-867.520561,1108.000000) scale(0.100000,-0.100000)"
fill="#222222" stroke="none">
<path d="M9927 11058 c4 -22 4 -22 -8 -4 -11 18 -13 17 -23 -15 -9 -28 -19
-37 -59 -50 -26 -9 -53 -21 -59 -27 -7 -7 -21 -12 -32 -12 -10 0 -16 -3 -13
-7 4 -3 -9 -16 -30 -27 -31 -18 -39 -29 -51 -76 -16 -63 -28 -81 -48 -73 -8 3
-14 -1 -14 -10 0 -10 -7 -13 -20 -10 -20 5 -24 13 -21 46 3 23 -24 32 -62 21
-18 -6 -51 -7 -74 -4 -31 5 -44 3 -48 -8 -3 -8 -11 -12 -19 -9 -7 3 -19 0 -25
-6 -7 -7 -11 -7 -10 -2 1 6 -3 21 -9 35 -6 14 -11 19 -11 13 -1 -7 -8 -13 -16
-13 -8 0 -15 -6 -15 -14 0 -9 -19 -16 -57 -21 -32 -4 -66 -13 -77 -21 -11 -8
-37 -14 -57 -14 -30 0 -43 -7 -64 -32 -15 -18 -33 -33 -39 -34 -6 0 -26 -2
-43 -2 -23 -2 -33 -7 -33 -18 0 -8 -13 -27 -30 -40 -16 -14 -29 -28 -28 -32 1
-4 -2 -19 -6 -34 -7 -22 -14 -28 -37 -28 -26 0 -29 -4 -29 -31 0 -33 -18 -58
-37 -52 -6 2 -14 0 -17 -6 -4 -6 -13 -8 -21 -5 -10 4 -12 0 -8 -17 8 -30 36
-56 53 -51 15 5 72 -56 65 -68 -3 -4 16 -7 40 -6 43 1 49 6 46 34 -1 6 7 12
19 12 23 0 27 -18 6 -26 -8 -3 -14 -21 -14 -45 -1 -22 -5 -46 -9 -52 -5 -7 -9
-37 -9 -67 1 -42 5 -55 16 -55 8 -1 25 -6 37 -13 12 -7 32 -12 45 -12 13 0 29
-5 36 -12 9 -9 13 -6 20 11 l8 22 27 -21 c23 -18 41 -22 97 -22 54 0 70 -3 70
-15 0 -21 51 -68 59 -55 4 7 27 11 55 9 26 -1 50 1 52 5 3 4 0 8 -6 8 -8 0 -8
6 0 21 9 15 8 24 -2 36 -12 14 -11 15 8 5 14 -7 24 -8 31 -1 6 6 26 3 56 -10
27 -12 49 -16 52 -11 11 19 42 10 73 -20 18 -16 36 -30 42 -30 5 0 10 -6 10
-12 0 -17 55 -53 103 -68 44 -14 77 -60 43 -60 -8 0 -16 -8 -18 -17 -5 -21 68
-97 82 -88 6 4 10 1 10 -4 0 -6 14 -11 30 -11 28 0 30 2 20 23 -10 20 -9 20 9
-3 20 -24 20 -61 0 -68 -5 -2 -1 -18 8 -35 10 -18 18 -34 18 -37 4 -22 18 -50
25 -50 14 0 21 -33 9 -40 -8 -6 -7 -14 5 -31 14 -23 14 -28 -10 -77 -14 -29
-32 -52 -40 -52 -8 0 -12 -5 -9 -10 3 -6 -6 -15 -22 -21 -24 -9 -30 -7 -42 10
-13 20 -14 20 -42 -10 -19 -21 -36 -30 -48 -26 -21 5 -37 -28 -20 -39 25 -15
-27 -83 -65 -84 -12 0 -16 -5 -12 -16 3 -9 6 -20 6 -25 0 -5 7 -9 15 -9 8 0
15 -5 15 -10 0 -6 10 -21 23 -34 35 -36 61 -86 37 -71 -5 3 -10 1 -10 -4 0 -6
5 -11 10 -11 6 0 10 -5 10 -11 0 -6 -7 -9 -15 -5 -9 3 -15 0 -15 -10 0 -12 -6
-15 -24 -10 -18 4 -28 1 -35 -11 -8 -15 -12 -16 -22 -5 -22 21 -28 14 -22 -24
5 -28 2 -40 -11 -50 -10 -7 -15 -18 -11 -24 4 -7 1 -10 -8 -8 -30 6 -22 -17 9
-27 17 -6 38 -16 47 -23 9 -8 21 -11 27 -7 15 9 42 -15 36 -31 -3 -7 2 -27 10
-43 17 -34 12 -53 -11 -44 -8 3 -15 1 -15 -5 0 -15 22 -30 50 -34 21 -2 27
-12 40 -63 25 -91 37 -115 59 -115 27 0 45 -34 31 -59 -13 -25 -3 -51 20 -51
21 0 33 -13 63 -69 12 -24 35 -50 52 -59 16 -9 34 -23 40 -29 5 -7 32 -14 58
-15 26 -1 50 -5 53 -10 3 -4 15 -8 28 -8 12 0 26 -3 30 -7 4 -5 21 -8 38 -8
28 0 29 2 26 33 -3 22 0 32 9 32 10 0 11 4 1 19 -6 10 -17 17 -24 14 -7 -3
-23 2 -36 11 -18 13 -19 16 -5 16 23 0 57 35 57 59 0 11 6 22 13 24 7 3 5 6
-5 6 -10 1 -18 -4 -18 -10 0 -5 -4 -7 -10 -4 -17 10 -11 55 10 82 11 14 20 32
20 39 0 18 -61 19 -78 2 -10 -9 -16 -9 -28 4 -14 13 -14 17 -1 29 7 7 12 21 9
31 -2 11 8 32 27 53 17 20 31 44 31 55 0 12 8 20 22 22 20 3 21 4 5 20 -20 19
-22 64 -4 75 6 4 12 15 12 23 0 8 14 22 32 30 23 11 31 20 27 33 -4 11 0 17
10 17 10 0 16 9 16 24 0 60 13 87 56 117 30 20 44 37 44 52 0 18 12 28 54 47
30 13 57 32 59 41 3 13 11 16 27 12 19 -5 21 -3 16 15 -5 14 -1 24 10 30 10 6
19 23 20 38 2 16 5 50 9 76 3 26 2 49 -4 52 -5 4 -15 23 -22 43 -7 21 -22 45
-34 55 -21 16 -32 68 -15 68 12 0 30 -26 23 -33 -3 -4 1 -7 11 -7 9 0 30 -7
46 -15 26 -13 29 -13 33 3 3 12 11 3 25 -29 31 -66 56 -70 82 -12 l20 46 52
-7 c29 -4 56 -13 60 -19 6 -9 8 -9 8 1 0 6 7 12 15 12 11 0 15 12 15 50 0 32
4 50 12 50 9 0 9 3 1 11 -14 14 -2 28 40 46 15 7 27 19 27 28 0 8 4 15 9 15 5
0 7 9 4 20 -3 11 0 20 6 20 9 0 9 5 1 20 -9 17 -8 20 10 20 29 0 25 27 -11 62
-26 27 -29 35 -20 55 6 12 15 23 21 23 5 0 10 14 10 30 0 21 5 30 16 30 13 0
15 7 9 43 -4 23 -11 49 -16 58 -5 9 -7 36 -4 60 4 46 -1 63 -16 54 -5 -4 -5
-14 1 -26 14 -25 -2 -25 -18 1 -7 11 -8 20 -2 20 5 0 7 7 4 15 -4 8 -2 15 2
16 5 0 17 2 26 4 10 2 20 -1 24 -6 11 -18 24 -9 24 17 0 23 3 25 30 19 25 -6
29 -4 23 10 -4 11 0 21 10 27 12 6 17 22 17 49 0 32 5 41 24 50 19 9 29 8 47
-5 23 -16 69 -23 55 -8 -4 4 -11 7 -14 7 -4 1 -17 6 -30 13 -12 7 -34 11 -49
10 -21 -2 -30 3 -37 19 -6 13 -23 24 -43 28 -18 3 -33 12 -33 19 0 7 -18 27
-41 45 -22 18 -44 44 -49 57 -7 17 -17 24 -36 24 -14 0 -38 7 -52 15 -15 8
-39 19 -54 25 -16 5 -28 16 -28 25 0 9 -9 15 -23 15 -12 0 -39 11 -59 25 -20
14 -42 25 -47 25 -6 0 -20 9 -31 20 -11 11 -30 20 -43 20 -13 0 -34 11 -47 25
-13 14 -30 23 -37 20 -8 -2 -19 7 -26 22 -30 67 -119 112 -156 79 -23 -21 -37
-20 -68 4 -15 12 -34 18 -47 14 -13 -3 -47 9 -91 31 -51 27 -77 35 -98 31 -22
-4 -49 4 -108 35 -43 23 -79 45 -79 49 0 11 -29 40 -40 40 -4 0 -6 -10 -3 -22z
m-100 -2400 c-3 -8 -6 -5 -6 6 -1 11 2 17 5 13 3 -3 4 -12 1 -19z m471 -464
c-4 -21 -18 -27 -38 -14 -12 7 -11 12 5 30 20 22 39 14 33 -16z"/>
<path d="M11426 10323 c-4 -9 -1 -20 6 -25 10 -6 10 -8 -1 -8 -11 0 -11 -3 -1
-15 7 -9 15 -13 18 -10 3 2 11 -3 18 -13 12 -16 13 -15 14 6 0 12 -4 22 -9 22
-5 0 -11 14 -14 30 -7 33 -21 39 -31 13z"/>
<path d="M11483 10216 c4 -10 7 -21 7 -25 0 -4 9 -7 20 -7 17 0 18 3 6 20 -17
26 -42 35 -33 12z"/>
<path d="M11255 10190 c3 -5 8 -10 11 -10 2 0 4 5 4 10 0 6 -5 10 -11 10 -5 0
-7 -4 -4 -10z"/>
<path d="M11380 10165 c-11 -13 -66 -31 -82 -27 -24 6 7 -40 39 -56 12 -7 24
-25 28 -41 7 -32 32 -48 49 -31 15 15 30 12 17 -4 -9 -11 -8 -15 5 -20 24 -9
25 -4 9 28 -14 26 -14 28 3 21 34 -14 47 -11 44 13 -2 12 2 22 9 22 9 0 9 3 0
14 -10 11 -9 21 3 45 9 16 16 32 16 35 0 9 -54 3 -67 -7 -9 -6 -21 -4 -37 6
-21 14 -26 14 -36 2z"/>
<path d="M9643 9518 c-2 -5 -14 -8 -25 -8 -22 0 -47 -26 -48 -48 0 -11 67 -59
80 -56 3 1 11 -7 18 -18 7 -10 17 -16 21 -13 5 2 13 -6 19 -19 6 -14 21 -27
33 -31 30 -10 43 14 21 39 -9 11 -11 16 -4 12 9 -5 12 5 12 41 0 31 3 43 9 34
5 -7 11 -9 14 -4 7 11 -18 45 -31 41 -6 -2 -17 6 -25 16 -14 19 -84 29 -94 14z"/>
<path d="M10330 8508 c0 -9 7 -22 17 -29 15 -13 15 -12 3 11 -17 34 -20 36
-20 18z"/>
</g>
</svg>
