<?xml version="1.0" standalone="no"?>
<!DOCTYPE svg PUBLIC "-//W3C//DTD SVG 20010904//EN"
 "http://www.w3.org/TR/2001/REC-SVG-20010904/DTD/svg10.dtd">
<svg version="1.0" xmlns="http://www.w3.org/2000/svg"
 width="974.302370pt" height="1155.896577pt" viewBox="0 0 974.302370 1155.896577"
 preserveAspectRatio="xMidYMid meet">
<metadata>
Created by potrace 1.15, written by Peter Selinger 2001-2017
</metadata>
<g transform="translate(-512.452831,1610.896577) scale(0.100000,-0.100000)"
fill="#222222" stroke="none">
<path d="M5204 16099 c-4 -7 -21 -9 -46 -5 -36 6 -38 5 -29 -13 6 -10 17 -21
25 -24 9 -4 16 -23 18 -49 3 -42 4 -43 43 -48 22 -3 45 -9 52 -13 6 -4 14 -3
18 3 18 29 62 -1 148 -100 21 -24 57 -29 37 -5 -7 9 -10 27 -6 45 3 17 2 30
-3 30 -4 0 -13 11 -19 25 -6 14 -17 25 -23 25 -7 0 -35 21 -62 47 -30 28 -52
42 -55 35 -5 -17 -22 -15 -22 2 0 8 -13 24 -29 35 -34 24 -37 25 -47 10z"/>
<path d="M5870 15994 c0 -9 -13 -32 -30 -51 -16 -18 -30 -43 -30 -55 0 -17 -3
-19 -12 -10 -15 15 -49 -3 -42 -23 4 -9 0 -15 -9 -15 -9 0 -22 -3 -31 -6 -11
-4 -16 0 -16 14 0 20 -29 39 -39 25 -3 -4 -12 -8 -18 -9 -28 -2 -32 -5 -38
-24 -5 -16 -15 -20 -50 -20 -40 0 -43 -2 -38 -22 9 -41 26 -69 40 -64 22 9 57
-14 73 -47 8 -18 29 -38 45 -45 17 -8 45 -36 63 -63 17 -27 39 -49 46 -49 23
0 56 -50 56 -82 0 -23 13 -43 52 -82 28 -28 61 -61 72 -74 16 -18 28 -22 53
-18 26 4 36 0 48 -16 15 -22 11 -61 -8 -85 -6 -9 -6 -13 2 -13 7 0 10 -8 7
-18 -5 -13 1 -22 19 -30 18 -9 24 -9 19 -1 -4 8 0 8 15 0 11 -7 21 -15 21 -20
0 -10 51 -2 67 11 7 6 23 3 43 -7 37 -19 60 -7 60 32 0 13 7 26 16 30 8 3 13
11 10 18 -3 8 2 16 11 19 9 4 13 13 9 22 -4 11 1 18 14 21 11 3 20 12 20 20 0
8 7 21 15 29 21 22 20 56 -2 53 -23 -3 -69 16 -79 33 -5 7 -9 38 -10 68 -1 30
-5 66 -9 80 -4 14 -7 46 -6 73 2 53 -14 77 -50 77 -12 0 -36 11 -54 24 -17 13
-42 26 -56 28 -16 2 -34 19 -56 53 -17 28 -41 60 -52 73 -12 13 -19 27 -16 32
3 5 -4 12 -16 15 -32 10 -68 45 -86 82 -16 34 -43 45 -43 17z m375 -594 c-3
-5 -1 -11 5 -15 5 -3 10 -13 10 -22 0 -12 -3 -13 -13 -4 -8 6 -17 8 -20 4 -4
-3 -7 11 -7 32 0 32 2 36 15 25 8 -7 13 -16 10 -20z"/>
<path d="M5935 15970 c3 -5 10 -10 16 -10 5 0 9 5 9 10 0 6 -7 10 -16 10 -8 0
-12 -4 -9 -10z"/>
<path d="M7201 15294 c-14 -18 -27 -25 -40 -21 -28 7 -16 -14 22 -39 18 -11
31 -27 29 -36 -1 -9 13 -28 33 -43 19 -15 33 -31 30 -35 -9 -14 18 -61 32 -56
21 8 43 -35 43 -86 0 -26 5 -50 10 -53 18 -11 11 -21 -25 -38 -26 -13 -35 -23
-35 -42 0 -14 -9 -34 -21 -46 -23 -23 -39 -99 -21 -99 6 0 27 -16 46 -35 20
-19 43 -35 53 -35 10 0 30 -6 45 -14 22 -12 29 -12 38 -1 8 10 20 11 46 3 41
-11 64 -5 64 17 0 8 4 15 9 15 5 0 11 10 13 22 3 20 9 23 55 24 29 0 50 -2 48
-6 -9 -15 36 -18 79 -5 24 8 47 11 50 8 3 -3 11 6 17 21 12 26 33 34 44 16 15
-25 51 8 46 43 -1 4 6 7 14 7 9 0 12 6 9 15 -14 36 31 8 106 -65 34 -33 67
-60 75 -60 24 0 27 19 5 37 -29 25 -25 42 9 38 25 -3 28 -1 24 18 -5 18 3 14
39 -20 24 -24 49 -43 55 -43 6 0 16 -7 23 -15 10 -13 10 -19 -5 -35 -16 -17
-16 -21 -1 -42 9 -12 16 -32 16 -45 0 -12 5 -25 12 -29 7 -5 8 -3 3 7 -8 12
-6 12 8 0 16 -13 16 -14 0 -28 -10 -8 -12 -11 -4 -7 8 4 29 7 46 6 26 -1 34 3
39 21 3 13 0 25 -9 30 -13 7 -12 11 6 30 12 13 18 30 15 42 -3 11 -6 26 -6 32
0 7 -3 13 -7 12 -21 -3 -54 15 -49 27 3 7 -3 19 -14 27 -10 7 -22 25 -25 40
-4 15 -11 27 -16 27 -15 0 -10 26 6 40 9 7 14 19 11 26 -3 8 0 11 8 8 9 -3 13
4 13 23 0 30 8 67 18 83 3 6 0 10 -9 10 -8 0 -16 -5 -18 -12 -6 -16 -58 20
-58 41 0 9 -11 33 -24 52 -18 27 -22 39 -14 47 9 9 8 18 0 37 -10 23 -17 26
-41 20 -16 -3 -32 -2 -35 4 -4 6 -20 2 -42 -11 -31 -18 -35 -25 -32 -55 3 -40
-13 -54 -53 -46 -22 4 -28 1 -34 -17 -5 -15 -13 -20 -26 -17 -10 3 -19 1 -19
-4 0 -5 -7 -6 -17 0 -70 35 -87 38 -123 20 -40 -20 -68 -23 -90 -9 -12 8 -11
10 8 10 17 0 22 6 23 28 2 54 -3 77 -22 97 -19 19 -19 19 -19 0 0 -16 -7 -13
-38 18 -21 20 -46 37 -55 37 -9 0 -17 8 -17 17 0 15 -1 15 -13 -2 -11 -14 -21
-16 -43 -11 -16 4 -38 8 -49 10 -11 1 -20 9 -20 17 0 19 -87 63 -96 48 -5 -8
-9 -8 -14 1 -5 8 -12 7 -26 -6 -13 -12 -22 -14 -31 -7 -7 6 -25 13 -40 17 -21
5 -31 1 -47 -20z"/>
<path d="M6170 15061 c0 -11 -4 -21 -10 -21 -5 0 -10 -6 -10 -13 0 -7 -8 -20
-17 -29 -10 -9 -31 -35 -48 -58 -31 -44 -64 -69 -66 -50 -3 25 -4 29 -11 35
-3 4 -16 2 -27 -5 -15 -7 -27 -8 -40 0 -17 9 -19 7 -17 -14 1 -13 12 -36 24
-51 25 -32 28 -50 7 -42 -11 5 -13 0 -8 -26 3 -18 12 -45 19 -61 10 -21 11
-32 3 -37 -8 -4 -8 -12 -1 -25 8 -14 6 -24 -7 -40 -14 -18 -20 -19 -46 -8 -26
10 -32 9 -47 -8 -13 -16 -24 -19 -45 -13 l-28 7 24 -26 c24 -26 24 -26 5 -41
-10 -8 -21 -14 -24 -15 -9 0 -95 29 -87 29 4 1 2 7 -5 15 -18 19 -26 12 -52
-43 -22 -48 -63 -101 -78 -101 -5 0 -28 -21 -51 -46 -23 -26 -52 -57 -64 -69
-17 -16 -20 -24 -11 -33 9 -9 5 -12 -19 -12 -18 0 -35 5 -38 10 -13 21 -24 9
-13 -15 8 -18 14 -22 19 -13 6 9 10 8 15 -5 8 -21 -14 -50 -33 -43 -8 3 -11 1
-8 -4 3 -6 14 -10 23 -11 11 0 12 -3 5 -6 -18 -7 -16 -23 2 -23 8 0 15 -4 15
-9 0 -5 9 -11 20 -14 13 -3 20 0 20 9 0 17 66 48 85 40 7 -2 16 2 19 10 3 8
13 14 22 14 10 0 14 -5 11 -15 -8 -21 11 -29 30 -13 15 12 15 11 5 -8 -9 -18
-8 -24 4 -35 8 -7 12 -19 9 -28 -8 -20 -1 -13 29 32 14 21 26 44 26 52 0 22
33 51 53 47 9 -2 17 2 17 8 0 8 6 7 22 -1 18 -10 20 -9 14 6 -4 12 0 18 14 22
11 3 20 13 20 23 0 31 30 45 102 47 79 1 105 17 110 66 l3 31 38 -33 c21 -19
36 -40 33 -47 -10 -27 52 -36 81 -12 7 5 17 7 23 3 5 -3 16 -3 23 2 6 4 18 8
26 10 19 2 92 -47 85 -58 -3 -5 1 -9 9 -9 19 0 33 -17 52 -64 12 -28 13 -37 3
-35 -37 4 -68 -2 -68 -15 0 -18 -22 -26 -67 -26 -34 0 -35 -1 -29 -27 4 -16 8
-38 9 -51 2 -26 31 -52 58 -52 12 0 16 -6 12 -19 -3 -13 2 -23 16 -30 12 -7
21 -20 21 -30 0 -10 6 -24 14 -30 8 -7 17 -22 20 -35 6 -26 36 -43 46 -26 5 8
15 8 34 0 30 -11 47 -6 45 13 -1 7 -1 26 0 42 2 29 2 29 14 9 7 -12 17 -19 24
-17 6 2 14 -1 18 -6 3 -6 1 -11 -5 -11 -7 0 -10 -6 -7 -14 3 -7 1 -18 -5 -24
-8 -8 -6 -18 6 -37 9 -14 14 -30 10 -36 -4 -6 -1 -15 6 -19 17 -10 4 -30 -20
-30 -10 0 -20 -5 -22 -10 -4 -12 -58 10 -58 23 0 4 -9 7 -21 7 -12 0 -18 -4
-13 -11 5 -8 -12 -10 -60 -7 -36 2 -66 1 -66 -3 0 -10 51 -22 84 -20 34 3 47
-13 39 -51 -5 -24 1 -35 38 -68 27 -26 45 -36 50 -29 5 8 9 8 14 -1 4 -6 2
-17 -3 -22 -7 -7 -8 -18 -3 -27 5 -9 8 -38 7 -65 -2 -42 -6 -51 -30 -63 -26
-14 -30 -13 -49 6 -13 12 -16 21 -9 21 9 0 10 5 3 18 -6 11 -6 24 0 34 6 11 5
19 -1 23 -6 4 -8 15 -5 26 6 17 -3 24 -27 20 -4 0 -12 8 -18 19 -14 27 -40 14
-40 -20 0 -15 -7 -33 -15 -40 -8 -7 -15 -20 -15 -30 0 -20 -27 -46 -37 -36
-12 12 -43 -55 -43 -95 0 -45 -14 -79 -33 -79 -7 0 -13 -12 -14 -27 -1 -16 -4
-52 -6 -81 -2 -30 -9 -57 -16 -61 -9 -6 -9 -10 3 -20 13 -11 32 -63 24 -68 -2
-1 5 -8 16 -16 15 -11 16 -17 7 -34 -6 -12 -8 -35 -5 -51 5 -24 2 -30 -16 -35
-14 -4 -21 -12 -18 -24 2 -10 -4 -27 -14 -37 -17 -19 -18 -19 -38 -1 -23 21
-26 9 -5 -19 8 -11 15 -28 15 -39 0 -11 9 -21 20 -24 14 -4 19 -11 15 -23 -3
-9 1 -23 10 -30 9 -7 13 -21 9 -35 -4 -18 0 -24 20 -29 13 -3 28 -16 32 -29 4
-12 11 -25 16 -28 9 -6 6 -21 -25 -134 -15 -55 -20 -59 -55 -41 -31 16 -43 11
-54 -24 -4 -11 -8 -10 -23 7 -10 12 -24 19 -32 16 -7 -3 -23 3 -34 13 -11 10
-35 23 -54 30 -32 10 -35 10 -35 -7 0 -24 -21 -35 -34 -18 -6 8 -20 13 -30 11
-14 -3 -17 0 -13 13 4 9 3 14 -3 10 -6 -3 -10 -17 -10 -30 0 -13 -7 -30 -15
-39 -8 -8 -15 -23 -15 -32 0 -13 -3 -15 -11 -7 -15 15 -75 -20 -82 -47 -3 -13
-11 -18 -21 -14 -9 3 -16 1 -16 -5 0 -14 -37 -15 -45 -1 -3 6 -14 10 -23 10
-13 0 -13 -2 3 -14 18 -13 18 -13 -1 -24 -16 -10 -16 -11 -3 -12 22 0 30 -23
22 -61 -4 -21 -1 -34 8 -40 12 -7 10 -16 -10 -53 -22 -40 -28 -44 -53 -39 -27
5 -28 5 -28 -40 0 -35 -5 -49 -19 -56 -18 -10 -32 -51 -33 -98 0 -13 -4 -23
-8 -23 -12 0 -20 -43 -10 -54 4 -6 9 -15 10 -21 1 -5 6 -20 11 -32 5 -13 6
-29 3 -36 -3 -8 2 -20 11 -27 22 -18 19 -39 -5 -33 -11 3 -20 0 -20 -6 0 -5
-6 -8 -14 -5 -9 3 -17 -3 -21 -15 -3 -12 -11 -19 -16 -16 -5 4 -9 1 -9 -4 0
-15 11 -13 34 4 14 11 24 12 38 4 14 -8 28 -7 48 1 16 7 34 9 39 5 6 -3 11 1
11 10 0 14 3 14 28 2 15 -8 33 -12 40 -10 6 3 12 0 12 -7 0 -6 4 -8 10 -5 12
8 60 -42 60 -63 0 -8 6 -12 15 -9 8 4 17 2 20 -3 5 -9 19 -8 47 5 10 4 15 11
12 16 -8 13 12 11 53 -6 45 -19 69 -19 77 0 5 13 10 14 28 4 19 -10 25 -8 49
21 15 18 25 39 22 46 -7 19 11 18 27 -1 7 -9 29 -15 51 -15 21 0 41 -4 44 -10
3 -5 11 -10 16 -10 13 0 99 85 99 98 0 6 8 16 18 21 16 10 16 10 0 11 -10 0
-24 14 -33 30 l-16 30 36 0 c30 0 35 3 35 23 0 34 15 51 39 44 12 -3 21 -1 21
4 0 15 18 10 37 -10 10 -10 44 -30 76 -44 50 -23 58 -30 52 -47 -8 -27 33 -64
53 -48 9 8 17 7 30 -4 9 -8 34 -23 55 -33 21 -11 51 -32 67 -47 16 -14 38 -28
47 -30 10 -2 17 -9 16 -15 -2 -7 5 -12 15 -12 9 0 33 -4 52 -8 27 -7 36 -15
44 -42 9 -30 12 -32 43 -26 19 3 33 2 33 -4 0 -5 21 -19 48 -31 73 -33 77 -36
74 -56 -2 -18 -2 -18 13 0 14 19 15 18 15 -17 0 -20 -4 -37 -10 -37 -5 0 -10
-11 -10 -25 0 -14 -5 -25 -12 -25 -6 0 -3 -9 7 -20 10 -11 24 -20 30 -20 7 0
18 -7 25 -15 17 -20 60 -19 76 3 8 10 13 12 14 5 0 -7 7 -10 16 -6 8 3 13 11
11 17 -4 9 16 12 70 11 67 -2 78 1 99 22 13 12 30 23 39 23 8 0 15 8 15 17 0
9 3 13 7 10 4 -4 19 5 35 20 l28 27 48 -17 c54 -19 82 -22 82 -7 0 6 10 14 22
19 17 6 26 4 35 -8 18 -23 16 -31 -7 -31 -25 0 -25 -12 0 -35 11 -10 22 -26
26 -37 11 -37 41 -56 98 -63 52 -7 68 0 49 19 -7 7 -11 24 -14 61 -3 42 2 55
19 55 25 0 102 43 102 57 0 16 -12 17 -28 1 -8 -8 -15 -8 -24 0 -15 12 -16 12
-59 12 -28 0 -31 3 -25 23 7 27 -13 87 -29 87 -28 0 -96 102 -80 119 4 3 25
-4 47 -17 32 -17 44 -19 55 -10 11 9 20 7 41 -9 15 -10 35 -22 45 -26 9 -3 17
-13 17 -22 0 -8 5 -15 11 -15 8 0 8 -5 -1 -15 -10 -12 -10 -18 -1 -29 7 -8 11
-20 10 -28 -4 -24 13 -48 35 -48 18 0 21 -5 20 -42 -2 -55 3 -68 31 -78 14 -5
26 -21 30 -39 7 -33 65 -77 90 -67 8 3 16 -3 20 -15 7 -21 31 -26 37 -7 3 7
11 9 24 3 10 -4 23 -7 28 -6 16 4 26 -23 20 -54 -4 -25 0 -34 24 -52 21 -16
32 -19 40 -11 8 8 13 7 18 -6 5 -13 10 -14 20 -5 11 9 13 1 11 -45 -2 -47 0
-57 16 -62 14 -4 17 -12 13 -29 -4 -14 0 -27 9 -35 12 -10 15 -10 15 0 0 9 6
8 19 -4 13 -12 21 -14 26 -6 5 8 17 3 36 -16 16 -15 29 -23 29 -16 0 8 7 9 23
3 17 -7 29 -4 48 10 13 10 30 19 37 19 6 0 12 7 12 15 0 14 3 13 25 -1 20 -13
25 -13 25 -3 1 9 8 6 19 -9 13 -15 21 -18 23 -10 3 8 9 4 17 -10 6 -12 18 -22
26 -22 8 0 15 -7 15 -16 0 -10 6 -14 14 -11 22 9 26 -17 8 -57 -12 -27 -22
-36 -40 -36 -17 0 -23 -4 -18 -15 4 -12 0 -14 -22 -9 l-27 7 27 -29 c15 -16
30 -42 34 -59 4 -16 11 -35 16 -42 5 -7 6 -18 1 -25 -4 -7 -8 -22 -9 -33 -1
-11 -5 -29 -9 -40 -5 -11 -5 -17 0 -13 4 4 17 1 27 -7 11 -7 27 -11 34 -8 9 3
14 -1 14 -12 0 -9 5 -13 10 -10 6 3 10 -3 10 -14 0 -20 47 -61 72 -61 7 0 32
-11 54 -24 29 -17 46 -21 58 -14 17 10 71 -17 96 -47 7 -8 20 -15 29 -15 10 0
30 -13 46 -30 16 -16 37 -30 46 -30 21 0 59 -50 59 -77 0 -10 6 -27 14 -38 19
-29 26 -85 9 -85 -18 0 -16 -10 4 -32 13 -15 14 -21 5 -27 -9 -6 -7 -14 9 -35
11 -14 19 -33 16 -40 -3 -7 -2 -17 3 -22 4 -5 11 -23 14 -40 5 -24 3 -33 -8
-37 -11 -4 -16 -20 -16 -47 0 -42 -25 -94 -41 -84 -5 3 -19 -2 -31 -11 -18
-12 -23 -25 -23 -62 0 -45 -1 -46 -42 -60 -38 -13 -43 -18 -43 -46 0 -47 -11
-77 -26 -77 -19 0 -18 -15 2 -35 15 -15 15 -17 -1 -28 -19 -15 -18 -72 2 -72
17 0 38 -33 53 -83 11 -34 18 -42 37 -42 31 0 38 -22 19 -61 -18 -37 -6 -64
26 -56 10 3 20 2 22 -1 2 -4 23 -7 46 -6 38 1 44 -3 67 -38 14 -21 29 -38 34
-38 5 0 6 -7 3 -15 -4 -8 -2 -15 3 -15 6 0 15 -12 22 -27 9 -21 9 -28 0 -34
-10 -6 -10 -11 1 -24 8 -10 13 -34 11 -57 -2 -42 9 -58 42 -58 11 0 17 8 17
23 1 21 1 21 14 4 11 -14 15 -15 19 -5 4 9 6 10 6 1 1 -10 7 -10 26 -1 26 12
31 38 25 137 -1 22 2 31 9 26 7 -4 14 6 17 24 4 17 12 35 20 42 7 6 10 17 7
25 -3 9 2 15 16 16 12 0 27 1 34 2 13 1 27 43 30 90 2 27 27 52 27 27 0 -6 9
-11 20 -11 13 0 20 -7 20 -18 0 -10 5 -23 11 -29 16 -16 -6 -51 -37 -59 -19
-5 -22 -9 -13 -20 6 -7 7 -19 3 -25 -4 -7 3 -5 15 4 13 8 29 13 36 11 7 -3 16
-1 20 5 10 16 71 13 85 -4 7 -9 20 -15 29 -14 9 1 23 -1 31 -4 24 -9 94 -21
111 -19 25 2 48 -30 58 -82 5 -26 15 -52 23 -59 8 -7 22 -24 31 -39 10 -16 24
-28 32 -28 9 0 15 -9 15 -21 0 -16 4 -19 18 -14 22 9 112 26 182 34 30 3 60
10 67 14 7 4 38 9 69 10 40 2 60 8 70 21 9 14 20 16 43 11 18 -4 31 -3 31 3 0
5 7 13 17 16 11 5 25 -4 45 -28 16 -19 38 -38 51 -42 12 -3 28 -11 35 -17 17
-13 80 -18 87 -6 4 5 18 9 32 9 14 0 43 5 65 12 30 9 38 16 35 29 -4 13 3 20
24 24 16 4 31 11 34 16 4 5 15 9 26 9 10 0 19 7 19 15 0 19 14 19 30 1 12 -16
44 -10 34 5 -8 13 18 37 34 31 8 -2 24 6 37 18 14 13 31 20 39 17 19 -8 83 28
96 54 8 14 18 17 39 13 23 -5 32 -2 40 14 6 12 7 23 2 26 -5 3 -12 23 -16 43
-4 21 -22 54 -41 75 -34 38 -43 71 -24 83 20 13 9 46 -30 86 -22 23 -40 49
-40 58 0 9 -9 27 -20 41 -22 27 -20 28 -59 -28 -15 -22 -26 -17 -49 23 -10 18
-11 17 -12 -12 0 -17 -3 -38 -6 -47 -5 -13 1 -16 26 -16 25 0 31 -4 28 -17 -2
-10 -13 -22 -25 -28 -12 -5 -24 -16 -25 -23 -2 -10 -9 -9 -27 7 -22 19 -25 19
-36 4 -11 -14 -17 -11 -60 29 -43 41 -52 45 -85 41 -22 -3 -40 -1 -44 6 -12
18 -33 12 -39 -11 -5 -18 -8 -19 -22 -8 -10 8 -14 22 -11 34 6 24 -18 58 -51
75 -19 10 -23 20 -23 56 0 44 -17 95 -31 95 -4 0 -15 15 -24 34 -12 25 -24 36
-43 38 -32 4 -56 53 -33 67 11 7 12 22 5 67 -4 33 -7 76 -5 97 2 21 -1 43 -6
50 -14 19 -16 67 -4 81 14 17 4 46 -14 40 -15 -6 -35 25 -35 55 0 12 -13 27
-30 38 -17 9 -29 22 -27 27 2 5 -4 17 -14 27 -20 20 -14 67 10 86 15 11 14 12
-1 13 -9 0 -20 -4 -23 -10 -3 -5 -15 -10 -26 -10 -11 0 -19 -7 -19 -16 0 -11
-6 -15 -19 -11 -12 3 -22 -1 -25 -10 -5 -11 -10 -11 -26 -3 -12 6 -34 9 -50 5
-16 -3 -31 -2 -35 4 -3 6 -15 11 -26 11 -11 0 -18 -4 -14 -9 15 -25 -88 -7
-122 21 -7 6 -26 8 -43 6 -21 -3 -31 0 -34 11 -8 29 -6 180 3 185 5 3 7 36 4
73 -4 51 -10 72 -25 85 -16 14 -17 21 -8 38 7 13 8 26 2 33 -5 7 -12 24 -16
40 -4 18 -13 27 -25 27 -19 0 -101 71 -101 87 0 4 -22 32 -50 61 -27 29 -50
59 -50 65 0 7 -9 19 -20 27 -25 18 -27 34 -2 22 9 -5 35 -13 56 -16 33 -6 42
-4 55 13 16 20 17 20 57 2 23 -10 50 -28 61 -40 16 -17 27 -20 48 -15 14 4 29
13 32 20 3 9 10 11 22 5 38 -21 64 37 42 93 -5 14 1 27 25 51 23 23 31 39 29
59 -3 23 0 27 16 23 12 -3 19 0 19 8 0 20 42 5 47 -17 8 -26 20 -22 39 13 11
23 13 34 5 42 -6 6 -11 15 -11 19 0 15 18 8 48 -17 17 -14 35 -25 41 -25 17 0
13 31 -6 52 -11 13 -14 22 -7 26 13 9 35 71 26 73 -28 6 -49 2 -62 -13 -22
-26 -36 -10 -42 45 -4 37 -2 47 9 47 8 0 28 10 45 21 23 17 28 27 24 45 -5 19
-2 24 14 24 11 0 20 4 20 8 0 4 16 14 36 21 36 13 54 41 54 85 0 18 7 25 30
30 27 5 30 9 30 43 0 21 -11 60 -25 87 -18 36 -22 53 -15 67 6 11 7 27 1 42
-9 24 -5 126 6 157 12 32 8 65 -10 83 -14 14 -16 22 -7 32 9 10 9 19 0 35 -8
15 -8 25 0 35 13 16 3 91 -17 124 -11 17 -12 26 -4 34 6 6 11 21 11 34 0 13 4
23 9 23 17 0 40 57 28 69 -8 8 -6 11 8 11 18 0 17 1 -2 23 -24 26 -63 111 -63
138 0 11 -11 25 -25 31 -14 6 -25 17 -25 23 0 7 -6 17 -13 23 -8 7 -12 33 -11
72 1 54 5 65 33 94 20 20 29 39 26 48 -4 9 -2 19 3 22 6 3 2 21 -9 43 -10 21
-16 45 -13 55 3 10 0 18 -6 18 -6 0 -9 8 -6 18 4 12 -3 27 -19 42 -15 14 -25
18 -25 11 0 -9 -9 -12 -25 -9 -14 3 -33 -1 -42 -8 -24 -18 -27 -18 -60 9 -34
29 -90 42 -109 26 -11 -9 -18 -8 -29 1 -8 6 -13 15 -12 20 1 4 -9 17 -22 29
-21 19 -27 20 -39 8 -11 -12 -21 -12 -54 -2 -22 6 -46 18 -52 26 -16 21 -63
49 -81 49 -9 0 -18 -7 -21 -15 -5 -11 -11 -12 -24 -5 -12 7 -21 7 -25 0 -4 -6
-16 -3 -32 7 -34 23 -53 25 -53 6 0 -11 -7 -14 -24 -9 -14 3 -28 0 -35 -8 -12
-14 -57 -16 -78 -3 -9 5 -13 2 -13 -9 0 -12 -6 -15 -24 -12 -14 3 -30 1 -37
-3 -8 -4 -23 1 -37 12 -14 10 -28 19 -33 19 -4 0 -20 5 -34 10 -22 8 -25 13
-16 24 16 20 -12 29 -44 14 -20 -9 -28 -8 -43 5 -10 10 -26 17 -36 17 -9 0
-19 6 -21 13 -3 6 -18 12 -33 13 -44 1 -104 34 -99 54 5 20 -31 44 -81 55 -33
7 -82 63 -82 95 0 21 -64 70 -92 70 -13 0 -34 -7 -46 -16 -12 -8 -27 -12 -32
-9 -6 3 -10 1 -10 -4 0 -6 -8 -11 -18 -11 -10 0 -31 -13 -47 -30 -33 -34 -50
-38 -64 -12 -8 14 -23 17 -97 15 -48 -1 -90 -7 -94 -13 -4 -6 -13 -5 -26 5
-27 20 -30 19 -52 -18 -26 -44 -102 -64 -188 -48 -74 14 -73 14 -67 -8 4 -15
-1 -20 -19 -23 -12 -2 -23 -10 -24 -18 -1 -8 -2 -25 -2 -38 -2 -16 -7 -22 -19
-20 -14 2 -20 -8 -28 -53 -5 -31 -16 -63 -22 -71 -7 -8 -10 -18 -6 -21 3 -4 1
-12 -4 -19 -17 -22 -21 -57 -8 -68 10 -9 12 -27 6 -62 -2 -14 -17 -9 -42 13
-28 24 -84 55 -75 41 5 -8 -34 -32 -54 -32 -5 0 -12 10 -16 22 -6 21 -8 20
-40 -15 -19 -20 -34 -46 -34 -57 0 -12 -5 -17 -14 -14 -9 3 -17 -3 -21 -15 -3
-12 -13 -21 -21 -21 -8 0 -12 5 -9 10 3 6 -1 10 -10 10 -9 0 -15 3 -13 8 25
50 33 62 45 62 17 0 43 24 43 40 0 7 6 10 13 7 21 -8 39 7 31 26 -6 16 -24 22
-48 18 -18 -4 -125 41 -141 59 -13 15 -14 19 -1 29 10 8 16 9 21 1 3 -5 13
-10 21 -10 9 0 24 -10 34 -22 l18 -22 20 34 c21 33 21 34 1 61 l-19 28 26 3
c15 2 33 13 41 24 13 20 11 24 -17 52 -25 25 -29 36 -24 59 9 38 23 53 48 53
27 0 61 23 61 42 1 7 6 24 12 38 6 14 14 37 17 53 5 18 13 27 26 27 20 0 20 1
-1 30 -12 16 -25 27 -29 25 -10 -6 -35 24 -27 32 4 3 -2 16 -12 29 -14 18 -18
34 -14 64 4 29 1 45 -10 58 -18 20 -17 88 1 133 18 46 18 62 -3 74 -48 25 -73
48 -91 81 -19 35 -19 36 1 50 16 12 17 18 8 33 -7 10 -9 29 -6 41 4 16 3 21
-5 16 -7 -4 -12 -23 -12 -42 0 -36 0 -36 -37 -30 -115 18 -106 20 -139 -24
l-31 -40 -27 25 c-14 13 -26 31 -26 40 0 8 -12 21 -26 27 -29 13 -57 59 -49
81 3 7 -10 31 -30 52 -19 21 -37 47 -41 57 -4 12 -12 17 -23 13 -10 -3 -29 4
-44 15 -14 11 -32 20 -41 20 -8 0 -20 8 -25 19 -18 32 -111 35 -111 4 0 -10
-7 -14 -20 -10 -11 3 -20 1 -20 -4 0 -5 -9 -9 -19 -9 -11 0 -22 -4 -25 -9 -4
-5 -24 -12 -47 -16 -22 -4 -43 -13 -46 -21 -3 -8 -24 -19 -47 -25 -59 -16
-116 -41 -116 -50 0 -5 -18 -12 -39 -15 -26 -4 -50 -18 -72 -40 -18 -19 -39
-34 -47 -34 -8 0 -22 -8 -31 -17 -31 -34 -52 -27 -99 36 -16 20 -30 25 -88 30
-66 6 -69 7 -69 32 -1 14 -11 38 -23 53 -12 16 -19 32 -16 37 3 5 -1 9 -9 9
-7 0 -24 11 -37 25 -24 25 -73 34 -85 15 -11 -18 -30 -10 -48 20 -13 21 -26
30 -45 30 -15 0 -34 5 -42 10 -13 9 -13 11 0 20 8 5 23 10 33 10 17 0 17 2 3
22 -24 34 -19 40 20 23 56 -23 72 -20 66 12 -4 22 -2 25 12 20 10 -4 22 -7 27
-7 13 0 11 -44 -3 -59 -11 -11 -9 -11 9 0 27 16 45 53 36 75 -5 14 -3 15 14 5
19 -10 20 -8 19 34 0 25 -6 47 -13 49 -22 9 -2 38 23 33 16 -3 21 0 16 11 -3
8 3 21 12 28 14 10 16 16 6 34 -19 35 -2 36 30 2 33 -37 45 -40 37 -12 -4 17
-2 18 14 9 17 -9 22 -29 23 -89 0 -8 -3 -26 -7 -40 -6 -23 -3 -25 29 -26 27 0
41 -8 64 -35 16 -19 30 -41 30 -49 1 -24 23 -55 40 -56 8 -1 22 -3 30 -4 39
-6 60 1 60 20 0 11 6 20 14 20 24 0 27 16 16 66 -14 60 -29 82 -44 62 -6 -7
-17 -13 -23 -14 -7 -1 -19 -2 -26 -2 -8 -1 -18 -12 -24 -24 l-10 -22 -18 27
c-9 15 -23 27 -31 27 -7 0 -13 8 -13 18 -3 117 -26 163 -85 168 -17 2 -38 4
-46 5 -8 1 -22 8 -31 16 -15 12 -19 12 -30 -4 -30 -40 -115 -57 -139 -28 -7 9
-20 13 -28 10 -13 -5 -82 59 -82 76 0 10 -42 24 -55 20 -19 -7 -69 0 -82 11
-10 8 -13 6 -13 -11z m-144 -656 c-13 -41 -37 -46 -76 -15 l-25 20 28 0 c15 0
27 5 27 11 0 6 7 9 15 6 8 -4 17 -2 20 3 14 23 21 7 11 -25z m-416 -145 c0 -5
-2 -10 -4 -10 -3 0 -8 5 -11 10 -3 6 -1 10 4 10 6 0 11 -4 11 -10z m5050
-3039 c0 -5 -9 -7 -20 -4 -11 3 -20 7 -20 9 0 2 9 4 20 4 11 0 20 -4 20 -9z
m-684 -1589 c-4 -3 -14 2 -24 12 -16 18 -16 18 6 6 13 -6 21 -14 18 -18z m897
2 c14 -5 18 -14 15 -34 -3 -20 2 -29 19 -37 20 -10 23 -8 23 8 0 21 11 24 27
8 9 -9 8 -18 -4 -35 -9 -15 -13 -34 -9 -49 7 -27 -8 -35 -18 -10 -3 8 -11 15
-18 15 -9 0 -9 -3 0 -12 19 -19 14 -36 -10 -40 l-23 -3 21 -21 20 -20 -23 -11
c-28 -13 -34 -5 -33 44 0 21 0 50 0 64 0 14 -9 38 -20 52 -15 19 -18 31 -12
49 5 12 7 29 4 37 -3 9 0 11 9 7 8 -3 22 -9 32 -12z m-823 -15 c0 -5 -4 -9
-10 -9 -5 0 -10 7 -10 16 0 8 5 12 10 9 6 -3 10 -10 10 -16z m-323 -129 c0
-20 -4 -27 -11 -21 -6 5 -18 7 -26 6 -8 -2 -32 -6 -52 -10 -24 -4 -38 -3 -38
3 0 5 -10 12 -22 15 -12 4 -19 9 -15 13 4 4 17 2 30 -4 30 -16 78 -11 101 11
27 24 33 22 33 -13z m246 -156 c-3 -8 -12 -13 -20 -10 -8 3 -18 6 -21 7 -8 0
29 17 40 18 4 1 5 -6 1 -15z m123 -160 c-3 -8 -12 -14 -21 -14 -11 0 -15 10
-15 35 l0 35 21 -21 c11 -11 18 -27 15 -35z m-56 -84 c-19 -13 -42 -9 -48 8
-3 11 0 12 17 3 12 -7 21 -8 20 -4 -3 20 2 26 13 15 10 -10 10 -15 -2 -22z
m10 -81 c0 -5 -7 -6 -15 -3 -8 4 -15 13 -15 21 0 13 3 13 15 3 8 -7 15 -16 15
-21z"/>
<path d="M10845 9590 c3 -5 8 -10 11 -10 2 0 4 5 4 10 0 6 -5 10 -11 10 -5 0
-7 -4 -4 -10z"/>
<path d="M8160 14650 c-9 -6 -10 -10 -3 -10 6 0 15 5 18 10 8 12 4 12 -15 0z"/>
<path d="M6770 14605 c0 -8 5 -15 10 -15 6 0 10 7 10 15 0 8 -4 15 -10 15 -5
0 -10 -7 -10 -15z"/>
<path d="M5311 14306 c2 -2 15 -9 29 -16 23 -12 24 -12 11 3 -7 10 -20 17 -29
17 -8 0 -13 -2 -11 -4z"/>
<path d="M6360 14209 c0 -5 5 -7 10 -4 6 3 10 8 10 11 0 2 -4 4 -10 4 -5 0
-10 -5 -10 -11z"/>
<path d="M5508 14028 c-23 -28 -22 -34 1 -41 21 -5 41 9 41 30 0 7 6 13 13 14
6 0 3 4 -8 9 -28 12 -28 12 -47 -12z"/>
<path d="M5415 13919 c-4 -6 -5 -12 -2 -15 2 -3 7 2 10 11 7 17 1 20 -8 4z"/>
<path d="M5896 12508 c4 -12 1 -18 -10 -18 -20 0 -21 -14 0 -31 13 -10 17 -10
25 2 12 19 11 22 -6 45 -13 16 -14 16 -9 2z"/>
<path d="M5935 12440 c-3 -5 -1 -10 4 -10 6 0 11 5 11 10 0 6 -2 10 -4 10 -3
0 -8 -4 -11 -10z"/>
<path d="M5615 12140 c-3 -11 -3 -29 0 -41 l7 -21 24 23 c22 21 23 24 7 41
-21 23 -30 23 -38 -2z"/>
<path d="M5426 11562 c-2 -4 0 -14 6 -22 8 -12 9 -12 5 2 -3 9 -1 19 6 22 9 3
9 5 0 5 -6 1 -14 -3 -17 -7z"/>
<path d="M10932 11195 c-8 -17 -19 -25 -38 -25 -23 0 -26 -3 -22 -25 6 -28
-14 -50 -37 -41 -20 7 -19 1 7 -52 l21 -45 18 24 c10 13 19 29 19 34 0 13 58
65 72 65 5 0 7 19 5 43 -5 49 -27 61 -45 22z"/>
<path d="M10777 11083 c-4 -3 -7 -13 -7 -20 0 -12 3 -12 15 1 8 8 15 17 15 20
0 8 -15 7 -23 -1z"/>
<path d="M10771 11024 c0 -11 3 -14 6 -6 3 7 2 16 -1 19 -3 4 -6 -2 -5 -13z"/>
<path d="M10805 11010 c11 -5 27 -9 35 -9 13 -1 13 0 0 9 -8 5 -24 9 -35 9
l-20 0 20 -9z"/>
<path d="M10695 11000 c3 -5 15 -10 26 -10 10 0 19 5 19 10 0 6 -12 10 -26 10
-14 0 -23 -4 -19 -10z"/>
<path d="M10590 10162 c0 -14 11 -21 26 -15 8 3 11 9 8 14 -7 11 -34 12 -34 1z"/>
<path d="M12777 9668 c-13 -7 -17 -17 -13 -34 5 -19 3 -24 -14 -24 -11 0 -20
-4 -20 -10 0 -5 -9 -10 -20 -10 -24 0 -28 -44 -5 -57 12 -7 12 -13 2 -33 -10
-19 -19 -24 -40 -22 -15 2 -27 -1 -27 -7 0 -6 -5 -11 -12 -11 -22 0 -87 -35
-88 -47 0 -26 -30 -42 -68 -36 -35 5 -36 5 -17 -10 11 -9 16 -17 10 -18 -34
-6 -86 -5 -90 2 -3 4 -18 2 -35 -4 -22 -9 -27 -14 -18 -24 15 -19 3 -27 -21
-13 -18 9 -23 7 -33 -15 -6 -14 -16 -25 -22 -25 -15 0 -13 -49 2 -77 15 -27
15 -33 1 -33 -21 0 -67 -52 -62 -71 3 -11 1 -19 -4 -19 -5 0 -10 -11 -11 -25
-1 -14 -13 -43 -27 -65 -14 -22 -25 -45 -25 -53 0 -7 -7 -23 -16 -35 -9 -13
-13 -26 -10 -29 3 -4 6 -1 6 6 0 10 15 11 60 6 39 -5 60 -3 60 3 0 6 18 21 40
33 22 13 40 30 40 39 0 23 42 60 68 60 13 0 22 6 22 15 0 29 31 14 47 -22 11
-26 18 -33 20 -21 3 13 10 15 33 8 32 -9 49 -8 68 4 19 12 62 -2 81 -25 13
-16 23 -19 44 -14 22 6 28 14 33 45 5 30 13 41 35 50 16 7 29 16 29 21 0 5 9
9 19 9 18 0 36 25 32 44 -3 16 21 36 45 36 26 0 54 34 54 67 0 12 8 26 17 32
23 12 19 59 -8 106 -12 20 -16 35 -10 35 8 0 9 6 1 19 -8 16 -6 21 9 26 13 4
17 12 14 25 -3 11 0 20 6 20 16 0 13 30 -4 36 -9 4 -15 19 -15 36 0 28 -3 30
-27 25 -36 -7 -53 1 -53 24 0 11 -10 23 -24 29 -13 5 -28 16 -33 24 -6 11 -13
12 -26 4z m-167 -648 c0 -5 -2 -10 -4 -10 -3 0 -8 5 -11 10 -3 6 -1 10 4 10 6
0 11 -4 11 -10z"/>
<path d="M11020 9540 c0 -5 5 -10 11 -10 5 0 7 5 4 10 -3 6 -8 10 -11 10 -2 0
-4 -4 -4 -10z"/>
<path d="M12677 8919 c9 -9 8 -17 -3 -34 -9 -14 -12 -33 -9 -48 5 -17 2 -28
-8 -34 -9 -4 -17 -21 -19 -38 -2 -22 -9 -31 -26 -33 -12 -2 -20 -8 -17 -13 10
-15 -24 -23 -40 -9 -7 6 -22 10 -32 9 -10 -1 -31 4 -48 10 -22 10 -44 10 -85
3 -48 -8 -58 -7 -79 9 -19 15 -20 19 -7 19 10 0 15 4 11 9 -10 17 -49 6 -76
-21 -20 -20 -25 -33 -21 -57 3 -22 0 -33 -12 -37 -9 -3 -16 -15 -16 -25 0 -10
-7 -19 -15 -19 -9 0 -12 -6 -8 -16 5 -14 3 -15 -15 -5 -23 12 -30 3 -11 -16 9
-9 9 -20 -1 -42 -7 -17 -16 -31 -20 -31 -10 0 -45 40 -34 40 5 0 1 5 -9 11
-12 7 -16 17 -12 30 4 11 2 19 -5 19 -7 0 -9 8 -5 20 5 15 0 26 -17 40 -19 16
-20 19 -5 20 26 0 21 14 -25 60 -24 24 -42 49 -40 56 3 15 -61 48 -80 41 -7
-2 6 -10 30 -17 46 -15 48 -17 27 -44 -8 -10 -12 -23 -9 -28 7 -11 -36 -1 -98
23 -27 10 -48 14 -48 9 0 -6 -9 -10 -20 -10 -13 0 -20 -7 -20 -20 0 -10 -9
-24 -21 -31 -17 -8 -20 -17 -15 -40 3 -16 2 -29 -3 -29 -5 0 -11 -9 -14 -19
-5 -21 39 -71 62 -71 8 0 10 -7 6 -20 -3 -11 -2 -20 3 -20 5 0 23 -13 40 -29
21 -21 29 -36 25 -50 -3 -12 -1 -27 5 -34 8 -10 4 -19 -18 -37 -15 -13 -26
-29 -23 -36 8 -21 -6 -37 -22 -24 -8 7 -16 7 -19 2 -11 -18 27 -37 73 -37 45
0 46 -1 43 -30 -2 -16 -4 -42 -5 -57 -1 -16 -5 -28 -9 -28 -17 0 -6 -16 27
-39 26 -17 34 -29 30 -42 -6 -19 19 -66 33 -61 4 2 16 0 27 -4 11 -3 23 -6 27
-5 12 2 21 -48 15 -88 -2 -20 -1 -62 4 -92 9 -55 4 -93 -11 -84 -4 3 -13 -1
-19 -9 -7 -8 -21 -12 -31 -9 -12 3 -22 -1 -26 -11 -3 -9 -12 -16 -20 -16 -8 0
-11 -6 -8 -15 4 -9 0 -15 -10 -15 -9 0 -16 -4 -16 -10 0 -5 -11 -12 -25 -16
-30 -7 -34 -45 -10 -90 8 -16 15 -44 15 -63 0 -19 8 -43 17 -53 16 -18 16 -20
-4 -39 -18 -18 -24 -19 -43 -9 -21 11 -22 11 -17 -11 4 -15 0 -27 -11 -35 -15
-11 -15 -13 9 -22 15 -6 29 -18 33 -27 11 -28 7 -120 -6 -133 -9 -9 -8 -12 6
-12 10 0 23 -14 32 -36 14 -33 14 -37 -3 -50 -17 -14 -17 -15 2 -27 11 -7 35
-27 53 -44 30 -30 33 -37 27 -72 -6 -36 -4 -39 32 -61 21 -12 56 -29 77 -36
22 -8 54 -26 72 -39 36 -27 49 -32 38 -12 -4 6 4 1 19 -12 23 -21 55 -22 42 0
-4 5 -1 9 4 9 6 0 11 10 11 23 0 34 24 61 55 62 21 0 32 9 49 39 24 43 61 64
70 40 3 -8 12 -14 20 -14 8 0 21 -9 28 -19 8 -11 36 -26 63 -34 37 -10 51 -19
53 -34 2 -14 13 -23 32 -26 21 -5 36 -19 55 -51 28 -48 57 -65 80 -46 7 6 25
8 39 4 15 -4 43 1 67 10 40 16 42 16 56 -4 8 -11 23 -20 33 -20 23 0 70 62 52
68 -7 2 -12 9 -12 16 0 13 82 39 90 28 3 -4 14 -8 25 -10 11 -2 43 -28 71 -58
52 -56 82 -67 125 -44 15 8 30 6 67 -11 26 -11 67 -22 91 -23 27 -2 47 -8 52
-19 5 -8 53 -36 107 -62 53 -26 105 -52 116 -57 13 -7 21 -6 26 1 3 7 14 9 23
5 9 -3 25 3 37 14 18 17 20 24 10 42 -10 18 -9 21 7 18 16 -3 18 4 16 55 -2
57 -2 57 27 57 15 0 30 6 33 13 3 9 8 9 23 -3 10 -8 16 -10 11 -5 -4 4 1 17
10 27 9 10 17 34 17 53 1 34 2 35 33 29 26 -5 32 -2 38 16 4 11 2 26 -3 33
-11 13 -5 67 7 67 9 0 46 28 79 59 19 18 29 21 42 14 23 -15 64 21 66 58 2 41
30 79 59 79 15 0 26 7 30 20 3 11 15 25 26 30 10 6 19 18 19 26 0 11 6 14 16
10 12 -5 15 -2 9 11 -8 23 -8 24 0 50 4 13 11 21 15 18 5 -3 6 4 3 15 -3 11
-9 20 -13 20 -4 0 -11 11 -14 25 -4 14 -12 25 -19 25 -8 0 -24 11 -37 25 -20
21 -21 25 -6 31 10 4 16 17 16 35 0 19 5 29 15 29 9 0 18 8 21 18 3 9 13 34
21 54 13 30 14 51 6 113 -10 81 -4 98 27 70 12 -11 20 -13 25 -5 3 6 -4 19
-17 30 -13 11 -18 19 -11 20 6 0 15 -5 18 -10 4 -6 11 -8 16 -4 6 4 4 13 -6
24 -9 10 -14 24 -10 30 4 6 1 18 -6 26 -8 10 -9 18 -3 22 15 10 25 42 13 42
-6 0 -18 -18 -27 -41 -14 -37 -17 -39 -28 -24 -7 10 -30 20 -51 22 -21 3 -47
6 -58 7 -26 3 -34 66 -9 66 13 0 15 6 9 33 -4 17 -8 39 -10 47 -7 44 -19 76
-32 87 -15 12 -9 38 6 28 17 -10 -3 52 -25 78 -13 16 -24 32 -24 35 0 4 -14
13 -30 21 -17 7 -29 18 -27 25 3 6 -5 21 -16 34 l-20 22 21 0 c15 0 20 5 16
15 -4 8 -12 15 -19 15 -7 0 -15 9 -18 20 -3 12 -14 20 -26 20 -13 0 -30 14
-45 38 -13 20 -38 50 -55 67 -31 29 -31 29 -74 14 -33 -13 -43 -21 -45 -42 -2
-15 -10 -27 -18 -27 -8 0 -14 -7 -14 -14 0 -12 -6 -13 -29 -5 -17 6 -35 16
-40 23 -13 16 -61 9 -61 -9 0 -6 -13 -12 -30 -13 -22 0 -35 6 -47 24 -8 14
-40 36 -70 50 -30 15 -57 32 -60 40 -7 19 -33 18 -33 -2 0 -11 -5 -14 -17 -9
-50 20 -69 15 -42 -12 7 -7 6 -12 -5 -16 -8 -3 -18 -2 -21 4 -4 5 -11 7 -16 4
-5 -4 -9 4 -9 17 0 13 -7 34 -16 46 -13 19 -22 22 -45 17 -23 -5 -28 -3 -24 8
4 10 -12 22 -53 40 -33 15 -65 34 -73 43 -7 8 -25 22 -41 30 -34 17 -68 50
-68 64 0 5 -9 14 -20 20 -17 9 -20 8 -20 -10 0 -23 -38 -28 -58 -8 -9 10 -16
9 -29 -4 -14 -14 -14 -20 -3 -33 16 -19 10 -26 -17 -19 -12 3 -24 17 -27 30
-4 13 -11 24 -18 24 -6 0 -26 11 -45 26 -18 14 -37 23 -42 19 -11 -6 -61 15
-61 27 0 4 -5 8 -12 8 -9 0 -9 -3 -1 -11z m-509 -519 c0 -25 -3 -35 -5 -23 -2
13 -16 32 -31 44 -18 15 -23 23 -14 26 7 3 18 11 25 18 17 18 26 -6 25 -65z
m347 -1220 c3 -5 1 -10 -4 -10 -6 0 -11 5 -11 10 0 6 2 10 4 10 3 0 8 -4 11
-10z m55 -53 c0 -5 -4 -5 -10 -2 -5 3 -10 14 -10 23 0 15 2 15 10 2 5 -8 10
-19 10 -23z m-58 -39 c-7 -7 -12 -20 -12 -30 0 -24 -16 -23 -23 2 -3 13 0 20
9 20 8 0 14 5 14 10 0 6 5 10 12 10 9 0 9 -3 0 -12z m568 -218 c0 -5 -2 -10
-4 -10 -3 0 -8 5 -11 10 -3 6 -1 10 4 10 6 0 11 -4 11 -10z m10 -24 c0 -2 -7
-6 -15 -10 -8 -3 -15 -1 -15 4 0 6 7 10 15 10 8 0 15 -2 15 -4z"/>
<path d="M11997 8843 c-12 -12 -7 -22 8 -17 8 4 15 10 15 15 0 11 -14 12 -23
2z"/>
<path d="M12160 8815 c0 -21 42 -45 68 -38 25 6 26 11 8 36 -17 21 -76 24 -76
2z"/>
<path d="M14525 7992 c-4 -4 -11 -7 -16 -7 -19 0 -9 -20 12 -23 12 -2 19 1 15
6 -3 6 2 12 11 14 16 3 16 4 1 10 -9 4 -19 4 -23 0z"/>
<path d="M13720 6501 c0 -5 -12 -23 -26 -40 -26 -32 -30 -48 -18 -94 5 -21 3
-28 -7 -27 -8 1 -24 -1 -37 -5 -19 -6 -22 -13 -18 -31 4 -15 2 -24 -5 -24 -8
0 -8 -5 1 -15 15 -18 9 -28 -12 -20 -9 4 -14 14 -11 23 2 9 -3 26 -11 37 -9
12 -15 15 -16 7 0 -7 -5 -10 -10 -7 -6 4 -24 11 -41 15 -24 7 -30 6 -26 -4 3
-8 0 -19 -6 -25 -8 -8 -7 -11 5 -11 31 0 38 -24 18 -58 -22 -36 -32 -39 -50
-17 -14 17 -60 20 -60 4 0 -8 -5 -8 -15 1 -12 10 -15 10 -15 -3 0 -8 -4 -17
-9 -19 -13 -5 6 -48 25 -55 9 -3 19 0 24 6 10 18 15 18 33 3 13 -11 16 -10 22
8 6 20 7 20 25 -2 l19 -23 1 23 c0 13 6 22 15 22 9 0 15 9 15 25 0 21 5 25 28
25 15 0 38 3 52 6 17 4 21 3 12 -4 -11 -8 -11 -18 2 -62 11 -36 13 -58 6 -70
-14 -27 -12 -34 6 -19 16 13 33 16 119 22 38 2 57 9 79 30 16 14 32 24 37 21
5 -3 29 9 53 25 25 17 54 31 65 31 42 0 23 32 -64 109 -33 30 -36 35 -20 41
17 6 18 7 1 13 -10 4 -21 5 -26 2 -4 -2 -38 29 -76 70 -66 72 -84 86 -84 66z
m90 -141 c0 -5 -5 -12 -11 -16 -15 -9 -83 -15 -75 -7 3 4 2 11 -3 17 -6 8 6
12 40 13 27 1 49 -2 49 -7z"/>
<path d="M14016 6393 c-12 -17 -26 -23 -44 -21 -36 4 -41 -25 -9 -54 13 -13
27 -32 31 -42 5 -15 9 -17 18 -8 20 20 27 13 26 -25 0 -21 4 -50 10 -65 9 -23
18 -28 46 -28 42 0 59 -20 66 -79 4 -39 9 -47 29 -49 13 -2 29 -8 35 -13 42
-35 63 -57 74 -79 7 -14 11 -18 9 -10 -5 19 36 57 42 39 2 -7 -4 -18 -15 -26
-17 -12 -16 -14 12 -41 36 -36 65 -47 75 -30 4 7 12 9 16 4 12 -12 -28 -37
-49 -30 -12 4 -18 0 -18 -11 0 -8 -11 -21 -25 -27 -18 -8 -23 -17 -20 -32 2
-12 6 -37 10 -58 3 -20 12 -39 21 -42 22 -8 14 -52 -8 -48 -11 2 -18 -3 -18
-13 0 -9 -12 -27 -27 -41 -23 -21 -25 -27 -13 -34 10 -6 18 -5 25 3 6 6 23 11
39 9 17 -2 26 0 22 7 -4 5 5 21 19 35 14 14 25 34 25 44 0 11 6 25 14 31 10 8
12 24 9 51 -5 37 -4 40 18 40 13 0 30 -9 37 -20 16 -26 62 -24 62 3 0 10 4 16
9 13 11 -7 23 22 15 35 -3 5 -2 18 1 29 5 16 15 20 55 20 27 0 52 5 56 11 3 6
15 9 25 6 12 -3 19 0 19 10 0 10 9 14 28 13 59 -4 82 0 82 15 0 8 4 15 8 15 4
0 8 18 9 40 2 31 -2 40 -18 45 -11 4 -18 9 -15 12 3 3 -5 14 -18 24 -23 18
-40 75 -25 85 11 6 1 52 -17 80 -9 13 -20 22 -24 19 -5 -3 -12 -1 -15 5 -4 6
-37 25 -73 41 -64 30 -67 30 -95 14 -27 -16 -29 -16 -34 4 -7 29 -58 55 -81
42 -13 -7 -25 -4 -48 14 -33 25 -54 21 -51 -10 1 -11 -3 -20 -8 -20 -6 0 -21
-10 -35 -22 -30 -29 -36 -29 -63 0 -17 19 -30 23 -58 20 -30 -4 -37 -1 -47 21
-7 16 -20 26 -32 26 -12 0 -31 16 -48 38 l-28 39 -18 -24z m64 -67 c0 -2 -3
-11 -6 -20 -9 -23 -24 -20 -24 4 0 11 7 20 15 20 8 0 15 -2 15 -4z m254 -301
c6 -17 -9 -29 -24 -20 -5 3 -10 15 -10 25 0 22 25 18 34 -5z m136 -176 c0 -6
-4 -7 -10 -4 -5 3 -10 11 -10 16 0 6 5 7 10 4 6 -3 10 -11 10 -16z"/>
<path d="M13336 6252 c-2 -4 -1 -14 5 -22 7 -12 9 -10 9 8 0 23 -5 28 -14 14z"/>
<path d="M13260 6240 c0 -5 6 -10 14 -10 8 0 18 5 21 10 3 6 -3 10 -14 10 -12
0 -21 -4 -21 -10z"/>
<path d="M13280 6188 c0 -30 0 -31 20 -13 15 14 17 21 9 32 -19 22 -29 15 -29
-19z"/>
<path d="M13280 6125 c0 -8 4 -15 9 -15 4 0 19 -21 32 -47 13 -27 25 -50 27
-53 2 -2 7 2 12 10 8 12 13 13 30 2 11 -7 20 -8 20 -3 0 13 79 31 86 19 3 -5
0 -23 -6 -39 -10 -23 -10 -33 -1 -42 6 -6 11 -30 11 -52 0 -29 6 -47 20 -60
11 -10 20 -25 20 -34 0 -11 4 -9 16 7 8 12 13 31 9 41 -3 11 -1 22 5 26 5 3
10 16 10 28 0 16 3 18 12 9 7 -7 19 -12 27 -12 8 0 23 -8 33 -17 13 -11 22
-13 29 -6 13 13 -7 30 -41 35 -14 1 -26 9 -26 16 -1 6 -3 24 -4 40 -1 18 -4
21 -7 10 -5 -20 -28 -24 -38 -8 -4 6 -11 8 -16 5 -5 -4 -9 2 -9 12 0 10 -7 30
-14 45 l-15 28 37 -5 c20 -2 31 -2 25 1 -7 3 -13 12 -13 19 0 19 -36 28 -123
30 -53 1 -77 -2 -74 -9 24 -65 11 -77 -25 -22 -28 42 -58 63 -58 41z m116 -52
c-10 -10 -19 5 -10 18 6 11 8 11 12 0 2 -7 1 -15 -2 -18z"/>
<path d="M13590 6020 c0 -5 4 -10 9 -10 6 0 13 5 16 10 3 6 -1 10 -9 10 -9 0
-16 -4 -16 -10z"/>
<path d="M14250 5881 c0 -6 -7 -11 -16 -11 -22 0 -12 -21 14 -31 19 -7 22 -5
22 16 0 13 -4 27 -10 30 -5 3 -10 1 -10 -4z"/>
<path d="M14261 5784 c0 -11 3 -14 6 -6 3 7 2 16 -1 19 -3 4 -6 -2 -5 -13z"/>
<path d="M13525 5750 c-11 -4 -30 -22 -43 -39 -12 -17 -29 -31 -37 -31 -11 0
-14 -7 -9 -25 5 -20 3 -25 -14 -25 -13 0 -22 -9 -26 -25 -4 -14 -13 -25 -21
-25 -8 0 -15 -3 -15 -7 1 -11 26 -43 33 -43 4 0 16 -8 27 -17 11 -10 26 -18
33 -18 7 0 38 24 70 54 64 61 72 92 36 142 -13 18 -18 36 -14 49 3 11 5 20 3
19 -2 0 -12 -4 -23 -9z"/>
<path d="M14252 5748 c8 -24 -34 -36 -71 -21 -31 13 -35 13 -52 -6 -19 -20
-19 -21 1 -33 11 -7 20 -18 20 -25 0 -7 5 -13 10 -13 6 0 10 -7 10 -16 0 -8
-5 -12 -11 -9 -6 4 -9 0 -7 -10 2 -13 -5 -18 -24 -21 -16 -1 -36 -5 -47 -9
-10 -3 -38 1 -62 10 -62 21 -89 20 -89 -5 0 -13 10 -24 25 -30 32 -12 32 -20
0 -20 -14 0 -37 11 -50 24 -13 14 -32 26 -42 28 -10 2 -24 15 -31 30 -14 30
-62 68 -86 68 -8 0 -20 8 -26 18 -9 13 -10 7 -6 -30 4 -38 3 -48 -9 -48 -20 0
-19 -33 1 -72 12 -23 13 -33 4 -38 -7 -4 -11 -26 -9 -53 2 -26 0 -49 -4 -53
-3 -4 -2 -14 3 -24 11 -20 4 -30 -21 -30 -16 0 -17 -3 -7 -25 6 -14 15 -25 21
-25 5 0 7 -7 4 -14 -7 -17 20 -76 34 -76 5 0 9 -14 9 -31 0 -39 48 -122 66
-115 8 3 14 -1 14 -10 0 -10 -6 -14 -15 -10 -12 4 -15 -5 -15 -47 0 -65 -11
-79 -52 -63 -25 9 -31 8 -39 -6 -9 -16 -13 -17 -44 -3 -29 11 -35 12 -35 1 0
-19 -25 -27 -39 -13 -8 8 -11 8 -11 -2 0 -9 -8 -11 -25 -7 -14 4 -25 2 -25 -4
0 -5 -11 -12 -25 -16 -14 -3 -25 -9 -25 -13 0 -7 -47 -30 -123 -60 -25 -10
-31 -8 -47 11 -21 26 -35 20 -25 -12 8 -25 57 -48 63 -30 5 14 52 -28 52 -47
0 -7 5 -13 10 -13 6 0 10 -5 10 -11 0 -5 -4 -8 -9 -5 -5 3 -11 -3 -14 -14 -7
-26 47 -70 87 -70 17 0 40 -7 50 -15 25 -19 65 -19 91 1 19 14 19 15 -3 20
-12 4 -22 10 -22 15 0 10 53 0 58 -11 1 -4 9 -16 16 -26 14 -18 15 -18 35 6
11 14 19 30 16 37 -2 6 11 14 31 18 19 3 38 13 41 20 4 11 10 12 25 4 11 -6
31 -8 46 -4 28 7 112 -14 112 -28 0 -5 7 -6 16 -3 17 6 64 -20 64 -37 0 -6 -7
-18 -16 -28 -37 -41 9 -46 88 -11 38 17 51 30 70 69 15 31 28 47 38 44 52 -13
62 -13 58 0 -2 7 -15 16 -27 19 -40 9 -27 25 34 40 33 9 60 21 63 30 3 8 10
21 16 29 6 8 11 24 11 35 0 14 7 22 21 24 12 2 30 12 40 23 9 10 23 19 30 19
7 0 18 10 25 21 6 12 23 32 38 45 22 19 26 31 26 73 0 49 0 50 22 36 29 -20
50 -19 61 2 6 10 24 17 48 17 34 2 39 5 46 34 7 26 4 38 -19 71 -16 22 -33 40
-39 41 -6 0 -22 20 -35 46 -22 42 -23 46 -7 55 13 7 16 17 12 38 -3 16 -1 37
4 48 9 15 6 22 -10 32 -19 12 -20 11 -15 -9 4 -16 0 -23 -20 -31 -21 -8 -29
-6 -45 11 -10 11 -27 20 -38 20 -10 0 -22 5 -25 10 -17 28 -77 -1 -82 -40 -7
-50 -21 -84 -37 -94 -28 -16 -56 -44 -56 -56 0 -16 -21 -12 -43 8 -18 14 -20
15 -15 1 4 -9 -2 -23 -14 -33 -18 -16 -22 -16 -44 -1 -14 9 -29 13 -35 9 -8
-4 -8 0 0 14 9 17 8 22 -9 27 -10 3 -33 -1 -50 -10 -25 -13 -34 -13 -53 -3
-17 10 -19 13 -6 16 15 3 30 26 43 65 3 9 14 17 24 17 16 0 19 6 17 33 -3 30
1 35 31 46 19 7 37 10 42 8 4 -3 15 1 25 8 15 11 17 17 7 34 -11 22 -11 22 33
35 7 2 19 16 27 32 8 16 18 31 22 34 14 11 -6 62 -36 95 -33 36 -51 45 -44 23z"/>
<path d="M14635 5573 c12 -61 16 -73 25 -73 6 0 10 11 10 24 0 13 6 27 13 30
8 3 6 9 -7 20 -26 21 -45 20 -41 -1z"/>
<path d="M14405 5500 c3 -5 13 -10 21 -10 8 0 12 5 9 10 -3 6 -13 10 -21 10
-8 0 -12 -4 -9 -10z"/>
<path d="M14195 5339 c-4 -6 -4 -13 -1 -16 3 -4 6 -1 6 6 0 7 5 9 12 5 7 -4 8
-3 4 4 -9 15 -13 15 -21 1z"/>
<path d="M13120 4845 c0 -25 -3 -27 -30 -22 -16 4 -32 2 -36 -4 -3 -6 -18 -7
-34 -4 -32 7 -82 -3 -75 -15 3 -5 56 -8 119 -7 88 1 113 4 109 14 -4 9 0 11
11 7 9 -3 27 -3 41 0 40 10 17 41 -32 42 -21 0 -46 4 -55 8 -15 7 -18 3 -18
-19z"/>
<path d="M13360 4705 c0 -8 5 -15 10 -15 6 0 10 7 10 15 0 8 -4 15 -10 15 -5
0 -10 -7 -10 -15z"/>
<path d="M13605 4560 c3 -5 8 -10 11 -10 2 0 4 5 4 10 0 6 -5 10 -11 10 -5 0
-7 -4 -4 -10z"/>
</g>
</svg>
