<svg version="1" xmlns="http://www.w3.org/2000/svg" width="911.757" height="788.28" viewBox="0 0 683.818 591.21"><g fill="#222"><path d="M74.029 1.31c-1.5 1.4-2.8 1.8-5.2 1.3-2.4-.4-3.7-.1-5.3 1.5-1.8 1.8-1.9 2.2-.5 3.5.9 1 1.2 2.4.8 4-.4 1.9-.2 2.8 1 3.2 2.3.9 2 2.7-.4 2.1-1.7-.4-2-.2-1.5 1.4.4 1.2.2 1.9-.7 1.9-.8 0-2 1.6-2.7 3.5-.9 2.7-2 3.7-4.2 4.2-3.4.6-3.4.5-1.4 4.4.9 1.6 1.3 3.4.9 4-.4.6-.2 1.4.4 1.8 1.1.6 1.5 3 1.3 7.3-.1 2.2-.6 2.8-2.4 2.8-2.4 0-7.5 5-6.9 6.9.2.6-.3 1.1-1.2 1.1-.9 0-1.6.6-1.6 1.4 0 .8-.7 1.7-1.6 2-1 .4-1.3 1.3-.9 2.6.4 1.2.1 2.7-.5 3.5-.8 1-.9 1.5-.2 1.5 2.1 0-1 6.4-4.5 9.4-2.5 2.1-3.1 3.1-2.3 4.1.7.9.6 2.3-.6 5-.9 2.3-1.2 4.1-.6 4.7.5.5.2 2.4-1 4.7-1.6 3.3-2.3 3.8-4.9 3.5-3.7-.5-7.1-2.2-6.4-3.4.3-.5.1-1.1-.4-1.4-1.6-1-1.7 3.8-.1 5.1 1.2 1.1 1.3 1.4.1 2.2-.7.5-.9 1.1-.4 1.4.6.4 1.9 0 2.9-.8 3.4-2.6 5-1.9 4.6 1.9-.3 2.6.3 4.3 3 7.8 1.8 2.4 4.4 6.3 5.8 8.6 1.6 2.7 3.6 4.5 5.8 5.3 2.8.9 6.3 4.7 4.7 5-.3.1-.8.2-1.3.3-.4 0-2.4 1.9-4.4 4.1l-3.6 4 3.9 3.5c2.4 2.2 3.9 4.4 3.9 5.8 0 1.9.4 2.3 1.8 1.7 4-1.7 6.2-1.8 6.2-.1 0 1.6-1.9 5.7-3.2 6.6-.3.3-.6 2.1-.5 4 .2 2.8-.2 3.5-1.5 3.4-1-.1-1.8.4-1.8 1.2 0 .8.5 1.4 1 1.4.6 0 1 .4 1 .9 0 .6-1.2.6-3.2 0-1.8-.5-3.6-.9-4-.9-1.7 0-.7 3.2 1.6 5.3 2.5 2.4 4.5 8 3.8 11-.3 1.5-1.1 1.8-3.2 1.5-1.7-.3-2.8 0-2.7.6.1.6-.8 1.2-2.1 1.4-1.5.2-2.2.9-1.8 1.7.6 1.7-3.9 5.5-6.5 5.5-1 0-2.2.7-2.7 1.5-.7 1.3-1.4 1.4-3.5.6-1.6-.6-2.7-.7-2.7-.1 0 .5-.7.7-1.6.3-1.4-.5-1.5-.3-.5 1.5 2.1 4 1.3 5.7-3.3 7.4-3 1.1-4.6 1.3-4.8.6-.2-.6-1.3-.8-2.7-.3-1.6.5-2.1 1.2-1.8 2.6.4 1.4-.1 2.1-1.9 2.5-1.9.5-2.2.9-1.3 2 .6.7.8 1.8.4 2.4-1 1.6 1.8.7 3.2-1 1.1-1.3 1.2-1.3 1.3.2 0 1-.1 2-.2 2.3-.2.2.6 1.1 1.7 1.9 1.7 1.3 1.8 1.8.7 3.6-1.6 2.7-1.3 3 3.2 3.5 3.3.3 3.6.1 3.6-2.2 0-2.1.4-2.4 2-2 1.7.4 2.2 0 2.7-2.3.5-2.8.7-2.9 4.9-2.3 4.8.6 4.9.5 4.4-6-.1-2 .3-2.7 1.7-2.7 2.4 0 12.9-9.9 13.8-13 .4-1.4 1.5-3.4 2.5-4.5.9-1.1 3.3-4.7 5.3-8 4.6-7.7 9.6-11.8 14-11.3 2.7.3 3.3-.1 4.1-2.5.7-2 .7-3.4-.2-4.7-1.6-2.6-1.5-3 .6-3 1.5-.1 1.5-.3-.3-1.8-1.2-.9-2.4-2.5-2.8-3.5-.6-1.5-1-1.6-2.7-.5-1.7 1.1-2.2 1-3-.2-.6-1-.2-1.9 1.8-3.2 3.2-2.1 3.2-6.4 0-8.9-1.8-1.4-1.9-2-1-4.5.7-1.9 1.1-2.2 1.1-1.1.1 1 .6 1.5 1.2 1.2.6-.4.8-1.3.5-2.1-.3-.8-.2-1.4.2-1.4s.8-1.6.9-3.6c.2-4.7 1.5-6 3.7-3.9 1.4 1.5 1.6 1.5 1.6.1 0-.9.8-1.6 2-1.6 1.5 0 2-.7 2-2.5 0-2.1.4-2.4 2.6-2.3 1.5.2 2.8.8 3.1 1.4.2.6 1.4.9 2.7.7 1.3-.3 3.7.2 5.4 1.1 2.6 1.4 3.1 1.4 3.6.1.3-.8 1.2-1.5 2-1.5s1.6-.5 1.8-1.2c.2-.6 2.4-1.1 5.1-1.1 3.8 0 4.8-.4 5.3-2 1-3.1 1.5-7.8 1.5-12.5-.1-3.8.1-4.2 2.4-4.2 1.6 0 2.5-.6 2.5-1.6 0-.8.5-1.2 1-.9 1.2.8 1.3-.5 0-2.5-.6-.9-.5-1.7.2-2.1.9-.6.8-1.2-.1-2.3-.7-.9-1.7-1.4-2.1-1.1-.4.2-1.3-.7-2-2-.7-1.4-2-2.5-2.9-2.6-1.1 0-1.2-.2-.3-.6 1.9-.7 1.4-4.2-.9-7.1-1.7-2.2-1.8-2.8-.6-3 1.8-.4 3.9-10 2.6-12.4-1.2-2.1-1.2-4.1 0-3.4 1.2.8-.4-6.1-1.8-7.8-.7-.9-.7-1.6 0-2.3.8-.8.8-2 .1-4.2-.6-1.7-.7-3.1-.3-3.1.5 0 1.1-.9 1.4-2 .5-2 3.7-2.9 3.7-1 0 .5 1.1.9 2.4.8 2.7-.2 2.5-1.8-.2-1.8-2.3-.1-6.7-2.6-6.8-3.9-.3-2.1-.4-2.2-2.3-1.2-1.4.8-2.2.7-3.1-.4-.7-.9-1-1.8-.7-2.1.3-.4-.4-1.5-1.6-2.5l-2.2-1.8 2.4-.1c1.8 0 2.2-.4 1.6-1.8-.3-.9-.9-3.8-1.2-6.5-.3-2.6-1-4.7-1.4-4.7-.5 0-.9-.8-.9-1.8 0-1.9-1.8-4.2-3.3-4.2-.5 0-.7.6-.4 1.2.2.7-.5 1.8-1.6 2.4-1.7.9-2.6.9-4.4-.3-1.3-.8-2.1-1.9-1.8-2.3.3-.4-.2-.7-1.1-.6-.9 0-2.1-.8-2.8-1.9-1.4-2.6-2.7-3.5-5-3.5-1 0-2.4-.6-3-1.4-.9-1.2-1.4-1.1-3 .5zm-33 100.3c1.8 1.8 1.8 2.6 0 2.6-.7 0-1.6-.9-1.9-2-.6-2.4-.1-2.5 1.9-.6zm-7.6 7.2c0 .8-.5 1.2-1 .9-.6-.4-.8-1.1-.5-1.6.9-1.4 1.5-1.1 1.5.7zm4.7 4.1c-1.6 1.6-1.8 1.6-3.4 0-1.6-1.6-1.5-1.7 1.7-1.7s3.3.1 1.7 1.7zm10.3 11.3c0 .5-.2 1-.4 1-.3 0-.8-.5-1.1-1-.3-.6-.1-1 .4-1 .6 0 1.1.4 1.1 1zm10.3.8c.8.7 1.9 1.2 2.3 1 .5-.1 1.9.1 3.2.6 1.6.5 2.2 1.5 2.2 3.6 0 4.8-4.1 4.4-6.9-.8-.6-1.2-1.8-2.2-2.6-2.2s-1.5-.2-1.5-.4-.3-1.1-.6-1.9c-.7-1.8 1.7-1.7 3.9.1zM192.129 25.51c-1 1.5-2.3 2.1-4.4 1.9-2.6-.2-3.1.2-4 3-.5 1.8-1.5 3.2-2.1 3.1-.7-.2-.9.4-.5 1.3.5 1.4.3 1.5-1.5.5s-2.2-.9-2.2.4c0 .8-.4 1.5-.9 1.5-1.6 0-4.1-4.9-3.4-6.6.4-1.2.3-1.5-.5-1-.7.4-2.5-.2-4.1-1.3-1.7-1.3-3.1-1.7-3.3-1.1-.2.6-3.1 1.1-6.5 1.2-3.4 0-6.7.5-7.5.9-1 .7-1 .9 0 .9.6 0 1.2.9 1.2 1.9 0 1.1 1.1 2.4 2.8 3 1.5.7 3.8 1.8 5.2 2.6 1.4.8 2.9 1.6 3.3 1.8.8.2 1.8 7.5 1.7 12.6 0 1.4.7 3.5 1.5 4.7 1.7 2.6 2 6.4.5 6.4-.5 0-1 .7-1 1.5s-.5 1.5-1 1.5c-.7 0-.6.8.2 2.2.7 1.3 1.1 2.7.9 3.3-.2.5-.5 3.2-.8 6-.2 2.7-.9 5.2-1.4 5.6-.6.3-.4 1.1.6 1.9 1.3 1.1 1.6.8 2.1-1.9.6-2.9.8-3 2.4-1.6.9.8 1.9 1.2 2.3.9.3-.4-.3-1.4-1.5-2.3-1.8-1.5-1.9-2.1-.9-4 .9-1.5 1.8-2 3.2-1.6 1.1.4 1.9.2 1.9-.4 0-.6 1.1-1.1 2.5-1.1 1.8 0 3.1-1 4.4-3.1 1.3-2.1 2.1-2.6 2.5-1.7.9 2.1-.1-6.4-1.3-10.1-1.2-3.8-.4-5.6 2.9-6.6 1.2-.4 1.7-1.2 1.3-2.2-.4-1-.2-1.4.4-1 1.9 1.2 5.5-4.4 4.8-7.3-.8-3.2-1.1-3.4-3-2.7-.8.4-1.7.7-2 .7-.8 0-.6-1 .3-1.1 2.1-.3 4.1-2.1 3.6-3.4-.9-2.2 1.4-1.8 2.6.5 1.8 3.5 4.7 4.3 6.9 2.1 1.3-1.3 2.1-1.6 2.4-.8.2.7.8.8 1.3.4.5-.5 0-1.5-1.1-2.4-1.9-1.4-1.8-1.5 1.3-1.1 2.5.4 3.2.1 2.7-.9-.3-.8-.5-1.9-.5-2.5 0-.7-.4-.7-1.2-.1-.7.6-2.3 1.3-3.5 1.6-1.9.4-2.3.1-2.3-1.7 0-4.8-5-7.8-7.3-4.3zm-4.7 20.7c0 .5-.4 1-.9 1-.6 0-1.3-.5-1.6-1-.3-.6.1-1 .9-1 .9 0 1.6.4 1.6 1zM120.529 41.31c-1.9 4.8 5.8 8.3 12.2 5.5 1.6-.8 1.5-1-.8-3.2-2-1.8-3.3-2.2-5.2-1.8-1.9.5-3 .2-3.9-1.1-1.3-1.7-1.4-1.7-2.3.6zM140.029 43.91c-.6 1.4-.5 1.5.5.6.7-.7 1-1.5.7-1.8-.3-.3-.9.2-1.2 1.2zM185.229 70.71c-.3 1.4-.1 2.5.3 2.5.5 0 .9-.7.9-1.5s.5-1.5 1.1-1.5c.5 0 .7-.5.4-1-1.1-1.7-2.2-1.1-2.7 1.5zM181.429 76.61c0 .2.8 1 1.8 1.7 1.5 1.3 1.6 1.2.3-.4s-2.1-2.1-2.1-1.3z"/><path d="M157.929 80.11c-.4.7-1.6 1.1-2.6.8-1.1-.3-1.9-.3-1.9 0 0 2 2.5 9.9 3.3 10.5.7.4.7 1.1-.1 2.1-.9 1-2.7 1.4-5.8 1.2-3.3-.3-4.7.1-5.1 1.1-.3.8-1.2 1.3-2 1-.9-.4-1.9.7-3 3.2-.8 2-1.9 3.9-2.3 4.2-1.2.8-4.4 7.4-4.2 8.6.1.6-.5 1.7-1.3 2.4-.9.7-1.5 2.9-1.5 5.1 0 3.4.3 3.9 2.3 3.9 2.8.1 5.5 2.1 5 3.7-.3.7 0 1.3.6 1.3s1.1.7 1.1 1.5c0 .9 1.1 2 2.5 2.5s2.5 1.4 2.5 2c0 1.4 8.3 1.3 9.7-.1.9-.9 1.4-.5 1.8 1.4.9 3.3-.1 4.9-2.5 4.2-1.3-.4-2.1.3-3 2.5-1.3 3.2-2.8 3.8-4.8 1.8-1.8-1.8-1.4.1.6 3 1 1.5 2.2 3.5 2.5 4.4.4 1 1.3 1.8 2.2 1.8 1 0 1.5 1 1.5 2.8 0 2.4.6 3.1 4 4.5 2.3.9 4 2.2 4 3.1 0 .9.4 1.6.8 1.6.5 0 2.1 2.4 3.6 5.4 1.5 3 3.4 5.7 4.3 6 .8.3 1.3 1.2 1.1 1.8-.3.7.3 1.9 1.3 2.8 1.9 1.7 4.2 8 2.9 8-1.2 0-5.2 7-5.9 10.5-.5 2.3-1.3 3.1-3.4 3.3-2.1.3-2.7.9-2.7 2.7 0 2.7-3.4 5.3-4.5 3.5-.5-.8-1.1-.8-1.9-.1-.7.6-1.7.7-2.1.3-.5-.4-.5.1-.2 1 .4 1.1 0 1.9-1.4 2.3-1 .4-1.9 1.5-1.9 2.7 0 1.6-.5 1.9-2.1 1.5-1.7-.4-2.4.2-3.8 3.3l-1.7 3.9-3-2c-3.5-2.3-9.6-2.6-8.8-.5.4 1.1 0 1.3-1.4.9-1.4-.3-2.2.1-2.7 1.6-.3 1.2-1.1 2.1-1.6 2.1s-.9.7-.9 1.5-.5 1.5-1 1.5c-.6 0-1-.6-.9-1.3.3-2.6-.2-3.2-3.1-3.4-2.5-.2-2.9.1-2.7 2 .1 1.4-.4 2.3-1.8 2.5-1.1.3-3 1.5-4.2 2.8-2.8 3.1-3.6 3-7.4-.7-4.2-4.1-6.3-3.5-6.7 1.9-.2 2.4.2 5 .9 5.8.9 1.1.9 1.8.1 2.6-2 2-1.4 3.1 1.3 2.6 1.4-.3 2.5-.2 2.5.1-.1 1.2-2.6 3.8-4.8 5-1.9 1-2.1 1.5-1.1 2.7.7.8 1.9 1.2 2.7.9.8-.3 2.6.8 4.3 2.6 3 3.2 3.6 4.9 1.9 4.9-.5 0-1 .9-1 2 0 1.2-.7 2-1.7 2-1.5 0-1.5.1 0 1.8 1 1 1.7 2.7 1.7 3.7s.7 2.6 1.5 3.6c2 2.1 1.1 12.1-1 11.3-.7-.3-1.6-.1-2 .5-.8 1.4-4.8 1.4-6.1.1-.5-.5-1.9-.7-3.2-.3-1.9.5-2.2 1-1.6 3.9.5 2.7.3 3.4-.9 3.4-3.1 0-6.6-2.3-7.2-4.7-.3-1.3-1-2.1-1.5-1.8-2 1.2-4.8-.6-6-3.8-.6-1.8-1.8-4.4-2.6-5.9-.8-1.4-1.4-3.5-1.4-4.5 0-1.1-1.1-2.5-2.5-3.1-2.1-1-2.5-.9-2.5.4 0 .8-.4 1.3-.8 1-1.5-.9-5 3.1-5.7 6.4-.4 1.8-1.3 3-2.2 3-1.5 0-6.3 4.4-6.3 5.8 0 .3 1.2 1.6 2.6 2.7 1.5 1.2 2.8 3.3 2.9 4.7.2 1.4.8 3.5 1.5 4.7 1.4 2.8 2.3 10.1 1.2 10.1-1.5 0-3.3 7.1-1.9 7.4.7.2 2.8.8 4.8 1.5 4.2 1.3 6.6 1.4 7.1.3.2-.5 2-1.2 4.2-1.5l3.9-.6-.6 4.3c-.6 4.4.5 6.7 3.7 7.2 6.9 1.3 16.6 7.3 16.6 10.3 0 2.5 1 3.2 3.1 2 1.4-.7 1.9-.6 1.9.3.1 4.6 12.4 22.8 15.4 22.8.6 0 2.4 1.6 3.9 3.5 2.9 3.7 5 4.2 9.2 2.3 3.1-1.4 3.8-.8 3.9 3.8.1 2.2.9 4.1 1.9 4.9 1 .7 1.5 1.9 1.1 2.9-.4 1.1.3 2.1 2.5 3.3 1.7 1 3.1 2.3 3.1 2.9 0 1.6 4.4 5.4 6.3 5.4 2.5 0 4 3.5 2.2 5-1.7 1.4-2.1 3.5-.5 2.5.5-.3 1.8-.1 2.7.4 1 .6 1.4 1.1 1 1.1-1.4 0 2.6 6 4 6 1.2 0 1.9 4 1.4 7.7-.1.7.3 1.3.8 1.3s.9.9.8 2c-.1 1.4-.6 1.8-1.9 1.4-2.4-.7-2.3.9.2 3.1 1.1 1 1.7 2.1 1.4 2.6-.3.5.4 2.5 1.5 4.6 1.1 2.1 2.2 4.5 2.5 5.4.2.9 2 1.9 4.1 2.2 1.9.3 5 1.8 6.7 3.2 2.4 2 3.9 2.5 6 2.1 3.1-.6 10 2.3 11.5 4.7.4.8 1.8 1.9 3.1 2.6 1.2.6 2.2 1.9 2.2 2.7 0 1.1.8 1.4 2.8 1.2 1.6-.2 2.6-.8 2.4-1.7-.2-.9.3-1.1 1.3-.7.9.3 1.9.6 2.1.6.2 0 .4.7.4 1.5 0 1.2.4 1.3 1.9.5 1.1-.5 3.2-1 4.7-1 3.3 0 10.8 4.7 12.5 7.8.8 1.3 2.6 3.2 4 4.3 2.6 1.9 2.9 1.9 6.3.2 2-.9 3.6-2 3.6-2.5 0-.4.9-.8 2-.8s2-.5 2-1.2c0-.9.3-.9 1.2 0 .8.8 1.5.9 2.5 0 1.1-.9 1.1-1.4-.3-2.9-1.6-1.8-1.6-1.9.9-1.9 1.6 0 2.7.6 2.7 1.4 0 .7 1.1 2.1 2.5 3 2.2 1.5 2.5 1.5 3.7-.3 1.3-1.8 1.6-1.9 4.6-.4 1.9.9 3.2 2.3 3.2 3.4 0 2 3.4 2.7 4.4 1 .7-1.1 5.5-.2 8.3 1.7 3.1 2 5.4 6.7 3.9 8.2-.6.6 1.2.3 3.9-.7 2.8-1 5.2-2.1 5.3-2.6.7-1.4 2.4-.7 1.8.8-.6 1.6.9 2.1 1.9.5.3-.5 1.2-.7 2-.3.8.3 1.5 0 1.5-.7 0-.6.5-.8 1-.5.8.5.7 1.1-.1 2.1-.7.9-.9 3-.5 5.8.7 4.3.6 4.5-2.1 4.8-2.6.3-2.8.6-2.9 5.3 0 2.7-.2 5.4-.3 6-.2.5-.3 2.5-.3 4.2 0 1.8-.5 3.3-.9 3.3-1.6 0-.9 3.1 1.2 5.8 1.1 1.5 2.2 2.6 2.2 2.4.3-.5 6 .8 8.4 2 1.2.6 3 .7 4 .3 1-.5 2.2-.7 2.6-.6.4 0 1.5.2 2.5.4.9.1 2.3.6 3 1.1.8.5 1.8.4 2.5-.3 1.9-1.9 7.4-1.3 9 .9.9 1.4 2.4 2 4.3 1.8 5.5-.3 8.4.2 8.4 1.6 0 1.9 2.6 4 3.4 2.7.4-.6 1.4-.4 2.7.7 1.1.9 2.3 1.7 2.7 1.7 2.7.2 5.3 2 6.6 4.6.8 1.6 1 2.9.5 2.9-1.8 0-.9 3 1.4 4.4 1.6 1.1 3.1 1.3 5.2.7 3-.8 7.5.4 7.5 2.1 0 .4.7.8 1.6.8 1.1 0 1.4-.5 1-1.6-.5-1.4-.4-1.5.9-.4 1.2 1 1.5 1 1.5-.4 0-1-.5-2.6-1-3.6-.9-1.7-.5-2 5-2.6 3.3-.4 6.3-1.1 6.6-1.5.3-.5 1.4-.4 2.6.2 2.2 1.2 3.4.4 4-2.5.1-1.1 1.7-2.4 3.3-3 4.8-1.7 7.4-4 8.7-7.7.6-1.9 2-4 3-4.8 1.6-1.1 1.8-2 1.3-5.3-.7-3.8-.6-3.9 1.3-2.9 3 1.6 3.4 1.4 2.1-1.1-.9-1.6-.9-2.3 0-2.6 1.3-.4 1.5-5.1.2-7-.5-.8-1.7-1.1-3.4-.7-2 .5-2.6.2-3.1-1.3-.4-1.1-.5-2.4-.4-2.9.2-.5-.9-2.4-2.5-4.2-2-2.4-3.8-3.4-6.7-3.8-3.9-.5-5.7-2.3-2.4-2.3 1 0 1.4-.6 1.1-1.5-.4-.8.8-2.8 2.9-4.9 2.1-2.1 3.4-4.4 3.4-6 0-1.6.6-2.6 1.4-2.6 1.2 0 1.2-.4 0-3-1.4-2.8-1.4-3.2 1.1-6.5 1.5-1.9 2.5-4.1 2.2-4.9-.8-1.9 2.5-3 6.6-2.2 2.9.5 3.4.3 5.1-3.3 1-2.2 2.6-4 3.5-4 1.8 0 3.8-.5 6.4-1.6 1-.4 2.7-.1 4.2.9 2.8 1.9 5.6 1.2 3.2-.7-.8-.7-1.7-2-2-3-.5-1.2-.1-1.7 1.4-1.7 2.9 0 1.4-1.7-2.1-2.5-3.3-.7-4.2-1.6-3.2-3.2.5-.7 2.1-.9 4.7-.4l4 .7v-3.7c0-2.7.8-4.6 2.5-6.4 1.4-1.5 2.4-3.5 2.2-4.5-.2-.9.4-2 1.3-2.3 2.2-.9 1.8-4.4-1-8.1-1.4-1.8-2.5-3.8-2.5-4.3 0-.6-.7-1.4-1.6-1.7-2.1-.8-2.4-.8-2.4.5 0 .6-.7 1.7-1.5 2.6-.8.8-1.3 1.8-1 2.3.9 1.5-3.1 2.1-7.5 1.1-3.3-.7-4.6-.6-5.6.4-1.4 1.4-.9 4.5.7 4.5 1.8 0 .8 2.9-1.2 3.5-1.3.5-1.7 1.1-1.1 1.8 1.2 1.6.7 9.4-.8 11.2-.7.8-1.9 1.5-2.6 1.5-.8 0-1.4.7-1.4 1.5 0 .9-.9 1.5-2.1 1.5-1.2 0-3.9 1-6 2.2-3.1 1.7-3.8 2.6-3.4 4.2.6 2 .5 2-.9.3-1-1.3-1.6-1.5-2.1-.7s-2.1 1-4.6.6c-3.4-.6-3.9-.4-3.9 1.4 0 1.4-.7 2-2.4 2-2 0-2.3.4-1.9 2.2.3 1.3.3 2-.1 1.6-.4-.3-2-.2-3.6.2-2 .6-3.4.4-4.7-.6-1-.7-3.5-1.4-5.5-1.4s-4-.5-4.3-1c-1-1.6-2.5-.1-1.8 1.8.6 1.6.5 1.5-2.1-.1-1.5-1-3.4-1.6-4.1-1.3-.7.2-1.6-.3-2-1.1-.5-1.5-.7-1.5-2.2 0-1.5 1.4-1.8 1.3-4.3-1.1-1.5-1.5-3.2-3.7-3.9-5-.6-1.2-2.1-2.2-3.3-2.2-2.4 0-8.8-3.7-8.8-5.1 0-.6-2.1-1.9-4.7-3.1-2.7-1.1-6.1-3.2-7.6-4.7-1.6-1.4-4-2.6-5.5-2.6-2.2 0-2.8-.6-3.7-3.7-1.3-4.8-1.7-5.1-7.3-5.8-4.7-.6-4.8-.5-4.4 1.8.4 1.9.1 2.3-1.4 2.1-1.1-.2-2.4 0-3.1.4-1.2.7-2.3-.2-6.3-4.9-1.3-1.7-1.5-1.7-1.8-.2-.2.9-2.3 2.4-4.7 3.3-5.2 2-8.5.8-8.5-3 0-1.4-.4-2.5-1-2.5-2.6 0-.6-3 3.1-4.7 3.8-1.7 4.1-2 3.5-5.1-.4-2.5-.2-3.2.8-2.9 1.5.6 5.1-5.7 4.2-7.2-.4-.6-2.5-1.1-4.7-1.1-3 0-3.8.3-3.3 1.2.6 1 .4 1-.8 0-.8-.7-2.3-1-3.2-.6-.9.3-1.6.2-1.6-.4 0-.5-1.1-1.3-2.4-1.6-2.6-.6-5.6-3.1-5.6-4.7 0-.5 1.4-.2 3 .6 3.2 1.7 5.5 1.2 4.6-1-.2-.7 0-1.7.6-2.3 1.2-1.2.1-7.2-1.3-7.2-1.6 0-1-1.6 2-4.7 3.4-3.6 5.9-4.7 7.6-3.3 1.8 1.5 6.1.6 5.7-1.3-.2-1 .3-1.4 1.5-1.1 2.5.7 5.5-4.4 4.2-6.9-.7-1.1-.7-1.7.1-1.7.6 0 .8-1 .4-2.4-.5-2.1-.1-2.5 2.5-3.1 2.3-.5 3.2-1.3 3.6-3.3.3-1.5 1.2-4.7 1.9-7.2 1.8-5.7 1-13.5-1.7-17.4-2.1-3-3.1-11.6-1.4-11.6.5 0 .7-.6.4-1.3-.3-.7.4-1.9 1.4-2.5 2.6-1.6 2.4-3.6-.6-6.7-1.9-1.8-2.2-2.5-1-2.5.8 0 1.5-.9 1.5-2 0-1.4.6-2 1.8-1.8 1.4.3 1.7-.5 1.7-4.5 0-2.9.5-5.1 1.4-5.6.8-.5 1.1-1.6.6-3-.5-1.5-.2-2.1.9-2.1s1.6-.9 1.7-2.8c.1-3.8 1.4-6.9 2.3-5.4.5.8 1.6.6 4-.6 3.8-1.9 4.3-4.7 1.3-6.4-1-.5-1.6-1.6-1.3-2.4.3-.8.1-1.4-.5-1.4-.5 0-1.2.6-1.5 1.4-.3.8-1.2 1.2-2 .9-.8-.3-1.4 0-1.4.6s-1.5.2-3.5-.9c-1.9-1.1-3.5-1.6-3.5-1.2 0 .4-.5-.1-1-1-.6-.9-2.6-2.2-4.5-2.8-3.6-1.2-4.4-2.4-2.2-3.3.9-.4.9-.7 0-1.4-1.7-1.2-3.3-5.9-3.3-9.7 0-1.8-.7-4.1-1.5-5.2-1.7-2.2-1.9-3.4-.6-3.4.5 0 1.4 1.5 2.1 3.4 1.2 3.8 5.4 6.3 7.6 4.6.8-.8 1.9-.8 3-.2.9.5 2.4.8 3.3.5 1-.2 2.2.8 3.3 2.7 2 3.6 4.9 3.9 7.1.7 1.4-1.9 1.6-2 1.6-.4.1 1.2.5 1.6 1.4 1 .6-.4 2.8-.9 4.7-1 1.9-.1 3.6-.7 3.8-1.3.2-.5 1.4-1 2.6-1 1.2 0 3.2-.7 4.4-1.6 2.2-1.5 2.2-1.7.5-2.9-1.5-1.1-1.4-1.2 1.5-.9 3.4.4 4.3-1.1 2-3.4-.9-.9-.7-1.2.9-1.2 1.3 0 3.1-1.3 4.3-3 1.9-2.6 2-3.3.8-4.7-1-1.3-1-1.7 0-2.1.9-.3 1.1-1.7.6-5.4-.5-3.6-.4-4.9.4-4.4s.8-.2.1-2.4c-.6-1.6-2.3-3.7-3.9-4.6-3.3-2-3-5.2.6-5.9 1.3-.3 3.6-.8 5.2-1.1l2.7-.7-3.2-.7c-1.8-.4-5.1-.4-7.4 0-4.4.8-11.1-.8-15.7-3.8-1.3-.8-3.9-1.5-5.7-1.4-2.7.1-4.1-.6-7-3.6-1.9-2-3.5-3.1-3.5-2.5 0 1.3-3.1 1.2-7.7-.2-1.4-.5-2.3-.3-2.3.3s-1 2-2.2 3.1c-1.6 1.6-2.5 1.8-3.5 1-.9-.8-1.3-.8-1.3 0 0 2.4-4 1-5.5-2-1.6-2.9-1.7-3-3-1.2-.9 1.1-1.4 1.3-1.5.5 0-.7-1.6-2-3.5-2.9-1.9-.9-3.2-2-3-2.3.3-.4-.9-1.3-2.5-2-1.7-.7-3-1.8-3-2.5 0-.8-1.9-3-4.2-5-2.7-2.2-4.4-4.6-4.5-6.1-.1-1.3-1.6-4.9-3.2-7.8-1.7-2.9-3.1-5.6-3.1-5.9 0-.2.9-.7 2-1 1.7-.4 2-1 1.4-3.4-.4-1.5-1.4-3.8-2.2-5.1-1.1-1.6-1.1-2.6-.3-3.5.8-1 .7-1.7-.2-2.6-.6-.7.7-.2 3 1.1 4 2.2 4.3 2.2 7 .6 1.5-.9 2.9-2.2 2.9-2.7.1-.6.2-1.8.3-2.6 0-.8 1.2-1.7 2.6-2.1 1.9-.5 2.5-1.3 2.5-3.4 0-2.3.7-3.1 3.8-4.3 3.4-1.4 3.8-1.9 3.9-5.1.1-2-.4-3.6-.9-3.6-.6 0-.8-.6-.5-1.4.3-.7-.4-2.2-1.6-3.2-1.7-1.5-2.7-1.7-4.4-.9-1.3.5-2.3 1.7-2.3 2.5s-1.1 3.1-2.4 5.1c-2.1 3-2.9 3.5-5.4 3.1-2.2-.3-3.6.3-6 2.8-1.8 1.7-3.2 4-3.2 5 0 1.6-.6 1.9-3.5 1.6-2.8-.2-3.5.1-3.5 1.6 0 1.6-.7 1.7-5.7 1.3-6.6-.6-7.1-.9-5.5-3.5.7-1.1 1.2-3 1.2-4.2 0-1.8-.2-2-.9-.9-.8 1.2-1.4 1.2-3.9.2-1.7-.7-3.8-2.1-4.8-3.2-.9-1-2.3-1.9-3.1-1.9-1.4 0-5.3 3.5-5.3 4.8 0 .4-1.7 1.2-3.7 1.9-2.7.8-4.1.8-5.6 0-1.5-.9-2.1-.9-2.4 0-.3.8-1.2.9-2.8.3-1.2-.5-2.6-.6-2.9-.3-.3.4-.6-.1-.6-1 0-1 .6-1.7 1.4-1.7 1.8 0 1.5-2.4-.8-4.9-1.8-2-.9-3.5 1.7-2.5.8.3 1.7-.1 2-.9.8-2.2-4.6-6-9-6.1-2.1-.1-4.5-.6-5.4-1-1.2-.5-1.8-.1-2.2 1.5-.4 1.6-1.1 2-2.6 1.6-1.4-.3-1.8-.1-1.4.9.4 1-.2 1.3-2.1 1.2-1.4-.1-2.6-.5-2.6-.8 0-.4-1.7-.6-3.9-.6-2.5.1-3.7.5-3.4 1.2.2.7 0 1.5-.6 1.9-.6.3-1.1 1.7-1.1 3s-.5 2.7-1.1 3c-.7.5-.4 1.5.7 3.2.9 1.4 1.2 2.8.7 3.2-.4.3-.9 2.7-.9 5.2-.1 4.5 0 4.5 1.8 2.7 2.6-2.6 3.5-2.3 3.5 1.3 0 2.9-.2 3-1.4 1.3-.7-1-1.3-1.2-1.3-.6 0 1.4 1.8 4.8 3.8 7.3 1.1 1.4 1 1.8-.2 2.2-1 .4-1.3 1.3-.9 2.3.5 1.4.3 1.5-1.5.5s-2.5-.8-4.3 1c-1.1 1.1-2.7 1.8-3.6 1.5-.8-.3-2.6-.6-4-.6-1.6 0-3.8-1.3-6-3.6l-3.4-3.6.3-8.9c.2-4.9.6-8.9 1.1-8.9.4 0 .3-.9-.3-2.1-1.1-2-.8-3 2.8-6.7.6-.7 1.2-1.8 1.2-2.3 0-.5.6-.9 1.3-.9.9 0 1.3-1 1.2-2.8-.2-3.9-1.3-5.4-3.6-4.7-1.1.4-1.9.2-1.9-.4 0-.6.4-1.1.9-1.1s.9-.6.8-1.3c0-.6.1-2.1.1-3.1.2-1.8.3-1.8 1.5-.3 1.8 2.5 4.1.6 3.3-2.6-.9-3.8-5.1-8.4-6.1-6.8zm3.5 18.9c0 1.5-.2 1.5-1 .2-1.3-2-1.3-3.3 0-2.5.6.3 1 1.4 1 2.3zm135 87.3c0 .5-.7.9-1.5.9-1.5 0-2-1.2-.9-2.3.8-.8 2.4.1 2.4 1.4zm-159 50.4c.7.9 1.9 1.4 2.6 1.1 1.7-.7 3 1.4 1.5 2.3-1.6 1 2.4 4.5 4.3 3.8 1.9-.8 4.5 2.3 4.3 5.1-.1 1.2-.8 2.2-1.7 2.3-1 0-.9.3.5.9 1.1.5 1.5.9.9.9-.7.1-1.5 1.3-1.8 2.7-.5 2-1.1 2.5-2.8 2.1-1.6-.5-1.8-.3-.9.6.6.6 1.1 1.8 1.1 2.6 0 2.2-3 5-4.6 4.4-.8-.3-1.4 0-1.4.6 0 1.8-2.8 1.3-5-.9-1.1-1.1-1.7-2-1.4-2 .4 0 .1-.6-.5-1.3-1.4-1.7-.4-2.7 2.6-2.7 1.3 0 2.3-.4 2.3-.8 0-1.8-2.6-6.2-3.7-6.2-.7 0-1.7-.8-2.2-1.8-.6-.9-1.1-1.3-1.1-.8 0 1.2-4-2.5-4-3.7 0-.6-.7-1.8-1.6-2.8-1.7-1.9-1.1-3.9 1.2-3.9.8 0 1.2-.5.9-1-.8-1.2-.8-1.2 3.2-.1 2.8.8 3.3.7 3.8-1 .8-2.3 1.8-2.4 3.5-.4zm-23 3.1c0 .9-.5 1.4-1.2 1.2-1.8-.6-2.1-2.8-.4-2.8.9 0 1.6.7 1.6 1.6zm-5.5 1.4c-.3.5-1.1 1-1.6 1-.6 0-.7-.5-.4-1 .3-.6 1.1-1 1.6-1 .6 0 .7.4.4 1zm47.3 34.5c2.4 1 3.8 1.2 4 .5.6-1.7 2-1.2 5.2 1.9 3 2.9 3.9 5.1 1.9 5.1s-3.9 2.9-3.9 5.9c0 2.9-2.1 5.1-4.9 5.1-1.2 0-3.6-3.5-4.6-6.7-.5-1.8-.3-2.2.9-1.7 1.3.5 1.3.1.3-2.6-.7-1.8-2.1-3.3-3.4-3.6-3-.8-3.1-5.4-.1-5.4.5 0 2.5.7 4.6 1.5zm-22.5 8.7c.3 1.8.8 4.3 1.2 5.5.6 1.7.3 2.3-.9 2.3-.9 0-1.3-.6-1-1.5.4-.9-.8-2.9-3-5.1-2-2-3.6-3.8-3.6-4 0-.2 1.5-.4 3.4-.4 3 0 3.4.3 3.9 3.2zm-12.3 1.8c0 2.3-.6 3.3-2.5 4.2-1.4.6-2.4 1.7-2.1 2.4.3.7-.6 1.5-2.1 1.9-1.6.4-2.3 1.1-1.9 2 .3.8.1 1.5-.4 1.5-.6 0-1 1.1-1 2.5 0 1.9-.5 2.5-2.1 2.5-1.8 0-1.9-.3-.9-1.5.6-.8.9-1.9.5-2.5-.3-.5.1-1 .9-1 .9 0 1.6-.6 1.6-1.3 0-.8 1.2-2.4 2.6-3.8 2.6-2.3 4.3-5.4 5.3-9.4 0-.3.6-.5 1.1-.5.6 0 1 1.4 1 3zm-33.2 14.5c1.4 3 1.4 2.9-2.6.9-3.8-1.8-4.1-3.4-.9-3.4 1.6 0 2.8.9 3.5 2.5zm5.2 1.9c0 .3-.4.8-1 1.1-.5.3-1 .1-1-.4 0-.6.5-1.1 1-1.1.6 0 1 .2 1 .4zm-5.7 9.3c-1.2 3.4-4.3 4.4-4.3 1.5 0-2.3.8-3.2 3.1-3.2 1.3 0 1.7.5 1.2 1.7zm76.2 109.3c.3.5.2 1-.4 1-.5 0-1.3-.5-1.6-1-.3-.6-.2-1 .4-1 .5 0 1.3.4 1.6 1zm115.1 7.4c1.2 4.7-1.9 6.3-3.8 2-1-2.1-.9-2.7.3-3.5 2.2-1.4 2.8-1.1 3.5 1.5zm22.4 38.6c0 .5-.5 1-1.1 1-.5 0-.7-.5-.4-1 .3-.6.8-1 1.1-1 .2 0 .4.4.4 1z"/><path d="M177.029 81.81c-.8 2.1-.4 2.5 1.4 1.4 1.1-.7 1.2-1.2.4-2-.8-.8-1.3-.7-1.8.6zM12.429 82.81c0 .7 1.3 2.7 2.9 4.5 2.5 2.7 3 2.9 3.3 1.3.2-1.1 0-2.9-.5-4.1-1.1-2.4-5.7-3.8-5.7-1.7zM209.129 92.31c-.9.6-1.5 1.5-1.1 2 .3.5 0 1.6-.6 2.4-.7.8-1 2.1-.7 2.9.8 2.1 4 .9 5.4-2 .9-2 .9-2.4-.4-2.4-1 0-1.4-.6-1-2 .3-1.1.4-2 .4-2-.1 0-1 .5-2 1.1zM26.429 96.81c0 1.3.3 1.4 1.3.5.8-.6 1.8-.7 2.2-.3.5.4.5.1.1-.6-1-1.8-3.6-1.5-3.6.4zM107.729 123.11c-.8 1.2-.3 2.3 1.9 4.4 1.5 1.6 2.8 3.9 2.8 5.1 0 2.8.8 3.6 2.6 2.9.8-.3 1.4-1.6 1.4-3 0-2 .4-2.3 2-1.8 1.4.4 2 .2 2-.9 0-.8.3-2.1.6-3 .4-1.1 0-1.6-1.3-1.6-1 0-2.7-.6-3.8-1.4-3.2-2.1-7.1-2.5-8.2-.7zM127.929 124.21c-.3.5-.2 1 .4 1 .5 0 1.3-.5 1.6-1 .3-.6.2-1-.4-1-.5 0-1.3.4-1.6 1zM436.129 132.91c-1.9 1.9-6.4 2.6-8.7 1.3-1.4-.7-1.7-.6-1.6.8 0 1-.5 1.6-1.3 1.4-.8-.2-1.1.3-.8 1.1.3.8.1 1.9-.4 2.4-.7.7-.5 2.3.5 4.8.9 2.1 1.6 4.7 1.6 5.9 0 1.2.5 2.7 1.2 3.4.9.9.9 1.2 0 1.2-.7 0-1.2.7-1.2 1.6 0 1-.6 1.4-1.4 1.1-1-.4-1.6.2-1.8 1.6-.2 1.2-.7 2.2-1.3 2.3-2 .1-7.5 3.9-7.5 5.3 0 1.3-3.5 4.6-7.1 6.6-1.5.9-1.6 1.3-.4 3.4 1.1 2.1 1 2.9-.2 4.8-.8 1.3-1.3 3-.9 3.8.3.8.1 1.5-.3 1.5-.5 0-.6 1.2-.1 2.7.5 2.2.3 3.3-1.3 5-1.9 2.1-1.9 2.3-.2 2.9.9.4 2 .2 2.4-.3.3-.6 2.2-1.5 4.1-2.2 1.9-.6 4.8-2.2 6.4-3.6 1.6-1.4 4-2.5 5.3-2.5 1.9 0 2.8-1 4.3-4.8 1.1-2.6 2.4-5.5 3-6.4.5-1 1-2.2 1-2.8 0-.6.9-2.1 2-3.3 1.2-1.3 2-3.2 1.8-4.7-.2-1.7.5-3.2 2.5-4.8 1.5-1.3 2.4-2.8 2.1-3.3-.3-.5 1.3-2.7 3.6-4.9 2.4-2.3 4-4.6 3.7-5.4-.7-1.6 1.9-3 2.8-1.6.4.6.1 1-.5 1s-.8.5-.5 1c.9 1.4 3.5-.7 3.5-2.6 0-1.6 1.6-1.9 2.5-.4.9 1.4 3.7 0 3.1-1.6-.7-1.9.7-1.7 3.5.4 3.3 2.6 8.9 1.2 8.9-2.1-.1-3.2-2.7-6.4-4.1-5-1.3 1.3-2.2.7-6.6-3.9l-2.5-2.6-2.1 2.1c-1.2 1.2-2.1 2.5-1.9 2.9.1.5-.9.8-2.2.8-1.3 0-3.1.3-4 .6-1 .4-1.7-.2-2.1-1.9-.9-3.4-4.7-5.1-6.8-3zm-8.2 30.1c-.6.7-3.4-1.1-2.9-1.9.3-.5 1.1-.3 1.9.4.7.6 1.2 1.3 1 1.5zM110.129 137.61c-.4 1-.1 1.3.8.9.8-.3 1.2-.9.9-1.4-.7-1.2-1.1-1.1-1.7.5zM100.729 142.91c-2.7.4-3.3.9-3.3 2.9 0 2.9 1.3 3.1 4.1.3 1.3-1.3 2.7-1.8 3.9-1.4 1.5.5 1.8.3 1.4-.9-.3-.9-1.1-1.5-1.8-1.4-.6 0-2.6.3-4.3.5zM92.729 147.91c-2 .7-1.5 1.9.7 2 1.1.1 2-.4 2-1.3 0-1.4-.6-1.6-2.7-.7zM42.629 152.41c.1 1.8.7 3.8 1.4 4.5.7.7 1.4 1.8 1.6 2.5.2.6.9.8 1.5.5 1.7-1-1.2-9.7-3.5-10.5-.6-.2-1 1-1 3zM89.029 151.11c-.3.5-1.5.7-2.6.4-1.2-.3-2.2.1-2.6 1-.3.8-1.7 1.8-3 2.1-3.7 1-3 5.1.9 5.1 1.5 0 3.2.7 3.7 1.5.6.9 1 1 1 .3 0-.6-.4-1.5-1-1.8-1.7-1.1-1.1-2.3.9-1.8 2.3.6 5.5-3.5 4.1-5.2-.5-.7-.7-1.5-.3-1.8.3-.4.4-.7 0-.7-.3 0-.8.4-1.1.9z"/><path d="M448.929 151.21c-.3.5-.1 1 .4 1 .6 0 1.1-.5 1.1-1 0-.6-.2-1-.4-1-.3 0-.8.4-1.1 1zM358.929 182.31c-.5 1.6-1.2 1.9-3.1 1.5-1.4-.4-2.4-.2-2.4.4 0 .5.9 1 2 1 1 0 2.4.6 2.9 1.2 4.8 5.9 6.1 7.8 6.1 9.2 0 .9.6 1.3 1.4 1 2-.8 4.3 3.6 3.6 7.1-.3 1.6-.2 4.5.4 6.2.6 2.3.6 4.1-.3 5.9-.8 1.9-.9 3 0 4 .6.7.8 1.7.5 2.3-1.2 1.8 1.5 6.4 6.5 11.2 2.8 2.7 5.5 4.7 5.9 4.4 1.1-.6 5.4 3.4 6.3 5.7.4 1.1 1.2 1.5 2.2 1.2.9-.4 1.5 0 1.5.9 0 1.2 1.1 1.5 5.4 1.2 4.8-.2 5.5 0 6 1.9.4 1.6.8 1.8 1.8.8.9-.9 1.5-.9 2.8.1.9.6.1-.2-1.7-1.9s-3.3-3.7-3.3-4.4c0-.7-.3-1.1-.6-.7-.3.3-1.2.1-1.8-.6-1-.9-.9-1.5.5-3 1.2-1.3 1.6-2.9 1.2-4.7-.3-1.6 0-3.1.7-3.5.8-.5-.5-2.3-3.9-5.5-3.3-3.1-4.7-5.1-4-5.5.8-.6.7-1-.2-1.6-1.1-.8-1-1.3.8-2.8 1.5-1.2 2-2.5 1.6-4-.4-1.4-.1-2.1.9-2.1s1.5-1 1.5-2.8c-.1-1.5.3-4 .8-5.7l.8-2.9-2.5 1.6c-3.4 2.2-6.4 1.6-10.4-2.3-2.1-2-3.4-2.7-3.9-1.9-.4.6-1.5.8-2.5.5-1-.3-2.1-.1-2.5.5-.4.7-1.2.7-2.5 0-1.6-.8-1.8-.8-1.4.5.5 1.3.3 1.3-2 .1-2.5-1.2-8.8-9.4-8.2-10.6.2-.3-1.2-1.8-3-3.3-3.2-2.7-3.3-2.7-3.9-.6zM153.429 207.11c0 .5.5 1.3 1 1.6.6.3 1 .2 1-.4 0-.5-.4-1.3-1-1.6-.5-.3-1-.2-1 .4zM.129 216.21c-.3 1.1-.1 2 .4 2s.9-.2.9-.4.3-1.1.6-2c.3-.9.2-1.6-.4-1.6-.5 0-1.2.9-1.5 2zM413.429 249.21c0 .5.5 1 1 1 .6 0 1-.5 1-1 0-.6-.4-1-1-1-.5 0-1 .4-1 1zM72.929 264.31c-.4 1.8-.3 3.5.4 4.2.8.8 1.1.7 1.2-.4 0-.7.2-2.4.3-3.7.4-3.5-1.1-3.6-1.9-.1zM449.129 291.41c-.5 1.7-.9 1.9-2 1-1.1-1-2-.7-4.1 1.3-1.5 1.4-3.2 2.5-3.8 2.5-.7 0-.6.5.2 1.5.7.8 2.3 1.5 3.5 1.5 1.5 0 2.5.7 2.8 2.1.3 1.2 1 1.8 1.6 1.5.5-.4 1.2.3 1.6 1.4.6 1.8.8 1.9 3.1.4 1.3-.9 2.4-2.2 2.3-2.8-.3-2.5.2-3.6 1.6-3.6.8 0 1.9-.9 2.5-2 .8-1.6.8-2-.4-2-.8 0-1.9-.6-2.3-1.3-.7-1.1-4.7-3.7-5.7-3.7-.2 0-.6 1-.9 2.2zM350.929 299.21c.3.5.2 1.8-.4 2.8-.8 1.5-.3 2.3 2.4 4.5 1.9 1.5 3.8 2.7 4.2 2.7 2.3.1 3.5 1.8 2.5 3.7-1.4 2.6 2.4 11.1 4.1 9.4.6-.6 1.5-1.1 1.9-1.1 1.2 0 3.8 6.9 3.2 8.4-.3.7.2 2 1 2.9 2 2 2 3.7.1 3.7-1.1 0-1.2.5-.5 2.5.5 1.4.7 2.5.4 2.5-.3 0 .2 1.2 1 2.7.8 1.6 2.3 4.9 3.3 7.5 1.1 2.8 2.8 5.3 4.6 6.3 1.5.9 4.5 3.4 6.7 5.6 4.3 4.3 5 4.7 5 2.2 0-1.4.3-1.4 2.3.4 1.2 1.1 3.2 2.4 4.3 2.7 1.2.4 2.5 1.9 3 3.8.8 2.5 1.8 3.4 5.4 4.6 6 1.9 7.5 2.8 7.3 4-.2.6.8 1.9 2 2.9 1.3 1 2.6 2.6 3 3.5.3 1 1.2 1.8 1.9 1.8 2.4 0 4.2-4.4 4.5-10.8.2-3.5.8-7.2 1.3-8.2.6-1 1-2.8 1-4 0-4 2-4.9 6.8-3.1 3.5 1.3 4.6 1.3 6.3.3 1.7-1.1 2.3-.9 4.4 1.4 1.4 1.5 2.3 3 2 3.4-.3.4.2 1.3 1 2 .7.6 1.1 1.8.9 2.5-.3.8.4 2 1.5 2.7 1.3.8 2.1 2.3 2.1 3.9 0 1.5.7 2.9 1.5 3.3.8.3 1.4 1.1 1.3 1.8-.5 1.9 3.4 2.2 4.8.3 1.6-2.2.7-4.5-1.7-4.5-2.2 0-3.8-2.6-3.1-5.2.4-1.8-4.3-6.6-6.1-6-.5.1-.6-.2-.3-.7.3-.5-1-2.8-2.9-5.2-2-2.3-4-5-4.5-6-.6-1-1.8-2-2.8-2.3-1-.3-2.2-1.9-2.8-3.5-1-2.6-.9-3 1.8-4.6 3.5-2 2.5-3.9-2.1-4.3-2.3-.2-3.1.2-3.1 1.4s-.4 1.4-1.2.7c-.7-.6-2.3-1.3-3.5-1.6-2.6-.6-2.9.7-1.4 6.1 1.1 3.6.3 4-4.5 2.2-1.5-.6-3-.7-3.3-.2-.6 1-6.3.8-8-.2-.5-.4-1.2.2-1.6 1.3-.7 2.4-5.2 5.4-7 4.7-.8-.3-1.5 0-1.7.5-.5 1.5-5.8-.1-5.8-1.7 0-.8-.7-1.7-1.5-2.1-2.1-.8-4.8-6-3.5-6.8.6-.3 1-1.7 1-3.1 0-1.8-.5-2.4-2.2-2.4-2.7-.1-5.8-2.2-5.8-3.9 0-1.2-3.1-6.1-6.4-9.9-1.1-1.2-1.5-2.2-.9-2.2s1-1.8 1-4 .2-4.3.6-4.7c.4-.3.7-2.1.7-3.9 0-2.7-.3-3.1-1.9-2.7-1.2.3-3.1-.7-5.6-3.1-4.7-4.6-6.6-5.6-9.3-4.9-1.3.3-3.1-.3-4.8-1.6-2.8-2.2-5-2.8-3.9-1.1zm76.5 60c0 .5-.4 1-.9 1-.6 0-1.3-.5-1.6-1-.3-.6.1-1 .9-1 .9 0 1.6.4 1.6 1zM373.929 304.21c-.3.5-.2 1 .4 1 .5 0 1.3-.5 1.6-1 .3-.6.2-1-.4-1-.5 0-1.3.4-1.6 1zM447.929 312.41c-.9 2-1.6 2.3-5.8 2-4.5-.3-4.8-.2-3.8 1.6.6 1.1.8 2.2.5 2.5-.3.3.2 1.9 1 3.6 1.9 3.6 2 5.5.3 4.8-.9-.3-1.1.6-.9 3.4.4 4 2.2 5.5 2.2 1.9 0-1.5.7-2 2.9-2 2.1 0 3.2-.6 3.6-2.1.6-1.9.8-1.9 2.5-.4 2.4 2.2 5.6 1.6 5.2-1-.2-1.1-.4-3.2-.3-4.8 0-1.5-.5-2.7-1.1-2.7-.6 0-.9-.3-.5-.6.7-.8-1.7-3.4-3.2-3.4-.5 0-1.1-1.2-1.3-2.6l-.3-2.5-1 2.3zM455.629 315.21c-.1 2.9 1.1 4 2.3 2 .3-.5 0-1.9-.8-3-1.3-1.9-1.4-1.9-1.5 1zM70.429 320.21c0 .5.5 1 1.1 1 .5 0 .7-.5.4-1-.3-.6-.8-1-1.1-1-.2 0-.4.4-.4 1zM56.029 321.11c-.4.6-2 .8-3.6.4-2.4-.4-3-.2-3 1.1 0 1.9 1.8 5.2 4.2 7.7 1.6 1.7 1.7 1.7 3.2 0 .9-1 1.6-2.2 1.6-2.8 0-.5.9-1.8 2-2.8 2-1.8 1.7-4-.5-3.1-.7.2-1.7 0-2.3-.6-.6-.6-1.2-.6-1.6.1zM460.829 378.61c1.1.9 2.8 1.6 3.9 1.6 1 0 2.7.5 3.8 1 1.3.7 1.9.7 1.9 0 0-.5-.7-1-1.5-1-.7 0-1.8-.8-2.4-1.8-.8-1.3-1.2-1.4-2.2-.5-.9.9-1.8.9-3.3.2-2-1-2-1-.2.5zM292.429 379.21c0 .5.5 1 1.1 1 .5 0 .7-.5.4-1-.3-.6-.8-1-1.1-1-.2 0-.4.4-.4 1zM473.429 381.11c0 .6.4 1.3 1 1.6.6.3.7-.1.4-.9-.7-1.8-1.4-2.1-1.4-.7zM475.429 388.61c0 2.5-.4 4.7-.9 5.1-.5.3-.7 2.1-.4 4 .4 2.2.2 3.5-.5 3.5-1.4 0 1.1 6.3 2.7 6.8.6.2 1.1 1.5 1.1 2.8 0 1.5.6 2.4 1.6 2.4 1.2 0 1.5.7 1.2 3-.4 3 1.3 4.3 2.7 2 .3-.6.1-1-.6-1s-.9-.3-.6-.7c.4-.3 1.5.1 2.6 1.1 1.5 1.4 2.3 1.5 4.5.5 1.4-.7 2.6-1.9 2.6-2.8.1-1.5.2-1.5 1.3 0 .7.9 2.3 1.9 3.8 2.2 2.1.5 2.5.3 2.6-1.6.1-1.2.5-3.4.9-4.9.4-1.9.1-3.6-1-5.3-1.3-1.9-1.5-3.7-1.1-6.8l.7-4.2-4.9-1.8c-2.6-.9-5.8-1.7-6.9-1.7-1.3 0-3.5-1.5-5.3-3.5-4.3-4.9-6.1-4.6-6.1.9zm17.6 24.4c-1.1 1-1.5-.4-.8-2.8l.7-2.5.3 2.3c.2 1.3.1 2.6-.2 3zM417.629 394.21c0 1.4.2 1.9.5 1.2.2-.6.2-1.8 0-2.5-.3-.6-.5-.1-.5 1.3z"/><path d="M458.729 412.61c-1.3.7-2 1.6-1.5 2.1.4.4-.2.3-1.3-.3-1.7-.8-2.2-.6-3.1 1.2-.6 1.4-.7 3.1-.2 4.2 1.7 4 4.6 7.9 5.6 7.7.5-.1 1.2.3 1.5 1 .6 1.6-4.3 9.6-6 9.7-.6 0-.9.8-.6 1.9.3 1-.2 3.2-1.1 4.9-2.3 4.4-2 6.7 1 8.2 1.7.9 2.4 2 2.1 3.2-.4 1.5.1 1.8 2.9 1.8 1.9 0 3.4-.4 3.4-.8 0-1.3 4.9-.6 6.7 1 1 .9 3.3 1.9 5.1 2.3 2.3.5 3.2 1.2 3.2 2.7 0 1.9.4 2 5.3 1.4 2.8-.4 5.4-1.1 5.5-1.7.2-.5 1.1-.9 2-.9 1.2 0 1.3-.3.4-1.2-.7-.7-1.2-2.7-1.2-4.6v-3.3l2.3 2.6 2.2 2.7 5.3-5.2c5-4.9 5.4-5.1 7.2-3.5 1.2 1.1 2 1.3 2.5.5.8-1.2-3.2-7.4-7-11-1.4-1.3-2.5-2.9-2.5-3.7 0-.7-.6-1.3-1.3-1.3-1.6 0-6.7-7.8-6.7-10.3 0-1.7-.2-1.8-1.7-.6-1.5 1.2-1.6 1.2-1-.4.8-2 .3-2.1-2.6-.5-1.2.7-3.3 1.4-4.7 1.6-1.4.2-3.4 1.2-4.6 2.3-2 1.9-5.6 2.7-5.1 1.1.1-.4-1.5-2.5-3.6-4.5l-3.8-3.8 2.1-2.6c2.4-3 2-3.9-.9-2.4-1.4.8-2.2.8-2.7-.1-.5-.7-.3-.8.6-.3.8.5 1.1.3.8-.5-.6-1.9-1.9-2-4.5-.6zm11.7 19.1c0 1.5-1.8 3-2.7 2.2-.2-.3-.2-1.5.2-2.6.7-2.3 2.5-1.9 2.5.4zm-5 5.5c0 .5-1 1-2.2 1-1.9 0-2-.2-.8-1 1.9-1.3 3-1.3 3 0zM506.529 417.31c.5 1 1.7 1.9 2.6 1.9 1.3 0 1.4.3.5 1.2-1 1-1.9 1-4.4 0-3-1.1-4.8-.9-4.8.6 0 .4 1.6 2.4 3.5 4.5s3.3 4.3 3 4.8c-.4.5.1.9.9.9 1.7 0 2.1 1.2.9 2.4-2.3 2.3.9 6.6 4.8 6.6.9 0 2.2 1.4 2.9 3 1.1 2.7 1.1 3.2-.6 4.5-1.1.8-2.7 1.5-3.6 1.5-2.4 0-2.3 2.7.2 4 1.1.6 1.7 1.6 1.4 2.5-.4.8.1 1.7 1 2.1.8.3 1.8 2.1 2.2 3.9.5 2.9 1.1 3.4 4.7 4.4 2.8.7 4.5 1.8 5.2 3.3 1.5 3.5 5.2 3.6 6.6.1.6-1.6 1.3-2.2 1.6-1.6.3.7 1.1 1.3 1.9 1.3.8 0 1.7.7 2 1.5.4.8 1.7 1.5 3.1 1.5 1.3 0 2.2-.4 1.9-.9-.3-.5.1-1.2 1-1.5.9-.4 1.4-1.3 1-2.1-.3-.8-.1-1.5.5-1.5 1.3 0 .1-4.2-1.5-5.2-.6-.4-1.5-.2-2.1.5-.5.7-3.4 1.4-6.2 1.5-5.1.2-5.3.1-5.3-2.4 0-1.6-1.1-3.6-3-5.2-1.6-1.5-3-3.2-3-3.9 0-.7-.7-1.3-1.5-1.3s-1.9-.9-2.5-2c-.6-1.1-1.6-1.8-2.2-1.4-.6.4-.9.1-.6-.7.7-2 4.7-2.4 5.4-.5.3.9 1.1 1.3 1.7.9.7-.4.8 0 .4 1.2-.9 2.2.9 4.5 3.5 4.5 1 0 3.2 1.4 4.9 3.2 2.6 2.9 3.5 3.3 9.1 3.4 3.5.1 7.4.4 8.8.7 1.4.2 2.8.5 3.3.6.4 0 .6.4.5.9-.5 1.5 3.7 5 7.7 6.3 2.2.7 5.8 3.3 8.1 5.7 3.6 3.8 4.2 4.1 5.4 2.7 1.1-1.4 1.5-1.4 3.6 0 5.3 3.5 6 .5 1-4.3-1.8-1.7-3.7-4.4-4.1-5.9-.9-3.6-2.3-5.3-4.6-5.3-1 0-2.3-.9-2.9-2-1.1-2 .3-3 1.5-1 1.1 1.7 2.4 1.1 4-2 2.1-4 3.5-3.8 3.5.7 0 4.1 2.4 7.5 4.7 6.6 1.2-.5 1.4-.1.9 1.4-.7 2.3 2.7 6.2 3.9 4.3.4-.6 2.5-1 4.8-.8 2.6.1 4.2-.2 4.5-1 .3-.9 1.2-.5 2.9 1.3 1.4 1.4 2.9 2.5 3.2 2.5 1.1 0 1.2-4.3.2-6.5-1.6-3.4-2.5-6-2.6-7 0-.6-.4-1.6-.9-2.3-.5-.8-.4-1.8.2-2.4.6-.6.8-1.7.5-2.4-.3-.8 0-1.4.5-1.4.6 0 1.3-.9 1.7-1.9.3-1.1 1.6-2.1 2.8-2.3 1.5-.2 2.3-1.1 2.5-2.8.2-1.4 1.1-3 2-3.5 5.6-3.1 8.1-5.1 7.7-6.2-.2-.7 0-1.5.5-1.8.6-.4 1-1.5 1-2.7 0-1.4-.5-1.8-1.5-1.4-1 .3-1.8-.1-2.2-1.2-1-2.7-3.5-4.2-6.8-4-1.8.1-4.6-.9-7.2-2.6-3.1-2.1-4.6-2.5-6-1.8-1 .5-2.4.7-3.1.5-.8-.3-1 .1-.6 1.1.3.9.2 1.6-.3 1.6-1.4 0-3.3 6.2-2.7 8.7.8 2.7-2 3.2-3.4.7-.7-1.2-1.4-1.4-2.8-.6-1.1.5-2.8.6-3.9.1-1.1-.4-2.8-.8-3.9-.8-1.6-.1-1.8.4-1.1 3.6 1 5.4.8 7.6-.8 8.8-2.1 1.5-3.1 6.5-1.3 6.5.8 0 1.6.7 1.9 1.4.4 1 .1 1.3-.9.9-.7-.3-1.4 0-1.4.6 0 1.7-5 1.3-5.7-.5-.4-1.1-1.3-1.3-3.6-.8-1.6.3-3.2.2-3.6-.2-.3-.5-2-1.4-3.7-2-3.1-1.1-3.3-1-5.3 2.7-1.4 2.3-1.8 4-1.1 4.4 1.6 1 1.2 2.5-.8 2.5-1.9 0-4.6-3.6-3.7-5 .3-.5-.5-1.2-1.7-1.6-1.2-.4-3.1-1.8-4.1-3.1-1.5-1.9-2.2-2.1-3.3-1.2-1 .8-1.4.8-1.4 0 0-.6-.9-1.1-2-1.1s-2-.5-2-1.1c0-.6-1.5-.9-3.7-.7-3.2.3-4-.1-5.9-2.9-1.2-1.8-2.4-2.9-2.8-2.6-1 1.1-3.6-6.5-3.6-10.7 0-4.5-2.8-8.3-6.7-9.3-2-.4-2.1-.3-1.2 1.4zM491.029 462.71c-1 1.5-1.5 3.3-1.2 4 .3.8.1 1.7-.4 2-.6.4-1 1.8-1 3.2 0 2.1-.4 2.5-2.3 2.1-1.3-.3-2.4 0-2.4.6s1.4 1.2 3.1 1.3c1.7.1 4.7.5 6.7.8 2.6.5 3.9.3 4.8-.9.8-.9 1.8-1.6 2.3-1.6.5 0 1.6-.7 2.4-1.5 1.9-1.9 1.5-1.9-2.4.1-3 1.4-4.5 1.7-8.3 1.2-1.9-.2-1.4-3.6.6-5.3 1.3-1.1 1.5-6.8.3-8-.3-.3-1.3.6-2.2 2zM507.629 461.91c-1.8.3-2.3 1-1.9 2.4.3 1.2 0 1.9-.9 1.9-.8 0-1.4.4-1.4 1 0 1.9 2.6 1 5.3-1.8 2.7-2.8 3.4-4.3 2-4.1-.5.1-1.9.4-3.1.6z"/><path d="M545.029 475.61c.3 1.3.1 2.7-.5 3-.7.5-.7 1.3.2 2.6 1.7 2.8 7.3 2.7 8.2-.1.5-1.4 1.3-1.9 2.5-1.6 1.3.3 1.7 0 1.3-.9-.3-.8.1-1.4 1.1-1.4.9 0 1.6-.4 1.6-.9 0-2-7.4-3-8.5-1.1-.4.6-1.7.4-3.6-.5-2.9-1.6-3-1.6-2.3.9zM601.529 478.11c-.9.6-1 1.1-.3 1.5.6.4.9 1.3.5 2.1-.3.8 0 1.5.6 1.5s1-1.3.9-3c-.1-1.7-.2-3-.3-3 0 0-.6.4-1.4.9zM491.329 478.91c-1.1.3-1.5 1.1-1.2 2.3.3 1.2-.2 2-1.8 2.5-2.1.7-2.1.8-.5 2 1.4 1.1 2.1.9 4.2-1 3.6-3.3 3.2-6.7-.7-5.8zM589.629 479.11c-.9.5-.3 1.5 1.8 3.4 1.6 1.5 3.3 2.7 3.7 2.7.5 0 1.8 1.5 3.1 3.3l2.3 3.2-.3-3.5c-.3-3-.7-3.6-3.2-4-1.6-.3-3.2-1.2-3.4-2-.5-1.3-.3-1.3 1.1-.1 1 .7 1.7 1.1 1.7.8 0-1.3-5.7-4.5-6.8-3.8zM533.729 484.71c-3.2 2.2-3.2 2.3-1.3 4 1.3 1.2 2 1.4 2 .5 0-.6 1.1-2.1 2.5-3.2 5-3.9 2.1-5.2-3.2-1.3zM412.429 487.21c0 .5.5 1 1.1 1 .5 0 .7-.5.4-1-.3-.6-.8-1-1.1-1-.2 0-.4.4-.4 1zM489.929 489.11c-.3.5-1.9 1.3-3.7 1.6l-3.1.7 3.2 1.4c4.9 2.1 6.4 1.9 5.1-.6-.6-1.1-.8-2.5-.5-3 .3-.6.4-1 .1-1-.3 0-.7.4-1.1.9zM604.129 496.81c-.3.3-.2 1.4.3 2.3.5.9 2 4.1 3.4 7.1 2 4.4 2.2 5.6 1.1 6.3-1.9 1-.4 5.8 3.5 10.6 2.7 3.5 2.9 4.2 1.8 6.6-.9 2.1-.9 2.8.1 3.4.6.4 1.3 1.8 1.4 2.9.1 1.6.8 2.2 2.4 2.2 1.6 0 2.1-.4 1.7-1.5-.9-2.2.6-1.9 4.9 1 3.6 2.5 5 2.1 2.5-.7-.7-.7-1.4-2.3-1.5-3.4-.3-3.1 5-3.8 9.7-1.5 1.9 1 4 1.6 4.7 1.4.6-.2 2.7.3 4.5 1.3 3.3 1.7 8.5 5.4 7.6 5.4-.3 0 .9 1.5 2.6 3.4 1.7 1.8 3.5 3 4.1 2.6.6-.4 2.2-.6 3.8-.4 1.5.1 2.7-.2 2.7-.8 0-.6.8-.4 1.8.5 2 1.8 3.3 1.2 4.9-2.4.7-1.6.8-3.1.2-4.2-1.2-2.1-.1-6.7 1.6-6.7.7 0 1.7-.6 2.3-1.3 1.5-1.8-1.7-4.6-4.3-3.7-1.1.4-3.1.2-4.6-.3-4.1-1.6-6.2-.3-5.4 3.3.5 2.4.3 3-1.1 3-1 0-2.5.7-3.5 1.6-1.8 1.7-2.2 1.5-6.7-4.1-1.1-1.3-1.7-1.4-2.8-.4-1.1.9-2.4.9-5.7 0-11.3-3.2-14.1-4.5-16.5-7.2-1.9-2.4-2.7-2.7-3.8-1.8-.8.7-1.6 1-1.7.8-.1-.2-1.8-2.4-3.7-4.9-1.9-2.5-3.5-5.6-3.6-7-.2-4.5-5.2-14-7.4-14-.4 0-.9.3-1.3.6zM290.929 512.81c-1.7 1.3-1.8 1.6-.5 2.4 1 .6 1.6.5 1.9-.3.2-.7.8-1.5 1.4-1.8.5-.4.5-.9 0-1.2-.4-.3-1.7.1-2.8.9zM278.329 514.81c-.9 1.2-2.4 1.5-5.1 1.1-3.1-.4-4-.1-5.3 1.9-.8 1.3-2.8 3.8-4.5 5.6-5.6 6.2-6 6.8-6 8.8 0 1.1-.7 2.3-1.6 2.7-.9.3-1.3 1.2-.8 2.2.4.9.6 2.8.5 4.3-.1 1.6.3 2.8.9 2.8.6 0 1.5 1.2 2.1 2.7.8 2.2.6 3-1.6 5.3-2.3 2.4-2.4 2.7-.8 4.3 1.6 1.6 1.6 1.7-.5 1.7-1.2 0-2.2-.6-2.2-1.4 0-2-3.4-2.9-8-2.1-2.5.4-4 1.2-4 2.1 0 2.3-2.6 1.6-4.5-1.3-1.5-2.3-1.9-2.4-2.7-1-.7 1.3-1.3 1.4-2.7.5-1.1-.7-2.9-.8-4.7-.3-1.6.5-3.2.8-3.5.7-.4-.1-1 1-1.3 2.3-.4 1.6-1.1 2.2-2.1 1.9-.8-.4-1.5-.1-1.5.6 0 1-.3 1-1.5 0-1.3-1.1-1.4-1-.9.4.4 1-.3 2.5-1.8 4.1-2.2 2.2-2.7 4.1-1.9 7.6 0 .4 1.4 1.2 3 1.9 2.2.9 2.8 1.6 2.3 3.3l-.5 2.1-1-2.2c-.6-1.2-1.3-2.2-1.7-2.2-.7 0-4 4.4-4 5.4 0 .9 3.5 1.2 5.6.5 1.8-.6 2.1-.4 1.7 1.1-.7 2.5 3.4 9 5.5 9 2.3 0 3.7-1.2 3.7-3 0-.8 1-1.6 2.3-1.8 3.5-.5 4.5-3.5 2.1-6.6-1.1-1.4-1.5-2.6-.9-2.6s.8-.5.5-1c-.3-.6 0-1.3.8-1.6.9-.3 1.3-1.3.9-2.6-.4-1.5-.2-1.9.8-1.3 1.6 1 3.1-1.4 2.4-3.7-.4-1.3.2-2.1 2-2.8 1.4-.5 2.6-1.4 2.6-2 0-1.9 3.2-1 3.7 1 .4 1.5 1.4 2 3.7 2 3.3 0 5.8-1.2 5.6-2.6 0-.5 1-1.1 2.2-1.2 1.3-.2 2.9-.9 3.7-1.5.7-.6 3.2-1.2 5.5-1.3 2.2-.1 3.5.1 2.8.3-.8.3-.4 1.1 1.2 2.4 2.6 2.1 3.7 2.4 3.4 1-.2-.5.1-.9.5-.9.5 0 2.1-1.2 3.7-2.7 2.1-2 2.9-2.3 3.3-1.2.3.8.2 1.8-.3 2.3-1.2 1.2 0 6.5 1.4 6.2.6-.1 2.1.3 3.4 1 1.9 1.1 2.3 1 2.8-.3.4-.8.1-2.2-.5-2.9-1.6-1.9-3.2-7.6-2.1-7.6.4 0 .6-.9.3-2s0-2 .6-2 1.1-1.1 1.1-2.5c0-2.1.5-2.5 2.8-2.5 3.4 0 5.7-1.4 4.7-3-.4-.6.1-2 1.1-3.2 2.4-2.5 2.7-7.8.6-10.1-1.5-1.7-1.5-1.7.3-1.1 1.4.6 1.7.4 1.2-.9-.4-1.1.1-1.8 1.4-2.2 1.6-.6 2.9-4.5 1.3-4.5-1 0-4.9 2.3-5.6 3.3-.9 1.5-3.8-1.1-3.8-3.4 0-1.1-.4-1.9-1-1.9-.5 0-1-1.3-1-2.8 0-2.6-.3-2.8-3-2.4-1.7.2-3.6-.1-4.4-.7-1-.9-1.7-.7-2.7.5zm-25.9 43.4c0 .5-.4 1-1 1-.5 0-1-.5-1-1 0-.6.5-1 1-1 .6 0 1 .4 1 1zM302.229 518.91c.3 1.6.7 2.2 1 1.5.2-.6.8-1 1.3-.6.5.3.9-.4.9-1.5 0-1.4-.6-2.1-1.9-2.1-1.5 0-1.7.5-1.3 2.7z"/><path d="M673.429 536.21c0 .6.8 1.3 1.8 1.6.9.3 2.4.9 3.3 1.4.9.5 2 .5 2.5 0 .5-.4 1.6-1 2.4-1.3.8-.2.3-.3-1.2-.1-1.5.2-2.8 0-3-.5-.5-1.3-5.8-2.3-5.8-1.1zM225.429 539.11c0 .6.4 1.3 1 1.6.6.3.7-.1.4-.9-.7-1.8-1.4-2.1-1.4-.7zM228.929 544.21c1 1.1 2 2 2.3 2 .3 0-.3-.9-1.3-2s-2-2-2.3-2c-.3 0 .3.9 1.3 2zM232.929 545.21c1 1.1 2 2 2.2 2 .2 0-.1-.9-.7-2s-1.6-2-2.2-2c-.6 0-.3.9.7 2zM242.429 548.41c0 1.7-.3 1.9-.9 1-.7-1.1-.9-1.1-1.4.1-.7 2 0 2.6 2.2 2 1.9-.5 2.7-5.3 1-5.3-.5 0-.9 1-.9 2.2zM661.429 547.11c0 .5.5 1.3 1 1.6.6.3 1 .2 1-.4 0-.5-.4-1.3-1-1.6-.5-.3-1-.2-1 .4zM274.429 568.21c0 .7 2.4 2 3.6 2 1.3 0 .1-1.9-1.6-2.3-1.1-.3-2-.2-2 .3zM214.429 591.21c2 1.3 3.3 1.3 2.5 0-.3-.6-1.4-1-2.3-1-1.5 0-1.5.2-.2 1z"/></g></svg>