<svg version="1" xmlns="http://www.w3.org/2000/svg" width="1414.318" height="752.993" viewBox="0 0 1060.739 564.745"><g fill="#222"><path d="M1019.588 1.645c0 2.6-2.5 5-5.2 5.1-1 0-1.8.7-1.8 1.5s-.2 1.5-.4 1.5c-4 0-11.4 2.5-12.8 4.2l-1.6 2.2-3.9-1.9c-2.1-1.1-4.2-2.6-4.6-3.3-.9-1.3-8.7-1.7-8.7-.4 0 .4-2.7 1.4-6.1 2.1-4.1.9-7.4 2.5-10.1 4.7-2.2 1.9-4.9 3.4-5.9 3.4-1.1 0-2.2.8-2.5 1.7-1.9 6.1-4.7 10.3-6.7 10.3-1.2 0-3.5.7-5.2 1.6-2.6 1.3-3.1 1.3-4 .1-.9-1.3-1.4-1.2-3.3.8-1.2 1.2-2.2 2.7-2.2 3.3 0 .5-1.5 1.2-3.2 1.5-1.8.3-4.7.9-6.3 1.2-2.5.5-3.6.1-6.3-2.5-2.7-2.6-3.8-3-6.3-2.5-1.7.4-4.9 0-7.8-1-4.6-1.5-5.2-1.5-8.2.1-2.6 1.3-3.7 1.4-5.1.5-1.4-.9-1.8-.8-1.8.2 0 2.1-5.1 3.5-8 2.1-6-2.9-10.9-4.6-11.8-4-.6.3-2.9-1.5-5.1-4.2-3.7-4.3-4.5-4.8-7.4-4.4-1.7.3-3.7 1.2-4.4 2.1-.7.9-1.3 1.2-1.3.7s-.6-.3-1.4.3c-1.2 1-1.6.8-2.1-1-.7-2-.8-2-1.7-.5-1.1 1.9.7 7.8 3.4 11.4.9 1.3 2 4.3 2.4 6.8.5 3.4 1 4.4 2.5 4.4 1.1 0 2.4 1.1 3.1 2.5.8 1.8 1.7 2.4 3 1.9 1-.3 3.6.5 5.8 1.7 4.1 2.3 4.8 3.3 3 4.4-.5.3-.7 1.2-.3 2 .3.8 0 1.5-.6 1.5s-1.1.5-1.1 1c0 .6 1.2.9 2.7.8 2.6-.3 2.7-.2 2.6 4.7-.1 3.4-.5 4.9-1.3 4.7-.8-.2-1.1.4-.8 1.5.3 1-.1 2.5-.9 3.2-1.2 1.1-1.2 1.6.2 3.1.9 1 1.4 2.3 1.1 2.8-.8 1.4 1.3 2.9 5.4 3.7 1.9.4 3.9 1 4.5 1.3.5.3 2.4.7 4.2.9 2.9.3 3.6-.1 5.1-2.7.9-1.6 2.5-3 3.5-3 .9 0 3.7-1.8 6.1-4 4.8-4.4 4.3-4.4 12.5.7 1.9 1.2 3.8 2 4.2 1.8.4-.3 1.2.2 1.9 1 1.7 2.1 4.1 1.9 3.3-.2-.5-1.2-.2-1.5 1-1 1.1.4 2.5-.1 3.7-1.3 1.8-1.8 1.9-1.8 3.4.5 2 3 2 3 0 5-1.9 1.9-1.1 4.5 1.4 4.5 1 0 2.4.6 3 1.2 1 1 .8 1.6-.7 2.8-2 1.5-2 1.5-.1 5.7 1.2 2.8 1.5 4.3.8 4.3s-.5.6.4 1.2c.9.7 1.9 3.3 2.2 5.8l.7 4.5-3.2-3-3.2-3 .6 3.2c.6 3 .4 3.3-1.7 3.3-1.3 0-2.9-.7-3.6-1.5-.9-1.1-1.5-1.3-2-.5-.5.9-1.3.8-2.8-.1-2.3-1.5-4.2-.5-2.5 1.2 1.7 1.7-2 4.9-4.7 4.2-1.9-.5-2.1-.3-1.6 1.5.6 1.9.2 2.2-3.2 2.8-2.8.4-4.3 1.3-5 2.9-1 2.2-.9 2.3 2.4 1.9 2.5-.3 4.4.2 6.4 1.6 1.9 1.4 3.1 1.7 3.5.9.7-1 3.1-.7 6.9.7 1 .4 1.6.1 1.6-.9s.8-1.3 2.5-.9c1.4.2 2.5.9 2.5 1.6.1 2.7 1.7 3.8 4 2.6 1.7-.9 2.5-.9 3.9.4 1 .9 2.4 1.6 3.2 1.6 1.7 0 4.9-5.3 4.9-8.1 0-1 .5-1.9 1.1-1.9.6 0 .8-.9.4-2-.7-2.3-.5-2.3 2.9-1.1 2.3.9 2.5.8 3.1-3.1.5-2.9 1-3.7 1.8-2.9.6.6 1.9 1.1 2.9 1.1 1.5 0 1.6-.3.7-1.9-1-1.4-.9-2.3.3-4 .9-1.2 1.4-3.1 1.1-4.1-.3-1.1.1-3.3.8-4.9 1.3-2.8 1.6-3 5.9-2.5 6.3.8 7.3 1.2 6.7 2.9-.4.9-.1 1.2.7.9.7-.3 1.3.2 1.3 1s-.5 1.2-1.2 1c-.7-.3-1 .7-.7 3.1.3 2.7 1.1 3.9 2.9 4.6 1.3.5 2.1 1.4 1.8 1.9-.4.6-.1 1.7.5 2.5.9 1.1 1.7 1.2 3.2.4 1.6-.9 2-.7 2.5 1 .4 1.6.9 1.8 2.2 1.1 1.4-.7 2.6-.1 5.6 2.8 2.1 2 4.4 5.2 5.2 6.9.7 1.8 2 3.3 2.8 3.3.8 0 4 2.5 7.2 5.4 5.9 5.8 11 8.6 12.1 6.9 1.2-1.8 4.3-2.3 6.2-1.1 1.6 1 2.3 1 3.5-.3 1.7-1.7 1.2-3-5.1-13.6-1.7-2.9-1.7-3.3-.2-5 1.2-1.3 1.4-2.3.8-3.3-2.2-3.5.7-12 4.1-12 1 0 2-1.1 2.3-2.5.4-1.4 1.1-2.5 1.6-2.5 1.3 0 3.3-3.9 3.9-8 .5-2.6 1.2-3.6 2.9-3.8 2.6-.4 3-3.8.7-6.8-.8-1-1.5-2.9-1.5-4 0-1.8.5-2 2.8-1.7 2 .3 2.3.2 1.3-.6-1.3-.8-1.3-1.4-.1-3.8.7-1.5 1.2-3.6 1.1-4.5-.1-.9.7-2.2 1.8-2.8 1.2-.6 2.1-1.7 2.1-2.5 0-.9.9-1.3 2.6-1.1 2 .2 3.6-.6 6-3.3 3.5-3.6 4.9-7.6 1.9-5.1-.8.7-2.2 1-3 .6-1-.4-1.4-.2-.9.5.4.7.1 1-.7.7-.8-.3-1.4-.9-1.5-1.4 0-.5-.4-2.2-.9-3.7-.5-2.1-.3-3.3 1-4.7 2.9-3.2 1.3-5-4.7-5-4.9-.1-5.6-.4-9.8-4.5-2.5-2.5-3.9-4.5-3.2-4.5.6 0 1.2-.6 1.2-1.3 0-.8-1.3-1.2-3.5-1.2-4 .2-6.8-2.1-4.4-3.6.8-.5 1-.9.4-.9-.5 0-.3-.5.5-1.1 1.1-.8 1.2-1.2.3-1.6-.7-.2-1.3-1.4-1.3-2.6 0-1.1.3-1.7.7-1.4.3.4 1.2.2 1.9-.3.8-.8 2.3-.3 5 1.5 2.2 1.5 4 2.2 4.2 1.6.2-.6 1.2-1.1 2.1-1.1 1 0 2.7-1 3.9-2.3 2-2.1 2.1-2.5.6-4.5-1.3-1.8-1.3-2.6-.3-3.8.6-.8.9-1.7.6-2.1-.4-.3-.2-1.4.3-2.3.7-1.3.6-2-.6-2.4-2.8-1.1-3.5-.7-2.4 1.3 1.3 2.6 1.3 3.1-.4 3.1-.8 0-1.6.5-1.8 1.2-.5 1.3-6.8-2.6-6.8-4.2 0-.5-.6-.7-1.4-.4-.8.3-1.7 0-2.1-.6-.5-.8-1.2-.4-2.3 1.1l-1.5 2.2-.8-2.1c-.5-1.2-1.5-2.2-2.4-2.2-1.9 0-2-1.6 0-2.4.8-.3 1.5-1.2 1.5-2.1 0-1.4-.5-1.6-3.8-1.9-.7-.1-1.7-.8-2.2-1.6-.8-1.2-1-1-1 .9zM1039.088 4.745c-1.6.7-1.7.9-.3.9.9.1 2-.4 2.3-.9.7-1.1.7-1.1-2 0zM866.388 95.145c-1.9 2.6-.8 4.6 2.4 4.6 1.7 0 2.2-1 1.9-3.8-.1-.6.3-1.2.9-1.2.6 0 .8-.5.5-1-1.1-1.7-3.9-1-5.7 1.4zM590.688 100.845c-.7 1.7-1.1 3.3-.8 3.6 1.1 1-2.2 3.4-6 4.5-3 .8-3.9.7-4.9-.6-1-1.4-1.3-1.4-2.3-.2-1.6 1.9-13 1.9-16.6 0-3.4-1.8-4.5-1.8-4.5 0 0 .7-1.8 3-4 5s-4 4-4 4.6c0 .5-.9 1-2.1 1-1.1 0-2.9.5-3.9 1-1.3.7-2.1.7-2.5-.1-.5-.7-1.5-.3-3 1.1-2.3 2.2-5.5 2.4-9.5.6-1-.4-2.8.9-5.5 4.4-2.3 2.9-4.5 4.8-5.3 4.5-.7-.3-2.3.6-3.6 2-1.2 1.3-3.5 2.9-5 3.5-1.5.6-3 1.8-3.3 2.9-.3 1.3-1.1 1.7-2.9 1.3-1.5-.3-2.3-1-2-1.7.2-.7-.4-1.9-1.4-2.8-1.5-1.3-2.4-1.3-5.4-.3-2.5.9-3.3 1.5-2.5 2.3 1.2 1.2-.4 5.3-2.1 5.3-.5 0-.7.6-.5 1.2.3.7-.6 1.8-1.9 2.4-2.3 1.1-2.6.9-3.5-1.7-.8-2.3-1.6-2.9-4-2.9-1.6 0-3.3-.5-3.6-1-.3-.6-1.9-1-3.4-1-2.5 0-3 .5-3.5 3.4-.5 2.5-1.6 4-4.1 5.5-1.9 1.1-3.5 2.7-3.5 3.6 0 .8-.6 1.5-1.2 1.5-.8.1-.7.5.4 1.4 1.7 1.3 1.5 4.8-.3 7.2-.5.6-.6 1.4-.2 1.7.3.4.1.7-.6.7-.8 0-1.1.6-.7 1.7.4 1 .4 1.4 0 1.1-.7-.8-7.9 2.6-8.9 4.2-.9 1.4-7-6.6-7.9-10.3-.3-1.5-1.1-2.7-1.6-2.7-.6 0-1-.7-1-1.6 0-1.3-.3-1.4-1.3-.5-.9.7-1.7.7-2.4 0-.5-.5-3.4-1.1-6.4-1.3-3-.2-6.9-.7-8.8-1.1-3.2-.8-3.3-.7-2.2 1.3 1.2 2.3 1.5 5.5.4 4.9-1-.5-4.3 3-3.5 3.7.3.3.1.6-.5.6s-1.3.9-1.6 2c-.3 1.2-1.4 2-2.7 2-3 0-6 1.8-6 3.5 0 .8-.5 1.5-1.2 1.5-.9 0-.9.3 0 1.2 2 2 1.4 3.1-1.3 2.4-1.4-.4-2.5-.2-2.5.4 0 .5.5 1 1.1 1 1.4 0 0 4.3-1.7 5.3-.8.4-1.4 1.7-1.4 2.7 0 1.1-.6 1.9-1.2 1.8-.7-.2-1.2.3-1 .9.1.7-.2 1.3-.8 1.3-.5 0-1.9.9-3 2-1.6 1.6-2.5 1.8-4 1-3.2-1.7-6.7-1.2-7.3 1-.3 1.2-1.4 2-2.6 2-1.4 0-2.1.6-2.1 2 0 2.1-2.7 4-5.8 4-2.6 0-6.3 7.4-5.5 11.1.3 1.5 0 3.6-.6 4.8-1 1.8-1.5 1.9-3.3 1-1.7-.9-1.8-1.3-.7-2 1.2-.8 1.2-1.1-.1-1.9-1-.6-1.6-.6-1.8 0-.2.6-1.5 1-2.8 1-1.5 0-2.4.6-2.4 1.5 0 .8-.7 1.5-1.5 1.5s-1.5.7-1.5 1.5c0 2.7-15.6 18.7-17.9 18.4-2.9-.4-5.2 1.2-4.6 3.1.7 2.2-1.9 4-4.9 3.2-1.2-.3-1.8-.1-1.3.3.4.5-2.1 2.1-5.5 3.7-3.5 1.6-7.4 3.5-8.8 4.3-1.4.7-4.3 1.8-6.5 2.4-3.5.9-4.2.8-6.2-1.1l-2.3-2.1v2.6c0 1.8-.5 2.7-1.5 2.7-.9 0-2 1.2-2.6 2.7-.5 1.4-1.7 3.1-2.5 3.7-.8.7-1.6 1.9-1.7 2.8-.2.9-.9 2.3-1.6 3.1-1.7 2.1-.5 12 2 15 1 1.3 2 4.6 2.2 7.5.3 4.1.9 5.6 3 7.2l2.5 2-.5-2.1c-.5-1.9-.3-2 1.8-1.4 2.9.8 6.7 5.1 7.6 8.5.3 1.4 1 3 1.5 3.7.6.7.4 1.3-.4 1.6-.7.3-.3.6 1 .6 1.2.1 2.2.6 2.2 1.2 0 1.1-2.5.8-6.3-.7-1.2-.4-1.7.3-2.3 3-.3 2-1.2 3.6-1.8 3.6-1.7 0-10.6 10.5-10.6 12.4 0 .9-.6 1.6-1.4 1.6-.7 0-1.9.7-2.6 1.5-.7.8-2.3 1.5-3.6 1.5-2.1 0-2.3.3-1.3 2.6.7 2.1.6 3.1-.6 4.4-2.3 2.5-1.8 5.6 1.1 7.9 1.7 1.3 2.4 2.6 2 3.7-.5 1.3-.9 1.4-2.1.4-.8-.7-1.5-2.1-1.5-3.1 0-2.5-1.4-3.1-4.3-1.8-2.4 1.1-2.4 1.3-1.1 4.4 1 2.5 1.1 4.1.3 6.4-.6 1.7-1.5 3.1-2 3.1s-.9.8-.9 1.8c0 .9-.9 2.3-2 3-1.3.8-2 2.3-2 4.1 0 1.7-.4 3.3-1 3.6-.5.3-1 1.7-1 3 0 1.8-.4 2.3-1.5 1.9-2.2-.9-.8 5.4 1.9 8.6 1.2 1.4 2.8 3.3 3.6 4.3 1.2 1.7 1.1 1.8-1.3 1.2-3.8-1-6 1-5.2 4.7.5 2.2.3 2.8-1 2.8-1.2 0-1.5.6-1 2 .7 2.1 0 2.4-4.2 2-2.3-.1-2.9 1.3-2.5 6.2.1 1.6-1.3 1.9-3.5.5-1.4-.9-4.5.2-3.7 1.4.9 1.5-.6 1-4.2-1.2l-3.4-2.1v2.6c0 2.1-.7 2.7-4.2 3.7-2.4.6-6 2.4-8 4.1-2.1 1.6-4.3 2.6-4.9 2.2-.8-.5-1 .4-.7 2.9.4 3.7-.1 3.8-3.7.7-3-2.6-11-3.2-13-1-1.6 1.8-1.9 1.8-8.2 0l-6.4-1.8-1.2 2.5c-.6 1.4-1.6 2.2-2.4 1.9-.8-.3-1.6.1-1.9.9-.4.8-1.2 1.5-1.9 1.5-2.3 0-2.8 2-1.1 3.9 1.8 1.9 2.2 6.6.6 7.6-1.4.9-.1 3.2 2.1 3.8 1 .3 1.9 1.2 1.9 2 0 2.2 4.4 9.6 6.6 11.1 1.1.8 3.4 1.7 5.2 2.1 3.4.7 4.2 2.2 1.7 3.1-.8.4-1.3 1-1 1.5.9 1.4-.6 5.7-2.3 6.4-1.9.7-3.4-1.3-2.9-4.2.3-1.3-.2-2.4-1.1-2.8-2.1-.8-2.5 0-1.6 2.7.4 1.3.7 2.7.6 3.2-.2.4.1 1.3.6 2 1.3 1.6 2.3 7.6 1.3 7.6-.5 0-1.1-.9-1.4-2.1-.3-1.2-1-1.8-1.7-1.4-.6.4-.9 1.3-.6 2 .2.7-.4 1.5-1.5 1.8-2.6.7-2.4 2.2.7 4.2 2 1.3 2.8 1.4 3.4.5 1.1-1.8 3.3-.1 2.7 2-.7 2.9 4.7 7.5 8.3 7.2 4.5-.5 7 .6 7 3.1.1 5.9 4 5.6 7.1-.5 1.2-2.4 2.5-3.8 3.3-3.5.8.3 2.3-.1 3.5-.9 2.2-1.6 6.6-1.2 10.6.9 1.1.6 2.7 1.2 3.5 1.3.8.1 2.3.5 3.3.9 1.2.5 1.7.2 1.7-1.1 0-1.4.3-1.5 1.2-.6 1.7 1.7 3.1 1.5 2.4-.3-.9-2.4 5.6-1.9 8.9.7 3.2 2.5 8.7 2.8 11.2.6 3.1-2.6 4.2-2.9 6.3-1.8 1.6.9 2 .8 2-.5 0-2 6.9-2.1 9.6-.1 1.1.9 3 1.2 4.6.9 1.6-.3 3.5 0 4.3.7.8.7 2.5 1 3.9.6 2.5-.6 5 .4 10.1 4.1 3.5 2.5 5.3 2.9 7.7 1.9 1.3-.6 1.5-1.2.8-2.6-.7-1.4-.4-2 1.8-3.1 1.5-.7 3.6-1.5 4.7-1.6 1.1-.2 3-.4 4.3-.6 1.2-.2 2.9-1.2 3.7-2.3 1.7-2.2 2-3.8.5-2.9-.5.3-1 .1-1-.4 0-.6.7-1.1 1.5-1.1s1.5-.7 1.5-1.6c0-1.2.6-1.5 2.1-1.1 1.5.4 2.2-.1 2.9-1.7.5-1.3 1.6-2.6 2.5-3 .9-.3 1.3-1.1 1-1.6-.4-.6.6-3.6 2.1-6.6 1.6-3.2 3-5 3.5-4.3.5.8.8.8 1.3 0 .4-.6.4-1.6 0-2.2-.4-.8.1-.9 1.6-.4 1.9.6 2.1.4 1.5-1.6-.9-2.7-2.3-4.2-4.7-5.2-1.1-.4-1.5-.2-1.2.6.5 1.4-7.4 6.3-9.6 5.8-.8-.1-1.9-.7-2.5-1.3-.7-.7-.1-.8 1.9-.4 2.4.6 2.8.4 2.2-1-.4-1.1-.2-1.5.8-1.1.9.4 1.7-.2 2.1-1.4.4-1.1 1.2-1.8 1.9-1.6.7.3 1.3-.1 1.3-.9 0-.7-.4-1.1-.9-.8-.4.3-.8-.2-.8-1.2 0-1.5.2-1.5 2.3-.1 2.2 1.4 2.3 1.4 1.9-1.9-.3-2.4-.9-3.4-2.1-3.4-1.7 0-4.1-3.7-4.1-6.2 0-.9.3-.9 1.1-.1 1.9 1.9 7.9-3.3 7.9-6.8 0-1.6.5-2.9 1.1-2.9.6 0 .9-.5.7-1.1-.2-.6-.7-.9-1.2-.7-.5.2-1.5-1.3-2.1-3.2-1-3-.9-3.7.4-4.7 2.2-1.7 5-1.6 8.5.2 2.3 1.2 3.6 1.3 6.3.4 2.7-.9 3.3-1.5 3.3-4 0-1.7.6-3.2 1.5-3.5 2.3-.9 1.8-4.2-1.1-6-3.3-2.2-5.4-6.4-5.4-11.1 0-8.1 1.2-9.3 9.6-9.8 2.3-.2 4.6-.5 5.1-.8.4-.3 3.1-.5 6-.4 3.5 0 5.7-.5 6.8-1.6 1.8-1.9 4.5-2.3 4.5-.7 0 .5.7.7 1.5.4.9-.4 2.7.6 4.4 2.5 1.6 1.7 3.6 3.1 4.5 3.1.9 0 1.6.4 1.6 1s1 .5 2.6-.2c2.7-1.3 4.4-.1 4.4 3.3 0 1 1.1 1.9 2.5 2.1 2.8.6 2.9.4 1.4-2.3-1-2-1-2 3 .1 2.3 1.1 4.1 2.5 4.1 3 0 .6.7 1 1.5 1 1.7 0 1.9 1.4.5 4-.7 1.4-.6 2.3.6 3.5 2.4 2.3 3.8 1.3 4.4-3.1.3-2.1.9-4.5 1.4-5.2.5-.9 0-2.2-1.4-3.7-1.2-1.3-1.9-2.9-1.5-3.5 1.1-1.8-.4-6-2.1-6-1.1 0-1.4-.5-1-1.6.3-.9.6-2.2.6-3 0-.8 1-1.4 2.5-1.4 1.8 0 2.5-.5 2.5-2 0-2.6 1.2-2.5 3 .2 2.2 3.3 2.8 6.1 1.9 7.9-1.6 3.1 4.9 13.3 7.7 12.2.8-.3 1.4-1.4 1.4-2.5s.3-1.8.8-1.6c11.3 5.8 17.2 7.7 17.2 5.7 0-.5 1.7-.8 3.8-.6 4.1.3 8.2-2.4 8.2-5.5 0-2.4 1.2-2.3 4.2.5 2 1.9 3 2.1 5.6 1.5 2-.5 2.9-1.3 2.6-2.2-.3-.8 1.6-2.1 5.6-3.7 3.5-1.4 5.8-2.9 5.6-3.6-.6-1.4 1.6-2.3 4.2-1.6 2.2.5 7.1-3.5 5.5-4.6-.5-.3-1.2-1.4-1.6-2.3-.5-1.5-.3-1.6 2.1-.7 1.8.7 2.8.7 3 0 .2-.5 1-.7 1.8-.4.8.3 1.4 0 1.4-.6s.9-1.1 2-1.1 2-.5 2-1.1c0-.6.9-.8 2.3-.3 2 .6 2 .4-.6-2.4-2.3-2.4-2.7-3.4-1.9-4.9.9-1.7 1.9-1.9 7-1.5 5.7.4 6 .3 6.6-2.2.5-2.1 1.2-2.6 3.7-2.6 2.2 0 3.2-.5 3.6-2 .7-2.7 1.9-2.5 5.2.8 1.6 1.5 3.4 2.6 4.1 2.4.6-.2 2.6.6 4.2 1.8 2 1.5 4.5 2.3 7.2 2.3 2.2 0 4.6.6 5.4 1.3 1.9 2 3.6 1.7 6.6-1.1 1.5-1.4 3.1-2.5 3.7-2.5 1.3 0 1.1-1.4-.3-2.8-.9-.9-.8-1.2.4-1.2 2.4 0 4.9 1.1 4.4 1.9-.3.4 1.6 1.3 4.2 2s5.4 1.6 6.2 2c.8.4 2.3.5 3.2.3 1.6-.3 1.5-.8-.8-4.3-2.1-3.4-2.5-5.1-2.3-10.7.1-3.7-.2-7.5-.6-8.5-.5-1.2-.3-1.7.9-1.7 1.3 0 1.5-.7 1-3.8-.4-2.8-.2-4.1 1-5.1.9-.7 1.6-1.9 1.6-2.7 0-.7.9-1.6 2-1.9 1.6-.5 2-1.5 2-4.6 0-3.9.1-4 2.8-3.4 2.1.4 3.3.1 4.7-1.5 1-1.1 2.6-2 3.5-2 1.5 0 5-6.1 5-9 0-.8.9-1.1 2.5-.8 1.9.4 2.5.1 2.5-1.3 0-1.1.6-1.9 1.3-1.9 2.8 0 4.9-3.6 4.2-7.2-.5-2.5-.2-3.8.9-4.7.8-.7 1.8-3.6 2.1-6.6.7-4.9 3.2-9.5 5.4-9.5 1.2 0 1.1-9.3-.1-10.8-.6-.7-.8-2.9-.4-5.4.7-4.5-.9-12.9-3.1-16.3-.7-1.1-1.3-2.9-1.3-4 0-1.9.1-1.9 1.8.3 1.7 2.2 4.2 2.9 11.7 3.6 3.3.3 6.2-2.5 5.7-5.7-.2-.9.3-1.7 1-1.8.7 0-.5-.6-2.7-1.3-3.2-1-4.2-1-4.8.1-.4.7-1.5 1.3-2.4 1.3-1.3 0-1.4-.3-.5-1.2.7-.7.8-1.7.1-3-.7-1.4-.6-1.8.6-1.8 1.3 0 1.4-.4.4-2.1-.8-1.5-.8-1.9 0-1.5.7.4 1.1-.1 1.1-1.3s.7-2.1 1.6-2.1c1.4 0 1.4-.1 0-1.6-.9-.8-1.6-2-1.6-2.5 0-.6-.9-.7-2-.4-1.3.4-3.1-.2-5.1-1.6-2.5-1.8-3.3-1.9-3.9-.8-.5.7-1.2 1-1.6.7-.3-.4.1-1.5 1.1-2.4 1.5-1.6 1.5-1.8-.5-3.8-1.7-1.7-2.2-1.8-2.9-.7-.7 1.1-1.3.6-2.6-1.9-1.6-3.1-1.6-3.3.4-4.6 1.6-1.2 1.9-2.1 1.4-5.2-.3-2-1.1-4-1.7-4.5-.7-.4-.3-.9 1.1-1.3l2.3-.6-2-2.8c-1.9-2.7-1.8-6 .1-6 .5 0 .9-1.2.9-2.8 0-1.5.7-3.5 1.5-4.6 1-1.3 1.1-2.4.4-3.7-.5-1.1-.6-1.9-.1-1.9s1-1.2 1-2.7c0-1.5.5-2.9 1.1-3.1 1.6-.5 1.3-2.2-.4-2.2-.8 0-1.5-.6-1.5-1.4 0-2.1-2.8-4.6-5.3-4.6-1.2 0-3-1.2-4-2.5-1.7-2.4-1.7-2.5 0-3.1 3.7-1.1 4.8-2.2 4.8-4.9-.1-2.5.2-2.7 3.1-2.2 2.6.4 3.3.2 3.7-1.5.3-1.1 1.5-2.2 2.6-2.5 1.7-.4 2.1-1.3 2.1-4.2 0-2-.6-4.3-1.2-5-1.1-1.1-.5-1.2 2.8-.6 2.7.4 4.4.2 4.9-.4.3-.6 1.1-.9 1.6-.6 1.8 1.2 4.7-.6 5.2-3.3.6-2.9-3-13.2-4.6-13.2-.6 0-2.5-1.1-4.2-2.5-3.4-2.5-13.3-4-13.6-2-.3 1.5-3.2 3.4-5.1 3.5-1 0-1.8.8-1.8 1.7 0 1.3-.3 1.4-1.2.5-.8-.8-.8-1.5 0-2.5 1.4-1.6.6-2.7-2-2.7-1.1 0-1.6-.5-1.3-1 .4-.6-.7-1.3-2.4-1.6-1.6-.4-3.2-1.2-3.5-2-.3-.8-1.3-1.4-2.3-1.4-.9 0-2.8-1.1-4.3-2.5l-2.5-2.4-1.4 3zm-7.1 70.9c0 .5-.2 1-.4 1-.3 0-.8-.5-1.1-1-.3-.6-.1-1 .4-1 .6 0 1.1.4 1.1 1zm28.4 25.6c2.2.9 2 2.1-.5 2.7-1.2.3-1.8 1-1.5 1.5.3.6-.1.9-.9.8-2.3-.3-2.9-1.5-1.1-2.2.9-.3 1.6-1.2 1.6-2 0-1.6.2-1.6 2.4-.8zm17.6 28.1c0 .8-1.1 1.3-2.7 1.2-1.7-.1-2.1-.3-1-.6 2-.5 2.2-1.4.6-3-.6-.6-.8-1.7-.4-2.3.6-.9 1.2-.6 2.1 1.1.7 1.3 1.3 3 1.4 3.6zm-6.2 7.6c-.1.2.3 1.1 1.1 2 .7 1 .9 1.7.3 1.7-1.5 0-3.4-2.8-2.7-4 .4-.6.9-.9 1.2-.6.2.2.3.6.1.9zm-170.8 64.7c0 .5-.2 1-.4 1-.3 0-.8-.5-1.1-1-.3-.6-.1-1 .4-1 .6 0 1.1.4 1.1 1zm-33 25c0 .5-.2 1-.4 1-.3 0-.8-.5-1.1-1-.3-.6-.1-1 .4-1 .6 0 1.1.4 1.1 1zm-63.4 1.1c.3.6.1 1.5-.6 1.9-.7.4-1.4 2.7-1.5 5-.2 2.4-.7 4.6-1.2 4.9-.5.3-1.5 2.5-2.1 4.8-1 3.5-1 4.8.1 7 1.6 3.4.8 8.8-1.3 8.8-.8 0-1.8.4-2.2 1-1.6 2.2-2-.8-.6-4.9.8-2.5 1.2-4.7.8-4.8-.4-.2-2.4-2.5-4.4-5.1-2.9-3.8-3.4-5.1-2.6-6.7.5-1 1-2.8 1-4 0-1.3.8-2.4 1.8-2.7 1-.2 2.2-1.4 2.7-2.6.6-1.3 2.3-2.5 4-2.8 4.6-1 5.3-1 6.1.2zm44.4 7.4c0 .8-.4 1.5-1 1.5-.5 0-1-.7-1-1.5s.5-1.5 1-1.5c.6 0 1 .7 1 1.5zm5 8c.5-.3 1.1-.1 1.5.5.3.5-.3 1-1.4 1-1.4 0-2.1-.6-2-1.8 0-1 .3-1.2.6-.4.2.6.9 1 1.3.7zm-38.5 4.5c.3 1.1.4 2.4.1 2.9-.4.5-.1 1.1.6 1.3.6.2.8.9.4 1.6-.5.8-1.3.8-3.1 0-1.9-.8-2.2-1.4-1.4-2.4.6-.7.8-2.2.4-3.4-.4-1.4-.2-2 .9-2 .8 0 1.7.9 2.1 2zm-36.1 9.6c.9.8 1.6 2.1 1.6 2.9 0 1.9 8.5 5.8 11 5 1.5-.5 1.8-.3 1.4.8-.3.9.8 2.2 3 3.5 2 1.2 3.6 2.6 3.6 3.2 0 .7.8.9 2 .5 2.8-.9 4.4.3 2.8 2.2-.7.8-1.7 2.5-2.3 3.7-.6 1.1-1.9 2-2.8 2-1-.1-1.6.3-1.5 1 .3 2-1.3 7.6-2.3 7.6-.5 0-.9.6-.9 1.4 0 .8-.7 1.7-1.6 2-1 .4-1.4 1.2-1 2.2.5 1.3.2 1.5-1.3 1.1-1.4-.3-1.8-.1-1.4 1 .3.8 0 1.9-.7 2.3-1.1.7-1.2 1.4-.2 3.6 1.1 2.2 1 2.9-.3 4.4-.8.9-1.5 2.3-1.5 3.1-.1 2.5-2.4 4.6-9.5 8.5-1.6.9-3.4 2.3-3.8 3-.4.8-1.7 1.4-2.9 1.4-1.9 0-2 .2-.6 1.7.9 1 1.9 2.9 2.3 4.3.4 1.4 1.4 3.3 2.3 4.3.8.9 1.2 2 .9 2.4-.4.3 0 1.4.9 2.4 2.5 2.8.7 4.3-1.9 1.6-1.2-1.3-3-2.7-4-3-1.1-.4-2.1-1.6-2.4-2.7-.3-1.1-2-2.5-3.8-3.2-1.9-.6-3.6-2-3.8-3-.6-2.1.4-2.3 2.1-.6 2 2 1.4-.1-.7-2.3-1-1.1-1.7-2.9-1.4-3.9.3-1 0-2.7-.6-3.7-.7-1.4-.6-3.1.6-6.4 1-2.8 1.5-7.3 1.5-12.1-.2-8.9-1.8-11.5-7.9-12.5-2.2-.4-3-.9-2.2-1.4.7-.4 2.3-.3 3.7.2 1.8.7 3 .4 5.3-1.2 4.9-3.4 13.3-7.6 14.5-7.2.7.2 2.1-.8 3.3-2.3 1.8-2.2 3-2.7 6.5-2.7 2.9 0 4.7-.6 5.4-1.7 1-1.7-.3-1.8-14.3-1.9-1.6 0-4.9.9-7.3 2-3 1.5-4.6 1.8-5.5 1.1-.6-.6-2.5-1.2-4.2-1.4-1.9-.2-3.1-.9-3.3-2.1-.2-1 .2-1.6.9-1.5.7.2 2.2-1.4 3.3-3.4 1.2-2.2 2.9-3.8 3.9-3.8.9 0 1.7-.4 1.7-.8 0-1 5.6-2.9 9.2-3.1 1.5 0 3.4.6 4.2 1.5zm-47.4 6.5c0 .5-.4.7-1 .4-.5-.3-1 .3-1 1.4 0 3.3-1.1 5.1-3.1 5.1-1 0-1.9-.5-1.9-1 0-.6.6-1 1.4-1 1.7 0 2.9-4 1.3-4.1-.7 0-.3-.4.8-.9 2.8-1.2 3.5-1.2 3.5.1zm12-.3c0 .5 1 1.9 2.2 3.2 2 2.2 2.2 2.2 2.8.4.6-1.7.8-1.7 1.9.4.6 1.2 2.1 2.2 3.1 2.2 1.1 0 2 .7 2 1.5s-.7 1.5-1.5 1.5c-1.4 0-1.9 1.2-1.6 3.2.1.8-1.5 1.2-3.2.9-.5-.1-.6 1.1-.2 2.7.4 2 .1 3.3-1 4.2-1.9 1.6-2 3.1-.1 2.4 1-.4 1.2.2.9 1.9-.4 1.9-1.4 2.7-4.1 3.3-5.2 1.1-5.7 1.1-5.7-.6 0-.8-.4-2.1-.8-2.8-.5-.7-.3-1.2.5-1.3.7 0 .2-.5-1.1-1-1.4-.5-2.1-1.5-1.8-2.3.3-.8.9-3.1 1.3-5 .7-3.8 1.3-4.3 3.2-2.4.9.9 1.2.9 1.2-.3-.1-1.7-1.5-7.8-2.5-10.1-.4-1.1-.1-1.8 1.2-2.1 2.9-.8 3.3-.7 3.3.1zm214.8 2.6c1.8 1.1 1.4 2.9-.5 2.2-.9-.4-1.9-.2-2.2.3-.4.5-1.1 0-1.7-1.3-.9-1.9-.7-2.1 1.1-2.1 1.2.1 2.6.5 3.3.9zm-144.4 8.4c.9 1.5-1.9 5.7-3.9 5.7-1.2 0-2.1.8-2.3 2-.2 1.1-.9 2.4-1.4 3-.7.7-.8.2-.3-1.4.6-1.9.4-2.3-.9-1.8-.8.3-1.8.2-2.1-.3-.4-.6.5-1 1.9-1s2.6-.5 2.6-1c0-.6.7-1 1.5-1 1.4 0 1.9-1.1 1.6-3.8-.2-1.3 2.5-1.7 3.3-.4zm-90.1 1.4c.7 2.1-.4 4.8-2 4.8-1.2 0-1.1-.3.3-1.7 1.1-1.1 1.3-1.8.5-2.1-1.3-.4-1.5-2.2-.2-2.2.5 0 1.1.6 1.4 1.2zm-.3 8.3c0 .8-.4 1.5-1 1.5-.5 0-1-.7-1-1.5s.5-1.5 1-1.5c.6 0 1 .7 1 1.5zm4.9 7.4c-1 2.8-.3 5.4 2.9 11.4.8 1.5-4.2-1.8-6.4-4.2-2.2-2.3-2.2-2.4-.3-4.4 1-1.1 2.1-2.9 2.5-3.9.3-1 .9-1.8 1.4-1.8.5 0 .4 1.3-.1 2.9zm7.1 2.7c0 1.9-3.9 3.9-5.2 2.6-.7-.7-.3-1.4 1.1-2.2 1.2-.6 1.9-1.5 1.6-2-.3-.6.1-.7.9-.4.9.3 1.6 1.2 1.6 2zm-49.4 51.1c-1 1-1.9-.5-1-1.8.6-1.1.8-1.1 1.2 0 .2.7.1 1.5-.2 1.8zm-.9 3.5c-.3.8-.6.5-.6-.6-.1-1.1.2-1.7.5-1.3.3.3.4 1.2.1 1.9zm88.3 23.8c.9 1.6.8 2-.5 2-.8 0-1.5.5-1.5 1.2 0 .6-.9.3-2.1-.8-1.9-1.7-1.9-1.9-.3-3.1 2.4-1.8 3.1-1.6 4.4.7zM860.488 100.545c-1.2.5-1.4 1.3-.8 2.9 1.2 3.3 2.9 2.8 2.9-.7 0-1.7-.1-3-.2-2.9-.2 0-1 .3-1.9.7zM857.488 108.445c-1.3 1.5-1.2 1.5.9.4 2.3-1.2 2.8-2.1 1.3-2.1-.5 0-1.5.7-2.2 1.7zM848.388 111.445c-1 .2-1.8 1.4-1.8 2.6 0 3-2.3 9-3.9 10.3-.9.7-1.2 2.1-.8 4.2.4 2 .2 3.2-.6 3.5-.7.2.3 1.3 2 2.3 4.1 2.4 4.7 3.9 2.6 7.1-1.3 2-1.4 2.9-.5 4.4 1.5 2.3.1 6.3-3.5 10.1-2 2.1-2.6 3.7-2.5 6.8.2 3.6 0 4.1-1.7 3.5-2.1-.6-4 1.3-2.3 2.4.7.4.8 1.2.2 2.1-.6.8-1 2.3-1 3.2 0 2.4-3.5 5.8-6 5.8-2.1 0-2.5.8-1.2 2.5 1.2 1.6 3.5 1.7 4.7.2.5-.8 3.1-1.7 5.6-2.1 4.8-.7 4.9-.6 8.7 3.9 1.9 2.2 3 1.8 2.5-.9-.5-2.5-.5-2.5 9-4.2 2-.3 3.7-1.2 3.7-1.9 0-1.2 2.1-2.5 4.2-2.5.6 0 .8.7.5 1.5-1 2.4 1.1 2.7 2.3.4.8-1.4.9-2.4.2-3.1-1.3-1.3 1.6-4.8 3.4-4.1.9.3 1.1-.2.7-1.8-.4-1.5-.3-2 .5-1.5s1 .2.6-.9c-.4-.8-.1-2.9.6-4.6 1-2.4 1.1-3.2.1-3.8-.7-.4-1.1-1.2-1-1.7.4-2.1-.3-3.4-3.3-6.5-2.9-2.8-3.3-3.9-3.2-8.3 0-2.9.6-5.2 1.2-5.4.7-.2 1.2-1 1.2-1.8 0-1.1.4-1.2 1.9-.4 1.1.5 2.7.7 3.5.4.9-.3 1.6-.1 1.6.5s1.1 1.1 2.5 1.1c1.9 0 2.5-.6 2.7-2.3.2-3.6.3-4.1 1-5.3.4-.6-.7-1.8-2.5-2.9-1.8-1-4.1-2.6-5.2-3.5-2.4-2.1-9.5-1.6-9.5.6 0 .8-.7 1.4-1.5 1.4-2.1 0-7.5-4.1-7.5-5.6 0-.7-.9-1.5-1.9-1.9-1.3-.4-1.7-1.2-1.4-2.5.5-2-.8-2.4-4.9-1.3zM885.188 127.445c-.3 1-.9 2.3-1.2 3-.3.7 1 1.6 3.6 2.3 5.5 1.5 7.3.7 3.4-1.3-1.8-.9-3.1-2.4-3-3.3.2-2.3-2-2.9-2.8-.7z"/><path d="M496.588 131.745c0 .5.5 1 1.1 1 .5 0 .7-.5.4-1-.3-.6-.8-1-1.1-1-.2 0-.4.4-.4 1zM897.588 132.645c0 1.1 2.6 2.2 3.4 1.4 1.2-1.2.5-2.3-1.4-2.3-1.1 0-2 .4-2 .9zM914.688 138.445c0 .6-.4 2-.7 3-.5 1.4-.4 1.5.5.7.7-.7 1.1-2 .8-3-.3-1.1-.5-1.4-.6-.7zM942.588 140.945c0 .7.4 2 1 2.8.5.9.5 1.9-.2 2.8-.8.9-.7 1.9.2 3.7 1.2 2.2 1.1 2.7-.5 4.5-1 1.1-2.1 1.7-2.6 1.4-.5-.2-1.1.6-1.4 1.9-.4 1.5-1.9 2.8-4.1 3.6-3.9 1.4-4.3 2.6-1.4 4.1 2.9 1.5 5.2 6.4 3.8 7.8-.9.9-.6 1.8 1.1 3.6 1.9 2 2.1 2.7 1 4.4-1.8 2.8.1 4.9 5 5.7 2.6.4 4.9 1.8 7.3 4.3 4.6 4.9 5.6 6.9 6.4 13.3.3 3 1.3 6.1 2 6.9 1.1 1.3 1 2.1-.6 4.8-1.1 1.8-3 3.7-4.3 4.2-1.2.5-1.7.9-1.2 1 .6.1-.6.7-2.5 1.4-2.4.8-4 2.3-5 4.5-1.3 3-1.8 3.3-5.1 2.8-4-.5-10.4 1.7-9.4 3.3.3.5 1.2 1 2 1 2.1 0 2.8 1.9 1 2.6-1 .4-2.2-.1-3-1.2-1.3-1.7-1.4-1.7-1.5-.2 0 1-1.1 2-2.5 2.4-2.1.5-2.3.9-1.4 2.5 1.1 2.2-.9 2.7-2.9.7-.9-.9-1.2-.9-1.2 0 0 1.8-4.9 3.4-8.1 2.7-2.7-.6-3.1-1.8-1.5-4.3.5-.9 1.1-1 2-.3 1.4 1.2 2.6.5 2.6-1.6 0-.7-.6-1.2-1.2-1-.7.1-1.3-.7-1.3-1.8s-.4-2.6-.8-3.3c-.5-.7-.3-1.2.6-1.2 2 0 6.2-4.7 4.6-5.2-1.2-.4-2.6-8.8-1.4-8.8.4 0 1.5.5 2.7 1.1 1.6.9 2.3.7 3.5-1 .8-1.2 1.9-1.9 2.4-1.6.5.4.9-.2.9-1.2 0-1.1.5-2.4 1-2.9 1.2-1.2-.9-6.4-2.7-6.4-.7 0-2.3-1.4-3.5-3.1-1.8-2.4-2.8-2.9-4.9-2.5-1.4.3-3.1 0-3.8-.7-.8-.8-1.1-.8-1.1.1 0 .7-.6 1.1-1.2.9-1.7-.3-3.1-3.9-1.9-4.6.6-.4.6-1.2.1-2.1-1.5-2.3-1.2-3.4.5-2 2.7 2.2 1.8-1.4-1-4-2.4-2.3-3.5-4.7-1.5-3.5.6.3 1 .2 1-.4 0-.5-.4-1.3-1-1.6-1.5-1-1.2-2.5.6-2.5 1 0 1.3-.6.9-1.9-.6-2 1.3-4 4.2-4.6 1-.2 1.9-.4 2.1-.4.1-.1-.5-1.3-1.4-2.9l-1.7-2.7 2.7 2.7c1.5 1.6 3.5 2.8 4.5 2.8 1.6 0 1.9-.9 2-6.5.1-5.3-.3-6.9-1.9-8.5-2.8-2.8-6-9-5.4-10.5.7-1.7-2.7-2.9-3.8-1.3-.4.7-.8 1.9-.8 2.7 0 .7-.6 1.1-1.5.8-1.4-.6-1.4.4 0 7.5.2 1.2-.3 1.8-1.4 1.8-.9 0-2.2.9-2.9 2-.7 1.1-1.8 2-2.6 2-1.5 0-4.9 3.4-4.1 4.2.3.3-.4 1.3-1.5 2.3-1.1 1-2 2.6-2 3.7 0 1.3-.7 1.8-2.5 1.8-1.4 0-2.8.7-3.1 1.5-.4.8-1.5 1.5-2.5 1.5-1.8 0-1.9.2-.4 3 1.3 2.4 1.3 3.3.3 5-.7 1.1-1.8 1.8-2.5 1.6-.7-.3-1.5-.1-1.8.4-.3.5-1.2.7-2 .4-.8-.3-2.8.4-4.4 1.5-2.1 1.5-3 1.8-3.4.9-.3-1-.9-1-3 .1-3.4 1.8-2.5 3.2 1.8 2.7 1.8-.2 4.2.2 5.3.9 1.5 1.1 2.8 1.2 5.6.4 2-.5 3.6-1.4 3.6-1.9 0-1.6 2.6-1.1 4.2.7.8 1 2 3.1 2.6 4.7 1.1 2.4 1.1 2.8-.3 2.3-.8-.4-1.5-.2-1.5.3s-.7 1.6-1.6 2.5c-1.3 1.3-1.4 1.8-.3 3.1 1.1 1.3.9 1.9-1 3.4l-2.4 1.7 4.3 4.6c3.5 3.9 4.1 5.1 3.6 7.3-.6 2.3 1 13 2.1 14.4.2.2.8-.2 1.2-.9.7-1.1 1.3-1.1 3.7 0 2.4 1.2 3 2.2 3.2 5.4.2 2.2.8 4.5 1.3 5.1.5.6.4 1.5-.3 2.2-.9.9-.5 1.8 1.5 3.8 1.7 1.7 2.4 3.1 1.8 3.8-1.9 2.4-1.9 7.2 0 11.3 1 2.3 2.3 4.5 2.9 4.8.5.3 1 1.2 1 1.8 0 .7-.4.6-1.1-.3-.9-1.2-1-1-.6.9.4 1.7.1 2.5-1.4 2.8-1.1.3-1.8 1.1-1.6 1.7.4 1.3 4.8 2.2 4.6.9-.4-2.3.2-3.5 1.6-2.9 1.9.7 6.5-1.3 6.5-2.9 0-1.1 6.1-7.5 7.2-7.5.4 0 .9 1.3 1.3 2.9.3 1.6 1.5 3.7 2.5 4.6 2.7 2.4 11 6.5 11 5.4 0-.5.9-.9 2-.9 1.4 0 2.5-1 3.3-2.9.9-2.1 1.6-2.6 3.1-2.1 2.1.7 6.6-2.7 6.6-5 0-.9.5-.8 1.8.4 2 1.7 8 1.3 9.4-.7.4-.7 1.2-.6 2.2.2.9.7 2.3 1 3.3.7.9-.4 2-.1 2.5.6.6 1.1 1 1 1.7-.1s1.3-1 3.4.4c1.5.9 3.1 1.4 3.6 1 .6-.3 2.2.2 3.6 1.1 1.7 1.1 3.3 1.4 5.2.9 1.6-.4 2.3-.9 1.6-1.2-.7-.3-.9-1.7-.6-4 .6-3.3.4-3.6-1.4-3.1-1.6.4-2.2 0-2.6-1.8-.3-1.6 0-2.4.9-2.4 1.8 0 1.8-.5-.2-3.6-1.5-2.2-1.5-2.4 0-1.8 1 .4 1.6.1 1.6-.9s.6-1.3 2.1-1c1.2.4 2.5 0 3-.8.6-1 1.3-.3 2.5 2.8 1.5 3.7 3.2 5.2 6.9 5.7.6 0 .9 1.3.7 2.9-.2 1.5.1 2.7.8 2.7.6 0 .9-.4.6-.9-.7-1.1 1.8-3.3 2.7-2.4.6.6.8-.4 1.1-5.1.1-.8-2.1-3.7-4.8-6.5-3.7-4.1-5.1-4.9-6.2-4.1-1.5 1.3-5.1.5-7.7-1.8-1.2-1.1-1.4-1.8-.6-2.2 1.3-.9-.5-5-2.1-5-.6 0-1-.8-1-1.8 0-2.4-7.4-7.3-11.4-7.6-1.7-.1-4-.7-5-1.3-2.1-1.1-2.9-5.1-1.5-6.9.6-.7.4-1.6-.5-2.3-.8-.7-1.2-1.9-.9-2.6.2-.8-.2-2.9-1.1-4.6-.9-1.8-1.6-3.8-1.6-4.5 0-.7-1.7-2.3-3.7-3.5-4.9-3-5-3.2-5.8-10-.9-7.5.1-13.7 2.4-14.4 2.3-.7 4.6-9.2 3-11.1-.9-1.1-.8-2.2.7-4.9 1.7-3.3 1.7-3.5 0-5.4-1-1.1-1.6-2.6-1.3-3.3.3-.7 1.2-2.9 2-4.8l1.6-3.6-3.5.4c-2.6.3-3.4.9-3.6 2.6-.2 4-.3 4.5-1 5.1-.4.4-2.9 0-5.6-.9-5-1.7-5-1.7-4.6-5.5.3-3.5.1-4-2.2-4.5-1.4-.4-2.2-1.1-1.9-1.6.3-.5.1-1.1-.5-1.5-.5-.3-1 0-1 .7zm18 14.8c0 .5-.4 1-1 1-.5 0-1-.5-1-1 0-.6.5-1 1-1 .6 0 1 .4 1 1zm-65.5 46c.3.5-.1 1-.9 1s-1.8-.5-2.1-1c-.3-.6.1-1 .9-1s1.8.4 2.1 1zM727.088 158.945c-.3.7-.6 2.4-.7 3.8-.2 1.8-1.4 3-4.1 4.2-4.1 1.9-4.5 4.1-.9 4.6 1.2.2 2.2.8 2.2 1.3s.9.9 1.9.9c2.6 0 5.6-5.7 4-7.6-.7-.9-.8-1.4-.1-1.4 1.6 0 2.3-3 1.2-5.1-1.2-2.2-2.8-2.5-3.5-.7zM727.588 175.645c0 .5-.9 1.3-2 1.6-1.1.4-1.8 1.1-1.5 1.6.4.5-.1.9-.9.9-.9 0-1.6-.9-1.6-2s-.4-2-1-2c-.5 0-.9.6-.7 1.2.1.7-.6 1.2-1.5 1.2-1-.1-1.4.4-1.1 1.2.3.8 1.3 1.4 2.2 1.4 2.4.1-4.4 6-7 6-1.6 0-1.8.3-1.1 1.7.7 1.1.5 2.1-.4 3.1-.8.7-1.4 3.1-1.4 5.2 0 3-.5 4-2 4.5-1.1.3-2 1.3-2 2.1 0 2.6-4 5.6-6.6 5-2.8-.7-4.3 1.6-2.5 3.8 1 1.1.8 1.6-.6 2-2.1.7-4.8 6-3.8 7.6.3.5.1 1-.4 1-.6 0-1.1.7-1.1 1.6 0 1.9-6.5-3.2-15.6-12.4-3.7-3.6-7.5-6.5-9.1-6.8-3.2-.6-4-3.8-1.6-6.2 2.2-2.3.3-3.5-2.1-1.3-3.4 3.2-7 2.3-13.4-3.7-1.6-1.5-2.9-1.5-3.7-.2-.4.6-1.2.7-1.8.3-.7-.4-1.6-.8-2.2-.9-.5-.1-1.9-.6-2.9-1-1.4-.5-1.7-.4-1.2.5.5.7-.2 2.1-1.7 3.5-2.3 2.2-2.4 2.3-.6 4.4 1 1.4 2.3 2 3.3 1.6 1.2-.5 1.6 0 1.6 1.9 0 1.4-.4 2.8-1 3.2-1 .6-.2 3.6 1.3 4.6.4.3 2.6.5 4.7.3 2.9-.2 4.3.3 6 2.1 1.2 1.3 1.9 2.9 1.5 3.5-.4.6.2 2.1 1.3 3.3 3 3.3 3.5 6.1 1.9 11.4-1.4 4.7-1.4 4.8 1.3 7.6 2.2 2.3 3.1 2.7 4.6 1.9 4-2 10.5-3 14.6-2 2.3.5 4.5.5 5 0 1.1-1.1 6.9-.2 6.2 1-.3.5.3 1.6 1.4 2.4 1.2.8 3.1 4.3 4.4 7.7 1.2 3.4 2.4 5.5 2.6 4.6.2-1 1-1.5 2-1.4 6.8 1.4 9.2 1.3 9.2-.1 0-2.2 2.3-1.2 3.5 1.4.5 1.2 1.3 2.2 1.7 2.2.5 0 .8.7.8 1.5s.6 1.2 1.4.9c1.6-.6 2.7 1.7 1.9 4.4-.5 2.1-3.4 3.3-9.2 3.8-4.1.4-4.5.7-3.6 3.4.7 2.3 7 5.8 8.2 4.6.4-.4.3-1-.3-1.4-1.2-.8-2.6-5.2-1.6-5.2.3 0 1.3.7 2.3 1.6 1 .9 3.9 2 6.3 2.5 2.5.4 6.3 2 8.5 3.5 2.9 1.9 4.9 2.5 6.8 2.1 3.6-.7 12.3-3.6 14.6-4.8 1.1-.6 2.1-.9 2.2-.7 1.9 1.8 5.6 8.4 5.6 9.7-.1.9-.2 2.5-.3 3.6 0 1.1.3 2.9.7 3.9.7 1.6.5 1.8-1.3 1.4-1.5-.4-1.9-.2-1.5.9.4 1-.1 1.4-1.8 1.2-5.7-.5-8.9.1-8.9 1.7 0 1.1-.5 1.4-1.6 1-1.5-.6-1.5-.4-.3 1 1.1 1.3 1.1 1.8.2 2.1-.7.3-1.3 1.3-1.3 2.3 0 4.2 6.6 5.3 8.1 1.3.5-1.3 1.5-2.6 2.3-2.9.8-.3 1.3-1.1 1-1.8-.3-.9.4-1.1 2.5-.8 2.3.3 3 0 3.6-1.8.4-1.2 2.3-4 4.2-6.1 2.5-2.8 3.3-4.4 2.8-5.9-.7-2.1-.2-2.3 2.9-1.1 2.5 1 5.4-1.7 4.8-4.4-.3-1.1-1.4-3-2.5-4.2-1.1-1.2-1.7-2.9-1.3-3.8.5-1.3.8-1.3 2.6.5 1.1 1.1 3.4 2.3 5 2.6 1.6.4 3.9 1.7 5.1 3 2.3 2.4 4.9 3.2 4.9 1.5 0-.5.3-1.7.6-2.5.4-1.1.2-1.5-.7-1.1-.8.3-2-.4-2.7-1.5-.7-1.2-.8-2-.2-2 .7 0 .8-.6.1-1.9-1.7-3 1.7-12 3.9-10.6.5.3 1.1.1 1.5-.4.3-.6 1.2-.8 2-.4 2.5.9 4.7-1.7 4-4.6-.4-1.4-.9-3.5-1.1-4.6-.2-1.1-1.5-2.9-2.9-4-1.4-1.2-2.5-2.6-2.5-3.3 0-.7-.4-1.2-.9-1.2-.4 0-2.5-1.1-4.5-2.5-2-1.3-4.3-2.2-5.1-1.9-1.5.6-2.2-1.2-2.7-7.1-.2-1.9-1.1-3.4-2.6-4.1-1.3-.6-2.2-1.5-2-1.9.2-.4-.9-.9-2.3-1.1-2.3-.2-2.8.3-3.9 3.9-2.6 8.4-6 11.1-6 4.7 0-2.8-1.2-3.8-5.5-4.7-4.8-.9-12.5-.5-18.8 1.1-6.9 1.7-9.7 1.5-7.8-.8.6-.7.8-2.2.4-3.4-.3-1.4-.1-2.2.7-2.2.7 0 .6-.6-.4-1.6-1.7-1.7-2-3-.8-3.8.4-.2.7-2.1.6-4.2-.1-2 .3-4.8.9-6.1.8-1.7.7-2.7-.1-3.5-.9-.9-1.2-.8-1.2.5 0 2.6-3.4 3.9-5.6 2.2-1.1-.8-2.7-1.5-3.6-1.5-1 0-2-1.1-2.4-2.5-.3-1.4-1.2-2.5-2-2.5s-1.4-.7-1.4-1.5c0-1.2.7-1.1 4.1.4 2.2 1 4.6 2.4 5.2 3 1.4 1.4 3.7 1.4 3.7.1 0-1.2 4-1.3 5.9-.1 1 .6 2.4.5 4.2-.5 2.1-1 2.6-1.9 2.2-3.5-.4-1.5 0-2.7 1.2-3.5 1.8-1.3 1.8-1.4.1-1.4s-5.5-3.6-5.6-5.3c0-.4.7-.7 1.5-.7 1.8 0 1.2-4-1.1-7.8-1.4-2.2-4.4-3.1-4.4-1.3zm-87 33.1c0 .5-.2 1-.4 1-.3 0-.8-.5-1.1-1-.3-.6-.1-1 .4-1 .6 0 1.1.4 1.1 1zM862.588 179.445c0 .5.6 1.8 1.4 2.8 1.1 1.6 1.7 1.7 2.9.7 1-.9 1.7-1 2.2-.2.3.6 1.1.8 1.6.4 1.6-1-1.2-3.5-3.5-3.2-1.2.1-2.7-.1-3.3-.5-.7-.5-1.3-.4-1.3 0zM621.088 188.545c-.4 2-.2 3.8.5 4.7.9 1 .8 1.9-.5 3.8-1.5 2.3-1.5 2.4.7 2 2-.4 2.3-1 2.2-4.6-.1-2.3-.6-5.3-1.1-6.7l-1-2.5-.8 3.3zM850.588 188.145c0 .3.9 1 2 1.6 1.1.6 2 .8 2 .6 0-.3-.9-1-2-1.6-1.1-.6-2-.8-2-.6zM849.588 190.745c0 .6-.1 1.3-.2 1.7-.2.3.5.7 1.5.9 2.1.3 2.3-2.2.2-3-.8-.3-1.5-.1-1.5.4zM856.088 191.745c.6.9 7.5.9 7.5 0 0-.3-1.8-.7-4-.7s-3.8.3-3.5.7zM625.588 200.745c0 .5.5 1 1.1 1 .5 0 .7-.5.4-1-.3-.6-.8-1-1.1-1-.2 0-.4.4-.4 1zM823.388 204.345c1.2.8 2.2 2.4 2.2 3.5 0 2.5-2.8 6.9-4.4 6.9-.8 0-1.1 1.1-.8 3.1.3 2.1-.1 3.4-1.4 4.4-1 .7-1.9 2.2-1.9 3.2 0 1.4-.7 1.7-3.5 1.5-4.1-.3-8-2.6-8-4.7 0-.8-.6-1.5-1.4-1.5-.8 0-1.3.8-1.2 1.7.1 1.3-.6 1.8-2.7 1.7-1.9-.1-3.3.6-4.4 2.2-.8 1.3-2.1 2.4-2.8 2.4-.7 0-1.2.8-1.1 1.7 0 1.1-.6 1.7-1.6 1.7-1.2-.1-1.8.5-1.8 1.8 0 2.5 2.8 7.8 4 7.8.6 0 1.8 1.6 2.7 3.6 1.6 3.3 2.1 3.5 5 3.1 3.3-.6 4.5.3 5 3.3.1.8 1 1.9 1.9 2.5 2.4 1.4 5.1 4 5.5 5.4.3.7 1.6 1.3 3 1.5 1.3.1 3 .5 3.6.9 1.1.7.6 5.4-.8 6.3-.5.3 0 1.8 1.2 3.3 1.1 1.5 2.1 3.5 2.3 4.3.1.9.8 2.3 1.5 3.2 1.1 1.3.9 1.7-1.3 2.8-2.3 1-2.4 1.3-1.1 2 .8.5 1.3 1.4.9 1.9-.3.5 0 1.6.6 2.4.7.8 1 2.1.7 3-.9 2.1 1 2.9 2.1.9.7-1.2 1.1-1.3 1.7-.5.5.9 1 .9 2 .1 1.1-.9 1.7-.7 2.7.9 1.4 2.3 3.8 2.7 5.6.9.9-.9 1.2-.9 1.2.3 0 .8 1 3.5 2.1 6 2.1 4.1 2.2 4.3 3 2.1.9-2.4.7-6.4-.6-11.5-.7-2.6-.6-2.8 1.8-2.2 1.9.5 2.9.1 4.1-1.7 1.4-1.9 1.9-2.1 3.6-1.1 1.6 1.1 2 .9 2.5-.7.3-1.1.4-2.4 0-2.9-.9-1.5.6-6.1 2-6.1.7 0 1.8.7 2.5 1.5.8 1 2 1.3 3.4.9 1.2-.4 4.4-.8 7.1-.8l5-.1.3-3.8c.3-3.1.7-3.7 2.6-3.7 1.9 0 2.2-.4 1.8-2.8-.3-2.4.1-3.1 2.6-4.1 1.8-.8 3.3-2.3 3.7-3.8.4-1.8 1.1-2.4 2.4-2 1 .2 2.5.1 3.2-.4 1-.6 1.1-.9.2-.9-.7 0-1.3-.9-1.3-1.9 0-2.1-2.7-3.6-3.3-1.8-.3.9-2.3.6-7.3-1.1-3.8-1.3-7.6-2.1-8.5-1.7-2.2.8-6.8-1.1-7.6-3.2-.3-1-2-3.3-3.6-5.1-1.7-1.7-2.7-3.2-2.3-3.2.5 0-.3-.9-1.7-2s-3.2-2-4.1-2c-.9 0-1.6-.5-1.6-1 0-.6-.3-.9-.7-.9-1.9.3-3.3-.2-3.3-1.2 0-.5.6-.7 1.3-.3.6.4.5-.1-.4-1-1.6-1.7-5.4-1.2-4.3.5.9 1.6-.8 1-2-.7-1.1-1.5-1.5-1.4-4.6.5-2.6 1.5-3.6 1.7-4.2.8-.5-.7-.8-.8-.8-.1 0 .6-1.2.9-2.8.6-2.4-.3-2.8-.9-3-3.8-.2-2.3.2-3.6 1.3-4 .8-.3 1.5-1.5 1.5-2.5 0-1.2.7-1.9 2-1.9 1.4 0 2-.7 2-2.1 0-1.1.4-2.9 1-3.9.8-1.5.5-2-2-2.9-1.7-.5-3-1.7-3-2.6 0-.9-.4-1.4-.9-1.1-.4.3-1.6-.3-2.6-1.4-1-1.1-2.3-2-2.9-2-.6 0 0 .7 1.2 1.6zM619.888 205.445c-.8 2 1.6 4.2 5.3 4.9 2.8.5 3.3 1 2.9 2.5-.5 1.5-.1 1.9 1.5 1.9 2.4 0 6.1-1.8 7.2-3.4.4-.6-.9-2-3-3.3-5.7-3.5-6.3-3.7-7.2-2.3-.4.7-1.3.9-1.9.6-.6-.4-.9-1.1-.6-1.6.3-.5-.4-.8-1.6-.7-1.2.1-2.4.7-2.6 1.4zM351.088 212.745c-.3.5.1 1 1 1s1.3-.5 1-1c-.3-.6-.8-1-1-1-.2 0-.7.4-1 1zM770.688 219.345c0 1.1.3 1.4.6.6.3-.7.2-1.6-.1-1.9-.3-.4-.6.2-.5 1.3z"/><path d="M854.588 227.845c0 1.3 1 3.3 2.1 4.5 1.7 1.9 2.6 2.1 4.1 1.3 1.6-.8 1.7-1.3.7-2.5-.7-.8-1.8-1.3-2.5-1-.7.3-1.4-.4-1.6-1.6-.4-3-2.8-3.5-2.8-.7zM892.588 246.745c0 2.3.4 2.4 3.2.9 1.7-.9 1.8-1.3.7-2-2.3-1.5-3.9-1-3.9 1.1zM899.888 247.245c0 .8.4 1.2.9.9.4-.3.8-.9.8-1.5 0-.5-.4-.9-.8-.9-.5 0-.9.7-.9 1.5zM992.788 261.845c.2.6.8 1 1.3 1s1.1-.4 1.3-1c.2-.6-.4-1.1-1.3-1.1s-1.5.5-1.3 1.1zM696.788 272.445c-1 1-3.1 1.9-4.7 2.1-1.7.2-3.5 1-4.1 1.8-.6.7-2.1 1.4-3.3 1.4-3.6 0-2.3 1.7 2 2.6 3.5.8 4.3 1.4 5.4 4.7.7 2 .9 3.9.5 4.2-.9.6 1 6.4 2.2 6.6.4.1 1.3.2 2 .3 2.2.2 2 2.6-.3 2.6-1.4 0-1.9.4-1.3.9.5.5 3.7.6 7.2.3 6.1-.4 6.3-.6 5.8-2.8-.5-1.7-.3-2.2.8-1.8 1.6.6 6-4.6 4.9-5.7-1.3-1.3-5.3.1-5.3 1.8 0 .8-.4 1.1-1 .8-.5-.3-1-.1-1 .4 0 1.7-3.8 1.3-4.8-.6-1-1.7.2-6.8 1.9-8.8 1.4-1.4 1.1-3.5-.5-3.5-2.2 0-2.7-1.5-1.6-4.6.8-2.1.8-2.9-.2-3.6-1.9-1.1-2.6-1-4.6.9zM714.588 284.845c0 .5.5.7 1 .4.6-.3 1-.8 1-1.1 0-.2-.4-.4-1-.4-.5 0-1 .5-1 1.1zM281.588 299.845c0 1.1.4 1.8 1 1.4.5-.3.7-1.2.3-2-.7-2.1-1.3-1.9-1.3.6zM852.388 302.645c-2.7 2.8-2.7 2.9-.8 4.6 1.3 1.2 2.7 1.5 4.6 1.1 1.4-.4 3.1-.3 3.7.2.7.6 2.7 1.3 4.5 1.7 2.8.6 3.2.4 3.2-1.4 0-1.1-.4-2.3-1-2.6-.5-.3-1-1.5-1-2.6 0-1.2-.7-1.9-2-1.9-1.1 0-2-.5-2-1 0-.6-1.5-1-3.3-1-2.2 0-4 .9-5.9 2.9zM844.588 302.545c0 1.2 1.9 2.6 2.6 1.9.2-.2-.2-1-1.1-1.7-.9-.8-1.5-.8-1.5-.2zM518.588 380.145c0 .2.7.7 1.6 1 .8.3 1.2.2.9-.4-.6-1-2.5-1.4-2.5-.6zM522.588 386.745c0 .4.9 1 2 1.3 1.1.3 2 .2 2-.3 0-.4-.9-1-2-1.3-1.1-.3-2-.2-2 .3zM438.088 408.745c-1 1.6 1.6 4.3 2.8 3.1.6-.6.4-1.5-.6-2.5-1-1.1-1.8-1.2-2.2-.6zM425.588 411.345c0 .8-.4 1.2-1 .9-.5-.3-1 .1-1 .9 0 1.5-1.2 2.1-3.5 1.6-.7-.1-.7.2 0 .8.6.5 2.4 1.2 4.2 1.5 2.7.5 3.3.3 3.9-1.6 1.4-4.1 1.1-5.7-.8-5.7-1 0-1.8.7-1.8 1.6zM111.388 422.845c-1.6.9-1.4 5.4.3 6.5.5.3.9 1 .9 1.5 0 .6-.4.7-1 .4-.6-.4-1 .5-1 2 0 2-.4 2.6-1.5 2.2-.8-.4-1.7-.2-2 .4-.4.5-1 .7-1.5.4-1.5-.9-1.6 3.9-.1 5.1 1 .8 1.1 1.5.3 3-.6 1-1.4 3.6-1.7 5.7-.5 3.1-.9 3.7-2.3 3.2-2.7-1.2-12.2-2.6-13.2-2-.5.3-1.1.1-1.4-.4-.9-1.4-8.9-.1-10.3 1.7-.9 1.1-1.6 1.2-2.6.4-.8-.7-1.7-.8-2.1-.4-.4.4-1.1.7-1.4.8-.4 0-2 .7-3.7 1.5-2.2 1-3 2.1-3 3.9 0 2.6 2.6 5.2 3.2 3.3.2-.6 1.2-.9 2.2-.6 1 .2 4.3-1.3 7.7-3.4 5.1-3.4 11.1-5.3 9.8-3.1-.3.4.1 1.6.7 2.7 1.2 1.7 1.5 1.8 3.6.4 1.5-1 3.2-1.3 5-.8 2.7.7 2.7.8.7 1.5-2.5 1-3.8 6.6-1.7 7.4 1.6.7 1.7 4.6.1 4.6-.6 0-.1 1.2 1.3 2.7 1.3 1.4 1.8 2.3 1.2 1.9-.7-.4-1.3-.2-1.3.3 0 .6.6 1.1 1.3 1.2.6 0 3.1.2 5.4.4 3 .2 4.3-.1 4.7-1.1.5-1.2 1.3-1 4.2 1.2l3.6 2.8 4.8-2.7c2.6-1.5 5-2.7 5.4-2.7.3 0 1.7 2 3.1 4.4 1.4 2.3 3.3 5.1 4.4 6 2.8 2.6 12.3 5.6 14.2 4.5 1.1-.6 3-.3 5.6.7 2.1.9 4.7 1.7 5.8 1.9 1.1.1 2.5.4 3 .5.6.1 2 .2 3.2.1 1.8-.1 2.1-.6 1.9-3.9-.1-2-.7-4.9-1.4-6.3-1.4-3.4-.5-7.2 1.5-6.5 1.1.4 1.3.1.8-1.4-.4-1.1-.2-2 .4-2 1.9 0 .1-2.5-3.5-4.8-2.6-1.7-3.4-2.8-2.9-4.2.3-1-.1-3-1-4.4-.9-1.3-1.7-3.6-1.9-5-.1-1.5-1.3-3.9-2.7-5.4-1.3-1.5-2.5-3.3-2.6-4-.2-.6-.4-1.8-.6-2.5-.1-.6-.7-2-1.3-3-.9-1.6-1.4-1.4-4.8 2.7-3.3 4.1-4.2 4.6-7.8 4.6-3 0-3.9.3-3.5 1.4.8 2-2.9 2.7-4.5.9-.6-.8-1.2-2.3-1.3-3.4-.1-1.1-1.1-2.9-2.3-4-1.2-1.1-2.2-2.8-2.2-3.9 0-1.7-.2-1.8-2.7-.5-3.1 1.6-5.8.2-4.7-2.4.9-2.3 1.3-8.1.6-8.1-.4 0-1.9-1.1-3.3-2.4-1.8-1.6-3-2.1-4.1-1.5zm6.2 5.9c0 .5-.4 1-1 1-.5 0-1-.5-1-1 0-.6.5-1 1-1 .6 0 1 .4 1 1zM47.588 459.945c-6 1.5-8.4 1.9-10.9 1.9-2-.1-2.2.2-1.6 2.2.4 1.2.8 3.1.9 4.2.1 1.6 2 6 3.1 7.3.9 1 4.5-2.2 4.5-3.8 0-1.5.7-2 2.5-2s2.5-.5 2.5-1.9c0-1.5 1-2 4.6-2.6 4-.6 4.5-.9 4.1-2.7-.5-1.7-.2-1.9 1.8-1.6 1.4.3 2.2.1 1.9-.6-.5-1.4-8.7-1.6-13.4-.4zM12.888 462.945c-.8 1-1 7.3-.3 7.3.1 0 .3 1 .6 2.2.2 1.3 1.2 3.2 2.1 4.3 1 1.1 1.9 2.5 1.9 3 .1.6.2 1.4.3 1.9.1 1.1 12.2 1.2 13.6 0 1.2-.9 7.4-.7 9.1.3 2.5 1.6 2.2-.7-.3-2.4-3.2-2-4.7-2.3-3.7-.6.4.7.3.8-.4.4s-1.2-1.7-1.2-2.9c0-1.6-.3-1.9-.9-.8-.5.7-1.4 1-2 .7-.6-.4-.9-1.1-.6-1.6 1.1-1.8-1.4-1.9-3.6-.1-2.8 2.2-8 1.8-10.3-.8-1.3-1.4-1.2-2 .4-5.4 1.1-2.2 1.4-3.7.7-3.7-.6 0-1.8-.7-2.7-1.5-1.4-1.2-1.9-1.3-2.7-.3zM345.088 463.745c.3.5.8 1 1.1 1 .2 0 .4-.5.4-1 0-.6-.5-1-1.1-1-.5 0-.7.4-.4 1zM10.988 478.545c.4 2.3.2 3.1-.6 2.6-.7-.4-.8-.3-.4.4 1 1.7 3.6 1.5 3.6-.2 0-.8.6-1.7 1.3-1.9.7-.3.5-.6-.5-.6-.9-.1-2.2-.9-2.8-1.9-.9-1.4-1-1.1-.6 1.6zM43.588 484.345c0 .8.5 1.2 1 .9.6-.4.8-1.1.5-1.6-.9-1.4-1.5-1.1-1.5.7zM170.988 486.045c-.1 1.8.6 2.6 2.8 3.5 1.7.6 2.8.8 2.4.5-.3-.3-.1-1.2.4-1.8 1.6-1.9.2-4.1-2.8-4.3-2.2-.2-2.7.2-2.8 2.1zM9.488 485.845c-.1.8 0 2.4.1 3.6.1 1.3-.7 2.6-1.9 3.3-1.2.6-2.1 1.7-2.1 2.5s-.9 1.9-2 2.5c-1.1.6-2 1.9-2 3 0 1-.6 2.1-1.2 2.4-.7.3-.3.3.8.1 1.7-.4 2.3 0 2.6 2 .3 1.4.1 2.8-.4 3.1-.5.3-.3 1.3.6 2.3 1 1.1 1.2 2.1.6 3.1-.5.8-.7 2.3-.4 3.3.3 1 .1 2.4-.5 3.1-.9 1.1-.6 2.1 1.1 4.2 5.3 6.6 5.2 6.1 2.1 7.8-1.5.8-2.3 1.5-1.7 1.6.6 0 1.1 1.7 1.2 3.7.1 2 .6 4.1 1.1 4.6 1.6 1.6 4.7-1.1 6.1-5.5.7-2.4 1.9-5 2.7-5.9 1-1.2 1-1.9-.3-3.7-1.4-2-1.4-2.3.1-2.8 1.8-.7 1.3-4.8-1.2-9.8-1.3-2.4-1.3-3.6-.4-6.1.9-2.6.8-3.8-.8-7.1-1.9-3.8-1.9-3.9 0-4.6 1.5-.6 1.8-1.3 1.3-3.3-.4-1.5-.1-3.2.6-4 .8-1 .9-1.5.2-1.5-.6 0-1.5.7-2 1.7-.8 1.4-1.1 1.3-2.2-.8-.8-1.3-1.2-2.6-1.1-2.7.2-.2 0-.6-.3-1-.3-.3-.6.1-.7.9zM9.288 544.545c-.3.4-1 2.6-1.6 5-1.2 4.3-.6 7.6.9 5.2.6-.9 1-.6 1.5.9.7 2.4-1.9 5.3-4 4.5-1.3-.5-1.7 3.3-.5 4.1.5.3 1.9.1 3-.5 1.3-.7 2-.7 2 0 0 .5.5 1 1 1 .6 0 1-.8 1-1.9 0-1 .6-2.4 1.4-3 1.3-1.1 1.1-1.9-.9-5.8-1.7-3.1-2.2-5-1.6-6.2.9-1.6-1.3-4.9-2.2-3.3z"/></g></svg>