<?xml version="1.0" standalone="no"?>
<!DOCTYPE svg PUBLIC "-//W3C//DTD SVG 20010904//EN"
 "http://www.w3.org/TR/2001/REC-SVG-20010904/DTD/svg10.dtd">
<svg version="1.0" xmlns="http://www.w3.org/2000/svg"
 width="923.643162pt" height="837.605287pt" viewBox="0 0 923.643162 837.605287"
 preserveAspectRatio="xMidYMid meet">
<metadata>
Created by potrace 1.15, written by Peter Selinger 2001-2017
</metadata>
<g transform="translate(-500.212582,1358.015521) scale(0.100000,-0.100000)"
fill="#222222" stroke="none">
<path d="M8553 13560 c-5 -18 -7 -18 -40 -5 -30 13 -35 12 -39 0 -4 -10 -14
-13 -30 -9 -31 8 -32 -17 -4 -53 23 -29 26 -49 8 -56 -15 -5 29 -46 50 -47 6
0 12 -9 12 -19 0 -11 5 -23 10 -26 6 -3 10 4 10 17 0 13 5 29 11 35 8 8 7 16
-1 30 -11 16 -8 24 14 48 15 16 29 39 32 52 4 13 12 23 20 23 8 0 11 6 8 15
-9 23 -55 19 -61 -5z"/>
<path d="M5033 13533 c-23 -4 -33 -23 -13 -23 6 0 10 -7 10 -15 0 -8 6 -15 13
-15 7 0 12 13 12 30 0 17 0 29 0 29 0 -1 -10 -4 -22 -6z"/>
<path d="M5095 13449 c5 -15 1 -19 -19 -19 -28 0 -43 15 -24 23 7 3 2 6 -11 6
l-24 1 21 -23 c15 -16 18 -27 12 -37 -5 -8 -10 -25 -10 -38 0 -24 2 -29 43
-110 30 -58 34 -82 13 -82 -16 0 -17 -61 -1 -72 5 -4 2 -14 -8 -26 -9 -10 -17
-28 -17 -40 0 -12 -5 -22 -11 -22 -19 0 -60 -51 -57 -69 2 -9 11 -15 21 -15
21 2 65 -48 74 -84 3 -15 13 -33 22 -39 12 -10 13 -14 3 -21 -9 -6 0 -16 29
-35 22 -15 45 -27 49 -27 21 0 52 -71 48 -111 -2 -33 1 -44 17 -53 11 -6 24
-17 28 -23 4 -7 14 -13 21 -13 13 0 46 -61 46 -85 0 -8 6 -12 14 -9 8 3 21 -5
30 -18 21 -30 20 -45 -1 -26 -24 20 -53 30 -53 18 0 -5 -13 -7 -28 -4 -23 5
-32 1 -46 -20 -10 -16 -22 -24 -29 -20 -7 4 -3 -2 7 -14 21 -25 68 -29 85 -9
12 16 37 16 67 0 16 -10 22 -8 32 7 6 11 9 27 5 36 -5 13 -2 15 14 10 12 -4
25 -1 33 8 24 30 130 6 130 -29 0 -7 16 -25 36 -40 33 -25 36 -26 48 -9 12 15
17 16 44 5 50 -21 71 8 32 44 -29 26 -16 31 16 6 15 -11 24 -21 20 -21 -4 0 2
-12 13 -26 25 -32 26 -44 6 -44 -8 0 -25 -10 -37 -22 l-21 -21 31 -28 c17 -15
37 -40 45 -56 13 -25 13 -30 0 -42 -13 -12 -8 -17 36 -42 28 -16 57 -29 64
-29 8 0 22 -9 32 -20 10 -11 26 -20 35 -20 19 0 43 -24 46 -47 4 -24 25 -43
48 -43 13 0 41 -19 66 -45 29 -29 48 -41 54 -35 6 6 16 -1 28 -21 13 -22 24
-29 37 -24 14 4 20 0 24 -17 4 -13 33 -52 66 -87 45 -47 66 -62 80 -58 11 3
25 -1 32 -9 14 -17 36 -18 41 -2 3 9 12 9 38 0 49 -18 63 -15 57 8 -3 11 -1
20 5 20 6 0 19 11 29 25 18 22 23 23 47 12 15 -6 37 -22 49 -34 25 -27 43 -29
81 -9 53 27 122 17 136 -19 5 -13 14 -16 36 -12 16 4 32 2 35 -3 3 -6 15 -10
26 -10 30 0 96 -50 110 -83 15 -36 67 -72 97 -68 16 2 34 -7 54 -26 26 -25 36
-28 99 -28 53 0 69 -3 69 -14 0 -12 3 -11 18 1 17 15 36 14 59 -4 10 -8 7 -15
-11 -29 -23 -18 -24 -21 -9 -49 12 -26 13 -33 1 -47 -11 -14 -11 -15 2 -11 9
3 15 18 15 39 0 19 4 34 10 34 5 0 9 -4 7 -8 -1 -5 6 -6 16 -3 13 5 30 -3 53
-25 27 -25 36 -29 55 -20 17 7 26 6 38 -8 9 -10 16 -23 16 -29 0 -15 42 -26
68 -18 10 4 24 17 29 29 9 19 17 23 47 19 31 -4 36 -1 36 17 0 30 16 26 42 -9
26 -36 33 -104 12 -121 -8 -6 -14 -19 -14 -29 0 -10 -6 -20 -14 -23 -8 -3 -22
-22 -32 -42 -15 -31 -15 -38 -3 -46 20 -12 76 -11 101 2 16 9 23 8 29 -2 7
-11 9 -10 9 4 0 9 7 17 15 17 9 0 20 12 25 26 10 24 14 26 53 20 67 -10 100
-8 109 9 13 21 25 19 31 -7 4 -13 0 -29 -8 -38 -8 -9 -15 -24 -15 -33 0 -9 -9
-21 -20 -27 -11 -6 -20 -21 -20 -34 0 -19 -4 -23 -20 -19 -14 4 -20 0 -20 -11
0 -12 -10 -16 -43 -16 -39 0 -43 -3 -43 -22 1 -21 -3 -23 -47 -20 -46 4 -49 3
-42 -17 10 -32 -4 -84 -19 -72 -8 7 -26 5 -55 -5 -23 -8 -47 -12 -52 -9 -5 4
-9 -5 -9 -19 0 -16 -6 -26 -14 -26 -15 0 -32 -37 -23 -47 3 -3 -2 -14 -12 -25
-16 -16 -25 -18 -57 -11 -56 11 -56 11 -69 -27 -9 -26 -18 -36 -37 -38 -25 -3
-36 -20 -42 -64 -2 -10 8 -25 21 -34 15 -9 22 -21 19 -30 -3 -8 0 -26 6 -39 9
-19 9 -28 0 -37 -7 -7 -12 -20 -12 -30 0 -10 -7 -21 -15 -24 -10 -4 -13 -13
-10 -25 6 -17 1 -19 -37 -19 -24 0 -50 -4 -57 -9 -8 -6 -22 -6 -31 -1 -19 10
-59 -19 -52 -39 3 -10 0 -11 -17 -2 -11 7 -21 18 -21 26 0 8 -9 15 -20 15 -14
0 -18 -5 -13 -17 4 -10 2 -14 -4 -10 -6 4 -15 -5 -21 -21 -8 -23 -6 -30 14
-45 15 -11 32 -15 48 -11 19 4 31 0 51 -21 14 -16 25 -30 25 -33 0 -17 -25
-72 -33 -72 -5 0 -4 -7 3 -15 7 -8 19 -15 27 -15 11 0 13 -7 8 -29 -5 -24 -1
-32 23 -50 17 -12 39 -21 50 -21 11 0 25 -7 32 -15 9 -11 16 -12 26 -4 10 8
21 5 46 -14 18 -13 41 -27 51 -30 10 -4 17 -17 17 -32 0 -29 5 -31 27 -9 15
14 21 11 66 -35 37 -38 53 -49 62 -41 23 19 91 1 115 -32 12 -16 19 -35 16
-43 -7 -18 27 -47 48 -39 24 9 66 -4 66 -21 0 -9 10 -15 25 -15 14 0 25 5 25
10 0 19 37 10 75 -19 22 -16 45 -27 52 -24 7 3 20 0 28 -7 8 -7 15 -9 15 -5 0
4 18 -9 39 -28 48 -43 92 -67 124 -67 13 0 43 -13 68 -29 24 -16 56 -33 72
-36 15 -4 27 -13 27 -21 0 -18 27 -18 37 0 12 21 81 56 98 50 10 -4 15 0 15
12 1 17 2 17 13 4 27 -32 65 -61 86 -65 13 -2 29 -9 37 -15 7 -7 17 -9 23 -6
5 3 14 -8 20 -25 11 -31 15 -32 69 -12 6 3 12 -1 12 -9 0 -8 10 -19 23 -25 12
-6 45 -29 73 -51 47 -37 52 -45 56 -87 3 -38 0 -49 -15 -57 -17 -9 -17 -11 -3
-27 17 -19 22 -71 6 -71 -5 0 -3 -14 4 -32 10 -23 11 -39 4 -60 -6 -16 -7 -39
-4 -53 4 -15 1 -27 -7 -32 -11 -7 -11 -23 0 -98 13 -89 13 -218 0 -232 -4 -4
8 -23 28 -43 20 -20 36 -48 38 -65 2 -17 11 -47 21 -67 10 -21 16 -44 13 -52
-3 -8 0 -20 8 -26 14 -12 9 -50 -9 -62 -6 -4 -21 -8 -33 -8 -20 0 -21 -3 -11
-24 11 -26 23 -34 76 -46 27 -7 32 -6 28 7 -4 10 1 9 19 -5 14 -11 46 -23 72
-27 52 -8 91 -29 74 -40 -6 -3 -11 -17 -11 -31 0 -18 -5 -24 -21 -24 -11 0
-17 5 -14 10 3 6 -6 11 -22 12 -53 3 -58 4 -71 11 -6 5 -12 4 -12 -1 0 -5 -20
-7 -45 -4 -41 4 -45 3 -45 -17 0 -13 9 -25 24 -31 28 -10 43 -30 29 -39 -6 -3
-13 -16 -17 -28 -7 -21 -48 -35 -45 -15 3 19 -2 33 -10 27 -10 -6 4 -62 20
-79 5 -6 9 -21 9 -34 0 -17 -4 -22 -15 -19 -12 5 -12 2 -3 -18 9 -20 8 -29 -6
-44 -10 -11 -15 -24 -12 -29 3 -5 -1 -15 -9 -22 -12 -10 -13 -16 -4 -27 9 -10
8 -17 -3 -31 -17 -19 -13 -42 7 -42 7 0 25 -7 41 -15 33 -17 42 -12 23 12 -12
16 -11 16 8 -1 13 -10 29 -16 39 -12 20 8 71 -16 112 -54 27 -24 31 -34 26
-57 -4 -15 -11 -33 -16 -40 -5 -7 -7 -17 -4 -22 4 -5 2 -12 -4 -16 -11 -7 18
-65 33 -65 4 0 5 5 1 11 -4 7 0 10 11 7 10 -1 23 -11 29 -21 9 -14 6 -22 -19
-42 -19 -16 -38 -23 -52 -20 -17 4 -21 2 -17 -10 5 -12 15 -14 43 -9 20 4 39
11 42 17 4 5 9 5 14 -2 5 -9 10 -9 21 0 11 9 14 9 14 0 0 -7 5 -9 10 -6 6 3
10 15 10 26 0 10 5 19 11 19 6 0 9 7 5 15 -12 32 24 65 37 33 4 -10 8 -10 15
1 8 12 15 10 40 -10 17 -13 31 -30 31 -36 1 -7 6 -13 11 -13 6 0 10 -5 10 -10
0 -7 -6 -7 -20 0 -30 16 -72 -32 -47 -56 4 -4 7 -16 7 -26 0 -13 7 -18 26 -18
24 0 24 -1 8 -17 -11 -11 -13 -18 -5 -21 6 -2 11 -10 11 -18 0 -9 -4 -12 -10
-9 -5 3 -10 1 -10 -5 0 -7 -8 -9 -20 -5 -16 5 -20 2 -20 -18 0 -25 -22 -52
-33 -40 -4 3 -9 -2 -13 -11 -3 -9 -12 -16 -19 -16 -11 0 -11 -6 1 -29 8 -16
20 -33 27 -39 14 -11 68 -26 81 -23 5 1 21 -2 36 -8 22 -7 30 -5 44 10 9 11
16 24 16 30 0 5 4 8 9 5 5 -3 14 7 19 24 9 23 8 33 -4 44 -8 8 -14 19 -14 24
0 10 86 9 141 -2 41 -9 69 10 69 46 0 14 5 18 15 14 8 -3 25 -1 37 4 13 5 20
9 16 9 -4 1 1 17 12 36 11 20 20 49 20 65 0 33 6 36 34 15 27 -20 83 -19 94 1
6 11 11 13 16 5 5 -8 14 -6 30 4 18 12 29 13 54 4 21 -7 36 -7 50 0 15 8 23 7
32 -4 15 -18 99 -10 116 11 6 8 19 14 28 14 9 0 16 5 16 12 0 8 3 9 10 2 7 -7
4 -26 -10 -59 l-20 -47 26 -26 c38 -39 49 -62 28 -62 -12 0 -15 -6 -11 -22 4
-15 -2 -33 -18 -54 -14 -18 -25 -36 -25 -41 0 -4 5 0 11 10 8 14 14 16 24 7 8
-7 19 -9 25 -5 5 3 10 -1 10 -9 0 -9 5 -16 10 -16 6 0 10 -6 10 -14 0 -7 9
-16 20 -19 11 -3 20 0 20 5 0 7 4 7 13 0 23 -19 83 -25 98 -9 12 13 17 13 42
-1 15 -9 27 -21 27 -28 0 -20 51 -2 62 22 14 30 35 30 67 1 15 -13 44 -29 66
-36 29 -9 45 -21 54 -42 18 -41 69 -61 138 -53 38 5 53 11 49 19 -6 17 22 42
57 50 28 7 87 -10 87 -26 0 -5 5 -9 11 -9 6 0 9 9 6 20 -3 11 -1 20 4 20 5 0
12 -14 16 -31 3 -17 15 -35 27 -41 23 -10 61 -82 51 -97 -3 -6 7 -13 22 -17
15 -3 34 -7 41 -10 7 -2 21 1 30 7 14 9 27 7 60 -10 23 -11 50 -21 61 -21 13
0 27 -12 36 -31 25 -47 52 -69 85 -69 17 0 32 -6 34 -12 2 -7 7 -27 13 -43 7
-23 6 -34 -4 -43 -7 -7 -13 -25 -13 -40 0 -16 -4 -32 -9 -37 -11 -12 -2 -75
10 -75 8 0 33 -49 29 -58 -4 -11 67 -79 92 -88 24 -8 39 -24 60 -65 16 -30 33
-55 38 -57 6 -2 7 -15 4 -28 -5 -20 -2 -26 15 -31 24 -6 18 -23 -8 -23 -10 0
-26 -9 -36 -20 -10 -12 -24 -19 -31 -16 -10 4 -30 -22 -22 -29 22 -17 52 -25
61 -16 12 12 47 -13 47 -35 0 -7 13 -27 30 -44 24 -25 27 -32 15 -37 -9 -3
-15 -13 -13 -22 1 -9 -1 -22 -5 -28 -5 -8 -3 -13 4 -13 8 0 8 -4 1 -12 -5 -7
-8 -23 -6 -36 5 -27 -29 -68 -47 -57 -9 6 -10 -2 -4 -31 4 -21 8 -44 8 -51 0
-7 5 -11 11 -10 6 1 17 -13 25 -30 13 -30 43 -50 64 -45 14 4 72 -49 78 -72 4
-16 12 -20 31 -18 15 1 29 -2 33 -8 5 -8 11 -8 20 0 7 6 16 7 19 2 3 -5 19 -7
36 -4 35 5 38 22 14 70 -8 18 -14 46 -12 64 3 31 1 34 -44 48 -27 8 -48 19
-48 23 0 11 -22 32 -41 39 -17 6 -21 52 -7 73 3 6 0 28 -8 50 -7 22 -14 55
-14 72 0 30 -2 32 -29 27 -23 -5 -30 -2 -35 14 -4 10 -15 27 -25 37 -16 14
-18 22 -9 46 5 16 16 29 23 29 24 0 34 24 20 50 -7 14 -11 39 -8 57 4 20 0 39
-8 49 -20 25 -21 112 -2 123 9 4 19 29 23 55 5 36 3 49 -9 61 -9 8 -23 30 -30
50 -12 33 -11 37 11 55 18 15 21 21 11 31 -18 18 -16 27 7 34 11 3 20 14 20
24 0 10 7 39 16 66 16 44 16 48 0 57 -9 5 -16 16 -16 24 0 8 -7 17 -15 20 -38
15 -4 44 52 44 16 0 21 6 21 23 -1 12 -7 29 -13 37 -19 24 -25 76 -12 104 7
14 15 26 19 26 3 0 9 23 13 51 4 29 13 53 21 56 9 3 14 21 14 54 0 42 3 49 20
49 15 0 20 7 20 27 0 20 -12 38 -42 66 l-43 38 -9 -26 c-12 -31 -25 -31 -54 0
-22 23 -23 24 -4 36 17 11 17 15 5 63 -7 28 -11 68 -7 88 4 30 2 39 -15 50
-12 7 -21 18 -21 25 0 22 -23 26 -39 6 -13 -17 -21 -19 -48 -11 -18 5 -33 14
-33 22 0 7 -9 21 -20 31 -11 10 -20 24 -20 31 0 23 -50 87 -78 101 -16 8 -34
30 -44 54 -17 39 -16 40 3 34 18 -6 25 8 20 38 -1 4 5 18 13 29 12 16 12 26 4
42 -7 14 2 10 28 -14 21 -19 40 -39 42 -43 18 -39 51 -59 102 -63 71 -6 104
-20 120 -50 8 -13 19 -24 25 -24 6 0 24 -13 39 -29 34 -35 101 -55 161 -49 25
3 48 2 51 -3 3 -5 10 -9 15 -9 6 0 7 5 4 10 -9 15 44 12 94 -6 24 -8 51 -12
60 -8 9 4 24 6 34 5 15 -2 17 2 11 21 -4 13 -7 29 -8 37 -1 20 43 30 78 18 25
-9 32 -6 58 22 34 36 35 36 60 14 15 -14 21 -15 27 -4 6 9 11 10 15 2 4 -6 13
-11 19 -11 8 0 9 3 1 8 -14 9 35 87 55 87 8 0 19 16 26 35 9 27 18 36 44 41
18 4 33 8 34 10 23 36 33 78 25 94 -9 14 -8 17 3 13 8 -4 22 -9 32 -13 13 -6
18 -4 16 6 -1 8 1 22 6 32 7 17 8 17 20 0 11 -15 15 -15 29 -4 9 7 16 20 16
27 0 16 16 19 25 4 11 -17 55 -12 55 7 0 13 -3 14 -12 5 -18 -18 -30 -14 -23
7 8 26 -19 40 -66 34 -30 -4 -46 1 -83 26 -38 27 -47 29 -52 17 -3 -9 -17 -16
-30 -16 -13 0 -24 -4 -24 -10 0 -5 -8 -6 -17 -3 -12 5 -15 2 -10 -10 4 -10 0
-17 -10 -19 -15 -3 -15 -4 -1 -19 10 -9 13 -21 8 -29 -10 -17 -31 -3 -28 18 2
11 -8 20 -30 27 -18 6 -30 14 -27 16 3 3 -2 6 -10 6 -8 0 -15 -5 -15 -11 0
-10 -18 -20 -70 -41 -3 -1 -13 -5 -23 -10 -10 -4 -34 -5 -53 -2 -29 5 -35 3
-30 -9 9 -24 -12 -64 -34 -64 -11 0 -20 -7 -20 -15 0 -9 -11 -21 -25 -27 -21
-10 -29 -9 -43 5 -13 14 -13 17 -2 17 9 0 6 6 -8 16 -21 15 -32 42 -12 29 6
-3 10 -1 10 5 0 6 -7 13 -15 16 -8 4 -12 10 -9 15 8 14 -19 36 -37 32 -11 -3
-22 4 -29 17 l-12 22 -22 -24 c-12 -13 -21 -26 -19 -30 2 -4 -8 -18 -22 -32
-14 -14 -25 -34 -25 -44 0 -26 -33 -55 -47 -41 -7 7 -18 0 -36 -23 -15 -18
-33 -41 -41 -50 -9 -10 -11 -20 -6 -23 6 -3 6 -15 0 -29 -5 -15 -5 -27 3 -35
8 -8 5 -17 -12 -34 -18 -17 -22 -18 -18 -5 4 12 2 15 -9 11 -16 -6 -16 -5 -18
54 -2 28 -10 51 -24 66 l-21 23 60 33 c47 26 64 42 83 79 19 38 21 52 13 76
-8 24 -7 32 7 41 22 16 11 44 -15 38 -11 -3 -19 -2 -18 3 9 31 -15 71 -53 93
l-41 24 49 18 c27 11 57 19 66 19 25 0 50 43 43 73 -5 17 -2 26 9 30 24 9 19
54 -9 91 -14 18 -24 42 -23 52 2 11 0 19 -3 19 -3 0 -13 6 -21 13 -9 7 -33 12
-53 10 -31 -2 -41 2 -54 22 -22 34 -64 76 -90 89 -11 7 -21 20 -21 30 0 10 -7
24 -14 31 -8 6 -24 27 -36 46 l-20 35 42 -3 c33 -2 43 1 43 12 0 8 4 18 8 21
4 3 1 12 -8 19 -11 9 -15 9 -15 1 0 -7 -10 -11 -22 -9 -18 2 -23 10 -23 32 -1
17 -10 36 -23 46 -12 10 -22 25 -22 33 0 8 -15 18 -32 24 l-33 10 33 7 34 8
-7 51 c-9 61 -13 70 -30 63 -13 -5 -27 28 -29 69 -1 10 -12 25 -26 32 -14 7
-21 13 -16 13 5 0 3 7 -5 16 -12 14 -14 14 -25 -1 -19 -25 -64 -10 -64 22 0
20 3 23 14 14 10 -9 16 -7 27 5 11 13 10 17 -2 25 -11 7 -9 9 9 9 12 0 21 5
20 11 -2 6 11 16 27 22 17 5 40 19 52 30 17 15 26 17 36 9 11 -9 18 -8 31 6
12 14 15 29 10 64 -6 41 -4 47 16 58 16 9 21 18 17 36 -6 34 8 39 37 13 17
-15 27 -36 31 -68 11 -82 13 -86 47 -96 23 -7 34 -17 38 -35 9 -47 50 -92 50
-55 0 12 5 13 28 4 32 -12 84 -35 134 -60 23 -12 39 -15 43 -9 3 6 19 10 36
10 29 0 39 13 19 25 -24 15 -8 27 29 22 35 -4 38 -3 33 15 -4 17 -1 19 16 14
19 -6 21 -3 24 41 3 44 5 48 27 45 57 -8 96 28 84 79 -3 13 -3 21 2 17 4 -4
13 -2 19 5 10 9 6 15 -18 28 -37 20 -49 15 -43 -17 6 -35 -18 -52 -43 -29 -24
22 -25 34 -4 50 14 10 15 15 4 35 -7 13 -10 38 -7 57 9 52 -34 129 -76 139
-18 4 -38 7 -45 5 -8 -1 -20 5 -26 15 -12 16 -15 16 -39 -2 -15 -10 -27 -26
-27 -34 0 -10 -4 -8 -14 6 -9 12 -16 51 -18 95 -2 59 -7 77 -23 90 -10 9 -24
15 -30 13 -14 -6 -74 68 -78 95 -2 11 -6 23 -10 27 -9 10 -29 -47 -24 -68 5
-18 -7 -25 -17 -10 -3 5 -19 7 -36 4 -21 -3 -30 -10 -30 -23 0 -11 -4 -19 -10
-19 -5 0 -10 -6 -10 -14 0 -22 -35 -28 -80 -15 -38 12 -51 31 -30 44 15 9 12
25 -6 25 -8 0 -13 -4 -9 -9 3 -6 -3 -15 -13 -20 -15 -8 -23 -6 -36 8 -9 10
-13 21 -9 26 5 4 -1 3 -11 -2 -17 -9 -23 -4 -45 39 -21 41 -23 51 -11 58 11 7
11 14 3 32 -6 14 -9 36 -6 50 3 14 -2 39 -10 55 -9 16 -18 45 -22 65 -4 20
-15 44 -26 54 -10 9 -16 21 -13 25 3 5 0 9 -5 9 -6 0 -11 6 -11 14 0 12 -26
28 -50 31 -3 0 -16 8 -30 18 -21 15 -22 17 -6 17 18 0 18 1 1 20 -17 19 -17
23 -2 60 9 25 12 42 6 46 -10 6 -6 85 5 103 8 13 -14 68 -22 55 -4 -5 -19 -11
-33 -12 -27 -2 -44 12 -64 52 -6 13 -26 25 -50 31 -41 10 -64 29 -65 55 0 8
-9 21 -20 27 -11 7 -26 26 -35 42 -14 28 -14 31 8 46 22 17 22 17 0 11 -12 -4
-24 -2 -28 4 -10 16 -25 12 -25 -7 0 -13 -3 -14 -12 -5 -17 17 -58 15 -79 -4
-10 -9 -22 -13 -28 -9 -10 6 -9 44 2 75 3 8 8 28 12 44 5 26 4 28 -9 17 -9 -8
-16 -12 -17 -10 0 2 -2 24 -4 49 -4 41 -3 43 10 26 9 -11 15 -14 15 -7 0 8 7
10 22 6 17 -6 20 -4 15 9 -4 10 -3 15 3 11 6 -3 10 1 10 9 0 9 9 16 20 16 10
0 47 25 81 55 36 33 71 55 84 55 18 0 22 4 18 20 -4 14 0 20 12 20 12 0 15 5
11 16 -3 9 2 29 11 44 15 25 15 33 3 55 -10 19 -21 25 -46 25 -18 0 -36 5 -39
10 -9 15 -25 12 -25 -5 0 -8 -9 -15 -19 -15 -18 0 -19 7 -15 106 2 58 6 109 9
114 3 5 -8 19 -24 31 -17 12 -28 26 -25 31 3 4 -2 8 -10 8 -9 0 -30 29 -52 73
-20 39 -43 80 -51 89 -14 16 -14 20 1 43 16 24 15 25 -7 30 -15 4 -28 19 -36
40 -6 18 -27 47 -46 64 -19 17 -35 35 -35 41 0 5 -11 12 -25 16 -17 4 -25 13
-25 29 0 12 -9 30 -20 40 -14 13 -17 22 -10 29 19 19 11 52 -15 64 -32 15 -35
46 -2 37 20 -6 21 -5 5 8 -10 8 -18 19 -18 25 0 6 -6 13 -12 15 -10 4 -10 7 0
15 10 7 7 13 -12 26 -26 17 -36 59 -16 71 6 4 6 13 0 25 -6 11 -14 28 -18 38
-5 9 -14 26 -19 37 -27 51 -35 74 -30 82 8 13 -42 85 -53 78 -14 -9 -39 6 -33
21 4 10 -3 14 -22 14 -24 0 -26 -2 -14 -16 11 -14 10 -18 -6 -31 -11 -7 -29
-12 -40 -9 -11 3 -27 6 -36 6 -11 0 -16 9 -16 25 0 14 5 25 11 24 32 -4 35 3
9 26 -25 23 -26 25 -8 24 43 -3 51 1 32 15 -9 7 -16 22 -16 32 4 40 -2 51 -38
71 -26 14 -44 18 -58 13 -11 -5 -35 -9 -52 -9 -20 -1 -33 -6 -33 -14 0 -7 -18
-24 -41 -37 -22 -14 -47 -31 -55 -38 -7 -7 -19 -10 -25 -7 -20 13 -71 11 -76
-2 -3 -7 -11 -13 -18 -13 -8 0 -11 -8 -8 -20 3 -11 0 -20 -6 -20 -9 0 -9 -5
-1 -20 8 -14 8 -20 0 -20 -6 0 -15 -11 -20 -25 -7 -20 -17 -25 -42 -25 -18 0
-46 -9 -62 -19 -21 -14 -35 -17 -47 -11 -14 8 -16 6 -12 -9 3 -13 -4 -25 -21
-36 -20 -13 -24 -21 -16 -31 9 -9 6 -15 -10 -24 -16 -9 -21 -8 -26 5 -8 21
-34 0 -34 -27 0 -24 -20 -45 -54 -58 -22 -8 -26 -7 -26 8 0 13 -13 21 -46 30
-25 7 -43 16 -40 20 2 4 -15 17 -40 29 -24 12 -44 17 -44 12 0 -6 -14 1 -31
15 -17 14 -42 26 -55 26 -38 0 -63 17 -78 54 -8 18 -35 55 -61 82 -26 27 -58
65 -71 84 -40 61 -65 86 -71 72 -7 -17 -23 -5 -23 17 0 24 -26 47 -33 29 -3
-9 -18 0 -46 27 -31 30 -41 35 -41 21 0 -10 -6 -16 -16 -14 -8 2 -14 7 -14 12
2 14 -98 76 -124 76 -14 0 -32 -10 -41 -22 l-16 -23 -22 29 c-12 17 -25 39
-28 50 -4 15 -12 20 -31 18 -14 -1 -31 4 -38 13 -16 19 -29 19 -50 0 -19 -17
-91 -10 -84 9 6 16 -44 66 -66 66 -11 0 -20 -7 -20 -15 0 -9 -9 -15 -24 -15
-17 0 -29 -9 -38 -27 -7 -16 -23 -29 -35 -31 -28 -4 -54 -44 -42 -63 12 -20
11 -29 -3 -29 -35 0 -87 -22 -82 -34 7 -19 -25 -28 -42 -12 -8 8 -14 31 -14
50 0 20 -4 36 -9 36 -14 0 -42 49 -44 77 -2 25 -27 47 -27 23 0 -7 -6 -8 -19
-1 -15 9 -22 6 -35 -14 -9 -14 -14 -30 -11 -35 3 -6 1 -10 -4 -10 -6 0 -11 -7
-11 -15 0 -12 -28 -35 -44 -35 -3 0 -6 18 -6 40 0 33 -3 40 -20 40 -15 0 -20
7 -20 25 0 13 6 28 13 32 6 4 18 19 25 31 12 21 11 23 -5 18 -12 -4 -23 1 -32
16 -11 18 -11 22 3 30 26 15 18 26 -16 24 -24 -1 -36 -8 -43 -24 -13 -29 -18
-28 -48 8 -28 33 -57 39 -77 15 -10 -12 -15 -12 -36 2 -16 10 -24 11 -24 4 0
-24 42 -141 51 -141 14 0 11 -54 -5 -76 -14 -19 -15 -19 -45 4 -24 17 -31 19
-31 8 0 -31 -36 -43 -107 -34 -38 4 -71 4 -76 -1 -5 -5 -10 -24 -10 -42 -3
-63 -50 -85 -84 -40 -10 14 -13 14 -27 -4 -8 -11 -16 -30 -16 -42 0 -14 -6
-23 -15 -23 -8 0 -15 -7 -15 -16 0 -21 -29 -43 -56 -44 -36 0 -74 -24 -74 -46
0 -26 -22 -36 -56 -28 -25 6 -31 18 -14 29 6 4 5 14 -2 28 -24 47 -28 57 -28
72 0 9 -4 14 -8 11 -4 -2 -8 5 -8 17 0 27 26 53 49 49 29 -6 49 17 42 50 -5
21 -3 27 7 23 15 -6 48 43 48 72 0 12 -8 18 -25 19 -20 2 -26 -4 -31 -32 -5
-29 -9 -32 -25 -23 -10 5 -22 21 -25 34 -7 29 -13 31 -28 10 -6 -9 -21 -17
-34 -18 -12 0 -22 -8 -22 -16 0 -11 -6 -9 -24 8 -13 12 -29 21 -37 19 -7 -2
-15 7 -17 19 -2 12 -10 27 -18 33 -8 7 -14 20 -14 30 0 16 -9 18 -63 16 -34
-1 -68 -5 -74 -9 -6 -4 -14 -1 -16 5 -4 8 -6 7 -6 -4 -1 -12 -9 -15 -33 -13
-18 2 -41 6 -50 10 -11 4 -18 3 -18 -5 0 -6 -4 -9 -9 -6 -4 3 -8 -14 -8 -37 0
-33 -9 -55 -42 -103 l-42 -61 18 -33 c12 -21 27 -34 41 -35 28 -2 34 -8 37
-39 2 -17 -4 -27 -21 -35 -13 -6 -24 -16 -24 -22 0 -7 -11 -8 -31 -4 -25 6
-31 4 -36 -14 -3 -12 -12 -21 -19 -21 -16 0 -34 -38 -27 -56 2 -6 -3 -14 -12
-18 -12 -4 -13 -10 -6 -24 8 -15 4 -24 -19 -44 -16 -14 -26 -28 -23 -32 4 -3
-3 -6 -15 -6 -11 0 -24 -5 -27 -11 -4 -6 -13 -8 -21 -5 -7 3 -20 -4 -27 -14
-17 -25 -68 -36 -96 -20 -20 10 -23 8 -34 -20 -11 -29 -15 -31 -44 -27 -24 4
-33 2 -33 -8 0 -7 -7 -15 -15 -19 -8 -3 -15 -13 -15 -23 0 -10 -12 -23 -26
-30 -22 -10 -32 -9 -66 8 -22 11 -43 18 -46 15 -3 -3 -16 1 -29 10 -16 10 -35
13 -56 9 -48 -10 -120 -35 -134 -47 -16 -13 -65 -2 -125 28 -26 13 -56 24 -67
24 -11 0 -27 14 -40 35 -11 19 -27 35 -35 35 -8 0 -23 13 -32 29 -10 17 -28
32 -41 36 -35 8 -28 25 11 25 47 0 56 34 18 74 -17 18 -23 30 -15 33 8 3 7 13
-5 35 -13 22 -14 32 -5 35 9 3 9 10 1 29 -9 19 -9 27 -1 32 6 4 15 20 19 36 5
21 4 27 -5 22 -7 -5 -11 1 -11 17 0 31 -15 43 -63 51 -27 5 -41 14 -49 32 -7
15 -20 24 -33 24 -36 0 -85 29 -85 51 0 10 -4 19 -9 19 -4 0 -23 16 -42 35
-19 19 -46 40 -61 46 -17 7 -25 16 -21 25 3 9 -1 14 -12 14 -14 0 -16 -6 -12
-28 6 -27 4 -28 -31 -26 -20 1 -31 0 -24 -3 6 -2 12 -19 12 -38 0 -39 16 -54
64 -62 20 -3 36 -8 36 -11 0 -3 -10 -19 -23 -36 -27 -36 -41 -66 -38 -83 1 -7
-5 -13 -14 -13 -8 0 -15 -7 -15 -15 0 -19 -24 -20 -39 -2 -13 16 -5 28 15 20
10 -4 14 3 14 25 0 17 3 37 6 46 4 11 1 16 -10 16 -9 0 -21 10 -27 23 -7 16
-24 26 -52 33 -37 8 -42 12 -39 35 3 32 -28 62 -65 61 -27 0 -83 41 -83 61 0
5 -10 17 -22 28 -13 10 -17 18 -10 19 14 0 17 36 3 44 -4 3 -11 19 -14 34 -4
18 -14 31 -27 35 -17 4 -20 2 -15 -14z m3155 -329 c0 -5 -4 -10 -10 -10 -5 0
-10 5 -10 10 0 6 5 10 10 10 6 0 10 -4 10 -10z m933 -85 c-7 -21 -13 -19 -13
6 0 11 4 18 10 14 5 -3 7 -12 3 -20z m-556 -42 c-3 -3 -11 -2 -17 2 -9 6 -9
10 1 16 14 8 27 -7 16 -18z m269 -40 c-7 -7 -26 7 -26 19 0 6 6 6 15 -2 9 -7
13 -15 11 -17z m-136 -43 c0 -5 -5 -10 -11 -10 -5 0 -7 5 -4 10 3 6 8 10 11
10 2 0 4 -4 4 -10z m-590 -74 c0 -2 3 -11 6 -20 9 -23 -13 -20 -26 4 -9 16 -8
20 5 20 8 0 15 -2 15 -4z m110 -106 c0 -5 -4 -10 -10 -10 -5 0 -10 5 -10 10 0
6 5 10 10 10 6 0 10 -4 10 -10z m700 -82 c0 -6 -7 -5 -15 2 -8 7 -15 17 -15
22 0 6 7 5 15 -2 8 -7 15 -17 15 -22z m-680 -38 c0 -5 -2 -10 -4 -10 -3 0 -8
5 -11 10 -3 6 -1 10 4 10 6 0 11 -4 11 -10z m-422 -232 c2 7 8 9 13 6 6 -3 16
0 24 6 13 10 15 8 15 -18 0 -34 -12 -37 -85 -20 -45 11 -58 25 -42 43 10 10
18 8 41 -8 21 -15 31 -17 34 -9z m802 -158 c0 -5 -7 -10 -16 -10 -8 0 -12 5
-9 10 3 6 10 10 16 10 5 0 9 -4 9 -10z m-95 -350 c3 -5 13 -10 21 -10 22 0 50
-30 36 -39 -6 -3 -16 -19 -21 -35 -6 -15 -21 -30 -32 -33 -15 -4 -20 -12 -16
-29 2 -13 -1 -25 -7 -27 -6 -2 -9 -20 -8 -40 3 -28 0 -37 -12 -37 -9 0 -16 -8
-16 -20 0 -12 -9 -22 -24 -26 -14 -3 -27 -12 -30 -20 -3 -7 -12 -11 -21 -8
-10 4 -15 0 -15 -15 0 -12 -3 -21 -6 -21 -11 0 -44 42 -44 55 0 7 -7 15 -15
19 -11 4 -15 -2 -15 -22 0 -15 -4 -34 -10 -42 -5 -9 -5 -19 2 -27 7 -8 7 -13
0 -13 -8 0 -36 53 -37 70 0 3 -4 11 -9 19 -26 40 -5 130 31 131 6 0 16 13 21
29 8 23 7 32 -3 41 -8 7 -18 9 -23 6 -6 -3 -12 3 -15 14 -4 14 3 21 26 29 42
15 54 14 76 -8 18 -18 22 -19 50 -5 31 16 46 40 31 49 -21 13 -8 22 34 23 25
1 48 -2 51 -8z m-235 -474 c0 -40 6 -88 13 -105 12 -27 12 -41 0 -84 -7 -28
-17 -55 -22 -60 -12 -12 -42 55 -47 103 -1 19 -3 36 -3 38 -1 1 -1 5 -2 10 -1
4 -6 16 -11 26 -8 14 -6 21 6 28 12 7 14 13 6 28 -13 24 -2 76 12 62 14 -14
38 -3 31 14 -3 8 0 14 6 14 7 0 11 -27 11 -74z m3168 -657 c15 -29 35 -60 44
-70 13 -14 15 -24 7 -52 -6 -23 -6 -44 1 -63 12 -29 4 -104 -10 -104 -4 0 -6
-9 -3 -20 3 -12 0 -20 -6 -20 -7 0 -9 -5 -5 -11 3 -6 2 -21 -4 -32 -6 -12 -13
-35 -17 -50 -3 -15 -13 -31 -21 -34 -9 -3 -27 -16 -41 -29 -22 -20 -27 -21
-40 -9 -23 24 -36 18 -31 -15 2 -16 0 -31 -6 -33 -20 -7 -44 27 -41 56 3 23 0
27 -13 21 -9 -4 -32 -9 -49 -12 -24 -3 -33 -9 -33 -22 0 -10 -9 -22 -20 -25
-11 -4 -20 -15 -20 -26 0 -11 -4 -18 -9 -15 -4 3 -6 -6 -3 -19 7 -39 -39 -34
-72 7 -22 29 -27 31 -48 21 -41 -21 -62 -20 -86 5 l-22 24 25 30 c14 16 25 34
25 39 0 5 9 8 21 6 21 -2 32 10 43 46 3 9 15 17 26 17 31 0 80 28 80 46 0 8 6
17 13 19 13 6 20 74 12 113 -4 15 -13 22 -30 22 -23 0 -24 3 -23 45 2 44 3 45
35 45 21 0 36 -6 39 -15 3 -8 22 -19 42 -25 34 -9 38 -7 59 18 12 15 22 30 23
35 0 4 11 7 25 7 15 0 25 6 25 14 0 8 12 17 27 21 47 11 53 22 37 61 -13 30
-12 34 1 34 8 0 27 -23 43 -51z m-110 -597 c-10 -2 -18 -11 -19 -20 0 -14 -2
-13 -8 3 -13 32 -3 47 22 33 19 -11 20 -13 5 -16z m1359 -488 c3 -8 12 -13 19
-10 8 3 14 -1 14 -9 0 -8 -6 -15 -13 -15 -17 0 -57 29 -57 41 0 15 30 10 37
-7z m3 -405 c0 -18 -2 -19 -15 -9 -8 7 -15 16 -15 21 0 5 7 9 15 9 9 0 15 -9
15 -21z m-2220 -340 c0 -5 18 -9 40 -9 34 0 40 3 40 21 0 18 4 20 25 15 18 -5
25 -2 25 9 0 11 11 15 40 15 38 0 40 -2 40 -30 0 -27 2 -30 25 -24 22 5 25 3
25 -19 0 -31 -24 -57 -52 -57 -21 0 -21 0 -2 -21 15 -17 16 -22 4 -29 -10 -6
-14 -28 -15 -67 0 -58 0 -58 -32 -61 -17 -2 -37 -10 -43 -18 -7 -8 -20 -14
-29 -14 -28 0 -46 -17 -34 -32 8 -10 8 -18 -2 -31 -12 -17 -14 -17 -28 4 -10
14 -23 20 -35 17 -11 -3 -26 -2 -32 2 -14 9 -42 -4 -77 -34 -15 -13 -23 -31
-23 -52 0 -31 -2 -32 -57 -44 -32 -6 -70 -13 -85 -17 -20 -4 -27 0 -33 16 -6
20 -8 20 -37 5 -25 -13 -32 -14 -39 -2 -13 20 -11 25 16 32 29 7 31 25 10 66
-9 17 -15 32 -15 35 1 21 -2 25 -20 25 -12 0 -20 7 -20 16 0 10 6 14 15 10 10
-3 14 1 13 12 -4 49 0 52 56 50 54 -2 86 11 86 37 0 14 44 25 105 25 46 0 82
27 72 55 -5 10 0 15 13 15 24 0 26 13 5 30 -13 11 -13 14 2 26 17 12 17 13 1
19 -10 4 -18 11 -18 17 0 5 5 6 12 2 8 -5 9 0 6 14 l-6 22 29 -21 c16 -11 29
-25 29 -30z m1593 -675 c7 -8 -3 -34 -13 -34 -5 0 -8 9 -7 20 1 20 8 25 20 14z
m-573 -285 c0 -18 -2 -19 -15 -9 -15 12 -12 30 6 30 5 0 9 -10 9 -21z m668
-54 c-3 -3 -13 -2 -22 1 -14 5 -15 9 -4 15 13 8 36 -6 26 -16z m-2460 -63 c16
-3 25 -14 29 -33 3 -16 9 -29 14 -29 5 0 9 -4 9 -10 0 -18 -32 -11 -37 8 -2
10 -22 25 -44 35 -21 9 -39 21 -39 25 0 15 14 23 29 16 9 -4 26 -9 39 -12z
m1667 -13 c0 -7 -8 -15 -17 -17 -18 -3 -25 18 -11 32 10 10 28 1 28 -15z m375
-45 c12 -32 6 -44 -20 -37 -12 3 -20 14 -20 27 0 43 26 49 40 10z m514 7 c3
-5 0 -11 -8 -14 -15 -6 -26 1 -26 15 0 11 27 10 34 -1z m-2534 -61 c8 -5 11
-12 7 -16 -4 -4 -15 0 -24 9 -18 18 -8 23 17 7z m2123 -46 c-6 -16 -25 -14
-30 2 -2 5 6 10 16 11 14 1 18 -3 14 -13z m-43 -8 c0 -8 -4 -18 -10 -21 -5 -3
-10 3 -10 14 0 12 5 21 10 21 6 0 10 -6 10 -14z m134 -31 c3 -8 2 -15 -2 -15
-4 0 -8 -11 -8 -25 -1 -14 1 -25 5 -25 3 0 12 -9 19 -20 11 -18 10 -19 -14 -8
-20 9 -27 9 -34 -2 -4 -7 -15 -10 -23 -7 -8 3 -19 1 -23 -3 -11 -11 -25 -2
-46 31 -16 26 -16 26 10 27 62 3 73 7 85 34 13 31 22 35 31 13z m86 -175 c0
-5 -2 -10 -4 -10 -3 0 -8 5 -11 10 -3 6 -1 10 4 10 6 0 11 -4 11 -10z m-2288
-536 c9 -3 19 -12 22 -20 8 -20 -15 -29 -29 -11 -7 9 -14 14 -17 11 -3 -2 -8
5 -11 16 -4 14 -1 19 6 16 7 -3 20 -9 29 -12z"/>
<path d="M8395 13461 c-3 -5 -1 -12 5 -16 5 -3 10 1 10 9 0 18 -6 21 -15 7z"/>
<path d="M8501 13311 c-27 -24 -27 -26 10 -35 31 -7 44 13 26 39 -12 15 -15
15 -36 -4z"/>
<path d="M8567 13283 c-4 -3 -7 -11 -7 -17 0 -6 5 -5 12 2 6 6 9 14 7 17 -3 3
-9 2 -12 -2z"/>
<path d="M8610 13250 c0 -5 5 -10 11 -10 5 0 7 5 4 10 -3 6 -8 10 -11 10 -2 0
-4 -4 -4 -10z"/>
<path d="M5211 12324 c0 -11 3 -14 6 -6 3 7 2 16 -1 19 -3 4 -6 -2 -5 -13z"/>
<path d="M5207 12223 c-12 -11 -7 -41 7 -46 16 -7 26 1 26 20 0 7 -7 13 -16
13 -8 0 -12 5 -9 10 7 11 2 13 -8 3z"/>
<path d="M11790 11409 c0 -5 5 -7 10 -4 6 3 10 8 10 11 0 2 -4 4 -10 4 -5 0
-10 -5 -10 -11z"/>
<path d="M11567 11079 c-8 -28 -1 -40 19 -32 17 6 15 44 -2 50 -6 2 -14 -6
-17 -18z"/>
<path d="M11491 11060 c6 -4 14 -12 18 -18 4 -7 11 -5 18 7 10 15 7 18 -18 18
-17 0 -25 -4 -18 -7z"/>
<path d="M7910 11020 c0 -5 5 -10 10 -10 6 0 10 5 10 10 0 6 -4 10 -10 10 -5
0 -10 -4 -10 -10z"/>
<path d="M11567 11016 c-10 -25 -9 -68 2 -62 13 8 19 39 11 60 -6 18 -7 18
-13 2z"/>
<path d="M7926 10945 c-10 -8 -15 -18 -11 -24 10 -17 33 -13 44 8 14 25 -7 34
-33 16z"/>
<path d="M7465 10110 c-3 -5 -1 -10 4 -10 6 0 11 5 11 10 0 6 -2 10 -4 10 -3
0 -8 -4 -11 -10z"/>
<path d="M13220 9711 c0 -14 5 -18 20 -14 11 3 20 7 20 9 0 2 -9 8 -20 14 -17
9 -20 8 -20 -9z"/>
<path d="M13258 9687 c-8 -9 -19 -13 -23 -9 -5 4 -5 1 -1 -6 10 -16 -3 -74
-15 -67 -5 4 -6 -1 -3 -9 4 -9 -1 -18 -10 -22 -17 -6 -23 -44 -7 -44 17 0 19
-49 2 -63 -26 -23 -51 -28 -51 -12 0 8 -4 15 -10 15 -5 0 -10 -11 -10 -24 0
-13 -3 -32 -7 -42 -5 -14 -2 -16 15 -12 12 4 24 3 27 -2 2 -4 16 -5 30 -2 15
2 25 0 25 -7 0 -6 14 -11 30 -11 27 0 59 -17 128 -66 13 -10 22 -12 22 -5 0
19 26 12 51 -15 21 -22 30 -25 65 -20 44 6 113 -21 107 -41 -2 -6 3 -13 12
-16 10 -4 15 -1 15 11 0 15 2 15 10 2 8 -12 10 -11 10 7 0 12 -3 23 -7 26 -5
2 -1 2 7 -1 35 -10 80 -9 96 3 16 11 17 14 2 29 -9 8 -38 24 -65 35 -40 15
-50 24 -58 53 -8 29 -13 34 -30 28 -26 -10 -55 6 -55 30 0 24 -68 89 -92 90
-10 0 -32 8 -50 18 -54 30 -71 34 -64 17 8 -22 -10 -18 -37 9 -21 21 -22 25
-8 34 14 10 13 12 -7 18 -13 4 -21 12 -18 19 3 8 1 26 -3 41 -6 24 -8 25 -23
11z"/>
<path d="M12992 9404 c-1 -13 2 -25 6 -25 44 -7 63 -6 79 6 17 13 16 14 -9 15
-15 0 -29 4 -32 9 -3 5 -14 11 -24 13 -13 4 -18 -1 -20 -18z"/>
<path d="M14069 9390 c-4 -27 -29 -37 -96 -39 -29 -1 -51 -9 -71 -26 -17 -14
-38 -25 -48 -25 -11 0 -27 -7 -37 -14 -16 -13 -14 -14 20 -14 27 0 41 -6 51
-21 8 -12 20 -21 28 -21 22 0 27 20 8 41 -24 26 -12 33 30 19 38 -12 56 -7 56
16 0 8 2 14 5 14 13 0 54 -45 59 -64 8 -34 59 -33 86 1 12 16 34 30 48 33 22
4 28 11 30 37 4 40 -15 51 -83 49 -40 -2 -53 2 -66 18 -17 21 -17 21 -20 -4z"/>
<path d="M13690 9143 c1 -19 18 -33 33 -27 10 3 17 1 17 -5 0 -6 -5 -11 -12
-11 -9 0 -9 -3 -1 -11 22 -22 34 0 18 32 -14 26 -55 42 -55 22z"/>
<path d="M9291 8015 c0 -14 49 -69 55 -62 3 3 -8 20 -25 39 -17 18 -30 29 -30
23z"/>
<path d="M9258 7465 c2 -14 9 -25 14 -25 7 0 8 -16 4 -42 -6 -37 -4 -44 21
-64 27 -21 27 -24 15 -56 -8 -18 -16 -42 -19 -53 -4 -20 -4 -20 11 -1 9 11 16
28 16 38 0 15 5 17 25 12 28 -7 32 6 15 52 -7 18 -7 30 0 39 12 14 3 25 -20
25 -15 0 -31 34 -34 75 -1 10 -23 23 -42 24 -7 1 -9 -9 -6 -24z"/>
<path d="M12935 7470 c3 -5 10 -10 16 -10 5 0 9 5 9 10 0 6 -7 10 -16 10 -8 0
-12 -4 -9 -10z"/>
<path d="M12915 7450 c3 -5 8 -10 11 -10 2 0 4 5 4 10 0 6 -5 10 -11 10 -5 0
-7 -4 -4 -10z"/>
<path d="M9717 6984 c-6 -10 9 -42 16 -34 3 3 1 14 -3 24 -3 11 -9 15 -13 10z"/>
<path d="M9621 6872 c-1 -8 8 -16 19 -19 11 -3 20 -9 20 -15 0 -5 6 -3 14 4
12 11 12 14 -1 21 -8 5 -20 6 -28 3 -8 -3 -16 0 -19 7 -3 8 -5 8 -5 -1z"/>
<path d="M9495 6800 c4 -14 12 -30 19 -36 13 -13 96 -7 96 7 0 5 -4 10 -10 10
-5 1 -13 2 -17 4 -5 1 -21 5 -38 10 -16 4 -36 13 -44 19 -11 9 -13 6 -6 -14z"/>
<path d="M9660 6810 c0 -5 5 -10 10 -10 6 0 10 5 10 10 0 6 -4 10 -10 10 -5 0
-10 -4 -10 -10z"/>
<path d="M9410 6796 c0 -8 5 -18 12 -22 7 -4 8 -3 4 5 -5 8 -1 11 16 8 12 -2
17 -2 11 0 -7 3 -13 9 -13 14 0 5 -7 9 -15 9 -8 0 -15 -6 -15 -14z"/>
<path d="M9444 6728 c1 -29 16 -58 29 -58 2 0 2 11 0 24 -3 13 0 33 6 45 10
19 9 21 -12 21 -21 0 -24 -5 -23 -32z"/>
<path d="M9420 6665 c0 -9 -4 -14 -10 -10 -12 8 -50 -16 -50 -32 0 -7 -4 -13
-10 -13 -15 0 -12 -27 3 -33 7 -2 30 -2 52 2 37 6 40 9 41 41 1 19 -5 41 -12
48 -12 11 -14 11 -14 -3z"/>
<path d="M12160 5794 c0 -8 5 -12 10 -9 6 4 8 11 5 16 -9 14 -15 11 -15 -7z"/>
<path d="M12493 5655 c33 -29 43 -31 51 -9 9 22 3 26 -41 30 l-38 4 28 -25z"/>
<path d="M11433 5592 c9 -10 14 -27 11 -37 -3 -14 3 -25 18 -34 22 -13 22 -13
8 4 -14 17 -13 18 2 12 33 -12 31 16 -3 44 -38 32 -61 39 -36 11z"/>
<path d="M11694 5495 c-5 -21 -9 -23 -26 -14 -34 18 -80 14 -98 -9 l-17 -21
-28 29 c-23 24 -31 27 -48 19 -18 -10 -18 -13 16 -46 20 -19 34 -40 31 -47 -3
-8 2 -16 10 -19 9 -4 16 -15 16 -26 0 -23 23 -34 39 -18 9 9 14 9 20 -1 11
-18 59 -5 66 19 5 14 11 17 23 10 9 -4 46 -7 82 -4 36 2 73 4 83 4 21 0 23 15
2 23 -8 3 -15 17 -15 31 0 15 -13 37 -32 55 -31 30 -32 30 -40 11 -10 -29 -36
-26 -48 4 -12 32 -28 32 -36 0z m-5 -34 c16 -10 6 -31 -15 -31 -8 0 -14 9 -14
20 0 22 7 25 29 11z m41 -37 c0 -8 -5 -12 -10 -9 -6 4 -8 11 -5 16 9 14 15 11
15 -7z"/>
<path d="M12120 5448 c0 -8 -14 -24 -30 -37 l-30 -22 -10 23 c-6 16 -9 18 -9
7 -1 -21 -45 -33 -70 -19 -16 8 -21 5 -31 -20 -14 -35 -5 -48 51 -67 44 -16
69 -16 69 -2 0 8 14 10 41 6 25 -3 50 0 67 9 31 16 68 18 77 4 7 -12 45 10 45
26 0 11 -62 44 -85 44 -8 0 -30 14 -50 31 -22 20 -35 26 -35 17z"/>
<path d="M11880 5353 c1 -18 18 -35 24 -24 4 6 4 16 1 21 -7 12 -25 13 -25 3z"/>
</g>
</svg>
