<svg version="1" xmlns="http://www.w3.org/2000/svg" width="1214.047" height="851.238" viewBox="0 0 910.535 638.428"><g fill="#222"><path d="M856.456.896c-.3.4-2.4 1.1-4.6 1.5-2.7.4-4 1.1-4 2.2 0 .8-.7 2.2-1.5 3-.8.8-2.1 2.5-3 3.7-1.2 1.6-1.7 1.9-2.7.9-.7-.7-2.5-1.2-4.1-1.2-2.2 0-2.8.4-2.3 1.6.3.9.6 2 .6 2.5s.7.9 1.5.9c2.3 0 3.8 4.8 2.5 8.3-.5 1.7-1 3.1-1 3.3 0 .2 1.8 1.6 4 3 2.2 1.5 4 3.2 4 3.9 0 .8.9 3.4 2 5.9 1.4 3.3 1.6 4.6.7 4.7-.7.1-2.9.3-5.1.5-2.1.2-4.1.6-4.4.9-.3.3-1.3-.2-2.3-1.1-1.7-1.5-1.7-1.4-.7 2 1.3 4.1-.1 8.6-2.7 8.6-2.1 0-2.1 6.8 0 7.6.8.4 1.5 1.3 1.5 2 0 .8 1.1 3.7 2.6 6.5 2.6 5.1 3.6 9.6 3.6 15.9.1 7.5-.2 8.8-2.2 9.3-1.4.4-2.1 1.7-2.6 5.6-.4 3-1.2 5.1-1.9 5.1-.9 0-.9 1-.1 4.2.6 2.4 1.5 4.9 1.9 5.5.5.8.4 1.3-.2 1.3-.6 0-1.1 1.1-1.1 2.4 0 1.3-.5 2.6-1 2.8-.6.2.2 2.2 1.7 4.5 3.1 4.8 4.8 4.6 4-.3-.5-3.2-.4-3.4 2.3-3.4 1.6 0 3.2.5 3.5 1.1.4.6 1.3.8 2 .5.7-.2 1.6.2 1.9 1 .5 1.3.9 1.2 2.5-.3 2.4-2.3 3-4.4 2-6.5-1.2-2.2 1.3-8.2 2.7-6.8.6.6 1.8.8 2.7.4 1.1-.4 1.4-1.1.8-2.7-.6-1.5-.2-3.8 1-7 1.1-2.6 1.9-5.9 1.9-7.2 0-1.8.5-2.5 1.9-2.5 3.3 0 10.1-4.3 10.7-6.7.7-2.7.7-2.7 4.5-.8 1.6.9 3.4 1.3 3.9 1 .6-.3 1-.2 1 .3 0 .6 1 .6 2.4-.1 1.3-.6 2.2-1.7 1.9-2.3-.2-.7.5-1.5 1.6-1.9 1.2-.3 2.1-1.1 2.1-1.7 0-.7.5-.6 1.5.2 2.2 1.8 3.7.2 2.9-3.2-.6-2.8-.4-3 1.5-2.5 1.5.4 2.4 0 2.8-1.1 1.3-3.5 4.4-7.1 5.7-6.6 1.7.7 2.6-.8 3.2-5 .3-2.7-.1-3.5-2.1-4.6-1.4-.7-2.7-2-3-2.9-.6-1.9-4.5-4.6-4.5-3.1 0 .5-.9 1-1.9 1-1.1 0-2.3.4-2.6 1-1.1 1.8-7.4 1.1-9.5-1-1.1-1.1-2-2.4-2-3 0-1.5-8.3-5.5-8.8-4.2-.2.8-1 .8-2.8 0-2.1-1-2.4-1.8-2.4-6 0-4.5-.2-4.8-2.5-4.8-2.8 0-3.2 1.2-1.2 3.2 1.8 1.7 1 3.8-1.4 3.8-1.4 0-1.9.7-1.9 2.5 0 2.1-.5 2.5-3 2.5-1.6 0-3-.5-3-1 0-.6.5-1 1.1-1 .6 0 .9-.5.7-1.2-.5-1.4-3.8-2-3.8-.7 0 .5-.5.9-1.2.9-.9 0-.9-.3 0-1.2 1.9-1.9 1.4-5.3-1.3-8.2-1.4-1.5-2.5-3-2.5-3.4 0-.4-.4-1.3-.9-2.1-.8-1.2-1.2-1.3-2.5-.1-.9.7-1.8 1.1-2 .9-.8-1-1.6-5.9-.9-5.7.5.1 2-.9 3.4-2.2 2.5-2.2 2.6-2.6 1.2-4.7-2-3.1-.1-3 3.3.2 3.3 3 3.2 3 6.8 0 2.2-1.8 2.7-2.7 1.9-3.7-1.3-1.6-1.1-5.2.5-7.1.7-.7.9-1.7.5-2.1-.4-.3.2-1.2 1.2-2 1.6-1.2 1.7-1.6.6-3-1.4-1.7-6.6-2.2-7.5-.7zm4.4 7.1c0 .7-2.4 2-3.6 2-.2 0-.4-.9-.4-1.9 0-1.4.5-1.8 2-1.4 1.1.3 2 .9 2 1.3z"/><path d="M852.856 23.996c0 .5.5 1 1.1 1 .5 0 .7-.5.4-1-.3-.6-.8-1-1.1-1-.2 0-.4.4-.4 1zM856.856 27.296c-2.5 4-2.1 6.4 1.2 7.8 2.1.8 2.8 1.7 2.5 3-.7 2.6 3 3.3 3.9.7.8-2.8-1.4-9.2-4-11.7l-2.2-2-1.4 2.2zM850.856 29.996c0 .5.7 1 1.6 1 .8 0 1.2-.5.9-1-.3-.6-1-1-1.6-1-.5 0-.9.4-.9 1zM601.556 39.496c.3.8.9 1.2 1.4.9 1.2-.7 1.1-1.1-.5-1.7-1-.4-1.3-.1-.9.8zM603.856 44.096c.7 1.1.9 2.7.6 3.4-.2.7.1 1.6.9 1.9.8.3 2.1 1.9 3 3.7 1.5 2.9 1.6 3.1.1 2.6-1.2-.5-1.6 0-1.6 1.8 0 1.4-.8 2.9-2 3.5-1.2.6-2 2.1-2 3.6 0 1.9-.7 2.9-2.9 3.7-2.9 1.1-3 1.2-2.5 7.1.4 4.2.1 7.5-1 10.5-.9 2.4-1.6 4.5-1.6 4.6 0 .2 1.5 1.3 3.3 2.4 3.2 2 4 4.2 2.4 6.8-1 1.6.2 4.1 2.4 4.8 1 .4 1.9 1.1 1.9 1.6s1.2.9 2.7.9c1.4 0 3.4.7 4.4 1.6 1.7 1.5 1.9 1.4 2.5-1 .5-2.1 1-2.5 2.8-2 1.1.3 2.5 1 3.1 1.5 1.4 1.4 2.3 1.1 3-1.1.3-1.1 1.3-2 2.1-2s2.5-1 3.7-2.3c1.8-1.8 2.2-3.3 2.1-7.7-.3-8.9-1.1-15.5-2.3-17.8l-2.2-4.4c-.7-1.2-.8-2.3-.3-2.5.5-.2.7-2.8.6-5.9-.3-3.5 0-5.4.6-5 .5.3 1.5-.1 2.1-.8.9-1.1.7-2.4-.8-5.8-1.1-2.3-2.1-5.1-2.3-6-.3-1.6-.6-1.6-3.5-.2-2.8 1.4-3.4 1.4-6.1 0-3.2-1.7-6.6-1.2-5.6.8.4.6-.5-.1-1.8-1.7-1.4-1.5-3.5-2.7-4.7-2.7-1.9 0-2 .3-1.1 2.1zM896.256 49.396c-.8 2.1-.4 2.5 1.9 1.7 1.7-.6 1.7-.8.3-2-1.3-1.1-1.7-1.1-2.2.3zM622.356 113.396c-1.2 1.8-1.5 3.6-1.1 6 .6 2.9.2 3.7-2.2 5.8-2.3 1.9-2.8 3-2.5 5.4.4 2.5 0 3.4-2.1 4.8-1.5.9-3 1.5-3.5 1.2-.4-.3-.7 1.1-.6 3.1.2 2.1.8 3.9 1.4 4.1.9.3.9.7 0 1.8s-.8 1.9.4 3.7c1.1 1.6 1.2 2.8.5 4.1-.5.9-.7 2.4-.4 3.2.4 1.1 0 1.5-1.7 1.2-1.4-.2-2.3-1.1-2.5-2.6-.3-2.3-3.6-4.7-5.1-3.8-1.1.7-.2 5.6 1 5.6.5 0 .9.5.9 1.1 0 .5-.5.7-1.2.3-.7-.4-.8-.3-.4.5.9 1.5 2.6.5 2.6-1.6 0-1.3.3-1.3 1.5-.3 1.4 1.2 1.3 1.5-.5 3.2-1.1 1-2 2.6-2 3.5 0 .9-.3 1.4-.6 1-.3-.3-2.6 1-5.1 2.9-2.5 1.9-5.2 3.3-5.9 3-.9-.3-1.4.2-1.4 1.4 0 1.7-2.7 3.4-4.6 2.8-.5-.1-1.9.2-3.2.6-1.6.5-2.1 1.3-1.7 2.5.7 2.2-4.1 7.7-7 8.2-1.2.3-2.4 1.7-3 3.7-.6 2.1-1.5 3.2-2.8 3.2-1.2 0-2.4 1.4-3.5 4-2.1 4.8-3.8 5.3-7.9 2.2-3.1-2.3-8.1-2.4-6.7-.1 1.1 1.9-2.8 3.8-5.6 2.8-5.4-2-7-3.2-6.5-5 .4-1.1-.1-1.8-1.5-2.2-1.7-.4-2 0-2 3.1 0 3-.6 4.2-3.3 6.3-3.3 2.7-3.4 2.7-5.8.8-2.4-1.8-2.4-1.9-.2-1.9 3.2 0 3.7-1.7 1.4-4.7-1.6-1.9-1.8-2.9-1-3.9 1.1-1.4.5-3.4-1.1-3.4-1.4 0-3.1 7.6-2.4 10.5.4 1.7.2 2.5-.7 2.5-.9.1-.8.4.4 1.1 2.7 1.6 2 3.5-1.4 3.7-2.2.2-2.8-.1-2.3-1 .6-1 .4-1-.8 0-2.2 1.7-2.2 11.3-.1 10.5.9-.4 1.3.4 1.3 2.8 0 7.2.9 13 2.1 14.5 1 1.3 1 1.7 0 2.4-1 .6-.8 1.4.9 3.8 2 2.6 2.6 2.9 4.5 2 1.3-.6 2.5-1.8 2.8-2.7.3-1.3 1.2-1.6 3.8-1.3 5.3.6 8.9-1.2 9-4.5 0-1.6.3-2.2.6-1.5.2.6.9 1 1.4.6.5-.3.9.1.9 1 0 .8.6 1.6 1.3 1.9.6.3-.1 1-1.7 1.6l-2.8 1.1 2.8 2.2c1.6 1.2 3.2 2.7 3.6 3.3 1.3 1.8.9 3.5-.7 2.9-1.9-.8-2 1-.1 2.5 1.1.9 1.5.9 1.9-.1.3-1 .7-1 1.7-.1.9.9 1.9.9 3.2.2 1.4-.8 2.4-.7 3.5.3 1.4 1.1 1.5.8.8-3.2-.4-2.5-1.2-5-1.7-5.7-.6-.8-.5-1.9.2-3.3 1.1-2 1.3-2 2.9-.6 1 .9 2.5 1.6 3.3 1.6 1.1 0 1.5.8 1.4 2.5-.1 1.7-.7 2.5-1.8 2.5-1.5 0-1.8.9-1.8 4.5 0 3.2.4 4.5 1.4 4.5.7 0 1.9.7 2.6 1.5.9 1 .9 1.5.1 1.5-.6 0-1.1.7-1.1 1.5s-1.1 2.2-2.5 3.1l-2.5 1.6 2.3 1.8c1.7 1.5 1.9 2.1 1 3.1-.8.8-.9 1.8-.3 2.9.7 1.4.5 1.9-1 2.3-1.5.4-2 1.4-2 3.6 0 1.7-.4 3.1-.8 3.1-1.2 0-3.2-2.3-3.2-3.7 0-.7-1.3-3.4-3-6-3-4.7-3.8-6.9-2.1-5.9.5.4.9-1.4.9-3.8 0-3.7-.4-4.8-2.5-6.2-2-1.3-2.5-1.3-2.1-.2.3.8-.5 2.5-1.8 3.7-2.5 2.4-2.5 2.4-.4 3.8l2 1.4-2 3c-1.2 1.6-2.6 2.9-3.2 2.9-.5 0-1.8 1-2.7 2.2l-1.8 2.2-2.7-2.1c-2.6-2.1-9.4-3.9-12.7-3.4-1.8.2-4.3-4.5-2.9-5.4.6-.4.7-1.3.1-2.3-1.4-2.8-2.2-8.4-1.1-7.7 1.2.8 1.3-3.5.1-5.4-1-1.5.8-4.1 2.8-4.1.6 0 .8-.7.5-1.5-.4-.8-1.3-1.5-2-1.5-.8 0-2.6-.7-3.9-1.6-1.5-1-2.5-1.2-2.5-.5 0 .6-.6 1.1-1.4 1.1-.8 0-1.8.9-2.1 2-.3 1.1-1.4 2-2.3 2-1.1 0-1.7.8-1.7 2.4 0 1.3.4 2.4.8 2.3.5-.1 1.4.7 2 1.8.7 1.1 1.8 2.4 2.6 3.1 1.7 1.3.6 5.4-1.4 5.4-1.1 0-1.3.8-.8 3 .3 1.9.1 3-.6 3-1.4 0-1.5 3.7-.1 4.5.8.5.8 1.1 0 2-.6.7-.8 2.5-.4 3.9.5 2.1.3 2.6-1.2 2.6-1.1 0-2.6.6-3.5 1.3-2.3 1.7-1.7 11.1 1 16.2 1.9 3.5 1.9 4.1.7 5.1-1.3.9-1.3 1.3 0 3.2 1 1.5 1.1 2.2.3 2.2-.7 0-.9 1-.5 3 .3 1.6.2 3-.3 3s-1.2.7-1.5 1.6c-.4 1 .6 2.6 2.9 4.7 1.9 1.7 3.5 3.7 3.5 4.4 0 .7.7 1.3 1.6 1.3 1.3 0 1.5-.7 1.1-3-.4-1.8-.2-3 .4-3 .6 0 .8-.4.5-.9-.3-.5.1-1.2 1-1.5.9-.3 1.4-1.2 1.1-1.9-.2-.6.1-2.3.9-3.7.7-1.4 1.5-3.3 1.8-4.4.4-1.2 1.3-1.7 2.6-1.3 1 .3 2.1 0 2.3-.6.2-.6 2-1.1 4-1.1 2.8 0 3.7-.4 3.7-1.7 0-1.6 2.6-3 6-3.3.8-.1 2.4-.6 3.5-1.2s3.2-1.4 4.6-1.8c1.6-.3 3.5-2 4.8-4.2 1.5-2.5 2.6-3.4 3.8-3 2 .8 6.3-1.9 6.3-4 0-1.2.4-1.4 1.3-.7.6.5 3.2 1.6 5.7 2.3 2.5.7 4.9 1.6 5.5 1.9.5.3 2.4.6 4.2.7 4.6.2 6.4 2 5.9 6.1-.2 1.8-.1 3.1.2 2.9.3-.3 1.8.6 3.4 1.9 1.8 1.6 4.2 2.5 6.2 2.5 2.1 0 4.3.9 5.9 2.4 1.4 1.3 2.8 2.2 3.1 1.9.3-.3 1.8-.1 3.5.5 3.5 1.2 4.4.6 3-1.9-.9-1.7-.6-1.8 2.3-1.2 1.8.3 3.4.7 3.6.9.7.5-5.1 6.3-5.8 5.9-1.8-1.1 0 3.9 2.5 6.9l2.9 3.5 1.3-3.1c.8-1.8 1.1-3.8.9-4.5-.3-.7-.1-1.5.5-1.9.6-.3.9-2.2.8-4.3-.3-4.1 1.7-8.5 3.5-7.8 1 .4 1.1-.7.4-5.1-1.1-7-.5-9.8 2.4-10.5 1.8-.5 2-.9 1-1.9-1.9-1.9-1.4-2.6 1.4-2 1.9.3 2.5.1 2-.6-.5-.8-.1-1 .9-.6 1.3.5 1.2.9-.7 2.6-1.3 1.2-1.6 1.9-.8 1.6.8-.3 2.8.8 4.3 2.4 2.5 2.6 2.7 3.3 2.1 7.6-.4 2.6-1.1 4.9-1.5 5.3-1 .6-2.8 12.8-2 13.3 4.8 2.9 8.5 4.6 9.7 4.6.8 0 1.3.4.9.9-.9 1.6.9 2 2.3.5.7-.8.8-1.4.2-1.4-2 0-1-1.5 1.9-2.8 2.2-1 2.7-1.7 2.3-3.7-.3-1.9 0-2.5 1.4-2.5 1 0 4.2-2.5 7.1-5.6 4.5-4.7 5.3-6.1 4.9-8.5-.2-1.6 0-2.9.5-2.9.6 0 .9-.6.8-1.3-.1-.6-.1-2.5 0-4.1.1-2.6.3-2.8 2.8-2.1 1.6.4 2.5.3 2.1-.1-.4-.4-.3-1.3.2-1.9.6-.7 1.1-3.1 1.2-5.4.1-3.9.4-4.4 3.7-5.7 3.2-1.2 3.6-1.8 3.6-4.9 0-1.9-.6-4-1.3-4.7-2.3-2.3-1.2-2.8 6.9-2.8 4.5 0 11-.5 14.5-1.2 4.7-.8 7-.9 8.6 0 1.3.6 3.1 1.2 4.1 1.4 1 .2 2.8 2.1 4 4.3 2.6 4.7 3.7 5.7 5.2 4.5 1.8-1.5 5.1-1.5 6.8-.1 1.9 1.5 4.9.8 4.5-1-.2-.7 1.2-1.7 3-2.2 2.5-.8 3.6-.7 5 .5 2.2 1.9 11.2 6.8 12.4 6.8.5 0 .6-.5.2-1.2-.5-.8-.2-.9 1-.5 1 .4 3.8 0 6.3-.8 2.4-.8 4.9-1.3 5.4-.9.5.3 2.4-.3 4.2-1.4 1.7-1.1 3.8-1.7 4.5-1.5.7.3 1.2-.5 1.2-2 0-1.4.5-2.7 1.1-2.9.8-.3.8-1.4.1-4.1-1-3.4-.9-3.7 1-3.7 1.2 0 2.9-.8 3.8-1.8 1.6-1.6 1.6-1.9-.1-4.2-1.2-1.6-1.6-3.3-1.2-4.8.3-1.3.9-1.9 1.2-1.4.3.6 1.9 1.4 3.4 1.7 2.3.6 2.9.4 3.3-1.3.8-2.9 4.7-4.5 6.1-2.3.8 1.3 1.1.9 1.5-2.3.3-2.8-.2-5.1-2-8.4-2.2-4-2.2-4.4-.6-3.8 3.1 1.2 3.5 1.2 4.7-.7 1-1.4.8-2.4-.6-4.9-2.2-3.8-1.7-4.4 2.2-2.8 4.7 1.9 6.3.8 5.5-3.6-.6-3.2-.4-3.6.9-3.1 1 .4 2.7-.5 4.6-2.3 1.6-1.7 3.4-3 4-3 1.3 0 1.5-1.7.2-2.4-.5-.3-1.1.1-1.5.9-.5 1.3-1 1.3-4.1-.2-1.9-.9-3.5-2.3-3.5-3.1 0-1-.7-1.3-2.2-.9-1.2.4-2.9.1-3.7-.6-1.1-.9-1.5-.9-1.8 0-.3.7-1.3 1.3-2.4 1.3-1.1 0-1.9.7-1.9 1.6 0 1.7-2.2 1.3-7.2-1.3-2.1-1-2.8-2.1-2.8-4.3 0-1.6-.4-3.2-1-3.5-2.4-1.5-.9-3.3 2.5-3 2 .2 3.3 0 2.9-.6-.3-.5-1-.7-1.5-.3-.6.3-2.1-.6-3.3-1.9-1.3-1.4-2.6-2.3-2.9-2-.3.3-1.2-1-2-2.8-.9-1.9-3.1-5.2-5.1-7.3-2-2.2-3.6-4.4-3.6-5-.1-.6-.7 0-1.4 1.4-1.7 2.9-6.6 3.6-10.8 1.4-1.6-.8-2.8-1-2.8-.5 0 .7-.9.7-2.2.2-1.3-.4-2.9-.6-3.6-.4-.7.3-2-.1-2.8-.8-1.3-1.1-1.7-1.1-2.5.1-2.6 4.4-2.6 4.5-4.5 2.9-1.4-1.1-1.8-1.2-2.2-.1-.3 1-1.3.4-3.3-1.8-1.6-1.7-2.9-2.8-2.9-2.5 0 .4-1.3-.3-2.9-1.4-1.6-1.2-3.8-2.1-5-2.1-1.3 0-2.6-1.1-3.6-2.9-.8-1.6-2.4-3.2-3.5-3.6-1.1-.3-2-1.3-2-2.1s-1.5-2.3-3.2-3.4c-3.8-2.3-14.3-2.5-16.8-.4s-9.9 4.4-10.5 3.3c-.4-.5-1.6-.9-2.8-.9-3.3 0-12.7-4.2-12.7-5.7 0-.8-1-1.7-2.1-2.2-1.2-.4-2.9-2.3-3.8-4.2-1.1-2.4-3.2-4.2-7-6.1-3-1.5-5.7-2.6-5.9-2.3-.2.2-2.1-.4-4.2-1.5-4-2.1-5.7-4.7-4-6.4 1.4-1.4 1.3-6.6-.1-6.6-.7 0-1.7-.7-2.3-1.5-.6-.8-2-1.7-3.1-2-1.1-.2-3-.7-4.2-1.1-1.6-.4-2.5.1-3.8 2zm36.5 32.2c0 .8-.4 1.2-1 .9-.5-.3-1-1-1-1.6 0-.5.5-.9 1-.9.6 0 1 .7 1 1.6zM840.356 139.496c.4 4.1 2.4 5.4 2.2 1.4-.1-1.8-.7-3.4-1.4-3.6-.7-.3-1 .6-.8 2.2zM838.156 151.496c-.7.8-1.3 2.4-1.3 3.6 0 1.2-.7 3-1.6 4-1 1.1-1.6 3.6-1.6 6.8.1 4.6-.2 5.3-3.4 7.7-1.9 1.5-3.4 3.2-3.4 3.9 0 .7-1.6 1.6-3.5 1.9-1.9.4-3.5.8-3.5.9 0 .1.4 1.8 1 3.6 1.2 4.1-.8 7.1-4.7 7.1-1.6 0-2.3.6-2.3 2 0 1.1-.6 2-1.2 2-.7.1 1 1 3.7 2.1 2.8 1.2 5.8 2.5 6.8 3s2.3.6 3 .2c.7-.4 2-.6 2.9-.5 1.3.2 1.6-.1 1.1-1.3-.9-2.5 1.7-3.6 4.4-1.8 1.9 1.2 2.3 1.3 2.3.2 0-.8.9-2 2-2.7 1.1-.7 1.7-1.8 1.4-2.7-.4-1 .3-1.8 2-2.5 1.4-.5 2.6-1.6 2.6-2.4 0-2.4 2.9-4.1 5-2.8 1.4.9 2.1.7 3.4-.6 2.1-2.4 1.1-6.1-1.5-5.5-1 .3-1.9 0-1.9-.6 0-1.4 3.7-1.5 4.5-.1.5.8 1.1.8 1.9.1.7-.6 2.2-.8 3.3-.5 1.8.5 2.5-.1 3.7-2.7.9-1.9 2.3-4.4 3.2-5.7 1.4-1.9 1.4-2.2.1-2.2-.8 0-2-.6-2.6-1.3-.6-.8-2.9-2-5.1-2.7-2.2-.7-3.8-1.5-3.5-1.8.9-.9-1.7-3.2-3.5-3.2-1.1 0-1.7-.7-1.6-1.7.1-1.2-1.1-1.9-3.9-2.5-2.2-.5-4.4-1.3-4.9-1.8-1.3-1.3-1.8-1.2-3.3.5zM487.556 241.096c-.4 1.4.1 3.3 1.4 5.1 1.9 2.6 1.9 2.9.4 3.5-2.4.8-7.5 9.1-6.8 10.9.3.8 0 2.1-.7 2.9-1 1.3-.6 1.4 3.4 1.3 4.5-.2 4.5-.2 2.6-2.3-1.9-2-1.9-2.1.9-4 1.6-1 2.7-2.5 2.4-3.2-.3-.8-.2-1.3.3-1.2 2 .3 2.4-.2 1.4-2.1-1-1.9-.9-2 1.6-1.4 1.7.4 2.9.2 3.5-.7.4-.8 1.6-1.4 2.5-1.4 1 0 1.9-.6 2.1-1.3.3-.6 0-1.2-.6-1.2s-2.1-1-3.3-2.2c-2-2-3.4-2.5-7.8-3-.8 0-1.8-.5-2.1-1-.3-.5-.9 0-1.2 1.3z"/><path d="M623.456 309.496c-.3.9 0 1.5.8 1.5s1.6-.7 2-1.5c.3-.9 0-1.5-.8-1.5s-1.6.7-2 1.5zM513.556 320.696c-.4.3-.7 1.4-.7 2.4 0 .9-.7 2-1.5 2.3-.9.3-1.5 1.4-1.3 2.3.2 1-.2 1.7-.9 1.5-1.7-.3-1.6 1.3.2 4.9.9 1.6 1.2 3.5.8 4.2-1.5 2.4-1.3 5.4.6 7.1 1.6 1.4 1.8 2.3 1 4.3-.7 1.9-.5 3 1.1 5 1.2 1.6 1.7 3 1.2 3.7-1.2 1.5-1.2 8.6-.1 8.6.5 0 1.7 1.7 2.6 3.7 1 2.1 2.6 4.8 3.7 6.1 1.1 1.3 2.1 3.3 2.1 4.6.2 4.1 2.5 8 6.7 11.4 2.9 2.3 4.4 2.9 4.9 2.1.8-1.4 2.9-.3 2.9 1.7 0 .8.5 1.4 1.1 1.4.6 0 .8.7.5 1.5-.3.8-.8 2.1-1.1 2.8-.3.7.8 3.1 2.5 5.2l3 3.8-2.2 1.3c-1.3.7-3.3 1.7-4.4 2.3-1.9.9-3.4 3-3.4 5 0 .4 1.1 1.3 2.4 1.9 2.9 1.3 6.9.4 6.2-1.4-.3-.7.2-1.8.9-2.4.9-.8 1.3-2.1.9-3.6s-.2-2.4.6-2.4c.6 0 .8-.5.4-1.2-.4-.6-.7-2.7-.6-4.5.1-1.9-.6-4.6-1.5-5.9-1.5-2.3-1.5-2.6.1-3.7 1-.7 1.9-3 2.1-5.5.2-2.3.6-4.6.9-5.1.3-.5.1-3.4-.6-6.6-.9-4.5-1.6-5.9-3.5-6.6-1.2-.4-2.3-1.4-2.3-2 0-2.3-7.8-8.9-10.5-8.9-2 0-2.8-.7-3.6-2.9-.6-1.6-1.7-3.2-2.4-3.5-1.8-.6-4.8-11-4-13.5.3-1.1.1-2.2-.5-2.6-.5-.3-1-1.3-1-2.2 0-.9-.7-2.5-1.7-3.5-1.5-1.7-1.5-1.8.2-1.8 1.1 0 1.5-.5 1.1-1.5-.3-.8-.1-1.5.5-1.5s.8-.7.5-1.6c-.3-.8-.1-2.4.4-3.4.8-1.5.6-2.1-.9-3-2.3-1.2-2.6-1.2-3.4-.3zM615.656 321.696c.7.3 1.6.2 1.9-.1.4-.3-.2-.6-1.3-.5-1.1 0-1.4.3-.6.6zM54.956 389.496c-1.8.7-3.8 1.9-4.3 2.8-.5 1-1.8 1.7-2.8 1.7-1.1 0-2 .7-2 1.5 0 1.3-.4 1.4-2 .5-1.8-.9-2-.8-2 1.5 0 1.8-.5 2.5-2 2.5-1.1 0-2 .5-2 1 0 .6-1 .8-2.4.4-1.6-.4-2.5-.1-3 1.2-.7 1.9 1 4.4 3 4.4.8 0 2.6 1.3 4.1 3 1.4 1.6 3.2 3 3.9 3 .7 0 1.6.9 1.9 2 .3 1.1 1 2 1.5 2s.6.7.3 1.7c-.4 1.1-.3 1.4.5.9 1.1-.6 1.7 1.2 1.3 3.7-.3 1.7 3.1 1.9 4.3.2 1.4-2 5.6-1.3 5.6 1 0 1.6 3 1.5 4.8-.2.9-.9 1-1.8.3-3.1-1.5-2.8-.2-6.5 2-5.9 4.3 1.1 6.4-7.7 3.9-16.2-1.1-3.5-1.1-4.6-.1-4.9.9-.3.7-.9-.5-2.3-1.6-1.8-1.9-1.8-3.5-.3-2 1.8-4.9 1.2-4.9-1 0-2-2-2.4-5.9-1.1zm6.4 5.6c-1 1.5-2.5 1-1.9-.6.4-.8 1-1.2 1.5-.9.5.3.7 1 .4 1.5z"/><path d="M548.256 391.596c2.2 2.1 2 4.5-.4 5.1-1.1.3-1.7 1-1.4 1.5.4.6 0 1.4-.7 1.9-1.2.8-1.2 1.1.1 1.9 1.1.7 1.7.5 2.2-.8.4-.9.7-1.1.7-.5.1 1.8 2.8 1.6 3.5-.2.3-.8.1-1.5-.5-1.5-.5 0-.9-1.6-.7-3.6.1-2.2-.3-3.9-1.2-4.4-2.4-1.5-3.3-1.1-1.6.6zM243.856 394.196c-2.5 1.1-6.9 2.2-9.7 2.5-3.5.4-5.3 1-5.3 1.9 0 .8-.9 1.4-2 1.4-1.7 0-1.9.6-1.6 3.9.3 3.6.1 3.9-2 3.6-1.3-.1-2.4.1-2.4.5 0 .5-.9.6-2 .3s-2-1.1-2-1.8c0-2.6-16.2-6.7-17.5-4.5-.8 1.2-4.8 1.3-6.1.1-.5-.4-2.1-1.1-3.5-1.4-2-.5-3-.1-4.7 2.3-1.3 1.8-1.9 3.6-1.5 4.6.5 1.3.3 1.6-.9 1.1-1-.3-1.9 0-2.2.9-.4.9-2.1 1.4-5.5 1.4-4.5 0-5.2.3-6.8 3-1.9 3.3-3.3 3.7-6.4 1.7-1.7-1-2.2-.9-3.5.7-.8 1.1-1.4 3.2-1.4 4.7 0 2.9-2.5 6.3-4 5.4-.4-.3-1.1.2-1.4 1.1-.3.8-1 1.2-1.6.9-.5-.3-3.1.3-5.6 1.4-2.6 1.2-5.3 2.1-6 2.1-.8 0-1.4.4-1.4 1 0 .5-.9 1-1.9 1-1.1 0-2.3-.5-2.6-1-.3-.6-2.4-1-4.5-1-2.3 0-4.2-.6-4.7-1.4-.8-1.4-2.5-2-4.9-1.7-1.3.1-.7 4.9.8 6.8.5.7 1.2 4 1.4 7.5.3 3.5.7 6.9.9 7.5.2.7 0 1.3-.6 1.3s-.7.4-.4 1c.3.5-.1 1-.9 1-.9 0-1.8 1.3-2.2 3.5-.9 5.1-7.2 8.7-11 6.2-1.2-.7-6.4 1.3-6.4 2.5 0 .4-2.5 1.4-5.5 2.3-3 .8-5.5 1.9-5.5 2.4s-1.2 1.2-2.6 1.5c-2.2.6-2.5 1.1-2 3.4.4 1.5.8 5.4 1.1 8.7l.4 6-3.9-.3c-3.9-.4-4-.3-4 2.7 0 2 .7 3.4 2 4.1 2.3 1.3 2.4 1.9.6 4.3-1.1 1.4-1.9 1.6-3.3.8-1.5-.7-2.2-.5-3.1.9-1 1.6-.8 2 .8 2.5 1.1.3 2.4.4 2.8.1.5-.3 2.3-.1 4 .3 2.5.8 3.4.6 4.8-1 1.2-1.4 2.6-1.8 4.1-1.4 1.4.3 3.4-.1 4.8-1.1 2.4-1.6 3.8-1.5 7.8.1 1.3.5 1.7.2 1.7-1.4 0-2.7 1.4-2.7 5.2 0l2.9 2.1 2-2.1c1.1-1.1 3-2.1 4.2-2.1 1.2 0 3.5-.7 5.2-1.6 1.6-.8 3.7-1.3 4.7-1.1 1.9.5 8.7-2.5 9.8-4.4.5-.8 1.7-.6 4 .6 2.7 1.4 3.7 1.5 5.6.4 2.1-1.1 2.7-1 4.7.9 2.7 2.6 4.5 2.8 5.3.7.9-2.3 4.8-1.8 7.4 1 2.2 2.3 2.5 2.4 4.2.8 1.5-1.3 2.3-1.4 4.3-.5 2.1 1 2.5.9 2.5-.3 0-1.9 1.4-1.9 3 0 .8.9 2.2 1.2 4.3.8 2.5-.5 2.9-.3 2.4 1-.3.8.1 2.1.9 2.8.8.7 1.2 2 .9 3-.8 2.3 1.7 2.6 3.5.4.7-.8 1.6-1.3 2-1 .4.2.5-.7.2-2-.2-1.5 0-2.5.7-2.5.6 0 1.1-1.4 1.1-3 0-1.8.6-3.3 1.5-3.6.8-.4 1.5-1.6 1.5-2.8 0-1.2.6-2.8 1.3-3.5 1-1.1.7-1.3-1.5-.9-3.3.6-3.7-1-.8-3.4 1.8-1.6 2-1.6 2.8-.1.5.9 1.5 1.3 2.1.9.6-.4.8-1.2.5-1.8-.4-.6-.1-1.4.6-1.8.9-.6.9-1.2 0-2.9-1.2-2.4.1-5.1 2.5-5.1.7 0 1.6-.7 1.9-1.5.3-.9 2.2-2.3 4.1-3.1 2-.8 3.3-1.9 2.9-2.5-.3-.6 1.2.1 3.5 1.5 2.2 1.4 5 2.6 6.2 2.6 1.8 0 1.9.3.9 1.5-.6.8-.9 1.8-.6 2.4 1 1.5-1.2 6.1-2.9 6.1-1.2 0-1.1.4.4 1.9 1.2 1.2 2.7 1.7 4 1.4 1.6-.4 2.1.1 2.6 2.3.4 1.6.8 3.4 1 4 .2.6-.1 1.6-.7 2.2-.8.8-.8 1.5.1 2.6 1.1 1.3.6 2.3-2.7 6.2-2.3 2.5-3.9 5.1-3.6 5.8 1 2.6-1.5 6.6-4 6.6-2.1 0-2.4.4-2.2 3.2.1 2.9-.2 3.3-2.6 3.6-3.2.4-3.4 1.5-1.3 5.6 2.1 4 1.9 6.6-.4 6.6-1.4 0-1.8.5-1.4 2.1.3 1.1 1.1 2.3 1.8 2.6.7.2 1.6 1.6 2 3 .7 3 4.4 6.3 6.2 5.6.7-.3 1.3 0 1.3.5 0 1.2 5.5 4.2 7.6 4.2.7 0 1.7-.7 2.2-1.7.8-1.4 1.2-1.3 2.7 1 1.6 2.5 1.7 5.9.4 10.7-.3 1.1.7 1.6 3.8 2 3.9.5 4.5 1 9.3 8.2 5.4 8.1 7 9.8 7 7.6 0-.7.9.1 2 1.8 1.6 2.4 1.8 3.7 1.1 5.6-.6 1.6-.5 3.7.2 6.1 1.3 3.9 3.2 5.5 3.4 2.8.1-.9.4-2.7.8-4.1.6-2.3.5-2.4-.8-.8-1.7 2.2-2.7 2.3-2.7.4 0-2 6.5-6.6 9.4-6.6 1.5 0 3-.8 3.6-2.1.9-1.6 1.8-1.9 3.7-1.4 2.8.7 5.1-.8 6.3-4.1.7-1.8 1.9-2.2 6.6-2.6 3.9-.3 6.1-1 7-2.2.7-1 1.9-1.6 2.6-1.3.7.2 2.3-.5 3.5-1.6 2.1-1.9 4.4-2.3 13.6-2.6 3.1-.1 3.9-.6 4.9-2.9 1.4-3.3 4.7-6.1 7.1-6.2.9 0 1.7-.7 1.7-1.5 0-.9.6-1.8 1.4-2.1.8-.3 2.6-2.4 4.1-4.6 2.4-3.6 3-4 5.8-3.5 2.6.4 3.6 0 5.1-2 1.5-2 1.6-2.9.7-4.9-1.5-3.4-1.5-3.5 1.5-2.4 1.7.7 3.2.6 4.5-.1 1.5-.8 2.6-.7 4.3.4 1.6 1.1 2.7 1.2 4.1.5 1.3-.8 2.4-.7 3.6.1 2.7 1.6 4.6 1.4 6.9-.9 1.4-1.4 2.6-1.8 3.8-1.2.9.4 3.3.8 5.2.7 1.9 0 4.1.6 4.8 1.2.7.7 1.9 1.3 2.5 1.3.8-.1.6-.5-.3-1.3-.8-.7-1.5-2.2-1.6-3.4 0-2.2 0-2.2 2.4-.2 1.4 1 3.1 1.9 3.9 1.9.8 0 1.3.7 1.1 1.7-.2 1-1.1 1.7-2.1 1.7-.9-.1-1.7.2-1.7.7 0 .5 1.1.9 2.5.9 1.9 0 2.5-.5 2.5-2.3 0-1.3-.6-2.9-1.2-3.6-1.1-1.1-1-1.3.4-.8 1.9.7 7.8-1.3 7.8-2.6 0-1.4 5.2-7.2 6.2-6.9.4.1.8-.7.8-1.7 0-1.1.5-2.3 1-2.6.6-.3 1-1.5 1-2.6 0-1.5.5-1.9 1.9-1.4 1.5.4 2-.1 2.5-2.6s1-3 2.3-2.4c3.1 1.3 4.8 1.1 4.4-.5-.2-.8-.4-3.6-.5-6.3-.1-4.5.6-5.8 1.9-3.7.3.5 1.9 1 3.6 1 1.6 0 2.9-.5 2.9-1 0-.6 1.8-1 4-1 4.2 0 5-.9 2.5-3-1.7-1.4-2-4-.5-4 1.6 0 1.2-3.7-.5-4.4-.8-.3-1.5-1.4-1.5-2.5s-.7-2.4-1.6-2.9c-1.1-.6-1.5-1.7-1.2-3 .4-1.4 0-2.2-1.3-2.5-1.1-.3-1.9-1.3-1.9-2.3 0-1.1-.8-3.7-1.7-6-1.6-3.9-1.9-4.1-6-4.2-2.4 0-4.1.4-3.7.9.3.5.1.9-.5.9-.5 0-1.4-.7-1.9-1.6-.8-1.5-1.2-1.5-3.1-.2-1.1.8-1.8 1.8-1.3 2.2.4.4-.7.5-2.3.1-5.4-1.2-10.8-3.6-12.2-5.3-.8-1.1-1.2-1.3-1.3-.4 0 .9-.5 1-1.9.2-1.1-.5-4-1-6.4-1-3.5 0-4.6.4-5 1.9-.5 1.9-5.8 3.6-5.4 1.7.1-.5-.8-1.5-2-2.1-1.3-.5-2.3-1.3-2.3-1.7 0-1.6-7-3.7-10.4-3.1-2.7.4-3.8.1-5.2-1.6-1.2-1.4-3-2.1-5.3-2.1-2 0-3.9-.7-4.8-1.8-1.3-1.5-1.3-1.5-.7.8.4 1.4.9 3.1 1.1 3.7.3.7-.7 1.7-2.1 2.3-1.4.5-2.6 1.3-2.6 1.8s-1.8 1.6-3.9 2.4c-4.5 1.8-6.1 1-6.1-3.3 0-2.3.5-2.8 2.8-3.1 2.5-.3 2.7-.7 3-5 .2-2.9-.3-5.9-1.3-7.7-.8-1.7-1.8-5.2-2.2-7.8-.3-2.7-1.1-5.4-1.7-6.2-.8-1.1-.8-1.5 0-1.8.9-.3.9-1 .1-2.8-.9-1.8-1.6-2.1-2.9-1.4-1.9 1-3-.1-3.5-3.6-.1-1.1-.5-2.9-.7-4-.2-1.1-.5-2.5-.5-3-.1-.6-1.8-1-4-1s-3.7.4-3.5 1c.6 1.4-7.5 1.2-10.1-.2-1.1-.6-3.7-1-5.9-.9-2.7.1-4-.3-4.7-1.6-.7-1.3-1.7-1.6-3.2-1.3-1.3.4-3.6-.1-5.2-.9-1.7-.9-4.3-1.6-6-1.5-4.4 0-9.9 3-10.3 5.6-.3 1.8-.7 2-3.1 1.3-1.5-.4-4-.6-5.4-.5-2.5.3-2.7.1-2.7-3.3.1-7.8-1-11.4-3.3-11.1-.7.1-2.5-.3-4-.9-3.5-1.5-3.2-1.5-8.7 1zm84 29.2c0 .3-.4.8-1 1.1-.5.3-1 .1-1-.4 0-.6.5-1.1 1-1.1.6 0 1 .2 1 .4zm8.7 43.2c-.3.3-1.2.4-1.9.1-.8-.3-.5-.6.6-.6 1.1-.1 1.7.2 1.3.5zM488.856 410.896c0 .5.5 1.3 1 1.6.6.3 1 .2 1-.4 0-.5-.4-1.3-1-1.6-.5-.3-1-.2-1 .4zM31.556 415.596c-.3.4 1.4 2.2 3.8 4.1 2.5 1.8 5.1 4.6 5.9 6.1 1.4 2.4 1.5 2.5 1.6.6 0-1.2.7-2.4 1.5-2.8 1-.3 1.5-1.6 1.3-3.7-.3-3.8-1.7-4.8-3.4-2.4-1.5 2-5.7 1.4-8.5-1.1-.9-.8-1.8-1.1-2.2-.8zM488.456 416.596c-.3.8-1.1 1.2-1.8.8-.7-.5-.9-.1-.6 1.3.4 1.4-.4 2.6-3 4.4-2 1.3-4.3 2.3-5.1 2.1-.9-.1-2.5 1.2-3.6 2.9-3.9 6-13.1 7.7-20.7 3.8-4.1-2.1-7.8-2.5-7.8-.8 0 .6-.7.9-1.5.5-1-.4-1.5.1-1.5 1.5 0 1.2-.8 2.3-2 2.6-1.1.3-2 1-2 1.5 0 .6-.9.8-2 .5-2.5-.7-3.4.7-1.5 2.3 1 .9 1.5.9 1.5.1 0-2 8.1-1.2 14.4 1.5 3.3 1.4 7.2 3.1 8.6 3.6 1.4.6 3.3 1.4 4.2 1.9 1 .5 2.2.9 2.8.9 1.3 0 5-3.7 5-5 0-1.1 6.3-1.4 7.3-.3 1 1 6.1 1.1 6.8.1.9-1.4 6.9 2.2 6.9 4.2 0 1.3.5 1.7 1.5 1.4.8-.4 1.5-1.2 1.5-1.9 0-.9 1.3-1.4 4.1-1.3 3 0 4.7-.6 6.7-2.5 1.5-1.3 3.7-3 5-3.6 1.2-.6 2.2-1.7 2.2-2.4 0-1.2 6.1-4.1 8.5-4.2.6 0 1.5-.9 2.1-2 1.3-2.3-.8-5.5-3.6-5.5-.9 0-2.5-.9-3.5-2s-2.1-1.8-2.5-1.5c-.4.2-1.6-.4-2.6-1.4-3-2.7-7.2-3.5-9-1.6-1.2 1.2-2 1.3-2.9.5-.9-.8-1.5-.8-2 0-1.1 1.7-3.4 1.1-5.7-1.5-2.5-2.9-3.4-3.1-4.2-.9z"/><path d="M136.956 420.396c-.8 1-.9 1.6-.1 2.1 1.5.9.2 2.5-2.1 2.5-2.3 0-2.5 1.9-.3 4.6.8 1 1.3 1.4 1 .7-.4-.6.2-1.4 1.2-1.7 1.4-.5 1.9-1.7 2-5.1.2-4.9 0-5.2-1.7-3.1zM530.256 424.796c.2 1.3-.2 2.6-1.2 3.1-1.4.8-1.3 1.2.8 2.9 3.1 2.6 3.6 1.1 1.5-4.3-.8-2.2-1.3-3-1.1-1.7zM38.556 430.596c.3.7.9 1.4 1.4 1.4 1.4 0 1-1.7-.5-2.3-1-.4-1.3-.1-.9.9zM427.156 432.796c-1.5.2-2.3 1-2.3 2.3 0 1-.6 1.9-1.4 1.9-.8 0-1.8.5-2.2 1.2-.4.6-.3.8.4.5 1.6-1.1 4.2.3 4.2 2.3 0 1.1.5 2.2 1 2.5.6.3 1 .2 1-.4 0-.5.8-1.2 1.8-1.6 2.1-.6 4.6-5.1 3.7-6.6-.4-.5-1.2-.9-2-.9-.7 0-1.5-.3-1.7-.8-.1-.4-1.3-.6-2.5-.4zM39.856 435.196c0 1.6-.5 2.8-1.1 2.8-.5 0-.8.4-.5.9.3.5-.1 1.4-.9 2.1-1.3 1.1-1.2 1.4 1 2.6 1.4.7 3.3 1 4.2.7 1.1-.4 1.4-.2 1.1.8-.3.8.2 2 1.1 2.7 1.4 1.2 1.4 1.3-.3.8-1.3-.5-1.7-.2-1.2.9.3.8.3 2.2 0 3-.7 1.7-3.4 2.1-3.4.5 0-1.8-5.6-1.1-7.5 1-1 1.1-2.6 2.2-3.6 2.5-1 .4-1.8.9-1.8 1.3.5 3.1-.2 4.3-2.1 3.7-1.2-.4-2.8-.1-3.7.7-1.2.9-1.5.9-.9 0 .4-.6.2-1.2-.3-1.2-.6 0-1.1.8-1.2 1.7 0 1-.3 3.4-.7 5.3-.3 1.9-.6 6.1-.5 9.2.1 5.4-.7 7.2-2.2 4.7-.8-1.1-7.5 4.9-7.5 6.8 0 .7-1.3.9-4 .6-4.6-.6-5 .4-1.5 3.7 2.8 2.6 3.3 4.2 1 3.4-1.9-.8-1.9 1.5-.1 3.8 1.7 2.3 4.6 2.3 4.6.1 0-.9.3-1.3.6-1 .4.3 1.6-.5 2.7-2l2.1-2.6.9 2.4c.9 2.2 1 2.3 1.5.4.2-1.1 1.2-2.5 2.1-3.2.9-.7 1.3-1.3.9-1.4-.5-.1-1.1-.3-1.5-.4-.5-.2-1.8-.6-3-1-1.3-.4-2-1.2-1.6-1.9.4-.6-.1-.5-1 .3-.9.7-1.7 1.2-1.8 1-.9-4.7-.8-4.7 4-1.8 2.2 1.3 4.2 1.8 5.8 1.4 2.4-.6 5.3 1.3 5.3 3.4 0 .6.8 1.4 1.8 1.9 2.1 1 11.2.3 11.2-.9 0-.4-.6-.6-1.2-.4-2.2.9-1.8-5.7.4-7.5 1.7-1.3 1.8-1.9.8-4.5-1-2.8-1-2.9.5-1.4 1.9 1.9 6.5 1.4 6.5-.7 0-1.4 1.4-2.3 4.2-2.8 2.3-.3 3.7-1.6 3.2-3-.3-.8 1-1.7 3.6-2.6 2.2-.7 4-1.9 4-2.7 0-.7.6-1.3 1.3-1.3.6-.1-.3-1.4-2.1-2.9-2.7-2.3-3.2-3.4-2.7-5.1.5-1.6 0-2.9-1.7-4.7-1.2-1.3-2.3-3.7-2.3-5.1 0-2.2-.5-2.8-2.7-3-3.3-.4-3.9-1.2-7.2-8.7-2-4.8-2.5-5.4-2.6-3.3zm7.4 35.4c.9 2.2.8 2.6-.6 2.2-1.3-.5-2-3.8-.8-3.8.4 0 1.1.7 1.4 1.6zm-23.5 16.3c.8.5.9 1.1.3 1.5-.5.3-1.5-.1-2.2-.9-1.4-1.6-.3-2 1.9-.6zM415.756 439.196c-1 1.8-.9 2 .6 1.5.9-.4 1.9-.7 2.1-.7.2 0 .4-.7.4-1.5 0-2.2-1.8-1.8-3.1.7zM424.856 449.896c0 2.3-1.6 3.6-2.5 2.1-1.1-1.8-2.3-1.1-1.8 1 .8 3.1 3.9 2.4 5.2-1.1 1.3-3.9 1.3-3.9.1-3.9-.5 0-1 .9-1 1.9zM417.756 457.696c-1.3 1.6-1.2 1.7.4.4.9-.7 1.7-1.5 1.7-1.7 0-.8-.8-.3-2.1 1.3zM67.856 467.996c0 .7-.7.9-1.6.6-1.3-.5-1.5-.2-1.1 1.4.3 1.3 0 2.3-.9 2.7-1.1.4-1.2.9-.4 1.8.8 1 .6 1.8-.9 3.2-1.9 1.7-1.9 1.9-.3 4.1.9 1.2 3.2 2.6 5 3.1 2.8.9 3.2.7 3.2-1 0-2.6 3-3.7 4.2-1.6.5 1 1.5 1.7 2.2 1.7.8 0 2 1 2.9 2.2 1.5 2.3 1.5 2.3 3 .3 1.3-1.7 1.3-2.3-.4-5.4-1-2-1.9-4.1-1.9-4.8 0-1.7-2.9-3.1-5.1-2.6-1.2.3-2.6-.4-3.9-1.8-1-1.3-1.9-1.8-2-1.2 0 1.5-3 1.8-3 .3 0-.5.7-1.3 1.6-1.8 1.1-.6 1.3-1.1.5-1.6-.6-.4-1.1-.2-1.1.4zM446.656 491.696c-1.4 1.3-2 1.4-3.2.4-1.2-1-1.6-.8-2.1.8-.3 1.2-.3 2.6 0 3.1.4.6.2 1.7-.5 2.4-.9 1.1-.1 2.1 3.6 4.8 4.8 3.4 5.1 3.5 9.7 1.6 2.3-.9 2.7-1.6 2.7-5.2 0-3.2-.5-4.4-2.2-5.5-1.3-.8-2.5-1.3-2.7-1.2-.2.2-.8-.4-1.3-1.3-1.1-2-2-2-4 .1z"/><path d="M40.156 491.796c-.7.4-.9 1.2-.5 1.8 1 1.6 5.3 3.7 6 3 1-1.1-4.2-5.6-5.5-4.8zM33.656 501.096c.4 4.2.8 4.6 5.1 5.9 2.9.8 2.9.7 2-2-.8-2.1-1.5-2.7-3-2.3-1.4.4-1.9 0-1.9-1.5 0-1.1-.6-2.4-1.3-3-1-.8-1.2-.2-.9 2.9zM52.056 499.596c-.9 1-2.2 1.2-3.5.8-2-.6-2-.5-.8 1 .8.9 2 1.5 2.7 1.2 1-.4 1.1.1.5 1.7-.5 1.4-1.7 2.2-3.2 2.2-1.6 0-2.9 1-4 3-1.6 2.8-1.6 3.1-.1 4.8 1.5 1.7 1.5 1.9-.1 2.8-1 .6-1.5 1.5-1.1 2.1.6 1-1.4 5.8-2.9 6.9-.4.3-.2 2.3.5 4.5 1.2 3.7 1.6 3.9 5.6 4.2 2.9.2 4.2 0 3.7-.7-.3-.6-.2-1.1.3-1.1.6 0 1.3.7 1.6 1.6.4 1.1 1.3 1.4 2.7 1.1 1.5-.4 1.9-.2 1.5 1-.4.9.4 2.3 1.9 3.5 1.7 1.3 2.3 2.4 1.7 3.2-.5.6-1.2 2.1-1.5 3.3-.4 1.8-.1 2.3 1.3 2.3 2.4 0 2.9 1.7 1.6 5.8-.7 2.4-.6 4.2.3 6.5.7 1.8 1.9 5.7 2.7 8.7.8 3 2 5.9 2.7 6.5.7.5 2.3 2.4 3.5 4.1 1.8 2.6 2 3.7 1.2 6.4-1.1 3.7.3 8 1.5 4.7.4-.9.4-2.4.1-3.3-.5-1.4-.4-1.5.9-.4s1.5 1 1-.1c-.7-2 1.8-8.6 3.1-8.2 2.3.8 3.2-11.4 1.3-16.4-.8-2.2-.7-3 .4-3.7 2.7-1.7-2.9-12.4-5.9-11.2-1.8.7-3.7-2-3.1-4.3.3-1.1-.1-2.2-.7-2.4-.7-.3-2.6-3.3-4.4-6.8l-3.2-6.4 1.2-7.8c.8-5.3 1.6-7.7 2.5-7.7 1.1 0 1.3-1.2 1.1-4.7l-.3-4.8-4.4-.7c-2.4-.4-5.4-1.6-6.5-2.7-1.8-1.7-2.3-1.7-3.4-.5zM462.056 509.696c1.3 1.6 5.1 1.7 4.6.1-.2-.6-1.6-1.2-3-1.2-2.1-.1-2.4.1-1.6 1.1zM251.256 587.196c-1.1 1.8 1.1 2.7 3.5 1.4l2.4-1.3-2.7-.5c-1.5-.3-2.9-.1-3.2.4zM252.856 594.696c.1 2.4 5 5.3 5 3 0-.7-.5-1.8-1.2-2.5-1.3-1.3-3.8-1.6-3.8-.5zM71.856 599.196c0 2.2.7 3.7 2 4.6 1.1.7 2 .8 2 .3 0-.6-.4-1.3-1-1.6-.5-.3-1-1.7-1-3s-.4-2.7-1-3c-.6-.4-1 .7-1 2.7zM75.856 612.696v6.1l-4 1.6c-4.2 1.7-5 3-2.4 4 1 .4 1.3 1.3.9 2.6s-.2 2 .7 2c.8 0 2.7 1.8 4.4 4 1.6 2.2 3.4 3.8 4.1 3.5.6-.2 1.7.3 2.3 1 1 1.2 1.4 1.2 2.7 0 .8-.8 2-1.5 2.7-1.5 1.6 0 2.8-6.3 1.7-9.3-.4-1.2-.6-4.2-.5-6.7.3-4.6-.6-6-4.1-6-1.1 0-3.4-1.7-5.2-3.7l-3.3-3.7v6.1z"/></g></svg>