<?xml version="1.0" standalone="no"?>
<!DOCTYPE svg PUBLIC "-//W3C//DTD SVG 20010904//EN"
 "http://www.w3.org/TR/2001/REC-SVG-20010904/DTD/svg10.dtd">
<svg version="1.0" xmlns="http://www.w3.org/2000/svg"
 width="708.598801pt" height="574.541060pt" viewBox="0 0 708.598801 574.541060"
 preserveAspectRatio="xMidYMid meet">
<metadata>
Created by potrace 1.15, written by Peter Selinger 2001-2017
</metadata>
<g transform="translate(-665.673609,1228.000000) scale(0.100000,-0.100000)"
fill="#222222" stroke="none">
<path d="M12530 12266 c0 -21 21 -31 31 -15 14 22 11 29 -11 29 -11 0 -20 -6
-20 -14z"/>
<path d="M12481 12207 c-6 -8 -9 -22 -5 -31 4 -11 1 -16 -10 -16 -9 0 -16 4
-16 9 0 19 -39 22 -75 6 -21 -8 -47 -15 -58 -15 -11 0 -30 -9 -42 -20 -18 -17
-26 -18 -59 -9 -49 14 -106 -12 -106 -48 0 -16 -6 -23 -20 -23 -13 0 -20 -7
-20 -20 0 -11 -7 -21 -15 -21 -15 -1 -28 -4 -42 -9 -5 -1 -11 -2 -15 -1 -5 0
-8 -10 -8 -24 0 -14 6 -25 13 -25 7 -1 5 -6 -5 -14 -16 -12 -16 -14 6 -35 14
-13 27 -35 31 -49 4 -15 11 -30 17 -33 15 -9 -10 -69 -28 -69 -25 0 -25 -20
-1 -71 17 -34 24 -64 22 -94 -3 -50 -1 -54 44 -79 51 -28 91 -77 84 -101 -5
-16 -3 -18 9 -8 11 10 21 8 46 -7 18 -11 32 -25 32 -32 0 -7 12 -36 28 -66 18
-34 23 -55 16 -60 -6 -4 -10 -35 -9 -69 1 -35 -2 -63 -7 -63 -5 0 -4 -9 2 -20
6 -11 16 -17 25 -14 8 4 15 1 15 -5 0 -6 7 -11 16 -11 8 0 28 -12 43 -27 30
-32 31 -68 0 -60 -25 7 -33 -7 -19 -33 8 -15 8 -20 -1 -20 -6 0 -13 9 -16 20
-6 22 -18 26 -28 10 -4 -6 -11 -7 -17 -4 -8 5 -9 1 -3 -12 5 -10 9 -37 10 -59
0 -22 6 -50 13 -62 16 -28 15 -33 -4 -33 -26 0 -63 -35 -54 -50 25 -40 -30
-50 -70 -12 -15 14 -36 22 -57 22 -26 0 -36 5 -42 23 -5 12 -6 27 -4 33 5 14
-52 73 -81 84 -14 5 -27 3 -37 -6 -12 -11 -23 -11 -54 -3 -36 10 -41 9 -53
-10 -9 -13 -25 -21 -43 -21 -38 0 -82 18 -74 30 3 5 -6 22 -20 36 -25 25 -25
27 -8 39 14 11 16 16 6 26 -23 23 -16 40 13 33 25 -6 26 -5 22 25 -4 25 -1 31
13 31 18 0 59 75 59 106 0 23 -16 16 -17 -8 -2 -26 -19 -38 -55 -38 -16 0 -28
-6 -28 -12 0 -7 -10 6 -22 28 -19 39 -23 41 -49 32 -19 -6 -34 -6 -48 2 -12 6
-25 9 -29 6 -4 -3 -28 11 -52 30 -33 26 -46 31 -52 22 -6 -10 -11 -9 -19 5 -6
9 -15 14 -21 11 -6 -4 -22 6 -36 22 -15 19 -26 25 -29 17 -2 -7 -14 -13 -24
-13 -11 0 -17 5 -14 10 3 6 -2 10 -12 10 -11 0 -24 5 -31 12 -9 9 -12 9 -12 0
0 -8 -9 -10 -24 -6 -23 5 -25 3 -28 -32 -3 -33 -8 -40 -33 -49 -16 -5 -33 -13
-36 -18 -14 -20 -64 -37 -91 -32 -33 8 -46 24 -27 36 11 7 11 9 -3 9 -9 0 -29
15 -44 33 l-27 32 26 9 c33 12 34 23 5 53 -16 17 -18 23 -7 23 8 0 24 8 36 17
19 16 20 19 6 40 -9 13 -22 23 -29 23 -23 0 -28 28 -9 56 14 22 15 28 4 35
-10 6 -11 9 -1 9 6 0 12 7 12 17 0 14 -2 14 -20 -2 -11 -10 -20 -26 -20 -36 0
-13 -12 -19 -50 -24 -27 -4 -52 -11 -56 -16 -3 -5 -18 -9 -34 -9 -17 0 -33 -7
-39 -17 -10 -17 -12 -16 -31 7 -11 14 -20 30 -20 37 0 6 -8 14 -18 18 -27 8
-44 49 -26 61 11 7 11 12 1 26 -12 15 -16 15 -55 -2 l-41 -19 -28 29 c-33 33
-80 55 -85 39 -2 -7 -34 -5 -92 7 -65 13 -98 25 -120 44 -47 40 -89 54 -115
39 -16 -11 -23 -11 -33 -1 -6 6 -22 12 -34 12 -12 0 -25 7 -28 15 -3 9 -11 15
-18 14 -7 -1 -21 1 -31 6 -10 4 -29 3 -44 -4 -19 -9 -29 -9 -40 1 -8 6 -24 12
-35 13 -22 2 -40 24 -34 42 3 6 -6 14 -19 17 -14 4 -29 15 -35 26 -6 11 -15
18 -20 15 -6 -4 -7 2 -3 12 3 10 -10 1 -31 -19 -34 -35 -36 -40 -27 -75 5 -21
12 -45 15 -54 13 -30 -23 -31 -48 -2 l-23 27 -13 -23 c-6 -13 -10 -34 -7 -47
3 -20 -2 -26 -29 -36 -35 -12 -47 -38 -18 -38 10 0 14 -5 10 -15 -3 -9 10 -39
29 -70 39 -60 48 -128 20 -149 -19 -14 -10 -116 10 -116 31 0 85 31 85 49 0
12 7 18 18 17 11 -1 16 5 15 19 -1 11 9 34 22 50 17 24 21 35 13 49 -5 10 -8
19 -6 20 1 1 18 9 37 18 31 15 35 14 53 -4 14 -14 27 -18 49 -13 18 4 29 3 29
-4 0 -6 5 -11 11 -11 7 0 9 9 6 21 -5 19 -4 20 19 4 14 -9 33 -14 42 -11 9 3
30 -1 46 -9 16 -9 31 -13 34 -11 7 7 42 -13 42 -24 0 -5 -8 -10 -17 -13 -14
-3 -12 -6 10 -15 19 -8 27 -19 27 -36 0 -24 23 -41 41 -30 5 3 18 2 29 -1 17
-5 20 -13 16 -43 -2 -20 -7 -44 -11 -53 -3 -10 -1 -20 4 -24 6 -3 9 -11 5 -16
-3 -6 3 -17 14 -25 15 -10 20 -24 19 -44 -2 -33 -7 -36 -25 -18 -7 7 -12 8
-12 1 0 -5 -11 -22 -25 -37 -15 -16 -22 -32 -18 -39 15 -23 13 -77 -3 -77 -8
0 -14 -10 -14 -22 0 -38 -14 -50 -46 -42 -16 4 -37 14 -48 23 -18 15 -18 15
-11 -7 6 -20 4 -23 -12 -20 -10 2 -18 12 -18 23 0 11 -8 21 -18 23 -9 2 -17
-3 -17 -11 0 -7 -11 -24 -25 -37 -14 -13 -25 -29 -25 -37 0 -15 48 -48 57 -39
4 3 17 -1 31 -10 13 -8 30 -13 37 -10 8 3 15 -6 18 -27 2 -18 1 -33 -4 -35 -5
-2 -9 -17 -9 -33 0 -16 -4 -29 -10 -29 -5 0 -10 6 -10 13 0 9 -12 14 -30 14
-23 0 -29 -4 -25 -14 3 -8 5 -17 5 -19 0 -2 7 -4 16 -4 11 0 14 -5 10 -16 -3
-9 -6 -29 -6 -45 0 -20 -4 -27 -14 -23 -8 3 -16 -4 -20 -20 -8 -31 -48 -54
-102 -58 -29 -2 -40 -8 -44 -23 -5 -16 -13 -19 -39 -17 -21 2 -40 -3 -52 -14
-13 -12 -38 -18 -78 -19 -39 -1 -69 -8 -92 -22 -58 -36 -103 -31 -148 13 -27
27 -56 31 -68 9 -7 -12 -19 -13 -67 -5 -34 5 -65 6 -75 1 -10 -6 -24 -5 -35 1
-15 8 -21 7 -28 -6 -10 -19 -35 -21 -40 -4 -3 8 -11 9 -24 3 -27 -12 -163 -15
-170 -4 -10 17 -57 32 -91 30 -21 -2 -39 5 -53 19 -11 11 -35 23 -53 27 -18 3
-38 10 -44 16 -9 6 -13 6 -13 -2 0 -22 -20 -10 -26 17 -10 40 -61 100 -105
123 -22 11 -45 28 -51 39 -16 26 -22 25 -36 -4 -13 -29 -60 -40 -132 -30 -60
8 -68 21 -8 16 l41 -4 -6 51 c-3 29 -2 51 3 51 10 0 40 52 40 69 0 16 -49 25
-65 11 -8 -6 -19 -9 -25 -5 -6 4 -27 -10 -46 -29 -20 -20 -40 -36 -45 -36 -4
0 -6 -7 -3 -15 4 -8 -1 -17 -10 -21 -10 -4 -16 -18 -16 -39 0 -40 -21 -59 -56
-51 -23 6 -25 5 -18 -16 12 -37 12 -88 -1 -88 -6 0 -20 6 -30 14 -30 22 -55 9
-48 -25 5 -26 3 -29 -20 -29 -18 0 -31 9 -43 29 -10 16 -28 34 -41 40 -20 9
-25 7 -38 -19 -8 -16 -24 -35 -35 -43 -19 -13 -19 -14 10 -45 16 -18 34 -32
39 -32 6 0 11 -4 11 -10 0 -5 9 -10 20 -10 11 0 20 5 20 12 0 6 10 2 23 -10
24 -23 47 -28 62 -13 6 4 30 6 54 3 42 -4 43 -5 37 -34 -4 -18 0 -38 10 -53 9
-13 13 -29 9 -34 -3 -6 4 -20 15 -31 23 -23 20 -56 -9 -78 -9 -7 -15 -19 -13
-25 2 -6 -2 -31 -9 -54 -9 -33 -9 -46 0 -57 10 -12 7 -16 -23 -21 -19 -4 -40
-4 -46 0 -9 6 -9 2 -1 -14 10 -17 9 -21 -5 -21 -23 0 -81 -62 -90 -95 -4 -15
-27 -47 -51 -72 -36 -36 -47 -42 -59 -32 -11 9 -18 8 -34 -6 -16 -14 -23 -15
-34 -6 -15 13 -22 7 -64 -43 -10 -12 -18 -14 -32 -6 -15 8 -24 6 -41 -11 -17
-17 -29 -20 -59 -15 -27 4 -41 2 -50 -9 -15 -18 -71 -20 -87 -4 -6 6 -9 18 -6
25 3 8 0 14 -6 14 -6 0 -11 -11 -11 -24 0 -14 -4 -27 -9 -30 -13 -8 -1 -46 14
-46 7 0 15 5 17 12 6 16 38 2 38 -16 0 -9 -7 -12 -19 -9 -11 3 -21 -2 -24 -11
-17 -44 -81 16 -70 66 l5 23 -20 -22 c-11 -12 -22 -20 -24 -17 -3 2 -11 -3
-18 -12 -12 -13 -11 -17 0 -24 8 -5 21 -5 31 1 23 12 28 11 25 -3 -3 -25 -18
-39 -29 -30 -14 10 -57 9 -75 -2 -7 -4 -12 -2 -12 4 0 6 -4 8 -10 5 -5 -3 -15
-3 -22 1 -7 4 -25 9 -40 11 -20 2 -26 -1 -22 -11 3 -7 -2 -16 -10 -19 -9 -4
-16 -18 -16 -32 0 -14 -5 -25 -11 -25 -6 0 -19 -10 -29 -22 -18 -22 -18 -24 6
-55 25 -33 31 -53 14 -53 -5 0 -2 -9 8 -19 30 -34 37 -45 52 -81 19 -48 29
-60 47 -53 13 5 13 3 2 -15 -11 -18 -11 -24 4 -39 25 -29 27 -68 2 -68 -25 0
-36 -15 -29 -39 6 -18 5 -18 -17 -2 -40 27 -49 20 -29 -22 11 -22 20 -45 22
-52 5 -22 52 -73 56 -61 3 8 10 8 23 1 15 -9 19 -7 19 6 0 14 3 14 15 4 26
-22 75 -100 75 -120 0 -29 19 -74 37 -88 12 -9 14 -15 6 -23 -7 -7 -8 -21 -2
-42 5 -20 5 -35 -1 -41 -6 -6 -3 -17 11 -32 17 -18 19 -26 10 -43 -7 -12 -17
-21 -22 -21 -6 0 -9 -7 -6 -15 4 -8 2 -17 -3 -20 -5 -3 -7 -12 -3 -20 3 -8 0
-15 -7 -15 -7 0 -9 -8 -5 -19 4 -13 0 -20 -15 -24 -11 -3 -23 -1 -26 4 -3 5
-13 2 -21 -7 -15 -15 -18 -15 -29 1 -11 15 -14 15 -33 -4 -21 -21 -23 -21 -82
-6 -34 9 -73 14 -88 11 -14 -4 -51 1 -81 9 -30 8 -72 15 -94 15 -30 0 -37 3
-32 15 3 8 -3 19 -13 25 -15 7 -20 6 -25 -6 -9 -23 -39 2 -31 26 3 9 -3 24
-15 35 -18 16 -18 19 -4 29 16 12 26 76 12 76 -5 0 -23 15 -41 34 -26 27 -39
33 -65 30 -27 -3 -33 0 -38 21 -4 16 -13 25 -25 25 -22 0 -23 -4 -6 -31 10
-17 9 -22 -12 -38 -19 -14 -21 -22 -13 -37 12 -24 -2 -54 -25 -54 -11 0 -8 -6
11 -21 18 -14 26 -30 26 -51 0 -19 10 -40 28 -57 15 -15 42 -47 60 -70 26 -32
37 -39 47 -31 10 8 18 6 34 -11 11 -13 23 -30 26 -40 5 -16 51 -53 67 -54 9 0
88 -104 88 -116 0 -26 -26 -59 -51 -64 -16 -4 -29 -13 -29 -20 0 -8 -13 -15
-32 -17 -24 -2 -33 -8 -32 -20 1 -12 -5 -18 -18 -18 -11 0 -22 -8 -25 -19 -3
-10 -19 -23 -36 -28 -25 -7 -33 -15 -35 -36 -2 -15 -8 -25 -13 -22 -5 4 -9 -3
-9 -14 0 -13 -7 -21 -16 -21 -13 0 -14 -3 -5 -14 7 -8 8 -17 3 -20 -24 -15 9
-92 43 -100 23 -6 26 -10 20 -36 -8 -37 11 -40 27 -5 6 14 22 28 34 31 13 3
26 15 29 25 6 18 8 18 38 2 59 -31 120 -39 188 -27 23 3 39 2 43 -5 4 -6 19
-11 34 -11 29 0 58 -33 46 -52 -4 -7 -3 -8 5 -4 6 4 14 1 17 -7 4 -12 74 -91
142 -162 10 -11 42 -33 70 -50 30 -17 52 -37 52 -47 0 -18 76 -68 104 -68 10
0 19 -11 23 -30 3 -19 12 -30 22 -30 21 0 68 -48 73 -75 2 -11 6 -18 10 -15 4
3 13 -2 20 -11 10 -13 20 -14 46 -7 17 5 32 15 32 23 0 28 59 18 92 -15 29
-29 32 -30 49 -14 10 9 23 13 29 9 6 -4 17 -1 25 5 12 10 15 9 16 -6 0 -11 3
-14 6 -6 8 20 36 14 93 -23 30 -19 65 -35 77 -35 12 0 24 -4 27 -9 3 -4 27
-16 53 -26 26 -10 53 -26 60 -35 17 -24 54 -33 46 -12 -5 12 -1 12 25 -4 21
-12 32 -26 32 -41 0 -19 7 -24 40 -29 22 -4 40 -12 40 -19 0 -7 7 -16 16 -19
19 -7 64 3 64 15 0 5 7 5 17 2 10 -4 14 -2 10 4 -4 6 2 13 13 16 20 5 28 27
10 27 -18 0 -11 28 14 55 30 32 39 95 20 141 -13 30 -12 34 1 34 11 0 13 5 5
26 -8 19 -6 29 5 40 8 9 15 19 15 22 0 16 -84 93 -96 88 -7 -3 -18 2 -25 11
-11 13 -10 17 5 28 14 11 15 17 7 34 -15 27 -14 31 10 31 12 0 23 8 26 20 6
24 12 25 38 6 43 -29 62 -29 75 4 11 27 11 32 -5 44 -10 7 -19 22 -20 32 0 11
-5 25 -9 32 -10 17 -3 24 24 26 11 0 20 6 19 11 -3 22 -18 53 -30 61 -9 5 -4
14 16 30 26 20 28 25 17 48 -9 21 -9 27 4 34 14 8 14 10 -2 17 -34 14 -46 14
-40 -1 4 -11 1 -11 -18 2 -18 11 -26 12 -31 4 -8 -13 -85 56 -85 76 0 7 -7 14
-15 18 -8 3 -15 12 -15 20 0 16 -32 37 -65 42 -45 7 -55 11 -75 29 -18 16 -20
16 -20 2 0 -10 -7 -17 -15 -17 -8 0 -15 -4 -15 -10 0 -5 -9 -10 -21 -10 -16 0
-19 -4 -14 -20 5 -14 2 -20 -9 -20 -16 0 -18 5 -20 45 -1 14 -9 21 -29 23 -16
2 -30 9 -33 16 -3 8 -17 11 -36 8 -29 -4 -30 -3 -26 27 3 18 1 34 -4 37 -4 3
-8 13 -8 23 0 10 -9 26 -20 36 -11 10 -20 24 -20 32 0 8 -4 12 -9 9 -5 -3 -16
5 -25 19 -9 14 -34 34 -56 45 -22 11 -40 24 -40 29 0 4 -14 25 -30 46 -17 21
-29 44 -26 51 6 15 -25 27 -47 18 -10 -3 -21 2 -29 15 -7 12 -21 21 -30 21
-10 0 -32 16 -49 35 -18 19 -35 32 -40 30 -4 -3 -11 4 -14 16 -5 14 -12 18
-23 14 -13 -5 -54 10 -91 33 -13 7 40 41 55 35 11 -4 15 -2 11 4 -4 6 0 14 9
17 26 10 34 7 27 -11 -3 -10 -3 -15 1 -11 10 8 73 -18 97 -41 12 -11 29 -16
43 -14 20 4 25 0 31 -26 6 -27 11 -31 41 -31 30 0 35 4 40 29 6 30 27 46 45
35 5 -3 29 -2 54 1 30 5 46 13 50 26 4 11 12 16 22 12 10 -4 23 3 34 18 12 15
19 19 19 10 0 -11 3 -10 13 3 13 17 15 17 45 2 17 -9 34 -20 37 -26 9 -15 45
7 45 29 0 10 3 21 7 25 9 8 12 46 4 46 -3 0 -5 19 -3 43 3 30 -1 47 -12 56 -9
8 -16 28 -16 46 0 25 -7 39 -27 54 l-28 20 33 1 c29 0 32 3 32 29 0 17 -4 33
-10 36 -20 13 -10 27 15 21 15 -4 25 -2 25 4 0 6 15 25 33 43 26 24 32 37 26
52 -9 24 0 67 15 77 6 4 21 8 34 8 14 0 27 9 34 25 6 14 18 25 26 25 10 0 13
7 9 21 -7 27 20 69 44 69 11 0 19 5 19 10 0 6 15 10 34 10 18 0 39 6 46 14 7
9 27 14 52 13 33 -1 44 3 60 26 11 15 29 27 40 27 12 0 39 18 60 41 31 33 37
44 27 55 -6 8 -9 18 -5 21 4 4 26 -15 51 -41 24 -26 48 -45 54 -41 6 3 11 -1
11 -11 0 -14 7 -16 38 -10 20 3 50 6 65 6 19 0 30 6 34 18 3 14 12 17 34 14
23 -3 29 0 29 13 0 14 6 16 28 12 33 -7 114 15 120 31 2 7 17 12 33 12 17 0
32 6 35 15 3 8 15 17 25 20 14 5 18 12 14 26 -9 29 7 23 44 -15 20 -21 47 -37
70 -41 20 -4 39 -12 42 -17 9 -15 79 40 79 61 0 12 8 17 28 16 22 0 27 4 26
23 -1 20 1 21 16 7 9 -8 26 -15 38 -15 13 0 22 -6 22 -15 0 -8 6 -15 13 -15
23 0 27 12 9 26 -16 12 -16 13 3 14 11 0 38 -19 60 -42 37 -40 39 -45 37 -97
-2 -39 -8 -61 -22 -76 -24 -26 -25 -41 -4 -49 10 -4 14 -14 11 -26 -4 -15 1
-22 19 -26 13 -3 24 -10 24 -15 0 -18 28 -8 33 12 5 17 10 19 29 13 13 -4 30
-7 38 -7 8 0 20 -4 27 -9 7 -5 14 -5 18 2 3 5 15 10 26 10 10 0 19 5 19 11 0
5 5 7 12 3 7 -4 8 -3 4 5 -6 8 -12 9 -20 2 -9 -8 -18 -6 -32 4 -14 12 -15 15
-4 14 32 -3 40 2 40 24 0 13 -9 32 -21 43 -13 12 -18 25 -15 40 4 13 2 26 -4
29 -5 3 -10 12 -10 19 0 9 17 12 56 12 47 -1 59 -5 71 -23 12 -17 21 -21 44
-16 24 5 30 1 39 -22 8 -22 7 -31 -6 -46 -10 -11 -13 -19 -8 -20 31 -2 50 -10
60 -24 9 -12 17 -13 37 -6 17 7 28 7 32 1 11 -18 35 -10 45 14 5 13 17 27 27
30 25 8 45 63 32 87 -8 16 -6 19 9 19 24 0 48 25 32 35 -7 4 -6 13 2 28 20 35
16 78 -11 105 -20 20 -22 30 -17 63 5 30 3 39 -5 33 -9 -5 -10 1 -5 20 4 15 2
26 -4 26 -5 0 -10 5 -10 10 0 6 7 10 16 10 11 0 14 5 9 18 -21 49 -15 68 12
41 16 -16 83 -2 83 17 0 8 4 13 9 10 12 -8 52 61 45 78 -3 7 3 15 13 18 10 3
27 24 38 46 11 23 25 40 32 37 7 -2 10 2 6 11 -3 8 0 20 6 28 6 7 8 16 4 19
-12 13 12 6 31 -8 11 -8 38 -15 60 -15 l41 0 3 55 c3 50 1 55 -18 55 -15 0
-20 6 -20 25 0 15 6 25 15 25 9 0 12 6 9 18 -5 14 -3 14 10 -3 14 -17 19 -18
37 -7 11 7 25 10 31 6 6 -4 9 -1 6 6 -2 7 -12 14 -23 16 -10 1 -25 10 -34 20
-15 15 -14 16 7 11 13 -3 22 0 23 6 0 7 4 2 9 -10 7 -17 18 -23 39 -23 16 0
32 4 35 9 3 4 17 6 31 3 18 -3 25 0 25 12 0 29 33 52 75 51 35 -1 99 -24 68
-25 -23 0 9 -50 41 -66 17 -8 45 -22 61 -33 17 -10 34 -16 39 -13 5 3 6 -2 3
-12 -4 -9 -1 -26 6 -37 10 -17 9 -22 -7 -34 -10 -7 -15 -19 -11 -25 9 -14 -33
-80 -51 -80 -8 0 -14 -7 -14 -16 0 -9 -9 -18 -19 -21 -21 -5 -34 -46 -19 -61
12 -12 -8 -62 -31 -79 -12 -8 -17 -21 -14 -36 5 -27 -29 -102 -49 -110 -7 -2
-19 -25 -27 -51 -7 -25 -19 -46 -26 -46 -7 0 -15 -15 -19 -32 -5 -27 -2 -36
15 -50 l21 -18 -23 -25 c-27 -28 -44 -31 -56 -12 -4 8 -23 17 -40 20 -30 6
-33 4 -33 -17 0 -26 -33 -41 -59 -27 -24 14 -60 -8 -57 -35 4 -33 9 -36 38
-25 22 8 30 5 52 -18 27 -28 34 -51 15 -51 -6 0 -9 -12 -7 -27 2 -21 10 -29
34 -36 27 -8 33 -15 43 -61 10 -44 9 -57 -4 -84 -25 -50 -30 -96 -11 -115 9
-8 16 -23 16 -31 0 -11 13 -18 40 -22 30 -5 40 -11 40 -25 0 -10 5 -21 10 -24
6 -3 10 3 10 15 l0 21 26 -20 c15 -12 38 -21 53 -22 26 0 26 0 3 -10 -13 -5
-20 -13 -17 -19 3 -5 -3 -10 -14 -10 -14 0 -21 -6 -21 -20 0 -29 -37 -67 -51
-53 -5 5 -11 19 -12 30 -1 19 -47 50 -47 32 0 -5 -7 -9 -15 -9 -8 0 -15 8 -15
19 0 10 -6 24 -13 30 -11 8 -17 5 -27 -14 -7 -14 -21 -25 -30 -25 -13 0 -16
-11 -16 -65 0 -55 3 -66 19 -71 12 -4 24 1 33 15 16 22 48 28 59 10 4 -5 -3
-18 -15 -29 l-21 -18 28 -26 c31 -29 90 -36 99 -11 5 11 11 12 24 5 10 -6 25
-8 32 -5 7 3 19 -4 26 -15 10 -16 10 -20 -2 -20 -8 0 -16 -6 -19 -14 -7 -18
23 -25 93 -21 30 1 62 -1 71 -6 9 -4 42 -5 73 -2 50 5 59 9 68 32 6 14 12 21
15 14 8 -22 34 -2 28 21 -6 20 -5 20 12 -2 26 -32 86 -28 91 6 3 18 8 21 30
16 15 -4 39 -13 53 -20 37 -18 81 -21 87 -6 2 7 -2 13 -9 11 -28 -3 -38 1 -33
15 3 7 -2 16 -12 20 -13 5 -14 9 -4 21 10 12 10 21 1 41 -14 32 -15 31 10 37
15 4 20 11 16 21 -5 12 0 16 17 16 21 0 25 6 28 43 3 28 -1 54 -13 78 -13 26
-15 39 -7 47 6 6 7 22 3 39 -15 53 -11 64 33 88 23 12 49 28 57 35 8 7 21 10
29 7 10 -4 12 0 9 13 -5 17 -1 18 32 13 38 -6 38 -6 33 25 -4 25 -2 29 9 21 7
-6 23 -9 37 -5 16 4 35 -2 61 -20 34 -23 41 -24 69 -13 17 7 36 16 41 20 6 4
17 4 25 -1 20 -13 43 -13 35 0 -3 5 -3 20 1 34 5 22 9 24 26 15 16 -8 23 -8
29 2 5 9 11 10 21 2 19 -16 101 52 93 77 -3 10 0 20 8 23 8 3 17 18 20 34 4
19 15 34 32 41 38 18 31 54 -14 68 -37 12 -66 44 -76 87 -5 18 -3 27 5 27 10
0 9 4 -1 16 -10 13 -10 17 0 23 19 12 -4 51 -29 51 -10 0 -22 5 -25 11 -5 7
-15 5 -31 -6 -15 -9 -33 -13 -45 -10 -22 7 -20 31 3 29 16 -1 19 37 3 48 -5 4
6 8 26 8 24 0 39 5 43 15 5 13 8 13 24 -2 10 -10 17 -21 15 -24 -1 -4 4 -10
13 -13 9 -3 12 -11 8 -18 -4 -7 2 -5 14 6 12 10 19 23 15 29 -4 6 0 8 10 4 10
-3 17 -2 17 3 0 6 -7 10 -16 10 -8 0 -12 4 -9 10 3 5 1 19 -6 31 -8 15 -8 19
0 15 7 -5 11 2 11 18 0 14 -4 27 -8 30 -14 8 -1 66 14 66 7 0 18 -9 24 -20 6
-11 19 -20 30 -20 11 0 24 9 30 20 6 11 17 20 25 20 8 0 15 5 15 11 0 5 4 8 9
5 4 -3 6 6 3 20 -3 18 -13 27 -33 31 -24 5 -29 11 -34 47 -11 69 -3 97 30 115
18 9 29 23 27 32 -1 8 6 24 18 34 11 10 20 24 20 32 0 7 4 13 9 13 5 0 11 10
13 23 2 12 9 21 16 19 19 -4 43 24 36 42 -4 12 0 16 15 16 12 0 21 4 21 8 0 5
18 14 40 21 22 6 40 16 40 21 0 5 7 7 15 4 8 -4 15 -1 15 6 0 9 10 11 31 6 18
-3 38 -1 45 5 9 7 19 7 34 -1 12 -6 26 -9 33 -7 7 2 22 0 34 -4 21 -8 23 -5
29 31 4 24 12 40 20 40 16 0 19 16 5 24 -18 12 -23 77 -7 101 9 14 16 26 16
29 0 10 -48 56 -58 56 -6 0 -14 5 -18 11 -5 8 3 10 23 7 22 -3 34 1 42 14 15
25 14 38 -4 38 -9 0 -19 8 -22 18 -4 9 -14 22 -22 29 -24 18 -6 26 41 19 37
-6 46 -11 55 -37 13 -34 33 -31 33 6 0 15 7 26 20 30 11 3 25 15 30 26 6 10
19 19 30 19 14 0 18 7 18 31 -1 26 -4 30 -22 24 -39 -12 -61 -11 -81 2 -11 7
-25 13 -32 13 -19 0 -73 60 -73 81 0 12 -21 28 -65 50 -56 27 -63 34 -55 50 8
14 6 21 -10 29 -12 6 -25 21 -30 33 -7 18 -9 19 -9 4 -1 -28 -31 -67 -52 -67
-10 0 -21 -5 -25 -11 -4 -8 -9 -7 -15 2 -11 18 -11 32 0 25 5 -3 12 1 15 9 3
8 11 14 18 13 8 -2 12 5 11 17 -8 89 -14 139 -17 142 -1 2 -18 -5 -37 -14 -43
-22 -78 -18 -102 13 -25 32 -37 30 -37 -7 0 -25 -3 -29 -13 -20 -8 6 -17 8
-21 4 -4 -4 -11 -2 -15 5 -6 10 -14 10 -37 1 l-29 -11 23 -15 c32 -23 31 -87
-3 -109 -13 -9 -27 -24 -30 -34 -5 -16 -16 -18 -80 -18 -65 1 -75 4 -75 19 0
10 6 22 13 26 13 9 19 93 5 93 -11 0 -38 67 -38 95 0 12 -9 30 -20 40 -11 10
-17 21 -15 25 3 4 -2 13 -10 20 -19 16 -19 54 0 70 8 6 14 15 13 18 -1 4 2 14
5 22 3 8 7 24 9 35 2 11 15 25 29 32 26 13 26 13 14 68 -7 30 -9 55 -4 55 5 0
9 -4 9 -10 0 -17 38 -11 52 8 19 26 63 43 76 30 8 -8 19 -7 39 3 33 17 42 58
18 91 -21 32 -19 38 15 38 25 0 30 4 30 25 0 20 5 25 24 25 13 0 26 7 30 15 3
8 16 15 28 16 l23 0 -22 9 c-13 5 -23 16 -23 24 0 16 -33 24 -75 16 -22 -4
-31 -11 -33 -29 -3 -20 -8 -22 -34 -17 -17 3 -41 6 -54 6 -15 0 -24 6 -24 16
0 11 -6 15 -17 11 -10 -2 -24 -6 -32 -8 -9 -3 -17 8 -21 29 -9 41 -14 46 -29
29z m-2311 -642 c0 -8 -2 -15 -4 -15 -2 0 -6 7 -10 15 -3 8 -1 15 4 15 6 0 10
-7 10 -15z m0 -54 c0 -12 -28 -22 -34 -12 -3 5 -3 11 1 15 9 9 33 7 33 -3z
m77 -788 c10 -16 23 -34 30 -41 7 -7 10 -18 8 -25 -3 -7 8 -19 24 -28 23 -13
31 -28 40 -69 9 -40 9 -56 -1 -67 -10 -13 -14 -13 -25 3 -10 14 -17 15 -35 7
-27 -12 -49 -7 -42 10 2 7 -2 21 -11 32 -12 16 -16 17 -24 6 -7 -10 -12 -8
-25 10 -20 29 -20 40 -2 33 22 -9 28 13 11 40 -11 16 -13 26 -6 31 6 3 11 21
11 39 0 54 20 61 47 19z m-87 -53 c0 -5 -2 -10 -4 -10 -3 0 -8 5 -11 10 -3 6
-1 10 4 10 6 0 11 -4 11 -10z m1630 -790 c0 -5 -4 -10 -9 -10 -6 0 -13 5 -16
10 -3 6 1 10 9 10 9 0 16 -4 16 -10z m-291 -201 c20 -7 43 -14 51 -17 8 -2 26
-5 40 -6 21 -1 24 -5 22 -26 -1 -14 -7 -26 -12 -28 -14 -5 -13 -75 1 -89 16
-16 1 -71 -22 -78 -20 -7 -49 -53 -49 -78 0 -16 -64 -77 -80 -77 -5 0 -7 -7
-4 -15 8 -21 -15 -75 -32 -75 -8 0 -14 7 -14 15 0 8 5 15 12 15 7 0 5 5 -4 13
-21 16 -32 53 -18 62 5 3 10 32 10 64 0 62 -9 76 -62 99 -34 14 -39 52 -8 52
11 0 20 3 20 8 0 4 -11 7 -25 7 -14 0 -25 -6 -25 -12 0 -7 -4 -13 -9 -13 -17
0 -23 21 -17 56 5 25 12 34 27 34 23 0 72 34 67 47 -2 4 7 9 20 11 13 2 26 10
29 18 3 8 9 12 13 9 5 -3 11 -1 15 5 8 13 11 13 54 -1z m-1789 -19 c0 -5 -4
-10 -9 -10 -6 0 -13 5 -16 10 -3 6 1 10 9 10 9 0 16 -4 16 -10z m2081 -106 c9
-8 18 -11 22 -8 8 9 97 -65 97 -81 0 -7 7 -15 15 -19 8 -3 15 -15 15 -26 0
-11 7 -32 16 -45 15 -23 15 -25 0 -31 -22 -8 -20 -29 5 -53 26 -24 19 -37 -27
-45 -28 -6 -34 -11 -29 -24 6 -16 5 -16 -11 0 -14 13 -15 20 -5 31 9 12 8 16
-4 21 -22 8 -65 -37 -65 -68 0 -24 -1 -24 -67 -20 -74 6 -115 21 -92 35 11 6
11 14 2 39 -9 24 -9 30 2 30 9 0 13 11 13 30 -1 22 -6 30 -20 30 -10 0 -18 5
-18 10 0 6 8 10 17 10 13 0 14 3 5 12 -16 16 -15 28 3 28 8 0 14 3 13 8 -3 8
15 32 49 64 18 17 20 25 12 51 -5 18 -9 36 -9 40 0 11 41 -2 61 -19z m-491
-499 c11 -13 10 -14 -4 -9 -9 3 -16 10 -16 15 0 13 6 11 20 -6z m-4410 -1300
c0 -4 -55 -3 -62 2 -4 2 -2 10 4 17 11 11 17 11 35 -1 13 -9 23 -16 23 -18z"/>
<path d="M12526 12185 c4 -8 10 -15 15 -15 4 0 6 7 3 15 -4 8 -10 15 -15 15
-4 0 -6 -7 -3 -15z"/>
<path d="M11898 11953 c7 -3 16 -2 19 1 4 3 -2 6 -13 5 -11 0 -14 -3 -6 -6z"/>
<path d="M9731 11884 c0 -11 3 -14 6 -6 3 7 2 16 -1 19 -3 4 -6 -2 -5 -13z"/>
<path d="M11040 11609 c0 -5 5 -7 10 -4 6 3 10 8 10 11 0 2 -4 4 -10 4 -5 0
-10 -5 -10 -11z"/>
<path d="M11820 11280 c33 -26 48 -26 25 0 -10 11 -25 20 -34 20 -12 0 -9 -6
9 -20z"/>
<path d="M9637 11228 c-8 -12 -18 -33 -22 -46 -6 -19 -11 -22 -35 -17 -27 6
-27 6 -21 -32 4 -21 13 -48 19 -60 14 -26 16 -63 3 -63 -5 0 -28 -16 -50 -37
-29 -26 -38 -40 -31 -48 6 -7 8 -19 4 -28 -3 -8 -1 -18 5 -21 6 -4 7 -14 4
-22 -5 -14 -3 -14 15 -3 17 10 23 10 37 -1 11 -9 13 -16 5 -24 -16 -16 -12
-44 12 -77 19 -26 20 -31 8 -39 -12 -8 -10 -10 8 -10 12 0 25 6 28 14 3 8 13
12 25 9 13 -4 19 0 19 11 0 13 11 16 50 16 29 0 50 5 50 11 0 5 5 7 10 4 6 -3
13 1 16 9 6 17 44 22 44 7 0 -5 9 -7 20 -4 11 3 20 12 20 20 0 8 12 25 28 38
l27 24 -25 1 c-15 0 -31 5 -38 12 -7 7 -12 8 -12 4 0 -4 -15 2 -33 13 -19 11
-36 19 -39 16 -7 -7 -3 26 6 54 6 18 4 28 -9 37 -10 7 -15 19 -12 27 4 10 -2
15 -19 15 -13 0 -21 -4 -19 -9 3 -4 1 -10 -5 -14 -6 -3 -13 2 -17 12 -4 10
-12 23 -19 28 -16 14 -65 125 -54 125 10 0 25 59 17 67 -3 2 -12 -6 -20 -19z
m133 -272 c0 -3 -4 -8 -10 -11 -5 -3 -10 -1 -10 4 0 6 5 11 10 11 6 0 10 -2
10 -4z m-60 -176 c0 -5 -2 -10 -4 -10 -3 0 -8 5 -11 10 -3 6 -1 10 4 10 6 0
11 -4 11 -10z"/>
<path d="M11851 11214 c0 -11 3 -14 6 -6 3 7 2 16 -1 19 -3 4 -6 -2 -5 -13z"/>
<path d="M9680 11100 c0 -5 5 -10 11 -10 5 0 7 5 4 10 -3 6 -8 10 -11 10 -2 0
-4 -4 -4 -10z"/>
<path d="M8509 11085 c-1 -11 -2 -26 -2 -32 1 -7 -10 -13 -24 -13 -32 0 -21
-17 15 -22 26 -4 27 -2 24 32 -4 45 -10 60 -13 35z"/>
<path d="M8480 10956 c-6 -8 -17 -13 -24 -10 -11 4 -11 -2 -3 -28 9 -28 16
-33 43 -35 37 -3 46 14 31 60 -10 30 -28 35 -47 13z"/>
<path d="M9800 10936 c0 -8 4 -17 8 -20 4 -2 8 4 8 15 0 10 -4 19 -8 19 -4 0
-8 -6 -8 -14z"/>
<path d="M9845 10920 c3 -5 8 -10 11 -10 2 0 4 5 4 10 0 6 -5 10 -11 10 -5 0
-7 -4 -4 -10z"/>
<path d="M13386 10896 c7 -19 -51 -27 -75 -10 -16 11 -20 8 -38 -31 -18 -40
-18 -45 -4 -51 9 -4 22 -6 29 -5 6 1 12 -5 12 -14 0 -9 -4 -13 -10 -10 -5 3
-10 -1 -10 -10 0 -9 -12 -27 -27 -41 -19 -17 -24 -27 -15 -31 6 -2 12 -16 12
-29 0 -20 4 -23 23 -19 13 3 31 -2 43 -13 27 -23 41 -62 22 -62 -10 0 -11 -2
0 -8 13 -9 6 -42 -9 -42 -5 0 -9 -7 -9 -15 0 -9 -9 -15 -25 -15 -22 0 -25 -4
-25 -33 0 -22 10 -44 30 -67 16 -19 29 -45 30 -58 0 -28 39 -112 51 -112 5 0
14 11 19 25 5 14 14 25 20 25 5 0 10 14 10 30 0 17 5 30 11 30 5 0 7 5 4 10
-3 6 -2 10 4 10 6 0 8 7 5 15 -4 8 -13 15 -21 15 -8 0 -13 6 -10 13 2 6 14 11
26 9 18 -2 21 2 16 19 -7 20 -4 20 45 14 49 -6 52 -5 44 12 -5 10 -9 45 -10
78 -2 98 -3 103 -25 110 -16 5 -20 14 -18 43 2 35 -1 48 -21 98 -4 11 -4 27 0
35 6 9 2 20 -11 32 -10 10 -19 24 -19 31 0 13 -41 36 -65 36 -8 0 -12 -6 -9
-14z"/>
<path d="M9940 10869 c0 -5 5 -7 10 -4 6 3 10 8 10 11 0 2 -4 4 -10 4 -5 0
-10 -5 -10 -11z"/>
<path d="M12210 10761 c0 -6 5 -13 10 -16 6 -3 10 1 10 9 0 9 -4 16 -10 16 -5
0 -10 -4 -10 -9z"/>
<path d="M9550 10713 c0 -7 -12 -13 -26 -13 -26 0 -27 -1 -21 -56 5 -50 4 -54
-10 -42 -12 9 -17 10 -20 2 -2 -7 -13 -10 -23 -7 -11 3 -27 -2 -35 -11 -9 -9
-21 -14 -26 -11 -5 4 -9 3 -9 -2 0 -13 90 -12 90 1 0 6 5 3 11 -6 5 -10 16
-18 23 -18 8 0 16 -9 19 -21 7 -28 41 -21 45 9 2 14 8 20 15 15 7 -4 0 9 -14
28 -40 53 -41 57 -16 52 17 -4 26 2 35 22 15 33 15 35 -3 35 -7 0 -19 8 -24
18 -6 9 -11 11 -11 5z"/>
<path d="M7150 10685 c-7 -9 -21 -13 -31 -10 -9 3 -20 1 -24 -4 -4 -7 -14 -6
-29 4 -18 12 -25 13 -40 2 -16 -12 -16 -14 -2 -26 9 -8 16 -19 16 -26 0 -13
28 -20 125 -31 l50 -6 2 36 c2 25 -3 42 -17 56 -24 24 -33 25 -50 5z"/>
<path d="M7332 10628 c-7 -7 -12 -17 -12 -24 0 -16 -27 -38 -32 -25 -1 5 -16
7 -31 4 -19 -4 -27 -11 -24 -22 2 -9 9 -15 15 -13 7 1 12 -2 12 -7 0 -12 -29
-23 -41 -15 -5 3 -9 0 -9 -5 0 -6 -8 -11 -17 -11 -14 0 -13 -4 5 -23 12 -13
19 -26 16 -30 -3 -3 -6 -22 -6 -41 0 -24 -5 -36 -14 -36 -21 0 -17 -18 10 -43
36 -34 41 -68 17 -115 -11 -22 -26 -42 -32 -44 -19 -6 46 -118 69 -118 14 0
72 -71 72 -88 0 -8 10 -22 23 -33 16 -13 18 -18 7 -19 -9 0 -23 -8 -32 -19 -8
-10 -22 -21 -29 -24 -11 -3 -12 -8 -2 -23 6 -11 15 -18 21 -17 5 1 15 -9 22
-23 8 -14 20 -22 28 -19 7 2 28 -3 45 -12 26 -14 28 -18 14 -21 -18 -4 -17 -5
4 -28 l22 -23 18 34 c23 42 24 68 4 85 -17 14 -20 40 -5 40 7 0 7 6 0 20 -9
16 -8 20 5 20 11 0 15 11 15 44 0 27 6 48 16 57 9 7 14 22 11 36 -2 13 1 27 8
31 7 4 15 27 17 52 3 43 32 89 52 82 6 -2 20 -1 33 3 19 4 23 12 23 45 0 21 5
42 11 46 6 3 9 15 6 25 -6 21 3 25 20 8 9 -9 10 -1 7 30 -4 29 0 46 11 57 17
18 20 40 4 49 -6 4 4 21 25 41 l35 34 35 -20 c23 -14 43 -19 60 -14 l26 6 -31
44 c-32 47 -60 56 -99 32 -16 -10 -23 -9 -40 7 -18 16 -23 17 -30 5 -7 -11
-14 -12 -35 -2 -21 10 -30 9 -48 -2 -12 -8 -48 -17 -80 -21 -52 -6 -62 -4
-111 24 -60 35 -67 36 -84 19z m8 -52 c0 -3 -4 -8 -10 -11 -5 -3 -10 -1 -10 4
0 6 5 11 10 11 6 0 10 -2 10 -4z m80 -656 c0 -5 -7 -10 -15 -10 -8 0 -15 5
-15 10 0 6 7 10 15 10 8 0 15 -4 15 -10z"/>
<path d="M9340 10580 c0 -6 7 -10 15 -10 8 0 15 2 15 4 0 2 -7 6 -15 10 -8 3
-15 1 -15 -4z"/>
<path d="M9253 10553 c9 -2 23 -2 30 0 6 3 -1 5 -18 5 -16 0 -22 -2 -12 -5z"/>
<path d="M13584 10446 c-3 -8 -1 -30 5 -47 10 -29 8 -34 -14 -53 -14 -12 -23
-25 -19 -29 10 -10 13 -70 5 -82 -4 -5 -13 -37 -21 -70 -22 -106 -36 -131 -81
-144 -22 -7 -45 -9 -52 -4 -6 4 -4 -5 5 -19 13 -20 16 -38 12 -72 -4 -26 -11
-46 -15 -46 -5 0 -9 -6 -9 -14 0 -22 -40 -66 -61 -66 -12 0 -19 -7 -19 -20 0
-14 -7 -20 -23 -20 -13 0 -32 -8 -41 -19 -19 -20 -77 -22 -84 -2 -2 6 3 9 12
5 24 -9 19 6 -11 34 -40 36 -79 37 -92 1 -11 -33 -1 -44 32 -33 12 3 19 3 15
-1 -4 -4 1 -20 12 -35 22 -31 26 -55 10 -65 -5 -3 -10 -15 -10 -25 0 -16 5
-19 33 -14 17 3 48 11 67 17 19 6 41 10 48 8 8 -1 20 3 28 10 12 10 18 9 30
-3 11 -11 26 -13 60 -8 54 8 59 12 44 42 -11 23 -11 23 10 -1 19 -22 25 -24
50 -14 22 8 33 8 48 -3 17 -12 22 -11 39 4 10 9 17 24 15 33 -1 9 9 30 23 47
14 16 25 35 25 41 0 6 6 11 13 11 7 0 27 14 45 31 27 26 30 33 19 50 -7 11
-17 17 -23 15 -15 -6 -54 47 -54 73 0 11 -11 28 -25 39 -28 22 -33 57 -11 65
12 5 13 13 6 38 -7 23 -6 35 2 40 9 6 9 11 -1 23 -13 16 -10 38 15 94 15 32
22 36 57 33 9 -1 17 0 17 3 0 14 -24 56 -33 56 -5 0 -4 6 2 14 8 10 8 21 1 40
-9 24 -8 26 10 16 20 -11 39 3 20 15 -6 4 -8 11 -5 16 9 14 -10 11 -49 -8 -34
-16 -37 -16 -56 2 -18 16 -20 16 -26 1z"/>
<path d="M13032 9745 c-12 -9 -26 -14 -31 -11 -4 3 -17 -4 -29 -14 -12 -11
-26 -20 -32 -20 -11 0 -13 -49 -2 -66 23 -36 92 -39 123 -6 11 13 24 20 28 18
16 -10 5 61 -14 87 -19 26 -21 27 -43 12z"/>
<path d="M13070 9602 c0 -12 -4 -24 -10 -27 -5 -3 -17 -21 -26 -40 -13 -28
-22 -35 -45 -35 -16 0 -29 -5 -29 -11 0 -6 -14 -9 -34 -6 -25 3 -36 0 -40 -10
-9 -23 -7 -25 15 -18 15 5 22 2 26 -14 3 -12 25 -29 52 -42 25 -12 53 -26 62
-30 13 -7 15 -3 11 18 -4 23 -3 24 17 13 15 -8 20 -17 16 -31 -5 -15 -2 -19
18 -19 13 0 27 3 30 6 10 10 -12 44 -28 44 -25 0 -27 20 -4 39 20 16 22 22 12
44 -10 20 -9 26 3 31 8 3 14 11 14 17 0 7 8 18 18 25 16 12 16 14 -3 33 -11
11 -32 23 -47 26 -24 6 -28 4 -28 -13z"/>
<path d="M12687 9584 c-9 -9 34 -74 61 -92 14 -9 41 -17 59 -17 l34 0 -25 20
c-45 36 -81 60 -88 58 -4 -2 -10 6 -13 17 -6 20 -17 25 -28 14z"/>
<path d="M10400 9366 c0 -11 -9 -16 -26 -16 -14 0 -38 -9 -54 -20 -15 -11 -39
-24 -53 -29 -23 -9 -26 -15 -25 -61 1 -46 3 -51 22 -46 11 3 25 1 32 -5 8 -7
14 -7 19 1 3 5 15 10 26 10 11 0 22 6 25 14 3 8 12 12 20 9 8 -3 14 0 14 6 0
6 7 8 16 4 8 -3 13 -12 10 -19 -3 -8 0 -14 6 -14 6 0 16 -6 22 -14 12 -15 76
-30 76 -18 0 5 -5 13 -12 20 -19 19 4 37 30 23 31 -16 33 -14 26 29 -4 24 -2
45 5 53 13 16 5 27 -20 27 -10 0 -20 8 -23 18 -7 19 -56 46 -56 30 0 -6 -7 -7
-16 -4 -45 17 -64 18 -64 2z"/>
<path d="M9809 9339 c-5 -11 -14 -17 -19 -14 -5 3 -7 -7 -6 -22 2 -16 4 -34 5
-40 2 -21 32 -15 38 7 3 11 12 20 19 20 8 0 14 10 14 21 0 19 4 21 30 16 23
-5 30 -3 30 8 0 11 -7 14 -24 9 -14 -3 -31 -2 -38 2 -23 15 -38 13 -49 -7z"/>
<path d="M9955 9340 c4 -6 -8 -16 -25 -24 -26 -11 -29 -15 -17 -25 12 -9 22
-8 51 6 43 20 44 26 10 41 -15 8 -23 8 -19 2z"/>
<path d="M9750 9300 c0 -5 5 -10 11 -10 5 0 7 5 4 10 -3 6 -8 10 -11 10 -2 0
-4 -4 -4 -10z"/>
<path d="M12425 9281 c-3 -5 -1 -12 4 -15 5 -3 11 1 15 9 6 16 -9 21 -19 6z"/>
<path d="M9986 9256 c-9 -14 -16 -34 -16 -46 0 -11 -5 -20 -10 -20 -6 0 -22
-11 -34 -24 -13 -12 -32 -26 -41 -30 -14 -5 -15 -9 -6 -20 10 -12 9 -13 -7 -9
-11 2 -23 0 -26 -6 -4 -6 -15 -11 -26 -11 -11 0 -20 -10 -24 -25 -4 -14 -16
-29 -27 -33 -17 -7 -18 -10 -6 -26 17 -23 107 -49 121 -35 6 5 16 3 25 -5 9
-8 25 -16 36 -18 36 -8 112 42 99 64 -3 5 10 8 29 8 33 0 74 29 60 43 -3 4 -1
7 7 7 8 0 11 9 7 29 -5 22 0 34 22 55 15 14 35 26 45 26 10 0 16 6 13 13 -2 7
-22 13 -48 13 -99 3 -109 4 -109 17 -1 19 -23 43 -46 51 -16 5 -25 0 -38 -18z"/>
<path d="M7255 9200 c3 -5 10 -10 16 -10 5 0 9 5 9 10 0 6 -7 10 -16 10 -8 0
-12 -4 -9 -10z"/>
<path d="M10560 9168 c0 -4 6 -8 14 -8 8 0 17 4 20 8 2 4 -4 8 -15 8 -10 0
-19 -4 -19 -8z"/>
<path d="M6910 8279 c0 -5 5 -7 10 -4 6 3 10 8 10 11 0 2 -4 4 -10 4 -5 0 -10
-5 -10 -11z"/>
<path d="M8390 8024 c0 -8 5 -12 10 -9 6 3 10 10 10 16 0 5 -4 9 -10 9 -5 0
-10 -7 -10 -16z"/>
<path d="M8830 7926 c0 -2 7 -7 16 -10 8 -3 12 -2 9 4 -6 10 -25 14 -25 6z"/>
<path d="M8590 6873 c0 -6 8 -17 18 -24 16 -13 16 -13 2 6 -8 11 -16 22 -17
24 -2 2 -3 0 -3 -6z"/>
<path d="M8620 6815 c0 -8 -6 -15 -12 -15 -17 0 12 -20 30 -20 17 0 15 37 -3
44 -9 3 -15 0 -15 -9z"/>
<path d="M8676 6785 c4 -8 10 -15 15 -15 5 0 9 7 9 15 0 8 -7 15 -15 15 -9 0
-12 -6 -9 -15z"/>
<path d="M8610 6755 c0 -9 7 -18 17 -22 14 -5 13 -8 -7 -15 -17 -6 -20 -11
-11 -22 6 -7 8 -16 4 -20 -4 -4 -8 -23 -9 -41 -1 -29 4 -37 27 -47 23 -10 27
-18 24 -38 -3 -14 -2 -19 1 -12 3 6 15 12 26 12 15 0 18 4 13 21 -5 14 -3 19
3 15 17 -10 23 10 12 38 -10 28 -2 34 18 14 9 -9 12 -5 12 18 0 22 -7 34 -24
44 -14 7 -22 18 -20 25 3 7 -5 20 -18 29 -29 21 -68 21 -68 1z"/>
<path d="M8744 6735 c-9 -22 1 -29 15 -11 8 10 9 16 1 21 -5 3 -13 -1 -16 -10z"/>
</g>
</svg>
