<?xml version="1.0" standalone="no"?>
<!DOCTYPE svg PUBLIC "-//W3C//DTD SVG 20010904//EN"
 "http://www.w3.org/TR/2001/REC-SVG-20010904/DTD/svg10.dtd">
<svg version="1.0" xmlns="http://www.w3.org/2000/svg"
 width="943.663011pt" height="1113.763974pt" viewBox="0 0 943.663011 1113.763974"
 preserveAspectRatio="xMidYMid meet">
<metadata>
Created by potrace 1.15, written by Peter Selinger 2001-2017
</metadata>
<g transform="translate(-517.524386,1472.639234) scale(0.100000,-0.100000)"
fill="#222222" stroke="none">
<path d="M7864 14715 c-5 -12 -9 -13 -21 -4 -11 10 -19 7 -39 -14 -23 -25 -40
-32 -71 -28 -7 1 -13 -7 -13 -17 0 -11 -6 -24 -12 -29 -19 -15 -68 -25 -68
-14 0 6 -13 9 -30 8 -16 -1 -30 -5 -30 -10 0 -4 -10 -1 -23 8 -13 8 -27 12
-30 9 -4 -4 -13 -2 -21 5 -9 8 -21 8 -40 2 -54 -21 -116 -15 -116 11 0 7 6 6
15 -2 8 -7 15 -8 15 -4 0 5 -9 15 -20 22 -12 7 -19 20 -18 30 2 13 -5 17 -32
18 -30 2 -32 0 -17 -10 38 -23 46 -32 49 -56 3 -22 0 -25 -26 -22 -20 3 -26 0
-21 -9 15 -23 16 -79 3 -77 -8 2 -14 -10 -16 -32 -2 -19 -10 -39 -18 -43 -8
-4 -14 -17 -14 -27 0 -16 -7 -20 -31 -20 -16 0 -28 -4 -24 -9 3 -5 0 -13 -7
-17 -14 -9 -90 -25 -130 -27 -16 -1 -28 -6 -28 -11 0 -5 -9 -1 -20 9 -16 14
-29 16 -75 10 -46 -5 -55 -10 -51 -23 3 -9 -4 -28 -15 -41 -17 -21 -25 -23
-62 -17 -23 4 -48 8 -54 8 -7 1 -13 5 -13 9 0 4 -9 11 -21 14 -12 4 -30 16
-41 27 -13 13 -25 17 -36 12 -28 -12 -81 -5 -103 13 -8 6 -41 11 -74 10 -38 0
-72 6 -92 17 -51 26 -122 29 -165 6 l-36 -19 -17 25 c-9 13 -20 22 -25 19 -5
-3 -19 -1 -30 5 -16 9 -26 7 -49 -10 -16 -11 -33 -20 -39 -20 -5 0 -15 -7 -22
-15 -7 -8 -25 -15 -41 -15 -18 0 -29 -5 -29 -14 0 -8 -6 -17 -12 -19 -8 -4 -7
-6 3 -6 22 -1 32 -28 13 -35 -8 -3 -14 -12 -14 -21 0 -18 -5 -19 -31 -5 -17
10 -19 7 -19 -33 0 -61 -38 -105 -112 -133 -21 -7 -24 -54 -6 -72 9 -9 9 -15
0 -24 -7 -7 -12 -20 -12 -30 0 -10 -7 -18 -15 -18 -8 0 -15 -8 -15 -18 0 -17
-32 -52 -49 -52 -4 0 -13 -11 -19 -24 -6 -13 -19 -27 -30 -30 -14 -5 -18 -13
-15 -30 3 -13 0 -27 -6 -30 -6 -4 -11 -15 -11 -26 0 -11 -11 -22 -29 -28 -16
-6 -32 -20 -36 -31 -7 -22 -52 -51 -80 -51 -21 0 -19 -13 5 -35 19 -18 19 -18
-1 -46 -17 -24 -18 -29 -5 -29 12 0 16 -11 16 -45 0 -25 -5 -45 -11 -45 -5 0
-7 -4 -4 -10 3 -5 0 -10 -7 -10 -8 -1 -6 -6 6 -15 11 -8 27 -13 37 -10 9 3 21
-1 28 -9 7 -8 23 -17 36 -20 14 -4 25 -12 25 -19 1 -22 45 -61 101 -90 68 -36
103 -85 95 -132 -5 -24 -2 -36 14 -50 11 -10 22 -34 26 -54 3 -20 10 -45 15
-56 7 -15 6 -29 -5 -50 -10 -19 -12 -34 -5 -46 5 -10 9 -36 9 -58 0 -31 7 -47
30 -71 l30 -30 -28 6 c-15 4 -30 7 -34 8 -4 0 -13 -7 -20 -17 -11 -15 -21 -16
-76 -9 -42 6 -70 16 -86 31 -21 19 -27 21 -46 11 -18 -10 -24 -9 -31 1 -8 11
-11 11 -20 -3 -13 -23 -30 -23 -55 0 -40 37 -77 8 -59 -47 8 -28 -3 -61 -20
-61 -9 0 -12 -6 -9 -15 4 -8 2 -15 -4 -15 -6 0 -7 -13 -2 -34 7 -33 -2 -56
-23 -56 -12 0 -37 -27 -37 -40 0 -6 5 -8 10 -5 6 4 17 1 25 -5 8 -6 23 -9 35
-5 14 5 20 2 20 -9 0 -9 -5 -16 -11 -16 -5 0 -7 -5 -4 -11 11 -17 -4 -59 -20
-59 -12 0 -14 -7 -9 -27 9 -38 10 -33 -14 -83 -12 -25 -22 -52 -22 -61 0 -40
-49 -29 -50 11 -1 8 -7 -3 -15 -25 -8 -22 -19 -41 -25 -43 -7 -3 -6 -12 4 -27
15 -23 7 -43 -13 -30 -5 3 -19 -7 -30 -21 -20 -25 -20 -29 -6 -50 18 -27 20
-65 4 -81 -15 -15 34 -47 61 -40 22 6 35 -7 44 -45 5 -22 3 -28 -9 -28 -20 0
-13 -32 17 -73 13 -19 18 -37 14 -53 -5 -18 -2 -24 9 -24 11 0 13 -4 8 -12
-18 -30 5 -82 33 -71 8 3 21 0 28 -6 11 -9 16 -9 22 0 5 9 10 8 19 -5 15 -20
74 -29 92 -14 7 6 14 8 14 4 1 -3 3 -10 4 -16 1 -5 3 -14 4 -18 0 -4 14 -13
31 -19 18 -7 36 -25 47 -47 10 -21 24 -36 34 -36 20 0 105 -63 133 -98 10 -13
38 -32 61 -42 26 -11 51 -32 64 -54 20 -31 28 -36 60 -36 27 0 44 -7 61 -25
13 -14 31 -25 40 -25 9 0 25 -9 35 -20 20 -22 26 -80 9 -80 -8 0 -5 -13 7 -36
17 -34 17 -38 1 -60 -11 -14 -23 -21 -34 -18 -25 7 -24 -41 3 -131 11 -39 22
-78 24 -87 6 -26 39 -72 43 -60 2 7 16 9 34 5 31 -6 31 -6 16 16 -32 45 12 93
95 105 10 1 25 11 35 21 16 17 16 18 0 12 -18 -6 -19 -4 -22 58 -1 8 3 14 7
13 5 -2 13 5 18 14 5 10 16 15 24 12 8 -4 15 -1 15 5 0 7 8 8 25 1 20 -7 25
-6 25 5 0 8 5 15 10 15 6 0 10 -5 10 -12 0 -6 7 -20 17 -30 16 -17 9 -24 -19
-19 -5 0 -8 -4 -8 -9 0 -13 -11 -13 -30 0 -12 8 -13 12 -2 19 11 6 9 9 -5 13
-11 3 -31 -4 -47 -17 l-28 -22 26 -5 c21 -4 26 -1 27 16 1 18 3 17 12 -6 8
-20 20 -30 44 -34 26 -5 33 -11 33 -30 0 -12 4 -25 10 -29 5 -3 7 -12 4 -19
-4 -10 5 -16 26 -21 17 -4 38 -18 47 -32 12 -18 22 -23 39 -19 16 4 26 1 33
-13 6 -10 7 -21 4 -25 -3 -3 -2 -6 4 -6 6 0 16 -13 23 -29 6 -17 22 -32 35
-35 31 -8 75 9 75 29 0 20 10 19 72 -7 65 -28 158 -28 158 0 1 15 3 14 16 -3
8 -11 24 -20 37 -20 16 0 21 -5 20 -20 -1 -13 9 -28 28 -40 16 -11 38 -35 49
-52 11 -18 24 -33 30 -33 6 0 9 -4 6 -9 -3 -4 5 -13 18 -19 20 -9 27 -7 42 9
15 17 19 18 34 4 9 -8 34 -17 55 -21 22 -3 43 -8 47 -10 4 -2 9 0 13 6 10 16
23 12 30 -10 4 -12 1 -27 -5 -35 -15 -19 4 -55 30 -55 18 0 38 -36 26 -47 -3
-4 1 -17 9 -30 9 -13 14 -31 13 -40 -2 -13 6 -17 39 -19 61 -3 75 -19 157
-183 15 -29 25 -60 22 -67 -3 -8 1 -14 8 -14 23 0 64 -62 56 -85 -10 -26 -7
-166 3 -183 17 -26 18 -62 2 -62 -8 0 -17 -11 -21 -25 -3 -14 -11 -25 -16 -25
-6 0 -3 -11 5 -24 12 -18 14 -32 7 -55 -5 -18 -5 -33 1 -36 5 -4 9 -14 9 -24
0 -10 11 -28 25 -41 14 -13 25 -29 25 -37 0 -7 4 -13 9 -13 4 0 21 -10 37 -22
15 -12 35 -23 43 -25 9 -1 20 -8 26 -15 6 -8 28 -12 52 -12 24 1 41 -2 38 -6
-3 -5 -1 -12 5 -15 6 -4 8 -15 5 -25 -4 -13 2 -24 18 -34 13 -9 42 -39 66 -68
42 -52 77 -79 120 -93 18 -5 22 -4 15 6 -4 7 9 3 31 -9 l38 -23 38 40 c29 30
39 49 39 73 0 25 3 29 12 20 7 -7 31 -12 53 -12 29 0 47 -6 60 -20 17 -19 18
-19 35 3 10 12 16 27 13 33 -5 15 45 26 123 28 35 0 68 7 77 15 9 7 24 10 33
7 9 -4 23 -1 31 6 12 9 19 6 37 -17 13 -16 28 -25 34 -21 7 4 14 -7 18 -30 5
-30 3 -40 -12 -52 -18 -14 -17 -14 6 -7 47 15 99 10 114 -10 12 -16 18 -17 39
-8 21 10 28 9 41 -6 13 -14 31 -17 103 -15 l87 2 34 -37 c110 -120 125 -132
159 -126 36 6 73 -8 73 -29 0 -8 7 -16 15 -20 8 -3 15 0 15 6 0 7 4 7 14 -1 9
-8 15 -8 18 -2 6 18 68 -29 68 -51 0 -28 38 -88 56 -88 8 0 14 -7 14 -15 0
-19 56 -21 63 -1 3 8 21 12 51 11 31 -1 46 3 46 11 0 20 51 54 81 54 19 0 30
6 34 20 3 11 13 20 21 20 16 0 20 45 4 55 -5 3 0 15 11 26 15 15 19 28 14 46
-7 30 26 68 51 59 8 -3 12 -2 9 3 -3 5 -1 13 5 16 23 14 -1 79 -43 117 -29 26
-37 38 -27 42 41 12 65 14 82 5 14 -7 18 -6 18 6 0 20 6 19 44 -10 35 -27 68
-31 112 -15 49 19 60 8 61 -70 0 -39 -3 -73 -8 -76 -5 -3 -2 -16 6 -28 13 -20
13 -24 2 -29 -18 -7 -3 -138 20 -174 13 -19 14 -26 4 -33 -20 -12 -3 -48 30
-65 27 -15 39 -35 20 -35 -4 0 -7 -18 -5 -40 2 -22 -1 -40 -7 -40 -17 0 55
-71 86 -84 44 -18 107 -27 99 -14 -4 6 -1 9 7 6 8 -2 19 -23 24 -45 10 -40 33
-78 43 -69 2 3 13 1 23 -5 24 -13 24 -44 0 -76 -20 -24 -20 -25 0 -56 23 -38
24 -47 4 -47 -8 0 -15 -9 -15 -20 0 -29 -22 -70 -37 -70 -8 0 -23 5 -34 10
-14 8 -19 7 -19 -1 0 -6 -7 -9 -14 -6 -10 4 -13 1 -10 -7 3 -8 1 -17 -5 -21
-6 -3 -11 -19 -11 -36 0 -16 -5 -29 -12 -30 -7 0 -3 -4 10 -10 20 -7 23 -15
21 -46 -2 -21 -7 -44 -13 -51 -6 -8 -9 -27 -8 -43 2 -21 -2 -29 -14 -29 -15 0
-73 -28 -84 -41 -3 -3 -20 -9 -39 -12 -29 -6 -32 -5 -26 11 3 9 7 21 8 25 1 5
-18 15 -43 24 -25 8 -52 21 -60 29 -8 7 -25 22 -37 34 -28 24 -33 25 -33 4 0
-9 -6 -14 -12 -11 -7 2 -13 9 -13 16 0 34 -83 43 -103 11 -7 -11 -21 -20 -32
-20 -12 0 -20 -7 -20 -18 0 -9 -9 -23 -20 -30 -27 -17 -25 -25 10 -45 26 -16
29 -23 27 -59 -2 -31 -10 -46 -32 -64 -16 -13 -26 -26 -22 -30 3 -4 -5 -15
-18 -26 -23 -18 -23 -20 -9 -55 11 -24 12 -38 5 -42 -7 -5 -4 -20 9 -46 25
-49 25 -62 -1 -75 -15 -9 -19 -18 -15 -35 10 -37 -3 -55 -38 -55 -18 0 -37 5
-43 11 -9 9 -19 6 -40 -8 -45 -32 -110 -44 -153 -29 l-37 13 -31 -61 c-28 -55
-72 -102 -72 -76 0 16 -17 12 -24 -6 -8 -21 11 -44 36 -44 10 0 17 -4 14 -9
-10 -16 6 -42 31 -52 13 -5 29 -22 34 -38 9 -26 66 -81 84 -81 4 0 19 -9 35
-20 15 -11 30 -17 33 -13 4 3 19 0 35 -6 21 -9 31 -22 38 -49 10 -41 53 -72
66 -48 6 10 17 11 53 3 25 -6 45 -15 45 -20 0 -5 7 -3 16 4 14 11 19 9 35 -11
10 -14 19 -33 19 -43 0 -11 5 -15 11 -11 8 4 9 -3 5 -24 -5 -22 1 -45 23 -92
17 -34 30 -65 29 -69 -7 -35 46 -107 61 -82 6 10 19 8 63 -6 44 -15 60 -17 83
-7 32 13 114 1 130 -19 10 -11 64 -13 112 -2 12 3 25 14 28 25 6 18 9 19 40 6
39 -16 100 -15 133 3 23 12 105 17 182 9 107 -11 172 -54 167 -112 -2 -29 1
-31 46 -39 36 -7 52 -6 69 5 26 17 113 6 140 -18 9 -9 19 -11 22 -6 3 5 33 4
72 -4 73 -13 120 -3 109 24 -4 10 -1 12 12 7 10 -5 32 -9 50 -11 17 -1 36 -5
41 -8 5 -3 15 1 22 9 7 8 22 15 34 15 45 0 66 12 66 36 0 16 8 28 24 35 23 11
43 52 36 74 -2 6 -4 21 -5 35 -4 39 -4 40 -20 40 -8 0 -15 4 -15 9 0 5 -3 17
-6 25 -5 14 -1 16 33 10 36 -5 41 -4 46 16 3 12 10 19 16 16 15 -9 24 50 11
74 -6 12 -9 28 -6 35 2 7 -2 19 -10 26 -10 8 -12 14 -4 19 16 10 1 60 -19 67
-9 2 -24 9 -33 14 -10 5 -23 9 -29 9 -6 0 -27 14 -46 30 -33 30 -53 37 -67 23
-3 -4 -13 -8 -21 -9 -11 -2 -12 3 -4 23 11 31 11 33 -2 33 -5 0 -8 -4 -5 -9
14 -23 -44 -5 -79 25 -36 30 -38 34 -20 40 11 4 23 12 26 17 10 14 29 -1 29
-23 0 -41 138 -66 160 -29 5 8 15 9 26 4 11 -5 30 -9 43 -9 13 -1 32 -12 43
-27 17 -22 18 -30 8 -48 -15 -29 16 -95 65 -140 19 -17 35 -35 35 -39 0 -4 9
-8 19 -9 27 -2 33 22 10 43 -10 9 -19 14 -19 11 0 -4 -9 1 -20 10 -23 20 -26
33 -7 33 7 0 17 8 24 19 12 19 56 23 82 7 6 -4 23 -1 36 8 23 15 24 14 41 -27
10 -23 20 -45 22 -49 8 -15 -39 -18 -60 -4 -31 22 -38 20 -38 -9 0 -18 4 -23
15 -19 17 7 21 -21 5 -31 -5 -3 -10 -1 -10 5 0 6 -10 3 -23 -6 -19 -15 -23
-28 -25 -76 -2 -48 0 -58 14 -58 11 0 15 -6 11 -20 -3 -10 1 -24 9 -31 10 -8
14 -8 14 0 0 6 4 11 9 11 6 0 9 -20 7 -45 -2 -31 2 -46 12 -50 9 -3 12 -13 9
-26 -4 -16 1 -21 24 -26 16 -3 32 -9 35 -14 2 -4 11 -6 18 -3 8 3 16 -5 20
-20 4 -17 13 -26 26 -26 11 0 21 -3 21 -7 1 -5 3 -18 4 -31 1 -12 5 -25 8 -29
4 -3 1 -15 -4 -26 -7 -12 -7 -22 -2 -26 5 -3 15 -15 21 -26 11 -20 11 -20 12
2 0 12 5 25 10 28 6 3 10 17 10 31 0 13 4 24 8 24 5 0 14 10 20 23 9 19 11 15
11 -30 1 -53 17 -82 23 -41 3 26 36 37 49 16 6 -9 9 -7 9 10 0 12 4 22 8 22
15 0 49 -44 56 -72 3 -16 11 -28 16 -28 6 0 10 -16 10 -35 0 -19 4 -35 9 -35
5 0 16 -12 26 -26 9 -15 13 -24 7 -20 -6 4 -8 -8 -5 -34 5 -38 4 -40 -21 -40
-14 0 -26 -5 -26 -10 0 -7 -6 -7 -19 0 -14 7 -22 7 -26 0 -5 -8 -11 -7 -21 1
-12 10 -18 8 -30 -10 -9 -12 -25 -30 -36 -40 -16 -16 -18 -23 -9 -40 10 -18 9
-21 -7 -21 -10 0 -23 5 -29 11 -15 15 -33 2 -27 -19 4 -13 1 -12 -13 4 l-19
22 -48 -23 c-26 -13 -58 -33 -71 -45 -15 -14 -30 -20 -40 -16 -9 3 -26 -1 -38
-9 -12 -8 -31 -15 -42 -15 -29 0 -136 -105 -129 -125 4 -8 1 -15 -5 -15 -11 0
-36 -48 -33 -63 10 -42 3 -91 -13 -103 -10 -8 -16 -17 -12 -20 10 -11 -21 -34
-37 -28 -9 3 -23 -2 -32 -11 -15 -14 -15 -22 -6 -48 11 -32 7 -72 -10 -93 -12
-16 64 -64 101 -64 23 0 30 -5 33 -22 2 -15 10 -23 23 -24 49 -3 53 -6 36 -33
-8 -12 -15 -13 -34 -4 -22 10 -26 9 -31 -10 -3 -12 -6 -41 -6 -64 0 -51 -56
-156 -80 -150 -10 3 -15 -4 -15 -20 0 -12 3 -23 7 -23 3 0 11 -13 16 -28 9
-26 7 -31 -18 -45 -15 -10 -35 -17 -43 -17 -17 0 -32 -34 -28 -62 1 -11 -4
-18 -14 -18 -8 0 -18 -7 -21 -15 -4 -8 -17 -15 -30 -15 -17 0 -22 -4 -18 -15
4 -8 12 -15 18 -15 7 0 25 -13 41 -30 16 -16 34 -30 39 -30 6 0 24 -7 40 -15
16 -9 47 -15 68 -13 27 1 44 -4 61 -20 13 -12 27 -19 31 -15 4 4 11 1 16 -7 8
-12 10 -12 10 -1 0 8 8 19 17 26 15 11 15 17 5 40 -11 24 -11 26 8 20 25 -8
62 3 55 16 -4 5 4 13 17 18 13 5 36 22 52 37 23 22 32 25 45 16 9 -7 27 -17
41 -23 21 -9 27 -7 39 10 16 26 48 27 74 3 19 -16 20 -16 15 5 -7 27 -1 29 22
8 8 -8 25 -12 37 -9 18 5 20 11 15 50 -3 26 -1 44 6 44 5 0 13 25 17 55 5 45
10 55 25 55 11 0 24 9 30 20 6 10 16 17 24 14 7 -3 19 2 26 11 7 8 24 15 37
15 14 0 36 9 50 20 14 11 35 20 47 20 11 0 34 12 50 26 23 21 27 30 22 56 -5
26 -4 29 9 18 12 -10 18 -10 30 0 26 22 65 98 65 128 0 26 5 31 30 37 30 7 34
14 30 67 -1 18 10 41 29 66 17 21 37 58 44 82 11 36 17 44 33 42 10 -2 31 -5
46 -5 15 -1 35 -9 45 -17 16 -14 21 -14 49 2 32 19 51 67 37 92 -3 6 3 3 14
-6 24 -22 70 -24 70 -3 0 8 -4 15 -8 15 -3 0 -9 8 -12 18 -2 9 -8 25 -12 36
-7 16 -6 17 13 7 11 -6 24 -11 27 -11 3 0 4 31 1 70 -3 40 -1 72 4 75 26 16 7
30 -37 28 -53 -1 -91 21 -85 50 5 23 -25 57 -44 50 -21 -8 -17 17 11 61 18 30
21 44 14 58 -8 14 -6 18 7 18 12 0 15 6 11 26 -3 18 1 29 14 37 11 7 19 17 19
24 0 7 7 16 16 21 9 5 14 18 12 32 -2 17 -10 23 -33 25 -30 2 -95 30 -95 41 0
2 9 23 21 45 14 28 18 50 14 70 -4 18 -2 36 5 44 9 11 7 21 -10 45 -12 16 -28
30 -35 30 -32 0 -65 23 -60 41 3 10 -1 32 -10 49 -15 30 -15 32 2 36 23 6 56
79 48 105 -5 15 -1 19 19 19 30 0 32 5 11 26 -8 9 -15 19 -15 23 0 11 68 33
80 26 5 -3 10 1 10 9 0 21 66 -22 74 -49 3 -10 8 -16 12 -12 4 4 13 2 21 -4 9
-8 17 -8 26 -1 10 8 19 4 37 -19 39 -48 45 -54 99 -89 37 -23 65 -33 96 -34
24 0 47 -4 51 -8 4 -4 14 -2 22 4 11 10 17 8 28 -7 13 -18 15 -18 31 -3 15 16
13 18 -21 39 -27 16 -34 24 -24 30 7 5 14 13 14 19 1 5 3 12 4 15 4 8 7 24 9
40 0 8 7 15 15 15 23 0 37 24 23 40 -10 10 -8 12 11 7 12 -3 22 -1 22 4 0 5 9
9 20 9 11 0 20 5 20 12 0 6 -3 8 -7 5 -3 -4 -17 3 -30 15 -22 21 -24 21 -58 5
-19 -9 -35 -22 -35 -27 0 -6 -4 -8 -10 -5 -17 10 -12 48 5 42 17 -7 26 5 34
46 5 23 15 33 41 42 22 8 30 14 21 19 -9 6 -9 11 -1 21 7 8 9 23 5 34 -3 10
-6 44 -6 74 -1 41 -5 57 -16 59 -8 2 -21 18 -28 36 -13 30 -13 32 7 32 16 0
19 4 14 23 -22 75 -21 80 34 105 29 13 64 22 78 21 15 -2 32 0 38 4 6 3 19 -2
29 -13 20 -22 45 -16 45 11 0 10 6 19 14 19 8 0 17 11 20 25 4 16 11 22 21 19
20 -8 20 20 0 36 -20 17 -19 38 3 36 11 -1 17 6 17 21 0 28 7 34 44 35 24 1
31 6 31 20 0 11 9 22 20 25 11 3 20 11 20 17 0 7 18 29 39 50 22 22 37 45 34
52 -3 8 1 14 10 14 19 0 29 64 14 97 -9 21 -8 27 6 38 21 15 21 18 3 58 -39
92 -38 88 -14 116 13 14 27 29 32 32 5 4 1 17 -8 30 -9 13 -16 34 -16 46 0 20
3 21 25 13 32 -12 51 -4 60 23 4 14 8 17 12 10 2 -7 9 -13 14 -13 6 0 8 4 5 8
-3 4 11 16 30 27 19 10 34 23 34 29 0 5 11 21 24 35 33 36 37 65 9 69 -19 3
-21 8 -17 31 7 32 -12 75 -28 65 -7 -4 -6 -9 3 -15 16 -10 12 -14 -23 -23 -21
-5 -28 -2 -33 14 -9 30 -20 24 -23 -12 -2 -20 -14 -42 -32 -60 -17 -15 -30
-33 -30 -38 0 -6 -13 -10 -30 -10 -16 0 -30 -5 -30 -11 0 -6 -8 -8 -20 -4 -17
5 -19 3 -13 -27 9 -49 9 -120 -1 -143 -5 -11 -8 -26 -7 -32 1 -7 -3 -13 -9
-13 -12 0 -37 -24 -74 -73 -29 -38 -53 -46 -74 -25 -9 9 -12 8 -12 -5 0 -9 -7
-17 -16 -17 -10 0 -14 -6 -10 -15 4 -11 -2 -15 -20 -15 -14 0 -36 -11 -50 -25
-14 -14 -31 -25 -39 -25 -8 0 -17 -5 -20 -11 -5 -7 -13 -5 -25 6 -21 19 -55
13 -64 -11 -4 -11 -10 -12 -25 -5 -10 6 -21 8 -24 4 -3 -3 -20 0 -37 6 -25 8
-36 7 -55 -5 -22 -14 -25 -14 -52 21 -15 19 -43 44 -61 55 -29 18 -36 18 -60
6 -15 -7 -50 -17 -79 -21 -36 -5 -50 -11 -47 -20 4 -9 -5 -11 -32 -9 -20 1
-40 6 -44 11 -12 14 -31 93 -25 103 4 6 -10 33 -29 60 -20 28 -36 56 -36 63 0
17 -65 67 -88 67 -11 0 -22 7 -26 15 -3 9 1 15 11 15 12 0 14 7 10 35 -4 22
-2 35 5 35 6 0 -1 11 -16 25 -30 28 -46 31 -64 13 -8 -8 -15 -8 -25 0 -14 12
-58 96 -76 145 -7 19 -20 29 -40 33 -44 9 -72 84 -31 84 30 0 24 22 -14 47
-34 22 -34 22 -53 141 -3 18 0 39 7 47 7 8 9 26 6 43 -4 15 0 56 8 90 15 64
12 98 -11 120 -7 7 -13 20 -13 28 0 8 -7 14 -15 14 -10 0 -15 10 -15 28 0 26
8 35 73 83 19 14 25 25 19 33 -6 6 -13 26 -17 44 -4 20 -11 30 -18 26 -7 -3
-4 1 7 10 10 8 15 20 11 26 -4 6 -1 25 5 41 11 25 10 32 -2 47 -23 25 -33 63
-15 56 7 -2 20 2 27 11 10 11 16 13 26 4 18 -15 44 -4 44 19 0 10 6 24 13 31
8 10 8 12 0 7 -6 -3 -19 4 -27 16 -18 26 -21 68 -5 68 8 0 9 4 0 13 -9 11 -3
16 28 25 31 10 41 19 53 51 13 33 14 43 3 58 -14 18 -10 62 6 95 7 12 4 20 -7
26 -13 8 -14 12 -3 29 10 17 10 27 -3 54 -19 41 -48 110 -48 115 0 2 12 4 28
4 15 0 34 6 43 13 21 16 33 92 18 118 -8 15 -7 24 2 35 9 11 9 18 1 26 -17 17
-15 28 4 28 12 0 14 5 9 18 -15 35 -17 63 -5 77 9 10 9 15 1 15 -6 0 -11 7
-11 15 0 10 -10 15 -28 15 -33 0 -70 44 -76 88 -4 41 -24 72 -46 72 -34 0 -48
10 -43 31 7 27 -35 73 -53 58 -18 -15 -54 -1 -54 20 0 22 -29 63 -30 41 0 -15
-42 -40 -67 -40 -6 0 -24 -12 -38 -26 -19 -19 -31 -23 -47 -18 -13 4 -48 6
-80 6 -55 -1 -58 0 -58 23 0 15 -9 29 -21 36 -20 10 -21 9 -15 -14 4 -18 1
-27 -10 -31 -28 -11 -41 -6 -52 18 -9 21 -7 25 24 39 19 9 34 24 34 32 0 19
-44 65 -62 66 -59 2 -106 7 -120 14 -15 6 -18 2 -18 -19 0 -28 -10 -32 -42
-15 -19 10 -20 9 -14 -12 4 -13 11 -39 14 -57 4 -18 12 -32 17 -31 15 4 19
-31 5 -45 -8 -8 -15 -6 -25 8 -8 10 -12 23 -9 28 9 15 -29 45 -54 43 -12 -1
-28 -7 -34 -13 -17 -17 -48 -15 -70 5 -17 15 -18 15 -18 -4 0 -23 79 -95 97
-88 7 2 13 0 13 -5 0 -6 8 -10 19 -10 10 0 36 -7 57 -16 l39 -16 -25 -19 c-14
-10 -37 -27 -52 -39 -14 -11 -33 -20 -42 -20 -9 0 -16 -4 -16 -8 0 -14 -53
-35 -93 -37 -20 0 -42 -6 -48 -12 -7 -7 -26 -6 -63 2 -30 7 -65 11 -79 8 -13
-3 -28 0 -31 6 -4 6 -16 11 -26 11 -11 0 -24 9 -30 19 -14 27 -13 31 8 31 38
0 49 64 18 115 -25 42 -104 89 -122 74 -8 -6 -14 -18 -14 -25 0 -12 -4 -12
-19 -2 -11 7 -18 15 -15 19 2 4 -3 10 -12 13 -12 5 -6 12 27 29 23 13 44 29
47 37 3 13 2 13 -7 0 -14 -19 -14 -5 -1 20 8 15 5 22 -12 34 -12 9 -19 19 -15
22 4 4 2 13 -5 21 -6 7 -8 16 -5 19 3 4 -3 14 -14 23 -12 9 -22 31 -23 47 -2
17 -6 36 -10 42 -4 7 -2 12 3 12 17 0 13 40 -4 46 -8 4 -15 13 -15 22 0 13 -3
13 -19 -2 -12 -11 -27 -15 -40 -11 -14 4 -23 0 -31 -15 -12 -23 -23 -25 -42
-7 -17 15 -58 20 -58 6 0 -12 -37 -3 -59 15 -8 6 -24 9 -37 8 -18 -3 -29 4
-41 26 -21 36 -64 48 -96 27 -19 -12 -29 -12 -67 -1 -41 12 -45 16 -48 47 -5
62 -12 79 -32 79 -24 0 -35 -17 -35 -55 0 -23 -4 -29 -17 -27 -10 2 -18 -2
-18 -7 0 -6 -9 -15 -19 -20 -14 -8 -25 -6 -45 10 -14 11 -32 19 -39 16 -6 -2
-20 0 -30 5 -16 8 -18 7 -13 -10 5 -15 1 -22 -14 -27 -11 -3 -20 -10 -20 -15
0 -16 -49 12 -55 31 -6 18 -85 87 -85 74 0 -21 -30 22 -36 50 -4 24 -13 35
-30 39 -13 4 -24 12 -24 20 0 7 -11 18 -25 24 -14 6 -25 16 -25 22 0 5 -6 10
-14 10 -7 0 -24 8 -37 18 -41 31 -149 55 -149 33 0 -15 -80 -7 -89 8 -12 18
-41 7 -48 -19 -3 -11 -7 -20 -10 -20 -18 0 -65 35 -79 60 -25 41 -65 56 -112
42 -28 -9 -39 -9 -52 2 -8 7 -28 16 -44 20 -17 4 -44 22 -60 40 -46 47 -89 70
-120 62 -14 -3 -26 -13 -26 -22 0 -9 -7 -14 -18 -12 -10 1 -30 -7 -46 -19 -22
-18 -32 -20 -47 -12 -15 7 -19 6 -19 -6 0 -8 -5 -15 -10 -15 -6 0 -10 6 -8 13
3 13 -36 57 -51 57 -5 0 -14 7 -21 15 -9 11 -16 12 -25 5 -24 -20 -94 33 -95
71 0 9 -21 26 -46 39 -25 13 -51 31 -57 40 -15 19 -70 50 -90 50 -9 0 -24 11
-34 24 -11 13 -37 33 -59 44 -22 11 -46 28 -53 36 -8 9 -22 16 -32 16 -9 0
-28 15 -40 33 -12 17 -24 33 -25 35 -1 2 -11 -2 -23 -10 -16 -9 -23 -10 -32
-1 -8 8 -18 9 -31 2 -14 -8 -23 -5 -41 13 -33 33 -73 58 -93 58 -10 0 -26 7
-36 17 -17 15 -18 15 -18 -6 0 -21 -1 -22 -24 -4 -13 10 -29 30 -35 45 -14 31
-34 38 -29 11 1 -10 -1 -24 -5 -30 -4 -7 -3 -22 4 -34 8 -15 8 -19 0 -15 -6 4
-11 2 -11 -3 0 -6 -5 -11 -11 -11 -6 0 -9 7 -6 15 4 8 2 17 -4 21 -5 3 -9 14
-7 23 4 21 -19 51 -39 51 -7 0 -17 8 -20 18 -4 9 -14 27 -23 39 -16 21 -16 21
-29 1 -15 -24 -20 -20 -38 30 -34 91 -35 110 -6 81 13 -13 47 -4 39 10 -3 5 1
11 9 15 8 3 15 12 15 21 0 8 6 15 13 15 8 0 20 11 27 25 9 17 19 23 31 20 19
-6 49 28 49 57 0 10 9 27 20 38 19 19 19 23 6 55 -18 42 -11 68 14 60 12 -4
22 1 29 12 15 27 23 10 11 -22 -9 -23 -8 -31 6 -44 15 -15 16 -14 9 7 -4 13
-2 22 4 22 6 0 8 7 5 15 -4 10 -2 13 8 10 17 -7 71 19 61 29 -4 3 2 12 11 19
15 11 16 17 7 35 -11 20 -9 20 39 17 27 -2 52 0 55 6 4 5 15 9 26 9 11 0 17 5
14 10 -9 14 16 37 40 37 11 0 26 -9 35 -19 14 -17 19 -18 43 -7 19 9 26 18 22
30 -3 9 3 33 14 52 14 25 18 48 15 86 -2 29 1 51 6 51 6 0 10 5 10 11 0 5 -4
8 -9 5 -4 -3 -8 8 -7 24 1 25 3 27 17 14 21 -19 32 -18 47 7 10 15 20 19 37
15 15 -4 25 -1 29 9 3 8 10 14 15 13 15 -4 71 35 71 49 0 6 -4 15 -10 18 -5 3
-10 13 -10 21 0 8 5 12 11 9 13 -9 52 32 44 46 -4 5 5 19 19 30 15 11 23 26
19 32 -9 14 -13 119 -5 132 10 17 11 35 1 41 -5 3 -9 14 -9 26 0 11 -11 29
-25 40 -31 24 -31 40 -1 73 31 33 25 64 -6 36 -20 -20 -88 -33 -88 -18 0 4 -4
5 -10 2 -5 -3 -10 -19 -10 -36 0 -18 -5 -29 -14 -29 -8 0 -18 -9 -21 -20 -11
-34 -59 -26 -91 15 -20 27 -34 35 -58 35 -62 0 -76 9 -76 47 0 26 -5 36 -20
40 -11 3 -18 9 -15 13 3 4 -2 13 -10 20 -8 7 -15 18 -15 25 0 7 -7 15 -15 19
-17 6 -22 106 -5 106 21 0 -10 40 -36 46 -13 3 -28 14 -33 23 -11 19 -8 72 4
91 5 9 4 15 -3 18 -7 2 -12 10 -12 17 0 8 -9 19 -20 25 -22 12 -50 70 -50 104
0 12 -16 37 -35 56 -20 20 -33 41 -32 54 1 16 -9 26 -43 43 -25 12 -55 22 -66
23 -12 0 -27 7 -34 15 -7 8 -29 15 -49 15 -23 0 -31 3 -23 9 11 6 11 17 1 55
-8 32 -9 54 -2 69 16 34 4 55 -16 28 l-16 -21 -38 31 c-26 21 -37 38 -34 49 4
16 2 17 -27 5 -27 -12 -33 -11 -48 2 -11 10 -18 11 -18 5 0 -6 -6 -9 -14 -6
-7 3 -16 -2 -19 -10 -5 -12 -11 -13 -36 -3 -16 6 -28 15 -25 19 3 4 1 8 -4 8
-5 0 -15 13 -22 29 -6 16 -18 32 -27 35 -8 3 -11 11 -7 18 7 11 -10 9 -47 -6
-10 -4 -23 0 -33 9 -15 15 -17 15 -22 0z m-1896 -1401 c22 -15 22 -17 6 -35
-13 -14 -20 -16 -30 -8 -7 6 -17 8 -23 5 -11 -7 -25 29 -16 44 9 15 37 12 63
-6z m276 -94 c25 9 27 8 21 -12 -6 -17 -4 -20 9 -15 10 4 19 1 22 -8 4 -8 14
-15 24 -15 11 0 24 -13 32 -30 17 -40 59 -55 82 -29 9 11 14 24 11 30 -4 5 3
21 14 35 12 15 21 33 21 40 0 35 34 5 35 -31 0 -23 34 -33 46 -14 6 10 11 10
22 1 10 -9 12 -24 7 -58 -7 -45 -7 -46 26 -60 31 -13 33 -16 22 -39 -9 -19
-14 -22 -25 -14 -10 9 -13 7 -13 -10 0 -12 -6 -21 -14 -21 -8 0 -26 -11 -40
-24 -25 -23 -107 -42 -127 -30 -5 3 -9 1 -9 -5 0 -7 -8 -7 -26 -1 -37 14 -49
13 -34 -5 10 -12 10 -15 0 -15 -7 0 -10 -6 -7 -14 3 -8 3 -17 -1 -21 -4 -4 -8
-11 -8 -16 -1 -5 -2 -13 -3 -19 -2 -17 -19 -11 -24 8 -3 15 -5 15 -11 -3 -5
-11 -15 -34 -24 -52 -12 -25 -13 -35 -4 -46 10 -12 9 -16 -4 -21 -9 -3 -23 -1
-30 5 -8 6 -26 8 -44 4 -23 -5 -30 -3 -30 9 0 8 -8 23 -18 33 -17 17 -122 179
-122 188 0 2 15 7 34 11 28 5 35 11 38 33 2 14 -1 34 -6 43 -7 12 -5 22 7 36
9 10 17 30 17 44 0 21 4 24 29 20 21 -3 32 2 43 17 8 11 18 18 21 14 13 -12 7
43 -5 57 -11 12 -10 12 3 2 12 -9 24 -10 43 -2z m2726 -141 c0 -11 -40 -3 -53
11 -10 10 -9 12 6 7 12 -4 17 -1 17 10 0 14 2 14 15 -3 8 -10 15 -22 15 -25z
m-3096 -262 c29 -27 24 -42 -8 -25 -11 6 -23 10 -26 9 -2 -1 -7 7 -12 18 -10
29 14 28 46 -2z m2396 -619 c0 -13 -23 -5 -28 10 -2 7 2 10 12 6 9 -3 16 -11
16 -16z m2490 -1122 c0 -16 -18 -31 -27 -22 -8 8 5 36 17 36 5 0 10 -6 10 -14z
m1550 -415 c0 -5 -7 -17 -15 -25 -12 -12 -14 -20 -5 -36 12 -22 -3 -29 -17 -7
-11 18 -4 50 15 65 19 14 22 15 22 3z m-570 -271 c0 -5 -7 -10 -16 -10 -8 0
-12 5 -9 10 3 6 10 10 16 10 5 0 9 -4 9 -10z m-3834 -1125 c10 -8 14 -15 8
-15 -5 0 -19 7 -30 15 -10 8 -14 15 -8 15 5 0 19 -7 30 -15z m2065 -25 c4 0 6
-13 3 -29 -4 -16 -1 -32 5 -35 14 -9 15 -36 1 -36 -5 0 -10 9 -10 20 0 12 -6
20 -12 19 -28 -3 -38 2 -38 20 0 32 12 52 27 47 8 -3 19 -6 24 -6z m-207 -466
c9 -3 16 -15 16 -26 0 -17 -3 -18 -15 -8 -8 7 -25 10 -40 6 -20 -5 -25 -3 -25
14 0 21 30 27 64 14z m4744 -526 c-3 -7 -13 -15 -24 -17 -16 -3 -17 -1 -5 13
16 19 34 21 29 4z m-783 -1578 c-3 -5 -14 -10 -23 -10 -15 0 -15 2 -2 10 20
13 33 13 25 0z m-1137 -494 c8 -9 -27 -19 -43 -12 -25 9 -17 27 11 22 15 -3
29 -7 32 -10z"/>
<path d="M9306 14215 c-10 -8 -24 -16 -30 -18 -6 -3 -1 -15 13 -30 22 -25 25
-25 37 -9 7 9 17 18 23 18 6 1 16 2 21 3 19 2 10 21 -10 21 -11 0 -20 7 -20
15 0 19 -9 19 -34 0z"/>
<path d="M9470 14197 c0 -10 -6 -17 -12 -17 -9 0 -8 -3 2 -10 22 -13 5 -23
-19 -11 -16 9 -28 7 -56 -9 -20 -11 -51 -20 -70 -20 -38 0 -42 -8 -22 -41 10
-18 9 -23 -15 -43 -33 -26 -37 -62 -8 -71 25 -8 26 -24 3 -40 -14 -11 -15 -15
-4 -28 15 -19 7 -37 -17 -37 -12 0 -23 -17 -35 -55 -15 -47 -16 -59 -5 -83 7
-15 22 -28 34 -30 17 -2 55 -49 55 -67 -1 -8 18 -51 19 -45 1 3 4 27 7 53 4
38 1 52 -13 68 -10 11 -19 31 -19 45 -1 13 -10 33 -20 44 -18 19 -18 20 0 20
26 0 55 -29 48 -47 -5 -13 -1 -15 20 -9 15 3 27 2 27 -2 0 -5 18 -9 39 -9 32
0 40 4 45 21 3 11 1 23 -4 24 -6 2 -10 10 -10 17 0 10 9 12 35 8 23 -4 35 -2
35 6 0 6 -6 11 -12 11 -7 1 1 7 17 15 17 7 24 14 17 14 -13 1 -72 54 -72 64 0
3 11 8 25 11 33 8 34 54 1 93 -31 38 -46 67 -46 93 0 18 3 19 20 10 12 -6 20
-7 20 -1 0 5 7 16 15 24 12 13 12 17 -5 32 -18 16 -20 17 -20 2z"/>
<path d="M9538 13883 c6 -2 18 -2 25 0 6 3 1 5 -13 5 -14 0 -19 -2 -12 -5z"/>
<path d="M9106 13803 c-9 -31 -10 -98 -2 -111 4 -7 5 -16 2 -21 -6 -9 32 -28
52 -25 6 1 16 2 21 3 10 1 20 67 12 79 -4 4 -19 15 -36 24 -16 10 -29 22 -27
28 1 5 -3 10 -9 10 -8 0 -8 5 1 15 8 9 8 15 2 15 -6 0 -13 -8 -16 -17z"/>
<path d="M9220 13679 c0 -5 5 -7 10 -4 6 3 10 8 10 11 0 2 -4 4 -10 4 -5 0
-10 -5 -10 -11z"/>
<path d="M9097 12997 c-5 -15 -8 -28 -4 -25 1 1 12 -4 25 -11 27 -14 28 -7 3
25 -13 16 -20 20 -24 11z"/>
<path d="M11606 11436 c3 -8 -7 -18 -25 -26 -19 -8 -31 -20 -31 -31 0 -21 29
-26 48 -7 8 8 15 8 24 0 8 -7 19 -7 28 -2 8 5 18 6 22 4 14 -9 9 5 -14 41 -22
33 -63 50 -52 21z"/>
<path d="M11581 11278 c-21 -18 -25 -19 -32 -5 -7 12 -13 13 -34 4 -14 -7 -25
-16 -25 -21 0 -5 -6 -3 -14 3 -10 9 -16 9 -21 1 -5 -8 -12 -7 -23 2 -9 7 -4
-2 11 -21 15 -18 36 -50 46 -70 11 -20 29 -45 41 -56 l22 -20 20 25 c18 22 21
23 29 7 6 -10 14 -15 19 -12 5 3 19 1 30 -5 16 -9 20 -8 20 5 0 13 4 14 20 5
11 -6 20 -9 20 -8 0 2 -4 18 -9 36 -8 25 -7 32 5 32 17 0 17 2 2 35 -12 27
-28 31 -58 15 -18 -9 -20 -6 -26 30 -8 46 -12 48 -43 18z"/>
<path d="M11696 11015 c-35 -10 -39 -14 -41 -48 -1 -29 2 -37 15 -37 22 0 36
-17 45 -52 4 -15 14 -29 22 -32 12 -5 13 -15 7 -49 -12 -69 -11 -96 2 -101 7
-3 10 -14 7 -25 -3 -14 -1 -21 8 -21 8 0 20 -9 27 -21 12 -18 20 -20 70 -16
74 6 81 8 119 36 35 26 34 36 -8 80 -21 23 -35 81 -19 81 15 0 18 39 4 51 -19
15 -18 29 2 29 14 0 14 2 3 16 -8 9 -14 22 -15 28 -3 34 -4 34 -38 24 -30 -9
-38 -8 -67 14 -19 14 -40 23 -47 21 -7 -3 -23 4 -35 14 -19 17 -27 18 -61 8z"/>
<path d="M11654 10842 c11 -12 19 -13 27 -5 7 7 3 12 -16 15 -25 5 -25 4 -11
-10z"/>
<path d="M6627 10569 c-4 -15 0 -19 19 -19 29 0 31 11 5 27 -16 10 -20 9 -24
-8z"/>
<path d="M10357 8934 c6 -15 23 -19 23 -5 0 5 -7 11 -14 14 -10 4 -13 1 -9 -9z"/>
<path d="M13480 7865 c0 -26 -2 -27 -37 -22 -21 3 -47 2 -58 -3 -18 -7 -16 -9
15 -23 29 -13 37 -14 46 -2 5 7 24 17 41 22 l31 8 -19 24 -19 23 0 -27z"/>
<path d="M13884 6633 c4 -9 1 -21 -6 -26 -9 -6 -8 -7 5 -3 10 3 26 6 34 6 12
0 13 3 4 13 -6 8 -8 17 -4 20 3 4 -4 7 -16 7 -18 0 -22 -4 -17 -17z"/>
<path d="M11865 5304 c9 -50 11 -53 34 -47 25 6 16 43 -11 43 -14 0 -18 5 -15
15 4 8 1 17 -5 21 -7 5 -9 -5 -3 -32z"/>
<path d="M13275 5310 c-3 -5 -1 -10 4 -10 6 0 11 5 11 10 0 6 -2 10 -4 10 -3
0 -8 -4 -11 -10z"/>
<path d="M12560 4509 c0 -5 -7 -9 -16 -9 -9 0 -14 -6 -11 -12 2 -7 15 -13 28
-13 13 0 29 -3 34 -6 6 -3 21 0 33 6 27 14 23 19 -30 33 -23 6 -38 7 -38 1z"/>
<path d="M12488 4442 c-19 -4 -23 -28 -9 -51 10 -16 41 -8 40 11 -1 27 -15 44
-31 40z"/>
<path d="M12433 4314 c-18 -20 -30 -40 -28 -44 3 -5 7 -26 10 -49 5 -36 3 -41
-15 -41 -11 0 -20 -7 -20 -15 0 -9 -6 -15 -12 -14 -7 2 -30 -8 -51 -20 -39
-24 -39 -41 2 -44 11 -1 24 -9 27 -19 7 -22 53 -60 65 -53 9 6 48 -65 43 -80
-3 -10 59 -55 75 -55 4 0 14 -12 22 -26 12 -24 12 -28 -8 -44 -12 -10 -20 -20
-16 -23 3 -4 7 -20 9 -38 2 -17 11 -37 20 -44 16 -11 16 -12 0 -18 -18 -7 -16
-27 4 -69 12 -25 34 -40 28 -19 -2 4 7 17 18 27 19 17 20 22 8 44 -11 20 -14
21 -14 7 0 -10 -4 -16 -9 -13 -5 4 -11 0 -14 -6 -2 -7 -7 -10 -11 -7 -4 4 0
14 9 22 17 18 20 48 4 45 -6 -2 -13 2 -16 8 -3 8 10 10 43 6 43 -5 47 -3 41
14 -7 18 -6 18 8 -1 20 -26 14 -41 -16 -37 l-24 4 22 -21 c24 -22 38 -28 28
-11 -4 6 -1 18 6 26 6 8 9 17 6 21 -10 9 12 43 28 43 24 0 39 42 36 99 -2 37
0 51 8 47 7 -5 11 2 11 19 0 26 -45 79 -60 70 -13 -8 -49 25 -44 40 4 10 0 15
-11 15 -9 0 -30 14 -46 31 -23 25 -36 30 -71 30 -24 0 -51 3 -60 5 -20 6 -13
34 8 34 8 0 14 7 14 15 0 8 5 15 11 15 7 0 8 19 5 55 -6 53 -23 105 -35 105
-3 0 -21 -16 -38 -36z m147 -550 c0 -8 -4 -12 -10 -9 -5 3 -10 10 -10 16 0 5
5 9 10 9 6 0 10 -7 10 -16z m40 -17 c0 -5 -4 -5 -10 -2 -5 3 -10 14 -10 23 0
15 2 15 10 2 5 -8 10 -19 10 -23z"/>
<path d="M12690 3741 c0 -6 5 -13 10 -16 6 -3 10 1 10 9 0 9 -4 16 -10 16 -5
0 -10 -4 -10 -9z"/>
</g>
</svg>
