<svg version="1" xmlns="http://www.w3.org/2000/svg" width="1029.126" height="846.583" viewBox="0 0 771.844 634.937"><g fill="#222"><path d="M209.7 2.2c.3 1.3.1 2.3-.4 2.3-1.3 0-4.5 3-5.9 5.5-.8 1.5-2.3 2-5.5 2.2-2.4 0-5.7.6-7.3 1.2-2.8 1.1-2.8 1.2-1 2.9 1.4 1.3 2.8 1.6 5.9 1.2 4.8-.6 11.5.9 13.8 3.2 2.1 2.1 2.2 3.8.2 3.8-.8 0-1.5.9-1.5 2s-.7 2.3-1.5 2.6c-.8.4-1.5 1.5-1.5 2.6 0 1.6.5 1.9 2.4 1.4 3-.7 5.8 2 3.5 3.5-.8.5-2.1.9-3 .9-1.2 0-1.5.7-1.2 2.4.3 1.3 0 2.7-.6 3-.6.4-1.1 1.6-1.1 2.7 0 1-.4 1.9-1 1.9-.5 0-1.9.8-2.9 1.7-1.1 1-2.6 2.3-3.3 3-2.5 2.3-3.9 4.3-3.7 5.6.4 3-.3 4.8-2.8 7.5-2.2 2.3-8.4 6.2-9.8 6.2-.4 0-1.7-4.4-1.6-5.3.1-.4-.6-1-1.4-1.3-1-.4-1.5-1.9-1.5-4.4 0-3-.6-4.4-2.9-6.3-1.6-1.3-3.8-4.2-5-6.4-1.1-2.2-2.7-4.3-3.4-4.6-.9-.3-1.3-1.5-1-2.9.3-1.5-.3-3.3-1.6-4.8-1.1-1.4-2-1.9-2.1-1.3 0 .7-.7 1.3-1.5 1.3s-1.5.6-1.5 1.3c0 1.9-3.9 5.3-7.8 7l-3.2 1.3 3.5 1.7c2 1 3.3 2.1 3 2.7-.3.5 1 1.6 3 2.6 1.9.9 3.5 2.3 3.5 3 0 .8.5 1.4 1 1.4.6 0 1 .7 1 1.6 0 1-.6 1.4-1.5 1-2.2-.8-4.5.3-3.8 2 .3.8-.1 1.4-1.1 1.4-1.9 0-2 .5-.6 3.1.7 1.3.7 1.9 0 1.9-.5 0-1 .8-1 1.8 0 1.1-.9 2.7-2 3.7-2.6 2.3-2.5 4.6.1 6.8 2.4 2.1 2.1 4.1-.9 4.5-1.2.2-2 .8-1.7 1.3.4.5-.3.9-1.4.9-1.1 0-2.3-.5-2.7-1.1-.4-.7-2.2-.9-4.5-.6-2.2.3-3.9.1-3.9-.3s-1.3-1.3-3-1.9c-1.6-.5-3-1.6-3-2.4 0-.8-1-1.8-2.3-2.4-3.1-1.5-6.1-7.8-5.8-12.3.1-1.8-.3-2.6-1.6-2.8-1-.1-3.5-.4-5.5-.8-3.4-.5-3.9-.3-4.9 2-.7 1.4-1.6 2.6-2.1 2.6s-.6.5-.2 1.1c.4.7-.3 1.9-1.5 2.8-1.8 1.4-2 2.1-1.2 4.9.8 2.6.7 3.4-.4 3.8-1.4.6-9.5-5.2-9.5-6.8 0-.5-2.1-3-4.7-5.6-2.7-2.6-4.7-5.2-4.5-5.9.2-.8-.7-1.3-2-1.3-1.3-.1-3.4-.7-4.8-1.5-2.9-1.7-4.4-1.9-3.5-.6.9 1.5-1.5 2.4-3 1.1-1.2-1-1.5-.6-2.1 1.7-.4 1.5-1.4 3.6-2.2 4.6-1.3 1.5-1.4 2.1-.4 3.5 2.2 3.1 2.5 4.4 1.5 6.2-1.2 1.7-.6 7.1.8 8.1.5.3.5 1.9 0 3.6-.8 2.7-.6 3.5 1.5 5.4 1.3 1.2 2.4 3.3 2.4 4.5 0 1.2.7 2.9 1.5 3.8.8.8 1.5 1.8 1.5 2.1 0 1.8 4.3 6.5 5.9 6.5 1 0 2.4.7 3.1 1.5.7.8 1.6 1.3 2 1 .5-.3 1.1-.1 1.4.4.4.5 2.5 1.2 4.9 1.6 2.3.4 6.5 1.8 9.2 3 2.8 1.3 6.7 2.7 8.8 3 2.1.4 4.4 1.4 5.2 2.1 2.7 2.7 17 10.7 18.9 10.6 1.1 0 3.2.6 4.7 1.5 2.2 1.3 2.7 2.2 2.3 4.2-.4 2.1.2 3 3.1 4.9 1.9 1.2 3.5 3 3.5 4 0 2.3 5.5 10.8 8.3 12.7 1.7 1.2 2.1 2.6 2.1 7.2.1 4.7.4 5.8 1.8 6.1 1.2.2 1.6-.1 1.2-1.1-.3-.8-.1-1.8.5-2.2.6-.3 1.1.1 1.1.9 0 2.4 3.2 5.7 4.4 4.6.7-.5 1.7-.4 2.7.3 2 1.5 3 5.5 1.5 6-.8.3-.8.8.1 1.7.9 1 1.3.4 1.9-2.5.5-3 .3-4-1-4.7-1.4-.8-1.5-1.3-.5-2.4.6-.8 1.6-1.4 2.2-1.4.6 0 2.1-1 3.3-2.1 1.7-1.6 2.1-2.6 1.4-3.8-.7-1.5 1.3-13.8 2.6-15 .2-.2 1 .2 1.9.9 1.2 1 2.7 1 7.4 0 4.3-.9 6.4-.9 7.9-.1 2.9 1.5 4.2 1.4 4.2-.5 0-.9 1.1-2.5 2.5-3.6 2.1-1.6 2.3-2.3 1.4-4-1-1.9-.9-2 2.2-1.5 1.9.4 5.3.8 7.7 1 3.8.3 4.3.1 3.9-1.5-.4-1.4-.1-1.7 1.8-1.2 2.7.7 6.5-1.1 6.5-3.1 0-.7.9-1.7 2.1-2 2.8-.9 8.9-6.4 8.9-8 0-2.3 1.8-2.7 5.1-1 2.7 1.5 3.2 1.5 4.2.2.7-.9 2.1-1.7 3.2-1.9 1.1-.2 2.9-1.8 4-3.5 1.1-1.8 2.7-3.2 3.6-3.3.9 0 1.9-.8 2.3-1.8 2.2-6 2.4-7.2 1.3-7.2-.8 0-.8-.3 0-1.1.9-.9.8-1.8-.4-3.6-.9-1.3-1.2-2.7-.9-3.1.4-.4 3.8-1 7.4-1.3 14.1-1.4 14.4-1.6 17.1-7.3 1.4-2.8 2.4-5.9 2.3-6.9-.1-1.2.4-1.7 1.5-1.5 1 .2 1.9-.5 2.1-1.6.2-1 1.7-3.7 3.3-5.9 1.6-2.2 2.9-4.6 2.9-5.3 0-1.5 6.1-6.4 8-6.4.9 0 1.1-1 .7-3.5-.3-2.1-.2-3.3.3-3 .6.4.7-.2.3-1.1-.5-1.3-.3-1.6 1-1.1 1.1.4 1.7.1 1.7-.8 0-.8.7-1.5 1.5-1.5.9 0 1.2-.6.9-1.5-.5-1.2.2-1.5 3-1.5 2.6 0 3.6-.4 3.6-1.5 0-.9.6-1.8 1.4-2.1.8-.3 1.4-2.1 1.4-4.6.1-2.2.6-4.6 1.1-5.1 1.7-1.7 1.3-3-.5-2.3-1 .4-2.5-.1-3.5-1-1.1-1-1.9-1.2-1.9-.6 0 .7-.5 1.2-1.1 1.2-.6 0-1.9 1-2.9 2.2-1.6 2-2.1 2.1-4 1-2.2-1.4-4.1-.8-3.9 1.1.1.7.1 2.4 0 3.8-.1 2.2-.6 2.7-2.6 2.5-1.4 0-2.5-.4-2.5-.7 0-1.1-4.4-2.2-8.2-2-2.8.2-3.6-.1-3.4-1.3.1-.8.5-1.8.8-2.1.3-.3-.2-2.1-1-4-1.6-3.4-7.1-6.4-12.4-6.7-1.3-.1-3.6-1.3-5.2-2.6-2.1-1.7-3.9-2.3-6.2-2-2.6.3-3.5-.1-4.3-1.9-1.1-2.3-6.1-3.4-6.1-1.3 0 1.7-2.9 1.1-4.7-.9-4.7-5-6.5-7.6-7-10.2-.7-3.7-3.3-4.6-5.5-2-2.1 2.7-3.4 2.6-7-.4-1.6-1.4-3.7-2.6-4.6-2.6-4.7-.4-6-.8-8.5-2.4-2.6-1.7-3.3-1.3-2.8 1.7.3 1.9-5.8.7-7.2-1.5L209.1 0l.6 2.2zm7.1 5.6c.8.9.6 1.9-.7 3.5-1.6 2.2-1.8 2.3-3.2.6-1-1.3-1.1-1.8-.2-2.1.7-.2.9-1.1.6-1.9-.7-1.8 2-1.9 3.5-.1zm-85.3 76.5c-.3.3-1.1 0-1.8-.7-.9-1-.8-1.1.6-.5 1 .3 1.5.9 1.2 1.2zm12.3 17.3c.2 1.2-.6 1.8-3.2 2.1-3.2.4-3.6.2-3.6-2 0-2 .4-2.3 3.2-2 2.1.2 3.4.9 3.6 1.9zm30.6 0c-.6 1.1-2.4.2-2.4-1.1 0-.5.7-.7 1.5-.4.8.4 1.2 1 .9 1.5zm-31.4 3.9c0 .5-.2 1-.4 1-.3 0-.8-.5-1.1-1-.3-.6-.1-1 .4-1 .6 0 1.1.4 1.1 1zm31 47.1c0 .6-.4.7-1 .4-.5-.3-1-1.1-1-1.6 0-.6.5-.7 1-.4.6.3 1 1.1 1 1.6z"/><path d="M179 4.4c0 .5.4 1.2 1 1.6 1.6 1-1.1 5.4-4.2 6.7-2 .9-2.8 2-2.8 3.8 0 3.1-5.6 8.5-8.3 8.1-1-.1-2.4.5-3 1.3-1.1 1.5-1.4 1.5-3.6-.1-1.4-.9-3.5-1.7-4.8-1.8-2.1-.1-1.8.5 2.4 4.2 3.6 3.2 5 4 6 3.2.7-.7 1.3-2 1.3-3 0-2.4 1.8-3.3 3.5-1.9 1.2 1 2.1.6 4.6-2.3 1.8-2 3.7-3.3 4.5-3 .8.3 1.4 0 1.4-.6s.6-1.1 1.4-1.1c.7 0 2.5-1.1 4-2.5s3.2-2.5 3.9-2.5c.8 0 .8-.3-.1-1.2-1.6-1.6-1.5-2.9.1-2.6.6.2 1.2-.3 1.1-1-.3-3.7-.5-4.1-1.9-3.6-.8.4-2.6-.1-4-1s-2.5-1.2-2.5-.7zM122.3 10.8c.3.9.1 1.8-.6 2-.9.3-.8.8.2 2 .9 1.1 1 1.7.2 1.7-.6 0-1.1.8-1.1 1.8 0 2.5-4.5 6.6-6.2 5.7-1-.6-1.1-.5 0 .6 1.6 1.8 1.5 6.1-.3 8.5-.8 1-1.5 2.9-1.5 4 0 2.6-2.4 4.8-4.4 4.1-1.6-.6-4.9 2.5-5.2 4.9-.4 2.7-1.4 2.9-3.6.6-1.9-1.8-2-2.3-.7-3.8.9-1.1.2-.9-1.8.6-1.8 1.3-3.3 2.8-3.3 3.4 0 .5-.3.6-.7.3-.3-.4-1.2-.2-1.9.4-1 .8-1 1.5-.2 2.9.9 1.4.9 2.2-.1 3.3-.9 1.1-.9 1.7-.1 2.2.8.5.6 1.2-.5 2.5-.8.9-1.3 2.4-1 3.3.9 2.2 5.3 2.7 7.2.8.9-.8 2.6-1.6 3.8-1.6 3-.2 4.5-1.3 3.8-3-.6-1.6 1.7-2.1 3.3-.6.5.5 2.6 1.2 4.7 1.5 3.3.6 3.7.5 3.7-1.3 0-1.5.5-1.9 1.7-1.4s1.5.2 1-1-.1-1.7 1.3-1.7c2.5 0 3.2-2.7 2-7-.6-1.9-1-3.6-1-3.8 0-.1 1.5-.2 3.3-.2 1.7.1 4.4-.2 5.8-.5 1.8-.5 3.3 0 5.5 1.7 2.5 2.1 3.3 2.3 5.9 1.3 1.7-.6 3.1-1.7 3.3-2.5.2-.8 1-1.9 1.8-2.3.8-.4 1.4-1.3 1.4-1.9 0-.6-.3-.8-.7-.5-1.5 1.5-3.3-1.8-3.3-6 0-3.7.4-4.6 2-5 1.2-.3 1.9-1.1 1.6-1.7-.2-.6-1-3.7-1.7-6.9-.7-3.1-1.5-5.7-1.9-5.7-.3 0-1.8.7-3.4 1.5-2.6 1.4-3.1 1.4-4.6 0-2-1.9-3.7-2-2.1-.2.8 1 .7 1.9-.4 3.3-.8 1-1.5 2.9-1.5 4.1 0 2.8-1 2.9-3.3.3-.9-1.1-1.4-2-1-2 .3 0-.2-.9-1.2-2-1.8-2-1.4-5.6.6-4.4.7.4 1 .1.7-.7-.3-.8-1.1-1.4-1.9-1.4-.8 0-2-.5-2.8-.9-1.1-.7-1.3-.5-.8.7zM146 10.5c0 .5.7 1 1.6 1 .8 0 1.2-.5.9-1-.3-.6-1-1-1.6-1-.5 0-.9.4-.9 1zM63.6 28.4c-.3.5.1 1.2 1 1.5 2.5 1 3.4.7 2.8-.9-.7-1.7-3-2-3.8-.6zM324 29.1c0 .8.5 1.2 1 .9.6-.4.8-1.1.5-1.6-.9-1.4-1.5-1.1-1.5.7zM71.3 31c-.7.8-1 2-.8 2.8.3.7-.1 2.7-1 4.3-.8 1.6-1.5 3.5-1.5 4.3 0 1-.9 1.2-3.6.8-3.5-.6-3.5-.5-2.9 2.3.3 1.5.2 3.1-.3 3.4-2.7 1.7 3.4 8.6 7.6 8.6 2 0 6-4.2 4.5-4.7-1-.4-.9-1.1.2-3.3.8-1.6 1.5-3.5 1.5-4.3 0-.8.6-2 1.4-2.6 1.9-1.6 1.4-7.2-1-10.4-2.2-3-2.5-3.1-4.1-1.2zM25 34c0 2.5-.4 3.4-1.2 2.9-.8-.5-.9.5-.5 3.5.4 3.4.2 4.4-1.3 5.4-1.5.9-1.6 1.4-.8 2.5.9 1 .8 1.6-.1 2.2-.8.4-1.1 1.3-.7 1.8.4.6-.4 1.6-1.6 2.3-1.3.7-2.7 1.8-3.1 2.6-.5.7-1.2 1.1-1.7.8-.5-.3-1.1-.1-1.5.5-.4.6-1.2.7-1.8.3-.7-.4-.4.5.6 2.1 2.3 3.5 1.6 4.2-2.9 2.8l-3.6-1.1 2 2.2c2.3 2.5 3.5 8.7 1.7 8.7-.7 0-1.7 1.1-2.3 2.5-1 2.2-.9 2.5.9 2.5 1.1 0 3-.7 4.3-1.5 2.4-1.6 5.7-1.1 5.5.9-.4 3.5.3 3.6 3.6.7 2-1.7 4-3.1 4.6-3.1.6 0 .8-.8.5-1.8-.4-1.1.1-2.3 1.3-3.1 1.8-1.3 1.8-1.6.3-3-1-1.1-1.7-1.2-1.9-.4-.5 1.5-5.2.7-7.4-1.3-.8-.8-2.1-1.4-2.7-1.4-.6 0-.9-.7-.5-1.6.3-.9.9-1.2 1.5-.6 1.5 1.5 6.8.2 6.8-1.8 0-1 .4-2 .9-2.2.5-.2 1.8-1.9 3-3.8 1.6-2.7 2.1-3 2.1-1.5l.1 2 1.5-2c1.4-1.9 1.6-1.9 2.8-.3.7 1 2.1 1.8 3 1.8 1 0 3.1 1.3 4.8 3 2.5 2.6 3.1 2.8 4.4 1.6 2.1-2.2 1.8-2.9-3.9-8.2-2.8-2.7-6.5-7.4-8.1-10.4-1.6-3-4.2-6.5-5.7-7.8L25 30.3V34zM306.5 36.5c.3.5 1 1 1.6 1 .5 0 .9-.5.9-1 0-.6-.7-1-1.6-1-.8 0-1.2.4-.9 1zM86.9 42.9c1.3 1.5 5.1 2.8 5.1 1.7 0-1.4-2.4-3.1-4.3-3.1-1.6 0-1.7.3-.8 1.4zM329.8 51.9c-1 .7-1.8 1.8-1.8 2.3 0 2.1-3.4 3.8-7.3 3.8-3.8 0-4.1.2-5.5 4.4-.9 2.6-2.2 4.5-3.3 4.8-1.1.3-1.9 1.3-1.9 2.2 0 1-1 2.7-2.2 3.9-1.3 1.1-2.9 2.8-3.6 3.6-.7.9-2.1 1.6-3.2 1.6-1 0-2.1.4-2.4.9-.9 1.4 2.2 2.1 4.9 1.1 1.5-.6 2.6-.6 3 0 .4.6.1 1-.5 1s-.9.3-.7.7c.9 1.4 6.1.7 9.9-1.2 3.4-1.7 3.9-1.7 8.5-.2 2.8.9 4.9 1.2 5.1.7.2-.6 1.5-1 2.8-1 2.6 0 3.1-2.4 1.5-6.5-.5-1.1-.4-2.5.1-3.3.7-.8.7-1.2 0-1.2-1.2 0-2.1-2.1-3.2-8-.7-3.9-.6-4.8 1.3-6.8 2.4-2.6 1.2-4.8-1.5-2.8zM52.5 53.6c-.9 1.4-.2 2 1.4 1 .8-.6.9-1.1.3-1.5-.6-.3-1.4-.1-1.7.5zM0 56.8c0 1.9 1.6 3.1 2.4 1.8.3-.5-.1-1.4-.9-2.1-1.2-1-1.5-1-1.5.3zM182.5 169.5c.3.5.8 1 1.1 1 .2 0 .4-.5.4-1 0-.6-.5-1-1.1-1-.5 0-.7.4-.4 1zM174.5 189.5c-.4 2-1.4 3.2-3 3.6-1.3.3-3.1 1.4-4.1 2.5-1.1 1.2-2.4 1.7-3.6 1.3-1.2-.3-1.8 0-1.8 1 0 .8-.3 2.1-.6 2.9-.3.9.2 1.6 1.5 2 1.1.2 2.1 1.5 2.3 2.8.2 1.5 1.2 2.6 2.8 3 2.1.5 2.2.7.8 1.4-1 .4-1.8 1.5-1.8 2.5s-.7 2-1.5 2.4c-.8.3-1.5 1.6-1.5 3 0 1.6-1.2 3.4-3.2 5-2.9 2.3-3.2 2.8-2 4.6 1.8 2.9 1.5 3.4-1.1 1.7-2-1.3-2.5-1.3-4.5.3-1.2 1-2.5 3.1-2.8 4.8-.4 1.7-1.7 3.5-3.5 4.6-1.6.9-2.9 2.2-2.9 2.7 0 .6-.4.7-1 .4-.5-.3-1-.2-1 .4 0 .6-1.9.8-5 .4-5.2-.6-13 1.8-13 4 0 .5-1.9.7-4.5.5-3.3-.4-4.8-.1-6 1.2-1.9 2.1-1.9 2.9.1 5.1 1.4 1.6 1.5 2.3.4 4.9-1 2.4-1.9 3-4.1 3-1.6 0-2.9.5-2.9 1.1 0 .7-1 .9-2.5.5-1.9-.5-2.5-.2-2.5 1s-.6 1.5-2.5 1c-1.6-.4-2.5-.2-2.5.5 0 .6-.9.9-2 .6-1.1-.3-2-.1-2 .4s-1.1.4-2.5-.3c-5-2.2-7.1 2.8-3.8 9.2.9 1.9 1.6 4.6 1.6 6.2 0 1.5.5 2.8 1 2.8s.7.6.4 1.4c-.3.8.1 1.7.9 2 .9.3 1.4 2 1.4 4.6 0 3.3.3 4 1.9 4 1.1 0 2.3.5 2.6 1.1.4.6 1.3.8 2.1.5.8-.3 1.4-.1 1.4.5 0 .5-.6 1.2-1.3 1.5-2.5.9-1.7 4.4 1.4 6.3 3.2 2 10.7 1.8 12-.2.9-1.3 4.9.1 4.9 1.8 0 .8.9 1.7 2.1 2 1.3.4 1.8 1.2 1.5 2.2-.3.8-.6 1.9-.6 2.4 0 .6-.5.7-1.1.3-1.2-.7-2.9 1.2-2.9 3.3 0 .8.9.9 3.2.2 1.8-.5 5-.9 7.1-.9 2.4 0 4-.5 4.3-1.5.5-1.1 1.6-1.3 4.3-.9 4.4.7 9.1-1 9.1-3.2 0-1.1.5-1.4 1.8-.9 8 3.3 10.5 3.9 10.9 2.9.3-.8 1.6-.5 4.2.9 3.5 1.9 4.1 1.9 9.9.7 4-.9 6.2-1.9 6.2-2.8 0-.9.6-1.2 1.6-.8.8.3 1.2.2.9-.4-.4-.6 1.7-1 5.4-1 3.4 0 6.1-.3 6.1-.8 0-.4 1-1.2 2.2-1.7 1.3-.6 2.8-2.1 3.5-3.5.7-1.5 2-2.4 3-2.2 1 .1 3.8-1.6 6.3-3.8 2.5-2.2 5.1-4 5.8-4 .6 0 1.2-.4 1.2-1 0-.9 2.3-.7 8.8.6 1.2.2 2.2 1.2 2.2 2.2 0 .9.3 1.3.8.7 1.3-1.8 7.1-3.4 7.9-2.3.3.7.1.8-.5.4-.7-.4-1.2-.3-1.2.2 0 1.7 1.3 2.1 3.2 1.1 1.5-.8 1.7-1.4.8-2.4-.8-.9-.7-1.4.5-1.9 1.7-.6 2-4.2.4-5.1-.6-.4-.8-1.3-.5-2.1.3-.8.1-1.4-.4-1.4-.6 0-1-.5-1-1.1 0-1.4 7.9-.2 10 1.5 1.3 1.1 4.1 1.3 10.4.8 1.4-.2 1.7-.8 1.4-3.2-.4-2.5-.1-3 1.6-3 2.4.1 5.6 2.2 5.6 3.7 0 .5-1.1 1.5-2.5 2.1-3 1.4-3.1 2.3-.5 4.7 1.1 1 2 2.8 2 4.1 0 1.5 1.6 3.6 4.5 6.1 2.5 2 4.5 4.2 4.5 4.8 0 1.2 4.2 5.5 5.3 5.5.4 0 .7-.7.7-1.7 0-1.4.2-1.5 1.8-.1 1.9 1.7 4.1 1.3 5.8-1 1-1.4 1.2-1.3 1.9.6.8 2.6 4.3 6.2 6.1 6.2 1.6 0 7.4 5.8 7.4 7.4 0 1.9 3.4 4.6 5.8 4.6 1.2 0 2.2.5 2.2 1.1 0 .6.7.8 1.6.5 2.1-.8 4.5 1.1 3.7 3-.3.8 0 1.4.6 1.4s1.1-.7 1.1-1.5.8-1.5 1.7-1.5c3 0 8.3-2.4 8.3-3.7 0-.7.7-1.3 1.5-1.3s1.5-.5 1.5-1c0-2.3 4.5-7 6.7-7 1.6 0 2.8-1.1 4.3-4 1.1-2.3 1.8-4.5 1.5-5-.3-.5-.2-2.7.1-5 .6-3.9.7-4 2.5-2.4 1.1 1 2.2 1.5 2.5 1.1.3-.3 1.9-.1 3.5.5 2.9 1 3.5 2.7 3 8.6-.2 2 1.5 6.8 3.9 11.2.4.8 1.9 1.4 3.4 1.3 1.5-.1 2.6.3 2.6 1.1 0 .7 2.5 3.3 5.7 5.8 4.9 4 6 4.5 8.1 3.7 2-.8 3-.5 4.9 1.2 1.2 1.3 2.3 3.1 2.3 4.1 0 2.2 2.6 6.5 5.5 9.1 2 1.8 2 1.8 2.3-.3.3-1.4.9-2 1.9-1.6.8.3 2.3.6 3.4.6s3 1.1 4.2 2.4c3.4 3.6 10.6 4.4 15 1.7 1.9-1.2 4.2-1.8 5.1-1.5.9.3 2.3.1 3.1-.6 1.2-1 1.8-1 2.9-.1.8.7 5.8 1.4 11.1 1.7 9.3.5 9.8.4 13.1-2.1 1.9-1.4 3.9-2.3 4.5-2 .6.4 1.6-.1 2.4-1.1 1.3-1.8 1.4-1.8 3.7.3 1.5 1.4 3.7 2.3 5.6 2.3 1.7 0 4.6.9 6.5 2 5.2 3.1 12.8 5.1 14.4 3.8.7-.5 1-1.4.7-2-.3-.5 0-1.5.6-2.3.7-.9 1-2.8.7-4.4-.4-1.7 0-3.6.9-4.9 2-2.9.3-5.4-5-7.7-3.8-1.7-4.1-1.7-7-.1-2 1.1-3.2 1.4-3.4.7-.7-2.1-2.2-1.1-2.2 1.4 0 1.6-.6 2.5-1.5 2.5-.8 0-1.5-.4-1.5-1 0-.5-.7-.7-1.5-.4-.8.3-2.6-.6-4-2-3.1-3.1-2.9-3.1-8-.6-2.2 1.1-4.9 1.9-6.1 2-2.4 0-5.8-3.2-4.7-4.5.9-.9 0-.6-4.8 1.9l-3.6 1.8-4.7-2.7c-4-2.4-4.7-3.1-4.2-5.1.5-1.8 0-2.7-1.8-4-1.4-.8-2.8-2.4-3.1-3.5-.4-1.1-1-1.7-1.5-1.4-.4.3-1.4-.2-2.1-1.1-1.2-1.4-1.4-1.4-2.6.2-1.8 2.5-4.2 1-6.7-4-2.2-4.4-7-6.9-12.9-6.7-5.5.1-11.5-3.2-11.9-6.6-.2-1.9-1.2-3.2-3-4.1-1.9-.9-2.8-2.1-2.8-3.7 0-1.3-1.6-4.7-3.5-7.6-1.9-3-3.5-4.8-3.5-4 0 .9-.9 1.1-3 .6-1.8-.4-3-.3-3 .4 0 .6-.7.8-1.5.5-.8-.4-1.5-.1-1.5.6s-.8 1-1.9.7c-1.3-.3-2.1.1-2.4 1.4-.4 1.6-.9 1.7-3.5.8-1.7-.6-3.6-1.7-4.3-2.5-.6-.8-1.7-1.4-2.5-1.4-.7 0-2.5-1.1-4-2.5s-3.2-2.5-3.9-2.5c-2.2 0-4.1-3.5-4.1-7.3.1-3.5-.2-3.9-4-5.8-2.4-1.1-5.3-3.7-6.8-6-1.5-2.2-3.1-3.7-3.5-3.4-.5.3-3-1.8-5.6-4.7-4-4.4-4.9-5-6.4-4.1-1.4.9-2.1.9-3 0-.8-.8-.5-1.7 1.1-3.4 1.7-1.8 1.9-2.6 1-3.5-.7-.7-1.2-2.2-1.2-3.4 0-1.3-.5-2.6-1.1-3-1.8-1.1-4.9-9.3-4.9-13 0-2.2-.6-3.7-1.5-4-1.6-.7-2.1-6-.6-6.6 1.1-.4-2.7-10.8-3.9-10.8-1.2 0-1.8 8.3-.7 9.7 1 1.4-2.7 5.2-5 5.3-.7 0-1.5 1.6-1.9 3.5-.3 2-1.2 3.5-2 3.5-1 0-1.3.7-.8 2.5.4 1.6.2 2.5-.6 2.5-.6 0-.8.5-.4 1.2.5.8 0 .9-1.4.6-1.2-.4-2-.2-1.6.3.3.5 0 .9-.7.9-.6 0-1.7.6-2.3 1.4-1.6 2.1-6 .2-5.2-2.2.4-1.1 0-.9-1.4.7-1.1 1.3-2 1.8-2 1.1 0-.9-1.3-1.1-5-.6-3.9.5-5.4.3-6.6-.9-.9-.8-2-1.3-2.5-.9-.5.3-2.6-.4-4.5-1.5-4.1-2.4-4.8-2.6-4.1-.8.3.7-.4 1.9-1.5 2.6-1.1.7-1.7 1.8-1.5 2.6.9 2.1-3.1 2.5-5.5.6-1.7-1.4-2.7-1.6-4.8-.8-2.2.8-3.8.4-9.5-2.4-4.4-2.1-7.1-4.1-7.5-5.4-1.1-4.4-6.4-8.9-7.2-6.3-.2.6-1.7-.1-3.3-1.4-3.6-3-8.2-4.3-8.8-2.5-.6 1.8-3.7-1-3.7-3.5 0-1.1-.5-2.9-1.2-4.1-.6-1.2-1.4-3.8-1.7-5.7-.5-2.6-1.2-3.6-2.9-3.8-2-.3-2.7.6-2.3 3 .4 2.9-5-1.2-6.5-4.8-1.9-4.4-5-4.6-5.9-.4zm-3.5 16c0 1.3-1.1 1.3-3 0-1.2-.8-1.1-1 .8-1 1.2 0 2.2.4 2.2 1z"/><path d="M315 189.9c-.6.6-1 2.9-1 5.3 0 2.8-.4 4.3-1.3 4.3-.7 0-2 .9-2.9 2-1.4 1.5-1.5 2.1-.5 2.7.7.4 2 1.8 2.9 3.1 1.3 1.9 1.7 2 2.1.7.4-.8 1.5-1.5 2.6-1.5 2.3 0 3.6-1.6 2.1-2.5-.5-.3-1-1.1-1-1.7 0-.6.9-.3 1.9.6 1.3 1.1 2.7 1.5 4 1.1 2.3-.7 2.7-2 1.1-3-.5-.3-1-1.5-1-2.7 0-1.1-.9-3.2-2.1-4.6-1.2-1.6-1.6-2.8-1-3 .6-.2 1.1-.7 1.1-1.1 0-1.1-5.9-.8-7 .3zM283.7 190.9c-.3.8 0 1.7.7 1.9 1 .4 1.2-.1.9-1.4-.6-2.3-.9-2.4-1.6-.5zM287 193.1c0 1.7 2.2 1.4 2.8-.4.2-.7-.3-1.2-1.2-1.2-.9 0-1.6.7-1.6 1.6zM302.1 196.3c-1.5 2.8-1.4 3 1.4 2.7 2-.3 2.5.1 2.5 1.8 0 2 .1 2 1.6.5 1.8-1.7 1.1-3.8-1.1-3.8-.8 0-1.8-.7-2.3-1.7-.9-1.5-1.1-1.4-2.1.5zM302 209.4c0 2.8 3.4 4.8 7 4.3 3-.4 3.7-1.6 2.1-4.1-.5-.8-1.6-1.1-3-.6-1.2.4-2.1.2-2.1-.4 0-.6-.9-1.1-2-1.1-1.3 0-2 .7-2 1.9zM80.7 265.2c.6 1.5 2.2 1.7 4.2.4.9-.6.4-1-1.7-1.3-2.2-.3-2.9-.1-2.5.9zM71.1 267.7c-1.5 4.3-1.4 4.8.9 4.8s4 2.8 4 6.4c0 1.5.6 2.6 1.4 2.6 2 0 .8-4.9-2-8.3-1.7-2-2.2-3.6-1.8-5.2.9-3.6-1.3-3.9-2.5-.3zM74.1 283.4c-.1.8-.7 1.1-1.8.7-1.7-.7-1.7-.6-.1 1 2 2 3.2 1.4 2.5-1.3-.3-1-.5-1.2-.6-.4zM266.6 308.2c1.1 1 1.9 2.4 1.6 3.1-.2.7.1 1.9.8 2.7.9 1.1 1.8 1.1 4.2.3 3.1-1.1 3.1-1.2.9-2-1.6-.5-2.1-1.3-1.7-2.6.4-1.2.1-1.8-1.2-1.8-.9 0-2.8-.4-4.2-.8l-2.5-.7 2.1 1.8zM279.4 316.2c1.6 1.8 3.2 3.1 3.4 2.8.3-.3.3-.6.1-.8-.2-.1-1.7-1.3-3.4-2.7l-3-2.5 2.9 3.2zM284.7 320.2c-.6 3.4-.4 3.7 2.2 2.8 1.7-.5 1.9-.9.9-3.1-1.5-3.1-2.4-3-3.1.3zM287.8 328.2c3.5 7.6 3.6 7.7 6.7 6.1 1.8-1 2.4-1.8 1.6-2.2-.6-.4-1.1-1.6-1.1-2.7 0-2.1-1-2.5-2.7-.8-.7.7-1.5.2-2.7-1.5-2.5-3.9-3.7-3.1-1.8 1.1zM489 330.5c0 .5.7 1 1.5 1s1.5-.5 1.5-1c0-.6-.7-1-1.5-1s-1.5.4-1.5 1zM705 339.3c-4.5.3-4.6.3-4.2 3.5.3 2.8-.3 3.8-4 7.2-2.4 2.2-4.9 4-5.6 4-1.7 0-11.2 9.3-11.2 11.1 0 .8-1.2 1.9-2.7 2.5-2.6 1-2.7 1.2-1 2.3 1.8 1.4 2.4 3.2.7 2.1-.5-.3-.7 0-.4.8.6 1.7-2.2 3.1-3.2 1.6-.8-1.3-3.4.8-3.4 2.8 0 .8-.4 1.1-1 .8-.5-.3-1-.1-1 .5 0 .7-1.7.9-5 .5-3.7-.4-5-.2-4.8.7.2.7-.3 1.2-1 1.3-.8 0-1.9.8-2.6 1.7-.7 1-2.3 1.8-3.6 1.8-2.2 0-2.2.1-.5 2.6 1.2 1.8 1.3 2.9.6 3.8-.7.8-.7 2.4-.1 4.7.6 1.8 1 3.5 1 3.6 0 .2-.9.3-2.1.3-1.1 0-2.9.4-3.9 1-2.1 1.1-10.7-3-10.2-5 .2-1.1-1.9-9.4-3.4-13.5-.5-1.1-.2-1.4 1-.9.9.3 1.6.2 1.6-.4 0-.5-.7-1.3-1.6-1.6-.9-.4-1.4-.9-1.1-1.3.4-.3.2-1.4-.4-2.4-.7-1.3-.6-1.9.2-1.9.6 0 .9-.7.5-1.5-.3-.8-.1-1.5.4-1.5.6 0 1-.9 1-2.1 0-1.1.5-2.9 1-3.9.8-1.5.6-2.1-.7-2.8-1-.5-2.4-.7-3-.5-.7.3-1.3 0-1.3-.6s-.7-1.1-1.5-1.1c-1.9 0-1.9-1.4-.1-2.9 1-.9 1.6-.8 2.6.4 1.3 1.5 5 2.1 5 .7-.1-1.5-5.9-7-8.1-7.7-1.3-.4-2.1-.4-1.7 0 1 1.1-1.3 3.1-4.5 3.9-2.6.6-3.2.1-2.8-3 .1-1.1-4.8-3.4-7-3.4-.5 0-.9 1.2-.9 2.6 0 1.5-.4 2.3-1.1 1.8-1.5-.9-10-1.3-9.4-.4 1 1.6 2.8 6.5 2.7 7.2-.1.5.3.8.9.8.6 0 1.6.6 2.4 1.3 1 1.1 1 1.8-.1 3.8-1.9 3.5-1.7 4.2.7 2.5 1.2-.8 2.9-1.2 3.8-.9 1.3.4 1.4.3.1-.6-.8-.5-1.1-1.3-.7-1.7.3-.4 1.4-.1 2.2.6 1.4 1.2 1.3 1.5-.6 3.6-1.6 1.8-1.9 2.6-1 4.1 1 1.7 1 1.7 1.1-.1 0-1.2.5-1.6 1.5-1.3.8.4 1.7.1 2.1-.5 1.2-1.9 2.6 2.1 1.9 5.3-.4 1.8-.2 3.6.6 4.5 1.1 1.3.9 1.4-1.4.9-1.7-.5-3.3-.2-4.3.5-1.1 1-1.8 1-2.6.2-.7-.7-2-1.2-2.9-1.2-1.2 0-1.6-.8-1.5-2.9.1-1.6.4-3.3.8-3.6 1-1.1-.3-3.5-1.8-3.5-1.2 0-1.2.4-.4 2 .8 1.5.8 2-.1 2-.6 0-1.4-1-1.7-2.3-.6-2.2-.6-2.2-1.3.3-.4 1.7.1 3.8 1.7 6.7 1.3 2.3 2.4 4.3 2.4 4.5 0 .2-1.6.4-3.5.5-1.9.1-3.5-.3-3.5-.9 0-.5-.8-.8-1.7-.6-1 .2-2.7-.6-3.8-1.7-1.2-1.2-3.7-2.1-6-2.3-4.3-.4-8-3.4-5-4 1.1-.3 1.4-.9.9-2-.4-1-1-3.5-1.3-5.7-.6-3.8-.8-4-3.7-3.7-3.4.3-6.4-2.5-6.4-6 0-1.5-.4-1.5-3.5.5-2.7 1.7-3.4 2.7-3.1 4.5.2 1.7 0 2.2-1.1 1.8-4.2-1.7-6.3-1.6-9 0-4.4 2.8-7.2 5.4-10.4 9.6-1.1 1.6-2.8 2.8-3.7 2.8-1.3 0-1.4-.2-.4-.9 1-.6 1-1-.2-2s-2.3-1-4.6-.3c-2.7 1-3 .9-3-.9 0-1.1-.4-1.8-.9-1.4-.9.5-2.4-1-2.7-2.8-.1-.4-.2-1-.3-1.3 0-.4-.8-.1-1.6.6-1.3 1-1.9 1-3.3-.4-1-.9-2.2-1.6-2.7-1.6-.4 0-2.7-1.8-5.1-4-3.8-3.4-4.7-3.9-6.8-3-3.8 1.4-8.6.8-8.6-1.1 0-.9-1.5-2.8-3.4-4.3-3.6-2.7-6.8-3.4-6.4-1.5.5 2.3-5 3.2-9.8 1.6-4.1-1.3-4.4-1.3-4.4.4 0 1 .4 2 .9 2.3 1.1.7-.9 6.6-2.2 6.6-2.5 0-4 3.5-4.1 9.2-.1 4.7.3 6.2 1.7 6.9 2.2 1.3 6.2 8.9 4.6 8.9-.7 0-.9.9-.5 2.4s0 2.8-.9 3.6c-.8.7-1.5 1.7-1.5 2.3 0 .5.9.2 2-.8 1.7-1.5 2-1.6 2-.3 0 2.8 7 4.6 7 1.9.1-2.5 2.9 3 3 5.8 0 1.8.4 2.2 2 1.8 1.1-.3 2.3-.1 2.6.4.3.5 1.3.9 2.3.9.9 0 3 1.3 4.6 3 1.6 1.6 2.4 3 1.7 3-.6 0-.9.7-.6 1.5.4.8 1.3 1.5 2.1 1.5.9 0 1.1-.5.7-1.3-.5-.7-.1-.7 1 .2.9.8 2.4 2.7 3.2 4.3.8 1.5 2.1 2.8 2.9 2.8.8 0 1.5.6 1.5 1.4 0 .8 1.6 1.6 3.9 2 4.2.6 4.5 1 5.7 7.9.3 2.1 1.3 4.1 2 4.4.8.3 1.4 1.8 1.4 3.5 0 1.6-.4 2.7-.8 2.4-.4-.2-1.4-.1-2.1.3-.9.6-.4 2 1.9 5.5 1.8 2.6 2.9 5.3 2.6 6.1-.4 1 1.2 2.7 4.9 5.1 4.6 3.1 5.4 4.1 5.7 7.2.2 2.2 1 3.9 2.3 4.6 2.4 1.3 7.5 6.3 7.6 7.3.9 13.8.9 13.6-.8 12.1-1.5-1.2-1.6-.9-1 2.3.4 2.9 0 4.5-1.9 7.2-4.4 6.6-2.4 13.7 3.9 13.7 1.5 0 2.7.3 2.7.6 0 1-3.4 6.9-4.5 7.6-.6.5-.5 1.1.5 1.7 1.2.8 1.2 1.3-.4 3-1.8 1.9-1.7 2 2 3.6 2.2.9 5 1.4 6.4 1 1.4-.3 3.7-.6 5.3-.5 1.5 0 2.7-.5 2.7-1.2 0-.9.3-.9 1.1-.1.6.6 2 .8 3.1.5 1.6-.4 1.9-1 1.4-3.7-.6-3-.4-3.3 2.1-3.8 3.5-.7 4-.3 4.8 3.1.5 2.7 2 3.8 7.7 6.2 2.4 1 8.8 8 7.3 8-.3 0 .1 1.3 1.1 2.9 1.7 2.9 4.1 3.2 7.1.9 1.4-1.1 5.3 2.4 5.3 4.7 0 2 3.2 3.5 7.7 3.5 2.2.1 4.7.8 6 1.9 3 2.5 7.3 9 7.3 11.1 0 1 .7 2.3 1.5 3 .8.7 1.4 1.8 1.3 2.5-.4 1.7 6.6 9.2 8.1 8.7.6-.2 1.9.2 2.8.9.8.8 2.7 1.2 4.2 1.1 2-.2 3.4.7 6.4 4.3 2.9 3.4 4.3 4.4 5.8 4 1.7-.6 1.9-.1 1.9 3.9 0 4.2.3 4.7 3.3 5.9 1.8.8 4.6 2.8 6.2 4.6 3.4 3.6 6.9 4 8.7 1.1.7-1.1 1.8-2 2.4-2 1.2 0 2.9-2.8 2.5-4.3-.1-.4.7-.3 1.7.2 1.6.8 2.1.5 3.2-1.7 1.6-3.3 2-7.3.8-8.8-.6-.8.1-1.4 1.9-1.9 1.6-.3 4.3-1.6 6-2.7 2.7-1.6 3.2-2.4 2.7-4.4-.6-2.3-.5-2.4 2.1-1.4 3.5 1.3 4.4 1.2 2.5-.3-.9-.7-2.9-3.3-4.5-5.9-1.9-3-3.7-4.8-4.9-4.8-1.1 0-1.7-.3-1.3-.6.7-.8-5.8-10.3-8.7-12.6-2.4-2-9.2-2.4-9.8-.6-.6 1.8-5.1.2-8.6-3.2-3.1-2.9-7.2-4.1-7.2-2 0 1.1-5.3 1.4-6.3.4-.3-.3 0-1.5.6-2.6.9-1.6.9-2.2-.1-2.5-2.8-1.1-7.1-5.5-6.5-6.8.3-1-.1-1.5-1.2-1.5-1.2 0-1.5-.5-1-2 .8-2.4-2-5.5-4.9-5.5-1.3 0-2.2-.8-2.4-2-.2-1.1-.9-2.5-1.6-3-.7-.6-1.8-2-2.5-3.3-1.1-2-1-2.2 1.8-2.2 3.9 0 6.2 2.4 5.6 5.8-.5 2.5-.5 2.5.4.4.7-1.5 1.9-2.2 3.7-2.2 2.1 0 2.5-.4 1.9-1.8-.8-2-.8-2.1-.6-4.5 0-.9.8-1.7 1.6-1.7.9 0 1.5-1 1.5-2.6 0-2 .4-2.4 1.8-2 1.2.4 3.3-.8 6.5-3.9 3.9-3.7 4.7-5 4.7-8 0-3.6 0-3.6 3.8-3.3 3.1.2 3.9-.1 4.7-2 .8-1.7 1.6-2.1 3.3-1.7 3 .7 7.2-.4 7.2-2.1 0-.7.9-1.8 2-2.4 1.1-.6 1.8-1.5 1.5-2-1-1.6 2-1.7 3.8-.2 1.4 1.3 2 1.4 2.6.3.9-1.4 7.6-.2 7.6 1.5.1 2.5 3.1 3.9 10 4.4.6.1 2 .8 3.2 1.6 1.3.8 3.5 1.5 5 1.6 1.6.1 4.3 1.2 6.1 2.6 1.8 1.3 3.5 2.2 3.7 2 .3-.2 0-2-.5-3.8-.7-2.6-.6-3.9.5-5.7 2.2-3.3 1.9-9.5-.6-12.7-3.3-4.2-6.5-10.9-6.1-12.8.2-.9 1.8-2.6 3.7-3.8 2.3-1.4 3.5-3 3.9-5.4.6-3 1.1-3.5 4.5-4.1l3.9-.6-1-3.5c-.5-1.9-.8-4.3-.6-5.2.2-.9-.3-2.2-1.2-2.9-1.3-1.1-1.3-1.2.1-1.3 2.7 0 3.1-5.9.7-9.8-2.1-3.4-3.1-4.2-2.2-1.7.4 1 0 1.5-1.4 1.5-1.2 0-2.5.7-3 1.7-.9 1.5-1.3 1.5-5.8 0-3.1-1-5.3-1.2-5.8-.6-.6.5-2.1.9-3.5.9l-2.6.1 2.1 1.7c2.8 2.4 1.5 5.9-2.6 7.3-1.6.6-3 1.6-3 2.3 0 .7-1.7 3-3.7 5.1-4.6 4.9-7.9 4.9-12.8.2-1.8-1.8-4.5-4.1-6-5.2-1.8-1.3-2.8-3.1-2.9-5.2-.2-1.7-1.5-4.6-2.9-6.3-3-3.5-3.5-5.5-1.2-4.6.9.3 1.5 0 1.5-.8s1.7-2.1 3.9-2.9c2.1-.9 4.1-2.3 4.5-3.2.4-1.1 1.2-1.5 2.2-1.1.9.4 2.2.2 2.9-.4 1-.8.6-1.8-1.7-4.2-1.6-1.7-2.7-3.6-2.5-4.2.2-.6 2.9-1.8 6.1-2.6 3.1-.9 6.1-2.2 6.6-2.9.6-1.1 1.7-1 5.5.9 4.3 2.1 4.8 2.2 5.7.6.5-.9 2-2.8 3.4-4.3 1.3-1.4 2.4-3 2.4-3.4 0-.5 1.4-.9 3-.9 1.7 0 3-.4 3-1 0-.5 1.1-1.3 2.6-1.6 2.2-.6 2.4-1 1.9-3.5-.5-2.2-.3-2.9.9-2.9.9 0 2.7-1.8 4.1-4 2.7-4.3 5-5 7-2.4 1 1.5 1.2 1.4 1.1-.7-.1-1.8.5-2.5 2.2-2.7 1.4-.2 2.2-.9 1.9-1.7-.6-1.4 3.3-3.5 6.5-3.5 1.1 0 2.9-.9 3.9-2.1 1-1.1 2.2-1.8 2.8-1.5 1.6 1 2.2-1.1 1.1-4-.6-1.5-.9-2.9-.6-3.1.6-.6 8.2 2 8.5 3 .5 1.5-1.2 9.7-2 9.8-.5.1-1.5.2-2.1.3-1.9.2-3.9 4.5-3.3 7.4.5 2.8-2.2 6.2-4.8 6.2-1.9 0-4.7 3.3-4.7 5.5 0 1.4-.3 1.5-1.4.6-1.1-1-1.7-.7-3 1.1-.9 1.2-1.6 2.8-1.6 3.5 0 .7-.7 1.3-1.6 1.3-.8 0-1.2.4-.9 1 .9 1.5-.4 3-2.1 2.3-.9-.3-1.2-1.2-.9-2.4.9-2.7-1-2.4-2.2.4-.7 1.6-.8 2.9-.1 4.1.7 1.3.7 2 0 2.5-1.2.7 1.4 7.1 2.9 7.1 1.9 0 .8 3-2.1 5.8-2.9 3-3.7 5.2-2.3 6.5.9.9 4.3-2.3 4.3-4 0-.7 1.1-1.8 2.5-2.3 1.9-.7 2.5-1.7 2.5-4.1 0-2.6.3-3.1 2-2.6 1.5.4 2 0 2-1.5 0-1.7.6-1.9 4.5-1.7 5.2.3 6.3-.4 4.4-2.7-1.3-1.6-1.2-1.7.9-1.2 1.2.4 2 .2 1.6-.3-.3-.5-1.5-.9-2.8-.9-1.5 0-2.7-.9-3.4-2.5-.6-1.4-.8-2.5-.3-2.5.4 0 .7-1.3.7-3-.1-1.6.3-2.9.8-2.9s1.2-.5 1.6-1.1c.6-1 1.5-1 4.1-.1 2.7.9 3.1.9 2.1-.1-1.6-1.6-1.5-2.8.1-2.8.8 0 1.4-1.3 1.5-3.3.1-5.4.9-11.5 1.7-12.6.3-.6 1.3-1.1 2.2-1.1 1.1 0 1.4-.8 1.1-3.5-.4-3.3-.3-3.4 3.2-3.7 2.9-.3 3.5-.7 3.8-2.9.2-2-.4-2.9-3.2-4.4-1.9-1-3.7-2.8-4-3.9-.3-1.1-.8-1.7-1.2-1.3-.4.4-1.2.3-1.8-.2-.6-.5-2.8-1.8-4.8-3-3.2-1.7-3.9-1.8-5.1-.7-1.1 1.1-2.2 1.2-5.5.3-2.3-.6-4.2-1.7-4.2-2.5 0-.7-1.9-2.2-4.2-3.2-3.6-1.6-4.9-1.7-8.5-.8-3.5 1-4.5.9-6.9-.7-2.7-1.7-2.8-1.7-4.5.4-1.1 1.3-2 1.7-2.4 1.1-.4-.6-1.2-.9-1.8-.7-.7.2-1.9-.1-2.7-.7-.8-.6-3.5-1-6-.8zM514 376c0 .8-.2 1.5-.4 1.5s-.6-.7-1-1.5c-.3-.8-.1-1.5.4-1.5.6 0 1 .7 1 1.5zm114 44c0 .9-.9 1.5-2.5 1.5-2.9 0-3.4-1.6-.7-2.3 3-.8 3.2-.7 3.2.8zm-3.2 13.7c2.1-.7 1.3 1.7-.9 2.8-1.1.7-1.8 1.8-1.5 2.5.3.8 0 1.6-.7 1.9-.8.3-.4 1.2 1.2 2.5 1.3 1.2 1.8 2.1 1.2 2.1-.6 0-1.1 1.5-1.1 3.4 0 3-.6 3.9-4.2 6.3-4 2.6-4.2 3.1-4 6.9.4 4.8-1.2 9.4-3.2 9.4-.8 0-1.6.7-1.8 1.6-.2 1-1.5 1.8-3.2 2-1.6.2-4.2 1.7-5.9 3.3-3.2 3.4-4.7 3.9-4.7 1.7 0-1.9-3.7-3.1-5.4-1.6-1.1.8-2.3.6-4.9-.9-1.9-1.1-3.8-1.7-4.1-1.4-.3.3-.8-.3-1.2-1.3-.3-1-1.3-3.6-2.2-5.8-1.5-3.6-1.5-3.9.2-5.2 1.8-1.2 1.8-1.7.5-6.6-1.2-4.4-1.9-5.5-4.4-6.3-1.7-.6-4.2-2.2-5.7-3.6-2.4-2.3-2.7-3.1-2.5-8.7.2-3.3.6-6.4.9-6.8.4-.3 1.9.5 3.4 1.9l2.7 2.6 1.9-2.4c1.6-2 2.2-2.2 5.5-1.3 5.2 1.3 13.3 1.8 13.3.8 0-.4 1.8-.6 3.9-.4 2.9.2 4.8-.3 7.5-2.1 3.2-2.2 3.7-2.3 4.3-.9.6 1.5.7 1.5 1.9-.1.7-1 2-1.5 2.8-1.2.9.4 1.8.1 2.2-.5.5-.7 1.9.1 3.9 2.3 1.7 2 3.7 3.3 4.3 3.1zm-9.4 44.3c2.2 2.1 2.4 2.5.9 2.5-2.3 0-3.8-1.1-4.6-3.3-.9-2.4.6-2.1 3.7.8zm-8.4 3.5c0 .5-.2 1-.4 1-.3 0-.8-.5-1.1-1-.3-.6-.1-1 .4-1 .6 0 1.1.4 1.1 1zm-15.3 16.4c-.4.9-1.3 1.6-2.2 1.6-1.8 0-1.9-.4-.3-3 1.4-2.2 3.4-1 2.5 1.4zm-4.7 1.6c0 .5-.2 1-.4 1-.3 0-.8-.5-1.1-1-.3-.6-.1-1 .4-1 .6 0 1.1.4 1.1 1zm45 13.4c0 .3-.4.8-1 1.1-.5.3-1 .1-1-.4 0-.6.5-1.1 1-1.1.6 0 1 .2 1 .4zm6.8 18.4c.3.9-.2 1.3-1.4 1-.9-.1-1.9-.9-2.2-1.6-.3-.9.2-1.3 1.4-1 .9.1 1.9.9 2.2 1.6zm-14.7 2.6c.5-.3 1.2.2 1.6 1.1.3 1 0 2.1-.8 2.6-1.8 1.1-4-1.7-3.1-3.9.4-1 .7-1.2 1-.4.2.7.8 1 1.3.6zm18.3 12.5c.3.4.3 1.1 0 1.4-.8.8-3.4-.3-3.4-1.4 0-1.1 2.7-1.2 3.4 0z"/><path d="M594.8 344.9c.2 1.9 1 3.7 1.8 4 1.7.6 1.7-.1.3-4.3-1.5-4.1-2.6-4-2.1.3zM650.4 360c0 1.4.7 2.5 1.4 2.5s1-.5.7-1c-.4-.6-.1-1.7.5-2.5 1-1.2.9-1.5-.8-1.5-1.5 0-2 .6-1.8 2.5zM639.3 360.9c1.1.8 2.5 1.2 3.3.9 1.8-.7 1.6-.9-2.1-1.7-2.8-.6-2.9-.5-1.2.8zM646 361.9c0 .9.7 1.6 1.6 1.6 1.7 0 1.4-2.2-.4-2.8-.7-.2-1.2.3-1.2 1.2zM447.7 396.7c.4.7.8 1.9 1 2.7.1.8.6 1.7 1.1 2 1.6 1.1 3.4 5.2 2.8 6.7-.3.8-1.7 1.4-3.1 1.4-2.6 0-3.1 1.3-1.9 5.7.6 2.3 4.4 2.8 4.4.6 0-1.6 1.2-1.7 2.7-.2 1.1 1.1 8.5-.5 11.1-2.4 1.9-1.5 1.5-5.8-.5-5.5-1.2.2-1.9-.4-2.1-1.9-.2-1.6.1-2.1 1.1-1.8 1.4.6 3.7-3.2 3.7-6.1 0-1.2-.5-1.1-2.6.5-1.5 1.2-3.5 2.1-4.5 2.1s-2.2.8-2.8 1.7c-.9 1.7-1 1.7-2.8 0-1.1-.9-2.3-1.4-2.6-1-.6.6-1.1-1.4-1-4.5.1-.6-1-1.2-2.4-1.2-1.7 0-2.2.4-1.6 1.2zM682 483.4c0 .5.5 1.3 1 1.6.6.3 1 .2 1-.4 0-.5-.4-1.3-1-1.6-.5-.3-1-.2-1 .4zM717.1 578.6c-1.3.5-3.2.7-4.2.4-2.5-.8-2.4.7 0 2.2 2 1.3 1.8 5-.3 6.6-1.5 1 2 3 5.9 3.4 1.7.2 4.5 1 6.4 1.9 3.1 1.5 3.5 1.5 4.3 0 .7-1.3 1.7-1.6 4-1.1 2.5.6 2.9.4 2.6-1.2-.3-1.8-2.5-2.1-8.8-1-2 .4-2.6 0-2.7-1.4-.1-1 .3-1.9.8-1.9.6 0-.4-2-2.2-4.5-1.8-2.5-3.3-4.5-3.3-4.4-.1 0-1.2.5-2.5 1zM713.8 594.7c-.3.8-2.2 1.3-4.9 1.3h-4.4l.2 3.6.2 3.6-5.2-.2c-4.5-.2-5.4-.5-6.5-2.8-.9-2-2.1-2.7-4.1-2.7-3.5 0-5.1 1.7-5.1 5.2 0 1.6-.9 4.7-2 6.9s-2.1 5.4-2.2 7.2c-.1 3.6 3.8 11.7 5.6 11.7.6 0 2.4 1.6 3.9 3.5 1.6 2 3.3 3.2 3.9 2.9.6-.4 2.5-.7 4.2-.6 1.9 0 2.5-.2 1.7-.7-.9-.6-.5-1 1.3-1.5 1.9-.5 2.6-1.3 2.6-3 0-1.3.7-2.6 1.5-3 1.9-.7 1.9-5.5 0-8-.8-1.1-1.5-2.3-1.5-2.8 0-1.2 4.8-1 7.3.3 1.1.7 4.4 1.2 7.1 1.3 4.6.1 5.1-.1 5.4-2.2.2-1.2-.2-2.2-.8-2.2-.6 0-1-.6-.7-1.3.7-1.9-1.2-4.7-3.8-5.7-1.7-.6-2.3-1.4-1.9-2.5.4-.9-.1-2.4-1-3.4-1.6-1.7-1.6-1.9.4-2.4 1.3-.3 1.8-1 1.4-2.1-.7-1.9-2.1-2.1-2.6-.4z"/></g></svg>