<?xml version="1.0" standalone="no"?>
<!DOCTYPE svg PUBLIC "-//W3C//DTD SVG 20010904//EN"
 "http://www.w3.org/TR/2001/REC-SVG-20010904/DTD/svg10.dtd">
<svg version="1.0" xmlns="http://www.w3.org/2000/svg"
 width="596.549590pt" height="540.071512pt" viewBox="0 0 596.549590 540.071512"
 preserveAspectRatio="xMidYMid meet">
<metadata>
Created by potrace 1.15, written by Peter Selinger 2001-2017
</metadata>
<g transform="translate(-685.448768,1221.042588) scale(0.100000,-0.100000)"
fill="#222222" stroke="none">
<path d="M9470 12183 c-18 -23 -24 -25 -40 -15 -31 19 -50 14 -81 -19 -21 -22
-34 -29 -49 -24 -15 5 -18 3 -14 -9 3 -9 1 -16 -5 -16 -6 0 -11 -8 -11 -18 0
-36 -103 -111 -135 -98 -14 5 -16 1 -10 -23 5 -22 1 -33 -19 -52 -14 -13 -26
-29 -26 -35 0 -15 -90 -25 -112 -13 -14 7 -21 3 -33 -21 -17 -34 -18 -34 -62
-21 -23 7 -35 6 -40 -2 -15 -23 -85 -48 -114 -42 -21 5 -29 3 -29 -8 0 -15
-47 -42 -67 -38 -7 1 -13 -5 -13 -14 0 -10 -8 -19 -18 -22 -10 -2 -23 -18 -29
-34 -9 -23 -17 -29 -40 -29 l-28 0 33 -26 c30 -24 43 -54 23 -54 -5 0 -11 -9
-14 -20 -3 -11 -12 -20 -21 -20 -9 0 -16 -7 -16 -15 0 -8 -9 -15 -20 -15 -11
0 -20 -7 -20 -15 0 -9 -6 -18 -14 -21 -8 -3 -17 -17 -21 -32 -4 -15 -12 -30
-18 -34 -9 -6 -8 -11 3 -18 23 -15 40 -12 48 9 7 18 8 18 28 2 23 -18 40 -96
24 -106 -6 -3 -7 -18 -4 -32 5 -20 4 -24 -6 -18 -17 10 -3 -12 32 -54 30 -34
43 -39 52 -16 9 26 47 17 93 -22 87 -75 153 -142 153 -157 0 -8 4 -18 10 -21
6 -4 7 1 3 12 -6 16 -5 16 10 4 14 -11 15 -17 5 -30 -7 -9 -16 -19 -21 -22 -4
-3 4 -11 18 -19 14 -7 25 -19 25 -27 0 -17 -4 -16 -41 3 -28 14 -32 14 -49 -1
-12 -11 -20 -13 -25 -6 -9 16 -35 13 -35 -3 0 -23 -13 -26 -56 -14 -44 13 -76
36 -68 49 3 5 0 9 -6 9 -7 0 -10 6 -7 13 6 15 -12 41 -33 50 -12 4 -11 6 3 6
21 1 23 31 2 31 -8 0 -15 -4 -15 -9 0 -17 -40 -19 -50 -3 -8 14 -9 14 -10 2 0
-9 -3 -11 -8 -4 -4 5 -24 20 -44 33 -32 19 -38 20 -38 7 0 -21 -78 -22 -106
-1 -12 9 -14 14 -5 15 9 0 11 6 6 18 -12 29 -15 72 -5 72 6 0 10 8 9 18 0 10
-3 12 -6 4 -4 -9 -10 -9 -31 2 -15 8 -36 18 -47 21 -18 6 -18 8 -3 14 13 4 15
10 8 21 -7 10 -10 11 -10 3 0 -7 -4 -13 -10 -13 -17 0 -11 31 12 69 13 20 21
43 20 52 -3 17 66 82 78 74 4 -3 10 4 13 15 4 16 -2 24 -30 35 -25 10 -33 19
-29 30 5 13 2 14 -15 4 -12 -6 -18 -17 -15 -25 3 -9 2 -24 -4 -34 -5 -10 -11
-32 -12 -49 -2 -24 -6 -30 -20 -26 -10 3 -27 7 -37 11 -13 3 -18 11 -14 20 8
20 -17 66 -33 60 -6 -2 -22 3 -35 12 -23 15 -23 15 -10 -1 17 -21 11 -29 -23
-31 -14 0 -26 -5 -26 -9 0 -5 -7 -15 -15 -23 -16 -17 -35 -11 -35 11 0 7 -7
15 -15 19 -9 3 -15 0 -15 -10 0 -11 -5 -14 -16 -10 -14 5 -15 1 -10 -30 4 -19
10 -43 13 -52 5 -13 0 -11 -19 6 -13 12 -29 22 -36 22 -6 0 -25 15 -41 33 -17
17 -31 27 -31 20 0 -7 -7 -10 -15 -7 -8 4 -15 2 -15 -4 0 -6 -3 -17 -6 -26 -3
-9 -1 -16 5 -16 19 0 60 -53 61 -77 0 -12 15 -34 37 -52 20 -17 34 -33 30 -37
-3 -4 3 -14 15 -23 17 -15 19 -21 9 -39 -7 -12 -10 -26 -7 -31 3 -5 -3 -16
-14 -26 -18 -16 -20 -16 -26 -2 -3 9 1 24 11 33 13 14 14 19 3 25 -7 5 -20 9
-29 9 -19 0 -62 -44 -52 -54 4 -4 -1 -4 -10 0 -10 4 -16 13 -13 20 3 8 -8 18
-29 25 -19 7 -32 16 -29 20 3 5 -4 26 -16 48 -11 22 -20 42 -20 45 0 3 16 2
35 -1 25 -4 35 -2 35 7 0 8 7 21 15 30 14 16 14 17 -11 12 -27 -5 -27 -4 -20
37 4 25 2 41 -4 41 -5 0 -17 14 -26 31 -14 28 -14 35 -1 63 9 17 18 39 21 49
3 9 14 17 25 17 17 0 20 5 16 28 -12 76 -13 100 -4 109 7 7 5 20 -3 37 -10 24
-10 29 5 37 9 6 17 16 17 23 0 8 12 21 26 31 43 28 64 54 64 80 0 16 6 25 16
25 8 0 21 15 29 34 8 19 20 36 27 38 8 3 5 11 -9 25 -17 17 -33 21 -80 21 -73
0 -93 -6 -93 -23 0 -9 -6 -12 -16 -8 -10 4 -22 0 -29 -10 -11 -15 -15 -15 -51
3 -21 10 -60 22 -86 26 -40 5 -48 4 -48 -10 0 -15 -98 -69 -126 -69 -6 0 -11
-16 -10 -36 1 -32 -2 -36 -29 -42 -16 -4 -52 -7 -78 -8 -32 -1 -46 -5 -41 -12
7 -12 -15 -59 -28 -59 -5 0 -6 5 -3 11 4 6 -2 13 -13 16 -11 2 -30 19 -43 36
-12 18 -16 26 -7 19 14 -11 19 -10 32 9 20 29 14 35 -21 21 -15 -7 -49 -10
-75 -7 -26 2 -50 0 -53 -6 -4 -5 -21 -3 -41 6 -30 12 -38 13 -49 1 -8 -7 -11
-16 -8 -20 4 -3 1 -6 -5 -6 -6 0 -13 -9 -17 -20 -5 -16 -10 -17 -30 -10 -20 8
-27 6 -35 -10 -9 -16 -7 -20 7 -21 10 -1 23 0 28 1 6 1 27 4 48 6 22 1 47 10
57 19 10 9 24 14 31 9 6 -4 24 -7 40 -6 15 0 33 -6 40 -14 6 -8 17 -14 23 -14
7 0 12 -15 12 -36 0 -31 -3 -35 -22 -30 -18 5 -20 2 -16 -19 3 -17 0 -25 -10
-25 -15 0 -16 -6 -22 -105 -4 -60 -1 -75 21 -112 14 -24 29 -43 33 -43 10 0
44 -57 61 -104 12 -33 64 -78 94 -81 31 -2 56 -18 51 -32 -4 -11 -2 -13 9 -10
8 4 22 -4 34 -18 10 -14 23 -25 29 -25 6 0 12 -4 14 -8 2 -5 18 -12 37 -15 30
-6 32 -5 20 10 -11 13 -11 17 -2 20 10 3 10 10 2 24 -5 11 -7 24 -4 29 3 5 -4
14 -15 20 -20 11 -28 40 -11 40 15 0 19 49 5 61 -52 43 40 35 112 -10 53 -32
80 -39 86 -20 2 5 14 -1 27 -15 17 -18 20 -26 10 -26 -24 0 -39 -35 -29 -69 5
-20 5 -31 -1 -31 -6 0 -2 -12 9 -28 11 -15 22 -38 23 -52 3 -17 15 -30 36 -40
19 -9 32 -21 30 -30 -3 -17 55 -51 93 -54 38 -4 37 -4 45 -33 4 -18 2 -31 -7
-38 -22 -17 -38 -53 -32 -70 4 -10 0 -15 -15 -15 -14 0 -21 6 -21 18 0 11 -11
24 -25 30 -38 18 -47 15 -34 -10 9 -16 9 -23 1 -26 -7 -2 3 -19 22 -39 28 -30
36 -34 54 -24 15 8 23 8 27 0 5 -6 27 -8 62 -3 47 6 61 3 102 -19 55 -30 114
-28 132 4 5 11 18 19 27 19 10 0 28 7 40 16 12 8 26 13 32 9 5 -3 14 4 20 15
6 11 19 20 30 20 11 0 24 9 30 20 l11 21 30 -21 c16 -12 29 -27 29 -33 0 -7
19 -13 45 -15 25 -1 45 2 45 6 0 5 24 10 53 11 42 1 60 -3 91 -24 l37 -25 32
24 c39 29 84 38 91 20 7 -18 31 -18 46 1 7 8 16 15 21 15 9 0 24 -40 21 -57
-2 -7 6 -9 19 -6 18 5 20 3 15 -14 -7 -23 44 -66 68 -57 11 4 16 0 16 -15 0
-21 10 -27 24 -14 4 4 19 7 34 8 15 0 26 5 25 12 -2 7 9 11 26 11 38 -1 51 8
51 37 0 43 -10 55 -40 49 -21 -5 -31 -1 -43 16 -11 15 -21 20 -36 15 -14 -4
-23 0 -31 15 -8 14 -17 19 -33 15 -12 -3 -30 0 -41 8 -28 20 -13 53 28 61 22
4 37 15 44 31 6 14 19 25 27 25 9 0 13 5 10 10 -4 7 2 9 19 4 17 -4 26 -2 26
6 0 17 24 38 54 46 24 6 26 10 22 45 -7 57 15 78 84 80 84 3 108 9 113 31 5
17 9 18 27 8 34 -18 170 3 170 26 0 8 6 14 14 14 8 0 16 6 19 14 4 9 14 12 26
9 22 -6 28 -27 11 -38 -7 -4 -7 -11 -2 -18 5 -7 6 -21 1 -32 -4 -11 -8 -39 -8
-62 -1 -26 -6 -43 -13 -43 -9 0 -9 -3 0 -12 10 -10 15 -10 22 2 5 8 10 10 10
4 0 -6 11 -28 25 -48 13 -20 21 -36 18 -36 -4 0 2 -6 13 -14 11 -9 23 -11 30
-6 14 12 79 -8 100 -31 14 -16 12 -22 -25 -84 -44 -71 -48 -89 -29 -129 9 -22
8 -29 -6 -45 -17 -19 -17 -21 7 -43 24 -23 30 -44 28 -100 -1 -18 -7 -28 -16
-28 -19 0 -55 -36 -55 -55 0 -8 -5 -15 -11 -15 -8 0 -8 -4 0 -14 9 -10 8 -16
-4 -26 -9 -7 -18 -10 -22 -7 -10 10 -32 -40 -26 -61 3 -11 -6 -31 -23 -51
l-27 -32 22 -23 c11 -12 21 -29 21 -37 0 -12 2 -12 10 1 8 13 11 12 24 -5 21
-27 20 -42 -4 -50 -15 -5 -18 -11 -11 -22 6 -12 3 -21 -12 -33 -20 -16 -23
-16 -52 0 -27 15 -36 16 -62 5 -17 -7 -34 -18 -37 -24 -8 -12 20 -71 34 -71 6
0 9 3 8 8 -2 4 8 18 21 31 l24 24 19 -24 c19 -24 20 -24 15 -2 -6 28 11 34 46
16 16 -8 45 -13 65 -12 22 2 57 -6 85 -19 54 -24 68 -27 83 -12 15 15 94 -13
128 -47 43 -42 83 -66 96 -58 7 4 18 -2 26 -14 20 -27 54 -28 54 -1 0 15 7 20
29 20 27 0 28 2 27 43 l-1 42 50 1 c56 0 75 8 75 30 0 18 29 18 55 -2 17 -12
17 -16 6 -24 -21 -12 4 -40 36 -40 15 0 39 -14 61 -36 25 -25 47 -37 67 -38
23 -1 31 -6 33 -23 3 -22 0 -22 -61 -20 -55 2 -64 0 -57 -13 5 -9 2 -18 -8
-26 -14 -10 -15 -17 -4 -46 15 -42 15 -75 1 -83 -7 -5 -5 -15 5 -31 20 -29 21
-83 2 -109 -7 -11 -22 -48 -31 -83 -12 -43 -22 -61 -31 -58 -10 4 -11 -1 -4
-19 7 -18 6 -25 -2 -25 -6 0 -19 -7 -28 -15 -9 -8 -35 -16 -57 -18 -38 -2 -40
-3 -32 -25 10 -27 4 -42 -16 -42 -14 0 -65 -45 -65 -58 0 -18 -81 -92 -101
-92 -16 0 -20 -4 -15 -17 4 -10 4 -14 0 -11 -4 4 -15 3 -26 -3 -15 -8 -23 -5
-39 13 l-20 23 6 -25 c8 -30 32 -51 51 -43 11 4 14 -5 13 -38 -1 -24 -5 -51
-10 -60 -5 -9 -3 -21 3 -27 8 -8 7 -13 -5 -18 -10 -3 -17 -17 -17 -31 0 -15 5
-23 13 -20 6 2 11 10 10 16 -2 6 4 11 13 11 39 0 93 24 105 46 7 13 21 24 32
24 14 0 18 5 14 19 -2 10 0 26 5 35 7 12 5 22 -4 33 -10 13 -10 17 0 20 6 3
10 8 7 13 -3 5 6 7 20 5 14 -1 25 1 25 6 0 5 7 6 16 2 13 -5 15 -1 10 23 -6
25 -3 31 21 41 37 16 62 32 107 71 8 6 20 12 26 12 28 0 61 72 40 85 -13 8
-13 52 0 60 6 4 8 11 4 16 -3 5 -9 7 -13 4 -13 -8 -31 43 -31 90 0 38 2 43 20
38 13 -4 19 -11 16 -22 -10 -31 18 -49 82 -57 53 -6 62 -4 62 9 0 9 10 18 23
22 18 5 61 23 75 31 2 1 -3 11 -10 23 -8 13 -23 21 -40 21 -14 0 -33 7 -41 15
-8 8 -17 12 -20 9 -3 -4 -9 10 -12 29 -5 26 -11 34 -23 30 -10 -2 -26 3 -37
11 -18 14 -18 15 -2 16 19 0 23 15 7 25 -13 8 -9 95 4 95 11 0 56 48 56 61 0
5 7 9 15 9 8 0 24 9 35 20 11 11 29 20 40 20 24 0 70 21 70 32 0 4 11 8 23 8
18 0 28 9 39 38 13 34 13 40 -1 62 -15 22 -15 24 0 18 13 -5 18 0 21 23 4 26
2 29 -16 24 -12 -4 -31 -11 -44 -17 -16 -9 -25 -9 -34 0 -15 15 -52 -4 -44
-24 4 -9 -3 -18 -18 -24 -14 -5 -26 -19 -28 -32 -2 -15 -10 -23 -23 -23 -16 0
-20 6 -19 30 0 17 -4 33 -10 37 -6 4 5 8 25 8 26 0 44 8 63 26 14 15 26 31 26
35 0 5 9 9 19 9 20 0 71 53 71 73 0 7 14 12 33 12 31 0 32 1 33 44 0 32 6 48
22 62 12 9 22 27 22 38 0 12 14 40 30 63 24 32 30 37 30 20 0 -11 8 -23 18
-26 9 -3 23 -15 30 -27 12 -18 12 -23 0 -30 -18 -12 4 -12 36 1 14 5 26 16 26
25 0 19 11 19 35 1 17 -12 17 -14 -11 -30 -17 -10 -39 -34 -50 -54 -12 -22
-27 -36 -37 -36 -19 2 -23 -11 -7 -21 6 -4 4 -12 -5 -21 -8 -9 -15 -22 -15
-29 0 -8 -22 -32 -49 -53 -38 -30 -47 -42 -39 -55 6 -12 1 -25 -22 -49 -18
-18 -30 -41 -28 -52 1 -12 -4 -31 -11 -44 -6 -12 -9 -32 -5 -44 5 -16 3 -20
-9 -15 -11 4 -14 2 -11 -8 5 -11 -2 -13 -33 -8 -21 3 -46 10 -55 14 -9 5 -21
9 -27 9 -17 0 -13 -30 4 -36 8 -4 15 -11 15 -17 0 -6 7 -18 15 -27 8 -9 18
-39 21 -66 5 -30 17 -60 32 -79 l25 -30 -22 -3 -23 -4 21 -14 c28 -20 27 -34
-4 -34 -24 0 -31 -15 -26 -57 1 -6 -7 -14 -18 -18 -10 -3 -21 -15 -24 -25 -4
-15 -14 -20 -37 -20 -17 0 -29 -4 -26 -9 3 -5 24 -7 47 -4 35 5 41 3 46 -16 3
-11 13 -21 22 -21 9 0 22 -9 29 -20 10 -17 10 -21 -3 -26 -17 -7 -4 -38 27
-64 22 -17 17 -60 -8 -81 -12 -9 -11 -15 6 -36 22 -28 26 -59 10 -65 -6 -2 1
-19 15 -37 19 -27 23 -42 19 -71 -5 -31 -2 -37 19 -49 17 -9 26 -24 29 -47 2
-19 0 -34 -6 -34 -5 0 -2 -8 6 -17 28 -32 55 -98 52 -128 -1 -16 -3 -40 -3
-52 -1 -13 -7 -23 -16 -23 -21 0 -19 -17 10 -79 14 -30 24 -55 23 -55 -46 -24
-59 -28 -73 -23 -23 9 -40 -39 -21 -59 11 -10 15 -11 18 -2 3 8 15 2 33 -16
23 -23 34 -27 61 -23 24 4 37 0 52 -16 11 -12 17 -28 15 -34 -3 -7 1 -13 7
-13 20 0 70 -40 70 -56 0 -8 -4 -12 -10 -9 -5 3 -10 -1 -10 -9 0 -21 19 -30
26 -13 3 8 15 18 27 22 l22 8 -23 4 c-16 3 -22 10 -18 19 3 8 -1 26 -10 40
-10 15 -12 24 -5 24 6 0 11 -4 11 -8 0 -17 30 -8 35 9 6 18 8 18 42 -1 19 -10
41 -16 49 -13 8 3 25 2 39 -1 19 -5 25 -13 25 -34 0 -37 41 -78 67 -67 10 4
36 9 58 10 63 4 71 11 67 51 -4 29 -1 36 17 41 12 3 21 13 21 25 0 11 9 22 20
25 13 3 20 14 20 28 0 13 5 25 10 27 6 2 3 24 -8 56 l-19 52 -25 -20 c-33 -26
-43 -25 -55 2 -8 19 -16 22 -60 19 -44 -2 -55 2 -86 28 -19 17 -41 31 -50 31
-8 0 -20 7 -27 15 -10 12 -16 13 -27 3 -11 -9 -17 -9 -25 3 -7 11 -11 11 -15
2 -6 -15 -33 -17 -33 -3 0 6 -7 10 -15 10 -12 0 -13 -3 -3 -19 9 -15 8 -22 -6
-37 -10 -9 -22 -28 -27 -41 -9 -24 -24 -30 -34 -13 -3 6 -1 10 4 10 14 0 14
27 0 35 -5 4 -15 -7 -22 -24 -8 -23 -17 -31 -32 -29 -15 2 -20 11 -20 36 -1
27 3 32 17 29 10 -3 18 -2 19 1 0 4 2 17 3 29 2 13 6 26 9 30 4 3 0 14 -8 23
-12 14 -13 23 -5 46 9 22 13 25 20 14 5 -8 12 -11 15 -8 4 4 17 3 30 -2 17 -6
27 -5 35 6 7 7 19 14 26 14 15 0 39 46 35 67 -1 6 3 14 8 17 5 4 5 21 -1 43
-18 70 -20 89 -10 74 7 -10 11 -10 17 -1 8 13 -33 62 -46 54 -9 -5 -12 7 -10
42 2 26 -38 54 -79 54 -31 0 -43 23 -16 33 8 3 16 16 19 29 4 20 4 19 6 -5 1
-21 5 -28 19 -25 9 2 16 11 16 21 -1 9 2 17 7 17 4 0 5 27 3 61 -4 39 -1 65 6
75 10 11 10 17 1 28 -15 18 1 30 29 21 12 -4 20 -2 20 5 0 7 -9 14 -20 17 -15
4 -18 9 -10 18 8 9 2 16 -20 27 -16 8 -43 33 -60 56 l-30 42 36 15 c30 12 35
19 30 37 -3 13 -11 50 -17 83 -7 33 -15 64 -19 68 -3 4 -3 36 2 70 5 37 5 73
-1 89 -7 18 -7 28 0 28 5 0 20 12 33 27 18 21 21 31 13 44 -6 9 -18 14 -29 11
-10 -2 -18 0 -18 6 0 6 -3 17 -6 26 -4 11 -1 16 11 16 12 0 15 5 11 16 -4 10
-1 14 6 12 14 -5 48 22 48 38 0 14 61 28 69 16 13 -20 47 -30 64 -21 22 13 57
2 57 -16 0 -8 -9 -17 -20 -20 -24 -7 -25 -18 -6 -34 12 -10 14 -8 9 11 -4 20
-3 21 9 8 7 -9 20 -14 28 -13 8 2 26 -6 40 -17 20 -16 22 -20 8 -20 -11 0 -18
-8 -18 -19 0 -11 -9 -22 -19 -26 -27 -8 -33 -32 -16 -65 8 -16 15 -39 15 -52
0 -13 7 -32 15 -42 21 -27 19 -35 -10 -46 -19 -7 -25 -17 -25 -41 0 -22 -5
-32 -20 -36 -13 -3 -20 -14 -20 -29 0 -15 -6 -24 -15 -24 -10 0 -15 -10 -15
-30 0 -16 -8 -38 -18 -48 -17 -17 -17 -19 5 -42 13 -14 23 -30 23 -37 0 -7 8
-13 18 -13 10 0 23 -5 28 -10 7 -7 17 -3 32 10 12 11 35 23 52 27 36 7 48 21
26 29 -18 7 -23 74 -5 74 6 0 -8 21 -30 46 -30 34 -41 56 -41 79 0 37 28 57
42 30 8 -14 11 -14 31 0 12 8 29 15 39 15 12 0 18 8 18 22 0 21 1 21 28 -6 26
-24 30 -25 42 -11 7 8 20 13 30 10 24 -8 52 28 48 62 l-3 28 115 0 c95 0 115
-3 116 -15 1 -41 16 -59 52 -65 20 -3 57 -11 82 -18 41 -12 45 -16 48 -47 2
-19 8 -40 13 -47 6 -6 11 -29 12 -50 1 -21 6 -41 11 -45 14 -9 45 13 39 29 -8
20 1 16 33 -14 29 -27 29 -27 32 -5 4 27 22 19 22 -9 0 -16 6 -19 28 -17 22 3
27 -1 26 -19 -1 -19 2 -21 18 -12 14 8 18 18 14 40 -2 16 0 31 5 35 5 3 2 18
-7 33 -12 21 -22 27 -37 23 -17 -4 -19 -2 -13 21 4 18 1 29 -10 35 -13 7 -13
13 -3 36 10 22 10 29 0 35 -9 6 -10 13 -2 27 5 11 13 45 16 76 6 50 10 59 33
70 20 10 28 22 30 46 3 29 5 31 24 21 17 -9 24 -8 37 9 9 11 22 21 29 24 10 2
8 11 -9 32 -20 25 -20 29 -7 37 12 7 14 17 9 41 -10 47 -3 72 15 57 15 -12 16
-11 18 44 2 31 0 32 -21 12 -16 -17 -33 -12 -33 11 0 8 10 14 23 14 34 0 67
40 67 79 0 28 -3 32 -17 26 -68 -28 -74 -29 -93 -17 -13 8 -21 8 -26 1 -4 -7
-12 -4 -24 6 -10 9 -27 18 -37 19 -10 2 -17 6 -15 9 1 4 2 16 2 27 0 10 18 38
41 62 50 53 66 87 72 159 4 44 1 62 -14 85 -14 21 -19 47 -19 99 0 101 -7 118
-40 111 -24 -4 -27 -2 -27 20 0 13 -8 33 -16 42 -15 17 -15 19 6 37 18 16 19
20 6 23 -13 2 -15 12 -11 48 4 38 1 49 -20 72 -20 21 -25 37 -24 69 0 23 4 45
9 49 4 4 7 23 7 43 0 51 10 81 26 81 12 0 12 4 2 21 -11 18 -10 23 10 36 27
19 28 29 2 36 -15 4 -22 -1 -26 -20 -4 -13 -16 -35 -28 -47 -11 -12 -25 -30
-31 -39 -7 -12 -33 -19 -89 -26 -64 -8 -83 -14 -96 -32 -16 -21 -20 -21 -86
-10 -38 7 -74 17 -81 23 -7 5 -17 7 -22 4 -6 -4 -32 9 -60 28 -59 42 -111 47
-111 11 0 -12 -8 -29 -18 -39 -18 -15 -20 -15 -37 4 -10 11 -21 20 -25 20 -4
0 -6 -29 -5 -64 3 -60 1 -66 -21 -81 -44 -28 -124 3 -124 48 0 15 -3 17 -13 8
-8 -6 -17 -7 -22 -3 -4 4 -5 -2 -1 -13 3 -11 2 -26 -3 -34 -7 -11 -10 -9 -16
8 -7 23 -13 25 -33 12 -11 -6 -11 -17 -4 -45 10 -34 9 -36 -13 -36 -19 0 -23
-4 -20 -21 2 -12 9 -27 16 -35 17 -21 3 -73 -27 -101 -14 -13 -27 -23 -29 -21
-1 2 -7 13 -14 25 -7 14 -17 20 -29 16 -14 -3 -23 5 -35 30 -10 19 -17 44 -17
56 0 12 -4 21 -10 21 -5 0 -10 -5 -10 -10 0 -6 -18 -1 -40 10 -22 11 -40 25
-40 30 0 6 -4 10 -9 10 -5 0 -8 -11 -6 -25 3 -31 -24 -49 -66 -43 -15 3 -25 0
-22 -5 3 -5 -7 -6 -25 -2 -27 6 -31 4 -34 -20 -4 -32 -22 -38 -26 -7 -4 23
-36 47 -51 37 -5 -3 -18 6 -29 20 -11 14 -24 25 -28 25 -5 0 -22 7 -38 15 -15
8 -32 12 -37 9 -15 -9 -63 26 -51 38 6 6 6 19 -1 38 -8 20 -8 39 0 64 10 34 2
59 -12 36 -12 -19 -25 -10 -25 19 0 27 -14 41 -41 41 -5 0 -19 -15 -30 -34
-26 -45 -63 -52 -140 -26 -53 18 -121 22 -135 7 -3 -2 -6 -17 -8 -31 -4 -37
-21 -53 -40 -37 -12 10 -17 8 -26 -10 -10 -17 -18 -20 -45 -16 -18 3 -37 1
-43 -5 -6 -6 -19 -5 -38 6 -16 8 -25 15 -20 16 16 0 -17 31 -48 44 -17 8 -56
37 -86 65 -57 54 -86 71 -123 71 -11 0 -30 9 -41 19 -12 11 -34 23 -50 27 -27
7 -29 6 -22 -20 4 -16 1 -37 -9 -56 -8 -16 -15 -38 -15 -48 0 -10 -11 -24 -26
-30 -19 -9 -24 -17 -19 -32 5 -15 2 -20 -13 -20 -22 0 -55 -33 -45 -45 10 -9
-39 4 -50 15 -5 4 -5 44 -2 89 l8 81 29 0 c28 0 29 1 26 43 -2 35 -7 43 -25
45 -17 3 -21 -1 -17 -12 11 -28 -66 -7 -95 27 -18 20 -37 30 -59 31 -33 1 -56
22 -45 40 3 5 -2 15 -12 23 -18 12 -17 13 7 13 34 0 42 13 27 41 l-11 22 28
-20 c16 -12 34 -21 39 -21 13 0 51 28 100 72 21 20 48 36 59 36 12 1 39 19 61
40 22 22 45 40 51 40 13 0 24 22 24 46 0 8 -6 14 -13 14 -8 0 -27 11 -43 25
-16 14 -35 25 -41 25 -18 0 -16 15 3 34 14 15 14 17 -3 22 -10 3 -26 10 -35
15 -10 5 -24 9 -31 9 -19 0 -67 53 -67 74 0 19 -23 46 -39 46 -5 0 -18 11 -29
25 l-20 25 -22 -27z m-240 -557 c0 -21 38 -8 45 15 8 24 14 23 45 -1 14 -11
32 -20 41 -20 15 0 33 -43 22 -53 -2 -2 -24 7 -50 19 -25 13 -48 23 -50 21 -1
-2 -5 -21 -8 -42 -5 -42 -13 -55 -23 -39 -9 14 -62 27 -62 16 0 -5 -11 -14
-25 -20 -21 -10 -29 -8 -52 12 -25 21 -26 25 -11 39 14 14 17 14 22 2 3 -8 11
-15 17 -15 8 0 8 4 1 13 -7 8 -7 18 -2 27 6 9 3 18 -7 25 -13 10 -10 12 18 12
18 0 35 5 37 11 5 16 42 -4 42 -22z m-156 -41 c-6 -16 -24 -21 -24 -7 0 11 11
22 21 22 5 0 6 -7 3 -15z m40 -80 c4 -10 -1 -15 -14 -15 -20 0 -26 11 -13 23
10 11 20 8 27 -8z m1602 -392 c-7 -7 -26 7 -26 19 0 6 6 6 15 -2 9 -7 13 -15
11 -17z m70 -2 c-3 -5 4 -11 15 -14 14 -4 20 -11 16 -20 -5 -14 42 -57 62 -57
16 0 36 -43 22 -48 -15 -5 -14 -29 2 -35 9 -4 9 -6 0 -6 -6 -1 -15 4 -18 9 -9
14 -25 12 -25 -2 0 -7 -13 -20 -29 -30 -25 -14 -32 -14 -48 -2 -24 18 -44 18
-37 -1 4 -9 0 -15 -9 -15 -8 0 -18 6 -20 13 -3 6 -6 3 -6 -8 -1 -16 -3 -17
-10 -5 -6 8 -7 18 -4 22 2 5 -2 20 -11 33 -9 13 -16 38 -16 56 0 28 -3 31 -25
27 -17 -4 -25 -1 -25 8 0 8 5 14 11 14 5 0 7 5 3 12 -5 7 0 9 14 6 15 -4 22 0
26 16 5 21 5 21 21 1 14 -19 16 -19 26 -2 5 9 17 17 24 17 8 0 15 5 15 10 0 6
7 10 16 10 8 0 13 -4 10 -9z m-906 -143 c24 -40 25 -54 3 -62 -20 -8 -63 30
-57 50 2 8 6 21 9 29 7 24 24 18 45 -17z m250 -4 c0 -8 -4 -12 -10 -9 -5 3
-10 10 -10 16 0 5 5 9 10 9 6 0 10 -7 10 -16z m-1230 -144 c0 -5 -2 -10 -4
-10 -3 0 -8 5 -11 10 -3 6 -1 10 4 10 6 0 11 -4 11 -10z m1824 -974 c-5 -13
-10 -14 -20 -5 -7 6 -18 8 -24 4 -5 -3 -10 1 -10 10 0 21 42 37 53 20 4 -7 4
-21 1 -29z m346 -302 c0 -9 -5 -14 -12 -12 -18 6 -21 28 -4 28 9 0 16 -7 16
-16z m-10 -55 c0 -5 -5 -9 -12 -9 -6 0 -8 3 -5 7 4 3 1 13 -6 22 -11 14 -10
14 6 2 9 -7 17 -17 17 -22z m-160 -9 c0 -5 -2 -10 -4 -10 -3 0 -8 5 -11 10 -3
6 -1 10 4 10 6 0 11 -4 11 -10z"/>
<path d="M8075 12149 c3 -3 -11 -17 -30 -30 -40 -28 -43 -39 -14 -57 12 -8 18
-9 14 -3 -3 6 1 11 9 11 9 0 16 5 16 11 0 6 9 8 23 4 16 -5 18 -4 7 4 -12 8
-10 14 13 35 15 14 27 26 27 28 0 2 -16 3 -35 4 -18 0 -32 -3 -30 -7z"/>
<path d="M9752 12068 c-7 -7 -12 -23 -12 -36 0 -34 30 -25 47 16 12 29 11 32
-5 32 -10 0 -23 -5 -30 -12z"/>
<path d="M7970 12040 c0 -5 5 -10 10 -10 6 0 10 5 10 10 0 6 -4 10 -10 10 -5
0 -10 -4 -10 -10z"/>
<path d="M7972 12001 c-8 -4 -10 -15 -6 -26 7 -17 8 -16 16 5 10 27 7 32 -10
21z"/>
<path d="M9765 11980 c3 -5 13 -10 21 -10 8 0 12 5 9 10 -3 6 -13 10 -21 10
-8 0 -12 -4 -9 -10z"/>
<path d="M10084 11871 c2 -24 8 -47 13 -52 13 -13 8 54 -6 76 -11 17 -12 14
-7 -24z"/>
<path d="M10130 11802 c0 -4 7 -18 16 -30 12 -18 13 -26 4 -37 -7 -8 -16 -12
-21 -9 -5 3 -8 -3 -7 -13 3 -42 -3 -61 -24 -70 -23 -11 -23 -11 7 -24 27 -12
61 -44 137 -129 13 -14 24 -35 25 -47 2 -28 38 -64 50 -52 6 6 24 4 46 -6 l37
-15 -10 26 c-13 33 -13 34 5 34 37 0 46 100 11 116 -14 6 -23 22 -27 46 -3 21
-13 46 -22 56 -10 10 -17 25 -17 33 -1 10 -3 9 -11 -3 -12 -22 -39 -24 -39 -3
0 8 -4 15 -10 15 -5 0 -10 -7 -10 -15 0 -19 -23 -19 -59 -1 -30 16 -59 46 -44
46 11 0 10 48 -1 73 -8 17 -36 24 -36 9z"/>
<path d="M8485 11580 c-3 -5 -2 -10 4 -10 5 0 13 5 16 10 3 6 2 10 -4 10 -5 0
-13 -4 -16 -10z"/>
<path d="M9732 11546 l-32 -33 31 -7 c38 -7 49 -1 49 27 0 44 -14 47 -48 13z"/>
<path d="M12530 11470 c0 -5 7 -7 15 -4 8 4 15 8 15 10 0 2 -7 4 -15 4 -8 0
-15 -4 -15 -10z"/>
<path d="M12468 11458 c5 -5 16 -8 23 -6 8 3 3 7 -10 11 -17 4 -21 3 -13 -5z"/>
<path d="M8349 11403 c0 -5 -2 -16 -4 -25 -4 -23 8 -23 29 1 15 17 15 19 1 25
-21 8 -25 8 -26 -1z"/>
<path d="M9566 10955 c-3 -9 1 -18 10 -22 21 -8 25 -1 9 20 -11 15 -13 16 -19
2z"/>
<path d="M7831 10804 c0 -11 3 -14 6 -6 3 7 2 16 -1 19 -3 4 -6 -2 -5 -13z"/>
<path d="M9610 10300 c-22 -4 -29 -9 -20 -12 43 -17 50 -16 60 2 6 11 7 19 3
19 -4 -1 -24 -5 -43 -9z"/>
<path d="M11030 10155 c-7 -8 -16 -12 -21 -9 -5 3 -9 1 -9 -5 0 -5 5 -13 10
-16 6 -4 9 -14 8 -22 -2 -9 3 -18 11 -21 10 -3 12 1 8 18 -3 12 -2 33 3 46 11
28 8 30 -10 9z"/>
<path d="M9340 10077 c0 -23 -20 -30 -52 -18 -20 7 -28 7 -31 -3 -9 -23 -59
-27 -87 -7 -38 27 -87 33 -122 15 -16 -8 -36 -13 -43 -10 -7 2 -23 -6 -36 -20
-13 -13 -36 -31 -53 -39 -26 -13 -32 -13 -53 0 -13 9 -28 13 -33 10 -5 -3 -11
-1 -15 5 -5 9 -47 5 -68 -7 -4 -2 -2 -13 4 -25 8 -15 8 -19 0 -13 -6 3 -24 4
-40 0 -27 -6 -28 -7 -29 -79 -2 -60 2 -77 18 -96 11 -12 17 -26 15 -30 -7 -11
74 -4 107 9 14 5 29 18 32 28 6 18 59 47 84 46 6 -1 12 10 12 23 0 13 9 29 20
36 11 7 20 18 20 24 0 18 29 26 92 27 34 0 63 -5 73 -13 20 -17 52 -19 79 -6
14 6 23 4 31 -7 16 -22 54 -10 66 20 5 14 19 27 30 30 14 4 19 12 16 24 -4 14
2 20 28 25 44 8 36 34 -11 34 -21 0 -37 6 -43 18 -10 16 -10 16 -11 -1z"/>
<path d="M9464 10039 c-7 -12 15 -31 28 -23 4 3 8 12 8 20 0 17 -26 19 -36 3z"/>
<path d="M9620 9895 c-7 -9 -11 -18 -8 -20 8 -9 36 5 42 21 7 19 -18 18 -34
-1z"/>
<path d="M9580 9863 c-1 -24 -18 -35 -39 -24 -31 17 -25 -2 9 -27 21 -16 28
-18 24 -7 -4 10 -2 14 7 10 8 -3 20 -1 28 4 10 7 11 13 2 30 -11 20 -31 29
-31 14z"/>
<path d="M9684 9852 c5 -15 2 -21 -11 -24 -16 -3 -15 -7 8 -28 14 -14 28 -33
32 -42 9 -24 23 -23 42 5 15 21 17 21 29 4 13 -16 14 -16 20 -1 9 22 -30 64
-55 59 -10 -2 -24 4 -31 14 -7 9 -19 21 -27 25 -10 7 -12 4 -7 -12z"/>
<path d="M9790 9730 c0 -5 5 -10 11 -10 5 0 7 5 4 10 -3 6 -8 10 -11 10 -2 0
-4 -4 -4 -10z"/>
<path d="M8645 9710 c-3 -5 3 -10 14 -10 11 0 23 5 26 10 3 6 -3 10 -14 10
-11 0 -23 -4 -26 -10z"/>
<path d="M8615 9680 c-3 -5 -1 -10 4 -10 6 0 11 5 11 10 0 6 -2 10 -4 10 -3 0
-8 -4 -11 -10z"/>
<path d="M10765 9640 c11 -12 13 -20 6 -20 -7 0 -9 -5 -5 -11 4 -7 10 -7 16
-1 12 12 -7 52 -24 52 -6 0 -3 -9 7 -20z"/>
<path d="M8526 9611 c-4 -7 -5 -15 -2 -18 9 -9 19 4 14 18 -4 11 -6 11 -12 0z"/>
<path d="M10826 9588 c3 -5 10 -6 15 -3 13 9 11 12 -6 12 -8 0 -12 -4 -9 -9z"/>
<path d="M11616 9537 c-14 -10 -16 -16 -7 -22 15 -9 35 8 30 24 -3 8 -10 7
-23 -2z"/>
<path d="M11587 9502 c-3 -4 6 -20 19 -35 17 -20 24 -24 24 -12 0 35 -30 69
-43 47z"/>
<path d="M10846 9481 c-4 -7 -5 -15 -2 -18 9 -9 19 4 14 18 -4 11 -6 11 -12 0z"/>
<path d="M12360 9408 c0 -11 28 -10 35 1 3 6 -4 9 -15 8 -11 -1 -20 -5 -20 -9z"/>
<path d="M11611 9374 c0 -11 3 -14 6 -6 3 7 2 16 -1 19 -3 4 -6 -2 -5 -13z"/>
<path d="M12573 9374 c-4 -11 -14 -14 -33 -10 -33 6 -64 -22 -54 -49 4 -10 1
-20 -6 -25 -16 -10 46 -51 66 -43 7 2 22 -1 34 -7 16 -8 25 -9 33 -1 7 7 29
-9 74 -53 34 -35 63 -68 63 -75 0 -6 5 -11 11 -11 5 0 8 -4 5 -9 -3 -5 8 -14
25 -20 31 -10 31 -10 26 17 -17 85 -68 189 -88 177 -4 -3 -17 7 -29 22 -12 15
-17 29 -11 31 7 2 6 12 -1 28 -7 15 -17 23 -25 19 -8 -2 -27 2 -43 10 -36 19
-39 19 -47 -1z"/>
<path d="M12405 9369 c6 -9 4 -11 -7 -6 -9 3 -24 -3 -33 -13 -15 -17 -16 -27
-8 -68 9 -47 9 -49 -13 -46 -17 1 -21 -2 -17 -17 3 -12 14 -19 29 -19 19 0 24
5 24 27 0 25 0 26 20 8 20 -18 20 -17 20 13 0 17 5 34 10 37 6 4 8 10 5 15 -3
5 -1 11 4 14 14 9 1 45 -21 57 -16 9 -19 8 -13 -2z"/>
<path d="M11655 9343 c16 -13 17 -15 3 -10 -20 7 -25 -12 -7 -30 15 -15 -11
-55 -31 -48 -11 5 -11 2 3 -12 14 -14 21 -15 36 -6 15 10 21 10 25 0 5 -9 7
-9 12 1 3 6 10 10 15 6 5 -3 9 -1 9 4 0 6 -7 12 -15 16 -11 4 -14 13 -9 31 7
29 -18 65 -45 65 -13 -1 -12 -4 4 -17z"/>
<path d="M11570 9286 c0 -2 7 -6 15 -10 8 -3 15 -1 15 4 0 6 -7 10 -15 10 -8
0 -15 -2 -15 -4z"/>
<path d="M12435 9250 c3 -5 8 -10 11 -10 2 0 4 5 4 10 0 6 -5 10 -11 10 -5 0
-7 -4 -4 -10z"/>
<path d="M12770 9052 c0 -14 35 -34 44 -25 10 10 7 25 -4 18 -6 -4 -17 -1 -25
5 -10 8 -15 9 -15 2z"/>
<path d="M9859 8903 c-16 -4 -33 -42 -24 -51 2 -2 12 1 22 7 10 6 14 11 10 11
-4 0 -3 9 3 20 6 11 9 19 8 19 -2 -1 -10 -3 -19 -6z"/>
<path d="M9945 8870 c3 -5 11 -10 16 -10 6 0 7 5 4 10 -3 6 -11 10 -16 10 -6
0 -7 -4 -4 -10z"/>
<path d="M9850 8839 c0 -5 7 -9 16 -9 11 0 15 -6 11 -20 -3 -12 -1 -17 5 -14
5 3 8 -2 6 -11 -2 -10 3 -20 10 -22 15 -6 17 33 1 42 -6 4 -8 13 -5 20 3 8 -5
15 -20 18 -13 2 -24 0 -24 -4z"/>
<path d="M10010 8791 c0 -6 4 -13 10 -16 6 -3 7 1 4 9 -7 18 -14 21 -14 7z"/>
<path d="M10056 8756 c5 -13 1 -15 -24 -10 l-30 6 11 -42 c10 -37 9 -43 -7
-56 -17 -12 -17 -14 -3 -20 10 -3 24 -4 32 -1 8 4 17 2 20 -4 4 -5 10 -7 15
-4 5 3 11 1 15 -4 11 -19 35 1 35 29 0 16 5 32 11 35 6 4 7 14 4 24 -4 9 -8
25 -9 36 -1 16 -9 21 -38 23 -31 3 -37 0 -32 -12z"/>
<path d="M12128 8740 c-22 -21 -23 -50 -3 -50 18 0 28 20 23 48 -3 18 -4 18
-20 2z"/>
<path d="M12160 8723 c0 -17 3 -38 6 -47 8 -21 32 -20 30 1 -1 12 9 19 29 23
24 4 30 10 30 30 0 23 -4 25 -47 25 -47 0 -48 -1 -48 -32z"/>
<path d="M9945 8740 c-8 -13 5 -13 25 0 13 8 13 10 -2 10 -9 0 -20 -4 -23 -10z"/>
<path d="M9910 8670 c0 -11 -4 -20 -10 -20 -5 0 -10 -7 -10 -15 0 -8 7 -15 15
-15 10 0 15 11 15 35 0 19 -2 35 -5 35 -3 0 -5 -9 -5 -20z"/>
<path d="M12109 8611 c-24 -11 -34 -21 -31 -33 2 -13 -3 -18 -20 -18 -13 -1
-34 -7 -47 -14 -23 -13 -23 -13 -2 -19 11 -3 21 -1 21 5 0 6 11 8 24 6 17 -4
28 3 42 23 10 15 29 31 41 34 23 5 30 20 16 28 -5 2 -24 -3 -44 -12z"/>
<path d="M9900 8599 c0 -5 5 -7 10 -4 6 3 10 8 10 11 0 2 -4 4 -10 4 -5 0 -10
-5 -10 -11z"/>
<path d="M11810 8539 c0 -5 5 -7 10 -4 6 3 10 8 10 11 0 2 -4 4 -10 4 -5 0
-10 -5 -10 -11z"/>
<path d="M11865 8540 c-3 -5 -2 -10 4 -10 5 0 13 5 16 10 3 6 2 10 -4 10 -5 0
-13 -4 -16 -10z"/>
<path d="M11775 8529 c-11 -17 1 -21 15 -4 8 9 8 15 2 15 -6 0 -14 -5 -17 -11z"/>
<path d="M11912 8531 c-11 -7 -11 -9 0 -13 18 -7 39 2 32 13 -6 11 -15 11 -32
0z"/>
<path d="M12030 8438 c0 -8 -13 -27 -30 -41 -16 -15 -30 -32 -30 -37 0 -6 -9
-10 -20 -10 -11 0 -20 -4 -20 -9 0 -11 25 -21 52 -21 12 0 22 -8 25 -20 5 -20
59 -51 96 -55 23 -2 22 22 -2 37 -16 10 -17 14 -5 25 8 8 18 11 24 8 5 -3 10
-2 10 4 0 5 -16 22 -35 37 -22 16 -35 35 -35 49 0 12 -7 28 -15 35 -12 10 -15
10 -15 -2z"/>
<path d="M11936 8274 c-6 -21 -11 -25 -31 -20 -14 4 -27 1 -31 -6 -4 -7 -4
-10 1 -6 4 4 16 3 26 -2 13 -8 24 -5 44 13 24 20 25 24 12 35 -12 10 -16 8
-21 -14z"/>
<path d="M11987 8283 c-4 -3 -7 -17 -7 -30 0 -12 -5 -23 -12 -23 -9 0 -9 -3 0
-12 17 -17 15 -45 -3 -52 -18 -7 -9 -36 12 -36 8 0 11 5 7 11 -4 8 0 8 15 0
14 -8 21 -8 21 -1 0 5 11 10 25 10 18 0 26 7 31 26 7 29 -12 74 -32 74 -7 0
-22 9 -32 20 -10 11 -22 17 -25 13z"/>
<path d="M11290 8256 c0 -2 7 -9 15 -16 13 -11 14 -10 9 4 -5 14 -24 23 -24
12z"/>
<path d="M11750 8196 c-14 -7 -52 -16 -85 -20 -60 -7 -101 -26 -56 -26 20 0
22 -3 15 -32 -16 -72 -9 -90 39 -112 23 -11 49 -26 59 -34 11 -9 18 -10 23 -2
5 8 10 8 20 0 21 -17 45 -2 36 23 -4 12 -6 45 -4 72 2 28 4 60 4 73 1 12 5 22
9 22 4 0 10 9 13 19 8 31 -30 40 -73 17z"/>
<path d="M11233 8133 c-4 -10 -11 -22 -17 -26 -7 -6 -6 -7 3 -5 13 4 37 48 25
48 -2 0 -8 -8 -11 -17z"/>
<path d="M11630 7966 c0 -7 -10 -17 -22 -20 -22 -7 -22 -7 -3 -15 23 -10 30
-5 40 27 4 13 2 22 -4 22 -6 0 -11 -6 -11 -14z"/>
<path d="M11526 7850 c-30 -33 -40 -39 -55 -31 -12 7 -21 7 -28 0 -5 -5 -30
-12 -55 -14 -27 -2 -63 -14 -87 -29 -37 -23 -44 -25 -64 -13 -12 8 -28 13 -34
12 -7 -2 -18 -3 -24 -4 -5 0 -7 -5 -4 -11 8 -12 -7 -13 -21 -1 -5 4 -24 11
-41 14 -30 6 -33 4 -33 -18 0 -14 -11 -35 -25 -47 -14 -12 -25 -29 -25 -37 0
-13 -12 -16 -75 -13 -68 3 -75 1 -75 -16 0 -16 -45 -66 -53 -59 -7 5 -40 -36
-57 -68 -12 -24 -13 -32 -4 -28 17 6 30 -43 16 -60 -14 -16 -4 -57 13 -57 23
0 65 -41 65 -63 0 -14 10 -27 27 -34 36 -17 73 -16 73 1 0 24 17 27 56 11 35
-15 37 -17 21 -32 -11 -11 -30 -16 -57 -15 -38 3 -41 1 -47 -30 -4 -18 -6 -37
-4 -43 7 -20 0 -68 -15 -96 l-15 -29 32 2 c28 3 32 0 36 -26 2 -16 1 -36 -3
-45 -24 -51 22 -101 93 -101 30 0 48 -7 73 -30 33 -29 57 -40 45 -20 -3 6 5
14 19 20 14 5 26 15 26 21 0 8 7 6 18 -4 20 -18 42 -22 42 -8 0 5 33 12 73 16
49 5 77 13 89 25 9 10 14 21 11 24 -4 3 33 5 80 3 48 -2 87 -1 87 2 0 2 -7 12
-16 22 -15 17 -14 19 21 33 21 9 46 16 56 16 11 0 19 6 19 13 0 16 126 15 157
-1 25 -14 36 -5 23 18 -5 10 -13 44 -16 76 -4 33 -11 65 -17 72 -6 7 -11 25
-13 40 -6 61 -10 71 -36 91 -14 12 -38 21 -52 21 -24 0 -25 -2 -16 -20 12 -23
8 -25 -23 -9 -31 16 -66 61 -60 76 3 7 -1 20 -8 29 -7 9 -14 26 -16 37 -8 64
-16 87 -35 112 -16 21 -21 39 -19 80 1 45 -2 56 -20 69 -28 19 -34 69 -13 101
14 22 37 95 29 95 -1 0 -19 -18 -39 -40z m-456 -610 c0 -5 -2 -10 -4 -10 -3 0
-8 5 -11 10 -3 6 -1 10 4 10 6 0 11 -4 11 -10z"/>
</g>
</svg>
