<?xml version="1.0" standalone="no"?>
<!DOCTYPE svg PUBLIC "-//W3C//DTD SVG 20010904//EN"
 "http://www.w3.org/TR/2001/REC-SVG-20010904/DTD/svg10.dtd">
<svg version="1.0" xmlns="http://www.w3.org/2000/svg"
 width="553.041167pt" height="659.743334pt" viewBox="0 0 553.041167 659.743334"
 preserveAspectRatio="xMidYMid meet">
<metadata>
Created by potrace 1.15, written by Peter Selinger 2001-2017
</metadata>
<g transform="translate(-777.456579,1307.906589) scale(0.100000,-0.100000)"
fill="#222222" stroke="none">
<path d="M9020 13071 c0 -8 -7 -11 -20 -8 -11 3 -20 1 -20 -4 0 -5 -7 -9 -15
-9 -8 0 -15 -6 -15 -14 0 -8 -13 -19 -30 -25 -27 -9 -35 -20 -27 -37 3 -8 -93
-53 -129 -60 -24 -4 -36 -1 -52 16 -11 12 -28 20 -39 18 -15 -4 -14 -6 8 -17
41 -20 67 -99 39 -116 -6 -3 -17 -19 -25 -35 -14 -27 -13 -32 10 -76 24 -46
26 -69 4 -47 -15 15 -49 -5 -42 -24 3 -8 -2 -13 -12 -13 -13 0 -15 -4 -8 -12
25 -31 21 -59 -14 -111 -19 -29 -43 -56 -53 -61 -25 -11 -33 -35 -15 -42 11
-5 12 -11 2 -32 -6 -15 -18 -32 -26 -38 -11 -9 -12 -17 -1 -48 21 -65 -8 -153
-66 -200 -25 -19 -38 -38 -36 -48 2 -10 -1 -18 -7 -18 -6 0 -11 -9 -11 -20 0
-11 -7 -20 -15 -20 -8 0 -15 -9 -15 -20 0 -11 -5 -20 -10 -20 -6 0 -8 -10 -5
-23 4 -16 -1 -29 -19 -47 -15 -13 -26 -29 -26 -37 0 -7 -7 -13 -15 -13 -32 0
-62 -32 -90 -94 -16 -36 -32 -63 -37 -60 -4 3 -5 -2 -2 -11 5 -11 0 -18 -13
-21 -19 -5 -30 -44 -12 -44 5 0 9 5 9 11 0 6 14 -1 31 -15 17 -14 37 -26 44
-26 8 0 12 -6 9 -14 -4 -10 3 -13 24 -11 16 1 34 5 39 8 17 11 40 -2 47 -25 5
-22 -36 -68 -61 -68 -7 0 -13 -9 -13 -20 0 -17 3 -19 19 -10 29 15 82 12 103
-6 14 -13 21 -14 32 -5 11 9 15 8 20 -4 8 -21 26 -19 26 4 0 10 9 21 20 24 13
3 20 14 20 29 1 20 2 21 11 6 5 -10 19 -18 30 -18 11 0 29 -5 40 -11 13 -7 25
-7 32 -1 7 5 33 14 59 20 37 7 52 6 67 -4 11 -8 24 -13 29 -12 15 5 63 -59 56
-75 -4 -13 5 -15 58 -14 52 0 70 -4 106 -26 42 -27 51 -41 32 -52 -5 -3 -10
-15 -10 -25 0 -10 -10 -26 -22 -34 -21 -15 -21 -16 -3 -36 25 -27 56 -25 96 8
30 23 35 33 34 69 0 24 3 43 6 43 4 0 9 10 13 23 5 17 8 19 15 8 12 -18 48 -5
57 21 4 14 1 24 -9 30 -14 7 -12 12 8 32 21 21 23 28 13 54 -12 31 -11 34 36
98 6 8 6 26 0 50 -7 31 -15 39 -41 46 -18 5 -39 18 -47 30 -11 16 -18 18 -28
10 -17 -13 -68 -4 -75 15 -3 7 2 22 10 31 10 11 14 26 10 41 -4 16 -3 22 5 17
6 -3 23 12 39 35 15 22 38 53 50 67 l22 27 -22 24 c-16 17 -18 25 -9 28 7 3
30 23 50 45 31 33 36 45 33 79 -1 22 3 62 10 88 10 39 17 49 41 57 21 6 37 23
55 59 14 28 29 58 34 67 5 10 9 19 9 21 0 2 -25 3 -55 3 -30 -1 -55 -4 -55 -8
0 -5 -12 -8 -26 -8 -21 0 -24 4 -19 20 3 10 1 28 -4 39 -9 15 -6 28 11 57 23
39 37 151 17 138 -7 -4 -9 1 -5 14 5 14 -5 34 -39 73 -25 29 -45 56 -45 60 0
4 -8 6 -17 5 -22 -1 -63 70 -63 112 0 20 -6 35 -15 38 -8 4 -15 12 -15 20 0 8
-8 14 -19 14 -24 0 -44 23 -31 36 6 6 6 21 1 39 -5 17 -10 26 -10 20 -1 -5 -6
-3 -11 5 -8 12 -10 12 -10 1z"/>
<path d="M8717 13064 c-4 -4 -19 -7 -34 -8 -24 -1 -28 -5 -31 -36 -2 -19 -10
-41 -19 -47 -14 -11 -14 -13 -2 -13 8 0 20 5 26 11 7 7 13 8 17 0 4 -7 15 -7
30 -1 18 6 34 4 62 -11 49 -25 61 -9 32 43 -17 30 -28 38 -50 38 -20 0 -26 4
-22 15 6 16 2 20 -9 9z"/>
<path d="M9790 11930 c-8 -5 -18 -6 -24 -3 -5 4 -7 -1 -3 -11 4 -10 7 -20 7
-22 0 -2 7 -4 16 -4 11 0 14 5 10 16 -4 12 -2 15 9 11 8 -4 17 -2 20 2 7 13
-19 21 -35 11z"/>
<path d="M9790 11861 c0 -5 7 -14 15 -21 16 -14 18 -10 9 14 -6 17 -24 22 -24
7z"/>
<path d="M9693 11837 c-11 -12 -23 -31 -28 -42 -4 -11 -9 -15 -12 -9 -2 7 -13
10 -24 7 -10 -3 -26 0 -34 7 -8 7 -15 8 -15 3 0 -12 -31 -13 -45 -3 -16 12
-66 9 -62 -4 2 -6 11 -11 20 -11 28 0 97 -74 97 -104 0 -25 29 -61 44 -55 8 3
17 -3 20 -14 4 -11 15 -27 26 -37 11 -10 20 -26 20 -35 0 -21 -29 -35 -44 -20
-13 13 -36 13 -36 -1 0 -6 25 -34 55 -63 37 -34 57 -62 61 -84 4 -19 17 -40
30 -49 17 -11 24 -25 24 -47 1 -17 7 -42 14 -56 9 -16 11 -31 5 -41 -6 -12 -4
-21 6 -29 20 -16 19 -30 -1 -30 -9 0 -14 -6 -11 -12 8 -24 -13 -47 -48 -54
l-34 -6 24 -36 c25 -37 33 -72 15 -72 -5 0 -14 9 -20 20 -23 43 -95 7 -83 -41
4 -13 0 -19 -12 -19 -13 0 -16 -6 -13 -25 4 -21 1 -25 -19 -25 -14 0 -36 -9
-50 -20 -19 -15 -41 -20 -83 -20 -39 0 -62 -5 -70 -15 -7 -8 -29 -18 -49 -21
-25 -4 -40 -13 -47 -27 -5 -12 -18 -23 -29 -25 -19 -3 -19 -2 -2 11 14 12 15
16 4 25 -8 7 -17 8 -23 3 -17 -17 -52 -16 -70 0 -11 9 -40 19 -65 22 -44 6
-46 5 -42 -16 4 -18 0 -23 -21 -25 -14 -1 -28 3 -31 8 -13 22 -35 10 -35 -19
0 -29 -14 -41 -51 -41 -10 0 -19 -7 -19 -15 0 -13 -6 -11 -30 6 -29 22 -30 22
-50 4 -19 -18 -21 -18 -41 1 -16 15 -22 16 -29 5 -7 -12 -15 -11 -49 2 -23 10
-41 12 -41 7 0 -6 -11 -10 -25 -10 -16 0 -23 -4 -19 -13 14 -38 -60 -57 -163
-42 -46 7 -53 5 -65 -14 -7 -11 -21 -21 -30 -21 -10 0 -18 -5 -18 -10 0 -6
-11 -15 -25 -22 -13 -6 -22 -16 -18 -21 4 -6 0 -8 -10 -4 -10 3 -17 2 -17 -4
0 -20 -50 -30 -79 -14 -37 18 -76 2 -90 -37 -6 -16 -17 -28 -25 -28 -9 0 -16
-5 -16 -11 0 -6 -7 -9 -15 -5 -9 3 -15 0 -15 -9 0 -8 -4 -15 -8 -15 -4 0 -6
-16 -4 -36 4 -29 0 -40 -17 -53 -19 -14 -22 -29 -27 -121 -3 -58 -10 -117 -15
-131 -7 -17 -6 -35 1 -53 8 -23 7 -31 -6 -40 -14 -11 -5 -24 79 -107 76 -74
95 -99 91 -115 -4 -14 3 -31 20 -49 14 -15 26 -35 26 -44 0 -9 6 -26 14 -37 8
-11 14 -31 15 -44 1 -40 9 -91 15 -97 3 -4 -1 -15 -11 -25 -9 -11 -11 -18 -5
-18 7 0 11 -5 10 -12 -2 -6 6 -14 17 -16 22 -5 105 -90 105 -107 0 -6 36 -28
79 -48 86 -41 95 -49 105 -90 5 -20 17 -32 47 -43 24 -10 46 -28 55 -45 10
-20 22 -29 40 -29 14 0 23 -3 20 -8 -7 -12 22 -45 34 -37 13 8 30 -11 30 -32
0 -7 -7 -13 -15 -13 -8 0 -15 -4 -15 -9 0 -12 29 -41 41 -41 5 0 9 -8 9 -19 0
-10 7 -24 15 -31 8 -7 15 -17 15 -23 0 -6 10 -21 22 -34 l21 -23 -21 0 c-11 0
-23 -8 -26 -18 -7 -20 -56 -52 -80 -52 -8 0 -19 8 -25 18 -8 15 -11 14 -20
-10 -9 -25 -13 -27 -36 -18 -15 6 -36 15 -47 21 -19 10 -20 9 -13 -7 5 -11 9
-33 9 -51 1 -20 10 -40 24 -53 12 -11 22 -27 22 -35 0 -8 11 -22 24 -31 14 -8
26 -25 28 -37 4 -31 47 -36 55 -8 3 12 11 21 19 21 7 0 18 9 24 20 6 11 16 18
21 14 6 -3 24 3 40 15 27 20 29 21 29 3 0 -31 21 -82 32 -79 6 1 20 -17 32
-40 11 -23 28 -42 37 -43 22 0 43 -26 36 -45 -9 -21 31 -47 48 -32 11 10 11
16 -1 34 -8 12 -14 33 -14 45 0 13 -4 29 -9 37 -11 17 13 47 54 67 17 8 41 30
54 49 13 19 27 35 32 35 11 0 79 -82 78 -94 0 -5 14 -17 32 -25 40 -20 60 -48
41 -60 -10 -6 -8 -11 7 -25 22 -20 76 -12 67 10 -8 20 17 17 47 -6 14 -11 30
-20 35 -20 12 0 52 -74 52 -95 0 -8 7 -15 15 -15 8 0 12 -6 9 -14 -3 -8 0 -17
7 -22 8 -5 10 -3 4 6 -6 10 -4 11 11 5 23 -9 74 -27 92 -31 6 -2 12 -15 12
-29 0 -14 5 -25 10 -25 6 0 19 -9 30 -20 11 -11 20 -15 20 -10 0 6 11 3 25 -6
14 -9 32 -13 41 -10 27 10 82 -31 89 -67 4 -18 10 -36 13 -42 4 -5 5 -38 3
-73 -2 -45 2 -70 13 -87 27 -41 21 -55 -24 -55 -41 0 -52 -14 -28 -38 8 -8 9
-12 1 -12 -6 0 -9 -9 -6 -20 3 -11 -1 -30 -10 -43 -14 -21 -22 -23 -107 -22
-76 0 -95 3 -104 17 -8 13 -6 22 11 40 11 13 23 35 27 51 4 18 13 27 26 27 22
0 28 34 9 46 -8 5 -6 10 5 16 9 5 16 22 16 39 0 24 -3 29 -18 25 -11 -4 -32 6
-57 29 -47 41 -96 46 -135 14 -14 -11 -20 -22 -15 -25 34 -14 75 -46 74 -56 0
-8 -2 -9 -5 -2 -3 6 -17 9 -31 6 -21 -4 -24 -7 -12 -16 8 -6 21 -24 29 -39 13
-26 13 -30 -2 -38 -10 -5 -15 -16 -12 -24 9 -22 -4 -65 -19 -65 -26 0 -50 -26
-43 -47 5 -16 15 -20 49 -19 36 1 42 -2 45 -21 2 -13 8 -23 13 -23 6 0 7 -4 4
-10 -3 -5 -2 -17 3 -27 7 -11 6 -21 -4 -31 -19 -18 -18 -46 1 -38 8 3 21 -2
30 -10 13 -14 15 -13 15 5 0 14 5 19 15 15 8 -4 15 -14 15 -24 0 -11 10 -20
25 -24 14 -4 25 -13 25 -20 0 -17 25 -27 45 -20 9 4 15 0 15 -9 0 -23 39 -88
73 -120 22 -21 28 -33 23 -52 -8 -30 19 -75 44 -75 10 0 23 -7 30 -15 8 -10
25 -15 44 -13 29 3 31 1 42 -47 12 -55 8 -105 -12 -144 -11 -21 -11 -28 3 -43
14 -15 14 -22 4 -45 -12 -26 -10 -30 23 -58 27 -23 34 -35 30 -52 -8 -28 4
-63 14 -46 6 9 17 9 47 -1 31 -11 41 -21 48 -46 4 -18 6 -35 3 -38 -3 -3 2
-11 12 -18 16 -12 16 -13 -3 -14 -19 -1 -19 -1 -1 -11 13 -8 20 -8 26 1 5 7
19 9 44 5 29 -6 35 -11 31 -25 -6 -20 13 -39 24 -23 3 6 22 19 41 30 60 32 80
47 80 59 0 18 75 21 132 7 46 -12 55 -12 93 7 23 11 45 20 49 20 17 0 46 44
46 68 0 22 3 24 33 18 32 -6 91 -62 81 -77 -9 -15 16 -49 35 -49 10 0 24 -7
32 -16 16 -20 81 -52 94 -48 6 2 28 -12 49 -31 45 -40 49 -41 66 -20 16 19 29
19 51 0 15 -14 18 -14 32 -1 8 8 23 12 35 10 24 -7 38 12 23 30 -8 10 -5 16
13 26 29 15 61 6 52 -15 -7 -19 8 -19 24 0 7 8 23 15 36 15 13 0 24 6 24 13 0
20 104 107 128 107 4 0 16 16 25 35 9 19 21 35 26 35 5 0 14 12 19 28 7 21 5
33 -9 53 -18 26 -18 26 16 59 27 26 33 39 29 57 -5 17 -1 28 12 38 17 12 17
17 6 35 -7 12 -11 24 -8 27 3 3 -11 34 -30 69 -27 48 -32 64 -21 64 9 0 19 9
22 20 3 11 12 20 19 20 6 0 12 9 13 21 2 17 -1 18 -13 8 -9 -7 -48 -14 -90
-15 l-74 -2 -16 34 c-21 44 -30 49 -43 25 -22 -40 -111 -28 -111 16 0 7 -7 13
-15 13 -8 0 -28 14 -43 30 -16 17 -34 30 -41 30 -6 0 -11 5 -11 10 0 6 -8 10
-18 10 -10 0 -21 3 -25 6 -8 8 14 54 26 54 5 0 4 7 -3 15 -9 11 -17 12 -32 4
-16 -9 -26 -4 -60 31 -48 48 -91 72 -118 68 -25 -4 -80 49 -73 71 4 13 2 13
-10 -2 -15 -18 -16 -18 -25 -1 -7 13 -6 27 5 48 12 23 13 34 4 48 -9 14 -8 25
2 46 7 15 12 35 9 46 -2 11 0 16 7 12 21 -13 11 16 -11 34 l-23 18 23 20 c37
32 74 111 67 142 -7 30 14 60 42 60 8 0 26 9 40 20 14 11 31 20 37 20 6 0 4
-5 -4 -10 -9 -6 -10 -10 -3 -10 7 0 17 8 23 18 10 15 11 15 6 0 -3 -12 4 -19
25 -27 23 -8 29 -7 29 5 0 23 -4 29 -17 28 -7 -1 -13 2 -13 7 0 5 7 9 15 9 8
0 15 4 15 8 0 5 23 15 50 22 28 7 50 17 50 20 0 14 38 50 52 50 9 0 21 14 28
30 13 31 24 37 35 20 11 -19 35 -10 41 15 5 19 10 23 23 16 31 -16 79 -21 85
-8 3 8 7 9 13 2 13 -16 45 -18 55 -3 8 11 9 10 6 -1 -4 -16 46 -69 76 -81 12
-4 50 -6 86 -5 85 4 82 3 74 16 -4 8 0 8 15 0 12 -7 26 -9 31 -6 5 3 18 1 29
-4 10 -6 40 -12 65 -15 46 -3 47 -3 72 40 14 24 33 44 42 44 10 0 25 7 34 14
17 12 17 14 -1 32 -13 14 -15 23 -8 35 7 12 4 29 -11 61 -12 24 -22 49 -22 55
0 6 -4 13 -9 15 -4 2 -11 13 -15 24 -5 17 -1 24 24 34 32 13 40 30 14 30 -9 0
-18 9 -21 20 -3 11 -10 20 -15 20 -6 0 -8 9 -5 21 8 30 -2 49 -21 42 -12 -5
-14 -2 -7 13 4 10 10 29 12 42 3 12 13 22 22 22 14 0 14 2 1 10 -12 7 -12 12
-2 22 19 19 15 68 -5 69 -10 1 -25 2 -33 3 -9 1 -17 16 -21 41 -3 22 -11 52
-17 67 -6 15 -9 35 -6 43 4 8 2 15 -4 15 -6 0 -26 22 -45 49 -20 27 -45 52
-56 56 -14 4 -21 15 -21 30 0 15 -10 31 -24 41 -14 8 -28 29 -31 45 -4 17 -13
33 -21 36 -19 7 -18 53 1 53 8 0 19 9 25 20 9 16 8 18 -5 14 -9 -4 -25 2 -36
12 -14 13 -22 15 -31 6 -13 -13 -55 5 -78 33 -12 15 -11 16 13 9 26 -6 27 -5
17 21 -9 24 -8 26 7 19 10 -4 33 -8 51 -9 19 -1 37 -7 40 -13 7 -11 25 -15 54
-13 10 0 27 19 38 41 19 36 19 43 6 68 -14 27 -13 30 13 59 27 29 32 61 17 95
-6 12 -17 16 -41 13 -26 -4 -34 -1 -38 15 -3 11 0 23 6 28 7 4 12 13 13 20 3
42 4 43 24 37 11 -4 20 -2 20 4 0 6 9 11 21 11 16 0 19 4 13 23 -3 12 -10 27
-15 33 -8 10 -13 65 -10 107 0 10 9 17 21 17 10 0 24 9 30 20 11 21 54 35 143
45 56 6 57 7 51 33 -5 22 -4 25 7 15 17 -17 29 -16 29 2 0 8 -12 18 -27 21
-43 11 -87 44 -74 57 6 6 11 22 11 35 0 17 4 23 15 18 19 -7 19 1 0 20 -8 9
-18 34 -22 56 -5 33 -12 43 -35 52 -25 9 -29 15 -26 46 3 29 -1 36 -25 48
l-27 13 17 30 c17 29 17 31 -1 45 -11 8 -28 14 -38 14 -10 0 -21 7 -24 15 -4
10 -15 12 -33 9 -23 -5 -29 -2 -34 15 -5 19 -13 22 -84 37 -12 2 -25 13 -28
24 -3 11 -12 20 -19 20 -18 0 -42 30 -39 49 6 35 -13 44 -92 46 -42 0 -79 5
-83 11 -4 5 -14 10 -22 12 -8 2 -17 8 -19 13 -2 6 -14 14 -27 19 -16 7 -24 17
-24 34 0 20 6 25 29 28 l28 3 -18 43 c-17 40 -20 42 -35 28 -8 -9 -20 -14 -24
-11 -5 3 -14 -4 -20 -15 -6 -11 -19 -20 -28 -20 -20 0 -35 30 -77 155 -35 106
-77 190 -95 191 -21 0 -78 31 -120 64 -26 21 -40 26 -52 19 -12 -7 -22 -3 -37
17 -12 15 -21 33 -21 40 0 13 -41 46 -71 56 -14 5 -15 -1 -8 -45 5 -27 13 -55
19 -61 5 -5 10 -18 10 -28 0 -10 6 -18 14 -18 19 0 94 -70 111 -103 7 -15 11
-36 8 -47 -4 -14 1 -26 14 -35 11 -8 30 -36 41 -64 12 -27 27 -51 33 -53 6 -2
5 -14 -5 -33 -18 -33 -22 -130 -6 -140 15 -9 12 -27 -2 -20 -7 4 -4 -2 7 -12
15 -14 20 -31 20 -75 0 -31 3 -60 8 -64 4 -4 18 2 30 14 13 12 27 19 30 15 4
-3 18 4 32 17 13 12 30 20 38 17 8 -3 19 -1 25 5 8 8 15 8 26 -1 8 -7 21 -9
27 -5 8 4 9 3 5 -5 -4 -6 0 -14 11 -17 61 -20 73 -28 73 -48 0 -27 30 -46 61
-39 15 3 19 1 12 -4 -8 -6 -8 -13 3 -27 8 -11 14 -15 14 -9 0 14 28 43 42 43
12 0 -1 -62 -15 -72 -7 -4 -15 -2 -19 5 -4 7 -8 9 -8 5 0 -4 -14 -3 -30 2 -28
8 -30 7 -24 -12 4 -15 -1 -26 -22 -43 -27 -22 -31 -22 -63 -9 -47 19 -157 19
-165 -1 -3 -8 -12 -15 -21 -15 -8 0 -15 -7 -15 -16 0 -11 -8 -15 -27 -14 -59
4 -73 0 -73 -19 0 -10 -9 -21 -20 -24 -12 -3 -20 -14 -20 -26 0 -12 -5 -21
-12 -21 -6 0 -19 -7 -29 -16 -14 -12 -22 -13 -39 -4 -23 12 -50 -1 -50 -24 0
-6 -8 -19 -18 -27 -16 -14 -20 -14 -32 -1 -12 13 -14 13 -19 1 -3 -8 -30 -37
-59 -64 -47 -43 -56 -47 -73 -37 -25 16 -28 15 -22 -7 5 -21 -25 -37 -63 -32
-11 1 -28 -7 -39 -19 -10 -11 -21 -17 -24 -13 -4 5 -30 20 -59 35 -39 21 -52
24 -52 14 0 -28 -19 -26 -51 4 -53 48 -80 53 -124 23 -36 -24 -39 -25 -70 -10
-18 9 -39 29 -46 46 -8 17 -21 31 -30 31 -9 0 -19 6 -22 14 -7 16 -78 54 -94
49 -6 -2 -21 16 -33 41 -25 49 -59 67 -67 36 -7 -27 -31 -32 -43 -10 -21 40
-13 50 37 47 46 -2 47 -1 54 33 5 20 4 36 -2 38 -5 2 -16 10 -24 18 -8 8 -18
15 -22 15 -4 1 -14 4 -21 8 -18 10 -4 72 19 78 18 5 29 31 29 72 0 21 4 23 40
19 35 -3 41 -1 51 24 7 17 9 46 5 73 -5 29 -4 45 3 45 6 0 11 14 11 30 0 17
-4 30 -10 30 -5 0 -10 -4 -10 -10 0 -6 -10 -5 -25 2 -14 6 -25 19 -25 29 0 9
-5 19 -11 21 -16 5 -60 120 -49 132 12 16 22 158 10 151 -6 -3 -10 -13 -10
-22 0 -11 -5 -13 -17 -8 -23 10 -33 10 -60 1 -19 -6 -23 -4 -23 13 0 12 -4 21
-10 21 -5 0 -10 5 -10 11 0 8 4 9 13 0 8 -6 18 -7 22 -3 5 4 5 -1 2 -10 -5
-13 -1 -18 14 -18 13 0 19 6 17 17 -4 21 38 44 69 38 16 -2 20 1 16 11 -3 8 0
14 7 14 8 0 11 -9 8 -24 -4 -18 -1 -22 13 -19 9 3 20 0 24 -7 5 -8 10 -8 21 1
11 9 17 9 28 0 31 -26 3 34 -31 67 -26 24 -33 38 -29 55 3 12 3 16 0 10 -10
-23 -22 -13 -48 40 -13 29 -34 61 -45 71 -22 20 -29 56 -11 56 6 0 10 -7 10
-15 0 -8 5 -15 10 -15 6 0 10 8 10 17 0 14 5 12 25 -10 29 -30 56 -38 34 -9
-7 9 -25 29 -40 43 -19 19 -26 33 -22 48 3 13 1 21 -7 21 -7 0 -29 17 -49 39
-28 30 -46 40 -79 44 -40 5 -43 3 -39 -14 3 -10 1 -22 -5 -25 -10 -7 -48 23
-48 38 0 6 -8 21 -19 34 l-18 23 -20 -22z m203 -157 c8 0 14 -10 14 -25 0 -31
-15 -32 -31 -2 -7 12 -17 26 -23 30 -7 6 -4 7 7 3 10 -3 25 -6 33 -6z m37
-158 c-5 -12 -7 -12 -15 2 -11 20 1 44 12 25 5 -6 6 -19 3 -27z m2097 -2769
c0 -5 -5 -15 -10 -23 -8 -12 -10 -11 -10 8 0 12 5 22 10 22 6 0 10 -3 10 -7z
m-3000 -206 c0 -5 -4 -5 -10 -2 -5 3 -10 14 -10 23 0 15 2 15 10 2 5 -8 10
-19 10 -23z m-30 -60 c0 -19 -10 -27 -25 -20 -17 6 -8 33 11 33 8 0 14 -6 14
-13z m644 -808 c-3 -5 -10 -7 -15 -3 -5 3 -7 10 -3 15 3 5 10 7 15 3 5 -3 7
-10 3 -15z m236 -319 c0 -5 -2 -10 -4 -10 -3 0 -8 5 -11 10 -3 6 -1 10 4 10 6
0 11 -4 11 -10z"/>
<path d="M9730 11850 c0 -5 5 -10 11 -10 5 0 7 5 4 10 -3 6 -8 10 -11 10 -2 0
-4 -4 -4 -10z"/>
<path d="M8118 11653 c7 -3 16 -2 19 1 4 3 -2 6 -13 5 -11 0 -14 -3 -6 -6z"/>
<path d="M8120 11630 c0 -8 -9 -10 -25 -6 -19 5 -23 3 -19 -9 4 -8 14 -15 24
-15 23 0 45 26 30 35 -5 3 -10 1 -10 -5z"/>
<path d="M9565 11621 c-3 -10 -17 -31 -32 -45 -14 -14 -21 -26 -15 -26 6 0 9
-7 5 -15 -5 -14 -7 -14 -23 0 -10 9 -21 15 -26 14 -5 -1 -22 3 -39 10 -16 7
-41 10 -55 8 -14 -3 -34 -1 -45 5 -16 8 -18 8 -8 -2 6 -7 9 -19 6 -28 -4 -10
-2 -13 5 -8 6 4 20 -2 31 -13 28 -28 67 -37 74 -17 7 19 48 21 64 5 9 -9 21
-6 48 10 20 11 45 21 56 21 10 0 19 7 19 15 0 13 -11 19 -31 17 -10 -2 -21 47
-14 58 4 6 2 10 -4 10 -5 0 -12 -9 -16 -19z"/>
<path d="M10095 11609 c-9 -14 -2 -20 14 -10 8 6 9 11 3 15 -6 3 -14 1 -17 -5z"/>
<path d="M8063 11583 c-7 -2 -13 -10 -13 -17 0 -17 -35 -57 -44 -49 -3 3 -6
-1 -6 -10 0 -19 26 -13 34 9 3 8 12 14 19 14 8 0 19 11 25 25 17 37 15 41 -15
28z"/>
<path d="M10054 11561 c-10 -17 -21 -28 -26 -25 -4 3 -8 -4 -8 -14 0 -22 22
-34 45 -26 10 4 15 20 15 50 0 24 -2 44 -4 44 -3 0 -13 -13 -22 -29z"/>
<path d="M7940 11461 c0 -14 7 -18 28 -16 43 3 45 4 32 20 -18 22 -60 20 -60
-4z"/>
<path d="M7840 11420 c19 -13 30 -13 30 0 0 6 -10 10 -22 10 -19 0 -20 -2 -8
-10z"/>
<path d="M8013 11409 c6 -10 15 -15 20 -12 5 3 4 9 -3 13 -9 6 -9 9 1 13 8 3
4 5 -7 4 -18 -1 -20 -4 -11 -18z"/>
<path d="M8235 11420 c3 -5 8 -10 11 -10 2 0 4 5 4 10 0 6 -5 10 -11 10 -5 0
-7 -4 -4 -10z"/>
<path d="M7778 11413 c6 -2 18 -2 25 0 6 3 1 5 -13 5 -14 0 -19 -2 -12 -5z"/>
<path d="M11514 11059 c-3 -6 -1 -16 5 -22 8 -8 11 -5 11 11 0 24 -5 28 -16
11z"/>
<path d="M10100 10782 c0 -4 7 -18 16 -30 8 -12 12 -22 8 -22 -3 0 -1 -6 5
-14 15 -18 59 -26 65 -12 3 7 9 4 16 -6 13 -22 34 -24 27 -3 -4 8 4 22 18 34
14 10 25 23 25 29 0 18 -29 21 -39 4 -9 -15 -13 -15 -55 6 -47 22 -86 29 -86
14z"/>
<path d="M12244 10134 c5 -13 2 -15 -14 -11 -15 4 -20 0 -20 -14 0 -20 28 -39
56 -39 16 0 16 1 0 19 -15 16 -15 19 -2 24 19 8 10 37 -11 37 -10 0 -13 -6 -9
-16z"/>
<path d="M12288 10093 c7 -3 16 -2 19 1 4 3 -2 6 -13 5 -11 0 -14 -3 -6 -6z"/>
<path d="M12210 9711 c0 -20 21 -66 35 -77 13 -9 12 -16 -4 -50 -11 -21 -17
-42 -14 -47 8 -13 -8 -47 -23 -47 -8 0 -14 -7 -14 -15 0 -12 -4 -13 -19 -5
-14 7 -20 7 -23 -1 -2 -7 -12 -7 -31 2 -21 9 -33 10 -53 0 -15 -6 -34 -9 -44
-6 -10 3 -20 0 -23 -9 -4 -9 -14 -12 -27 -9 -16 4 -19 2 -14 -11 3 -9 10 -13
15 -10 5 3 9 0 9 -5 0 -14 0 -14 -40 7 -19 9 -35 23 -36 30 -3 33 -5 34 -24
17 -20 -18 -20 -18 15 -43 24 -18 35 -33 35 -51 1 -47 75 -148 125 -169 33
-14 65 -71 65 -115 0 -14 5 -29 11 -33 6 -3 8 -16 5 -27 -3 -12 0 -27 6 -34 6
-8 7 -13 1 -13 -17 0 -8 -88 10 -108 9 -10 18 -32 21 -48 2 -16 7 -37 11 -47
9 -22 -2 -85 -20 -114 -13 -20 -11 -25 36 -75 46 -49 50 -56 45 -90 -5 -32 -2
-42 24 -68 20 -20 30 -41 30 -60 0 -35 8 -37 36 -12 14 13 30 17 56 14 32 -4
36 -7 34 -30 -2 -14 -9 -28 -17 -30 -8 -3 -28 -11 -46 -19 -32 -15 -73 -10
-73 8 0 5 -8 9 -18 9 -10 0 -22 3 -25 7 -4 3 -24 6 -44 6 -35 0 -38 -2 -40
-32 -2 -23 4 -40 22 -59 28 -31 32 -50 10 -58 -17 -7 -21 -34 -4 -34 5 0 7 -5
4 -11 -4 -6 -4 -25 -1 -44 5 -25 12 -34 33 -38 35 -6 73 11 73 34 0 10 5 21
10 24 6 4 8 15 5 25 -5 14 -1 16 21 12 16 -3 21 -7 14 -12 -8 -5 -7 -9 4 -13
10 -4 16 -1 16 8 0 8 9 15 20 15 12 0 31 11 43 24 17 18 27 22 38 15 7 -5 26
-9 41 -9 15 0 30 -5 33 -10 5 -8 12 -7 22 2 9 7 43 18 76 25 67 14 77 9 77
-34 0 -28 19 -29 47 -4 23 22 33 18 34 -13 0 -20 1 -20 9 2 5 12 7 29 4 37 -4
8 -1 15 5 15 6 0 8 7 4 16 -4 11 -2 15 6 13 7 -3 11 -7 10 -9 -1 -3 10 -24 24
-47 15 -23 24 -48 21 -56 -3 -8 6 -18 21 -25 14 -6 25 -17 25 -23 0 -6 9 0 20
14 11 14 20 31 20 37 0 8 7 9 18 5 9 -4 26 -9 37 -12 36 -8 70 -27 87 -48 14
-16 20 -17 27 -6 5 8 16 11 30 6 12 -3 21 -2 21 4 0 6 11 6 30 1 26 -7 30 -6
30 10 0 10 -5 22 -11 26 -8 5 -6 10 5 16 21 12 20 36 -4 76 -12 19 -16 31 -10
27 5 -3 14 5 20 20 8 20 5 34 -10 63 -25 47 -25 49 5 56 16 4 25 13 25 25 0
27 11 52 20 46 4 -3 10 2 14 10 3 8 1 17 -5 21 -5 3 -7 14 -4 23 3 12 -9 31
-37 60 -63 61 -75 76 -71 88 3 7 -9 21 -25 33 -27 20 -29 26 -24 66 3 28 1 44
-6 44 -7 0 -19 14 -27 31 -10 19 -22 29 -30 25 -8 -3 -33 1 -56 9 -33 12 -45
13 -57 3 -22 -19 -84 -20 -104 -1 -17 15 -18 15 -18 0 0 -22 -26 -22 -38 -1
-8 15 -10 15 -15 0 -4 -10 -3 -15 3 -11 6 3 10 -1 10 -9 0 -10 -6 -13 -15 -10
-8 4 -15 2 -15 -3 0 -18 -50 -34 -71 -23 -10 6 -19 15 -19 19 0 5 -16 5 -36 1
-43 -10 -84 3 -84 25 0 8 -20 30 -45 47 -25 18 -45 37 -45 43 0 20 -68 92
-100 105 -19 8 -30 20 -30 32 0 16 -3 18 -13 9 -18 -14 -27 -4 -27 31 0 29
-17 37 -37 17 -8 -8 -18 -6 -37 6 -14 10 -35 15 -46 12 -15 -4 -20 0 -20 13 0
11 -5 22 -11 26 -8 4 -7 9 2 15 9 5 14 30 15 71 1 76 10 101 35 95 11 -3 19
-1 19 4 0 5 18 29 40 53 34 37 40 50 40 88 0 51 20 100 38 93 7 -2 12 5 13 18
2 29 2 29 -7 51 -5 14 -4 17 4 12 7 -4 12 -1 12 7 0 21 -25 28 -69 21 -22 -4
-48 -1 -60 5 -12 7 -21 8 -21 2z m505 -1031 c3 -5 1 -10 -4 -10 -6 0 -11 5
-11 10 0 6 2 10 4 10 3 0 8 -4 11 -10z m-105 -26 c0 -2 -7 -4 -15 -4 -8 0 -15
4 -15 10 0 5 7 7 15 4 8 -4 15 -8 15 -10z m460 -20 c0 -6 -40 -44 -46 -44 -1
0 -1 8 1 18 2 9 4 20 4 25 1 9 41 10 41 1z m-120 -55 c0 -6 -4 -7 -10 -4 -5 3
-10 11 -10 16 0 6 5 7 10 4 6 -3 10 -11 10 -16z m-160 -15 c0 -8 -4 -12 -10
-9 -5 3 -10 10 -10 16 0 5 5 9 10 9 6 0 10 -7 10 -16z m-355 -142 c-5 -14 -7
-14 -15 -2 -13 20 -12 33 0 25 6 -3 10 0 11 7 0 10 2 10 6 0 3 -7 2 -20 -2
-30z"/>
<path d="M12394 9626 c-6 -17 2 -36 17 -36 12 0 12 37 -1 45 -6 3 -13 -1 -16
-9z"/>
<path d="M12360 9599 c0 -5 5 -7 10 -4 6 3 10 8 10 11 0 2 -4 4 -10 4 -5 0
-10 -5 -10 -11z"/>
<path d="M8721 8464 c0 -11 3 -14 6 -6 3 7 2 16 -1 19 -3 4 -6 -2 -5 -13z"/>
<path d="M8730 8396 c0 -2 7 -6 15 -10 8 -3 15 -1 15 4 0 6 -7 10 -15 10 -8 0
-15 -2 -15 -4z"/>
<path d="M8880 8329 c0 -6 -8 -8 -19 -4 -16 5 -18 2 -14 -17 4 -13 9 -25 13
-28 4 -3 11 -16 15 -29 7 -22 5 -23 -19 -17 -24 6 -26 4 -26 -23 0 -16 6 -31
14 -34 10 -4 12 -18 9 -50 -3 -25 -1 -47 5 -51 7 -4 5 -16 -4 -36 -9 -16 -13
-34 -9 -40 3 -5 0 -10 -7 -10 -7 -1 0 -11 16 -24 21 -18 27 -30 23 -45 -7 -30
37 -60 63 -43 14 9 19 8 24 -3 3 -8 17 -22 31 -31 21 -14 28 -15 34 -5 11 17
16 15 79 -25 44 -29 56 -32 73 -23 15 8 24 8 32 0 8 -8 8 -11 -1 -11 -14 0
-16 -34 -2 -59 8 -16 5 -20 -21 -25 -35 -7 -30 -26 7 -26 15 0 34 -10 45 -22
10 -13 18 -17 19 -10 0 7 6 12 13 11 25 -3 57 14 57 30 1 26 26 65 34 52 4 -6
18 -11 32 -11 17 0 24 5 24 20 0 11 -5 20 -10 20 -6 0 -16 11 -22 25 -8 18
-19 25 -39 25 -23 0 -29 5 -34 31 -4 17 -3 35 3 41 11 11 55 1 47 -11 -2 -5 6
-13 18 -18 27 -13 57 0 57 24 0 12 7 14 30 10 33 -7 60 0 60 15 0 9 -61 39
-90 44 -8 2 -25 14 -37 28 -12 15 -26 26 -31 26 -6 0 -12 7 -16 15 -8 21 -23
19 -29 -5 -6 -22 -37 -28 -37 -6 0 7 -7 19 -15 26 -17 14 -20 56 -5 65 18 11
-1 27 -25 21 -14 -4 -28 0 -36 10 -19 23 -69 46 -85 40 -8 -3 -14 1 -14 9 0 9
6 12 15 9 17 -7 22 31 5 41 -6 4 -18 24 -26 45 -16 40 -39 56 -58 42 -6 -5
-21 -12 -34 -15 -19 -4 -21 -3 -11 9 10 12 3 14 -39 14 -28 0 -54 5 -57 10 -8
13 -25 13 -25 -1z"/>
<path d="M12778 8113 c7 -3 16 -2 19 1 4 3 -2 6 -13 5 -11 0 -14 -3 -6 -6z"/>
<path d="M11303 7443 c-23 -24 -22 -26 14 -23 17 1 20 -3 16 -19 -3 -12 -1
-21 5 -21 14 0 24 32 13 43 -5 5 -7 15 -5 22 9 23 -21 21 -43 -2z"/>
<path d="M11761 7352 c6 -17 17 -36 25 -43 15 -12 20 -34 6 -25 -5 3 -9 -1 -9
-9 0 -10 5 -11 18 -4 10 5 20 13 23 18 7 11 -21 81 -33 81 -5 0 -16 3 -25 6
-13 5 -14 2 -5 -24z"/>
<path d="M11755 7260 c-3 -5 -1 -10 4 -10 6 0 11 5 11 10 0 6 -2 10 -4 10 -3
0 -8 -4 -11 -10z"/>
<path d="M11788 7223 c7 -3 16 -2 19 1 4 3 -2 6 -13 5 -11 0 -14 -3 -6 -6z"/>
</g>
</svg>
