<?xml version="1.0" standalone="no"?>
<!DOCTYPE svg PUBLIC "-//W3C//DTD SVG 20010904//EN"
 "http://www.w3.org/TR/2001/REC-SVG-20010904/DTD/svg10.dtd">
<svg version="1.0" xmlns="http://www.w3.org/2000/svg"
 width="785.671284pt" height="250.474052pt" viewBox="0 0 785.671284 250.474052"
 preserveAspectRatio="xMidYMid meet">
<metadata>
Created by potrace 1.15, written by Peter Selinger 2001-2017
</metadata>
<g transform="translate(-602.328716,1105.821775) scale(0.100000,-0.100000)"
fill="#222222" stroke="none">
<path d="M9111 11044 c0 -11 3 -14 6 -6 3 7 2 16 -1 19 -3 4 -6 -2 -5 -13z"/>
<path d="M9153 10979 c-10 -26 -15 -30 -27 -20 -16 14 -29 1 -21 -21 3 -8 -1
-21 -10 -28 -8 -7 -15 -20 -15 -30 0 -18 -45 -44 -61 -34 -5 3 -24 7 -41 9
-17 3 -37 14 -45 25 -8 11 -29 27 -48 34 -28 12 -39 12 -72 1 -21 -8 -50 -14
-65 -15 -18 0 -28 -5 -28 -15 0 -8 -7 -15 -15 -15 -8 0 -15 -4 -15 -9 0 -6
-12 -6 -30 -1 -28 8 -30 7 -30 -16 0 -21 -4 -24 -21 -19 -18 6 -19 5 -10 -13
8 -16 7 -27 -4 -49 -9 -15 -20 -40 -25 -55 -5 -16 -16 -28 -24 -28 -8 0 -18
-9 -21 -20 -3 -11 -14 -20 -23 -21 -89 -5 -113 -8 -154 -20 -27 -8 -48 -17
-48 -21 0 -5 -7 -8 -15 -8 -9 0 -20 -11 -26 -24 -10 -22 -22 -27 -89 -39 -8
-1 -25 -8 -37 -15 -12 -6 -29 -9 -37 -6 -10 4 -18 0 -22 -10 -4 -10 -18 -16
-39 -16 -18 0 -38 -6 -44 -14 -7 -8 -20 -12 -30 -9 -9 2 -23 -3 -30 -11 -8 -9
-29 -16 -47 -16 -25 0 -34 -4 -34 -16 0 -10 -9 -43 -21 -74 -16 -43 -28 -61
-52 -74 -18 -9 -57 -33 -87 -52 -30 -19 -66 -38 -80 -41 -14 -3 -27 -9 -30
-12 -3 -3 -21 -15 -40 -25 -19 -11 -39 -25 -43 -33 -4 -7 -17 -13 -27 -13 -11
0 -20 -4 -20 -9 0 -5 -24 -32 -52 -60 -44 -42 -58 -50 -80 -45 -24 5 -27 2
-34 -30 -5 -30 -10 -36 -33 -36 -14 0 -39 -7 -55 -15 -32 -17 -82 -20 -91 -5
-11 17 -34 11 -57 -15 -12 -14 -31 -25 -43 -25 -18 0 -21 -5 -17 -25 3 -17 -1
-27 -12 -31 -24 -9 -35 5 -13 17 9 6 17 15 17 20 0 6 -5 7 -10 4 -6 -4 -10 -3
-9 2 1 4 1 18 0 30 -1 16 -6 20 -22 16 -12 -4 -25 0 -30 8 -6 10 -9 7 -9 -13
0 -15 -4 -29 -10 -33 -5 -3 -7 -12 -3 -20 3 -9 -1 -15 -11 -15 -15 0 -20 11
-17 35 1 6 -6 1 -14 -9 -8 -11 -15 -23 -15 -27 0 -10 -57 -29 -64 -22 -3 4 -6
-4 -6 -16 0 -19 -4 -22 -21 -18 -17 5 -20 2 -16 -13 3 -11 -1 -21 -10 -24 -8
-4 -13 -13 -9 -21 3 -8 1 -17 -4 -20 -6 -4 -10 -15 -10 -26 0 -24 -52 -79 -75
-79 -8 0 -19 -8 -22 -17 -4 -10 -15 -27 -25 -37 -10 -11 -18 -27 -18 -36 0
-14 -7 -16 -47 -9 -75 12 -83 11 -83 -12 0 -13 -4 -18 -12 -13 -7 5 -9 2 -5
-9 3 -8 -1 -21 -9 -28 -10 -8 -14 -22 -10 -39 3 -15 0 -32 -7 -39 -6 -6 -12
-21 -12 -34 0 -15 -7 -23 -22 -25 -21 -3 -23 -9 -23 -68 0 -50 -4 -66 -16 -71
-8 -3 -20 -16 -25 -29 -5 -15 -17 -24 -29 -24 -13 0 -24 -10 -30 -26 -8 -19
-16 -25 -30 -21 -16 4 -17 2 -9 -20 14 -38 11 -51 -13 -55 -19 -2 -23 -9 -23
-40 l0 -36 -57 -6 c-64 -8 -81 -27 -49 -57 10 -10 21 -24 24 -31 3 -10 8 -11
26 0 35 20 77 15 95 -13 9 -13 16 -32 16 -40 0 -9 12 -32 26 -51 25 -32 30
-34 83 -34 50 0 61 4 84 28 21 22 24 31 15 40 -9 9 -9 12 1 12 11 0 11 3 1 15
-15 18 -3 19 29 1 32 -18 88 -2 70 20 -9 11 -5 16 17 25 16 6 42 9 58 6 28 -4
28 -3 23 36 -7 53 0 70 24 56 18 -9 23 -5 20 14 0 4 6 7 14 7 9 0 18 7 21 15
7 17 77 15 112 -4 15 -8 23 -8 27 0 5 7 13 5 24 -5 9 -9 26 -13 38 -10 11 3
33 -1 49 -9 24 -13 30 -12 56 2 15 9 28 22 28 29 0 6 9 12 20 12 13 0 18 5 13
16 -5 13 0 14 30 9 29 -6 37 -3 46 14 7 12 18 21 26 21 23 0 103 59 121 89 16
27 18 27 109 28 51 0 97 3 102 6 5 4 29 9 52 13 35 6 46 3 65 -15 28 -26 48
-20 90 27 83 94 128 122 199 122 23 0 28 4 25 22 -2 16 3 24 17 26 24 5 58 39
46 46 -12 8 12 76 27 76 9 0 10 5 2 19 -14 27 -13 30 15 41 14 5 25 16 25 25
0 8 6 15 14 15 8 0 17 7 20 15 4 13 10 14 26 5 13 -7 20 -7 20 -1 0 6 11 13
25 17 20 5 25 13 25 36 0 18 5 28 11 26 7 -2 22 5 34 16 17 15 22 28 19 53 -4
31 -3 33 21 27 14 -3 31 -1 38 4 15 13 40 10 60 -7 9 -7 21 -11 29 -9 19 4 78
-34 79 -52 1 -8 2 -22 3 -30 2 -27 17 -40 44 -40 24 0 71 -19 48 -20 -5 0 -3
-7 4 -15 7 -9 29 -15 50 -15 21 0 40 -5 42 -12 7 -19 55 -1 61 23 5 18 11 21
35 16 19 -4 38 1 58 14 39 26 147 59 195 59 25 0 41 6 48 17 8 15 12 12 31
-19 15 -26 31 -39 53 -44 17 -3 36 -12 42 -19 5 -7 22 -15 38 -19 23 -5 27 -3
27 14 0 11 7 20 15 20 8 0 15 4 15 9 0 5 26 9 57 9 57 -1 103 -19 103 -42 0
-6 12 -22 25 -35 19 -18 28 -21 39 -12 7 6 27 8 45 5 32 -7 40 3 19 24 -9 9
-9 12 0 12 18 0 15 51 -5 72 -15 17 -15 18 16 12 26 -6 35 -3 48 16 l16 22 23
-28 c15 -19 23 -42 24 -66 0 -25 5 -38 13 -38 8 0 34 -14 59 -30 42 -28 78
-32 78 -9 0 4 27 -8 60 -28 33 -19 60 -40 60 -45 0 -14 27 -38 34 -31 3 4 6
17 6 30 0 13 5 23 11 23 6 0 9 7 5 15 -3 10 1 15 13 15 10 0 26 9 36 20 30 33
95 16 95 -24 0 -9 -5 -16 -11 -16 -5 0 -7 -5 -4 -10 3 -6 17 -7 30 -4 12 3 26
1 30 -6 7 -12 55 -34 68 -32 4 1 5 -9 1 -23 -4 -15 -2 -25 5 -25 6 0 11 6 11
13 0 33 162 137 213 137 49 0 94 51 82 91 -6 19 12 25 53 20 7 -1 15 12 18 29
5 24 12 30 33 30 33 0 56 14 47 29 -4 6 -2 28 4 50 7 28 18 42 39 51 16 6 39
22 52 36 12 13 28 24 35 24 8 0 20 13 29 29 8 16 24 32 35 36 11 3 25 16 31
27 6 11 40 33 75 49 35 16 71 40 80 54 11 17 25 25 45 25 18 0 32 7 38 19 8
13 30 22 77 30 36 7 74 17 84 23 14 9 28 9 56 0 27 -8 41 -8 51 -1 7 7 27 9
48 5 22 -5 56 -1 88 8 55 16 133 14 150 -3 6 -6 25 -11 41 -11 17 0 52 -7 79
-15 26 -8 47 -10 47 -5 0 4 12 11 28 15 16 3 36 20 50 41 30 45 44 50 79 25
23 -17 41 -20 100 -18 67 2 72 1 70 -18 -1 -14 5 -21 21 -23 14 -2 22 -9 19
-16 -3 -7 -1 -19 4 -27 7 -11 11 -10 24 9 9 12 24 22 33 22 10 0 27 7 39 15
20 14 23 14 32 -2 11 -21 18 -17 23 17 1 14 10 30 18 37 13 10 13 15 1 35 -13
21 -13 22 2 10 9 -8 25 -11 37 -7 18 6 20 3 15 -18 -5 -18 -2 -28 10 -34 15
-9 14 -12 -8 -26 -32 -21 -42 -61 -22 -90 19 -27 19 -47 0 -47 -19 0 -19 0 1
-61 13 -38 14 -52 5 -63 -10 -11 -4 -22 27 -53 22 -21 47 -53 56 -70 10 -19
24 -33 35 -33 32 0 74 -71 50 -86 -5 -3 -5 -13 1 -24 14 -26 14 -27 -20 -33
-26 -6 -30 -11 -30 -39 0 -30 -1 -31 -15 -12 -19 25 -19 12 0 -33 19 -45 19
-72 0 -79 -11 -4 -15 -18 -13 -41 2 -28 -3 -40 -25 -57 l-27 -22 22 -22 c12
-12 17 -22 10 -22 -7 0 -12 -9 -12 -20 0 -12 7 -20 16 -20 10 0 14 -5 10 -16
-3 -8 1 -26 10 -39 9 -13 13 -29 9 -34 -3 -7 0 -8 10 -5 17 7 48 -14 40 -27
-3 -4 3 -13 14 -18 26 -14 62 -65 65 -93 1 -13 5 -30 8 -38 20 -56 25 -93 23
-150 -2 -49 2 -76 17 -107 11 -24 21 -49 22 -56 1 -7 11 -24 23 -36 22 -24 19
-50 -7 -66 -16 -10 -12 -23 10 -30 29 -9 80 22 95 59 8 19 21 36 29 39 8 3 17
19 21 36 4 21 13 31 25 31 10 0 23 12 29 29 9 20 19 29 37 29 35 0 42 11 20
28 -27 19 -37 18 -43 -6 -3 -11 -12 -20 -19 -20 -8 0 -14 -4 -14 -10 0 -13
-37 -13 -45 1 -11 16 3 23 19 10 11 -9 14 -6 18 19 4 23 2 27 -9 19 -21 -18
-43 -2 -43 31 0 19 -5 30 -14 30 -17 0 -41 28 -32 38 4 4 25 -3 47 -15 21 -12
39 -18 39 -14 0 10 62 37 114 50 27 7 44 7 52 0 7 -6 18 -8 24 -4 11 7 65 -51
65 -69 0 -6 14 -13 30 -16 17 -4 29 -11 28 -17 -1 -6 9 -21 22 -33 14 -13 25
-29 25 -37 0 -19 24 -16 44 6 11 12 14 21 7 26 -6 3 -11 20 -11 36 0 17 4 28
8 25 5 -3 15 4 22 15 19 25 38 24 67 -3 13 -12 23 -17 23 -11 0 6 16 13 35 15
19 2 35 1 35 -3 0 -3 16 -9 35 -12 19 -3 52 -19 72 -36 20 -17 40 -28 45 -25
4 3 8 -1 8 -8 1 -19 38 -61 48 -54 5 3 7 17 4 32 -3 18 0 30 12 36 16 9 22 54
8 75 -4 6 -20 14 -36 17 -37 7 -59 26 -29 26 39 0 50 9 45 38 -6 37 -27 58
-81 83 -53 25 -91 57 -91 75 0 17 -123 144 -139 144 -7 0 -10 4 -7 9 3 5 -1
14 -9 21 -8 7 -18 34 -21 61 -5 36 -12 53 -28 61 -11 6 -42 31 -69 55 -48 45
-101 73 -136 73 -10 0 -22 7 -25 16 -3 8 -10 13 -16 9 -11 -7 -55 14 -46 22 3
3 -7 27 -21 54 -18 36 -30 48 -42 44 -17 -5 -46 29 -36 45 3 5 -2 13 -11 18
-15 9 -15 10 4 16 l21 7 -19 37 c-11 20 -20 41 -20 47 0 6 -9 16 -20 23 -11 7
-20 19 -20 27 0 19 -24 19 -40 0 -12 -14 -110 -18 -110 -4 0 4 -11 10 -25 13
-15 4 -25 13 -25 24 0 25 16 46 29 37 21 -12 11 106 -10 130 -10 11 -18 25
-19 30 0 6 -10 20 -20 33 -24 27 -25 32 -5 32 24 0 18 17 -15 40 -32 23 -39
45 -16 53 30 12 46 51 36 86 -12 44 -33 57 -79 53 -30 -3 -42 -10 -52 -30 -7
-15 -14 -28 -15 -30 -1 -2 -12 2 -24 8 -18 9 -25 8 -40 -5 -10 -9 -23 -14 -29
-11 -14 9 -83 -28 -99 -53 -7 -12 -21 -21 -31 -21 -11 0 -21 -5 -23 -11 -2 -6
-26 -12 -54 -13 -48 -3 -51 -1 -80 37 -19 25 -30 34 -32 24 -6 -31 -112 -22
-112 10 0 6 -4 13 -10 15 -9 3 -10 11 -8 84 1 46 -54 112 -101 119 -72 12 -82
16 -91 39 -9 24 -70 66 -95 66 -8 0 -19 9 -25 20 -6 11 -15 18 -21 15 -5 -4
-12 0 -15 9 -3 8 -19 18 -34 21 -18 4 -27 11 -24 19 8 22 -24 39 -76 40 -27 1
-47 -1 -44 -6 2 -4 -5 -12 -16 -18 -21 -11 -27 -44 -10 -55 21 -13 9 -24 -16
-15 -33 13 -34 13 -34 -5 0 -9 -9 -15 -25 -15 -16 0 -25 -6 -25 -15 0 -20 -10
-19 -26 3 -12 15 -15 15 -24 2 -5 -8 -10 -19 -10 -25 0 -5 4 -4 9 3 6 10 12 7
25 -12 9 -14 12 -26 7 -26 -6 0 -19 -10 -30 -21 -24 -26 -51 -19 -51 14 0 24
-20 49 -36 46 -24 -4 -36 4 -59 41 -15 24 -33 40 -45 40 -12 0 -26 12 -36 33
-9 17 -28 44 -42 60 -14 15 -22 27 -18 27 5 0 3 7 -5 16 -8 10 -21 13 -36 9
-13 -3 -23 -1 -23 5 0 6 -11 16 -25 22 -13 6 -27 19 -30 29 -5 16 -8 16 -40
-4 -22 -14 -34 -30 -35 -45 0 -22 -3 -23 -45 -17 -42 7 -44 6 -51 -19 -8 -31
-23 -33 -58 -5 l-26 20 0 -40 c0 -46 -16 -95 -29 -87 -5 3 -11 -16 -15 -43 -5
-36 -14 -55 -36 -75 -17 -14 -30 -31 -30 -37 0 -6 -6 -9 -13 -6 -7 2 -30 -13
-52 -35 -29 -28 -46 -38 -62 -35 -14 3 -23 -1 -23 -8 0 -16 -23 -25 -64 -25
-25 0 -35 -6 -44 -25 -6 -14 -16 -25 -22 -25 -5 0 -10 -7 -10 -15 0 -8 -4 -15
-10 -15 -5 0 -10 -7 -10 -15 0 -9 -9 -15 -25 -15 -14 0 -25 -4 -25 -8 0 -5
-14 -27 -32 -50 -34 -44 -57 -52 -78 -27 -7 8 -19 15 -26 15 -8 0 -14 5 -14
10 0 18 -2 25 -12 43 -7 15 -5 23 12 39 14 13 19 26 15 39 -4 11 -1 27 6 36
11 13 9 19 -13 37 -36 28 -64 104 -45 120 27 23 49 68 43 91 -4 15 -1 25 8 28
8 3 12 15 9 30 -3 14 2 30 12 40 15 15 14 18 -5 34 -11 10 -20 23 -20 29 0 6
-7 17 -15 24 -12 10 -15 10 -15 -3 0 -8 7 -20 15 -27 19 -16 19 -46 1 -53 -8
-3 -20 1 -26 9 -15 18 -47 18 -80 0 -22 -13 -28 -12 -52 6 -16 10 -28 25 -28
32 0 7 -9 21 -20 31 -11 10 -20 13 -20 7 0 -7 -9 -12 -19 -12 -11 0 -23 -4
-26 -10 -3 -5 -17 -10 -30 -10 -18 0 -22 -4 -18 -20 4 -13 0 -20 -9 -20 -8 0
-20 -11 -26 -25 l-11 -25 -37 25 c-22 15 -45 23 -58 20 -16 -4 -27 4 -46 30
-16 23 -30 32 -40 28 -51 -21 -103 -2 -120 42 -9 24 -37 33 -123 38 -39 2 -53
9 -77 35 -16 18 -30 32 -32 32 -2 0 -9 -14 -15 -31z m987 -825 c0 -8 -4 -12
-10 -9 -5 3 -10 10 -10 16 0 5 5 9 10 9 6 0 10 -7 10 -16z m-3195 -324 c3 -5
2 -10 -4 -10 -5 0 -13 5 -16 10 -3 6 -2 10 4 10 5 0 13 -4 16 -10z m3409 -20
c19 0 22 -26 3 -33 -22 -8 -42 10 -44 40 -2 25 -1 26 11 11 7 -10 21 -18 30
-18z m2356 -9 c0 -11 -9 -23 -21 -26 -31 -10 -35 2 -8 24 30 25 29 25 29 2z
m-2350 -53 c0 -5 -12 -8 -26 -8 -14 0 -23 -4 -19 -9 3 -5 1 -12 -4 -16 -6 -3
-15 3 -20 14 -8 14 -8 21 2 24 19 6 67 3 67 -5z m-190 -189 c0 -11 -27 -12
-34 0 -3 4 -3 11 0 14 8 8 34 -3 34 -14z"/>
<path d="M12989 9894 c-12 -14 -11 -16 5 -13 11 2 21 10 24 17 5 17 -13 15
-29 -4z"/>
<path d="M13830 9069 c0 -5 5 -7 10 -4 6 3 10 8 10 11 0 2 -4 4 -10 4 -5 0
-10 -5 -10 -11z"/>
<path d="M13815 9041 c-3 -6 -3 -15 0 -21 3 -5 1 -10 -5 -10 -6 0 -8 -4 -5
-10 3 -5 13 -10 21 -10 8 0 13 4 9 9 -3 5 1 11 8 13 11 2 10 7 -3 21 -12 12
-20 15 -25 8z"/>
<path d="M13865 8990 c-3 -5 -1 -10 4 -10 6 0 11 5 11 10 0 6 -2 10 -4 10 -3
0 -8 -4 -11 -10z"/>
</g>
</svg>
