<?xml version="1.0" standalone="no"?>
<!DOCTYPE svg PUBLIC "-//W3C//DTD SVG 20010904//EN"
 "http://www.w3.org/TR/2001/REC-SVG-20010904/DTD/svg10.dtd">
<svg version="1.0" xmlns="http://www.w3.org/2000/svg"
 width="677.000000pt" height="699.611486pt" viewBox="0 0 677.000000 699.611486"
 preserveAspectRatio="xMidYMid meet">
<metadata>
Created by potrace 1.15, written by Peter Selinger 2001-2017
</metadata>
<g transform="translate(-663.000000,1323.611486) scale(0.100000,-0.100000)"
fill="#222222" stroke="none">
<path d="M9326 13223 c-6 -14 -5 -15 5 -6 7 7 10 15 7 18 -3 3 -9 -2 -12 -12z"/>
<path d="M9220 13210 c0 -23 10 -26 28 -8 18 18 15 28 -8 28 -13 0 -20 -7 -20
-20z"/>
<path d="M9115 13192 c-3 -8 -11 -12 -19 -9 -8 3 -24 -2 -36 -10 -17 -12 -43
-15 -102 -14 -44 1 -86 5 -94 8 -9 3 -14 -1 -14 -12 0 -12 -6 -16 -20 -12 -13
3 -20 0 -20 -10 0 -11 -6 -12 -22 -7 -13 5 -40 7 -60 6 -21 -1 -38 2 -38 8 0
15 -21 12 -41 -6 -15 -14 -20 -13 -55 5 -46 25 -67 26 -84 6 -7 -8 -23 -15
-36 -15 -13 0 -27 -8 -32 -17 -9 -15 -13 -15 -58 3 -27 10 -54 19 -61 19 -7 0
-18 6 -24 12 -9 9 -15 8 -27 -4 -13 -13 -13 -16 -1 -24 8 -5 20 -9 26 -9 17 0
30 -53 14 -58 -6 -2 -24 -14 -39 -27 -17 -14 -45 -25 -68 -27 -33 -2 -43 2
-63 25 -18 22 -30 27 -47 23 -14 -4 -24 -2 -24 4 0 5 5 10 10 10 11 0 -36 80
-54 92 -6 4 -17 1 -25 -5 -12 -10 -14 -9 -8 7 6 16 5 17 -7 7 -11 -9 -24 -7
-60 10 -41 19 -47 19 -61 6 -8 -9 -33 -23 -54 -33 l-39 -17 19 -27 c24 -31 34
-90 16 -90 -8 0 -8 -3 -2 -8 13 -9 17 -52 5 -52 -6 0 -10 5 -10 10 0 14 -53
13 -68 -2 -8 -8 -15 -8 -27 2 -9 8 -15 8 -15 2 0 -6 -16 -19 -36 -28 -35 -17
-35 -16 -63 10 -16 16 -34 24 -43 21 -15 -6 -68 46 -68 66 0 5 -9 9 -20 9 -38
0 -82 33 -74 55 3 6 -1 12 -8 13 -7 1 -25 4 -40 8 -42 10 -101 -4 -94 -22 3
-8 0 -14 -7 -13 -24 3 -57 -14 -57 -28 0 -11 -7 -14 -25 -11 -27 6 -32 -1 -14
-19 8 -8 6 -18 -6 -36 -14 -21 -14 -30 -4 -49 7 -13 20 -29 31 -36 22 -16 24
-32 3 -32 -8 0 -15 -7 -15 -16 0 -14 -3 -14 -16 -3 -23 19 -62 18 -67 -2 -2
-9 -19 -19 -36 -23 -17 -3 -46 -9 -63 -13 -18 -3 -38 -13 -44 -21 -6 -8 -16
-12 -22 -8 -18 11 -42 -5 -42 -30 0 -14 -6 -24 -15 -24 -8 0 -12 -6 -9 -13 2
-7 -7 -26 -21 -41 -25 -27 -32 -28 -82 -9 -16 6 -18 -43 -2 -53 7 -4 8 -9 1
-13 -20 -12 -17 -66 8 -106 13 -21 26 -33 28 -27 10 32 52 -11 52 -54 0 -8 6
-14 13 -13 6 1 20 -1 30 -6 14 -6 15 -10 6 -21 -6 -8 -19 -14 -28 -14 -9 0
-22 -5 -29 -12 -9 -9 -13 -7 -18 5 -10 26 -27 20 -20 -7 4 -16 0 -29 -14 -41
-11 -10 -20 -24 -20 -31 0 -6 -21 -24 -46 -39 -39 -23 -44 -29 -30 -37 9 -5
16 -21 16 -37 0 -16 6 -31 14 -34 7 -3 16 -14 18 -25 5 -19 2 -20 -38 -16 -39
5 -44 3 -44 -15 0 -24 20 -73 35 -83 6 -5 5 -12 -5 -18 -13 -9 -13 -10 0 -11
8 -1 23 -1 33 0 19 2 24 -15 5 -21 -8 -3 -6 -14 7 -36 21 -34 45 -49 45 -27 0
7 9 17 20 20 11 3 20 13 20 21 0 8 4 14 8 14 4 0 8 10 9 21 3 29 6 31 37 19
22 -8 31 -7 44 7 16 15 16 16 0 11 -23 -9 -31 3 -11 17 13 10 14 18 6 42 -9
23 -8 31 4 39 13 8 13 13 0 46 -11 27 -23 38 -46 43 -42 9 -72 65 -35 65 13 0
15 8 12 35 -3 31 -1 35 18 35 13 0 26 5 30 11 3 6 17 9 30 6 13 -2 24 0 24 4
0 5 -5 9 -10 9 -6 0 -9 3 -8 8 1 4 -2 22 -6 40 -11 48 6 65 58 57 53 -9 84
-29 88 -57 4 -29 56 -39 70 -14 5 9 15 16 23 16 8 0 11 7 8 20 -4 15 -2 19 9
15 12 -5 17 5 22 41 9 65 8 75 -6 73 -32 -4 -39 1 -28 20 8 16 4 23 -33 45
-23 14 -36 25 -28 26 14 0 51 37 51 52 0 4 11 8 24 8 14 0 33 11 44 25 11 13
22 22 25 18 4 -3 28 -8 54 -10 26 -2 53 -9 60 -14 9 -8 17 -7 28 5 9 9 25 16
36 16 11 0 22 7 25 15 4 8 15 15 25 15 10 0 19 6 19 12 0 7 7 2 16 -10 17 -24
69 -31 76 -10 3 8 9 4 17 -10 8 -15 21 -22 40 -22 20 0 30 -6 34 -20 5 -18 13
-21 64 -19 32 0 79 -1 106 -3 41 -4 51 -1 78 23 20 18 37 25 51 21 17 -4 20
-2 15 11 -4 12 3 17 34 22 22 4 43 13 46 21 3 8 16 14 30 14 20 0 24 4 20 20
-3 13 0 20 9 20 7 0 22 9 32 20 14 15 27 19 48 16 23 -4 34 1 63 32 19 20 32
29 28 20 -3 -9 -9 -33 -13 -52 -3 -20 -10 -39 -15 -41 -4 -3 -6 -12 -2 -20 3
-10 -1 -15 -14 -15 -10 0 -24 -9 -31 -21 -8 -12 -19 -18 -28 -15 -8 3 -14 1
-14 -4 0 -6 -17 -17 -38 -26 -38 -14 -72 -62 -72 -99 0 -8 -6 -15 -14 -15 -18
0 -35 -74 -29 -121 4 -30 1 -39 -18 -52 -16 -12 -26 -13 -35 -6 -9 7 -19 7
-33 0 -11 -6 -33 -11 -50 -11 -21 0 -31 -5 -31 -15 0 -17 -30 -35 -59 -35 -16
0 -21 -6 -21 -29 0 -39 -9 -61 -25 -61 -8 0 -28 -20 -46 -45 -18 -24 -41 -47
-52 -51 -14 -5 -18 -13 -15 -35 4 -23 1 -29 -14 -29 -10 0 -18 -6 -18 -13 0
-9 -11 -12 -35 -9 -27 3 -44 -2 -70 -22 -19 -15 -40 -24 -45 -21 -6 3 -10 0
-10 -7 0 -7 -9 -19 -19 -25 -17 -10 -18 -17 -10 -54 5 -23 14 -50 19 -60 7
-11 7 -20 0 -24 -5 -3 -10 -16 -10 -28 -1 -12 -1 -34 -1 -49 -1 -16 -6 -28
-13 -28 -20 0 -38 -38 -26 -60 14 -26 13 -30 -12 -30 l-21 0 20 -22 c37 -40
11 -102 -34 -82 -10 4 -24 6 -30 5 -7 -1 -10 4 -7 13 4 11 -1 15 -23 13 -15
-1 -31 -6 -34 -11 -4 -5 -20 -2 -36 6 -22 11 -34 12 -46 4 -13 -8 -20 -7 -27
4 -8 13 -10 13 -10 -1 0 -12 -7 -15 -24 -12 -13 3 -27 0 -30 -6 -4 -6 -22 -11
-41 -11 -20 0 -35 -6 -39 -15 -3 -8 -12 -15 -21 -15 -8 0 -15 -7 -15 -15 0 -8
-3 -15 -7 -15 -13 0 -8 -97 5 -112 12 -16 6 -52 -15 -83 -7 -11 -13 -27 -13
-35 0 -9 -9 -34 -19 -56 -17 -34 -18 -41 -5 -55 13 -15 13 -17 0 -22 -18 -7
-17 -47 1 -47 7 0 25 -18 39 -40 15 -22 30 -40 35 -40 4 0 21 -28 39 -62 25
-50 28 -65 18 -73 -8 -5 -14 -21 -15 -35 -2 -47 -27 -100 -47 -100 -13 0 -16
-4 -11 -17 10 -25 12 -94 2 -100 -5 -3 -6 -11 -4 -17 3 -7 -3 -18 -13 -24 -14
-9 -21 -8 -30 3 -17 21 -30 19 -30 -5 0 -15 -7 -20 -25 -20 -16 0 -25 -6 -25
-15 0 -8 5 -15 11 -15 7 0 8 -14 4 -39 -4 -24 -2 -42 4 -46 6 -3 11 -15 11
-27 0 -11 9 -31 20 -45 11 -14 20 -36 20 -49 0 -12 4 -25 9 -29 5 -3 17 -27
26 -54 9 -27 25 -57 35 -66 11 -10 20 -22 20 -27 0 -15 51 -80 99 -127 28 -27
41 -46 34 -48 -22 -8 -15 -43 7 -43 24 0 26 -13 5 -30 -11 -9 -19 -7 -40 13
-31 28 -75 26 -75 -4 0 -21 -29 -26 -60 -9 -15 8 -19 4 -27 -28 -6 -24 -6 -45
0 -60 8 -17 6 -27 -8 -42 -10 -11 -15 -26 -11 -36 4 -10 1 -21 -6 -25 -10 -7
-10 -11 0 -21 6 -6 12 -22 12 -35 0 -13 7 -26 16 -30 12 -4 14 -14 9 -43 -5
-29 -3 -39 9 -43 9 -4 16 -1 16 4 0 6 9 9 19 6 12 -3 22 1 25 9 5 13 9 13 34
0 41 -21 107 -32 97 -16 -5 9 -2 10 14 5 17 -5 24 -2 28 13 4 18 9 19 32 11
46 -18 91 -69 91 -106 0 -22 6 -36 20 -43 11 -6 19 -19 18 -28 -2 -12 5 -17
25 -18 32 -1 91 -53 70 -61 -20 -7 13 -63 37 -63 12 0 25 -10 32 -25 6 -14 16
-25 22 -24 31 4 48 -4 78 -33 18 -18 33 -39 33 -47 0 -11 10 -16 30 -16 34 0
47 -12 39 -37 -3 -11 6 -24 25 -39 17 -12 27 -28 24 -35 -3 -8 -1 -14 4 -14 8
0 28 -32 70 -112 12 -23 21 -28 53 -28 22 0 50 -5 64 -11 19 -9 29 -9 39 0 8
6 22 9 31 5 9 -3 16 -1 16 4 0 31 118 5 162 -35 15 -13 22 -14 50 -2 32 13 32
13 91 -52 33 -35 62 -59 64 -52 3 9 12 9 31 2 66 -24 115 -59 81 -59 -5 0 -8
-4 -4 -10 9 -14 34 0 28 16 -3 9 2 14 15 14 12 0 23 4 26 9 3 5 27 12 53 16
37 5 48 4 55 -9 5 -9 19 -16 31 -16 45 -1 72 -41 45 -68 -8 -8 -8 -12 -1 -12
6 0 13 -10 16 -21 5 -17 11 -20 32 -15 19 5 27 2 32 -11 13 -36 55 -81 81 -89
15 -5 47 -9 72 -11 98 -5 110 -8 125 -30 9 -13 27 -23 40 -23 13 0 27 -4 30
-10 3 -5 13 -10 22 -10 9 0 31 -11 49 -25 25 -19 34 -35 39 -70 4 -24 13 -50
21 -56 8 -6 14 -23 14 -38 0 -41 12 -50 76 -60 115 -19 149 -28 181 -44 18 -9
37 -17 43 -17 7 0 25 -14 41 -31 23 -24 29 -41 29 -73 0 -41 3 -44 58 -81 31
-22 70 -50 86 -63 16 -13 40 -22 55 -21 66 5 77 0 89 -37 9 -30 8 -39 -4 -51
-18 -18 -18 -17 9 -58 12 -19 30 -35 39 -35 9 0 19 -6 21 -12 4 -8 6 -7 6 3 1
9 -6 19 -14 23 -10 4 -15 20 -15 51 0 33 4 45 15 45 8 0 15 -7 15 -15 0 -12
39 -42 48 -37 1 1 2 0 2 -3 0 -3 0 -12 0 -20 0 -8 -6 -12 -14 -9 -23 9 -27
-12 -10 -55 9 -23 14 -51 11 -62 -3 -12 1 -32 9 -45 15 -22 14 -24 -34 -48
-44 -22 -52 -24 -63 -10 -8 9 -16 11 -22 5 -11 -11 -1 -31 16 -31 16 -1 71
-77 85 -117 9 -27 8 -32 -6 -35 -14 -3 -13 -5 3 -21 14 -15 16 -20 5 -27 -11
-7 -10 -11 3 -24 8 -9 23 -16 31 -16 18 0 22 -26 5 -32 -17 -6 -1 -68 17 -68
8 0 14 7 14 15 0 21 17 19 47 -5 14 -11 31 -20 38 -20 7 0 33 -20 58 -45 26
-25 52 -45 59 -45 17 0 40 -48 26 -56 -5 -4 -7 -19 -4 -35 5 -24 2 -29 -14
-29 -12 0 -20 -7 -20 -16 0 -10 -7 -14 -22 -12 -13 2 -23 9 -23 17 0 20 -66
54 -80 40 -7 -7 -6 -12 2 -17 6 -4 13 -16 15 -27 2 -14 -2 -19 -14 -17 -10 2
-18 -2 -18 -8 0 -6 4 -9 9 -6 4 3 23 -6 41 -19 35 -26 70 -33 70 -14 0 5 4 8
9 4 5 -3 12 4 16 15 4 13 15 20 31 20 17 0 24 5 24 20 0 11 7 20 15 20 9 0 12
6 9 15 -5 11 1 15 19 15 14 0 27 6 30 13 2 8 8 9 18 2 8 -5 7 -3 -3 6 -17 16
-16 17 5 23 17 5 19 8 8 15 -11 7 -10 16 5 51 20 45 32 48 102 19 25 -10 37
-11 51 -2 10 6 23 8 31 3 20 -12 30 -3 30 26 0 17 6 24 18 24 11 0 24 11 30
25 6 14 16 25 22 25 13 0 13 37 0 45 -5 3 -10 20 -10 37 0 27 3 29 23 24 14
-3 33 1 45 10 13 9 31 13 42 9 12 -4 20 -2 20 5 0 8 10 10 25 8 19 -4 23 -2
15 7 -6 7 -8 20 -4 29 6 15 9 14 38 -3 36 -22 123 -41 113 -24 -12 19 81 25
109 7 24 -16 24 -16 18 15 -4 21 -3 31 5 31 7 0 10 4 7 9 -4 5 -3 16 0 25 5
13 10 14 20 5 9 -7 10 -17 4 -35 -9 -22 -6 -28 12 -25 4 0 15 -11 25 -25 16
-24 16 -28 -1 -58 -17 -31 -16 -35 3 -87 25 -64 25 -69 6 -69 -30 0 -85 -84
-85 -131 0 -26 -38 -62 -57 -55 -43 17 -62 -66 -20 -85 13 -6 28 -19 35 -30
10 -16 9 -19 -7 -19 -11 0 -23 -5 -26 -10 -4 -7 -11 -8 -18 -1 -7 5 -25 7 -40
4 -22 -4 -26 -9 -21 -25 3 -10 1 -25 -6 -32 -6 -8 -10 -18 -9 -22 1 -5 0 -12
-1 -16 -6 -20 -5 -34 5 -41 5 -5 -6 -6 -25 -3 -30 5 -37 2 -46 -17 -12 -27 -8
-47 11 -47 17 0 28 -17 20 -30 -5 -8 -11 -7 -21 1 -17 14 -29 6 -18 -13 7 -11
11 -26 16 -65 1 -7 11 -13 24 -13 35 0 54 -11 54 -30 0 -11 4 -21 9 -25 13 -8
26 16 23 42 -4 27 14 63 31 63 8 0 26 -13 42 -30 19 -20 32 -27 40 -20 13 11
59 -16 50 -30 -3 -5 5 -12 17 -16 12 -3 47 -31 77 -60 44 -44 60 -54 88 -54
31 0 33 1 21 23 -7 12 -22 32 -32 45 -19 22 -19 22 6 22 15 0 28 5 30 11 2 6
21 12 43 14 23 2 45 12 55 23 8 11 30 27 48 36 17 9 32 21 32 26 0 6 7 10 15
10 8 0 14 3 14 8 -1 4 2 22 6 40 6 25 13 32 31 32 27 0 44 37 23 51 -12 8 -11
11 1 22 22 17 44 73 36 93 -3 9 1 30 10 47 28 53 30 60 45 117 7 30 20 59 29
65 24 15 100 33 106 24 7 -11 81 72 85 96 3 15 -2 20 -21 21 -80 4 -91 38 -22
71 2 0 -1 9 -6 20 -37 74 -59 148 -53 181 1 8 -6 20 -16 28 -17 12 -17 13 0
14 21 0 22 16 1 24 -8 3 -12 11 -9 17 4 5 0 16 -9 22 -17 12 -28 29 -62 95
-10 17 -24 32 -31 32 -7 0 -13 4 -13 8 0 4 -14 13 -31 19 -17 7 -28 16 -25 21
3 5 -7 23 -22 40 -23 25 -27 38 -24 67 4 32 7 36 26 30 11 -3 35 -10 51 -15
17 -4 38 -11 49 -15 14 -6 17 -4 14 11 -2 10 -12 20 -23 22 -11 2 -28 11 -37
19 -9 8 -22 12 -28 8 -6 -4 -22 0 -35 9 -34 22 -43 20 -72 -14 -13 -16 -32
-30 -42 -30 -9 0 -22 -5 -28 -11 -7 -7 -30 -13 -51 -15 l-40 -4 29 29 c16 17
32 43 35 60 4 16 13 32 20 35 10 4 12 14 8 32 -6 23 -4 25 13 20 16 -5 22 1
34 41 l15 48 45 -4 c24 -2 52 -7 61 -12 11 -6 21 -4 32 6 8 8 20 15 26 15 11
0 11 5 -6 46 -3 6 9 17 26 24 34 14 83 71 85 98 2 27 14 42 35 42 16 0 18 4
11 23 -11 28 1 98 12 79 5 -6 17 -12 28 -12 16 0 19 5 14 20 -5 14 -2 20 9 20
9 0 16 -7 16 -15 0 -8 6 -15 14 -15 15 0 29 29 24 51 -2 10 10 15 37 17 56 5
75 28 65 80 -4 25 -3 40 2 39 6 -1 18 13 28 31 10 18 30 42 44 53 15 11 26 26
25 32 -1 7 -1 24 0 40 1 23 5 27 30 27 17 0 31 6 35 16 6 15 8 15 26 -1 11
-10 20 -15 20 -10 0 4 7 2 15 -5 11 -10 19 -10 27 -2 6 6 17 8 26 4 11 -4 14
-1 9 11 -3 9 -2 17 3 17 6 0 10 7 10 15 0 12 7 15 33 10 27 -5 37 -1 61 24 17
17 40 31 53 31 13 0 23 6 23 14 0 8 15 24 34 35 32 20 34 24 29 61 -5 38 -4
40 20 40 17 0 31 8 38 22 16 29 22 178 8 195 -9 10 -5 13 22 13 25 0 30 3 20
9 -12 8 -9 11 12 16 22 6 27 13 25 34 -2 35 17 68 44 76 44 12 68 29 68 47 0
10 5 18 10 18 6 0 10 11 10 25 0 19 5 25 21 25 11 0 33 8 47 19 15 10 42 22
60 26 38 8 56 42 47 87 -5 20 -3 28 8 28 16 0 40 47 32 61 -4 5 -12 9 -19 9
-8 0 -19 7 -26 15 -10 12 -9 15 8 15 27 0 35 26 20 66 -9 26 -9 37 0 46 8 8 6
17 -8 36 -25 32 -25 69 -1 90 17 15 61 85 61 97 0 3 -6 5 -12 5 -9 0 -12 16
-11 51 1 28 4 54 7 57 3 3 6 -2 6 -10 0 -27 27 -29 33 -2 2 13 1 24 -4 24 -4
0 -14 6 -21 13 -7 8 -27 18 -43 24 -21 7 -33 19 -41 43 -12 36 -57 75 -74 65
-6 -4 -7 -11 -4 -17 4 -6 -1 -8 -13 -4 -12 4 -25 1 -32 -8 -7 -8 -19 -12 -27
-9 -7 3 -17 -2 -20 -11 -3 -9 -12 -16 -20 -16 -7 0 -23 -13 -36 -30 -13 -18
-31 -30 -45 -30 -13 0 -23 -6 -23 -14 0 -12 -21 -27 -42 -30 -3 -1 -10 -4 -14
-8 -14 -14 -72 -9 -78 7 -7 19 -65 20 -91 1 -11 -7 -36 -16 -55 -19 -107 -18
-125 -23 -125 -32 0 -15 -34 -83 -45 -90 -5 -3 -7 -12 -3 -20 3 -8 0 -15 -6
-15 -6 0 -11 -7 -11 -15 0 -26 -29 -75 -44 -75 -10 0 -13 -11 -10 -40 3 -31
-1 -44 -20 -63 -13 -13 -31 -27 -40 -30 -9 -4 -16 -12 -16 -19 0 -16 -44 -58
-60 -58 -8 0 -7 -4 2 -13 18 -19 65 -29 73 -17 13 21 25 9 25 -24 0 -28 -4
-35 -25 -40 -31 -8 -31 -18 0 -52 13 -14 22 -30 19 -35 -3 -5 6 -13 20 -19 18
-6 27 -19 32 -45 3 -20 12 -35 20 -35 22 0 16 -30 -8 -39 -18 -6 -19 -9 -5
-14 15 -6 15 -10 -4 -42 -12 -19 -27 -35 -35 -35 -8 0 -14 -9 -14 -19 0 -11
-5 -21 -11 -23 -8 -3 -8 -10 2 -25 7 -12 10 -26 6 -30 -5 -4 -12 -2 -16 6 -5
7 -11 12 -15 12 -16 -2 -18 0 -7 13 8 10 6 20 -11 42 -35 47 -36 48 -53 34
-12 -10 -19 -10 -27 -2 -7 7 -18 12 -25 12 -6 0 -23 11 -36 24 -19 19 -26 40
-32 90 -3 36 -10 68 -15 71 -4 3 -6 14 -3 26 4 14 1 20 -8 18 -20 -4 -58 19
-107 65 -24 23 -57 53 -73 69 -22 20 -40 27 -68 27 -27 0 -41 5 -45 16 -5 13
-9 14 -20 5 -11 -10 -20 -5 -42 24 -15 20 -33 34 -40 31 -7 -3 -23 11 -36 30
-12 18 -30 34 -39 34 -22 0 -69 45 -69 66 0 10 5 14 14 11 24 -9 27 36 6 78
-22 44 -53 79 -101 116 -26 20 -38 40 -49 80 -8 30 -13 62 -11 72 1 12 -9 22
-32 32 -22 9 -39 26 -47 45 l-13 31 -26 -24 c-38 -36 -70 -50 -97 -43 -14 4
-24 2 -24 -4 0 -5 -5 -10 -12 -10 -6 0 -22 -9 -34 -21 -19 -17 -26 -19 -44 -9
-18 10 -24 9 -31 -1 -5 -8 -9 -17 -9 -20 0 -15 -45 -17 -60 -4 -9 8 -20 15
-24 15 -4 0 -19 11 -34 25 -33 31 -36 31 -61 -1 -23 -29 -29 -27 -79 25 -18
18 -22 31 -18 53 6 31 -8 68 -25 68 -6 0 -34 19 -61 41 -46 39 -49 44 -43 78
4 25 1 42 -10 56 -9 11 -18 15 -21 10 -2 -6 -21 -9 -40 -7 -24 3 -39 0 -45 -9
-7 -12 -16 -10 -49 8 -22 12 -40 17 -40 11 0 -5 -12 -1 -27 10 -46 31 -63 34
-63 11 0 -12 -5 -19 -12 -16 -7 2 -12 9 -11 15 4 18 -48 52 -89 58 -36 6 -41
11 -69 70 -16 35 -28 67 -27 71 1 5 -3 19 -9 33 -6 14 -14 33 -17 42 -3 10
-20 24 -38 32 -20 9 -26 15 -15 15 17 1 25 21 8 21 -5 0 -7 8 -4 18 2 10 -1
31 -8 47 -7 17 -13 37 -14 46 -1 9 -14 30 -29 45 -15 16 -37 50 -49 76 -20 42
-26 47 -55 48 -34 0 -37 3 -47 63 -4 24 -11 37 -22 37 -10 0 -13 6 -9 16 3 9
6 21 6 27 0 7 6 4 14 -5 10 -14 18 -15 47 -7 40 13 71 59 39 59 -10 0 -22 9
-25 21 -6 19 -8 19 -24 5 -25 -23 -46 -20 -59 9 -6 14 -16 25 -21 25 -21 0
-39 32 -46 81 -6 42 -4 54 9 61 9 5 16 17 17 26 1 11 4 8 9 -8 8 -24 8 -23 9
8 1 31 -27 72 -49 72 -5 0 -10 9 -10 20 0 11 5 20 10 20 6 0 10 4 10 9 0 5 13
23 30 39 29 29 29 29 46 10 17 -18 18 -18 36 18 10 21 18 47 19 58 0 12 3 15
6 9 2 -7 17 -13 33 -13 22 0 29 6 35 28 3 15 24 45 45 67 35 36 40 46 42 96 2
48 5 55 20 51 15 -4 18 2 18 36 0 23 4 44 10 47 6 4 4 18 -6 37 -9 17 -13 41
-10 53 5 18 -1 29 -20 44 -15 12 -35 21 -45 21 -10 0 -23 9 -29 21 -9 17 -8
23 6 34 17 12 16 16 -18 71 -26 43 -35 68 -33 93 1 19 -7 59 -17 90 -13 37
-18 70 -15 96 6 38 4 41 -34 62 -30 16 -41 18 -46 9 -14 -24 -38 -23 -76 1
l-38 24 -22 -28 c-12 -15 -21 -32 -19 -36 5 -17 -10 -48 -21 -44 -7 2 -20 -3
-30 -11 -14 -12 -20 -13 -30 -3 -9 10 -8 15 7 26 26 20 11 37 -28 30 -23 -5
-38 -1 -59 15 -15 12 -27 17 -27 12 0 -5 -11 -13 -25 -16 -19 -5 -25 -13 -25
-35 0 -19 -8 -34 -25 -45 -33 -22 -44 -20 -51 9 -7 27 -93 75 -129 72 -18 -2
-20 4 -17 57 1 41 7 63 19 71 9 7 14 19 10 28 -4 10 1 18 14 22 10 4 19 11 19
16 0 5 7 9 15 9 22 0 18 25 -9 57 -31 37 -42 73 -23 73 8 0 22 11 31 25 14 22
15 25 1 25 -8 0 -15 -9 -15 -19 0 -14 -5 -18 -20 -14 -27 7 -47 43 -30 53 21
13 2 28 -40 32 -27 2 -41 -1 -45 -10z m-1085 -393 c0 -6 -4 -7 -10 -4 -5 3
-10 11 -10 16 0 6 5 7 10 4 6 -3 10 -11 10 -16z m4050 -3521 c16 -11 27 -25
24 -29 -7 -11 -44 12 -44 28 0 6 -6 14 -12 16 -7 3 -9 6 -5 6 4 1 21 -9 37
-21z m-3 -51 c0 -7 -11 -18 -24 -24 -18 -9 -23 -8 -23 2 0 8 8 19 18 24 23 14
29 13 29 -2z m83 -37 c13 -8 13 -10 -2 -10 -9 0 -20 5 -23 10 -8 13 5 13 25 0z
m114 -91 c25 2 27 1 15 -11 -22 -22 -75 -38 -87 -26 -12 12 -4 40 9 32 5 -3 9
0 9 6 0 6 5 8 12 3 7 -4 26 -6 42 -4z m-2250 -1311 c21 -41 14 -47 -13 -10
-11 16 -18 32 -14 36 10 9 10 8 27 -26z m189 -600 c9 -32 -18 -19 -34 16 l-16
35 23 -17 c12 -9 25 -25 27 -34z"/>
<path d="M8295 13170 c3 -5 8 -10 11 -10 2 0 4 5 4 10 0 6 -5 10 -11 10 -5 0
-7 -4 -4 -10z"/>
<path d="M8000 12680 c0 -5 4 -10 9 -10 6 0 13 5 16 10 3 6 -1 10 -9 10 -9 0
-16 -4 -16 -10z"/>
<path d="M7887 12659 c7 -7 15 -10 18 -7 3 3 -2 9 -12 12 -14 6 -15 5 -6 -5z"/>
<path d="M7936 12644 c-10 -26 -7 -44 8 -44 20 0 26 12 19 38 -6 26 -18 28
-27 6z"/>
<path d="M7190 12545 c0 -11 34 -65 41 -65 15 0 -8 65 -24 68 -9 2 -17 0 -17
-3z"/>
<path d="M7160 12385 c-14 -16 -10 -18 14 -9 9 3 16 10 16 15 0 14 -16 11 -30
-6z"/>
<path d="M6890 9610 c0 -5 5 -10 11 -10 5 0 7 5 4 10 -3 6 -8 10 -11 10 -2 0
-4 -4 -4 -10z"/>
<path d="M12600 8577 c0 -7 5 -18 10 -25 6 -6 7 -10 4 -8 -11 9 -31 -18 -26
-36 2 -10 -8 -30 -27 -48 -17 -18 -31 -35 -31 -40 0 -5 -15 -21 -34 -35 -24
-18 -47 -26 -80 -27 -42 0 -45 -2 -35 -20 6 -11 7 -27 4 -36 -4 -9 -9 -32 -12
-51 -2 -18 -10 -40 -18 -48 -8 -8 -15 -21 -15 -29 0 -21 -45 -108 -64 -123 -9
-8 -16 -20 -16 -27 0 -8 -5 -14 -11 -14 -7 0 -17 -8 -24 -17 -10 -14 -10 -21
2 -39 10 -16 11 -24 3 -29 -6 -4 -10 -17 -9 -28 4 -60 -1 -86 -21 -92 -11 -3
-23 -17 -26 -30 -5 -20 -12 -24 -39 -23 -31 1 -32 2 -20 26 11 19 11 33 1 65
-6 23 -17 42 -24 41 -7 -1 -21 -2 -32 -2 -11 -1 -20 -8 -20 -15 0 -8 -11 -19
-25 -25 -22 -10 -24 -15 -15 -31 13 -25 13 -44 0 -36 -5 3 -20 3 -34 -1 -31
-8 -41 -50 -15 -65 11 -5 19 -18 19 -29 0 -10 5 -22 10 -25 6 -3 10 -14 10
-23 0 -17 48 -44 80 -46 8 -1 21 -5 28 -9 7 -5 26 -6 42 -2 23 5 31 2 40 -14
20 -38 60 -49 185 -54 48 -2 135 -41 135 -60 0 -20 65 -67 123 -89 69 -26 127
-27 106 -2 -9 11 -8 14 9 14 12 0 38 -16 58 -36 26 -27 38 -33 44 -24 4 7 15
10 24 7 9 -4 16 -2 16 3 0 6 8 10 18 10 10 0 23 5 30 12 9 9 15 8 26 -7 12
-17 17 -18 54 -6 22 8 52 11 66 7 15 -4 26 -2 26 4 0 5 8 10 18 11 10 0 12 3
5 6 -7 2 -13 15 -13 28 0 18 -11 28 -45 45 -56 27 -96 22 -88 -11 5 -19 4 -20
-13 -11 -15 9 -21 7 -31 -11 -11 -21 -12 -21 -19 -3 -4 10 -2 27 5 38 13 21 7
38 -15 38 -8 0 -17 7 -20 15 -9 22 -27 18 -21 -5 7 -28 -8 -25 -32 6 -26 33
-26 39 -2 61 25 24 33 91 11 98 -8 3 -24 12 -34 20 -15 12 -17 17 -7 29 10 12
9 21 -4 45 -15 29 -14 32 7 53 l23 23 -28 9 c-21 8 -27 16 -27 38 0 20 5 28
18 28 10 0 24 11 32 24 11 22 10 30 -14 70 -14 24 -26 50 -26 56 0 6 -7 27
-17 48 -34 77 -44 109 -50 171 l-6 64 37 -6 c33 -5 36 -4 31 14 -4 13 -2 19 8
19 24 0 37 45 27 97 -12 63 -19 80 -36 87 -8 3 -14 13 -14 22 0 11 -5 14 -17
9 -40 -16 -52 -16 -78 1 -35 23 -65 28 -65 11z m320 -1127 c0 -5 -2 -10 -4
-10 -3 0 -8 5 -11 10 -3 6 -1 10 4 10 6 0 11 -4 11 -10z"/>
<path d="M11876 8002 c-10 -16 9 -30 21 -17 10 10 9 14 -2 19 -8 3 -16 2 -19
-2z"/>
<path d="M11875 7720 c3 -5 8 -10 11 -10 2 0 4 5 4 10 0 6 -5 10 -11 10 -5 0
-7 -4 -4 -10z"/>
<path d="M10055 7556 c-11 -6 -21 -11 -23 -12 -1 -1 2 -12 7 -25 9 -23 9 -23
17 -4 4 11 12 23 17 26 19 13 2 27 -18 15z"/>
<path d="M9996 7485 c-3 -8 -2 -15 3 -15 5 0 14 7 21 15 10 12 10 15 -3 15 -8
0 -17 -7 -21 -15z"/>
<path d="M12958 7474 c5 -29 8 -30 15 -5 3 11 -1 22 -8 24 -8 4 -10 -3 -7 -19z"/>
<path d="M13186 7415 c-3 -8 -12 -15 -20 -15 -12 0 -26 -20 -26 -37 0 -5 70 4
103 13 25 8 21 33 -9 44 -34 13 -41 13 -48 -5z"/>
<path d="M13334 7422 c-15 -10 -24 -51 -13 -58 5 -3 9 2 9 10 0 20 14 20 30 1
20 -24 32 -18 16 8 -8 12 -15 26 -15 32 1 13 -13 17 -27 7z"/>
<path d="M13380 7340 c0 -5 5 -10 10 -10 6 0 10 5 10 10 0 6 -4 10 -10 10 -5
0 -10 -4 -10 -10z"/>
<path d="M10172 7075 c8 -8 -10 -29 -31 -36 -11 -4 -10 -8 3 -22 16 -15 18
-15 37 4 22 22 22 50 -1 57 -8 3 -12 1 -8 -3z"/>
<path d="M10120 6962 c0 -4 5 -13 12 -20 8 -8 8 -15 -1 -25 -9 -11 -8 -17 4
-27 9 -7 13 -20 10 -28 -8 -22 14 -32 42 -19 27 12 28 17 9 62 -13 30 -76 78
-76 57z"/>
<path d="M10528 6853 c7 -3 16 -2 19 1 4 3 -2 6 -13 5 -11 0 -14 -3 -6 -6z"/>
<path d="M10570 6846 c0 -2 8 -10 18 -17 15 -13 16 -12 3 4 -13 16 -21 21 -21
13z"/>
</g>
</svg>
