<svg version="1" xmlns="http://www.w3.org/2000/svg" width="469.508" height="890.375" viewBox="0 0 352.131 667.781"><g fill="#222"><path d="M152.103.844c2.4 3.8-.6 10.7-4.1 9.3-1.6-.6-1.9.8-.4 2.3.6.6.6 2.1-.2 4.2-1 2.6-1 3.7 0 5.2 1.8 2.9 1.5 4.8-1 5.6-2.1.6-2.1.7-.3 2 2.5 1.9 4.5 1.8 6.1-.4.8-1 1.3-1.2 1.4-.5 0 .7 1.1 1.3 2.4 1.3 1.4 0 3.1.8 3.8 1.9.7 1 2.3 2.1 3.6 2.5 1.7.6 2.2 1.5 2.2 3.9 0 1.8-.5 3.9-1.1 4.7-.9 1.3-1 1.2-.5-.2.9-3.1-1.8-.9-3.6 2.8-1.5 3.3-1.5 3.8 0 7.5 1.4 3.2 2.1 3.9 3.7 3.4 1.1-.4 3.1-.8 4.5-.9 4.2-.5 8.1-2.8 7.5-4.4-.4-1 0-1.3 1.5-.9s2 0 2-1.4c0-1 .4-1.9 1-1.9.5 0 .7-1.3.3-3.1-.5-2.9-.4-3.1 1.6-2.4 1.2.4 2.1.2 2.1-.4 0-.6-.6-1.1-1.3-1.1-.7 0-2.2-.8-3.3-1.8-2-1.9-5.4-3.6-6.6-3.4-.5.1-.7-.4-.5-1.1.1-.6-.3-1.1-1-1-1.5.3-10.3-8.4-10.3-10.1 0-.8-.7-1.9-1.6-2.7-1.1-.9-1.4-2.2-.9-4.6.3-1.8.2-3.3-.3-3.3-.6 0-1.3-1.5-1.6-3.4-.4-1.9-1.3-3.7-2.1-4-.8-.3-1.5-1.2-1.5-2s-.5-1.8-1.2-2.2c-.7-.5-.8-.3-.3.6zM143.603 9.744c0 1-.6 2.2-1.2 2.4-.8.4-.7.6.3.6 1.8.1 3.3-3.6 1.8-4.5-.5-.3-.9.4-.9 1.5zM314.603 14.844c-.6 1.1-1.7 2-2.5 2s-1.5.7-1.5 1.5c0 .9-.6 1.2-1.5.9-2.7-1.1-8.4.6-11.2 3.3-1.6 1.4-5.2 3.7-8 5-2.9 1.4-5.3 2.9-5.3 3.5 0 .6-.9.8-2 .5-1.6-.4-2 0-2 1.8 0 2.3-.2 2.4-5 1.8-3.4-.4-5-.2-5 .6 0 .6-.3 1-.7 1-2.3-.4-3.4.4-4.3 2.6-.5 1.4-1.4 2.5-1.9 2.5s-1.2 1.1-1.5 2.4c-.3 1.3-2.9 4.5-5.7 7-4.2 3.8-5.4 4.4-7 3.6-1.6-.9-1.9-.7-1.9 1.1 0 1.7-.5 2-2.3 1.7-2.8-.5-5.1 1.4-3.5 3 .6.6 1.3 2.5 1.5 4.2.2 2.6 0 3.1-1.5 2.8-1-.2-1.8-1.4-2-3.1-.3-2.8-4.3-5.4-6.2-4.2-1.1.7-6.3-1.6-7.3-3.2-.4-.7-2.6-1.3-4.7-1.3-3.7 0-4-.2-4.1-2.8 0-2.6-4.2-7.1-7.2-7.6-2-.3-9.7-5.6-9.7-6.6 0-.5-1.8-2.3-4.1-3.9-3.8-2.8-4.1-2.9-5.8-1.3-1.2 1.2-1.5 2.1-.8 2.9 1.2 1.6-1.1 4.6-3 3.9-.8-.3-1.5.5-1.9 2.2-.4 1.5-1.4 3.5-2.2 4.4-1.1 1.3-1.2 1.8-.2 1.8.9 0 1 .4.2 1.3-.7.7-.7 1.8-.2 2.7.6.9.2 2.2-1 3.8l-1.9 2.4 3.9 3.8c2.5 2.4 4.6 3.6 5.8 3.3 1-.2 2.5.4 3.4 1.4 1.8 2.1 3.2 8.3 1.8 8.3-.6 0-1 .7-1 1.5s-.4 1.5-.9 1.5-.7.9-.4 2.1c.6 2.1-3.5 6.9-6.9 8.2-1 .3-1.8 1.3-1.8 2.1s-.7 1.9-1.6 2.4c-1.3.7-1.2 1.3 1 3.9 1.4 1.7 2.6 3.6 2.6 4.2 0 .5.8 1.5 1.9 2 2.2 1.2 3.5 5.1 1.6 5.1-.7 0-1.8-.7-2.5-1.5-1-1.3-1.5-1.3-2.1-.3-.6.9-1.1.5-1.7-1.2l-1-2.5-1.2 3c-1.6 4.1-4.1 6.7-5.4 5.6-1.6-1.2-7.6-3.1-7.6-2.4 0 .4.8 1.6 1.8 2.7 1 1.2 2.7 4.2 3.6 6.9 1.8 4.8 4.9 7.9 7 7.1.6-.2 2.2.5 3.4 1.7 1.3 1.1 3 1.8 3.8 1.5.8-.3 1.3-.2 1 .3-.8 1.2 2 2.2 3.9 1.5 1.1-.5 1.5.1 1.5 2.5 0 1.7.4 3.1.9 3.1s1.8.3 2.8.6c1.5.6 1.6.4.6-.7-.7-.7-1.3-1.7-1.3-2.2 0-1.1 4.3.2 5.2 1.7.5.7.8.4.8-.7 0-1.4.4-1.6 1.9-.8 1 .6 1.8 2 1.7 3.3-.2 3.4 3.2 4.9 7.8 3.5 3-1 3.4-1.5 3-3.4-.8-3.2 2.1-3 4.2.3.9 1.4 2.3 2.3 3 2 1.3-.5 2.4 1.4 2.4 4.5 0 1.6.5 1.8 2.8 1.3 1.5-.4 3.2-1.3 3.8-2 .6-.8 2.1-1.4 3.3-1.4 1.2 0 2.9-.7 3.8-1.6.9-.8 2.1-1.3 2.7-1.1 4.6 1.9 4.6 1.9 6.1-1.7 1.8-4.3 5.9-5.1 6.9-1.4.4 1.3 2.4 3.6 4.5 5.3 3.8 2.9 6.1 7.2 4.4 8.4-.5.3-.7 3.2-.5 6.5.3 4.7.8 5.9 2.3 6.3 2.1.6 2.4 1.4 1 2.8-.9 1-4.6 12.5-4.3 13.6.1.4-1.5 2.5-3.4 4.7-2.3 2.8-4 3.9-5.1 3.5-1.3-.5-1.3-.3.2 2 1.5 2.4 3.4 4 2.1 1.8-.4-.5-.3-1.6 0-2.5.5-1.4 1-1.3 3 .7 2.4 2.5 4 8.7 2.2 8.7-.6 0-.4 1 .4 2.2.8 1.3 2.5 4.8 3.7 8 1.8 4.5 2 6.1 1.1 7.7-.7 1.3-.7 2.7-.2 3.8.5 1 1.2 3.4 1.6 5.4.4 2.2 2 5.1 4.1 7.2 2 2.1 3.5 4.6 3.5 6 0 1.4 1.1 3.2 3 4.5 4.3 3.2 4 5.6-.6 4.8l-3.6-.7.4 4.9c.4 4.7.3 4.9-1.6 4.3-1.6-.6-3.7-3.1-4.2-4.8 0-.1-3.1-.9-6.8-1.7l-6.7-1.4.3 2.7c.3 2.3-.1 2.6-3.1 2.9-1.9.2-4 1-4.8 1.8-.8.8-2.1 1.4-2.8 1.4-.8 0-1.8.7-2.3 1.6-.7 1.3-1.3 1.4-3.1.5-1.4-.8-2.1-.8-2.1-.1 0 .6-1.1 1.5-2.5 2s-3 2.1-3.5 3.5c-.9 2.3-2.2 2.9-5.8 2.8-.7-.1-1.9 1.2-2.8 2.8-1.5 3.1-2.4 3.5-3.9 2-2.3-2.2-10-.9-9.1 1.5.7 1.9-.1 1.7-3.1-.6l-2.5-2-2.2 3.3c-1.4 2.1-3.1 3.3-4.9 3.5-2.3.3-2.7.7-2.2 2.3 1 3.1-3.3 8.8-7.3 9.5-2.3.5-3.4 1.3-3.8 3-.4 1.5-1.3 2.4-2.6 2.4-1.2 0-2.2.9-2.5 2.1-.3 1.1-1.6 2.5-2.9 3-1.5.5-2.4 1.7-2.4 2.9 0 1.9-.4 2-3.7 1.4-2.1-.4-4.8-1.1-6.1-1.5-4-1.5-5.1-1-5.8 2.6-.3 1.9-1 3.2-1.5 2.9-.5-.3-1.6.2-2.5 1-.8.9-2.4 1.6-3.4 1.6s-2.5 1.1-3.4 2.5c-.9 1.4-2.1 2.3-2.6 2-.6-.4-1-.1-1 .4 0 1.8 2.8 1.3 8.5-1.5l5.3-2.6 2.3 2.1c1.3 1.1 2.7 2.1 3.2 2.1 1.4 0 10.9 7.6 19.5 15.7 2.3 2.1 4.5 3.3 6.4 3.3 1.5 0 2.8.4 2.8 1 0 .5 2 1 4.5 1 4.7 0 5.6-.9 3-3-.8-.7-1.5-1.9-1.5-2.6 0-1.7 2.2-1.8 3.7-.3.7.7 2.9.5 7.3-.6 4.7-1.2 7-1.4 8.7-.6 1.8.8 2.6.7 4.1-1 1.1-1.1 2.6-1.7 3.4-1.4.9.4 1.9.2 2.3-.4.3-.6 1.7-1.1 3-1.1s2.7-.5 3-1c.4-.7 1.3-.7 2.6 0 1.4.8 2.5.6 4.4-.6 1.9-1.3 3.7-1.5 7.9-1 4.9.7 5.5.5 6.1-1.3.3-1.1 1.8-2.2 3.6-2.6 1.6-.4 3.4-1.5 3.9-2.5.6-1.1 1.7-1.7 2.5-1.4.9.4 2.2.1 2.9-.5 2-1.7 6.1 2.6 4.5 4.6-.9 1-.7 1.3.9 1.3 1.1 0 2.2-.7 2.6-1.5.4-1.1 1.3-1.4 3.1-.9 3.8.9 11.5-.5 11.5-2.1 0-1 1-1.2 3.8-.9 2 .3 4.4.8 5.2 1.1 3.9 1.5 9-2.4 9-7 0-3 0-3 4.8-2.5 5.8.7 7.2.2 7.2-2.4 0-1.9 0-1.9 3.3-.1 4.2 2.5 7.3 1.9 8.2-1.4.7-2.9-.7-4.8-6.7-8.9-2.2-1.6-4.4-3.9-4.9-5.2-.7-1.8-1.4-2.2-3-1.7-1.6.5-2.2.1-3.2-2.4-.6-1.7-1.7-3.1-2.4-3.1s-1.3-.5-1.3-1c0-1.6-6-4.8-7.9-4.3-1.3.3-2.5-.7-4.1-3.4-1.3-2.1-3.9-5.5-5.7-7.6-1.8-2-3.3-4.4-3.3-5.1 0-.8-1.2-2.1-2.7-2.8-3-1.4-5.8-6.1-4.8-7.8.4-.6 2.4 1.3 4.6 4.2 4 5.4 8.2 7.6 10.5 5.7 1.4-1.2 6.5-.5 10.2 1.4 2.3 1.1 3.4.5 4.5-2.6.1-.5 1.5-1 3-1 2-.2 2.9-.9 3.6-3 1-2.8 2.5-3.5 3.6-1.7.8 1.3 2.5 1.3 2.5-.1 0-.5-.4-.7-1-.4-.5.3-1-.3-1-1.4 0-1.5-.6-2.1-2.4-2.1-1.9 0-2.3-.4-1.9-2 .3-1.2 1.4-2 2.5-2 1.9 0 2-.4 1.4-5.4-.7-5.1-.6-5.4 1.3-4.9 1.1.3 2.3 1.4 2.6 2.4.8 2.4 3.5 2.5 2.9.1-.3-.9-1.9-2.7-3.7-4-2.9-2-3-2.2-.9-2.2 1.5 0 2.2-.6 2.2-1.9 0-1 .7-3.2 1.5-4.7 2.4-4.6 1.8-6-1.1-3-1.5 1.4-3.6 2.6-4.7 2.6-1.7 0-1.8.2-.6 1.6 1.1 1.4 1 1.8-.6 3-1.7 1.2-2.1 1.2-3.5-.2-1-1.1-1.1-1.8-.4-2.1.6-.2.9-1.5.6-2.8-.2-1.4 0-2.5.6-2.5s1.2-1.7 1.5-3.8l.3-3.7.8 3.2c.9 3.5 3.1 5 4 2.7.3-.8 1.2-1.4 2.1-1.4.8 0 1.5-.9 1.5-2 0-2.2-1.9-2.7-3.7-.9-1.6 1.6-3.2.3-2.6-2.1.4-1.5 0-2-1.5-2-2.1 0-4.7-3.2-3.5-4.3.3-.4 0-1.3-.7-2.2-1-1.2-1-1.8 0-3 .7-.9 1-1.8.6-2.2-.3-.3-.6-.1-.6.5 0 .7-.7 1.2-1.5 1.2s-1.5-.7-1.5-1.5c0-2.4-8.6-10.2-12.8-11.6-5-1.5-7.7-4.2-9-8.8-.7-2.3-2.2-4.3-3.8-5.1-1.4-.8-3.7-2.7-5-4.3-1.3-1.6-2.8-2.6-3.3-2.3-.5.3-1.4-.1-2.1-.9-1-1.2-.9-1.5.5-1.5 1.8 0 1.8-3.4 0-3.6-3.5-.3-6.3-1.7-5.8-3 .3-.8 0-1.4-.7-1.4-1 0-1-.3 0-1.5.7-.8 1-2.1.7-2.9-.3-.8.1-2 .9-2.7.8-.6 1.4-2.6 1.4-4.3-.1-1.7.3-4.9.7-7.1.5-2.2.6-5.4.2-7-.4-1.7-.7-4.7-.8-6.9-.1-2.5-1-4.8-2.6-6.7-2.4-2.9-2.5-4-1.6-13.3.1-.5.9-.2 1.9.7 2 1.8 3.7 2.3 2.8.8-1-1.6.5-4.1 2.5-4.1 1.6 0 1.9-.8 1.9-4.9 0-4.2.3-5 2.3-5.5 2.4-.6 5.7-5.6 5.7-8.7 0-1 .5-1.9 1-1.9.6 0 1-.7 1-1.5 0-.7.7-1.8 1.6-2.3 1.4-.8 1.5-1.4.5-4.3-.9-2.7-.9-3.6.2-4.4.9-.7 1.3-3.2 1.2-7.8 0-3.7.3-6.7.7-6.7.4 0 1.7-1.8 2.8-3.9 1.4-2.8 3-4.3 5.5-5.2 2.6-1 3.5-1.9 3.5-3.5 0-1.2.3-3 .6-3.9.6-1.4.8-1.4 2.3-.1 1.4 1.2 2.1 1.2 4.9.1 1.7-.8 3.2-1.9 3.2-2.5 0-.5.9-1 2-1 1.3 0 1.8-.5 1.4-1.5-.4-.9 0-1.5 1-1.5.9 0 1.6-.6 1.6-1.2 0-.7.7-.2 1.6 1 2 2.9 5.8 2.9 7.1-.1.8-1.8.6-2.9-1.1-5.3-2-3-2.6-3.4-4.5-3.4-1.5 0-2.2-3.2-1-4.6.9-1.1.9-1.3-.2-1-1.8.7-5.3-2-4.4-3.3.4-.7-.4-1.1-1.9-1.1s-3 .8-3.6 2zm-110 31c0 .5-.4 1-1 1-.5 0-1-.5-1-1 0-.6.5-1 1-1 .6 0 1 .4 1 1zm35.7 80.2c-.8 2.6-1.9 4.2-3 4.4-1.5.2-1.8-.4-1.5-3.4.2-2.9.8-3.8 2.8-4.3 1.4-.4 2.6-.7 2.7-.8.1-.1-.4 1.8-1 4.1zm-30.7 10.8c0 .5-.2 1-.4 1-.3 0-.8-.5-1.1-1-.3-.6-.1-1 .4-1 .6 0 1.1.4 1.1 1zm110 100c.8 1.6.8 2-.4 2-.9 0-1.4-.8-1.3-2 .1-1.1.2-2 .4-2 .1 0 .7.9 1.3 2zM331.703 23.344c-.1 2.4 1.5 5.2 2.4 4.3.4-.3 0-1.9-.9-3.5-1.3-2.3-1.5-2.4-1.5-.8zM140.703 28.744c-2.1.6-2.2.8-.8 1.9 1.3 1.1 1.7 1 2.7-.7.6-1.2.9-2.1.8-2-.2.1-1.4.4-2.7.8z"/><path d="M216.803 39.944c1.6 1.6 4.1 2.9 5.3 2.9 2.6 0 4.6 2.1 2.7 2.8-1.9.6-.2 5.4 3.2 8.9 3.5 3.7 4.8 4 6.7 1.7.9-1.1 2.2-1.4 4.5-.9 3.4.6 4.8-.3 3.6-2.2-.5-.8-1.3-.9-2.2-.3-1.7 1.1-5-.5-5-2.5 0-1.6-3.5-2.9-5.1-2-1.4.9-3.8-2.4-3.9-5.2 0-3.2-2.8-5.7-4.7-4.1-1 .8-1.7.8-2.1.1-.4-.5-1.9-1.2-3.4-1.5l-2.7-.5 3.1 2.8zM154.003 45.944c-.3.6-.1 1.6.5 2.2.8.8 1.1.8 1.1-.1 0-.7.7-1.2 1.5-1.2s1.5-.5 1.5-1c0-1.3-3.7-1.3-4.6.1zM218.903 51.344c0 .8.4 1.5.9 1.5.4 0 .8-.4.8-.9 0-.6-.4-1.2-.8-1.5-.5-.3-.9.1-.9.9zM165.603 57.844c0 .5.5 1 1 1 .6 0 1-.5 1-1 0-.6-.4-1-1-1-.5 0-1 .4-1 1zM172.603 128.744c0 1.1.5 2.3 1.1 2.7.8.4.9 0 .4-1.5-.5-1.7-.3-2 1.1-1.4 1.2.4 1.5.3 1-.5-1.2-1.9-3.6-1.4-3.6.7zM220.703 145.444c1.3 1.6 2.9 1.9 2.9.5 0-.5-.9-1.1-2.1-1.4-1.6-.4-1.8-.3-.8.9zM231.803 148.444c-.8.8-1.1 2.1-.9 2.9.3.7-.2 1.6-1.1 2-1.6.6-1.6.7.1 1.6.9.6 1.7 1.7 1.7 2.6 0 .9.6 1.3 1.5.9 1.1-.4 1.5.2 1.5 2.4 0 2.7.3 3 3 3 2.8 0 2.9-.1 1.9-2.7-.6-1.5-1.5-3.1-2.1-3.4-.7-.4-1.3-2.4-1.4-4.5-.4-4.7-2.3-6.9-4.2-4.8zM234.103 167.544c-1.6 1.4-3 3.1-3.1 3.7 0 .6-.2 1.6-.2 2.3-.1.6-1.1 1.5-2.3 1.8-1.7.6-2 1.4-1.8 4.5.2 2.2 0 4.2-.3 4.6-.4.3-.1 1.5.5 2.5.9 1.5.9 2.1 0 2.7-1 .6-.9 1.3.3 3.1 1.2 1.6 1.9 2 2.7 1.2 1.5-1.5 4.7-1.4 4.7.1 0 .9.3.9 1.2 0 .7-.7 2-1.2 3.1-1.2 1 0 1.6-.4 1.2-.9-.3-.5 0-1.3.6-1.6.5-.4.8-1.3.5-2.1-1-2.5.5-4.4 2.8-3.8 1.5.3 2.8-.2 4.1-1.6 1.8-2 1.8-2.1-.3-3.6-1.2-.8-2-1.9-1.7-2.4.7-1.1-4.2-6-6-6-.8 0-1.4-.3-1.4-.8.3-2-.2-5.2-.8-5.2-.5 0-2.1 1.2-3.8 2.7zM249.703 184.144c-1.2 1.5-.5 2.7 1.6 2.7.8 0 1.1-.5.8-1-.3-.6-.1-1 .5-1s.8-.5.5-1c-.8-1.4-2-1.3-3.4.3zM331.103 215.844c.3.5.8 1 1.1 1 .2 0 .4-.5.4-1 0-.6-.5-1-1.1-1-.5 0-.7.4-.4 1zM107.703 308.744c-1.1 1.9-1.7 2.1-8.1 1.5l-7-.7v2.9c-.1 2.4-.9 3.4-4.7 5.7-2.6 1.6-5.5 2.6-6.5 2.4-1-.3-1.6-.1-1.3.3.3.5-.6 1.7-2 2.6-2.1 1.4-2.8 1.4-4.2.3-.9-.8-1.4-.9-1-.2.5.8.1.8-1.8 0-1.3-.7-2.4-1.9-2.2-2.7.1-.8-.6-1.6-1.5-1.8-1.3-.2-1.8.3-1.8 1.7 0 1.2.5 2.1 1.1 2.1.6 0 1.7.7 2.6 1.6 1.2 1.2 1.3 1.8.4 2.7-.9.9-1.4.9-2-.1-.4-.7-2.1-2-3.6-2.8l-2.8-1.4.6 4.2c.3 2.3 1.3 4.5 2.1 5 .9.5 2.7 2.9 4.2 5.3 1.4 2.5 2.9 4.4 3.2 4.2 1.7-.5 10.2 3.9 10.2 5.4 0 .8.5 2 1.1 2.6.7.7.1 1.2-2.1 1.6-2.7.6-3 1-2.8 3.4.3 2.6 0 2.8-3.2 2.8-1.9 0-4.1.4-4.8.9-.7.4-1.4.6-1.6.5-2-2.8-4.3-7.9-3.6-7.9 2 0 .9-4.2-2-8.6-1.7-2.4-3.5-4.4-4-4.4-.6 0-.9.3-.8.8.5 1.4-4 5.4-5.3 4.6-.9-.5-1-.1-.5 1.7.7 2 1.1 4.6 1.5 8.2.1.4 1.2 1.9 2.6 3.3 2.3 2.3 2.4 2.7 1 4.7-.8 1.2-1.5 3.2-1.5 4.5 0 1.6-.9 2.7-3.1 3.6-1.7.7-2.7 1.6-2.1 2 1.3.7-1.4 6.6-3 6.6-.6 0-.6.6.2 1.5.9 1 .9 1.9.2 2.7-.6.7-1 1.7-1 2.3 0 .5-.5 1.1-1.1 1.3-.6.2-1.1-.1-1.1-.7s-1.1-1.1-2.5-1.1c-2.6 0-2.7 1-.9 6.7.2.7-.3 1.3-1.1 1.3s-1.5.7-1.5 1.6c0 1.5-1 1.4-5.6-.3-.7-.2-1.5 0-1.9.6-.3.6-2 1.1-3.7 1.1-2.8 0-3 .2-2.3 2.7.8 2.9.8 3.2.1 9.8-.2 2.2-.4 5-.5 6.1-.1 1.2-.7 2.2-1.3 2.1-3.9-.1-4.3.3-4.3 5.2 0 2.8.6 5.6 1.3 6.2.6.7 1.2 2.3 1.2 3.6 0 1.6.6 2.3 1.9 2.3 1.1 0 2.3-.5 2.6-1.1.4-.6 1.3-.8 2-.5.9.3 1.1-.2.7-1.6-.4-1.8-.2-1.9 1.9-1.3 1.3.5 3.5.8 4.9.9 1.4.1 2.5.7 2.5 1.3 0 .7 1 1.9 2.2 2.8 1.7 1.2 2.5 1.3 4.5.2 1.4-.7 2.3-1.8 2-2.5-.3-.9.6-1.2 3.1-.9 4.1.5 5.7 1.4 5.7 3.2 0 .7 1.4 1.6 3 2 2.3.5 3.4 1.6 4.6 4.3.8 2 1.2 4.2 1 4.9-.3.7-.1 1.5.4 1.8 1.4.9 1.2 4.5-.2 4.5-.6 0-2.2-1-3.6-2.3l-2.4-2.2.7 2.7c.6 2.4.4 2.8-1.5 2.8s-2.1.4-1.5 2.2c1.7 5.7 1.7 6.8.1 6.8-2.1 0-2 1.6.2 3.2.9.7 1.8 2.3 2 3.6.3 2.2.1 2.3-4.1 1.7-4-.6-4.6-.5-5.2 1.4-.3 1.1-.3 2.6 0 3.1.4.6.4 2.2.1 3.5l-.6 2.4-2.7-2.5c-1.4-1.3-3.4-2.4-4.4-2.4-2.5 0-4.9 1.1-4.9 2.2 0 .5-.6 1.6-1.4 2.4-1.3 1.2-1.3 1.8.2 4.5 1.6 2.8 1.6 3.1.1 4.2-1.5 1.2-1.5 1.4.2 3.6 2.4 3 2.4 3.9-.2 4.3-1.9.3-1.9.4.5 3.7 2.9 4 3.2 5.1 1.2 5.1-1.1 0-1.2.8-.5 4.1.5 2.2.8 4.6.7 5.2-.2.7.8 2.9 2 4.9 1.3 2.1 2.5 5 2.6 6.5.2 1.5 1.5 3.6 3.1 4.9 2.7 2.1 2.8 2.5 2.2 8.4-.4 3.4-1 6.6-1.3 7.2-.3.5-2.2.7-4.4.3-3.7-.6-3.8-.5-3.7 2.2.1 1.5.5 3.1 1 3.4.4.3-.4 1.1-1.7 1.8-1.7 1-2.4 2.1-2.3 3.9.2 2.2-.4 2.7-4.6 3.8-2.6.6-5.4 1.8-6.2 2.4-1.2 1-1.5 1-1.5 0 0-.7-.7-1-1.6-.6-2.3.9-9.1-1.2-9.8-3-.5-1.3-.9-1.2-2.8.6-1.3 1.2-3.3 2.6-4.5 3.1-1.5.5-2.1 1.4-1.7 2.4.4.8 0 1.7-.9 2.1-1 .3-1.4 1.5-1.3 3.2.3 2.8 2.4 4.2 3.6 2.2 1.2-1.9 2.1 6.6 1 9.6-.9 2.1-.7 2.9.7 4 1 .7 2.6 1.4 3.5 1.4 2.1 0 3.2 1.6 1.8 2.5-1.3.8.6 3.5 2.4 3.5.7 0 2 .6 3 1.3 1.5 1.1 1.7 1.7.7 3.5-1.1 2-.9 2.2 1.9 2.2 3.3 0 4-1.4 1.4-2.8-.9-.5-1.4-1.4-1-2.1 1-1.6 2.6-1.4 2.6.4 0 .8.6 1.5 1.4 1.5.7 0 1.9 1.3 2.6 3 1.1 2.5 1.8 3 4.9 3 2 0 4.5.7 5.5 1.5 1.6 1.2 2.2 1.2 2.8.2.6-.8.8-.3.6 1.3-.4 3.3 2.9 6.2 5.5 4.8 1.4-.7 2.2-.5 3.3.9.7 1 1.4 2.5 1.4 3.4 0 1.9 2.7 4.4 5.7 5.3 2.3.7 6.3-1.1 6.3-2.9 0-1 2.6-2.7 6.3-4.1.9-.3 1.7-1.3 1.7-2 0-.8 1-1.4 2.5-1.4 3.2 0 3.2-1.8.1-2.9-3.1-1.2-4-4-2.1-6.1.8-.9 1.5-2.2 1.5-2.9 0-.7 1.6-3.2 3.5-5.5 4-4.9 5.4-9.8 3.5-12.1-1-1.2-1-1.5.3-1.5.8 0 2.1-1.3 2.9-3 .9-2.1 1.8-2.8 3-2.4 1 .3 2.1-.2 2.7-1.3.9-1.7 1.2-1.6 4.2.6 2.1 1.6 3.4 2 3.7 1.3.2-.8.9-.9 2.2-.2 1.3.7 2.2.6 3.2-.3.7-.7 2.9-1.7 4.8-2.3 1.9-.5 3.9-1.9 4.5-3.1.6-1.1 1.6-2.7 2.2-3.4.6-.8 1.4-3.1 1.8-5.3.5-2.5 1.4-4 2.6-4.3 1.1-.3 1.9-1.2 1.9-2 0-1 .6-1.3 1.5-.9.9.3 1.8-.1 2.1-.9.4-.8 1.5-1.5 2.6-1.5 1.2 0 1.8-.5 1.5-1.3-1.6-4.3-1.6-5.5-.2-6.7.8-.7 1.5-2.3 1.5-3.6 0-1.2 1-3 2.3-3.9 1.8-1.3 2-1.7.7-2.4-4.8-2.8-8.9-6.8-8.6-8.3.2-.9-.5-2.5-1.5-3.4-1-.9-1.9-2.7-1.9-3.9 0-2-1.7-3.6-3.6-3.4-1.5.1-2.3-2.8-1.7-6.3.6-4-.2-8.8-1.6-8.8-.4 0-2.8-1.9-5.2-4.2-3.9-3.6-4-3.9-1.2-2.3 3 1.8 3.3 1.8 5.1.2 1-.9 2.2-1.4 2.5-1 .4.3 1.8.7 3.2.8 2.1 0 2.4-.3 1.9-2-.3-1.1-1.7-3.1-3.2-4.4-3.6-3.3-5.5-7.2-4.2-8.5 1.5-1.5 1.3-2.3-1.2-4.5-1.7-1.7-1.9-2.3-.9-3.5 1.1-1.3.9-2-.8-4.2-1.2-1.5-2.1-3.4-2.1-4.2 0-.8-1.4-2.8-3.2-4.4-2.8-2.5-3.7-2.8-7.4-2.2-3.1.4-4.9.2-6.6-1-1.2-.9-3.3-1.6-4.5-1.6-2 0-4.5-2.8-4.2-4.7.1-.4 0-1-.1-1.3-.1-.3-.3-1.4-.4-2.5-.6-4-1.1-5-3.4-6.6-1.3-.9-2.3-1.9-2.3-2.3.3-2-.1-2.6-1.4-2.6-.8 0-1.5-.5-1.5-1.1 0-.6.8-.9 1.8-.7 2.6.7 3.7-1.1 3.5-5.7-.1-2.5-.8-4.5-2-5.5-1.3-1-1.9-2.8-1.9-5.8.1-2.3.3-4.2.7-4.2.3 0 .5-1 .5-2.3-.1-1.8.4-2.2 3-2.3 4.4-.1 7.6-2.6 7.2-5.7-.2-1.5-.7-2.9-1.1-3.3-.4-.4-.7-3-.7-5.7v-5l4.9.7c6.6.9 8.2.1 8-3.8-.2-4.1 1.7-8.6 3.5-8.6 1 0 1.3-.6.9-1.6-.3-.9.3-2.3 1.6-3.5 1.1-1.1 2.1-2.9 2.1-4 0-3.1-5.6-7.9-9.2-7.9-3.7 0-6.4-1.5-7.9-4.3l-1.2-2.2 2.5 2.3c2.2 2 2.6 2.1 3.1.8.7-1.7 8.7-2.3 8.7-.7 0 .5 1.4 1.4 3 2 2.4.8 3 .7 3-.4 0-1.8-4.6-4.9-6-4-.5.3-1-.1-1-.9 0-.9 1.3-2.2 2.9-3.1 1.7-.8 3.6-2.4 4.4-3.6 1-1.3 1.7-1.7 2.2-1 1.1 1.8 2.7.1 2.1-2.3-.8-3.4 1.8-6 5.4-5.3 2.5.6 3 .3 3-1.3 0-2.1 1.5-2.7 2.5-1 .8 1.3 3.5.1 6.1-2.7 1.2-1.3 2.6-2.3 3.1-2.3 1.2 0 4.9-5.1 4.5-6.3-.3-1 .6-.9 2.8.3 1.5.8 2.4.5 4.2-1.3 2.1-2.1 2.2-2.4.7-3.9-.9-.8-3.4-1.8-5.5-2.1-8-1.2-10.5-2-11.4-3.8-.6-1-1.8-1.8-2.8-1.8-.9 0-4.2-.3-7.4-.7-5-.6-5.7-.4-6.7 1.5zm-50.1 163.5c0 1.8-1.7 2.9-3 2.1-.8-.5-.7-1.1.1-2.1 1.5-1.8 2.9-1.8 2.9 0zm-7 139.2c0 1.7-1.2 1.8-2.8.2-1.8-1.8-1.5-2.7.8-2.1 1.1.3 2 1.2 2 1.9zM58.403 311.644c-.4 1.2-.2 2.5.4 2.8 1.6 1 2.2-.4 1.1-2.8l-1-2.2-.5 2.2zM326.803 311.244c0 .6-.7 3.2-1.6 5.8-1.4 4.6-1.4 4.8.5 5.9 1.6.8 1.8 1.3.9 2.4-.7.8-.9 1.8-.6 2.3.9 1.4-1.8 6.3-3.1 5.7-.7-.2-1.3.3-1.3 1.1 0 1.2-.7 1.5-2.4 1.2-1.6-.3-2.7 0-3.1 1-.8 2.2 1.7 3.4 3.4 1.7 1.3-1.3 1.7-1.3 3.2.1 1 .9 3.7 1.8 6.1 2 2.6.3 5.3 1.5 6.8 2.8 3.4 3.2 5.2 3.6 7.3 1.8 1.6-1.4 1.9-1.4 2.7-.2.8 1.3 1 1.2 1-.3 0-1.4.4-1.6 1.8-.8 1.5.8 1.8.5 2-1.5.1-1.4.7-3.4 1.3-4.5 1.4-2.6-.6-5.5-2.7-3.8-2.6 2.1-9.3-3.5-9.4-7.9 0-2.5-5-5.6-5.7-3.5-.2.6-1.2.9-2.3.6-1.3-.4-1.8-1.4-1.8-3.4.1-2.7.4-2.9 2.9-2.4 1.5.3 2.9.2 3.2-.2.8-1.3-.8-3.4-2.9-3.8-1-.2-2.1-.4-2.3-.4-.2-.1.1-.7.7-1.4.8-.9.4-1.2-1.7-1.3-1.5-.1-2.8.4-2.9 1zM62.603 314.844c0 .5.7 1 1.5 1s1.5.5 1.5 1.1c0 .5.5.7 1 .4.8-.5.7-1.1-.1-2.1-1.3-1.6-3.9-1.9-3.9-.4z"/><path d="M59.603 319.744c0 1.1 3.1 2.4 3.9 1.6.3-.3-.1-1-.9-1.5-1.9-1.2-3-1.2-3-.1zM53.603 333.344c-1 1.2-1 1.9-.2 2.7 1.7 1.7 3.7-.5 2.5-2.7-.9-1.5-1.1-1.5-2.3 0zM58.603 335.844c0 .5.7.7 1.5.4.8-.4 1.5-.8 1.5-1 0-.2-.7-.4-1.5-.4s-1.5.4-1.5 1zM311.703 340.744c-.9.6-1 1.1-.2 1.5 1.3.8 3.1-.1 3.1-1.5 0-1.1-1.1-1.1-2.9 0zM112.603 343.744c0 .9-.8 1.2-2.8.8-3.9-.8-7.3 2-6.1 5.1.5 1.2 1.5 2.5 2.4 2.8 2 .8 6.7-.4 6.1-1.5-.3-.5.3-1.1 1.4-1.4 2.4-.6 2.6-2.6.5-5.3-1-1.3-1.4-1.4-1.5-.5zM107.903 354.544c-2.5.5-2.9 2.3-1.3 5.3.8 1.5.6 2.1-.9 2.9-1.3.8-1.7 1.7-1.4 3.2.4 1.4 0 2.6-.9 3.3-2.3 1.7-1.8 4.6.8 4.6 1.3 0 2.9.9 3.7 2 1.4 2 6.4 5 8.3 5 1.8 0 2.4-2.7 1.4-5.6-.9-2.2-.8-2.5.5-2 .8.3 1.5.1 1.5-.4 0-.6-.5-1-1.1-1-.6 0-.9-.9-.6-1.9.3-1.1-.1-2.2-.9-2.5-.7-.3-1.1-1.2-.8-2 .5-1.4-4.5-11.8-5.6-11.5-.3.1-1.5.4-2.7.6zM86.603 390.244c0 .8.4 1.7.9 2 .5.4.7-.3.4-1.4-.6-2.3-1.3-2.6-1.3-.6zM194.903 504.444c-.7 2-5.4 3.9-6.2 2.5-.4-.6-2.6-1.3-5-1.7l-4.2-.7.6 3.4c.5 2.6.2 3.9-1.3 5.4-2.7 2.9-1.3 6.5 2.5 6.5 3.2 0 5.9 4 4 5.9-1.4 1.4-4.7 1.4-4.7 0 0-1-4.9-.7-6.7.4-1.5.9-3.4-.9-2.8-2.6.4-1 1.3-1.3 2.3-1 .9.4 1.4.3 1.1-.1-1-1.1-6.9-1.6-6.9-.7 0 1.6-3.9 1.9-5.1.5-1-1.3-1.4-1.2-2.9.1-1.4 1.2-2.3 1.3-4.5.5-3.3-1.2-7.8-.5-9.5 1.5-.6.8-2.5 1.7-4.1 2-3 .7-3.2 1.7-.5 2.1 3.5.5 5.4 1.6 6.4 4 1.7 3.5 1.6 3.6-1.5 2.1-1.7-.8-4.7-1.1-7.6-.7l-4.9.5 3.2 4c1.7 2.2 4.2 4.3 5.4 4.8 1.2.4 2.9 2 3.9 3.6 1.8 3 5.6 4.6 8.7 3.6 2.8-.9 7.6 4.8 7.2 8.5-.2 2 .2 3.2 1.7 3.9 2.5 1.4 5.6 5.8 6.5 9.3.5 2.2.2 2.8-1.6 3.4-4.1 1.2-4.8 2.2-3.6 5.6.9 2.5.8 3.2-.6 4-.9.5-1.3 1.4-1 2 .4.7 1.4.2 2.5-1.3 1.7-2.3 1.9-2.3 3.5-.7 1 .9 1.8 2.6 1.9 3.8.1 1.1 1 2.6 2 3.4 1.3.9 1.6 1.9 1.1 3.2-.5 1-.9 5.9-.9 10.9-.1 7.8-.4 9.3-2.3 11.4-1.7 1.8-2.8 2.2-4.8 1.7-1.4-.3-2.6-.2-2.6.3s-.9.7-2 .4c-1.5-.4-2 0-2 1.5s-.5 1.9-1.9 1.5c-1.4-.4-2 .2-2.4 2.7-.4 1.9-1.1 2.9-1.8 2.5-.6-.4-.5.2.2 1.3 1.3 2.1 5 2.7 4.3.7-.4-1 6-3.5 9-3.5.8 0 1.8-.9 2.1-2.1.4-1.1 2.2-2.7 4.1-3.6 1.9-.9 3.4-2 3.4-2.5 0-.4 1.1-.8 2.5-.8 1.6 0 2.5-.6 2.5-1.5s1.1-2 2.5-2.5c1.6-.6 2.3-1.4 1.9-2.5-.4-1 0-1.5 1-1.5.9 0 2.5-.9 3.6-2s2.7-2 3.6-2c1.1 0 1.4-.5.9-1.8-1.7-4-1.5-4.8 2-7.1 2.3-1.6 3.9-3.7 4.7-6.3.6-2.2 1.9-4.3 2.7-4.7 1.6-.6 2.7-3.2 1.3-3-2.3.4-2.8-.4-2.4-3.4.2-1.7.9-3.7 1.3-4.3.5-.6.7-1.9.3-2.8-.4-1-.1-1.6.8-1.6.7 0 2.1-1.3 3-2.8 1.6-2.6 1.6-3.1.1-5.1-2.4-3.5-2.2-18 .2-19.8 1.6-1.1 1.7-1.6.5-3.7-1-1.9-1-3.2-.2-5.3 1.5-3.9 1.7-6.3.9-9.6-.5-1.8-.3-3.4.4-4.3.6-.8.9-2.3.6-3.4-.3-1.1-.1-2.3.4-2.6 2.8-1.7-1.5-5.4-6.5-5.4-1.2 0-3.5-1.4-5.1-3-3.3-3.4-4.3-3.7-5.2-1.4zm-10.3 78.4c0 .5-.5 1-1.1 1-.5 0-.7-.5-.4-1 .3-.6.8-1 1.1-1 .2 0 .4.4.4 1zM207.203 505.644c-.2.4.4.8 1.4.8 1 0 1.6-.4 1.4-.8-.3-.4-.9-.8-1.4-.8-.5 0-1.1.4-1.4.8zM34.603 530.144c0 .9.5 1.9 1 2.2.6.4.8 1.5.5 2.5-.7 2.2 1.9 9 3.5 9 .6 0 1.6-1.1 2.2-2.5.9-1.9.8-3.1-.2-4.9-.7-1.4-1-3.4-.7-4.5.3-1.2 0-2.1-.6-2.1-.7 0-2.2-.3-3.4-.6-1.7-.5-2.3-.2-2.3.9zM219.803 584.044c-.6.6-3.5 1.2-6.4 1.4-2.9.1-5.5.3-5.7.3-.2.1.7 1 2 2 1.8 1.4 2.8 1.7 4.3.9 1-.5 3.4-.8 5.2-.6 1.9.2 3.4.1 3.4-.3s.3-1.4.6-2.2c.6-1.8-2-2.9-3.4-1.5zM224.203 589.144c.3 1 .9 1.5 1.2 1.2.3-.3 0-1.1-.7-1.8-1-.9-1.1-.8-.5.6zM222.603 593.844c0 .5.9 1 2 1s2-.5 2-1c0-.6-.9-1-2-1s-2 .4-2 1zM153.903 636.044c.4 2.4 1.6 4.7 3.4 6.2 2.4 2.1 2.6 2.8 1.6 4.4-.9 1.5-.9 2.5.2 4.5.7 1.4 1.1 2.8.9 3-1 1-2.2 6.7-1.5 6.7.5 0 1.4-1.4 2.1-3 .7-1.7 1.6-3 2.1-3 1 0 .4-5.8-1.2-12-.5-2-2.5-5.1-4.5-7l-3.7-3.5.6 3.7zM151.903 661.744c-.8 1.3-.7 2.3.7 4.2 2.5 3.2 3.2 2.2 1.7-2.3-1.1-3.2-1.4-3.5-2.4-1.9z"/></g></svg>