<svg version="1" xmlns="http://www.w3.org/2000/svg" width="1030.096" height="993.148" viewBox="0 0 772.572 744.861"><g fill="#222"><path d="M313 .876c0 1 .7 2.5 1.5 3.3.8.8 1.2 1.7.9 1.9-.2.3.5 1.3 1.6 2.3 1.9 1.7 1.9 1.7 1.7-1.1-.2-3.4-5.7-9.5-5.7-6.4zM318.7 16.676c.4.8-.2 2.1-1.2 2.8-1.8 1.4-1.8 1.4 0 2.8 1.2.8 1.6 2 1.2 3.5-.6 2.4 4.6 9.1 7.2 9.1 1.4 0 1.4.1.1 1-1.2.8-1.3 1.3-.2 3 1.7 2.7 1.5 3.3-.8 2.7-1.7-.4-1.8-.2-.9 1.4 1.1 2.1 1.1 2.1 3.2 1.3 1.1-.4 1.4-1.6 1-4.5-.4-3-.2-3.9.9-3.9 1.8 0 3-4.6 2.1-7.9-.4-1.5.2-3.3 1.7-5.2 1.2-1.7 1.9-3.3 1.6-3.6-.3-.4-.6-.1-.6.5 0 .7-1 .6-2.8-.3-1.5-.8-4.2-1.5-6-1.7-1.8-.1-3.2-.5-3.2-.9s-.9-.9-1.9-1.2c-1.4-.3-1.8-.1-1.4 1.1zM510 23.476c0 .3.5 1.4 1 2.5.8 1.5.7 1.9-.4 1.9-.8 0-1.8-.5-2.1-1-.9-1.5-3.6-1.2-5.7.7-1.5 1.4-2.4 1.4-5.4.5-2-.6-3.4-.8-3.1-.6.3.3-.2 1.4-1.1 2.4-3.6 4-4.1 4.9-3.5 7 .5 2 .3 2.2-2 1.8-2.9-.6-3.7-.1-5.3 2.7-.6 1.1-2.2 2.1-3.5 2.3-2.7.3-6.7 2-8.9 3.8-.8.7-2.6 1.4-3.9 1.6-2 .2-2.9 1.5-4.7 6.7-2.7 7.4-2.4 7.1-7 8.7-3.1 1.1-4.2 1-7.9-.6-3.6-1.5-4.8-1.7-6.9-.7-1.4.7-2.6 1.7-2.6 2.4 0 .9-1 .8-3.7-.4-2.7-1.1-4.2-1.2-5.4-.5-1.1.7-2 .7-2.8-.1-.8-.8-1.1-.8-1.1.2 0 .9-.8 1.1-2.1.8-1.2-.3-4 .1-6.2 1-3.3 1.4-4.5 1.4-7.4.4-3-1.1-4-1-7.8.8-2.5 1.2-4.9 2.1-5.4 2.1-.4 0-1.6-1.9-2.5-4.3-1.8-4.9-2-6.1-.7-5.2.6.3 1.5-.5 2.2-1.7.9-1.9.9-2.1-.2-1.1-1.9 1.9-3.6 1.6-4.2-.7-.3-1.2-1.4-2-2.5-2-1.2 0-2.4-.5-2.8-1.1-.4-.8-.9-.7-1.5.2-.7 1.1-1.2 1.2-2.9.1-2.4-1.5-4.4-1.6-3.5-.2.4.6.1 1.7-.5 2.5-.8 1-1 2.9-.7 5.3.4 2 .4 4.7.1 5.8-.5 2-.8 2.1-3.2.8-3.7-1.9-4.5-1.8-3.2.6 1.5 2.8-.7 2.6-4.4-.5l-2.9-2.3-3.4 2.5c-2.5 2-3.6 2.3-4.7 1.4-1-.8-2.3-.7-5.2.5-3.7 1.6-3.9 1.5-5.6-.6-1-1.3-2.1-2-2.5-1.6-.4.3.3 1.6 1.4 2.9 3.3 3.6 5.6 8.8 4.4 10-.6.6-.7 1.6-.1 2.7.7 1.3.3 2.3-1.5 4-2 1.9-2.5 3.2-2.3 6.7.2 5.3-.5 6-4.2 4.6-1.8-.7-3-.7-3-.2 0 .5.7 1.2 1.5 1.5.8.4 1.5 1.4 1.5 2.5 0 2.6 3.4 4.3 5 2.4.6-.7 1.8-1.1 2.6-.8.8.3 1.4 0 1.4-.7s.7-.9 1.5-.6c.8.3 2.2.9 3 1.2 1.1.5 1.4.1.9-1.2-.5-1.8-.5-1.8 1 0 .9 1.1 1.6 1.4 1.6.8 0-1 .5-1 2.3 0 1.2.7 2.6 1.1 3.1 1 2.3-.7 6.2 1.2 9.8 4.9 3.7 3.7 4.3 4 8.4 3.5 3.1-.3 4.8 0 5.9 1 2.1 2.2 1.9 3.4-.7 3.4-3.1 0-9.1 4.8-8.3 6.8.7 1.9-5.1 7.2-7.9 7.2-1.3 0-1.6.4-1.1 1.7.5 1 1 3.3 1.3 5.1.4 3.2.3 3.3-1.6 2.3-1.9-1-2.3-.7-3.7 2-1 1.9-1.4 4.1-1 5.9.5 2.1.2 3.1-1.1 3.8-1.3.8-1.4 1.3-.4 3.1 1.1 2.1 1 2.2-.9 1.6-1.1-.3-2.6-.3-3.3.2-.7.4-2.2.9-3.3 1-5 .6-9.1 1.6-10.5 2.8-.8.7-3 1.7-4.9 2.4-2.8.9-3.7.8-5-.3-.9-.8-3.3-1.7-5.3-2.1-3.1-.6-3.8-.4-3.8.8 0 1.3-.6 1.4-3 .7-2.3-.6-3-.5-3 .5 0 .8-.7 1.1-2 .8-1.3-.4-2 0-2 1 0 .8-1.2 1.8-2.6 2.1-1.9.5-2.4 1.1-1.9 2.5.6 2-.3 5.1-1.5 5.1-.5 0-2.1 1.2-3.7 2.7-1.5 1.6-4.3 3.9-6.2 5.3-3.2 2.4-3.3 2.7-2.3 6.2.8 2.9.7 3.8-.4 4.2-.8.3-1.4 1.3-1.4 2.3 0 1.3-.3 1.4-1.2.5-1.7-1.7-2.5-1.5-3.1.8-.3 1.2-1.4 2-2.7 2-1.7 0-2 .3-1.3 1.2 1.7 2.1 2.1 6.7 1.1 10.9-1.1 4.1-1.8 4.5-4.9 2.9-1.3-.8-1.9-.7-1.9 0 0 .6-1.3 1.6-3 2.1-2.1.8-3 1.8-3 3.3 0 2.7-2.7 6.6-4.5 6.6-.8 0-1.9.9-2.5 2-.6 1.1-1.8 2-2.6 2-.9 0-2.9 1.4-4.5 3.1-1.6 1.7-3.3 2.8-3.9 2.4-.5-.3-1-.1-1 .6 0 .9-.3.9-1.4 0-1.1-.9-1.5-.6-1.8 1.9-.4 2.3.1 3.3 1.9 4.5 1.3.9 2.3 1.2 2.3.8 0-.3 1 .3 2.3 1.4 2.2 2 5.9 1.9 5.8-.2-.1-.6.6-1 1.4-.9 6 .3 6.4.5 8.8 4.6 1.4 2.4 3.9 6 5.6 8.2 1.7 2.1 3.1 4.7 3.1 5.8 0 1.1.4 1.7 1 1.3.5-.3 1.6.7 2.4 2.2.8 1.5 2.5 3.7 3.8 4.8 1.2 1.2 3 3.2 4 4.5 1.3 2.1 1.9 2.3 3.5 1.4 1.9-1.2 4.5-1.2 8 0 1.2.4 3.1.9 4.3 1.1 3.6.7 7 3.4 7 5.5 0 1 .5 2.2 1 2.5.6.3 1 .1 1-.5 0-1.6 6.8-.8 7.5.8.7 1.9.2 2.4-1.9 1.6-.9-.3-1.3-1-1-1.5.3-.5 0-.9-.6-.9-1.3 0-.6 6.1 1.1 8.8 1.8 2.8 3.8 3.6 4.5 1.7.7-1.7 4-2 4.9-.5.3.5-.1 1-1.1 1-2.7 0-.9 6 2.8 9.6 3.5 3.2 6 8.6 5.1 11-.3.8-.1 1.4.4 1.4.6 0 1.5 1.2 2.2 2.6.6 1.5 1.7 2.4 2.4 2.1.8-.3 1.9.4 2.6 1.5.7 1.1.8 1.7.2 1.4-.5-.4-1.2-.2-1.6.4-.3.5-1.4 1-2.4 1-.9 0-3 1.3-4.5 2.9-2.3 2.4-2.8 3.6-2.3 6.1.5 2.3.2 3.5-1.3 5-2.3 2.3-2.7 8.5-.7 9.4.9.5.9.7-.1 1.2s-1 .9-.1 2 .9 2.1.1 3.8c-1 2.2-.8 2.5 1.5 3.1 1.5.3 2.9.2 3.3-.4.9-1.5 14.9-1.6 16.3-.2.6.6 2.6 1.1 4.4 1.1 2.7 0 3.7-.6 5.3-3.3 1.1-1.7 2-4 2-5 0-.9.7-1.7 1.5-1.7.7 0 1.8-.7 2.3-1.6.6-1.1 1.1-1.3 1.6-.5.4.6 1.8 1.1 3.2 1.1 1.7 0 2.4-.5 2.4-2 0-2.5.5-2.5 4.3.2 2 1.5 5 2.3 8.9 2.6 5.4.4 5.8.3 5.8-1.7 0-2.4 1.6-2.3 7.2.5 1.5.8 3.6 1.4 4.6 1.4 1.3 0 2.5 1.4 3.8 4.2 1 2.4 2.7 5.3 3.9 6.5 1.1 1.2 2.9 3.3 4 4.7 3.2 4.1 11.5 6.5 11.5 3.3.1-2.3 5 4.4 5 6.8 0 1.8 1.1 2.9 4.5 4.6 2.5 1.2 4.5 2.6 4.5 3.1s.9.4 2-.2c1.1-.6 1.8-1.5 1.5-1.9-.6-1.1 4.3-4.4 5.5-3.6.5.3 1.3-.2 1.8-1.1.8-1.4 1.4-1.5 4.2-.5 2.1.7 3.7.8 4.4.2 1.9-1.6 8.5-.5 10.9 1.7 2 1.8 2.6 1.9 6 .9 2.3-.7 3.7-1.8 3.7-2.8 0-.9.7-2.2 1.5-2.9.9-.7 1.3-2.1 1-3.1-.7-2.1.5-2.5 2.2-.8 1.6 1.6 3.6 0 2.9-2.4-.4-1.6.1-1.3 2.4 1.2 1.7 1.8 3 3.9 3 4.7 0 .8.9 1.4 2.1 1.4 1.9 0 2 .4 1.4 3.6-.7 4 1.4 7.4 4.5 7.4 2.2 0 3.6 1.8 3.8 5 .1 3.1 3.8 5.9 7.9 6 1.7 0 3.3.6 3.6 1.2.3 1 .7 1 2 0 1.2-1 2.1-1.1 3.6-.3 1.1.6 3.1 1.1 4.5 1.1 1.6 0 3.2.9 4.2 2.5 2.4 3.7 3.5 3.1 2.8-1.6-.6-3.6-.4-4.1 1.6-4.6s2.1-1 1.5-4.7c-.4-2.3-.8-5-.8-6.1 0-1.1-.6-4.4-1.3-7.4-1.2-4.7-1.2-5.8.3-9 .8-2 2.7-4.6 4.1-5.8 2.1-1.7 2.3-2.4 1.4-3.6-1-1.1-.9-2 .2-4.2.8-1.5 1.2-3.3 1-4-.6-1.4 4.8-3.1 6.5-2.1.5.3.7-.3.4-1.4-.3-1.1 0-2 .6-2s1.1-.7 1.1-1.5c0-.7.6-1.8 1.3-2.2.6-.4 1.2-2.4 1.2-4.3 0-2.4.5-3.5 1.5-3.6.8-.1 2.1-.2 2.8-.3.6 0 1.2-.8 1.2-1.7 0-2.2 5.9-1.3 9.9 1.5 2.6 1.9 3 1.9 3.5.5.4-1.1 1.4-1.5 3-1.2 1.9.4 3-.2 4.6-2.4 1.6-2.1 2.8-2.8 4.2-2.5 1.1.3 3.1-.1 4.4-1 2.2-1.4 3-1.3 11.6 1.7 5.8 1.9 10.4 4.2 12.3 6 4.4 4.2 8 5.3 12.1 3.8 3.4-1.2 4.6-4 2.3-5.4-.6-.3-1.9-2-3-3.8-1-1.7-1.9-2.8-1.9-2.3 0 3.5-15.4-11.3-17.2-16.6-.6-1.7-2.5-3.5-4.8-4.7-2.9-1.5-3.9-2.7-4.2-4.7-.2-2.2-.8-2.7-2.5-2.5-1.2.2-2.4-.2-2.8-.8-.3-.5-.1-1 .4-1 1.7 0 1.3-2.2-.9-5-2.4-3-2.6-7-.5-7 .9 0 2.7 1.2 4.1 2.7 1.3 1.6 3.4 3.8 4.6 5l2.1 2.3 2.4-2.4c1.9-1.9 2.2-3 1.7-5.2-.6-2.4-.5-2.6 1.2-2 4.3 1.8 5.7 1.9 6.6.2.5-.9 1.3-1.4 1.9-1.1.5.4 1.2-.1 1.5-1 .4-.9 1.3-1.4 2.1-1 1 .3 1.3.1 1-.9-.4-1 .2-1.4 2.3-1.3 2.1.2 3.5 1.2 5.4 4 1.4 2.1 2.6 4.4 2.6 5.2 0 1 1 1.5 2.9 1.5 1.5 0 4.1 1 5.7 2.2 1.5 1.3 3.5 2.3 4.3 2.3.8 0 1.8 1.2 2.2 2.7.6 2.3.4 2.8-1.1 2.8-1 0-2.2.5-2.5 1-.7 1.1 1.3 7.6 3 10 .6.8 1.6 2.7 2.3 4.2 1 2.4.9 2.8-.4 2.8-2.1 0-6 2.7-7.9 5.6-1.4 2.2-1.4 2.6 0 4.7 1.4 2.2 1.4 2.5-.5 4.2-2.6 2.3-2.5 3.8.3 6.8 2.7 2.9 5.4 4 6.3 2.5.5-.8 1-.7 1.8.4 1.8 2.4 4.4 2.8 9.7 1.6 4.5-1.1 5-1.4 4.4-3.5-.5-2.1-.2-2.3 3.1-2.3 2.7 0 3.5-.4 3.1-1.4-.7-1.8 4.1-3.2 5.7-1.6.8.8.6 1.5-.8 2.6-1.9 1.3-1.9 1.4.7 1.4 1.9 0 2.5-.4 2.1-1.5-.4-.8-.2-1.5.4-1.5.6 0 .8-1 .4-2.3-.5-2.1-.4-2.1 1.5-.4 1.1.9 2.2 1.5 2.5 1.2.2-.3.4.5.2 1.8-.1 1.2-.3 2.8-.3 3.4-.1.7-1 1.3-2.1 1.3-2.4 0-2.7 3.2-.5 5 .8.7 1.5 2.2 1.5 3.4 0 1.2.5 2.7 1.2 3.4.9.9.9 1.2-.1 1.2-2.2 0-4.1 2.6-2.8 3.9.6.6 1.2 2.1 1.2 3.4 0 1.5.6 2.2 2 2.2 1.3 0 2.1.8 2.3 2.2.2 1.2 1.5 2.6 3.3 3.3 1.7.8 2.9 2 2.9 3.1s.9 2.8 2.1 4c1.4 1.4 1.9 2.8 1.5 4.4-.5 1.9.2 3 3.7 5.6 2.3 1.8 4.7 3.8 5.3 4.5.5.7 2.6 1.7 4.5 2.2 2.2.6 3.4 1.4 3.3 2.5-.1 1 .6 1.7 1.6 1.7s3.9 2.4 6.5 5.2c2.6 2.9 5.6 5.6 6.7 6 1.1.4 1.6 1.3 1.3 1.8-.4.6.1 2.3 1.1 3.8 1.3 1.9 2 5.4 2.4 11.2l.6 8.5 5.4 5c3 2.7 7.8 7.4 10.6 10.3 4.7 4.9 5.4 5.4 8.3 4.7 2.7-.6 3-.9 2-2.6-.7-1.5-.7-2.4.2-3.5.9-1.1.8-1.4-.9-1.4-1.9 0-3.2-1.8-3.2-4.6 0-.8.9-1.4 2-1.4s2-.4 2-.9 1.3-1.4 2.9-1.9c1.9-.7 3-1.9 3.4-3.8.3-1.6 1.1-4.3 1.8-5.9.7-1.7 1.3-3.3 1.4-3.8.2-.4.4-.9.5-1.2.7-1.3.5-3.1-.3-4.3-.7-.8-.5-1.8.5-3 .9-.9 1.3-2.2 1.1-2.9-.2-.6.3-2.6 1.2-4.4 2.3-4.4.7-7.4-3.9-7.4-1.8 0-4.1.6-5 1.4-.9.7-2.4 1.1-3.4.9-1.5-.4-1.8-.1-1.4 2 .4 2.3.2 2.4-2.6 2-2.4-.3-3.2 0-3.6 1.5-.4 1.8-.7 1.7-4-1-2-1.5-3.6-3.5-3.6-4.2 0-.8-1.1-3.1-2.4-5-2.6-3.9-4.5-14.5-2.7-15.5.6-.4.4-2.2-.6-4.9-.8-2.3-1.5-5.5-1.4-7 .2-3.7-1.4-6.6-5.5-10-1.9-1.6-3.2-3.2-2.9-3.7.2-.4-.5-1.8-1.6-3.1-1.2-1.3-2.7-3.6-3.5-5.1-.9-1.8-2.7-3.1-5.3-3.8-2.1-.5-4.4-1.7-5.1-2.5-.7-.8-1.9-1.5-2.6-1.5-.7 0-2.1-1.4-2.9-3.1-1.2-2.2-2.1-2.8-3.5-2.4-1 .3-2.1.1-2.5-.5-.3-.6-2.2-1.7-4.1-2.5-1.9-.8-3.9-2.4-4.5-3.7-2.5-5.5-4.6-8.8-7.1-11.2-1.6-1.4-2.8-3.2-2.8-4.1 0-1.9-3.9-3.5-8.3-3.5-4 0-7.8-2.5-7-4.6.3-.8-.3-2.4-1.2-3.4-1-1.1-1.4-2-1-2 .5 0-.7-1.7-2.7-3.8-4.9-5.1-6.7-9.1-7.5-16.4-.3-3.5-1.4-7.4-2.4-8.9-1-1.4-1.6-2.9-1.3-3.2.7-.7-3.4-6.7-4.6-6.7-.5 0-1.6 1.7-2.5 3.8-1.5 3.3-2.1 3.8-4.5 3.4-1.5-.2-4.4.4-6.4 1.3-2.9 1.4-4.2 1.5-6.1.7-1.7-.8-3.3-.8-5-.2-1.7.6-2.5.6-2.5-.1 0-1.1-5-7.7-8.6-11.3-1.2-1.1-2.5-3.2-2.9-4.6-1.2-3.6-.6-9.3 1.1-10.6 1.5-1.2.9-4.4-.7-4.4-1.8 0-.8-3.2 1.1-3.7 1.1-.3 2-1.3 2-2.2.1-1.1.9-.7 2.9 1.5s4.2 3.4 7 3.9c2.3.4 4.8 1.3 5.6 2.2 1.3 1.3 1.5 1.3 1.5-.1 0-2.2 3-2 3 .1.1 2.3 2.3 5.3 4 5.3.7 0 1.8.6 2.4 1.4 1.4 1.8 7.6 3.2 7.6 1.7 0-.6.7-1.1 1.5-1.1 1.7 0 5.5-3.5 5.5-5 0-.6.5-1 1-1 .6 0 1-.6 1-1.4 0-1.6 2.1-2.6 5.5-2.6 2.7 0 4.8-3 3.9-5.4-.4-.9-.1-1.6.6-1.6.9 0 .9-.4.2-1.3-1-1.2-2.5-6.7-3.6-13.5-.4-2.4-.2-3.1.7-2.6.6.4-.1-.5-1.6-1.9-1.5-1.5-3.9-2.7-5.3-2.7-1.6 0-2.8-.8-3.6-2.5-.8-1.7-1.9-2.5-3.7-2.5-1.4 0-3.7-.1-5-.1-1.4 0-2.9.7-3.3 1.6-.7 1.2-1.3 1.3-3.1.3-2-1-2.1-1-.9.5 1.1 1.3 1 2-.5 4.4-.9 1.5-2.2 3.1-2.7 3.4-.5.4-.6 1.1-.2 1.7.3.6-.3 1.3-1.4 1.7-1.4.4-2 1.5-2 3.5 0 2.7-.3 2.9-4.7 3.5-2.7.3-5.7.8-6.8 1-1.8.4-2-.1-2-2.8.3-8.4.6-9.7 1.8-9.7 2 0 3.7-9.6 2.1-11.8-1.8-2.3-1.7-3.2.1-3.2.8 0 2.9-1.3 4.7-2.9 2.7-2.4 3.1-3.2 2.1-4.2-.7-.7-1.3-2.4-1.3-3.8 0-2.6-2-6.8-2-4.4 0 1.5-3.8 1.7-5.9.4-.8-.5-1.1-1.6-.7-2.6.3-.9.1-2.5-.4-3.5-.6-1.2-.7-2.1 0-2.5.5-.3.7-1.2.3-2.1-.3-.9 0-1.4.7-1.2.7.2 1.5-.3 1.7-1 .3-.6-.3-1.2-1.2-1.2-.9 0-1.4-.4-1.1-.9.3-.4-.6-1.9-1.9-3.1-1.4-1.3-2.5-2.8-2.5-3.4 0-.6-2.5-4.5-5.6-8.6-4.2-5.6-5.4-8-4.9-9.7.4-1.6 0-2.5-1-2.9-1.2-.5-1.3-.9-.4-2 1.9-2.3-3.5-6.7-7.2-5.9-3.7.8-13.4-3.6-15.1-7-.7-1.3-1.6-2.4-2-2.4-.5-.1-1.4-.1-2-.1-.7 0 .2-.9 2-2s3.9-2 4.7-2c1.9 0 2.8-3.5 1.6-5.9-.6-1.1-1.1-2.7-1.1-3.7 0-.9-1.1-3.2-2.5-5-1.7-2.2-2.1-3.5-1.4-4 .8-.4.7-.9-.2-1.5-.9-.5-.4-.8 1.6-.6 2.7.2 3-.2 3.6-3.3.4-1.9.7-3.2.8-2.8 0 .4 1.2-.3 2.5-1.5 1.4-1.2 3.8-3.3 5.5-4.7 1.6-1.4 3-2.8 3-3.2.1-1.1-5.6-3.8-6.4-3-.3.4-.6.2-.5-.3.7-3.2-.1-6.5-1.6-6.5-1.3 0-1.5.7-1 3.1.5 2.5.3 3-.9 2.5-.8-.3-1.5-.1-1.5.4 0 1.5-2.1 1.2-4.1-.6-1-.9-1.5-2.2-1.2-3 .7-1.8.3-1.8-3.6.2-1.8.9-4.1 1.4-5.3 1.1-1.4-.4-2.7.2-4.2 2-2 2.3-2.4 2.4-4.4 1.2-1.2-.8-2.2-2.1-2.2-3 0-.8-1.1-2.6-2.6-3.9-2.1-2.1-2.7-2.2-3.5-1-.8 1.3-1.1 1.3-2.3-.3-1.1-1.5-1.5-1.5-1.9-.3-.7 1.7-4.7 1.7-6.4 0-1.9-1.8-1.6-2.4 1.2-2.4 2.1 0 2.5-.5 2.5-3.1 0-1.6-.4-2.8-.9-2.4-.5.3-1.2.1-1.6-.5-.3-.5.1-1 1-1 1.4 0 1.6-.7 1-4.3-.4-2.3-1.4-5.1-2.1-6.2-1.7-2.4-1.8-4.9-.2-3.9.8.5.9.2.5-1-.4-1-.7-2-.7-2.2 0-.2-.8-.4-1.9-.4-1.3 0-2.5-1.5-4-4.9-2.7-6.4-2.7-7.3.4-6.5 2 .5 2.5.3 2.4-1.2 0-1.1-.3-1.4-.6-.7-.3.9-1 1-2.2.4-1-.6-2.3-.6-3.2 0-2.1 1.3-3.2 1.1-2.6-.5.4-1 0-1.2-1.5-.8-1.6.4-2 .2-1.5-1 .8-2.2-1.2-3.8-4.9-3.8-1.8 0-3.6-.5-3.9-1-.6-1-7.5-1.4-7.5-.4zm27.8 45.1c-.2 1-1.1 1.9-2.1 2.1-1.6.3-1.7.1-.5-1.7 1.6-2.5 3.1-2.7 2.6-.4zm-3.8 4.3c.8 1.6.8 2-.3 2-.8 0-1.7-.9-2-2-.3-1.1-.1-2 .4-2 .4 0 1.3.9 1.9 2zm-77.1 14.9c.9.6 1 1.1.2 1.5-1.3.8-3.1-.1-3.1-1.5 0-1.1 1.1-1.1 2.9 0zm-43.5 11.8c-1.4 1-1.9 1-2.6 0-1.3-2-.9-2.7 1.2-2.7 1.1 0 2.1-.6 2.1-1.3.1-.6.4-.3.6.7.3 1.2-.2 2.5-1.3 3.3zm-1.4 3.3c1 .1 1.1.3.3.7-2.9 1.1-.6 10.3 2.6 10.3 1 0 2.2.7 2.5 1.6.3.8.2 1.2-.4.9-.5-.3-1.4.4-2 1.5-1.2 2.2-1.8 2.4-3.9 1.1-1.3-.8-1.3-1.2 0-2.7 1.1-1.3 1.1-1.8.2-2.1-.7-.3-1.3-2-1.3-3.9 0-2.2-.6-3.7-1.5-4-2.2-.9-1.9-4.3.3-3.9.9.2 2.4.4 3.2.5zm-4.5 15.1c1.1 1.7-.1 2.1-1.5.4-.8-.9-.8-1.5-.2-1.5.6 0 1.4.5 1.7 1.1zm193.6 92.9c.5 0 .9.8.9 1.8 0 1.4-.8 1.8-3.5 1.8-1.9 0-3-.3-2.4-.7.7-.4.8-1.2.4-1.9-.4-.6.1-1.7 1.1-2.5 1.6-1.2 1.9-1.2 2.2.1.2.8.8 1.4 1.3 1.4zm1.9 8.1c0 .5.9.9 2 .9s2-.5 2-1c0-.6.5-1 1.1-1 .6 0 .1 1.3-1.1 3-1.2 1.6-2.9 3-3.8 3-2.3 0-5.3-3.6-4.6-5.4.6-1.5 4.4-1 4.4.5zm-268.3 68.5c-.3.3-1.2.4-1.9.1-.8-.3-.5-.6.6-.6 1.1-.1 1.7.2 1.3.5zm4.3 3.6c0 .5-1 .8-2.2.8-1.9 0-2-.2-.8-1 1.3-.9 1.3-1 0-1s-1.3-.1 0-1c1.4-.8 2.9.3 3 2.2zm349 62.3c1 1.2 1 1.5-.4 1.5-.9 0-1.6-.7-1.6-1.5s.2-1.5.4-1.5.9.7 1.6 1.5z"/><path d="M393 34.176c-.1.1-.3 2.7-.6 5.7-.6 6.7.1 10 2.1 10 1.4 0 1.4-.4 0-3.1-1.2-2.2-1.3-3.4-.6-4.3.6-.7.8-1.6.5-1.9-.4-.4 0-1.7.9-3.1 1.5-2.2 1.5-2.4-.3-2.9-1.1-.3-2-.4-2-.4zM323.5 50.676c-.7.7-1.2.8-4 1.1-.8 0-1.5.8-1.5 1.6 0 1-.7 1.5-1.7 1.3-1.3-.2-1.9.5-2.1 2.4-.4 3.2-.8 3.4-2.9 1.3-1.9-2-2.3-1.6-3 2.7-.3 1.8-1 3.6-1.6 4-.9.6-.9.8-.1.8.7 0 1.2 1 1.2 2.2.1 1.9.5 6.2 1.1 11.2.1.5.7.3 1.5-.3 1.4-1.2 2.7-.3 3.3 2.4.1.5.5 2 .9 3.2.4 1.6.1 2.5-1 2.9-2 .8-2.1 2.4-.1 2.4.8 0 1.5.4 1.5 1 0 2.1 3 .9 3.6-1.5.6-2.3.8-2.4 2.3-1.1 4.2 3.8 12.1 2.6 12.1-1.8 0-1.6.7-2.7 2-3.1 1-.3 2.6-1.9 3.4-3.5 1.2-2.6 1.2-3.1-.1-4.1-1-.9-1.2-2.3-.8-5.1.5-2.9.4-3.7-.7-3.3-2.2.7-11.4-12.5-10.4-15 .5-1.4-1.8-2.8-2.9-1.7zM394.7 53.276c-.3.8-.2 1.8.4 2.2 1.6.9 2.2-.2 1.1-2.1-.8-1.5-1-1.6-1.5-.1zM584 65.476c0 1.8.5 2.5 1.7 2.2 2.4-.5 2.6-2.1.3-3.6-1.8-1.1-2-1-2 1.4zM577 69.576c0 2.5.1 2.6 2.4 1.7 2.3-.9 2-4-.4-4-1.4 0-2 .7-2 2.3zM626.7 183.976c.7.7 1.5 1 1.8.7.3-.3-.2-.9-1.2-1.2-1.4-.6-1.5-.5-.6.5zM671 233.576c0 1.2-.3 2.9-.6 3.8-.9 2.3-5.6 4.5-7.5 3.5-1.1-.6-2-.3-3 1.2-2.4 3.5-5.3 5.9-6.9 5.6-2.3-.3-8 5.3-8 7.9 0 2.6 1.6 3.9 2.3 1.9.4-.9 1.4-1.2 2.6-.9 1.2.3 4.5.2 7.5-.1l5.5-.7.7-4.6c.6-4 .8-4.3 1.8-2.7 1.2 2.1 8.6 3.3 8.6 1.4 0-.5-.4-1-.9-1-1.6 0-1.8-4.8-.3-6.3 1.9-2 1.8-5.9-.2-8.8-1.6-2.3-1.6-2.3-1.6-.2zm-8.5 11.3c.3.6-.1.7-.9.4-1.8-.7-2.1-1.4-.7-1.4.6 0 1.3.4 1.6 1zM633.6 337.476c-.3.9-.6 1.7-.6 1.8 0 .2 5.2 0 6-.3.6-.2-3.2-3.1-4.1-3.1-.4 0-1 .7-1.3 1.6zM327.5 359.876c-.3.6-.4 2.4 0 4 .5 2.1.2 3.2-.8 3.5-.7.3-1.4 1.9-1.4 3.5 0 2.2.6 2.9 2.4 3.3 1.3.2 2.3 0 2.3-.4 0-.5.4-.9.9-.9 1 0 .2 5-1.1 6.7-.5.7-.7 2-.4 3 .4 1.2-.7 3.2-3.4 6.2-2.2 2.4-4.3 5.5-4.6 6.8-.4 1.5-2.3 3.3-5.3 4.8-3.4 1.8-4 2.4-2.4 2.5 1.2 0 3.1 1 4.3 2.2 1.6 1.8 2 1.9 2 .6 0-2.4 2.8-4.8 5.5-4.8 2.5 0 3.9-2.2 2.3-3.8-.7-.7 0-1.2 2.1-1.7 4.3-.9 7-7.2 6.8-15.8-.1-5.5-.3-6.3-2-6.3-1.1.1-2.6-.9-3.4-2.2-1.5-2.1-1.4-2.2.8-2 2.1.3 2.4-.2 2.7-3.5.3-3 0-3.7-1.4-3.7-1 0-2.5-.7-3.5-1.6-1.1-1-1.9-1.2-2.4-.4z"/><path d="M258 378.876c-1.8 2.3-2.6 2.7-3.6 1.9-1-.9-1.4-.9-1.4 0 0 .6-.7 1.1-1.5 1.1s-1.5.5-1.5 1c0 1.7-5 3.2-6.6 1.9-.7-.6-1.7-.8-2.3-.5-.5.3-1.1.2-1.3-.3-.1-.5-1.8-.6-3.5-.4-2.5.4-3.3 1-3.3 2.5 0 1.1-.8 2.2-2 2.5-1.1.3-1.7 1-1.3 1.6.4.6-.4.8-2.1.5-1.9-.4-2.9 0-3.6 1.1-.6 1.3-1.8 1.6-4.4 1.3-2-.2-3.6-.8-3.6-1.2 0-1.5-7.8-.9-8.4.6-.3.8-1.6 1.4-2.9 1.4-3 0-4 1-2.6 2.6 1.3 1.6-1.9 2.7-5.4 1.8-2.3-.5-2.6-.3-2.9 2.8-.2 2.7-.8 3.4-2.8 3.6-4 .5-7 2.4-7 4.5 0 1-.8 3.2-1.7 4.9-1.8 2.9-1.8 3 1 5.2 2.4 1.9 2.6 2.4 1.4 3.5-1.2.9-1.6.7-2-.9-.3-1.1-1-2-1.7-2s-.9.8-.5 1.9c.4 1.4-.1 2-2.1 2.5s-2.5 1.2-2.1 2.6c.6 2.4-.5 2.7-5.7 1.4-2.5-.6-2.8-.4-2.3 1 .4 1 .1 1.9-.7 2.2-1 .4-.8 1.1 1 2.9 1.3 1.3 2.4 3 2.4 3.7 0 .8.9 2 2 2.8 2.8 2 2.5 3.8-.5 3.6-1.4 0-2.5-.6-2.5-1.2 0-.5-.9-2-2-3.1l-1.9-2.2-4 2.2c-2.2 1.2-3.6 2.4-3.1 2.7 1.7 1.1-.1 7.6-2.3 8.6-2 .8-2.2 1.6-2.2 10.9 0 5.5-.4 10.3-1 10.8-.6.4 0 1.5 1.4 2.6 2.4 1.8 4.9 8.5 5.5 14.6.7 7.1 1.9 13.2 3.3 16.3 1.4 2.9 1.4 3.4.1 5-1.7 1.9-5.5 12.2-6 16.2-.2 1.9-1 2.6-3 2.8-1.6.2-2.8 1-2.8 1.7 0 .8-1.6 2.2-3.6 3.1-4.3 2-5.8 5.4-4.9 11.1.5 3.4.3 4.3-.8 4.3-.8 0-2.2 1.1-3.1 2.5-.9 1.4-2.3 2.5-3.1 2.5-.8 0-1.9.9-2.5 2-.7 1.4-2.1 2-4.3 2-1.8 0-3.8.5-4.4 1.1-.8.8-1.9.5-4.1-1.1-3.2-2.4-6.2-2.1-6.2.4 0 1.6-3.4 3.1-5 2.1-1.2-.8-1.3 1.6-.1 4.7 1.1 2.9-.3 6.8-2.5 6.8-1.3 0-1.4.3-.4 1.5 1.3 1.5.5 3.9-1.1 3-1.2-.8-1.1-.1.3 3 .6 1.4 1.7 2.5 2.4 2.5 2.7 0 4.7 4.7 4 9.4-.6 4-.4 4.7 2.8 8.1 2.6 2.8 4 3.5 5.5 3 2.6-.8 6.3.3 5.5 1.6-.7 1.1-9.9.8-11-.4-1.2-1.2-2.4-.8-2.4.8 0 3.1-6.6 4.5-11.4 2.4-1.9-.9-3.6-.9-7.2.1-4.2 1.2-4.8 1.2-5.9-.3-1.6-2.2-3.2-2.2-3.9.1-.5 1.5-1.7 1.9-5.8 2-3.5.1-5.4.6-6 1.6-.7 1.2-1.4 1.3-3.4.5-2.3-.8-2.5-.7-1.9.8.4 1 .8 2.5 1 3.3.3.8.7 2.4 1 3.5.5 1.6-.3 2.4-4.5 4.3-4.4 2-5.5 2.2-8.5 1.2-1.9-.6-4-.8-4.6-.4-.6.3-2.8.9-4.8 1.1-2 .3-4.1 1-4.6 1.7-.6.7-2 1.6-3.3 2-1.8.6-2.2.4-2.2-1.3 0-1.1-.9-2.2-2.1-2.6-2.2-.7-3.9.2-2.4 1.3.6.4 2.3 2.3 3.9 4.2 1.6 1.9 3.4 3.5 4 3.5 1.3 0 7.7 4.4 8.8 6 .7.9 1.2-2.2.9-5.5-.1-1 .4-.8 1.6.6 2.4 2.9 5.5 4.4 9.1 4.4 2.1 0 3.2.7 4.2 2.6 1.1 2 1.6 2.3 2.5 1.2.5-.7 3.1-2.3 5.7-3.5 4.7-2.2 4.8-2.2 7.9-.4 3 1.8 6.9 1.8 6.9-.1 0-.5.4-.7.9-.4 1.1.7 2.1-2.8 2.1-7.7 0-2 .5-3.7 1-3.7.6 0 1-1.1 1-2.5 0-2 .7-2.6 4.2-3.6 3.8-1 4.4-.9 5.8.8 2.4 3 10.8 6.9 12.1 5.6.8-.8 2-.8 4-.1 2.9 1 4 2.8 1.7 2.8-.6 0-.9.2-.6.5.3.4 2.1-.3 4.1-1.4 1.9-1.1 3.7-1.7 4-1.4.3.2.2-1.2-.3-3.1-.4-2-.5-3.6-.1-3.6s.7-3.4.7-7.6c0-6 .3-7.9 1.7-8.8.9-.7 1.5-1.5 1.2-1.8-.8-.8 5.8-6.2 7.7-6.3 1-.1 2.9-1.1 4.1-2.3 2.5-2.4 4.7-2.8 6.3-1.2 1.3 1.3 4.4.3 4.4-1.4.1-.6 1-2.2 2.1-3.5 1.9-2.3 2-2.3 3.4-.5 2.1 2.8 1.8 4.4-.7 4.4-1.7 0-1.9.3-1 1.2.7.7 1.2 2.3 1.2 3.6 0 1.9.4 2.2 1.9 1.7 4.1-1.3 5.1 6.6 1.5 12.1-.8 1.1-2.5 2.6-3.9 3.2-1.4.6-2.5 1.9-2.5 2.7 0 1.1-.4 1.3-1.2.8-2-1.2-4.2-1.3-4.8-.3-.3.5-1.7 1.1-3 1.3-1.5.2-2.7 1.2-2.9 2.3-.2 1-.9 2.8-1.7 3.8-.9 1.3-1 2.5-.3 3.8.8 1.4.4 2.4-1.6 4.4-2.3 2.3-2.4 2.7-1 4.6 1.1 1.6 1.2 2.5.3 3.5-.8 1-.4 1.3 2 1.3s2.9-.3 2.5-1.9c-.2-1 .1-2.1.9-2.4 1.9-.7 6.9.3 6.3 1.3-.3.5-.1 1.1.4 1.4.5.3 1.1-.3 1.4-1.4 1-4 8.5-2.1 12.6 3.2 1.8 2.3 2.4 2.5 4.5 1.5 2.3-1.1 2.4-1.3.9-4.1-1.1-2.2-1.2-3.1-.4-3.4.9-.3.9-.7 0-1.8-1.8-2.1-.2-3 1.9-1.1 1 1 2.5 1.7 3.4 1.7 2.1 0 9.1 5.7 10.1 8.2.4 1.3 1.3 1.8 2.3 1.4 1.1-.4 1.8.1 2.1 1.4.4 1.4.9 1.7 1.7 1.1.6-.5 2.8-1.2 4.9-1.6 2.9-.6 3.7-1.2 3.7-2.9s.5-1.4 2.2 1.6c1.2 2 3.2 3.9 4.5 4.3 1.3.3 2.8 1.6 3.3 2.9 1.2 3.3 5.6 4 7.5 1.2.8-1.1 1.5-2.6 1.5-3.3 0-.7 1-1.3 2.3-1.3 1.8 0 2.6-1 4.1-5.3 1.1-2.8 1.9-5.9 1.7-6.9-.1-.9.3-1.9.9-2.3.7-.4 1-.1.8.7-.4 1.6 3.5 6.8 5.1 6.8.5 0 1.5.9 2 1.9.8 1.4.7 2.2-.4 3.1-1.1.9-1.5.9-1.5.1 0-2.6-1.9-.7-3.9 3.9-1.2 2.8-2.5 4.8-3 4.6-.4-.3-1.4.3-2.3 1.2-2.9 3.2-5.9 5.3-6.8 4.7-.6-.4-1 .1-1 .9 0 .9-.9 1.6-2 1.6-1.2 0-2-.7-2-1.6 0-1.3-.3-1.4-1.3-.5-.8.6-1.7.8-2 .5-.3-.3-1.1-.3-1.7.1-1.9 1.2 3.9 6.4 8.5 7.7 2.2.6 4.6 1.6 5.4 2.2.7.5 1.9 1.1 2.6 1.2 2.1.3 6.4 3.8 6.5 5.1 0 1.6 1.5 1.6 4.1.2 1.4-.7 1.8-1.6 1.4-2.9-.6-1.8-.3-1.8 2.4-.9 3.6 1.3 6.6-.7 5-3.2-1.5-2.3-1-3 1.1-1.7 1.3.8 1.9 2 1.6 3.1-.2.9 0 1.5.5 1.1.5-.3.8.5.6 1.8-.2 1.8.3 2.3 2.3 2.4 5 .1 6 .4 6 1.8 0 .8-.7 1.7-1.5 2-1.4.5-1.4.8 0 3 1.3 1.9 1.4 2.9.6 4.5-1.5 2.7-1.4 4.1.4 4.1.8 0 1.5.5 1.5 1.2 0 1.6 4.9 11.8 5.8 11.9.4 0 2.2.2 4 .3 3 .3 3.2.1 3-2.2-.2-1.9.2-2.7 1.6-3 1-.2 1.6 0 1.2.6-.4.8 4.1 3.2 6 3.2.1 0 0-1-.4-2.3-.8-3.3-3.9-6.9-7.3-8.6-1.7-.8-4.4-2.8-6-4.4-2.8-2.7-2.8-2.9-.9-3.4 1.6-.4 1.9-1.1 1.4-2.7-.4-1.1-1.1-2.3-1.6-2.5-1.6-.6-4.7-4.4-4.3-5.1.3-.5-.2-1-1-1.4-1.7-.6-2.1-3.6-.5-3.6 1.5 0 1.1-5.2-.5-7.4-2.4-3.2-1.8-4.6 1.9-4.6 1.9 0 4.9 1.1 7 2.5 2.1 1.4 4.1 2.3 4.6 2 1.9-1.2 10.5 4.9 9.4 6.7-.9 1.4 1.7 4 3.3 3.3.8-.2 2.3 0 3.3.5 1.4.8 2.1.6 2.8-.6 1.2-2.2 6.3-.6 7.7 2.4.5 1.2 1.3 2.2 1.6 2.2.4 0 2.3 1.6 4.4 3.4 3 2.8 4.3 3.4 6.6 2.9 1.7-.3 2.9-.1 2.9.5s.9 1.3 1.9 1.7c2.7.8 12.5 10.5 14.4 14.2 1.6 2.9 4.1 4.8 6.2 4.5.6-.1 3 1.7 5.5 3.9 4.4 4.1 4.5 4.2 2.4 5.6-2.1 1.4-2.3 5.3-.3 5.3.5 0 .9.5.9 1.1 0 .7-1 .9-2.6.5-1.8-.5-2.4-.3-1.9.5.4.6.1 1.5-.6 2-1.1.6-1 .9.3 1.4 1.3.5 1.6 1.4 1.1 3.6-.4 2.4-.3 2.8 1 2.3.9-.3 2.5.4 3.7 1.6 2 2 2 2.3.6 3.9-.9 1-1.6 2.1-1.6 2.4 0 1.5 2.4.6 4.2-1.6 1.8-2 1.8-2.2.3-2.5-2.4-.5.1-3.2 3.1-3.2 2.7 0 4.2 1.9 2.4 3-.9.6-.3 1.3 2.1 2.6 1.9 1 3.8 1.7 4.3 1.6.4-.2 1.4.2 2 .7.9.8 2.2.1 4.4-2.2 1.8-1.8 2.9-3.6 2.5-4-.3-.4.4-.7 1.8-.8 8.3-.1 8.8-.2 9.2-2 .4-1.5 1.5-1.9 5-1.9 4.1 0 4.9-.4 10.3-4.9 1.4-1.2 5.3-.3 7.7 1.7 1.5 1.4 1.7 1.3 1.7-.4 0-1 .7-2.8 1.5-3.8.8-1.1 1.5-1.5 1.5-1s1.4 1.5 3.1 2.1c2.7 1 3.4.9 5.2-.8 2.1-2 3.2-2 8.4-.4 1.6.5 3-.2 6.2-3.4 2.3-2.3 4.3-4.1 4.6-4.1 1.1 0 4.5-3.5 4.5-4.7 0-.7.6-1 1.4-.7 1.9.7 2.6-3.9.9-6.2-.8-1.1-1.9-2.8-2.5-3.8-.8-1.6-.7-1.8.6-1.3 1.2.5 1.6.1 1.6-1.5 0-2.6 2.1-9.9 3.2-11.5.5-.6 1.2-3.7 1.5-6.8.6-5.5.6-5.5 2.9-4.1 1.7 1.2 2.4 1.3 3.2.3.9-1.1 1.7-4.6 1.2-5.7-.1-.3-.3-1.7-.4-3.3-.1-2 .3-2.7 1.7-2.7s1.7-.5 1.1-2.3c-.6-2.2-7-8.8-7.7-8-.3.2-1.6-.1-2.9-.8-1.7-.7-2.4-1.7-2.1-2.9.3-1-.3-3-1.3-4.6-1.4-2.1-1.5-2.9-.6-3.2 1-.3 1-.7.1-1.8s-1.4-1.2-2-.3c-.5.9-1.6.7-4.1-.8-2.3-1.4-4.1-1.7-6-1.2-2.6.7-4.5-1.1-3.3-3.1.3-.5-.3-1.1-1.4-1.5-1.1-.3-2.2-1.2-2.5-2-.3-.8-1.6-1.5-3-1.5-1.7 0-3.1-1.1-4.7-3.8-1.2-2-2.2-4-2.1-4.4.3-1.1-6-2.8-7.2-1.9-1.8 1.4-9.1 1.2-11.2-.4-1.6-1.2-1.7-1.7-.7-3.4 1.1-1.7.9-2.1-1-2.7-1.2-.5-2.6-.7-3.1-.5-1.3.3-2.6-2-2.6-4.7 0-3.9-3-8.3-6.5-9.8-3.8-1.6-8.4-8.3-4.9-7 1.1.3.8-.3-.8-1.5-3.1-2.3-3.6-3.9-1.3-3.9.8 0 1.2-.6.9-1.4-.6-1.6 3-4.1 4.5-3.2 1.2.8 2.1-1.8 1.1-3.3-.5-.9-1-1-1.4-.2-1 1.6-2.2 1.4-4.2-.6-1.6-1.7-1.7-1.6-1.2 1 .4 1.9.1 3-.8 3.4-.8.3-1.4 1.2-1.4 2 0 1-.9 1.3-2.7 1.1-1.6-.2-2.7-.8-2.6-1.3.1-.6-.3-1.5-.8-2.2-.7-.7-.6-1.4.1-1.8.6-.4.8-1.5.5-2.5-.7-2.2 1.2-7.3 2.4-6.6.5.3 1.2-.1 1.5-1 .3-.8 1-1.2 1.6-.9.6.3 1.3-.1 1.6-.9.8-2.1 1.6-2 4.4.4 2.8 2.4 3.3 2.4 7.1.5 2.7-1.4 3.3-1.4 6.5.1 1.9.9 3.6 1.5 3.7 1.3.1-.2 1-2.1 2-4.3 1.4-3 1.5-4.1.6-5.3-1-1.1-.8-1.5.9-2 2.3-.6 2.9-2.7 1.2-3.8-.5-.3-1-1.5-1-2.5 0-2-2.6-8-6.5-14.7-1.4-2.5-2-4.5-1.4-4.9.5-.3.7-1.4.4-2.4-.3-1-.1-2.1.4-2.4 1.1-.7.3-7.5-1.2-9.4-1.8-2.3-2.6-9.2-1.1-10 1.7-.9 2.1-7.6.6-9.5-1.4-1.6-.6-2.7 2-2.7 2 0 2.4-1.5.8-2.5-.6-.4-.8-1.5-.5-2.5.8-2.5-1.1-6-3.2-6-.9 0-1.4-.3-1-.6.8-.9-5.4-7.5-6.4-6.8-.5.3-1.4.2-2.1-.2-.8-.5-.6-1 .8-1.5 3.1-1.2 4.2-1 4.9 1 .8 2.7 6.3 3.3 8.7.9 2.2-2.2 2.3-3.4.1-4.6-1.5-.9-1.1-1.5 2.5-4.9 2.3-2.2 4.2-4.7 4.2-5.6 0-1.3.6-1.6 2.4-1.1 1.8.4 2.5.1 2.9-1.5.3-1.2 0-2.4-.5-2.8-.6-.3-.8-.1-.4.5.3.6.2 1.3-.4 1.7-.5.3-1 .1-1-.5s-.4-.9-.9-.6c-2.1 1.4-7.2-.7-8.7-3.6-.8-1.6-1.2-3.2-.9-3.7.4-.8-1.7-2.3-3.7-2.5-.3-.1-1-.4-1.4-.9-.4-.4-2.4-.7-4.5-.7-2.9 0-3.9-.5-4.4-2-.3-1.1-1.5-2-2.5-2-1.1 0-2.4-.8-2.9-1.8-1-1.6-1.2-1.6-2.6.3-3.9 5.1-4.7 5.7-6.8 5-1.2-.3-2.8-.7-3.5-.9-.7-.1-1.8-.8-2.4-1.4-.7-.7-1.9-1.2-2.7-1.2-1 0-.7.8 1.1 2.7 3.2 3.5 4.5 8.3 2.3 8.3-1.2 0-1.5.6-1 2 .5 1.6.3 1.9-1.1 1.3-1.4-.5-1.6-.1-1.2 2.8.3 1.9.8 4.2 1.3 5.1.5 1.3.3 1.8-.9 1.8-1.7 0-2 .9-1.6 4.8.1 2.1-.1 2.2-1.9 1.2-1.5-.7-2.7-.8-3.9-.1-1.4.8-1.4 1-.2 1.1 2.3 0 2.1 8.1-.3 10.4-1.1 1.1-1.7 3-1.5 5.2.1 1.9-.3 3.9-.9 4.5-.9.9-.5 2.5 1.5 6.6 2 4 2.3 5.6 1.5 6.1-.8.5-1 1.7-.4 3.7.6 2.6.2 3.6-2.8 7.3-2 2.3-4.1 4-4.8 3.8-.7-.3-1.3.1-1.3.9s-.9 1.5-2 1.5c-1.4 0-1.8.5-1.3 1.7.4 1.1.3 1.4-.5.9-.7-.4-1-1.7-.6-3.2.5-1.9.2-2.4-1.4-2.4-2.9 0-5.5 2.9-4.9 5.6.4 2.1.1 2.3-2.1 1.7-2.3-.5-2.4-.4-2 2.1.3 1.4.1 2.9-.3 3.2-.5.3-.9 1.4-.9 2.5 0 2.4-2.6 2.2-5.2-.3-2-2-2-3.8 0-5.4 1.3-.9 1.4-2.2 1-8.4-.1-1.4.2-3.7.6-5.2.7-2.4.4-2.9-1.8-3.9-1.4-.7-2.6-2-2.6-3.1 0-1-.4-1.8-1-1.8-.5 0-1-.5-1-1.1 0-.6.9-.9 2-.6 1.1.3 2.7-.1 3.4-.9.8-.8 1.9-1.4 2.4-1.4 1.5 0 2.3-3 .9-3-2.3-.1-4.4-2.5-5-5.8-.5-2.6-.3-3.2 1-3.2s1.4-.3.5-1.2c-1.8-1.8-1.5-2.5 1.3-3.2 2.2-.6 2.4-.9 1.5-2.7-.6-1.1-.8-2.8-.5-3.8.3-1.2 0-2.1-1-2.4-.8-.4-1.2-1.2-.9-2 .3-.8-.4-2.4-1.4-3.8l-2-2.3-3.2 3.1c-2.7 2.6-3.5 3-5.1 2-1-.6-1.6-1.3-1.4-1.7.1-.3-2.2-.5-5.2-.5-4.8 0-5.6.3-6.8 2.5-.8 1.4-1.4 3.6-1.5 4.9 0 1.3-.3 2.2-.6 1.8-.4-.3-1.3 0-2.1.8-1.8 1.9-4.3 1.9-4.3.1 0-.9-.8-1.2-2.4-.9-1.3.3-2.7 0-3.1-.7-.5-.7.2-1 2.2-.8 2.4.3 2.8-.1 3.1-2.5.2-1.5.8-2.7 1.3-2.7s.9-2.3.9-5.1c0-3.1.4-4.8 1-4.4.6.3 1 .1 1-.4 0-.6-.4-1.1-.9-1.1s-1.2-1.5-1.5-3.4c-.4-1.8-1.5-4.1-2.6-5.1-2-1.8-1.7-4.5.6-4.5.8 0 1.4-.4 1.4-1 0-.5 1.1-1.2 2.5-1.6 1.4-.3 3-1.4 3.5-2.4.6-1 2-2 3.1-2.2 2.3-.3 11.3-12.1 10.1-13.3-.3-.3 0-1 .8-1.5 1.6-1 1.5-7.2-.1-10.2-.6-1.2-.6-2.5.2-3.9 1.4-2.8 1.9-7.1.9-8.4-.4-.6-1.1-2.4-1.4-4-.6-2.8-6-7.5-8.6-7.5-.6 0-1-.6-.9-1.3.3-2.7-.2-3.7-1.8-3.7-1.9-.1-7.5-2.9-5.8-3 .5 0-.1-.7-1.3-1.6-1.2-.8-3.1-1.3-4.2-.9-1.3.4-2.3 0-3.2-1.4-.7-1.2-2.3-2.1-3.5-2.1-1.2 0-2.7-.9-3.3-2.1-.8-1.4-1.5-1.7-2.3-1.1-.7.5-3.1 1.3-5.4 1.7-3.9.6-4.3.5-4.3-1.4 0-3.2-1.6-3.3-4-.1zm-95.3 197.5c1.1.8 2.3 2.7 2.5 4.3.4 2.9.3 2.9-3.1 2.1-2-.4-4.6-.6-5.8-.2-1.4.3-2.3.1-2.3-.6 0-.6.9-1.1 2.1-1.1 1.2 0 1.9-.5 1.6-1.3-.5-1.4 1-4.7 2.1-4.7.4 0 1.7.7 2.9 1.5zm112.3 23c1 1.2 1 1.5-.4 1.5-.9 0-1.6-.7-1.6-1.5s.2-1.5.4-1.5.9.7 1.6 1.5zm-221.4 33.3c-.9.8-2.6-1-2.6-2.6.1-1.5.2-1.5 1.5.2.8 1.1 1.3 2.1 1.1 2.4zm300.9 99.2c.3.5-.1 1-1 1s-1.3-.5-1-1c.3-.6.8-1 1-1 .2 0 .7.4 1 1zM322.5 378.276c1.7.8 3.2 1.2 3.4 1 .7-.7-.3-1.2-3.4-1.8l-3-.6 3 1.4z"/><path d="M318.5 411.776c-.8 1.7-1.5 3.8-1.5 4.9 0 1-1.1 2.5-2.5 3.2-1.9 1-2.2 1.7-1.4 3.1.6 1.2.6 1.9 0 1.9-1.3 0-3.4 6.7-2.5 8.2.4.6.9 5.2 1.1 10.2.2 8 .5 9.3 2.5 10.8 1.3 1 2.8 1.8 3.4 1.8 1.9 0 7.7 6.7 6.4 7.5-1.7 1 .8 3.5 3.6 3.5 1.2 0 3 .7 3.8 1.6.9.8 2 1.3 2.4 1 .5-.3 2 .6 3.2 1.9 2.5 2.6 4.6 3.4 3.4 1.2-.6-1-.4-1 .7 0 1.7 1.7 2.4 1.6 4.3-.3 2.3-2.3 1.9-5.3-1-7.6-1.4-1.1-2.3-2.6-2-3.3.2-.7-.4-2.1-1.5-3.1-1.4-1.2-1.6-2.1-.9-3 .7-.7.8-2.4.3-4.1-.4-1.5-.6-3.3-.5-4 .2-.7-1.6-2.9-3.8-5-4.9-4.4-8.4-10.7-8.2-14.6.2-1.6-.7-4.1-1.8-5.7-1.2-1.6-2-3.5-1.9-4.2.4-1.8-1.1-6-2.7-7.5-1.1-1.1-1.6-.9-2.9 1.6zM317.8 461.476c1.3 2.4 4.2 5.1 4.2 3.8 0-.5-1.2-2-2.7-3.4-2.2-2.1-2.5-2.2-1.5-.4zM324.7 501.876c-.6 2.2 1.2 2.7 3.1.8 1.7-1.7 1.5-2.8-.7-2.8-1 0-2.1.9-2.4 2zM148.3 597.676c-.6.4-1.2 1.6-1.5 2.7-.2 1.4-1 1.9-2.4 1.7-1.5-.2-2.3.4-2.7 1.8-.4 1.5 0 2 1.3 2 1.1 0 3.1 1.6 4.6 3.5 2.9 3.8 4.4 3.8 4.4-.1 0-1.4.7-3.2 1.5-4 2.1-2.1 1.9-3.4-.5-3.4-1.2 0-2.4.9-2.8 2.1-.7 1.9-.9 1.9-2.1.5-1.1-1.3-1.1-1.6 0-1.6 2.2 0 4.1-3.6 2.6-4.9-.7-.5-1.8-.7-2.4-.3zM136 605.876c0 .5.7.7 1.5.4.8-.4 1.5-.8 1.5-1 0-.2-.7-.4-1.5-.4s-1.5.4-1.5 1zM153.6 610.776c-.3.4.2 1.7 1 2.7 1.4 1.7 1.5 1.7 1 .1-.3-1.1 0-1.7 1-1.7.8 0 1.2-.5.9-1-.8-1.2-3.2-1.3-3.9-.1zM132.5 625.776c-.5.9 2.4 3.1 3.9 3.1 1.3 0 .5-2.8-1-3.4-2-.8-2.2-.8-2.9.3zM36.3 649.376c-.9 1-.9 1.6-.2 2 1.4.9 2.2 0 1.7-1.8-.2-1.3-.5-1.3-1.5-.2zM455 649.876c0 .5.5 1 1.1 1 .5 0 .7-.5.4-1-.3-.6-.8-1-1.1-1-.2 0-.4.4-.4 1zM30.7 652.576c-.7 3.5-.1 4.3 2.6 4.2 1.6-.1 1.8-.2.5-.6-1.3-.3-1.6-1.1-1.1-3.4.3-1.7.1-2.9-.5-2.9-.5 0-1.2 1.2-1.5 2.7zM454.5 652.976c-.4.6-.5 1.2-.2 1.5.2.3.7-.2 1-1.1.7-1.7.1-2-.8-.4zM211.5 659.876c-.3.5.1 1 .9 1 .9 0 1.6-.5 1.6-1 0-.6-.4-1-.9-1-.6 0-1.3.4-1.6 1zM23.9 662.576c0 1.6-.3 3.7-.6 4.8-.3 1.1-.6 3-.7 4.2-.1 2.4-1.1 3-2 1.4-.3-.5-1.4-.7-2.5-.4-1.1.3-2.7-.4-3.9-1.8l-2.1-2.2-1.3 2.9c-.6 1.6-1.2 3.5-1.2 4.3-.1 1.9-2.6 2.7-2.8.9 0-.7-.2-1.8-.2-2.3-.3-2.5-1.8-3.6-3.1-2.5-.8.7-1.9.9-2.5.5-.5-.3-1 .1-1 .9s1.4 2.3 3 3.3c1.7.9 3 2.3 3 3 0 .7.7 1.3 1.5 1.3s1.5.4 1.5 1c0 1.8 1.8 1.1 2.5-1 .3-1.1 1.1-2 1.7-2 .5 0 .8.7.5 1.5-.4.8-.2 1.7.2 2 .5.2 1.1 1.4 1.4 2.5.4 1.6.1 2-1.2 1.8-1.7-.3-2.1.1-2.1 2.2 0 1.5 2.6 1.2 4-.5.7-.8 2.1-1.5 3.1-1.5 1.3 0 1.9-.7 1.9-2.4 0-1.4.4-2.7.9-3 .5-.3.7-1.5.4-2.5-.3-1.1.4-2.8 1.7-4.1 1.3-1.3 2-3.1 1.9-4.8-.2-1.5 0-3.2.3-3.7.8-1.4-.2-6.5-1.3-6.5-.5 0-.9 1.2-1 2.7zM335.5 725.876c-.9 2.9 1.3 5.4 3.2 3.9.9-.8 1-1.6.4-2.2-.5-.5-.7-1.6-.4-2.3.3-.8-.1-1.4-1-1.4s-1.9.9-2.2 2zM342 743.876c-.9.6-1 1-.3 1 .6 0 1.5-.5 1.8-1 .8-1.2.4-1.2-1.5 0z"/></g></svg>