<?xml version="1.0" standalone="no"?>
<!DOCTYPE svg PUBLIC "-//W3C//DTD SVG 20010904//EN"
 "http://www.w3.org/TR/2001/REC-SVG-20010904/DTD/svg10.dtd">
<svg version="1.0" xmlns="http://www.w3.org/2000/svg"
 width="405.240532pt" height="350.896359pt" viewBox="0 0 405.240532 350.896359"
 preserveAspectRatio="xMidYMid meet">
<metadata>
Created by potrace 1.15, written by Peter Selinger 2001-2017
</metadata>
<g transform="translate(-774.308582,1136.581046) scale(0.100000,-0.100000)"
fill="#222222" stroke="none">
<path d="M11467 11352 c-8 -10 -20 -28 -27 -42 -22 -41 -90 -83 -90 -55 0 8
-4 15 -10 15 -5 0 -10 -9 -10 -20 0 -15 -7 -20 -24 -20 -14 0 -27 -4 -31 -9
-3 -5 -19 -12 -35 -16 -17 -4 -38 -17 -46 -30 -9 -14 -24 -27 -33 -30 -10 -3
-23 -17 -30 -31 -9 -21 -16 -25 -40 -19 -26 5 -30 3 -40 -26 -6 -18 -11 -33
-11 -35 0 -1 21 -15 48 -30 47 -28 82 -36 93 -21 3 4 17 -2 31 -13 15 -11 31
-20 37 -20 6 0 21 -6 32 -12 18 -11 23 -10 40 11 15 18 23 21 31 13 17 -17 48
-15 48 4 0 10 6 14 15 10 10 -3 20 6 31 27 21 41 20 40 36 31 7 -5 19 -9 26
-10 15 -3 52 30 52 46 0 15 16 12 34 -5 18 -19 52 -19 59 -1 7 18 76 4 93 -18
6 -9 21 -16 33 -16 19 0 20 2 10 23 -7 12 -14 50 -15 84 -1 46 -8 69 -23 89
-15 19 -21 22 -21 10 0 -12 -9 -16 -34 -16 -19 0 -37 4 -40 9 -3 4 -19 11 -36
14 -34 7 -40 26 -11 34 11 3 17 11 15 18 -3 7 2 15 10 18 9 4 16 15 16 26 0
21 -26 36 -35 21 -8 -13 -60 -13 -102 -1 -25 7 -35 6 -46 -7z"/>
<path d="M11709 11343 c5 -10 15 -33 21 -50 9 -25 19 -33 36 -33 22 0 23 2 12
20 -7 11 -19 19 -27 17 -9 -1 -18 11 -23 31 -5 17 -13 32 -18 32 -7 0 -7 -6
-1 -17z"/>
<path d="M10747 11269 c-10 -6 -29 -8 -43 -5 -19 5 -24 2 -24 -13 0 -26 -49
-34 -93 -16 -31 13 -35 13 -33 -2 0 -9 -14 -26 -31 -37 -33 -21 -34 -23 -17
-83 5 -18 3 -21 -14 -16 -14 3 -22 -1 -27 -16 -3 -12 -13 -21 -21 -21 -18 0
-18 -15 2 -34 8 -9 14 -24 12 -34 -3 -13 -11 -16 -38 -14 -28 3 -33 1 -22 -9
15 -16 16 -76 1 -81 -9 -3 -9 -10 1 -27 6 -13 10 -34 7 -47 -2 -13 1 -25 7
-27 8 -3 7 -9 -2 -19 -10 -13 -10 -18 -1 -24 8 -4 9 -3 5 4 -5 8 0 12 13 12
16 0 22 8 27 40 7 42 13 46 46 29 23 -12 40 -2 18 11 -13 8 -13 11 1 26 15 15
19 15 41 0 28 -18 72 -11 63 11 -4 11 -1 13 12 8 20 -7 23 -8 41 -6 6 0 12 8
12 16 0 27 19 16 34 -19 18 -43 75 -68 83 -36 5 19 13 20 86 5 29 -6 47 5 47
27 0 10 5 16 10 13 6 -3 10 1 10 9 0 10 9 16 21 16 20 0 21 4 15 50 -4 31 -3
50 3 50 6 0 15 9 21 20 9 17 4 26 -31 59 -23 22 -48 37 -55 34 -8 -3 -22 14
-37 44 -27 52 -61 88 -75 79 -4 -3 -16 4 -25 15 -19 22 -25 23 -50 8z"/>
<path d="M10408 10716 c-15 -11 -16 -16 -4 -31 12 -17 14 -16 18 13 2 18 4 32
4 32 -1 0 -9 -7 -18 -14z"/>
<path d="M10370 10659 c0 -5 5 -7 10 -4 6 3 10 8 10 11 0 2 -4 4 -10 4 -5 0
-10 -5 -10 -11z"/>
<path d="M10321 10603 c-29 -19 -56 -43 -58 -54 -4 -14 -12 -19 -24 -16 -11 3
-19 1 -19 -5 0 -5 -5 -6 -11 -2 -8 5 -10 -5 -5 -32 4 -22 6 -47 6 -56 -2 -81
-6 -115 -12 -111 -11 6 -10 -9 1 -26 21 -33 124 30 114 70 -4 13 0 19 11 19
12 0 16 10 16 38 1 20 7 55 15 76 8 22 11 52 8 68 -3 16 0 34 7 43 23 28 6 24
-49 -12z"/>
<path d="M10208 10231 c3 -32 1 -41 -11 -41 -22 0 -47 -39 -47 -72 0 -15 -4
-30 -10 -33 -5 -3 -10 -11 -10 -16 0 -15 49 24 50 39 0 14 20 17 20 2 0 -5 7
-10 15 -10 18 0 19 12 4 27 -7 7 -7 13 0 17 5 4 8 13 4 21 -3 8 0 15 6 15 17
0 13 45 -7 70 -18 22 -18 22 -14 -19z"/>
<path d="M10002 10030 c-19 -33 -46 -43 -91 -34 -17 4 -43 2 -58 -4 -146 -55
-173 -66 -173 -72 0 -4 -11 -12 -25 -18 -21 -10 -24 -16 -19 -42 7 -35 -17
-80 -43 -80 -36 0 -84 -25 -89 -46 -4 -17 -16 -24 -45 -29 -21 -4 -42 -11 -45
-16 -3 -6 -25 -7 -51 -3 -36 5 -44 4 -38 -6 6 -10 4 -12 -9 -7 -9 4 -15 3 -12
-1 3 -5 -7 -21 -21 -36 -15 -17 -23 -35 -20 -47 4 -14 -1 -21 -19 -25 -13 -3
-31 -3 -40 0 -12 4 -15 2 -10 -9 4 -10 -1 -15 -14 -15 -13 0 -18 -5 -14 -15 9
-21 -23 -65 -46 -65 -11 0 -20 -4 -20 -9 0 -20 -33 -41 -65 -41 -33 0 -34 -2
-29 -29 5 -23 2 -30 -15 -36 -12 -3 -21 -12 -21 -20 0 -7 -5 -15 -10 -17 -17
-5 9 -66 31 -73 21 -7 27 -49 8 -61 -6 -3 -8 -15 -6 -26 4 -14 2 -18 -9 -14
-10 4 -14 -3 -14 -30 0 -27 -4 -34 -17 -32 -12 2 -18 -4 -18 -17 0 -11 5 -20
10 -20 6 0 16 -4 23 -9 17 -10 65 32 54 48 -12 19 -11 36 3 36 7 0 15 17 18
42 3 24 14 48 25 57 11 9 25 26 31 39 7 12 20 22 30 22 23 0 61 61 61 98 0 15
3 37 6 49 l6 23 25 -20 c34 -27 63 -26 63 1 0 20 4 21 41 16 35 -5 42 -3 47
15 3 13 11 18 23 15 11 -3 19 -1 19 4 0 5 7 9 15 9 19 0 35 31 35 70 0 32 0
32 24 17 26 -18 80 -17 112 1 17 9 25 8 40 -3 11 -8 30 -15 45 -15 14 0 30 -5
37 -12 9 -9 12 -9 12 0 0 7 7 12 15 12 32 0 65 23 65 46 0 29 31 85 77 142 20
25 34 51 32 65 -1 12 1 29 4 37 3 8 8 32 12 53 4 27 13 40 30 47 12 5 26 14
30 19 3 6 16 9 28 5 19 -4 26 2 40 31 26 54 23 65 -18 65 -29 0 -39 -6 -53
-30z"/>
<path d="M7875 9070 c3 -5 11 -10 16 -10 6 0 7 5 4 10 -3 6 -11 10 -16 10 -6
0 -7 -4 -4 -10z"/>
<path d="M7837 9017 c-4 -10 -18 -14 -45 -13 -39 2 -40 1 -46 -37 -4 -21 -4
-42 -1 -48 8 -12 35 -12 35 1 0 6 7 10 15 10 8 0 15 -7 15 -15 0 -8 8 -16 18
-16 83 -7 93 -6 89 10 -2 9 -10 15 -17 13 -8 -2 -29 -1 -47 3 -38 7 -44 34
-14 64 10 10 15 24 11 31 -5 9 -9 8 -13 -3z"/>
<path d="M8385 8969 c-4 -5 -15 -7 -26 -4 -13 5 -19 2 -19 -10 0 -12 -4 -14
-19 -5 -27 14 -36 13 -22 -3 8 -11 5 -17 -17 -27 -15 -7 -30 -13 -34 -12 -7 2
-10 -21 -7 -45 2 -14 -33 -25 -44 -14 -6 6 -28 11 -48 11 -21 0 -44 7 -53 15
-8 8 -16 15 -18 15 -3 0 1 -33 8 -72 8 -47 9 -74 3 -77 -6 -1 -3 -12 7 -22 9
-10 14 -19 9 -19 -4 0 -2 -6 4 -13 14 -18 -40 -72 -63 -64 -11 4 -16 1 -16
-11 0 -13 10 -17 43 -18 23 -1 52 -5 64 -9 22 -7 39 -38 34 -63 -1 -10 9 -12
36 -10 31 2 39 7 41 26 3 16 10 22 29 22 21 0 24 -2 13 -15 -7 -8 -9 -15 -4
-16 5 0 23 -3 39 -6 47 -10 114 -7 128 5 10 9 19 7 36 -4 12 -9 28 -13 36 -10
8 3 17 1 20 -4 4 -6 16 -8 29 -4 14 3 27 -1 35 -10 17 -20 45 -20 84 0 18 9
40 21 50 26 25 12 53 -6 65 -42 6 -16 18 -30 26 -30 8 0 21 -9 30 -21 17 -26
47 -19 70 16 15 23 14 26 -30 80 -36 44 -50 54 -66 49 -16 -5 -19 -2 -16 17 2
15 10 23 24 24 39 3 82 63 62 83 -19 19 -28 14 -28 -18 0 -32 -14 -39 -28 -14
-5 8 -20 21 -33 27 -13 7 -33 30 -44 53 -29 59 -96 95 -116 62 -4 -7 -9 -6
-13 1 -4 6 -13 8 -19 4 -7 -4 -22 -6 -33 -5 -14 2 -23 -4 -26 -16 -4 -15 -12
-19 -32 -15 -19 4 -26 1 -26 -10 0 -14 -5 -14 -34 4 -28 16 -35 27 -39 62 -3
27 1 51 11 66 11 18 12 26 4 29 -7 2 -12 9 -12 16 0 17 -47 39 -55 25z"/>
<path d="M7939 8923 c11 -17 22 -22 39 -18 13 3 30 0 38 -6 11 -9 18 -9 26 -1
9 9 8 12 -3 12 -9 0 -24 9 -33 19 -11 12 -30 19 -51 18 -33 -1 -33 -1 -16 -24z"/>
<path d="M8860 8925 c0 -21 17 -27 51 -20 40 9 32 29 -14 32 -26 1 -37 -2 -37
-12z"/>
<path d="M8820 8899 c0 -5 5 -7 10 -4 6 3 10 8 10 11 0 2 -4 4 -10 4 -5 0 -10
-5 -10 -11z"/>
<path d="M8680 8872 c0 -5 6 -15 13 -24 15 -19 71 -7 81 17 4 12 -4 15 -44 15
-28 0 -50 -4 -50 -8z"/>
<path d="M9175 8478 c-9 -35 -3 -55 11 -37 6 8 8 25 4 39 l-7 25 -8 -27z"/>
<path d="M8995 8449 c5 -15 4 -19 -4 -15 -6 4 -11 2 -11 -3 0 -6 -10 -10 -22
-8 -18 2 -24 -4 -26 -26 -2 -16 1 -34 7 -40 6 -8 7 -27 1 -50 -4 -21 -4 -39 1
-43 15 -9 10 -34 -6 -34 -8 0 -15 -7 -15 -15 0 -8 -4 -15 -10 -15 -5 0 -10 -7
-10 -15 0 -7 -7 -18 -16 -23 -12 -7 -14 -15 -8 -33 4 -13 7 -29 6 -36 -4 -17
59 -75 75 -69 17 7 17 -31 -1 -65 -13 -25 -12 -27 33 -54 25 -16 50 -28 55
-27 4 2 14 -2 21 -8 16 -14 65 14 65 36 0 8 5 14 10 14 6 0 10 -10 10 -21 0
-12 8 -28 18 -35 14 -10 20 -10 34 3 11 10 31 14 57 11 21 -2 37 0 35 4 -7 12
9 33 25 33 8 0 16 6 19 14 3 9 0 12 -10 8 -10 -3 -20 3 -28 17 -9 18 -18 22
-38 18 -15 -3 -32 -12 -39 -21 -11 -14 -12 -13 -13 7 0 12 5 22 10 22 6 0 10
6 10 13 0 7 -21 19 -47 26 -29 8 -59 26 -76 45 -16 17 -26 26 -23 20 5 -10
-13 -24 -30 -24 -11 0 -2 31 11 36 8 3 17 14 20 24 4 12 22 20 58 26 46 8 52
12 49 32 -2 15 2 22 12 22 9 0 16 1 16 3 -2 12 -39 107 -49 126 -9 17 -10 26
-2 34 14 14 14 57 0 57 -7 0 -18 -8 -26 -17 -10 -13 -16 -15 -19 -5 -7 14 -34
16 -34 2 0 -17 -46 19 -58 45 -15 32 -46 35 -37 4z"/>
</g>
</svg>
