<?xml version="1.0" standalone="no"?>
<!DOCTYPE svg PUBLIC "-//W3C//DTD SVG 20010904//EN"
 "http://www.w3.org/TR/2001/REC-SVG-20010904/DTD/svg10.dtd">
<svg version="1.0" xmlns="http://www.w3.org/2000/svg"
 width="481.931518pt" height="697.005628pt" viewBox="0 0 481.931518 697.005628"
 preserveAspectRatio="xMidYMid meet">
<metadata>
Created by potrace 1.15, written by Peter Selinger 2001-2017
</metadata>
<g transform="translate(-775.724675,1369.056266) scale(0.100000,-0.100000)"
fill="#222222" stroke="none">
<path d="M11096 13687 c4 -6 16 -25 27 -41 13 -19 16 -30 9 -35 -7 -4 -8 -12
-2 -21 6 -8 10 -24 10 -34 0 -11 7 -28 16 -38 13 -13 14 -21 5 -31 -8 -11 -6
-18 9 -32 12 -10 19 -24 16 -31 -2 -6 0 -16 6 -22 13 -13 -7 -42 -29 -42 -11
0 -13 -7 -8 -30 6 -25 4 -30 -13 -30 -15 0 -22 -10 -28 -37 -10 -50 -12 -89
-6 -139 4 -42 27 -61 90 -79 12 -4 29 -20 37 -36 11 -20 23 -29 39 -29 15 0
26 -7 29 -19 3 -11 20 -29 38 -40 l34 -21 8 33 c5 17 11 45 14 60 3 16 12 31
19 34 8 3 14 16 14 29 0 21 9 28 31 26 4 -1 9 11 12 27 5 22 13 30 36 34 24 5
31 12 31 31 0 13 -7 29 -15 36 -8 7 -15 18 -15 26 0 7 -4 15 -9 18 -14 9 -41
-4 -41 -20 0 -37 -62 0 -86 52 -11 22 -28 40 -46 46 -15 6 -28 17 -28 25 0 23
-51 133 -62 133 -10 0 -65 56 -79 82 -6 12 -5 21 5 30 19 18 3 47 -40 75 -19
13 -32 17 -28 10z"/>
<path d="M11680 13355 c0 -8 -9 -15 -21 -15 -11 0 -17 -4 -14 -10 3 -5 -3 -15
-15 -22 -11 -7 -20 -19 -20 -26 0 -8 -5 -10 -12 -5 -7 4 -22 8 -33 8 -16 0
-20 7 -20 35 0 24 -5 36 -17 38 -23 4 -28 -8 -19 -48 5 -26 12 -34 25 -32 13
3 17 -1 13 -11 -8 -21 28 -51 54 -44 17 5 20 2 16 -14 -3 -12 0 -19 9 -19 8 0
13 3 12 8 -5 19 15 52 33 52 19 0 23 11 19 63 -1 15 4 35 10 43 10 11 9 14 -4
14 -9 0 -16 -7 -16 -15z m-70 -105 c0 -5 -2 -10 -4 -10 -3 0 -8 5 -11 10 -3 6
-1 10 4 10 6 0 11 -4 11 -10z"/>
<path d="M12083 13253 c-23 -3 -30 -8 -26 -19 3 -8 -3 -21 -13 -29 -24 -18
-34 -19 -34 -1 0 20 -30 29 -44 13 -6 -7 -30 -22 -53 -33 -26 -11 -43 -27 -45
-39 -2 -11 -13 -24 -25 -31 l-23 -11 30 -28 c17 -16 30 -34 30 -41 0 -13 22
-24 49 -24 22 0 55 -35 46 -49 -3 -6 -13 -11 -22 -11 -9 0 -13 -6 -9 -15 3 -8
9 -22 12 -30 3 -8 1 -15 -5 -15 -7 0 -9 -9 -6 -23 6 -21 3 -22 -37 -22 -24 0
-48 3 -53 7 -6 4 -15 4 -20 0 -14 -10 -18 -42 -5 -42 19 0 10 -39 -15 -58
l-25 -20 21 -26 c18 -23 21 -37 17 -101 -2 -41 1 -75 6 -75 4 0 3 -6 -3 -14
-14 -16 -4 -46 15 -46 15 0 18 -12 7 -24 -5 -4 -9 -12 -9 -17 -1 -5 -2 -13 -3
-19 0 -5 -7 -10 -15 -10 -7 0 5 -19 28 -43 31 -32 45 -41 59 -34 18 8 23 -8 9
-31 -7 -9 -13 -8 -27 8 -22 25 -40 26 -30 3 4 -10 8 -24 8 -30 0 -7 4 -13 9
-13 5 0 7 -4 4 -9 -11 -18 19 -61 42 -61 13 0 37 -9 53 -21 22 -15 27 -17 23
-5 -7 18 11 22 21 6 5 -8 11 -7 21 1 8 6 14 9 14 6 0 -4 15 9 34 27 26 26 39
33 60 29 30 -6 76 20 76 43 0 8 6 14 13 12 6 -1 22 3 35 10 21 12 21 14 7 29
-11 10 -15 29 -14 54 2 28 -4 49 -23 79 -15 22 -25 47 -22 55 3 8 -3 27 -13
42 -23 34 -27 71 -9 98 7 11 12 42 10 72 -1 35 3 56 12 64 10 8 11 16 4 29 -8
15 -4 23 16 39 15 12 31 21 35 21 5 0 9 16 9 35 0 28 4 35 20 35 22 0 18 17
-12 59 -15 21 -26 24 -85 25 -58 1 -71 4 -90 25 -13 13 -23 28 -23 33 0 6 -14
23 -31 39 -28 26 -29 30 -15 45 9 8 16 19 16 24 0 5 9 12 20 15 11 3 20 12 20
20 0 7 6 16 13 18 13 6 8 6 -40 0z"/>
<path d="M12563 13064 c-3 -8 -12 -13 -20 -10 -9 4 -11 2 -7 -6 5 -8 2 -9 -10
-5 -9 4 -15 3 -12 -2 7 -11 -17 -21 -52 -21 -25 -1 -62 -20 -62 -33 0 -6 58
-27 76 -27 8 0 14 6 14 14 0 11 7 13 30 6 29 -8 42 2 19 15 -7 5 -6 12 4 23
18 22 39 62 32 62 -3 0 -8 -7 -12 -16z"/>
<path d="M10565 12977 c-6 -12 -21 -23 -33 -25 -13 -2 -36 -17 -50 -34 -15
-17 -39 -44 -54 -61 -16 -16 -28 -35 -28 -42 0 -6 -11 -17 -25 -23 -28 -13
-22 -18 -95 76 -23 28 -46 52 -50 52 -18 0 -22 -22 -7 -37 12 -12 13 -21 4
-40 -6 -13 -16 -22 -23 -19 -8 3 -16 1 -19 -4 -4 -6 -17 -10 -31 -10 -15 0
-24 -6 -24 -15 0 -8 -6 -15 -14 -15 -7 0 -20 -9 -28 -21 -12 -19 -18 -20 -50
-11 -37 10 -37 10 -44 -24 -4 -20 -13 -36 -25 -39 -10 -4 -21 -17 -24 -31 -3
-13 -7 -35 -10 -48 -6 -29 20 -43 43 -24 13 11 15 10 9 -5 -4 -10 -7 -26 -7
-35 -1 -15 -3 -14 -15 2 -8 11 -15 16 -15 12 0 -4 -12 2 -27 14 -26 21 -28 21
-32 3 -2 -10 -7 -23 -12 -29 -5 -6 -4 -15 2 -21 8 -8 8 -21 -1 -47 -6 -20 -10
-50 -8 -66 2 -18 -3 -34 -11 -39 -8 -5 -11 -16 -6 -30 3 -11 2 -21 -3 -21 -5
0 -12 -28 -15 -62 -6 -80 -36 -176 -57 -183 -8 -3 -29 -18 -46 -34 -24 -21
-30 -35 -27 -53 3 -18 -3 -34 -21 -53 -15 -16 -29 -40 -32 -54 -2 -14 -9 -39
-14 -54 -5 -16 -6 -35 -4 -42 3 -7 1 -23 -5 -34 -8 -14 -8 -22 0 -27 8 -5 6
-10 -5 -16 -15 -8 -15 -12 4 -38 26 -37 25 -41 -10 -33 -23 4 -30 2 -30 -9 0
-11 -7 -14 -24 -11 -27 5 -96 -14 -96 -26 0 -5 -18 -21 -40 -36 -43 -30 -49
-53 -28 -99 9 -21 8 -29 -5 -44 -22 -24 -21 -34 7 -90 17 -33 22 -53 15 -63
-5 -8 -9 -26 -9 -40 0 -38 -46 -55 -141 -51 l-76 3 -41 -41 c-29 -29 -39 -46
-35 -61 4 -15 0 -22 -16 -26 -11 -3 -21 -9 -21 -13 0 -5 -3 -15 -6 -23 -3 -8
2 -17 13 -21 45 -16 74 -38 69 -52 -3 -8 -2 -13 3 -10 10 6 24 -22 17 -33 -3
-4 -27 -6 -54 -5 l-49 1 -18 -47 c-11 -29 -29 -54 -45 -64 -22 -12 -29 -26
-34 -65 -4 -28 -11 -53 -17 -57 -6 -3 -8 -17 -5 -30 4 -14 2 -24 -4 -24 -6 0
-8 -10 -5 -23 5 -18 0 -26 -19 -36 -27 -15 -46 -57 -46 -102 0 -19 -6 -30 -21
-34 -11 -4 -27 -21 -34 -39 -8 -18 -21 -38 -29 -46 -9 -7 -16 -21 -16 -32 0
-14 -5 -18 -19 -13 -14 4 -20 -1 -24 -25 -4 -18 -13 -30 -22 -30 -9 0 -27 -7
-40 -16 -14 -9 -32 -13 -41 -10 -12 4 -14 1 -9 -14 7 -22 12 -21 -105 -24 -53
-2 -83 -7 -103 -20 -20 -14 -40 -17 -77 -14 -35 4 -50 1 -54 -8 -3 -8 -12 -11
-21 -8 -11 5 -18 0 -22 -15 -5 -21 -67 -56 -83 -46 -4 2 -15 -4 -25 -15 -10
-11 -24 -20 -31 -20 -8 0 -21 -11 -30 -25 -9 -14 -24 -25 -34 -25 -12 0 -20
-9 -22 -22 -2 -17 -11 -24 -30 -26 -17 -2 -28 -9 -28 -18 0 -9 -7 -22 -15 -30
-8 -9 -15 -30 -15 -48 0 -36 -38 -82 -102 -123 -21 -13 -38 -30 -38 -38 0 -9
-9 -15 -21 -15 -19 0 -17 -6 22 -49 24 -27 50 -47 57 -45 9 3 11 -2 7 -15 -8
-27 19 -44 59 -37 40 8 116 -13 116 -31 0 -7 7 -13 15 -13 8 0 19 -10 26 -21
6 -12 14 -17 18 -12 10 17 53 26 106 24 49 -3 50 -3 31 17 -10 12 -23 18 -30
16 -7 -3 -17 1 -23 8 -15 19 -12 48 6 49 10 0 12 2 4 6 -8 3 -11 14 -7 29 4
16 2 24 -5 22 -6 -2 -21 12 -32 30 -21 32 -13 45 11 17 7 -8 9 -15 4 -15 -5 0
8 -9 29 -20 20 -11 46 -20 57 -20 11 0 33 -12 49 -28 26 -25 28 -29 15 -47 -8
-10 -14 -13 -14 -7 0 7 -4 12 -10 12 -16 0 -12 -50 5 -56 8 -4 12 -10 9 -15
-3 -5 6 -14 20 -21 37 -16 31 -52 -15 -103 -29 -32 -15 -59 37 -73 37 -10 44
-16 44 -37 0 -14 7 -28 15 -31 8 -4 15 -11 15 -18 0 -6 20 -30 45 -54 51 -48
55 -63 23 -77 -13 -6 -22 -16 -21 -21 1 -6 -4 -34 -12 -62 -12 -48 -12 -54 6
-76 18 -23 18 -25 3 -34 -33 -19 -76 13 -44 33 6 3 10 29 10 56 0 31 4 48 10
44 6 -4 6 4 -1 22 -13 34 -88 106 -129 123 -17 7 -30 16 -30 21 0 5 -6 9 -13
9 -15 0 -42 -82 -42 -130 0 -32 -2 -35 -27 -32 -16 1 -28 -2 -28 -7 0 -5 -18
-18 -40 -27 -27 -12 -37 -21 -30 -28 14 -14 12 -73 -3 -88 -10 -9 -11 -24 -6
-56 7 -33 5 -49 -7 -67 -10 -15 -12 -25 -5 -30 6 -3 11 -1 11 4 0 6 9 11 21
11 17 0 19 -4 13 -22 -3 -13 -11 -24 -15 -26 -5 -2 -9 -15 -9 -29 0 -20 -4
-24 -20 -20 -17 4 -18 2 -10 -14 6 -10 19 -23 29 -29 20 -10 78 -4 96 11 15
11 39 -6 32 -24 -7 -19 42 -34 54 -16 10 18 39 3 39 -20 0 -25 32 -47 85 -59
22 -5 45 -11 50 -12 22 -5 46 1 40 10 -3 5 8 7 29 5 19 -3 37 -1 40 3 9 16 93
13 106 -3 7 -8 18 -15 26 -15 7 0 19 -8 26 -18 15 -21 45 -42 34 -24 -4 7 -3
12 3 12 5 0 13 -9 16 -21 5 -16 13 -20 33 -16 24 5 25 4 8 -8 -10 -8 -15 -18
-11 -24 3 -7 -3 -11 -15 -11 -12 0 -18 -4 -15 -10 3 -5 2 -10 -3 -10 -5 0 -8
-10 -8 -22 1 -13 -5 -23 -11 -24 -7 -1 -17 -2 -23 -3 -5 0 -10 -16 -10 -34 0
-18 -5 -38 -12 -45 -8 -8 -8 -15 0 -24 14 -17 3 -98 -13 -98 -6 0 -26 -7 -43
-16 -23 -11 -32 -22 -32 -40 0 -15 6 -24 15 -24 22 0 18 -28 -5 -35 -24 -8
-36 -64 -21 -94 7 -11 23 -24 37 -27 20 -5 23 -11 18 -28 -10 -29 -73 -86 -90
-79 -8 3 -14 -1 -14 -9 0 -16 -38 -51 -48 -44 -4 2 -8 -10 -7 -27 0 -43 30
-49 61 -10 18 22 25 26 35 16 7 -7 25 -13 39 -13 33 0 50 -17 50 -50 0 -22 7
-27 58 -42 44 -14 70 -16 114 -10 50 8 59 6 77 -12 17 -17 24 -18 46 -8 14 7
36 12 48 12 13 0 28 5 34 11 14 14 34 3 27 -16 -8 -20 16 -13 54 15 35 26 43
63 16 78 -27 15 -8 33 20 20 31 -14 41 -61 20 -94 -13 -19 -14 -27 -4 -39 15
-19 40 -20 40 -2 0 8 7 28 15 44 17 35 53 46 81 26 10 -7 30 -13 45 -13 14 0
32 -6 38 -13 8 -11 5 -17 -14 -27 -29 -16 -34 -34 -6 -25 19 6 61 -27 61 -48
0 -5 13 -7 29 -4 39 8 74 -20 59 -48 -6 -11 -17 -25 -26 -32 -13 -10 -13 -15
-2 -28 12 -14 11 -18 -1 -26 -13 -8 -6 -13 14 -10 11 2 8 -17 -5 -25 -6 -4
-14 -2 -16 4 -8 24 -18 11 -14 -18 2 -17 16 -39 31 -51 53 -41 102 -69 121
-69 11 0 20 -6 20 -13 0 -16 47 -40 61 -32 5 3 25 1 46 -4 25 -7 41 -7 49 0
22 18 123 -34 137 -70 7 -20 20 -31 40 -35 16 -3 47 -24 69 -46 22 -22 47 -40
55 -40 8 0 27 -14 43 -31 25 -28 32 -31 67 -24 21 3 46 13 55 22 9 8 34 15 55
16 21 0 41 4 44 9 3 5 18 4 33 -2 45 -17 121 -13 137 8 27 33 40 63 32 75 -5
8 -2 8 9 -1 13 -10 25 -10 62 0 50 13 59 25 24 30 -15 2 -23 11 -25 31 -2 16
1 27 8 27 6 0 8 7 5 15 -19 46 -19 50 -5 37 20 -18 31 -15 20 7 -8 14 -7 22 4
31 15 12 14 24 -3 69 -4 11 6 13 55 9 66 -6 83 1 83 39 0 29 13 29 40 1 25
-27 44 -31 95 -17 45 12 75 51 75 98 0 41 20 91 36 91 8 0 14 7 14 15 0 11 13
15 53 15 68 0 90 16 129 95 33 68 78 122 115 136 21 8 23 13 17 50 -5 31 -4
40 5 35 6 -4 14 0 17 8 3 9 14 16 24 16 11 0 22 5 26 11 3 6 14 9 24 6 13 -3
17 0 13 10 -5 12 -1 14 18 8 31 -9 31 -9 51 -1 11 5 23 2 33 -8 9 -9 22 -16
29 -16 26 0 25 14 -1 42 -28 29 -41 92 -22 103 5 4 7 11 3 16 -3 5 0 16 6 24
7 8 10 27 7 41 -4 24 -3 25 29 20 26 -5 35 -3 43 13 6 11 25 23 43 26 41 9 86
46 80 65 -3 8 -1 12 3 8 12 -11 34 23 35 54 0 17 7 29 19 33 25 8 39 85 23
121 -10 20 -8 27 11 45 21 19 21 21 3 31 -14 8 -15 12 -5 18 10 7 10 11 0 24
-11 13 -10 18 3 31 9 9 16 23 16 30 0 8 6 12 13 10 12 -5 57 54 57 75 0 5 7
10 15 10 18 0 18 1 5 34 -7 20 -6 26 4 26 20 0 28 42 11 60 -13 13 -15 12 -15
-3 0 -18 -29 -24 -31 -7 -3 20 -4 25 -12 36 -4 7 0 17 8 24 8 7 15 19 15 27 0
7 7 16 15 19 16 6 21 34 7 34 -5 0 -17 -9 -27 -20 -10 -11 -24 -20 -30 -20 -7
0 -20 -11 -28 -24 -20 -30 -67 -43 -79 -22 -5 9 -18 16 -28 16 -10 0 -24 8
-29 18 -6 9 -11 13 -11 8 0 -5 -10 -1 -22 10 -13 10 -17 12 -10 4 17 -19 15
-33 -3 -26 -8 3 -15 2 -15 -2 0 -5 -26 -8 -57 -7 -42 0 -57 4 -55 13 1 8 -2
11 -7 8 -5 -4 -12 -2 -16 4 -3 6 0 13 9 16 18 7 10 34 -10 34 -8 0 -14 -9 -14
-19 0 -22 -20 -32 -70 -36 -45 -4 -70 3 -70 20 0 7 -10 15 -22 19 -35 9 -38 8
-38 -14 0 -24 -3 -24 -38 -6 -45 22 -92 28 -92 11 0 -8 -5 -15 -11 -15 -5 0
-8 -4 -4 -9 3 -5 0 -21 -7 -35 -8 -20 -21 -28 -50 -32 -21 -4 -38 -10 -38 -15
0 -16 -57 -38 -88 -34 -35 4 -37 3 -21 -26 7 -14 7 -24 0 -33 -6 -7 -8 -27 -5
-45 6 -31 1 -36 -33 -32 -31 4 2 -39 40 -52 21 -8 23 -47 2 -47 -9 0 -12 6 -8
18 4 12 -3 9 -24 -10 -16 -16 -34 -28 -41 -28 -6 0 -14 -16 -18 -35 -5 -31 -8
-33 -27 -24 -16 9 -22 8 -29 -4 -4 -9 -21 -22 -37 -30 l-28 -14 -28 64 c-16
34 -34 63 -40 63 -7 0 -20 9 -29 19 -22 24 -83 18 -106 -10 -17 -22 -81 -21
-117 2 -20 12 -25 11 -50 -13 -23 -22 -31 -25 -48 -16 -43 25 -81 88 -88 148
-2 23 -10 47 -16 53 -14 14 -14 54 0 59 7 2 7 12 0 30 -7 19 -7 28 1 30 15 5
-8 48 -26 48 -7 0 -19 11 -26 25 -7 14 -17 25 -22 25 -5 0 -18 21 -29 46 -16
34 -19 55 -14 87 8 43 51 107 73 107 6 0 12 9 12 20 0 11 4 20 8 20 8 0 11 18
15 95 1 19 5 35 9 35 4 0 15 14 24 32 13 25 14 36 5 50 -9 15 -8 18 10 18 18
0 21 5 17 32 -5 28 2 39 58 96 68 67 76 90 48 130 -15 22 -17 22 -35 6 -15
-14 -22 -15 -32 -5 -6 6 -12 16 -12 21 0 10 -53 60 -65 60 -5 0 -18 12 -29 26
-22 28 -30 104 -10 104 7 0 8 18 4 54 -6 49 -5 55 14 65 12 7 21 22 21 34 0
42 12 66 34 69 13 2 20 10 20 21 -1 9 2 17 8 17 5 0 6 5 3 10 -4 6 -2 17 5 25
6 7 7 16 2 19 -15 9 -1 65 18 71 10 3 20 19 23 35 5 22 17 35 48 50 26 14 45
32 52 51 6 16 16 29 22 29 21 0 58 48 51 66 -5 13 -2 15 18 10 31 -8 50 15 50
60 0 29 4 34 23 34 13 0 23 5 23 11 0 5 10 9 23 7 17 -2 22 2 21 20 0 12 5 22
13 22 9 0 12 7 9 18 -7 21 22 40 67 44 23 2 32 11 45 43 8 22 15 57 15 78 -1
32 2 37 23 39 13 0 29 1 36 2 20 2 59 47 70 80 12 35 62 86 84 86 8 0 14 9 14
21 0 12 15 38 33 58 30 33 35 48 47 129 12 83 16 94 39 105 14 7 25 19 24 25
-2 7 9 12 26 12 31 0 76 43 65 62 -3 5 3 16 15 24 l21 15 -30 53 c-20 34 -30
67 -30 93 0 43 10 53 55 53 12 0 28 7 35 15 7 9 21 13 31 10 11 -3 28 -8 39
-11 18 -5 19 -2 11 18 -5 15 -5 44 0 74 6 32 6 50 -1 52 -5 2 -10 11 -10 21 0
9 -6 23 -12 29 -10 10 -10 14 -1 20 9 6 5 17 -15 42 -20 25 -27 46 -27 75 l0
40 52 3 c52 3 52 3 42 29 -9 23 -8 25 7 12 14 -12 20 -9 45 19 25 28 28 36 18
54 -9 17 -8 23 5 30 9 5 16 13 16 17 0 16 -78 94 -88 87 -17 -10 -43 5 -53 30
-6 18 -16 24 -38 24 -26 0 -31 5 -44 44 -15 43 -15 46 11 85 15 23 32 41 40
41 10 0 10 5 1 21 -9 17 -8 23 2 30 8 5 11 9 7 10 -5 1 -11 2 -15 3 -19 3 -34
19 -49 51 -10 22 -21 32 -30 28 -8 -3 -21 0 -28 6 -10 9 -16 9 -21 1 -4 -6
-15 -8 -25 -5 -10 3 -28 0 -39 -7 -28 -17 -40 0 -14 20 16 13 21 28 21 60 1
37 -3 44 -29 57 -22 12 -29 23 -29 45 0 16 5 32 10 35 6 4 8 11 4 16 -4 6 -14
2 -25 -10 -26 -27 -37 -26 -51 4 l-11 25 -29 -34 c-40 -48 -114 -68 -156 -42
-7 4 -12 2 -12 -3 0 -6 -6 -11 -14 -11 -8 0 -18 -9 -21 -20 -6 -18 -23 -25
-48 -21 -4 1 -3 -7 3 -18 5 -11 10 -28 10 -37 0 -15 -4 -14 -25 6 -14 13 -25
20 -25 16 0 -4 -19 3 -42 17 -24 13 -55 27 -70 31 -17 4 -25 11 -22 20 3 7 -2
16 -11 20 -9 3 -14 10 -11 14 3 5 -6 14 -19 20 -14 7 -34 26 -45 44 -11 18
-20 29 -20 23 0 -5 -6 -3 -13 7 -12 15 -14 14 -22 -5z m-325 -194 c0 -13 -3
-13 -15 -3 -8 7 -15 16 -15 21 0 5 7 6 15 3 8 -4 15 -13 15 -21z m-1846 -3968
c10 -15 12 -25 6 -25 -6 0 -8 -4 -5 -10 3 -5 1 -10 -6 -10 -6 0 -9 8 -6 19 3
12 -1 22 -9 25 -8 3 -14 10 -14 16 0 18 17 11 34 -15z m53 -47 c-3 -8 -6 -5
-6 6 -1 11 2 17 5 13 3 -3 4 -12 1 -19z m998 -1208 c3 -5 -1 -10 -9 -10 -9 0
-16 5 -16 10 0 6 4 10 9 10 6 0 13 -4 16 -10z m4 -54 c7 -8 8 -17 3 -20 -6 -3
-12 3 -15 14 -6 24 -4 25 12 6z"/>
<path d="M11730 12446 c0 -10 28 -13 41 -5 10 6 7 9 -13 9 -16 0 -28 -2 -28
-4z"/>
<path d="M11663 12413 c-16 -6 -17 -33 -2 -33 6 0 9 -7 5 -15 -8 -23 17 -75
32 -66 8 4 25 6 40 3 l27 -5 -23 26 c-16 17 -22 32 -18 45 5 14 1 21 -15 25
-11 3 -18 10 -14 16 6 11 -10 13 -32 4z"/>
<path d="M11790 12380 c0 -13 18 -22 24 -11 3 5 -1 11 -9 15 -8 3 -15 1 -15
-4z"/>
<path d="M11788 12273 c13 -23 2 -65 -15 -59 -8 3 -11 1 -8 -4 10 -16 25 -12
50 16 14 15 25 28 25 30 0 1 -14 9 -30 18 -27 13 -29 13 -22 -1z"/>
<path d="M11664 12256 c-1 -16 6 -27 22 -35 13 -6 24 -15 24 -21 0 -23 27 -7
42 25 l15 35 -36 10 c-54 15 -66 13 -67 -14z"/>
<path d="M11639 12168 c0 -2 -2 -12 -4 -23 -2 -11 -8 -38 -14 -60 -7 -29 -7
-41 2 -47 18 -11 37 -10 37 3 0 7 11 9 30 6 16 -4 32 -2 35 3 3 6 15 10 26 10
17 0 18 3 7 20 -14 23 -34 26 -42 8 -3 -7 -5 -4 -5 7 4 69 1 75 -36 75 -19 0
-35 -1 -36 -2z"/>
<path d="M11846 12055 c-11 -30 -6 -40 11 -22 12 12 14 20 6 28 -7 7 -12 6
-17 -6z"/>
<path d="M8140 9419 c0 -5 5 -7 10 -4 6 3 10 8 10 11 0 2 -4 4 -10 4 -5 0 -10
-5 -10 -11z"/>
<path d="M8088 9354 c-3 -29 1 -42 23 -65 15 -16 30 -37 34 -46 6 -16 8 -14
21 9 13 25 12 32 -13 83 -33 66 -59 74 -65 19z"/>
<path d="M8184 9216 c-8 -22 -2 -27 16 -16 12 7 12 12 3 21 -10 10 -14 9 -19
-5z"/>
<path d="M8267 9206 c-4 -10 -13 -13 -24 -10 -16 5 -15 4 2 -10 18 -15 20 -15
27 5 5 12 7 24 4 26 -2 2 -6 -3 -9 -11z"/>
<path d="M11705 8896 c-23 -25 -26 -40 -4 -19 12 12 21 24 18 27 -2 2 -9 -1
-14 -8z"/>
<path d="M10890 8495 c-7 -8 -21 -15 -31 -15 -17 0 -24 -11 -20 -32 0 -5 -4
-8 -11 -8 -9 0 -9 -3 0 -12 17 -17 61 -18 55 -2 -2 7 4 15 15 18 33 11 47 33
32 51 -7 8 -16 15 -20 15 -4 0 -13 -7 -20 -15z"/>
<path d="M11666 7785 c-19 -14 -19 -15 7 -15 19 0 25 4 21 15 -4 8 -7 15 -8
15 0 0 -10 -7 -20 -15z"/>
<path d="M9336 7235 c-15 -8 -35 -15 -43 -15 -13 0 -13 -2 -2 -17 10 -11 10
-14 2 -9 -8 4 -13 1 -13 -9 0 -9 -9 -19 -20 -22 -11 -3 -17 -9 -14 -14 3 -5
-2 -9 -10 -9 -9 0 -16 -9 -16 -20 0 -11 -4 -20 -10 -20 -5 0 -10 -6 -10 -14 0
-8 -7 -17 -16 -20 -8 -3 -13 -10 -9 -16 3 -5 0 -18 -7 -29 -10 -17 -9 -23 6
-40 10 -11 24 -17 31 -15 15 6 29 -12 16 -20 -5 -4 7 -22 27 -42 34 -33 35
-35 14 -40 -20 -6 -20 -7 -5 -30 8 -13 19 -21 24 -18 5 3 9 -2 9 -12 0 -13 7
-15 33 -11 17 3 42 8 53 12 19 6 21 4 17 -19 -4 -21 -2 -26 16 -26 11 0 21 6
21 13 0 9 11 12 34 9 21 -2 37 1 42 10 13 20 34 81 34 101 0 10 8 17 20 17 11
0 20 7 20 15 0 23 -28 73 -46 83 -13 7 -18 29 -21 88 -5 87 -17 121 -36 106
-20 -16 -72 -2 -82 21 -13 27 -24 30 -59 12z"/>
<path d="M10760 7031 c0 -5 5 -13 10 -16 6 -3 10 -2 10 4 0 5 -4 13 -10 16 -5
3 -10 2 -10 -4z"/>
<path d="M9150 6922 c-8 -9 -14 -20 -12 -25 1 -5 -1 -7 -5 -5 -4 2 -21 10 -37
18 -25 12 -34 12 -75 -3 -40 -15 -47 -15 -57 -2 -20 26 -35 18 -22 -11 11 -23
10 -29 -10 -44 -12 -10 -22 -20 -22 -23 0 -9 56 7 87 24 31 18 72 16 85 -4 4
-7 12 -6 23 3 15 12 19 12 29 0 21 -27 50 -23 63 9 9 24 8 31 -3 35 -8 3 -18
14 -22 25 -6 17 -8 18 -22 3z"/>
<path d="M8900 6796 c0 -12 -6 -15 -24 -10 -18 4 -26 1 -30 -14 -4 -11 -23
-27 -44 -36 -34 -14 -35 -15 -11 -15 15 -1 32 6 39 14 7 8 25 15 40 15 22 0
29 6 34 26 4 15 5 29 1 32 -3 3 -5 -2 -5 -12z"/>
</g>
</svg>
