<?xml version="1.0" standalone="no"?>
<!DOCTYPE svg PUBLIC "-//W3C//DTD SVG 20010904//EN"
 "http://www.w3.org/TR/2001/REC-SVG-20010904/DTD/svg10.dtd">
<svg version="1.0" xmlns="http://www.w3.org/2000/svg"
 width="924.008335pt" height="414.361544pt" viewBox="0 0 924.008335 414.361544"
 preserveAspectRatio="xMidYMid meet">
<metadata>
Created by potrace 1.15, written by Peter Selinger 2001-2017
</metadata>
<g transform="translate(-580.991665,1166.515284) scale(0.100000,-0.100000)"
fill="#222222" stroke="none">
<path d="M11217 11648 c-7 -27 -20 -32 -74 -31 -8 0 -9 -7 -2 -24 7 -20 7 -24
-5 -20 -8 3 -25 -7 -40 -24 -16 -18 -32 -27 -39 -22 -7 4 -5 -4 4 -18 14 -20
14 -26 3 -37 -8 -7 -19 -10 -26 -6 -8 5 -9 2 -5 -10 4 -11 -2 -24 -18 -38 -25
-21 -26 -55 -4 -84 5 -6 5 -15 1 -20 -4 -5 5 2 20 15 15 13 24 29 22 36 -4 9
9 6 36 -7 33 -16 39 -23 27 -30 -18 -9 -12 -44 11 -71 13 -15 14 -22 4 -38 -7
-11 -10 -28 -7 -38 4 -13 -5 -25 -30 -42 -19 -13 -35 -30 -35 -37 0 -8 -9 -16
-20 -19 -11 -3 -20 -14 -20 -24 0 -27 -33 -24 -45 4 -8 19 -18 22 -62 23 -33
0 -53 -4 -53 -11 0 -6 -14 -25 -30 -42 -18 -19 -27 -34 -20 -38 8 -5 5 -80 -4
-92 -1 -1 -21 4 -44 13 -34 11 -47 12 -65 2 -12 -7 -30 -11 -39 -9 -10 1 -18
-3 -18 -8 0 -6 5 -11 11 -11 5 0 8 -4 5 -9 -9 -14 -10 -104 -1 -130 6 -19 4
-23 -9 -18 -8 3 -18 2 -22 -4 -4 -6 -11 -6 -20 2 -11 9 -17 9 -29 -1 -8 -6
-19 -9 -25 -5 -6 4 -17 -1 -24 -11 -12 -16 -16 -12 -40 36 -19 37 -23 56 -16
65 14 17 -22 57 -44 49 -9 -3 -16 -1 -16 5 0 6 -7 8 -15 5 -13 -5 -20 10 -17
38 1 3 -5 12 -13 18 -8 7 -15 28 -15 46 0 21 -5 34 -13 34 -25 0 -51 28 -53
57 -1 24 2 29 20 29 14 -1 20 4 18 16 -4 23 13 31 28 13 8 -10 9 -15 1 -15 -7
0 -8 -7 0 -23 12 -26 66 -60 74 -46 4 5 24 9 46 9 37 0 39 1 25 16 -9 8 -16
22 -16 30 0 20 -55 100 -72 106 -7 2 -48 3 -90 2 -47 -2 -78 1 -78 7 0 6 -5 7
-10 4 -6 -4 -17 -2 -25 5 -7 6 -24 12 -37 14 -24 3 -52 12 -78 25 -8 5 -17 19
-18 31 -2 13 -11 34 -19 47 -13 19 -18 21 -37 12 -11 -7 -31 -20 -42 -31 -17
-15 -33 -18 -75 -16 -33 2 -54 8 -54 15 0 6 -12 21 -27 33 -16 12 -28 17 -28
11 0 -26 -36 -7 -85 44 -43 46 -54 53 -64 41 -10 -12 -18 -9 -48 19 -58 53
-93 51 -93 -6 0 -10 -7 -20 -15 -20 -37 -3 -38 -4 -30 -34 11 -37 12 -55 3
-55 -7 0 -6 -5 1 -14 8 -9 8 -21 0 -45 -6 -17 -14 -31 -17 -31 -12 1 -52 38
-52 47 0 16 -46 33 -57 22 -7 -7 -24 -6 -50 2 -31 10 -39 17 -35 31 5 20 -22
26 -34 7 -4 -7 -22 -9 -46 -6 -34 5 -41 2 -50 -18 -12 -26 -49 -40 -59 -23 -4
6 -19 12 -33 13 -21 0 -26 -4 -26 -25 0 -29 -15 -56 -23 -43 -3 5 -27 8 -53 7
-34 -2 -54 3 -74 18 -16 11 -40 22 -54 23 -14 2 -30 6 -35 10 -6 3 -21 0 -33
-6 -13 -7 -42 -13 -66 -14 -25 -1 -47 -8 -55 -17 -7 -9 -37 -19 -72 -23 -74
-9 -78 -9 -142 3 -51 9 -53 8 -53 -14 0 -14 -14 -34 -37 -53 l-38 -31 0 -85
c0 -72 -3 -85 -18 -89 -10 -2 -16 -10 -15 -18 2 -7 -4 -14 -12 -14 -47 -5 -46
-4 -27 -18 10 -8 15 -20 11 -29 -3 -8 -1 -18 5 -22 7 -3 8 0 5 9 -4 11 0 16
10 16 16 0 23 -29 9 -31 -22 -4 -52 -8 -84 -11 -31 -3 -35 -6 -31 -26 4 -18 0
-22 -19 -20 -20 3 -28 -6 -47 -45 -14 -29 -32 -51 -47 -57 -22 -8 -24 -12 -13
-35 6 -14 15 -25 20 -25 10 0 -9 -38 -29 -58 -7 -7 -13 -20 -13 -28 0 -8 -5
-14 -11 -14 -5 0 -7 5 -4 10 3 6 -1 10 -10 10 -8 0 -20 -11 -24 -24 -5 -13
-19 -26 -30 -29 -14 -3 -23 -16 -27 -36 -4 -17 -11 -31 -16 -31 -6 0 -22 -13
-36 -28 -15 -16 -34 -31 -42 -34 -11 -4 -12 -8 -4 -19 20 -25 26 -69 10 -69
-9 0 -12 -7 -9 -19 3 -11 -2 -21 -12 -25 -11 -4 -20 2 -28 22 -12 28 -18 29
-57 15 -8 -3 -25 -5 -37 -4 -21 2 -29 -11 -24 -41 0 -4 -8 -12 -19 -18 -11 -6
-27 -24 -36 -41 -10 -21 -20 -29 -31 -25 -11 4 -14 2 -9 -9 3 -9 0 -15 -10
-15 -9 0 -25 -11 -36 -26 -16 -20 -26 -24 -49 -19 -25 6 -30 3 -39 -20 -19
-49 -13 -59 53 -90 72 -35 77 -40 77 -81 0 -25 -6 -34 -29 -44 -19 -8 -35 -8
-48 -2 -10 5 -26 8 -36 7 -9 -2 -14 1 -11 6 11 19 -6 59 -25 59 -11 0 -28 11
-38 25 -17 24 -19 24 -47 10 -38 -20 -49 -19 -41 4 9 29 -19 40 -68 27 -41
-11 -87 -44 -87 -64 0 -5 -11 -13 -25 -16 -14 -4 -25 -11 -25 -17 0 -8 -6 -7
-16 2 -9 7 -26 14 -37 16 -12 2 -32 5 -44 8 -14 3 -27 -1 -35 -12 -17 -24 -37
-22 -74 4 -22 16 -35 36 -43 66 -8 34 -20 50 -51 72 -43 30 -48 40 -25 49 8 3
15 15 15 26 0 11 -7 20 -15 20 -8 0 -15 7 -15 15 0 8 -8 15 -17 15 -9 0 -25 7
-34 16 -17 15 -20 15 -43 0 -14 -9 -32 -16 -39 -16 -8 0 -17 -10 -20 -21 -4
-15 -11 -20 -21 -16 -24 9 -19 -1 13 -34 16 -16 28 -37 26 -46 -15 -74 -15
-75 -38 -69 -26 6 -54 -28 -39 -47 10 -14 9 -54 -2 -79 -4 -9 -5 -22 -2 -27
10 -16 -16 -51 -51 -68 -18 -8 -33 -21 -33 -27 0 -6 -7 -22 -16 -35 -13 -17
-19 -20 -25 -10 -4 7 -24 13 -43 12 -20 -1 -39 3 -42 8 -9 16 -25 10 -23 -8 5
-28 -18 -60 -66 -93 -36 -25 -45 -37 -45 -60 0 -36 18 -32 69 14 24 22 32 26
27 13 -3 -11 -9 -31 -12 -45 -9 -38 -24 -53 -48 -50 -28 3 -46 -9 -46 -33 0
-10 -6 -18 -12 -16 -7 1 -14 -10 -16 -25 -2 -15 -10 -28 -20 -30 -13 -3 -8 -9
16 -22 27 -14 31 -20 22 -32 -10 -11 -9 -15 2 -19 21 -8 10 -56 -13 -62 -11
-3 -19 -9 -19 -12 0 -8 -53 -7 -80 0 -15 4 -19 -26 -8 -61 3 -8 3 -12 1 -8 -3
5 -16 5 -29 2 -18 -5 -24 -2 -24 9 0 40 -98 75 -127 46 -16 -16 41 -101 61
-93 19 7 43 -35 27 -46 -18 -10 -1 -40 28 -51 14 -6 27 -10 28 -10 1 0 19 -17
40 -37 23 -22 35 -41 31 -48 -5 -6 -2 -17 7 -24 8 -7 15 -21 15 -31 0 -10 12
-24 28 -31 16 -8 28 -23 30 -37 4 -25 48 -70 71 -71 8 0 11 -6 6 -17 -10 -27
-10 -25 10 -65 10 -20 23 -34 30 -32 16 6 12 -30 -5 -51 -15 -18 -22 -57 -9
-49 5 2 6 -9 4 -25 -4 -34 13 -45 82 -49 12 -1 28 -8 35 -14 7 -7 32 -26 55
-41 25 -17 40 -34 37 -42 -4 -8 7 -20 25 -29 38 -20 52 -20 45 -1 -4 8 -1 15
5 15 6 0 14 -12 17 -27 4 -16 15 -36 25 -46 11 -10 19 -24 19 -31 0 -8 7 -20
17 -27 14 -12 17 -12 21 0 3 9 12 5 29 -15 16 -19 26 -25 29 -17 4 10 13 9 36
-3 31 -16 78 -12 78 7 0 7 10 5 25 -5 31 -21 71 -21 79 0 5 14 9 14 22 3 13
-10 17 -10 25 2 5 8 9 22 9 33 0 15 5 17 28 13 47 -10 58 5 40 51 -15 38 -15
41 3 45 11 3 19 14 19 25 0 12 8 23 18 26 27 9 65 92 52 116 -18 33 -11 40 22
22 35 -18 49 -32 43 -42 -2 -4 12 -7 31 -8 30 -1 34 1 24 13 -14 16 -5 35 16
35 16 0 19 16 4 25 -10 6 -14 45 -4 45 3 0 15 -5 26 -11 18 -10 20 -9 16 8 -3
12 1 24 13 31 20 13 15 52 -7 52 -8 0 -14 7 -14 16 0 8 -4 13 -9 10 -5 -3 -14
1 -20 8 -7 8 -26 13 -44 12 -18 -2 -46 -4 -64 -5 -24 -1 -31 -5 -27 -16 13
-33 -53 -64 -72 -33 -5 8 -11 6 -20 -6 -11 -16 -13 -16 -23 1 -9 15 -12 16
-20 3 -9 -13 -10 -13 -15 0 -10 32 -14 115 -6 135 6 16 3 26 -12 39 -15 13
-18 24 -13 46 4 19 3 30 -4 30 -7 0 -7 8 -1 24 8 21 5 25 -16 30 -13 4 -24 14
-24 22 0 11 6 15 20 11 13 -3 20 0 20 9 0 19 19 18 26 -1 10 -26 142 -74 154
-56 3 4 22 11 42 15 44 8 90 30 81 39 -3 4 0 13 7 22 10 12 10 15 -4 15 -17 0
-21 26 -7 48 6 11 13 7 30 -14 24 -30 27 -50 9 -56 -20 -7 24 -55 57 -64 28
-6 28 -7 7 -11 -37 -7 -61 -37 -49 -59 7 -13 7 -19 -2 -22 -8 -3 -3 -16 14
-38 15 -19 27 -43 28 -54 1 -21 21 -27 32 -10 8 13 37 0 58 -27 14 -17 29 -23
58 -23 34 0 42 -4 64 -40 14 -22 31 -40 38 -40 6 0 23 -9 37 -20 27 -21 76
-28 64 -9 -3 6 5 4 18 -5 23 -15 24 -20 17 -65 -4 -28 -13 -59 -19 -70 -9 -18
-6 -26 17 -51 25 -26 32 -28 65 -21 31 7 40 5 55 -11 36 -40 61 -41 98 -3 29
29 40 33 65 28 19 -3 30 -1 30 6 0 19 28 12 47 -13 15 -20 22 -22 48 -13 16 5
41 20 55 33 17 16 32 21 48 18 13 -4 32 1 47 10 13 9 34 16 46 16 11 0 32 9
46 20 14 11 31 20 39 20 7 0 14 4 16 9 2 5 30 12 62 16 l59 8 -26 -28 c-25
-27 -27 -45 -6 -45 5 0 9 7 9 16 0 10 6 14 15 10 9 -3 15 0 15 8 0 10 22 21
90 41 3 1 13 5 22 9 9 4 25 3 36 -3 24 -13 62 -3 62 15 0 21 34 17 48 -7 8
-12 19 -18 28 -15 8 3 28 -9 48 -28 41 -42 76 -62 76 -44 0 6 18 -6 40 -27 33
-33 40 -36 41 -20 0 18 1 18 11 -2 6 -13 20 -23 30 -23 11 0 28 -5 40 -11 11
-6 22 -8 25 -5 3 3 -7 38 -22 78 -34 91 -35 108 -10 122 45 25 65 44 53 49
-10 3 -10 7 -1 17 9 10 15 6 27 -19 9 -17 21 -31 26 -31 17 0 11 39 -8 49 -27
14 -46 91 -33 137 16 56 14 101 -4 108 -8 3 -15 15 -15 26 0 11 -7 23 -16 27
-11 4 -13 13 -9 33 4 19 -1 39 -14 61 -12 19 -21 44 -21 56 0 21 -30 83 -56
113 -8 9 -20 35 -28 58 -14 40 -14 42 4 42 16 0 20 7 21 33 1 17 2 51 3 73 0
26 -3 40 -10 37 -6 -2 -16 3 -23 11 -10 12 -9 17 8 25 18 10 19 13 4 41 -17
34 -12 60 12 60 19 0 19 14 0 30 -8 7 -12 16 -9 21 3 5 1 9 -5 9 -5 0 -14 -8
-19 -17 -9 -15 -13 -15 -56 1 -51 20 -53 23 -28 43 16 14 16 14 -1 9 -12 -4
-20 2 -27 19 -6 15 -17 25 -29 25 -10 0 -26 11 -35 25 -9 13 -34 30 -56 36
-30 9 -42 19 -47 38 -3 14 -10 32 -16 39 -13 17 7 16 42 -3 16 -8 31 -12 34
-9 3 4 29 0 56 -7 40 -10 54 -10 63 -1 7 7 8 12 2 12 -5 0 -10 9 -11 20 -2 23
15 27 23 6 8 -20 34 -8 34 15 0 11 -6 30 -14 42 -12 19 -14 42 -8 95 1 7 6 10
12 7 15 -9 50 14 50 34 0 21 26 46 58 54 14 3 22 1 22 -8 0 -12 21 -25 41 -25
5 0 9 7 9 15 0 8 10 20 23 26 12 7 28 20 35 31 22 31 25 27 58 -74 5 -14 -2
-16 -50 -13 -38 2 -56 0 -57 -8 -5 -48 -4 -65 6 -59 5 3 20 5 32 4 30 -4 100
33 108 57 5 17 12 19 38 14 47 -9 64 -40 27 -50 -11 -3 -18 -12 -17 -22 5 -27
59 -114 89 -143 16 -16 27 -32 24 -36 -2 -4 5 -14 16 -21 20 -12 21 -11 15 18
-6 31 -6 31 17 16 28 -19 53 -68 37 -73 -6 -2 -8 -8 -5 -14 3 -5 -3 -12 -14
-15 -35 -9 -36 -35 -2 -66 17 -15 33 -41 37 -57 7 -35 16 -42 57 -47 17 -1 51
-4 76 -7 34 -3 44 -8 42 -20 -2 -12 3 -15 20 -12 18 2 22 9 20 27 -4 20 -2 21
12 9 10 -7 15 -19 12 -25 -2 -7 0 -18 4 -26 5 -7 5 -16 1 -19 -4 -3 -4 -19 0
-35 6 -21 21 -37 54 -55 31 -17 45 -31 45 -45 0 -12 19 -40 42 -63 31 -32 49
-42 73 -42 17 0 36 -5 42 -11 8 -8 13 -8 18 0 4 7 26 -6 58 -35 48 -41 58 -46
107 -48 60 -3 83 2 75 14 -3 4 2 13 10 20 8 7 12 16 9 21 -3 5 0 9 5 9 6 0 11
9 11 20 0 19 2 19 50 -6 74 -39 170 -38 170 1 0 20 16 19 38 -3 10 -10 23 -17
28 -15 5 2 14 -7 19 -19 6 -13 15 -23 22 -23 6 0 23 -12 37 -28 29 -32 78 -55
70 -33 -10 25 18 30 37 8 19 -25 35 -28 41 -10 3 8 19 1 44 -19 56 -44 92 -59
106 -45 17 17 100 -56 88 -78 -14 -26 57 -91 101 -92 19 0 46 -9 60 -19 14
-10 29 -16 33 -12 3 3 6 0 6 -8 0 -8 3 -25 7 -38 5 -20 3 -23 -11 -18 -14 6
-16 3 -11 -16 4 -12 14 -27 22 -34 8 -6 12 -17 8 -22 -3 -6 11 -29 31 -51 39
-41 58 -51 48 -26 -8 20 41 29 82 16 18 -6 39 -8 45 -4 6 3 16 0 21 -7 7 -11
11 -11 15 -1 3 9 19 11 55 6 l51 -7 -7 28 c-5 19 -3 31 6 36 9 6 8 12 -5 27
-10 11 -15 26 -11 36 8 22 21 20 34 -4 6 -11 19 -20 29 -20 10 0 24 -6 31 -14
9 -12 7 -17 -9 -28 -30 -18 -26 -32 12 -46 45 -16 87 -15 87 2 0 11 8 12 42 4
27 -6 44 -6 46 0 4 12 42 3 63 -14 13 -11 19 -11 37 2 21 14 23 14 32 -8 6
-13 28 -45 50 -73 22 -27 45 -69 52 -93 7 -28 19 -47 32 -53 11 -5 41 -21 65
-34 24 -14 47 -23 49 -20 8 8 42 -26 42 -41 0 -8 13 -20 30 -29 36 -19 40 -19
40 0 0 8 10 20 23 26 12 7 34 25 48 40 28 32 54 37 62 15 3 -8 28 -23 56 -33
33 -11 52 -24 55 -38 3 -11 1 -21 -4 -23 -20 -7 -9 -17 20 -18 17 -1 38 -9 48
-18 10 -9 24 -16 30 -16 7 0 12 -6 12 -14 0 -21 69 -72 110 -81 64 -15 75 -17
119 -18 30 -1 46 3 51 13 4 8 12 26 19 39 9 17 10 26 2 34 -14 14 -14 30 0 22
6 -4 16 1 24 11 11 16 19 17 52 9 21 -6 46 -9 56 -7 22 4 22 38 0 50 -10 6
-14 16 -10 26 8 19 -18 76 -33 76 -6 0 -10 4 -10 9 0 13 37 2 51 -15 6 -8 22
-14 36 -14 13 0 34 -6 46 -12 12 -7 45 -13 72 -14 52 -1 113 -20 102 -31 -4
-3 1 -12 11 -19 10 -8 12 -13 5 -14 -7 0 -10 -7 -7 -15 4 -8 1 -15 -6 -15 -7
0 -10 -10 -6 -27 4 -20 -1 -36 -17 -55 -20 -24 -26 -26 -60 -19 -23 6 -39 5
-43 -1 -3 -5 -12 -7 -19 -4 -8 3 -19 -2 -25 -10 -18 -20 -27 -18 -40 14 -19
45 -34 72 -41 72 -4 0 -10 -18 -14 -41 -4 -23 -15 -45 -26 -52 -26 -16 -24
-35 5 -48 13 -6 29 -22 35 -36 10 -22 9 -24 -9 -18 -16 5 -20 2 -20 -19 0 -47
-9 -56 -57 -56 -31 0 -42 -3 -37 -12 5 -8 2 -9 -9 -5 -12 5 -17 1 -17 -13 0
-16 -7 -20 -31 -20 -20 0 -29 -4 -26 -12 2 -7 11 -11 18 -9 89 24 178 32 217
19 14 -5 34 -2 57 9 27 13 40 14 59 5 18 -8 28 -7 45 4 15 11 26 12 40 4 11
-5 29 -10 41 -10 11 0 32 -7 46 -16 19 -13 28 -14 37 -5 6 6 17 11 25 11 8 0
20 7 27 17 13 17 15 17 84 -22 24 -13 58 -27 77 -31 23 -4 34 -12 34 -24 0
-19 43 -70 60 -70 5 0 10 -6 10 -13 0 -8 11 -19 25 -25 22 -10 25 -18 25 -61
0 -42 4 -52 22 -62 17 -9 23 -9 26 0 3 9 8 9 19 -1 12 -10 17 -9 28 5 16 22
25 22 25 -1 0 -18 37 -42 64 -42 7 0 23 -11 36 -25 13 -14 32 -25 43 -25 10 0
35 -8 54 -17 35 -16 36 -16 54 5 9 12 27 22 39 22 14 0 20 5 18 18 -2 11 2 16
12 13 46 -11 87 -2 122 27 14 12 21 12 33 2 23 -19 42 -6 38 27 -3 19 1 34 11
42 9 8 16 24 16 37 0 16 7 24 23 26 12 2 21 9 20 16 -2 6 6 21 17 32 17 17 19
28 14 63 -4 23 -15 48 -26 55 -10 7 -18 20 -18 28 0 8 -8 17 -17 21 -34 12
-44 24 -32 40 9 10 8 18 -6 33 -12 14 -16 28 -12 50 4 16 3 30 -2 30 -8 0 -8
36 0 44 4 4 42 12 72 15 11 1 8 23 -6 40 -8 9 -22 38 -32 65 -17 47 -17 50 0
62 16 12 16 15 1 35 -14 21 -14 24 1 41 14 15 14 22 2 50 -7 18 -21 40 -31 50
-10 10 -20 30 -24 45 -4 16 -13 41 -21 57 -13 25 -13 28 -1 23 8 -3 20 4 27
14 6 11 16 17 20 14 5 -3 12 1 14 7 4 10 6 10 6 0 1 -7 6 -10 11 -7 7 4 7 13
0 26 -8 14 -7 19 2 19 7 0 -4 9 -25 20 -42 23 -73 26 -80 8 -3 -10 -7 -10 -20
1 -27 22 -20 32 21 25 31 -5 41 -2 61 20 14 14 30 26 36 26 15 0 35 43 35 76
0 22 2 23 20 14 16 -8 20 -8 20 4 0 9 15 17 40 21 35 6 40 10 41 33 1 15 1 31
0 35 -1 4 8 3 19 -3 11 -6 20 -15 20 -21 0 -6 5 -7 11 -4 6 4 8 14 5 22 -4 9
1 17 13 20 14 3 22 17 26 44 4 22 10 37 15 34 16 -10 20 29 4 52 -11 18 -13
28 -5 36 16 16 14 47 -3 41 -17 -7 -28 9 -20 30 4 12 11 13 32 5 34 -13 72 -3
72 18 0 19 11 11 14 -11 3 -21 36 -56 53 -56 8 0 32 10 54 23 40 22 40 22 34
70 -5 38 -3 47 10 47 8 0 15 5 15 10 0 21 -33 60 -50 60 -10 0 -20 9 -23 21
-3 11 -14 23 -25 26 -11 2 -28 20 -38 39 -11 20 -26 34 -38 34 -22 0 -45 27
-46 52 0 21 -36 44 -42 26 -3 -7 -9 -8 -19 -3 -18 12 -102 13 -110 2 -4 -5
-20 -1 -37 9 -30 17 -31 18 -14 48 8 17 18 49 21 71 5 31 11 41 28 43 12 2 24
9 26 16 4 9 0 12 -12 9 -12 -3 -26 5 -40 24 -11 15 -25 33 -30 39 -6 7 -7 15
-3 20 4 4 1 4 -6 -1 -8 -4 -12 -16 -9 -26 3 -12 0 -19 -10 -19 -18 0 -63 -40
-63 -56 0 -6 -12 -9 -29 -6 -16 2 -32 -1 -35 -7 -9 -14 -69 -14 -82 -1 -7 7
-18 4 -33 -9 -18 -15 -28 -18 -41 -11 -11 6 -20 6 -22 1 -2 -5 -15 -13 -30
-16 -24 -6 -28 -3 -34 21 -16 63 -103 156 -95 102 1 -12 -58 -20 -98 -13 -31
5 -51 1 -95 -20 -53 -25 -56 -25 -81 -9 -14 9 -25 20 -25 24 0 13 52 31 72 24
15 -4 18 -3 13 7 -6 9 -3 11 9 6 14 -6 15 -3 6 13 -9 16 -8 20 7 18 41 -3 63
3 63 17 0 8 7 15 15 15 19 0 19 14 -1 34 -14 15 -14 16 4 16 15 0 19 5 15 20
-7 27 25 76 40 61 6 -6 15 -11 19 -11 15 0 8 30 -12 50 l-21 21 26 30 c14 17
25 39 25 50 0 14 9 21 31 26 17 3 33 12 36 20 5 11 9 11 24 -3 16 -14 24 -15
44 -6 21 10 33 9 63 -4 22 -9 38 -11 40 -5 2 5 10 7 18 4 10 -4 14 2 14 21 0
15 6 26 13 26 8 0 22 9 31 19 10 10 32 22 50 25 19 4 41 18 54 35 15 20 33 31
62 36 40 7 56 25 23 25 -17 1 -17 2 1 15 13 10 16 19 10 32 -4 10 -8 23 -9 28
0 6 -4 15 -8 22 -4 7 0 14 11 18 14 4 18 12 14 30 -2 14 -8 25 -13 25 -5 0 -9
5 -9 10 0 6 6 10 14 10 13 0 26 41 26 82 0 15 -5 18 -20 13 -17 -5 -20 -2 -20
22 0 15 -7 37 -15 47 -13 17 -13 21 2 31 15 11 15 15 3 30 -8 9 -24 21 -36 25
-17 7 -24 20 -29 60 -6 45 -30 88 -42 77 -5 -6 -15 -85 -18 -147 -1 -25 -5
-54 -9 -66 -4 -14 -1 -26 9 -34 22 -18 19 -35 -9 -48 -31 -14 -44 -66 -23 -90
21 -24 10 -71 -25 -104 -20 -18 -28 -36 -28 -60 -1 -59 -47 -94 -73 -54 -12
18 -22 21 -50 18 -22 -2 -44 2 -60 13 -17 11 -27 13 -32 6 -7 -12 -66 -8 -87
5 -7 5 -20 9 -28 11 -8 1 -21 10 -28 20 -10 12 -16 14 -19 6 -2 -7 -11 -9 -19
-6 -8 3 -14 -1 -14 -10 0 -10 -11 -17 -27 -19 -24 -3 -28 -7 -25 -31 2 -18 -2
-29 -12 -33 -9 -3 -16 -11 -16 -18 0 -6 -4 -17 -9 -25 -8 -12 -12 -12 -24 -2
-9 7 -21 11 -29 10 -7 -1 -25 1 -40 5 -20 6 -32 3 -44 -8 -15 -16 -17 -16 -31
4 -8 12 -16 29 -17 38 -2 9 -12 18 -23 20 -13 2 -24 13 -27 27 -4 14 -12 22
-19 19 -22 -8 -85 24 -99 50 -13 25 -74 71 -114 87 -19 7 -28 3 -48 -21 -14
-17 -27 -26 -30 -21 -3 5 -33 9 -66 8 -52 0 -62 -3 -76 -24 -15 -24 -16 -24
-29 -6 -13 17 -14 16 -15 -9 0 -21 -5 -28 -19 -28 -11 0 -22 3 -25 8 -6 10
-65 6 -98 -7 -30 -11 -36 -26 -15 -34 7 -3 5 -6 -5 -6 -21 -1 -22 -5 -6 -31
10 -16 10 -26 -1 -52 -7 -18 -13 -42 -12 -53 4 -62 -1 -139 -9 -156 -12 -21
-40 -25 -58 -7 -9 9 -12 5 -12 -19 0 -31 19 -86 46 -135 13 -24 13 -31 -1 -64
-15 -37 -15 -38 12 -66 15 -15 37 -28 49 -28 28 0 37 -14 38 -54 1 -27 8 -34
59 -59 31 -16 57 -35 57 -43 0 -9 7 -14 18 -13 9 2 30 0 45 -4 18 -5 39 -3 57
7 21 10 30 11 33 2 3 -8 8 -8 18 1 10 11 18 8 41 -14 24 -23 28 -24 34 -10 3
9 10 14 15 11 6 -3 17 0 25 7 12 10 17 8 29 -7 14 -18 14 -18 15 3 0 12 9 27
19 33 27 14 49 -18 43 -60 -3 -25 -8 -29 -23 -25 -33 11 -31 -20 4 -58 18 -20
40 -37 49 -37 9 0 21 -7 28 -15 8 -9 9 -15 2 -15 -6 0 -14 5 -18 11 -4 8 -9 7
-15 -2 -6 -11 -11 -11 -21 -1 -17 17 -35 15 -41 -7 -2 -11 -24 -25 -56 -37
-33 -12 -50 -23 -47 -31 3 -7 -1 -13 -9 -13 -10 0 -15 -10 -15 -29 0 -32 -15
-47 -42 -43 -18 3 -24 -19 -20 -73 2 -28 -50 -57 -82 -46 -30 12 -44 2 -52
-36 -5 -25 -2 -32 12 -37 11 -3 1 -4 -21 -2 -22 1 -49 7 -59 11 -14 6 -17 5
-12 -3 13 -21 -19 -13 -37 9 -26 29 -14 35 40 21 32 -9 49 -10 57 -2 7 7 6 10
-2 10 -7 0 -12 9 -12 21 0 11 -4 18 -9 15 -11 -7 -36 22 -28 31 4 3 1 13 -5
21 -7 8 -13 22 -13 31 0 13 -11 16 -53 16 -36 0 -56 5 -62 15 -8 12 -10 10
-10 -10 1 -49 19 -104 41 -121 31 -23 10 -33 -80 -36 -46 -1 -77 -7 -82 -14
-6 -10 -11 -10 -23 0 -13 11 -19 11 -31 1 -12 -10 -20 -8 -41 9 -27 22 -69 28
-78 12 -3 -5 -17 -11 -31 -13 -20 -4 -25 -1 -25 15 0 11 -14 33 -32 49 -36 32
-43 34 -34 13 7 -18 10 -19 -56 3 -63 21 -117 59 -117 84 -1 18 -41 53 -71 63
-11 3 -17 12 -14 20 3 7 1 16 -5 20 -16 9 -14 25 3 25 8 0 16 -7 20 -15 7 -18
27 -11 44 16 12 18 10 24 -12 44 -32 30 -34 49 -4 42 24 -7 61 9 53 23 -3 5
-1 11 5 15 5 3 8 16 4 28 -3 13 2 36 10 52 9 17 16 23 16 14 0 -9 9 -19 19
-22 17 -4 19 -2 10 22 -17 48 -34 76 -61 104 -16 16 -28 34 -28 40 0 7 -15 19
-33 28 -19 9 -33 25 -35 37 -2 13 -13 24 -26 28 -36 9 -49 43 -43 117 5 72 11
87 33 87 21 0 17 27 -7 51 -20 20 -20 22 -5 31 16 9 15 11 -4 28 -12 11 -19
24 -15 30 8 13 -32 60 -52 60 -16 0 -17 24 -2 52 13 23 15 115 4 141 -4 10 -2
23 5 32 6 8 9 19 5 25 -3 5 1 10 9 10 12 0 16 10 16 34 0 19 5 38 10 41 6 4
34 -5 62 -20 28 -15 54 -23 57 -18 11 17 40 22 53 10 15 -15 80 -43 91 -39 4
1 7 -2 7 -8 0 -16 47 -12 64 6 9 8 16 20 16 25 0 5 8 9 18 10 10 0 12 3 5 6
-7 2 -13 13 -13 24 0 10 -6 19 -14 19 -8 0 -20 15 -27 34 -7 18 -25 41 -41 51
-29 16 -29 16 -23 -7 7 -27 -19 -59 -67 -84 -28 -14 -32 -14 -46 0 -21 20 -10
31 17 16 31 -16 26 5 -6 26 -15 9 -23 19 -16 21 20 7 2 43 -22 43 -17 0 -27
10 -39 40 -9 22 -15 44 -15 48 5 30 -30 52 -85 52 -32 0 -66 24 -66 48 0 6 -9
16 -20 22 -11 6 -20 19 -20 30 0 20 -95 103 -137 120 -13 5 -23 14 -23 19 0
16 -48 18 -64 2 -13 -13 -21 -13 -47 -4 -24 9 -31 9 -35 -1 -11 -29 -104 -11
-132 26 -7 10 -29 20 -50 24 -46 9 -100 48 -104 77 -2 12 -9 21 -16 19 -43 -9
-93 63 -105 150 -4 24 -16 47 -34 64 -15 14 -21 23 -13 19 8 -4 2 5 -15 19
-25 22 -27 26 -12 32 9 3 17 14 16 23 0 10 -2 11 -6 4 -7 -19 -27 -16 -41 7
-7 11 -19 20 -26 20 -8 0 -16 8 -18 18 -3 12 -6 9 -11 -10z m-1728 -379 c-16
-10 -23 -4 -14 10 3 6 11 8 17 5 6 -4 5 -9 -3 -15z m-1224 -289 c3 -5 1 -10
-4 -10 -6 0 -11 5 -11 10 0 6 2 10 4 10 3 0 8 -4 11 -10z m2715 -215 c-6 -8
-21 -17 -31 -20 -15 -5 -17 -10 -9 -20 8 -9 8 -15 0 -20 -6 -3 -8 -11 -5 -16
4 -5 4 -18 0 -28 -4 -13 -12 -17 -27 -13 -14 3 -19 1 -14 -6 4 -7 16 -12 26
-12 19 0 19 -1 3 -20 -23 -26 -59 -26 -66 0 -3 11 -1 23 4 26 15 9 0 44 -29
69 l-26 22 47 7 c26 4 47 11 47 15 0 7 53 27 79 30 11 1 11 -2 1 -14z m98 -83
c2 -14 11 -22 22 -22 20 0 36 -33 24 -51 -4 -8 -3 -9 4 -5 7 4 12 2 12 -3 0
-6 -6 -11 -13 -11 -14 0 -37 -61 -37 -94 0 -10 -4 -14 -10 -11 -5 3 -10 0 -10
-8 0 -14 -44 -29 -55 -19 -9 9 -5 42 5 42 17 0 11 15 -20 47 -27 28 -29 32
-13 44 9 8 23 28 30 44 31 65 38 75 48 72 5 -2 11 -13 13 -25z m-3218 -342
c-7 -4 -10 -15 -7 -24 8 -19 -3 -21 -27 -3 -16 12 -17 16 -5 35 10 16 17 19
32 10 15 -8 17 -12 7 -18z m-34 -148 c-8 -15 -12 -41 -9 -57 4 -20 2 -27 -5
-20 -5 6 -13 29 -17 51 -5 33 -3 43 9 47 9 4 16 17 17 29 l0 23 10 -23 c6 -16
5 -32 -5 -50z m749 -230 c-6 -7 -35 18 -35 31 0 5 9 2 20 -8 11 -10 18 -20 15
-23z m105 -12 c0 -5 -2 -10 -4 -10 -3 0 -8 5 -11 10 -3 6 -1 10 4 10 6 0 11
-4 11 -10z m-573 -157 c-11 -10 -26 8 -20 23 5 15 7 14 15 -1 6 -9 7 -19 5
-22z m382 10 c-3 -21 2 -34 11 -28 14 9 50 -72 50 -112 0 -18 -2 -33 -4 -33
-2 0 -12 -3 -22 -7 -13 -5 -16 -2 -12 13 4 14 -1 19 -19 20 -13 1 -30 7 -38
14 -19 16 -20 60 -1 60 7 0 19 7 26 15 7 8 8 15 2 15 -5 0 -12 11 -14 25 -4
17 -1 25 8 25 8 0 13 -3 13 -7z m-611 -11 c15 -10 5 -42 -12 -42 -7 0 -18 -11
-24 -25 -14 -30 -28 -32 -42 -5 -8 16 -8 20 4 20 8 0 22 7 31 16 14 15 14 17
-2 30 -17 12 -16 13 7 14 14 0 31 -4 38 -8z m259 -61 c1 -14 -3 -17 -18 -14
-24 7 -25 20 -1 26 9 3 17 5 17 6 1 0 1 -7 2 -18z m-304 -50 c9 0 17 -8 17
-17 0 -11 -5 -14 -17 -9 -10 3 -30 9 -45 12 -16 3 -28 9 -28 14 0 4 12 6 28 5
15 -2 35 -4 45 -5z m706 -106 c16 -28 26 -35 40 -30 15 5 22 -2 32 -32 14 -44
24 -53 62 -53 17 0 27 -5 27 -15 0 -8 9 -19 20 -25 16 -9 20 -8 20 5 0 18 7
19 48 4 35 -12 50 -43 31 -65 -10 -12 -10 -17 -1 -23 16 -9 5 -41 -14 -41 -7
0 -11 -6 -8 -14 3 -8 0 -24 -6 -37 -11 -19 -10 -21 4 -16 9 4 16 5 16 3 0 -3
3 -12 7 -22 5 -13 2 -16 -13 -12 -17 4 -19 -2 -22 -65 -3 -81 -15 -111 -43
-104 -23 6 -24 -2 -4 -29 24 -32 19 -88 -12 -124 l-27 -33 -20 24 c-12 13 -35
29 -51 34 -27 9 -59 51 -81 105 -26 66 -13 61 -187 64 -48 1 -79 22 -54 38 6
4 8 10 4 14 -4 4 -12 3 -18 -3 -17 -17 -60 -2 -72 24 -9 19 -8 26 4 34 12 8
10 13 -8 28 -15 12 -23 30 -23 49 0 16 -7 35 -15 42 -9 7 -15 23 -13 34 2 17
10 21 39 20 27 0 36 3 32 13 -4 9 0 11 11 7 25 -9 31 24 12 58 l-18 29 25 -6
c21 -6 27 -1 42 32 10 21 18 43 18 50 0 8 8 8 24 2 34 -13 43 -11 43 6 0 10
10 15 33 15 19 0 27 3 20 8 -7 4 -10 17 -6 30 6 25 14 27 31 10 9 -9 12 -8 12
5 0 27 33 5 59 -38z m3726 -175 c3 -5 -1 -10 -10 -10 -9 0 -13 5 -10 10 3 6 8
10 10 10 2 0 7 -4 10 -10z m-3304 -57 c13 -16 12 -17 -3 -4 -10 7 -18 15 -18
17 0 8 8 3 21 -13z m4252 -153 c-5 -19 -23 -29 -23 -12 0 7 20 32 26 32 1 0 0
-9 -3 -20z m177 -110 c0 -5 -2 -10 -4 -10 -3 0 -8 5 -11 10 -3 6 -1 10 4 10 6
0 11 -4 11 -10z m-252 -51 c15 2 31 -8 50 -30 15 -18 26 -36 25 -40 -1 -4 13
-10 32 -13 49 -10 105 -34 105 -47 0 -6 9 -22 20 -36 23 -30 26 -47 6 -40 -7
3 -21 -4 -30 -15 -10 -11 -23 -17 -31 -15 -16 7 -27 -27 -13 -41 5 -5 3 -14
-6 -21 -8 -7 -12 -20 -9 -29 5 -12 0 -10 -17 5 -12 12 -27 20 -31 17 -5 -3
-16 10 -25 29 -16 33 -17 33 -61 27 -37 -6 -47 -4 -56 11 -7 11 -22 19 -34 19
-24 0 -31 14 -13 25 6 4 8 10 5 15 -3 5 4 10 16 12 14 2 27 16 37 42 15 37 14
40 -6 57 -12 9 -22 24 -22 32 0 27 12 47 24 40 6 -4 21 -6 34 -4z m489 -41
c-3 -7 -5 -2 -5 12 0 14 2 19 5 13 2 -7 2 -19 0 -25z m-6772 12 c3 -5 1 -10
-4 -10 -6 0 -11 5 -11 10 0 6 2 10 4 10 3 0 8 -4 11 -10z m516 -38 c-6 -2 -11
-12 -11 -23 0 -17 -3 -18 -22 -8 l-22 12 23 9 c16 5 21 13 17 24 -6 15 -4 15
10 3 10 -8 12 -15 5 -17z m6009 -52 c9 -16 8 -20 -5 -20 -8 0 -15 9 -15 20 0
11 2 20 5 20 2 0 9 -9 15 -20z m-4455 -251 c12 -19 -5 -23 -22 -6 -16 16 -16
17 -1 17 9 0 20 -5 23 -11z m118 -34 c15 -19 24 -35 18 -35 -13 0 -71 50 -71
61 0 20 27 7 53 -26z m-493 -21 c0 -24 -5 -34 -15 -34 -16 0 -19 20 -9 57 9
33 24 18 24 -23z m4805 -204 c3 -5 1 -10 -4 -10 -6 0 -11 5 -11 10 0 6 2 10 4
10 3 0 8 -4 11 -10z"/>
<path d="M13324 8859 c-4 -7 -3 -9 4 -5 5 3 12 0 15 -6 2 -7 7 -10 11 -7 4 3
0 12 -8 18 -11 9 -16 9 -22 0z"/>
<path d="M7889 11636 c10 -11 8 -17 -6 -25 -14 -8 -14 -10 -3 -10 8 0 24 6 35
15 17 13 18 16 5 24 -8 5 -21 10 -29 10 -10 0 -11 -3 -2 -14z"/>
<path d="M7900 11575 c0 -8 -4 -15 -10 -15 -5 0 -10 -4 -10 -10 0 -5 9 -10 21
-10 11 0 29 -4 39 -10 25 -14 36 17 14 41 -20 23 -54 25 -54 4z"/>
<path d="M7641 11534 c0 -11 3 -14 6 -6 3 7 2 16 -1 19 -3 4 -6 -2 -5 -13z"/>
<path d="M9386 11537 c3 -10 9 -15 12 -12 3 3 0 11 -7 18 -10 9 -11 8 -5 -6z"/>
<path d="M6935 11511 c-3 -12 -4 -25 -1 -30 3 -5 -3 -11 -14 -14 -14 -3 -20
-14 -20 -31 0 -19 -5 -26 -18 -26 -11 0 -24 -12 -31 -26 -12 -27 -18 -27 -83
-8 -12 3 -18 0 -18 -10 0 -8 -8 -28 -17 -44 -22 -39 -62 -48 -85 -22 -20 24
-41 25 -73 4 -14 -9 -31 -14 -39 -11 -8 3 -18 -4 -24 -17 -8 -18 -6 -25 10
-35 14 -9 19 -20 15 -37 -2 -13 0 -27 4 -30 5 -3 9 -10 9 -16 0 -6 -3 -9 -6
-5 -9 8 -54 -47 -54 -67 0 -8 -9 -20 -20 -26 -11 -6 -20 -17 -20 -25 0 -9 -10
-15 -22 -16 -13 0 -17 -3 -11 -6 10 -4 10 -10 -2 -26 -8 -12 -15 -34 -15 -49
0 -21 -5 -28 -20 -28 -22 0 -35 -49 -28 -100 3 -21 0 -30 -9 -30 -8 0 -11 -5
-7 -11 5 -8 -1 -10 -19 -6 -21 6 -27 3 -35 -21 -5 -15 -28 -46 -51 -68 -22
-23 -41 -49 -41 -58 0 -9 -4 -16 -9 -16 -19 0 26 -70 51 -79 15 -5 34 -24 43
-41 12 -24 21 -30 36 -25 17 6 19 2 16 -34 -3 -34 0 -41 15 -41 10 0 34 -7 53
-14 21 -9 35 -11 35 -5 0 6 4 8 9 5 4 -3 16 3 26 14 17 19 18 19 47 -5 40 -34
58 -32 22 2 -19 17 -24 28 -16 31 8 2 11 14 7 36 -6 29 -3 33 28 48 26 12 37
26 42 48 6 28 10 31 36 28 33 -5 36 2 13 37 -16 25 -16 25 20 25 39 0 45 14
26 51 -9 17 -7 19 18 19 16 0 46 -11 66 -25 40 -27 76 -33 77 -12 0 6 5 2 11
-10 9 -19 28 -32 28 -19 0 12 -31 76 -40 81 -15 9 -13 65 3 61 6 -3 26 -7 42
-11 23 -5 27 -4 18 6 -6 6 -9 18 -6 27 4 10 2 13 -5 8 -7 -4 -12 -2 -12 3 0
20 5 26 18 23 7 -2 19 3 27 11 7 8 25 12 38 10 18 -4 26 0 30 16 5 20 6 20 53
4 27 -9 53 -22 57 -30 5 -7 12 -11 18 -8 5 4 9 0 9 -9 0 -8 14 -28 31 -46 21
-20 29 -37 26 -50 -3 -11 -1 -23 4 -26 5 -3 7 -17 3 -32 -4 -23 -4 -24 6 -9 7
10 9 25 6 32 -9 25 33 103 79 143 25 22 45 47 45 55 0 12 6 14 29 7 26 -7 30
-5 39 18 29 84 30 90 14 106 -11 11 -12 18 -4 28 7 9 8 19 2 28 -13 20 -12 33
1 25 20 -13 58 4 61 28 2 12 9 21 15 20 18 -4 28 66 13 90 -11 18 -10 19 9 14
24 -6 57 15 47 31 -7 12 16 17 57 13 18 -2 24 23 8 33 -5 3 -7 14 -4 24 2 10
-3 24 -11 31 -14 12 -16 10 -16 -13 0 -19 -7 -29 -24 -36 -13 -5 -39 -24 -58
-43 -29 -29 -37 -32 -57 -23 -15 6 -38 6 -72 0 -27 -6 -51 -8 -54 -6 -3 3 -5
24 -5 46 0 23 -4 46 -8 52 -10 15 -42 25 -42 14 0 -5 -15 -7 -32 -4 -24 4 -29
3 -18 -4 8 -6 17 -9 21 -6 9 5 21 -27 13 -35 -3 -3 -11 2 -18 12 -15 19 -36
23 -36 6 0 -5 -5 -7 -12 -3 -8 5 -9 0 -6 -14 4 -15 2 -22 -7 -22 -8 0 -15 13
-17 32 -4 42 -43 65 -69 42 -15 -14 -19 -11 -44 33 -14 26 -33 63 -41 82 -12
28 -16 31 -29 21 -12 -10 -18 -10 -29 -1 -11 10 -16 8 -21 -8z m346 -301 c5 0
9 -4 9 -9 0 -12 -38 -2 -47 12 -4 7 0 8 11 4 10 -4 22 -7 27 -7z m-986 -610
c3 -5 1 -10 -4 -10 -6 0 -11 5 -11 10 0 6 2 10 4 10 3 0 8 -4 11 -10z"/>
<path d="M7600 11515 c-7 -8 -9 -15 -4 -15 5 0 3 -4 -4 -9 -10 -6 -10 -10 3
-21 13 -11 15 -10 9 4 -4 10 0 18 10 22 17 6 23 34 7 34 -5 0 -14 -7 -21 -15z"/>
<path d="M7923 11480 c-29 -12 -29 -25 -1 -27 21 -2 37 11 38 30 0 9 -9 8 -37
-3z"/>
<path d="M14364 11473 c-10 -15 -15 -16 -33 -5 -12 7 -21 8 -21 2 0 -14 -58
-42 -65 -31 -5 10 -65 -18 -65 -30 0 -7 45 -1 70 8 8 4 43 7 77 7 34 1 65 5
69 8 8 9 -4 58 -14 58 -4 0 -12 -8 -18 -17z"/>
<path d="M9395 11460 c3 -5 8 -10 11 -10 2 0 4 5 4 10 0 6 -5 10 -11 10 -5 0
-7 -4 -4 -10z"/>
<path d="M14130 11456 c0 -9 -11 -21 -25 -26 -14 -5 -25 -15 -26 -22 0 -7 -2
-32 -4 -55 -2 -24 0 -43 3 -43 4 0 8 -20 9 -45 1 -34 -2 -45 -13 -45 -26 0
-26 -27 1 -54 35 -35 53 -34 47 4 -5 33 7 38 53 20 23 -9 26 -14 20 -40 -6
-27 -4 -30 20 -30 14 0 28 -6 31 -13 3 -8 10 -14 17 -14 7 0 19 -2 27 -4 10
-3 14 4 15 23 1 31 -17 59 -40 62 -9 1 -22 13 -28 26 -7 13 -23 25 -36 27 -33
5 -35 8 -20 30 10 17 8 25 -9 49 -11 16 -23 50 -27 76 -5 38 -3 47 11 50 14 3
13 5 -5 22 -19 17 -21 17 -21 2z m18 -201 c10 -21 9 -25 -3 -25 -8 0 -15 -5
-15 -12 0 -8 -6 -7 -16 4 -10 10 -14 23 -9 37 9 28 29 27 43 -4z"/>
<path d="M7824 11426 l-21 -21 22 -40 c14 -24 31 -40 42 -40 11 0 17 -7 17
-18 -1 -10 5 -17 16 -17 10 0 23 -7 30 -15 10 -13 9 -15 -9 -15 -22 0 -28 -14
-11 -25 6 -3 10 -1 10 4 0 6 7 11 15 11 19 0 19 24 0 44 -19 19 -19 26 6 52
19 20 19 21 -13 56 -41 45 -76 53 -104 24z"/>
<path d="M14370 11390 c0 -5 -10 -20 -22 -32 l-21 -21 5 21 c4 12 2 20 -3 16
-14 -8 -11 -34 7 -52 11 -10 13 -17 5 -20 -17 -6 -13 -43 9 -85 11 -21 18 -42
15 -48 -4 -5 -3 -8 2 -7 4 2 8 -1 8 -7 0 -5 -4 -9 -10 -7 -5 2 -4 -2 3 -9 6
-7 12 -20 12 -28 0 -21 69 -93 81 -86 5 4 5 14 -1 25 -5 10 -15 31 -20 46 -9
23 -9 25 4 15 21 -17 31 22 16 59 -9 22 -9 33 2 52 15 27 18 110 3 120 -5 4
-20 8 -33 8 -15 0 -26 9 -32 25 -9 24 -30 35 -30 15z"/>
<path d="M7792 11302 c-30 -5 -37 -25 -18 -54 13 -20 13 -30 4 -63 -7 -22 -16
-43 -21 -46 -14 -10 16 -17 45 -12 20 4 31 16 42 44 9 22 16 46 16 54 0 9 6
12 15 9 9 -4 15 0 15 9 0 20 -37 29 -44 11 -5 -12 -9 -12 -26 -2 -17 11 -18
15 -6 24 20 14 6 30 -22 26z"/>
<path d="M7911 11221 c-10 -7 -12 -20 -7 -49 4 -28 2 -42 -7 -45 -9 -4 -9 -6
1 -6 7 -1 22 20 32 45 24 56 17 78 -19 55z"/>
<path d="M14110 11128 c0 -3 11 -17 25 -32 14 -15 25 -23 25 -19 0 5 -5 14
-12 21 -9 9 -8 12 5 12 9 0 17 5 17 10 0 7 -6 7 -18 1 -13 -7 -23 -6 -30 1 -7
7 -12 10 -12 6z"/>
<path d="M7830 11105 c0 -8 7 -15 16 -15 14 0 14 3 4 15 -7 8 -14 15 -16 15
-2 0 -4 -7 -4 -15z"/>
<path d="M7897 11086 c32 -28 39 -27 23 3 -6 12 -20 21 -31 21 -18 0 -17 -3 8
-24z"/>
<path d="M7988 11068 c-6 -17 50 -98 68 -98 19 0 27 40 15 72 -5 14 -7 29 -3
34 6 6 -7 3 -45 -13 -7 -3 -13 0 -13 6 0 15 -17 14 -22 -1z"/>
<path d="M14209 11051 c30 -29 36 -31 49 -18 20 20 7 38 -26 35 -15 -1 -34 2
-42 6 -8 5 0 -6 19 -23z"/>
<path d="M10550 11010 c12 -16 23 -30 26 -30 2 0 -2 14 -11 30 -9 17 -20 30
-26 30 -6 0 -1 -13 11 -30z"/>
<path d="M8013 10943 c-18 -7 -16 -23 2 -23 8 0 15 7 15 15 0 8 -1 15 -2 14
-2 0 -9 -3 -15 -6z"/>
<path d="M7970 10875 c-9 -17 -22 -25 -41 -25 -15 0 -30 -4 -33 -9 -3 -5 -15
-7 -25 -4 -13 3 -21 -2 -25 -15 -9 -27 -77 -42 -123 -27 -27 9 -30 -9 -8 -39
10 -13 18 -16 27 -9 21 15 65 14 78 -2 18 -22 50 -19 50 5 0 15 7 20 24 20 14
0 28 5 32 11 3 6 16 9 28 7 30 -6 41 9 43 65 3 52 -7 60 -27 22z"/>
<path d="M7623 10709 c-23 -8 -53 -56 -53 -84 0 -8 -6 -15 -14 -15 -23 0 -65
-43 -68 -70 -3 -22 1 -25 30 -28 26 -3 32 0 32 16 0 11 14 32 31 47 38 31 71
92 67 121 -2 18 -7 20 -25 13z"/>
<path d="M6890 10605 c6 -8 10 -24 8 -36 -2 -13 3 -24 12 -27 8 -3 12 -1 8 3
-11 11 10 45 28 45 8 0 12 5 9 11 -4 6 -9 8 -12 6 -2 -3 -18 -1 -35 3 -25 8
-28 7 -18 -5z"/>
<path d="M12340 10586 c0 -2 7 -9 15 -16 13 -11 14 -10 9 4 -5 14 -24 23 -24
12z"/>
<path d="M7445 10464 c-11 -9 -32 -14 -47 -11 -22 3 -28 0 -28 -15 0 -10 -7
-21 -15 -24 -20 -8 -19 -24 1 -24 13 0 14 -3 5 -14 -9 -11 -5 -15 20 -18 25
-4 29 -2 18 6 -17 14 -22 32 -13 58 4 15 12 18 32 14 32 -7 55 5 50 27 -3 14
-5 14 -23 1z"/>
<path d="M7306 10402 c-3 -5 1 -9 9 -9 8 0 12 4 9 9 -3 4 -7 8 -9 8 -2 0 -6
-4 -9 -8z"/>
<path d="M7235 10390 c-4 -6 -15 -10 -26 -10 -16 0 -18 -3 -9 -19 9 -17 6 -20
-18 -23 -20 -2 -28 -9 -30 -27 -3 -17 0 -21 10 -15 7 5 20 7 29 6 8 -2 21 9
27 23 10 22 22 30 45 26 4 0 7 8 7 18 0 21 -26 36 -35 21z"/>
<path d="M6565 10303 c10 -42 22 -48 27 -14 2 16 1 28 -4 25 -4 -3 -8 0 -8 5
0 6 -5 11 -11 11 -7 0 -9 -10 -4 -27z"/>
<path d="M6624 10279 c-8 -14 11 -33 25 -25 11 7 4 36 -9 36 -5 0 -12 -5 -16
-11z"/>
<path d="M8963 10028 c-6 -7 -15 -22 -21 -34 -10 -19 -9 -21 11 -17 17 3 23
12 25 34 3 32 -1 35 -15 17z"/>
<path d="M9007 9990 c3 -11 10 -23 16 -27 6 -4 8 0 4 10 -3 10 -2 17 3 17 6 0
10 5 10 10 0 6 -9 10 -19 10 -14 0 -18 -5 -14 -20z"/>
<path d="M8930 9861 c0 -5 7 -12 16 -15 14 -5 15 -4 4 9 -14 17 -20 19 -20 6z"/>
<path d="M9360 9800 c-13 -8 -13 -10 2 -10 9 0 20 5 23 10 8 13 -5 13 -25 0z"/>
<path d="M14708 9805 c-4 -4 -3 -15 2 -25 5 -10 6 -20 3 -24 -3 -3 -2 -6 4 -6
6 0 13 9 16 20 3 11 1 18 -3 15 -5 -3 -10 2 -12 11 -2 9 -6 13 -10 9z"/>
<path d="M9071 9786 c-13 -16 -2 -29 16 -18 7 4 8 13 4 20 -6 10 -10 10 -20
-2z"/>
<path d="M9048 9721 c-2 -17 -1 -28 3 -26 10 7 18 55 9 55 -4 0 -10 -13 -12
-29z"/>
<path d="M6045 9663 c-11 -3 -24 -9 -29 -14 -14 -13 23 -37 46 -31 32 8 19
-17 -18 -34 -30 -14 -40 -15 -56 -5 -16 10 -22 10 -28 1 -4 -7 -14 -9 -21 -6
-8 4 -3 -2 11 -14 14 -12 25 -27 25 -34 1 -27 113 29 140 70 16 25 16 27 -6
50 -23 24 -28 26 -64 17z"/>
<path d="M9018 9633 c7 -3 16 -2 19 1 4 3 -2 6 -13 5 -11 0 -14 -3 -6 -6z"/>
<path d="M12360 9530 c0 -5 5 -10 11 -10 5 0 7 5 4 10 -3 6 -8 10 -11 10 -2 0
-4 -4 -4 -10z"/>
<path d="M5990 9490 c0 -5 5 -10 10 -10 6 0 10 5 10 10 0 6 -4 10 -10 10 -5 0
-10 -4 -10 -10z"/>
<path d="M5910 9470 c0 -5 5 -10 11 -10 5 0 7 5 4 10 -3 6 -8 10 -11 10 -2 0
-4 -4 -4 -10z"/>
<path d="M5965 9470 c-4 -6 -10 -8 -15 -5 -4 3 -10 -2 -14 -10 -3 -8 -1 -17 3
-20 8 -5 20 6 35 33 9 14 0 17 -9 2z"/>
<path d="M10725 9110 c3 -5 11 -10 16 -10 6 0 7 5 4 10 -3 6 -11 10 -16 10 -6
0 -7 -4 -4 -10z"/>
<path d="M14510 8788 c0 -18 5 -28 15 -28 19 0 19 11 0 36 -14 18 -14 18 -15
-8z"/>
<path d="M8430 8480 c-12 -8 -10 -10 8 -10 13 0 20 4 17 10 -7 12 -6 12 -25 0z"/>
<path d="M6520 8185 c-5 -14 -10 -37 -10 -51 l0 -24 25 22 c28 24 32 50 10 68
-12 10 -16 8 -25 -15z"/>
<path d="M6490 8090 c-9 -6 -10 -10 -3 -10 6 0 15 5 18 10 8 12 4 12 -15 0z"/>
</g>
</svg>
