<?xml version="1.0" standalone="no"?>
<!DOCTYPE svg PUBLIC "-//W3C//DTD SVG 20010904//EN"
 "http://www.w3.org/TR/2001/REC-SVG-20010904/DTD/svg10.dtd">
<svg version="1.0" xmlns="http://www.w3.org/2000/svg"
 width="511.668460pt" height="689.859816pt" viewBox="0 0 511.668460 689.859816"
 preserveAspectRatio="xMidYMid meet">
<metadata>
Created by potrace 1.15, written by Peter Selinger 2001-2017
</metadata>
<g transform="translate(-737.513709,1329.042446) scale(0.100000,-0.100000)"
fill="#222222" stroke="none">
<path d="M9536 13268 c6 -20 5 -21 -10 -9 -11 9 -16 10 -16 2 0 -9 -5 -9 -21
-1 -21 12 -75 5 -84 -10 -8 -13 36 -60 56 -60 9 0 24 -11 33 -25 16 -25 16
-27 -8 -55 -13 -17 -27 -39 -31 -50 -3 -11 -12 -20 -20 -20 -11 0 -11 -6 2
-30 19 -40 61 -69 73 -51 6 11 9 11 16 0 4 -7 3 -14 -4 -17 -17 -5 -15 -29 4
-36 8 -3 14 -14 12 -23 -1 -10 1 -23 5 -29 4 -7 0 -17 -8 -24 -21 -17 -19 -59
5 -98 11 -18 20 -33 20 -35 0 -1 -17 -2 -37 -2 l-38 0 0 -50 c0 -46 -2 -50
-23 -47 -21 3 -23 1 -17 -30 3 -18 7 -41 9 -50 1 -10 15 -31 30 -47 17 -18 26
-36 23 -45 -3 -8 -2 -18 3 -21 12 -7 12 -63 0 -90 -5 -11 -9 -16 -9 -11 -1 5
-8 3 -16 -4 -8 -7 -15 -9 -15 -5 0 4 -6 3 -12 -2 -7 -6 -28 -10 -46 -10 -17 0
-35 -2 -38 -6 -10 -10 10 -32 31 -32 14 0 19 -6 18 -22 -1 -11 4 -27 12 -33
18 -15 20 -31 3 -27 -7 1 -13 -7 -13 -17 0 -13 -11 -23 -30 -29 -17 -5 -44
-22 -60 -38 -42 -39 -93 -40 -136 -2 l-30 27 21 16 c15 12 23 31 27 73 3 32
10 60 14 63 4 2 6 10 3 17 -2 7 7 24 21 37 14 13 25 31 25 41 0 10 9 21 20 24
16 5 20 14 18 41 -1 19 -8 40 -15 46 -10 8 -6 19 23 50 26 29 33 43 25 51 -6
6 -11 20 -11 31 0 11 -8 28 -17 39 -17 18 -17 19 0 28 13 8 15 14 7 30 -8 15
-7 26 7 49 9 17 21 30 25 30 13 0 9 27 -6 39 -11 9 -19 9 -35 -1 -17 -10 -25
-10 -50 5 -39 23 -41 22 -41 -19 0 -19 -3 -33 -8 -31 -4 3 -3 -30 2 -74 9 -70
8 -81 -9 -99 -10 -11 -26 -18 -35 -15 -10 3 -30 -8 -53 -30 -39 -38 -64 -38
-100 3 -19 20 -53 20 -40 -1 11 -18 -51 3 -72 25 -11 11 -14 18 -7 14 11 -7
17 6 12 29 -1 5 -2 19 -3 30 -1 11 -10 29 -20 40 -11 11 -26 30 -35 43 -12 19
-21 22 -47 18 -25 -5 -39 0 -73 26 -23 18 -42 38 -42 45 0 7 -6 13 -14 13 -8
0 -28 14 -44 30 -43 42 -53 39 -45 -16 l6 -47 -34 6 c-45 9 -63 -4 -63 -46 0
-32 -2 -34 -20 -24 -12 5 -28 13 -36 17 -8 4 -20 22 -26 41 -6 19 -22 39 -35
46 -21 11 -24 9 -36 -19 -7 -16 -10 -34 -7 -39 3 -5 -4 -9 -16 -9 -19 0 -21
-5 -19 -52 1 -29 7 -61 13 -70 14 -24 74 -24 91 -1 11 15 17 15 39 5 20 -9 26
-9 26 1 0 6 12 0 25 -15 13 -16 29 -28 35 -28 20 0 90 -45 86 -55 -2 -5 1 -20
5 -32 5 -14 3 -33 -7 -52 -8 -17 -13 -35 -9 -41 3 -5 1 -18 -5 -29 -8 -16 -5
-23 16 -40 15 -11 30 -19 34 -16 3 2 14 -11 23 -30 9 -19 23 -35 32 -35 8 0
15 -6 15 -14 0 -8 13 -24 30 -36 35 -25 50 -68 29 -84 -15 -12 -49 -101 -49
-128 0 -19 77 -81 91 -73 4 3 11 -5 15 -17 6 -19 8 -20 18 -6 6 9 20 17 31 20
11 2 19 11 19 21 -2 20 -3 20 30 7 22 -8 29 -5 60 31 34 40 74 51 68 18 -1 -8
8 -3 20 11 45 49 112 62 101 19 -3 -10 -10 -19 -15 -19 -6 0 -5 -7 3 -16 7 -8
21 -13 30 -11 10 3 23 -1 30 -9 8 -10 8 -14 0 -15 -41 -5 -54 -18 -47 -49 4
-24 1 -29 -19 -34 -15 -4 -25 -14 -25 -24 0 -29 -23 -70 -47 -83 -13 -7 -23
-18 -23 -26 0 -18 -10 -16 -26 5 -8 10 -13 12 -14 5 0 -7 -6 -10 -13 -8 -7 3
-19 -13 -29 -42 -14 -40 -23 -50 -52 -59 -33 -10 -35 -10 -38 15 -2 18 -8 25
-18 22 -8 -3 -25 -5 -37 -5 -13 -1 -21 -5 -19 -11 6 -17 -23 -65 -40 -65 -8 0
-26 -7 -40 -16 -13 -9 -27 -14 -30 -11 -3 3 -17 1 -31 -4 -19 -7 -30 -6 -42 4
-9 7 -33 18 -54 24 -45 13 -57 0 -36 -39 16 -29 13 -55 -13 -90 -21 -31 -45
-36 -54 -13 -5 11 -10 13 -19 5 -7 -6 -16 -7 -19 -2 -8 13 -41 8 -63 -9 -16
-12 -17 -12 -6 1 18 23 -5 50 -35 39 -28 -11 -29 -42 0 -61 17 -12 19 -18 10
-33 -10 -18 -11 -18 -23 8 -12 28 -34 32 -34 7 0 -7 -6 -15 -13 -18 -14 -4
-13 19 1 29 5 4 1 21 -8 38 -10 21 -14 43 -10 62 5 21 1 36 -14 54 -11 14 -23
40 -26 58 -4 18 -16 42 -28 54 -11 13 -18 25 -16 27 2 3 29 -4 59 -14 85 -30
98 -26 54 15 -20 19 -39 35 -41 35 -2 0 -15 12 -28 28 -19 21 -27 24 -34 13
-5 -8 -11 -9 -14 -3 -4 5 -28 15 -54 22 -51 14 -97 43 -85 54 3 4 -1 4 -11 0
-28 -10 -67 5 -79 31 -6 14 -17 25 -25 25 -7 0 -22 5 -33 12 -15 10 -22 9 -39
-6 -11 -10 -18 -22 -16 -27 3 -4 -10 -13 -29 -20 -31 -11 -34 -15 -24 -33 13
-25 18 -70 9 -83 -3 -5 -14 -13 -25 -16 -11 -5 -16 -13 -12 -23 4 -11 2 -15
-8 -11 -10 4 -16 -2 -18 -15 -4 -25 -17 -31 -38 -18 -13 8 -13 11 2 22 15 11
15 15 3 32 -8 11 -18 16 -22 13 -3 -4 -13 -1 -22 7 -9 7 -26 17 -39 21 -21 6
-22 4 -16 -21 6 -23 4 -26 -10 -21 -10 4 -16 1 -16 -9 0 -21 -27 -47 -35 -34
-10 16 -21 12 -55 -16 -22 -19 -34 -24 -42 -16 -6 6 -17 7 -27 2 -9 -5 -24
-11 -33 -14 -15 -4 -16 -10 -8 -31 5 -14 11 -38 12 -54 1 -19 7 -27 15 -24 9
3 13 -4 13 -20 0 -14 5 -29 10 -32 6 -4 10 -14 9 -23 -3 -34 2 -42 26 -42 14
0 25 -6 25 -14 0 -9 -9 -12 -27 -9 l-28 4 23 -20 c13 -11 30 -17 38 -14 14 5
41 -45 50 -94 3 -13 23 -40 46 -61 35 -31 74 -94 71 -112 -1 -3 8 -6 20 -6 46
-3 90 -14 103 -24 23 -20 48 -98 36 -113 -7 -9 -8 -17 -1 -27 8 -12 12 -12 16
-2 4 10 8 9 18 -4 14 -20 51 -12 39 8 -4 7 3 3 16 -9 l23 -21 39 20 c29 15 42
17 52 9 27 -23 41 -3 42 59 1 33 6 66 12 73 9 10 8 17 0 25 -9 9 -6 12 16 12
21 0 29 6 37 30 6 16 14 28 17 26 4 -2 8 11 9 30 3 89 6 103 19 108 11 4 11
11 4 31 -6 15 -10 30 -10 34 0 14 38 19 49 8 9 -9 13 -6 17 11 8 29 29 29 31
0 1 -13 5 -34 8 -46 4 -17 2 -23 -7 -19 -7 2 -12 9 -11 15 1 5 -7 12 -18 15
-18 5 -20 2 -15 -21 3 -15 8 -37 11 -49 4 -16 -1 -27 -15 -35 -11 -7 -20 -18
-20 -24 0 -6 -7 -17 -15 -24 -18 -15 -14 -122 5 -145 10 -12 3 -24 -40 -65
-28 -27 -56 -50 -62 -50 -5 0 -2 -10 6 -22 9 -12 16 -31 16 -41 0 -10 5 -15
10 -12 6 3 10 -1 10 -9 0 -9 -5 -16 -12 -16 -6 0 -4 -6 6 -13 15 -11 16 -17 7
-34 -8 -16 -8 -23 2 -26 9 -4 9 -6 0 -6 -15 -1 -17 -37 -3 -46 6 -4 7 -11 4
-17 -6 -10 -10 -38 -14 -100 -1 -9 -10 -24 -21 -34 -10 -9 -19 -25 -19 -36 0
-10 -5 -18 -11 -18 -6 0 1 -14 15 -31 14 -17 27 -36 27 -42 9 -77 8 -87 -11
-87 -28 0 -27 -54 1 -74 17 -12 20 -20 14 -48 -4 -18 -16 -39 -26 -46 -28 -20
-23 -49 11 -67 21 -11 30 -23 30 -41 0 -13 6 -27 13 -30 25 -9 19 -69 -8 -92
-19 -16 -25 -18 -25 -7 0 19 -36 39 -45 24 -4 -6 -4 -29 -1 -52 8 -54 -3 -69
-48 -70 -44 -1 -42 -19 4 -28 41 -9 63 -1 55 19 -4 12 -3 13 9 2 13 -10 19 -9
31 4 9 9 23 16 31 16 19 0 29 46 15 76 -14 31 7 42 47 25 18 -9 28 -9 30 -2 2
6 14 11 26 11 13 0 42 18 68 43 34 32 47 53 52 84 4 23 13 49 21 59 11 15 10
22 -3 42 -15 24 -15 24 6 18 16 -5 24 -3 28 9 4 9 17 21 30 26 17 6 24 16 24
34 0 18 7 28 25 35 14 5 25 16 25 24 0 8 18 27 40 43 40 28 51 58 29 80 -21
21 -6 56 29 65 17 5 32 13 32 18 0 6 11 10 23 10 29 0 50 -38 35 -64 -18 -33
-1 -41 19 -8 l21 33 6 -25 c6 -26 26 -36 26 -14 0 6 7 4 18 -5 23 -21 36 -22
28 -1 -4 11 1 18 14 21 11 3 33 25 48 49 16 24 32 40 36 37 7 -8 66 53 66 68
0 6 -4 7 -10 4 -5 -3 -10 1 -10 9 0 10 -9 16 -23 16 -13 0 -28 5 -33 10 -7 7
-24 0 -52 -21 -23 -17 -42 -26 -42 -21 0 5 7 12 15 16 21 8 19 43 -6 74 -12
16 -16 28 -10 30 15 5 14 23 -1 20 -17 -4 -22 31 -7 58 10 20 10 27 -4 42 -10
10 -14 21 -11 25 4 3 -1 13 -10 22 -9 9 -16 23 -16 30 0 8 -9 17 -20 20 -16 5
-19 12 -14 28 4 12 11 24 15 25 5 2 9 21 9 43 0 21 5 39 10 39 6 0 10 -5 10
-10 0 -6 11 -8 25 -4 24 6 25 4 20 -18 -5 -18 -2 -27 9 -31 19 -7 28 6 20 27
-3 9 -1 16 5 16 11 0 15 -13 12 -36 -2 -21 40 -48 70 -46 19 2 32 -3 35 -13 4
-8 13 -15 21 -15 10 0 13 6 9 17 -6 16 -6 16 12 0 20 -18 57 -13 46 5 -5 7 -1
7 11 1 10 -6 26 -8 36 -6 14 4 19 0 19 -14 0 -20 39 -63 57 -63 11 0 63 -59
63 -72 0 -4 7 -8 15 -8 16 0 18 -50 2 -61 -13 -9 -10 -101 4 -109 8 -6 8 -9
-2 -12 -7 -2 -14 -18 -15 -35 -1 -24 4 -33 22 -42 13 -6 24 -16 24 -22 0 -6 9
-9 19 -6 13 3 30 -6 52 -29 18 -19 39 -34 46 -34 20 0 37 -39 23 -55 -8 -10
-8 -15 3 -22 17 -10 47 -66 47 -88 0 -9 6 -18 14 -21 8 -3 11 -14 9 -29 -5
-23 2 -32 63 -80 26 -21 31 -31 32 -67 0 -24 -9 -58 -20 -79 -17 -31 -24 -35
-51 -32 -57 7 -78 13 -72 22 3 5 0 11 -7 13 -9 3 -8 9 5 22 9 10 17 29 16 44
-1 27 -1 27 -15 -5 -14 -32 -46 -45 -59 -24 -3 6 -14 9 -25 8 -21 -1 -17 -17
6 -17 8 0 14 -9 14 -20 0 -21 -24 -27 -35 -9 -5 6 -12 3 -21 -10 -8 -11 -21
-18 -29 -15 -9 4 -15 0 -15 -10 0 -20 -18 -20 -59 0 -17 9 -39 13 -47 10 -9
-3 -25 1 -37 9 -26 18 -67 19 -102 3 -21 -9 -31 -9 -46 0 -31 19 -59 14 -69
-12 -12 -32 -35 -35 -92 -14 l-48 18 -6 -24 c-3 -13 -17 -33 -30 -45 -13 -11
-24 -25 -24 -31 0 -5 -5 -10 -10 -10 -6 0 -22 -12 -35 -27 -13 -16 -25 -22
-25 -15 0 22 -18 13 -24 -13 -4 -17 -13 -25 -28 -25 -20 0 -20 -1 -5 -18 22
-25 21 -29 -8 -36 -29 -7 -32 -18 -10 -36 20 -17 20 -113 0 -133 -8 -8 -11
-18 -7 -21 3 -4 0 -12 -8 -17 -11 -8 -12 -12 -2 -16 17 -7 15 -42 -3 -49 -23
-9 -18 -24 8 -24 17 0 22 -6 22 -25 0 -14 -3 -25 -7 -25 -13 0 -9 -27 6 -40
12 -9 12 -17 4 -35 -6 -13 -16 -23 -22 -22 -14 3 -21 -50 -8 -66 5 -7 13 -27
17 -44 5 -26 3 -33 -9 -33 -9 0 -16 -8 -16 -18 0 -9 -8 -22 -18 -29 -16 -9
-18 -21 -14 -66 3 -34 0 -57 -7 -61 -6 -4 -11 -20 -11 -35 0 -31 -27 -61 -55
-61 -14 0 -15 -3 -5 -15 14 -16 6 -21 -39 -27 -19 -2 -26 -10 -28 -33 -3 -24
4 -39 34 -70 21 -22 51 -46 66 -53 38 -17 102 -15 117 3 7 8 21 15 31 15 14 0
21 9 26 30 4 21 11 30 22 28 29 -4 71 12 71 28 0 14 2 14 16 0 17 -17 25 -20
22 -8 -3 15 15 42 27 42 8 0 17 9 20 21 6 19 8 20 26 3 17 -15 19 -15 19 -1 0
10 5 14 15 11 8 -4 15 -12 15 -19 0 -7 9 -15 20 -18 11 -3 20 -12 20 -21 0
-10 9 -16 25 -16 31 0 55 -38 34 -54 -17 -13 -18 -61 -2 -61 7 0 19 -10 28
-22 12 -16 12 -23 2 -27 -6 -4 -2 -4 11 -2 12 2 22 1 22 -4 0 -20 -32 -81 -45
-86 -11 -5 -12 -11 -4 -25 7 -14 6 -19 -2 -19 -6 0 -9 -9 -6 -20 3 -11 1 -22
-4 -25 -4 -3 -6 -12 -3 -19 6 -17 -35 -108 -46 -101 -4 3 -10 -6 -12 -20 -3
-14 -1 -25 4 -25 5 0 7 -9 3 -20 -3 -11 -3 -25 2 -32 16 -26 12 -50 -11 -73
-23 -23 -24 -27 -11 -52 18 -35 5 -51 -29 -35 -19 8 -27 8 -32 0 -4 -7 -2 -14
5 -16 9 -3 9 -7 0 -18 -14 -17 -39 -1 -39 23 0 9 -6 13 -15 9 -11 -4 -15 1
-15 17 -1 20 -2 21 -14 5 -7 -10 -21 -18 -31 -18 -27 0 -80 -36 -92 -63 -8
-18 -31 -29 -94 -49 -86 -27 -148 -40 -184 -40 -11 0 -35 -2 -53 -4 -28 -4
-32 -8 -26 -26 4 -13 2 -18 -4 -14 -6 3 -13 -3 -17 -13 -10 -32 -61 -82 -78
-75 -10 3 -29 -11 -53 -40 -21 -25 -44 -46 -51 -46 -9 0 -11 -9 -6 -32 5 -24
3 -29 -7 -23 -8 5 -18 1 -26 -10 -12 -16 -12 -21 1 -35 10 -11 11 -20 4 -30
-8 -13 -12 -12 -28 7 l-18 21 -26 -24 c-15 -14 -27 -29 -27 -34 0 -6 -7 -10
-15 -10 -16 0 -30 -42 -21 -65 3 -9 0 -15 -10 -15 -9 0 -14 -6 -11 -12 5 -16
-31 -90 -50 -101 -10 -6 -13 -17 -8 -35 5 -19 1 -30 -14 -41 -14 -11 -21 -30
-23 -58 -2 -33 -7 -43 -20 -43 -10 0 -18 -4 -18 -10 0 -5 -13 -10 -30 -10 -16
0 -30 -4 -30 -10 0 -5 -15 -17 -32 -26 -30 -15 -31 -18 -13 -24 15 -5 22 -2
27 12 9 22 34 18 78 -10 14 -9 29 -17 33 -17 4 0 18 -18 30 -40 21 -37 26 -40
67 -42 25 -2 58 2 73 9 15 6 30 8 34 5 3 -4 -2 -28 -10 -54 -16 -46 -15 -49 5
-68 l21 -20 -7 20 c-6 20 -2 16 55 -51 35 -42 71 -63 91 -53 24 13 40 2 33
-21 -5 -14 -1 -17 22 -13 20 3 24 2 14 -5 -9 -7 -12 -21 -7 -46 3 -20 9 -51
12 -70 4 -22 14 -37 30 -45 15 -7 24 -19 24 -34 0 -29 18 -47 47 -47 20 0 48
-9 98 -32 29 -13 123 -3 144 16 14 12 20 13 30 3 9 -9 14 -9 21 3 8 13 13 13
43 -3 18 -10 40 -15 49 -12 10 4 27 -5 47 -24 36 -35 43 -38 34 -15 -4 12 0
14 23 8 16 -3 34 -13 40 -20 6 -8 16 -14 21 -14 5 0 18 -9 28 -20 10 -11 24
-20 31 -20 7 0 25 -7 41 -17 38 -21 83 -11 83 18 0 20 7 21 58 2 7 -3 12 3 12
16 0 12 6 21 15 21 11 0 15 12 15 50 0 49 1 50 31 50 17 0 39 -5 49 -10 15 -8
21 -6 30 9 5 11 10 29 10 41 0 12 12 42 27 68 30 50 31 90 6 128 -13 21 -12
26 12 62 15 23 23 46 19 56 -3 9 -1 23 6 30 9 11 9 20 0 36 -7 13 -11 58 -9
108 1 80 -7 123 -33 175 -6 12 -5 23 3 33 9 11 9 17 -1 29 -10 12 -10 15 3 15
18 0 31 28 19 44 -13 16 -2 86 13 86 7 0 25 13 38 30 14 16 35 30 46 30 12 0
21 3 21 7 0 7 -97 111 -108 115 -4 2 -5 8 -4 13 2 6 6 22 7 38 2 15 7 32 10
37 10 17 -28 71 -55 76 -51 12 -57 15 -70 39 -10 20 -16 22 -32 14 -33 -17
-58 -2 -58 36 0 28 -3 32 -20 28 -16 -4 -20 0 -20 21 0 19 5 26 20 26 29 0 25
15 -18 58 -37 36 -38 37 -19 55 12 12 28 17 42 14 26 -4 38 12 24 34 -15 23
-10 29 21 29 18 0 33 -6 36 -15 4 -8 12 -15 20 -15 7 0 17 -7 21 -15 5 -8 23
-19 41 -24 27 -8 32 -7 33 7 0 13 3 11 12 -6 8 -18 8 -25 -3 -32 -11 -7 -7
-15 18 -36 18 -16 32 -33 32 -40 0 -6 18 -25 39 -42 22 -18 42 -42 46 -54 13
-45 29 -69 46 -66 17 3 89 -79 89 -101 0 -5 8 -9 18 -9 26 1 72 -20 72 -33 0
-6 -7 -9 -15 -6 -8 4 -17 2 -19 -2 -7 -12 41 -32 59 -25 8 4 15 1 15 -6 0 -6
-9 -14 -20 -17 -20 -5 -20 -7 -4 -24 23 -25 31 -24 48 9 8 15 15 22 16 15 0
-6 16 -21 36 -33 19 -13 39 -33 44 -46 11 -29 60 -43 129 -36 40 3 56 10 71
30 11 14 23 22 27 19 3 -4 12 1 18 10 11 15 15 15 29 4 13 -11 20 -9 46 12
l30 26 30 -30 c16 -17 37 -43 46 -59 10 -16 25 -31 35 -33 9 -3 20 -17 23 -33
4 -16 19 -37 34 -46 15 -10 35 -23 44 -30 14 -10 21 -9 37 6 19 17 21 17 21 3
0 -10 5 -17 10 -17 6 0 10 6 10 13 0 6 15 -14 33 -46 39 -68 80 -96 107 -72 9
8 24 15 32 15 9 0 18 7 22 15 11 28 28 16 25 -19 -2 -19 3 -41 10 -50 12 -14
11 -19 -4 -36 -18 -20 -18 -21 3 -50 12 -16 23 -37 25 -47 1 -10 6 -24 11 -31
4 -7 6 -14 5 -16 -35 -23 -61 -36 -73 -36 -8 0 -16 -5 -18 -12 -5 -15 33 -77
48 -78 7 0 15 -7 18 -16 6 -15 10 -14 31 6 17 16 22 27 15 34 -5 5 -10 17 -10
25 0 11 3 10 14 -4 16 -22 51 -13 42 11 -4 11 -2 15 8 11 24 -10 40 22 51 100
10 68 9 75 -8 84 -12 7 -16 16 -12 30 5 15 1 25 -14 35 -16 12 -18 19 -11 39
5 13 10 47 11 75 3 59 -13 81 -61 87 -45 4 -77 32 -96 81 -10 24 -29 56 -44
72 -38 40 -35 57 9 55 20 -1 41 1 46 4 6 3 19 6 30 8 126 12 137 15 142 34 4
16 13 20 37 17 30 -3 31 -1 34 37 3 36 7 42 41 56 30 13 39 23 44 48 4 18 11
30 16 26 5 -3 12 -1 16 4 3 6 12 8 20 4 11 -4 13 -1 9 12 -6 14 -3 16 13 11
12 -4 25 -1 32 7 12 15 9 65 -4 88 -7 11 -6 12 6 2 15 -12 59 -7 59 7 0 5 8 6
18 4 9 -2 23 0 30 4 18 12 5 82 -14 82 -8 0 -15 6 -16 13 0 6 -2 17 -2 23 -1
6 -7 18 -14 27 -11 13 -10 22 7 53 14 26 17 42 11 55 -6 10 -7 24 -4 32 4 11
-1 13 -19 10 -14 -3 -28 0 -31 6 -4 6 -19 11 -34 11 -30 1 -62 21 -62 39 0 9
-3 9 -13 -1 -8 -6 -12 -22 -9 -34 3 -19 1 -22 -19 -18 -13 3 -34 11 -46 17
-18 8 -29 7 -49 -3 -14 -8 -21 -16 -15 -18 18 -6 13 -40 -6 -45 -17 -4 -17 -5
0 -6 9 0 17 -3 17 -5 0 -10 -48 -56 -59 -56 -14 0 -14 27 0 36 6 3 9 17 6 30
-2 13 2 29 10 35 11 10 10 14 -4 26 -10 8 -12 11 -4 7 9 -4 12 -2 9 6 -5 16
49 73 90 94 23 12 32 23 32 41 0 23 2 24 25 13 26 -12 31 -23 15 -33 -6 -4 -4
-18 6 -37 14 -27 19 -30 50 -25 35 6 56 -9 33 -24 -10 -6 -6 -11 14 -18 39
-15 38 -15 35 26 -2 31 1 40 19 48 12 5 23 18 25 30 2 11 11 21 20 23 18 3 48
-19 48 -35 0 -5 7 -19 16 -31 14 -20 17 -21 43 -7 16 8 31 24 34 36 6 21 10
22 91 17 56 -4 88 -2 96 6 8 8 14 7 21 -4 8 -11 12 -12 16 -3 3 9 10 10 24 3
15 -8 19 -7 19 4 0 9 7 12 20 9 13 -4 20 0 20 10 0 33 27 40 80 21 39 -14 53
-15 62 -6 7 7 22 12 35 12 17 0 23 6 23 21 0 17 3 19 14 10 9 -8 15 -8 18 -2
4 14 99 17 124 3 31 -17 44 -1 45 59 1 30 0 59 -1 64 -1 6 -2 21 -1 34 1 16 5
21 16 17 17 -6 55 22 55 41 0 7 8 13 18 13 26 1 52 25 52 49 0 25 9 26 57 6
20 -8 38 -13 41 -10 3 3 1 5 -3 5 -5 0 0 6 11 14 15 12 17 18 8 33 -6 10 -21
23 -33 29 -31 16 -53 39 -28 31 19 -7 22 1 7 23 -8 12 -12 12 -18 2 -7 -10
-11 -10 -22 3 -7 8 -25 15 -39 15 -19 0 -34 10 -49 30 -22 29 -22 29 -2 40 11
6 23 25 28 43 7 26 4 40 -15 73 -17 30 -23 56 -23 98 0 36 4 55 10 51 6 -3 10
-19 10 -36 0 -19 5 -29 15 -29 8 0 15 -4 15 -9 0 -13 35 -20 54 -9 9 5 16 18
16 30 0 11 8 27 18 34 14 11 15 16 5 33 -10 15 -9 22 2 31 24 20 6 33 -20 16
-21 -14 -27 -14 -52 -1 -15 8 -37 17 -48 21 -12 4 -15 8 -7 11 19 7 14 41 -8
48 -23 7 -26 21 -7 28 6 3 2 4 -10 4 -26 -1 -27 -2 -12 -28 10 -19 9 -19 -10
-9 -12 6 -21 12 -21 13 -1 1 -3 26 -6 55 -5 43 -3 52 10 52 12 0 16 10 16 41
0 32 3 40 18 38 9 -1 25 1 35 6 10 4 29 3 43 -3 20 -10 24 -9 24 4 0 9 9 27
19 41 20 24 20 25 0 56 -22 37 -24 70 -5 86 14 12 10 61 -7 72 -13 9 -19 69
-6 69 6 0 18 7 26 16 14 13 14 17 2 25 -8 5 -15 4 -17 -1 -4 -11 -84 -50 -103
-50 -6 0 -9 -8 -6 -20 4 -15 0 -20 -13 -20 -23 0 -50 -42 -50 -78 0 -39 -20
-55 -53 -43 -22 9 -25 7 -30 -15 -2 -13 0 -24 4 -24 5 0 9 -9 9 -21 0 -11 -4
-17 -10 -14 -5 3 -10 -1 -10 -9 0 -10 -6 -13 -17 -9 -13 5 -15 2 -11 -15 4
-12 0 -26 -8 -33 -8 -6 -14 -18 -14 -25 0 -22 -16 -16 -35 12 -16 24 -16 27 0
44 18 19 14 50 -5 50 -5 0 -10 7 -10 15 0 8 3 14 8 14 29 -5 33 4 8 17 -20 11
-31 13 -35 5 -4 -7 -12 -3 -21 11 -39 56 -58 71 -92 74 -33 3 -36 0 -42 -28
-3 -17 -6 -41 -6 -53 0 -12 -9 -34 -20 -48 -16 -21 -18 -30 -10 -52 7 -19 7
-31 0 -40 -11 -13 -8 -23 22 -75 4 -8 11 -22 15 -30 4 -8 18 -23 31 -34 15
-12 22 -25 19 -38 -3 -11 0 -21 9 -25 8 -3 12 -9 9 -13 -3 -5 -1 -11 3 -14 5
-3 4 -21 -2 -41 -9 -30 -15 -36 -33 -32 -18 3 -26 -4 -43 -37 -11 -23 -27 -41
-37 -42 -60 -3 -62 -4 -56 -21 5 -12 2 -15 -9 -10 -10 3 -19 0 -22 -9 -3 -8
-13 -14 -21 -14 -9 0 -14 4 -11 9 3 5 0 8 -7 8 -19 -2 -87 36 -87 48 0 8 -17
12 -42 12 -24 1 -50 2 -58 4 -12 3 -14 -5 -12 -40 3 -41 2 -43 -20 -38 -18 4
-29 -3 -53 -32 l-30 -38 -33 15 c-23 12 -32 22 -30 36 2 13 -2 20 -10 18 -8
-1 -11 2 -7 8 11 18 -15 40 -47 40 -26 0 -29 -2 -18 -15 15 -18 15 -18 -24
-30 -16 -6 -37 -23 -46 -39 -18 -34 -39 -45 -36 -20 0 9 -5 19 -13 22 -8 3
-11 0 -7 -7 4 -6 5 -15 1 -21 -9 -14 -35 0 -35 19 0 26 -36 44 -60 29 -11 -7
-20 -19 -20 -26 0 -7 -4 -10 -10 -7 -5 3 -10 2 -10 -4 0 -16 -54 -66 -67 -63
-7 2 -13 -2 -13 -8 0 -6 -5 -8 -11 -4 -6 3 -9 15 -6 25 3 13 -2 23 -15 30 -18
10 -20 9 -15 -6 5 -13 2 -16 -15 -13 -35 5 -32 31 5 49 27 14 32 21 29 48 -2
21 1 31 11 31 15 0 19 29 6 46 -6 7 -1 18 11 29 11 10 20 24 20 30 0 16 -63
26 -72 12 -4 -7 -16 0 -30 18 -13 16 -42 51 -65 78 -43 48 -53 64 -31 51 7 -5
25 -7 41 -6 15 1 36 -2 47 -8 16 -8 20 -8 20 4 0 20 37 39 63 32 28 -7 47 10
47 44 0 36 3 38 58 29 66 -10 76 -13 83 -22 3 -5 14 -1 23 9 10 9 13 20 8 23
-9 6 -28 56 -22 56 2 0 -2 10 -8 22 -10 18 -9 24 4 31 13 7 10 10 -16 15 -17
4 -29 11 -25 16 3 6 -4 15 -16 22 -20 10 -20 12 -6 21 23 12 21 35 -3 41 -11
3 -20 1 -20 -4 0 -13 -16 -11 -32 4 -7 6 -31 12 -53 12 -62 1 -107 43 -155
143 -22 45 -46 82 -53 82 -8 0 -33 13 -55 30 -23 16 -48 27 -56 24 -8 -3 -34
1 -58 9 -34 12 -44 20 -46 40 -2 15 -23 43 -50 69 -47 43 -72 84 -72 119 0 11
5 19 10 19 22 0 3 72 -25 92 -5 4 2 8 16 8 14 0 34 -9 44 -20 13 -14 22 -17
30 -10 7 6 19 8 28 4 10 -3 18 2 22 15 9 28 55 29 62 1 6 -22 45 -39 51 -21 2
6 14 11 27 11 33 0 76 21 68 33 -4 6 2 8 16 4 15 -4 21 -2 18 6 -6 16 55 16
75 -1 9 -7 22 -10 31 -6 8 3 18 1 22 -5 8 -14 45 -14 45 -1 0 6 7 10 15 10 8
0 15 5 15 10 0 7 7 7 20 0 11 -6 25 -8 30 -5 5 3 35 -2 65 -11 52 -17 55 -17
74 0 13 12 30 17 45 14 30 -6 41 14 25 44 -9 18 -9 20 4 15 21 -8 29 19 18 58
-6 25 -4 34 16 53 13 12 31 22 40 22 12 0 14 7 10 28 -6 32 5 58 22 48 6 -4
11 -1 11 8 0 8 6 17 13 19 9 4 9 8 0 14 -6 4 -15 23 -20 42 -8 31 -13 35 -46
36 -20 1 -43 7 -51 14 -13 11 -12 15 5 32 29 29 22 79 -10 79 -50 0 -86 77
-57 122 13 20 13 26 0 42 -18 25 -18 36 1 36 10 0 15 10 15 33 1 59 18 107 49
140 28 27 30 33 16 43 -8 6 -15 23 -15 38 0 24 -3 26 -47 28 -27 1 -56 2 -66
2 -24 2 -58 46 -51 68 3 10 1 26 -5 36 -7 13 -7 22 0 29 8 8 7 13 0 17 -6 4
-11 2 -11 -4 0 -6 -8 -9 -18 -6 -10 4 -44 8 -75 11 -62 4 -77 10 -77 28 0 7
-9 18 -20 24 -16 11 -18 10 -14 -2 4 -10 0 -15 -14 -15 -12 0 -23 -4 -27 -10
-8 -13 -55 9 -55 27 0 7 -9 13 -19 13 -11 0 -22 4 -25 9 -10 15 -56 0 -56 -19
0 -23 -26 -44 -45 -36 -10 3 -15 -1 -15 -11 0 -9 -16 -31 -35 -49 -32 -29 -38
-31 -66 -21 -24 10 -32 9 -40 -3 -8 -11 -12 -12 -16 -2 -7 17 -36 16 -30 -2 3
-8 -2 -16 -13 -19 -18 -5 -37 18 -21 25 5 2 5 28 1 58 -4 30 -3 57 1 58 5 2 9
9 9 16 0 9 9 12 25 9 23 -5 24 -3 21 32 -1 20 -9 41 -17 46 -11 7 -10 9 5 9
18 0 18 1 3 18 -10 10 -14 22 -10 25 3 4 -2 7 -12 7 -10 0 -23 7 -30 17 -8 11
-18 14 -31 8 -35 -15 -59 -10 -69 13 -12 28 -20 28 -57 -3 -16 -14 -38 -25
-48 -25 -11 0 -23 -6 -27 -13 -14 -24 -85 -43 -141 -38 -7 1 -11 5 -7 10 5 9
-10 24 -27 27 -5 1 -10 3 -13 4 -3 1 -11 3 -17 4 -7 0 -14 10 -17 21 -5 28
-18 34 -62 28 -21 -3 -49 -3 -62 1 -23 5 -24 9 -16 43 4 21 6 46 3 55 -4 13
-1 16 10 12 9 -3 27 1 41 10 22 15 24 21 19 56 -4 21 -3 55 0 74 6 33 8 35 33
25 14 -5 29 -7 32 -3 6 6 -21 29 -43 37 -6 3 -2 12 11 24 16 15 19 23 11 37
-9 15 -7 17 10 12 11 -4 23 -2 26 3 4 6 18 6 36 1 19 -5 30 -5 30 1 0 6 14 15
31 21 27 9 30 14 25 38 l-5 28 52 -29 c33 -18 57 -25 66 -20 7 5 22 6 32 4 24
-7 26 -55 4 -73 -9 -7 -14 -19 -11 -25 2 -7 -1 -18 -7 -24 -13 -13 -31 -15
-23 -2 8 12 -25 24 -37 12 -5 -5 0 -15 14 -25 15 -10 18 -16 9 -16 -9 0 -6 -6
9 -16 15 -11 21 -23 18 -36 -4 -12 1 -22 12 -26 21 -8 81 -75 81 -91 0 -14 13
-14 27 0 8 8 17 8 31 0 10 -6 22 -7 26 -4 3 3 6 1 6 -5 0 -7 8 -12 19 -12 10
0 25 -10 34 -22 19 -30 34 -16 19 18 -8 17 -9 31 -2 43 11 21 4 31 -20 31 -9
0 -25 9 -35 20 -13 14 -22 17 -29 10 -5 -5 -19 -10 -29 -10 -17 0 -18 5 -12
49 4 28 2 57 -3 67 -5 10 -6 25 -2 33 5 9 14 30 22 46 8 19 21 31 36 32 12 2
22 -1 22 -5 1 -4 10 -18 20 -31 16 -18 23 -21 34 -12 11 9 19 9 33 0 15 -9 26
-8 51 5 42 21 42 21 42 -19 0 -19 -4 -35 -9 -35 -5 0 -12 -13 -16 -30 -4 -16
-12 -33 -19 -37 -12 -8 -36 -45 -36 -57 0 -3 18 -18 40 -32 29 -19 37 -30 28
-35 -9 -6 -8 -10 5 -15 10 -4 16 -13 13 -20 -7 -18 4 -45 15 -38 5 3 9 -4 9
-15 0 -14 8 -22 23 -25 32 -5 94 -5 80 1 -28 11 -1 147 33 166 13 7 13 11 2
24 -11 13 -11 17 0 21 25 8 70 60 74 83 l3 24 23 -23 c15 -15 24 -18 26 -10 2
7 6 20 9 29 3 9 0 22 -6 28 -8 8 -7 11 6 11 23 0 21 13 -3 35 -39 35 -13 135
34 135 20 0 26 8 35 45 9 37 9 50 -2 66 -19 26 -7 85 15 83 10 -1 14 4 11 12
-3 8 -12 14 -20 14 -12 0 -14 8 -10 35 5 32 -12 64 -21 37 -9 -27 -62 35 -62
73 0 13 -22 25 -46 25 -8 0 -14 -7 -14 -15 0 -17 -16 -20 -25 -5 -4 6 -11 8
-16 5 -21 -14 -28 8 -8 24 l22 18 -31 -2 c-18 -1 -35 -4 -38 -8 -4 -4 -18 -7
-31 -7 -25 0 -28 -9 -14 -56 8 -28 7 -31 -10 -27 -14 4 -19 0 -19 -17 0 -13
-8 -24 -19 -27 -11 -3 -22 -12 -25 -20 -5 -12 -9 -13 -21 -3 -12 10 -15 9 -15
-5 0 -12 -6 -16 -17 -12 -10 2 -24 6 -32 8 -26 7 -69 54 -73 79 -3 22 1 25 30
25 34 0 42 9 16 19 -10 4 -13 13 -9 27 5 13 3 19 -3 15 -5 -3 -15 1 -22 9 -17
21 -30 19 -30 -5 0 -31 -18 -24 -34 13 -16 38 -63 74 -78 59 -6 -6 -6 -17 1
-31 10 -17 9 -21 -3 -21 -8 0 -18 -9 -21 -21 -5 -16 -12 -19 -28 -14 -12 4
-40 8 -62 9 -22 0 -46 5 -54 10 -19 12 -71 14 -71 2 0 -4 -6 -6 -14 -3 -11 4
-14 -2 -11 -29 3 -30 0 -34 -21 -35 -13 -1 -28 -2 -34 -3 -5 -1 -10 3 -9 8 1
14 -29 28 -42 20 -6 -4 -27 -10 -46 -14 -28 -7 -36 -5 -40 8 -4 10 -19 29 -35
43 -15 14 -28 35 -28 45 0 11 -5 25 -12 32 -8 8 -8 15 0 24 5 7 9 34 7 59 -4
60 -37 97 -96 107 -30 5 -45 13 -47 25 -2 10 3 17 11 17 8 0 18 7 21 16 4 9
13 14 21 10 11 -4 15 2 15 24 0 21 -4 28 -14 24 -8 -3 -17 -1 -21 5 -12 20
-27 12 -19 -11z m714 -378 c0 -5 -7 -7 -15 -4 -8 4 -15 8 -15 10 0 2 7 4 15 4
8 0 15 -4 15 -10z m232 -362 c-9 -9 -12 -7 -12 12 0 19 3 21 12 12 9 -9 9 -15
0 -24z m-298 -53 c6 -16 -3 -19 -28 -9 -9 3 -13 10 -10 15 8 14 31 11 38 -6z
m-1814 -987 c0 -4 -7 -8 -15 -8 -8 0 -15 4 -15 8 0 5 7 9 15 9 8 0 15 -4 15
-9z m94 -68 c13 0 16 5 12 18 -5 14 -4 14 9 -2 34 -44 12 -68 -61 -70 -69 -1
-82 17 -39 60 24 24 27 25 44 10 10 -9 26 -16 35 -16z m-154 -64 c0 -8 -4 -18
-10 -21 -5 -3 -10 -4 -10 -1 0 2 -3 11 -6 20 -4 11 -1 16 10 16 9 0 16 -6 16
-14z m-6 -59 c11 -8 15 -19 10 -30 -6 -17 -7 -17 -26 0 -17 15 -21 15 -28 3
-6 -9 -10 -10 -10 -3 0 6 5 15 10 18 6 4 8 11 5 16 -9 13 18 11 39 -4z m903
-333 c-3 -3 -12 -4 -19 -1 -8 3 -5 6 6 6 11 1 17 -2 13 -5z m2893 -1349 c0 -8
-2 -15 -4 -15 -2 0 -6 7 -10 15 -3 8 -1 15 4 15 6 0 10 -7 10 -15z m-20 -156
c0 -11 -3 -11 -24 -3 -23 9 -20 23 4 17 11 -3 20 -9 20 -14z m-5 -186 c-1 -33
-5 -64 -9 -71 -5 -8 0 -12 13 -12 10 0 21 4 23 9 5 15 72 -18 92 -47 11 -15
16 -24 11 -20 -4 4 -19 -2 -33 -12 -32 -26 -46 -25 -32 0 8 14 8 26 0 40 -13
24 -23 25 -40 5 -18 -22 -28 -19 -65 21 -19 20 -38 33 -44 30 -5 -4 -26 3 -45
15 -36 21 -49 36 -22 26 8 -3 13 1 12 11 -1 12 10 17 44 19 32 3 51 11 65 27
11 13 22 22 25 20 3 -1 5 -29 5 -61z m-940 -163 c3 -5 1 -10 -4 -10 -6 0 -11
5 -11 10 0 6 2 10 4 10 3 0 8 -4 11 -10z m185 -80 c0 -5 -2 -10 -4 -10 -3 0
-8 5 -11 10 -3 6 -1 10 4 10 6 0 11 -4 11 -10z m-859 -336 l24 -27 -23 6 c-15
3 -25 0 -29 -9 -3 -8 -10 -14 -17 -14 -13 0 -47 56 -38 64 15 15 60 4 83 -20z
m329 -174 c0 -5 -2 -10 -4 -10 -3 0 -8 5 -11 10 -3 6 -1 10 4 10 6 0 11 -4 11
-10z m-84 -157 c8 -3 14 -18 14 -34 0 -16 5 -29 10 -29 6 0 10 -5 10 -11 0 -5
-5 -7 -10 -4 -6 3 -13 -1 -16 -9 -7 -18 -34 -22 -34 -6 0 6 -9 10 -19 10 -10
0 -21 7 -25 15 -3 8 -12 15 -21 15 -23 0 -18 11 27 60 40 42 43 44 46 22 2
-13 10 -26 18 -29z m139 -113 c3 -5 2 -10 -4 -10 -5 0 -13 5 -16 10 -3 6 -2
10 4 10 5 0 13 -4 16 -10z m45 -10 c0 -5 -2 -10 -4 -10 -3 0 -8 5 -11 10 -3 6
-1 10 4 10 6 0 11 -4 11 -10z m-240 -25 c14 -17 40 -20 40 -5 0 6 5 10 10 10
21 0 9 -19 -21 -32 -30 -13 -59 -61 -59 -98 0 -21 -48 -34 -67 -18 -9 7 -8 18
4 44 9 19 19 34 22 34 3 0 13 5 21 10 13 8 12 11 -4 23 -19 14 -19 15 2 21 12
4 20 12 17 17 -10 15 22 10 35 -6z m-143 -159 c-1 -32 -2 -33 -39 -32 -21 0
-38 3 -38 6 0 12 25 30 41 30 9 0 19 7 23 15 9 24 14 17 13 -19z m33 -56 c0
-16 -4 -30 -8 -30 -5 0 -7 14 -4 30 2 17 6 30 8 30 2 0 4 -13 4 -30z m120 14
c0 -8 -4 -12 -10 -9 -5 3 -10 10 -10 16 0 5 5 9 10 9 6 0 10 -7 10 -16z m-460
-14 c0 -5 -4 -10 -10 -10 -5 0 -10 5 -10 10 0 6 5 10 10 10 6 0 10 -4 10 -10z
m438 -22 c2 -17 -4 -36 -17 -49 l-20 -22 -25 24 c-33 31 -34 66 -3 72 46 9 62
3 65 -25z m-134 13 c3 -5 -1 -11 -9 -15 -9 -3 -15 0 -15 9 0 16 16 20 24 6z
m-301 -199 c49 -17 62 -34 33 -40 -9 -2 -16 3 -16 11 0 10 -14 18 -40 22 -22
4 -40 11 -40 16 0 12 5 11 63 -9z m127 -12 c14 -8 17 -16 11 -37 -11 -42 -34
-50 -76 -27 -36 19 -36 19 -11 22 15 2 24 7 21 13 -6 9 14 38 28 39 5 0 17 -4
27 -10z"/>
<path d="M10210 13106 c0 -8 5 -18 10 -21 6 -3 10 3 10 14 0 12 -4 21 -10 21
-5 0 -10 -6 -10 -14z"/>
<path d="M10191 13071 c-8 -5 -9 -11 -3 -15 5 -3 12 1 16 9 6 17 6 18 -13 6z"/>
<path d="M10234 12991 c10 -11 15 -25 11 -30 -3 -6 -2 -11 4 -11 5 0 13 5 16
11 8 11 -22 49 -38 49 -6 0 -2 -9 7 -19z"/>
<path d="M9124 12894 c3 -9 6 -20 6 -25 0 -5 7 -9 15 -9 8 0 12 -6 9 -13 -8
-21 24 -43 44 -30 25 15 21 28 -22 62 -43 34 -61 40 -52 15z"/>
<path d="M8564 12463 c3 -8 6 -26 6 -39 0 -38 27 -29 28 10 1 26 -3 35 -19 39
-15 4 -19 2 -15 -10z"/>
<path d="M10046 12351 c-3 -5 1 -14 9 -21 10 -9 15 -9 15 -1 0 6 7 11 16 11 8
0 12 5 9 10 -8 12 -42 13 -49 1z"/>
<path d="M10198 12033 c7 -3 16 -2 19 1 4 3 -2 6 -13 5 -11 0 -14 -3 -6 -6z"/>
<path d="M10362 11978 c5 -15 28 -23 28 -10 0 5 -7 13 -16 16 -10 4 -14 1 -12
-6z"/>
<path d="M10350 11915 c0 -10 7 -15 18 -13 21 4 19 22 -2 26 -10 2 -16 -3 -16
-13z"/>
<path d="M10360 11879 c0 -5 5 -7 10 -4 6 3 10 8 10 11 0 2 -4 4 -10 4 -5 0
-10 -5 -10 -11z"/>
<path d="M8458 11834 c18 -8 -14 -44 -40 -44 -19 0 -25 -34 -10 -56 9 -13 76
-44 96 -44 8 0 24 -10 36 -22 17 -18 20 -19 20 -5 0 11 8 17 21 17 16 0 19 4
14 19 -4 14 0 21 15 26 11 4 20 15 20 26 0 11 -4 17 -10 14 -5 -3 -10 -2 -10
3 0 5 -12 10 -27 10 -17 0 -36 10 -50 26 -13 15 -37 28 -55 31 -18 3 -27 2
-20 -1z"/>
<path d="M8640 11779 c0 -5 5 -7 10 -4 6 3 10 8 10 11 0 2 -4 4 -10 4 -5 0
-10 -5 -10 -11z"/>
<path d="M8356 11721 c-8 -13 3 -38 19 -45 15 -5 30 27 20 44 -8 12 -32 13
-39 1z"/>
<path d="M9095 11000 c3 -5 16 -15 28 -21 22 -12 22 -12 3 10 -19 21 -43 30
-31 11z"/>
<path d="M7776 10941 c-4 -5 -1 -11 5 -13 5 -2 8 -10 4 -18 -4 -11 -17 -14
-50 -12 -28 3 -52 -2 -66 -12 -25 -17 -99 -12 -134 9 -11 7 -36 15 -57 18 -35
5 -36 4 -43 -29 -3 -19 -3 -44 0 -55 6 -18 4 -19 -13 -10 -13 7 -22 7 -30 -1
-18 -18 -15 -25 22 -47 40 -25 53 -26 58 -5 2 13 10 11 48 -9 25 -14 44 -29
43 -35 -1 -5 16 -14 37 -20 29 -7 40 -7 41 2 1 6 5 0 9 -14 6 -17 8 -19 9 -7
1 15 4 16 22 6 15 -8 24 -8 32 0 8 8 17 5 32 -9 25 -23 55 -18 55 10 0 10 6
21 13 24 8 3 5 11 -10 24 -28 25 -28 28 -3 35 17 4 19 11 14 39 -4 18 -11 41
-16 52 -9 16 -7 18 15 12 18 -4 27 -1 31 10 10 27 7 46 -8 41 -7 -3 -23 1 -34
9 -12 8 -23 10 -26 5z"/>
<path d="M11330 10757 c0 -7 4 -17 10 -23 5 -5 6 -15 0 -24 -7 -12 -12 -12
-22 -2 -20 20 -37 15 -30 -10 3 -14 2 -19 -7 -14 -6 4 -9 11 -6 16 3 5 -5 16
-17 24 -17 12 -24 13 -30 3 -12 -19 -9 -27 9 -27 9 0 13 -3 10 -6 -3 -4 -2
-15 4 -26 8 -15 7 -24 -7 -39 -23 -25 -12 -33 48 -36 47 -1 50 0 60 28 5 16
14 26 20 23 5 -3 18 2 29 12 14 12 16 20 8 30 -6 7 -9 21 -8 31 4 33 -12 53
-42 53 -17 0 -29 -5 -29 -13z"/>
<path d="M11360 10611 c0 -23 30 -37 42 -19 11 19 5 31 -20 35 -16 2 -22 -2
-22 -16z"/>
<path d="M11447 10589 c29 -45 50 -46 45 -3 -4 34 0 30 -39 37 l-33 6 27 -40z"/>
<path d="M11497 10516 c-11 -9 -15 -20 -11 -31 4 -9 2 -20 -4 -24 -8 -5 -9
-17 -1 -45 8 -30 7 -41 -4 -54 -22 -26 -30 -61 -17 -77 6 -8 10 -24 8 -36 -2
-16 6 -27 32 -42 59 -33 83 -57 96 -93 10 -30 10 -35 -2 -30 -10 4 -11 1 -4
-12 5 -9 16 -38 26 -64 20 -56 50 -75 112 -72 25 1 45 -3 50 -11 10 -17 49
-28 57 -16 3 6 -1 21 -10 35 -15 22 -15 29 -2 68 16 46 14 58 -9 58 -8 0 -14
5 -14 10 0 6 4 10 9 10 5 0 12 8 15 18 4 9 14 30 23 46 9 17 17 57 18 92 1 35
7 69 14 77 14 18 4 45 -42 107 -32 42 -37 45 -80 45 -31 0 -47 -4 -47 -12 0
-7 -9 -13 -20 -13 -11 0 -20 -4 -20 -8 0 -11 -61 -3 -76 9 -6 5 -18 7 -26 4
-10 -4 -17 2 -21 17 -4 13 -12 31 -19 40 -11 14 -16 15 -31 4z"/>
<path d="M8670 10442 c-55 -8 -62 -47 -10 -54 25 -4 29 -1 33 26 3 17 4 31 3
31 0 1 -12 -1 -26 -3z"/>
<path d="M8618 10352 c-27 -5 -21 -29 8 -36 32 -8 34 -7 20 19 -6 12 -19 19
-28 17z"/>
<path d="M12427 10055 c3 -14 11 -25 19 -25 10 0 11 6 5 22 -11 31 -29 34 -24
3z"/>
<path d="M12367 10043 c-12 -12 -7 -21 14 -26 17 -5 18 -3 7 11 -7 9 -13 18
-14 20 0 1 -4 -1 -7 -5z"/>
<path d="M12003 9772 c-8 -5 -8 -12 3 -27 13 -18 16 -18 30 -3 26 26 -1 50
-33 30z"/>
<path d="M12440 9432 c0 -10 -5 -23 -12 -30 -9 -9 -7 -12 13 -11 43 1 57 12
48 37 -10 27 -49 31 -49 4z"/>
<path d="M11304 9238 c3 -10 -1 -21 -9 -25 -19 -11 -3 -35 18 -27 21 8 22 25
1 50 -13 16 -15 16 -10 2z"/>
<path d="M11340 8340 c0 -5 -7 -10 -16 -10 -9 0 -14 -5 -12 -11 2 -6 7 -10 11
-10 4 1 20 -5 37 -14 31 -16 49 -5 25 15 -8 7 -15 19 -15 26 0 8 -7 14 -15 14
-8 0 -15 -4 -15 -10z"/>
<path d="M11412 8259 c2 -7 10 -15 17 -17 8 -3 12 1 9 9 -2 7 -10 15 -17 17
-8 3 -12 -1 -9 -9z"/>
<path d="M11140 7066 c0 -18 -9 -29 -32 -40 -40 -20 -62 -20 -93 0 -24 16 -25
16 -25 -10 0 -16 -6 -26 -14 -26 -8 0 -13 -8 -12 -17 2 -13 13 -17 44 -18 33
-1 49 -8 75 -33 18 -18 38 -32 44 -32 18 0 79 -62 88 -88 5 -18 12 -22 29 -18
13 3 35 -3 53 -14 l31 -19 16 24 c20 30 20 39 1 55 -10 9 -15 9 -15 1 0 -17
-12 -13 -44 14 -16 14 -34 25 -40 25 -6 0 -3 7 7 14 18 14 18 16 2 40 -11 17
-13 26 -6 26 7 0 10 4 7 9 -3 5 8 11 26 15 30 6 57 30 57 51 0 6 -6 2 -13 -8
-12 -15 -18 -16 -35 -7 -12 6 -28 22 -37 35 -8 13 -30 27 -47 30 -18 4 -40 9
-49 11 -14 4 -18 -1 -18 -20z"/>
<path d="M10935 6957 c-9 -45 -2 -56 21 -32 11 11 13 19 7 23 -6 4 -13 16 -15
27 -3 14 -7 9 -13 -18z"/>
<path d="M10885 6950 c-8 -13 15 -24 27 -12 6 6 4 11 -6 15 -8 3 -18 2 -21 -3z"/>
<path d="M10870 6910 c0 -5 5 -10 10 -10 6 0 10 -4 10 -9 0 -15 -59 -24 -74
-12 -10 8 -17 7 -26 -4 -12 -14 -10 -48 5 -87 5 -13 2 -18 -9 -18 -9 0 -16 -6
-16 -14 0 -8 -8 -21 -19 -28 -10 -7 -21 -22 -25 -33 -4 -11 -36 -38 -71 -60
-65 -40 -71 -46 -58 -59 4 -4 9 -27 10 -52 3 -33 0 -44 -12 -44 -9 0 -12 -6
-9 -15 4 -10 -2 -18 -17 -23 l-23 -9 21 -12 c30 -15 63 -14 63 3 0 8 14 28 30
46 17 18 30 36 30 41 0 6 6 9 13 7 6 -1 26 6 44 15 24 13 38 15 58 7 20 -8 30
-6 50 12 14 12 25 27 25 34 0 6 7 14 15 18 8 3 15 13 15 23 0 10 9 24 20 31
12 7 17 18 13 27 -3 10 -1 15 8 13 7 -2 15 6 17 16 3 14 0 17 -12 13 -8 -3
-18 -2 -21 4 -4 5 -10 7 -15 4 -5 -3 -11 -1 -15 5 -3 6 4 10 16 10 12 0 19 3
16 6 -3 4 -2 15 4 25 8 16 6 19 -15 19 -43 0 -75 50 -41 64 18 7 16 56 -2 56
-7 0 -13 -4 -13 -10z m-25 -60 c3 -5 2 -10 -4 -10 -5 0 -13 5 -16 10 -3 6 -2
10 4 10 5 0 13 -4 16 -10z"/>
<path d="M11377 6749 c7 -7 15 -10 18 -7 3 3 -2 9 -12 12 -14 6 -15 5 -6 -5z"/>
<path d="M11426 6697 c3 -10 9 -15 12 -12 3 3 0 11 -7 18 -10 9 -11 8 -5 -6z"/>
</g>
</svg>
