<?xml version="1.0" standalone="no"?>
<!DOCTYPE svg PUBLIC "-//W3C//DTD SVG 20010904//EN"
 "http://www.w3.org/TR/2001/REC-SVG-20010904/DTD/svg10.dtd">
<svg version="1.0" xmlns="http://www.w3.org/2000/svg"
 width="808.704204pt" height="638.920297pt" viewBox="0 0 808.704204 638.920297"
 preserveAspectRatio="xMidYMid meet">
<metadata>
Created by potrace 1.15, written by Peter Selinger 2001-2017
</metadata>
<g transform="translate(-612.277052,1341.950647) scale(0.100000,-0.100000)"
fill="#222222" stroke="none">
<path d="M7220 13400 c0 -11 7 -20 15 -20 17 0 18 2 9 24 -9 23 -24 20 -24 -4z"/>
<path d="M7556 13333 c-8 -26 -53 -36 -65 -15 -8 14 -14 11 -37 -16 -16 -18
-34 -32 -40 -32 -7 0 -15 -16 -18 -35 -4 -20 -11 -33 -16 -30 -4 3 -6 -4 -3
-15 3 -10 14 -22 24 -25 10 -4 28 -19 39 -36 12 -16 29 -29 39 -29 10 0 26 -9
35 -19 17 -18 16 -19 -11 -24 -62 -11 -124 -7 -129 8 -4 8 -12 15 -19 15 -6 0
-20 9 -29 19 -23 26 -137 64 -149 52 -6 -6 -24 -3 -49 10 -22 11 -47 17 -57
14 -11 -3 -24 2 -32 11 -14 17 -98 74 -109 74 -3 0 -6 -9 -7 -20 -1 -13 4 -20
16 -20 17 0 41 -18 41 -32 0 -4 -18 -6 -39 -4 -29 2 -48 13 -74 39 -20 19 -44
34 -54 34 -13 -2 -19 6 -21 29 -3 26 -7 31 -22 27 -11 -3 -17 -9 -14 -14 3 -5
0 -9 -6 -9 -6 0 -8 -5 -4 -11 3 -6 1 -15 -6 -19 -8 -5 -2 -10 19 -15 24 -5 31
-12 31 -31 0 -14 6 -24 15 -24 27 0 65 -23 65 -40 0 -10 -6 -17 -12 -17 -7 1
-32 -7 -55 -17 -33 -14 -46 -28 -68 -72 -14 -29 -24 -58 -21 -63 4 -5 -5 -22
-18 -38 -13 -15 -25 -37 -27 -48 -2 -11 -15 -25 -29 -32 -21 -10 -22 -13 -7
-19 18 -7 24 -44 6 -44 -5 0 -7 -4 -4 -10 11 -18 -15 -51 -35 -45 -14 4 -23
-2 -34 -24 -9 -17 -16 -37 -16 -46 0 -8 -4 -15 -10 -15 -9 0 -6 -77 4 -87 9
-9 -14 -44 -25 -37 -15 9 -61 -25 -55 -42 3 -8 9 -21 12 -29 4 -10 0 -15 -11
-15 -9 0 -13 4 -10 10 3 6 -1 7 -10 4 -13 -5 -13 -9 -3 -23 7 -9 19 -20 26
-24 6 -4 12 -17 12 -27 0 -11 4 -20 9 -20 9 0 24 -38 22 -54 -3 -15 10 -46 19
-46 5 0 25 -16 44 -35 25 -25 44 -35 66 -35 34 0 56 -20 103 -89 22 -32 33
-40 48 -36 11 4 26 2 34 -5 9 -8 15 -8 20 0 4 7 23 -7 47 -35 28 -32 44 -43
52 -36 18 15 59 -52 54 -88 -3 -21 0 -32 11 -36 13 -5 13 -8 2 -14 -9 -6 -12
-20 -7 -47 3 -22 7 -49 9 -61 1 -12 8 -28 15 -35 15 -15 16 -68 0 -68 -6 0 -3
-8 7 -20 10 -11 15 -28 12 -40 -5 -19 2 -24 29 -21 6 1 16 -17 23 -39 6 -21
16 -42 21 -45 6 -3 7 1 4 9 -5 12 0 16 20 16 20 0 26 5 26 21 0 16 4 19 18 14
52 -21 73 -23 102 -9 35 18 59 54 36 54 -16 0 -31 34 -21 50 3 5 14 10 23 10
18 1 72 28 60 31 -5 1 -13 2 -20 3 -18 2 -22 26 -4 26 23 0 43 47 28 62 -7 7
-12 20 -12 30 0 11 -7 18 -19 18 -24 0 -39 39 -20 51 8 5 10 9 4 9 -5 0 4 11
20 24 l30 24 -22 22 c-13 11 -23 25 -23 30 0 5 -8 11 -17 14 -15 5 -18 17 -18
65 0 51 -4 64 -27 88 -16 16 -28 37 -28 46 0 9 -3 17 -7 17 -5 0 -23 13 -42
29 -19 17 -38 28 -41 26 -4 -3 -16 2 -26 10 -19 15 -19 15 0 30 17 13 21 13
33 -3 8 -9 12 -11 8 -4 -4 7 0 12 9 12 9 0 16 9 16 20 0 19 2 19 23 5 26 -17
37 -12 37 18 0 13 5 17 15 13 9 -3 24 0 35 6 16 10 25 8 51 -11 l32 -24 17 23
16 22 17 -26 c9 -14 17 -30 17 -35 0 -15 41 -51 69 -62 19 -8 27 -6 38 11 17
24 41 26 39 3 0 -10 6 -19 16 -21 24 -5 34 52 14 82 -14 23 -14 24 6 18 18 -4
19 -3 8 17 -6 13 -9 25 -7 28 3 2 -3 13 -14 24 -11 11 -16 25 -12 36 6 15 7
15 15 -3 5 -11 31 -28 60 -38 32 -11 52 -25 55 -37 5 -19 43 -27 43 -9 0 17
21 11 39 -12 14 -17 29 -21 74 -22 32 -1 57 3 57 7 0 5 8 6 18 2 11 -3 29 3
45 15 14 11 32 20 40 20 9 0 19 5 22 10 3 6 15 10 26 10 10 0 24 9 31 20 7 11
18 20 25 20 6 0 13 6 16 13 3 9 7 9 20 -1 14 -12 17 -9 23 22 5 29 11 36 30
36 12 0 26 5 30 11 4 6 19 9 36 5 l31 -6 -5 50 c-5 52 -3 56 22 40 10 -6 21
-3 38 13 16 15 33 21 57 18 29 -2 36 2 49 27 9 17 21 33 28 36 7 3 0 4 -16 2
-22 -3 -37 3 -58 24 -15 16 -28 33 -28 39 0 7 -12 16 -26 21 -14 6 -40 21 -58
35 -18 14 -38 25 -44 25 -15 0 -16 32 -1 47 8 8 -18 40 -93 117 l-104 105 -28
-14 c-26 -14 -34 -13 -100 10 -83 29 -99 30 -115 11 -12 -14 -51 -11 -51 5 0
5 -22 32 -50 61 -27 29 -50 56 -50 59 0 4 -16 17 -35 29 -19 12 -32 27 -29 32
4 7 2 8 -4 4 -7 -4 -12 -2 -12 5 0 8 -11 10 -35 6 -26 -4 -37 -2 -44 10 -7 14
-9 14 -15 -4z m-461 -853 c3 -5 1 -10 -4 -10 -6 0 -11 5 -11 10 0 6 2 10 4 10
3 0 8 -4 11 -10z m-57 -85 c-3 -3 -9 2 -12 12 -6 14 -5 15 5 6 7 -7 10 -15 7
-18z"/>
<path d="M7236 13295 c3 -52 4 -55 18 -55 15 0 28 -24 19 -34 -4 -3 -7 -16 -9
-29 -3 -26 46 -60 71 -51 18 7 20 24 2 24 -25 0 -35 34 -26 85 8 43 7 52 -10
69 -11 11 -30 20 -43 20 -19 1 -23 -3 -22 -29z"/>
<path d="M7330 13261 c0 -15 31 -42 41 -36 13 9 12 11 -16 29 -14 9 -25 12
-25 7z"/>
<path d="M8811 12796 c-6 -7 -41 -17 -76 -21 -36 -3 -71 -12 -78 -19 -7 -8
-22 -16 -34 -20 -44 -14 -47 -31 -16 -92 16 -33 41 -65 58 -75 17 -11 30 -22
31 -26 0 -5 3 -15 7 -23 3 -8 7 -24 9 -35 2 -12 12 -21 26 -23 12 -2 22 -9 23
-15 1 -7 2 -20 3 -29 0 -10 6 -18 11 -18 12 0 13 157 1 183 -7 14 -3 17 20 17
40 0 57 13 50 38 -4 13 -1 22 9 26 9 3 13 11 10 16 -4 6 -2 16 3 23 6 7 12 26
14 42 2 20 8 30 19 29 11 -1 15 5 12 17 -6 22 -8 23 -35 8 -14 -8 -23 -8 -31
0 -14 14 -22 14 -36 -3z"/>
<path d="M6128 12718 c9 -9 15 -9 24 0 9 9 7 12 -12 12 -19 0 -21 -3 -12 -12z"/>
<path d="M6180 12713 c0 -4 5 -15 10 -23 8 -13 10 -13 10 2 0 9 -4 20 -10 23
-5 3 -10 3 -10 -2z"/>
<path d="M6190 12661 c0 -5 7 -14 15 -21 13 -10 15 -9 15 9 0 12 -6 21 -15 21
-8 0 -15 -4 -15 -9z"/>
<path d="M6220 12606 c0 -2 7 -9 15 -16 9 -7 15 -8 15 -2 0 5 -7 12 -15 16 -8
3 -15 4 -15 2z"/>
<path d="M6310 12569 c0 -6 -7 -9 -15 -5 -9 3 -15 0 -15 -9 0 -8 6 -15 14 -15
8 0 28 -11 44 -25 32 -27 42 -31 42 -15 0 6 -6 10 -12 10 -17 1 -51 48 -43 60
3 6 1 10 -4 10 -6 0 -11 -5 -11 -11z"/>
<path d="M8725 12320 c-12 -19 9 -66 47 -108 21 -23 36 -47 33 -52 -3 -6 0
-19 8 -30 12 -18 14 -14 12 38 -1 54 -17 102 -33 102 -4 0 -16 14 -25 30 -19
31 -31 37 -42 20z"/>
<path d="M7583 12247 c4 -10 7 -23 7 -28 0 -5 5 -9 10 -9 16 0 12 26 -7 41
-15 12 -16 12 -10 -4z"/>
<path d="M8776 12034 c-11 -8 -34 -14 -50 -14 -22 0 -27 -3 -17 -9 8 -5 24 -6
37 -1 12 5 24 6 27 3 10 -9 36 12 29 24 -5 8 -12 8 -26 -3z"/>
<path d="M8542 12014 c-16 -11 -27 -13 -35 -5 -7 5 -45 9 -85 8 -60 -2 -71 -5
-66 -17 18 -43 14 -52 -40 -119 -33 -41 -54 -75 -51 -83 3 -8 -1 -21 -10 -28
-15 -13 -21 -71 -7 -84 4 -4 8 -17 9 -29 1 -12 5 -36 9 -54 4 -24 0 -39 -17
-62 -13 -17 -28 -30 -34 -28 -5 3 -10 -9 -11 -25 -1 -16 -11 -42 -23 -58 -11
-16 -21 -40 -21 -53 0 -42 -27 -105 -62 -143 -18 -19 -37 -42 -41 -50 -5 -8
-12 -12 -18 -9 -5 4 -9 -5 -9 -18 0 -16 -7 -26 -18 -29 -13 -4 -19 -15 -20
-39 0 -18 -5 -35 -11 -37 -6 -2 -6 -12 1 -28 9 -19 9 -30 1 -43 -9 -14 -9 -21
0 -30 9 -9 9 -14 1 -19 -6 -4 -14 -17 -18 -28 -4 -12 -15 -24 -25 -27 -14 -3
-18 -14 -18 -46 0 -26 -7 -49 -18 -61 -20 -22 -20 -22 9 -37 15 -8 26 -7 43 4
21 14 44 13 86 -3 12 -4 14 0 10 14 -4 15 2 20 26 25 20 4 35 15 40 29 5 13
18 32 30 42 11 11 21 27 21 38 0 19 21 24 48 9 15 -8 17 -3 15 35 -1 24 -5 48
-8 54 -3 5 3 10 14 10 12 0 21 7 21 15 0 17 16 20 26 4 4 -6 19 -9 36 -5 16 3
38 1 48 -4 14 -7 21 -6 27 4 10 18 79 24 94 9 9 -9 19 -9 40 3 16 8 29 18 29
23 0 17 50 61 70 61 23 0 26 -10 8 -28 -9 -9 -8 -21 2 -51 7 -21 10 -51 6 -65
-5 -22 -12 -26 -41 -26 -31 0 -35 -3 -35 -25 0 -18 -4 -23 -15 -19 -10 4 -15
0 -15 -10 0 -11 -18 -25 -46 -37 -25 -11 -50 -30 -55 -42 -17 -36 -86 -79
-136 -85 -34 -4 -47 -10 -51 -24 -3 -14 -10 -17 -26 -12 -29 9 -29 9 -53 1
-14 -5 -32 -1 -55 13 -46 28 -67 26 -74 -8 -5 -23 -11 -29 -32 -29 -78 1 -112
-4 -112 -15 0 -28 -17 -40 -37 -30 -12 7 -24 7 -29 2 -5 -5 -24 -10 -43 -12
-19 -2 -37 -10 -41 -18 -4 -8 -14 -28 -21 -44 -8 -16 -28 -35 -44 -42 -17 -7
-39 -22 -49 -33 -22 -25 -58 -27 -76 -6 -7 9 -29 15 -52 15 -22 0 -48 5 -59
10 -15 9 -21 7 -25 -5 -8 -20 -63 -20 -70 0 -4 8 -10 13 -14 10 -4 -3 -10 2
-13 10 -5 12 -12 12 -39 3 -18 -6 -36 -16 -40 -22 -4 -7 -16 -2 -32 13 -15 14
-39 24 -63 25 -21 1 -46 6 -55 10 -14 6 -18 3 -18 -14 0 -22 -3 -23 -58 -17
-50 4 -60 2 -70 -14 -7 -10 -19 -19 -26 -19 -8 0 -17 -6 -19 -12 -3 -7 -6 -2
-6 11 -1 14 5 32 13 40 7 9 16 30 19 48 5 26 2 35 -16 48 -12 8 -31 15 -43 15
-11 0 -24 3 -28 7 -4 4 -18 9 -31 10 -19 3 -23 0 -19 -12 5 -11 0 -18 -14 -22
-24 -6 -35 -39 -21 -64 5 -10 9 -26 9 -37 0 -11 7 -25 15 -32 9 -7 27 -38 42
-67 24 -51 24 -55 7 -67 -13 -10 -17 -25 -16 -62 1 -26 7 -53 12 -58 6 -6 10
-18 10 -27 0 -9 7 -22 15 -29 8 -7 15 -23 15 -35 0 -14 15 -37 35 -56 20 -19
35 -43 35 -56 0 -17 6 -23 23 -23 25 0 65 -35 54 -46 -4 -4 3 -20 14 -35 21
-30 47 -37 65 -19 19 19 46 -12 39 -43 -4 -14 -10 -26 -14 -25 -28 3 -43 -4
-37 -18 3 -8 1 -24 -5 -35 -7 -15 -7 -24 1 -34 6 -7 9 -17 8 -23 -2 -5 14 -28
35 -51 32 -34 41 -40 53 -30 11 9 21 9 40 0 14 -6 30 -8 36 -5 6 4 17 -1 24
-10 7 -10 15 -17 18 -17 3 1 15 1 26 1 20 0 20 -1 4 -25 -9 -14 -25 -25 -36
-25 -15 0 -18 -5 -13 -19 4 -15 -1 -24 -22 -35 l-28 -15 28 -1 c18 0 27 -5 27
-16 0 -8 -5 -12 -10 -9 -7 4 -9 -2 -4 -19 7 -31 -10 -56 -39 -56 -40 0 -9 -11
44 -15 33 -3 56 -1 60 6 13 21 27 -1 24 -36 -2 -19 -6 -39 -9 -44 -12 -19 6
-69 30 -80 21 -9 24 -8 24 9 0 19 5 19 90 13 75 -5 90 -4 90 8 0 12 13 14 65
11 61 -4 65 -3 65 17 0 12 6 21 15 21 22 0 68 75 61 98 -6 18 -2 19 53 16 33
-2 63 1 66 6 3 6 14 10 24 10 14 0 20 10 25 40 6 40 31 55 42 26 3 -8 13 -12
23 -9 10 3 31 -6 47 -20 l29 -25 -27 -25 -27 -25 43 -36 c24 -19 47 -48 51
-63 9 -38 32 -62 55 -56 15 4 21 -2 26 -23 7 -30 31 -64 46 -64 16 0 8 19 -12
25 -11 4 -20 15 -20 26 0 16 4 19 23 13 42 -12 59 -36 55 -76 -4 -38 1 -43 42
-40 8 0 27 -21 42 -49 16 -27 25 -49 20 -49 -4 0 -17 -22 -30 -49 -12 -27 -28
-51 -36 -54 -8 -3 -12 -15 -9 -31 3 -16 -3 -36 -16 -55 -12 -16 -21 -40 -21
-54 0 -16 -7 -28 -19 -32 -10 -3 -21 -18 -24 -34 -4 -18 -15 -32 -27 -36 -11
-3 -20 -13 -20 -20 0 -8 -6 -12 -14 -9 -18 7 -28 -23 -15 -47 6 -11 16 -40 24
-65 11 -37 11 -46 0 -50 -11 -5 -73 -1 -100 6 -24 6 -33 -1 -27 -22 3 -14 1
-19 -6 -14 -7 4 -14 -4 -18 -21 -12 -55 -16 -63 -30 -63 -10 0 -14 -12 -14
-38 0 -26 -7 -45 -20 -57 -11 -10 -20 -26 -20 -35 0 -10 -7 -20 -15 -24 -9 -3
-15 -18 -15 -36 0 -16 -4 -30 -8 -30 -5 0 -16 -6 -25 -13 -21 -15 -33 -110
-19 -147 7 -18 5 -33 -5 -54 -8 -16 -16 -46 -17 -66 -2 -43 -21 -72 -44 -68
-9 2 -22 -9 -30 -24 -7 -16 -23 -33 -35 -40 -12 -6 -27 -18 -33 -26 -7 -10
-19 -13 -37 -8 -15 3 -29 1 -32 -5 -4 -6 -18 -8 -31 -5 -36 10 -31 -26 10 -66
26 -26 35 -44 41 -85 6 -47 5 -52 -15 -58 -26 -8 -22 -23 15 -49 20 -15 29
-18 32 -8 8 21 23 13 23 -13 0 -15 6 -25 15 -25 8 0 19 -9 25 -19 12 -24 13
-71 1 -71 -5 0 -7 -8 -5 -17 3 -10 -7 -30 -21 -45 -14 -15 -28 -41 -31 -57 -4
-20 -11 -28 -20 -24 -15 5 -14 -15 0 -49 6 -13 13 -15 37 -6 16 5 29 14 29 19
0 5 6 9 14 9 8 0 17 8 21 19 10 33 64 73 90 67 14 -4 27 0 35 9 15 18 30 11
30 -15 0 -26 28 -33 35 -9 9 28 64 54 86 41 14 -9 18 -7 23 11 3 12 6 32 6 45
0 12 5 22 10 22 23 0 7 22 -25 36 -29 12 -35 19 -35 44 0 18 6 33 15 36 8 4
13 10 10 14 -3 5 -1 11 3 14 5 3 7 27 5 53 -8 94 -7 121 7 139 8 9 14 25 12
36 -2 10 1 18 6 18 5 0 13 16 17 36 l6 36 20 -21 20 -21 24 25 c14 13 25 31
25 38 0 8 7 18 16 21 10 4 13 13 9 26 -5 16 -2 20 15 20 14 0 24 8 27 21 6 21
7 21 20 4 13 -19 18 -10 13 24 -1 13 1 13 14 2 9 -7 13 -17 10 -22 -3 -5 -1
-9 3 -9 5 0 17 14 27 30 20 35 9 60 -25 60 -20 0 -21 3 -23 60 -1 33 1 35 25
32 15 -2 32 3 40 11 14 14 49 12 49 -4 0 -5 4 -9 10 -9 5 0 6 7 3 17 -4 10 -2
14 4 10 13 -8 24 18 17 38 -4 9 0 15 8 15 16 0 18 37 4 59 -6 9 -4 18 5 25 18
14 39 61 39 86 0 15 7 20 25 20 24 0 25 2 13 23 -22 40 -18 48 13 26 16 -11
27 -24 24 -29 -3 -5 0 -20 6 -34 9 -19 9 -29 0 -40 -10 -12 -9 -21 4 -45 8
-17 22 -31 30 -31 15 0 20 -17 16 -58 -1 -16 4 -25 18 -29 15 -4 21 -14 21
-34 0 -15 -4 -31 -10 -34 -5 -3 -10 -1 -10 6 0 8 -6 6 -18 -4 -10 -10 -26 -17
-34 -17 -9 0 -18 -10 -22 -23 -4 -19 -11 -23 -34 -19 -24 3 -32 -3 -55 -35
-28 -41 -34 -68 -17 -78 6 -4 8 -11 5 -16 -4 -5 3 -9 13 -9 21 0 36 -25 26
-41 -3 -5 6 -13 21 -19 22 -8 49 -48 40 -58 -2 -2 -21 15 -43 38 -23 23 -43
36 -47 30 -4 -7 -12 -7 -26 0 -15 8 -19 7 -19 -4 0 -8 -16 -28 -36 -44 l-35
-29 27 -22 c15 -12 30 -18 33 -13 6 9 24 8 69 -3 13 -3 30 -1 38 6 11 9 18 8
32 -5 31 -27 90 -21 123 14 16 16 29 35 29 41 0 8 4 8 15 -1 15 -12 55 -5 55
10 0 14 55 40 84 40 14 0 28 5 31 10 3 6 40 10 81 10 72 0 74 1 74 24 0 14 7
31 15 40 8 8 15 17 15 20 0 3 8 14 18 24 19 19 112 29 112 12 0 -24 38 -8 50
20 7 17 19 30 27 30 8 0 11 5 8 10 -13 22 25 8 43 -15 11 -14 25 -25 31 -25
14 0 14 -33 0 -47 -8 -8 -8 -13 0 -17 6 -4 11 -22 11 -41 0 -19 5 -37 10 -40
6 -3 10 -14 10 -25 0 -14 -5 -17 -22 -12 -15 4 -19 2 -14 -7 5 -7 5 -28 2 -47
-6 -27 -12 -34 -30 -34 -31 0 -57 -31 -65 -77 -9 -51 -3 -83 15 -83 9 0 22 -7
31 -16 14 -14 14 -17 -5 -30 -18 -12 -20 -19 -12 -40 6 -14 10 -36 10 -49 0
-17 10 -27 38 -41 20 -9 31 -19 24 -22 -15 -5 -6 -22 13 -22 8 0 37 -13 65
-30 28 -16 57 -30 65 -30 8 0 15 -5 15 -12 0 -9 3 -9 12 0 7 7 21 12 32 12 12
0 33 6 47 14 29 15 131 5 156 -15 16 -14 87 -2 137 23 38 19 38 19 60 -1 13
-12 25 -18 28 -15 16 15 80 22 103 10 18 -10 40 -9 107 2 86 15 139 17 196 9
30 -5 35 -2 44 24 5 16 16 29 23 29 8 0 15 13 17 31 2 26 10 34 43 46 22 8 59
15 83 14 39 -2 42 0 42 24 0 14 5 25 10 25 24 0 80 -30 80 -42 0 -8 14 -22 30
-31 31 -19 42 -61 18 -69 -10 -4 -10 -11 0 -33 15 -33 2 -48 -36 -42 -18 4
-22 1 -17 -12 4 -9 8 -20 9 -26 1 -5 5 -16 10 -23 4 -7 2 -19 -4 -27 -20 -24
4 -43 52 -41 60 4 67 26 21 71 -21 21 -30 35 -21 32 9 -3 22 1 29 9 10 13 14
12 30 -2 10 -9 17 -21 16 -28 -1 -6 5 -9 13 -7 8 2 22 3 30 2 8 -1 37 -2 63
-2 43 0 48 -3 44 -19 -3 -11 1 -21 10 -24 9 -4 13 -13 9 -22 -7 -19 10 -44 30
-44 8 0 16 11 20 25 5 19 11 24 24 20 10 -3 20 0 23 8 3 8 27 18 54 21 93 14
120 25 127 51 4 14 13 25 21 25 8 0 15 5 15 10 0 6 7 10 15 10 8 0 15 5 15 12
0 6 9 21 20 33 11 12 22 36 23 54 1 23 8 33 24 37 12 3 32 21 44 39 14 20 29
31 39 28 11 -3 19 3 23 16 3 14 13 21 29 21 27 0 68 37 68 62 0 9 7 21 15 28
9 8 13 21 9 33 -3 10 0 30 7 43 11 21 9 30 -11 66 l-23 41 24 18 c13 10 21 19
16 19 -13 0 45 59 64 65 13 4 19 16 19 36 0 24 4 29 25 29 14 0 28 6 31 14 3
8 19 18 35 21 27 6 89 75 89 100 0 7 14 9 36 7 52 -6 81 13 88 59 7 41 24 50
46 24 7 -8 17 -15 23 -15 6 0 2 6 -9 14 -21 16 -18 18 37 30 29 6 43 -11 33
-39 -4 -8 -1 -15 6 -15 7 0 10 -6 7 -14 -3 -8 1 -17 9 -20 8 -3 14 1 14 10 0
12 4 13 21 3 20 -10 21 -9 14 21 -7 30 -6 31 21 24 16 -4 42 -7 59 -7 16 0 40
-8 52 -19 31 -29 72 -5 63 37 -1 6 -3 16 -4 24 -2 8 -11 20 -22 28 -10 8 -19
19 -19 26 0 6 -13 18 -29 25 -23 11 -30 12 -36 2 -14 -22 -38 -4 -33 24 5 23
2 26 -25 26 -17 0 -38 -7 -47 -16 -11 -11 -29 -15 -65 -12 -35 2 -50 -1 -50
-9 0 -15 -14 -16 -57 -4 -22 7 -33 6 -37 -2 -2 -7 -5 -4 -5 6 -1 9 4 17 9 17
6 0 10 7 10 15 0 17 -16 20 -25 5 -11 -18 -50 -10 -67 15 -15 20 -16 26 -4 38
17 16 9 33 -18 38 -10 2 -23 15 -27 28 -8 21 -7 23 16 17 30 -8 30 -5 8 56
-17 49 -11 76 11 45 7 -9 22 -17 34 -17 13 0 22 -9 26 -24 4 -17 15 -25 40
-30 19 -4 39 -13 45 -20 15 -18 109 -30 126 -16 10 8 16 7 24 -7 9 -16 10 -16
11 6 0 19 4 22 23 17 18 -4 32 3 58 30 29 30 39 35 67 30 24 -4 32 -1 32 11 0
12 8 14 38 9 204 -35 225 -36 251 -12 18 17 19 17 26 -3 3 -12 10 -21 15 -21
5 0 12 -17 15 -37 12 -70 13 -71 64 -78 54 -7 84 -32 95 -77 4 -20 17 -32 42
-43 20 -8 46 -27 57 -42 29 -36 55 -106 56 -146 0 -52 4 -71 17 -84 17 -17 24
-16 24 4 0 13 8 9 33 -15 18 -18 41 -32 50 -32 9 0 17 -7 17 -16 0 -14 -3 -14
-15 -4 -9 7 -18 10 -21 7 -10 -10 46 -39 65 -34 12 3 22 -1 25 -10 3 -8 10
-11 16 -8 6 4 8 10 5 15 -3 5 3 18 15 30 11 11 20 27 20 36 0 11 6 13 19 9 14
-4 29 4 52 30 18 19 40 35 51 35 10 0 18 5 18 11 0 7 14 8 39 4 24 -4 42 -2
46 4 3 7 -2 11 -15 11 -12 0 -18 4 -15 11 4 6 -2 13 -14 16 -21 5 -29 23 -11
23 19 0 76 -27 93 -44 9 -10 17 -13 17 -7 0 6 7 11 15 11 9 0 19 8 22 18 4 9
14 24 23 32 9 8 22 27 28 42 9 21 8 27 -4 32 -19 7 -18 26 1 26 8 0 15 8 15
19 0 10 7 24 15 31 8 7 15 23 15 36 0 15 6 24 15 24 23 0 18 25 -7 43 -22 14
-22 17 -8 44 12 21 24 29 49 31 35 4 37 -1 17 -49 -5 -12 0 -18 20 -22 47 -9
103 4 109 24 4 11 13 19 20 19 8 0 20 9 28 21 9 12 18 16 21 10 4 -5 13 -8 21
-5 25 10 -5 46 -33 39 -18 -4 -22 -2 -20 12 2 13 -2 17 -17 15 -16 -3 -17 -1
-8 9 16 16 -1 49 -25 49 -9 0 -23 10 -31 21 -10 17 -15 19 -21 9 -7 -11 -16
-11 -49 2 -37 15 -41 15 -57 -3 -9 -10 -14 -25 -11 -34 5 -11 0 -15 -19 -15
-33 0 -52 42 -22 50 20 5 20 5 0 30 -19 24 -21 24 -39 7 -11 -9 -30 -17 -42
-17 -28 0 -68 -26 -104 -67 -16 -18 -36 -33 -44 -33 -10 0 -13 -5 -8 -17 4
-10 9 -24 12 -30 3 -7 1 -13 -5 -13 -6 0 -12 5 -14 11 -6 18 -58 -12 -58 -33
0 -22 -4 -22 -35 -2 -23 15 -23 14 -19 -8 5 -23 5 -23 -10 2 -20 33 -21 89 -1
96 8 4 12 10 9 15 -3 5 0 9 5 9 6 0 11 7 11 15 0 8 8 15 17 15 14 0 13 3 -5
20 -12 12 -22 25 -22 29 0 5 -15 12 -32 16 -18 4 -36 9 -40 10 -5 1 -11 4 -15
5 -5 1 -18 1 -31 0 -29 -2 -102 72 -96 97 5 23 -3 34 -49 65 -44 30 -93 91
-77 96 7 3 5 11 -6 23 -16 18 -16 19 6 19 22 0 23 1 5 20 -16 18 -16 20 -2 20
10 0 17 6 17 13 0 6 14 25 30 41 l30 29 -21 33 c-25 41 -18 79 13 71 26 -7 48
2 48 19 0 8 9 13 22 11 26 -2 72 58 63 82 -4 9 -8 32 -11 51 -3 27 -2 32 8 22
20 -20 30 -13 14 10 -18 26 -22 83 -5 72 7 -4 10 3 9 17 -4 40 -1 47 30 82 18
21 32 50 36 78 4 24 11 50 17 57 12 15 13 15 -47 -3 -27 -8 -50 -14 -51 -13
-16 32 -22 58 -15 63 6 4 10 16 10 27 0 12 6 29 14 37 19 21 10 121 -11 121
-7 0 -16 7 -19 15 -5 12 -10 13 -20 4 -11 -9 -14 -6 -14 15 0 19 -5 26 -19 26
-10 0 -22 7 -25 16 -4 10 -15 14 -33 12 -24 -3 -28 -7 -26 -31 1 -18 -2 -27
-10 -24 -7 3 -11 8 -10 13 1 5 -14 10 -33 11 -19 2 -34 -1 -34 -5 0 -5 -12
-15 -27 -23 -16 -7 -38 -20 -51 -28 -22 -13 -22 -15 -5 -33 16 -18 16 -19 -6
-25 -20 -5 -22 -10 -16 -39 3 -19 2 -34 -3 -34 -14 0 -53 46 -45 53 3 4 -5 7
-19 7 -17 0 -27 -7 -31 -20 -7 -26 -50 -27 -74 -2 -22 23 -53 35 -53 21 0 -7
-12 -9 -29 -7 -17 2 -28 1 -25 -4 8 -13 -38 -47 -63 -48 -12 0 -25 5 -29 11
-4 8 -9 7 -15 -2 -6 -10 -10 -9 -15 6 -4 11 -22 34 -39 52 -41 40 -50 62 -27
70 30 12 42 36 23 49 -11 9 -20 9 -28 2 -18 -14 -16 -2 3 27 9 14 20 22 25 19
5 -3 9 2 9 10 0 9 9 16 20 16 11 0 20 4 20 10 0 5 -6 7 -12 5 -7 -3 -24 4 -38
14 -20 16 -22 21 -11 35 8 10 11 28 8 45 -4 19 -2 31 6 35 7 2 4 5 -5 5 -11 1
-18 9 -18 22 0 14 -5 19 -14 16 -7 -3 -19 0 -25 6 -8 8 -11 8 -11 0 0 -16 -57
43 -64 65 -8 23 -63 65 -76 57 -6 -3 -10 -12 -10 -20 0 -8 -10 -21 -22 -29
-22 -15 -38 -13 -38 5 0 6 5 7 11 4 6 -4 1 11 -10 33 -23 45 -41 55 -74 43
-26 -10 -43 -5 -76 20 -27 22 -53 25 -46 6 8 -19 -61 -37 -99 -25 -47 14 -99
41 -104 56 -2 8 9 12 38 12 34 0 50 7 89 40 27 23 58 40 72 40 27 0 49 16 49
37 0 7 -11 13 -24 13 -15 0 -27 7 -30 18 -8 23 -67 56 -76 42 -8 -13 -36 -15
-73 -5 -22 6 -26 4 -21 -8 8 -22 -23 -29 -80 -18 -26 5 -55 7 -65 4 -10 -2
-23 3 -30 11 -8 9 -21 16 -30 16 -10 0 -33 18 -51 40 -47 56 -78 74 -125 72
-35 -2 -42 1 -52 25 -7 15 -13 46 -13 69 0 36 -3 41 -19 37 -22 -6 -66 15
-103 50 -18 16 -29 40 -33 70 l-7 45 -48 -2 c-27 0 -48 -5 -47 -10 1 -5 -4
-11 -12 -14 -8 -3 -11 0 -7 6 4 6 -2 15 -12 21 -24 13 -59 96 -37 87 17 -6 19
2 6 23 -5 7 -13 11 -19 7 -5 -3 -12 3 -15 14 -4 16 -14 20 -47 20 -34 0 -40 3
-32 13 8 9 5 24 -13 55 -23 41 -23 42 -3 42 14 0 18 5 14 16 -4 9 -2 22 4 29
7 9 6 16 -5 25 -8 7 -15 23 -15 36 0 15 -9 27 -27 36 -20 10 -28 21 -27 37 1
15 -11 34 -29 51 -28 25 -29 28 -17 62 12 32 11 40 -14 91 -14 31 -26 73 -26
95 0 36 -3 41 -31 51 -24 8 -29 15 -24 31 5 15 2 20 -13 20 -20 0 -36 25 -27
40 3 4 -2 10 -10 14 -8 3 -15 12 -15 20 0 8 -6 16 -12 18 -17 6 -37 -14 -30
-31 4 -11 0 -13 -17 -8 -20 5 -22 3 -17 -18 5 -20 2 -24 -21 -27 -23 -2 -27
-7 -25 -25 2 -16 -2 -23 -13 -23 -9 0 -23 -7 -32 -16 -9 -8 -25 -14 -37 -12
-11 2 -29 -4 -38 -12 -21 -17 -137 -23 -156 -8 -9 8 -18 6 -31 -6 -10 -9 -25
-14 -32 -11 -8 3 -24 -4 -36 -15 -26 -24 -58 -26 -67 -5 -3 8 -14 15 -25 15
-11 0 -23 5 -26 10 -3 6 -17 10 -31 10 -14 0 -34 5 -45 10 -16 9 -19 7 -19
-15 0 -14 -4 -25 -10 -25 -5 0 -7 -7 -4 -15 10 -25 -16 -73 -42 -79 -14 -4
-24 -14 -24 -24 0 -21 -19 -42 -37 -42 -8 0 -23 -8 -34 -19 -11 -10 -47 -28
-81 -39 -53 -18 -64 -19 -87 -8 -24 13 -84 22 -103 16 -5 -1 -12 -3 -17 -4 -5
0 -12 -4 -16 -7 -9 -10 -84 1 -133 19 -30 10 -39 18 -30 23 7 5 9 9 4 9 -5 0
-3 7 5 16 15 18 20 69 5 54 -6 -6 -17 -5 -30 2 -16 9 -22 7 -34 -11 -18 -27
-36 -26 -97 4 -27 13 -56 25 -63 25 -7 0 -18 11 -24 25 -7 16 -19 25 -33 25
-30 0 -34 7 -24 43 6 23 5 37 -6 54 -8 12 -15 37 -15 55 0 45 -7 52 -65 68
-27 7 -60 22 -71 32 -15 13 -24 16 -29 8 -4 -6 -20 -8 -41 -4 -19 3 -34 2 -34
-3 0 -5 -31 -8 -70 -7 -38 0 -67 -3 -64 -8 3 -4 1 -8 -4 -8 -6 0 -12 6 -15 14
-4 10 -18 13 -43 11 -25 -3 -41 1 -48 11 -10 13 -14 12 -34 -2z m173 -54 c3
-5 1 -10 -4 -10 -6 0 -11 5 -11 10 0 6 2 10 4 10 3 0 8 -4 11 -10z m2159 -446
c17 -7 22 -34 6 -34 -5 0 -14 9 -20 20 -12 22 -10 23 14 14z m-2279 -234 c3
-5 -1 -10 -10 -10 -9 0 -13 5 -10 10 3 6 8 10 10 10 2 0 7 -4 10 -10z m-607
-958 c4 -24 21 -29 41 -9 10 10 11 3 9 -34 l-3 -47 -27 19 c-30 22 -53 25 -41
7 4 -7 8 -16 9 -20 1 -5 2 -11 3 -14 0 -4 8 -1 16 6 20 16 26 10 27 -29 1 -37
0 -38 -32 -43 -14 -1 -28 -7 -31 -12 -4 -5 -10 5 -14 22 -8 39 -33 62 -45 42
-7 -11 -11 -12 -25 0 -13 11 -18 10 -28 -5 -13 -16 -15 -16 -39 6 -36 33 -47
104 -18 119 16 9 20 8 20 -5 0 -10 10 -15 31 -15 17 0 28 -4 24 -10 -3 -5 1
-10 9 -10 9 0 16 4 16 9 0 8 56 25 72 22 4 0 4 7 1 15 -4 12 -2 15 8 12 8 -2
15 -14 17 -26z m-228 8 c0 -5 -7 -7 -15 -4 -8 4 -15 8 -15 10 0 2 7 4 15 4 8
0 15 -4 15 -10z m63 -147 c4 -3 5 -9 2 -14 -7 -11 -45 7 -45 21 0 8 20 5 43
-7z m-483 -573 c0 -13 -1 -13 -10 0 -5 8 -10 22 -10 30 0 13 1 13 10 0 5 -8
10 -22 10 -30z m661 -73 c-8 -8 -11 -3 -11 19 1 25 2 27 11 11 8 -14 8 -22 0
-30z m5196 -123 c-10 -10 -37 16 -37 34 0 13 4 12 22 -5 12 -13 19 -25 15 -29z
m73 -814 c0 -5 -5 -10 -11 -10 -5 0 -7 5 -4 10 3 6 8 10 11 10 2 0 4 -4 4 -10z
m62 -202 c-6 -6 -15 -8 -19 -4 -4 4 -1 11 7 16 19 12 27 3 12 -12z m-4692 -98
c0 -5 -2 -10 -4 -10 -3 0 -8 5 -11 10 -3 6 -1 10 4 10 6 0 11 -4 11 -10z
m1293 -95 c37 -15 37 -15 37 10 0 14 5 25 11 25 6 0 8 -8 4 -19 -3 -12 0 -21
10 -25 11 -4 14 -13 10 -26 -10 -32 10 -58 42 -53 65 10 73 14 73 33 0 21 15
27 25 10 3 -5 15 -10 25 -10 27 0 42 -31 24 -48 -8 -7 -14 -10 -14 -6 0 3 -7
1 -15 -6 -8 -7 -15 -28 -15 -47 0 -31 -3 -35 -20 -29 -11 3 -29 9 -40 12 -12
4 -20 2 -20 -5 0 -8 -6 -8 -20 1 -15 10 -22 10 -32 0 -10 -10 -7 -18 15 -38
16 -14 26 -28 24 -31 -8 -7 -47 16 -47 27 0 6 -5 10 -11 10 -10 0 -39 24 -39
33 0 3 10 3 23 1 22 -5 22 -4 -1 6 -16 6 -23 17 -22 32 4 48 0 58 -22 58 -23
-1 -23 -1 -3 -16 17 -13 18 -16 5 -24 -10 -6 -22 -4 -37 5 -12 8 -29 15 -37
15 -7 0 -16 7 -19 15 -7 15 9 29 33 30 16 0 20 33 6 53 -13 18 -22 15 -23 -9
-2 -28 -8 -33 -30 -25 -16 7 -14 11 15 37 18 16 28 29 22 29 -5 0 -10 5 -10
12 0 7 7 5 18 -5 10 -9 34 -23 55 -32z m-1538 -116 c0 -8 -6 -13 -12 -11 -7 1
-13 -2 -13 -8 0 -5 -6 -10 -14 -10 -18 0 -29 27 -13 33 9 3 8 8 -2 21 -14 17
-13 17 20 4 19 -8 34 -21 34 -29z m1245 -14 c0 -10 -36 -5 -47 6 -6 6 -9 19
-6 29 4 16 7 15 29 -7 13 -13 24 -26 24 -28z m290 -25 c0 -5 -4 -10 -10 -10
-5 0 -10 5 -10 10 0 6 5 10 10 10 6 0 10 -4 10 -10z m25 -51 c11 -17 -1 -21
-15 -4 -8 9 -8 15 -2 15 6 0 14 -5 17 -11z m-411 -241 c3 -10 9 -8 19 5 19 23
47 12 47 -19 0 -19 -5 -24 -24 -24 -13 0 -31 -3 -39 -6 -8 -3 -17 2 -20 10 -4
11 -1 13 11 9 11 -3 7 5 -10 21 -16 15 -28 29 -28 32 0 9 38 -16 44 -28z m366
22 c0 -5 -7 -10 -15 -10 -8 0 -15 5 -15 10 0 6 7 10 15 10 8 0 15 -4 15 -10z
m40 -5 c0 -8 -4 -15 -10 -15 -5 0 -10 7 -10 15 0 8 5 15 10 15 6 0 10 -7 10
-15z m-352 -550 c-3 -3 -9 2 -12 12 -6 14 -5 15 5 6 7 -7 10 -15 7 -18z"/>
<path d="M7937 10228 c-5 -14 19 -42 27 -30 2 4 -2 15 -9 25 -9 13 -14 14 -18
5z"/>
<path d="M10002 8093 c-23 -4 -23 -5 -6 -24 18 -20 40 -27 29 -9 -3 6 -1 10 4
10 6 0 11 7 11 15 0 8 -3 14 -7 14 -5 -1 -18 -4 -31 -6z"/>
<path d="M7032 11528 c3 -7 13 -15 23 -17 17 -3 17 -2 3 13 -20 19 -31 21 -26
4z"/>
<path d="M12309 11395 c0 -6 -2 -18 -4 -27 -2 -10 1 -18 6 -18 5 0 9 -7 9 -16
0 -8 5 -12 11 -8 6 3 8 17 4 33 -7 28 -24 52 -26 36z"/>
<path d="M12267 11384 c-3 -3 -3 -12 0 -20 3 -8 -1 -14 -11 -14 -10 0 -16 -8
-16 -22 0 -20 1 -21 20 -3 11 10 20 13 20 7 0 -7 8 -12 18 -11 10 0 12 3 5 6
-7 2 -13 13 -13 24 0 10 -5 19 -11 19 -5 0 -7 5 -4 10 7 11 2 14 -8 4z"/>
<path d="M12376 11339 c-4 -8 -2 -28 4 -43 13 -36 13 -36 -11 -36 -18 0 -20
-4 -14 -27 4 -16 8 -30 10 -32 8 -7 36 30 32 42 -2 6 -1 19 3 27 3 8 1 31 -6
50 -9 25 -14 31 -18 19z"/>
<path d="M12420 11309 c-11 -8 -12 -12 -3 -15 8 -4 9 -13 3 -30 -5 -13 -7 -30
-4 -38 7 -18 -36 -62 -56 -57 -8 1 -12 0 -8 -5 10 -10 -29 -37 -42 -29 -15 9
-12 25 4 25 7 0 19 7 26 15 11 13 10 14 -5 9 -10 -4 -21 -1 -27 7 -7 11 -11
11 -15 2 -2 -7 -14 -13 -25 -13 -15 0 -18 5 -13 20 7 24 -7 26 -25 5 -7 -8
-19 -15 -26 -15 -19 0 -18 -29 2 -37 12 -4 14 -14 9 -47 -4 -22 -11 -45 -16
-50 -5 -6 -9 -15 -9 -20 0 -6 7 -2 15 8 15 19 16 19 49 -13 22 -21 32 -39 29
-51 -6 -21 11 -27 75 -28 24 -1 50 -6 57 -12 18 -15 65 -2 58 16 -3 9 2 14 17
14 20 0 22 3 15 36 -5 28 -3 34 7 28 10 -6 10 -4 -1 9 -7 9 -17 15 -21 12 -5
-3 -11 -1 -14 4 -4 5 -2 12 4 16 6 4 2 18 -12 38 -25 34 -26 78 -2 114 19 31
18 51 -5 58 -11 3 -21 12 -23 20 -2 11 -7 12 -18 4z m-118 -211 c-15 -15 -26
-4 -18 18 5 13 9 15 18 6 9 -9 9 -15 0 -24z"/>
<path d="M12190 11296 c6 -8 18 -12 26 -9 23 9 16 23 -12 23 -22 0 -24 -2 -14
-14z"/>
<path d="M12350 11280 c0 -5 5 -10 10 -10 6 0 10 5 10 10 0 6 -4 10 -10 10 -5
0 -10 -4 -10 -10z"/>
<path d="M12295 11260 c4 -6 11 -8 16 -5 14 9 11 15 -7 15 -8 0 -12 -5 -9 -10z"/>
<path d="M12032 11009 c2 -15 11 -25 23 -26 11 -2 14 0 8 3 -7 3 -13 12 -13
19 0 8 -5 17 -11 21 -7 4 -9 -2 -7 -17z"/>
<path d="M12135 11012 c-16 -10 -32 -18 -34 -19 -2 -2 2 -10 9 -19 15 -17 5
-29 -37 -40 -30 -8 -29 -24 1 -24 32 0 74 35 91 77 22 51 20 52 -30 25z"/>
<path d="M12290 10922 c0 -6 5 -14 10 -17 7 -4 8 -24 4 -51 -5 -38 -4 -43 10
-38 23 9 20 -3 -7 -29 -13 -12 -22 -27 -20 -33 2 -7 -3 -19 -12 -28 -15 -15
-14 -17 9 -28 14 -6 26 -19 26 -28 0 -27 20 -41 36 -25 8 7 14 18 14 24 0 5
20 -2 45 -15 54 -31 90 -29 89 4 0 12 5 22 12 22 6 0 15 12 19 27 3 15 11 31
17 34 8 5 6 13 -6 24 -22 22 -14 30 12 14 16 -10 24 -10 35 -1 10 9 18 8 33
-3 27 -20 40 -18 21 3 -10 10 -17 30 -17 44 0 21 -4 25 -20 21 -12 -3 -28 4
-45 23 -30 33 -90 42 -200 31 -11 -1 -19 3 -17 11 1 6 -2 12 -7 12 -5 0 -16 3
-25 6 -9 3 -16 1 -16 -4z m178 -186 c-10 -7 -18 -18 -18 -25 0 -13 -10 -14
-30 -1 -13 8 -13 10 1 10 9 0 22 7 29 15 7 8 18 15 24 15 6 0 3 -7 -6 -14z"/>
<path d="M12080 10860 c0 -5 9 -10 21 -10 11 0 17 5 14 10 -3 6 -13 10 -21 10
-8 0 -14 -4 -14 -10z"/>
<path d="M7850 10708 c-14 -6 -20 -12 -14 -15 7 -2 10 -12 7 -22 -4 -15 0 -18
21 -14 26 5 30 15 18 44 -6 13 -12 14 -32 7z"/>
<path d="M12197 10666 c6 -28 -12 -43 -31 -27 -11 9 -15 7 -19 -10 -5 -17 -11
-20 -31 -17 -32 6 -35 -16 -6 -32 20 -11 60 -5 60 8 0 4 14 22 30 41 23 26 28
37 19 47 -17 21 -27 17 -22 -10z"/>
<path d="M12690 10667 c0 -20 8 -30 36 -43 20 -9 41 -28 47 -41 12 -27 23 -29
44 -8 13 14 12 17 -16 26 -20 7 -31 18 -31 30 0 11 -7 19 -17 19 -9 0 -27 10
-40 22 l-23 21 0 -26z"/>
<path d="M12270 10671 c0 -5 7 -15 17 -22 15 -13 15 -12 4 9 -12 23 -21 28
-21 13z"/>
<path d="M6140 10608 c0 -16 3 -27 8 -25 4 3 13 -1 20 -9 7 -8 11 -14 8 -14
-2 0 -1 -13 4 -30 5 -18 5 -32 -1 -35 -5 -4 -9 -19 -9 -34 0 -15 -5 -32 -12
-39 -9 -9 -9 -12 0 -12 6 0 15 -15 20 -32 14 -57 68 -48 82 13 6 30 8 31 15
14 11 -26 41 -55 57 -55 25 0 69 -90 45 -90 -7 -1 -1 -7 12 -14 16 -9 20 -15
12 -21 -7 -4 -10 -14 -7 -22 4 -11 1 -13 -14 -8 -14 5 -20 2 -20 -9 0 -9 -7
-16 -15 -16 -8 0 -15 -7 -15 -15 0 -8 -6 -15 -14 -15 -34 0 -26 -35 17 -84 9
-11 17 -25 17 -31 0 -7 9 -20 20 -30 11 -10 20 -24 20 -30 0 -14 22 -25 50
-25 25 0 33 -15 26 -46 -7 -26 -36 -34 -36 -10 0 22 -17 28 -33 11 -13 -13
-18 -12 -40 8 -40 36 -47 29 -22 -24 30 -66 21 -99 -36 -124 -38 -17 -53 -45
-25 -45 18 0 30 -31 16 -40 -12 -7 6 -26 43 -45 29 -14 33 -35 7 -35 -20 0
-19 -2 8 -25 17 -14 34 -25 40 -25 17 0 20 25 6 45 -20 26 -17 37 6 33 12 -2
19 -7 18 -13 -2 -5 -7 -9 -13 -7 -5 2 -6 0 -2 -4 4 -5 24 -9 43 -10 29 -1 34
2 34 23 0 12 5 23 11 23 6 0 9 -10 7 -22 -8 -55 125 -117 150 -71 9 15 13 15
58 -2 59 -23 74 -27 97 -26 51 3 64 3 85 -4 18 -6 22 -4 22 14 0 15 6 21 23
21 14 0 30 12 45 35 13 21 30 35 43 35 44 0 67 63 34 90 -11 9 -13 16 -5 24
15 15 13 21 -16 55 -17 20 -35 31 -53 31 -14 0 -43 12 -64 26 -21 14 -45 24
-55 23 -9 -1 -25 1 -34 4 -10 4 -25 9 -33 12 -11 3 -15 18 -13 57 1 29 6 56
11 59 5 4 4 15 -2 27 -6 11 -8 27 -6 35 3 7 -1 20 -10 27 -8 7 -15 19 -15 26
0 8 -7 14 -15 14 -8 0 -23 9 -34 21 l-19 21 -7 -21 c-7 -24 -16 -26 -33 -9
-24 24 -3 114 25 104 21 -8 15 12 -7 24 -11 6 -20 17 -20 25 0 8 -7 15 -15 15
-8 0 -15 9 -15 19 0 11 -4 22 -10 26 -5 3 -7 12 -4 20 3 8 -5 31 -17 52 -13
21 -22 38 -19 38 5 0 -46 60 -96 110 -24 26 -36 31 -62 27 -21 -3 -40 3 -61
17 -39 28 -44 27 -39 -9 4 -24 1 -30 -11 -28 -12 2 -15 12 -13 36 3 23 -1 32
-11 32 -9 0 -17 -5 -19 -11 -3 -9 -9 -9 -25 -1 -11 6 -37 11 -57 10 -33 -1
-36 -4 -36 -30z m327 -908 c13 -15 26 -36 30 -45 5 -15 3 -16 -12 -8 -10 6
-25 8 -35 6 -10 -3 -20 5 -28 21 -7 16 -8 26 -2 26 6 0 10 7 10 15 0 22 12 17
37 -15z"/>
<path d="M12820 10550 c0 -5 10 -10 23 -10 18 0 19 2 7 10 -19 13 -30 13 -30
0z"/>
<path d="M12540 10371 c0 -6 -7 -11 -15 -11 -8 0 -15 -4 -15 -10 0 -5 -6 -10
-14 -10 -17 0 -18 -47 -1 -54 7 -2 17 6 23 19 6 13 20 26 31 30 25 8 26 18 6
35 -10 9 -15 9 -15 1z"/>
<path d="M12590 10281 c0 -4 -11 -6 -25 -3 -23 4 -30 -4 -26 -30 0 -5 -3 -8
-9 -8 -5 0 -10 -5 -10 -12 0 -9 3 -9 12 0 16 16 28 15 28 -3 0 -24 14 -17 33
16 19 35 22 49 7 49 -5 0 -10 -4 -10 -9z"/>
<path d="M12541 10174 c0 -11 3 -14 6 -6 3 7 2 16 -1 19 -3 4 -6 -2 -5 -13z"/>
<path d="M13060 10031 c-6 -12 -5 -22 2 -29 15 -15 31 -16 23 -2 -4 7 2 9 19
4 14 -3 26 -2 26 2 -1 33 -55 52 -70 25z"/>
<path d="M13400 9716 c0 -2 7 -6 15 -10 8 -3 15 -1 15 4 0 6 -7 10 -15 10 -8
0 -15 -2 -15 -4z"/>
<path d="M6321 9546 c-14 -17 -1 -28 19 -16 11 7 12 12 4 20 -8 8 -14 7 -23
-4z"/>
<path d="M6420 9548 c0 -4 -11 -18 -25 -30 -25 -21 -35 -45 -14 -32 7 4 9 -2
7 -17 -2 -20 2 -25 24 -27 15 -2 35 1 45 7 16 9 16 10 1 11 -13 0 -16 9 -14
48 2 35 -1 49 -11 49 -7 0 -13 -4 -13 -9z"/>
<path d="M7193 9495 c-10 -8 -27 -15 -38 -15 -13 -1 -15 -4 -7 -7 8 -3 24 -1
35 5 12 6 31 12 42 14 17 3 18 5 3 10 -9 4 -24 0 -35 -7z"/>
<path d="M7102 9478 c5 -15 28 -23 28 -10 0 5 -7 13 -16 16 -10 4 -14 1 -12
-6z"/>
<path d="M13325 9290 c-5 -8 -1 -16 9 -22 19 -11 22 -38 4 -38 -13 -1 -58 -34
-58 -43 0 -2 11 -16 25 -31 26 -28 44 -33 62 -15 13 13 47 -36 37 -53 -5 -8
-2 -9 9 -5 11 4 17 1 17 -8 0 -8 -7 -15 -17 -15 -9 0 -13 -3 -10 -7 4 -3 -1
-15 -10 -25 -12 -13 -13 -22 -6 -29 15 -15 33 -3 33 21 0 10 5 22 10 25 16 10
11 68 -9 101 -13 22 -16 35 -9 42 14 14 1 62 -17 62 -8 0 -25 12 -38 26 -18
19 -27 23 -32 14z"/>
<path d="M13352 8970 c-18 -29 -15 -36 8 -15 20 18 26 35 12 35 -4 0 -13 -9
-20 -20z"/>
<path d="M13156 8895 c-4 -15 -11 -23 -17 -19 -6 3 -5 -4 3 -15 13 -22 13 -22
16 -1 2 11 9 20 17 20 8 0 11 7 8 20 -7 28 -20 25 -27 -5z"/>
<path d="M13505 8540 c1 -19 3 -39 4 -44 1 -11 41 23 41 35 0 5 -6 6 -13 3 -8
-3 -19 5 -25 18 -10 21 -10 20 -7 -12z"/>
<path d="M13432 8468 c6 -18 28 -21 28 -4 0 9 -7 16 -16 16 -9 0 -14 -5 -12
-12z"/>
<path d="M14131 8402 c7 -11 19 -18 26 -15 15 6 18 23 4 23 -5 0 -17 3 -26 6
-15 6 -15 4 -4 -14z"/>
<path d="M14186 8395 c4 -8 10 -12 15 -9 14 8 10 24 -6 24 -9 0 -12 -6 -9 -15z"/>
<path d="M13897 8309 c7 -7 15 -10 18 -7 3 3 -2 9 -12 12 -14 6 -15 5 -6 -5z"/>
<path d="M13127 8025 c3 -8 9 -12 14 -9 12 7 11 11 -5 17 -10 4 -13 1 -9 -8z"/>
<path d="M8360 8010 c-10 -6 -11 -10 -2 -10 6 0 12 -8 12 -18 0 -20 46 -47 55
-33 3 5 2 23 -1 40 -7 33 -33 41 -64 21z"/>
<path d="M7650 7123 c0 -13 5 -23 10 -23 13 0 13 11 0 30 -8 12 -10 11 -10 -7z"/>
<path d="M11010 7130 c-8 -5 -11 -12 -8 -16 10 -9 -18 -61 -39 -73 -15 -9 -16
-10 -2 -11 13 0 79 86 79 104 0 9 -13 7 -30 -4z"/>
</g>
</svg>
