<svg version="1" xmlns="http://www.w3.org/2000/svg" width="1123.939" height="1279.032" viewBox="0 0 842.954 959.274"><g fill="#222"><path d="M359.575.9c0 .5-1 1.1-2.2 1.3-1.8.2-2.4 1.1-2.6 3.8-.2 1.9-.9 3.8-1.5 4.2-.9.6-.9.8-.1.8.7 0 1.5 1.2 1.8 2.6.8 3.1-2 5.7-6.6 6.2-2.2.2-2.8-.1-2.8-1.6 0-2.7-6.3-2.4-9.2.5-1.9 1.9-2 2.6-1 4.8.7 1.4 2 2.5 3.1 2.5s2.2.4 2.5.9c.9 1.4 14.6 3.2 14.6 1.9 0-1.3 2.8-.9 3.3.4.3.8.6.6.6-.5.1-1.7 4-2.5 5.5-1 .3.4 1.7.8 2.9 1 1.2.2 3.2 1.5 4.5 3.1 2.5 3.1 2.5 3.1 7 7.2 3.5 3.2 6.4 4.2 4.1 1.3-1.2-1.5-1.2-1.6.2-1.1 1.2.5 1.8 0 2.2-1.8.2-1.3 0-2.4-.4-2.4-.5 0-.9-.5-.9-1 0-.6.6-1 1.3-1 1.3 0 3.7-5.3 3.7-8.1 0-1.1-.2-1.1-.8-.1-.7.9-1.3.8-2.7-.8-1-1.1-2.4-2-3.2-2-1.6 0-1.7-1.9-.3-5.5.8-2.1.6-3.1-.9-5.1-1.2-1.5-2.2-2-2.6-1.4-.4.7-1.7.3-3.5-1-1.5-1.1-3.2-2-3.7-2-.6 0-1.8-.9-2.8-2-1-1.1-2.4-2-3.2-2-.7 0-1.6-.7-1.9-1.5-.7-1.6-4.4-2.1-4.4-.6zM304.675 13.9c-1.3.8-1.3 1.2-.1 2.6 1.3 1.6 1.5 1.6 2.7-.1 2.3-3.2.8-4.6-2.6-2.5zM329.575 17c0 .5.9 1.4 2.1 2 1.9 1.1 2 1 .9-.9-1.1-2.2-3-2.9-3-1.1zM308.775 18.2c-.6.6-1.2 1.7-1.2 2.4 0 .6-2 3-4.5 5.3-3.8 3.5-4.5 4.7-4.5 8 0 3-.4 4-2 4.4-2.7.7-2.1 4.7 1.4 8.8 1.4 1.7 2.6 3.4 2.6 3.8 0 .9-3.1.8-4.8-.3-1.6-1-4.6 2-3.8 3.9.6 1.7-.9 2.1-1.9.5-.4-.6-1.5-.8-2.4-.5-1 .3-2.5-.3-3.5-1.4-1.9-2.1-4.6-2.1-11.5 0-3.4 1-3.9 1.5-3 3 .8 1.5.4 2.1-2.3 3.5-2.4 1.3-3.6 1.4-4.9.5-1.3-.7-2-.7-2.5 0-.4.7-2.4.8-5.4.4-5.2-.7-9.4.1-8.5 1.6.4.5 1.5.9 2.6.9 2.2 0 2.3.8.9 4.5-.6 1.6-1.6 2.5-2.3 2.2-.9-.3-1.2.3-.9 2.3.4 2.5 0 2.9-3.5 3.7-2.3.6-3.7 1.5-3.5 2.3.2.8-.4 1.1-1.8.7-1.2-.3-2 0-2 .7 0 2-3.7 4.9-4.5 3.7-.3-.6-1.1-1.1-1.6-1.1-.6 0-.8.4-.5.9.3.5.3 2.3 0 3.9-.4 2.1-1.1 2.9-2.1 2.5-.7-.3-2 .2-2.7 1.2-.7 1-2.8 2.5-4.7 3.4l-3.4 1.6.3 7.1c.2 5.2-.2 7.4-1.2 8.3-1.5 1.3-1.1 5 .9 6.6.6.5 1.7 2 2.4 3.3 1 1.8.9 2.5-.4 3.8-.8.8-1.5 2.2-1.5 3 0 .8-.4 1.4-1 1.4-.5 0-1 1.8-1 3.9 0 3.4-.3 3.8-2 3.4-1.5-.4-2 0-2 1.4 0 3.1-2.7 6.2-4.9 5.6-2.5-.6-3.6 3-2.7 8.6.5 3.5.3 3.9-2.7 5.3-2.7 1.3-3.7 2.9-6.5 9.9-3 8-4.1 13.9-2.4 13.9.4 0 1.5 1.9 2.5 4.2 1.3 3 1.5 4.3.7 4.8-.7.4-1.1 1-1.1 1.4.4 3-.1 3.8-1.9 3.3-1.1-.3-2-.1-2 .4s-1.3 1.7-3 2.8c-1.6 1-2.7 2-2.4 2.3.8.9-1.5 8.8-2.6 8.8-.6 0-.9.3-.8.7.6 2.2-1.5 5.3-3.6 5.3-2.7 0-6.8-4-4.8-4.7 2.4-.9 1.3-5.9-2.3-10-1.9-2.3-3.5-4.7-3.5-5.5 0-1.5-4.7-1.8-7-.3-.8.5-2.8 1.7-4.5 2.6-2 1.1-3.1 2.5-3.3 4.3-.2 1.8-.9 2.6-2.3 2.6-1.1 0-2.2.6-2.5 1.4-.3.8-1.5 1.1-2.9.8-1.5-.3-2.7.1-3 1-.6 1.6-10.3 1.7-11.3.1-.4-.5-2.4-1.3-4.5-1.7-2.9-.5-3.9-.3-4.3.9-.8 1.9-2.8 1.9-4.4 0-.7-.9-2.1-1.4-3-1.3-.9.2-2.4-.3-3.3-1.1-1.4-1.1-1.7-1.1-1.7 0 0 1-.4.9-1.7-.3-1.4-1.5-1.4-1.9-.1-4 .8-1.3 1.5-3.9 1.5-5.8.1-1.9-.1-2.7-.4-1.8-.2.9-1.2 2-2.2 2.3-2.2.7-5.2 6.9-4.4 9.1.4 1.1.2 1.5-.4 1.1-.6-.4-1.6 0-2.3.8-.7.8-2.1 1.5-3.1 1.5-1.1 0-1.9.4-1.9.8 0 .5-.6 1.7-1.4 2.7-1.2 1.6-1.6 1.7-3 .6-1.3-1.1-1.9-1.1-3.2 0-1.2 1-2.2 1-4.9.1-1.8-.7-5.2-1.4-7.5-1.7-2.4-.2-4.8-.9-5.3-1.4-1.5-1.5-4.8-1.3-7.1.4-1.4 1.1-2.4 1.2-3.8.4-1.1-.6-4-.9-6.4-.7-3.1.2-4.4-.1-4.4-.9 0-.7-.4-1.3-.9-1.3-.6 0-1.1 1.9-1.3 4.1-.2 2.5-.9 4.5-1.8 4.9-.8.4-2.5 1.2-3.7 1.8-1.3.7-3.1 1.2-4.2 1.2-1.9 0-2.4 1.5-3.6 10.9-.3 2.5-1.1 5.1-1.8 5.9-.6.8-1 2.7-.9 4.3.2 1.9-.2 3.1-1.2 3.5-1.4.5-1.2 1.1.9 3.6 1.4 1.6 2.5 3.7 2.5 4.6 0 .9.9 3.1 1.9 4.9 1.9 3.1 1.9 6.4-.1 9-.5.7-.6 1.7-.2 2.4.4.7.8 2.5 1 4.1.3 2.5-.1 3-4.6 5-2.7 1.2-5.1 2.9-5.3 3.7-.4 1.7-.6 1.4-2.1-3.2-.4-1.2-1-1.5-1.8-1-.7.4-2.3.6-3.5.4-1.7-.2-2.3.3-2.3 1.7 0 2.4-2.3 4.4-4.7 4-1-.1-2.4.1-3.1.6-.8.4-2.3.1-3.9-.9-2.7-1.8-2.6-1.3 1.1 3.9 3 4.4 5.4 9.4 6.2 12.9.3 1.8 1.1 3.8 1.7 4.6.8 1 .7 1.6-.5 2.5-1.1.8-1.4 2.1-1.1 3.9.3 1.5 0 4.1-.7 5.7-.8 2-.9 3.4-.2 4.3.5.6 1 3.1.9 5.4 0 5.3 1.2 6.8 6.8 8.2 2.5.6 4.5 1.5 4.5 2s1.2 2.3 2.6 4c1.4 1.7 2.3 3.5 2 4-.4.5-.2 1.2.4 1.6.5.3.7 1.7.4 3-.5 1.9.4 3.4 4 7.3 2.9 3.1 4.6 5.8 4.6 7.4 0 1.3.7 3.3 1.5 4.4 1.6 2.1 1.9 3.5.8 3.3-.5-.1-1.9-.1-3.3 0-2.4.1-2.2.4 2.1 4.4 4 3.6 4.6 4.5 3.8 6.5-1.2 3.1-.3 4.8 3.5 6.6 1.8.9 3.9 2.2 4.6 3.1.7.8 2.5 1.5 4.1 1.5 2 0 2.7.4 2.3 1.4-.8 2 2.3 2.8 4.1 1 1.8-1.8 3.5-1 3.5 1.7 0 1 .4 1.9.9 1.9s1.1 1 1.3 2.2c.2 1.2.9 2.3 1.7 2.6 1 .3 1.2-.3.6-2.7-.9-4.2.2-5.7 2.6-3.5 1 .9 1.7 1.9 1.5 2.3-.2.3.7.6 2 .6 1.4 0 2.7-.7 3-1.8.4-1.2 1.2-1.5 3-1.1 1.9.5 2.6.1 3.4-2 .5-1.4 1.5-2.6 2.1-2.6.6 0 2.4-1.1 4.1-2.5 1.6-1.4 3.7-2.5 4.7-2.5 2.5 0 6.3-3 5.7-4.6-.6-1.7-.1-1.7 2.5-.3 1.7.9 2 .7 1.7-.8-.2-1-.6-2-1-2.3-.4-.3-.3-1.2.2-2 .8-1.2 1-1.2 1 .4 0 1.5.5 1.7 3.1 1.2 3.5-.7 7.9-4.8 7.9-7.3 0-.8 2.1-3.6 4.7-6.1 2.6-2.6 4.8-5.7 4.9-6.9.1-1.2 1-3.3 1.9-4.7.9-1.4 1.4-3 1-3.6-.8-1.3.1-1.3 2.5 0 1.4.8 2.4.4 4.7-1.8 1.7-1.5 3.5-3.7 4.1-4.8.8-1.6 1.8-2 3.7-1.7 2.4.5 2.5.3 2.5-4.2s.1-4.7 2.5-4.3c1.4.3 2.8.1 3.1-.3.3-.5-.2-.9-1-.9-.9 0-1.6-.5-1.6-1.1 0-.7 1.1-.8 3-.4 4 .9 7-.2 7-2.6 0-1.9.2-1.9 2.1-.5 1.6 1.1 4 1.3 9.8.9 4.2-.3 7.8-.9 7.9-1.4.2-.5 2.4-.9 4.8-.9 3.2 0 4.4-.4 4.4-1.5 0-1.8.5-1.9 3.2-.4 1.7.9 2.4.8 3.4-.6.8-1 1.1-2.2.8-2.7-.9-1.4 2.7-2.2 3.7-.7.8 1.2 1 1.2 1.8 0 1.5-2.3 2.3.5 1.5 5.4-.3 2.5-.2 4.5.2 4.6.5 0 1.9.2 3.2.3 1.8.2 2.1-.1 1.6-1.7-.4-1.2-.2-1.7.5-1.3 1.3.9 4.2-4.7 4.3-8.5.1-2.3.6-2.9 2.3-2.9 4.4 0 8.5 1.3 8.5 2.6 0 2.1 2.8 1.7 3.5-.5.3-1 .2-2.6-.1-3.6-.6-1.5-.4-1.6 1.1-.7 2.1 1.1 4.8 0 7.5-3.2 1.6-1.9 1.7-1.9 3.4.5 1.4 2 1.8 2.2 2.6.9 1.2-1.9 2.8-2 6.1-.4 1.6.8 4.8 1.1 8.5.8 5.8-.5 6-.5 10.5 3.8l4.7 4.3 5.2-1.9c5.6-1.9 5.5-1.9 13 2.5 4.4 2.6 5.8 3.9 4.2 3.9-2.2 0-1.3 2 2.3 5.4 2.4 2.1 3.4 3.7 3 4.8-.4.9-1.3 1.4-2.1 1.1-.8-.3-1.4.1-1.4 1 0 .8-.5 1.7-1.1 1.9-.6.2-.3 1.3.9 2.8 1.1 1.4 2.1 4.4 2.3 6.7.4 3.7.2 4.3-1.9 4.8-2 .5-2.2.8-1.1 2.2.9 1 1.5 1.1 1.7.4.2-.6.8-.8 1.3-.5.6.3.5 1.2-.3 2.2-1 1.2-1 1.6 0 1.9.6.3 1.2 1.2 1.2 2.1 0 1 1.9 2.6 4.3 3.8 3.8 1.9 4.3 2.6 5.2 7.2.6 2.8 1.8 5.9 2.7 6.9.9 1 2.1 3 2.7 4.5 1.1 2.9 7.4 6.8 10.6 6.5 1.1-.1 2.4.8 3 2 .7 1.3 1.5 2 1.8 1.6.4-.3.8.2.8 1.3.1 1 .3 2.9.4 4.2.1 1.2-.3 2.6-1 3-.6.4-1.5 1.5-1.8 2.5-.4 1-1.1 1.5-1.7 1.2-1.3-.8-1.3.1.2 2.4 1.3 2.2.4 5.3-1.4 4.6-1-.4-1.4.7-1.6 3.9-.1 2.4-.8 6.3-1.5 8.7-.8 2.4-1.3 7.2-1.3 10.6.1 5.5-.1 6.3-1.9 6.5-1.5.2-1.9.9-1.7 3 .2 1.9-.3 3-1.8 3.8-1.1.6-1.8 1.5-1.4 2.1.3.5.1 1.6-.6 2.3-.6.8-.8 2.6-.4 4.2.6 2.3.4 2.6-1 2.1-1.2-.5-1.6-.1-1.6 1.4 0 3.4-1.9 5.9-4.5 5.9-1.8 0-2.5.5-2.5 1.9 0 2-2.5 3.5-4.1 2.5-.5-.3-.9.2-.9 1.1 0 2.4-4.7 4.2-7.2 2.6-1.2-.7-2.4-.9-3.1-.3-2.3 1.8-7.4 2.1-9.6.6-1.2-.9-2.1-1.1-2.1-.5 0 .6-.8 1.1-1.8 1.1-.9 0-2.3.9-3 2-.9 1.4-.9 2-.1 2s.8.4-.1 1.5c-.7.8-1.6 1.3-2 1-.9-.6-2.5 2.7-4.1 8.7-.8 2.7-1.6 4.8-1.9 4.8-.3 0-.7 1-.7 2.2-.2 1.5.1 1.8.6 1 1.1-1.8 2.5 0 4.5 5.7 1.4 4.2 1.4 4.6-.5 7-1.7 2.2-1.8 2.6-.4 3.3.8.5 1.5 1.4 1.5 1.9 0 .6.9 2.4 2.1 4.1 1.2 1.6 1.9 3.2 1.5 3.5-.3.3.2 1.2 1.1 1.8 1.4 1.1 1.5 1.5.4 2.9-.9 1-1.1 2.8-.6 5.7.7 4 .6 4.1-1.6 3.4-1.8-.5-2-.4-.9.4 1.2.8 1.2 1.3-.4 3-1.7 1.8-1.7 2.1-.2 4.3.9 1.2 1.6 3.5 1.6 5 0 2.3.4 2.8 2.4 2.8 1.3 0 2.9.7 3.6 1.5.7.9 2 1.3 2.9 1 4.3-1.3 6.7 5.7 2.8 8.4-1.2.9-2.9 1.6-3.7 1.6-2.4 0-2.5 6-.1 8.2 1.6 1.5 1.8 2.7 1.4 6.6-.5 4.2-.8 4.7-2.6 4.1-1.7-.5-1.9-.3-1.2 1.2.4 1.1.8 2.5.9 3.3.1 1.9-4.3 3.1-6.8 1.8-1.2-.6-1.6-.6-1.2.1.4.6-.2 1-1.4.9-2-.1-2.9-1.7-.9-1.7.5 0 .7-.5.4-1-1.2-1.9-4.6-1-10.1 2.5-3.9 2.5-5.9 3.3-6.8 2.6-.8-.7-1.5-.4-2.4 1-1.5 2.3-7.8 2.6-10.7.5-1.4-1-2.5-1.1-3.8-.4-1.3.6-2.3.6-3.3-.2-1.7-1.5-7.3-.6-12.8 2.1-2.2 1-4.6 1.9-5.3 1.9-.7 0-1.3 1-1.3 2.1 0 1.8-.4 2.1-2.9 1.6-1.9-.4-3.1-.2-3.4.6-.3.8-1.3.4-3-1.2-2.4-2.2-2.7-2.2-4.2-.7-1.3 1.3-1.4 2-.6 3 .9 1 .9 1.6.1 2.1-.6.3-.8 1-.5 1.5.3.4-.4 1-1.4 1.3-1.4.3-2 1.7-2.4 5.3-.3 2.7-.8 6.2-1.2 7.7-.5 2-.3 3.3.9 4.6 1.2 1.3 1.4 2.1.6 2.6-.7.4-.4 1.6 1 3.5 1.1 1.5 2 3.1 2 3.5 0 1.5-5.4 7.5-6.7 7.5-1.1 0-1.4.7-1.1 2.5.5 2.2.2 2.5-2.3 2.5-1.5 0-3.1.5-3.4 1-.4.6-1.5.8-2.5.5-1.4-.4-1.6-.1-1.2 2 .3 1.9 0 2.5-1.3 2.5s-1.5.3-.7 1.3c.6.7 1.3 2.8 1.4 4.6.2 2.2 1.6 4.8 4.1 7.7 3.1 3.6 3.6 4.5 2.3 5-2.5 1-1.9 5 1 6.9 1.8 1.1 2.3 2 1.6 2.7-.6.6-.8 2.5-.5 4.3.4 2.7 0 3.9-2 5.9-1.4 1.3-2.3 2.7-2 2.9.2.3-.1 2.3-.8 4.6-.9 3.2-1.8 4.1-4 4.6-2.7.6-2.9 1-2.9 5.2 0 3.5-.3 4.4-1.4 4-1.5-.6-7.6 1.3-7.6 2.3.1 1.6 1.8 2.9 4.4 3.2 3.5.4 4.7 2.7 1.8 3.5-1.7.4-2.2 1.7-2.9 7.6l-.8 7.2-3.5.3c-2.8.2-3.8.9-4.8 3.1-.7 1.6-1.1 4.1-.8 5.6.5 2.9 1.6 4.7 1.6 2.7 0-.7.7-1.2 1.5-1.2s1.5-.4 1.5-.9 1.5-1 3.3-1c7.3-.2 8.7-.4 8.7-1.2 0-.6.6-.9 1.3-.7.6.1 2.2-.3 3.4-1 2.8-1.5 10.1-1.3 10.7.4.3.7 2.4 2.2 4.8 3.3l4.3 1.9 1.2-3c.8-1.7 1.1-3.9.8-5-.9-2.7 3.9-2.4 6.7.4 3.5 3.5 6.9 3.2 16.1-1.4 1.1-.5 2.7-.3 4.6.7 2 1 4.6 1.3 7.8 1 8.2-.9 9.4-.8 11.7 1.4 3 2.8 14.9 3.1 17.9.4 1.5-1.5 3.6-1.7 12-1.6 5.6.1 12.1.2 14.5.2 2.6.1 5.4.8 7 2 3.6 2.5 13.2 3.2 13.2 1 0-.7 1.1-2.2 2.5-3.5 1.6-1.5 2.5-3.4 2.5-5.4 0-1.7.6-3.3 1.4-3.6 2-.8 5.9 1.5 5.3 3-.3.6.1 2 .9 3 1 1.5 2.7 1.9 7.1 1.9 3.2.1 5 .3 4.1.5-1.6.3-2.2 1.4-1.9 3.4.2 1.2-2.5 1-5.4-.4-2.2-1-2.8-.9-3.6.3-1.1 1.8-1.2 3.2 0 2.4.5-.3 1.3 0 1.7.6.3.6 0 1.5-.7 2-1.1.6-.9 1.3.7 3.6 1.9 2.6 2 3.4 1.1 8.6-1 5.3-.9 5.9 1.3 8.2 1.3 1.4 2 2.5 1.6 2.5-.5 0-.1 1.1.8 2.5.9 1.3 1.6 3.3 1.6 4.3 0 1.1.7 2.5 1.5 3.2.9.7 1.3 2 1 2.9-.8 2.8 2.2 9.5 5.5 12.3 1.8 1.4 3 3.2 2.7 4-.8 2.4 2.6 9.2 7.5 14.7 2.6 3 4.8 6 4.8 6.7 0 2 14.4 4 17.1 2.3 1.6-.9 1.2-1.4-1.8-2.3-1.9-.6-2.2-.4-1.6 1 .5 1.4.3 1.5-1.4.5-2.1-1.1-3.8-5.5-2.8-7.1.4-.6 1.3-1 2.2-1 2.1 0 8.6-6.7 7.8-8-.9-1.5 1.2-1.2 4.7.6 2.9 1.5 3.1 1.5 2.4-.2-.4-1-.1-2.1.6-2.6 1-.6.8-.8-.4-.8-2.2 0-2.3-1.6-.2-2.4 2.1-.8 6.5.4 5.8 1.5-1.1 1.8 3 2.2 7.1.7 3-1.2 4.7-1.3 6-.5 1.4.7 2 .7 2.3-.1.2-.7 1.3-1.2 2.4-1.2 1.5 0 1.8-.5 1.3-2s-.2-2 1.4-2c3.3 0 7-2.1 6.4-3.6-.7-1.9 1.7-1.8 4.5.2 2 1.4 2.2 1.4 2.2-.1 0-.9.5-1.3 1.1-1 .5.4 2.1-.5 3.5-2 2.5-2.7 3.1-4.5 1.4-4.5-.5 0-.7-1.4-.5-3.1.3-2.1-.3-4.1-1.7-6-1.8-2.4-2-3.3-1-5.4 1-2.2.9-2.5-.7-2.5-1 0-2.6-.9-3.5-1.9-2.2-2.4-1.2-4.6 3.5-8.1 7.4-5.7 7.6-5.9 5.7-7-1-.6-1.8-1.7-1.8-2.4 0-.8-.8-2-1.7-2.7-1.1-1-1.4-1-.9-.2.8 1.4-.6 1.6-4.1.7-1.3-.4-2.3-1.3-2.3-2 0-.8-.6-1.4-1.4-1.4-.8 0-2.2-1.9-3.1-4.3-2.3-5.8-2.6-7.7-1.1-7.7.8 0 1.6-.9 1.9-2 .4-1.4 1-1.8 2.2-1.4 1.1.5 1.3.9.5 1.4-.7.5-.8 1.4-.1 3.3.7 1.9 1.5 2.4 3 2 2-.5 2.5-2.1 2.2-7-.2-2-.1-2.1 5.1-.9 5 1.1 5.4 1.4 6.2 4.9.6 2.5 1.5 3.7 2.5 3.6 3.8-.3 5.1.3 6.6 3.2.9 1.7 1.9 2.8 2.2 2.5.3-.3 2 .6 3.9 2 3.4 2.6 5.4 2.5 5.4-.3 0-1.3.5-1.2 2.4.6 1.7 1.6 3.5 2.2 6.3 2.1 2.1-.1 4.3-.1 4.8 0 .6.1 1.3.2 1.8.1.6-.1 1.1 2.3.8 4.2-.2 1.5 3 1.9 6 .6 3.5-1.4 8.2-5.7 8.5-7.7.1-.7-.6-1.8-1.7-2.5-2.1-1.3-2.6-6.1-.8-7.3.7-.4.9-2.2.5-4.8-1.6-10.8-1.6-19.3-.1-20.6.8-.7 1.5-1.8 1.5-2.5 0-.6.9-2 2-3s2-2.7 2-3.7c0-1.1.5-1.6 1-1.3.6.3 1 0 1-.8 0-2 4.7-5.7 6.5-5.1.8.4 1.5 1 1.5 1.4 0 .5.8.6 1.8.3 2.5-.6 5.5 3.1 5.4 6.7 0 1.7.3 2.8.7 2.6.4-.3 1.8 1.3 3.2 3.4 1.3 2.2 2.7 4 3.1 4 .4 0 1.9 1.1 3.3 2.4 1.5 1.4 3.3 2.2 4 2 1.2-.5 3.5 2.2 3.2 3.6-.1.4 1.4 2.4 3.3 4.6 2.3 2.7 4.7 4.3 6.8 4.7 1.8.4 4 1.4 4.9 2.3 2.2 2.1 9.1 1.1 11-1.6.8-1.1 2.1-2 2.9-2 .8 0 1.3-.4.9-.9-.3-.5 0-3 .7-5.5 1.1-4.1 1.4-4.4 2.8-3.1 1.6 1.5 12.2 1.6 13.7.2 1.4-1.4 2.1-.6 2.7 3.3.5 3.3 1 4 2.9 4l2.2.1-2.5 2.2c-2.7 2.4-3.1 4.6-1.4 6.8.6.8 1.6 2.7 2.1 4.4.8 2.5 1.5 3 4.1 3 2.8 0 3.2.4 4.2 4.2.7 2.3.9 6.2.6 9-.6 4.4-.4 5.1 2.7 9 3.1 3.8 3.4 4.7 2.7 8.3-.4 2.2-1.4 4.8-2.2 5.8-2.2 2.4-2.9 7.2-1.2 7.2.8 0 1.4.6 1.4 1.2.1.7 2 2.5 4.4 4.1 3.9 2.4 4.7 2.6 7.3 1.6 1.5-.7 3.1-1.2 3.6-1.1.4.1.7-.2.7-.8 0-.5.5-1 1.1-1 .5 0 .8.4.5.9-.3.5.2.8 1.1.7 3-.2 6.1 7.9 5.7 15.1-.3 6.2-.3 6.3 3.4 9 2 1.5 3.8 2.7 3.8 2.8.1 0 .5 1.1.9 2.4.7 2.2.5 2.3-1.9 1.9-1.9-.4-3.1 0-4 1.4-1.8 2.5-4.3 1.4-5.1-2.3-.4-1.6-1.1-2.6-1.7-2.3-.6.4-.6 1 .1 1.7.6.6 1.1 2 1.1 3 0 2.3 4.1 6.5 5.8 5.9.6-.2 1.6.6 2.2 1.7.9 1.7.8 2.1-.6 2.1-.9 0-2.9 1.3-4.5 2.9-1.5 1.6-3 2.7-3.3 2.4-.2-.3-1 .4-1.7 1.5-1 1.6-1.7 1.8-3.6 1.1-3.7-1.4-5.6-1.1-4.9.7.3.8-.1 2.6-1 3.9-.9 1.4-1.4 3.2-1 4 .6 1.8.2 1.9-2.5.5-1.5-.8-1.9-.7-1.9.5 0 .8-.4 1.5-.8 1.5s-.8.9-.8 1.9c0 1.1.3 1.9.6 1.9 3.2-.3 5.5.8 8.2 3.8 1.8 2 3.3 4.1 3.4 4.7 0 .7.2 2.2.2 3.4.2 1.7.8 2.3 2.6 2.3s2.5.7 3 3.1c.3 1.7.2 3.9-.4 4.9-.5.9-.6 2-.3 2.4.3.3-.5.6-1.8.6-1.9 0-2.1.2-.9 1 .9.5 1.9.5 2.6-.1 1.4-1.1 4.7-.7 6.6.8 1.5 1.2 5 2.4 5.9 2 .9-.3 3.9 2.4 3.4 3.2-.5.9 4.2 6.1 5.4 6.1.5 0 1.4 1.4 2.1 3 1.3 3.1 4.6 5.7 5.2 4.1.2-.4 1.5-1.1 3-1.4 2.1-.6 3.1-.2 4.8 2 1.3 1.6 2 3.7 1.7 5-.3 1.4.6 3.4 2.4 5.7 1.6 1.9 2.7 4 2.4 4.8-.3.8.6 1.8 2.4 2.5 2.1.7 3.1.8 3.3.1.5-1.5 4.8.9 4.8 2.6 0 .7 1.6 3 3.5 5 1.9 2.1 3.2 4.2 2.9 4.8-.4.7.7.8 3.4.3 3.4-.5 4.4-.3 5.9 1.4.9 1.2 2.3 2.1 2.9 2.1.6 0 1.7.7 2.4 1.5.9 1.1 1.5 1.3 2 .5s1.1-.7 2.1.3c.8.7 2 1.2 2.7.9.6-.2 1.2.1 1.2.7s.8 1.1 1.7 1.1c.9 0 2.4.7 3.3 1.5 1.5 1.3 2.2 1.4 4.5.3 2.4-1.1 2.9-1 4.2.7 1.4 2 1.5 2 3.3-.3 1.4-1.7 2.5-2.2 4.1-1.7 1.8.6 2 .4 1.4-1.4-.5-1.5-.2-2.1 1-2.1s1.5-.5 1-2.1c-.5-1.5-.4-1.9.5-1.4.6.4 1.8-.1 2.5-1.1 1.1-1.4 1.4-1.5 1.5-.5 0 .8.3 1.1.7.8.3-.4 1.7 0 3.1.9 1.9 1.3 3 1.4 4.8.5 1.3-.6 2.4-1.5 2.4-2.1 0-.5 1.3-1 2.8-1 3.5 0 4.5-.9 3.1-2.7-1.3-1.5-.1-1.7 2-.4 1 .6 2 .3 3.2-1.2l1.8-2.2.1 2.3c0 2 .4 2.2 2.3 1.6 1.2-.3 1.9-.3 1.5.1-.4.5 0 1.4.9 2 1 .8 1.7 2.7 1.8 4.6 0 2.8.4 3.5 2.3 3.7 1.2.2 2.6 1.1 3.2 2.1 1.3 2.5 5.5 2.2 5.5-.4 0-1.6.8-2.1 3.5-2.3 1.9-.2 4-.8 4.7-1.3.7-.7 1.4-.6 1.8.1.3.6 1.1.8 1.6.5.8-.6 1.3.9.7 1.9-.5.7 3.5 4.6 4.6 4.6.6 0 1.7-.9 2.3-1.9.8-1.3 1.9-1.8 3.3-1.4 2.2.6 2.5-.3 1-4.1-.7-2-.6-2.6.4-2.6.8 0 1.6-.7 2-1.5.7-1.8.2-1.9-2.4-.3-2.5 1.6-3.4.6-3.6-4-.1-4.1 2.8-7.5 5.9-6.8 1.7.4 1.8-.1 1.5-4.5-.3-4.4-.1-4.9 1.5-4.5 1.3.3 1.6 0 1.2-1.4-.4-1.2.1-1.9 1.5-2.3 1.2-.3 2-1.3 2-2.6 0-1.2.8-3.1 1.8-4.1 1.2-1.4 1.7-3 1.4-5.4-.5-4.2-2.9-6.8-4.2-4.5-1.1 1.8-13.5 2.5-15.5.9-1-.9-1.9-.6-3.4.9-1.7 1.7-2.5 1.9-5.1 1-1.6-.6-3-1.5-3-2 0-1.3-7.3-4.1-7.9-3.1-.7 1.1-6.2.9-7.9-.2-.7-.4-1.2-.1-1.2.8 0 2.7-5.1 2-5.8-.7-.3-1.2-.5-2.4-.3-2.6.1-.2-.8-.9-2.1-1.5s-2.3-1.8-2.3-2.6c0-1.9-1.5-3-4.2-3-1.2 0-4.6-2.3-7.6-5-3.4-3.1-5.8-4.6-6.2-4-.4.6-1.6.8-2.7.5-1.1-.4-2.6 0-3.7.9-1.6 1.4-2 1.4-5.3-.3-2.6-1.3-4.8-1.6-7.5-1.2-3.4.6-3.8 1-4.4 4.3-.3 2-2 5.3-3.7 7.3-1.8 1.9-3.2 4.1-3.2 4.7 0 .6-.9.8-2.2.5-1.3-.4-3.2.1-4.7 1.2-1.4 1-4.5 2.2-6.8 2.6-4.6.7-5 1.4-3.1 4.4.9 1.5.8 2.2-.5 3.5-2.1 2.2-5.9 2-9-.4-2.8-2.2-7.3-2.7-8-.8-.2.7-.7 1-1.1.6-.4-.3-.3-1.5.3-2.6.8-1.5.7-2.3-.3-3.1-1-.8-1.6-.9-2.1-.1-1.3 2-2.1.9-3.2-4.3-.9-4.2-.8-5.5.3-6.8 1.3-1.4 1.3-1.7 0-2.2-.8-.3-2.2.1-3.3.8-2.5 1.9-2.8 1.9-4.1-.9-.8-1.9-.8-2.6.1-2.9.9-.3.8-.8-.2-2.1-1.1-1.3-1.1-2-.3-2.8.9-.9 1.2-.9 1.2.1 0 .7.5.9 1 .6 1.7-1 1.1-2.5-1-2.5-1.1 0-2-.5-2-1.1 0-.6-.9-2.2-1.9-3.5-1.9-2.5-1.9-2.5.2-6 1.2-1.9 4.1-5.9 6.5-8.9 2.3-2.9 4.2-5.8 4.2-6.4 0-.6.8-1.6 1.8-2.2 1.2-.8 1.7-2 1.4-3.5-.3-1.9 0-2.4 1.6-2.4 2.4 0 8.2-4.6 8.2-6.5 0-.7.9-1.5 1.9-1.8 1.7-.4 2-1.4 1.9-7.4 0-8.2.7-11.3 2.9-11.3 1.3 0 1.3-.3.3-1.5-1.2-1.5-1.1-3.6.8-10.7.5-2 .7-4 .3-4.5-1.4-1.7-3.2-8.3-2.5-9.4.3-.6 1.6-.8 2.7-.5 3.8 1 15.2-11.3 14-15.1-.4-1 .6-3 3.3-7.1.1-.2 1.2.2 2.4.8 2 1.1 2.1 1 1.1-.8-.9-1.8-.7-2.1 1.7-2.7 3-.6 6.7-6.4 7.8-12.1l.6-3.1 4.6 1.3c2.5.8 5.6 1.4 6.9 1.4 2.8 0 3.1 2.6.3 3.5-1.1.3-2 1.3-2 2.1s-.7 1.4-1.5 1.4c-1.3 0-1.9 1.1-1.6 3.2 0 .3-2.5 2.3-5.7 4.4-6.8 4.5-7.2 4.9-7.2 9.4-.1 3.9-2.3 7.6-3.9 6.5-.6-.3-1.1.1-1.1.9 0 1.8-.8 2-3 .6-2-1.2-3 .5-3 5.2 0 2.9-.4 3.8-1.7 3.8-.9 0-1.3.3-1 .7 1.1 1.1-2.4 4.3-4.7 4.3-3 0-4.2 1.1-4.8 4.3-.5 2.4-.2 2.8 1.6 2.5 1.2-.2 2.2-1.1 2.4-2.4.5-3.2 5.6-2.7 9.8 1 3.3 2.9 4.5 5.6 2.4 5.6-.5 0-1 .6-1 1.3 0 .8-1.1 2.4-2.5 3.7-1.8 1.7-2.3 3-1.9 4.7.7 2.5-.4 3-2.6 1-1.2-1-1.2-.9-.1.5.7.9 1 2.6.6 3.8-.5 1.7-.2 2 2.2 2 1.6 0 3.6.9 4.6 2 .9 1.1 2.4 2 3.2 2 .9 0 1.5.9 1.5 2.5s-.6 2.5-1.6 2.5c-2.8 0-.9 2.4 2.7 3.4 1.9.5 3.7 1.5 4.1 2 .8 1.2.8 1.2 1.2-2.2.3-2.6 4.3-7.2 6.3-7.2 2.4 0 1.4-11.9-1.3-16.2l-2.3-3.6 2.4-.6c2-.5 2.3-1 1.6-2.8-1.4-4 .8-7.4 6.3-9.7 5.6-2.3 7.7-2.6 9.1-1.2.6.5 3.6 1.2 6.8 1.6 5.4.7 5.7.6 5.7-1.5 0-1.7.4-2 2-1.5 1.3.4 2.2.1 2.6-1 .4-1 1.3-1.3 2.5-1 1.4.5 1.7.2 1.3-.9-.3-.8-1.6-1.8-2.7-2.2-2.4-.7-7.3-5.5-6.9-6.7.3-1.1-1.3-.8-2.6.5-1.7 1.7-4.4-.9-3.6-3.4.5-1.7.2-1.9-1.5-1.3-2.5.8-2.8-1-.6-3.5 1.8-2 1-5.1-1.1-4.3-.8.3-1.4 1.4-1.4 2.4 0 1.6-.5 1.8-2.7 1.3-4.1-1-5.5-2.4-4.9-5 .6-2.1.4-2.2-2.4-1.4-4 1.2-3.9-.3.6-4.5 1.9-1.9 4.4-5 5.4-6.9 1.5-3 1.6-3.7.3-4.7-1.2-1-1.1-1.5.6-3.3 1-1.2 2.2-3.1 2.6-4.4.7-2.5 3-2.9 3.9-.6.8 2.2.8 2.4-.8 2.4-.8 0-1.3.9-1.2 2.4.1 1.8.8 2.5 2.8 2.8 1.5.3 2.9 0 3.1-.6.2-.5 2.5-1 5.3-1 5.2-.1 7.5-1.7 6.7-4.6-.3-1.2-1.2-1.5-3.4-1.2-3.2.5-7.9-.4-7.9-1.6 0-.4 1.1-1.2 2.5-1.8 1.8-.9 2.5-.9 2.9 0 .2.6.5-.8.5-3.1.1-4.7 1.9-5.8 6.2-3.7 1.5.7 2.9 1.1 3.2.7.4-.3 2.1.7 3.9 2.2l3.3 2.8.3-3.1c.4-3.6 1.6-4.1 3.1-1.5.6 1 1.1 1.3 1.1.6 0-.6-.4-1.5-1-1.8-2.1-1.3-.9-2.3 1.5-1.2 5.6 2.6.3 7.7-7.9 7.7-3.9 0-5.7 1.8-3.2 3.2.9.5 1.6 1.9 1.6 3.2 0 6 4.7 9.9 6.9 5.7.7-1.2 2.6-2.1 5.5-2.5 4.9-.8 7-2.5 6-5-.4-1-.1-1.6.9-1.6 1.8 0 2.7-4.2 1.4-6.6-.7-1.2-.7-1.9.1-2.2.6-.2.8-1 .5-1.8-.3-.7-.9-1.1-1.4-.8-.5.3-.9-.4-.9-1.5 0-1.9-.1-1.9-2.5.4-3.2 3.3-5.2 3.2-2.6-.1 1.6-2 1.8-3.1 1-4.5-1.2-2.4-.7-2.4 3.3.1 2.1 1.3 3.6 1.6 4.4.9.8-.6 2.7-.3 5.9 1.1 4.1 1.7 4.6 2.3 4.1 4.3-.3 1.2-.6 2.9-.6 3.8 0 .8-2 3-4.4 4.8-4.5 3.4-5.2 6.1-1.6 6.1 1.1 0 2.2 1.2 2.9 3 .5 1.6 1.4 3 1.9 3s1.4 1.2 2.1 2.7c.9 1.9 1.5 2.3 2 1.5.6-1 1.1-.9 2.1.3 1.6 1.9 3.4 2 2.6 0-.3-.9 0-1.5.9-1.5.8 0 1.5-.7 1.5-1.5s.9-1.9 2-2.5c1.1-.6 2-1.7 2-2.6 0-.8 1.2-1.9 2.6-2.4 1.4-.6 2.8-1.9 3.1-3 .3-1.1 1.4-2 2.4-2s2.4-.9 3.3-2.1c1.2-1.8 1.2-2.5 0-5.4-1.3-3.1-1.2-3.4.7-4 1.5-.5 1.8-1.2 1.3-2.8-.4-1.2-1.3-2.6-2-3-.8-.4-1.4-1.6-1.4-2.7 0-1-.9-2.2-2-2.5-1.1-.4-2.9-2.3-4-4.4l-1.9-3.8 3.2-2.4c1.8-1.3 4.1-2.6 5.2-2.9 1.2-.3 2.4-1.9 3-3.8 1.1-3.7 1.3-3.7 6.2-1.7 3.3 1.4 3.8 1.4 4.5 0 .7-1.1 1.4-1.3 2.8-.5 1 .5 2.8 1 3.9 1 1.3 0 2.3.8 2.7 2.4.4 1.6 1.1 2.3 2 1.9 1.9-.7 1.8-3.3-.1-3.3-2.5 0-3.8-3.8-2.5-7.1.7-1.6 1-3.8.7-4.9-.4-1.7 0-2 2.8-2 2 0 3.5-.6 3.9-1.5.3-.8 1.1-1.3 1.8-1 .7.3 2 .1 2.8-.4 1.2-.8 1.1-1.3-.5-3.1-1.3-1.5-1.6-2.3-.8-3.1.6-.6.9-1.8.6-2.5-.6-1.5 1.8-7.4 3-7.4.4 0 .5-1.1.1-2.4-.3-1.5-.1-2.5.9-2.9 1-.3 1.3-1.4 1-3.1-.6-3.1-1-3.2-3.7-.7-2 1.8-2.2 1.9-4.2.3-1.1-1-3.2-4.2-4.7-7.3-2.8-6-6-7.9-8.6-5.2-.8.9-2 1.1-3 .7-3-1.3-7.9-1.6-8.5-.5-1.1 1.7 1.3 5.1 3.4 5.1 2.1 0 2.4.7 1.2 2.8-.5.8-2.9 1.2-6.3 1.2-3 0-7.2.1-9.4.2-3.8.3-4 .4-3.9 3.5.2 2.5-.2 3.3-1.5 3.3-1.2 0-1.7.7-1.7 2.1.2 3.8-2.3 3.2-6.9-1.5-2.5-2.6-5.3-4.6-6.5-4.6-1.3 0-1.9-.4-1.4-1.2.4-.7.3-.8-.4-.4-.9.5-.7 1.4.4 3.2 1.5 2.2 1.5 2.4 0 2.4-.9 0-2.1 1.2-2.6 2.6-.7 1.9-1.5 2.4-2.8 2-.9-.3-.4.3 1.1 1.5 1.9 1.4 2.6 2.7 2.2 3.9-.3 1-.2 2.1.3 2.4 1.1.7.3 5.6-.9 5.6-.4 0-1.7-1-2.9-2.2-1.1-1.2-2-1.6-2-1 0 1.7-6.1.8-7.1-1-.5-.8-1-3.4-1.1-5.7-.2-2.9-.8-4.3-2-4.7-1-.3-1.8-1.1-1.8-1.8 0-.8-.7-1.9-1.5-2.6-.9-.7-1.2-2.2-.9-3.9.5-2.4-.2-3.4-5.5-8-3.4-2.9-6.1-6.1-6.1-7 0-.9-.7-2.7-1.6-3.9-1.7-2.4-1.3-2.7 1.7-1.2 1.5.9 1.9.7 1.9-.5 0-1.5-3.6-5.3-4.5-4.8-1 .6-4.5-3.8-4.5-5.6 0-1.1-.9-2.6-1.9-3.3-1.1-.8-2.5-2.6-3.2-4.1-.6-1.4-1.6-2.4-2-2.1-1.2.7-4.9-1.4-8.9-5.1-3.5-3.2-7.6-5-8.2-3.5-.3.8-4.7 1.3-10.6 1.1-2.5-.1-3.5-.6-3.9-2.1-.3-1.1-2.1-2.7-3.9-3.6-1.9-.9-3.4-2.3-3.4-3.2 0-.8-1.1-2.9-2.4-4.6-1.3-1.7-2.6-4.1-3-5.4-.4-1.2-1.2-2.2-1.7-2.2-1.4 0-1.1-5.8.4-6.3.6-.3.2-.6-1-.6-1.3-.1-2.3-.7-2.3-1.4 0-.8-1.2-2-2.7-2.7-1.6-.7-2.3-1.5-1.6-1.7.9-.3 1.1-1.4.7-3-.5-1.8-.3-2.4.5-1.9.7.5 1.1 0 1.1-1.3 0-1.1 1.1-2.8 2.5-3.7 2.4-1.6 2.5-1.8 1-4-1-1.6-1.1-2.4-.4-2.4.8 0 .8-.4-.1-1.5-1.9-2.3-.6-2.8 2.9-1.1 3.9 2.1 4.1 2 4.1-.8 0-1.9.9-2.7 4.3-4 2.3-.9 5.3-1.7 6.7-1.9 4.9-.5 7.1-3 6.9-7.8-.1-2.4.2-7.1.5-10.4 1.3-10.6 1.3-16.9.1-19-1-1.7-2-4.9-3.8-13.2-.2-.7-.6-1.5-.9-1.9-.4-.3-.4-1.2-.1-2 .3-.8-.1-2.2-.9-3.2-.9-.9-1.8-3.5-2.1-5.7-.4-2.6-1.6-4.8-3.4-6.4-1.5-1.4-2.7-2.8-2.5-3.3.5-1.8-1.9-4.8-5.2-6.3-2.7-1.3-3.2-2-2.8-4 .2-1.5-.5-3.6-2.2-5.8-2.9-3.7-3.2-5.8-1.4-8.6.9-1.4.7-2.8-.8-6.5-1-2.5-2.2-4.6-2.6-4.6-.5 0-.8-1.2-.8-2.7 0-1.7-1.2-3.9-3.2-6-2.7-2.8-2.9-3.4-1.7-4.9.8-.9 1.4-3.4 1.4-5.5 0-3.1-.5-4.1-2.5-5.1-4.4-2.2-10.9-8.4-14.7-14-2.6-3.8-11.6-10.2-12.7-9.1-.3.4-.6.1-.6-.5 0-.7-.6-1.2-1.4-1.2-2.1 0-4.1-2.9-2.9-4.1.7-.7 1.7-.2 3.2 1.7 2.5 3.2 3.9 2.5 2.3-1.1-1.5-3.3-1.5-7.2-.1-8.1.8-.4.4-1.3-1.2-2.5-2.1-1.6-2.2-2-.9-3 1.1-.8 1.2-1.2.3-1.6-1.8-.7-1.6-3.3.3-3.3.9 0 1.4-.7 1.2-1.8-.1-.9.1-2.3.5-3 .5-.8.3-1.2-.7-1.2-1.8 0-2.1-1.6-.6-2.5.6-.4 1-1.2.9-1.8-.1-.7-.1-2.6 0-4.2.1-2.6.3-2.8 1.2-1.2.6 1 .8 2.4.6 3.2-.3.7.3 2.1 1.4 3.1 2 1.8 2.6 6.4.9 6.4-.5 0-1 1.8-1 4 0 3.3.3 4 2 4 1.4 0 2 .7 2 2.1 0 1.5-.5 1.9-1.5 1.5-1.7-.6-2.1 1.9-.5 2.9.6.3 1 1.5 1 2.6s.7 1.9 1.7 1.9c.9 0 2.5.8 3.6 1.7 2 1.8 2 1.7 1.4-2-.5-3.4-.4-3.6 1.3-2.7 1.5.8 2.1.6 2.7-.7 1-2.2 1-5.4 0-7.1-.5-.6-.6-1.6-.3-2 .7-1.2-3.2-7.2-4.7-7.2-1.1 0-3.7-3.9-3.7-5.5 0-.2 1.5-.1 3.3.2 2.8.4 3.5.1 4.5-2.1 1.2-2.6 2.3-3.2 3.6-1.9.4.5 1.1.9 1.4.9 4 .8 5.2 1.8 4.6 3.7-.5 1.7-.3 1.9 2 1.3 1.5-.4 3.5-.2 4.4.3 1.4.7 2.3.5 3.5-1 .9-1 1.7-2.5 1.7-3.2.1-1.3 10-7.4 13.8-8.4 1.5-.3 2.1-1.1 1.8-2-.3-.8-.7-2.9-.7-4.6-.1-1.8-.3-2.4-.6-1.5-.2 1-1.4 1.8-2.5 1.8-1.4 0-1.8.5-1.4 1.5.3.9 0 1.5-.9 1.5-.8 0-1.5.8-1.5 1.9 0 4.5-4.7 4.8-9 .6-1.6-1.5-3.3-2.4-3.8-2.1-.5.3-1.5-.1-2.2-.9-1.4-1.7-5.5-2.1-4.5-.4.4.6-.3 1.3-1.5 1.6-1.3.3-1.9 1.1-1.6 1.9.4 1-.4 1.4-2.7 1.4-2.4 0-4.1-.9-6.6-3.5-2.3-2.5-3.7-3.3-4.5-2.6-.8.7-2.1.4-4.1-.9-1.8-1.2-2.4-2-1.5-2.1.9 0 .5-.4-.7-.9-1.3-.5-2.3-1.4-2.3-2 0-.5-.7-1-1.7-1-.9 0-3.1-1.1-4.9-2.5-1.9-1.4-3.1-1.9-2.8-1.2.3.9-.3 1.6-1.5 2-1.6.4-2.1 0-2.1-1.4 0-1-.4-1.9-1-1.9-1.8 0-1 3.5 1.1 4.8 1.3.9 1.9 2 1.6 3.2-.3 1.1.3 2.6 1.4 3.6 1 .9 1.9 2.6 1.9 3.6 0 1.6-.6 1.9-3.2 1.7-1.8-.2-4.3-1.3-5.6-2.5-1.8-1.8-3.3-2.1-7.8-2-3 .1-5.8.6-6.2 1.2-1.1 1.5-6.6 4.9-7.5 4.6-.5-.1-.6.2-.2.8.4.6 0 2.1-.9 3.4-1.3 2.1-1.3 2.6-.1 4.2.8 1.1 1.5 2.8 1.5 4 0 1.2 1.4 4.6 3 7.7 1.7 3.1 3 5.9 3 6.2 0 .3-1.3.5-2.9.5-3.2 0-5.6-2.2-4.7-4.5.6-1.7-1.8-2.1-3.7-.5-.7.6-2 1.6-2.9 2.3-1.8 1.2-3.6 12.7-2 12.7.4 0 .6 3.4.4 7.5-.3 6.6-.7 7.8-2.7 9.1-1.2.8-2.5 2.8-2.8 4.3-.3 1.6-1.3 3.6-2.2 4.4-1.2 1.2-1.3 2.2-.5 4.2 1.5 3.9 1.2 9.1-.5 10.9-1.4 1.4-1.4 1.8.5 3.8 5.5 6.2 5.3 5.8 3.5 7.8-1.5 1.6-1.4 1.8.4 2.3 2.6.7 1.7 4.5-1.5 5.9-1.3.6-2.4 1.8-2.4 2.6 0 .7-.9 1.6-2 1.9-2 .5-2.5 3-2 9 .1 1.8-.2 2.1-1.6 1.6-1.2-.4-1.5-.3-1 .5.4.7.2 1.2-.3 1.2-.6 0-1.1.6-1.1 1.3 0 .8-.9 2.2-2 3.2-1.5 1.3-1.7 2.1-.9 3.1 1.6 1.9 1.9 6.4.4 6.4-.7 0-1.6.7-1.9 1.6-.3.8-1 1.3-1.5 1-.5-.3-2.1.1-3.7.8-1.8 1-3.3 1.2-4.5.6-1.3-.7-1.8-.5-2.2 1.1-.3 1.1-1.5 2.3-2.6 2.6-2.8.7-2.6 1.8.8 6.2 2.5 3.2 2.8 4.2 2.4 8.4-.3 2.6-.9 4.7-1.3 4.7s-1.1.7-1.4 1.6c-.3.8-.2 1.2.4.9.6-.3.7.1.4.9-.9 2.2-9 2.2-9.8 0-.3-.9-1.2-1.4-1.9-1.1-.9.3-2-1.3-3.2-4.9-1.3-3.9-2.3-5.4-3.7-5.4-1 0-1.8-.6-1.8-1.3 0-1.7 4.8-8.7 6-8.7 1.6 0 1.1-1.9-1.2-5-1.7-2.3-2.2-4.5-2.3-9.5-.1-5 .2-6.4 1.2-6.1.7.3 1.3.2 1.3-.3 0-.4 1.2-.6 2.8-.3 2.4.5 2.5.3 1.4-1.1-1.1-1.3-1.1-1.7.1-2.4 2.1-1.2 2.8-5.1 1-5.8-2.3-.8-.9-7.2 2.2-10 1.4-1.3 2.5-2.8 2.5-3.4 0-.5 1.2-1.1 2.6-1.3 2.5-.3 2.6-.4 3.1-10.8.3-5.8.7-10.7.9-10.9.2-.2 1.1.2 2.1 1 1.5 1.2 1.6 1.2 1.1-.2-.4-.9-.3-2 .1-2.5.5-.5.3-2.2-.3-3.7l-1.2-2.8-2.6 2.1c-3.1 2.4-5.4 2.6-6.2.5-.3-.8-1.1-1.5-1.8-1.5-2.1-.1-7.1-4.7-6.4-5.8.4-.6-.2-1.6-1.3-2.1-1.1-.6-2.6-1.7-3.3-2.5-2.2-2.1-5.5-2.9-6.1-1.3-.3.8-1.5 1.3-2.8 1.2-1.7-.1-3.1-1.6-5.2-5.5-1.6-3-3-6.5-3.2-7.9-.2-1.4-.4-3.1-.5-3.6-.1-.6-.5 0-1 1.2-.5 1.3-1.4 2.3-2 2.3-.6 0-.9-.3-.7-.8.3-.4-.6-1.5-1.9-2.5-1.4-1-2.4-1.3-2.4-.7 0 .7-.8.9-2.2.4-1.3-.4-3.4-.7-4.8-.8-2-.1-2.5-.6-2.5-2.9.1-1.8-.4-2.7-1.5-2.7-1.2 0-1.6-1-1.5-3.9 0-3.7.1-3.8 1.8-2.4 1 1 1.7 1.2 1.7.5s.5-1.2 1-1.2c.6 0 1 .7 1 1.5 0 2.7 1.7 1.6 3.4-2.3 1.2-2.6 3.7-5 8.4-8.2 3.7-2.5 6.7-5 6.7-5.7 0-.6.3-1.4.7-1.8.4-.4.1-1.6-.5-2.7-1-1.6-.9-2.2.6-3.2.9-.7 1.7-1.8 1.7-2.5 0-.6.5-1.1 1-1.1.6 0 1-.9 1-2 0-1.5.6-1.9 2.2-1.7 1.5.1 2.6-.5 3.3-2.1.5-1.2 1.3-2.2 1.7-2.2 1.2 0 1-5.8-.3-8.1-.7-1.4-1.6-1.8-3-1.4-1 .4-1.9.2-1.9-.3s-1.2-1.4-2.6-2.1c-2-.9-2.5-1.7-2.3-3.9.2-1.6-.5-4.1-1.4-5.6-1-1.5-2-5-2.2-7.8-.3-3.3-1-5.4-2.2-6.3-1.5-1.1-1.6-1.9-.7-5.2 1.2-4.5.2-6.9-4.5-11.5-1.7-1.7-3.1-3.8-3.1-4.8s-.6-3.1-1.4-4.7c-.7-1.5-2.4-5.1-3.7-7.8-1.6-3.4-3.1-5.1-4.6-5.3-2.7-.4-5.4-3.3-3.5-3.9 2-.7 1.4-3.8-1.3-6.3-1.4-1.3-2.5-3.4-2.5-4.6 0-1.3-1.1-4-2.5-6-3-4.5-3.1-5.4-.4-8.2 1.1-1.2 1.7-2.7 1.4-3.3-.4-.5-.2-1.6.5-2.4.8-1 .8-2.4 0-5.4-.9-3.4-1.4-4-3.8-3.9-3.3.1-7.5-1.9-6.7-3.3.4-.5-.2-.9-1.3-.9-3.2 0-2.2-4.1 1.5-6.5 3.8-2.4 4.4-5.4 1.1-4.9-1.3.2-5.1.5-8.5.8-5.9.4-6.2.3-6-1.7.2-1.7-.4-2.3-2.5-2.5-1.9-.2-2.8.1-2.8 1.1 0 .8-1.3 1.7-3 2-3.1.7-4.2 2.7-1.4 2.7 1.5 0 4.9 2.7 4.9 3.9 0 .3.9 2.5 2 4.8 1.4 2.9 2.6 4.3 4 4.3 1.8 0 1.7.2-.7 2.4-1.6 1.3-2.8 2.9-2.8 3.5 0 1.9-5 3.8-5.9 2.2-.6-.9-1.1-.8-2.1.4-.8.9-2 1.3-3.2.9-1.4-.4-2.1 0-2.5 1.4-.3 1.1-1.5 2.3-2.8 2.6-3.4.9-6.9 7.2-5.7 10.5 1 2.8 1.2 4 1.6 13.9.2 4.3-.1 6.6-1.1 7.3-.7.7-2.1 2.7-2.9 4.5-.9 1.9-2.3 3.4-3 3.4-1.2 0-1.2.4-.2 1.9.7 1.1 1.5 1.8 1.9 1.5.4-.2 1.6 1 2.6 2.7 1 1.7 3.5 4 5.5 5 3.7 1.9 3.7 2 3.1 6.4-.5 4.1-.4 4.5 1.6 4.5 1.1 0 2.1-.4 2.1-1 0-.5 2.4-.7 5.8-.5 8.2.7 8.2.7 8.2 2.5 0 2.4 2.4 4.2 6 4.4 2.8.2 3.1-.1 3.6-3.6.8-4.4 2.4-4.8 5.2-1.3 2.3 2.9 3.7 3.2 5 .9.8-1.3 1-1.4 2.1 0 .9 1.1 1 2 .1 3.6-1.5 2.7-.8 3.4 3.3 3.2 8.7-.2 10 2 6 10.4-3.1 6.8-3.1 8.6.3 13.5 2.9 4.3 3.1 7.5.4 8.2-1.2.3-3 2.6-4.4 5.6-1.3 2.9-3.2 6.1-4.1 7.1-1.5 1.7-1.6 2.5-.7 4.5.9 2 .8 3.1-.9 6-2.4 4-2 5 2.1 5.9 3.3.6 5.1 3.3 3 4.6-1.3.8-.5 5 1 5 .5 0-.3 2.2-1.7 5-2.7 5.3-3.7 6-4.7 3.4-.4-1-1.3-1.3-2.5-.9-2.1.6-7.3-1.4-6.5-2.6 1-1.7-2.9-2.6-7.5-1.7-4.9.9-9.5-.3-10.5-2.7-.2-.7-3-2.4-6.1-3.9-3.1-1.4-6.8-3.4-8.2-4.6-1.4-1.1-3-1.7-3.5-1.4-.5.3-2.3-.5-4.1-1.9-3-2.2-3.2-2.9-2.9-6.8.2-2.4.9-4.9 1.4-5.6.7-.9-.5-2.7-4.1-6.4-2.8-2.8-5.1-5.8-5.1-6.6 0-1-1.1-1.3-3.8-1.2-2 .2-4.6-.3-5.7-.9-1.6-.9-1.7-1.1-.4-1.2 2 0 3.2-3.9 1.7-5.7-.8-.9-.7-1.3.2-1.3 1.7 0 .5-4.7-2.1-8.3-1.1-1.6-2.3-4.4-2.6-6.3-.4-2.5-1.4-3.9-3.4-5-1.6-.8-2.9-2.1-2.9-2.9 0-.8-.9-2.4-2-3.5-1.4-1.4-1.6-2.1-.7-2.7 2.6-1.7 3.5-4.7 2-6.9-1.2-1.9-1.1-2.4.6-4.5 1.4-1.7 1.6-2.7.8-4-.7-1.1-.5-3 .6-6.3 1.6-4.6 1.5-5-.3-8.7-1.4-2.6-2.5-3.7-3.5-3.3-1.8.7-2.3-.6-2.9-7.3-.2-2.9-.7-5.7-1-6.2-1-1.5.5-4.1 2.3-4.1 1.5 0 1.6-.5.7-4.5-.6-2.5-1.6-4.5-2.2-4.5-.6 0-1.7-.7-2.5-1.6-1-1.2-1-1.7 0-2.3.9-.6.7-1.7-.9-4.4-2.4-4.1-4.7-4.6-8.4-2.2-2.2 1.5-2.7 1.4-7.1-1.6-2.6-1.7-4.3-3.4-3.7-3.8.5-.3 1.2-1.6 1.6-2.7.6-2.1-1-3.7-4.1-3.9-1.8-.1-9.3-7.6-9.3-9.3 0-1-.7-1.2-2.5-.8-1.5.4-2.5.2-2.5-.4 0-.6-1.7.5-3.7 2.5s-4.3 3.3-5 3.1c-.7-.3-1.3.1-1.3 1 0 1.3-1.3 1.4-7.7 1-4.3-.2-9.9-1.1-12.6-1.9-2.6-.8-4.9-1.1-5.2-.7-.3.4-1.4.6-2.5.3-1.5-.4-2-1.4-2-4.2 0-3-.5-4-2.6-5.1-1.4-.8-2.8-2.6-3.1-4.2-.3-1.6-1.9-3.8-3.5-4.9-2.1-1.5-2.6-2.4-1.9-3.3.7-.9.7-1.6 0-2.3-.8-.8-.8-2-.1-4.2 1-2.9 0-5.3-1.5-3.7-.4.3-.1.6.5.6s.9.7.6 1.5c-1 2.5-1.9 1.8-6.7-4.7-4.5-6-5.2-7.9-2.5-6.2.7.5 2 .9 2.8 1.1.8.1 2.1 1.1 2.9 2.2 2 3 3.8 2.6 4.5-1.2 1.1-5.5 1.7-6 6.4-4.5 2.3.7 4.2 1.6 4.2 2 0 1.4 5.8 3.9 6.5 2.7.5-.7 1.2-.6 2.2.3.8.7 3.1 1.8 5 2.4 2.8 1 3.5 1 4-.2.3-.8 1.3-1.4 2.2-1.2.9.1 3.7-.4 6.3-1.1 3.9-1.1 4.8-1.8 5.3-4.2.5-2.2 1.2-2.9 2.9-2.9 1.9 0 2.2-.4 1.9-2.4-.3-1.4-1.4-3.3-2.4-4.2-2.2-2-2.5-3.4-.6-3.4 2.2 0 3.7-4.5 2.7-7.9-.5-1.7-.6-3.1-.2-3.1.3 0 .1-.5-.5-1.1-1.5-1.5-.4-5.9 1.3-5.2.9.3 1.4-.2 1.4-1.5 0-1.1-.8-2.2-2-2.5-1.2-.3-2-1.4-2-2.6 0-1.2-.7-3.2-1.5-4.5-.8-1.2-1.6-3.5-1.7-5-.3-3.2-2.5-4.6-3.9-2.5-1.1 1.9-6.7-1.1-12.3-6.6-3.8-3.7-3.9-4-1.9-4.3l2.2-.3-1.9-3.2c-1.6-2.6-2.6-3.2-5.7-3.3-2.1 0-4.6.3-5.5.8-1 .4-2.6 1.2-3.7 1.7-1.4.8-2.4.4-4-1.3-1.1-1.2-2.1-2.8-2.1-3.4 0-1.1-1.3-1.6-3.2-1.3-1.2.2-.9-2.4.4-3.7.9-.9.7-1.2-1.1-1.2-1.2 0-1.9-.4-1.6-1 .3-.6.3-1-.2-1-.4 0-1.5-1.3-2.5-2.9-1.5-2.8-1.5-3 .2-4.6 1.8-1.6 1.9-3.1 1.1-10.2-.1-1.6-5.3-6.3-6.8-6.3-.7 0-1.3-.5-1.3-1.1 0-.5-.6-.7-1.2-.3-1 .6-1 .5-.1-.8.7-.8 1-1.8.6-2.1-.3-.4-.1-.7.6-.7s.4-1.4-.9-4-1.8-4.9-1.4-6.6c.5-1.8 0-3.4-1.5-5.5-1.3-1.7-2-3.7-1.6-4.8.4-1.2-.3-2.2-2.2-3.2-5.4-2.7-5.7-4.9-.7-4.9 3.3 0 3.5-.2 2.3-1.7-1.3-1.5-1.1-1.6 2.1-1.1 3.4.6 8-1.6 8-3.9 0-.4.9-1.4 2-2.1 1.1-.7 2-1.8 2-2.5 0-1.3-4.5-3.7-7.1-3.7-1 0-1.9-.5-2.1-1-.2-.7-.8-.6-1.6.2zm166.8 190.7c0 .5-.7 1.2-1.6 1.5-1.4.5-1.5.4-.4-.9 1.4-1.7 2-1.9 2-.6zm1.5 3.2c1.1 1.7-.1 2.1-1.5.4-.8-.9-.8-1.5-.2-1.5.6 0 1.4.5 1.7 1.1zm-397.5 43c0 .5.7.9 1.5.9s1.5.4 1.5 1c0 1.3 5.2 6 6.7 6 .7 0 1.3.6 1.3 1.4 0 .7 1.1 2.5 2.5 4 2.5 2.7 3.3 5.6 1.5 5.6-.5 0-.7.7-.4 1.5.3.8-.2 2.2-1.1 3.1-2 2-3.1.9-4.2-4-.8-3.6-9.1-12.6-10.1-10.9-.9 1.4-5.7.6-7.3-1.3-.6-.7-1.2-2.5-1.4-3.9-.1-1.4-1.2-3.6-2.4-4.9-3.1-3.3-2.6-3.8 2.4-3 3.3.4 4.5.3 4.5-.6 0-.7 1.1-.1 2.5 1.4s2.5 3.1 2.5 3.7zm-2 39.3c0 .7 1.1 1.6 2.5 1.8 2.5.5 3.5-.7 1.3-1.5-.7-.2-1-.8-.6-1.2 1-1.1 5 4.1 6.4 8.3 1.1 3 1 3.4-1.2 4.8-2 1.4-2.8 1.4-5.4.3-1.6-.8-3-2.2-3-3.1 0-.9-.5-2-1.1-2.4-.8-.5-.7-.9.1-1.4.8-.5 1-1.5.5-2.6-1.3-3-1.4-4.4-.4-4.4.5 0 .9.6.9 1.4zm564 74.6c0 .5-.4 1-1 1-.5 0-1-.5-1-1 0-.6.5-1 1-1 .6 0 1 .4 1 1zm-134 17.5c0 4.2-3 6.5-5.1 3.8-1.2-1.5-1.2-1.6.4-1 2.1.8 2.2 0 .1-2.1-1.6-1.5-1.5-1.7 1.2-2.9 1.6-.7 3-1.2 3.2-1.3.1 0 .2 1.6.2 3.5zm128 5.5c0 .5-.4 1-1 1-.5 0-1-.5-1-1 0-.6.5-1 1-1 .6 0 1 .4 1 1zm-113 122.5c1.1 1.3 1 1.4-.4.9-.9-.3-1.6-1-1.6-1.5 0-1.3.6-1.1 2 .6zm29 .5c0 .5-.2 1-.4 1-.3 0-.8-.5-1.1-1-.3-.6-.1-1 .4-1 .6 0 1.1.4 1.1 1zm242.2 181.7c2.4 2.1 2.2 6.2-.3 9.3-2.1 2.4-2.1 2.4-3.6.5-.9-1.3-1.2-3.1-.8-5.2.3-2 .1-3.4-.7-3.9-.8-.5-.6-1 .8-1.5 2.7-1.1 2.5-1.1 4.6.8zm-34.2 32.2c0 1.2-2 2.5-2.7 1.8-.7-.7.6-2.7 1.8-2.7.5 0 .9.4.9.9zm-32 11.5c0 .8-.4 1.8-1 2.1-.5.3-1 .4-1 .1 0-.2-.3-1.1-.6-2-.4-1.1-.1-1.6 1-1.6.9 0 1.6.6 1.6 1.4zm-537.8 3.8c-.9.9-1.5.9-2.4 0-.9-.9-.7-1.2 1.2-1.2s2.1.3 1.2 1.2z"/><path d="M386.575 45.9c0 .5.5 1.1 1.2 1.3.7.3.8.9.2 1.9-.5.8-.9 1.6-.9 1.9-.1 1.6-2.3 3.8-3.9 4.1-2.5.5-4.5 3.7-3 4.7 1.4.9.6 8.2-.9 8.2-.6 0 .1 1.2 1.5 2.7 1.4 1.6 2.9 3.9 3.3 5.3 1.5 5.1 7.5 8.8 7.5 4.6 0-.8 1.1-1.1 3.3-.8 3.9.5 6.3 2.2 4.7 3.2-.6.4 1.7 1.9 5 3.4 4 1.8 6 3.2 5.6 4.1-.4 1.1 1.3 2.5 3 2.5.3 0 1.2-1.6 2-3.6 1.4-3.4 1.3-3.8-1.4-9.7-2.3-4.8-3.8-6.6-6.4-7.9-3-1.4-3.6-2.2-4.1-5.9-.4-3.2-1.4-5-3.5-6.9-1.7-1.4-4.2-4.8-5.6-7.6-2.3-4.7-4.1-6.4-6.7-6.4-.5 0-.9.4-.9.9zM421.575 81.9c0 .5.5 1.3 1 1.6.6.3 1 .2 1-.4 0-.5-.4-1.3-1-1.6-.5-.3-1-.2-1 .4zM427.575 89c0 .5-.9 1.8-2 2.8-2.1 1.9-2.1 1.9 2.3 2.5 5.2.7 8.7 0 8.7-1.9 0-.9-1.1-1.4-3-1.4-2 0-3-.5-3-1.5 0-.8-.7-1.5-1.5-1.5s-1.5.4-1.5 1zM170.575 184.6c0 1-.6 1.4-1.4 1.1-1-.4-1.3-.1-.9.9.7 1.8 2.2 1.8 2.9-.1.4-.8 1-1.2 1.5-.9.5.3.6-.2.3-1-.8-2.1-2.4-2-2.4 0zM19.575 215.7c0 .5.5 1.5 1 2.3.8 1.2 1 1.1 1-.8 0-1.2-.4-2.2-1-2.2-.5 0-1 .3-1 .7zM21.975 222.5c-.7 1.7.3 3.5 1.9 3.5.8 0 .8-.3 0-1.1-.6-.6-.9-1.8-.6-2.5.3-.8.2-1.4-.1-1.4-.4 0-.9.7-1.2 1.5zM196.375 329.7c-1 .3-1.8 1.6-2 3.6-.2 2.2-1.1 3.5-2.8 4.4-2 1-2.6 1-2.9 0-.2-.7-1.2-2-2.1-2.9-1.5-1.4-1.9-1.5-2.4-.3-.6 1.7-5.2 2-8.9.6-2.3-.9-2.5-.7-3.1 2.9-.3 2.1-.3 4.6 0 5.4.8 2.2 4.4 2.1 4.4-.2.1-1.5.2-1.5 1.3-.2.7.9 3.3 1.6 6.5 1.8 4.9.2 5.2.1 5.2-2.2 0-2.5 4.4-5.6 8-5.6 2.3 0 3.2-2.4 2-5.5-.5-1.4-1.1-2.4-1.2-2.4-.2.1-1.1.3-2 .6zM706.675 338.9c-1.2 2.2-.5 2.7 1.9 1.1 1.1-.7 1.2-1.2.3-2.1-.8-.8-1.4-.6-2.2 1zM191.575 343.9c0 .5 1.1 1.1 2.5 1.3 1.7.4 2.5.1 2.5-.8 0-.8-1.1-1.4-2.5-1.4s-2.5.4-2.5.9zM154.975 349.2c-.3.4-.1.8.5.8.5 0 1.7.3 2.5.6 1.1.4 1.5.2 1.1-.8-.6-1.6-3.3-2-4.1-.6zM150.575 350.9c0 1.4.6 1.9 2 1.8 1.1-.1 2-.5 2-.9s-.9-1.2-2-1.8c-1.7-.9-2-.8-2 .9zM167.175 351.9c-1.5 1.6-2.3 1.7-5.3.9-4.7-1.3-5.2-.4-1.8 3.2 3.4 3.6 4.2 3.7 5 .7.4-1.2 1.7-3 2.8-3.9 1.2-.9 1.9-1.9 1.6-2.2-.3-.4-1.4.2-2.3 1.3zM145.075 356c-.3.5.1 2.2.9 3.8.9 1.8 1.1 3.3.5 4.3-1.5 2.4-3 8.6-2.3 10.3.3.8 1.4 1.8 2.5 2.1 1.2.4 1.9 1.6 1.9 3.1 0 2-.6 2.5-4 3-2.2.4-4 1-4 1.4 0 .4-1.3 2.2-2.9 3.9-2.7 2.9-2.8 3.2-1.1 4.1 1.3.7 2 .6 2.3-.3.4-.8.8-.9 1.4-.2 1.2 1.5 10.3 1.5 10.3 0 0-.7 1.2-2 2.6-3 1.8-1.2 2.3-2.1 1.8-3.3-1.7-4.1-2-16.2-.3-19.3.8-1.6.5-2.1-1.8-3.2-3.5-1.5-6.2-4.7-5.6-6.4.6-1.5-1.3-1.8-2.2-.3zM179.675 362.1c-3.5 3.2-4.1 4.2-3.1 5.2 1 .9 1.1.9.6-.1-.4-.6-.2-1.2.4-1.2.6 0 1 1.2.8 2.7-.2 2-.8 2.8-2 2.7-1-.1-1.8.4-1.8 1.2 0 1.9 3.6 1.8 4.4-.2.4-1 1.4-1.4 2.5-1.1 1.4.3 1.7 0 1.3-1.5-.2-1 .3-2.7 1.3-3.8 1-1.1 1.5-2.6 1.2-3.5-.4-.8-.2-1.5.2-1.5.5 0 1.1-.7 1.5-1.5 1.1-2.9-3-1.5-7.3 2.6zM159.875 363.1c-1.1 2.8-.9 3.4 1.1 5.6l2.4 2.5-.5-2.4c-.3-1.5.2-2.9 1.1-3.7 2-1.7 2-3.7 0-4.5-2.5-1-2.9-.8-4.1 2.5zM165.775 365.6c-1.4 1.5-.7 1.7 2.2.5 1.5-.6 1.6-.9.5-1.3-.8-.3-2 .1-2.7.8zM527.375 366.9c-1 1-1.5 2-1.2 2.4 1 1 3.4-.4 3.4-2 0-.8.5-1.1 1-.8.6.3 1 .1 1-.4 0-1.6-2.3-1.2-4.2.8zM152.475 392.1c-1.3 1-2.9 1.9-3.6 1.9-.6 0-3 1.6-5.2 3.7-3 2.6-3.8 3.9-3.1 4.8 1.3 1.6-3.1 2.9-6.2 1.9-2.5-.8-4 1.3-2.7 3.8 1 1.9.1 4.4-2.6 7.1-1.3 1.3-1.1 1.6 1.1 2.1 2.3.6 2.5 1 1.8 3.9-.3 1.8-1 3.3-1.5 3.5-1.5.6-1.1 6.2.4 6.2.8 0 1.9 1.1 2.5 2.5.9 2 1.7 2.4 3.6 1.9 2.7-.6 4.6 2.3 2.1 3.2-.8.3-1.7 1.4-2 2.5-.4 1-1.2 1.9-2 1.9-1.1 0-3 2.9-2.3 3.5 1.8 1.8 7.8-.6 7.8-3 0-.8.4-1.5.8-1.5 1.8 0 2.9-4.4 1.8-7.3-.8-2-.8-3 .1-3.5.8-.5.9-2.1.3-5.2-.7-4-.6-4.7 1.6-6.7 1.3-1.2 2.4-3 2.4-4 .1-2.6 4.8-7.6 6.5-6.9.9.3 1.5-.1 1.5-1 0-.8.4-1.3.9-1 .5.4 1.7.3 2.7-.1 1.6-.6 1.6-.7-.2-2-1.6-1.2-1.6-1.3-.1-1.3 1 0 1.7-.8 1.7-2 0-1.1-.4-2-.9-2-1.7 0-2.1-3.3-.7-4.9 1.4-1.5 1.3-1.8-1.3-2.8-2.3-.8-3.3-.7-5.2.8z"/><path d="M131.575 437c0 .5.5 1 1 1 .6 0 1-.5 1-1 0-.6-.4-1-1-1-.5 0-1 .4-1 1zM137.575 450.4c0 .9.5 1.6 1 1.6.6 0 1-.4 1-.9 0-.6-.4-1.3-1-1.6-.5-.3-1 .1-1 .9zM265.575 576.5c0 1 2.9 2.4 3.4 1.7.3-.6-.3-1.2-1.4-1.5-1.1-.3-2-.4-2-.2zM817.575 644.6c0 .9.5 1.4 1.2 1.2 1.8-.6 2.1-2.8.4-2.8-.9 0-1.6.7-1.6 1.6zM829.675 707.6c0 1.1.3 1.4.6.6.3-.7.2-1.6-.1-1.9-.3-.4-.6.2-.5 1.3zM718.575 748.9c0 .5.7 1.5 1.7 2.2 1.5 1.3 1.5 1.2.4-.9-1.2-2.3-2.1-2.8-2.1-1.3zM779.075 758.9c-.3.5-.1 1.2.4 1.5.5.3 1.1-.1 1.5-.9.6-1.6-.9-2.1-1.9-.6zM744.575 791.9c0 .5.7 1.1 1.5 1.5.8.3 1.5.1 1.5-.3 0-.5-.7-1.1-1.5-1.5-.8-.3-1.5-.1-1.5.3zM426.175 798.7c-.6 1.4-.5 1.5.5.6.7-.7 1-1.5.7-1.8-.3-.3-.9.2-1.2 1.2zM556.575 840.6c0 1.1-.6 1.5-1.8 1.2-1.5-.4-1.8-.1-1.4 1.9.2 1.3 1.3 2.8 2.3 3.4 1.6.8 2.1.6 2.8-1.3.5-1.4.5-2.5-.2-2.9-.5-.4-.7-1.1-.3-1.7.3-.6.2-1.3-.4-1.7-.5-.3-1 .1-1 1.1zM695.575 841c0 .4 1.2 1.7 2.6 3.1 2.3 2 2.5 2.1 1.7.4-.6-1.1-.8-2.5-.6-3.2.3-.7-.4-1.1-1.6-1-1.2.1-2.1.4-2.1.7zM561.075 842.9c-.3.5.4 1.2 1.4 1.6 1.1.3 2.7 1.9 3.5 3.6 1.6 3.1.7 3.8-1.8 1.4-.8-.8-2-1.5-2.6-1.5-.7 0 .2 1.4 1.9 3.2 1.7 1.7 3.1 3.7 3.1 4.2 0 1.7 3.5 3.5 5.7 3 2.5-.7 7.4 4.3 5.4 5.5-1 .7-.3 2 2.9 5.5 2.3 2.5 4.9 4.6 5.6 4.6.7 0 1.8.9 2.4 2 .9 1.7 1.8 2 5.1 1.6 3.6-.5 3.9-.3 3.4 1.4-.5 1.6-.2 2 1.9 2 1.6 0 2.6-.6 2.6-1.5 0-.8.7-1.5 1.5-1.5.9 0 1.2-.6.8-1.5-.3-.9-.8-1.4-1-1.1-1.3 1.3-3.6-2.9-3.7-6.6-.1-3.2-.7-4.5-2.7-6-2.3-1.7-3.1-1.8-6.9-.8-3.4.9-4.5.9-5.1-.2-.5-.8-.3-1.7.6-2.4 2.1-1.5 1.9-2.4-.5-2.4-1.1 0-2-.7-2-1.5 0-.9-.7-2.7-1.6-4-1.5-2.3-1.5-2.5 0-2.5.9 0 1.6-.4 1.6-.9 0-1.1-4.3-2.3-5-1.3-.3.4-2 .7-3.8.8-1.8.1-3-.1-2.7-.4.8-.8-5.7-5.2-7.6-5.2-1 0-2 .4-2.4.9zM550.075 848c.3.5 1.1 1 1.6 1 .6 0 .7-.5.4-1-.3-.6-1.1-1-1.6-1-.6 0-.7.4-.4 1zM555.375 852.7c.7.3 1.6.2 1.9-.1.4-.3-.2-.6-1.3-.5-1.1 0-1.4.3-.6.6z"/><path d="M586.575 860c-.9.6-1 1-.3 1 .6 0 1.5-.5 1.8-1 .8-1.2.4-1.2-1.5 0zM652.575 862.9c0 1.1-.6 2.4-1.4 2.8-1.3.8-5 7.8-5.2 9.8 0 .5.6 1.8 1.4 2.7 1.1 1.4 1.8 1.5 2.8.7 1.1-.9 2-.7 3.9.5 3.1 2 3.5 2 3.5-.3 0-2-2.3-4.5-3.3-3.5-.3.3-.4-2.6-.2-6.5.3-3.9 0-7.3-.5-7.6-.6-.3-1 .3-1 1.4zM655.575 862c0 .5.5 1 1 1 .6 0 1-.5 1-1 0-.6-.4-1-1-1-.5 0-1 .4-1 1zM616.575 890.9c0 .5.5 1.3 1 1.6.6.3 1 .2 1-.4 0-.5-.4-1.3-1-1.6-.5-.3-1-.2-1 .4zM753.575 893c0 .5.5 1 1.1 1 .5 0 .7-.5.4-1-.3-.6-.8-1-1.1-1-.2 0-.4.4-.4 1zM790.975 894.5c-1 .8-1.4 1.5-.8 1.5.6 0 1.7-.7 2.4-1.5 1.6-1.9.9-1.9-1.6 0zM741.275 936.5c-.3.7.3 2.4 1.4 3.6 1.1 1.3 1.8 3.1 1.6 4.1-.3 1-.2 2 .3 2.3.9.5 2.1-6 1.4-7.8-.2-.7-1.3-1.8-2.3-2.4-1.5-1-2-.9-2.4.2zM744.975 955.1c-.4.8-.3.9.4.5s1.2-.3 1.2.3 1.2 1.7 2.8 2.5c2.6 1.3 2.7 1.3 2.8-1.1.2-1.9-.2-2.4-1.6-2-.9.2-2.4 0-3.3-.4-1-.6-1.8-.5-2.3.2z"/></g></svg>