<?xml version="1.0" standalone="no"?>
<!DOCTYPE svg PUBLIC "-//W3C//DTD SVG 20010904//EN"
 "http://www.w3.org/TR/2001/REC-SVG-20010904/DTD/svg10.dtd">
<svg version="1.0" xmlns="http://www.w3.org/2000/svg"
 width="249.133835pt" height="659.887324pt" viewBox="0 0 249.133835 659.887324"
 preserveAspectRatio="xMidYMid meet">
<metadata>
Created by potrace 1.15, written by Peter Selinger 2001-2017
</metadata>
<g transform="translate(-859.532352,1337.671545) scale(0.100000,-0.100000)"
fill="#222222" stroke="none">
<path d="M8600 13349 c5 -18 7 -36 4 -40 -3 -5 2 -12 10 -15 9 -3 16 -14 16
-23 0 -10 12 -24 26 -31 21 -12 25 -20 23 -52 -2 -20 0 -40 4 -44 4 -4 7 -19
7 -33 0 -13 10 -35 22 -48 23 -24 27 -85 8 -108 -7 -8 4 -11 36 -11 32 1 50
-4 59 -17 7 -10 19 -15 28 -11 8 3 26 0 38 -7 13 -6 24 -8 26 -3 5 14 80 4 94
-12 6 -8 20 -14 31 -14 10 0 34 -7 53 -14 44 -19 44 -9 -1 35 -23 23 -33 40
-30 53 3 12 -4 26 -18 37 -13 10 -27 30 -30 45 -5 20 -12 25 -26 21 -13 -3
-20 0 -20 9 0 8 -10 14 -24 14 -14 0 -28 5 -31 10 -3 6 -2 10 3 10 5 0 7 12 4
28 -5 30 5 25 22 -10 14 -29 59 -39 50 -11 -4 10 -18 28 -32 40 -20 17 -23 25
-14 35 16 19 -1 41 -35 45 -15 2 -41 9 -57 15 -22 9 -31 9 -33 1 -3 -7 -14 -9
-32 -3 -48 14 -71 30 -77 55 -3 14 -10 26 -15 26 -5 1 -14 2 -21 3 -6 0 -12 9
-14 19 -3 23 -3 23 -36 31 -26 6 -26 5 -18 -25z"/>
<path d="M9210 12866 c0 -14 5 -26 10 -26 6 0 10 -5 10 -11 0 -7 -12 -9 -32
-5 -20 3 -40 0 -50 -8 -16 -12 -15 -16 16 -50 30 -32 33 -41 29 -78 -4 -29 -3
-39 5 -34 7 4 21 -8 34 -28 13 -19 30 -37 39 -39 10 -3 19 -20 23 -43 4 -22 9
-47 12 -56 4 -12 0 -18 -11 -18 -12 0 -15 -5 -10 -17 4 -10 9 -36 10 -58 2
-22 10 -57 19 -77 20 -47 21 -78 1 -78 -8 0 -15 -2 -15 -5 0 -18 54 -133 71
-151 11 -12 19 -25 17 -30 -1 -5 3 -19 10 -31 9 -16 10 -29 3 -41 -7 -13 -7
-22 0 -29 14 -14 17 -52 9 -107 -5 -34 -3 -49 7 -58 14 -11 13 -46 -2 -98 -3
-9 4 -19 18 -25 31 -14 32 -76 0 -90 -18 -7 -21 -15 -16 -40 3 -16 12 -33 19
-38 7 -4 12 -13 10 -20 -1 -6 -1 -9 1 -4 8 13 21 7 26 -13 4 -17 2 -20 -14
-15 -27 9 -24 -9 15 -90 26 -51 32 -73 24 -82 -7 -9 -6 -14 6 -19 10 -4 15
-12 12 -19 -3 -8 1 -16 9 -19 7 -2 15 -17 17 -32 2 -15 9 -30 17 -32 8 -3 11
0 7 7 -5 7 -1 9 9 5 14 -6 14 -8 -1 -26 -13 -14 -28 -18 -56 -15 -21 2 -38 0
-38 -5 0 -4 -11 -6 -25 -2 -14 3 -25 2 -26 -2 0 -5 -2 -40 -2 -77 -1 -43 -7
-71 -15 -76 -13 -8 -14 -69 -1 -77 4 -2 12 3 19 11 7 8 16 15 20 15 14 0 29
-143 20 -190 -5 -26 -4 -52 1 -62 6 -11 5 -19 -1 -23 -8 -5 -7 -11 0 -21 9
-10 8 -24 -5 -58 -13 -35 -23 -45 -46 -50 -21 -4 -29 -11 -29 -27 0 -13 -5
-19 -13 -16 -13 5 -39 -17 -31 -26 10 -10 -25 -77 -40 -77 -10 0 -16 -9 -16
-24 0 -17 -7 -26 -25 -30 -16 -4 -25 -13 -25 -26 0 -10 -7 -23 -17 -28 -14 -8
-13 -12 10 -27 15 -9 27 -24 27 -33 0 -8 7 -20 15 -26 10 -7 17 -34 21 -76 2
-36 5 -70 6 -75 1 -6 -17 -50 -40 -98 -23 -47 -42 -93 -42 -100 0 -7 -4 -17
-9 -23 -13 -13 -18 -93 -6 -97 7 -3 6 -8 -1 -18 -6 -8 -9 -39 -6 -69 2 -30 3
-71 2 -90 0 -19 -1 -54 -2 -77 0 -30 -5 -43 -15 -43 -12 0 -12 -3 1 -22 14
-20 14 -24 -4 -43 -11 -12 -22 -34 -26 -50 -5 -26 0 -34 36 -62 l42 -32 -31
-16 c-17 -8 -31 -17 -31 -20 0 -8 93 -66 97 -61 10 10 54 -67 48 -82 -6 -17
33 -57 66 -67 27 -9 29 -72 4 -111 -7 -11 -15 -35 -16 -52 -3 -25 3 -38 29
-62 18 -16 39 -30 45 -30 7 0 23 -7 35 -16 12 -8 22 -12 22 -7 0 4 7 -3 16
-15 8 -12 21 -22 28 -22 16 0 29 -27 20 -41 -3 -5 -12 -9 -19 -9 -15 0 -13
-15 8 -57 12 -27 47 -31 47 -6 0 36 35 103 53 103 10 0 16 4 12 9 -3 5 10 15
29 21 39 12 45 27 35 83 -5 32 -4 37 13 37 11 0 33 -8 49 -17 28 -17 29 -16
58 13 17 16 31 36 32 44 0 11 2 11 6 2 3 -7 17 -19 33 -27 23 -12 30 -12 46
-1 12 9 27 11 46 5 21 -6 28 -4 28 7 0 8 9 14 20 14 12 0 26 12 35 30 14 26
18 28 42 19 15 -5 33 -19 40 -29 18 -26 55 -25 78 0 10 11 25 20 33 20 12 0
12 2 1 17 -13 15 -11 16 12 10 23 -6 28 -1 56 51 28 53 29 59 15 80 -13 20
-13 22 1 16 17 -6 55 26 50 43 -2 6 7 27 20 46 19 27 25 54 30 120 4 50 3 97
-3 112 -13 35 -13 45 3 45 7 0 30 17 50 38 26 27 37 47 37 69 0 33 61 108 82
101 19 -7 52 28 44 47 -3 10 -13 15 -21 12 -8 -4 -24 3 -37 13 -13 11 -18 19
-11 20 7 0 15 24 19 60 4 37 11 59 18 57 6 -2 19 5 30 15 11 10 26 18 33 18 7
0 13 8 13 19 0 10 11 30 25 45 20 21 23 31 15 46 -5 10 -10 27 -9 37 0 10 3
13 6 6 9 -24 23 -13 23 16 0 37 -15 47 -36 27 -8 -9 -20 -16 -25 -16 -12 0
-12 17 1 25 7 4 7 13 0 24 -6 12 -5 22 1 28 13 13 20 103 8 103 -4 0 -14 10
-20 22 -14 25 -41 159 -34 166 2 3 -15 17 -38 33 -30 20 -45 25 -54 17 -15
-12 -76 9 -67 23 7 13 -14 49 -30 49 -7 0 -25 14 -39 30 -28 31 -38 34 -72 21
-11 -5 -25 -4 -32 1 -9 7 -18 5 -29 -7 -11 -10 -27 -15 -42 -12 -14 3 -34 0
-44 -7 -15 -9 -21 -8 -28 4 -7 10 -13 11 -17 5 -5 -6 -32 -12 -60 -13 -47 -3
-53 -1 -53 16 0 11 7 23 15 26 12 4 14 10 5 25 -15 28 -13 56 3 44 6 -6 22
-13 35 -16 20 -5 21 -3 11 10 -11 13 -9 14 13 12 20 -3 34 4 57 30 17 19 31
40 31 47 0 6 7 17 15 24 8 7 15 23 15 37 0 17 5 24 18 22 40 -4 52 1 52 24 0
12 7 42 15 66 9 25 13 52 8 65 -4 11 -6 26 -4 31 2 6 -3 34 -10 63 -9 40 -10
55 -1 64 18 18 14 63 -8 91 -11 14 -20 29 -20 34 0 5 -11 16 -25 23 -25 13
-36 60 -15 60 6 0 10 9 10 20 0 11 9 29 19 39 11 11 25 29 31 41 6 11 15 18
21 15 5 -4 9 1 9 9 0 10 9 16 24 16 l25 0 -3 103 c-1 57 -6 109 -10 116 -5 7
-3 18 2 23 6 6 8 24 5 39 -4 22 -2 29 10 29 19 0 53 50 35 50 -7 1 -2 6 12 13
21 10 26 20 27 50 1 68 1 68 29 61 25 -6 26 -5 22 23 -3 25 0 32 25 43 24 10
27 16 22 39 -7 31 9 42 83 61 45 12 53 30 28 63 -14 18 -15 17 -21 -3 -6 -18
-12 -20 -33 -15 -48 12 -135 22 -153 18 -10 -3 -33 4 -51 15 -18 11 -38 18
-45 15 -6 -2 -14 1 -18 6 -10 17 -55 13 -55 -5 0 -18 -25 -46 -34 -37 -3 4 -6
14 -6 24 0 19 -27 29 -81 29 -51 0 -103 55 -104 110 -1 22 -9 47 -18 58 -19
21 -10 36 25 43 12 3 15 8 8 18 -7 12 -11 12 -24 2 -9 -8 -23 -10 -33 -6 -25
11 -93 13 -93 3 0 -17 -18 -6 -64 37 -36 35 -50 43 -64 36 -9 -5 -38 -12 -64
-16 -38 -6 -49 -4 -54 8 -10 26 -36 29 -61 6 -12 -13 -23 -28 -23 -36 0 -7 -5
-13 -11 -13 -6 0 -22 -9 -36 -20 -36 -28 -57 -26 -49 3 3 15 1 24 -7 24 -6 0
-20 4 -30 8 -13 5 -16 3 -11 -9 5 -14 3 -14 -25 0 -17 9 -31 20 -31 25 0 5
-11 9 -24 9 -17 0 -26 7 -30 25 -4 14 -13 25 -22 25 -21 0 -65 49 -62 69 2 9
-2 15 -8 14 -16 -3 -9 88 10 122 18 34 21 55 6 55 -5 0 -10 7 -10 16 0 25 -31
44 -53 32 -13 -6 -23 -6 -33 3 -11 9 -14 7 -14 -15z m753 -2230 c3 3 23 -6 44
-21 21 -15 29 -24 18 -20 -11 4 -42 11 -68 15 -26 3 -55 15 -65 25 -9 10 -12
15 -7 12 6 -3 17 -2 25 3 9 6 20 4 31 -6 8 -8 18 -11 22 -8z m611 -721 c6 -16
-3 -19 -29 -9 -13 5 -14 8 -3 15 19 12 25 11 32 -6z"/>
<path d="M9670 8600 c0 -5 5 -10 11 -10 5 0 7 5 4 10 -3 6 -8 10 -11 10 -2 0
-4 -4 -4 -10z"/>
<path d="M9581 8459 c8 -17 6 -33 -11 -80 -13 -32 -26 -59 -31 -59 -4 0 -11
-9 -14 -20 -3 -11 -13 -20 -21 -20 -15 0 -19 -12 -7 -23 3 -4 7 -30 8 -58 1
-36 7 -54 18 -61 13 -7 14 -13 5 -33 -9 -19 -7 -29 6 -49 9 -14 16 -36 16 -50
0 -13 7 -26 15 -30 8 -3 15 -1 15 4 0 6 4 10 9 10 14 0 97 -81 111 -108 17
-33 6 -56 -24 -48 -26 6 -36 -7 -36 -50 0 -18 -5 -24 -22 -24 l-22 0 23 -21
c17 -16 22 -29 18 -49 -5 -21 0 -32 19 -49 13 -11 24 -25 24 -30 0 -13 48 -61
60 -61 18 0 51 -54 46 -76 -5 -17 -1 -23 19 -26 13 -3 26 0 29 6 2 6 8 0 14
-14 8 -22 6 -26 -14 -33 -15 -5 -24 -17 -24 -29 0 -15 4 -18 18 -13 9 4 29 11
44 17 15 5 25 15 22 22 -6 16 41 35 80 32 35 -3 44 -20 23 -44 -23 -26 -37
-88 -27 -123 7 -24 5 -34 -10 -49 -19 -19 -19 -22 8 -100 16 -45 8 -100 -14
-100 -22 0 -17 -13 15 -41 l29 -26 13 24 c14 25 29 31 29 10 0 -9 10 -12 31
-9 20 3 30 1 25 -6 -3 -5 2 -19 12 -31 14 -17 30 -21 97 -23 l80 -3 3 33 c2
17 9 32 16 32 19 0 51 -50 65 -102 8 -27 18 -48 22 -48 5 0 9 -5 9 -11 0 -23
42 -45 77 -41 35 4 35 5 30 43 -3 26 0 42 9 50 8 6 12 15 9 19 -3 4 8 10 24
13 21 4 32 15 39 37 10 26 16 30 47 30 46 0 75 15 75 40 0 11 3 19 8 19 22 -4
33 4 47 31 9 17 27 36 41 42 13 6 27 22 30 35 4 13 12 23 20 23 8 0 11 6 7 18
-6 15 -4 15 15 -2 20 -17 27 -15 23 7 -1 9 50 -2 63 -14 14 -12 46 -11 46 1 0
6 -8 17 -17 25 -10 8 -34 28 -53 45 -19 16 -30 30 -23 30 7 0 10 7 7 15 -4 8
-2 15 2 15 29 0 42 112 20 162 -6 13 -1 20 21 30 15 7 30 13 31 14 2 2 1 17
-3 34 l-7 32 -38 -38 c-33 -33 -37 -41 -28 -59 10 -18 10 -19 -5 -6 -15 12
-17 11 -17 -3 0 -13 -7 -17 -32 -14 -18 2 -33 8 -33 15 0 7 -9 19 -20 27 -17
13 -17 15 -4 16 19 0 31 44 17 58 -15 15 -20 82 -7 82 8 0 6 7 -4 18 -10 10
-17 29 -17 42 l0 23 -25 -23 c-23 -22 -26 -22 -43 -7 -10 10 -23 17 -28 17 -6
0 -23 18 -40 39 -16 22 -38 43 -49 46 -12 4 -15 8 -8 11 12 5 11 10 -14 53 -2
2 -9 -2 -17 -8 -8 -7 -20 -10 -27 -6 -6 4 -61 7 -123 7 -111 -1 -203 15 -199
36 1 5 -6 8 -17 5 -12 -3 -34 9 -64 37 -42 39 -50 42 -84 37 -32 -6 -39 -3
-47 16 -6 12 -20 23 -33 25 -12 2 -20 8 -16 13 3 5 -15 31 -40 57 -25 26 -46
50 -46 55 0 4 -8 7 -18 7 -9 0 -23 9 -30 20 -7 11 -17 20 -23 20 -23 0 -85 92
-74 110 3 6 -5 25 -19 43 -15 19 -26 41 -26 49 0 18 -35 50 -77 72 -42 21 -46
20 -32 -5z m237 -358 c23 -20 31 -38 11 -25 -6 3 -15 1 -19 -6 -6 -10 -13 -8
-30 8 -39 36 -4 57 38 23z m520 -500 c3 -8 -1 -12 -9 -9 -7 2 -15 10 -17 17
-3 8 1 12 9 9 7 -2 15 -10 17 -17z m-93 -81 c14 -15 14 -18 1 -23 -10 -4 -14
-16 -11 -37 2 -16 0 -30 -3 -30 -22 1 -34 23 -36 67 -2 43 1 49 15 46 10 -3
25 -13 34 -23z"/>
<path d="M10830 7708 c0 -6 3 -8 7 -5 3 4 14 0 24 -9 10 -9 25 -14 32 -11 8 3
21 0 28 -6 11 -10 11 -9 0 5 -7 10 -17 16 -21 13 -4 -2 -16 2 -26 10 -23 18
-44 19 -44 3z"/>
<path d="M11010 7511 c0 -11 26 -22 34 -14 12 12 5 23 -14 23 -11 0 -20 -4
-20 -9z"/>
<path d="M11070 7510 c0 -5 5 -10 11 -10 5 0 7 5 4 10 -3 6 -8 10 -11 10 -2 0
-4 -4 -4 -10z"/>
<path d="M9850 6960 c-10 -6 -11 -12 -5 -19 12 -11 92 2 108 18 14 14 -81 15
-103 1z"/>
<path d="M10062 6944 c1 -9 9 -19 16 -22 9 -3 13 2 10 14 -1 9 -9 19 -16 22
-9 3 -13 -2 -10 -14z"/>
</g>
</svg>
