<?xml version="1.0" standalone="no"?>
<!DOCTYPE svg PUBLIC "-//W3C//DTD SVG 20010904//EN"
 "http://www.w3.org/TR/2001/REC-SVG-20010904/DTD/svg10.dtd">
<svg version="1.0" xmlns="http://www.w3.org/2000/svg"
 width="514.352406pt" height="746.674811pt" viewBox="0 0 514.352406 746.674811"
 preserveAspectRatio="xMidYMid meet">
<metadata>
Created by potrace 1.15, written by Peter Selinger 2001-2017
</metadata>
<g transform="translate(-759.647594,1388.886426) scale(0.100000,-0.100000)"
fill="#222222" stroke="none">
<path d="M9297 13876 c-9 -7 -35 -16 -56 -20 -31 -5 -40 -11 -45 -31 -8 -33
-51 -51 -85 -35 -21 10 -23 9 -12 -3 20 -24 110 -50 127 -37 10 9 21 7 49 -10
19 -12 35 -26 35 -30 0 -5 14 -25 30 -43 21 -25 30 -45 30 -70 0 -25 7 -43 24
-59 24 -24 49 -84 41 -98 -3 -5 -1 -11 5 -15 17 -11 11 -43 -10 -50 -11 -3
-20 -15 -20 -25 0 -25 21 -70 33 -70 14 0 57 -37 50 -43 -3 -4 2 -9 11 -13 9
-3 16 -13 16 -20 0 -8 6 -17 13 -20 10 -3 12 -20 9 -58 -4 -49 -2 -54 24 -75
58 -44 104 -70 109 -61 9 14 25 12 25 -3 0 -21 52 -12 71 12 11 13 23 19 30
15 9 -5 10 -2 6 10 -4 10 -7 20 -7 22 0 2 -7 4 -15 4 -8 0 -14 6 -12 13 1 8
-9 11 -31 9 -18 -2 -39 2 -47 8 -9 7 -15 8 -19 1 -10 -16 -56 9 -56 31 0 10
-7 18 -17 18 -13 0 -14 3 -5 12 7 7 12 19 12 27 0 9 7 29 15 45 8 15 12 32 9
37 -3 5 0 9 6 9 6 0 13 -7 16 -15 4 -8 10 -15 15 -15 6 0 5 9 -1 20 -6 11 -19
20 -30 20 -14 0 -18 7 -18 33 0 17 -5 52 -11 77 -7 24 -10 53 -7 63 2 10 -6
29 -20 44 -22 24 -29 25 -84 20 -52 -4 -62 -3 -70 13 -14 26 -13 30 9 30 26 0
31 9 33 60 1 23 7 44 14 47 7 2 11 10 8 18 -3 7 2 15 10 18 9 4 16 12 16 19
-1 23 -37 58 -53 52 -15 -5 -39 24 -36 43 4 21 -3 22 -23 3 l-22 -21 -8 21
c-5 15 -16 20 -42 20 -19 0 -38 5 -41 11 -11 17 2 21 24 8 25 -16 32 -10 24
19 -6 25 -20 27 -46 8z"/>
<path d="M9840 12961 c0 -13 9 -25 22 -30 18 -6 19 -9 5 -14 -19 -7 -23 -42
-6 -52 18 -12 31 -57 19 -69 -5 -5 -10 -28 -10 -49 0 -29 3 -38 14 -34 21 8
27 -4 10 -21 -14 -13 -17 -13 -25 -1 -7 11 -9 11 -9 -3 0 -11 8 -18 19 -18 11
0 23 -5 26 -11 4 -6 13 -8 21 -5 8 3 35 -4 59 -16 38 -19 50 -20 75 -11 23 9
32 8 41 -3 9 -12 14 -12 20 -3 6 10 11 10 22 1 22 -18 70 -4 84 24 11 24 10
24 -21 19 -40 -8 -58 10 -62 63 -2 20 -5 46 -6 57 0 11 2 28 6 38 6 12 4 17
-8 17 -9 0 -16 4 -16 9 0 4 -25 8 -56 7 -50 0 -58 3 -76 27 -12 16 -29 27 -44
27 -13 0 -41 16 -64 36 -36 33 -40 34 -40 15z"/>
<path d="M9750 12766 c0 -2 16 -14 35 -26 19 -12 33 -26 29 -31 -3 -5 3 -9 12
-9 16 0 16 2 -2 23 -27 32 -46 47 -61 47 -7 0 -13 -2 -13 -4z"/>
<path d="M10365 12680 c-3 -5 -19 -10 -36 -10 -22 0 -29 -5 -29 -20 0 -11 -7
-23 -15 -26 -8 -4 -15 -15 -15 -25 0 -21 -16 -24 -54 -9 -25 9 -37 -2 -16 -15
6 -4 5 -15 -2 -30 -8 -18 -8 -28 1 -39 10 -11 9 -19 0 -34 -10 -16 -9 -33 4
-88 10 -38 24 -72 32 -77 8 -4 15 -19 15 -32 0 -14 8 -29 20 -35 10 -6 25 -29
31 -51 7 -22 21 -45 32 -51 28 -15 104 -5 156 20 24 12 58 24 75 28 22 4 35
15 47 39 9 19 13 39 9 45 -9 15 21 80 37 80 7 0 13 6 13 13 0 18 -21 37 -41
37 -10 0 -20 10 -24 23 -3 12 -12 33 -18 46 -9 19 -9 25 1 29 9 3 11 14 6 38
-5 27 -3 34 10 34 9 0 16 8 16 20 0 15 -7 20 -29 20 -15 0 -42 5 -58 11 -24 8
-30 15 -25 31 4 17 1 19 -15 14 -14 -4 -23 -1 -27 9 -6 17 -91 22 -101 5z"/>
<path d="M10340 12068 c0 -15 -65 -78 -80 -78 -5 0 -11 -14 -15 -30 -5 -24
-10 -29 -20 -20 -11 9 -14 5 -17 -17 -2 -15 -12 -32 -23 -38 -12 -5 -34 -25
-50 -43 -25 -27 -38 -33 -79 -36 -40 -2 -52 -7 -59 -24 -6 -12 -14 -22 -19
-22 -13 0 -9 -28 5 -33 8 -3 6 -9 -7 -19 -14 -11 -19 -28 -20 -61 -1 -26 -4
-47 -8 -47 -15 0 -8 -28 7 -34 12 -4 14 -16 10 -58 -4 -28 -2 -61 3 -72 49
-110 49 -111 22 -146 -11 -14 -20 -37 -20 -52 0 -22 -5 -28 -22 -28 -13 0 -28
-4 -35 -8 -17 -11 31 -62 58 -62 19 0 21 -4 16 -30 -6 -25 -2 -32 21 -44 15
-9 23 -15 18 -16 -16 0 64 -50 89 -54 14 -3 34 -8 45 -11 12 -4 26 0 36 9 11
12 20 13 34 6 29 -15 39 -12 33 11 -4 14 1 25 16 35 13 10 21 26 21 44 0 31 2
32 85 15 22 -5 55 21 55 44 1 12 3 11 12 -4 16 -30 50 -54 67 -47 9 3 26 16
39 30 12 14 23 21 23 16 1 -5 4 5 8 21 4 17 12 29 18 28 7 -2 14 6 18 16 3 11
12 22 20 25 8 3 15 15 15 26 0 11 8 24 18 27 9 4 29 17 45 29 37 31 123 31
139 1 8 -16 7 -23 -4 -31 -19 -14 -32 -53 -20 -60 5 -3 17 3 27 14 22 25 27
25 42 0 10 -15 10 -22 -3 -35 -15 -15 -15 -18 4 -38 12 -13 23 -34 25 -47 3
-19 13 -27 40 -35 20 -6 45 -20 57 -33 11 -12 25 -22 30 -22 6 0 10 -13 10
-30 0 -21 -5 -30 -16 -30 -12 0 -15 -6 -10 -24 3 -14 1 -28 -4 -31 -16 -10 -1
-27 18 -21 23 7 57 -24 76 -69 19 -46 20 -55 3 -55 -7 0 -18 -20 -25 -45 -10
-38 -10 -49 3 -68 13 -21 12 -26 -25 -75 -22 -29 -40 -61 -40 -72 0 -10 -9
-22 -20 -25 -11 -4 -18 -10 -15 -15 3 -5 -2 -21 -11 -35 -12 -18 -22 -24 -35
-20 -16 5 -19 1 -19 -22 0 -44 -11 -72 -25 -67 -7 3 -27 -13 -45 -36 -24 -30
-37 -39 -51 -35 -27 9 -95 -24 -108 -52 -6 -12 -16 -23 -23 -23 -7 0 -19 -10
-27 -22 -11 -18 -11 -22 3 -30 9 -5 14 -13 11 -18 -3 -5 -1 -11 5 -15 5 -3 10
-13 10 -21 0 -8 -4 -12 -10 -9 -5 3 -10 -1 -10 -10 0 -9 -8 -19 -19 -22 -11
-3 -23 -20 -30 -43 -9 -30 -17 -39 -40 -43 -26 -6 -30 -12 -36 -52 -6 -36 -11
-45 -27 -45 -11 0 -22 -8 -25 -20 -6 -24 -16 -25 -33 -5 -7 8 -21 15 -31 15
-11 0 -19 4 -19 9 0 16 -42 20 -65 5 -12 -8 -41 -15 -63 -17 -26 -1 -42 -7
-42 -14 0 -7 -9 -13 -20 -13 -11 0 -20 -7 -20 -15 0 -9 -9 -15 -22 -15 -13 0
-33 -3 -45 -6 -16 -4 -23 0 -28 15 -3 12 -23 29 -43 38 -20 9 -40 19 -43 20
-4 2 -12 -10 -17 -27 -6 -16 -15 -30 -19 -30 -5 0 -17 -15 -27 -34 -15 -28
-26 -36 -58 -41 -32 -6 -42 -3 -53 12 -13 17 -14 17 -8 -4 3 -13 1 -23 -5 -23
-17 0 -36 -70 -39 -145 -7 -142 -6 -165 6 -179 10 -12 9 -21 -3 -45 -9 -16
-16 -44 -16 -61 0 -20 -4 -29 -11 -24 -8 4 -9 -3 -4 -25 7 -35 5 -36 -43 -19
-30 11 -35 11 -47 -6 -9 -11 -20 -16 -31 -12 -12 5 -14 9 -5 20 9 10 8 15 -3
19 -8 3 -16 2 -18 -3 -2 -4 -14 -10 -28 -12 -21 -2 -29 4 -49 45 -24 46 -25
47 -70 47 -26 0 -56 7 -68 15 -19 13 -21 13 -26 -5 -6 -22 -36 -26 -68 -10
-15 9 -19 7 -19 -6 0 -11 -5 -14 -17 -9 -58 23 -85 26 -102 11 -12 -11 -16
-26 -13 -45 3 -24 -1 -30 -25 -39 -44 -17 -54 -27 -62 -65 -7 -27 -6 -34 4
-31 7 3 16 1 20 -5 3 -6 1 -12 -4 -12 -6 -1 -15 -3 -21 -4 -5 -1 -12 -3 -15
-4 -3 0 4 -10 15 -21 11 -11 20 -29 20 -40 0 -12 15 -29 41 -45 30 -19 39 -31
34 -44 -3 -10 1 -24 10 -31 8 -7 15 -20 15 -30 0 -10 7 -34 15 -54 12 -29 13
-45 5 -74 -13 -49 -13 -62 3 -62 7 0 22 -10 35 -22 45 -46 107 -122 105 -128
-1 -4 18 -26 42 -48 43 -39 56 -62 36 -62 -5 0 -11 -22 -13 -49 -2 -34 0 -47
9 -44 6 3 22 -1 35 -8 13 -7 37 -12 55 -10 28 2 32 -1 38 -31 4 -18 12 -39 17
-45 6 -7 7 -13 3 -13 -5 0 0 -9 9 -19 14 -16 16 -26 8 -55 -7 -25 -7 -36 1
-40 8 -3 7 -8 -3 -16 -10 -8 -11 -13 -3 -16 17 -7 63 -52 63 -61 0 -5 16 -26
35 -46 19 -20 35 -43 35 -50 0 -18 65 -41 123 -43 47 -2 49 -2 43 22 -6 22 -5
23 20 14 15 -6 32 -14 37 -17 6 -4 22 -7 36 -8 13 0 26 -6 29 -13 2 -7 16 -12
32 -12 15 0 33 -7 40 -15 17 -20 5 -32 -15 -15 -18 15 -61 6 -90 -18 -19 -16
-19 -16 -6 1 7 9 10 17 5 17 -5 0 -4 4 3 8 7 4 9 13 4 20 -6 10 -19 10 -65 -2
-40 -11 -64 -12 -83 -5 -21 8 -24 7 -19 -7 3 -8 6 -20 6 -25 0 -5 7 -9 15 -9
29 0 14 -19 -20 -26 -32 -6 -40 -14 -36 -38 1 -5 -7 -6 -19 -3 -21 5 -28 -7
-10 -18 6 -4 8 -10 5 -15 -3 -5 -1 -11 5 -15 11 -7 59 25 60 40 1 14 67 55 89
55 9 0 22 5 29 12 9 9 12 9 12 0 0 -6 -11 -14 -25 -18 -24 -6 -29 -14 -26 -41
1 -7 -5 -13 -12 -13 -8 0 -18 -11 -21 -25 -4 -14 -13 -25 -22 -25 -8 0 -18 -8
-21 -17 -4 -10 -12 -23 -17 -30 -6 -7 -17 -19 -24 -28 -25 -30 -48 -14 -56 41
-3 17 -16 31 -16 16 0 -6 -6 -9 -12 -7 -7 3 -22 -8 -33 -25 -11 -16 -23 -30
-26 -30 -3 0 -18 -11 -33 -25 -15 -14 -39 -27 -54 -30 -15 -3 -49 -17 -75 -32
-34 -17 -52 -22 -59 -15 -8 8 -18 6 -36 -6 -13 -9 -39 -15 -56 -14 -25 2 -41
-7 -83 -46 -42 -40 -55 -47 -70 -38 -10 5 -31 10 -48 10 -32 1 -47 28 -26 49
16 16 13 27 -8 27 -10 0 -21 -9 -24 -19 -4 -15 -10 -18 -28 -14 -18 5 -21 3
-16 -10 9 -23 -35 -23 -74 0 -33 20 -35 26 -15 42 8 6 23 34 35 62 20 45 20
51 6 71 -8 13 -15 34 -15 48 0 16 -12 38 -31 56 -17 16 -42 50 -56 75 l-25 47
-36 -11 c-27 -9 -36 -9 -40 1 -2 7 -12 12 -22 12 -14 0 -21 -10 -25 -34 -5
-22 -14 -36 -26 -39 -26 -7 -24 -33 6 -59 28 -25 31 -40 11 -61 -15 -15 -15
-60 0 -92 6 -11 9 -49 8 -85 -2 -48 1 -67 13 -75 11 -9 13 -14 5 -19 -7 -4
-12 -18 -12 -32 0 -21 -3 -24 -25 -18 -21 5 -25 3 -25 -15 0 -12 -5 -21 -11
-21 -5 0 -3 -10 5 -22 9 -12 16 -32 16 -43 0 -11 7 -31 16 -43 20 -29 12 -53
-36 -101 -26 -26 -40 -49 -42 -72 -3 -32 -5 -34 -40 -32 -21 1 -38 -1 -38 -6
0 -5 -9 -11 -21 -14 -15 -4 -23 0 -26 13 -4 15 -9 17 -23 10 -10 -6 -37 -10
-60 -10 -36 0 -41 -3 -35 -19 9 -28 -4 -50 -26 -44 -10 3 -19 0 -19 -6 0 -15
-50 -4 -70 16 -8 8 -10 13 -5 12 24 -4 46 2 40 11 -4 6 0 22 9 35 9 13 20 42
25 64 8 35 6 41 -10 46 -11 4 -19 13 -19 20 0 8 -5 26 -12 40 -12 27 -45 34
-66 13 -9 -9 -17 -7 -35 10 -13 12 -27 22 -33 22 -5 0 -2 -4 5 -9 19 -12 24
-91 6 -97 -7 -3 -28 2 -47 12 -43 23 -134 30 -165 13 -21 -11 -23 -18 -18 -46
4 -21 2 -33 -5 -33 -6 0 -8 -5 -5 -10 8 -13 -3 -50 -15 -50 -5 0 -10 10 -12
23 -2 16 -11 23 -32 25 -27 3 -29 2 -23 -27 6 -28 4 -31 -17 -31 -13 0 -26 -7
-30 -15 -3 -8 -16 -15 -30 -15 -29 0 -43 -15 -22 -23 8 -3 16 -1 18 5 4 12 78
-8 78 -21 0 -17 -14 -20 -30 -6 -19 17 -52 10 -48 -10 2 -7 -10 -25 -25 -39
-23 -21 -27 -32 -22 -55 8 -38 -9 -49 -83 -53 -58 -3 -62 -4 -50 -21 8 -11 27
-18 50 -19 34 -1 38 -4 44 -35 4 -19 12 -33 20 -33 17 0 34 -40 39 -88 7 -66
64 -94 131 -66 20 8 43 13 50 10 8 -3 14 1 14 10 0 8 9 32 19 52 11 20 25 50
32 65 10 22 18 27 34 22 54 -17 65 -17 65 -1 0 9 6 16 14 16 22 0 28 31 11 56
-20 31 -20 32 20 40 19 3 38 10 41 15 3 5 16 9 29 9 13 0 27 5 31 12 5 8 11 6
19 -6 11 -15 14 -14 39 5 15 12 26 30 26 45 l0 24 58 -22 c67 -25 115 -25 150
2 13 11 36 20 51 20 14 0 32 4 40 9 11 7 27 -1 58 -29 46 -40 93 -57 93 -33 0
9 7 12 24 7 17 -4 25 -1 28 9 3 14 10 13 57 -3 38 -14 59 -17 72 -10 22 12 59
13 78 1 22 -14 5 -60 -24 -67 -28 -7 -29 -8 -15 -34 9 -17 5 -21 -30 -30 -44
-12 -50 -28 -20 -55 15 -14 17 -21 9 -32 -9 -10 -8 -18 6 -33 23 -25 6 -52
-18 -31 -21 16 -30 -11 -12 -35 7 -11 13 -22 13 -27 1 -4 5 -15 10 -24 9 -15
11 -15 33 1 13 9 33 16 45 16 27 0 46 22 38 44 -5 12 0 16 20 16 19 0 26 5 26
20 0 24 15 27 24 4 7 -17 26 -10 26 11 0 8 -18 17 -50 22 -38 6 -48 11 -41 22
7 11 14 11 41 -3 45 -22 46 -22 92 25 39 39 39 41 22 60 -16 18 -16 19 0 19 9
0 19 7 22 15 4 8 12 15 20 15 8 0 14 5 14 10 0 6 10 10 23 10 13 0 28 5 33 10
8 8 15 6 24 -5 13 -15 45 -22 36 -7 -3 5 11 14 30 21 37 13 43 34 19 68 -13
19 -13 22 1 27 9 3 20 4 25 0 5 -3 9 6 9 20 0 14 -8 30 -17 35 -16 9 -14 10 8
11 15 0 32 7 40 16 7 8 20 13 30 11 12 -3 16 0 12 10 -4 11 1 14 23 13 45 -4
93 11 96 29 3 13 7 12 26 -7 23 -23 42 -22 42 2 0 21 56 76 77 76 11 0 40 13
64 30 24 16 50 30 57 30 6 0 12 11 12 25 0 14 5 25 11 25 6 0 8 8 4 20 -11 34
5 90 26 90 12 0 25 15 38 43 30 64 57 90 86 85 18 -4 34 4 62 32 34 32 42 35
68 28 25 -6 33 -4 48 15 25 32 31 65 18 93 -10 22 -8 26 13 34 30 11 38 32 30
82 -6 34 -4 39 11 36 9 -2 22 5 28 14 9 14 8 20 -7 31 -11 8 -15 17 -9 20 22
14 -1 64 -53 115 -30 28 -59 52 -65 52 -6 0 -8 3 -6 8 8 12 -12 54 -23 47 -12
-8 -34 14 -36 35 -1 8 -5 23 -9 33 -5 13 -2 17 14 17 12 0 21 4 21 9 0 5 9 13
21 16 16 6 20 13 16 33 -3 17 1 34 11 46 13 14 17 39 17 110 1 50 -3 97 -8
103 -6 9 -1 24 16 47 21 27 25 41 20 70 -3 20 -11 36 -18 36 -7 0 -16 7 -19
16 -8 20 19 83 38 90 9 3 14 10 11 14 -3 5 -1 12 5 15 8 5 6 15 -4 31 -18 26
-21 80 -7 89 12 7 91 -33 91 -46 0 -5 9 -9 20 -9 13 0 18 5 14 15 -5 12 2 15
34 15 35 0 43 4 56 31 9 17 18 46 22 65 4 24 12 34 25 34 13 0 17 5 12 16 -6
16 4 15 52 -3 6 -2 24 10 40 27 16 16 39 30 51 30 12 0 29 11 38 24 8 14 25
27 36 31 11 3 20 14 20 23 0 9 12 28 27 44 22 23 24 30 13 43 -11 13 -10 19 5
35 10 11 28 20 40 20 12 0 30 9 40 20 10 11 24 20 30 20 17 0 27 28 12 34 -8
3 -9 7 -1 13 14 11 36 67 32 84 -2 10 5 13 24 11 19 -2 30 3 38 18 9 16 18 20
36 16 13 -4 24 -2 24 3 0 6 7 8 15 5 11 -5 15 1 15 18 0 13 5 29 10 34 8 8 7
20 0 39 -8 22 -8 30 2 37 7 4 9 8 3 8 -5 0 -5 4 2 8 17 11 32 86 21 106 -7 12
-4 18 9 23 22 8 43 28 43 41 0 5 10 17 21 28 12 10 37 43 55 72 23 35 41 52
54 52 16 0 19 5 15 23 -5 17 0 25 22 34 16 7 42 12 58 12 40 0 97 11 112 23 7
5 27 8 45 7 41 -3 77 8 103 32 18 16 26 17 63 7 33 -8 49 -8 67 2 13 7 35 10
50 8 19 -4 30 0 38 13 7 11 20 19 29 19 9 0 21 7 26 16 5 8 20 21 33 27 13 7
25 23 27 35 2 14 10 22 23 22 10 0 19 6 19 13 0 7 16 21 35 30 20 9 45 33 56
52 12 19 25 35 29 35 5 0 11 9 15 19 4 12 12 18 21 14 8 -3 14 1 14 10 0 9 9
19 20 22 22 7 26 20 10 30 -5 3 -10 15 -10 27 0 15 4 18 18 13 9 -3 31 -9 47
-12 17 -3 41 -11 55 -18 42 -21 99 -37 110 -30 5 3 10 1 10 -4 0 -20 17 -11
29 15 12 28 38 28 33 -1 -3 -15 1 -17 28 -11 18 3 43 6 56 6 32 0 31 28 -1 40
-14 5 -25 13 -24 17 3 21 -3 32 -21 38 -26 8 -25 36 3 71 21 27 31 94 15 94
-14 0 -8 28 6 33 17 7 15 49 -3 71 -10 12 -9 15 6 19 12 3 8 5 -9 6 -16 0 -28
7 -28 14 0 22 -20 -17 -20 -40 0 -12 -5 -25 -11 -29 -9 -5 -10 4 -5 32 6 32 5
37 -5 27 -7 -7 -25 -13 -39 -13 -15 0 -35 -9 -45 -20 -15 -16 -21 -18 -33 -7
-10 7 -13 8 -9 1 4 -8 -5 -13 -28 -16 -29 -3 -36 0 -45 22 -18 44 -44 83 -72
107 -17 16 -25 31 -24 48 4 35 -20 65 -53 65 -18 0 -37 10 -54 30 -15 17 -33
27 -41 24 -8 -3 -17 -1 -21 5 -10 17 -22 13 -28 -10 -5 -20 -10 -21 -49 -15
-24 4 -50 7 -58 8 -24 1 -43 20 -29 29 7 4 9 14 6 23 -5 12 -18 14 -59 11 -59
-4 -67 -1 -86 33 -10 18 -10 22 3 22 8 0 15 9 15 20 0 20 1 20 26 4 l25 -17
-7 29 c-3 16 -13 34 -20 40 -8 6 -11 14 -7 17 8 9 -47 88 -58 82 -9 -6 -22 12
-26 35 -1 8 -13 24 -26 36 -14 12 -28 35 -32 52 -3 17 -13 33 -21 36 -8 3 -14
10 -14 16 0 6 5 8 10 5 16 -10 11 32 -6 49 -19 19 -24 19 -47 2 -11 -9 -15
-20 -10 -32 5 -15 4 -17 -8 -8 -8 5 -27 16 -43 22 -24 11 -28 11 -23 -3 7 -17
-25 -38 -53 -33 -10 2 -26 -6 -34 -17 -10 -12 -19 -16 -23 -10 -16 20 -31 14
-42 -15 -9 -27 -13 -29 -35 -20 -18 6 -28 5 -36 -5 -14 -17 -5 -36 14 -29 7 3
19 -2 26 -11 11 -13 9 -15 -9 -15 -11 0 -21 -5 -21 -11 0 -8 -6 -7 -17 2 -17
13 -17 13 0 -7 21 -25 22 -34 2 -34 -22 0 -18 -21 5 -27 11 -3 20 -13 20 -23
0 -10 6 -20 13 -23 9 -3 9 -7 -1 -19 -8 -10 -10 -26 -6 -42 5 -21 3 -26 -12
-26 -14 0 -16 -3 -6 -9 10 -6 10 -10 -2 -20 -8 -7 -21 -9 -27 -5 -8 5 -9 3 -5
-5 5 -7 14 -10 21 -7 7 2 16 -2 19 -11 7 -18 -10 -43 -30 -43 -8 0 -14 -4 -14
-9 0 -17 -33 -21 -50 -6 -9 8 -24 15 -33 15 -9 0 -19 5 -22 10 -4 6 -10 8 -15
5 -4 -3 -38 9 -75 26 -55 24 -65 32 -55 44 9 11 5 23 -19 59 -37 53 -38 60
-10 51 27 -9 41 12 28 37 -6 10 -8 27 -4 37 4 14 -3 22 -27 34 -18 9 -29 17
-24 17 20 0 -29 40 -50 40 -15 0 -25 9 -32 29 -9 26 -8 28 9 24 20 -5 27 11 9
22 -6 3 -6 15 0 30 7 19 4 31 -16 60 -13 20 -22 40 -19 45 6 10 -24 22 -36 14
-5 -3 -23 8 -39 26 -23 25 -34 30 -60 25 -22 -4 -32 -1 -36 10 -4 10 -13 13
-25 10 -21 -7 -76 30 -85 57 -3 10 -10 18 -16 18 -13 0 -93 90 -93 104 0 6
-10 12 -23 14 -13 2 -26 11 -29 20 -8 21 -79 97 -115 123 -21 15 -28 17 -28 7z
m2174 -1356 c-4 -15 -10 -31 -14 -36 -5 -4 4 -19 18 -33 15 -14 21 -22 15 -18
-15 7 -17 -4 -4 -24 8 -12 12 -12 25 -2 13 11 17 11 22 -3 3 -9 4 -23 0 -31
-3 -8 0 -15 7 -15 17 0 38 -59 31 -87 -7 -26 -22 -30 -30 -8 -8 20 -21 19 -46
-5 -19 -18 -23 -18 -31 -5 -4 8 -14 15 -22 15 -23 0 -27 18 -11 49 11 21 21
28 35 24 15 -4 18 0 14 21 -5 25 -55 52 -74 40 -5 -3 -6 3 -2 12 4 12 3 15 -5
10 -7 -4 -12 -3 -12 3 0 5 5 13 10 16 15 9 12 25 -4 25 -22 0 -27 14 -13 43 9
19 19 25 41 25 17 -1 32 4 34 10 8 24 22 0 16 -26z m-2314 -2708 c0 -14 -25
-26 -34 -17 -3 4 -6 22 -6 42 l0 36 20 -25 c11 -14 20 -30 20 -36z m60 -155
c12 -23 19 -47 16 -54 -3 -10 0 -12 11 -8 13 5 15 2 9 -13 -5 -10 -11 -27 -13
-36 -7 -23 -31 -23 -55 -1 -13 11 -32 16 -55 14 -31 -2 -34 -1 -22 12 8 8 16
15 19 15 3 -1 20 3 38 7 34 8 45 38 17 49 -27 10 -19 45 12 55 2 1 12 -17 23
-40z m-670 -774 c0 -8 -4 -15 -9 -15 -5 0 -11 7 -15 15 -3 9 0 15 9 15 8 0 15
-7 15 -15z m-163 -168 c-5 -16 -56 -52 -63 -44 -4 3 1 13 10 22 9 9 16 22 16
30 0 8 7 11 20 8 12 -3 19 -10 17 -16z m-237 -187 c0 -19 -7 -33 -19 -40 -25
-13 -61 -13 -61 0 0 6 -5 10 -11 10 -5 0 -7 -4 -4 -10 3 -5 0 -10 -8 -10 -16
0 -30 24 -20 34 4 3 17 6 30 6 13 0 23 5 23 10 0 11 35 28 58 29 7 1 12 -11
12 -29z m-123 -66 c-3 -3 -12 -4 -19 -1 -8 3 -5 6 6 6 11 1 17 -2 13 -5z m18
-104 c3 -5 2 -10 -4 -10 -5 0 -13 5 -16 10 -3 6 -2 10 4 10 5 0 13 -4 16 -10z"/>
<path d="M8670 11889 c0 -5 -21 -9 -46 -9 -38 0 -47 -4 -51 -21 -4 -15 -12
-20 -28 -17 -18 4 -21 1 -17 -14 2 -10 -1 -18 -7 -18 -6 0 -11 -10 -11 -21 0
-17 -5 -20 -23 -17 -19 4 -23 1 -20 -16 3 -21 -67 -106 -88 -106 -6 0 -7 -4
-4 -10 10 -16 34 -12 66 10 22 16 33 19 47 11 11 -6 22 -7 26 -4 3 3 6 1 6 -5
0 -7 -5 -12 -11 -12 -7 0 -9 -10 -5 -25 5 -20 -3 -37 -34 -78 -22 -28 -47 -59
-55 -68 -8 -9 -15 -23 -15 -32 0 -17 -28 -41 -79 -69 -29 -16 -31 -20 -20 -40
9 -17 9 -24 -4 -33 -8 -6 -15 -18 -15 -26 2 -36 -4 -47 -37 -65 -28 -15 -37
-27 -42 -56 -3 -21 -9 -35 -13 -33 -20 12 -40 -9 -40 -42 0 -19 4 -32 9 -28 6
3 15 -4 21 -15 6 -11 7 -20 3 -20 -4 0 5 -11 20 -25 32 -30 35 -45 7 -38 -15
4 -23 -2 -31 -23 -7 -16 -12 -32 -11 -36 1 -4 -5 -5 -13 -2 -9 4 -15 0 -15
-10 0 -11 -9 -16 -28 -16 -27 0 -52 -15 -52 -32 0 -4 10 -8 23 -8 12 -1 33 -7
46 -14 20 -11 28 -11 52 3 28 16 39 41 18 41 -6 0 3 14 20 31 33 33 37 49 20
81 -14 25 -6 33 20 18 37 -19 131 -33 146 -20 7 6 19 10 27 8 24 -5 78 35 72
54 -3 12 4 22 25 33 17 8 35 24 41 35 6 11 17 20 24 20 8 0 19 7 26 15 7 8 23
15 36 15 16 0 25 7 29 23 5 19 13 23 52 24 47 2 83 26 83 58 0 8 9 15 20 15
13 0 20 7 20 19 0 11 5 23 10 26 6 4 8 11 5 16 -8 12 2 11 26 -1 10 -6 19 -19
19 -29 0 -22 25 -45 40 -36 5 3 10 15 10 26 0 16 3 18 19 9 30 -16 32 -12 11
22 -21 35 -18 48 10 48 23 0 27 13 35 126 l6 92 -29 21 c-22 15 -31 18 -35 9
-2 -7 -11 1 -20 19 -9 17 -25 34 -36 38 -10 3 -22 16 -25 28 -9 33 -7 49 4 42
6 -3 10 -2 10 3 0 6 -14 15 -31 21 -18 6 -28 15 -24 22 7 11 -15 35 -52 56
-14 8 -23 9 -25 2 -2 -6 -14 -6 -35 1 -19 7 -30 17 -27 25 3 7 -7 17 -25 23
-19 7 -31 7 -31 1z"/>
<path d="M8260 11677 c0 -10 -5 -14 -15 -11 -8 4 -15 2 -15 -3 0 -5 14 -10 31
-11 29 -2 31 -1 18 15 -7 10 -15 20 -16 22 -2 2 -3 -3 -3 -12z"/>
<path d="M8960 11672 c6 -13 14 -21 18 -18 3 4 -2 14 -12 24 -18 16 -18 16 -6
-6z"/>
<path d="M8330 11644 c0 -8 5 -12 10 -9 6 4 8 11 5 16 -9 14 -15 11 -15 -7z"/>
<path d="M8220 11601 c0 -6 4 -13 10 -16 6 -3 7 1 4 9 -7 18 -14 21 -14 7z"/>
<path d="M9467 11500 c4 -14 0 -20 -11 -20 -21 0 -20 -22 3 -63 15 -27 16 -36
6 -50 -7 -9 -18 -17 -26 -17 -9 -1 -7 -7 8 -19 18 -15 21 -25 16 -60 -5 -35
-9 -42 -25 -38 -10 3 -24 -1 -32 -8 -7 -7 -26 -15 -42 -17 -18 -2 -33 -11 -39
-25 -10 -24 -39 -31 -50 -13 -5 8 -11 7 -20 0 -11 -9 -26 -6 -64 12 -28 12
-51 26 -51 30 0 4 -6 5 -14 2 -8 -3 -33 4 -55 14 -23 11 -41 16 -41 10 0 -6
-6 -5 -15 2 -13 11 -15 8 -15 -13 0 -27 -15 -44 -24 -28 -7 10 -66 -38 -66
-53 0 -20 -35 -85 -46 -86 -6 0 -17 -6 -23 -14 -6 -7 -22 -11 -36 -8 -18 3
-25 0 -25 -11 0 -17 51 -28 73 -15 9 5 19 2 27 -7 14 -17 50 -20 50 -5 0 15
20 12 65 -10 64 -31 141 -24 132 12 -5 16 -1 14 19 -7 13 -14 24 -30 24 -36 0
-12 4 -11 35 3 14 6 25 20 25 30 0 16 3 17 23 7 35 -20 132 -40 135 -29 2 6
12 10 22 10 10 0 20 7 24 15 3 9 18 15 39 15 19 0 40 -7 47 -15 20 -24 48 -18
65 15 9 18 21 27 29 24 8 -3 25 1 38 9 13 8 35 17 51 21 15 4 27 11 27 16 0 5
18 13 40 16 24 4 40 12 40 20 0 8 7 14 14 14 27 0 69 48 61 67 -4 10 -9 25
-10 33 -6 46 -18 60 -49 58 -17 -1 -36 -5 -42 -9 -12 -9 -54 0 -54 11 0 12
-48 18 -58 8 -11 -11 -42 1 -42 16 0 7 -11 23 -25 36 -17 16 -25 35 -27 69 -2
38 -6 45 -21 43 -9 -2 -20 4 -23 13 -3 8 -12 15 -19 15 -7 0 -18 7 -25 15 -18
21 -29 19 -23 -5z"/>
<path d="M9800 11310 c0 -5 5 -10 10 -10 6 0 10 5 10 10 0 6 -4 10 -10 10 -5
0 -10 -4 -10 -10z"/>
<path d="M10795 11181 c-3 -5 -1 -12 4 -15 5 -3 11 1 15 9 6 16 -9 21 -19 6z"/>
<path d="M9926 11121 c-4 -7 -5 -15 -2 -18 9 -9 19 4 14 18 -4 11 -6 11 -12 0z"/>
<path d="M8704 11085 c4 -11 -3 -17 -24 -22 -52 -10 -41 -18 25 -18 67 0 75
10 30 39 -30 20 -39 20 -31 1z"/>
<path d="M12552 10988 c-18 -18 -15 -36 9 -49 15 -8 18 -14 10 -22 -28 -28 0
-37 34 -11 18 14 18 16 4 27 -9 7 -22 24 -30 40 -12 21 -17 25 -27 15z"/>
<path d="M12697 10926 c-4 -10 -1 -19 9 -23 21 -8 26 1 11 22 -13 16 -14 16
-20 1z"/>
<path d="M12640 10901 c0 -12 29 -23 42 -15 6 4 5 10 -3 15 -18 11 -39 11 -39
0z"/>
<path d="M12522 10864 c-10 -12 -10 -14 2 -14 17 0 30 16 19 23 -5 3 -14 -1
-21 -9z"/>
<path d="M12512 10820 c-6 -11 -12 -24 -12 -30 0 -17 17 -11 24 8 3 9 9 23 12
30 9 20 -10 14 -24 -8z"/>
<path d="M12712 10828 c5 -15 28 -23 28 -10 0 5 -7 13 -16 16 -10 4 -14 1 -12
-6z"/>
<path d="M8020 10800 c-8 -5 -11 -12 -8 -16 10 -9 38 3 38 16 0 12 -10 13 -30
0z"/>
<path d="M9258 9614 c-14 -22 -11 -73 5 -97 19 -30 22 -47 7 -47 -5 0 -10 -8
-10 -18 0 -9 -10 -23 -21 -30 -29 -18 -10 -39 20 -22 12 6 27 8 34 3 6 -4 4 5
-6 20 -16 25 -16 29 -2 49 16 23 21 108 7 108 -5 0 -13 10 -19 22 -5 12 -12
18 -15 12z"/>
<path d="M8650 9542 c0 -12 -67 -45 -78 -38 -6 4 -8 -3 -5 -16 4 -19 3 -20 -6
-8 -9 13 -11 13 -11 -2 0 -13 -8 -18 -27 -18 -24 -1 -25 -2 -11 -11 13 -7 15
-15 9 -32 -6 -14 -3 -29 7 -44 18 -29 27 -29 29 -2 1 12 10 27 19 33 15 12 15
13 0 19 -9 4 -16 12 -16 18 0 8 5 7 17 -2 15 -13 16 -12 11 9 -8 29 5 28 39
-4 26 -24 28 -24 40 -8 7 10 13 21 13 26 0 12 28 10 35 -3 4 -6 -1 -17 -11
-24 -15 -11 -16 -17 -6 -23 7 -5 11 -19 10 -33 -4 -32 24 -32 29 -1 4 29 21
62 32 62 4 0 7 9 6 20 -2 27 -35 56 -58 52 -12 -2 -20 4 -24 17 -5 19 -43 31
-43 13z"/>
<path d="M9210 9443 c-23 -9 -60 -52 -60 -69 0 -11 -6 -13 -20 -9 -12 4 -20 2
-20 -5 0 -6 -10 -4 -25 6 -24 16 -27 15 -45 -1 -11 -10 -25 -15 -33 -12 -8 3
-20 1 -28 -4 -9 -5 -22 -3 -36 6 -30 20 -73 19 -100 -3 -19 -15 -20 -19 -8
-36 10 -13 21 -17 38 -12 17 4 27 1 30 -8 3 -8 22 -19 41 -26 24 -7 36 -18 36
-30 0 -25 22 -41 40 -30 8 6 27 10 42 10 19 0 35 10 54 35 14 19 32 35 40 35
22 0 37 40 30 83 -5 30 -4 38 6 34 7 -2 19 2 26 9 7 8 9 14 5 14 -4 0 -1 5 7
10 16 10 4 12 -20 3z"/>
<path d="M8770 9381 c0 -11 4 -22 9 -25 4 -3 6 6 3 19 -5 30 -12 33 -12 6z"/>
<path d="M8620 9317 c0 -14 -5 -16 -27 -11 l-27 7 23 -31 c25 -35 33 -38 50
-18 8 10 8 20 -4 42 -10 20 -15 23 -15 11z"/>
<path d="M8674 9295 c24 -18 39 -20 34 -2 -3 6 -15 13 -29 15 -23 2 -23 2 -5
-13z"/>
<path d="M9380 8439 c0 -5 5 -7 10 -4 6 3 10 8 10 11 0 2 -4 4 -10 4 -5 0 -10
-5 -10 -11z"/>
<path d="M9063 8076 c-13 -6 -23 -19 -23 -28 0 -22 -33 -24 -50 -3 -7 8 -17
12 -22 9 -6 -4 -14 -1 -18 6 -4 6 -10 -10 -14 -39 -4 -33 -11 -51 -20 -51 -23
0 -41 -94 -26 -130 7 -17 14 -30 15 -30 2 0 22 11 44 23 l41 24 -20 26 c-20
25 -19 54 1 42 5 -4 9 -2 9 2 0 5 13 10 30 11 39 3 80 19 80 32 0 5 6 10 14
10 22 0 29 81 8 97 -19 14 -20 14 -49 -1z"/>
<path d="M8650 7370 c0 -5 5 -10 11 -10 5 0 7 5 4 10 -3 6 -8 10 -11 10 -2 0
-4 -4 -4 -10z"/>
<path d="M7910 7136 c0 -2 7 -6 15 -10 8 -3 15 -1 15 4 0 6 -7 10 -15 10 -8 0
-15 -2 -15 -4z"/>
</g>
</svg>
