<?xml version="1.0" standalone="no"?>
<!DOCTYPE svg PUBLIC "-//W3C//DTD SVG 20010904//EN"
 "http://www.w3.org/TR/2001/REC-SVG-20010904/DTD/svg10.dtd">
<svg version="1.0" xmlns="http://www.w3.org/2000/svg"
 width="864.104937pt" height="903.725870pt" viewBox="0 0 864.104937 903.725870"
 preserveAspectRatio="xMidYMid meet">
<metadata>
Created by potrace 1.15, written by Peter Selinger 2001-2017
</metadata>
<g transform="translate(-528.566382,1414.842538) scale(0.100000,-0.100000)"
fill="#222222" stroke="none">
<path d="M8270 14140 c-8 -5 -32 -16 -54 -25 -28 -11 -37 -19 -32 -31 5 -12 2
-15 -12 -12 -16 5 -19 0 -17 -31 2 -42 18 -75 51 -111 12 -14 30 -42 39 -62
l15 -38 -26 0 c-22 0 -25 2 -14 15 10 13 9 15 -9 15 -11 0 -21 5 -21 12 0 6
-3 8 -6 5 -4 -4 -2 -12 4 -20 6 -7 7 -18 3 -25 -12 -20 70 -98 110 -106 22 -4
38 -14 44 -28 12 -26 35 -36 35 -14 0 9 5 16 12 16 6 0 5 7 -5 18 -16 17 -15
19 19 32 20 8 40 23 46 33 8 15 12 16 26 5 14 -11 15 -11 9 6 -6 16 -4 17 20
11 16 -4 47 -8 70 -9 24 -1 51 -10 61 -19 11 -10 22 -13 28 -8 17 17 60 16 87
-2 14 -9 35 -17 46 -17 11 0 27 -10 36 -22 15 -21 16 -21 11 -3 -7 28 28 68
53 60 17 -5 20 0 26 48 5 41 14 60 35 81 32 30 30 53 -6 62 -13 3 -29 19 -36
34 -16 38 -61 47 -89 19 -16 -16 -23 -18 -35 -8 -10 8 -17 9 -28 0 -9 -7 -42
-10 -95 -6 -48 2 -81 0 -81 -5 0 -6 -13 -10 -29 -10 -16 0 -37 -7 -46 -16 -18
-18 -111 -28 -121 -13 -8 14 -24 11 -24 -6 0 -28 -27 -15 -48 24 -8 12 -9 20
-3 16 6 -3 11 1 11 9 0 9 -4 16 -8 16 -16 0 -34 68 -23 88 15 29 0 40 -29 22z"/>
<path d="M8156 13927 c3 -10 9 -15 12 -12 3 3 0 11 -7 18 -10 9 -11 8 -5 -6z"/>
<path d="M8833 13654 c-3 -8 -1 -20 6 -27 14 -14 15 -54 1 -62 -5 -3 -10 -18
-10 -33 -1 -35 -22 -62 -49 -62 -20 0 -22 -4 -16 -31 5 -21 3 -34 -5 -39 -17
-11 -3 -71 15 -64 7 3 16 1 20 -5 3 -6 -1 -11 -9 -11 -9 0 -16 -6 -16 -13 0
-23 26 -49 45 -46 22 5 94 -56 82 -68 -7 -6 62 -32 86 -33 11 0 8 58 -3 65 -8
5 -8 11 0 20 8 10 5 18 -15 32 -44 30 -66 53 -60 63 3 5 -1 23 -10 39 -19 37
-19 41 -1 41 8 0 21 13 29 29 14 27 13 31 -4 47 -11 10 -16 20 -12 23 8 6 12
21 18 87 3 40 3 41 -26 38 -20 -3 -32 1 -35 11 -8 20 -23 19 -31 -1z"/>
<path d="M6693 13610 c-13 -5 -23 -14 -23 -20 0 -8 -11 -9 -29 -5 -32 7 -51
-13 -51 -55 0 -12 -10 -25 -25 -32 -13 -6 -22 -15 -19 -19 4 -8 -43 -14 -68
-10 -5 0 -8 -5 -8 -13 0 -8 -9 -33 -19 -56 -17 -38 -18 -46 -5 -77 14 -31 13
-36 -7 -64 -11 -16 -22 -36 -23 -44 -1 -8 -5 -18 -9 -21 -4 -4 -7 -18 -7 -31
0 -13 -4 -21 -10 -18 -6 3 -7 -1 -4 -9 4 -11 0 -16 -10 -16 -9 0 -16 -7 -16
-16 0 -8 -15 -29 -34 -47 -55 -52 -56 -73 -5 -120 27 -24 39 -42 32 -44 -7 -3
-13 -11 -13 -19 0 -8 -5 -14 -11 -14 -7 0 -6 -8 4 -23 10 -16 12 -28 5 -40 -5
-10 -6 -22 -3 -27 10 -15 -5 -12 -22 6 -12 12 -18 13 -24 3 -4 -7 -5 -19 -1
-27 3 -8 -3 -21 -14 -30 -17 -13 -16 -14 22 -9 23 2 47 1 53 -3 19 -11 41 -84
28 -92 -11 -7 37 -86 58 -94 5 -2 9 -23 7 -47 -3 -56 25 -92 66 -82 39 8 56
-12 42 -51 -8 -20 -8 -30 -1 -32 6 -2 11 -9 11 -16 0 -17 40 -61 62 -69 9 -3
24 1 35 8 25 19 30 18 36 -6 5 -18 8 -19 26 -7 11 7 17 15 13 18 -38 26 -69
110 -42 110 12 0 6 56 -15 145 -8 33 -16 71 -17 85 -3 21 -8 25 -33 25 -33 0
-36 6 -35 73 0 25 -4 32 -19 32 -11 0 -23 9 -26 20 -5 15 -12 19 -26 15 -15
-5 -19 -2 -19 14 0 12 5 21 11 21 6 0 8 8 4 19 -3 10 1 24 10 31 19 15 19 39
2 65 -8 11 -14 38 -14 60 -1 36 0 38 13 20 9 -13 14 -14 14 -5 0 19 16 1 25
-27 5 -17 2 -23 -9 -23 -9 0 -13 -6 -10 -14 3 -8 13 -12 25 -9 14 4 19 0 19
-15 0 -21 26 -38 32 -20 3 8 10 8 25 -1 12 -6 28 -8 36 -5 8 3 23 -5 33 -18
31 -39 66 -59 81 -47 17 14 72 -42 80 -81 4 -22 9 -27 27 -22 32 8 46 22 46
48 0 15 6 24 15 24 8 0 15 5 15 10 0 6 11 16 25 22 14 6 25 17 25 24 0 6 11
15 25 18 14 4 25 13 25 20 0 9 7 12 20 9 11 -3 20 0 20 6 0 8 7 7 23 -2 24
-16 93 -4 82 13 -10 16 21 11 35 -5 17 -21 31 -9 24 21 -6 24 10 35 19 12 2
-7 8 -10 13 -5 9 9 -32 40 -59 44 -11 2 -30 12 -44 23 -13 10 -30 17 -37 14
-7 -3 -19 2 -26 11 -15 18 -44 20 -35 3 4 -7 -1 -4 -9 6 -18 22 -21 56 -6 56
5 0 7 6 4 14 -3 8 2 25 10 39 9 13 14 31 10 40 -3 9 0 32 6 52 14 43 -1 113
-32 154 -10 13 -18 34 -18 47 0 13 -4 24 -9 24 -5 0 -13 13 -19 28 -8 23 -6
31 6 38 23 15 6 37 -18 24 -10 -5 -34 -10 -53 -10 -31 0 -35 -4 -42 -32 -4
-18 -8 -37 -9 -43 -1 -13 -54 -65 -67 -65 -5 0 -14 -12 -20 -26 -9 -25 -12
-26 -56 -20 -25 3 -52 6 -60 6 -8 0 -11 5 -8 10 3 6 -1 13 -10 16 -14 6 -14 8
1 19 12 8 14 14 5 19 -8 5 -6 12 8 24 27 24 12 57 -32 71 -25 8 -36 19 -40 36
-5 28 -3 29 25 14 26 -14 38 2 36 48 -1 18 -2 33 -2 32 -1 0 -11 -4 -23 -9z
m-203 -861 c0 -6 -4 -7 -10 -4 -5 3 -10 11 -10 16 0 6 5 7 10 4 6 -3 10 -11
10 -16z"/>
<path d="M6892 13548 c-7 -7 -12 -20 -12 -30 0 -21 35 -64 43 -51 12 21 16 62
7 68 -6 4 -8 11 -5 16 9 13 -19 11 -33 -3z"/>
<path d="M8766 13246 c14 -37 -114 -47 -176 -14 -44 23 -51 23 -84 -3 -14 -11
-30 -18 -36 -14 -10 6 -90 -69 -90 -85 0 -5 -14 -10 -30 -10 -23 0 -33 -6 -40
-24 -5 -13 -18 -27 -30 -31 -12 -4 -25 -18 -30 -31 -5 -13 -16 -24 -25 -24 -8
0 -15 -7 -15 -16 0 -24 -33 -75 -45 -70 -6 2 -17 -10 -24 -26 -12 -26 -18 -29
-47 -26 -18 2 -30 0 -28 -4 3 -4 1 -8 -4 -8 -6 0 -8 -9 -5 -20 3 -11 0 -20 -6
-20 -6 0 -17 -11 -23 -25 -6 -14 -20 -25 -30 -25 -11 0 -23 -11 -28 -25 -5
-14 -14 -25 -20 -25 -5 0 -10 -5 -10 -11 0 -38 -109 -78 -161 -60 -43 15 -49
14 -49 -8 0 -28 -12 -32 -89 -35 -63 -3 -72 -6 -103 -37 -19 -19 -37 -41 -41
-50 -4 -12 -17 -17 -43 -17 -22 0 -47 -8 -63 -21 -14 -12 -36 -26 -48 -31 -13
-5 -23 -14 -23 -19 0 -6 -20 -22 -43 -36 -42 -24 -67 -58 -67 -90 0 -8 -7 -15
-15 -15 -7 0 -18 -7 -23 -16 -12 -22 -106 -53 -126 -42 -12 7 -14 5 -10 -7 5
-11 0 -15 -17 -13 -16 2 -28 13 -35 32 -5 16 -19 31 -29 32 -11 2 -25 11 -32
20 -8 11 -13 13 -13 5 0 -8 -7 -10 -20 -6 -16 5 -20 2 -20 -14 0 -18 -6 -21
-40 -21 -22 0 -40 -4 -40 -10 0 -5 -5 -10 -11 -10 -12 0 -59 -50 -59 -62 0
-16 -20 -7 -21 10 -1 9 -5 -7 -9 -36 -5 -31 -17 -63 -28 -75 -19 -20 -19 -25
-7 -55 12 -28 12 -34 1 -38 -14 -5 -32 -66 -27 -92 2 -14 -43 -62 -59 -62 -5
0 -7 -16 -5 -35 4 -30 2 -35 -16 -35 -11 0 -27 7 -36 15 -10 11 -25 14 -48 9
-19 -3 -35 -1 -39 5 -9 14 -66 14 -66 1 0 -6 -11 -4 -24 5 -20 14 -25 14 -35
1 -14 -16 -36 -12 -64 13 -16 13 -19 13 -28 1 -5 -8 -8 -32 -5 -52 2 -21 0
-38 -5 -38 -5 0 -9 -19 -9 -41 0 -36 6 -47 41 -79 26 -24 39 -42 34 -50 -11
-18 15 -30 38 -19 22 13 47 -4 47 -32 0 -10 14 -32 31 -48 16 -16 26 -32 20
-35 -13 -8 -61 14 -61 28 0 6 -15 11 -32 10 -42 0 -72 28 -65 62 5 26 -3 23
-46 -20 -11 -10 -22 -14 -26 -9 -3 5 -34 10 -67 11 -51 2 -63 -1 -68 -15 -6
-14 -9 -15 -16 -3 -7 11 -13 8 -32 -14 -13 -15 -33 -39 -45 -53 -27 -30 -26
-25 -13 -58 9 -23 8 -26 -5 -21 -8 3 -15 1 -15 -4 0 -6 4 -10 9 -10 14 0 13
-120 -1 -120 -8 -1 -7 -5 5 -14 11 -8 17 -27 17 -50 0 -20 5 -36 11 -36 8 0
10 14 6 39 -5 37 -3 39 24 45 21 4 29 11 29 26 0 11 5 20 11 20 5 0 8 4 5 9
-3 5 5 25 19 45 14 20 25 43 25 51 0 14 14 18 70 17 14 0 52 -11 84 -25 47
-20 63 -23 78 -14 24 16 23 44 -2 52 -19 6 -26 25 -14 38 4 3 17 -1 30 -9 13
-9 28 -13 34 -9 5 3 10 1 10 -4 0 -6 -7 -11 -15 -11 -11 0 -14 -9 -11 -41 4
-37 16 -68 16 -40 0 15 50 60 68 61 14 0 16 16 2 25 -5 3 -10 13 -10 21 0 11
6 14 23 9 34 -11 44 -24 27 -35 -13 -9 -13 -11 0 -20 11 -7 19 -5 30 8 14 17
16 17 47 -17 26 -29 33 -32 33 -17 0 16 2 17 17 5 15 -12 16 -12 10 4 -17 45
-19 67 -7 67 10 0 9 5 -2 18 -9 9 -19 28 -23 42 -8 25 -7 25 13 7 15 -14 21
-15 24 -5 3 7 -9 23 -26 36 -33 24 -40 27 -31 12 9 -15 -4 -30 -20 -23 -20 7
-19 15 3 39 21 22 26 75 13 121 -6 22 -6 43 2 65 15 44 14 43 32 28 9 -7 18
-10 21 -7 7 7 74 -70 74 -84 0 -5 9 -9 19 -9 41 0 47 -9 45 -60 -2 -33 2 -55
12 -64 19 -20 18 -26 -7 -26 -15 0 -19 5 -15 15 3 9 0 15 -10 15 -11 0 -15 -6
-11 -20 4 -16 0 -20 -19 -20 -17 0 -24 -6 -24 -18 0 -10 -13 -32 -30 -48 -33
-33 -35 -40 -17 -59 44 -50 48 -65 17 -65 -11 0 -20 5 -20 10 0 6 -4 10 -10
10 -5 0 -10 -7 -10 -15 0 -16 -12 -20 -24 -8 -4 4 -15 8 -24 8 -11 0 -17 9
-18 23 -1 12 -4 26 -8 29 -7 8 -46 -31 -46 -47 0 -10 -5 -12 -32 -14 -7 -1
-19 -7 -27 -14 -7 -7 -22 -10 -32 -7 -24 8 -34 -16 -19 -45 13 -25 11 -29 -18
-35 -31 -6 -62 -24 -42 -25 8 -1 0 -9 -18 -19 -28 -14 -31 -19 -19 -29 21 -18
9 -60 -22 -80 -14 -9 -29 -21 -32 -26 -4 -5 -11 -6 -16 -3 -5 3 -19 -10 -32
-28 -14 -21 -28 -32 -37 -28 -8 3 -14 0 -14 -7 0 -10 -3 -10 -14 -1 -17 15
-82 0 -79 -18 4 -17 -69 -14 -106 5 -17 8 -29 20 -26 24 3 5 -6 32 -21 60 -25
47 -28 50 -65 50 -21 0 -39 4 -39 9 0 5 -11 19 -25 32 -13 13 -25 34 -25 45 0
12 -7 39 -16 60 -10 24 -14 51 -10 75 4 26 2 40 -9 49 -10 9 -15 9 -15 1 0
-15 -67 -14 -76 1 -4 7 -3 8 4 4 7 -4 12 -2 12 3 0 19 -22 12 -27 -9 -3 -12
-12 -19 -21 -18 -9 2 -17 -3 -18 -9 -1 -7 -2 -17 -3 -23 0 -5 -8 -10 -16 -10
-13 0 -19 -25 -18 -77 0 -6 -5 -9 -12 -6 -28 10 -27 -38 0 -77 20 -29 26 -46
21 -65 -8 -31 15 -79 50 -102 20 -13 25 -23 21 -46 -2 -16 4 -44 14 -64 15
-29 16 -40 7 -57 -6 -11 -11 -35 -10 -52 2 -21 -3 -34 -14 -38 -15 -6 -15 -8
0 -31 18 -27 21 -65 6 -65 -5 0 -12 -16 -16 -35 -3 -19 -12 -35 -19 -35 -18 0
-48 -37 -49 -62 -1 -20 -6 -23 -41 -21 -22 1 -43 2 -47 2 -5 1 -8 10 -8 21 0
23 -18 27 -26 5 -4 -10 -11 -12 -22 -7 -10 5 -30 6 -47 3 -29 -6 -29 -7 28
-34 32 -15 62 -27 67 -27 4 0 17 -11 28 -25 11 -14 26 -25 33 -25 8 0 34 -11
58 -25 24 -14 68 -32 98 -41 39 -11 67 -28 94 -56 21 -22 39 -44 39 -49 0 -5
9 -9 19 -9 11 0 27 -10 35 -21 9 -13 21 -19 30 -16 9 4 16 1 16 -6 1 -7 15
-21 33 -32 23 -15 31 -27 29 -43 -2 -13 3 -25 12 -28 9 -3 16 -13 16 -21 0 -8
11 -24 24 -34 19 -15 24 -27 22 -58 -1 -21 -8 -46 -15 -55 -12 -14 -11 -16 5
-16 11 0 30 -9 44 -20 14 -11 30 -20 36 -20 6 0 17 -13 24 -30 7 -16 18 -30
25 -30 7 0 16 -11 19 -24 8 -32 55 -50 109 -41 117 20 171 15 162 -14 -5 -16
4 -19 75 -25 44 -4 84 -5 90 -1 14 9 55 -21 68 -50 7 -15 20 -25 32 -25 11 0
20 -4 20 -8 0 -5 7 -17 16 -28 15 -18 15 -18 9 4 -4 14 -2 23 7 25 7 2 35 11
63 20 29 9 53 13 59 7 13 -13 36 0 36 21 0 22 8 23 33 5 18 -14 67 -10 67 6 0
5 4 7 9 4 5 -4 11 0 13 6 4 10 12 10 34 3 31 -11 46 -45 19 -45 -11 0 -7 -8
15 -30 20 -19 41 -30 60 -30 43 0 81 -18 87 -40 3 -11 9 -20 14 -20 5 0 9 -5
9 -11 0 -6 13 -22 30 -35 29 -25 34 -42 15 -56 -6 -4 -2 -8 8 -8 10 0 20 -7
24 -16 9 -24 48 -61 61 -56 8 2 8 11 1 28 -14 38 -11 52 12 56 12 2 31 15 42
30 17 23 18 30 7 43 -12 14 -7 15 51 11 40 -2 73 1 89 9 40 20 86 8 112 -31
13 -19 26 -34 31 -34 4 0 7 -8 7 -17 0 -9 12 -34 27 -55 22 -33 31 -38 59 -36
27 2 41 -5 69 -32 19 -19 35 -38 35 -43 0 -22 73 -96 98 -99 21 -2 26 -8 24
-23 -2 -11 -4 -33 -6 -50 -6 -63 -17 -85 -42 -85 -17 0 -24 -6 -24 -20 0 -11
-4 -20 -10 -20 -5 0 -10 -10 -10 -22 0 -12 -5 -37 -12 -55 -10 -27 -17 -33
-43 -33 -16 0 -41 -8 -55 -18 -47 -33 -105 -93 -102 -107 3 -16 -66 -75 -89
-75 -20 0 -31 -54 -15 -70 8 -8 4 -12 -12 -17 -15 -3 -21 -11 -18 -20 3 -8 6
-17 6 -20 0 -3 7 0 15 7 17 14 17 6 0 -72 -7 -29 -39 -42 -79 -32 -22 5 -23 4
-16 -43 6 -35 4 -52 -6 -64 -8 -8 -14 -25 -14 -37 0 -12 -4 -22 -10 -22 -16 0
-11 -52 7 -72 14 -15 15 -21 4 -27 -9 -6 -11 -16 -6 -32 15 -45 14 -100 -1
-106 -8 -3 -14 -18 -14 -33 0 -28 -22 -60 -41 -60 -15 0 -59 -51 -59 -68 0 -8
-18 -34 -39 -57 -40 -44 -44 -56 -56 -167 -5 -44 -11 -60 -29 -72 -17 -11 -22
-22 -19 -39 4 -20 -2 -29 -26 -43 -34 -20 -33 -20 -21 -49 5 -14 1 -30 -12
-53 -16 -26 -18 -35 -8 -47 7 -8 19 -15 27 -15 12 0 14 -9 9 -43 -4 -26 -2
-56 5 -73 16 -39 18 -76 5 -93 -7 -10 -6 -16 6 -25 18 -13 22 -84 6 -104 -8
-9 -5 -24 8 -54 10 -23 17 -50 16 -60 -2 -13 1 -16 13 -12 13 5 16 2 13 -17
-2 -15 -12 -25 -27 -29 -14 -3 -32 -19 -41 -35 -14 -25 -14 -34 -4 -55 7 -14
15 -33 19 -43 3 -11 14 -21 25 -24 11 -3 20 -12 20 -19 0 -8 9 -14 20 -14 11
0 20 6 20 13 0 13 7 14 83 8 4 -1 7 -11 7 -22 0 -17 3 -19 14 -10 7 6 21 9 30
5 12 -4 16 0 16 15 0 22 14 28 25 11 5 -8 11 -7 21 1 7 6 12 15 9 19 -10 16
120 23 160 9 6 -2 30 0 54 4 46 8 70 29 71 60 0 11 8 17 23 17 20 0 23 4 19
30 -4 29 -4 29 25 20 25 -9 37 -6 76 15 26 15 49 31 52 36 4 5 19 9 35 9 20 0
29 6 34 23 6 24 75 77 101 77 28 0 55 20 55 40 0 40 41 88 110 130 62 37 69
45 75 80 5 31 11 38 28 38 12 -1 34 -13 50 -27 15 -13 27 -20 27 -14 0 6 15
15 33 18 40 9 57 22 57 46 0 11 5 19 11 19 5 0 7 5 4 10 -10 16 76 12 94 -4
20 -17 81 -31 81 -18 0 5 -11 13 -25 16 -28 7 -33 21 -10 29 10 4 13 17 10 43
-3 20 -8 40 -11 45 -13 21 26 7 44 -16 11 -14 25 -25 32 -25 25 0 70 -35 71
-55 0 -15 2 -16 7 -5 8 16 92 23 92 8 0 -5 8 -7 18 -4 12 4 33 -6 60 -30 23
-19 42 -31 42 -24 0 7 6 8 19 0 30 -16 59 -12 57 7 0 10 9 19 23 22 22 6 22 7
7 20 -24 20 -49 71 -36 71 7 0 8 6 1 19 -14 26 -7 29 51 20 28 -5 54 -6 58 -4
4 3 14 -2 21 -11 10 -12 10 -20 0 -35 -14 -23 -6 -58 17 -75 8 -6 18 -35 22
-65 6 -47 4 -55 -14 -70 l-21 -17 24 -26 c15 -16 31 -24 42 -21 19 6 63 -47
66 -80 1 -11 15 -60 32 -109 17 -49 31 -93 31 -99 0 -6 -10 -21 -21 -33 l-21
-23 20 -33 c23 -38 28 -71 18 -110 -4 -15 -5 -35 -2 -46 11 -34 60 -89 75 -84
8 3 11 0 7 -6 -4 -6 2 -16 13 -22 11 -6 18 -16 15 -24 -8 -22 25 -27 62 -10
41 20 59 9 59 -34 0 -22 5 -28 28 -30 22 -3 27 -7 22 -23 -4 -11 -2 -19 5 -19
6 0 9 -4 6 -9 -3 -5 1 -14 9 -21 8 -7 12 -16 9 -21 -3 -5 11 -30 31 -56 30
-39 33 -48 20 -53 -14 -5 -14 -8 5 -25 15 -14 23 -16 28 -8 6 9 20 5 51 -12
51 -29 51 -29 51 -10 0 17 16 20 25 5 3 -6 10 -10 14 -10 13 0 52 41 46 50 -3
5 -1 11 4 15 6 3 15 -4 21 -15 7 -13 21 -20 39 -20 16 0 34 -7 41 -15 7 -8 18
-15 25 -15 7 0 25 -19 41 -43 15 -24 35 -48 45 -53 10 -5 42 -30 71 -55 42
-36 63 -48 101 -52 45 -6 48 -5 42 13 -5 14 -2 20 9 20 10 0 16 9 16 21 0 27
36 86 60 99 26 14 40 -8 34 -52 -2 -20 0 -40 6 -43 16 -10 11 -35 -7 -35 -14
0 -15 -2 -4 -12 10 -11 15 -9 26 6 14 19 35 14 35 -8 0 -8 7 -19 15 -26 12
-10 16 -9 21 4 3 9 10 16 15 16 19 0 44 36 41 58 -2 13 0 31 4 40 4 9 6 25 5
36 -4 33 20 78 40 73 11 -3 19 2 22 14 4 16 15 19 62 19 47 0 60 -4 79 -25 25
-27 38 -32 31 -12 -3 6 6 26 20 42 21 25 26 28 34 15 7 -9 7 -16 1 -18 -6 -2
-6 -10 -1 -20 5 -9 9 -21 9 -27 -1 -12 51 -43 75 -44 21 -1 22 -14 2 -31 -21
-17 -19 -35 5 -37 13 -1 22 6 26 23 7 28 44 33 68 8 15 -14 16 -14 16 3 0 33
15 46 39 34 11 -7 21 -8 21 -2 0 5 11 12 25 15 27 7 89 -29 79 -46 -3 -4 2 -8
11 -8 10 0 13 5 9 12 -5 7 -8 24 -8 38 -1 19 -6 25 -24 24 -17 0 -30 12 -54
54 -25 45 -33 52 -38 37 -6 -17 -7 -17 -13 -2 -3 9 -2 17 3 17 5 0 7 7 4 15
-4 8 -15 15 -26 15 -11 0 -18 5 -16 13 8 22 34 18 46 -8 12 -25 32 -34 32 -14
0 11 24 39 34 39 14 0 46 -42 46 -59 0 -10 7 -35 15 -55 9 -20 13 -41 10 -46
-9 -14 6 -40 24 -40 24 -1 58 -29 45 -38 -14 -9 -11 -49 4 -64 7 -7 12 -22 12
-35 0 -13 4 -23 9 -23 6 0 7 -24 4 -57 -5 -46 -12 -62 -34 -80 -35 -30 -45
-72 -25 -111 18 -35 13 -42 -28 -43 -17 0 -40 -4 -51 -8 -11 -5 -25 -4 -32 1
-10 8 -13 5 -13 -11 0 -11 -4 -21 -10 -21 -5 0 -10 -4 -10 -10 0 -5 11 -10 25
-10 14 0 25 -6 25 -12 0 -7 5 -5 11 5 5 9 15 17 20 17 16 0 114 -99 106 -107
-4 -3 0 -15 10 -25 10 -12 12 -18 4 -18 -8 0 -7 -7 3 -22 11 -15 14 -33 10
-55 -8 -42 1 -69 19 -55 24 19 85 3 71 -19 -3 -5 8 -9 25 -9 16 0 32 4 35 9 7
11 64 -8 85 -27 35 -34 91 -52 155 -51 57 1 66 4 66 20 0 31 23 70 37 64 7 -3
19 -8 27 -11 10 -4 19 10 30 51 9 30 15 61 14 68 -2 7 2 14 7 15 24 8 34 26
29 50 -4 22 0 30 25 44 21 11 29 22 25 32 -3 9 -11 13 -17 9 -7 -4 -8 0 -4 12
5 11 1 22 -10 31 -17 12 -16 13 8 14 45 0 46 49 2 50 -7 0 -10 7 -6 16 3 9 0
20 -8 24 -10 7 -6 12 16 21 17 7 33 12 36 11 10 -2 82 -12 97 -14 6 -1 12 -5
12 -9 0 -5 11 -4 25 1 28 11 43 -3 25 -25 -9 -11 1 -27 52 -81 35 -36 79 -83
98 -104 19 -20 48 -40 63 -44 15 -3 25 -11 22 -16 -3 -6 -2 -10 4 -10 5 0 13
10 17 22 8 27 43 57 67 58 9 0 17 7 17 15 0 20 73 20 104 0 19 -13 29 -13 48
-4 22 10 25 15 18 44 -4 18 -10 38 -14 44 -4 6 -3 11 3 11 6 0 8 7 4 16 -5 13
0 14 29 9 30 -6 36 -3 46 20 6 14 18 28 26 31 15 6 10 44 -5 44 -5 0 -9 14 -9
31 0 26 3 29 20 24 17 -5 23 0 36 30 8 21 18 35 20 32 3 -3 14 2 24 11 14 11
17 23 13 46 -6 29 -6 30 11 14 22 -23 82 -34 100 -19 23 19 29 61 11 80 -8 10
-15 22 -15 27 0 6 -13 23 -30 39 -35 34 -38 45 -10 45 25 0 25 11 0 33 -14 12
-19 24 -14 41 6 26 -17 46 -53 46 -10 0 -35 11 -55 25 -33 22 -38 23 -46 9
-13 -23 -48 -13 -97 26 -52 41 -70 67 -56 83 11 15 4 54 -14 77 -20 25 -32 72
-34 129 -2 45 0 53 13 48 17 -7 20 2 17 43 -2 34 19 102 36 117 10 8 11 13 3
18 -6 4 -10 21 -8 38 3 26 -2 33 -33 51 -54 32 -119 88 -119 103 0 7 9 13 19
13 24 0 20 19 -33 165 -6 17 -9 34 -8 39 2 5 -1 21 -6 35 -7 21 -5 32 8 49 21
25 40 29 40 7 0 -31 39 -3 53 38 6 15 10 16 28 6 19 -10 25 -8 40 12 10 13 17
30 14 36 -2 7 6 15 19 19 18 4 22 11 18 30 -5 26 7 31 26 12 8 -8 15 -8 27 2
11 9 15 9 15 1 0 -8 5 -9 19 -1 13 7 17 16 14 31 -5 18 -3 20 13 11 16 -9 26
-4 58 29 36 38 37 42 31 87 -8 61 -36 96 -70 88 -18 -5 -27 -1 -35 14 -6 11
-18 20 -28 20 -20 0 -56 57 -41 65 23 15 8 46 -31 61 -22 9 -40 19 -40 23 0 3
28 6 63 7 70 1 124 20 133 46 4 13 16 18 45 18 27 0 39 4 39 14 0 8 -5 16 -11
18 -24 8 4 38 36 38 32 0 98 22 93 31 -2 2 2 -1 8 -8 6 -7 19 -13 29 -13 16 0
14 5 -10 30 l-28 30 37 35 c21 19 44 35 51 35 19 0 45 39 45 66 0 12 5 24 11
26 19 6 -9 50 -30 46 -20 -3 -71 27 -71 43 0 18 -30 41 -45 35 -8 -3 -15 -2
-15 2 0 4 -14 8 -30 9 -21 2 -30 -2 -30 -13 0 -11 -6 -14 -16 -10 -9 3 -20 6
-26 6 -6 0 -8 7 -5 15 9 21 -9 28 -26 10 -10 -9 -34 -15 -63 -15 -26 0 -55 -6
-63 -14 -29 -24 -77 -27 -96 -6 -22 25 -47 27 -38 3 4 -11 3 -14 -6 -9 -7 4
-10 13 -8 19 6 16 -22 69 -32 63 -10 -6 -45 31 -55 58 -5 14 -9 16 -20 7 -11
-10 -16 -8 -21 8 -6 21 -45 30 -45 11 0 -12 -49 8 -70 28 -13 13 -13 14 3 9 9
-4 17 -2 17 3 0 6 6 9 13 7 13 -2 13 5 1 38 -5 15 2 12 28 -13 31 -29 36 -31
48 -17 16 19 50 20 50 0 0 -8 5 -15 10 -15 15 0 12 48 -6 86 -9 19 -22 34 -29
34 -18 0 -64 39 -46 40 10 0 8 7 -8 23 -12 14 -19 31 -16 39 4 11 -2 17 -25
21 -16 4 -29 11 -28 16 2 6 -14 28 -36 50 -30 32 -37 46 -33 67 4 24 2 26 -26
21 -31 -4 -78 25 -64 39 7 7 -57 45 -70 43 -19 -3 -36 2 -30 8 8 7 -60 73 -74
73 -5 0 -18 17 -28 38 -35 64 -56 86 -77 77 -18 -7 -18 -7 1 -15 12 -5 14 -9
6 -9 -12 -1 -12 -4 -3 -13 18 -18 15 -23 -14 -26 -35 -3 -48 6 -34 23 8 10 6
25 -10 59 -11 25 -24 46 -29 46 -15 0 -42 48 -30 55 12 8 79 -60 79 -81 0 -8
5 -14 10 -14 13 0 13 13 1 26 -13 13 -2 64 14 64 7 0 15 7 19 15 3 8 12 15 20
15 7 0 16 6 19 14 5 12 11 13 37 3 27 -10 33 -10 41 6 6 9 16 17 24 17 9 0 11
7 7 22 -4 18 -2 20 14 14 72 -28 100 -19 192 65 36 33 48 50 41 60 -5 8 -9 29
-9 47 0 27 4 32 24 32 13 0 35 9 49 20 14 11 32 20 41 20 9 0 16 7 16 15 0 8
5 15 10 15 7 0 7 7 0 20 -9 18 -7 25 17 49 66 66 90 101 85 126 -2 14 0 25 5
25 5 0 17 14 27 31 10 17 23 28 30 26 8 -3 10 6 8 29 -3 22 0 34 8 34 9 0 10
10 6 33 -4 17 -9 46 -11 62 -4 30 -34 117 -35 101 0 -14 -30 15 -30 30 0 19
27 18 33 -1 4 -11 4 -10 3 2 -1 15 -10 18 -47 17 -26 -1 -52 -5 -59 -9 -6 -4
-17 -2 -23 4 -6 6 -8 11 -4 11 4 0 3 9 -3 20 -6 11 -15 18 -21 15 -17 -11 -49
6 -64 35 -18 34 -20 90 -4 90 7 0 8 7 4 18 -4 9 -9 23 -13 31 -4 11 0 13 18 8
27 -7 60 8 60 27 0 8 6 19 14 26 12 9 13 17 4 36 -10 22 -15 25 -34 23 -9 -1
-33 34 -34 49 0 6 8 12 18 13 13 0 14 2 2 6 -8 3 -19 12 -23 19 -11 19 -28 18
-21 -1 4 -8 2 -15 -4 -15 -14 0 -23 27 -15 47 5 14 1 15 -35 10 -22 -4 -43 -3
-46 1 -3 5 -18 7 -34 4 -17 -2 -40 2 -53 9 -13 7 -28 14 -34 15 -5 0 -15 2
-22 2 -12 2 -29 40 -25 56 2 4 -2 14 -8 20 -7 10 -3 16 16 24 35 17 89 15 104
-3 22 -26 37 -16 49 30 7 26 17 45 25 45 9 0 12 7 9 21 -5 18 -3 20 16 14 13
-4 21 -2 21 5 0 7 7 10 15 6 16 -6 39 24 48 64 4 14 17 37 31 51 16 18 21 30
15 40 -13 21 -11 31 8 27 21 -4 63 33 63 56 0 9 8 16 19 16 10 0 24 7 31 15 7
8 16 12 21 9 11 -7 11 -1 0 28 -11 29 3 68 25 68 13 0 15 7 9 43 -7 45 -29 70
-54 62 -17 -5 -47 44 -33 54 4 3 8 15 10 26 5 37 12 47 26 42 8 -3 27 5 41 19
15 14 34 23 41 20 9 -3 16 4 20 22 9 43 23 72 34 72 5 0 10 10 10 23 0 13 5
28 12 35 20 20 10 94 -18 123 -27 28 -23 39 12 39 13 0 26 5 29 10 3 6 15 10
26 10 10 0 19 7 19 15 0 8 4 15 8 15 5 0 15 11 22 25 10 19 10 27 1 39 -15 18
-7 36 16 36 15 0 15 12 -3 54 -5 14 -4 17 4 12 8 -4 10 -2 6 7 -3 8 2 17 11
21 12 4 15 13 10 34 -3 16 -2 40 4 54 9 23 7 25 -15 20 -20 -3 -24 -10 -24
-38 0 -35 -28 -64 -62 -64 -11 0 -18 -7 -18 -18 0 -13 -13 -24 -40 -35 -32
-12 -40 -20 -40 -41 0 -20 -5 -26 -22 -26 -13 -1 -34 -7 -48 -15 -34 -19 -44
-18 -72 5 -12 11 -34 29 -48 41 l-25 21 -3 -25 c-3 -27 -66 -100 -96 -110 -14
-6 -16 -10 -7 -21 9 -11 7 -15 -10 -19 -12 -3 -31 -2 -41 4 -16 8 -18 6 -18
-21 0 -17 -5 -30 -12 -30 -7 -1 5 -7 27 -15 27 -10 41 -11 46 -4 4 7 13 2 23
-12 20 -29 21 -50 2 -43 -7 3 -16 -2 -19 -10 -7 -18 -52 -22 -62 -6 -9 15 -25
12 -25 -4 0 -9 -8 -12 -25 -8 -14 2 -25 10 -25 16 0 7 -10 22 -22 33 -13 12
-35 35 -49 51 -15 17 -35 32 -45 34 -12 2 -21 15 -24 33 -4 20 -11 30 -23 29
-20 -2 -22 31 -6 90 8 31 8 41 -3 47 -21 14 -28 11 -28 -12 0 -11 -5 -29 -10
-40 -9 -16 -14 -17 -32 -8 -11 6 -33 8 -49 5 -15 -3 -31 -1 -35 5 -4 7 -10 7
-18 0 -9 -7 -16 -7 -25 2 -9 9 -14 9 -20 -1 -6 -10 -10 -10 -21 3 -11 14 -15
10 -31 -26 -11 -23 -19 -50 -19 -60 0 -12 -9 -21 -25 -25 -14 -3 -25 -10 -25
-14 0 -4 -11 -5 -24 -3 -30 6 -86 -25 -86 -48 0 -15 -4 -16 -30 -6 -16 6 -30
15 -30 18 0 4 -7 15 -16 23 -12 12 -20 13 -35 6 -10 -6 -29 -10 -42 -9 -61 5
-75 0 -82 -32 -5 -23 -10 -28 -18 -20 -16 16 -27 13 -27 -8 0 -10 -6 -23 -12
-29 -23 -18 -81 -17 -110 2 -20 13 -36 16 -55 11 -36 -10 -53 -10 -83 -1 -29
10 -79 55 -80 72 0 6 -6 17 -14 24 -8 6 -13 17 -10 24 8 21 -23 41 -41 26 -8
-6 -19 -9 -25 -5 -5 3 -10 1 -10 -5 0 -25 -42 14 -60 55 -10 24 -28 49 -39 55
-12 6 -21 17 -21 24 0 8 -12 24 -26 37 -14 13 -29 34 -34 47 -5 12 -17 22 -25
22 -9 0 -13 5 -10 10 3 6 3 10 -2 10 -13 -1 -43 -26 -43 -37 0 -5 -17 -14 -37
-19 -24 -6 -37 -15 -35 -24 7 -29 -8 -62 -25 -56 -10 4 -28 -7 -52 -32 -20
-21 -49 -44 -66 -50 -43 -17 -111 -18 -131 -1 -23 18 -64 108 -64 138 0 23 -2
23 -52 17 -29 -4 -55 -11 -58 -17 -3 -5 -29 -10 -58 -11 -38 -2 -57 2 -69 15
-16 15 -18 15 -35 0 -16 -15 -18 -14 -27 10 -6 16 -23 29 -45 37 -35 11 -48
34 -24 42 8 3 4 10 -10 17 -20 10 -27 10 -41 -3 -10 -9 -23 -16 -29 -16 -7 0
-12 -6 -12 -14 0 -7 -17 -18 -39 -24 -32 -8 -42 -6 -57 7 -16 15 -16 15 -10
-3 5 -15 2 -17 -19 -12 -22 6 -25 3 -25 -18 0 -19 -4 -23 -20 -19 -11 3 -17 9
-14 14 3 5 -2 9 -10 9 -10 0 -16 9 -16 21 0 16 4 19 21 14 20 -7 21 -4 15 21
-4 16 -27 48 -52 72 -24 24 -42 47 -39 52 3 5 1 11 -5 15 -18 11 -44 68 -49
110 -5 31 -12 43 -33 53 -16 7 -28 17 -28 22 0 5 -13 11 -30 15 -25 5 -30 11
-30 36 0 20 5 29 16 29 8 0 12 5 9 11 -4 6 -14 8 -23 4 -9 -3 -13 -3 -9 1 4 4
0 15 -8 24 -19 21 -10 50 16 50 10 0 19 6 19 13 0 7 9 18 20 25 21 13 26 37
10 47 -6 3 -17 -1 -26 -9 -32 -33 -91 -18 -154 40 -18 16 -40 24 -75 26 -40 2
-51 7 -54 22 -7 37 -48 58 -117 61 -41 1 -68 -2 -74 -10 -10 -12 -63 -7 -88 9
-5 3 -12 -3 -15 -14 -9 -33 -30 -24 -24 10 6 26 1 34 -34 62 -38 30 -39 33
-19 40 12 4 26 6 31 2 5 -3 9 0 9 5 0 6 -4 11 -10 11 -5 0 -10 20 -10 44 0 32
-4 45 -17 50 -25 9 -80 41 -98 56 -20 17 -19 31 1 23 12 -4 15 -2 12 8 -3 8
-17 14 -32 15 -15 1 -32 6 -39 13 -15 15 -27 14 -21 -3z m-1806 -1096 c0 -5
-4 -10 -10 -10 -5 0 -10 5 -10 10 0 6 5 10 10 10 6 0 10 -4 10 -10z m80 -16
c0 -20 -29 -29 -43 -14 -9 10 -7 11 10 6 18 -6 21 -4 16 15 -4 15 -3 20 5 15
7 -4 12 -14 12 -22z m5646 -374 c8 0 14 -5 14 -10 0 -7 -6 -7 -20 0 -11 6 -20
16 -19 23 0 9 2 9 6 0 2 -7 11 -13 19 -13z m-392 -1046 c20 -8 21 -44 1 -44
-8 0 -15 5 -15 10 0 6 5 10 12 10 6 0 8 3 5 6 -4 4 -13 1 -22 -6 -12 -10 -15
-10 -15 2 0 13 9 28 16 28 1 0 9 -3 18 -6z m-4997 -1038 c15 -8 40 -19 56 -25
23 -9 27 -16 27 -51 0 -22 -4 -40 -9 -40 -5 0 -8 8 -7 18 1 13 -7 17 -30 17
-17 0 -38 6 -46 13 -13 10 -17 10 -20 0 -4 -10 -8 -10 -21 1 -9 7 -14 17 -11
22 3 5 -1 9 -9 9 -8 0 -17 7 -21 15 -3 9 0 15 9 15 8 0 15 5 15 10 0 14 34 12
67 -4z m-114 -25 c-2 -6 2 -11 9 -11 6 0 9 -2 6 -5 -9 -10 -38 7 -38 22 0 8 6
13 13 10 6 -2 11 -10 10 -16z m27 -85 c0 -3 -4 -8 -10 -11 -5 -3 -10 -1 -10 4
0 6 5 11 10 11 6 0 10 -2 10 -4z m90 -141 c0 -8 -7 -15 -16 -15 -14 0 -14 3
-4 15 7 8 14 15 16 15 2 0 4 -7 4 -15z m5540 -1125 c0 -5 -4 -10 -10 -10 -5 0
-10 5 -10 10 0 6 5 10 10 10 6 0 10 -4 10 -10z m350 -156 c0 -3 -5 -14 -10
-24 -7 -12 -7 -21 0 -25 6 -4 2 -15 -10 -27 -15 -16 -17 -25 -9 -35 15 -17 -1
-16 -24 1 -21 16 -14 66 9 66 10 0 13 7 8 25 -5 21 -3 25 15 25 12 0 21 -3 21
-6z m-2040 -1364 c0 -6 -4 -10 -9 -10 -5 0 -16 -3 -25 -6 -10 -4 -16 -1 -16 8
0 7 11 15 25 16 14 1 25 -3 25 -8z m-8 -85 c-4 -21 1 -27 32 -40 19 -8 45 -15
56 -15 11 0 20 -7 20 -15 0 -8 4 -15 10 -15 5 0 7 7 4 15 -11 28 4 15 20 -17
19 -38 20 -44 3 -30 -18 16 -68 7 -85 -14 -12 -16 -15 -16 -20 -5 -7 21 -43
53 -80 73 l-32 17 33 34 c39 42 46 44 39 12z m-3888 -31 c9 -24 8 -26 -14 -14
-11 6 -18 15 -15 21 9 14 22 11 29 -7z m3876 -99 c0 -8 -2 -15 -4 -15 -2 0 -6
7 -10 15 -3 8 -1 15 4 15 6 0 10 -7 10 -15z m170 -171 c0 -2 -7 -4 -15 -4 -8
0 -15 4 -15 10 0 5 7 7 15 4 8 -4 15 -8 15 -10z m-40 -214 c0 -17 -15 -11 -28
11 -12 19 -11 19 8 9 11 -6 20 -15 20 -20z m388 -209 c3 -8 -1 -12 -9 -9 -7 2
-15 10 -17 17 -3 8 1 12 9 9 7 -2 15 -10 17 -17z m-18 -36 c16 -19 0 -19 -26
0 -16 12 -16 14 -3 15 9 0 22 -7 29 -15z"/>
<path d="M13280 12990 c0 -11 4 -20 9 -20 5 0 7 9 4 20 -3 11 -7 20 -9 20 -2
0 -4 -9 -4 -20z"/>
<path d="M6126 12983 c-4 -8 3 -23 16 -34 28 -23 38 -24 38 -3 0 11 5 14 16
10 11 -4 14 -1 12 12 -4 18 -10 19 -42 6 -13 -5 -17 -4 -13 3 4 6 1 13 -7 16
-8 3 -17 -1 -20 -10z"/>
<path d="M6073 12957 c5 -15 37 -22 37 -9 0 5 -9 12 -21 15 -13 3 -19 1 -16
-6z"/>
<path d="M13309 12938 c-1 -7 0 -17 1 -23 1 -5 4 -26 7 -45 2 -19 8 -39 14
-44 24 -25 -4 -83 -32 -65 -21 13 -29 11 -29 -10 0 -28 -26 -47 -45 -31 -12
10 -13 7 -5 -20 5 -18 13 -37 18 -43 6 -7 8 -40 6 -74 -3 -58 -2 -63 17 -63
15 0 20 6 19 23 -6 64 0 86 23 89 14 2 21 9 18 18 -14 54 -13 59 7 53 18 -4
20 -1 16 21 -2 14 3 40 12 57 9 18 14 46 12 65 -2 19 0 34 4 34 4 0 8 6 8 13
0 17 -70 61 -71 45z"/>
<path d="M13240 12494 c0 -11 -3 -29 -6 -40 -4 -14 0 -23 9 -27 20 -8 29 59
10 75 -10 8 -13 6 -13 -8z"/>
<path d="M13218 12400 c-7 -11 -18 -20 -24 -20 -12 0 -24 -79 -13 -85 14 -9
47 43 52 83 6 47 3 51 -15 22z"/>
<path d="M12700 12069 c0 -5 5 -7 10 -4 6 3 10 8 10 11 0 2 -4 4 -10 4 -5 0
-10 -5 -10 -11z"/>
<path d="M6052 11555 c4 -5 3 -14 -3 -22 -9 -10 -3 -13 31 -13 24 0 41 2 39 4
-9 8 -73 38 -67 31z"/>
<path d="M6130 11509 c0 -5 5 -7 10 -4 6 3 10 8 10 11 0 2 -4 4 -10 4 -5 0
-10 -5 -10 -11z"/>
<path d="M12880 11405 c0 -8 7 -15 16 -15 14 0 14 3 4 15 -7 8 -14 15 -16 15
-2 0 -4 -7 -4 -15z"/>
<path d="M5894 11088 c-9 -31 -12 -88 -3 -88 4 0 14 7 23 15 8 8 21 15 29 15
9 0 14 10 13 29 -1 21 -8 31 -28 39 -23 9 -28 7 -34 -10z"/>
<path d="M6190 11036 c0 -9 5 -16 10 -16 6 0 10 4 10 9 0 6 -4 13 -10 16 -5 3
-10 -1 -10 -9z"/>
<path d="M13901 9562 c-14 -27 -14 -59 1 -68 7 -4 8 -3 4 4 -4 7 -2 12 5 12 7
0 9 3 6 6 -3 4 -2 16 4 26 7 14 8 23 1 30 -7 7 -14 3 -21 -10z"/>
<path d="M13780 9560 c0 -8 -3 -25 -6 -37 -6 -20 -3 -22 31 -21 36 1 37 2 18
17 -10 9 -25 25 -31 36 -8 14 -12 16 -12 5z"/>
<path d="M13630 9539 c0 -5 -4 -8 -9 -5 -14 9 -41 -5 -41 -20 0 -8 7 -17 15
-20 11 -5 13 -10 5 -19 -14 -16 -3 -24 30 -20 14 1 35 3 47 4 32 2 32 31 0 63
-30 29 -47 36 -47 17z"/>
<path d="M13820 9546 c0 -2 7 -7 16 -10 8 -3 12 -2 9 4 -6 10 -25 14 -25 6z"/>
<path d="M13735 9480 c4 -6 11 -8 16 -5 14 9 11 15 -7 15 -8 0 -12 -5 -9 -10z"/>
<path d="M13595 9430 c-4 -6 -11 -7 -17 -4 -6 4 -8 -1 -3 -16 6 -19 4 -22 -9
-17 -10 4 -16 1 -16 -9 0 -8 -5 -12 -11 -8 -8 4 -7 0 1 -15 6 -12 15 -19 20
-16 13 8 70 -26 68 -40 -1 -5 2 -23 7 -38 7 -25 9 -26 24 -13 9 7 25 16 36 18
18 3 17 6 -13 38 -21 21 -31 41 -29 52 3 10 2 18 -2 18 -4 0 -12 14 -18 30
-11 30 -27 38 -38 20z"/>
<path d="M7695 9360 c3 -5 8 -10 11 -10 2 0 4 5 4 10 0 6 -5 10 -11 10 -5 0
-7 -4 -4 -10z"/>
<path d="M7240 9252 c6 -13 14 -21 18 -18 3 4 -2 14 -12 24 -18 16 -18 16 -6
-6z"/>
<path d="M7355 9228 c0 -30 18 -57 38 -58 11 0 9 38 -3 45 -5 3 -10 15 -10 26
0 10 -6 19 -12 19 -8 0 -13 -13 -13 -32z"/>
<path d="M13592 9189 c-12 -5 -25 -15 -28 -24 -4 -8 -12 -15 -19 -15 -7 0 -15
-9 -18 -20 -4 -16 -14 -20 -51 -20 -27 0 -48 -5 -53 -14 -4 -7 -18 -18 -30
-25 -13 -6 -23 -18 -23 -27 0 -8 -12 -19 -26 -24 -21 -8 -25 -15 -22 -35 6
-32 1 -31 -24 0 -14 19 -25 24 -43 19 -29 -7 -65 3 -65 19 0 16 -56 41 -71 32
-6 -4 -9 -18 -6 -31 3 -17 0 -24 -11 -24 -8 0 -20 -8 -27 -17 -10 -14 -16 -15
-27 -6 -8 7 -27 11 -43 9 -17 -2 -38 -4 -47 -5 -15 -1 -15 -5 -6 -31 6 -17 8
-44 4 -60 -4 -25 -2 -30 14 -30 10 0 22 -9 25 -20 3 -11 15 -25 26 -30 10 -6
26 -24 34 -40 8 -16 25 -32 37 -36 32 -9 51 -26 39 -33 -6 -4 -4 -26 4 -58 16
-61 10 -93 -16 -93 -12 0 -19 -7 -19 -20 0 -10 -9 -24 -21 -30 -19 -11 -19
-13 -5 -29 9 -10 19 -31 22 -49 6 -27 3 -32 -20 -38 l-25 -6 26 -34 c18 -24
29 -31 37 -24 9 6 24 3 50 -11 l38 -20 5 21 c7 26 21 25 50 -2 29 -27 46 -14
37 30 -4 19 -14 34 -26 38 -11 3 -17 8 -14 11 3 3 -2 12 -10 20 -13 13 -11 17
11 35 14 11 25 29 25 40 0 26 51 72 84 76 15 2 36 12 47 23 18 18 19 25 10 71
-8 37 -8 54 0 64 7 9 8 14 1 14 -6 0 -17 3 -26 6 -12 4 -16 0 -16 -15 0 -25
-31 -29 -50 -6 -7 8 -20 15 -29 15 -10 0 -26 7 -37 15 -18 13 -18 14 11 20 27
6 30 10 33 52 1 29 9 51 19 58 11 8 14 21 11 39 -4 18 -2 24 4 18 6 -6 22 -7
40 -1 37 10 88 -15 88 -43 0 -10 5 -18 10 -18 6 0 10 11 10 25 0 18 5 25 20
25 15 0 26 12 39 43 24 56 68 107 92 107 26 0 25 38 -4 88 -19 34 -25 38 -45
31z m-602 -229 c0 -5 -2 -10 -4 -10 -3 0 -8 5 -11 10 -3 6 -1 10 4 10 6 0 11
-4 11 -10z"/>
<path d="M7988 9093 c7 -3 16 -2 19 1 4 3 -2 6 -13 5 -11 0 -14 -3 -6 -6z"/>
<path d="M13082 8680 c0 -14 2 -19 5 -12 2 6 2 18 0 25 -3 6 -5 1 -5 -13z"/>
<path d="M13080 8637 c0 -8 7 -20 15 -27 8 -7 12 -16 9 -21 -3 -5 0 -9 5 -9
16 0 13 16 -4 30 -8 7 -13 16 -10 20 3 5 1 11 -5 15 -5 3 -10 0 -10 -8z"/>
<path d="M13295 8470 c3 -5 8 -10 11 -10 2 0 4 5 4 10 0 6 -5 10 -11 10 -5 0
-7 -4 -4 -10z"/>
<path d="M13487 8243 c-4 -3 -7 -11 -7 -17 0 -6 5 -5 12 2 6 6 9 14 7 17 -3 3
-9 2 -12 -2z"/>
<path d="M13449 8196 c6 -7 9 -21 5 -30 -3 -9 -3 -23 0 -32 11 -29 32 2 28 41
-3 27 -9 35 -24 35 -16 0 -18 -3 -9 -14z"/>
<path d="M7175 7171 c3 -6 -3 -14 -12 -20 -10 -6 -13 -11 -6 -11 6 0 15 5 18
10 4 6 11 8 16 5 5 -3 6 1 3 9 -3 9 -10 16 -16 16 -5 0 -7 -4 -3 -9z"/>
<path d="M13211 6089 c7 -14 14 -18 21 -11 13 13 2 32 -18 32 -12 0 -13 -4 -3
-21z"/>
<path d="M11396 5965 c4 -8 8 -15 10 -15 2 0 4 7 4 15 0 8 -4 15 -10 15 -5 0
-7 -7 -4 -15z"/>
<path d="M13324 5845 c3 -10 -1 -15 -13 -15 -14 0 -18 -5 -14 -20 l6 -21 14
21 c8 11 18 18 22 16 4 -3 8 4 8 15 1 11 -5 19 -14 19 -9 0 -13 -6 -9 -15z"/>
<path d="M13260 5830 c0 -5 5 -10 11 -10 5 0 7 5 4 10 -3 6 -8 10 -11 10 -2 0
-4 -4 -4 -10z"/>
<path d="M13115 5719 c-11 -17 1 -21 15 -4 8 9 8 15 2 15 -6 0 -14 -5 -17 -11z"/>
<path d="M12416 5521 c-4 -7 -5 -15 -2 -18 9 -9 19 4 14 18 -4 11 -6 11 -12 0z"/>
</g>
</svg>
