<svg version="1" xmlns="http://www.w3.org/2000/svg" width="808.997" height="591.838" viewBox="0 0 606.748 443.879"><g fill="#222"><path d="M14 2.362c0 2.3-.3 2.6-2.5 2-2-.5-2.5-.2-2.5 1.2-.1 2.4-2.5 5.6-3.4 4.6-.4-.4.1 1.6 1.2 4.3 1.3 3.3 2.5 5 3.7 5 2.4 0 4.1 4.5 1.7 4.5-2.6.1 2.8 2.9 5.6 3 1.3 0 3.5-.9 4.9-2 4-3.1 7-2.6 7.9 1.2.4 1.8.7 3.6.6 4-.1.5.5.8 1.3.8.9 0 1.8.7 2.1 1.5.4.9 1.9 1.5 4.1 1.5 4.7 0 7.3 1.6 7.3 4.4 0 1.9.9 2.8 4.2 4.1 4.1 1.6 10.7 7.8 10.8 10.1 0 .7 1 1.8 2.3 2.6 1.2.9 3.1 3.9 4.1 6.9 1.1 3 2.8 6.5 3.8 7.8 1.5 1.9 1.8 3.5 1.4 7.2-.3 2.8-.1 5.1.5 5.4.6.4.6 1.1.1 1.8s-1.2 2.5-1.6 4c-.5 2.2-1 2.6-2 1.8-.9-.8-1.3-.7-1.3.3 0 1.4 1.6 1.4 4.9.1 1.1-.5 1.9 0 2.4 1.7.4 1.3.7 2.6.6 3-.1.4.9 1.5 2.3 2.4 1.4.9 2.5 2.3 2.5 3.1 0 2.5 4.4 9.1 7.1 10.7 3.4 2 5.3 2 4.5.1-.3-.9 0-1.5.8-1.5.7 0 1.8-1.2 2.5-2.6 1-2.2 1.6-2.5 3.9-2 1.5.3 3.7.9 5 1.1 2.2.5 8.1-1.9 9.4-3.8.5-.8 1.3-.6 2.5.4 1 .9 2.6 1.9 3.6 2.2.9.4 1.7 1.3 1.7 2.1s1.4 2.3 3 3.3c1.7.9 3 2.2 3 2.8 0 1.6 3.8 3.7 4.5 2.5.4-.6 1.1-.8 1.6-.5.5.4 1.2 0 1.5-.9.3-.8 1.2-1.2 2.1-.9 1 .4 1.1.8.4 1.3-.8.4-.8 1.6 0 4 .9 2.4.9 3.8.1 5.1-.9 1.3-.8 2 .3 2.9.8.7 1.5 1.8 1.5 2.5 0 .8 1.2 2.7 2.6 4.4 1.4 1.7 2.7 4.3 2.9 5.7.1 1.5 1 3.1 1.9 3.6.9.5 1.6 1.6 1.6 2.4 0 .8 1.1 2 2.5 2.6 1.7.8 2.5 2 2.6 3.7 0 1.4.3 2 .6 1.3.4-1 .8-1 1.9-.2 1.1 1 1 1.5-.6 3.3-1.1 1.1-2 3.3-2 4.9 0 1.8-.5 2.8-1.4 2.8-.8 0-1.8.9-2.1 2-.8 2.5 2.6 5.7 6.8 6.6 1.5.4 3 1.1 3.3 1.5.9 1.6 3.7 1 3-.6-.6-1.8-.1-1.9 2.5-.5 1 .6 1.9 2 1.9 3.2 0 1.5.5 1.9 1.9 1.5 1.2-.3 2.7.3 3.7 1.4 1.7 1.9 1.8 1.9 4.1-.3 1.3-1.2 2.1-2.8 1.9-3.4-.3-.7.2-1.5 1-1.8 1.6-.6 1.4-4.9-.5-8.4-.9-1.8-.9-2.2.2-2.2 1.7 0 1-5.8-.9-7.8-2.1-2-1.7-4.1.9-5.1 1.3-.5 2.8-1.5 3.5-2.3 1.9-2.3 1.9-26.9 0-31.6-.6-1.5-1.2-4.3-1.4-6.2-.2-2.3-1.1-4-2.8-5.3-1.4-1-2.6-2.5-2.6-3.2 0-.7-2.1-2.5-4.6-4-3.4-2-4.3-3-3.3-3.6 2.2-1.3-1.6-2.3-4-.9-3.1 1.6-5.5-.2-5.7-4.2-.2-4.4-1.4-7.8-2.8-7.8-.6 0-2.5-1.4-4.1-3.2-2.4-2.5-3.1-2.8-3.3-1.5-.4 1.9-2.2 2.3-2.2.6 0-.7-.9-4.2-2-7.9l-2-6.6-4.5.1c-2.4.1-4.2-.1-4-.5.2-.4-.6-1.8-1.8-3-1.2-1.3-3.2-4.4-4.3-6.9-1.9-4.1-2-4.7-.6-5.7s1.4-1.4.3-2.8c-.9-1-.9-1.6-.3-1.6.6 0 .9-.7.6-1.5-.4-1 0-1.5 1.2-1.5 1.6-.1 1.6-.2-.4-1.3-1.2-.7-2-1.6-1.6-1.9.3-.4-.3-1.7-1.5-2.9-1.2-1.3-2.1-2.7-2.1-3.1 0-.5-1.3-.2-3 .7-2.8 1.4-3.1 1.4-5.1-.6-1.1-1.1-3.4-2.5-5-3.1-1.6-.5-2.6-1.4-2.3-2 .4-.5.1-2.1-.7-3.4-1.4-2.7-5.9-3.4-5.9-.9 0 .9-1.2 2-2.6 2.5-3.4 1.3-3.4 1.3-3.4-.9 0-2.1-2-3.3-6.5-3.8-4.1-.4-4.9-1.6-5.1-7.1-.1-2.6-.2-5-.3-5.5-.2-1-6.9-.9-7.5.2-.3.4-2.2.7-4.1.4-3.3-.3-3.5-.2-2.6 1.6.6 1.1.8 2.6.5 3.5-.8 2.2-5.2 4.8-5.9 3.5-.4-.5-1.5-.7-2.5-.4-1.1.3-2.2 0-2.7-.8-.4-.8-2.6-1.7-4.7-2-2.2-.4-4.3-1.2-4.8-1.9-.4-.7-.8-.9-.8-.5 0 .5-1.3-.1-2.9-1.2-2.1-1.5-3.7-1.9-6-1.5-1.7.4-3.1 1-3.1 1.4 0 .9-7.9 1.9-9.7 1.2-.7-.2-1.3-1-1.3-1.7s-.8-1.1-1.7-.9c-1 .2-2.9-.5-4.2-1.7-2-1.6-2.2-2.2-1.1-2.9.8-.5 1.8-.6 2.4-.3.5.3.6.1.2-.5-1-1.6-3.3-1.5-3.9 0-.3 1-.7 1-2-.1-1.5-1.2-1.7-1-1.7 1.3zM0 8.362c0 .2.8 1 1.8 1.7 1.5 1.3 1.6 1.2.3-.4S0 7.562 0 8.362zM70.9 99.262c.7.7 1.4.8 2.1.1.6-.6.2-1-1.2-1.1-1.6-.2-1.8.1-.9 1z"/><path d="M96 112.962c0 .5.5 1 1 1 .6 0 1-.5 1-1 0-.6-.4-1-1-1-.5 0-1 .4-1 1zM315.8 128.062c1.8 2 1.5 3.9-.8 3.9-1.4 0-2 .7-2 2.2 0 3.4-7.4 9.2-10.6 8.4-1.8-.5-2.5-1.3-2.4-2.9.4-3.8.1-4.2-3.5-4.4-1.9-.1-3.4.2-3.4.5.1.4.1 2 0 3.5-.1 2.4-.4 2.6-2 1.8-1.4-.8-2.3-.6-3.7 1-1 1.1-2.7 1.9-3.8 1.8-3.8-.2-4.5.1-5.1 2.3-.4 1.3-1.9 3.5-3.3 5l-2.5 2.7 2.4.9c1.8.7 2.5.6 2.7-.4.2-.8 1-1.4 1.7-1.4s1.5-.5 1.7-1.2c.3-.9 1.2-.9 3.6.1 4.7 2 4 3.9-1.5 4.7-2.7.4-5.8 1.5-7.1 2.5-2.6 2-7 1.7-11.1-.8-3.5-2.3-8.4-3.4-9.1-2.3-.3.6-3.3-1.5-6.5-4.5s-6.1-5.3-6.4-5c-.3.4.1 1 .9 1.5.7.4 1.5 1.8 1.7 3.1.5 3.1 2.1 4.9 3.9 4.2.8-.3 1.4.1 1.4.8 0 2.8-1.7 3.9-6 4.2-3.4.1-5.2 1-7.8 3.4-1.9 1.8-3.6 3.3-3.8 3.3-.2 0-1.2-1-2.4-2.2-1.6-1.7-2.3-1.9-3.2-1-.9.9-.9 1.5-.2 2 1.2.8 1.7 5.5.4 4.7-.5-.3-.2.8.6 2.5 2.1 4.2 4.2 3.9 4.6-.8.3-4.3 2.7-5.1 4.3-1.5 1.1 2.5 2.5 3 2.6 1 0-.6.7.1 1.4 1.8.8 1.6 1.4 2.4 1.5 1.7 0-.6.7-1.2 1.5-1.2.9 0 1.4-.8 1.2-2.3-.1-1.4.3-2.1 1.1-1.9.7.1 3.1-.3 5.2-.9 3.7-1.1 4-1 8.3 2.7 4 3.5 5.4 7.3 2.2 6-2.1-.8-2.7 2.5-.8 4 2.9 2.2-.6 1.8-5-.6-2-1.1-3.9-2-4.2-2-.3 0-.5.9-.5 2 0 2.5.2 2.5-5.4-.6-5-2.8-6.6-2.5-6.6 1.2 0 1.8-.5 2.4-2.3 2.4-2 0-2.3.4-1.9 3 .2 1.8 0 3-.7 3-.6 0-.8.6-.5 1.4.8 2.1-4.3 3-6.2 1.1-2.1-2-2.4-1.9-2.1.7.2 2-.2 2.3-2.7 2.1-1.7-.1-3.5.2-4.2.8-.7.5-3.3.7-5.8.4-2.8-.3-4.6-.1-4.6.5 0 1.5-1.7 1.2-2.3-.3-.3-.7-.2-3.2.3-5.5.4-2.4.3-4.5-.2-4.8-.5-.3-.6-1.4-.3-2.4s-.3-3.2-1.3-5c-1.9-3-2-3.1-2.6-.8-.5 1.9-.8 2-1.6.8-.5-.8-1-2.5-1-3.8 0-2.3-.4-2.4-9-2.4-6.3 0-7.2.1-6.5 1.2.4.6 1.5.8 2.6.5 1.7-.6 1.9-.3 1.4 1.8-.5 1.9-.2 2.5 1.3 2.9 1.9.5 5.3 8.1 5.6 12.8.1 1.4.5 3.1 1 3.9.6 1 .5 1.6-.2 1.9-.7.2-1.2 1.2-1.2 2.3 0 1-.4 1.9-1 1.9-.5 0-1 .6-1 1.4 0 .8-.9 1.8-2 2.1-1.5.5-1.9 1.2-1.4 3 .3 1.3.1 3.2-.5 4.3-.8 1.6-.4 2.3 2.7 4.7 4.4 3.3 9.2 9.8 9.2 12.4 0 3 1.1 5.1 2.6 5.1 1.3 0 2 3.8 1.5 7.7-.1.7 1.5 1.7 3.6 2.3 2.1.5 5.4 2.3 7.3 4 3.1 2.5 3.3 3.1 2.3 4.9-1 1.7-.9 2.2 1.3 3.6 1.4.9 3.3 1.3 4.3 1 1.1-.3 4.5.6 7.6 2 3.2 1.4 6.6 2.5 7.7 2.5 1 0 2.9 1.1 4.2 2.5 3 3.2 3.8 3.2 3-.1-.5-2-.3-2.5.7-2.2 1.8.6 3 6.7 1.8 9-1.1 2.1 2.1 4.4 3.8 2.7.6-.6 1.9-.2 3.6 1.1 2 1.6 2.5 2.6 1.8 3.8-.7 1.3-.3 2.1 1.4 3.4 2 1.6 2.4 1.6 2.9.2.6-1.6-.7-4.8-3-7.5-1.3-1.4-.9-1.8 2.8-3.2 3.7-1.5 4.3-1.5 5.1-.2 2.7 4.9 5.2 6.6 10.6 7 4.2.3 6 1 7.8 2.9 2.3 2.5 3.3 5 1.1 2.8-.7-.7-1.8-1.2-2.6-1.2-1.7 0-.7 3.5 2 6.9 1.1 1.5 1.5 2.8.9 3.4-.5.5 0 1.8 1.3 3.1 2 2.1 2.3 2.1 4.8.7 2.5-1.4 2.9-1.3 4.8.4 2.4 2.2 2.6 5.9.6 13.5-.8 3-1.3 6.4-1.2 7.5.1 1.1 3.1 5 6.7 8.6l6.5 6.6 5.5-.2c4.7-.1 5.6-.5 6.9-2.8.8-1.5 2.1-2.7 2.9-2.7 1.1 0 1.1-.3.1-1.5-1.1-1.3-.8-1.5 1.9-1.5 1.8 0 3.1-.5 3.1-1.3 0-.6.5-.4 1.1.6.6 1 .8 2.5.5 3.3-.6 1.5-.1 1.8 4.4 2.8 1.4.3 4 1.9 5.9 3.7 2.9 2.6 3.5 2.9 4.3 1.5 1-1.8 4-2.1 6.9-.6 1.5.8 2.3.7 3.5-.5 3.6-3.5 5.4-3.8 8.1-1.1 1.3 1.4 2.3 2.9 2 3.3-.3.4-.1 1.8.4 3 .6 1.6 1.7 2.3 3.5 2.3 2.3 0 2.6-.3 2.1-2.7-.3-1.5-.1-3.7.4-5 .7-1.9.5-2.3-1-2.3-1.7 0-5.1-2.9-5.1-4.3 0-.4.7-.7 1.5-.7s1.5-.5 1.5-1.1c0-.5-.4-.7-1-.4-.5.3-1-.1-1-1 0-1.1.5-1.5 1.5-1.1 1.5.5 2.1-1.4.9-2.7-1.3-1.3-3.4.7-3.4 3.2 0 3.7-1.2 5.1-3.7 4.5-2.1-.6-3.6-3.2-4.9-8.7-.5-2.1-.3-2.7 1-2.7 2 0 2.1-1.4 0-3.1-1-.8-1.4-2.2-1.1-3.8.4-1.8-.2-3.3-1.8-5.1-1.4-1.4-2.6-3.4-2.8-4.5-1.3-6.5-2.2-7.3-10.8-8.8-.9-.2-2.9-1.3-4.4-2.5-1.8-1.5-3.1-1.9-3.5-1.2-.4.6-1.4.8-2.3.4-1-.3-1.7-.1-1.7.6 0 .6-1.1 1-2.7.8-2.3-.2-3-1-3.8-4.3-.5-2.2-1.4-4.3-1.9-4.7-.7-.5-.7-1.1-.1-1.7.7-.7 2.1-.5 4.2.6 2.7 1.2 3.6 1.3 4.8.3 1.3-1.1 1.5-.8 1.5 1.4 0 2.8.3 2.9 8.1 3 4.2.1 4.6-.1 3.7-1.7-.9-1.7-.7-1.7 2.7-.3 3.8 1.6 4.9 1.4 10.4-2.7 2.4-1.7 2.4-1.7.2-1.7-1.3 0-1.9-.4-1.6-1 .4-.6.1-1.7-.5-2.5-.9-1.1-1-1.9-.1-2.8.6-.8.8-1.6.6-1.9-.3-.3-1-2-1.5-3.8l-1-3.4 3.3 3.2c1.8 1.8 3.9 3.2 4.6 3.2 2.1 0 3.9-2.5 4.6-6.4.4-2 1.1-3.9 1.6-4.2.5-.3.9-1.3.9-2.2 0-.9 1.4-2.3 3-3 2.1-1 3-2.1 3-3.8 0-1.3.5-2.4 1-2.4.6 0 1-.5 1-1 0-.7-.6-.7-2 0-1.5.8-2.7.7-5.1-.5-2.4-1.3-3.4-1.4-4.5-.4-1.6 1.3-1.7.8-.5-4.3.5-2.1.5-3.6.1-3.3-1 .6-2.2-2.2-2.5-6.4-.2-1.9-1.1-3.8-1.9-4.3-2.1-1.2-2-3 .4-6 1.6-2.2 1.8-3.1.9-6.4-.6-2.2-2.3-4.9-4-6.2-1.7-1.4-2.9-3.3-2.9-4.7 0-1.2-.7-2.8-1.5-3.5-.8-.7-1.5-1.8-1.5-2.4 0-1.6-4.1-4-4.9-2.8-.3.5-1.5 1.2-2.6 1.5-3.2 1-6.6-2.6-7.2-7.5-.3-2.4-1.5-5.3-2.7-6.6-1.7-2-1.8-2.4-.6-3.3 1.3-.8 1.2-1.1-.5-2.2-1.1-.6-3-1.3-4.2-1.4-5.6-.5-8.4-5.3-4.8-8.3 1.7-1.4 2-6.6.5-7.5-.5-.3-1-1.4-1-2.5 0-1.3.5-1.7 2.1-1.3 1.5.4 2.2 0 2.6-1.6.6-2.4 2.3-2.8 2.3-.5 0 .8.4 1.3.9 1 1.6-1 7 2.5 8.2 5.3.7 1.6 2.7 3.5 4.4 4.3 1.9.8 3 2.1 3.1 3.4.1 2.7 1.3 4.6 2.4 3.9.5-.3 1.4.1 2.2.8.7.7 2.1 1.6 3.1 2 .9.3 1.7 1.4 1.7 2.3 0 1.1.5 1.4 1.6 1 .9-.3 2-.6 2.5-.6s.9-1.1.9-2.3c0-1.3.9-3.2 2-4.2 1.9-1.7 2.1-1.7 4.1 0 1.7 1.6 2.5 1.7 5 .8 1.7-.7 2.9-.7 2.9-.2 0 .6.8.5 2-.1 1.6-.9 2.2-.8 2.6.5.5 1.2 1 1.3 2 .4.7-.6 1.8-.8 2.4-.4 2.4 1.5.8-4.7-2-7.7-1.6-1.7-3-3.7-3-4.4 0-.7-1.2-2.2-2.6-3.3-1.9-1.5-2.4-2.6-1.9-3.8.6-1.6.8-1.6 1.8.4 1.2 2.6 3.9 3 5.7.8.7-.8 1.6-1.2 2.1-.9.5.3.9.1.9-.4s2.3-2.1 5.1-3.5l5.1-2.5-3.1-1.8c-1.7-1-3.1-2.2-3.1-2.7 0-.4-.5-.5-1-.2-.6.3-1.2 0-1.5-.7-.4-.9-2-1.2-5.1-1-3.9.4-4.6.1-5.1-1.6-.2-1.1-1.2-2.3-2.1-2.6-1-.4-3.7-1.8-6.2-3.3-7-4.1-22.3-6.1-25-3.2-2.2 2.2-8.8 4.3-10.3 3.1-.7-.5-3.5-1.2-6.4-1.5-2.8-.3-7.1-1.6-9.5-2.8-2.4-1.1-3.7-1.5-3-.8zm-5.4 26.4c.3.8.1 1.5-.3 1.5-.5 0-1.1-.7-1.5-1.5-.3-.8-.1-1.5.3-1.5.5 0 1.1.7 1.5 1.5zm-40.4 8c0 .8-.4 1.5-1 1.5-.5 0-1-.7-1-1.5s.5-1.5 1-1.5c.6 0 1 .7 1 1.5zm-5 1.5c0 .5-.7.7-1.5.4-.8-.4-1.5-.8-1.5-1 0-.2.7-.4 1.5-.4s1.5.4 1.5 1zm-25 2c0 .5-.2 1-.4 1-.3 0-.8-.5-1.1-1-.3-.6-.1-1 .4-1 .6 0 1.1.4 1.1 1zm98 27c0 .5-.5 1-1.1 1-.5 0-.7-.5-.4-1 .3-.6.8-1 1.1-1 .2 0 .4.4.4 1zm-70.4 16.5c1.6 1.2 1.6 1.4.3 1.5-.9 0-2.2-.7-2.9-1.5-1.6-1.9 0-1.9 2.6 0zm76.4 21.5c0 .5-.2 1-.4 1-.3 0-.8-.5-1.1-1-.3-.6-.1-1 .4-1 .6 0 1.1.4 1.1 1zm13.5 3.9c.3.5.1 1.2-.5 1.6-.5.3-1-.1-1-.9 0-1.8.6-2.1 1.5-.7zm-73.5 4.1c0 .5-.4 1-1 1-.5 0-1-.5-1-1 0-.6.5-1 1-1 .6 0 1 .4 1 1zm53.1 3c1.3.7 2.5.7 3.8.1 1.4-.8 2.3-.5 4.1 1.4 2.9 3.1 3.5 3.1 6.6-.2 1.3-1.4 2.7-2.3 3.1-1.9.3.3.6 2.9.6 5.6 0 3.6.4 5 1.4 5 .9 0 1.1.5.7 1.2-.4.7.2.4 1.5-.6 1.7-1.6 2.4-1.7 3.4-.7.9 1 .9 1.5-.3 2.4-.9.7-1.4 2.4-1.2 4.1.3 2.6.1 2.8-2.1 2.2-2.6-.6-3.7 1-4 5.9-.2 2.1-5.2 3.7-8.8 2.8-1.3-.4-1.9 0-1.9 1.1 0 .9-.6 1.6-1.4 1.6-.8 0-1.7.7-2 1.6-.4.9-1.3 1.4-2.1 1-1-.4-1.5.1-1.5 1.4 0 1.1-.4 2-1 2-.5 0-1-.5-1-1 0-.6-1.6-2.7-3.5-4.7-3.3-3.4-3.5-3.5-5.9-2-2.1 1.4-2.6 1.4-3.6.2s-1-1.8 0-3 1-2.1.1-4.1c-.8-1.8-.8-2.3 0-1.8.6.3 2.3-.3 3.9-1.4 2.8-2.1 4.8-1.9 3 .3-.7.8-.4 1.8 1 3 1.1 1 2 2.4 2 3.1 0 .7.9 1.8 2.1 2.4 1.7.9 2.3.8 3.3-.6 1.3-1.7 1-5.4-.3-5.4-.4 0-2.4-1.5-4.4-3.4-3.5-3.2-3.6-3.5-2.4-6.5 1-2.7.9-3.7-.5-6.2-1.5-2.6-1.6-3.1-.3-3.6.9-.3 2.4-.3 3.4 0 1.4.3 1.8.1 1.4-.9-.6-1.7.1-1.8 2.8-.4zm-80.1 23c0 .5-.4 1-1 1-.5 0-1-.5-1-1 0-.6.5-1 1-1 .6 0 1 .4 1 1zm62 6c0 .5-.4 1-1 1-.5 0-1-.5-1-1 0-.6.5-1 1-1 .6 0 1 .4 1 1zm3 1.4c0 .3-.4.8-1 1.1-.5.3-1 .1-1-.4 0-.6.5-1.1 1-1.1.6 0 1 .2 1 .4zm30 2c0 .3-.4.8-1 1.1-.5.3-1 .1-1-.4 0-.6.5-1.1 1-1.1.6 0 1 .2 1 .4zm-30.5 2.7c1.1 1.7-.1 2.1-1.5.4-.8-.9-.8-1.5-.2-1.5.6 0 1.4.5 1.7 1.1zm-6.5 6.6c0 1.2.6 2.3 1.3 2.6.6.2.9.8.5 1.2-.4.4-1.3.3-2.1-.3-.7-.6-2.3-.9-3.6-.5l-2.2.6 2.2-4.2c2.3-4.4 3.9-4.1 3.9.6zm41-2.7c0 .5-.2 1-.4 1-.3 0-.8-.5-1.1-1-.3-.6-.1-1 .4-1 .6 0 1.1.4 1.1 1zm-34.2 7.5c-.3.3-.9-.2-1.2-1.2-.6-1.4-.5-1.5.5-.6.7.7 1 1.5.7 1.8zm-6.3 12.5c.3.5.1 1-.4 1-.6 0-1.1-.5-1.1-1 0-.6.2-1 .4-1 .3 0 .8.4 1.1 1zm31.2 32.4c-1.3 2.7-2.7 2.5-2.7-.5 0-1.2.7-1.9 1.9-1.9 1.7 0 1.8.3.8 2.4z"/><path d="M330 255.962c0 .5.5 1 1 1 .6 0 1-.5 1-1 0-.6-.4-1-1-1-.5 0-1 .4-1 1zM345.6 258.462c-.9.9-1.6 2-1.6 2.5 0 .4-1 .6-2.2.2-1.3-.3-1.9-.1-1.5.6.4.5.2 1.2-.4 1.4-.7.2-.4 1.2.8 2.6l1.8 2.2 4.7-5c2.6-2.8 4.3-5 3.8-5s-1.5-.3-2.3-.6c-.8-.3-2.2.2-3.1 1.1zM324.7 264.062c.4 1.3.8 1.8 1.1 1 .2-.7-.1-1.8-.6-2.3-.8-.8-.9-.4-.5 1.3zM349.9 264.162c-.7 2.5-.5 3.8.8 3.8 1.2 0 1.3-.3.4-1.4-.9-1.1-.9-1.5.1-1.9 1-.4 1-.6.1-.6-.7-.1-1.3 0-1.4.1zM270 156.362c0 .8.4 1.7.9 2 .5.4.7-.3.4-1.4-.6-2.3-1.3-2.6-1.3-.6z"/><path d="M419 155.862c0 .3.9 1.9 2 3.6 1.1 1.6 2 3.8 2 4.8 0 2.6 4.3 9.7 5.9 9.7.8 0 1.1-.6.7-1.5-.5-1.5.1-1.7 5.2-1.9.9-.1 2-.5 2.3-1 1.1-1.5 1.7.8.8 3.3-.7 1.8-1.4 2.2-3.4 1.7-2.6-.7-3.2.3-1.5 2 1.2 1.2.3 4.4-1.1 4.4-.5 0-.9-.7-.9-1.5 0-1.9-2.9-2-3.6 0-.9 2.3-4.1 2.7-7 .9-1.5-1-3.9-1.7-5.5-1.6-3.3.3-11.8-3.4-12-5.2-.1-.6-.1-1.6 0-2.3.2-1.6-3.7-2.7-5.2-1.5-.7.6-2.3 1.2-3.7 1.4-1.9.2-2.4.9-2.5 3.2 0 2.4.8 3.6 4 5.8 2.2 1.5 4.6 2.7 5.3 2.8.7 0 2 .7 2.8 1.5.8.8 2.1 1.2 2.8.9.9-.4 1.6.3 1.8 1.8.4 2.8 3.3 3.5 5.7 1.4 1.3-1.2 2.9-1.5 6.4-1 4.6.7 4.7.6 4.7-2.1 0-2.6.1-2.7 2.3-1.2 1.2.8 4.5 1.9 7.2 2.5 4.1.9 5.2.9 6.1-.3 2.7-3.6 4.4-.4 2.5 4.7-.6 1.7-.5 2.9.5 4.3.8 1 1.4 4.2 1.4 7.3 0 2.9.5 6.2 1 7.3.8 1.4.7 2.7-.5 4.8-.8 1.7-1.5 4.2-1.5 5.6 0 2.5-2 8-4.1 11.5-4.2 6.9-5 10-4.4 15.6.3 3.2 1.1 6.2 1.8 6.6.9.6.8 1.2-.5 2.2-2.7 2-2.2 2.5 2.2 1.9 3.3-.5 4-.3 4 1.1 0 .9.8 1.6 1.8 1.6.9 0 2.6.7 3.6 1.5 1.6 1.2 1.7 1.7.6 3-.7.8-1 2.2-.6 3 .3.8 0 1.5-.6 1.5-1.8 0-3.8 3.3-2.7 4.6.6.7.4 1.6-.6 2.4-1.2 1-1.5 1-1.5-.3 0-.8-1.3-2-3-2.7-3.3-1.3-4.2-3.5-1.1-2.7 1.7.4 1.7.3.1-4.1-1.1-2.9-2.7-5-4.1-5.6-3.9-1.7-5.3-4.6-2.2-4.6 1.4 0 1.2-.4-.7-2.5-1.3-1.4-2.6-2.3-2.8-2-.8.8-5.4-7.4-4.7-8.4.3-.5 0-2.1-.6-3.5-.9-1.9-.9-2.9-.1-3.9.9-1.1.7-1.8-.9-3.3-1.2-1-2.4-2.7-2.8-3.7-.7-1.9-11.5-6.2-13-5.2-.5.2-1.4-.1-2-.9-1.3-1.6-6.1-.9-6.1.9 0 .7-1 1.5-2.1 1.8-1.5.4-2 1.1-1.5 2.2.5 1.3.1 1.5-1.7.9-1.2-.3-2.8-1.1-3.4-1.6-1.6-1.3-1.7-3.2-.1-2.2 1.8 1.1-.3-1.9-2.3-3.4-1-.7-3.7-3.9-5.9-7.2-2.3-3.2-4.8-6.1-5.6-6.4-.8-.3-1.4-1.2-1.4-2 0-.9-1.1-2.3-2.4-3.1-2.1-1.4-3.1-1.4-6.6-.4-3.2 1-4.6 1-6.1.1-1.6-1-1.7-.9-1.2.6 1 2.9 2.6 4.3 4.1 3.7 1-.3 1.2 0 .8 1-.3.9.4 2.4 1.9 3.7 1.4 1.2 2.5 2.6 2.5 3 0 .5 1.2 2.5 2.7 4.4 2.1 2.8 2.4 3.7 1.3 4.4-.7.4-1 1.5-.7 2.3.3.9.2 2.9-.2 4.5-1.1 3.7 1.5 9.9 5.3 12.9 2.7 2.2 3.4 4.9 1.5 5.5-.9.3-.9.9-.1 2.4 1.3 2.4.5 6.5-1.4 7.7-.8.4-1.8 2.5-2.4 4.7-.7 2.6-1.5 3.7-2.4 3.4-.7-.3-1.6.3-2 1.2-.9 2.3 0 3 1.8 1.5 1-.8 2.1-.9 3.1-.4 1.4.8 1.3 1.3-1 3.7-3.9 4.3-2.9 9.4 2.3 11 2.4.8 2.9 6.6.6 6.6-1.1 0-1.5.6-1.1 2 .6 2.3-.9 3.5-3.8 3.2-2.4-.2-7.3 3.6-5.9 4.6.5.4 1.4 1.6 2 2.6 1.5 2.8 9.5 3.1 10.2.4.6-2.4 2.2-2.3 2.2.2 0 2.1 3.5 4.1 5.8 3.3 1.4-.6 1.6-3.3.2-3.3-.5 0-1-.4-1-.8 0-.5 1-.8 2.3-.8 1.5.1 2.1-.4 1.8-1.4-.2-.8-.3-2.3-.3-3.3s-.7-1.7-1.9-1.7c-1 0-1.9.5-1.9 1.1 0 .5-.4.7-1 .4-.5-.3-1-1.5-1-2.6 0-1.4.9-2.1 3-2.6 1.7-.3 3-.9 3-1.4 0-.5.9-.9 2-.9s2-.5 2-1c0-.6-.5-1-1.2-1-.6 0-.8-.3-.5-.6.4-.4 1.2-.2 1.9.3.7.6 3.3 1.3 5.8 1.6 4 .5 4.8.3 6-1.6.8-1.2 1.3-3 1.1-4-.3-2 1-2.2 2.7-.5.7.7 1.2.9 1.2.5s.9-.3 2 .3c1.4.7 2 .7 2 0 0-1.8 3.9-1.1 5 1 .6 1.1.7 2 .3 2-.4 0 0 .5 1 1.1 2.3 1.3 2.2 3.6-.3 4.4-1.8.6-2.7 2.3-3.3 6.6-.2.8-.6 1.9-1 2.6-1 1.6.2 4.3 1.9 4.3.8 0 2.5 1.3 4 2.9 1.7 1.9 3.2 2.7 4.5 2.4 2.1-.6 2.5.7.9 2.3-.8.8-.6 1.5.5 2.4.8.7 1.5 2.1 1.5 3.2 0 2.6-2.9 8-3.9 7.3-.5-.3-1.2.2-1.5 1.1-.9 2.2-.8 2.4.9 2.4.8 0 1.5.9 1.5 1.9 0 2.6 1.7 3.6 2.3 1.4.3-1.3.5-1.1.6.6.1 2.3.2 2.3 1.9.8 1-1 2.2-1.7 2.7-1.7s1.9-1 3.2-2.1c2-1.9 2.3-2 2.9-.6.5 1.3 1 1.4 2.5.6 1.1-.5 1.7-1.4 1.4-2-.9-1.4 1.4-7.8 3.7-10.1 3.4-3.4 1.2-12.7-2.7-11.2-.7.3-1.1-1.4-1.2-5.2-.1-4.4-.7-6.2-2.5-8.2-1.3-1.4-1.7-2.2-1.1-1.8.7.4 3.1.9 5.2 1.2 3.4.4 4.2.1 5.2-1.7 1.1-2.2 1.2-2.2 2.5-.4 1 1.4 1.1 2.2.2 3.2-.8 1-.8 2 .3 3.9 1 2 1 2.9.1 4.4-.7 1.2-.8 2.1-.2 2.5.6.3 1 1.5 1 2.6 0 1 .5 2.8 1.2 3.8.9 1.5.8 2.2-.5 3.5-.9.9-2.3 1.3-3.2.9-1.4-.5-1.6-.2-1.1 1.5.6 1.6 0 2.8-2 4.7-1.6 1.5-2 2.3-1.1 1.9 1-.3 2.3-.1 3.1.5 1.9 1.6 4.6.3 4.6-2.3.1-1.7.4-1.4 1.5 1.1.8 1.8 2.1 3.3 3 3.3.8 0 1.5.7 1.5 1.6 0 .9.6 1.4 1.3 1.1.6-.2 3.6.4 6.6 1.5 6.7 2.2 6.4 2.2 5.6-.4-.6-1.7-.4-2 1-1.5.9.4 1.9.7 2.1.7.2 0 .4.7.4 1.5 0 .9.7 1.8 1.6 2.2 1.5.5 3.9 5.2 3.1 6-.2.2-1.7-.7-3.2-1.9-5.4-4.2-7.3-2.9-3 1.9 2 2.2 2.4 2.4 1.9.8-.6-2-.5-2 1-.1 2.3 2.8 2 3.6-1.5 3.6-1.8 0-2.8.4-2.4 1.1.4.5-.7 1.5-2.4 2.2-1.7.6-3.1 1.7-3.1 2.3 0 .9-3 1.2-11.2 1l-11.2-.2-1.8-2.9c-1-1.7-1.8-4.4-1.8-6 0-3.5-2.4-7.5-4.6-7.5-.9 0-1.2.5-.8 1.1.5.8-.1 1-2 .7-1.4-.3-2.6-.1-2.6.3 0 .5-.9.9-1.9.9-1.1 0-2.3.5-2.6 1-.4.6-1.1.8-1.6.5-1.2-.8-1.1.2.1 2.6.8 1.5.7 2.3-.5 3.5-.8.8-1.5 2.6-1.5 4 0 2-.5 2.4-3 2.4-2.7 0-3 .3-3 3 0 2 .5 3 1.5 3 2 0 1.9 1.9 0 2.6-1 .4-1.2 1-.7 1.8 1.4 1.7 2.2 8.5 1.1 9.1-.5.4-.9 1.5-.9 2.6 0 1.2-.7 1.9-2 1.9-1.7 0-1.9.3-1 1.9.6 1.3.6 2.2 0 2.6-1.7 1-5.8-.6-6.3-2.6-.3-1.1-1.4-1.9-2.5-1.9-1.2 0-2.3-.4-2.7-1-.3-.5-1.2-.7-1.9-.4-.8.3-2.8-.2-4.5-1.1-1.8-.9-3.5-1.3-4-1.1-.5.3-1.5-.1-2.2-1-.7-.8-2.5-2.2-4.1-3-2.5-1.3-3-1.3-4.3 0-.8.8-1.5 1.9-1.5 2.4s-.7 1.5-1.5 2.2c-.8.7-1.5 2.3-1.5 3.6 0 1.9-.7 2.6-3 3.1-2.6.5-2.8.8-1.8 2.1 1.1 1.3 1 1.4-1 .8-2.6-.9-6.2 1.6-6.2 4.3 0 .9-2 2.9-4.5 4.4-4.3 2.8-4.5 3.1-4.5 7.8 0 3.7-.4 4.9-1.5 4.9-.9 0-1.8.7-2.1 1.5-.5 1.2-1.2 1-4.2-.9-5.7-3.5-13.2-6.9-13.9-6.2-.9.9-2.9-2.4-3.7-6-.7-3.1-5.6-8.9-5.6-6.6 0 .7-.7 1.2-1.5 1.2-1 0-1.5 1-1.5 2.6 0 2.6 0 2.6-2.6.9-3-1.9-3.9-1.5-2.9 1.5.5 1.7 1.3 2.1 3.1 1.7 3.9-.7 5.3 2 5.2 9.6-.1 4.8-.4 6.5-1.1 5.8-.6-.6-2-1.1-3-1.1-1.7 0-1.8.2-.6 1.6.8.9 1.4 2.2 1.5 2.8 0 .6.9 3 1.9 5.4 1.3 3.1 2.8 4.7 5.2 5.7 1.8.8 3.3 2 3.3 2.7 0 1.4 7.6 4.2 9 3.3.5-.3 2.7.2 4.8 1.1 2.2.8 5.5 1.4 7.4 1.2 2.8-.3 3.4-.8 3.9-3.3.5-3 .5-3 1.3-.6l.9 2.5 1.7-2.1c2-2.5 4.8-2.2 9.2.9 1.6 1.1 3.2 1.7 3.7 1.4.5-.3 1.4.1 2.1.9.7.8 2 1.5 3 1.5 1.8 0 4.2 6 3.8 9.5-.2 1.2.4 2.1 1.6 2.3 1.4.3 1.7 0 1.2-1.3-.8-2.1 5-8.5 7.7-8.5 1 0 1.7-.8 1.7-2 0-2.2.7-2.5 2.9-1.1.9.6 2.8-.2 6-2.6 2.5-2 4.8-3.9 4.9-4.4.2-.5 1.9-.9 3.8-.9s3.4-.5 3.4-1.1c0-.8 1.7-.9 5.4-.5 6 .8 9.1-.2 10.1-3.2.3-1.1 1.7-2.4 3-3 1.7-.8 2.5-2 2.5-3.6 0-1.3.7-2.9 1.5-3.6.9-.7 1.4-1.9 1.1-2.5-.3-.8.4-1.3 1.7-1.3 1.2 0 4.8-.2 8-.5 5-.5 5.9-.3 7 1.4 1.4 2.2 2.9 2.6 2.1.4-.7-1.7 1.1-2.1 2.1-.5 1.3 2 3 .9 4.7-3 1.6-3.9 1.6-4-1-7-1.5-1.6-3.2-3-3.9-3-1.9 0-3.6-3.9-2.9-7.1.3-1.5.1-3.1-.3-3.4-.5-.3-.7-1.4-.4-2.4.4-1.4 1.6-2 4.8-2.3 3.9-.3 4.5 0 7.9 3.9 3.6 4.1 4 6.3 1.2 6.3-1.6 0-2.7 3.5-1.9 5.8.6 1.4.7 1.4 1.2-.1.6-1.5 1.2-1.3 5.4 1.5 2.6 1.8 4.7 3.8 4.7 4.4 0 .7 1 1.4 2.3 1.8 2.8.7 5-2 4.2-5.2-.5-1.9 0-2.5 2.9-3.7 3.2-1.4 3.5-1.7 2.6-4-1-2.6-.5-2.9 3.4-2.5 1.1.1 1.6-.3 1.1-1-1-1.6 2.7-4.1 4.2-2.8.8.6 1.8.6 3.1-.1 1.1-.6 2.2-.7 2.6-.4 1.2 1.3 7.6-2.9 7.6-5 0-1 .9-2.1 2-2.4 1.9-.5 2.5-2.4 2.2-6.5-.1-1.1.4-1.5 1.2-1.2.7.3 1.6-.2 2-1.1.3-1 1.1-1.3 1.8-.9.7.5 2 .9 3 .9.9.1 3.3 1.4 5.2 2.9 2.9 2.2 3.6 2.4 3.6 1 0-1 .5-1.4 1.5-1 .8.3 2.1-.4 2.9-1.6 1.3-1.8 1.8-1.9 3.1-.8 1 .8 1.5.9 1.5.1 0-.7.7-.7 2.5.1 1.6.7 2.5 1.9 2.5 3.4 0 2.7 4.5 5.6 7.6 4.9 1-.3 3.9-.6 6.4-.8 3.6-.3 4.5-.8 4.5-2.3 0-1 .4-2.2.9-2.6 1.2-.8 1.5-4.8.4-4.8-.4 0-.8-.6-.8-1.4 0-1.7-2.7-2.9-3.5-1.6-.3.6-1.6.5-3.1 0-1.4-.6-3.9-1-5.5-1-2.4 0-2.9.4-2.9 2.6s-.4 2.5-2.7 2.2c-2.5-.3-2.9-.9-3.6-5-.6-3.3-1.5-4.9-2.8-5.3-1.6-.5-1.9-1.2-1.3-4.1.6-3.3-.9-5-1.9-2.2-1 2.9-1.7-.2-.9-4 1-4.5-.2-6.3-5.1-7.6-1.7-.4-3-1.7-3.8-4-.7-1.9-2.4-4-3.9-4.7-1.4-.8-5.1-2.6-8.1-4.1-3.1-1.5-6.6-4-8-5.4-3.2-3.5-10.4-8.4-12.2-8.4-.8 0-1.7.7-2.1 1.5-.3.8-1.7 1.5-3 1.5-1.8 0-2.4.4-2 1.5.4.9.1 1.5-.7 1.5-1.5 0-3.9 6.4-3.9 10.1 0 1.5-.5 1.9-1.5 1.5-2.4-.9-3 2.2-.9 4.5 1 1.1 2.5 1.9 3.3 1.8 5-.4 6 .1 6.3 3.3.3 3.3.3 3.3 5 3 3.8-.3 4.9 0 5.4 1.3 1 2.5-1.4 3.5-7.5 3-5.8-.4-8.6 1-7.5 3.9.4 1.2 0 1.6-1.5 1.6-1.2 0-2.1.5-2.1 1.1 0 .6 1.4.9 3.5.6 3.7-.5 4.4.3 2 2.3-.8.7-1.2 1.6-.9 2.1.3.5-.2.9-1 .9-1.2 0-1.4.5-.6 2.6 1.6 4.1 1.2 5.1-3 7.2-2.2 1-3.7 2.2-3.4 2.5 1.2 1.2-5 2-7.7 1-3.2-1.2-4.9-.1-4.9 3.3 0 1.2-.7 2.5-1.6 2.8-1.5.6-1.5.4-.3-1 1.1-1.3 1-1.7-.4-2.5-.9-.6-1.7-1.5-1.7-2 0-.6.5-.7 1-.4.6.3 1-.3 1-1.5s.4-1.9.8-1.6c1 .6 6.2-4 6.2-5.4 0-.6.7-1 1.5-1 1.1 0 1.4-.7.9-2.5-.5-1.9-.2-2.5 1-2.5 1 0 1.3-.5.9-1.7-.5-1.2-.2-1.5 1-1 2.3.9 2.6-1.4.5-4.8-2.3-3.8-2.3-4.5.3-4.5 1.8 0 1.9-.2.9-1.5-.7-.8-.9-1.5-.4-1.5s.4-.4-.1-.8c-1.4-1-3.4-9.1-2.4-9.7.4-.3 1-1.9 1.4-3.5.4-1.7 1-3 1.4-3 .4 0 .7-.8.8-1.8 0-.9.4-3.5.8-5.7.5-3.3.3-4.5-1.3-6.5-1.8-2.2-2.2-2.3-4.8-1.1-2.6 1.1-3 1-4.5-.8-1-1.2-2.5-2.1-3.4-2.1-1 0-2.4-1.8-3.6-4.5-1.8-4-3.2-5.1-6.1-4.6-.4 0-1.1-1.7-1.4-3.9-.4-2.2-1.1-4-1.6-4-.8 0-5.3-6.8-5.3-8.2 0-.3-.3-1-.7-1.4-1.3-1.3-.9-2.1 1.3-2.7 1.6-.4 1.9-1.1 1.4-2.6-.5-1.6-.1-2.3 2-3.1 2.1-.8 2.4-1.4 1.9-3.4-.4-1.8-.1-2.7 1.5-3.6 1.2-.6 2.1-2 2.1-3 0-3.3 1.7-2.3 2.4 1.4.4 1.8 1.5 4.1 2.6 5.1s2 2.4 2 3.1c0 .7 1 1.9 2.3 2.5 2.7 1.4 11.7 8.8 13.4 10.9.9 1.2.8 1.9-.3 3.1-.9 1.1-1.3 2.6-.9 4.1.4 1.7.1 3.1-1 4.1-1.9 2-1 4.3 2.6 6.1 1.4.7 2.3 1.9 2.1 2.9-.2 1.2.8 2.2 3.2 3.2 4.1 1.8 6.6 1.9 6.6.5 0-.6.9-2 2-3.2 2.2-2.4 2.5-5.5 1-10.7-.8-2.9-.7-3.4 1-3.8 1.3-.4 2.4-2 3.1-4.7.6-2.2 2.1-5.7 3.3-7.6 5.3-8.3 3.5-10.2-9.8-10.4-8.4-.1-8.5-.1-7.9 2.1.6 2.6-.7 2.9-3.8 1-1.7-1-2.3-1-2.6 0-.7 1.9-3.7 1.6-5.7-.6-1.6-1.7-1.6-1.9.5-2.4 1.9-.5 2-.8 1-2.1-1-1.2-1-2.7-.2-6.6.6-2.8 1.1-5.3 1.1-5.5 0-.3-1.8-2.4-4-4.6-2.2-2.3-4-4.7-4-5.4 0-2.3 1.2-4.5 2.1-3.9.5.3 1.2-.2 1.5-1 .3-.9 1.4-1.6 2.4-1.6s2.1-.9 2.5-2c.3-1.1.9-1.9 1.3-1.9 2.4.4 4.2-.3 4.2-1.6 0-2 1.6-1.9 5.4.5 3.5 2.1 9.3 1.8 6.5-.4-2.5-1.9-8.9-10.3-8.9-11.6 0-1.8-5.8-8.1-6.5-7.1-.3.5.1 1.1.7 1.3 2.5.9-3.6 3.1-9.6 3.5-3.4.3-7 .6-8.2.6-2 .2-2 .3.7 6.2 1.9 4.3 2.4 6.2 1.6 6.7-.8.5-1.3-.1-1.5-1.5-.2-1.2-1.1-3-2-4.1-1-1-1.5-2.1-1.2-2.4.3-.4-1.3-1-3.4-1.3-6.3-1-8.7-6.1-3.3-6.7 2.2-.3 2.7-.8 2.7-3.3 0-1.9.5-2.9 1.5-2.9 1.6 0 3.8-3.4 2.8-4.4-.3-.3-.1-.6.5-.6 2.1 0 1.4-8.4-.8-11.3-2.1-2.6-2.6-4.7-1.2-4.7.5 0 1.3-1 1.9-2.1 1.1-2.6-.6-8.9-2.4-8.9-.7 0-1.3-.5-1.3-1 0-.7.7-.7 2.1 0 2.7 1.5 5.1.6 4.2-1.6-.5-1.4-.1-1.5 2.5-.9 2.1.4 3.2.3 3.2-.4 0-.6.7-1.1 1.6-1.1.9 0 1.2-.5.8-1.2-.4-.6 0-1.6.9-2.3 1.4-1 1.5-1.7.5-4.3-1.5-3.8-6.8-6.9-8.1-4.7-.4.8-1.4 1.2-2.2.9-1-.4-1.2 0-.8 1.5.5 2.1-.6 2.6-4.9 2.2-1.2-.2-1.6.3-1.2 1.3.6 1.6-.5 2.1-3.5 1.6-.9-.1-1.2.4-.8 1.4 1.1 2.7-.4 4.6-3.5 4.6-2.1 0-3.1-.6-3.5-2-.3-1.1-.9-2-1.3-2s-1-1-1.4-2.3c-.7-2.8-8-10.7-9.9-10.7-1.7 0-4.7 3.2-4.7 5.1-.1.9-.7.7-1.9-.9-1.9-2.2-3.8-3.1-2.6-1.2.7 1.1-.8 1.4-1.9.3-1-1-7.6-3.1-7.6-2.4zm51 81.7c0 .8-.4 1.4-1 1.4-.5 0-1-.9-1-2.1 0-1.1.5-1.7 1-1.4.6.3 1 1.3 1 2.1zm3.3 11.1c.3-.6.6-.8.6-.2 0 .5-.3 1.6-.7 2.3-1.1 1.6-4.2.5-4.2-1.4 0-1.1.4-1.2 1.9-.4 1.4.7 2.1.6 2.4-.3zm-40.3 16.9c0 .8-.4 1.2-1 .9-.5-.3-1-1-1-1.6 0-.5.5-.9 1-.9.6 0 1 .7 1 1.6zm16.6 12.4c.8 0 1.4.5 1.4 1.1 0 1.2-4 .2-5.5-1.4-.7-.7-.4-.8.8-.3 1 .3 2.5.6 3.3.6zm-26.4 9.2c-.7.7-1.2.8-1.2.2 0-1.4 1.2-2.6 1.9-1.9.2.3-.1 1.1-.7 1.7zm-41.8 10.1c.5-.4.7-.2.4.6-.2.8-1.4 1.6-2.6 1.8-1.7.2-2.2-.2-2.2-2 0-3.3 1.2-4.1 2.5-1.7.6 1.1 1.5 1.7 1.9 1.3zm135.2 29.6c-1.1 1.2-1.5 2.7-1.1 4 .8 2.7-4.1 6.3-5.5 4-.6-.9-.4-1.6.5-1.9 1-.4 1.1-.9.5-2-1.4-2.2-1.2-3.3.5-2.6.8.3 1.6 0 1.7-.7 0-.7.2-1.7.3-2.2.2-.6.3-1.9.4-3 .1-1.9.2-1.9 2.3.2 2.1 2.1 2.1 2.3.4 4.2zm-93.6 26.1c0 .5-.4 1-1 1-.5 0-1-.5-1-1 0-.6.5-1 1-1 .6 0 1 .4 1 1zm19.7 7c.1 1.1-.2 2-.8 2-1 0-1.2-2.3-.2-3.3.9-.9.9-1 1 1.3zm-80.7 46.4c0 .3-.4.8-1 1.1-.5.3-1 .1-1-.4 0-.6.5-1.1 1-1.1.6 0 1 .2 1 .4zm-2.4 3.2c4 1.9 4.4 3.4 1 3.4-1.6 0-2.7-.7-3.1-2-.4-1.1-1.1-1.8-1.6-1.5-.5.4-.9.1-.9-.4 0-1.5.6-1.4 4.6.5zm15.9 4.4c-.8.9-1.5 2.9-1.5 4.3 0 2.8-.6 3.2-3.4 2.1-3-1.1-3.8-4.1-2-6.9.9-1.5 2.3-2.4 3-2.1.9.4 1.4-.2 1.4-1.7l.1-2.2 2 2.4c1.8 2.1 1.8 2.6.4 4.1zM481 159.562c-.8 1.9-.8 3 0 3.8.7.7 1 .6 1-.2 0-.6.7-.9 1.5-.6 2 .8 2-2.3 0-4.2-1.3-1.4-1.6-1.2-2.5 1.2zM389 158.362c0 .4 1.4 2.5 3.2 4.7l3.2 4 1.4-2.7c1.2-2.2 1.2-2.9 0-4-1.4-1.5-7.8-3.1-7.8-2zM211.5 166.862c.5 1.7 0 2.1-4 2.6-3.4.6-4.5 1.2-4.5 2.5 0 2.2 2.2 3.2 8 3.5 2.5.2 6.6 1.3 9.2 2.4 2.5 1.2 5.3 1.8 6.2 1.5.8-.3 3 .3 4.8 1.4 2.3 1.3 4.1 1.7 5.8 1.2 1.6-.5 1.9-.8.8-.9-1.2-.1-1.6-.7-1.2-1.9.5-1.3.4-1.4-.4-.3-.5.7-1.4 1.1-2 .7-.6-.3-1.3 0-1.5.6-.4 1-.6 1-.6 0-.1-.6-.8-1.2-1.7-1.2-.9 0-1.2-.5-.8-1.2.4-.7.3-.8-.4-.4s-1.2.1-1.2-.9c0-.9-1.5-2.2-3.3-3-1.9-.8-3.9-2.1-4.7-2.9-.7-.9-2.3-1.6-3.5-1.6-1.3 0-2.6-.7-2.9-1.6-.5-1.2-.2-1.5.9-1 .9.3 1.3.2 1-.4-.3-.6-1.5-1-2.6-1-1.6 0-1.9.5-1.4 1.9zM345 169.062c0 .5.5.7 1 .4.6-.3 1-.8 1-1.1 0-.2-.4-.4-1-.4-.5 0-1 .5-1 1.1zM343 172.062c0 .5.5.7 1 .4.6-.3 1-.8 1-1.1 0-.2-.4-.4-1-.4-.5 0-1 .5-1 1.1zM339.8 176.662c.7.3 1.6.2 1.9-.1.4-.3-.2-.6-1.3-.5-1.1 0-1.4.3-.6.6zM164.7 179.662c-1.3 1.2-.7 2.3 1.3 2.3 1.1 0 2-.7 2-1.5 0-1.5-2.1-2.1-3.3-.8zM491 181.462c0 .9.6 1.2 1.5.9.8-.4 1.5-.7 1.5-.9 0-.2-.7-.5-1.5-.9-.9-.3-1.5 0-1.5.9z"/><path d="M361.3 185.662c-1.8.6-1.6 3.8.2 5.3.8.7 1.5 1.9 1.5 2.6 0 .8 1 1.4 2.4 1.4 1.5 0 2.6.7 2.9 2 .3 1.4 1 1.8 2.1 1.4 1.4-.5.9-1.4-2.4-4.7-2.2-2.3-4-4.9-4-5.8 0-2.1-1-2.8-2.7-2.2zM485.4 188.162c-.5 1.8-.8 4.3-.6 5.5.3 1.9.6 2.1 2.2 1.1 1.4-.9 1.6-1.6.9-3-.5-1-.7-2.9-.3-4.3.9-3.7-1.1-3-2.2.7zM494.5 185.962c.3.5 1.1 1 1.6 1 .6 0 .7-.5.4-1-.3-.6-1.1-1-1.6-1-.6 0-.7.4-.4 1zM339.5 188.862c-.3.5-.2 1.2.3 1.5.5.3.9-.1.9-.9 0-1.7-.3-1.9-1.2-.6zM500 191.962c0 .5.5 1 1 1 .6 0 1-.5 1-1 0-.6-.4-1-1-1-.5 0-1 .4-1 1zM513.3 194.762c-.9 3-.8 4.2 1 7.9 1.1 2.3 2.9 4.5 3.9 4.8.9.4 2.9 2 4.4 3.8 1.5 1.8 3.3 3.1 3.9 2.9.7-.1 1.5.4 1.9 1.3.6 1.8-.2 4.5-1.5 4.5-.5 0-.9.9-.9 2 0 1-.9 2.4-2.1 3.1-1.5.7-1.9 1.7-1.5 3.2.3 1.3-.2 2.9-1.1 4-1 1-1.7 3.4-1.7 5.2 0 3.5-1.3 4.4-3.3 2.4-.8-.8-1.6-.4-2.8 1.5-1.3 1.9-2.1 2.3-3.4 1.7-1-.6-2.3-.5-3.3 0-1.4.8-1.9.5-2.4-1.6-.3-1.4-1.3-2.5-2.3-2.5-.9 0-2.2-.5-2.9-1.2-.9-.9-1.2-.4-1.2 2.4 0 3.1.4 3.8 2.9 4.6 1.6.6 3.8 2.3 4.8 3.8l1.8 2.8.6-2.9.6-3 1.3 2.9c1.3 2.6 1.2 3-.6 4.5l-2.1 1.7 2.3 3.4c1.3 1.9 2.3 4.5 2.3 5.6.1 1.2.8 2.7 1.6 3.4.8.7 1.5 2.1 1.5 3.2s1.3 4.4 3 7.4c1.6 3 2.4 5.4 1.9 5.4-.7 0-.9 1-.5 2.5.4 1.4 0 4.8-.8 7.5-1.2 4-1.2 4.9-.1 5.4 2.2.8 3.5-1.7 2.9-5.6-.7-3.8.9-5.9 2.9-3.9 1.5 1.5 3.7 1.4 3.7-.3 0-1.8 3.8-1.5 7.9.7 2.7 1.6 3.5 1.6 4.2.5 1.2-1.8 1.1-2.2-1-4.4-1.8-1.9-1.8-1.9.2-4.2 2-2.2 2.1-2.5.6-5.1-1.8-3.1-.6-7.6 1.9-6.6.7.3 2 .5 2.8.5.9 0 1.2.5.9 1-1 1.6 2.1 2.3 4.5 1 1.3-.7 1.9-1.7 1.6-2.7-.5-1.1-.2-1.3 1-.9.9.3 3.3.9 5.5 1.2 2.2.4 4.2 1.1 4.5 1.5.8 1.4 3.4 1 3.4-.5 0-.7.6-1.9 1.3-2.5 1.1-.8 1.8-.6 3.3 1 1 1.1 2.6 1.8 3.6 1.6.9-.3 2.2.1 2.9.9.6.8.8 1.4.4 1.4s-.2.6.4 1.4c.9 1.1.7 1.5-1.1 2.1-1.3.4-2.7.7-3.1.6-.4-.1-.1.9.8 2.2 1.2 2 2.2 2.3 5.9 2.1 2.5-.1 6 .2 7.8.8 3.1.9 3.3 1.3 3.2 5.1-.1 3.7-.5 4.2-3.5 5.4l-3.4 1.3 3.5-.5c1.9-.3 4-1.2 4.6-2 .6-.8 2.1-1.5 3.2-1.5 2.3 0 3.9 1.6 2.1 2.2-.6.2.5 1.7 2.3 3.3 1.8 1.6 3.5 2.8 3.8 2.7.3-.2.8.7 1.1 2 .6 2.2.6 2.2 1.4-.5.4-1.7.3-3.9-.4-5.3-.6-1.4-1.1-3.3-1.1-4.3 0-1.1-.6-2.1-1.4-2.4-.7-.3-1.6-1.9-1.9-3.5-.8-4.1-5.8-12.1-7.9-12.8-1-.3-3.3-.6-5-.6-3.6-.1-5.8-1.8-5.8-4.2 0-.9-.4-1.6-.9-1.6-1.1 0-3.5-9.5-2.7-10.8.2-.4-1.4-2-3.7-3.5-2.2-1.5-4.3-2.3-4.6-1.8-.3.5-2.5.8-4.7.6-3.5-.2-4.1 0-3.7 1.5.3 1 0 2-.5 2.4-1.6 1-6.2-1.8-6.8-4.1-.6-2.4-5.6-4.9-7.4-3.8-.9.5-1 .1-.6-1.2.4-1.2.1-2.5-.9-3.3-.9-.7-1.5-2.9-1.5-5.3 0-3.8.1-3.9 1.8-2.4 1 1 2.1 1.4 2.5 1.1.3-.4 1.2.5 1.8 2 .7 1.4 1.8 2.6 2.5 2.6 2.3 0 4.4-1.2 4.4-2.6 0-.8.6-1.1 1.6-.7 1.4.5 1.5.3.5-1.5-.7-1.2-.9-2.2-.6-2.2.3 0-.1-1-.9-2.2-1.1-1.6-1.3-2.5-.5-3.5.6-.7.9-2.2.6-3.3-.4-1.4.1-2.4 1.6-3.1 3-1.6 3-1.5 1.7-3.8-.6-1.3-2.1-2.1-3.5-2.1-3.6 0-8.5-5.2-8.5-9 0-2.3-.6-3.3-2.5-4-1.4-.5-2.5-1.6-2.5-2.4 0-2-2.7-4.1-3.2-2.5-.3.9-1.1.6-2.6-.9-2.7-2.7-2.8-2.7-3.5-.2-.3 1.3-1 1.8-2.1 1.4-.9-.3-1.4-1-1.1-1.4.3-.4-.9-1.3-2.5-1.9-1.7-.5-3-.6-3-.2 0 .5-1.1.6-2.4.4-1.3-.3-3.3 0-4.5.6-1.3.7-2.1.8-2.1.2 0-.6-.8-1.5-1.8-2-1.5-.8-1.9-.4-2.9 2.7zM503.7 194.162c.6 1.1 7.3 1 7.3 0 0-.4-1.8-.8-3.9-.7-2.1 0-3.7.3-3.4.7zM498.6 194.762c-1.4 1.3-.5 3.8 1.3 3.8 1.1 0 1.7-.4 1.4-.9-.3-.5 0-1.3.7-1.7.8-.5.5-.9-.9-1.3-1.1-.2-2.2-.2-2.5.1zM485.7 200.362c-.3.8 0 1.9.7 2.6 1 .8 1.5.6 2-.6.7-1.7 0-3.4-1.4-3.4-.4 0-1 .6-1.3 1.4zM498 200.862c0 .6.5 1.3 1 1.6.6.4.7 1.2.3 1.8-.4.7-.1.7.9-.1.9-.8 1.4-2 1.1-2.8-.6-1.6-3.3-1.9-3.3-.5zM467.2 207.462c.3 1.4.2 2.8-.3 3.1-.4.2-.1 1.3.9 2.4 1.4 1.7 1.7 1.8 2.5.5.4-.9 1.4-1.3 2-.9.7.3 0-.5-1.6-1.8-1.9-1.7-2.4-2.7-1.6-3.5.7-.7.5-1.2-.7-1.7-1.3-.5-1.5-.2-1.2 1.9zM472 208.962c1.2 2.2 1.5 2.3 4.5 1 1.9-.8 1.9-.9-.2-.9-1.2-.1-2.5-.6-2.8-1.1-1.2-2-2.6-1-1.5 1zM488.5 209.962c1 1.1 1.9 2 2.1 2 .1 0 0-.9-.3-2s-1.2-2-2.1-2c-1.3 0-1.2.3.3 2zM492.5 215.662c1.5 3.2 2.5 4.2 2.5 2.4 0-.5-.9-1.9-2-3.2l-2.1-2.4 1.6 3.2z"/><path d="M503.7 233.962c.7 2.7 2.3 3.8 6.2 4.2 4.5.4 4-1.4-.9-3-2.2-.8-4-1.8-4-2.3 0-.5-.4-.9-.9-.9s-.7.9-.4 2zM245 270.062c0 .5.9.9 2 .9s2-.2 2-.4-.9-.6-2-.9c-1.1-.3-2-.1-2 .4zM364.7 270.862c-1.6.6-1.6.9-.5 1.8.7.6 2.1.7 3.1.4 1.6-.6 1.6-.9.5-1.8-.7-.6-2.1-.7-3.1-.4zM358.5 283.062c-1.6 1.1-3.4 2-4 2.2-.6.2-.4 1.1.4 2.1 1.1 1.3 1.1 2.2.3 4.1-1 2-.8 3.1.7 5.5 1.8 3 1.8 3 3.6 1 1-1.1 2.6-1.9 3.6-1.8.9.2 2.7-.6 3.9-1.7 1.8-1.6 2.3-1.7 3-.5.8 1.2 1 1.2 1 .1 0-1.1.3-1.1 1.5-.1.8.7 1.5.8 1.5.2 0-.5-.7-1.5-1.5-2.2-1.2-1-1.5-1-1.5.1-.1 2.3-3.1-4-3.4-6.9-.1-2-.7-2.6-2-2.4-.9.2-2.3-.1-2.9-.6-.8-.6-2.3-.3-4.2.9zM278.1 282.662c0 .4.4 1.6.8 2.6.6 1.7.8 1.7 2 .4 1-1.3.9-1.7-.8-2.7-1.2-.6-2.1-.7-2-.3zM328.3 286.062c0 3.3 1.2 3.8 2.7.9.8-1.5.6-2.1-.8-2.9-1.6-.9-1.9-.6-1.9 2zM265.3 285.662c-2.7.5-3.2 4.7-.8 5.7 1.8.6 2 4.7.3 6.4-2 2 .1 2.7 7.5 2.4 5-.1 7.5-.7 8.3-1.7.6-.8 1.9-1.5 2.8-1.5 1 0 1.4-.5 1.1-1-.4-.6-1.5-.8-2.5-.5-1 .3-2.1.2-2.4-.4-.3-.5-2.4-1.2-4.6-1.6-4.7-.8-5.5-1.7-3.9-4.6.9-1.7.8-2.3-.2-3-1.5-.9-1.9-.9-5.6-.2zM573.5 290.662c-2.7 4-2.2 5.7 2.2 7.4 3.4 1.3 5.4.1 4.8-2.7-.3-1.3-.7-3.5-1-4.8-.8-4-3.2-3.9-6 .1zM416.7 288.662c-.4.3-.7 1.1-.7 1.7 0 .6.5.5 1.2-.2.6-.6.9-1.4.7-1.7-.3-.3-.9-.2-1.2.2zM410.5 292.062c-1.6.5-4.2.7-5.7.5-2.2-.4-3.1.1-4.9 2.6-2.1 2.8-2.3 2.9-3.5 1.3-.7-1-2.5-1.8-3.9-1.8s-2.8-.3-3.1-.8c-.3-.5-1-.9-1.5-.9-1 0 3 6.2 4.4 6.9.5.2 1.2 1.4 1.7 2.7 1.6 4 5.8 3.2 11-2.2 3.9-3.9 4.9-4.5 7.7-4 2.2.3 3.3 0 3.7-1 .3-.8.2-1.3-.3-1-.5.3-1.4 0-2-.8-.9-1.1-.9-1.5.1-1.9 2.2-.9-.5-.6-3.7.4zM517.5 301.962c.3.5.8 1 1.1 1 .2 0 .4-.5.4-1 0-.6-.5-1-1.1-1-.5 0-.7.4-.4 1zM424.6 338.262c.3 1 .9 1.5 1.2 1.2.3-.3 0-1.1-.7-1.8-1-.9-1.1-.8-.5.6zM489 338.462c-.6.8-.9 1.9-.5 2.5 1.1 1.7 2.2 1.1 2.7-1.5.6-2.8-.3-3.2-2.2-1zM414.4 351.662c.2 1 1.1 2 2.1 2.2 1.3.2 1.6-.1 1.1-1.4-.3-.9-.6-1.9-.6-2.1 0-.2-.6-.4-1.4-.4-.8 0-1.3.8-1.2 1.7zM408.6 352.562c-.3.9-.2 1.2.5.9.5-.4 1.6-.1 2.4.5 1 .8 1.5.9 1.5.2 0-.6-.9-1.6-1.9-2.1-1.4-.8-2-.7-2.5.5zM571.5 357.962c.3.5.8 1 1.1 1 .2 0 .4-.5.4-1 0-.6-.5-1-1.1-1-.5 0-.7.4-.4 1zM386 359.962c0 .5.5 1 1.1 1 .5 0 .7-.5.4-1-.3-.6-.8-1-1.1-1-.2 0-.4.4-.4 1zM389.5 361.962c-.3.5-.1 1 .4 1 .6 0 1.1-.5 1.1-1 0-.6-.2-1-.4-1-.3 0-.8.4-1.1 1zM386 363.362c0 .9.5 1.6 1 1.6.6 0 1-.4 1-.9 0-.6-.4-1.3-1-1.6-.5-.3-1 .1-1 .9zM311.5 390.962c.4.6 1.1.8 1.6.5 1.4-.9 1.1-1.5-.7-1.5-.8 0-1.2.5-.9 1z"/></g></svg>