<?xml version="1.0" standalone="no"?>
<!DOCTYPE svg PUBLIC "-//W3C//DTD SVG 20010904//EN"
 "http://www.w3.org/TR/2001/REC-SVG-20010904/DTD/svg10.dtd">
<svg version="1.0" xmlns="http://www.w3.org/2000/svg"
 width="1152.290901pt" height="937.928461pt" viewBox="0 0 1152.290901 937.928461"
 preserveAspectRatio="xMidYMid meet">
<metadata>
Created by potrace 1.15, written by Peter Selinger 2001-2017
</metadata>
<g transform="translate(-451.053010,1472.000000) scale(0.100000,-0.100000)"
fill="#222222" stroke="none">
<path d="M6370 14705 c0 -8 -4 -15 -9 -15 -5 0 -7 -9 -4 -20 3 -12 0 -20 -6
-20 -7 0 -9 -4 -6 -10 11 -18 35 -11 35 11 0 11 3 18 8 16 4 -3 7 8 7 24 0 17
-5 29 -12 29 -7 0 -13 -7 -13 -15z"/>
<path d="M6322 14563 c11 -63 28 -113 40 -113 5 0 7 -3 6 -7 -1 -5 4 -19 11
-32 7 -12 10 -33 6 -45 -3 -11 -9 -46 -12 -76 -3 -31 -14 -66 -24 -79 -11 -13
-19 -28 -19 -33 0 -5 -7 -17 -16 -25 -9 -9 -13 -25 -10 -37 4 -16 -3 -29 -29
-49 -19 -15 -39 -27 -44 -27 -6 0 -11 -9 -11 -20 0 -16 -7 -20 -30 -20 -22 0
-33 -7 -44 -28 -8 -16 -22 -34 -30 -41 -11 -10 -13 -18 -6 -31 15 -28 12 -53
-5 -46 -12 4 -15 -3 -15 -29 0 -29 -4 -34 -26 -37 -38 -4 -51 -30 -36 -70 10
-26 9 -34 -2 -40 -19 -11 -12 -97 12 -140 11 -19 21 -49 24 -68 3 -19 8 -43
13 -52 9 -22 -22 -25 -50 -5 -14 11 -17 23 -13 53 l5 39 -48 0 c-34 1 -49 -3
-49 -12 0 -7 -7 -13 -16 -13 -11 0 -14 -8 -12 -30 2 -16 0 -29 -5 -29 -4 0
-18 -12 -31 -26 -15 -16 -27 -22 -31 -15 -3 6 -10 8 -15 5 -5 -3 -25 1 -44 9
-35 14 -35 14 -33 -12 1 -19 -3 -27 -14 -27 -9 0 -24 -8 -33 -18 -21 -20 -30
-21 -59 -5 -33 17 -47 40 -35 55 7 9 -1 24 -28 54 -22 22 -38 45 -36 50 1 5
-6 12 -15 16 -10 3 -28 15 -40 26 -20 18 -23 18 -23 4 0 -23 -16 -21 -47 3
-31 24 -59 26 -71 4 -7 -13 -11 -14 -17 -4 -4 7 -3 15 3 19 7 4 8 12 2 21 -8
13 -10 12 -10 -3 0 -10 -5 -15 -10 -12 -6 4 -18 1 -27 -7 -9 -7 -27 -13 -41
-13 -19 0 -30 -11 -53 -54 -33 -61 -50 -84 -57 -77 -2 3 -15 -8 -29 -25 -16
-18 -34 -29 -51 -29 -15 0 -22 -4 -16 -8 8 -5 8 -15 -1 -35 -6 -15 -15 -24
-19 -20 -4 4 -21 9 -39 10 -18 2 -51 5 -74 7 -51 5 -56 -9 -18 -47 17 -16 22
-28 15 -32 -14 -9 -89 70 -102 108 -8 21 -16 27 -32 25 -11 -1 -26 1 -32 5 -7
4 -17 0 -24 -8 -10 -13 -9 -15 12 -15 17 0 24 -6 25 -20 1 -16 -2 -18 -16 -10
-14 7 -23 4 -37 -11 -10 -11 -26 -18 -36 -16 -12 3 -18 0 -18 -10 0 -14 -3
-13 -20 2 -11 10 -20 15 -20 11 0 -14 55 -86 66 -86 40 -1 75 -100 35 -100
-17 0 -18 -3 -8 -31 7 -17 22 -36 33 -41 16 -7 20 -16 16 -32 -5 -18 -3 -19
10 -9 23 20 52 -17 45 -56 -4 -19 -1 -33 8 -41 11 -9 11 -18 4 -38 -7 -18 -7
-33 2 -48 9 -18 8 -32 -7 -73 -15 -43 -16 -54 -5 -75 16 -28 7 -49 -18 -41
-11 3 -20 -3 -26 -18 -6 -12 -20 -23 -33 -25 -14 -2 -27 -14 -33 -30 -5 -15
-21 -37 -35 -48 -22 -18 -24 -25 -15 -42 8 -15 8 -35 0 -72 -6 -29 -12 -59
-14 -68 -2 -9 -4 -17 -5 -17 -1 0 -3 -17 -5 -38 -2 -21 -13 -49 -25 -64 -11
-14 -20 -32 -20 -39 0 -7 -11 -19 -25 -26 l-24 -13 37 -63 c27 -46 45 -64 66
-70 17 -5 36 -20 45 -38 33 -60 137 -178 160 -180 29 -3 32 -5 30 -21 -2 -10
0 -31 4 -47 6 -22 12 -27 28 -23 13 4 23 -2 30 -16 6 -12 21 -32 32 -44 11
-12 17 -28 14 -36 -3 -9 11 -32 35 -56 23 -22 37 -42 32 -43 -5 0 -16 -1 -24
-2 -20 -1 -21 -66 -1 -74 19 -7 -13 -20 -53 -21 -28 -1 -28 -2 -22 -42 4 -26
3 -38 -4 -34 -6 4 -7 -1 -3 -12 9 -26 65 -113 73 -113 4 0 7 -17 8 -37 2 -44
16 -55 62 -46 19 4 43 6 53 5 10 0 22 9 27 24 6 14 17 24 30 24 14 0 20 7 20
24 0 17 9 28 33 40 17 9 44 26 59 38 20 16 41 21 82 21 56 0 56 0 58 31 0 17
0 40 -1 51 -2 27 18 72 35 79 8 3 14 17 14 31 0 51 86 107 139 90 12 -4 33 9
66 40 29 27 58 45 72 45 15 0 27 9 35 25 7 16 19 25 35 25 12 0 23 4 23 10 0
5 7 7 16 3 9 -3 23 3 35 16 21 23 44 27 54 10 4 -5 18 -14 32 -20 50 -19 104
38 107 112 1 20 6 29 18 29 15 0 16 4 8 25 -10 27 1 33 20 11 6 -8 17 -13 25
-10 7 3 16 1 20 -5 8 -13 55 -14 74 -2 8 5 25 5 42 -1 27 -9 65 2 80 24 8 12
39 -1 39 -17 0 -8 10 -31 22 -51 16 -26 18 -39 10 -42 -8 -2 -6 -12 8 -30 l21
-25 -27 -28 c-16 -17 -32 -25 -45 -22 -13 4 -19 0 -19 -11 0 -9 -6 -19 -14
-22 -8 -3 -24 -28 -35 -55 -18 -40 -26 -49 -46 -49 -21 0 -25 -5 -24 -27 1
-17 3 -21 6 -10 8 30 33 20 33 -13 0 -27 -8 -35 -25 -27 -3 1 -14 -17 -25 -40
-23 -52 -48 -78 -94 -94 -41 -15 -41 -16 1 -111 19 -43 24 -66 19 -93 -4 -19
-3 -35 2 -35 13 0 33 -101 26 -128 -4 -14 -12 -21 -20 -18 -8 3 -14 0 -14 -7
0 -7 -7 -25 -15 -41 -9 -16 -13 -37 -10 -48 4 -12 1 -18 -9 -18 -9 0 -16 -9
-16 -20 0 -11 -7 -20 -15 -20 -21 0 -65 -30 -65 -44 0 -13 -38 -40 -60 -42 -8
-1 -30 -8 -47 -15 -32 -13 -33 -15 -33 -75 0 -75 6 -94 31 -94 22 0 24 -16 4
-50 -8 -14 -14 -42 -15 -62 0 -34 -26 -68 -61 -80 -6 -2 -14 -29 -18 -61 -6
-45 -5 -57 6 -57 7 0 13 -5 13 -11 0 -6 -6 -9 -14 -6 -10 4 -16 -2 -18 -21 -2
-16 -9 -27 -18 -27 -8 0 -21 -11 -28 -24 -12 -20 -12 -25 0 -32 7 -5 19 -9 26
-9 19 0 36 -51 20 -62 -13 -8 -8 -10 27 -12 20 -1 22 -7 29 -83 2 -22 -1 -30
-11 -26 -7 3 -20 0 -27 -6 -10 -8 -16 -9 -21 -1 -12 20 -27 10 -21 -14 5 -19
1 -25 -16 -29 -29 -8 -41 1 -35 25 5 18 4 19 -12 4 -10 -9 -21 -12 -27 -7 -5
5 -20 12 -34 16 -23 7 -24 7 -10 -10 14 -17 13 -18 -7 -13 -27 7 -27 10 -6
-38 21 -47 25 -140 6 -155 -21 -18 10 -64 62 -89 25 -12 54 -33 65 -47 18 -23
18 -28 6 -42 -7 -9 -11 -22 -9 -28 3 -7 -2 -16 -11 -19 -9 -3 -16 -15 -16 -25
0 -16 -6 -19 -35 -17 -19 1 -37 -1 -41 -5 -9 -9 15 -37 33 -37 35 0 125 -95
106 -113 -3 -4 0 -14 8 -23 11 -14 11 -18 1 -21 -6 -3 -10 -9 -6 -14 3 -5 -4
-9 -15 -9 -12 0 -20 -3 -19 -7 0 -5 -2 -16 -7 -26 -13 -30 1 -106 24 -131 21
-22 28 -76 15 -111 -6 -14 -8 -13 -21 5 -8 11 -18 18 -23 15 -5 -3 5 -26 21
-50 25 -37 29 -50 23 -81 -6 -31 -4 -36 8 -32 24 10 37 -5 31 -34 l-5 -28 -28
20 c-34 24 -40 25 -40 5 0 -8 4 -15 10 -15 5 0 7 -6 4 -13 -3 -8 10 -18 32
-26 33 -12 39 -12 50 4 7 9 17 14 23 11 5 -4 12 -2 16 4 4 6 11 7 17 4 6 -4
17 0 23 10 8 10 19 14 29 10 12 -5 14 -10 6 -19 -8 -9 -4 -17 15 -29 14 -9 25
-14 25 -11 0 3 9 1 19 -5 11 -5 22 -23 26 -40 4 -16 11 -32 16 -36 12 -7 39
20 39 40 0 8 12 22 27 29 23 13 32 13 70 -2 36 -13 45 -13 52 -3 9 14 19 9
110 -51 40 -26 67 -67 62 -95 -1 -7 7 -25 19 -41 24 -35 25 -47 5 -55 -8 -3
-15 -12 -15 -20 0 -8 -11 -18 -25 -23 l-25 -8 35 -50 c19 -28 53 -64 76 -82
52 -41 83 -98 67 -123 -10 -15 -7 -26 16 -60 26 -40 45 -130 26 -130 -4 0 -6
-9 -3 -20 4 -14 0 -20 -10 -20 -22 0 -13 -70 10 -87 14 -11 14 -17 5 -38 -7
-15 -9 -37 -6 -50 4 -18 1 -25 -16 -30 -15 -5 -20 -13 -17 -26 3 -10 1 -19 -3
-19 -5 0 -11 -13 -15 -30 -4 -17 -12 -30 -19 -30 -8 0 -16 -17 -19 -42 -6 -44
-29 -70 -53 -61 -8 3 -14 -1 -14 -8 0 -10 -4 -9 -16 3 -17 17 -12 38 11 38 18
0 28 30 14 46 -9 11 -22 8 -71 -17 -53 -27 -59 -33 -56 -57 3 -24 -1 -28 -40
-36 -30 -7 -41 -14 -37 -24 3 -9 -1 -12 -15 -7 -13 4 -20 2 -20 -7 0 -8 -6
-26 -12 -40 -14 -28 -24 -29 -130 -13 -15 2 -30 0 -34 -6 -3 -6 -22 -9 -43 -7
-31 2 -36 0 -34 -19 4 -32 -22 -49 -53 -34 -16 7 -23 7 -19 1 4 -6 -1 -22 -10
-36 -9 -14 -14 -28 -11 -31 3 -3 1 -15 -5 -26 -8 -14 -8 -18 0 -13 7 5 11 -4
11 -23 0 -26 -4 -30 -31 -33 -19 -2 -36 -11 -43 -23 -22 -38 -39 -45 -62 -24
-25 23 -44 25 -44 3 0 -9 -6 -14 -12 -11 -7 2 -18 -3 -24 -12 -9 -11 -7 -23 8
-50 39 -69 70 -102 90 -95 15 4 22 -2 35 -35 9 -22 20 -38 24 -35 14 8 23 -26
11 -38 -16 -16 34 -87 58 -81 21 5 42 -38 21 -45 -18 -6 -14 -72 5 -72 18 0
53 38 54 58 0 7 7 27 16 44 l16 30 29 -32 c16 -17 35 -30 42 -27 6 2 19 23 28
47 19 50 37 60 97 53 34 -5 42 -3 42 11 0 9 8 16 20 16 11 0 20 7 20 15 0 8 4
15 9 15 5 0 7 10 3 23 -5 19 -3 20 10 9 14 -11 16 -10 11 7 -6 25 12 28 21 4
5 -12 9 -14 18 -5 7 7 20 12 30 12 20 0 24 20 7 37 -13 13 -4 33 17 33 8 0 21
18 30 40 15 37 19 40 55 40 25 0 42 5 45 14 3 8 15 17 27 20 12 3 28 19 35 36
8 16 20 30 27 30 7 0 16 7 19 15 4 12 10 13 25 6 16 -9 19 -6 25 20 11 58 37
99 61 99 12 0 30 9 40 20 10 11 24 20 32 20 7 0 13 9 13 20 0 27 7 25 65 -13
47 -31 52 -33 89 -22 24 7 44 20 49 33 12 25 14 26 46 8 25 -14 36 -12 97 16
15 7 32 6 56 -2 28 -10 46 -10 81 -2 45 12 77 8 77 -9 0 -16 18 -9 22 8 2 12
13 17 32 18 25 0 31 6 45 45 11 30 23 46 36 48 11 2 23 9 26 14 4 6 16 7 28 3
14 -4 23 -2 26 7 3 8 22 15 42 16 35 3 89 43 75 56 -3 3 2 6 10 6 11 0 14 6
11 20 -7 25 26 54 43 39 8 -7 9 2 4 31 -7 40 -7 40 12 24 10 -10 17 -23 14
-30 -3 -7 4 -20 14 -29 10 -9 21 -28 24 -41 5 -19 11 -24 26 -19 13 4 32 -4
57 -23 21 -17 52 -33 69 -37 27 -5 35 -2 52 22 l20 28 15 -50 c8 -28 18 -50
23 -50 5 0 35 -18 67 -39 47 -31 61 -36 68 -25 15 25 33 -5 22 -37 -6 -18 -6
-38 0 -55 15 -38 3 -61 -28 -53 -14 3 -25 3 -25 -1 0 -17 22 -45 36 -45 24 0
11 -24 -17 -30 l-24 -6 23 -12 c12 -7 22 -19 22 -28 0 -8 11 -20 25 -26 18 -8
25 -19 25 -39 0 -15 4 -31 10 -34 6 -4 5 -13 -2 -25 -9 -13 -9 -25 -1 -42 6
-13 8 -47 5 -76 -4 -44 -10 -56 -34 -73 -21 -16 -27 -26 -22 -41 4 -14 3 -18
-6 -13 -7 4 -18 -2 -26 -14 -9 -12 -20 -18 -27 -14 -7 4 -6 -1 2 -10 12 -15
11 -20 -4 -37 -13 -14 -14 -20 -5 -20 7 0 10 -3 7 -7 -4 -3 -16 2 -27 12 -18
16 -20 16 -26 2 -5 -13 -10 -14 -25 -7 -10 6 -22 9 -26 9 -14 -4 -58 18 -72
35 -7 9 -17 16 -22 16 -4 0 -19 11 -33 25 -33 33 -46 32 -46 -5 0 -24 12 -42
60 -86 33 -31 62 -65 66 -76 4 -14 12 -18 26 -15 33 9 48 -3 48 -37 0 -39 34
-96 57 -96 10 0 24 -9 31 -21 9 -14 20 -19 34 -15 27 6 166 -57 185 -84 8 -11
26 -20 40 -20 14 0 50 -14 80 -31 41 -23 57 -28 67 -20 7 6 21 9 30 5 9 -3 16
-1 16 5 0 6 6 11 14 11 8 0 22 10 30 21 19 28 42 19 63 -25 9 -19 23 -38 32
-41 9 -4 57 -8 108 -10 l92 -3 12 30 c10 25 16 29 38 23 69 -17 84 -17 95 -3
6 9 20 17 31 20 14 2 20 11 20 30 -1 18 6 28 17 31 10 3 18 1 18 -4 0 -16 39
-9 49 9 8 14 13 15 30 5 14 -9 22 -9 27 -2 3 6 15 9 25 6 11 -3 19 0 19 7 0
17 87 96 105 96 8 0 15 4 15 8 0 5 8 19 19 30 l18 22 26 -29 c18 -21 42 -33
81 -42 31 -7 56 -16 56 -20 0 -13 52 -63 96 -93 39 -25 45 -26 84 -16 58 16
78 30 73 51 -4 14 3 19 31 24 20 4 36 12 36 17 0 6 12 8 30 5 18 -4 30 -2 30
4 0 7 20 10 53 7 48 -3 52 -1 51 20 -1 22 20 30 31 12 7 -12 66 -2 84 15 10
10 21 10 43 3 23 -8 33 -7 47 6 10 9 27 16 38 16 11 0 28 9 38 20 10 11 30 20
45 20 33 0 56 25 52 56 -2 17 2 24 12 24 9 0 16 6 16 14 0 8 7 16 15 20 8 3
15 16 15 28 0 43 15 50 37 19 12 -15 32 -30 46 -33 23 -5 31 5 50 63 3 9 18
20 34 23 29 8 103 81 103 103 0 7 5 13 11 13 18 0 38 32 39 61 0 17 7 28 18
31 15 4 18 14 16 51 -2 38 1 47 16 52 16 5 18 12 12 38 -3 18 -7 44 -7 60 0
15 -3 27 -6 27 -4 0 -12 20 -18 45 -10 42 -30 61 -32 33 0 -7 -6 14 -14 47
-14 68 -12 71 47 81 21 4 35 10 32 15 -13 21 31 72 79 90 15 6 27 17 27 25 0
8 9 14 19 14 19 0 36 25 32 49 -2 13 12 8 35 -13 13 -12 -14 -66 -33 -66 -6 0
-12 -12 -12 -27 0 -16 -1 -35 -2 -43 -4 -32 1 -61 11 -55 5 3 26 -12 47 -33
21 -21 46 -41 56 -45 10 -4 27 -27 38 -51 10 -24 26 -46 34 -50 8 -3 15 -11
15 -18 0 -7 11 -18 24 -24 20 -9 26 -9 30 2 3 8 12 11 22 7 12 -5 15 -3 9 6
-5 10 -2 12 14 7 11 -3 30 -9 41 -12 15 -4 20 -1 20 13 0 10 -4 25 -9 33 -6 8
-7 18 -4 23 7 12 43 -43 43 -66 0 -11 12 -23 29 -30 21 -8 32 -21 42 -51 7
-23 28 -60 46 -83 18 -23 33 -46 33 -51 0 -5 9 -12 19 -15 15 -3 19 -13 18
-41 -1 -24 -6 -36 -16 -36 -12 0 -11 -3 2 -18 22 -24 21 -40 -3 -77 -12 -19
-20 -47 -20 -75 0 -50 -30 -110 -55 -110 -9 0 -13 -5 -10 -10 4 -6 -1 -31 -11
-55 -16 -43 -16 -46 1 -65 15 -17 16 -20 2 -25 -17 -7 -34 -94 -19 -104 5 -3
13 -17 17 -31 6 -20 5 -23 -6 -12 -17 16 -24 15 -44 -4 -22 -23 -39 -5 -26 28
6 17 6 25 -2 26 -7 0 -31 2 -54 5 -33 3 -43 1 -43 -10 0 -8 -4 -12 -8 -9 -4 2
-16 -8 -27 -24 -17 -25 -25 -28 -55 -24 -55 6 -63 9 -87 22 -20 11 -22 9 -28
-28 -6 -34 -11 -40 -31 -40 -19 0 -24 -5 -24 -24 0 -23 -43 -76 -62 -76 -6 0
-7 -7 -4 -16 4 -10 -1 -25 -10 -35 -10 -11 -14 -19 -9 -19 4 0 -9 -18 -29 -40
-24 -27 -36 -50 -36 -70 0 -29 -1 -30 -50 -30 l-50 0 20 -23 c15 -17 30 -23
53 -21 18 1 51 -7 74 -19 38 -19 41 -24 36 -50 -6 -28 -5 -28 16 -16 11 8 21
18 21 22 0 5 13 6 28 2 36 -8 97 18 118 50 21 32 35 32 74 -5 23 -22 38 -29
53 -24 11 3 43 6 71 6 35 0 58 6 75 19 31 25 73 24 96 -1 17 -18 27 -20 93
-15 86 6 92 8 92 41 0 20 5 24 30 24 17 0 30 5 30 10 0 6 8 14 18 17 25 10 42
29 42 48 0 8 6 30 14 48 12 31 16 33 51 29 41 -5 85 14 85 36 0 11 8 13 35 9
34 -6 37 -4 75 54 22 33 40 71 40 83 0 13 9 31 20 41 11 10 20 26 20 36 0 10
13 25 30 34 20 10 33 26 36 45 7 32 33 43 50 21 10 -12 14 -10 28 17 9 18 14
37 11 42 -3 5 7 10 22 12 17 2 27 8 25 17 -2 8 3 11 13 8 10 -5 15 0 15 13 0
13 7 20 20 20 12 0 20 7 20 17 0 12 19 -2 59 -41 55 -55 58 -60 48 -86 -8 -22
-8 -35 3 -57 14 -30 14 -72 -1 -87 -5 -6 -3 -16 5 -25 8 -9 16 -29 18 -46 2
-21 8 -29 19 -27 10 1 19 -6 22 -19 4 -16 9 -19 24 -11 21 11 83 23 98 19 6
-1 10 -12 10 -24 1 -12 12 -34 25 -48 18 -19 21 -28 12 -34 -9 -6 -8 -11 5
-23 10 -8 25 -17 34 -21 18 -6 44 -88 41 -126 -1 -16 9 -36 28 -56 30 -31 34
-47 28 -115 -2 -28 0 -34 14 -32 12 2 20 -6 24 -23 4 -15 15 -28 29 -31 28 -7
44 -37 17 -32 -20 4 -44 -35 -35 -57 3 -8 0 -15 -7 -15 -10 0 -10 -3 0 -15 7
-8 19 -15 26 -15 14 0 18 -12 15 -38 -1 -7 5 -19 14 -28 19 -20 19 -30 -2 -38
-14 -6 -14 -8 3 -21 38 -29 93 -9 78 29 -3 9 -1 16 5 16 6 0 11 -5 11 -11 0
-6 8 -8 18 -5 20 6 33 -1 48 -28 14 -27 40 -35 29 -10 -5 11 -9 45 -10 76 -1
31 -7 63 -13 70 -8 10 -8 18 -1 25 6 6 3 18 -11 36 -14 18 -21 38 -19 60 2 18
0 37 -4 44 -10 16 2 43 19 43 20 0 18 47 -2 58 -10 5 -18 24 -20 43 -3 48 -11
86 -20 100 -5 9 -2 10 11 5 15 -5 16 -4 5 9 -10 12 -10 15 4 15 22 0 20 23 -4
45 -24 21 -26 35 -6 35 12 0 13 6 4 31 -6 17 -8 50 -5 74 3 28 0 51 -8 63 -8
10 -15 33 -17 52 -2 26 -10 38 -36 52 -18 10 -37 16 -41 13 -5 -2 -8 13 -7 35
0 29 4 36 13 29 8 -7 18 -7 32 0 49 27 108 3 139 -56 9 -16 9 -22 -1 -26 -9
-3 -9 -7 0 -17 12 -13 20 -2 37 53 4 11 16 17 37 17 22 0 32 5 36 20 3 10 14
22 24 25 10 4 19 13 19 22 0 9 11 26 25 39 14 13 25 34 25 49 0 15 6 25 14 25
8 0 18 9 21 20 3 11 10 20 15 20 5 0 7 13 4 29 -3 16 -1 31 4 35 10 6 0 53
-23 110 -7 16 -6 17 14 6 23 -12 23 -11 19 47 -3 32 -11 73 -19 92 -11 27 -11
35 -1 38 6 3 12 15 12 27 0 13 3 26 6 29 7 7 43 106 44 120 0 4 -5 7 -11 7 -7
0 -27 16 -46 35 -32 33 -62 48 -47 24 3 -6 -5 -3 -20 6 -30 20 -34 51 -7 60
42 13 29 53 -34 101 -13 10 -16 17 -8 20 7 3 9 12 6 20 -3 8 0 14 5 14 6 0 13
8 16 18 3 9 21 33 38 52 18 20 42 55 52 78 16 36 17 46 6 66 -7 13 -10 30 -7
38 2 7 -3 26 -12 42 -12 22 -13 30 -3 33 6 3 13 17 13 31 1 19 3 21 6 9 4 -14
12 -18 29 -14 13 2 25 -1 27 -6 6 -19 25 3 31 37 7 36 30 52 59 40 8 -3 24 -1
35 5 15 8 23 7 33 -5 7 -9 23 -20 36 -25 13 -5 23 -15 23 -23 0 -16 54 -38 75
-30 8 4 12 11 8 18 -4 6 1 5 10 -3 15 -12 21 -10 51 13 24 18 47 26 75 26 34
0 39 3 34 17 -7 17 -5 17 21 0 15 -10 35 -16 43 -13 9 4 25 -2 36 -11 11 -10
17 -13 14 -6 -13 21 39 37 125 37 20 0 35 3 32 7 -7 13 20 16 44 6 20 -10 26
-20 23 -40 -1 -5 3 -6 8 -3 5 3 14 0 20 -8 7 -8 21 -12 31 -9 11 3 28 2 37 -2
36 -15 78 -20 125 -14 18 2 29 11 33 26 8 32 20 29 45 -12 12 -19 28 -35 35
-35 7 0 16 -14 20 -31 4 -18 16 -34 28 -39 51 -20 63 -23 85 -25 12 0 22 2 22
5 0 12 109 3 126 -10 11 -8 6 0 -9 18 -15 19 -27 38 -27 43 0 13 -62 68 -77
69 -7 0 -19 14 -28 30 -14 27 -14 30 0 30 8 0 16 10 17 23 0 12 2 27 3 32 2 6
3 16 4 23 0 6 8 12 16 12 11 0 12 5 5 25 -8 22 -7 24 13 21 12 -3 26 -5 31 -5
4 -1 6 -8 3 -15 -4 -9 2 -17 14 -21 10 -4 24 -15 29 -26 8 -14 21 -19 51 -19
32 0 42 -4 46 -20 3 -11 9 -18 13 -15 4 3 20 -13 35 -35 22 -32 31 -38 41 -29
9 7 35 10 66 7 75 -8 124 17 112 55 -7 21 3 21 61 1 35 -11 50 -12 60 -4 19
16 71 16 91 -1 14 -11 18 -11 29 4 11 15 14 16 25 2 7 -8 19 -15 26 -15 19 0
54 36 54 55 0 18 12 19 27 4 8 -8 17 -5 32 10 24 24 43 19 66 -15 14 -22 43
-25 30 -3 -4 5 -2 9 4 9 6 0 17 13 26 29 20 40 2 128 -32 154 -24 19 -33 44
-10 31 7 -5 6 -1 -3 10 -10 13 -14 37 -12 81 3 67 -10 88 -47 78 -21 -5 -53
48 -33 54 32 11 4 43 -38 43 -10 0 -35 9 -54 21 -19 11 -51 22 -71 25 -48 6
-105 30 -105 45 0 9 -3 9 -14 0 -11 -9 -20 -4 -42 23 -52 63 -124 136 -134
136 -5 0 -10 -4 -10 -10 0 -21 -16 -9 -27 20 -6 17 -11 32 -10 34 1 2 -9 13
-23 24 -21 17 -26 18 -30 6 -5 -12 -10 -11 -25 7 -11 12 -15 19 -8 15 11 -6
53 29 53 46 0 9 -57 65 -73 72 -8 3 -7 8 3 15 12 8 12 13 2 23 -6 6 -12 8 -12
3 0 -6 -5 -3 -10 5 -8 12 -10 11 -10 -7 0 -13 -5 -23 -11 -23 -6 0 -8 -9 -3
-22 4 -13 7 -30 7 -38 0 -8 9 -27 19 -42 l19 -28 -23 0 c-13 0 -47 16 -75 35
-61 41 -64 41 -81 15 -17 -28 -24 -25 -46 21 -13 28 -16 52 -12 78 7 44 -7 61
-66 82 -29 10 -41 22 -54 53 -9 23 -16 53 -15 67 0 15 -8 34 -19 44 -11 10
-20 25 -20 33 0 8 -6 12 -14 9 -16 -6 -66 42 -66 65 0 8 -7 22 -16 29 -9 8
-31 46 -49 85 -26 56 -38 73 -56 76 -24 3 -102 95 -93 109 2 4 0 10 -6 14 -6
4 -8 10 -5 15 3 4 -5 10 -17 13 -12 4 -19 9 -16 13 4 3 1 13 -7 21 -22 21 -18
36 4 21 11 -8 35 -12 54 -10 28 3 34 7 30 23 -3 10 -9 19 -14 19 -5 0 -14 11
-19 25 -5 14 -15 25 -22 25 -8 0 -5 5 5 11 9 6 15 14 12 20 -4 5 0 9 9 9 8 0
17 -6 19 -12 3 -7 6 -8 6 -2 1 5 -5 19 -13 29 -13 18 -14 18 -25 -3 -13 -24
-34 -21 -25 3 3 8 -3 27 -15 43 -11 16 -17 32 -13 36 3 4 1 10 -5 14 -7 5 -9
13 -4 21 7 10 14 10 40 -3 17 -9 31 -21 31 -26 0 -6 7 -10 15 -10 8 0 15 7 15
15 0 8 -4 15 -9 15 -13 0 -2 84 12 89 6 2 23 17 37 33 13 15 35 28 47 28 14 0
23 6 23 15 0 8 6 15 13 15 8 0 7 4 -3 10 -13 8 -12 10 4 10 12 0 16 5 12 15
-3 8 -1 15 5 15 7 0 9 13 7 30 -5 32 4 46 22 35 8 -5 7 -11 -1 -21 -6 -8 -9
-17 -5 -21 3 -3 6 -1 6 6 0 7 5 9 10 6 18 -11 39 19 28 40 -8 13 -7 16 1 11 6
-4 11 -1 11 7 0 8 6 20 14 27 14 11 14 19 -1 58 -3 9 -5 37 -4 61 2 42 -1 46
-66 107 -43 41 -73 79 -83 107 -9 23 -22 41 -29 39 -6 -1 -14 5 -16 13 -3 8
-8 23 -12 33 -3 9 -5 22 -5 28 1 6 -9 17 -23 24 -18 9 -25 22 -25 42 0 16 -7
31 -15 34 -8 3 -35 42 -61 86 -35 61 -44 86 -39 105 4 19 0 32 -19 52 -30 32
-51 81 -34 81 6 0 5 7 -5 18 -11 12 -13 22 -6 34 7 14 4 23 -16 40 -14 12 -25
32 -25 45 0 14 -5 34 -12 46 -7 12 -11 32 -9 43 1 12 -5 39 -13 59 -15 35 -15
37 4 42 14 4 20 14 20 34 0 15 -4 31 -10 34 -5 3 -10 15 -10 25 0 10 -8 21
-17 24 -21 7 -73 78 -73 99 0 8 -11 22 -24 30 -13 9 -34 32 -46 52 -21 34 -21
37 -5 55 14 16 15 23 6 34 -17 20 5 55 31 48 12 -3 18 1 18 12 0 9 7 16 15 16
16 0 18 12 15 95 -1 47 19 107 41 120 5 4 9 19 9 36 0 16 4 29 10 29 19 0 32
40 21 70 -5 17 -6 32 -1 35 15 9 -37 109 -66 127 -15 9 -31 23 -35 31 -11 19
-97 16 -109 -3 -9 -13 -10 -13 -10 0 0 9 -3 11 -8 5 -4 -5 -20 -17 -37 -26
-24 -12 -30 -22 -30 -46 0 -28 -4 -32 -34 -37 -32 -5 -81 16 -81 34 0 5 -14
22 -31 40 -26 26 -34 29 -47 18 -12 -10 -16 -10 -19 0 -3 6 -13 12 -24 12 -29
0 -105 61 -118 96 -15 42 -15 44 14 44 19 0 25 5 25 21 0 12 14 38 30 59 17
21 30 43 30 50 0 9 3 10 14 1 13 -11 46 -5 46 8 0 4 -7 16 -15 27 -13 16 -16
17 -25 4 -8 -13 -11 -12 -16 7 -4 16 -15 23 -38 25 -17 2 -30 8 -29 13 1 6
-12 18 -28 29 -19 12 -28 24 -24 34 3 9 -3 21 -16 30 -14 9 -17 18 -11 24 6 6
8 17 5 24 -4 12 -8 12 -20 2 -13 -10 -19 -8 -39 15 -13 16 -28 26 -33 23 -4
-3 -28 8 -53 23 -29 19 -61 30 -89 31 -70 4 -72 3 -50 -27 12 -17 21 -46 21
-73 2 -65 1 -70 -12 -68 -9 2 -12 -8 -10 -32 3 -34 22 -69 22 -40 0 13 2 13
10 0 17 -27 12 -42 -12 -34 -19 6 -21 5 -11 -8 14 -17 11 -91 -5 -130 -8 -20
-19 -28 -37 -28 -22 0 -25 -4 -20 -20 5 -16 3 -19 -11 -13 -14 5 -16 2 -12
-15 4 -14 2 -20 -4 -16 -6 4 -9 3 -6 -2 20 -43 33 -64 40 -64 4 0 8 -7 8 -15
0 -20 -36 -19 -44 1 -3 8 -11 12 -16 9 -6 -4 -17 -1 -25 5 -12 10 -15 10 -15
-2 0 -7 14 -22 32 -32 26 -16 29 -21 16 -30 -17 -13 -6 -62 12 -51 5 3 10 1
10 -4 0 -6 7 -11 15 -11 8 0 15 6 15 14 0 9 8 12 28 8 l27 -5 -20 24 c-11 13
-13 18 -4 11 9 -6 19 -9 23 -5 4 4 -3 12 -14 18 -19 10 -17 13 25 39 25 16 45
32 45 36 0 4 9 10 20 13 15 4 20 14 21 44 1 38 1 38 12 11 8 -20 18 -28 35
-28 13 0 21 -4 18 -9 -3 -5 0 -11 7 -14 18 -7 10 -87 -10 -87 -8 0 -12 -4 -8
-9 3 -5 1 -12 -5 -16 -20 -12 -10 -53 18 -77 33 -27 53 -56 31 -43 -8 5 -3 -3
9 -18 13 -14 37 -31 53 -37 32 -14 37 -27 14 -36 -10 -4 -13 -13 -10 -25 5
-14 0 -22 -17 -29 -36 -15 -61 -38 -53 -49 3 -7 -3 -11 -15 -11 -25 0 -45 -17
-54 -48 -4 -12 -13 -22 -21 -22 -7 0 -16 -13 -20 -30 -4 -16 -20 -44 -36 -61
-17 -18 -28 -38 -25 -46 6 -14 -27 -53 -45 -53 -6 0 -8 -8 -4 -19 7 -23 -16
-34 -53 -25 -37 9 -60 31 -67 64 -7 33 -16 41 -79 75 -55 29 -56 29 -56 11 0
-11 -6 -13 -27 -6 -50 15 -63 22 -63 36 0 7 -12 19 -27 26 -16 7 -32 22 -37
34 -5 12 -29 28 -57 38 -27 9 -53 25 -59 36 -6 11 -16 17 -25 14 -20 -8 -47
16 -42 36 2 9 -1 24 -8 33 -19 27 -9 156 15 189 26 35 25 39 -9 73 l-28 29 22
18 c13 10 29 18 35 18 7 0 10 7 7 15 -4 8 -1 17 4 21 6 3 9 15 6 25 -3 11 -2
19 2 19 14 0 66 55 78 83 10 22 10 27 -1 27 -23 0 -48 37 -41 59 5 16 3 20 -9
16 -9 -3 -23 -7 -32 -10 -13 -4 -14 -8 -4 -20 10 -12 9 -15 -4 -15 -9 0 -16 6
-16 14 0 23 -41 48 -57 34 -7 -6 -13 -16 -13 -23 0 -7 -11 -15 -25 -17 -20 -4
-32 2 -55 29 -35 40 -40 73 -10 73 25 0 26 15 2 32 -10 7 -21 21 -25 30 -3 9
-23 26 -45 37 -57 29 -66 44 -53 83 8 21 8 35 1 42 -5 5 -10 18 -10 27 0 9 -7
22 -15 29 -22 19 -18 39 10 46 29 7 29 5 11 49 -8 19 -11 35 -5 35 14 0 11 19
-5 36 -16 16 -30 19 -21 5 3 -5 -4 -12 -15 -16 -11 -3 -20 -14 -20 -23 0 -9
-7 -26 -15 -36 -8 -10 -12 -23 -9 -27 3 -5 -1 -9 -8 -9 -7 -1 1 -12 17 -26 29
-25 29 -25 5 -18 -14 3 -27 9 -30 13 -12 15 -39 10 -45 -9 -4 -11 -15 -20 -26
-20 -11 0 -17 -4 -14 -10 15 -24 -8 -28 -27 -5 -13 17 -27 25 -39 22 -11 -3
-19 0 -19 6 0 6 -14 -2 -30 -18 -23 -22 -33 -26 -42 -17 -7 7 -27 12 -46 12
-18 0 -42 5 -53 10 -15 8 -19 7 -19 -5 0 -11 -10 -14 -40 -13 -22 1 -40 5 -40
9 0 5 -17 17 -38 28 -38 19 -38 19 -73 -2 -19 -12 -37 -25 -40 -31 -4 -5 -13
-6 -21 -3 -10 3 -19 -6 -27 -29 -7 -19 -17 -34 -23 -34 -6 0 -17 -8 -24 -17
-11 -16 -16 -16 -34 -5 -14 8 -26 10 -33 4 -7 -5 -30 -8 -52 -6 -22 1 -43 3
-47 3 -5 1 -8 15 -8 32 0 23 -4 30 -14 26 -8 -3 -24 5 -36 18 -12 12 -34 25
-49 28 -29 6 -51 41 -51 81 0 13 -7 29 -15 36 -12 10 -15 9 -15 -5 0 -12 -5
-15 -16 -11 -9 3 -23 6 -31 6 -13 0 -13 3 -3 15 10 12 9 15 -7 15 -10 0 -24 5
-30 11 -6 6 -28 11 -50 12 -33 2 -48 10 -86 48 -25 26 -54 66 -63 90 -9 24
-34 60 -54 79 -20 19 -40 47 -44 63 -3 15 -13 27 -20 27 -14 0 -39 54 -29 64
3 3 -9 24 -27 46 -23 29 -39 40 -51 37 -29 -8 -37 13 -34 80 5 69 0 76 -62 92
-23 6 -46 17 -50 24 -11 19 -3 71 13 84 13 10 12 16 -10 51 -29 46 -42 57 -51
42 -11 -18 -73 -12 -84 8 -7 14 -18 17 -45 14 -20 -2 -36 -9 -36 -14 0 -6 -7
-26 -17 -45 -12 -25 -21 -33 -34 -30 -11 3 -22 1 -25 -4 -7 -12 -61 -11 -69 2
-5 7 -15 5 -31 -5 -13 -9 -32 -16 -43 -16 -17 0 -19 -4 -11 -31 8 -26 7 -30
-6 -25 -9 3 -18 6 -20 6 -2 0 -4 5 -4 10 0 13 -37 50 -50 50 -5 0 -10 -6 -10
-12 0 -9 -19 -14 -53 -16 -28 -2 -56 -7 -61 -12 -14 -14 -29 -12 -50 3 -16 12
-17 16 -5 35 11 18 11 24 -4 40 -12 13 -14 21 -6 29 8 8 5 14 -10 22 -17 9
-22 8 -31 -10 -7 -11 -9 -23 -6 -26 3 -4 2 -11 -3 -17 -5 -6 -6 -30 -2 -53 5
-23 5 -45 2 -49 -3 -3 -6 -33 -6 -65 0 -42 -4 -62 -15 -69 -12 -7 -11 -12 4
-29 11 -12 25 -21 31 -21 7 0 15 -7 18 -15 7 -16 -8 -29 -22 -21 -17 11 -23
-63 -7 -79 13 -14 16 -13 25 2 10 17 10 17 11 1 0 -10 4 -17 9 -15 5 1 17 -7
25 -18 16 -19 16 -19 27 -1 9 15 13 16 20 5 6 -11 9 -10 14 3 5 13 13 14 35 8
29 -8 50 3 50 26 0 14 25 26 34 16 4 -3 16 -7 28 -9 26 -4 58 -31 58 -48 0 -7
14 -23 31 -36 35 -27 41 -33 70 -72 25 -34 75 -61 84 -47 9 14 81 -44 112 -91
19 -29 22 -42 14 -56 -13 -26 -23 -113 -12 -113 14 0 21 -143 8 -159 -7 -8
-11 -33 -9 -57 2 -45 -19 -84 -45 -84 -7 0 -13 -7 -13 -15 0 -16 -1 -16 -67
19 -24 12 -32 13 -36 4 -2 -7 -8 1 -12 17 -4 17 -15 39 -25 50 -9 11 -20 28
-23 38 -4 9 -13 17 -22 17 -8 0 -15 4 -15 10 0 5 -7 7 -15 4 -15 -6 -19 3 -15
44 1 13 -9 44 -23 70 -13 26 -27 60 -31 75 -6 24 -9 27 -21 17 -10 -9 -15 -9
-15 -1 0 6 -11 13 -25 17 -14 3 -25 12 -25 18 0 19 -65 47 -78 34 -8 -8 -15
-8 -25 0 -10 8 -16 9 -25 0 -15 -15 -46 -2 -38 17 3 10 -1 18 -12 22 -9 4 -23
14 -30 22 -11 14 -12 13 -7 -6 5 -18 2 -23 -13 -23 -11 0 -25 -7 -32 -15 -7
-8 -28 -15 -46 -15 -19 0 -34 -4 -34 -9 0 -10 -76 24 -84 38 -4 5 -22 8 -41 6
-27 -2 -36 1 -41 17 -4 14 -12 18 -27 14 -12 -3 -27 -6 -33 -6 -7 0 -14 -9
-17 -19 -3 -15 -11 -18 -27 -14 -13 4 -25 0 -30 -7 -7 -11 -11 -11 -25 0 -15
12 -19 11 -34 -8 -12 -16 -25 -22 -47 -20 -27 2 -94 -35 -94 -53 0 -10 -111
-31 -145 -27 -24 2 -30 8 -32 28 0 14 -1 31 -2 38 -1 16 -55 72 -70 72 -6 0
-16 11 -21 25 -10 26 -24 32 -35 15 -8 -13 -56 7 -73 31 -9 13 -17 17 -21 11
-4 -6 -24 -23 -45 -37 -32 -22 -44 -25 -62 -16 -17 7 -24 6 -28 -5 -7 -17 -72
-11 -124 13 -20 8 -44 12 -59 8 -20 -5 -24 -3 -20 9 3 8 0 17 -8 20 -8 3 -15
0 -17 -5 -2 -6 -20 -11 -41 -12 -29 -1 -37 -5 -37 -19 0 -10 -6 -18 -14 -18
-8 0 -16 -5 -18 -10 -6 -18 -108 38 -118 65 -5 14 -15 25 -22 25 -9 0 -8 3 2
10 11 7 12 10 2 10 -7 0 -21 -7 -29 -16 -10 -10 -25 -13 -39 -10 -13 4 -24 2
-24 -3 0 -5 8 -11 18 -13 12 -2 17 -13 17 -35 0 -41 -28 -51 -46 -16 -8 14
-18 22 -27 18 -34 -13 -54 36 -30 75 10 16 9 23 -8 42 -12 13 -24 31 -28 42
-4 13 -13 17 -30 14 -19 -4 -25 0 -29 18 -3 16 1 25 13 29 18 6 32 58 22 83
-2 8 -16 18 -29 23 -13 5 -21 13 -18 19 3 5 -1 10 -9 10 -9 0 -16 4 -16 9 0
10 -38 24 -57 22 -8 -1 -13 11 -13 34 0 19 -4 35 -10 35 -5 0 -10 8 -11 18 0
9 -14 28 -31 41 -25 20 -34 22 -49 13 -31 -20 -38 -14 -22 19 9 19 20 28 29
25 12 -5 12 -2 3 16 -10 19 -9 20 7 14 11 -5 36 -10 57 -13 35 -5 39 -4 50 26
6 17 15 31 20 31 4 0 3 10 -4 21 -8 15 -8 19 0 15 12 -8 15 13 3 30 -4 6 -16
16 -27 22 -11 6 -20 19 -20 29 0 11 -7 17 -17 17 -13 -1 -18 6 -18 27 0 15 -4
31 -10 34 -5 3 -10 15 -10 26 0 14 7 19 25 19 15 0 25 6 25 14 0 23 -17 28
-34 10 -15 -14 -19 -14 -47 0 -29 15 -33 15 -44 -1 -9 -12 -14 -13 -19 -4 -6
9 -11 9 -21 1 -7 -6 -30 -12 -51 -14 -21 -2 -41 -10 -45 -17 -3 -8 -11 -24
-18 -37 -6 -13 -9 -27 -6 -31 2 -5 -4 -11 -15 -14 -12 -3 -20 -14 -20 -25 0
-11 -14 -32 -30 -46 -32 -26 -48 -73 -35 -103 5 -10 9 -22 10 -28 6 -29 18
-55 26 -55 15 0 10 -27 -6 -34 -9 -3 -12 -12 -8 -22 5 -14 1 -16 -24 -12 -23
3 -30 1 -26 -9 5 -14 -11 -11 -54 9 -12 6 -31 8 -42 5 -25 -6 -55 35 -46 63 9
28 -35 54 -75 45 -25 -5 -35 -3 -45 12 -15 21 -65 44 -135 62 -49 13 -117 18
-125 10 -3 -3 -17 -4 -32 -2 -25 4 -28 9 -28 41 1 27 -9 51 -35 87 -31 43 -35
57 -33 97 2 38 -2 50 -17 58 -30 16 -50 13 -43 -7 5 -15 2 -15 -18 3 -13 12
-32 24 -41 27 -17 6 -24 34 -19 84 1 16 -7 27 -29 38 l-30 16 -2 -38 c0 -21
-1 -46 0 -55 1 -10 -3 -18 -8 -18 -6 0 -10 -7 -10 -15 0 -8 -5 -15 -12 -15 -9
0 -9 -3 -1 -11 9 -9 18 -8 37 5 15 9 26 12 26 6 0 -13 -30 -62 -45 -72 -16
-12 -28 -9 -22 5 3 7 -4 19 -14 25 -12 8 -19 8 -19 2 0 -15 -36 -12 -50 5 -7
8 -18 15 -24 15 -7 0 -25 14 -41 30 -16 17 -34 30 -41 30 -16 0 -23 20 -19 61
1 19 -4 44 -11 56 -14 22 -20 69 -13 88 6 15 -36 65 -53 65 -13 0 -13 -10 -6
-57z m1513 -333 c3 -5 2 -10 -4 -10 -5 0 -13 5 -16 10 -3 6 -2 10 4 10 5 0 13
-4 16 -10z m23 -96 c-4 -3 -12 5 -18 18 -12 22 -12 22 6 6 10 -10 15 -20 12
-24z m-53 -13 c-3 -5 -1 -12 5 -16 12 -7 14 -25 3 -25 -5 0 -14 4 -22 9 -12 8
-12 12 -2 25 15 17 26 22 16 7z m-1315 -435 c0 -6 -5 -18 -11 -26 -8 -12 -9
-10 -4 7 3 12 1 33 -5 45 -11 22 -10 22 4 4 9 -11 16 -25 16 -30z m-891 -418
c-12 -28 -15 -30 -53 -24 -22 4 -42 9 -44 11 -10 9 12 25 34 25 17 0 23 4 18
12 -5 7 0 9 14 6 16 -4 23 0 29 16 6 19 7 19 11 3 2 -10 -2 -32 -9 -49z m1021
-28 c0 -4 -7 -10 -15 -14 -11 -4 -15 2 -15 21 0 21 2 24 15 13 8 -7 15 -16 15
-20z m-705 9 c12 -19 -5 -23 -22 -6 -16 16 -16 17 -1 17 9 0 20 -5 23 -11z
m635 -39 c0 -5 -4 -10 -10 -10 -5 0 -10 5 -10 10 0 6 5 10 10 10 6 0 10 -4 10
-10z m-580 -32 c0 -4 -4 -8 -9 -8 -6 0 -12 4 -15 8 -3 5 1 9 9 9 8 0 15 -4 15
-9z m430 -39 c0 -5 -7 -6 -15 -3 -8 4 -15 13 -15 21 0 13 3 13 15 3 8 -7 15
-16 15 -21z m-496 -132 c16 -12 16 -14 -3 -31 -15 -14 -23 -15 -40 -6 -17 9
-19 15 -11 30 12 23 29 25 54 7z m6716 -386 c0 -11 -39 -25 -47 -18 -3 3 -2
10 2 16 8 13 45 15 45 2z m-23 -47 c-3 -3 -12 -4 -19 -1 -8 3 -5 6 6 6 11 1
17 -2 13 -5z m726 -221 c-7 -2 -19 -2 -25 0 -7 3 -2 5 12 5 14 0 19 -2 13 -5z
m-7528 -63 c3 -5 2 -10 -4 -10 -5 0 -13 5 -16 10 -3 6 -2 10 4 10 5 0 13 -4
16 -10z m55 1 c0 -5 8 -11 19 -14 12 -3 25 -23 36 -57 10 -29 26 -61 36 -71
23 -23 24 -45 3 -57 -14 -8 -14 -10 1 -25 15 -16 15 -18 -9 -27 -14 -5 -26
-14 -26 -19 0 -5 -11 -12 -25 -15 -15 -4 -25 -14 -25 -25 0 -10 -12 -23 -26
-30 -29 -13 -44 -7 -27 10 8 8 8 18 1 35 -6 13 -14 24 -17 24 -3 0 -7 25 -7
55 -1 34 2 52 8 49 6 -4 8 2 3 15 -5 17 -2 21 14 21 11 0 23 -4 26 -10 9 -15
25 -12 25 6 0 8 5 12 10 9 6 -3 10 -1 10 5 0 6 -7 13 -15 16 -8 4 -15 10 -15
16 0 5 5 6 10 3 23 -14 8 35 -17 53 -15 11 -23 24 -19 30 8 14 26 16 26 3z
m7590 -732 c0 -6 -4 -7 -10 -4 -5 3 -10 11 -10 16 0 6 5 7 10 4 6 -3 10 -11
10 -16z m-59 -21 c-20 -21 -41 -17 -41 7 0 7 10 15 23 17 34 6 39 -1 18 -24z
m1107 -1717 c3 -8 -1 -12 -9 -9 -7 2 -15 10 -17 17 -3 8 1 12 9 9 7 -2 15 -10
17 -17z m56 -176 c3 -8 1 -15 -4 -15 -6 0 -10 7 -10 15 0 8 2 15 4 15 2 0 6
-7 10 -15z m-1564 -1935 c0 -5 -2 -10 -4 -10 -3 0 -8 5 -11 10 -3 6 -1 10 4
10 6 0 11 -4 11 -10z m-322 -55 c2 -17 -2 -20 -23 -20 -35 2 -55 22 -35 35 24
16 55 7 58 -15z m-6195 -225 c6 -23 -5 -33 -27 -24 -12 5 -13 10 -5 25 13 25
25 24 32 -1z m6555 -616 c2 -1 -1 -5 -7 -8 -5 -4 -15 4 -22 16 -12 22 -11 22
7 8 10 -8 20 -15 22 -16z m-2403 -111 c0 -50 -2 -53 -35 -53 -30 0 -28 63 2
84 32 23 34 21 33 -31z m2285 -178 c0 -8 -4 -15 -10 -15 -21 0 -9 -18 18 -25
26 -8 25 -9 -18 -16 -59 -12 -71 2 -34 39 34 34 44 38 44 17z m65 -64 c-3 -6
-11 -8 -17 -5 -6 4 -5 9 3 15 16 10 23 4 14 -10z m-1050 -171 c3 -5 1 -10 -4
-10 -6 0 -11 5 -11 10 0 6 2 10 4 10 3 0 8 -4 11 -10z m905 -50 c0 -21 -18
-17 -28 6 -11 23 -10 24 8 14 11 -6 20 -15 20 -20z"/>
<path d="M5835 11980 c-3 -5 -1 -10 4 -10 6 0 11 5 11 10 0 6 -2 10 -4 10 -3
0 -8 -4 -11 -10z"/>
<path d="M10549 14115 c-18 -37 -15 -45 13 -45 19 0 25 24 9 34 -5 3 -7 15 -4
26 8 30 0 23 -18 -15z"/>
<path d="M10422 14127 c-7 -8 -7 -18 -2 -27 8 -13 10 -12 10 2 0 12 5 15 18
11 15 -6 15 -5 3 10 -16 20 -16 20 -29 4z"/>
<path d="M10480 14094 c8 -10 15 -20 16 -22 1 -1 7 6 15 15 7 10 10 15 5 11
-5 -4 -18 -2 -30 4 -20 11 -20 10 -6 -8z"/>
<path d="M5675 13470 c3 -5 11 -10 16 -10 6 0 7 5 4 10 -3 6 -11 10 -16 10 -6
0 -7 -4 -4 -10z"/>
<path d="M5630 13440 c0 -5 5 -12 10 -15 6 -4 8 -11 5 -16 -4 -5 -1 -9 4 -9 6
0 11 5 11 11 0 5 4 8 8 5 4 -2 8 3 8 12 0 11 -9 18 -23 18 -13 1 -23 -2 -23
-6z"/>
<path d="M4655 13410 c-3 -6 1 -7 9 -4 18 7 21 14 7 14 -6 0 -13 -4 -16 -10z"/>
<path d="M4710 13405 c0 -16 16 -20 24 -6 3 5 -1 11 -9 15 -9 3 -15 0 -15 -9z"/>
<path d="M4670 13396 c0 -2 7 -6 15 -10 8 -3 15 -1 15 4 0 6 -7 10 -15 10 -8
0 -15 -2 -15 -4z"/>
<path d="M4556 13336 c3 -8 12 -17 21 -20 11 -5 13 -2 9 10 -3 8 -6 18 -6 20
0 2 -7 4 -15 4 -8 0 -12 -6 -9 -14z"/>
<path d="M13615 13250 c3 -5 8 -10 11 -10 2 0 4 5 4 10 0 6 -5 10 -11 10 -5 0
-7 -4 -4 -10z"/>
<path d="M13445 13219 c-4 -10 -13 -19 -21 -19 -12 0 -13 -4 -3 -21 9 -18 7
-27 -10 -50 -11 -15 -18 -35 -15 -43 4 -11 0 -16 -15 -16 -15 0 -19 -4 -14
-16 3 -9 0 -20 -8 -25 -20 -13 5 -28 35 -22 56 13 86 26 86 38 0 14 43 29 75
26 28 -2 46 32 52 99 6 60 -11 93 -23 45 -3 -13 -10 -22 -15 -19 -5 3 -9 1 -9
-5 0 -10 -30 -4 -40 8 -3 3 -19 14 -37 23 -31 16 -32 16 -38 -3z"/>
<path d="M13231 12474 c0 -11 3 -14 6 -6 3 7 2 16 -1 19 -3 4 -6 -2 -5 -13z"/>
<path d="M13017 12435 c-7 -16 4 -25 50 -41 28 -10 32 -9 37 10 4 13 -1 26
-11 34 -23 17 -70 15 -76 -3z"/>
<path d="M13135 12421 c-3 -5 4 -13 16 -16 23 -8 34 -1 24 14 -8 13 -32 14
-40 2z"/>
<path d="M13570 12135 c0 -9 5 -15 11 -13 6 2 11 8 11 13 0 5 -5 11 -11 13 -6
2 -11 -4 -11 -13z"/>
<path d="M14750 10015 c0 -8 4 -15 9 -15 5 0 8 -7 7 -16 -2 -28 23 -27 36 1
10 22 9 28 -3 36 -22 14 -49 11 -49 -6z"/>
<path d="M14546 9812 c6 -4 14 -17 18 -29 8 -26 19 -29 35 -9 9 10 6 17 -13
30 -14 9 -31 16 -38 16 -9 0 -10 -3 -2 -8z"/>
<path d="M14650 9681 c0 -6 4 -12 8 -15 5 -3 9 1 9 9 0 8 -4 15 -9 15 -4 0 -8
-4 -8 -9z"/>
<path d="M15190 8869 c12 -21 37 -35 46 -26 11 11 -17 47 -37 47 -17 0 -18 -3
-9 -21z"/>
<path d="M11507 7126 c-3 -6 4 -13 14 -13 22 -2 25 12 5 20 -8 3 -16 0 -19 -7z"/>
<path d="M13365 6240 c-4 -6 -10 -8 -15 -5 -5 3 -11 1 -14 -4 -3 -5 10 -11 28
-13 31 -3 33 -2 25 14 -11 21 -15 22 -24 8z"/>
<path d="M13450 6240 c0 -5 5 -10 10 -10 6 0 10 5 10 10 0 6 -4 10 -10 10 -5
0 -10 -4 -10 -10z"/>
<path d="M13420 6221 c0 -6 5 -13 10 -16 6 -3 10 1 10 9 0 9 -4 16 -10 16 -5
0 -10 -4 -10 -9z"/>
<path d="M12900 6115 c0 -8 2 -15 4 -15 2 0 6 7 10 15 3 8 1 15 -4 15 -6 0
-10 -7 -10 -15z"/>
<path d="M10902 5929 c-12 -9 -22 -22 -22 -27 0 -6 -12 -13 -27 -16 -22 -5
-28 -13 -30 -34 -2 -42 50 -61 60 -22 3 12 14 20 25 20 19 0 62 47 62 67 0 4
-11 13 -24 19 -18 8 -27 7 -44 -7z"/>
</g>
</svg>
