<?xml version="1.0" standalone="no"?>
<!DOCTYPE svg PUBLIC "-//W3C//DTD SVG 20010904//EN"
 "http://www.w3.org/TR/2001/REC-SVG-20010904/DTD/svg10.dtd">
<svg version="1.0" xmlns="http://www.w3.org/2000/svg"
 width="1028.370154pt" height="1080.000000pt" viewBox="0 0 1028.370154 1080.000000"
 preserveAspectRatio="xMidYMid meet">
<metadata>
Created by potrace 1.15, written by Peter Selinger 2001-2017
</metadata>
<g transform="translate(-508.331062,1585.000000) scale(0.100000,-0.100000)"
fill="#222222" stroke="none">
<path d="M8985 15840 c3 -5 8 -10 11 -10 2 0 4 5 4 10 0 6 -5 10 -11 10 -5 0
-7 -4 -4 -10z"/>
<path d="M9047 15810 c-6 -23 -27 -27 -27 -5 0 22 -9 18 -34 -12 -38 -49 -49
-102 -29 -138 6 -11 14 -36 18 -55 11 -59 16 -70 30 -70 7 0 22 -11 32 -25 20
-28 30 -24 55 20 11 21 14 36 7 47 -7 13 -4 20 11 28 20 11 20 11 -5 44 -14
18 -25 38 -25 44 0 7 -6 12 -12 12 -8 1 -5 8 7 18 25 22 29 46 10 62 -8 7 -15
18 -15 26 0 22 -17 25 -23 4z"/>
<path d="M8980 15487 c0 -3 7 -18 15 -33 21 -40 19 -57 -5 -51 -21 5 -29 -8
-22 -35 6 -26 19 -22 37 12 9 17 24 30 34 30 28 0 34 45 7 59 -27 13 -66 24
-66 18z"/>
<path d="M8810 15335 c-7 -8 -21 -15 -30 -15 -35 0 -45 -10 -43 -43 1 -17 2
-40 2 -50 1 -22 40 -38 63 -26 9 5 18 19 21 31 3 21 4 22 12 4 6 -13 3 -22 -8
-31 -9 -7 -14 -15 -10 -18 3 -4 0 -13 -7 -22 -8 -10 -9 -15 -1 -15 6 0 11 -11
11 -24 0 -13 6 -26 13 -29 9 -3 9 -11 0 -35 -8 -23 -8 -34 -1 -39 6 -3 8 -2 5
4 -4 6 5 15 19 22 24 11 29 39 5 34 -16 -4 -14 17 3 23 8 3 22 21 31 40 12 26
21 33 35 29 25 -8 36 26 14 42 -16 12 -17 13 -1 13 11 0 17 8 17 25 0 26 15
34 23 13 2 -7 8 -9 13 -5 11 11 -10 42 -29 42 -9 0 -19 4 -23 8 -4 4 -14 7
-22 7 -8 0 -21 8 -28 18 -13 16 -13 16 -14 0 0 -22 -18 -23 -40 -3 -15 14 -18
14 -30 0z"/>
<path d="M8976 15243 c-9 -9 -7 -33 3 -33 12 0 22 28 12 34 -5 3 -11 3 -15 -1z"/>
<path d="M8967 15158 c-9 -20 -11 -38 -5 -44 5 -7 3 -14 -6 -17 -9 -4 -22 -22
-30 -41 -8 -19 -24 -41 -35 -48 -15 -9 -17 -16 -9 -25 11 -14 -19 -103 -35
-103 -5 0 -6 -13 -2 -29 5 -23 -1 -39 -27 -76 -30 -42 -36 -46 -64 -40 -37 6
-67 -3 -57 -18 3 -5 6 -24 5 -41 -1 -17 3 -38 8 -45 6 -10 3 -19 -8 -27 -18
-13 -31 -142 -15 -153 6 -3 13 -22 17 -42 6 -34 4 -37 -24 -49 -16 -7 -30 -19
-30 -27 0 -8 -6 -27 -14 -41 -8 -15 -20 -42 -26 -60 -8 -20 -21 -34 -36 -38
-13 -3 -24 -12 -24 -20 0 -7 -13 -21 -30 -30 -22 -14 -32 -29 -40 -67 -17 -80
-36 -104 -79 -102 -22 2 -46 -4 -63 -16 -14 -11 -35 -19 -47 -19 -13 0 -19 -5
-15 -14 5 -14 -22 -30 -36 -21 -5 3 -14 -11 -20 -30 -6 -19 -15 -35 -20 -35
-14 0 -60 -50 -60 -65 0 -25 -12 -45 -27 -45 -8 0 -12 -4 -9 -8 3 -5 -4 -16
-14 -25 -12 -10 -17 -23 -13 -33 4 -12 3 -15 -5 -10 -7 4 -12 1 -12 -8 0 -9
-6 -16 -13 -16 -14 0 -63 -60 -60 -72 2 -3 -16 -9 -38 -13 -30 -5 -37 -10 -30
-19 8 -9 6 -18 -3 -32 -10 -13 -11 -24 -4 -37 12 -22 -16 -59 -38 -50 -8 3
-14 -1 -14 -11 0 -18 -38 -36 -86 -40 -17 -2 -36 -6 -43 -10 -6 -4 -14 0 -17
8 -3 9 -16 16 -29 16 -12 0 -28 7 -35 15 -17 21 -54 20 -46 -1 5 -13 2 -15
-15 -11 -12 3 -31 1 -41 -4 -14 -7 -23 -7 -33 1 -11 9 -18 8 -30 -4 -9 -9 -20
-16 -25 -16 -12 0 -1 -30 20 -55 44 -50 69 -128 49 -151 -7 -9 -7 -19 -1 -31
13 -24 -4 -47 -40 -57 -18 -4 -28 -13 -28 -25 0 -28 -11 -52 -21 -46 -4 3 -17
0 -28 -7 -16 -9 -23 -9 -37 3 -13 11 -18 11 -22 1 -2 -7 -10 -18 -17 -26 -8
-7 -12 -16 -9 -19 3 -3 -4 -15 -15 -26 -19 -19 -24 -19 -63 -7 -24 7 -60 11
-81 8 -31 -4 -37 -8 -37 -29 0 -14 -5 -23 -12 -21 -19 3 -58 -12 -58 -23 0 -5
-8 -9 -17 -9 -17 -1 -17 -1 0 -14 9 -7 17 -19 17 -25 0 -7 8 -20 17 -29 16
-16 14 -17 -21 -20 -29 -3 -35 -6 -27 -16 8 -9 1 -23 -25 -52 -20 -21 -44 -50
-52 -63 -9 -13 -36 -32 -61 -43 -25 -11 -53 -26 -63 -34 -20 -19 -37 -10 -113
62 l-50 46 0 72 c0 68 -1 71 -25 74 -13 2 -45 21 -70 42 -48 40 -100 57 -100
34 0 -8 -11 -14 -25 -14 -14 0 -25 -5 -25 -11 0 -5 -4 -7 -10 -4 -5 3 -7 0 -4
-8 3 -9 -6 -17 -27 -23 -29 -8 -37 -6 -63 19 -17 15 -31 31 -31 35 -1 17 -38
60 -56 65 -16 4 -19 2 -14 -14 4 -11 8 -38 10 -60 1 -21 8 -46 15 -54 10 -12
9 -16 -3 -21 -13 -5 -15 -18 -13 -66 3 -42 0 -61 -9 -64 -7 -3 -11 -14 -8 -25
4 -12 1 -19 -6 -17 -10 3 -28 -22 -51 -72 -4 -8 -17 -16 -29 -18 -20 -3 -22
-8 -19 -50 4 -54 44 -148 66 -157 19 -7 52 23 45 41 -9 25 78 5 100 -23 10
-12 25 -23 32 -23 8 0 17 -5 21 -12 4 -6 3 -8 -4 -4 -5 3 -19 -6 -29 -20 -24
-32 -48 -27 -95 19 l-31 32 6 -37 c5 -34 3 -39 -21 -50 -18 -9 -28 -22 -30
-41 -2 -15 -8 -27 -13 -27 -7 0 -8 -12 -4 -31 5 -21 2 -36 -8 -47 -8 -9 -18
-41 -22 -69 -6 -44 -13 -58 -43 -85 -21 -17 -36 -38 -34 -45 5 -21 -25 -56
-50 -60 -13 -2 -28 -10 -34 -18 -6 -8 -17 -15 -24 -15 -8 0 -10 -7 -5 -22 14
-45 18 -139 6 -151 -6 -6 -11 -19 -11 -29 0 -10 -4 -18 -9 -18 -5 0 -8 -25 -6
-55 2 -42 -1 -55 -11 -55 -8 0 -14 -9 -14 -20 0 -11 -4 -20 -9 -20 -13 0 -20
-49 -8 -57 5 -3 3 -10 -7 -15 -9 -5 -16 -16 -16 -25 0 -15 -49 -60 -62 -56 -4
2 -7 -19 -6 -46 0 -44 3 -52 36 -78 77 -60 88 -64 119 -48 15 8 36 15 46 15
27 0 57 19 57 35 0 23 24 18 55 -11 21 -19 25 -28 16 -34 -10 -6 -10 -13 -2
-28 8 -16 7 -21 -5 -26 -15 -6 -14 -17 4 -65 4 -10 0 -13 -16 -9 -12 4 -22 2
-22 -4 0 -5 -5 -6 -11 -2 -8 4 -8 0 0 -15 7 -11 16 -21 21 -21 5 0 12 -9 15
-20 8 -26 25 -26 25 0 0 10 9 24 20 30 11 6 20 20 20 31 0 20 4 23 53 34 24 5
30 2 34 -15 4 -14 8 -18 13 -10 5 8 18 1 41 -22 19 -19 41 -37 50 -40 22 -8
13 -65 -12 -81 -11 -7 -19 -22 -19 -34 0 -18 -6 -23 -24 -23 -14 0 -31 7 -40
15 -20 20 -29 19 -21 -4 3 -10 -1 -24 -10 -31 -8 -7 -15 -19 -15 -27 0 -10 -6
-12 -20 -8 -12 4 -20 2 -20 -5 0 -6 -4 -9 -9 -6 -5 3 -2 -13 6 -37 8 -23 12
-54 9 -68 -3 -14 0 -31 7 -38 8 -8 7 -11 -7 -11 -9 0 -14 -5 -11 -10 4 -6 24
-9 46 -6 21 2 39 0 39 -5 0 -4 6 -6 14 -3 9 3 19 -4 26 -17 11 -19 10 -21 -4
-16 -10 4 -16 1 -16 -9 0 -10 -7 -13 -22 -9 -30 8 -53 -26 -38 -55 6 -11 7
-20 3 -20 -4 0 2 -6 12 -14 15 -11 17 -17 7 -28 -6 -8 -9 -17 -6 -21 3 -3 -3
-10 -13 -15 -13 -7 -24 -6 -37 3 -14 11 -24 11 -42 3 -18 -9 -28 -8 -36 0 -16
16 -45 15 -51 -2 -3 -7 0 -19 6 -25 8 -8 1 -15 -26 -26 -20 -8 -43 -15 -51
-15 -8 0 -23 -16 -35 -35 -15 -25 -27 -35 -46 -35 -16 0 -25 -6 -25 -16 0 -11
-6 -14 -20 -9 -12 4 -20 2 -20 -5 0 -6 -5 -8 -10 -5 -6 4 -17 1 -25 -5 -12
-10 -15 -10 -15 1 -1 10 -4 9 -14 -3 -7 -10 -23 -18 -35 -18 -18 0 -21 -5 -19
-27 3 -25 -1 -28 -29 -31 -25 -2 -33 -8 -33 -22 0 -10 -5 -22 -10 -25 -6 -4
-9 -14 -8 -23 2 -9 -6 -21 -18 -27 -11 -5 -19 -16 -16 -23 3 -10 -4 -13 -24
-10 -32 3 -34 -6 -13 -59 15 -36 3 -58 -38 -74 -16 -6 -23 -17 -23 -34 0 -14
-5 -25 -11 -25 -5 0 -8 -4 -4 -9 3 -5 1 -13 -5 -16 -8 -5 -8 -11 0 -20 12 -15
4 -55 -13 -66 -5 -4 -27 -4 -49 -1 -39 5 -40 4 -38 -24 3 -47 1 -51 -30 -64
-24 -10 -30 -19 -30 -42 0 -24 -6 -32 -30 -41 -37 -14 -37 -20 0 -47 16 -12
29 -24 28 -28 -6 -24 52 -100 117 -153 41 -34 75 -65 75 -68 0 -3 11 -11 25
-18 14 -6 25 -7 25 -2 0 6 6 9 13 8 6 -1 20 1 31 6 11 5 28 2 45 -7 41 -24
126 -32 144 -13 14 13 16 13 22 -5 4 -14 15 -20 34 -20 34 0 51 -17 51 -51 0
-27 2 -29 87 -57 18 -5 35 -7 38 -2 10 16 65 19 92 5 25 -13 29 -13 39 0 6 8
16 15 23 15 6 0 11 5 11 10 0 6 11 10 25 10 13 0 35 12 49 27 21 23 27 25 41
13 9 -8 15 -21 12 -30 -2 -8 2 -21 10 -28 7 -7 13 -24 13 -37 0 -16 6 -25 15
-25 17 0 21 -35 5 -45 -16 -10 -12 -22 13 -47 13 -13 30 -42 37 -65 7 -24 17
-43 21 -43 4 0 15 -23 24 -51 10 -28 24 -53 32 -56 10 -4 13 -14 10 -32 -8
-39 2 -48 60 -56 29 -4 57 -13 64 -21 6 -7 15 -11 20 -8 17 10 49 -7 49 -27 0
-10 8 -28 18 -40 67 -82 97 -115 113 -121 11 -4 19 -16 19 -26 0 -15 5 -18 26
-14 29 5 74 -15 74 -35 0 -7 9 -13 20 -13 10 0 23 -8 28 -17 5 -9 20 -17 33
-19 43 -4 103 -31 110 -50 6 -18 7 -18 14 -1 9 22 58 23 76 1 24 -29 55 -34
96 -18 21 9 41 21 44 26 4 6 27 -1 57 -16 28 -14 58 -26 67 -26 9 0 28 -6 43
-14 15 -7 43 -11 62 -9 31 4 35 8 34 31 -1 15 -3 32 -3 39 -1 6 -9 9 -20 6
-22 -6 -36 23 -21 42 8 10 5 22 -9 46 l-20 32 37 28 c20 15 41 25 46 22 11 -7
-1 15 -21 39 -14 15 -10 19 36 42 44 23 89 27 77 7 -3 -3 13 -17 35 -29 21
-12 39 -18 39 -12 0 18 36 10 58 -13 12 -13 22 -28 22 -33 0 -5 16 -9 35 -9
25 1 36 -3 40 -16 6 -17 40 -35 58 -31 9 2 9 -30 1 -52 -3 -9 -13 -16 -21 -16
-11 0 -8 -6 8 -19 l23 -18 -30 -16 c-41 -23 -13 -21 33 2 42 20 84 21 106 2
10 -8 17 -9 22 -1 11 18 35 11 63 -20 25 -27 31 -29 61 -20 18 5 39 14 47 20
7 7 19 8 26 3 7 -4 29 -9 48 -9 55 -3 90 -15 115 -40 13 -13 34 -24 47 -25 13
0 39 -2 58 -5 19 -2 47 -5 62 -7 15 -1 36 -9 46 -18 12 -10 25 -13 39 -8 26 9
63 -25 46 -42 -7 -7 -1 -19 19 -40 16 -16 33 -27 37 -24 5 2 16 -13 25 -33 14
-31 27 -42 68 -58 27 -10 55 -28 60 -39 6 -11 14 -22 18 -25 3 -3 12 -31 19
-63 13 -58 47 -147 61 -157 4 -3 12 -15 19 -28 10 -20 9 -27 -13 -53 -17 -20
-26 -43 -26 -66 0 -27 -3 -34 -15 -29 -11 4 -15 -1 -15 -19 0 -18 -9 -29 -32
-41 -42 -21 -40 -18 -32 -37 3 -9 12 -13 20 -10 10 4 14 -3 14 -21 0 -30 -8
-33 -25 -9 -7 10 -14 12 -18 6 -4 -6 7 -24 23 -42 33 -34 35 -44 19 -89 -9
-25 -7 -39 9 -75 13 -28 16 -49 11 -54 -11 -11 3 -57 20 -68 8 -4 8 -12 1 -25
-8 -15 -6 -20 8 -25 11 -3 24 -17 30 -31 7 -14 26 -31 43 -38 17 -7 36 -24 43
-37 6 -13 20 -24 31 -24 11 0 19 -6 17 -13 -1 -6 16 -29 38 -51 39 -38 52 -75
28 -83 -8 -3 -6 -13 5 -34 9 -16 21 -41 28 -56 6 -16 15 -25 21 -22 13 8 59
-16 52 -28 -3 -4 2 -8 10 -8 9 0 16 7 16 15 0 8 7 15 15 15 8 0 18 12 21 26 5
19 1 29 -15 40 -11 8 -21 22 -21 30 0 18 -24 18 -40 -1 -9 -11 -15 -12 -25 -2
-10 9 -10 16 2 34 18 27 36 29 58 7 12 -12 19 -13 30 -4 12 10 11 17 -6 46
-18 32 -18 36 -3 59 12 18 13 29 6 38 -7 8 -8 25 -3 43 6 24 3 34 -21 57 -28
28 -39 55 -16 41 6 -4 21 -8 32 -9 19 -2 21 3 22 46 1 56 24 90 55 82 13 -4
19 -1 17 8 -2 10 7 14 30 13 18 -1 32 3 32 10 0 6 10 -4 22 -23 15 -23 18 -36
11 -38 -19 -7 -4 -31 32 -52 35 -20 70 -18 135 9 32 13 47 50 25 63 -17 9 -21
57 -5 57 6 0 10 -4 10 -10 0 -5 7 -10 15 -10 9 0 21 -12 28 -27 6 -16 17 -32
24 -38 15 -13 20 -46 9 -64 -7 -10 -2 -21 16 -35 33 -27 46 -54 43 -91 -2 -35
18 -80 39 -88 9 -4 13 -13 10 -21 -3 -8 5 -34 17 -58 17 -31 24 -38 27 -25 2
10 -5 33 -16 51 -26 44 -30 186 -5 186 9 0 13 6 9 15 -6 18 41 45 79 45 14 0
25 5 25 11 0 5 5 7 11 4 5 -4 15 7 22 24 8 21 22 35 44 43 27 10 31 16 27 35
-4 13 0 33 9 47 17 25 7 46 -23 46 -9 0 -5 6 10 13 18 10 24 20 23 40 -1 15 2
27 6 27 12 0 31 -23 31 -38 0 -8 9 -21 19 -30 11 -10 21 -33 23 -52 3 -37 -4
-40 -47 -25 -20 7 -20 6 -1 -9 11 -9 17 -16 13 -16 -4 0 -3 -9 3 -20 8 -16 6
-26 -12 -50 -12 -16 -28 -30 -35 -30 -15 0 -18 -36 -4 -44 16 -10 24 -78 10
-87 -13 -8 -16 -73 -4 -102 4 -10 3 -23 -3 -29 -8 -8 -8 -17 0 -31 7 -13 7
-22 0 -26 -17 -10 -24 -55 -12 -85 8 -21 7 -32 -1 -42 -6 -8 -7 -14 -2 -14 5
0 10 -6 10 -12 0 -7 3 -30 7 -50 4 -21 2 -39 -3 -43 -6 -3 -8 -12 -5 -20 3 -7
0 -24 -6 -36 -11 -19 -10 -25 6 -36 13 -10 20 -10 25 -1 13 21 38 -11 37 -48
-1 -23 -7 -35 -20 -39 -23 -8 -38 2 -38 24 0 13 -9 20 -30 23 -16 2 -31 0 -33
-5 -1 -5 -15 -10 -30 -10 -15 -1 -27 -2 -27 -3 0 -1 5 -15 11 -32 9 -25 21
-35 60 -49 29 -11 52 -25 55 -37 5 -15 8 -16 15 -5 10 17 12 15 43 -53 13 -32
30 -58 35 -58 6 0 11 -6 11 -14 0 -16 62 -66 82 -66 7 0 27 -9 43 -20 17 -11
38 -20 48 -20 9 0 17 -4 17 -10 0 -6 29 -10 66 -10 48 0 73 -5 92 -18 40 -28
72 -33 105 -16 23 12 28 21 24 40 -5 29 4 31 27 5 10 -11 31 -25 47 -31 16 -7
29 -18 29 -24 0 -6 16 -22 35 -36 19 -14 39 -38 45 -55 11 -31 90 -105 90 -84
0 7 8 5 20 -6 11 -10 20 -25 20 -33 0 -9 3 -12 7 -9 3 4 21 -4 39 -18 18 -14
37 -25 43 -25 6 0 11 -4 11 -9 0 -6 21 -13 46 -17 32 -4 48 -12 51 -24 3 -10
14 -22 26 -28 12 -6 16 -11 9 -11 -10 -1 -10 -6 -2 -21 14 -26 9 -52 -12 -68
-10 -7 -18 -17 -18 -23 0 -14 -37 -48 -45 -41 -3 4 -3 -1 1 -11 7 -20 25 -22
42 -5 19 19 36 -5 51 -71 9 -40 22 -68 40 -84 14 -14 34 -37 44 -51 15 -22 20
-24 42 -14 14 6 25 14 25 18 0 4 12 5 26 2 23 -4 25 -2 19 17 -9 30 3 26 15
-4 5 -14 16 -25 24 -25 7 0 19 -7 26 -15 7 -8 16 -15 20 -15 7 0 4 60 -5 87
-5 15 23 26 63 24 38 -3 45 21 11 39 -11 6 -18 17 -16 23 2 7 0 21 -6 32 -6
11 -11 31 -11 44 -1 18 -10 27 -36 37 -19 6 -45 10 -57 7 -18 -4 -23 -1 -23
15 0 12 9 23 20 27 11 3 20 15 20 25 0 21 38 33 74 24 20 -5 27 2 51 43 16 26
31 50 35 53 4 3 15 21 25 40 10 19 31 47 48 61 33 28 33 64 0 52 -14 -5 -16
-3 -6 7 6 7 9 18 7 25 -3 7 -1 16 5 20 6 3 11 16 11 28 0 16 3 18 12 9 18 -18
25 -15 30 13 3 16 1 22 -6 18 -24 -16 -54 -11 -64 10 l-11 22 0 -22 c-1 -25
-12 -34 -55 -43 -18 -3 -31 -12 -31 -20 0 -23 -54 -65 -67 -52 -6 6 -16 8 -23
6 -12 -5 -65 49 -65 67 0 5 16 9 35 9 21 0 35 5 36 13 0 6 2 20 4 29 2 10 -1
20 -6 24 -12 7 -11 24 1 24 33 0 73 76 49 91 -12 8 -11 11 1 19 8 5 11 10 5
10 -5 1 1 5 13 11 23 9 26 36 3 31 -12 -2 -13 4 -16 53 -1 32 9 47 38 58 9 3
16 10 16 14 -1 4 1 16 6 26 4 9 5 26 2 37 -3 13 0 20 9 20 18 0 8 28 -24 62
-13 14 -21 31 -17 38 4 6 2 17 -4 24 -12 14 -4 73 10 82 5 3 2 15 -6 27 -17
25 -20 41 -4 32 10 -7 43 25 52 48 3 9 8 9 18 0 17 -17 69 -17 70 0 1 6 1 20
0 30 -1 9 4 17 13 17 9 0 16 8 16 18 0 11 6 7 20 -15 21 -34 53 -57 65 -45 5
4 4 0 -1 -8 -5 -8 -7 -23 -6 -32 4 -22 -7 -23 -44 -3 -34 18 -45 3 -18 -26 14
-16 15 -25 7 -52 -9 -31 -8 -35 18 -50 27 -15 29 -15 29 1 0 24 19 42 36 35
10 -4 14 3 15 23 0 27 1 27 9 7 5 -12 18 -27 30 -33 12 -6 19 -17 16 -25 -7
-19 36 -28 47 -9 4 8 13 11 19 8 7 -5 9 -2 5 9 -3 8 1 21 9 27 8 7 14 9 14 5
0 -5 9 0 20 10 19 17 21 17 41 -1 21 -19 22 -19 15 2 -4 12 -1 33 5 48 11 24
13 24 25 8 7 -9 14 -13 14 -8 0 4 11 1 25 -8 14 -9 25 -12 25 -6 0 14 50 2 72
-17 9 -9 25 -12 36 -8 11 3 23 2 25 -2 3 -4 27 -6 55 -5 40 3 52 8 62 28 8 13
21 24 31 24 10 0 24 7 32 15 8 7 26 17 40 20 16 4 37 25 56 57 l32 51 67 -6
c62 -5 69 -3 109 26 24 17 43 36 43 44 0 8 11 13 28 13 22 0 34 9 54 40 16 24
24 47 21 60 -5 17 -1 20 29 20 25 0 43 9 65 31 28 26 34 29 52 17 16 -10 23
-10 33 0 6 6 20 12 29 12 14 0 16 8 11 48 -5 47 -5 47 16 29 13 -12 22 -15 27
-8 3 6 15 11 26 11 11 0 22 7 26 16 3 9 13 14 23 11 16 -4 25 10 44 67 6 19 7
19 20 0 8 -10 12 -23 9 -28 -9 -14 25 -35 47 -29 11 3 17 9 14 14 -3 5 -1 9 5
9 5 0 13 -9 16 -20 3 -11 10 -20 15 -20 5 0 7 -6 4 -14 -3 -7 1 -16 9 -19 22
-8 57 3 57 19 0 8 6 14 13 14 6 0 20 18 29 40 15 36 20 40 42 34 21 -5 26 -3
26 14 0 19 32 58 78 94 12 10 24 30 28 45 12 55 12 56 47 49 27 -5 39 -1 61
19 17 16 39 25 59 25 23 0 46 12 81 40 26 22 58 40 70 40 12 0 29 8 38 18 37
38 42 40 66 24 22 -14 22 -14 22 29 0 33 5 47 19 56 13 8 18 19 14 33 -4 14
-1 20 12 20 13 0 15 6 10 28 -4 19 -1 33 9 41 7 6 12 20 9 30 -3 10 0 22 6 25
6 4 11 16 11 27 0 19 37 80 53 87 12 6 8 39 -14 94 -11 29 -23 64 -25 78 -2
14 -7 40 -10 58 -5 26 -3 32 12 32 9 0 25 -7 35 -16 16 -14 18 -13 24 15 5 22
12 31 26 31 19 0 19 2 5 22 -9 13 -13 31 -10 45 4 16 0 31 -12 44 -19 21 -27
59 -12 59 15 0 -9 33 -26 37 -9 2 -22 4 -30 6 -41 9 -139 117 -106 117 6 0 8
5 5 10 -3 6 1 10 9 10 21 0 20 7 -3 36 -16 21 -18 30 -9 62 6 20 14 44 19 53
5 9 4 31 -1 49 -8 27 -6 36 7 45 14 11 13 17 -17 59 -28 41 -36 47 -60 44 -31
-5 -40 10 -40 64 0 15 -4 29 -10 33 -5 3 -7 12 -4 19 3 8 -6 25 -20 39 -14 15
-26 30 -26 35 0 13 41 23 67 16 46 -12 163 48 163 85 0 8 6 11 16 7 9 -4 23
-1 32 6 18 15 96 37 135 38 16 0 26 4 22 10 -3 6 -1 10 4 10 6 0 11 14 11 30
0 23 4 30 20 30 13 0 20 7 20 18 0 10 5 23 12 30 7 7 13 22 13 35 0 19 6 22
50 25 27 2 53 9 57 15 10 16 -22 27 -44 15 -15 -7 -18 -4 -18 15 0 26 21 37
73 37 15 0 27 4 27 9 0 6 9 8 20 6 23 -4 26 5 8 23 -9 9 -7 12 10 12 12 0 22
6 22 13 0 8 11 24 25 37 14 13 25 29 25 37 0 14 16 16 73 7 20 -4 37 -11 37
-16 0 -5 7 -16 15 -24 8 -9 15 -13 15 -10 0 3 16 -2 36 -10 26 -11 39 -12 49
-4 7 6 21 7 30 3 14 -5 16 -3 10 7 -6 10 -4 12 8 7 10 -3 17 -2 17 4 0 6 4 8
9 5 5 -3 11 8 15 25 7 35 -10 73 -48 109 -15 13 -31 43 -37 66 -7 28 -19 45
-34 52 -17 8 -22 17 -18 31 3 13 1 21 -7 21 -7 0 -10 7 -6 16 4 10 -3 25 -16
39 -13 13 -30 33 -39 46 l-16 23 -30 -22 c-37 -27 -39 -27 -47 -4 -6 16 -18
37 -60 96 -14 20 -16 30 -7 39 6 6 11 24 11 39 0 15 4 28 9 28 5 0 21 4 34 9
23 9 24 13 17 53 -5 25 -4 48 1 55 7 7 6 14 -1 18 -6 4 -9 13 -6 21 3 8 1 14
-4 14 -6 0 -10 7 -10 16 0 10 6 14 14 11 20 -8 39 16 24 31 -8 8 -6 15 6 27
19 20 19 18 2 86 -8 31 -15 65 -16 75 -1 45 -5 62 -12 58 -4 -3 -8 1 -8 9 0 8
8 17 18 19 31 8 17 75 -19 94 -16 8 -39 12 -51 9 -17 -4 -31 2 -51 24 -15 17
-43 33 -62 37 -37 7 -48 23 -39 60 7 25 -18 64 -40 64 -6 0 -24 14 -40 30 -16
17 -33 30 -37 30 -4 0 -9 17 -12 38 -3 20 -12 59 -19 86 -14 48 -21 54 -90 87
-16 7 -28 20 -28 29 0 10 -8 28 -18 41 -29 38 -100 161 -117 201 -16 40 -55
71 -55 45 0 -20 -58 -17 -70 3 -13 21 -12 26 6 44 13 13 14 22 4 50 -13 41
-30 56 -64 60 -14 1 -29 6 -34 10 -7 7 -8 11 -11 37 -1 8 -15 10 -41 6 -31 -4
-42 -1 -50 11 -9 16 -9 16 -10 0 0 -10 -7 -18 -15 -18 -7 0 -18 -6 -22 -13
-12 -21 -40 -27 -52 -13 -6 8 -28 16 -49 19 -22 4 -42 15 -50 27 -14 23 -37
26 -45 6 -5 -13 -28 -15 -57 -4 -42 17 -79 16 -102 -1 -13 -10 -35 -21 -50
-24 -15 -4 -30 -16 -33 -28 -6 -18 -12 -20 -40 -15 -28 6 -35 3 -40 -14 -3
-11 -18 -22 -33 -25 -15 -4 -41 -13 -58 -21 -23 -12 -36 -13 -58 -4 -24 9 -32
7 -48 -7 -12 -11 -36 -18 -64 -18 -38 0 -47 -4 -63 -30 -26 -44 -64 -65 -114
-65 -51 0 -60 -6 -46 -31 7 -15 6 -21 -6 -25 -8 -4 -18 -24 -21 -45 -6 -33
-10 -38 -25 -34 -12 4 -21 1 -25 -10 -4 -10 -13 -13 -24 -10 -22 7 -88 -26
-83 -41 3 -10 -11 -11 -51 -5 -5 0 -3 8 4 16 10 12 10 19 2 27 -7 7 -12 8 -12
3 0 -6 -5 -3 -10 5 -8 12 -12 13 -19 1 -12 -18 -53 3 -45 24 4 8 -1 18 -10 21
-9 3 -16 16 -16 28 0 12 -4 26 -9 32 -5 5 -11 20 -13 33 -3 22 -5 23 -18 9
-11 -11 -22 -13 -39 -6 -20 7 -23 13 -17 41 3 17 13 37 22 44 27 20 -2 83 -38
83 -11 0 -22 9 -25 20 -3 11 -10 20 -15 20 -5 0 -27 20 -49 44 -27 29 -52 46
-74 50 -19 4 -41 17 -50 29 -8 12 -15 16 -15 9 0 -8 -8 -10 -25 -6 -16 4 -25
2 -25 -5 0 -7 -10 -9 -25 -6 -14 3 -36 7 -49 10 -14 3 -28 14 -31 25 -4 14
-15 20 -34 20 -16 0 -34 6 -40 14 -6 8 -25 19 -40 26 -17 7 -32 22 -35 36 -4
15 -19 29 -41 38 -19 8 -35 19 -35 24 0 5 -12 15 -27 23 -16 7 -41 24 -57 37
-16 13 -35 21 -43 18 -8 -3 -27 1 -43 9 -22 11 -29 12 -33 2 -5 -15 -41 25
-58 66 -6 15 -16 27 -21 27 -7 0 -8 15 -4 39 5 35 3 42 -24 64 -17 14 -30 35
-30 47 0 40 -31 95 -79 140 -34 31 -54 61 -67 98 -10 28 -25 52 -32 52 -7 0
-33 21 -58 46 -36 37 -49 45 -69 40 -14 -4 -27 -1 -32 7 -4 7 -20 18 -35 24
-16 7 -28 19 -28 26 0 8 -9 22 -20 32 -11 10 -20 23 -20 30 0 7 -18 20 -40 30
-21 10 -55 35 -74 56 -19 22 -43 39 -53 39 -18 0 -53 32 -53 48 0 9 -49 32
-68 32 -7 0 -11 -4 -8 -9 3 -4 -1 -17 -9 -27 -13 -18 -14 -18 -20 -1 -4 9 -15
17 -25 17 -11 0 -22 5 -25 10 -3 6 -17 10 -31 10 -15 0 -24 6 -24 15 0 9 -11
20 -24 27 -14 6 -48 32 -76 58 -29 26 -65 50 -81 54 -16 3 -52 21 -80 40 -42
28 -56 45 -75 93 -28 69 -28 63 -9 63 8 0 15 7 15 15 0 23 -40 14 -80 -17 -33
-26 -34 -26 -57 -9 -30 25 -93 101 -106 129 -10 22 -16 24 -82 20 -51 -2 -70
0 -70 10 0 6 5 11 10 10 6 -2 9 -7 7 -13 -1 -5 4 -2 12 9 8 10 19 15 24 12 6
-4 8 2 5 14 -5 19 -6 20 -19 3 -9 -13 -13 -14 -14 -4 0 11 -3 11 -15 1 -12
-10 -19 -10 -27 -2 -9 9 -6 12 12 13 14 1 29 1 33 0 8 -1 4 19 -11 58 -3 9 -1
12 6 7 15 -9 16 6 0 22 -7 7 -17 8 -29 1 -14 -7 -27 -5 -48 6 -17 8 -37 15
-46 15 -17 0 -19 8 -6 29 5 8 14 10 21 6 10 -6 12 -1 8 19 -3 14 -1 26 5 26
15 0 -11 27 -32 33 -10 2 -25 0 -32 -5 -11 -8 -10 -9 4 -4 14 4 17 -1 17 -33
0 -35 -2 -38 -25 -33 -25 4 -25 22 1 22 8 0 14 3 14 6 0 11 -48 52 -69 59 -11
3 -20 14 -20 23 0 54 -15 102 -37 117 -13 8 -24 24 -24 34 0 10 -6 24 -14 30
-12 10 -31 83 -28 103 1 4 -13 12 -31 17 -17 5 -25 10 -15 10 22 1 12 38 -13
46 -12 4 -19 16 -19 31 0 45 -39 42 -112 -10 -15 -11 -25 -23 -22 -27 3 -5 -5
-22 -17 -38 l-22 -30 -23 30 c-35 48 -48 87 -35 103 9 11 8 24 -3 57 -9 26
-12 47 -6 53 4 4 6 15 3 22 -3 8 1 14 11 14 9 0 16 5 16 10 0 6 -4 10 -9 10
-12 0 -21 39 -11 45 12 7 5 58 -8 63 -6 2 -28 26 -48 53 -34 47 -35 51 -20 68
9 10 14 25 10 34 -3 8 0 25 6 37 19 36 -5 82 -57 105 -24 11 -58 34 -75 52
-18 18 -37 33 -42 33 -6 0 -20 17 -31 38 -16 29 -27 38 -51 40 -32 3 -84 49
-84 74 0 7 -9 27 -20 43 -11 17 -20 44 -20 62 0 45 -17 50 -33 11z m23 -1508
c0 -11 -4 -20 -10 -20 -5 0 -10 9 -10 20 0 11 5 20 10 20 6 0 10 -9 10 -20z
m940 -131 c0 -6 -4 -7 -10 -4 -5 3 -10 11 -10 16 0 6 5 7 10 4 6 -3 10 -11 10
-16z m-719 -212 c-1 -12 -15 -9 -19 4 -3 6 1 10 8 8 6 -3 11 -8 11 -12z m113
-49 c-3 -5 -12 -4 -20 3 -7 6 -11 15 -8 21 3 5 12 4 20 -3 7 -6 11 -15 8 -21z
m-50 -3 c3 -8 -1 -31 -8 -52 l-13 -37 -6 39 c-4 22 -7 46 -7 53 0 17 27 15 34
-3z m-23 -157 c10 -13 18 -30 18 -38 0 -10 -6 -8 -19 9 -14 17 -27 22 -45 19
-14 -3 -25 -4 -25 -2 0 1 -3 9 -6 18 -10 26 54 21 77 -6z m-2831 -919 c0 -5
-7 -9 -15 -9 -9 0 -12 6 -9 15 6 15 24 11 24 -6z m-91 -83 c11 -7 11 -10 0
-17 -21 -13 -33 -11 -46 10 -11 17 -10 19 10 17 13 -1 29 -6 36 -10z m265
-1326 c7 -7 5 -10 -7 -10 -10 0 -14 -5 -11 -15 4 -8 10 -12 15 -9 5 3 9 -6 9
-20 0 -24 -8 -30 -37 -27 -6 1 -13 -9 -15 -21 -3 -20 -9 -23 -46 -24 -23 0
-45 3 -48 8 -7 11 -112 10 -119 -2 -3 -5 -11 -10 -16 -10 -6 0 -7 5 -4 10 3 6
-1 13 -9 16 -9 3 -16 12 -16 19 0 20 29 45 44 39 8 -3 17 -1 21 5 3 6 17 11
30 11 14 0 26 7 30 19 11 35 146 44 179 11z m-349 -51 c11 -17 -1 -21 -15 -4
-8 9 -8 15 -2 15 6 0 14 -5 17 -11z m7955 -541 c0 -10 -36 7 -45 22 -4 6 5 5
19 -2 14 -6 26 -15 26 -20z m127 -201 c26 -33 90 -65 144 -72 37 -5 49 -11 60
-33 7 -15 22 -35 34 -45 17 -16 17 -18 2 -13 -11 3 -20 0 -23 -9 -4 -10 -14
-13 -29 -9 -13 3 -26 1 -29 -4 -3 -6 -15 -8 -26 -5 -14 4 -26 -1 -35 -13 -9
-13 -23 -18 -48 -16 -29 3 -36 0 -43 -20 -4 -13 -15 -29 -25 -36 -11 -7 -19
-22 -19 -32 0 -23 -60 -54 -88 -46 -11 4 -24 0 -32 -9 -7 -8 -21 -15 -31 -15
-10 0 -22 -8 -28 -17 -8 -15 -14 -16 -40 -6 -18 6 -29 7 -25 1 3 -5 3 -29 0
-53 -5 -33 -11 -42 -24 -40 -9 1 -12 0 -7 -2 6 -2 15 -14 21 -27 9 -19 7 -28
-7 -47 -9 -13 -15 -27 -13 -31 3 -4 1 -8 -5 -8 -5 0 -13 -9 -16 -20 -4 -13
-15 -20 -31 -20 -13 0 -24 -5 -24 -10 0 -6 -13 -4 -30 5 -37 19 -50 19 -50 -1
0 -11 -6 -14 -22 -9 -34 11 -41 20 -43 62 -2 28 -9 42 -26 52 -14 7 -33 31
-44 53 -10 21 -29 50 -42 64 -28 31 -29 39 -3 57 18 13 19 16 5 27 -8 7 -15 9
-15 5 0 -5 -9 0 -20 10 -24 22 -26 35 -5 35 9 0 15 9 15 21 0 26 23 49 49 49
14 0 21 6 21 20 0 23 3 24 31 8 17 -11 22 -10 32 2 17 21 68 13 90 -13 12 -16
16 -17 11 -4 -5 13 -1 17 15 17 15 0 21 6 21 24 0 13 7 29 16 37 10 8 14 22
10 40 -6 33 10 56 47 65 22 5 26 3 21 -10 -3 -9 -12 -16 -20 -16 -12 0 23 -39
71 -78 18 -16 55 -7 55 14 0 8 10 14 25 14 20 0 27 6 32 30 6 32 13 36 30 19
13 -13 53 34 53 62 0 27 34 24 57 -4z m693 -331 c0 -3 -4 -8 -10 -11 -5 -3
-10 -1 -10 4 0 6 5 11 10 11 6 0 10 -2 10 -4z m-353 -236 c3 -11 10 -17 16
-13 6 3 7 1 3 -5 -11 -18 -22 -14 -34 13 -8 17 -8 25 -1 25 6 0 13 -9 16 -20z
m-4171 -2121 c3 -5 -2 -9 -10 -9 -22 0 -20 -17 4 -30 22 -12 24 -18 10 -40 -8
-12 -13 -13 -30 -2 -19 12 -20 11 -14 -13 5 -20 2 -25 -12 -25 -14 0 -15 -3
-6 -12 13 -13 16 -48 5 -48 -14 1 -38 25 -41 40 -2 8 -8 17 -13 18 -5 2 -9 11
-9 19 0 9 -11 26 -25 39 -39 36 -33 53 17 51 35 -2 45 2 52 19 8 19 14 20 38
12 15 -6 31 -14 34 -19z m-676 -155 c0 -32 -29 -39 -40 -10 -4 13 -17 27 -27
30 -16 7 -14 9 12 21 26 11 32 10 43 -3 6 -9 12 -26 12 -38z"/>
<path d="M8770 15124 c0 -8 5 -12 10 -9 6 4 8 11 5 16 -9 14 -15 11 -15 -7z"/>
<path d="M8593 15083 c18 -21 22 -34 10 -32 -21 3 -33 -2 -33 -16 0 -13 -3
-13 -20 -3 -16 10 -24 10 -40 0 -11 -6 -29 -12 -40 -12 -14 0 -20 -7 -20 -24
0 -17 -7 -26 -25 -30 -14 -4 -25 -13 -25 -22 0 -8 -4 -12 -10 -9 -5 3 -21 -2
-35 -11 -14 -9 -32 -14 -40 -10 -9 3 -25 -5 -39 -20 l-23 -26 -22 27 c-11 15
-21 35 -22 44 0 10 -4 6 -10 -9 -6 -14 -8 -40 -4 -57 5 -30 4 -33 -19 -33 -13
0 -38 -11 -54 -25 -17 -14 -36 -25 -44 -25 -7 0 -19 -9 -26 -21 -8 -13 -21
-19 -35 -17 -24 3 -35 -3 -78 -46 -22 -21 -28 -34 -23 -50 4 -11 11 -22 15
-24 12 -5 11 -39 -1 -47 -6 -4 -8 -15 -5 -25 8 -25 -11 -60 -32 -60 -9 0 -13
-3 -10 -7 12 -12 -15 -33 -43 -33 -16 0 -30 -7 -34 -15 -3 -8 -15 -15 -26 -15
-26 0 -25 -8 5 -32 14 -11 25 -26 25 -34 0 -18 41 -18 104 1 39 12 52 12 64 2
13 -9 14 -9 8 1 -4 6 -3 12 3 12 17 0 24 -22 10 -31 -7 -4 -11 -9 -9 -11 30
-19 70 -35 70 -28 0 6 11 10 25 10 22 0 25 3 19 24 -5 21 -1 24 36 30 27 4 39
10 34 18 -5 7 1 9 19 6 31 -6 37 5 37 68 0 35 4 44 18 44 23 1 52 24 52 43 0
8 7 18 16 21 22 8 24 8 24 -8 0 -8 9 -17 20 -21 26 -8 92 5 88 17 -6 18 57 78
81 78 13 0 36 14 51 30 15 17 37 30 47 30 19 0 43 18 43 32 0 4 -6 7 -12 6 -7
-2 -12 4 -10 13 1 9 -9 24 -23 33 -33 22 -24 35 17 27 27 -6 32 -11 30 -29 -2
-12 2 -22 8 -22 6 0 9 4 6 9 -3 5 3 20 14 34 15 18 19 34 14 51 -4 19 -2 26 8
26 10 0 13 11 10 40 -4 35 -1 40 16 40 11 0 22 7 26 15 3 8 13 15 22 15 8 0
14 5 12 12 -7 21 -26 20 -33 -1 -3 -12 -11 -21 -17 -21 -6 0 -8 3 -5 7 4 3 2
13 -5 20 -9 11 -9 17 3 24 8 5 20 7 27 4 16 -6 15 15 -2 37 -12 17 -14 17 -30
-1 -25 -28 -83 -25 -131 6 -31 20 -36 22 -22 6z"/>
<path d="M9411 14783 c-1 -12 4 -25 9 -28 12 -7 12 2 0 30 -8 19 -9 19 -9 -2z"/>
<path d="M7579 14533 c-1 -16 0 -40 1 -56 2 -38 -19 -97 -35 -97 -20 0 -29
-19 -16 -34 7 -9 6 -19 -5 -34 -8 -12 -12 -22 -8 -22 3 0 2 -6 -4 -13 -14 -17
1 -87 22 -103 20 -14 21 -43 1 -50 -9 -4 -15 -19 -15 -36 0 -17 4 -27 10 -23
6 4 7 11 4 17 -5 8 -1 9 10 5 10 -4 22 -7 27 -7 6 0 15 -14 21 -31 7 -20 15
-28 25 -25 7 3 16 -1 19 -9 10 -26 22 -16 18 15 -4 32 13 51 27 29 7 -11 9
-10 9 4 0 9 5 17 10 17 6 0 10 9 10 20 0 11 -4 20 -10 20 -5 0 -10 7 -10 15 0
8 9 15 20 15 25 0 25 5 -1 38 -19 24 -19 27 -4 38 10 7 14 18 10 23 -3 6 1 25
9 42 21 41 11 80 -27 104 -44 28 -45 44 -4 40 52 -5 66 10 23 25 -28 9 -36 17
-36 36 0 19 -6 26 -30 30 -16 4 -35 13 -41 20 -18 22 -29 17 -30 -13z"/>
<path d="M8196 13877 c3 -10 9 -15 12 -12 3 3 0 11 -7 18 -10 9 -11 8 -5 -6z"/>
<path d="M5875 10780 c-4 -6 -10 -8 -14 -5 -11 6 -24 -56 -14 -66 5 -4 28 -14
52 -23 42 -14 44 -14 67 10 l25 24 -39 35 c-40 35 -65 44 -77 25z"/>
<path d="M5946 10656 c-43 -56 -48 -81 -27 -119 11 -20 25 -31 37 -30 10 1 24
-7 32 -18 16 -24 49 -25 55 -1 3 13 7 11 16 -12 6 -16 15 -26 19 -22 7 8 9 13
11 42 1 11 7 15 20 11 14 -3 18 -1 14 9 -7 19 -29 18 -37 -3 -6 -14 -8 -14
-22 5 -8 12 -12 28 -8 35 5 7 1 6 -10 -3 -17 -13 -18 -12 -14 5 2 13 -4 24
-17 32 -15 9 -20 22 -20 54 0 54 -15 59 -49 15z"/>
<path d="M5084 10520 c0 -21 4 -36 9 -33 6 4 11 -11 8 -29 0 -4 8 -10 19 -13
14 -5 26 0 39 16 22 27 17 49 -11 49 -30 0 -63 21 -49 30 10 5 9 9 -2 13 -12
4 -15 -3 -13 -33z"/>
<path d="M6141 10464 c-11 -23 -20 -30 -34 -26 -13 3 -18 1 -14 -5 4 -6 18
-13 33 -16 29 -5 37 7 32 50 l-3 28 -14 -31z"/>
<path d="M5262 10444 c-16 -18 -15 -29 4 -49 13 -13 14 -21 6 -40 -14 -30 7
-87 32 -91 9 -1 13 2 9 9 -4 7 0 8 13 3 49 -20 68 -14 42 13 -10 9 -6 9 12 -1
51 -27 68 -42 63 -53 -4 -11 36 -29 44 -21 7 6 -21 96 -30 96 -4 0 -5 -4 -2
-10 3 -5 1 -10 -5 -10 -7 0 -14 9 -17 20 -3 10 -14 22 -24 25 -10 4 -31 21
-45 40 -14 19 -40 45 -57 58 -27 20 -34 22 -45 11z"/>
<path d="M15075 10330 c-3 -5 -4 -14 0 -19 3 -5 1 -13 -5 -16 -8 -5 -7 -11 1
-21 6 -8 9 -27 6 -42 -8 -39 5 -56 37 -48 19 5 26 2 26 -7 0 -8 10 -26 21 -41
16 -21 24 -25 33 -16 8 8 5 16 -11 30 -20 15 -22 25 -17 68 5 48 4 52 -33 86
-41 38 -48 41 -58 26z"/>
<path d="M5482 10177 c-19 -28 -20 -33 -7 -47 18 -20 20 -70 3 -70 -9 0 -9 -3
0 -12 7 -7 12 -20 12 -29 0 -19 16 -34 46 -43 20 -6 22 -2 26 39 2 30 -3 57
-14 78 -22 41 -22 63 -2 71 13 5 14 9 5 20 -22 27 -46 24 -69 -7z"/>
<path d="M15190 10075 c0 -28 6 -31 25 -12 11 11 10 16 -6 25 -17 11 -19 9
-19 -13z"/>
<path d="M15211 10031 c-8 -14 -7 -20 4 -25 11 -4 15 2 15 19 0 30 -6 32 -19
6z"/>
<path d="M15139 10026 c14 -17 -1 -56 -21 -56 -6 0 -8 -3 -5 -7 11 -11 57 19
57 37 0 17 -19 40 -33 40 -5 0 -4 -6 2 -14z"/>
<path d="M5430 9961 c0 -11 -3 -26 -6 -35 -5 -12 0 -16 22 -16 26 0 73 19 49
20 -5 0 -3 5 5 10 12 8 9 10 -12 10 -16 0 -28 4 -28 9 0 5 -7 11 -15 15 -10 3
-15 -1 -15 -13z"/>
<path d="M15343 9518 c4 -12 -3 -17 -24 -22 -36 -7 -38 -34 -5 -65 19 -18 28
-21 43 -12 12 7 13 10 4 11 -10 0 -12 11 -9 45 3 26 1 48 -5 52 -6 4 -8 0 -4
-9z"/>
<path d="M15250 9440 c0 -5 5 -10 10 -10 6 0 10 5 10 10 0 6 -4 10 -10 10 -5
0 -10 -4 -10 -10z"/>
<path d="M5246 9415 c-10 -8 -15 -18 -12 -24 10 -16 -11 -22 -23 -7 -10 11
-19 12 -42 4 -16 -5 -27 -14 -24 -18 3 -5 -1 -10 -7 -13 -7 -3 0 -10 16 -16
30 -12 33 -11 116 29 14 7 15 38 2 52 -4 4 -15 1 -26 -7z"/>
<path d="M15220 9412 c0 -4 9 -13 20 -20 17 -10 20 -10 20 4 0 8 -4 12 -10 9
-5 -3 -10 -1 -10 4 0 6 -4 11 -10 11 -5 0 -10 -3 -10 -8z"/>
<path d="M14917 9373 c-4 -3 -7 -11 -7 -17 0 -6 5 -5 12 2 6 6 9 14 7 17 -3 3
-9 2 -12 -2z"/>
<path d="M5097 9344 c-4 -4 -7 -17 -7 -28 0 -19 1 -19 17 -3 12 11 14 20 7 27
-6 6 -13 7 -17 4z"/>
<path d="M7762 8393 c2 -10 12 -22 23 -28 16 -8 20 -21 21 -62 2 -47 -1 -53
-19 -53 -19 0 -19 -1 -4 -18 10 -10 17 -23 17 -28 0 -5 23 -19 50 -31 l50 -22
25 21 c19 16 22 24 13 30 -10 6 -10 8 0 8 6 0 12 7 12 15 0 8 -5 15 -11 15 -5
0 -15 14 -20 30 -6 17 -15 30 -20 30 -5 0 -9 9 -9 20 0 11 -8 28 -18 38 -10
10 -21 26 -25 35 -9 25 -90 24 -85 0z"/>
<path d="M10295 7140 c3 -5 8 -10 11 -10 2 0 4 5 4 10 0 6 -5 10 -11 10 -5 0
-7 -4 -4 -10z"/>
<path d="M9558 7015 c-3 -3 -1 -19 5 -36 8 -20 18 -29 34 -29 28 0 31 20 4 27
-10 3 -23 14 -28 25 -4 10 -11 16 -15 13z"/>
<path d="M9631 6968 c-2 -30 11 -48 36 -48 13 0 21 4 18 10 -3 6 -15 10 -25
10 -11 0 -20 9 -23 23 -2 13 -5 15 -6 5z"/>
<path d="M13711 6933 c-1 -12 4 -25 9 -28 12 -7 12 2 0 30 -8 19 -9 19 -9 -2z"/>
<path d="M9960 6581 c0 -5 -10 -11 -22 -14 -18 -5 -19 -8 -8 -22 7 -9 21 -13
31 -10 14 5 19 -3 28 -46 7 -29 16 -59 23 -66 8 -10 7 -13 -6 -13 -9 0 -16 -8
-16 -19 0 -11 -3 -26 -6 -35 -4 -11 -1 -16 10 -16 9 0 16 8 16 20 0 11 5 20
11 20 5 0 8 4 5 9 -3 5 4 20 15 35 15 20 19 34 14 57 -4 17 -2 43 6 60 17 41
2 55 -43 40 -22 -8 -34 -8 -36 -1 -4 12 -22 13 -22 1z"/>
<path d="M12074 6379 c-20 -6 -36 -20 -46 -43 -20 -41 -57 -53 -93 -30 -24 16
-45 12 -45 -7 0 -6 -7 -17 -15 -25 -21 -21 -19 -61 3 -73 10 -5 24 -27 30 -49
15 -48 15 -55 2 -47 -5 3 -10 -1 -10 -10 0 -8 -18 -38 -39 -65 -43 -55 -45
-84 -5 -94 13 -4 25 -14 26 -24 0 -9 2 -21 3 -27 2 -5 3 -15 4 -22 0 -7 7 -10
14 -8 28 10 133 12 152 2 13 -7 20 -7 23 2 3 8 10 7 25 -4 18 -13 22 -12 33 3
8 9 14 26 14 37 1 16 4 14 16 -10 18 -36 60 -60 68 -39 3 8 11 14 19 14 7 0
18 12 24 28 7 15 12 20 11 12 -1 -29 2 -40 12 -40 11 0 13 39 4 64 -3 9 -12
16 -20 16 -8 0 -13 3 -13 8 4 21 -3 31 -23 38 l-23 7 23 8 c12 5 22 14 23 21
4 42 -14 134 -33 174 -7 15 -7 28 0 40 5 10 6 25 2 33 -5 9 -11 24 -14 34 -3
9 -17 22 -31 27 -14 5 -25 14 -25 19 0 5 -11 12 -25 15 -14 4 -25 11 -25 16 0
11 -4 11 -46 -1z"/>
<path d="M12328 5934 c-3 -2 -3 -16 0 -30 3 -18 10 -24 25 -22 11 2 22 8 24
14 4 12 -41 46 -49 38z"/>
<path d="M12258 5808 c3 -11 8 -15 11 -10 3 5 13 11 21 14 10 3 6 6 -11 10
-22 4 -25 2 -21 -14z"/>
<path d="M12040 5790 c16 -12 31 -15 44 -11 36 14 27 26 -21 28 l-48 2 25 -19z"/>
<path d="M12325 5800 c-3 -5 -3 -16 1 -22 5 -9 2 -8 -9 1 -15 12 -17 12 -11
-3 7 -19 38 -38 48 -29 11 11 6 40 -8 52 -10 8 -16 9 -21 1z"/>
<path d="M11345 5370 c-3 -5 -1 -10 4 -10 6 0 11 5 11 10 0 6 -2 10 -4 10 -3
0 -8 -4 -11 -10z"/>
</g>
</svg>
