<svg version="1" xmlns="http://www.w3.org/2000/svg" width="1080.866" height="1168.515" viewBox="0 0 810.65 876.386"><g fill="#222"><path d="M477.75.266c-1.1.7-1.1 1.2.2 3.1 1 1.4 1.7 1.8 2.2 1 .5-.8 1.3-.6 2.6.6 2.5 2.2 3.5 1.1 2.1-2.1-.8-1.7-1.7-2.3-2.8-1.8-.9.3-1.9.1-2.3-.5-.4-.6-1.2-.8-2-.3zM464.05 5.866c-.3 1.4-1 2.5-1.4 2.5-1 0 .8 7 2.1 8.6.6.7.5 2.1-.2 3.7-1.1 2.5-1.2 2.5-3.5.9-2.8-2.1-3.2-3.7-.5-2.2 2.5 1.3 3.4 1.3 2.6-.1-.4-.5-1.8-1.4-3.1-1.9s-2.4-1.7-2.4-2.5c0-.9-.4-1.3-1-1-.5.3-1 1.5-1 2.6 0 1-.4 1.9-.9 1.9-.6 0-.6-1.2.1-3 .5-1.7.7-4.1.4-5.4-.5-2.1-1-2.3-5.6-1.8-3.3.3-5 .1-5-.7 0-2-3.6-1.2-6 1.4l-2.4 2.5 2.2 3.8c2.7 4.8 1.7 6.6-3.2 6-3.2-.4-3.6-.2-3.4 1.6.2 1.3-.2 2-1.1 1.8-3.4-.7-5.1.9-5.1 4.9 0 3.2-.3 3.9-2 3.9-1.6 0-1.9.5-1.3 3 .4 2.4.2 3-1.2 3-1.2 0-1.6.6-1.2 2 .3 1.1.1 2.3-.4 2.6-1.6 1-.9 7.8 1.1 10.4 1.1 1.4 2 3.2 2 4.1 0 .9.7 1.9 1.5 2.3.8.3 1.5 1.6 1.5 2.9 0 1.3.5 2.8 1.2 3.5.9.9.9 1.2-.1 1.2-2.2 0-.1 16 2.4 18 1.1.9 1 1.8-.7 4.5-2.6 4.5-1.7 8.6 2.9 12.8 3.8 3.6 4 3.7 8.2 8.8 1.7 2 2.8 3.8 2.6 4.1-.3.2.6 1.5 2 2.8 1.8 1.7 2.5 3.4 2.5 6.2 0 2.1-.5 3.8-1 3.8-.7 0-.7.6 0 2 .6 1.1 2.1 2 3.4 2 1.3 0 2.9.7 3.6 1.5 1 1.2 1 1.5 0 1.5-1.4 0-.8 9.3.8 11.4.5.6 1.4 2.6 2.1 4.5.9 2.7.9 3.6-.1 4.3-1.6 1 .7 2.8 3.5 2.8.9 0 1.7.4 1.7 1 0 .5 1.6.9 3.5.8 2.9-.1 4.3.6 8.1 4.5l4.6 4.7 3.7-3.2c2.3-2 3.5-3.9 3.3-5.1-.3-1.6 0-1.9 2.1-1.3 2.1.5 2.6.2 2.9-1.6.2-1.6.9-2.2 2.2-2 1.5.3 1.8-.1 1.3-1.8-.5-2.1-.5-2.1 1.3-.5s1.9 1.5 2.5-1.9c.4-2.1 1.3-3.6 2.1-3.6s2.3-.9 3.4-2c1.6-1.6 1.9-2.8 1.4-6.2-.5-3.1-.4-3.9.5-3.4 3.1 1.9 5.7-5.4 2.9-8.2-2.2-2.2 2-2.5 5.1-.3 3.3 2.4 5.7 2.7 6.4.8.3-.9 2.9-1.1 9.6-.9 10 .3 19.1 3.3 21.8 7.2 2.4 3.3 5 4.3 8.2 2.9 2-.9 2.7-1.8 2.3-3.1-.4-1.6-.1-1.7 2.3-.8 2.2.8 3 .7 4-.6.6-1 1.7-1.4 2.3-1 1.4.9 3.4-2.9 3-5.7-.1-1.2.1-2.7.5-3.3.4-.7 0-1.7-.8-2.4-1.3-1-1.9-.9-3.5.5-1.1 1-2 2.5-2 3.3 0 .9-.7 1.3-1.9.9-1-.2-2.5 0-3.4.4-.9.5-2.6.5-4 0-2-.8-2.6-1.9-3.2-5.8-.4-2.6-1.4-5.6-2.2-6.5-.8-.9-1.3-2.5-1.1-3.4.2-1.1-1.1-3.2-3.2-5.1-2.6-2.4-3.1-3.3-1.7-3.3 2.1 0 2.2-1.2.1-5.3-2.6-4.8-4.1-6.1-5.2-4.1-.8 1.4-1.2 1.4-3.3.3-1.3-.8-3.9-2.6-5.7-4.2-1.8-1.5-4-2.7-4.8-2.7-2.1 0-6.4-4.9-5.7-6.6.3-.8-.1-2.2-1-3.2-.8-.9-1.8-3.3-2.2-5.2-1-4.7-1.4-5.3-3-4-1 .8-1.5.8-2 0-.4-.7.2-1.8 1.4-2.6 1.2-.9 1.9-2 1.6-2.5-.4-.5-.1-.9.6-.9.8 0 .8-.4-.1-1.5-.7-.9-1.5-1.3-1.8-1.1-.3.3-1.7-.4-3.3-1.4-1.7-1.3-3-1.6-3.4-1-.3.5-1.5 1-2.6 1-1 0-1.9.7-1.9 1.5s.3 1.4.8 1.2c.4-.1 1.9.7 3.4 1.9 1.9 1.5 2.7 3 2.6 5.2-.1 3.2-.9 3.6-5.5 3.5-.7-.1-1.3.5-1.3 1.1 0 1.6-5.6 1.2-7.6-.5-.8-.7-1.2-1.9-.9-2.6.2-.8 0-2.4-.6-3.5-.9-1.7-.6-2.5 1.5-4.7 2.4-2.5 2.5-2.9 1.1-4.1-.8-.7-1.5-2.8-1.5-4.9 0-2-.5-4.2-1.1-4.8-.8-.8-.5-1.4 1.1-2.3 1.2-.6 1.9-1.4 1.6-1.7-.3-.3-.1-1.4.4-2.3.9-1.7-.5-3.2-3.5-3.4-1.5-.1-1.8-3.5-.5-5.1 1.3-1.6-.1-2.8-2.4-1.9-1.1.4-1.6.1-1.6-1 0-.9.5-1.6 1.1-1.6.6 0 .9-.7.5-1.5-.3-.8-.2-1.5.3-1.5s1.1.9 1.4 2c.3 1.1 1 2 1.7 2 .6 0 .8-.5.4-1.2-.4-.6-.7-2.7-.6-4.6.1-1.9-.5-4.4-1.3-5.5-.9-1.3-1.1-2.5-.5-3.1.5-.7 0-1.5-1.6-2.3l-2.5-1.2.5 5.3.6 5.3-3.8-.2c-3.2-.2-3.7-.6-3.4-2.5.2-1.2-.6-3.2-1.8-4.5-1.2-1.3-2.1-3.1-2-4.1.1-1.1.2-2.8.1-3.9-.2-1.9-.2-1.9-1.5-.2-.8 1-1.6 1.3-1.8.7-.2-.6-1.4-1.2-2.8-1.3-1.4-.1-3.5-.8-4.7-1.5-2-1.1-2.3-1-2.9 1.3zm-10.9 6.5c.3.5.1 1-.4 1-.6 0-1.1-.5-1.1-1 0-.6.2-1 .4-1 .3 0 .8.4 1.1 1zm-13.8 11.6c-.3.3-1.2.4-1.9.1-.8-.3-.5-.6.6-.6 1.1-.1 1.7.2 1.3.5zm73.3 40.6c0 .5-.4.8-1 .8-.5 0-1-1-1-2.3 0-1.8.2-1.9 1-.7.5.8 1 1.8 1 2.2z"/><path d="M495.15 17.366c-.3.5-.1 1 .4 1 .6 0 1.1-.5 1.1-1 0-.6-.2-1-.4-1-.3 0-.8.4-1.1 1zM592.65 18.066c0 .7 1.2 2.1 2.8 3.1 3.1 2.3 6.9 8.2 5.2 8.2-.6 0-.8.4-.5 1 .8 1.2 2.6 1.3 2.3.1-.2-.5.8-1.8 2.1-3l2.4-2.1-3-.6c-1.9-.4-3.5-1.5-4.2-3-.6-1.3-1.9-2.4-2.9-2.4s-2.3-.5-3-1.2c-.9-.9-1.2-.9-1.2-.1zM500.15 21.166c-.3.3-.5.9-.5 1.4 0 1.1 4.7 1 5.4-.1.6-.9-4-2.2-4.9-1.3zM507.05 23.066c.3 2.1 4.3 3 5.9 1.4 1.4-1.4.9-1.7-3-2.5-2.7-.6-3.1-.5-2.9 1.1zM598.85 34.266c.2.9 1 1.6 1.7 1.6.8 0 1.6.6 1.9 1.4.3 1 0 1.2-1.1.8-1.7-.6-5.3 3.8-4.9 6 .4 1.8-1.7 2.6-3.3 1.3-.9-.7-1.5-.8-2 0-.3.5-1.5 1-2.6 1-1 0-2.8.9-3.9 2s-2.6 2-3.4 2c-2.3 0-2.7 3.1-.9 7.1 1.7 3.7 3.3 5.1 3.3 2.8 0-.6 1.5-.9 3.4-.8 1.9.2 3.8 0 4.2-.4 1.4-1.4 2.2-.6 2.8 2.9.6 3 .3 3.9-1.9 6-1.5 1.3-3 2.2-3.5 1.9-1.1-.7 1.3 5.8 2.5 6.8.6.4 1.9.5 3.1.2 2.4-.5 6.4 2 6.4 4.1 0 .8-.9 1.4-2 1.4-1.4 0-2 .7-2 2.3 0 1.8-1 2.7-5.1 4.2-4.5 1.8-5 2.3-4.5 4.5.3 1.8-.2 3.2-2 4.9-1.4 1.4-2.4 3.5-2.4 5.1 0 1.9-.6 3.1-1.8 3.4-1 .3-2.5 2.2-3.4 4.1-1.3 2.8-1.3 3.8-.3 5.2.7.9 1.1 2.2.9 2.8-.3.6-.6 2.9-.7 5.1-.2 3.3-.5 3.9-2.4 3.8-2 0-1.8.3 1.6 3.2 2.1 1.8 3.8 4 3.8 4.8 0 .9 1 3.9 2.3 6.7 1.8 3.8 2.1 5.5 1.4 6.7-1.1 1.6-.4 4.8 2 10.1.6 1.3 3.6 4 6.6 6.1 3 2.1 6.4 4.7 7.4 5.9 1.1 1.1 2.7 2.1 3.6 2.1 1 0 2.5 1.2 3.5 2.6 1.3 2 2.3 2.5 4.6 2.2 3.7-.6 6.2 2.8 6.5 8.8.2 3.6-.1 4.3-2.3 5.3-2.3 1.1-2.9.8-6-2.2-1.9-1.9-4.8-3.7-6.4-4.1-1.7-.3-4.3-1.9-5.9-3.6-1.9-2.1-3.8-3-5.8-3-3.2 0-6.2-2.9-6.2-6.1 0-2.1-3.6-5.3-4.9-4.4-.6.3-1.1-.1-1.1-.9 0-.9.5-1.6 1-1.6 1.2 0 .2-5.3-1.1-5.8-.4-.2-.5-1-.2-1.9.5-1.3.2-1.3-2 .2-1.9 1.2-3.5 1.5-5.9 1-2.8-.7-3.1-.6-2 .8 1 1.2.9 1.6-.5 2.1-1.1.4-2.2.1-2.8-.8-.6-.8-2.3-1.8-3.8-2.1-2.9-.8-3.4.3-1.7 3.6.9 1.6.7 1.9-.9 1.9-1.2 0-2.6 1.2-3.5 2.9-1.4 2.7-1.8 2.8-6.1 2.3-3.9-.4-4.4-.2-3.9 1.1.3.9 1.4 1.9 2.5 2.2 2.9 1 2.6 7-.3 8-1.3.4-2.9.6-3.5.6-2-.3-7.3 4.1-7.3 6 0 .9-.7 2.2-1.6 3-1 .8-1.4 2.6-1.3 5.5.2 2.4 0 4.6-.4 5-.4.4-.7 2.3-.7 4.1 0 1.9-.4 3.2-.9 2.9-.5-.3-1.4.1-2.1.9-.7.8-2.1 1.5-3.1 1.5-3 0-6.6 2.1-8 4.6-.7 1.3-1.5 2.4-1.9 2.4-.4 0-.5 1.3-.2 3 .2 1.7 0 3-.6 3s-1.3.8-1.6 1.8c-.4 1.2-1.8 1.9-4.4 2-2 .2-4.3 1-4.9 1.9-1 1.2-2.7 1.6-6.7 1.5-3.9-.1-5.6.3-6 1.3-.4 1.1-1.1 1.3-3 .5-2.1-.7-2.6-.6-3.1 1-.7 2.3-4.4 2.7-6.3.8-.8-.8-1.5-.9-2-.3-.4.6-2.4 1.1-4.6 1.3-4.8.3-6 1-4.6 2.7 1.2 1.5-.3 6.5-2 6.5-.5 0-1 .8-1 1.7 0 1-1.6 2.6-3.6 3.6-3.7 1.8-5.4 1.6-5.4-.9 0-.8-.8-1.4-1.9-1.4-3.8 0-8.2-2.2-7.6-3.8.3-.8-.1-2.2-.8-3.1-.8-.9-1.8-3.3-2.1-5.4-.5-2.7-1.4-4.1-3.2-4.9-1.3-.6-2.4-1.5-2.4-1.9 0-.4-1.2-1.4-2.7-2.1-2-1-3-2.5-3.9-5.9-.6-2.6-2.5-6.4-4.2-8.5-3-3.9-4.8-11.4-2.7-11.4.6 0 1.8-1.7 2.7-3.8 1.5-3.5 1.5-3.7-.3-4.6-2.1-1-2.5-3.6-.9-5.2 2.1-2.1 0-4.3-3.6-3.8-2.4.3-3.4 0-3.4-.9 0-2.1 4.2-5.4 7.6-6.1 2.3-.5 3-1.2 3-2.9-.1-2-1.3-3.6-2.7-3.7-.3 0-1.6.9-2.9 2-2.8 2.4-4.2 2.2-4.7-.9-.2-1.5.1-2 .8-1.5 1.4.8.3-4.4-1.2-6.2-1.6-1.9-4.9-2.4-4.9-.7 0 .8-.6 1.3-1.2 1-.7-.2-1.3-1.1-1.3-2 0-.8-.4-1.9-.8-2.3-.4-.4-.7-1.4-.7-2.2 0-1.2.2-1.2 1.7-.1 1.3 1.1 1.7 1.1 2.1.1.2-.7 1.6-1.9 3.1-2.6 2.4-1.3 2.7-2 2.5-5.5-.1-2.9.2-4.1 1.2-4.1 2 0 1.7-1.4-.6-3.5-3.1-2.8-2.4-8.9.7-6.3 2.1 1.7 4.7-1.3 3.9-4.6-.8-3.3-5.5-3.7-6.3-.6-.5 1.8-1.1 2-4.7 1.5-3.1-.5-4.5-.3-5.5.9-.7.8-2 1.2-2.8.9-.9-.4-2.1.1-2.8 1.1-.9 1.2-2 1.5-3.9 1-2.9-.7-3.2-1.5-1.4-4.3 1.5-2.5-.4-5.1-3.8-5.1-1.2 0-3.4-.4-4.8-1-3.1-1.1-4.1.1-2.6 3 .8 1.6.8 2.2-.4 2.6-1.6.6-9.6-4.5-9.4-6.1.1-.6-.6-2.6-1.4-4.5-.8-1.9-1.7-4.2-2-5-.7-1.9-5.5-4.6-6.5-3.6-.4.4.5 2.9 2 5.6 3.4 6 3.4 6.7 0 7.3-1.6.2-4.3 1.1-6 1.8-3 1.2-3.4 1.1-5.3-.9-2.5-2.7-4.4-2.9-3.8-.4.6 2.1-2.6 3.9-6.5 3.8-1.5-.1-2.7.4-2.7 1 0 .7-.6 1.9-1.2 2.6-1.8 1.9-2.1 3.8-.8 5.3.8 1 .4 2-1.6 4-1.4 1.4-3.2 2.4-3.9 2.2-.8-.4-1.1.4-.9 2.4.2 1.9 0 2.8-.7 2.4-1.5-1-3.9 1.5-3.9 4.1 0 1.5-.6 2.4-1.5 2.4s-1.5.9-1.5 2.5c0 1.4-.4 2.5-1 2.5-.5 0-1 .8-1 1.7 0 1.3-.3 1.4-1.2.5-1.8-1.8-3.3-1.5-6.1 1.4-1.4 1.4-3.1 2.3-3.7 1.9-1.3-.8-1.3 1.1 0 3.4.5 1 1 4.7 1.1 8.1.2 4.9.6 6.4 1.9 6.7 2.2.6 4.3 6.5 4.6 13.1.2 3.9.8 5.7 2.3 7 2 1.6 2 1.9.5 6.1-1.4 4-1.4 4.9 0 8 .8 2 1.8 4.6 2.1 5.8.9 3.3 3.3 5.3 6.1 5.3 1.3 0 2.4.4 2.4.9 0 1.5 6.4 7.2 7.6 6.7.7-.3 1 .3.7 1.5-.4 1.3 0 1.9 1.3 1.9 1.5 0 1.5.3-.5 2.4-1.3 1.4-2.9 2.2-3.7 1.9-.9-.3-1.4.2-1.4 1.4 0 3.1 2.1 8.3 3.3 8.3.5 0 .2.9-.8 2s-2.8 2-4 2c-2.6 0-7.5 4.2-7.5 6.5 0 .9-.4 1.4-.9 1-.5-.3-1.2-.1-1.6.5-.3.5-1.2 1-1.8 1-.9 0-.9-.2-.1-.8.6-.4 1.4-1.7 1.8-3 .7-1.9.4-2.2-2.2-2.2-2.2 0-3.1.6-3.6 2.2-.8 3.3-.7 3.8.7 3.3.7-.2 2.2 1.7 3.7 4.6 2.2 4.6 2.3 5.2.8 6-1.2.7-1.4 1.6-.8 4.2.7 3.2.5 3.5-2.7 4.9-1.8.9-3.6 1.2-3.9.7-.8-1.3-6.4 1.9-6.4 3.7 0 .9-1.5 3.1-3.2 5-1.8 1.8-4.1 4.3-5 5.4-1.2 1.3-3 2-5.2 2-2.9 0-3.3.3-2.9 2.3.4 2.1-.1 2.5-4.4 3.6-2.6.7-5.5 1.7-6.3 2.2-.8.5-2.2 1.2-3 1.5-.8.3-3.4 1.6-5.7 2.7l-4.2 2.1-2.4-2.2c-1.3-1.2-3.1-2.2-4.1-2.2-2.7 0-1.5 6.5 1.7 9 1.4 1.1 3.2 3.8 4.1 6 .9 2.2 2 4 2.6 4 .5 0 1 1 1 2.2 0 1.2.9 3.2 2.1 4.4 2.2 2.4 1.8 4.4-.9 4.4-1.3 0-1.4.2-.3 1.2 1 1.1 1.4 1 2.2-.4.5-1 2.8-2 5.5-2.4 3.9-.5 4.9-.3 7 1.7 1.3 1.2 2.4 2.8 2.4 3.4 0 3.6 5.7 3.8 6.2.2.4-2.9 6.1-4.6 9.1-2.7 1.2.7 4.3 1.9 6.9 2.5 3.7 1 5 1 6.5 0 1.7-1.2 1.8-.9 2 3.1.1 4.3.1 4.4-3 4.6-1.8 0-4 .1-4.9 0-1-.1-1.7.3-1.5 1 .1.6-1.1 1.2-2.8 1.2-3.7.1-5.1 2.9-3 5.9 2.4 3.5 1.7 3.9-2.3 1.3-4.1-2.6-9.2-2.5-9.2.1 0 .9-.8 1.4-2.2 1.2-1.3-.1-4 .1-6 .6-3.3.6-3.9 1.2-5 4.9-.6 2.2-1.1 4.4-1 4.7 0 .3-1.1.4-2.6.1-2.2-.3-3.1.2-4.2 2.2-.9 1.7-1.9 2.4-3 2.1-1.5-.5-1.5.1-.4 6.7 1.2 7.1 1.2 7.4-.9 9-1.9 1.5-2 2-1 3.7.7 1.1 1 2.6.8 3.4-.4 1 .3 1.2 2.8.9 2-.2 4.8.3 6.6 1.2 2.7 1.5 2.9 1.9 1.9 3.6-.7 1.1-1.6 2-2 2-1.3 0-.9 4.5.5 5.9.6.6 1.2 2 1.2 2.9 0 2.2 6.6 11.1 8.2 11.2 2.7 0 6.4 2.4 6.1 3.9-.2.9.9 2.6 2.3 3.9 3.2 2.6 6.7 9 7.7 14.1.6 2.9 1.6 4.1 5 5.9 2.8 1.6 4.4 3.3 4.8 5 .4 1.5 1.3 3.5 2.2 4.4.9 1.1 1.2 2.6.8 4.3-.6 2.2-.9 2.4-2.7 1.4-2.7-1.4-3.2-.7-1.8 2.4 1.7 3.7-1.6 10.3-4.9 10-2.9-.4-5.8 4.3-7.4 12-.8 3.7-1.9 6.2-3 6.8-1 .5-1.8 1.6-1.8 2.4 0 2-3.6 1.9-4.4-.1-.6-1.6-.8-1.6-2.4 0-1 .9-2.8 1.6-3.9 1.6-1.2 0-2.3.6-2.6 1.4-.3.8-1.5 1.2-3 .9-2.1-.4-2.7 0-3.7 3.1-1 3-1.6 3.6-4 3.6-1.5 0-3.3.7-4.1 1.6-.8 1-2.1 1.3-3.6.9-1.6-.4-2.3-.1-2.3 1 0 .8-.8 1.5-1.7 1.5-1.1 0-2.6 1.6-3.7 4-1.2 2.6-2.6 4-3.8 4-1 0-2.1.7-2.5 1.6-.5 1.2-1.8 1.4-7.7.9-5.5-.4-7.6-.2-9.1 1-2.9 2.1-7.5 2-7.6-.3 0-1.4-.2-1.4-.8.3-.5 1.1-.7 2.3-.5 2.7.3.4-.7 1.9-2.1 3.4-1.4 1.5-2.5 2.1-2.5 1.5 0-.7-.6-1.1-1.2-.8-.8.2-1.2 1.6-1 3.1.3 2.3.1 2.7-1.5 2.2-1.2-.4-2.7.2-4.1 1.4-2 1.9-2.7 1.8-2.3-.4.1-.5-.4-1.6-1.2-2.5-.8-.9-1.7-2.4-2.1-3.5-.4-1.1-1.2-1.6-2.1-1.2-.9.3-2-.3-2.7-1.4-.7-1.1-1.8-2-2.5-2s-1.7-.9-2.3-2c-1.2-2.3-3.5-2-7.7.7l-2.3 1.5 2.6 3.3c1.8 2.4 2.3 4 1.9 5.8-.4 1.5-.1 3 .9 4 .9.8 1.6 2 1.6 2.6 0 .6.9 1.1 2 1.1s2.3.7 2.6 1.5c.3.8 1.4 1.7 2.5 2 1.1.4 1.7 1.1 1.3 1.6-.3.5-1 .7-1.5.4-1.6-1.1-1 2 .9 3.7 2.8 2.7 4 4.4 4.4 6.4.3 1.4 1.1 1.8 3.5 1.7 2.1-.2 3.3.2 3.7 1.4 1.1 2.7-1.1 3.9-3.3 1.9-1.9-1.7-1.9-1.7-1.5.1.7 3.2-2.1 5.5-7.1 5.8-3.3.2-5.1.9-6.1 2.3-1.2 1.8-1.8 1.9-5.3.8-2.1-.6-4.8-2.2-6-3.6-1.6-2-2.2-2.2-3-1.1-.5.7-1.4 1.1-2 .7-.7-.5-.9-.1-.5.8.3.9 1.2 1.6 1.9 1.6 1.5 0 4.7 3.5 3.9 4.2-.3.4-.1 1.6.6 2.7.9 1.9.8 2.1-1.4 2.1-1.4 0-2.7-.4-3-.9-.3-.4-1.6-.8-2.8-.7-1.6.1-2.4.8-2.6 2.3-.2 1.3-1.3 3-2.5 3.8-1.2.9-2.7 3-3.3 4.8-.8 2.3-1.8 3.3-3.5 3.5-1.7.2-2 0-1-.6 1.1-.8.8-1.4-1.3-3.3-1.8-1.5-2.6-3.3-2.6-5.4 0-1.7-1.1-4.6-2.5-6.5-1.4-1.9-2.5-4-2.5-4.7 0-.7-.7-1.3-1.5-1.3-.9 0-1.6-1.4-2-3.8-.9-5.4-2.1-7.9-4.2-8.6-1-.3-2.9-2.3-4.3-4.3-1.3-2.1-3.6-5.2-4.9-7-2.3-2.9-2.6-3-4.7-1.6-1.6 1-2.8 1.1-4.1.4-1-.5-2.6-1.2-3.5-1.5-1.1-.3-1.8-1.5-1.8-3 0-2.7-1.5-4.2-2.5-2.6-.3.5-1.4 1-2.3 1-2 0-4.6 3.6-3.7 5 .4.6.1 1-.5 1-.7 0-1.4-.8-1.6-1.8-.5-1.7-6.2-6.2-8-6.2-.5 0-2.2-1.3-3.7-3-3.1-3.3-5.7-3.9-5.7-1.4 0 1.1-.5 1.4-1.6 1-.9-.3-2.1-.6-2.8-.6-.7 0-2.4-2.2-3.7-4.9-1.3-2.8-3.4-5.4-4.7-6.1-2-.9-2.3-1.6-1.9-3.8.6-3-.4-5.6-1.9-5-.5.1-1.3-.7-1.9-2-.5-1.2-1.7-2.2-2.5-2.2s-2.3-.7-3.3-1.4c-1.5-1.1-1.5-1.5-.3-1.9 2.7-1 1.3-4.9-2.6-7.5-2.1-1.3-3.8-2.8-3.8-3.2 0-.3-1.5-2.3-3.3-4.3-3.3-3.7-7.8-5-9.3-2.6-.3.6-1.5.9-2.5.6-1.1-.3-1.9-.1-1.9.4s-1.2 1.2-2.7 1.5c-1.6.4-3.3 1.1-3.9 1.5-.6.5-2.4-.1-4.4-1.6-1.9-1.4-4.2-2.5-5.2-2.5s-1.8-.7-1.8-1.5c0-.9-1-1.5-2.6-1.5-1.4 0-2.3.4-1.9 1 .3.5.1 1-.4 1-.6 0-1.1-.5-1.1-1 0-.6-.6-1-1.4-1-.8 0-1.6-.7-2-1.5-.6-1.7-3.6-2.1-3.6-.5 0 .5-2 1-4.4 1-6.8 0-9.3 1.3-9.9 5.2-.2 1.8 0 3.5.5 3.7.5.1.2 1.1-.7 2.1-1.5 1.7-1.5 2.1.1 5.1 2.4 4.7 2 8.4-1 11.1-1.5 1.3-2.7 3.5-2.8 5-.1 1.6-.5 2.8-.9 2.8-1.1 0-2.9 5-2.3 6.5.4.8.1 1.5-.6 1.5-.9 0-1 .4-.2 1.3 1.3 1.5.5 5.7-1.1 5.7-.6 0-.4.8.6 1.7 1.5 1.5 2.2 1.6 4.9.5 2.8-1 3.5-.9 4.8.4 1.4 1.5 1.3 1.6-.2 1.1-3.6-1.3-1.6.5 2.7 2.4 2.4 1.1 5.1 2.9 6 4.2.8 1.2 1.5 1.6 1.5.8 0-1 .9-1.2 3.8-.6 2 .4 5.2.9 7 1 4.4.4 4.8 1 3.5 4.5-.9 2.3-.8 3.2.3 4.1 2 1.6 1.8 2.3-1.8 7.3-2.8 3.7-3.7 4.3-6 3.9-2-.4-3 .1-4.3 2-.9 1.4-2.2 2.4-3 2.1-1-.4-1.2.9-1 5.9.1 3.5.5 6.9.9 7.5.4.7.2 1.2-.3 1.2-.6 0-1.1.9-1.1 2 0 1.3-.7 2-2 2-1 0-2.3.7-2.8 1.6-.6 1.1-1.7 1.5-3 1.2-3-.8-5.1 1.8-2.9 3.5.9.7 2.1 2.5 2.7 4.2 1.4 3.7 2.2 10.5 1.2 10.4-2.2-.4-3.2.3-3.2 2.2 0 1.3-.5 1.9-1.3 1.6-.6-.2-1.7.1-2.3.7-1.5 1.6.6 4.6 3.3 4.6 2.2 0 6.8 5.6 5.3 6.5-1.5 1-1.2 3.5.5 3.5.8 0 1.5.5 1.5 1.2 0 2 3.1 4.7 4.8 4.1 1.5-.4 1.5-.3.2.6-1.3 1-1.2 1.3.5 2.7 1.1.8 2.8 1.3 3.7 1.1 2.1-.6 5.1 3.7 4.3 6.2-.3 1 .1 2.4 1 3.1.8.7 1.5.9 1.5.4 0-.4 1.1.3 2.5 1.6s2.5 3.3 2.5 4.4c0 2.1 7.1 10.6 8.8 10.6 1.8 0 2.1 5.4.5 7.2-1.4 1.6-1.4 2 0 4.2.9 1.3 3.9 4.6 6.7 7.4 2.7 2.7 5 5.4 5 6.1 0 .6.7 1.1 1.5 1.1.9 0 2 1.1 2.6 2.4.7 1.5 2.6 2.8 5.1 3.5 2.7.9 3.8 1.7 3.4 2.6-.3.8-.1 1.7.4 2 .4.3 1 0 1.2-.7.3-.9 1.6-.6 4.2 1 2 1.2 4.5 2.2 5.4 2.2 1 0 2.3.9 2.9 1.9 1.8 2.9 17.8 7.1 18.6 4.8.2-.7 1.9-1 4.4-.9 3.6.3 4.5-.1 8.1-3.7 2.4-2.5 5-4.1 6.4-4.1 1.3 0 3.9-1 5.8-2.2 3.6-2.2 6.5-2.4 8.8-.5 1.6 1.2 2.4.4 4.2-4.3 1.7-4.2 3.3-6 5.4-6 .8 0 1.8-.5 2.1-1 .3-.6 1.7-.7 3.1-.4 2 .5 2.4.2 2.4-1.5 0-2.1 1.5-2.9 2.2-1.2.2.5 3.1 1.3 6.6 1.7 5.3.6 6.2.4 6.2-1 0-.9.4-1.6.9-1.6s1.6-.3 2.5-.6c1-.4 2.7.6 4.6 2.7l3 3.3v-2.7c0-1.5-.6-2.7-1.3-2.7-2.2 0-3.8-6.1-2.7-10 .7-2.5.6-3.6-.3-4.2-.8-.5-.5-.8.8-.8 3.3 0 4.4-3.9 2.4-8.1-2.1-4.3-1.6-11.1.7-10.2 1.9.7 1.9-7 0-8.6-2.7-2.3-2.5-4.8.7-7.2l3.1-2.2-2.5-1c-2.2-.9-2.2-1-.4-1.4 1.1-.2 2.7-.7 3.5-1 2.5-1 3.8-1.4 7.2-2 1.8-.3 3.6-1.2 4.1-1.9.5-.9 2-.4 6 2.3 2.8 1.9 5.1 3.9 4.9 4.4-.1.5 1.1.9 2.7.9 6.3 0 9.3 1.2 11.4 4.7 1.5 2.6 2.2 3.1 2.8 2.1.7-1.1 1.1-1 1.9.2.5.8 1 2.3 1 3.2 0 1 .7 1.8 1.5 1.8s1.5.4 1.5.9c0 1.2 3.9 2.1 4.6 1 .8-1.4 4.6-1.1 7.9.7 2.7 1.4 3 1.4 4.2-.2.7-1 1.3-2.4 1.3-3.1 0-1.7 1-1.6 3.4.2 1.7 1.3 2.3 1.2 5.7-.6 3.3-2 4.2-2 8.7-.9 2.8.6 5.5.9 6 .6.6-.3 1.5.1 2.2.9.8 1 1.7 1.2 2.9.6 1.2-.7 2.4-.4 4.1 1 1.4 1 3.2 1.9 4.1 1.9.9 0 2.4.9 3.3 1.9 1.4 1.5 1.5 2.4.6 4-.8 1.6-.8 2.7.1 4.2.8 1.5.8 1.9 0 1.5-.7-.5-1.1.6-1.1 3.1 0 2.1-.7 5.1-1.5 6.7-.8 1.5-1.5 3.7-1.5 4.7 0 1.2-1 2.1-2.5 2.5-1.9.5-2.5 1.3-2.5 3.4 0 1.5-.6 3.3-1.4 4-1.7 1.3-1 4 1 4 .8 0 1.4.4 1.4 1 0 .5-.7 1-1.5 1-1.2 0-1.5 1.1-1.4 5 .1 2.7.6 5 1 5 .5 0 .4 1.2-.1 2.6-.6 1.5-.8 4.1-.4 5.9.3 1.9.1 3.5-.5 3.9-.6.4-2 2.7-3.1 5.1-1.1 2.4-2.9 4.6-3.9 5-1.1.3-2.3 1.4-2.6 2.4-.3 1-2.1 2.2-4.3 2.7-2 .5-3.7 1.3-3.8 1.9 0 .5-.3 1.7-.7 2.5-.3.8-.8 3.2-1.2 5.2-.4 2.6-1 3.5-2 3.2-.7-.3-3.2 1.4-5.8 4-3.2 3.3-5.2 4.6-7.3 4.6-2.1 0-2.5.3-1.7 1.1 1.3 1.3.6 4.2-.7 3.4-.5-.3-.9 1.3-.8 3.4 0 3.1.6 4.4 2.4 5.6 2.6 1.7 3.3.5.9-1.8-1.2-1.3-1.1-1.5 1.3-2 1.9-.4 3.1 0 4.2 1.4 1 1.3 2.2 1.8 3.3 1.3 2.5-.9 2.1.7-1 4.1-1.4 1.6-2.3 2.2-2 1.3.3-1-.1-1.9-1-2.3-2.3-.8-3.7.9-1.8 2.5 1.8 1.5 2 6 .3 6.1-.7 0 .2.7 2 1.5 1.7.8 3.2 2.1 3.2 3 0 1.1.5 1.4 1.6 1 .9-.3 2.2-.6 3-.6.8 0 1.4-.7 1.4-1.5 0-2.7 3.8-3.8 8.6-2.5 4.2 1.2 10.4 6 10.4 8 0 .6 1 1 2.3 1.1 1.2 0 3.3.2 4.7.4 1.4.1 3.3-.2 4.2-.6 1.4-.8 1.9-.4 2.4 1.8.4 1.6 1.3 3.6 2.2 4.5.8 1 1.2 2.7.9 3.9-.4 1.6.4 3.1 3.3 5.8 3 2.8 3.8 4.2 3.3 5.9-.4 1.7.2 2.6 2.6 3.9 3.5 2 3.9 3 1.4 3.5-1.5.4-1 1.2 2.3 4.4 3.8 3.8 4 4.1 2.6 6.2-.8 1.2-2.1 2.2-2.8 2.2-1.3 0-1.9 2.5-1.5 5.7.1.7-.2 1.3-.6 1.3-.4 0-.9 2.7-1 6-.1 6.1.5 7 3.6 5.1.7-.5 1.1-1.3.7-1.9-.4-.6.4-2 1.6-3.2 2.1-2 2.3-2 3.5-.4 1.4 2 1.8.7.4-1.5-.5-.7-1.4-1-2-.7-1.5 1-1.4-.7.2-2.3 1-1.1 1-1.3 0-.7-.7.4-1.3.2-1.3-.4 0-.6.7-1.3 1.5-1.6.8-.4 1.5-1.8 1.5-3.3l.1-2.6 1.8 2.2c1 1.2 2.1 2 2.5 1.8.3-.3.4-.2.1.2-.3.3 0 1.2.6 1.9 1.6 2 6.9.6 10.4-2.7 1.7-1.6 3.7-2.9 4.3-2.9.9 0 1.1-1.1.6-3.8-.4-2.4-.3-3.4.3-2.7 1.6 1.6 2.4 7.5 1.1 7.5-.6 0-.2 1 1 2.2 1.1 1.3 2.1 2.7 2.2 3.3.1.9 4 2.9 4 2 0-.2-.4-1.5-1-2.9-.8-2.2-.7-2.6.9-2.6 1 0 2.2-.7 2.5-1.6.4-1 1.4-1.4 2.6-1.1 1.4.3 2.4-.1 3.1-1.4.8-1.6.4-2.7-2.5-6.1-4.3-4.9-4.5-6.5-1.1-7.8 1.4-.5 2.5-1.4 2.5-2 0-.5 1.3-2.2 3-3.6 1.6-1.5 2.7-3.1 2.3-3.7-.4-.6 0-.8 1-.4 1.2.4 1.7.1 1.7-.9 0-1.3-.6-1.5-2.7-.9-1.6.4-4.2.7-5.9.8-3.4.2-6.4 2.2-6.4 4.3 0 .8-.9 1.4-2.1 1.4-1.5 0-1.9.5-1.5 1.5.3.9-.3 1.9-1.4 2.5-1.1.6-2 1.9-2 3 0 2.1-3.1 8-4.3 8-.4 0-1.8-1.1-3.1-2.5-2.7-2.9-8.3-3.5-9.2-1-.4 1-1.3 1.3-2.4 1-1.1-.4-2.2.1-2.8 1.1-.8 1.4-1.2 1.3-3.5-.9-2.6-2.3-2.6-2.5-.9-4 2.5-2.3 7.8-3.2 9.6-1.8 1.1.9 1.5.8 2-.4.3-.9 0-1.5-.9-1.5-2.1 0-1.9-4.3.4-9 3.1-6.5 4.5-13.8 3-15.6-.7-.8-1.8-1.3-2.4-1-1.9.7-7.7-5.8-6.4-7.1.8-.8.5-1.7-1-3.2-2.1-2.1-2.9-4.7-1.2-3.6.6.3 1.4-.3 2-1.2.5-1 1.3-1.5 1.7-1.1.9 1 4.6-1.1 3.9-2.2-.8-1.3 3.8-2.3 8.1-1.8 2.9.3 3.9-.1 5.9-2.4 1.3-1.5 3-2.8 3.9-2.8.8 0 1.8-.5 2.2-1.1.3-.6 1.7-.8 3-.5 1.3.4 2.5.3 2.5-.1.1-.5.3-3.7.4-7.1.2-4.9.8-6.9 2.5-8.7 1.2-1.2 2-3.1 1.8-4.1-.2-1.4.4-2 2.5-2.2 2.1-.3 2.7-.9 2.7-2.7 0-1.3.5-2.7 1-3 2-1.2.9-2.5-2-2.5-2 0-3-.5-3-1.5 0-.8-.9-1.5-1.9-1.5-1.9 0-5.1-6.1-5.1-9.9 0-1-1-2.5-2.2-3.4l-2.3-1.5 2.5-2.7c1.9-2.1 2.2-2.9 1.1-3.3-1.1-.3-.9-.9.8-2.1 2.7-2.1 6.6-14.8 5-16.8-.7-.7-1-4.3-.7-8.8.2-4.8 0-7.1-.6-6.5-2.7 2.7-5.7-1-3.3-3.9.8-1 1.1-2.9.8-5.1-.5-3-.9-3.5-3.1-3.2-1.7.2-3.6-.8-5.7-2.8-3.5-3.3-4.3-6-1.7-6 .8 0 1.3.4 1 .9-.3.5 0 1.1.8 1.4 2 .8 2.6-2.4 1.1-6.6-1-3-1-3.8.2-5 1-.9 1.3-2.3.8-3.7-.6-1.9-1.2-2.1-4-1.6-1.8.4-3.6.3-3.9-.2-.3-.5-1.6-.7-2.8-.5-1.7.3-2.6-.2-3.3-1.9-.8-1.7-1.7-2.2-3.7-2-1.8.2-2.8-.3-3.2-1.6-.4-1.2-1.5-1.8-3.4-1.7-2.1 0-2.8-.5-3-2.3-.2-1.2.1-2.2.7-2.2s1.1-.7 1.1-1.6c0-1 .6-1.4 1.5-1.1 1.9.8 3-1.2 1.6-2.6-.9-.9-1.6-.6-3 1.1-1.4 1.9-2.3 2.2-4.5 1.6-3.3-.8-5 1-3.5 3.9.7 1.3.7 2.3-.1 3.2-.9 1.1-.8 1.9.4 3.6 1.4 2.1 1.4 2.4-.4 3.6-1.1.8-2.4 1.2-2.9.9-.5-.3-1.1.1-1.5.9-.4 1 .1 1.5 1.5 1.5 2.6 0 7.2-4.9 6.4-6.9-.5-1.3 1-3 2.8-3.1.4 0 .7 1.3.7 3 0 1.6-.4 3-1 3-.5 0-.9.5-.7 1.2.1.6-.7 1.6-1.8 2.2-1.2.7-1.9 1.9-1.7 2.9.3 1.6.1 1.7-1.8.7-1.3-.7-2.6-.8-3.3-.2-.8.6-2 .2-3.7-1.4-2-2-2.2-2.4-.7-2.4 1.9 0 2.2-1.1.8-2.5-.5-.6-1.1-3.8-1.3-7.2-.3-6.2-.2-6.3 2.7-7.4 1.7-.7 3.5-1.2 4-1.3.6-.1 1.1-1.1 1.3-2.3.2-1.2 1.2-2.5 2.3-2.8 1-.4 1.9-1.3 1.9-2.1s.5-1.4 1-1.4c.6 0 1-.9 1-2s.9-2.5 1.9-3.2c1-.6 1.7-1.8 1.4-2.5-.3-.7.2-1.3 1.1-1.3.9 0 1.6.5 1.6 1.2 0 .6.7.4 1.8-.5 1-1 2.6-1.7 3.4-1.7.9 0 2.3-1.1 3.2-2.5.9-1.4 2.1-2.3 2.6-2 .6.4 1 .2 1-.4 0-.5-.5-1.3-1.2-1.7-.8-.5-.6-1.1.5-1.9.9-.7 1.8-2.3 2-3.6.3-1.9 1.1-2.5 3.6-2.7 2.2-.2 3.1-.8 2.7-1.7-.6-1.7 1.5-2.5 6.4-2.5 3.7 0 6.1-2.2 4-3.5-.6-.4-1-1.8-1-3.3 0-1.5-.9-4.7-2-7.1-2.5-5.4-2.5-5.7 0-6.4 2.1-.5 2.8-4.1 1-5.2-1.8-1.1-1-2.2 1.3-1.8 1.2.2 3.5-.1 5.1-.7l2.9-1.1-2.2-2.2c-1.1-1.3-2.1-2.9-2.1-3.5 0-.7-.8-1.2-1.8-1.2-1.8 0-5.2-2.9-5.2-4.4 0-2-5.6-8.5-8.9-10.4-4.4-2.5-5.2-2.7-4.8-1.1.3 1.5-1.5 2.1-3.2 1-.8-.5-1.1-1.6-.7-2.6.5-1.4 1.4-1.6 4.5-1.1 2.7.4 4.1.2 4.3-.6.3-.8 1.2-.1 2.2 1.5 1 1.5 2.5 2.7 3.2 2.7.8 0 1.4 1 1.4 2.3 0 2.2 2.7 5.7 4.4 5.7.4 0 1.8-.7 3.2-1.6l2.5-1.7-3.2-1.9c-2.3-1.4-2.9-2.2-1.9-2.8.7-.4 1.3-1.9 1.3-3.4 0-1.6.5-2.6 1.4-2.6 1.1 0 1.3-.7.9-2.7-.5-1.6-.3-2.9.5-3.4 1.8-1.1-.8-4.1-3-3.5-5.9 1.6-7.1 1.6-7.1.2 0-.9-.8-2-1.8-2.5s-1.8-1.9-1.9-3c-.1-1.3.2-1.9.9-1.5.7.4.8.2.4-.5-.4-.6-1.1-.9-1.5-.7-.4.3-1.3-.4-2-1.6-.7-1.1-.8-1.7-.2-1.3.7.4 1.1-.4 1.1-2.2 0-2.1.3-2.4 1-1.3.8 1.3 1.2 1.2 2.8-.6 1.9-2 2.3-4.9.9-7.1-.4-.7.5-1.6 2.3-2.5 2.1-.9 2.8-1.8 2.4-3-.7-2.3.8-2.3 2.9 0 1 1.1 1.3 2.2.7 3.1-.4.8-.6 2.1-.3 2.8.3.8.7 2.4.8 3.6.1 1.2.3 2.6.4 3.1 0 .4.7.6 1.5.3 3.4-1.3 11.7 13.4 9.7 17.2-.9 1.5-.6 2.2 1.4 3.5 2.7 1.8 3.2 3.8 1.2 5.4-.8.7-1.8.6-3.1-.4-2.5-1.8-3.7-1.8-3 0 .3.8.1 1.7-.5 2-2.1 1.3 1.8 5.9 6.6 7.8 11 4.4 15.6 4.4 17.5.2.6-1.3 1.9-2.4 3-2.4 1.3 0 1.8-.7 1.8-2.8 0-2.3.7-3.2 3.6-4.5 2.6-1.3 4-1.5 4.9-.7.9.8 1.4.6 1.9-.5.7-1.9 4-1.9 5.6 0 1.7 2.1 3.5 1.9 5.2-.6 1.1-1.8 2.4-2.2 7.8-2.3 6.5-.1 13.5.7 17.8 2 1.3.4 2.2.2 2.2-.5 0-.6.7-1.1 1.6-1.1 2.2 0 8.3-7 7.6-8.8-.4-1.2 0-1.4 1.6-1 1.5.4 2.2.2 2.2-.9 0-.8.5-1.1 1.1-.7.6.3.9 1.7.6 3-.6 3.3 3.6 7.3 8.4 8 2.2.4 3.9 1 3.9 1.5s1.1.9 2.4.9c2.7 0 4.2 1.5 2.6 2.5-1.7 1.1-1.1 2.2 2 3.5 1.7.7 3 1.6 3 2.1s1.1 2.7 2.4 4.8c2.5 3.9 3.2 4.2 12.1 5.3 1.3.2 3.1 2.3 4.9 5.7 2.5 4.7 2.7 5.7 1.6 7.5-.9 1.4-.9 2.1-.2 2.4.6.2.9.9.6 1.6-.3.8.2 1.6 1 1.9.9.4 1.6 1.5 1.6 2.6s.5 3.2 1.2 4.7c1.1 2.4.9 2.9-2.9 6.5-3 2.7-3.8 4.1-2.9 4.6 2.9 1.9 9.6 13 9.6 16.1 0 1.8-.5 3.2-1.1 3.2-1 0 1.8 5.9 3.5 7.1.4.4 1 2.7 1.1 5.2.2 2.4 1.1 6.6 1.9 9.1.9 2.6 1.6 5.2 1.6 5.9 0 2.7 2.6 6.7 4.3 6.7 1 0 4.1 1.6 7 3.5 2.8 1.9 5.9 3.5 6.7 3.5 2.3 0 6.5 4.1 5.1 5-1.5.9-.4 3.9 2.6 7 1.9 1.9 2.4 3.3 2.1 6.5-.3 3.8-.2 4 2.5 3.7 1.9-.2 2.7.2 2.7 1.3 0 .9-.9 1.5-2.5 1.5-1.4 0-2.5.4-2.5.9 0 1.4 1.8 2.3 2.4 1.3.8-1.3 5.3-.3 6.7 1.4.6.8 1.8 1.4 2.5 1.4.8 0 1.7 1.1 2 2.6.6 2.2 1 2.4 3.8 1.8 1.7-.3 4.5-1.4 6.1-2.3 1.7-1 3.8-1.6 4.8-1.4 1 .3 1.7-.1 1.7-1 0-.8 1.1-1.8 2.5-2.1 1.4-.4 4.1-2.1 5.9-3.9 2.6-2.5 3.5-4.3 4-8.1.3-2.7.8-5.2 1.1-5.4.3-.3 1.7 0 3.1.7 1.5.6 3.5.9 4.5.6 1.1-.4 3.1.2 5 1.5 2.1 1.6 3.9 2.1 5.8 1.7 1.8-.4 3.7 0 5.2 1.1 1.3.9 4 1.8 5.9 1.9 1.9.2 5.5.6 7.8.9 2.7.4 4.8.2 5.5-.5 1.4-1.4 6.7-1.5 6.7-.1 0 1.3 7.7 1.3 8.5 0 .3-.5 1.3-.6 2.3-.3 3.8 1.5-3.5-5.6-8.3-8-4.2-2.1-5.3-3.2-6.8-7.3-1.3-3.5-1.4-5-.6-6 1.6-1.9.3-6.1-2.1-6.7-1.3-.3-2-1.3-2-3s-1.2-3.2-4.2-5.3c-2.4-1.6-5.1-3.2-6-3.6-2.2-.9-2.3-3.1-.3-4.8 2-1.7 1.9-3.2-.5-5.3-1.1-.9-2-2.3-2-3 0-1.5 3.7-2 4.5-.7.3.5 1.2.7 2 .4.8-.4 1.2-1.1.9-1.6-.4-.6.3-.5 1.5.1 2.4 1.3 2.8 3.1.6 3.1-.9 0-1.2.6-.9 1.5.4.8 1.5 1.5 2.6 1.5 1.4 0 1.8-.5 1.4-1.5-.3-.9.1-1.8.9-2.1.8-.4 1.5-1.3 1.5-2.1 0-.7 1.2-1.9 2.8-2.6 1.8-.8 2.6-1.8 2.4-3-.5-2.4 1.7-4.9 3.7-4.2.9.4 2.5.8 3.7.9 1.7.2 1.9-.2 1.6-2.6-.2-1.5-.7-2.8-1.1-2.8-.3 0-1.1-.8-1.8-1.9-1-1.6-.8-1.8 1.7-1.7 1.5.1 2.6.4 2.4.7-.2.4.6 1.5 1.7 2.5 1.6 1.5 2.2 1.6 2.9.5.5-.9 1.9-1.2 3.9-.9 2.2.3 3.1 0 3.1-.9 0-.8.9-2.6 2.1-4.2 1.9-2.5 1.9-3 .5-5.7-2-3.9-2.9-6.4-3.2-9.3-.2-1.3-.5-2.6-.8-2.8-.6-.7 3-7.9 4.3-8.7 1.2-.8-1.4-6.2-5.1-10.4-2-2.4-2.6-3.7-1.9-4.6.6-.7.6-1.7.1-2.6-1.4-2.2-1.2-3.3.6-2.6 2.6 1 3.7-.4 1.8-2.5-1.3-1.5-1.4-1.9-.3-1.9 1.2 0 1.2-.2 0-.9-1.1-.7-1-1.4.8-4 2-2.8 2.1-3.3.7-5.9-1.3-2.6-1.3-2.9.5-4 1.3-.8 1.9-2.3 1.9-4.6 0-1.8.7-3.9 1.5-4.6.8-.7 1.5-2.5 1.5-4.1 0-1.9.5-2.9 1.5-2.9 1.3 0 1.4-.4.4-2.3-.6-1.2-1.9-3-2.7-4-1-1.1-1.5-3.2-1.4-5.1.4-3.7-4.7-14.2-8.1-16.8-1.8-1.4-2.2-2.8-2.3-7.2 0-3.1-.4-5.9-.7-6.3-.4-.3-.1-1.6.6-2.7.8-1.2 1.3-3.8 1.3-5.9-.2-3.1.2-3.9 2-4.3 1.3-.3 3.1-.3 4.2 0 2.1.7 3.1-1.1 5.2-9.2.6-2.3 1.6-4.2 2.1-4.2.6 0 .9-.7.5-1.5-.3-.8 0-1.5.7-1.5s1.3-1.5 1.4-3.3c.1-2.8-.3-3.5-2.7-4.4-2-.8-3.1-.8-3.9 0-1.2 1.2-4-1.7-4.1-4.1 0-1.2-1.8-1.7-5.2-1.4-1 .1-1.8-.5-1.8-1.3s-.4-1.5-1-1.5c-1.5 0-5-3.8-5-5.4 0-2.9-1.3-4.7-4.4-6-2.5-1.1-3.7-2.5-5.3-6.7-1.4-3.9-2.8-5.8-4.9-6.8-3.2-1.6-8.4-6.5-8.4-8.1 0-.6-.7-.6-1.9.2-1.6 1-2.5.7-5.5-2-2-1.8-4.4-3.2-5.2-3.2-.8 0-1.3-.4-1-.8 1-1.6-2.2-4.9-4.6-4.7-2.2.2-3.8-1-3.8-2.8 0-.5.4-.6.9-.3s1.1-.3 1.4-1.4c.3-1.1 1.1-1.8 1.9-1.6.7.2 2.7.7 4.4 1 2.6.4 3.3.1 3.7-1.5.4-1.5 1.1-1.9 2.4-1.5 1.4.4 2.4-.2 3.6-2.4 1.1-1.7 2.7-3 3.8-3 1.3 0 1.8-.4 1.3-1.2-.5-.8-.2-.9.9-.5 1.8.7 3.8-1.9 3-3.9-.2-.6.4-1.4 1.4-1.6 2.3-.6 4.2-6.4 3.3-9.8-.4-1.4-.3-3.1.3-3.7.5-.7.7-2.2.4-3.3-.5-1.8-.3-1.9 2.2-.5 1.8.9 3.2 1 4.2.4.8-.5 2.4-.9 3.7-.9 1.2 0 2.2-.5 2.2-1.1 0-.7 1.2-.9 3.1-.7 2.3.4 3.7-.1 5.5-1.9 2.3-2.3 6.7-3 14.7-2.5 1.9.2 3.8-.7 6-2.8 1.8-1.6 3.8-3 4.5-3 .6 0 1.2-.6 1.2-1.4 0-.8 1.1-1.7 2.4-2 1.3-.3 2.6-1.5 2.9-2.6.6-2.3 2.7-2.7 2.7-.6 0 .8.5 1.8 1.2 2.2.8.5.9.2.5-.9-.7-1.8.8-3.3 1.8-1.7.4.6 2.2.7 4.4.4 2.4-.4 4.1-.2 4.5.5.4.6.1 1.1-.7 1.1-1.5 0-1 5.1.8 8.1 1.5 2.5 5 3.2 6.5 1.4.7-.8 2.2-1.5 3.4-1.5 3.9 0 7.1-2.3 8.8-6.1 1.6-3.7 1.6-3.8-.5-4.5-2-.7-2-.8.8-1.6 1.7-.5 4.2-.6 5.8-.4 1.5.3 2.7.1 2.7-.4 0-.6.7-1 1.5-1s1.5-.9 1.5-2.1c0-1.3 1.1-2.5 3.3-3.5 6.8-3 10-5.9 9.2-8.2-1.7-4.7-1.6-6 .3-6.7 1.9-.5 2-.9.8-3.8-1.5-3.6-1.1-5.7 1-5.7 1.9 0 5.1-5.5 5.9-10.2.6-3.4.9-3.7 2.3-2.6 1.3 1.1 1.5 1 .9-.4-.4-1.1 0-2.1 1.1-2.7 1.5-.8 1.5-1.4.5-4.2-1.4-3.7-1.1-4.5 1.4-3.4 1 .5 2.1.7 2.6.7.4-.1.7.2.7.8 0 .5-.4 1-1 1-.5 0-1 .9-1 2.1 0 1.1.4 1.8.9 1.5 1.4-.9 5 3.8 4.8 6.2 0 1.2-.4 2.2-.8 2.2s-.6 1.1-.5 2.5c.1 2.7.4 2.9 2.5 1.6.8-.5 1.1-1.6.8-2.6-.5-1.1-.3-1.4.6-.8.6.4 1.9.8 2.7.8 2.3 0 2.5 5.4.3 7-1.3.9-2.2 1-3 .3-1-.8-1.3-.5-1.3 1 0 1.8.3 1.9 3 .9 1.8-.7 3.3-2.1 3.7-3.5l.5-2.3 3.2 1.9c2.4 1.4 3.7 1.6 5.4.9 1.2-.6 2.2-1.6 2.2-2.2 0-.7.7-1.8 1.5-2.5 1-.9 1.2-1.7.5-3-1.1-2 0-3.3 3.6-4.4 2.8-.8 2.6-5.3-.2-4.8-1 .2-2.2.9-2.5 1.4-.4.6-.9.5-1.2-.3-.3-.8-.6-.2-.6 1.2-.1 1.8-.8 2.8-2.1 3.2-1.1.3-2 1.2-2 2.1 0 1-.6 1.3-1.5.9-.9-.3-2.1.2-2.8 1.1-.8 1.1-1.9 1.5-3 1-1.6-.6-1.6-.9-.4-2.3 2.8-3.2 2.6-5.9-.4-9.7-1.6-2-2.9-4.1-2.9-4.5 0-.5-1.1-.8-2.5-.7-1.4.1-2.5.6-2.5 1 0 1.9-2.8.6-3.3-1.5-.3-1.2-1.2-4.8-2.1-8-.9-3.2-1.4-6.2-1.2-6.6.3-.4-.8-1.6-2.4-2.6-1.6-1.1-3.5-3-4.1-4.2-.7-1.3-1.9-2.3-2.8-2.3-1-.1.8-2.3 4.3-5.5 5-4.6 5.7-5.8 5.2-8-.5-2.1-.2-2.7 1.9-3.5 1.4-.5 2.5-1.5 2.5-2.2 0-.6.8-2.1 1.9-3.2 1-1.2 2.3-3.5 2.8-5.1.7-2.2 1.7-3.1 3.9-3.5 2.4-.4 3.4-1.6 5.7-6.3 1.5-3.1 3.2-5.7 3.7-5.7s1.8-1.9 2.9-4.1c1.6-3.3 1.8-4.6.9-6.2-.8-1.7-.7-2.3.8-3.3 3.8-2.6 4.4-3.5 4.4-6.4 0-2 .7-3.3 2.3-4.1 1.2-.7 2.5-1.7 2.9-2.2.4-.7 1.2-.6 2.3.3 1.5 1.2 1.5 1.5.2 2-2.4.8.2 3.5 4.2 4.3 2.7.6 3.1.4 2.2-.6-.7-1-.7-1.7 0-2.4s.8-1.7.3-2.5c-.5-.7-.7-2.3-.5-3.6.2-1.8-.2-2.2-2.3-2.2-2.7 0-3.3-.9-1.6-2.6.7-.7.8-1.9.1-3.7-1-2.7-.4-3.4 1.5-2 .5.5-.1-.1-1.3-1.2l-2.3-1.9 3.2-1.6c2.4-1.1 3.4-2.3 3.6-4.3.2-1.5.8-2.7 1.3-2.7s.9-1.1.9-2.4c0-1.4.5-2.8 1-3.1 1.6-1 1.1-3.3-.7-3.7-2.9-.6-5.5 2.6-5.5 6.7 0 2.1-.6 3.9-1.3 4.1-.7.3-1.6 1.6-1.9 3-.4 1.5-1.4 2.4-2.6 2.4-1.5 0-2 .7-2 2.5 0 2.5-1.4 3.3-2.5 1.5-.9-1.4-3.3-.1-3.1 1.8.1 2.1-4 4.2-8.7 4.2-5.5 0-16.7 6.6-16.7 9.8 0 1.5-.7 2.6-1.9 2.9-1.2.3-1.7 1.1-1.4 2 .7 1.7-1.3 3.3-4.2 3.3-1.3 0-2.8 1.5-4.3 4-1.3 2.3-3.2 4.2-4.5 4.4-7.6 1.5-8.5 1.5-8.3-.2.1-1.3-.7-1.7-3.2-1.7-2.7 0-3.4-.4-3.8-2.5-.3-1.4-.9-3.3-1.5-4.3-.6-1.1-.6-1.7.2-1.7s.9-.4 0-1.3c-1.3-1.6-.5-2.7 2.1-2.7 1.7 0 2.3-1.5 2-5.3-.1-1 .3-1.5.8-1.2.6.3 1-.4 1-1.7 0-1.3.3-3.3.6-4.6.5-1.6.2-2.2-.9-2.2-1.9 0-3.7-2.9-3.7-5.8 0-2.5-7.6-10.4-12.1-12.7-3.4-1.7-8.2-6.4-12.7-12.4-1.3-1.7-3-3.1-3.7-3.1-.8 0-2.3-1.3-3.4-2.9-1.3-1.7-3.8-3.5-6.3-4.3-2.9-.9-5-2.4-6.6-4.8-1.3-1.9-2.6-3.4-3-3.2-.4.2-.9-.5-1.1-1.5-.5-2.7-2.3-4.5-3.3-3.5s-5.3 0-10-2.4c-1.4-.8-3.3-1.4-4-1.4-.8 0-2-1.1-2.6-2.4-.9-2-.8-3.2.4-5.6 1.4-2.8 1.4-3.4 0-6.4-2-4.3-2.1-7.6-.1-7.6 2.1 0 1.9-.6-1.1-4.5-1.4-1.9-2.3-3.9-1.9-4.5.8-1.3-2.2-5-4.2-5-.7 0-1.3-.4-1.3-.8s-1.4-1.3-3-1.9c-2.2-.8-3.2-2-3.6-4.2-.5-2.6-1.1-3.1-3.4-3.1-3.2 0-11.6-6.2-12.3-9.1-.5-1.7-.9-1.9-2.6-1-5.4 3-14.2-.9-12.5-5.4.5-1.3.4-1.6-.5-1.1-.8.5-1.2.3-1-.5.3-2.9-.2-3.7-2.6-4.2-2-.3-2.5-.1-2.3 1.2zm1.8 32.1c0 .5-.2 1-.4 1-.3 0-.8-.5-1.1-1-.3-.6-.1-1 .4-1 .6 0 1.1.4 1.1 1zm6 15.2c0 .4-.7.8-1.5.8s-1.5-.4-1.5-.8c0-.5.7-.9 1.5-.9s1.5.4 1.5.9zm20 25.3c0 .8.3 1.4.8 1.4 1.9-.3 3.2.2 3.2 1.3 0 .6-.3.8-.7.5-.3-.4-1.7.5-3 1.9-2.2 2.4-2.7 2.5-5.1 1.5-5.5-2.5-7.6-4.3-6.1-5.2 2.3-1.4 6.1-1 8.1.8 1.9 1.7 1.9 1.6 1.3-1-.5-1.7-.3-2.7.4-2.7.6 0 1.1.7 1.1 1.5zm19.5 33.4c.3.5.1 1.2-.5 1.6-.5.3-1-.1-1-.9 0-1.8.6-2.1 1.5-.7zm-281.5 40.1c0 .5-.2 1-.4 1-.3 0-.8-.5-1.1-1-.3-.6-.1-1 .4-1 .6 0 1.1.4 1.1 1zm351.5 1c.3.5.1 1-.4 1-.6 0-1.1-.5-1.1-1 0-.6.2-1 .4-1 .3 0 .8.4 1.1 1zm-428.5 198c0 .5-.5 1-1.1 1-.5 0-.7-.5-.4-1 .3-.6.8-1 1.1-1 .2 0 .4.4.4 1zm305.5 10c.3.5.1 1-.4 1-.6 0-1.1-.5-1.1-1 0-.6.2-1 .4-1 .3 0 .8.4 1.1 1zm-245 70.1c-.9 1.4-3.4-.2-2.8-1.7.4-1.1.9-1.2 1.9-.3.8.6 1.1 1.5.9 2zm117.3 39.7c.3 1.6-.2 2.2-1.7 2.2-1.1 0-2.3-.5-2.6-1-.3-.6-.1-1 .4-1 .6 0 1.1-.7 1.1-1.6 0-2.3 2.4-1.1 2.8 1.4zm-139.8-.8c0 .5-.4 1-1 1-.5 0-1-.5-1-1 0-.6.5-1 1-1 .6 0 1 .4 1 1zm107.5 6.6c.6.1 2.2.4 3.8.8 1.6.4 2.7.2 2.7-.4 0-1.9 1.5-1 3.2 2 1.9 3.3 1.1 4.4-2.7 3.4-2.2-.5-2.5-.3-2.5 2 0 1.6-.6 2.6-1.5 2.6s-1.5.9-1.5 2.5c0 3.4-1.8 3.2-2.5-.3-.4-1.5-.9-3.4-1.3-4.2-.9-1.9-.3-10.7.6-9.5.4.6 1.2 1.1 1.7 1.1zM802.95 123.866c-.7.8-1.3 1.9-1.3 2.5 0 .5-.3 1-.7 1-.5 0-.8 1.6-.9 3.5 0 1.9.3 3.5.8 3.5 1.6 0 4.8-4 4.8-6 0-1.1.5-2 1-2 1.2 0 .9-2.2-.5-3.2s-1.8-.9-3.2.7zM808.65 126.266c0 .5.5 1.3 1 1.6.6.3 1 .2 1-.4 0-.5-.4-1.3-1-1.6-.5-.3-1-.2-1 .4zM339.65 130.266c0 .5.5 1.3 1 1.6.6.3 1 .2 1-.4 0-.5-.4-1.3-1-1.6-.5-.3-1-.2-1 .4z"/><path d="M763.15 139.466c-.9 2.8-.2 3.3 1.3.9.6-1.1.8-2.1.3-2.5-.5-.3-1.3.4-1.6 1.6zM764.95 143.166c-.6 1.1-.8 2.5-.3 3.2.6 1 .9.9 1.3-.1.3-.8.8-.1 1.2 1.6.9 4 2.5 6 5.5 6.8l2.5.6-2.7-2.2c-1.5-1.2-3-3.6-3.3-5.2-1.6-7.3-2.2-7.9-4.2-4.7zM336.25 232.166c-.3.6-.1 1.4.5 1.7 1.4.9 2 .2 1-1.4-.6-.8-1.1-.9-1.5-.3zM744.65 275.566c0 .7.4 1.9.9 2.6.6 1.1 1 1 1.9 0 .8-1.1.6-1.7-.9-2.6-1.5-1-1.9-1-1.9 0zM747.25 283.866c.4.8.8 1.5 1 1.5.2 0 .4-.7.4-1.5s-.4-1.5-1-1.5c-.5 0-.7.7-.4 1.5zM739.85 288.766c-1.1 1.5-2.8 2.6-3.7 2.6-1.5 0-1.5.2-.4 1.6.8 1 1.5 1.2 1.7.5.5-1.5 3.8-1.4 7 .3 2.4 1.2 3 1.2 4.7-.2 2.5-2.1 3-4.8 1-5.6-1.1-.4-1.9.3-2.5 1.9-1.3 3.3-2.2 3.2-1.8-.3.4-3.8-3.2-4.3-6-.8zM753.15 292.366c-.3.5.2 1 1.2 1 1.7.1 1.7.1 0 1.4-1 .8-1.5 2-1.1 3 .8 2.1 2 2 4.4-.4 2.4-2.4 2.7-5.5.5-4.7-.8.4-1.7.2-2-.3-.8-1.3-2.2-1.3-3 0zM593.65 376.266c0 .6.4 1.3 1 1.6.6.3.7-.1.4-.9-.7-1.8-1.4-2.1-1.4-.7zM606.85 382.566c.3 2 1 2.3 5.6 2.6 5.2.3 6.5 1.5 4.1 3.9-3.3 3.3 3.7 9.7 8.1 7.3 1.1-.6 2-1.7 2-2.5s.9-1.5 1.9-1.5c1.4 0 1.8-.7 1.7-2.4-.1-2.1-.9-2.6-5.1-3.5-2.7-.6-5.7-1.3-6.5-1.5-.8-.3-1.8-.5-2.2-.5-.5-.1-.8-.8-.8-1.6 0-1.7-1.6-2-2.5-.5-.4.7-1.4.5-2.8-.5-3-2.1-3.9-1.9-3.5.7z"/><path d="M617.35 381.066c-.4.3-.7 1.1-.7 1.7 0 .6.5.5 1.2-.2.6-.6.9-1.4.7-1.7-.3-.3-.9-.2-1.2.2zM654.65 449.266c0 .5.7 1.2 1.6 1.5 1.4.5 1.5.4.4-.9-1.4-1.7-2-1.9-2-.6zM192.45 523.066c.7.3 1.6.2 1.9-.1.4-.3-.2-.6-1.3-.5-1.1 0-1.4.3-.6.6zM192.95 527.266c-1 1.5-.8 2.2.8 3.7 1.8 1.6 1.9 1.6 1.9-.7 0-3.7-1.3-5.2-2.7-3zM458.65 533.966c0 1.3 1.8 3.9 2.4 3.4.2-.3-.2-1.4-1-2.4-.8-1.1-1.4-1.6-1.4-1zM350.15 539.366c-.3.5-.1 1 .4 1 .6 0 1.1-.5 1.1-1 0-.6-.2-1-.4-1-.3 0-.8.4-1.1 1zM371.35 551.966c.2.7 0 1.5-.6 1.9-1.9 1.1-1.2 2.6 1.2 2.3 3-.4 3.9-5.8.9-5.5-1.1 0-1.8.6-1.5 1.3zM181.65 570.666c0 1.9 3.3 5.5 4.6 5 2-.8 1.7-3.3-.4-3.3-1 0-2.3-.5-3-1.2-.7-.7-1.2-.9-1.2-.5zM329.95 601.366c-.1 1.1.2 2.2.8 2.5.5.4.9-.5.9-1.9 0-3-1.5-3.5-1.7-.6zM338.15 605.566c-1 2.1-3 4.2-4.6 4.9-1.6.6-3.1 1.9-3.4 3-.4 1.1-1.2 1.6-2.1 1.2-.7-.3-1.4 0-1.4.7 0 .8.9 1 2.5.6 1.4-.4 3.5-.1 4.6.5 1.5.8 2.4.8 3.2 0 .7-.7.7-1.1.1-1.1s-1.1-.7-1.1-1.5.4-1.5.8-1.5 1.1-1.5 1.4-3.3c.4-1.7 1.2-3.5 1.7-3.8.6-.4.8-1.3.6-2-.3-.9-1.2 0-2.3 2.3z"/><path d="M323.15 613.366c-.3.5-.2 1 .4 1 .6 0 .8.7.5 1.5-.7 1.8 2.2 5 3.1 3.5.4-.6 1.1-.8 1.6-.5.5.4.9.4.9 0 0-.3-1.1-1-2.4-1.5-1.8-.7-2.3-1.4-1.9-2.9.5-2.1-1.1-2.9-2.2-1.1zM318.45 623.266c-1.6 2.9-1.6 3 .9 4.6 3.5 2.3 5.1 1.4 4.5-2.7-.4-2.9-1.6-4.8-3.2-4.8-.3 0-1.3 1.3-2.2 2.9zM204.65 646.166c0 .4.9.8 2 .9 1.1.1 1.8-.2 1.5-.8-.7-1.1-3.5-1.2-3.5-.1zM634.35 668.066c-.4.4.4 1.9 1.8 3.3 1.4 1.5 2.5 3.1 2.4 3.6-.4 2.1.2 3.2 2.1 3.7 3.4.9 1.9-5.4-2.1-9.2-2.4-2.2-3.2-2.5-4.2-1.4zM346.85 675.566c.2.6 1 1.4 1.6 1.6.7.2 1-.2.6-1.2-.7-1.8-2.8-2.2-2.2-.4zM530.15 676.366c-.3.5.3 1 1.4 1 1.2 0 2.1-.5 2.1-1 0-.6-.6-1-1.4-1-.8 0-1.8.4-2.1 1zM191.65 691.866c0 .9-1 1.9-2.2 2.4-1.2.4-1.7 1.1-1.1 1.4.5.3 1.9-.2 2.9-1.2 1.1-.9 2.8-2.3 3.9-2.9 1.9-1.1 1.8-1.1-.7-1.2-1.9 0-2.8.5-2.8 1.5zM187.85 699.066c-1.7 3-1.5 3.7.4 1.9.8-.9 1.4-2.2 1.1-2.9-.2-.7-.8-.4-1.5 1zM181.05 703.466c.5 2.1.1 3-1.9 4.3-1.4.9-3 1.4-3.5 1.1-.6-.3-1 .1-1 .9 0 .9-.7 1.6-1.5 1.6s-1.5.7-1.5 1.5c0 2.5 2.4 1.7 5.9-1.9 1.9-2 4.8-3.7 6.7-4.1 1.9-.3 3.4-1 3.4-1.5s-.6-.7-1.4-.4c-.8.3-2.4-.5-3.6-1.8l-2.3-2.3.7 2.6zM161.25 715.866c-.3.8-.1 1.5.4 1.5.6 0 1-.7 1-1.5s-.2-1.5-.4-1.5-.6.7-1 1.5zM342.85 794.566c-.8.8-.4 2 1.9 5 3.5 4.3 4.9 4.2 4.9-.6 0-4.9-3.8-7.4-6.8-4.4zM350.45 837.066c.7.3 1.6.2 1.9-.1.4-.3-.2-.6-1.3-.5-1.1 0-1.4.3-.6.6zM313.15 842.366c-.3.5 0 1 .9 1 .8 0 2.3.3 3.3.7 1.7.6 1.7.6.1-1-1.9-1.9-3.4-2.2-4.3-.7zM322.65 845.866c-1.2 1.4-1.2 1.8.1 2.6.8.5 2 .9 2.8.9 1 0 1.2.8.8 2.9-.4 1.9-.1 3.3.8 4.1 1.1.9 1.5.9 1.5.1 0-.9.5-.9 2-.1 1.6.9 2.2.8 2.7-.6.3-.9 0-2-.8-2.5-1-.6-.2-.9 2.4-.9s3.7-.4 3.7-1.5c0-.9-.8-1.8-1.7-2.2-1-.3-2.4-1.1-3.1-1.6-.8-.6-2.1-1.2-3-1.3-1-.1-2.9-.4-4.3-.8-1.8-.5-2.9-.2-3.9.9zM306.65 858.066c-1.4.9-2.8 2.2-3.2 2.7-.6.8-1 .8-1.5 0-1.2-1.7-8.3-1.6-8.3.1 0 .7-.9 1.7-2.1 2-1.2.4-1.9 1.3-1.7 2.3.4 1.7 1.3 1.8 5.3 1.1 1.6-.3 2.1.3 2.6 3.1.4 1.9.7 2.8.8 1.8.2-3 11.8-3.5 13.9-.6.8 1.1 2.2 1.8 3.1 1.6 1-.2 2.5.3 3.4 1.1 2.4 1.9 2.1-.2-.3-2.4-1.1-1-2-2.4-2-3.1 0-2.2-3.1-3.3-6.1-2.2-1.6.5-3.6.8-4.6.5-1.4-.4-1.4-.5.4-.6 1.4-.1 2.2-.8 2.2-1.9 0-.9.2-2.9.4-4.5.2-1.5.4-2.7.3-2.7-.1 0-1.3.8-2.6 1.7zm-6.2 7.1c.6 1.8-1.5 1.4-2.2-.4-.4-1-.1-1.4.6-1.2.6.2 1.4 1 1.6 1.6z"/><path d="M310.85 858.566c.2 1.2.8 2.3 1.3 2.5 1.6.5 1.3-3.6-.3-4.2-.9-.3-1.2.2-1 1.7zM333.15 863.366c.6 1-.7 1.4-3.3 1.1-1.8-.3-7.5 5.7-6.7 7 .4.6 1.3.8 2.1.5.8-.3 2.1.5 3 1.9 1.7 2.5 5.4 3.5 5.4 1.4 0-.7.8-1.7 1.7-2.4 1.4-1 1.5-1.6.5-2.8-1.3-1.6-.6-5 .9-4.1.5.3.9-.4.9-1.5 0-1.6-.6-2.1-2.6-2.1-1.4 0-2.3.4-1.9 1z"/></g></svg>