<?xml version="1.0" standalone="no"?>
<!DOCTYPE svg PUBLIC "-//W3C//DTD SVG 20010904//EN"
 "http://www.w3.org/TR/2001/REC-SVG-20010904/DTD/svg10.dtd">
<svg version="1.0" xmlns="http://www.w3.org/2000/svg"
 width="213.662083pt" height="352.293016pt" viewBox="0 0 213.662083 352.293016"
 preserveAspectRatio="xMidYMid meet">
<metadata>
Created by potrace 1.15, written by Peter Selinger 2001-2017
</metadata>
<g transform="translate(-855.031407,1177.298575) scale(0.100000,-0.100000)"
fill="#222222" stroke="none">
<path d="M9568 11766 c-10 -7 -18 -18 -18 -25 0 -6 -4 -11 -10 -11 -5 0 -7 -6
-4 -14 8 -22 -37 -32 -51 -12 -7 9 -22 16 -34 16 -23 0 -28 -19 -10 -37 8 -8
5 -13 -11 -18 -17 -5 -19 -9 -9 -21 7 -9 13 -40 14 -70 2 -50 0 -56 -26 -71
-19 -12 -29 -25 -29 -42 0 -13 -11 -34 -25 -47 -18 -17 -24 -32 -23 -59 1 -20
-3 -40 -9 -43 -6 -4 -10 -18 -9 -32 1 -18 -5 -26 -20 -28 -32 -5 -91 -61 -108
-103 -13 -34 -13 -36 4 -32 20 5 56 -39 46 -56 -3 -5 0 -11 8 -14 8 -3 16 -24
18 -46 3 -32 0 -40 -10 -36 -7 2 -11 1 -8 -4 3 -5 -3 -20 -14 -34 l-20 -26 22
-15 c28 -20 57 -20 78 -1 16 15 20 13 44 -15 23 -28 28 -42 25 -66 0 -4 5 -11
13 -15 10 -7 11 -12 1 -28 -19 -31 -6 -53 27 -46 16 3 31 2 34 -4 10 -15 66
18 67 40 1 10 3 24 4 29 1 6 3 17 4 25 1 16 36 21 46 6 3 -5 1 -31 -5 -57 -9
-40 -8 -48 7 -59 23 -17 36 -9 23 15 -9 18 -9 27 7 68 3 9 5 25 4 35 -1 10 2
24 8 30 6 8 6 18 1 27 -11 17 -13 60 -4 60 4 0 13 -8 21 -17 14 -17 14 -17 8
1 -7 23 9 36 35 29 27 -7 34 -33 10 -33 -25 0 -25 -9 -2 -26 25 -19 40 -17 47
7 5 15 13 19 29 15 26 -6 100 14 124 35 21 18 35 7 40 -28 2 -17 -1 -21 -12
-17 -9 3 -28 3 -42 0 -20 -5 -25 -12 -21 -26 3 -11 2 -35 -3 -53 l-7 -33 54
25 c50 23 54 28 49 53 -3 16 -1 28 4 28 5 0 3 12 -5 26 -7 15 -11 33 -8 40 5
13 -12 19 -43 15 -19 -2 -27 32 -9 41 18 11 20 28 2 28 -11 0 -30 42 -44 97
-3 13 -2 31 3 40 4 10 8 21 8 26 1 4 16 16 35 28 27 16 36 18 42 7 6 -8 9 -2
9 20 0 19 -8 42 -20 54 -12 13 -16 24 -10 28 13 8 5 63 -15 93 -15 24 -53 47
-102 62 -13 3 -23 14 -23 24 0 10 -10 23 -22 29 -13 6 -17 11 -10 11 10 1 10
6 2 21 -8 15 -8 20 1 20 20 0 -21 39 -44 42 -13 2 -24 14 -29 33 -8 30 -27 56
-63 87 -17 14 -23 14 -37 4z m139 -163 c-3 -3 -11 -2 -17 2 -9 6 -9 10 1 16
14 8 27 -7 16 -18z m-207 -498 c7 -8 24 -16 39 -16 17 -1 20 -3 9 -6 -25 -6
-7 -39 26 -47 19 -5 25 -13 28 -46 2 -22 2 -40 -1 -40 -4 0 -73 71 -123 128
-18 20 -23 32 -15 36 20 8 24 7 37 -9z"/>
<path d="M9900 11490 c-13 -8 -12 -10 3 -10 9 0 17 5 17 10 0 12 -1 12 -20 0z"/>
<path d="M9960 11206 c0 -32 20 -44 36 -22 8 12 19 16 33 11 16 -5 19 -3 15 8
-5 15 -34 27 -66 27 -12 0 -18 -8 -18 -24z"/>
<path d="M10014 10988 c-15 -12 -34 -23 -42 -24 -26 -4 -25 -13 3 -24 20 -8
31 -7 42 2 8 6 26 12 40 13 15 0 28 6 30 12 3 7 11 9 19 6 8 -3 14 0 14 7 0 7
-8 10 -20 7 -10 -3 -24 1 -31 9 -15 19 -21 18 -55 -8z"/>
<path d="M9905 10990 c3 -5 13 -10 21 -10 8 0 14 5 14 10 0 6 -9 10 -21 10
-11 0 -17 -4 -14 -10z"/>
<path d="M9820 10752 c0 -12 19 -26 26 -19 2 2 -2 10 -11 17 -9 8 -15 8 -15 2z"/>
<path d="M9547 10650 c-26 -21 -44 -67 -30 -81 15 -15 59 3 74 30 12 20 13 33
6 49 -12 27 -18 27 -50 2z"/>
<path d="M9555 10550 c-4 -6 -2 -17 4 -24 7 -9 5 -17 -9 -29 -10 -8 -22 -32
-26 -52 -3 -20 -11 -34 -18 -32 -6 2 -24 -5 -39 -16 -26 -18 -28 -23 -22 -63
4 -27 2 -50 -6 -62 -9 -14 -9 -27 -2 -49 12 -33 6 -83 -9 -83 -6 0 -8 -13 -6
-30 3 -22 1 -30 -11 -30 -13 0 -14 -2 -2 -9 10 -6 12 -20 8 -45 -5 -33 -3 -38
21 -47 31 -12 72 -48 72 -63 0 -6 -9 -17 -20 -24 -11 -7 -20 -19 -20 -28 0
-12 -8 -14 -47 -9 -27 4 -56 9 -65 12 -11 3 -18 -1 -18 -10 0 -13 -6 -13 -36
-4 -33 10 -38 9 -54 -11 -12 -14 -29 -22 -49 -22 -29 0 -31 -2 -31 -39 0 -22
-4 -42 -9 -45 -5 -3 -12 -22 -15 -41 -4 -19 -13 -35 -20 -35 -14 0 -66 -62
-66 -78 0 -6 -7 -12 -15 -16 -9 -3 -15 -18 -15 -35 0 -16 -4 -33 -10 -36 -5
-3 -10 -17 -10 -31 0 -17 -5 -24 -20 -24 -11 0 -20 -4 -20 -10 0 -5 -9 -18
-20 -28 -15 -14 -20 -31 -19 -63 2 -68 -18 -148 -46 -188 -14 -21 -25 -42 -25
-49 0 -19 24 -14 38 8 7 11 23 20 36 20 15 0 34 12 49 31 l23 30 14 -43 c8
-24 13 -47 11 -52 -1 -4 9 -6 23 -2 18 4 25 2 28 -11 3 -13 6 -15 11 -5 6 8
-6 25 -32 49 -30 26 -38 39 -31 49 8 8 7 13 -2 17 -10 3 -10 7 -1 17 8 9 8 20
-3 46 -19 45 -18 47 15 30 26 -14 30 -14 35 0 3 9 6 27 6 40 0 28 17 31 37 7
23 -29 54 -93 52 -106 -3 -17 12 -67 20 -67 4 0 12 5 18 11 19 19 53 1 53 -29
0 -15 14 -43 30 -62 25 -30 35 -35 77 -37 26 -2 55 -3 64 -4 14 0 12 -5 -7
-26 -13 -14 -24 -30 -24 -36 0 -5 -7 -4 -15 3 -12 10 -15 9 -15 -5 0 -12 -6
-16 -20 -12 -17 4 -20 0 -20 -23 0 -16 5 -32 11 -35 14 -10 49 24 42 41 -6 16
13 19 22 4 3 -5 13 -10 22 -10 13 0 13 3 3 15 -10 13 -9 15 8 15 11 0 29 -11
40 -25 11 -14 25 -25 31 -25 6 0 11 -7 11 -16 0 -8 4 -12 10 -9 21 13 54 14
62 2 4 -6 5 -22 2 -34 -4 -14 2 -36 15 -56 31 -50 27 -87 -11 -121 -17 -15
-40 -28 -50 -29 -21 -1 -21 -2 -7 -28 6 -11 29 -28 52 -38 23 -10 54 -29 68
-42 25 -24 81 -59 93 -59 3 0 6 7 6 16 0 21 48 10 73 -17 23 -24 30 -24 22 1
-5 17 -2 20 23 20 16 0 35 -7 42 -15 15 -18 50 -20 50 -3 0 6 11 1 24 -11 31
-29 54 -19 32 14 -14 22 -14 23 9 27 15 3 30 -1 40 -12 16 -17 65 -25 65 -10
0 4 16 -8 35 -26 34 -32 35 -35 22 -61 -13 -26 -15 -58 -4 -69 2 -3 26 0 52 6
44 10 50 9 83 -16 32 -25 36 -26 47 -10 10 13 18 14 39 6 42 -16 44 -12 6 11
-44 27 -52 38 -45 67 3 12 1 22 -5 22 -6 0 -16 12 -22 28 -7 15 -23 39 -37 55
-24 26 -24 27 -6 41 15 11 20 29 22 91 1 43 -2 86 -7 96 -6 10 -6 27 -1 41 6
16 3 36 -9 64 -16 36 -16 43 -4 56 18 18 9 45 -17 53 -22 7 -38 73 -20 84 6 4
12 31 13 59 3 44 6 54 25 58 20 5 21 11 18 94 -2 48 -9 98 -16 111 -6 13 -11
50 -10 82 1 40 -3 67 -14 83 -15 23 -14 25 16 52 l31 28 -21 39 c-11 22 -21
49 -21 60 -1 28 -20 51 -52 59 -21 5 -28 13 -28 31 0 28 -33 55 -59 48 -22 -6
-33 26 -19 51 5 10 7 28 4 41 -4 15 -1 25 9 29 36 13 -6 90 -55 101 -17 4 -30
11 -30 16 0 5 11 7 24 3 13 -3 27 -1 30 5 4 6 18 11 30 11 27 0 37 30 40 114
1 39 5 50 21 56 12 4 26 15 33 23 7 8 21 13 32 10 11 -3 20 -1 20 5 0 6 13 17
30 25 23 12 36 13 59 4 25 -9 33 -8 48 6 12 10 27 14 41 10 13 -3 22 -1 22 6
0 6 7 11 15 11 9 0 28 11 43 25 15 14 31 24 37 22 12 -4 55 51 55 69 0 7 8 17
17 23 10 5 14 13 10 17 -4 4 -13 -1 -20 -10 -13 -17 -15 -17 -45 -2 -28 15
-32 15 -32 1 0 -20 -48 -20 -77 0 -18 13 -26 13 -50 3 -15 -7 -31 -17 -34 -21
-4 -5 -16 -4 -27 2 -28 15 -32 14 -32 -7 0 -11 -12 -22 -32 -30 -27 -10 -36
-9 -63 8 -20 12 -50 20 -78 20 -31 0 -47 5 -51 16 -5 14 -9 13 -36 -3 -16 -9
-30 -23 -30 -30 0 -7 -7 -13 -15 -13 -9 0 -15 -9 -15 -21 0 -20 0 -20 -25 -1
-21 17 -35 19 -85 15 -49 -5 -64 -2 -80 12 -13 12 -20 14 -20 6 0 -27 -43 -50
-82 -44 -30 4 -38 2 -38 -10 0 -21 -41 -16 -75 9 -16 12 -25 28 -25 46 0 16
-5 28 -11 28 -6 0 -9 12 -7 27 3 27 -15 43 -27 23z m-110 -1560 c3 -5 1 -10
-4 -10 -6 0 -11 5 -11 10 0 6 2 10 4 10 3 0 8 -4 11 -10z"/>
<path d="M8766 9070 c-3 -17 -11 -32 -18 -34 -73 -21 -100 -32 -114 -48 -10
-10 -24 -18 -32 -18 -8 0 -12 -6 -8 -15 3 -8 1 -15 -5 -15 -17 0 -39 -27 -39
-47 1 -16 2 -17 13 -2 7 9 27 20 45 24 37 8 93 34 77 36 -5 1 1 4 15 8 14 4
26 15 28 27 2 13 16 25 37 33 37 13 87 70 63 72 -7 0 -23 2 -34 4 -17 4 -23
-2 -28 -25z"/>
<path d="M10512 8378 c-24 -31 -32 -51 -30 -75 2 -29 7 -35 38 -43 19 -5 41
-10 48 -10 19 0 26 28 12 45 -9 11 -10 18 -1 29 9 10 8 15 -4 20 -17 6 -20 41
-5 51 16 10 11 25 -8 25 -10 0 -32 -19 -50 -42z"/>
<path d="M10615 8299 c-5 -14 -1 -25 12 -34 20 -16 47 -20 39 -6 -3 5 2 12 11
15 14 6 14 9 -5 26 -27 26 -49 25 -57 -1z"/>
</g>
</svg>
