<?xml version="1.0" standalone="no"?>
<!DOCTYPE svg PUBLIC "-//W3C//DTD SVG 20010904//EN"
 "http://www.w3.org/TR/2001/REC-SVG-20010904/DTD/svg10.dtd">
<svg version="1.0" xmlns="http://www.w3.org/2000/svg"
 width="996.934535pt" height="646.442779pt" viewBox="0 0 996.934535 646.442779"
 preserveAspectRatio="xMidYMid meet">
<metadata>
Created by potrace 1.15, written by Peter Selinger 2001-2017
</metadata>
<g transform="translate(-519.500000,1317.442779) scale(0.100000,-0.100000)"
fill="#222222" stroke="none">
<path d="M5680 13167 c-14 -7 -25 -17 -25 -22 0 -6 -3 -14 -7 -20 -3 -5 0 -16
8 -23 12 -11 15 -10 21 5 4 10 13 23 21 29 8 6 13 18 11 27 -3 14 -7 15 -29 4z"/>
<path d="M5550 13108 c0 -7 9 -24 20 -38 14 -18 20 -21 20 -9 0 12 7 15 25 11
18 -3 25 0 25 12 0 15 -11 20 -37 17 -7 -1 -22 3 -33 9 -15 8 -20 8 -20 -2z"/>
<path d="M5565 12993 c1 -26 6 -56 10 -66 8 -20 -22 -97 -38 -97 -5 0 -7 -13
-5 -30 2 -16 0 -31 -6 -33 -7 -3 -6 -9 2 -20 8 -9 11 -20 8 -26 -3 -5 14 -27
38 -48 37 -33 50 -38 87 -37 44 1 95 -28 83 -48 -8 -13 6 -50 18 -46 6 2 21
-5 32 -16 20 -20 20 -22 4 -40 -10 -11 -28 -20 -40 -22 -13 -1 -25 -3 -27 -3
-2 -1 3 -9 11 -18 17 -21 22 -73 7 -73 -8 0 -7 -5 1 -15 7 -8 20 -14 29 -13
11 2 18 -9 25 -39 5 -24 13 -43 19 -43 5 0 27 -16 48 -35 32 -29 44 -34 69
-28 31 6 72 -18 69 -41 -3 -29 3 -36 35 -36 19 0 38 5 41 10 3 6 19 10 34 10
16 0 34 7 41 15 7 9 21 13 31 10 13 -4 19 -1 19 9 0 20 14 20 30 1 7 -9 15
-13 18 -10 3 3 11 0 19 -6 9 -9 13 -8 13 0 0 22 30 11 44 -17 27 -52 81 -81
115 -61 22 14 87 -14 96 -41 3 -11 18 -23 33 -26 15 -3 34 -8 43 -10 9 -3 19
2 22 11 9 22 77 5 77 -19 0 -11 58 -42 65 -35 11 12 7 100 -6 120 -14 21 -14
26 0 50 24 43 0 95 -69 151 -36 29 -54 51 -52 62 2 11 -1 15 -7 11 -12 -7 -31
33 -24 52 2 6 -3 26 -13 45 -10 18 -18 53 -19 78 -1 25 -6 54 -10 64 -6 14 -5
17 3 12 8 -5 12 1 12 18 0 19 -5 26 -20 26 -11 0 -20 -5 -20 -11 0 -6 -6 -9
-12 -7 -7 3 -21 -3 -31 -12 -11 -11 -29 -16 -47 -14 -20 2 -30 -1 -30 -10 0
-19 -68 12 -75 35 -9 28 -28 28 -90 -1 -47 -22 -63 -25 -77 -16 -10 6 -18 14
-18 18 0 4 -14 15 -31 24 -17 8 -28 11 -25 5 4 -6 0 -11 -8 -11 -10 0 -13 -6
-10 -15 7 -18 -31 -21 -42 -4 -3 6 -22 18 -42 26 -29 12 -36 12 -44 1 -14 -21
-34 14 -42 72 -5 37 -11 50 -23 50 -9 0 -27 9 -39 21 -14 13 -27 18 -35 13 -7
-4 -23 -9 -36 -10 -17 -2 -23 2 -23 17 0 10 -7 19 -15 19 -10 0 -15 11 -15 35
0 40 -20 55 -67 48 -25 -4 -36 0 -55 22 -13 14 -25 41 -28 58 -3 19 -12 33
-22 35 -13 3 -16 -5 -13 -45z m252 -449 c-3 -3 -12 -4 -19 -1 -8 3 -5 6 6 6
11 1 17 -2 13 -5z"/>
<path d="M10293 12842 c-13 -14 -23 -29 -23 -33 0 -16 -59 -39 -99 -39 -36 0
-40 -3 -46 -30 -4 -16 -13 -30 -21 -30 -8 0 -14 -5 -14 -11 0 -6 -7 -9 -15 -5
-11 4 -15 -1 -15 -19 0 -14 -4 -25 -10 -25 -5 0 -10 -9 -10 -20 0 -26 -17 -26
-25 1 -4 11 -9 19 -11 16 -2 -2 1 -18 7 -36 9 -24 9 -35 0 -44 -14 -14 -156
-10 -184 5 -11 6 -44 12 -74 13 -46 2 -52 0 -41 -13 11 -13 10 -14 -10 -8 -19
7 -25 3 -34 -21 -13 -35 -50 -52 -143 -69 -16 -4 -38 -11 -49 -16 -13 -7 -21
-7 -26 2 -5 9 -9 9 -14 1 -4 -6 -12 -8 -18 -5 -6 4 -13 2 -17 -4 -4 -7 -15 -4
-31 8 -19 15 -22 21 -12 32 12 15 7 28 -10 28 -5 0 -7 -4 -3 -9 6 -11 -29 -33
-39 -24 -3 3 -9 -9 -12 -26 -6 -31 -9 -33 -39 -28 -19 3 -44 -1 -60 -9 -15 -8
-34 -14 -41 -14 -8 0 -14 -5 -14 -10 0 -25 -53 -60 -91 -60 -23 0 -41 -6 -46
-15 -7 -11 -16 -13 -38 -7 -44 12 -64 5 -57 -20 4 -18 2 -20 -14 -14 -10 5
-28 9 -38 10 -13 1 -23 12 -28 32 -10 40 -31 58 -63 52 -15 -3 -30 1 -40 12
-12 13 -29 16 -76 14 -33 -2 -64 -6 -69 -9 -5 -3 -11 -1 -15 5 -16 25 -148 4
-159 -26 -3 -9 -10 -13 -15 -10 -5 4 -21 2 -36 -4 l-27 -10 20 -27 20 -27 -22
-11 c-12 -6 -20 -20 -19 -31 1 -12 -15 -31 -43 -53 -31 -24 -44 -40 -41 -52 3
-10 -3 -25 -12 -33 -12 -11 -16 -26 -13 -45 4 -31 -13 -41 -71 -41 -20 0 -30
-7 -37 -24 -5 -15 -23 -29 -45 -37 -32 -12 -35 -16 -30 -41 5 -23 3 -28 -12
-28 -10 0 -24 -9 -31 -20 -7 -11 -21 -20 -31 -20 -11 0 -23 -9 -26 -20 -8 -27
-56 -52 -76 -39 -20 13 -29 11 -23 -5 3 -7 -2 -16 -10 -19 -9 -4 -16 -15 -16
-25 0 -14 -10 -22 -32 -27 -39 -9 -37 -9 -65 0 -19 5 -23 2 -23 -13 0 -11 7
-22 15 -26 15 -5 22 -37 8 -35 -5 1 -18 -2 -31 -6 -18 -6 -20 -10 -11 -21 7
-8 9 -17 5 -21 -3 -3 5 -25 18 -47 13 -23 24 -53 25 -66 0 -14 3 -38 5 -55 3
-16 8 -63 12 -104 6 -64 5 -76 -10 -87 -14 -10 -15 -17 -7 -33 9 -15 7 -27 -9
-54 -18 -30 -19 -36 -5 -47 24 -20 19 -59 -10 -72 -16 -7 -25 -19 -25 -34 0
-13 -6 -27 -13 -31 -20 -12 -27 -39 -14 -52 11 -11 -7 -16 -43 -12 -8 2 -4 -6
10 -16 14 -10 30 -18 35 -18 6 0 10 -6 9 -12 -1 -7 -2 -21 -2 -32 -2 -13 -10
-18 -32 -17 -16 1 -30 4 -30 8 0 10 -33 -3 -42 -16 -4 -6 -5 -19 -2 -28 4 -13
0 -18 -13 -18 -14 0 -15 -2 -4 -9 9 -6 13 -23 12 -43 -1 -18 -3 -45 -3 -60 -1
-29 -9 -28 -63 4 -16 10 -23 18 -15 18 9 0 16 10 16 24 2 27 -23 39 -50 24
-12 -7 -16 -5 -16 10 0 10 -7 19 -15 19 -10 0 -14 -6 -10 -15 4 -10 0 -12 -11
-8 -11 4 -22 -1 -31 -14 -17 -24 -36 -26 -53 -5 -10 12 -10 15 4 15 18 0 20
13 6 40 -7 13 -6 19 5 24 8 3 15 15 15 27 0 25 -34 71 -46 61 -4 -4 0 7 10 23
10 17 26 36 35 43 14 11 14 14 1 22 -8 6 -21 8 -27 5 -7 -2 -17 5 -23 15 -7
14 -7 20 0 20 17 0 11 45 -10 68 -26 28 -19 97 12 105 15 4 17 11 12 32 -5 21
-3 27 15 32 11 3 21 10 21 15 0 5 9 7 19 3 13 -4 25 2 39 20 17 21 62 36 62
20 0 -11 -26 -61 -35 -67 -6 -5 -5 -8 3 -8 8 0 27 14 43 31 24 26 27 34 18 51
-8 16 -8 23 2 29 22 14 37 10 43 -9 4 -11 18 -30 33 -43 19 -18 25 -20 20 -7
-3 10 -2 20 3 23 5 3 5 16 -2 30 -14 31 -4 55 22 55 22 0 44 42 36 69 -3 12
-6 11 -11 -6 -7 -21 -9 -21 -28 -8 -26 18 -43 20 -29 3 11 -15 -2 -58 -17 -58
-10 0 -15 15 -24 73 -3 21 -1 27 10 23 18 -7 27 18 14 41 -12 23 -5 35 32 50
28 13 36 36 15 50 -9 5 -3 9 17 13 25 4 30 11 37 45 5 22 8 54 6 70 l-3 30
-23 -38 c-12 -21 -28 -37 -35 -34 -19 7 -47 -12 -41 -28 10 -26 -63 -13 -86
16 -3 3 -21 14 -40 24 -19 10 -38 23 -43 31 -5 9 -15 5 -36 -17 -18 -17 -40
-29 -56 -29 -23 0 -25 -2 -14 -21 10 -20 9 -21 -10 -16 -11 3 -23 1 -26 -4 -3
-4 -17 -4 -30 1 -21 8 -25 7 -25 -10 0 -11 -6 -20 -12 -21 -34 -3 -63 4 -74
19 -6 8 -16 12 -22 8 -6 -3 -23 -1 -39 5 -24 9 -26 13 -12 22 28 18 4 82 -40
109 -47 29 -78 58 -63 58 8 0 11 10 9 28 -3 22 -9 27 -33 28 -46 1 -54 3 -54
15 0 5 5 7 12 3 7 -4 8 -3 4 4 -10 16 -26 15 -26 -2 0 -9 -7 -12 -20 -9 -14 4
-20 0 -20 -11 0 -9 -7 -16 -15 -16 -10 0 -15 -7 -13 -17 2 -11 -6 -22 -19 -28
-12 -5 -24 -18 -27 -28 -4 -15 0 -17 24 -12 24 5 29 2 39 -25 10 -31 -2 -70
-22 -70 -4 0 -12 -11 -17 -25 -5 -14 -17 -25 -26 -25 -9 0 -14 -6 -11 -12 2
-7 1 -23 -4 -35 -6 -17 -16 -23 -38 -23 -22 0 -29 -4 -28 -17 1 -24 -32 -73
-49 -73 -8 0 -14 9 -14 20 0 28 -29 25 -40 -5 -11 -28 -35 -32 -67 -10 -20 14
-22 14 -25 -12 -3 -30 -28 -44 -28 -16 0 10 -7 27 -15 37 -8 11 -15 28 -15 38
0 11 -7 18 -20 18 -11 0 -25 8 -31 18 -15 24 -61 18 -51 -7 9 -25 -44 12 -95
67 -26 28 -47 42 -56 39 -9 -3 -23 3 -32 13 -10 11 -27 19 -39 18 -28 -1 -96
29 -98 45 -1 6 -2 23 -2 37 -1 19 -11 30 -42 46 -22 11 -39 24 -37 30 4 14
-10 31 -34 38 -17 6 -23 3 -23 -8 0 -15 -3 -15 -37 -1 -32 14 -38 14 -45 1 -5
-8 -15 -22 -23 -30 -8 -8 -15 -19 -15 -25 0 -6 -5 -11 -10 -11 -6 0 -4 -15 5
-37 8 -20 13 -44 9 -55 -3 -10 -1 -18 4 -18 16 0 21 -38 6 -44 -8 -3 -14 -16
-14 -30 0 -14 -4 -28 -10 -31 -5 -3 -10 -15 -10 -26 0 -10 -4 -19 -10 -19 -16
0 -29 -63 -16 -75 7 -5 13 -19 14 -30 7 -82 6 -118 -4 -122 -17 -6 -12 -55 9
-86 9 -14 17 -35 17 -47 0 -11 4 -20 9 -20 5 0 11 -13 15 -30 4 -23 11 -30 29
-30 28 0 107 -69 107 -93 0 -10 20 -38 44 -63 39 -41 44 -51 45 -96 0 -28 6
-57 12 -64 7 -9 7 -14 1 -14 -5 0 -12 -9 -15 -21 -4 -14 -10 -18 -19 -14 -7 4
4 -7 25 -24 20 -18 37 -38 37 -45 0 -7 24 -19 55 -26 30 -7 62 -21 71 -32 10
-10 25 -18 34 -18 10 0 21 -7 24 -16 4 -10 13 -13 26 -9 13 4 31 -1 49 -14 16
-12 40 -21 53 -21 14 0 33 -9 43 -20 10 -11 28 -20 41 -20 12 0 29 -6 37 -14
15 -15 51 -12 74 6 6 5 32 6 57 3 41 -6 46 -5 46 11 1 16 3 15 15 -6 8 -14 15
-20 15 -15 0 6 9 -1 20 -15 11 -14 17 -34 14 -45 -7 -30 42 -64 84 -57 17 2
32 8 32 12 0 7 65 50 76 50 2 0 4 -7 4 -15 0 -8 6 -12 14 -9 8 3 17 1 21 -5 3
-6 -1 -11 -9 -11 -17 0 -21 -18 -8 -35 13 -19 62 -35 90 -29 22 5 30 1 40 -18
24 -46 52 -93 52 -85 0 4 15 0 33 -9 17 -10 46 -17 63 -16 17 2 44 -2 59 -8
21 -8 30 -8 35 1 6 8 9 8 15 -1 4 -6 0 -17 -10 -23 -17 -13 -11 -52 6 -41 5 3
9 -1 9 -9 0 -8 11 -26 25 -41 14 -15 25 -30 25 -34 0 -14 101 0 107 14 3 9 13
12 24 9 12 -4 19 -1 19 7 0 8 4 6 11 -4 5 -10 17 -18 26 -18 32 0 80 -40 96
-81 14 -35 14 -40 1 -35 -11 4 -13 0 -8 -19 5 -21 3 -25 -17 -25 -21 0 -20 -2
12 -25 26 -20 35 -23 37 -11 4 19 152 -129 152 -153 0 -25 29 -81 43 -82 7 -1
20 0 30 1 11 1 21 -7 24 -18 2 -11 15 -25 29 -32 20 -11 23 -20 22 -59 -1 -25
5 -61 13 -80 10 -26 11 -35 2 -38 -14 -5 -8 -26 26 -76 18 -29 30 -37 44 -33
11 3 29 0 40 -6 16 -8 23 -6 36 11 14 19 19 20 36 7 19 -13 29 -16 125 -34 25
-4 51 -11 57 -15 6 -4 14 0 17 9 5 13 9 14 21 4 8 -6 13 -15 12 -20 -1 -4 8
-22 21 -39 16 -22 29 -30 41 -26 10 3 24 -1 31 -10 7 -8 21 -15 32 -15 11 0
33 -11 49 -24 15 -13 46 -27 69 -31 22 -4 55 -17 74 -30 35 -23 82 -24 99 -1
5 6 7 1 6 -14 -4 -47 40 -118 63 -104 5 3 8 1 8 -4 0 -6 13 -24 29 -41 22 -24
26 -33 16 -37 -17 -7 -9 -33 16 -54 9 -8 28 -35 42 -60 20 -36 32 -47 63 -55
22 -5 42 -14 46 -20 4 -7 17 -11 30 -10 17 1 23 8 22 24 0 14 4 20 12 17 8 -3
11 0 7 10 -3 9 2 14 16 14 13 0 21 6 21 16 0 14 3 14 15 4 13 -10 15 -9 15 9
0 26 8 27 31 0 18 -21 15 -53 -5 -46 -18 7 -64 -24 -70 -47 -3 -12 1 -24 10
-29 8 -4 12 -12 9 -18 -4 -5 -8 -19 -10 -30 -3 -12 -7 -24 -9 -27 -7 -6 -73
25 -81 38 -8 14 -45 -7 -45 -25 0 -7 5 -17 11 -21 8 -4 9 0 4 15 -8 25 7 28
29 5 9 -8 22 -14 29 -11 7 2 21 -14 32 -37 14 -29 27 -42 45 -45 30 -4 42 -19
33 -46 -4 -14 4 -10 24 14 17 19 35 31 42 27 6 -4 11 -2 11 5 0 6 8 19 18 28
14 12 19 29 18 67 l-1 51 29 -16 c22 -13 29 -24 30 -48 1 -17 -2 -29 -6 -27
-4 2 -9 0 -13 -6 -3 -5 -2 -10 3 -10 6 0 13 -7 16 -16 4 -11 2 -15 -8 -11 -12
5 -26 -11 -26 -29 0 -14 45 0 64 21 21 22 24 23 30 9 4 -10 3 -20 -2 -23 -5
-3 -12 -16 -16 -28 -4 -14 -15 -23 -27 -23 -17 0 -18 -3 -9 -21 9 -17 14 -18
26 -8 9 8 18 9 22 3 4 -5 22 -10 40 -11 24 -2 35 3 40 17 7 18 8 18 30 -1 13
-10 25 -26 26 -36 5 -33 23 -24 19 9 -6 45 -33 96 -61 114 -30 20 -44 55 -26
69 11 8 10 17 -6 50 -18 35 -20 37 -16 12 2 -18 0 -25 -6 -19 -13 13 -19 82
-7 82 5 0 9 -7 9 -15 0 -8 3 -14 8 -13 15 5 71 -25 75 -40 4 -15 5 -15 6 1 0
9 8 17 16 17 8 0 15 8 15 19 0 39 27 46 83 21 65 -30 87 -50 101 -92 9 -25 9
-39 -1 -58 -7 -14 -10 -32 -7 -41 2 -9 -2 -19 -11 -23 -8 -3 -15 -9 -15 -14 0
-9 70 -47 82 -44 3 1 11 -12 17 -28 5 -17 14 -30 19 -30 18 0 44 39 38 58 -11
33 10 72 36 69 12 -2 24 -9 26 -15 2 -6 9 -9 17 -6 8 3 11 13 8 21 -5 12 0 14
25 8 25 -5 33 -2 42 14 9 17 15 19 30 11 12 -6 20 -7 20 -1 0 19 43 -3 58 -29
18 -30 52 -57 52 -40 0 18 18 11 25 -10 3 -11 12 -20 19 -20 7 0 23 -11 36
-25 16 -17 26 -21 31 -14 11 18 39 -33 32 -59 -3 -12 -9 -22 -14 -22 -5 0 -6
-7 -2 -16 3 -8 12 -13 19 -10 23 9 32 -23 18 -63 -17 -47 -17 -72 1 -95 17
-22 20 -66 6 -66 -5 0 -21 -24 -34 -54 -19 -41 -35 -60 -66 -78 -43 -24 -47
-33 -31 -58 9 -13 12 -13 24 2 10 14 15 15 25 5 14 -14 28 2 37 45 6 24 9 26
49 22 37 -3 45 -1 50 16 3 11 18 25 33 32 19 9 27 21 28 43 1 17 9 44 18 60
18 33 21 82 7 104 -7 11 -3 22 15 38 19 17 23 28 18 49 -6 24 -5 26 15 21 17
-4 21 -1 21 17 0 13 -9 31 -20 41 -32 29 -23 35 28 19 26 -8 76 -19 112 -25
35 -5 69 -14 74 -19 6 -6 27 -10 48 -10 31 0 41 5 49 23 10 21 16 23 65 19 50
-4 54 -3 54 17 0 20 4 21 35 15 24 -4 35 -2 35 5 0 7 13 17 29 22 15 6 33 22
40 36 9 20 16 24 34 18 28 -9 69 -7 76 3 10 13 71 43 71 35 0 -4 4 -2 8 5 6 9
12 6 21 -12 14 -25 38 -36 79 -36 12 0 22 -4 22 -9 0 -10 47 -7 93 4 15 4 27
11 27 16 0 5 7 9 15 9 8 0 15 -6 15 -13 0 -19 -33 -47 -56 -47 -17 0 -16 -2 4
-16 12 -8 20 -20 17 -25 -4 -5 -2 -9 4 -9 5 0 18 -14 28 -31 14 -24 23 -30 45
-27 21 4 27 0 31 -19 3 -16 -2 -28 -14 -37 -27 -18 -16 -24 36 -18 38 3 45 1
45 -13 0 -11 -5 -15 -14 -12 -8 3 -26 -3 -39 -13 -13 -11 -27 -17 -30 -13 -4
3 -1 -8 5 -25 16 -41 -4 -66 -44 -58 -25 5 -27 4 -18 -19 9 -25 -10 -53 -29
-41 -5 4 -7 -3 -3 -16 3 -14 2 -19 -7 -14 -6 4 -21 4 -32 1 -16 -5 -20 -13
-16 -31 3 -17 -3 -28 -20 -40 -14 -8 -27 -13 -30 -10 -3 3 -11 -1 -17 -9 -12
-16 -25 -10 -42 20 -7 11 -19 19 -28 17 -9 -2 -25 2 -37 9 -17 9 -23 8 -30 -2
-6 -11 -14 -8 -34 11 -25 23 -25 23 -40 4 -19 -24 -19 -34 0 -34 12 0 13 -5 3
-27 -19 -45 -29 -55 -44 -42 -9 8 -15 5 -24 -10 -7 -13 -21 -21 -37 -21 -25 0
-26 -1 -8 -13 10 -8 15 -19 11 -26 -14 -21 23 -39 63 -30 19 4 39 5 44 2 16
-10 36 30 25 51 -11 19 3 36 30 36 7 0 24 12 37 26 19 21 27 24 44 15 29 -16
88 -14 94 3 8 19 75 29 117 16 33 -10 37 -8 61 20 14 16 30 30 36 30 6 0 13 5
15 11 6 18 38 -2 38 -25 l1 -21 18 22 c17 20 20 20 52 6 69 -31 78 -36 73 -44
-3 -5 3 -20 12 -34 21 -33 13 -41 -20 -20 -21 14 -23 20 -15 42 8 21 7 24 -7
19 -8 -3 -20 -6 -25 -6 -6 0 -7 -5 -4 -10 14 -23 -10 -52 -65 -80 -36 -18 -61
-26 -65 -20 -11 18 -23 2 -18 -24 3 -13 0 -32 -5 -42 -8 -14 -4 -30 14 -66 22
-43 23 -51 10 -63 -8 -8 -29 -16 -46 -17 -29 -3 -34 1 -44 30 l-12 33 -27 -21
c-15 -12 -27 -28 -27 -35 0 -8 -13 -35 -30 -61 -20 -33 -28 -55 -24 -71 8 -30
-9 -30 -38 0 l-23 22 -8 -55 c-5 -30 -9 -72 -10 -92 -1 -29 -5 -38 -19 -38
-10 0 -27 -9 -38 -20 -12 -12 -26 -18 -31 -14 -8 4 -8 0 0 -14 11 -21 5 -52
-10 -52 -5 0 -9 -4 -9 -10 0 -5 10 -9 22 -7 16 1 23 -4 25 -18 1 -11 0 -14 -3
-7 -9 19 -34 15 -28 -5 5 -17 5 -17 -6 -1 -6 9 -17 15 -25 12 -12 -5 -12 -9 2
-30 8 -13 12 -24 8 -24 -5 0 0 -9 10 -20 10 -11 15 -20 12 -20 -3 0 5 -12 19
-27 17 -19 22 -32 17 -47 -4 -12 -7 -31 -6 -43 1 -16 -5 -23 -17 -23 -16 0
-50 -29 -36 -31 3 -1 11 -3 16 -4 6 -1 15 -3 20 -4 6 0 10 -8 10 -16 0 -9 6
-12 15 -9 8 4 15 13 15 22 0 13 3 12 20 -3 12 -10 18 -25 15 -32 -2 -8 4 -32
16 -54 15 -31 23 -38 33 -30 10 8 20 6 39 -9 31 -24 49 -26 45 -4 -2 11 9 21
35 30 35 12 37 12 37 -8 0 -15 -5 -19 -19 -15 -14 3 -18 -1 -18 -19 0 -26 25
-32 69 -15 21 8 24 14 20 45 -3 29 -8 35 -26 33 -17 -2 -22 4 -24 28 -2 25 -1
27 8 12 13 -20 32 -14 23 8 -7 20 6 19 28 -1 21 -19 98 -27 116 -13 14 13 53
2 53 -14 0 -6 12 -24 27 -39 26 -27 70 -37 87 -21 4 5 17 8 28 8 31 0 47 31
25 47 -18 14 -87 117 -87 130 0 5 7 11 15 14 8 4 12 10 10 15 -3 4 3 17 14 28
23 23 46 19 74 -13 13 -15 20 -17 24 -8 2 6 18 12 35 12 27 0 30 3 24 24 -3
13 -9 31 -12 40 -4 11 0 16 13 16 15 0 19 7 19 34 0 18 8 41 17 50 9 10 17 24
17 32 0 8 7 17 15 20 12 5 13 10 4 20 -9 11 -6 14 19 14 26 0 31 5 37 30 4 20
13 30 25 30 13 0 17 5 14 15 -5 11 1 15 18 15 26 0 58 27 58 50 0 9 11 11 39
6 45 -7 72 0 65 18 -8 20 49 35 77 21 12 -7 29 -11 36 -8 7 3 35 0 62 -7 64
-15 85 -8 120 43 19 28 41 46 65 53 20 6 36 7 36 3 0 -5 8 -9 18 -9 10 0 23
-5 29 -11 8 -8 13 -8 17 0 4 6 20 11 36 11 15 0 30 4 32 10 3 10 117 16 160 7
15 -3 35 -12 44 -21 8 -9 23 -16 31 -16 9 0 24 -7 34 -16 18 -16 44 -11 34 6
-3 5 1 20 10 34 9 13 15 28 13 32 -2 5 3 23 11 41 12 30 11 34 -18 70 -29 35
-30 38 -13 57 9 11 12 16 5 13 -6 -4 -14 -3 -18 3 -3 5 1 10 10 10 10 0 13 4
9 12 -5 7 -9 19 -10 28 -2 8 -4 22 -5 30 -4 22 22 110 32 110 5 0 9 -4 9 -10
0 -5 7 -10 15 -10 18 0 20 21 3 38 -7 7 -8 12 -2 12 5 0 10 12 11 26 2 35 22
47 50 28 13 -8 23 -11 23 -6 0 19 -34 54 -72 73 -33 17 -39 24 -34 42 3 12 6
25 6 30 0 15 40 6 67 -17 29 -24 53 -24 53 -1 0 26 19 25 32 -2 19 -39 38 -41
38 -3 0 24 4 30 18 28 13 -2 17 3 15 25 l-2 28 30 -26 c17 -14 41 -25 54 -25
16 0 35 -16 64 -55 23 -30 46 -55 52 -55 5 0 14 -11 19 -25 8 -21 13 -23 32
-16 13 5 22 14 21 20 -4 15 3 14 30 -3 12 -8 33 -17 46 -21 l24 -7 -6 70 c-4
39 -11 82 -17 96 -7 20 -6 26 4 26 8 0 18 19 25 44 15 60 14 66 -7 66 -31 0
-55 35 -49 69 6 28 -2 43 -25 47 -5 1 -9 2 -10 4 -4 2 -40 11 -61 14 -10 1
-23 9 -28 17 -7 11 -9 10 -9 -6 0 -16 -51 -75 -65 -75 -1 0 0 11 3 25 2 14 9
25 14 25 6 0 6 6 -1 14 -9 11 -9 15 1 19 11 4 10 6 0 6 -7 1 -11 5 -8 10 3 4
-3 16 -14 26 -19 17 -20 17 -20 -2 0 -15 -8 -22 -30 -26 -23 -5 -30 -12 -30
-31 0 -20 -6 -25 -37 -29 -41 -5 -77 8 -67 24 3 6 -2 16 -11 23 -14 10 -16 20
-10 42 4 16 7 43 6 59 -1 25 0 27 9 12 8 -12 18 -15 36 -11 14 4 33 0 47 -9
36 -23 53 -6 22 23 -14 13 -23 30 -21 37 3 7 1 15 -4 18 -6 3 -5 15 1 29 8 17
8 30 -1 46 -10 19 -10 24 4 32 9 5 14 14 10 19 -3 5 0 16 6 24 7 8 9 15 5 15
-4 0 -2 6 4 13 6 8 8 17 5 20 -3 3 6 18 20 34 14 15 26 33 26 40 0 7 5 13 11
13 9 0 8 4 0 14 -9 10 -6 13 16 13 45 1 67 7 79 22 7 9 20 12 39 7 18 -5 33
-2 44 7 9 8 41 20 71 26 54 11 56 12 53 44 -2 32 -6 55 -19 111 -4 15 -3 31 2
35 14 9 34 59 34 81 0 11 4 20 10 20 5 0 7 7 4 15 -4 8 -17 15 -30 15 -14 0
-27 7 -30 15 -5 11 -11 12 -24 5 -26 -14 -40 -12 -40 4 0 31 -17 23 -17 -7 -2
-64 -14 -97 -35 -97 -17 0 -18 -3 -9 -14 10 -12 8 -17 -9 -26 -12 -7 -33 -10
-46 -7 -13 2 -24 1 -24 -3 0 -4 -13 -10 -29 -13 -17 -4 -30 -14 -34 -26 -4
-17 -11 -19 -48 -14 -24 4 -49 13 -56 22 -15 20 -17 61 -3 61 7 0 6 8 -2 23
-7 12 -12 29 -13 37 0 14 -65 35 -65 21 0 -4 -16 -5 -35 -3 -28 3 -34 1 -30
-11 4 -8 -1 -17 -10 -21 -19 -7 -96 11 -93 22 4 20 -16 82 -27 82 -7 0 -23 6
-37 13 -24 12 -26 39 -5 65 10 12 -2 30 -55 85 -10 10 -18 33 -18 53 0 19 -4
33 -9 30 -16 -10 -41 6 -57 35 -15 29 -61 59 -80 52 -6 -2 -16 7 -22 21 -6 13
-21 27 -34 31 -13 4 -33 16 -44 27 -19 17 -22 17 -27 4 -4 -9 -2 -16 3 -16 6
0 10 -5 10 -11 0 -6 -15 -9 -37 -7 -35 3 -38 1 -41 -24 -2 -16 -9 -28 -16 -28
-7 0 -18 -11 -24 -25 -10 -22 -15 -24 -32 -15 -11 6 -24 9 -29 6 -5 -3 -12 4
-16 17 -6 19 -8 19 -12 5 -6 -22 -12 -22 -41 -2 -22 15 -25 15 -46 -5 -35 -33
-59 -19 -51 29 6 36 5 38 -24 45 -16 3 -35 12 -41 20 -11 13 -105 16 -126 3
-15 -10 -80 -3 -96 9 -7 5 -31 17 -53 26 -22 8 -53 22 -69 31 -21 11 -34 12
-42 5 -9 -7 -21 -7 -41 3 -39 19 -40 41 -2 55 l32 12 -6 65 c-5 51 -3 65 8 70
21 8 18 40 -5 61 -10 9 -18 20 -17 24 0 3 -5 17 -12 30 -7 13 -9 21 -3 17 5
-3 12 1 16 9 3 8 1 17 -5 21 -6 4 -6 11 2 21 8 9 9 17 3 21 -9 7 -27 49 -44
104 -7 24 -5 28 23 37 17 6 45 8 63 5 33 -6 64 -31 54 -43 -9 -11 62 -13 73
-2 6 6 23 11 38 11 l27 0 -15 33 c-9 17 -29 47 -45 65 -15 18 -28 37 -28 42 0
5 -9 11 -19 15 -11 3 -25 22 -32 42 -6 20 -20 46 -31 57 -12 13 -18 30 -15 45
5 26 -11 71 -25 71 -4 0 -8 5 -8 12 0 6 -7 19 -16 29 -14 16 -14 19 0 41 14
21 14 27 1 44 -8 10 -15 27 -15 36 0 14 6 16 29 12 25 -5 30 -2 39 25 6 17 16
31 21 31 6 0 11 9 11 21 0 11 7 27 15 35 8 9 16 26 16 40 1 13 2 27 3 32 1 4
6 23 10 42 9 39 21 50 52 50 12 0 27 7 34 15 7 8 20 15 29 15 9 0 24 12 34 28
11 15 43 42 73 61 58 36 124 103 124 125 0 8 15 17 35 20 32 6 35 10 35 41 0
28 4 35 20 35 26 0 26 26 0 40 -16 9 -18 15 -10 30 5 10 7 26 4 34 -4 11 0 16
11 16 15 0 15 2 4 16 -7 8 -13 33 -13 55 l-1 41 35 -6 c19 -3 40 -2 46 2 17
11 34 48 34 76 0 23 2 24 32 15 41 -11 38 -12 38 7 0 10 6 14 15 11 25 -10 28
14 4 39 -20 22 -21 25 -7 37 9 6 21 29 28 49 6 21 16 40 21 43 5 4 9 20 9 37
0 26 2 29 15 18 12 -10 15 -10 15 3 0 9 -5 19 -10 22 -6 4 -8 16 -4 28 4 12 7
30 6 40 0 12 4 17 14 13 22 -8 17 10 -11 38 -20 20 -26 22 -36 10 -8 -10 -8
-18 -1 -27 19 -22 -1 -37 -40 -30 -24 3 -47 17 -65 37 l-28 31 -3 -27 c-2 -16
-8 -28 -13 -28 -5 0 -9 -7 -9 -15 0 -8 7 -15 15 -15 8 0 19 -9 25 -20 9 -16 8
-20 -7 -21 -10 -1 -22 0 -28 1 -5 1 -7 -1 -3 -5 3 -3 0 -18 -7 -32 -7 -14 -11
-31 -9 -38 3 -7 1 -16 -5 -19 -6 -4 -7 -13 -4 -22 3 -9 -4 -24 -16 -35 -11
-11 -21 -24 -21 -29 0 -6 -16 -10 -35 -10 -24 0 -35 -5 -35 -15 0 -8 -6 -15
-12 -15 -7 0 -4 -6 7 -12 11 -6 23 -16 27 -22 5 -7 8 -4 8 7 0 9 4 17 9 17 6
0 9 -9 8 -19 -1 -11 -7 -18 -17 -16 -8 1 -26 -2 -40 -8 -14 -6 -34 -11 -45
-11 -12 -1 -26 -13 -35 -33 -19 -42 -59 -57 -136 -54 -37 2 -64 -2 -68 -8 -4
-6 -35 -11 -70 -11 -44 0 -67 -5 -76 -15 -8 -9 -22 -12 -41 -8 -18 3 -29 1
-29 -6 0 -6 -11 -11 -25 -11 -15 0 -25 -6 -25 -15 0 -20 -51 -65 -75 -65 -11
0 -40 -7 -64 -16 -25 -8 -54 -13 -66 -10 -23 6 -51 -27 -46 -56 1 -11 -4 -18
-13 -18 -9 0 -16 -7 -16 -15 0 -8 -9 -15 -20 -15 -10 0 -32 -16 -47 -35 -15
-19 -37 -35 -48 -35 -14 0 -16 -3 -7 -8 22 -15 -52 -69 -87 -63 -7 1 -10 -2
-6 -8 4 -7 -3 -11 -18 -11 -14 0 -30 -7 -38 -16 -9 -11 -22 -14 -47 -9 -20 4
-32 2 -28 -3 3 -5 -1 -17 -8 -28 -8 -10 -12 -24 -9 -31 3 -7 -2 -16 -11 -19
-11 -4 -14 -13 -11 -25 7 -21 -10 -25 -34 -10 -9 6 -11 15 -6 27 13 32 16 93
6 112 -8 16 -6 22 14 32 18 10 26 25 31 56 4 28 11 44 20 44 12 0 12 4 4 20
-6 10 -10 23 -9 27 4 24 -17 54 -48 68 -19 9 -32 19 -29 22 3 4 1 12 -5 19 -6
8 -9 21 -5 30 3 8 1 25 -5 36 -12 23 5 42 29 33 8 -3 12 0 10 7 -3 7 -14 14
-26 16 -15 2 -22 10 -22 25 0 33 -53 87 -85 87 -26 0 -85 50 -85 71 0 14 -48
22 -77 12 -31 -11 -93 1 -93 18 0 6 4 8 9 4 18 -11 21 32 6 76 -9 24 -17 56
-17 71 -1 27 -39 55 -59 42 -6 -3 -21 -3 -34 0 -32 8 -99 120 -91 151 6 24
-11 85 -23 85 -4 0 -22 16 -41 35 -19 19 -40 35 -46 35 -6 0 -18 7 -25 17 -16
19 -150 82 -170 80 -8 -1 -30 4 -49 12 -50 19 -72 66 -64 135 4 35 3 56 -5 60
-6 4 -9 17 -6 29 3 12 0 29 -7 38 -12 15 -15 15 -35 -9z m-953 -387 c8 -10 9
-15 2 -15 -6 0 -9 -6 -7 -12 3 -7 0 -20 -5 -28 -9 -13 -11 -13 -20 0 -6 10 -6
16 0 18 6 2 7 15 4 28 -7 27 7 32 26 9z m150 -184 c0 -11 -30 -19 -47 -14 -24
8 -13 23 17 23 17 0 30 -4 30 -9z m-3120 -861 c0 -5 -2 -10 -4 -10 -3 0 -8 5
-11 10 -3 6 -1 10 4 10 6 0 11 -4 11 -10z m4048 -58 c7 -23 -16 -12 -34 15
l-18 28 24 -16 c13 -9 26 -21 28 -27z m94 -88 c-9 -15 -11 -15 -22 6 -7 12 -8
20 -2 16 5 -3 13 4 17 17 l8 22 4 -22 c2 -12 0 -30 -5 -39z m-83 17 c-12 -18
-49 -18 -49 -1 0 7 10 11 53 19 4 0 2 -7 -4 -18z m386 -111 c9 -8 32 -13 50
-11 18 1 36 -2 39 -8 5 -7 18 -5 40 6 19 9 41 13 49 10 17 -7 28 -65 13 -71
-6 -2 0 -5 14 -6 l25 -1 -23 -12 c-14 -6 -26 -7 -30 -1 -12 15 -32 15 -32 -1
0 -8 9 -15 20 -15 14 0 20 -7 20 -21 0 -19 -2 -20 -17 -8 -16 13 -17 12 -4 -3
7 -10 17 -16 21 -13 5 3 11 1 15 -5 3 -5 16 -10 28 -10 16 0 23 -6 24 -20 1
-11 -1 -20 -5 -20 -4 0 -18 -3 -31 -7 -16 -4 -22 -3 -17 5 3 6 2 13 -4 17 -5
3 -12 -7 -15 -22 -11 -51 -65 -133 -87 -133 -4 0 -19 -11 -33 -24 -19 -17 -25
-31 -20 -44 9 -30 -39 -63 -87 -60 -37 2 -68 22 -54 35 3 3 -3 13 -15 21 -20
14 -20 15 -2 32 10 9 22 15 27 12 5 -3 6 0 2 7 -4 6 -1 14 8 17 8 3 22 30 32
60 13 43 14 57 4 69 -7 8 -17 12 -22 9 -5 -3 -20 4 -32 15 -21 20 -24 20 -30
6 -4 -11 -12 -15 -22 -11 -14 5 -15 4 -4 -9 10 -12 9 -15 -5 -15 -14 0 -16 -6
-12 -29 3 -16 4 -31 1 -34 -6 -6 -61 21 -70 34 -3 5 -20 9 -38 7 -17 -1 -37 2
-44 6 -7 4 -12 3 -12 -3 0 -6 -6 -8 -14 -5 -11 4 -14 20 -13 54 1 33 -4 53
-16 64 -18 18 -15 28 18 70 12 16 17 17 30 6 11 -9 15 -9 15 -1 0 7 4 10 9 7
5 -4 11 -3 13 2 1 4 18 18 37 32 29 20 35 21 45 9 6 -8 18 -13 27 -11 9 1 22
-4 29 -13 11 -14 15 -12 31 14 23 39 89 50 124 21z m-3594 -200 c21 -12 26
-30 8 -30 -6 0 -22 9 -36 20 -20 16 -22 20 -9 20 10 0 26 -5 37 -10z m2219
-2356 c0 -11 -5 -14 -16 -10 -9 3 -18 6 -20 6 -3 0 -2 5 1 10 10 16 35 12 35
-6z m4000 -128 c0 -11 -19 -15 -25 -6 -3 5 1 10 9 10 9 0 16 -2 16 -4z m-1814
-1530 c8 -8 14 -19 14 -24 0 -16 -50 0 -61 19 -8 16 -6 19 11 19 12 0 28 -6
36 -14z"/>
<path d="M10735 10750 c-3 -5 -1 -10 4 -10 6 0 11 5 11 10 0 6 -2 10 -4 10 -3
0 -8 -4 -11 -10z"/>
<path d="M5408 12572 c-21 -4 -22 -7 -6 -35 10 -20 10 -21 -5 -8 -15 12 -19 9
-34 -19 -10 -18 -30 -48 -45 -65 -16 -18 -28 -38 -28 -44 0 -7 -16 -9 -47 -5
l-48 5 29 -24 c16 -14 26 -29 22 -35 -3 -5 5 -13 18 -16 13 -3 27 -14 30 -23
17 -45 31 -60 55 -60 15 0 32 -11 45 -29 28 -38 31 -64 7 -64 -15 0 -18 -7
-16 -37 3 -42 29 -58 38 -23 4 18 9 19 33 10 15 -6 31 -7 36 -2 17 17 47 85
41 95 -9 15 59 -3 80 -21 25 -22 29 -10 11 34 -11 26 -13 39 -5 42 10 3 -13
39 -54 83 -13 13 -13 18 0 36 13 18 13 22 0 33 -8 7 -15 21 -15 31 0 14 -9 21
-29 25 -29 6 -30 7 -14 31 22 33 28 93 9 93 -8 0 -16 -5 -18 -12 -3 -9 -13
-10 -39 -2 -19 5 -42 8 -51 6z"/>
<path d="M5683 12182 c-13 -2 -25 -15 -32 -33 -5 -16 -16 -29 -23 -29 -7 -1
-1 -8 15 -16 15 -8 27 -19 27 -25 0 -5 14 -15 30 -21 19 -6 32 -19 36 -34 7
-27 31 -32 40 -9 13 32 66 2 58 -32 -6 -27 23 -60 38 -45 7 7 19 12 28 12 19
0 21 -40 3 -62 -11 -12 -5 -18 33 -37 25 -13 43 -28 41 -34 -5 -14 10 -47 21
-47 4 0 8 16 9 36 2 43 26 82 58 94 21 8 23 13 15 34 -7 20 -5 27 15 40 13 9
33 16 45 16 11 0 20 6 20 14 0 11 -8 12 -42 4 -24 -5 -53 -14 -64 -20 -48 -23
-125 -9 -142 25 -7 15 -20 27 -29 27 -9 0 -27 10 -40 22 -19 18 -26 20 -32 9
-7 -10 -14 -10 -37 3 -33 18 -74 51 -74 60 0 3 6 6 14 6 9 0 12 7 9 20 -6 24
-11 27 -40 22z"/>
<path d="M7677 11789 c7 -7 15 -10 18 -7 3 3 -2 9 -12 12 -14 6 -15 5 -6 -5z"/>
<path d="M7020 11786 c0 -2 7 -7 16 -10 8 -3 12 -2 9 4 -6 10 -25 14 -25 6z"/>
<path d="M7385 11195 c11 -50 14 -57 25 -50 17 10 11 41 -11 61 -20 18 -20 18
-14 -11z"/>
<path d="M7440 11191 c0 -6 5 -13 10 -16 6 -3 10 1 10 9 0 9 -4 16 -10 16 -5
0 -10 -4 -10 -9z"/>
<path d="M7434 11145 c3 -8 -2 -19 -12 -24 -9 -5 -14 -13 -9 -17 9 -9 48 36
41 47 -9 15 -26 10 -20 -6z"/>
<path d="M12416 10535 c-7 -20 3 -45 19 -45 18 0 27 -40 9 -47 -8 -3 -12 -9
-9 -13 3 -4 -2 -13 -10 -20 -12 -10 -22 -10 -40 -2 -20 9 -25 8 -30 -9 -4 -10
-11 -17 -16 -14 -14 10 -11 -13 7 -41 14 -21 15 -30 4 -69 -7 -24 -9 -52 -5
-62 5 -10 9 -22 9 -28 1 -5 15 -19 33 -30 18 -11 32 -26 33 -32 0 -7 4 -13 9
-13 6 0 11 -17 13 -37 2 -27 8 -39 21 -41 9 -2 17 2 17 8 0 25 55 99 74 100
12 0 16 5 12 16 -8 20 13 41 45 46 14 2 25 11 28 23 2 11 11 25 20 32 14 11
14 12 -6 13 -29 0 -34 20 -12 49 11 13 19 30 19 37 0 8 7 14 15 14 8 0 15 4
15 10 0 5 13 7 28 4 19 -4 32 -1 41 10 8 9 23 16 35 16 34 0 68 28 61 51 -5
14 -3 17 10 13 10 -4 22 1 30 12 12 16 14 17 15 3 0 -9 7 -20 16 -23 10 -4 13
-13 9 -26 -7 -22 6 -26 36 -9 11 6 17 15 12 22 -5 9 -2 8 9 -1 12 -10 24 -9
59 4 24 9 57 16 72 16 23 -1 28 3 24 18 -3 11 1 21 9 24 8 3 14 1 14 -4 0 -6
5 -10 12 -10 6 0 3 9 -8 21 -17 18 -19 19 -30 4 -13 -17 -130 -30 -139 -15 -2
4 -30 7 -61 7 -44 0 -60 4 -71 19 -14 18 -15 18 -37 -8 -12 -16 -27 -28 -34
-28 -7 0 -12 -6 -12 -14 0 -7 -9 -25 -20 -39 -17 -21 -25 -24 -43 -18 -12 5
-56 19 -97 31 -41 13 -82 32 -90 42 -9 10 -33 21 -55 25 -22 3 -45 10 -51 15
-8 5 -14 3 -18 -7z m199 -255 c8 -13 -5 -13 -25 0 -13 8 -13 10 2 10 9 0 20
-4 23 -10z"/>
<path d="M7617 9802 c-17 -2 -25 -8 -21 -14 5 -7 1 -9 -9 -5 -14 5 -17 0 -17
-23 0 -38 10 -38 51 -1 36 34 35 47 -4 43z"/>
<path d="M13931 9513 c3 -18 -2 -33 -16 -47 -20 -20 -9 -43 19 -43 20 0 25 6
29 41 4 26 1 43 -6 48 -15 10 -27 10 -26 1z"/>
<path d="M13990 9474 c0 -14 3 -14 15 -4 8 7 15 14 15 16 0 2 -7 4 -15 4 -8 0
-15 -7 -15 -16z"/>
<path d="M13701 8939 c-18 -7 -21 -13 -14 -20 8 -8 18 -5 34 10 24 23 18 26
-20 10z"/>
<path d="M14788 8565 c-37 -44 -41 -47 -49 -34 -6 10 -17 6 -46 -13 -21 -14
-48 -28 -61 -32 -12 -4 -22 -15 -22 -25 0 -26 -23 -71 -37 -71 -7 0 -19 -15
-27 -34 -8 -18 -23 -40 -35 -48 -14 -10 -19 -21 -15 -32 5 -12 -1 -18 -25 -22
-17 -4 -31 -13 -31 -20 0 -8 -8 -14 -17 -14 -22 -1 -47 -20 -56 -42 -8 -22
-38 -23 -77 -3 l-29 15 6 -45 c5 -41 2 -48 -28 -78 -19 -18 -47 -42 -64 -54
-32 -23 -27 -45 6 -25 11 7 28 10 39 7 15 -5 16 -11 10 -40 -9 -42 6 -46 49
-15 15 12 38 22 52 24 13 1 34 8 46 14 12 7 35 9 52 6 26 -6 31 -4 31 14 0 25
27 37 33 14 6 -27 27 32 34 99 4 38 12 64 24 75 12 10 19 31 19 51 0 39 22 53
48 30 10 -9 36 -15 63 -15 40 0 48 3 60 26 20 38 39 51 77 52 24 0 32 4 32 18
0 38 77 80 95 52 3 -5 11 -7 18 -4 18 6 61 -42 54 -60 -8 -19 19 -28 33 -11
15 18 40 8 40 -14 0 -10 3 -20 6 -24 9 -9 43 25 37 39 -2 6 5 30 16 53 18 33
19 44 9 60 -10 17 -13 18 -23 4 -8 -11 -20 -13 -43 -8 -18 3 -30 11 -26 16 3
5 0 9 -6 9 -6 0 -8 4 -5 10 3 5 2 18 -4 27 -7 13 -5 23 6 35 15 16 15 18 0 18
-10 0 -17 -5 -17 -11 0 -5 -5 -7 -10 -4 -6 4 -10 3 -9 -2 4 -22 -3 -33 -20
-33 -11 0 -23 5 -26 10 -8 13 -72 2 -100 -16 -17 -12 -22 -11 -42 8 -23 21
-32 45 -13 33 14 -9 12 7 -4 28 -13 17 -15 17 -28 2z"/>
<path d="M9160 8368 c0 -34 15 -60 37 -69 18 -7 23 -14 18 -29 -5 -14 -2 -20
9 -20 26 0 18 39 -14 72 -24 24 -28 33 -19 44 9 11 7 14 -10 14 -11 0 -21 -6
-21 -12z"/>
<path d="M15140 8271 c0 -6 -7 -11 -15 -11 -9 0 -15 -9 -15 -25 0 -28 3 -29
31 -15 20 11 26 45 9 55 -5 3 -10 1 -10 -4z"/>
<path d="M9206 8195 c-16 -24 -16 -25 9 -25 19 0 24 5 22 20 -5 31 -13 33 -31
5z"/>
<path d="M11172 8110 l-23 -19 25 -7 c14 -3 28 -15 31 -25 7 -20 25 -26 25 -9
0 7 7 7 23 0 20 -10 21 -10 4 3 -10 9 -22 28 -26 44 -9 34 -29 39 -59 13z"/>
<path d="M11045 8071 c-9 -15 -9 -14 40 -33 37 -14 41 -13 57 3 21 22 14 27
-45 35 -29 4 -47 2 -52 -5z"/>
<path d="M11015 8050 c3 -5 8 -10 11 -10 2 0 4 5 4 10 0 6 -5 10 -11 10 -5 0
-7 -4 -4 -10z"/>
<path d="M13930 8002 c0 -5 12 -14 26 -21 18 -8 24 -17 20 -27 -5 -13 -1 -15
19 -12 14 3 30 -1 36 -8 6 -8 21 -14 32 -14 11 0 26 -8 33 -17 12 -16 13 -15
14 13 0 17 7 37 15 44 24 20 -1 31 -55 24 -29 -3 -61 0 -89 10 -51 19 -51 19
-51 8z"/>
<path d="M11083 7843 c-13 -2 -23 -8 -23 -13 0 -14 33 -21 42 -8 7 12 11 30 6
27 -2 -1 -13 -4 -25 -6z"/>
<path d="M10967 7808 c19 -22 56 -23 72 -4 10 12 3 15 -38 18 -47 3 -49 2 -34
-14z"/>
<path d="M10160 7800 c6 -11 15 -18 21 -15 5 4 3 12 -5 21 -21 20 -28 17 -16
-6z"/>
<path d="M11240 7194 c0 -11 -6 -14 -20 -9 -15 5 -20 2 -20 -10 0 -13 -6 -16
-26 -11 -22 6 -25 4 -22 -16 2 -18 10 -24 38 -26 33 -3 36 -1 51 43 9 25 13
45 8 45 -5 0 -9 -7 -9 -16z"/>
<path d="M11100 7160 c0 -6 7 -10 15 -10 8 0 15 2 15 4 0 2 -7 6 -15 10 -8 3
-15 1 -15 -4z"/>
<path d="M11710 6855 c0 -9 4 -14 9 -11 5 4 12 0 15 -6 3 -7 5 -4 3 6 -3 24
-27 34 -27 11z"/>
<path d="M11726 6811 c-4 -7 -5 -15 -2 -18 9 -9 19 4 14 18 -4 11 -6 11 -12 0z"/>
<path d="M11690 6756 c1 -12 24 -46 33 -46 3 0 3 9 0 20 -6 21 11 28 23 9 4
-8 9 -7 15 2 14 23 11 26 -31 26 -23 0 -40 -4 -40 -11z"/>
</g>
</svg>
