<?xml version="1.0" standalone="no"?>
<!DOCTYPE svg PUBLIC "-//W3C//DTD SVG 20010904//EN"
 "http://www.w3.org/TR/2001/REC-SVG-20010904/DTD/svg10.dtd">
<svg version="1.0" xmlns="http://www.w3.org/2000/svg"
 width="1063.732012pt" height="579.436020pt" viewBox="0 0 1063.732012 579.436020"
 preserveAspectRatio="xMidYMid meet">
<metadata>
Created by potrace 1.15, written by Peter Selinger 2001-2017
</metadata>
<g transform="translate(-547.000000,1334.699810) scale(0.100000,-0.100000)"
fill="#222222" stroke="none">
<path d="M14257 13336 c-3 -8 -2 -18 4 -21 5 -4 6 -12 2 -18 -4 -7 -6 -20 -5
-30 2 -9 -4 -24 -12 -33 -18 -17 -21 -44 -6 -44 6 0 13 7 17 15 3 9 15 15 27
13 16 -2 21 2 20 20 0 12 5 22 13 22 17 0 16 4 -2 41 -9 16 -20 27 -25 24 -5
-3 -13 2 -18 11 -8 15 -10 15 -15 0z"/>
<path d="M14120 13163 c0 -5 22 -8 50 -9 27 -1 47 3 44 8 -6 10 -94 11 -94 1z"/>
<path d="M14035 13090 c-11 -16 -27 -30 -36 -30 -9 0 -22 -7 -29 -15 -7 -8
-17 -12 -24 -8 -6 4 -19 6 -28 5 -10 -2 -18 1 -18 5 0 5 -19 8 -42 7 -24 0
-51 3 -61 8 -12 6 -23 5 -32 -2 -8 -6 -23 -9 -35 -5 -15 5 -26 0 -41 -19 -16
-21 -29 -26 -64 -26 -40 0 -44 -2 -50 -29 -3 -16 -13 -35 -21 -42 -8 -6 -14
-22 -14 -35 0 -18 -6 -23 -32 -26 -25 -2 -33 -9 -42 -36 -6 -18 -18 -37 -26
-42 -11 -6 -15 -28 -16 -72 -1 -75 -10 -108 -30 -108 -8 0 -33 -18 -56 -40
-27 -25 -52 -40 -68 -40 -14 0 -36 -7 -48 -16 -30 -21 -65 -91 -58 -118 7 -27
-3 -41 -29 -41 -15 0 -21 -8 -23 -30 -1 -16 -6 -46 -12 -65 -5 -19 -12 -48
-15 -63 -4 -22 -17 -33 -51 -48 -37 -17 -43 -23 -34 -34 18 -22 3 -75 -21 -75
-11 0 -23 -10 -29 -24 -11 -30 -19 -35 -72 -44 -40 -7 -43 -10 -40 -35 2 -16
-2 -35 -10 -44 -7 -9 -12 -17 -10 -17 1 -1 -3 -16 -10 -34 -10 -27 -17 -33
-36 -29 -12 2 -26 -1 -30 -7 -9 -16 -13 -79 -4 -86 4 -3 5 -21 2 -40 l-5 -35
-30 42 c-30 43 -49 56 -38 27 4 -10 -1 -17 -16 -21 -14 -3 -21 -13 -21 -29 0
-18 -6 -24 -22 -24 -20 -1 -21 -2 -6 -10 14 -8 14 -15 5 -40 -6 -17 -17 -30
-24 -30 -7 0 -13 -5 -13 -10 0 -6 -15 -9 -32 -8 -20 2 -33 -2 -33 -9 0 -21
-14 -26 -44 -13 -34 14 -32 32 6 49 20 9 29 9 41 -1 13 -11 14 -10 10 2 -3 10
-16 14 -35 13 -21 -2 -41 7 -69 31 -50 42 -84 61 -84 46 0 -7 -8 -9 -19 -5
-11 3 -22 1 -26 -5 -8 -13 -73 -8 -79 7 -3 6 -20 11 -40 11 -19 0 -40 3 -46 7
-9 5 -10 1 -5 -14 5 -15 2 -21 -9 -21 -9 0 -25 -6 -37 -12 -17 -11 -22 -10
-33 5 -16 20 -36 23 -36 4 0 -8 -11 -24 -24 -36 -24 -22 -26 -23 -75 -8 -28 8
-48 11 -45 6 3 -5 -9 -41 -28 -79 l-33 -69 -39 6 c-28 4 -37 3 -32 -5 4 -8 0
-12 -11 -12 -11 0 -25 -6 -31 -12 -10 -10 -17 -10 -32 0 -10 6 -26 9 -35 6 -8
-4 -23 0 -32 7 -13 11 -17 11 -20 1 -5 -12 -78 54 -78 71 0 4 -3 7 -7 7 -5 0
-13 0 -18 0 -6 0 -8 -11 -4 -25 3 -14 2 -25 -3 -25 -5 0 -6 -26 -3 -57 5 -54
37 -127 64 -145 11 -7 37 -93 37 -120 0 -10 6 -18 14 -18 22 0 55 -50 55 -85
0 -23 -6 -35 -25 -45 -18 -10 -22 -17 -15 -30 6 -11 5 -21 -2 -28 -8 -8 -5
-14 13 -21 21 -8 22 -10 7 -16 -10 -4 -15 -11 -12 -16 3 -5 -4 -9 -15 -9 -19
0 -21 -6 -21 -59 0 -41 -5 -62 -15 -71 -10 -8 -12 -16 -6 -20 16 -9 -19 -79
-42 -82 -28 -4 -42 -44 -17 -51 13 -3 17 0 13 9 -3 8 1 14 11 14 9 0 20 8 23
18 10 28 25 32 61 16 31 -13 36 -12 48 3 18 25 18 29 -12 57 -19 17 -25 31
-21 45 4 16 0 21 -14 21 -10 0 -19 5 -19 10 0 6 7 10 16 10 8 0 12 5 9 10 -4
7 3 9 22 6 15 -2 32 -5 37 -5 4 -1 6 -7 3 -15 -3 -8 5 -19 19 -26 30 -17 30
-24 -1 -48 -20 -16 -22 -21 -10 -26 22 -8 65 15 65 35 0 10 -10 25 -22 33 -14
10 -17 16 -9 16 8 0 22 -7 32 -16 12 -11 25 -14 36 -9 25 11 45 7 63 -14 22
-25 47 -33 122 -37 63 -3 66 -2 72 21 4 14 13 25 21 25 9 0 24 5 34 12 18 11
18 13 3 24 -14 10 -15 14 -2 29 14 16 13 17 -8 11 -13 -4 -22 -3 -22 3 0 5 10
11 23 13 12 2 21 9 19 16 -1 9 2 10 15 1 14 -8 33 -5 85 14 46 17 71 21 83 14
9 -5 40 -6 68 -3 29 4 78 7 109 8 54 1 57 2 63 28 5 25 12 29 53 35 28 4 60 2
77 -5 17 -7 40 -13 52 -15 23 -2 63 27 63 46 0 6 16 2 35 -10 30 -17 35 -18
35 -5 0 9 9 18 20 21 11 3 17 10 13 16 -4 6 0 8 10 4 9 -3 29 0 44 8 15 8 33
15 39 15 16 0 56 59 59 87 3 28 20 43 50 43 14 0 16 3 7 9 -9 5 -11 17 -7 34
6 22 12 26 29 21 14 -3 28 1 36 11 19 22 22 65 5 65 -7 0 -18 14 -24 31 -10
29 -9 30 12 23 12 -4 28 -7 35 -7 6 0 12 -6 12 -13 0 -8 14 -21 31 -30 26 -13
36 -13 60 -4 30 13 37 26 18 32 -7 2 -10 9 -8 16 8 23 74 -22 77 -52 3 -23 8
-26 42 -26 34 0 43 5 65 37 14 21 25 48 25 60 0 23 14 31 24 14 8 -12 107 14
117 31 5 7 9 18 9 25 0 13 54 56 83 66 10 4 25 20 35 37 9 16 23 30 30 30 7 0
10 5 7 11 -4 5 1 19 11 30 15 17 27 19 82 15 35 -3 67 -7 70 -10 8 -9 42 25
42 42 0 10 4 12 13 4 12 -10 66 -10 83 0 5 4 32 -4 59 -18 57 -27 90 -24 81 9
-3 12 3 30 14 45 17 21 21 22 26 8 10 -27 32 -18 44 19 10 30 9 40 -4 60 -16
24 -15 25 4 25 11 0 20 -7 20 -15 0 -8 5 -15 10 -15 13 0 13 -43 0 -56 -7 -7
6 -23 40 -50 28 -21 64 -50 80 -62 17 -13 31 -21 31 -18 1 3 2 12 3 18 0 7 14
17 30 23 24 8 31 6 48 -15 11 -14 26 -24 34 -22 7 1 18 -7 24 -18 6 -11 25
-26 43 -33 18 -8 38 -25 46 -40 15 -28 44 -40 59 -25 6 6 19 4 37 -8 28 -18
28 -18 55 14 27 32 27 32 45 12 10 -11 23 -20 28 -20 5 0 16 -8 24 -17 10 -13
16 -15 19 -5 8 19 35 14 61 -10 22 -21 23 -21 43 -3 11 10 20 29 20 42 0 12 5
23 10 23 19 0 99 -81 102 -103 2 -17 11 -23 37 -25 33 -3 33 -3 17 20 -16 23
-16 23 19 33 33 10 35 12 21 30 -14 19 -15 19 -28 2 -11 -15 -16 -16 -31 -5
-9 7 -21 27 -26 45 -8 27 -7 33 10 38 16 5 17 10 8 27 -8 15 -7 24 4 36 23 27
5 75 -34 89 -17 7 -28 17 -24 22 3 6 2 11 -3 11 -5 0 -12 9 -15 20 -3 11 -1
20 5 20 5 0 6 5 3 10 -11 18 6 50 27 50 29 0 16 24 -15 28 -15 2 -27 7 -27 12
0 14 -79 52 -91 44 -6 -3 -14 -17 -20 -30 -7 -21 -12 -23 -28 -14 -11 5 -29
10 -40 10 -11 0 -41 20 -67 45 -48 47 -64 55 -64 30 0 -32 -33 -34 -87 -3 -29
16 -57 27 -62 24 -5 -4 -28 -4 -50 0 -29 5 -41 11 -41 24 0 9 -3 20 -7 24 -5
4 -8 13 -8 19 0 7 -20 11 -55 10 -56 -1 -95 11 -85 27 3 5 -14 13 -37 17 -44
9 -58 2 -39 -21 6 -7 12 -47 14 -89 l3 -75 -30 -5 c-17 -3 -37 0 -43 5 -9 7
-13 7 -13 -2 0 -8 -12 -11 -35 -8 -31 4 -34 2 -29 -18 7 -27 -15 -33 -130 -36
l-80 -2 -13 32 c-8 20 -22 34 -39 38 -20 5 -24 11 -20 28 3 11 6 24 6 28 0 4
8 4 17 1 13 -5 15 -2 10 11 -4 10 -7 30 -7 46 0 20 -6 31 -20 35 -11 3 -19 12
-17 18 1 7 -6 11 -16 9 -12 -2 -21 4 -24 17 -5 22 -45 40 -50 24 -5 -13 -60
-4 -74 13 -10 12 -13 12 -23 -1 -9 -11 -20 -12 -49 -6 -50 12 -55 18 -29 37
l22 15 -26 45 -26 44 44 0 c34 0 54 7 88 32 28 21 45 28 48 20 2 -7 15 -12 28
-12 14 0 34 -9 46 -20 12 -11 19 -20 15 -20 -4 0 1 -9 10 -20 10 -11 25 -20
34 -20 10 0 19 -5 21 -12 3 -8 10 -7 26 4 20 14 21 17 7 28 -9 7 -14 19 -11
26 3 8 -2 18 -11 23 -14 8 -14 9 4 15 29 9 35 66 11 96 -10 12 -15 27 -11 33
3 5 1 7 -5 3 -6 -3 -27 1 -47 11 -26 13 -43 31 -60 68 -14 27 -20 52 -15 53 6
2 7 8 4 13 -3 6 2 19 11 29 10 11 17 32 17 47 0 15 4 33 10 40 6 8 3 15 -9 22
-17 9 -17 12 5 53 12 24 22 53 22 65 0 12 5 25 10 28 6 3 10 17 10 31 0 17 6
24 18 24 22 0 72 72 72 103 0 11 10 31 22 44 20 22 21 23 2 23 -10 0 -28 -14
-39 -30z m-319 -1207 c18 -24 17 -33 -1 -33 -8 0 -15 7 -15 16 0 8 -4 12 -10
9 -11 -7 -14 8 -3 18 10 10 15 9 29 -10z m-82 -189 c3 -8 2 -12 -4 -9 -6 3
-10 10 -10 16 0 14 7 11 14 -7z"/>
<path d="M13866 12275 c4 -8 8 -15 10 -15 2 0 4 7 4 15 0 8 -4 15 -10 15 -5 0
-7 -7 -4 -15z"/>
<path d="M13910 12170 c0 -5 5 -10 11 -10 5 0 7 5 4 10 -3 6 -8 10 -11 10 -2
0 -4 -4 -4 -10z"/>
<path d="M15232 11900 c-9 -15 -8 -19 4 -24 26 -10 32 -7 27 14 -8 29 -17 32
-31 10z"/>
<path d="M15850 11793 c0 -7 -7 -13 -15 -13 -17 0 -21 -35 -5 -45 17 -10 11
-78 -10 -118 -11 -20 -20 -49 -20 -64 0 -55 -13 -55 -71 -2 -38 35 -55 45 -57
35 -3 -11 -9 -13 -27 -6 -17 7 -25 5 -29 -6 -3 -8 -10 -12 -16 -9 -5 3 -20 -1
-32 -9 -12 -9 -33 -16 -45 -16 -16 0 -21 -4 -17 -15 4 -8 1 -15 -5 -15 -6 0
-11 -5 -11 -11 0 -5 6 -7 13 -3 9 5 9 4 0 -6 -6 -7 -9 -20 -6 -29 4 -9 3 -13
-2 -9 -4 4 -16 -7 -25 -25 -10 -19 -27 -33 -40 -35 -27 -4 -80 -57 -80 -78 0
-8 -7 -25 -15 -38 -14 -21 -14 -25 5 -48 10 -14 17 -28 14 -30 -6 -7 17 -60
31 -71 6 -5 3 -13 -9 -22 -18 -13 -17 -14 8 -21 25 -6 26 -7 10 -25 -18 -20
-12 -52 8 -47 7 1 23 -3 35 -10 15 -8 24 -9 28 -1 10 15 45 -19 45 -43 0 -16
15 -23 46 -19 6 1 19 -10 28 -24 l17 -25 26 24 c17 16 24 30 19 41 -9 24 17
13 30 -13 6 -13 14 -18 20 -12 5 5 25 11 44 12 32 3 35 1 38 -27 5 -40 11 -45
60 -50 29 -3 44 1 54 12 14 18 19 63 6 63 -5 0 -13 11 -18 25 -5 14 -14 25
-20 25 -14 0 -13 37 1 46 7 4 7 9 2 13 -6 3 -13 23 -16 43 -4 27 -2 38 9 42
19 7 8 56 -18 74 -10 7 -30 36 -44 64 -33 65 -21 81 35 50 49 -28 68 -28 76
-1 6 17 13 20 35 15 23 -4 30 -1 35 15 4 13 12 18 22 15 11 -5 13 -2 8 11 -3
10 -9 31 -12 46 -3 16 -12 31 -20 34 -8 3 -11 13 -7 25 3 10 1 25 -6 33 -7 8
-7 15 -1 19 6 4 6 18 1 36 -8 27 -7 30 16 30 13 0 24 2 24 5 0 16 -86 84 -109
87 -15 2 -26 9 -26 18 0 16 37 15 43 -1 6 -17 19 -9 17 10 -1 22 -23 51 -38
51 -5 0 -16 8 -23 18 -8 10 -13 12 -14 5z"/>
<path d="M8079 11609 c-6 -11 -8 -27 -5 -35 3 -9 -1 -14 -13 -14 -12 0 -21
-10 -25 -25 -4 -14 -13 -25 -20 -25 -8 0 -28 -12 -45 -26 -20 -17 -39 -24 -52
-21 -16 4 -18 3 -9 -8 7 -9 10 -38 8 -70 -2 -45 0 -56 14 -61 10 -3 27 -18 38
-34 l21 -29 -22 -26 c-13 -14 -29 -25 -36 -25 -7 0 -13 -7 -13 -15 0 -8 5 -15
10 -15 6 0 10 -9 10 -19 0 -11 5 -23 10 -26 7 -4 7 -12 2 -18 -5 -7 -14 -30
-20 -53 -7 -23 -23 -53 -37 -68 -14 -15 -25 -33 -25 -41 0 -8 -5 -17 -11 -21
-7 -4 -8 -19 -5 -37 6 -29 5 -30 -8 -12 -15 20 -15 20 -16 0 0 -11 -6 -29 -13
-40 -20 -29 -29 -86 -16 -101 8 -10 6 -20 -10 -40 -23 -29 -28 -73 -9 -92 9
-9 8 -13 -4 -17 -11 -4 -16 -20 -16 -51 -1 -47 1 -48 64 -29 6 2 25 28 43 59
33 59 39 63 73 45 19 -10 20 -9 15 13 -8 30 1 42 19 27 14 -11 55 12 83 45 12
14 16 14 45 -2 17 -9 38 -17 47 -18 30 -2 79 -44 79 -67 0 -21 0 -21 14 -1 20
28 30 90 17 98 -23 15 -9 24 20 14 26 -9 35 -7 61 12 24 18 32 20 39 9 4 -8
28 -14 53 -15 36 -1 45 2 49 17 3 10 1 19 -4 19 -5 0 -9 17 -9 38 0 21 -6 46
-13 57 -18 27 -27 65 -16 65 14 0 -7 36 -48 80 -25 28 -33 45 -28 59 5 17 14
20 51 18 27 -2 49 2 56 10 6 7 15 10 21 6 7 -4 8 14 5 55 -4 37 -2 64 5 71 8
8 7 11 -2 11 -18 0 -50 41 -51 63 -1 47 -94 136 -148 142 -14 1 -30 9 -36 17
-6 8 -20 18 -32 22 -11 3 -26 22 -33 41 -7 19 -17 35 -22 35 -5 0 -14 11 -19
24 -5 13 -22 28 -39 34 -27 10 -32 8 -42 -9z"/>
<path d="M14595 11560 c3 -5 10 -10 16 -10 5 0 9 5 9 10 0 6 -7 10 -16 10 -8
0 -12 -4 -9 -10z"/>
<path d="M16083 11546 c8 -20 -25 -26 -60 -11 -29 12 -30 12 -25 -12 3 -14 -1
-29 -8 -33 -9 -6 -9 -12 1 -29 8 -11 16 -21 19 -21 17 1 32 21 33 44 2 26 7
30 38 27 18 -2 33 25 23 40 -9 15 -27 10 -21 -5z"/>
<path d="M14656 11508 c3 -5 10 -6 15 -3 13 9 11 12 -6 12 -8 0 -12 -4 -9 -9z"/>
<path d="M13429 11278 c-1 -7 -1 -17 0 -21 1 -5 -6 -4 -15 1 -26 15 -56 3 -49
-19 5 -14 1 -19 -14 -19 -12 0 -21 -7 -21 -15 0 -9 -10 -19 -23 -24 -13 -5
-29 -16 -36 -25 -7 -9 -18 -16 -23 -16 -6 0 -23 -14 -38 -30 -28 -30 -28 -31
-9 -43 10 -6 19 -19 19 -28 0 -23 51 -35 62 -16 10 20 44 11 63 -16 8 -12 18
-18 22 -14 3 4 -1 13 -10 20 -13 9 -15 19 -8 42 7 25 10 27 16 13 4 -10 11
-15 16 -12 5 3 9 -1 9 -8 1 -10 4 -9 13 2 12 16 62 26 53 11 -3 -4 8 -18 24
-30 24 -17 30 -19 30 -6 0 18 5 18 30 5 21 -11 71 2 52 14 -7 4 -12 24 -12 45
0 30 -5 40 -24 49 -32 14 -60 57 -53 81 3 13 -4 25 -22 38 -43 32 -51 35 -52
21z"/>
<path d="M14163 11273 c-7 -2 -13 -14 -13 -26 0 -22 -50 -87 -66 -87 -4 0 -23
-10 -41 -22 -34 -23 -60 -85 -49 -114 3 -8 2 -14 -2 -15 -4 0 -17 -2 -28 -5
-12 -2 -50 11 -85 30 -65 34 -89 36 -89 10 0 -10 -8 -13 -27 -9 -16 3 -21 2
-13 -1 8 -4 18 -12 22 -18 15 -22 7 -26 -18 -9 -38 24 -72 26 -79 2 -8 -23
-14 -24 -42 -4 -18 13 -22 13 -33 0 -9 -11 -6 -17 15 -31 18 -12 22 -19 14
-24 -6 -4 -9 -12 -5 -18 3 -5 -1 -13 -10 -16 -16 -6 -15 -19 1 -58 4 -12 3
-18 -5 -18 -7 0 -26 -11 -42 -25 -16 -14 -34 -23 -39 -19 -5 3 -9 -2 -9 -10 0
-9 -3 -16 -7 -16 -10 0 -10 -61 0 -77 5 -8 3 -13 -7 -13 -8 0 -18 5 -21 10
-13 21 -23 9 -12 -14 7 -15 26 -29 49 -35 21 -7 50 -22 64 -35 l27 -22 23 23
c23 23 74 32 74 12 0 -5 4 -8 9 -4 12 7 26 -15 15 -24 -9 -6 -10 -10 -12 -62
-2 -26 -5 -29 -23 -24 -19 6 -20 5 -9 -15 10 -18 9 -24 -1 -31 -7 -4 -10 -11
-6 -16 8 -7 13 -8 78 -11 30 -2 39 -7 49 -32 12 -29 41 -47 59 -36 5 4 12 -3
16 -14 6 -20 25 -28 25 -11 0 5 9 11 20 14 12 3 20 14 20 26 0 12 4 21 9 21 4
0 8 10 8 23 -1 77 4 108 15 105 7 -3 19 1 26 9 7 7 29 13 48 13 22 0 36 5 39
15 3 8 8 23 11 33 4 9 6 55 5 102 -2 83 -1 85 29 110 16 14 30 31 30 39 0 9 7
11 21 8 17 -5 20 -1 18 21 -5 62 1 82 24 91 13 5 36 24 51 42 20 24 30 29 39
20 12 -12 47 -15 47 -3 0 4 -7 18 -16 30 -12 17 -12 22 -2 22 8 1 4 9 -9 19
-13 11 -31 17 -41 14 -13 -3 -18 2 -18 19 -1 85 -4 98 -25 98 -12 0 -30 11
-41 25 -19 25 -31 28 -55 18z"/>
<path d="M7880 11210 c0 -5 5 -10 11 -10 5 0 7 5 4 10 -3 6 -8 10 -11 10 -2 0
-4 -4 -4 -10z"/>
<path d="M11404 10599 c0 -13 3 -15 13 -7 7 6 13 12 13 13 0 2 -6 5 -13 8 -7
3 -13 -3 -13 -14z"/>
<path d="M8224 10577 c-8 -21 2 -35 16 -21 5 5 6 15 0 24 -8 12 -10 12 -16 -3z"/>
<path d="M8833 10553 c-41 -38 -76 -55 -141 -68 -27 -5 -36 -2 -52 17 -22 26
-25 20 -8 -17 10 -21 9 -28 -2 -35 -11 -7 -11 -12 -2 -23 10 -11 9 -17 -3 -27
-8 -7 -15 -19 -15 -26 0 -8 -9 -14 -20 -14 -13 0 -22 -9 -26 -25 -3 -14 -12
-25 -20 -25 -8 0 -14 -4 -14 -10 0 -10 -47 -26 -67 -22 -7 2 -13 -1 -13 -5 0
-5 -16 -17 -36 -28 -30 -16 -37 -17 -45 -4 -5 7 -9 22 -9 33 0 14 5 17 21 13
17 -5 18 -3 7 11 -7 9 -14 19 -15 21 -1 2 -9 -2 -18 -9 -12 -10 -16 -8 -25 15
-12 31 -13 46 -2 43 4 -2 9 2 12 7 7 14 -59 19 -75 5 -8 -7 -19 -9 -25 -5 -15
9 -52 -35 -45 -53 3 -9 0 -12 -9 -9 -9 4 -16 -3 -21 -20 -3 -14 -12 -32 -20
-39 -12 -12 -16 -12 -29 1 -14 14 -18 14 -38 1 -13 -8 -42 -13 -66 -12 -24 1
-45 -1 -48 -5 -2 -4 -13 -5 -24 -2 -14 4 -20 0 -20 -11 0 -10 -8 -16 -21 -16
-11 0 -29 -5 -40 -11 -14 -7 -24 -7 -33 0 -7 6 -15 8 -18 5 -4 -3 -25 4 -48
15 -30 14 -40 16 -37 7 4 -10 -5 -16 -29 -20 -19 -4 -34 -11 -34 -16 0 -17
-25 -11 -43 11 -10 11 -16 27 -13 35 3 9 -5 26 -18 39 -29 29 -42 60 -22 52
15 -6 26 12 26 43 0 12 -10 21 -31 25 -28 6 -35 3 -69 -36 -32 -37 -39 -41
-45 -26 -10 23 -25 22 -25 -3 0 -27 -22 -25 -50 5 -29 31 -38 31 -51 3 -15
-34 -76 -71 -96 -59 -13 7 -21 3 -35 -14 -15 -19 -25 -22 -72 -20 -38 2 -59
-2 -67 -11 -17 -20 -50 -17 -56 5 -2 10 -16 24 -29 30 -15 7 -23 7 -19 1 3 -5
-1 -10 -9 -10 -9 0 -16 4 -16 8 0 11 -59 32 -75 26 -11 -5 -12 -10 -2 -25 9
-14 9 -21 -1 -31 -6 -6 -12 -20 -12 -30 0 -10 -6 -21 -14 -24 -12 -5 -28 -54
-26 -81 0 -5 14 -12 31 -16 19 -5 29 -13 26 -21 -3 -7 -9 -35 -12 -61 -7 -41
-10 -46 -29 -43 -26 5 -49 -31 -35 -54 14 -21 10 -41 -6 -35 -8 4 -17 2 -20
-4 -4 -5 -11 -7 -16 -4 -17 11 -31 -6 -18 -21 13 -16 55 -19 64 -4 6 10 56 3
65 -10 3 -4 15 -12 28 -19 17 -9 22 -9 22 1 0 13 44 38 67 38 7 0 20 18 29 40
11 27 22 40 35 40 10 0 19 5 19 11 0 8 5 8 15 -1 9 -7 15 -29 15 -53 0 -22 9
-54 19 -71 11 -17 20 -47 20 -66 1 -19 2 -53 3 -76 2 -37 -16 -80 -35 -82 -19
-3 -39 -20 -29 -26 11 -7 4 -86 -9 -101 -5 -5 -9 -17 -9 -27 0 -9 -9 -22 -20
-28 -11 -6 -20 -17 -20 -25 0 -9 -10 -15 -24 -15 -13 0 -29 -7 -36 -15 -7 -8
-21 -15 -31 -15 -12 0 -19 -7 -19 -20 0 -12 -5 -17 -14 -14 -14 5 -39 -43 -34
-66 2 -7 -11 -17 -28 -24 -17 -6 -29 -16 -27 -23 3 -8 -6 -10 -29 -7 -24 4
-38 1 -47 -10 -11 -13 -11 -16 1 -16 8 0 36 -11 61 -24 25 -14 48 -22 51 -19
3 4 6 -1 6 -10 0 -8 6 -17 13 -20 8 -3 5 -14 -11 -36 -26 -36 -25 -78 4 -133
13 -25 13 -28 -1 -28 -12 0 -14 -7 -9 -27 9 -38 23 -63 34 -63 6 0 10 -6 10
-13 0 -23 -91 -18 -117 6 -21 18 -24 19 -47 4 -23 -15 -26 -15 -50 4 -34 26
-40 53 -21 83 15 23 15 25 -3 30 -11 4 -24 6 -28 5 -5 -1 -12 0 -16 1 -15 5
-28 8 -43 9 -9 0 -20 12 -27 26 -6 13 -15 22 -20 19 -5 -3 -18 6 -29 20 -11
14 -30 26 -42 26 -26 0 -54 -36 -34 -44 9 -3 8 -7 -3 -15 -10 -7 -19 -6 -29 2
-12 10 -13 8 -7 -15 4 -18 2 -28 -4 -28 -6 0 1 -16 15 -35 15 -19 24 -38 21
-44 -3 -5 8 -14 25 -20 31 -11 32 -31 1 -31 -14 0 -16 -8 -14 -50 3 -32 -1
-56 -10 -67 -10 -13 -10 -17 0 -20 6 -3 12 -17 12 -32 0 -22 7 -29 36 -40 30
-11 38 -11 53 3 24 22 33 20 29 -8 -3 -26 19 -59 34 -50 5 3 14 -8 21 -25 6
-17 17 -33 24 -36 18 -6 53 16 53 33 0 9 6 12 16 8 8 -3 12 -2 9 4 -3 6 5 10
18 10 16 0 26 7 30 20 4 15 14 20 36 20 23 0 29 4 25 15 -6 15 7 21 20 8 18
-18 47 -12 56 12 7 18 17 25 35 25 14 0 25 -6 25 -12 0 -7 14 -21 30 -30 17
-10 34 -27 38 -38 l8 -21 28 22 c15 12 25 28 22 35 -5 13 12 18 52 17 31 -2 1
23 -41 34 -25 6 -51 14 -56 18 -7 3 -8 0 -5 -9 10 -27 -25 -31 -52 -6 -33 32
-32 65 5 78 25 9 29 16 36 67 5 42 13 64 31 80 13 12 24 30 24 39 0 23 19 59
37 69 16 10 10 38 -17 77 -10 14 -14 34 -11 46 5 18 10 20 29 13 12 -5 22 -13
22 -20 0 -6 6 -9 13 -6 13 4 68 -20 78 -34 9 -15 129 -58 129 -47 0 5 6 8 13
5 15 -5 36 22 37 46 0 16 2 16 29 2 16 -8 37 -22 46 -31 9 -9 26 -18 38 -19
12 -1 25 -3 30 -4 4 0 12 -12 17 -26 7 -18 14 -23 27 -18 38 13 44 25 37 70
-5 31 -3 43 6 43 14 0 150 139 150 153 0 13 57 67 71 67 21 0 58 41 53 59 -3
10 2 7 13 -7 10 -13 30 -35 46 -49 32 -31 36 -72 7 -80 -11 -3 -20 -10 -20
-15 0 -6 6 -8 14 -5 9 4 19 -5 26 -24 7 -16 19 -29 26 -29 8 0 14 -6 14 -14 0
-8 11 -17 24 -20 14 -3 38 -17 54 -31 16 -13 32 -22 35 -18 10 9 67 -18 77
-37 5 -10 22 -21 37 -25 36 -9 53 -23 53 -46 0 -46 137 -198 223 -248 31 -18
55 -37 52 -42 -4 -5 1 -9 11 -9 12 0 14 -3 5 -13 -7 -9 -7 -17 0 -24 17 -17
-7 -60 -40 -71 -17 -6 -31 -18 -31 -26 0 -9 -7 -16 -15 -16 -8 0 -15 -6 -15
-12 0 -7 -8 -3 -18 10 -10 13 -30 24 -45 26 -15 1 -30 6 -34 9 -11 12 -23 8
-23 -9 0 -8 -4 -13 -9 -10 -5 3 -11 -3 -14 -14 -3 -12 -14 -20 -26 -20 -18 0
-19 -3 -11 -25 10 -25 -2 -75 -17 -75 -5 0 -8 -19 -8 -43 -1 -45 16 -72 40
-63 20 7 19 36 0 36 -24 0 -18 38 9 55 18 12 30 13 50 6 18 -7 26 -7 26 0 0 6
10 9 23 8 12 -2 33 4 47 13 14 9 44 23 68 30 23 7 42 16 42 21 0 4 10 -1 22
-12 17 -17 24 -18 36 -8 8 6 26 10 39 9 22 -3 23 -1 14 17 -15 28 16 46 54 31
28 -10 87 -1 131 21 16 8 28 8 44 -1 17 -9 25 -9 39 4 16 15 19 15 35 -3 15
-17 26 -19 70 -14 28 3 54 10 57 15 10 16 60 -4 69 -27 13 -33 29 -35 80 -8
27 15 55 22 70 20 152 -29 147 -29 172 -4 15 15 22 32 20 49 -3 22 0 26 17 21
16 -4 21 -1 21 15 0 11 -6 23 -12 25 -8 3 -5 6 5 6 33 2 76 31 93 62 10 20 20
29 30 25 23 -9 64 4 64 20 0 8 13 17 30 20 16 4 35 13 41 20 6 8 18 14 25 14
8 0 28 23 45 50 17 28 37 50 44 50 7 0 21 21 31 48 19 49 54 113 54 98 0 -5 6
-4 13 1 19 15 107 34 127 28 11 -3 20 0 24 10 3 8 12 15 20 15 21 0 30 18 17
34 -8 10 -6 18 9 31 11 10 20 24 20 32 0 7 7 13 16 13 11 0 14 5 10 17 -4 9
-3 19 2 22 5 3 21 25 36 48 14 24 32 42 39 40 7 -1 13 10 15 26 3 20 -1 27
-15 28 -10 0 -13 3 -6 6 10 3 9 12 -2 39 l-14 34 35 1 c46 2 51 3 60 12 4 4
16 7 27 7 15 0 18 5 13 25 -7 26 2 30 48 25 14 -1 18 3 14 18 -4 15 -2 19 8
15 30 -11 11 7 -32 31 -35 20 -50 23 -64 16 -15 -8 -24 -5 -40 12 -11 12 -20
30 -20 41 0 16 5 19 30 14 16 -4 32 -2 36 4 3 6 16 14 28 19 18 8 17 9 -11 9
-26 1 -30 4 -26 21 3 12 -1 28 -10 38 -8 9 -19 31 -22 47 -9 35 -59 91 -89 99
-20 5 -54 57 -103 156 -12 25 -22 41 -22 36 -1 -4 -13 -1 -27 9 -14 9 -34 15
-45 12 -10 -3 -26 1 -36 9 -10 7 -27 14 -39 14 -12 0 -25 10 -32 25 -15 32
-15 48 -2 40 6 -3 10 0 10 7 0 19 -23 68 -32 68 -5 0 -8 7 -8 16 0 9 -14 29
-31 45 -17 16 -28 33 -25 38 4 5 -5 18 -18 28 -18 14 -23 26 -19 45 6 29 -22
78 -43 78 -8 0 -17 6 -20 14 -17 45 -104 58 -104 16 0 -17 -5 -18 -47 -14 -49
6 -108 -9 -99 -25 3 -5 -6 -8 -19 -8 -14 0 -28 3 -31 8 -9 15 -21 10 -27 -12
-5 -17 -11 -20 -29 -16 -13 3 -41 2 -62 -3 -23 -5 -47 -5 -56 0 -13 7 -26 1
-51 -21 -40 -36 -65 -33 -113 11 -17 17 -32 25 -34 20 -6 -17 -19 -11 -58 24
-21 19 -43 32 -51 29 -7 -3 -29 7 -48 21 -19 15 -39 25 -44 21 -5 -3 -13 0
-16 6 -4 5 -13 8 -20 5 -8 -3 -15 0 -17 5 -2 6 -22 -7 -45 -28z m-213 -218 c0
-8 -2 -15 -4 -15 -2 0 -6 7 -10 15 -3 8 -1 15 4 15 6 0 10 -7 10 -15z m-1520
-875 c0 -5 -4 -10 -10 -10 -5 0 -10 5 -10 10 0 6 5 10 10 10 6 0 10 -4 10 -10z
m-722 -552 c14 -14 16 -28 2 -28 -5 0 -14 9 -20 20 -12 22 -1 27 18 8z m2262
-428 c8 -5 11 -12 8 -16 -10 -9 -38 3 -38 16 0 12 10 13 30 0z"/>
<path d="M11344 10565 c-4 -8 -15 -15 -26 -15 -11 0 -28 -5 -38 -10 -11 -6
-21 -6 -24 -1 -3 5 -16 7 -27 4 -20 -5 -20 -7 -6 -18 21 -15 41 -65 26 -65
-13 0 -1 -42 15 -52 13 -9 -10 -28 -33 -28 -11 0 -12 -3 -4 -11 9 -9 9 -16 0
-31 -9 -14 -9 -20 0 -26 6 -4 9 -19 6 -36 -5 -25 -9 -27 -34 -22 -20 4 -29 1
-29 -8 0 -7 -11 -18 -25 -24 -22 -10 -25 -16 -20 -52 4 -31 1 -40 -10 -40 -8
0 -15 -9 -15 -20 0 -11 -8 -23 -17 -27 -37 -13 -93 -59 -93 -75 0 -10 -6 -18
-14 -18 -19 0 -57 -54 -51 -72 3 -8 -5 -24 -19 -37 -14 -13 -22 -30 -19 -41 3
-12 -2 -20 -16 -25 -12 -3 -21 -13 -21 -21 0 -8 -10 -14 -24 -14 -14 0 -28 -5
-31 -11 -4 -6 -13 -8 -20 -5 -8 3 -18 -7 -24 -26 -7 -20 -16 -28 -25 -25 -10
4 -13 1 -10 -7 3 -7 1 -31 -4 -53 -8 -37 -7 -40 17 -51 14 -7 35 -19 45 -27
19 -15 19 -15 -4 -40 -22 -24 -47 -35 -36 -16 11 17 -6 43 -25 38 -12 -3 -16
0 -12 9 3 8 -5 18 -22 24 -35 13 -37 11 -22 -29 10 -27 9 -33 -3 -41 -21 -13
-71 -8 -77 7 -4 10 -9 11 -19 2 -17 -14 -19 -33 -3 -23 7 4 10 1 7 -7 -3 -8
-11 -13 -17 -12 -14 4 -15 -14 -1 -22 28 -17 -14 -105 -50 -105 -10 0 -21 -7
-24 -16 -8 -21 11 -54 32 -54 10 0 35 -17 56 -39 31 -32 35 -39 21 -45 -12 -4
-15 -12 -10 -24 4 -9 10 -23 13 -31 4 -10 1 -12 -8 -6 -8 5 -11 3 -8 -6 3 -8
12 -13 22 -11 9 2 16 -2 16 -7 0 -15 84 -51 119 -51 22 0 31 -5 31 -16 0 -13
3 -14 14 -5 8 7 25 9 42 5 23 -6 26 -4 21 10 -5 12 -1 16 18 16 13 0 36 5 50
12 20 9 31 9 45 0 11 -6 26 -9 34 -6 9 3 36 -8 62 -25 36 -23 51 -28 65 -21
10 6 31 10 47 10 22 0 31 6 35 22 4 12 1 25 -4 29 -8 4 -6 15 5 31 10 15 14
33 9 43 -5 15 -3 17 11 12 10 -4 28 -4 41 -1 20 5 22 9 13 24 -9 14 -9 22 1
33 6 9 8 18 3 21 -12 7 -52 -4 -52 -16 0 -5 -11 4 -25 19 -21 24 -26 26 -35
13 -5 -8 -10 -23 -10 -32 0 -11 -8 -18 -20 -18 -12 0 -20 -7 -20 -16 0 -13 -7
-15 -31 -10 -17 3 -38 6 -46 6 -10 0 -12 6 -8 19 3 11 1 22 -5 26 -16 10 -12
35 7 35 9 0 -7 13 -37 28 -45 24 -57 26 -66 15 -9 -11 -19 -10 -60 3 -27 10
-55 18 -61 20 -19 5 -16 24 3 24 9 0 34 5 55 12 31 9 39 16 39 35 0 18 6 23
24 23 12 0 37 13 53 29 24 22 30 36 28 63 -1 20 -6 41 -10 48 -6 9 -3 9 13 1
30 -16 41 -13 35 9 -4 16 0 20 17 20 13 0 28 8 35 17 11 15 9 25 -11 63 -32
61 -51 83 -63 75 -7 -4 -11 5 -11 24 0 17 5 31 11 31 14 0 42 69 35 87 -4 10
-2 13 8 10 14 -6 56 26 56 43 0 18 39 5 49 -16 9 -20 6 -24 -21 -33 -17 -6
-35 -8 -41 -4 -6 4 -8 -2 -4 -18 4 -13 7 -32 7 -41 0 -10 7 -18 15 -18 8 0 14
-3 13 -7 -2 -5 14 -25 34 -45 21 -20 40 -48 44 -62 3 -14 10 -26 15 -26 13 0
11 -44 -2 -57 -8 -8 -5 -17 11 -33 12 -12 19 -27 17 -35 -8 -19 34 -38 62 -27
20 7 21 10 8 15 -10 4 -17 1 -17 -5 0 -6 -9 -3 -20 7 -25 22 -29 95 -5 95 8 0
19 9 25 20 8 15 7 26 -7 47 -35 53 -43 91 -27 135 8 22 14 50 14 61 0 26 31
110 43 118 6 4 7 14 4 23 -5 11 1 20 18 28 14 6 25 19 25 29 0 10 7 24 15 33
14 14 12 18 -20 38 -36 24 -51 57 -17 40 30 -16 44 -4 26 24 -9 13 -21 24 -26
24 -6 0 -6 -6 1 -14 19 -23 -3 -27 -39 -7 -39 20 -54 47 -22 37 15 -5 22 -2
27 14 3 11 11 20 16 20 6 0 7 5 4 10 -3 6 -15 10 -26 10 -10 0 -19 3 -19 6 0
6 23 52 42 84 4 8 13 27 19 43 6 15 15 27 20 27 5 0 14 12 20 27 7 20 6 28 -3
35 -20 12 -38 10 -44 -7z m-664 -1190 c19 -22 6 -42 -32 -48 -38 -5 -58 7 -58
35 0 16 5 19 25 16 14 -3 28 -1 31 3 8 13 20 11 34 -6z"/>
<path d="M7713 10438 c-4 -7 -19 -19 -33 -26 -14 -7 -17 -10 -7 -7 10 3 25 5
32 5 7 0 16 7 19 16 8 21 0 30 -11 12z"/>
<path d="M6790 10410 c0 -4 9 -15 20 -25 11 -10 20 -24 20 -32 0 -7 5 -13 11
-13 6 0 9 -7 5 -15 -3 -8 -1 -15 3 -15 16 0 20 28 5 40 -8 7 -14 23 -14 35 0
16 -7 24 -25 27 -14 3 -25 2 -25 -2z"/>
<path d="M7608 10383 c7 -3 16 -2 19 1 4 3 -2 6 -13 5 -11 0 -14 -3 -6 -6z"/>
<path d="M11398 10383 c6 -2 18 -2 25 0 6 3 1 5 -13 5 -14 0 -19 -2 -12 -5z"/>
<path d="M11335 10370 c-3 -5 3 -10 14 -10 11 0 23 5 26 10 3 6 -3 10 -14 10
-11 0 -23 -4 -26 -10z"/>
<path d="M11525 9890 c-3 -5 -1 -18 5 -29 13 -25 13 -68 0 -76 -5 -3 -10 -12
-10 -20 0 -17 40 -8 47 12 4 10 15 12 39 7 54 -10 39 43 -26 89 -42 30 -46 31
-55 17z"/>
<path d="M6616 9791 c-26 -51 -43 -61 -105 -61 -25 0 -32 -4 -28 -15 4 -8 1
-17 -4 -21 -6 -3 -9 -19 -5 -34 4 -24 -1 -33 -29 -54 -18 -14 -38 -26 -43 -26
-6 0 -12 -7 -16 -15 -3 -8 -15 -15 -27 -15 -20 0 -21 -4 -17 -44 6 -52 26 -78
51 -65 11 7 19 4 25 -7 9 -15 10 -15 17 5 6 19 9 20 23 9 17 -14 17 -14 -4 37
-4 11 0 15 16 15 24 0 100 71 100 93 0 7 5 18 12 25 7 7 12 27 13 45 0 25 5
33 23 35 23 4 25 11 22 89 -1 36 2 42 22 46 23 4 23 4 1 6 -18 1 -28 -10 -47
-48z"/>
<path d="M11509 9713 c-13 -16 -12 -17 4 -4 9 7 17 15 17 17 0 8 -8 3 -21 -13z"/>
<path d="M11463 9648 c-9 -18 -16 -36 -15 -40 5 -19 -43 -58 -71 -58 -22 0
-28 -4 -23 -16 3 -9 6 -17 6 -20 0 -2 12 1 27 7 18 7 30 6 37 -1 14 -14 -30
-49 -61 -50 -23 0 -32 -23 -13 -35 5 -3 7 -12 4 -20 -6 -15 -62 -18 -81 -3 -7
5 -14 5 -18 -2 -3 -5 -14 -10 -25 -10 -21 0 -37 -33 -19 -39 7 -2 24 -15 37
-28 13 -13 27 -21 31 -19 5 3 17 -1 27 -9 18 -14 18 -15 -9 -40 -16 -16 -24
-31 -20 -38 5 -8 9 -7 11 6 4 20 11 21 47 7 16 -6 33 -7 42 -1 14 7 13 10 -5
20 -30 16 -27 33 7 54 31 18 57 76 47 102 -3 8 -1 15 4 15 6 0 10 7 10 16 0
10 6 14 18 10 27 -8 51 16 45 47 -3 15 -9 25 -13 22 -13 -8 -17 29 -5 52 7 13
14 21 17 18 7 -8 3 29 -6 43 -4 6 -5 16 -1 21 3 5 1 12 -4 16 -6 3 -18 -9 -28
-27z"/>
<path d="M11570 9541 c-7 -13 -7 -22 0 -26 5 -3 10 1 10 9 0 9 5 16 10 16 6 0
10 5 10 10 0 17 -19 11 -30 -9z"/>
<path d="M6473 9389 c-7 -9 -9 -20 -3 -29 12 -19 22 -7 18 21 -2 19 -5 20 -15
8z"/>
<path d="M6412 9359 c-7 -11 -17 -17 -22 -14 -6 3 -10 -2 -10 -12 0 -11 -5
-24 -10 -29 -8 -8 -6 -15 5 -24 13 -11 20 -10 42 6 44 33 51 51 28 74 l-20 20
-13 -21z"/>
<path d="M6353 9232 c-13 -15 -23 -31 -23 -35 0 -15 -27 -36 -36 -29 -4 4 4
-8 19 -26 15 -19 27 -40 27 -48 0 -23 20 -16 30 11 9 25 16 142 9 149 -2 3
-14 -8 -26 -22z"/>
<path d="M11335 9210 c3 -5 8 -10 11 -10 2 0 4 5 4 10 0 6 -5 10 -11 10 -5 0
-7 -4 -4 -10z"/>
<path d="M6345 9049 c-4 -5 -18 -14 -31 -19 -19 -8 -24 -16 -22 -40 1 -16 6
-30 11 -30 11 0 69 48 80 66 9 16 -28 40 -38 23z"/>
<path d="M6230 8955 c0 -8 9 -15 20 -15 11 0 20 2 20 5 0 2 -9 9 -20 15 -16 9
-20 8 -20 -5z"/>
<path d="M6157 8915 c-8 -20 5 -35 28 -35 25 0 52 34 36 44 -14 9 -60 3 -64
-9z"/>
<path d="M6115 8910 c-3 -5 -29 -7 -57 -4 -41 4 -49 2 -40 -8 16 -20 18 -94 3
-112 -12 -14 -12 -16 1 -11 24 9 31 -23 8 -35 -22 -12 -27 -40 -7 -40 35 1 58
14 54 31 -3 13 1 19 16 21 28 4 36 38 9 38 -11 0 -22 8 -25 18 -2 9 -8 25 -12
35 -4 10 -3 17 5 17 6 0 8 -4 5 -10 -3 -5 3 -10 13 -10 14 0 22 11 30 40 10
39 9 49 -3 30z"/>
<path d="M5830 8681 c0 -25 -37 -61 -62 -61 -10 0 -18 -5 -18 -12 0 -9 -3 -9
-12 0 -8 8 -17 8 -31 1 -10 -6 -30 -9 -44 -6 -19 3 -27 -1 -35 -19 -6 -13 -17
-24 -25 -24 -7 0 -21 -9 -30 -20 -10 -11 -24 -20 -33 -20 -12 0 -70 -60 -70
-73 0 -9 46 -1 53 10 5 8 15 9 30 4 12 -5 33 -7 47 -6 19 1 24 7 22 23 -5 32
40 29 71 -4 l24 -26 22 27 c11 15 21 32 21 37 0 5 14 -2 31 -16 17 -14 36 -26
43 -26 7 0 25 -13 41 -30 16 -16 37 -30 46 -30 32 0 49 -12 49 -34 1 -17 2
-18 9 -6 14 23 1 69 -20 75 -11 4 -28 24 -40 46 -19 39 -19 40 -1 30 15 -8 23
-6 36 8 9 9 16 25 16 35 0 9 7 19 15 22 8 4 15 11 15 16 0 6 -6 5 -15 -2 -15
-13 -20 -5 -16 28 2 11 -27 18 -53 13 -5 -1 -4 4 2 11 13 17 -7 32 -56 43 -28
6 -32 4 -32 -14z"/>
<path d="M5983 8673 c-34 -7 -28 -20 7 -15 17 2 30 8 30 13 0 5 -3 8 -7 8 -5
-1 -18 -4 -30 -6z"/>
<path d="M6885 8571 c-3 -6 -16 -11 -29 -11 -15 0 -27 -9 -35 -26 -14 -32 -11
-37 23 -28 17 4 26 13 26 25 0 14 7 19 26 19 15 0 24 5 22 12 -6 16 -25 21
-33 9z"/>
<path d="M6786 8474 c-9 -22 -8 -24 9 -24 8 0 15 5 15 11 0 5 6 7 13 3 8 -5 8
-2 -2 9 -17 21 -27 22 -35 1z"/>
<path d="M6750 8470 c0 -5 5 -10 10 -10 6 0 10 5 10 10 0 6 -4 10 -10 10 -5 0
-10 -4 -10 -10z"/>
<path d="M5641 8447 c-8 -11 -6 -18 9 -32 25 -22 45 -8 35 24 -7 24 -27 27
-44 8z"/>
<path d="M6723 8438 c1 -7 -9 -14 -23 -16 -14 -2 -29 -10 -33 -18 -4 -8 -16
-14 -26 -14 -14 0 -17 -6 -13 -29 4 -30 -13 -41 -70 -41 -21 0 -29 -6 -34 -25
-3 -14 -11 -25 -17 -25 -7 0 -7 -4 1 -12 7 -7 12 -20 12 -29 0 -27 -69 -40
-96 -18 -7 6 -9 -4 -5 -33 6 -42 39 -77 48 -50 3 6 11 12 19 12 8 0 11 6 8 15
-5 11 -2 13 10 9 9 -3 16 -1 16 5 0 6 9 11 21 11 15 0 19 5 15 15 -3 10 1 15
13 15 10 0 32 7 48 15 23 12 30 21 26 35 -5 17 0 20 27 20 23 0 33 5 37 20 3
11 14 20 24 20 15 0 17 4 11 23 -5 12 -7 41 -7 65 1 23 -2 42 -7 42 -4 0 -7
-6 -5 -12z"/>
<path d="M6065 8338 c-11 -7 -26 -18 -33 -25 -11 -11 -11 -14 1 -19 23 -8 57
14 57 36 0 23 1 23 -25 8z"/>
<path d="M8287 8232 c-13 -3 -17 -10 -14 -24 4 -14 -4 -31 -24 -52 -16 -17
-27 -37 -24 -45 7 -18 -13 -41 -36 -41 -25 0 -25 -35 -1 -52 11 -8 19 -26 20
-45 0 -18 8 -43 16 -55 24 -33 19 -52 -14 -65 -19 -7 -28 -16 -25 -25 7 -18
-45 -98 -64 -98 -11 0 -11 -3 2 -18 12 -13 14 -21 6 -29 -8 -8 -3 -16 19 -27
23 -12 36 -13 59 -4 25 9 29 16 28 43 -1 18 -5 37 -9 44 -4 6 0 18 8 27 9 8
16 20 16 26 0 6 9 -1 20 -15 42 -53 162 -14 144 47 -9 29 -51 72 -85 86 -16 7
-29 17 -29 22 0 5 -14 22 -31 38 l-32 28 17 42 c9 23 13 46 10 52 -4 7 -2 8 4
4 15 -9 35 30 27 54 -3 11 -1 29 5 40 15 28 9 46 -13 42z"/>
<path d="M6372 8128 c-39 -24 -41 -38 -6 -38 17 0 28 6 31 20 3 11 9 17 14 14
5 -3 9 -1 9 5 0 19 -16 19 -48 -1z"/>
<path d="M6310 8065 c-8 -9 -8 -15 -2 -15 12 0 26 19 19 26 -2 2 -10 -2 -17
-11z"/>
<path d="M8065 7754 c9 -9 19 -13 23 -10 3 4 0 11 -8 16 -24 15 -33 11 -15 -6z"/>
<path d="M8080 7721 c0 -5 5 -13 10 -16 6 -3 10 -2 10 4 0 5 -4 13 -10 16 -5
3 -10 2 -10 -4z"/>
<path d="M8170 7598 c0 -13 -4 -28 -10 -34 -6 -6 -3 -10 10 -11 13 -1 21 5 22
18 0 10 1 24 2 31 1 6 -5 13 -11 16 -8 2 -13 -6 -13 -20z"/>
</g>
</svg>
