<?xml version="1.0" standalone="no"?>
<!DOCTYPE svg PUBLIC "-//W3C//DTD SVG 20010904//EN"
 "http://www.w3.org/TR/2001/REC-SVG-20010904/DTD/svg10.dtd">
<svg version="1.0" xmlns="http://www.w3.org/2000/svg"
 width="827.268364pt" height="750.139926pt" viewBox="0 0 827.268364 750.139926"
 preserveAspectRatio="xMidYMid meet">
<metadata>
Created by potrace 1.15, written by Peter Selinger 2001-2017
</metadata>
<g transform="translate(-590.716999,1370.139926) scale(0.100000,-0.100000)"
fill="#222222" stroke="none">
<path d="M6067 13692 c5 -21 40 -59 47 -51 2 2 -9 19 -24 38 -22 25 -27 29
-23 13z"/>
<path d="M6112 13581 c-9 -5 0 -13 27 -26 22 -10 43 -26 46 -35 9 -28 38 -57
57 -57 9 0 15 4 12 8 -2 4 3 12 12 17 16 9 16 12 -3 43 -10 19 -28 34 -39 35
-10 1 -21 2 -24 3 -3 2 -12 4 -21 6 -9 1 -25 5 -35 9 -11 3 -25 2 -32 -3z"/>
<path d="M6250 13572 c0 -5 7 -13 16 -16 10 -4 14 -1 12 6 -5 15 -28 23 -28
10z"/>
<path d="M6193 13448 c4 -12 1 -28 -5 -35 -7 -9 -7 -17 1 -27 9 -11 3 -19 -33
-40 -25 -14 -50 -26 -57 -26 -7 0 -4 -6 7 -14 10 -8 21 -10 22 -5 2 5 10 9 18
9 8 0 14 5 14 10 0 6 14 10 30 10 24 0 30 4 30 21 0 11 5 17 10 14 6 -4 8 -10
5 -15 -3 -4 4 -6 15 -3 16 4 18 9 9 24 -5 10 -6 19 -2 19 4 0 -2 6 -13 14 -10
8 -16 17 -12 21 6 7 -26 45 -38 45 -4 0 -4 -10 -1 -22z"/>
<path d="M6290 13337 c11 -15 11 -22 0 -42 -12 -22 -11 -27 6 -39 13 -10 23
-11 31 -4 20 17 15 34 -19 70 -17 18 -26 25 -18 15z"/>
<path d="M7347 13245 c-8 -18 -57 -20 -57 -2 -1 11 -20 -9 -41 -43 -6 -10 -11
-12 -16 -4 -11 16 -64 27 -61 13 2 -6 -14 -20 -34 -31 -21 -11 -38 -23 -38
-28 0 -13 -59 -20 -86 -10 -22 9 -27 6 -42 -20 -9 -16 -22 -30 -29 -30 -6 0
-13 -5 -15 -11 -2 -6 -16 1 -31 15 l-27 25 0 -26 0 -27 -31 30 c-17 16 -29 23
-27 16 2 -8 -4 -17 -12 -21 -8 -5 -26 -13 -38 -20 -23 -12 -36 -9 -38 10 -1 5
-2 13 -3 18 -2 15 -56 38 -83 35 -20 -2 -35 8 -64 42 -41 47 -54 54 -54 29 0
-12 -7 -14 -27 -9 -16 4 -30 11 -31 16 -14 34 -72 51 -88 26 -4 -7 -3 -8 5 -4
19 12 43 -14 37 -39 -4 -15 1 -28 14 -40 11 -10 20 -26 20 -35 0 -17 18 -40
32 -40 4 0 8 10 8 23 1 21 1 21 15 -4 8 -15 23 -29 35 -32 11 -3 20 -12 20
-21 0 -9 18 -25 40 -36 24 -12 40 -16 40 -9 0 7 7 8 18 4 9 -4 37 -7 60 -6 30
1 42 -2 37 -9 -4 -6 1 -20 10 -30 16 -17 15 -19 -3 -29 -16 -8 -21 -7 -26 6
-5 12 -9 14 -18 5 -9 -9 -16 -8 -27 2 -23 20 -61 30 -61 16 0 -6 -5 -8 -10 -5
-6 4 -8 9 -6 13 2 4 -11 7 -30 7 -19 0 -34 -3 -34 -7 0 -4 -18 -18 -40 -31
-37 -22 -39 -25 -25 -43 19 -26 19 -32 -5 -39 -11 -3 -20 -13 -20 -22 0 -9 -6
-13 -15 -9 -8 3 -22 9 -29 12 -13 5 -13 0 -4 -28 25 -76 32 -90 59 -121 25
-26 29 -38 24 -67 -3 -19 -14 -42 -23 -50 -10 -8 -24 -30 -31 -47 -10 -24 -20
-33 -37 -33 -43 0 -20 -58 26 -65 3 0 19 -9 37 -18 18 -9 41 -17 51 -17 20 0
32 -18 32 -47 0 -8 15 -33 32 -56 21 -26 28 -42 20 -45 -7 -2 -9 -9 -5 -15 4
-7 9 -21 10 -33 3 -17 -1 -19 -32 -16 -19 2 -42 1 -51 -2 -14 -5 -14 -9 -3
-23 15 -18 16 -18 -38 4 -18 7 -17 5 25 -57 17 -25 22 -43 18 -65 -6 -33 0
-47 26 -61 16 -9 16 -12 3 -38 -8 -16 -15 -34 -15 -40 0 -7 -7 -21 -15 -32
-13 -16 -14 -16 -9 -1 3 9 1 17 -5 17 -22 0 -51 -40 -51 -70 0 -18 -6 -33 -16
-37 -11 -4 -13 -13 -9 -35 4 -16 2 -34 -3 -41 -25 -30 37 -177 75 -177 11 0
11 -4 2 -21 -8 -17 -8 -23 2 -29 9 -6 7 -17 -9 -45 -26 -43 -26 -45 -7 -45 8
0 15 -4 15 -9 0 -5 8 -12 18 -16 11 -3 24 -17 30 -30 11 -23 9 -27 -13 -37
-28 -13 -36 -58 -10 -58 9 0 18 -7 21 -15 3 -8 15 -17 25 -20 11 -4 26 -21 33
-40 8 -18 23 -36 35 -40 25 -8 75 -95 62 -108 -17 -17 0 -110 23 -132 11 -11
23 -20 26 -20 27 -3 50 -20 50 -36 0 -11 11 -30 25 -43 14 -13 25 -28 25 -34
0 -6 12 -17 27 -24 24 -12 59 -60 82 -113 8 -18 63 -65 76 -65 3 0 5 6 4 13
-5 37 2 57 20 57 22 0 47 52 35 72 -4 7 5 3 20 -10 33 -25 64 -29 72 -7 4 8
12 15 19 15 7 0 15 5 17 12 7 21 28 -2 28 -31 0 -21 -6 -30 -21 -34 -17 -5
-20 -11 -17 -32 4 -21 0 -29 -18 -37 -27 -13 -29 -19 -12 -36 10 -10 10 -14 0
-21 -11 -6 -10 -11 3 -25 9 -9 13 -16 8 -16 -4 0 0 -5 10 -11 9 -6 15 -15 12
-20 -4 -5 -10 -7 -14 -4 -5 2 -15 -14 -24 -36 -10 -25 -20 -38 -27 -34 -6 4
-22 -3 -36 -16 -13 -12 -27 -19 -30 -16 -4 4 -13 -1 -21 -11 -12 -16 -14 -16
-29 3 -8 11 -20 19 -26 17 -6 -2 -18 0 -27 4 -9 4 -28 6 -43 5 -19 -2 -28 3
-33 18 -3 12 -11 19 -16 15 -11 -6 -89 26 -89 37 0 4 10 5 23 1 20 -5 21 -4 8
11 -10 13 -11 20 -2 30 8 10 7 17 -1 25 -8 8 -9 15 -1 23 12 12 5 61 -8 53 -9
-5 -23 4 -71 48 -16 15 -27 32 -23 38 3 5 0 10 -8 10 -8 0 -26 18 -41 40 -14
22 -24 40 -21 40 3 0 -1 14 -10 30 -16 30 -22 34 -62 30 -12 -1 -38 13 -60 34
-33 30 -44 34 -77 29 -27 -3 -43 0 -57 13 -10 9 -19 13 -19 9 0 -5 -5 -4 -12
3 -17 17 -28 15 -22 -5 4 -13 0 -12 -15 5 -11 13 -25 20 -31 17 -7 -4 -22 3
-35 15 -23 21 -23 21 -29 2 -6 -16 -14 -20 -41 -17 -28 2 -35 -1 -35 -14 0 -9
-6 -23 -12 -30 -11 -10 -10 -11 4 -6 13 5 20 0 28 -20 14 -36 13 -45 -5 -45
-12 0 -13 -4 -5 -19 27 -52 4 -64 -61 -30 l-41 20 7 -21 c4 -12 4 -37 0 -56
-4 -26 -11 -34 -27 -34 -17 0 -18 -2 -8 -15 10 -12 10 -15 -1 -15 -20 0 -39
-34 -29 -50 5 -8 6 -19 2 -24 -3 -6 -7 -36 -8 -66 -2 -38 0 -49 6 -35 5 11 9
14 9 6 1 -11 4 -11 19 0 16 13 16 13 0 -7 -21 -24 -23 -40 -6 -50 8 -5 9 0 6
14 -4 12 -2 20 2 17 5 -3 12 -1 15 5 10 16 35 -8 35 -31 0 -11 5 -19 11 -19 6
0 9 7 6 15 -9 23 9 26 28 5 18 -20 13 -42 -9 -34 -10 4 -13 -4 -13 -30 1 -20
7 -38 14 -40 20 -8 15 -44 -7 -56 -11 -6 -20 -17 -20 -24 0 -8 -7 -16 -15 -20
-8 -3 -15 -14 -15 -25 0 -13 -13 -25 -40 -38 -30 -14 -40 -24 -40 -42 0 -15
-15 -38 -41 -62 -30 -28 -39 -43 -34 -57 3 -11 2 -23 -4 -26 -11 -7 2 -71 19
-91 6 -8 9 -19 5 -25 -3 -5 1 -10 9 -10 18 0 21 -16 6 -25 -5 -3 -10 -1 -10 5
0 6 -5 8 -10 5 -11 -7 41 -55 59 -55 6 0 11 -9 11 -20 0 -11 4 -20 10 -20 5 0
24 -13 42 -29 18 -15 56 -40 84 -54 52 -26 67 -45 68 -82 1 -12 7 -19 17 -17
21 3 59 -34 59 -59 0 -11 5 -29 11 -40 7 -15 7 -24 -1 -34 -8 -9 -8 -15 0 -20
7 -4 3 -15 -10 -32 -26 -34 -26 -84 0 -101 11 -7 20 -21 20 -31 0 -11 5 -23
11 -27 8 -4 4 -11 -10 -18 -21 -12 -21 -12 9 -34 34 -25 39 -42 13 -42 -15 -1
-15 -3 4 -19 27 -23 46 -67 44 -102 -1 -20 8 -33 39 -54 21 -15 42 -35 45 -45
3 -10 14 -20 24 -23 14 -3 17 -11 14 -29 -4 -20 4 -32 40 -62 39 -32 48 -35
71 -26 41 15 45 13 52 -26 6 -32 3 -39 -21 -58 -24 -19 -25 -23 -11 -35 14
-12 14 -16 0 -42 -8 -16 -22 -29 -30 -29 -11 0 -14 -6 -10 -16 7 -19 -14 -42
-33 -36 -10 3 -11 0 -2 -17 10 -17 9 -22 -3 -27 -10 -4 -16 -18 -15 -38 1 -41
-15 -112 -30 -129 -12 -16 -5 -27 18 -27 22 0 43 -26 63 -77 16 -43 13 -54
-10 -31 -9 9 -12 9 -12 1 0 -7 4 -14 8 -17 16 -10 0 -68 -19 -73 -14 -4 -17
-11 -13 -29 5 -18 2 -24 -10 -24 -9 0 -16 -4 -16 -10 0 -5 4 -10 10 -10 5 0 7
-7 4 -15 -7 -17 7 -20 22 -5 7 7 19 8 37 1 31 -12 91 -8 109 7 9 7 18 7 31 -3
25 -18 111 -12 115 9 5 22 15 20 43 -6 16 -15 34 -22 52 -20 15 2 27 -1 27 -7
0 -6 -5 -11 -11 -11 -5 0 -7 -4 -4 -10 15 -25 26 -8 20 30 -6 34 -4 39 9 34 8
-3 27 4 42 15 15 12 34 21 43 21 13 0 16 8 13 40 -3 29 0 41 11 46 9 3 19 18
22 34 5 24 13 30 45 35 21 4 44 13 51 21 8 10 15 11 25 3 17 -14 65 16 57 37
-4 12 0 13 20 5 26 -10 67 -4 67 10 0 4 8 7 18 6 10 0 32 10 50 23 29 21 33
22 49 8 23 -20 70 -31 78 -18 3 5 15 10 26 10 11 0 19 7 19 16 0 12 11 7 43
-17 23 -18 52 -44 64 -58 11 -14 27 -26 34 -26 7 0 19 -11 26 -25 10 -21 18
-24 55 -21 24 1 49 8 57 14 10 9 16 7 26 -6 6 -9 16 -13 20 -9 5 4 5 1 1 -6
-5 -7 -14 -11 -22 -8 -8 3 -14 1 -14 -4 0 -6 -9 -10 -21 -10 -11 0 -17 -5 -14
-10 4 -7 12 -7 24 0 11 5 32 11 49 12 26 2 29 5 20 21 -8 16 -6 18 14 15 17
-2 23 2 23 16 0 11 5 21 12 23 7 3 10 10 7 17 -6 15 43 29 52 15 7 -11 74 -12
74 -1 0 4 -5 13 -12 20 -9 9 -8 13 4 17 10 4 14 14 11 26 -5 16 0 19 31 19 32
0 36 3 36 26 0 17 4 23 12 18 25 -16 78 -15 84 1 8 20 24 19 24 -1 0 -11 6
-14 20 -9 18 6 20 2 20 -35 0 -23 4 -39 9 -35 5 3 12 1 15 -4 4 -5 2 -12 -2
-15 -5 -3 -12 -40 -16 -82 -6 -61 -11 -80 -29 -94 -20 -17 -20 -19 -5 -58 14
-35 14 -43 2 -53 -8 -6 -14 -15 -14 -20 0 -13 -38 -49 -51 -49 -11 0 -48 40
-49 53 0 4 9 7 20 7 15 0 20 6 19 23 -4 46 1 67 17 67 14 0 16 10 12 71 -4 45
-11 74 -19 80 -10 6 -15 2 -17 -16 -3 -23 -13 -30 -35 -26 -13 2 -20 -30 -9
-41 7 -7 4 -16 -9 -29 -14 -14 -28 -18 -56 -13 -21 3 -55 7 -76 9 -37 3 -38 3
-23 -14 19 -20 11 -55 -10 -47 -7 3 -16 1 -19 -4 -4 -6 -15 -10 -25 -10 -14 0
-18 -5 -13 -16 4 -12 8 -13 13 -3 5 7 16 9 26 5 12 -5 14 -10 6 -18 -15 -15
-4 -37 18 -31 12 3 22 -3 30 -17 9 -17 14 -20 20 -10 7 11 18 11 63 0 31 -7
62 -10 71 -7 9 4 16 2 16 -3 0 -6 -4 -10 -9 -10 -11 0 -24 -39 -21 -64 1 -11
8 -26 16 -33 15 -16 19 -48 5 -38 -5 3 -11 -4 -13 -16 -4 -29 -61 -36 -96 -13
-24 16 -25 16 -17 -2 4 -11 9 -28 10 -39 2 -11 4 -22 5 -25 1 -3 2 -8 1 -12 0
-3 14 -9 32 -13 17 -4 40 -9 50 -11 11 -4 17 0 17 10 0 14 2 14 18 -1 10 -10
27 -23 38 -29 13 -8 18 -20 16 -44 -3 -39 9 -55 59 -81 28 -14 39 -15 43 -6 3
8 14 1 30 -18 14 -16 26 -25 26 -19 0 7 16 15 35 18 19 4 35 8 35 10 0 2 -7
22 -15 45 -12 36 -12 41 0 41 8 0 15 4 15 9 0 5 17 9 38 9 42 0 61 4 80 16 8
5 18 4 25 -3 6 -6 21 -11 32 -11 12 0 30 -9 40 -20 10 -11 24 -20 32 -20 8 0
13 -11 13 -30 0 -19 7 -33 19 -40 11 -5 22 -23 26 -40 5 -23 12 -30 30 -30 13
0 27 5 30 10 12 19 33 10 39 -16 4 -14 20 -33 37 -42 16 -9 32 -26 35 -37 7
-27 41 -48 79 -50 17 0 35 -4 40 -7 6 -3 22 -4 38 -1 20 4 27 11 27 27 0 20 5
22 49 22 31 0 59 7 77 19 16 11 37 18 47 17 10 -2 17 3 17 13 0 12 5 15 18 10
37 -15 47 -11 44 18 -2 23 1 28 15 25 10 -2 26 4 35 12 52 45 59 53 54 66 -4
11 1 13 22 8 15 -4 34 -10 42 -14 22 -11 40 -1 40 22 0 17 4 19 33 13 17 -4
40 -15 50 -23 13 -12 40 -17 91 -18 74 -2 118 -18 130 -50 3 -9 10 -12 16 -9
6 4 26 1 45 -5 24 -8 40 -8 54 0 17 9 27 4 66 -35 26 -26 58 -48 76 -52 18 -3
34 -14 36 -23 11 -43 83 -70 120 -47 7 4 24 0 38 -9 19 -12 36 -15 70 -10 24
4 47 11 50 17 4 5 13 9 22 9 9 0 13 -3 10 -6 -12 -12 15 -46 44 -56 16 -5 29
-14 29 -19 0 -17 49 -42 63 -31 8 7 28 7 57 2 25 -5 73 -9 108 -10 54 0 62 2
62 19 0 17 7 18 70 16 50 -3 80 -10 104 -25 44 -27 79 -80 64 -97 -7 -9 -6
-17 5 -27 8 -8 17 -13 20 -10 3 3 18 -13 33 -35 14 -23 34 -41 43 -41 14 0 14
2 1 10 -12 8 -11 10 7 10 16 0 21 4 17 15 -4 9 -1 15 7 15 8 0 27 7 42 15 24
12 29 12 34 0 3 -8 11 -15 17 -15 7 0 23 -11 36 -25 18 -19 34 -25 65 -25 31
0 47 -6 64 -24 12 -13 38 -32 57 -42 18 -10 34 -22 34 -26 0 -5 11 -8 24 -8
14 0 28 -5 31 -10 4 -6 10 -8 14 -6 4 3 12 -4 19 -15 7 -11 8 -19 2 -19 -5 0
-10 -13 -10 -30 0 -23 5 -30 19 -30 11 0 21 5 23 12 3 7 15 4 35 -11 17 -13
36 -20 42 -17 6 4 16 -4 23 -18 14 -31 21 -32 59 -5 29 20 39 19 72 -9 10 -9
34 -16 55 -16 36 -1 37 -2 35 -35 -2 -51 48 -84 62 -41 3 11 17 23 30 26 15 4
25 15 28 32 23 113 35 191 33 210 -1 13 -15 39 -30 58 -19 24 -25 41 -21 55 7
20 8 20 35 -6 15 -15 30 -22 34 -17 3 5 25 6 51 2 33 -5 51 -3 66 8 18 12 25
13 42 3 14 -9 22 -10 30 -2 9 9 16 6 28 -11 14 -18 20 -20 33 -9 8 7 20 29 27
49 7 20 19 42 27 48 14 10 12 17 -11 57 -35 59 -34 73 2 46 16 -12 34 -18 40
-15 14 9 14 46 1 46 -6 0 -21 9 -33 20 -16 16 -19 23 -9 29 9 6 8 12 -8 26
-11 10 -20 22 -20 26 0 17 46 50 62 45 10 -2 18 1 18 6 0 7 20 9 55 5 30 -3
55 -2 55 3 0 5 6 7 14 4 9 -4 24 8 39 33 l25 38 -19 33 c-10 18 -19 41 -19 51
0 10 -7 24 -15 31 -9 7 -13 19 -11 27 3 8 -3 41 -14 73 -11 33 -20 73 -20 90
0 16 -4 30 -9 30 -11 0 -13 106 -2 150 7 29 9 31 10 10 1 -22 3 -23 12 -7 8
14 14 16 25 6 11 -9 14 -8 14 6 0 13 8 16 36 13 25 -2 39 2 44 12 4 8 12 25
18 37 7 13 12 29 12 36 0 8 11 30 24 50 14 21 26 54 28 79 3 42 4 43 40 46 20
2 60 -1 88 -6 46 -8 57 -7 96 14 29 15 44 19 44 11 0 -9 2 -9 8 0 6 9 17 5 40
-17 l32 -29 6 25 c8 32 30 30 62 -6 30 -34 45 -36 85 -15 25 13 31 13 51 0 21
-14 24 -13 50 16 17 19 33 28 43 25 11 -5 13 -2 8 11 -16 38 -17 53 -5 53 19
0 6 86 -16 112 -11 11 -36 31 -56 44 -30 19 -38 31 -38 53 0 16 -7 34 -16 42
-8 7 -24 29 -34 49 -10 20 -36 54 -58 77 -22 22 -43 50 -47 62 -5 17 -10 19
-31 10 -21 -7 -29 -5 -45 13 -10 13 -17 32 -14 43 4 21 -15 47 -69 92 -26 23
-38 72 -13 57 8 -5 7 -2 -2 9 -10 13 -11 23 -4 40 6 13 8 37 5 53 -8 42 -60
104 -89 104 -13 0 -23 4 -23 9 0 5 -7 17 -16 26 -28 28 -8 27 25 -1 29 -24 46
-28 94 -23 24 3 22 40 -3 46 -21 6 -26 18 -10 28 10 6 7 81 -4 92 -3 3 -1 12
6 20 15 18 6 25 -42 29 -36 3 -40 1 -40 -19 -1 -21 -1 -21 -11 -3 -9 14 -8 20
1 26 7 4 9 13 5 19 -4 7 -1 18 5 26 17 21 5 48 -19 40 -20 -6 -39 24 -22 35
16 9 -9 80 -28 81 -9 0 -1 5 17 10 17 5 32 16 32 24 0 8 13 22 30 31 16 10 37
33 45 51 9 19 21 31 27 27 5 -4 4 4 -3 17 -11 21 -10 22 2 12 13 -10 14 -7 11
24 -4 32 -2 34 16 29 15 -5 22 -2 27 14 8 26 30 26 49 -2 14 -19 16 -20 16 -5
0 10 5 15 10 12 11 -7 70 50 70 66 0 5 7 12 15 15 8 4 15 16 15 27 0 16 3 18
12 9 17 -17 58 -15 58 3 0 19 2 19 55 -6 25 -12 45 -27 45 -34 0 -17 37 -48
73 -60 18 -6 31 -17 29 -25 -3 -12 14 -29 30 -30 3 0 8 7 10 16 2 12 14 17 41
18 20 1 37 -3 37 -7 0 -4 14 -13 30 -18 17 -6 30 -18 30 -26 0 -10 6 -12 19
-8 13 4 24 -1 34 -16 11 -15 30 -23 61 -26 25 -3 46 -9 46 -14 0 -4 14 -10 30
-14 17 -4 30 -10 30 -15 0 -14 38 -18 80 -7 36 10 43 9 51 -6 6 -10 15 -15 20
-11 6 4 1 15 -12 27 l-23 21 28 11 c27 11 27 11 6 30 -11 10 -20 31 -20 47 0
16 -4 38 -10 48 -12 22 12 35 38 21 15 -8 17 -3 18 35 1 35 -2 44 -15 42 -12
-2 -17 6 -19 31 -2 21 0 31 7 27 13 -8 41 45 41 76 0 32 -24 74 -40 70 -8 -2
-25 -1 -38 3 -18 4 -21 9 -13 19 8 9 0 20 -31 44 -23 18 -36 32 -30 32 6 0 9
7 6 15 -4 8 0 22 7 31 7 9 14 23 16 32 24 147 24 146 5 163 -21 17 -34 97 -17
102 6 2 5 14 -3 31 -8 17 -9 33 -4 40 14 17 24 68 15 75 -4 3 -17 24 -28 46
-15 31 -33 46 -75 66 -37 18 -57 23 -62 16 -5 -8 -15 -4 -31 11 -13 12 -29 22
-36 22 -7 0 -9 4 -6 10 10 16 -8 35 -32 36 -16 0 -23 -5 -23 -18 0 -11 -7 -18
-18 -18 -10 0 -23 -5 -28 -10 -8 -8 -15 -6 -24 5 -18 21 -27 19 -34 -10 -4
-14 -14 -25 -24 -25 -9 0 -25 -7 -36 -15 -16 -12 -21 -12 -40 0 -19 13 -25 13
-45 -1 -18 -13 -22 -24 -19 -50 4 -33 3 -34 -50 -45 -40 -8 -51 -14 -43 -22
17 -17 13 -31 -5 -16 -13 10 -17 10 -25 -2 -8 -12 -12 -11 -24 5 -8 11 -15 25
-15 32 0 6 -7 17 -15 24 -8 7 -13 16 -10 20 2 4 -4 15 -15 25 -11 10 -20 15
-20 11 0 -4 -9 -2 -19 4 -25 13 -81 2 -81 -16 0 -8 -2 -14 -5 -14 -13 0 -62
30 -74 44 -7 8 -26 18 -42 21 -17 4 -36 18 -46 35 -13 23 -20 27 -34 20 -12
-7 -24 -4 -44 11 -22 18 -34 20 -77 15 -44 -6 -54 -4 -74 15 -13 12 -24 27
-24 33 0 6 -18 34 -41 61 -28 33 -39 56 -36 71 3 15 0 21 -9 17 -8 -3 -21 8
-31 25 -10 17 -28 36 -41 41 -12 6 -26 19 -29 28 -16 42 -58 54 -98 27 -18
-12 -28 -13 -44 -4 -29 15 -26 28 4 25 14 -2 25 1 25 6 0 5 -6 9 -14 9 -13 0
-26 20 -26 41 0 5 7 9 15 9 10 0 13 9 10 29 -3 25 0 29 18 26 13 -3 26 3 35
16 8 12 20 18 29 14 10 -3 29 9 52 33 34 35 35 39 23 65 -15 31 -32 36 -32 10
-1 -21 -46 -57 -54 -44 -7 10 -84 -5 -102 -20 -8 -7 -15 -6 -20 2 -5 9 -10 6
-15 -9 -10 -26 -37 -29 -55 -4 -17 22 -19 76 -2 66 7 -4 8 -3 4 4 -11 18 -30
14 -46 -8 -20 -28 -33 -25 -71 15 -19 19 -39 35 -46 35 -7 0 -13 7 -13 15 0 9
-9 15 -25 15 -15 0 -25 6 -25 15 0 8 -6 12 -14 9 -8 -3 -15 3 -18 14 -3 12
-18 23 -34 26 -30 7 -83 68 -64 74 19 7 10 40 -17 57 -21 14 -23 19 -11 26 10
5 14 18 11 32 -4 21 0 25 29 32 18 4 57 8 86 8 38 -1 52 3 52 13 0 19 34 18
50 -1 7 -8 17 -12 22 -9 6 4 5 10 -3 14 -7 5 -13 18 -14 29 -1 15 2 18 10 11
7 -6 15 -6 22 1 6 6 17 8 24 4 9 -6 7 -11 -6 -22 -11 -7 -15 -13 -9 -13 5 1
19 9 30 18 18 15 21 28 19 73 -3 82 -4 91 -14 85 -5 -3 -12 2 -15 11 -8 20 14
36 31 21 7 -6 13 -7 13 -3 0 3 12 -8 27 -25 21 -26 24 -33 12 -40 -7 -5 -11
-12 -7 -15 3 -3 13 2 23 11 14 15 18 15 26 3 5 -8 7 -26 5 -40 -5 -24 -1 -27
27 -32 19 -3 38 1 48 9 9 8 18 12 21 9 3 -3 5 13 5 35 0 27 -4 40 -13 40 -21
0 -39 41 -23 51 16 10 18 10 -49 14 -29 2 -59 9 -67 15 -10 8 -14 8 -17 -2 -4
-10 -10 -10 -31 -1 -28 13 -39 50 -13 40 17 -7 44 21 30 31 -5 4 -10 28 -11
55 -1 42 1 48 23 53 14 4 28 4 31 0 11 -11 39 48 37 79 -1 17 -15 59 -32 95
-17 36 -33 80 -37 99 -6 29 -5 33 9 28 18 -7 23 18 5 28 -6 4 -9 22 -8 40 4
41 -16 67 -50 63 -15 -1 -41 4 -60 11 -27 12 -34 12 -41 1 -4 -7 -13 -9 -19
-6 -6 4 -9 11 -6 16 3 4 -3 11 -12 15 -10 3 -19 1 -21 -4 -2 -6 -15 -11 -28
-11 -13 0 -24 -5 -24 -12 0 -9 -3 -9 -12 0 -18 18 -38 15 -38 -6 0 -10 -11
-29 -24 -41 -22 -20 -29 -22 -56 -13 -29 11 -33 9 -62 -23 -16 -19 -38 -35
-49 -35 -10 0 -30 -16 -45 -35 -14 -19 -32 -35 -40 -35 -7 0 -19 -10 -25 -22
-16 -30 -28 -38 -60 -38 -16 0 -32 -9 -41 -21 -10 -16 -28 -23 -78 -28 -68 -7
-110 -31 -110 -63 0 -9 -5 -20 -11 -23 -5 -4 -14 -18 -20 -32 -6 -15 -15 -23
-26 -21 -19 3 -63 -32 -63 -50 0 -7 -11 -19 -25 -28 -14 -9 -25 -23 -25 -30 0
-8 -7 -14 -15 -14 -11 0 -14 -7 -10 -22 9 -35 -45 -92 -121 -129 -55 -27 -68
-30 -90 -20 -35 15 -65 14 -92 -5 -14 -10 -32 -14 -48 -10 -17 5 -24 2 -24 -8
0 -21 -89 -15 -125 9 -17 11 -43 21 -60 23 -16 2 -37 10 -46 18 -11 10 -18 11
-21 4 -2 -7 -24 -6 -73 6 -48 11 -94 14 -147 11 -43 -3 -80 -2 -83 3 -2 4 -15
5 -28 3 -19 -4 -27 3 -46 41 -12 25 -27 46 -32 46 -5 0 -9 7 -9 15 0 8 -5 15
-11 15 -7 0 -9 -10 -7 -24 3 -15 0 -27 -8 -30 -8 -3 -13 -16 -11 -28 2 -19 -2
-22 -23 -19 -14 2 -49 3 -77 3 -29 0 -53 4 -53 9 0 5 -10 14 -23 20 -31 14
-53 49 -37 59 16 10 -27 51 -45 44 -17 -7 -29 12 -14 22 8 4 7 9 -2 15 -11 7
-10 9 4 9 12 0 17 8 17 26 0 14 -4 23 -9 20 -4 -3 -6 6 -3 19 2 15 0 25 -7 25
-6 0 -11 5 -11 10 0 6 12 10 26 10 14 0 22 4 19 10 -3 5 5 12 19 16 17 4 27
15 31 36 4 18 15 32 26 35 23 6 24 21 4 59 -8 16 -15 41 -15 56 0 59 -26 82
-118 105 -15 3 -21 11 -18 20 3 7 -1 16 -8 19 -8 3 -17 15 -20 27 -3 15 -13
22 -31 23 -14 1 -25 -2 -25 -7 0 -5 -11 -9 -25 -9 -16 0 -23 -4 -19 -13 3 -8
-1 -14 -8 -15 -7 0 -22 -2 -33 -4 -15 -2 -21 3 -23 23 -3 22 -7 25 -28 21 -20
-3 -22 -7 -13 -18 10 -12 6 -13 -24 -9 -20 4 -38 1 -42 -5 -10 -16 -26 0 -20
20 5 15 -4 21 -49 34 -30 9 -61 16 -70 16 -9 0 -15 6 -14 13 2 7 -6 11 -19 9
-20 -3 -23 1 -23 27 0 17 4 31 10 31 5 0 -4 20 -21 45 -30 44 -32 45 -82 44
-29 -1 -58 -6 -65 -12 -6 -5 -26 -7 -42 -3 -17 3 -30 1 -30 -4 0 -11 -116 -2
-141 11 -9 5 -20 4 -26 -2 -8 -8 -17 -8 -31 0 -13 7 -23 7 -27 1 -3 -5 -12 -7
-21 -3 -12 4 -14 0 -8 -21 5 -19 2 -26 -9 -26 -8 0 -18 -6 -20 -12 -4 -10 -8
-10 -15 1 -7 9 -12 10 -16 2 -9 -15 -22 -14 -38 2 -26 27 -54 37 -66 25 -9 -9
-16 -7 -29 4 -16 14 -20 15 -37 2 -11 -8 -16 -14 -11 -14 4 0 0 -8 -9 -19 -19
-21 -87 -22 -124 -2 -11 6 -34 8 -51 5 -30 -6 -91 11 -91 26 0 4 -16 10 -34
13 -19 3 -51 16 -70 30 -30 20 -43 23 -81 17 -30 -5 -45 -3 -45 4 0 8 -3 8 -8
0 -4 -6 -26 -15 -48 -18 -39 -7 -44 -5 -79 31 -20 21 -46 55 -56 75 -11 21
-29 42 -40 49 -18 9 -26 6 -59 -26 -37 -36 -39 -37 -61 -21 -13 9 -33 16 -45
16 -12 0 -42 11 -65 25 -56 32 -65 31 -77 -5 -10 -27 -13 -29 -38 -20 -22 9
-29 7 -41 -10 -17 -25 -55 -28 -46 -4 5 13 2 15 -15 9 -13 -3 -22 -2 -22 4 0
5 8 12 18 14 14 4 15 5 1 6 -19 1 -32 38 -15 44 8 3 7 8 -2 20 -7 8 -12 23
-10 33 4 22 -18 30 -25 9z m-737 -844 c0 -24 -21 -32 -43 -16 -22 16 -21 22 1
28 34 9 42 7 42 -12z m5530 -415 c0 -3 -4 -8 -10 -11 -5 -3 -10 -1 -10 4 0 6
5 11 10 11 6 0 10 -2 10 -4z m1536 -1221 c-9 -9 -21 -13 -27 -10 -7 5 -4 13 8
25 10 10 22 14 27 10 5 -5 2 -16 -8 -25z m-7346 -109 c0 -8 -7 -16 -15 -20
-15 -5 -21 14 -8 27 11 12 23 8 23 -7z m150 -67 c0 -6 -4 -7 -10 -4 -5 3 -10
11 -10 16 0 6 5 7 10 4 6 -3 10 -11 10 -16z m158 -37 c-9 -10 -14 -8 -25 8 -8
12 -12 28 -9 36 5 13 9 12 25 -7 14 -18 16 -28 9 -37z m-191 3 c9 -25 -4 -29
-17 -6 -7 15 -7 21 0 21 6 0 13 -7 17 -15z m63 -38 c0 -20 -1 -20 -16 -5 -9 9
-13 21 -9 27 10 16 25 3 25 -22z m6111 -497 c17 0 79 -71 79 -90 0 -6 9 -21
21 -33 l20 -22 -22 -3 c-12 -2 -32 2 -45 9 -19 10 -27 9 -48 -4 -20 -14 -26
-14 -36 -3 -8 10 -8 16 0 21 8 5 6 14 -4 31 -9 13 -16 30 -16 37 0 8 -9 22
-20 32 -18 16 -18 19 -3 42 l16 24 22 -21 c12 -11 28 -20 36 -20z m-107 -34
c-7 -18 -22 -20 -44 -6 -15 10 -16 9 30 23 20 6 22 3 14 -17z m36 -156 c27
-29 58 -120 46 -138 -3 -5 6 -22 19 -36 14 -15 25 -30 25 -33 0 -11 -64 7 -82
23 -14 14 -20 14 -33 4 -12 -10 -15 -10 -15 3 0 8 -6 20 -14 26 -26 22 -12
181 15 181 6 0 24 -13 39 -30z m182 -213 c7 -8 23 -19 36 -26 12 -6 22 -21 22
-31 0 -11 5 -20 11 -20 14 0 2 -18 -20 -29 -28 -16 -87 30 -94 71 -6 43 18 62
45 35z m277 -339 c-3 -26 1 -39 11 -33 21 13 9 -14 -19 -44 -37 -39 -55 -41
-48 -3 3 15 2 34 -3 42 -7 11 -1 19 23 32 39 21 38 21 36 6z m-539 -1970 c0
-4 6 -5 13 -3 6 3 18 -4 25 -15 11 -18 10 -20 -17 -20 -16 0 -31 -6 -34 -12
-3 -10 -7 -10 -20 0 -9 8 -21 11 -27 7 -6 -4 -10 5 -10 22 0 26 3 29 35 29 19
0 35 -3 35 -8z"/>
<path d="M9646 12874 c-9 -24 -7 -42 3 -26 10 17 59 11 72 -9 8 -12 10 -12 18
0 13 20 -23 51 -58 51 -17 0 -31 -6 -35 -16z"/>
<path d="M6390 12371 c0 -8 -7 -11 -20 -8 -11 3 -20 2 -20 -1 0 -12 -61 -42
-86 -42 -14 0 -27 -7 -30 -15 -4 -8 -17 -15 -30 -15 -14 0 -24 -6 -24 -14 0
-18 20 -31 42 -28 17 3 34 -30 24 -47 -3 -5 6 -12 20 -15 19 -5 33 -1 48 12
29 26 63 34 70 15 3 -8 11 -11 17 -8 6 4 22 -4 36 -16 19 -18 25 -20 20 -7 -4
12 -2 15 8 12 14 -6 75 25 75 38 0 4 -7 11 -15 16 -14 7 -13 11 5 27 34 31 25
50 -22 46 -9 -1 -19 3 -23 9 -3 6 -10 8 -15 5 -8 -5 7 -57 24 -83 4 -7 5 -16
2 -19 -3 -4 -6 0 -6 7 0 9 -5 8 -13 -5 -10 -12 -16 -15 -21 -6 -4 6 -18 8 -33
5 -24 -6 -25 -6 -12 17 7 13 12 36 11 52 -1 15 2 27 8 27 5 0 10 5 10 10 0 6
-5 10 -11 10 -7 0 -18 8 -25 18 -10 12 -13 13 -14 3z m-5 -41 c17 -19 17 -20
0 -20 -10 0 -15 3 -12 7 4 3 -1 12 -11 19 -9 7 -12 14 -6 14 6 0 19 -9 29 -20z"/>
<path d="M6520 12200 c0 -5 5 -10 11 -10 5 0 7 5 4 10 -3 6 -8 10 -11 10 -2 0
-4 -4 -4 -10z"/>
<path d="M6276 12142 c-3 -5 -10 -20 -15 -34 -9 -23 -7 -25 20 -24 26 1 44 16
18 16 -6 0 -8 8 -4 19 6 20 -9 38 -19 23z"/>
<path d="M6228 12062 c-10 -2 -18 -5 -18 -6 0 -2 14 -34 30 -70 22 -48 28 -71
21 -80 -8 -9 -6 -18 4 -32 14 -18 14 -18 9 2 -3 12 -1 25 5 28 6 4 11 19 11
33 0 18 4 24 14 20 20 -8 27 17 11 41 -8 10 -11 22 -8 26 3 3 -1 6 -11 6 -9 0
-19 6 -22 14 -7 17 -23 24 -46 18z"/>
<path d="M12450 11937 c0 -2 12 -15 28 -30 l27 -26 1 28 c1 23 -3 27 -28 29
-15 1 -28 1 -28 -1z"/>
<path d="M12425 11890 c3 -5 10 -10 16 -10 5 0 9 5 9 10 0 6 -7 10 -16 10 -8
0 -12 -4 -9 -10z"/>
<path d="M12448 11871 c-10 -9 -19 -33 -20 -52 -2 -18 -8 -38 -15 -44 -15 -13
-2 -78 21 -104 9 -10 16 -23 16 -29 0 -6 6 -15 13 -19 6 -4 17 -17 24 -28 6
-11 16 -19 23 -17 6 1 14 -7 17 -18 6 -21 23 -28 23 -9 0 8 22 10 71 6 39 -3
77 -3 84 0 19 7 8 28 -23 49 -23 15 -25 15 -14 1 28 -34 1 -33 -38 1 -37 34
-39 37 -20 47 14 7 17 14 10 25 -5 8 -10 32 -10 53 0 28 -4 37 -17 37 -25 1
-56 26 -48 39 3 7 0 8 -9 5 -9 -3 -16 -11 -16 -16 0 -5 -9 -23 -21 -39 -29
-41 -79 -37 -63 5 4 11 14 14 36 9 27 -5 30 -4 27 18 -1 13 2 32 6 42 5 13 1
24 -13 38 -25 22 -22 22 -44 0z"/>
<path d="M13495 10840 c3 -5 8 -10 11 -10 2 0 4 5 4 10 0 6 -5 10 -11 10 -5 0
-7 -4 -4 -10z"/>
<path d="M14130 9770 c0 -5 5 -10 10 -10 6 0 10 5 10 10 0 6 -4 10 -10 10 -5
0 -10 -4 -10 -10z"/>
<path d="M13708 8325 c-10 -14 -15 -31 -11 -46 3 -13 2 -21 -2 -17 -4 4 -17 1
-27 -7 -11 -7 -27 -11 -34 -8 -8 3 -14 0 -14 -6 0 -6 -7 -11 -15 -11 -17 0
-39 -36 -30 -50 3 -6 12 -10 20 -10 7 0 28 -18 46 -40 18 -22 39 -40 46 -40
13 0 18 42 14 101 -1 15 8 39 22 55 21 26 22 33 13 65 l-11 37 -17 -23z"/>
<path d="M8311 8154 c0 -11 3 -14 6 -6 3 7 2 16 -1 19 -3 4 -6 -2 -5 -13z"/>
<path d="M13185 8110 c3 -5 12 -7 20 -3 21 7 19 13 -6 13 -11 0 -18 -4 -14
-10z"/>
<path d="M13711 8076 c-1 -14 -4 -16 -14 -8 -16 14 -49 -10 -42 -30 5 -13 -4
-16 -53 -20 -7 -1 -11 -7 -8 -15 3 -7 1 -13 -4 -13 -6 0 -24 -13 -42 -30 -17
-16 -35 -30 -39 -30 -5 0 -9 -6 -9 -14 0 -8 -7 -17 -16 -20 -11 -4 -14 -13
-11 -28 7 -26 -8 -48 -34 -48 -11 0 -19 -6 -20 -12 -4 -74 -3 -79 19 -94 12
-8 22 -20 22 -27 0 -14 77 -67 97 -67 8 0 16 7 19 15 7 18 24 20 24 4 0 -12
-38 -49 -50 -49 -4 0 -23 11 -42 24 -35 24 -36 24 -52 4 -17 -19 -18 -19 -39
-1 l-22 18 18 -22 c12 -13 16 -27 11 -35 -5 -7 -7 -26 -5 -41 2 -19 -5 -37
-19 -52 -13 -13 -20 -30 -17 -38 3 -8 1 -19 -5 -25 -16 -16 12 -70 41 -77 19
-5 29 -1 42 16 11 15 31 24 60 28 36 5 45 10 47 29 3 17 -2 22 -17 22 -16 0
-21 6 -21 26 0 20 4 25 16 20 19 -7 43 19 44 47 0 9 5 17 11 17 5 0 7 -4 4
-10 -3 -5 3 -10 14 -10 11 0 21 8 23 17 3 16 4 16 20 0 34 -34 48 -22 50 46 1
34 2 87 4 117 1 30 -2 63 -7 72 -12 22 0 99 15 97 39 -5 65 33 41 61 -6 8 -15
23 -18 33 -5 13 -13 16 -27 12 -24 -8 -27 11 -5 42 11 15 12 28 6 45 -8 19
-10 20 -10 4z"/>
<path d="M8455 7415 c-3 -8 -7 -22 -10 -30 -7 -24 43 -56 86 -53 33 3 36 5 23
19 -8 8 -14 20 -14 26 0 15 -45 53 -63 53 -10 0 -20 -7 -22 -15z"/>
<path d="M8238 7353 c-3 -12 -1 -26 6 -33 8 -8 8 -13 -1 -18 -7 -5 -3 -13 13
-25 l24 -18 -14 38 c-8 21 -16 47 -18 58 -4 19 -4 19 -10 -2z"/>
<path d="M8430 7340 c0 -5 5 -10 11 -10 5 0 7 5 4 10 -3 6 -8 10 -11 10 -2 0
-4 -4 -4 -10z"/>
<path d="M8338 7301 c-20 -24 -7 -51 18 -35 10 5 24 20 32 32 14 21 13 22 -10
22 -13 0 -31 -8 -40 -19z"/>
<path d="M8271 7234 c-41 -32 -42 -33 -23 -52 14 -14 17 -25 10 -41 -4 -13 -5
-28 -1 -34 4 -7 0 -8 -11 -4 -14 5 -17 2 -14 -16 2 -16 -2 -22 -16 -20 -12 1
-15 -2 -8 -9 6 -6 8 -17 5 -24 -3 -8 -1 -14 4 -14 5 0 8 -13 5 -30 -3 -23 0
-30 12 -30 9 0 32 -16 52 -35 32 -33 63 -48 49 -25 -4 6 -2 16 4 23 7 9 3 37
-13 95 -19 65 -21 82 -10 82 8 0 14 10 14 23 0 13 3 27 7 31 15 15 10 79 -7
96 -17 17 -20 16 -59 -16z"/>
<path d="M12610 7161 c0 -5 5 -13 10 -16 6 -3 10 -2 10 4 0 5 -4 13 -10 16 -5
3 -10 2 -10 -4z"/>
<path d="M8170 7024 c0 -17 18 -36 30 -32 7 2 4 10 -9 22 -12 11 -21 15 -21
10z"/>
<path d="M11320 6970 c-14 -10 -21 -22 -17 -27 5 -4 12 -1 17 7 6 8 10 11 10
5 0 -5 5 -2 11 8 15 26 8 29 -21 7z"/>
<path d="M8215 6940 c3 -5 8 -10 11 -10 2 0 4 5 4 10 0 6 -5 10 -11 10 -5 0
-7 -4 -4 -10z"/>
<path d="M8368 6909 c-25 -14 -22 -34 7 -53 24 -16 35 -56 16 -56 -5 0 -8 -17
-6 -37 3 -45 -15 -84 -51 -110 -25 -18 -25 -20 -11 -54 11 -28 19 -34 43 -34
16 1 39 6 52 13 13 8 36 10 57 6 28 -5 35 -3 35 9 0 10 -7 13 -19 10 -24 -6
-36 23 -14 36 15 8 14 11 -5 38 -18 25 -19 31 -6 53 19 35 17 57 -7 91 -17 24
-18 33 -9 44 7 8 9 23 6 32 -6 13 -9 14 -15 4 -6 -10 -11 -9 -24 3 -18 18 -25
19 -49 5z"/>
<path d="M12140 6535 c0 -15 -49 -65 -63 -65 -5 0 -15 -7 -24 -15 -8 -8 -19
-13 -24 -10 -5 4 -9 0 -9 -9 0 -8 -4 -16 -9 -18 -5 -1 4 -15 19 -30 15 -15 27
-22 27 -15 -1 33 5 46 23 52 12 4 20 15 20 30 0 18 4 22 19 18 26 -7 66 44 50
63 -15 18 -29 18 -29 -1z"/>
<path d="M12220 6540 c-9 -6 -10 -10 -3 -10 6 0 15 5 18 10 8 12 4 12 -15 0z"/>
<path d="M8503 6503 c-12 -40 -8 -58 7 -33 7 12 13 12 27 4 13 -8 23 -8 38 0
11 6 22 12 24 13 1 1 -4 12 -13 25 -9 12 -16 16 -16 9 0 -10 -5 -10 -25 3 -13
9 -26 16 -27 16 -2 0 -8 -17 -15 -37z"/>
<path d="M12070 6329 c0 -11 -8 -23 -17 -26 -18 -4 -57 -103 -41 -103 4 0 8 4
8 10 0 5 16 17 35 26 23 11 35 23 35 37 0 20 1 20 25 -3 36 -34 41 -19 5 18
-16 18 -30 39 -30 47 0 8 -4 15 -10 15 -5 0 -10 -9 -10 -21z"/>
</g>
</svg>
