<?xml version="1.0" standalone="no"?>
<!DOCTYPE svg PUBLIC "-//W3C//DTD SVG 20010904//EN"
 "http://www.w3.org/TR/2001/REC-SVG-20010904/DTD/svg10.dtd">
<svg version="1.0" xmlns="http://www.w3.org/2000/svg"
 width="672.431296pt" height="521.862951pt" viewBox="0 0 672.431296 521.862951"
 preserveAspectRatio="xMidYMid meet">
<metadata>
Created by potrace 1.15, written by Peter Selinger 2001-2017
</metadata>
<g transform="translate(-660.026663,1210.203073) scale(0.100000,-0.100000)"
fill="#222222" stroke="none">
<path d="M10037 12090 c-11 -11 -26 -16 -39 -12 -18 4 -20 2 -15 -19 4 -15 0
-30 -10 -41 -12 -14 -13 -21 -4 -32 6 -7 13 -27 14 -44 1 -16 5 -28 8 -26 3 2
15 -10 27 -26 14 -18 18 -31 11 -35 -10 -7 -38 10 -52 33 -4 6 -19 12 -32 12
-15 0 -37 13 -56 35 -18 19 -40 35 -49 35 -19 0 -50 30 -50 49 0 9 -8 11 -21
8 -12 -3 -33 1 -46 10 -15 10 -27 13 -31 7 -6 -9 -33 -13 -79 -13 -10 0 -31 0
-46 0 -20 0 -27 4 -24 13 3 8 3 17 0 20 -8 8 -60 -21 -73 -41 -10 -17 -12 -16
-26 5 -9 12 -22 22 -30 22 -8 0 -11 7 -8 18 4 9 -3 2 -15 -15 -20 -32 -44 -42
-55 -24 -6 10 -46 3 -46 -8 0 -13 69 -43 85 -37 11 4 18 0 22 -12 2 -10 14
-22 26 -27 24 -11 55 -61 56 -90 1 -11 10 -35 21 -52 l20 -33 -22 0 c-21 0
-21 -1 -3 -13 10 -8 15 -19 12 -24 -8 -13 -55 -14 -63 -1 -14 22 -24 -21 -24
-99 0 -68 -3 -83 -15 -83 -13 0 -14 -4 -5 -20 6 -11 20 -20 31 -20 16 0 19 -5
14 -20 -3 -10 0 -30 7 -42 7 -13 13 -27 13 -33 1 -5 6 -20 13 -32 7 -12 11
-26 10 -30 -2 -4 7 -18 20 -30 18 -19 22 -20 22 -6 0 14 3 13 20 -5 22 -24 66
-31 55 -9 -4 6 0 5 7 -4 7 -9 26 -16 41 -16 58 0 44 -20 -51 -70 -46 -24 -61
-21 -62 15 0 7 -20 22 -45 33 -25 11 -45 24 -45 28 0 5 -14 26 -31 47 -17 22
-34 45 -38 52 -4 8 -25 14 -47 15 -23 1 -53 11 -74 25 -19 13 -35 20 -36 15
-1 -4 -5 -20 -8 -35 -4 -16 -11 -28 -17 -28 -6 0 -9 6 -6 14 3 8 0 20 -8 26
-20 17 -30 -7 -11 -26 20 -19 20 -31 2 -41 -7 -4 -18 -18 -25 -30 -6 -13 -18
-23 -26 -23 -8 0 -15 -4 -15 -10 0 -5 7 -10 15 -10 8 0 15 -6 15 -14 0 -19
-27 -39 -40 -31 -6 4 -4 -10 5 -31 15 -37 12 -98 -6 -110 -5 -3 -7 -10 -3 -15
9 -16 -16 -39 -42 -39 -17 0 -24 -6 -24 -20 0 -12 -9 -22 -24 -26 -38 -9 -58
-39 -63 -91 -6 -71 -5 -86 10 -110 10 -16 -19 -73 -37 -73 -10 0 -12 -9 -7
-32 6 -27 12 -33 31 -33 18 0 24 5 22 18 -2 9 2 17 8 17 5 0 10 9 10 20 0 11
4 20 9 20 5 0 11 8 14 18 3 15 43 -56 61 -110 3 -10 12 -18 21 -18 21 0 19
-46 -3 -68 -10 -10 -33 -22 -52 -28 l-34 -10 43 -29 c25 -17 57 -42 73 -57 16
-16 33 -28 38 -28 4 0 11 -7 14 -16 3 -8 9 -13 14 -10 4 2 28 0 52 -5 35 -8
52 -20 79 -54 35 -43 56 -54 119 -61 23 -2 32 1 32 12 0 8 16 22 35 31 19 9
37 25 41 36 3 11 12 16 20 13 49 -20 47 -20 40 7 -6 25 -5 26 20 17 33 -13 34
-13 28 5 -8 20 44 20 91 1 28 -12 35 -21 40 -53 3 -21 13 -51 22 -66 19 -35
10 -46 -17 -22 -17 16 -20 16 -20 2 0 -24 -51 -79 -67 -73 -8 3 -11 2 -8 -3 3
-5 1 -12 -5 -16 -5 -3 -10 -17 -10 -31 0 -13 -6 -24 -12 -24 -10 0 -10 -2 0
-8 9 -6 8 -17 -7 -47 -16 -32 -26 -41 -62 -50 -35 -8 -44 -14 -42 -31 2 -24
-34 -48 -104 -69 -29 -9 -51 -11 -58 -5 -6 5 -38 12 -71 15 -57 6 -58 5 -36
-11 12 -9 22 -21 22 -27 0 -6 6 -18 14 -26 8 -9 18 -29 22 -45 6 -26 5 -28
-12 -22 -10 5 -28 11 -39 14 -11 2 -28 11 -37 19 -21 19 -38 9 -38 -22 0 -24
-30 -42 -50 -30 -10 6 -15 -13 -11 -52 1 -17 -4 -23 -17 -23 -20 0 -45 -24
-55 -52 -4 -10 -13 -18 -21 -18 -19 0 -46 -38 -39 -56 7 -19 -47 -40 -59 -22
-4 7 -8 16 -8 21 0 15 -32 6 -37 -11 -2 -11 -20 -25 -39 -32 -19 -8 -34 -20
-34 -27 0 -8 -11 -31 -25 -51 l-25 -36 -79 3 c-96 3 -122 -7 -112 -45 6 -23
-1 -35 -61 -95 -37 -38 -68 -73 -68 -79 0 -5 -9 -14 -20 -20 -16 -8 -18 -15
-10 -30 23 -45 26 -56 22 -72 -2 -10 -8 -18 -13 -18 -5 0 -9 -11 -9 -25 l0
-24 -47 14 c-25 8 -49 18 -52 22 -21 28 -127 61 -133 42 -2 -7 -13 -6 -31 2
-15 7 -30 10 -33 6 -10 -10 16 -47 35 -47 10 0 31 -5 47 -10 25 -9 29 -15 28
-48 -1 -32 -5 -38 -32 -46 -31 -8 -62 4 -62 24 0 4 -16 31 -35 60 -19 29 -35
58 -35 66 0 8 -7 14 -16 14 -19 0 -46 25 -36 34 3 4 7 22 7 40 0 23 -8 38 -27
55 -21 17 -28 19 -28 8 0 -13 -4 -13 -25 -4 -14 7 -25 21 -25 32 0 27 -11 41
-37 47 -20 5 -23 2 -23 -20 0 -38 -17 -16 -32 43 -7 28 -25 65 -41 84 -15 18
-26 39 -23 46 7 20 -21 38 -49 31 -14 -4 -25 -11 -25 -16 0 -17 -62 -11 -82 7
-11 10 -18 13 -17 8 2 -6 -2 -20 -10 -33 -16 -30 -11 -44 19 -49 13 -2 25 -5
26 -6 1 -1 5 -38 8 -81 3 -43 7 -80 8 -80 2 -1 16 -7 31 -14 l28 -12 -26 -44
c-22 -38 -24 -49 -15 -67 7 -12 9 -36 5 -55 -5 -28 -10 -34 -30 -34 -21 0 -25
-5 -25 -30 0 -19 -7 -34 -21 -42 -25 -16 -49 -69 -49 -109 0 -19 -5 -29 -15
-29 -18 0 -68 -77 -60 -90 4 -6 -3 -10 -14 -10 -11 0 -28 -11 -36 -24 -19 -29
-46 -41 -55 -25 -12 18 -44 -9 -63 -52 -19 -44 -31 -49 -47 -19 -6 11 -18 20
-26 20 -9 0 -22 7 -31 15 -14 14 -17 14 -28 -9 -14 -27 -14 -43 -2 -64 11 -16
28 -6 20 13 -7 21 7 19 23 -2 20 -27 17 -43 -10 -43 -14 0 -27 -3 -29 -7 -8
-13 12 -55 22 -48 6 3 15 -4 21 -15 6 -12 21 -20 35 -20 14 0 25 -3 25 -7 0
-5 16 -8 36 -9 40 -1 54 -15 54 -57 0 -17 5 -27 13 -26 6 1 19 0 27 -3 8 -3
42 -10 74 -16 32 -7 60 -13 62 -14 1 -2 4 -34 6 -71 1 -39 8 -73 15 -79 17
-14 6 -30 -17 -23 -33 10 -11 -31 31 -61 28 -19 36 -30 27 -35 -20 -13 -2 -21
30 -14 22 4 31 13 35 34 7 31 40 44 89 34 15 -3 36 -2 45 2 34 15 53 11 75
-13 25 -26 145 -85 158 -77 4 3 19 -4 33 -15 14 -11 28 -20 32 -20 4 0 16 -12
27 -26 l20 -25 22 20 c12 12 27 21 32 21 5 0 15 -24 22 -52 7 -30 23 -64 37
-78 24 -24 26 -24 54 -7 15 9 31 14 35 10 3 -3 14 2 23 13 13 14 29 18 56 16
30 -3 42 2 57 20 11 13 19 29 20 36 0 28 33 62 59 62 48 1 63 22 58 80 -3 40
-10 57 -27 70 -21 16 -22 19 -9 53 10 29 10 40 1 49 -20 20 -14 47 16 65 15
10 33 26 40 35 7 10 22 18 34 18 14 0 18 5 14 16 -3 9 -3 21 1 27 4 6 5 33 4
59 -2 38 1 48 13 48 18 0 21 21 5 37 -5 5 -11 21 -13 35 -3 30 -46 90 -46 64
0 -18 -8 -20 -29 -7 -10 6 -10 10 -1 16 6 4 9 13 6 21 -8 22 14 27 35 8 10 -9
19 -14 19 -10 0 4 9 2 20 -4 17 -9 22 -7 32 15 11 26 18 29 53 25 38 -4 36
-17 -1 -16 -31 1 -39 -3 -42 -19 -2 -11 -10 -27 -17 -35 -14 -16 -15 -44 -2
-56 4 -4 7 -17 7 -28 0 -12 9 -29 20 -39 11 -9 20 -24 20 -32 0 -8 7 -15 17
-15 27 0 83 -49 83 -73 1 -42 47 -76 65 -47 10 16 23 12 30 -10 8 -24 68 -90
83 -90 6 0 14 -9 17 -20 11 -35 54 -72 77 -65 12 4 27 0 40 -12 12 -10 18 -12
13 -4 -5 9 -3 12 6 9 8 -3 14 -11 14 -19 1 -8 7 -28 15 -46 16 -36 38 -43 110
-37 25 2 59 4 76 4 26 0 34 5 44 31 13 30 15 31 64 26 28 -2 60 -8 71 -12 19
-8 19 -7 4 11 -23 27 -32 67 -13 60 9 -3 14 1 14 14 0 11 6 20 13 20 8 0 19
11 25 25 7 14 18 28 26 31 11 4 13 12 6 30 -5 13 -7 24 -4 24 2 0 0 9 -6 19
-13 25 -19 130 -8 137 13 8 9 41 -7 54 -8 7 -15 27 -15 44 0 18 -5 37 -12 44
-8 8 -8 15 1 25 9 11 8 17 -4 27 -9 7 -14 19 -11 25 2 7 -1 18 -7 24 -8 8 -7
11 3 11 10 0 10 4 -2 18 -9 9 -13 22 -11 29 2 6 -4 17 -15 25 -22 15 -34 55
-20 64 13 8 0 57 -18 67 -8 4 -14 18 -15 30 0 12 -3 16 -6 10 -2 -7 -15 -13
-28 -13 -13 0 -26 -4 -29 -9 -6 -8 -81 -24 -120 -25 -16 -1 -20 -9 -23 -41 -1
-30 -9 -46 -30 -63 -15 -12 -27 -29 -25 -37 2 -8 -2 -15 -8 -15 -5 0 -10 7
-10 17 0 15 -1 15 -18 0 -10 -10 -32 -17 -49 -17 -17 0 -49 -7 -73 -15 -29
-10 -47 -12 -60 -5 -16 8 -22 4 -41 -30 -13 -22 -27 -39 -33 -37 -5 2 -18 -5
-28 -15 -24 -24 -49 -23 -82 3 -23 18 -38 48 -17 35 14 -9 53 41 47 61 -3 10
-1 25 4 33 10 17 104 40 120 30 21 -13 60 1 60 21 0 11 7 19 16 19 13 0 15 8
12 35 -4 32 -1 36 21 41 15 3 38 12 52 20 23 12 28 12 38 0 13 -16 85 -31 99
-22 9 6 -4 56 -21 83 -4 6 -3 14 3 18 18 11 11 36 -15 57 -33 26 -32 35 8 36
42 1 97 -18 97 -35 0 -7 12 -15 28 -19 15 -3 34 -8 42 -12 8 -3 24 -6 35 -7
11 -1 36 -9 55 -17 39 -18 56 -7 39 24 -6 12 -6 18 1 18 5 0 10 -4 10 -10 0
-5 7 -10 15 -10 8 0 15 5 15 10 0 7 7 7 20 0 11 -6 18 -15 15 -21 -4 -5 -4 -9
-1 -9 9 0 101 71 104 81 2 5 12 9 22 9 12 0 25 17 41 54 18 46 25 53 39 46 28
-15 60 15 57 53 -1 25 2 31 15 29 12 -2 15 3 11 17 -5 21 14 91 25 91 4 0 13
-4 20 -9 35 -22 95 86 72 128 -5 11 -10 32 -10 46 0 22 3 26 18 20 58 -23 100
-8 86 30 -4 8 -1 22 6 30 10 12 5 14 -27 14 -21 1 -45 1 -55 2 -19 3 -12 29 8
29 9 0 14 11 14 30 0 27 3 30 18 21 13 -7 19 -5 27 9 10 17 11 17 45 0 71 -37
104 -51 116 -46 21 8 116 -27 144 -54 35 -31 124 -43 113 -14 -5 14 -2 16 18
11 18 -5 28 -1 37 13 10 16 9 21 -8 30 -31 16 -24 30 15 30 37 0 85 35 85 63
0 8 11 19 25 25 14 6 25 20 25 29 1 25 26 56 39 48 6 -3 11 -2 11 4 0 6 7 8
15 5 9 -4 15 0 15 9 0 14 12 15 80 11 48 -3 80 -2 80 4 0 16 60 6 73 -12 13
-18 37 -18 49 -1 4 6 8 2 8 -7 0 -10 4 -18 10 -18 5 0 9 11 8 24 -1 14 -6 22
-10 20 -4 -3 -8 0 -8 5 0 6 -3 10 -7 9 -9 -3 -13 5 -13 27 0 8 7 15 15 15 8 0
15 5 15 10 0 7 7 7 20 0 19 -10 20 -9 14 14 -5 21 -3 24 14 19 23 -6 38 12 20
23 -6 4 -14 2 -16 -4 -5 -15 -32 -3 -32 14 0 8 -19 18 -44 25 -42 10 -70 39
-47 47 6 2 8 9 5 14 -4 7 -2 8 5 4 6 -4 23 5 39 21 36 35 57 73 42 73 -6 0 -8
4 -5 10 3 5 -1 23 -10 40 -11 21 -23 30 -40 30 -14 0 -25 4 -25 9 0 5 -3 18
-7 28 -6 17 -6 17 14 1 11 -10 32 -18 46 -18 15 0 27 -4 27 -10 0 -5 11 -10
25 -10 17 0 29 8 37 25 6 13 15 22 20 19 5 -3 8 5 7 18 -1 12 -1 37 -1 55 2
28 6 32 42 38 34 6 40 10 40 31 0 14 6 40 14 59 8 19 11 37 6 40 -5 3 -7 12
-4 19 3 7 -2 16 -10 19 -9 4 -16 11 -16 17 0 6 12 2 26 -9 40 -31 64 -28 64 9
0 32 9 37 27 19 14 -14 36 -2 29 16 -3 10 3 13 22 12 21 -2 27 3 27 18 0 11
-6 20 -13 20 -17 0 -32 24 -32 51 0 20 23 53 73 106 12 13 28 18 43 15 13 -2
25 1 27 7 3 8 8 7 19 -2 18 -15 41 -8 75 24 15 14 23 30 19 39 -7 19 8 20 24
1 6 -8 17 -13 24 -10 7 3 25 -8 39 -25 13 -16 27 -27 31 -24 10 10 36 -19 36
-41 0 -12 -18 -37 -44 -60 -25 -21 -42 -45 -39 -52 3 -8 -5 -16 -21 -20 -24
-6 -26 -10 -20 -39 5 -29 2 -37 -26 -62 -31 -28 -32 -30 -25 -86 4 -31 11 -57
16 -57 5 0 9 -15 9 -34 0 -18 6 -39 14 -46 16 -13 11 -40 -8 -40 -7 0 -11 -20
-11 -55 l0 -55 42 0 c34 0 46 -5 58 -24 9 -13 34 -36 55 -50 28 -19 40 -33 40
-50 0 -29 37 -76 77 -96 15 -8 38 -25 50 -38 21 -21 23 -22 43 -5 11 10 20 26
20 36 0 17 2 18 16 6 14 -11 19 -10 35 10 17 21 20 22 41 7 26 -18 64 -21 74
-5 3 6 17 8 31 4 14 -3 23 -2 21 2 -2 4 -10 22 -16 38 -12 29 -63 62 -88 57
-6 -1 -11 5 -11 13 0 8 3 15 7 15 4 0 13 18 20 41 11 31 18 39 32 36 13 -4 18
0 18 14 0 12 7 19 18 19 25 0 66 45 59 64 -4 10 1 20 13 26 11 6 20 16 20 21
0 6 11 20 25 31 14 11 25 26 25 34 0 8 10 14 23 14 28 0 41 9 56 37 7 15 17
20 28 16 12 -5 15 -2 10 10 -5 14 0 17 28 17 20 0 35 5 35 12 0 6 9 31 21 55
20 41 20 45 5 68 -9 14 -20 25 -25 25 -5 0 -11 10 -14 23 -2 12 -8 30 -12 40
-5 12 -3 17 9 17 10 0 13 5 9 16 -10 26 31 0 57 -35 11 -17 29 -33 40 -36 16
-5 20 -15 20 -50 0 -42 2 -46 42 -65 47 -23 68 -14 68 27 0 20 4 24 20 20 25
-6 44 16 35 43 -7 21 -6 21 25 5 30 -16 32 -16 37 4 6 23 18 27 28 11 11 -18
26 -10 20 10 -6 19 -3 20 34 14 37 -6 40 -4 46 19 4 15 13 31 21 38 10 8 11
16 3 30 -12 24 7 26 38 4 30 -21 56 -10 42 17 -9 17 -8 23 5 30 24 13 20 28
-8 28 -13 0 -29 7 -36 15 -7 8 -18 15 -24 15 -7 0 -23 11 -36 25 -26 28 -48
32 -56 11 -7 -18 -34 -9 -34 10 0 8 -7 14 -15 14 -8 0 -20 9 -27 19 -9 15 -17
17 -35 10 -41 -15 -62 -11 -56 10 3 12 11 17 19 14 17 -6 43 23 44 48 0 16
-62 142 -82 167 -6 6 -6 12 -1 12 18 0 6 54 -15 68 -12 8 -22 21 -22 28 0 13
-35 36 -102 66 -26 12 -38 34 -38 74 0 11 -13 33 -30 49 -25 24 -30 26 -36 12
-7 -20 -69 -52 -96 -50 -9 1 -32 -14 -50 -33 -25 -26 -40 -34 -68 -34 -42 0
-96 30 -105 59 -7 23 -25 29 -25 8 0 -7 -11 -14 -25 -15 -22 -2 -25 1 -19 23
3 14 3 37 -1 53 l-7 27 -19 -24 c-16 -19 -22 -21 -34 -11 -9 8 -29 10 -49 7
-30 -5 -41 0 -80 36 -34 30 -46 48 -46 69 0 21 -5 28 -19 28 -33 0 -52 12 -62
37 -5 14 -15 23 -25 21 -9 -2 -21 5 -27 14 -9 13 -7 21 7 37 10 11 23 18 29
15 7 -2 18 5 25 16 11 18 10 23 -5 38 -16 16 -16 17 4 20 31 5 42 58 17 83
-11 11 -27 16 -39 13 -17 -4 -20 -12 -17 -60 4 -49 2 -53 -15 -47 -10 3 -21
11 -25 17 -4 6 -12 5 -22 -3 -8 -7 -20 -10 -26 -6 -15 9 -12 -11 4 -24 13 -11
12 -15 -2 -32 -18 -21 -52 -25 -69 -8 -18 18 -37 1 -21 -19 11 -13 11 -15 -2
-10 -45 16 -60 19 -60 9 0 -16 -26 -13 -41 5 -10 13 -10 17 2 24 21 13 21 58
1 63 -32 8 -85 0 -96 -14 -6 -8 -20 -19 -31 -25 -11 -6 -20 -17 -21 -25 -2
-35 -5 -39 -23 -39 -29 0 -47 -28 -33 -51 15 -23 16 -42 2 -34 -10 6 -35 -42
-31 -59 1 -5 -5 -6 -14 -2 -10 3 -14 2 -9 -5 3 -6 7 -24 8 -39 3 -41 10 -45
77 -46 33 -1 62 -4 66 -8 3 -3 -2 -6 -12 -6 -10 0 -16 -3 -12 -6 3 -3 -3 -27
-14 -52 -11 -26 -18 -56 -14 -69 4 -16 1 -23 -10 -23 -8 0 -15 -6 -15 -14 0
-7 -11 -25 -24 -39 -17 -18 -23 -33 -19 -48 5 -18 3 -21 -10 -16 -10 4 -18 -1
-22 -14 -4 -10 -15 -19 -25 -19 -10 0 -20 -5 -22 -12 -5 -15 -57 21 -58 40 0
19 -58 117 -80 137 -11 10 -20 23 -20 30 0 7 -9 20 -20 30 -11 10 -27 43 -36
72 -13 44 -18 52 -29 43 -11 -9 -20 -8 -37 4 -12 9 -30 16 -40 16 -30 0 -68
23 -68 40 0 10 -16 24 -40 35 -35 16 -58 45 -52 67 4 17 -49 20 -67 4 -10 -9
-25 -14 -34 -11 -8 4 -36 -1 -61 -9 -46 -16 -47 -15 -110 14 -34 17 -76 30
-92 30 -17 0 -54 15 -84 35 -30 19 -66 40 -80 46 -14 7 -38 32 -55 57 -23 34
-37 46 -59 48 -16 2 -43 17 -60 33 -18 17 -36 31 -41 31 -4 0 -16 6 -24 14
-14 12 -19 11 -34 -4z m1908 -89 c3 -5 1 -12 -5 -16 -5 -3 -10 1 -10 9 0 18 6
21 15 7z m284 -447 c-6 -8 -14 -13 -16 -10 -3 2 -18 0 -35 -4 -25 -8 -29 -7
-24 6 3 9 6 18 6 20 0 2 9 4 20 4 11 0 20 5 20 10 0 7 7 7 21 0 16 -9 18 -14
8 -26z m-89 -10 c0 -11 -6 -14 -20 -9 -22 7 -26 -5 -9 -22 8 -8 7 -19 -3 -41
-11 -20 -12 -35 -6 -47 12 -21 -2 -38 -34 -41 -27 -2 -71 23 -63 36 3 5 1 11
-5 15 -14 9 -13 75 2 75 6 0 9 3 5 6 -7 7 12 28 33 37 8 3 34 6 58 6 32 1 42
-3 42 -15z m-2680 -289 c0 -8 -4 -15 -9 -15 -5 0 -14 7 -21 15 -10 13 -9 15 9
15 12 0 21 -6 21 -15z m1952 -143 c27 -20 23 -50 -7 -58 -20 -5 -23 -9 -14
-20 9 -11 8 -15 -5 -20 -12 -5 -13 -10 -5 -26 14 -26 6 -33 -15 -13 -9 9 -23
18 -30 19 -8 1 -21 8 -29 15 -9 7 -27 11 -41 9 -14 -2 -24 2 -23 7 1 6 20 10
42 11 71 1 68 -1 61 59 -5 45 -3 55 9 55 8 0 15 6 16 13 0 6 6 1 12 -13 6 -14
20 -31 29 -38z m116 -31 c-4 -18 -25 -26 -25 -9 0 7 -4 21 -8 31 -7 17 -6 18
14 5 12 -7 20 -19 19 -27z m92 -11 c3 0 -2 -5 -12 -10 -17 -11 -48 -4 -48 10
0 7 27 7 60 0z m-480 -26 c0 -9 8 -14 18 -13 33 3 39 -1 35 -25 -6 -28 12 -42
32 -26 10 8 15 9 15 2 0 -6 -15 -18 -34 -27 -28 -13 -39 -14 -57 -5 -16 9 -18
14 -9 20 9 6 7 13 -9 29 -11 11 -16 21 -11 21 6 0 8 11 4 26 -5 19 -4 25 5 20
6 -4 11 -14 11 -22z m1635 -122 c0 -9 -4 -23 -9 -30 -4 -7 -1 -15 9 -18 8 -4
14 -11 13 -18 -1 -6 3 -21 10 -33 17 -32 3 -29 -36 6 -33 31 -41 51 -19 51 9
0 8 3 -2 9 -9 6 -10 11 -3 15 6 4 9 13 5 21 -3 10 1 15 14 15 13 0 19 -6 18
-18z m-153 -75 c-2 -4 -15 4 -29 18 -14 14 -30 25 -34 25 -5 0 -9 7 -9 16 0
12 10 7 38 -17 21 -19 37 -38 34 -42z m-1348 41 c21 -29 20 -39 -1 -31 -11 5
-14 3 -9 -6 5 -7 17 -11 27 -8 22 6 26 -11 4 -19 -8 -4 -13 -10 -10 -14 7 -12
-56 7 -69 20 -7 7 -7 16 2 28 7 9 15 25 18 35 8 23 20 22 38 -5z m211 -57
c-10 -9 -25 14 -24 37 l1 27 13 -30 c7 -16 12 -32 10 -34z m-277 -26 c11 -11
-22 -45 -43 -45 -17 0 -25 -6 -25 -17 0 -13 -3 -14 -11 -6 -8 8 -9 30 -5 67
l7 55 37 -25 c20 -14 38 -27 40 -29z m1572 -6 c0 -14 -16 -11 -29 5 -10 12 -8
13 8 9 12 -3 21 -9 21 -14z m-2053 -21 c5 -7 7 -24 3 -38 l-6 -25 -12 22 c-22
40 -9 72 15 41z m0 -102 c-2 -6 -17 -18 -35 -26 -18 -8 -37 -27 -44 -41 -6
-15 -27 -35 -45 -44 -18 -10 -33 -23 -33 -30 0 -6 -14 -22 -31 -34 -23 -17
-34 -20 -42 -12 -6 6 -20 11 -31 11 -18 1 -17 3 7 16 15 8 27 21 27 29 0 8 20
34 44 57 24 24 46 52 48 63 2 14 15 22 46 28 23 4 42 13 42 18 0 5 11 2 25 -7
14 -9 24 -22 22 -28z m405 19 c3 -14 1 -28 -3 -31 -14 -8 39 -71 66 -78 14 -4
25 -11 25 -16 0 -13 -37 -13 -45 -1 -3 5 -23 8 -45 7 -45 -4 -56 11 -38 50 11
23 9 28 -12 44 -26 20 -26 21 5 38 31 17 42 14 47 -13z m33 5 c3 -5 1 -10 -4
-10 -6 0 -11 5 -11 10 0 6 2 10 4 10 3 0 8 -4 11 -10z m-1290 -299 c8 -14 -13
-24 -33 -16 -14 5 -14 7 -2 15 19 12 27 12 35 1z m2317 -233 c-6 -6 -15 -8
-19 -4 -4 4 -1 11 7 16 19 12 27 3 12 -12z m-2322 -28 c0 -5 -4 -10 -10 -10
-5 0 -10 5 -10 10 0 6 5 10 10 10 6 0 10 -4 10 -10z m-470 -382 c0 -18 -17 -7
-29 19 -13 28 -13 28 8 9 12 -11 21 -23 21 -28z m-550 -1018 c0 -6 -7 -10 -15
-10 -8 0 -15 2 -15 4 0 2 -3 12 -7 21 -5 15 -3 16 15 6 12 -7 22 -16 22 -21z
m-170 -219 c0 -23 -28 -34 -64 -25 -33 8 -34 23 -2 17 14 -3 29 2 37 11 19 21
29 20 29 -3z"/>
<path d="M9440 12074 c0 -8 5 -12 10 -9 6 3 10 10 10 16 0 5 -4 9 -10 9 -5 0
-10 -7 -10 -16z"/>
<path d="M9085 12060 c3 -5 11 -10 16 -10 6 0 7 5 4 10 -3 6 -11 10 -16 10 -6
0 -7 -4 -4 -10z"/>
<path d="M9130 12050 c0 -5 7 -10 15 -10 8 0 15 -9 15 -20 0 -11 -4 -20 -10
-20 -5 0 -10 -7 -10 -16 0 -9 -10 -24 -22 -34 l-22 -17 23 -8 c15 -4 28 -1 40
10 19 16 41 17 52 2 5 -7 49 68 49 84 0 3 -14 6 -31 7 -17 1 -41 9 -52 17 -25
17 -47 20 -47 5z"/>
<path d="M9455 11750 c3 -5 11 -10 16 -10 6 0 7 5 4 10 -3 6 -11 10 -16 10 -6
0 -7 -4 -4 -10z"/>
<path d="M12986 11101 c-4 -7 -5 -15 -2 -18 9 -9 19 4 14 18 -4 11 -6 11 -12
0z"/>
<path d="M13181 10836 c12 -10 60 -16 54 -6 -3 5 -18 10 -32 10 -15 0 -24 -2
-22 -4z"/>
<path d="M13290 10784 c0 -1 6 -7 14 -13 10 -9 15 -8 19 3 4 10 0 14 -14 13
-10 -1 -19 -2 -19 -3z"/>
<path d="M11345 10418 c-4 -24 -9 -61 -11 -82 -5 -50 -9 -53 -35 -30 -20 18
-21 18 -40 -6 -10 -14 -19 -33 -19 -42 0 -9 -7 -21 -16 -26 -13 -7 -10 -13 21
-30 44 -27 49 -27 42 -3 -3 14 2 21 17 25 33 9 36 8 46 -19 9 -25 34 -33 44
-16 4 6 21 5 42 -1 23 -6 39 -6 43 0 3 5 19 15 36 23 16 8 36 27 43 42 7 15
20 27 29 27 9 0 25 7 34 16 10 9 35 17 56 17 l38 1 -44 43 c-24 24 -53 43 -65
43 -12 0 -27 5 -34 12 -7 7 -12 8 -12 2 0 -5 -22 -10 -50 -11 -42 -2 -52 1
-69 23 -14 18 -26 24 -40 19 -11 -3 -22 -1 -26 5 -12 20 -23 9 -30 -32z"/>
<path d="M9599 10303 c-1 -10 -1 -24 0 -31 1 -8 -6 -20 -16 -27 -17 -13 -17
-15 0 -51 l19 -38 21 35 c12 19 25 36 29 37 16 7 7 42 -17 67 -31 30 -35 31
-36 8z"/>
<path d="M9536 10115 c-15 -11 -15 -13 0 -19 19 -7 66 3 59 14 -9 14 -42 17
-59 5z"/>
<path d="M9630 10120 c0 -6 -4 -8 -10 -5 -5 3 -10 2 -10 -4 0 -17 17 -21 29
-7 8 10 9 16 1 21 -5 3 -10 1 -10 -5z"/>
<path d="M11100 10111 c0 -5 7 -11 14 -14 10 -4 13 -1 9 9 -6 15 -23 19 -23 5z"/>
<path d="M12469 10066 c-33 -50 -33 -49 -3 -42 16 4 32 12 35 18 4 6 15 2 28
-11 11 -11 27 -21 35 -21 27 0 76 -22 76 -35 0 -20 47 -72 70 -78 17 -4 22 0
27 24 3 16 12 29 19 29 8 0 14 6 14 14 0 7 7 19 15 26 20 16 11 28 -17 23 -16
-3 -32 5 -52 26 -28 29 -31 30 -48 14 -29 -26 -84 -27 -109 -2 -11 11 -33 24
-48 29 -22 6 -30 3 -42 -14z"/>
<path d="M12366 10061 c-3 -4 3 -16 13 -25 17 -16 18 -15 14 9 -5 25 -17 32
-27 16z"/>
<path d="M12782 9903 c-10 -4 -8 -9 7 -20 12 -8 21 -21 21 -29 0 -8 4 -13 9
-10 5 4 12 0 14 -6 3 -7 4 1 4 17 -1 17 -9 35 -17 42 -16 14 -19 14 -38 6z"/>
<path d="M12739 9883 c-6 -36 14 -73 37 -73 22 0 16 27 -11 48 -17 14 -21 22
-13 25 10 4 10 6 1 6 -7 1 -14 -2 -14 -6z"/>
<path d="M6632 9782 c-43 -21 -42 -58 1 -55 15 1 27 -2 27 -6 0 -16 79 -93 90
-86 9 6 42 -15 93 -60 19 -17 57 -12 57 8 0 17 48 37 87 37 18 0 33 5 33 10 0
6 0 13 0 17 0 4 -7 8 -17 9 -10 2 -29 17 -44 35 -14 18 -35 33 -45 34 -61 6
-112 20 -139 40 -40 30 -101 37 -143 17z"/>
<path d="M7259 9600 c-1 -16 -1 -40 -2 -53 -1 -30 25 -67 52 -72 11 -2 25 -7
31 -10 5 -3 21 1 34 10 25 17 25 17 6 38 -23 24 -25 33 -7 41 6 3 3 4 -8 3
-12 -1 -24 8 -33 26 -7 15 -21 27 -33 27 -10 0 -19 5 -19 10 0 6 -4 10 -10 10
-5 0 -10 -13 -11 -30z"/>
<path d="M7066 9605 c-19 -14 -19 -15 7 -15 17 0 27 5 27 15 0 19 -9 19 -34 0z"/>
<path d="M7215 9600 c-8 -13 -1 -24 14 -19 6 3 7 10 2 18 -6 10 -10 10 -16 1z"/>
<path d="M7130 9590 c8 -5 26 -9 40 -9 l25 1 -25 8 c-14 4 -32 8 -40 9 -13 1
-13 0 0 -9z"/>
<path d="M7590 9530 c18 -12 50 -13 50 -2 0 4 -15 8 -33 9 -23 2 -28 0 -17 -7z"/>
<path d="M7590 9501 c0 -6 9 -9 19 -8 11 0 17 5 15 9 -7 11 -34 10 -34 -1z"/>
<path d="M7664 9492 c19 -21 36 -21 36 0 0 6 -3 8 -6 5 -4 -3 -16 -1 -28 5
-21 11 -21 11 -2 -10z"/>
<path d="M7416 9467 c-13 -49 -7 -86 17 -98 40 -21 67 -52 67 -78 1 -25 1 -25
31 12 17 20 37 37 44 37 19 0 39 27 24 32 -7 2 -13 21 -13 41 -1 43 -4 44 -40
16 -39 -31 -106 -11 -106 32 0 27 -17 32 -24 6z"/>
<path d="M7490 9221 c0 -5 -9 -13 -20 -16 -11 -3 -20 -15 -20 -26 0 -22 18
-26 26 -4 4 8 11 12 17 8 5 -3 7 -1 3 5 -3 6 -2 13 4 17 13 8 13 25 0 25 -5 0
-10 -4 -10 -9z"/>
<path d="M7403 9155 c-7 -8 -13 -19 -13 -25 0 -5 -8 -10 -17 -10 -14 0 -12 -4
7 -25 35 -37 47 -32 49 25 1 51 -5 60 -26 35z"/>
<path d="M7390 9051 c0 -5 7 -12 16 -15 24 -9 28 -7 14 9 -14 17 -30 20 -30 6z"/>
<path d="M9580 8960 c0 -10 26 -20 34 -13 11 12 6 19 -14 20 -11 1 -20 -2 -20
-7z"/>
<path d="M9260 7990 c0 -5 5 -10 11 -10 5 0 7 5 4 10 -3 6 -8 10 -11 10 -2 0
-4 -4 -4 -10z"/>
<path d="M9100 7961 c0 -5 7 -12 16 -15 14 -5 15 -4 4 9 -14 17 -20 19 -20 6z"/>
<path d="M9190 7943 c-9 -7 -20 -9 -24 -6 -3 3 -6 1 -6 -5 0 -7 14 -13 30 -13
17 -1 36 -2 43 -3 6 -1 13 8 15 19 3 24 -28 29 -58 8z"/>
<path d="M8290 7741 c0 -12 7 -21 15 -21 9 0 23 -16 32 -35 10 -21 24 -35 35
-35 10 0 18 4 18 9 0 14 -39 59 -70 81 l-30 21 0 -20z"/>
<path d="M8438 7703 c-2 -10 0 -34 5 -53 6 -24 6 -35 -2 -38 -17 -6 -13 -58 5
-76 19 -20 28 -15 44 23 6 17 17 28 24 25 15 -6 31 12 38 42 4 15 -4 30 -26
51 -39 38 -83 51 -88 26z"/>
<path d="M8390 7545 c0 -8 5 -15 10 -15 6 0 10 7 10 15 0 8 -4 15 -10 15 -5 0
-10 -7 -10 -15z"/>
<path d="M8420 7522 c0 -13 28 -72 34 -72 1 0 2 8 1 18 -1 21 -35 72 -35 54z"/>
<path d="M8480 7416 c0 -8 5 -18 10 -21 6 -3 10 1 10 9 0 8 -4 18 -10 21 -5 3
-10 -1 -10 -9z"/>
<path d="M7885 7401 c-11 -5 -25 -6 -31 -4 -6 2 -11 -2 -11 -9 0 -17 -33 -68
-43 -68 -27 0 -59 21 -54 35 8 19 -9 19 -52 -1 -25 -12 -38 -13 -47 -6 -8 7
-18 7 -27 2 -22 -14 -51 -12 -71 6 -9 8 -23 17 -31 18 -7 2 -20 6 -28 9 -8 3
-27 8 -42 11 -22 5 -27 2 -30 -16 -2 -19 -8 -22 -33 -20 -28 3 -29 3 -12 -16
21 -23 13 -78 -13 -85 -19 -5 -33 -74 -19 -93 5 -6 6 -13 3 -16 -3 -3 6 -17
20 -31 14 -15 26 -37 26 -51 0 -14 5 -28 11 -32 7 -4 8 -9 0 -17 -7 -7 -5 -14
7 -23 16 -13 16 -13 0 -14 -10 0 -22 -9 -28 -20 -6 -11 -16 -17 -25 -14 -8 4
-15 1 -15 -4 0 -6 -10 -14 -21 -17 -19 -6 -18 -9 17 -24 l39 -18 18 29 c9 16
34 37 55 46 76 35 156 119 183 193 12 32 24 59 26 59 2 0 14 -11 27 -25 30
-32 116 -45 136 -20 7 8 20 15 29 15 16 0 81 63 81 79 0 12 78 33 99 26 10 -3
25 2 35 14 17 18 17 19 -3 26 -22 7 -29 25 -10 25 17 0 -10 29 -42 46 -30 15
-91 18 -124 5z"/>
<path d="M8483 7359 c6 -23 4 -26 -23 -26 -17 0 -30 5 -30 10 0 5 -6 4 -14 -2
-8 -7 -36 -13 -63 -14 -48 -2 -82 -24 -83 -54 0 -7 -6 -13 -12 -13 -9 0 -8 -3
2 -10 12 -7 12 -12 2 -22 -9 -9 -15 -9 -20 -2 -4 6 -15 13 -24 17 -10 3 -15
12 -12 20 3 9 -9 19 -38 30 -24 10 -47 17 -51 17 -10 0 -4 -23 8 -32 7 -5 6
-14 -1 -25 -9 -14 -8 -25 5 -48 29 -53 42 -57 58 -15 11 28 13 29 37 19 14 -7
26 -16 26 -20 0 -4 7 -9 15 -13 13 -4 14 -2 5 14 -8 15 -8 18 3 14 8 -3 21 2
30 10 13 13 17 13 26 2 16 -19 61 2 61 28 0 13 4 16 18 11 9 -5 28 -9 42 -10
14 -1 27 -3 30 -4 3 -1 12 -4 20 -6 29 -7 90 -31 96 -38 14 -14 36 -7 30 9 -5
13 -1 15 19 10 17 -4 25 -2 25 7 0 15 -29 30 -89 47 -35 9 -41 15 -42 38 0 18
-11 35 -31 52 l-31 24 6 -25z"/>
<path d="M8500 7220 c0 -5 5 -10 11 -10 5 0 7 5 4 10 -3 6 -8 10 -11 10 -2 0
-4 -4 -4 -10z"/>
</g>
</svg>
