<?xml version="1.0" standalone="no"?>
<!DOCTYPE svg PUBLIC "-//W3C//DTD SVG 20010904//EN"
 "http://www.w3.org/TR/2001/REC-SVG-20010904/DTD/svg10.dtd">
<svg version="1.0" xmlns="http://www.w3.org/2000/svg"
 width="756.686424pt" height="568.376382pt" viewBox="0 0 756.686424 568.376382"
 preserveAspectRatio="xMidYMid meet">
<metadata>
Created by potrace 1.15, written by Peter Selinger 2001-2017
</metadata>
<g transform="translate(-591.510636,1300.926196) scale(0.100000,-0.100000)"
fill="#222222" stroke="none">
<path d="M10128 13003 c7 -3 16 -2 19 1 4 3 -2 6 -13 5 -11 0 -14 -3 -6 -6z"/>
<path d="M10038 12940 c-21 -10 -40 -14 -44 -9 -3 5 -12 9 -20 9 -8 0 -13 -4
-10 -9 3 -4 -12 -15 -34 -24 -25 -9 -40 -22 -40 -32 0 -11 -5 -15 -15 -11 -10
4 -15 -1 -15 -14 0 -23 -18 -27 -26 -5 -10 24 -21 9 -34 -45 -7 -27 -16 -50
-21 -50 -5 0 -9 -7 -9 -15 0 -12 -5 -13 -24 -3 -14 6 -33 7 -43 3 -10 -5 -26
-7 -36 -6 -10 1 -31 -9 -48 -23 -35 -30 -67 -34 -76 -8 -7 20 -60 72 -74 72
-5 0 -9 7 -9 15 0 30 -47 11 -74 -31 -17 -25 -17 -27 5 -50 12 -13 29 -24 37
-24 24 0 7 -25 -20 -28 -20 -2 -25 -7 -21 -23 3 -10 1 -25 -5 -32 -8 -10 -4
-21 16 -45 26 -30 29 -31 49 -17 14 10 24 12 28 5 4 -7 14 -5 28 5 12 8 29 15
39 15 10 0 18 8 18 18 1 14 4 13 20 -7 21 -25 26 -61 11 -76 -21 -21 -50 -133
-45 -167 5 -30 3 -36 -15 -41 -14 -3 -19 -10 -15 -21 9 -23 -22 -31 -43 -11
-16 16 -17 16 -25 -4 -7 -21 -38 -30 -38 -11 0 20 -39 10 -58 -15 -11 -14 -29
-25 -40 -25 -50 0 -52 -59 -2 -84 28 -13 29 -13 39 13 9 25 10 25 16 4 4 -12
13 -24 21 -27 21 -8 18 -56 -3 -56 -13 0 -14 -3 -5 -12 20 -20 14 -42 -18 -63
-20 -13 -30 -29 -31 -47 -1 -16 -2 -34 -3 -40 -1 -7 -10 -22 -21 -33 -11 -11
-29 -30 -39 -43 -19 -22 -19 -22 0 -43 13 -15 15 -23 7 -26 -7 -2 -9 -11 -6
-20 5 -13 3 -13 -18 -1 -31 17 -40 30 -34 47 4 11 2 11 -8 2 -11 -9 -17 -8
-27 4 -7 8 -23 15 -36 15 -12 0 -26 5 -29 10 -8 13 -52 13 -61 -1 -3 -6 0 -22
7 -36 10 -19 10 -28 1 -43 -7 -11 -12 -33 -12 -50 0 -36 -29 -52 -72 -39 -26
7 -28 5 -27 -19 1 -18 3 -21 6 -9 4 17 6 17 26 -2 83 -79 100 -92 115 -86 20
7 32 -12 32 -53 0 -23 8 -41 27 -58 26 -24 27 -25 9 -54 -13 -23 -14 -34 -6
-50 9 -16 8 -20 -6 -20 -11 0 -14 -5 -10 -16 10 -27 -22 -67 -49 -62 -24 5
-24 4 -51 -122 -3 -14 -8 -32 -11 -40 -10 -24 -10 -74 -1 -93 6 -11 18 -17 31
-15 19 3 22 -1 18 -27 -8 -75 -1 -155 18 -185 15 -26 17 -39 9 -73 -5 -23 -12
-44 -16 -47 -4 -3 -15 -22 -24 -42 -10 -21 -22 -38 -26 -38 -5 0 -9 -13 -10
-29 0 -20 8 -34 29 -50 22 -16 29 -30 29 -55 0 -18 7 -39 15 -46 22 -18 19
-30 -16 -61 -29 -25 -30 -31 -21 -58 9 -25 8 -32 -4 -39 -13 -7 -14 -16 -6
-45 7 -26 7 -54 -2 -96 -8 -37 -9 -64 -3 -70 5 -5 4 -17 -3 -31 -6 -12 -9 -32
-6 -43 2 -12 -2 -31 -10 -41 -8 -11 -14 -31 -14 -46 0 -16 -8 -29 -21 -35 -20
-9 -21 -18 -22 -112 0 -82 -3 -103 -14 -103 -8 0 -11 -5 -8 -10 4 -6 1 -17 -5
-25 -10 -11 -7 -24 10 -59 l21 -45 -40 -38 c-24 -22 -41 -47 -41 -60 0 -13 -8
-24 -20 -28 -11 -3 -25 -16 -31 -28 -6 -12 -21 -32 -32 -44 -22 -25 -29 -71
-14 -90 6 -9 6 -13 -2 -13 -7 0 -3 -16 10 -41 11 -23 15 -38 8 -33 -9 5 -11
-4 -6 -40 6 -43 5 -47 -18 -58 -19 -9 -22 -14 -14 -25 8 -9 8 -17 0 -26 -13
-16 -5 -28 15 -20 8 3 14 0 14 -6 0 -5 9 -19 20 -29 21 -20 24 -71 5 -84 -6
-5 -6 -8 3 -8 7 0 12 -13 12 -30 0 -20 -5 -30 -14 -30 -8 0 -27 -11 -42 -25
-14 -13 -30 -22 -35 -19 -5 2 -20 -2 -33 -11 -15 -10 -33 -14 -46 -10 -15 5
-20 2 -20 -10 0 -13 -6 -16 -23 -11 -17 4 -24 1 -24 -9 0 -8 4 -15 9 -15 4 0
8 -13 8 -30 0 -16 -5 -30 -11 -30 -5 0 -7 -5 -3 -11 3 -6 -1 -10 -12 -9 -46 5
-62 0 -66 -24 -4 -17 -1 -23 8 -19 23 8 148 -17 167 -34 15 -14 22 -14 56 -3
42 14 86 8 112 -16 9 -8 34 -24 55 -34 39 -20 53 -15 54 19 0 10 10 12 40 8
32 -4 40 -2 45 14 4 10 4 22 1 27 -2 4 6 12 19 18 20 10 25 8 34 -13 6 -14 9
-28 6 -33 -6 -10 12 -45 42 -84 16 -19 34 -29 62 -33 28 -4 45 -13 56 -29 15
-23 53 -36 40 -13 -4 6 11 1 34 -10 46 -24 76 -28 48 -7 -10 8 -15 20 -11 30
4 11 1 16 -10 16 -22 0 -25 -9 35 125 30 66 13 165 -28 165 -8 0 -33 11 -56
24 -38 22 -47 24 -96 14 -67 -12 -106 1 -96 32 4 11 2 20 -4 20 -16 0 -51 38
-51 54 0 8 5 18 10 21 6 3 19 25 29 48 11 23 34 55 50 70 17 16 31 35 31 42 0
17 75 9 107 -11 31 -19 43 -17 43 7 0 16 4 19 18 14 9 -4 28 -10 42 -13 14 -2
31 -9 38 -15 8 -7 12 -5 12 5 0 11 7 14 26 10 19 -3 25 -1 20 7 -4 6 0 12 11
12 10 1 29 3 43 4 14 2 33 -2 43 -7 15 -7 25 -4 43 13 21 20 28 21 44 11 13
-8 20 -9 20 -1 0 6 8 8 20 4 20 -6 21 6 5 48 -4 10 -3 17 4 17 6 0 11 4 11 9
0 6 11 22 25 37 17 18 23 34 19 47 -4 13 -2 17 5 13 6 -4 11 -3 11 3 0 6 7 8
15 5 21 -8 29 20 16 57 -9 25 -7 34 8 50 10 11 25 17 33 14 9 -4 19 3 26 20 6
14 16 25 22 25 5 0 10 22 10 50 0 37 5 54 21 69 11 10 20 27 19 37 -4 37 0 44
29 44 46 0 58 53 16 72 -28 12 -42 45 -27 60 11 11 0 61 -20 85 -10 12 -9 17
4 24 9 5 19 22 23 38 3 16 13 32 20 35 8 3 12 12 9 21 -4 8 0 17 9 21 11 4 16
18 15 44 0 21 3 44 8 52 5 7 7 25 5 40 -1 15 5 43 15 64 10 20 17 44 16 53 -2
32 9 61 23 61 7 0 17 9 20 20 3 11 11 20 16 20 5 0 9 7 9 16 0 14 8 16 56 10
41 -5 54 -3 48 5 -9 16 8 6 69 -40 33 -25 47 -41 43 -54 -5 -20 32 -51 48 -38
14 11 68 25 81 21 59 -16 73 -16 95 2 16 13 33 18 50 14 19 -3 31 1 40 15 9
11 21 17 31 14 13 -4 18 3 23 30 4 19 11 35 16 35 5 0 7 7 4 15 -5 11 1 15 20
15 18 0 30 -8 41 -30 9 -17 19 -28 24 -26 11 7 44 -18 47 -36 1 -9 5 -30 9
-47 5 -25 3 -31 -10 -31 -14 0 -15 -3 -5 -15 7 -8 16 -13 20 -10 5 3 12 0 15
-6 4 -5 13 -8 21 -5 7 3 16 1 19 -4 3 -5 12 -7 19 -4 8 3 17 1 21 -5 3 -6 14
-11 24 -11 10 0 24 -7 31 -15 9 -11 16 -12 25 -5 21 17 87 7 112 -17 28 -29
47 -30 38 -3 -9 30 13 25 43 -10 15 -16 32 -30 39 -30 7 0 13 -11 13 -25 0
-17 4 -23 14 -19 18 7 39 -49 24 -64 -7 -7 -2 -19 16 -37 30 -30 34 -55 9 -55
-14 0 -14 -3 4 -22 12 -13 26 -39 31 -58 6 -19 11 -27 11 -18 1 21 21 28 44
16 10 -5 26 -6 35 -2 9 4 23 6 30 5 18 -3 14 23 -8 49 -18 21 -23 36 -18 58 0
4 9 6 19 4 10 -2 28 6 40 17 l22 20 -24 10 c-13 5 -27 7 -30 5 -12 -7 -4 37 8
44 13 8 6 62 -8 62 -5 0 -9 6 -9 13 0 8 -11 24 -25 37 -28 26 -33 55 -10 64 8
3 15 15 15 26 0 17 -4 20 -20 15 -11 -4 -20 -2 -20 4 0 5 -10 21 -22 35 -49
55 -56 65 -60 83 -2 10 -17 22 -36 28 -17 5 -34 17 -37 26 -3 9 -24 22 -47 30
-48 16 -78 44 -78 75 0 12 -10 28 -22 37 -13 8 -33 25 -45 36 -13 12 -23 19
-23 16 0 -3 -9 -1 -20 5 -11 6 -20 17 -20 25 0 8 -4 15 -9 15 -10 0 -24 34
-25 57 -1 7 -4 13 -8 13 -4 1 -23 17 -42 36 -30 30 -38 34 -56 24 -17 -9 -20
-8 -20 8 0 11 9 22 21 25 17 5 19 9 9 26 -9 17 -8 21 5 21 8 0 15 9 15 20 0
14 6 20 18 18 12 -2 16 3 15 20 -3 25 18 30 39 9 7 -8 20 -14 28 -15 38 -4 86
-15 95 -22 6 -5 10 3 10 22 0 27 5 32 40 43 22 7 35 13 28 14 -9 1 -9 9 -1 34
6 17 15 37 20 44 6 7 3 23 -7 42 -14 29 -14 31 1 31 10 0 14 5 10 15 -4 11 1
15 18 15 13 0 26 -7 30 -15 5 -14 49 -18 71 -6 5 3 29 6 52 8 40 2 42 0 63
-42 23 -47 23 -82 0 -77 -8 2 -2 -9 13 -24 15 -14 24 -30 21 -35 -3 -5 1 -9
10 -9 8 0 16 5 18 10 6 18 95 15 113 -4 22 -21 41 -20 64 3 31 31 56 34 102
11 37 -19 46 -20 83 -10 36 10 54 14 104 19 6 0 12 11 12 22 0 16 5 20 19 16
13 -3 21 1 24 14 4 13 14 19 35 19 33 0 77 43 88 86 8 30 22 30 67 -1 22 -14
39 -20 43 -14 3 6 22 8 43 4 29 -5 43 -1 63 14 14 12 33 21 41 21 18 0 67 55
67 75 0 9 6 12 16 8 13 -5 15 -2 9 15 -3 12 -4 22 0 22 14 0 65 -39 131 -99
114 -107 146 -131 169 -131 13 0 25 -7 29 -15 3 -8 14 -15 25 -15 11 0 23 -5
27 -11 4 -8 9 -7 15 2 6 10 9 11 9 2 0 -19 25 -16 44 6 18 20 18 20 44 -5 15
-13 34 -24 42 -24 10 0 7 7 -10 20 l-25 20 35 0 c46 1 70 34 75 102 3 42 8 56
29 71 14 10 26 25 26 33 0 8 9 14 20 14 21 0 55 43 47 58 -3 4 3 13 13 19 16
11 19 8 24 -23 4 -19 11 -32 16 -29 5 3 7 12 3 20 -7 20 6 19 29 -2 19 -17 23
-11 19 30 -2 12 5 17 23 17 20 0 27 6 31 28 4 15 10 34 14 42 10 19 -9 50 -30
50 -8 0 -29 9 -48 21 -34 20 -34 20 -29 84 4 40 1 68 -6 75 -8 8 -7 13 3 20
13 7 12 14 -3 49 -18 39 -47 62 -54 42 -2 -5 -9 -8 -17 -5 -7 3 -16 -3 -20
-15 -3 -12 -13 -21 -21 -21 -11 0 -13 -6 -9 -21 5 -15 3 -20 -6 -17 -21 7 -22
33 -4 52 16 15 16 18 0 43 -16 23 -16 25 -1 20 15 -6 15 -4 0 18 -15 24 -21
27 -52 29 -8 1 -20 16 -28 35 -11 27 -11 31 -1 23 11 -9 13 -6 9 16 -2 17 2
33 12 41 16 13 10 32 -24 74 -11 15 -12 22 -2 37 7 11 12 27 12 35 0 8 8 15
18 15 14 0 14 2 3 9 -12 8 -12 13 3 35 9 14 25 26 36 26 22 0 35 16 20 25 -16
10 -12 25 8 25 10 0 33 16 52 35 19 19 42 35 51 35 12 0 16 6 12 19 -3 10 3
25 12 32 9 8 25 22 36 32 10 9 19 15 19 12 0 -3 9 3 21 14 17 16 19 26 14 62
-6 36 -16 52 -56 87 -38 34 -52 41 -66 34 -10 -6 -26 -6 -40 -1 -17 6 -31 4
-48 -7 -23 -15 -23 -14 -18 8 3 13 1 18 -4 12 -4 -6 -19 -14 -33 -17 -25 -7
-53 -52 -66 -109 -3 -16 -12 -28 -19 -28 -8 0 -15 -10 -17 -22 -2 -14 -10 -23
-20 -22 -10 1 -14 -4 -11 -12 7 -18 -7 -17 -31 1 -22 17 -40 20 -32 6 9 -13
-31 -20 -43 -8 -6 6 -4 -10 5 -35 9 -29 23 -50 35 -53 27 -9 24 -33 -6 -47
-14 -6 -25 -18 -25 -26 0 -10 -7 -12 -25 -8 -61 16 8 -49 92 -85 33 -14 43
-23 34 -28 -8 -5 -11 -17 -6 -30 4 -13 2 -21 -5 -21 -6 0 -8 -5 -4 -12 6 -9 3
-9 -9 1 -15 11 -18 10 -27 -13 -5 -14 -16 -26 -24 -26 -7 0 -16 -7 -20 -15 -3
-8 -17 -15 -31 -15 -14 0 -25 -4 -25 -10 0 -6 -9 -6 -26 0 -35 14 -44 12 -38
-4 3 -9 -5 -22 -21 -32 -24 -16 -26 -16 -39 1 -9 12 -19 15 -35 10 -13 -4 -44
-8 -69 -10 -26 -2 -66 -12 -88 -24 -35 -17 -47 -18 -79 -10 -29 8 -40 8 -46
-2 -6 -10 -16 -10 -48 0 -23 6 -45 10 -50 7 -9 -6 -37 21 -30 28 14 13 72 36
89 36 24 0 26 17 5 47 -8 12 -12 29 -9 38 5 13 0 15 -27 14 -19 -2 -44 3 -56
9 -32 18 -45 15 -41 -9 7 -48 -157 -63 -197 -19 -10 11 -13 20 -7 20 18 0 2
29 -20 35 -16 6 -18 12 -13 37 7 28 2 46 -27 101 -8 17 -6 18 21 12 17 -4 31
-3 31 2 0 5 15 15 34 22 20 8 33 20 32 30 -1 9 8 17 21 19 14 2 22 10 21 20
-3 43 3 83 12 77 6 -3 10 1 10 10 0 8 11 20 25 25 18 7 25 17 25 36 0 15 15
44 35 68 19 24 35 48 35 55 0 6 5 11 10 11 7 0 9 -19 6 -50 -3 -36 -1 -50 8
-50 7 0 16 3 20 7 4 4 23 6 41 4 30 -2 36 1 46 26 9 24 12 26 22 12 12 -16 42
-15 31 2 -3 5 -2 15 3 22 4 6 8 18 10 26 6 40 25 69 44 64 21 -6 25 8 9 37
-13 24 22 110 44 110 12 0 14 6 8 23 -5 12 -7 41 -6 65 2 41 1 43 -15 28 -23
-21 -34 -20 -81 4 -43 22 -76 26 -82 10 -6 -19 -68 12 -69 35 0 20 0 20 -8 0
-5 -11 -7 -23 -4 -27 8 -14 -4 -8 -33 17 -16 14 -33 25 -38 25 -6 0 -19 9 -30
19 -12 11 -38 22 -58 26 -36 7 -37 6 -40 -27 -2 -25 -7 -32 -20 -30 -24 4 -24
2 9 -63 10 -19 7 -20 -58 -18 l-69 2 0 -33 c0 -47 -9 -66 -31 -66 -10 0 -19
-4 -19 -9 0 -5 -12 -11 -27 -13 -37 -4 -39 -23 -3 -38 17 -7 30 -20 30 -30 0
-9 3 -20 7 -24 18 -17 31 -89 22 -114 -5 -13 -7 -33 -4 -42 3 -10 1 -21 -5
-25 -5 -3 -10 -18 -10 -33 0 -24 -7 -30 -60 -51 -56 -22 -61 -23 -84 -7 -14 8
-27 12 -30 8 -3 -5 -19 -7 -35 -4 -24 3 -33 11 -41 37 -7 23 -18 34 -35 38
-17 3 -25 0 -25 -9 0 -10 -17 -14 -65 -14 -58 0 -65 -2 -65 -20 0 -20 -21 -26
-72 -21 -12 2 -18 -5 -18 -18 0 -24 -1 -24 -54 -11 -30 6 -42 5 -50 -5 -14
-16 -116 -46 -116 -34 0 5 -8 13 -17 16 -10 4 -34 19 -53 34 -31 25 -42 28
-92 25 -48 -3 -58 -1 -58 13 0 13 -2 13 -9 2 -5 -8 -16 -11 -25 -8 -8 3 -18 2
-21 -3 -10 -16 -22 -11 -28 10 -4 15 -14 20 -36 20 -26 0 -31 4 -31 25 0 14 4
25 9 25 19 0 18 39 -3 62 -28 33 -90 50 -140 38 -33 -7 -44 -5 -64 11 -30 23
-61 24 -77 2 -11 -15 -16 -15 -63 2 -29 11 -52 23 -52 28 0 5 -11 20 -25 33
-15 14 -22 29 -19 38 4 10 -3 24 -17 35 -24 19 -24 19 -31 0 -6 -16 -16 -19
-67 -17 l-59 3 -5 40 c-2 22 0 50 5 63 6 16 4 24 -7 28 -27 11 -16 25 17 22
30 -3 33 -1 39 35 3 20 9 40 12 44 10 10 -13 33 -33 33 -10 0 -20 6 -23 14 -4
10 -28 17 -67 22 -33 4 -63 11 -66 15 -9 15 -77 9 -116 -11z m2332 -149 c0
-13 -15 -14 -38 -2 -9 5 -26 13 -37 17 -17 6 -14 8 15 13 35 6 60 -6 60 -28z
m-1210 -543 c0 -4 -12 -2 -26 4 -23 11 -24 13 -7 19 16 6 32 -5 33 -23z m874
-174 c16 -6 23 -44 8 -44 -8 0 -42 37 -42 45 0 7 15 6 34 -1z m1086 -339 c7
-9 8 -15 2 -15 -5 0 -12 7 -16 15 -3 8 -4 15 -2 15 2 0 9 -7 16 -15z m-1574
-752 c-8 -8 -36 5 -36 17 0 7 6 7 21 0 11 -7 18 -14 15 -17z"/>
<path d="M9428 12890 c-14 -16 -15 -25 -7 -50 17 -48 45 -39 40 13 -1 9 3 17
8 17 17 0 13 27 -5 34 -19 7 -15 9 -36 -14z"/>
<path d="M9315 12653 c-4 -11 -1 -13 11 -9 8 3 22 6 30 6 8 0 14 4 14 9 0 15
-49 9 -55 -6z"/>
<path d="M12548 12413 c-21 -5 -24 -23 -4 -23 8 0 16 7 20 15 3 8 4 14 3 14
-1 -1 -10 -3 -19 -6z"/>
<path d="M10997 12389 c7 -7 15 -10 18 -7 3 3 -2 9 -12 12 -14 6 -15 5 -6 -5z"/>
<path d="M12920 12028 c0 -12 70 -81 77 -75 2 3 -1 15 -7 28 -12 26 -70 65
-70 47z"/>
<path d="M8885 11570 c4 -6 11 -8 16 -5 14 9 11 15 -7 15 -8 0 -12 -5 -9 -10z"/>
<path d="M11191 10674 c0 -11 3 -14 6 -6 3 7 2 16 -1 19 -3 4 -6 -2 -5 -13z"/>
<path d="M10860 10161 c0 -22 15 -35 30 -26 7 4 7 13 0 26 -14 25 -30 25 -30
0z"/>
<path d="M10981 10003 c1 -10 1 -24 0 -31 -1 -14 -46 -36 -76 -36 -17 -1 -20
-8 -20 -50 1 -33 5 -51 14 -54 10 -3 12 2 8 17 -3 11 -1 21 4 21 5 0 9 7 9 15
0 20 13 19 33 -3 18 -19 74 -22 70 -3 -2 6 1 11 6 11 20 0 20 47 0 87 -21 43
-52 59 -48 26z"/>
<path d="M12042 9994 c-8 -8 -12 -24 -9 -35 4 -16 -3 -23 -23 -21 -3 0 -13 4
-22 7 -11 4 -18 3 -18 -4 0 -18 -51 -59 -81 -66 -23 -5 -26 -11 -25 -42 1 -30
-4 -39 -23 -49 -20 -10 -27 -10 -39 2 -8 9 -21 12 -31 8 -9 -4 -26 -7 -38 -8
-12 -1 -25 -4 -29 -8 -12 -13 -24 -9 -18 5 2 7 -6 23 -19 35 -23 21 -24 22
-22 3 1 -11 8 -28 17 -38 8 -10 18 -26 21 -35 4 -10 11 -18 16 -18 6 0 18 -15
27 -32 24 -47 57 -83 77 -84 23 -2 22 13 -3 26 -24 13 -28 52 -5 48 9 -2 23
10 33 27 9 17 20 32 25 33 4 2 5 8 1 13 -15 24 36 -8 90 -57 22 -19 26 -19 77
-6 94 23 109 25 140 12 21 -9 33 -10 41 -2 14 14 -11 79 -34 85 -10 3 -18 14
-18 24 0 11 -11 30 -25 43 -14 13 -25 29 -25 37 0 15 46 18 55 3 3 -5 14 -2
25 7 14 12 16 21 9 35 -5 10 -17 18 -25 18 -12 0 -15 6 -10 23 5 21 2 23 -47
25 -36 1 -56 -3 -65 -14z"/>
<path d="M12320 9840 c0 -5 -13 -10 -28 -10 -16 0 -37 -7 -48 -15 -19 -14 -18
-15 6 -35 32 -25 60 -25 67 0 3 11 9 20 14 20 5 0 6 7 3 15 -4 9 0 15 9 15 8
0 18 -6 20 -12 4 -8 6 -7 6 3 1 9 -6 20 -15 23 -23 9 -34 7 -34 -4z"/>
<path d="M10920 9820 c0 -5 5 -10 10 -10 6 0 10 5 10 10 0 6 -4 10 -10 10 -5
0 -10 -4 -10 -10z"/>
<path d="M7515 9548 c-4 -10 -13 -18 -20 -18 -8 0 -19 -15 -25 -34 -14 -44
-59 -89 -82 -83 -10 3 -16 1 -13 -3 8 -13 -6 -40 -21 -40 -8 0 -14 -3 -14 -8
0 -23 -142 -51 -165 -32 -8 7 -37 13 -64 15 -53 2 -52 3 -75 -68 -4 -14 -10
-16 -25 -8 -24 13 -33 4 -20 -21 8 -14 7 -25 -4 -41 -10 -16 -11 -30 -4 -50 7
-21 6 -36 -4 -53 -7 -13 -9 -27 -6 -31 13 -13 -59 -113 -82 -113 -5 0 -11 -7
-15 -15 -3 -8 -11 -15 -18 -15 -7 0 -19 -9 -25 -19 -15 -23 -68 -51 -98 -51
-14 0 -31 -13 -46 -35 -24 -35 -43 -44 -54 -25 -13 21 -27 -3 -22 -36 3 -19 1
-36 -4 -40 -6 -4 -4 -13 5 -23 9 -10 14 -20 11 -23 -3 -3 3 -21 14 -39 34 -56
43 -83 37 -111 -4 -19 -1 -28 7 -28 7 0 18 -5 24 -11 13 -13 -13 -49 -35 -49
-9 0 -10 -5 -3 -18 5 -10 9 -27 8 -37 -1 -11 4 -20 13 -20 15 0 20 -6 20 -26
0 -5 -4 -8 -9 -5 -5 4 -11 1 -13 -6 -3 -7 -12 -9 -23 -4 -15 5 -16 9 -6 15 9
6 6 10 -11 15 -17 4 -29 -1 -46 -20 -13 -15 -21 -33 -18 -40 5 -13 -13 -19
-38 -15 -5 1 -27 -1 -48 -4 -31 -6 -38 -11 -38 -30 0 -13 5 -27 10 -30 6 -3
10 -16 10 -27 0 -20 -1 -20 -18 -5 -10 10 -23 17 -29 17 -18 0 -63 -49 -63
-68 0 -13 -9 -22 -24 -26 -20 -5 -24 -12 -22 -38 1 -24 -3 -32 -13 -30 -12 3
-12 0 -2 -12 13 -15 12 -31 -5 -128 -5 -33 -9 -36 -24 -28 -16 9 -70 14 -70 8
0 -2 9 -28 21 -58 16 -42 19 -67 15 -105 -12 -95 -18 -115 -33 -115 -20 0 -11
-24 11 -28 10 -2 26 4 35 12 10 9 32 18 49 19 21 1 33 8 36 21 4 16 11 18 45
13 22 -3 44 0 50 6 14 14 24 4 24 -25 0 -23 0 -23 34 9 20 17 42 29 49 26 9
-3 14 2 14 12 0 14 3 15 15 5 16 -13 65 -6 65 10 0 19 29 10 49 -16 21 -27 58
-27 48 -1 -3 7 1 21 8 30 8 11 11 33 8 58 -5 35 -4 39 13 33 16 -5 15 -2 -4
14 -12 12 -21 26 -20 33 2 6 -3 14 -9 16 -7 3 -13 -3 -13 -12 0 -15 -3 -15
-15 -5 -9 7 -14 15 -11 17 7 8 -67 73 -83 73 -14 0 -14 2 -1 11 11 8 12 12 3
16 -7 2 -13 9 -13 15 0 11 55 1 81 -15 20 -13 49 6 49 31 0 13 2 13 18 -1 10
-10 35 -17 55 -17 31 0 37 -4 37 -21 0 -40 18 -58 55 -57 38 1 43 12 20 44 -8
12 -11 24 -8 28 4 3 0 18 -8 33 -11 20 -11 27 -1 30 6 3 12 12 12 21 0 10 9
23 21 30 15 9 19 20 15 35 -4 19 -3 20 7 7 20 -24 75 -60 93 -60 11 0 14 -5
10 -16 -9 -25 4 -84 19 -84 15 0 23 17 20 48 -2 26 7 28 25 7 7 -8 9 -15 4
-15 -4 0 1 -6 11 -14 16 -12 17 -16 6 -30 -10 -12 -10 -20 -3 -29 6 -7 9 -23
5 -35 -6 -25 -1 -27 28 -12 10 6 19 18 19 27 0 9 11 31 25 49 14 18 25 35 25
39 0 3 11 17 25 30 26 23 26 23 8 53 -23 38 -83 89 -83 70 0 -8 -9 -14 -20
-15 -11 -1 -20 2 -20 8 0 5 5 9 11 9 6 0 9 7 5 15 -3 9 0 15 10 15 12 0 15 7
12 25 -4 20 -1 25 16 26 11 1 25 1 29 0 4 -1 22 6 39 15 29 15 30 18 24 60 -5
43 -5 45 34 69 22 14 44 25 50 25 14 0 13 13 -2 28 -9 9 -7 12 9 12 35 0 47
92 16 116 -29 21 -70 17 -76 -7 -4 -16 -10 -20 -24 -14 -10 4 -28 9 -39 10
-32 4 -64 24 -64 39 0 8 -7 17 -16 20 -22 8 -26 8 -19 -4 9 -14 1 -13 -40 7
-19 9 -35 20 -35 25 0 4 -7 8 -15 8 -9 0 -15 9 -15 25 0 13 -8 29 -17 35 -17
9 -17 11 2 27 16 15 20 29 18 73 -1 30 -3 62 -4 70 -5 37 2 59 22 65 24 8 39
-8 39 -41 0 -12 8 -32 18 -44 15 -18 21 -20 45 -11 15 6 41 12 57 13 19 1 32
9 36 21 5 15 12 18 36 13 17 -3 38 -6 47 -6 9 0 22 -13 28 -30 7 -19 20 -31
39 -36 16 -4 36 -12 44 -19 9 -8 22 -10 35 -5 14 6 15 9 4 9 -11 1 -15 12 -16
39 l0 37 13 -32 c9 -21 21 -33 33 -33 11 0 23 -4 26 -10 11 -17 45 -11 45 8 0
12 8 8 29 -17 23 -28 29 -31 34 -17 7 19 37 22 37 4 1 -7 10 -2 21 11 24 29
63 51 93 51 20 1 20 2 3 14 -16 12 -15 14 13 26 22 9 33 22 37 41 3 16 9 29
14 29 4 0 11 17 14 38 4 20 9 46 11 57 4 17 2 16 -18 -6 -32 -36 -86 -43 -143
-18 -36 16 -45 26 -50 52 -9 48 -29 70 -55 62 -13 -4 -19 -12 -16 -21 4 -10
-2 -14 -19 -14 -14 0 -25 -6 -25 -14 0 -16 -46 -10 -57 8 -11 17 -12 36 -2 36
5 0 9 7 9 15 0 21 13 19 35 -5 18 -19 18 -19 49 3 17 12 37 21 43 19 16 -4 17
20 1 36 -18 18 -4 24 28 12 17 -7 30 -7 32 -2 1 5 15 7 29 4 21 -4 25 -2 20
11 -4 10 2 17 17 21 29 7 52 52 30 60 -8 3 -14 10 -14 17 0 6 6 9 13 6 22 -8
57 12 57 33 0 12 4 30 10 40 7 14 5 19 -10 23 -16 4 -22 -2 -30 -31 -5 -21
-10 -42 -10 -48 0 -17 -65 18 -90 47 -18 22 -21 23 -33 8 -7 -10 -31 -19 -52
-20 -36 -4 -40 -2 -39 19 1 20 -8 27 -29 23 -5 -1 -6 3 -3 8 4 5 -2 14 -11 20
-10 5 -14 13 -10 17 4 4 -1 16 -10 27 -10 10 -17 22 -16 26 0 3 -5 17 -12 31
-12 22 -14 23 -20 8z m179 -514 c9 -25 7 -34 -8 -34 -16 0 -25 19 -18 38 6 17
19 15 26 -4z m-538 -950 c-3 -9 -6 -19 -6 -24 0 -8 -28 -21 -57 -26 -7 -1 -13
4 -13 11 0 8 -7 15 -15 17 -13 2 -12 6 5 16 18 11 20 10 20 -10 0 -22 1 -22
25 5 28 30 51 36 41 11z m34 -159 c-7 -8 -16 -12 -21 -9 -16 9 -10 20 12 21
17 2 18 -1 9 -12z"/>
<path d="M7853 8806 c5 -12 1 -16 -16 -16 -21 0 -20 -1 7 -23 20 -16 25 -26
18 -31 -7 -4 -22 4 -36 18 -27 30 -36 32 -36 9 0 -12 -3 -14 -11 -6 -11 11
-39 5 -103 -23 -25 -10 -33 -10 -50 2 -11 8 -30 14 -41 14 -12 0 -27 6 -35 13
-8 6 -7 3 2 -8 31 -37 3 -89 -67 -126 -53 -29 -40 -86 17 -74 24 6 34 1 65
-30 33 -33 41 -36 82 -33 39 2 46 -1 50 -17 6 -32 41 -75 61 -75 11 0 23 -7
28 -15 7 -13 16 -14 59 -5 37 8 57 8 72 1 29 -16 41 -13 41 9 0 24 4 25 37 3
15 -10 41 -16 63 -14 21 1 41 -2 45 -8 4 -8 12 -8 25 -1 42 23 137 -3 147 -39
4 -16 8 -18 22 -9 13 8 25 7 46 -4 22 -12 34 -13 56 -4 16 6 29 14 29 18 0 4
7 8 16 8 11 0 14 6 9 20 -5 16 -2 20 19 20 16 0 30 8 37 22 15 27 22 141 9
133 -6 -4 -13 1 -16 10 -7 18 -55 45 -81 45 -27 0 -136 85 -149 116 -7 17 -14
22 -18 15 -11 -17 -103 -14 -110 4 -3 8 -15 15 -27 15 -12 0 -37 14 -56 30
-33 29 -37 30 -98 24 -52 -5 -69 -3 -91 11 -24 15 -26 16 -21 1z m17 -111 c10
-12 9 -15 -8 -15 -11 0 -25 7 -32 15 -10 12 -9 15 8 15 11 0 25 -7 32 -15z"/>
<path d="M9820 8736 c0 -14 24 -29 33 -19 3 3 3 11 0 19 -7 18 -33 18 -33 0z"/>
<path d="M9770 8696 c0 -7 12 -13 26 -14 16 -1 24 3 22 10 -5 15 -48 18 -48 4z"/>
<path d="M9748 8663 c7 -3 16 -2 19 1 4 3 -2 6 -13 5 -11 0 -14 -3 -6 -6z"/>
<path d="M9662 8620 c-7 -11 -23 -20 -36 -20 -14 0 -28 -4 -31 -10 -5 -9 -32
-17 -107 -34 -16 -4 -28 -10 -28 -14 0 -7 70 -32 92 -32 6 0 24 -11 38 -25 24
-23 27 -24 48 -9 17 12 20 19 13 28 -13 15 -4 26 20 26 18 0 32 43 18 57 -4 4
-9 18 -11 31 -3 23 -3 23 -16 2z"/>
<path d="M7395 8261 c6 -21 -28 -61 -52 -61 -8 0 -16 -7 -19 -15 -4 -8 -10
-12 -15 -9 -15 9 -9 -10 11 -34 12 -15 24 -21 32 -16 7 5 23 7 36 5 12 -1 23
2 23 8 2 15 4 23 14 44 5 12 2 23 -11 33 -18 15 -18 15 0 10 14 -5 17 -2 12
10 -3 8 -6 22 -6 30 0 8 -7 14 -16 14 -11 0 -13 -6 -9 -19z"/>
<path d="M9480 8266 c0 -8 -5 -16 -12 -18 -7 -3 -13 -23 -13 -50 0 -25 -6 -52
-14 -61 -7 -9 -11 -23 -8 -30 7 -19 -57 -21 -72 -3 -7 8 -21 12 -31 9 -21 -6
-26 -18 -10 -28 5 -3 7 -19 3 -36 -5 -28 -4 -30 20 -24 16 4 34 1 51 -10 25
-17 26 -17 26 4 0 16 6 21 24 21 14 0 27 4 31 10 3 5 12 7 19 4 8 -3 16 4 19
15 3 14 13 21 29 21 39 0 52 14 38 40 -6 12 -9 31 -6 43 4 15 -4 29 -29 51
-64 57 -65 58 -65 42z"/>
<path d="M7234 8186 c10 -15 12 -27 6 -31 -17 -10 -11 -25 10 -25 14 0 22 -10
30 -38 12 -46 39 -73 74 -76 14 0 26 -4 26 -8 0 -4 12 -8 28 -10 16 -2 31 -12
37 -25 12 -29 45 -31 45 -3 0 11 4 20 8 20 10 0 3 71 -9 86 -5 6 -7 32 -4 58
5 52 -6 59 -32 20 -9 -15 -35 -34 -57 -44 -40 -17 -42 -17 -71 4 -47 32 -70
56 -56 56 7 0 11 6 9 13 -3 6 -10 12 -15 12 -6 0 -15 3 -19 8 -17 17 -25 5
-10 -17z m111 -146 c3 -5 1 -10 -4 -10 -6 0 -11 5 -11 10 0 6 2 10 4 10 3 0 8
-4 11 -10z m62 -22 c-3 -8 -6 -5 -6 6 -1 11 2 17 5 13 3 -3 4 -12 1 -19z"/>
<path d="M7106 7935 c-3 -8 -1 -15 4 -15 6 0 10 7 10 15 0 8 -2 15 -4 15 -2 0
-6 -7 -10 -15z"/>
<path d="M7025 7920 c-4 -12 -5 -24 -2 -27 3 -2 8 5 12 17 4 12 5 24 2 27 -3
2 -8 -5 -12 -17z"/>
<path d="M6950 7867 c0 -35 20 -49 44 -31 10 7 22 11 26 9 4 -3 15 4 25 15 17
19 17 20 -1 20 -10 1 -36 3 -56 6 -35 5 -38 4 -38 -19z"/>
<path d="M6970 7780 c0 -6 7 -10 15 -10 8 0 15 2 15 4 0 2 -7 6 -15 10 -8 3
-15 1 -15 -4z"/>
<path d="M6735 7630 c-3 -5 -2 -10 4 -10 5 0 13 5 16 10 3 6 2 10 -4 10 -5 0
-13 -4 -16 -10z"/>
<path d="M6082 7547 c-2 -51 -28 -107 -49 -107 -9 0 -13 -6 -10 -14 6 -16 -45
-42 -62 -31 -6 3 -14 -1 -17 -10 -4 -9 -13 -14 -20 -11 -8 3 -11 0 -7 -10 3
-8 13 -12 22 -10 9 3 28 8 44 12 15 3 27 10 27 16 0 19 55 57 74 51 14 -4 18
-1 13 9 -3 8 -1 21 4 29 7 12 10 12 18 1 8 -14 65 -23 88 -15 8 3 10 16 7 36
-4 25 -3 28 5 17 13 -19 14 -9 1 25 -8 21 -13 24 -28 16 -14 -7 -25 -6 -39 4
-12 8 -32 19 -45 24 -24 9 -25 7 -26 -32z m118 -77 c0 -5 -5 -10 -11 -10 -5 0
-7 5 -4 10 3 6 8 10 11 10 2 0 4 -4 4 -10z"/>
<path d="M5990 7341 c0 -17 18 -21 24 -6 3 9 0 15 -9 15 -8 0 -15 -4 -15 -9z"/>
</g>
</svg>
