<?xml version="1.0" standalone="no"?>
<!DOCTYPE svg PUBLIC "-//W3C//DTD SVG 20010904//EN"
 "http://www.w3.org/TR/2001/REC-SVG-20010904/DTD/svg10.dtd">
<svg version="1.0" xmlns="http://www.w3.org/2000/svg"
 width="917.751895pt" height="522.916408pt" viewBox="0 0 917.751895 522.916408"
 preserveAspectRatio="xMidYMid meet">
<metadata>
Created by potrace 1.15, written by Peter Selinger 2001-2017
</metadata>
<g transform="translate(-496.092951,1279.916408) scale(0.100000,-0.100000)"
fill="#222222" stroke="none">
<path d="M9327 12786 c-3 -8 -1 -16 4 -18 6 -2 1 -15 -10 -30 -12 -14 -21 -37
-21 -51 0 -13 -9 -32 -20 -42 -11 -10 -20 -27 -20 -37 0 -18 -6 -19 -67 -15
-60 3 -70 7 -80 28 -7 13 -13 19 -13 12 0 -18 -64 -53 -99 -53 -17 0 -31 -4
-31 -10 0 -5 -10 -10 -22 -10 -16 0 -19 -3 -11 -11 6 -6 9 -17 7 -24 -6 -13
57 -55 83 -55 8 0 35 14 60 30 24 17 47 30 51 30 4 0 21 7 37 16 42 23 95 24
127 2 14 -10 31 -18 37 -18 6 0 11 -12 11 -27 l0 -26 19 22 c12 13 22 18 26
11 3 -5 11 -10 18 -10 6 0 2 7 -11 15 -12 9 -21 26 -21 38 2 29 -10 107 -17
119 -3 5 -13 7 -21 4 -30 -12 -6 19 30 38 40 21 49 46 17 46 -11 0 -25 9 -32
20 -15 24 -24 25 -31 6z"/>
<path d="M8936 12474 c-9 -8 -16 -19 -16 -24 0 -5 -20 -21 -45 -37 -27 -17
-47 -38 -51 -53 -7 -27 -46 -70 -64 -70 -5 0 -10 -7 -10 -16 0 -8 -4 -13 -9
-10 -14 9 -24 -45 -11 -58 8 -8 15 -6 25 8 12 16 15 17 20 4 3 -8 1 -27 -5
-42 -9 -25 -14 -28 -44 -22 -33 6 -69 -15 -48 -28 5 -3 9 -18 10 -35 0 -25 -4
-30 -31 -34 -18 -3 -36 -1 -42 4 -5 5 -19 9 -31 9 -19 0 -23 -6 -26 -37 -3
-33 -7 -39 -33 -44 -16 -4 -25 -7 -18 -8 7 0 10 -8 7 -16 -4 -10 -13 -13 -25
-10 -11 4 -19 2 -19 -4 0 -15 -71 -61 -95 -61 -27 0 -60 -68 -63 -133 -1 -16
-6 -25 -12 -22 -5 3 -10 1 -10 -4 0 -28 -29 -5 -68 54 -23 36 -49 65 -57 65
-8 0 -15 6 -15 13 0 19 -34 57 -52 57 -20 0 -38 21 -38 45 0 12 -9 30 -20 40
-15 14 -17 21 -9 32 6 7 9 13 5 13 -4 0 1 11 9 24 13 19 14 29 5 45 -12 24
-22 28 -14 6 4 -10 0 -15 -10 -15 -9 0 -19 6 -22 14 -3 8 -21 15 -40 16 -19 0
-42 2 -51 2 -10 0 -26 -2 -35 -7 -13 -5 -21 0 -29 19 l-12 26 -28 -26 c-21
-20 -34 -25 -53 -20 -21 5 -26 3 -26 -13 0 -10 -11 -26 -25 -35 -14 -9 -25
-22 -25 -29 0 -11 -24 -31 -42 -36 -4 -1 -19 -12 -33 -25 -20 -19 -24 -28 -17
-47 5 -13 7 -30 5 -36 -8 -23 -31 -14 -42 17 -6 20 -17 30 -30 30 -11 0 -33
14 -49 30 -17 17 -38 30 -47 30 -9 0 -33 11 -53 25 -20 14 -43 25 -50 25 -8 0
-27 9 -43 21 -16 11 -29 17 -29 13 0 -3 -6 -1 -14 5 -13 11 -37 3 -98 -30 -10
-5 -25 -9 -33 -9 -18 0 -19 -14 -4 -43 10 -18 8 -24 -15 -44 -15 -13 -34 -23
-42 -23 -8 0 -14 -10 -14 -26 0 -21 4 -25 20 -21 14 4 20 0 20 -11 0 -13 3
-12 14 3 8 11 12 23 10 27 -3 5 2 8 10 8 18 0 19 -6 18 -101 l0 -66 50 -6 c28
-4 55 -10 62 -15 16 -13 70 -22 95 -15 14 3 21 13 21 29 0 13 6 24 13 24 6 1
22 9 35 20 18 15 21 23 14 37 -11 19 4 63 21 63 19 0 86 -35 91 -47 3 -7 -4
-15 -14 -18 -10 -3 -22 -15 -25 -26 -4 -10 -15 -19 -26 -19 -21 0 -23 -8 -10
-29 6 -10 5 -24 -4 -42 -13 -23 -13 -28 0 -33 19 -7 47 3 39 15 -3 5 -1 9 5 9
5 0 14 -8 20 -17 5 -10 13 -15 16 -11 4 4 -3 23 -15 42 -24 39 -18 45 19 20
13 -9 33 -17 45 -18 13 -1 20 -7 18 -17 -1 -9 9 -28 22 -42 13 -14 21 -28 18
-31 -3 -3 2 -6 10 -6 9 0 21 -14 28 -30 11 -27 10 -33 -8 -53 -19 -20 -20 -28
-12 -57 5 -18 7 -44 4 -57 -4 -13 -1 -30 5 -37 10 -11 8 -16 -8 -21 -12 -3
-21 -11 -21 -16 0 -5 -12 -9 -26 -9 -22 0 -25 -2 -14 -15 7 -8 16 -12 21 -9 5
3 9 0 9 -6 0 -17 -53 -59 -75 -60 -11 0 -35 -16 -52 -35 -18 -19 -38 -35 -46
-35 -14 0 -17 -85 -3 -108 4 -7 2 -12 -6 -12 -40 0 -87 -22 -90 -42 -2 -13
-17 -26 -43 -37 -59 -24 -125 -69 -125 -86 0 -8 -14 -22 -30 -30 -17 -9 -35
-27 -40 -40 -6 -16 -17 -25 -30 -25 -24 0 -83 -59 -76 -76 6 -15 -32 -25 -61
-18 -29 8 -56 -49 -57 -119 -1 -49 -2 -52 -30 -55 -24 -3 -27 -7 -23 -28 3
-18 0 -24 -14 -24 -12 0 -19 -7 -19 -20 0 -24 -41 -28 -60 -5 -16 19 -33 9
-25 -15 3 -10 1 -21 -5 -25 -16 -10 -12 -60 8 -86 34 -48 45 -73 33 -77 -6 -2
-9 -15 -5 -30 5 -24 4 -25 -9 -10 -7 9 -34 23 -59 29 -31 9 -44 17 -41 26 3 7
-2 16 -12 19 -11 5 -15 14 -11 29 4 15 1 25 -8 28 -14 6 -16 30 -3 43 13 13 7
44 -8 44 -20 0 -19 17 1 28 13 7 14 13 5 29 -8 17 -6 24 10 39 16 15 19 26 14
53 -8 41 -29 60 -66 61 -17 0 -33 9 -43 25 -18 27 -21 65 -6 65 5 0 7 7 4 15
-4 8 -2 15 3 15 5 0 17 16 26 35 17 35 17 35 -2 25 -16 -8 -23 -5 -40 19 -12
16 -21 33 -21 39 0 21 -43 21 -61 1 -12 -14 -24 -19 -38 -14 -24 7 -81 -28
-81 -50 0 -8 -8 -12 -20 -10 -11 2 -24 -3 -28 -12 -8 -13 -10 -13 -15 1 -4 9
-1 25 5 36 9 14 9 22 -1 34 -11 13 -11 17 3 22 14 6 14 9 -5 25 -12 11 -30 19
-40 19 -10 0 -21 5 -24 10 -3 6 -23 10 -44 10 -28 0 -44 7 -66 30 -16 17 -37
30 -47 30 -10 0 -18 8 -19 18 -1 14 -2 14 -8 -3 -30 -83 -32 -86 -65 -85 -62
4 -70 1 -56 -15 10 -13 9 -15 -9 -15 -21 0 -25 -8 -21 -45 2 -16 0 -17 -14 -6
-13 11 -19 11 -31 1 -8 -7 -15 -19 -15 -27 0 -7 -6 -16 -14 -19 -10 -4 -11
-15 -5 -47 7 -39 6 -44 -24 -69 -18 -15 -44 -28 -58 -28 -43 0 -60 -29 -60
-104 0 -56 -3 -66 -17 -66 -17 0 -42 -44 -46 -83 -4 -29 -21 -40 -44 -28 -24
13 -54 15 -35 3 9 -5 10 -17 4 -37 -8 -31 -12 -32 -45 -19 -16 6 -17 5 -7 -15
7 -12 9 -26 6 -31 -6 -10 41 -60 56 -60 4 0 3 -13 -2 -30 -11 -30 -65 -67 -71
-48 -6 18 -100 -13 -106 -35 -4 -16 -11 -18 -41 -13 -20 3 -53 1 -73 -3 -33
-8 -37 -6 -42 15 -5 17 -13 24 -31 24 -15 0 -25 6 -25 15 0 8 -13 21 -30 30
-18 9 -30 23 -30 35 0 11 -2 20 -4 20 -2 0 -20 7 -39 15 l-36 15 15 -42 c8
-23 23 -52 33 -63 10 -11 21 -27 24 -37 3 -9 18 -22 33 -30 33 -15 66 -69 50
-80 -7 -4 -4 -13 7 -26 11 -12 13 -22 7 -28 -7 -7 -4 -16 10 -29 11 -10 20
-25 20 -33 0 -9 8 -24 17 -34 13 -14 14 -21 5 -30 -7 -7 -12 -38 -12 -69 0
-34 -5 -59 -11 -61 -7 -2 2 -19 20 -38 17 -19 31 -40 31 -47 0 -6 6 -16 14
-20 8 -4 15 -11 15 -16 0 -4 17 -21 36 -38 33 -29 35 -30 35 -9 0 30 32 22 40
-10 9 -34 2 -50 -21 -50 -17 0 -18 -3 -8 -21 6 -13 8 -38 5 -61 -6 -36 -5 -38
13 -28 13 7 18 16 14 27 -4 11 -3 14 5 9 7 -4 12 -2 12 4 0 17 71 3 102 -20
16 -12 39 -23 51 -25 34 -5 67 -17 67 -24 1 -3 10 -17 21 -30 18 -23 20 -23
33 -6 10 14 17 15 34 6 11 -6 32 -11 45 -11 14 0 30 -7 37 -15 16 -20 39 -19
62 2 16 14 23 15 38 5 25 -15 80 -16 80 -1 0 6 9 9 20 6 16 -4 21 1 26 29 3
19 9 33 12 30 9 -10 42 64 42 95 0 16 4 28 9 24 17 -10 21 12 6 25 -33 27 -8
34 57 16 19 -6 30 -18 39 -44 15 -47 27 -62 50 -62 11 0 19 -7 19 -17 0 -10 7
-27 15 -37 8 -10 13 -22 10 -25 -6 -11 29 -49 53 -56 17 -5 22 -2 22 11 0 13
3 14 14 5 29 -24 61 10 34 37 -18 18 -1 27 28 13 20 -9 29 -9 41 1 11 9 16 9
23 -1 4 -7 27 -14 51 -16 59 -3 61 -4 55 -13 -3 -5 8 -16 25 -26 16 -9 38 -34
49 -55 22 -43 58 -60 77 -35 6 9 16 13 22 10 20 -13 108 24 120 50 7 15 19 24
34 24 25 0 59 33 49 47 -4 4 17 -14 46 -42 45 -43 51 -54 46 -77 -7 -33 20
-40 29 -8 4 16 11 19 36 14 24 -5 39 -1 65 20 26 20 40 24 58 18 13 -4 48 -5
78 -2 54 5 55 5 54 36 -2 32 -2 32 47 29 27 -1 64 -12 85 -24 33 -20 38 -20
53 -7 16 14 19 13 31 -19 8 -19 18 -35 23 -35 5 0 7 -6 4 -14 -3 -7 3 -27 13
-44 10 -16 20 -40 22 -53 1 -13 10 -24 18 -24 8 0 14 -8 14 -18 -1 -9 2 -14 7
-11 5 3 7 17 3 32 -5 25 -4 26 9 9 11 -14 16 -15 20 -5 3 7 8 -6 12 -30 4 -23
11 -45 16 -48 4 -2 6 -11 2 -19 -3 -10 1 -15 13 -15 9 0 14 -3 11 -7 -4 -3 -3
-11 2 -17 5 -6 12 -28 16 -49 6 -32 5 -36 -9 -31 -12 5 -16 0 -16 -16 0 -20
-4 -22 -30 -16 -19 3 -30 1 -30 -5 0 -6 -6 -9 -14 -6 -8 3 -21 -2 -29 -11 -13
-15 -14 -20 -1 -36 18 -25 19 -76 1 -76 -8 0 -22 9 -32 20 -10 11 -14 20 -9
20 5 0 3 4 -5 9 -8 5 -27 8 -42 6 -29 -4 -55 17 -44 35 3 5 8 19 10 31 4 18 1
20 -23 15 -15 -4 -34 -16 -44 -26 -19 -24 -36 -26 -44 -5 -5 13 -10 12 -37 -2
-18 -9 -46 -18 -63 -19 -28 -2 -32 1 -38 27 -8 41 -27 27 -26 -19 1 -20 -2
-47 -5 -59 -6 -18 -3 -23 10 -23 13 0 16 6 11 25 -5 18 -2 25 9 25 18 0 18 1
3 -40 -10 -31 -9 -35 23 -61 22 -19 29 -29 18 -29 -9 0 -24 -18 -35 -40 -14
-29 -25 -40 -41 -40 -13 0 -23 -4 -23 -9 0 -5 -8 -11 -17 -15 -10 -3 -25 -9
-33 -14 -45 -26 -63 -32 -81 -27 -18 6 -19 2 -15 -49 4 -53 -7 -75 -20 -41 -8
20 -33 2 -33 -23 0 -31 -6 -57 -14 -63 -19 -14 7 -85 45 -123 36 -36 39 -43
33 -78 -5 -25 -3 -38 4 -38 6 0 16 -11 21 -25 5 -13 23 -31 41 -40 20 -11 28
-12 23 -4 -5 9 -2 10 10 6 19 -7 56 12 56 29 0 14 43 54 58 54 7 0 12 -6 12
-14 0 -18 20 -25 53 -19 20 4 27 12 29 37 2 22 8 31 21 30 11 -1 17 5 17 18 0
12 12 32 26 45 26 24 27 38 9 88 -4 11 -3 15 2 9 4 -5 17 -10 29 -10 15 0 19
5 16 21 -2 15 4 24 22 33 18 8 26 19 26 36 0 14 8 30 18 36 16 9 16 11 -4 28
-20 17 -41 67 -23 56 5 -3 9 0 9 6 0 6 4 9 8 6 4 -3 17 17 27 45 21 52 22 54
44 40 15 -10 81 16 81 31 0 4 9 8 21 8 24 0 49 52 49 101 0 23 4 30 15 26 8
-4 17 -2 20 3 4 6 15 10 25 10 18 0 47 36 42 53 -1 4 3 7 8 7 6 0 10 10 10 21
0 19 4 21 31 15 16 -3 37 -13 45 -21 18 -17 28 -20 19 -5 -4 6 -2 17 4 24 8 9
8 22 2 38 -9 23 -7 25 15 20 13 -2 24 -8 24 -13 0 -5 5 -9 10 -9 6 0 10 6 10
13 0 7 9 19 19 26 20 15 20 15 -13 79 -14 26 -15 36 -6 47 6 8 9 19 5 25 -4 6
5 10 22 10 15 0 43 9 62 21 25 15 36 17 41 9 6 -9 9 -9 14 -1 4 6 12 9 17 6 5
-4 9 1 9 10 0 9 5 13 10 10 6 -4 10 6 10 22 l1 28 20 -27 c11 -15 37 -37 57
-49 20 -12 49 -35 63 -52 18 -20 43 -35 79 -44 29 -7 66 -20 84 -28 25 -11 44
-12 96 -4 36 6 77 11 93 11 23 1 27 5 27 29 0 16 3 29 8 29 19 -1 42 -30 42
-54 0 -16 6 -26 14 -26 8 0 23 -10 33 -23 10 -13 22 -23 26 -23 8 1 47 -79 47
-96 0 -16 -32 -37 -58 -38 -20 0 -21 -3 -12 -20 8 -15 8 -20 -1 -20 -7 0 -10
-3 -6 -6 11 -12 67 21 67 39 0 13 5 16 24 11 24 -6 73 18 89 43 4 7 15 13 23
13 11 0 13 6 9 20 -3 11 -2 20 4 20 5 0 13 9 16 21 l7 21 15 -22 c10 -14 23
-20 41 -18 22 2 28 -2 30 -22 2 -14 9 -31 14 -37 15 -18 38 -16 38 3 0 8 5 12
10 9 6 -3 10 -1 10 6 0 7 10 9 30 6 16 -4 32 -2 35 3 10 15 99 12 121 -5 10
-8 27 -15 38 -15 16 0 18 -5 12 -39 -5 -36 -3 -41 30 -68 55 -43 94 -84 89
-92 -2 -4 15 -17 38 -28 23 -12 63 -40 90 -64 47 -41 47 -43 41 -89 -5 -38 -3
-48 10 -53 10 -4 16 -18 16 -36 0 -38 44 -70 72 -52 10 6 29 9 42 5 19 -4 25
-1 30 20 6 26 7 26 36 11 20 -11 42 -13 70 -9 56 9 114 -12 145 -52 14 -18 25
-40 25 -48 0 -10 9 -16 25 -16 13 0 53 -20 89 -45 50 -35 68 -55 83 -91 17
-44 19 -45 58 -43 22 1 48 1 57 0 21 -1 80 -79 72 -93 -10 -15 27 -50 41 -38
8 7 29 1 66 -19 49 -27 57 -29 92 -18 20 7 40 20 43 29 3 9 13 19 22 22 23 8
77 -8 78 -22 1 -7 2 -16 3 -22 0 -5 8 -7 16 -4 10 4 15 0 15 -12 1 -18 1 -18
15 0 14 18 16 18 50 -18 19 -21 35 -46 35 -57 0 -15 7 -19 39 -19 22 0 43 -4
46 -10 10 -16 43 -12 53 6 6 10 25 18 50 20 23 1 46 5 51 8 12 8 71 -51 71
-70 0 -8 7 -17 15 -21 14 -5 14 -8 1 -27 -17 -27 -23 -66 -13 -83 4 -6 3 -14
-3 -18 -15 -9 17 -65 39 -65 10 0 29 13 43 29 15 16 31 30 38 33 8 2 8 11 1
31 -18 46 -22 87 -10 87 19 0 49 44 36 52 -8 5 -6 8 6 8 10 0 20 -7 23 -15 4
-10 14 -13 33 -9 39 10 42 13 30 36 -8 15 -13 17 -19 8 -6 -9 -9 -9 -15 0 -4
7 -30 11 -64 10 -97 -3 -93 -4 -86 33 8 39 29 57 68 57 23 0 27 3 22 19 -3 10
1 23 9 30 17 14 11 37 -17 69 -11 12 -15 22 -9 22 17 0 15 35 -3 50 -8 7 -15
27 -15 44 0 36 -8 50 -32 59 -12 4 -18 17 -18 40 0 30 -5 36 -45 56 -24 12
-47 26 -50 32 -4 5 -14 9 -23 9 -12 0 -13 -3 -4 -12 26 -26 10 -27 -28 -2
l-39 26 -45 -30 c-25 -17 -48 -27 -51 -23 -2 5 -16 9 -29 9 -14 0 -43 9 -66
21 -49 26 -59 26 -75 4 -11 -15 -18 -16 -47 -6 -18 6 -50 14 -71 18 -21 3 -47
17 -62 33 -32 34 -32 44 0 32 36 -14 75 6 47 24 -5 3 -10 29 -12 58 -1 29 -4
64 -5 78 -1 15 -10 29 -23 35 -12 5 -22 18 -22 27 0 30 -1 32 -15 48 -18 20
-8 63 12 56 9 -4 13 -1 9 6 -3 7 -9 21 -12 31 -5 13 -13 17 -29 13 -19 -5 -25
0 -39 34 -9 22 -16 42 -16 45 0 3 20 2 44 -1 27 -4 46 -2 50 5 4 6 16 11 27
11 11 0 22 7 26 16 7 20 -25 80 -51 93 -20 9 -20 10 3 10 21 1 23 4 16 37 -5
30 -4 36 8 31 18 -7 37 11 30 29 -7 18 18 42 39 36 12 -3 18 1 18 11 0 9 12
18 29 22 24 5 30 13 38 48 5 24 14 41 21 40 7 -2 12 2 12 8 0 7 10 -1 21 -15
16 -20 24 -24 30 -15 4 8 -2 20 -17 31 -17 14 -23 29 -23 56 0 20 -3 62 -6 93
-8 63 5 99 34 99 26 0 39 103 16 126 -10 10 -14 32 -13 61 1 33 -3 49 -16 58
-13 10 -15 21 -10 54 4 27 3 41 -4 41 -6 0 -9 9 -7 19 3 15 -4 20 -31 23 -20
2 -34 0 -34 -7 0 -19 -73 -4 -106 21 -17 13 -38 24 -46 24 -8 0 -23 9 -33 20
-10 11 -24 20 -32 20 -8 0 -13 12 -13 33 0 17 -3 41 -6 52 -4 15 3 25 26 38
17 10 28 22 26 26 -3 4 17 6 44 3 42 -4 51 -2 56 14 4 11 14 27 22 36 11 14
12 21 3 32 -9 11 -7 15 8 19 14 3 17 11 14 31 -4 19 -1 26 10 26 13 0 14 6 6
32 -5 18 -9 34 -9 35 0 2 11 -3 25 -9 31 -14 35 -10 40 36 3 38 -10 47 -34 24
-10 -11 -11 -7 -5 17 4 17 13 47 20 67 10 30 10 37 -1 41 -7 3 -17 1 -22 -4
-14 -14 -72 19 -85 47 -9 18 -14 21 -25 13 -9 -8 -17 -8 -26 0 -8 6 -17 8 -20
4 -4 -3 -13 0 -22 7 -17 14 -95 6 -106 -11 -4 -7 -17 -5 -38 5 -31 17 -36 13
-32 -22 3 -22 -32 -70 -55 -75 -12 -2 -30 1 -41 7 -10 5 -26 12 -35 13 -10 2
-26 4 -35 6 -10 1 -24 6 -32 11 -8 5 -20 1 -34 -12 -18 -18 -19 -23 -6 -38 12
-16 12 -17 -1 -9 -8 4 -30 19 -48 32 -30 22 -39 24 -93 18 -42 -5 -62 -12 -67
-24 -11 -30 -32 -45 -45 -32 -9 10 -8 14 5 22 22 12 12 48 -21 76 -14 12 -20
22 -13 23 6 0 12 9 12 21 0 12 8 23 20 26 11 3 20 10 21 17 0 6 2 25 2 41 2
22 7 29 18 27 18 -3 33 23 23 39 -3 6 4 7 19 4 l25 -7 -5 67 -4 67 23 -16 c12
-9 37 -16 56 -16 28 0 31 2 23 18 -6 12 -5 39 4 82 19 85 19 80 -14 80 -17 0
-32 4 -35 8 -3 5 -19 7 -36 4 -18 -2 -30 0 -30 7 0 19 -28 12 -35 -8 -3 -12
-12 -17 -23 -14 -12 3 -27 -9 -47 -36 -17 -22 -34 -39 -40 -37 -5 1 -15 -4
-21 -13 -19 -25 -126 -22 -156 5 -27 24 -65 36 -74 23 -3 -5 -10 -6 -16 -3
-19 12 -76 15 -83 4 -16 -25 -138 5 -160 40 -4 6 -13 5 -25 -2 -15 -10 -22
-10 -31 -1 -7 7 -20 8 -33 4 -35 -12 -60 -5 -119 32 -30 20 -73 41 -94 46 -29
8 -52 28 -95 80 -55 65 -70 90 -48 76 10 -6 7 3 -22 65 -9 19 -19 42 -22 51
-2 9 -27 27 -55 40 -29 14 -50 31 -51 40 0 9 -6 22 -14 28 -11 9 -15 8 -20 -4
-8 -21 -41 -11 -72 20 -17 17 -25 43 -34 106 l-12 83 29 21 c47 34 63 54 63
79 0 14 5 28 10 31 13 8 -6 45 -24 45 -8 0 -18 6 -24 13 -8 10 -6 17 8 27 14
10 16 18 9 31 -13 24 -11 29 5 23 11 -4 14 2 14 26 -1 32 -47 90 -71 90 -7 0
-5 6 4 13 26 20 51 87 44 119 -6 26 -5 28 25 24 17 -2 37 -9 43 -15 8 -8 14
-8 24 0 10 9 13 8 13 -1 0 -9 7 -7 20 5 11 10 18 20 16 23 -3 2 2 11 10 20 14
14 14 17 -5 31 -16 13 -19 24 -15 58 4 34 0 46 -19 67 -13 14 -29 26 -35 26
-5 0 -8 9 -5 20 6 24 0 25 -21 4z m-976 -710 c0 -8 -4 -14 -10 -14 -5 0 -13
-1 -17 -2 -8 -4 -14 33 -7 44 8 12 34 -11 34 -28z m-272 -560 c-3 -2 -13 3
-24 12 -10 8 -13 13 -6 9 6 -3 12 0 12 7 0 8 5 6 11 -5 6 -10 9 -20 7 -23z
m260 -396 c-2 -6 -11 -13 -19 -14 -7 -2 -24 -6 -36 -10 -17 -4 -23 -2 -23 8 0
22 10 28 48 28 21 0 32 -4 30 -12z m-1708 -28 c0 -5 -5 -10 -11 -10 -5 0 -7 5
-4 10 3 6 8 10 11 10 2 0 4 -4 4 -10z m80 6 c0 -2 -12 -11 -26 -21 -22 -14
-28 -15 -35 -4 -6 10 -2 16 14 21 27 7 47 9 47 4z m3379 -182 c21 -24 22 -28
7 -42 -10 -11 -16 -12 -16 -4 0 7 -7 12 -15 12 -10 0 -15 10 -15 30 0 37 10
38 39 4z m18 -80 c-3 -3 -12 -4 -19 -1 -8 3 -5 6 6 6 11 1 17 -2 13 -5z
m-2893 -990 c9 -8 16 -20 16 -25 0 -5 -9 0 -20 11 -19 19 -25 30 -16 30 3 0
12 -7 20 -16z m245 -24 c8 -25 7 -30 -6 -30 -9 0 -14 3 -10 6 3 3 2 17 -3 30
-6 14 -6 24 -1 24 5 0 14 -13 20 -30z m571 -830 c0 -5 -4 -10 -9 -10 -6 0 -13
5 -16 10 -3 6 1 10 9 10 9 0 16 -4 16 -10z m-325 -70 c3 -5 1 -10 -4 -10 -6 0
-11 5 -11 10 0 6 2 10 4 10 3 0 8 -4 11 -10z"/>
<path d="M6985 11806 c-19 -14 -19 -15 -2 -22 10 -3 28 -2 40 4 17 8 18 11 5
11 -9 1 -18 6 -20 11 -2 7 -11 5 -23 -4z"/>
<path d="M7047 11784 c-32 -29 -26 -45 15 -37 26 5 48 33 27 33 -6 0 -9 7 -5
15 8 22 -6 18 -37 -11z"/>
<path d="M11000 11662 c-8 -3 -23 -16 -33 -29 -10 -12 -25 -23 -33 -23 -8 0
-14 -5 -14 -11 0 -7 -12 -10 -30 -7 -16 3 -30 1 -30 -4 0 -4 9 -8 20 -8 13 0
17 -5 14 -14 -4 -12 -12 -12 -37 -4 -18 6 -35 15 -38 20 -3 4 -56 10 -117 12
-104 3 -112 2 -112 -15 0 -11 -7 -19 -15 -19 -8 0 -15 -6 -15 -14 0 -17 -22
-26 -61 -26 -16 0 -38 -6 -49 -12 -15 -10 -24 -10 -38 -1 -12 7 -24 8 -33 2
-8 -5 -25 -9 -38 -9 -20 0 -22 -2 -11 -16 11 -12 10 -18 -3 -31 -14 -14 -14
-19 1 -49 8 -19 22 -34 30 -34 10 0 13 -7 9 -21 -3 -12 2 -38 13 -59 12 -24
15 -41 9 -51 -5 -8 -9 -26 -9 -41 0 -20 6 -27 23 -30 17 -2 23 -11 25 -35 3
-31 1 -33 -29 -33 -31 0 -32 -1 -13 -14 14 -11 19 -26 18 -60 -1 -33 3 -46 13
-46 7 0 16 -7 19 -15 5 -12 10 -10 26 10 22 29 44 32 69 9 13 -12 22 -13 38
-5 28 15 39 14 45 -6 3 -10 17 -23 30 -29 20 -9 26 -8 37 7 8 11 26 19 41 19
18 0 28 5 28 15 0 8 5 15 10 15 6 0 10 6 10 14 0 9 7 12 20 9 25 -7 50 13 50
38 0 11 6 19 13 19 15 0 11 57 -5 78 -7 8 -7 12 2 12 8 0 10 8 6 23 -5 21 -2
22 32 20 20 -2 54 5 75 14 32 15 42 27 59 73 12 30 20 68 20 84 -1 16 7 41 18
56 l19 27 -25 22 c-17 15 -30 19 -42 13 -9 -5 -28 -7 -42 -6 -14 1 -31 -3 -37
-8 -10 -8 -13 -6 -13 6 0 9 5 16 11 16 5 0 7 4 4 10 -3 5 5 15 18 21 16 7 27
23 31 41 3 16 15 37 26 46 21 18 15 42 -10 34z"/>
<path d="M6201 11034 c0 -11 3 -14 6 -6 3 7 2 16 -1 19 -3 4 -6 -2 -5 -13z"/>
<path d="M11824 10855 c3 -8 2 -15 -2 -15 -5 0 -14 -16 -21 -35 -12 -35 -19
-39 -54 -35 -16 1 -17 -2 -8 -19 12 -22 -1 -71 -19 -71 -19 0 -25 -2 -45 -16
-11 -8 -26 -14 -33 -14 -7 0 -20 -7 -28 -15 -19 -18 -55 -19 -74 -2 -12 10
-12 9 -2 -4 9 -12 9 -18 0 -27 -17 -17 22 -66 53 -69 53 -5 69 -10 87 -26 21
-20 53 -22 69 -6 8 8 15 6 24 -9 15 -24 39 -18 39 10 0 17 5 20 30 14 67 -13
198 38 236 92 9 13 21 18 34 15 11 -3 26 -1 33 5 7 6 23 9 35 5 21 -5 22 -2
22 46 l0 51 -35 0 c-29 0 -36 4 -41 26 -6 24 -10 26 -44 20 -29 -5 -39 -2 -44
10 -5 13 -9 14 -20 5 -19 -16 -66 6 -66 31 0 11 -4 16 -10 13 -5 -3 -10 -1
-10 5 0 6 -10 8 -23 5 -15 -4 -28 -1 -36 9 -18 21 -55 22 -47 1z"/>
<path d="M11097 10819 c-8 -11 -13 -29 -10 -40 7 -24 -15 -79 -31 -79 -8 0
-11 -11 -8 -30 3 -24 1 -30 -13 -30 -14 0 -16 -6 -11 -31 3 -17 6 -44 6 -59 0
-35 19 -43 56 -24 16 9 39 13 51 11 13 -2 29 3 39 14 9 10 29 21 45 24 20 5
29 13 29 26 0 21 20 25 37 8 13 -13 33 -4 33 17 0 8 5 14 11 14 6 0 9 -9 6
-20 -6 -24 9 -26 62 -8 69 22 111 42 112 52 3 28 -5 51 -32 94 -16 26 -27 52
-25 59 3 7 1 15 -4 18 -6 4 -10 -1 -10 -9 0 -19 -30 -36 -65 -36 -14 0 -35 -5
-46 -10 -15 -8 -21 -7 -25 4 -4 11 -12 13 -29 6 -37 -14 -80 -4 -108 24 -31
31 -51 33 -70 5z"/>
<path d="M11480 10600 c0 -5 5 -10 11 -10 5 0 7 5 4 10 -3 6 -8 10 -11 10 -2
0 -4 -4 -4 -10z"/>
<path d="M13390 10152 c-5 -13 -8 -28 -4 -33 6 -10 -48 -60 -77 -71 -10 -4
-21 -3 -24 2 -10 16 -25 11 -19 -5 6 -15 -10 -19 -68 -18 -13 0 -18 -9 -18
-31 0 -40 -12 -58 -33 -50 -13 5 -17 0 -17 -19 0 -14 -4 -28 -9 -31 -4 -3 -11
-19 -14 -35 -4 -18 -14 -32 -27 -36 -11 -3 -20 -13 -20 -21 0 -8 -4 -14 -8
-14 -5 0 -15 -18 -22 -40 -7 -22 -19 -40 -27 -40 -7 0 -33 -20 -59 -45 -25
-25 -49 -45 -53 -45 -4 0 -20 -13 -36 -30 -16 -16 -36 -30 -45 -30 -19 0 -50
-30 -50 -48 0 -7 -9 -12 -20 -12 -11 0 -20 7 -20 15 0 33 -19 13 -25 -27 -10
-60 -32 -90 -59 -82 -18 6 -19 5 -8 -9 11 -13 10 -18 -10 -28 -13 -7 -30 -12
-38 -10 -8 2 -12 0 -8 -4 10 -11 -20 -38 -33 -30 -27 17 -74 11 -96 -12 -13
-13 -23 -29 -23 -35 0 -6 -13 -8 -34 -4 -23 5 -39 2 -48 -8 -10 -9 -20 -11
-30 -5 -14 8 -15 4 -6 -29 20 -78 20 -82 9 -82 -8 0 -9 -5 -3 -17 8 -13 4 -21
-14 -36 -13 -10 -24 -24 -24 -32 0 -7 -9 -15 -20 -18 -12 -3 -20 -14 -20 -26
0 -12 -4 -21 -9 -21 -5 0 -21 -25 -37 -55 -16 -30 -35 -55 -41 -55 -7 0 -13
-4 -13 -9 0 -6 18 -9 41 -9 30 0 39 4 35 14 -4 11 1 13 22 8 15 -4 29 -11 30
-16 5 -12 30 -10 61 7 27 13 30 13 51 -10 13 -14 32 -25 42 -25 11 0 39 -11
64 -25 52 -29 74 -32 74 -8 0 14 2 14 21 -2 17 -16 24 -17 52 -7 29 11 33 10
54 -17 30 -38 91 -56 85 -24 -3 11 1 14 13 9 16 -6 65 33 65 53 0 5 14 3 30
-5 32 -16 35 -25 21 -52 -5 -9 -12 -41 -16 -69 -5 -43 -4 -53 8 -53 22 0 50
-37 44 -59 -2 -10 -1 -24 3 -31 9 -14 100 -22 100 -8 0 5 5 6 10 3 6 -3 10 0
10 8 0 8 16 43 35 77 27 49 33 66 24 76 -9 11 -8 14 4 14 8 0 20 7 27 15 7 8
25 15 40 15 29 0 40 18 40 69 l0 24 23 -20 c12 -11 45 -28 72 -38 28 -10 64
-27 80 -37 37 -22 77 -24 69 -4 -4 10 3 16 23 18 20 2 27 8 25 21 -3 19 8 23
24 8 5 -6 16 -4 28 4 17 13 17 15 3 21 -9 3 -23 19 -31 36 -14 27 -14 33 0 59
18 35 10 103 -11 95 -17 -6 -49 29 -40 44 4 6 -3 22 -15 35 -15 16 -20 33 -18
56 3 32 5 34 39 32 30 -2 38 2 44 20 4 12 6 27 5 32 -2 10 -2 16 2 50 1 8 8
17 15 19 8 3 12 2 8 -3 -6 -11 42 -51 61 -51 7 0 20 -12 29 -27 23 -44 38 -60
64 -68 22 -7 23 -5 16 24 -4 20 -2 37 5 46 6 8 9 19 5 25 -3 6 -8 28 -10 50
-4 40 -3 40 31 40 28 0 34 4 32 18 -3 19 31 25 45 7 5 -5 6 2 3 18 -6 25 -4
27 29 27 26 0 35 4 36 18 0 9 2 31 3 47 2 17 0 34 -3 40 -14 25 -6 44 20 50
15 4 34 14 41 23 11 14 11 15 -6 9 -22 -9 -66 17 -66 38 0 8 -12 21 -27 29
-16 8 -22 15 -14 16 8 0 11 6 7 15 -4 10 3 19 19 27 30 14 38 34 24 60 -9 18
-9 20 4 15 9 -3 21 1 27 9 7 8 19 14 27 14 8 0 11 5 8 10 -3 6 4 10 16 10 21
0 21 0 -4 20 -14 11 -32 20 -40 20 -8 0 -20 6 -26 14 -10 12 -9 14 6 10 10 -3
28 4 41 16 12 12 38 22 56 23 26 2 32 5 24 15 -8 9 -5 12 11 12 14 0 21 6 21
19 0 10 7 24 15 31 9 7 15 23 13 34 -2 12 6 28 17 37 16 14 17 19 7 32 -12 14
-16 14 -42 -1 -16 -9 -26 -20 -24 -24 3 -5 -2 -8 -10 -8 -19 0 -20 -11 -3 -29
10 -11 7 -12 -14 -7 -19 4 -29 1 -32 -8 -4 -9 -14 -12 -25 -9 -11 2 -23 0 -26
-6 -5 -7 -15 -7 -31 -1 -18 7 -25 6 -25 -3 0 -8 -2 -9 -8 -1 -4 6 -28 20 -53
31 -38 17 -47 18 -55 6 -7 -11 -14 -9 -36 12 -15 14 -36 25 -47 25 -11 0 -22
9 -26 19 -7 23 -39 33 -55 17 -8 -8 -13 -7 -19 3 -5 8 -18 12 -30 8 -16 -4
-21 0 -21 13 0 14 -6 17 -27 14 -34 -5 -38 -6 -85 -2 -31 3 -39 -1 -48 -20z
m705 -102 c3 -5 1 -10 -4 -10 -6 0 -11 5 -11 10 0 6 2 10 4 10 3 0 8 -4 11
-10z m-295 -100 c0 -5 -7 -10 -15 -10 -8 0 -15 5 -15 10 0 6 7 10 15 10 8 0
15 -4 15 -10z m163 -5 c-3 -13 -53 -20 -53 -7 0 15 13 23 35 20 11 -2 19 -7
18 -13z m-1053 -530 c7 -9 8 -15 2 -15 -5 0 -12 7 -16 15 -3 8 -4 15 -2 15 2
0 9 -7 16 -15z m840 -30 c0 -23 -2 -24 -20 -13 -31 19 -33 38 -5 38 20 0 25
-5 25 -25z m-242 -78 c2 -11 -3 -17 -16 -17 -23 0 -37 26 -19 34 19 7 32 1 35
-17z m-988 -147 c0 -5 -7 -10 -15 -10 -8 0 -15 5 -15 10 0 6 7 10 15 10 8 0
15 -4 15 -10z m25 -30 c3 -5 1 -10 -4 -10 -6 0 -11 5 -11 10 0 6 2 10 4 10 3
0 8 -4 11 -10z"/>
<path d="M13901 9356 c-8 -9 -20 -15 -27 -12 -15 6 -14 -15 1 -26 16 -12 25
-9 25 6 0 8 5 16 12 18 6 2 9 10 7 17 -4 10 -8 9 -18 -3z"/>
<path d="M5730 9265 c-7 -8 -19 -15 -26 -15 -38 0 14 -44 55 -48 27 -2 32 1
27 14 -3 8 -6 21 -6 27 0 7 -9 18 -19 24 -15 10 -22 9 -31 -2z"/>
<path d="M5680 9216 c0 -2 7 -6 15 -10 8 -3 15 -1 15 4 0 6 -7 10 -15 10 -8 0
-15 -2 -15 -4z"/>
<path d="M7150 9210 c0 -5 5 -10 11 -10 5 0 7 5 4 10 -3 6 -8 10 -11 10 -2 0
-4 -4 -4 -10z"/>
<path d="M11057 9179 c-4 -13 -7 -37 -7 -52 0 -38 -25 -84 -50 -92 -17 -5 -19
-12 -14 -48 4 -23 10 -46 15 -51 5 -6 9 -24 9 -41 0 -17 5 -36 12 -43 9 -9 9
-12 0 -12 -17 0 12 -55 33 -63 9 -4 15 -19 15 -42 0 -19 4 -35 9 -35 5 0 22
-5 38 -12 15 -6 44 -13 63 -15 57 -4 74 -9 78 -21 2 -7 -4 -15 -12 -18 -13 -5
-14 -9 -5 -20 6 -8 8 -25 5 -38 -3 -14 -2 -27 2 -30 5 -3 8 -28 7 -56 -1 -50
7 -71 20 -50 3 5 14 10 24 10 10 0 27 17 40 40 30 54 64 71 121 60 61 -12 60
-12 60 6 0 11 -5 14 -16 10 -14 -5 -15 -4 -5 8 9 11 10 20 2 35 -8 13 -8 22
-1 26 6 4 8 11 4 16 -3 5 -3 22 1 38 5 23 11 29 31 27 23 -1 36 -16 14 -16
-11 0 -9 -45 3 -56 4 -4 1 -14 -5 -22 -10 -11 -9 -16 2 -23 38 -22 43 -30 46
-66 2 -21 3 -41 3 -44 1 -3 14 -6 29 -7 15 0 34 -2 41 -4 7 -2 18 6 24 17 7
11 16 23 21 26 5 4 6 11 2 17 -3 6 0 13 6 16 9 3 7 10 -8 23 -19 17 -19 21 -7
52 13 30 12 36 -4 54 -16 18 -16 20 -1 14 13 -4 16 -2 11 11 -15 42 -48 58
-80 39 -13 -8 -42 1 -65 21 -15 13 -18 13 -18 1 -1 -8 -7 1 -15 19 -13 29 -17
32 -36 22 -25 -14 -27 -12 -44 36 -8 25 -10 46 -4 61 5 13 5 23 1 24 -4 0 4 5
17 10 19 8 21 12 11 24 -7 8 -26 15 -42 15 -26 0 -29 -2 -18 -15 23 -27 5 -45
-39 -40 -22 3 -43 1 -46 -5 -3 -5 -17 -10 -31 -10 -13 0 -24 -5 -24 -12 0 -6
-9 -3 -20 7 -11 10 -20 23 -20 30 0 6 -26 29 -57 51 -32 21 -60 41 -63 44 -3
3 -17 13 -32 23 -26 16 -39 47 -19 47 14 0 22 31 11 45 -5 6 -7 14 -4 18 3 3
2 13 -4 22 -8 15 -10 14 -15 -6z m105 -484 c11 -20 11 -20 -11 0 -13 11 -28
29 -33 40 -11 20 -11 20 11 0 13 -11 28 -29 33 -40z"/>
<path d="M10900 9130 c0 -5 7 -10 16 -10 8 0 12 5 9 10 -3 6 -10 10 -16 10 -5
0 -9 -4 -9 -10z"/>
<path d="M13626 9130 c-19 -6 -18 -7 3 -13 20 -5 22 -10 17 -34 -4 -16 -3 -23
2 -16 6 9 14 6 32 -12 70 -70 89 -85 96 -74 8 13 -52 78 -83 90 -13 5 -23 17
-23 28 0 25 -21 40 -44 31z"/>
<path d="M13760 9110 c0 -5 5 -10 10 -10 6 0 10 5 10 10 0 6 -4 10 -10 10 -5
0 -10 -4 -10 -10z"/>
<path d="M13775 9068 c-8 -19 2 -41 14 -33 5 2 23 -9 41 -25 36 -32 73 -43 50
-15 -7 8 -17 15 -23 15 -5 0 -25 17 -43 38 -27 31 -33 34 -39 20z"/>
<path d="M13795 9010 c3 -5 11 -10 16 -10 6 0 7 5 4 10 -3 6 -11 10 -16 10 -6
0 -7 -4 -4 -10z"/>
<path d="M13721 8949 c-29 -12 -50 -38 -51 -63 0 -12 -5 -16 -15 -12 -10 3
-15 -1 -15 -11 0 -9 -10 -27 -22 -40 l-22 -23 27 -28 c24 -25 26 -32 17 -62
-13 -45 -13 -45 5 -30 8 7 15 23 15 36 0 13 5 24 11 24 7 0 9 12 4 36 -5 30
-4 36 8 31 12 -5 13 0 4 28 -8 26 -7 38 3 49 7 9 16 14 20 11 18 -11 42 8 37
31 -2 13 1 25 7 28 6 2 7 4 1 5 -5 0 -21 -5 -34 -10z"/>
<path d="M11938 8849 c-9 -9 -14 -20 -11 -23 4 -3 -2 -14 -11 -25 -12 -13 -14
-21 -6 -26 16 -10 -19 -34 -49 -35 -13 0 -30 -8 -37 -17 -11 -14 -13 -15 -14
-3 0 10 -5 7 -16 -8 -8 -12 -26 -22 -40 -22 -13 0 -24 -5 -24 -11 0 -6 6 -9
13 -6 6 2 22 -4 34 -15 17 -16 25 -18 42 -9 18 10 21 8 27 -14 7 -28 8 -29 35
-15 23 13 25 33 4 50 -20 16 -19 50 1 50 8 0 12 5 9 10 -10 16 4 12 34 -9 35
-25 71 -18 71 14 0 13 7 25 15 29 8 3 12 12 9 19 -3 8 2 17 12 21 16 6 16 8
-2 21 -10 8 -25 15 -33 15 -8 0 -22 6 -30 13 -14 12 -19 11 -33 -4z"/>
<path d="M10775 8840 c-3 -5 -1 -10 4 -10 6 0 11 5 11 10 0 6 -2 10 -4 10 -3
0 -8 -4 -11 -10z"/>
<path d="M12060 8841 c0 -17 18 -21 24 -6 3 9 0 15 -9 15 -8 0 -15 -4 -15 -9z"/>
<path d="M11910 8700 c0 -5 7 -10 16 -10 8 0 12 5 9 10 -3 6 -10 10 -16 10 -5
0 -9 -4 -9 -10z"/>
<path d="M13591 8659 c5 -11 14 -17 20 -14 15 10 10 22 -11 28 -17 4 -18 2 -9
-14z"/>
<path d="M13570 8615 c0 -8 -9 -15 -20 -15 -19 0 -20 -4 -14 -37 9 -50 10 -51
40 -21 21 21 25 31 19 57 -7 32 -25 43 -25 16z"/>
<path d="M7056 8565 c-11 -29 -7 -37 10 -20 11 11 13 20 7 26 -7 7 -12 5 -17
-6z"/>
<path d="M13600 8495 c0 -8 4 -15 10 -15 5 0 7 7 4 15 -4 8 -8 15 -10 15 -2 0
-4 -7 -4 -15z"/>
<path d="M13523 8485 c-3 -9 -3 -18 -1 -21 3 -3 8 4 11 16 6 23 -1 27 -10 5z"/>
<path d="M13586 8455 c-3 -9 0 -15 9 -15 8 0 15 7 15 15 0 8 -4 15 -9 15 -5 0
-11 -7 -15 -15z"/>
<path d="M13576 8373 c-6 -14 -5 -15 5 -6 7 7 10 15 7 18 -3 3 -9 -2 -12 -12z"/>
</g>
</svg>
