<svg version="1" xmlns="http://www.w3.org/2000/svg" width="1223.669" height="697.222" viewBox="0 0 917.752 522.916"><g fill="#222"><path d="M436.607 1.316c-.3.8-.1 1.6.4 1.8.6.2.1 1.5-1 3-1.2 1.4-2.1 3.7-2.1 5.1 0 1.3-.9 3.2-2 4.2s-2 2.7-2 3.7c0 1.8-.6 1.9-6.7 1.5-6-.3-7-.7-8-2.8-.7-1.3-1.3-1.9-1.3-1.2 0 1.8-6.4 5.3-9.9 5.3-1.7 0-3.1.4-3.1 1 0 .5-1 1-2.2 1-1.6 0-1.9.3-1.1 1.1.6.6.9 1.7.7 2.4-.6 1.3 5.7 5.5 8.3 5.5.8 0 3.5-1.4 6-3 2.4-1.7 4.7-3 5.1-3 .4 0 2.1-.7 3.7-1.6 4.2-2.3 9.5-2.4 12.7-.2 1.4 1 3.1 1.8 3.7 1.8.6 0 1.1 1.2 1.1 2.7v2.6l1.9-2.2c1.2-1.3 2.2-1.8 2.6-1.1.3.5 1.1 1 1.8 1 .6 0 .2-.7-1.1-1.5-1.2-.9-2.1-2.6-2.1-3.8.2-2.9-1-10.7-1.7-11.9-.3-.5-1.3-.7-2.1-.4-3 1.2-.6-1.9 3-3.8 4-2.1 4.9-4.6 1.7-4.6-1.1 0-2.5-.9-3.2-2-1.5-2.4-2.4-2.5-3.1-.6zM397.507 32.516c-.9.8-1.6 1.9-1.6 2.4s-2 2.1-4.5 3.7c-2.7 1.7-4.7 3.8-5.1 5.3-.7 2.7-4.6 7-6.4 7-.5 0-1 .7-1 1.6 0 .8-.4 1.3-.9 1-1.4-.9-2.4 4.5-1.1 5.8.8.8 1.5.6 2.5-.8 1.2-1.6 1.5-1.7 2-.4.3.8.1 2.7-.5 4.2-.9 2.5-1.4 2.8-4.4 2.2-3.3-.6-6.9 1.5-4.8 2.8.5.3.9 1.8 1 3.5 0 2.5-.4 3-3.1 3.4-1.8.3-3.6.1-4.2-.4-.5-.5-1.9-.9-3.1-.9-1.9 0-2.3.6-2.6 3.7-.3 3.3-.7 3.9-3.3 4.4-1.6.4-2.5.7-1.8.8.7 0 1 .8.7 1.6-.4 1-1.3 1.3-2.5 1-1.1-.4-1.9-.2-1.9.4 0 1.5-7.1 6.1-9.5 6.1-2.7 0-6 6.8-6.3 13.3-.1 1.6-.6 2.5-1.2 2.2-.5-.3-1-.1-1 .4 0 2.8-2.9.5-6.8-5.4-2.3-3.6-4.9-6.5-5.7-6.5-.8 0-1.5-.6-1.5-1.3 0-1.9-3.4-5.7-5.2-5.7-2 0-3.8-2.1-3.8-4.5 0-1.2-.9-3-2-4-1.5-1.4-1.7-2.1-.9-3.2.6-.7.9-1.3.5-1.3s.1-1.1.9-2.4c1.3-1.9 1.4-2.9.5-4.5-1.2-2.4-2.2-2.8-1.4-.6.4 1 0 1.5-1 1.5-.9 0-1.9-.6-2.2-1.4-.3-.8-2.1-1.5-4-1.6-1.9 0-4.2-.2-5.1-.2-1 0-2.6.2-3.5.7-1.3.5-2.1 0-2.9-1.9l-1.2-2.6-2.8 2.6c-2.1 2-3.4 2.5-5.3 2-2.1-.5-2.6-.3-2.6 1.3 0 1-1.1 2.6-2.5 3.5-1.4.9-2.5 2.2-2.5 2.9 0 1.1-2.4 3.1-4.2 3.6-.4.1-1.9 1.2-3.3 2.5-2 1.9-2.4 2.8-1.7 4.7.5 1.3.7 3 .5 3.6-.8 2.3-3.1 1.4-4.2-1.7-.6-2-1.7-3-3-3-1.1 0-3.3-1.4-4.9-3-1.7-1.7-3.8-3-4.7-3-.9 0-3.3-1.1-5.3-2.5s-4.3-2.5-5-2.5c-.8 0-2.7-.9-4.3-2.1-1.6-1.1-2.9-1.7-2.9-1.3 0 .3-.6.1-1.4-.5-1.3-1.1-3.7-.3-9.8 3-1 .5-2.5.9-3.3.9-1.8 0-1.9 1.4-.4 4.3 1 1.8.8 2.4-1.5 4.4-1.5 1.3-3.4 2.3-4.2 2.3-.8 0-1.4 1-1.4 2.6 0 2.1.4 2.5 2 2.1 1.4-.4 2 0 2 1.1 0 1.3.3 1.2 1.4-.3.8-1.1 1.2-2.3 1-2.7-.3-.5.2-.8 1-.8 1.8 0 1.9.6 1.8 10.1v6.6l5 .6c2.8.4 5.5 1 6.2 1.5 1.6 1.3 7 2.2 9.5 1.5 1.4-.3 2.1-1.3 2.1-2.9 0-1.3.6-2.4 1.3-2.4.6-.1 2.2-.9 3.5-2 1.8-1.5 2.1-2.3 1.4-3.7-1.1-1.9.4-6.3 2.1-6.3 1.9 0 8.6 3.5 9.1 4.7.3.7-.4 1.5-1.4 1.8-1 .3-2.2 1.5-2.5 2.6-.4 1-1.5 1.9-2.6 1.9-2.1 0-2.3.8-1 2.9.6 1 .5 2.4-.4 4.2-1.3 2.3-1.3 2.8 0 3.3 1.9.7 4.7-.3 3.9-1.5-.3-.5-.1-.9.5-.9.5 0 1.4.8 2 1.7.5 1 1.3 1.5 1.6 1.1.4-.4-.3-2.3-1.5-4.2-2.4-3.9-1.8-4.5 1.9-2 1.3.9 3.3 1.7 4.5 1.8 1.3.1 2 .7 1.8 1.7-.1.9.9 2.8 2.2 4.2 1.3 1.4 2.1 2.8 1.8 3.1-.3.3.2.6 1 .6.9 0 2.1 1.4 2.8 3 1.1 2.7 1 3.3-.8 5.3-1.9 2-2 2.8-1.2 5.7.5 1.8.7 4.4.4 5.7-.4 1.3-.1 3 .5 3.7 1 1.1.8 1.6-.8 2.1-1.2.3-2.1 1.1-2.1 1.6s-1.2.9-2.6.9c-2.2 0-2.5.2-1.4 1.5.7.8 1.6 1.2 2.1.9.5-.3.9 0 .9.6 0 1.7-5.3 5.9-7.5 6-1.1 0-3.5 1.6-5.2 3.5-1.8 1.9-3.8 3.5-4.6 3.5-1.4 0-1.7 8.5-.3 10.8.4.7.2 1.2-.6 1.2-4 0-8.7 2.2-9 4.2-.2 1.3-1.7 2.6-4.3 3.7-5.9 2.4-12.5 6.9-12.5 8.6 0 .8-1.4 2.2-3 3-1.7.9-3.5 2.7-4 4-.6 1.6-1.7 2.5-3 2.5-2.4 0-8.3 5.9-7.6 7.6.6 1.5-3.2 2.5-6.1 1.8-2.9-.8-5.6 4.9-5.7 11.9-.1 4.9-.2 5.2-3 5.5-2.4.3-2.7.7-2.3 2.8.3 1.8 0 2.4-1.4 2.4-1.2 0-1.9.7-1.9 2 0 2.4-4.1 2.8-6 .5-1.6-1.9-3.3-.9-2.5 1.5.3 1 .1 2.1-.5 2.5-1.6 1-1.2 6 .8 8.6 3.4 4.8 4.5 7.3 3.3 7.7-.6.2-.9 1.5-.5 3 .5 2.4.4 2.5-.9 1-.7-.9-3.4-2.3-5.9-2.9-3.1-.9-4.4-1.7-4.1-2.6.3-.7-.2-1.6-1.2-1.9-1.1-.5-1.5-1.4-1.1-2.9.4-1.5.1-2.5-.8-2.8-1.4-.6-1.6-3-.3-4.3 1.3-1.3.7-4.4-.8-4.4-2 0-1.9-1.7.1-2.8 1.3-.7 1.4-1.3.5-2.9-.8-1.7-.6-2.4 1-3.9s1.9-2.6 1.4-5.3c-.8-4.1-2.9-6-6.6-6.1-1.7 0-3.3-.9-4.3-2.5-1.8-2.7-2.1-6.5-.6-6.5.5 0 .7-.7.4-1.5-.4-.8-.2-1.5.3-1.5s1.7-1.6 2.6-3.5c1.7-3.5 1.7-3.5-.2-2.5-1.6.8-2.3.5-4-1.9-1.2-1.6-2.1-3.3-2.1-3.9 0-2.1-4.3-2.1-6.1-.1-1.2 1.4-2.4 1.9-3.8 1.4-2.4-.7-8.1 2.8-8.1 5 0 .8-.8 1.2-2 1-1.1-.2-2.4.3-2.8 1.2-.8 1.3-1 1.3-1.5-.1-.4-.9-.1-2.5.5-3.6.9-1.4.9-2.2-.1-3.4-1.1-1.3-1.1-1.7.3-2.2 1.4-.6 1.4-.9-.5-2.5-1.2-1.1-3-1.9-4-1.9s-2.1-.5-2.4-1c-.3-.6-2.3-1-4.4-1-2.8 0-4.4-.7-6.6-3-1.6-1.7-3.7-3-4.7-3s-1.8-.8-1.9-1.8c-.1-1.4-.2-1.4-.8.3-3 8.3-3.2 8.6-6.5 8.5-6.2-.4-7-.1-5.6 1.5 1 1.3.9 1.5-.9 1.5-2.1 0-2.5.8-2.1 4.5.2 1.6 0 1.7-1.4.6-1.3-1.1-1.9-1.1-3.1-.1-.8.7-1.5 1.9-1.5 2.7 0 .7-.6 1.6-1.4 1.9-1 .4-1.1 1.5-.5 4.7.7 3.9.6 4.4-2.4 6.9-1.8 1.5-4.4 2.8-5.8 2.8-4.3 0-6 2.9-6 10.4 0 5.6-.3 6.6-1.7 6.6-1.7 0-4.2 4.4-4.6 8.3-.4 2.9-2.1 4-4.4 2.8-2.4-1.3-5.4-1.5-3.5-.3.9.5 1 1.7.4 3.7-.8 3.1-1.2 3.2-4.5 1.9-1.6-.6-1.7-.5-.7 1.5.7 1.2.9 2.6.6 3.1-.6 1 4.1 6 5.6 6 .4 0 .3 1.3-.2 3-1.1 3-6.5 6.7-7.1 4.8-.6-1.8-10 1.3-10.6 3.5-.4 1.6-1.1 1.8-4.1 1.3-2-.3-5.3-.1-7.3.3-3.3.8-3.7.6-4.2-1.5-.5-1.7-1.3-2.4-3.1-2.4-1.5 0-2.5-.6-2.5-1.5 0-.8-1.3-2.1-3-3-1.8-.9-3-2.3-3-3.5 0-1.1-.2-2-.4-2s-2-.7-3.9-1.5l-3.6-1.5 1.5 4.2c.8 2.3 2.3 5.2 3.3 6.3 1 1.1 2.1 2.7 2.4 3.7.3.9 1.8 2.2 3.3 3 3.3 1.5 6.6 6.9 5 8-.7.4-.4 1.3.7 2.6 1.1 1.2 1.3 2.2.7 2.8-.7.7-.4 1.6 1 2.9 1.1 1 2 2.5 2 3.3 0 .9.8 2.4 1.7 3.4 1.3 1.4 1.4 2.1.5 3-.7.7-1.2 3.8-1.2 6.9 0 3.4-.5 5.9-1.1 6.1-.7.2.2 1.9 2 3.8 1.7 1.9 3.1 4 3.1 4.7 0 .6.6 1.6 1.4 2 .8.4 1.5 1.1 1.5 1.6 0 .4 1.7 2.1 3.6 3.8 3.3 2.9 3.5 3 3.5.9 0-3 3.2-2.2 4 1 .9 3.4.2 5-2.1 5-1.7 0-1.8.3-.8 2.1.6 1.3.8 3.8.5 6.1-.6 3.6-.5 3.8 1.3 2.8 1.3-.7 1.8-1.6 1.4-2.7-.4-1.1-.3-1.4.5-.9.7.4 1.2.2 1.2-.4 0-1.7 7.1-.3 10.2 2 1.6 1.2 3.9 2.3 5.1 2.5 3.4.5 6.7 1.7 6.7 2.4.1.3 1 1.7 2.1 3 1.8 2.3 2 2.3 3.3.6 1-1.4 1.7-1.5 3.4-.6 1.1.6 3.2 1.1 4.5 1.1 1.4 0 3 .7 3.7 1.5 1.6 2 3.9 1.9 6.2-.2 1.6-1.4 2.3-1.5 3.8-.5 2.5 1.5 8 1.6 8 .1 0-.6.9-.9 2-.6 1.6.4 2.1-.1 2.6-2.9.3-1.9.9-3.3 1.2-3 .9 1 4.2-6.4 4.2-9.5 0-1.6.4-2.8.9-2.4 1.7 1 2.1-1.2.6-2.5-3.3-2.7-.8-3.4 5.7-1.6 1.9.6 3 1.8 3.9 4.4 1.5 4.7 2.7 6.2 5 6.2 1.1 0 1.9.7 1.9 1.7s.7 2.7 1.5 3.7 1.3 2.2 1 2.5c-.6 1.1 2.9 4.9 5.3 5.6 1.7.5 2.2.2 2.2-1.1s.3-1.4 1.4-.5c2.9 2.4 6.1-1 3.4-3.7-1.8-1.8-.1-2.7 2.8-1.3 2 .9 2.9.9 4.1-.1 1.1-.9 1.6-.9 2.3.1.4.7 2.7 1.4 5.1 1.6 5.9.3 6.1.4 5.5 1.3-.3.5.8 1.6 2.5 2.6 1.6.9 3.8 3.4 4.9 5.5 2.2 4.3 5.8 6 7.7 3.5.6-.9 1.6-1.3 2.2-1 2 1.3 10.8-2.4 12-5 .7-1.5 1.9-2.4 3.4-2.4 2.5 0 5.9-3.3 4.9-4.7-.4-.4 1.7 1.4 4.6 4.2 4.5 4.3 5.1 5.4 4.6 7.7-.7 3.3 2 4 2.9.8.4-1.6 1.1-1.9 3.6-1.4 2.4.5 3.9.1 6.5-2 2.6-2 4-2.4 5.8-1.8 1.3.4 4.8.5 7.8.2 5.4-.5 5.5-.5 5.4-3.6-.2-3.2-.2-3.2 4.7-2.9 2.7.1 6.4 1.2 8.5 2.4 3.3 2 3.8 2 5.3.7 1.6-1.4 1.9-1.3 3.1 1.9.8 1.9 1.8 3.5 2.3 3.5.5 0 .7.6.4 1.4-.3.7.3 2.7 1.3 4.4 1 1.6 2 4 2.2 5.3.1 1.3 1 2.4 1.8 2.4s1.4.8 1.4 1.8c-.1.9.2 1.4.7 1.1.5-.3.7-1.7.3-3.2-.5-2.5-.4-2.6.9-.9 1.1 1.4 1.6 1.5 2 .5.3-.7.8.6 1.2 3 .4 2.3 1.1 4.5 1.6 4.8.4.2.6 1.1.2 1.9-.3 1 .1 1.5 1.3 1.5.9 0 1.4.3 1.1.7-.4.3-.3 1.1.2 1.7.5.6 1.2 2.8 1.6 4.9.6 3.2.5 3.6-.9 3.1-1.2-.5-1.6 0-1.6 1.6 0 2-.4 2.2-3 1.6-1.9-.3-3-.1-3 .5s-.6.9-1.4.6c-.8-.3-2.1.2-2.9 1.1-1.3 1.5-1.4 2-.1 3.6 1.8 2.5 1.9 7.6.1 7.6-.8 0-2.2-.9-3.2-2s-1.4-2-.9-2c.5 0 .3-.4-.5-.9s-2.7-.8-4.2-.6c-2.9.4-5.5-1.7-4.4-3.5.3-.5.8-1.9 1-3.1.4-1.8.1-2-2.3-1.5-1.5.4-3.4 1.6-4.4 2.6-1.9 2.4-3.6 2.6-4.4.5-.5-1.3-1-1.2-3.7.2-1.8.9-4.6 1.8-6.3 1.9-2.8.2-3.2-.1-3.8-2.7-.8-4.1-2.7-2.7-2.6 1.9.1 2-.2 4.7-.5 5.9-.6 1.8-.3 2.3 1 2.3s1.6-.6 1.1-2.5c-.5-1.8-.2-2.5.9-2.5 1.8 0 1.8-.1.3 4-1 3.1-.9 3.5 2.3 6.1 2.2 1.9 2.9 2.9 1.8 2.9-.9 0-2.4 1.8-3.5 4-1.4 2.9-2.5 4-4.1 4-1.3 0-2.3.4-2.3.9s-.8 1.1-1.7 1.5c-1 .3-2.5.9-3.3 1.4-4.5 2.6-6.3 3.2-8.1 2.7-1.8-.6-1.9-.2-1.5 4.9.4 5.3-.7 7.5-2 4.1-.8-2-3.3-.2-3.3 2.3 0 3.1-.6 5.7-1.4 6.3-1.9 1.4.7 8.5 4.5 12.3 3.6 3.6 3.9 4.3 3.3 7.8-.5 2.5-.3 3.8.4 3.8.6 0 1.6 1.1 2.1 2.5.5 1.3 2.3 3.1 4.1 4 2 1.1 2.8 1.2 2.3.4-.5-.9-.2-1 1-.6 1.9.7 5.6-1.2 5.6-2.9 0-1.4 4.3-5.4 5.8-5.4.7 0 1.2.6 1.2 1.4 0 1.8 2 2.5 5.3 1.9 2-.4 2.7-1.2 2.9-3.7.2-2.2.8-3.1 2.1-3 1.1.1 1.7-.5 1.7-1.8 0-1.2 1.2-3.2 2.6-4.5 2.6-2.4 2.7-3.8.9-8.8-.4-1.1-.3-1.5.2-.9.4.5 1.7 1 2.9 1 1.5 0 1.9-.5 1.6-2.1-.2-1.5.4-2.4 2.2-3.3 1.8-.8 2.6-1.9 2.6-3.6 0-1.4.8-3 1.8-3.6 1.6-.9 1.6-1.1-.4-2.8-2-1.7-4.1-6.7-2.3-5.6.5.3.9 0 .9-.6s.4-.9.8-.6c.4.3 1.7-1.7 2.7-4.5 2.1-5.2 2.2-5.4 4.4-4 1.5 1 8.1-1.6 8.1-3.1 0-.4.9-.8 2.1-.8 2.4 0 4.9-5.2 4.9-10.1 0-2.3.4-3 1.5-2.6.8.4 1.7.2 2-.3.4-.6 1.5-1 2.5-1 1.8 0 4.7-3.6 4.2-5.3-.1-.4.3-.7.8-.7.6 0 1-1 1-2.1 0-1.9.4-2.1 3.1-1.5 1.6.3 3.7 1.3 4.5 2.1 1.8 1.7 2.8 2 1.9.5-.4-.6-.2-1.7.4-2.4.8-.9.8-2.2.2-3.8-.9-2.3-.7-2.5 1.5-2 1.3.2 2.4.8 2.4 1.3s.5.9 1 .9c.6 0 1-.6 1-1.3 0-.7.9-1.9 1.9-2.6 2-1.5 2-1.5-1.3-7.9-1.4-2.6-1.5-3.6-.6-4.7.6-.8.9-1.9.5-2.5-.4-.6.5-1 2.2-1 1.5 0 4.3-.9 6.2-2.1 2.5-1.5 3.6-1.7 4.1-.9.6.9.9.9 1.4.1.4-.6 1.2-.9 1.7-.6.5.4.9-.1.9-1s.5-1.3 1-1c.6.4 1-.6 1-2.2l.1-2.8 2 2.7c1.1 1.5 3.7 3.7 5.7 4.9 2 1.2 4.9 3.5 6.3 5.2 1.8 2 4.3 3.5 7.9 4.4 2.9.7 6.6 2 8.4 2.8 2.5 1.1 4.4 1.2 9.6.4 3.6-.6 7.7-1.1 9.3-1.1 2.3-.1 2.7-.5 2.7-2.9 0-1.6.3-2.9.8-2.9 1.9.1 4.2 3 4.2 5.4 0 1.6.6 2.6 1.4 2.6.8 0 2.3 1 3.3 2.3 1 1.3 2.2 2.3 2.6 2.3.8-.1 4.7 7.9 4.7 9.6 0 1.6-3.2 3.7-5.8 3.8-2 0-2.1.3-1.2 2 .8 1.5.8 2-.1 2-.7 0-1 .3-.6.6 1.1 1.2 6.7-2.1 6.7-3.9 0-1.3.5-1.6 2.4-1.1 2.4.6 7.3-1.8 8.9-4.3.4-.7 1.5-1.3 2.3-1.3 1.1 0 1.3-.6.9-2-.3-1.1-.2-2 .4-2 .5 0 1.3-.9 1.6-2.1l.7-2.1 1.5 2.2c1 1.4 2.3 2 4.1 1.8 2.2-.2 2.8.2 3 2.2.2 1.4.9 3.1 1.4 3.7 1.5 1.8 3.8 1.6 3.8-.3 0-.8.5-1.2 1-.9.6.3 1 .1 1-.6s1-.9 3-.6c1.6.4 3.2.2 3.5-.3 1-1.5 9.9-1.2 12.1.5 1 .8 2.7 1.5 3.8 1.5 1.6 0 1.8.5 1.2 3.9-.5 3.6-.3 4.1 3 6.8 5.5 4.3 9.4 8.4 8.9 9.2-.2.4 1.5 1.7 3.8 2.8 2.3 1.2 6.3 4 9 6.4 4.7 4.1 4.7 4.3 4.1 8.9-.5 3.8-.3 4.8 1 5.3 1 .4 1.6 1.8 1.6 3.6 0 3.8 4.4 7 7.2 5.2 1-.6 2.9-.9 4.2-.5 1.9.4 2.5.1 3-2 .6-2.6.7-2.6 3.6-1.1 2 1.1 4.2 1.3 7 .9 5.6-.9 11.4 1.2 14.5 5.2 1.4 1.8 2.5 4 2.5 4.8 0 1 .9 1.6 2.5 1.6 1.3 0 5.3 2 8.9 4.5 5 3.5 6.8 5.5 8.3 9.1 1.7 4.4 1.9 4.5 5.8 4.3 2.2-.1 4.8-.1 5.7 0 2.1.1 8 7.9 7.2 9.3-1 1.5 2.7 5 4.1 3.8.8-.7 2.9-.1 6.6 1.9 4.9 2.7 5.7 2.9 9.2 1.8 2-.7 4-2 4.3-2.9.3-.9 1.3-1.9 2.2-2.2 2.3-.8 7.7.8 7.8 2.2.1.7.2 1.6.3 2.2 0 .5.8.7 1.6.4 1-.4 1.5 0 1.5 1.2.1 1.8.1 1.8 1.5 0s1.6-1.8 5 1.8c1.9 2.1 3.5 4.6 3.5 5.7 0 1.5.7 1.9 3.9 1.9 2.2 0 4.3.4 4.6 1 1 1.6 4.3 1.2 5.3-.6.6-1 2.5-1.8 5-2 2.3-.1 4.6-.5 5.1-.8 1.2-.8 7.1 5.1 7.1 7 0 .8.7 1.7 1.5 2.1 1.4.5 1.4.8.1 2.7-1.7 2.7-2.3 6.6-1.3 8.3.4.6.3 1.4-.3 1.8-1.5.9 1.7 6.5 3.9 6.5 1 0 2.9-1.3 4.3-2.9 1.5-1.6 3.1-3 3.8-3.3.8-.2.8-1.1.1-3.1-1.8-4.6-2.2-8.7-1-8.7 1.9 0 4.9-4.4 3.6-5.2-.8-.5-.6-.8.6-.8 1 0 2 .7 2.3 1.5.4 1 1.4 1.3 3.3.9 3.9-1 4.2-1.3 3-3.6-.8-1.5-1.3-1.7-1.9-.8-.6.9-.9.9-1.5 0-.4-.7-3-1.1-6.4-1-9.7.3-9.3.4-8.6-3.3.8-3.9 2.9-5.7 6.8-5.7 2.3 0 2.7-.3 2.2-1.9-.3-1 .1-2.3.9-3 1.7-1.4 1.1-3.7-1.7-6.9-1.1-1.2-1.5-2.2-.9-2.2 1.7 0 1.5-3.5-.3-5-.8-.7-1.5-2.7-1.5-4.4 0-3.6-.8-5-3.2-5.9-1.2-.4-1.8-1.7-1.8-4 0-3-.5-3.6-4.5-5.6-2.4-1.2-4.7-2.6-5-3.2-.4-.5-1.4-.9-2.3-.9-1.2 0-1.3.3-.4 1.2 2.6 2.6 1 2.7-2.8.2l-3.9-2.6-4.5 3c-2.5 1.7-4.8 2.7-5.1 2.3-.2-.5-1.6-.9-2.9-.9-1.4 0-4.3-.9-6.6-2.1-4.9-2.6-5.9-2.6-7.5-.4-1.1 1.5-1.8 1.6-4.7.6-1.8-.6-5-1.4-7.1-1.8-2.1-.3-4.7-1.7-6.2-3.3-3.2-3.4-3.2-4.4 0-3.2 3.6 1.4 7.5-.6 4.7-2.4-.5-.3-1-2.9-1.2-5.8-.1-2.9-.4-6.4-.5-7.8-.1-1.5-1-2.9-2.3-3.5-1.2-.5-2.2-1.8-2.2-2.7 0-3-.1-3.2-1.5-4.8-1.8-2-.8-6.3 1.2-5.6.9.4 1.3.1.9-.6-.3-.7-.9-2.1-1.2-3.1-.5-1.3-1.3-1.7-2.9-1.3-1.9.5-2.5 0-3.9-3.4-.9-2.2-1.6-4.2-1.6-4.5 0-.3 2-.2 4.4.1 2.7.4 4.6.2 5-.5.4-.6 1.6-1.1 2.7-1.1s2.2-.7 2.6-1.6c.7-2-2.5-8-5.1-9.3-2-.9-2-1 .3-1 2.1-.1 2.3-.4 1.6-3.7-.5-3-.4-3.6.8-3.1 1.8.7 3.7-1.1 3-2.9-.7-1.8 1.8-4.2 3.9-3.6 1.2.3 1.8-.1 1.8-1.1 0-.9 1.2-1.8 2.9-2.2 2.4-.5 3-1.3 3.8-4.8.5-2.4 1.4-4.1 2.1-4 .7.2 1.2-.2 1.2-.8 0-.7 1 .1 2.1 1.5 1.6 2 2.4 2.4 3 1.5.4-.8-.2-2-1.7-3.1-1.7-1.4-2.3-2.9-2.3-5.6 0-2-.3-6.2-.6-9.3-.8-6.3.5-9.9 3.4-9.9 2.6 0 3.9-10.3 1.6-12.6-1-1-1.4-3.2-1.3-6.1.1-3.3-.3-4.9-1.6-5.8-1.3-1-1.5-2.1-1-5.4.4-2.7.3-4.1-.4-4.1-.6 0-.9-.9-.7-1.9.3-1.5-.4-2-3.1-2.3-2-.2-3.4 0-3.4.7 0 1.9-7.3.4-10.6-2.1-1.7-1.3-3.8-2.4-4.6-2.4-.8 0-2.3-.9-3.3-2s-2.4-2-3.2-2c-.8 0-1.3-1.2-1.3-3.3 0-1.7-.3-4.1-.6-5.2-.4-1.5.3-2.5 2.6-3.8 1.7-1 2.8-2.2 2.6-2.6-.3-.4 1.7-.6 4.4-.3 4.2.4 5.1.2 5.6-1.4.4-1.1 1.4-2.7 2.2-3.6 1.1-1.4 1.2-2.1.3-3.2-.9-1.1-.7-1.5.8-1.9 1.4-.3 1.7-1.1 1.4-3.1-.4-1.9-.1-2.6 1-2.6 1.3 0 1.4-.6.6-3.2-.5-1.8-.9-3.4-.9-3.5 0-.2 1.1.3 2.5.9 3.1 1.4 3.5 1 4-3.6.3-3.8-1-4.7-3.4-2.4-1 1.1-1.1.7-.5-1.7.4-1.7 1.3-4.7 2-6.7 1-3 1-3.7-.1-4.1-.7-.3-1.7-.1-2.2.4-1.4 1.4-7.2-1.9-8.5-4.7-.9-1.8-1.4-2.1-2.5-1.3-.9.8-1.7.8-2.6 0-.8-.6-1.7-.8-2-.4-.4.3-1.3 0-2.2-.7-1.7-1.4-9.5-.6-10.6 1.1-.4.7-1.7.5-3.8-.5-3.1-1.7-3.6-1.3-3.2 2.2.3 2.2-3.2 7-5.5 7.5-1.2.2-3-.1-4.1-.7-1-.5-2.6-1.2-3.5-1.3-1-.2-2.6-.4-3.5-.6-1-.1-2.4-.6-3.2-1.1-.8-.5-2-.1-3.4 1.2-1.8 1.8-1.9 2.3-.6 3.8 1.2 1.6 1.2 1.7-.1.9-.8-.4-3-1.9-4.8-3.2-3-2.2-3.9-2.4-9.3-1.8-4.2.5-6.2 1.2-6.7 2.4-1.1 3-3.2 4.5-4.5 3.2-.9-1-.8-1.4.5-2.2 2.2-1.2 1.2-4.8-2.1-7.6-1.4-1.2-2-2.2-1.3-2.3.6 0 1.2-.9 1.2-2.1 0-1.2.8-2.3 2-2.6 1.1-.3 2-1 2.1-1.7 0-.6.2-2.5.2-4.1.2-2.2.7-2.9 1.8-2.7 1.8.3 3.3-2.3 2.3-3.9-.3-.6.4-.7 1.9-.4l2.5.7-.5-6.7-.4-6.7 2.3 1.6c1.2.9 3.7 1.6 5.6 1.6 2.8 0 3.1-.2 2.3-1.8-.6-1.2-.5-3.9.4-8.2 1.9-8.5 1.9-8-1.4-8-1.7 0-3.2-.4-3.5-.8-.3-.5-1.9-.7-3.6-.4-1.8.2-3 0-3-.7 0-1.9-2.8-1.2-3.5.8-.3 1.2-1.2 1.7-2.3 1.4-1.2-.3-2.7.9-4.7 3.6-1.7 2.2-3.4 3.9-4 3.7-.5-.1-1.5.4-2.1 1.3-1.9 2.5-12.6 2.2-15.6-.5-2.7-2.4-6.5-3.6-7.4-2.3-.3.5-1 .6-1.6.3-1.9-1.2-7.6-1.5-8.3-.4-1.6 2.5-13.8-.5-16-4-.4-.6-1.3-.5-2.5.2-1.5 1-2.2 1-3.1.1-.7-.7-2-.8-3.3-.4-3.5 1.2-6 .5-11.9-3.2-3-2-7.3-4.1-9.4-4.6-2.9-.8-5.2-2.8-9.5-8-5.5-6.5-7-9-4.8-7.6 1 .6.7-.3-2.2-6.5-.9-1.9-1.9-4.2-2.2-5.1-.2-.9-2.7-2.7-5.5-4-2.9-1.4-5-3.1-5.1-4 0-.9-.6-2.2-1.4-2.8-1.1-.9-1.5-.8-2 .4-.8 2.1-4.1 1.1-7.2-2-1.7-1.7-2.5-4.3-3.4-10.6l-1.2-8.3 2.9-2.1c4.7-3.4 6.3-5.4 6.3-7.9 0-1.4.5-2.8 1-3.1 1.3-.8-.6-4.5-2.4-4.5-.8 0-1.8-.6-2.4-1.3-.8-1-.6-1.7.8-2.7 1.4-1 1.6-1.8.9-3.1-1.3-2.4-1.1-2.9.5-2.3 1.1.4 1.4-.2 1.4-2.6-.1-3.2-4.7-9-7.1-9-.7 0-.5-.6.4-1.3 2.6-2 5.1-8.7 4.4-11.9-.6-2.6-.5-2.8 2.5-2.4 1.7.2 3.7.9 4.3 1.5.8.8 1.4.8 2.4 0 1-.9 1.3-.8 1.3.1s.7.7 2-.5c1.1-1 1.8-2 1.6-2.3-.3-.2.2-1.1 1-2 1.4-1.4 1.4-1.7-.5-3.1-1.6-1.3-1.9-2.4-1.5-5.8.4-3.4 0-4.6-1.9-6.7-1.3-1.4-2.9-2.6-3.5-2.6-.5 0-.8-.9-.5-2 .6-2.4 0-2.5-2.1-.4zm-97.6 71c0 .8-.4 1.4-1 1.4-.5 0-1.3.1-1.7.2-.8.4-1.4-3.3-.7-4.4.8-1.2 3.4 1.1 3.4 2.8zm-27.2 56c-.3.2-1.3-.3-2.4-1.2-1-.8-1.3-1.3-.6-.9.6.3 1.2 0 1.2-.7 0-.8.5-.6 1.1.5.6 1 .9 2 .7 2.3zm26 39.6c-.2.6-1.1 1.3-1.9 1.4-.7.2-2.4.6-3.6 1-1.7.4-2.3.2-2.3-.8 0-2.2 1-2.8 4.8-2.8 2.1 0 3.2.4 3 1.2zm-170.8 2.8c0 .5-.5 1-1.1 1-.5 0-.7-.5-.4-1 .3-.6.8-1 1.1-1 .2 0 .4.4.4 1zm8-.6c0 .2-1.2 1.1-2.6 2.1-2.2 1.4-2.8 1.5-3.5.4-.6-1-.2-1.6 1.4-2.1 2.7-.7 4.7-.9 4.7-.4zm337.9 18.2c2.1 2.4 2.2 2.8.7 4.2-1 1.1-1.6 1.2-1.6.4 0-.7-.7-1.2-1.5-1.2-1 0-1.5-1-1.5-3 0-3.7 1-3.8 3.9-.4zm1.8 8c-.3.3-1.2.4-1.9.1-.8-.3-.5-.6.6-.6 1.1-.1 1.7.2 1.3.5zm-289.3 99c.9.8 1.6 2 1.6 2.5s-.9 0-2-1.1c-1.9-1.9-2.5-3-1.6-3 .3 0 1.2.7 2 1.6zm24.5 2.4c.8 2.5.7 3-.6 3-.9 0-1.4-.3-1-.6.3-.3.2-1.7-.3-3-.6-1.4-.6-2.4-.1-2.4s1.4 1.3 2 3zm57.1 83c0 .5-.4 1-.9 1-.6 0-1.3-.5-1.6-1-.3-.6.1-1 .9-1 .9 0 1.6.4 1.6 1zm-32.5 7c.3.5.1 1-.4 1-.6 0-1.1-.5-1.1-1 0-.6.2-1 .4-1 .3 0 .8.4 1.1 1z"/><path d="M202.407 99.316c-1.9 1.4-1.9 1.5-.2 2.2 1 .3 2.8.2 4-.4 1.7-.8 1.8-1.1.5-1.1-.9-.1-1.8-.6-2-1.1-.2-.7-1.1-.5-2.3.4zM208.607 101.516c-3.2 2.9-2.6 4.5 1.5 3.7 2.6-.5 4.8-3.3 2.7-3.3-.6 0-.9-.7-.5-1.5.8-2.2-.6-1.8-3.7 1.1zM603.907 113.716c-.8.3-2.3 1.6-3.3 2.9-1 1.2-2.5 2.3-3.3 2.3-.8 0-1.4.5-1.4 1.1 0 .7-1.2 1-3 .7-1.6-.3-3-.1-3 .4 0 .4.9.8 2 .8 1.3 0 1.7.5 1.4 1.4-.4 1.2-1.2 1.2-3.7.4-1.8-.6-3.5-1.5-3.8-2-.3-.4-5.6-1-11.7-1.2-10.4-.3-11.2-.2-11.2 1.5 0 1.1-.7 1.9-1.5 1.9s-1.5.6-1.5 1.4c0 1.7-2.2 2.6-6.1 2.6-1.6 0-3.8.6-4.9 1.2-1.5 1-2.4 1-3.8.1-1.2-.7-2.4-.8-3.3-.2-.8.5-2.5.9-3.8.9-2 0-2.2.2-1.1 1.6 1.1 1.2 1 1.8-.3 3.1-1.4 1.4-1.4 1.9.1 4.9.8 1.9 2.2 3.4 3 3.4 1 0 1.3.7.9 2.1-.3 1.2.2 3.8 1.3 5.9 1.2 2.4 1.5 4.1.9 5.1-.5.8-.9 2.6-.9 4.1 0 2 .6 2.7 2.3 3 1.7.2 2.3 1.1 2.5 3.5.3 3.1.1 3.3-2.9 3.3-3.1 0-3.2.1-1.3 1.4 1.4 1.1 1.9 2.6 1.8 6-.1 3.3.3 4.6 1.3 4.6.7 0 1.6.7 1.9 1.5.5 1.2 1 1 2.6-1 2.2-2.9 4.4-3.2 6.9-.9 1.3 1.2 2.2 1.3 3.8.5 2.8-1.5 3.9-1.4 4.5.6.3 1 1.7 2.3 3 2.9 2 .9 2.6.8 3.7-.7.8-1.1 2.6-1.9 4.1-1.9 1.8 0 2.8-.5 2.8-1.5 0-.8.5-1.5 1-1.5.6 0 1-.6 1-1.4 0-.9.7-1.2 2-.9 2.5.7 5-1.3 5-3.8 0-1.1.6-1.9 1.3-1.9 1.5 0 1.1-5.7-.5-7.8-.7-.8-.7-1.2.2-1.2.8 0 1-.8.6-2.3-.5-2.1-.2-2.2 3.2-2 2 .2 5.4-.5 7.5-1.4 3.2-1.5 4.2-2.7 5.9-7.3 1.2-3 2-6.8 2-8.4-.1-1.6.7-4.1 1.8-5.6l1.9-2.7-2.5-2.2c-1.7-1.5-3-1.9-4.2-1.3-.9.5-2.8.7-4.2.6-1.4-.1-3.1.3-3.7.8-1 .8-1.3.6-1.3-.6 0-.9.5-1.6 1.1-1.6.5 0 .7-.4.4-1-.3-.5.5-1.5 1.8-2.1 1.6-.7 2.7-2.3 3.1-4.1.3-1.6 1.5-3.7 2.6-4.6 2.1-1.8 1.5-4.2-1-3.4zM124.007 176.516c0 1.1.3 1.4.6.6.3-.7.2-1.6-.1-1.9-.3-.4-.6.2-.5 1.3zM686.307 194.416c.3.8.2 1.5-.2 1.5-.5 0-1.4 1.6-2.1 3.5-1.2 3.5-1.9 3.9-5.4 3.5-1.6-.1-1.7.2-.8 1.9 1.2 2.2-.1 7.1-1.9 7.1-1.9 0-2.5.2-4.5 1.6-1.1.8-2.6 1.4-3.3 1.4-.7 0-2 .7-2.8 1.5-1.9 1.8-5.5 1.9-7.4.2-1.2-1-1.2-.9-.2.4.9 1.2.9 1.8 0 2.7-1.7 1.7 2.2 6.6 5.3 6.9 5.3.5 6.9 1 8.7 2.6 2.1 2 5.3 2.2 6.9.6.8-.8 1.5-.6 2.4.9 1.5 2.4 3.9 1.8 3.9-1 0-1.7.5-2 3-1.4 6.7 1.3 19.8-3.8 23.6-9.2.9-1.3 2.1-1.8 3.4-1.5 1.1.3 2.6.1 3.3-.5.7-.6 2.3-.9 3.5-.5 2.1.5 2.2.2 2.2-4.6v-5.1h-3.5c-2.9 0-3.6-.4-4.1-2.6-.6-2.4-1-2.6-4.4-2-2.9.5-3.9.2-4.4-1-.5-1.3-.9-1.4-2-.5-1.9 1.6-6.6-.6-6.6-3.1 0-1.1-.4-1.6-1-1.3-.5.3-1 .1-1-.5s-1-.8-2.3-.5c-1.5.4-2.8.1-3.6-.9-1.8-2.1-5.5-2.2-4.7-.1zM613.607 198.016c-.8 1.1-1.3 2.9-1 4 .7 2.4-1.5 7.9-3.1 7.9-.8 0-1.1 1.1-.8 3 .3 2.4.1 3-1.3 3-1.4 0-1.6.6-1.1 3.1.3 1.7.6 4.4.6 5.9 0 3.5 1.9 4.3 5.6 2.4 1.6-.9 3.9-1.3 5.1-1.1 1.3.2 2.9-.3 3.9-1.4.9-1 2.9-2.1 4.5-2.4 2-.5 2.9-1.3 2.9-2.6 0-2.1 2-2.5 3.7-.8 1.3 1.3 3.3.4 3.3-1.7 0-.8.5-1.4 1.1-1.4.6 0 .9.9.6 2-.6 2.4.9 2.6 6.2.8 6.9-2.2 11.1-4.2 11.2-5.2.3-2.8-.5-5.1-3.2-9.4-1.6-2.6-2.7-5.2-2.5-5.9.3-.7.1-1.5-.4-1.8-.6-.4-1 .1-1 .9 0 1.9-3 3.6-6.5 3.6-1.4 0-3.5.5-4.6 1-1.5.8-2.1.7-2.5-.4-.4-1.1-1.2-1.3-2.9-.6-3.7 1.4-8 .4-10.8-2.4-3.1-3.1-5.1-3.3-7-.5zM651.907 219.916c0 .5.5 1 1.1 1 .5 0 .7-.5.4-1-.3-.6-.8-1-1.1-1-.2 0-.4.4-.4 1zM842.907 264.716c-.5 1.3-.8 2.8-.4 3.3.6 1-4.8 6-7.7 7.1-1 .4-2.1.3-2.4-.2-1-1.6-2.5-1.1-1.9.5.6 1.5-1 1.9-6.8 1.8-1.3 0-1.8.9-1.8 3.1 0 4-1.2 5.8-3.3 5-1.3-.5-1.7 0-1.7 1.9 0 1.4-.4 2.8-.9 3.1-.4.3-1.1 1.9-1.4 3.5-.4 1.8-1.4 3.2-2.7 3.6-1.1.3-2 1.3-2 2.1s-.4 1.4-.8 1.4c-.5 0-1.5 1.8-2.2 4-.7 2.2-1.9 4-2.7 4-.7 0-3.3 2-5.9 4.5-2.5 2.5-4.9 4.5-5.3 4.5-.4 0-2 1.3-3.6 3-1.6 1.6-3.6 3-4.5 3-1.9 0-5 3-5 4.8 0 .7-.9 1.2-2 1.2s-2-.7-2-1.5c0-3.3-1.9-1.3-2.5 2.7-1 6-3.2 9-5.9 8.2-1.8-.6-1.9-.5-.8.9 1.1 1.3 1 1.8-1 2.8-1.3.7-3 1.2-3.8 1-.8-.2-1.2 0-.8.4 1 1.1-2 3.8-3.3 3-2.7-1.7-7.4-1.1-9.6 1.2-1.3 1.3-2.3 2.9-2.3 3.5 0 .6-1.3.8-3.4.4-2.3-.5-3.9-.2-4.8.8-1 .9-2 1.1-3 .5-1.4-.8-1.5-.4-.6 2.9 2 7.8 2 8.2.9 8.2-.8 0-.9.5-.3 1.7.8 1.3.4 2.1-1.4 3.6-1.3 1-2.4 2.4-2.4 3.2 0 .7-.9 1.5-2 1.8-1.2.3-2 1.4-2 2.6 0 1.2-.4 2.1-.9 2.1s-2.1 2.5-3.7 5.5-3.5 5.5-4.1 5.5c-.7 0-1.3.4-1.3.9 0 .6 1.8.9 4.1.9 3 0 3.9-.4 3.5-1.4-.4-1.1.1-1.3 2.2-.8 1.5.4 2.9 1.1 3 1.6.5 1.2 3 1 6.1-.7 2.7-1.3 3-1.3 5.1 1 1.3 1.4 3.2 2.5 4.2 2.5 1.1 0 3.9 1.1 6.4 2.5 5.2 2.9 7.4 3.2 7.4.8 0-1.4.2-1.4 2.1.2 1.7 1.6 2.4 1.7 5.2.7 2.9-1.1 3.3-1 5.4 1.7 3 3.8 9.1 5.6 8.5 2.4-.3-1.1.1-1.4 1.3-.9 1.6.6 6.5-3.3 6.5-5.3 0-.5 1.4-.3 3 .5 3.2 1.6 3.5 2.5 2.1 5.2-.5.9-1.2 4.1-1.6 6.9-.5 4.3-.4 5.3.8 5.3 2.2 0 5 3.7 4.4 5.9-.2 1-.1 2.4.3 3.1.9 1.4 10 2.2 10 .8 0-.5.5-.6 1-.3.6.3 1 0 1-.8s1.6-4.3 3.5-7.7c2.7-4.9 3.3-6.6 2.4-7.6-.9-1.1-.8-1.4.4-1.4.8 0 2-.7 2.7-1.5.7-.8 2.5-1.5 4-1.5 2.9 0 4-1.8 4-6.9v-2.4l2.3 2c1.2 1.1 4.5 2.8 7.2 3.8 2.8 1 6.4 2.7 8 3.7 3.7 2.2 7.7 2.4 6.9.4-.4-1 .3-1.6 2.3-1.8 2-.2 2.7-.8 2.5-2.1-.3-1.9.8-2.3 2.4-.8.5.6 1.6.4 2.8-.4 1.7-1.3 1.7-1.5.3-2.1-.9-.3-2.3-1.9-3.1-3.6-1.4-2.7-1.4-3.3 0-5.9 1.8-3.5 1-10.3-1.1-9.5-1.7.6-4.9-2.9-4-4.4.4-.6-.3-2.2-1.5-3.5-1.5-1.6-2-3.3-1.8-5.6.3-3.2.5-3.4 3.9-3.2 3 .2 3.8-.2 4.4-2 .4-1.2.6-2.7.5-3.2-.2-1-.2-1.6.2-5 .1-.8.8-1.7 1.5-1.9.8-.3 1.2-.2.8.3-.6 1.1 4.2 5.1 6.1 5.1.7 0 2 1.2 2.9 2.7 2.3 4.4 3.8 6 6.4 6.8 2.2.7 2.3.5 1.6-2.4-.4-2-.2-3.7.5-4.6.6-.8.9-1.9.5-2.5-.3-.6-.8-2.8-1-5-.4-4-.3-4 3.1-4 2.8 0 3.4-.4 3.2-1.8-.3-1.9 3.1-2.5 4.5-.7.5.5.6-.2.3-1.8-.6-2.5-.4-2.7 2.9-2.7 2.6 0 3.5-.4 3.6-1.8 0-.9.2-3.1.3-4.7.2-1.7 0-3.4-.3-4-1.4-2.5-.6-4.4 2-5 1.5-.4 3.4-1.4 4.1-2.3 1.1-1.4 1.1-1.5-.6-.9-2.2.9-6.6-1.7-6.6-3.8 0-.8-1.2-2.1-2.7-2.9-1.6-.8-2.2-1.5-1.4-1.6.8 0 1.1-.6.7-1.5-.4-1 .3-1.9 1.9-2.7 3-1.4 3.8-3.4 2.4-6-.9-1.8-.9-2 .4-1.5.9.3 2.1-.1 2.7-.9.7-.8 1.9-1.4 2.7-1.4.8 0 1.1-.5.8-1-.3-.6.4-1 1.6-1 2.1 0 2.1 0-.4-2-1.4-1.1-3.2-2-4-2-.8 0-2-.6-2.6-1.4-1-1.2-.9-1.4.6-1 1 .3 2.8-.4 4.1-1.6 1.2-1.2 3.8-2.2 5.6-2.3 2.6-.2 3.2-.5 2.4-1.5-.8-.9-.5-1.2 1.1-1.2 1.4 0 2.1-.6 2.1-1.9 0-1 .7-2.4 1.5-3.1.9-.7 1.5-2.3 1.3-3.4-.2-1.2.6-2.8 1.7-3.7 1.6-1.4 1.7-1.9.7-3.2-1.2-1.4-1.6-1.4-4.2.1-1.6.9-2.6 2-2.4 2.4.3.5-.2.8-1 .8-1.9 0-2 1.1-.3 2.9 1 1.1.7 1.2-1.4.7-1.9-.4-2.9-.1-3.2.8-.4.9-1.4 1.2-2.5.9-1.1-.2-2.3 0-2.6.6-.5.7-1.5.7-3.1.1-1.8-.7-2.5-.6-2.5.3 0 .8-.2.9-.8.1-.4-.6-2.8-2-5.3-3.1-3.8-1.7-4.7-1.8-5.5-.6-.7 1.1-1.4.9-3.6-1.2-1.5-1.4-3.6-2.5-4.7-2.5s-2.2-.9-2.6-1.9c-.7-2.3-3.9-3.3-5.5-1.7-.8.8-1.3.7-1.9-.3-.5-.8-1.8-1.2-3-.8-1.6.4-2.1 0-2.1-1.3 0-1.4-.6-1.7-2.7-1.4-3.4.5-3.8.6-8.5.2-3.1-.3-3.9.1-4.8 2zm70.5 10.2c.3.5.1 1-.4 1-.6 0-1.1-.5-1.1-1 0-.6.2-1 .4-1 .3 0 .8.4 1.1 1zm-29.5 10c0 .5-.7 1-1.5 1s-1.5-.5-1.5-1c0-.6.7-1 1.5-1s1.5.4 1.5 1zm16.3.5c-.3 1.3-5.3 2-5.3.7 0-1.5 1.3-2.3 3.5-2 1.1.2 1.9.7 1.8 1.3zm-105.3 53c.7.9.8 1.5.2 1.5-.5 0-1.2-.7-1.6-1.5-.3-.8-.4-1.5-.2-1.5s.9.7 1.6 1.5zm84 3c0 2.3-.2 2.4-2 1.3-3.1-1.9-3.3-3.8-.5-3.8 2 0 2.5.5 2.5 2.5zm-24.2 7.8c.2 1.1-.3 1.7-1.6 1.7-2.3 0-3.7-2.6-1.9-3.4 1.9-.7 3.2-.1 3.5 1.7zm-98.8 14.7c0 .5-.7 1-1.5 1s-1.5-.5-1.5-1c0-.6.7-1 1.5-1s1.5.4 1.5 1zm2.5 3c.3.5.1 1-.4 1-.6 0-1.1-.5-1.1-1 0-.6.2-1 .4-1 .3 0 .8.4 1.1 1z"/><path d="M894.007 344.316c-.8.9-2 1.5-2.7 1.2-1.5-.6-1.4 1.5.1 2.6 1.6 1.2 2.5.9 2.5-.6 0-.8.5-1.6 1.2-1.8.6-.2.9-1 .7-1.7-.4-1-.8-.9-1.8.3zM76.907 353.416c-.7.8-1.9 1.5-2.6 1.5-3.8 0 1.4 4.4 5.5 4.8 2.7.2 3.2-.1 2.7-1.4-.3-.8-.6-2.1-.6-2.7 0-.7-.9-1.8-1.9-2.4-1.5-1-2.2-.9-3.1.2zM71.907 358.316c0 .2.7.6 1.5 1 .8.3 1.5.1 1.5-.4 0-.6-.7-1-1.5-1s-1.5.2-1.5.4zM218.907 358.916c0 .5.5 1 1.1 1 .5 0 .7-.5.4-1-.3-.6-.8-1-1.1-1-.2 0-.4.4-.4 1zM609.607 362.016c-.4 1.3-.7 3.7-.7 5.2 0 3.8-2.5 8.4-5 9.2-1.7.5-1.9 1.2-1.4 4.8.4 2.3 1 4.6 1.5 5.1.5.6.9 2.4.9 4.1 0 1.7.5 3.6 1.2 4.3.9.9.9 1.2 0 1.2-1.7 0 1.2 5.5 3.3 6.3.9.4 1.5 1.9 1.5 4.2 0 1.9.4 3.5.9 3.5s2.2.5 3.8 1.2c1.5.6 4.4 1.3 6.3 1.5 5.7.4 7.4.9 7.8 2.1.2.7-.4 1.5-1.2 1.8-1.3.5-1.4.9-.5 2 .6.8.8 2.5.5 3.8-.3 1.4-.2 2.7.2 3 .5.3.8 2.8.7 5.6-.1 5 .7 7.1 2 5 .3-.5 1.4-1 2.4-1s2.7-1.7 4-4c3-5.4 6.4-7.1 12.1-6 6.1 1.2 6 1.2 6-.6 0-1.1-.5-1.4-1.6-1-1.4.5-1.5.4-.5-.8.9-1.1 1-2 .2-3.5-.8-1.3-.8-2.2-.1-2.6.6-.4.8-1.1.4-1.6-.3-.5-.3-2.2.1-3.8.5-2.3 1.1-2.9 3.1-2.7 2.3.1 3.6 1.6 1.4 1.6-1.1 0-.9 4.5.3 5.6.4.4.1 1.4-.5 2.2-1 1.1-.9 1.6.2 2.3 3.8 2.2 4.3 3 4.6 6.6.2 2.1.3 4.1.3 4.4.1.3 1.4.6 2.9.7 1.5 0 3.4.2 4.1.4.7.2 1.8-.6 2.4-1.7.7-1.1 1.6-2.3 2.1-2.6.5-.4.6-1.1.2-1.7-.3-.6 0-1.3.6-1.6.9-.3.7-1-.8-2.3-1.9-1.7-1.9-2.1-.7-5.2 1.3-3 1.2-3.6-.4-5.4-1.6-1.8-1.6-2-.1-1.4 1.3.4 1.6.2 1.1-1.1-1.5-4.2-4.8-5.8-8-3.9-1.3.8-4.2-.1-6.5-2.1-1.5-1.3-1.8-1.3-1.8-.1-.1.8-.7-.1-1.5-1.9-1.3-2.9-1.7-3.2-3.6-2.2-2.5 1.4-2.7 1.2-4.4-3.6-.8-2.5-1-4.6-.4-6.1.5-1.3.5-2.3.1-2.4-.4 0 .4-.5 1.7-1 1.9-.8 2.1-1.2 1.1-2.4-.7-.8-2.6-1.5-4.2-1.5-2.6 0-2.9.2-1.8 1.5 2.3 2.7.5 4.5-3.9 4-2.2-.3-4.3-.1-4.6.5-.3.5-1.7 1-3.1 1-1.3 0-2.4.5-2.4 1.2 0 .6-.9.3-2-.7s-2-2.3-2-3c0-.6-2.6-2.9-5.7-5.1-3.2-2.1-6-4.1-6.3-4.4-.3-.3-1.7-1.3-3.2-2.3-2.6-1.6-3.9-4.7-1.9-4.7 1.4 0 2.2-3.1 1.1-4.5-.5-.6-.7-1.4-.4-1.8.3-.3.2-1.3-.4-2.2-.8-1.5-1-1.4-1.5.6zm10.5 48.4c1.1 2 1.1 2-1.1 0-1.3-1.1-2.8-2.9-3.3-4-1.1-2-1.1-2 1.1 0 1.3 1.1 2.8 2.9 3.3 4zM593.907 366.916c0 .5.7 1 1.6 1 .8 0 1.2-.5.9-1-.3-.6-1-1-1.6-1-.5 0-.9.4-.9 1zM866.507 366.916c-1.9.6-1.8.7.3 1.3 2 .5 2.2 1 1.7 3.4-.4 1.6-.3 2.3.2 1.6.6-.9 1.4-.6 3.2 1.2 7 7 8.9 8.5 9.6 7.4.8-1.3-5.2-7.8-8.3-9-1.3-.5-2.3-1.7-2.3-2.8 0-2.5-2.1-4-4.4-3.1zM879.907 368.916c0 .5.5 1 1 1 .6 0 1-.5 1-1 0-.6-.4-1-1-1-.5 0-1 .4-1 1zM881.407 373.116c-.8 1.9.2 4.1 1.4 3.3.5-.2 2.3.9 4.1 2.5 3.6 3.2 7.3 4.3 5 1.5-.7-.8-1.7-1.5-2.3-1.5-.5 0-2.5-1.7-4.3-3.8-2.7-3.1-3.3-3.4-3.9-2z"/><path d="M883.407 378.916c.3.5 1.1 1 1.6 1 .6 0 .7-.5.4-1-.3-.6-1.1-1-1.6-1-.6 0-.7.4-.4 1zM876.007 385.016c-2.9 1.2-5 3.8-5.1 6.3 0 1.2-.5 1.6-1.5 1.2-1-.3-1.5.1-1.5 1.1 0 .9-1 2.7-2.2 4l-2.2 2.3 2.7 2.8c2.4 2.5 2.6 3.2 1.7 6.2-1.3 4.5-1.3 4.5.5 3 .8-.7 1.5-2.3 1.5-3.6 0-1.3.5-2.4 1.1-2.4.7 0 .9-1.2.4-3.6-.5-3-.4-3.6.8-3.1 1.2.5 1.3 0 .4-2.8-.8-2.6-.7-3.8.3-4.9.7-.9 1.6-1.4 2-1.1 1.8 1.1 4.2-.8 3.7-3.1-.2-1.3.1-2.5.7-2.8.6-.2.7-.4.1-.5-.5 0-2.1.5-3.4 1zM697.707 395.016c-.9.9-1.4 2-1.1 2.3.4.3-.2 1.4-1.1 2.5-1.2 1.3-1.4 2.1-.6 2.6 1.6 1-1.9 3.4-4.9 3.5-1.3 0-3 .8-3.7 1.7-1.1 1.4-1.3 1.5-1.4.3 0-1-.5-.7-1.6.8-.8 1.2-2.6 2.2-4 2.2-1.3 0-2.4.5-2.4 1.1 0 .6.6.9 1.3.6.6-.2 2.2.4 3.4 1.5 1.7 1.6 2.5 1.8 4.2.9 1.8-1 2.1-.8 2.7 1.4.7 2.8.8 2.9 3.5 1.5 2.3-1.3 2.5-3.3.4-5-2-1.6-1.9-5 .1-5 .8 0 1.2-.5.9-1-1-1.6.4-1.2 3.4.9 3.5 2.5 7.1 1.8 7.1-1.4 0-1.3.7-2.5 1.5-2.9.8-.3 1.2-1.2.9-1.9-.3-.8.2-1.7 1.2-2.1 1.6-.6 1.6-.8-.2-2.1-1-.8-2.5-1.5-3.3-1.5-.8 0-2.2-.6-3-1.3-1.4-1.2-1.9-1.1-3.3.4zM581.407 395.916c-.3.5-.1 1 .4 1 .6 0 1.1-.5 1.1-1 0-.6-.2-1-.4-1-.3 0-.8.4-1.1 1zM709.907 395.816c0 1.7 1.8 2.1 2.4.6.3-.9 0-1.5-.9-1.5-.8 0-1.5.4-1.5.9z"/><path d="M694.907 409.916c0 .5.7 1 1.6 1 .8 0 1.2-.5.9-1-.3-.6-1-1-1.6-1-.5 0-.9.4-.9 1zM863.007 414.016c.5 1.1 1.4 1.7 2 1.4 1.5-1 1-2.2-1.1-2.8-1.7-.4-1.8-.2-.9 1.4zM860.907 418.416c0 .8-.9 1.5-2 1.5-1.9 0-2 .4-1.4 3.7.9 5 1 5.1 4 2.1 2.1-2.1 2.5-3.1 1.9-5.7-.7-3.2-2.5-4.3-2.5-1.6zM209.507 423.416c-1.1 2.9-.7 3.7 1 2 1.1-1.1 1.3-2 .7-2.6-.7-.7-1.2-.5-1.7.6zM863.907 430.416c0 .8.4 1.5 1 1.5.5 0 .7-.7.4-1.5-.4-.8-.8-1.5-1-1.5-.2 0-.4.7-.4 1.5zM856.207 431.416c-.3.9-.3 1.8-.1 2.1.3.3.8-.4 1.1-1.6.6-2.3-.1-2.7-1-.5zM862.507 434.416c-.3.9 0 1.5.9 1.5.8 0 1.5-.7 1.5-1.5s-.4-1.5-.9-1.5-1.1.7-1.5 1.5zM861.507 442.616c-.6 1.4-.5 1.5.5.6.7-.7 1-1.5.7-1.8-.3-.3-.9.2-1.2 1.2z"/></g></svg>