<svg version="1" xmlns="http://www.w3.org/2000/svg" width="1245.318" height="648.284" viewBox="0 0 933.989 486.213"><g fill="#222"><path d="M793.6 2.025c-1.3 2.1-1.3 2.6-.1 3.6.8.7 1.5 1.8 1.5 2.5s.6 1.5 1.4 1.8c1.5.6 1.5 6.4.1 9.9-.8 1.9-5 2.5-6 .8-.6-1-7.5-1.5-7.5-.6 0 .3.4 1.6 1 3 .7 2 .6 2.6-.4 2.6-1.1 0-1.2.7-.3 3.5.9 3.1.8 3.8-1.3 6-1.2 1.3-2.6 2.2-3 2-.4-.2-2 0-3.6.5s-4.1 1.2-5.6 1.5c-2.1.4-2.8 1.1-2.8 2.8 0 2-.5 2.2-5.8 2.2-3.4 0-6.6-.6-7.5-1.3-1-.9-1.7-1-2.2-.2-.4.6-1.4.9-2.2.8-.9-.2-1.8.4-2 1.2-.4 1.2-.2 1.2.5.2.7-1.1 1.1-1 2 .1 1.7 2-3.3 4.3-5.5 2.6-2.1-1.8-6.3-1.8-6.3.1-.1 3.2-11.8 6.7-13.5 4-.3-.6-1.8-1-3.3-1-1.9 0-2.3.3-1.3.9 1.8 1.2-4.1 4.1-8.3 4.1-1.7 0-3.7.4-4.4.8-.7.5-4 .5-7.5.1-5.1-.7-6.4-.5-7.4.8-1.1 1.4-1.5 1.3-4-.4-5.1-3.6-6.4-3.6-9.4-.3l-2.8 3 2.1 1.4c1.2.9 2.5 1.3 3 1 .5-.3 1.5 0 2.3.6.8.7 1.5.9 1.5.5 0-.5.9 0 2 1 1.2 1.1 2.8 2 3.7 2.1 3.4.5 8.1 9.3 5.5 10.2-.7.2-2.1 1.1-3.3 2.1-1.9 1.5-2 2-.8 3.9.8 1.2 1.9 2 2.5 1.8.6-.2 1.6.5 2.2 1.5 1.4 2.2 3.4 2.6 2.6.5-.3-.8.3-1.7 1.4-2 2.6-.9 8.9-7 8.4-8.4-.1-.5.5-.9 1.5-.8 1.3.1 1.8-.6 1.7-2.2 0-1.2.5-2.2 1.3-2.2 1.7 0 3.4 4.1 2.2 5.6-.5.7-.4 2.4.2 4.3 1.4 3.9.5 6.9-1.5 5.2-1.1-.9-1.8-.4-3.5 2.4-1.1 1.9-1.6 3.5-1.2 3.5.5 0 1.2 1.1 1.5 2.4.3 1.4 1.3 3.1 2.1 4 1.7 1.7 1 4.7-1 4-1-.4-1.1.4-.5 3.8.5 2.5.4 6.2-.2 9-1 4-1.5 4.7-4.2 5.3-1.7.4-3.6.7-4.3.6-1.3-.2-2.9 8.2-1.8 9.9.4.7-.2 1.4-1.4 1.7-1.2.3-2.1 1.3-2.1 2.3 0 1.4-1.1 1.8-5 2.2-5.1.5-10 3.7-10 6.5 0 .9-1.4 1.3-4.5 1.3H674v4c0 2.2-.4 4-1 4s-.7 1.8-.3 4.6c.5 3.6.2 5-.9 5.8-.8.6-1.8 2.3-2.1 3.8-.8 3.2-3.2 5.8-5.5 5.8-1.9.1-5.7 7.4-4.7 9 .3.6 0 1.3-.8 1.6-.8.3-1.3 1.3-1.1 2.2.7 2.9-1 4.6-3.5 3.3-1.5-.8-2.7-.9-4.1-.1-1.7.9-2.5.5-5-2.2-1.6-1.8-3.3-4.3-3.6-5.6-.4-1.3-1.4-2.2-2.5-2.2-1.3 0-1.9-.7-1.9-2.4 0-1.4-.4-2.8-1-3.1-1.5-1-1.2-2.3.8-2.8 1.4-.4 1.4-.6-.5-1.2-1.3-.4-2.3-1.3-2.3-2s-.7-1.8-1.5-2.5-1.5-1.7-1.5-2.2c0-.6.7-.4 1.6.3 1.4 1.2 1.9 1 3.8-1.2 1.1-1.4 3.3-3 4.9-3.7 2.8-1.2 3.5-2.6 1.7-3.7-.6-.4-.8-1-.5-1.5.3-.5-.1-2.6-1-4.6-1.9-4.5-1.9-5 0-3.4 1.3 1 1.5.9 1.5-1 0-1.8.3-2 1.4-1.1 1 .9 1.5.8 2-.4.3-.8 1.2-1.5 2.1-1.5.8 0 1.5-.7 1.5-1.5 0-1.9 1.4-1.9 3 0 1.9 2.3 2.2 1.2.5-2.1-.8-1.6-1.5-3.7-1.5-4.7 0-1.1-.8-1.7-2.5-1.7-1.4 0-2.5.4-2.5.9 0 1.6-4.3 2-8.2.8-2.6-.8-3.8-1.8-3.8-3.1 0-1.5-.3-1.6-1.5-.6-1.1.9-2 .8-4.4-.9-3.6-2.6-3.7-2.6-4.4 0-.5 1.9-.8 1.9-3.3.6-2.3-1.2-3.1-1.2-5.6 0-1.6.8-3.6 1.2-4.5.9-.9-.4-2.4.1-3.4 1-1.1 1-1.9 1.4-1.9 1 0-.4-.8-.2-1.9.3-1.5.8-2 .6-3-1.5-.6-1.4-1.1-3-1.1-3.6 0-1.4-3.1-3.7-4.9-3.8-.8 0-2.5-.9-3.7-2.1l-2.2-2-.6 3.6c-.8 3.9-2.3 4.9-8.8 6-2.8.4-3.7 1.1-4 2.8-.4 3-7.9 5.5-11.2 3.8-1.2-.7-2.6-1.1-3.2-1-2.4.4-3.5-.4-6-4.7-2.4-4.1-2.8-4.4-3.7-2.8-.5 1.1-1.1 2-1.2 2.2-.7.9-6.5-3.6-6.7-5.3-.2-1.6-1.1-2-4.1-2.1-2.1-.1-4.3-.6-4.8-1.1-.6-.6-2.8-.9-4.8-.6-4.1.6-8.1-1-8.1-3.1 0-1.7-4.3-2.6-6.5-1.4-1.1.7-3 .4-5.7-.7-3.1-1.2-4.3-1.3-5.4-.4-1.2 1-1.8.8-2.9-.7-.8-1-1.5-2.2-1.5-2.5 0-.3-1.8-1.3-4.1-2.3-2.9-1.3-3.8-2.1-3-2.9 1.6-1.6 1.4-2.3-1.6-3.6-1.4-.7-4.4-3.2-6.6-5.7-2.1-2.4-4.3-4.4-4.9-4.4-.6 0-4.9-3.8-9.6-8.5-8.3-8.4-8.5-8.5-13.3-8.5-2.7 0-4.9-.3-4.9-.8 0-.4-1.7-2.4-3.7-4.6-3.2-3.4-4-3.7-7.2-3.2-3.1.5-4.1.1-7.1-2.8-1.9-1.8-5.5-4-8-4.9-4.1-1.5-5.1-1.6-10.2-.2-5 1.3-6.1 1.3-9.2 0-1.9-.8-6.5-1.5-10-1.5-5.9 0-6.9-.3-10-3.1-2-1.7-4-2.8-4.5-2.4-1.4.8-8.7-3-9.4-5-.5-1-2-1.5-4.9-1.5-2.4 0-5.2-.6-6.3-1.3-1.1-.7-3.9-1.4-6.2-1.5-2.3 0-5.6-.8-7.4-1.7-2-1.1-3.5-1.3-4.1-.7-.6.6-2 .4-3.9-.5-2.6-1.3-4-1.3-9.5-.3-3.5.7-6.4 1.7-6.4 2.3 0 1.6-3.3 3.6-6 3.7-1.5 0-3.2.6-3.9 1.2-1 1.1-1.6.8-3.1-1-1.6-1.9-2.3-2.1-3.9-1.3-3.3 1.8-4.9 1.2-6.2-2.3-1.4-3.9-4.4-3.9-5.3 0-.4 1.5-1.4 2.4-2.6 2.4-2 0-5 4.6-4.3 6.6.5 1.5-1.7 3.1-4.7 3.6-2.3.3-2.5.7-2.5 5.1 0 3.1-.4 4.7-1.3 4.7-.7 0-1.5.7-1.8 1.5-.4.8-1.7 1.5-3 1.5-3.4 0-7.3 2-7.9 4.2-.6 1.8-1.5 2.2-4.6 1.9-.8-.1-2.4.8-3.4 1.9-1 1.1-2.4 2-3.2 2-.7 0-1.3.5-1.3 1 0 .6-1.2 1.6-2.7 2.2-1.6.7-3.5 2-4.3 2.9-2.6 2.8-8.1 3.8-10.8 2.1-2-1.3-2.5-1.3-3.2-.1-.5.7-1.5 1.4-2.2 1.5-3.6.3-4 .5-3.4 1.9.3.8.2 1.5-.2 1.5s-.8 1.1-.8 2.5c-.1 1.4.2 2.5.7 2.5.4 0 1.3.9 1.9 2 1.4 2.6-1 8.6-3.9 9.5-1.2.3-2.1 1.1-2.1 1.6s-1.1 1.4-2.5 1.9-2.5 1.5-2.5 2.1c0 .6-.6.9-1.4.6-.8-.3-1.7.1-2 1-.5 1.1-1.4 1.4-3.6.9-2.6-.5-3-.3-3 1.8 0 1.2-.9 3.1-2 4.1-1.1 1-2 2.4-2 3.1 0 .7-1.2 2.1-2.6 3.2-1.9 1.3-2.8 2.9-2.9 5.5-.2 3.4-4.2 9.7-6.2 9.7-1.3 0-5.6 5-5 5.7.4.3-.2 1.8-1.3 3.3-1.9 2.7-1.9 2.7.5 6 3.1 4.3 3.1 4.5-.4 6-1.6.6-3.2 1.8-3.5 2.5-.2.7-1.9 1.6-3.6 2-1.7.4-3.9 1.6-4.9 2.7-1.2 1.2-2.1 1.6-2.6.9-.3-.6-1.6-1.1-2.8-1.1-1.6 0-1.8.3-.9 1.2 2.7 2.7-.2 7.8-4.5 7.8-1.6 0-1.9.5-1.5 2.5.2 1.4 0 2.5-.7 2.5-.5 0-.8.7-.4 1.5.8 2.2-2.5 5.5-5.5 5.5-1.4 0-3.1.8-3.8 1.7-1 1.5-1.5 1.6-2.5.5-2.1-2-3.6-1.4-4.3 2-.4 2.1-.1 3.7.9 4.8.8.9 1.3 1.9.9 2.2-.3.3 1.5 2.1 4 3.9 4.6 3.2 5.6 5.2 3.5 6.5-.6.3-.9 2.4-.7 4.8.3 2.2.1 5.1-.3 6.3-.6 1.7-.4 2.5 1.1 3.3 2.3 1.2 2.8 7.8.8 9.8-1.5 1.5.3 3.7 3 3.7 1.1 0 1.8 1 2 2.7.4 3.7-3.6 5.5-7.9 3.6-1.6-.7-2.9-1.6-2.9-2 0-.5-1.2-.8-2.7-.8-2.1 0-3.2-.8-4.4-3.3-1.8-3.6-4.9-4.9-4.7-2 .3 4.1-1.4 9.3-3.5 10.8-2.4 1.7-6.7 2-6.7.5 0-.6-1.1-1-2.4-1-2.9 0-5.6-3.3-4.9-5.9.3-1.4-.3-2-2.5-2.4-3.6-.7-4.7-3.1-2.7-5.9 1.1-1.6 1.1-2.6.3-4.1-1.4-2.8.7-11.9 3.3-14.3 3.3-2.9 4.2-5.3 2.8-7-.9-1.1-.8-1.4.9-1.4 1.1 0 2.5-.7 3.2-1.5.7-.8 1.9-1.5 2.6-1.5.8 0 1.4-.5 1.4-1.1 0-.6.9-.8 2-.4 3.9 1.3 6.1-3.3 3.5-7.4-.6-1.1-.3-1.3 1.3-.9 3.5.9 2.5-1.1-1.3-2.9-2.2-1-3.4-2.2-3-3 .3-.9-.1-1.3-1-1.1-.9.2-2.1-.8-2.8-2.1-1.3-2.6-6.6-4.6-9.9-3.8-1 .3-1.8.2-1.8-.3 0-1.2-3.9-2-4.6-.9-.3.5-1.6.9-2.9.9-1.3 0-2.7.4-3 1-.3.5-1.9.7-3.4.4-1.6-.4-3.2-.1-3.5.5-.4.6-1.7 1.1-2.8 1.1-1.2 0-2.9.7-3.9 1.6-1.1 1-3.7 1.5-7.6 1.5-6 .1-6 .1-9.2 4.6-1.8 2.5-4.1 4.7-5.2 5-1.3.4-1.9 1.4-1.9 3.4 0 3.2-1.7 3.9-2.6 1.1-.3-.9-1-2.5-1.5-3.4-.5-1-.9-3.1-.9-4.7 0-2.3-.8-3.4-3.5-5.1-2.6-1.6-3.4-2.7-3-4 .3-1.1-.4-2.9-1.9-4.7-1.4-1.6-2.8-4.2-3.2-5.7-.6-2.5-.8-2.6-2.4-1.1-1.8 1.6-6.4 1.2-7.6-.6-.3-.5-1.7-.9-3.1-.9-1.9 0-2.3.3-1.5 1.2.9 1.2 1.7 6.4 1.2 7.8-.9 2.4-.9 6.4 0 8 .8 1.5.8 2-.1 2-.8 0-.9.3 0 1.4 2.2 2.7-1.3 11.6-4.6 11.6-1.7 0-1.6 1.2.1 3.6 1 1.3 1.1 2.3.4 3.1-.6.7-.7 1.3-.3 1.3.4 0 .2.7-.5 1.5-.8 1-2.1 1.3-3.7.9-2.3-.6-2.4-.5-1.2 1.4.7 1.1 1.9 1.8 2.6 1.5.7-.3 1.3.2 1.3 1s.9 1.7 2 2c1.1.3 2 1.3 2 2.2 0 1.8 5 8.8 5.8 8.1.2-.3 1.4-.1 2.4.5 1.5.8 1.9 1.8 1.5 3.9-.7 3.4.7 5.5 5.3 7.8 2.6 1.3 3.6 2.4 3.8 4.7.2 1.6 1 3.8 1.8 4.9 2 2.9 1.7 5.4-.6 6.1-1.5.5-1.9 1.2-1.5 2.6.4 1.2.2 1.9-.7 1.9-.7.1-2.4 1-3.7 2-1.7 1.5-2.2 2.6-1.7 4.4.4 1.5 0 2.8-.9 3.6-2.1 1.7-1.9 4.6.5 6.3 2.2 1.6 1.8 4.7-.7 4.7-.8 0-1.1.5-.7 1.2.5.7.2.9-.8.5-2.1-.7-3 2.4-1.2 4.1.7.7 1.7 1.2 2.1 1.2.5 0 1.4.9 2.1 2.1 1 1.6 1.6 1.8 2.7.9.9-.8 1.5-.8 2 0 .3.6 1 .8 1.5.5.9-.5 5 4.1 5 5.6 0 .5-.7.6-1.5.3-2.1-.9-1.9 1 .5 3.1 2.1 1.9 2.6 5 1 6-1.4.8-1.3 2.8.1 2.3.6-.2 2.5.9 4.1 2.4 1.6 1.5 3.5 2.5 4.1 2.2.7-.2 2.4.7 3.7 2.1 1.3 1.4 3.1 2.5 4.1 2.5 1 0 2.1.4 2.4 1 .9 1.5 6.6 1.3 6.3-.3-.2-.7.7-1.2 2.2-1.2 1.5 0 2.4-.5 2.2-1.3-.5-2.9 6.6-.6 10.1 3.3 3.3 3.6 7.7 9.8 7.7 10.6 0 1.2 5.7 1.1 6.5 0 .3-.6 2.9.1 6 1.5 3.1 1.3 6.2 2.4 7 2.4.8 0 2.7 1.6 4.2 3.5s3.6 3.5 4.6 3.5c1.1 0 2.2 1.2 2.8 2.9 1 2.8 1.3 2.9 6.2 2.7 4.1-.2 5.5.2 6.5 1.6.7 1 2.2 1.8 3.2 1.8s2.2.5 2.5 1c.4.6 1.6.8 2.7.4 1.4-.4 2.9.3 5.4 2.7 1.9 1.8 3.4 3.9 3.4 4.6 0 .7.7 1.3 1.6 1.3 1.1 0 1.4-.6.9-2.1-.6-1.9-.4-2.1 1.5-1.6 1.6.4 2 .2 1.6-.9-.7-1.9.1-1.8 3.7.8 1.8 1.3 4.9 3.1 6.9 4 2.1.9 3.8 2.3 3.8 3 0 .8 1.4 1.9 3 2.5 3.6 1.4 3.9 2.9.5 3.7-2.1.5-2.3.9-1.4 2.9.6 1.3 2.4 2.8 4 3.4 2 .8 2.7 1.6 2.3 2.6-.3 1 .4 2.2 1.9 3.2 1.4.9 2.7 2.9 3.1 4.5.8 4.3 4.6 9 7.2 9 1.2 0 3.3.9 4.8 2.1 1.4 1.1 3.6 2.1 4.8 2.2 1.3.1 2.9.7 3.6 1.4.7.7 2.9 1.7 4.9 2.2 5.6 1.6 11.3 6 11.3 8.7 0 1.5.6 2.4 1.5 2.4.8 0 1.5.7 1.5 1.5s.8 1.5 1.8 1.5c1.9 0 4.2 3.7 4.2 6.6 0 1.2.4 1.3 2.3.2 1.2-.7 2.4-1.3 2.7-1.4l2.7-.9c1.2-.4 2.5-1.6 2.8-2.6.4-1.1 2.6-3.6 5-5.5 3-2.6 4.6-4.8 5.1-7.3 1-4.5 1.1-5.3 1.3-6.9.1-1.5 3.3-1.6 4.9 0 .9.9 1.2.7 1.2-.9 0-1.4.8-2.3 2.5-2.7 2.9-.7 4.5-6.6 2.5-9-1.4-1.8 1.1-4.6 9.2-9.8 3.2-2.1 5.8-4.2 5.8-4.8 0-.6 1.1-1.5 2.5-2s2.5-1.4 2.5-2c0-.5.9-1.9 2.1-3.1 1.5-1.5 2-2.9 1.6-4.9-.5-2.4-.3-2.8 2.3-3.4 1.7-.3 4.2-.1 5.6.4 1.4.6 4.3 1 6.5 1s4.8.6 5.9 1.2c1.6 1 2.5 1 4.7-.3 1.7-1 3.6-1.4 4.8-.9 1.4.5 2.4.2 3.3-1.1.7-1.1 2-1.9 2.8-1.9.8 0 1.9-1 2.5-2.3.8-1.9 1.6-2.2 5.3-1.9 3 .3 4.8-.1 5.9-1.3.9-.9 2.1-1.4 2.6-1.1 1.5.9 6.1-1.2 6.1-2.8 0-.8.5-1.6 1.2-1.8.6-.2 1.7-2 2.3-3.9.9-2.6 1.7-3.3 3.3-3.1 2.5.4 10.4-4.6 9.5-6.1-.3-.5-.1-.7.4-.4.6.4 1.6 0 2.3-.8.7-.8 1.7-1.2 2.2-.9.5.3 1.5-.2 2.2-1.2 1.2-1.6 1.4-1.6 3.5.5 1.2 1.2 2.6 1.9 3 1.6.5-.2 1.4.2 2.1 1 .7.8 2.3 1.5 3.7 1.5 3 0 4.2 2.8 2 4.5-1 .7-1.7 1.7-1.7 2.3 0 .6-.6 1.2-1.2 1.5-1.9.6 7.2 8.4 10.6 9.1 2.3.5 2.7 1 2.3 2.7-.4 1.3.5 3.2 2.6 5.5 1.9 2.3 2.7 3.8 2 4.2-.6.4-1.5 2-1.8 3.5-.4 1.5-1.1 3-1.6 3.3-2.9 1.7 3.1 10.7 7.3 10.9 2.7.1 6.8 3.3 6.8 5.3 0 .9.7 1.1 2 .7 1.7-.6 2-.2 2 3 0 2.4-.5 3.8-1.7 4.2-1.4.5-1.2 1 1.3 2.9 2.8 2.3 2.9 2.6 2.9 11.1 0 7.7.3 9.2 2.2 11.2 1.1 1.2 2.4 3.2 2.6 4.3.5 1.7.2 1.9-1.9 1.5-1.7-.3-2.8.1-3.1 1-.6 1.4-5 3.8-6.5 3.5-1.2-.3-4.7 3.1-4.2 3.9.2.5 1.1.6 1.9.3 1.1-.4 1.3.1.9 2.2-.3 1.5-.7 3.1-1 3.5-.2.4.1 2.5.7 4.6.9 2.7 2.2 4.3 4.6 5.4 1.8.9 3.3 1.3 3.3.8s.5-.9 1.1-.9c.6 0 .8.7.5 1.6-.4 1.1.3 1.9 2.4 2.7 3.1 1.2 3.7 2.1 2 3.2-.5.3-1 1.5-1 2.6 0 1-.5 1.9-1.1 1.9-.5 0-.9.8-.8 1.7.1 1-.1 2.5-.4 3.3-.3.8-.7 2.4-.9 3.4-.2 1.1-1.5 2.3-3.3 2.8-5.7 1.8-6 1.9-5 2.6.6.4 1 1.4 1 2.2 0 .8 1 1.6 2.3 1.8 1.5.2 2.2-.2 2.2-1.4 0-1.4.3-1.4 1.5-.4 1.3 1 1.9 1 3.5-.5 1.3-1.2 2.7-1.5 4.9-1 2 .4 3.1.3 3.1-.4 0-.6.9-1.1 2.1-1.1 1.6 0 1.9-.4 1.5-1.7-.9-2.3 1.1-3.3 6.4-3.3 4.4 0 4.6-.1 6.8-4.9 1.2-2.7 2.2-5.3 2.2-5.8s1.3-.8 2.8-.5c1.8.2 3.5-.2 4.5-1.2.8-.9 2.1-1.6 2.7-1.6 1.7 0 .5-8.6-1.4-10.5-2.7-2.7-1.8-3.8 1.3-1.6 3.4 2.5 4.2 2.6 3.5.7-.3-.9.3-2 1.5-2.8 2.3-1.4 2.8-4.4.9-5.1-2.2-.7 1.1-3.7 4.1-3.7 5.5 0 10-1.2 9.4-2.5-.2-.8.1-2.3.7-3.5 1-2 1.8-2.2 5.5-1.7 3.3.5 4.4.3 4.9-.9.8-2.2 2.6-.7 2.6 2.2 0 4.3 1.7 6.4 5.4 6.4 1.9 0 3.9-.7 4.6-1.5.7-.8 2.8-1.5 4.6-1.5 2.5 0 3.4-.4 3.4-1.7 0-2.7 1.6-.3 3.9 5.7 2.6 6.8 2.6 6.4-.5 7.9-2.9 1.3-2.8 3.3.2 3.7 7.1 1 11.4 3.3 11.4 5.9 0 1.6 3.3 4.5 5.1 4.5.8 0 3.2 1.6 5.4 3.5l3.8 3.6 3.1-3c2.8-2.7 3.3-2.8 5-1.5 1.1.7 1.7 1.7 1.3 2-.4.4 1.5 1.7 4.1 2.9 2.7 1.2 6.5 3.7 8.5 5.5 2.5 2.1 4.4 3.1 5.7 2.7 1.1-.3 2.2-.2 2.5.3.2.4 1.5.5 2.9.3 1.8-.4 2.7.1 3.6 1.7 1.1 2.1 1 2.2-.9 1.7-1.1-.3-2.1-.1-2.1.4 0 1.2 1.8 1.1 6.5-.5 3-1.1 4.1-2.1 4.5-4l.5-2.6 3.6 2.4c3.9 2.6 7.4 2.6 9.5-.2.8-1.1 2.3-1.4 5.7-1 2.6.3 4.7.1 4.7-.3 0-.5 1.1-1.4 2.5-1.9 1.5-.6 2.5-1.7 2.5-3 0-2.3 1.8-2.7 2.6-.5.4.8 1.2 1.5 1.9 1.5.6 0 3 1.3 5.3 3 2.4 1.7 4.4 2.5 4.7 2 1-1.6 8.5-5.2 9.8-4.7.7.2 1.7-.9 2.4-2.5.7-1.5 1.9-2.8 2.8-2.8 1.7 0 8.5-3.5 9.4-4.8.3-.5 2-1.5 3.6-2.3 2.7-1.3 3-1.9 2.9-6.2 0-2.6.3-4.7.8-4.7.4 0 .8-1.1.8-2.4 0-3 3.5-4.4 10-4 2.6.1 4.8-.3 5.2-.9.6-.9 1.3-.9 2.9.1 1.8 1.2 2.3 1.1 3.5-.5.7-1 1.4-2.5 1.4-3.4 0-2.7 2.8-4.5 5-3.1 1.2.7 2 .8 2.2.1.2-.6 1.1-.7 2-.4 1.2.5 1.5 1.5 1.1 3.9-.4 2.5-.1 3.5 1.1 3.9 1 .4 1.9.1 2.3-.8.4-1.1.9-1.3 1.8-.5.9.7 1.6.6 2.6-.6.7-.9 3-2.3 5.1-3.1 2.1-.8 3.8-2.2 3.8-2.9 0-.8.6-1.7 1.4-2 .8-.3 1.2-1.2.9-2-.6-1.7 5.7-4.6 9.6-4.4 3.4.2 7.2-1 6.6-2.1-1.3-2.1.8-5.8 3.6-6.4 1.6-.4 2.9-1.3 2.9-2.1 0-2.2 1.4-1.6 3.8 1.6 2.3 3 5.2 4 5.2 1.7 0-.8.3-.7 1 .3.6 1 .4 2-.6 3.1-.8.8-1.1 1.9-.7 2.4.5.4 0 .5-.9.2-1.3-.5-1.8-.1-1.8 1.3 0 1.7-3.9 3.4-6.6 2.9-3.8-.7-5.4.3-6.3 3.8-.9 3-.7 4 .5 5.5 1.3 1.4 1.4 2.3.5 4.9-.6 1.8-.9 3.4-.6 3.7 1.1 1.2 6.7.8 7.2-.5.3-.7 1.1-1.3 1.9-1.3.8 0 1.4-.6 1.4-1.4 0-.8 1.2-1.7 2.8-2.1 3.9-.9 7.2-4.4 7.2-7.6 0-2.1.6-2.8 2.5-3.1 1.9-.4 2.5-.1 2.5 1.2 0 1 .7 2.3 1.5 3 .8.7 1.5 1 1.5.6s1.1.1 2.5 1c1.3.8 2.8 1.3 3.3 1 .6-.3 1.7 1 2.6 2.9.9 1.9 2.1 3.5 2.6 3.5.6 0 1 .5 1 1.1 0 4.5 3.5 12 8 16.9 2.7 3 5 6.2 5 7 0 1.1 2.1 2.1 6.4 3.3 3.6.9 7.2 2 8 2.3 1 .4 1.6.1 1.6-1s.9-1.5 3.8-1.4c2 .1 4 .5 4.3 1.1 1.1 1.6 8.2 1.6 10.7 0 1.3-.8 2.5-1.3 2.6-1.1 1.5 2.3 3.4 9.4 2.6 10.2-1.5 1.5 2.8 6.8 5.1 6.1 1.3-.4 1.9-.2 1.9.9 0 2.3 3.8 3 6.7 1.1 1.4-.9 2.2-1.2 1.9-.6-.4.6-.2 1.1.4 1.1.6 0 .8-1 .5-2.3-.4-1.6.1-2.9 1.9-4.4 1.5-1.3 2.3-2.9 2-3.7-.9-2.3 1.4-5.6 3.3-4.9 1 .4 1.4.2 1-.4-.4-.6.2-1.3 1.3-1.6 1.1-.3 2-1.3 2-2.2 0-1.1.5-1.5 1.5-1.1.8.3 1.5.4 1.5.2 0-1.2-3.2-7.6-4.1-8.1-.5-.4-.8-1.3-.5-2 .3-.8-1.3-3.4-3.5-5.8-3.3-3.9-3.9-5.2-3.9-9.1 0-4.5.1-4.6 3.3-4.6 3.5-.1 5.9-2.5 7.1-7.4.4-1.7 2-4.5 3.6-6.2 1.9-2.2 2.7-4 2.3-5.3-.3-1.2.3-3.1 1.5-4.5 1.1-1.5 2.2-4.9 2.6-8.5.5-4.7 1.1-6 2.6-6.4 1.2-.3 2-1.4 2-2.7 0-1.3.7-2.8 1.6-3.5 1.1-.8 1.4-1.8.9-3.4-.5-1.8-1.3-2.2-3.5-1.9-1.9.3-3.1-.1-3.9-1.4-.6-1-2.7-2.6-4.7-3.5-2.9-1.4-3.3-1.9-2-2.8.8-.6 1.6-3 1.9-5.3.3-3.2 1.3-5.3 4.5-8.8 3.5-3.9 4-5 3.1-6.6-.8-1.5-.7-2.4.5-3.7.9-1 1.6-2.5 1.6-3.4 0-1 .8-1.7 1.9-1.7 2.3 0 3.4-2.8 2.5-6.4-.5-2.1-.2-2.7 1.9-3.5 1.4-.5 2.8-1.4 3.1-2 .9-1.3-1.4-5-3.3-5.3-.8-.2-1.6-1.4-1.7-2.8-.4-3.7-1.5-9.3-2-11-.4-1.2-.9-1-2.4.8-1 1.2-3.6 3-5.7 3.8-2.1.9-4.1 2.1-4.4 2.6-.4.7-1.8.4-3.8-.8-3-1.8-3.2-1.8-6.5 0-3.4 1.8-3.5 1.8-5.7-.3-2.5-2.3-3.9-2.7-3.9-1.1 0 .5-1.2.7-2.8.4-2-.4-3.4.1-5.5 2-1.6 1.4-3.5 2.6-4.3 2.6-.7 0-1.4.4-1.4 1 0 .5-2 3-4.5 5.4-2.5 2.5-4.5 5.1-4.5 5.9 0 .7-1.3 1.8-3 2.4-3.4 1.3-4 .2-1-1.8 1.9-1.4 1.9-1.4 0-5.3-2.2-4.4-2.5-6.6-1-6.6 1.9 0 1.1-7.5-1-9.8-1.1-1.2-2-3.3-2-4.7 0-1.4-.5-2.5-1.1-2.5-.6 0-.9-.6-.6-1.3.2-.6 0-2-.5-3-.7-1.3-.4-1.9 1.6-2.7 1.4-.5 3-1.9 3.6-3 .7-1.3 1.7-1.9 2.6-1.6.9.3 2.4.1 3.4-.4 1.3-.7 2.6-.7 3.7-.1 3.3 1.9 13.3 2.9 14.7 1.6 1.3-1.4 5.6-.2 5.6 1.5 0 .6-.4.8-1 .5-2-1.3-.9.7 1.8 3 3 2.7 4.8 3.1 5.5 1.2.3-.8 1.2-.5 2.9 1.1l2.5 2.3.6-2.7c.4-2.1-.2-3.3-2.9-5.6-1.8-1.6-3.1-3.5-2.9-4.1.2-.7.6-3.3.9-5.9.5-4.4.4-4.9-2.2-6.2l-2.7-1.5 2.8-.1c1.6 0 2.7-.6 2.7-1.4 0-.7 1-2 2.2-2.8 2-1.3 2.1-1.7.9-3.2-1.1-1.4-1.1-1.6.2-1.6 1.1 0 1.3-.6.8-2.3-1.4-4.6-5.1-10.6-7.1-11.2-2.8-.9-4.3-4.2-3.6-7.7.5-2.3 0-3.5-2.4-5.8-1.7-1.7-3.9-3-5-3-1 0-2.1-.8-2.4-1.8-.5-1.3-1.7-1.7-5.7-1.7-4.6 0-5.4-.4-7.9-3.3-1.4-1.8-2.7-3.9-2.7-4.7 0-1.8.2-1.8 2.9-.4 1.5.8 1.9.8 1.4 0-.4-.6.4-1.6 1.8-2.3 1.4-.6 2.6-1.5 2.6-2 0-.4.7-.8 1.6-.8.9 0 2.7-1.1 4-2.5 1.3-1.4 3.3-2.5 4.6-2.5 1.3 0 3.4-.6 4.8-1.4 2.1-1.1 3-1 5.2.1 3 1.4 3.3 1 4-5.7.2-1.7.9-2.5 2-2.4 1 .1 1.5-.2 1.2-.7-.3-.5-1.2-.9-2.1-.9-1.1 0-1.4-.6-.8-2.3.4-1.2 1.2-4.1 1.8-6.5.7-2.9 1.6-4.2 2.7-4.2 1.7 0 3.1-3.6 3.4-8.7.2-2.3-1.9-3.9-2.9-2.3-1.2 2-2.6.9-4.4-3.4-2.1-4.9-2.4-11.6-.5-11.6 1.8 0 2.1-.7 2.8-7.2.6-4.7.5-5.7-.9-6-1.5-.3-1.5-.5 0-2.3 1.4-1.7 1.6-1.8 1.1-.2-.3 1-.2 1.5.3 1.2.5-.3 1.2-.1 1.6.4.3.6 1.8.9 3.4.8 2.2-.2 2.7-.6 2.3-2-.3-1.4-1.1-1.8-2.9-1.4-1.6.3-2.1.1-1.5-.5.6-.6.8-1.8.5-2.7-.3-1.2-.1-1.1 1.1.3.9 1.1 1.6 1.6 1.6 1 0-.5.5-.2 1 .7.9 1.5 1.4 1.5 4.7.4 2.6-.9 3.9-2 4.1-3.4.2-1.2 1-2.1 1.8-2.1s1.4-.3 1.4-.8c0-.4 1.6-1.8 3.5-3.1s3.5-3 3.5-3.7c0-.8.7-1.4 1.5-1.4 3.4 0 7.5-3 7.5-5.4 0-1.9.4-2.3 1.9-1.9 2.2.6 2.6 0 3.6-4.5.5-2.6.3-3.2-1-3.2-2.5 0-.9-3.9 2.9-7.2 1.7-1.5 3.4-2.7 3.7-2.8.3 0 .5-2.3.4-5-.1-2.8.2-5 .6-5 .5 0 .3-1.2-.3-2.8-1.7-3.8-1.7-3.8-3.1-1.8-1.8 2.4-5.2 1.3-7.1-2.2-3.8-6.8-4.6-9.3-3.7-10.9.7-1.3-.1-3-3-6.9-2.1-2.9-3.9-6-3.9-6.7 0-.8-.7-2-1.6-2.8-1.1-.9-1.4-2.2-.9-4.6.4-2.4.1-3.8-1-4.9-.8-.8-1.5-2.4-1.5-3.5s-.7-1.9-1.7-1.9c-1.4 0-1.5-.2-.4-.9 1-.6 1-1.3.2-2.9-.6-1.1-.8-2.7-.5-3.5.3-.9-.6-2.5-2-3.8-1.4-1.3-3-3.7-3.5-5.2-1-2.5-1.5-2.8-4-2.2-2.2.5-3.5.1-5-1.4l-2-2-.6 3.1c-1 4.3-.9 9.7.3 11.1 1.4 1.9 2.1 5.6 1.1 6.3-2.7 1.6.1 10.4 3.3 10.4 1.3 0 6.4 4 6 4.7-.2.3.7 1.7 2.1 3.1 3.6 3.8 5 7.7 3.2 9.2-.8.6-1.1 1.8-.8 2.6.3.8.2 1.4-.3 1.3-2.1-.5-4.4 1.5-4.4 3.8 0 1.3-.5 3.3-1 4.4-.8 1.3-.7 2.5.1 4 .9 1.7.8 2.3-.2 3-1 .6-.7 1.3 1.4 2.9 2.9 2.3 3.4 4.9 1.6 7.8-1.6 2.5.1 7.4 2.9 8.8 2.4 1.2 1.9 2.4-.9 2.4-2.2 0-3.8 5.4-3.7 12.1.1 5.6-.6 6.9-3.7 6.9-1.3 0-2.7.5-3 1.1-.9 1.4-4.5-1.8-4.5-4 0-.9-.7-2.7-1.6-3.9-.8-1.2-1.2-2.2-.7-2.2.4 0-.8-1.4-2.7-3-3.2-2.6-3.4-3.1-2.2-5.1.8-1.2 1-2.4.5-2.8-.5-.3-1.2-1.4-1.6-2.4-.5-1.2-.1-1.7 1.3-1.7 1.3 0 2-.7 2-2 0-1.1-.4-2-1-2-.5 0-2.5-2.2-4.2-5-1.8-2.7-3.8-5-4.5-5-.6 0-2-1.1-3-2.4-2-2.7-7.3-4.6-7.3-2.6 0 .6-.7 1.8-1.5 2.6-1.2 1.3-1.5 1.2-2.5-.5-1.2-2.3-1.3-7.1-.2-7.1.5 0 1.3-2.1 1.9-4.7.9-3.8.8-5.1-.4-6.9-1-1.6-1.2-2.8-.5-4 .5-.9.6-3.2.1-5.2-.5-2.3-.4-4.1.3-4.9.8-1 .5-2-1.2-3.8-1.9-2-2.1-3-1.5-7.2.5-4.2.3-5.1-1.4-6.7-1.2-1.1-2.1-2.3-2.1-2.7 0-1.5 4.1-2.1 5.6-.8.9.7 2.1 1.4 2.8 1.5.6.1 1.9.5 2.8.9 1.1.4 2 0 2.8-1.4 1.3-2.5 3-2.8 3-.6 0 1.5 3.8 3.5 6.7 3.5 1.2 0 1.3-.3.5-1.3-1.6-1.9-2.4-9.5-1.1-11.8.8-1.6.5-2.6-1.5-4.9-1.3-1.6-2.6-2.5-2.8-2-.2.5-2.3-.4-4.8-2-2.5-1.7-5.1-2.8-5.9-2.5-.7.3-1.9.1-2.6-.5-.7-.6-3.9-1.5-7.1-2.1-4.9-.9-6-.8-6.9.4-.6.8-2.2 1.7-3.5 1.9l-2.5.4 2.8 1.2c1.5.6 2.7 1.4 2.7 1.7 0 .4-.4.4-.9 0-.5-.3-1.2-.1-1.6.5-.9 1.5-5.5 1.2-6.1-.4-.3-.8-2.3-1.7-4.5-2.1-4.4-.8-5.9-2.3-3.7-3.9 2-1.5 3-5.7 1.6-7.3-1.1-1.4.7-7.3 2.3-7.3.5 0 .9-.9.9-2.1 0-1.1-.4-1.8-.9-1.5-.5.3-2.1-.6-3.5-1.9-1.5-1.4-3-2.5-3.5-2.5-.4 0-1.2-.5-1.9-1.2-2.1-2.1-4.9-1.9-6.6.6zm63.9 115.6c.8 1.3-.5 1.3-2.5 0-1.3-.8-1.3-1 .2-1 .9 0 2 .4 2.3 1zm40.5 6c0 1.3-3.8 3.2-5 2.5-1.5-1-1.2-2.3.8-2.8 3-.8 4.2-.7 4.2.3zm-40.3 17.5c2 1.7 2.3 2.4 1.2 2.5-.8 0-2.6-1.1-3.9-2.5-3-3.2-1-3.3 2.7 0zm19.6 4.2c-.7.2-1.3 1.2-1.3 2.1 0 .9-1.1 2.7-2.3 3.9l-2.3 2.1-1.3-2.1c-.8-1.2-1-1.9-.6-1.5.5.4 1.4.3 2.2-.4 1.1-.9 1.1-1.4-.3-2.9-1.6-1.8-1.5-1.9 2.7-1.8 2.4 0 3.8.3 3.2.6zM67 208.625c0 .5-.2 1-.4 1-.3 0-.8-.5-1.1-1-.3-.6-.1-1 .4-1 .6 0 1.1.4 1.1 1zm32.7 21.7c-.3.3-1.1.2-1.7-.2-.9-.6-.9-1 .1-1.6 1.4-.8 2.7.7 1.6 1.8zm69.3 10.3c0 .5-.2 1-.4 1-.3 0-.8-.5-1.1-1-.3-.6-.1-1 .4-1 .6 0 1.1.4 1.1 1zm-1 11.6c0 1.4-.3 1.4-1.5.4-.8-.7-1.5-1.4-1.5-1.6 0-.2.7-.4 1.5-.4s1.5.7 1.5 1.6zm634.3 51.3c.3 1.4.1 1.8-.9 1.4-1.5-.6-1.8-1.6-.7-2.6.9-1 1-.9 1.6 1.2zm-734.3 3c1.4 2.8 1.3 2.9-1.7 2.4-2.1-.4-2.4-.2-1.3.6.8.5 1.1 1.3.7 1.7-.3.4-1.3.1-2.1-.6-1.4-1.1-1.3-1.5.2-3.6 2.1-2.9 2.8-3 4.2-.5zm40.2 5.1c2.8 1.9 3.8 3.2 3.8 5.2 0 1.6-.2 2.8-.5 2.8-1.5 0-6.5-3.2-6.5-4.1 0-.6-.7-.9-1.5-.6-.8.4-1.7.2-2-.3-.6-1 1.6-6.2 2.4-5.8.3.2 2.3 1.4 4.3 2.8zm39.1 9.6c-1.1 2.8-3 1.5-2.5-1.8.4-2.8.6-3 1.8-1.4.7 1 1 2.4.7 3.2zm303.7 4.3c0 .4-1.1.6-2.5.3-1.4-.2-2.5-.6-2.5-.8 0-.2 1.1-.4 2.5-.4s2.5.4 2.5.9zm315.7 90.3c.5.7 1 2.5 1.2 4l.2 2.8-3-1.7c-3.8-2.2-4.8-6.3-1.6-6.3 1.2 0 2.7.6 3.2 1.2zm-324 10.2c0 .8-.6 1.2-1.4.9-.7-.3-1-.9-.7-1.4.8-1.4 2.1-1.1 2.1.5zm-15.2 11.6c.3.5.1 1-.4 1-.6 0-1.1-.5-1.1-1 0-.6.2-1 .4-1 .3 0 .8.4 1.1 1zM811 4.525c0 .5.5 1.3 1 1.6.6.3 1 .2 1-.4 0-.5-.4-1.3-1-1.6-.5-.3-1-.2-1 .4z"/><path d="M648.6 13.525c-.3.5.1 1.1.9 1.4.9.4 1.2.1.8-.9-.6-1.6-1-1.7-1.7-.5zM780.5 16.625c.3.5 1.3 1 2.1 1s1.4-.5 1.4-1c0-.6-.9-1-2.1-1-1.1 0-1.7.4-1.4 1zM653.6 19.525c.6 2.7.2 3.1-3.5 4.9-2.2 1.1-5 1.8-6.2 1.5-1.5-.4-2.2 0-2.6 1.6-.3 1.1-.9 2.1-1.4 2.1-.5 0-.9.9-.9 2s-.6 2-1.2 2c-.9 0-.9.3-.2.8 1.4 1 1.5 8.4.1 10.1-1 1.2-.7 1.3 1.5.8 2.6-.7 2.8-.4 4.3 4.5.8 2.8 1.5 6 1.5 6.9 0 1 .8 1.8 1.8 1.9.9 0 4.3.3 7.5.6l5.7.6.6-3.1c.6-2.7 1.1-3.1 3.8-3.2 7.5 0 9.6-.4 9.1-1.7-.6-1.5.7-1.6 2.2-.1 1.7 1.7 7.3-1 7.3-3.6 0-3.2 1.1-6.4 2.4-6.8.6-.2.4-.3-.5-.2-1.7.2-4.3-3-4.4-5.4 0-.8-.7-1.5-1.5-1.7-.8-.1-2.3-.5-3.2-.9-1.3-.5-1.8-.2-1.8.9 0 1.3-.4 1.5-2 .6-1-.6-2.3-1-2.7-.9-2.7.5-4.2-.7-6.8-5.1-1.6-2.8-3-5.7-3-6.5 0-1.6-3.9-5.5-5.4-5.5-.6 0-.8 1.2-.5 2.9zm10.3 21.3c.9 2.6-.8 5.1-2.5 3.7-1.3-1-.6-5.9.7-5.9.6 0 1.3 1 1.8 2.2zm1.3 11.1c-.2.5-1 0-1.8-1-2-2.6-1.7-3.6.4-1.6 1.1 1 1.7 2.2 1.4 2.6zM642.2 60.825c.9 1.4 1.4 4 1.2 6.3-.4 4.2 1.1 6.1 3.3 4.3 1.1-.9 1.1-1.4.1-2.6-1.1-1.3-1-1.5.4-1 2.5 1 3.1-3 .6-4.3-1.2-.6-1.7-1.6-1.4-2.6.5-1.3.4-1.4-.9-.3-1.2 1-1.5 1-1.5-.4 0-.9-.7-1.6-1.6-1.6-1.5 0-1.5.2-.2 2.2zM643.1 78.525c.7 6 2.3 10.1 3.9 10.1 1.8 0 1-4-1.1-6.1-2-2-2-2.1-.1-3.7 1.7-1.6 1.8-1.8.3-3.3-3.4-3.3-3.7-2.9-3 3zM648.3 96.725c-1.9 1.9-1.6 3.9.6 3.9 1.1 0 3.3 1.3 4.9 3 3.2 3.2 5.4 4.1 3.1 1.3-1.1-1.3-1.1-1.7-.1-2 .6-.3 1.2-1.7 1.2-3.1 0-2.1-.5-2.7-2.2-2.8-1.3-.1-3.2-.5-4.3-.8-1.1-.4-2.5-.2-3.2.5zM659.5 104.625c-.3.5.3 1 1.4 1 1.2 0 2.1-.5 2.1-1 0-.6-.6-1-1.4-1-.8 0-1.8.4-2.1 1zM587.6 112.525c-.4.7-.5 1.5-.2 1.8.9.9 1.9-.4 1.4-1.8-.4-1.1-.6-1.1-1.2 0zM912 131.825c0 1.7.6 2.3 2.5 2.4 2.4.2 2.4.1.7-2.2-2.2-3-3.2-3-3.2-.2zM56 133.725c0 .5.5.7 1 .4.6-.3 1-.8 1-1.1 0-.2-.4-.4-1-.4-.5 0-1 .5-1 1.1zM8.3 139.025c.4.9.1 1.6-.5 1.6-.7 0-.6.5.2 1.5.7.8 1 1.5.7 1.5-.3 0-.1 1.3.4 3 .6 1.6 1.5 3 2 3s.9.7.9 1.5c0 1.3 1.1 1.9 3.1 1.7.3-.1 2 1.2 3.7 2.7 2.1 2 3.4 2.5 4.1 1.8 1.5-1.5 4.1 1 4.1 3.9 0 1.3.9 3.2 1.9 4.1 6.7 6.3 7.3 6.4 13.3 3.4 2.6-1.3 2.6-1.4 1.2-5.3-1.8-5-1.8-4.8.6-4.8 2.9 0 2.5-1.3-2-6.2-3.9-4.1-5.9-5.2-7-3.7-.7 1-3.2-1.1-5.3-4.4-1.9-3-3.7-3.6-3.7-1.2 0 1.6-1.6 2-2.4.6-.3-.5-1.4-.7-2.4-.4-1 .2-2.9-.6-4.3-1.9-1.4-1.3-3.1-2.2-3.7-2-.6.2-2.1-.2-3.3-.9-1.9-1-2.1-.9-1.6.5zM0 139.825c0 .4.9.8 2 .8s2-.4 2-.8-.9-.8-2-.8-2 .4-2 .8zM56 142.525c0 .6-.6 1.1-1.4 1.1-1.9 0-3 3.5-1.8 5.6.8 1.4 1.2 1.2 3-1.1 2.4-3 2.8-5 1.2-6-.5-.3-1-.1-1 .4zM894.5 144.625c-.3.5-.1 1 .4 1 .6 0 1.1-.5 1.1-1 0-.6-.2-1-.4-1-.3 0-.8.4-1.1 1zM6 148.525c0 .5.7 1.2 1.6 1.5 1.4.5 1.5.4.4-.9-1.4-1.7-2-1.9-2-.6zM44 151.225c0 1.4.3 1.5 1.8.3.9-.7 1.9-1.5 2.1-1.6.2-.2-.5-.3-1.7-.3-1.4 0-2.2.6-2.2 1.6zM181 160.625c0 .5.7.7 1.5.4.8-.4 1.5-.8 1.5-1 0-.2-.7-.4-1.5-.4s-1.5.4-1.5 1zM139.5 186.325c.2 1 .4 2.3.4 2.8.1.6 1 1.6 2.1 2.3 1.9 1.1 2 1 2-2.8 0-3.6-.3-4-2.4-4-1.8 0-2.3.5-2.1 1.7zM24 211.425c0 1.2 1.9 2.6 2.6 1.9.2-.2-.2-1-1.1-1.7-.9-.8-1.5-.8-1.5-.2zM907.6 288.025c.5 1.2 0 1.6-2.2 1.6s-2.8 1.5-.6 1.5c.4 0 1.3.4 2 .8.9.7.7 1.3-1.2 2.8-1.3 1-3.1 1.9-4 1.9-.8 0-2 .9-2.6 1.9-1 1.9-6.1 4.1-9 3.9-5-.4-6.8.2-6.3 2.2.4 1.4 0 2-1.1 2-1.3 0-1.3.3.4 2 1.1 1.1 2.3 3.4 2.7 5 .7 3.7 2.7 5.4 5.4 4.7 1.3-.4 2.3 0 2.7 1.1.7 1.7 5.2 2.6 5.2 1 0-.4.9-.8 1.9-.8 1.5 0 1.8-.5 1.4-2.1-.5-1.9-.3-2 1.8-1.4 1.3.4 2.9 1.3 3.4 2 .9 1 1.4.7 2.4-1.6 1-2.2 1.9-2.9 4-2.9 2.9 0 6.1-2.6 6.1-4.9 0-.9.8-1.1 2.6-.7 3 .8 7.4-1.6 7.4-3.9 0-.8.7-1.5 1.6-1.5 1.3 0 1.4-.3.4-1.5-1-1.2-.9-1.6.4-2.1 1.6-.6 1.6-.8 0-2.5-1.6-1.8-1.6-1.9-.1-1.9 2.1 0 2.3-3.8.3-4.6-.8-.3-2.5.1-3.8 1-2.4 1.6-6.8 1.2-6.8-.6 0-.6-1.2-.8-2.6-.5-1.5.2-2.8 0-3-.8-.3-.6-1-1.2-1.7-1.3-.7-.1-2.7-.5-4.5-.8-2.7-.5-3.1-.4-2.6 1zM52.5 299.525c-.3.5-.1 1.2.5 1.6.5.3 1-.1 1-.9 0-1.8-.6-2.1-1.5-.7zM52 304.525c0 .6.4 1.3 1 1.6.6.3.7-.1.4-.9-.7-1.8-1.4-2.1-1.4-.7zM869.1 304.925c-1.3 1.7 0 3.1 3.7 4 2.8.7 2.8-.4-.1-3.2-2-1.8-2.6-1.9-3.6-.8zM840.6 318.525c-.3.5.3 1.1 1.4 1.4 2.4.6 3.6-.8 1.4-1.7-2-.8-2.2-.8-2.8.3zM173.5 363.525c-.5.9 2.4 4.6 3.1 3.9.2-.2.1-1.4-.3-2.6-.6-2.3-1.8-2.9-2.8-1.3zM735.6 428.125c.4.8 1.1 1.5 1.6 1.5.6 0 .5-.6-.2-1.5-.7-.8-1.4-1.5-1.6-1.5-.2 0-.1.7.2 1.5zM248 429.725c0 .4-.9 1-1.9 1.4-1.1.3-2.3 1.6-2.6 2.8-1.2 4.1-2.8 6.7-4.3 6.7-1.3 0-1.2.3.2 1.9.9 1 1.4 2.5 1 3.4-.3 1 .4 2.6 1.9 4.1 2.8 2.8 4 2.5 2.7-.8-.6-1.7-.4-2.6 1.1-3.7 1-.7 1.9-2.1 1.9-3.1 0-.9.9-2.2 2-2.8 1.3-.7 2-2.1 2-3.9 0-1.7.7-3.1 1.6-3.5.8-.3 1.3-1 1-1.5-.7-1.1-6.6-2-6.6-1zM770 433.625c-1.2.7-1.2 1.2-.1 3.4 1.2 2.1 1.9 2.4 4.5 1.9 4.1-.7 4.9-1.6 3.4-3.5-1.6-2-5.9-3-7.8-1.8zM704 438.525c0 .5.7 1.2 1.6 1.5 2.2.9 2.4.8 2.4-.9 0-.8-.9-1.5-2-1.5s-2 .4-2 .9zM700.8 439.325c.7.3 1.6.2 1.9-.1.4-.3-.2-.6-1.3-.5-1.1 0-1.4.3-.6.6zM738.7 444.125c-.4.8-.2 1.7.2 2 .5.2 1.1-.4 1.4-1.5.6-2.3-.8-2.7-1.6-.5zM425 452.525c-1.4.9-2.8 2-3.1 2.4-1.1 1.5.2 4.7 2.8 6.7 2.3 1.8 2.4 2.3 1.4 5.1-1.5 4.4-1.4 5.6.8 6.2 3 .7 6.1-4.2 5.6-9-.2-2.1-.4-4.1-.4-4.6-.1-.4-.8-.7-1.7-.7-1.2 0-1.5-.7-1.1-2.7.7-3.9-1.2-5.4-4.3-3.4zM419.7 477.225c.2.7 1.1 1 1.9.7 1.9-.7 1.8-1-.5-1.6-1.3-.3-1.8-.1-1.4.9z"/></g></svg>