<svg version="1" xmlns="http://www.w3.org/2000/svg" width="1065.845" height="994.212" viewBox="0 0 799.384 745.659"><g fill="#222"><path d="M229.92.569c-1.4.3-3.5 1.6-4.7 3-2.3 2.6-2.3 2.6-4.4.7-1.7-1.5-2.3-1.6-4-.5-1.8 1-2.3 1-3.3-.5-1-1.2-2-1.5-4.5-.9-2.8.6-3.2 1-2.7 3.1.5 1.7.2 2.4-.9 2.4-.8 0-1.5.7-1.5 1.5 0 .9-.9 1.9-2 2.3-1.9.7-1.9.9 1.1 4.5 2.9 3.5 3 4.1 1.9 6.3-.8 1.3-1.8 2.4-2.4 2.4-.5 0-.3.6.6 1.2 1.1.9 1.4 2.4 1.1 5.1-.4 3-1.4 4.5-4.4 6.6-2.1 1.6-3.5 3.1-3.2 3.5.9.9 1.4 6.6.7 9.4-.4 2-.9 2.3-3 1.8-2.3-.6-2.4-.4-1.8 2 .6 2.2.4 2.6-.8 2.2-.8-.4-2.1.2-2.9 1.3-.8 1.1-2.5 1.9-4.2 1.9-3.2 0-3.6.7-4 8.1-.4 6.8 1.7 10.1 7.8 12.2 3.3 1.2 4 1.9 3.8 3.8-.1 1.3-.3 3.7-.4 5.2-.2 2.6-.5 2.8-3.1 2.3s-2.8-.4-2.2 1.9c.4 1.7-.1 3.3-1.5 5.1-1.2 1.5-2.1 3.3-2.1 4 0 .8-.9 1.4-2 1.4-1 0-2.5 1-3.1 2.2-.6 1.2-2.1 3.2-3.3 4.4-2.6 2.8-12.8 10.4-13.8 10.4-.5 0-.8.7-.8 1.6 0 .9-.8 1.8-1.8 2.1-1.1.2-4.3 3.1-7.2 6.4-4.8 5.6-5.1 6.1-3.4 7.3 1.6 1.2 1.3 1.4-2.5 1.8-2.3.2-4.5 0-4.7-.4-.7-1.1-5.2-1-5.9.2-.3.5-1.2.7-2 .3-.9-.3-2.1-.1-2.8.4-.6.5-2.2.8-3.4.7-1.3 0-2.3.3-2.3.7 0 .5-.7.9-1.5.9-.9 0-1.5.9-1.5 2.4 0 1.4-.5 2.8-1.1 3.1-.6.4-.8 1.3-.5 2.1.4 1.1.2 1.1-1.4.2-2.3-1.5-3.1-5.4-1.4-6.9.8-.6 1.4-2.4 1.4-3.9s.7-3.3 1.6-4.1c1.9-1.6 1.1-5.5-1.8-8.6-1.9-2-1.9-2.4-.5-5.3 1.5-2.9 1.3-5.8-.3-7-.4-.3-1-2.2-1.4-4.3-.6-3-.4-3.7.9-3.7.9 0 1.3-.5 1-1-.3-.6 0-1 .8-1s2.6-.9 4.1-2.1c2.1-1.6 2.4-2.4 1.6-3.9-.8-1.4-1.9-1.8-5.2-1.5-2.4.1-5.3.3-6.5.4-1.8.1-2.3.7-2.3 2.6 0 3.4-1.7 3.9-8.1 2.2-4.4-1.1-5.4-1.7-5.2-3.3.2-1-.1-2.5-.6-3.3-1.3-2-4.1.3-4.1 3.4 0 4.2-2.7 7.8-7.2 9.6-2.9 1.1-4.3 2.3-4.3 3.5 0 1.4-.7 1.9-2.7 1.9-1.4-.1-2.4.3-2.2.7.3.4 0 .8-.6.8-.8 0-.9.7-.5 1.7s.7 2.5.7 3.3c-.2 4.3 1 6.2 5.2 8 2.4 1 4.6 2.3 5 2.8.7 1.1 5.4.4 6.2-1 .4-.6.1-1.4-.6-1.8-.7-.5-1-1.5-.6-2.5.5-1.5.9-1.5 2.3-.4.9.8 2.4 1.3 3.5 1.1 1.2-.2 1.8.3 1.8 1.6 0 1.1.7 2.2 1.4 2.5.8.3 2.3 2.1 3.2 3.9.9 1.8 2.7 4 4 5 1.8 1.4 2.2 2.6 1.9 5.1-.3 2.3.2 3.8 1.8 5.6 1.5 1.6 1.8 2.5 1 2.8-.7.3-1.3 1.3-1.3 2.4 0 1.2-.5 1.6-1.5 1.3-.8-.4-1.5-.1-1.5.6 0 1-.3 1-1.5 0-1.4-1.2-2-.7-1.6 1.4.1.5-.6.6-1.5.2-1.3-.5-1.5-.2-.9 1.1 1.4 3.3 1.7 7.1.6 7.7-1.1.7-1.5 4.8-.5 5.8 1.1 1.2 6.4-2.4 6.4-4.3 0-1 .6-1.8 1.3-1.7.8.2 1.1-.8.9-3-.3-2.8 0-3.2 2.2-3.2s2.6.6 3.6 5.7c1.3 6.4 4.6 12.7 6.2 11.7.5-.3 1.6.3 2.4 1.5.8 1.2 2.2 2.1 3 2.1 1.5 0 5 3.5 4.7 4.8-.1.4.3 1.3.9 2 .8.9.6 1.7-.5 3-1.1 1.2-1.3 2.2-.6 3.5.6.9 1.4 1.5 1.9 1.2 1.3-.8 1.9 2.4 1.6 8.5-.1 3.8-1.1 7.2-3.1 11-1.6 3-3 7.1-3.1 9-.1 1.9-.7 3.6-1.4 3.8-.7.3-2.1 1.3-3.1 2.3-1.5 1.5-1.9 1.6-3 .3-.6-.8-1.9-1.4-2.8-1.4-1.2 0-1.3.2-.3.8.7.5 1 1.6.6 2.5-.8 2.3 1.4 7.5 3.7 8.7 1 .6 3.2 1 5 1 1.8 0 4 .7 4.9 1.5 1.5 1.3 2.2 1.3 6.6-.1 2.7-.9 5.4-2.2 5.9-2.8 1.6-1.7 4.1-1.3 6.9 1.3 1.9 1.8 3.1 2.1 5.4 1.6 2.6-.5 3.5-.1 6.7 3.2 2 2.1 4.3 5 5.1 6.5.8 1.5 2.3 2.9 3.3 3.3 1.1.3 2.3 1.6 2.7 2.8.8 2.4 5.7 7.7 7.3 7.7 1.3 0 .7 5.3-.7 5.8-.6.2-.9.9-.6 1.7.3.7.1 1.6-.5 1.9-.6.4-.5 2.1.5 4.9.8 2.3 1.2 5.2.9 6.4-.4 1.7.4 3.3 3 6 1.9 2 3.5 4 3.5 4.4 0 .4 1.6 1 3.5 1.3 1.9.4 3.6 1 3.9 1.4.4.7-1.8 13.8-3 17.4-.4 1.2.2 1.7 2.3 2 1.5.2 2.9.9 2.9 1.5.1.7.2 1.7.3 2.3 0 .5.7.7 1.5.4 1.1-.4 1.3.1 1 1.8l-.5 2.3 1-2.3c.6-1.2 1.8-2.2 2.6-2.2 2.2 0 8.4 6.2 6.8 6.7-.7.3-.9 1.1-.6 2 .4 1.1.2 1.4-.5.9-.8-.5-1.2.4-1.2 2.8 0 2.2-.7 4.3-1.8 5.4-1 1-2.1 2.5-2.4 3.4-.7 1.8 2.8 8.1 4.1 7.4.5-.3 1.2.5 1.5 1.9.4 1.4 1.3 2.5 2.1 2.5 1 0 1.5 1 1.5 3 0 1.6-.4 3-1 3-.5 0-1.5 2-2.1 4.4l-1.1 4.4-5.1-.4c-5.7-.4-7.7.7-7 3.6.4 1.5 0 2-1.5 2-1.1 0-2.3-.6-2.6-1.3-.3-.6-.3-.2 0 1.1.5 1.9.1 2.3-2.6 2.9-1.7.3-3.7 1.4-4.3 2.4-.7 1.1-2 1.9-2.9 1.9-1.1 0-1.8.8-1.8 2 0 2.6-1.9 3.4-5.3 2.1-1.7-.7-2.7-.7-2.7-.1s-.9 1-2.1 1c-3.4 0-5.9 1.9-5.9 4.5 0 1.6-.6 2.5-1.6 2.5-1.2 0-1.5.6-1 2.3.4 1.6-.3 3.1-2.5 5.4-2.9 3.2-2.9 3.3-2.3 11.3.6 6.6 1.1 8.3 2.7 9.1 1.6.9 1.8 1.8 1.3 5.1-.4 2.1-.2 5.7.4 7.8.9 3.5.8 4.2-1 6-1.1 1.1-2 2.4-2 3 0 .5-.8 1-1.8 1-1.6 0-1.8.7-1.4 5.4.3 3.3 0 5.6-.7 6-1.6 1-1.4 3.7.8 7.9 1 2 1.4 3.7.9 3.7-.6 0-.5.6.2 1.5.7.8 1.8 1.5 2.5 1.5.8 0 1.5 2.2 1.9 5.7.5 4.4 1.4 6.6 3.6 9 1.6 1.8 3.3 3.3 3.8 3.3.4 0 2.3 1.6 4.2 3.5 2.8 2.9 3.1 3.7 2 4.9-1 1.3-.9 1.7.4 2.2.9.3 1.6 1.1 1.6 1.8.1.6 1.3 2.8 2.8 5 3.2 4.4 9.3 7.2 10.8 4.9.7-1.1 1.4-1.2 3.7-.1 1.5.7 2.5 1.8 2.3 2.4-.3.7.2 2.2 1.1 3.4 1.6 2.3 2.2 8.8.9 10.8-.7 1.2-.6 1.4 1.6 1.6.7 0 1.4.9 1.6 1.8.2 1.2-.2 1.5-1.7 1.1-1.5-.4-2.1-.1-2.1 1.2 0 1.2-.5 1.5-2 1-2.8-.9-2.5 1.1.5 3.1 1.5 1 2.5 2.6 2.5 4 0 1.9.5 2.4 2.6 2.4 2.5 0 2.6.2 2.3 4.7-.2 2.7.2 5.8.9 7 1.1 2 1 2.4-.8 3.5-1.1.7-2 2.2-2 3.2 0 1.6-.3 1.7-1.2.8-.7-.7-1.5-1.2-1.9-1.2-1.1 0 .1 7.1 1.6 9.5.6 1.1 1.4 3 1.7 4.2.5 2 .2 2.3-2 2.3l-2.7.1 3 2.5c1.7 1.4 4.4 3.2 6 4.1 1.7.9 3.2 1.9 3.5 2.2.3.3 1.4 1.1 2.4 1.7 2.6 1.4 3.2 5.2.8 5-1.4-.1-1.7.8-1.7 5.2 0 2.8-.3 5.2-.7 5.2-.4 0-.7 1-.5 2.2.1 1.5-.5 2.6-2 3.3-1.6.7-2.3 1.8-2.3 3.8 0 2.8-.1 2.9-3.6 2.3-1.9-.4-4.2-1-5-1.3-1-.4-1.2 0-.7 1.3.3 1.1 1.1 2.2 1.7 2.6.8.5.7 1.1 0 1.8-.9.9-1.4.9-1.8.1-.4-.6-1.2-1.1-1.8-1.1-.7 0-.6.5.1 1.4.8 1 .9 1.6.1 2.1-.5.3-1 0-1.1-.7 0-.7-.4-.4-.9.7s-.9 1.5-.9.8c-.1-.6-.8-1.8-1.6-2.7-1.3-1.3-2-1.3-4.3-.3-1.5.6-3.2 1.9-3.9 2.7-.9 1-1.2 1.1-1.3.2 0-1.6-2-1.5-3.4.2-2.4 3-5 2.7-10.5-1.4-2.9-2.2-6.1-4-7.1-4s-2.2-.9-2.5-2c-.4-1.2-2.2-3.6-4-5.5-2.8-2.7-3.6-3.1-4.5-2-1.1 1.3-2.2 8.6-2.1 13.3.1 1.3-.4 2-.9 1.7-.6-.3-1-.1-1 .4 0 .6-.4 1.1-1 1.1-1.3 0-4.5 3.2-5.2 5.2-.5 1.1-2.1 1.5-6.2 1.5-4.3 0-6 .5-7 1.8-.9 1.2-2 1.6-3.5 1.2-1.7-.4-2.1-.2-1.7 1.1.3.9.8 3.3 1.1 5.4.4 2 1.8 4.7 3.1 5.9 1.6 1.5 2.2 2.9 1.8 4.2-.4 1.2-.2 1.7.4 1.3.5-.3 1.5.1 2.2.9.7.8 2 1.5 3 1.5s2.3.7 3.1 1.6c.7.9 2.8 2.3 4.8 3.2 4.5 2.2 7.1 5.9 8.2 11.5 1.3 7.2 3.7 12.3 5.1 10.9 2.1-2.1 6.5-1.5 7.2 1 .4 1.7.8 2 1.4 1 .7-1 1.1-1 2.1.2 1 1.1.9 1.9-.1 3.5-1.4 2.2-2.8 2.8-2.8 1.1 0-.6-.8-.2-1.8.7-1.4 1.4-1.6 2.6-1.1 5 .4 1.8.4 3.3.1 3.3-.3 0-.1.5.5 1.1 2 2-1.1 9-3.6 8.2-1-.3-.8.2.6 1.4 1.2 1 2.7 3.2 3.4 5 .9 2.9 1.3 3.1 3.5 2.2 1.4-.5 3.6-.6 4.8-.3 1.4.3 2.7-.1 3.5-1 .8-.9 2.4-1.6 3.7-1.6 1.7 0 2.4-.6 2.4-1.8 0-2.8 1-3.2 3-1.2 2.3 2.3 3 5.6 1.2 5.2-.8-.1-1.1.2-.7.7.9 1.5 4.9-.3 5.3-2.4.2-1-.1-1.5-.6-1.1-.5.3-1.2-.1-1.6-.9-.9-2.6 1.1-2.5 3.9.1 2.2 2.1 3.4 2.5 5.9 2 1.7-.4 3.6-1.2 4.1-1.9 1.2-1.5 6-3.7 8-3.7 1.9 0 5.5-3.1 5.5-4.8 0-.7.8-1.2 1.8-1 1.4.3 1.7-.6 2-5.5.3-5.5.4-5.7 3.1-5.7 2.2 0 3.2-.7 4.4-3.3.9-1.7 2-3.2 2.4-3.1 1.8.2 4.2-.9 3.8-1.7-.3-.4.7-1.5 2.2-2.3 3.8-1.9 7.7-6.2 6.8-7.5-.3-.6-.1-1.1.4-1.1.6 0 1.1-1.9 1.1-4.3 0-3.2.6-4.7 2.3-6.2 2-1.8 3.6-2.2 9.5-2.4 1.6-.1 2.2-.7 2.2-2.4 0-1.5.9-2.6 3-3.5 1.7-.8 3-1.9 3-2.5 0-.7 2.3-2.2 5.1-3.5 3.9-1.8 5-2.8 4.6-4.1-.2-1 .2-2.6.9-3.6 1.1-1.5 1.1-2-.2-3-1.1-.8-1.4-1.9-1-3.3.6-1.7 1.5-2.2 4.1-2.2 2.6 0 3.3-.3 2.9-1.5-.6-1.4.5-1.9 3.3-1.6.6.1 1.4-.8 1.8-1.9.7-2.3 2.5-2.7 2.5-.5 0 .8.9 2.2 1.9 3.2 1 1 2.1 2.7 2.3 3.8.2 1.1 1.2 2.1 2.3 2.3 1.1.3 2.4 1 2.8 1.8.4.8 1.8 1.4 3.1 1.4 4.7 0 8.6 1.3 9.1 3.1.7 2 8.6 6.2 12.4 6.4 1.4.1 3.3-.4 4.1-1 2.6-2.2 8.6-2.7 10-1 .9 1.1 1.6 1.2 2.6.4 1.5-1.3.8-3.9-1.2-3.9-.8 0-1.4-.5-1.4-1 0-.6.8-1 1.8-1 .9 0 2.7-1.1 4-2.5 1.3-1.3 3.3-2.5 4.5-2.7 1.5-.2 2.3-1.2 2.8-3.4.8-4.2 1.7-5.4 3.9-5.4 2.7 0 3.2 1.4 1.5 4.6-2.1 4.1-1.9 5.8 1.1 9.3 2.1 2.6 2.5 3.8 2 6.6-.6 3-1.1 3.5-3.5 3.5-1.6 0-3.4.6-4.1 1.4-.6.8-1.8 1.2-2.6.9-.8-.3-2.1 0-2.8.6-.9.8-1.6.8-2 .2-.4-.6-1.3-.8-2.1-.4-1.2.4-.9 1.2 1.5 3.9 1.9 2.2 3 4.6 3 6.5 0 4.3 2.4 8.4 5.9 9.9 3.3 1.3 4.9 4 2.5 4-1.2 0-1.5.6-1.1 2.1.6 2.2-1.9 5.9-4 5.9-.7 0-2.2.5-3.3 1.2-1.6 1-2.3.9-4.2-.9-1.8-1.7-2.7-1.9-4.1-1.2-2.9 1.7-6.1.7-6.7-2.1-.3-1.4-.9-2.3-1.4-2.2-.5.2-1.2-.2-1.6-.8-.6-.9-1.5-.8-3.6.3-2.2 1.1-3.5 1.3-4.9.5-1.9-1.1-1.9-1-.2.9.9 1.1 1.7 2.7 1.7 3.7 0 2.6 1.9 5.6 3.5 5.6.8 0 1.5.7 1.5 1.5s-.7 1.5-1.6 1.5c-.8 0-1.2.4-.9 1 .3.5.1 1-.4 1-.6 0-1.1 1.6-1.1 3.5 0 2.8.5 3.8 2.6 4.7 2.2 1 2.7.9 3.6-.5.8-1.5 1.2-1.6 3-.3 1.7 1.2 2.5 1.2 5.7-.2 2-1 4.6-2.7 5.9-4 1.2-1.2 4.2-2.8 6.7-3.4 2.5-.7 4.5-1.7 4.5-2.3 0-1.7 6-8.5 7.6-8.5.8 0 1.4-.7 1.4-1.5 0-1.9.6-2.1 9-3.9 4.1-.8 7.2-1 8.3-.4 1.1.5 1.7.5 1.7-.2 0-.5 1.6-1 3.5-1 2.8 0 3.5-.4 3.5-2 0-2.3 1.5-2.7 2.4-.5.8 2.2 4.4 1.8 5.1-.5.5-1.5 1.2-1.9 3.1-1.4 6.2 1.6 6.5 1.2 4.9-6.4-.9-4 .5-4.2 3.7-.4 2.6 3.1 7 5 6.1 2.6-.4-1 .3-1.4 2.1-1.4 1.4 0 3.5-.9 4.6-2 1.1-1.1 2.3-2.1 2.8-2.3.4-.1.6-.5.4-1-.1-.4.4-.7 1.2-.7 1.7 0 3 3.5 2 5.1-.5.8-.3.9.5.4.8-.4 1.1-2 .9-3.6-.5-3.5.4-3.7 3.3-.7 1.2 1.3 1.8 1.6 1.4.8-.6-1-.1-.8 1.3.4 1.2 1.1 2.2 2.5 2.2 3.2 0 .7 1.6 1.8 3.5 2.5s3.5 1.7 3.5 2.1c0 .4.3.7.8.6 1.3-.4 5.2 2.3 5.2 3.6 0 2.3 5.2 3 6.7 1 1.1-1.6 1.4-1.5 3.2.7 1.1 1.3 2.5 3.9 3.1 5.6.7 1.8 1.8 3.3 2.6 3.3s2.5.9 3.7 2c2.7 2.6 7.8 4 9.5 2.7.9-.7 1.7-.6 2.4.1s1.7 1.2 2.3 1.2c1.2 0 3.5-5.5 3.5-8.2 0-.9.7-1.9 1.6-2.2 1.1-.4 1.5-1.4 1.1-3.2-.4-2.3-.2-2.5 2.1-2.1 1.6.3 3-.1 3.7-1 .6-.8 1.7-1.1 2.5-.8 2.1.8 8 8.9 8 10.8 0 .9.9 2.1 2 2.7 1.1.6 1.7 1.6 1.4 2.5-.3.8.1 2.4.9 3.6.9 1.2 1.4 2.6 1.1 3.3-.2.6.6 1.6 1.8 2.1 1.3.6 2.6 2.4 3 4.2.5 1.8 1.4 3.3 2.2 3.3.7 0 2.3 1.1 3.6 2.5 1.3 1.4 2.9 2.5 3.7 2.5.7 0 1.3.7 1.3 1.5 0 1.6 1 1.8 7.7 1.6 3.9-.1 4.4.2 5.7 3.2.8 1.7 2.5 4.3 3.8 5.7 3.2 3.3 13.1 10 14.9 10 .8 0 2.1.9 2.9 2 1.6 2.2 6.6 2.8 7.2.9.3-.8 1.4-.7 3.5.5 3.7 1.9 6.3 1.2 6.3-1.6 0-1.5.5-1.9 2-1.5 1.2.3 1.8.1 1.4-.5-.4-.6 0-1.4.7-1.9 1-.6 1.1-.9.2-.9-1.9 0-1.6-1.7.7-4.3 1.2-1.2 2.7-2.9 3.4-3.7 2.1-2.4 5.6-9.7 5.6-11.8 0-1-.7-3.3-1.6-5-1.6-3.4-1.2-5.2 1.2-5.2.8 0 1.4-.6 1.4-1.4 0-1.9 4.7-5.6 7.1-5.6 1.1 0 1.9-.7 1.9-1.5 0-1 1-1.5 2.8-1.6 8.7-.1 11.5-.6 12.4-2.2.5-.9 2-1.7 3.4-1.7 4 0 9.3-2.7 10.6-5.5 1-2.3 1.3-2.4 2.9-.9 2 1.8 7.8 1.1 8-.9.1-.7.2-1.9.3-2.7.1-1 1-1.4 3-1.2 1.6.2 3.6-.4 4.6-1.3 1-.9 3.5-1.9 5.6-2.2 2.2-.3 4.9-1.5 6.2-2.6 1.4-1.3 2.6-1.7 3.1-1.1 1.3 1.3 1.7 5.6.7 7.2-.5.8-.1 2 .9 3.2 2.7 3 2.7 8.6-.1 11.2-1.3 1.3-2.4 2.6-2.4 2.9 0 1 6 3.3 6.7 2.5.3-.3 1.2.3 2 1.4 1.6 2.2 4.2 2.7 4.4.7.1-.6.2-1.7.4-2.2.1-.6.3-1.8.3-2.8.1-.9.9-1.7 1.8-1.7 1 0 1.4-.5 1-1.5-.4-1.1 0-1.5 1.2-1.3 1 .2 1.7-.3 1.7-1.2 0-.8.3-1.8.7-2.1.5-.3.9-1.7 1-3.1.1-1.5 1-2.9 1.9-3.1 1-.3 1.8-1.9 2.2-4.3.4-3.3.1-4.2-2.1-6.1-1.4-1.2-3.1-1.9-3.6-1.5-1.7 1-5 .2-6.3-1.6-1.7-2.1-1.6-3.2.2-3.2.8 0 1.5-.5 1.5-1 0-.6 1.2-1 2.6-1 1.4 0 2.3-.4 2-.9-.9-1.3.4-4.1 1.9-4.1.6 0 2.2.9 3.5 2 3 2.6 4 2.5 8.5-.5 2.5-1.8 4.1-2.3 4.9-1.6 1.7 1.4 9.6-.7 9-2.4-.4-.8.6-1.6 2.5-2 1.7-.4 3.1-1.2 3.1-1.8 0-.7.9-1.8 2-2.5 1.6-1 1.8-1.6 1-3.8-1.3-3.3-1.3-3.4.5-3.4 1.6 0 4.5-4.9 4.5-7.8 0-1.3.9-2.1 2.8-2.5 2.7-.6 7.2-6.2 7.2-9.1 0-.8.8-1.7 1.8-2.1 1.4-.5 1.1-.9-1.7-2.1-4.2-1.8-4.1-1.8-4.1.5 0 1-.7 2.1-1.5 2.5-.8.3-1.5 1.2-1.5 2.1 0 .8-.6 1.5-1.4 1.5-.8 0-2.2.7-3.1 1.6-1.3 1.4-2.1 1.5-4.1.5-1.4-.6-3-.8-3.5-.5-.6.3-1.3-.3-1.6-1.5-.3-1.2-1.3-2.1-2.2-2.1-1 0-2.6-.6-3.6-1.4-2.2-1.6-6.1-.3-4.9 1.6.4.7.3.8-.4.4s-1.7.3-2.3 1.8c-.7 1.4-2.5 3.1-4.1 3.8-1.5.7-3.1 2.1-3.4 3-.7 2.3-1.6 2.3-6.7-.3-2.3-1.2-4.3-2.1-4.5-2-.1.1-1.9-.3-4-.9-5.2-1.4-5.5-1.3-4.8 1.4.4 1.6.1 2.6-.8 2.9-1 .4-1.4-.3-1.3-2.8.1-1.9-.6-4.2-1.5-5.2s-1.6-2.3-1.5-2.8c0-.6-.7-1.2-1.7-1.3-1.3-.3-1.7.2-1.4 2 .3 2.1-.1 2.3-3.6 2.3-2.2 0-4.1.5-4.3 1.2-.3.9-1 1-2.4.3-1.6-.9-1.9-.7-1.9 1 0 1.1.6 2 1.4 2 .8 0 2.7 1.3 4.2 3 2 2.1 3.1 2.6 3.6 1.7.5-.7.8-.1.8 1.6 0 1.8-.6 3-1.7 3.3-1 .3-2.6 1-3.6 1.5-1.4.8-2.4.6-3.8-.7-1.1-1-1.8-2.3-1.5-3 .2-.6-.3-2-1.2-3-.9-1.1-1.7-3.2-1.7-4.9 0-2.5-.5-3.1-2.9-3.5-2.1-.3-3.6-1.6-5-4l-2.1-3.5 2.7 1.7c3.3 2.2 7.4 2.3 8.1.3.5-1.2 1.1-1.2 4.4.1l3.8 1.6-2-2.3c-1.1-1.3-3.2-3.8-4.8-5.5-2.2-2.5-3-4.4-3.2-8.3-.2-2.8-1-6.8-1.7-8.9-1.3-3.9-5.5-9.1-7.4-9.2-1.5 0-5.4-4.3-5.4-5.9 0-.7-.8-2.6-1.7-4.3-1.7-2.8-1.7-3-.1-3.9 1-.5 1.5-1.6 1.2-2.4-.4-1 0-1.5 1.2-1.5 1.8-.1 1.8-.1 0-1.5s-1.8-1.5-.2-1.5c1.3 0 1.6-.5 1.1-2.1-.5-1.5-.2-2.2 1.4-2.6 1.3-.3 2.1-1.3 2.1-2.8 0-1.2.9-3 1.9-3.9 2.7-2.5 3.2-7.4 1-11.4-1.1-1.8-1.9-4.3-1.9-5.7 0-2.6 2.1-4.6 2.8-2.7.2.7 1.2 1.2 2.3 1.2 1 0 2.8.9 3.9 2s2.2 2 2.5 2c1 0 .5-3.6-.7-4.8-.8-.8-.9-1.2-.1-1.2.6 0 1.8.7 2.7 1.5 1.6 1.7 4.1 2.1 3.1.5-1-1.6 1.1-1.2 2.5.5 1.1 1.3 1 1.4-.2 1-1.2-.5-1.7.2-2 2.8-.5 4.7 0 6.1 1.7 4.7 1-.9 1.6-.7 2.4.9 1 1.8 1.4 1.9 3.9.6 1.5-.7 3.9-1.9 5.5-2.6 1.5-.7 2.6-1.7 2.5-2.3 0-.6.2-1.9.7-2.9.4-1 .2-2.3-.4-3.1-.6-.7-.8-1.6-.4-1.9.3-.4 1.8.7 3.3 2.4 2.2 2.7 3.1 3.1 5.4 2.5 1.6-.4 3-1.6 3.3-2.6.3-1.1.9-2 1.4-2 .5 0 .9-.6.9-1.4 0-.8.9-1.8 2-2.1 1.1-.3 2-1.3 2-2.1 0-.9 1.8-3.3 4-5.4 2.7-2.6 4-4.7 4-6.5 0-1.4.5-3.5 1-4.6.9-1.5.6-2.6-1.1-5.1-2-2.7-2-3.1-.5-2.5.9.4 2.6.2 3.6-.3 1.7-.9 1.7-1.2.4-4-.9-1.6-2-3-2.6-3-.5 0-2.9-1.4-5.3-3.1-2.7-1.9-5-2.9-6-2.5-1.2.4-1.5.1-1-1.3.4-1.3-.7-3-3.7-6l-4.3-4.2 2.3-1.7c1.6-1.3 2.1-2.3 1.6-3.6-.5-1.2-.2-2.2.9-2.7 1.3-.8 1.5-2.2 1.1-7.7-.7-10.2-.9-11.3-3.8-17.6-1.4-3.2-2.6-6.5-2.6-7.3 0-.8-1.1-2.9-2.5-4.7-1.3-1.8-2.5-4.5-2.5-6.2v-4.9c-.1-1.1.2-3.2.5-4.6.5-1.7.2-3.1-.9-4.2-.9-.8-1.6-2-1.6-2.6 0-.5-.9-1.3-2-1.6-1.1-.3-2-1.5-2-2.6 0-1.2-.7-1.9-1.9-1.9-1.1 0-2.9-1.4-4.1-3-1.2-1.7-2.6-2.8-3.1-2.4-.5.3-2.8-1.3-5-3.6s-4.7-3.9-5.4-3.6c-.7.2-3-.4-5.1-1.5-4.3-2.1-5.8-2.4-4.9-.9.4.6.3 1-.2.9-1.5-.4-4.3 1.3-4.3 2.6 0 2.4-2.1 2.8-3.6.7-1.3-1.9-6.4-3.7-6.4-2.2 0 .4-.9 1-2 1.3-1.7.4-2 .2-1.5-1.3.6-1.9-1.8-5-3.8-5-.6 0-2.4 1.2-4 2.7l-2.9 2.8-2.4-3c-1.3-1.7-2.4-4.2-2.4-5.8 0-1.5-.4-2.7-1-2.7-1.9 0-1-3.8 1-4.3 1.6-.4 2-1.4 2-4.5 0-2.2.6-4.5 1.4-5.1 1.7-1.4.9-6.1-1.1-6.1-1.3 0-1.3-.3-.3-1.5s.9-2.3-.4-5.5c-1.5-3.7-1.5-4 .2-3.7.9.2 2.8.9 4.1 1.6 1.3.7 3.4 1.1 4.8.8 1.7-.3 2.3-.1 1.9.9-.3.8.4 1.8 1.4 2.4 1.4.8 2 .8 2 0 0-.6 1-.8 2.3-.5 3.1.7 4.5-.5 4.9-4.5.2-2.2.8-3.5 1.8-3.6 4.6-.3 5-.5 5-2.5 0-1.7.4-2 2.3-1.4 1.2.3 2.9.6 3.7.5.8 0 2.7-.1 4.2-.1 1.9 0 3.2-.7 3.9-2.2 1.4-2.7 5-6.7 6-6.7.4 0 1 .8 1.3 1.7.4 1.4 1.6 1.8 4.7 1.6 2.3 0 4.5-.6 4.9-1.3.4-.6 2.5-1.4 4.7-1.7 3.6-.5 4.2-.9 5.2-4.3.6-2 1.1-4.7 1.1-5.9 0-1.2.6-2.1 1.5-2.1.8 0 1.5-.7 1.5-1.5 0-1 1-1.5 3-1.5 1.9 0 3.3-.7 4-2 .8-1.6 1.7-1.9 3.3-1.4 2.1.6 2.1.6.4-2-1.9-2.8-1.6-3.2 1.3-1.6 1.4.8 2.1.6 2.8-.6.7-1.2 1.6-1.4 4.3-.7 2.8.8 3.4 1.4 3.5 3.7.1 1.5-.5 3-1.2 3.3-1 .4-1.1 1-.3 2.4.7 1.4.6 1.9-.3 1.9-.7 0-2.1.7-3 1.4-1.4 1.1-1.6 1.9-.8 4.7.8 2.6.7 3.7-.5 4.8-1.2 1.3-1.2 1.6.2 2.6 1.3.9 2.5.7 6-1.2 2.5-1.3 4.9-2.1 5.4-1.8.5.4.9.1.9-.4 0-.6.7-1.1 1.5-1.1s1.7-1.1 2.1-2.5c.7-2.8.8-2.9 3.5-1.4 1.1.6 1.8 1.7 1.5 2.4-.8 2.1 4.3 2.9 6.5.9 1-.9 2.5-1.4 3.4-1.1.9.4 1.5.1 1.5-.8 0-.8.9-1.9 2-2.5 1.1-.6 2-1.8 2-2.6 0-1 .6-1.4 1.5-1 2.2.8 1.8-1.1-.6-2.8-1.2-.8-1.8-1.9-1.5-2.4.3-.5 0-1.5-.8-2.1-.7-.6-1.6-2.9-2-5.1-.4-2.3-1.5-4.5-2.7-5.4-1.9-1.3-2.1-2.1-1.5-6.3 1.9-13.9 1.9-16.6.3-19.7-3.1-6.3-4.3-12.1-2.6-13.1 1.5-1-2.4-6.2-6.6-8.9-4.4-2.7-7.9-3.3-9-1.6-.4.6-1.4 1-2.3.8-1-.1-2.2.1-2.8.4-.6.4-2.5-.5-4.2-2-1.8-1.5-6.2-5.2-9.9-8.2-10.6-8.8-16.1-14.3-15.7-15.5.4-1.1-1.9-4.3-8.7-12.4-3.7-4.4-4.2-6.1-2.2-7.7 1.7-1.4 1.7-1.4-.2-2.7-1.1-.6-2.7-1.2-3.5-1.2-.9 0-1.4-.9-1.3-2.2.3-2.5-2.1-2.2-3.1.4-.5 1.3-.9 1.3-2.3.2-1.5-1.2-1.6-1.2-1 .4.4 1.1.1 2-.8 2.3-.8.4-1.5 1.2-1.5 1.9s-.7 1.6-1.6 1.9c-.8.3-1.2 1-.9 1.6.3.5.1 1-.6 1s-.9.3-.5.7c.3.4 2.7.6 5.2.4 4.2-.2 4.5 0 4.2 2.1-.2 1.8-1.1 2.4-4 2.9-3.1.5-4.1.2-5.8-1.8-1.1-1.2-2.6-2.3-3.3-2.3-.7 0-2.3-1.4-3.6-3.1-1.2-1.6-3.3-3.5-4.7-4.1-1.3-.6-2.4-1.7-2.4-2.5 0-.7-.7-1.3-1.5-1.3-1.8 0-8.5-3-10.7-4.8-1.3-1-2.1-1.1-3.7-.2-1.7.9-2.5.8-3.8-.5-1.1-1.2-2.6-1.5-4.6-1.1-1.6.3-3.3.6-3.8.6-.4 0-1.6 1.6-2.5 3.5-1.5 3.1-2 3.5-4.6 3.1-3.3-.5-6.8-3.2-6.5-4.9.1-.6-2.3-1.8-5.3-2.6-3.1-.9-7.6-3-10.2-4.8-4-2.7-4.9-2.9-5.9-1.7-1.7 2.1-5.5 1.7-7.6-.9-3.2-4.1-8.1-7.1-9.5-6-.7.6-2.7 1.1-4.5 1.1-3.4.1-9.3 2.7-9.3 4.2 0 .8-3.3.7-14.2-.3-.9-.1-1.5-.4-1.2-.8.2-.4-.2-1-.8-1.2-1-.4-1-.6 0-.6.6-.1 1.2-1.3 1.3-2.9 0-1.5.3-2.1.6-1.4.7 1.9 2.3.4 2.3-2.3 0-1.3.5-2.7 1-3 .8-.5.8-1.1 0-2-.6-.7-.8-1.9-.4-2.8.3-.8.1-1.8-.5-2.2-.8-.4-.8-1.2 0-2.7.7-1.3.8-2.3.1-2.7-.5-.3-1.2-1.5-1.4-2.6-.2-1.1-1-1.9-1.7-1.7-.7.1-1.9-.2-2.6-.8-.9-.8-1.5-.8-2 0-.9 1.5-2.5 1.2-2.5-.5 0-2.2-5.2-6.7-6.4-5.5-.6.6-1.3 1-1.7 1-1.2 0-11-13-10.8-14.3.3-2.6-.2-3.6-1.4-3.1-.8.3-1.9-.1-2.5-.9-.9-1-2.5-1.2-6.4-.6-5 .6-5.5.5-8.6-2.5-2-1.9-4.4-3.1-6-3.1-2 0-2.8-.6-3-2.1-.2-1.2-1.4-2.7-2.7-3.4-1.9-1-2.8-.9-5.3.6-4.4 2.5-5.1 6.4-1.3 6.4 3.9.1 4.6 1.6 2.6 5.9-1 2.3-2.2 4.1-2.7 4.1-.4 0-.8 1.1-.8 2.3 0 1.3-.9 3.2-2 4.2-1.6 1.4-1.9 2.6-1.5 4.7.5 2 .2 3-.9 3.4-.9.3-2.1 2.4-2.6 4.5-.6 2.2-1.5 3.7-2 3.4-.6-.4-1 .1-1 .9 0 .9-.7 1.6-1.5 1.6s-1.5.5-1.5 1.1c0 .6-.7.8-1.6.5-1-.4-1.3-.2-.8.6s-.1.9-2.1.4c-3.6-.9-5.5-2.9-4.9-5.3.4-1.3-.8-3.1-4-6-5.1-4.7-8.1-6-10-4.4-1.5 1.2-6-1.4-5.1-3 .4-.5 0-.9-.8-.9-1 0-1.7-1.6-2.1-5-.4-2.9-1.1-4.8-1.6-4.5-1.6 1-1.1-1.2.7-3 1.3-1.4 1.4-1.8.2-2.5-.8-.5-1.9-.4-2.6.2-.9.7-1.9.6-3.6-.5-1.3-.8-3.4-1.7-4.8-1.9-1.6-.2-2.5-1-2.7-2.5-.2-1.2-1.4-2.9-2.7-3.7-1.5-1-2.2-2.2-1.9-3.1.4-.8.1-1.5-.6-1.5-.8 0-1.1-1.1-.7-3.3.4-2.6 0-3.6-2.2-5.5l-2.6-2.3 3.3.6c2.5.5 3.3.3 3.9-1.2.3-1 1.1-2.1 1.7-2.5.8-.5.7-1.4-.2-2.8-.7-1.2-1-3-.7-4.1.4-1.1.1-2.6-.5-3.4-1-1.2-.9-1.5.9-1.5 2.3 0 2.8-2.2.9-3.7-2.1-1.6-8.8-1.3-8.8.3 0 .8-.5 1.4-1.2 1.4-.9 0-.9.3 0 1.2.7.7 1.2 2.5 1.2 4 0 2.5-.3 2.8-2.3 2.2-2-.4-2.6 0-3.7 2.6-1.7 4.1-2.4 4.4-6 2.5-2.7-1.4-3.1-1.4-3.6 0-.5 1.2-.9 1.3-2.1.4-.7-.7-1.2-1.8-.9-2.6.3-.7 0-1.3-.6-1.3s-2-.7-3-1.7c-1-.9-3.7-1.7-6.3-1.8-2.4 0-4.8-.4-5.1-.8-.4-.4-.2-.7.4-.7.7 0 2.1-.9 3.2-2s1.7-2 1.4-2c-.4 0-.2-.6.4-1.3 2.1-2.5-4-7.3-7.2-5.5-1.1.6-1.6.5-1.6-.5 0-.8-.9-2.2-2.1-3.3-1.3-1.2-1.8-2.6-1.5-4 .3-1.1.3-2.4-.1-2.8-1.4-1.4-3-7.5-2.2-8.7.4-.8.3-1.6-.3-2-1.6-1-3.8-8.1-3.2-10.2.7-2.2-3.2-8.7-5.3-8.7-1.9 0-4.8-3.4-7.3-8.8-1.1-2.3-2.6-4.2-3.2-4.2-.6 0-.2-1.1 1.1-2.3 2.2-2.5 2-6.3-.4-5.3-.7.2-2.2-.2-3.3-.9-1-.8-2.2-1.2-2.5-.8-.4.3-1.3 0-2.2-.7-1.2-1-1.5-1-1.5 0 0 .9-1 1-3.5.6-2.8-.6-3.5-.4-3.5.9 0 .9-1.4 2.2-3.1 2.8-2.6 1-3 1.6-2.8 4.7.1 1.9-.1 4.2-.4 5-.3.8-.7 2-.9 2.6-.2.8-1 .9-2.8.1-4.1-1.7-5-1.6-5 .3 0 2.9-2.8 4.6-5.2 3.1-1.1-.7-1.8-.9-1.5-.4.8 1.3-7.3 9.9-10 10.7-1.3.4-2.3 1.2-2.3 1.7s-.6.9-1.4.9c-.7 0-2.5 1.1-3.9 2.4-3 2.8-4 2.8-8.9-.1-3.1-1.8-3.7-1.9-4.2-.6-.4 1-1.2 1.3-2.4.8-1.6-.7-2.8-.9-8.9-1.3-2.7-.2-2.1-2.7.7-3.5 1.6-.4 1.8-1.2 1.3-4.8-.3-2.4-1.2-4.7-1.9-5.2-.7-.4-1.5-2-1.9-3.5-.3-1.5-1.5-4.3-2.7-6.2-3.6-5.7-4.9-10.2-3.5-11.9.9-1.2.9-1.3-.1-.7-1.1.7-3.2-2.9-3.2-5.6 0-1.1 6.1-.6 10.8.8 1.9.5 2.4.2 2.9-1.5.3-1.3 1.1-2 1.9-1.7 1.9.7 1.8-.1-.5-3-1-1.3-2.1-2.1-2.4-1.7-1 1-5.8-2.7-5.1-3.9.4-.6.3-.8-.3-.5-.6.4-2.5 0-4.2-.9-3.1-1.5-4.3-2.8-1.7-1.8 1.8.7 2.8-2.3 1.6-4.7-.6-1-1.2-1.8-1.3-1.8-.1.1-1.3.4-2.7.6zm227 134.4c0 .6-.4.7-1 .4-.5-.3-1-1.1-1-1.6 0-.6.5-.7 1-.4.6.3 1 1.1 1 1.6zm-326.9 13.2c-.8.8-1.1.3-1.1-1.9.1-2.5.2-2.7 1.1-1.1.8 1.4.8 2.2 0 3zm314 40.7c-1.4.8.1 5.5 2.6 8.2 2.8 3.1 8.9 5.8 10.2 4.5.8-.8 1.7-.6 3.2 1 1.8 1.8 1.9 2.3.8 4.1-1.1 1.8-1.1 2.4.3 3.9 1.7 2 1.3 4.3-.8 4.3-.8 0-1.4.5-1.4 1.1 0 2-3.5 5.6-4.9 5.1-.8-.3-1.9.2-2.6 1.1-1 1.4-1.7 1.1-5.5-1.9-2.8-2.2-5-3.2-6.2-2.9-3 1-3.8-.3-2.3-3.7 1.2-3 1.1-3.4-1.3-5.6-1.9-1.8-2.2-2.6-1.2-3.2.7-.4 1-1.5.7-2.5-.4-.9-1.2-1.3-1.8-.9-.8.5-.9.3-.4-.6.4-.7.4-1.5-.1-1.9-.5-.3-1.4-1.7-2.1-3.2-1-2.3-.8-2.6 1.9-3.8 1.6-.7 3.8-1.1 4.8-.8 1.3.3 2 0 2-.9 0-.8.7-1.4 1.5-1.4s1.5-.5 1.5-1.1c0-.5.5-.7 1.1-.3.8.5.8.8 0 1.4zm273.9 84.1c0 .6-.4.7-1 .4-.5-.3-1-1.1-1-1.6 0-.6.5-.7 1-.4.6.3 1 1.1 1 1.6zm-118 81.3c0 .9-3 1.4-3.5.6-.4-.6.3-1 1.4-1 1.2 0 2.1.2 2.1.4zm-406 30.7c0 .6-.4.7-1 .4-.5-.3-1-1.1-1-1.6 0-.6.5-.7 1-.4.6.3 1 1.1 1 1.6zm470.6 244.7c1.8 1.2 2.5 6.9 1 7.5-1 .4-1.2-.1-.8-1.6.5-2 .4-2-1.1-.8-.9.7-1.4 1.8-1 2.4.4.6.1.7-.6.2-.8-.4-1-1.7-.6-3.4.4-1.4.8-3.2.8-3.9 0-1.4.7-1.5 2.3-.4zm7.9 16c-.8.8-2.5-1-1.9-2 .4-.6.9-.5 1.5.3.4.7.6 1.5.4 1.7zm-241.5 16.1c0 .5-.6 1.4-1.4 2-1.1.9-1.5.8-2-.5-1.3-3.3-.7-4.5 1.4-3.4 1.1.6 2 1.4 2 1.9zm31.5 2.9c-.3.3-1 0-1.5-.8s-1.4-1.6-2-1.6c-2.3-.3-2.4-.5-1-1.4 1-.6 2-.3 3.3 1.1 1.1 1.1 1.6 2.3 1.2 2.7zm10.3 3.5c.6.5 1.2 1.3 1.2 1.8 0 .6-.4.7-1 .4-.5-.3-1 .1-1 .9 0 1-.6 1.3-1.5 1-.8-.4-1.5-1.7-1.5-2.9 0-2.3 1.3-2.7 3.8-1.2zm102.7 67.7c-.3.5-1 1-1.6 1-.5 0-.9-.5-.9-1 0-.6.7-1 1.6-1 .8 0 1.2.4.9 1z"/><path d="M249.02 14.269c-1.3 1.6-.9 2 3.4 3l3 .8-2.4-2.6c-2.9-3.1-2.6-3-4-1.2zM296.92 29.069c0 .4.8.8 1.8.8s2.4.6 3.1 1.2c1.1 1.1 1.1.9.2-.9-1-2-5.1-2.9-5.1-1.1zM135.52 44.369c-.3.9-.6 2.2-.5 2.8 0 .7.5.1 1-1.2s.8-2.6.5-2.8c-.2-.2-.6.3-1 1.2zM130.32 53.369c-.9 2-2.7 4.4-4.1 5.5-1.3 1-2.4 2.1-2.4 2.4.4 4.2-.2 5.4-3.1 6.7-2.1.9-3.4 2.2-3.6 3.6-.2 1.3-.8 2.3-1.3 2.3s-.9.8-.9 1.9c0 1-.6 2.4-1.4 3.1-2 1.6-.1 5.8 3.1 6.6 1.3.4 2.3 1 2.3 1.4 0 1.2 4.9 6.9 6.9 7.9 2.7 1.5 8.1-1.6 8.1-4.5 0-1.3.6-2.4 1.3-2.4 1.5 0 1.7-6.2.2-7.2-.6-.5-.5-.8.3-.8.7 0 1.1-.4.8-.9-.9-1.4.5-4.1 2.1-4.1.8 0 1.1-.5.8-1-.3-.6.1-1 1-1 1.1 0 1.5-.5 1.2-1.4-.3-.8.4-3.3 1.6-5.5l2.2-4-2.1-2.8c-1.2-1.5-3-2.9-4-3.1-1.1-.1-2.5-1.6-3.3-3.2-1.7-4-3.6-3.8-5.7.5zM403.92 95.969c0 .5.5.7 1 .4.6-.3 1-.8 1-1.1 0-.2-.4-.4-1-.4-.5 0-1 .5-1 1.1zM396.42 96.869c-2.1.9-2.1.9 1.3 1.6 1.2.2 2.2 0 2.2-.5s.8-1.2 1.8-1.4c1.1-.3.8-.5-.8-.5-1.4 0-3.4.3-4.5.8zM125.52 97.769c-.3.5.1 1.1.9 1.5 1.5.6 2.9-.7 1.8-1.8-.9-.9-2.1-.8-2.7.3zM455.92 119.269c0 .2.9.6 2 .9 1.1.3 2 .1 2-.4s-.9-.9-2-.9-2 .2-2 .4zM132.22 121.769c-2.2 1.1-3.3 2.3-3.3 3.8 0 1.2-1.3 3.7-3 5.5-3.4 3.7-3.5 4.1-1.5 5.8 2.3 1.9 8.6 2.1 8.3.2-.2-.8.3-1.7 1.1-2 .9-.3 1.1 0 .6.8-.5.9-.2 1 1.3.6 1.1-.4 2.3-.2 2.7.4.8 1.3 5.5 1.3 5.5 0 0-.6-.8-1-1.9-1-1 0-2.4-.7-3.1-1.5-.7-.8-.9-1.5-.4-1.5.4 0 .3-.5-.4-1.2-.8-.8-.8-1.7-.1-3 .7-1.3.7-3-.1-5.3-1.3-3.9-1.2-3.9-5.7-1.6zM451.42 123.869c-.3.5.1 1 .9 1 .9 0 1.6-.5 1.6-1 0-.6-.4-1-.9-1-.6 0-1.3.4-1.6 1zM120.52 136.769c-.3.5 0 1.4.7 1.9 1 .8 1.3.6 1.4-.9.2-1.9-1.1-2.6-2.1-1zM94.32 176.869c.3 1.7.1 3-.4 3-1.2 0-1.2 1.1 0 3 1.6 2.6 3.3-.2 2-3.5-.9-2.3-.7-3 .7-4.1 1.7-1.2 1.6-1.3-.6-1.4-2.1 0-2.3.3-1.7 3zM91.42 186.569c-.4 1.3-1.2 2.3-1.7 2.3s-.6.5-.3 1.1c.9 1.4 3.8-2.7 3.1-4.4-.3-.7-.7-.3-1.1 1zM35.52 191.969c.5.9-.6 1-4 .5-3-.5-4.6-.4-4.6.3 0 .6-1.1 1.1-2.4 1.1-1.4 0-2.8.5-3.1 1-.4.6-1.6.8-2.6.5-1.1-.4-3.1 0-4.4.9-1.3.9-3.1 1.3-3.9 1-2-.8-2 0 .1 4.4 1.2 2.6 1.4 3.7.5 4-1.6.5-1.5 1.7.2 3.5.8.7 1.6 3.5 1.8 6.1.2 4-.1 5.1-1.8 6.2-1.8 1.3-2.4 1.2-4.9-1-1.6-1.4-3.8-2.7-4.9-3-2-.5-2-.4.1 1.3 1.2 1 2 2.1 1.7 2.4-.3.3.5 1.1 1.8 1.8 3 1.6 3.8 2.8 3.8 6 0 1.7.8 3 2.5 3.9 2.2 1.2 2.3 1.5 1 2.3-.8.4-1.2 1.3-.8 2 1.1 1.8 2.1 9.7 1.1 9.7-1.5 0-.8 1.5 2.5 5 2.8 3.1 3.8 3.5 7.6 3.5 2.5-.1 4.6-.6 4.9-1.3.2-.6 1-.8 1.8-.5.8.3 1.4 0 1.4-.7s.8-.9 2.1-.5c2 .7 2.1.4 1.6-2.1-.6-3.2 1-4.8 7.1-7.5 1.7-.8 3.2-1.7 3.2-2.1 0-.5 1.6-.8 3.5-.8 3.1 0 3.4-.3 2.7-1.8-1-2-.9-2.8.5-6.2.5-1.4.8-4.2.5-6.3-.3-2.9-.1-3.7 1.2-3.7.9 0 1.6-.8 1.6-1.8 0-.9.9-2.3 2-3 1.2-.7 2-2.3 2-4.1 0-3 2.3-5.7 5.5-6.3 1.3-.2 2.1-1.2 2.3-2.8.2-2.8-1.6-6.2-2.4-4.4-1.6 3.9-3 4.6-7.7 3.9-3.3-.5-4.8-1.3-5.2-2.6-.8-2.4-6.5-5.6-6.6-3.7-.1.7-.4.2-.8-1.2-.5-1.8-1.4-2.4-2.8-2.3-1.2.1-2.7-.4-3.3-1.2-1.5-1.8-3.4-2-2.4-.4zM85.62 194.869c-1.3 1.9-1.9 2-6 1-4-.9-5.1-.7-7.9 1-1.8 1.1-2.7 2-2 2 .6 0 1.2 1.2 1.2 2.6 0 1.9-.4 2.5-1.5 2-1.9-.7-1.9-.2.1 3.5 1.7 3.4 1.3 5.9-1.1 5.9-1.1 0-1.4.6-.9 2.5.5 2 .1 2.7-2 3.6-2 1-2.3 1.5-1.5 2.6 1.5 1.8 5.4 1.7 6.9-.2 1-1.2 1-2.1.1-4.1-1.5-3.3-1.4-3.3.9-2.7 1.5.4 2.3-.2 3.2-2.4.8-1.7 1.9-2.8 2.6-2.5 2.1.7 6.2-3.8 6.2-6.9 0-3 1.4-4.6 2.5-2.9.7 1.2 3.2-1 3.5-3.1.6-4.3-1.8-5.4-4.3-1.9zM96.92 201.369c0 1.8 2.4 3 4 2 .8-.5.8-1.1-.1-2.1-1.5-1.9-3.9-1.8-3.9.1zM635.92 215.869c0 .5.5 1 1.1 1 .5 0 .7-.5.4-1-.3-.6-.8-1-1.1-1-.2 0-.4.4-.4 1zM43.12 257.069c.6 1.8 2.5 2.1 2.5.3 0-.8-.7-1.5-1.4-1.5-.8 0-1.3.5-1.1 1.2zM194.52 369.569c-.9 2.2.8 3.7 3.1 2.9 1.5-.6 1.5-.8.3-1.6-1-.7-1.1-1-.2-1 .6 0 1.2-.5 1.2-1 0-1.7-3.7-1.1-4.4.7zM179.72 372.769c1.2 1.2 2.2 2.8 2.2 3.5 0 1.8 2.3 3.6 3.6 2.8 1.7-1.1 2.5-4.2 1.1-4.2-.7 0-3-.9-5.2-2.1l-4-2.1 2.3 2.1zM632.02 382.269c-1.7 1.8-2.8 2.3-3.5 1.6-.5-.5-2.4-1-4-.9-1.7 0-2.4.3-1.6.6.8.2 2.2.7 3 1 .8.4 1.8.7 2.2.7.3.1.9.4 1.3.8s1.3.4 2.1.1c.8-.3 1.8.5 2.5 2 .6 1.4 1.8 2.8 2.6 3.1 2.3.9 2.6-2.1.5-5.1-1.1-1.5-2.1-3.6-2.3-4.6-.4-1.7-.7-1.6-2.8.7zM682.12 538.769c.4 1.3 1.8 1.6 1.9.4 0-.4-.5-.9-1.1-1.2-.7-.2-1.1.2-.8.8zM687.82 541.669c.7 1.3.6 2.3-.1 3-.9.9-.6 1.2 1.3 1.2 3 0 3.5-2.8 1-4.7-2.3-1.8-3.3-1.6-2.2.5zM677.52 542.369c-.4 1.1.1 1.4 1.9 1.3 1.4-.1 2.5-.8 2.5-1.5 0-1.8-3.7-1.6-4.4.2zM652.32 580.569c-2.9 1.4-3.1 1.9-2.7 5.4.4 2.3.1 4.5-.7 5.3-.7.9-.9 2.7-.5 4.5.5 2.4.2 3-1.4 3.6-2.8.9-2.6 3.1.4 5.9 1.4 1.3 2.5 2.8 2.5 3.4 0 .5.7 1.2 1.5 1.6 1.8.7 2 4.3.3 4.8-.8.3-.4.9 1 1.7 2 1 2.3.9 3.1-1.1.6-1.6.5-3-.5-4.5-.7-1.2-1-2.3-.6-2.5 1.5-.7 4-6.8 3.5-8.7-.7-2.6 3.2-8.1 5.7-8.1 1 0 2.2.9 2.5 2.1.4 1.1 1.3 1.8 2 1.6.7-.3 1.9 0 2.6.6.7.7.5.1-.6-1.2-2.5-2.9-2.7-9.1-.3-9.1 1.2 0 1.5-.6 1-2.3-.5-1.8-.7-1.9-1-.5-.5 2.3-.9 2.3-4.4-.7-1.9-1.6-3.7-2.3-4.8-2-1 .3-2.1.1-2.5-.5-.8-1.3-2.4-1.2-6.1.7zm.6 13.4c0 .6-.4.7-1 .4-.5-.3-1-1.1-1-1.6 0-.6.5-.7 1-.4.6.3 1 1.1 1 1.6zM793.92 582.869l-2.3 2h2.2c1.2 0 2.4-.7 2.8-1.5.9-2.5-.2-2.7-2.7-.5zM784.62 587.569c-1.4 1.3-.6 6.9 1.5 11l2.2 4.2-2.3 2c-1.3 1.2-2.9 2.1-3.5 2.1-2.1.1 6 3.2 9.5 3.6 4.3.5 6.4-1.4 7.2-6.8.4-2.6.1-4-.9-4.9-.8-.7-1.3-1.8-1-2.6.3-.7.1-1.3-.4-1.3s-1.7-1.4-2.7-3c-1.1-1.9-2.5-3-4-3-1.2 0-2.5-.5-2.8-1-.7-1.2-1.9-1.3-2.8-.3zm11.3 19.3c0 .5-.2 1-.4 1s-1.2.3-2.2.7c-1.6.6-1.7.5-.4-1 1.7-1.9 3-2.2 3-.7zM778.92 589.669c0 .4-1.3 1.3-3 2-4.2 1.9-3.7 2.8 1 2.4 4.7-.5 7.4-3.6 4-4.5-1.1-.3-2-.2-2 .1zM756.22 593.569c-.7.2-1.3 1.1-1.3 1.8s-1.5 2.4-3.4 3.8c-1.9 1.5-3.9 4-4.4 5.7l-1.1 3h5c3.8 0 4.9-.3 4.9-1.6 0-1.1.5-1.4 1.6-1 2.5.9 8.7-3.3 8.1-5.5-.3-1 .1-2.6.9-3.7.7-1.1 1-2.2.7-2.6-.7-.7-9.2-.7-11 .1zM739.42 610.969c-.4.6-.5 1.3-.2 1.6.7.7 2.7-.6 2.7-1.8 0-1.2-1.7-1.2-2.5.2zM660.72 616.669c1.1 1.7 1.8 2 2.8 1.1 1.1-.9 1.7-.5 2.7 2l1.3 3.2 1.1-2.4c1.6-3.5-.8-6.1-5.6-6.2-3.7 0-3.8 0-2.3 2.3zM736.42 616.869c.3.5.8 1 1.1 1 .2 0 .4-.5.4-1 0-.6-.5-1-1.1-1-.5 0-.7.4-.4 1zM651.52 637.469c-1.7 1.2-1.7 1.4-.4 1.4.9 0 2-.5 2.3-1.1 1.1-1.7.2-1.8-1.9-.3zM424.22 676.769c-.1 1.4.5 4.5 1.3 6.8 1.4 3.7 1.9 4.2 3.9 3.7 1.2-.3 2.6-.1 3 .5.3.6 1.1.9 1.6.5.6-.3 2.1.4 3.4 1.6 1.5 1.4 3.2 2.1 4.4 1.7 1.2-.3 2.2.1 2.5 1 .9 2.3.7 2.6-1.4 2-1.1-.3-2-.1-2 .4s.8.9 1.8.9c2.3 0 4.7 2.5 6.1 6.2.8 2.2.7 2.9-.6 3.6-1.3.8-1.1 1.3 1.6 3.3 1.7 1.2 3.1 3 3.1 3.9 0 .9.6 2.5 1.4 3.6 1.4 1.8 1.5 1.8 2.6-1 .9-2.4.7-3.5-.9-6.6-1.8-3.4-1.8-4.3-.6-11.1l1.3-7.4-3.7-3.2c-2-1.8-4.5-3.3-5.6-3.3-1.1 0-4-2.1-6.5-4.5-2.5-2.5-5.2-4.5-6-4.5-.8-.1-3.5-.2-6-.4-4.2-.3-4.5-.2-4.7 2.3zm15.7 3.7c0 .8-.5 1.2-1 .9-.6-.4-.8-1.1-.5-1.6.9-1.4 1.5-1.1 1.5.7zM635.42 691.769c.4 1.3.2 2.1-.5 2.1-.6 0-1 .6-.7 1.2.2.7 1.2 1.2 2.2 1 1.2-.3 1.6.1 1.2 1.2-.8 2 1.8 3.9 4.2 3.1 2.4-.7 7.5 4 6.7 6.2-.4 1-.1 1 1.3.1 1.5-.9 1.6-1.5.7-4-.6-1.6-2.1-3.1-3.3-3.4-1.2-.3-2.7-1.2-3.3-1.9-1.2-1.4-.3-4.8 1.1-3.9.5.3.9.1.9-.5 0-1.5-1.8-2.3-6.7-2.8-4.2-.4-4.4-.3-3.8 1.6zM658.42 700.869c-.3.5-.2 1 .4 1 .5 0 1.3-.5 1.6-1 .3-.6.2-1-.4-1-.5 0-1.3.4-1.6 1zM457.92 701.869c0 .5.7 1 1.5 1s1.5-.5 1.5-1c0-.6-.7-1-1.5-1s-1.5.4-1.5 1zM655.42 703.869c2 2.2 3.1 2 2.2-.5-.4-.8-1.4-1.5-2.3-1.5-1.6 0-1.6.2.1 2zM580.42 740.969c-.4.6-.5 1.1-.4 1.2.2.1 1.4 1.1 2.7 2.1 2.2 1.9 2.2 1.9 2.2-.2 0-2.5-3.5-4.8-4.5-3.1z"/></g></svg>