<?xml version="1.0" standalone="no"?>
<!DOCTYPE svg PUBLIC "-//W3C//DTD SVG 20010904//EN"
 "http://www.w3.org/TR/2001/REC-SVG-20010904/DTD/svg10.dtd">
<svg version="1.0" xmlns="http://www.w3.org/2000/svg"
 width="1024.000000pt" height="613.516882pt" viewBox="0 0 1024.000000 613.516882"
 preserveAspectRatio="xMidYMid meet">
<metadata>
Created by potrace 1.15, written by Peter Selinger 2001-2017
</metadata>
<g transform="translate(-446.000000,1324.556744) scale(0.100000,-0.100000)"
fill="#222222" stroke="none">
<path d="M10601 13237 c-6 -6 -11 -24 -11 -39 0 -20 -5 -28 -17 -28 -16 -1
-16 -2 -2 -10 25 -15 12 -57 -24 -75 -40 -20 -56 -19 -76 6 l-17 21 -27 -36
c-16 -20 -35 -36 -43 -36 -7 0 -14 -6 -14 -14 0 -19 -21 -26 -42 -15 -19 10
-38 -15 -38 -51 0 -18 -3 -19 -20 -10 -16 9 -22 8 -26 -5 -3 -8 -17 -15 -31
-15 -16 0 -27 -7 -30 -20 -3 -11 -13 -20 -23 -20 -10 0 -20 -6 -23 -12 -3 -10
-7 -10 -18 -1 -12 9 -13 4 -11 -32 3 -36 0 -45 -18 -55 -11 -6 -25 -22 -30
-36 -11 -27 -25 -31 -34 -9 -3 8 -16 15 -30 15 -14 0 -28 5 -32 11 -4 8 -26
10 -64 6 -44 -5 -61 -3 -70 8 -9 11 -17 12 -32 4 -14 -8 -23 -8 -31 0 -13 13
-60 14 -72 2 -6 -6 -31 -3 -65 9 -60 21 -100 25 -100 11 0 -14 -33 -23 -40
-11 -4 6 -11 0 -18 -15 -7 -16 -17 -23 -26 -19 -9 3 -30 -3 -48 -14 -18 -11
-54 -23 -80 -26 -25 -4 -52 -13 -58 -21 -8 -10 -18 -11 -36 -5 -20 8 -24 6
-24 -9 0 -9 -12 -28 -26 -42 -17 -16 -24 -31 -21 -46 4 -24 -2 -29 -18 -14
-12 11 -55 -4 -55 -18 0 -6 11 -22 25 -37 14 -15 26 -32 26 -38 6 -53 6 -56
-12 -56 -11 0 -19 -4 -19 -10 0 -18 -25 -11 -45 13 l-20 22 -3 -25 c-5 -51
-27 -106 -51 -129 l-24 -23 37 5 c28 4 39 1 46 -13 7 -13 6 -20 -5 -24 -8 -3
-15 -12 -15 -21 0 -9 -10 -29 -22 -46 -19 -26 -20 -31 -8 -39 11 -7 16 -4 18
10 5 33 83 18 97 -19 8 -20 -37 -61 -67 -61 l-21 0 21 -23 c26 -27 29 -52 6
-43 -42 16 -65 17 -93 3 -25 -13 -32 -13 -41 -2 -14 17 -58 14 -69 -4 -5 -8
-16 -11 -24 -8 -18 7 -67 -13 -67 -28 -1 -28 -21 -39 -79 -41 -44 -1 -64 3
-73 14 -7 8 -32 23 -56 33 -26 11 -46 28 -49 39 -3 11 -10 21 -17 22 -22 3
-31 5 -50 13 -11 5 -38 3 -62 -3 -47 -13 -74 -8 -74 13 0 23 -18 27 -44 10
-20 -13 -26 -14 -33 -3 -9 15 -48 38 -63 38 -5 0 -7 -6 -4 -13 5 -15 -23 -50
-47 -59 -9 -4 -20 2 -27 13 -11 18 -13 18 -47 -2 -19 -12 -42 -19 -49 -16 -8
3 -16 1 -18 -4 -2 -6 -15 -1 -30 10 -27 22 -43 27 -34 12 6 -10 -66 -7 -83 3
-6 4 -11 2 -11 -3 0 -19 -39 -12 -50 9 -15 27 -67 54 -73 37 -3 -9 -9 -7 -22
5 -15 14 -16 20 -5 33 11 13 7 24 -25 70 -26 39 -44 55 -60 55 -32 0 -78 39
-72 61 3 10 -2 20 -10 23 -21 9 -23 8 -16 -10 5 -13 2 -15 -16 -9 -14 4 -31 1
-47 -10 -16 -10 -30 -13 -37 -7 -7 4 -22 9 -35 10 -23 1 -23 -1 -18 -70 3 -39
11 -75 17 -79 17 -10 -66 -89 -119 -113 -47 -21 -49 -26 -26 -60 14 -22 14
-28 -1 -62 -8 -21 -13 -44 -11 -51 3 -8 -2 -13 -14 -13 -15 0 -20 -7 -20 -29
0 -16 -6 -31 -13 -34 -8 -3 -21 -21 -30 -40 -15 -31 -22 -35 -68 -41 -39 -5
-48 -10 -40 -19 11 -14 6 -48 -12 -85 -8 -18 -17 -22 -34 -17 -16 4 -23 1 -23
-10 0 -13 -6 -12 -37 5 -43 23 -81 27 -66 8 6 -7 13 -34 16 -59 6 -44 4 -48
-33 -83 -22 -20 -45 -34 -51 -30 -20 12 -71 10 -76 -3 -3 -7 -11 -13 -19 -13
-8 0 -14 -4 -14 -9 0 -14 -75 -29 -94 -19 -10 6 -16 5 -16 -1 0 -5 -14 -18
-31 -28 -19 -12 -28 -24 -26 -35 3 -9 -1 -19 -8 -22 -8 -3 -15 -15 -17 -28 -2
-16 -9 -22 -22 -21 -11 1 -25 -5 -33 -12 -7 -8 -37 -17 -67 -20 -47 -6 -53 -9
-48 -27 4 -15 0 -19 -14 -16 -11 2 -22 9 -25 17 -15 38 -91 12 -117 -40 -16
-32 -19 -34 -63 -31 l-47 3 -7 -40 c-4 -23 -11 -41 -16 -41 -5 0 -9 -12 -9
-27 0 -37 -39 -73 -79 -73 l-31 0 27 -55 c22 -45 25 -58 14 -64 -9 -6 -10 -11
-2 -15 23 -15 11 -42 -24 -55 -27 -9 -34 -17 -32 -34 1 -12 8 -27 16 -33 12
-10 11 -13 -8 -23 -20 -11 -27 -8 -74 39 -48 48 -118 86 -133 71 -3 -3 -16 -6
-27 -6 -13 0 -21 -5 -19 -14 2 -7 -5 -22 -14 -32 -15 -17 -15 -21 5 -60 13
-24 19 -49 16 -60 -4 -11 0 -30 8 -42 22 -35 37 -86 26 -92 -5 -4 -9 -16 -9
-29 0 -22 -17 -46 -32 -46 -4 0 -15 25 -23 55 -9 30 -21 57 -26 61 -6 3 -8 12
-5 20 7 18 -23 47 -41 40 -8 -4 -26 -9 -39 -12 -21 -5 -22 -8 -9 -21 20 -20
19 -35 -2 -31 -10 2 -17 8 -15 13 2 5 -5 12 -14 16 -15 4 -18 15 -15 47 2 41
2 42 -23 32 -34 -13 -69 15 -60 48 5 17 11 21 28 16 11 -3 28 -14 36 -23 19
-22 39 -16 33 9 -4 14 0 20 11 20 16 0 24 39 9 41 -45 4 -93 32 -93 53 0 8
-11 17 -25 20 -25 6 -35 26 -14 26 12 0 38 29 39 43 0 4 -9 7 -20 7 -10 0 -24
9 -30 21 -7 11 -20 29 -31 40 -10 10 -19 26 -19 35 0 27 -26 45 -52 35 -13 -5
-36 -7 -51 -4 -15 3 -38 2 -52 -1 -21 -5 -25 -11 -19 -28 4 -14 2 -18 -5 -14
-6 4 -11 13 -11 21 0 7 -14 19 -30 27 -17 7 -30 16 -30 21 0 4 -9 3 -20 -3
-11 -6 -20 -20 -20 -32 0 -19 -2 -20 -17 -6 -25 20 -99 47 -110 39 -5 -3 -12
-13 -16 -23 -6 -18 -60 -18 -95 1 -30 16 -47 15 -33 -3 9 -11 9 -16 0 -21 -12
-8 -29 11 -29 33 0 6 -7 12 -15 12 -9 0 -18 7 -21 15 -4 8 -14 15 -23 15 -9 0
-22 5 -27 10 -6 6 -23 13 -37 16 -22 3 -25 1 -20 -12 4 -10 2 -15 -4 -11 -15
9 -10 -58 6 -77 13 -15 12 -18 -7 -23 -14 -3 -21 -12 -19 -25 2 -17 -10 -29
-41 -45 -2 -1 4 -13 13 -27 10 -15 13 -26 6 -26 -7 0 -7 -8 1 -26 10 -22 9
-27 -5 -35 -9 -6 -17 -14 -17 -19 0 -16 44 -11 84 10 39 19 39 19 66 0 17 -12
28 -29 28 -42 0 -13 3 -34 7 -47 7 -20 5 -23 -8 -18 -12 5 -17 1 -17 -12 0
-10 -7 -24 -15 -31 -23 -19 -21 -107 3 -113 13 -4 13 -5 -4 -6 -16 -1 -23 -9
-26 -31 -4 -26 0 -33 25 -45 34 -17 57 -19 57 -5 0 23 63 -21 100 -69 22 -30
50 -59 62 -65 13 -6 24 -19 26 -29 6 -31 88 -107 116 -107 13 0 28 -5 32 -11
3 -6 15 -9 25 -6 11 3 19 2 19 -3 0 -14 44 -19 89 -10 41 7 46 6 65 -18 12
-14 24 -32 27 -40 7 -20 34 -23 84 -12 46 10 61 2 70 -41 7 -30 37 -41 51 -18
4 7 17 0 36 -18 37 -34 52 -71 38 -88 -14 -16 29 -35 80 -35 28 0 47 -7 62
-22 13 -13 28 -22 35 -20 7 2 22 -2 34 -8 15 -9 24 -8 35 1 11 9 14 9 14 -1 0
-7 7 -10 15 -6 10 4 20 -3 27 -19 6 -14 19 -27 30 -30 10 -4 18 -13 18 -21 0
-8 8 -27 18 -41 9 -15 24 -45 32 -67 15 -38 19 -41 55 -42 22 0 48 -4 58 -9
10 -4 21 -5 24 -2 8 9 43 -38 43 -57 0 -9 8 -16 20 -16 11 0 20 -5 20 -11 0
-13 71 -84 123 -123 20 -16 48 -49 62 -75 22 -40 29 -46 58 -46 17 1 43 7 55
14 21 11 26 10 40 -11 8 -12 33 -40 54 -60 21 -21 38 -42 38 -48 0 -7 12 -25
27 -40 31 -33 53 -97 53 -155 0 -35 5 -43 35 -62 42 -27 55 -29 55 -6 0 12 3
14 11 6 14 -14 1 -61 -22 -73 -17 -10 -17 -12 -2 -38 9 -16 26 -33 37 -38 27
-12 41 -64 17 -64 -9 0 -21 -13 -28 -30 -10 -26 -8 -31 13 -45 14 -9 28 -14
33 -11 4 3 16 -12 26 -34 10 -21 24 -41 32 -44 8 -3 11 -10 8 -16 -3 -6 2 -13
12 -16 10 -3 26 -10 35 -15 10 -5 24 -9 32 -9 7 0 20 -10 29 -22 32 -50 70
-79 94 -73 19 4 25 -1 37 -29 8 -19 24 -37 35 -41 12 -3 21 -13 21 -21 0 -19
46 -18 54 1 7 19 40 20 55 1 8 -9 28 -12 68 -9 68 5 93 17 93 43 0 13 5 17 14
14 9 -3 22 5 32 21 14 22 23 26 45 21 22 -4 29 -1 34 14 4 11 15 20 25 20 14
0 20 11 25 49 4 32 12 51 23 55 9 3 23 9 29 12 9 4 9 -2 -2 -22 -12 -25 -12
-29 3 -40 14 -11 14 -14 2 -14 -10 -1 -8 -4 5 -9 11 -5 23 -4 26 1 4 7 14 6
27 -1 17 -9 21 -8 25 7 2 9 -3 25 -11 34 -8 10 -17 36 -19 58 -4 35 -2 40 15
40 12 0 23 -4 27 -10 8 -13 35 -1 35 16 0 18 31 25 121 27 75 2 92 10 84 37
-3 8 -1 28 3 44 l8 30 14 -35 c18 -44 24 -47 75 -42 25 3 45 1 49 -6 4 -6 20
-11 36 -11 25 0 30 5 36 35 3 19 10 33 14 30 4 -2 17 7 30 20 18 19 20 27 11
38 -9 11 -2 20 34 43 42 26 45 31 42 65 -2 21 -9 45 -16 53 -12 14 -10 16 8
16 12 0 31 -5 42 -10 15 -8 19 -7 19 4 0 8 5 18 10 21 14 9 42 -15 36 -31 -7
-19 27 -44 60 -44 31 0 61 -16 106 -58 25 -23 43 -28 121 -32 9 -1 17 -5 17
-11 0 -20 2 -25 17 -41 9 -10 22 -18 30 -18 8 0 13 -12 13 -34 0 -19 4 -37 9
-40 4 -3 11 -18 14 -33 3 -16 20 -43 36 -61 32 -34 39 -52 21 -52 -5 0 -10 -4
-10 -10 0 -15 40 -12 40 3 0 6 9 1 19 -12 12 -16 24 -22 35 -18 10 4 15 3 11
-3 -3 -6 -1 -10 4 -10 15 0 14 -26 -2 -42 -7 -7 -16 -21 -20 -30 -4 -11 -22
-20 -48 -24 -36 -6 -40 -9 -36 -30 3 -16 0 -24 -9 -24 -8 0 -16 -11 -20 -24
-6 -25 10 -66 26 -66 6 0 10 -9 10 -19 0 -11 5 -23 10 -26 6 -4 8 -11 5 -16
-3 -5 1 -6 9 -3 10 4 20 -3 27 -20 9 -20 15 -23 26 -15 16 14 48 -5 95 -56 24
-27 39 -35 65 -35 22 0 33 5 33 14 0 12 6 13 30 5 17 -6 30 -15 30 -20 0 -5
16 -9 35 -9 32 0 35 -2 35 -30 0 -19 -7 -33 -20 -40 -11 -6 -20 -8 -20 -4 0 3
-7 1 -15 -6 -8 -6 -18 -9 -24 -6 -5 3 -11 -1 -14 -9 -4 -8 2 -16 14 -20 21 -7
24 -18 9 -44 -11 -21 12 -61 36 -61 17 0 19 -17 3 -22 -8 -3 -10 -19 -5 -52 5
-34 11 -46 21 -42 18 7 37 -17 29 -38 -4 -12 0 -16 15 -16 13 0 19 5 15 14 -8
20 12 29 35 16 17 -8 24 -5 45 23 15 19 26 41 26 50 0 9 5 19 11 22 6 4 8 14
5 24 -4 10 1 8 13 -7 12 -13 22 -18 26 -12 3 6 10 8 15 5 5 -3 11 -1 15 4 13
23 75 -23 75 -56 1 -18 22 -53 33 -53 3 0 21 25 42 55 38 58 44 62 62 44 16
-16 45 -3 41 18 -2 12 4 19 20 21 12 2 41 23 65 46 39 40 70 54 135 58 6 1 12
7 12 14 0 6 11 15 25 18 15 4 30 18 36 32 7 20 14 25 30 21 21 -6 69 10 80 27
4 5 11 6 16 3 5 -4 19 11 31 32 16 29 20 47 15 72 -6 30 -5 33 9 21 12 -9 18
-10 23 -2 10 16 53 3 88 -26 33 -28 55 -31 63 -9 5 13 13 12 50 -9 34 -19 52
-23 84 -19 34 5 41 9 37 24 -3 11 -3 19 -1 19 10 0 44 -36 44 -46 0 -13 69
-24 76 -13 5 9 74 0 89 -11 6 -4 21 -10 35 -13 14 -4 46 -24 72 -45 35 -29 59
-41 96 -46 42 -5 56 -13 91 -51 23 -25 50 -45 60 -45 21 0 51 -30 51 -52 0
-18 27 -43 55 -52 16 -4 24 -21 34 -65 7 -32 10 -68 7 -79 -4 -11 0 -24 9 -32
11 -9 15 -9 15 -1 0 9 5 9 21 1 23 -13 65 -23 56 -14 -3 3 7 18 22 33 21 20
26 32 20 43 -6 11 -4 18 6 22 13 4 13 9 0 40 -18 41 -20 92 -4 101 6 4 8 13 5
21 -3 7 -1 16 5 20 6 3 8 13 5 21 -3 8 -1 19 4 26 6 7 20 25 31 40 12 16 27
26 34 23 21 -8 44 26 38 57 -6 33 15 37 37 7 14 -20 14 -20 25 0 10 19 12 19
48 -11 29 -24 44 -30 63 -25 22 6 25 11 21 34 -3 15 -9 35 -12 45 -6 14 -2 17
25 17 17 0 40 -5 52 -11 11 -6 40 -12 64 -14 38 -2 44 0 44 16 0 11 7 22 15
25 11 5 12 11 4 25 -8 16 -6 19 11 19 35 0 60 19 60 45 0 14 5 25 10 25 6 0
10 -7 10 -15 0 -9 9 -26 20 -38 11 -12 18 -27 16 -33 -6 -16 46 -97 75 -118
13 -9 31 -16 40 -16 15 0 39 -37 39 -63 1 -7 14 -27 30 -46 21 -25 28 -41 25
-67 -3 -37 8 -50 49 -58 36 -6 56 -24 56 -48 0 -10 6 -20 13 -22 6 -2 29 -9
51 -16 31 -10 40 -10 46 1 7 10 12 10 23 0 12 -9 16 -9 20 1 4 10 8 10 16 -2
5 -8 8 -17 6 -21 -3 -3 11 -15 31 -25 27 -15 36 -16 43 -6 6 10 13 8 32 -6 63
-50 130 -65 181 -41 19 8 38 5 92 -15 48 -18 73 -23 85 -16 26 14 86 -38 79
-68 -7 -27 37 -75 62 -67 20 6 55 -29 45 -45 -4 -7 -2 -16 5 -20 9 -6 6 -10
-9 -15 -24 -7 -23 -20 6 -82 14 -30 36 -43 80 -43 12 0 26 -7 31 -17 8 -13 20
-15 77 -10 39 4 75 13 85 22 9 8 21 15 27 15 6 0 21 15 32 33 17 28 25 33 49
29 22 -3 30 1 39 21 10 20 19 25 47 24 22 -1 36 -6 36 -13 0 -7 5 -16 12 -20
7 -4 8 -3 4 4 -4 7 7 18 29 29 32 15 36 21 31 44 -3 15 -2 29 1 33 4 3 5 33 4
65 l-2 58 27 -5 27 -5 -6 54 c-4 30 -2 61 3 69 6 10 4 20 -4 30 -8 8 -15 31
-18 51 -3 31 -1 35 14 31 12 -3 18 1 18 12 0 9 4 16 9 16 18 0 17 37 -1 60
-19 24 -19 24 4 42 13 10 31 18 40 18 9 0 20 9 23 20 3 11 15 20 25 20 10 0
20 6 23 14 3 8 16 16 29 18 12 2 28 14 35 28 7 14 20 25 30 25 11 0 25 15 37
40 10 22 23 43 29 47 6 3 12 16 14 28 5 35 32 80 48 80 8 0 15 4 15 10 0 14
42 51 70 61 33 12 54 87 33 115 -17 24 -16 31 5 36 15 4 18 12 14 39 -5 31 -3
33 12 20 17 -15 19 -13 20 39 1 26 -6 41 -24 57 -20 18 -21 22 -8 23 11 0 15
6 11 20 -3 11 2 35 11 54 9 19 16 39 16 45 0 6 4 11 9 11 5 0 7 9 4 20 -4 14
1 21 20 25 14 4 31 4 38 -1 7 -4 9 -3 5 4 -3 6 2 17 12 24 20 14 36 58 22 58
-33 0 8 86 48 101 8 3 16 13 18 23 1 10 0 15 -3 12 -13 -12 -54 63 -48 87 5
19 -2 30 -38 60 -24 20 -50 49 -56 65 -8 19 -19 28 -33 28 -15 -1 -24 7 -28
23 -3 14 -12 27 -19 29 -10 3 -12 0 -8 -12 13 -34 -15 -16 -91 56 l-23 23 20
16 c12 10 21 22 21 28 0 6 9 11 19 11 12 0 24 11 32 29 8 19 18 27 29 24 13
-3 19 4 23 26 4 17 10 31 14 30 20 -3 34 2 28 11 -3 6 0 10 8 10 11 0 13 11 9
50 -3 32 -1 50 6 50 6 0 12 14 14 32 3 30 5 32 43 32 26 1 39 5 38 14 -2 6 6
12 17 12 41 0 15 53 -38 77 -39 17 -46 20 -62 22 -5 0 -7 7 -4 14 7 19 -40 39
-55 24 -8 -8 -11 -8 -11 2 0 7 -9 25 -20 39 -18 23 -19 27 -5 34 23 14 19 46
-7 50 -15 2 -22 9 -22 20 1 10 -2 16 -6 13 -5 -3 -12 5 -16 17 -4 14 -2 24 5
26 9 3 9 7 1 17 -6 8 -17 12 -25 9 -7 -3 -16 -1 -19 5 -4 6 -13 8 -21 4 -8 -3
-15 0 -15 7 0 6 -4 9 -9 5 -6 -3 -13 0 -18 7 -6 9 -30 12 -80 10 -69 -3 -73
-5 -73 -27 0 -28 -50 -51 -69 -32 -8 8 -11 8 -11 -1 0 -7 -9 -12 -20 -12 -11
0 -23 -7 -26 -15 -5 -11 -11 -12 -24 -5 -10 6 -23 10 -29 10 -14 0 -43 -58
-36 -70 3 -5 -12 -18 -33 -29 -40 -20 -72 -58 -72 -86 0 -8 -9 -20 -20 -27
-11 -7 -20 -19 -20 -26 0 -9 -6 -12 -16 -8 -10 4 -25 -1 -35 -10 -11 -10 -19
-14 -19 -11 0 3 -13 -8 -29 -24 -31 -31 -55 -37 -68 -16 -7 12 -9 17 -11 49
-2 13 -7 15 -31 8 -29 -8 -29 -8 -24 26 3 20 1 40 -7 49 -15 18 -30 11 -30
-16 0 -10 -4 -19 -9 -19 -5 0 -7 -9 -4 -19 3 -13 -4 -27 -20 -41 l-25 -22 45
-44 c28 -28 41 -49 36 -57 -10 -17 -12 -77 -1 -83 4 -3 8 -14 8 -24 0 -15 -10
-20 -44 -25 -25 -4 -47 -13 -50 -21 -3 -8 -11 -14 -17 -14 -6 0 -28 -15 -49
-33 -24 -22 -51 -36 -80 -41 -48 -8 -45 -9 -54 21 -5 17 -4 22 6 18 7 -3 20
-1 28 5 12 7 12 12 2 22 -6 6 -12 23 -12 36 0 13 -9 35 -20 49 -13 17 -18 34
-14 46 4 12 2 17 -4 13 -5 -3 -13 10 -16 29 -4 21 -17 41 -31 51 -14 9 -25 22
-25 29 0 6 -8 19 -18 29 -21 18 -23 79 -4 98 6 6 8 16 6 22 -6 16 47 37 76 29
22 -6 23 -4 12 9 -10 13 -10 17 3 22 8 3 15 12 15 21 0 11 11 15 44 15 41 0
45 2 51 30 4 17 11 28 15 25 11 -7 70 72 70 91 0 8 9 19 20 26 24 15 26 38 4
38 -14 0 -14 3 -4 15 7 8 8 15 3 15 -5 0 -10 29 -11 64 -1 48 2 65 13 70 8 3
15 15 15 26 0 11 7 23 15 26 11 5 12 11 5 24 -6 10 -10 29 -10 42 0 13 -7 31
-15 41 -12 17 -9 23 25 57 53 53 114 83 151 75 21 -5 29 -3 29 8 0 21 33 47
59 47 32 0 76 34 91 70 10 23 17 29 32 24 10 -3 25 0 33 6 8 7 15 8 15 4 0
-13 57 -37 69 -29 6 3 13 28 17 55 4 28 11 50 16 50 6 0 8 8 5 19 -3 14 0 17
14 14 22 -6 24 5 5 30 -14 17 -37 22 -50 10 -14 -14 -44 -12 -62 6 -40 39 -57
65 -46 69 19 6 -14 59 -41 66 -15 3 -30 18 -37 36 -9 21 -19 30 -35 30 -22 0
-55 28 -55 47 0 6 -7 14 -16 17 -12 5 -14 14 -9 45 5 32 3 42 -15 59 -12 11
-19 26 -15 32 4 7 -2 18 -14 26 -12 8 -21 24 -21 35 0 10 -4 20 -10 20 -19 3
-25 5 -55 21 -32 17 -66 53 -59 61 3 2 -3 21 -12 41 -16 33 -21 36 -63 36 -47
0 -111 18 -111 32 0 4 -9 8 -19 8 -11 0 -28 11 -38 23 -30 39 -56 49 -81 31
-24 -16 -44 -10 -84 27 -13 12 -54 43 -91 71 -52 38 -68 55 -66 71 2 13 -8 34
-24 51 -15 16 -24 32 -22 37 3 4 1 10 -5 14 -5 3 -10 17 -10 30 0 14 -17 47
-38 75 -39 51 -72 135 -72 182 0 18 -11 34 -37 54 -21 15 -51 42 -66 58 -23
24 -30 27 -38 15 -5 -8 -9 -10 -9 -6 0 4 -9 3 -20 -3 -16 -8 -22 -7 -32 10 -7
11 -22 20 -33 20 -11 0 -32 11 -47 24 -14 14 -28 23 -30 20 -3 -2 -15 7 -28
21 -17 19 -27 22 -41 15 -14 -8 -19 -6 -24 8 -3 11 -17 24 -30 30 -16 7 -25
20 -25 34 0 47 -12 67 -45 78 -18 6 -41 20 -50 30 -10 11 -26 20 -35 20 -21 0
-40 19 -34 35 3 7 0 31 -6 54 -9 33 -19 45 -50 61 -22 11 -40 25 -40 31 0 16
-40 69 -51 69 -5 0 -13 -9 -17 -20 -7 -19 -8 -19 -36 3 -24 20 -29 31 -30 74
-1 39 -4 49 -13 41 -8 -7 -22 -7 -40 -1 -16 6 -38 9 -50 7 -14 -3 -26 3 -33
16 -9 16 -17 19 -54 14 -25 -4 -52 -2 -64 5 -18 10 -24 8 -37 -13 -16 -24 -61
-40 -71 -25 -2 4 -26 5 -53 2 -58 -7 -114 13 -106 37 6 19 -46 53 -67 45 -8
-3 -28 1 -44 10 -16 8 -34 15 -41 15 -6 0 -30 16 -53 35 -23 19 -39 35 -36 35
4 0 -1 11 -10 25 -11 17 -25 25 -44 25 -15 0 -33 6 -39 14 -22 26 -66 29 -105
7 -20 -12 -52 -21 -71 -21 -19 0 -35 -4 -35 -10 0 -20 -36 -10 -67 19 -22 20
-35 25 -42 18z m-1479 -1089 c-7 -7 -12 -8 -12 -2 0 14 12 26 19 19 2 -3 -1
-11 -7 -17z m-642 -158 c0 -5 -2 -10 -4 -10 -3 0 -8 5 -11 10 -3 6 -1 10 4 10
6 0 11 -4 11 -10z m-2850 -1931 c0 -6 -4 -7 -10 -4 -5 3 -10 11 -10 16 0 6 5
7 10 4 6 -3 10 -11 10 -16z m17 -21 c-3 -8 -6 -5 -6 6 -1 11 2 17 5 13 3 -3 4
-12 1 -19z m7243 -707 c0 -6 -4 -13 -10 -16 -5 -3 -10 1 -10 9 0 9 5 16 10 16
6 0 10 -4 10 -9z m55 -341 c3 -5 1 -10 -4 -10 -6 0 -11 5 -11 10 0 6 2 10 4
10 3 0 8 -4 11 -10z m-737 -708 c12 -8 22 -18 22 -23 0 -5 7 -9 15 -9 8 0 15
-4 15 -10 0 -5 7 -10 15 -10 8 0 15 -9 15 -20 0 -11 9 -25 20 -32 11 -7 20
-16 20 -21 0 -4 -4 -5 -10 -2 -5 3 -10 2 -10 -2 0 -12 -63 -7 -87 6 -14 7 -31
7 -54 1 -46 -13 -53 -2 -40 60 8 35 8 57 1 70 -10 18 -8 19 22 13 18 -3 43
-13 56 -21z m-818 -722 c0 -5 -2 -10 -4 -10 -3 0 -8 5 -11 10 -3 6 -1 10 4 10
6 0 11 -4 11 -10z"/>
<path d="M11700 13025 c6 -8 9 -19 5 -25 -3 -5 0 -10 8 -10 8 0 18 8 21 17 7
17 -9 33 -33 33 -11 0 -11 -3 -1 -15z"/>
<path d="M7104 12492 c15 -28 15 -32 0 -40 -25 -14 -13 -53 24 -74 27 -15 34
-16 38 -4 3 8 0 24 -6 35 -8 16 -8 22 2 25 51 16 50 14 31 35 -9 11 -20 18
-25 15 -5 -3 -24 5 -44 17 l-36 22 16 -31z"/>
<path d="M7239 12449 c-14 -14 -19 -30 -17 -57 3 -32 7 -37 31 -40 15 -2 27
-8 27 -13 0 -5 7 -9 15 -9 23 0 18 13 -16 43 -21 19 -26 27 -15 27 12 0 16 10
16 35 0 40 -11 44 -41 14z"/>
<path d="M7075 12380 c-3 -5 -15 -10 -25 -10 -10 0 -22 -9 -25 -20 -3 -11 -11
-20 -16 -20 -5 0 -9 -11 -9 -25 0 -15 -10 -31 -26 -41 -33 -22 -11 -38 26 -19
15 8 36 12 47 9 23 -6 47 37 38 67 -4 13 -1 19 8 19 10 0 13 7 10 20 -7 25
-19 34 -28 20z"/>
<path d="M8820 12371 c0 -5 -2 -15 -5 -23 -4 -9 7 -19 29 -29 30 -14 36 -14
40 -2 4 9 13 12 26 8 14 -5 20 -2 20 10 0 9 -6 15 -12 12 -7 -2 -30 4 -50 14
-42 22 -48 23 -48 10z"/>
<path d="M8750 12330 c0 -13 11 -13 30 0 12 8 11 10 -7 10 -13 0 -23 -4 -23
-10z"/>
<path d="M6932 12210 c15 -24 33 -27 24 -4 -3 9 -6 18 -6 20 0 2 -7 4 -15 4
-13 0 -13 -3 -3 -20z"/>
<path d="M8891 12150 c-17 -16 -31 -35 -30 -42 0 -9 2 -10 5 -1 4 9 13 9 30 2
40 -15 54 -11 54 15 0 13 5 26 11 28 6 2 0 9 -14 15 -21 10 -28 8 -56 -17z"/>
<path d="M5480 10923 c0 -4 -15 -9 -32 -10 -18 -2 -34 -7 -36 -13 -2 -5 -10
-10 -18 -10 -16 0 -16 -2 -8 -24 3 -9 15 -16 25 -16 16 0 18 -6 14 -46 l-5
-46 23 16 c12 9 29 19 38 22 10 4 14 14 12 28 -3 13 2 28 11 35 22 18 20 48
-4 61 -11 6 -20 7 -20 3z"/>
<path d="M5570 10806 c14 -8 27 -12 29 -10 6 6 -1 11 -29 18 l-25 7 25 -15z"/>
<path d="M13882 10781 c4 -13 18 -16 19 -4 0 4 -5 9 -11 12 -7 2 -11 -2 -8 -8z"/>
<path d="M13398 9858 c5 -5 16 -8 23 -6 8 3 3 7 -10 11 -17 4 -21 3 -13 -5z"/>
<path d="M14350 9391 c0 -5 7 -14 15 -21 12 -10 18 -10 30 0 13 11 13 15 3 21
-17 11 -48 11 -48 0z"/>
<path d="M14604 8912 c4 -7 2 -12 -5 -12 -8 0 -9 -10 -4 -32 4 -18 7 -39 8
-45 1 -16 19 -17 35 -1 9 9 18 9 37 0 14 -6 25 -8 25 -3 0 5 -13 14 -29 21
-16 6 -35 25 -41 41 -7 16 -17 32 -23 36 -6 3 -7 1 -3 -5z"/>
<path d="M9680 7690 c0 -5 5 -10 10 -10 6 0 10 5 10 10 0 6 -4 10 -10 10 -5 0
-10 -4 -10 -10z"/>
<path d="M13715 7200 c-3 -5 -1 -10 4 -10 6 0 11 5 11 10 0 6 -2 10 -4 10 -3
0 -8 -4 -11 -10z"/>
</g>
</svg>
