<svg version="1" xmlns="http://www.w3.org/2000/svg" width="985.237" height="748.682" viewBox="0 0 738.928 561.512"><g fill="#222"><path d="M228 1.745c0 1.4-.5 1.8-2 1.4-2-.5-2.5.6-2.2 4.9.2 2.1-.9 2.3-2.6.6-.9-.9-1.2-.5-1.2 1.9 0 1.8-.6 3.3-1.5 3.7-2.3.9-1.8 2.9 2 7.7 2.2 2.7 3.3 5.1 2.9 6.1-.3 1.1 0 1.8.8 1.8.7 0 2.5.6 3.9 1.4l2.7 1.4v-4.9c0-2.7-.4-5.2-.9-5.5-1.8-1.1-.8-2.2 1.4-1.7 1.2.3 1.9.3 1.5-.1-1-1.2 3-4.6 4.7-4 .9.4 1.5 0 1.6-.7 0-.8.2-2.4.3-3.7.2-1.2-.2-2.1-.8-2-2.5.3-4.7-1.5-4-3.4.4-1.5-.2-2.7-2.2-4.4-3.5-2.9-4.4-3-4.4-.5zM3.8 13.645c-.5 1.7 1.9 4.2 3.9 4.2.5 0 0-.5-1-1.1-1.2-.7-1.6-1.7-1.2-3 .4-1 .2-1.9-.3-1.9s-1.2.8-1.4 1.8zM13 20.545c-2.4 1-3.7 2.7-4.5 6.1-.3 1.8-1.1 3.2-1.5 3.2-.5 0-.7.7-.4 1.5.4.8-.1 1.7-1 2.1-.9.3-1.6 1.7-1.6 3 0 1.7-.6 2.4-2 2.4-1.6 0-2 .7-2 3.1 0 1.6.3 2.8.8 2.5.4-.2 1.5.2 2.5.9 1.3.9 1.6 2 1.1 3.9-.3 1.4-1.1 2.6-1.7 2.6-.6 0-.4.8.6 1.7 1.4 1.5 2.2 1.5 4.7.6 1.9-.7 3.2-.8 3.6-.2.4.6 1.1.6 1.9-.1 1.6-1.3 9.2 2.1 10.1 4.5.3.7 1.2 1.1 2 .8.8-.3 2.1 0 2.9.7 1 .9 1.5.9 1.5.1 0-.6.5-1.1 1.1-1.1.5 0 .8.4.5.9-.3.5 0 1.4.8 2 1 .9 1.5.8 1.9-.3.4-.9.2-1.8-.3-2.1-1.3-.8-.1-3.5 1.6-3.5 1.6 0 1.9-3.1.4-4.6-.6-.6-.3-2.2 1-4.7 1.1-2 1.7-4.3 1.4-5.2-.5-1.1 0-1.5 1.9-1.5 1.3 0 3.6-.9 4.9-2 1.4-1 2.8-1.7 3-1.4.3.3.8-.2 1.1-1 .9-2.3-1.8-4.4-4.7-3.9-3 .6-7.2-1.8-8.1-4.6-.3-1.1-1.9-2.6-3.5-3.3-1.7-.7-3-1.6-3-1.9 0-1.1-4.4-1.9-5-.9-.4.6-1.9.6-4 0-3.8-1.1-5.7-1.2-8-.3zM116.5 24.445c0 2.4.3 4.4.8 4.4.4 0 .7-.9.7-1.9 0-1.1.5-2.3 1-2.6 1.5-.9 1.2-2.3-.8-3.4-1.5-.8-1.7-.4-1.7 3.5zM113.1 23.545c-.1.9-1.6 1-5.1.6-4.8-.6-5-.5-5 1.8 0 1.4-.9 3-2 3.7-1.2.7-1.8 1.7-1.5 2.3.9 1.4-1.4 3.9-3.7 3.9-2.5 0-3.6 3-1.4 4.2.9.5 1.4 1.5 1 2.1-.3.7.3.2 1.3-1 1-1.1 2.7-2.3 3.8-2.5 1.2-.2 2.1-1.3 2.3-2.5.3-2 .6-2.1 2.5-1 1.2.7 2.9 1.8 3.8 2.5 1.3 1 1.6.9 1.6-.3 0-.8-.4-1.5-.9-1.5-1.7 0-.7-2.1 2.3-4.8 2.9-2.6 3.1-3.1 2.1-5.8-.6-1.6-1.1-2.4-1.1-1.7zM69.8 25.645c-1.2.2-1.8 1.3-1.8 3.3 0 3 0 3 2.4 1.2 3.3-2.5 2.9-5.3-.6-4.5zM51.7 32.445c-.3 1.9-.1 2.2.8 1.4.9-.8 1.7-.7 2.7.2.8.7 2.2 1.7 3.2 2.3 1.8 1 1.9 3.3.1 2.6-.5-.2-1.9-.6-3-.9-2-.5-2-.5-.1 1.6 1.1 1.2 3 2.2 4.2 2.2 1.7 0 2.2.4 1.7 1.6-.3.8-1.2 1.3-2 1-.8-.3-1.1-.1-.8.4 1.3 2.1 3.2.9 4.3-2.7.6-2 .9-4 .6-4.5-.3-.4 0-.8.5-.8 1.5 0 1.4-1.9-.3-3.6-.9-.8-1.6-1-1.8-.3-.2.6-2.1.3-5-1l-4.6-1.9-.5 2.4zM119.9 33.445c-.1.5-.1 1.2 0 1.6 0 .4-.8 1-1.9 1.3-1.1.4-2 1.3-2 2.1s-.5 1.4-1.1 1.4c-.8 0-1 1.8-.6 6 .4 3.7.3 6-.3 6s-1 .6-1 1.4c0 .8-.7 1.7-1.5 2-1.3.4-1.4 1-.5 2.6 1.2 2.3.3 2.6-2.5.6-2-1.4-3.6-1.4-9.2-.1-2.6.6-3.3 1.3-3.3 3.1 0 1.3-.4 2.4-1 2.4-1.2 0-1.3 5-.1 6.9 1.4 2.2-.3 6.6-2.7 6.9-1.3.2-2.4 1.3-2.8 2.7-.3 1.3-1.2 2.9-2 3.6-1.6 1.3-1.9 5.6-.4 6.1 1.9.6-.2 4.3-3.8 6.9-2.9 1.9-4.4 2.4-6.5 1.8-1.5-.4-2.9-.3-3.3.2-.3.5-1 .6-1.6.3-1.6-1-2.7 1.7-1.7 4.3 1.4 3.9 1.1 5.3-1.7 6.3-1.4.6-4 2.1-5.8 3.5-1.8 1.4-3.8 2.5-4.5 2.5-.7 0-.9.5-.6 1.1.4.6 1.3.8 2 .5.7-.2 3.6 1.5 6.5 4 2.8 2.4 6.1 4.7 7.3 5 1.2.3 3.9 2.8 6 5.6 3.3 4.2 4.3 4.9 6.3 4.4 1.4-.4 2.4-.2 2.4.4 0 .5.7 1 1.6 1 .9 0 4.8 1.1 8.9 2.5 5.1 1.8 9.1 2.5 13.7 2.4 5.4-.1 7.1.3 9.6 2.1s4.4 2.3 9.9 2.3c5.7.1 7.5-.3 11-2.6 2.4-1.5 4.8-2.7 5.4-2.7.7 0 2.7 1.8 4.6 4 1.9 2.2 4.3 4 5.3 4 1.1 0 2.4.8 2.9 1.9.6 1 2.7 2.2 4.6 2.5 2 .4 3.9 1.4 4.2 2.1.3.8 3 3 6 4.9 4.8 3 6.1 3.4 10.5 3 5.4-.4 8.3.7 11.1 4.3 1.1 1.4 2.9 2.3 4.6 2.3 3.6 0 7.3 3.9 11.1 11.8 1.7 3.5 3.9 6.6 4.9 7 1.1.4 3.9 3.2 6.3 6.2 2.3 3 4.6 5.6 5 5.8.5.2.8 1.2.8 2.3 0 1 .6 1.9 1.3 1.9 2.2 0 8.7 7.7 9.4 11.1.3 1.9 1.3 3.4 2.5 3.6 1 .3 1.8.9 1.8 1.4 0 .5.6.9 1.3.9 2.6 0 6.7 2.5 6.6 4-.3 2.3 1.3 7.4 2.5 8.2 1.7 1.1 5.6.9 5.6-.3 0-.5.4-.8.9-.4.6.3 1.5-.4 2.1-1.5 1.3-2.3 6.1-2.7 8.2-.6.8.7 2.5 1.7 3.8 2.1 5.2 1.6 8.9 5.4 10.7 11.1.9 3.1 2.4 5.9 3.3 6.2 3.4 1.3 5.6 7.2 2.6 7.2-1.6 0-2.8 3.6-1.2 3.7.6 0 2.8.8 4.9 1.7 3.8 1.7 3.9 1.7 3.2-.4-.6-1.9-.3-2.1 2.2-1.8 2.6.3 2.8.1 2.5-3.2l-.2-3.5 2.2 2.6c2.3 2.6 7.8 4.8 7.8 3 0-.4 1.4-1.1 3.1-1.5 1.7-.3 2.8-1 2.4-1.6-.9-1.4.1-1.3 3.5.5 1.6.8 3.5 1.2 4.3 1 1.4-.6 11.4 9.2 13.6 13.2 1 2 .9 2.3-1.2 2.8-1.2.3-2.8 1.9-3.6 3.6-.7 1.6-1.9 2.9-2.7 2.9-1.3 0-1.8 1.1-1.5 3.6 0 .5-.8 2-1.9 3.2l-2 2.2 2 2c1.1 1.1 2 2.4 2 2.9s.6 1.1 1.2 1.3c.8.3 1.2 1.8 1 3.9-.3 3.2 0 3.5 3.5 4.6 3.2 1 4.2.9 6.3-.5 1.4-.9 4.1-2.4 6.1-3.3 2.2-1 3.9-2.6 4.2-4.1.6-2.3.9-2.4 7.2-2 4.1.3 7.1 0 7.8-.7.6-.6 2.1-1.1 3.3-1.1 1.2 0 2.7-.7 3.4-1.5.7-.8 2.1-1.5 3.1-1.5s3-.5 4.4-1.2c1.8-.8 2.9-.8 3.6-.1 1.1 1.1 5.9-.5 5.9-1.9 0-1.8 5.8 1.6 7.4 4.3 1 1.7 3.1 3.5 4.7 4.1 1.5.5 3.7 2.4 4.8 4.1 1.2 1.8 2.1 2.8 2.1 2.3s.7-.3 1.5.4 1.5 1 1.5.6 1.1.1 2.5 1c1.3.8 3.2 1.4 4.2 1.2 1-.3 3 .1 4.4.8 2.4 1.2 2.7 1.1 3.2-.6.4-1.4 1.4-2 3.4-2 2.1 0 3.3-.7 4.3-2.5s1.9-2.4 3.2-1.9c1.4.4 2.1 0 2.4-1.3.8-2.8 14.1-6.1 17.4-4.3 1.8 1 2.4.9 3.1-.1.6-1-.2-1.9-3.1-3.3-4.3-2.1-4.9-3.1-2.5-4 .8-.3 1.5-.1 1.5.4 0 1.6 3.6 1.2 5-.5.7-.9 2-1.3 2.8-1 3.1 1.1 4.1-1.4 3.6-8.3-.3-3.7-.8-7.4-1.1-8.2-.3-.8-.6-2.6-.7-4-.1-1.7-.6-2.4-1.6-2.1-.8.2-3.6.5-6.2.7-3.7.3-4.8 0-4.8-1.1 0-2-4.4-2-6 0-.7.8-2 1.5-3 1.5-.9 0-2.5.9-3.4 1.9-1 1.1-2.4 1.7-3.2 1.4-.8-.3-1.4-.1-1.4.5 0 1.6-5.3 1.1-6.9-.8-.9-.9-2.8-2.2-4.3-2.8-2.3-.9-2.6-.9-2.1.3.8 2.1-.3 1.8-2.6-.7-1.7-1.8-2.3-1.9-3.6-.8-.8.7-1.8 1-2.1.7-.3-.3-2.2.4-4.2 1.5s-5.4 2.1-7.5 2.2c-2.1.1-4.2.8-4.7 1.5-.6 1.1-1.1.9-2-.9-.6-1.2-.9-2.4-.6-2.7.3-.3-.2-2.2-1-4.2-.9-2-1.7-4.3-1.9-5.1-.2-.8-.4-1.6-.4-1.8-.1-.2-1.4.6-3 1.7-3.4 2.5-6 2.9-4.2.7.9-1.1.5-1.8-2.3-3.5-1.9-1.2-3.7-2.7-3.9-3.4-.6-1.8.5-8.1 1.6-8.8 1.3-.9-1-4.9-2.8-4.9-.7 0-1.5.5-1.7 1.1-.4 1.3-9.8-8-9.8-9.8 0-.7-1.1-1.3-2.4-1.3-3 0-5-2.4-5.2-6.2-.3-4.9-2.3-8.2-7.1-11.2-2.5-1.6-5.1-4.3-5.9-6-1.2-2.8-1.1-3.3.8-4.9l2.1-1.8-2.6-2.7c-1.5-1.5-3.2-4.3-3.8-6.2-1-3-5.9-8.7-7.8-9.1-.3-.1-1.7-.3-3.1-.5-4.9-.6-10.5-2.1-13-3.4-1.4-.7-4.3-1.9-6.5-2.5-3.6-1.1-4.1-1.6-5.1-5.6-1-4.4-1.1-4.4-5.8-4.7-4-.3-5-.8-6.6-3.4-1.6-2.7-1.7-3.4-.5-5.1 1.2-1.7 1.2-2.4-.1-4.8-.7-1.5-1.4-3.6-1.4-4.6 0-1-.7-2.9-1.6-4.1-.8-1.2-1.2-2.7-.9-3.3 1.1-1.7-1.6-10-3.7-11.2-1-.7-1.8-1.5-1.8-2 0-1.8-4.5-6.7-6.2-6.7-1 0-1.8-.6-1.8-1.4 0-.8-1.2-2.4-2.7-3.6-3.8-2.9-7.1-9.1-6.3-11.6.5-1.2-.4-4.2-2.6-8.6-1.9-3.8-3.3-6.9-3.2-7 .2-.2-1-1.9-2.5-3.9s-2.7-4.1-2.7-4.7c0-.7-1.7-2.3-3.7-3.6-6.2-4.1-7.2-5.1-8.9-9.2-.9-2.1-2.8-5.1-4.2-6.7-2.5-2.7-2.5-2.7-.4-2.7 1.2 0 2.2-.1 2.2-.3 0-.2-1.2-2.8-2.6-5.8-2.8-5.8-4.9-8.5-7.5-10-1.5-.7-1.6-.5-1 1.9.4 1.5 1.7 3.1 2.9 3.7 2.5 1.1 2.8 2.3.9 3.1-.7.2-1.4 1.9-1.5 3.6-.2 1.8-1.3 4.1-2.8 5.5-1.8 1.6-2.4 2.9-1.9 4.1 1.3 3 .7 5.6-1.6 7.2-5.6 3.7-6.4 4.7-5.1 6.2.7.9 2.4 1.4 3.9 1.2 2.9-.3 7 2.4 8.7 5.8.6 1.2 2.9 2.7 5.1 3.5 4.6 1.6 6 2.7 5.1 4.2-.5.7-1.5.7-3.3 0-2.1-.8-2.9-.7-3.5.5-.8 1.4-1.2 1.4-3.1.2-1.2-.8-2.9-1.1-3.7-.7-3.1 1.3-6 3.6-6 4.8 0 1.2-6.9 1.4-8 .3-1.3-1.3-7.3-4-8.9-4-1 0-2.3 1.1-2.9 2.5-.6 1.4-1.8 2.5-2.7 2.5-.8 0-1.5.6-1.5 1.3 0 1.4-2.7 1.6-4.7.4-.6-.4-2.2-.3-3.5.2-1.2.6-1.9 1-1.4 1 .5.1.3.7-.3 1.5-.9 1-.9 2-.3 3.3.8 1.4.4 2.4-1.7 4.5-3.2 3.2-6.3 2.9-8-1-1.1-2.3-1.1-2.4.5-1.1 1.6 1.3 1.6 1.2.5-.9-.7-1.3-2.8-3.3-4.7-4.4-2.4-1.4-3.4-2.7-3.4-4.4 0-2.4 1.9-3.5 2.1-1.2 0 .7.5-.1 1-1.9.8-2.8.6-3.5-1.7-5.8-1.4-1.4-2.4-3.1-2.1-3.8.5-1.3-.5-1.6-5.8-1.8-7.5-.3-9.7.1-9.3 1.7.2 1.3 3.2 3.9 4.4 3.9.1 0 .5 1 .8 2.2.6 1.7.3 2.3-.8 2.3-.9 0-1.6-.5-1.6-1 0-.6-1.2-1-2.6-1-2.3 0-2.6.3-2.1 2.6.3 1.9.1 2.4-1 2-.8-.3-3-.6-4.9-.6-2.7 0-3.4-.4-3.4-2 0-2.4-1.3-2.6-3-.5-.7.8-2.1 1.5-3.1 1.5-1.1 0-1.9.4-1.9.9 0 1.1-7 2-7.6.9-1-1.6-3.4 2.1-3.4 5.1 0 4.1-2.8 5.7-3.4 1.9-.1-.7-1.2-2.8-2.4-4.5-2.6-3.7-2.7-4.3-.5-4.3 1.5 0 1.5-.1 0-1.8-1-1-1.7-2.6-1.7-3.5 0-.9-.6-1.7-1.4-1.7-.8 0-1.8-.9-2.1-2-.3-1.1-1-2-1.5-2-.4 0-1-1.2-1.3-2.6-.4-2 .1-2.7 2.1-3.5l2.6-1-3.2-2.1c-3.6-2.3-4-3.5-1.4-5.5 1.6-1.3 1.6-1.4-.5-2.9-2.8-2-2.9-3.4-.5-3.4 2.8 0 5.5-3.3 4-4.8-1-1-1-1.7 0-3.2 1-1.6.9-2.8-.3-6.2-1.9-5.5-1.9-6.1.4-5.3 2.7.8 4.3-1.5 2.5-3.9-.8-1.1-1.5-1.6-1.5-1zm135.2 55.2c.8 2.2-.4 3.1-1.6 1.2-.3-.6-1.5-1-2.6-1-1 0-1.9-.5-1.9-1.1 0-.6.7-.9 1.5-.5.8.3 1.5.1 1.5-.5 0-1.8 2.3-.4 3.1 1.9zm-138.7-.3c.3.8.1 1.5-.3 1.5-.5 0-1.1-.7-1.5-1.5-.3-.8-.1-1.5.3-1.5.5 0 1.1.7 1.5 1.5zm35.6 52.1c0 .2-.7.4-1.5.4s-1.5-.4-1.5-1c0-.5.7-.7 1.5-.4.8.4 1.5.8 1.5 1z"/><path d="M47.5 40.845c1 1.1 2.2 2 2.7 2 1.5 0 .9-2.8-.8-3.4-3-1.1-3.7-.6-1.9 1.4zM80 40.745c0 .6-1.2 1.4-2.7 1.7-1.6.4-3.5 1.3-4.4 2-.8.8-3 1.2-4.7 1-3.2-.3-4.9 1.5-3.5 3.7.4.7.6 2.1.4 3.1-.2 1.3.2 1.7 1.2 1.3.9-.3 2.1.1 2.7.9 2.3 2.7 5.9 1.6 10.8-3.3 2.5-2.6 5.3-4.8 6.2-4.8 4.5-.4 5-.6 5-2.4 0-2.5-.5-2.7-6.2-3.6-3.3-.5-4.8-.4-4.8.4zM62.6 57.345c-1.1.8-2.8 1.3-3.8.9-3.3-1-2 2.3 1.5 3.7l3.2 1.4-5.9.6c-3.2.4-6.3 1.3-6.8 2-.7 1.1-.8.9-.6-.6.2-1.3 1.3-2.2 3.3-2.5 2.8-.5 2.8-.6.8-1.2-1.3-.3-2.6-.2-2.9.3-.3.5-1.3.8-2.2.7-1.1-.2-1.8.5-2 1.9-.2 1.3-.9 2.3-1.7 2.3-.7 0-1.5.5-1.7 1.2-.3.7-1.2.6-3-.6s-2.7-1.4-3-.5c-.3.8-.8.8-1.8-.3-2.3-2.3-4.8-2.8-5.4-1.3-.6 1.6-3.6.9-3.6-.9-.1-1-9-8.2-9-7.2 0 .2 1.1 2.7 2.5 5.4 2.8 5.6 3.2 10 1.1 10.8-1.1.4-.9 1.3 1 4.2 2.1 3 2.3 3.8 1.1 4.7-.7.5-1.2 1.6-.9 2.3.4 1.4-2.8 8.2-3.9 8.2-.4 0-.6 1.1-.6 2.4 0 3.3 2.5 4.1 5.2 1.6 2.8-2.6 4.3-2.5 4.7.2.2 1.8 1.3 2.5 4.5 3.3 4.1 1 6.8 2.5 4.5 2.5-.7 0-1.2.4-1.2 1s.3 1 .8.9c1.9-.3 5 1.4 4.6 2.6-.9 2.1 4.5 2.9 6.7.9 1.5-1.4 2.2-1.5 3.1-.6 1.7 1.7 3.1 1.5 2.4-.3-.4-1 .1-1.5 1.5-1.5s2.5-1 3.2-2.9c1.2-3.2 4.3-5.1 8.5-5.1l2.7-.1-2.7-1.5c-1.7-.8-2.5-2-2.2-2.8.3-.8 0-2.4-.6-3.6-.9-1.7-.9-2.5.2-3.8 2-2.5 1.6-12.6-.6-15.1-1.7-1.9-1.7-2 .6-2.3 1.7-.2 2.2-.8 2-2.3-.2-1.1-.9-2.3-1.5-2.8-.9-.5-.8-.9.2-1.6.7-.5 1.1-1.3.7-1.9-.3-.6-.1-1.2.6-1.4.6-.2.8-1 .4-1.6-.9-1.5-1.7-1.5-4 .3zm-7.6 11.8c0 .8-.3 1.7-.7 2-.9.9-3.4-1.3-2.7-2.4.8-1.4 3.4-1.1 3.4.4zM153.4 73.345c.3.9.6 2.1.6 2.6s1.2.9 2.6.9c2.5 0 2.6-.1 1.2-2.3-1.9-2.7-5.4-3.7-4.4-1.2zM424 259.845c0 .5.5 1 1 1 .6 0 1-.5 1-1 0-.6-.4-1-1-1-.5 0-1 .4-1 1zM306.1 262.045c-.1 1-.9 1.8-1.8 1.8-1.6 0-1.6.1 0 1.7 2.4 2.4 4.5.3 2.9-2.9-.8-1.8-1.1-1.9-1.1-.6zM309.6 263.545c-1.1 1.1-.6 2.1 1.4 2.6 1.2.3 2 0 2-.8 0-1.4-2.5-2.7-3.4-1.8zM505.1 264.445c-.1 1.7-5.6 3.7-8 2.9-1.8-.5-2.1-.2-2.1 1.9 0 1.7-.6 2.6-1.5 2.6s.3 1.7 3 4.2c4 3.7 4.5 4.7 4.5 8.5 0 4.8-.8 5.2-5.4 2.8-2.7-1.4-3.1-1.4-4.5 0-1.4 1.3-1.4 1.8.1 4.3l1.7 2.8-3-.4c-1.7-.3-3.3-1-3.6-1.8-.2-.7-2-2.2-3.9-3.3-3.3-2-3.4-2-3.4-.1 0 2.5-1.7 3.5-3.6 1.9-1.3-1.1-1.8-1-2.5.4-.6.9-2.1 1.7-3.5 1.7-3.9 0-5.2 4-2.9 9.1 1.8 4 2.1 7.7.9 14.9-.4 3 0 4.3 2.6 7.5 1.8 2.2 3.8 4 4.5 4 1.6 0 7.3 8.2 9.9 14.2 1.7 3.8 2.1 4.1 3.9 3.1 1.7-.9 2.3-.8 3.2.7.5 1.1 2 2.9 3.2 4.2 1.2 1.2 2.3 3 2.5 4 .2 1 1.2 1.9 2.2 2.1 2 .4 7.6 5.7 7.6 7.2 0 .6.6 1 1.3 1 .8 0 1.9 1.1 2.6 2.4.7 1.3 2.3 2.8 3.6 3.4 2.2 1 4 5.8 2.5 6.7-.4.2-1 2-1.3 4-.3 1.9-1.3 4.2-2.1 5.1-.9.9-1.3 2-1 2.6.3.5-.3 1.9-1.4 3.1-1.1 1.2-2.5 3.2-3.1 4.4-.6 1.3-1.9 2.3-2.8 2.3-2.4 0-7.3 4.9-6.6 6.7.3.8-.3 2.4-1.4 3.6-4.8 5.2-6 13.2-2.3 15.5 1.1.7 2 2.3 2 3.7 0 1.6.6 2.5 1.5 2.5.8 0 1.5.4 1.5 1 0 .5-.6 1-1.4 1-.8 0-1.6.6-1.9 1.2-.4 1-.7 1-1.8 0-2-1.9-3.9-1.5-6.6 1.5-2.3 2.4-2.3 2.7-.8 3.6 1.3.7 1.4 1.1.5 1.7-1.6 1-.1 5.9 2.3 7.4 2.2 1.4 5.3-.5 4.9-2.8-.2-1.3.3-1.5 2-1.2 1.3.3 3.8.7 5.6 1 1.8.3 4.9 1.7 7 3.1 4.5 3.1 8.2 3.3 8.9.5.3-1.1 1.2-2 1.9-2 .8 0 1.4-.7 1.4-1.6 0-1.2.6-1.5 2.5-1 2 .5 2.5.3 2.5-1.3 0-1.1 1-2.9 2.2-4 1.5-1.5 1.8-2.4 1.1-3.3-1.1-1.4-.2-5.1 1.6-6.2.6-.4.8-2 .4-3.6-.4-2.5-.2-3 1.3-3 1.8 0 1.9-.8 1.6-11.5-.3-9.9-.2-11.5 1.2-11.5 2.1 0 3.6-3.1 3.6-7.7 0-2 .7-5.7 1.6-8 1.6-4.1 1.6-4.5-.1-6.3-.9-1-1.4-2.4-1-2.9.3-.6 0-1.1-.9-1.1-.8 0-1.7-1.3-2.1-3-.4-1.7-1.1-3-1.5-3-.5 0-.7-.7-.3-1.6.4-1.1-.1-2.2-1.2-3-1.4-1.1-1.9-2.8-2-6.9 0-3.2.4-5.4.9-5.2 1 .3 3.9-4.6 4.9-8.3.4-1.5-.1-2.2-1.8-2.6-1.3-.3-3-.2-3.7.2-1.5 1-7.7.5-9.9-.7-1.2-.6-2.1-.4-2.9.6-.7.8-1.7 1.2-2.4.8-.6-.4-1.5-.8-2.1-.8-.5 0-1-1.1-1.1-2.5 0-1.4-.3-3.2-.6-4-1.6-3.8-1.5-7 .1-7 2.4 0 3.9-4.6 4-12.3 0-7.1-.9-8.2-3.8-4.6l-1.6 2-2.9-2.4c-2.4-2.1-2.6-2.7-1.7-4.6.7-1.1 1.8-2.1 2.5-2.1.8 0 1.6-.7 2-1.5.3-.8 1.6-1.5 2.8-1.5 1.6 0 2.7-.9 3.7-3.3.8-1.7 1.9-3.5 2.5-3.9.6-.4.6-1.1-.1-2-1.2-1.6-1.4-11.6-.1-12.4.5-.3.6-1.4.3-2.5-.5-1.4-.3-1.7.9-1.3 1.1.4 1.6 0 1.6-1.5 0-1.2-.5-2.1-1.1-2.1-.6 0-.9-.9-.6-2 .3-1.1.1-2.3-.5-2.6-1.4-.9-3.8 2.8-3.2 5.1.4 1.8-4-4.6-5-7-.2-.6-1.1-.5-2.5.2-1.1.7-2.7 1.3-3.5 1.3-.8 0-1.7-.6-1.9-1.3-.4-.7-.6-.8-.6-.1zM416.5 307.845c.3.5.8 1 1.1 1 .2 0 .4-.5.4-1 0-.6-.5-1-1.1-1-.5 0-.7.4-.4 1zM612 430.845c0 1.1-.7 2-1.5 2-.9 0-2 1.1-2.5 2.5-.6 1.7-2 2.7-3.9 3.1-2.7.6-2.9 1-2.5 3.4.4 1.5.1 3.1-.5 3.4-.8.5-.8 1.3 0 2.8.8 1.4.8 2.3 0 3.1-.6.6-1.1 2.1-1.1 3.3 0 3.1-3.6 5.4-8.2 5.4-2.7 0-3.8.4-3.8 1.5 0 .9-.9 1.5-2.5 1.5-1.4 0-2.5.4-2.5.9s-2.1 1.9-4.7 3.1c-3.4 1.6-5.7 2-8.4 1.6-3.4-.6-3.9-.3-5.6 2.5-1.5 2.5-2.3 2.9-4.5 2.5-1.7-.3-3.1 0-3.9 1-1.2 1.4-1.4 1.4-2.6-.2-1.1-1.5-1.3-1.5-1.3-.2 0 .8-1.6 2.3-3.5 3.4-1.9 1-3.5 2.2-3.5 2.6 0 1.2-6.8.9-7.5-.3-.4-.5-1.7-1.4-3-1.9-1.7-.6-2.2-1.5-1.8-2.9.6-2.2-3.8-5.4-4.5-3.2-.3.9-.7.9-1.7.1-.8-.6-1.1-1.9-.8-2.7.5-1.3.1-1.5-2-1.1-1.5.3-2.7.2-2.7-.2s-.7-.7-1.5-.7c-.9 0-1.5 1-1.5 2.4 0 1.2-.5 2.3-1.1 2.3-.7 0-.8 1.1-.4 3 .4 1.8.2 3.6-.4 4.4-.8 1-.5 2.2 1.4 5 2 3 2.3 4.1 1.5 5.7-1 1.7-.7 2.1 1.9 3 3.9 1.4 3.9 2.2.1 5.9-3.3 3.3-3.8 3.4-5.9 2.1-1-.6-2.5-.5-4.2.5-2.5 1.2-2.8 1.2-3.2-.4-.3-1.1-.5-.8-.6.8-.1 2.7-3.4 6.3-4.7 5.2-.4-.4-.4-.2 0 .5s1.4.9 2.3.6c1.3-.5 1.5-.2 1.1 1.5-.4 1.2 0 2.6.9 3.3 1.2 1.1 1.2 1.4-.1 2.1-1.2.7-.8 1.6 2.4 5.1 2.2 2.3 4.6 6.1 5.4 8.4 1.5 4.3 1.1 11.3-.5 11.3-1.5 0-1 2.2.7 3.4 1.4 1 1.4 1.4 0 4.1-.9 1.7-1.6 3.6-1.6 4.2 0 .7-.6 1.3-1.4 1.3-.8 0-2.2 1-3 2.1-1 1.5-2.2 2-3.9 1.7-2.3-.4-2.4-.3-1.4 1.9 1.1 2.4 4.1 3.1 5.2 1.3.5-.8 1.1-.7 2.1.1 1.1.9 1.5.8 1.9-.3.3-.8 1.8-1.5 3.3-1.5 5.5-.1 7.2-.6 6-2-1.5-1.9-1.1-2.1 5.8-2.8l6-.7 2.8 3.6c1.7 2.3 3.5 3.6 5.1 3.6 1.3 0 2.5.4 2.7 1 .2.6 1.6.5 3.8-.3 6.1-2.2 8.1-3.7 8.7-6.8l.6-3 2.4 2.3c1.5 1.4 2.7 1.9 3.1 1.2 1-1.6 3.5-2.2 5.3-1.3 1.7.9 2.4.5 6.3-3.8 2.5-2.8 2.7-3.4 1.5-4.9-1.1-1.4-1.1-1.8.5-2.9 1.2-.9 1.6-2 1.2-3.3-.4-1.1-.2-2.3.4-2.7.5-.3 1-1.5 1-2.6 0-1.2.7-1.9 2-1.9 1.1 0 2-.5 2-1.2 0-.6 1-.2 2.3 1 2 1.9 2.5 2 4.9.8 2.2-1.2 2.9-1.2 4.6 0 1.8 1.2 2.3 1.1 5.2-1.6 1.8-1.7 3.9-3 4.6-3 .8 0 1.7-.6 2-1.4.4-1.1 1.2-1.3 2.9-.6 1.7.7 2.7.5 3.7-.7 1-1.3 1-1.7.1-2-.7-.3-1.3-1.8-1.3-3.5 0-2.3.4-2.9 1.5-2.4 2.2.8 3.7-2.7 2.5-5.9-.5-1.4-1-2.8-1-3.1 0-.9 3.9-.3 7.3 1.1 2 .8 3.9 1.5 4.2 1.5.3 0 .5-.7.5-1.5s.7-1.5 1.6-1.5c2 0 4.3-2.8 4.4-5.2 0-1.1.5-1.5 1.4-1.2.7.3 1.6-.2 1.9-1 .9-2.2 2.7-2 2.7.2 0 2.3 4 6.2 6.3 6.2 1 0 2-.7 2.3-1.5.4-1 1-1.2 1.8-.6 1.3 1 5.5.9 7.4-.3.9-.5 2-.2 3 .9 1 1 1.1 1.5.5 1.1-2.3-1.3-1.4 1.4 1.3 3.9 1.4 1.3 2.3 2.8 2 3.3-.3.5 1 .4 2.9-.2 1.9-.7 6.6-1.1 10.5-.9 6.4.2 7 .1 7.1-1.7.1-1.1.3-2.5.4-3 .1-.6.3-1.5.4-2 0-.6 1.4-1 3-1 2.1 0 3.2-.6 3.6-2 .3-1.1 1.2-2 2-2 1.4 0 3.5-4.9 3.5-8.1 0-1.1-.5-1.9-1.1-1.9-.6 0-.9-.9-.6-2 .3-1-.1-2.4-.9-3.1-.8-.6-1.4-2-1.4-3.1 0-2.4-2.8-6.8-4.4-6.8-1.6 0-3.8-3.8-2.6-4.5.5-.3 1.4.4 2 1.5.6 1.1 1.6 2 2.3 2 .8 0 .6-.4-.3-1-1.2-.8-1.3-1.2-.2-1.9 1.1-.6 1-1-.5-1.6-1-.5-2.2-.7-2.7-.6-2.4.5-4.6-1.2-4.6-3.7.1-2.5.2-2.6 1.4-.9 1.1 1.5 1.5 1.5 1.9.3.3-.8-.1-2-.9-2.7-1.1-.9-1.4-2.2-1-4.1.3-1.5.1-2.8-.4-2.8-.6 0-1-.9-1-1.9 0-3-1-5-2.3-4.5-.7.2-1.8-.6-2.6-1.8-1.2-1.9-1.1-2.3.5-3.5 1.2-1 3.2-1.2 5.6-.9 5 .8 8.6-1 9.7-4.8.9-3.3.1-5-3.1-6.7-1.2-.6-2.4-.6-3.6 0-1.3.7-2.2.7-3-.1-.8-.8-1.3-.7-1.8.6-.6 1.5-1.7 1.7-7.3 1.4-6.2-.3-6.6-.2-6.9 2-.3 1.8-.9 2.2-3.5 2.1-1.8-.1-4.6.1-6.3.5-1.7.4-4.2.2-5.6-.3-1.9-.7-2.9-.6-4.1.6-1.6 1.7-1.6 1.7-9.5-4.8-1.4-1.1-3.2-.4-3.2 1.4 0 1.7-10.4 1.5-12.5-.3-1.4-1.2-1.8-1.2-2.5 0-.5.8-1.2 1.1-1.6.7-.4-.3-.2-1.3.4-2 1.6-1.9-.4-3.7-4-3.7-2.1 0-2.8.5-2.8 2zM725 435.645c0 .6-1.2 2.4-2.7 3.9-3.2 3.2-8.4 3.9-12 1.6-1.2-.8-2.4-1-2.7-.5-.7 1.2.3 2.2 2.5 2.2 1 0 2.3.8 2.8 1.7.6 1 1.1 1.2 1.1.5 0-.6 1-1.2 2.3-1.2 2.1.1 2.1.1.4 1.5-2.2 1.6-2.7 7.9-.8 9.8 1 1 1.1.9.6-.6-.8-1.8.9-2.4 2-.7 1 1.7 2.1 1.1 3.1-1.7.9-2.8.9-2.8 2.9-.8 1.4 1.4 3 1.9 5.3 1.7 2.1-.2 3.2.1 3.2 1 .1.8.6.6 1.5-.6.8-1.1 2.1-1.6 3-1.3 2.2.9 1.9-.2-.8-2.7-1.4-1.3-3.2-2-5-1.8-2.6.3-2.7.2-1.5-1.7 1-1.6 1-2.3 0-3.3-.6-.6-1.2-1.9-1.2-2.8 0-.9-.9-2.5-2-3.5s-2-1.3-2-.7zM697.5 437.845c.3.5 1.1 1 1.6 1 .6 0 .7-.5.4-1-.3-.6-1.1-1-1.6-1-.6 0-.7.4-.4 1zM513.3 453.545c-.7.3-1.3 1.1-1.3 1.8 0 1.5 4.8 7.5 6 7.5.9 0 0-4.9-1.1-5.5-.4-.3-.6-1.2-.3-1.9.6-1.5-1.4-2.6-3.3-1.9z"/><path d="M701 463.045c0 1.1-1 1.8-2.7 2-2.2.2-2.9.9-3.1 3-.3 2.1.3 3 2.6 4.2 1.7.9 3.2 2.1 3.4 2.7.3.8 1 .6 2.1-.5.9-1 2.1-1.4 2.7-1.1 1.9 1.2 8-1.5 8-3.6 0-1.3.7-1.9 2.2-1.9 2 0 2.1-.1.3-2-1-1.1-2-1.8-2.3-1.5-.7.7-3.3-1.6-2.8-2.4.2-.3-2-.6-5-.6-4.4 0-5.4.3-5.4 1.7zM515 560.945c0 .5.5.7 1 .4.6-.3 1-.8 1-1.1 0-.2-.4-.4-1-.4-.5 0-1 .5-1 1.1z"/></g></svg>