<?xml version="1.0" standalone="no"?>
<!DOCTYPE svg PUBLIC "-//W3C//DTD SVG 20010904//EN"
 "http://www.w3.org/TR/2001/REC-SVG-20010904/DTD/svg10.dtd">
<svg version="1.0" xmlns="http://www.w3.org/2000/svg"
 width="385.903188pt" height="609.367631pt" viewBox="0 0 385.903188 609.367631"
 preserveAspectRatio="xMidYMid meet">
<metadata>
Created by potrace 1.15, written by Peter Selinger 2001-2017
</metadata>
<g transform="translate(-848.710765,1359.000000) scale(0.100000,-0.100000)"
fill="#222222" stroke="none">
<path d="M10537 13573 c5 -13 3 -15 -13 -9 -43 18 -49 13 -46 -31 3 -42 2 -43
-27 -43 -16 0 -33 5 -36 11 -4 6 -13 8 -20 5 -7 -2 -18 1 -24 7 -14 14 -14 2
-1 -23 7 -13 6 -21 -2 -26 -8 -5 0 -11 22 -15 20 -4 40 -3 47 3 7 6 28 7 49 3
28 -5 34 -3 28 7 -11 18 -16 50 -7 45 13 -7 38 27 41 56 2 15 -1 27 -7 27 -6
0 -7 -8 -4 -17z"/>
<path d="M10304 13421 c3 -4 -5 -13 -19 -19 -15 -7 -25 -21 -27 -39 -2 -22 -9
-29 -31 -31 -27 -3 -29 -6 -23 -37 7 -34 7 -34 -32 -33 -41 0 -135 -10 -164
-18 -10 -3 -18 -12 -18 -20 0 -8 -9 -14 -19 -14 -10 0 -22 -7 -25 -16 -3 -9
-12 -14 -20 -11 -8 3 -26 -8 -42 -24 -17 -18 -38 -29 -55 -29 -15 0 -31 -4
-34 -10 -3 -5 -20 -10 -36 -10 -17 0 -39 -5 -50 -10 -14 -8 -25 -7 -43 5 -18
12 -29 13 -50 5 -15 -5 -41 -10 -57 -10 -29 0 -39 -13 -19 -25 17 -10 11 -23
-14 -32 -13 -4 -42 -30 -66 -58 -50 -58 -83 -77 -116 -69 -21 5 -24 3 -24 -19
0 -14 -9 -35 -19 -48 -18 -22 -18 -25 -3 -42 12 -13 13 -20 4 -29 -7 -7 -12
-20 -12 -30 0 -29 -24 -98 -34 -98 -10 0 -46 -40 -46 -51 0 -15 -173 -14 -178
1 -2 5 -16 10 -32 10 -16 0 -30 7 -34 16 -3 9 -13 14 -21 10 -8 -3 -18 1 -22
8 -5 8 -26 19 -48 25 -32 9 -42 8 -50 -3 -13 -17 -93 -6 -105 14 -4 7 -15 10
-25 7 -9 -4 -14 -11 -11 -16 3 -5 -1 -14 -8 -20 -10 -8 -16 -9 -21 -1 -11 18
-23 11 -18 -10 4 -14 0 -20 -11 -20 -22 0 -60 -45 -66 -78 -4 -20 -13 -28 -35
-33 -17 -4 -22 -7 -11 -8 18 -1 18 -2 -4 -23 l-23 -21 23 -19 c14 -11 31 -16
46 -12 17 4 30 -1 48 -21 25 -27 46 -27 46 1 0 21 16 17 38 -11 12 -15 30 -25
45 -25 36 0 77 -17 77 -32 0 -12 72 -48 97 -48 7 0 18 -8 25 -19 18 -25 75
-54 83 -41 11 17 25 11 37 -15 7 -16 19 -25 35 -25 13 0 26 -7 29 -15 4 -8 12
-15 20 -15 8 0 22 -9 31 -20 10 -11 25 -20 34 -20 9 0 24 -9 33 -19 10 -10 34
-21 54 -24 20 -3 51 -9 68 -12 22 -5 40 -2 58 10 17 11 35 15 51 11 16 -4 34
-1 47 8 16 11 25 13 35 4 9 -7 17 -7 26 0 7 6 26 10 42 8 17 -1 54 6 82 15 29
10 55 14 58 9 3 -5 12 -7 19 -4 8 3 32 -4 55 -16 25 -12 41 -16 41 -9 0 7 9 9
21 6 15 -4 19 -2 15 8 -2 7 28 -19 68 -59 40 -40 84 -76 98 -79 24 -6 54 -33
94 -82 8 -11 13 -14 9 -7 -4 7 1 24 10 39 12 18 14 27 6 33 -9 5 -7 11 4 20
16 13 15 15 -1 27 -17 12 -16 13 4 13 24 0 30 28 11 47 -7 7 -7 16 0 29 5 11
13 35 16 56 5 32 10 37 43 45 23 6 41 17 49 33 6 13 24 30 40 38 49 26 133
119 133 147 0 42 24 88 70 133 l43 42 -21 23 c-28 29 -29 67 -3 67 14 0 17 6
13 25 -5 27 7 32 39 15 24 -14 38 13 21 41 -7 10 -12 27 -12 38 0 10 -16 33
-36 50 -27 24 -34 36 -29 52 6 18 4 20 -13 14 -12 -3 -39 2 -66 15 -25 11 -50
20 -55 20 -6 0 -11 4 -11 8 0 11 -59 44 -68 38 -15 -9 -82 44 -82 65 0 11 -4
17 -10 14 -11 -7 -14 12 -10 65 1 19 7 38 12 41 18 11 0 55 -27 67 -26 12 -26
32 0 32 8 0 27 12 43 28 22 20 31 39 35 75 3 36 1 47 -10 47 -8 0 -12 -4 -9
-9z m-1284 -851 c0 -5 -2 -10 -4 -10 -3 0 -8 5 -11 10 -3 6 -1 10 4 10 6 0 11
-4 11 -10z"/>
<path d="M10561 12953 c7 -10 15 -20 16 -22 2 -2 3 3 3 11 0 9 -7 19 -16 22
-15 6 -15 4 -3 -11z"/>
<path d="M10045 11904 c-12 -29 -18 -34 -38 -29 -16 4 -29 0 -41 -14 -11 -12
-28 -21 -40 -21 -11 0 -40 -8 -63 -17 -31 -13 -43 -24 -43 -39 0 -11 -9 -29
-20 -39 -11 -10 -20 -26 -20 -37 0 -10 -7 -18 -16 -18 -12 0 -15 -6 -10 -25 5
-18 2 -25 -7 -25 -9 0 -13 -8 -10 -22 6 -32 -17 -58 -55 -63 -81 -10 -90 -14
-98 -53 -11 -55 -10 -76 3 -87 6 -5 14 -24 18 -41 6 -29 4 -31 -19 -27 -16 3
-26 1 -26 -6 0 -6 -8 -11 -18 -11 -23 0 -47 -37 -33 -54 12 -14 -4 -36 -26
-36 -20 0 -15 -41 8 -67 21 -22 21 -23 3 -30 -10 -4 -25 -13 -33 -20 -11 -12
-11 -17 2 -31 9 -9 18 -29 22 -43 5 -20 11 -25 26 -22 10 3 16 10 13 15 -4 6
3 5 15 -1 12 -7 25 -9 30 -6 5 3 16 -1 24 -9 11 -11 17 -12 26 -3 8 8 11 7 12
-3 5 -51 8 -62 23 -79 18 -20 21 -41 6 -41 -5 0 -10 7 -10 16 0 9 -9 18 -19
21 -11 3 -22 11 -25 19 -3 8 -13 14 -23 14 -16 -1 -16 -2 -2 -10 9 -5 22 -23
29 -40 8 -19 18 -29 26 -26 7 3 19 0 26 -7 20 -19 67 -15 74 6 7 21 61 57 86
57 11 0 15 5 12 14 -4 9 2 16 17 18 16 2 25 13 32 37 5 19 16 40 24 46 10 8
14 21 11 38 -4 19 0 27 14 30 11 3 18 14 18 30 0 15 9 31 24 41 13 8 27 29 31
46 5 23 12 30 31 30 17 0 24 6 24 20 0 13 7 20 19 20 21 0 91 60 91 78 0 14
47 62 60 62 6 0 10 4 10 8 0 4 16 6 35 4 33 -4 47 9 25 23 -5 3 -8 22 -5 42 2
19 0 44 -6 55 -8 14 -8 23 0 31 13 13 15 58 3 55 -16 -5 -93 65 -89 81 2 9 -7
30 -19 47 -12 17 -26 48 -29 68 -4 21 -13 39 -19 40 -6 2 -26 8 -44 14 -31 10
-33 9 -47 -24z m-486 -608 c9 -11 6 -13 -14 -13 -15 0 -25 5 -25 13 0 8 6 14
14 14 7 0 19 -6 25 -14z"/>
<path d="M10350 11439 c0 -7 16 -31 35 -55 19 -23 35 -51 35 -61 0 -11 6 -28
14 -38 14 -20 11 -92 -5 -109 -5 -6 -2 -17 7 -27 12 -13 14 -26 9 -46 -6 -21
-9 -23 -12 -10 -3 9 -9 17 -14 17 -11 0 -11 -11 0 -30 7 -10 2 -19 -20 -32
-16 -10 -29 -22 -29 -28 0 -19 -57 -70 -79 -70 -14 0 -21 -6 -21 -19 0 -11 -5
-21 -10 -23 -10 -3 15 -68 25 -68 18 0 52 25 49 35 -7 16 12 29 21 15 11 -19
35 10 35 42 0 33 23 47 46 28 11 -10 18 -10 26 -2 9 9 9 12 0 12 -7 0 -12 11
-12 25 0 34 16 32 35 -5 18 -35 19 -60 3 -60 -7 0 9 -14 35 -30 26 -17 50 -37
53 -45 3 -8 22 -24 42 -36 21 -12 32 -24 25 -26 -7 -3 -13 -13 -13 -24 0 -10
-5 -19 -11 -19 -5 0 -7 -4 -4 -10 19 -31 41 18 44 99 2 38 -3 58 -15 72 -16
18 -16 19 0 19 10 0 16 6 13 13 -2 6 2 20 11 29 12 14 12 20 2 33 -8 10 -9 15
-1 15 16 0 13 66 -4 80 -8 7 -15 19 -15 26 0 7 -11 21 -25 30 -14 9 -25 21
-25 28 0 6 -11 16 -25 23 -27 12 -34 3 -10 -17 11 -9 12 -17 4 -31 -5 -10 -15
-19 -21 -19 -6 0 -21 -11 -34 -25 -33 -36 -46 -31 -28 10 7 19 14 48 14 65 0
17 4 29 9 26 5 -3 12 2 15 11 4 10 1 20 -8 25 -8 4 -17 21 -21 36 -3 18 -22
40 -46 58 -62 45 -93 79 -84 94 3 6 1 10 -4 10 -6 0 -11 -5 -11 -11z m130
-384 c0 -8 -4 -15 -9 -15 -13 0 -22 16 -14 24 11 11 23 6 23 -9z"/>
<path d="M12080 10912 c0 -5 -19 -9 -42 -11 -28 -1 -46 -8 -55 -22 -8 -10 -20
-19 -28 -19 -8 0 -19 -9 -25 -20 -7 -14 -17 -19 -29 -15 -10 3 -29 1 -42 -4
-16 -6 -32 -4 -51 5 -34 17 -75 2 -80 -30 -2 -14 -14 -24 -35 -31 -18 -5 -33
-14 -33 -21 0 -6 -6 -17 -14 -23 -11 -9 -17 -8 -29 4 -23 22 -25 20 -21 -32 2
-33 -3 -58 -15 -79 -18 -31 -18 -32 0 -48 11 -9 24 -16 29 -16 13 0 13 -17 0
-25 -14 -9 -12 -21 4 -38 11 -11 12 -27 5 -78 -5 -35 -10 -81 -12 -101 -1 -28
-7 -38 -18 -38 -9 0 -22 -7 -29 -15 -7 -8 -16 -12 -21 -9 -5 3 -9 0 -9 -5 0
-6 -9 -11 -19 -11 -10 0 -21 -7 -25 -15 -8 -22 -36 -18 -36 5 0 12 7 20 16 20
25 0 11 23 -19 31 -28 8 -87 -14 -87 -31 0 -12 -53 -39 -71 -37 -8 2 -20 6
-26 10 -7 5 -17 6 -22 3 -15 -10 -84 24 -121 58 -19 18 -56 40 -81 50 -25 9
-58 30 -74 46 -16 17 -34 30 -41 30 -6 0 -17 7 -25 16 -7 8 -21 13 -32 10 -13
-3 -27 5 -43 23 -13 16 -33 31 -45 34 -16 4 -19 3 -11 -5 8 -8 9 -15 1 -25
-17 -19 -49 -16 -49 5 -1 16 -2 15 -11 -2 -16 -26 22 -66 45 -47 21 18 32 -6
12 -28 -9 -10 -16 -29 -16 -42 0 -14 -6 -32 -12 -41 -15 -18 -56 -30 -63 -17
-3 4 -18 6 -33 3 -19 -4 -33 0 -41 10 -8 9 -28 16 -45 16 -53 0 -59 8 -70 94
-4 27 -42 43 -67 28 -16 -10 -19 -9 -19 4 0 14 -7 16 -45 11 -27 -4 -45 -3
-45 3 0 6 -4 10 -9 10 -5 0 -1 -22 9 -50 14 -38 15 -50 5 -50 -7 0 -18 7 -25
15 -10 13 -15 9 -31 -22 -15 -30 -17 -44 -9 -74 6 -20 17 -39 24 -42 12 -5 11
-12 -5 -44 -10 -20 -19 -51 -19 -68 -1 -35 -20 -65 -43 -65 -22 0 -30 -17 -14
-27 13 -7 24 -45 30 -103 2 -22 -2 -25 -30 -24 -27 0 -30 -2 -22 -18 10 -18
-3 -58 -19 -58 -11 0 -6 -61 6 -69 16 -10 -22 -68 -58 -89 -19 -11 -30 -25
-30 -39 0 -15 -6 -23 -18 -23 -10 0 -22 -4 -28 -9 -18 -17 -69 -20 -88 -5 -11
8 -27 14 -37 14 -9 0 -22 7 -29 15 -7 8 -16 13 -20 10 -3 -2 -29 16 -56 41
-27 25 -61 47 -75 50 -20 5 -26 12 -26 37 -2 64 -23 105 -85 169 -23 23 -23
44 1 51 30 8 32 55 4 109 -22 42 -31 50 -76 63 -28 8 -65 15 -83 15 -18 0 -36
5 -39 10 -10 17 -55 12 -55 -6 0 -11 -6 -15 -20 -11 -11 3 -20 2 -20 -3 0 -4
-16 -10 -36 -13 -41 -7 -74 9 -74 35 0 27 -16 30 -52 8 -62 -38 -119 -19 -112
37 2 15 1 22 -2 15 -5 -10 -10 -8 -21 7 -15 22 -43 29 -43 10 0 -6 -12 -9 -27
-7 -25 3 -28 6 -25 38 l4 35 -22 -20 c-18 -17 -91 -34 -155 -37 -17 0 -21 -7
-20 -42 0 -54 31 -86 85 -89 42 -2 46 -7 30 -38 -7 -13 -7 -19 0 -19 5 0 10 5
10 11 0 5 5 7 10 4 13 -8 13 -65 1 -65 -17 0 -4 -50 19 -70 13 -11 26 -20 30
-20 3 0 20 -20 38 -45 32 -46 90 -79 118 -68 10 4 26 -6 44 -26 16 -17 33 -31
38 -31 5 0 12 -8 16 -17 3 -10 15 -33 26 -50 l19 -33 -23 -25 c-13 -14 -31
-25 -40 -25 -17 0 -19 -5 -20 -65 -1 -28 5 -46 19 -59 17 -16 17 -18 3 -13
-12 4 -18 1 -18 -9 0 -8 -7 -25 -16 -38 -14 -23 -14 -25 4 -30 16 -5 18 -15
16 -60 -2 -45 1 -59 21 -82 13 -16 25 -37 27 -48 2 -12 16 -24 37 -31 18 -6
39 -19 47 -29 8 -12 25 -19 42 -18 23 0 30 -5 38 -31 6 -22 20 -38 47 -50 34
-17 51 -47 26 -47 -5 0 -7 -6 -3 -12 28 -45 1 -94 -52 -96 -35 -1 -54 -14 -54
-37 1 -5 5 -2 11 8 14 24 49 22 49 -2 0 -14 5 -18 20 -14 11 3 20 9 20 14 0
10 41 12 64 3 13 -5 14 -9 5 -20 -15 -18 9 -19 46 -2 29 13 34 48 8 48 -25 1
-94 59 -70 60 10 0 17 8 17 20 0 20 4 21 60 14 51 -6 60 -4 60 9 0 12 10 16
39 14 22 0 37 -5 34 -10 -2 -4 7 -20 21 -34 20 -20 26 -22 26 -9 0 24 47 21
60 -4 6 -11 17 -20 25 -20 9 0 15 -9 15 -23 0 -38 23 -75 58 -91 38 -18 66
-21 57 -5 -4 6 3 5 14 -3 18 -11 23 -11 31 2 7 12 12 12 28 -4 15 -13 29 -16
56 -11 20 4 40 12 44 19 4 6 16 16 27 22 11 6 25 21 30 33 8 18 16 21 41 16
34 -6 52 7 59 45 2 12 9 27 14 34 7 8 1 21 -21 41 -28 26 -29 30 -12 36 22 8
34 3 34 -14 0 -7 14 -14 30 -15 25 -2 30 1 30 20 l0 21 26 -24 26 -24 -7 33
c-5 25 -3 32 9 32 9 0 16 -7 16 -15 0 -8 6 -15 14 -15 16 0 26 -21 26 -55 0
-13 5 -27 10 -30 17 -10 11 -35 -7 -35 -18 0 -63 -56 -63 -77 0 -6 -12 -14
-27 -18 -15 -3 -22 -9 -16 -13 5 -4 16 -18 23 -31 12 -23 11 -23 -14 -19 -22
5 -26 2 -20 -11 3 -9 7 -24 8 -33 1 -10 5 -21 9 -24 16 -17 5 -43 -22 -52 -16
-6 -32 -8 -35 -5 -3 4 -6 1 -6 -6 0 -7 6 -11 13 -8 7 3 19 -4 26 -16 18 -28
25 -77 11 -77 -7 0 -10 -13 -8 -32 3 -32 2 -33 -35 -34 -22 -1 -43 -7 -47 -14
-4 -7 -12 -10 -16 -7 -15 9 -47 -21 -41 -37 4 -9 -1 -17 -13 -21 -11 -3 -19
-12 -17 -18 1 -7 -10 -13 -25 -15 -18 -2 -28 -9 -28 -20 -1 -15 -3 -14 -16 3
-14 19 -15 17 -9 -27 5 -35 4 -48 -5 -48 -7 0 -10 -7 -6 -17 7 -18 17 -87 21
-143 1 -19 -4 -42 -12 -51 -12 -14 -12 -17 1 -22 17 -7 10 -46 -11 -62 -12 -9
-11 -15 6 -37 12 -14 21 -32 21 -40 0 -7 9 -24 20 -38 11 -14 20 -33 20 -42 0
-20 35 -42 56 -34 8 3 14 -1 14 -9 0 -8 12 -22 26 -32 45 -29 55 -93 13 -93
-10 0 -22 -7 -27 -15 -4 -9 -18 -17 -29 -18 -18 -1 -20 -6 -16 -42 3 -22 12
-45 20 -52 20 -15 55 -2 68 25 11 25 18 26 46 12 15 -8 19 -7 19 5 0 8 7 15
17 15 9 0 30 11 47 24 27 20 35 22 49 11 9 -7 17 -21 17 -33 0 -26 20 -33 50
-17 18 9 29 10 37 3 18 -15 16 -31 -2 -24 -22 8 -18 -7 5 -22 12 -7 26 -9 33
-5 6 4 39 8 72 9 42 1 72 9 96 23 40 25 59 27 59 6 0 -10 10 -15 34 -15 25 0
40 -7 55 -26 12 -15 21 -22 21 -15 0 6 9 11 20 11 11 0 20 6 20 14 0 7 7 19
15 26 8 7 12 16 9 21 -3 5 0 14 5 21 71 86 70 83 41 130 -11 18 -20 43 -20 56
0 15 -10 29 -30 40 -21 12 -28 22 -24 34 3 12 -6 28 -27 48 -18 16 -30 33 -26
36 4 4 2 13 -4 21 -9 10 -8 18 5 31 9 10 16 34 16 53 0 19 7 44 15 56 14 20
14 26 -1 65 -8 24 -18 54 -21 67 -3 13 -14 32 -24 42 -11 11 -19 27 -19 37 0
9 -9 28 -20 42 -11 14 -20 29 -20 34 0 4 -19 29 -42 56 -24 26 -48 62 -55 80
l-12 33 40 -6 c31 -4 42 -2 46 10 4 9 -1 19 -10 25 -10 5 -17 18 -17 28 0 11
-4 20 -9 20 -5 0 -7 9 -4 20 4 14 0 20 -10 20 -12 0 -14 9 -10 40 4 26 2 40
-6 40 -19 0 -12 25 14 50 14 13 25 34 25 47 0 13 4 23 10 23 23 0 49 43 43 71
-4 23 -2 29 11 29 11 0 14 4 9 13 -10 16 -11 57 -1 57 4 0 3 12 -2 26 -6 14
-8 42 -6 62 2 21 0 42 -5 49 -7 7 -6 14 1 18 5 3 10 1 10 -6 0 -7 3 -10 6 -6
3 3 -10 26 -30 50 -20 24 -36 47 -36 51 0 13 28 5 34 -10 3 -8 10 -12 16 -9 7
4 7 12 0 25 -15 27 -12 57 5 64 8 3 15 12 15 20 0 7 -7 16 -15 20 -8 3 -15 17
-15 32 0 20 4 25 16 20 15 -6 15 -4 3 11 -13 15 -12 16 11 9 14 -5 40 -10 59
-13 21 -4 44 -17 59 -34 26 -31 72 -40 72 -14 0 8 5 15 12 15 6 0 40 14 76 31
l64 30 22 -20 c12 -12 27 -21 34 -21 14 0 35 -37 28 -49 -3 -5 22 -8 55 -7 55
1 64 -2 84 -26 20 -23 29 -26 64 -19 2 1 -2 8 -9 16 -11 13 -10 14 4 9 11 -4
16 -14 13 -26 -4 -12 3 -24 18 -34 28 -18 47 -65 34 -85 -14 -22 -11 -34 14
-60 12 -14 29 -35 37 -47 11 -17 34 -26 95 -38 44 -8 92 -13 107 -10 16 3 31
0 38 -9 9 -11 17 -11 36 -3 13 6 24 15 24 20 0 5 9 4 19 -2 14 -7 22 -7 27 1
3 6 18 9 32 6 36 -7 56 2 42 18 -8 9 -3 22 17 46 15 19 31 36 36 37 13 6 7 22
-8 22 -8 0 -15 -5 -15 -12 0 -9 -3 -9 -11 -1 -8 8 -8 21 2 50 7 21 11 43 9 48
-2 6 -4 24 -5 42 -1 23 3 33 17 36 17 5 21 19 21 82 0 11 -3 29 -7 40 -5 11
-12 32 -18 47 -11 31 -127 95 -139 77 -8 -14 -41 -4 -89 24 -19 12 -45 20 -58
18 -20 -2 -23 1 -17 18 4 13 2 21 -5 21 -6 0 -15 11 -21 23 -6 13 -24 31 -40
41 -16 9 -29 24 -29 32 0 8 -7 14 -15 14 -9 0 -24 13 -33 30 -9 16 -25 30 -34
30 -43 0 -67 82 -32 111 19 15 12 79 -11 112 -33 48 -2 66 34 21 12 -15 21
-24 21 -20 0 4 9 2 20 -4 27 -15 60 8 75 53 10 29 9 37 -8 58 -19 23 -19 23 5
30 13 3 37 13 55 22 30 16 31 18 27 72 -4 46 -3 55 11 55 10 0 15 7 13 18 -2
11 -11 16 -25 14 -19 -3 -28 8 -38 48 -1 3 -7 18 -14 34 -6 16 -9 37 -6 47 3
10 1 27 -5 39 -10 19 -9 19 16 8 23 -11 28 -10 40 7 14 18 16 18 42 3 16 -10
38 -15 50 -11 21 5 23 17 7 69 -2 7 10 14 26 18 34 6 38 21 8 29 -12 3 -18 10
-14 16 11 19 36 12 67 -19 16 -16 34 -30 40 -30 6 0 27 -18 47 -40 43 -49 93
-62 135 -35 14 9 23 21 20 27 -3 5 -7 21 -9 35 -1 14 -14 36 -28 50 l-25 26
24 21 c20 18 23 27 18 58 -4 20 -13 39 -23 42 -9 3 -25 11 -36 18 -11 7 -22
14 -24 15 -2 2 1 9 8 17 9 11 8 15 -4 20 -8 3 -15 2 -15 -2z m-2710 -1744 c0
-5 5 -6 10 -3 6 3 10 1 10 -5 0 -8 -9 -10 -27 -5 -39 9 -50 23 -19 23 14 0 26
-5 26 -10z"/>
<path d="M10604 10636 c-3 -9 -17 -16 -31 -16 -24 0 -25 -1 -10 -22 8 -13 25
-23 38 -24 52 -2 59 -4 59 -24 0 -11 4 -20 9 -20 5 0 17 -7 25 -16 14 -13 16
-13 16 -1 0 9 2 22 5 30 4 8 -15 32 -50 61 -44 38 -56 44 -61 32z"/>
<path d="M10550 10516 c0 -3 9 -10 20 -16 11 -6 20 -8 20 -6 0 3 -9 10 -20 16
-11 6 -20 8 -20 6z"/>
<path d="M10230 10416 c0 -2 7 -9 15 -16 13 -11 14 -10 9 4 -5 14 -24 23 -24
12z"/>
<path d="M11800 10280 c0 -11 -4 -20 -10 -20 -5 0 -10 -7 -10 -15 0 -8 -9 -15
-20 -15 -19 0 -20 -2 -6 -29 20 -38 46 -48 47 -18 1 22 4 37 8 47 7 17 7 70 0
70 -5 0 -9 -9 -9 -20z"/>
<path d="M12173 9243 c-13 -2 -23 -9 -23 -14 0 -5 -11 -9 -25 -9 -29 0 -34
-24 -9 -38 16 -9 19 -29 12 -91 -1 -14 -13 -36 -26 -50 -17 -19 -21 -31 -16
-51 4 -14 6 -33 6 -44 -1 -10 8 -34 18 -54 11 -19 17 -39 15 -43 -3 -4 3 -10
13 -14 16 -6 15 -7 -3 -18 -11 -7 -20 -21 -20 -32 0 -13 -7 -20 -20 -20 -15 0
-19 -6 -17 -23 3 -18 -2 -22 -22 -22 -37 0 -56 -10 -56 -30 0 -28 -29 -53 -45
-40 -9 7 -15 7 -19 1 -4 -5 -2 -12 4 -16 18 -11 11 -24 -21 -41 -23 -11 -34
-13 -42 -5 -6 6 -21 11 -33 11 -16 0 -23 -8 -27 -29 -6 -29 -55 -59 -76 -46
-6 3 -13 -10 -17 -34 -4 -22 -15 -48 -25 -57 -25 -23 -25 -54 1 -54 11 0 20
-7 20 -16 0 -8 4 -13 9 -9 17 10 23 -15 10 -45 -8 -16 -22 -31 -32 -34 -15 -4
-18 -11 -14 -27 4 -13 2 -29 -4 -35 -7 -9 -4 -16 11 -24 23 -12 40 -6 40 14 0
8 6 19 14 25 11 9 15 8 20 -5 9 -24 7 -36 -6 -28 -6 4 -8 3 -5 -2 15 -25 107
7 107 37 0 19 45 59 66 59 8 0 14 7 14 15 0 8 7 15 15 15 8 0 15 7 15 15 0 8
5 15 12 15 6 0 20 7 30 17 16 15 21 15 58 0 22 -8 40 -12 40 -9 0 4 14 13 31
21 17 7 32 20 35 27 14 47 14 47 29 34 19 -16 35 -4 35 24 0 15 7 26 19 29 12
3 22 18 26 38 10 48 15 53 30 32 7 -10 16 -15 19 -12 3 3 -3 15 -14 26 -12 13
-15 23 -8 25 6 2 8 13 4 26 -4 12 -12 20 -17 17 -17 -11 -9 25 16 76 20 39 23
54 15 69 -8 14 -8 20 0 20 6 0 8 5 4 12 -4 6 -7 28 -6 47 2 32 -2 38 -28 48
-26 10 -30 16 -30 52 0 26 -5 43 -16 49 -11 6 -14 16 -9 31 5 18 9 20 21 10
16 -13 19 2 3 18 -12 12 -3 53 11 53 4 0 6 8 3 19 -3 11 2 21 11 24 22 9 20
29 -4 55 -21 22 -65 27 -127 15z m117 -668 c0 -8 -4 -15 -9 -15 -13 0 -22 16
-14 24 11 11 23 6 23 -9z"/>
<path d="M12306 9047 c3 -10 9 -15 12 -12 3 3 0 11 -7 18 -10 9 -11 8 -5 -6z"/>
<path d="M10276 8613 c-6 -14 -5 -15 5 -6 7 7 10 15 7 18 -3 3 -9 -2 -12 -12z"/>
</g>
</svg>
