<?xml version="1.0" standalone="no"?>
<!DOCTYPE svg PUBLIC "-//W3C//DTD SVG 20010904//EN"
 "http://www.w3.org/TR/2001/REC-SVG-20010904/DTD/svg10.dtd">
<svg version="1.0" xmlns="http://www.w3.org/2000/svg"
 width="521.665219pt" height="925.417360pt" viewBox="0 0 521.665219 925.417360"
 preserveAspectRatio="xMidYMid meet">
<metadata>
Created by potrace 1.15, written by Peter Selinger 2001-2017
</metadata>
<g transform="translate(-685.657151,1485.928950) scale(0.100000,-0.100000)"
fill="#222222" stroke="none">
<path d="M11210 14851 c0 -5 6 -11 13 -14 9 -3 7 -10 -6 -25 -18 -20 -18 -20
5 -28 13 -4 25 -8 28 -9 3 0 10 -4 16 -8 8 -4 13 5 16 28 3 31 0 36 -28 50
-37 17 -44 18 -44 6z"/>
<path d="M11318 14829 c-7 -20 38 -52 62 -44 11 3 20 13 20 21 0 17 -36 19
-46 3 -4 -8 -11 -4 -19 11 -9 16 -14 19 -17 9z"/>
<path d="M11440 14779 c0 -6 -7 -9 -15 -5 -13 5 -13 1 0 -32 9 -20 25 -44 37
-53 11 -9 18 -21 14 -28 -5 -7 0 -10 16 -7 13 3 25 5 28 5 3 1 -2 6 -10 11
-13 8 -13 10 1 10 12 0 16 11 17 45 2 44 1 45 -27 45 -17 0 -33 5 -36 10 -8
13 -25 13 -25 -1z"/>
<path d="M11690 14715 c0 -8 4 -15 10 -15 5 0 7 7 4 15 -4 8 -8 15 -10 15 -2
0 -4 -7 -4 -15z"/>
<path d="M11840 14704 c0 -4 5 -22 12 -40 10 -28 9 -38 -6 -67 -15 -27 -16
-38 -7 -55 7 -13 9 -27 6 -33 -4 -5 -1 -17 7 -26 11 -15 11 -16 -7 -9 -29 11
-75 16 -75 8 1 -18 27 -38 50 -37 14 0 33 -3 42 -8 14 -6 16 -4 11 10 -6 17
-5 17 14 1 26 -24 33 -23 33 7 0 16 6 25 15 25 8 0 15 7 15 16 0 13 7 15 34
11 l34 -5 -9 34 c-6 19 -9 40 -8 46 4 23 -13 48 -31 48 -31 0 -50 11 -50 29 0
9 -14 23 -32 31 -18 7 -36 15 -40 18 -5 2 -8 0 -8 -4z"/>
<path d="M11654 14670 c-5 -5 -35 -11 -66 -14 -31 -3 -64 -9 -75 -15 -10 -5
-25 -12 -33 -16 -8 -3 -26 -12 -40 -20 -19 -11 -21 -15 -7 -15 11 0 17 -8 17
-23 0 -13 9 -32 20 -42 11 -10 20 -28 20 -39 0 -28 11 -42 38 -50 27 -9 28
-22 2 -36 -11 -6 -20 -18 -20 -26 0 -11 -6 -13 -20 -9 -31 10 -52 -17 -40 -50
6 -15 8 -31 4 -36 -3 -5 -1 -9 5 -9 5 0 12 -18 16 -40 4 -22 15 -46 26 -53 10
-8 22 -28 25 -46 6 -28 4 -31 -12 -24 -15 5 -13 -1 9 -27 16 -18 39 -42 53
-52 17 -14 22 -26 19 -41 -7 -31 4 -43 49 -56 47 -12 52 -10 35 17 -11 18 -8
24 26 57 34 31 37 39 27 55 -16 27 -15 61 3 87 10 14 12 29 7 44 -9 24 15 59
42 59 7 0 19 7 26 15 7 8 18 15 25 15 18 0 26 25 12 39 -9 9 -8 15 6 22 9 6
17 17 17 26 0 13 -3 13 -15 3 -9 -7 -18 -10 -22 -7 -3 4 -15 0 -27 -8 -26 -19
-47 -19 -71 -1 -18 13 -17 14 8 42 24 25 25 30 11 45 -10 11 -12 19 -5 24 20
12 11 46 -18 73 -26 24 -35 46 -45 116 -3 23 -18 30 -32 16z"/>
<path d="M11994 14204 c-9 -37 -34 -66 -52 -59 -7 3 -23 0 -34 -6 -16 -9 -18
-13 -7 -19 10 -7 10 -14 1 -35 -17 -37 -15 -42 18 -47 26 -4 30 -1 30 18 0 13
-8 28 -17 33 -14 8 -10 10 19 6 32 -3 40 0 58 25 11 16 32 30 46 32 25 3 25 3
-15 42 l-40 39 -7 -29z"/>
<path d="M11870 13965 c0 -14 -8 -29 -20 -35 -21 -11 -21 -11 -1 -36 18 -23
18 -29 7 -67 -7 -23 -11 -47 -9 -54 2 -6 -5 -14 -16 -18 -12 -3 -21 -11 -21
-16 0 -6 -4 -8 -9 -5 -5 3 -7 16 -4 27 6 22 -16 43 -47 44 -17 0 -67 85 -51
85 6 0 11 6 11 13 -1 6 -10 1 -21 -13 -16 -19 -19 -33 -15 -61 4 -25 1 -40 -8
-49 -17 -13 -10 -39 13 -57 11 -8 12 -12 4 -13 -7 0 -12 -3 -11 -7 2 -7 -18
-50 -28 -61 -1 -2 -23 10 -48 28 -45 31 -47 31 -75 14 -17 -10 -27 -23 -24
-31 3 -7 0 -19 -6 -27 -6 -7 -8 -16 -4 -19 3 -4 2 -7 -4 -7 -6 0 -22 -12 -36
-26 -20 -20 -25 -32 -21 -54 4 -17 1 -31 -7 -36 -21 -13 -89 -11 -89 2 0 6 -6
16 -13 22 -10 8 -13 5 -12 -15 0 -21 -5 -26 -32 -28 -18 -1 -33 1 -33 6 0 13
-84 11 -97 -2 -13 -13 -33 -4 -33 17 0 15 -35 54 -49 54 -5 0 -11 -6 -14 -14
-6 -15 -65 -28 -82 -18 -5 4 -19 8 -30 9 -10 2 -22 7 -25 11 -3 5 -13 11 -22
15 -19 7 -24 42 -8 52 16 10 0 27 -21 22 -10 -3 -21 -1 -24 3 -11 18 -97 70
-116 70 -11 0 -22 -7 -25 -15 -4 -8 -17 -15 -29 -15 -13 0 -27 -4 -30 -10 -3
-5 -18 -10 -33 -10 -15 0 -35 -7 -46 -15 -16 -12 -22 -11 -50 8 -17 12 -41 30
-53 41 -22 18 -24 18 -42 2 -13 -12 -27 -15 -45 -10 -20 5 -33 1 -51 -16 -20
-19 -32 -22 -75 -18 -36 4 -48 2 -41 -5 6 -6 11 -23 11 -37 0 -14 5 -31 11
-37 8 -8 5 -15 -9 -24 -10 -8 -34 -38 -51 -66 -33 -54 -35 -86 -6 -97 19 -7
19 -32 0 -40 -22 -8 -18 -21 8 -33 15 -7 29 -6 46 3 34 17 44 8 36 -32 -3 -19
-1 -43 5 -54 9 -16 8 -20 -5 -20 -8 0 -15 9 -15 20 0 13 -7 20 -18 20 -10 0
-22 4 -28 10 -6 6 -9 0 -9 -14 0 -24 9 -27 33 -13 6 5 12 4 12 -2 0 -6 -11
-13 -25 -17 -21 -5 -23 -8 -10 -21 8 -8 15 -17 16 -21 0 -4 2 -20 5 -37 2 -16
-1 -40 -8 -52 -8 -17 -8 -29 0 -47 9 -21 16 -24 44 -20 21 4 40 0 53 -10 20
-16 20 -16 -2 -22 -26 -7 -38 -70 -24 -135 0 -4 11 -9 24 -13 12 -3 18 -9 12
-13 -5 -5 -12 -24 -13 -43 -2 -19 -8 -38 -13 -41 -5 -3 -7 -13 -3 -22 5 -13 0
-17 -19 -17 -31 0 -57 -51 -38 -74 8 -9 8 -16 2 -20 -5 -4 -10 -14 -10 -24 -3
-63 -14 -102 -30 -102 -25 0 -62 -45 -48 -59 7 -7 6 -15 -3 -26 -9 -11 -10
-19 -3 -23 6 -4 14 -23 18 -42 4 -19 11 -40 16 -46 6 -7 4 -16 -5 -23 -9 -7
-13 -25 -11 -49 2 -20 -1 -39 -7 -43 -5 -4 -7 -16 -3 -28 3 -12 10 -19 15 -16
14 8 19 -36 15 -132 -3 -99 -8 -113 -32 -113 -11 0 -13 -3 -5 -12 11 -14 5
-65 -9 -74 -5 -3 -9 -16 -9 -30 0 -18 -5 -24 -22 -24 -19 0 -20 -2 -8 -10 8
-5 15 -22 16 -37 2 -88 3 -91 38 -113 42 -25 54 -55 32 -79 -21 -23 -50 -20
-79 7 -27 26 -110 33 -101 9 3 -8 -2 -19 -10 -26 -11 -9 -12 -20 -6 -43 7 -22
5 -34 -5 -45 -17 -16 -15 -44 5 -68 12 -14 11 -17 -8 -22 -17 -4 -20 -11 -16
-28 8 -31 -11 -63 -38 -67 -26 -4 -33 -36 -12 -60 21 -22 14 -51 -14 -63 -27
-12 -28 -21 -2 -35 15 -8 20 -8 21 2 0 7 6 1 13 -15 7 -15 40 -54 74 -86 34
-32 62 -65 62 -74 0 -8 7 -17 15 -21 8 -3 15 -12 15 -20 0 -10 -6 -13 -15 -10
-45 18 18 -68 87 -118 29 -21 38 -35 38 -57 0 -27 19 -53 36 -50 5 1 18 -2 30
-6 19 -6 20 -9 9 -53 -11 -42 -16 -48 -46 -53 -19 -3 -55 -15 -80 -26 -40 -18
-50 -19 -82 -8 -31 11 -37 10 -37 -1 0 -8 -4 -14 -10 -14 -5 0 -10 -9 -10 -20
0 -17 -4 -19 -25 -14 -20 5 -31 0 -51 -21 -22 -23 -29 -26 -48 -17 -19 8 -27
7 -42 -9 -18 -17 -22 -17 -48 -4 -15 8 -40 15 -53 15 -16 0 -23 4 -20 13 3 8
-8 17 -29 24 -28 8 -36 7 -43 -5 -6 -11 -13 -8 -30 17 -20 27 -52 46 -36 21
13 -20 -15 -47 -55 -54 -22 -3 -40 -10 -40 -14 0 -4 -12 -9 -26 -10 -34 -3
-54 -19 -47 -38 6 -17 -1 -18 -28 -4 -13 8 -31 7 -58 -1 -38 -11 -38 -12 -25
-38 13 -24 12 -26 -6 -29 -14 -2 -23 -14 -26 -32 -4 -16 -21 -45 -40 -66 -19
-20 -34 -45 -34 -55 0 -10 -4 -21 -10 -24 -6 -4 -4 -17 6 -36 18 -35 16 -39
-19 -43 -32 -3 -59 -25 -53 -42 3 -7 1 -16 -4 -19 -6 -4 -10 -15 -10 -25 0
-23 -36 -36 -55 -20 -12 10 -15 10 -15 1 0 -15 -21 -36 -37 -37 -7 -1 -20 -2
-29 -2 -24 -3 -11 -25 17 -28 48 -4 104 -17 116 -26 7 -5 22 -8 35 -7 13 2 28
1 33 -3 6 -3 27 -9 48 -13 31 -6 37 -5 37 10 0 15 6 17 40 11 33 -5 40 -3 40
10 0 9 9 27 19 40 15 19 20 21 25 9 11 -30 25 -14 21 26 -3 31 0 42 13 46 9 4
20 11 23 15 12 18 43 -47 40 -84 -2 -33 0 -38 25 -44 20 -5 31 -3 38 8 8 13
13 11 33 -13 14 -16 21 -33 18 -39 -4 -6 -1 -18 6 -27 11 -13 10 -18 -9 -33
-12 -10 -22 -28 -22 -39 0 -12 -4 -21 -9 -21 -5 0 -9 -6 -8 -12 1 -41 -3 -49
-24 -43 -17 6 -20 3 -17 -17 2 -12 9 -24 16 -24 6 -1 16 -2 21 -3 5 0 11 -15
15 -32 3 -17 19 -43 35 -59 15 -16 31 -40 33 -55 6 -29 7 -28 -26 -15 -26 9
-38 -3 -13 -13 6 -3 3 -6 -8 -6 -11 0 -29 6 -39 14 -15 11 -21 12 -30 2 -6 -7
-10 -11 -9 -9 0 2 -19 22 -44 44 -36 34 -41 43 -28 50 11 7 13 14 5 28 -8 15
-6 22 11 34 18 12 20 20 13 43 -7 26 -8 26 -11 6 -3 -16 -14 -24 -38 -29 -30
-5 -33 -9 -25 -24 14 -25 13 -30 -6 -30 -11 0 -15 -6 -11 -20 3 -11 -1 -27 -9
-35 -13 -13 -11 -22 16 -72 27 -53 29 -59 14 -70 -10 -7 -14 -20 -11 -32 4
-18 1 -19 -25 -14 -25 5 -29 3 -26 -13 2 -13 -4 -20 -20 -22 -12 -2 -20 -8
-16 -13 3 -6 24 -7 48 -4 33 5 53 2 84 -14 34 -17 41 -18 46 -6 3 8 12 15 20
15 8 0 26 14 40 32 l25 32 10 -25 c5 -15 18 -29 28 -33 10 -3 33 -17 51 -30
20 -15 40 -22 53 -19 25 7 36 30 20 46 -12 12 -15 56 -3 73 10 16 42 13 42 -3
0 -8 5 -11 10 -8 15 9 12 -7 -8 -40 -18 -28 -18 -30 2 -52 16 -19 21 -20 30
-8 10 14 47 21 71 15 21 -5 56 13 51 26 -7 18 6 18 50 -1 19 -8 32 -10 29 -5
-3 6 1 10 9 10 9 0 16 -8 16 -19 0 -23 24 -33 73 -29 22 1 33 6 30 14 -2 6 12
19 31 28 30 14 36 22 36 49 1 25 8 36 33 52 18 11 33 30 35 41 2 12 21 36 42
53 28 22 40 40 42 63 2 27 8 34 29 36 23 3 26 0 24 -27 -1 -21 4 -32 15 -36
10 -3 20 -18 23 -34 6 -27 108 -141 127 -141 6 0 10 -7 10 -16 0 -12 6 -15 24
-10 15 4 26 1 30 -7 3 -6 3 0 0 16 -4 16 -2 27 5 27 6 0 8 7 5 15 -4 10 0 15
16 15 11 0 19 4 16 9 -3 5 7 14 23 19 24 9 34 6 65 -16 29 -20 36 -31 32 -48
-6 -21 -3 -23 29 -21 20 2 43 11 55 24 l20 22 -24 16 c-33 22 -59 63 -49 78 4
7 6 19 5 28 -2 12 10 20 40 28 65 16 71 23 57 55 -9 20 -15 23 -20 13 -5 -8
-20 -12 -43 -9 -31 4 -36 8 -36 29 0 17 4 23 14 20 13 -5 37 48 40 90 1 10 7
29 15 42 11 20 11 25 0 32 -8 5 -18 9 -24 9 -6 0 -6 3 1 8 14 9 33 121 22 124
-5 2 -6 11 -3 21 4 9 11 14 16 11 5 -3 9 1 9 8 0 15 42 32 104 43 25 4 40 13
43 25 4 13 14 18 34 18 28 -1 39 -13 18 -20 -17 -6 -1 -32 28 -45 32 -16 97
-17 88 -3 -3 6 3 10 14 10 12 0 18 5 15 13 -3 9 8 13 38 14 73 2 108 13 108
35 0 11 5 18 13 15 6 -2 17 3 24 12 10 15 14 14 42 -2 27 -16 31 -16 31 -3 0
9 8 15 18 14 47 -4 59 3 81 49 l23 48 19 -24 c10 -13 19 -29 19 -37 0 -22 93
-19 113 4 16 17 15 21 -19 61 -36 42 -36 42 -30 110 7 65 6 69 -18 85 -14 9
-34 16 -45 16 -11 0 -24 7 -29 16 -7 13 -13 14 -50 1 -38 -13 -43 -13 -52 2
-8 13 -9 11 -10 -11 0 -31 -13 -35 -57 -17 -15 6 -37 15 -48 19 -11 5 -36 11
-55 14 -19 4 -45 16 -58 29 -13 12 -30 22 -37 22 -8 0 -39 18 -70 40 -45 32
-55 44 -50 62 3 12 0 25 -6 28 -5 4 -9 17 -7 29 1 12 -5 34 -15 49 -9 14 -17
30 -17 35 0 16 -74 102 -88 102 -7 0 -17 11 -22 25 -5 14 -16 25 -24 25 -15 0
-26 43 -31 130 -2 31 -8 75 -14 99 -10 45 -6 70 13 83 7 5 5 8 -6 8 -11 0 -15
6 -11 20 4 13 0 20 -10 20 -8 0 -20 7 -27 15 -10 13 -9 15 11 15 13 0 39 -4
57 -9 20 -6 32 -6 32 0 0 18 17 9 28 -16 7 -15 20 -25 32 -25 12 0 18 5 15 10
-10 15 11 12 25 -4 6 -8 10 -25 8 -38 -2 -17 2 -23 17 -23 14 0 23 10 30 32 5
18 17 36 27 39 10 3 16 9 13 14 -3 5 -1 11 4 14 5 3 12 22 16 42 l6 36 22 -20
c27 -25 72 -38 82 -23 3 6 12 8 18 4 7 -4 24 -6 39 -4 23 2 28 -1 28 -19 0
-19 2 -21 16 -9 13 11 13 14 1 20 -22 13 -50 95 -39 116 5 10 7 33 5 51 -5 31
8 44 22 22 4 -6 15 -8 26 -5 10 4 24 3 30 -1 7 -4 27 -8 45 -10 37 -3 46 10
50 66 1 19 7 59 14 88 9 45 9 57 -4 77 -9 13 -25 26 -36 30 -15 5 -20 15 -20
41 0 25 -8 42 -27 61 -25 23 -25 24 -5 14 18 -10 26 -10 38 0 12 10 12 13 -2
24 -11 7 -14 17 -9 25 5 8 -1 19 -16 31 l-24 19 23 6 c22 6 32 49 13 56 -15 5
-16 127 -3 140 7 7 12 20 12 29 0 13 -10 17 -42 17 -63 1 -95 7 -112 21 -13
11 -16 11 -16 -2 0 -19 -20 -33 -29 -21 -3 5 -12 9 -18 10 -7 1 -20 2 -28 3
-8 0 -17 17 -21 38 -5 29 -3 39 11 50 16 11 21 11 34 -1 21 -18 66 -3 57 19
-3 10 1 15 13 15 22 0 34 23 19 38 -15 15 -1 62 19 62 8 0 33 5 54 12 36 10
39 14 39 48 0 20 -7 45 -15 56 -19 26 -19 35 3 27 14 -6 15 -4 5 9 -10 11 -10
23 -3 45 6 17 10 34 9 39 -4 17 23 98 36 109 7 5 15 19 17 30 2 14 12 21 33
23 38 5 63 27 82 74 8 21 23 40 32 43 10 3 23 17 30 31 10 24 16 26 64 22 44
-2 56 1 75 20 12 12 21 26 18 31 -8 13 18 76 47 115 22 28 27 43 22 65 -5 23
-2 29 14 34 19 5 20 8 8 48 -11 37 -17 44 -37 44 -14 0 -25 6 -25 13 0 8 -8
20 -18 27 -18 13 -17 14 3 20 12 4 19 13 17 20 -3 7 -1 32 5 56 6 24 12 55 13
69 1 14 3 28 4 33 0 4 10 7 21 7 11 0 20 5 20 10 0 6 5 10 11 10 14 0 39 26
39 40 0 7 -9 25 -21 41 -17 24 -18 29 -5 29 28 0 17 24 -40 87 -54 61 -55 64
-45 96 12 34 6 67 -10 67 -18 0 -8 17 16 28 31 14 32 35 3 62 -29 26 -38 25
-38 -5z m-1125 -466 c-3 -13 2 -19 16 -19 10 0 19 -5 19 -11 0 -5 -6 -7 -12
-4 -7 4 -6 1 2 -7 9 -7 14 -20 12 -30 -2 -9 2 -19 7 -23 20 -12 11 -22 -13
-18 -14 3 -33 14 -42 24 -9 10 -23 19 -31 19 -7 0 -13 8 -13 17 0 9 -7 24 -15
33 -12 13 -13 23 -6 44 10 26 11 26 45 10 24 -12 33 -22 31 -35z m119 -1125
c9 -3 16 -12 16 -20 0 -20 -13 -17 -28 6 -13 22 -12 23 12 14z m16 -148 c0 -3
-4 -8 -10 -11 -5 -3 -10 -1 -10 4 0 6 5 11 10 11 6 0 10 -2 10 -4z m111 -66
c13 -10 20 -20 14 -20 -5 -1 -18 -3 -27 -5 -10 -2 -18 1 -18 5 0 5 -9 12 -20
15 -11 4 -18 11 -15 16 10 15 41 10 66 -11z m119 -768 c0 -18 -36 2 -51 29
-11 21 -11 21 20 3 17 -10 31 -24 31 -32z m20 -37 c0 -8 -4 -15 -10 -15 -5 0
-10 7 -10 15 0 8 5 15 10 15 6 0 10 -7 10 -15z m8 -137 c-22 -13 -28 -9 -28
19 0 26 0 26 20 8 16 -14 17 -20 8 -27z m-61 -1180 c-3 -8 -6 -5 -6 6 -1 11 2
17 5 13 3 -3 4 -12 1 -19z m-277 -710 c0 -6 -6 -5 -15 2 -8 7 -15 14 -15 16 0
2 7 1 15 -2 8 -4 15 -11 15 -16z m-30 -13 c0 -8 -4 -15 -10 -15 -5 0 -10 7
-10 15 0 8 5 15 10 15 6 0 10 -7 10 -15z m-1090 -49 c0 -10 -7 -12 -22 -8 -21
5 -21 6 -2 13 10 4 20 8 22 8 1 1 2 -5 2 -13z"/>
<path d="M9836 11045 c-3 -8 -1 -15 4 -15 6 0 10 7 10 15 0 8 -2 15 -4 15 -2
0 -6 -7 -10 -15z"/>
<path d="M8710 10505 c-20 -24 -6 -28 15 -5 10 11 13 20 8 20 -6 0 -16 -7 -23
-15z"/>
<path d="M8662 10452 c-17 -5 4 -32 24 -32 8 0 14 -7 14 -15 0 -8 -5 -15 -11
-15 -6 0 -8 -9 -4 -20 6 -19 2 -20 -55 -20 -60 0 -61 0 -48 -22 7 -13 11 -27
10 -31 -1 -5 9 -22 23 -39 29 -34 32 -63 9 -72 -9 -3 -14 -13 -11 -20 9 -23
-16 -66 -34 -61 -19 6 -33 -19 -30 -52 1 -12 -2 -38 -7 -57 -6 -20 -7 -34 -4
-33 4 1 19 -11 35 -26 26 -27 30 -28 89 -21 43 5 68 13 82 28 12 12 35 27 51
35 17 7 37 17 45 21 20 9 72 -33 65 -52 -3 -8 7 -28 22 -45 25 -28 43 -33 84
-24 3 0 6 14 5 30 -1 16 -6 27 -12 24 -13 -5 -44 23 -44 39 0 7 -5 7 -14 -1
-10 -8 -16 -8 -25 2 -6 8 -8 16 -5 19 7 8 -45 48 -62 48 -8 0 -14 9 -14 21 0
26 -18 61 -41 77 -28 20 -14 89 29 143 7 9 17 30 22 48 7 26 5 33 -11 41 -10
6 -19 7 -19 2 0 -21 -57 2 -79 32 -27 35 -60 55 -79 48z"/>
<path d="M9340 10418 c0 -9 -10 -24 -22 -32 -18 -13 -19 -18 -8 -31 17 -21 27
-19 46 10 14 22 14 26 0 47 -13 18 -16 19 -16 6z"/>
<path d="M11780 10025 c0 -15 -4 -24 -10 -20 -5 3 -10 4 -10 1 0 -3 10 -10 21
-17 15 -8 19 -8 15 0 -4 6 -4 11 -1 11 12 0 35 -28 35 -42 0 -8 6 -22 13 -32
13 -17 14 -18 20 -2 10 26 -17 80 -52 105 l-31 22 0 -26z"/>
<path d="M8880 9874 c1 -22 46 -59 55 -44 3 5 1 18 -4 27 -6 10 -11 14 -11 9
0 -5 -9 -1 -20 9 -19 17 -20 17 -20 -1z"/>
<path d="M11885 9869 c-4 -6 -5 -13 -2 -16 7 -7 27 6 27 18 0 12 -17 12 -25
-2z"/>
<path d="M11901 9841 c-10 -6 -10 -10 -1 -16 13 -8 24 -1 19 14 -3 6 -10 7
-18 2z"/>
<path d="M9412 9768 c-19 -19 -14 -38 9 -38 25 0 47 20 41 38 -5 15 -34 16
-50 0z"/>
<path d="M9096 9761 c-4 -7 -5 -15 -2 -18 9 -9 19 4 14 18 -4 11 -6 11 -12 0z"/>
<path d="M9242 9721 c-11 -7 -11 -15 2 -45 8 -20 21 -36 28 -36 10 0 11 2 0 8
-7 5 -13 25 -14 45 -1 20 -2 37 -2 37 -1 0 -7 -4 -14 -9z"/>
<path d="M9110 9711 c0 -11 29 -35 35 -29 10 9 -7 38 -21 38 -8 0 -14 -4 -14
-9z"/>
<path d="M9584 9144 c-7 -3 -10 -14 -7 -24 3 -11 1 -20 -5 -20 -6 0 -10 -12
-10 -27 1 -52 0 -55 -23 -43 -18 10 -26 6 -58 -29 -21 -23 -45 -41 -54 -41
-10 0 -17 -2 -17 -4 0 -15 34 -80 50 -96 20 -20 20 -20 -2 -50 -12 -17 -29
-30 -38 -30 -15 0 -60 -42 -60 -57 0 -3 -7 -14 -16 -24 -13 -14 -13 -20 -2
-38 11 -18 11 -23 -1 -30 -17 -11 -7 -27 28 -49 14 -9 26 -26 26 -37 0 -15 8
-21 33 -23 27 -3 35 2 50 27 9 17 20 31 23 31 3 0 13 -18 22 -40 8 -22 22 -40
30 -40 10 0 13 -7 10 -20 -8 -32 25 -62 59 -54 17 3 35 1 44 -7 13 -10 17 -10
24 1 6 10 13 3 25 -26 9 -21 16 -48 16 -59 -3 -66 -8 -87 -20 -95 -12 -7 -13
-11 -1 -25 15 -18 21 -75 8 -75 -4 0 -8 -8 -8 -17 -1 -10 -7 -29 -14 -43 -12
-21 -12 -27 5 -49 11 -14 17 -32 13 -43 -3 -12 5 -28 25 -49 17 -17 31 -26 31
-20 0 7 11 16 25 21 21 8 25 16 25 50 0 29 5 43 20 52 23 14 27 60 10 118 -5
19 -6 38 -1 43 14 14 0 55 -21 61 -15 3 -19 11 -15 25 3 14 -1 22 -15 27 -17
5 -19 11 -12 38 7 27 8 52 5 124 -3 79 -2 85 16 78 17 -6 17 -5 1 7 -23 18
-13 57 16 57 41 0 54 23 33 57 -5 7 1 21 12 32 19 19 19 22 4 53 -9 18 -23 39
-30 46 -7 7 -14 19 -14 25 -4 40 -18 67 -35 67 -20 0 -54 41 -54 65 0 12 -9
30 -21 41 -12 10 -30 32 -42 48 l-21 29 27 -7 c24 -6 27 -4 27 19 0 18 -5 25
-19 25 -11 0 -23 5 -27 11 -5 8 -9 7 -14 -1 -4 -7 -15 -10 -25 -7 -9 4 -13 11
-10 17 6 10 -11 12 -31 4z"/>
<path d="M9417 8839 c4 -13 8 -18 11 -10 2 7 -1 18 -6 23 -8 8 -9 4 -5 -13z"/>
<path d="M9440 8846 c0 -9 5 -16 10 -16 6 0 10 4 10 9 0 6 -4 13 -10 16 -5 3
-10 -1 -10 -9z"/>
<path d="M10070 8051 c-14 -27 -13 -31 10 -31 15 0 20 7 20 25 0 30 -15 33
-30 6z"/>
<path d="M9990 7995 c0 -8 -8 -15 -19 -15 -30 0 -76 -24 -76 -39 0 -8 -15 -21
-32 -30 -38 -19 -43 -47 -10 -57 36 -11 58 -36 56 -64 -1 -14 3 -38 10 -55 6
-16 16 -42 22 -57 12 -31 33 -42 72 -39 22 2 27 -2 27 -19 0 -19 -2 -20 -15
-10 -13 10 -19 9 -35 -5 -11 -10 -19 -23 -17 -29 2 -6 -3 -16 -12 -23 -15 -11
-14 -15 1 -42 10 -18 13 -33 7 -36 -16 -10 -10 -35 9 -35 13 0 14 -2 3 -9 -9
-6 -10 -11 -2 -15 6 -4 9 -12 6 -17 -4 -5 0 -9 8 -9 14 0 32 -42 29 -65 -3
-15 41 -40 46 -27 2 8 11 8 28 1 14 -5 37 -9 50 -9 19 0 24 4 20 18 -16 55
-18 75 -7 68 6 -4 11 0 11 10 0 11 6 15 20 11 14 -3 20 0 20 10 0 10 6 14 18
11 22 -6 46 41 40 77 -5 26 20 45 33 24 4 -6 12 -8 18 -5 6 4 11 1 11 -7 0 -8
8 -17 18 -21 9 -3 23 -9 30 -12 7 -3 12 1 12 10 0 20 20 32 29 17 6 -8 15 -9
34 -2 37 14 34 32 -3 24 -29 -5 -30 -5 -21 20 7 17 7 28 1 32 -18 11 -10 27 9
22 14 -3 18 -1 14 9 -3 8 1 14 10 14 32 0 -3 58 -44 72 -11 4 -15 0 -15 -16 1
-16 -4 -20 -23 -18 -14 1 -31 8 -39 14 -12 10 -11 13 4 18 17 6 16 9 -7 31
-15 13 -30 34 -34 47 -5 17 -11 21 -23 16 -28 -12 -92 -13 -99 0 -4 6 -7 19
-8 30 0 10 -13 26 -30 35 -16 9 -42 25 -57 35 -15 10 -32 15 -38 11 -5 -3 -10
1 -10 9 0 9 6 16 13 16 7 1 5 6 -5 14 -11 8 -18 26 -18 45 0 24 -4 31 -20 31
-11 0 -20 -7 -20 -15z m272 -420 c0 -5 -5 -11 -11 -13 -6 -2 -11 4 -11 13 0 9
5 15 11 13 6 -2 11 -8 11 -13z m-12 -35 c0 -5 -2 -10 -4 -10 -3 0 -8 5 -11 10
-3 6 -1 10 4 10 6 0 11 -4 11 -10z"/>
<path d="M9757 7894 c-23 -12 -26 -18 -16 -30 17 -21 26 -17 43 16 16 34 13
36 -27 14z"/>
<path d="M9294 7873 c3 -16 8 -38 12 -50 4 -14 -1 -28 -14 -41 -19 -19 -19
-20 0 -51 19 -29 19 -33 4 -56 -9 -13 -16 -38 -16 -55 0 -26 -3 -30 -19 -25
-11 3 -22 1 -26 -5 -15 -24 -55 -30 -87 -14 -28 15 -32 15 -40 0 -5 -9 -20
-16 -33 -16 -30 0 -85 31 -85 48 0 9 -11 12 -32 9 -25 -2 -34 -9 -36 -25 -4
-24 -14 -27 -41 -12 -15 8 -17 6 -13 -15 4 -22 1 -25 -23 -25 l-26 0 21 -30
c12 -16 24 -42 26 -57 3 -15 11 -34 17 -42 9 -11 9 -15 0 -18 -9 -3 -5 -18 12
-51 29 -55 33 -92 8 -92 -15 0 -15 -1 2 -14 12 -9 16 -20 12 -36 -3 -13 1 -36
8 -51 8 -15 12 -34 9 -42 -3 -9 7 -20 30 -31 19 -9 50 -34 69 -56 19 -22 39
-40 45 -40 6 0 14 -15 17 -34 7 -35 27 -62 65 -89 18 -12 20 -19 11 -35 -8
-16 -5 -24 17 -44 15 -14 45 -30 67 -35 22 -6 47 -13 55 -17 24 -9 43 9 44 43
0 17 3 31 6 31 6 -1 81 -97 96 -124 7 -11 10 -25 7 -32 -7 -19 14 -26 39 -13
18 10 24 8 40 -11 10 -13 21 -20 25 -16 3 3 3 6 -2 6 -4 0 0 9 10 20 13 14 15
23 7 32 -14 17 19 58 47 58 14 0 21 6 21 19 0 10 6 21 14 24 9 4 12 14 9 25
-3 12 3 29 14 41 71 79 76 82 107 81 78 -5 96 -1 96 20 0 17 3 18 19 9 15 -10
24 -8 52 13 34 26 77 32 92 13 5 -6 6 1 3 15 -3 14 -6 38 -6 54 0 20 -4 27
-14 23 -9 -4 -16 3 -20 16 -9 34 -7 38 12 28 26 -14 44 2 48 42 5 43 -15 67
-56 67 -32 0 -49 17 -26 26 24 9 7 32 -41 56 -35 18 -46 20 -52 9 -11 -18 -51
21 -51 49 0 11 -12 26 -29 34 -40 21 -54 65 -31 94 15 18 16 27 7 52 -8 21
-16 29 -26 25 -9 -3 -12 -3 -8 1 4 4 0 18 -9 32 -11 17 -19 63 -24 150 -7 103
-12 129 -26 139 -20 15 -48 18 -40 4 10 -16 -22 -32 -66 -33 -25 0 -54 -8 -70
-19 -24 -18 -28 -18 -42 -3 -9 8 -16 21 -16 28 0 8 -15 21 -32 29 -29 14 -33
14 -36 2 -4 -19 -9 -19 -62 0 -55 19 -54 20 -46 -12z"/>
<path d="M8700 7798 c0 -10 -4 -18 -10 -18 -5 0 -10 -8 -10 -17 0 -9 -8 -25
-17 -35 -15 -17 -15 -19 2 -32 10 -7 15 -17 12 -22 -3 -6 -2 -16 3 -24 7 -12
11 -10 18 9 6 18 10 20 19 9 7 -8 7 -21 2 -36 l-9 -24 -26 21 c-25 20 -28 20
-39 4 -10 -13 -16 -15 -27 -6 -11 10 -13 4 -11 -35 2 -26 3 -65 3 -87 0 -33 2
-37 11 -22 7 12 15 15 26 8 25 -14 34 -98 13 -111 -7 -5 -10 -15 -7 -25 5 -11
3 -14 -5 -9 -8 5 -9 2 -5 -10 4 -10 7 -22 7 -27 0 -17 29 -9 35 10 6 20 32 19
46 -1 8 -13 60 2 58 16 -5 30 14 85 32 89 11 3 19 14 19 26 0 17 -8 22 -40 27
-22 4 -40 11 -40 16 0 5 -3 7 -8 5 -4 -3 -20 5 -36 18 -27 22 -29 26 -18 50 7
14 16 24 20 21 5 -3 25 -1 45 5 38 10 44 26 38 97 -1 15 2 21 8 17 6 -3 11 -1
11 5 0 7 8 9 20 5 15 -5 19 -3 14 10 -4 9 -13 14 -21 11 -17 -7 -56 12 -49 23
10 15 -24 49 -54 53 -24 4 -30 1 -30 -14z"/>
<path d="M8578 7512 c-22 -4 -24 -32 -3 -32 9 0 18 7 22 15 7 19 3 22 -19 17z"/>
<path d="M10313 7465 c0 -8 4 -15 9 -15 4 0 8 7 8 15 0 8 -4 15 -8 15 -5 0 -9
-7 -9 -15z"/>
<path d="M8651 7280 c-8 -4 -11 -15 -7 -25 10 -26 -3 -65 -20 -58 -10 4 -12 0
-8 -11 5 -12 2 -15 -10 -10 -9 3 -16 1 -16 -5 0 -6 -11 -16 -26 -21 -14 -6
-29 -23 -35 -38 -8 -23 -16 -29 -39 -29 -34 0 -97 -45 -110 -79 -5 -13 -16
-24 -23 -24 -8 0 -22 -9 -32 -20 -10 -11 -28 -20 -41 -20 -12 0 -25 -6 -28
-12 -5 -10 -7 -10 -12 0 -3 6 -19 12 -35 12 -22 0 -32 -7 -41 -25 -8 -18 -17
-24 -29 -20 -14 5 -18 -1 -21 -27 -3 -28 -7 -33 -29 -31 -17 1 -28 -6 -35 -20
-5 -13 -20 -23 -36 -25 -19 -2 -28 -9 -28 -22 0 -11 -10 -20 -25 -24 -14 -4
-30 -17 -34 -29 -5 -12 -23 -38 -40 -56 -33 -35 -33 -51 0 -51 11 0 22 -6 25
-14 6 -16 74 -4 107 19 18 12 22 12 31 0 15 -20 81 -9 92 16 8 17 13 16 63
-16 51 -32 56 -34 72 -19 12 10 29 15 49 12 19 -3 30 0 30 8 0 7 10 31 22 53
15 28 24 37 30 29 7 -12 12 -4 9 15 -1 5 7 6 18 2 11 -3 22 -1 26 5 8 13 62
13 70 0 3 -6 25 -10 48 -10 23 0 53 -1 67 -2 18 -2 24 1 22 13 -3 18 41 35 46
19 2 -5 11 -19 21 -31 l18 -22 21 23 c15 17 29 21 51 18 21 -3 31 0 31 9 0 7
9 22 21 34 18 18 19 23 6 37 -23 26 -30 61 -17 77 9 11 10 18 1 29 -9 11 -7
15 9 19 12 3 20 1 19 -6 -4 -32 1 -40 16 -27 9 7 13 21 10 31 -6 19 5 26 18
12 4 -3 20 -7 36 -7 25 -1 28 2 26 29 -1 17 -8 31 -14 31 -6 1 -15 2 -20 3
-22 3 -81 76 -75 94 3 10 -1 19 -11 23 -9 4 -13 13 -10 24 3 10 -2 26 -12 36
-13 12 -14 19 -5 22 22 7 13 51 -14 69 -22 14 -31 15 -57 5 -26 -10 -34 -9
-49 5 -14 13 -20 13 -33 3 -11 -9 -19 -9 -28 -2 -7 6 -18 7 -26 2z"/>
<path d="M10089 7153 c-13 -16 -12 -17 4 -4 9 7 17 15 17 17 0 8 -8 3 -21 -13z"/>
<path d="M6980 6930 c-8 -6 -10 -10 -4 -10 12 0 41 -59 36 -74 -2 -5 3 -4 11
2 10 8 23 8 50 0 41 -13 51 -9 41 16 -4 10 -13 14 -23 11 -16 -5 -77 32 -91
54 -3 6 -11 6 -20 1z"/>
<path d="M9021 6914 c0 -11 3 -14 6 -6 3 7 2 16 -1 19 -3 4 -6 -2 -5 -13z"/>
<path d="M7020 6812 c6 -13 14 -21 18 -18 3 4 -2 14 -12 24 -18 16 -18 16 -6
-6z"/>
<path d="M7070 6772 c0 -6 11 -31 26 -54 14 -24 30 -55 37 -70 8 -21 18 -28
38 -28 15 0 31 6 37 13 18 22 23 71 10 90 -11 15 -18 16 -46 6 -27 -9 -35 -9
-45 3 -24 28 -57 51 -57 40z"/>
<path d="M7216 6618 c10 -16 14 -109 4 -103 -4 3 -11 -2 -14 -11 -4 -11 -13
-14 -30 -10 -18 4 -28 0 -40 -19 -9 -14 -23 -25 -31 -25 -22 0 -18 -21 5 -27
12 -3 20 -14 20 -25 0 -11 14 -33 32 -49 18 -17 32 -41 33 -57 1 -15 14 -45
29 -66 25 -37 35 -86 18 -86 -5 0 -8 -16 -7 -36 0 -23 -4 -38 -13 -42 -9 -3
-12 -14 -8 -34 5 -24 2 -30 -18 -38 -13 -5 -27 -14 -31 -19 -3 -6 -15 -11 -25
-11 -12 0 -21 -10 -25 -30 -4 -16 -11 -32 -16 -35 -5 -4 -9 -18 -9 -32 0 -19
-4 -24 -16 -19 -10 4 -18 -3 -25 -24 -6 -16 -19 -32 -28 -35 -10 -3 -23 -17
-29 -30 -6 -14 -18 -25 -27 -25 -11 0 -15 -11 -15 -38 0 -46 -6 -55 -31 -41
-14 7 -26 5 -44 -7 -32 -21 -23 -30 34 -37 37 -5 47 -2 68 19 20 20 28 23 39
13 11 -9 18 -9 26 -1 9 9 16 8 29 -4 25 -23 62 -14 69 16 4 17 8 21 14 12 9
-16 36 2 36 24 0 8 6 14 14 14 8 0 17 9 21 19 3 10 15 21 26 24 16 4 20 13 18
34 -1 15 5 46 15 67 15 37 15 41 0 49 -14 8 -11 14 18 41 19 18 32 38 30 44
-3 10 2 10 22 0 20 -9 29 -9 38 0 7 7 20 12 30 12 10 0 18 7 18 14 0 12 6 13
31 4 20 -7 33 -7 38 -1 3 6 24 13 46 17 43 8 54 19 55 51 1 11 15 29 33 40 40
25 103 133 112 191 3 24 11 44 16 44 6 0 7 5 4 10 -10 16 5 50 21 50 17 0 19
42 3 72 -10 18 -8 24 10 38 12 9 26 32 30 52 8 35 7 37 -21 43 -17 4 -35 2
-41 -4 -6 -6 -19 -11 -29 -11 -10 0 -18 -4 -18 -10 0 -5 -7 -10 -15 -10 -9 0
-26 -7 -39 -15 -14 -9 -38 -13 -64 -11 -33 3 -40 1 -35 -11 5 -13 3 -13 -16
-3 -20 10 -26 9 -45 -9 -24 -23 -46 -21 -78 7 -10 8 -32 15 -50 14 -32 -1 -84
25 -122 60 -22 20 -62 25 -50 6z"/>
<path d="M9561 6579 c-1 -9 7 -23 17 -30 15 -12 16 -12 6 1 -6 8 -14 22 -17
30 -5 13 -6 12 -6 -1z"/>
<path d="M9613 6508 c17 -27 17 -28 -2 -28 -11 0 -23 -5 -27 -11 -3 -6 -15 -8
-27 -5 -18 4 -19 4 -5 -11 13 -13 22 -13 52 -3 42 14 47 37 14 66 l-22 19 17
-27z"/>
<path d="M9661 6487 c-9 -12 -8 -16 3 -20 19 -7 27 4 17 21 -6 10 -10 10 -20
-1z"/>
<path d="M9700 6455 c0 -11 23 -50 34 -57 20 -14 24 -8 17 25 -5 23 -13 33
-29 35 -12 2 -22 1 -22 -3z"/>
</g>
</svg>
