<?xml version="1.0" standalone="no"?>
<!DOCTYPE svg PUBLIC "-//W3C//DTD SVG 20010904//EN"
 "http://www.w3.org/TR/2001/REC-SVG-20010904/DTD/svg10.dtd">
<svg version="1.0" xmlns="http://www.w3.org/2000/svg"
 width="353.556691pt" height="726.505772pt" viewBox="0 0 353.556691 726.505772"
 preserveAspectRatio="xMidYMid meet">
<metadata>
Created by potrace 1.15, written by Peter Selinger 2001-2017
</metadata>
<g transform="translate(-812.109023,1416.851458) scale(0.100000,-0.100000)"
fill="#222222" stroke="none">
<path d="M9455 14160 c-16 -5 -48 -13 -69 -19 -22 -5 -44 -17 -48 -26 -6 -10
-17 -14 -28 -10 -13 4 -24 -2 -36 -21 -17 -24 -19 -25 -31 -8 -11 15 -16 16
-37 5 -17 -10 -29 -10 -44 -2 -31 16 -47 14 -79 -13 -20 -17 -36 -23 -56 -19
-15 3 -24 9 -21 14 3 5 -6 9 -20 9 -16 0 -26 -6 -26 -15 0 -21 -55 -19 -78 3
-30 29 -48 25 -58 -10 -8 -26 -16 -34 -37 -36 -26 -3 -27 -6 -21 -37 5 -31 3
-36 -21 -47 -28 -12 -28 -15 -9 -91 5 -22 4 -26 -10 -21 -12 4 -16 0 -16 -15
0 -14 -6 -21 -20 -21 -37 0 -100 -25 -100 -39 0 -10 -3 -11 -13 -2 -8 6 -38
12 -67 13 -57 3 -60 1 -102 -80 -9 -18 -17 -22 -35 -17 -13 3 -23 2 -22 -2 5
-32 -56 -83 -99 -83 -7 0 -12 -9 -12 -20 0 -11 4 -20 9 -20 5 0 7 -9 4 -20 -4
-16 -9 -18 -24 -9 -15 7 -19 6 -19 -6 0 -8 6 -15 14 -15 37 0 24 -57 -18 -79
-20 -11 -24 -19 -20 -38 4 -15 2 -23 -6 -23 -9 0 -11 -10 -6 -30 3 -17 1 -30
-4 -30 -6 0 -10 -6 -10 -14 0 -7 -10 -17 -22 -20 -21 -6 -22 -7 -5 -17 13 -8
22 -7 32 1 12 10 16 9 20 -2 7 -17 37 -20 47 -4 4 6 0 18 -8 27 -14 16 -13 18
6 24 12 4 28 1 37 -7 13 -11 17 -11 21 0 7 23 74 -90 69 -117 -3 -17 3 -31 20
-47 14 -13 22 -27 19 -32 -3 -6 3 -12 14 -15 14 -4 20 -14 20 -34 0 -33 16
-53 42 -53 11 0 18 -7 18 -19 0 -12 9 -21 25 -25 14 -4 25 -13 25 -21 0 -22
14 -25 44 -9 41 21 56 18 56 -12 0 -14 -4 -23 -10 -19 -21 13 -8 -13 20 -40
18 -18 30 -39 30 -55 0 -31 56 -90 85 -90 10 0 38 -10 63 -21 32 -16 46 -19
55 -10 6 6 19 11 30 11 10 0 15 5 12 10 -9 14 1 12 36 -6 17 -8 38 -14 47 -13
29 4 54 -12 42 -26 -8 -9 -6 -14 5 -18 20 -8 29 30 16 65 -7 18 -6 29 2 37 8
8 6 15 -10 26 -12 8 -23 25 -25 38 -2 16 -10 22 -31 22 -38 1 -65 29 -47 49 7
9 19 16 26 16 12 0 11 5 -2 25 -22 33 -13 41 25 22 30 -15 30 -15 42 20 10 32
12 33 29 18 13 -12 23 -14 36 -7 23 13 52 4 59 -19 5 -14 14 -18 30 -16 33 4
40 14 25 32 -10 12 -9 16 5 21 9 4 21 18 26 31 6 16 15 23 28 21 20 -3 71 37
71 57 0 21 25 65 38 65 6 0 12 5 12 11 0 5 5 7 10 4 11 -7 40 18 40 34 0 6 8
11 18 11 11 0 23 13 30 34 7 19 22 38 32 41 11 4 20 15 20 26 0 24 21 24 50 1
22 -18 20 -52 -4 -52 -11 0 -14 -14 -17 -62 0 -10 -6 -15 -15 -11 -8 3 -14 2
-14 -1 0 -12 49 -85 63 -93 30 -18 45 -57 38 -98 -7 -39 0 -66 34 -135 15 -31
9 -50 -16 -50 -12 0 -19 -7 -19 -18 0 -26 -29 -50 -64 -54 -23 -2 -32 -10 -38
-33 -8 -27 0 -82 18 -129 4 -11 1 -16 -10 -16 -8 0 -18 -11 -22 -25 -3 -14
-10 -25 -15 -25 -17 0 -31 -40 -19 -55 15 -18 -5 -57 -28 -53 -10 2 -21 -7
-27 -19 -5 -13 -13 -23 -17 -23 -3 0 -25 -17 -49 -38 -34 -31 -39 -40 -26 -45
11 -4 17 -1 17 7 0 9 10 12 30 10 20 -2 33 2 42 15 14 20 65 25 86 8 7 -5 10
-18 7 -28 -4 -11 -2 -19 3 -19 14 0 20 -43 11 -68 -5 -12 -16 -22 -24 -22 -23
0 -9 -17 29 -35 33 -16 34 -16 67 17 26 26 32 40 30 66 -2 27 1 32 18 32 12 0
21 6 21 15 0 9 12 18 30 22 17 3 30 11 30 18 0 7 15 12 37 13 21 1 41 8 45 17
5 8 15 15 22 15 9 0 12 9 8 26 -3 19 -1 25 7 20 6 -4 11 -2 11 3 0 6 7 11 15
11 8 0 15 7 15 15 0 7 8 19 18 24 9 6 13 11 8 11 -6 0 -2 6 7 13 21 16 50 127
51 198 l1 56 48 -5 c38 -4 47 -2 47 12 0 8 11 18 25 22 14 3 25 10 25 15 0 6
17 26 37 47 35 35 60 42 88 23 9 -6 19 -6 49 -2 5 0 2 9 -5 18 -12 15 -12 16
5 10 12 -5 22 -3 27 5 6 10 12 8 23 -7 15 -19 15 -18 10 15 -3 19 -8 41 -10
49 -4 11 0 11 14 -2 24 -22 31 -21 53 5 26 29 25 71 -2 83 -12 6 -28 25 -35
43 -13 31 -12 34 5 39 14 4 21 17 26 54 6 46 5 52 -26 86 -18 22 -27 39 -20
41 6 2 11 17 11 33 0 17 4 28 9 24 18 -11 23 16 6 35 -11 12 -13 20 -5 25 5 3
8 11 5 16 -11 16 38 10 58 -8 18 -17 20 -16 48 17 15 19 29 43 29 52 0 9 6 19
13 21 8 3 2 14 -18 30 -28 23 -28 25 -9 31 19 6 21 13 18 83 -3 84 -15 104
-57 96 -12 -2 -31 3 -42 11 -19 15 -19 15 5 9 24 -6 24 -5 9 13 -9 10 -24 37
-33 59 -34 79 -54 110 -71 107 -9 -2 -23 2 -31 9 -7 6 -25 9 -39 7 -17 -4 -25
-1 -25 8 0 8 -3 14 -7 14 -5 0 -23 14 -42 31 -22 21 -30 34 -22 38 8 5 4 15
-12 33 -13 14 -27 33 -30 42 -4 9 -13 13 -22 10 -8 -4 -22 -1 -30 6 -9 8 -15
8 -15 2 0 -6 -21 0 -47 13 -46 22 -49 22 -68 5 -11 -10 -30 -21 -42 -25 -24
-7 -93 13 -105 30 -5 7 -14 6 -26 -1 -14 -9 -24 -9 -43 2 -32 18 -49 17 -49
-1 0 -19 -50 -21 -68 -3 -10 10 -17 10 -31 1 -20 -13 -85 -1 -96 17 -7 11 -18
11 -60 0z"/>
<path d="M8125 13310 c-3 -5 -1 -10 4 -10 6 0 11 5 11 10 0 6 -2 10 -4 10 -3
0 -8 -4 -11 -10z"/>
<path d="M10390 12822 c0 -6 -3 -17 -6 -26 -4 -12 0 -16 16 -16 16 0 21 5 18
22 -3 21 -28 39 -28 20z"/>
<path d="M9635 12080 c-4 -6 -10 -8 -15 -5 -4 3 -6 -4 -3 -15 7 -26 -13 -26
-29 -1 -9 15 -15 17 -25 9 -9 -7 -13 -7 -13 0 0 20 -91 -19 -102 -44 -6 -13
-19 -24 -30 -24 -10 0 -18 -7 -18 -15 0 -13 -4 -14 -20 -5 -16 8 -24 6 -42
-12 -14 -14 -19 -16 -15 -5 4 11 2 14 -9 10 -7 -3 -14 -1 -14 5 0 5 -14 12
-31 16 l-30 6 25 25 c30 29 35 47 8 22 -22 -20 -45 -21 -72 -5 -16 11 -22 9
-34 -7 -11 -15 -11 -22 -3 -28 17 -11 -38 -57 -68 -57 -34 0 -39 -16 -17 -48
30 -43 56 -122 44 -134 -7 -7 -5 -18 4 -36 9 -18 10 -31 3 -44 -8 -14 -5 -25
10 -45 12 -14 21 -32 21 -39 0 -8 6 -23 13 -34 10 -17 9 -22 -2 -29 -11 -7
-11 -10 0 -17 30 -19 57 -109 36 -117 -7 -3 -5 -6 5 -6 26 -1 43 -39 28 -65
-8 -16 -8 -30 -1 -49 12 -32 -3 -74 -28 -79 -9 -2 -16 -13 -16 -28 0 -17 -5
-24 -15 -23 -10 2 -15 -6 -15 -25 -1 -15 2 -29 5 -32 14 -14 30 -52 24 -61 -3
-6 -20 -9 -38 -8 -59 4 -86 -1 -86 -15 0 -8 -5 -16 -12 -18 -15 -5 -17 -56 -1
-62 7 -3 15 -1 18 3 3 5 14 7 25 4 15 -4 20 0 20 16 0 29 43 55 79 48 17 -4
31 -2 33 4 3 8 16 8 45 0 37 -10 43 -16 49 -46 3 -20 4 -45 1 -56 -6 -23 42
-72 94 -97 15 -8 30 -23 33 -35 4 -17 8 -19 17 -10 9 9 9 16 -1 28 -17 21 -11
24 28 13 28 -8 32 -13 32 -43 0 -55 38 -80 116 -73 36 3 39 5 39 33 0 17 4 36
8 42 9 14 -4 43 -28 63 -8 7 -35 13 -60 14 -25 1 -49 7 -54 12 -16 18 -32 79
-21 82 5 2 7 14 4 27 -4 18 1 30 20 48 35 32 34 97 -1 97 -8 0 -12 -4 -8 -9 3
-5 0 -13 -6 -16 -5 -4 -8 -13 -5 -20 5 -15 -20 -28 -36 -19 -5 3 -7 12 -4 19
2 7 -4 15 -15 18 -14 4 -19 14 -19 39 0 19 5 39 10 44 7 7 8 19 1 37 -8 21 -7
25 4 20 8 -3 15 -11 15 -18 0 -7 7 -15 15 -19 8 -3 15 -1 15 4 0 6 6 10 13 10
22 0 51 44 51 77 0 23 5 35 19 39 10 3 23 17 29 30 9 19 16 22 36 17 14 -3 23
-2 19 3 -3 5 6 14 19 21 14 6 26 7 30 2 3 -5 1 -9 -4 -9 -4 0 -5 -24 -2 -52 9
-64 5 -77 -26 -89 -13 -4 -24 -15 -24 -24 0 -11 -6 -14 -25 -9 -21 5 -25 3
-25 -14 0 -11 -2 -26 -5 -34 -3 -8 10 -20 35 -32 22 -11 40 -25 40 -33 0 -8 6
-26 14 -42 11 -20 12 -38 6 -66 -10 -43 3 -77 42 -110 19 -16 40 -20 114 -21
51 -1 101 -7 113 -13 17 -10 21 -9 21 3 0 8 -5 18 -10 21 -6 4 -8 10 -5 15 3
4 -2 13 -10 20 -16 14 -21 70 -6 70 17 0 -9 58 -28 63 -10 2 -22 22 -29 45
-11 37 -10 46 8 84 11 23 20 59 20 79 0 21 5 41 10 44 7 4 8 11 2 18 -6 7 -10
31 -10 54 -1 24 -8 53 -16 65 -20 28 -20 38 0 38 11 0 14 5 9 18 -4 9 -8 23
-9 31 -2 8 -9 17 -17 20 -24 10 -69 54 -69 67 0 8 -10 19 -22 25 -30 16 -38
28 -38 62 0 28 -39 99 -62 114 -8 4 -18 27 -24 50 -10 38 -9 43 7 48 30 10 48
99 27 139 -24 45 -86 73 -103 46z m-55 -60 c0 -11 -4 -20 -9 -20 -7 0 -8 17
-2 38 4 10 11 -2 11 -18z"/>
<path d="M9560 11200 c0 -5 5 -10 10 -10 6 0 10 5 10 10 0 6 -4 10 -10 10 -5
0 -10 -4 -10 -10z"/>
<path d="M8998 10948 c5 -5 16 -8 23 -6 8 3 3 7 -10 11 -17 4 -21 3 -13 -5z"/>
<path d="M8928 10943 c6 -2 18 -2 25 0 6 3 1 5 -13 5 -14 0 -19 -2 -12 -5z"/>
<path d="M9985 10790 c3 -5 10 -10 16 -10 5 0 9 5 9 10 0 6 -7 10 -16 10 -8 0
-12 -4 -9 -10z"/>
<path d="M10021 10703 c-2 -21 -2 -47 -2 -58 1 -11 2 -44 2 -72 0 -43 5 -58
24 -78 14 -13 25 -32 25 -42 0 -11 16 -26 41 -38 23 -10 53 -34 66 -52 14 -18
31 -33 37 -33 8 0 12 -20 12 -57 -1 -49 -5 -62 -26 -81 -22 -20 -23 -23 -9
-35 18 -14 32 -84 19 -92 -10 -6 -1 -75 13 -92 5 -7 7 -14 3 -14 -3 -1 -9 -2
-13 -3 -5 -1 -14 -5 -20 -9 -7 -4 -21 -3 -32 2 -16 9 -18 8 -14 -8 4 -14 -2
-19 -27 -23 -17 -3 -33 -1 -36 4 -6 9 -64 -18 -64 -30 0 -5 5 -13 12 -20 9 -9
8 -12 -4 -12 -9 0 -20 5 -23 10 -4 6 -15 8 -26 5 -10 -4 -20 -3 -20 2 -8 58
-7 62 14 65 16 2 23 11 25 32 5 42 -13 54 -33 22 -10 -14 -23 -26 -30 -26 -7
0 -16 -7 -19 -16 -5 -12 -13 -14 -34 -9 -50 13 -57 12 -67 -9 -6 -11 -20 -23
-32 -26 -21 -5 -21 -5 -3 -28 11 -13 21 -18 25 -12 10 16 23 12 30 -11 5 -13
11 -17 18 -11 7 5 20 12 30 15 14 5 17 1 17 -23 0 -24 -4 -30 -22 -30 -21 0
-21 -1 -3 -13 11 -9 14 -16 7 -20 -5 -4 -8 -16 -5 -27 3 -11 0 -26 -6 -34 -9
-11 -7 -15 12 -20 26 -6 46 -43 50 -91 1 -20 -2 -29 -11 -27 -10 2 -10 -2 -3
-17 17 -31 73 -73 89 -66 9 3 27 -5 43 -20 33 -32 95 -49 103 -29 10 27 43 16
50 -16 5 -26 10 -30 40 -30 19 0 36 6 39 14 3 7 15 16 26 19 35 9 74 -49 78
-114 2 -28 8 -58 14 -65 6 -7 8 -22 4 -33 -6 -19 -3 -24 43 -59 29 -22 37 -59
14 -66 -24 -8 -24 -126 0 -153 10 -12 14 -29 11 -49 -4 -27 -2 -32 22 -38 23
-6 27 -11 23 -36 -3 -17 0 -31 6 -31 31 -5 52 -4 61 3 6 4 22 1 35 -5 18 -10
25 -21 24 -42 0 -17 6 -36 13 -43 7 -7 13 -17 13 -22 0 -14 -74 10 -91 30 -15
17 -16 15 -15 -32 1 -49 2 -50 40 -63 21 -7 44 -11 51 -9 6 3 18 -2 25 -11 7
-8 19 -15 26 -15 8 0 14 -8 14 -17 -1 -27 -35 -63 -59 -63 -29 0 -33 -17 -17
-70 10 -35 24 -52 62 -79 27 -19 51 -34 54 -33 10 4 63 -110 66 -140 0 -10 6
-23 12 -30 5 -7 11 -22 13 -32 3 -11 13 -20 26 -21 16 -1 22 5 25 27 4 22 1
28 -14 28 -12 0 -18 7 -18 23 0 13 -11 34 -25 47 -14 13 -23 26 -20 28 3 3 -5
20 -16 39 -16 26 -19 37 -10 46 16 16 14 38 -8 61 -17 19 -18 26 -8 69 9 42 8
53 -9 85 -10 19 -18 42 -16 49 2 7 -2 13 -8 13 -5 0 -10 9 -10 19 0 14 -8 21
-27 23 -28 3 -46 28 -20 28 8 0 20 6 26 13 9 12 20 10 61 -11 28 -14 56 -34
62 -46 13 -24 49 -52 62 -48 19 6 46 -11 46 -29 0 -12 10 -23 25 -29 24 -9 30
-23 26 -62 -3 -27 7 -22 28 13 10 17 21 27 24 22 9 -14 77 -3 77 13 0 8 5 14
10 14 6 0 10 14 10 30 0 27 3 30 29 30 16 0 37 7 46 16 15 15 17 15 22 -4 3
-13 10 -19 19 -15 10 3 16 -5 20 -26 4 -17 11 -31 16 -31 5 0 25 -12 44 -26
19 -15 37 -24 41 -21 11 11 43 -13 43 -33 0 -26 -21 -37 -32 -16 -15 27 -39
20 -32 -10 5 -18 1 -29 -12 -38 -15 -12 -16 -18 -6 -40 11 -24 10 -26 -28 -36
-27 -7 -46 -7 -59 -1 -15 8 -20 6 -30 -15 -6 -14 -11 -40 -11 -59 0 -28 -4
-35 -20 -35 -13 0 -24 -10 -30 -26 -12 -30 -12 -120 -1 -149 7 -18 9 -17 27
10 10 17 25 36 32 44 20 21 83 51 108 51 25 0 74 -42 74 -65 0 -8 9 -32 20
-52 17 -32 20 -34 20 -14 0 18 3 21 13 12 8 -6 16 -8 19 -5 3 2 26 -5 51 -17
51 -25 82 -20 74 11 -4 15 0 20 16 20 18 0 22 6 23 33 1 17 4 46 8 62 6 28 4
32 -26 40 -18 6 -37 20 -43 31 -6 12 -17 29 -24 38 -10 12 -11 20 -3 28 8 8 6
21 -8 48 -11 21 -16 40 -13 44 3 3 -6 24 -21 47 -21 31 -25 44 -16 54 7 8 9
19 6 24 -4 6 2 15 13 21 12 6 18 16 15 25 -4 8 -1 15 5 15 6 0 11 11 11 24 0
14 5 28 11 32 6 3 9 15 6 25 -3 10 0 20 6 22 13 4 23 117 9 117 -5 0 -12 13
-15 30 -4 16 -24 48 -46 70 -32 33 -45 40 -73 39 -18 -2 -42 2 -54 9 -24 13
-56 10 -62 -6 -3 -10 -40 -8 -102 4 -24 5 -24 6 -7 19 22 16 15 57 -8 49 -8
-3 -32 9 -55 28 -36 29 -40 37 -35 66 4 23 0 44 -16 72 -13 22 -20 43 -16 46
4 4 -2 22 -13 40 -13 20 -20 46 -18 68 1 19 0 37 -2 39 -30 23 -71 47 -82 47
-7 0 -26 16 -41 35 -22 27 -33 34 -49 29 -11 -3 -32 -1 -47 6 -78 36 -91 45
-91 59 0 9 -7 25 -15 35 -8 11 -15 33 -15 48 0 18 -6 31 -17 35 -23 9 -77 62
-70 69 3 3 19 -2 35 -10 33 -17 62 -12 62 10 0 8 11 19 24 25 23 11 23 12 7
50 -16 40 -37 49 -60 27 -10 -11 -12 -10 -9 3 1 8 -10 30 -27 47 -16 18 -30
38 -30 45 0 16 -39 21 -73 9 -23 -8 -31 -5 -54 19 l-28 28 27 3 c14 2 31 12
37 23 6 11 14 22 17 25 13 11 17 54 6 72 -10 16 -9 22 7 33 11 9 16 20 12 31
-4 11 -2 15 8 11 8 -3 17 -3 20 0 10 10 -15 33 -35 33 -13 0 -19 7 -19 24 0
15 -16 40 -40 65 -40 40 -51 47 -62 35 -4 -3 -31 -7 -62 -8 -73 -4 -89 13 -50
49 15 14 31 25 35 25 5 0 6 6 3 14 -3 8 -11 13 -18 10 -14 -5 -30 51 -20 68 8
12 -15 68 -28 68 -6 0 -8 7 -4 15 3 8 1 15 -4 15 -6 0 -10 -5 -10 -11 0 -6 -6
-9 -12 -6 -7 2 -12 9 -11 15 1 5 4 32 7 59 2 26 7 55 10 63 4 9 -2 20 -14 28
-14 9 -20 9 -20 1 0 -7 -11 -9 -30 -6 -16 4 -32 2 -35 -3 -12 -20 -78 -11
-104 14 -15 13 -35 27 -47 30 -18 6 -21 2 -23 -31z m113 -814 c-3 -5 -10 -7
-15 -3 -5 3 -7 10 -3 15 3 5 10 7 15 3 5 -3 7 -10 3 -15z"/>
<path d="M10630 9990 c0 -5 5 -10 11 -10 5 0 7 5 4 10 -3 6 -8 10 -11 10 -2 0
-4 -4 -4 -10z"/>
<path d="M10908 8043 c2 -16 10 -35 16 -43 24 -32 36 -61 31 -70 -4 -6 2 -22
13 -38 36 -50 62 -111 52 -117 -6 -4 -1 -17 12 -34 13 -14 32 -46 42 -69 20
-45 23 -47 45 -33 12 8 13 14 3 35 -6 14 -9 33 -5 42 4 10 0 20 -10 26 -10 5
-17 21 -17 37 0 16 -9 39 -19 53 -28 35 -36 73 -18 89 10 10 12 21 6 37 -5 14
-5 21 0 17 5 -3 12 -1 15 4 10 15 -4 40 -22 39 -42 -1 -86 11 -113 31 -36 27
-37 27 -31 -6z"/>
<path d="M11090 7577 c0 -9 -11 -19 -25 -23 -19 -5 -25 -12 -23 -28 2 -17 -3
-22 -26 -24 l-29 -4 24 -12 c15 -8 23 -20 22 -33 -2 -15 5 -23 21 -27 13 -3
31 -17 40 -31 16 -25 16 -25 -13 -31 -29 -6 -29 -7 -14 -30 8 -13 12 -24 9
-24 -4 0 -2 -8 3 -18 7 -14 21 -18 53 -17 24 1 48 -2 54 -7 7 -5 13 -1 17 12
4 16 12 20 36 18 34 -3 43 -18 10 -18 -11 0 -33 -14 -49 -32 -23 -25 -40 -33
-77 -38 -39 -4 -49 -9 -51 -26 -2 -14 6 -29 23 -42 22 -18 25 -25 19 -61 -4
-23 -3 -41 3 -41 5 0 9 -12 8 -27 0 -23 -4 -27 -23 -25 -25 4 -29 -10 -7 -31
19 -20 9 -27 -26 -20 -38 7 -37 -2 2 -22 26 -14 41 -15 102 -5 40 6 73 15 75
19 2 5 11 7 21 4 10 -3 22 0 26 6 4 8 15 5 32 -9 35 -28 44 -25 76 19 31 45
33 54 11 71 -11 10 -15 29 -13 69 2 85 2 85 -48 158 -25 37 -55 86 -65 108
-10 22 -34 56 -53 75 -19 19 -35 39 -35 45 0 7 -11 17 -25 23 -13 6 -38 30
-55 53 -17 24 -30 35 -30 26z"/>
<path d="M10996 7455 c4 -8 11 -15 16 -15 6 0 5 6 -2 15 -7 8 -14 15 -16 15
-2 0 -1 -7 2 -15z"/>
<path d="M10965 7450 c3 -5 8 -10 11 -10 2 0 4 5 4 10 0 6 -5 10 -11 10 -5 0
-7 -4 -4 -10z"/>
<path d="M10970 7273 c1 -15 60 -67 60 -52 0 8 -4 19 -8 25 -10 15 -52 37 -52
27z"/>
</g>
</svg>
