<?xml version="1.0" standalone="no"?>
<!DOCTYPE svg PUBLIC "-//W3C//DTD SVG 20010904//EN"
 "http://www.w3.org/TR/2001/REC-SVG-20010904/DTD/svg10.dtd">
<svg version="1.0" xmlns="http://www.w3.org/2000/svg"
 width="888.491872pt" height="1062.221853pt" viewBox="0 0 888.491872 1062.221853"
 preserveAspectRatio="xMidYMid meet">
<metadata>
Created by potrace 1.15, written by Peter Selinger 2001-2017
</metadata>
<g transform="translate(-551.508128,1590.961277) scale(0.100000,-0.100000)"
fill="#222222" stroke="none">
<path d="M7385 15890 c-4 -12 -18 -23 -36 -27 -16 -3 -27 -9 -24 -13 5 -8 -71
-43 -117 -54 -15 -3 -30 -15 -33 -26 -5 -15 -12 -19 -31 -14 -14 4 -24 2 -24
-5 0 -7 -8 -8 -25 -1 -17 6 -33 6 -50 -2 -18 -8 -31 -8 -49 0 -20 9 -27 7 -42
-9 -16 -18 -26 -19 -88 -13 -39 3 -84 13 -101 21 -28 13 -31 12 -46 -6 -9 -11
-19 -17 -23 -14 -3 4 -12 -1 -19 -11 -11 -15 -19 -15 -64 -6 -28 6 -57 10 -65
9 -7 -2 -23 2 -35 9 -24 14 -49 8 -57 -14 -3 -9 -11 -12 -16 -9 -6 4 -18 1
-26 -6 -11 -9 -21 -9 -39 -1 -14 7 -27 7 -30 2 -13 -22 -64 0 -116 51 -30 29
-53 56 -52 61 2 4 -4 5 -12 2 -8 -4 -15 -2 -15 2 0 5 -4 16 -10 24 -7 12 -12
12 -29 -4 -17 -15 -23 -16 -36 -6 -13 11 -15 8 -15 -15 0 -15 -9 -34 -22 -44
-24 -20 -19 -55 7 -45 8 3 15 1 15 -5 0 -6 -18 -14 -39 -17 -37 -6 -39 -8 -30
-31 14 -36 11 -46 -11 -40 -14 4 -20 0 -20 -12 0 -9 -9 -22 -20 -29 -14 -8
-20 -23 -20 -46 0 -18 -6 -39 -14 -46 -8 -6 -12 -19 -9 -27 5 -13 2 -15 -18
-9 -32 10 -39 10 -71 1 -22 -6 -28 -4 -28 9 0 20 -29 21 -36 2 -3 -8 -12 -12
-20 -9 -8 3 -14 -1 -14 -8 0 -9 -13 -15 -37 -16 -100 -4 -93 -1 -93 -41 0 -20
7 -49 14 -64 8 -16 11 -28 5 -28 -5 0 -8 -29 -6 -66 2 -48 -1 -67 -11 -73 -10
-6 -11 -10 -3 -15 17 -11 14 -21 -16 -56 -31 -38 -38 -78 -17 -101 15 -17 11
-64 -7 -75 -5 -3 -9 -19 -9 -35 0 -17 -5 -39 -10 -50 -12 -21 -1 -26 17 -8 15
15 28 -7 28 -46 0 -23 7 -33 29 -43 15 -8 40 -27 55 -44 25 -28 101 -50 101
-29 0 18 60 18 87 0 23 -16 29 -16 47 -3 27 18 65 18 87 -1 15 -15 20 -14 54
5 21 12 43 19 50 16 7 -2 12 1 12 7 -1 34 5 47 20 47 13 0 14 3 5 12 -19 19
-14 23 30 23 49 0 73 -22 63 -56 -4 -12 -1 -27 8 -37 16 -19 7 -62 -14 -62 -8
0 -8 -4 1 -15 6 -8 13 -26 15 -41 1 -15 11 -34 22 -43 11 -9 20 -28 21 -43 2
-24 -2 -28 -23 -28 -15 0 -25 -6 -25 -14 0 -8 -5 -16 -12 -18 -8 -3 -7 -11 5
-28 9 -14 17 -31 17 -40 0 -8 11 -32 25 -52 29 -42 35 -89 10 -68 -18 15 -19
12 -1 -36 7 -22 32 -59 54 -82 61 -67 69 -77 64 -92 -4 -10 7 -12 52 -6 52 6
56 5 56 -14 0 -11 4 -20 9 -20 5 0 13 -9 16 -21 4 -12 12 -18 21 -15 7 3 19
-3 26 -13 7 -10 22 -20 33 -22 11 -3 20 -11 20 -19 0 -8 10 -25 23 -38 14 -14
21 -30 17 -41 -3 -11 4 -26 21 -42 14 -13 32 -35 39 -49 17 -33 31 -140 17
-140 -10 0 -18 -30 -29 -103 -3 -20 -9 -40 -14 -43 -18 -11 -8 -51 20 -78 19
-18 27 -34 24 -47 -4 -13 11 -44 42 -89 40 -58 46 -72 35 -85 -10 -12 -10 -15
2 -15 21 0 64 -50 72 -84 5 -20 2 -34 -10 -47 -17 -18 -17 -21 -1 -52 34 -64
78 -115 107 -126 17 -5 30 -15 30 -20 0 -6 16 -25 35 -43 l34 -33 5 -110 c3
-60 11 -132 20 -160 8 -27 17 -62 20 -77 4 -14 17 -40 31 -56 14 -17 31 -45
37 -64 6 -18 22 -46 35 -61 12 -16 23 -32 23 -36 0 -4 11 -13 24 -19 22 -10
26 -19 40 -98 6 -31 23 -61 44 -76 25 -17 24 -48 -1 -48 -15 0 -18 -5 -14 -21
4 -15 0 -23 -14 -26 -10 -3 -17 -9 -14 -13 3 -4 -2 -11 -11 -14 -10 -4 -14
-14 -11 -26 3 -11 1 -23 -5 -26 -5 -4 -7 -19 -4 -35 5 -24 2 -29 -15 -29 -13
0 -20 -6 -18 -17 3 -28 -12 -54 -36 -63 -28 -11 -43 -79 -21 -95 8 -6 17 -28
21 -48 7 -36 7 -37 -17 -28 -23 9 -24 8 -22 -49 1 -49 -1 -57 -15 -52 -14 5
-14 3 -3 -10 8 -10 9 -18 3 -22 -6 -4 -8 -13 -5 -21 4 -8 -8 -23 -29 -37 -27
-17 -37 -32 -41 -61 -4 -23 -17 -48 -32 -62 -18 -17 -25 -31 -21 -45 4 -17 -2
-25 -28 -37 -32 -15 -34 -20 -33 -61 0 -33 -4 -49 -18 -59 -11 -8 -18 -18 -17
-23 1 -4 -7 -16 -17 -25 -11 -10 -20 -24 -20 -31 0 -16 -32 -26 -56 -18 -16 6
-15 2 6 -20 14 -15 21 -27 15 -26 -23 5 -34 -1 -37 -22 -2 -16 -12 -24 -32
-28 l-30 -5 27 -12 c24 -11 28 -10 40 14 l14 26 17 -24 c14 -20 18 -21 26 -9
5 8 21 15 37 15 20 1 32 9 41 28 12 25 17 27 83 27 64 0 72 -2 106 -33 21 -19
46 -37 56 -40 22 -8 35 -39 19 -45 -7 -2 -12 -8 -12 -14 0 -6 6 -6 14 2 8 6
28 10 43 9 15 -2 34 0 41 4 6 5 12 5 12 0 0 -8 68 -45 103 -57 9 -3 17 -14 17
-24 0 -10 3 -22 7 -25 13 -13 11 -56 -2 -67 -12 -10 -11 -16 6 -39 12 -16 21
-48 24 -78 3 -50 3 -52 -26 -58 -25 -6 -29 -11 -29 -43 0 -43 -20 -102 -35
-102 -21 0 -83 -60 -88 -85 -3 -20 2 -33 22 -51 14 -13 29 -24 33 -24 5 0 8
-9 8 -21 0 -14 5 -19 14 -16 25 10 49 -30 53 -85 3 -51 2 -54 -28 -67 -28 -12
-30 -17 -26 -50 11 -74 35 -167 52 -200 14 -27 15 -38 6 -50 -21 -30 -24 -43
-10 -51 11 -7 11 -17 1 -55 -16 -60 -15 -120 2 -134 24 -20 27 -51 4 -60 -16
-6 -20 -17 -22 -62 -1 -30 3 -62 10 -72 9 -15 8 -25 -6 -55 -10 -20 -21 -59
-26 -87 -4 -27 -13 -64 -20 -82 -8 -18 -14 -50 -14 -71 0 -23 -6 -45 -15 -52
-8 -7 -15 -25 -15 -41 0 -23 -7 -32 -27 -41 -16 -7 -38 -20 -51 -30 -13 -9
-30 -14 -39 -11 -13 5 -14 3 -3 -18 10 -17 10 -24 1 -27 -12 -4 -42 -56 -40
-68 0 -4 -6 -11 -15 -16 -9 -5 -16 -15 -16 -23 0 -8 -7 -18 -16 -23 -18 -10
-11 -32 11 -32 17 0 23 -31 30 -139 5 -81 7 -86 40 -117 l35 -32 0 -90 c0 -63
-4 -92 -12 -95 -9 -4 -5 -13 13 -29 36 -32 83 -99 86 -122 5 -28 6 -28 65 -28
64 0 112 -26 127 -69 7 -21 23 -35 56 -50 25 -11 45 -24 45 -28 0 -5 20 -31
45 -59 25 -27 45 -54 45 -59 0 -5 24 -21 53 -36 30 -15 60 -38 67 -52 9 -16
28 -29 54 -36 23 -6 48 -17 56 -24 8 -7 40 -16 71 -20 47 -6 57 -4 62 10 7 16
50 16 76 0 6 -3 11 1 11 9 0 9 5 16 10 16 6 0 15 11 22 25 6 14 16 21 22 17 6
-3 34 -7 61 -8 28 -1 55 -3 60 -4 31 -7 63 2 68 19 6 25 75 41 88 20 13 -20
11 -29 -5 -29 -21 0 -27 -27 -13 -58 24 -53 61 -92 90 -92 35 0 51 -14 33 -29
-8 -7 -12 -20 -9 -28 4 -11 2 -14 -5 -9 -8 5 -12 0 -12 -13 0 -11 5 -23 10
-26 6 -3 10 -11 10 -16 0 -6 -10 -3 -22 5 -33 23 -36 20 -28 -26 9 -52 18 -76
39 -98 15 -15 35 -39 70 -84 13 -15 13 -19 1 -26 -11 -7 -12 -14 -2 -34 6 -14
9 -40 5 -57 -4 -22 0 -38 16 -59 11 -16 21 -33 21 -39 0 -8 14 -18 90 -66 8
-5 30 -20 48 -33 17 -13 36 -20 42 -17 16 10 130 -98 119 -112 -12 -13 3 -25
34 -27 21 -1 26 -12 41 -87 5 -22 10 -25 38 -22 25 3 29 2 18 -6 -17 -12 -12
-19 18 -24 12 -2 25 -6 28 -10 4 -4 13 -2 20 4 9 8 15 5 24 -10 6 -12 19 -21
30 -21 10 0 21 -4 25 -9 3 -6 27 -13 53 -16 73 -10 84 -15 124 -56 37 -37 38
-37 68 -23 29 15 30 15 80 -35 34 -34 59 -51 76 -51 18 0 28 -8 37 -28 12 -29
25 -47 110 -153 53 -66 102 -102 129 -93 21 6 31 -10 34 -55 7 -86 32 -136 63
-126 13 4 25 -3 39 -21 19 -27 19 -27 64 -12 40 12 47 13 55 0 5 -8 24 -20 43
-26 19 -6 35 -15 35 -21 0 -5 4 -16 8 -23 5 -7 2 -19 -8 -28 -13 -13 -13 -19
-3 -31 10 -13 13 -13 23 1 8 11 15 12 22 5 12 -12 36 -3 28 11 -3 5 11 14 30
20 20 7 34 17 32 23 -2 7 4 22 14 35 10 13 16 29 13 35 -3 8 11 13 38 15 24 1
45 7 46 13 2 5 19 -2 37 -16 19 -14 36 -25 39 -25 13 0 5 38 -8 43 -8 3 -20
25 -27 49 -7 24 -17 49 -22 56 -6 8 -5 12 4 13 11 0 11 2 -1 7 -8 4 -35 20
-59 36 -33 21 -40 30 -30 37 8 5 15 4 17 -1 2 -6 9 -10 17 -10 7 0 18 -7 25
-15 17 -20 67 -19 78 1 8 14 21 16 76 12 36 -3 69 -2 72 3 9 16 20 10 33 -17
10 -23 15 -25 44 -19 18 4 45 9 60 10 15 1 33 7 39 13 7 7 25 12 40 12 21 0
28 5 28 20 0 27 8 25 62 -10 39 -26 52 -30 86 -24 23 3 50 15 61 25 11 11 27
19 36 19 8 0 15 5 15 10 0 16 92 12 124 -5 17 -9 41 -13 60 -10 17 4 56 0 86
-8 44 -12 56 -12 58 -2 2 9 13 10 38 5 20 -5 34 -4 34 1 0 5 25 8 55 6 40 -3
55 -1 55 9 0 7 3 19 6 27 3 9 -3 17 -18 21 -19 5 -20 8 -8 16 8 5 11 10 5 10
-5 0 -4 4 4 9 10 7 11 13 1 31 -7 13 -8 25 -3 29 5 3 12 14 16 23 4 13 0 18
-20 20 -15 2 -29 9 -31 17 -3 8 0 11 7 7 6 -4 11 -2 11 3 0 6 6 11 14 11 8 0
17 9 21 19 7 23 39 33 55 17 9 -8 14 -8 17 2 3 6 18 12 33 12 18 0 33 7 39 19
13 23 41 35 54 22 10 -10 29 14 81 102 15 26 38 52 50 57 16 6 28 23 37 54
l14 46 27 -29 c16 -17 28 -38 28 -49 0 -10 11 -25 25 -32 14 -7 25 -19 25 -27
0 -7 7 -13 16 -13 28 0 8 -25 -22 -27 -16 0 -33 -2 -37 -2 -5 -1 1 -13 12 -27
20 -25 20 -27 2 -62 -19 -39 -18 -62 4 -62 13 0 25 -21 25 -44 0 -24 -47 -69
-61 -60 -22 14 -69 11 -69 -4 0 -8 -9 -16 -20 -19 -13 -3 -20 -14 -20 -29 0
-12 -4 -26 -10 -29 -5 -3 -10 -17 -10 -31 0 -13 -3 -24 -8 -24 -4 0 -6 -18 -4
-40 3 -30 0 -41 -13 -46 -9 -4 -21 -18 -26 -31 -8 -20 -12 -22 -30 -13 -11 7
-23 9 -27 6 -3 -3 1 -6 9 -6 9 -1 8 -4 -5 -11 -14 -8 -20 -8 -26 1 -10 17 -23
-36 -14 -62 5 -16 3 -20 -9 -15 -9 3 -17 2 -19 -4 -2 -5 -16 -4 -34 3 -27 10
-34 9 -49 -5 -9 -9 -21 -17 -27 -17 -5 0 -8 -7 -4 -15 6 -17 6 -17 -51 -6 -44
9 -54 2 -29 -18 11 -9 12 -18 3 -41 -10 -27 -12 -28 -29 -13 -15 13 -18 13
-18 2 0 -8 18 -22 40 -32 22 -9 40 -21 40 -27 0 -5 11 -10 25 -10 32 0 125
-94 125 -127 0 -12 5 -25 10 -28 6 -4 10 -14 9 -23 -3 -37 1 -42 20 -25 11 9
17 22 14 30 -5 12 3 14 33 12 30 -2 38 0 35 11 -2 8 -4 24 -5 35 -1 11 -9 31
-18 45 -23 32 -23 46 1 67 20 16 20 17 0 44 -42 59 -63 164 -30 151 9 -3 12
-1 7 6 -4 7 -4 12 -1 12 3 0 11 -13 16 -29 5 -15 21 -34 35 -41 13 -8 27 -25
31 -38 4 -17 8 -20 14 -11 5 8 24 13 47 12 44 -2 65 14 76 60 3 15 13 27 21
27 8 0 15 7 15 15 0 22 28 18 35 -5 3 -11 18 -23 33 -27 15 -3 37 -13 50 -21
21 -14 22 -13 22 12 0 19 4 25 13 19 6 -4 27 -8 45 -10 28 -2 32 1 32 23 0 15
4 23 10 19 6 -4 28 2 50 12 27 13 41 26 45 45 4 15 19 36 34 47 15 11 33 31
41 45 7 14 21 26 31 26 26 0 37 27 31 78 -5 45 -5 45 22 38 19 -5 28 -2 32 9
4 9 19 15 39 15 18 0 38 7 45 15 7 8 23 15 36 15 22 0 24 4 24 45 0 40 3 45
22 45 12 0 32 9 44 21 20 19 24 19 46 6 18 -12 33 -14 70 -7 59 12 77 5 84
-30 6 -26 8 -27 46 -19 48 11 67 27 60 52 -5 19 -4 19 22 2 14 -9 26 -13 26
-7 0 5 16 2 36 -9 33 -16 38 -17 60 -2 13 8 24 23 24 32 0 9 14 22 30 29 17 8
30 20 30 27 0 17 63 32 68 16 5 -15 38 4 52 30 8 15 8 24 0 33 -6 9 -7 23 -2
37 12 33 5 53 -21 64 -18 8 -23 21 -29 72 -4 42 -20 88 -49 147 -23 47 -39 92
-36 101 4 9 1 15 -9 15 -8 0 -18 8 -21 18 -4 9 -13 27 -21 40 -11 17 -18 20
-28 11 -11 -9 -14 -7 -14 12 0 13 6 36 14 51 13 25 12 29 -16 60 -24 27 -29
39 -24 67 3 20 -1 45 -10 62 -13 27 -13 29 4 29 26 0 68 -22 81 -42 8 -13 8
-17 0 -16 -6 2 -13 -2 -16 -8 -2 -7 11 -14 34 -16 49 -7 56 -2 38 25 -13 20
-12 26 10 66 20 34 23 47 14 63 -8 16 -6 23 12 39 16 14 20 22 12 30 -9 9 -4
18 18 36 16 14 29 31 29 39 0 8 7 17 15 20 8 4 15 13 15 22 0 8 3 13 6 9 3 -3
17 -1 31 4 27 10 139 -6 149 -22 2 -5 15 -4 28 1 13 5 26 6 29 4 3 -3 15 1 26
8 18 11 23 11 31 -2 5 -8 10 -27 10 -42 0 -16 4 -28 10 -28 5 0 8 -6 6 -12 -1
-7 -1 -10 1 -5 8 13 22 7 28 -12 5 -16 9 -17 30 -8 13 7 19 15 13 18 -7 4 -7
9 0 13 6 4 9 13 5 21 -3 10 2 15 16 15 23 0 40 27 25 39 -15 11 -35 51 -29 60
2 5 -2 14 -10 21 -23 19 -18 30 14 30 25 0 28 3 24 21 -5 18 -3 20 16 14 15
-5 21 -2 21 10 0 18 69 105 83 105 5 0 25 14 44 30 18 17 38 30 43 30 6 0 10
18 10 40 0 32 7 47 40 81 28 30 40 51 40 72 0 20 6 30 20 34 18 5 28 40 21 77
-1 5 7 6 19 3 14 -4 20 0 20 13 0 43 -14 80 -32 86 -11 3 -17 12 -15 19 3 7
-6 37 -21 66 -31 66 -36 98 -16 120 10 11 12 19 5 24 -6 3 -11 18 -11 32 0 23
2 25 35 19 27 -5 35 -4 35 8 0 10 -6 13 -15 10 -10 -4 -15 0 -15 15 0 12 -4
21 -8 21 -12 0 -32 46 -32 71 0 12 4 17 11 13 6 -3 3 8 -5 25 -9 16 -17 43
-18 58 -2 27 -58 121 -80 134 -18 12 -20 134 -3 175 15 36 15 40 -5 66 -11 15
-20 40 -20 56 0 16 -7 45 -15 65 -11 27 -21 36 -49 41 -29 6 -40 16 -64 60
-17 29 -44 65 -61 79 -32 26 -39 55 -20 74 8 8 2 17 -24 35 -20 12 -40 33 -46
45 -5 12 -19 24 -31 28 -11 3 -18 10 -15 15 3 5 -2 24 -12 42 -19 36 -23 59
-22 131 0 62 -25 104 -71 117 -19 5 -40 10 -46 10 -6 0 -19 9 -30 21 -15 17
-16 22 -4 29 20 13 -4 38 -44 45 -59 11 -105 125 -57 140 28 8 34 37 20 87
-16 62 -5 124 30 160 l29 30 -27 41 c-15 23 -33 69 -40 102 -7 33 -22 76 -32
97 -15 27 -16 37 -7 40 10 4 10 8 -1 21 -7 10 -9 17 -4 17 6 0 9 30 7 70 -2
60 0 72 17 80 22 12 17 56 -13 107 -11 18 -18 42 -16 54 2 18 -3 22 -30 25
-38 5 -74 40 -66 66 7 22 -12 58 -30 58 -19 0 -64 55 -83 102 -8 21 -20 38
-27 38 -6 0 -31 29 -55 65 -23 36 -63 81 -88 100 -58 45 -81 74 -63 85 6 4 10
20 9 36 -4 39 7 54 40 54 39 0 65 39 51 75 -6 15 -10 37 -10 50 0 13 -11 37
-25 53 -13 16 -22 32 -19 34 5 6 -46 28 -80 34 -14 3 -17 0 -13 -16 4 -14 0
-20 -11 -20 -19 0 -80 21 -100 33 -11 8 -64 4 -134 -9 -15 -3 -30 -14 -33 -24
-9 -28 -42 -31 -88 -7 -26 14 -45 33 -52 51 -11 33 -72 100 -98 109 -13 5 -16
13 -11 32 5 21 1 27 -27 41 -19 9 -56 29 -84 45 -74 42 -94 50 -120 43 -13 -3
-39 2 -61 13 -47 22 -94 20 -92 -5 3 -31 -23 -82 -42 -82 -10 0 -20 -6 -22
-12 -4 -10 -10 -10 -31 -1 -21 10 -32 9 -54 -2 -15 -8 -36 -15 -47 -15 -10 0
-37 -5 -59 -12 -34 -10 -41 -10 -52 5 -7 10 -21 16 -31 16 -61 -6 -75 20 -44
80 25 50 25 56 0 81 -24 24 -26 49 -4 65 14 10 13 14 -16 38 -33 28 -55 33
-80 17 -9 -5 -19 -5 -27 2 -9 7 -13 7 -13 0 0 -19 -55 -6 -58 14 -2 10 -13 29
-24 41 -15 16 -18 26 -11 35 18 24 8 55 -25 83 -26 21 -35 25 -46 15 -11 -9
-21 -8 -43 3 -15 7 -36 12 -45 10 -11 -3 -18 1 -18 10 0 8 -14 20 -31 26 -41
14 -39 14 -39 -8 0 -16 -9 -20 -52 -23 -41 -3 -56 0 -65 13 -8 11 -28 17 -55
17 -36 1 -45 -3 -53 -21 -7 -16 -17 -21 -36 -19 -15 1 -31 -4 -38 -11 -8 -10
-23 -12 -55 -7 -41 6 -44 5 -35 -11 9 -17 4 -18 -88 -14 -92 5 -99 7 -120 32
-19 23 -23 25 -28 10 -6 -15 -10 -15 -48 4 -29 16 -52 20 -84 16 -54 -6 -143
28 -174 66 -11 15 -27 27 -34 27 -8 0 -29 9 -47 20 -40 24 -48 25 -48 4 0 -11
-6 -15 -19 -11 -10 2 -26 0 -35 -5 -12 -7 -24 -5 -41 6 -13 9 -30 13 -38 10
-10 -4 -24 11 -42 45 -17 31 -36 52 -51 55 -13 4 -38 19 -56 35 -18 15 -43 33
-54 39 -19 10 -23 9 -28 -14 -5 -20 -12 -25 -34 -23 -15 2 -32 0 -39 -4 -7 -5
-18 2 -28 16 -12 19 -23 23 -48 21 -35 -4 -57 9 -75 42 -8 15 -18 20 -35 17
-14 -3 -27 -1 -31 5 -3 6 -23 6 -53 1 -40 -8 -50 -6 -68 11 -21 20 -24 20 -66
6 -24 -9 -59 -16 -76 -16 -24 0 -33 -5 -33 -17 0 -15 -1 -15 -18 0 -10 10 -25
17 -33 17 -27 0 -100 41 -97 54 2 7 -19 39 -47 71 -34 39 -53 72 -61 104 -8
35 -15 45 -28 43 -11 -2 -20 5 -23 17 -3 12 -9 21 -14 21 -5 0 -9 9 -9 21 0
12 -8 23 -20 26 -22 6 -24 15 -11 41 5 9 14 52 21 95 9 60 9 81 0 92 -10 12
-9 16 3 20 11 5 13 17 10 49 -3 26 -1 46 6 50 7 5 2 26 -18 64 -15 31 -26 64
-24 72 4 12 3 12 -5 2 -5 -8 -12 -13 -16 -13 -3 0 -13 -2 -21 -5 -8 -4 -36 -1
-61 5 -25 6 -50 9 -56 5 -6 -4 -41 -8 -77 -10 -67 -3 -68 -2 -121 41 -30 24
-58 51 -62 60 -5 8 -18 15 -30 15 -35 0 -95 56 -114 108 -22 59 -33 74 -51 68
-7 -3 -35 14 -62 38 l-50 44 33 39 c18 21 31 43 29 50 -2 7 1 21 7 33 10 18 8
25 -14 45 -14 13 -26 31 -26 39 0 8 -8 20 -19 25 -14 8 -21 5 -31 -14 -10 -19
-16 -22 -27 -14 -7 6 -10 15 -7 20 3 5 -2 9 -10 9 -14 0 -86 68 -86 81 0 4 8
6 18 5 12 -1 18 7 20 27 2 15 -2 27 -8 27 -15 0 -70 61 -70 77 0 15 11 17 26
5 5 -4 6 -3 2 3 -14 17 -8 24 17 19 28 -5 75 33 75 61 0 8 5 15 11 15 5 0 7 4
4 10 -3 5 5 15 18 21 18 8 23 17 19 35 -2 13 -12 26 -21 29 -10 3 -16 17 -17
38 -1 45 -22 94 -42 100 -24 6 -88 132 -96 190 -6 37 -11 47 -27 47 -14 0 -19
7 -19 24 0 14 5 28 11 32 6 3 8 17 4 32 -5 22 -4 24 9 13 12 -10 16 -8 21 10
6 18 12 20 41 16 19 -3 34 -2 34 4 0 5 9 9 21 9 15 0 19 4 14 19 -3 11 -1 22
5 26 5 3 10 12 10 19 0 19 -146 166 -164 166 -17 0 -36 30 -36 57 0 27 -88
113 -116 113 -17 0 -24 6 -24 19 0 11 -8 22 -17 25 -10 3 -23 17 -30 31 -9 21
-8 29 10 51 17 22 19 31 10 54 -7 17 -7 32 -1 38 5 5 2 18 -10 31 -16 21 -19
21 -31 7 -9 -10 -22 -13 -43 -9 -22 4 -34 2 -42 -9 -7 -9 -30 -18 -51 -19 -35
-4 -40 -1 -40 16 0 14 -10 23 -33 31 -19 6 -37 16 -42 23 -5 9 -10 10 -14 2
-4 -6 -14 -11 -23 -11 -11 0 -14 6 -9 25 8 30 -10 34 -19 5z m-1335 -220 c0
-11 -4 -20 -9 -20 -6 0 -9 9 -8 20 1 11 5 20 9 20 4 0 8 -9 8 -20z m1740
-1030 c0 -5 -5 -10 -11 -10 -5 0 -7 5 -4 10 3 6 8 10 11 10 2 0 4 -4 4 -10z
m-855 -321 c11 -17 -1 -21 -15 -4 -8 9 -8 15 -2 15 6 0 14 -5 17 -11z m125
-109 c0 -5 -9 -10 -21 -10 -11 0 -17 5 -14 10 3 6 13 10 21 10 8 0 14 -4 14
-10z m1450 -6710 c0 -5 -7 -10 -16 -10 -8 0 -12 5 -9 10 3 6 10 10 16 10 5 0
9 -4 9 -10z m-288 -42 c-7 -7 -12 -8 -12 -2 0 14 12 26 19 19 2 -3 -1 -11 -7
-17z m4006 -1082 c3 -12 -1 -17 -10 -14 -7 3 -15 13 -16 22 -3 12 1 17 10 14
7 -3 15 -13 16 -22z m165 -71 c-3 -9 -8 -14 -10 -11 -3 3 -2 9 2 15 9 16 15
13 8 -4z m-9 -114 c4 -5 3 -16 0 -25 -5 -14 -9 -14 -36 2 -29 17 -29 17 -6 24
33 9 36 9 42 -1z"/>
<path d="M6160 14390 c0 -5 5 -10 10 -10 6 0 10 5 10 10 0 6 -4 10 -10 10 -5
0 -10 -4 -10 -10z"/>
<path d="M7220 11916 c0 -2 8 -10 18 -17 15 -13 16 -12 3 4 -13 16 -21 21 -21
13z"/>
<path d="M6666 10764 c4 -10 11 -24 16 -31 6 -7 5 -14 -3 -18 -8 -6 -7 -10 2
-16 22 -13 29 -11 29 11 0 10 8 24 18 29 15 9 14 10 -7 11 -14 0 -33 8 -43 17
-18 16 -18 16 -12 -3z"/>
<path d="M6593 10729 c-14 -14 -5 -46 13 -53 8 -3 14 -12 14 -21 0 -18 1 -18
32 -2 14 7 23 18 20 25 -5 17 -22 15 -22 -3 0 -8 -4 -15 -9 -15 -5 0 -14 7
-21 15 -7 8 -9 15 -5 15 4 0 1 8 -6 17 -10 11 -10 14 -1 9 6 -4 12 -3 12 3 0
16 -16 21 -27 10z"/>
<path d="M6624 10612 c5 -13 -1 -22 -18 -30 -15 -7 -27 -23 -31 -44 -4 -18
-16 -39 -26 -46 -17 -12 -18 -15 -4 -28 8 -9 15 -21 15 -29 0 -18 50 -34 78
-24 27 10 29 39 2 39 -16 0 -20 7 -20 33 0 19 7 48 15 65 16 31 12 82 -7 82
-5 0 -7 -8 -4 -18z"/>
<path d="M11595 5490 c-13 -6 -15 -9 -5 -9 8 0 22 4 30 9 18 12 2 12 -25 0z"/>
</g>
</svg>
