<svg version="1" xmlns="http://www.w3.org/2000/svg" width="909.947" height="1048.572" viewBox="0 0 682.46 786.429"><g fill="#222"><path d="M266.28 1.055c-.3.8-.4 3-.1 4.8.4 3 0 3.6-3.6 6-2.2 1.6-4.5 2.8-5.1 2.8-.8 0-.8.5.1 1.5 1.1 1.3 5 1.3 9-.2.8-.4 2.2-.5 3-.4 1.9.2 5.8-6.9 5.6-10.1-.1-1.2.2-2.6.7-2.9.5-.4.6-1.2.3-1.8-.5-.8-1.5-.7-3.5.3-2.4 1.3-3 1.3-4.3 0-1.4-1.4-1.6-1.4-2.1 0zM109.48 6.555c-1.2.4-1.4 1.2-.8 2.7 1.2 3.3 2.6 3.7 3.1 1 .6-3.1-.3-4.5-2.3-3.7zM134.68 6.755c-.1.9-1 2.4-2.2 3.5-1.2 1.1-1.8 2.6-1.5 3.7.3 1.3-.1 2.1-1.5 2.4-3 .8-2.3 4 1.2 5.2 4.1 1.4 4.2 1.4 3.5-.4-.3-.8-.1-1.5.4-1.5 1.2 0 1.3 6.7.2 7.4-.5.3-1.9-.8-3.2-2.5-1.4-1.6-3.3-2.9-4.4-2.9-1.6 0-1.8.6-1.4 4.5l.6 4.5h-3.7c-3.9.1-7.7 2.2-6.6 3.9.3.6-.6 1.6-2 2.3-1.7.8-2.2 1.4-1.3 1.9.8.5.9 1.1.1 2.1-1.5 1.9 2.2 9.8 4.6 9.8 1 0 2.6.9 3.6 2s2.6 2 3.7 2c2.1 0 2.4 1.6.4 2.7-2.3 1.3-4.6 7-4.6 11.2 0 2.2-.5 4.3-1 4.6-.7.4-.7 1.2 0 2.5 1.3 2.5 1.3 3-.3 3-1 0-1.3 1.4-.9 5.5.3 3.7.1 5.5-.7 5.5-.6 0-1.1.7-1.1 1.5s-.7 1.5-1.5 1.5-1.5.4-1.5 1c0 .5-.7 1-1.5 1s-1.5.8-1.5 1.8c0 .9-1.1 3.4-2.5 5.4-1.4 2-2.5 4.7-2.5 6 0 1.3-.4 2.9-.9 3.7-.5.8-.5 2.5.1 4.2 1.3 3.7-1 7.2-6.7 9.9-2.4 1.2-5.6 3.1-7.1 4.2-1.8 1.5-4.2 2.2-7.5 2.2-4.4.1-4.9.3-4.9 2.3 0 1.7-.4 2.1-1.7 1.6-1-.4-2.4-1.2-3-1.9-.7-.7-1.8-1.4-2.5-1.7-1-.3-.9-.9.5-2.4.9-1.1 1.7-2.8 1.6-3.9 0-1.4-.3-1.2-1.1.8-.5 1.6-1.4 2.8-1.9 2.8s-1.5 1.5-2.3 3.4c-1.4 3.4-5.6 5.7-5.6 3 0-.8-.5-1.4-1.1-1.4-.7 0-1.8-.8-2.5-1.8-.7-.9-1.4-1.2-1.4-.6 0 .5-1.4.9-3 .8-3.5-.2-4.7 1.1-3 3.1 1.8 2.2 11 4.7 12.5 3.5.9-.7 1.6-.6 2.5.4 1.4 1.7.6 3.6-1.6 3.6-.8 0-1.4.7-1.4 1.5 0 1.1-.5 1.2-2.6.5-3.1-1.2-4.4-.6-4.4 2.2 0 1.7-.4 1.9-2.5 1.4-2.3-.6-2.5-.4-2.5 2.9 0 2.4-.5 3.5-1.5 3.5-2.1 0-1.9 1.7.6 5.2 2.3 3.2 1.9 4.9-.6 2.8-1.4-1.2-1.5-1-.9 1.6.4 1.6 1.2 3.2 1.7 3.6 1.2.7 3.9-.1 4.8-1.5.8-1.2 4.9.1 4.9 1.5 0 .5 1.1 2.3 2.4 3.8 2.3 2.8 2.4 4.4.6 11.5-1 4.2 2.4 4.7 6.5.9 2.2-2 3.3-2.4 5.9-1.8 6 1.3 10.1 3 9.9 4.2-.4 1.8 3.8 3.7 4.7 2.2.5-.8 1.9-1.1 3.4-.8 1.5.3 2.9.2 3.1-.2.3-.5 1.4-.6 2.6-.3 1.2.3 2.4.2 2.8-.3 1.2-1.8 5.6-3.1 7.6-2.4 3.4 1.3 7.9-.1 11-3.4 1.7-1.7 4.4-3.6 6-4.1 2.5-.9 3-1.6 3.3-4.8.2-2 .6-3.7 1-3.7s1.3-.4 2-.9c1-.6.9-1.5-.8-4.4-2-3.3-2-3.8-.6-4.3s1.6-1.5 1-5c-.5-3.7-.4-4.4 1.1-4.4 3 0 5.3 1.9 4.8 3.9-.6 2.2.8 5.1 4.8 10.2 1.6 2 2.9 4.6 2.9 5.7 0 1.3.8 2.1 2.5 2.4 1.4.3 2.8.2 3-.2.9-1.5 4.5.2 4.5 2.2 0 1 .4 1.6 1 1.3.5-.3 1.7-.2 2.5.3 1.3.7 1.2 1-1 2.2-1.4.7-2.5 2.2-2.5 3.2 0 1.3-.7 1.8-2.6 1.8-2.1 0-2.5.4-2.1 2 .4 1.7 0 2-3.4 2-2.1 0-3.9.5-3.9 1.1 0 .5-1.3 1.5-3 2-1.9.7-3 1.8-3 3 0 1-.7 1.9-1.5 1.9-1.2 0-1.2.5.3 3.4 1.6 3.3 6.6 6.6 9.7 6.6.8 0 1.5.7 1.5 1.5 0 1.7 8.6 7.5 11.3 7.5.9 0 2.3 1.1 2.9 2.5.6 1.4 2.2 2.8 3.5 3.1 2.2.6 4.7 3.6 4.8 5.8 0 .5.6 1.1 1.4 1.4 1 .3 1.2 0 .8-1.2-.4-1.1-.1-1.6 1.1-1.6 1 0 2.3-.5 2.9-1.1 1.4-1.4 2.7.6 2.9 4.3.1 1.8-.3 2.5-1.1 2.2-.7-.3-1.6-.1-2 .5-.6 1.1.4 1.4 4 1.2 1.9-.1 1.9 0-.1.8-1.2.5-2.6 1.5-3 2.3-1.3 2.1-.4 8.1 1.6 10.3 1.7 1.9 3.3 8.5 2.1 8.5-2.4.1-3.1 1.8-2 4.4 1 2 1 2.9.1 3.8-1.8 1.8-1.5 4.1.4 3.4.8-.3 2.4-.1 3.4.4 1.5.8 2.2.6 3.3-1 1.6-2.4 4.3-1.8 5 1.1.3 1 1.1 1.9 1.7 1.9.7 0 1-.7.6-1.5-.4-1 .1-1.5 1.5-1.5 1.2 0 1.7.4 1.4 1.1-1 1.5-1.2 7.9-.3 7.9.8 0 1.2-2.3.9-4.8-.2-1 .2-1.1 1.5-.4 1.2.7 2.3.6 3.5-.1 2.8-1.7 5.2-.1 4.4 3-.4 1.7-.2 2.9.7 3.5 1.1.6 1.1 1 0 1.6-.9.6-.4 1.6 2 3.5 1.7 1.5 3.5 2.7 3.9 2.7 1.3 0 1.8 9.5.4 11-1.2 1.5-1.7 5-.6 5 1.4-.1 4.1-2.8 4.1-4.2 0-2.4 9.8-1 13.8 1.9 2.2 1.6 3.2 1.8 5.2.9 1.4-.6 2.8-1.4 3.1-1.8.6-.9 9.8-.2 10.8.7.3.3 0 1.4-.5 2.3-.7 1.1-.8 2.8-.2 5 .8 2.7.7 6.3-.1 13.3-.1.3-1.1.5-2.3.5-1.4-.1-2.7-1.1-3.4-2.6l-1.1-2.5-1.5 3.5c-2.6 6-3.9 6.5-10.1 3.6-5.9-2.9-8.7-3.3-8.7-1.3 0 1.6-8.2 1.9-9.2.3-.5-.7-.8-.6-.8.3 0 1-.8.7-2.5-.9-2-1.9-2.5-2-2.5-.7 0 .8-1.2 2.2-2.7 2.9-2.3 1.1-3.3 1.1-5.3.1-1.4-.7-3.6-1.3-5-1.3s-3.4-.7-4.4-1.5c-1.1-.8-2.8-1.3-3.7-1-1.2.4-2-.1-2.4-1.4-.3-1.1-1.2-1.8-1.9-1.5-.8.3-1.6-.4-1.9-1.8-.5-1.8-.9-2-1.9-1-.6.6-2 1.2-3 1.2-2.8 0-6.8 2.2-6.8 3.7 0 .9-.5 1.1-1.2.6-.7-.4-2.2-.7-3.3-.8-1.5 0-2-.7-2.1-2.8-.1-3.2-.2-3.2-3.2-4.2-2.5-.7-2.5-1-.7 5.2.5 1.8.2 2.3-1.1 2.3s-1.5.3-.7 1.1c.6.6.9 1.7.6 2.5-.2.7.3 2.6 1.2 4.2 1.6 2.7 1.6 3.1.1 5.4-.9 1.4-1.4 3.3-1 4.2.4 1 .1 1.6-.7 1.6-.9 0-1 .3-.4.8 1.5 1 3.5 4.9 3.5 6.7 0 .8.9 1.5 2 1.5 1.2 0 3.4.7 5 1.5 2.8 1.5 6.5 1.1 5.5-.6-.3-.4-.3-1.9 0-3.2.5-1.8 1.2-2.3 2.6-2 2.2.6 2.5 1.9.7 2.6-.9.3-.6 1 1 2.2 1.2.9 2.2 2.4 2.2 3.4s1.1 2.8 2.5 4.1c1.3 1.2 2.2 2.7 1.9 3.1-.3.5.6 1.4 2 2 1.3.6 2.7 2.3 3.1 3.7.3 1.4 1.5 3.2 2.6 4 1 .7 1.9 2.1 1.9 3.1 0 1.1 1 2.1 2.4 2.5 1.6.4 2.5 1.5 2.9 3.6.6 2.5 1.1 3 3.6 3 1.6 0 3.3-.5 3.6-1 .3-.6 2.2-1 4.1-1 2.9 0 3.4-.3 3.4-2.3 0-1.9.5-2.3 3.4-2.4 2.6-.1 3.5.4 3.9 1.8.3 1 2.1 2.8 4 3.9 2.7 1.6 3.7 3.1 4.8 6.8.7 2.6 2.4 6.5 3.8 8.7 2.9 4.6 3.1 10 .5 11.9-3.5 2.6.3 17.2 5.8 21.5 1.8 1.4 2.8 3 2.5 4.1-.2.9.2 2.5.9 3.4 1 1.4 1 2.4.2 4.2-.9 1.8-.8 2.8 0 3.6.7.7 1.2 2.2 1.2 3.5 0 1.2 1.4 3.6 3.1 5.4 3.8 3.8 3.9 9.2.2 9.7-1.3.2-2.3.8-2.3 1.3 0 .6-.5.7-1 .4-1.4-.9-.7 2.9.9 4.8 2 2.5 1.8 11.7-.3 13.3-1 .7-1.5 1.7-1.1 2.3.3.6.2 1.1-.4 1.1-.5 0-2.1 1-3.4 2.2-2.3 2.2-2.4 2.7-1.6 8.8.8 6.8.2 8.6-3.3 9.9-1.7.6-1.5 1.1 1.7 4.8 3.1 3.6 3.5 4.8 3.5 9.5 0 2.9.5 6.9 1 8.8 1.4 4.7 1.4 12.3.1 14.9-.7 1.1-2.1 2.1-3.1 2.1-1.4 0-2 .7-2 2.4 0 3.3-2.7 5.9-4.8 4.7-1.9-1.1-8.3 2.8-10.2 6.3-.7 1.3-2.3 2.9-3.6 3.5-1.3.6-2.4 1.5-2.4 2 0 .6-.6.8-1.3.5-1.4-.5-3.7 3.4-3.7 6.1 0 .8-.9 1.9-2 2.5-1.2.6-2 2.1-2 3.5 0 1.6-.6 2.5-1.6 2.5s-1.4.6-1.1 1.4c.3.8-.3 2.2-1.3 3.1-1 .9-1.6 2.3-1.3 3.1.3.8-.1 1.4-1.1 1.4-1.2 0-1.5.6-1 2.5.3 1.4.1 3.1-.4 3.8-1.5 1.8-.7 10.3 1.4 14.8 1.6 3.6 1.6 3.9-1 9.4-1.9 4.1-3 5.6-4.1 5.1-2.2-.8-1.8 1.2.5 2.4 1.1.6 2 1.9 2 3 0 1 .7 2.3 1.6 2.8 1.3.7 1.4 1.3.5 2.9-.8 1.6-.7 2.4.4 3.3.7.6 1.2 1.7.9 2.4-.3.7.6 1.2 2.3 1.4 1.5.1 3 .7 3.4 1.3.5.8 1.2.8 2.8-.1 2.5-1.3 6.1-.5 6.1 1.5 0 2.3 3.2 2.7 4.7.5 1.2-1.7 1.8-1.9 2.9-.9 1 .8 1.1 1.5.4 2.4-.8 1-.5 1.9 1 3.3 2.7 2.5 1.9 5.7-1.5 6.6-2.4.6-4.2 5-3.6 9.1.2 1.1.4 2.5.5 3.2.1.7.9 2 1.8 3 .8 1 1.8 2.5 2.1 3.3.4 1.1.6.9.7-.5.1-1.8.2-1.8 1.3-.4.7.9 2.2 2.1 3.5 2.8 1.2.6 2.2 1.8 2.2 2.6 0 1.7 2.7 2 4.9.6 1.2-.8 1.2-1.3-.3-3.5-.9-1.4-1.2-2.6-.6-2.6.5 0 1-.7 1-1.5 0-.9.9-1.5 2.5-1.5 1.4 0 2.5-.5 2.5-1.1 0-.6.7-1.7 1.5-2.5 1.3-1.3 1.7-1.2 3.3.4 1.3 1.3 2.5 1.6 4.5 1.1 2.6-.7 2.7-.6 2.7 3.9 0 2.6.6 5.2 1.5 6.1 4.4 4.8 7.9 8.1 8.6 8.1.5 0 1.6 1.4 2.4 3.1 1.5 2.8 1.9 3 5.6 2.4 3.4-.6 4.4-.3 7.5 2.3 2.9 2.4 4.3 2.9 6.9 2.5 2.5-.4 3.9 0 5.6 1.6 1.8 1.6 3.1 2 5.5 1.5 2.7-.5 4 0 7.3 2.7 2.2 1.9 4.1 3.9 4.1 4.5 0 .7 1.1 1.9 2.5 2.8 1.4.9 2.5 1.2 2.5.6s.7-.6 2 .2c1 .7 2.3.8 2.7.4.4-.5.3-1.1-.4-1.3-.7-.2-2.6-1.4-4.4-2.6-3.3-2.3-4.9-7.5-2.7-8.8.9-.6.9-1.1 0-2.2-.7-.7-.9-1.7-.5-2 .3-.4.1-.7-.6-.7-.9 0-.8-.4.2-1.5.9-.8 1.7-1.9 1.9-2.4.7-2.1 11.2 2.4 15.6 6.8 2.5 2.4 4.1 4.6 3.6 5-1.3.9-1.6 3.1-.5 3.1.5 0 1.2-.6 1.4-1.3.4-.7.6-.6.6.4.1.9 1.2 2.4 2.5 3.2 1.6 1.1 2.3 2.3 2.1 4.1-.3 2.8 1.2 3.6 2.1 1.1.4-.8 1-1.2 1.6-.9.5.3 1.9-.3 3.2-1.5 1.8-1.7 2.7-1.9 5.6-1.1 1.9.5 5.7 2.8 8.4 5 5 4.2 7.6 5 7.6 2.5 0-.8.9-1.5 2-1.5s2 .4 2 1c0 .5 1.8 1.9 4 3s4 1.6 4 1c0-1.5 2.7-1.2 5.5.6 1.3.9 2.9 1.3 3.5.9.5-.3 1.3.1 1.6.9.4 1.1 1.9 1.6 4.9 1.6 3.7 0 4.7.5 7 3.2 5.3 6.7 6.7 7.8 9.6 7.8 1.9 0 3.9 1.1 6.2 3.5 1.9 1.9 3.9 3.5 4.5 3.5.6 0 1.6.8 2.1 1.8.6.9 1.1 1.3 1.1.8s1.1 0 2.4 1.3c2 1.9 2.7 2 5 1 3.3-1.6 7.4.3 8.3 3.9.5 2.3.9 2.4 6 1.8 4.1-.5 5.8-.3 6.9.9 2.1 2 7 1.9 7.8-.1.5-1.4 1-1.3 3.1 1 1.4 1.5 3.5 2.6 5 2.6 1.4 0 2.8.7 3.1 1.5.3.8 2.1 2 4 2.7 1.9.6 3.4 1.7 3.4 2.4 0 1.8 3 4 3.8 2.7.9-1.4 8-2.4 8.7-1.2 1.2 1.9 2.5.8 3.5-3.1 1-3.7 1.2-3.9 3.5-2.8 2 .9 2.8.8 4.3-.5 1-1 2.2-1.4 2.5-1.1.4.4 2.7.8 5.2.9 3.2.1 4.5-.2 4.5-1.2 0-1.7 1.2-1.7 3.6.2 2.5 1.9 3.5 1.9 2.8 0-.4-.9 0-1.5.9-1.5.8 0 2.5-.9 3.9-1.9 1.6-1.3 3.3-1.8 4.8-1.4 1.9.5 2.2.3 1.7-1.1-.4-1.1.1-2.5 1.4-3.9 1.1-1.2 1.8-3 1.5-4-.7-2.7 1.7-1.5 3.1 1.5 1.7 3.4 3.6 4.9 6.7 5.2 1.5.1 3.2 1.1 4 2.1 1.3 1.8 4.2 1.3 3.1-.6-.4-.5.4-.9 1.6-.9 1.5 0 4.1 1.9 7.1 5.1 2.9 3.1 5.2 4.8 5.9 4.3.7-.4.9-.3.5.4-.8 1.3 6.3 7.3 8.4 7.1.8-.1 2.2 0 3 .4.8.3 3 .8 4.9 1.1 4.1.7 6.5 3.4 4.8 5.4-.8 1-.7 1.6.4 2.3 1.8 1.1 4.6 1.1 5.4 0 .6-1 6.5.3 7.4 1.7.8 1 10 7.2 10.8 7.2.4 0 1.5.8 2.5 1.7 1.4 1.2 2.1 1.4 2.6.6.4-.6 1.4-1.1 2.2-1.1 3.5.2 5-.3 5-1.7 0-.8.6-1.2 1.4-.9.7.3 2-.2 2.9-1 .9-.9 2.1-1.6 2.7-1.6.6 0 .9-.4.6-.9-.3-.5.2-.8 1.2-.7 1.4.1 1.7-.7 1.5-4.2-.2-4.6.2-5 2.8-2.7 2.5 2.4 6.2.9 9-3.4 1.3-2.1 2.9-3.6 3.6-3.4 2.4.9 4.4-4.2 3.7-9.6-.4-2.8-1.1-5.4-1.5-5.7-1.6-1-.9-2.2 2.5-4.2 2.3-1.4 3.6-3 4.1-5.2.4-1.7 1.3-3.4 2.1-3.7 1.1-.4 1.1-1 .2-2.6-.8-1.6-.8-2.2.1-2.5.6-.2 1.1-1 1.1-1.8s.9-1.4 2-1.4c1.8 0 2.5-1 2.1-3.3 0-.4 1-.7 2.3-.7 2.4 0 5.6-2.3 5.6-4.1 0-.5.9-.9 2-.9s2-.5 2-1.1c0-.5.5-.7 1-.4.6.3 1.1 0 1.1-.7.8-6.9.7-8.8-.2-12-1-3.2-.9-3.9 1-5.9 1.2-1.3 1.7-2.5 1.2-2.7-.8-.3-.7-1 0-2.4 1.9-3.4.7-5.8-6.8-14.3-1-1.1-1.7-2.6-1.5-3.3.4-1.9-3.1-5.9-4.7-5.4-.8.3-1.9-.2-2.5-.9-1.6-2.1-8.6-6-8.6-4.9 0 1.6-5.6 1.1-7-.5-.7-.8-2.1-1.5-3.1-1.5-1.2 0-1.9-.7-1.9-1.8 0-2.7-2.9-6.2-5.1-6.2-1.3 0-1.9-.7-1.9-2.1 0-3-2.3-1.8-3.3 1.7s-5.1 5.8-7.8 4.4c-3.4-1.9-5.2-1.2-4.5 1.5.4 1.7.2 2.7-.8 3.1-.8.3-1.6 1.4-1.9 2.5-.3 1-1.3 2.2-2.4 2.6-1 .3-2.9 1.4-4.3 2.3-4.4 3-6.8 3-10 .3-2.9-2.4-3-2.4-3-.4 0 1.1-.4 2.3-1 2.6-.5.3-1 1.5-1 2.6 0 1-.5 1.9-1.1 1.9-.5 0-.8.4-.5.9.5.8-5.8 3.1-8.8 3.1-.9 0-1.6.4-1.6.9s-1.3 1.4-3 2.1c-1.6.7-4 2.2-5.3 3.4-1.3 1.1-3.3 2.7-4.5 3.5-1.7 1.2-1.8 1.8-.9 4.4.9 2.7.7 3.2-2.1 5.6-3.4 2.9-5.5 7.2-4.5 9.6.7 1.9-3.5 6.6-5.7 6.4-1.6-.2-4.1.5-8 2.5-4 2-6.2 1-5.9-2.7.4-4.2-1.8-8.4-3.4-6.8-.7.7-1.2 2.6-1.2 4.4 0 2.5-.4 3.2-2 3.2-1.1.1-2.6.4-3.3.9-.8.5-1.8.4-2.5-.3-.8-.8-.8-1.1 0-1.1s.8-.7 0-2.5c-.7-1.4-1.9-2.5-2.7-2.5-.8 0-2.1-.9-2.7-1.9-1-1.7-.8-2.2 1.4-3.6 3.8-2.5 1.5-4-3.2-2.1-2.1.9-3.9 1.5-4 1.4-.1-.2-.9-1.4-1.8-2.8-.9-1.3-1.7-3.9-1.7-5.7 0-2.6.5-3.6 2.5-4.3 1.4-.5 2.5-1.3 2.5-1.8s1.5-1.3 3.3-1.8c2.1-.7 3.3-1.7 3.5-3.1.2-1.1 1.2-2.3 2.3-2.6 1.4-.4 1.9-1.4 1.9-4.2 0-2-.4-3.4-.9-3-1.6.9-3.4-3.6-3.7-8.8-.2-3.8.2-4.9 1.7-5.7 1.1-.6 1.6-1.6 1.2-2.6-.3-.9-.1-1.9.5-2.3.7-.4.8-1.9.2-4.6-.5-2.2-1-5.9-1-8.2 0-3.7.3-4.3 2.5-4.9 1.9-.5 3-.1 4.3 1.6l1.8 2.2.2-3.2c.2-2.6-.1-3.1-1.4-2.6-2.1.8-4.4-1.1-4.4-3.5 0-1.1-.7-1.9-1.5-1.9s-1.7-1.2-2-2.8c-.4-1.5-1-3.5-1.6-4.4-.5-1-.9-2.9-.9-4.3 0-1.7-.6-2.5-1.7-2.5-.9 0-1.3.3-1 .7.4.4-.6 1.2-2.3 2-3.3 1.3-7.8.9-12.2-1.3-2.7-1.4-6.1-1.4-7.4-.1-1.2 1.2-2.4.8-2.4-.8 0-.8-.6-1.5-1.3-1.5-.7 0-2.3-1.3-3.5-3-1.3-1.6-3.4-3.8-4.8-4.7-2.5-1.6-2.7-1.6-3.9 0-1 1.3-1.8 1.5-4.5.7-2.9-.8-3.5-.7-4.8 1.1-1.5 2.1-2.8 2-9-.9-2.2-1-3.1-2-2.8-2.9.4-.8-.3-2.6-1.4-4-2.3-3-2.6-5.6-.6-7.2 1.1-.9 1.1-1.8.2-4.4-1.6-4.8-7.4-11.7-9.1-11-.8.3-1.5 0-1.5-.6s-.6-1.1-1.4-1.1c-2 0-6.5-11.9-5.5-14.7.6-1.5.2-2.6-1.1-3.8-1.1-1-1.8-2.9-1.8-4.6.1-2.3.6-2.9 2.3-2.9 1.3 0 2.8-.7 3.5-1.5.7-.8 2.1-1.5 3.2-1.5 2.7 0 6-1.9 5.3-3.1-.4-.5-.2-.9.4-.9.6 0 2-1.8 3.1-4s2.5-4 3-4c.6 0 1-.9 1-2 0-1 .6-2.3 1.3-2.7 1.2-.8 2-4.3.8-4.1-1.8.2-2-.4-.5-2.6 1.3-2.1 1.4-2.9.2-5.2-1.5-3.2-3.8-4.3-3.8-2 0 2.1-1.8 1.9-5.5-.5-1.6-1-4.4-2.6-6.1-3.4-1.7-.8-3.4-2.2-3.8-3-.9-2.5-.7-5.5.4-5.5.6 0 1-.9 1-1.9 0-2.1-6.3-14.6-8.8-17.4-1-1.1-1.2-2.1-.7-2.5 2.4-1.7.7-5.3-5-10.9-3.3-3.2-7.3-6.5-8.8-7.3-1.5-.8-3.3-2.6-4-4-.9-1.6-2.1-2.4-3.4-2.3-1.2.1-2.7-.4-3.3-1.2-.7-.8-1.9-1.5-2.6-1.5-.8 0-1.4-.7-1.4-1.4 0-.8-1.2-2.1-2.7-2.8-3.4-1.6-6.3-9.4-6.8-17.8-.1-3-.6-6.3-1-7.3-.4-1.1-.3-1.7.5-1.7s1-.8.7-2.1c-.3-1.2-.2-3.2.3-4.4.7-1.8.4-3-1.1-4.8-1-1.4-1.9-3-1.9-3.6 0-1.1-1.2-1.5-4.1-1.2-.8.1-2.9-.5-4.5-1.4-1.6-.8-3.4-1.5-4-1.5-1.7 0-4.4-3.5-4.4-5.7 0-1.3-1.7-3.3-4.6-5.4-2.5-1.9-6.4-4.9-8.6-6.8-2.1-1.9-4.7-3.5-5.6-3.6-.9-.1-3.4-1.7-5.4-3.6-2-1.9-6.4-4.5-9.7-5.8-3.4-1.3-6.6-3-7.2-3.8-.6-.7-1.7-1.3-2.4-1.3-2 0-7.3-4.8-8.1-7.3-1.2-3.8-5.9-8.5-7.6-7.6-.9.5-2.3.2-3.7-.7-2.8-2-6.8-9.7-5.2-10.2.7-.2.6-1.2-.4-3.2-1.9-3.7-1.9-4.6 0-3 1.2 1 1.5 1 1.5-.3 0-.9-.5-1.9-1.1-2.3-.8-.5-.8-.8 0-1.3.7-.5.9-2.8.5-6.9-.7-5.9-.8-6.2-4.1-7.4-3.4-1.2-7.2-6.6-5.5-7.7.5-.3 1.2-1.8 1.6-3.3.3-1.6 1-2.7 1.4-2.7 2.8.5 4.2-.3 4.2-2.4 0-1.5.9-2.6 3-3.5 1.7-.8 3-2 3-2.8 0-.8.9-1.4 1.9-1.4 1 0 2.2-.7 2.5-1.6.4-1.1 1.4-1.5 3.2-1.1 2 .3 2.8 0 3.1-1.4.4-1.3 1.4-1.9 3.2-1.9 3.9 0 4.6-1 4.6-6 0-2.5.4-5.1.9-5.8.7-.9.5-1.2-.4-1-1.1.2-1.4-1.7-1.7-8.5l-.3-8.7h2.8c3.9-.1 6.2-2.2 5.5-4.9-.6-2.3-.6-2.3 2.1-.6 2.5 1.7 3.2 1.2 2.7-1.8-.1-.4.6-1 1.4-1.3 1-.4 1.3-1.4.8-3.2-.5-1.9-.3-2.3.8-1.7 1.1.6 1.1.5.3-.5-1.4-1.4-5.4-.4-5.4 1.4 0 .7-1 1.8-2.2 2.3-1.8.8-2.9.6-5.1-.9-2.6-1.9-2.9-1.9-5.3-.3-2.4 1.6-4.5 1.5-8.8-.1-1-.4-1.6-.1-1.6.8 0 .8-1.6 2-3.5 2.7-3.3 1.2-3.8 1-8-2-4.7-3.4-5.8-5.9-2.5-5.9 2.4 0 7 2.1 7 3.2 0 1 3.7 1.1 4.2 0 .2-.4 3.2-2.2 6.8-4.1 3.6-1.9 6.6-3.5 6.8-3.6.2-.2-.6-1.8-1.7-3.6-2.1-3.4-1.5-5.9 1.4-5.9 2.1 0 2.6-2.9.7-3.9-.9-.6-1.3-1.1-.8-1.1s.3-.7-.5-1.6c-1-1.2-1-1.7 0-2.3 2.2-1.4-.4-8.3-4-10.7l-3.1-2.2 3.2-.7c2.7-.6 3.1-1 2.6-3.1-.6-2.2-.3-2.4 2.8-2.4 1.9 0 3.8-.5 4.1-1 .4-.7 1.3-.7 2.4 0 2.6 1.4 4.8-2.8 3-5.8-.9-1.5-1-2.4-.2-3.4.6-.7 1.4-3.2 1.8-5.6.4-2.3 1.1-4.2 1.7-4.2.6 0 .5-.6-.2-1.5-1.8-2.2.2-4.4 2.3-2.6 1 .8 2.2.9 4 .2 2.8-1.1 4.7-5.9 4.7-11.8 0-3.2 3.7-7.3 6.6-7.3.9 0 1.4-1.1 1.4-2.9 0-2.3.5-3 2.2-3.3 1.3-.2 2.4-1.1 2.7-2.3.2-1.1.9-2.4 1.7-2.8.8-.4 1.4-1.5 1.4-2.2 0-.9 1-1.5 2.4-1.5 1.7 0 3.1-1.1 4.6-3.5 1.8-2.9 2-4 1.1-7-.9-3.2-.7-3.7 1.5-5.1 1.3-.9 2.2-1.9 1.9-2.3-.2-.4-.6-2-.9-3.4-.3-1.5-1.4-3.9-2.5-5.3-2.6-3.3-2.6-4.1-.2-4.9 1.6-.5 1.8-1.1 1.2-3.3-.4-1.5-.6-4.3-.4-6.2.4-3-.1-4.2-3.1-7.5-2-2.2-3.6-4.3-3.6-4.8 0-.4-.8-.7-1.7-.7-1 0-2.7-1.3-3.8-2.9-1-1.6-2.2-2.8-2.6-2.5-.4.2-1.3-.2-2.1-.9-.7-.8-1.9-1.2-2.6-.9-.9.3-1.2-.7-1-3.7.3-4.6.2-4.5 2.7-3.1 1.4.7 2.2.3 3.9-1.9 1.3-1.9 1.7-3.2 1.1-4.2-1.5-2.4-1.1-7.9.6-7.9.8 0 1.5-.6 1.5-1.4 0-.8.6-1.4 1.3-1.3 4.6.1 6.8-2.6 4-5.2-.8-.7-1.2-1.9-.9-2.7 1-2.7-1.5-6.3-4.3-6.2-5.2.1-9.1-1.3-9.1-3.3 0-2.1-1.5-2.6-2.3-.6-.6 1.7-5.6 1.4-6.7-.3-.5-.8-.6-1.8-.4-2.2.3-.4-.2-.8-1-.8-.9 0-1.6.8-1.6 1.9 0 2.3-3.6 3.4-6.3 1.9-1.5-.7-2.2-.7-2.8.3-.7 1.1-.9 1-.9-.3 0-2.3-1.8-3.2-3.5-1.8-1 .8-1.5.8-2.1-.1-.5-.8-1.2-.3-2.1 1.5-.7 1.4-2 2.6-2.9 2.6-.8 0-1.7.7-2 1.5-.4.8-1.8 1.5-3.4 1.5-1.5 0-3.3.7-4 1.5-1.1 1.4-1.5 1.4-3.6 0-1.7-1.1-2.4-1.1-2.7-.2-.3.9-.7.9-1.8.1-.8-.6-3.7-1.1-6.6-1-2.8.1-4.9-.2-4.7-.6.3-.4-.4-1.3-1.6-2-1.1-.7-2-1.8-2-2.5s-1.8-3.1-4.1-5.5c-3.7-3.9-4.2-4.1-5.3-2.6-1.2 1.6-1.4 1.6-3.4-.2-1.1-1.1-2.3-2.8-2.7-4-.5-1.6-1.2-1.9-4.3-1.4-3.6.5-7 2.4-4.4 2.4.7 0 1.2.7 1.2 1.6 0 1-.7 1.4-1.7 1.2-1-.2-1.7-.9-1.6-1.6.2-.7-.4-.9-1.4-.5-1.1.4-1.3.8-.5 1.1 1.7.5 1.5 4.2-.3 4.2-.8 0-1.5-.9-1.5-1.9 0-2.2-7.3-8.5-10.7-9.3-1.5-.4-2.3-.1-2.5 1-.3 1.4-.5 1.4-2-.1-.9-.9-2.1-1.7-2.7-1.7-.6 0-1.1-.9-1.1-1.9 0-2.7-1.9-3.7-2.7-1.4-1.1 3.1-4.6 6.3-6.9 6.3-1.3 0-2.6.4-2.9 1-.3.5-2.8 1-5.5 1-3.9 0-5.2-.4-6-2-1.3-2.5-7.3-2.9-6.4-.5.4 1 0 1.5-1 1.5-1.7 0-2.1-.2-6.9-4.5-1.9-1.7-4-2.5-6.6-2.5-3 0-4-.5-5.1-2.5-1-1.9-1.7-2.2-3-1.5-1.3.7-2.2.5-3-.5-1.1-1.3-1.7-1.2-4.4.8-1.9 1.5-3.7 2.1-4.6 1.7-.8-.4-3.2-1.5-5.3-2.5-3.1-1.5-4-1.6-4.6-.6-1.5 2.4-7.9-2.4-10.1-7.5-.5-1.2-2.1-2.6-3.7-3.1-2.7-1-2.9-.8-4.8 3.3-1.6 3.7-2.4 4.4-4.7 4.4-1.6 0-2.8.5-2.8 1.1 0 1.2-2.9 3.8-4.2 3.9-.5 0-.8-1.1-.8-2.5 0-2.5-.1-2.6-6.7-2.1-3.6.3-6.9.3-7.3.1-.4-.2-.5-1.8-.2-3.5.3-2.1 1-3 2.3-3 2.1 0 2.2-.5.9-3.5-.6-1.5-.9-1.6-.9-.4zm-63.1 132.9c.8.5 1.1 1.2.8 1.6-1 .9-3.8-.3-3.8-1.6 0-1.2 1-1.3 3 0zm18 6.4c0 .3-.4.8-1 1.1-.5.3-1 .1-1-.4 0-.6.5-1.1 1-1.1.6 0 1 .2 1 .4zm243 86.1c0 1.9-.9 1.9-3.4 0-1.9-1.4-1.9-1.5.7-1.5 1.7 0 2.7.5 2.7 1.5zm-91.4 12.9c.3 1.9 1.2 3.7 1.9 4 .8.3 2.1 2.1 3 4 1 2 2.1 3.6 2.6 3.6s.9.8.9 1.9c0 1 .6 2.4 1.4 3 2.3 2 2.7 5.1.6 5.1-1.1 0-2.2-.5-2.6-1.1-.5-.8-2.8-1-7.3-.5-8.1.7-12.2-.4-17.3-4.4-2.1-1.7-4.3-2.8-4.8-2.5-.5.3-2.6.3-4.6-.1-2.7-.5-3.9-1.4-4.7-3.4-.5-1.4-2.3-3.4-3.8-4.3-1.9-1-2.7-2.1-2.3-3.1.3-.9 1.1-1.3 1.6-1 .6.4 1.4 0 1.9-.7.6-1 1.1-1.1 1.7-.3.4.6 1.5 1.3 2.5 1.7.9.3 1.7 1.3 1.7 2.1 0 1.2 1.3 1.5 6.4 1.3 5.4-.2 6.9-.7 9-2.9 1.5-1.5 4.3-2.8 6.7-3.2 2.2-.4 3.7-1.1 3.4-1.6-.3-.6-.2-1 .4-1 .6 0 1.3 1.5 1.7 3.4zm-51.1 3.6c1.1-.4 2.4-.5 3-.2.5.3 2 .6 3.4.6 2.7.1 4.3 2.6 1.6 2.6-1.1 0-1.6.7-1.4 2.2.1 1.3-.1 3.5-.6 5-1.1 4.1-5.8 3.9-9.8-.4-2.9-3-2.9-3.2-1.1-4.5 1.5-1.1 1.7-1.7.6-3.3-1.8-3-1.5-4.6.6-2.8 1.1 1 2.4 1.3 3.7.8zm77.1 15.8c.6.4.7 1.8.4 3.2l-.7 2.5-1.2-2.8c-1.6-3.9-1.2-4.7 1.5-2.9zm-66.1 1.2c.3.5.1 1-.4 1-.6 0-1.1-.5-1.1-1 0-.6.2-1 .4-1 .3 0 .8.4 1.1 1zm44.5 15.6c0 .8-.4 1.4-1 1.4-.5 0-1-.9-1-2.1 0-1.1.5-1.7 1-1.4.6.3 1 1.3 1 2.1zm5.5 8.4c-.3.5-1 1-1.6 1-.5 0-.9-.5-.9-1 0-.6.7-1 1.6-1 .8 0 1.2.4.9 1zm7.1 333.2c.4.7.3.8-.4.4-1.4-.8-1.6 1.3-.3 3.3.5.8 1.8 1.2 2.9.9 1.3-.4 2.6.1 3.4 1.1 1.4 1.7 1.7 9.8.5 11.8-.5.7 0 .9 1.3.6 2.4-.6 7 3.1 7 5.6.1 1.3.3 1.3 1.4-.2.8-1 1.6-1.4 1.9-1 .3.5-.8 1.8-2.4 2.8-1.6 1.1-2.9 2.9-2.9 4 0 1.2-.5 2.6-1.2 3.3-.9.9-.6 1.2 1.4 1.2 1.7 0 3.4-1 4.7-2.7l2.1-2.6 2.3 2.1c2.8 2.6 3.9 2.8 3 .6-.5-1.4-.1-1.6 2.8-1.2 2.3.4 3.7.1 4.5-1 .9-1.3 1.6-1 4.7 2.3 2 2.1 3.4 4.2 3.1 4.7-.3.4.2 1.1 1.1 1.4 1.9.8 4.7 7.1 4 9.3-.3.9-1.4 2.2-2.5 2.9-1.7 1.1-2.3 1-3.6-.3-1.8-1.8-5.1-2-5.6-.4-.2.6-1.9-1.3-3.8-4.2l-3.5-5.4h-8.1c-6.4 0-8.6-.4-10.1-1.8-2.4-2.1-8.6-2.2-10.3-.2-.7.8-2.1 1.5-3.1 1.5s-2 .4-2.3.9c-1 1.6-7.6-1-7.6-3 0-1.2.6-1.6 1.8-1.2 1.8.4 3.6-2 4.5-6.4.6-2.8-4.3-8.1-8.3-8.9-1.7-.4-3-1.3-3-2.1 0-.9.6-1.3 1.5-.9.9.3 1.5 0 1.5-.9 0-.8.7-1.5 1.5-1.5s1.5.4 1.5 1c0 .5.7 1 1.5 1 1.7 0 1.9-1.4.5-4-.8-1.5-.6-2 .9-2.5 1.3-.4 1.8-1.1 1.4-2.2-.5-1.2-.2-1.5 1.1-1 1 .4 1.9.1 2.3-.8.3-1 1.2-1.3 2.5-1 1.6.6 1.8.3 1.2-2-.4-1.8-.2-3 .7-3.6 1.8-1.1 1.7-1.1 2.5.3zm25 13.5c-.7.7-2.6-.7-2.6-1.9 0-.6.6-.6 1.5.2.9.7 1.3 1.5 1.1 1.7zm-1 5.9c-.6 1.6-4.1 1.1-8.5-1.3-2.5-1.3-2.3-1.4 2-.8 3.3.5 4.9.3 5.5-.6 1-1.7 1.9.5 1 2.7zm-10.8 26.5c-.2.6-.8 1-1.3 1s-1.1-.4-1.3-1c-.2-.6.4-1.1 1.3-1.1s1.5.5 1.3 1.1zm71.9 33.6c.6 1.6-1.4 4.3-3.3 4.3-.9 0-1.4-1.2-1.4-3.4 0-3 .3-3.3 2.1-2.9 1.1.3 2.3 1.2 2.6 2z"/><path d="M266.68 656.655c0 .8.4 2.2.9 3 1.2 1.8 1.2.2 0-2.5-.6-1.3-.9-1.5-.9-.5zM117.58 10.255c0 1.3-.5 2.4-1 2.4-.6 0-1 .8-.8 1.7.2 1.2-.6 1.9-2.9 2.4-4.1.8-6.3 2.6-5.6 4.5.3.8.1 1.4-.4 1.4s-1.9 1.7-3 3.8c-1.8 3.4-1.9 4.2-.7 6.5.8 1.5 1 2.8.5 3.2-.6.3-1.3 2.7-1.6 5.3-1.7 12.1-1.7 12.1-4 10.2-1.1-.9-1.5-.9-1.5-.1 0 .6.8 1.5 1.8 1.8 2.2.9 3.2 2.3 3.2 5 0 1.7-.6 2.3-2.2 2.3-1.9 0-2.3.6-2.5 3.4-.2 4.1-3.6 11.2-6.2 12.8-1.1.6-1.7 1.8-1.3 2.6.4 1.2 0 1.4-2.2.8-2.3-.6-2.7-.4-2.5 1.1.4 3-1.2 5.3-3.6 5.3-1.3 0-2.7.5-3 1.1-.4.6-1.4.8-2.2.5-.9-.4-2.1.1-2.8 1-1 1.4-.9 2.3.1 4.3.8 1.4 1.4 4.1 1.4 5.8 0 2.7-.4 3.3-2 3.3-1.8 0-1.9.3-.8 2.2.6 1.3 1.1 3.5.9 5-.2 2 .2 2.8 1.3 2.8 2.1 0 2 2-.1 3.5-1.7 1.3-1.7 1.4.1 3.3 1 1.2 1.5 2.6 1.1 3.2-1.2 1.9 1.6 6 4 6 1.1 0 2.6.5 3.2 1.1 1.5 1.5 3.3.3 3.3-2.2 0-1.1.7-3.3 1.5-4.8.8-1.6 1.1-3.1.8-3.5-.4-.4.3-.9 1.5-1.3 1.7-.4 2.2-1.3 2.2-3.7 0-4.3 1-5.4 5-5.8 2.7-.2 3.6-.8 3.8-2.6.2-1.2.8-2.2 1.3-2.2.6 0 .5-.8-.1-2.1-.7-1.1-.9-2.7-.6-3.4.3-.8.1-1.7-.4-2-.6-.4-1-2-1-3.6 0-1.7-.7-4.4-1.6-6-.8-1.7-1.2-3.8-.8-4.7.4-1 .8-2.4.9-3.3.1-.9 1-2.9 2.1-4.5s3.2-5.5 4.8-8.6c2.8-5.6 2.9-5.8 1.1-7.8-1.3-1.5-1.5-2.3-.7-3.3.6-.7.9-2.3.5-3.5-.4-1.9-.1-2.2 2.3-2.2h2.7l-2.1-2.3c-1.6-1.7-1.9-2.6-1-3.5.8-.8.8-1.8-.2-4.1-.6-1.6-.9-3.5-.5-4 .3-.6.1-1.1-.4-1.1-.6 0-1.1-.9-1.1-2.1 0-1.1.5-1.7 1-1.4.6.3 1 .1 1-.5s1.1-1.5 2.5-2 2.7-2 3.1-3.5c.6-2.3 1.1-2.5 5.8-2.5 2.8 0 5.6-.4 6.1-.8 1.8-1.3 1.6-4.8-.5-6.7-1.1-1-2-2.3-2-2.9 0-.6-1.1-1.6-2.5-2.3-2.3-1-2.5-.9-2.5 1.3zM100.48 10.155c-.1.6 0 1.4.1 2 .1.5.3 1.7.5 2.5s.6 2.2 1 3.2c.4 1.1.1 1.7-1 2-1.4.3-1.4.5-.2 2.2 2 2.7 4 1.1 3.5-3-.3-2.7 0-3.5 2-4.3 2.7-1.3 2.1-3.1-1.2-3.1-1.2 0-2.7-.5-3.4-1.2-.7-.7-1.3-.8-1.3-.3zM262.28 21.355c.4 1.1.3 1.4-.5.9-1.7-1.1-1.4 1.6.5 3.9 1.2 1.6 1.4 1.6 1 .3-.3-1-.2-2 .3-2.3 1.3-.8.8-4.5-.7-4.5-.7 0-1 .7-.6 1.7zM99.68 27.055c-1.8 2.1-1 3.7 1.1 2.2 1-.7 1.3-1.7.9-2.5-.6-.9-1.1-.8-2 .3z"/><path d="M94.58 42.655c0 1.7 4.1 3.3 5.3 2.1.7-.7.5-1.2-.6-1.6-.9-.3-2.4-.7-3.2-1-.8-.2-1.5 0-1.5.5zM89.28 44.655c-.3 1.1-.2 2 .3 2 1.2 0 2.1-2.8 1.1-3.5-.5-.2-1.1.4-1.4 1.5zM84.58 48.655c0 .5.5 1 1.1 1 .5 0 .7-.5.4-1-.3-.6-.8-1-1.1-1-.2 0-.4.4-.4 1zM85.58 51.655c0 .5.5 1 1.1 1 .5 0 .7-.5.4-1-.3-.6-.8-1-1.1-1-.2 0-.4.4-.4 1zM89.08 51.655c-.3.5-.1 1 .4 1 .6 0 1.1-.5 1.1-1 0-.6-.2-1-.4-1-.3 0-.8.4-1.1 1zM116.18 56.455c-.3.5.1.9.9.9s1.2-.4.9-.9c-.3-.4-.7-.8-.9-.8-.2 0-.6.4-.9.8zM39.58 128.955c0 1-.6 1.7-1.3 1.7-.9 0-1.2 1.1-.9 3.5.2 1.9 0 3.5-.5 3.5s-.9.9-1 2c-.3 3.2 2.1 2.3 5.7-2 2-2.4 4.2-4 5.5-4 3.1 0 3.7-1.1 1.9-3.1-1.3-1.4-2-1.6-3.4-.6-1.5.9-2.3.7-3.9-.7-1.9-1.7-2.1-1.7-2.1-.3zM30.58 140.555c0 .6-.7.8-1.5.5-.8-.4-1.5-.1-1.5.4 0 1.8 1.4 2.1 3.3.7 1.2-.8 1.4-1.5.8-2-.6-.3-1.1-.2-1.1.4zM24.38 146.355c.7.3 1.6.2 1.9-.1.4-.3-.2-.6-1.3-.5-1.1 0-1.4.3-.6.6zM27.08 148.655c-.3.5-.1 1 .4 1 .6 0 1.1-.5 1.1-1 0-.6-.2-1-.4-1-.3 0-.8.4-1.1 1zM9.08 178.655c-1 1.7-1.3 6-.4 6 1.6 0 3.2 4.1 2 5.3-.6.6-1.1 2.8-1.1 4.9 0 2.1-.4 3.8-.9 3.8s-.7 1.8-.4 4c.5 3.3.2 4.1-1.3 4.6-2.8 1-5.4 4.1-5.4 6.3 0 1.1-.6 2.2-1.2 2.4-.7.3-.3.6.9.6 1.2.1 2.5.6 2.8 1.1.4.6 1.1.8 1.6.4.5-.3 2.2.1 3.7.8 3.8 1.8 8.2 1.2 8.2-1.3 0-1.4.7-1.9 2.5-1.9 1.4 0 2.5-.4 2.5-.9s.9-1.3 2.1-1.6c1.2-.4 2.9-1.4 3.9-2.3 1-1 2.5-2.3 3.4-3 .8-.6 1.3-1.9 1-2.7-.4-.8-.1-1.5.5-1.5s1.1-1.1 1.1-2.4c0-1.3.7-2.6 1.5-3 2.8-1 1.5-2.6-2.1-2.6-1.9 0-3.3.4-3 .8.6 1.1-1.1 3.8-1.9 3-1-.9-2.7-9-2.1-9.6.3-.3 1.2.1 2 .7.9.8 1.6.8 2 .2.4-.6 2.1-.8 3.9-.4 3.1.6 5 2.1 4.2 3.4-.3.3.6 1.1 1.8 1.7 4.7 2.2 5.5 2.1 6.1-.4.4-1.5 1.9-3 3.7-3.8 2.9-1.2 2.9-1.3 1-3-1.1-1-2.7-1.6-3.5-1.3-.8.3-2-.1-2.7-.9-1-1.3-1-1.7.1-2.4 1.7-1.1 1.6-1.2-3.7-3.2-2.6-1-4.3-1.2-4.3-.6s-.7.7-1.7.3c-1-.5-4.6-.9-7.9-1-3.4-.1-6.6-.5-7.2-.9-.6-.3-1.3-.2-1.6.2-.7 1.2-6.8 1.3-8.2.1-.8-.7-1.4-.6-1.9.1zm19.5 6.1c-.6 1-1.7 1.6-2.5 1.3-2.4-1-1.7-3.2 1-3.2 2.1 0 2.3.3 1.5 1.9zM57.08 189.655c-.3.6.1.7.9.4 1.8-.7 2.1-1.4.7-1.4-.6 0-1.3.4-1.6 1zM185.58 275.155c0 1.7-5.6 5.5-8.1 5.5-1.9 0-3.3 2.6-1.9 3.5 1.7 1.1 1.1 4.5-.7 4.5-1.3 0-.9.7 1.5 2.9 1.7 1.7 3.2 3.4 3.2 3.9 0 .8 8 6.2 9.2 6.2.2 0 .2-1.8 0-3.9-.3-3.3 0-4 1.7-4.6 2.5-.8 2.8-2.5.4-2.5-1.4 0-1.5-.2-.4-.9 1-.6 1.2-1.9.7-4.5-.6-2.9-.4-3.6.9-3.6 1.9 0 1.9-.4-.1-4.6-1.2-2.5-2.3-3.4-4-3.4-1.5 0-2.4.6-2.4 1.5zM314.58 318.355c0 .6.8 1.7 1.8 2.4 1.6 1.3 1.6 1.3.2-.6-.8-1.1-1.6-2.2-1.7-2.4-.2-.2-.3 0-.3.6zM661.08 662.655c.3.5.8 1 1.1 1 .2 0 .4-.5.4-1 0-.6-.5-1-1.1-1-.5 0-.7.4-.4 1zM303.58 706.455c0 .4.4 1.4 1 2.2.5.9.5 1.7-.1 2.1-.6.3-.1 1.6 1.1 3 1.7 1.9 2 2 1.6.5-.5-1.6-.2-1.8 2.4-1.4 4.5.7 3.8-1.6-1.5-4.5-2.5-1.4-4.5-2.3-4.5-1.9zM321.18 710.555c1 1.8 2.5 3.5 3.2 3.8.6.3 1.2 1.6 1.2 3 0 2 .4 2.4 2 2 2.9-.8 5.2 2.8 3.9 6.1-.6 1.5-.8 3.7-.4 4.9.3 1.4.1 2.3-.6 2.3s-.9.9-.5 2.3c.4 1.6-.1 2.6-1.4 3.5-1.2.7-2 2.3-2 3.9v2.6l2.3-2c2.9-2.7 7.7-2.8 7.7-.2 0 1.6.5 1.8 2.6 1.3 2-.5 2.9-.1 4.2 1.7.9 1.3 1.6 2.7 1.5 3.1-.1.3.4.9 1.2 1.2 1.7.6 3.9-2.9 2.9-4.5-.4-.7.3-.9 1.7-.7 1.3.2 2.3.9 2.1 1.6-.1.8.1 1.1.6.8.5-.3 1.8.4 3 1.4 2.4 2.3 3.7 2.6 2.5.8-.4-.7-.6-2.5-.4-4 .2-2.3-.2-2.8-1.8-2.8-1.2 0-2.1-.5-2.1-1 0-.6.5-1 1.2-1 .9 0 .9-.3.1-1.1s-1.7-.8-3.1 0c-2.6 1.4-3.5.3-1.7-2.3.8-1.1 1.5-3.1 1.5-4.3 0-2.5 1-2.9 2.8-1.1.9.9 1.2.9 1.2 0 0-.6-.8-1.5-1.7-2-1.9-1.1-4.3.7-4.3 3.2 0 2.4-2.9.8-4.6-2.5-.8-1.7-2.3-2.9-3.4-2.9-1 0-2.2-.9-2.5-2-.3-1.1-1.5-2.5-2.6-3-2.3-1.3-5.1-6.4-4.4-8.2.6-1.4-6.1-4.8-9.3-4.8-1 0-2.4-.6-3.1-1.3-.8-.6-.5.3.5 2.2zM307.58 717.855c0 .9.5 2 1 2.3.6.4.7 1.1.4 1.7-.4.7-.2.8.4.4 1.6-.9 1.5-1.8-.3-4.2-1.3-1.7-1.4-1.7-1.5-.2zM310.58 723.755c0 .5-.4.8-.9.4-.5-.3-1.6.1-2.3.9-.8.7-2.6 1.2-4.1 1.1-2.3-.3-2.5-.1-1.7 1.5.7 1.4.6 2-.7 2.4-.9.4-2 .1-2.4-.6-.6-.9-1.3-.8-2.8.6-1.8 1.6-2.5 1.7-4.7.7-2.6-1.1-4.4-.8-4.4 1 0 .5-1.1 2.7-2.5 4.9-1.4 2.3-2.5 5.4-2.5 7.5 0 2.4-.5 3.5-1.5 3.5-.8 0-1.5.4-1.5 1 0 .5.9 1 2 1 1 0 2.4.9 3 2 1.3 2.4 4.5 2.6 5.4.4.8-2.2.8-2.4-.6-2.2-.7.2-1.3-.4-1.3-1.2 0-1 .8-1.4 2.5-1.2 4 .5 7.3-.7 6.6-2.3-.3-.9.1-1.5.9-1.5.9 0 1.5-.9 1.5-2.1 0-1.3.5-1.9 1.3-1.6.8.3 3.5-1.9 6.2-5 3.4-3.8 5.4-5.3 6.7-5 1.1.3 1.8 0 1.8-1 0-.8-.9-1.7-2-2-1.5-.4-1.9-1.1-1.5-2.4.4-1.1.4-1.9.1-1.9-.3 0-.6.5-.6 1.1zm-2.5 6.9c-.3.5-1.1 1-1.6 1-.6 0-.7-.5-.4-1 .3-.6 1.1-1 1.6-1 .6 0 .7.4.4 1z"/><path d="M317.58 727.755c-2 .5-1.5.7 2.1.8 2.5.1 5.1.7 5.8 1.3 1.1 1.1 1.3 1 .9-.2-.6-1.8-5.4-2.9-8.8-1.9z"/></g></svg>