<?xml version="1.0" standalone="no"?>
<!DOCTYPE svg PUBLIC "-//W3C//DTD SVG 20010904//EN"
 "http://www.w3.org/TR/2001/REC-SVG-20010904/DTD/svg10.dtd">
<svg version="1.0" xmlns="http://www.w3.org/2000/svg"
 width="543.561724pt" height="874.265553pt" viewBox="0 0 543.561724 874.265553"
 preserveAspectRatio="xMidYMid meet">
<metadata>
Created by potrace 1.15, written by Peter Selinger 2001-2017
</metadata>
<g transform="translate(-771.438276,1479.265553) scale(0.100000,-0.100000)"
fill="#222222" stroke="none">
<path d="M7920 14792 c-8 -3 -26 -13 -39 -24 -17 -13 -33 -17 -55 -13 -23 5
-37 1 -52 -13 -16 -15 -25 -17 -38 -10 -17 10 -18 6 -10 -53 9 -75 7 -143 -5
-147 -16 -6 1 -42 20 -42 11 0 19 3 19 8 0 7 48 32 63 32 5 0 3 -7 -4 -17 -13
-15 -12 -15 11 -3 14 7 26 14 28 14 10 3 45 -74 43 -96 -3 -29 14 -67 37 -84
8 -6 16 -23 18 -39 2 -15 11 -37 22 -49 30 -33 34 -44 23 -64 -12 -22 19 -120
43 -138 9 -6 16 -17 16 -24 0 -8 4 -9 13 -4 6 5 19 9 27 9 26 -1 80 -38 86
-60 4 -11 17 -33 30 -48 18 -22 24 -41 24 -78 0 -71 38 -136 148 -248 50 -53
94 -103 97 -112 3 -9 17 -21 31 -28 18 -8 24 -16 19 -30 -3 -11 -1 -22 5 -26
8 -5 7 -14 -3 -29 -10 -15 -12 -27 -5 -39 5 -10 6 -21 3 -27 -3 -5 3 -15 15
-22 11 -7 20 -19 20 -28 0 -10 5 -7 15 8 13 17 14 26 4 44 -10 19 -8 25 16 46
25 21 26 26 15 47 -7 13 -10 31 -7 39 4 10 -2 22 -17 31 -29 19 -49 99 -36
145 5 18 6 38 3 44 -4 6 2 4 12 -4 14 -11 19 -12 22 -2 3 6 12 12 21 13 11 0
12 2 5 6 -7 2 -13 17 -13 33 0 23 5 30 30 35 42 9 60 31 60 70 0 19 5 37 10
40 7 4 7 12 0 25 -5 10 -10 28 -10 39 0 12 -4 21 -10 21 -21 0 -9 20 15 26 14
3 25 13 25 21 0 8 4 12 8 9 5 -3 21 3 36 13 30 20 23 33 -22 37 -30 3 -33 6
-35 33 -1 20 -2 21 -14 5 -7 -9 -19 -14 -28 -10 -13 4 -14 2 -5 -14 13 -24 13
-43 0 -35 -5 3 -20 -3 -32 -14 -12 -12 -27 -21 -34 -21 -7 0 -25 -12 -39 -26
-20 -20 -29 -24 -38 -15 -9 9 -9 14 0 19 8 5 9 13 3 22 -7 12 -11 10 -19 -10
-6 -16 -10 -19 -10 -8 -1 21 -53 39 -91 32 -42 -9 -88 45 -88 104 0 56 25 72
67 42 21 -15 31 -17 34 -8 7 21 -19 63 -47 76 -32 14 -71 95 -67 137 3 30 -27
95 -43 95 -8 0 -18 -9 -21 -20 -7 -21 -25 -28 -25 -10 0 6 -12 10 -26 10 -37
0 -61 16 -68 45 -4 14 -23 36 -46 50 -22 14 -40 30 -40 35 0 6 -9 10 -19 10
-11 0 -22 4 -25 9 -10 15 12 61 29 61 8 0 15 8 15 18 -1 25 -35 62 -58 62 -15
0 -24 11 -34 39 -9 26 -18 36 -28 33z"/>
<path d="M7847 14493 c-10 -9 -9 -41 2 -47 4 -3 8 8 7 24 -1 17 -1 30 -2 30 0
0 -4 -3 -7 -7z"/>
<path d="M7800 14426 c0 -9 30 -14 35 -6 4 6 -3 10 -14 10 -12 0 -21 -2 -21
-4z"/>
<path d="M8584 13146 c-3 -9 -3 -31 0 -49 5 -27 2 -34 -16 -42 -14 -6 -24 -21
-26 -37 -3 -21 -10 -29 -30 -34 -61 -13 -65 -21 -30 -54 12 -11 17 -20 11 -20
-6 0 -21 -16 -34 -36 -20 -33 -21 -37 -6 -46 10 -5 17 -16 17 -23 0 -8 4 -15
8 -15 12 0 77 -67 77 -79 0 -13 5 -14 28 -5 14 5 15 9 6 20 -9 11 -8 14 1 14
7 0 10 7 7 14 -8 20 18 26 68 18 27 -5 41 -13 45 -27 4 -17 20 -24 60 -27 3 0
20 3 37 7 21 5 30 12 25 19 -4 6 -7 30 -8 54 -1 30 -9 51 -24 67 -19 20 -21
27 -10 40 10 12 10 15 -2 15 -18 0 -47 33 -72 82 -10 20 -28 39 -40 42 -22 6
-66 67 -66 91 0 21 -19 28 -26 11z"/>
<path d="M8914 12745 c-4 -9 -2 -21 4 -27 16 -16 76 -16 91 -1 9 10 5 11 -20
6 -27 -5 -31 -4 -26 10 4 10 2 17 -2 17 -5 0 -16 3 -25 6 -10 4 -18 0 -22 -11z"/>
<path d="M8860 12710 c0 -5 12 -10 26 -10 14 0 23 4 19 10 -3 6 -15 10 -26 10
-10 0 -19 -4 -19 -10z"/>
<path d="M9020 12688 c0 -16 -6 -28 -13 -28 -7 0 -19 -20 -26 -45 -7 -24 -19
-49 -27 -56 -11 -9 -11 -15 -3 -25 16 -20 2 -61 -24 -70 -12 -5 -24 -7 -27 -7
-12 3 -8 -121 4 -151 12 -28 11 -38 0 -66 -8 -18 -12 -42 -8 -52 3 -10 0 -25
-6 -33 -8 -10 -8 -19 0 -34 8 -16 7 -27 -7 -48 -26 -40 -51 -63 -68 -63 -9 0
-15 -9 -15 -25 0 -15 -6 -25 -15 -25 -12 0 -13 -9 -8 -47 3 -27 10 -56 14 -65
5 -9 9 -28 9 -41 0 -14 7 -30 16 -38 8 -7 22 -26 31 -43 8 -17 33 -55 54 -83
32 -43 45 -53 69 -53 25 0 30 -4 30 -24 0 -13 7 -40 15 -60 13 -30 13 -36 1
-36 -18 0 -24 -45 -16 -110 5 -39 3 -50 -7 -50 -10 0 -11 -5 -3 -19 16 -31 13
-101 -5 -101 -8 0 -15 -2 -15 -5 0 -3 7 -22 15 -42 19 -45 19 -67 0 -83 -9 -8
-12 -17 -7 -24 5 -6 12 -23 16 -38 4 -19 11 -25 25 -21 10 3 22 0 25 -6 4 -6
0 -11 -8 -11 -9 0 -16 -4 -16 -9 0 -5 -10 -11 -22 -13 -18 -2 -23 -9 -22 -33
0 -16 -6 -34 -13 -38 -8 -5 -11 -16 -8 -28 7 -22 9 -22 -32 -10 -18 5 -32 6
-31 3 3 -14 -16 -47 -34 -60 -13 -10 -17 -25 -16 -68 1 -31 7 -59 15 -65 17
-15 17 -49 -1 -49 -11 0 -12 -9 -5 -46 5 -25 8 -48 6 -52 -4 -13 28 -49 59
-65 23 -12 34 -27 42 -59 20 -80 22 -97 11 -103 -6 -4 -8 -18 -5 -30 3 -13 1
-25 -4 -27 -7 -2 -5 -20 6 -50 16 -43 16 -47 1 -63 -19 -18 -23 -30 -7 -20 12
7 70 -34 70 -50 0 -23 62 -105 80 -105 22 0 33 -46 24 -101 -6 -35 -4 -39 14
-39 12 0 29 -11 37 -24 9 -14 30 -29 46 -35 16 -5 29 -16 29 -23 1 -16 35 -58
48 -58 16 0 32 -56 20 -68 -6 -6 0 -24 18 -52 22 -32 25 -43 14 -50 -10 -6 -8
-10 8 -19 23 -12 55 -69 46 -82 -3 -5 2 -19 10 -31 18 -25 21 -89 6 -104 -14
-14 6 -69 39 -111 34 -43 53 -155 34 -199 -7 -16 -12 -42 -13 -57 0 -15 -7
-30 -15 -34 -12 -4 -15 -18 -14 -52 1 -25 -1 -53 -4 -61 -3 -8 -8 -33 -9 -55
-2 -33 -7 -41 -25 -43 -15 -2 -23 -10 -23 -23 0 -10 4 -19 9 -19 16 0 20 -54
5 -71 -12 -13 -12 -22 -3 -42 7 -15 8 -31 3 -40 -11 -19 -93 -87 -105 -87 -5
0 -9 -7 -9 -15 0 -8 -5 -15 -11 -15 -7 0 -9 -9 -6 -22 3 -13 0 -31 -8 -42 -12
-16 -12 -23 0 -46 8 -15 23 -30 35 -33 13 -3 20 -13 20 -30 0 -14 4 -28 8 -31
5 -3 10 -36 10 -73 3 -100 7 -136 18 -158 6 -11 19 -54 29 -95 9 -41 26 -89
36 -107 15 -24 19 -47 18 -105 -2 -75 18 -154 49 -190 11 -14 12 -24 3 -49
-17 -50 -13 -100 14 -147 13 -23 22 -49 18 -58 -4 -10 1 -17 14 -20 27 -7 47
-46 39 -77 -4 -19 0 -26 19 -35 14 -7 25 -20 25 -31 0 -53 44 -97 66 -67 6 9
16 16 23 16 6 0 14 6 17 14 3 8 12 12 19 10 8 -3 11 -12 8 -19 -7 -19 27 -74
42 -69 14 6 65 -65 65 -89 0 -15 -11 -22 -32 -18 -5 0 -8 -3 -8 -8 0 -5 -11
-12 -25 -15 -15 -4 -30 -18 -37 -34 -6 -15 -15 -37 -20 -48 -8 -17 -5 -28 13
-53 19 -26 21 -34 10 -57 -9 -20 -9 -29 1 -41 9 -11 9 -16 -1 -22 -10 -6 -9
-10 3 -14 25 -10 44 2 39 24 -5 17 -1 20 22 17 38 -4 72 40 55 72 -6 12 -9 24
-6 28 8 7 101 5 126 -3 14 -4 20 -2 20 8 0 10 7 13 19 10 20 -5 51 20 51 42 0
8 9 19 20 25 11 6 20 18 20 27 0 13 2 14 17 2 18 -15 18 -16 -3 50 -5 16 0 20
28 23 31 3 33 5 31 37 -1 30 0 32 14 18 11 -11 22 -13 38 -7 57 22 135 15 135
-12 0 -4 15 -8 33 -8 38 -1 97 -49 97 -79 0 -22 47 -71 67 -71 7 0 16 8 22 17
8 14 13 15 34 6 20 -9 27 -9 30 0 3 9 9 8 22 -3 10 -8 27 -14 38 -12 10 2 31
-1 46 -8 19 -8 35 -8 55 0 21 7 34 6 56 -5 16 -8 40 -15 54 -15 14 0 28 -4 31
-10 3 -6 24 -10 46 -10 33 0 46 6 67 30 31 35 59 38 95 10 14 -11 29 -20 35
-20 5 0 23 -7 39 -15 35 -17 60 -12 68 16 4 10 11 19 16 19 5 0 9 7 9 16 0 31
23 41 85 36 33 -2 64 -10 70 -18 11 -14 74 -22 92 -11 6 4 23 2 37 -5 20 -8
32 -9 51 0 14 7 36 17 49 23 14 7 31 9 40 6 8 -3 20 0 26 8 14 17 66 10 92
-13 17 -15 92 -21 104 -9 4 4 17 -5 30 -18 13 -14 32 -25 44 -25 31 0 44 -44
30 -99 -9 -34 -8 -46 1 -52 10 -6 7 -20 -11 -59 -20 -42 -22 -55 -12 -70 6
-11 8 -21 3 -24 -7 -5 32 -120 45 -135 11 -12 15 11 4 24 -18 22 -4 31 18 12
20 -19 57 -21 114 -8 40 9 78 -7 78 -35 0 -16 5 -17 28 -5 14 7 20 2 34 -30 9
-21 12 -39 7 -39 -5 0 -9 -7 -9 -15 0 -15 28 -19 110 -15 20 0 47 -3 61 -9 24
-9 26 -7 21 15 -2 14 -12 29 -22 34 -10 5 -23 23 -28 40 -10 28 -10 29 8 20
11 -6 20 -7 21 -3 0 4 2 24 5 43 3 24 0 39 -11 47 -10 7 -12 14 -6 17 10 7 6
14 -51 80 -15 18 -30 44 -34 60 -5 23 -3 28 15 33 14 4 20 11 17 20 -3 8 -6
22 -6 30 0 11 -7 14 -25 9 -29 -7 -33 8 -10 41 14 21 14 23 -5 35 -11 7 -20
19 -20 27 0 8 -7 23 -17 33 -24 26 -9 33 19 8 12 -11 30 -27 39 -35 17 -16 33
-20 25 -7 -2 4 4 8 15 8 10 0 19 -4 19 -8 0 -4 21 -29 46 -54 31 -32 44 -53
41 -65 -3 -11 0 -19 8 -19 20 0 25 40 9 72 -9 18 -11 28 -4 28 6 0 18 7 27 15
10 10 19 12 27 7 21 -18 71 -2 91 29 l20 30 78 -7 c66 -6 77 -4 77 9 0 25 20
31 40 12 12 -11 26 -15 37 -10 15 6 15 8 3 13 -35 12 -43 72 -11 72 11 0 32 5
48 12 15 6 36 10 46 9 9 -1 17 1 17 4 0 11 -44 44 -57 45 -15 0 -17 16 -3 25
16 10 12 21 -12 32 -14 6 -23 19 -23 34 0 18 -6 24 -21 24 -24 0 -54 22 -54
40 0 7 7 18 15 25 8 7 15 20 15 30 0 10 -7 23 -15 30 -8 7 -15 23 -15 36 0 14
-8 25 -20 29 -22 7 -27 40 -7 48 9 4 8 8 -3 16 -10 7 -17 7 -21 -1 -5 -7 -9
-7 -13 1 -4 6 0 22 9 35 9 14 14 29 11 35 -3 5 -2 11 4 13 5 1 14 18 19 36 9
29 6 36 -29 77 -21 24 -44 61 -50 82 -7 21 -17 44 -23 51 -17 22 -98 73 -107
67 -5 -3 -11 -1 -15 5 -3 5 -1 10 5 10 7 0 10 6 7 13 -2 6 -9 11 -15 10 -18
-4 -72 50 -72 72 0 12 -15 33 -35 50 -23 17 -34 34 -30 43 3 8 0 21 -6 28 -8
10 -9 18 0 27 8 11 6 18 -9 32 -11 10 -20 26 -20 35 0 11 -11 20 -30 24 -26 5
-30 10 -28 33 1 16 -2 39 -6 51 -7 21 -5 23 11 18 17 -6 19 -1 17 56 -3 93 -2
90 -24 83 -11 -3 -28 -2 -37 4 -10 6 -13 11 -8 11 6 0 3 5 -5 10 -11 7 -11 10
-2 10 10 0 10 5 2 20 -8 15 -15 18 -28 12 -18 -10 -118 -4 -142 8 -32 16 -64
-14 -46 -43 9 -15 7 -21 -7 -32 -13 -9 -16 -20 -12 -38 5 -20 -2 -32 -47 -71
-29 -25 -56 -46 -60 -46 -4 0 -4 -8 -1 -17 5 -12 2 -15 -10 -10 -13 5 -17 1
-17 -14 0 -14 -5 -19 -13 -16 -10 4 -13 -2 -9 -18 3 -20 1 -23 -19 -19 -43 10
-69 27 -69 46 0 12 7 18 21 18 17 0 20 5 16 21 -8 29 2 49 23 49 10 0 23 7 30
15 20 25 -19 71 -55 67 -26 -3 -27 -1 -22 26 5 23 2 31 -11 36 -26 8 -82 42
-106 64 -24 21 -109 64 -122 61 -18 -4 -46 15 -55 37 -6 16 -16 24 -33 24 -19
0 -29 11 -50 55 -14 30 -23 61 -20 69 3 8 -11 29 -35 51 -22 21 -38 42 -35 47
3 5 -4 20 -16 33 -20 21 -21 26 -8 44 8 12 18 18 23 13 4 -4 6 0 3 8 -3 8 2
20 10 26 14 10 13 13 -6 23 -12 6 -22 8 -22 4 0 -11 -57 -36 -72 -31 -7 3 -24
-6 -38 -19 -14 -13 -30 -23 -36 -23 -22 0 -52 46 -59 90 -4 25 -14 55 -22 68
-8 13 -16 34 -17 46 -4 35 -35 68 -90 96 -28 14 -61 41 -75 62 -14 21 -34 37
-44 38 -15 0 -16 3 -6 21 6 12 8 30 6 41 -3 11 0 21 9 25 12 4 12 8 2 20 -10
12 -9 18 5 28 21 15 22 64 2 91 -18 24 -18 29 1 48 20 20 9 56 -16 56 -10 0
-21 4 -25 10 -3 5 -21 8 -40 6 -23 -1 -36 3 -40 12 -7 20 2 27 17 14 16 -13
45 5 50 32 2 13 -7 24 -29 35 -22 11 -31 21 -27 32 2 9 -2 22 -11 29 -18 15
-19 42 -3 58 10 10 6 19 -17 42 -77 76 -78 76 -66 99 7 12 8 21 2 21 -10 0
-27 39 -23 54 2 5 -6 18 -17 30 -27 28 -23 119 8 196 13 30 27 65 32 78 5 12
13 22 18 22 5 0 7 9 4 21 -4 15 0 22 16 26 15 4 21 13 21 33 0 16 7 30 15 34
9 3 24 25 34 50 11 24 24 47 30 50 21 13 62 110 56 133 -5 23 11 58 48 100 11
13 23 39 26 60 5 32 13 41 54 62 34 18 46 30 41 41 -3 8 -9 34 -11 58 -5 34
-3 42 10 42 17 0 53 57 43 68 -3 3 -6 2 -6 -2 0 -4 -12 0 -27 8 -16 8 -36 17
-45 20 -10 3 -18 14 -18 24 0 23 -19 42 -42 42 -16 0 -24 23 -19 53 1 5 -26
35 -59 68 -33 32 -60 66 -60 75 0 10 -18 32 -40 51 -22 19 -40 40 -40 46 -1 7
-27 32 -59 57 -32 25 -57 49 -54 53 3 5 -13 26 -36 47 -23 22 -41 49 -41 60 0
32 -94 125 -169 167 -36 20 -71 43 -77 51 -10 13 -42 20 -119 25 -21 1 -35 11
-48 30 -9 16 -33 35 -52 43 -19 8 -35 19 -35 24 0 6 -18 28 -40 51 -21 22 -42
49 -45 60 -4 10 -13 19 -22 19 -16 0 -20 3 -117 94 -43 41 -57 61 -53 75 3 11
-2 26 -10 32 -11 10 -11 14 -1 20 7 4 10 9 8 11 -3 2 -19 13 -37 26 -18 12
-41 22 -51 22 -10 0 -29 16 -43 37 -36 55 -71 76 -134 81 l-55 4 -14 47 c-9
31 -19 46 -30 45 -10 -1 -16 6 -16 18 0 10 -4 17 -10 13 -5 -3 -18 3 -30 15
-15 15 -33 20 -70 20 -44 0 -50 -3 -50 -21 0 -16 -4 -19 -20 -14 -12 4 -26 2
-33 -3 -23 -18 -75 -22 -88 -6 -6 8 -25 14 -43 12 -40 -2 -59 9 -88 52 -14 20
-34 36 -47 38 -14 2 -32 14 -42 25 l-18 22 -1 -27z m2933 -4704 c3 -3 3 -13 0
-21 -5 -12 -7 -12 -14 -1 -15 23 -4 40 14 22z"/>
<path d="M12629 6105 c0 -6 -2 -18 -4 -27 -2 -10 1 -18 6 -18 15 0 23 30 10
43 -6 6 -11 7 -12 2z"/>
<path d="M12717 6073 c-10 -9 -9 -23 2 -23 5 0 11 7 15 15 5 15 -5 20 -17 8z"/>
</g>
</svg>
