<?xml version="1.0" standalone="no"?>
<!DOCTYPE svg PUBLIC "-//W3C//DTD SVG 20010904//EN"
 "http://www.w3.org/TR/2001/REC-SVG-20010904/DTD/svg10.dtd">
<svg version="1.0" xmlns="http://www.w3.org/2000/svg"
 width="688.826777pt" height="887.834982pt" viewBox="0 0 688.826777 887.834982"
 preserveAspectRatio="xMidYMid meet">
<metadata>
Created by potrace 1.15, written by Peter Selinger 2001-2017
</metadata>
<g transform="translate(-722.173223,1415.034205) scale(0.100000,-0.100000)"
fill="#222222" stroke="none">
<path d="M11413 14134 c-10 -22 -9 -26 11 -34 13 -5 26 -16 30 -25 3 -9 11
-13 17 -9 8 5 6 10 -5 16 -9 5 -16 19 -16 32 0 37 -23 49 -37 20z"/>
<path d="M11603 14106 c4 -10 2 -36 -5 -58 -9 -30 -9 -41 0 -47 15 -9 -7 -61
-26 -61 -7 0 -34 12 -58 26 -34 20 -43 31 -39 44 3 10 0 22 -6 26 -9 5 -10 2
-6 -10 4 -11 1 -19 -9 -23 -18 -7 -48 -71 -58 -125 -4 -21 -12 -38 -17 -38 -7
0 -8 -12 -4 -30 6 -27 3 -32 -22 -43 -32 -13 -32 -31 0 -79 10 -15 22 -53 26
-84 7 -49 5 -60 -11 -76 -14 -14 -18 -27 -14 -44 4 -13 3 -24 -1 -23 -24 4
-63 -2 -63 -10 0 -4 14 -22 30 -40 17 -17 33 -45 37 -61 4 -22 11 -30 27 -30
12 0 31 -7 42 -15 31 -23 42 -18 63 30 13 29 25 43 34 40 7 -3 25 4 40 15 26
20 26 23 12 51 -15 27 -14 29 5 29 11 0 20 6 20 13 0 17 65 88 74 80 3 -3 6 1
6 10 0 10 8 17 17 17 13 0 14 3 5 12 -7 7 -12 22 -12 35 0 22 3 23 51 19 45
-4 50 -3 43 12 -10 22 -6 80 11 162 6 29 -15 57 -58 79 -21 11 -27 21 -25 40
1 15 -2 32 -6 40 -5 8 -4 16 4 21 21 13 4 60 -22 60 -11 0 -37 12 -56 27 -28
21 -34 23 -29 9z m-83 -200 c0 -3 -4 -8 -10 -11 -5 -3 -10 -1 -10 4 0 6 5 11
10 11 6 0 10 -2 10 -4z"/>
<path d="M9770 14090 c0 -6 7 -10 15 -10 8 0 15 2 15 4 0 2 -7 6 -15 10 -8 3
-15 1 -15 -4z"/>
<path d="M9820 14076 c0 -3 17 -14 38 -23 25 -12 38 -26 40 -42 2 -15 7 -20
11 -13 4 8 12 -1 21 -23 8 -19 20 -35 27 -35 7 0 13 -4 13 -10 0 -5 11 -10 25
-10 14 0 29 -8 35 -20 8 -16 8 -20 -3 -20 -10 0 -14 -11 -13 -37 1 -21 -2 -44
-7 -51 -7 -9 -5 -11 7 -6 10 4 15 13 12 21 -4 9 2 17 15 20 18 5 20 12 17 48
-1 24 0 41 5 38 4 -2 7 -11 7 -19 0 -8 6 -17 13 -20 9 -3 13 -25 12 -67 0 -34
4 -70 9 -79 6 -13 4 -18 -7 -18 -8 0 -17 -13 -21 -30 -3 -17 -10 -29 -15 -28
-5 2 -8 -1 -8 -7 1 -5 7 -9 13 -7 14 3 29 -31 15 -36 -12 -4 -3 -32 10 -32 5
0 21 13 35 30 15 16 30 27 35 25 4 -3 7 -25 7 -50 0 -32 -4 -45 -14 -45 -8 0
-14 -10 -14 -25 0 -14 -6 -41 -14 -60 -8 -18 -11 -37 -8 -41 4 -5 0 -3 -10 4
-11 9 -18 10 -23 2 -3 -6 -12 -7 -18 -3 -8 4 -7 1 1 -9 11 -14 10 -19 -9 -32
-21 -14 -22 -17 -6 -34 15 -16 15 -21 2 -38 -8 -10 -15 -27 -15 -36 0 -9 -9
-20 -21 -23 -17 -6 -18 -9 -7 -22 6 -8 13 -22 14 -31 3 -20 25 -33 46 -26 10
3 28 -2 40 -10 25 -18 123 -22 133 -6 7 11 80 6 118 -9 15 -6 39 -13 52 -15
14 -3 33 -7 43 -10 21 -7 58 27 48 43 -3 5 -1 11 5 13 9 3 9 9 0 25 -15 30
-14 43 5 43 12 0 15 6 11 21 -5 19 -2 21 25 17 l30 -5 -5 54 c-5 51 -4 55 20
64 20 7 23 12 14 23 -9 10 -9 16 -1 21 6 4 9 14 6 23 -7 24 18 54 38 46 9 -3
16 -15 16 -26 0 -14 5 -18 15 -14 17 6 105 -29 105 -41 0 -5 13 -14 29 -20 25
-9 31 -8 34 6 2 9 -3 24 -11 33 -14 17 -12 18 40 14 45 -4 58 -1 71 15 9 10
28 19 41 19 13 0 26 7 30 15 3 8 12 15 19 15 9 0 13 8 10 23 -4 21 -2 22 35
19 31 -3 45 1 61 17 27 27 27 51 -1 52 -13 1 -30 2 -39 3 -9 1 -26 9 -37 19
-13 12 -28 16 -41 12 -11 -3 -34 1 -52 10 -34 18 -128 16 -151 -3 -18 -14 -72
-8 -102 11 -13 9 -44 19 -68 23 -24 4 -57 17 -75 30 -36 27 -107 33 -116 10
-3 -8 -24 -17 -46 -21 -27 -4 -38 -11 -35 -20 3 -7 0 -16 -5 -20 -6 -3 -9 -10
-6 -15 3 -5 1 -11 -4 -15 -6 -3 -8 -12 -5 -19 3 -8 0 -17 -6 -21 -17 -10 -39
13 -33 35 3 11 1 20 -3 21 -44 4 -55 8 -71 28 -20 24 -122 47 -124 27 0 -6 -5
3 -10 19 -7 23 -5 38 8 63 15 28 16 34 4 42 -17 10 -25 50 -11 50 6 0 10 9 10
20 0 21 -15 27 -25 9 -5 -6 -17 -1 -34 14 -68 65 -95 87 -102 87 -5 0 -9 6 -9
13 0 6 -14 18 -30 25 -32 14 -110 27 -110 18z"/>
<path d="M9660 14000 c0 -5 6 -7 14 -4 8 3 17 1 20 -5 4 -6 13 -8 21 -5 8 4
12 10 9 15 -7 12 -64 12 -64 -1z"/>
<path d="M9865 14000 c-3 -5 -16 -9 -29 -8 -12 1 -39 -8 -59 -21 -36 -22 -41
-41 -10 -41 9 0 13 -6 9 -15 -4 -10 1 -15 14 -15 11 0 20 6 20 14 0 19 31 29
63 21 33 -9 41 8 22 45 -17 33 -21 35 -30 20z"/>
<path d="M10045 13780 c-3 -5 -1 -10 4 -10 6 0 11 5 11 10 0 6 -2 10 -4 10 -3
0 -8 -4 -11 -10z"/>
<path d="M11961 13664 c0 -11 3 -14 6 -6 3 7 2 16 -1 19 -3 4 -6 -2 -5 -13z"/>
<path d="M11945 13630 c3 -5 8 -10 11 -10 2 0 4 5 4 10 0 6 -5 10 -11 10 -5 0
-7 -4 -4 -10z"/>
<path d="M11895 13601 c-11 -18 67 -66 92 -57 12 5 13 9 3 21 -7 8 -18 15 -24
15 -6 0 -23 7 -38 14 -15 8 -30 11 -33 7z"/>
<path d="M11757 13594 c-3 -3 -3 -13 1 -22 5 -14 3 -15 -9 -5 -8 7 -20 8 -28
4 -8 -5 -9 -11 -3 -15 17 -10 1 -56 -19 -56 -11 0 -19 -4 -19 -10 0 -5 -7 -10
-15 -10 -8 0 -15 -9 -15 -19 0 -11 -5 -23 -10 -26 -6 -4 -7 -11 -4 -17 5 -7 2
-9 -8 -6 -8 4 -19 -2 -26 -12 -9 -14 -8 -19 3 -24 20 -7 19 -26 0 -26 -8 0
-15 -7 -15 -15 0 -8 -7 -15 -16 -15 -8 0 -13 -4 -9 -9 3 -5 1 -12 -5 -16 -5
-3 -10 -15 -10 -26 0 -10 -6 -19 -12 -19 -9 0 -14 -27 -15 -97 -3 -108 11
-168 37 -157 8 3 30 8 49 11 31 6 33 5 26 -17 -6 -20 -5 -21 8 -9 8 8 12 18 9
23 -3 5 0 6 6 2 7 -4 12 -13 12 -20 0 -8 12 -16 28 -18 15 -3 36 -8 47 -12 19
-7 19 -7 2 7 -17 14 -19 40 -3 65 6 10 1 12 -21 9 -16 -2 -32 2 -38 9 -12 16
-55 7 -55 -11 0 -8 -8 -11 -19 -8 -12 3 -18 14 -18 31 0 15 -3 35 -7 45 -6 12
-4 17 8 17 32 0 51 33 52 90 3 118 2 114 43 133 21 9 46 15 55 11 9 -3 16 -2
16 3 0 5 23 16 50 23 52 14 90 43 71 54 -6 4 -4 16 5 34 18 34 17 41 -1 87
-12 28 -19 34 -29 26 -7 -6 -15 -8 -19 -5 -3 3 -3 -4 0 -16 5 -20 4 -21 -15
-11 -12 6 -26 20 -32 31 -11 20 -22 25 -33 14z"/>
<path d="M9635 13396 c-13 -7 -19 -19 -17 -33 2 -13 -1 -23 -7 -23 -6 0 -11
-6 -11 -14 0 -16 -21 -26 -55 -26 -14 0 -29 -9 -35 -20 -6 -11 -18 -20 -26
-20 -13 0 -15 -8 -10 -46 4 -38 3 -44 -9 -34 -8 7 -15 7 -19 1 -7 -11 -76 -3
-90 10 -5 4 -21 0 -35 -10 -26 -19 -27 -18 -84 9 -35 16 -67 25 -82 22 -16 -3
-33 2 -45 13 -19 18 -20 17 -20 -14 0 -19 -6 -34 -15 -37 -10 -4 -13 -14 -9
-30 5 -20 2 -24 -16 -24 -11 0 -19 -4 -16 -9 3 -5 -1 -14 -9 -21 -21 -17 -19
-42 6 -69 20 -21 20 -26 9 -61 -7 -21 -9 -43 -6 -49 4 -6 -1 -22 -10 -36 -12
-18 -15 -36 -10 -64 5 -34 3 -41 -21 -57 l-27 -17 22 -10 c27 -12 29 -34 2
-42 -25 -8 -26 -23 -2 -32 9 -4 23 -13 30 -20 7 -7 21 -13 31 -13 18 0 61 35
61 50 0 17 77 3 99 -19 11 -11 26 -21 31 -21 6 0 10 -9 10 -20 0 -11 -5 -19
-11 -17 -6 1 -14 -5 -17 -13 -4 -11 1 -10 23 4 15 10 24 12 20 5 -6 -9 -3 -10
10 -5 15 5 16 4 5 -9 -7 -9 -10 -18 -7 -22 4 -3 2 -12 -4 -20 -6 -7 -8 -13 -4
-13 4 0 2 -6 -4 -14 -15 -17 -24 -126 -12 -126 5 0 5 -16 0 -37 -4 -21 -11
-59 -14 -85 -5 -39 -10 -47 -33 -54 -15 -4 -31 -6 -35 -5 -5 1 -1 -9 7 -21 23
-32 21 -37 -20 -54 -31 -13 -35 -18 -30 -40 5 -19 4 -24 -6 -18 -9 5 -8 2 1
-10 12 -14 12 -19 1 -26 -12 -8 -11 -24 5 -77 6 -18 1 -26 -24 -41 -30 -18
-30 -19 -12 -39 12 -12 19 -35 20 -59 0 -21 0 -48 1 -59 2 -34 -12 -79 -29
-92 -12 -9 -13 -14 -4 -24 6 -6 9 -17 6 -24 -8 -22 26 -64 55 -67 20 -2 27 -9
28 -26 1 -13 13 -35 28 -51 14 -15 26 -37 26 -49 0 -22 -1 -22 -25 -6 -23 15
-26 15 -41 0 -15 -15 -15 -19 -1 -34 16 -19 7 -62 -14 -62 -7 0 -9 3 -6 7 4 3
-2 13 -14 21 -15 10 -19 21 -15 38 3 12 2 25 -3 29 -6 3 -7 28 -4 55 4 39 3
50 -8 50 -8 0 -21 14 -28 32 -17 38 -56 76 -91 90 -15 6 -20 12 -13 16 14 9
15 142 1 158 -5 7 -16 10 -26 7 -30 -7 -101 25 -133 62 -26 30 -37 35 -74 35
-54 0 -119 26 -112 45 9 21 -4 25 -29 8 -21 -14 -24 -14 -30 0 -4 13 -11 14
-37 5 -18 -6 -35 -17 -39 -23 -11 -18 -97 -6 -132 18 -26 19 -29 19 -38 3 -11
-19 -28 -12 -28 11 0 8 -10 28 -21 45 -17 24 -26 28 -46 23 -16 -4 -22 -2 -18
5 6 9 -11 28 -63 72 -34 28 -59 38 -95 38 -24 0 -37 6 -41 17 -6 14 -9 15 -15
4 -7 -10 -13 -11 -30 -2 -11 7 -21 16 -21 21 0 6 -8 10 -17 10 -9 0 -29 12
-44 26 -29 27 -69 27 -69 -2 0 -8 -9 -14 -20 -14 -11 0 -20 -4 -20 -10 0 -5
-7 -7 -15 -4 -12 5 -15 -3 -15 -35 0 -23 -4 -41 -10 -41 -5 0 -10 -7 -10 -15
0 -13 -19 -20 -44 -16 -4 1 -15 -4 -23 -11 -11 -9 -16 -9 -23 1 -9 15 -75 7
-97 -11 -7 -5 -22 -8 -35 -6 -17 2 -22 8 -20 23 2 11 5 25 5 30 1 6 -6 9 -16
7 -10 -2 -25 2 -33 9 -11 9 -14 8 -14 -9 0 -11 -7 -25 -15 -32 -8 -7 -15 -19
-15 -26 0 -8 -5 -14 -10 -14 -7 0 -5 -10 3 -26 17 -33 5 -65 -32 -82 -34 -16
-39 -15 -43 10 -2 12 -9 23 -16 26 -7 2 -10 -2 -7 -10 3 -8 -7 -18 -25 -26
-25 -11 -30 -19 -28 -44 1 -16 6 -32 11 -35 4 -2 5 -13 2 -22 -4 -12 2 -21 19
-29 21 -9 24 -9 19 4 -5 14 -3 14 16 3 24 -16 24 -16 10 -57 -7 -20 -15 -29
-25 -25 -9 3 -14 -1 -14 -11 0 -9 -7 -19 -15 -22 -8 -4 -15 -15 -15 -26 0 -14
5 -18 16 -14 10 4 13 2 7 -7 -4 -6 -9 -22 -10 -33 -3 -18 1 -20 20 -17 19 4
26 -1 37 -26 7 -17 19 -31 27 -31 14 0 17 6 27 53 4 15 11 27 17 27 6 0 8 -9
4 -19 -3 -11 -1 -22 5 -26 18 -11 12 -66 -9 -72 -12 -3 -17 -11 -14 -23 6 -23
-42 -69 -72 -70 -15 0 -17 -2 -6 -9 7 -5 11 -14 7 -19 -7 -11 8 -45 31 -69 15
-17 23 -16 23 2 0 17 14 19 39 6 10 -6 23 -6 32 -1 12 8 12 13 0 31 l-13 22
37 -22 c32 -19 39 -20 49 -7 9 13 17 12 54 -6 41 -20 72 -18 42 3 -11 7 -7 9
15 7 23 -2 30 -8 30 -25 0 -11 3 -24 7 -28 4 -4 4 -13 2 -20 -5 -12 23 -28 51
-29 6 -1 19 -6 30 -12 28 -16 69 -23 142 -26 59 -2 63 0 95 32 31 33 36 35
103 35 61 0 70 2 69 18 -2 15 4 17 39 13 43 -6 57 -18 57 -53 0 -13 5 -23 10
-23 6 0 10 -5 10 -11 0 -7 13 -25 30 -40 26 -25 53 -35 82 -30 4 0 24 -8 44
-19 41 -23 74 -18 74 11 0 21 15 23 73 10 31 -8 37 -6 37 8 1 13 4 12 19 -6
11 -13 26 -23 34 -23 8 0 20 -7 27 -16 26 -30 51 -37 65 -17 12 16 15 17 32 1
25 -22 83 -34 83 -16 1 9 5 7 14 -4 17 -23 76 -25 76 -3 0 14 3 14 24 -1 33
-21 60 -24 66 -8 4 10 14 7 38 -13 21 -16 31 -31 27 -40 -4 -11 0 -14 13 -11
11 3 27 1 36 -4 11 -6 16 -5 16 3 0 7 7 8 18 4 17 -7 40 -13 56 -14 5 -1 2 -8
-5 -17 -11 -14 -11 -18 2 -28 10 -7 18 -36 23 -80 6 -61 5 -70 -12 -82 -13 -9
-18 -21 -15 -38 4 -17 -1 -27 -15 -35 -21 -11 -28 -64 -12 -86 7 -10 10 -29
11 -72 1 -13 7 -23 14 -23 19 0 36 -25 29 -44 -4 -12 -11 -13 -24 -6 -13 7
-20 6 -24 -5 -3 -8 -12 -15 -19 -15 -18 0 -10 -95 10 -127 8 -11 16 -41 18
-65 2 -23 11 -60 20 -82 16 -37 15 -39 -5 -61 l-21 -22 28 -11 c15 -6 44 -14
63 -17 65 -12 70 -15 69 -43 0 -15 2 -38 6 -52 4 -14 3 -20 -2 -13 -12 17 -63
28 -63 13 0 -6 -5 -8 -10 -5 -6 4 -18 1 -27 -6 -13 -11 -18 -10 -32 8 -10 11
-32 24 -49 28 -32 7 -45 36 -22 50 7 4 5 14 -5 28 -15 21 -21 47 -8 34 3 -4
12 5 20 19 15 31 17 48 3 39 -5 -3 -7 0 -4 8 3 8 -2 20 -11 27 -8 7 -15 16
-15 21 0 11 -37 49 -48 49 -5 0 -17 19 -28 41 -10 23 -30 54 -44 68 -16 16
-29 43 -33 69 -4 23 -13 42 -19 42 -9 0 -9 3 -1 11 8 8 8 20 3 34 -5 13 -6 26
-2 30 4 4 -5 5 -21 1 -32 -8 -55 3 -107 50 -23 21 -41 31 -45 24 -9 -15 -82
-13 -88 3 -3 8 -28 23 -56 35 l-51 21 5 -36 c2 -19 11 -40 20 -47 16 -12 17
-89 1 -115 -6 -9 -5 -12 1 -8 6 4 16 0 22 -7 10 -12 5 -13 -31 -9 -42 4 -43 4
-22 -14 34 -30 25 -63 -24 -88 -24 -12 -44 -26 -45 -31 -1 -15 -25 -34 -41
-34 -10 0 -16 -9 -16 -25 0 -14 -4 -25 -10 -25 -13 0 -30 -69 -25 -105 2 -16
1 -38 -1 -47 -5 -16 -7 -16 -28 -3 -21 14 -25 14 -36 0 -7 -8 -13 -27 -14 -42
-1 -16 -5 -34 -10 -42 -6 -9 -4 -18 7 -26 16 -11 11 -31 -9 -37 -12 -3 -84 85
-84 102 0 26 -31 58 -51 53 -15 -4 -22 0 -26 15 -7 27 -32 35 -78 26 -22 -4
-41 -2 -49 5 -10 8 -16 9 -21 1 -3 -6 -10 -8 -15 -5 -4 3 -28 -4 -53 -14 -42
-18 -50 -18 -98 -6 -29 8 -56 11 -59 6 -3 -4 -32 -5 -65 -1 -33 4 -69 4 -80 0
-64 -23 -97 -30 -146 -30 -83 0 -96 -6 -91 -41 3 -21 -1 -34 -13 -43 -21 -15
-14 -46 10 -46 8 0 15 -7 15 -15 0 -8 -4 -15 -10 -15 -5 0 -7 -7 -4 -15 4 -10
0 -15 -15 -15 -27 0 -28 -33 -1 -60 20 -20 27 -56 12 -62 -5 -1 -12 -18 -15
-36 -6 -28 -1 -38 29 -72 19 -21 39 -52 43 -67 l8 -28 16 38 c9 20 23 37 31
37 9 0 16 8 16 18 0 9 4 23 9 31 7 10 14 3 29 -29 21 -47 19 -75 -6 -65 -12 4
-13 3 -2 -10 7 -8 20 -15 30 -15 9 0 25 -9 34 -19 9 -10 25 -17 35 -14 9 2 23
-3 30 -11 19 -23 31 -20 31 9 0 29 10 31 50 10 26 -13 30 -13 30 -1 0 8 16 23
36 35 42 25 45 26 38 6 -4 -8 -10 -12 -15 -9 -5 3 -9 -4 -9 -15 0 -12 -4 -21
-8 -21 -14 0 -33 -48 -22 -55 16 -10 11 -25 -8 -25 -30 0 -60 -41 -64 -85 -2
-32 -7 -39 -20 -37 -11 2 -18 -3 -18 -13 0 -8 -4 -15 -10 -15 -5 0 -10 -6 -10
-13 0 -16 -33 -49 -46 -46 -14 3 -64 -12 -64 -20 0 -4 -13 -14 -29 -24 -25
-15 -30 -15 -41 -2 -7 8 -19 15 -26 15 -8 0 -14 7 -14 15 0 8 5 15 10 15 17 0
11 14 -18 45 -16 17 -27 35 -25 42 2 6 -13 27 -34 47 -30 29 -35 38 -24 45 8
5 20 7 28 4 7 -3 13 2 13 11 0 9 8 16 20 16 11 0 20 7 20 15 0 10 -11 15 -35
15 -19 0 -35 5 -35 10 0 6 -4 10 -8 10 -10 0 -9 -30 1 -47 5 -7 -1 -21 -13
-33 -18 -18 -26 -20 -51 -11 -25 9 -29 8 -29 -8 0 -11 7 -21 15 -25 20 -7 19
-26 -1 -26 -13 0 -14 -3 -4 -15 6 -8 9 -19 5 -25 -3 -5 2 -10 14 -10 14 0 21
8 24 28 4 25 5 26 12 5 4 -12 13 -24 21 -27 8 -3 14 -18 14 -34 0 -31 52 -107
73 -107 7 0 15 -24 20 -54 4 -30 14 -63 23 -72 21 -23 27 -189 7 -189 -18 0
-16 -9 6 -52 11 -19 17 -38 14 -41 -3 -3 4 -19 16 -35 17 -25 48 -42 82 -46 4
-1 20 -16 37 -33 33 -36 40 -38 92 -23 26 7 39 6 57 -5 33 -22 42 -19 57 17
l14 32 23 -45 c33 -63 49 -110 47 -139 -3 -35 38 -89 63 -83 13 4 19 0 19 -10
0 -8 6 -18 13 -21 9 -3 8 -8 -5 -18 -15 -13 -13 -17 17 -45 21 -20 35 -28 38
-20 3 9 9 8 23 -4 27 -23 80 -31 94 -14 6 7 25 17 41 20 24 6 27 9 19 25 -9
17 -7 18 21 10 18 -5 35 -7 39 -5 15 9 19 -39 5 -65 -8 -15 -11 -30 -8 -34 4
-3 -1 -6 -10 -6 -23 0 -34 -86 -14 -117 5 -7 6 -13 2 -13 -3 0 -1 -8 4 -18 10
-19 -2 -46 -37 -81 -12 -12 -15 -12 -23 0 -5 8 -9 23 -9 35 0 22 -32 58 -42
48 -4 -3 -15 -1 -26 5 -18 9 -19 7 -14 -22 13 -84 3 -109 -39 -100 -29 6 -32
4 -24 -13 13 -32 18 -67 9 -61 -5 3 -18 -1 -28 -8 -26 -19 -14 -49 17 -41 37
9 71 -15 77 -54 4 -30 9 -35 33 -35 20 1 27 -4 27 -19 0 -19 47 -97 63 -104 4
-2 7 -12 7 -23 0 -12 9 -21 28 -25 66 -15 80 -26 87 -71 12 -79 67 -116 92
-61 7 16 2 27 -24 55 -36 38 -42 56 -15 46 14 -6 15 -4 4 9 -9 11 -10 27 -4
54 10 45 6 64 -14 64 -8 0 -14 6 -14 13 -1 13 -66 47 -92 47 -9 0 -18 7 -22
15 -3 8 0 15 6 15 7 0 7 4 -1 13 -6 8 -8 17 -4 20 3 4 -4 7 -16 7 -14 0 -20 4
-15 11 4 7 8 28 10 48 3 28 -3 42 -24 64 -20 21 -24 30 -13 36 7 5 12 12 11
17 -1 5 3 10 9 12 6 2 11 -5 11 -16 0 -35 11 -52 35 -52 12 0 28 7 35 15 27
32 122 7 135 -36 4 -12 19 -32 34 -45 21 -18 34 -22 66 -18 25 3 49 -1 65 -10
14 -8 44 -24 68 -35 32 -15 42 -26 42 -44 0 -42 60 -83 86 -57 13 13 60 -13
55 -31 -9 -34 -1 -80 18 -105 12 -15 21 -32 21 -39 0 -13 24 -27 46 -29 26 -2
94 -77 94 -102 0 -14 8 -38 19 -52 10 -15 22 -46 26 -69 3 -23 13 -47 20 -53
8 -6 11 -18 8 -26 -4 -11 5 -14 41 -14 26 0 62 -6 80 -14 18 -8 44 -12 58 -9
18 3 38 -4 68 -26 24 -17 54 -31 67 -31 23 0 63 -31 63 -50 0 -6 -6 -19 -12
-30 -9 -14 -10 -23 -3 -28 6 -4 21 -21 33 -39 17 -25 20 -37 13 -56 -7 -17 -6
-30 3 -43 7 -11 16 -32 20 -49 3 -16 8 -34 9 -40 2 -5 36 -44 76 -85 40 -41
80 -88 88 -105 9 -16 20 -33 26 -36 6 -4 4 -23 -6 -50 -58 -169 -60 -179 -45
-197 9 -9 18 -44 21 -76 3 -32 11 -64 16 -69 20 -20 11 -27 -30 -27 -36 0 -40
-2 -29 -15 9 -11 15 -12 20 -5 5 7 11 6 19 -4 10 -11 9 -16 -4 -23 -9 -5 -17
-23 -19 -39 -2 -16 -8 -30 -15 -30 -6 -1 -21 -2 -33 -3 -28 -1 -18 -10 15 -13
32 -3 32 -3 7 -35 -16 -20 -18 -29 -8 -40 8 -10 8 -17 0 -25 -15 -15 -16 -55
-2 -63 15 -9 12 -25 -5 -25 -8 0 -15 -7 -15 -16 0 -11 -5 -14 -16 -10 -9 4
-25 4 -35 1 -15 -5 -17 -10 -9 -25 22 -41 2 -61 -37 -37 -16 10 -56 -42 -47
-62 13 -31 16 -69 5 -75 -19 -12 -12 -23 17 -31 40 -11 76 -11 84 0 4 5 15 2
26 -8 16 -15 21 -15 30 -4 7 8 9 17 5 20 -16 17 21 5 47 -15 23 -16 33 -19 42
-10 14 14 48 -2 48 -23 0 -21 32 -35 53 -23 15 8 19 6 23 -10 4 -14 12 -18 29
-14 14 2 24 7 23 11 -3 29 5 51 22 56 15 5 19 12 14 31 -5 18 -2 24 10 24 9 0
16 6 16 13 0 28 22 36 48 19 14 -9 43 -17 65 -17 27 -1 45 -8 57 -22 22 -27
49 -33 82 -16 21 10 33 10 52 2 30 -14 86 7 86 33 0 10 11 19 30 23 26 6 29
10 24 31 -5 20 -2 24 16 24 17 0 21 4 17 20 -3 13 1 21 14 25 24 8 24 21 0 71
-14 27 -16 41 -8 46 8 5 7 12 -4 25 -9 10 -19 26 -22 36 -4 9 -18 22 -32 29
-14 6 -24 16 -22 22 2 6 -7 31 -19 55 -13 24 -21 48 -18 53 3 5 -2 18 -11 29
-10 10 -20 41 -23 69 -4 47 -6 50 -32 50 -29 0 -60 25 -40 32 7 2 7 13 -1 36
-6 18 -9 47 -6 65 2 18 1 42 -4 55 -5 14 -5 22 2 22 6 0 8 9 4 19 -3 11 -1 22
4 26 17 10 -11 45 -37 45 -25 0 -68 25 -94 55 -13 15 -16 31 -13 60 7 52 -3
65 -51 68 -29 2 -39 7 -39 20 0 9 -7 22 -16 29 -19 16 -53 69 -54 83 0 5 -9
11 -19 13 -32 7 -56 43 -50 78 4 20 1 34 -10 43 -9 7 -13 18 -9 24 4 7 -5 8
-25 4 -22 -4 -36 -2 -47 9 -19 20 -20 73 0 80 8 4 15 14 15 24 0 11 5 22 10
25 7 4 5 14 -4 27 -13 18 -12 23 4 40 10 11 23 17 29 13 6 -3 11 1 11 10 0 11
6 14 24 9 16 -4 27 -1 33 10 7 13 15 14 41 7 27 -8 34 -7 43 10 5 11 14 17 20
13 5 -3 17 0 25 7 13 10 17 10 24 -1 5 -8 5 -19 0 -25 -23 -28 18 -77 45 -55
10 8 16 7 23 -7 9 -14 14 -15 34 -6 25 12 88 14 88 2 0 -6 -11 -9 -88 -25 -26
-5 -31 -10 -27 -24 5 -15 2 -17 -17 -13 -13 3 -28 10 -35 15 -8 6 -22 0 -43
-21 -31 -29 -31 -30 -10 -41 16 -8 19 -17 14 -33 -4 -12 -11 -25 -17 -29 -14
-8 38 -22 57 -15 8 3 22 -3 32 -14 9 -10 13 -19 9 -19 -4 0 -1 -8 8 -18 13
-14 14 -21 5 -30 -18 -18 -12 -154 6 -164 8 -4 17 -26 21 -48 6 -36 31 -59 58
-52 4 1 24 4 45 6 49 5 92 23 92 38 0 9 3 9 12 0 7 -7 21 -12 33 -12 15 0 17
2 6 9 -9 6 -10 11 -2 15 6 4 14 0 17 -8 11 -29 24 -16 24 24 0 29 -4 40 -15
40 -8 0 -15 5 -15 11 0 6 -7 9 -15 6 -8 -4 -17 -2 -20 3 -4 6 -1 10 5 10 7 0
1 19 -14 44 -14 25 -26 47 -26 50 0 3 14 6 30 6 17 0 30 5 30 10 0 6 7 10 15
10 9 0 15 10 16 28 1 25 2 32 8 57 3 11 6 37 9 74 2 18 6 22 22 18 18 -5 20
-2 14 28 -5 28 -3 34 16 40 13 4 19 12 16 20 -3 8 3 17 15 20 10 4 19 10 19
15 0 4 16 11 36 15 24 4 38 13 41 26 4 14 14 19 37 19 33 0 86 20 86 32 0 11
80 0 97 -14 27 -22 73 -90 67 -99 -3 -5 2 -12 10 -15 9 -3 16 -10 16 -15 0 -6
18 -29 40 -52 22 -23 38 -47 36 -53 -6 -16 46 -64 68 -64 14 0 16 3 8 13 -12
14 -5 57 8 57 4 0 13 -6 20 -14 6 -8 19 -12 28 -9 13 5 12 2 -4 -19 -10 -14
-34 -32 -52 -39 -39 -15 -58 -34 -43 -43 6 -4 9 -12 7 -19 -1 -7 -1 -9 1 -5 2
4 11 4 19 1 8 -3 14 -1 14 5 0 5 11 13 25 16 14 4 25 13 25 21 0 19 5 19 35
-1 27 -18 77 -20 145 -7 38 7 45 12 44 31 -1 27 22 29 35 3 7 -13 7 -29 0 -50
-9 -25 -8 -36 5 -56 17 -26 36 -33 36 -14 0 5 5 7 10 4 15 -10 12 -35 -5 -35
-8 0 -15 -4 -15 -9 0 -5 7 -14 15 -21 12 -10 15 -10 15 3 0 9 9 21 20 27 20
11 20 11 -6 33 -17 15 -23 28 -19 40 9 21 19 21 48 3 32 -20 87 -30 87 -16 0
7 14 4 36 -10 26 -15 40 -18 47 -11 19 19 58 13 64 -9 3 -11 10 -20 15 -20 14
0 79 -72 71 -79 -3 -3 -8 -1 -10 6 -5 13 -33 6 -33 -7 0 -4 14 -13 31 -19 21
-7 29 -15 26 -26 -4 -8 -2 -17 3 -20 6 -4 10 0 10 8 0 8 7 18 16 21 10 4 14 2
11 -6 -2 -7 -1 -20 4 -29 6 -13 4 -15 -14 -12 -33 5 -51 -10 -39 -33 11 -21 5
-81 -9 -90 -11 -6 -12 -84 -1 -84 4 0 8 -9 9 -20 1 -14 -6 -22 -24 -26 -22 -6
-23 -8 -9 -16 14 -8 15 -12 4 -26 -11 -15 -11 -15 3 -4 9 6 42 14 73 17 53 4
58 2 66 -21 5 -13 14 -24 19 -24 6 0 18 -14 26 -30 9 -17 27 -35 40 -40 14 -5
25 -17 25 -25 0 -12 10 -9 45 15 25 17 49 38 53 48 9 17 5 42 -8 52 -12 9 -42
119 -35 130 3 5 0 10 -8 10 -8 0 -17 7 -21 15 -3 8 -15 15 -27 15 -15 0 -19
-3 -12 -12 5 -7 8 -29 7 -48 -1 -27 -5 -35 -19 -33 -29 2 -48 -23 -35 -46 14
-27 13 -36 -3 -22 -8 6 -17 8 -21 4 -10 -11 -26 19 -20 38 3 11 -3 18 -16 22
-27 7 -51 67 -44 106 4 17 10 29 14 26 4 -2 15 4 25 15 12 13 14 20 6 20 -13
0 -41 24 -41 34 0 3 9 6 19 6 35 0 34 21 -3 59 -20 20 -36 42 -36 48 0 6 -15
24 -32 39 -18 15 -33 32 -34 38 0 6 -6 24 -12 39 -15 35 -15 47 -2 47 16 0 12
18 -10 48 -19 26 -20 50 -5 100 7 22 9 22 32 7 19 -13 27 -14 39 -4 18 15 18
29 0 29 -9 0 -12 8 -8 25 5 27 12 31 29 14 24 -24 28 -2 6 41 -13 25 -23 38
-23 29 0 -10 -10 -15 -34 -16 -26 -1 -37 5 -47 23 -7 13 -16 24 -21 24 -4 0
-8 9 -8 19 0 11 -4 22 -10 26 -11 7 -3 33 17 57 12 13 12 20 1 37 -7 12 -17
21 -23 21 -7 0 -7 3 0 8 29 21 53 90 59 172 4 44 39 115 73 146 l26 24 -22 49
c-26 62 -26 61 5 61 23 0 26 3 22 29 -3 24 -1 27 15 23 16 -4 18 -1 13 16 -6
18 -3 20 29 18 23 -2 35 1 35 10 0 7 10 14 22 16 12 2 23 9 26 15 5 17 -28 29
-37 14 -12 -18 -85 53 -77 74 3 9 -4 38 -16 63 -11 26 -20 51 -19 55 0 4 -6
10 -14 13 -8 4 -15 12 -15 19 0 7 -9 24 -20 38 -25 32 -26 64 -1 72 13 4 17
12 14 26 -4 12 1 25 12 32 14 11 15 19 6 55 -11 41 -20 54 -63 89 -23 18 -48
56 -48 70 0 4 7 -3 16 -16 13 -18 23 -22 48 -18 38 5 56 0 56 -19 0 -17 31
-19 48 -2 9 9 17 6 36 -11 l25 -23 38 19 c21 10 37 24 36 31 -3 14 13 16 22 2
3 -5 15 -10 26 -10 15 0 19 -7 19 -38 0 -21 5 -43 11 -49 7 -7 2 -15 -15 -27
-32 -21 -35 -65 -6 -84 11 -7 20 -23 20 -36 0 -40 18 -40 26 0 3 19 17 46 31
60 24 24 24 61 0 92 -6 8 -12 24 -12 35 -1 12 -9 39 -19 60 -21 47 -18 70 9
75 11 3 24 10 28 18 4 8 19 14 32 14 14 0 25 6 25 13 0 8 9 24 20 37 23 26 25
41 8 58 -9 9 -8 16 5 30 9 10 14 22 10 25 -3 4 9 7 28 7 19 0 40 5 46 11 8 8
17 8 32 0 28 -16 101 7 101 31 0 11 8 18 20 18 11 0 20 7 20 15 0 8 9 19 20
25 11 6 20 18 20 26 0 10 5 12 12 7 20 -11 52 -9 66 5 8 7 19 9 25 5 22 -14
48 -13 53 2 8 21 30 19 53 -4 19 -19 22 -19 61 -4 35 14 43 22 53 60 8 32 17
45 34 49 13 4 23 12 23 20 0 7 9 19 21 27 11 8 21 28 22 43 3 31 6 31 70 21
28 -4 40 -2 43 8 5 11 11 10 34 -7 17 -12 45 -21 69 -22 34 -1 41 3 46 21 3
13 16 25 31 29 16 4 23 12 20 20 -5 14 3 16 64 19 22 1 24 6 27 50 2 27 10 56
18 65 11 13 12 19 3 28 -9 9 -9 12 1 12 17 0 5 78 -15 101 -8 8 -14 35 -14 59
0 24 -3 41 -6 38 -6 -6 -32 6 -76 35 -21 14 -31 16 -47 8 -27 -15 -68 -14 -74
2 -3 6 -11 -3 -17 -21 -10 -25 -17 -32 -31 -29 -11 3 -19 1 -19 -3 0 -4 -21
-15 -47 -24 -37 -13 -48 -13 -54 -4 -6 10 -11 10 -20 1 -9 -9 -18 -9 -40 3
-16 8 -29 18 -29 22 0 4 -14 7 -32 6 -32 -1 -68 21 -68 42 0 7 -17 18 -37 25
-21 6 -42 18 -46 25 -4 8 -16 14 -25 14 -28 0 -42 21 -42 60 0 31 -6 39 -52
70 -28 19 -65 43 -82 52 -17 9 -25 17 -18 18 8 0 0 16 -20 41 -18 22 -42 55
-53 73 -17 27 -25 32 -55 30 -25 -2 -39 3 -51 18 -15 19 -20 20 -46 9 -25 -10
-36 -9 -69 6 -21 10 -42 23 -46 29 -4 6 -22 17 -40 24 -18 6 -43 17 -56 23
-16 8 -26 7 -34 -1 -16 -16 -23 -15 -42 4 -15 14 -16 14 -16 -1 0 -8 7 -18 15
-21 8 -4 15 -13 15 -21 0 -8 10 -23 23 -34 16 -14 17 -17 5 -13 -16 5 -16 3
-6 -26 8 -25 8 -34 -3 -40 -7 -5 -16 -7 -20 -4 -4 2 -10 0 -14 -6 -3 -6 -22
-17 -42 -25 -54 -23 -98 -85 -60 -85 22 0 -17 -20 -40 -20 -15 0 -21 -5 -17
-14 8 -22 -30 -25 -55 -5 -13 11 -29 19 -37 19 -8 0 -21 16 -29 36 -18 45 -18
44 0 44 8 0 15 6 15 14 0 9 -8 12 -27 8 -24 -5 -26 -3 -20 25 5 23 1 35 -13
48 -11 10 -20 26 -20 35 0 25 -42 40 -97 35 -47 -4 -49 -3 -62 28 -18 40 -30
48 -52 36 -20 -10 -52 -2 -44 12 3 4 -3 13 -14 18 -25 14 -44 14 -36 1 8 -13
-3 -13 -18 0 -7 6 -21 18 -32 26 -20 15 -20 15 3 11 17 -4 22 -1 22 14 0 10 5
19 10 19 6 0 10 20 10 44 0 49 6 57 34 46 30 -10 83 28 89 65 2 17 1 32 -4 33
-5 2 -9 19 -9 38 0 19 -7 45 -16 58 -9 15 -11 26 -5 30 5 4 9 23 7 43 -3 36
-35 72 -63 73 -7 0 -13 7 -13 15 0 14 -3 14 -30 0 -16 -8 -36 -15 -45 -15 -9
0 -27 -12 -40 -26 -17 -18 -31 -25 -45 -21 -13 3 -20 0 -20 -9 0 -8 -10 -14
-23 -14 -33 0 -39 9 -18 32 18 18 18 20 0 55 -12 24 -15 39 -9 43 17 10 1 38
-26 44 -28 7 -55 53 -37 64 6 4 7 15 2 27 -4 11 -8 16 -8 10 -1 -5 -6 -3 -11
5 -5 8 -15 15 -22 16 -7 0 -21 2 -30 2 -10 1 -24 17 -31 35 -12 28 -12 34 2
44 9 7 11 13 5 13 -6 0 -17 -7 -24 -15 -13 -16 -35 -21 -25 -6 3 5 0 13 -6 16
-5 4 -8 13 -5 21 3 7 1 16 -4 19 -18 11 -10 23 18 30 19 4 32 15 39 35 6 17 7
30 3 30 -5 0 -21 11 -35 25 -25 26 -33 55 -15 55 16 0 -18 58 -41 71 -11 6
-18 13 -15 17 12 11 -37 52 -70 58 -18 3 -42 17 -55 30 -12 13 -27 24 -32 24
-15 0 -36 33 -37 56 0 11 -5 25 -11 31 -9 9 -8 28 1 76 12 59 12 68 -8 108
-11 24 -23 55 -27 67 -20 68 -58 132 -90 151 -25 14 -38 33 -52 70 -17 48 -20
51 -60 57 -23 3 -50 15 -60 26 -17 19 -17 19 12 13 53 -11 170 -48 181 -57 18
-13 59 7 84 41 12 17 30 31 41 31 10 0 33 14 51 30 28 28 35 30 79 24 43 -6
49 -4 80 26 29 27 31 33 17 41 -23 13 -11 48 19 55 20 5 21 8 9 18 -10 7 -13
16 -7 25 7 11 14 11 40 -2 39 -19 40 -7 3 31 -38 39 -74 47 -92 22 -7 -10 -18
-17 -22 -14 -5 3 -15 1 -22 -5 -9 -8 -21 -4 -46 14 -19 14 -39 25 -46 25 -21
0 -49 54 -49 93 0 41 1 42 72 21 18 -5 21 -3 17 13 -4 14 2 23 21 31 31 14 58
16 50 3 -3 -5 -1 -12 5 -16 5 -3 7 -18 4 -32 -5 -18 -3 -24 5 -19 6 4 11 3 11
-2 0 -5 9 -12 21 -15 12 -3 18 -10 15 -16 -12 -18 27 -46 59 -43 17 2 35 7 40
12 6 4 28 6 50 5 26 -3 46 2 57 11 15 14 18 14 37 -5 12 -12 21 -25 21 -29 0
-5 11 -19 25 -32 25 -23 33 -50 16 -50 -5 0 -7 -9 -4 -19 3 -13 -1 -21 -14
-24 -10 -3 -2 -5 17 -5 19 0 29 2 23 5 -7 2 -13 11 -13 19 0 10 10 12 45 7 36
-5 45 -3 43 8 -2 9 4 13 20 11 29 -4 28 15 -3 40 -29 22 -32 38 -9 38 14 0 15
7 9 46 -6 41 -4 46 15 51 20 5 21 10 15 51 -6 44 -6 45 18 40 19 -4 27 0 31
14 3 13 11 18 23 15 10 -3 28 -8 40 -12 16 -4 23 -1 28 16 6 19 13 21 50 17
38 -5 42 -3 41 16 -1 12 5 21 14 21 9 0 22 7 31 14 13 13 14 19 2 43 -8 15
-20 31 -26 35 -15 10 -32 37 -53 81 -12 28 -19 33 -37 28 -13 -3 -34 1 -48 8
-22 11 -29 11 -45 -1 -15 -11 -17 -17 -6 -33 6 -11 12 -31 12 -46 0 -14 5 -34
10 -45 8 -15 7 -23 -5 -35 -8 -8 -15 -22 -15 -30 0 -8 -4 -14 -8 -14 -5 0 -7
-13 -4 -30 4 -29 3 -30 -37 -30 -22 0 -41 4 -41 9 0 30 22 60 51 70 18 6 30
13 27 16 -3 3 -1 27 4 53 8 47 -2 86 -27 104 -6 5 -6 8 2 8 16 0 12 38 -5 45
-7 3 -12 13 -10 23 2 11 -3 26 -11 35 -12 15 -11 17 3 17 13 0 16 5 11 20 -4
12 -2 20 6 20 9 0 8 4 -1 15 -7 8 -21 15 -31 15 -12 0 -19 7 -19 18 0 11 -14
25 -36 35 -19 10 -32 22 -29 27 3 6 1 10 -5 10 -6 0 -8 -14 -4 -41 6 -36 5
-40 -12 -38 -10 2 -25 0 -31 -4 -7 -4 -21 -3 -32 3 -25 13 -42 13 -18 -1 9 -5
17 -17 17 -24 0 -18 3 -17 -38 -6 -24 7 -32 7 -32 -3 0 -8 -7 -19 -15 -26 -13
-10 -19 -10 -33 4 -10 9 -22 16 -26 16 -4 0 -20 9 -35 19 -37 26 -62 28 -94 7
-27 -18 -28 -18 -43 0 -14 18 -14 17 -3 -6 9 -18 9 -25 0 -28 -6 -2 -17 -9
-24 -16 -7 -7 -17 -11 -23 -9 -14 5 -34 -41 -34 -77 0 -39 -20 -39 -49 1 -16
21 -28 28 -39 24 -37 -16 -80 -22 -95 -14 -11 7 -16 3 -21 -16 -5 -18 -13 -24
-29 -24 -12 1 -36 -3 -53 -9 -26 -8 -38 -6 -62 8 -16 10 -38 19 -48 20 -35 4
-55 0 -50 -9 8 -13 -4 -42 -15 -35 -18 11 -8 -22 12 -39 30 -26 17 -31 -22 -8
-38 21 -76 22 -90 0 -5 -8 -9 -9 -9 -4 0 6 -5 3 -11 -5 -8 -11 -12 -12 -16 -2
-2 6 -13 12 -23 12 -9 0 -23 7 -31 16 -11 14 -13 14 -21 0 -5 -9 -15 -16 -23
-16 -7 0 -35 -9 -61 -20 -26 -11 -49 -19 -51 -16 -9 8 18 46 32 46 8 0 25 10
38 23 24 21 24 24 10 52 -9 17 -23 39 -33 50 -10 11 -20 29 -22 40 -3 20 -74
55 -111 55 -10 0 -27 5 -38 11 -17 9 -18 13 -7 27 10 12 10 14 1 8 -8 -4 -13
-2 -13 8 0 8 4 18 10 21 9 6 -26 66 -43 73 -4 2 -22 16 -39 30 -19 16 -41 25
-55 24 -24 -4 -102 31 -114 50 -9 15 -60 17 -84 4z m1695 -388 c0 -23 -16 -24
-23 0 -2 9 -8 26 -13 37 -7 20 -7 20 14 1 12 -11 22 -27 22 -38z m-260 -47 c0
-6 -4 -13 -10 -16 -5 -3 -10 1 -10 9 0 9 5 16 10 16 6 0 10 -4 10 -9z m-110
-15 c0 -3 -4 -8 -10 -11 -5 -3 -10 -1 -10 4 0 6 5 11 10 11 6 0 10 -2 10 -4z
m-257 -251 c30 -14 59 -25 65 -23 10 3 12 -1 12 -22 0 -13 -59 -3 -107 17 -22
9 -33 20 -33 33 0 25 -1 25 63 -5z m-1410 -43 c-6 -25 -28 -29 -37 -7 -8 21
25 60 36 42 4 -8 4 -23 1 -35z m1993 -73 c16 -17 16 -22 4 -29 -21 -14 -28
-12 -38 8 -10 18 -6 42 7 42 4 0 16 -9 27 -21z m-489 -81 c-3 -8 -6 -5 -6 6
-1 11 2 17 5 13 3 -3 4 -12 1 -19z m-3467 -878 c0 -5 -7 -10 -16 -10 -8 0 -12
5 -9 10 3 6 10 10 16 10 5 0 9 -4 9 -10z m4685 -1690 c3 -5 1 -10 -4 -10 -6 0
-11 5 -11 10 0 6 2 10 4 10 3 0 8 -4 11 -10z m-851 -2547 c17 -20 27 -24 42
-18 10 4 25 7 33 6 8 -1 17 3 21 9 6 9 12 9 28 -1 24 -15 37 -60 15 -52 -9 3
-13 -3 -13 -21 0 -14 -4 -26 -10 -26 -5 0 -10 -6 -10 -14 0 -8 -6 -16 -12 -19
-10 -3 -10 -7 0 -19 21 -26 4 -49 -34 -46 -23 1 -41 -5 -57 -20 -20 -19 -26
-20 -50 -9 -19 9 -28 23 -34 52 -4 22 -7 46 -6 53 0 6 -5 12 -12 12 -7 0 -16
7 -19 16 -12 32 -5 37 21 13 l27 -24 -18 29 c-18 28 -18 29 2 24 16 -4 21 0
25 21 3 14 1 31 -4 38 -7 8 -4 13 8 16 32 8 34 7 57 -20z m306 -61 c0 -5 -11
-15 -25 -22 -21 -11 -23 -15 -10 -22 8 -5 15 -15 15 -22 0 -8 14 -16 31 -20
21 -4 29 -10 26 -20 -3 -7 0 -19 6 -25 8 -8 6 -11 -10 -11 -26 0 -50 -26 -31
-33 8 -4 7 -6 -4 -6 -11 -1 -15 -6 -12 -16 8 -20 -10 -19 -27 1 -7 9 -21 13
-35 10 -27 -7 -48 16 -39 43 8 27 -3 45 -19 32 -9 -7 -19 -6 -35 5 -18 13 -20
19 -10 31 7 8 21 12 31 10 10 -3 21 -1 24 4 3 5 14 9 25 9 10 0 19 4 19 10 0
5 17 18 38 29 44 24 42 23 42 13z m-1085 -62 c3 -5 1 -10 -4 -10 -6 0 -11 5
-11 10 0 6 2 10 4 10 3 0 8 -4 11 -10z m971 -135 c16 -12 17 -16 4 -24 -17
-11 -40 3 -40 25 0 18 11 18 36 -1z m594 -589 c0 -3 -4 -8 -10 -11 -5 -3 -10
-1 -10 4 0 6 5 11 10 11 6 0 10 -2 10 -4z m230 -15 c0 -5 -7 -12 -16 -15 -14
-5 -15 -4 -4 9 14 17 20 19 20 6z"/>
<path d="M11006 13231 c-3 -5 5 -12 19 -15 14 -4 25 -13 25 -20 0 -20 60 -32
71 -15 6 9 3 15 -6 17 -8 2 -15 8 -15 14 0 5 -7 8 -15 4 -8 -3 -15 -1 -15 5 0
6 -6 9 -12 6 -7 -2 -21 0 -30 4 -10 5 -19 5 -22 0z"/>
<path d="M9990 13200 c0 -5 5 -10 10 -10 6 0 10 5 10 10 0 6 -4 10 -10 10 -5
0 -10 -4 -10 -10z"/>
<path d="M11805 13020 c-3 -6 1 -7 9 -4 18 7 21 14 7 14 -6 0 -13 -4 -16 -10z"/>
<path d="M11855 12999 c-11 -17 1 -21 15 -4 8 9 8 15 2 15 -6 0 -14 -5 -17
-11z"/>
<path d="M11790 12993 c0 -5 7 -17 15 -27 15 -20 20 -10 9 18 -6 16 -24 22
-24 9z"/>
<path d="M8970 12631 c-8 -6 -18 -7 -22 -5 -4 3 -8 -1 -8 -9 0 -26 27 -27 39
-1 12 27 12 27 -9 15z"/>
<path d="M8860 12579 c0 -5 5 -7 10 -4 6 3 10 8 10 11 0 2 -4 4 -10 4 -5 0
-10 -5 -10 -11z"/>
<path d="M11000 12510 c0 -5 5 -10 11 -10 5 0 7 5 4 10 -3 6 -8 10 -11 10 -2
0 -4 -4 -4 -10z"/>
<path d="M11493 12364 c-9 -9 -9 -15 -2 -19 6 -4 3 -12 -8 -20 -15 -12 -16
-17 -5 -35 17 -28 7 -41 -22 -30 -21 8 -23 6 -18 -12 4 -17 2 -20 -11 -15 -25
10 -20 -10 6 -28 19 -12 34 -13 83 -5 103 18 107 19 95 34 -6 7 -26 41 -45 76
-34 65 -52 78 -73 54z"/>
<path d="M11755 12260 c3 -5 8 -10 11 -10 2 0 4 5 4 10 0 6 -5 10 -11 10 -5 0
-7 -4 -4 -10z"/>
<path d="M11750 12229 c0 -6 24 -19 36 -19 2 0 4 6 4 14 0 9 -9 14 -20 13 -11
-1 -20 -4 -20 -8z"/>
<path d="M11735 12189 c-6 -17 -12 -20 -38 -15 -45 8 -61 -5 -52 -43 4 -17 12
-31 18 -31 7 0 18 -4 26 -9 12 -8 12 -12 2 -25 -9 -11 -10 -20 -1 -35 14 -27
36 -27 50 -1 6 11 20 20 31 20 24 0 40 38 27 64 -6 10 -8 29 -5 42 2 13 0 21
-4 18 -5 -2 -14 4 -21 16 -16 26 -25 25 -33 -1z"/>
<path d="M11718 11979 c-3 -8 0 -22 6 -32 8 -13 8 -20 -4 -27 -12 -8 -12 -10
2 -15 30 -12 34 -1 17 44 -9 26 -18 38 -21 30z"/>
<path d="M7275 11330 c3 -5 11 -10 16 -10 6 0 7 5 4 10 -3 6 -11 10 -16 10 -6
0 -7 -4 -4 -10z"/>
<path d="M7253 11284 c-16 -24 -12 -54 7 -54 6 0 13 7 16 15 5 11 10 13 19 5
17 -14 36 10 29 37 -8 29 -51 27 -71 -3z"/>
<path d="M13748 10960 c6 -8 16 -38 23 -65 6 -28 18 -62 26 -77 19 -40 7 -103
-22 -116 -27 -13 -47 -70 -38 -112 4 -22 1 -29 -16 -35 -12 -4 -21 -15 -21
-27 0 -14 -5 -18 -15 -14 -8 3 -26 -6 -41 -20 -22 -23 -24 -32 -19 -65 4 -25
3 -39 -4 -39 -6 0 -8 -6 -5 -13 3 -8 -14 -20 -46 -32 -28 -11 -46 -21 -40 -23
5 -2 10 -13 10 -24 0 -14 -5 -18 -15 -15 -16 7 -29 -6 -17 -17 11 -12 10 -60
-2 -68 -8 -5 -7 -8 1 -8 18 0 47 -72 33 -80 -7 -5 -3 -17 13 -36 13 -16 31
-42 40 -59 8 -16 29 -41 46 -55 23 -18 28 -27 19 -37 -8 -10 -8 -17 0 -25 7
-7 12 -22 12 -35 0 -20 -4 -22 -25 -17 -16 4 -25 2 -25 -6 0 -7 -8 -9 -20 -5
-16 5 -19 3 -13 -11 5 -13 3 -16 -10 -11 -18 7 -21 -1 -11 -27 3 -9 17 -16 31
-16 21 0 23 3 17 23 -6 21 -6 22 14 4 11 -10 22 -31 25 -47 5 -23 12 -29 37
-32 28 -3 30 -5 17 -22 -12 -17 -14 -17 -30 -1 -26 26 -20 1 7 -28 15 -17 36
-26 62 -29 36 -3 39 -1 37 20 -2 13 12 54 30 92 24 50 30 73 23 81 -8 8 -5 9
12 4 13 -4 22 -2 22 4 0 6 9 11 20 11 14 0 18 5 13 16 -5 14 -2 16 20 10 16
-4 27 -2 27 4 0 5 15 10 33 10 18 0 50 9 71 20 22 10 43 17 47 14 5 -3 9 0 9
5 0 6 -9 16 -20 23 -24 15 -26 34 -4 46 14 8 14 10 2 15 -12 4 -13 14 -6 54
10 51 11 65 7 130 -2 24 0 46 4 49 4 4 -2 14 -13 21 -11 8 -18 18 -16 22 10
16 -26 51 -52 51 -17 1 -34 10 -45 26 -18 24 -18 25 5 44 13 11 27 19 31 20 5
0 5 9 2 20 -4 12 -1 27 5 35 6 8 9 19 5 25 -4 6 1 22 10 36 12 19 14 32 6 58
-6 23 -5 38 2 45 7 7 7 14 -2 25 -6 7 -11 18 -10 22 4 17 -13 44 -27 44 -7 0
-16 11 -20 25 -4 16 -13 25 -25 25 -10 0 -19 5 -19 10 0 6 -9 10 -19 10 -11 0
-21 9 -25 23 -4 12 -24 36 -47 52 -22 17 -54 44 -71 60 -17 17 -26 23 -20 15z
m31 -1242 c-13 -24 -14 -22 -23 21 -6 34 -6 34 14 16 15 -14 17 -22 9 -37z"/>
<path d="M8567 10838 c7 -57 13 -78 23 -78 6 0 10 7 10 16 0 10 8 15 23 13 27
-2 57 10 57 23 0 6 -10 8 -21 5 -15 -4 -30 3 -51 24 -38 37 -45 37 -41 -3z"/>
<path d="M8680 10840 c0 -5 5 -10 11 -10 5 0 7 5 4 10 -3 6 -8 10 -11 10 -2 0
-4 -4 -4 -10z"/>
<path d="M7509 9593 c-20 -22 -21 -53 -2 -53 8 0 11 5 8 10 -4 6 -1 17 5 25
18 22 7 40 -11 18z"/>
<path d="M8005 7561 c3 -6 -2 -14 -10 -19 -14 -7 -13 -14 10 -58 45 -83 40
-108 -25 -121 -39 -7 -39 -5 4 -83 7 -13 22 -17 60 -15 82 3 86 4 86 20 0 17
16 20 25 5 10 -16 25 -2 18 17 -5 13 -3 13 20 -2 21 -13 27 -26 27 -51 0 -19
5 -34 11 -34 6 0 9 -12 7 -27 -2 -22 -9 -29 -30 -31 -25 -3 -26 -5 -16 -32 8
-25 13 -28 29 -20 10 6 19 21 19 33 0 12 3 17 8 11 4 -6 15 -13 25 -17 9 -3
17 -14 17 -22 0 -9 5 -13 10 -10 6 3 10 -1 10 -9 0 -8 7 -22 17 -31 13 -14 14
-18 3 -25 -8 -5 -19 -6 -25 -3 -5 2 1 -4 14 -15 20 -16 23 -25 18 -56 -7 -44
4 -46 33 -6 17 24 25 28 35 20 10 -9 22 -8 47 4 18 9 47 14 65 11 26 -3 37 1
52 21 15 19 26 24 41 19 21 -7 28 9 9 21 -8 4 -7 9 2 15 11 7 12 14 1 41 -25
62 -26 69 -7 62 10 -4 20 -1 25 6 9 14 -10 44 -59 97 -27 30 -60 99 -61 126 0
25 -27 18 -61 -16 -28 -27 -29 -27 -66 -12 -21 9 -48 23 -60 31 -15 9 -23 11
-23 3 0 -6 -9 -9 -20 -6 -12 3 -20 0 -20 -7 0 -22 -34 -35 -54 -20 -11 7 -22
11 -26 9 -19 -12 -67 29 -97 82 -21 38 -37 57 -48 55 -12 -2 -14 3 -9 22 5 22
3 26 -16 26 -11 0 -19 -4 -15 -9z"/>
<path d="M8095 7560 c-3 -5 3 -10 14 -10 12 0 21 5 21 10 0 6 -6 10 -14 10 -8
0 -18 -4 -21 -10z"/>
<path d="M9039 7155 c-7 -28 -2 -65 9 -65 7 0 10 -4 7 -10 -3 -5 0 -7 9 -4 21
8 17 59 -5 73 -11 6 -20 9 -20 6z"/>
<path d="M8165 7090 c3 -5 13 -10 21 -10 8 0 12 5 9 10 -3 6 -13 10 -21 10 -8
0 -12 -4 -9 -10z"/>
<path d="M9063 7049 c23 -13 22 -35 -3 -56 -22 -20 -26 -43 -8 -61 8 -8 8 -15
0 -25 -9 -11 -6 -17 13 -27 14 -7 32 -24 40 -37 9 -13 20 -21 25 -18 16 10 61
-37 54 -57 -4 -13 0 -18 13 -18 15 0 14 -3 -6 -19 -16 -12 -22 -24 -18 -36 4
-9 -2 -38 -14 -63 -18 -41 -26 -62 -28 -83 -1 -8 -39 -5 -47 4 -4 4 -16 7 -26
7 -16 0 -17 -3 -8 -20 6 -12 21 -20 36 -20 18 0 24 -4 21 -14 -3 -7 -1 -18 5
-24 8 -8 6 -18 -5 -35 -14 -22 -14 -24 4 -35 10 -7 19 -19 19 -27 0 -8 5 -15
11 -15 6 0 8 -8 4 -19 -7 -23 10 -36 46 -33 24 2 26 -1 21 -25 -6 -34 -20 -53
-39 -53 -19 0 -52 -40 -53 -63 0 -10 -7 -31 -15 -47 -14 -26 -14 -29 0 -24 8
4 21 1 29 -5 17 -14 37 -11 53 9 7 8 13 11 13 6 0 -5 6 -3 14 3 11 9 15 7 20
-13 6 -23 36 -40 64 -36 9 1 12 -5 7 -19 -8 -27 11 -62 31 -54 23 9 52 -23 46
-52 -2 -14 -8 -22 -12 -20 -5 3 -11 1 -15 -5 -3 -5 1 -10 10 -10 12 0 14 -4 5
-19 -8 -16 -6 -23 12 -35 16 -12 25 -13 35 -4 10 8 19 6 36 -11 13 -11 33 -21
44 -21 13 0 25 -10 33 -30 18 -43 26 -37 22 15 -3 28 0 45 7 45 6 0 11 9 11
20 0 11 7 23 15 26 9 4 15 19 15 35 0 22 -6 32 -25 39 -26 10 -60 64 -50 80 3
6 1 10 -5 10 -7 0 -10 6 -7 13 2 6 -4 23 -15 36 -17 22 -17 25 -2 42 9 10 20
17 24 14 4 -2 16 6 28 20 16 19 18 25 6 29 -11 4 -11 9 1 33 8 15 17 41 20 56
4 19 11 27 23 25 18 -3 19 8 8 52 -6 20 -2 27 16 35 27 12 27 28 1 34 -24 5
-33 21 -27 47 4 15 0 25 -11 32 -15 8 -13 13 19 45 42 43 46 64 11 73 -30 7
-85 53 -85 70 0 7 -21 24 -46 39 -62 37 -197 172 -190 191 6 15 5 15 -33 19
-14 1 -30 10 -36 19 -7 9 -19 16 -28 16 -9 0 -23 10 -31 22 -16 22 -20 19 -17
-13 1 -9 -5 -19 -14 -22 -10 -4 -15 -1 -15 11 0 17 -50 62 -67 62 -4 0 0 -5
10 -11z m102 -99 c3 -5 1 -10 -4 -10 -6 0 -11 5 -11 10 0 6 2 10 4 10 3 0 8
-4 11 -10z m260 -890 c8 -13 -5 -13 -25 0 -13 8 -13 10 2 10 9 0 20 -4 23 -10z"/>
<path d="M10130 6789 c14 -14 31 -23 38 -21 17 6 15 19 -5 25 -10 2 -27 8 -38
12 -17 7 -16 4 5 -16z"/>
<path d="M12024 6598 c-4 -6 1 -17 11 -24 23 -17 29 -12 20 15 -7 23 -20 27
-31 9z"/>
<path d="M12137 6274 c-4 -4 -7 -14 -7 -23 0 -11 3 -12 11 -4 6 6 10 16 7 23
-2 6 -7 8 -11 4z"/>
<path d="M12136 6185 c6 -28 28 -55 45 -55 17 0 37 31 32 50 -6 24 -16 25 -33
5 -10 -13 -15 -12 -31 8 l-19 22 6 -30z"/>
<path d="M9116 6071 c-3 -5 0 -11 7 -13 17 -7 38 2 31 13 -7 12 -31 12 -38 0z"/>
<path d="M9650 6056 c0 -13 7 -26 15 -29 19 -8 24 3 14 31 -11 29 -29 28 -29
-2z"/>
<path d="M10492 5644 c-12 -8 -20 -20 -17 -25 4 -5 -2 -9 -12 -9 -14 -1 -13
-5 10 -21 15 -11 27 -28 27 -38 0 -17 18 -41 30 -41 4 0 5 13 2 29 -3 20 2 35
17 50 12 12 16 23 10 26 -5 4 -7 15 -4 26 5 15 1 19 -17 19 -13 0 -34 -7 -46
-16z"/>
<path d="M9538 5588 c7 -7 12 -19 12 -28 0 -9 7 -17 15 -17 8 0 15 2 15 4 0
11 -34 53 -43 53 -7 0 -7 -4 1 -12z"/>
<path d="M9545 5500 c-3 -5 -1 -10 4 -10 6 0 11 5 11 10 0 6 -2 10 -4 10 -3 0
-8 -4 -11 -10z"/>
<path d="M10590 5496 c0 -19 -4 -20 -32 -5 -19 10 -20 9 -16 -20 4 -26 1 -31
-15 -31 -16 0 -19 -6 -15 -35 3 -29 1 -35 -11 -30 -32 12 35 -48 69 -62 19 -8
43 -22 53 -31 15 -14 17 -14 17 1 0 13 5 15 25 7 28 -11 33 -3 10 14 -20 15
-9 73 15 81 29 9 31 61 4 90 -23 25 -41 34 -29 15 3 -5 1 -10 -5 -10 -6 0 -8
-5 -4 -12 4 -6 -9 1 -29 16 -29 22 -37 25 -37 12z"/>
<path d="M10455 5390 c3 -5 8 -10 11 -10 2 0 4 5 4 10 0 6 -5 10 -11 10 -5 0
-7 -4 -4 -10z"/>
</g>
</svg>
