<?xml version="1.0" standalone="no"?>
<!DOCTYPE svg PUBLIC "-//W3C//DTD SVG 20010904//EN"
 "http://www.w3.org/TR/2001/REC-SVG-20010904/DTD/svg10.dtd">
<svg version="1.0" xmlns="http://www.w3.org/2000/svg"
 width="698.514140pt" height="817.369980pt" viewBox="0 0 698.514140 817.369980"
 preserveAspectRatio="xMidYMid meet">
<metadata>
Created by potrace 1.15, written by Peter Selinger 2001-2017
</metadata>
<g transform="translate(-747.274537,1394.369980) scale(0.100000,-0.100000)"
fill="#222222" stroke="none">
<path d="M11125 13941 c-3 -5 4 -13 16 -16 28 -9 33 -2 9 13 -11 6 -21 8 -25
3z"/>
<path d="M11191 13825 c-24 -51 -27 -107 -7 -124 8 -7 17 -27 20 -46 4 -21 13
-35 21 -35 8 0 15 -9 15 -19 0 -13 17 -28 53 -46 28 -15 58 -33 66 -40 19 -19
22 -135 3 -142 -10 -4 -6 -13 14 -34 28 -29 28 -30 11 -58 -22 -38 -22 -62 -1
-54 14 5 16 1 12 -20 -3 -15 -1 -27 3 -27 17 0 9 -29 -13 -44 -19 -13 -20 -19
-10 -41 10 -21 8 -28 -14 -50 -18 -18 -23 -31 -19 -43 4 -9 7 -27 7 -39 -1
-12 3 -25 8 -28 28 -17 -12 -95 -48 -95 -7 0 -17 -11 -22 -25 -5 -14 -13 -25
-18 -25 -13 0 -22 -121 -11 -143 6 -10 12 -55 15 -100 2 -45 9 -83 14 -85 6
-2 10 -12 10 -23 0 -15 -4 -17 -24 -9 -13 5 -27 6 -30 3 -3 -3 -8 1 -11 9 -4
10 -15 13 -31 10 -13 -2 -30 0 -37 6 -6 5 -23 9 -37 8 -14 -1 -32 1 -41 5 -12
6 -20 1 -29 -19 -8 -15 -14 -31 -14 -37 -1 -5 -10 -10 -21 -11 -11 0 -37 -1
-59 -2 -35 -2 -38 -4 -32 -27 5 -20 3 -25 -13 -25 -11 0 -23 -5 -26 -10 -4 -7
-12 -7 -25 0 -26 14 -27 14 -33 -20 -4 -18 -13 -30 -22 -30 -10 0 -15 -7 -13
-17 1 -10 -1 -23 -5 -30 -4 -6 -3 -14 2 -18 6 -3 8 -12 4 -20 -3 -10 2 -15 16
-15 33 0 29 -46 -4 -52 -14 -3 -25 -1 -25 3 0 5 -4 9 -10 9 -5 0 -8 -6 -6 -12
13 -41 14 -78 4 -78 -6 0 -20 -8 -30 -17 -14 -13 -21 -14 -30 -5 -7 7 -22 12
-34 12 -25 0 -43 -41 -42 -93 1 -34 -34 -70 -57 -60 -10 3 -21 0 -25 -7 -11
-18 -50 23 -50 53 0 31 -39 67 -72 67 -14 0 -28 7 -31 14 -5 12 -13 13 -39 5
-52 -14 -93 -11 -112 10 -25 27 -64 32 -79 11 -12 -17 -14 -17 -52 0 -43 20
-55 18 -55 -9 0 -10 -9 -26 -21 -37 -16 -15 -24 -16 -39 -6 -12 7 -21 8 -25 2
-3 -6 -21 -10 -38 -10 -18 0 -49 -5 -69 -11 -33 -9 -38 -14 -38 -40 0 -25 -4
-30 -22 -27 -17 2 -23 -4 -30 -29 -5 -20 -17 -34 -31 -39 -12 -3 -29 -12 -37
-19 -8 -7 -28 -15 -45 -17 -24 -2 -34 3 -47 25 -10 15 -25 27 -33 27 -17 0
-15 -6 16 -50 14 -19 17 -36 12 -67 -3 -24 -11 -43 -17 -43 -6 0 -12 -15 -13
-33 -2 -17 -10 -37 -19 -44 -9 -6 -13 -16 -10 -21 3 -6 0 -12 -6 -14 -9 -3 -5
-19 14 -55 24 -43 26 -55 18 -84 -6 -19 -10 -37 -10 -41 0 -11 51 -8 78 5 14
7 26 7 32 1 13 -13 1 -54 -17 -54 -9 0 -12 -7 -9 -17 13 -50 15 -81 6 -112 -8
-27 -6 -40 5 -58 9 -13 12 -23 8 -23 -5 0 -1 -5 7 -10 12 -8 12 -10 1 -10 -11
0 -10 -4 4 -20 17 -19 17 -19 -19 -13 -32 5 -36 3 -36 -16 0 -33 -27 -79 -51
-86 l-21 -7 22 -23 c16 -18 21 -31 16 -49 -6 -25 0 -31 30 -27 16 2 25 -37 10
-42 -7 -3 -6 -10 6 -23 19 -22 28 -60 12 -57 -14 2 -10 -118 5 -146 10 -18 7
-60 -6 -83 -6 -11 -49 36 -45 49 2 6 -6 21 -17 32 l-21 21 -6 -25 c-3 -13 -3
-29 1 -36 4 -6 2 -15 -6 -20 -11 -6 -10 -12 5 -28 12 -14 16 -28 12 -45 -3
-14 -2 -28 4 -31 5 -3 10 -1 10 4 0 6 11 11 25 11 16 0 25 -6 25 -15 0 -8 6
-15 14 -15 22 0 24 -20 8 -81 -12 -49 -17 -56 -34 -51 -12 3 -26 18 -32 34 -6
17 -17 27 -26 25 -16 -3 -16 -8 -5 -46 4 -15 3 -21 -3 -17 -5 3 -24 -1 -41
-10 -30 -15 -34 -15 -52 2 -18 16 -19 16 -19 -5 0 -32 -32 -23 -41 12 -5 18
-3 32 7 41 12 13 11 17 -10 34 -14 10 -46 27 -71 37 -40 15 -49 15 -56 4 -6
-10 -9 -8 -9 9 0 12 -4 22 -10 22 -5 0 -10 -8 -10 -17 0 -14 -3 -13 -23 5 -13
12 -29 22 -36 22 -6 0 -17 13 -22 29 -6 16 -21 37 -34 45 -19 13 -23 23 -21
63 0 26 -5 71 -12 98 -11 44 -10 51 3 62 11 7 13 13 5 18 -8 5 -8 11 -1 19 7
9 7 16 -1 24 -8 8 -8 15 1 26 13 16 11 75 -4 109 -6 15 1 13 44 -8 50 -26 51
-26 71 -7 16 14 19 26 15 45 -10 36 -24 45 -78 50 -26 2 -56 12 -66 21 -12 11
-21 13 -25 7 -4 -6 -13 -8 -21 -4 -8 3 -15 0 -15 -6 0 -17 -27 -13 -42 7 -7 9
-37 28 -66 42 -34 15 -59 35 -68 52 -8 16 -19 26 -24 23 -6 -4 -10 -1 -10 5 0
7 -8 9 -19 5 -11 -3 -22 -2 -25 4 -3 5 -24 7 -46 4 -25 -4 -40 -2 -40 5 0 6
-9 9 -21 7 -13 -3 -31 6 -47 21 l-27 24 -3 -25 c-4 -34 -26 -43 -99 -39 -44 2
-63 -1 -63 -9 0 -20 -49 -17 -55 4 -7 20 -28 16 -56 -12 -15 -15 -16 -19 -3
-30 10 -8 11 -15 4 -24 -6 -8 -7 -16 -2 -19 9 -5 -1 -97 -13 -116 -3 -5 -19
-10 -36 -10 -28 0 -29 -1 -29 -49 0 -83 30 -131 83 -131 15 0 17 -40 2 -40 -5
0 -2 -7 8 -14 18 -14 18 -14 -1 -20 -14 -5 -18 -13 -15 -26 3 -11 0 -20 -6
-20 -16 0 -14 -64 4 -105 7 -19 17 -63 21 -98 4 -34 15 -79 25 -99 11 -21 19
-44 19 -53 0 -9 26 -43 59 -75 51 -53 59 -65 59 -100 1 -22 3 -49 7 -59 4 -13
0 -23 -12 -30 -15 -8 -16 -13 -6 -29 9 -15 9 -30 1 -59 -11 -38 -13 -48 -16
-110 -1 -22 -8 -34 -22 -38 -11 -3 -20 -15 -20 -26 0 -10 -5 -19 -11 -19 -5 0
-7 -4 -4 -10 3 -5 16 -10 28 -10 13 0 32 -14 47 -35 14 -19 30 -35 37 -35 26
0 61 -23 72 -46 6 -13 19 -24 30 -24 20 0 86 -49 77 -57 -2 -3 1 -19 8 -36 16
-41 13 -93 -8 -116 -15 -16 -14 -19 9 -41 14 -13 25 -30 25 -37 0 -8 5 -11 10
-8 6 4 21 0 34 -9 13 -8 33 -12 45 -9 16 4 21 1 21 -14 0 -21 61 -93 79 -93 6
0 11 -4 11 -10 0 -5 5 -10 11 -10 7 0 9 11 5 31 -6 30 -5 30 27 24 17 -4 37
-11 42 -15 6 -4 22 -10 36 -14 21 -4 28 -2 32 13 4 15 13 18 58 16 65 -4 85 5
92 45 4 19 13 30 23 30 13 0 14 -3 4 -15 -10 -12 -9 -16 4 -21 24 -9 44 2 48
28 l4 23 11 -26 c6 -14 22 -38 35 -55 44 -54 53 -81 38 -109 -10 -20 -11 -28
-2 -37 18 -18 15 -28 -9 -28 -11 0 -18 -3 -15 -8 2 -4 -3 -23 -11 -42 -9 -19
-15 -41 -14 -49 2 -8 -8 -22 -20 -32 -20 -15 -22 -20 -12 -42 9 -19 9 -27 1
-29 -7 -3 -9 -11 -4 -24 6 -12 10 -15 13 -6 6 15 23 6 23 -14 0 -8 -7 -14 -15
-14 -10 0 -15 -10 -15 -29 0 -25 -4 -28 -27 -27 -16 1 -34 5 -42 10 -9 6 -17
4 -22 -6 -16 -29 -56 -30 -108 -3 -29 14 -52 21 -56 15 -3 -5 -25 2 -50 15
-24 14 -51 25 -59 25 -22 0 -39 38 -32 74 5 27 1 35 -30 59 -21 17 -33 35 -30
43 6 16 -29 20 -39 4 -3 -5 -14 -10 -24 -10 -11 0 -21 -9 -24 -21 -5 -17 -11
-20 -34 -16 -15 3 -37 7 -48 9 -11 2 -23 7 -26 11 -4 5 -15 0 -25 -11 -35 -35
-72 -54 -95 -47 -19 6 -21 4 -15 -18 3 -14 1 -29 -4 -32 -6 -4 -8 -11 -4 -16
3 -6 -2 -19 -11 -29 -10 -11 -15 -26 -11 -35 3 -9 -3 -24 -14 -35 -11 -11 -20
-26 -20 -32 0 -7 -14 -21 -31 -31 -24 -13 -30 -22 -26 -38 4 -13 1 -19 -6 -16
-47 19 -47 19 -41 3 4 -11 -3 -27 -21 -46 -23 -25 -26 -32 -15 -45 12 -14 7
-20 -14 -16 -5 1 -6 -5 -2 -14 3 -9 6 -20 6 -25 0 -13 33 -22 40 -10 4 7 15 4
31 -9 13 -11 18 -20 11 -21 -8 0 -10 -5 -5 -12 13 -21 12 -37 -2 -32 -7 3 -16
0 -20 -5 -3 -6 -11 -9 -16 -6 -5 4 -16 2 -26 -3 -12 -7 -24 -5 -40 5 -15 10
-23 11 -23 4 0 -6 -4 -11 -10 -11 -5 0 -10 11 -10 24 0 17 -7 26 -26 30 -15 4
-41 18 -59 31 -17 14 -46 28 -64 31 -18 4 -35 13 -38 20 -2 7 -12 13 -21 13
-9 0 -39 7 -65 17 -44 15 -49 15 -60 0 -10 -13 -19 -14 -44 -7 -28 8 -33 7
-38 -10 -4 -10 -12 -19 -18 -19 -15 -1 -57 -35 -57 -47 0 -16 -48 -55 -59 -48
-6 3 -11 -1 -11 -9 0 -10 -9 -16 -25 -16 -13 0 -28 -8 -34 -17 -9 -17 -11 -17
-45 -1 -27 13 -34 14 -30 4 6 -16 -29 -31 -46 -21 -7 4 -9 -3 -4 -22 9 -43 38
-113 47 -113 4 0 7 -9 7 -20 0 -12 10 -31 23 -43 27 -26 67 -92 67 -112 0 -8
12 -20 28 -27 15 -7 28 -23 30 -36 2 -12 28 -43 58 -69 29 -27 54 -52 54 -58
0 -15 58 -45 76 -38 9 3 14 1 12 -7 -2 -7 13 -21 32 -32 19 -11 46 -31 60 -43
75 -71 100 -87 114 -76 11 9 16 5 24 -16 6 -16 11 -35 11 -43 0 -8 5 -38 12
-66 8 -38 18 -55 38 -67 14 -8 36 -26 49 -40 19 -20 21 -28 12 -52 -7 -20 -7
-31 1 -41 8 -10 8 -18 1 -27 -9 -10 -5 -22 13 -50 14 -20 25 -50 25 -66 0 -17
5 -31 10 -31 6 0 10 6 10 14 0 24 37 6 67 -33 15 -20 26 -42 25 -50 -5 -22 7
-61 19 -61 8 0 7 5 -1 15 -11 13 -9 19 7 38 35 38 45 65 33 87 -10 19 -8 20
39 20 43 0 53 4 75 31 25 30 28 30 45 15 17 -15 19 -15 33 5 13 20 18 21 46
11 17 -6 31 -8 29 -4 -1 4 3 8 8 10 6 1 10 -1 11 -5 2 -26 30 -61 57 -73 27
-12 40 -11 101 5 39 10 88 18 109 17 27 -1 41 4 49 18 9 14 19 17 40 13 25 -5
28 -3 28 21 0 30 14 34 29 9 8 -14 13 -15 34 -6 20 9 25 18 23 39 -2 15 -10
33 -20 39 -9 7 -16 17 -16 22 0 6 -9 13 -19 16 -13 3 -21 17 -26 46 -4 24 -15
47 -27 55 -22 15 -17 36 9 36 10 0 13 6 9 16 -4 10 3 23 19 36 14 11 23 23 20
28 -3 5 1 13 10 17 12 7 13 16 6 41 -6 18 -6 32 -1 32 5 0 8 21 6 48 -2 26 -1
61 1 78 5 28 8 31 36 29 19 -1 37 -11 45 -24 8 -11 25 -21 37 -21 19 0 22 4
18 21 -5 19 -3 21 25 15 23 -6 33 -3 40 10 9 16 31 17 82 3 9 -3 16 4 18 19 2
12 8 22 13 22 5 0 9 7 9 16 0 9 5 12 12 8 6 -4 4 3 -5 17 -18 26 -23 64 -7 54
16 -10 50 5 50 21 0 8 3 14 8 15 4 0 18 2 30 5 17 3 25 -1 29 -15 3 -11 10
-18 17 -15 6 2 25 -13 41 -36 32 -42 45 -50 45 -25 0 8 9 15 20 15 11 0 27 12
36 26 11 16 20 21 24 14 4 -7 18 -17 30 -23 39 -20 46 -42 27 -82 -13 -28 -16
-53 -12 -120 4 -73 3 -85 -12 -94 -16 -9 -16 -10 -1 -11 20 0 58 -46 58 -70 0
-10 9 -29 20 -42 10 -14 17 -28 13 -31 -3 -4 -1 -13 6 -20 6 -8 9 -21 6 -29
-4 -9 7 -28 25 -47 31 -30 31 -32 16 -57 -9 -13 -14 -29 -11 -33 3 -5 -6 -23
-20 -39 -13 -16 -22 -32 -18 -36 3 -3 -1 -6 -10 -6 -10 0 -17 -6 -18 -12 -3
-33 4 -64 16 -70 18 -11 27 -55 15 -78 -7 -13 -7 -21 0 -25 6 -4 -1 -16 -17
-28 -15 -12 -29 -25 -31 -29 -2 -5 -10 -8 -18 -8 -8 0 -14 -4 -14 -9 0 -5 -23
-17 -50 -26 -28 -9 -48 -21 -44 -26 3 -5 -2 -9 -10 -9 -22 0 -66 -44 -66 -67
0 -23 -60 -55 -105 -57 -26 -1 -30 -5 -33 -34 -2 -18 -10 -35 -18 -38 -8 -2
-21 -6 -29 -9 -11 -3 -13 -10 -5 -30 5 -14 6 -25 1 -25 -5 0 -12 12 -16 27 -3
15 -21 42 -40 61 l-33 35 -43 -21 c-28 -14 -47 -18 -54 -12 -7 6 -15 7 -18 4
-3 -3 -12 -2 -19 2 -16 10 -31 13 -83 17 -22 2 -46 7 -53 11 -7 4 -12 2 -12
-4 0 -7 -6 -10 -12 -7 -7 2 -25 -4 -39 -14 -14 -10 -30 -15 -34 -11 -4 4 -4
-1 2 -11 5 -10 21 -24 34 -31 26 -13 28 -43 3 -63 -22 -16 1 -26 26 -11 11 7
20 17 21 23 1 5 4 -1 8 -15 5 -18 19 -29 51 -40 24 -8 46 -22 48 -30 3 -8 12
-21 21 -27 14 -11 14 -14 1 -22 -12 -8 -9 -12 13 -20 19 -8 25 -15 20 -27 -4
-10 -2 -15 4 -11 5 3 17 -3 27 -14 17 -20 16 -21 -1 -35 -24 -18 -61 -19 -55
-1 1 4 -2 7 -8 7 -5 0 -7 7 -3 16 4 10 -4 25 -21 40 -24 23 -35 47 -18 42 7
-3 12 5 12 22 0 5 -7 7 -15 4 -8 -4 -15 -12 -15 -18 0 -15 -51 -85 -62 -86 -4
0 -16 7 -27 17 -19 16 -81 25 -81 11 0 -4 -7 -5 -15 -2 -14 6 -29 -29 -24 -57
4 -21 -22 -71 -49 -95 -20 -18 -22 -25 -13 -42 9 -18 8 -23 -9 -32 -16 -9 -18
-15 -10 -30 15 -28 17 -27 -40 -32 -15 -2 -18 -7 -14 -23 4 -11 13 -24 20 -28
19 -11 18 -37 -1 -37 -20 0 -8 -27 16 -33 10 -3 19 -1 19 3 0 14 81 23 93 11
6 -6 26 -11 44 -11 37 0 116 37 107 51 -3 5 0 17 6 26 11 17 11 17 6 1 -3 -11
0 -18 7 -18 19 0 37 21 37 42 0 17 3 17 34 4 26 -11 36 -11 39 -3 3 7 22 21
43 32 22 11 42 24 46 30 5 6 8 5 8 -4 0 -8 -8 -20 -17 -27 -14 -10 -16 -17 -7
-30 16 -27 29 -27 42 1 7 15 17 23 22 20 6 -3 10 1 10 9 0 14 3 14 20 4 24
-15 34 -6 25 23 -4 12 -10 17 -14 12 -8 -14 -68 -4 -75 12 -2 7 9 22 25 34 16
12 29 31 29 42 0 12 10 23 25 29 14 5 26 14 26 20 1 5 3 15 4 20 1 6 3 15 4
21 0 5 6 7 11 4 6 -4 17 -1 25 5 8 6 19 9 25 5 15 -10 -4 -31 -36 -39 l-24 -6
22 -30 c18 -24 27 -29 54 -25 28 3 34 0 42 -24 8 -22 6 -30 -7 -38 -11 -7 -24
-7 -33 -2 -14 8 -14 4 -3 -29 9 -24 19 -37 32 -37 11 0 18 -7 18 -19 0 -28 21
-31 61 -7 19 12 37 21 40 21 2 0 4 -14 4 -30 0 -26 5 -31 30 -36 38 -8 80 -47
80 -75 l0 -22 25 23 c23 22 34 60 18 60 -5 0 -9 18 -9 40 -1 26 2 38 9 33 6
-4 8 0 4 10 -22 54 -22 53 -4 39 13 -12 18 -10 29 7 8 13 23 21 40 21 21 0 28
5 28 20 0 25 -25 36 -45 20 -12 -10 -18 -10 -31 0 -13 12 -11 15 15 26 17 7
31 20 31 29 0 8 6 15 14 15 8 0 16 3 18 8 2 4 20 15 40 24 28 13 35 21 31 37
-4 14 3 23 29 35 18 9 49 36 68 60 19 25 44 46 55 48 12 2 21 12 23 27 5 30
42 72 49 54 3 -7 9 -13 14 -13 5 0 4 9 -3 19 -7 11 -15 18 -19 16 -11 -7 -59
19 -59 33 0 7 -4 10 -10 7 -5 -3 -10 1 -10 9 0 19 11 20 29 3 10 -10 11 -7 6
16 -5 18 -3 27 5 27 7 0 21 11 32 25 14 18 26 24 40 19 13 -4 25 1 37 15 10
12 23 21 28 21 6 0 16 7 23 15 16 19 127 9 153 -13 21 -19 22 -30 1 -54 -19
-20 -14 -23 43 -30 30 -4 50 11 45 35 -1 4 5 7 14 7 13 0 14 3 5 14 -9 11 -5
18 23 36 30 18 34 24 24 39 -6 10 -21 19 -32 19 -20 0 -80 11 -81 15 -1 1 -13
27 -28 58 -22 45 -26 61 -18 82 7 18 7 27 -2 31 -7 2 0 5 16 5 22 1 27 6 27
26 0 14 5 25 11 25 8 0 8 4 -1 15 -6 8 -9 18 -6 24 3 5 0 12 -6 15 -9 4 -9 8
-2 11 14 7 -7 128 -26 150 -7 9 -13 29 -12 45 0 20 -5 31 -17 35 -23 7 -74
117 -65 139 4 10 0 22 -9 29 -16 13 -26 46 -34 115 -3 28 -15 52 -34 73 -16
17 -29 35 -29 39 0 4 -24 20 -54 36 -51 26 -53 29 -33 39 18 9 21 18 19 50 -2
22 -9 47 -15 55 -9 12 -7 11 8 -1 52 -43 91 -26 66 28 -10 21 -9 28 1 34 7 5
9 9 3 9 -5 0 -2 6 7 13 9 7 14 18 10 23 -10 15 -51 24 -58 13 -8 -13 -34 9
-34 27 0 8 4 14 9 14 12 0 7 50 -8 78 -6 12 -20 22 -30 22 -37 0 -76 83 -69
150 2 30 7 35 26 33 14 -2 22 3 22 12 0 9 -10 15 -25 15 -16 0 -25 -6 -25 -16
0 -10 -6 -14 -14 -11 -7 3 -23 -1 -34 -8 -10 -8 -22 -12 -25 -9 -3 3 -17 7
-31 8 -15 2 -34 10 -44 18 -9 9 -34 21 -56 28 -23 7 -41 20 -43 31 -4 15 -11
18 -27 13 -11 -4 -24 -11 -28 -17 -4 -7 -14 -5 -30 5 -22 15 -23 14 -33 -15
-7 -23 -18 -33 -40 -37 -32 -7 -95 13 -95 30 0 13 -28 26 -73 34 -36 7 -38 6
-28 -13 16 -29 14 -31 -24 -31 -33 0 -35 -2 -35 -35 0 -43 -30 -107 -47 -101
-7 3 -15 0 -19 -5 -4 -6 -20 -8 -40 -5 -32 7 -33 6 -44 -36 -6 -24 -13 -50
-16 -59 -2 -9 -15 -22 -29 -29 -21 -11 -27 -11 -42 3 -10 8 -31 17 -48 19 -22
2 -31 9 -33 26 -2 12 2 22 8 22 6 0 8 5 5 10 -3 6 1 10 9 10 20 0 31 19 17 33
-7 7 -3 17 15 34 19 18 23 27 15 41 -13 25 -3 60 20 67 10 3 21 15 24 26 4 11
15 19 29 19 24 0 56 28 56 49 0 8 7 10 20 6 11 -3 20 -2 20 3 0 16 41 22 61 9
23 -14 56 2 51 26 -2 11 10 19 38 27 36 10 40 14 40 43 0 24 3 28 10 17 9 -13
11 -13 20 0 7 12 13 13 29 3 18 -12 31 -8 31 9 0 4 -6 8 -14 8 -22 0 -28 43
-9 58 16 11 15 13 -5 28 -33 23 -27 34 13 21 22 -6 35 -17 35 -28 0 -18 27
-29 73 -29 16 0 40 -9 54 -19 18 -15 30 -18 48 -11 20 7 25 5 30 -10 8 -26 40
-26 58 0 8 11 16 17 19 14 3 -3 21 9 39 25 18 17 39 31 46 31 7 0 13 8 13 18
0 16 7 19 38 17 32 -2 37 -6 40 -29 2 -14 -2 -26 -8 -26 -6 0 4 -18 22 -40 18
-22 41 -40 50 -40 10 0 33 -16 52 -35 40 -39 80 -53 107 -36 28 17 70 13 108
-10 29 -17 38 -19 63 -8 16 6 42 27 57 46 28 34 29 34 70 23 22 -6 41 -17 41
-24 0 -14 21 -26 44 -26 15 0 39 58 36 90 -1 14 -7 30 -14 35 -14 11 -10 35 6
35 5 0 23 -14 40 -30 29 -30 48 -32 48 -5 0 9 7 12 18 9 16 -5 16 -5 -1 6 -9
6 -21 9 -26 6 -5 -3 -11 1 -15 9 -4 11 1 15 17 15 27 1 57 22 57 41 0 8 5 21
10 29 8 12 12 11 32 -7 37 -33 63 -44 76 -31 9 9 15 9 23 1 5 -5 21 -8 35 -5
19 3 22 7 13 18 -8 9 -8 14 -1 14 15 0 27 -22 23 -44 -2 -16 2 -18 26 -12 15
3 42 9 60 12 22 5 33 13 37 30 9 33 34 30 69 -9 28 -32 31 -33 71 -24 30 7 61
5 114 -6 39 -8 72 -12 72 -8 0 9 96 33 145 36 22 2 48 -1 59 -7 13 -7 21 -6
27 3 5 8 9 10 9 6 0 -4 9 -3 19 3 12 6 17 17 14 28 -3 13 4 22 22 30 35 16 61
15 90 -4 14 -9 25 -12 25 -6 0 6 -4 14 -10 17 -13 8 -13 42 1 51 8 4 9 -1 4
-16 -6 -17 -3 -21 10 -18 11 2 23 20 32 50 7 26 18 50 23 53 5 3 3 20 -7 40
-14 29 -15 38 -4 59 8 13 11 29 7 34 -3 5 -1 23 4 38 11 29 53 55 111 68 25 5
26 9 24 56 l-3 51 33 -7 c22 -4 37 -1 48 10 8 9 25 16 37 16 29 0 80 31 80 49
0 20 48 81 64 81 7 0 27 14 45 32 31 31 32 35 26 85 -4 36 -3 53 4 53 7 0 17
11 23 25 6 13 19 27 29 30 9 3 20 17 23 31 4 14 11 22 16 19 18 -11 23 25 6
44 -23 26 -20 33 12 26 36 -8 82 10 82 31 0 12 6 15 23 10 16 -4 26 1 35 14 7
11 20 20 30 20 10 0 27 7 39 15 12 8 28 12 36 9 8 -3 18 -1 22 5 3 6 16 11 29
11 12 0 27 5 34 12 9 9 15 9 24 0 8 -8 16 -8 32 0 12 7 54 13 93 15 72 2 113
15 113 33 0 6 9 10 20 10 11 0 20 5 20 11 0 5 4 8 8 5 5 -3 15 6 22 19 7 14
17 25 21 25 4 0 10 16 14 36 7 38 25 64 45 64 6 0 10 6 9 13 -1 6 1 29 5 49 7
30 4 42 -13 64 -16 20 -21 41 -21 85 0 33 -4 59 -10 59 -5 0 -10 11 -10 24 0
29 -51 86 -77 86 -34 0 -42 13 -34 52 8 32 6 37 -13 42 -15 4 -27 -2 -43 -21
-12 -15 -25 -24 -29 -21 -3 4 -16 -5 -28 -19 -19 -22 -25 -24 -44 -14 -19 10
-22 9 -22 -9 0 -11 -8 -23 -17 -26 -10 -3 -27 -10 -38 -15 -14 -7 -30 -7 -48
0 -15 6 -27 7 -27 2 0 -19 -36 2 -55 32 -20 31 -23 32 -86 32 -43 0 -72 5 -84
15 -15 13 -19 12 -30 -3 -9 -13 -15 -15 -20 -7 -4 6 -4 14 0 18 4 4 -13 12
-37 18 -38 9 -43 13 -40 36 3 34 -29 63 -56 49 -15 -8 -24 -5 -44 17 -43 47
-66 95 -73 155 -7 51 -10 58 -34 63 -45 10 -51 13 -58 30 -3 9 -2 29 4 45 8
21 7 30 -5 43 -12 12 -13 18 -3 30 7 8 10 19 7 25 -4 5 3 12 14 16 11 3 20 13
20 22 0 13 3 13 15 3 9 -7 15 -8 15 -2 0 5 8 8 19 5 10 -3 21 -1 24 4 3 5 -3
9 -13 10 -23 2 -70 32 -70 45 0 5 5 6 10 3 6 -3 10 1 10 9 0 8 9 17 19 21 12
3 21 19 26 42 4 23 19 49 39 68 18 17 36 43 40 58 6 25 19 32 53 28 6 -1 20
10 31 24 11 14 24 25 30 25 6 0 12 6 15 13 3 9 11 8 34 -5 26 -15 32 -16 51
-3 14 11 21 12 24 3 3 -7 35 -12 86 -14 l82 -3 0 29 c0 19 -7 33 -20 40 -20
11 -28 40 -10 40 5 0 16 13 24 29 12 22 12 31 3 41 -10 10 -8 10 11 1 16 -9
22 -9 22 0 0 6 7 9 15 6 8 -4 25 -1 37 6 23 12 28 42 13 80 -4 9 -4 17 -1 17
10 0 50 -24 58 -35 20 -27 5 11 -17 43 -14 20 -25 46 -25 57 0 43 -180 195
-237 200 -19 2 -45 11 -58 19 -25 17 -52 56 -38 56 4 0 -7 10 -24 21 -18 12
-33 29 -33 39 0 10 -13 29 -30 42 -84 66 -90 69 -84 54 12 -32 -38 -8 -103 48
-19 16 -23 17 -23 4 0 -9 -7 -19 -16 -22 -19 -7 -56 32 -49 52 22 61 18 67
-35 64 -8 0 -18 4 -22 11 -3 6 -15 11 -25 12 -40 4 -83 17 -78 25 3 4 -2 11
-11 14 -10 4 -14 13 -10 22 3 8 1 24 -4 34 -7 13 -7 21 0 25 6 4 7 12 1 22
-10 18 8 43 31 43 25 0 37 21 28 46 -5 13 -6 24 -3 24 4 0 2 5 -5 12 -9 9 -7
14 5 24 15 10 15 14 4 28 -7 9 -19 16 -26 16 -7 0 -19 20 -26 45 -10 33 -21
49 -41 58 -16 6 -28 19 -28 27 0 11 -2 12 -8 3 -9 -15 -49 -6 -56 12 -4 11
-13 12 -38 4 -18 -5 -33 -9 -34 -9 -1 0 -4 9 -7 21 -5 18 -11 20 -37 14 -19
-4 -36 -2 -45 5 -21 17 -19 27 6 26 36 -2 45 26 22 70 -16 32 -17 45 -10 72 7
24 15 32 27 29 11 -3 19 6 27 30 13 43 0 51 -31 19 -13 -14 -28 -26 -35 -26
-6 0 -11 -11 -11 -24 0 -19 -4 -22 -24 -19 -13 3 -27 0 -30 -6 -4 -6 -18 -11
-32 -11 -15 0 -23 4 -19 10 4 6 1 17 -5 25 -10 12 -10 18 0 30 10 12 8 22 -11
51 -21 34 -21 37 -5 46 13 7 16 17 12 34 -7 25 -6 25 20 7 25 -16 27 -16 41 3
13 17 11 21 -12 41 -29 26 -31 33 -8 33 12 0 14 3 6 11 -12 12 -34 17 -79 18
-22 1 -34 8 -44 26 -7 14 -19 25 -26 25 -15 0 -29 34 -33 80 -1 16 -58 43 -65
31 -3 -4 -23 -5 -46 -3 -31 3 -44 10 -52 27 -6 13 -21 26 -35 29 -13 4 -41 24
-62 45 -20 20 -45 40 -54 44 -9 3 -17 11 -17 17 0 5 -5 10 -11 10 -7 0 -17 6
-23 14 -6 8 -21 17 -32 20 -18 6 -25 -1 -43 -39z m1114 -2565 c3 -5 1 -10 -4
-10 -6 0 -11 5 -11 10 0 6 2 10 4 10 3 0 8 -4 11 -10z m-2415 -681 c0 -6 -4
-7 -10 -4 -5 3 -10 11 -10 16 0 6 5 7 10 4 6 -3 10 -11 10 -16z m-152 -1 c7
-7 12 -16 12 -20 0 -15 -15 -8 -28 12 -13 22 -3 27 16 8z m102 -28 c9 -5 19
-5 27 1 20 17 37 0 19 -20 -9 -10 -19 -31 -22 -49 -6 -28 -10 -31 -36 -28 -40
5 -50 24 -26 48 12 12 17 26 13 39 -7 21 2 24 25 9z m-105 -170 c3 -5 -1 -10
-10 -10 -9 0 -13 5 -10 10 3 6 8 10 10 10 2 0 7 -4 10 -10z m17 -53 c6 -35 -2
-57 -18 -50 -8 3 -14 1 -14 -5 0 -5 -7 -13 -16 -16 -8 -3 -12 -2 -9 3 3 5 1
12 -5 16 -16 10 -12 22 10 28 13 3 20 14 20 31 0 31 26 26 32 -7z m-157 -67
c-3 -5 -10 -10 -16 -10 -5 0 -9 5 -9 10 0 6 7 10 16 10 8 0 12 -4 9 -10z
m1315 -1316 c0 -3 -5 -14 -10 -24 -13 -23 -40 -16 -40 11 0 14 7 19 25 19 14
0 25 -3 25 -6z m-20 -89 c0 -8 -4 -15 -10 -15 -5 0 -10 7 -10 15 0 8 5 15 10
15 6 0 10 -7 10 -15z m-2400 -409 c0 -8 7 -19 15 -26 22 -18 9 -30 -20 -17
-23 11 -34 45 -19 60 9 9 24 -2 24 -17z m780 -476 c0 -28 -7 -25 -25 11 -16
30 -16 30 4 19 12 -6 21 -20 21 -30z m-2 -48 c2 -7 -3 -12 -12 -12 -9 0 -16 7
-16 16 0 17 22 14 28 -4z m327 -1422 c-3 -5 -11 -10 -16 -10 -6 0 -7 5 -4 10
3 6 11 10 16 10 6 0 7 -4 4 -10z m45 -49 c0 -12 -20 -25 -27 -18 -7 7 6 27 18
27 5 0 9 -4 9 -9z m290 -187 c0 -7 -6 -14 -12 -17 -20 -7 -58 11 -58 27 0 9
-7 12 -20 9 -11 -3 -27 -2 -37 1 -22 9 -5 26 39 41 31 10 35 9 60 -19 15 -17
27 -36 28 -42z m-649 -26 c8 -14 6 -18 -10 -18 -11 0 -26 -2 -33 -5 -13 -5
-38 31 -38 55 0 15 71 -13 81 -32z m-11 -54 c0 -14 -3 -14 -15 -4 -8 7 -15 14
-15 16 0 2 7 4 15 4 8 0 15 -7 15 -16z"/>
<path d="M12820 13751 c0 -5 -10 -11 -22 -13 -16 -2 -22 -9 -20 -20 4 -23 -21
-23 -53 -2 -24 16 -25 15 -25 -4 0 -12 5 -24 11 -27 5 -4 9 -17 7 -28 -1 -12
1 -27 5 -34 10 -15 -26 -35 -47 -27 -12 5 -16 0 -16 -21 0 -22 -3 -25 -21 -20
-19 6 -20 5 -9 -15 6 -12 10 -23 8 -24 -50 -36 -75 -50 -86 -48 -10 2 -11 -1
-3 -17 15 -28 14 -31 -14 -31 -14 0 -25 -4 -25 -10 0 -15 73 -11 94 5 11 8 28
13 38 9 13 -4 16 -1 12 10 -3 9 -2 16 2 16 17 -1 43 -27 53 -52 12 -31 51 -45
51 -18 0 10 8 21 17 24 12 5 14 9 5 18 -7 7 -12 25 -12 40 0 17 -10 39 -24 53
-18 18 -20 25 -10 29 8 3 11 12 7 22 -4 12 -3 15 5 10 7 -4 12 -3 12 3 0 7 8
7 25 1 21 -8 25 -6 25 8 1 21 29 56 53 65 25 9 22 59 -6 85 -25 24 -37 28 -37
13z"/>
<path d="M9180 13716 c0 -9 -6 -16 -14 -16 -15 0 -42 -28 -34 -36 3 -2 19 3
37 13 31 18 39 37 21 48 -5 3 -10 -1 -10 -9z"/>
<path d="M9075 13631 c-6 -11 9 -23 19 -14 9 9 7 23 -3 23 -6 0 -12 -4 -16 -9z"/>
<path d="M9000 13606 c0 -2 7 -9 15 -16 9 -7 15 -8 15 -2 0 5 -7 12 -15 16 -8
3 -15 4 -15 2z"/>
<path d="M9056 13483 c-8 -21 4 -33 49 -49 46 -15 44 -3 -4 35 -34 27 -40 29
-45 14z"/>
<path d="M9150 13424 c0 -3 10 -18 21 -34 12 -16 25 -46 28 -66 5 -30 11 -38
31 -41 41 -6 46 -9 78 -57 26 -38 29 -50 22 -75 -6 -21 -4 -35 7 -51 14 -19
13 -23 -3 -34 -9 -7 -14 -18 -10 -24 3 -6 -1 -17 -10 -26 -8 -9 -12 -20 -9
-26 3 -5 -1 -10 -9 -10 -12 0 -14 7 -9 30 7 37 -10 40 -53 8 -22 -18 -28 -30
-26 -51 3 -22 -1 -30 -17 -34 -27 -7 -26 -15 2 -39 12 -10 17 -12 10 -5 -10
11 -7 18 13 34 l26 20 29 -22 c24 -18 38 -21 72 -16 23 3 48 2 54 -3 7 -4 22
-35 33 -67 17 -53 18 -61 4 -71 -12 -10 -12 -16 -3 -38 7 -14 16 -26 21 -26 5
0 14 -13 19 -30 6 -16 18 -30 26 -30 10 0 12 -6 8 -19 -3 -11 -1 -22 5 -26 13
-8 13 -52 0 -60 -5 -3 -10 -20 -10 -36 0 -27 2 -29 20 -19 11 6 20 15 20 21 0
5 18 32 40 60 22 28 40 55 40 59 0 5 9 11 19 15 16 5 19 15 19 60 -1 30 4 60
10 68 8 9 9 23 2 43 -9 29 -32 150 -32 169 1 47 6 93 14 107 11 23 -16 88 -36
88 -9 0 -16 5 -16 10 0 6 -10 10 -23 10 -29 0 -70 41 -62 62 4 9 2 19 -4 23
-6 3 -11 20 -11 37 0 26 2 29 15 18 8 -6 20 -10 27 -7 9 4 8 6 -3 6 -9 1 -24
10 -33 20 -15 16 -22 18 -37 8 -15 -9 -22 -8 -39 11 -11 12 -24 22 -28 22 -19
-1 -32 -19 -30 -41 2 -18 -2 -24 -14 -23 -10 1 -18 -3 -18 -8 0 -6 -7 -5 -16
3 -8 7 -13 21 -11 31 5 19 -17 26 -28 8 -11 -19 -34 -10 -65 24 -27 29 -70 54
-70 40z"/>
<path d="M11895 13400 c3 -5 8 -10 11 -10 2 0 4 5 4 10 0 6 -5 10 -11 10 -5 0
-7 -4 -4 -10z"/>
<path d="M12614 13365 c-4 -8 -15 -15 -25 -15 -10 0 -19 -5 -19 -11 0 -7 -9
-9 -22 -6 -18 5 -26 0 -35 -20 -7 -15 -13 -32 -13 -39 0 -7 6 -15 13 -18 6 -3
0 -4 -15 -1 -15 3 -39 0 -54 -5 -26 -10 -26 -11 -8 -25 17 -13 17 -16 4 -25
-13 -9 -11 -13 10 -30 26 -20 70 -27 70 -11 0 5 -12 24 -26 41 -15 17 -24 33
-22 36 3 2 10 -1 16 -8 14 -18 102 -11 102 7 0 8 6 20 13 27 27 28 47 63 47
84 0 26 -28 40 -36 19z"/>
<path d="M11991 13344 c0 -11 3 -14 6 -6 3 7 2 16 -1 19 -3 4 -6 -2 -5 -13z"/>
<path d="M12290 13274 c0 -8 6 -23 12 -34 10 -15 10 -22 1 -31 -16 -16 12 -60
33 -52 17 6 19 -13 2 -21 -10 -5 -10 -7 -1 -12 18 -8 -14 -54 -38 -54 -10 0
-22 -8 -28 -17 -5 -10 -20 -18 -33 -19 -12 -1 -33 -5 -45 -9 -30 -10 -18 -35
17 -35 33 0 47 -15 30 -35 -8 -10 -8 -15 2 -21 12 -8 17 -10 36 -13 4 0 8 -17
9 -36 1 -28 -3 -35 -18 -35 -38 0 -18 -41 37 -77 13 -8 24 -23 24 -33 0 -27
39 -13 59 21 9 16 21 29 27 29 24 0 25 56 3 85 -13 17 6 123 26 145 14 15 16
23 7 32 -8 8 -4 16 14 30 18 15 22 23 14 32 -5 7 -7 16 -3 19 3 4 1 7 -5 7 -6
0 -13 -4 -16 -9 -18 -28 -103 -14 -92 15 3 8 2 14 -3 14 -7 0 -31 43 -31 55 0
7 64 -7 77 -17 21 -17 21 7 0 27 -39 36 -55 46 -86 55 -24 7 -31 6 -31 -6z"/>
<path d="M12235 13250 c-4 -6 -11 -8 -16 -5 -5 4 -9 -1 -9 -11 0 -13 3 -14 15
-4 12 10 18 10 30 0 9 -7 18 -10 22 -7 7 7 -15 37 -28 37 -4 0 -11 -5 -14 -10z"/>
<path d="M12540 13160 c0 -5 5 -10 11 -10 5 0 7 5 4 10 -3 6 -8 10 -11 10 -2
0 -4 -4 -4 -10z"/>
<path d="M12560 13126 c0 -9 5 -16 10 -16 6 0 10 4 10 9 0 6 -4 13 -10 16 -5
3 -10 -1 -10 -9z"/>
<path d="M12610 13110 c0 -5 5 -10 11 -10 5 0 7 5 4 10 -3 6 -8 10 -11 10 -2
0 -4 -4 -4 -10z"/>
<path d="M12140 12979 c0 -11 5 -17 10 -14 6 3 10 13 10 21 0 8 -4 14 -10 14
-5 0 -10 -9 -10 -21z"/>
<path d="M12320 12646 c-10 -19 -10 -29 -2 -39 7 -8 9 -17 5 -20 -3 -4 3 -7
13 -7 23 0 84 -59 84 -81 0 -22 55 -60 76 -52 16 6 16 7 -1 19 -9 7 -18 29
-20 49 -4 41 -20 65 -43 65 -8 0 -34 20 -57 45 l-41 46 -14 -25z"/>
<path d="M9480 12441 c0 -6 5 -13 10 -16 16 -10 12 -33 -11 -56 -11 -11 -25
-34 -31 -50 -6 -16 -26 -40 -44 -53 l-35 -23 26 -17 c15 -10 24 -23 21 -31 -2
-7 3 -20 13 -29 12 -11 16 -26 13 -45 -2 -17 3 -40 14 -56 15 -23 19 -24 26
-10 6 10 5 29 -2 51 -7 19 -10 36 -8 38 1 1 14 7 28 13 21 9 26 18 27 49 1 26
8 44 22 55 24 19 27 35 9 42 -10 4 -10 7 0 14 9 7 8 17 -5 44 -30 60 -73 107
-73 80z"/>
<path d="M12530 12423 c0 -10 5 -25 10 -33 7 -11 10 -7 10 18 0 17 -4 32 -10
32 -5 0 -10 -8 -10 -17z"/>
<path d="M9530 11971 c0 -5 7 -14 15 -21 12 -10 15 -10 15 3 0 8 -7 17 -15 21
-8 3 -15 2 -15 -3z"/>
<path d="M9551 11904 c0 -11 3 -14 6 -6 3 7 2 16 -1 19 -3 4 -6 -2 -5 -13z"/>
<path d="M13180 11876 c0 -8 -7 -21 -15 -30 -10 -9 -11 -17 -5 -21 6 -4 8 -11
4 -16 -6 -11 21 -49 97 -136 43 -50 49 -61 49 -102 0 -31 9 -61 25 -90 14 -23
25 -53 25 -66 0 -14 15 -37 36 -57 19 -18 42 -48 50 -67 8 -19 24 -44 37 -56
12 -12 27 -29 32 -39 9 -16 12 -16 49 -1 30 13 45 14 63 6 20 -9 22 -13 11
-30 -6 -10 -17 -17 -24 -14 -7 2 -15 -5 -19 -16 -5 -17 -10 -19 -25 -11 -17 9
-18 7 -13 -24 8 -48 -3 -83 -27 -91 -29 -9 -25 -39 11 -80 23 -26 35 -33 44
-25 7 5 27 8 46 6 19 -2 39 -4 45 -5 15 -1 48 -77 39 -90 -3 -6 1 -18 10 -27
9 -9 13 -24 10 -34 -7 -21 41 -60 63 -53 20 8 52 -27 52 -57 0 -15 10 -36 25
-50 14 -13 24 -31 23 -39 -2 -12 9 -17 44 -21 26 -3 50 -9 54 -13 4 -4 14 -1
23 7 9 8 27 16 41 18 21 2 25 8 22 31 -1 15 1 27 6 27 17 0 33 50 22 70 -9 17
-4 23 31 42 101 56 103 57 101 105 -1 22 5 44 15 55 13 15 14 23 5 43 -12 27
-1 75 18 75 5 0 10 15 10 34 0 33 1 34 37 31 20 -1 41 -9 47 -17 6 -8 16 -14
21 -12 6 1 23 5 38 9 25 5 28 9 22 32 -11 46 -45 85 -68 79 -21 -5 -71 26 -60
37 3 4 0 13 -7 22 -10 12 -10 15 0 15 9 0 7 7 -4 25 -9 14 -14 30 -11 35 3 5
0 18 -6 28 -10 16 -8 26 11 60 20 36 21 43 9 58 -8 10 -9 15 -3 11 7 -4 26 6
43 22 27 26 29 30 15 42 -14 11 -15 10 -12 -7 2 -13 -3 -20 -19 -22 -16 -2
-24 4 -33 32 -6 20 -17 36 -25 36 -14 0 -25 21 -25 50 0 15 -6 18 -32 14 -20
-3 -40 0 -52 9 -18 13 -18 15 -3 38 22 31 22 32 -13 47 -16 8 -30 20 -30 28 0
8 -5 14 -10 14 -6 0 -15 11 -22 25 -6 13 -14 22 -19 20 -4 -3 -10 -2 -13 3 -2
4 -18 9 -35 10 -17 1 -47 13 -67 27 -37 25 -54 25 -54 0 0 -8 -21 -29 -46 -47
-29 -21 -47 -42 -51 -60 -3 -15 -14 -30 -24 -33 -10 -3 -21 -15 -24 -26 -4
-12 -13 -18 -21 -15 -7 3 -26 -1 -41 -9 -15 -8 -36 -15 -46 -15 -10 0 -26 -4
-36 -10 -13 -7 -29 -4 -55 10 -21 10 -52 23 -69 30 -19 6 -27 14 -21 18 6 4
18 21 27 38 15 28 14 31 -4 42 -10 7 -19 16 -19 21 0 5 -15 25 -33 44 -24 27
-36 34 -47 27 -23 -15 -29 -12 -22 12 6 23 0 23 -66 -4 -31 -12 -35 -11 -52
10 -21 25 -80 32 -80 8z m830 -676 c0 -5 -4 -10 -10 -10 -5 0 -10 5 -10 10 0
6 5 10 10 10 6 0 10 -4 10 -10z m-145 -50 c-3 -5 -1 -10 4 -10 6 0 11 -4 11
-9 0 -5 -9 -7 -19 -4 -19 5 -19 33 1 33 5 0 6 -4 3 -10z m102 -44 c-3 -7 0
-19 6 -26 9 -10 9 -14 -1 -17 -6 -3 -10 -9 -6 -14 3 -5 -6 -9 -19 -9 -16 0
-28 8 -35 25 -10 21 -9 25 3 25 8 0 15 4 15 9 0 5 8 12 18 14 9 3 19 5 21 6 2
0 1 -5 -2 -13z m-346 -58 c9 -7 18 -25 21 -40 4 -23 2 -28 -13 -28 -11 0 -19
-4 -19 -10 0 -13 -32 0 -47 19 -16 21 -16 31 0 31 9 0 12 10 9 31 -4 28 -3 30
14 20 11 -6 26 -16 35 -23z"/>
<path d="M14071 11846 c-9 -10 -8 -15 3 -19 16 -7 26 1 26 20 0 17 -14 17 -29
-1z"/>
<path d="M13122 11804 c10 -10 20 -15 24 -12 3 4 -5 12 -18 18 -22 12 -22 12
-6 -6z"/>
<path d="M12455 11290 c-3 -6 1 -7 9 -4 18 7 21 14 7 14 -6 0 -13 -4 -16 -10z"/>
<path d="M9465 11020 c-15 -6 -8 -8 25 -8 33 1 39 3 25 9 -25 9 -25 9 -50 -1z"/>
<path d="M13553 10873 c-7 -2 -13 -14 -13 -26 0 -17 -10 -25 -42 -35 -24 -7
-54 -20 -67 -29 l-24 -16 34 -18 c33 -17 71 -16 95 2 6 5 14 6 17 2 4 -3 7 1
7 10 0 11 8 17 25 17 25 0 33 14 15 25 -5 3 -10 22 -10 41 0 33 -8 39 -37 27z"/>
<path d="M13310 10781 c0 -3 8 -17 17 -31 16 -22 16 -23 0 -17 -9 3 -17 2 -17
-4 0 -6 12 -9 28 -7 21 2 27 8 27 27 0 18 -7 26 -27 32 -16 4 -28 4 -28 0z"/>
<path d="M9590 10406 c0 -2 7 -7 16 -10 8 -3 12 -2 9 4 -6 10 -25 14 -25 6z"/>
<path d="M9240 9223 c0 -5 4 -14 9 -22 7 -11 11 -9 20 8 10 18 9 21 -9 21 -11
0 -20 -3 -20 -7z"/>
<path d="M9148 9191 c-9 -15 -15 -17 -25 -9 -10 8 -18 6 -33 -7 -11 -10 -28
-15 -40 -12 -11 3 -20 1 -20 -5 0 -6 -11 -3 -25 6 -23 15 -26 15 -32 1 -3 -10
-13 -15 -23 -12 -15 4 -19 -4 -24 -45 -4 -27 -4 -53 -1 -58 3 -5 -3 -11 -14
-15 -15 -4 -19 -14 -18 -40 2 -31 6 -36 34 -41 43 -8 73 3 73 27 0 17 5 20 28
14 27 -6 28 -4 24 25 -3 24 -1 30 15 30 10 0 24 -5 30 -11 18 -18 102 -2 102
19 0 9 3 40 7 68 6 46 4 52 -20 67 -24 16 -26 16 -38 -2z"/>
<path d="M9220 9156 c0 -9 7 -12 20 -9 11 3 17 9 14 14 -8 14 -34 10 -34 -5z"/>
<path d="M7656 8717 c3 -10 9 -15 12 -12 3 3 0 11 -7 18 -10 9 -11 8 -5 -6z"/>
<path d="M7705 8691 c3 -11 2 -21 -3 -21 -5 0 -15 -11 -22 -25 -10 -20 -21
-25 -44 -24 -48 3 -76 -9 -76 -34 0 -12 -11 -39 -25 -60 -24 -34 -36 -42 -58
-38 -5 1 -6 -3 -2 -9 3 -6 10 -8 15 -5 4 3 6 -4 3 -15 -3 -11 -2 -28 3 -37 4
-10 8 -27 8 -38 1 -11 8 -21 17 -23 12 -2 18 8 23 38 3 22 13 43 21 46 8 4 15
12 15 19 0 17 20 24 45 15 15 -5 23 1 37 30 16 32 22 36 48 32 17 -2 30 0 30
6 0 5 10 12 21 15 16 4 20 10 14 24 -4 10 -8 24 -9 30 -1 7 -12 22 -24 33 -12
12 -22 27 -22 35 0 8 -5 17 -11 21 -8 4 -9 0 -4 -15z"/>
<path d="M10390 8070 c0 -5 4 -10 9 -10 6 0 13 5 16 10 3 6 -1 10 -9 10 -9 0
-16 -4 -16 -10z"/>
<path d="M9300 7230 c0 -8 -9 -10 -25 -6 -14 4 -25 2 -25 -4 0 -5 -9 -10 -20
-10 -32 0 -20 -20 28 -47 29 -17 30 -17 34 15 2 15 8 26 16 25 14 -3 16 23 2
32 -5 3 -10 1 -10 -5z"/>
<path d="M9270 7130 c20 -13 33 -13 25 0 -3 6 -14 10 -23 10 -15 0 -15 -2 -2
-10z"/>
<path d="M8104 6975 c-10 -8 -28 -15 -39 -15 -21 0 -46 -23 -58 -52 -3 -10
-13 -15 -25 -11 -16 4 -20 -2 -24 -26 -4 -31 20 -69 35 -55 4 4 13 2 21 -5 12
-10 15 -5 21 29 8 49 35 55 52 10 8 -20 18 -30 32 -30 12 0 21 5 21 11 0 6 6
9 14 6 7 -3 18 -1 24 5 8 8 16 8 27 -2 10 -8 15 -9 15 -1 0 14 35 14 61 1 15
-8 19 -7 19 3 0 35 -14 77 -25 77 -7 0 -29 12 -50 26 -22 14 -46 23 -57 21
-11 -3 -22 1 -25 9 -7 18 -14 18 -39 -1z"/>
<path d="M8404 6943 c4 -6 -10 -19 -34 -30 -39 -18 -50 -36 -30 -48 6 -4 8
-10 5 -15 -11 -18 24 -74 55 -89 39 -19 50 -56 23 -77 -10 -7 -23 -12 -29 -10
-20 7 -32 -29 -26 -82 2 -29 9 -52 14 -52 5 0 6 5 3 10 -3 6 1 13 9 16 9 3 16
12 16 19 0 8 14 15 32 17 29 3 33 7 39 40 4 27 2 39 -9 43 -10 4 -13 16 -10
42 3 28 -2 46 -20 73 -19 28 -23 43 -18 76 4 29 1 47 -10 60 -9 10 -13 14 -10
7z"/>
<path d="M7878 6833 c-26 -4 -41 -23 -18 -23 5 0 7 -6 4 -14 -3 -8 0 -17 6
-21 8 -5 8 -11 -1 -21 -9 -12 -5 -14 25 -14 20 0 36 -5 36 -11 0 -6 -9 -8 -21
-4 -13 4 -25 2 -29 -5 -6 -9 -12 -9 -29 0 -33 17 -45 8 -21 -18 11 -12 16 -22
10 -22 -6 0 -8 -5 -4 -12 4 -6 -1 -17 -11 -25 -18 -12 -18 -13 2 -13 12 0 23
5 25 12 2 6 14 -4 26 -23 12 -19 17 -35 12 -37 -6 -2 -10 -9 -10 -16 0 -20
-40 -67 -51 -60 -15 9 -81 -25 -73 -38 4 -6 -12 -9 -48 -6 -54 3 -55 2 -45
-19 10 -23 -7 -58 -23 -48 -5 3 -11 1 -14 -4 -4 -5 8 -9 25 -9 22 1 33 7 37
20 3 14 7 16 18 7 8 -6 14 -17 14 -25 0 -7 9 -18 20 -24 16 -9 20 -8 20 5 0
16 4 16 81 -3 45 -11 59 -20 59 -35 0 -7 12 -25 26 -40 23 -25 25 -32 15 -53
-6 -14 -11 -36 -11 -50 0 -31 -28 -82 -47 -86 -9 -2 -2 -20 22 -55 20 -30 30
-53 23 -53 -19 0 32 -33 56 -36 11 -2 37 -6 57 -10 35 -6 37 -5 43 30 6 32 10
36 36 36 17 0 30 -4 30 -10 0 -28 86 1 96 32 6 19 7 19 22 -3 l16 -23 6 24 c3
15 14 26 25 28 11 1 43 7 72 14 52 11 52 12 69 64 9 30 21 54 26 54 5 0 14 14
19 30 6 17 15 30 20 30 5 0 9 5 9 11 0 6 -9 8 -20 4 -13 -4 -31 2 -51 16 -25
17 -46 22 -109 23 -85 2 -110 14 -110 52 0 30 50 54 105 50 52 -4 76 23 66 75
l-6 35 -45 -11 c-25 -6 -44 -14 -42 -18 6 -18 0 -27 -18 -27 -11 0 -20 -5 -20
-11 0 -13 -79 -2 -99 15 -8 6 -35 11 -61 11 -48 0 -80 17 -80 41 0 8 6 11 17
7 12 -5 14 -3 8 7 -6 10 -4 12 8 7 8 -3 20 0 27 7 8 10 7 15 -5 20 -8 3 -15
10 -15 16 0 6 5 8 10 5 16 -10 12 11 -5 25 -8 7 -15 19 -15 27 0 7 -7 16 -15
19 -8 4 -15 13 -15 21 0 8 -5 11 -11 7 -33 -20 -88 59 -76 108 3 11 3 17 0 14
-9 -9 -44 14 -38 25 4 5 3 8 -2 8 -4 -1 -20 -4 -35 -6z"/>
<path d="M7720 6766 c0 -2 15 -6 34 -8 19 -2 32 0 30 4 -5 8 -64 12 -64 4z"/>
<path d="M8406 6721 c-4 -5 -2 -12 3 -15 5 -4 12 -2 15 3 4 5 2 12 -3 15 -5 4
-12 2 -15 -3z"/>
<path d="M9880 5930 c0 -5 7 -10 15 -10 8 0 15 5 15 10 0 6 -7 10 -15 10 -8 0
-15 -4 -15 -10z"/>
<path d="M9888 5893 c-24 -6 -32 -33 -9 -33 30 0 43 -23 31 -54 -13 -35 -13
-36 5 -36 8 0 15 6 15 14 0 8 9 21 20 29 20 14 20 15 -12 49 -19 19 -40 33
-50 31z"/>
</g>
</svg>
