<?xml version="1.0" standalone="no"?>
<!DOCTYPE svg PUBLIC "-//W3C//DTD SVG 20010904//EN"
 "http://www.w3.org/TR/2001/REC-SVG-20010904/DTD/svg10.dtd">
<svg version="1.0" xmlns="http://www.w3.org/2000/svg"
 width="848.578589pt" height="530.622061pt" viewBox="0 0 848.578589 530.622061"
 preserveAspectRatio="xMidYMid meet">
<metadata>
Created by potrace 1.15, written by Peter Selinger 2001-2017
</metadata>
<g transform="translate(-581.741630,1205.943456) scale(0.100000,-0.100000)"
fill="#222222" stroke="none">
<path d="M13195 12044 c-6 -8 -29 -18 -52 -21 -41 -5 -43 -7 -43 -38 0 -44 -9
-65 -27 -65 -7 0 -13 -6 -12 -12 3 -27 -2 -38 -16 -38 -8 0 -15 5 -15 10 0 16
-33 11 -67 -10 -35 -21 -38 -20 -113 20 -38 20 -78 17 -96 -8 -9 -12 -15 -9
-37 18 -15 17 -27 35 -27 40 0 14 -47 -3 -73 -27 -14 -12 -27 -19 -30 -17 -3
3 -20 6 -38 6 -19 0 -46 7 -60 14 -31 16 -41 9 -33 -22 4 -16 1 -24 -15 -29
-11 -3 -25 -4 -31 0 -15 10 -49 -31 -43 -53 3 -12 -4 -33 -18 -51 -21 -29 -22
-32 -5 -49 23 -26 11 -55 -20 -48 -19 5 -25 2 -30 -19 -3 -13 -15 -27 -25 -30
-11 -4 -16 -11 -13 -17 4 -6 -1 -8 -14 -4 -17 6 -23 2 -27 -16 -3 -13 -4 -34
-3 -48 2 -18 -2 -25 -17 -28 -45 -8 -47 -10 -30 -41 19 -39 19 -41 -6 -41 -11
0 -19 -5 -17 -11 6 -17 -52 -74 -71 -71 -10 2 -12 0 -5 -5 18 -13 4 -75 -17
-80 -11 -3 -19 -14 -19 -27 0 -27 -50 -66 -83 -66 -14 0 -30 -7 -38 -16 -7 -8
-34 -27 -61 -40 -39 -20 -52 -22 -69 -13 -11 6 -22 9 -23 7 -22 -36 -60 -78
-70 -78 -8 0 -20 -10 -28 -22 -14 -20 -18 -21 -44 -10 l-29 12 30 -25 c17 -14
29 -30 27 -36 -2 -7 4 -19 13 -29 15 -16 14 -18 -5 -23 -13 -3 -25 2 -35 16
-11 15 -15 17 -15 6 0 -22 -39 -51 -61 -46 -12 3 -19 0 -19 -9 0 -8 -15 -21
-34 -29 -32 -13 -57 -55 -33 -55 8 0 8 -3 0 -11 -6 -6 -9 -18 -5 -27 4 -12 1
-14 -13 -9 -9 4 -24 2 -31 -4 -13 -11 -15 -9 -14 16 0 3 -7 19 -15 35 -16 31
-32 42 -21 15 3 -10 -1 -15 -12 -15 -9 0 -23 -4 -31 -9 -11 -7 -10 -14 7 -38
13 -18 18 -34 12 -43 -4 -7 -4 -20 0 -29 5 -9 11 -24 14 -33 3 -10 13 -18 21
-18 9 0 13 5 10 11 -5 7 3 9 21 7 41 -4 63 -51 39 -78 -17 -18 -17 -21 -1 -45
9 -14 15 -29 12 -34 -4 -7 20 -40 68 -91 21 -22 -11 -62 -52 -65 -39 -3 -53
13 -57 67 -2 24 -4 45 -4 47 -1 2 -7 -2 -15 -8 -9 -8 -16 -9 -21 -2 -3 6 -22
10 -41 9 -20 -1 -39 4 -43 11 -5 7 -12 3 -21 -14 -7 -14 -16 -25 -20 -25 -16
0 -62 -49 -56 -59 4 -6 0 -11 -10 -11 -10 0 -14 -3 -11 -7 4 -3 -2 -12 -13
-20 -11 -8 -20 -20 -20 -28 0 -7 -6 -20 -14 -28 -12 -12 -12 -25 0 -93 7 -43
14 -80 14 -81 0 -2 -4 -3 -10 -3 -12 0 -60 -48 -60 -60 0 -5 -13 -16 -29 -25
-19 -9 -32 -25 -36 -45 -5 -22 -12 -30 -28 -30 -25 1 -68 51 -49 58 9 3 9 9 1
24 -6 11 -8 33 -5 49 3 18 -1 43 -11 63 -13 28 -23 35 -55 40 -23 4 -41 13
-45 24 -10 27 -36 42 -50 30 -7 -6 -13 -7 -13 -3 0 4 -6 2 -14 -4 -11 -9 -23
-9 -51 3 -32 14 -38 14 -52 1 -8 -8 -32 -15 -54 -15 -21 0 -39 -4 -39 -10 0
-5 -6 -10 -13 -10 -8 0 -19 -11 -25 -25 -8 -18 -19 -25 -40 -25 -17 0 -38 -10
-52 -25 -13 -14 -32 -25 -43 -25 -13 0 -17 -5 -13 -16 3 -9 6 -23 6 -31 0 -10
6 -14 20 -10 14 4 20 0 20 -11 0 -10 3 -13 8 -7 4 6 16 10 27 10 11 0 26 4 33
9 6 5 31 9 53 10 35 1 45 -4 70 -34 48 -56 49 -58 44 -72 -8 -19 21 -84 40
-91 8 -4 15 -14 15 -23 0 -16 1 -16 18 -1 10 10 28 17 40 17 12 0 22 5 22 11
0 5 13 15 29 20 16 6 31 18 34 28 3 14 12 17 36 13 20 -3 31 0 31 8 0 7 6 10
14 7 8 -3 17 -1 19 6 3 8 15 2 34 -15 16 -16 41 -28 55 -28 15 0 29 -6 32 -12
5 -10 7 -10 12 0 3 6 10 10 15 6 5 -3 9 4 9 14 0 11 7 23 16 26 10 4 14 14 11
26 -3 11 -1 20 4 20 5 0 9 -5 9 -11 0 -7 11 -9 30 -5 17 3 30 2 30 -3 0 -4 11
-6 24 -4 25 5 70 -13 62 -25 -3 -5 0 -14 6 -22 8 -12 9 -12 4 3 -3 11 0 17 10
17 8 0 17 7 20 15 4 8 12 15 20 15 7 0 11 6 8 14 -4 11 4 16 28 18 23 2 36 10
43 26 11 25 28 31 18 6 -3 -10 0 -22 8 -28 8 -6 15 -16 16 -22 2 -13 -28 -15
-43 -2 -19 14 -44 -2 -44 -29 0 -14 -8 -32 -17 -40 -16 -13 -15 -13 6 -3 21
11 61 16 132 19 23 1 25 4 21 31 -4 25 -1 29 13 24 25 -10 16 46 -10 60 -11 6
-23 15 -26 20 -4 4 -17 5 -30 1 -21 -7 -22 -6 -10 9 7 9 25 22 40 29 18 8 27
22 29 42 2 17 9 37 17 45 7 8 11 27 8 43 -2 18 1 29 11 33 9 3 12 12 9 21 -4
11 -2 14 5 9 7 -4 12 -3 12 2 0 5 9 12 21 15 17 5 19 11 14 40 -4 19 -2 37 3
41 17 10 1 99 -21 116 -18 15 -19 21 -9 49 7 19 9 38 5 45 -4 6 0 5 9 -2 11
-9 17 -9 20 -2 2 8 15 7 45 -3 44 -15 76 -7 67 17 -5 13 -2 13 74 1 12 -2 22
1 22 6 0 6 9 5 21 -1 25 -14 49 -6 49 16 0 20 45 64 57 55 12 -9 15 -48 4 -55
-8 -5 -4 -46 4 -46 2 0 14 6 28 13 19 10 23 17 15 25 -8 8 -7 18 6 36 9 14 16
41 16 60 0 31 5 38 40 58 28 16 40 30 40 46 0 12 5 22 10 22 6 0 10 7 10 15 0
8 4 15 10 15 5 0 9 6 7 13 -1 7 12 13 37 15 37 3 38 5 32 33 -6 29 -5 29 19
13 24 -15 25 -15 19 0 -5 14 -2 16 20 10 17 -4 26 -2 26 6 0 7 7 10 15 6 9 -3
15 0 15 8 0 8 9 16 20 19 16 4 18 2 10 -13 -8 -14 -5 -16 15 -12 15 2 32 -4
46 -17 25 -23 14 -29 -15 -8 -16 12 -24 11 -55 -5 -20 -10 -35 -24 -33 -30 2
-6 -2 -14 -8 -18 -8 -5 -9 -13 -2 -26 6 -11 18 -41 27 -67 9 -27 24 -54 32
-60 8 -7 37 -32 64 -56 40 -36 50 -41 55 -27 6 15 7 15 19 -1 11 -15 13 -15
23 4 7 12 25 26 42 31 16 6 30 16 30 23 0 7 10 5 27 -6 19 -13 47 -18 105 -18
62 0 84 -4 103 -19 l24 -19 20 47 c25 56 25 58 6 50 -9 -3 -15 0 -15 10 0 8 5
12 10 9 16 -10 12 5 -10 32 -11 14 -20 32 -20 40 0 11 4 11 28 0 15 -7 35 -12
45 -9 18 4 18 4 0 17 -17 13 -17 14 0 32 18 21 23 38 8 29 -5 -3 -25 1 -45 9
-45 19 -46 19 -46 -5 0 -12 10 -24 23 -30 14 -5 16 -9 6 -9 -9 -1 -19 2 -23 6
-4 4 -19 9 -33 11 -27 3 -81 40 -82 56 -1 4 11 5 25 2 24 -6 25 -5 19 23 -5
24 -3 30 15 36 13 4 19 12 16 21 -3 8 0 15 7 15 7 1 -1 4 -18 8 -23 5 -31 12
-33 33 -3 23 1 27 25 30 17 2 28 9 28 18 0 8 12 27 25 41 14 15 36 38 49 53
13 14 34 29 46 32 18 4 24 15 29 48 4 23 4 49 1 58 -3 8 1 21 10 28 8 7 15 21
15 31 0 10 9 21 20 24 22 7 25 26 10 56 -7 13 -7 19 0 19 5 0 10 -4 10 -10 0
-5 10 -10 23 -10 29 0 98 56 91 74 -5 13 14 48 62 113 13 19 15 30 6 64 -9 34
-8 40 4 35 12 -4 12 -2 4 14 -8 15 -8 20 2 20 7 1 3 9 -10 20 -13 11 -21 24
-17 30 4 6 -7 10 -28 10 -21 0 -41 7 -52 20 -20 22 -7 27 25 10 14 -8 25 -7
40 2 19 12 20 19 14 80 -6 61 -5 67 15 77 11 7 21 18 21 26 0 20 -13 19 -25
-1z m-593 -922 c-5 -25 -20 -25 -35 0 -7 11 -6 26 3 48 l13 32 12 -28 c6 -16
9 -39 7 -52z m-70 -16 c11 -17 -2 -22 -13 -6 -9 12 -10 11 -5 -3 18 -54 18
-67 3 -67 -9 0 -20 -7 -25 -16 -6 -11 -11 -13 -16 -5 -4 6 -18 11 -32 11 -21
0 -23 3 -15 17 7 13 5 23 -6 35 -19 21 -3 24 29 7 18 -9 19 -8 13 10 -3 11 -3
25 0 31 7 12 57 2 67 -14z m-1188 -361 c3 -8 1 -15 -4 -15 -6 0 -10 7 -10 15
0 8 2 15 4 15 2 0 6 -7 10 -15z m633 -51 c-3 -3 -12 -4 -19 -1 -8 3 -5 6 6 6
11 1 17 -2 13 -5z m-492 -614 c3 -5 1 -10 -4 -10 -6 0 -11 5 -11 10 0 6 2 10
4 10 3 0 8 -4 11 -10z"/>
<path d="M12340 11932 c0 -15 25 -62 33 -62 5 0 5 5 1 12 -5 8 -2 9 9 5 24 -9
21 6 -6 31 -24 23 -37 28 -37 14z"/>
<path d="M13257 11676 c-3 -8 5 -18 19 -25 13 -6 44 -29 69 -52 35 -33 48 -40
58 -30 18 18 -5 46 -38 46 -18 1 -34 10 -47 28 -26 36 -54 51 -61 33z"/>
<path d="M13475 11550 c3 -5 14 -10 23 -10 15 0 15 2 2 10 -20 13 -33 13 -25
0z"/>
<path d="M13429 11530 c13 -11 28 -20 35 -20 6 1 0 10 -13 20 -13 11 -28 20
-35 20 -6 -1 0 -10 13 -20z"/>
<path d="M13480 11503 c0 -5 5 -15 10 -23 8 -12 10 -11 10 8 0 12 -4 22 -10
22 -5 0 -10 -3 -10 -7z"/>
<path d="M13309 11461 c-24 -19 -30 -21 -50 -21 -6 0 -9 -6 -6 -14 5 -13 -10
-18 -80 -28 -7 -1 -13 -7 -13 -15 0 -7 -8 -13 -19 -13 -10 0 -24 -7 -31 -15
-7 -8 -21 -15 -31 -15 -11 0 -19 -5 -19 -11 0 -5 -16 -17 -35 -25 -19 -8 -35
-21 -35 -29 0 -8 -3 -15 -7 -15 -5 0 -8 -25 -9 -55 0 -43 -5 -60 -24 -80 -22
-24 -22 -26 -6 -44 11 -12 14 -21 7 -26 -7 -4 -9 -30 -5 -76 5 -47 3 -69 -4
-69 -17 0 -2 -72 19 -94 11 -12 30 -19 50 -18 17 0 53 -8 80 -18 45 -18 76
-18 89 1 6 9 61 11 182 6 85 -3 88 -4 117 -38 23 -25 33 -31 39 -21 13 20 40
3 44 -28 2 -16 1 -27 -3 -25 -12 8 -18 -22 -6 -34 12 -12 65 -15 91 -5 8 3 12
12 9 20 -4 10 0 12 11 8 11 -4 26 2 42 17 24 23 25 23 57 6 27 -15 39 -16 62
-7 19 7 31 8 39 0 5 -5 19 -10 30 -10 10 0 17 3 13 6 -3 3 -2 17 3 29 6 15 5
25 -1 27 -6 2 -13 24 -16 48 -6 43 -5 44 13 29 21 -18 67 -32 59 -18 -3 4 11
1 32 -7 27 -11 34 -12 26 -3 -7 7 -13 25 -13 40 0 26 1 27 41 16 33 -8 43 -7
50 4 13 20 11 35 -2 22 -9 -9 -20 -7 -45 5 -19 8 -34 20 -34 25 0 5 -10 20
-22 31 -13 12 -29 31 -36 42 -10 16 -11 12 -8 -31 2 -27 6 -55 8 -60 1 -6 -6
-22 -18 -37 -19 -24 -22 -25 -47 -12 -19 10 -27 11 -27 3 0 -18 -79 -4 -94 17
-7 9 -18 14 -23 11 -6 -4 -17 0 -24 9 -10 13 -10 19 0 36 11 18 9 24 -14 48
-15 16 -24 33 -20 40 11 17 -4 60 -20 60 -8 0 -22 11 -31 25 -9 13 -24 27 -35
30 -11 4 -17 10 -15 14 3 4 -3 14 -13 23 -15 13 -18 32 -18 115 -1 110 -7 127
-61 178 -40 37 -59 43 -68 21 -6 -15 -40 -10 -82 13 -16 8 -25 7 -43 -8z"/>
<path d="M8463 11202 c-32 -15 -42 -38 -24 -57 4 -6 11 -22 15 -36 4 -21 2
-28 -14 -32 -15 -4 -19 -12 -16 -39 2 -19 6 -40 10 -46 9 -14 -18 -115 -33
-120 -6 -2 -11 -10 -11 -18 0 -8 -6 -14 -14 -14 -8 0 -28 -16 -44 -35 -21 -23
-34 -31 -38 -23 -5 7 -10 4 -15 -10 -5 -13 -17 -22 -29 -22 -31 0 -24 -12 26
-43 32 -19 44 -32 40 -43 -3 -8 1 -17 9 -20 17 -7 21 -34 5 -34 -10 0 -7 -67
4 -77 3 -3 12 2 21 11 23 22 32 20 39 -10 7 -24 8 -25 25 -10 10 9 21 13 24 9
4 -3 7 -1 7 6 0 7 5 9 10 6 6 -3 30 -3 55 1 42 6 46 9 57 48 6 22 17 48 25 57
21 25 17 116 -7 146 -14 18 -17 30 -10 38 6 7 5 18 -5 33 -9 12 -11 23 -5 27
6 4 6 15 0 31 -6 14 -7 30 -4 36 10 15 57 -1 83 -28 17 -19 26 -23 34 -15 6 6
20 11 30 11 14 0 17 3 10 13 -6 6 -8 29 -6 50 5 33 8 37 35 37 21 0 27 -4 21
-12 -13 -22 -12 -38 3 -38 8 0 14 -5 14 -11 0 -6 10 -9 23 -7 15 2 21 9 20 22
-1 11 5 25 12 32 7 8 16 19 19 26 5 10 7 10 12 1 3 -7 14 -13 24 -13 10 0 27
-11 38 -25 21 -26 42 -33 42 -14 0 6 -9 13 -20 16 -25 7 -26 28 -2 43 11 8 13
13 5 16 -7 3 -10 11 -7 18 6 15 -43 29 -52 14 -3 -5 -14 -6 -25 -3 -14 5 -19
2 -19 -13 0 -23 -26 -37 -33 -18 -3 8 -22 17 -42 20 -20 4 -39 14 -42 22 -3 7
-11 14 -19 14 -25 0 -64 -23 -69 -42 -4 -12 -16 -18 -36 -18 -16 0 -29 -4 -29
-10 0 -11 -50 -14 -51 -2 0 4 -2 17 -3 29 -1 12 3 24 11 27 7 3 13 16 13 30 0
16 7 26 23 30 22 6 22 7 3 21 -22 17 -61 20 -51 5 3 -5 1 -10 -5 -10 -7 0 -14
9 -17 20 -6 23 -7 23 -50 2z m72 -182 c3 -5 1 -10 -4 -10 -6 0 -11 5 -11 10 0
6 2 10 4 10 3 0 8 -4 11 -10z"/>
<path d="M13797 11104 l-28 -23 26 -7 c15 -4 32 -1 40 6 17 14 33 6 78 -44
l27 -31 -14 29 c-8 16 -21 33 -28 38 -10 7 -10 11 4 21 9 8 13 18 9 25 -10 16
-73 4 -65 -12 3 -6 -1 -4 -8 5 -12 15 -16 15 -41 -7z"/>
<path d="M9012 10946 c10 -7 15 -16 11 -19 -3 -4 -1 -7 5 -7 6 0 14 5 18 11 7
13 -13 29 -36 29 -12 -1 -12 -3 2 -14z"/>
<path d="M8626 10898 c-8 -31 -7 -38 2 -38 5 0 9 14 10 30 1 36 -3 38 -12 8z"/>
<path d="M12782 10878 c5 -15 28 -18 29 -3 0 6 -7 12 -17 13 -10 3 -15 -1 -12
-10z"/>
<path d="M14175 10840 c21 -22 25 -32 17 -45 -9 -16 -11 -16 -31 4 -22 22 -51
28 -51 11 0 -6 -12 -18 -27 -28 -16 -9 -28 -23 -29 -29 -1 -7 -2 -17 -2 -23
-1 -5 -22 -1 -47 10 -37 16 -45 17 -45 5 0 -17 103 -50 127 -41 8 4 22 1 30
-6 13 -10 19 -8 33 10 16 19 20 20 30 7 14 -17 30 -20 30 -4 0 5 -5 7 -11 3
-14 -8 19 44 45 72 11 12 25 20 31 17 7 -2 17 3 24 11 20 24 -33 54 -97 54
l-54 0 27 -28z"/>
<path d="M11354 10846 c-26 -9 -29 -13 -18 -24 8 -7 14 -8 14 -2 0 14 63 13
79 -2 10 -9 12 -9 7 -1 -3 6 2 16 11 22 10 6 14 11 8 12 -49 5 -75 4 -101 -5z"/>
<path d="M11131 10784 c5 -22 12 -54 16 -72 3 -18 10 -35 15 -38 4 -3 -4 -19
-19 -35 -24 -25 -28 -37 -28 -91 0 -73 14 -87 57 -56 27 19 27 19 68 -7 41
-26 60 -26 60 1 0 8 5 14 10 14 6 0 10 5 10 10 0 6 -14 10 -30 10 -32 0 -53
26 -31 39 9 6 9 15 1 35 -14 38 -13 71 5 86 8 7 12 17 9 22 -4 6 -1 14 6 18
10 6 8 13 -6 32 -30 40 -64 60 -109 66 l-43 4 9 -38z"/>
<path d="M12955 10770 c-3 -6 1 -7 9 -4 18 7 21 14 7 14 -6 0 -13 -4 -16 -10z"/>
<path d="M10999 10687 c-15 -9 -15 -12 0 -29 15 -18 51 -25 51 -10 0 4 -8 17
-18 29 -13 16 -21 19 -33 10z"/>
<path d="M11286 10685 c-3 -8 -1 -15 4 -15 6 0 10 7 10 15 0 8 -2 15 -4 15 -2
0 -6 -7 -10 -15z"/>
<path d="M14146 10671 c-5 -7 -16 -16 -27 -19 -17 -7 -15 -12 20 -52 21 -25
37 -50 34 -56 -6 -16 14 -27 29 -17 7 4 26 6 42 4 l30 -3 -31 26 c-17 14 -35
26 -41 26 -5 0 -13 7 -16 16 -3 8 -2 12 4 9 19 -12 10 24 -13 51 -17 20 -26
24 -31 15z"/>
<path d="M10781 10642 c-7 -13 -11 -26 -8 -28 8 -8 29 25 25 38 -3 8 -9 4 -17
-10z"/>
<path d="M10818 10605 c-7 -15 -17 -24 -25 -20 -16 5 -12 -20 9 -62 9 -17 8
-29 -2 -47 -7 -14 -10 -34 -7 -45 3 -12 1 -21 -4 -21 -5 0 -9 -7 -9 -16 0 -13
-7 -15 -40 -9 l-39 7 -1 -44 c0 -24 -1 -53 -1 -66 -1 -28 18 -52 41 -52 10 0
21 -6 23 -12 4 -10 8 -10 15 1 5 7 15 10 21 7 6 -4 11 -1 11 8 0 9 6 13 14 10
9 -3 21 5 31 20 14 21 21 24 36 15 14 -7 19 -6 19 2 0 8 4 8 13 1 12 -10 66
-5 68 7 0 3 1 22 3 42 3 39 42 99 64 99 12 0 12 3 2 15 -7 8 -18 15 -25 15 -7
0 -18 7 -26 16 -9 10 -22 14 -41 10 -21 -4 -30 -1 -38 14 -6 11 -17 20 -25 20
-11 0 -15 11 -15 38 0 31 -5 41 -30 55 -30 18 -30 18 -42 -8z"/>
<path d="M11370 10555 c0 -22 -3 -25 -20 -20 -11 3 -20 3 -20 -2 0 -4 9 -14
20 -21 11 -7 20 -11 20 -10 0 2 4 18 9 35 6 20 6 35 0 38 -5 4 -9 -6 -9 -20z"/>
<path d="M12510 10558 c0 -13 6 -18 17 -16 24 5 27 25 3 31 -15 4 -20 0 -20
-15z"/>
<path d="M8524 10528 c3 -12 0 -18 -9 -18 -8 0 -15 -9 -15 -20 0 -13 -7 -20
-20 -20 -33 0 -23 -55 18 -103 18 -20 26 -57 13 -57 -5 0 -14 13 -21 30 -17
42 -70 54 -70 15 0 -7 -7 -11 -17 -9 -25 6 -68 -19 -65 -38 1 -9 -7 -18 -20
-22 -41 -11 -222 -14 -235 -4 -9 8 -13 6 -13 -3 0 -14 -32 -20 -102 -19 -23 0
-28 -4 -28 -24 0 -14 5 -28 11 -32 8 -4 7 -9 -2 -15 -11 -7 -11 -14 4 -39 10
-16 15 -35 12 -40 -7 -12 3 -50 13 -49 20 3 32 -2 32 -14 0 -8 11 -19 25 -25
26 -12 29 -20 19 -46 -5 -12 -10 -14 -19 -6 -16 14 -30 -20 -20 -49 4 -14 0
-21 -15 -26 -22 -7 -21 -30 5 -71 19 -29 -2 -93 -32 -100 -13 -4 -23 -12 -23
-20 0 -8 -4 -14 -8 -14 -4 0 -6 -29 -4 -64 4 -58 2 -65 -16 -70 -12 -4 -24
-16 -27 -27 -4 -10 -11 -19 -16 -19 -15 0 -69 -43 -69 -55 0 -14 -67 -79 -97
-94 -13 -7 -23 -21 -23 -31 0 -12 -7 -20 -17 -21 -10 0 -47 -2 -83 -2 -55 -2
-65 -5 -70 -22 -6 -22 -24 -27 -117 -29 -35 0 -58 -5 -53 -10 5 -5 -2 -19 -15
-34 -19 -21 -21 -29 -13 -48 8 -17 8 -27 -2 -39 -11 -13 -9 -20 16 -46 37 -39
25 -66 -30 -61 -27 3 -36 0 -36 -12 0 -24 -41 -32 -57 -10 -12 17 -13 17 -13
-4 0 -27 -1 -27 -43 -2 -35 21 -52 59 -48 108 2 15 -3 23 -16 24 -10 1 -25 2
-33 3 -8 0 -34 13 -56 29 -37 24 -42 31 -39 62 4 40 -1 44 -58 49 -24 3 -36 1
-28 -4 10 -7 11 -13 2 -30 -7 -12 -17 -19 -23 -15 -24 15 -73 14 -85 -2 -11
-14 -16 -12 -48 22 l-37 39 7 -35 c6 -33 17 -65 36 -102 5 -10 9 -34 9 -54 0
-31 -2 -35 -15 -24 -23 19 -48 -6 -40 -41 4 -15 1 -30 -5 -34 -8 -5 -8 -10 0
-20 7 -8 8 -20 4 -26 -4 -7 -3 -9 3 -6 6 4 16 0 23 -8 7 -8 21 -15 32 -15 26
0 98 -60 98 -82 0 -10 -4 -18 -10 -18 -5 0 -10 -7 -10 -16 0 -8 -4 -13 -9 -10
-5 4 -11 1 -13 -6 -4 -10 -10 -10 -32 0 -15 6 -43 12 -63 12 -20 0 -45 7 -55
17 -17 15 -18 15 -18 0 0 -10 -8 -17 -20 -17 -24 0 -26 -20 -4 -61 9 -18 21
-29 29 -25 7 2 16 2 19 -1 8 -8 -25 -54 -35 -47 -5 3 -9 -3 -9 -13 0 -21 -31
-122 -43 -140 -5 -7 -16 -13 -26 -13 -9 0 -26 -6 -36 -14 -17 -12 -18 -16 -5
-32 13 -16 13 -17 -2 -12 -14 6 -15 3 -6 -25 21 -65 21 -84 1 -89 -12 -4 -24
-25 -36 -69 -10 -35 -23 -74 -28 -87 -5 -13 -9 -30 -9 -38 0 -9 -9 -27 -20
-41 -11 -14 -20 -34 -20 -44 0 -11 -7 -19 -16 -19 -8 0 -36 -12 -60 -26 -33
-20 -43 -31 -38 -43 15 -37 15 -51 0 -83 -9 -19 -15 -45 -14 -58 2 -18 -4 -28
-20 -35 -18 -8 -22 -15 -17 -34 4 -17 -1 -31 -21 -52 -25 -26 -29 -27 -103
-22 l-77 5 -11 -37 c-7 -20 -9 -43 -6 -50 5 -15 -55 -58 -73 -51 -6 2 -9 -12
-8 -37 3 -54 -44 -160 -79 -179 -24 -12 -25 -14 -9 -33 9 -11 31 -21 47 -23
69 -6 87 -4 95 7 5 9 27 3 81 -24 41 -21 91 -38 112 -40 48 -3 90 -40 83 -71
-4 -14 2 -30 19 -48 13 -14 29 -44 35 -66 9 -33 15 -40 35 -40 14 0 25 -4 25
-10 0 -5 8 -10 18 -10 9 0 38 -22 64 -49 36 -37 58 -51 88 -56 34 -6 40 -11
45 -38 6 -29 55 -81 55 -58 0 5 -4 13 -10 16 -5 3 -10 13 -10 21 0 10 7 13 23
9 14 -4 43 5 80 25 32 17 62 28 67 25 5 -3 11 -1 15 5 4 7 12 7 26 0 11 -6 19
-7 19 -1 0 5 16 19 36 31 31 17 42 19 67 10 16 -5 41 -10 55 -10 14 0 38 -11
52 -25 23 -22 29 -24 39 -11 9 11 18 12 42 3 22 -9 34 -9 49 1 17 10 21 10 26
-3 4 -8 12 -15 20 -15 20 0 56 39 51 54 -6 15 44 56 66 56 9 0 17 14 21 35 4
19 10 35 14 35 4 0 7 21 7 46 0 25 5 49 11 52 6 4 14 25 17 46 4 22 11 43 18
46 17 11 -7 50 -31 50 -15 0 -19 6 -18 25 1 14 8 25 15 25 7 0 13 7 13 15 0 8
7 15 15 15 20 0 20 46 -1 54 -11 4 -14 13 -11 28 3 11 -1 34 -9 49 -22 44 -18
69 11 69 26 0 35 26 16 46 -14 14 27 97 45 90 10 -4 14 2 14 17 0 13 6 32 14
42 14 19 15 19 35 1 16 -15 24 -16 35 -7 8 6 12 21 9 31 -3 11 0 20 6 20 6 0
11 7 11 15 0 8 5 15 11 15 5 0 8 4 4 9 -3 6 3 14 12 20 17 9 16 12 -9 36 -16
14 -28 32 -28 40 0 7 -6 16 -12 18 -9 4 -9 6 -1 6 19 2 3 39 -20 45 -17 5 -19
8 -8 15 8 5 11 16 8 25 -8 21 18 82 38 90 12 4 13 10 6 24 -7 14 -5 26 10 48
10 16 19 40 19 54 0 14 7 38 15 54 8 15 12 32 9 38 -12 18 -16 90 -5 83 6 -3
11 0 11 8 0 8 -12 18 -27 21 -14 4 -38 20 -52 35 -40 42 -66 53 -114 46 -33
-5 -46 -3 -56 9 -8 9 -22 16 -33 16 -10 0 -34 16 -54 35 l-35 35 28 25 c15 13
33 25 40 25 11 0 3 40 -18 82 -13 26 0 48 29 48 l26 0 -23 21 c-12 12 -25 18
-28 15 -12 -12 -45 16 -40 35 5 20 -16 74 -34 84 -20 13 -7 23 35 29 32 5 45
12 49 26 8 29 24 24 30 -9 6 -26 10 -29 64 -36 88 -10 100 -14 112 -41 7 -15
7 -23 1 -19 -5 3 -10 2 -10 -4 0 -5 4 -12 9 -15 5 -3 7 -15 4 -26 -3 -11 -1
-20 4 -20 6 0 8 -11 6 -24 -4 -17 4 -33 27 -58 27 -28 31 -29 26 -11 -6 18 -4
22 8 17 8 -3 14 -16 13 -31 -1 -14 3 -28 9 -30 7 -2 10 6 6 23 -3 19 -1 25 7
20 7 -5 11 1 11 16 1 36 72 81 149 93 63 10 65 9 94 -18 16 -15 32 -25 35 -22
3 3 13 -7 23 -22 21 -32 59 -37 77 -12 7 11 24 19 38 19 20 0 26 -7 36 -42 8
-31 21 -49 45 -65 19 -13 40 -23 47 -23 15 0 40 -27 49 -53 4 -11 -1 -25 -13
-37 -46 -46 -13 -77 77 -75 51 1 72 -12 58 -35 -3 -5 -1 -11 5 -15 5 -3 10
-14 10 -24 0 -31 38 -40 79 -19 20 11 35 23 33 28 -1 6 2 10 7 10 13 0 19 46
8 66 -9 15 -5 16 32 11 29 -3 41 -1 41 7 0 24 64 15 124 -17 41 -23 60 -28 63
-19 3 7 23 12 49 12 37 0 44 3 44 20 0 20 0 20 51 1 28 -11 56 -18 64 -15 7 3
15 -2 19 -11 4 -11 16 -15 42 -13 26 2 39 -3 46 -16 5 -10 30 -31 55 -46 44
-28 47 -29 77 -13 17 9 42 19 56 23 15 4 27 16 30 31 3 13 14 25 24 27 31 6
66 -8 66 -26 0 -9 14 -30 31 -46 16 -16 28 -35 25 -42 -3 -8 -1 -14 4 -14 5 0
11 9 15 19 3 11 11 18 18 16 7 -2 24 -6 40 -9 18 -4 27 -13 27 -25 0 -10 7
-22 16 -25 8 -3 12 -2 9 4 -3 6 1 13 9 16 9 3 16 14 16 23 0 25 11 33 28 19 8
-7 28 -13 43 -14 28 -2 28 -1 13 27 -8 16 -29 35 -47 43 -35 15 -119 96 -99
96 7 0 12 11 12 24 0 26 -31 41 -49 23 -8 -8 -11 -6 -11 7 0 12 -5 16 -17 12
-10 -3 -40 -8 -68 -12 -27 -3 -58 -10 -67 -15 -15 -8 -18 -5 -18 16 0 14 4 25
9 25 18 0 22 63 5 81 -9 10 -13 26 -10 36 15 46 -100 193 -150 193 -14 0 -24
6 -24 14 0 8 -11 24 -25 37 -35 34 -33 56 3 31 15 -11 37 -23 50 -27 13 -4 28
-18 34 -31 7 -15 20 -24 33 -24 12 0 39 -13 60 -30 44 -35 47 -36 38 -14 -5
15 0 16 43 10 53 -8 74 -25 115 -91 26 -43 36 -49 90 -49 39 -1 69 -20 69 -43
0 -8 4 -12 9 -9 11 7 24 -56 15 -77 -3 -9 3 -24 15 -36 12 -12 21 -29 21 -40
0 -15 10 -19 47 -24 26 -3 49 -10 51 -16 2 -6 9 -11 15 -11 6 0 24 -12 39 -27
20 -19 28 -37 28 -60 0 -48 24 -81 55 -75 14 2 25 1 25 -4 0 -17 -25 -74 -32
-74 -17 0 -7 -18 13 -23 14 -4 18 -10 13 -19 -6 -10 -4 -10 9 1 16 13 16 15 1
26 -19 13 -12 50 10 58 21 8 56 -4 56 -19 0 -8 6 -14 14 -14 8 0 16 -7 20 -15
3 -8 14 -15 23 -15 12 0 26 -15 38 -42 22 -48 73 -81 108 -73 16 4 29 -1 41
-14 11 -12 30 -21 43 -21 27 0 39 -23 49 -100 4 -34 3 -50 -5 -50 -6 0 -11 -5
-11 -10 0 -6 3 -9 8 -8 17 5 94 -55 103 -81 6 -16 21 -33 33 -39 13 -6 32 -29
42 -51 10 -23 24 -41 31 -41 7 0 14 -10 14 -22 1 -17 2 -19 6 -5 3 11 14 17
35 17 26 0 30 -3 26 -24 -4 -19 -1 -22 14 -18 10 2 18 -1 18 -8 0 -10 5 -9 18
2 11 10 28 14 48 11 18 -3 34 -1 38 5 3 5 -19 38 -49 72 -59 68 -65 80 -37 80
28 0 75 47 69 69 -3 13 5 29 24 47 27 26 30 27 42 10 16 -23 53 -17 49 7 -2
12 4 17 23 17 14 0 25 5 25 11 0 7 11 9 27 6 33 -6 77 24 94 64 6 16 15 26 20
24 4 -3 12 9 17 27 l9 33 12 -38 c15 -45 72 -110 124 -144 21 -13 36 -27 33
-31 -3 -5 -1 -14 5 -22 7 -12 9 -12 9 -2 0 10 8 12 30 7 37 -8 92 3 84 16 -3
6 0 10 7 8 25 -3 40 1 35 9 -3 5 4 15 15 22 10 8 19 20 19 27 0 9 8 11 26 7
20 -5 26 -2 31 15 3 11 11 21 18 21 24 0 47 50 40 86 -4 25 -2 34 8 34 7 0 20
11 27 25 12 22 10 28 -14 59 -14 19 -26 43 -26 53 0 27 -47 73 -75 73 -24 0
-55 23 -55 41 0 5 -9 9 -20 9 -12 0 -17 5 -14 13 2 7 -7 28 -21 47 -14 19 -25
43 -26 54 0 12 -3 15 -6 9 -2 -7 -18 -13 -35 -13 -23 0 -28 3 -21 13 24 31 13
62 -42 115 -46 45 -55 50 -63 36 -13 -23 -29 -11 -34 26 -4 23 -1 30 9 26 19
-8 6 43 -19 71 -20 21 -20 21 0 32 11 6 23 18 26 27 8 21 -13 47 -32 39 -8 -3
-21 0 -29 7 -12 10 -18 9 -28 -5 -7 -9 -22 -17 -34 -17 -12 0 -20 -4 -17 -9 3
-4 -2 -16 -12 -24 -17 -15 -20 -15 -40 6 -59 61 -61 65 -47 77 15 13 10 35
-14 63 -17 21 -16 87 2 100 7 4 27 5 45 2 25 -5 32 -2 32 10 0 8 4 15 10 15 5
0 7 7 4 15 -4 8 -14 15 -24 15 -27 0 -46 28 -33 49 6 9 8 34 4 56 -5 32 -11
41 -29 43 -13 2 -39 14 -59 28 -43 29 -63 31 -38 4 12 -14 14 -20 5 -20 -7 0
-19 -8 -26 -17 -13 -17 -15 -17 -28 0 -14 18 -15 17 -21 -3 -4 -11 -31 -45
-61 -74 -33 -33 -54 -63 -54 -76 0 -20 -4 -22 -30 -17 -16 4 -32 2 -36 -4 -3
-6 -16 -9 -29 -7 -12 1 -30 -4 -39 -11 -10 -8 -20 -10 -26 -5 -13 14 -70 127
-70 140 0 13 -22 24 -50 24 -10 0 -20 9 -23 20 -4 15 0 20 15 20 18 0 18 1 4
16 -9 8 -16 26 -16 39 0 13 -6 26 -12 28 -10 4 -10 8 0 15 20 14 -37 52 -77
52 -29 0 -31 -2 -21 -21 9 -16 8 -25 -6 -40 -24 -26 -41 -24 -47 7 -3 20 0 28
13 31 13 3 19 17 22 46 3 23 2 47 -2 52 -4 6 -11 24 -14 41 -6 26 -3 34 20 50
15 10 36 29 47 41 15 17 24 20 34 12 7 -6 19 -9 27 -6 20 8 45 -51 27 -63 -9
-5 -10 -13 -4 -26 6 -13 4 -29 -7 -50 -13 -26 -19 -30 -39 -23 -20 8 -22 6
-16 -14 4 -12 14 -29 21 -37 13 -13 16 -13 24 0 25 40 36 50 58 50 19 0 23 4
19 20 -3 11 -1 23 4 26 5 3 5 13 -1 24 -8 15 -5 20 20 29 18 6 30 17 30 28 0
10 16 28 35 41 28 18 35 28 35 55 0 31 -2 33 -35 33 -23 0 -37 -5 -40 -16 -3
-9 -20 -27 -38 -40 -17 -13 -36 -29 -40 -37 -17 -28 -24 -10 -15 41 10 54 9
55 -24 85 -18 17 -40 33 -49 36 -9 3 -19 19 -21 35 -4 27 -2 30 21 31 23 1 22
2 -9 12 l-35 10 29 6 c52 10 43 31 -12 31 -42 0 -52 3 -57 20 -7 21 -58 54
-68 43 -4 -3 -11 7 -17 22 -18 47 31 144 66 131 14 -5 16 -1 10 34 -6 39 -5
40 18 34 13 -3 27 -1 30 4 11 19 -7 75 -26 79 -10 3 -18 10 -18 17 0 6 -7 3
-14 -7 -15 -20 -56 -17 -83 5 -12 10 -17 9 -28 -5 -17 -24 -77 -22 -100 3 -11
12 -31 20 -50 20 -22 0 -40 9 -60 30 -16 17 -35 30 -42 30 -7 0 -13 5 -13 11
0 11 -29 5 -68 -13 -15 -8 -22 -19 -20 -32 2 -13 -2 -20 -9 -19 -7 2 -13 -1
-13 -6 0 -23 -147 -49 -179 -32 -17 10 -20 9 -15 -4 4 -8 13 -15 21 -15 11 0
13 -7 9 -25 -6 -22 11 -63 34 -85 3 -3 5 -22 6 -42 0 -33 -3 -38 -28 -43 -17
-4 -28 -13 -28 -23 0 -12 -9 -7 -30 16 -24 28 -27 38 -20 58 7 18 6 24 -4 24
-7 0 -19 7 -26 15 -11 13 -14 13 -24 1 -17 -23 -64 -8 -92 30 -14 18 -31 31
-38 28 -7 -3 -19 2 -26 11 -16 19 -30 19 -30 0 0 -24 -82 -20 -105 5 -10 11
-21 17 -26 14 -5 -2 -22 2 -38 11 -17 8 -44 15 -61 15 -23 0 -33 6 -42 25 -6
14 -18 26 -27 27 -9 0 -21 2 -28 2 -6 1 -19 8 -30 17 -20 18 -123 34 -123 19
0 -6 -5 -9 -12 -7 -6 1 -17 -9 -25 -23 -7 -14 -13 -19 -13 -12 0 6 -9 12 -21
12 -11 0 -18 4 -15 9 4 5 -4 7 -16 3 -21 -5 -21 -6 7 -28 50 -40 75 -50 85
-34 7 11 11 12 25 0 12 -10 13 -15 4 -21 -10 -6 -10 -11 2 -25 11 -13 11 -18
2 -21 -7 -3 -13 -13 -13 -23 0 -32 -25 -29 -49 6 -17 24 -29 33 -41 29 -9 -3
-23 1 -30 10 -8 10 -9 15 -1 15 21 0 11 18 -14 24 -14 4 -23 11 -20 16 3 5 -4
22 -15 38 -12 16 -22 45 -23 65 -1 21 -7 37 -14 37 -6 0 -19 7 -27 16 -10 10
-24 13 -37 9 -13 -5 -25 -2 -31 6 -8 11 -9 10 -4 -3z m101 -458 c3 -5 1 -10
-4 -10 -6 0 -11 5 -11 10 0 6 2 10 4 10 3 0 8 -4 11 -10z m1048 -55 c23 -9
-12 -71 -51 -90 -37 -19 -60 -12 -40 13 10 12 10 16 1 19 -7 3 -13 11 -13 19
0 9 4 13 9 10 5 -3 11 1 14 8 3 8 18 16 34 19 15 2 29 5 30 6 1 0 8 -1 16 -4z
m97 -241 c0 -16 -2 -16 -24 -8 -8 3 -12 12 -10 19 7 17 34 8 34 -11z m-958
-58 c3 -14 1 -29 -4 -34 -13 -13 -19 -90 -8 -97 6 -4 10 -18 10 -32 0 -22 -2
-24 -16 -12 -10 8 -12 15 -5 17 7 2 4 17 -8 41 -14 26 -16 42 -9 54 5 10 8 28
7 40 -2 27 10 59 21 52 4 -3 10 -16 12 -29z m-739 -267 c15 -15 23 -30 18 -34
-5 -3 -12 -1 -16 4 -3 6 -12 8 -20 4 -11 -4 -13 -1 -9 11 3 9 2 16 -4 16 -5 0
-12 6 -15 13 -9 23 17 15 46 -14z m810 -46 c-3 -8 -14 -3 -33 15 -36 36 -28
57 9 23 16 -14 26 -31 24 -38z m-123 -153 c0 -5 -2 -10 -4 -10 -3 0 -8 5 -11
10 -3 6 -1 10 4 10 6 0 11 -4 11 -10z m-1220 -281 c0 -6 -4 -7 -10 -4 -5 3
-10 11 -10 16 0 6 5 7 10 4 6 -3 10 -11 10 -16z"/>
<path d="M11990 10535 c0 -10 29 -24 34 -17 3 6 -3 12 -14 15 -11 3 -20 4 -20
2z"/>
<path d="M11930 10493 c0 -19 3 -24 8 -15 5 7 17 10 28 7 18 -6 18 -6 0 5 -15
10 -16 14 -5 21 10 6 8 9 -8 9 -18 0 -23 -6 -23 -27z"/>
<path d="M8365 10490 c3 -5 8 -10 11 -10 2 0 4 5 4 10 0 6 -5 10 -11 10 -5 0
-7 -4 -4 -10z"/>
<path d="M12005 10490 c-3 -5 -1 -10 4 -10 6 0 11 5 11 10 0 6 -2 10 -4 10 -3
0 -8 -4 -11 -10z"/>
<path d="M11964 10464 c-12 -5 -6 -64 7 -64 5 0 9 5 9 10 0 6 5 9 12 8 6 -2
14 5 16 15 2 12 -3 17 -18 17 -12 0 -18 5 -15 10 7 11 6 11 -11 4z"/>
<path d="M11901 10440 c-28 -4 -31 -7 -20 -16 20 -16 57 -26 62 -17 12 21 -9
38 -42 33z"/>
<path d="M10315 10373 c-5 -15 -4 -16 6 -5 11 10 18 7 36 -15 18 -22 22 -24
23 -10 0 9 -4 17 -10 17 -5 0 -10 7 -10 15 0 21 -36 19 -45 -2z"/>
<path d="M11940 10370 c0 -5 7 -13 15 -17 11 -7 7 -14 -22 -37 -33 -27 -37
-28 -48 -12 -7 10 -19 14 -29 10 -9 -3 -23 -1 -30 5 -17 14 -29 0 -20 -23 4
-10 1 -16 -8 -16 -7 0 -19 -9 -26 -20 -9 -16 -23 -20 -61 -20 -42 0 -49 -3
-54 -22 -7 -27 -1 -36 14 -21 6 6 18 9 25 6 8 -3 16 2 20 10 5 14 10 14 47 -2
23 -10 47 -16 54 -14 6 2 17 -5 25 -16 15 -22 95 -57 105 -47 13 13 11 36 -4
36 -12 0 -9 10 10 45 15 26 21 47 16 51 -6 3 -4 11 4 17 27 21 30 54 8 76 -22
22 -41 27 -41 11z"/>
<path d="M11572 10205 c4 -4 1 -20 -7 -35 l-14 -27 37 2 c29 0 38 5 40 22 2
13 -4 23 -15 27 -10 3 -25 9 -33 12 -8 4 -12 3 -8 -1z"/>
<path d="M10400 9899 c0 -5 5 -7 10 -4 6 3 10 8 10 11 0 2 -4 4 -10 4 -5 0
-10 -5 -10 -11z"/>
<path d="M10591 9831 c-14 -26 -14 -26 17 -35 26 -9 30 9 8 39 -13 18 -14 18
-25 -4z"/>
<path d="M11245 9840 c-3 -5 -1 -10 4 -10 6 0 11 5 11 10 0 6 -2 10 -4 10 -3
0 -8 -4 -11 -10z"/>
<path d="M11130 9811 c0 -10 -7 -21 -15 -25 -24 -9 -17 -26 10 -26 25 0 65 34
65 57 0 8 -12 13 -30 13 -23 0 -30 -5 -30 -19z"/>
<path d="M11028 9793 c21 -8 13 -23 -14 -23 -15 0 -23 -4 -19 -10 4 -6 2 -16
-3 -23 -7 -8 -5 -16 4 -25 12 -11 14 -10 14 3 0 8 8 15 19 15 11 0 21 9 25 23
10 38 7 47 -16 46 -13 0 -17 -3 -10 -6z"/>
<path d="M10611 9738 c0 -28 2 -30 9 -13 12 28 12 45 0 45 -5 0 -10 -15 -9
-32z"/>
<path d="M10885 9760 c3 -5 14 -10 23 -10 15 0 15 2 2 10 -20 13 -33 13 -25 0z"/>
<path d="M10886 9725 c4 -8 8 -15 10 -15 2 0 4 7 4 15 0 8 -4 15 -10 15 -5 0
-7 -7 -4 -15z"/>
<path d="M10948 9732 c-10 -2 -18 -8 -18 -13 0 -13 27 -11 35 2 9 13 4 16 -17
11z"/>
<path d="M11081 9724 c0 -11 3 -14 6 -6 3 7 2 16 -1 19 -3 4 -6 -2 -5 -13z"/>
<path d="M10921 9677 c-5 -14 -19 -28 -30 -32 -22 -7 -35 -31 -21 -40 6 -4 10
-1 10 4 0 6 7 11 15 11 9 0 19 8 22 18 4 9 14 22 22 29 13 9 13 14 4 24 -10
10 -14 7 -22 -14z"/>
<path d="M10960 9657 c0 -7 -7 -24 -14 -39 -17 -32 -4 -38 30 -13 12 8 23 12
26 10 2 -3 3 8 0 23 -2 19 -10 28 -23 29 -10 1 -19 -4 -19 -10z"/>
<path d="M11051 9654 c0 -11 3 -14 6 -6 3 7 2 16 -1 19 -3 4 -6 -2 -5 -13z"/>
<path d="M10275 9620 c3 -5 8 -10 11 -10 2 0 4 5 4 10 0 6 -5 10 -11 10 -5 0
-7 -4 -4 -10z"/>
<path d="M10782 9562 c3 -33 1 -37 -19 -34 -17 2 -21 -1 -17 -12 8 -21 -3 -20
-32 3 -22 17 -28 18 -51 6 -34 -18 -42 -32 -34 -63 7 -25 51 -52 51 -31 0 6
15 9 33 8 18 -2 46 5 65 16 28 17 32 24 26 47 -4 21 -2 28 10 28 27 0 19 43
-9 57 -25 11 -26 11 -23 -25z"/>
<path d="M10866 9581 c14 -15 64 -25 64 -13 0 10 -32 22 -59 22 -10 0 -11 -3
-5 -9z"/>
<path d="M9747 8377 c-11 -29 -9 -33 20 -53 l28 -17 -17 24 c-8 14 -17 34 -20
44 -3 19 -4 19 -11 2z"/>
<path d="M9810 8300 c-20 -13 -12 -17 45 -25 l50 -7 -30 21 c-33 23 -43 25
-65 11z"/>
<path d="M9930 8271 c0 -5 7 -12 16 -15 14 -5 15 -4 4 9 -14 17 -20 19 -20 6z"/>
<path d="M11505 7880 c3 -5 8 -10 11 -10 2 0 4 5 4 10 0 6 -5 10 -11 10 -5 0
-7 -4 -4 -10z"/>
<path d="M10677 7643 c-4 -3 -7 -11 -7 -17 0 -6 5 -5 12 2 6 6 9 14 7 17 -3 3
-9 2 -12 -2z"/>
</g>
</svg>
