<svg version="1" xmlns="http://www.w3.org/2000/svg" width="860.063" height="687.904" viewBox="0 0 645.047 515.928"><g fill="#222"><path d="M120.129 4.004c-1.9 4.9-.7 8.8 2.7 8.6 2.5-.2 3.3-2 1.8-3.9-.9-1.1-.9-1.5 0-1.8.8-.3.5-1.4-.9-3.6l-1.9-3.3-1.7 4zM127.629 16.704c0 1.1.3 1.4.6.6.3-.7.2-1.6-.1-1.9-.3-.4-.6.2-.5 1.3zM125.129 22.604c-.4 1.4-1.2 2.5-1.9 2.3-1.9-.4-5.7 2.1-5.7 3.7 0 .8-.7 1.5-1.5 1.5-.9 0-2 1.1-2.6 2.3-.8 1.8-1.7 2.3-3.5 1.9-1.4-.2-2.4-.1-2.3.4.4 1.7-2 6.2-4 7.6-1.9 1.4-1.9 1.4 1 2.5 1.7.7 3.1.7 3.5.2 1-1.6 6-1 7.8 1 1 1 1.6 2.7 1.4 3.6-.2 1 .3 2 1 2.2.6.3 1.2 0 1.2-.6s1.8-1.1 4-1.1c2.9 0 3.8.4 3.4 1.3-.4 1 .3 1.2 2.6.9 2.1-.3 3-1 3-2.3 0-1.1.5-1.9 1.1-1.9.8 0 .7-.6-.2-1.6-1.2-1.5-1.1-1.6 1.1-1 1.4.4 2.1.4 1.5-.1-1.5-1.2-3.5-5.1-3.5-6.9 0-.8-1.5-3.4-3.4-5.7l-3.5-4.2 2.6-2.3c2.5-2.2 2.5-2.3.8-4.2-2.4-2.6-3.2-2.5-3.9.5zM384.029 48.204c-.4.5-1.7.9-3 .9-1.4 0-2.9.9-3.5 2-.6 1.1-.8 2-.4 2 .3 0 .1.7-.6 1.5-1 1.3-1 1.9.3 3.3 1.5 1.7 1.5 1.9-.3 3.5-1.1.9-2 2.8-2 4.2 0 2.7-2.6 3.5-4.7 1.4-.8-.8-1.3-.6-1.7.9-.7 2.2-6.4 3.6-8 2.1-1.9-1.8-4.6-1-4.6 1.3 0 1.3-.9 3.4-2 4.8s-2 3.5-2 4.7c0 1.2-.4 2.4-1 2.8-.5.3-.6 1.3-.3 2.2.4 1 .2 1.4-.4 1-.6-.4-1.6 0-2.3.8-.7.9-2.1 1.3-3 1-1.3-.4-1.9.2-2.4 2.7-.8 3.8-3.3 6.8-5.8 6.8-1 0-1.8.7-1.8 1.5s.9 1.5 2 1.5c1.2 0 2.4 1 3 2.4.4 1.3 1.9 2.6 3.3 2.9 1.3.4 2.9 1.9 3.6 3.4l1.2 2.7 2-3.2c2.1-3.3 2.3-3.3 10.7-1.6 1.5.3 2.2 0 2.2-1.1 0-.9.9-1.5 2.2-1.5 2 0 7.8-5.4 7.8-7.3 0-.5 1.3-.6 3-.2 2.3.5 3.5.1 5.5-1.9 1.4-1.4 2.5-3.4 2.5-4.4 0-1.1.7-2.2 1.5-2.6.8-.3 2-1.7 2.5-3.1.5-1.4 2.1-3 3.5-3.5 1.5-.6 2.5-1.7 2.5-3 0-1.2.9-2.4 2.4-3 1.9-.7 2.7-2 3.6-6.5 1-4.6 1.4-5.4 2.5-4.5 1.9 1.6 3.1.6 3.8-2.7.3-1.6.9-3.7 1.3-4.7.6-1.5.4-1.8-.7-1.4-2.2.8-5.9-.9-5.9-2.8 0-1 .8-2.6 1.7-3.6 1.6-1.8 1.6-1.9-.8-1-1.6.6-3.1.7-4.2.1-1.1-.7-1.7-.6-1.7.1 0 1.4-3.5 1.3-7.5-.4-2.1-.9-3.7-1.1-4-.5z"/><path d="M402.529 54.204c0 .5.5.7 1 .4.6-.3 1-.8 1-1.1 0-.2-.4-.4-1-.4-.5 0-1 .5-1 1.1zM124.829 55.504c.4.9-.2 1.7-1.4 2.1-1.1.4-1.6 1.1-1.3 1.7.5.7.1.9-.9.5-1.6-.6-2.7 1.1-2.7 4.1 0 .8 2 3.5 4.5 5.9 2.5 2.3 4.5 3.8 4.5 3.2 0-1.4 4.9 2.3 5 3.8 0 .7 1 2.4 2.3 3.9 2.3 2.7 2.4 2.7 5.6 1.1 1.8-.9 3.9-1.3 4.7-1 .7.3 1.4 0 1.4-.6s1.1-1.1 2.4-1.1c1.8 0 2.7-.8 3.7-3.3 1.6-4.2 1.9-6.6.7-7.3-.5-.3.1-1.7 1.3-3s1.9-2.7 1.6-3.1c-.4-.3-.7-.1-.7.5 0 .7-.9 1.2-1.9 1.2-1.1 0-2.3.9-2.6 2.1-.4 1.3-1.2 1.8-2.1 1.5-.9-.3-1.2-.1-.9.4 1.1 1.8-4.9 1-9.5-1.3-3.7-1.8-4.5-2.6-4.2-4.6.3-2.8-3.6-6.8-6.1-6.3-.9.2-1.7-.1-1.7-.7s-.5-1.1-1.1-1.1c-.6 0-.9.7-.6 1.4zM161.929 61.804c-.6.2-.9 1.4-.7 2.8.4 1.6-.3 3-2.1 4.6-2.1 1.8-2.5 2.9-2.1 5 .4 1.5.1 3-.4 3.4-.6.3-1.1 1-1.1 1.4 0 1.3 6.3 4.1 10 4.4 2.8.3 3.6.8 3.8 2.8.2 1.3 1.1 3.2 1.9 4.1.9 1 1.3 2.5.9 3.3-.4 1.1-.2 1.5.6 1.2.7-.2 1.2-1.1 1-1.9-.1-.9.7-1.8 1.8-2.1 2.9-.8 2.5-2.3-2-6.7-4.2-4.1-5-6-2.5-6 1.9 0 1.9-1.9 0-4.4-.8-1.1-1.5-3-1.5-4.2 0-1.2-.7-2.4-1.5-2.8-.8-.3-1.5-1.1-1.5-1.8 0-1.6-3.1-3.6-4.6-3.1zM327.529 75.504c0 1.5.4 2.5.9 2.2 1-.7.9-3.1-.2-4.2-.4-.4-.7.5-.7 2zM324.929 79.804c-1 1.6-1.5 1.7-4.8.5-3.8-1.4-5.6-1-5.6 1.3 0 1.4-4.5 2.9-6 2-.6-.4-1 .1-1 .9 0 .9-.9 2.1-1.9 2.8-1.5.9-1.7 1.5-.9 2.5.7.9.7 1.3 0 1.3-.6 0-.9.7-.5 1.6.5 1.3.2 1.5-1.5 1-1.7-.6-2.1-.2-2.4 2.1-.2 2.3-1.2 3.1-5.5 4.8-2.9 1.1-5.3 2.5-5.3 3.2 0 1.5-2.1 2.2-4.1 1.2-1.9-1-3.4 0-4.3 2.8-.7 2.3.7 3.2 1.9 1.3.9-1.4 4.1-1.2 5.3.2.5.7 1.3 2.3 1.6 3.5.6 1.7.3 2.3-.9 2.3s-1.5.6-1 2.2c1.1 3.6 2.3 4.4 4.5 3 1.6-1 2.4-1 4 0 2.3 1.5 2.4 2.4.8 6.1-1.4 2.9-2.8 3.3-5.9 1.7-1.6-.9-2.1-.7-3 1.4-1.3 2.7-4.9 4.2-4.9 2 0-.8-.8-1.4-1.9-1.4-1 0-2.5-.7-3.2-1.6-1.1-1.3-1-1.7.4-2.5 2.1-1.2 2.2-3.3.1-6.4-1.4-2.2-1.4-2.4.5-3.5 1.2-.6 2.1-1.6 2.1-2.2 0-.7-.5-.6-1.5.2-2 1.7-2.6 1-3.2-3.9-.4-2.8-.2-4.1.6-4.1.7 0 .9-.5.4-1.3-.4-.6-.6-1.9-.5-2.7.2-1-.6-1.6-1.9-1.7-1.4-.1-1.9.3-1.5 1.3.7 1.8-.4 1.8-2.8-.1-1.1-.8-2.9-1.5-3.9-1.5-1.7 0-1.9.5-1.4 4 .5 3.7.3 4-1.9 4-1.5 0-2.4.6-2.4 1.5s-.8 1.9-1.7 2.2c-1 .4-2.2 1.1-2.6 1.7-.5.7-1.3.3-2.4-1.1-1.2-1.8-1.9-2.1-3.4-1.2-1.1.5-2.5.9-3.2.8-.6-.1-2.5.3-4 .9-1.6.7-3.5 1.2-4.3 1.2-.8 0-1.4.5-1.4 1 0 .6-1 .8-2.4.4-1.8-.4-2.6-.1-3 1.3-.5 1.5-1.3 1.8-3.5 1.5-1.6-.2-4.3.4-6.2 1.3-3.3 1.7-3.3 1.7-5.6-1l-2.4-2.7.6 2.5c.6 2.1.3 2.6-1.7 2.9-1.2.2-3.6-.3-5.3-1.1-1.6-.8-3.9-1.5-5.1-1.5-3.9-.2-7.6-3.5-7.2-6.4.2-1.9-.3-2.9-1.9-3.8-1.3-.6-3.1-1.8-4-2.6-1-.8-4.4-2.7-7.5-4.1l-5.7-2.5-1 2.9c-.5 1.6-1.5 2.9-2 2.9-.6 0-1.1.7-1.1 1.5s.5 1.5 1 1.5c.6 0 1 .7 1 1.5 0 1.8-3.1 2-4.8.3-.9-.9-1.2-.9-1.2 0 0 .7-1 1.2-2.2 1.2-3.2 0-5 1.4-4.6 3.5.6 3.2-2.6 4.1-6.1 1.6-1.7-1.2-3.1-1.9-3.1-1.5 0 .3-.6.2-1.3-.4-1-.9-1.6-.3-2.6 2.4-1 2.8-1.7 3.4-2.9 2.8-1-.4-3.5-.8-5.6-.8-2.2-.1-4.1-.6-4.3-1.4-.3-.6-1.6-1.2-2.9-1.2-2 0-2.4.5-2.4 2.7 0 2-1 3.6-3.5 5.6-1.9 1.5-4 2.5-4.6 2.2-.6-.4-.8.2-.3 1.9.8 3.2-3.2 10.5-6.2 11.2-1.2.3-2.4 1.4-2.7 2.4-.3 1.1-1.6 2-3.3 2.2-2.1.2-3 .9-3.2 2.5-.2 1.5-1.4 2.5-4 3.4-2 .6-6.1 2.4-8.9 4-2.9 1.6-6.2 2.9-7.3 2.9-1.4 0-2 .7-2 2.4s-1.4 3.4-5 6c-2.8 2-5.6 4.8-6.2 6.1-.9 1.9-1.9 2.5-4.4 2.5-2.2 0-4.2.8-5.8 2.5-1.4 1.4-2.1 2.5-1.6 2.5s1.2-.5 1.6-1.1c.4-.6 2-.8 3.9-.5 2 .4 3.6.2 4-.4.5-.8 1.1-.7 2.2.1 1.2 1.1 1.4 1 1.1-.5-.2-1.4.6-2.2 3.2-3.1 1.9-.6 3.7-1.9 3.8-2.9.3-1.3.7-1.4 1.7-.6.7.6 1.7.9 2.3.8.6-.2 3 1.3 5.4 3.3 5.2 4.3 7.6 5.3 9.4 3.9 1.4-1.2 6 .7 8.3 3.4 1.5 1.8 7 1.1 8.6-1.1.7-.9 3.2-1.5 6.8-1.6 3.4-.1 5.7-.6 5.7-1.3 0-.7 1.6-1 4.1-.9 5.5.3 7.4-2.5 6.6-9.6-.5-4.1-.4-4.9.7-4 .9.7 1.8.6 3.4-.5 2-1.4 2.5-1.3 5.2.6 2.8 2 14.7 3.9 13.6 2.2-.2-.4-.1-2.6.4-5 .4-2.3.4-4.2-.1-4.2-.4 0-1.4-1.4-2.3-3l-1.4-3h4.7c4.6 0 4.8-.1 5.8-3.5 1-3.1.9-3.5-.7-3.5-1 0-2.4-.8-3.1-1.8-.7-.9-1-1.4-.5-1 .4.3 2.4.1 4.5-.7 3.1-1.1 4-1 5.6.1 1 .8 2.9 1.4 4.1 1.4 1.5 0 2.8 1 3.6 2.7 1.1 2.3 1.9 2.7 4.3 2.5 2.5-.2 3.4.3 4.9 2.9 1.5 2.6 1.6 3.3.5 4-1 .6-.8.9.8.9 1.2 0 2.4.4 2.7.9.3.5 1.8 1.2 3.2 1.5 1.4.4 3.8 1.5 5.3 2.6 2.9 2 12.1 3.7 12.1 2.1s4.6-.5 7.9 1.8c1.9 1.4 5.1 2.4 8.2 2.6 2.9.3 5.4.7 5.7 1 .3.2 2.4-.7 4.9-2.1 3.5-2.1 4.6-2.4 5.8-1.4 1 .8 1.9.9 2.8.3 2.3-1.8 6.4-.7 12.5 3.6 6.4 4.5 7.5 6.1 6.5 8.7-.6 1.5.1 1.6 6.8 1 4.1-.4 8.6-.8 10.1-.8 1.5-.1 2.9-.7 3.2-1.4.3-.8 1.3-1.4 2.2-1.4 1 0 1.4-.3 1.1-.7-.9-.8 5.5-3.3 10.1-4 2.3-.4 4.9-2.1 8.2-5.4 2.7-2.7 5.5-4.9 6.3-4.9.8 0 2.2-.9 3.2-2 2.2-2.4 3.7-2.5 7.4-.5 2.7 1.4 3 1.3 5.2-1.6 1.8-2.4 2.8-2.9 4.7-2.4 1.3.3 3 .1 3.8-.6.8-.7 3.2-1 5.7-.7 4.3.5 4.4.5 3.3-1.9-.6-1.3-2.2-2.6-3.6-3-4.1-1-7.3-3.5-5.8-4.4 1.4-.9 1.9-12.9.6-12.9-1.4 0-.8-6.5.8-8.8 1.9-2.7 1.3-3.7-2.8-5.1-3-1.1-3-1-1.5.7 1.9 2.1.6 4.2-2.4 4.2s-4.9 1.2-4.9 3c0 1.6-.3 1.6-5.5-.1-3.1-1-6.3-2.6-7.3-3.5-2.3-2.4-10.1-5.7-11.7-5-.8.3-1.7.1-2-.4-.4-.6-1.8-1-3.3-1.1l-2.7-.1 3.1-1.3c1.7-.8 3.6-2.1 4.4-3 .8-.9 2-1.3 3.2-.9 1.8.5 1.8.4.8-1.6-1-1.9-.9-2.1.7-1.6 2.4.8 4.2-.5 4-2.9-.2-1.7.7-2.1 6.6-2.9 5.1-.6 6.7-1.2 6.3-2.2-.3-.8-.8-3.7-1.2-6.6-.4-2.9-1.2-6-1.9-6.8-.7-.8-1.4-2.1-1.6-2.8-.3-.8-.7-.7-1.5.5zm-23.7 32.6c.4.7 0 .8-1.1.4-1-.4-2.2-.7-2.7-.7s-.9-.4-.9-.9c0-1.2 3.8-.2 4.7 1.2zm-130.7 23.1c0 .3-1.1 0-2.5-.6-1.5-.7-2.5-2-2.5-3.2 0-1.9.2-1.9 2.5.6 1.4 1.5 2.5 2.9 2.5 3.2zM365.529 153.004c0 .6-1 1.1-2.1 1.1-1.8 0-1.9.2-.9 1.5 1.6 1.9 6 2 6 .1 0-.7-.7-1.9-1.5-2.6-1-.9-1.5-.9-1.5-.1zM382.829 155.504c-.3 3 0 3.6 1.7 3.6 1.1 0 2.2-.1 2.5-.3.9-.5 5.5 6.8 5.5 8.7 0 1.3 1.2 2.8 3 3.8 1.7.9 3.6 2.9 4.2 4.4.7 1.5 3.4 5 5.9 7.8 6.5 6.9 7.2 12.6 1.7 12.6-1.5 0-1.8.5-1.3 2.2.4 1.3 1.5 3.5 2.6 5 1.3 1.9 1.5 2.8.6 3.1-.6.3 0 1 1.6 1.6 3.7 1.5 8.7 5.2 8.2 6.2-.3.4.8 1.2 2.4 1.7 2.7 1 3 .8 4-1.9.7-2.2 1.6-2.9 3.5-2.9 3 0 3.2-.7 1.1-3.4-.8-1.1-1.5-2.9-1.5-4.1 0-1.4-1-2.7-2.7-3.5-3.7-1.9-11.3-9.7-11.3-11.6 0-2.7-2.8-6.9-7.4-11.2-4.7-4.3-4.7-4.9-.2-3.2 2.5.9 2.6.8 2.6-2.5s.2-3.5 2.4-2.9c2.5.6 2.6.3 1.7-5.9-.2-1.1-3.9-.8-4.6.4-2.7 4.2-9.6 1.8-16.1-5.5-2.4-2.8-5.2-4.8-7-5.2-2.7-.5-2.9-.4-3.1 3zM374.029 157.104c.3.5 1.4 1 2.3 1 1.5 0 1.5-.2.2-1-2-1.3-3.3-1.3-2.5 0zM59.029 182.104c-.3.5-.1 1 .4 1 .6 0 1.1-.5 1.1-1 0-.6-.2-1-.4-1-.3 0-.8.4-1.1 1zM52.329 186.804c-2 .3-2.5.8-2.1 2 .5 1.2.2 1.5-1 1-.9-.4-2.3-1-3.1-1.3-.8-.3-1.6.3-1.9 1.8-.4 1.3-1.5 3.3-2.7 4.5-1.1 1.2-1.7 2.9-1.4 3.8.5 1.1.2 1.4-1 .9-2.5-.9-4.6 2-4.6 6.5 0 3.3-.5 4.4-3 6.3-2.1 1.5-2.8 2.7-2.4 4 .3 1.1-.1 2-1 2.4-.9.3-1.6 1.7-1.6 3 0 1.5-.6 2.4-1.5 2.4-.8 0-1.5.8-1.5 1.7 0 1.5-.9 1.8-6.3 1.7-3.4 0-6.9-.3-7.7-.7-.8-.3-2.6-.7-4-.9-1.6-.2-2.6-1.1-3-2.7-.8-3.7-2.7-3.7-2.2-.1.2 1.7.8 3.3 1.3 3.6 1.3.8 1.1 2.4-.4 2.4-2 0-1.4 8.5.7 10.9 1.4 1.6 2.3 1.8 4.3 1 1.3-.5 3-.9 3.7-.9 1.8 0 3.9 5.4 3.1 7.9-.4 1.2-.2 2.1.4 2.1.6 0 1.1-.7 1.1-1.6 0-1.1.6-1.5 1.9-1.1 1.4.3 1.8.1 1.4-.9-.3-.8 0-1.4.7-1.4 1.8 0 7-5.6 7-7.7 0-1 1.4-2.9 3.1-4.3 1.7-1.4 3.6-3 4.3-3.5.6-.6 2.6-1.7 4.4-2.4 3.3-1.4 3.9-2.9 2.3-5.9-1.1-2.1.1-9.3 1.3-7.4 1.5 2.4 2.7 0 2.1-3.9-.6-3.5-.3-4.2 2.3-6.7 1.7-1.6 4-3.5 5.2-4.3 2-1.3 6.8-13.1 5.1-12.8-.3.1-1.8.4-3.3.6z"/><path d="M453.029 203.204c-2.1.5-4.2 1.4-4.6 2-.4.7-2.7.6-7.3-.1-5.2-1-7-.9-8.1 0-1.9 1.6-1.9 3.4-.1 5 .8.6 1.6 2.6 1.8 4.3.2 2.6.8 3.2 2.8 3.3 1.4.1 3.3.5 4.3.9 1.7.7 1.7.8-.2 2.2-1.1.7-1.8 2-1.5 2.8.4.8.1 1.5-.6 1.5-.9 0-1 1.1-.6 3.5.5 2.4.3 3.5-.5 3.5-.6 0-.9.7-.5 1.5.3.8 0 1.5-.7 1.5-.8 0-.8.3.2.9 1.6 1 .6 3.1-1.5 3.1-1.9 0-1.8 2.4.2 4.1 1.3 1.1 1.3 1.4.1 2.1-1.4.8-1.3 4.8.2 4.8.3 0 1.8 1.1 3.3 2.5 2.6 2.4 2.8 2.4 3.7.6.7-1.2 2.7-2.1 5.6-2.6 4.2-.6 4.9-.4 7.1 2 1.3 1.4 2.7 3.7 3 5.1.3 1.3 1.4 2.9 2.4 3.4s2.8 3 4 5.5c1.2 2.5 3.5 5.5 5 6.7 2.3 1.8 3.1 3.8 4.3 9.6 1.5 7 3 10.2 4.8 10.2.5 0 .9-.9.9-1.9 0-1 .7-2.1 1.5-2.5.8-.3 2-1.7 2.5-3.1.5-1.4 1.4-2.5 2-2.5.6 0 .9-.4.6-.9-1-1.5 1.2-6.1 2.8-6.1 2.4 0 3-3.9 1-6.1-1.3-1.5-1.5-2.2-.6-3.1 1.6-1.6 1.5-6.5-.2-7.1-.7-.3-1.6-1.5-1.9-2.7-.4-1.7-.2-2 1.3-1.5 1.7.6 1.9.1 1.5-5.1-.3-4.5-.1-6 1.3-7 1.4-1 1.4-1.4.3-2.8-.9-1.1-1-1.6-.2-1.6 2.7 0 5.1-15.2 2.6-16.8-1.8-1.2-3.4-5.9-2.4-6.9.7-.7.6-1.8-.1-3.4-.9-2-1.9-2.4-5.5-2.6-2.5-.1-4.5.3-4.5.8 0 .6-.4.7-1 .4-1.2-.8-6.3-1.6-11.7-2-4.5-.3-9-2.6-10-5.1-.6-1.6-1.1-1.6-6.8-.3z"/><path d="M430.529 224.004c0 1.2-.9 2.1-2.6 2.5-2.2.6-2.5 1.1-2 3.1.4 1.4.2 2.5-.4 2.5-.5 0-1 1.1-1 2.4 0 1.7-1 3.1-2.9 4.2-1.7 1-2.8 2.1-2.5 2.6.7 1.2 9.4 1 9.4-.2 0-.6 1.1-1 2.4-1 1.3 0 2.9-.6 3.5-1.4 1-1.2.8-1.9-.8-3.5-1.2-1.2-1.9-2.1-1.6-2.1.3 0 .1-.9-.5-1.9-.7-1.4-.6-2.7.5-4.7 1.4-2.8 1.2-4.4-.6-4.4-.5 0-.9.9-.9 1.9zM417.029 245.104c-.3.5-.1 1 .4 1 .6 0 1.1-.5 1.1-1 0-.6-.2-1-.4-1-.3 0-.8.4-1.1 1zM430.529 253.004c0 1.1.4 2.2.9 2.5.4.3.6-.6.3-1.9-.5-3-1.2-3.3-1.2-.6zM434.429 256.804c-.1.4-.1 1.6 0 2.5.3 2.5-2 2.3-2.6-.2-.9-3.3-2.4-2.2-2.1 1.5.2 2.8.5 3.4 1.8 2.9.8-.4 2.4-.7 3.5-.7 1.6 0 2-.6 2-3 0-2.6-2.3-5.3-2.6-3zM615.129 260.804c-1.6.8-3.1 2.4-3.3 3.4-.5 1.9-3.3 2.7-3.3.9 0-.6-.9-.6-2.2-.1-1.5.6-2.2 1.5-2 2.8.1 1.1-.5 2.6-1.5 3.4-1.5 1.2-1.6 1.2-1.1-.2.4-.9.1-2.2-.5-2.8-.8-.8-.8-1.1.2-1.1s.9-.3-.1-1.4c-1.6-1.5-7.5-1-9.8.9-2.8 2.3-5.9 2.5-6.6.3-.3-1.1-1.2-1.7-1.9-1.5-.7.3-1.8 0-2.5-.6-1-1-1.2-.7-.7 1.1.4 1.9.2 2.2-1.4 1.7-1.1-.4-1.9-.2-1.9.5 0 .6-.4.8-1 .5-.6-.3-1 .5-1 1.9 0 3-4.6 8.2-6.8 7.8-.9-.2-2.2.4-3 1.5-1 1.3-1.6 1.4-1.9.5-.7-2-1.8-1.5-8 3.7-3.2 2.6-6.4 4.6-7 4.4-.9-.3-1.1.6-.7 3.6.5 3.5.3 4.1-1.3 4.1-1 0-3.8-1.2-6.2-2.5-4.6-2.7-7.7-2.6-8.3.3-.3 1.3-1.5 1.6-6.8 1.7-3.6 0-6.6.3-6.7.7-.7 2.1-.2 4.9 1 4.7 3.1-.4 4.1.1 2.9 1.3-.7.7-1.2 2-1.2 3 0 1.2-.7 1.8-2.1 1.8-1.9 0-2 .2-.8 1.7.7 1 .9 1.5.5 1.1-.5-.4-2.1.2-3.7 1.3-1.9 1.3-3.6 1.8-5.3 1.3-2.8-.7-6.6.3-6.6 1.7 0 .5.3.8.8.8.4-.1 1.9-.1 3.5 0 2.5.1 2.7.4 2.7 4 0 3.1-.6 4.4-2.7 6-1.6 1.1-2.2 2.1-1.5 2.1 1.9 0 1.4 1.7-.8 2.3-1.4.4-2 0-2-1.2 0-1-.9-2.6-2-3.6-3-2.7-2.7.2.5 4.9 2 3 2.2 3.8 1 4.2-1.3.5-1.3.9 0 3.5 1.3 2.4 1.9 2.7 3.9 1.9 1.6-.6 2.7-.5 3.5.3.8.8 1.4.8 1.9.2 1.3-1.8 6.1-1.1 7.6 1.1 1.4 2 1.3 2.2-2.4 3.4-3.6 1.2-3.8 1.5-2.8 3.4 2.1 3.7.1 11-2.6 10-.8-.3-1.6.3-1.9 1.5-.3 1.2-1.2 2.1-2 2.1-2.6 0-2.9-3.6-.8-8.1 1.9-3.9 2-4.5.5-6.6-2.3-3.6-4.2-3.9-6.5-.9-2 2.5-2.1 2.5-4.4.8-1.2-.9-2.1-2-1.9-2.3.2-.3-.8-2.1-2.2-4-1.3-1.8-2.2-3.9-2-4.6.6-1.6-.4-1.6-3.8-.3-2.1.8-3 .5-5-1.5-1.4-1.4-3-2.5-3.6-2.5-.7 0-2.4-.9-3.8-2-2.2-1.8-3.4-2-8.1-1.4-4.6.6-6 1.3-9.4 4.8-2.2 2.2-4.1 3.6-4.4 3-.3-1-14.6-1-16.4.1-.5.4-.9 1.3-.9 2.1s-.7 1.4-1.5 1.4-1.5.8-1.6 1.7c-.3 5.8-.2 8.1.5 10.3.4 1.5.2 3.8-.5 5.5-.7 1.7-1.1 3.9-1 5 .2 1.1 0 1.7-.4 1.3-1.1-1-5.5 1.5-8.9 5.1-2.2 2.3-3.3 2.8-4.2 2-1-.8-1.3-.6-1.1.8 0 1 .9 1.9 2.1 2 6.1.4 13 3 14 5.2.7 1.7.6 2.5-.5 3.3-1.1.7-1.1 1.1-.1 1.5.6.2 1.2 1.4 1.2 2.6 0 1.3.3 1.7.8 1.1 1-1.5 5.2-1.1 6.6.7.7.9 2.5 1.3 4.9 1.1 3.2-.3 3.8 0 4.7 2.3 1.3 3.4 1.3 3.5-.6 3.5-1.4 0-1.4.3-.4 1.5 2 2.4-.7 6.8-3.7 6.2-2.6-.5-3.3 2-.9 2.9 2 .8.8 3.4-1.4 3.1-2.3-.3-2.3.1.2 6 1.4 3.3 3.2 5.6 5.9 7.3 3 1.8 3.9 3 3.9 5.1 0 1.5-.4 3.1-1 3.4-.5.3-.7 1.9-.4 3.4.4 1.9 0 3.8-1.2 5.6-1.2 1.8-1.7 4.4-1.6 8.1.1 3.9-.3 5.6-1.4 6.2-1.3.7-1.4 1.3-.5 3 .6 1.2 1.6 3.1 2.2 4.3.8 1.6.7 2.4-.4 3.2-1.2 1-1.2 1.9-.2 5.2 1 3.2 1.4 3.6 2 2.2.6-1.3 1.4-1.7 3.1-1.3 1.7.5 2.4.2 2.4-.8s1-1.4 3-1.4c3.4.1 5.9-1.5 4.1-2.6-2-1.3-1.1-2.6 1.2-2.1 2.3.6 2.3.5 2.3-8.4-.1-7.9.2-9.2 1.9-10.5 1.1-.9 2.5-1.4 3.2-1.1 1.6.5 2.7-1.2 1.3-2-.6-.4-1-2.4-.8-4.6.1-2.7-.5-4.8-2-6.9l-2.3-3h2.2c1.2 0 2.3-.8 2.6-2 .3-1 1.5-2.2 2.7-2.6 1.1-.4 2.4-1.1 2.7-1.7.4-.6 2-.5 4.4.3 3.4 1.1 4 1.1 5.2-.6.8-1.1 2-1.7 2.6-1.5 2.5.8 8.2 0 9.2-1.3 1.6-2.1 19.5-4.5 19.5-2.6 0 .6.4.9.9.6.4-.3 1.6.3 2.6 1.4 1 1.1 2.3 2 3 2 1.7 0 4.5 3.3 4.5 5.3 0 .9 1.3 3 3 4.8 2.1 2.3 2.8 3.9 2.4 5.5-.4 1.7-.1 2.2 1.2 2.1 1-.1 2.3.9 3 2.3.7 1.3 2 3 2.9 3.6.9.7 1.7 1.9 1.9 2.6.3 2.3 4.8 6.5 5.3 5 1.2-3.2 6.3 1 6.3 5.2 0 2.9 3 4.2 6 2.6 2.8-1.5 5.3-.5 10.3 4.1 2.6 2.4 4.8 3.7 5.9 3.3 1.1-.3 3.3 1.5 7 5.7 5.8 6.7 8.3 8.2 11.2 6.5 1.4-.8 2-.8 2.3.1.7 1.9 2.1 1.6 3.3-.7.9-1.7.8-1.9-.7-1.4-1.4.5-1.3.2.4-1.3 1.9-1.6 2-2 .8-3.7-.9-1.2-1.1-2.4-.5-3.5.5-1 .5-2.3-.1-3.2-1.6-2.6-.9-4.6.8-2.2.8 1.3 2.4 2.3 3.4 2.3 1.1 0 1.9.5 1.9 1 0 .6 1.2 1 2.8 1 1.5 0 4.1.1 5.7.2 2.7.3 3 0 3.3-3 .2-1.8-.1-3.2-.7-3.2s-1.1-.9-1.1-2 .5-2 1-2c.6 0 1-2.4 1-5.3 0-6.2.7-7.3 3.1-5.1 1.6 1.4 1.9 1.3 3.8-.7l2.1-2.3-2.1-2.2c-1.4-1.4-2.8-2-4.2-1.6-2.1.5-2.1.4-.5-1.4 1.6-1.8 1.6-2.1.2-3.6-.9-.9-1.7-3-1.9-4.7-.2-2.8-1.5-5.8-1.5-3.5 0 .9-5.5 1.1-9 .3-.9-.3-1.4.3-1.4 1.3.1 1-.2 1.8-.6 1.8-1.1 0-.5 4.1 1.1 7.5 1.6 3.4 4.5 6.6 7.4 8 3 1.6 2.5 3.9-.9 4-2.5 0-3.5.8-5.3 4.3-.1.2-1.1-.2-2.3-.8-4.2-2.2-5.7-2.1-5.2.6.2 1.4.1 2.4-.4 2.3-3.3-.6-6.3.3-6.9 2.1-.3 1.1-1.2 1.9-1.8 1.7-.7-.1-1.1.5-1.1 1.4.2 2.1-4.2 2.3-5 .3-.3-.8-.2-1.4.3-1.4.4 0 .6-1.1.3-2.5-.2-1.4-1-2.5-1.6-2.5-1.9 0-5.6-5.6-5.6-8.4 0-1.8.4-2.4 1.5-2 1.1.5 1.5-.1 1.5-1.9 0-1.3.7-3 1.6-3.8 2.8-2.3 4.4-6.7 4.4-11.9 0-3.8.4-5 1.5-5 .8 0 1.5-.9 1.5-1.9 0-2.1 3.1-3.6 6.8-3.2 1.2.1 2.2-.2 2.2-.8 0-.6-.5-1.1-1.1-1.1-2.3 0 .4-2 4.2-3.2 3.1-.9 3.9-1.6 3.6-3-.3-1-.1-1.8.4-1.8s.9-.8.9-1.8c0-.9.7-2.6 1.5-3.6.8-1.1 1.5-3.2 1.5-4.7 0-3.1-1.9-7.9-3.1-7.9-.5 0-2.3-1-4.1-2.3-2.4-1.6-3.3-2.9-3.3-4.9.1-1.5.4-3 .7-3.4.4-.3.4-1.2.2-1.9-.3-.8.7-1.5 2.6-1.9l3.1-.6-.4-10.7c-.3-6-.8-11.9-1.2-13.2-.6-1.8-.5-2.2.4-1.7.8.5 1.1.3 1-.5-.4-2.4 2.4-6.9 4.6-7.5 1.4-.4 3-2.4 4.6-6 1.8-3.9 2.9-5.4 4.4-5.4 1.9 0 5.4-2.9 9.6-7.9.9-1 2.4-2.3 3.3-2.8 2.3-1.3 3.9-14 2.1-16.9-1.5-2.4-.3-4.4 2.6-4.4 1 0 2.1-.9 2.4-2 .4-1.1 1.1-1.8 1.6-1.5.5.4.9.2.9-.4 0-1.5-5-5.1-7.1-5.1-1 0-2.6-1.4-3.6-3-1.8-3.2-5.8-4.1-8-1.9-.9.9-2.1.4-5-2-4.2-3.5-6.3-3.9-6.3-1.4-.1 2.8-2.3 4.8-5.4 5-1.6 0-3.3.7-3.7 1.5-2.6 4.3-2.9 4.4-4.4 2.4-1.4-1.8-1.5-1.6-1.5 3.2 0 2.9.4 5.2.9 5.2.4 0 .7 1.9.5 4.2-.2 3.3-1 4.8-3 6.5-1.6 1.2-2.5 2.7-2.1 3.6.5 1.5-1.6 3-6 4.2-2.9.8-3.1-1.5-.3-3.3 1.1-.7 2-2.3 2-3.7 0-2.8.9-3.2 2.9-1.3 1.1 1.1 1.2.9.6-1-.5-1.8-.2-2.2 1.4-2.2 2.2 0 3-3 .9-3-.9-.1-.7-.5.3-1.3 1.2-.9 1.4-1.8.7-3.6-.4-1.3-.6-2.6-.3-2.9.3-.3-1.4-2.6-3.7-5-2.5-2.6-3.5-4.2-2.5-3.8 3 1 4-.4 2-2.7l-1.8-2 3.3 1.9c2.6 1.5 3.4 1.6 4.1.6.5-.8 1.9-1.2 3.2-1 1.6.2 2.5-.3 2.8-1.7.5-1.6 1.6-2.1 5.6-2.3 3-.2 5.3-.9 5.8-1.8.6-1 1.3-1.2 2.7-.4 1.5.8 2 .6 2.5-1.3 1.3-4.4 3.6-8.7 4.8-8.8.7 0 .1-.6-1.2-1.2-1.9-.9-2.5-.9-2.9.1-.2.6-.8 1.2-1.4 1.2-.5 0-.6-.9-.3-2 .8-2.4-1.5-2.5-5.9-.3zm-62.6 32.8c0-1.8.2-1.8 2.3.6 1.2 1.4 3.4 3.1 5 3.9 1.5.7 2.7 1.8 2.7 2.3 0 1.9 3.3 4.7 5.6 4.7 1.2 0 2.9.6 3.6 1.2.7.7 2.8 1.4 4.7 1.6 2.7.2 3.2-.1 2.7-1.4-.5-1.2.1-1.1 2.9.6 1.9 1.2 3.5 1.9 3.5 1.5 0-.3.5-.3 1.1.1.8.4.7.9-.2 1.5-1.1.7-1.2 1.2-.2 2.8 1 1.6.7 2.8-1.6 7.5-1.6 3-3.4 7.8-4.1 10.6-1.1 4.7-3.3 6.6-4.3 3.7-.6-1.8.4-4.7 1.6-4.7.6 0 .3-.6-.7-1.3-1.7-1.3-1.7-1.5-.2-4.6 1-1.7 2.4-3.5 3.2-3.8 1.6-.6 1.9-3.2.4-3.4-.5-.1-1.6-.2-2.2-.3-.7 0-1.9-1.5-2.7-3.1l-1.5-3-.9 3.5c-.5 2.1-.5 4.1.1 5 1.4 2.4.3 4-2.8 4-2.3 0-2.7.3-2.3 2.1.5 1.8.2 1.9-2.3 1.4-4.9-1.1-5.6-1.4-4.9-2.5.4-.6-.4-.5-1.9.2-1.4.6-2.6 1.5-2.6 2 0 .4-1.2.8-2.6.8-2.1 0-2.4.3-1.5 1.4 1.6 1.9.3 4.6-2.1 4.6-1.6 0-1.9.5-1.3 2.9.3 1.7.2 3.2-.4 3.6-.7.4-.6 1.6.4 3.6.9 1.6 1.3 3.4 1 3.9-.3.5.4 1.2 1.5 1.5 1.4.5 2 1.4 1.9 2.8-.4 3.2 2 9.7 3.6 9.7 1.1 0 1.1.6.2 3-.9 2.5-1.5 2.8-3.7 2.3-1.4-.3-3.2-1.2-4.1-1.9-.8-.8-2.2-1.4-2.9-1.4-.7 0-1-.3-.7-.7.4-.3.2-1.2-.4-2-.6-.7-.8-1.3-.3-1.3.4 0-.3-1.1-1.6-2.5s-3.1-2.5-4-2.5c-1 0-2.8-2.2-4.5-5.6-1.5-3-3.3-5.3-3.9-5.1-.7.3-2-.1-3.1-.9-2.2-1.6-3.9-1.8-3-.4.4.6.2 1.7-.5 2.5-.7.9-.8 1.5 0 2 2.1 1.3.9 2.1-3 2-2.2 0-4-.3-4-.7 0-.4 1.2-1.9 2.6-3.5 1.4-1.5 2.8-4 3.1-5.6l.6-2.8 2.6 2.4c3.9 3.6 7 4.1 7.7 1.1.3-1.3 1-2.4 1.4-2.4.4 0 1.9-1.2 3.3-2.6 1.5-1.5 3.3-2.4 4.1-2.1 2.1.8 3.5-1.3 2.9-4.5-.3-1.6 0-4.7.7-6.8.9-2.8 1-5.4.4-9.2-.8-4.4-1.5-5.6-4.4-7.6-3.9-2.6-4.9-4.2-2.7-4.2.9 0 1.8-.8 2.1-1.8.4-1.2 1.6-1.8 3.4-1.7 1.8 0 3-.7 3.7-2.2.8-1.9 1-2 2.2-.5 1.1 1.6 1.2 1.5 1.3-.3zm-81.9 68.5c.5 0 .9.7.9 1.5 0 2.1-1.4 1.9-3.6-.7-1.8-2-1.8-2.1-.1-1.5 1 .4 2.3.7 2.8.7zm34.4 1.1c1.1 1.7-.1 2.1-1.5.4-.8-.9-.8-1.5-.2-1.5.6 0 1.4.5 1.7 1.1zm-.8 5.3l2.3-.4-2 2c-1.2 1.2-1.8 2.5-1.5 3 .4.6.3 1-.2 1-1.9-.1-3.3-1.8-3.9-5-.7-3.4-.6-3.4 1.2-1.9 1 .9 2.9 1.5 4.1 1.3zm-25.2 2.6c.3.5-.1 1-.9 1-.9 0-1.6-.5-1.6-1 0-.6.4-1 .9-1 .6 0 1.3.4 1.6 1zm-.5 8.2c0 3.1 0 3.1-1.9 1.2-1.3-1.3-1.5-2.3-.9-3.2 1.7-2.1 2.8-1.3 2.8 2z"/><path d="M561.529 320.204c0 1.8.2 1.9 1.5.9 1.5-1.2 1.2-3-.6-3-.5 0-.9 1-.9 2.1zM597.029 283.104c.3.5.8 1 1.1 1 .2 0 .4-.5.4-1 0-.6-.5-1-1.1-1-.5 0-.7.4-.4 1zM643.529 286.604c0 .8.2 1.5.4 1.5s.6-.7 1-1.5c.3-.8.1-1.5-.4-1.5-.6 0-1 .7-1 1.5zM478.529 297.104c-1.3.8-1.3 1.1.3 2.7s1.7 1.6 1.7-1c0-3 0-3-2-1.7zM482.329 302.304c-.9 2.4 2.5 7.7 4.9 7.8 1.2 0 2.8.9 3.6 2 1.4 2.1 1.5 2.1 2 .1.2-1.1-.1-2.9-.9-4-1.2-1.7-1.2-2.2.2-3.5 2.3-2.3.1-2-3 .5-2.8 2.2-4.6 1.8-4.6-.9.1-1.5.3-1.4 1.6.3.9 1.1 1.4 1.4 1.2.6-.2-.8-1.4-2.1-2.5-2.8-1.7-1.1-2.2-1.2-2.5-.1zM483.029 313.104c-.8 1.3 2.5 4.1 3.8 3.3.5-.3.4-.9-.3-1.3s-1.6-1.3-2-2c-.6-.9-.9-.9-1.5 0zM493.529 316.604c0 2.1 3.6 3.9 4.3 2.1.3-.8-.5-1.8-1.9-2.5-1.9-.8-2.4-.8-2.4.4zM612.229 401.404c-.3.7-.1 2 .3 2.8.7 1.1 1 1 1.6-.4.4-1 .2-2.3-.3-2.8-.7-.7-1.2-.6-1.6.4zM610.029 407.104c.3.5 1 1 1.6 1 .5 0 .9-.5.9-1 0-.6-.7-1-1.6-1-.8 0-1.2.4-.9 1zM632.329 437.604c.2 1.5 0 2.5-.7 2.5-.6 0-1.1-.5-1.1-1.2 0-.9-.3-.9-1.2 0-.9.9-.9 1.6.4 2.8 1.5 1.5 1.8 1.4 3.7-.5 1.7-1.7 1.9-2.5 1.1-4.1-1.5-2.8-2.8-2.5-2.2.5zM443.329 474.704c-1.6.8-2.8 2.1-2.8 2.9 0 .8-.4 1.5-.9 1.5s-1.6.3-2.5.6c-1 .4-1.6.1-1.6-.9 0-.8-.9-1.7-2-2-1.1-.3-2-.1-2 .3 0 1.1 2.9 4 4.1 4.1.5.1 1.4.2 2.1.3.6 0 1.3.7 1.6 1.5.3.9 0 1.1-.8.6-.8-.5-1.1-.4-.6.3.4.6 1.2.9 1.9.6.7-.2 2.2.5 3.3 1.7 1 1.3 1.3 1.9.6 1.5-1.7-1-4.2 1.2-5.9 5.1-.7 1.8-1.7 3.3-2.1 3.3-.4 0-.6 1.8-.4 4 .2 2.2 0 4-.5 4-1.9 0-.1 6.9 2.2 8.4 2.2 1.5 2.4 1.4 3-.4.4-1.1 1.1-2 1.6-2 1.6 0 2.3 3.1.8 4-1.8 1.2 3.5 2.5 5.8 1.5 1-.5 2.4-.7 3.1-.6.9.2 1.2-.4.7-1.8-.3-1-.1-2.2.5-2.6.7-.4.9-1.7.6-3-.6-2.5 1.8-9.3 3.9-11 1.7-1.4 2.5-5.4 1.3-6.1-.7-.4-.5-1 .5-1.5 1.6-.9 1.1-3.6-1.6-9.6-2.2-4.9-9.1-7.2-13.9-4.7z"/></g></svg>