<svg version="1" xmlns="http://www.w3.org/2000/svg" width="1083.354" height="681.242" viewBox="0 0 812.516 510.931"><g fill="#222"><path d="M247.216.858c.7.7 1.5 1 1.8.7.3-.3-.2-.9-1.2-1.2-1.4-.6-1.5-.5-.6.5zM247.516 5.958c0 1.5-.5 2.8-1.2 2.8-.9 0-.9.3 0 1.2 1.9 1.9 1.4 3.3-.6 1.5-2.3-2.1-4.6-2.2-3.8-.2.3.8.4 1.5.3 1.5-.1 0-1.7-.4-3.6-1-3-.8-3.7-.7-5.7 1.5-1.2 1.3-2.5 3.2-2.8 4.2-.3 1-2.2 2.9-4.1 4.2l-3.5 2.3-3.5-2.1c-2.8-1.6-3.5-1.7-3.5-.6 0 1-1.1 1.5-3.5 1.5-2.6 0-3.3.3-2.9 1.5.8 2-2.4 2-5 0-1-.8-2.2-1.2-2.6-1-.5.3-1-.2-1.4-1-.3-.8-1-1.5-1.6-1.5-1.6 0-1 10 .7 12.5.7 1.1 1.3 3.2 1.3 4.7s.5 3 1 3.3c.6.4.8 1.1.5 1.6-.7 1 .6 1.6 5.2 2.3 4.2.5 5.4 1.4 5.1 3.4-.2 1.1.3 1.6 1.2 1.3 3.8-.9 8.5-.9 10.1-.1 1.2.7 1.9.5 2.3-.6.4-1.1 1.4-1.4 2.7-1.1 1.1.3 3.3.1 5-.3 2.2-.7 3.1-.5 3.5.4.3.8 1.3 1.2 2.3.9 1.3-.3 2.7.6 4.5 3 1.4 1.8 2.6 3.7 2.6 4 0 .3 1.1 2.3 2.5 4.3s2.5 3.1 2.5 2.4c0-.8 1.3.1 2.9 1.9 1.6 1.8 2.7 3.9 2.4 4.7-.3.7.4 2.6 1.5 4.1 2.2 3.3 4.2 8.7 4.2 11.7s3 8.5 6.4 11.9c2.1 2.1 2.7 3.5 2.3 5.5-.3 1.5.2 3.6 1.1 5.1 1.3 1.9 1.4 2.5.4 2.9-1 .3-1 .9.2 2.7 1.3 2 1.3 2.5 0 4.4-1.6 2.2-1.1 5.9 1 7.4.6.5-.2.6-1.9.4-2-.4-3.6 0-4.8 1.1-1.8 1.6-2 1.5-3.7-.6-1.5-1.8-2.9-2.3-7.2-2.4-5.2 0-13.9.7-18.9 1.8-1.6.3-3-.1-3.9-1.1-.7-.8-1.9-1.5-2.6-1.5-.8 0-1.4-.5-1.4-1.1 0-.5-1.6-1.7-3.5-2.5s-4.2-2.5-5.1-3.9c-.9-1.4-2.2-2.5-3-2.5-.7 0-1.9-1.1-2.7-2.5-1.3-2.6-10.2-10.5-11.8-10.5-.5 0-.6.7-.3 1.5.7 1.8.4 1.8-3.3.2-3.1-1.3-8.3-6.7-8.3-8.6 0-.6-1.1-1.7-2.5-2.3-1.4-.6-2.5-1.7-2.5-2.5 0-1.5-2.7-1.8-3.2-.3-.1.5-1.3.7-2.5.4-1.3-.4-2-1-1.7-1.5.3-.5-.6-1.4-1.9-2-2.3-1-3.1-2.8-5.2-10.7-.4-1.2-1.2-2.2-1.9-2.2s-2-.8-3-1.9c-1.9-2.1-.9-3.5 3.5-4.6 1.5-.4 3.2-1.7 3.9-3.1.8-1.3 1.7-2.4 2.2-2.4.4 0 .8-1.5.8-3.4 0-2.5-.7-3.9-2.2-5-2.8-2-4.2-2-3.5-.2.3.8-.1 1.7-.9 2-.8.3-1.4 1.5-1.4 2.7 0 1.4-.5 1.9-1.4 1.6-2.4-.9-5.8 2.2-5.2 4.8.4 1.5.1 2.5-1 2.9-.8.3-1.2 1-.9 1.6.3.5.2 1-.4 1-.5 0-1.4-.8-2-1.7-.8-1.5-1.1-1.5-2.5-.3-1.1.8-1.3 1.7-.7 2.3.6.6.5 1.8-.5 3.2-2 3-5.4 12.5-5.4 14.8 0 1.4-.5 1.7-1.6 1.3-1.2-.5-1.5-.2-1.1 1.3.3 1.3-.3 2.2-1.9 3-2.1.9-2.8.6-6.7-3.3-3.9-4-4.3-4.8-3.9-8.2l.5-3.8-3.3 3.7c-2.6 3-3 4-2 5.2 1.2 1.5.6 3.5-1.1 3.5-1.3 0-6.8-6.2-6.9-7.8 0-.7 1.3-1.2 3-1.2 2.6 0 3.2-.6 4.6-3.9.8-2.2 2.2-4.2 2.9-4.5 2.1-.8.4-5.5-2.5-6.9-2.5-1.2-4.2-6.7-2.2-6.7 1.4 0 2.2-5 .8-5.1-.6-.1-1.5-.2-2.1-.4-.5-.1-1.7-.3-2.5-.4-1.2-.2-1.1-.4.3-1 1.7-.6 1.6-.9-.7-3.6-1.4-1.7-2.6-3.5-2.6-4 0-.6-.7.3-1.5 1.9-.8 1.5-1.5 3.6-1.5 4.5 0 .9-1.1 2.1-2.5 2.8-2.2 1-2.7.8-4-1-.8-1.2-1.5-1.6-1.5-.9 0 .6-.7 1.2-1.6 1.2-1.2 0-1.5.6-.9 2.2.3 1.3.7 2.9.7 3.6.1.7.8 1 1.7.7.9-.2 2.2-.1 3 .4 1.2.8 1.2 1.2-.2 2.5-.9.9-2.2 1.5-2.9 1.4-.7-.2-1.2.4-1 1.4.2 1.3-.2 1.6-1.4 1.1-1.5-.5-1.6-.1-1.1 3.1.5 2.9.2 4.1-1.4 5.7-1 1-1.9 2.5-1.9 3.3 0 .8-1.4 1.9-3.1 2.5-2.9 1-3.1 1.3-2.5 4.5.5 2.5.3 3.5-.9 4-.8.3-1.5 1.2-1.5 2.1 0 .8-.4 1.5-1 1.5-1.3 0-3.8 5.2-3.3 6.8.3.7-.2 2.1-1.1 3.1-1.3 1.4-1.4 2.4-.7 4.5.7 1.7.7 2.6.1 2.6-2 0-1 3.1 1.3 3.9 1.5.6 2.7.4 3.9-.6 1.8-1.6 3.7-1 9.5 3.3 2.8 2.1 3.1 2.7 2.3 5.4-.5 1.6-.6 3.8-.3 5 .3 1.1 0 2-.6 2-.5 0-.8.6-.6 1.2.6 1.5-5.3 5.8-7.8 5.8-1 0-2.6-.6-3.7-1.3-1.4-.8-2.3-.9-2.8-.2-1.6 2.2-4.1 1.4-6.1-1.9-2.1-3.3-4.1-3.9-7-2.1-.5.3-1.2.1-1.5-.4-.4-.5-2-.5-4.1.2-2.5.7-4.2.7-6-.1-1.4-.6-3.2-.9-4-.6-.9.4-2.4-.1-3.3-1-2.4-2.1-8-1.7-7.4.6.2.9-.5 2.5-1.6 3.6-2 2-2 2 1 2.6 1.6.3 2.7 1 2.4 1.5-.4.5.2 2.4 1.1 4.1 1.4 2.5 1.5 3.4.6 3.7-1.8.7-1.6 2.7.6 5.4 1.7 2.1 2 2.2 3.5.6 1.2-1.1 1.5-2.4 1-4.3-.7-2.6-.6-2.7 2.9-2.1 3.1.5 3.6.3 4.1-1.8.3-1.3 1.6-2.5 3.1-2.9 1.4-.4 2.5-1.3 2.5-2.1s.7-1.5 1.5-1.5 1.9-.9 2.5-2c1.8-3.3 3.5-2.3 3.8 2.1.3 5.1 2.8 11.3 4.2 10.4 1.6-1 1.2 1.1-.5 2.5-1.9 1.6-1.9 3-.1 3 .8 0 1.6.7 2 1.5.8 2.2 8.6 2.1 8.6-.1 0-1.2.7-1.5 3.1-1.2 2.7.4 3.2.1 4.1-2.4l1.1-3 1.8 2.9c1 1.5 1.9 3.6 1.9 4.5 0 1 .5 1.8 1 1.8.6 0 .8 1 .4 2.4-1 4.2 5.1 8.8 14.8 11.1 2.9.7 5.8 2.5 5.8 3.8 0 .7.4.6 1-.3.8-1.3 1-1.3 1 .1 0 1.9-3.1 4.9-5.1 4.9-2.9.1-7.8 10-4.9 10 .7 0 1-.7.6-1.5-.7-1.9.1-1.8 4.4.5 2.2 1.2 2.8 1.9 1.8 2-1.1 0-1.8.8-1.8 2 0 2.1-2.4 2.8-3.5 1-.3-.6-1.2-1-2-1s-2.5-1.1-3.9-2.4c-2.8-2.5-6.6-2.5-8.7 0-1.5 1.8-6 1.8-8.4 0-1.1-.8-2.4-1.2-3-.9-.7.2-1.6-.2-2.2-.9-1.4-1.8-2.4-8.8-1.2-8.8.5 0 .9-.9.9-2s-.7-2-1.5-2c-.9 0-2.4-1.3-3.3-3-.9-1.6-2.3-3-2.9-3.1-.7-.1-1.8-.2-2.3-.3-.6 0-1.5-.8-2-1.6-1.6-2.6-1.1-.6 1 3.8 1.1 2.3 2.5 4.2 3 4.2s1.4.9 2 2.1c1 1.7.7 2.5-1.4 4.6-2.4 2.4-3.1 4.7-2.6 8.2.1.8-.4 1.7-1 2.1-.9.6-.9 1.3 0 3 1 1.8.9 2.4-.1 3.1-.8.5-1.9.7-2.5.5-.7-.3-1 .3-.7 1.4.3 1-.3 3-1.3 4.4-1.3 2.1-1.5 3.2-.6 5 1.5 3.2-.4 5.2-2.9 3-1.4-1.3-2.1-1.3-4-.2-3.2 1.8-5.8 5-5.9 7.1 0 2.2-2.9 3.4-4 1.7-.7-1.1-1.1-1.1-2.4-.1-.8.7-2 1-2.6.6-.5-.3-1 .2-1 1.3s-.7 2.2-1.5 2.6c-1 .4-1.3 1.7-1 4.6.4 4.4 3 9.4 4.4 8.5 1.2-.7 3.4 2.2 2.7 3.3-.3.6.1 1.5.9 2.2.9.7 1.5 3 1.5 5.5 0 4.2.1 4.3 5.5 6.9 3 1.4 6.5 2.8 7.7 3.1 1.5.4 2.9 2.1 4 4.5 1 2.4 2.3 4 3.3 4s4.7 1 8.4 2.1c3.6 1.2 7.2 2.3 7.9 2.5.6.2 1.2 1.5 1.2 2.9s.5 2.5 1 2.5c.6 0 1-.5 1-1.1 0-.7 1.1-.9 2.9-.6 2.1.5 3.1.2 3.5-1 .5-1.2.9-1.3 2.1-.3 1.9 1.6 1.9 4 .1 4-.8 0-2 1.6-2.6 3.5-.6 1.9-1.8 3.5-2.6 3.5s-1.4.5-1.4 1c0 .7.6.7 1.9 0 1.7-.8 2.1-.4 3.4 3.3 1.2 3.7 1.2 4.6.1 6.2-1.1 1.4-1.1 2.2-.2 3.3 1.7 2 2.1 6.1.8 7.7-.7.9-.8 1.5-.1 1.9 1.2.8-2.6 7.6-4.1 7.6-.6 0-.8 1.2-.5 2.6.3 1.8 0 2.7-1.2 3.2-2.5.9-8.5 5.2-7.4 5.2 1.8 0 4.5 5 3.8 6.8-.5 1.2-.9 1.3-1.2.4-.9-2.3-3.8-1.2-5.1 2-.7 1.8-1.8 4.1-2.3 5-.6 1.2-.6 1.8.2 1.8 1.4 0 0 4.2-2 5.7-.9.7-1.1 1.2-.4 1.3 1.4 0 1.1 3.3-.5 7.2-1.1 2.8-3.9 3.7-5.8 1.9-.5-.4-2.1-1.1-3.5-1.4-2.5-.6-2.9.2-2 4.2.1.2.8-.2 1.6-.9 1.3-1.1 1.5-.8 1.5 1.3 0 1.6.8 3.1 2 3.7 1.1.6 2 1.7 2 2.5 0 1.2 1.4 1.4 6.3 1.3 6.7-.2 9.2.2 15 2.1 2.9 1 4.1 1 5.2.1.8-.6 2.3-.9 3.3-.6 2.4.8 5.2-.2 5.2-1.9 0-1.9 2.7-3.8 3.5-2.6.4.7 1.7.3 3.5-1 1.6-1.2 3.3-1.8 4.1-1.4.9.6 1 .1.6-1.7-.6-2.3-.1-2.8 4.8-5.3 3-1.6 5.5-3.2 5.5-3.6 0-.4 1.2-.9 2.8-1.1 1.6-.2 3.1-1.2 3.7-2.6.5-1.2 1.5-2.2 2.3-2.2 1.5 0 4.9 1.9 7.3 4.2 1.7 1.6 1.6 1.7-1 2.6-3 1.1-4.8 5.6-4.3 10.9.4 3.5 2.3 4.3 6.2 2.3 1.1-.6 2.9-1.5 4-2 1.1-.6 3.2-.7 4.5-.4 2.3.6 2.8.2 4.2-3.5 1.5-3.9 1.8-4 3.7-2.8 2.7 1.8 4.6 1.1 4.6-1.6.1-2.1.1-2.1 1.5-.3 1.4 1.9 1.5 1.9 3.5.1 2-1.8 2.7-3.7 1.3-3.3-1.6.5-5.3-2.3-5.3-3.9 0-1.3-.3-1.4-1.2-.5-.7.7-2 1.2-3 1.2s-1.8.4-1.8 1c0 1.9-3 1-5.2-1.5-1.1-1.3-2.4-2.2-2.8-2-.5.3-2.3-1.2-4.1-3.3l-3.3-3.7 2.9-.5c3.7-.6 5.4-5.6 2.7-7.6-.9-.8-1.4-1.4-1-1.4.4 0 .3-1.1-.2-2.5-.8-2.1-.7-2.5.8-2.5 1 0 2.8-1.3 4-2.9 1.2-1.6 3.7-3.5 5.6-4.2 3-1.1 3.5-1.7 3.8-5.3.3-2.3 0-5.1-.5-6.3-.7-1.6-.6-2.6.7-3.8 2.1-2.1 2-3.8-.3-5.9-1.1-1-2.2-3-2.6-4.4-.3-1.5-1.6-3.7-2.7-4.9l-2.1-2.3 3.1-1.3c3-1.2 3.1-1.4 1.7-3.4-1.7-2.4-1-5.1 1.7-7.1 1-.7 1.8-2.5 1.8-3.8 0-1.4.9-3.7 2-5.1 2.7-3.5 3.5-8.7 1.9-13.5-.8-2.6-.9-4.2-.3-4.6.6-.4 1.3-1.5 1.7-2.4.3-1 1.9-2 3.4-2.3 4.3-.9 5.8-2.1 5.7-4.4 0-1.4.5-2.1 1.8-2.1 1.1 0 1.8-.7 1.8-2 0-2.5.8-2.5 4 0s3.5 2.5 6.1-.1c1.6-1.6 2.8-2 5.3-1.5 1.7.4 3.3 1.1 3.4 1.6.2.6 1.4 1 2.6 1 4.2 0 10.5 8.1 8.4 10.7-1.7 2.1 1.3 5.3 5 5.3 1.8 0 5.3.9 7.7 2 3.9 1.8 4.6 1.8 7.2.5 1.5-.8 2.4-1.5 1.8-1.5-.5 0-.2-.5.8-1.1 1-.6 3.1-.8 4.7-.4 2.5.6 3 .3 3.6-1.9.3-1.4 1-2.6 1.6-2.6.5 0 .7-.8.3-1.9-.4-1.4 0-2 1.7-2.5 3.8-1 5.8-.7 5.8.9 0 .9.9 1.5 2.4 1.5 1.6 0 2.7.7 3.1 2 .4 1.4 1.6 2 3.8 2.1 1.8.1 3.7.2 4.2.3 1.9.3 7 3.1 8 4.3.6.6 2.3 1.3 3.9 1.5 2.3.2 3.2 1 4 3.4.6 1.7 1.9 3.9 2.8 4.8 1.9 1.9 1.8 8.3-.2 9.6-.7.5-.9 1.6-.5 3 1.3 4.2 2 17.4.9 19.1-.3.5-1.4.9-2.5.9-2.4 0-2.4.3.5 7.5 1.6 3.7 3.2 6.1 4.3 6.4 1 .2 3.3 2 5.1 4 1.8 2 3 2.8 2.6 1.8-.4-1.2-.1-1.7 1.3-1.7 2.3 0 4.8-3.6 3.1-4.6-2.1-1.3 3.9-3.4 7.9-2.8 2.1.4 5.1.6 6.6.6 1.6-.1 3 .5 3.4 1.4.3.8 1.2 1.3 2 1 .8-.3 2.2.1 3 1 1.9 1.8 3.3.4 3.3-3.3 0-2.5 1.5-3.9 2.5-2.3.3.5 2 1 3.7 1 2.2 0 3.1.5 3.5 2.1.5 1.8 1.1 2 4.2 1.5 5.9-1.1 8.1-.9 10 .8 2.1 1.9 3.1 2 3.1.3 0-.9 1.1-1.2 3.5-.9 3.1.4 3.5.8 3.5 3.3 0 2.2-.5 2.9-1.9 2.9-1.1 0-2.3.5-2.6 1.1-.5.7-1.3.5-2.4-.5-1.5-1.4-1.8-1.3-3 .5-1 1.7-1.9 2-4.2 1.5-2.5-.5-3-.2-3.5 1.9-.3 1.4-.4 3.2 0 4 .3.8-.6 2.7-1.9 4.3-1.4 1.6-2.2 3.2-1.9 3.5.3.3.1 1.5-.5 2.6-1 1.7-.8 2.3.9 3.3 2.3 1.5 2.7 3 .5 2.2-.8-.4-1.5-.1-1.5.5s-1.5 1.8-3.2 2.7c-1.8.9-3.5 1.8-3.7 2-.2.2 1.1 2.5 2.8 5.2 2.7 4.3 3.1 5.5 2.5 9.1-.4 2.8-1.2 4.1-2.2 4.1-1.3 0-1.4.2-.3 1.2 1 1.1 1.5.9 2.7-.6.8-1.1 1.4-1.5 1.4-.9s1.4 1.6 3.2 2.2c2.9 1 3 1.2 1.5 2.9-1 1.1-1.3 2.2-.7 3.2.5.8.6 1.8.4 2.2-.3.5-.2.7.3.6.4-.1 1.8.1 3.1.6 1.7.6 2.2 1.5 2.2 4.2 0 1.9.4 3.4.9 3.4s1.1 2.5 1.3 5.5c.3 4.9.1 5.4-1.5 4.9-1.8-.6-1.8-.5-.1 2 2.1 3.3 3.7 4.2 9.1 5.1l4.3.7-.6 3.7c-.5 3-.2 3.9 1 4.4 3.1 1.2 1.6 2.6-2.6 2.4l-4.3-.2-1.6 5c-1.1 3.2-2.1 4.9-3 4.6-5.3-1.3-9.9-.1-9.9 2.6 0 .7-.7 1.3-1.5 1.3s-1.5.7-1.5 1.5-.7 1.5-1.5 1.5-1.2.6-.9 1.4c.3.8.1 1.7-.5 2.1-.6.3-.8 1.7-.5 3.1.4 1.7.1 2.6-1 3-1.1.4-1.4 1.3-1.1 2.4.3 1 .1 2.1-.5 2.5-.5.3-1 1.6-1 2.9 0 2.8-2.9 5.6-5.8 5.6-1.4 0-2 .5-1.6 1.4.3.8 1.5 1.1 3 .8 2.5-.5 4.9.9 6.5 3.9.7 1.5.6 1.7-.6 1.3-.8-.4-1.5-.1-1.5.5 0 .7-2.2 1.1-5.6 1.1-5.3 0-5.5.1-4.9 2.2.4 1.3 1.1 2.7 1.6 3.3 1.4 1.4 1.1 4.1-.6 5.5-.9.7-1.3 2-1 2.8.9 2.4-1.1 2.9-7.1 1.8-4.5-.8-5.7-.7-6.5.5-.5.8-.9 1.1-.9.6 0-.7-3.7 2.5-3.7 3.3-.2 3.1-.3 3.2-1.7 2-.8-.6-2-2.7-2.6-4.6-1.5-4.4-3.7-4.4-4.6.1-.5 3.1-.9 3.5-2.8 2.9-3.4-1-3.8-1-4.3.3-.3.7 0 1.3.6 1.3s1.1.4 1.1 1c0 1.7-1.9 1.1-4.2-1.2l-2.1-2.1-.8 2.2c-.5 1.2-2.4 3.1-4.4 4.2-1.9 1.2-3.5 2.7-3.5 3.5 0 1.3-3.8 4-5.2 3.6-.5-.1-.8.3-.8 1 0 .9-.3.9-1.2 0-1.9-1.9-3.7-1.4-4.4 1.3-.3 1.4-1 2.2-1.5 1.9-.5-.3-.9 0-.9.6 0 .7-.7 1-1.5.6-2-.7-1.9.7.3 2.7 1.2 1.1 2.2 1.3 3.2.7 2.2-1.4 5-1.2 5 .4 0 1.2 2.5 3 3.3 2.4.1-.1 2 1 4.2 2.5l3.9 2.7 2-3.3c1.1-1.7 2.5-3.5 3.1-3.9.5-.4 1-1.1 1.1-1.5.2-2.3 1.8-4.3 3.4-4.3 2.6 0 3.3-1.5 1.5-3-2.5-2.1-1.6-3.3 1.1-1.5 2.2 1.4 3.4 1.5 6.8.7 2.2-.6 5.6-1.1 7.4-1.1 1.8-.1 4.6-1.1 6.1-2.2 1.7-1.3 3.9-1.9 5.7-1.7 1.6.2 3.4-.3 3.9-1 .9-1.1 1.5-1 3.5.5 7.3 5.6 17.3 10.2 20.3 9.5.4-.1 1.3.9 1.9 2.3 1.3 2.9 1.9 3 5.9.9 1.9-.9 4.1-1.3 6-.9 2.3.5 2.8.4 2.3-.8-.4-1.2 0-1.4 1.5-1 1.8.4 2.1-.1 2.8-3.8.4-2.4.6-4.7.5-5.2-.3-.9 1-.9 2.7.2.7.5 1 1.4.6 2.1-1 1.7 2.2 4.8 5.9 5.6 1.7.3 4.8 1.5 7 2.5 2.9 1.4 4.3 1.6 5.8.8 1.3-.7 2.9-.7 4.7-.1 2.1.7 3.5.5 6.2-.9 1.8-1 4.3-1.8 5.5-1.9 1.1 0 2.5-.5 3.1-1.1.8-.8 1.7-.8 3.2.1 1.3.6 3.1.8 4.4.4 1.2-.5 2.6-.7 3.1-.6.4.2 1.4-.2 2.1-.8 1-.8 2.2 0 5.1 3.5 2.1 2.5 4.4 4.5 5.1 4.5.7 0 1.3.9 1.3 1.9 0 2.4 1.9 3.8 2.9 2.2.5-.7 1.2-.2 2.1 1.4 1.5 2.8 2.7 3 6.5 1.3 1.8-.8 3.2-.8 4.8-.1 1.7.8 3.2.7 5.5-.2 2.8-1.2 3.4-1.2 6.6 1 2.7 1.9 3.7 2.1 4.5 1.1.6-.7.8-1.6.4-2-1.1-1.1-1.4-4.8-.3-4.1.5.3 1-.1 1-.9 0-1.1.9-1.4 3.4-1.3l3.3.3-.1-6.9c-.2-5.8.1-7.1 1.5-7.4 1-.3 1.5-1.1 1.2-2.3-.3-1.2.2-2 1.7-2.5 1.9-.6 2-1.2 1.4-5-.9-6.2.3-12.3 2.7-13 1-.4 1.9-1.5 1.9-2.6 0-1 .5-1.9 1-1.9 2 0 .9-5.4-1.6-8.1-2.2-2.3-2.6-3.7-2.8-9.8-.2-3.8-.8-7.6-1.4-8.3-.6-.7-1.3-2.5-1.7-4.1-.4-1.5-1.6-4.4-2.6-6.4-1-2.1-1.9-4.8-1.9-6.1 0-2.2-4.5-7.3-9.5-10.8-1.3-.9-1.5-1.4-.6-1.4.8 0 2.2.7 3.2 1.6 2 1.8 8.1 2.5 10.1 1.3.8-.6.9-.9.2-.9s-1.5-1.6-1.8-3.5c-.4-2.1-1.3-3.5-2.1-3.5-2.6 0-1.7-3.9 1-4.6 1.4-.3 2.5-1.3 2.5-2 0-1.2.4-1.2 2-.4 1.6.9 2 .8 2-.5 0-.9.9-1.5 2.4-1.5 1.7 0 2.7-.9 3.6-3 .7-1.7 1.6-3.3 2.1-3.6 1.4-.9 5.1 1.7 4.5 3.1-.7 1.8.8 2.7 5.2 3.1 3.6.3 8.2-2.2 7.5-4.2-.2-.6.3-1.6 1.1-2.3 1.2-1 1.9-.8 3.6.9 1.1 1.1 1.8 2.5 1.4 3.1-.3.6 0 2.4.7 4 1 2.5 1.6 2.9 3.5 2.5 1.7-.5 2.6-.1 3.4 1.5.9 1.6 1.8 1.9 3.9 1.4 1.6-.3 4 .1 5.9 1 1.8.9 4.4 1.6 6 1.5 5.2-.4 5.2-.3 5.2 6.2 0 4.1.3 5.8.9 4.9.5-.8.7-2 .5-2.6-.3-.7.4-1.5 1.4-1.7 2.6-.7 4.7-9.5 2.8-11.8-1.2-1.4-2.8-5-2.3-5 .1 0 1.7.4 3.5.9 2.5.8 3.2.7 3.2-.5 0-.8.3-1.4.8-1.4 1.4 0 4.4-6.7 4-9.1-.1-1.3-1.3-3.2-2.5-4.2-1.3-1-2.3-2.4-2.3-3 0-.6-1.7-2.8-3.7-4.9-3-3.1-3.3-3.8-2-4.4 1.3-.4 1.4-1.1.6-3.2-.6-1.6-.6-2.7 0-3.1 1.6-1-.4-8-3-10.7-1.9-2-2.1-2.8-1.2-4.3.9-1.4.9-2.1 0-3-.8-.8-.5-1.1 1.2-1.1 2.4 0 2.4.2.5-6.7-.5-1.7-.1-2.2 1.6-2.5 1.6-.2 2.6-1.6 3.9-5.6 1.9-5.5 7.4-12.1 10.1-12.2 1.2 0 1.5-.9 1.2-3.8-.2-2-.8-4.2-1.1-4.7-.4-.6-.8-3.1-.9-5.7-.1-3.6.3-5.2 1.8-6.6 1.3-1.2 1.6-2.2 1-3.2-1.2-2 3.5-4.3 6-3 1 .6 2.5.7 3.3.4.8-.3 1.8-.1 2.2.5 1.1 1.9 7.1 1.3 9.1-1 1.2-1.3 2.7-1.9 4.2-1.6 2.4.5 5.5-2.5 6.7-6.4.4-1 1.3-1.9 2.1-1.9 2.4 0 9.4 4.4 9.4 5.9 0 1 .3 1.1 1.3.2 1-.8 1.9-.6 3.6 1 1.2 1.2 3.4 2.4 4.9 2.8 2 .6 2.6 1.3 2.4 2.8-.2 1.1.4 2.3 1.3 2.6.9.4 1.5.1 1.5-.8 0-.8.5-1.5 1-1.5.6 0 1-.7 1-1.5s.8-1.9 1.8-2.4c2.5-1.3 4.4-7.8 3.1-10.3-.6-1.1-.8-2.6-.5-3.4.5-1.3 1.1-1.2 4.3.1 2.3 1 4 1.2 4.6.6.6-.6 1.8-.6 3.2.1 2 .9 3.1.5 7-2.3 4.2-3.1 4.9-3.2 8.5-2.2 2.7.7 4.2.7 4.9 0 .7-.7 1.9-.7 3.7.2 1.4.6 3.4.9 4.4.6 1.1-.4 2.3.3 3.3 1.9 1.1 1.6 2.8 2.5 5.4 2.8 4.3.6 6.6 0 5.7-1.3-.3-.5.4-.9 1.5-.9 1.2 0 2.1-.5 2.1-1 0-.6 1.2-.3 2.6.6 1.9 1.3 2.2 1.9 1.2 2.5-.9.6-.7.9.9.9 2 0 2.1.3 1.2 3-.6 1.6-1.7 3-2.5 3-1 0-1.1.6-.4 2.6.6 1.4 1.2 4.1 1.4 6.1.4 3.2.3 3.4-1.7 2.8-3.7-1.1-5-1-5.4.2-.3.7.4 1.6 1.4 2 2.9 1.1 5 3.6 5.5 6.6.5 2.6.3 2.8-1.8 2.3-1.7-.5-2.6-.1-3.4 1.4-.6 1.1-1.7 2-2.5 2-1 0-1.5 1-1.5 2.9 0 1.7-.4 3.3-1 3.6-3 1.9 1 11.5 4.8 11.5 1 0 1.3.3.6.8-.7.5-.5 2.1.6 5 .9 2.3 1.9 3.9 2.3 3.6.4-.4 1.8.3 3.1 1.5 2.2 2.1 2.8 2.2 6.1 1.1 2-.7 3.9-1.8 4.2-2.6.3-.8 2.3-1.7 4.4-2 2.1-.4 3.7-1 3.4-1.4-.6-1 2.4-3.5 4.4-3.5 4.1-.1 10.1-1.8 10.1-2.8.1-.7 1.1-2.5 2.5-4.1 3.1-3.8 9.2-4.4 10.7-1 .6 1.2 1.8 2.4 2.7 2.7 2.6.6 8.1-.4 8.1-1.5 0-.6.6-.5 1.5.2 1.2 1 1.8 1 3 0 .8-.7 1.5-1.8 1.5-2.5s-.7-1.8-1.5-2.5c-1.6-1.3-2.1-3.5-.6-2.6.9.6.7-5.7-.3-7.3-.3-.5.3-.7 1.4-.4 1.4.4 2 0 2-1 0-1.1-.6-1.3-2.2-.9-1.3.3-1.9.1-1.5-.5.9-1.5-2.9-2.3-4.2-1-.8.8-1.1.8-1.1 0 0-.6-.3-1.8-.6-2.7-.5-1.3 0-1.5 2.7-1 1.9.4 3.8 1.1 4.4 1.5.5.5 2 .9 3.5.9 1.8 0 2.1.3 1.1.9-.9.6-1 1.1-.2 1.5.6.4 1.1.3 1.1-.3s.6-.9 1.3-.7c.6.1.9.1.5-.1-.5-.3-.8-.9-.8-1.4 0-1.4 3.7-1.1 5.2.4.7.8 2 1.6 2.8 1.9 1.2.5 1.1.7-.4 1.3-1.1.5-2.1.3-2.6-.5s-1.3-.9-2.2-.4c-1.9 1.2-.4 7.4 1.7 7.4.8 0 1.5.3 1.5.7 0 .5 1.2.9 2.6.9 2.9.2 6.5 3.1 5.8 4.7-.2.7.9 3.2 2.5 5.6 1.6 2.4 2.7 5 2.4 5.7-.3.7.2 2.1 1.1 2.9 1.8 1.8 2.1 3.5.7 3.5-.5 0-1.1 1.8-1.3 3.9-.2 2.9.1 4.2 1.4 5 2.8 1.7 3.4 1.4 5.3-2.9 1-2.2 2.4-4 3.2-4 .7 0 1.2-.5 1-1.2-.1-.7.5-1.3 1.3-1.4 3.4-.3 3.9-.5 5.4-2 .9-.8 1.6-3 1.6-4.9 0-1.9.6-3.5 1.4-3.8 1.2-.5 1.3-1.3.6-3.7-1-3.5.1-7.4 2.3-8.3 2.1-.8 2.8-5.8 1.1-7.4-2-2.1-1.7-4.3.6-4.3h2l-2-2c-2.6-2.6-4.4-2.6-3.7 0 .3 1.1.1 2.3-.4 2.6-.6.3-.7 1.4-.4 2.5.8 2.3-1.7 2.6-3.5.4-.7-.8-2.2-1.5-3.3-1.5-1.1 0-1.7-.3-1.4-.7.4-.3 0-1.7-.8-3-.9-1.3-1.2-2.3-.7-2.3 1.5 0 0-6.8-1.9-8.9-1-1.1-1.9-2.4-1.9-2.9 0-1.6-4.7-4.2-7.5-4.2-1.8 0-2.5.5-2.5 2 0 1.3-.7 2-2 2-1.1 0-2 .7-2 1.5 0 .9-.7 1.8-1.5 2.1-.8.4-1.5 1.3-1.5 2.1 0 .9-.5 1.1-1.2.6-.7-.4-2.2-.9-3.3-.9-4.1-.3-4.4-.4-3.9-1.9.4-.8.1-2.1-.5-2.9-1.3-1.5-.5-2.6 2-2.6 1.6 0 1.7-.4.8-3-1.3-3.4-1-3.3-4.5-2-2.2.9-3.1.7-4.9-1-1.2-1.1-2.4-1.8-2.7-1.4-1 .9-4.1-4.4-3.3-5.6.3-.5.1-1-.4-1-.6 0-1.1-1.1-1.1-2.5 0-1.6-1.5-4.2-3.9-6.8-2.1-2.3-3.9-4.4-3.9-4.7 0-.3-.6-1.9-1.2-3.5-.8-2.1-.9-3.8-.2-5.7 1.2-3.2-.5-5.2-2-2.4-.8 1.5-3.8 2.3-3.8 1 0-.3.9-1.8 2-3.4 1.1-1.5 1.7-3 1.3-3.4-.3-.3-.2-.6.3-.6.6 0 1.5.5 2.2 1.2.9.9 1.2.8 1.2-.5 0-2.1 2.3-2.2 3.9-.3 1.2 1.4 5.1 1 5.1-.5 0-.5.7-.9 1.6-.9 1.1 0 1.4-.5 1-1.6-.3-.9-.6-1.8-.6-2 0-.3-1.1-.9-2.5-1.4-2-.8-2.5-1.6-2.5-4.6 0-3.5.1-3.6 1.8-2.1 1.8 1.6 7.9 2 8.8.5.3-.4.2-1.7-.1-2.9-.5-1.4-1-1.7-1.8-1-2.4 1.9-6.8 0-8.3-3.5-.8-1.8-2.3-3.8-3.3-4.4-2.5-1.3-3.4-1.3-2.5.1 1 1.7-1.8 3-3.4 1.6-.8-.6-2.4-1.6-3.5-2.2-3.2-1.6-3.3-4.3-.3-5.1 2.1-.5 2.6-1.2 2.6-3.6 0-2.1.6-3.1 2-3.5 2.6-.7 2.6-2.3 0-2.3-1.1 0-2.3-.7-2.6-1.5-.8-2-4.2-2.9-6-1.4-1.1.9-1.8.9-2.6.1-.9-.9-1.6-.4-3 2-2.1 3.3-1.7 4.2 2.3 6.2 1.2.6 2.4 1.8 2.6 2.6.3 1.1 0 1-1-.3-1-1.2-1.7-1.5-2.2-.7-.4.6-1.3.9-2.1.6-.8-.3-1.4.1-1.4.8 0 2-5.1.7-7.8-2-1.8-1.8-3.5-2.3-7.7-2.3-4.6 0-5.6.4-7 2.5-.8 1.3-2.5 2.4-3.8 2.4-1.2.1-3.3.7-4.7 1.4-1.7 1-3 1.1-4.3.4-2.1-1.1-5.1-.3-4.3 1.1.5.7-1.4 2.1-2.8 2.1-.1 0-1-1.6-2.1-3.6-1.8-3.3-1.8-3.7-.2-4.5 2.2-1.3 1.7-7.4-1.1-12.8-1.2-2.3-1.6-3.8-.9-3.5 1.6.6 6.9-4.4 6.1-5.7-.3-.6.1-1.6.9-2.2 1.3-1 1.4-2.1.7-5.6-.6-3.4-.5-4.8.7-5.9.9-1 1.2-2.4.8-4.1-.7-2.9-5.4-8.3-6.5-7.6-.5.3-1-.2-1.4-1-.3-.9 0-1.5.8-1.5s1.7-1 2-2.3c.6-2.1.7-2.1 2-.5.7 1 1.8 1.8 2.4 1.8.6 0 1.6.8 2.1 1.7.6 1 1.1 1.2 1.1.5s1.5-1.2 4-1.2c2.9 0 4.8-.7 7-2.7 3-2.6 4-6.3 1.8-6.3-.7 0-.6-.5.4-1.3 2.1-1.6.6-7.3-2.2-8.2-1.1-.4-2-1.2-2-1.9s-1.1-2.3-2.5-3.6c-1.5-1.4-2.5-3.5-2.5-5.1 0-1.7-.9-3.4-2.5-4.6-2.3-1.7-2.4-2.1-1.4-6.1.7-2.4 1.7-4.2 2.5-4.2 2.1 0 1.7-1.4-1.1-4-1.8-1.7-2.5-3.4-2.5-6.2 0-4.7 1.6-8.2 3.5-7.4.7.2 2.1-.4 3.1-1.5 1.3-1.4 2.5-1.8 4.5-1.4 3 .7 3.1.1 1.1-4.8-.6-1.5-1.7-2.7-2.3-2.7-.7 0-1.7-.7-2.4-1.6-1-1.4-1.4-1.5-3.3-.3-1.8 1.1-2.6 1.1-4.2.1-1.1-.6-2.6-1.2-3.4-1.2-.8 0-2.5-1.5-3.7-3.3-1.3-1.7-2.9-3.6-3.6-4-.7-.4-1.3-1.5-1.3-2.2 0-1.1-1.2-1.5-4.1-1.5h-4.1l.7-4.8c.4-2.6 1.1-5.4 1.6-6.3.5-1 .4-2-.3-2.7-1.5-1.5-1.9-6.5-.5-7.4 1.7-1 1.8-9.8.2-12.8l-1.3-2.5-.7 2.7c-.7 2.8-3.8 2.9-3.3.1.2-.9-2.4-2.6-7.4-4.8-5.4-2.3-7.8-2.9-7.8-2 0 .7-.7 1.8-1.5 2.5-1.2 1-2 .9-4-.4-3.3-2.2-3.3-2.1-3.7 2.1-.3 3.5-.5 3.8-3.1 3.5-1.6-.2-2.6.1-2.3.6.8 1.4-4.7 2.3-5.9 1-.7-.8-.5-.9.8-.5 1.9.7 2.1-.5.7-3.8-.7-1.5-.9-1.6-.9-.4-.2 2.9-3.1 4.2-9.8 4.5-4.5.2-7.2-.1-8.8-1.2-2.9-1.9-8.8-3.6-8-2.3.4.5-.3.9-1.3.9-1.5 0-1.9.5-1.5 2 .3 1.1 0 2-.6 2s-1.1.9-1.1 2-.6 2.3-1.4 2.6c-.8.3-1.2 1.2-.9 2.1.5 1.3.3 1.3-1.5.4-2.9-1.6-3-1.5-3.7 2.7-.9 5.5-1.5 6.1-5.4 5.4-1.8-.4-5.1-.6-7.2-.4-3 .3-3.6.7-3.2 2 .3 1 1.3 2.3 2.1 2.9 1.9 1.5 4.6 1.7 3.7.3-.9-1.5.7-1.2 4 .8 1.7 1 4.2 2.2 5.7 2.5 1.5.4 3.9 1.8 5.4 3.2 1.5 1.4 3.5 2.5 4.5 2.5s2.2.8 2.7 1.7c.5.9 2.5 2.4 4.3 3.2 2.5 1.2 3.5 2.4 3.7 4.5.2 1.6 1.3 3.7 2.5 4.7 1.8 1.4 2 2 .9 3.1-1 1-1.4 1-2.1 0-.6-1-1-1-2.1.2-.7.9-1.6 1.3-2.2 1-.5-.3-1.8.6-2.9 2-1.1 1.4-3.8 3.1-5.9 3.7-3.4 1-4.3.9-6.7-.7-2-1.3-4.3-1.8-8-1.6-4.2.2-5.3-.1-5.3-1.3 0-2-4.8-2-7.1.1-1.7 1.5-2 1.5-4.4 0-2.6-1.7-2.6-1.7-1.5.3 1 1.9 2.2 2.6 4.3 2.2 1.3-.2 4.6 4.2 4.7 6.1 0 .9-.5 2-1 2.3-.7.4-.7 1.3 0 2.6s.7 1.9 0 1.9c-1.7 0-1.1 1.6 1.5 4.3 1.5 1.4 2.9 4.2 3.2 6.2.5 3.2.2 4-1.8 5.6-1.3 1-3.2 1.9-4.1 1.9-3.1 0-6.9 7.2-7.1 13.2-.2 2.9-.6 5.2-1 5-.4-.1-.7-.5-.6-.8 0-.4-.5-1-1.2-1.5-1-.6-1-1.1.1-2.4 1.2-1.4 1.2-1.8-.1-2.5-.7-.5-1.4-1.5-1.5-2.2-.3-3.4-.5-3.8-2.4-3.8-1.4 0-2 .7-2 2.2 0 1.9.2 2 1.1.8.9-1.3 1-1.3.7 0-.3.8-1.5 1.7-2.9 2-1.3.3-2.4 1.2-2.4 2 0 1.7-3 5-4.5 5-.5 0-1 .4-1 1 0 .5.6 1 1.4 1 1.7 0 2.7 4.7 1.2 5.4-.7.3-.7.5.2.5.6.1 1.2.7 1.2 1.3.1.7 1.4 2.9 3 4.8 2.6 3 2.8 3.5 1.4 4.3-1 .6-2.5.5-4-.2-1.6-.7-2.5-.7-3 0-.3.6-1.6.8-2.9.5-1.5-.4-2.5-.1-2.9.9-.3.8-1.1 1.5-1.9 1.5-.7 0-2.3 1.4-3.6 3.1-1.4 1.9-2.8 2.8-3.8 2.5-.8-.3-2-.3-2.6.1-1 .6-6.9 1.2-12.5 1.3-2.9 0-7.7-3.1-6.2-4 1.5-.9.1-4-1.9-4-.9 0-2.9-.9-4.6-2-1.9-1.2-4.7-2-7.5-2-3.3 0-5.7-.8-9-3-2.5-1.6-5.3-3-6.2-3-2.4 0-5.6-4.6-6.4-8.9-1.3-7.8-2.4-9.9-5.5-10.6-1.6-.4-2.9-1.1-2.9-1.6 0-1.7-7.8-11.6-11.7-14.8-2.2-1.8-4.4-2.9-5.4-2.6-1 .3-3.4-.9-5.9-3-4.4-3.7-6-4.1-9-2.5-1.4.8-2.8.5-5.5-1.1s-3.8-1.9-4.9-1c-1 .8-1.6.9-2.1.1-.3-.5-1.5-1-2.6-1s-2.2-.7-2.5-1.5c-.4-.8-1.6-1.5-2.8-1.5-2.3-.1-6.6-3.2-6.6-4.9 0-.6-.9-1.1-2-1.1-1 0-2.4-.8-2.9-1.9-.9-1.6-.7-1.8 1.7-1.4 2.2.4 2.4.2 1.2-.7-1.1-.9-1.2-1.3-.2-1.7 2-.8.3-2.3-2.8-2.3-1.6 0-3.5-.7-4.4-1.5-.8-.8-2.2-1.5-3-1.5-.9 0-1.6-.7-1.6-1.7 0-1.3-.3-1.3-1.8.5-1.8 2.1-1.9 2.1-3.5.1-.9-1-2.1-1.9-2.6-1.9-1.9 0-2.3 2.2-.7 3.9 1.4 1.5 1.4 1.9 0 3.9-.8 1.2-1.3 2.6-.9 3.1.3.6-1 .8-3.2.5-2.2-.3-3.9 0-4.4.7-.9 1.5-4.9.5-7.9-2.1-2.6-2.3-4.6-2.6-5.4-.8-.3.9-.5.8-.4-.2.1-.8-.3-2.5-1-3.8-.7-1.2-1.1-2.6-.8-3.1.3-.5-.8-1.4-2.4-2.1-1.6-.7-3.9-2.8-5.1-4.7-2-3.2-4.8-4.1-4.1-1.3.2.7.9 4 1.6 7.4 1.9 8.7 4.1 13.4 7 14.7 1.5.7 2.8 2.3 3.1 4 .6 2.6 5.6 8.2 11.8 13.2 2.3 1.8 3 3.4 3.8 9.1.5 3.8.7 7.1.5 7.4-.3.2.6 1.4 2 2.5 1.9 1.4 2.4 2.6 2 4.2-.4 1.4 0 2.8.9 3.5.8.7 1.5 2.1 1.5 3.1 0 1.4-.7 1.9-3 1.9-3 0-3 0-2.3 4.7.3 2.7 1.2 5.2 1.8 5.8.7.5 1.6 2.3 1.9 3.8.4 1.5 1.1 2.5 1.6 2.2.6-.3 1 .1 1 .9s-.8 1.9-1.7 2.5c-1.4.7-2.7.2-6-2.5-2.4-2-4.6-3.3-5.1-3.1-.4.3-2.7.2-5-.3-3.3-.6-4.5-.4-4.9.6-.8 2.2-3.9 1.6-5.7-1.1-2-3-2-3.6-.1-2.9 1.1.5 1.5-.1 1.5-2 0-1.4-.5-2.6-1.1-2.6-.6 0-.9-.6-.6-1.4.4-.9 0-1.2-1.2-.9-1 .2-2.3-.3-3-1.1-1.2-1.4-1-1.6 1.2-1.6 3.5 0 4.3-1.6 1.5-3.2-1.3-.7-2.4-2.2-2.4-3.3-.1-1.1-.5-3.5-.9-5.4-.6-2.5-.5-3.2.3-2.7.7.4 1.2.2 1.2-.5 0-1.4-13.6-14.9-15-14.9-.6 0-1-.6-1-1.4 0-1.5-4.5-3-6.1-2-.5.3-1.6.1-2.3-.6-.8-.6-2.5-.8-3.8-.5-1.6.4-2.9.1-3.8-1.1-1.3-1.4-1.2-1.8.5-3.3 1.3-1 1.9-2.6 1.7-4.3-.2-1.5.1-3.6.7-4.6.8-1.5.6-2.4-1-4.1-1.1-1.1-2.5-2.1-3.2-2.1-.7 0-.6-.4.3-1 1.2-.8 1-1-.8-1-1.9 0-5.6-1.3-7-2.5-.2-.2.4-1.7 1.3-3.5 1.3-2.4 1.4-3.5.5-4.6-.7-.7-1-2.1-.6-2.9.8-2.2-.4-4.5-2.3-4.5-1.8 0-4.1-1.8-4.1-3.2 0-.4.7-.5 1.5-.2 2.1.9 1.9-1-.5-3.1-1.1-1-1.8-2-1.5-2.3.2-.3-.7-1.8-2-3.4-2.9-3.4-3.1-4.6-1-5.4 2-.8 1.9-2.3-.2-4.6-1.4-1.6-1.5-2.4-.6-4.9.7-1.7.8-4 .4-5.1-.7-1.8-.8-1.8-1.9.7-1.4 3-3.2 2.5-3.2-1 0-1.9-1-3-4-4.5-2.1-1.1-4.6-2-5.4-2-.8 0-1.6-.5-1.8-1.2-.3-.7-2-1.3-3.9-1.3-2.8 0-3.5-.4-3.7-2.3-.3-1.6.2-2.2 1.6-2.2 2.8 0 1.7-3.8-1.4-4.6-1.5-.4-2.5-1.6-2.9-3.5-.4-1.6-1.3-2.9-2.1-2.9-.7 0-1.9-.9-2.6-2-.8-1.3-1.9-1.8-3.4-1.4-1.2.3-3.9-.2-6-1.2-4.8-2.1-5.6-2.2-7-1.2-.7.5-3.7.5-6.8 0l-5.6-.9v2.9zm448.6 79.6c-.4.3-1.4-.2-2.4-1.2-1.6-1.8-1.6-1.8.6-.6 1.3.6 2.1 1.4 1.8 1.8zm-415.7 43.8c.1 1 1 2.7 1.9 3.6 1.4 1.7 1.3 1.8-.6 1.8-1.2 0-2.3-.7-2.3-1.5-.3-2.8-.4-3.3-1.1-4.1-1.2-1.2-.9-2.6.5-2.2.6.3 1.4 1.3 1.6 2.4zm281.1 28.9c0 1.8.1 1.8-3.9.4-2.9-1-3-1.2-1.4-2.4 2.1-1.5 5.3-.3 5.3 2zm122-2.1c0 .3-.4.8-1 1.1-.5.3-1 .1-1-.4 0-.6.5-1.1 1-1.1.6 0 1 .2 1 .4zm-303.2 16.7c-.2.6-.8 1-1.3 1s-1.1-.4-1.3-1c-.2-.6.4-1.1 1.3-1.1s1.5.5 1.3 1.1zm70.6 3c2.1 2.4 2.4 3.4 1.6 5-.8 1.3-.7 2.5 0 3.9.9 1.7.8 2-.7 1.7-2.5-.4-4.4-1.7-3.9-2.6.9-1.4-.9-3-2.4-2-1.3.8-1.3 1-.1 1.8.9.6 1.2 2 .8 4.2-.5 3.4.5 6.2 3 8.7 1.5 1.6 1.6 2.2.3 4.2-.6 1-1 1.1-1 .2 0-2-2.9-1.4-5.4 1.3-1.5 1.6-2.6 2.1-3.3 1.4-.7-.7-1.4-.5-2.3.6-.7.8-1.8 1.5-2.5 1.5-.8 0-1.1.8-.8 2 .6 2.3-.5 2.5-4.1.6-2.8-1.4-6.6-5.7-6.6-7.5 0-1.4-5.1-4-6.7-3.4-.7.3-1.3.2-1.3-.2 0-.3 1.4-1.1 3-1.6 1.7-.6 3-1.7 3-2.5 0-1.7 6.1-1.9 7.8-.2.9.9 2 .3 4.7-2.5 1.9-2 3.5-4.1 3.5-4.7 0-.6 1.1-1.6 2.5-2.2 1.4-.6 2.5-1.4 2.5-1.8 0-.4 1.1-2.3 2.4-4.3 1.3-1.9 2.2-3.8 1.8-4.1-.3-.3 0-.6.5-.6.6 0 2.3 1.4 3.7 3.1zm-40.4 18.9c-.8.5-1.7.7-1.9.4-.3-.3.1-.9.9-1.4.8-.5 1.7-.7 1.9-.4.3.3-.1.9-.9 1.4zm-3 .4c0 .3-.4.8-1 1.1-.5.3-1 .1-1-.4 0-.6.5-1.1 1-1.1.6 0 1 .2 1 .4zm-5.6 3.7c-.3.5-1 .7-1.5.3-.5-.3-.7-1-.3-1.5.3-.5 1-.7 1.5-.3.5.3.7 1 .3 1.5zm45.6 6.9c0 .5-.2 1-.4 1-.3 0-.8-.5-1.1-1-.3-.6-.1-1 .4-1 .6 0 1.1.4 1.1 1zm237.3 5.5c.4.8.2 1.7-.2 2-.5.2-1.2 1.7-1.5 3.2-1.6 6.9-2.8 8.5-5.5 7.8-1.4-.4-2.3-.3-1.9.1.8.7-4.4 4.4-6.1 4.4-.5 0-.7-.9-.4-2 .3-1.1 1.2-2 1.9-2 .8 0 1.4-.9 1.4-1.9 0-1.4.5-1.8 2-1.4 2.5.7 4.4-1.4 4.7-5.1.2-2.7 2.8-6.6 4.3-6.6.5 0 1 .7 1.3 1.5zm-265.7.3c.6.4 1.6 1.7 2.2 2.9.7 1.2 2.4 2.3 3.9 2.5 2.3.2 2.8.8 2.9 3 .1 1.5-.5 3.6-1.2 4.6-1.1 1.6-2.1 1.8-6.6 1.2-6-.8-6.7-.6-5 1.8 2.8 3.9 3.7 6.5 2.4 7-.6.2-1.2 1.1-1.2 2-.1 2-4.6 5.6-6 4.7-1.5-.9-1.2 1.8.4 4 1.5 2 1.1 4.9-.5 3.9-.6-.3-.7.5-.3 2 .4 1.8.2 2.6-.6 2.6-.9 0-.7.6.4 1.9 1.1 1.2 1.5 2.7 1.1 3.9-.3 1.1-.1 2.3.5 2.7.8.5.8 1.1-.1 2.1-.9 1.1-.8 1.8.2 3.1 1 1.1 1 1.7.3 2-.6.2-.9 1.5-.6 3 .4 2.2.2 2.5-1.5 2.1-1.6-.4-1.9-.1-1.5 1.8.3 1.7 0 2.4-1.2 2.4-.9 0-1.6.4-1.6.9 0 .6-2.2 2.2-5 3.7-5 2.7-5.9 3.8-4 4.9.6.3 1 1.7 1 3.1 0 1.9-.5 2.4-2.6 2.4-1.4 0-2.3-.4-1.9-1 .4-.6 1.1-.7 1.7-.4.6.4.6-.1-.1-1.4-.6-1.1-1.1-3-1.1-4.2 0-1.2-1-3.1-2.2-4.2-1.6-1.3-1.9-2.1-1-2.4 1.7-.8 1.5-3.4-.3-3.4-.8 0-1.5-.9-1.5-2s.7-2 1.5-2 1.5-.9 1.5-1.9c0-2 2.5-3.5 4.1-2.5.5.3.8 0 .7-.8-.2-.7.7-1.4 2-1.6 3-.5 4.2-3.1 4.4-9.7.1-3 .5-5.5 1-5.5.4 0 .8-.7.8-1.5s.4-1.5 1-1.5c1.5 0-.1-10.3-2-12.5-1-1.1-2.1-3-2.5-4.3-.7-2.6-2-2.7-5.7-.8-2.6 1.4-3.8 1.2-3.8-.6 0-.4.7-.8 1.6-.8 1.3 0 1.5-.7 1-3.3-.6-3-.4-3.4 1.6-3.3 1.7.1 2.2-.4 2-1.7-.2-1 .3-1.7 1.3-1.7.8 0 1.5-.6 1.6-1.3 0-1 .2-1 .6 0 .2.7.9 1.3 1.4 1.3.4 0 .6-.7.3-1.5-.5-1.1.1-1.5 2-1.5 1.7 0 2.6-.5 2.6-1.6 0-1.2.7-1.5 2.4-1.2 1.5.3 2.7 0 3-.8.6-1.5 4.4-1.9 6.2-.6zm244.9 23c.2 1.3 0 2-.5 1.7-.4-.3-1 .1-1.3.7-.3 1-.7 1-1.9 0-1.3-1-1.4-1.8-.5-4.2.9-2.5 1.4-2.8 2.4-1.7.8.7 1.5 2.3 1.8 3.5zm-218.5.4c0 .4-.4.8-.9.8-.6 0-1.2-.4-1.5-.8-.3-.5.1-.9.9-.9s1.5.4 1.5.9zm254.4 21c-.9 1.4-2.3-.2-1.7-1.8.4-1.2.8-1.3 1.4-.3.4.7.5 1.7.3 2.1zm67.9 40.1c-.7 1.1-2.3-1.2-2.3-3.2 0-1.1.4-.9 1.4.4.8 1.1 1.2 2.4.9 2.8zm-374.9 4.8c-.7 1.5-2 2.9-2.9 3.2-2.3.9-1.9-2.6.5-4.1 1.1-.7 2-2.2 2.1-3.5 0-2.1.1-2.1.8-.2.5 1.2.3 3-.5 4.6zm369.1-4.3c-.3.3-1.1 0-1.8-.7-.9-1-.8-1.1.6-.5 1 .3 1.5.9 1.2 1.2zm-373.6 14.7c0 .5-.8 0-1.8-1.3-1.1-1.2-2.7-2.2-3.8-2.3-1.3-.1-1.1-.3.7-.8 1.9-.6 2.8-.3 3.7 1.3.7 1.2 1.2 2.5 1.2 3.1zm406.8 11.9c-.3.7 0 1.9.6 2.5.8.8.7 1.1-.6 1.1-1.1 0-1.7-.8-1.7-2.5 0-1.4.5-2.5 1.1-2.5.6 0 .9.6.6 1.4zm.3 6.6c0 .5-.2 1-.4 1-.3 0-.8-.5-1.1-1-.3-.6-.1-1 .4-1 .6 0 1.1.4 1.1 1z"/><path d="M406.216 218.058c-4.7 3-5.5 4.8-3.7 7.7 1.6 2.5 3.5-.2 2-3-1.1-2-.9-2.1 1.7-1.9 4.7.4 6.3 0 6.3-1.6 0-.8.7-1.5 1.5-1.5 1.5 0 2.2-1.9.8-2.1-.5 0-1.5-.2-2.4-.4-.8-.1-3.6 1.1-6.2 2.8zM682.216 13.858c-.9 3.2-.9 3.9.2 3.9 1.4 0 2.2-3 1.2-4.7-.6-1.2-.9-1.1-1.4.8zM674.516 22.158c0 .2.7.9 1.5 1.6.9.7 1.5.8 1.5.2 0-.5-.7-1.2-1.5-1.6-.8-.3-1.5-.4-1.5-.2zM132.116 51.658c-.4.7-.5 1.5-.2 1.8.9.9 1.9-.4 1.4-1.8-.4-1.1-.6-1.1-1.2 0zM204.516 52.558c0 1 7.1 2.5 7.9 1.7.7-.8-.2-1.2-4.1-1.9-2.1-.4-3.8-.3-3.8.2zM576.516 56.258c0 2.3-4.6 4.1-6.3 2.6-1.1-.8-2.2-.9-4.1-.1-1.5.5-3.2.9-3.8.7-.6-.1-1.4.9-1.8 2.3-.7 2.6-2.1 2.9-7.2 1.5-2.4-.6-2.8-.4-2.8 1.3 0 3.2-1.1 5.2-2.7 5.2-.9 0-1.3.6-.9 1.5.3.9-.3 2.4-1.4 3.5-2.7 2.7-2.5 3.7.7 4.4 1.7.5 2.9.3 3.4-.6.6-.9 1.4-.7 3.4 1.2 2.2 2.1 2.9 2.2 4.5 1.2 1.1-.7 2.7-1.2 3.5-1.2 2.1 0 4.7-6.1 3.3-7.8-.8-.9-.4-1.2 1.5-1.2 1.4 0 2.9-.5 3.2-1 .4-.7 1.2-.7 2.5 0 2.5 1.4 3 1.3 2.4-.5-.4-.9 0-1.5.9-1.5 2 0 2.8-2.5 1.7-5.4-.6-1.7-.5-2.9.5-4.2 1.7-2.3 1.9-3.4.5-3.4-.5 0-1 .7-1 1.5zM355.116 61.558c-.2.4-.1 1.4.5 2.2.7 1.2.9 1 .9-.8 0-2.3-.5-2.8-1.4-1.4zM399.216 66.758c-.9 1.1-1.6 2-1.4 2.1 4.2 1.3 5.8.2 3.9-2.8-.6-.9-1.2-.7-2.5.7zM386.116 68.958c-.4 1.5 0 2.7 1.1 3.5 2.3 1.8 2.6 1.7 4-1.2.9-2.1.9-2.5-.6-2.5-.9 0-2.2-.5-2.8-1.1-.7-.7-1.2-.4-1.7 1.3zM537.516 78.258c0 1-.5 1.3-1.1.9-.8-.5-1 .1-.7 2 .3 1.4.1 2.9-.3 3.2-1.5.9-1 3 1.1 5.5 1.4 1.7 1.8 1.9 1.4.6-.5-1.3-.2-1.6.9-1.1 1 .4 2.3-.8 4.1-3.7 2.4-4.1 2.4-4.4.7-6-2.8-2.6-6.1-3.4-6.1-1.4zM387.516 80.758c0 .5.5 1 1.1 1 .5 0 .7-.5.4-1-.3-.6-.8-1-1.1-1-.2 0-.4.4-.4 1zM534.716 93.958c-1.6 1.6-1.5 3.4.4 6.3.9 1.3 1.3 2.8 1 3.3-.8 1.3 5 6.6 6.3 5.8 1.8-1.1 1.3-3.1-1.5-5.7-3.1-2.9-5.9-7.9-4.4-7.9.5 0 1-.7 1-1.5 0-1.8-1.2-1.9-2.8-.3zM74.316 104.358c-1.1 1.1.4 4.2 2.3 4.7 2.1.6 2.4-.5.9-3.4-1.1-1.9-2.2-2.4-3.2-1.3zM81.516 109.158c0 .2.7.7 1.6 1 .8.3 1.2.2.9-.4-.6-1-2.5-1.4-2.5-.6zM543.816 110.458c-2.4 1.6-3.1 6-1.4 7.8.5.6.5 2 0 3.2-.7 1.9-1.2 2.1-4.1 1.2-2.7-.7-3.5-.6-4.5.8-1.5 2-1.7 6.3-.3 6.3.5 0 .7.7.4 1.5-.4 1 0 1.5 1.2 1.5 1.1 0 2.8.7 3.9 1.6 1.7 1.3 1.8 1.6.5 2.4-2 1.3-2.6 1.2-4-.5-.7-.8-1.8-1.5-2.5-1.5s-1.2-.6-1.1-1.3c.2-2.2-1.9-2.2-2.2 0-.2 1.3-.8 2.3-1.3 2.3s-.8.6-.6 1.2c.2 1.2-1.1 1.4-3.8.8-.5-.1-2.3-.2-3.9-.1-2.2.1-2.6.4-1.8 1.4.8 1 .7 2.1-.6 4.3-2.4 4-2.9 10.4-.8 10.4.9 0 1.6.8 1.6 1.7 0 1 1.1 2.5 2.3 3.4 1.9 1.3 2.7 1.4 5.4.3 2.9-1.3 3.1-1.6 2.9-6.1-.1-2.6-.6-5.6-1-6.6-.6-1.3-.5-1.6.7-1.1 2.3.8 5.5-1.3 5.9-3.8.2-1.7 1.3-2.5 4.2-3.3 2.9-.7 4.1-.6 4.4.3.2.7 1.3 1.2 2.3 1.2 1.1 0 3 .5 4.2 1.2 1.9.9 2 .9 1-.3-1.7-2.1-4.4-9.8-4.9-13.9-.3-2.4.1-3.9 1.2-4.7 1.5-1.1 1.4-1.6-.9-5.7-2.4-4.3-2.4-4.6-.6-4.6 1 0 1.9-.4 1.9-.9 0-1.8-1.5-1.9-3.7-.4zM79.316 111.558c-1 .2-1.8.8-1.8 1.3s.8.9 1.8.9c1.6.1 6.1 5.8 6.3 8.3.1.7.5-.4.8-2.3 1.3-7-.9-9.5-7.1-8.2zM82.616 126.358c0 1.1.3 1.4.6.6.3-.7.2-1.6-.1-1.9-.3-.4-.6.2-.5 1.3zM363.516 139.858c0 .5.5.7 1 .4.6-.3 1-.8 1-1.1 0-.2-.4-.4-1-.4-.5 0-1 .5-1 1.1zM367.116 142.658c-.3.5 0 1.4.8 2 1.1.9 1.5.7 1.9-.9.5-2-1.6-2.9-2.7-1.1zM554.516 149.658c0 .5.5 1.3 1 1.6.6.3 1 .2 1-.4 0-.5-.4-1.3-1-1.6-.5-.3-1-.2-1 .4zM52.816 152.458c.9.2 2.3.2 3 0 .6-.3-.1-.5-1.8-.5-1.6 0-2.2.2-1.2.5zM385.016 157.758c.3.5 1.3 1 2.1 1s1.2-.5.9-1c-.3-.6-1.3-1-2.1-1s-1.2.4-.9 1zM48.616 159.458c-.5 1-1.2 1.7-1.5 1.5-1.9-.8-3.8.1-4.6 2.3-1.2 3.1-2 3.1-5.3.1-1.4-1.3-3.7-2.6-5.2-3-2.7-.7-2.7-.6-2.2 3.1.3 2.1.9 5 1.2 6.5.7 2.6.5 2.8-2.7 2.8-1.9 0-3.9.5-4.6 1.2-.8.8-1.5.8-2.6-.1-.9-.7-3.1-1.6-5-2.1l-3.4-.7 2.4 3.5c3.6 5.2 2.8 14.2-1.1 14.2-.8 0-1.9.8-2.4 1.9-1.1 1.9-5.3 3.6-8.3 3.2-1.2-.2-1.8.5-1.8 1.8 0 1.2-.5 2.1-1 2.1-.7 0-.7.6-.1 1.7.5 1 1.2 2.7 1.6 3.8.5 1.6.8 1.7 1.5.5s1.2-1.2 2.8.3c1 .9 2.4 1.7 3 1.7.6 0 1.8 1.3 2.6 2.9 1.7 3.2 9.8 7.7 11.7 6.5.7-.4.9-.3.5.4-.3.6.3 1.7 1.5 2.6 1.5 1 2 2.2 1.7 3.9-.4 2-.1 2.3 1.4 1.9 1-.2 2 .2 2.4 1.1.5 1.3 1 1.4 2.4.5 1.4-.9 2.7-.7 6 .9 2.9 1.5 4 1.7 3.6.8-.3-1 0-1.2 1.1-.8 1.3.5 1.5.2.9-1.3-1.6-3.7-1.8-5.4-1.2-8 .7-2.5.8-2.5 3.1-1 3.5 2.3 5.4 2.1 4.8-.5-.3-1.1-1.3-2.4-2.2-2.7-1.1-.5-.8-.8 1.4-1.2 2.5-.4 2.9-1 2.7-3-.2-1.4-1-4-1.9-5.9-1.6-3.5-1-6.1 3.3-14.3.8-1.4 1.4-3.4 1.4-4.3 0-.9.4-1.4.9-1.1.4.3 1.8-.6 3.1-1.9 1.9-2.1 2.2-3.2 1.8-7.6-.4-4.1-1.1-5.8-3.2-7.6-2.7-2.3-5.2-3.1-4.2-1.4.7 1.1-3.7 2.3-5.8 1.5-2.3-.9-2-4.1.4-4.9 2.1-.7 2.6-2 1.1-3-.6-.3-1.4.3-2 1.2zm-12.7 49.2c.4.5.2 1.9-.2 3.1-.7 1.9-.9 2-2.1.6-.7-.9-1.1-2.3-.7-3.1.6-1.7 2.2-2 3-.6zm3.6 6.7c0 1.4-1.9 2-2.1.6 0-.4-.2-1.5-.4-2.5-.3-1.5-.1-1.6 1.1-.6.8.6 1.4 1.8 1.4 2.5zM740.816 181.758c-1.3.5-2.3 1.2-2.3 1.5 0 .9 1.6.5 3.6-1 2.2-1.6 1.9-1.8-1.3-.5zM738.516 186.758c-1.3.9-1.3 1.1 0 2 1 .6 1.6.6 1.8 0 .7-2-.3-3-1.8-2zM721.416 198.058c-1.4 1.1-1.5 1.6-.4 3 .9 1.3 1.5 1.5 2 .7.4-.6.4-1.4.1-1.7-.3-.3-.1-1.2.5-2 1.4-1.6 0-1.7-2.2 0zM762.016 210.758c.2 2.1-.1 3-1 3-.8 0-1.7.4-2 1-.3.5.3 1 1.4 1 2.5 0 4.4-3.3 3.6-6-1-3.1-2.4-2.3-2 1zM100.516 277.858c0 .5.5.7 1 .4.6-.3 1-.8 1-1.1 0-.2-.4-.4-1-.4-.5 0-1 .5-1 1.1zM619.516 287.758c.6 1.2 1.6 1.7 2.7 1.3 1.4-.6 1.4-.8-.3-2-2.6-1.9-3.6-1.6-2.4.7zM347.516 310.758c0 .5.5 1 1 1 .6 0 1-.5 1-1 0-.6-.4-1-1-1-.5 0-1 .4-1 1zM756.516 324.158c0 .8.5 1.8 1.2 2.2.7.5-.1 1.7-2.2 3.4-2.8 2.3-3.8 2.6-5.7 1.7-1.3-.5-2.3-1.4-2.3-1.8 0-.4-.8-.7-1.7-.7-1 0-2.6-.3-3.5-.6-1.3-.6-1.5-.3-1.1 1.3.3 1.2.8 2.1 1.2 2.1.4 0 .5 1.5.3 3.4-.2 1.8.1 4.4.8 5.6.7 1.3.8 2.5.3 2.9-4.6 3 .1 12.1 6.3 12.1.6 0 1.7.6 2.3 1.4 1 1.2.9 1.8-.6 3.3-1.1 1.1-1.8 3.1-1.7 5 .1 1.8-.3 3.3-.7 3.3-1.4 0-1 2.7.6 4.4 1 1 1.2 1.7.4 2.1-.7.5-.3 1.5 1 2.9 1.7 1.8 2 3 1.4 7.4-.6 5-2.3 7.4-2.3 3.2 0-1.5-.7-2-2.5-2-1.4 0-2.5.4-2.5.9s-.9.7-2 .4c-1.8-.5-2.4-1.5-2.2-3.4.3-1.7-4.2-4.2-8.2-4.6-4-.5-4.4-.3-4 1.3.2 1.1-.7 3.2-2 4.8-2 2.4-2.6 2.7-4.5 1.6-1.7-.8-3-.8-5.7 0-3 1-3.8.9-5.5-.6-1-.9-1.9-1.2-1.9-.6s.5 1.4 1 1.7c.6.3 1 1.5 1 2.7 0 1.6-.5 1.9-2.5 1.6-1.3-.3-2.6-.1-2.7.4-.4 1.2-9.8-2.8-9.9-4.2l-.4-2c-.1-.6-.3-1.5-.4-2.1 0-.5-1.7-1.7-3.6-2.5-2-.8-3.3-1.8-3-2.3.2-.5-.2-2.5-1-4.4-1.2-2.8-1.9-3.4-3.7-3.1-1.3.2-1.8.2-1.1-.2.7-.3.9-1.2.6-2-.3-.8.1-1.4.9-1.4 1.6 0 5.8 3.6 5.8 5 0 .6.7 1 1.5 1s1.5.4 1.5 1c0 .5.8 1 1.7 1 1.5 0 1.4-.2-.3-1.5-1.7-1.1-2.1-2.5-2.1-7 0-3.8.4-5.8 1.3-6.2.9-.3.5-1.2-1.4-2.8-2.3-2.1-2.9-2.2-3.8-.9-1.2 1.5-7.3 2.2-9.2 1-.8-.5-1.2 0-1.2 1.3 0 2.4-3.2 3.6-6 2.1-1.8-.9-2-.8-2 1.4 0 2.6-4.5 6.6-7.3 6.6-.9 0-1.8.4-2.2.9-.3.5-1.9 1.2-3.5 1.6-1.7.4-4.4 1.8-6 3.2-2.8 2.3-2.9 2.6-1.4 4.8 1.4 2.2 1.4 2.5-.5 4.4-1.6 1.6-1.7 2.1-.5 2.5.8.3 1.4 1.4 1.4 2.5 0 2.5 9.4 12.1 11.8 12.1 1 0 2.3.5 2.8 1 .6.6 2.7 1.2 4.7 1.3 2.6.2 4.2 1 5.4 2.7 1.8 2.6 7.4 7.9 8.4 8 .4 0 .9-.9 1.2-2.1.5-1.7.9-1.9 2.6-1 3.7 2.1 5.8 1.3 8.7-3.3 3.6-5.8 6.4-6.5 11.5-3.2 5.1 3.4 8.7 3.4 9.5.1.5-1.9 1.1-2.4 2.5-2 1.1.4 1.9.2 1.9-.5s.7-.9 1.6-.6c2.7 1 4.6-2.2 5.1-8.8.5-5.6.8-6.3 2.4-5.9 1.1.3 1.9 1.2 1.9 2 0 1.2.8 1.4 4 .9 3.7-.6 4.1-.4 5.2 2 1 2.2 1 2.8-.5 3.9-.9.6-1.4 1.5-1 1.9.4.3-.2 1.2-1.2 2-1.8 1.3-1.8 1.5.8 4.9 2.3 3.1 2.6 4 1.7 6.3-.9 2.3-.8 3.1.9 4.7 1.6 1.7 2.3 1.8 3.5.8 1.4-1.2 1.5-2.9.1-6.2-.4-1 0-1.9.9-2.2.8-.3 2.4-2.5 3.4-4.8 1.4-2.9 2.1-3.7 2.5-2.5 1 2.4 7.8 5 10 3.6 1-.6 2.2-.8 2.8-.4.6.3 1.9-.3 3-1.5 1-1.1 3.7-2.6 5.9-3.2 2.8-.9 4-1.8 4-3.1 0-2.1.4-2.2 3.2-.7 2.9 1.6 8.8-1.7 8.8-4.8 0-1.3.4-2.3 1-2.3 1.7 0 4.2-6.8 3.5-9.8-.4-1.9-.1-3.4.8-4.3 1.5-1.6 1.1-4-.9-5.1-.9-.6-.8-1.7.7-4.8 2-4 2-4.1 0-8.5-1.1-2.4-2.9-5-4-5.7-1.2-.7-2.1-2.3-2.1-3.5 0-2.4-1.9-3-3.7-1.2-.8.8-1.8.6-3.6-.5-1.3-.9-2.9-1.5-3.4-1.4-1.4.5-8.2-6.8-8.9-9.7-.7-2.8-10.1-12.5-12.1-12.5-.7 0-1.3.6-1.3 1.4zM339.516 327.258c-.7.8-1.9 1.5-2.8 1.5-.8 0-1.2.3-.9.7.4.3-.2 1.3-1.4 2.1-1.1.8-1.8 2-1.5 2.8.3.9-.2 1.8-1.2 2.1-.9.4-2.2 1.4-2.9 2.2-.8 1.1-1.2 1.2-1.3.3 0-1.9-9.5-1.6-11.4.4-.9.8-1.4 1.9-1.1 2.4.3.5-.4 1.5-1.6 2.3-1.1.8-1.6 1.8-1.1 2.1.5.3 1.3 2.1 1.6 4 .5 2.5 1.1 3.4 2.1 2.9 1-.3 1.5.1 1.5 1.4 0 2.1 2.9 5.3 4.7 5.3.6 0 1.6.7 2.3 1.5 1.7 2 2.7 1.9 3.3-.6.3-1.1 1.1-1.9 1.9-1.8 2.7.3 3.4-.2 5.7-4.5 1.7-3.1 2.9-4.2 4.1-3.9 2.4.6 3.2-1 2-4.1-.6-1.8-.6-2.6.1-2.6.6 0 .8-.9.4-1.9-.5-1.6 0-2 2.2-2.3 2.5-.3 2.8-.7 2.5-3.6-.2-2.5.1-3.1 1-2.6 1 .6 1.1.5.1-.8-.7-.8-1-1.8-.6-2.1 1-1-2.8-4.7-4.7-4.7-1 0-2.3.7-3 1.5zM781.016 326.758c.3.5 1.1 1 1.6 1 .6 0 .7-.5.4-1-.3-.6-1.1-1-1.6-1-.6 0-.7.4-.4 1zM188.916 355.958c-.4 1.3-1.2 2.6-1.8 3-.6.5-.2.8 1 .8 2.2 0 6.1 3.6 5.1 4.6-1.3 1.3 1.4 4.3 4 4.6 2.4.3 2.9.9 3.4 4.1.7 4.3 4.5 8.2 9.2 9.2 1.5.4 2.7 1 2.7 1.4 0 .5 1.2 2 2.6 3.4 2.8 2.8 4.6 2.7 4.2-.1-.2-1.4.4-1.7 3.7-1.5 3.3.2 3.6.1 1.8-.7-1.3-.5-2.3-1.6-2.3-2.5 0-.8-.4-1.5-1-1.5-.5 0-1-.6-1-1.3 0-.7-.9-1.8-2-2.5s-2-1.8-2-2.6c0-.7-1.3-3.2-3-5.4-1.6-2.3-3-4.5-3-4.9 0-.3-2.3-2.8-5.2-5.5-4.9-4.6-8-5.9-9.3-3.8-.4.6-1.5.6-3.1 0-3.3-1.3-3.2-1.3-4 1.2zM319.716 363.058c-1.2.7-2 1.6-1.6 2 1 .9-1.7 3.9-3 3.4-1.4-.6-7.8 2.8-6.9 3.6.3.4 1.5.1 2.6-.4 1.3-.8 2.2-.8 2.6-.1.4.7 1.2.8 2.1.2.8-.6 2.5-1 3.8-1 1.7 0 2.2-.6 2.2-2.4 0-1.9.4-2.3 2-1.9 1.9.5 2 .3.9-2.1-1.4-3-1.6-3-4.7-1.3zM329.116 362.658c-.3.5.1 1.1.9 1.5 1.5.6 2.9-.7 1.8-1.8-.9-.9-2.1-.8-2.7.3z"/><path d="M743.016 385.758c.3.5.8 1 1.1 1 .2 0 .4-.5.4-1 0-.6-.5-1-1.1-1-.5 0-.7.4-.4 1zM486.116 397.558c-.3.6.1 1.3 1 1.6 2.3.9 2.8.2 1-1.3-.8-.7-1.7-.8-2-.3zM553.616 410.158c-1 1.2-.8 1.7.7 2.5 2.4 1.3 3.1.6 2.5-2-.6-2.3-1.6-2.4-3.2-.5zM309.616 467.358c0 1.1.3 1.4.6.6.3-.7.2-1.6-.1-1.9-.3-.4-.6.2-.5 1.3zM253.316 492.058c1.6 1.9.8 3.7-1.7 3.7-1.2 0-1.7.7-1.5 2.2.1 1.3.3 2.7.3 3.3.1.5.8 1.9 1.6 2.9 1.2 1.5 1.7 1.7 2.9.7.8-.7 2-1 2.5-.7 1 .7 8.4-3.5 9.5-5.3.4-.6-.9-1.3-2.9-1.7-1.9-.3-5.4-2-7.8-3.7-2.3-1.7-3.6-2.3-2.9-1.4z"/></g></svg>