<svg version="1" xmlns="http://www.w3.org/2000/svg" width="973.769" height="1230.226" viewBox="0 0 730.327 922.669"><g fill="#222"><path d="M60.631 1.318c0 1.4-.8 2.4-2.2 2.8-1.3.3-3.4 1.6-4.8 2.7-2.1 1.8-2.5 3.1-2.7 8.3-.8 18.9-.7 18.1-3.7 21.4-2.7 2.8-3.1 2.9-4.3 1.4-1.1-1.3-1.6-1.4-1.9-.5-.4.8-1.5 1.1-3 .7-1.6-.4-2.4-.2-2.4.7 0 1.1-.2 1.1-.8.1-1-1.6-4.2-.5-4.2 1.4 0 1.7-.1 1.7-3.5.4-2.6-1-2.7-.9-2 1.7 1.1 4.6 1.1 4.8-1.2 4.7-1.3 0-2.3.3-2.3.8 0 .4-.8.8-1.7.8-2.2.1-5.3 2.3-5.3 3.9 0 .6-.4 1.1-.8 1.1-1.2 0-4.2 6.7-4.2 9.5 0 1.5.6 2.5 1.5 2.5 1.2 0 1.3.4.3 2.5-.6 1.4-1.4 2.5-1.8 2.5-.4 0-.5 1.3-.2 3 .3 2.1 0 3-1 3-2.1 0-6.2 4.6-4.9 5.5.6.3 1.1.1 1.1-.5s.5-.8 1-.5c1.6 1 1.3 6.5-.4 5.9-1.9-.7-2.9 1.2-2.8 5 0 1.7-.6 3.8-1.4 4.8-1.4 1.5-1.4 1.9.1 4.2 1 1.4 1.5 3.4 1.3 4.4-.3 1 .5 3.1 1.8 4.8 2.3 2.8 2.4 2.8 2.4.6 0-1.3.4-2 1-1.7.6.4 2.6.9 4.5 1.1 2.7.3 3.7 0 4.5-1.6 1-1.9 3.1-2.8 2.9-1.3-.1.5 0 1 .1 1.3.1.3.4 1.6.5 3 .2 1.4.6 4.7.9 7.3.4 3.7.2 4.9-.9 5.3-2.2.9-1.1 2 5 4.9 4.1 2.1 6.2 2.5 8.2 1.9 1.6-.4 3.2-.6 3.6-.6.4.1 1.8.4 3 .6 1.2.2 2.1.9 2 1.5-.3 1.2 2 1.9 8.7 2.6 2.5.3 5.4.6 6.5.7 1.2.2 2.1 1.2 2.3 2.6.4 2.6 4.3 5.5 6.3 4.7 1.1-.4 1.3.5 1.1 4.2-.4 6.3 4.1 14 8.8 14.9 1.6.4 3.6 1.7 4.5 3 1.1 1.6 2.5 2.4 4.5 2.4 2.5 0 3 .4 3 2.5 0 1.5.7 2.8 1.8 3.2 2.3.9 4.2 3.5 3.7 5-.5 1.4 2.1 3.7 3.3 2.9.5-.3 1.6 1.1 2.6 3 1.3 2.9 1.4 3.9.4 5.1-1 1.3-.8 1.8 1 3.3 1.2 1 2.2 2.3 2.2 2.9 0 .6.5 1.1 1.1 1.1.5 0 .7-.5.4-1-.7-1.2.5-1.3 2.1-.2 1.8 1.2 2.5 4.4 1.3 5.8-1.6 1.9-.1 3.6 2.9 3.3 4.1-.3 8.1 1.1 9.3 3.2.8 1.6.5 2.1-1.5 3-2.5 1.2-4.1 5.7-2.5 7.3.5.6.9 2.9.9 5.1 0 2.3.3 4.5.8 4.9.7.7.8 1.1 1.1 3.7 0 .5.6.7 1.1.4.6-.3 1 .4 1 1.8 0 1.3 1.2 3.4 2.6 4.6 1.9 1.7 2.3 2.5 1.4 3.1-.9.6-.9.9-.1 1.5.9.5.9 1 0 2.1-.9 1.2-.6 1.4 2.2 1.6 1.9.1 4.3.1 5.4.1 1.1-.1 3.5.2 5.3.7 2.9.8 3.2.6 3.2-1.3 0-1.7.2-1.9.9-.8 1.3 2.1 6.3-.2 5.5-2.4-.4-1 0-1.5 1-1.5.9 0 1.6-.5 1.6-1.2 0-.6 1.1-.1 2.5 1.2 2 1.9 2.7 2.1 3.9 1 1.3-1 1.9-.9 3.2.5.9.9 2.3 1.4 3 1.1.7-.3 1.7.1 2.1.9.6.9 2.7 1.5 6 1.6 3 .1 5.4.7 5.7 1.4.7 1.9 5.8.5 6.3-1.6.4-1.5.9-1.6 2.4-.8 1.5.7 1.9.6 1.9-.6 0-.8.7-1.5 1.5-1.5s2.4-.9 3.5-2c1.6-1.6 2.5-1.8 4-1 1 .5 3.2 1 4.8 1 4.4 0 5.7 2.1 3.1 5.4-1.1 1.4-2.4 2.4-2.9 2.1-.5-.3-.3.8.3 2.5.6 1.6 1.5 3 1.9 3 .5 0 2.2 2.2 3.9 5 1.7 2.7 3.8 5 4.6 5 .8 0 1.7.9 2 1.9.3 1.1 1.3 2.1 2.4 2.4 2.7.7 2.4 3.2-.6 4.5-2.5 1.2-3.4 3.2-1.4 3.2.7 0 .9.9.5 2.2-.4 1.3-.9 3.6-1.1 5.2-.3 1.7-1.2 3.4-2.1 3.9-1.2.7-1.4 1.7-.9 4.4.7 3.6-1 9.3-2.7 9.3-.5 0-.7-.4-.3-.9.3-.5.1-1.2-.4-1.5-1.4-.9-5.9 3.2-6.3 5.7-.2 1.7-1.1 2.3-3.6 2.5-3.4.3-5.2 2.6-3.4 4.4 1.4 1.4.3 4.8-1.4 4.1-2.1-.8-1.7 2.4.6 4.7 2.4 2.4 6 2.7 6 .5 0-.8.4-1.5.9-1.5s1.3-.9 1.6-2c.3-1.1 1.3-2 2.2-2 1.1 0 1.4-.7 1.1-2.5-.4-1.7-.1-2.5.8-2.5 3.4 0 .5 10.9-3.7 14.5-2 1.6-2.9 3.1-2.5 4.1.4 1.1-.8 3-3.4 5.5-2.2 2.1-4.3 3.9-4.8 3.9-.4 0-1.3 1.2-2 2.7-.6 1.6-2.6 4.3-4.2 6.2-1.7 1.8-3 3.7-3 4.2 0 1.3 3.1 3.9 4.1 3.4.9-.6 1-.3 1.4 4.5.2 1.4.8 4 1.3 5.8.9 2.7.8 3.4-.3 3.9-.8.3-1.2.9-.9 1.4.3.5.3 2.3-.1 3.9-.5 2.3-1.2 3-3 3-1.4 0-3.3 1-4.5 2.2-1.1 1.2-2 1.9-2 1.5 0-.3-2.4.7-5.3 2.3-4.1 2.2-6.5 2.9-11.1 2.9-6.4 0-8.6 1-6.2 3 1.8 1.5 1 4.1-1.2 4.1-.8 0-2.3-.7-3.3-1.6-1-.9-2.6-1.3-3.6-1-1.7.5-1.9 1.9-1.4 8.1.1 2 3.9 3.9 5.4 2.7 2.1-1.7 7.1-2.2 8.7-.9 1.5 1.2 2.2 2.2 5.8 7.9 1 1.7 2.6 2.8 3.9 2.8 1.2 0 3.4 1.1 5 2.4 2.3 2 2.5 2.6 1.5 3.9-.9 1-1 1.7-.2 2.2.5.3 1 .1 1-.4 0-.6.9-1.1 2-1.1 2 0 2 .7.4 8.7-.3 1.7 0 2.3 1.3 2.3 4.6-.1 6.8-5.6 4.9-12.3-.7-2.3-.5-2.7 1.2-2.7 1.2 0 2.4-.5 2.7-1.1.4-.6 1.3-.8 2.1-.5.8.3 1.4.1 1.4-.4 0-.6.7-1 1.5-1s1.9-.9 2.5-2c.6-1.1 1.8-1.9 2.8-1.8 4.4.3 6-.3 6.6-2.6.6-2.4.7-2.4 3.7-.9 1.9.9 2.8 2 2.5 2.9-.3.8-.1 1.4.4 1.4.6 0 1-.9 1-2s.6-2 1.4-2c1.8 0 2.7 4.7 1.5 7.8-.6 1.6-.6 2.9.2 3.8 1.6 2 3.9 1.7 3.9-.4 0-1.3 1-1.7 4.6-1.8 2.6-.1 5-.7 5.4-1.3.5-.9 1.1-.7 2 .4 1.1 1.3 2.4 1.5 5.2 1.1 3.5-.6 4-.4 5.6 2.4.9 1.6 2.2 3 2.9 3 .7 0 1 .6.8 1.3-.3.7.9 1.7 3.2 2.4 3.3 1 4.2.9 7-.8 2.9-1.8 3.5-1.9 6-.6 2.5 1.3 3 1.3 4.7-.4 1.7-1.7 1.8-2.2.6-4.6-.7-1.6-1.3-3.3-1.2-3.9.3-1.3-4.6-1.3-6.5-.1-1.6 1-11.3-8.8-11.3-11.4 0-2.5-1.6-3.2-3.9-1.7-1.5.9-2.3.9-3.5-.1-.8-.7-2-1-2.5-.7-.5.4-1.2.2-1.5-.3-.4-.5-2.2-.7-4.1-.4-1.8.3-4.7.1-6.4-.5-2.3-.8-3.1-.7-3.5.4-.6 1.6-3.6 1.9-3.6.3 0-.5 1.4-1.5 3-2 1.7-.6 3-1.5 3-1.9 0-4.7-4.5-5.5-5.5-.9-.6 2.8-.8 2.9-2 1.2-.7-1-1.8-1.9-2.4-1.9-.6-.1-1.4-.2-1.8-.3-.3 0 .2-1 1.2-2.1 1.4-1.5 1.9-3.9 2.1-9 .1-3.9-.3-7.3-.8-7.6-.5-.3-.1-1.5.8-2.5 1.7-1.9 1.7-2.3.1-6.5-1.5-4.2-1.4-7.4.3-7.4.4 0 1-.9 1.3-2.1.3-1.2 1-1.8 1.6-1.4.7.4 1.1-.4 1.1-1.9 0-1.4-.4-2.7-1-3.1-.5-.3-.7-1.2-.3-2 .3-1-.1-1.5-1.1-1.5-1.3 0-1.5-.7-1-4 .6-3.5.4-4-1.2-4-1.7-.1-1.8-.1-.2-1.1 2.1-1.2 3.5-7.6 2-9.9-.8-1.3-.6-1.9.9-2.8 3.4-2.1 1.8-7.2-2.2-7.2-2 0-4.9-2.6-4.9-4.4 0-1.7 9.9-2 11.9-.3 1.3 1.1 2.6 1.1 6.4.3 2.6-.6 4.8-1.6 4.8-2.1.1-.6.3-1.2.6-1.5.3-.3.3.7-.1 2.2-.3 1.6-.2 2.8.3 2.8s1.1 1 1.4 2.2c.7 2.5 1.9 1.8 2.4-1.4.2-1.2.8-2.7 1.4-3.5.6-.7.9-2.2.6-3.3-.3-1.1-.3-2-.1-2 1 0 4.9 2.6 6 3.9 1 1.2 1.4 1 2.6-1.4l1.5-2.8 2.3 3.1c1.5 2 3.1 3.1 4.4 3 3.1-.2 9.8 2.2 12.2 4.4 1.6 1.4 2.9 1.7 5 1.2 1.6-.4 3.2-1.2 3.6-1.8.4-.6 2.3.3 4.9 2.4 2.4 1.9 5.4 3.5 6.8 3.6 1.5.2 4 .5 5.6.9 1.9.4 3.7.1 4.9-.8 1.7-1.2 2.2-1 5.3 2 3.7 3.6 4.9 4 5.6 2 .3-.9 1.1-.9 3.2.3 3.6 1.9 4.2 3.6 1.6 4.5-1.7.5-1.9.9-.9 2.5 1.6 2.5-.3 6.7-3.7 8-3.2 1.2-3.2 4-.1 6.9 1.8 1.7 2.5 1.9 2.9.9.8-1.9 2.7 1 2.7 4.2 0 1.4.3 4.9.6 7.9.5 4.3.3 5.6-1 6.3-1.2.7-1.3 1.4-.6 3.4.6 1.4 1 3.7 1 5.1 0 2.2-.4 2.5-2.5 2.1-1.5-.3-2.2-.1-1.8.5.4.6 1.2 4.6 1.8 8.9l1.1 7.9-3.5 1.7c-2 .9-4.7 2.9-6 4.4-1.3 1.6-3 2.7-3.9 2.6-1.1-.2-2.5 1.6-4.4 5.4-2.7 5.3-2.8 5.9-1.4 8 3.2 4.9-1.3 17.8-6.2 17.8-.8 0-2.5 1.1-3.8 2.5-1.3 1.4-2.9 2.5-3.6 2.5-2 0-2.3 9.9-.3 10.6 1.6.6 2.1 3.4.6 3.4-.4 0-.8 4.4-.9 9.7 0 8.7.3 9.9 2.2 11.5 1.1.9 2.8 1.8 3.6 1.8 1.1 0 1 .4-.5 1.7-2 1.5-2 1.5.4 1 3-.7 8.5 1.5 10 4 .8 1.4 1.1 1.4 1.1.3 0-1.2.3-1.1 1.1.3.6.9 1.4 1.5 1.9 1.2 1.3-.8 3.4 3.5 3.5 7 0 2.8.2 3 3.2 2.7 3.6-.3 4.6.9 5.7 7.1.6 3.4.5 3.9-1.3 4.4-1.4.3-2.1 1.4-2.1 2.9 0 1.3-.4 2.4-1 2.4-.5 0-1-.4-1-1 0-.5-.7-.7-1.6-.3-1.4.5-1.3.9.5 2.7 1.9 1.8 2.5 1.9 5.3.8 2.6-1 3.5-.9 4.8.3.9.8 2.1 1.5 2.7 1.5.5 0 2 1.1 3.3 2.5 1.3 1.4 1.8 2.5 1.1 2.5-2.5 0-.4 2.2 3.3 3.5 2.6.9 4.6 1.1 6.3.4 1.7-.6 3-.5 4.8.7 2.2 1.4 2.4 1.4 3.5-.5 1.1-2.2 4.4-2.8 5.5-1.1.3.5 1.5 1 2.5 1s4.2 2.2 7.1 5c5.2 5 7.1 5.8 9.8 4.1.9-.6 2.3-.4 3.8.6s3.3 1.3 5.1.9c9.5-2.3 10.2-2.4 10.2-.7 0 .9.9 2.2 2 2.9 1.1.7 2 1.9 2 2.7 0 .8.4 1.5.8 1.5.5 0 .9 1.3 1 3 .1 3.3-1.9 4.4-7.5 4.2-2.7-.1-3.3.3-3.3 1.8 0 2.2-2.8 2.6-6.5 1-1.8-.8-1.8-.9-.2-.9 5.2-.2 1.1-8.3-5.1-10.1-2-.5-5.2-1-7.1-1-2.6 0-3.2.3-2.7 1.5.3.9-.1 1.8-.9 2.1-2.4 1-1.9 3.7.5 2.9 1.8-.6 2-.2 1.8 2.2-.2 2.5-.5 2.9-2.6 2.5-2.2-.4-2.3-.3-1.3 1.7 1 1.8.9 2.1-1 2.1-2.2 0-2.2 0-.4 2.1 1.8 1.9 1.8 2.1.1 5.3-1.7 3.1-1.7 3.5-.1 6.5.9 1.8 2.9 3.7 4.5 4.2 2 .7 3.2 2.2 4.5 5.5 1.1 3 2.6 4.9 4.4 5.7 1.4.6 3.4 1.8 4.4 2.6 1 .8 2.3 1.6 3 1.8 9.7 2.1 14.7 4.6 14.7 7.4 0 1.2.9 3.2 2 4.6 1.1 1.4 2 3.2 2 3.9 0 .8.6 1.4 1.4 1.4.9 0 1.2.7.9 2-.6 2.4 3.4 4.4 5.4 2.8.9-.7 2.5-.3 5.5 1.5 3.5 2 4.2 3 4.4 5.8.1 1.9.5 4.4.9 5.6.5 1.7 0 2.8-2 4.7-1.5 1.4-3.2 2.3-3.7 2-.5-.3-.4.3.3 1.4 1.7 2.7-.6 8.6-3.2 7.9-1.3-.4-1.8.3-2.2 2.7-.3 1.7 0 3.7.7 4.5.6.8 1.1 2.1 1.2 3 .1.9.2 3.1.3 4.8.1 2.8.5 3.3 2.5 3.3 1.3 0 4 1.1 6 2.5s4.1 2.5 4.7 2.5c.5 0 1.2.7 1.5 1.5.8 2 4.3 1.9 8.5-.2 1.9-.9 5-1.8 7-1.9 2-.1 4.1-.4 4.7-.8.6-.3 1.3-.2 1.7.4 1.3 2.2 8.5.8 8.5-1.6 0-1.7 1.4-1.8 4.1-.4 1.4.8 2.5.7 4.1-.5 3.5-2.4 8.3-1.9 11.2 1.2 2.2 2.3 2.7 2.5 4.2 1.3 1.4-1.3 1.9-1.2 3.4.8 1 1.2 2.3 2.2 2.9 2.2.7 0 2.1 1.6 3.2 3.5 2.1 3.5 5.3 4.6 6.2 2.2.4-.7.6-.6.6.4.1 2.3 2.7 3.1 4.1 1.3.7-.8 1.8-1.4 2.6-1.4 1.7 0 3.3-3 2.6-4.9-.2-.8 0-1.1.5-.8 1.3.8 4.5-2.6 4.2-4.5-.4-3.3.3-4.9 3.1-6.3 1.8-.9 3-2.3 3-3.5 0-1.4.7-2 2.1-2 1.1 0 3-.5 4.1-1.1 1.7-.9 2.4-.7 4.2 1 1.8 1.8 1.9 2.4.8 4.1-1.1 1.8-.9 2.4 1.1 4.3 1.3 1.2 3.4 4.3 4.7 6.9 1.4 2.9 3 4.8 4 4.8 2.6 0 7 3.9 6.3 5.5-.3 1 1 3 3.6 5.3 4.2 3.8 5.2 7.3 3.8 13-.3 1.2-.2 2.2.4 2.2.5 0 .9-.4.9-.9 0-1.5 9.1-2.5 11-1.3 3.8 2.3 10.8-1.4 9-4.8-1.1-2.1 2.2-4.2 5.3-3.5 1.8.5 2.3.2 2.3-1.4 0-1.2-.8-2.4-1.8-2.7-1-.3-1.8-.8-1.8-1.2 0-.4-1.1-.8-2.5-.8-4.4-.3-7.7-4.4-3.5-4.4 3 0 6.9-2.1 7.6-4.2.3-1 1-1.6 1.5-1.3.5.3.6-.1.3-.9-.4-1.1 0-1.6 1-1.6 1.8 0 2-1.1.6-6-.7-2.5-.5-5.2.4-9.5 1-4.1 1.1-6.5.4-7.8-.5-1-.7-2.5-.4-3.2.5-1.4-1.4-2.5-4.4-2.5-5 0-10.3-5.7-7.9-8.6 1.4-1.7-.5-2.7-5-2.8-3.1-.1-3.7-.5-4.6-3.1-.6-1.7-2.1-4.6-3.3-6.5-2-3.3-2.1-3.6-.5-4.7.9-.7 2.9-1.3 4.5-1.3 1.8 0 2.8-.5 2.8-1.5 0-.9.6-1.2 1.5-.9 1.2.5 1.5-.4 1.5-4.6 0-5.8-1-8.1-5.2-12.6-1.6-1.7-2.8-3.5-2.6-4 .4-1.6-2.4-8.9-3.8-9.7-.8-.4-1.4-1.9-1.4-3.3 0-1.3-.7-2.7-1.5-3-.9-.4-1.5-1.9-1.5-3.5 0-2.1-.5-2.9-1.7-2.9-1.3 0-1.4-.3-.5-1.2.9-.9.8-1.6-.5-3-1.8-2-5.3-2.4-5.3-.7 0 .6-.6.9-1.3.6-1-.4-1.3.4-1.2 2.6.3 3.8-2.4 9.9-4 9.3-.6-.2-1.9 1.8-2.8 4.5-1 2.7-2.2 4.9-2.7 4.9-.6 0-1-.4-1-.9s-.9-1.1-2-1.4c-2-.5-2.9-4.7-1-4.7.5 0 .8-1.6.6-3.5-.3-3.9 2.9-8.5 5.9-8.5.9 0 2.5-1.9 3.6-4.3 3.3-6.9 4.8-9.2 5.9-8.9.5.1 1-1.3 1.1-3 .1-4.6 1.3-8.3 2.6-8.3.6 0 1.5-.3 1.9-.8.4-.4.2-.7-.4-.7-.5 0-1.7-.3-2.6-.6-1-.4-1.6-.1-1.6.9 0 2.5-2.2 3.2-3.6 1.3-1.1-1.6-1.3-1.4-1.6 1.5-.2 1.9-1.1 3.6-2.3 4.3-1.1.6-2.2 1.2-2.4 1.3-.2.2.4 1.2 1.3 2.2 1 1.1 1.6 2.8 1.4 3.8-.4 1.9-3.8 3.2-3.8 1.3 0-1.8-2.3-3.7-4-3.3-2.3.6-8-5.2-8-8.2 0-1.5-.9-3.1-2.4-4-2.2-1.5-5.2-7.7-5.7-12-.2-1.8.3-5.7 1.7-12.3.2-1.2 1.1-2.2 2-2.2.8 0 1.7-.7 2-1.5.4-.8 1.2-1.5 2-1.5 1.7 0 1.8-1.2.2-2.9-1.1-1.1-.9-1.1.9-.2 1.4.7 2.4.7 2.8.1.3-.5 1.2-.7 2-.3 1.1.4 1.3.1.8-1.3-.5-1.3-.3-1.5.7-.9.8.5 1.1.3.8-.6-.3-.8.1-2.1.9-3 1.7-2 .2-6.9-2.1-6.9-1.8 0-6-5.7-6.1-8.4-.1-1.2-.5-3.3-.9-4.8-.7-2.4-1-2.6-3.2-1.6-2 .9-2.8.8-4-.4-1.4-1.4-1.3-1.6 1.1-2.2 2.1-.5 2.6-1.1 2.2-2.7-.5-1.8-.2-2 1.9-1.6 1.6.3 2.4 0 2.4-.9 0-.8.5-1.4 1-1.4.6 0 1 .6 1 1.3 0 1.7 2.9 4.3 5.5 4.9 1.6.4 2.4-.3 3.7-3.3l1.6-3.8-3.6-1.3c-2.1-.6-4-1.1-4.3-1.1-.3.1-1.8-1.1-3.3-2.6-2.5-2.6-2.6-3.1-1.5-5.2.7-1.3 1.2-2.7 1.1-3.1-.1-.4 1.2-.5 2.9-.1 2.8.5 3.1.4 2.5-1.4-.5-1.7-.1-2.3 2.4-3.1 2.9-1 4-3.8 2.3-5.6-1.3-1.3-1.1-3.6.3-3.6 1.6 0 2-4.9.4-5.1-1.9-.3-2.5-.5-5.7-2.5-2.9-1.7-3.3-2.4-3.3-6.1 0-3.6-.3-4.1-1.7-3.6-1 .3-1.5.2-1-.2.7-.8-4.3-3.5-6.5-3.5-.5 0-.7 1.3-.3 3 .5 2.4.3 3-1 3-.9 0-1.3.4-1 1 .3.5.1 1.9-.6 3.1-.9 1.7-1.7 2-4.5 1.6-1.9-.3-3.6-.1-4 .5-.4.7-.9.6-1.4-.2-.5-.8-4.8-1.3-13-1.5-6.7-.2-12.6-.7-13.1-1.2-1.8-1.8-1.9-7.6-.1-8.9 1.2-.8 1.7-2.7 1.7-6.1.1-2.6.5-5.7.9-6.8 1.5-3.8 1.5-4.5.1-4.5-.7 0-1.5-1.2-1.7-2.7-.2-1.8-1-2.9-2.5-3.3-3.8-.9-10.2-7.7-10.9-11.6-.6-3.1-1.4-3.9-5.8-5.9-2.8-1.3-6-3.3-7-4.4-2-2.2-5.1-2.7-7.4-1.2-.8.5-2.9.3-5-.5-2.6-.9-3.9-.9-4.4-.1-1.1 1.8-3.5-.9-4.1-4.7-.5-3.3-4.4-8.4-5.9-7.9-.4.2-1.8-.1-3-.6-4.6-1.7-8-2.2-7.3-1.1.3.5-.2 1-1.3 1-2.1 0-3.4-2-3.9-6.2-.1-1.4-2.3-6.8-4.8-12-2.5-5.1-4.5-10-4.5-10.9 0-2.5-4.7-3.1-5.3-.7-.3 1.2-1.1 1.6-2.1 1.2-1.1-.4-1.6-.1-1.6 1 0 1.9-2.1 2.1-3.8.4-.8-.8-1.5-.8-2.7.2-1 .9-1.9.9-2.7.2-.8-.6-4.2-.8-7.9-.6-7.2.4-6.8.7-9.3-6.9-.3-1.1-1.6-1.7-3.6-1.7-2.3 0-3.3-.6-4.2-2.6-1-2.2-.9-2.7.5-3.5 2.1-1.2 2.2-4.7.2-7.3-.8-1.1-1.3-2.8-.9-3.8.3-1.1-.4-2.7-1.9-4.2-1.4-1.4-2.2-2.8-1.8-3.1.3-.4-.2-1.2-1.2-2-1.6-1.2-1.6-1.4.7-2.9 3.3-2.1 3.4-2.1 3.4 1 0 1.4 1.2 3.8 2.7 5.4 1.5 1.6 2.5 3.2 2.2 3.8-1.1 1.7 1.6 8 3.9 9.3 1.4.7 2.4 2.2 2.4 3.4 0 2.8 2.6 5.1 6.8 6 2.8.6 3.2.4 3.2-1.3 0-4 1-5.2 3.6-4.2 2.1.8 2.4.7 2.4-1.1 0-1.7.5-2 2.1-1.6 1.3.4 3.2-.2 4.9-1.5 2.5-1.8 3.2-1.9 6.5-.8 2 .7 3.7 1 3.9.8 1.5-2.3 2.4-5.8 1.5-6.4-.6-.3-1.9-2-3-3.8-1-1.7-1.9-2.5-1.9-1.9 0 .7-.4 1.3-1 1.3-.5 0-1-2.2-1-4.9 0-5.5-2.2-9.1-5.6-9.3-2.5-.2-4.9-3.4-3.4-4.3 1.8-1.1 1.1-2.4-3.9-7.3-2.6-2.6-5.1-5.8-5.6-7.1-.5-1.8-1.2-2.2-3.3-1.8-1.5.3-3.8-.3-5.6-1.4-2.1-1.3-2.5-1.9-1.3-1.9 2.1 0 2.3-2.3.3-3.9-1.1-1-1.7-.7-2.9 1-1.4 1.9-2.3 2.1-6.1 1.7-4.7-.6-5.9.5-3.5 2.9.8.8.8 1.7 0 3.2-.9 1.7-.8 2.4.8 4 1.7 1.7 1.8 2.1.4 3.8-.8 1-1.2 1.3-.9.6.4-.7-.8-1.4-3.1-1.8-2.8-.5-4.7-1.8-7.3-5-1.9-2.4-4-4.4-4.6-4.4-.6-.1-1.9-1-2.8-2-1-1.1-2.4-1.7-3.2-1.4-.8.3-1.4-.1-1.4-1s1-1.7 2.3-1.9c1.8-.2 2.1-.8 1.9-3.3-.2-1.7-1-3.3-1.7-3.8-.8-.4-2.1-1.4-2.9-2.2-.8-.8-1.9-1.5-2.5-1.5-.6 0-.7-1.1-.1-2.9.6-2.3.4-3.3-.9-4.5-1-.9-2.2-1.6-2.8-1.6-.6 0-1.6-.7-2.3-1.5-.9-1.1-1.6-1.3-2.4-.5-2.1 2.1-2.9.9-.8-1.3 1.2-1.3 2.2-3.1 2.2-4 0-1 .5-1.4 1.5-1.1 1 .4 1.5 0 1.5-1.1 0-1.2.6-1.6 1.8-1.3 1.5.4 1.7-.1 1.5-3.3-.1-2.4.4-4.5 1.4-5.4 1.4-1.5 1.8-1.4 3.7.4 2.8 2.6 4.6 2.7 3.9.2-.3-1.3-1.1-1.7-2.5-1.3-1.7.4-1.9.1-1.3-1.7.5-1.7.2-2.1-1.3-2.1-1.1 0-2.2-.6-2.5-1.3-.3-.8-.9-.6-2 .8l-1.6 2-.6-2c-.4-1.1-1.1-3-1.6-4.3-1.1-2.7 1.4-3.2 3-.5.6 1 1.1 1.3 1.1.6 0-.6-.9-1.8-2.1-2.6-1.4-1-1.6-1.6-.7-1.9.7-.3.4-.7-.9-1-1.7-.5-2-.2-1.6 1.1.5 1.2.3 1.3-.7.4-2.1-2-.2-3.1 4.5-2.5 3.5.4 4.5.1 4.5-1s.7-1.4 2.5-1c2.1.4 2.4.1 1.9-1.4-1.5-4.2-3.5-5.4-7.8-4.8-2.8.4-4.7.1-6.1-1-1.9-1.4-1.9-1.5 1.6-3 1.9-.8 5.4-1.6 7.7-1.9 2.3-.2 4.5-.6 4.8-1 .4-.3 1.6 0 2.6.8 1.1.7 2.7 1.1 3.4.8 1.7-.6 1.8-3 .2-3.5-1-.4-1-1.7-.1-5.9.6-3 .7-5.6.3-5.9-1.3-.9-4.1-7-3.5-7.9.3-.5.1-1.1-.4-1.3-.5-.1-.7-1.5-.4-3 .3-1.5.9-2.5 1.3-2.3.5.3 1.1.1 1.4-.3.3-.5 1.7-.7 3.1-.5 4.7 1 4.7-6.9-.1-8.1-2-.5-2.3-1-1.5-2 .9-1.1.3-2-2.5-4.3-3.2-2.6-3.7-3.5-4-8.6-.3-3.5-.1-5.7.6-5.7 1.9 0 1-3.2-1.1-3.7-1.1-.3-2.5-1.7-3-3-.6-1.6-1.5-2.3-2.4-1.9-1.7.6-3-1-1.5-1.9.6-.4.7-1.2.1-2.4-.7-1.3-.5-2.2 1.1-3.5 1.7-1.5 1.9-2.5 1.4-6.2-.3-2.6-.1-5.5.6-7 .9-1.9.9-3 0-4.4-.8-1.3-.9-3.3-.3-6.7.8-3.9.6-5.4-.9-8.3-1-1.9-2.1-5.1-2.5-7-1.3-7.5-1.8-9.2-3.1-9.7-.8-.3-1.4-1.3-1.4-2.3 0-1.3-.6-1.6-2.3-1.3-1.4.3-2.9-.3-4.1-1.6-1.1-1.2-2.4-2.1-3.1-2.1-.7 0-2-.9-2.9-1.9-1-1.1-2.4-1.7-3.1-1.5-.7.3-1.6-.3-1.9-1.4-1-2.9-3.1-4.4-7.6-5.2-2.9-.5-4.3-.3-5.1.6-1.5 1.9-3.9 1.8-3.9-.1 0-.9-1.8-3.2-4.1-5.3-2.3-2-5.2-4.7-6.5-6-3-2.7-3.4-2.7-3.4-.2 0 1.1.6 2 1.4 2 1.7 0 2.7 3.3 1.5 5.1-.4.7-.2 2.2.4 3.3.6 1.2 1.2 3.2 1.4 4.6.4 5.1 1 7.1 2.1 8.2 1.8 1.8 1.4 3.5-.8 4.1-2.3.6-1.7 3.7.6 3.7 1.6 0 1.9 1.6.4 2.5-.5.3-1 1.4-1 2.4 0 1.5 1 1.9 5 2.3 5.9.6 6.4 1 6.5 4.5 0 1.5.6 2.8 1.3 3.1.7.2 1-.2.6-1.2-.3-.9-.1-1.6.6-1.6 2.5 0 4.9 2.1 5.5 4.9.4 2.1 1.1 2.8 2.4 2.4 1.2-.3 3.1 1 5.9 4.2 2.6 2.9 4.3 4.2 4.7 3.4 1.4-2.1 2.5 1.4 2.5 7.9 0 6-.1 6.3-2.2 6-1.3-.2-2.2-.8-2.1-1.4.1-.7-1.6-1.2-4.2-1.2-3.5-.1-4.3.2-3.8 1.3.3 1-.1 1.5-1.2 1.5-1.7 0-1.7.1 0 2 2.6 2.9 2.7 5.1.4 7.6-1.7 1.8-1.8 2.3-.5 3.3.8.7 2 1 2.5.7.6-.4 1.5.2 2 1.2 1.4 2.6-1.3 6.5-4 5.7-1.1-.4-1.9-.2-1.9.5 0 1.9-4.5 3.3-6.8 2.1-1.6-.8-2.1-.7-2.6.5-.5 1.3-.9 1.3-3.2-.5-1.8-1.4-3.4-1.8-5.5-1.4-2 .4-2.9.2-2.9-.7 0-.8-.3-1-.6-.7-.4.4-.1 2 .6 3.7.9 2.3 1 3.3.1 4.4-.8 1-.8 2.1-.1 4.1 1.5 3.8.4 6.5-2.6 6.5-1.5 0-2.4.6-2.4 1.6 0 1.2-.7 1.5-2.6 1.1-1.9-.3-2.4-.1-2 1 .3.8-.4 1.8-1.9 2.5-1.4.6-2.5 1.4-2.5 1.8 0 .4-1.5.6-3.2.6l-3.3-.2v5.1c0 2.9.5 5.4 1.3 6 .7.6 1.5 1.9 1.6 3 .2 1.4 1 1.9 2.5 1.8 1.8-.2 2.1.2 2.1 3 0 1.8-.6 4.5-1.2 6-1.1 2.2-1.8 2.6-4.5 2.3-1.8-.2-3.3.1-3.3.6 0 .6-1.6.8-3.5.6-1.9-.2-3.5 0-3.5.4s-.9.8-2 .8-2 .4-2 1c0 .5-.9 1-1.9 1-1.1 0-2.2.4-2.5.9-.8 1.3-5.6 2-5.6.9 0-.6 1.1-2.3 2.5-4 1.9-2.3 2.3-3.4 1.5-4.8-.8-1.5-.6-2.2.9-3.2 1.4-1 1.7-1.8 1-2.8-.5-.8-.9-2.5-.9-3.8 0-1.2-.9-3.1-2-4.2s-2-2.4-2-2.9-1.4-1.9-3-3.1c-2.2-1.5-2.8-2.6-2.1-3.4.5-.6 1.5-3.4 2.2-6.1 1.4-5.8 2.4-6.7 6.2-5.9 3.3.7 3.3.5.6-4-2.2-3.8-1.7-4.5 1.6-2.2 1.9 1.3 2 1.1 1.9-4.3-.1-3.6-.7-5.8-1.5-6.2-5.4-2.6-6.9-3.1-8-2.7-.7.2-2.1-.4-3.1-1.4-1.2-1.2-3.1-1.8-5.2-1.6-1.9.1-4.1-.4-5-1.1-1.1-.9-1.6-1-1.6-.2s-1 .6-3.1-.5c-2.6-1.3-3.3-1.4-4-.2-.5.7-.9 1.6-.9 2 0 .4-1.6 1-3.5 1.4-3.4.6-6.5 3.9-6.5 6.8 0 2.2-5.8 3.1-7.9 1.2-1-.9-2.1-1.6-2.5-1.6-.5 0-1.7-1.1-2.8-2.6-1.1-1.4-2.3-2.3-2.5-2-1 .9-5.9-2.2-8.9-5.6-1.6-1.8-4.2-4.1-5.7-5.1-1.5-.9-2.7-2.4-2.7-3.1 0-.8-2.1-2.4-4.7-3.7-3.5-1.8-4.8-2.9-4.6-4.4.1-1.1-.5-2.4-1.3-2.8-.8-.5-1.2-1.3-.8-1.8.4-.7-.9-1-3.5-.8-3 .2-4.6-.2-6.4-1.9-1.3-1.2-3.1-2.2-4-2.2-1.9 0-2.3-1.5-.6-2.5 1.7-1.1 2.8-4.9 1.7-6.2-.6-.7-.6-1.8 0-3 1.7-3.2 3.7-10.7 3.4-12.8-.2-1.1-1.1-2.7-2-3.5-2.2-2.1-4.2-5.6-4.2-7.5 0-.9-.7-2.7-1.6-4-.9-1.4-1.3-3.2-.9-4.5.4-1.4-.1-3-1.9-5.1-2.9-3.5-3.3-6.4-1-7.3 1.9-.7.8-2.8-1.4-2.5-3.4.3-4.4-.1-3.9-1.6.4-.8.1-1.7-.5-2.1-.7-.4-.7-.9.1-1.4.8-.4.9-1.4.2-3.1-1-2.8-4.4-6.2-3.9-3.9.2.7-.3 1.5-1.1 1.8-1 .3-1.2 0-.8-1.2.4-.9.1-1.6-.6-1.7-.7-.1-2.1-.2-3.1-.3-1.2 0-2.8-1.6-4-3.8-1.6-3.1-2.3-3.7-4.2-3.2-1.6.4-3.4-.3-5.8-2.1-2-1.5-3.6-2.3-3.6-1.7 0 1.7-6.1 3.4-7.7 2.1-.7-.7-2.8-1.3-4.7-1.4-1.9-.1-4.6-1.2-6.1-2.3-1.9-1.5-3.2-1.9-4-1.2-.8.6-2.3.2-4.6-1.4-2-1.4-4.2-2.4-5-2.4-3.6.2-4.9-.4-6.3-3-1.4-2.4-1.5-2.5-1.6-.6zm263.6 106.4c.1.8.5 2.2.9 3.1.9 2.3-.9 3.1-3.8 1.8-1.5-.7-2.3-1.7-2-2.5.4-1-.3-1.4-2.1-1.4-1.4 0-2.6-.5-2.6-1.1 0-.5.4-.8.8-.5.4.2 1.4 0 2.2-.5 2.1-1.3 6.3-.7 6.6 1.1zm-56.3 67.9c-.4 1.5-.8 1.9-1.3 1.1-1-1.6 0-5.4 1.1-4.3.5.5.6 1.9.2 3.2zm48.7 33.1c0 .5-.4 1-.9 1-.6 0-1.3-.5-1.6-1-.3-.6.1-1 .9-1 .9 0 1.6.4 1.6 1zm-1.5 8c.3.5-.1 1-1 1s-1.3-.5-1-1c.3-.6.8-1 1-1 .2 0 .7.4 1 1zm24.1 53.1c1.6 1.7 1.6 2.2.4 2.9-2.2 1.4-3 1.2-3-.6 0-.8-.4-1.2-1-.9-1.2.7-1.2.3-.4-1.9.8-2.1 1.7-2 4 .5zm-6.8 3.5c1.3.4 2.2 1.4 2.2 2.6 0 1.4-.5 1.8-1.6 1.4-.9-.3-2.2-.6-3-.6-.8 0-1.4-.9-1.4-2 0-2.2.3-2.3 3.8-1.4zm28.9 3.4c.8 1.2.9 2.1.3 2.5-.6.4-.8 1-.5 1.5.3.4-.2 1-1 1.4-1.1.4-1.4-.3-1.2-3.4.2-4.5.7-4.9 2.4-2zm-16.1 9.2c-2.2 1.3-3.9 0-2.3-1.7.9-.9 1.6-1 2.5-.2 1.1.9 1 1.2-.2 1.9zm14.4-1.8c0 .3-.4.8-1 1.1-.5.3-1 .1-1-.4 0-.6.5-1.1 1-1.1.6 0 1 .2 1 .4zm-9.7 3.1c.3 1.6 0 2.4-.7 2.2-1.4-.4-2.1-4.7-.8-4.7.5 0 1.2 1.1 1.5 2.5zm-89.8 127.5c.3.5-.1 1-.9 1s-1.8-.5-2.1-1c-.3-.6.1-1 .9-1s1.8.4 2.1 1zm255.9 8.1c-.6 1.1-2.4.2-2.4-1.1 0-.5.7-.7 1.5-.4.8.4 1.2 1 .9 1.5zm-43.4 78.9c0 .5-.4 1-1 1-.5 0-1-.5-1-1 0-.6.5-1 1-1 .6 0 1 .4 1 1zm1.5 10.1c2.1 1.9 3.2 6.9 1.5 6.9-1.9 0-3.1 3.9-1.9 6.1.8 1.7.8 2.3-.1 2.9-.7.4-.9 1.3-.6 1.9.4.6 1.1.9 1.6.6.5-.3 1.1.4 1.5 1.5.9 2.7 2.1 2.5 5.7-1 2.1-2.1 3.6-2.9 4.9-2.5 1.1.4 1.9.2 1.9-.4 0-2 1.5-1.1 3.3 2 1.8 3.3 2.3 7.4.7 6.4-1.5-.9-1.2.2.6 2 1.2 1.2 1.3 1.9.5 2.9s-.9 1.6-.1 2.1c1.8 1.1 1.1 3.5-1 3.5-2.4 0-2.4.1-.5 4.6 1.6 3.8 1 6.8-1.1 6-.9-.3-1.4.2-1.4 1.4 0 1.1-.6 3.9-1.2 6.1-1 3.1-1.9 4.2-4 4.6-2.7.5-4.5 4.8-2.8 6.8.5.6.5 1.7 0 2.5-1.1 1.7-.2 8.9 1.2 10.7.7.9.2 2.2-1.6 4.4-2.9 3.5-3.3 5.7-1.1 6.5 1.1.5 1.3 1 .5 1.9-.8 1-.8 1.5 0 2s.7 1.2-.4 2.4c-.9 1-1.4 2-1.1 2.3.3.3-.9.5-2.6.6-2.6.1-3.3-.5-4.5-3.3-1.6-3.9-10.1-8.9-13.7-8-2.5.7-6.8-2.9-9.2-7.6-1.3-2.3-2.1-2.9-3.6-2.4-3 1-8-1.3-11.6-5.4l-3.3-3.6-2.4 2.7-2.4 2.7-5.1-2.4c-2.8-1.4-5.7-2.4-6.3-2.3-.8.2-1.4-1-1.6-3.1-.3-2.6.2-3.9 1.8-5.1 1.9-1.4 2-2.1 1.2-5.7-.5-2.3-.7-6.2-.5-8.8.5-3.7.3-4.5-1.1-4.5-.9 0-1.9-.6-2.2-1.4-.3-.8-1.5-1.7-2.7-2-3.8-.9-9.8-6.6-9.2-8.6.3-.9-.1-2.3-1-3-1.4-1.1-1.4-1.4.2-2.5 1-.7 4.1-1.1 6.8-1 2.8.1 5.5-.2 6.1-.6 1.1-.9 3.1-.4 11.3 2.6 4.2 1.5 4.6 1.5 7.1-.3 1.9-1.4 3.1-1.7 4.3-1 .9.5 1.7.5 1.7.1s.4-1.5 1-2.3c.7-1.2 1.2-1.2 2.9.4 2.1 1.9 2.1 1.9 2.7-1.3.6-2.8 1-3.1 3.3-2.6 2.2.5 2.9 0 4.3-2.7.9-1.8 2-4.7 2.3-6.4.3-1.8 1.4-3.9 2.4-4.9 1.1-.9 1.7-2.4 1.4-3.6-.7-2.6 2.3-2.5 3.9.1.8 1.2 2.4 2 4 2 2.3 0 2.8-.4 2.8-2.6s.3-2.4 2.3-1.9c1.2.4 3.1 1.6 4.2 2.6zm-81.1 17.5c.9.3 1.4 1 1.1 1.5-.7 1-3.5 0-3.5-1.2 0-1.1.3-1.1 2.4-.3zm6.5 2.5c-1.6 1-2.3.4-1.4-1 .3-.6 1.1-.8 1.7-.5.6.4.5.9-.3 1.5zm-30.9 13c0 .5-.7.9-1.5.9-1.5 0-2-1.2-.9-2.3.8-.8 2.4.1 2.4 1.4zm151.3 46.8c.3.9.8 2.5 1.3 3.5.6 1.6.4 1.8-1 1.3-1.2-.5-1.5-.3-1 .5 1.1 1.8.5 7.1-.9 8-1.6 1-1.9 1-4-.7-1.8-1.3-2.3-5.3-1.8-12.7.1-2.3 6.7-2.2 7.4.1zm2.2 16.1c.8 1.3-.5 1.3-2.5 0-1.3-.8-1.3-1 .2-1 .9 0 2 .4 2.3 1zm-55.2 2.7c-.7.2-1.9.2-2.5 0-.7-.3-.2-.5 1.2-.5s1.9.2 1.3.5zm13.7 2.7c0 .2-.7.6-1.5 1-.8.3-1.5.1-1.5-.4 0-.6.7-1 1.5-1s1.5.2 1.5.4zm89.5 56.6c.3.5.2 1-.4 1-.5 0-1.3-.5-1.6-1-.3-.6-.2-1 .4-1 .5 0 1.3.4 1.6 1zM251.631 17.518c0 1.7 3 6.2 4.1 6.2 1.5 0 1-1.3-1.6-4.5-1.4-1.7-2.5-2.4-2.5-1.7z"/><path d="M342.331 189.418c.3 2.3 1.5 4.7 3 6.1 2.1 1.9 2.4 2.9 2 5.8-.4 2.3-.2 3.2.5 2.8 1.8-1.1 0-12.6-2.3-14.2-1-.7-1.9-2-1.9-2.8 0-.8-.4-1.4-.9-1.4-.6 0-.7 1.7-.4 3.7zM339.331 193.818c.7.7 1.5 1 1.8.7.3-.3-.2-.9-1.2-1.2-1.4-.6-1.5-.5-.6.5zM331.431 197.418c.2 1.3 1.4 3 2.5 3.8 1.2.8 1.7 1.5 1.2 1.5-.6 0-.2.5.8 1.1.9.5 1.7 1.6 1.7 2.4 0 .9.8 1.2 2.1 1 2.5-.5 3.8-1.5 2.1-1.5-.7 0-1.2-1.4-1.2-3 0-1.7-.9-4-1.9-5.1l-1.9-2.1-1.5 2.7c-.9 1.8-1.7 2.4-2.1 1.6-.4-.6-.3-1.1.2-1.1 2.2 0 2-2.8-.2-3.2-1.9-.4-2.2-.1-1.8 1.9zM347.231 210.218c.4 1.7 1.1 4 1.5 5.2.8 2.1.7 2.2-1.1 1.1-1-.7-1.7-1.5-1.4-2 .6-.9-3.5-5.2-4.3-4.5-.2.3 0 1.5.7 2.6.8 1.6.8 2.1-.2 2.1-.7 0 .1 1 1.9 2.1 3.7 2.3 7.6 1.8 6.6-.8-.5-1.3-.2-1.5 1.5-1.1 2.8.8 2.9-1.3.2-3.7-1.1-1-2-1.4-2-1 0 .4-.9 0-2.1-1.1-2-1.8-2-1.8-1.3 1.1zM347.331 220.618c-1.7.6-1.8.8-.3 2 1.5 1.3 1.5 1.6 0 3.8-.9 1.4-1.4 3.4-1.1 4.4.4 1.3 0 1.9-1.2 1.9-1.3 0-1.6.9-1.6 4.2 0 3.9-.2 4.3-2.5 4.4-4.4.2-4.7.3-5.8 2.9-1 2.2-.9 2.5.7 2.5 1.5 0 2 1 2.5 5 .6 4.8 2.6 7.1 2.6 3 0-1.1.5-2 1.1-2 .5 0 .8-.4.5-.9-.3-.5.1-1.1.9-1.5 1.6-.6 10.5 2.4 10.5 3.6 0 .4 1.6-.2 3.5-1.3 1.9-1.2 3.5-2.7 3.5-3.4 0-1.7 3.1-2.8 5.4-1.9 1.8.7 2.1-.7.7-3.4-1.7-3.2-3.4-10-2.7-11 1-1.7-1.6-6.2-3.6-6.2-1 0-1.8-.4-1.8-1 0-.8-8.1-6.1-9.1-5.9-.2 0-1.2.4-2.2.8zM324.931 233.618c-.4.3-.9 1.8-1.1 3.3-.3 3.1 1.8 3.9 5.9 2.4 2.3-.8 2.6-1.3 1.7-3.2-1-2.2-4.9-3.7-6.5-2.5zM390.831 240.618c-.6.4-1.3 2-1.4 3.5-.2 2.1-1.2 3.3-3.9 4.7-2.1 1-3.9 2.2-4.1 2.7-.1.5-2 1.2-4.1 1.5-3 .5-4 .2-4.9-1.2-1.6-2.6-5.1-1.6-4.2 1.3 1.1 3.7 3.3 6.5 6.4 8.1 1.8 1 2.7 2 2.4 3-.3.8.8 2.8 2.7 4.6 1.8 1.8 3.4 4 3.4 4.8.4 4.5.6 5.2 1.4 4.7.5-.3 1.4.1 2 .8.8 1 .9 1.6.1 2.1-.5.3-1 1.2-1 1.8 0 .8.3.8.9-.1.6-1 1.9-.4 5.5 2.7 2.6 2.3 5.3 4.1 6.1 4.1.7 0 1.5.6 1.8 1.4.8 2.1 4.6.8 5.2-1.8.3-1.1.7-3.6.8-5.3.1-1.8.7-3.3 1.4-3.3s1.7-.9 2.3-2c.6-1.1 1.6-1.7 2.5-1.4 2.9 1.2 1.4-1.4-2-3.5-3-1.7-3.4-2.5-2.9-4.6.4-1.6.2-2.5-.5-2.5-2.2 0-7.8-4.5-7.3-5.9.3-.9 0-1.1-.7-.7-1.3.9-4.3-1.2-3.6-2.4.3-.5 1.5-.6 2.6-.3 2.1.6 2.1.5.4-2-.9-1.5-1.4-3.4-1-4.6.3-1 .1-2.2-.5-2.6-.5-.3-1-1.6-1-2.9 0-2.8-3.1-5.8-4.8-4.7zM347.031 271.818c0 1 .6 1.9 1.3 1.9.7 0 1.3-.4 1.3-.9s-.6-1.3-1.3-1.9c-1-.8-1.3-.6-1.3.9z"/><path d="M413.631 272.218c-1.1 1.3-.9 2 1.1 4.1 1.5 1.6 2.3 3.6 2.2 5.2-.2 1.5 0 2.1.3 1.4.3-.6 1.2-1.2 2-1.2 2 0 1.7-1.4-.6-3.5-1.5-1.4-1.7-2.2-.9-3.6 1.8-3.5-1.6-5.4-4.1-2.4zM424.231 279.618c-.3.5.1 1.2 1 1.5 2.2.8 2.5.4.9-1.1-.8-.7-1.6-.9-1.9-.4zM403.431 294.318c-.9.8 1.6 5.4 3 5.4.6 0 1.3-.5 1.4-1 .4-2.7.2-3.5-.7-3.5-.5 0-1.5-.3-2.1-.7-.6-.4-1.4-.5-1.6-.2zM404.631 306.218c0 1.9.4 3.5.9 3.5.7 0 .7 4.7-.1 5.5-.2.2-2.2 0-4.6-.5l-4.2-.7.6 3.3c.5 2.7.3 3.4-1 3.4-1.7 0-2.1 1.7-.8 3.6.4.6 2.5 1.1 4.7 1.1 2.8.1 4.4.8 5.8 2.4 1.8 2.2 2 2.2 3.2.6.7-.9 1.5-1.7 1.9-1.7.4 0 2.6-1.5 4.9-3.4 3.2-2.6 4.6-3.2 5.9-2.5 1.1.6 1.6.5 1.4-.3-.3-2.2-3-5.8-4.3-5.8-.6 0-1.3-.8-1.5-1.7-.2-1.2-1.3-1.7-3.3-1.8-2.4 0-3.1-.5-3.3-2.5-.4-2.9-2.9-6-4.9-6-.8 0-1.3 1.2-1.3 3.5zm2.4 12.1c.4 1 .1 1.4-.6 1.2-1.5-.5-2.3-2.8-1-2.8.5 0 1.3.7 1.6 1.6zM229.831 315.718c.7 1.1 1.7 2 2.2 2 .5 0 .1-.9-.9-2s-2-2-2.2-2c-.2 0 .2.9.9 2zM228.631 319.118c0 .9.5 1.6 1 1.6.6 0 1-.4 1-.9 0-.6-.4-1.3-1-1.6-.5-.3-1 .1-1 .9zM229.431 365.418c-1.8 2.1-2.9 7.1-1.7 7.9.5.3.9 1.6.9 2.8 0 1.3.6 2.9 1.4 3.6.8.6 1.2 1.8.9 2.6-.3.9.1 1.4 1.3 1.4.9 0 2.5.7 3.4 1.5 1.4 1.2 2.1 1.2 5.5 0 5.4-1.9 7.1-1.8 9.2.3 2.4 2.5 5.4 3.6 4.6 1.6-.7-1.9 1.1-1.8 2.7.1 1.1 1.4 1.4 1.4 2.4 0s1.6-1 4.9 2.4c2 2.2 3.2 4.1 2.6 4.3-.6.2-.1 1.2 1 2.2 1.2 1.1 2.1 1.4 2.1.8 0-.7-.4-1.2-1-1.2-.5 0-.7-.6-.4-1.4.3-.8.1-1.7-.5-2-.6-.4-.8-1.3-.5-2.1.9-2.3-1.8-7.4-4.1-7.7-1.4-.2-2.4-1.7-3.5-5.1-1.8-5.6-3.4-6.9-7.5-6.1-2.2.4-3.8-.1-5.7-1.5-2.9-2.4-4.9-2.6-6.5-1-1.7 1.7-4.6.3-3.9-1.9.5-1.5.4-1.5-.8.2-1.6 2-3.4 1.4-4.5-1.6-.7-1.8-.7-1.8-2.3-.1zM227.031 387.018c-.9 2.4.6 4.4 1.8 2.2.7-1.1.6-2.1-.1-2.8-.7-.7-1.2-.6-1.7.6zM466.131 389.718c-.3.5-.2 1 .4 1 .5 0 1.3-.5 1.6-1 .3-.6.2-1-.4-1-.5 0-1.3.4-1.6 1zM230.631 391.318c0 .8.5 1.2 1 .9.6-.4.8-1.1.5-1.6-.9-1.4-1.5-1.1-1.5.7z"/><path d="M260.631 394.818c0 3.2-.5 4.9-1.4 5.2-1.3.5-1.3 1 0 3.6 2 4 3.1 4.6 3.9 2.1.3-1.1 1.1-2 1.6-2s.9-.8.9-1.8.5-2.3 1.2-3c.9-.9.6-1.7-1.1-3.6-1.3-1.4-2.1-3.2-1.8-4 .4-1 0-1.4-1.4-1.3-1.6.1-1.9.9-1.9 4.8zM507.631 404.718c0 .5.5 1 1 1 .6 0 1-.5 1-1 0-.6-.4-1-1-1-.5 0-1 .4-1 1zM508.631 413.118c0 1.3.6 2.6 1.3 2.9 1 .4 1.2-.3.9-2.4-.5-3.5-2.2-3.9-2.2-.5zM218.531 421.718c2.5 2.2 4.1 2.6 4.1 1 0-.6-.7-1-1.5-1s-1.5-.5-1.5-1c0-.6-.8-1-1.7-1-1.5.1-1.4.4.6 2zM182.331 433.818c.5 1.6.3 2-.6 1.4-1-.6-1-.2 0 1.6 1.5 2.8 1.3 5.1-.7 6.2-.8.4-1.4 2.2-1.4 3.9 0 3-3.6 9.8-5.2 9.8-.5 0-.8 1.8-.8 4.1s-.7 4.7-1.5 5.5c-2.4 2.5-1.9 5.4 1 5.4 3.2 0 3.2 2.3 0 4.4-4.1 2.7-6.2 1.8-5.7-2.5.1-.4-.8-.9-1.8-1.2-1.5-.4-2 0-2 1.4 0 1.1-.7 1.9-1.6 1.9-1.4 0-1.4.2-.3 1.6 1.2 1.4 1.4 1.4 2.5 0 1-1.4 1.4-1.2 3.6 1.6 1.4 1.8 2.9 4.4 3.3 5.7.5 1.8.9 2 1.5 1 .5-.7.7-1.6.5-1.9-.2-.3.8-.5 2.2-.5 1.9 0 2.6.6 3 2.8.3 1.6 1.2 3.1 1.9 3.4 3.4 1.3 1.8 9.8-2.3 12.2-1 .5-1.6 1.1-1.3 1.3.3.2 1.7 1.4 3.2 2.7 2.3 2 3 2.2 4.3 1.1 1.8-1.5 2-5.1.3-6.9-1.1-1.1-1-1.3.5-.8.9.4 1.7.2 1.7-.4 0-2.1 2.6-3.7 4.3-2.7 2.3 1.3 5.7.1 5-1.8-.3-.9.1-1.4 1.5-1.4 3.5 0 3.6-4.1.1-7.3-1.7-1.5-2.8-3.1-2.4-3.5.3-.4 1.1.1 1.6 1.1.6.9 1.7 1.7 2.5 1.7.9 0 1.2-.5.8-1.2-.5-.8-.2-.9.9-.5s1.7.1 1.7-.8c0-.8.4-1.5.8-1.5 1.4 0 3.6-7.4 2.3-7.8-1.4-.5-1.5-4.2-.1-4.2.6 0 1 .4 1 1 0 .5.7 1 1.6 1 .9 0 1.2-.5.8-1.2-.5-.8-.2-.9.9-.5 2.6 1 3-1.1 1-5.8-2-4.9-3.5-6-6.3-4.5-1.3.7-2.1.6-3-.5-.7-.8-.9-1.5-.6-1.5.4 0-.1-1.5-1-3.3-.9-1.7-2.3-4.3-2.9-5.7-.7-1.4-3.3-4-5.6-5.9-2.4-1.8-4.7-4.1-5-5-.4-.9-1.6-2.4-2.7-3.4-2-1.8-2-1.8-1.5.4zM526.331 449.418c-1.2 1.2-.7 2.3 1 2.3.9 0 2.4.7 3.4 1.6 1.7 1.5 3.9 1.2 3.9-.6 0-.8-5.6-4-7-4-.4 0-1 .3-1.3.7z"/><path d="M161.631 465.018c0 3.8 1 5.7 3.1 5.7 1.8 0 1.8-.2-.2-3.8-2.8-4.9-2.9-5-2.9-1.9zM556.331 518.818c-1.1.7-1.5 1.7-1.1 3.2.3 1.6-.2 2.9-1.5 4.1-1.2 1.1-2.1 2.5-2.1 3.2 0 .8-.6 1.1-1.4.8-1.3-.5-1.3-.2-.3 2l1.2 2.6.9-3c.5-1.8 1.5-2.9 2.5-2.8 4.5.3 6.1-.3 6.7-2.8.4-1.4.2-3-.5-3.7-.6-.6-1.1-1.9-1.1-2.9 0-2-.7-2.2-3.3-.7zM545.131 530.718c.3.5.8 1 1.1 1 .2 0 .4-.5.4-1 0-.6-.5-1-1.1-1-.5 0-.7.4-.4 1z"/><path d="M554.131 531.618c-.6 1.1.9 2.3 1.9 1.4.9-.9.7-2.3-.3-2.3-.6 0-1.2.4-1.6.9zM543.131 540.718c.3.5.8 1 1.1 1 .2 0 .4-.5.4-1 0-.6-.5-1-1.1-1-.5 0-.7.4-.4 1zM582.631 598.918c-.1.7-.8 2.2-1.8 3.3-1.3 1.6-2.9 2-7.2 1.9-3 0-6.1-.2-6.9-.5-2.5-.8-2.2 1.7.4 2.9 2.2 1 2.4 1.5 1.5 3.3-.9 1.6-.8 2.6.5 4.5.8 1.3 1.9 2.4 2.3 2.4.4 0 1.6 1.5 2.7 3.2 1 1.8 2.8 4 3.9 4.9 1.1.9 2.1 2.7 2.1 4 0 2 .5 2.3 2.4 2.1 2.3-.4 2.4-.2 1.9 4-.4 3.4-.1 5 1.3 6.7 2.3 2.8 2.5 10 .5 13.9-.8 1.5-1.7 4.9-2.1 7.5-.4 2.6-1.2 4.7-1.7 4.7s-.6.6-.1 1.2c.4.7.9 2.4.9 3.8.1 1.4.2 3 .3 3.6.1.6 1.4.9 3.1.6 3.6-.5 3.6-.5.9 5.2-2.6 5.2-2.1 7 2.3 9 3.7 1.7 6.8 4 6.8 5.1 0 .4-.6.5-1.4.2-1.1-.4-1.6.4-1.8 3.1-.2 3-.8 3.8-2.5 4-1.3.2-2.9 1.3-3.7 2.4-1.3 1.8-1.6 1.9-3.6.5-1.4-.9-1.7-1.7-1.1-2.2.6-.3.9-1.1.5-1.6-.3-.5-1-.6-1.6-.3-.6.4-1.7-.1-2.5-1.1-.7-1.1-1.3-1.3-1.3-.6 0 .8-.7 1-2 .6-1.6-.5-2-.2-2 1.4 0 1.2.6 2.1 1.6 2.1.8 0 1.2.5.8 1.1-.4.7-.9.8-1.7 0-.7-.7-1.6-.7-2.9 0-1.5.8-2.4.7-3.9-.7-1-.9-1.9-2.3-1.9-3 0-1.8-3.8-3.7-5.7-3-.9.4-2.3 0-3.3-.9-1.3-1.1-2.4-1.3-5-.5-3.8 1.1-6-.1-6-3.1 0-1-2-3.9-4.4-6.3-3.3-3.4-5.4-4.7-8.5-5.2-4.4-.7-5.3-1.5-5.5-4.7-.1-1.1-1.1-2.3-2.3-2.8-1.7-.6-2.1-.5-1.7.6.3.8-.4 2.8-1.5 4.4-1.2 1.6-1.8 3.6-1.5 4.5.5 1.4.2 1.5-2 .6-1.8-.6-2.6-.6-2.6.1 0 .6-.9.8-2 .5-1.1-.3-2.9-.9-4.1-1.2-1.9-.5-2-.4-.9 1.7 1.1 2 .9 2.6-2.3 5.5l-3.5 3.2 1.9 3.1c1.1 1.8 2.6 3.4 3.4 3.7 1.7.7 2.1 4.4.5 4.4-.7 0-.7.6 0 1.9 1.4 2.7 1.3 6.1-.3 6.1-.8 0-1.3 1.3-1.4 3.5-.1 1.9.3 3.5.8 3.5s.9.7.9 1.6c0 1.4.1 1.4 1.6 0 .8-.9 1.9-1.6 2.3-1.6 1.3 0 3.2 2.6 2.4 3.4-.4.3.9.3 2.8 0 1.9-.4 3.6-1.1 3.7-1.6.2-.5 1.9.1 3.7 1.2 2.9 1.8 3.4 1.8 4.5.5 1.5-1.8 3-1.1 3 1.6 0 1.5.5 1.8 2.3 1.4 3-.8 9.4 2 10.2 4.4.3 1.1 1.8 2.7 3.2 3.6 2.4 1.6 2.8 1.6 3.8.2.8-1.1 1.6-1.3 2.9-.5 1.4.8 1.9.6 2.3-1.2.3-1.1.8-1.9 1.2-1.8 5.8 3 6.1 3.1 8.9 1.8 3.3-1.6 12.5-1.3 16.9.5 2.8 1.2 3.3 1.1 4.9-.6.9-1 2.8-1.9 4.2-1.9 1.4 0 3.3-.7 4.3-1.6 2.3-2.1 4.1-.9 3.3 2.2-.7 2.8 1 3.2 4.1.8 1.9-1.4 1.9-1.6.3-2.5-1.6-.9-1.6-1.1.3-3 1.1-1.1 2.4-1.7 2.9-1.4.9.6 1.5-2.8 1-6.8-.1-1 .4-1.6 1.2-1.5.7.2 1.2-.3 1.1-1-.3-1.4 3.2-5.2 4.7-5.2.6 0 1-.7 1-1.5 0-1.4-1.2-1.9-3.2-1.6-.5 0-.8-.7-.8-1.8 0-2.2-2.5-4.5-3.9-3.7-.5.4-1.3.2-1.6-.4-.5-.8-1.1-.8-2 0-1.3 1.1-4.5.3-5.7-1.4-1.5-2.1-.8-3.4 2.1-3.9 2.8-.6 3-1 3.3-5.9.3-5.2.3-5.3 3.3-5 1.7.1 3.8 1.2 4.7 2.3 1 1.2 2.4 1.9 3.1 1.6 2.4-.9 3.7.8 8.2 10 1.6 3.5 3.8 3.6 5.5.3 1.1-2.1 5.6-3.2 7-1.6.5.7.7 2.2.3 3.4-.5 1.9-.1 2.2 2.5 2.2 1.7 0 3.4-.5 3.7-1 1.1-1.7 2.3-1.1 3.9 2 .8 1.6 1 3 .5 3s-.9.9-.9 2c0 2.2 1 2.6 2.7.9.8-.8 1.3-.8 1.7 0 .8 1.3 6.2-1.2 6.8-3.1.3-.7 1.3-1.3 2.4-1.3 1.6 0 1.8-.6 1.6-3.4-.2-2 .2-3.7 1-4.2 1-.7 1-.9.1-.9-.7 0-1.3-.6-1.3-1.4 0-.9-.7-1.2-1.9-.9-2.2.6-3.5-1.1-3.7-5-.1-1.5-.3-2.9-.5-3.1-3.1-2.4-16.8-8.6-18.1-8.3-1 .3-1.8.1-1.8-.4 0-1.3-4.8-1.1-5.2.2-.6 1.7-7.2-.9-8.7-3.4-1-1.6-1-2.1.1-2.8 1-.7.8-1-.7-1.5-1.2-.3-2.6-1.4-3.3-2.4-1-1.6-.9-1.8.4-1.3 2.4.9.8-5.7-1.9-7.9-1.2-.9-1.9-2-1.5-2.4.4-.4.1-1.9-.7-3.3-1.9-3.5-3.7-10.5-2.7-10.9.4-.1.5-2.6.2-5.5-.5-4.7-.7-5.2-3.2-5.5-2.9-.3-4-2.8-4.2-9.7-.1-2.7-.5-3.9-1.4-3.7-1.4.3-2.5-.5-9.3-6.8-2.7-2.5-6.3-5.7-8-7.3-2.6-2.3-2.9-3.2-2.4-5.7.4-1.9.3-3-.4-3-.6 0-1.1.6-1.1 1.2zm8.5 106.8c-.3.5-1 1-1.6 1-.5 0-.9-.5-.9-1 0-.6.7-1 1.6-1 .8 0 1.2.4.9 1zM514.631 664.818c0 .5.5.7 1 .4.6-.3 1-.8 1-1.1 0-.2-.4-.4-1-.4-.5 0-1 .5-1 1.1zM507.631 666.618c-.8.6-1.8.7-2.2.5-.4-.3-.8-.3-.8 0 0 .2 2.3 1.8 5 3.5 4.6 2.8 5.1 2.9 5.7 1.4.4-1 1.1-2.1 1.7-2.5.7-.5.5-.8-.5-.8-.9 0-1.9-.7-2.3-1.5-.6-1.7-4.3-2-6.6-.6z"/><path d="M517.631 672.518c0 .4.9.8 2 .9 1.1.1 1.8-.2 1.5-.8-.7-1.1-3.5-1.2-3.5-.1zM669.431 694.918c-.2 1.8-.9 2.2-2.7 2-2.3-.2-2.4-.1-.8 1.6 1.9 2.1 5.4 2.7 3.7.7-.7-.8-.4-1.8 1-3 2.4-2.1 2.6-3.5.6-3.5-.8 0-1.6 1-1.8 2.2zM554.131 694.718c.3.5.8 1 1.1 1 .2 0 .4-.5.4-1 0-.6-.5-1-1.1-1-.5 0-.7.4-.4 1zM571.731 702.318c0 1.1.3 1.4.6.6.3-.7.2-1.6-.1-1.9-.3-.4-.6.2-.5 1.3zM632.631 703.718c.8.5 2 1 2.5 1 .6 0 .3-.5-.5-1s-1.9-1-2.5-1c-.5 0-.3.5.5 1zM646.731 717.018c-1.4 1.4-1.5 6-.1 5.2.6-.3 1-1.5 1-2.5 0-1.2.8-2 2.3-2.2l2.2-.3-2.2-.7c-1.2-.3-2.6-.1-3.2.5zM614.631 719.918c0 1.8-.5 2.8-1.5 2.8-1.6 0-2 1.5-.7 2.4.5.3.7 3.7.6 7.5-.2 6.5-.1 7.1 1.8 7.1 1.3 0 1.8.5 1.5 1.4-.3.7.5 2.3 1.9 3.5 2.9 2.5 3.1 5.1.5 5.1-2.7 0-3.4 1.5-2 3.8 1.6 2.5-1.7 11.2-4.2 11.2-1 0-1.6.7-1.5 1.7.2 2.7-3.8 2.3-4.2-.3-.3-2.3-7.2-9.3-7.2-7.4 0 .9-1.1 1.1-3.7.6-2.1-.4-5-.9-6.4-1-1.4-.1-3.1-.6-3.8-1.1-1-.5-1.1-.2-.7 1.3.5 1.5.1 2.1-1.8 2.6-1.8.4-2.3 1.1-1.9 2.5.3 1.3-.2 2.3-1.6 3-1.2.7-2.1 2-2.1 2.9 0 2.4-1.9 4.2-4.5 4.2-3.1.1-6 2.7-4.7 4.3.7.8.7 1.8.2 2.7-.6.8-1 3.1-1 5 0 2.5-.6 3.9-2.1 4.8-1.9 1.2-2 1.5-.5 3.1.9.9 1.3 2.6 1 3.8-.4 1.5 0 2.3 1.4 2.7 2.1.7 3.6 5.2 2.1 6.2-.5.3-.9 1.6-.9 3s-.4 2.3-.8 2c-.4-.2-.8 1.1-.8 3s.3 3.4.6 3.4 1.1 1.5 1.8 3.2c.7 1.8 1.8 4.1 2.3 5 .6 1.2.6 1.8-.1 1.8-.5 0-1 1-1 2.3 0 1.3-.5 2.8-1.1 3.4-.8.8-.5 1.5.9 2.4 1 .8 2.4 2.4 3.1 3.6.6 1.3 1.7 2.3 2.4 2.3s2.3.9 3.7 2c3.1 2.5 9 2.7 9 .4 0-3.7 9.3.7 9.6 4.5.1.9.5 2.4.9 3.3.4 1.1.3 1.8-.4 1.8-.6 0-1.1 1-1.1 2.1 0 1.8.4 2.1 3 1.6 3.8-.8 6 2.1 6 7.9 0 4-.2 4.2-3.5 4.8-2.5.5-3.5 1.2-3.5 2.6 0 1.5 3.7 3.9 4.4 2.8 5-7.9 5.9-8.9 8.6-9.5 2-.4 3-1.2 3-2.4 0-1 .5-2.1 1-2.4 1.7-1 1.1-6.1-1-8.8-2-2.5-2-2.6-.2-3.6 1.5-.8 2.5-.3 5.4 2.7 6.5 6.6 8.7 8.4 9.9 7.7.7-.5 1 .1.8 1.6-.2 1.3 0 3 .5 3.7 1.4 2.3-.3 6-3.1 7-2.4.8-2.1.9 2.4.9 3.6-.1 5.8.5 7.2 1.7 1.2 1.1 2.1 1.4 2.6.7.3-.6 2.1-1.1 3.8-1.1 1.8 0 4-.7 5-1.5 1.1-.7 2.6-1.1 3.4-.8.9.4 1.6-.2 2-1.5.9-3.5 5.3-3.5 8.9 0 2.8 2.6 3.4 2.8 5.2 1.7 1.7-1 2.3-1 3.6 0 1.3 1.1 1.6 1.1 1.6-.3 0-.9.9-2.5 1.9-3.5 1.7-1.7 2.1-1.8 4-.4 1.8 1.2 5.1 6.2 5.1 7.7 0 .2-.8.6-1.7.9-1.4.3-1.2.6 1.1 1.6 1.6.6 3.7.9 4.6.6 3.4-1.1 1.1 8.2-2.7 11-.8.6-1.5 2-1.6 3.2-.1 1.7-.5 2-1.8 1.2-1.2-.6-2.7-.5-4.3.2-2.1 1-2.4 1.7-1.9 4.3.8 4.7 2.9 7.4 6.2 8.1 2.8.6 3 .9 2.6 4.6-.2 2.1.1 3.9.6 3.9s1.7 1.6 2.6 3.5c1.7 3.5 5.4 5.7 6.1 3.6.2-.6 1.4-1.1 2.7-1.1 2.7 0 4.2-1.6 2.3-2.3-.7-.3 0-.6 1.5-.6 1.5-.1 3-.7 3.3-1.5.3-.8 1.8-1.6 3.5-2 1.7-.3 2.9-1.2 2.9-2.1 0-.9.4-1.4 1-1 1 .6 4.4-1.1 6.9-3.5 1.7-1.7 2.2-3.6 2.4-8.9.1-3.8 3.3-7.8 5.9-7.3 2.1.4 3.4-1.8 1.7-2.9-2.2-1.4-5.6-1-6.3.6-.6 1.6-4.2 1.3-8.1-.9-1.1-.5-2.4-1-3-1.1-1.2 0-1.4-5.9-.3-9.9.5-2 .4-3.2-.3-3.7-.7-.4-.9-1.1-.5-1.7.3-.6-.3-1.7-1.5-2.6-1.2-.8-1.9-2.1-1.6-2.9.3-.8.1-1.9-.3-2.3-1.2-1.2-1.5-8.2-.5-11.2.6-1.8.4-2.1-.9-1.6-.9.3-1.6.2-1.6-.2 0-.5-1.3-.9-3-.9-1.6 0-3 .4-3 1 0 .8-2.9 1.1-14 1.4-5.5.1-13.2-.8-14.4-1.8-1.1-.9-1.5-.8-2.1.6-.5 1.6-1 1.4-3.3-1.4-2.4-2.8-2.9-3.1-4.5-1.9-1.6 1.3-1.6 1.5.3 3.9 2.5 3.2 2.5 4.1 0 2.7-2.4-1.3-4.1-.5-3.3 1.5.6 1.7-1 1.9-3.8.5-1.3-.7-1.9-2.1-1.9-4.5 0-1.8-.4-3.7-1-4-.6-.3-.7.1-.4.9.5 1.2-.1 1.6-2 1.7-1.4.1-3.2.2-3.8.3-.7.1-1.5-1.3-1.8-2.9-.5-2.8-.9-3-5.3-3.3-4.2-.3-5-.7-7.1-4-1.3-2-3.3-4.6-4.5-5.6-1.3-1.2-1.9-2.6-1.6-3.7.4-1.2-.1-1.9-1.5-2.4-1.4-.4-2-1.5-2-3.6 0-1.6-.4-2.9-1-2.9-1.7 0-1.9-.1-4.7-1.5-2.7-1.4-2.8-1.3-3.4.9-.4 1.4-1 3-1.4 3.7-1.1 1.7-2.8-1.6-2.1-3.9.4-1.2-.3-2.7-1.9-4.2-1.4-1.3-2.5-2.8-2.5-3.4 0-1.9-6-8.6-7.7-8.6-1 0-1.3-.6-.9-1.6s-.1-2.2-1.1-3c-1.5-1.1-1.5-1.3-.3-1.4.9 0 3.1-1.1 5-2.4 3.1-2 3.8-3.3 5.3-9.5 1.2-5.1 1.4-7.8.7-9.6-1.5-3.9-1.2-4.8 1-4.2 1.2.3 2.4-.1 2.9-1.1.9-1.5 1.1-1.5 2.8.1 2.2 1.9 4.3 2.2 4.3.7 0-.6.7-1 1.6-1 .9 0 1.4-.6 1.2-1.3-.5-1.3-2.8-1.7-4.3-.6-.5.3-1.9.3-3-.2-1.9-.7-1.9-.8.1-.8 2.1-.1 5.4-5.1 5.4-8.2 0-.7.8-2.1 1.8-3.2.9-1 1.8-3.1 1.9-4.6.6-7.4 1.5-10.2 3.2-9.6 1.1.3 2.5-.5 4-2.5 2-2.7 2.4-2.9 3.7-1.5 1.9 1.8 5.4 2 5.4.2 0-.7-.5-1.8-1.2-2.5-.9-.9-.9-1.2 0-1.2.7 0 1.2-.7 1.2-1.5s.7-1.5 1.6-1.5c1.1 0 1.4-.5 1-1.7-.4-1 .2-2.5 1.5-3.9 1.1-1.2 1.8-2.8 1.4-3.4-.4-.6.1-1.8 1.1-2.6 1.7-1.3 1.6-1.4-1.8-.8-3.2.5-3.9.3-5.3-2-1.7-2.6-5.5-3.6-5.5-1.5 0 .8-.4.8-1.4 0-1.1-.9-1.6-.9-2.1 0-.5.7-1.9.8-3.9.4-1.7-.4-4.3-.8-5.8-.9-2.5-.2-2.8.1-2.8 2.6zm6 111.7c0 .6-.5 1.3-1 1.6-.6.4-.8 1.1-.5 1.6.4.5.2.9-.3.9s-.9-1.1-.9-2.5c0-1.5.5-2.5 1.3-2.5s1.4.4 1.4.9zM567.631 749.018c0 .4-.5.5-1.1.1-.6-.3-1.4-.3-1.8.2-1.1 1.6-6 4.4-7.6 4.4-1.4 0-1.3.4.4 2.9 1.1 1.5 1.8 3.1 1.5 3.4-.3.3.7 1.4 2.2 2.3 2 1.4 2.9 1.5 3.2.6.2-.6 1.7-1.2 3.2-1.2 1.6 0 3.2-.5 3.5-1.1.4-.6 1.3-.8 2.1-.5.9.3 1.6-.4 2-2 .4-1.5 1.8-3 3.5-3.7 2.9-1.2 2.9-1.3 1.3-3.5-.9-1.4-2.5-2.2-3.7-2.1-1.2 0-2.4 0-2.7-.1-1.4-.7-6-.5-6 .3z"/><path d="M592.631 748.418c0 .5.9 1.4 2 2.1 1.2.7 1.8 1.7 1.5 2.2-.9 1.5 1.2 2.1 2.4.6.8-1 .8-1.6-.1-2.3-2.3-1.9-5.8-3.4-5.8-2.6zM591.131 751.718c.3.5.8 1 1.1 1 .2 0 .4-.5.4-1 0-.6-.5-1-1.1-1-.5 0-.7.4-.4 1zM600.131 754.418c-.3.9 0 2 .7 2.5 2 1.2 2.8.9 2.8-1.1 0-2.4-2.6-3.5-3.5-1.4zM555.631 760.518c0 1.1.7 2.2 1.5 2.6.8.3 1.5.1 1.5-.5s-.7-1.7-1.5-2.5c-1.3-1.4-1.5-1.3-1.5.4zM521.531 763.018c-1.4 2-1.4 2.3.2 3.9 1.7 1.6 1.8 1.5 2.4-1.4.9-3.9-.6-5.3-2.6-2.5zM550.331 762.418c-1.4 1.3-.6 2.3 1.8 2.3 1.6 0 2.5-.6 2.5-1.5 0-1.5-3.1-2.1-4.3-.8zM528.631 765.218c-.8.9-.8 1.5-.2 1.5 1.2 0 2.6-1.9 1.9-2.6-.2-.2-1 .2-1.7 1.1zM548.031 768.318c.3.9.6 2 .6 2.5 0 1.3 1.2 1.1 3.5-.7 1.7-1.3 1.8-1.6.5-2.4-2.5-1.6-5.3-1.2-4.6.6zM522.731 770.918c-.1 1.9-1.6 2.4-2.5 1-.3-.5-3.5-.3-7.1.3-5.5 1.1-7.4 1-11.6-.2-5.2-1.5-7.2-1.2-5.1.9 1.9 1.9 1.4 2.5-3.2 3.9-3.4 1-4.2 1.6-3.8 3.1.2 1-.1 1.8-.7 1.8-1.4 0-1.5 8.4-.1 11.1.6 1 1.7 1.9 2.6 1.9.8 0 2 1.1 2.6 2.5.6 1.4 1.7 2.4 2.4 2.1 1.8-.7 2.5.5 1.3 2.1-.9 1-.7 1.8.6 3.3 2 2.2 2 2.2-1.4 4-2.3 1.2-2.3 1.1-1.7-1.4.9-3.6-1.5-3.4-3.7.4-1.2 2-3.1 3.4-6 4.2-2.3.7-4.9 2.1-5.8 3.2-1 1.2-3.1 2.1-5.4 2.2-2.2.2-4.3 1-4.7 1.9-.5.8-1.8 1.5-2.8 1.5-3.8 0-2.1 7.4 2.2 9.6 2.2 1.1 2.7 2 2.3 3.5-.4 1-.2 1.9.4 1.9.5 0 2.3 1.2 4.1 2.6 2.3 1.9 2.9 3.2 2.4 4.7-.5 1.7-.3 1.9 2.2 1.4 2.3-.4 3.5.1 5.8 2.6 2 2.1 2.6 3.2 1.7 3.5-.9.3-.7 1 .8 2.6 1.2 1.1 3 3.2 4.1 4.6 2 2.5 2 2.5 3.5.5 1.1-1.4 2.5-1.9 5.4-1.6 2.1.1 4.1-.2 4.5-.7.3-.5.9-3.3 1.4-6.3.6-4 .5-5.8-.4-6.7-1.3-1.2-.7-5.5.6-4.7 1 .6 2.4-2.5 2.1-4.7-.5-3.7 1.7-5.5 7-6 3.2-.3 5.5-1.1 6-2.1.6-.9 1.7-1.3 2.9-1 1.4.4 2 0 2-1.2 0-.9.9-1.9 2.1-2.2 1.6-.5 1.9-1.1 1.4-3.4-.5-2.1-.2-3.1.9-3.5.8-.3 1.2-1.2.9-2-.4-1 .3-1.4 2.1-1.4 1.5 0 3.1-.8 3.8-2 .7-1.1 2.1-2 3-2 1 0 1.8-.7 1.8-1.5 0-2.5 4.3-8.5 6.5-9.1 1.7-.4 2-1.5 2.3-7.1.3-5.6 0-7-2.3-10.4-2.4-3.7-6.8-5.6-6.2-2.7.1.7-.5 1.3-1.3 1.3s-1.4-.6-1.2-1.3c.1-.6-.2-1.2-.8-1.2-1.3 0-1.3.4.5 4.6 1.8 4.3 1.4 5.3-2 4.6-1.6-.3-2.5-1.1-2.5-2.3 0-1.9-3.8-5.1-5.2-4.3-1.6 1-.8-.9.9-2.2 2.3-1.6.8-3.2-1.7-1.7-1.4 1-2.1.9-3-.2-.7-.8-1.8-1.5-2.5-1.5-.8 0-1.6-.6-1.8-1.3-.3-.7-.6-.5-.6.5zm3.4 4.8c-.3.5-1 1-1.6 1-.5 0-.9-.5-.9-1 0-.6.7-1 1.6-1 .8 0 1.2.4.9 1zm-27.5 40.1c0 1.1-1.2 1.1-3.5.3-1.2-.5-1.4-.9-.4-1.4 1.4-.9 3.9-.2 3.9 1.1z"/><path d="M535.631 774.118c0 .2.7.7 1.6 1 .8.3 1.2.2.9-.4-.6-1-2.5-1.4-2.5-.6zM610.831 776.518c.4 5.6-.2 8.2-2.2 8.2-1.3 0-2 .7-2 1.9 0 1.1-.6 2.6-1.2 3.3-.7.7-1.4 2.2-1.6 3.3-.2 1.3 0 1.6.5.8 1.3-1.9 3-.1 3.7 4 .5 2.7.4 3.7-.3 3.2-.7-.4-1.1.4-1.1 1.9 0 1.6.8 3 2.1 3.7 1.4.7 1.8 1.4 1.1 1.8-.6.4-.7 1.2-.3 1.9.6 1 1 1 2-.2.8-1 .9-1.6.1-2.1-.6-.3-.7-1.1-.4-1.7.4-.6.2-.8-.3-.5-.6.4-1.4 0-1.7-.9-.4-1.1-.2-1.5.8-1.1 1.1.4 1.3.1.9-1-.5-1.3-.2-1.5 1.6-1 1.2.3 3.7.1 5.5-.4 2.5-.7 3.5-1.6 3.9-3.7.7-3.5 0-4.5-2.7-3.8-1.3.3-3.1-.1-4.2-.8-1.5-1.2-1.6-1.6-.5-2.9 1-1.3.9-2-.4-4-1.1-1.7-1.4-3.6-.9-6.4.5-3.1.3-4.1-1-4.6-1.1-.4-1.5-.1-1.4 1.1zm2.1 13.6c-1.7 3.1-2.6 3.6-3.9 2.5-1-.8-1-1.5-.2-2.9 1.2-1.9 5.2-1.6 4.1.4zM651.231 828.318c-.4 1.1-1.3 1.3-2.8.8-1.3-.3-2-.3-1.6.1.3.3.3 1.9-.2 3.4-.7 2.4-.3 3.2 2.2 5.4 2.8 2.5 2.8 2.7 1.3 5.1-1.8 2.7-.9 3.8 2.3 2.9 1.8-.4 2-.8 1.1-1.9-1.4-1.7-.5-4.4 1.5-4.4.7 0 1.7-.7 2-1.6 1-2.5.7-6.4-.4-6.4-.6 0-1.5-1.1-2-2.5-1.1-2.8-2.5-3.2-3.4-.9zM466.631 846.718c0 .5.5 1 1.1 1 .5 0 .7-.5.4-1-.3-.6-.8-1-1.1-1-.2 0-.4.4-.4 1zM481.631 849.718c-1.8 2.1-2.7 2.6-3.7 1.9-1.4-1.2-5.6-.2-4.8 1.1.3.5 1.2.7 2 .3.9-.3 1.5.1 1.5 1.1 0 1.4 1.8 2.1 4.3 1.7.4-.1 1.2 1 1.7 2.5.6 1.4 1.5 2.2 2 1.9.6-.4.8-1.1.5-1.6-.4-.5.1-1.6.9-2.5 2-1.9 2-3.4.2-3.4-1.9 0-3.2-2-1.8-2.9.6-.4.8-1.2.4-1.8-.5-.9-1.5-.3-3.2 1.7zM470.731 849.318c0 1.1.3 1.4.6.6.3-.7.2-1.6-.1-1.9-.3-.4-.6.2-.5 1.3zM479.131 858.718c.3.5 1.1 1 1.6 1 .6 0 .7-.5.4-1-.3-.6-1.1-1-1.6-1-.6 0-.7.4-.4 1zM489.431 859.818c-2.3 2.4-.1 4.4 2.7 2.3 1.7-1.2 1.7-1.6.5-2.8-1.3-1.1-1.8-1-3.2.5zM599.231 878.218c-1.9 1.4-1.9 1.5.7 1.5 1.7 0 2.7-.5 2.7-1.5 0-1.9-.9-1.9-3.4 0zM670.631 898.318c0 .8.7 1.4 1.5 1.4s1.5.5 1.5 1.1c0 .5.5.7 1 .4 1.6-1 1.2-1.9-1.5-3.2-2-.9-2.5-.8-2.5.3z"/></g></svg>