<svg version="1" xmlns="http://www.w3.org/2000/svg" width="1027.404" height="557.76" viewBox="0 0 770.553 418.32"><g fill="#222"><path d="M590.6 1.038c-.4.9-1.3 1.4-2.1 1-2.1-.8-6.5 1-4.5 1.8 1.2.5 1.5 2.5 1.4 9.9 0 10.6 1.8 15.5 5.3 14.3.6-.3 1.9.4 2.9 1.5 1.7 1.9 7 2.8 5.9.9-.8-1.3-.4-1.3 3.8.5 2 .8 4.2 1.2 5 .9 1.4-.5 6.7 4.8 6.7 6.7 0 .5.5.9 1.1.9.5 0 .8-.4.5-.9-.6-.9 5.1-2.4 6.4-1.6.4.3 1-.2 1.4-1 .3-.8 1.5-1.5 2.6-1.5s2-.5 2-1c0-.6 1.2-.9 2.8-.8 2.1.2 2.8-.2 3-2 .4-2.6 1.7-2.9 2.6-.6.9 2.5-.4 6.4-2.3 6.4-2.7 0-4.6 3.2-4.9 8-.5 8.3-.2 12 .8 14 .8 1.5.6 2.1-.6 2.8-1.6.9-1.6 1.1 0 3.3.9 1.3 1.6 4.1 1.6 6.2 0 3-.4 4-2 4.4-1.4.4-2 1.4-2 3.4 0 2.4-.4 2.9-2.5 2.9-1.4 0-2.5.5-2.5 1.1 0 .6-.9.9-1.9.6-2.1-.5-3.1 1.7-2.8 6.2.3 3.5 5.3 6.3 9.2 5.2 2.1-.5 2.9-1.3 2.7-2.5-.2-1.2.2-1.7 1.5-1.4 1.1.2 1.9 1.4 2.1 3 .2 1.5 1 3.2 1.8 3.8.8.7 1.4 1.9 1.4 2.8 0 .9 1 2.6 2.2 3.9 2.1 2.2 2.1 2.5.5 5.2-.9 1.5-1.4 3.6-1.1 4.7.6 2.4-12.4 15.4-15.5 15.4-2.1 0-5.1 4.4-5.1 7.5 0 .8-.5 1.5-1.1 1.5-.5 0-.8.4-.5.8.3.5-1.2 2.2-3.4 3.8-2.3 1.7-4.1 4-4.4 5.7-.4 1.7-1.6 3.2-3.3 3.9-1.6.7-3.2 1.8-3.6 2.5-.4.7-1.9 1.3-3.3 1.3-3.7 0-12.4 4-12.4 5.7 0 1.1-.7 1.4-2.1 1-1.9-.5-2-.3-1.3 5.1.8 7.3 1.9 9.2 5 9.2 2.7 0 7.8 3.4 13.1 8.6 1.8 1.8 4.9 3.8 7 4.4 2.1.7 4.4 1.7 5.1 2.3.7.6 2.6 1.1 4.1 1.1 2.2.1 2.7-.3 2.3-1.7-.6-2.4.3-2.2 4.4 1 2.7 2 3.5 3.2 3.1 4.9-.4 2.3.9 3.4 4.1 3.4 1.9 0 4.7 5.3 3.8 6.9-.4.5.2 2.4 1.3 4.2 1.5 2.4 1.7 3.8 1 5.7-.6 1.5-.6 2.9 0 3.6 1.4 1.6.2 6.6-1.5 5.9-2.1-.8-3.7.6-2.4 2.2.9 1 .7 2.1-.4 4.2-.8 1.5-1.5 2.2-1.6 1.5 0-.7-.5-1-1-.7-.6.4-.7 1.1-.4 1.7.6.9-1.2 2.7-2.7 2.8-.4 0-1-1.2-1.4-2.7-.3-1.5-2.2-4.2-4.1-6.1-1.9-1.8-3.4-3.7-3.4-4.1 0-1-3.3-.9-4.1.1-.3.4-2 .3-3.9-.2-1.8-.5-4.4-.7-5.7-.4-3.8 1-9.3-.5-11.6-3.2-1.2-1.4-2.7-2.2-3.5-1.9-.8.3-2.5-.2-3.8-1-1.8-1.2-2.4-1.2-2.4-.3 0 1-.2 1-.8 0-.5-.7-2.5-1.2-4.8-1.1-2.1.1-5.1-.1-6.6-.5-2.3-.7-2.8-.5-2.8 1 0 2.6-1.8.5-2.2-2.6-.2-1.9-.8-2.4-2.5-2.3-1.1.1-2.7-.4-3.3-1.2-1.9-2.3-4.8-1.8-6.2 1.2-1 1.9-2 2.7-3.3 2.5-2.6-.5-3.2-1.1-1.9-2 .6-.4 1.4-2 1.8-3.5.4-1.6 1.1-2.5 1.7-2.1.7.4.7-.2-.1-1.6-.8-1.6-1.8-2.1-3.6-1.7-1.3.2-2.5-.1-2.8-.7-.2-.6-.5-.1-.5 1.1-.1 2.1-2.1 4.4-2.1 2.4 0-1.7-3-1.3-3.6.4-.5 1.3-1.1 1.1-3-1-2.3-2.5-5.4-3.4-5.4-1.5 0 .5-.5 1-1.1 1-.5 0-.7-.5-.4-1 .3-.6.1-1-.5-1s-1.5 1.1-2 2.5-1.6 2.5-2.5 2.5c-1.1 0-1.4.6-.9 2.5.5 2 .2 2.5-2 3.1-2.9.7-3.4 1.9-1.2 2.7 1.2.5 1.3 1.3.6 3.8-.8 2.7-.6 3.6 1.3 5.5 2.9 3.2 17.7 9.8 16.1 7.3-.3-.5.2-.9 1.1-.9 1.1 0 1.5.5 1.1 1.5-.4 1.1.1 1.5 1.8 1.5 1.4 0 2.6-.5 2.8-1.1.3-.9 1-.9 2.7 0 1.4.8 3.7 1 5.7.6 2.1-.3 3.4-.2 3.4.5 0 1.4 3.7 1.3 4.3-.3.4-1 .7-1 1.8 0 .7.7 2.1 1.3 3.1 1.3 1.6 0 1.8-.5 1.3-3.4-.4-1.8-.2-3.6.3-4 1.1-.6 11.4 4.7 13.2 6.9 1 1.2 1.7 3.2 1.9 5.8.1.4 1.9 2.7 4.1 5 2.1 2.4 4.3 5.4 4.8 6.8.7 1.5 3.3 3.6 7.6 5.7 3.6 1.9 6.6 4 6.6 4.8 0 .8.8 1.4 1.8 1.4 3 0 5.3 3.3 5 7.1-.2 2.3.1 3.3 1 3.1.6-.1 1.2.5 1.2 1.3 0 1.8 2.6 2 3.3.2.3-.7 2.1.4 4.9 3.1l4.5 4.3 8.6.2c4.8.1 8.8-.2 9-.7.2-.5 1.2-.4 2.4.2 1.7 1 2.2.9 2.7-.5.7-1.8-2-5.3-4-5.3-2.1 0-2.6-1.9-1-3.6.9-.8 1.6-2.4 1.6-3.5 0-1 .6-1.9 1.3-1.9.8 0 .9-.2.1-.8-.7-.4-.8-1.5-.3-2.7.6-1.6.8-1.7.8-.3.1 2.6 3.3 4 4.7 2 .7-1 1.7-1.3 3-.7 3.4 1.4 7.4.9 8.8-1.1 1.4-1.8 1.5-1.8 3.5 0 1.2 1.1 2.1 2.6 2.1 3.4 0 .9.6 1.2 1.6.8.9-.3 2-.6 2.5-.6.9 0 .7-.6-1.8-5.5-.6-1.1-.8-3.5-.6-5.2.5-2.8.8-3.1 2.3-2.3 2.7 1.4 3.1 0 1.4-5-1.9-5.4-3.4-7.4-5.8-7.8-3.1-.6-6.8-3.4-5.8-4.4 1.2-1.2-1.7-6.6-3.9-7.3-1.7-.6-5.3-11.5-3.8-11.5.5 0 .6-.6.3-1.3-.5-1.3 3.4-3.7 6.1-3.7.8 0 1.1-.7.8-2-.3-1.1-.1-2 .4-2 1.6 0-1.2-9.5-2.9-9.8-.8-.1-2-1.8-2.7-3.7-1.4-3.9-2.7-4.5-3.6-1.5-.3 1.1-1.4 2.1-2.3 2.1-4.1.4-8.9-.4-10.9-1.7-1.3-.8-2.3-1-2.3-.4 0 .5-1.3 1-2.9 1-2.4 0-2.8-.3-2.4-2 .3-1.2 1.8-2.7 3.4-3.6 1.7-.8 2.9-2.3 2.9-3.4 0-1.3.7-2 1.9-2 1.9 0 1.9-.2.5-3.5-2.4-5.9-1.5-9.7 1.5-6.1.7.8 2.1 1.4 3.1 1.3 1.8-.1 1.8-.2-.2-3.5l-2-3.3 2.8.7c1.6.3 4.6 1.7 6.6 3 4.7 3 5.8 3 5.8-.1 0-1.8.5-2.5 2-2.5s2-.7 2-2.9c0-1.7.4-3.2.9-3.5.5-.3.7-2.4.4-4.6l-.6-3.9 3.9.5c2.2.3 4.7.7 5.6.9.9.1 1.9-.3 2.2-1 .3-.8 1.6-1.2 3-1.1 1.9.3 2.6-.1 2.6-1.4 0-1-.7-2-1.4-2.3-.8-.3-2.2-2.1-3.1-3.9-.9-1.8-2.9-4.3-4.3-5.5-1.5-1.3-2.1-2.3-1.4-2.3.6 0 1.2-.9 1.2-2 0-2.3 0-2.3 3.4-1 2.1.8 2.9.6 4.6-1.2 1.1-1.2 2-1.8 2-1.3s.6 0 1.4-1c1.4-1.9 1.5-1.9 5.1-.2 3.6 1.7 3.9 1.7 8.4-.3 7.4-3.4 7.6-3.6 7.9-6.9.3-2.8.6-3.1 2.5-2.5 1.2.4 5.1 2.4 8.7 4.6 3.5 2.1 7.1 3.6 7.8 3.3.8-.3 2.1 0 2.9.7 1.8 1.5 8.3 2.2 8.3.8 0-.5.6-1 1.4-1 .8 0 1.6-.6 1.9-1.3.3-1 1.1-1 3.9 0 4.1 1.6 6.8 1.7 6.8.3 0-.5 1.4-.1 3.2 1 1.7 1 3.5 1.7 4 1.4.4-.3.8.2.8 1 0 .9-.8 1.6-1.7 1.6-1.4 0-1.3.3.5 2.3 1.2 1.3 2.2 2.9 2.2 3.5 0 .7.5 1.2 1 1.2.6 0 1-.5 1-1 0-.6.6-1 1.4-1 .9 0 1.2-.7.9-2-.4-1.3 0-2 1-2 2.4 0 4.5-17 2.4-19.8-.6-.8-.5-1.2.4-1.2 1-.1.9-.4-.3-1.4-2.1-1.5-1.4-2.7 1-1.9 1 .4 1.4.3 1-.2-.4-.4-.3-1.4.3-2.1.9-1.1.5-1.6-1.5-2.4-2.2-.8-2.5-1.3-2-4.2.4-1.8.7-3.7.8-4.1 0-.5-.7-1.4-1.6-2-1.4-.9-2.3-.9-3.8 0-2.9 1.9-7.8.5-9.5-2.6-.7-1.5-2.5-3.3-3.9-4.1-1.4-.7-2.6-1.9-2.6-2.6 0-.6-2.1-3.3-4.7-5.9-3.6-3.5-4.9-4.3-5.1-3-.2.9.1 2.2.7 2.9 1.3 1.5-1 4.1-2.5 2.8-.4-.4-.2.1.5 1 1.7 2.2.5 4.4-1.5 2.7-.8-.6-1.4-1.6-1.4-2.1 0-1.2-3-4.3-3-3.1 0 .4-.5 0-1.1-1-.6-1.1-2.2-1.7-4.4-1.7-1.9 0-3.6-.4-3.9-.9-.3-.5-2-1.1-3.8-1.3-1.8-.3-4-.8-4.9-1.2-1.4-.6-1.8 0-2.1 3.6-.3 2.8.1 5.1 1 6.6.9 1.3 1.6 3.6 1.7 5 .1 1.5.5 3.7.9 4.9.6 1.8.4 2.3-1 2.3-1 0-3.7.7-6.1 1.6-4.2 1.6-4.2 1.6-2.8 4.5 2 3.7 2 3.6-2 5.5-3.4 1.6-3.5 1.6-6.6-1-1.7-1.4-3.6-2.6-4.2-2.6-1.3 0-5.7-4.3-5.7-5.5 0-.3.8-.4 1.8-.1 2.5.8 4.7-2.8 2.7-4.4-.8-.7-1.5-1.8-1.5-2.4 0-.7-1.1-2.3-2.5-3.6-1.4-1.3-3.2-3.7-3.9-5.2-1.4-2.8-1.4-2.8 2-2.8 1.9 0 3.4-.5 3.4-1 0-2.2-.2-2.5-1.7-2.2-1.2.3-1.4-.4-1.1-3.3.4-3.4.1-3.9-4.5-7.2-3.4-2.5-4.5-3.9-3.6-4.2.8-.3 1.4-1.6 1.3-2.8-.2-2.9 2.4-3.8 4.7-1.7 2.1 1.9 2.5 1.3 3.1-4.9.4-3.2.1-3.7-1.7-3.7-1.2 0-3.1-.9-4.4-2.1-1.5-1.4-2.6-1.8-3.4-1.1-.7.6-2.5.8-4 .5l-2.9-.6 3.3-1.5c1.8-.9 2.7-1.8 2.1-2-.7-.2-1.2-.8-1.2-1.4 0-.6-1.1-1.9-2.5-3-1.5-1.1-3.1-4.1-4-7.3-2-6.7-3.3-7.8-9-7.3-2.9.2-4.6-.1-5-.9-.2-.7-1.1-1.3-1.8-1.3-.8 0-1.9-.6-2.5-1.3-1.7-2-5.7-1.9-10.7.3-4 1.7-4.5 1.8-4.5.3 0-1.4-.2-1.4-1.9.1-1.9 1.8-6.7 1.4-5.6-.4.8-1.4-1.8-2.8-6.7-3.5-2.7-.4-4.8-1.3-4.8-1.9 0-1.6-3.9-5.2-6.5-6-1.1-.3-3.5-2.8-5.3-5.5-1.7-2.7-4.1-5.2-5.1-5.6-1.2-.3-1.8-1.2-1.5-2 .3-.7-.3-1.8-1.4-2.4-1.6-.8-2.1-.7-2.6.5zm95.4 115c0 .8-.4 1.4-1 1.4-.5 0-1-.9-1-2.1 0-1.1.5-1.7 1-1.4.6.3 1 1.3 1 2.1zm-141.5 113.4c.3.5.2 1-.4 1-.5 0-1.3-.5-1.6-1-.3-.6-.2-1 .4-1 .5 0 1.3.4 1.6 1zm-.3 5.2c-.8.8-.9.4-.5-1.3.4-1.3.8-1.8 1.1-1 .2.7-.1 1.8-.6 2.3zM496 8.438c0 .7-.7 1-1.5.6-1.8-.7-2 .5-.2 2.3 1 1.1 1 1.4 0 1.8-.7.3-1.3 1.8-1.3 3.4 0 2-.5 2.9-1.6 2.9-1 0-1.4.6-1 1.5.3.8-.2 1.9-1.1 2.4-1.4.7-1.3 1.2 1 3.7 3.7 3.9 3.4 6.2-.8 7.8-1.8.7-1.8.9-.4 1.9 1.4 1.1 1.5 1.9.5 6-1.1 4.7-1.2 4.8-4.2 4.2-2.9-.5-3.3-.2-4.2 2.5-1 2.8-3.2 4.2-3.2 2 0-.6-1-1-2.3-1-2.3 0-5.7 3.1-5.7 5.1 0 .6-.7.8-1.6.5-1.1-.4-1.4-.1-1.3 1.2.5 3.1-1.1 6-3.6 6.6-1.4.4-2.5 1.3-2.5 2.1s-.9 1.5-2 1.5-2 .7-2 1.5c0 .9-.7 1.8-1.5 2.1-.8.4-1.5 1.2-1.5 1.9s-1.4 2.5-3.1 3.9c-2.4 2.1-2.9 2.9-2 4 1.2 1.4.5 4.6-.9 4.6-.4 0-1.3-.7-2-1.5-1.8-2.2-2.8-1.9-4.9 1.5-1 1.6-2.1 2.7-2.4 2.3-.4-.3-.7-.1-.7.5s-.7.9-1.5.6c-1.1-.4-1.9.3-2.6 2.5-.8 2.2-1.7 3.1-3.2 3.1-1.2 0-2.8.4-3.6.9-.7.5-2.8.5-4.6.1-2.8-.6-3.5-.4-4.6 1.6-.7 1.3-2 2.4-3 2.4s-2.1.5-2.4 1c-.4.6-1.1.8-1.6.5-.5-.4-.9-.1-.9.5 0 .7-.7.9-1.7.6-.9-.4-1.9-.2-2.3.4-1 1.7-6 .1-6-1.9 0-2.2-1.9-4.1-4.3-4.1-1.8 0-6.7-4.9-7.8-7.9-.5-1.3-.8-1.2-1.8.7-1.3 2.4-4.9 3-6.8 1.1-.6-.6-1.8-.9-2.7-.7-1.5.3-1.5.7.3 4.1l1.9 3.8-4 2c-2.2 1.1-4.6 1.8-5.4 1.5-.8-.3-2.9.7-4.6 2.3-3.4 3-3.2 1.9-2.8 18.5.1 1-.8 2.8-1.9 4-1.2 1.2-2.1 2.9-2.1 3.7 0 1.2-.2 1.2-1-.1-.5-.8-1-1-1-.4 0 .7-1.4 1.1-3.2 1-2.7-.1-3.4.3-3.6 2.1-.2 1.3-.8 2-1.6 1.7-1-.4-1.2.2-.8 2.2.6 3.2-1.7 3-3.4-.4-.6-1.2-1.8-3-2.7-3.9-.8-1-1.6-2.1-1.6-2.6 0-.4-1.2-2.9-2.6-5.7-2.7-5.3-3.2-7.5-1.4-6.5.6.4 1.9-.2 2.9-1.3 1.7-1.8 1.7-2.2.5-3.2-.8-.7-1.5-1.9-1.5-2.6 0-.7-1.1-2.1-2.5-3-2-1.3-2.8-1.4-4-.4-2.2 1.8-5.5.2-6.2-3-.4-2.2-1.3-3.1-3.5-3.6-1.8-.3-3.2-1.4-3.6-2.6-.3-1.4-1.1-1.8-2.7-1.4-3.4.9-11.5-4.7-11.5-7.8 0-1.4-.4-2.8-1-3.1-.5-.3-1-1.4-1-2.3 0-2.5-5.8-5.6-7.6-4.1-1.6 1.3-1.9 4.5-.4 5.4 1.1.7.3 3.3-1.8 5.7-1.1 1.3-1.9 1.5-3.3.8-1.2-.7-2-.7-2.4 0-.4.6-1.3.7-2.3.1-.9-.4-2.3-.6-3-.4-.6.3-2.6-.7-4.4-2.2-2.5-2.1-3.9-2.6-6.5-2.2-2.3.4-3.5.1-4.1-1-.8-1.3-1.2-1.3-3-.2-1.7 1-2.3 1-3.6 0-1.1-.9-1.6-1-1.6-.2 0 .6-.9 1.1-1.9 1.1-1.1 0-2.1.5-2.3 1.2-.3.8-.8.7-1.6-.3-5.4-6.6-5.6-6.7-9.9-6.2-2.8.3-4.3 1-4.3 1.9 0 .8-.6 1.4-1.3 1.4-.7 0-1.9.9-2.7 2-.8 1.1-1.8 1.6-2.4 1.1-.6-.5-2.4-1.1-4.1-1.5-2.4-.6-2.8-.5-1.7.5 2 2.1 1.4 3.2-1.3 2.5-1.9-.5-3.2 0-5 1.8-2.7 2.7-4 2.6-8.5-.5-3.9-2.7-7-3.3-7-1.5 0 1.1-1 1.6-3.3 1.6-1.8 0-3.7.4-4.3 1-.9.9-11.1-1.7-15.4-4-1.5-.8-2-.6-2.5.9-.3 1-.3 2.6.1 3.5.4 1.1.1 1.6-1.1 1.6-1.2 0-1.5-.5-1.1-1.7.4-1 .4-1.4.1-1.1-.4.4-1.7.3-2.9-.2-1.3-.5-3-.4-4.1.2-1.4.8-2.7.6-5.2-.7-3.6-2-5.3-1.5-3.4.9 1 1.2.8 1.7-.7 2.5-1.2.6-1.8 1.8-1.6 2.8.3 1.3-.6 2.2-3.5 3.4l-3.9 1.7-1.2-2.8c-.7-1.6-1.7-2.7-2.4-2.4-.6.2-3.1-1.2-5.4-3.2-2.3-1.9-4.2-3.1-4.2-2.5 0 1.6-4.2 1.3-6.9-.5-1.4-1-2.1-2.3-1.8-3.5.4-1.3-.8-2.9-3.7-5.3-2.2-2-5-4.4-6.2-5.4-2-1.8-6.4-2.5-6.4-1 0 .4-.8.8-1.8.8-2.5 0-5.8 3.5-4.2 4.5.6.4 2.2 2.4 3.5 4.5 1.6 2.6 4 4.6 7 5.9 2.5 1.1 4.5 2.7 4.5 3.5 0 .8.9 2.1 1.9 2.8 1 .8 2.9 3 4 5 2.2 3.6 4.4 4.8 9.2 4.8 3.1 0 5 1.9 4.8 4.6-.4 4.1.2 5.2 3.1 5.7 2.4.5 3 1.2 3 3.2 0 1.6.6 2.5 1.5 2.5.8 0 1.5-.4 1.5-.9s.6-1.6 1.4-2.3c.7-.8 1.6-2.7 1.8-4.4.3-1.6.3-2.3.1-1.6-.3.7-1 1.1-1.6.9-1.2-.4-1.3-10.4-.2-11.5.3-.3 1.3.2 2.2 1 1.8 1.6 4.2 2.5 8.3 3.3 1.2.2 2.7.8 3.4 1.3.6.5 3 1.2 5.2 1.5 3.7.4 4.3.2 5.5-2 2.1-3.9 4.3-4.5 8.9-2.7 2.2.9 4.5 2.5 5.1 3.5.5 1.1 1.8 1.9 2.9 1.9 1 0 2.2.4 2.5 1 1 1.6 3.5 1.2 2.9-.5-.4-.8-.2-1.5.2-1.5 1.4.1 4.4 2.6 4.4 3.7 0 2 3.8 4.5 5.9 3.8 1.3-.4 2.1-.2 2.1.6 0 1.9 3.3 3.9 4.6 2.8.7-.6 1.6-.4 2.4.6 1.4 1.7 3.5 2.1 2.5.4-.4-.6-.4-2.6-.1-4.4.6-3.2.8-3.4 3.3-2.4 1.5.6 3.7.8 5 .4 1.3-.3 3.1 0 4.1.6 1.1.7 3 .9 4.5.6 2-.6 2.4-1.2 2-2.8-.6-2-.3-2.1 4.1-1.8 4.2.4 4.6.2 4.6-1.8 0-1.9.6-2.3 3-2.3 2.1 0 3-.5 3-1.6 0-1.4.8-1.6 4.6-1 2.5.3 5.4.1 6.5-.4 2-1.1 2.4-.4 1.3 2.4-.4 1.1-1.4 1.4-2.9 1-1.6-.4-3.1.2-5.1 2.1-1.5 1.4-3.3 2.4-4 2.1-.7-.3-1.4.9-1.7 2.9-.8 4.7-3.7 10.5-5.2 10.5-.8 0-1.5.7-1.7 1.6-.4 2.2-7.4 4.5-10.4 3.4-2.9-1.2-8.6-.2-7.7 1.3.4.6 0 .8-1.1.4-1.4-.6-1.5-.3-.6 1.3.6 1.1.8 2.5.5 3-.6.9 3.2 5 4.7 5 1.4 0 .8 4-.7 4.6-.8.4-1.3 1-1 1.4.3.5-.3 1.1-1.2 1.4-1.4.5-1.8 1.8-2 6.2-.1 3.1-.6 6-1.1 6.3-.5.3-1.5 3-2.2 5.8-.9 4.1-1.6 5.3-3.1 5.3-1.2 0-1.9.7-1.9 2 0 1.9-.1 2-2.4.5l-2.4-1.6-.7 4.9c-.6 4.5-1 5-4.6 6.6-3.5 1.6-3.9 2.1-3.9 5.5 0 2.5.7 4.4 1.9 5.5 1.9 1.7 1.9 1.7 1.4-.3-.7-2.7 1.1-2.7 7.8-.1 2.8 1.2 5.4 1.8 5.8 1.5.3-.3 0-.9-.6-1.3-.8-.5-.7-1.2.3-2.6 1.1-1.6 1.9-1.8 4.2-1 2.2.8 2.7 1.5 2.7 4.4 0 2.8-.5 3.7-2.7 4.8-3 1.4-3.8 4.8-1.6 7 .7.7.8 1.2.3 1.2s.1.7 1.3 1.6c2.8 1.9 2.8 4 0 5.5-1.3.6-3.2 2.1-4.2 3.2-1.9 2-2 2-3.5.1-.9-1.1-2.3-1.8-3.2-1.6-1.5.3-3.2-.8-12-7.6-2.3-1.7-4.6-3.2-5.1-3.2s-.9 1.5-.8 3.2c.3 5.1.1 5.8-1.6 5.1-1.2-.4-1.4 0-.9 1.9.5 2 .1 2.9-2.2 4.4-1.5 1-3.5 1.7-4.3 1.5-.8-.1-1.2.1-.7.5.4.4 0 1.6-1 2.6-2.2 2.5-10.8 2.5-12.2 0-1-1.5-1-1.5-1.1.4 0 1.1-.4 2.4-.9 3-.5.5-1.1 2-1.3 3.3-.1 1.4-.9 2.7-1.7 2.9-1 .3-1.2 0-.8-1.3.4-.9.4-2.2 0-2.8-.3-.6-.8-3.3-1-6.1-.2-2.8-.8-6.6-1.3-8.5-.8-3-.6-3.7 1.5-5.7 1.4-1.3 2.5-3 2.5-3.8 0-1.6 6.1-3.3 7.9-2.1.6.3 1.1.1 1.1-.4 0-.6-.7-1.1-1.5-1.1-.9 0-1.5-.9-1.5-2.5 0-1.4-.5-2.4-1.2-2.2-.6.1-1.3-.5-1.5-1.4-.3-1.2.8-1.9 4.2-2.8 3.4-.9 4.5-1.6 4.1-2.6-.3-.8-.1-1.5.4-1.5 1.2 0 1-6-.2-8.4-.8-1.5-1.2-1.6-1.9-.5-.6 1-.9.5-.9-1.6 0-1.7-.5-3.7-1-4.5-.7-1.1-1-.6-1 2.2 0 2.8-.5 3.8-2 4.3-1.1.3-2 1.5-2 2.6 0 2.4-5.7 6.1-8.7 5.6-1.9-.4-2.3.1-2.4 2.2-.1 1.4-.1 3.2 0 3.9.1.8-.9 1.1-3.4.8-2.6-.3-3.5-.1-3.5 1 0 .8-1 1.8-2.2 2.3-1.3.4-1.7 1-1.1 1.4.6.4.9 1.5.6 2.5-.6 2.5 3.8 4.6 5.8 2.7.8-.7 2.4-1.6 3.7-2 2-.6 2.2-.3 2.2 3.4 0 3-.5 4.1-1.9 4.6-1.4.4-2 1.9-2.5 7-.5 5-1.2 7-3.4 9.3-4.7 5.1-5 5.8-4 7.5 1 1.9-.2 3.5-3.7 5.5-1.1.5-2.6 3-3.3 5.4-1.6 5-3.8 7.8-6.2 7.8-.9 0-2.2 1.1-2.8 2.5-.6 1.4-.7 2.5-.2 2.5.5 0 .8.8.8 1.7 0 1 .2 2.5.6 3.4.4.9.1 2.1-.8 2.8-1.2 1-1.3 1.8-.6 3.2.6 1 .9 2.2.8 2.6 0 .4.2 2 .6 3.4.6 2 1.2 2.5 2.7 2.2 1-.3 1.9 0 1.9.6s1.2 1.1 2.6 1.1c1.7 0 2.3.4 1.8 1.2-.5.8-.2.9 1.2.3 4.1-1.7 5.9-1.2 5.9 1.7-.1 1.5.1 2.5.4 2.2.3-.2 1.1.6 1.8 1.8 1 1.9 1.2 2 1.3.5 0-1.4.4-1.6 1.9-.8 1.5.9 2 .7 2.4-.9.4-1.7.9-1.8 3.7-.9 1.9.7 2.9 1.6 2.6 2.5-.3.7 1 2.8 2.9 4.5 1.8 1.7 3.5 4.1 3.8 5.3.2 1.1.8 2.9 1.2 3.8.4 1.1.3 1.8-.4 1.8-.6 0-2 .9-3.2 2.1l-2.1 2.1-2-2.1c-1-1.2-2.3-1.9-2.9-1.6-.5.4-.9.1-.9-.4 0-.6.5-1.1 1-1.1.6 0 .4-1.3-.5-3-1.6-3.1-3.2-4.2-2.2-1.5.4.8.2 1.7-.3 2-1.3.8-1.3 4.5 0 4.5.5 0 1.8 1.7 2.9 3.7 1 2.1 2.9 4.7 4.1 5.8 1.2 1.1 2.6 3 3.1 4.3.5 1.4 1.6 2.2 2.6 2 1.4-.2 1.8.5 1.9 3.2.1 1.9.2 3.9.3 4.4.2 1.6 5.1-3.7 5.1-5.5 0-1 .5-2.1 1.1-2.4.6-.4.8-1.3.5-2.1-.3-.9.4-1.6 1.9-2 3.1-.8 3.2-3 .3-6.3-1.3-1.4-1.9-2.3-1.4-1.9 1.3 1.1 3.6-1.1 3.6-3.4 0-1.1-.5-2.9-1.2-4.1-.6-1.2-1.2-3.2-1.3-4.5-.1-2 .3-2.2 3-1.6 1.6.3 3.1 1 3.3 1.4.2.5 1.2 1.8 2.3 3.1 1.7 2 2.4 4.4 2 7.5-.1.7.9 1.4 2.1 1.8 3.3.9 5 .7 4.3-.3-.3-.6 1.4-.9 4.2-.7 5.5.3 9-.9 9.8-3.6.5-1.4 1-1.6 2.6-.7 1.5.7 2.8.6 5.1-.5 1.7-.9 3.4-1.3 3.9-1 .5.3.9-.2.9-1s.8-2.1 1.8-2.8c1-.7 2.2-2.6 2.6-4.3l.8-3 2.6 3.3c1.5 1.8 3.6 3.2 4.6 3.2 1.1 0 3.5.5 5.3 1.2 2.7 1 3.6 1 4.2 0 .5-.9 1.2-.9 2.7.3 2.2 1.7 6 2 6.9.5.9-1.4 2.8-1.2 2.2.2-.2.7-1 1.2-1.7 1-1.4-.3-.6 2.7 2.2 7.8 1.7 3.2 1.9 3.3 2.4 1.3.3-1.2 1.2-2.4 2-2.7.8-.3 1.4-1.5 1.4-2.6 0-2.3 0-2.3 3.5-1 2.2.8 2.7.7 3.7-1.6.7-1.4 1.7-2.3 2.5-2 2 .8 11.1-3.6 11.6-5.6 1.1-4.1 11.7-.4 11.7 4.1 0 2.3.1 2.4 2 .6 1.7-1.5 2-1.6 2-.3 0 .9.7 1.9 1.6 2.2 1.7.7 1 4.6-1.1 5.8-1.9 1.1-.7 5.8 1.4 5.1 1.4-.4 1.4-.3.1.6-.8.5-2.5.8-3.8.4-1.2-.3-2.8 0-3.6.6-1.8 1.5-3.7.7-6-2.7-2.3-3.4-9.4-8-13.6-8.9-2.9-.5-3.2-.4-2.7 1.1.4 1 .7 2.4.7 3.1 0 .7 1.2 2.7 2.6 4.5 2.5 2.9 2.6 3.2.9 5-.9 1-1.5 2.5-1.2 3.2.2.7-.2 2.6-1 4.1-1.3 2.7-1.3 3.2 1.3 6.8 1.5 2.2 3.1 4.2 3.6 4.5 1.6 1 .8 2.4-2.4 4-1.8.9-3.4 1.8-3.6 1.9-.2.2.3 1.6 1.2 3.3.8 1.6 1.3 3.2 1 3.5-.6.6 5.5 2.7 8.5 3 2.1.1 3 3.1 1.3 4.1-1.8 1.1-.4 4.8 2.9 7.8 1.9 1.8 3.3 3.6 3.1 4.1-.1.5 1 .7 2.5.6 1.6-.1 3.9.1 5.2.5 1.3.5 2.6.4 3 0 .3-.5 1.6-1.5 2.8-2.1 1.9-1.1 2.4-1 3.3.6.5 1.1 1 2.9 1 4.1 0 1.2.4 3 1 4 .8 1.5.6 2-.9 2.5-1.6.5-1.8 1.3-1.5 5 .3 3.4 0 4.9-1.4 6.3-1 1-2.3 1.7-2.9 1.5-.6-.2-.8.6-.6 2.2.3 1.4 1 2.5 1.6 2.5.6 0 .7.3.4.6-.4.4.3 2.1 1.6 3.8 1.2 1.6 2.2 3.5 2.3 4.2.1.6 1.4 3 2.8 5.3 1.5 2.3 2.4 4.5 2.2 5-1.4 2.3 8.3 6.8 10.3 4.8.9-.9 1.6-.8 3.1.1 2.6 1.6 2.8 1.6 2.4-1.1-.3-1.2.4-3.2 1.4-4.4 1.5-1.7 2.8-2.1 6.3-1.9 3.9.3 4.6 0 5.6-2.1.9-2 .9-2.8 0-3.9-3.7-4.2-3.8-4.4-2.1-4.4 1.1 0 1.4-.5 1-1.6-.6-1.4.1-1.5 4.9-.9l5.5.6v-2.8c0-2.2.2-2.5 1-1.3.5.8 1 1 1 .4 0-.7 1.6-1.1 3.8-1 3.5.1 3.7-.1 3.5-2.7-.1-2.1.2-2.7 1.2-2.3.7.2 3 .8 4.9 1.2 3.6.6 4.3-.2 3.7-3.9 0-.4.4-.7.9-.7.7 0 .6-.8-.2-2.3-1.6-2.9-1.7-9.7-.2-9.7.6 0 1.4-1 1.7-2.3 1.9-7.9 5.5-13.8 10.3-16.6 2.1-1.3 3.4-2.8 3.4-4.1 0-1.6.5-2 1.8-1.6 2.5.8 7.1-3.9 5.4-5.6-1.2-1.2-1.7-4.8-.7-4.8 1.1 0 8.4 4 9 4.9.3.6 1.2.8 2 .5.8-.4 1.2-1.1.8-1.7-.4-.6-.1-.7.6-.2.7.4 2.6.8 4.2.9 2.4.2 3.1-.2 3.5-2.3 1.1-4.9 1.1-4.9 5.7-4.4 2.7.3 4.7.1 5.1-.6.4-.6 2-1.1 3.6-1.1 2.2 0 3.2-.7 4.3-2.9 1.4-2.7 1.3-3-.9-4-1.4-.6-3-2.3-3.7-3.8-.6-1.6-1.7-3.4-2.4-4.1-1.9-1.9-1.6-4.2.5-4.2 1.3 0 1.7-.7 1.6-2.8-.2-5.4-.4-6-2.5-6.5l-2.1-.6 2.1-2.2c1.2-1.3 1.9-3 1.6-4-.4-1.2.5-2.2 3.2-3.6 2.2-1.1 5.1-3.9 6.8-6.6 1.7-2.5 3.5-4.6 4.1-4.6 2.4-.2 3.9-10.5 1.8-12.5-.7-.8-1.4-2.2-1.4-3.1 0-.9-.4-1.4-.9-1.1-.5.4-.7-.3-.4-1.4.4-1.4 0-2-1.1-2-.9 0-1.6-.7-1.6-1.5s-.4-1.5-1-1.5c-1.9 0-1-3.7 1.4-5.9 2-1.9 3.1-2.2 6-1.7 3 .6 3.6.4 3.6-1 0-1-.5-1.4-1.5-1-.8.3-2.8-.6-4.5-2-2.9-2.5-7.7-3-9.1-1-.4.5-1.2 0-1.8-1.2-.9-1.7-.7-2.3 1.3-3.5 2.2-1.5 2.5-1.5 4.2.4 1 1.1 2.4 1.7 3.2 1.4.8-.3 2-.1 2.6.4.8.6 1.1-.2 1.1-3 .1-2.6-.3-3.9-1.2-3.9-2.8 0-.8-3.4 2.5-4.5 2.5-.7 2.2-1.7-.6-2.1-.9-.2-1.8-.8-2-1.3-.2-.6-1-1.1-1.8-1.1-.7 0-1.6-1.2-1.9-2.8-.4-1.5-1.3-3.9-2.1-5.4-1.5-2.7-1.5-2.8.9-1.9 1.4.5 3 .6 3.8 0 .8-.5 2.2-.6 3.2-.3.9.3 3.3 0 5.3-.6 3.2-1.1 3.9-.9 7.5 1.4 3 2 3.9 2.3 3.9 1.1 0-.8.5-1.5 1-1.5.6 0 1 .4 1 .8s.9.8 2 .9c2.5.2 2.6-1.7.1-4.9-1.2-1.4-1.8-3.3-1.5-4.5.3-1.1-.4-3.7-1.6-5.8-1.4-2.4-1.8-4-1.1-4.4 1.5-1-1.9-7.9-4.3-8.7-1-.3-2.2-.1-2.6.6-.4.7-2.4 1.2-4.4 1.2-2.5 0-3.6.4-3.6 1.5 0 1-.6 1.2-2 .8-1.2-.4-2.7-.1-3.5.5-.8.7-2.2 1-3 .6-.8-.3-1.5-.1-1.5.5 0 1.7-4.3 2.7-7.5 1.7-4.3-1.3-15.4-1.8-16.1-.7-.3.5-2.1.9-3.9.9-2.5 0-3.7-.6-4.5-2.1-1.4-2.4-.6-3.6 1.3-2.1 2 1.7 5.7.3 5.7-2 0-1.4.5-1.8 1.6-1.4 1 .4 1.8-.1 2.1-1.3.5-1.8 7.2-6.2 9.1-6 2.2.3 5.2-1.6 5.2-3.2 0-1.4.7-1.9 2.5-1.9 1.4 0 3.3-.7 4.4-1.6 1.8-1.6 1.8-1.7 0-3.5-2.6-2.6-2.4-5.6.4-6.4 1.2-.3 3.3-1.1 4.7-1.7 4.6-2 6.5-2.5 11.5-3.6 5.5-1.2 5.3-1.1 14.5-1.5 6.4-.2 6.5-.2 8.6-4.1 1.2-2.2 2.9-4.3 3.8-4.8.9-.5 1.6-1.8 1.6-2.8 0-1 .9-2.5 2.1-3.3 1.3-.9 2-2.4 1.8-3.9-.1-1.2 0-3 .3-3.8.3-.8 1-3 1.6-4.8.6-1.9.7-4.3.3-5.5-1.8-5.2 1.9-8.1 6.4-5.1 2.8 1.8 3.5 1.5 5.3-2.9 1-2.4.9-2.7-.7-2.7-1 0-2.4-.7-3.1-1.5-1.1-1.3-1.5-1.3-2.2-.3-.6 1-1 .7-1.4-.9-.6-2-1.1-2.2-4.3-1.7-4.2.7-6.5-.9-10.1-7-2.3-3.8-2.3-3.8-.2-3.2 2.8.9 5-1.1 4.4-4.1-.3-1.4.3-3.2 1.2-4.2 1-1.1 1.6-2.5 1.5-3.3-.6-2.9 1.1-6.8 3.1-6.8 1.4 0 2-.7 2-2.1 0-1.6.4-1.9 1.8-1.4 5.2 2.2 11.8 1.6 10.8-1-.3-.8-.1-1.5.4-1.5s1.2-.9 1.5-2.1c.4-1.1.9-1.8 1.2-1.5.3.3 1.2-.1 2-.9 1.9-2 3.3-1.9 3.3.1 0 1 .5 1.4 1.5 1 1.2-.4 1.4 0 .9 2-.4 1.6-.2 2.9.6 3.4.6.4 1.2 2.4 1.3 4.4.1 2.6.5 3.5 1.4 3.2.8-.3 1.3.2 1.3 1.4 0 2.1 1.5 3.4 2.9 2.5.6-.3.4-1.7-.5-3.3-1.8-3.4-1.8-4.2.1-4.2.8 0 1.5-.7 1.5-1.5s.5-1.5 1.1-1.5c2.2 0 4.9-4.4 4.3-7.2-.5-2.3-.3-2.6 1.5-2.1 2.2.6 2.4 0 1.2-3.2-.5-1.1-.4-2.5.1-3.2.6-.7.5-2-.2-3.3-1-2-1-2.1.8-1.6 1.4.5 2.8-.1 4.6-1.8 2-2.1 2.4-3.2 1.9-5.9-.3-1.9 0-4.5.7-5.8 1-1.7 1-2.4.1-2.7-.6-.2-1.1-1.2-1.1-2.1 0-2.1-3.3-5.4-4.3-4.4-.4.3-.7-.1-.7-.9 0-.9-.7-1.8-1.5-2.2-.8-.3-1.5-1-1.5-1.5 0-.6.7-.7 1.7-.4 1.1.4 1.4.3.9-.5-.4-.7-.1-1.2.8-1.2 1.9 0 1.9-.1.6-3.6-.8-1.9-.7-3.1.2-4.2 1.1-1.3 1-1.4-.7-.5-2.5 1.3-4.5.6-4.5-1.4 0-1.2-.8-1.5-4-1-2.2.3-4.3.1-4.6-.4-.7-1.2-4.4-1.1-4.4.1 0 .5-.9 1-2 1s-2-.6-2-1.4c0-2.3-2.8-4.5-4.9-3.9-1 .2-3.5 0-5.5-.5-2.1-.6-3.4-.7-3.1-.1.9 1.4-.5 1.1-2.1-.6-1.4-1.3-1.4-1.6.1-2.1 1.1-.5 1.3-1 .5-1.9-.5-.6-.8-1.4-.5-1.7.3-.3-.1-1.1-1-1.8-1.2-1-1.5-1-1.5 0zm-229.1 86.4c.8 1 .8 1.6-.2 2.4-1 .8-1.3.5-1.5-1.4-.2-2.8.1-3 1.7-1zm-79.9 6.6c0 .5-.4 1-1 1-.5 0-1-.5-1-1 0-.6.5-1 1-1 .6 0 1 .4 1 1zm248 147.5c0 .8.7 1.5 1.5 1.5s1.5.8 1.5 1.7c0 1.3-.7 1-3-1.2-3.4-3.3-3.5-3.5-1.5-3.5.8 0 1.5.7 1.5 1.5zm-8 56.5c0 1.3-2.8 2.5-3.8 1.6-.3-.4 0-1.1.8-1.6 2-1.3 3-1.2 3 0z"/><path d="M464.6 9.938c-.3.8-1.3 1.5-2.2 1.5-1.3 0-1.4.3-.4 1.5.6.8.9 1.8.6 2.4-.8 1.2 4.6 5.1 7.2 5.1 1.1 0 2.5.6 3.1 1.4 1 1.1.8 1.7-.6 2.5-1.5.9-1.4 1.1 1.2.9 1.7-.1 4.6.7 6.5 1.7 3.4 1.7 3.4 1.7 2 0s-1.4-1.8.9-.6c3.9 2.1 4.8-.3 1-3-2.2-1.5-3.4-1.9-3.7-1.1-.5 1.7-2.9 1.5-3.6-.4-.9-2.3-.8-2.6.7-1.8.8.5.8.3-.2-.9-.7-1-1.1-3-.9-4.7.5-3.6-.5-4.4-6.8-5.4-3.2-.4-4.3-.2-4.8.9zM503 12.438c.8.5 2 1 2.5 1 .6 0 .3-.5-.5-1s-1.9-1-2.5-1c-.5 0-.3.5.5 1zM505.5 15.438c.4.6 1.1.8 1.6.5 1.4-.9 1.1-1.5-.7-1.5-.8 0-1.2.5-.9 1zM535.2 20.438c0 1.4.2 1.9.5 1.2.2-.6.2-1.8 0-2.5-.3-.6-.5-.1-.5 1.3zM487 27.838c0 .2.7.7 1.6 1 .8.3 1.2.2.9-.4-.6-1-2.5-1.4-2.5-.6zM703.8 67.438c-2.2 2.5-3.2 2.9-6.4 2.6-5.2-.5-5.5-.1-3.8 3.9 1.8 4.3 1.8 4.6-.3 3.8-1.3-.5-1.5-.2-1 1.1.4 1 .7 2.2.7 2.7s.9.9 2 .9 2-.7 2-1.5 1.7-2.2 3.8-3.2c2-.9 4.3-2.3 4.9-2.9.7-.7 2.2-1 3.3-.7 2.7.7 2.5-.3-.6-3.9-1.4-1.7-2.3-3.7-2-4.4.8-2 .4-1.8-2.6 1.6zM105.2 74.038c-.7.8-.8 1.4-.3 1.4 1 0 2.5-1.9 2-2.5-.2-.1-1 .3-1.7 1.1zM353.8 77.738c-.2 1.7-1 2.2-3.1 2.2-1.7 0-3.2.7-3.8 1.7-1.4 2.4-4.8 2.2-7.6-.4-3.2-3-4.1-1.5-1.2 1.9 1.8 2.1 3.3 2.8 5.8 2.8 3.5-.1 8.5 3 7.6 4.6-.7 1 .1 1.1 5.2 1.3 1.8.1 3.3-.3 3.3-.9 0-.5.5-.4 1.1.2 2 2 6.9-1.1 6.2-3.8-.5-1.9-.3-2.1 2.5-1.7 2 .3 3.3 0 3.6-.9.4-.9-.4-1.3-2.4-1.3-1.9 0-3.4-.8-4.4-2.2-1.6-2.2-1.6-2.2-1.6.9 0 1.8-.3 3.4-.8 3.6-1.2.8-5.2-3-5.2-5 0-1-1.1-2.6-2.5-3.5-2.3-1.7-2.4-1.7-2.7.5zM384.5 80.338c-6.4 1.1-7.1 2-3.4 4.7 3.2 2.3 3.2 2.3 5.7.4 1.3-1.1 3.1-2 3.9-2 1 0 1.3-.6.9-1.6-.3-.9-.6-1.8-.6-2 0-.5-1-.4-6.5.5zM697 85.038c0 .8.5 1.2 1 .9.6-.4.8-1.1.5-1.6-.9-1.4-1.5-1.1-1.5.7zM493 88.838c0 .8-.8 1.7-1.7 1.9-1.5.4-1.6.5-.2.6.9 0 2.4 1.6 3.3 3.3.9 1.8 2.5 4.4 3.6 5.8l2 2.5 2-2.4c2.6-3 2.2-4.2-1.8-6.1-2.4-1.1-3.2-2.2-3.2-4.3 0-2-.5-2.7-2-2.7-1.1 0-2 .6-2 1.4zM508 93.938c0 .8.4 1.5 1 1.5.5 0 .7-.7.4-1.5-.4-.8-.8-1.5-1-1.5-.2 0-.4.7-.4 1.5zM118.5 97.438c0 3.5.2 3.8 1.3 2.3.7-1 1-2.4.7-3.1-.3-.8-.5-1.8-.5-2.3 0-.5-.4-.9-.8-.9s-.8 1.8-.7 4zM521.5 96.338c-.3.5-.1 1.2.5 1.6.5.3 1-.1 1-.9 0-1.8-.6-2.1-1.5-.7zM111.5 97.438c.4.6 1.1.8 1.6.5 1.4-.9 1.1-1.5-.7-1.5-.8 0-1.2.5-.9 1zM113 100.338c0 1 1.9 2.5 2.5 2 .1-.2-.3-1-1.1-1.7s-1.4-.8-1.4-.3zM520.2 102.438c-.8 1.6-1.1 3.4-.7 4 .3.5-.3 1-1.3 1-2.7 0-3.8 3-1.2 3.1 1.1.1 2.6.2 3.3.3.6.1 2.8 1.8 4.7 3.8 1.9 2.1 4.3 3.8 5.5 3.8 2.9.1 8.6 5.3 8.2 7.6-.4 2.9-1.7 4.5-3 3.7-.7-.4-2-.6-2.9-.5-.9.2-3-.4-4.5-1.2-1.6-.8-3.8-1.4-4.8-1.3-1.4.2-2.3-.8-3.1-3.2-.6-1.9-2.2-4.2-3.6-5.2-2.4-1.8-2.6-1.8-4.6-.1-5.8 4.9-8.2 6.6-13.1 9.4l-5.4 3 2.5 2.2c3.5 2.9 4.2 5.6 2.1 7.1-2.6 1.9-2.5 10.4.1 12.6 2.4 2 1.5 4.9-1.5 4.9-1.7 0-2 .4-1.6 2.2.4 1.4 0 2.9-1 4-1.5 1.7-1.5 2 .5 4.1 1.2 1.3 2.2 2.7 2.2 3.3.1.5 1.4 2.5 3 4.4 3 3.4 3.8 6 2 6-1.8 0-1 2.6 1.4 4.8 2.4 2 2.5 2 3.1.2.6-1.8.7-1.8 4 .2 3.2 1.8 3.5 1.8 3.5.3 0-1.4.3-1.5 1.4-.6 1 .9 1.6.9 2.1.1s1.1-.8 1.9 0c1 .7 2 .3 4-1.6 1.4-1.5 2.6-3.1 2.6-3.6s1-.6 2.3-.3c2.2.7 2.2.7.2-.8-1.5-1.2-1.6-1.5-.4-1.3.9.1 2.4.9 3.3 1.8.9.9 2.6 2 3.8 2.4 1.3.4 3.5 1.6 5 2.7 2.1 1.6 3 1.8 4.1.8 1.2-.9 1.8-.6 3.1 1.3.9 1.4 1.6 3.5 1.5 4.8-.1 3.1 3.7 13.4 4.4 11.7.3-1.1.8-1.2 2.6-.2 1.1.7 3 1.3 4.1 1.3 1.1 0 2 .6 2 1.3 0 .8 1 2.2 2.2 3.3 2 1.8 2.1 1.8 1.5.1-.5-1.4-.2-2 1.3-2.4 1.3-.3 2.2-1.7 2.6-3.9.3-1.9.9-3.4 1.3-3.4s.8-1.5.9-3.2c.2-1.8.7-3.7 1.2-4.2 1.5-1.5 1.2-4.5-.5-6.3-2-1.9-1.6-2.4 1.3-1.6 1.2.3 2.2 1.1 2.2 1.9 0 .8.6 1.1 1.6.7.8-.3 1.3-1.2 1-1.9-.4-1.1-.2-1.1 1.4-.2 2.7 1.7 3.9 0 1.5-2.1-1.1-.9-2.9-2.7-4-4.1-1.7-2-1.8-2.3-.3-1.7 1 .3 2.1 0 2.5-.7.5-.7 1.5-1.5 2.3-1.8 1.1-.4.7-.9-1.2-1.8-1.6-.7-2.8-1.9-2.8-2.6 0-3.2-4.8-2.2-8 1.6-2.2 2.7-6.7 1.5-9.1-2.4-1.8-3-1.8-3.1.1-4.1 1-.5 1.9-1.2 1.8-1.5 0-.3.3-2.3.7-4.4.5-2.4.4-4.6-.3-5.7-.8-1.3-.8-2 .3-2.9.8-.7 2-3 2.6-5.1 1.1-3.5 1-4.1-1.2-7.1-1.8-2.4-2.4-4.4-2.3-7.5.2-2.8-.2-4.3-1.2-4.7-.8-.3-1.4-1.5-1.4-2.6 0-1.6-.7-2-3.1-2-4 0-7.2-1.8-6.5-3.6.3-.7.2-1.3-.2-1.2-1.7.5-7.1-2.2-8.1-4-.6-1.1-3-2.8-5.4-3.7-2.4-.9-6.3-3.6-8.7-6.1-2.3-2.4-4.8-4.4-5.4-4.4-.6 0-1.7 1.3-2.4 3zm22.8 28c.9 1.6.8 2-.5 2-.8 0-1.5-.2-1.5-.4s-.3-1.1-.6-2c-.9-2.3 1.3-2 2.6.4zM170.5 112.338c.4 1.5.2 2.1-.8 2.1-.9 0-1.7.6-2 1.2-.6 2 .4 4.8 1.7 4.8 2.6 0 5.6 4.6 5.6 8.3 0 2.4.5 4 1.5 4.3.8.4 1.5 1.2 1.5 2 0 .7 1.3 2 2.9 2.8 1.6.9 3.1 2.6 3.5 3.8.3 1.3 2 3 3.8 3.8 2.2 1 3.2 2.1 3 3.2-.5 3 1.5 2 2.1-1 .3-1.5.9-4 1.3-5.5.9-3.6-2.3-10.7-4.9-10.7-2 0-6.1-6.1-4.7-7 1.5-.9 0-4.8-2.6-6.5-1.3-.8-2.4-2.2-2.4-2.9 0-1.3-2.6-2.6-7.8-4.1-2.1-.6-2.3-.4-1.7 1.4zM337 121.338c0 .6.5 1.3 1 1.6.6.3 1-.1 1-.9 0-.9-.4-1.6-1-1.6-.5 0-1 .4-1 .9zM686 156.438c0 .5.5 1 1.1 1 .5 0 .7-.5.4-1-.3-.6-.8-1-1.1-1-.2 0-.4.4-.4 1zM193.1 158.638c-.1 1.5.4 3 .9 3.3 1.2.7 1.2-1.2 0-4-.8-1.8-.9-1.7-.9.7zM175.4 158.938c-.4.9-.2 2.1.4 2.7.8.8.8 1.5.1 2.4-1.4 1.7-.8 5.6 1 6.2 1 .3 1.2 0 .8-1.1-.3-.9.1-1.8.9-2.1 1.1-.4 1.2-1.1.6-2.2-.5-.9-.7-2.4-.5-3.4.2-.9-.3-2.2-1.1-2.9-1.3-1.1-1.7-1-2.2.4zM690 159.338c0 .6.4 1.3 1 1.6.6.3.7-.1.4-.9-.7-1.8-1.4-2.1-1.4-.7zM108.1 168.938c.1 3.3-.2 8.4-.6 11.2l-.6 5.3h2.8c4.1 0 5.6-1.4 5.6-5 0-2-.7-3.6-2.1-4.6-1.1-.8-2.1-2.2-2-3.2 0-.9-.7-3.5-1.6-5.7l-1.6-4 .1 6zM191.4 165.938c.4 1.1.9 2.8 1.1 3.9.3 1 .8 2.3 1.4 3 .5.6 1.6 3.1 2.4 5.6 1 3.1 2.1 4.6 3.5 4.8 1.6.3 1.9-.1 1.5-1.7-.3-1.2-.9-2.1-1.4-2.1-.5 0-.9-.5-.9-1.1 0-.5.4-.7 1-.4.9.6.8-.4-.7-4.3-.3-.9-.7-2.2-.7-2.7-.1-.6-1.1-1.1-2.3-1.3-1.3-.2-2.3-.9-2.3-1.6 0-.8-.8-2-1.7-2.7-1.5-1.2-1.6-1.2-.9.6zM35.4 177.238c-1.2.7-1.1 8.6.1 13.4.6 2.1.3 2.7-1.4 3.3-1.2.3-2.1 1.3-2.1 2.1s-.4 1.4-1 1.4c-.5 0-1 1.1-1 2.5 0 2-.5 2.5-2.5 2.5-2.6 0-3.3 1.4-1.4 2.5.6.4.8 1.4.5 2.2-.3.8.1 2.8 1 4.6 1.3 2.4 1.4 3.5.5 4.9-1 1.6-.8 2 1.1 2.8 1.3.5 1.7.9 1.1.9-.7.1-1.3.9-1.3 2 0 1.8 3 3.5 5.7 3.2 1.7-.2 2.5 1.6 1.2 2.5-.8.4-.4 1.1 1.2 2l2.4 1.3-2.2.1c-2 0-2.3.5-2.3 3.7 0 2.2-1.1 5.6-2.5 8-1.3 2.4-2 4.3-1.4 4.3.5 0 .9-.5.9-1.1 0-.5 1.3-.2 3 .8 2.8 1.6 3.9 3.3 2.3 3.3-2.5.1-3.3 1.7-2.2 4.8.8 2.4 2.2 3.6 6.5 5.3 3 1.3 5.4 2.9 5.4 3.6 0 .7.6 2.3 1.3 3.6.6 1.2 1.3 2.3 1.4 2.5 0 .2 2-.6 4.2-1.8 2.3-1.1 4.6-1.8 5.1-1.5.6.3 1 .2 1-.4 0-.6.7-.8 1.5-.5 1.1.5 1.3.2.9-1-.3-.9-.1-1.7.5-1.7 2-.3 2.6-.4 3.8-1.2 1.2-.8 2.1.6 3.7 5.5.3 1 1.2 1.8 2 1.8.9 0 3 .9 4.7 1.9 3.2 2 3.2 2 5-.2 1.2-1.5 1.4-2.6.7-3.4-.5-.7-.8-1.7-.6-2.3.3-1 1.1.4 4.8 8.2.7 1.6 1.7 2.8 2.2 2.8 1 0-.2-5.4-1.4-5.8-.4-.2-.8-1.2-.8-2.1 0-1-.9-2.6-2-3.6s-2-2.4-2-3.1c0-1.5-4.8-5.3-9.8-7.8l-3.3-1.7 1.7 2.6c1.5 2.2 1.5 2.5.1 1.9-.9-.3-1.9-1.5-2.2-2.5-.8-2.3 1.3-5.2 3.1-4.5.8.3 1.2-.4 1.1-2.2-.2-2.1.3-2.8 2-3 1.2-.2 2.4-1 2.7-1.8.3-.8.2-1.2-.3-.9-.5.3-1.2.1-1.6-.5-.3-.5.1-1 .9-1 .9 0 1.6-.5 1.6-1.1 0-1.2 5.7-.3 7.6 1.2.6.5 1.3.6 1.6.3.4-.3 2.1.2 3.8 1.1 1.8.9 4.9 1.8 6.9 1.9 2 .1 3.7.7 3.7 1.4.3 2.5.6 2.6 1.4.6.5-1.4 2.1-2.4 4.3-2.8 4.9-.9 8.6-4 7-5.7-.7-.7-1.3-2.3-1.3-3.5 0-1.2-.6-2.4-1.2-2.7-.9-.3-.7-1 .7-2.1 1.1-.8 1.5-1.6.8-1.6s-1-.6-.7-1.4c.3-.8-.8-1.9-2.8-2.9-3-1.5-9.8-7.7-9.8-9.1 0-.3.7-.6 1.5-.6.9 0 2-1.1 2.7-2.5.6-1.3 1.6-2.2 2.2-1.8.7.4.7.2 0-.6-1.7-1.9-.5-4.8 2.1-5.5 2.3-.6 2.3-.7.9-5.3-.8-2.6-1.2-5.3-1-5.9.6-1.7-2.1-5.2-5.3-6.8-2.5-1.3-3-1.3-4.3.1-1.1 1-2.3 1.3-3.9.7-1.3-.4-3-.7-3.7-.5-.8.1-2-.3-2.7-.9-.8-.7-2.6-.9-4.2-.6-2.1.5-4-.1-7.3-2.2-6.9-4.3-8-4.6-8-1.7 0 1.4-.5 2.5-1.1 2.5-.5 0-.7.4-.4 1 .8 1.3-1.1 1.3-3.5 0-1.5-.8-2-.6-2.5 1-.7 2.1-3.9 2.7-5 1-.3-.6-1.5-1-2.7-1-1.7 0-1.8.2-.8 1.5 1 1.2 1 1.5-.4 1.5-.9 0-1.6-.4-1.6-.9s-2.9-2.4-6.5-4.2c-3.6-1.9-6.5-4-6.5-4.7 0-1.3-1.9-1.6-3.6-.4zm44.6 19.4c0 .5-.4.8-1 .8-.5 0-1-1-1-2.3 0-1.8.2-1.9 1-.7.5.8 1 1.8 1 2.2zm4.1-2.2c1.5.9 1.7 1.5.9 3-.7 1.4-.7 2 0 2 .5 0 1 .5 1 1.2 0 1.7-2.3-1-3.8-4.5-1.3-3-1-3.2 1.9-1.7zm-26.1 13.9c0 1.4-1.8 2.3-3.1 1.5-.8-.4-.7-.9.2-1.5 1.8-1.1 2.9-1.1 2.9 0zm40.2 4.1c1.2 1.1 1.9 2 1.5 2-1.4 0-5.7-2.4-5.7-3.2 0-1.4 2-.9 4.2 1.2zm-2.2 6.6c0 .8-1.9 1.3-2.4.6-.3-.5.1-.9.9-.9s1.5.2 1.5.3zm-18.2 42.6c.7.7 1.2 1.8 1.2 2.5 0 1-.5 1-2.5.1-2.6-1.1-3-1.9-1.8-3.1.9-1 1.7-.9 3.1.5zM120.9 185.238c1.9 3.5 1.4 7.2-1.1 8.1-2.2.9-2.2.9.6 1.6 1.5.4 4.4.3 6.3-.3 3.2-1 3.6-.9 4.1 1 .4 1.6 1.1 1.9 3.2 1.4 2.2-.4 3 0 4 2 1.4 2.5 3 3.2 3 1.3 0-.8.4-.8 1.4 0 1.1.9 1.5.8 2-.5.9-2.3.8-2.7-.9-2-.9.3-2.4-.3-3.5-1.4-1.1-1.1-2.9-2-4-2-3.5 0-9.9-3.3-10.4-5.5-.4-1.1-1.8-2.8-3.2-3.9-2.6-1.8-2.6-1.8-1.5.2zM192 191.438c-.2.8-.4 1.9-.5 2.5-.1.5-.5 1.8-1 2.8-.4 1-.2 2.3.4 3.1 1 1.2.8 1.3-1.1.8-1.3-.3-2.7-1.1-3.3-1.9-.7-.9-1.5-1-2.5-.3-1.3.8-1.2 1 .3 1 1.7 0 1.7.2-.4 3.1-2.3 3.3-1.5 5.7 1.5 4.6 1.8-.7 2.2-2.7.6-2.7-.5 0-1-.4-1-.9 0-1.3 5.1 0 5.7 1.6.3.8 1.3 1.1 2.5.7 2.7-.8 5.8-3.6 5.2-4.6-.3-.4 0-.8.5-.8.6 0 1.1.8 1.1 1.7.1 1.7.1 1.7 1.1 0 1.4-2.3-1.7-6.3-3.6-4.7-1.7 1.4-4.3-1-4.8-4.5-.2-1.7-.5-2.3-.7-1.5zM465 192.638c0 .9.5 2 1 2.3 1.3.8 1.3-.5 0-2.5-.8-1.3-1-1.3-1 .2zM150.7 194.538c-2 2.3-1.8 3.3.6 2.4 1.5-.6 3.1-4.5 1.8-4.5-.3 0-1.5.9-2.4 2.1zM179.5 203.338c-.3.5-.1 1.2.5 1.6.5.3 1-.1 1-.9 0-1.8-.6-2.1-1.5-.7zM146.7 204.538c.7.7 1.5 1 1.8.7.3-.3-.2-.9-1.2-1.2-1.4-.6-1.5-.5-.6.5zM179.7 208.438c-.3 1.1-.2 2 .3 2 .4 0 1-.9 1.3-2 .3-1.1.2-2-.3-2-.4 0-1 .9-1.3 2zM473.1 220.038c0 1.1.3 1.4.6.6.3-.7.2-1.6-.1-1.9-.3-.4-.6.2-.5 1.3zM522.1 234.238c-.6 1.1-.6 2.4.1 3.7 1.6 2.9 1.6 2.9 3.3 1.2 1-1.1 1.3-2.5.9-4.2-.7-2.9-2.9-3.3-4.3-.7zM514 240.538c0 1.4 2 2 3.6 1.1 1.4-.8 1.2-1-1-1.4-1.4-.3-2.6-.2-2.6.3zM508 247.938c-1 1.2-1 1.5.4 1.5.9 0 1.6-.7 1.6-1.5s-.2-1.5-.4-1.5-.9.7-1.6 1.5z"/><path d="M104.7 248.738c-.5 1.4 2.5 4.7 4.2 4.7.5 0 .6-1.2.2-2.8-.8-2.9-3.5-4.1-4.4-1.9zM478.5 253.138c-.6 3.1-.3 4 1.4 5.4 2.1 1.7 3.1 6.6 1.1 5.4-.5-.3-1 .1-1 .9 0 2.4-2 2.9-4 1.1-1.2-1.1-2.6-1.4-3.9-1-2.2.7-6.4-3.1-7.7-6.8-.6-1.8-1.6-1.9-5.5-.3-1.2.5-2.1-.2-3.2-2.6-1.1-2.1-1.7-2.6-1.7-1.5 0 1-.4 1.5-1 1.2-.9-.6-1.4.7-1.1 2.7 0 .4-.6.5-1.4.1-1.3-.4-1.3-.8-.3-2.1 1.1-1.3 1-1.5-.5-.9-1 .4-2.3.7-2.9.7-.6 0-.6.6.2 1.5 1 1.2 1 1.8 0 3-1.5 1.8-.4 5.5 1.8 5.5.9 0 2.4 1.5 3.3 3.2 1.4 3 1.4 3.5-.4 7.1-1.3 2.8-1.6 4.2-.8 5 .8.8 1.1.8 1.1-.1 0-.6.7-.9 1.5-.6 1.8.7 1.9 0 .5-2.6-.9-1.6-.6-2.1 1.5-2.6 1.4-.4 4.2-.4 6-.1 2.6.4 3.7.2 4.4-1.1.9-1.6 1.1-1.6 2.4.2 1.1 1.5 2.1 1.7 5 1.2 2.3-.4 3.7-1.3 3.7-2.1s.6-1.5 1.3-1.5c2.4 0 6.7-2.5 6.3-3.6-.2-.6.4-2.5 1.5-4.3 1-1.7 1.5-3.1 1-3.1s-1.2.6-1.5 1.2c-.3.9-1 .7-2.1-.7-1.4-1.8-1.4-2-.1-2.3 2-.4 2-1.2.1-3.9-.8-1.2-1.2-2.8-.9-3.7.4-1.1 0-1.6-1.4-1.6-1.5 0-2.1.9-2.7 3.7zM513.5 250.338c.6 1 .2 1.2-1.4.6-1.5-.4-2.3-.1-2.7 1-.4.9-1.3 1.4-2 1.1-.7-.3-2.6.8-4.3 2.4-1.9 2-3.6 2.8-5.1 2.5-1.2-.2-3.1.2-4.2.9-1.8 1.3-1.7 1.4 1.2 1.8 2.2.3 3 .1 3-1 0-1.2.5-1.1 2.3.5 2.4 2.3 3.4 2.1 8.5-1.3 1.9-1.3 4.3-2.4 5.2-2.4 2.7 0 3.1-3.6.7-5.7-1.1-1-1.7-1.2-1.2-.4zM111.4 254.238c.4.7-.7 2.4-2.9 4.3-2.8 2.5-3.5 3.7-3 5.6.3 1.3.1 2.3-.5 2.3-1.4 0-1.2 3.7.2 4.6.7.5 2.8.7 4.6.5 2.1-.2 3.2.1 2.8.7-.9 1.5-6.5 2.5-7.9 1.4-1.8-1.5-6.1-2.6-5.3-1.4.7 1.2-1.6 2.2-5 2.2-2.7 0-3 1-1.2 2.8 1 1 1 1.5-.1 2.1-1 .7-1 1-.1 1.3.8.2.2 1.1-1.5 2.2-2.5 1.7-2.7 1.7-2.2.2.4-1 .3-2.6-.3-3.6-.8-1.4-1.8-1.7-5.7-1.2-4.8.5-5.9 1.2-7.9 4.7-.8 1.5-2.2 2-5 2-3.7 0-3.9.2-3.7 2.8.1 1.6 1.3 4.4 2.7 6.2 2.6 3.3 2.5 4.8 0 3.8-1.9-.7-1.8 1.1.1 2.7 2 1.6 1.9 3.4-.1 2.6-1-.4-1.4-.1-1.2.6.2.6 1.6 1.3 3 1.5 2 .3 2.8-.2 3.3-1.7.7-2.3 3.5-2.7 3.5-.5 0 .8-.4 1.5-.9 1.5-.4 0-.6 1.1-.3 2.5.3 1.8 0 2.5-1.2 2.5-.9 0-1.6.4-1.6 1 0 .5-.4 1-1 1-.5 0-1-.7-1-1.5s-.8-1.5-1.8-1.5c-2.1 0-4.4-3.4-3.6-5.4.3-.8 0-2.5-.7-3.7-.9-1.7-.9-2.4 0-2.7 2.1-.7 1.1-3.3-2.5-6.6-2.4-2.2-4.3-3.2-5.6-2.8-1.2.3-2.4-.3-3.3-1.4-1.7-2.5-13.9-8.7-16.2-8.2-1.3.3-1.7 1.1-1.5 3.3.6 4.9-.7 9.5-2.4 8.8-.8-.3-2.5.6-3.9 2.1l-2.5 2.7-3-2.1-3-2.1v2.6c0 1.4-.6 2.8-1.4 3.1-.8.3-1.9 1.9-2.5 3.5-.5 1.6-1.5 2.9-2 2.9-.6 0-1.1.4-1.1 1 0 1.8-3.9 5-6.1 5-1.7 0-2 .4-1.4 2.8.7 3.2-2.4 7.2-5.5 7.2-1.1 0-2 .4-2 .9 0 1.4 3 4.1 4.5 4.1.7 0 2.3 1.2 3.5 2.7 1.2 1.5 3.6 3.2 5.3 3.8 1.8.5 3.3 1.6 3.3 2.2.1.7.2 1.6.3 2 0 .5 2 .8 4.4.8 2.3.1 5.4.4 7 .9 2.1.6 2.7.5 2.7-.6 0-1 1-1.4 3-1.3 1.9.1 3-.3 3-1.2 0-2 1.4-1.6 2.5.8.6 1.2 1.5 2.2 2 2.2.6 0 1.5.7 2.2 1.6.7.9 1.3 1.3 1.3.8 0-.4.9.2 2 1.3 3 3 4.3 2.5 3.6-1.3-.7-3.9 1.3-5.6 6.1-5.2 3.9.3 6.5-1.1 4.4-2.4-1-.6-1.2-1.9-.7-4.5.7-3.9 1.7-4.4 3.6-2.1 1.9 2.3 7.7 1.9 9-.5 2.1-3.9 3-.9 1 3-1.1 2.2-2 4.1-2 4.2 0 .2 1.4.4 3.1.5 2.9.2 3 .1 2.4-2.7-.4-2-.3-3 .5-3 2.3 0 .5-4.4-2-5-2.2-.5-2.5-1.1-2.4-4.5.1-2.4.6-3.9 1.3-3.7.6.1 1.1-.3 1.1-1 0-.6.3-.8.7-.5.3.4 1.6.1 2.8-.7 1.2-.8 3.7-1.4 5.6-1.3 3 .2 3.7-.3 5.7-3.7 1.9-3.4 2.1-4.4 1.2-7.2-1-3-.9-3.8 1.2-6.3 1.3-1.7 2.8-3 3.5-3 .6-.1 1.5-1 1.8-2.2.5-1.6 1.2-1.9 3.1-1.5 2 .5 2.4.3 2.4-1.5 0-1.5-.5-1.9-1.5-1.5-.8.3-1.5.1-1.5-.4 0-.6 1.6-.8 4-.4 4 .7 11-1.6 11-3.6 0-.5 1.4-.7 3.1-.5 2.7.4 2.9.2 2.3-1.7-.4-1.2-1.6-2.9-2.7-3.9-1.8-1.4-1.9-1.9-.8-3.3.7-.9 2.2-1.6 3.3-1.6 1.3 0 1.8-.5 1.5-1.4-.9-2.3.6-2.8 1.8-.6l1.1 2.1 2.6-2.1c1.4-1.1 3.1-2 3.8-2 2.1 0 .4-2.5-2-2.8-1.3-.2-3.2-1.4-4.2-2.5-1.4-1.5-2.1-1.8-2.4-1-.9 2-6.3 1.5-9.7-.9-1.7-1.2-2.7-1.7-2.3-1zm-66.4 31.3c0 .5.4.8.9.5.5-.4.8.2.7 1.1-.3 1.8-2.6 3.1-2.6 1.5 0-.6-.3-1.7-.6-2.6-.3-.9-.1-1.6.5-1.6s1.1.5 1.1 1.1zM518 257.838c0 .9 0 1.9-.1 2.3 0 .4.4.9 1 1.1 1.4.5 1.4-3.5.1-4.3-.5-.3-1 .1-1 .9zM28 260.938c0 2 .5 2.5 2.7 2.5 2.1 0 2.4-.3 1.5-1.2-1.4-1.4-1.6-3.2-.3-2.3.5.3 1.2.1 1.6-.5.4-.6-.6-1-2.4-1-2.6 0-3.1.4-3.1 2.5z"/><path d="M124.3 268.138c-.7.2-1.3 1.4-1.3 2.5 0 1.6.5 1.9 2.3 1.4 1.2-.3 2.5-.6 3-.6.4 0 .7-.9.7-2 0-2-1.9-2.5-4.7-1.3zM455.6 277.238c1.4.9 1 6.7-.4 6.8-.7.1-1.7.2-2.3.3-.6 0-.1.9 1.2 2 2.8 2.2 5.8 1.5 7.1-1.8.4-1.3.4-2-.1-1.6-.5.3-1.5-1.1-2.2-3-.7-2-2-3.5-2.9-3.5-.9 0-1.1.3-.4.8zM63 285.038c0 .8.5 1.2 1 .9.6-.4.8-1.1.5-1.6-.9-1.4-1.5-1.1-1.5.7zM59 284.838c0 .2.7.7 1.6 1 .8.3 1.2.2.9-.4-.6-1-2.5-1.4-2.5-.6zM156.1 296.138c0 1.5.3 2.2.6 1.4.4-1.1 1-.8 2.4 1l1.9 2.4-1.4-3.5c-1.8-4.4-3.6-5.1-3.5-1.3zM154.5 301.438c-.3.5-.1 1 .4 1 .6 0 1.1-.5 1.1-1 0-.6-.2-1-.4-1-.3 0-.8.4-1.1 1zM189.5 302.438c-.3.6.1.7.9.4 1.8-.7 2.1-1.4.7-1.4-.6 0-1.3.4-1.6 1zM149.3 306.138c.2 1.3 0 2.3-.6 2.3-.5 0-.7.9-.4 2 .7 2.8-4.7 4.3-8.6 2.3-1.5-.8-3.2-1.1-3.7-.8-1.4.8-1.2 3.9.2 5.3.9.9.9 1.2 0 1.2-2.1 0-1.3 2 1.9 5 1.7 1.5 2.8 3.3 2.5 3.9-.4.6-.2 1.1.3 1.1.6 0 1.1-.3 1.2-.8 0-.4.2-1.8.3-3.2.2-1.3 1.1-2.9 2-3.5 1-.5 2.7-1.8 3.8-2.8 1.2-.9 2.6-1.7 3.3-1.7.6 0 1.7-1.2 2.3-2.6 1-2 .9-2.9-.2-4.5-.7-1.1-1.2-2.8-.9-3.8.3-1.2-.2-1.7-1.7-1.7-1.7 0-2.1.5-1.7 2.3zM82.3 313.138c-2.4.9-1.3 2.4 1.5 2.1 1.5-.2 2.6-.8 2.5-1.3-.2-1.2-2.3-1.6-4-.8zM88 316.438c0 .5.5 1 1.1 1 .5 0 .7-.5.4-1-.3-.6-.8-1-1.1-1-.2 0-.4.4-.4 1zM465 317.438c0 .5.7 1 1.5 1s1.5.4 1.5 1c0 .5.5 1 1.2 1 .6 0 .3-.9-.7-2-2-2.2-3.5-2.6-3.5-1zM446.2 321.938c-1.7 1.4-3.5 2.5-4.1 2.5-1.3 0-1.4 2-.1 4 1.3 2.1 6.4.1 6.8-2.7.3-1.9.8-2.1 3.2-1.6 2 .4 3.8-.1 5.8-1.5 1.7-1.2 3.7-1.9 4.9-1.6 1.2.3 2.3.2 2.6-.3.8-1.3-6-1.6-8.2-.3-1.3.7-2.2.7-2.6 0-1.1-1.8-5.3-1.1-8.3 1.5zM173.2 331.538c.2.7 1 1.5 1.7 1.7.8.3 1.2-.1.9-.9-.2-.7-1-1.5-1.7-1.7-.8-.3-1.2.1-.9.9zM272 350.438c0 .5.4 1 .9 1 .6 0 1.3-.5 1.6-1 .3-.6-.1-1-.9-1-.9 0-1.6.4-1.6 1z"/></g></svg>