<svg version="1" xmlns="http://www.w3.org/2000/svg" width="773.196" height="1606.372" viewBox="0 0 579.897 1204.779"><g fill="#222"><path d="M487.397 1.994c.3 1.6 0 2.8-.8 3.1-.6.2 0 .8 1.4 1.1 2.2.6 2.6 1.3 2.7 4.7.2 3.7.1 3.9-3 3.9-2.1 0-4.5 1.1-7.3 3.4-3.2 2.6-4.5 3.2-5.4 2.3-.8-.8-1.1-.7-1.1.6 0 .9-.4 1.7-1 1.7-.5 0-1 .8-1 1.8s-.3 2.2-.7 2.6c-.5.4-.8 1.8-.8 2.9 0 1.7-.5 2.1-2.5 1.9-1.9-.2-2.2 0-1.2 1 1.7 1.7 1.5 2.9-.3 2.2-.8-.4-1.5-.1-1.5.5s-.6 1.1-1.4 1.1c-.9 0-1.6 1.2-1.8 2.7-.2 1.9-1 2.9-2.3 3.1-1.1.2-2.8 1.1-3.7 1.9-.9.8-2.1 1.2-2.7.9-.6-.4-2.5.1-4.2 1-2.2 1.1-4.8 1.5-8.1 1.2-3.4-.4-5.1-.1-6 .9-.6.8-2 1.2-3 1-1-.3-2.1-.1-2.4.4-.3.5-1.4.9-2.5.9-2.2 0-2.7-3.5-.6-4.3.7-.3.6-.6-.5-.6-.9-.1-1.9-1-2.3-2-.7-2.3-6.1-3.3-7.6-1.5-.6.7-1.7 1-2.4.8-.8-.3-1.9-.2-2.6.2-.6.4-2.8.8-4.8.9-2 .2-4.9.6-6.5 1-2.5.7-2.8.6-2.2-1.3.4-1.1.2-2.3-.4-2.7-.6-.3-.8-1.1-.5-1.6.4-.5-.5-.9-1.8-.9-1.4 0-3-.7-3.7-1.4-.8-1.1-1.8-1.2-3.6-.6-1.9.8-2.7.6-3.6-1-.7-1.1-2-2-2.9-2-1.1 0-1.4-.7-1.1-2.8.7-4.8-1.7-6.1-10.7-5.9-7.9.3-11.4 1.6-10.5 4.1.3.7-1.1 2.5-3.1 4-2.8 2.2-3.5 3.4-3.3 5.4.3 2.4 0 2.7-2.4 2.4-1.6-.2-2.8.1-2.8.7 0 1.5 1.8 2.3 2.5 1.1.4-.6 1.1-.8 1.6-.4.7.4.7 1 0 1.8-.6.7-.6 1.8-.1 2.6.5.7.4 2.4-.1 3.9-.6 1.4-.8 3.5-.4 4.8.4 1.8 0 2.4-1.9 2.9-3.6.9-4.3 5-1.5 8 1.8 2 1.9 2.4.6 2.4-.9 0-1.9.5-2.2 1-.9 1.4 1.5 4.2 3 3.6.6-.2 1.7.5 2.4 1.6 1 1.6 1.9 1.9 4.6 1.4 3-.6 3.6-.3 5.6 2.6 3.1 4.5 6.5 7.8 8.2 7.8.8 0 2.2 1.1 3.1 2.5 2 3 2 3.5 0 3.5-1.2 0-1.5.6-.9 2.2.4 1.3.8 3.6.8 5.3.3 4.6 3.5 9 7.6 10.5 2 .7 4.2 1.5 4.9 1.7.6.3 1.2-.2 1.2-1.1 0-.9.5-1.6 1.1-1.6.6 0 2.6-1.8 4.6-3.9 2.2-2.5 5.9-5 9.8-6.7 5.5-2.3 6.8-2.5 9.5-1.5 2.5.8 3.8.7 6.2-.5 2.4-1.2 3.2-1.3 4.5-.3 1.9 1.6 5.4 1.9 7 .7.7-.6 2.2-.8 3.3-.5 1 .3 2.4-.1 3.1-.9.6-.8 2.3-1.4 3.6-1.4 1.9 0 2.4-.4 1.9-1.6-.5-1.3-.1-1.5 1.8-1.2 1.6.3 3.5-.3 5.3-1.8 1.8-1.4 3.2-1.9 3.9-1.3 1.7 1.4 8.1-4.8 6.6-6.3-.7-.7-1.2-2.4-1.2-4 0-2.5.3-2.7 2.9-2.2 3.1.6 7.6-1.6 7.6-3.8 0-.6 1.5-1.8 3.2-2.7 2.5-1.2 3.3-2.2 3.3-4.4 0-1.6.5-3.8 1.2-5 .6-1.2 1.1-3.4 1-4.9-.1-1.5.2-2.9.8-3.3.5-.3 1-1.9 1-3.5 0-1.9.7-3.3 2.1-4 2.7-1.5 5.9-4.7 5.9-6 0-.6.6-1 1.4-1 3 0 4.8-3.2 4.3-7.4-.3-2.3-.4-3.5-.1-2.9.9 2.1 3.8 1.5 5.9-1.3 1.5-2 2.5-2.4 4.6-2 1.7.3 3.2 0 3.8-.8.7-.9 2.4-1.2 4.6-.9 4.7.6 5.7-1.8 2.2-5.5-1.9-2.1-2.4-3.5-2.2-6.5.2-2-.1-3.7-.5-3.7-.5 0-1.8-.9-2.8-2-2.6-2.8-8.2-4.4-8.2-2.4 0 .9-.5 1.2-1.1.8-.7-.4-2 .4-3.1 1.7l-1.8 2.4-1.8-2.1c-.9-1.2-2.3-3-3-4-1.2-1.7-1.2-1.7-.7.8zM510.897 5.294c.7.8 1.6 1.5 2.1 1.5s.9-.7.9-1.5c0-.9-.9-1.5-2.1-1.5-1.8 0-1.9.2-.9 1.5zM517.497 5.694c-.4.5 0 1.3.8 1.8.7.4 2.2 2.6 3.3 4.8 1.6 3.3 2.3 4 4.6 3.8 1.4-.1 2.6.1 2.6.5-.3 1.9.2 2.3 1.6 1.2 1-.9 1.5-.9 1.5-.1 0 .6.4 1.1.9 1.1 1 0 2.1-9.1 1.2-10.2-.4-.4-3.4-1.2-6.6-1.6-3.3-.5-6.7-1.2-7.6-1.6-1-.4-2-.3-2.3.3z"/><path d="M482.397 6.794c.3.5.8 1 1.1 1 .2 0 .4-.5.4-1 0-.6-.5-1-1.1-1-.5 0-.7.4-.4 1zM523.797 23.494c-.1.5-.1 1.6 0 2.5.1 1-.2 1.8-.7 1.8-1.6 0-.1 3.9 2 5.4 1.1.8 2.1 2.5 2.2 3.9 0 1.3 1 3.1 2.2 4 2.1 1.6 2.1 1.5 1.4-2.5l-.8-4 3.4.5 3.3.6-4.9-4.6c-2.7-2.5-4.9-4.8-4.8-5.2.2-2-.4-3.1-1.7-3.1-.8 0-1.6.3-1.6.7zM514.897 24.494c0 1.4 2.3 3.3 4 3.3 1.8 0 2.3-2.6.6-2.7-.6 0-1.9-.4-2.8-.8-1-.4-1.8-.3-1.8.2zM578.397 27.794c.3.5.8 1 1.1 1 .2 0 .4-.5.4-1 0-.6-.5-1-1.1-1-.5 0-.7.4-.4 1zM573.497 31.294c-.3.8-1.5 1.5-2.6 1.5s-2 .7-2 1.5c0 1.4-3 2.1-6.9 1.5-.7-.1-2 .8-2.8 1.9-1.6 2.4-6.1 2.8-6.9.7-.6-1.7-5.4-1.6-7.2.1-.7.7-2 1.3-2.9 1.3-1.3 0-1.3.3-.2 1.6.8 1 2.1 1.3 3.7.9 1.3-.3 3 0 3.8.6 2.2 1.9 8.1 1.2 10.4-1.1 1.2-1.2 3.3-2 5.4-2 1.9 0 3.8-.4 4.1-1 .4-.6 1.6-.3 3.1.7 2.1 1.3 2.5 2.2 2 4.5-.3 1.5-.2 2.8.2 2.8 1.3 0 3.2-3.9 2.6-5.5-.3-.8-.1-1.5.5-1.5.8 0 .6-1-.4-3-.8-1.6-1.5-3.8-1.5-5 0-2.3-1.5-2.7-2.4-.5zM538.397 38.794c-.3.5-.2 1 .4 1 .5 0 1.3-.5 1.6-1 .3-.6.2-1-.4-1-.5 0-1.3.4-1.6 1zM569.897 49.294c0 .8.7 1.5 1.6 1.5.9 0 2.3.8 3 1.7 1.2 1.6 1.3 1.5 1.4-1.1 0-2.1-.4-2.7-1.5-2.3-.8.4-1.7.2-2-.3-.9-1.5-2.5-1.2-2.5.5zM380.397 114.794c-.3.5-2.2 1-4.1 1-1.9 0-3.3.3-3.3.7.1.5.1 2.5 0 4.5-.1 2.7-.6 3.8-1.6 3.8-1.8 0-1.9 1.2-.4 2.7 2.3 2.3 0 8.2-5.2 13.4-2.7 2.7-4.9 5.3-4.9 5.8s-.7 1.7-1.6 2.5c-1.4 1.4-1.3 1.7 1 2.8 2.6 1.1 3.8 3.5 1.4 2.5-.9-.3-1.3.6-1.4 2.8 0 2.3.3 3.2 1.3 2.8.7-.3 1.3 0 1.3.6s-.4 1.1-1 1.1c-1.6 0-5 3.9-4 4.5 1.6 1 1.2 3.5-.5 2.9-.9-.4-1.5 0-1.5.9 0 .8.9 1.7 2 2 1.3.3 2 0 2-.9 0-1.4 2.1-1.9 3.3-.8.3.3.1 1.7-.5 3-.8 1.7-1.4 2.1-2.3 1.4-1-.8-2.1.1-4.4 3.2-1.7 2.3-3.1 4.8-3.1 5.5 0 .7-.7 1.3-1.6 1.3-.9 0-1.8.9-2.1 2.1-.4 1.5-1.2 2-2.9 1.6-1.7-.3-2.5.1-3 1.5-.4 1.5-1.2 1.7-4 1.2-1.9-.3-3.4-.4-3.4-.1 0 .2 1.4 2.1 3 4.2 3.1 3.8 3.9 8 1.8 8.7-.7.3-.5 1.3.7 3.1 1 1.7 1.3 2.7.6 2.7-.8 0-.6 1 .4 3.1.9 1.7 1.4 3.7 1.1 4.6-.3.8-.1 2.3.4 3.4.8 1.4.7 2.5-.5 4.2-.9 1.4-1.2 3.2-.9 4.2.4 1 .1 2.1-.7 2.6-1.1.7-1.1.9.4.9 1.7 0 2.4 2.4 1 3.3-.5.2-.3.2.4.1.7-.2 1.5.1 1.8.6.4.6 1.3.7 2.4.1 1.2-.7 2-.5 2.8.7 1.3 2.2-.3 3.7-3.8 3.7-1.8-.1-3.1.7-4.2 2.7-1.4 2.4-1.4 2.8-.2 2.8.8 0 1.5-.5 1.5-1 0-2 4.8-1.1 5.5 1.1.5 1.4 1 1.7 1.9 1 .9-.7 1.6-.7 2.4.1 1.5 1.5 1.6 3.2.2 2.3-.5-.3-1-.2-1 .3s1.1 1.5 2.5 2.2c1.4.7 2.5 1.9 2.5 2.5 0 1.6 4 5.2 7.2 6.4 1.6.6 3.7 2.5 4.8 4.3 1.1 1.8 2.1 3.2 2.2 3 .7-.9 5.9 2 6.4 3.5.3 1 1.2 3 2 4.6.8 1.5 1.2 3.2.9 3.7-.4.6-.1 1.7.5 2.5.7.8 1 3 .8 5-.2 2.2.1 3.6.9 3.9.7.3 1.3 1.1 1.3 1.9 0 .7.6 2.5 1.3 4 1.8 4 5 3.6 6.6-.8 1-2.9 1.6-3.5 3.3-2.9 1.7.5 1.9.3 1.4-1.4-.5-1.4-.2-2.1.8-2.4 1.3-.3 1.3-.7-.2-3.8-.9-1.9-2.4-4.1-3.4-4.8-1-.7-1.8-2-1.8-2.9 0-1.1-.7-1.4-2.7-.9-1.6.3-2.2.3-1.5 0 1.8-.8 1.5-2.4-.6-2.4-1.6 0-7.9-7.2-8-9.3 0-.4-.6-3.2-1.2-6.3-1.2-5.9-.8-9 1.1-7.8.8.4.9.3.5-.4-.4-.6-1.4-.8-2.3-.5-1 .4-1.4.2-1-.4 1-1.5-3.1-4.9-4.4-3.6-.7.7-.5 1.4.6 2.3.8.7 1.5 1.7 1.5 2.4 0 .6-1.1-.2-2.5-1.7s-3.4-2.7-4.4-2.7c-2.4 0-3.5-2.8-1.9-4.7.8-1 2.2-1.3 4.1-.9 2.9.6 2.9.6 2.2-3.4-.4-2.6-.3-4 .4-4 .6 0 1.1.6 1.1 1.4 0 .7 1 2.1 2.3 2.9 1.7 1.2 1.8 1.6.6 1.6-2.6.1-3.1 3.8-.5 4.5 3.5 1 4.6.7 4.6-1.2 0-1 .7-2.7 1.5-3.9.8-1.2 1.2-2.8.9-3.7-.5-1.2 0-1.6 2-1.6 2.2 0 2.8-.7 4-4.8.8-2.6 1.5-4.1 1.5-3.5.1 1.9 8 1.7 8.7-.2.4-.8 1.2-1.5 2-1.5s1.4-.5 1.4-1.2c0-.6.6-.4 1.3.5 1 1.5 1.2 1.1.9-2.9-.4-4.6-.4-4.6 2.6-4.3 2.2.3 3.6-.3 5-1.9 1.2-1.4 2.3-1.9 2.7-1.2.3.5 2.2 1 4.1 1 1.9 0 3.3-.4 3-.9-.4-.5.6-1.2 2.1-1.6 2.7-.6 4.4-2.7 10.3-12.8 1.2-2.1 1.9-4.1 1.6-4.4-.4-.4.8-1.4 2.6-2.3 2.2-1 4.2-3.2 6-6.7 2.5-4.9 2.5-5.2.8-5.8-1.5-.5-1.6-1.2-1-3.9.4-1.9.4-4-.1-4.7-.5-.8-.9-2.4-.9-3.6 0-2.8-6.1-9-11-11.2-2.1-.9-4.9-3.1-6.4-4.8-2.2-2.6-2.4-3.2-1.1-4.3 2-1.6-.1-4.7-3.7-5.5-3.4-.8-5.8-4-5.8-7.7 0-2.8-.8-3.7-4-4.3-1.1-.2-3.5-1.5-5.3-2.9-1.9-1.4-4-2.6-4.8-2.6-.8 0-3.2-1.8-5.3-4-2.6-2.8-4.6-4-6.5-4-1.5 0-3.6-.7-4.7-1.5-2.2-1.7-4-1.9-4.9-.5zM456.497 176.394c-.3.8-2.1 2.1-3.9 3-2.9 1.4-3.4 2.1-3.3 4.8.1 2 .7 3.2 1.9 3.4.9.2 1.7-.2 1.7-.8 0-.6.5-.8 1.1-.5.5.4 2 .9 3.2 1.1 1.2.2 3.4.6 5 1 2.3.5 2.7.3 2.7-1.4 0-1.2.5-2.4 1-2.7.7-.4.7-1.3 0-2.6-.8-1.5-.7-2.3.5-3.6 1.3-1.2 1.4-1.8.4-2.7-.8-.8-1.3-.8-1.6 0-.2.7-1.7.9-4.3.4-2.9-.5-4-.4-4.4.6zM479.997 176.594c-.1 1.5-.5 2.1-1.3 1.6-.7-.5-.8-.3-.3.5 1 1.8 2.8-.2 2.2-2.5-.4-1.5-.5-1.4-.6.4zM472.897 177.094c0 1.9 1 2.7 2.6 2 1.1-.4 1.2-.9.3-1.9-1.5-1.8-2.9-1.8-2.9-.1z"/><path d="M466.897 180.794c0 .6.7 2.4 1.4 3.9 1.7 3.1 1.1 7.1-1 7.1-1.6 0-1.8.9-.5 2.8.6 1 1 1 2.1-.3 1.6-1.9 4-2 4 0 0 .8.8 1.5 1.7 1.5.9 0 1.4-.3 1.1-.6-.4-.3-.2-1.9.3-3.6.9-3.3-1-6.3-4-6.3-.9 0-1.6-.8-1.6-2 0-1.9-1.2-3.5-2.7-3.5-.5 0-.8.5-.8 1zM460.897 192.894c0 .5.5.7 1 .4.6-.3 1-.8 1-1.1 0-.2-.4-.4-1-.4-.5 0-1 .5-1 1.1zM298.097 219.994c-.7.7-1.2 1.8-1.2 2.5 0 2-4.1 1.5-6.6-.8-2.1-1.9-2.2-2-1.8-.3.6 2.4-3 6.4-5.9 6.4-2.7.1-6.1 4.5-5.2 6.8.5 1.2.8 1.3 1.4.4.6-1 1-1 2 .1.9 1.1.8 1.7-.1 2.4-2.3 1.9-5.9 2.5-7.3 1.3-2.8-2.3-3.7 4.3-1.1 8.2 1.5 2.2 2.4 2.7 4.6 2.3 2.2-.4 3-.1 3.4 1.3.5 1.4 1.4 1.7 4.1 1.4 2.7-.3 3.5-.1 3.5 1.2 0 .9-.4 1.6-1 1.6-.5 0-1 .9-1 2.1 0 1.9.4 2.1 4.3 1.5 7.8-1.2 10.7-1.3 10.7-.4 0 .4-.5.8-1.1.8-.7 0 .5 1.1 2.5 2.5s4.1 2.5 4.5 2.5c.5 0 1.4 2 2 4.4 1.2 4.8 2.2 5.8 6.1 6.2 1.4.2 3.4 1.5 4.5 2.9 1.2 1.4 2.8 2.5 3.8 2.5 1.9 0 2.2 1.1.6 2.7-.8.8-.8 1.7.1 3.2.6 1.2 1.2 3.8 1.4 5.8.2 2.4 1 4.1 2.7 5.3 1.3 1 2.6 1.8 2.9 1.7.3 0 1.5.5 2.8 1.2 2.2 1.2 2.3 1.4.7 3.1-1.5 1.7-1.5 1.9.4 2.5 1.2.3 2.8 1.9 3.6 3.4.7 1.5 3 4 5 5.6 2.1 1.5 4.5 4.4 5.4 6.4.9 2 3.1 5.1 4.8 7 1.8 1.9 4.1 5.3 5.1 7.5 6.7 14.3 7.2 15.1 10.4 16.6 2.9 1.3 3.1 1.5 1.1 1.8-1.4.2-2 .8-1.6 1.8.3.7.9 1.1 1.4.9 1.1-.7 6.8 5.5 6.9 7.4 0 .8-.6 1.1-1.5.7-.9-.3-1.5 0-1.5 1 0 1.3-.4 1.2-2.5-.3-1.3-1-2.5-2.5-2.5-3.3 0-.8-1.2-2.8-2.6-4.4-2.3-2.4-2.8-2.6-3.6-1.2-1.1 2-2.8 2.1-2.8.2 0-1.5-2.1-2.6-5.1-2.6-1.2 0-2.3-1-3-2.6-.9-2.6-1-2.6-2.9-.9-2 1.8-2 1.8 0 4 1.1 1.2 2 2.9 2 3.8 0 .9.7 1.7 1.5 1.7s1.5.6 1.5 1.4c0 .9.7 1.2 2 .9 1.2-.3 2-.2 1.9.3-.3 2.1.2 3.3 2.9 6.1 2.7 3 2.8 3 9.6 2.2 3.8-.5 7.3-.6 7.8-.2.6.3 1.4 0 1.8-.7.5-.8 1.6.6 3 3.8 1.5 3.4 3 5.2 4.3 5.4 1.9.3 2 .4.4 2-1 .9-1.7 3.2-1.7 5.1 0 2-.6 3.8-1.2 4-.8.3-.6.6.5.6.9.1 1.7.8 1.7 1.6 0 1.6.9 1.9 2.6.7.8-.5 1-3.6.7-10-.5-7.7-.9-9.4-2.5-10.3-1-.5-2.2-.8-2.7-.5-.8.5-2.2-6.4-1.5-7.3.2-.2 1.4.9 2.6 2.4 1.3 1.5 3.1 3.5 4 4.5.9 1 2.1 2.8 2.8 3.9.8 1.6 2 2.1 5.1 2.1 2.2 0 4.8.4 5.7.9 2.3 1.2 7.2.2 7.2-1.5 0-2.3 3.3-5.4 5.7-5.4 2.1 0 4.8-1.9 5.5-4 .2-.6 1.8-.3 4.1.9l3.8 1.9 2.4-2.4c1.8-1.8 3.1-2.3 5-1.8 2 .5 2.5.3 2.5-1.4 0-2.4 2.1-3.5 8-3.7 8.7-.5 15.2-4.7 9.2-6.1-1.5-.3-3.5-.8-4.4-1.1-1.3-.3-1.8.1-1.8 1.6 0 4.8-4.5 3.1-13-4.8-3-2.9-6-4.9-6.6-4.7-.7.3-2-.4-3-1.5-2.3-2.5-5.4-2.5-6.1.2-.3 1.1-1.1 1.8-1.8 1.5-1-.4-1 .2.1 2.2 1.2 2.3 1.2 2.8 0 3.7-1.2.9-1.2 1.4 0 3.5 1.9 3.6 1.7 4.3-1.9 6.1-2.8 1.4-3.9 1.5-7 .4-2.4-.8-3.9-.9-4.6-.2-.7.7-1.2.4-1.6-.9-.4-1-1.2-3.5-1.9-5.4-1.6-4.6-1-6.9 1.4-6.3 1.5.4 2-.2 2.5-3.1.8-4.3.2-6.4-2.2-7.3-1-.4-2.8-1.7-4.1-3-1.2-1.3-2.6-2.1-3.2-1.8-.5.3-1.8.1-2.8-.4-1.3-.7-2.2-.7-3 .1-.9.9-2.1.9-4.7-.1-1.9-.7-4-.9-4.6-.6-.5.4-1.9-.1-3-1.1-1.6-1.4-2.2-1.5-2.8-.5-1.2 1.9-12.8-.5-14.1-3-.6-1-1.9-2.1-3-2.4-2.4-.8-2.5-1.8-.5-3.8 1.3-1.3 1.2-1.6-.3-2.3-.9-.4-2.3-.8-3.1-.8-.8-.1-2.1-1.6-3-3.3-1.2-2.4-2.3-3.3-4.1-3.3-3.1 0-7.3-2.7-6.4-4.1.3-.6-.8-2.8-2.6-5s-2.9-4.3-2.6-4.6c.3-.3.1-1.2-.6-2-.9-1.1-.8-1.8.4-3 1.4-1.3 1.4-1.9.2-4.9-.8-1.9-1.1-3.4-.7-3.4.4 0 .2-.5-.5-1.2s-1.2-2.2-1.2-3.4c0-1.2-.7-2.7-1.5-3.4-.8-.7-1.5-1-1.5-.6s-1.2 0-2.6-.7c-2.2-1.1-2.7-2.2-2.8-5.3-.1-2.1.4-4.7 1.2-5.6.9-1.1 1.2-2.8.9-4.7-.5-2.5 0-3.7 2.8-6.7 2.3-2.4 3.5-4.6 3.5-6.5 0-1.6.4-2.9.9-2.9 1.3 0 4.3-8.6 3.9-11.2-.2-1.3-1.2-3-2.4-3.8-7.2-5.2-9-6-11.7-5.4-2 .4-2.7.2-2.5-.7.2-.8-.7-1.5-2-1.7-1.3-.2-2.6-1-2.9-1.8-.4-1-1-1.1-2.5-.3-2.1 1.1-12.2.8-14.8-.4-.9-.4-2.1-.2-2.8.5zM382.497 247.994c-.9 3.7-.6 4.4.9 2.4.8-1.1 1.5-1.6 1.5-1 0 .5.4.2.9-.6 1.1-1.7.5-3-1.3-3-.8 0-1.6 1-2 2.2zM478.897 345.794c0 .5-.9 1-2 1-2.7 0-10 3-10 4.1 0 .5-.8.9-1.9.9-2.6 0-3.4 3.8-1.1 5 2.6 1.4 5.8 1.2 6.2-.2.4-1 1.1-1 2.9-.2 3.6 1.7 10.3-2 9.6-5.2-.2-1.3 0-2.4.5-2.4 1 0 3.8-2.5 3.8-3.4 0-.3-1.8-.6-4-.6s-4 .4-4 1zM521.897 345.794c0 .6-.7 1-1.6.8-1-.2-2 1-3 3.7-1.6 4.7-1.6 4.6-.6 4.3.4-.1 1.6.3 2.7.8 1.1.6 3.1 1.4 4.5 1.7 2.4.6 2.5.5 2.4-4.4 0-3.9-.5-5.3-2.2-6.5-1.3-.9-2.2-1.1-2.2-.4zM493.197 351.494c-5.3.5-6 2.4-2.3 6.5 1.7 1.8 3 3.6 3 4 0 .3.8 1.4 1.7 2.3 1.6 1.6 1.7 1.6 2.5-.4.6-1.8 1.1-2 2.8-1.1 1.4.8 2 .8 2 0 0-.7.8-.9 1.9-.5 1.1.3 2.2.1 2.6-.4.4-.7 1.2-.7 2.5.1 1.5 1 2.2 1 3.2 0 .9-.9.9-1.2 0-1.2-.7 0-1.2-.5-1.2-1.1 0-.8.4-.8 1.5.1 1.8 1.5 5.5.4 5.5-1.6 0-1-.8-1.4-2.2-1.3-1.3.2-4.2-.9-6.5-2.5-4.3-2.9-8.7-3.6-17-2.9zM528.597 360.294c.3.8.9 1.2 1.4.9 1.2-.7 1.1-1.1-.5-1.7-1-.4-1.3-.1-.9.8zM533.297 359.994c-.3.4.6.8 2 .8s2.6-.4 2.6-.8-.9-.8-2.1-.8c-1.1 0-2.3.4-2.5.8zM522.897 361.594c0 1-.5 2.3-1 2.8-.8.8-.6 1.5.4 2.3 1 .8 1.6.9 2.1.1.3-.5 1.6-1 2.9-1 1.2 0 2.7-.5 3.4-1.2.8-.8.3-1.6-2.3-3-4.4-2.3-5.5-2.3-5.5 0z"/><path d="M517.297 361.894c-.3.6-.1 1.6.5 2.2.8.8 1.1.8 1.1-.1 0-.7.7-.9 1.8-.5 1.6.6 1.6.6 0-1-1.9-2-2.4-2.1-3.4-.6zM408.897 380.894c0 .5-.8.9-1.7.8-3.5-.3-4.3.1-4.3 2.2 0 1.9-.2 2-1.7.8-1.3-1.1-1.7-1.1-2-.1-.3.6-1 .9-1.6.5-.6-.4-.8 0-.4 1s.2 1.7-.4 1.7c-.7 0-.9 1-.5 2.3.5 2-.1 2.6-3 4-1.9 1-3.9 1.5-4.4 1.2-2-1.2-4.1.8-3.6 3.6.2 1.6 0 3.1-.5 3.5-2.1 1.3-.9 5.5 2.1 7.2 3.2 1.8 3.9 3.2 1.5 3.2-1.9 0-1.9 2.4-.1 3.9 1.1 1 2.1.9 4.5-.3 1.6-.9 3.7-1.6 4.6-1.6.8 0 1.5-.5 1.5-1 0-.6 1.1-.8 2.5-.4 1.9.5 2.4.3 2-.7-.5-1.4 2.5-3.1 7.7-4.3 3.1-.7 7.6-8 5.7-9.1-.5-.4-.8-2.9-.6-5.8.2-4-.1-5.5-1.6-7-1-1-1.7-2.7-1.4-3.7.3-1.1-.1-2.1-1-2.4-2.2-.9-3.3-.7-3.3.5zM380.497 391.294c.4.8.8 1.5 1 1.5.2 0 .4-.7.4-1.5s-.4-1.5-1-1.5c-.5 0-.7.7-.4 1.5zM363.997 404.494c-1.2 5.4-1.1 6.6.4 10.6 1.2 3.3 1.4 5 .7 6.3-.8 1.4-.5 2.8.8 5.5 1.1 2 1.7 3.9 1.4 4.2-1.2 1.2.8 4.6 2.9 4.9 1.9.3 2.2.9 2.1 4.4-.1 4.7-2.2 10.6-3.5 9.8-.5-.3-.9 0-.9.6 0 .7-.9 2.3-2 3.7-2.5 3.2-2.6 5.3-.1 5.3 1 0 2.3.6 2.8 1.2 1.3 1.7.1 12.1-1.6 14.2-.8 1-1.1 2.8-.7 4.6.5 2.5.2 3.2-1.6 3.9-1.4.5-1.7 1-1 1.5.6.4.9 1.9.6 3.5-.3 1.5.1 4.3.9 6.2 1.2 2.9 1.2 3.6.1 4.7-1.6 1.5-1.9 6.8-.4 7.7.5.3 2.2 0 3.7-.7 2.1-1 2.7-2 2.6-3.8-.2-1.9.7-3.2 3.3-5 2-1.4 4.3-3.3 5.2-4.3.9-.9 2.4-1.7 3.4-1.7s1.8-.5 1.8-1c0-.6.6-1 1.4-1 1.8 0 2.9-4.2 1.3-5.2-.9-.6-.7-1.2.7-2.3 1.2-.9 1.6-2 1.2-3.2-.9-2.2 2.2-8.1 4.6-8.9 1.1-.3 1.8-1.5 1.8-3 0-1.3.6-2.4 1.3-2.4 1.8 0 1.4-14.1-.6-21.4-1.2-4.4-1.4-6.3-.6-7.3 1.3-1.4 1.3-1.4-5.3-1.6-3-.1-4.3.2-3.7.7.5.6.9 1.7.9 2.5-.1 1.2-.6 1-2-.8-2.2-2.5-2.6-4.7-1-5.3.6-.2.2-2-1-4.3-2.3-4.6-2.5-6.4-.7-7.1.8-.3 1.4-1.1 1.4-1.9 0-.8-.6-1.5-1.4-1.5-.7 0-1.3-1.1-1.3-2.4 0-1.3-.7-2.9-1.5-3.6-1.2-1-1.7-.7-2.6 1.4-1.3 2.8-2.8 3.3-4.7 1.4-1.4-1.4-1.6-3.2-.2-2.3.5.3.7 0 .4-.9-.3-.8-1.8-1.9-3.4-2.5-2.3-.8-3-1.8-3.7-5.3l-.9-4.3-1.3 6.2zM362.297 510.294c-.8 2.1.4 4.8 1.7 3.9.6-.3 1.4-.2 1.8.4.4.7 1.1.4 1.9-.8.7-1.2.8-2 .2-2-.5 0-1-.7-1-1.5s-.9-1.5-2-1.5-2.3.7-2.6 1.5zM365.297 519.194c-1 .6-2 1.2-2.2 1.3-.2 0 .4 1.5 1.3 3.2 1.3 2.7 1.3 3.1.1 3.1-.8 0-1.7.9-2.1 1.9-.3 1-1.5 2.1-2.5 2.4-1.5.4-2 1.4-2 3.7 0 2.3-.5 3.3-2 3.7-1.1.3-2 1.2-2 1.9 0 .8-.4 2.2-.9 3.2-.5.9-1.2 2.4-1.5 3.3-.3 1-2.5 2.2-5.8 2.9-5.6 1.4-9.5 5-9 8.2.2 1-.4 2.1-1.2 2.4-.9.3-1.6 1.5-1.6 2.6 0 1.7-.5 1.9-3 1.3-3.5-.8-3.8.5-1.6 6.8 1.3 3.4 1.2 3.9-.6 5.1-1.2.9-1.8 2.3-1.6 3.8.2 1.7-.1 2.2-1.4 2-2-.3-2.3 1-.7 3.9.8 1.5.7 2.4-.2 3.5-1 1.3-1.4 1.3-2.9-.1-2.1-1.9-3-1.9-3 0 0 .8-.7 1.5-1.6 1.5-1.1 0-1.4.6-.9 2.1.6 1.9.4 2.1-1.4 1.6-1.6-.4-2.1-.1-2.1 1.4 0 1-.4 1.9-1 1.9-.5 0-1 1.4-1 3 0 1.7-1.1 5.7-2.5 9-2.9 7-2.9 7-1 7 .8 0 1.5.6 1.5 1.4 0 .8.8 2.9 1.8 4.6 1.3 2.5 1.4 3.4.4 3.7-.6.3-1 .8-.7 1.3.3.4-.2 2.4-1 4.4-1.9 4.5-1.3 5.6 2.9 5.6 2.2 0 4 .8 5.6 2.5 1.3 1.4 3 2.5 3.7 2.5.8 0 1.6.7 1.9 1.5.3.8 1.4 1.7 2.4 2 1.2.4 1.9 2 2.4 5.6.6 4.1 1.1 5.2 3.1 5.9 1.4.5 2.5 1.7 2.5 2.7 0 1 .9 2.9 2 4.3s2 3.1 2 3.7c0 .7 1.1 2 2.5 2.9 1.9 1.2 2.3 2 1.5 2.9-.7.9-.5 1.9 1 3.6 1.1 1.4 1.9 1.8 2 1.1 0-.7.5-1 1.1-.6.6.3 1.5 0 2-.7.7-1.2 1.6-1 4.9.8 3.9 2.1 4 2.1 7.5.3 1.9-1 6-2.1 9.2-2.5 3.5-.4 6.2-1.3 6.9-2.3 1.1-1.5 1.7-1.5 4.5-.5 2.8 1.1 3.4 1 4.5-.5.9-1.1 1.6-1.3 2.1-.6 4.2 5.8 6.8 8.4 8.3 8.4 1 0 2.3.7 3 1.5 1.4 1.7 4.6 2 5.5.5.3-.6 1.9-1 3.4-1s3.2-.5 3.8-1.1c1.8-1.8 7.2-1.4 8.7.7 1.9 2.6 8.5 2.1 10.9-.8 1.5-1.8 2-2 2.8-.7.5.7.9 2 .9 2.6 0 1.5 2.2 1.7 3.5.4.6-.5 3.1-1.1 5.8-1.3 3.5-.2 4.8.1 5.2 1.2.7 2.1 4.3 4.2 5.8 3.3.7-.4 2.7-.9 4.6-1 2.5-.1 3.4.3 3.8 1.6.5 2.1 3.4 2.1 11.5.1 3.1-.8 4.9-1.8 5.3-3.1.4-1 1.3-1.9 2.1-1.9s1.4-.6 1.4-1.4c0-1.1.9-1.4 3.3-1 2.3.3 3.9-.2 5.9-1.8l2.7-2.3-2.9-4.5c-1.6-2.5-3.4-5-3.9-5.5-2.8-3-6.1-5.5-8.6-6.7-3.1-1.4-7.9-10.6-6.9-13.3.4-.8.2-1.5-.4-1.5-.5 0-1.5-1.3-2.2-3-.7-1.6-2.1-3.2-3.1-3.5-2.9-1-5.9-4.6-5.9-7.2 0-1.3-.4-2.3-.9-2.3s-1.3-.9-1.6-2c-.3-1.1-1.3-2-2.1-2s-2.2-.4-3.2-.9c-.9-.5-2.5-1.2-3.4-1.5-1-.3-1.9-2-2.3-4.3-.9-5.6-1.8-6.7-6-7.4-3.8-.6-5.5-2.1-5.5-5 0-.9-.9-1.9-2-2.2-1.1-.3-1.9-.9-1.8-1.4.5-1.9-2.4-5.4-4.1-4.8-1 .3-3.9-.6-6.4-2-2.6-1.3-5.4-2.2-6.3-1.8-1 .4-2.2 0-2.8-.8-1.5-2.1-4.2-2.9-5.4-1.7-.6.6-2.1-.8-4.5-4.3-2.5-3.8-3.2-5.6-2.4-6.1.7-.4.8-.8.2-.8-3-.1-3.5-1.6-2.5-7 .9-4.6.8-5.6-.7-7.3-1.4-1.5-1.5-2.1-.5-2.4 1-.4 1-.8.1-1.9-.7-.8-.9-1.7-.5-2.1.3-.4-.4-1.7-1.6-3l-2.1-2.3h2.2c1.8 0 2.2-.4 1.7-1.7-.4-.9-.2-1.9.3-2.2 1.3-.8 2.2-12.9 1-13.7-.5-.3-.6-1.1-.3-1.7.4-.7.4-.9 0-.5-.4.3-1.9 0-3.4-.8-1.7-.9-3-1-3.8-.3-.8.7-1.8.2-3.2-1.6-1.1-1.4-2.7-2.5-3.6-2.5-.9 0-1.6-.5-1.6-1.1 0-.5-2.2-1.9-5-3.1-2.7-1.1-4.8-2.3-4.6-2.7.9-1.3-6-2.7-8-1.7zm24.6 29.2c0 .2-.7.4-1.5.4s-1.5-.4-1.5-1c0-.5.7-.7 1.5-.4.8.4 1.5.8 1.5 1zM182.697 545.394c.2 1.4-.3 2.9-1.7 4-1.5 1.3-1.8 2.1-.9 3.1 1 1.3-.4 1.8-3.8 1.4-.6-.1-1.4 1.8-1.8 4.1-.6 3.6-.4 4.5 1.8 6.5 2.1 1.9 2.4 2.9 1.9 5.6-.3 1.7-1.5 3.8-2.5 4.6-1.1.7-1.7 2-1.3 2.8.3.9.1 2.1-.4 2.7-.5.6-.9 1.3-1 1.6 0 .3-.3 1.3-.7 2.3-.3 1-.4 3.3-.1 5.1.6 3.6 0 4.9-2.4 5.8-1.2.5-1.5 1.4-1.2 3.2.4 2.1.2 2.6-1.6 2.6-1.3 0-2.6 1.1-3.6 2.9-.8 1.6-1.8 3.1-2.2 3.3-.5.1-1.8 2.1-3 4.3-1.7 3.2-2.8 4.1-5.4 4.3-2.1.2-3.3 1-3.6 2.3-.4 1.4-1.1 1.7-2.8 1.3-1.3-.3-2.6-.1-2.9.5-.9 1.4-7.6 1.4-9.6.1-1.1-.7-1.6-.4-2 1.3-.4 1.3-1.5 2.3-2.8 2.5-1.7.3-2.2 1-2.2 3.3 0 1.6-.4 2.9-1 2.9-.5 0-1 .7-1 1.6 0 .8-.3 1.3-.7 1.1-.5-.3-1.4.1-2.1.9-1.5 1.6-.8 1.8 1.7.4 2.8-1.5 5.4.9 4.6 4.3-.4 1.5-1.3 2.7-2.1 2.7s-1.4.6-1.4 1.2c0 .7-1.3-.2-2.9-2-2.8-3.2-2.9-3.2-3.6-1-.4 1.3-.6 2.9-.6 3.5.1.8-1 1.3-2.8 1.3-2.9 0-3 .2-2.1 2.6 1.4 3.5 1.3 4.4-.6 4.4-1.4 0-1.4.3-.3 1.6 1 1.2 1 1.7 0 2.3-.9.6-.7 1.4.7 3.2 1.5 1.7 1.8 2.9 1.1 4.6-.9 2.4-.7 2.5 3.6 2.7 1.4.1 1.9.8 2 2.9 0 1.5.6 3.2 1.4 3.6 1.1.7 1 1.6-.8 5.3-1.1 2.4-2.1 5-2.1 5.6 0 .7-.4 1.2-1 1.2-.5 0-1 .8-1 1.7 0 1-1.1 2.3-2.4 2.9-2 .9-2.6.7-4.4-1.6-2-2.5-5.2-3.6-5.2-1.8 0 .4-.6.8-1.3.8-.7 0-1.8.9-2.5 2.1-.7 1.1-1.9 1.8-2.7 1.5-.8-.3-1.7-.1-2 .3-.8 1.3-5.3 1.9-6.3.9-.6-.6-2.4-.3-4.8.8-2.1 1-4.9 1.7-6.1 1.6-1.3-.2-2.3 0-2.3.5 0 1.4-6 .9-7-.7-.7-1.1-.4-1.6 1.2-2l2.2-.6-2.2-2.2c-1.2-1.2-2.8-1.9-3.7-1.6-.9.4-1.9-.4-2.7-2.3-1.6-3.5-2.9-4.5-4.4-3.2-1.4 1.1-6.8-.6-10.9-3.6-3.3-2.4-7.3-4-12.3-5-1.8-.4-3.6-1.3-3.8-2-.7-1.8-6.4-1.3-7.9.8-.7.9-1.9 1.5-2.7 1.2-.8-.3-2.1.1-2.8 1-1 1.2-1.6 1.3-2.8.3-1.3-1.1-1.5-1-.9.4 1 2.7-1.6 2.2-4.3-.7-2.8-3-4.4-3.1-7-.5-1.2 1.2-2.6 1.8-3.2 1.4-.8-.5-.9-.1-.4 1.2.4 1 .9 2.3 1 2.9.4 2.1 1.8 3.5 3.5 3.5 1 0 2.5.8 3.4 1.8 2.2 2.4 2.3 7.2.1 7.2-1.6 0-1.5 2.4.2 2.6.5 0 2.2.4 3.7.9 3.5.9 11.7-1.2 11.7-3.1 0-.8 1-1.4 2.4-1.4 1.9 0 2.5.6 2.8 2.7.2 2.1 1.1 3 3.5 3.8 3.5 1.2 8.3 5.2 8.3 7 0 .7 1.1 1.7 2.5 2.3 1.4.6 2.5 1.8 2.5 2.5 0 2.9 2.2 3.7 4.8 1.7 3.4-2.7 3.8-2.6 7.1 2 1.5 2.1 3.1 3.6 3.5 3.3.4-.4 2.3-.6 4.4-.5 2 .1 6.1-.2 9-.7 4.4-.7 5.5-.5 6.5.9 1.5 2 4.7 3.3 4.7 1.9 0-2.1 1.9.2 2.5 3.2.7 3.1 3.5 9.1 3.5 7.5 0-3.3 7.5 7.9 8.5 12.8.3 1 1.2 3 2.2 4.3 1 1.4 2.5 3.6 3.3 4.8.8 1.2 2.9 3.6 4.5 5.2 6.7 6.6 7.7 8.2 7.3 11.3-.2 1.9.3 3.4 1.1 3.9s1.1 1.6.8 2.4c-.4 1.1.1 1.8 1.6 2.3 1.1.4 2.7 1.3 3.4 2 .8.7 3 1.6 5.1 2 4.3.8 8.1 4.7 8.2 8.5 0 5.4 1.2 9 2.7 8.5 1.1-.5 1.3-.1.7 1.7-.4 1.2-1.1 2.5-1.6 2.8-1.2.8.6 5 3.1 7.1 1.2 1 2.1 1.5 2.1 1.2 0-.4.7-.1 1.6.7.8.7 1.3 2.1 1.1 3-.3 1-.1 1.9.3 2.1.5.2-.1 3.3-1.3 7-1.5 4.8-2.6 6.6-3.6 6.3-.9-.3-1.1 0-.7 1 .3.9-.3 1.9-1.4 2.5-2.2 1.2-3.3 1.3-2.7.2.3-.4-.1-1.3-.9-2-1.2-1.1-1.3-.7-.8 2.7.5 3.4.4 4.1-1 4.1s-1.5.4-.6 2c.6 1.1.7 2.6.3 3.3-.4.6-.6 2.2-.4 3.4.2 1.8-.3 2.3-1.8 2.3-1.2 0-2.1.4-2.1 1 0 .5-.7 1-1.6 1-1.3 0-1.4.3-.5 1.4 1.7 2-.7 5.9-3.1 5.2-1.3-.3-1.8.2-1.8 1.7 0 2.9-8 10.2-12 11-1.8.4-3.8 1.5-4.5 2.4-1.1 1.5-1.5 1.5-4.1-.6-2.4-1.9-2.9-2-3.6-.6-.5.8-1.6 1.5-2.4 1.5-.8 0-1.2.5-.8 1.1.9 1.5-1.6 5.8-3.1 5.3-.7-.3-1.5.4-1.8 1.5-.3 1.2-1.2 2.1-2.1 2.1-1.8 0-2.1 1.5-.6 2.5.8.5.8 1.1 0 2-1.2 1.4.6 2.5 4.1 2.5 1 0 1.9.6 1.9 1.3 0 .7.6 1.9 1.2 2.5.7.7 1.3 2 1.3 2.9 0 2.3 4.6 3.4 6.7 1.6 1.2-1.1 2.1-1.2 3.7-.4 1.1.6 3.1 1.1 4.4 1.1 2.8 0 7 4 4.9 4.7-1 .4-1 .9.3 2.3 1.8 2 3.7 12.3 2.9 15.7-.4 1.4-.2 2.3.5 2.3 2 0 1.1 2.6-1.8 5.4-2.7 2.6-2.9 3-1.6 5 1.3 2 1.2 2.4-.5 3.9-2.4 2-4 2.2-4 .4 0-.6-1.3.3-2.8 2-1.5 1.8-3.7 3.3-4.9 3.3-2.2 0-3.3 1.6-2.6 3.7.3.7.9 1.3 1.5 1.3s.8-.7.4-1.5c-.8-2.3 1-1.8 2.6.7 1.3 2 1.7 2.1 3.2.9 1.4-1.2 1.9-1 3.9 1.5 1.2 1.6 3.1 3.8 4.3 4.9 1.1 1.1 2.6 3.4 3.3 5.2 1.3 3.3 6.7 6.1 9.5 5 2.7-1.1 9.6 9.8 8 12.5-.3.4.2 1.1 1 1.4.9.3 1.6 1.4 1.6 2.4 0 2.2 2.9 4.8 3.8 3.3.4-.5 1.7-1.5 2.9-2.2 2-1 2.5-.8 4.4 1.8 1.2 1.7 2.7 2.7 3.5 2.4.8-.3 2-.1 2.7.5.6.5 4.3 1.2 8.2 1.6 3.8.4 7.4 1.1 8.1 1.7.6.5 1.9.7 2.7.3 1.5-.5 1.5-.8 0-3-1.3-2.1-1.3-2.4 0-2.4.8 0 1.7-.7 2.1-1.5.3-1-.1-1.5-1.1-1.5-1.3 0-1.4-.3-.6-1.1.6-.6.9-1.8.6-2.5-.4-1 0-1.2 1.1-.8 2 .7 5.6-2.2 5.6-4.5 0-1.1.3-1.2 1.1-.4.6.6 1.9.9 2.8.5 1.4-.5 1.4-.3.3 1-1 1.3-1 1.8-.1 2.4.8.4.9.3.5-.4s-.3-1.2.2-1.2 1.4 1.1 2 2.5c1.4 3.1 4.6 2.4 3.6-.8-.5-1.7-.3-1.9 1.2-1.2 3.7 1.5 6.6 1.4 6-.1-.6-1.7 1-1.9 2-.2.5.8 1.1.6 1.9-.5 1.1-1.5 1.3-1.5 2.9.2 1.2 1.3 1.4 2.1.6 2.6-.5.3-.8 1-.6 1.4.3.4.8 2.3 1.1 4.1.4 2.5.1 3.8-1.5 5.5-1.7 1.8-1.9 2.7-1.1 4.8 1 2.6.7 3.1-1.3 2.8-.4-.1-1.4.3-2.2.9-.7.7-2.3.9-3.4.5-2.1-.7-2.1-.6-.5 1.9 1 1.4 2 2.6 2.4 2.6 1.9 0 7.1 6.2 7.1 8.5 0 1.4.7 2.8 1.5 3.1.8.4 1.5 1 1.5 1.6 0 .5-.4.6-1 .3-.5-.3-1 .1-1 1 0 .8-.8 1.8-1.7 2.2-1.8.6-6.2 5.2-6.3 6.5 0 1.5 3.5 4.8 5.2 4.8 1.3 0 1.8.8 1.8 3 0 1.6.3 2.9.8 2.9.4-.1 1.4-.1 2.2 0 1.3.1 1.3.2 0 1.1-1.2.8-1.3 1.3-.2 3 .6 1.1 1.2 2.9 1.2 4s.4 2 .9 2 2.2 1.3 3.8 3c2.1 2.3 3.7 3 6.5 3 2 0 4-.5 4.3-1 .4-.6 1-.8 1.4-.6.4.3 1.6-1.5 2.7-4 1-2.4 2.2-4.4 2.5-4.4.4 0 .9-.9 1.2-2 .3-1.1 1.7-2.2 3.3-2.6 1.6-.4 3.2-1.2 3.6-1.8.5-.8 1.7-.6 3.7.6 2.5 1.4 3 1.4 3.5.2.3-.8 1.2-1.4 2.1-1.4.8 0 1.5-.5 1.5-1 0-.7 1.3-.8 3.3-.5 2.4.5 3.9.2 5-.9.8-.9 2.1-1.6 2.7-1.6.6 0 2.2-.7 3.5-1.6 2.4-1.6 2.6-1.5 5.7 1.5 3.5 3.4 4.8 3.9 4.8 1.6 0-1.8 3.6-2 7.5-.5 2 .8 3.2.6 4.8-.5 1.2-.8 3.2-1.5 4.4-1.5 1.8 0 2.3-.6 2.3-2.5 0-1.5.6-2.5 1.4-2.5.8 0 1.6-.7 2-1.5.5-1.3 1.1-1.3 4.3.5 4.2 2.2 7.8 2.7 6.7.9-.4-.7.7-.4 2.4.6s3.3 2.6 3.5 3.6c.3 1.2 1.1 1.6 2.6 1.2 1.7-.4 2-.2 1.5 1.1-.4 1-.1 1.6.9 1.6.9 0 2.2.3 3 .6 1 .3 1.8-.2 2.2-1.5.3-1.2 1.3-2.1 2-2.1.9 0 1.2-.6.9-1.5-.5-1.3-.2-1.4 2.1-.5 1.5.6 3.1.7 3.7.4 2.8-1.7 8.7-1.5 12.3.5 2.4 1.3 4.3 1.7 4.9 1.1 1.9-1.5 9.4 1.1 10 3.4.5 1.9 1.1 2.1 6.8 1.8 4.2-.3 6.6-.9 7.1-1.9.7-1.1 1.2-1.2 2.3-.2 1.1.9 2.1.9 4.4-.1 1.7-.7 5-1 7.4-.8 2.5.3 4.9.1 5.4-.4.6-.6 1.8-.8 2.8-.6 1.9.3 5.4-2.4 5.4-4.2 0-.6.8-1 1.8-1 1.5 0 1.8-.6 1.4-3-.2-1.7 0-3 .6-3 1.3 0 2.1-4.5 1.1-6.2-.7-1-.9-1-.9-.1 0 2.2-4 1.4-6.5-1.3-2.4-2.6-4.5-2.5-4.5.2 0 .8-.4 1.3-.9.9-.5-.3-1.2-.1-1.6.5-1 1.6-4.1-1-4-3.5 0-1.3.3-2.6.6-2.9.3-.4.4-1.7.1-3.1-.4-2.5-5.6-5-8.3-4-1.8.6-3-.3-5.2-3.8-1.5-2.3-2.1-2.6-3.7-1.7-1.4.8-2.6.7-4.1-.1-1.2-.6-3.3-.9-4.8-.6-2.9.6-6.1-1.2-6.1-3.6 0-1.6-8.8-9.7-10.6-9.7-.6 0-2.4-1.5-4.1-3.4-2-2.3-4.3-3.7-6.8-4.2-2-.3-5.7-1.8-8.2-3.3-8.1-4.8-8.8-5-10.8-4.5-1.6.4-2.5-.5-4.5-4.3-1.7-3.3-3.2-4.9-4.8-5.1-1.5-.2-2.7-1.4-3.3-3.1-1.3-3.6-4.9-5.5-8.9-4.8-2.3.5-3.7.2-5.2-1.3-3.7-3.4-7.6-10.2-4.9-8.6.5.3 1.2-.1 1.5-1 1-2.6.7-3.6-.9-3-.8.3-1.9-.3-2.5-1.3-1-2 .3-3.1 4.1-3.1 1 0 1.9-.5 1.9-1 0-.6.7-1 1.6-1 1 0 1.4-.5 1-1.5-.3-.8-.2-2.5.3-3.8.6-1.4.5-3-.1-4.1-.6-1.1-.6-2.1.1-3 .8-1 .7-1.7-.4-2.6-.8-.7-1.5-1.8-1.5-2.5s-1.3-2.9-3-5c-3.1-3.9-4.1-9.5-1.7-9.5.6 0-.3-.8-2-1.6-1.8-.9-3.3-1.9-3.3-2.3 0-.3-.7-1.5-1.6-2.6-1.2-1.6-1.6-1.7-2.3-.6-.7 1.1-1.3 1.1-3.2-.3-2.3-1.6-2.3-1.6-.2-1.6 2.9 0 5.2-2.8 3.2-4.1-.8-.5-1.7-.9-2.1-.9-.5 0-.8-.9-.8-1.9 0-1.1-.4-2.3-1-2.6-.5-.3-1-1.7-1-3.1 0-1.4-.4-3.3-.9-4.2-.5-1-.6-3.6-.1-6 .4-2.3.4-4.2 0-4.2-.5 0-.6-.9-.3-2 .5-2-1-4.2-3.9-5.3-1-.3-2-1.9-2.4-3.4-.4-1.5-1.2-3.5-2-4.3-2.6-3.1-4.7-10-4.1-14.1.3-2.5-.4-8.6-1.8-15.5-1.3-6.3-2.2-12.1-1.9-12.8.3-.8-.1-2.7-.9-4.3-1.1-2.1-1.2-3.2-.4-4.5.9-1.4.6-2.1-1.6-3.8-1.9-1.6-2.6-2.9-2.5-5.3.1-1.8-.5-4.9-1.1-7-1.5-4.5-2.1-13.5-1-13.9.5-.2 1.1-1.8 1.5-3.6.5-2.7.4-3.1-.9-2.6-1.2.4-1.8-.2-2.3-2.3-.4-1.5-.9-3.2-1.2-3.8-.4-.5-.8-3.6-.9-6.8-.3-5.2-.1-5.9 1.7-6.4 2.3-.6 2.5-1.4.9-3-.7-.7-1.2-2.4-1.3-3.9-.1-1.9-1-3.1-3.1-4.3-1.9-1-2.9-2.2-2.7-3.4.4-2.1 1.6-2.2 3.2-.2.9 1.1 1.6 1.2 2.5.5 1.9-1.6 2.7-6 1.4-7.6-1.3-1.6.3-4.4 2.5-4.4.6 0 1.8-1.9 2.6-4.2 1.1-3.1 2.2-4.4 4-4.8 1.5-.4 2.4-1.3 2.4-2.2-.1-1.1.4-1.5 1.5-1.1 1.1.4 1 .1-.4-1-1.6-1.3-1.8-1.8-.7-2.8 1.4-1.5 1.6-4.9.2-4.9-.5 0-1-.9-1-2 0-2.1-3.4-4.5-5-3.5-.6.3-1 .2-1-.4 0-.5.5-1.3 1-1.6.6-.3 1-1.9 1-3.4s.5-3.2 1.2-3.9c.9-.9.9-1.5 0-2.4-.7-.7-1.2-1.5-1.2-2 0-1.1 3.4.4 4.3 1.9 1.5 2.4 3.7-.5 3.7-4.8 0-2.6.5-3.9 1.3-3.9 3.4 0 9.9-10.4 8.6-13.8-.6-1.6-.5-2 .7-1.5 1 .4 1.2 0 .7-1.3s-.3-1.6 1-1.1c1.1.4 2.2-.1 2.9-1.3.7-1.1 1.8-2 2.4-2 .6 0 1.9-.9 3-2.1 1.2-1.4 2.5-1.8 4.1-1.4 1.4.3 2.3.1 2.3-.6s1.5-1 4-.7c2.9.3 3.9 0 3.6-.9-.3-.7-.1-1.5.4-1.8 2-1.2 1-4.5-1.5-5.1-2.2-.5-2.4-1.2-2.7-6.7-.3-7-2.3-8.4-4.2-3.1-1.1 3.1-7.4 9.4-9.5 9.4-.6 0-1.8 1.2-2.8 2.7-2.7 4.4-5 6.3-7.6 6.3-1.2 0-2.7.4-3.3 1-.6.6-2.4.4-4.9-.5-2.2-.8-4.7-1.4-5.4-1.5-2.2 0-9.1-5.1-9.1-6.6 0-1.8-4.8-3-6.3-1.5-.8.8-.8 1.1.1 1.1 1.5 0-1.8 5.8-3.7 6.5-.9.4-3.8-1.8-7.5-5.8-7.2-7.6-14.9-12.5-17-10.8-2.6 2.2-7.2-6.5-6-11.2.5-2.1.2-2.7-1-2.7-.8 0-2.4-1-3.6-2.2-1.4-1.5-2-1.8-2-.7-.1 1-.4.9-1.1-.4-.8-1.3-.7-2.4.4-4.1 1.2-1.8 1.2-2.6.3-4.4-.7-1.3-1.5-2-1.8-1.6-.4.3-1.6-.9-2.7-2.7-1.2-1.9-1.7-3.5-1.1-3.7 1.3-.5.1-3.3-2.8-6.4-2-2.2-2.3-3.3-1.8-6 1.9-9.2 1.9-10.2-.8-12.7-1.4-1.4-2.6-3-2.6-3.7 0-.6-.6-1.6-1.2-2.2-1.4-1.1-1.5-6.5-.3-9.5.9-2.2.4-2.8-2.7-3.1-2.1-.2-2.4.1-2 2zm20.2 70.9c1 1.3.9 1.5-.9 1.5-1.2 0-2.1-.6-2.1-1.5 0-.8.4-1.5.9-1.5s1.4.7 2.1 1.5zm53.2 64.7c-1.7 1.7-4.2 1.9-4.2.2 0-.9 1-1.4 2.7-1.4 2.1 0 2.4.3 1.5 1.2zm-112.2 118.2c0 .3-.4.8-1 1.1-.5.3-1 .1-1-.4 0-.6.5-1.1 1-1.1.6 0 1 .2 1 .4zm-17 73.6c0 .5-.2 1-.4 1-.3 0-.8-.5-1.1-1-.3-.6-.1-1 .4-1 .6 0 1.1.4 1.1 1zm-3.7 11.6c-.6 1.7-2.3.9-2.3-1.1 0-.8.6-1.2 1.4-.9.8.3 1.2 1.2.9 2zm-5.3 11c0 1.7-1.2 1.8-2.8.2-1.8-1.8-1.5-2.7.8-2.1 1.1.3 2 1.2 2 1.9zm63 66c0 .8-.4 1.4-1 1.4-.5 0-1-.9-1-2.1 0-1.1.5-1.7 1-1.4.6.3 1 1.3 1 2.1zm28.2 7.2c-.3 1.5-.7 2.1-.9 1.4-.3-.6-1.1-1.2-1.9-1.2-1.7 0-1.8-2.2-.2-3.8 1.8-1.8 3.6.4 3 3.6zm8.8 44.2c0 .5-.8 1-1.7 1-1.5 0-1.6-.2-.3-1 1.9-1.2 2-1.2 2 0z"/><path d="M188.397 554.794c.3.5 1.1 1 1.6 1 .6 0 .7-.5.4-1-.3-.6-1.1-1-1.6-1-.6 0-.7.4-.4 1zM171.397 563.794c.3.5.8 1 1.1 1 .2 0 .4-.5.4-1 0-.6-.5-1-1.1-1-.5 0-.7.4-.4 1zM301.897 604.794c0 .7-.7 1-1.5.6-.9-.3-1.5 0-1.5.8 0 .7-.7 1.9-1.5 2.6-2 1.7-2 6.1 0 5.4.8-.3 2.4.1 3.7 1 2.9 2.1 4.7 2.1 2.6 0-1.4-1.5-1.5-2.1-.3-5.5 1.2-3.2 1.2-3.9-.1-5-1.1-.9-1.4-.9-1.4.1zM275.597 677.394c.3 4.2.2 4.4-2.2 4.4-1.7 0-2.4.4-1.9 1.1.3.6.2 1.4-.4 1.8-.6.3.7 1.4 2.9 2.3 3 1.3 3.9 1.3 3.9.4s.9-1.2 2.5-.8c1.5.2 2.5 0 2.5-.7 0-.6.7-1.1 1.5-1.1.9 0 1.2-.6.8-1.7-.5-1.2-.3-1.4.8-.8.8.5.5-.1-.5-1.3-1.1-1.2-3-2.2-4.3-2.2-1.3 0-2.3-.6-2.2-1.3.3-2.5-.2-3.5-2-4-1.6-.4-1.8.1-1.4 3.9zm7.3 5.4c0 .5-.5 1-1.1 1-.5 0-.7-.5-.4-1 .3-.6.8-1 1.1-1 .2 0 .4.4.4 1zM288.497 682.094c.3 1 .9 1.5 1.2 1.2.3-.3 0-1.1-.7-1.8-1-.9-1.1-.8-.5.6zM262.897 685.794c0 .5.5 1 1 1 .6 0 1-.5 1-1 0-.6-.4-1-1-1-.5 0-1 .4-1 1zM287.497 686.294c.4.8 1.1 1.5 1.6 1.5.6 0 .5-.6-.2-1.5-.7-.8-1.4-1.5-1.6-1.5-.2 0-.1.7.2 1.5zM1.097 693.294c-1.3 1.6-.5 1.9 2.2.9.9-.3 1.6-1 1.6-1.5 0-1.4-2.4-1-3.8.6zM39.297 883.194c-.8 4.9-2.7 7.1-5 5.8-2-1.1-5.4-.4-5.4 1.2 0 .6.7 2 1.5 3 .8 1.1 1.5 2.8 1.5 3.8 0 1.1 1.1 3 2.5 4.4 1.6 1.6 2.5 3.6 2.5 5.7.1 3.2 2.9 7.7 4.9 7.7.6 0 1.4 1.2 1.7 2.7.4 1.6 1.4 3.8 2.2 5 .8 1.3 1.1 2.3.6 2.3-.4 0 .3 1.1 1.6 2.5 2.4 2.6 2.9 3.9 3.4 8.5.1 1.4.7 3.4 1.3 4.5.8 1.3.8 2.5.1 3.9-.7 1.3-.7 2.1.1 2.5 1.7 1.1.1 7.8-2.5 10.2-1.3 1.2-2.4 3.1-2.4 4.2 0 1-1.4 3.2-3 4.9l-3 3 2.5 3c3 3.6 3.1 4.2.4 6.9-1.6 1.6-1.8 2.3-.9 3.5.7.7 1.6 1.1 2.2.8 1.1-.7 5.8 4.2 5.8 6.1 0 2.1 2.2 6.5 3.3 6.5.5 0 .7 1.1.5 2.5-.4 2 .4 3.4 4.3 7 2.6 2.5 5.3 4.5 5.9 4.5.5 0 1.7 1.8 2.6 4 .9 2.2 2.3 4 3 4 .8 0 2 1.2 2.6 2.6 1 2.2.9 2.7-.5 3.5-2.1 1.2-2.2 4.9-.2 7.5.8 1 1.5 2.6 1.5 3.5 0 .9.6 2.2 1.3 2.8 1.5 1.2 1.1 6.8-.5 8.8-.7.9-.2 1.6 1.8 2.5 3.5 1.5 4.6 2.9 3.4 4.3-.6.7-.2 2.3 1.1 4.4 1.5 2.5 1.7 3.9 1.1 6.4-.5 1.8-1.5 3.1-2.1 2.9-1.3-.3-.8 2.7 1 5.8.7 1.2.8 1 .9-.7 0-1.3.8-2.4 2-2.8 1.1-.3 2-1.1 2-1.6s.7-.9 1.6-.9c2.1 0 6.4-4.1 6.4-6.1 0-2.8 2.2-3.7 10.7-4.2 9.1-.5 10.5-1 9.6-3.4-1-2.6-8.5-9.2-9.9-8.6-.9.3-1.3-1.5-1.6-7.1-.2-4.2 0-7.6.5-7.6.4 0 .7-.9.7-1.9 0-1.9-2.4-3.6-4.7-3.2-.6.1-2.6-1.2-4.5-2.9l-3.3-3 3-2.5c5.7-4.8 8.3-7.7 9.5-10.6.7-1.6 1.6-2.9 2.1-2.9s.8-1 .6-2.3c-.1-1.5.3-2.1 1.4-1.9 1.2.1 1.5-.5 1.1-2.7-.3-2-.9-2.8-1.7-2.4-1.6.6-4.8-2.8-5.6-6-.6-2.6 1.9-7.5 4.4-8.3 1.9-.6 2.2-2 .7-2.9-1.3-.8-.6-9.1 1-11 2.9-3.5-3.1-4.8-7.2-1.6-1.5 1.2-3.3 1.8-4.6 1.4-1.7-.4-2.4.1-3.1 2-1.1 2.9-2.3 3.5-6.2 2.9-2.6-.4-5-4.2-2.7-4.2.6 0 .3-.9-.7-2s-2.4-2-3.2-2c-.7 0-1.3-1-1.3-2.3 0-1.2-1.1-3.9-2.5-5.9-2.9-4.3-3.1-5.2-1-4.4.8.3 1.5.1 1.5-.5s.4-.8.9-.5c1 .6 6.1-4.9 6.1-6.5 0-1.6 4.7-.9 7.3 1.1 3.1 2.4 3.3 2.5 6.2.2l2.3-1.8-2-3.2c-1.1-1.8-2.5-3.2-3.1-3.2-.7 0-2.2-2.4-3.5-5.2-1.2-2.8-2.5-4.8-2.8-4.5-.4.3-1.6.1-2.8-.5-1.1-.7-2.4-1.1-2.8-1-.5.1-.8-.5-.8-1.3s.7-1.5 1.5-1.5c2.2 0 1.8-2.7-.5-4-2.3-1.2-1.6-4.4.8-3.5.8.3 2.3-.2 3.3-1.1 1.6-1.4 1.7-2 .6-4.3-1.4-2.8-1.2-7.1.4-7.1 1.9 0 .9-5.9-1.2-7-1.6-.9-1.8-1.4-.9-2.5 1.6-1.9-2.6-4.5-6.5-4-1.7.2-3.4.4-3.8.4-.5.1-.6.9-.2 2 .8 2.5-1.7 3.3-4.5 1.4-1.2-.9-3.5-1.6-5-1.8-1.6-.1-4.3-1.4-6-2.8-1.9-1.7-4.4-2.7-6.2-2.7-1.8 0-3.6-.7-4.4-1.8-.7-.9-1.7-1.8-2.3-1.8-.6-.1-1.3-.3-1.6-.4-.3-.1-1.8-.3-3.5-.4-2.6-.1-3 .3-3.6 3.8z"/><path d="M33.397 882.594c-.5.4-1.1 1.5-1.2 2.6-.1 1.7 0 1.7 1.4.3 1.6-1.6 1.5-4.1-.2-2.9zM21.497 887.594c-.2.4.4.8 1.4.8 1 0 1.6-.4 1.4-.8-.3-.4-.9-.8-1.4-.8-.5 0-1.1.4-1.4.8zM113.397 960.794c-.3.5-.1 1 .4 1 .6 0 1.1-.5 1.1-1 0-.6-.2-1-.4-1-.3 0-.8.4-1.1 1zM182.597 979.494c-1.2 1.1-.8 2.3.8 2.3.8 0 1.5-.7 1.5-1.5 0-1.6-1.2-2-2.3-.8zM190.697 982.094c-1.3 1.2-3.8 3.3-5.4 4.6-1.6 1.2-2.1 2-1.2 1.7 1-.3 2-.1 2.3.4.4.6 1.4 1 2.3 1 1 0 3.4.9 5.4 2 2.9 1.5 3.6 1.6 3.1.5-.3-.9 0-2.1.5-2.8.9-1.1 1-2.3.2-5.7 0-.3-.6.2-1.3 1.1-1.8 2.3-5.8 3.4-6.8 1.8-1-1.7-.2-2.9 2.1-2.9 1.3 0 1.8-.7 1.7-2-.2-2.4.1-2.5-2.9.3zM43.897 985.794c0 .5.5 1 1.1 1 .5 0 .7-.5.4-1-.3-.6-.8-1-1.1-1-.2 0-.4.4-.4 1zM115.997 1062.594c-.1 1.8.4 4.2.9 5.3.8 1.5.7 1.9-.5 1.9-1 0-1.5.9-1.5 2.6 0 3.6 2.1 10.4 3.1 9.9 1.1-.8 3.6.5 3.6 1.8 0 .7.3 2.2.7 3.4.5 1.7.3 2.3-.8 2.3-.9 0-2.2 1.3-3 2.9-1.5 2.7-6.1 4.7-7.1 3.1-.3-.5-2.1-.7-4-.5-1.9.2-3.5-.1-3.5-.6s-.4-.9-1-.9c-.5 0-1 .7-1 1.6 0 .8-.4 1.2-1 .9-.5-.3-1-.2-1 .3 0 1.7 2.8 2.2 4 .7.6-.7 1.8-1.1 2.8-.9.9.3 3.2.6 5.1.7 3.3.2 3.5.5 4.7 5.7 1.3 5.6 1 7.6-.6 5-.8-1.3-1-1.2-1 .2 0 2.3-3.7 3.3-6.6 1.7-2.6-1.3-3-2.4-1.4-3.4 1.5-1 1.2-3.5-.5-3.5-.8 0-1.5-.7-1.5-1.5 0-.9-.9-1.5-2.2-1.5-3.3-.1-7.9-7.1-7.6-11.5.1-2.1-.5-4.1-1.6-5.4-1-1.1-1.5-2.5-1.1-3 .3-.7-.2-1.1-1.4-1.1-1.1 0-3.1-.5-4.5-1.1-3.1-1.5-8.8.5-7.9 2.7.3.8-.4 3-1.6 4.9-1.2 2-2.1 4.8-2.1 6.2 0 2.5-.2 2.5-5 2.1-5.4-.5-6.4.1-9.4 6-1.4 2.7-2.1 3.1-4.1 2.6-1.8-.4-2.7-.1-3.1 1-.3.9-1.7 1.6-3 1.6-1.4 0-2.7.7-3 1.5-.4.8-1.5 1.5-2.5 1.5-2.2 0-2.3.9-.8 4.4 1.3 2.7 3.9 4.3 3.9 2.4 0-3 2.1 1.2 2.5 4.8.2 2.2.6 5.6 1 7.7.5 2.4.3 4.2-.5 5.2-.8.9-1 2.7-.6 4.6.4 2.1.2 2.8-.6 2.3s-.9 0-.5 1.6c.4 1.7-.2 3.4-2.3 6.1-1.7 2-3 4.6-3 5.7 0 1.1-.6 2.2-1.2 2.5-2.2.8 1.7 6.2 4.4 6.2 1.9 0 2.4.7 2.8 3.5.4 2.8 1 3.5 2.8 3.6 1.6.1 2.1-.3 1.8-1.2-.4-1 .3-1.4 1.9-1.4 2.4 0 2.5.3 2.3 4.9-.2 4-.7 5.2-2.4 6-1.5.7-2.1 1.7-1.9 3.6.5 4 2.4 5.7 5.9 5.2 1.8-.2 4.1.2 5.4 1.1 2.2 1.4 2.7 1.4 5.5-.1 1.8-.8 4.2-1.8 5.4-2.2 1.2-.3 4.3-2.6 6.7-5l4.5-4.4-3.4-2.9c-1.8-1.7-3.1-3.3-2.8-3.6.3-.3-.2-1.6-1-3-1.2-1.8-1.3-2.6-.4-2.9.9-.3.9-.7-.1-1.9s-1-2.2-.1-4c.9-2.2.7-2.9-1.7-5.3-2-2-2.4-2.9-1.4-3.5.8-.5.9-.9.1-1.4-.6-.4-1.1-1.6-1.1-2.7 0-1.6.5-1.9 1.9-1.4 1.5.4 2 0 2.3-1.7.3-1.9.9-2.2 4.2-2.1 2.5 0 4.2.6 4.8 1.7.5.9 1.4 1.6 2.1 1.6.7 0 2.4 2.1 3.8 4.8 2 3.5 2.4 5.1 1.7 6.3-.8 1.1-.4 2.7 1.1 5.9 1.2 2.5 2.4 6.1 2.7 8.1.6 3.6.8 3.7 6.6 4.9 3.3.6 6.2.9 6.6.6.3-.3 1.1-.1 1.8.5 1 .8 2.1.5 4.5-1.5s3.4-2.4 4.5-1.5c.7.6 1.9.7 2.5.3.8-.4.9-.3.5.4s-.1 1.2.8 1.2 1.6.7 1.6 1.5-.5 1.5-1 1.5c-1.4 0 0 5.3 1.7 6.3 1.8 1.1 1.7 2.7-.2 2.7-2.6 0-1.7 1.7 1.6 3.1 2.8 1.1 6.2 6.1 6.4 9.4.1 2 1.7 3.5 3.5 3.5 1.1 0 2.7 1.1 3.6 2.5.9 1.4 2.1 2.5 2.8 2.5.6 0 .4-.5-.4-1-1.2-.8-1-1 1-1.1 1.4-.1 3.1-.2 3.8-.2 1.7.1 1.6-7.4-.2-8.4-1.9-1.2-3.6-4.8-3.6-7.8 0-1.4-1-3.6-2.2-4.9-1.3-1.2-2.9-3-3.7-3.9-1.2-1.5-1.2-1.7.3-1.1 2.2.8 2.2-2.3-.1-4.8-1.5-1.7-1.5-1.8 1.5-1.2 2.1.4 3.6.2 4.7-.9 1.4-1.4 1.4-1.7-.1-2.5-1.2-.6-1.5-1.7-1.1-3.2.6-2.5-.7-6-2.3-6-1.5 0-1.2 3 .3 3.1.6.1.1.4-1.3.8-3.3 1-4.8-.3-6.3-5.7-1.5-5.1-3.2-6.4-4-3.1-.5 1.9-1 2.1-4.9 1.5-4.1-.6-8.4-3.9-7.3-5.6.7-1.2-4.4-4.2-6.1-3.6-.9.3-1.4-.1-1.4-1.4 0-1-.5-2.2-1.1-2.6-.8-.5-.6-1 .5-1.6.9-.5 2-.7 2.5-.3 1.7 1 2.1-1.2.6-2.5-2.1-1.7-1.9-2.5 1.1-3.9 2.2-1 2.5-.9 2 .6-.4 1.2.4 2.4 2.4 3.8 1.7 1.1 3.3 2.8 3.6 3.7.3 1 1.1 1.8 1.9 1.8 1.4 0 1.5-5.4 0-11.9-.5-2.5-.4-3.2.6-2.9.7.2 2.3-.6 3.7-1.9 1.8-1.7 2.3-2.9 1.8-4.8-.4-1.5 0-3.7.9-5.5.9-1.7 1.3-3.5 1-4-.3-.6-.1-1 .6-1s.3-1-.9-2.3c-3.5-3.7-2.6-8.7 1.5-8.7 2.4 0 2.5-.3 2-3.6-.3-2-1.3-4.4-2.2-5.4-1.2-1.3-1.3-2-.5-2.5.6-.4.9-1.3.6-2.1-.3-.7.3-1.8 1.3-2.4 1.3-.6 1.7-1.7 1.4-3-.4-1.5 0-2 1.5-2 2.9 0 6.5-5.2 4.9-7-.9-1-.9-1.1.2-.5.7.4.4-.6-.9-2.3-2.2-3-3.8-3.2-6.8-.9-.8.7-2 .6-3.5-.1-1.2-.6-3.3-1.2-4.6-1.4-1.3-.2-2.9-1.2-3.5-2.3-.6-1.1-1.2-2.2-1.3-2.4-.2-.2-1.1.3-2.1 1.3-2.6 2.3-6.5 1.5-7.3-1.5-.6-2.1-.7-2-.8.9zm-3.7 65.4c-.3.4-.9.8-1.5.8-.5 0-.9-.4-.9-.8 0-.5.7-.9 1.5-.9s1.2.4.9.9zm-30.4 7.8c0 1.4-1.4 1.2-2.8-.2-1.9-1.9-1.4-3 .8-1.8 1.1.6 2 1.5 2 2zm26.7 4.1c-1.4.8-2.2.8-3 0-.8-.8-.3-1.1 1.9-1.1 2.5.1 2.7.2 1.1 1.1zM68.497 1072.494c-.6 1.4-.5 1.5.5.6.7-.7 1-1.5.7-1.8-.3-.3-.9.2-1.2 1.2zM52.597 1075.194c-1 .8-1.5 2-1.1 2.9.3.9-.1 2.6-1 3.9-2.3 3.2-2.1 3.5 2.7 2.8 3.8-.5 4.2-.8 3.9-3.2-.2-2.2.2-2.7 3.3-3.2 4.7-.9 4.9-3.7.1-2.9-1.9.3-3.6.1-4-.6-.9-1.4-1.7-1.4-3.9.3z"/><path d="M29.497 1083.294c.4.8 1.1 1.5 1.6 1.5.6 0 .8 1.7.4 4.5-.5 2.9-.3 4.5.3 4.5s.8-.7.5-1.5c-.4-.8-.1-1.5.4-1.5 1.4 0 4.9 5 5.4 7.5.1 1.1.6 2.2 1 2.5.4.3.1 1.9-.8 3.5-.8 1.6-1.2 3.5-1 4.2.3.8-.2 1.3-1.4 1.3-1.1 0-2 .5-2 1.1 0 .5-.6.7-1.2.3-.9-.5-.9-.2.1.9 1.7 2.1 5 2.2 5.7.2.4-.8 1.3-1.5 2.1-1.5 1.1 0 1.4-.7 1-2.8-1.3-6.4-1.3-6.7 1.1-7 1.7-.3 2.2-1 2.2-3.3 0-1.6.4-2.9.9-2.9 1.4 0 2-3.9.7-4.3-.8-.3-.8-.8.1-1.8.7-.9.8-2 .4-2.8-1.1-1.8-9.7-2.7-11.5-1.2-1 .8-1.6.9-2.1.2-.3-.6-1.5-1.6-2.5-2.1-1.6-.8-1.8-.8-1.4.5zM9.897 1094.794c-.8.5-2.3.7-3.4.4-1.3-.4-1.7-.2-1.4.7.3.8 1.6 1.5 3 1.7 2 .2 2.7 1 3.1 3.5.3 1.8.1 3.6-.3 4.1-.5.5-.6 1.5-.3 2.2.4 1-.4 1.4-2.5 1.4-2.8 0-3 .3-2.8 3.2.1 2.2.6 3.2 1.5 3 .8-.2 1.1.3.8 1.1-.3.8-.1 2 .4 2.8.7 1.2 1 1.1 2.1-.3.7-.9 3.2-2.1 5.4-2.7 4.3-1.1 6.3-3.6 4.4-5.5-1.8-1.8-1.1-3.4 3.2-6.5 3.3-2.5 3.8-3.2 2.4-3.7-.9-.4-2-.4-2.3-.1-.3.4-1.7-.3-3.1-1.3-1.3-1.1-3.2-2-4-2-.9 0-2.3-.7-3.1-1.4-1.1-1-2.1-1.2-3.1-.6zM28.597 1098.494c-.4.3-.7 1.1-.7 1.7 0 .6.5.5 1.2-.2.6-.6.9-1.4.7-1.7-.3-.3-.9-.2-1.2.2zM85.297 1167.294c-1 .8-1.4 1.4-.9 1.4.6 0 1.9-.6 2.9-1.4 1.1-.8 1.5-1.5 1-1.5-.6 0-1.9.7-3 1.5zM177.697 1191.694c-1.6 1.3-2.9 1.7-3.8 1.1-.9-.6-1.7-.5-2.1.2-.4.6-1.9 1-3.3 1-1.5 0-2.9.4-3.1.9-.3.4-1.9.4-3.5-.1-3.3-.9-4.2.5-1 1.5 1.1.3 2 1.1 2 1.6s1.6.9 3.5.9 3.5-.5 3.5-1c0-1.8 2.8-1.1 5.8 1.5 3.2 2.7 5.2 3.4 3.3 1.1-.7-.8-.9-2.5-.5-4 .5-2 1.1-2.5 2.5-2.1 2.2.7 2.4-.3.5-2.8-1.3-1.6-1.4-1.6-3.8.2z"/></g></svg>