<svg version="1" xmlns="http://www.w3.org/2000/svg" width="1015.454" height="1241.298" viewBox="0 0 761.59 930.973"><g fill="#222"><path d="M170.18 1.388c-.7 1.1-1.8 1.7-2.7 1.4-1-.4-1.5 0-1.5 1.3 0 1.1-2.1 3.8-4.6 6.1-4.3 3.8-5 4.1-8.6 3.6-3.7-.6-4.3-.4-8.5 3.7-2.8 2.7-4.7 3.9-5 3.2-.3-.9-1-.9-2.8.3-1.7 1.1-2.9 1.3-4.2.6-1.9-1.1-12 .8-15.6 2.9-2.6 1.4-10.2.1-12.3-2.2-.9-1-2.2-1.9-2.9-1.9-.7 0-2-.9-3-2s-3.1-2-4.6-2c-1.5 0-3.9-.4-5.3-1-2.1-.8-2.7-.6-3.6 1-.6 1.1-2.2 2.3-3.6 2.6-2 .5-2.4 1.1-2 2.9.4 1.6-.2 2.7-2.4 4.3-1.6 1.2-3.5 3.4-4.2 4.9-1.1 2.3-2 2.8-4.8 2.8-3 0-3.5.4-4.2 3.4-.7 2.4-.6 3.6.3 4.1 1.8 1.2.3 4.1-1.7 3.3-1.4-.5-1.6-.3-1.1 1.2.4.9.2 2.4-.4 3.1-.6.7-.8 1.8-.4 2.4.3.5-.1 1-.9 1-1.7 0-2.1 1.5-.7 2.4 1.5 1 0 4.5-2.1 5.2-1.1.3-1.7 1.2-1.4 1.9.3.8.1 1.5-.3 1.7-.5.2-1.2 1.7-1.5 3.4-.6 2.7-.4 3.2 1.6 3.7 1.3.4 2.5.2 2.6-.4.3-.6.9-.6 1.8.2 1.1.9 1 1.4-.7 2.8-1.9 1.5-2 1.8-.5 3 .9.7 1.6 2.4 1.6 3.6 0 1.2.7 2.8 1.5 3.5 1.4 1.1 2.2 9 1 9-.3 0-2-1.6-3.7-3.5-1.7-2-3.3-3.3-3.6-3-.3.2-1 .1-1.6-.4-1.2-1-6.6-.3-6.6.9 0 .4-1.6 1.8-3.6 2.9-2.6 1.6-4.5 2-6.6 1.5-4.6-.9-3.3 2.5 2 5.4 4.2 2.4 5.3 4.7 3 7-.9.9-.8 1.6.5 3 .9 1 1.7 2.3 1.7 2.8s.9 1.5 2 2.2c1.6 1 2 1 2.1 0 0-.7.5-.1 1.1 1.4.8 2.3.5 3.3-1.7 6.2-3.3 4.3-3.3 10.3 0 9.8 1.1-.2 3.3-.3 4.9-.2 1.7 0 2.7-.2 2.3-.6-.4-.4-.2-1.3.3-2 .8-.8.6-1.6-.5-2.7-2.2-2.3-2-6.7.4-6.7 1.4 0 1.8.5 1.4 2-.4 1.4 0 2 1 2 .8 0 2.2.3 3 .6.9.3 1.7-.2 2.1-1.3.3-1 .3-.1.1 2-.4 3.8-.4 3.8 1.8 2.4 1.5-.9 2.3-2.7 2.5-5.1.2-2.3.8-3.6 1.8-3.6.8 0 1.4-.5 1.4-1.1 0-.6.9-.8 2.1-.4 2 .7 2 .4-.8-4.8-1.9-3.5-2.7-6-2.2-6.9 1.6-2.4.9-3.8-1.7-3.8-2.1 0-2.4.3-1.5 1.3.7 1 .7 1.7 0 2.4-.8.8-.8 1.7 0 3.1 1 1.9.8 2.1-2 2-3.1-.1-5.2 1.7-4.4 3.9.4 1.3-1 2.6-3.7 3.6-1 .4-1.8.2-1.8-.4 0-.5.8-1.3 1.8-1.7 2-.8 2.5-3.3 2.4-12.5 0-6.8 0-6.9 2.5-6.2 1.9.4 2.6.1 3-1.5.3-1.1 1.2-2 1.9-2 .8 0 2.3-.9 3.3-1.9 1.9-1.9 1.9-1.9 2.4 0 .3 1 .2 1.9-.3 1.9-.4 0-1.1.8-1.4 1.7-1.2 3.1 7.1 16.2 9.4 14.8 1.1-.7 7 5.3 7 7.2 0 1.3.2 1.3 1.6.2 1.5-1.2 1.6-1.1 1 .9-.6 1.9-.4 2.2 1.8 2.2s2.6-.4 2.6-3c0-2-.5-3-1.5-3-.8 0-1.5-.5-1.5-1 0-1.8 5.6-1.1 7.8 1 1.2 1.2 2.2 2.5 2.2 3s.8 1.7 1.9 2.7c1 1 2.1 3.1 2.3 4.8.3 1.6.9 3.9 1.3 4.9.6 1.2.5 1.7-.2 1.3-.6-.4-.8.3-.6 1.7.3 1.3 1.5 2.8 2.6 3.4 1.2.6 1.6 1.1 1 1.1-2 .1-1.6 1.6 1.3 5 1.4 1.7 2.3 3.5 2 4-.7 1.1 1.4 6.1 2.6 6.1 1.9 0 4.8 4.2 4.8 7 0 1.7 1 4.4 2.1 6 1.4 1.9 2 3.6 1.6 5.1-.6 2.4 2.6 8.9 4.4 8.9.5 0 1.5 1.5 2.3 3.4.8 1.9 2.4 3.7 3.6 4.1 1.3.4 1.9 1.2 1.6 2.1-.3.7-.1 1.6.5 2 .6.3.8 1.1.6 1.7-.4 1.1 2.9 4.7 4.2 4.7.4 0 .5 1.9.3 4.1-.5 4.4 2.5 11.2 5.9 13.7 1 .7 1.9 2.2 2.1 3.5.2 1.2 1 2.2 1.8 2.2s2.4 1.3 3.4 2.8c1.6 2.3 1.7 3 .6 3.7-1.1.7-1.1 1.1-.1 2.4.8.9 2.1 1.6 3.1 1.6 2 0 4.9 3.9 6 7.9.3 1.4 1 2.4 1.5 2.3 1.3-.6 2.5 2.1 1.9 4.4-.3 1.2-.1 3.1.5 4.1 1.2 2.4.3 6.3-1.5 6.3-.8 0-1.4.7-1.4 1.5s-.4 1.5-1 1.5c-.5 0-1 .6-1 1.2 0 1.9-6.6 5.9-8.5 5.2-1.2-.5-1.5.2-1.4 3.7.1 2.4.5 4.8.9 5.4.4.5.5 2.5.3 4.2-.4 2.7-1 3.3-2.9 3.3-3 0-3 1.5.1 6.5 1.3 2.2 2.5 4.8 2.5 5.8s.5 2.8 1.2 4c.6 1.2 1.1 3.7.9 5.6-.2 2.7.4 4.1 3.4 7.1 2.1 2.1 3.4 4.3 3.1 4.8-.3.6-.2 1.4.4 1.7.6.4.8 1.5.5 2.6-.4 1-.8 3.1-.9 4.6-.2 1.5-.9 2.9-1.6 3.1-.9.3-1.1-.2-.7-1.8.7-2.7-1.3-6.3-2.8-5-.6.5-3.1.4-5.8-.2-3.7-.8-5-1.6-5.8-3.5-1.2-3.2-1.2-3.3.7-3.3 2.3 0 .9-6-1.9-8.2-2.8-2.1-3.8-.7-3.1 4.4.5 3 .2 3.8-.9 3.8-.9 0-2.2.3-3.1.6-1 .4-1.6.1-1.6-.9 0-1.2-4.9-4.7-6.7-4.7-.1 0-.3 1.6-.3 3.6 0 2.1-.4 3.3-1 2.9-.5-.3-1-1.5-1-2.6 0-1.3-.7-1.9-2.1-1.9-1.1 0-2.9-.4-3.9-1-1.5-.8-1.7-.6-1.3 1 .3 1.2 0 2-.7 2-.6 0-.2 1.2 1 2.7l2.1 2.8-2.8.9c-3.3 1.1-4.3 2.3-4.3 5.5 0 3.5 6.7 9.3 10 8.7 2-.4 2.9.2 4.2 2.5 1 1.6 2.5 2.9 3.4 2.9 1.4 0 1.6.8 1.2 4.5-.4 3-.1 4.8.7 5.3 1.1.6 3.5 4.4 3.5 5.5 0 1.1-3.4 1.6-4.5.7-.9-.8-1.4-.1-1.9 3-.4 2.4-1.2 4-2 4-.9 0-1.6 1.7-2.1 4.7-.8 5.2-5.8 11.3-9.2 11.3-2.5 0-4.6 4.3-3 5.9.6.6 1.6 1.1 2.3 1.1 1.6 0 2.5 3.8 1 4.3-1.4.5 2.9 9.7 4.6 9.7.6 0 1.9.6 2.7 1.4 2.6 2.2 6.1 3 6.1 1.3 0-1.1 1.9-.6 7.3 2 3.9 2 8.4 4.4 9.9 5.4 1.4 1.1 3.8 1.9 5.1 1.9 1.4 0 2.9.4 3.2 1 .9 1.5 5.5-1.9 4.8-3.6-.6-1.7 2.7-2 4.4-.3.8.8 1.7.7 3.2-.3 2-1.2 2.5-1 4.6 1.4 1.3 1.5 2.7 4.8 3 7.2.5 3.2 1.7 5.5 4.1 8 1.9 1.9 3.4 4.1 3.4 4.9 0 .7 2.3 3.5 5 6.1 4.2 4 5 5.3 5 8.3 0 2 .3 3.3.7 3 .4-.4 1.3.5 2 2 .7 1.6 1.8 3.6 2.5 4.5 1 1.4 1 2.2.1 3.8-.8 1.2-.9 2.1-.3 2.5.6.4.8 1.1.5 1.6-.4.5 0 .9.7.9 3 0 3.8 2.2 2 5.2-1.8 3-5.2 4.5-7.3 3.2-.8-.5-1-.2-.6.8.6 1.7-.8 1.9-3.1.4-.9-.5-1.8-.2-2.6 1-1.6 2.2-4.6 1.2-4.6-1.5 0-2.5-2.6-5.1-5.2-5.1-1.7 0-1.9.4-1.3 3 .5 2.2.3 3.2-.9 3.6-1 .4-1.6 1.8-1.6 3.5 0 2.4-.6 3.1-3.6 4.4-2 .8-4.5 1.5-5.6 1.5-1.6 0-1.9.5-1.4 2.7.4 1.8-.1 4.2-1.4 6.8-2.4 4.7-2.5 5.7-.5 9.6 2 3.7 1.2 5.2-1.9 3.7-1.9-.8-2.9-.7-4.7.6-1.7 1.1-2.6 1.3-3.6.4-.8-.7-1.3-.7-1.3 0 0 .5-2.2 3.2-4.9 5.9-8.5 8.5-9.9 9.5-12.1 8.8-1.4-.5-2-.2-2 .9 0 1.9-1.6 2.1-2.3.3-.3-.9-2.9-1.3-8-1.4-4.3-.1-9.1-.8-11.3-1.8-3.9-1.6-12.4-2.7-12.4-1.6s-9.5 10.7-10.5 10.6c-2-.2-6-1.8-7.5-2.9-.8-.7-3-1.1-4.7-1-1.8.1-4.4.2-5.7.3-2.3.1-2.3.2-1 4 .8 2.4 1.1 5.8.7 8.9-.5 4.2-.9 5.1-3 5.6-2 .6-2.2 1-1.3 2.6.8 1.5.8 2-.1 2-.7 0-.2 1.1 1 2.4 2.1 2.2 2.2 2.7 1 6.6-.7 2.3-1.9 4.4-2.6 4.7-1.7.7-4.6 6.1-3.8 7.2.9 1.5-2.5 2.2-4.8 1-1.8-.9-2-.9-1 .1s.8 1.9-.8 4.2c-1.1 1.5-2.6 2.8-3.3 2.8-.7 0-1.9 1.4-2.7 3.2-1.4 3.1-2.5 4.1-6.4 5.3-1.6.5-1.7.8-.5 1.5 1 .7 1.1 1 .3 1-.7 0-1.3 1.1-1.3 2.4 0 1.5-.7 2.6-1.9 2.9-1.5.4-2 1.8-2.6 7.8-.4 4.1-1.4 8.5-2.2 9.8-.8 1.3-1.1 2.6-.6 3 1.2.9 3.5 9 3.7 13.3.1 2 .9 4.5 1.9 5.6.9 1 1.7 2.3 1.7 2.9 0 .6.7 1.6 1.5 2.3 1.2 1 1.3 1.6.4 2.6-.9 1.1-.8 1.4.4 1.4.8 0 2-1.4 2.7-3 .8-1.9 2-3.1 3.4-3.2 1.1-.1 2.8-.2 3.7-.3.8 0 2.2-.7 3.1-1.5 1.3-1.3 1.3-1.8-.3-4.5-2.5-4-2.4-4.5.8-4.5 1.4 0 3.5-.8 4.5-1.7 1.3-1.2 2.2-1.4 2.6-.6.4.5 3.2 1 6.2 1.1 3 0 6.7.6 8.3 1.4 2.9 1.6 7.7 1.3 7.7-.5 0-.6.7-.1 1.6 1.1 1.7 2.5 6.4 3.1 6.4.8 0-1.1 1.2-1.3 4.8-1 9.3.7 11.6 1.6 15.3 5.8 3.5 3.9 3.9 4 6.7 3 2.8-1.1 3.3-.9 7 3 2.2 2.2 4.3 5.1 4.6 6.3 1.2 4 7.7 4.1 11.2.2.9-1 2.4-1.9 3.2-1.9.8 0 1.2-.6.8-1.5-.4-1.1.1-1.5 1.8-1.5 1.2 0 2.6-.3 3-.7 1.2-1.2 5.1-1.1 7.1.3 1.1.8 1.6 1.4 1.1 1.4-2.4 0 2.3 3.2 6.1 4.2 2.5.6 4.7 1.7 5 2.4.3.8 1.1 1.4 1.9 1.4.7 0 1.1.6.8 1.4-.3.7.7 2.7 2.1 4.4 2.1 2.5 3.1 3 5.4 2.6 4.3-.9 4.9 1.3 1.3 4.6-2.6 2.4-3.2 2.5-4.6 1.4-.9-.8-1.2-.9-.7-.3.5.6.7 1.7.5 2.3-.6 1.5 5.3 7.9 6.5 7.1 1.2-.7 2.4 1.1 2.5 3.9.1 1.6.8 2.1 3.1 2.2 1.7 0 3.5-.3 4.2-.9.9-.6 2 0 3.7 1.9 2.4 2.8 2.4 2.9 4.5 1 1.1-1 2.3-2.7 2.7-3.8.3-1 1.3-1.7 2.2-1.6 1.2.2 1.8-.5 2-2.5.3-2.3.8-2.8 2.3-2.4 3.5.9 4.8-4 2.4-9.6-.6-1.4-.2-1.7 2.3-1.7 1.6 0 3.5.7 4.2 1.5 2.5 3 6.9 4.4 10 3.3 1.7-.5 3-1.4 3-1.8 0-.4.9-.6 2-.3 1.2.3 2 0 2-.7 0-1 .3-1 1.4-.1.9.8 1.6.9 2.1.2.3-.6 2.5-1.5 4.8-2.2 7.3-1.9 8-3.2 7.3-12.6-.5-5.3-.3-8.4.4-8.8.5-.3 1-1.7 1-3.1 0-1.3.5-2.4 1.1-2.4.5 0 .9-.8.8-1.8-.1-.9.3-3 1-4.7 2-4.9 1.2-13.4-1.5-15.6-.8-.6-1.4-2.1-1.4-3.4 0-1.5-1.1-2.8-3.5-4.1-3.5-1.8-4.7-4.8-2.2-5.7.8-.3.6-1.1-.8-2.7-1.1-1.3-1.4-2-.7-1.6.9.5 1.3.3 1.1-.5-.7-5.6.2-8.1 4.6-12.1 2.4-2.2 4.2-4.5 3.9-4.9-.3-.5 0-.9.6-.9.7 0 1-1.6.8-4.5-.5-5.8-5.2-11.5-13-15.8-3.2-1.7-5.8-3.6-5.8-4.1 0-.6-1-2-2.3-3.1-1.3-1.1-3.1-3.1-4-4.5-2-2.9-2.3-8-.4-8 .8 0 2.4-1.1 3.6-2.4 3.1-3.3 11.6-5.7 20.8-6 6.6-.1 7.8-.4 8.1-2 .3-1.4 1-1.6 4.2-1.1 3.3.6 4.1.3 5.2-1.4.7-1.2 1.9-2.1 2.6-2.1.7 0 1-.4.7-1-.7-1.1 2.3-.2 4.2 1.2.7.6 1.5.3 2.1-.8.7-1.2 1.7-1.5 3.8-1.1 1.6.3 5 0 7.7-.6 4.2-.9 4.9-.8 6.1.8.7 1 1.7 1.5 2.3 1.2 1.3-.8 5.3 2 5.3 3.7 0 1.6 2.2 2.6 5.6 2.6 2.8 0 3.2 2.4.9 5.4-1.7 2.2-2 5-.5 4.1.5-.3 2 0 3.2.6 1.3.7 3.5 1.2 5 1.1 1.5-.1 4.6.5 6.9 1.5 3.9 1.5 4.3 1.5 5.4 0 1-1.4 1.5-1.3 4.8 1.4 2 1.7 3.7 3.9 3.7 5 0 1.3 1.2 2.5 3.5 3.4 1.9.8 3.9 2.4 4.5 3.5.6 1 3 3.3 5.4 4.9l4.3 3 6.8-1.4c3.7-.8 7.1-1.2 7.5-1 .4.3 1.1 2.1 1.4 4.1 1 5.3 2.6 8.3 4.5 8.2.9 0 2.4.3 3.3.7 1.3.5 1.9.1 2.4-1.9.6-2.7 1.8-3.3 2.9-1.6.3.5 1.2.7 2 .3 2.3-.8 1.8 2.5-.5 3.7-1.2.6-2 2.1-2 3.5 0 2.7-4.8 8.1-6.7 7.7-.7-.2-1.3.5-1.3 1.5s-.7 3.1-1.5 4.6c-.8 1.5-1.2 3.4-.9 4.2.4.9-.3 1.6-1.9 2-1.3.4-2.9 1.7-3.6 3.1-.6 1.3-1.8 2.4-2.6 2.4-.9 0-1.3.4-1 1 .3.5.1 1-.4 1-.6 0-1.1 1.1-1.1 2.4 0 2.1-.5 2.4-2.7 2.3-2-.2-2.8.3-3.1 1.8-.2 1.1-.9 2.3-1.4 2.6-.6.4-.3 2.1.6 4.4 2 4.6 2 6.4.2 8.4-.7.9-1.8 2.9-2.3 4.6-.8 2.4-1.6 3-3.6 3-1.5-.1-2.7.2-2.7.5.1 1.4 2.9 3.7 6.4 5.3 2.1 1 4 2.5 4.3 3.5.2.9 1.8 2.5 3.5 3.5 2.6 1.5 3 2.2 2.5 4.6-.4 1.7 0 3.6.8 4.7.9 1.3 1 2.3.4 3.1-.7.8-.5 2 .7 3.8 1.3 2.1 1.5 3.4.7 6.8-.5 2.4-1.4 4.1-2.1 3.9-.8-.1-.5 1.3.8 3.8 1.1 2.3 2.5 3.8 3 3.5 1.2-.7 5.3 6.2 4.7 7.9-.7 1.7 3.5 3 6.4 2.1 2.1-.7 7.9 2.9 7.9 4.9 0 1.8-3.7 4.9-4.9 4.1-.7-.4-1.1.4-1.1 1.9 0 1.3-.3 3.1-.6 3.9-.7 1.9 2.6 3.2 3.8 1.5.7-1 1.1-1 1.4-.1.3.6 1.6 2.3 3 3.8 1.6 1.8 2.3 3.3 1.9 4.6-.5 1.4.1 2.2 2.2 3.1 4.1 1.8 7 4.9 7.7 8.3.3 1.7.8 4.6 1.2 6.6.7 4.2-.5 5.5-3.6 3.9-1.3-.7-2-.7-2-.1 0 .7-.8.7-2.4 0-2.6-1.2-8-.4-7.2 1 .6.9-3 2.4-5.4 2.2-1-.1-1.5.9-1.6 3.1-.4 7.3-1.7 12.8-3.1 12.8-.7 0-1.6.7-1.9 1.5-.4.8-1.3 1.5-2.1 1.5s-1.1.5-.8 1c.4.6 1 .8 1.4.5.5-.2 1.9.7 3.1 2 1.3 1.4 2.9 2.5 3.6 2.5 2.3 0 3.9 3 2.6 5-.8 1.3-.8 2.2.2 3.6.8 1 1.2 2.3.9 3-.2.6.5 1.4 1.5 1.6 1.4.4 2.1 1.7 2.4 4.2.2 2.1 0 3.9-.4 4.2-.4.3-.8.9-.8 1.5 0 1.3 4.7 1.1 6.9-.3 1.7-1 2.4-.8 4.6 1.4 2.3 2.3 2.4 2.8 1.1 4.1-1.3 1.3-1.3 1.7-.1 3.3 1.8 2.3 1.9 8.7.3 11.3-.9 1.5-.9 2.6 0 4.6 1 2.1 1 3.1.1 4.1-.8.9-.8 1.4-.1 1.4.6 0 1.9 1.3 2.8 2.9 2.3 4 3.2 3.2 3.2-2.9 0-2.8.2-5.4.6-5.7.3-.3 1.9.7 3.5 2.3 1.6 1.6 4.3 4 6 5.4 3 2.5 3 2.5 1.1 4.4-1.9 2-1.9 2 1.2 4.8 3.6 3.2 3.3 3.1 6 1.7 1.2-.7 1.8-.7 1.4-.1-.3.6 0 1.3.6 1.5.8.4.4.8-.9 1.2-2.5.8-2.7 1.3-1.4 3.4.7 1 1.3 1.1 2.7.2 1.7-.9 1.7-1-.6-1.1-2.3-.1-2.3-.2-.7-1.1 1.2-.7 2.3-.7 2.8-.2 1 1 2.1 5 2 7-.1.7-.2 2.6-.3 4.3-.1 2.2-.6 3-2.1 3-1.4 0-1.7-.5-1.2-1.8.4-1.2.3-1.4-.5-.6-.8.8-.8 1.9 0 3.8.5 1.5.7 3.8.4 5.1-.4 1.7 0 2.6 1.5 3.4 1.4.8 2.3 2.6 2.7 5.2.6 3.8 3.4 6.7 5.2 5.5.5-.3 2.3.8 4.2 2.4 3 2.6 3.3 3.2 2.3 5.3-1.1 2.4-.4 5 1.3 4.6 1.9-.4 7.3 2.6 7.7 4.3.3 1 1.4 1.8 2.4 1.8 1.1 0 3 1.1 4.3 2.5 4.6 4.9 10.1 6.3 12.2 3.1.4-.5.5-2.3.3-4-.2-1.7.1-3.6.7-4.4.7-.8 1.3-3.7 1.5-6.5.2-2.7.5-5.3.8-5.5.3-.3 3.1-.7 6.3-1 3.1-.3 6.6-1.1 7.7-1.8 2.4-1.7 6.2-1.8 6.8-.2.3.9 1.2.4 2.5-1.2 1.2-1.4 2.5-2.9 3-3.5 1.2-1.3-.8-5-4-7.1-1.4-1-2.4-2.2-2.2-2.6.3-.4-.7-1.3-2.3-1.9-1.5-.6-3.6-1.9-4.6-3-1.7-1.9-1.8-2.2-.3-3.8 2-2.2 2.1-5.1.2-5.1-1.4 0-2.8-2.8-3.1-6 0-.9-1.2-3-2.5-4.9-1.4-1.8-2.5-3.6-2.5-3.9 0-.4-.6-2.2-1.4-4-.8-1.8-1-3.6-.6-4 .4-.4 1-.1 1.2.5.8 2.3 3 1.4 4.3-1.7 1.1-2.6 1-3.3-.5-5-1.5-1.7-1.6-2-.3-2 .9 0 2.1-.6 2.7-1.4.7-.8 2.6-1.8 4.2-2.1 1.6-.4 2.9-1.2 2.9-2 0-1.3 7.4-3 9.1-1.9.5.3 1.5.1 2.2-.4.7-.5 3.8-1.3 7-1.7 4.9-.5 6.2-.3 9.3 1.5 3.2 2.1 3.6 2.1 5.3.6 1-.9 2.5-1.6 3.4-1.6 2.2 0 3.3-2.1 1.6-3-1-.6-1.3-2.5-1.1-6.9l.4-6 2.9.6c2.9.5 2.9.5 1.8-2.6-1-2.9-1.3-3.1-4.7-2.5-3 .6-3.4.4-2.9-1 .4-.9.3-1.6-.2-1.6-1.8 0-6-5.3-7.3-9.5-.8-2.4-1.1-4.2-.7-3.9 1.2.7 4.9-1.4 4.9-2.8 0-.5-1.9-2.8-4.2-5-8.2-7.6-7.4-7.3-9.9-3.9-1.2 1.7-2.6 2.8-3.1 2.5-1.2-.7-6.2.5-5.4 1.3.3.3.1 1.2-.5 2-.9 1-1.5 1-2.5.2-1.8-1.5-1.8-2.9.1-2.9.8 0 1.5-.6 1.5-1.4 0-.8 1.2-1.7 2.6-2 2-.5 2.5-1.2 2.1-2.6-.3-1.1-.1-2.2.4-2.5 1.8-1.2-1.6-4.3-5.1-4.9-2.1-.3-4.3-1.3-5.1-2.2-1.1-1.4-1-1.8.5-3 2-1.4 10.3-3 11.3-2.1.3.3 1.9-.9 3.7-2.7 1.7-1.9 4-3.5 5-3.7 2.8-.6 4.2-5.5 2.2-7.8-.9-1-1.6-2.4-1.6-3.2 0-.9-.6-2.4-1.4-3.4-1.6-2.2-1-5.5 1.1-5.5.9 0 1.4-.9 1.2-2.8-.1-1.5-.1-4-.1-5.5.2-2.4.4-2.6 2.1-1.7 1.1.5 2.4 1 2.9 1 1.9 0 1.9-3.9.2-7.7-1.7-3.9-1.7-4 .4-5.3l2.1-1.4-2.5-.6c-3.4-.8-4-5.4-1-7 1.5-.8 2.1-1.9 1.8-3.9-.1-1.6.4-3.6 1.1-4.5 1.1-1.4 1.1-1.6-.2-1.6-.9 0-2.5-1.2-3.7-2.7l-2.1-2.8 2.6-.8c3.1-1.1 5.5.6 5.8 4.1.1 2.4 5.6 3.9 8.3 2.4.9-.5 3.7-.7 6.1-.4 3 .3 4.8.1 5.3-.8.9-1.5 7.9-2.8 13.8-2.6 3.6.1 4.2-.2 3.8-1.7-.3-1.2.2-1.7 1.4-1.7 1.1 0 2.2-.5 2.5-1 .4-.6 1.5-.8 2.4-.5 1 .3 2.4-.1 3.1-1 .7-.8 1.7-1.2 2.3-.8.7.4.8-.2.3-1.8-.5-1.3-.9-4.1-1-6.2-.1-3 .2-3.7 1.7-3.7 1 0 2.7-.9 3.9-1.9l2.1-2-2.6-.6c-2.8-.7-4.4-3.3-2.4-4 .6-.2 2.8-.6 4.8-.9 4.2-.7 6.4-2.8 5.5-5.2-.4-1.1.1-1.8 1.5-2.1 1.1-.3 1.8-1.1 1.5-1.9-.7-1.8 2.8-5.6 4.1-4.3 1.4 1.4 3.7-1.6 2.9-3.8-.6-1.4-.9-1.5-1.6-.3-.5.9-.8-.3-.8-3.3 0-3.9.3-4.6 2.1-4.9 1.2-.2 3 .5 4.1 1.6 1.8 1.8 1.9 1.8 2.9 0 .6-1.1 1-3.6.8-5.8-.2-2.4.1-3.6.8-3.2.7.4.9-.6.5-3-.2-2.3.1-4.6 1-5.9 1.9-2.9.7-12.6-2-15.7-1.8-2-1.8-2.1-.1-1.5 1 .4 2.2.7 2.6.7.4 0 1.8.8 3 1.9 1.8 1.5 1.9 2 .6 2.5-2.2.8-1.8 3.3.6 4.7 1.6.8 2.3.8 2.9-.1.5-.9.9-.9 1.4-.1.4.6 1.7 1.1 2.9 1.1 1.2-.1 3.6.2 5.3.6 2.1.4 3.4.1 4.3-1 .8-.9 2.2-1.6 3.3-1.6 1 0 3-.7 4.3-1.6 1.9-1.2 2.3-2.2 1.9-4-.5-2-.2-2.4 1.5-2.4 1.2 0 3-.9 4.1-2 1.1-1.1 2.4-2 3-2 .6 0 1-.7 1-1.5 0-.9.8-1.8 1.8-2.2.9-.4 3.1-1.8 4.8-3.3 2.3-2 2.9-3.1 2.3-4.3-.6-1-.4-1.7.6-2.1.8-.3 1.5-1.7 1.5-3.1 0-1.6.6-2.5 1.6-2.5s1.4-.6 1-1.5c-.4-1 .1-1.5 1.4-1.5 1.5 0 2-.7 2-2.9 0-1.7.5-3.3 1-3.6.6-.3 1-1.3 1-2.1s1.1-3.2 2.5-5.2c1.9-2.7 2.5-5 2.5-8.8 0-2.9.5-5.4 1-5.6.7-.2.6-1.5-.2-3.6-1-2.6-1-3.7 0-5.2 1.7-2.9 1.5-5.4-.8-7.5-2-1.8-2.5-4.1-1.4-6.9.5-1.3 1.4-1.5 4-1 3 .5 3.3.4 2.7-1.2-.4-1.2-.3-1.5.5-1s1.2-.1 1.2-1.8c0-1.4-.6-2.6-1.3-2.6-.7 0-1.8-.9-2.5-2-.7-1.2-1.7-1.8-2.2-1.5-1.2.7-3-2.8-3-5.9 0-1.7-1.7-4.5-5-8.1-2.8-3-5-5.8-5-6.1 0-.3.7-1.2 1.6-2.1 2.9-2.9-.9-15.2-5.5-18.1-3-1.7-2.6-3.6 1.3-6.9 4-3.2 5.3-9.2 2.8-13.1-1.4-2.2-4.2-3-4.2-1.2 0 .5-.6 1-1.4 1-.7 0-1.6.9-1.9 2-.3 1.2-1.4 2-2.6 2-1.7 0-2.1.6-2.1 3 0 1.6-.4 3-1 3-.5 0-1 1.1-1 2.5 0 1.5-.6 2.5-1.4 2.5-.8 0-2.2.7-3 1.6-1.5 1.4-2.2 1.2-7.9-3.1-5.5-4.1-6.2-4.4-6.5-2.6-.3 1.8-.9 1.9-5.5 1.4-2.9-.3-5.6-.9-6.1-1.4-1.6-1.5-3.6-1-3.6.8 0 1-.6 3-1.4 4.5-1.3 2.5-1.2 3 1.5 6.6 2.4 3.2 2.6 4.1 1.4 4.6-.8.3-1.5 1.6-1.5 3 0 2.4-.2 2.4-5.5 1.9-4.6-.5-5.5-.3-5 .9.8 1.9-3.8 4-7.1 3.2-1.4-.4-2.4-.2-2.4.5 0 2.1-3.8 1.1-5.4-1.4-.9-1.4-2.4-2.5-3.4-2.5s-2.3-.5-3-1.2c-.8-.8-1.5-.8-2.6.1-.8.7-2.5.9-4 .5-2.3-.5-2.6-.3-2.6 2 0 1.9-.5 2.6-1.9 2.6-1.1 0-2.1.5-2.3 1.1-.2.7-1.7.7-5 0-2.6-.6-5.4-.8-6.2-.5-.8.3-2.8-.3-4.3-1.4-2.5-1.7-3.1-1.8-4.7-.7-1.1.9-1.6 2-1.2 3.1.4 1.1.2 1.5-.7 1.1-.8-.3-2-.1-2.7.3-.7.5-2.3.5-3.5 0-1.2-.5-2.8-.5-3.5 0-1.8 1.1-4.8-1-4.3-3 .3-1.2-.3-1.9-1.9-2.3-3.5-1-3.8-.9-3.8 1.3 0 1.3.7 2 2 2 1.1 0 2 .7 2 1.5 0 2.2-1.8 1.8-4.4-1-1.3-1.4-2.7-2.5-3.2-2.5-.4 0-2.7 2.1-5.2 4.7-3.8 4.3-4.3 4.5-4 2.3.2-1.4 1-2.8 1.8-3.3.9-.5.6-.6-1-.3-1.4.3-3.2-.1-4.2-1.1-1.1-1-1.8-1.2-1.8-.5 0 2.8-4.9 1-8.8-3.2-2.3-2.5-6.6-6.4-9.7-8.7-3-2.3-5.5-4.4-5.5-4.7 0-.3.6-2.1 1.2-4 1.2-3.1 1.1-3.6-1-5.3l-2.3-1.8 2-1.3c2.5-1.5 2.9-7.3.6-8.2-.8-.3-1.5-1.4-1.5-2.3 0-1-.7-2.9-1.7-4.2-1.2-1.8-1.3-2.8-.6-4.1 1.5-2.3.6-8.3-1.4-9.8-.9-.6-2.6-1.2-3.6-1.2-2.8 0-8.7-3.9-8.7-5.8 0-.8-2.5-3.9-5.5-6.7-4-3.8-5.5-6-5.5-7.9 0-3.2-2.1-5.6-4.9-5.6-2.5 0-7.1-4.2-7.1-6.4 0-1 .4-2.5.9-3.4 1-1.9-.2-4-3.4-5.8-1.2-.7-1.9-2-1.7-3.3.3-1.7-.2-2.1-2.2-2.1-1.6 0-2.6-.6-2.6-1.5 0-.8.7-1.5 1.5-1.5 1.2 0 1.3-.4.6-1.8-.5-.9-.9-2.8-.9-4.2 0-1.4-.6-5.5-1.3-9.3-1-5-1.7-6.6-2.7-6.2-.8.3-1.2 0-1-.7.3-.7-1.5-2.8-3.9-4.6-2.4-1.8-4.3-3.7-4.3-4.3 0-.6-.4-.8-1-.4-.5.3-1.7-.6-2.6-2-.9-1.4-2.2-2.5-2.9-2.5-.7 0-1.5-.7-1.9-1.5-.3-.8-2.1-2.3-4.1-3.2-1.9-.9-3.7-2.4-4-3.3-.3-1-1.5-2.6-2.6-3.6-1.6-1.5-2.2-1.6-2.8-.5-.7 1.1-1 1.1-1.7-.1-.5-.7-3.9-3.7-7.6-6.6-5.8-4.6-6.7-5.7-7.3-9.5-1-6.7-1.6-8-2.7-6.9-.7.7-2 .4-4.2-.9-1.7-1-3.9-1.9-4.8-1.9-1.4 0-1.7-.7-1.5-2.8.2-1.5.6-3.2.9-3.8.9-1.4-2.7-9-4.6-9.7-1.4-.5-1.4-1-.4-2.6.9-1.5.9-2.5 0-4.6-.7-1.4-1.2-3.4-1.2-4.4 0-2.6-9-7.2-11.3-5.7-1.1.7-2.1.8-3 .1-.8-.6-3.5-2.5-6-4.4-4.9-3.7-6-5.2-2.8-4.4 1.4.4 2-.3 2.6-2.9.4-1.8.7-3.9.6-4.6-.1-.6.8-1.2 2-1.2 1.5 0 1.9-.5 1.5-1.5-.3-.8-.1-1.5.4-1.5.6 0 1-.6 1-1.4 0-2.1 1.9-3 3.5-1.6.8.7 1.5.7 1.9.1.4-.5.2-1.2-.4-1.6-.5-.3-1-1.7-1-2.9 0-2.8-1.2-3.9-6.3-5.7-3.2-1.1-3.7-1.7-3.2-3.4.4-1.1.7-2.8.6-3.8 0-.9.6-1.7 1.2-1.7.8 0 .7-.4-.2-.9-1.1-.7-1.2-1.3-.3-2.3.6-.8.7-1.9.2-2.8-.5-.8-.6-1.8-.4-2.2.3-.4-1.2-4.5-3.3-9-3.8-8.1-3.8-8.4-2-10.1 1-1.1 1.6-2.5 1.2-3.6-1.1-3.5.4-5.2 4-4.5 2.1.4 3.5.1 4-.6.6-.9.9-.9 1.5-.1.5.9 1 .8 1.9-.3 1-1.2.8-1.7-.8-2.6-1.7-.8-1.9-1.5-1.1-2.9.5-1 .7-2.1.3-2.4-.3-.4 0-1.3.7-2.2 1-1.2 1-1.5-.1-1.5-2.7 0-7.9-4.5-7.9-6.9 0-1.7.4-2.2 1.8-1.8 3.1.9 3.7.9 6 .8 2.5-.1 3-2.8.6-3.8-.8-.3-1.3-1.1-1.1-1.8.3-.6-.4-1.7-1.4-2.3-1.6-1.1-1.9-.9-1.9.9 0 1.6-.4 1.9-1.7 1.5-1.9-.8-5.7 2.9-4.7 4.5.4.8.1.8-1.2.1-1.1-.5-2.4-.8-3-.5-.6.2-2.3-.8-3.8-2.3-1.4-1.5-2.9-2.4-3.3-2.1-.3.4.4 1.5 1.7 2.5 2 1.6 2.1 2.1.9 4-1.7 2.7-3.4 2.8-6.6.2-2.3-1.8-2.8-1.9-4.3-.5-2.1 1.9-2.5 1.9-4.4 0-1.3-1.3-1.5-1.3-2.1.4-.4 1.2-1.2 1.8-2.1 1.4-.9-.3-1.4.1-1.4 1.1 0 1.2-.6 1.5-2.5 1-1.4-.3-2.5-.2-2.5.4 0 .5-1.1 1.3-2.5 1.6-1.4.4-2.5 1.1-2.5 1.6 0 1.3-7.6.2-11.2-1.7-2.5-1.2-2.8-1.2-2.8.2 0 .9-.4 1.3-1 1-.5-.3-1 0-1 .9 0 1.5-.5 1.5-5.2.2-3.5-1-6.9.1-6.1 1.9.3.8-.2 1.7-1 2.1-1.3.5-1.4 1-.4 3.1.9 2.1.8 2.7-.6 3.4-1.3.8-1.5 1.4-.7 2.9.7 1.3.6 1.9-.4 2.3-1.8.7-1 4.6 1.5 7 1.8 1.7 1.9 1.7 1.9-.1 0-1.1-.7-2.5-1.6-3.3-1.4-1.1-1.4-1.3 0-2.1.9-.5 2.1-.6 2.6-.3.6.4 1.3-.7 1.6-2.4.5-2.5 1.2-3.1 3.1-3.1 1.4 0 3.6.9 5 1.9 1.9 1.6 3 1.8 4.9 1 2.4-.9 2.5-.8 2.3 2.4-.2 1.8 0 3.8.4 4.4 1.1 1.8-1.2 2.7-3 1.2-1.3-1.1-1.9-.9-4 1.6-3.4 4.3-4.6 6.5-3.3 6.5.5 0 1 .5 1 1.1 0 .6-.9.8-2 .4-1.2-.4-2-.2-2 .5s-.6.8-1.7.2c-1-.5-2.4-.7-3-.5-.7.3-1.3-.2-1.3-1s-.9-1.7-2-2c-1.3-.3-1.8-.1-1.3.6.4.6-.2.8-1.5.5-1.7-.5-2.2-.2-2.2 1.2 0 3.2-2 3.3-2.6.1-.4-2-1.3-3.1-2.3-3.1-.9 0-2.7-.7-3.9-1.6-2-1.4-2.2-1.4-2.2.2 0 1.3-.6 1.5-3.3 1-2.1-.4-4-.1-5.3.8-1.4 1-4.4 1.4-9.5 1.3-8.2-.2-7.8-.6-8.2 7.3-.2 4.1-1.3 5.2-2.3 2.5-1-2.4-3.4-1.8-6.6 1.7-1.8 2-3.2 2.8-3.6 2.1-.4-.6-2.9-1-5.8-.9-3.1.1-5.5-.3-6.3-1.1-.9-1-.9-1.3 0-1.3 1.6 0 5.1-3.9 6.7-7.3 2.5-5.7.6-16.3-2.6-14.3-.5.3-1.8-.3-2.8-1.2-1-1-2.6-1.6-3.5-1.4-.9.1-2.2-.4-2.9-1.3-.8-1-.9-1.5-.1-1.5.6 0 1.1-.7 1.1-1.5 0-1.8-3.7-3.8-5.7-3.1-.8.3-2.1-.1-2.9-.9-.9-.8-2.6-1.5-3.9-1.5-3.1 0-3.3-.7-2.3-5.8.6-2.5 1.5-4.2 2.3-4.2 1.1 0 1.3-.8.9-3-.5-2.5-.3-3 1.3-3 1 0 2.7-1 3.8-2.2 1.2-1.5 2-1.8 2.3-1 .7 2.1 2.2.2 2.2-2.9 0-2.2-1.1-4-4.4-7.2-5-4.7-12.2-8.8-14.8-8.3-1.2.2-5.7-4.7-5.2-5.6.4-.5-.3-1.8-1.5-2.9-1.2-1.1-2.1-3-2.2-4.2 0-1.2-.3-1.6-.6-1-.7 1.8-2.3 1.6-2.3-.1 0-.8-2.2-3.8-5-6.6-2.7-2.8-5-5.9-5-6.8 0-1-1.5-4.1-3.4-6.9-1.9-2.9-3.9-6.8-4.6-8.7-.6-2-1.6-3.6-2.1-3.6s-2.1-.7-3.5-1.7c-1.9-1.2-2.2-1.8-1.2-2.4.9-.6.5-.9-1.2-.9-2 0-2.5-.5-2.5-2.5 0-1.4.4-2.5.8-2.5.5 0 .5-.5.2-1-.3-.6-.1-1 .4-1 1.9 0 1.2-1.7-.9-2.3-1.9-.5-2.6-2.9-2.2-7.7.2-2.2-1.8-7.9-2.9-8.6-.6-.3-2 .2-3.1 1.3-2.1 1.8-2.1 1.8-1.5-1.9.6-3.9-.8-6.1-2.4-3.7-.6 1-1.2.4-2.3-2.2-.8-2-2.5-4.3-3.8-5.3-2.3-1.6-2.3-1.6 1.2-1 1.9.3 4.4 1.4 5.4 2.3 1.3 1.1 2 1.2 2.3.5.3-.9 1.9-.6 5.5.7 3.8 1.4 5.5 1.6 6.5.8 1-.9 1.3-.7 1.3.7s.3 1.5 1.2.6c.7-.7 2.2-1.2 3.5-1.2 1.8 0 2.3-.6 2.3-2.4 0-1.5-.7-2.6-1.7-2.8-1-.3.1-.5 2.4-.6 2.4 0 4.6-.3 5-.5.9-.6 15 1.7 17.6 2.8 1.1.5 1.7.3 1.7-.6 0-.7.3-1 .6-.6.3.3 1.5-.3 2.6-1.3s2.7-1.6 3.6-1.3c1 .4 1.3.2.8-.6-.4-.6-.2-1.8.4-2.6.6-.8 1.1-2.4 1-3.7-.1-1.3-.2-2.7-.1-3.1.2-1.2 3.8 1.1 8.2 5 2.2 2 4.2 3.3 4.6 2.9.4-.3 1.7.3 2.9 1.5 1.3 1.2 2.4 1.7 2.8 1 .4-.5 1.3-.8 2.1-.4.8.3 1.5 0 1.5-.6s.9-1.1 2-1.1c1.9 0 1.9-.1-.1-3.5-1.8-3-2.5-3.4-4.7-2.8-1.5.3-3 1-3.3 1.5-.5.8-4.2-.4-9.9-3.2-.8-.4-1.7-1.8-1.8-3.1-.2-1.3-1.7-3.5-3.3-4.9-1.6-1.4-3.8-4.1-4.8-6-1.6-3.1-2.3-3.5-5.9-3.5-2.4-.1-4.9-.8-5.9-1.7-1.8-1.6-1.9-1.6-3.1.2zm-24.2 32.6c0 1.7-2.2 1.4-2.8-.4-.2-.7.3-1.2 1.2-1.2.9 0 1.6.7 1.6 1.6zm39 117.8c0 1.2-2.5 4.6-3.3 4.6-.1 0-.2-1.4-.2-3 0-2.2.5-3 1.8-3 .9 0 1.7.6 1.7 1.4zm3 1.6c0 .5-.2 1-.4 1-.3 0-.8-.5-1.1-1-.3-.6-.1-1 .4-1 .6 0 1.1.4 1.1 1zm103.8 29.9c-.7.9-1.3 1.7-1.4 1.9-.1.2-.1-.8 0-2.1 0-1.5.6-2.3 1.4-2 1 .4 1 .9 0 2.2zm145.2 171.1c0 .5-.5 1-1.1 1-.5 0-.7-.5-.4-1 .3-.6.8-1 1.1-1 .2 0 .4.4.4 1zm62 122c0 .5-.4 1-1 1-.5 0-1-.5-1-1 0-.6.5-1 1-1 .6 0 1 .4 1 1zm15.5 4c.3.5-.1 1-.9 1-.9 0-1.6-.5-1.6-1 0-.6.4-1 .9-1 .6 0 1.3.4 1.6 1zm-16.9 21.3c.4.4 0 .7-.9.7s-1.8-.4-2.1-.9c-.7-1 2-.9 3 .2zm.9 10.3c-.8.9-1.3 1.9-1 2.4.3.4-.5.5-1.7.2-1.8-.5-1.9-.7-.6-1 .9-.2 2-1.2 2.3-2.3.4-1.1 1.1-1.7 1.6-1.4.5.4.2 1.3-.6 2.1zm-301.5 5.9c.8 1 1.7 1.2 2.3.6 2-2 13.4 6.6 12.4 9.3-.5 1.2-1.3 1.3-4.4.3-2.1-.6-4.5-1.6-5.3-2.3-1-.9-2.1-1-3-.4-.8.5-2.3.7-3.4.4-1.3-.4-1.6-.2-1.1.6 1 1.7-2.7-.4-4.4-2.4-1-1.1-.7-2 1.6-4.4 3.3-3.6 3.6-3.7 5.3-1.7zm-14 1.1c0 1.4-.3 1.4-1.5.4-.8-.7-1.5-1.4-1.5-1.6 0-.2.7-.4 1.5-.4s1.5.7 1.5 1.6zm-4.2 1.8c-.1 1.5-.7 2.2-1.5 1.9-1.8-.7-1.6-4.3.2-4.3.9 0 1.4.9 1.3 2.4zm4.8 2.1c.8.8 2.1 1.2 2.9.9.8-.4 1.5-.1 1.5.5 0 1.8-3.6 1.2-5.5-.9-2.1-2.3-1.1-2.8 1.1-.5zm58.4 48.5c2.3 2.3 2.7 6 .6 6-.7 0-1.7-1.5-2.1-3.3-.5-2.2-.9-2.6-1.2-1.5-.7 2.8-3.3 2.2-3.3-.7 0-3.1 3.1-3.4 6-.5zm-9.5 14.9l4 .7-3.9 1.7c-2.1.9-4.4 1.7-5 1.7-1.6 0-3.6-2.1-3.6-3.7 0-1.4 2.5-1.6 8.5-.4zm287.3 69.3c.7.7 1.2 2.1 1.2 3.2 0 1.8-.1 1.9-2 .1-2-1.8-2.7-4.5-1.2-4.5.4 0 1.3.5 2 1.2zm-106.9 50.7c.8 1.4.6 2.2-.8 3.5-2.5 2.3-3.2 2-2.1-1 .6-1.4.8-3 .4-3.5-.3-.5-.1-.9.5-.9s1.5.8 2 1.9zm-3.9 7.1c0 .5-.5 1-1.1 1-.5 0-.7-.5-.4-1 .3-.6.8-1 1.1-1 .2 0 .4.4.4 1zm79.4 119.6c.5 1.4.4 1.5-.9.4-1.7-1.4-1.9-2-.6-2 .5 0 1.2.7 1.5 1.6z"/><path d="M138.48 39.088c1.1.3 2.5.9 3.2 1.5.7.5 1.3.5 1.7 0 .6-1-2.7-2.3-5.4-2.1-.8.1-.6.3.5.6zM139.58 43.288c-.3.5.1 1.4.9 2.1 1.3 1 1.5.9 1.5-.9 0-2.1-1.4-2.8-2.4-1.2zM51.08 72.988c0 1.1.3 1.4.6.6.3-.7.2-1.6-.1-1.9-.3-.4-.6.2-.5 1.3zM47.98 76.888c0 1.6 1.6 2 2.4.6.3-.5-.1-1.1-.9-1.5-.9-.3-1.5 0-1.5.9zM83.98 119.688c0 1.3-.5 2.8-1.2 3.5-2.1 2.1.5 1.3 2.8-.9s2.2-4.9-.2-4.9c-.8 0-1.4 1-1.4 2.3zM68.98 120.388c2 1.3 3.3 1.3 2.5 0-.3-.6-1.4-1-2.3-1-1.5 0-1.5.2-.2 1zM78.38 125.288c.7 1.1-4.1 6-6 6.1-1.3 0-3.4 4.4-3.4 7.1 0 1.6-.4 1.9-2 1.4-1.4-.4-2.2-.1-2.6 1-.5 1.1-1.4 1.5-3 1.1-1.5-.4-2.6-.1-3.1.9-1.1 1.9-9.1 2.2-13.2.5-3.7-1.5-6.1-.8-6.1 2 0 1.1-.7 2-1.5 2s-1.5.9-1.5 1.9c0 1.1-.4 2.2-1 2.6-.5.3-.6 1.3-.3 2.2.5 1.3.1 1.5-2 1.1-3.2-.6-3.5 1-1.1 6.8 2.3 5.5 1.1 13.9-2.1 15.7-1.3.6-2.5 1.6-2.6 2.2-.1.5-.4 1.5-.6 2.2-.9 2.3 2.8 6.3 5.8 6.3 1.5 0 4.4.8 6.3 1.7 2.7 1.4 3.7 2.6 4.2 5.3.9 4.6 2.2 7 3.8 7 .8 0 1.9.7 2.6 1.5.7.9 1.5 1.3 1.8 1 .7-.7 3.4 6.4 3.3 8.7 0 1 .6 1.8 1.4 1.8.7 0 1.7.9 2 2 .3 1.1 1.2 2 1.8 2.1.7 0 2.3.2 3.7.4 3.3.4 8-1.6 8-3.5.1-2.5 2.6-6.4 3.4-5.1.4.6.2 1.1-.3 1.1-.6 0-1.1 1.8-1.1 4s.4 4 .8 4c.7 0 1.1 1.9 1.2 6.4.1 1.1-.6 2.6-1.5 3.5-1.3 1.4-1.5 1.4-1.5-.1 0-2-2.6-3.1-4.8-1.9-2.3 1.2-4.6-.6-5-3.8-.4-3.4-.7-3.6-3.2-1.1-1.4 1.4-2.8 1.9-3.8 1.5-.9-.4-2.4-.7-3.2-.7-2.9 0-8.9-2.1-8.4-2.9.3-.5.1-.9-.5-.9-.5 0-1.1-1.2-1.3-2.8-.2-2.1-.8-2.6-2.3-2.4-3.6.7-7.7.3-9-.8-.9-.7-1.6-.6-2.5.5-.9 1.1-2.2 1.4-4.2 1-2.2-.5-2.7-.3-2.2.8.6 1.8 6.2 2.8 8.6 1.6 1.1-.6 2.2-.4 3.2.7 2 2 2 3.4.1 3.4-.9 0-1.5.9-1.5 2.5 0 1.4-.8 2.9-1.9 3.5-2.7 1.4-2.7 1.4-4.1-2-1.1-2.6-1.6-2.8-4.3-2.3-2 .4-2.8.3-2.4-.5 1.1-1.6-3.4-.1-5.2 1.8-2.8 3-5 7.8-4.4 9.9.3 1.2.1 2.1-.6 2.1s-.8.8-.1 2.5c1 2.5.7 2.9-3.5 5-1.1.6-2.1 1.9-2.3 3-.2 1.1-1.1 2.8-2 3.7-1.2 1.4-1.2 1.8-.2 1.8 1.1 0 1.1.3.2 1.2-1.4 1.4-1.6 6.4-.4 7.2.5.3.9 2.1 1 4.1.1 3 1.1 4.5 5.6 8.8 3.1 2.9 6.9 6.3 8.7 7.6 2.6 2.1 3 2.9 2.5 5.5-.8 3.9-.8 4 0 10.4.4 2.9.9 5 1.2 4.8 1.1-1.2 4.2 1.7 4.2 3.9 0 4.4 3.3 4.2 9.9-.7 1.3-1 3.6-1.8 5.2-1.8 2.1 0 2.7-.4 2.3-1.5-.4-.8-.1-1.5.5-1.5s1.1.4 1.1 1c0 1.5 1.6 1.2 3.4-.6.9-.8 2-1.2 2.6-.9.5.3 1-.1 1-1.1 0-1.3.7-1.6 3.3-1.1 4.5.7 6-.3 5.1-3.7-.5-2.1-.2-3.1 1.5-4.2 1.1-.8 2.1-2.4 2.1-3.5s.5-1.7 1-1.4c.6.3 1-.5 1-1.9 0-1.3.3-3.2.7-4.2.4-1.1.2-1.5-.4-1.1-.6.4-1.8-.2-2.8-1.3-1.3-1.5-1.6-3-1.3-6.5.5-4.1.4-4.5-1.6-4.5-1.6 0-1.8-.2-.7-.9.7-.5 1.1-1.3.8-1.8-.3-.5-.2-1.5.3-2.3.8-1.3-.7-3.8-5.5-9.3-1.3-1.4-1.5-2.8-.9-6 .5-3.4.8-3.8 1.5-2.2 1.1 2.9 1.1 4.7-.1 4-.5-.3-1-.1-1 .4 0 1.7 1.8 1.3 2.8-.5.7-1.2 1.1-1.3 1.7-.5.4.7.4 1.5.1 1.8-1 1.1 3.5 5.2 5 4.6.9-.3 1.4.2 1.4 1.5 0 1.1.7 2.5 1.5 3.2 1.8 1.5 2 3.1.3 2.7-.7-.1-1.3.5-1.3 1.3s.5 1.5 1 1.5c.6 0 1.6.4 2.3.8.6.5 1.2.5 1.2.1s.6.1 1.4 1.2c1.4 1.8 1.5 1.8 2.1-.9.6-2.2 1-2.5 2.2-1.6.7.7 1.2 1.8.9 2.4-.6 1.6.4 2.8 3.4 4.1 2.2 1 2.9.7 6-2.2 1.9-1.9 4.2-3.4 5.1-3.4 1.2 0 1.6-1.2 1.6-5.8 0-3.1.6-7.1 1.4-8.7 1.8-4.3 3.9-20.7 2.8-22.1-1-1.2-.8-9.9.3-10.9.4-.4.4-1.3.1-2.1-.3-.8.1-1.4 1.1-1.4s1.6.8 1.6 2.2c0 2 .1 2 1.8.5 1-1 2.2-1.4 2.5-1.1.8.9 2.9-4.6 2.3-6.1-.2-.7 0-1.8.4-2.6.6-.9.1-2.3-1.7-4.1l-2.7-2.8h2.7c3.1 0 3.5-1.7 1-3.5-1.5-1.1-1.9-.9-2.8.9-1.4 2.7-6.1 5-10.2 4.9-2.7-.1-3.3.3-3.3 1.9 0 1.1-.8 2.2-2 2.5-2.8.7-2.5 3.8.5 5.1 3.1 1.5 3.1 2.4 0 3.9-2.9 1.3-6.1.7-6.9-1.4-.4-1-1.3-1.2-2.8-.8-1.9.6-2.1.5-1-.6.6-.7 1.2-2.2 1.2-3.4 0-1.2-.6-2.7-1.2-3.4-1.1-1.1-.8-1.2 1.2-.6 1.4.4 2.7 1.2 2.8 1.6.2.5.8.9 1.3.9.4 0 .6-.7.3-1.5s.5-2.5 2-3.9c2.5-2.2 2.6-2.7 1.7-6.7-.7-3-2.2-5.3-5-7.9-2.2-2.1-4.3-3.5-4.6-3.2-.3.3-.5-.5-.5-1.7s-1.2-3.3-2.7-4.7c-2.3-2.1-2.4-2.6-1.2-4.2 3-3.7 4-6.4 3.4-9.2-.3-1.6-.2-3.1.4-3.5.6-.3 1.1-1.5 1.1-2.6 0-2.5 2.8-8 4.9-9.6.9-.7 1.2-1.3.7-1.3s-.3-.7.4-1.5c.6-.8.9-2.3.6-3.3-.4-1.2.3-2.8 2-4.7l2.5-2.8-3.5-2.9c-2-1.6-3.3-3.5-3-4.3.3-.7-.4-1.9-1.6-2.5-1.5-.8-2-.8-1.6-.1zM203.18 128.088c.5 2.5 2.8 2.8 2.8.4 0-1.2-.6-2.1-1.6-2.1-.9 0-1.4.7-1.2 1.7zM36.28 138.088c-1.6.6-1.6 1.3.3 3.8 1.3 1.7 1.6 1.8 2.4.5 2.3-3.5.8-5.8-2.7-4.3zM363.98 163.688c0 1.4-.5 1.6-2.5 1.1-1.9-.5-2.5-.2-2.5 1.1 0 1.4.6 1.6 2.8 1 3.6-.9 4.3-1.7 3.2-3.5-.8-1.3-1-1.2-1 .3zM348.48 237.388c.3.5 1.4 1 2.3 1 1.5 0 1.5-.2.2-1-2-1.3-3.3-1.3-2.5 0z"/><path d="M65.98 267.388c0 .5.7.7 1.5.4.8-.4 1.5-.8 1.5-1 0-.2-.7-.4-1.5-.4s-1.5.4-1.5 1zM716.98 373.188c0 2.1.5 4.3 1.1 4.9.6.6.8 1.7.4 2.4-1.6 2.5-1.3 6.9.5 7.9 2.2 1.2 7.2.8 8.8-.7 1.6-1.6 1.6-6.3-.2-6.3-2.4 0-7.4-5.4-8.1-8.8-.9-4.4-2.5-4-2.5.6zM687.68 374.488c.5 1.8-3.7 6.9-5.6 6.9-.6 0-.8.7-.5 1.5.5 1.2-.4 1.5-4.8 1.5-5.7 0-10.8 1.7-10.8 3.6 0 1.7-3.1 2.6-4.6 1.3-.9-.7-1.8-.7-3.3 0-2.2 1.2-5.2.5-6.4-1.6-.4-.7-2-1.3-3.5-1.3s-3.9-.7-5.4-1.4c-3.4-1.8-3.6-.7-.4 2.5 6.1 6.2 8.3 7.4 13.4 7.2.6-.1 1.2.5 1.2 1.2 0 .6.9 2 2 3 1.2 1 1.8 2.5 1.6 3.2-.3.7.1 1.3.8 1.3.8 0 1.6-.5 1.8-1.1.2-.5 1.2-1.1 2.3-1.3 1-.1 2.4-1.1 2.9-2.2 1.7-3 2.9-3.4 4.8-1.7 1.8 1.7 6.8 1.1 6.8-.8 0-.6.4-.8.9-.5.5.3 2.5-.1 4.6-1 2.8-1.1 4-1.2 5.1-.3 1.1.9 1.8.7 3.2-1.1 2.4-2.9 1.8-9.6-.9-10.3-1.2-.3-1.9-1.4-1.9-3.1 0-2 .4-2.4 1.7-1.9 1.3.5 1.5.2 1-1.1-.4-1-.7-2.4-.7-3.1 0-.9-1.1-1.3-2.9-1.3-2.2.1-2.7.5-2.4 1.9zM700.28 373.388c-2.8 1.1-3.1 5-.5 7.3 1.6 1.5 2 1.5 4 .1 1.3-.9 2.2-2.1 2.1-2.7-.3-2.7.2-3.7 1.9-3.7 1.4 0 1.5-.2.2-1-1.8-1.2-4.8-1.2-7.7 0zM709.18 377.088c.4 2.4 5.8 3.1 5.8.8 0-.9-.4-1.3-1-1-.5.3-1 .1-1-.4 0-.6-.9-1.1-2.1-1.1-1.4 0-1.9.5-1.7 1.7z"/><path d="M683.48 377.388c-.3.5-.1 1 .4 1 .6 0 1.1-.5 1.1-1 0-.6-.2-1-.4-1-.3 0-.8.4-1.1 1zM694.98 380.988c0 1 3.1 3.6 3.7 3.1 1-1-.6-3.7-2.2-3.7-.8 0-1.5.3-1.5.6zM668.48 401.388c.4.6-1.2 2.8-3.4 4.8-3.2 2.9-3.9 4-2.9 5 .9.9.7 1.6-.7 3.2-1.6 1.8-1.7 2.3-.5 3 2.9 1.9 4.2.6 1.8-1.8-1.4-1.4-.4-1.6 2-.3.9.5 3.8 1.1 6.3 1.5 4.1.6 4.7.5 5.2-1.4.6-2.3-.3-2.6-2.2-.8-1.1 1.1-1.3.9-.8-1 .3-1.2.1-2-.4-1.6-.5.3-.9-.5-.9-1.8 0-2.1-.4-7.1-.8-9.1-.1-.4-.9-.7-1.8-.7-.8 0-1.2.5-.9 1zM505.48 424.388c-1 1.7 1.5 8.9 3.5 10 3.3 1.8 4 1.2 2.4-2.5-.7-1.9-1.4-4.3-1.4-5.4 0-1-.7-2.2-1.6-2.5-2.1-.8-2.2-.8-2.9.4zM516.48 441.388c-.8 1.3.3 5 1.6 5 1.2 0 1.2-4.7 0-5.5-.5-.3-1.2-.1-1.6.5zM527.48 444.388c-.3 1.1-1.2 2-1.9 2s-2.1.9-3 1.9c-1.7 1.9-1.7 2.1.4 4.8 1.7 2.4 2.7 2.9 5.1 2.5 2.6-.4 2.9-.8 2.9-4.3 0-2.1.5-4.1 1-4.4 1.4-.8-.6-4.5-2.5-4.5-.7 0-1.7.9-2 2zM190.38 452.788c-.8.8-.8 1.8-.2 2.9.8 1.5 1.1 1.5 2.4.3.7-.8 1.1-2.2.8-3-.7-1.9-1.5-2-3-.2zM182.98 460.988c0 .8.5 1.2 1 .9.6-.3 1-1 1-1.6 0-.5-.4-.9-1-.9-.5 0-1 .7-1 1.6zM186.28 466.088c.9.9 2 1.3 2.4.9.4-.4.1-1.1-.7-1.6-2.5-1.6-3.5-1.1-1.7.7zM262.98 558.988c0 .8.5 1.2 1 .9.6-.4.8-1.1.5-1.6-.9-1.4-1.5-1.1-1.5.7zM258.58 560.888c-.3.9 0 1.5.9 1.5.8 0 1.5-.7 1.5-1.5s-.4-1.5-.9-1.5-1.1.7-1.5 1.5zM158.48 639.388c.3.5.8 1 1.1 1 .2 0 .4-.5.4-1 0-.6-.5-1-1.1-1-.5 0-.7.4-.4 1zM371.98 675.988c1.7 2 3 4.3 2.8 5.2-.2.9-2.3 2.2-5.1 3.1-4.4 1.3-5 1.3-7.6-.2-3.6-2.1-4.1-2.1-4.1-.2 0 .8.9 1.5 2 1.5 1.7 0 1.9.5 1.4 2.4-.5 2.1 0 2.7 3.9 4.4 2.5 1.1 4.8 2.9 5.1 4 .5 1.4 1.3 1.8 2.6 1.5 2.1-.6 2.7-2.8 1-3.8-1.6-1-1.2-2.5.7-2.5 1.5 0 1.5-.1 0-1.8-1-1-1.7-2.3-1.7-2.8s.4-.2 1 .6c.7 1.1 1.1.8 1.9-1.5.6-1.7 1.5-3.8 2.1-4.7.7-1.3.5-2-.8-2.7-1-.5-2.4-2.1-3.2-3.5-.7-1.4-2.2-2.6-3.3-2.6-1.7 0-1.5.5 1.3 3.6zM379.08 701.488c1.1 2.2.8 14.9-.4 14.9-.5 0 .2.9 1.7 2.1 1.5 1.2 2.6 3 2.6 4.5 0 1.7.6 2.4 1.9 2.4 1.5 0 1.9-.8 1.9-4.3.1-2.3-.6-5.2-1.4-6.5-.9-1.4-1.2-2.8-.7-3.5.5-.7.8-2.6.7-4.2-.1-1.7.2-3.7.7-4.7.7-1.3.2-1.7-3.5-2-3.8-.3-4.3-.1-3.5 1.3zM401.58 723.788c-1.9 4-2 4.6-.6 4.6.6 0 1-.7 1-1.5 0-1.1.8-1.3 3-.9 3.1.7 4.3-1.1 1.5-2.2-.8-.4-1.5-1.2-1.5-2 0-2.5-1.7-1.5-3.4 2zM584.88 732.788c-.7 1.4-1.6 2.3-2 2-.5-.2-1.6-.1-2.6.4-1 .6-3.1 1.6-4.8 2.3-4.4 2-11 6.9-11 8.1 0 2.9-2.6 1.5-4.3-2.4-1.9-4.4-5.2-8.1-5.2-5.9 0 .7-1.1 2.4-2.5 3.9-2.5 2.7-3.2 5.6-1.7 6.6.4.3.6 2 .4 3.9-.3 2.3-.9 3.3-2 3.3-6 0-7.2.5-7.2 2.4 0 2.5-2.5 2.6-3.9.2-.8-1.3-1.2-1.4-2.2-.5-.9.9-1.8.9-4-.3-3.6-1.8-3.7-.7-.4 2.9 2.8 2.9 3.6 3.2 5.1 1.7 1.3-1.3 8.2 2.1 10.9 5.4 1.5 1.9 2.7 2.3 4.8 1.9 3-.6 3.5-2.4 1.1-4.7-1.3-1.3-1.3-1.6-.1-1.6s1.3-.8.6-4.3c-.4-2.3-1.1-5-1.4-5.9-.6-1.6-.3-1.7 2.6-1.1 4.9.9 7.9 2.1 7.9 3.2 0 .5 1.2 1.1 2.7 1.4 2 .4 3.3-.1 5-1.9 1.2-1.3 3.2-2.4 4.5-2.5 9.2-.3 9.3-.4 9.6-2.7.2-1.2.9-2.2 1.6-2.2 1.3 0 1.4-3.9.2-5.9-.5-.8-.4-1.6.2-2 1.6-1 2-7.3.5-7.8-.7-.3-1.8.7-2.4 2.1z"/><path d="M607.78 735.788c-1 .7-1.4 1.6-.8 2.2 2.3 2.4-7 8.5-13.7 8.9-4 .2-6 1.8-6.8 5.4-.8 3.5-4.8 5.7-6.5 3.6-1.7-2.1-2.6-1.2-3.9 4-.8 3.1-.8 5.2-.1 6.4 1.2 2.3-1.8 9-3.8 8.4-.7-.3-1.9 0-2.7.7-.9.7-3 .9-6.1.4-3.4-.5-4.5-.4-4 .5.4.6.1 1.1-.8 1.1-1 0-1.6-.9-1.6-2.3 0-1.2-.4-2.7-.8-3.3-1-1.6-4.2-1.3-4.2.3 0 .8-.4 1.1-1 .8-.5-.3-1-.2-1 .4 0 .6-.8.7-1.7.4-1.3-.5-1.5-.3-.8 1.3 1.9 4.7 1.8 6.5-1 9.4-1.7 1.7-2.3 3-1.6 3.4 1.5 1 1.4 7.6-.1 7.6-.9 0-.9.3 0 1.2 1 1 .8 1.6-1 3l-2.3 1.7 2.8 2.6c2.8 2.7 3.5 4.5 1.6 4.5-.5 0-.7.5-.4 1.1.4.6 1.3.8 2.1.5.8-.3 1.4-.1 1.4.3 0 1.7-3.3 2.1-5 .6-2-1.8-3.1-1.9-2.5-.2.3.7-.4 3-1.4 5.1-1.6 2.9-1.8 4.3-1 5.8 1.4 2.5.4 4.9-1.6 4.2-1.7-.7-2.1 1.1-.5 2.1.7.4.7 1.2 0 2.5-1.2 2.2.7 4.1 2 1.9 1.3-2 4 .8 4 4.2 0 2.2.5 2.9 2 2.9 1.1 0 2-.5 2-1.1 0-.6.7-.9 1.5-.5.9.3 1.5 0 1.5-.9 0-2.4 1.6-1.7 4.3 1.9 1.5 1.8 3.6 3.6 4.9 3.8 1.3.3 3.1.9 4.1 1.3 1.2.5 1.7.3 1.7-.8 0-1.7 3.4-1.3 5.9.7.7.6 2.1 1.1 3 1.1 1.2 0 1.7 1.1 1.9 4.2.3 4.5 1.5 5.5 3 2.7.5-.9 1.4-1.4 2-1 1.3.8.6 13-.8 13.4-.6.2-1 1-1 1.8 0 .9-.4 1.2-1 .9-1.4-.9-5 1.3-5 3.1 0 .8-1.1 2.6-2.5 4s-2.5 2.9-2.5 3.4c0 .6-.9 1-2 1-1.9 0-2 .2-.5 2.9 2 4 2.7 4.3 6.8 2.6 3.1-1.3 3.6-1.3 4.7 0 .7.8 2.1 1.5 3.2 1.5 2.1 0 6.1 1.9 11.3 5.4 2.8 2 4.1 2.3 7 1.6 3.2-.7 3.5-.6 3.5 1.6 0 1.6-.6 2.4-1.7 2.4-1.7 0 3.9 4 7.7 5.5 7.4 3 7.9 3.4 8.2 6.7.2 2.6.8 3.4 2.8 3.6 1.3.2 3.6 1.4 5.1 2.6 1.4 1.2 4 2.8 5.8 3.5 1.7.8 3.1 1.7 3.1 2.2 0 .4 1.7 1.1 3.8 1.4 2 .4 5.4 1.5 7.4 2.6 2.1 1.1 6 2.3 8.8 2.6 2.7.3 5 .9 5 1.4 0 .4 1.6 1.3 3.5 1.9 2.9 1 4.1.8 8.1-1 2.6-1.1 5.5-1.8 6.4-1.5 1.1.3 2-.1 2.4-1.1.5-1.3.9-1.4 2.1-.4 1.2 1 1.5.9 1.5-.4 0-1 .5-1.4 1-1.1.6.3 1.3-.1 1.6-1 .5-1.1 1.4-1.4 3.8-1 2.3.5 3.9.1 5.8-1.4 1.4-1.2 3.2-2.1 4-2.1.7 0 2.3-.7 3.5-1.5 1.2-.9 2.6-1.4 3-1.3.4.2 2.1-.9 3.6-2.4 1.6-1.5 4.2-3.9 5.8-5.4 1.6-1.5 2.9-3.3 2.9-4.1 0-.7.5-1.3 1-1.3.6 0 1-.9 1-1.9 0-1.1.9-2.3 2.1-2.6 3.8-1.3 9.7-7.4 9.2-9.5-.5-1.7 0-2 3.5-2 4.4 0 6.2-2.1 4-4.8-1.1-1.3-.9-1.4 1.2-.7 4.8 1.4 8.8 3.3 9.4 4.4 1 1.6 3.6 1.3 3.6-.4 0-.8.7-1.5 1.5-1.5.9 0 1.5-.9 1.5-2.3 0-3.1-1-4-2.4-2.3-1.5 1.8-7.6.1-8.3-2.3-.3-1-1.6-2.4-2.9-3.1-2-1.1-2.8-1.1-4.8 0-3.1 1.6-8.7.6-11.1-2-1.8-2-1.8-2-3.5 1.9-1.5 3.2-2.4 3.9-5.6 4.4-2.2.4-4.7 1.6-5.6 2.7-1.9 2.2-3.3 2.5-4.3 1-.6-1-12.6-.2-13.5.9-1.3 1.5-5.1 3-6.4 2.5-1-.4-1.7.2-2.2 1.9-.5 2.3-1.3 2.7-6.1 3.3-3 .3-5.7 1.2-5.9 1.9-.3.8-2.2 1-6 .7-4.2-.4-5.9-.1-7.4 1.3-1 .9-2.3 1.4-2.9 1.1-.5-.3-1.1-.1-1.3.5-.4 1.3-8.8 2.5-8.8 1.2 0-.5-2-2.4-4.5-4.2-4-2.9-4.5-3.7-4.5-7.1 0-2.1-.4-4.2-1-4.5-2.1-1.3-.9-2.5 2.5-2.5 4.5 0 4.7-2.5.5-6.5l-3-2.9v4.2c0 2.9-.4 4.2-1.4 4.2-.9 0-1.3-1.1-1.2-3.3.1-2.7-.2-3.2-2.1-2.9-1.4.2-2.3-.4-2.8-1.8-.7-2.3-5-4.4-7.1-3.6-1.4.5-7.4-6-7.4-7.9 0-1.6-6.3-7.5-7.9-7.5-1.9 0-4-3.1-4.1-5.8 0-1.3-1.2-3.9-2.6-5.7-1.4-1.9-2.3-3.8-2-4.4.3-.5.3-1.6 0-2.5-.5-1.3-1.8-1.6-6.1-1.3-4.2.2-5.8-.1-7-1.5-.9-1-2.4-1.8-3.3-1.8-.9 0-2.5-.7-3.6-1.5-1-.8-3.2-1.5-4.8-1.5-1.6 0-4.4-1-6.4-2.2-3.3-2-3.4-2.2-1.3-2.9 2.8-1.1 2.7-1.4-.9-1.4-1.7 0-3 .5-3 1.2 0 2-1.8 1.5-3-.6-1.4-2.8-1.3-3.1 1.4-3.1 2.1 0 2.4-.6 3-4.9.4-2.7 1.2-5.1 1.9-5.4.9-.3.9-.9-.1-2.6-1.6-2.7.3-2.8 2-.1 2 3.2 10.8 2.5 10.8-.8 0-1.5.2-1.5 1.7 0 1.5 1.6 1.8 1.5 4.6-.8 3.3-2.8 4.5-2.7 6.1.2.6 1 1.2 2.1 1.3 2.3.8 1.3 3.3-2.6 3.3-5 0-2.9 3.3-5.8 4.4-4 .7 1.1 4.6.2 4.6-1 0-.5 1.4-.6 3-.3 4.1.9 3.9-1.1-.5-3.7-4.3-2.6-4.9-4.4-3.6-11.6 1-5.3 3-8.3 5.4-8.3.5 0 .7-1.4.3-3.1-.4-2.3-.2-3.5 1-4.4 1-.7 1.7-2.8 1.8-5.5.2-2.7.9-4.7 2-5.5.9-.7 1.6-1.9 1.5-2.7-.5-2.7 2.4-6.8 4.8-6.8 2.7 0 2.7-.2 1.1-3.3-1.8-3.2-2.9-3.7-5-2.4-1.6 1-2.2.9-3.2-.6-1.6-2-1.6-2-3.8-.3zm-11.8 154.6c0 .5-.2 1-.4 1-.3 0-.8-.5-1.1-1-.3-.6-.1-1 .4-1 .6 0 1.1.4 1.1 1z"/><path d="M537.98 793.288c0 2.2-.4 3-1.2 2.5-.6-.4-.4.3.5 1.7 2.3 3.2 2.2 3.6-1.5 5.5-3 1.6-3.1 1.7-1.3 3 2.4 1.8 5.3 1.8 7.1-.1 1.2-1.2 1.2-1.8.2-3.6-1-1.7-1-2.3-.1-2.6 1-.4 1-.9.1-2.6-.7-1.2-1.3-2.8-1.4-3.6-.2-.7-.7-1.8-1.3-2.4-.8-.8-1.1-.2-1.1 2.2zM402.98 811.388c0 .5.5 1 1.1 1 .5 0 .7-.5.4-1-.3-.6-.8-1-1.1-1-.2 0-.4.4-.4 1zM529.78 812.188c-1.6.2-2.8.8-2.8 1.3s-.7.9-1.6.9c-.8 0-1.3.4-1 .9.7 1.1-3.9 3.1-7.3 3.1-2.4 0-2.8.4-2.4 2.2.3 1.9-.7 3-5.9 6.2-3.5 2.2-5.8 4.1-5.1 4.3 1.7.6 13.4-5.2 18.8-9.2 2.5-1.9 4.5-3.2 4.5-2.7 0 .4.4.1.8-.6.7-.9 1.6-1 4.1-.1 3.7 1.3 4.1 1.1 4.6-2.9.4-3.3-1.2-4-6.7-3.4zM420.48 814.388c.3.5 1.1 1 1.6 1 .6 0 .7-.5.4-1-.3-.6-1.1-1-1.6-1-.6 0-.7.4-.4 1zM415.48 824.388c.3.5.8 1 1.1 1 .2 0 .4-.5.4-1 0-.6-.5-1-1.1-1-.5 0-.7.4-.4 1zM419.48 826.088c1.6 1.5 4.4 1.7 6.5.3.8-.5 1.3-1 1-1-.3-.1-2.4-.2-4.6-.4-3.4-.2-3.9 0-2.9 1.1zM757.98 881.788c0 .9 3 1.4 3.5.6.4-.6-.3-1-1.4-1-1.2 0-2.1.2-2.1.4z"/></g></svg>