<?xml version="1.0" standalone="no"?>
<!DOCTYPE svg PUBLIC "-//W3C//DTD SVG 20010904//EN"
 "http://www.w3.org/TR/2001/REC-SVG-20010904/DTD/svg10.dtd">
<svg version="1.0" xmlns="http://www.w3.org/2000/svg"
 width="751.090294pt" height="860.195391pt" viewBox="0 0 751.090294 860.195391"
 preserveAspectRatio="xMidYMid meet">
<metadata>
Created by potrace 1.15, written by Peter Selinger 2001-2017
</metadata>
<g transform="translate(-680.909706,1429.233531) scale(0.100000,-0.100000)"
fill="#222222" stroke="none">
<path d="M8375 14286 c-13 -14 -35 -77 -35 -100 0 -9 -15 -26 -34 -36 -46 -28
-39 -63 15 -87 27 -12 38 -22 34 -32 -3 -8 0 -18 7 -22 11 -7 -5 -18 -53 -32
-13 -4 -17 -19 -17 -73 0 -50 -5 -70 -16 -76 -8 -5 -13 -15 -9 -24 3 -8 -3
-21 -13 -29 -18 -14 -18 -14 -1 -15 15 0 18 -7 15 -32 -2 -21 -8 -32 -16 -30
-8 1 -11 -2 -7 -8 10 -16 -21 -23 -45 -10 -18 10 -26 8 -44 -9 -12 -12 -33
-21 -47 -21 -13 0 -35 -7 -47 -16 -12 -8 -27 -12 -32 -9 -6 4 -17 -10 -25 -29
-9 -20 -19 -36 -24 -36 -6 0 -11 -12 -13 -27 -2 -18 -13 -31 -35 -42 -23 -11
-31 -21 -27 -34 3 -10 -1 -20 -10 -23 -22 -8 -20 -20 3 -20 11 0 19 5 18 11
-1 5 8 9 21 8 12 -2 22 2 22 9 0 6 11 1 25 -12 15 -14 28 -43 36 -78 15 -72
38 -120 61 -128 23 -7 40 -38 32 -58 -5 -13 -1 -14 24 -7 22 7 36 5 51 -6 16
-10 21 -11 21 -2 0 10 3 10 11 2 14 -14 -19 -62 -38 -56 -7 3 -11 -5 -10 -17
1 -16 7 -21 27 -19 14 1 42 -1 63 -6 33 -6 41 -4 53 14 9 12 21 21 27 20 7 -1
20 1 29 5 16 7 16 9 2 24 -12 11 -18 12 -23 3 -13 -20 -28 8 -36 67 -5 41 -11
52 -25 52 -10 0 -21 7 -24 16 -11 28 -7 35 13 24 12 -6 22 -6 25 -1 4 5 19 4
36 -2 25 -10 33 -9 40 2 7 12 12 12 34 -3 14 -9 26 -25 26 -36 0 -27 49 -31
72 -6 19 20 16 36 -7 36 -15 0 -35 30 -35 51 0 8 4 8 15 -1 9 -8 15 -9 15 -2
0 6 -4 14 -10 17 -15 9 -12 19 10 43 11 12 25 33 30 47 11 30 13 62 3 52 -12
-13 -33 65 -22 84 8 15 14 17 33 7 14 -6 27 -18 30 -27 4 -9 13 -27 20 -40
l14 -23 7 31 c3 17 11 33 16 36 15 10 -33 71 -65 85 -35 14 -34 14 -58 5 -13
-5 -18 -2 -18 8 0 22 20 32 32 16 7 -11 8 -11 6 3 -2 9 2 17 7 17 6 1 10 -3
10 -8 0 -21 14 -21 20 -1 5 16 1 26 -14 37 -12 8 -20 20 -19 26 1 7 -5 23 -15
38 -9 14 -19 39 -23 56 -5 27 -3 31 20 37 14 3 26 13 26 21 0 9 -6 12 -15 9
-12 -5 -15 2 -15 30 0 20 5 36 11 36 8 0 7 5 -1 15 -21 25 -60 107 -60 125 0
34 -32 122 -50 137 -10 9 -17 20 -14 25 3 4 1 14 -3 22 -6 10 -11 11 -18 2z
m-110 -1176 c3 -5 1 -10 -4 -10 -6 0 -11 5 -11 10 0 6 2 10 4 10 3 0 8 -4 11
-10z"/>
<path d="M8682 13444 c2 -9 14 -24 26 -32 23 -15 24 -15 20 8 -2 13 -13 26
-26 31 -19 7 -23 6 -20 -7z"/>
<path d="M8581 13432 c-16 -29 -14 -49 6 -56 15 -6 13 -10 -11 -31 -16 -14
-37 -27 -47 -30 -11 -4 -19 -10 -19 -15 0 -6 11 -5 26 0 19 7 31 7 40 -1 10
-8 14 -8 14 0 0 6 17 11 40 11 44 0 50 14 28 67 -6 15 -10 32 -9 36 1 5 -4 5
-10 1 -7 -4 -19 3 -29 16 l-18 23 -11 -21z"/>
<path d="M7553 13403 c-7 -2 -13 -13 -13 -24 0 -12 -7 -19 -20 -19 -13 0 -18
-5 -14 -15 4 -10 0 -15 -11 -15 -12 0 -16 -6 -12 -20 5 -21 -12 -70 -25 -70
-5 0 -8 -11 -8 -24 0 -26 -26 -41 -53 -31 -8 4 -18 2 -22 -4 -4 -8 -12 -8 -26
-1 -15 9 -19 7 -19 -5 0 -19 2 -19 -46 4 -39 19 -39 19 -46 0 -4 -11 -12 -17
-18 -14 -6 3 -13 -1 -16 -9 -3 -9 -10 -14 -14 -11 -4 3 -11 -6 -14 -19 -3 -14
-16 -26 -31 -30 -31 -8 -32 -20 -2 -33 17 -8 28 -6 50 9 15 11 27 15 27 11 0
-5 16 -17 35 -26 20 -9 41 -28 47 -42 13 -30 28 -33 28 -5 0 13 5 18 15 14 8
-4 15 -1 15 6 0 8 7 10 23 5 12 -4 36 -8 52 -9 25 -1 29 -5 27 -23 -2 -12 5
-27 16 -35 12 -8 25 -36 32 -71 12 -53 14 -56 27 -37 18 26 24 58 12 65 -15
10 -10 22 11 28 11 3 20 10 20 17 0 6 -5 8 -12 4 -7 -4 -22 -9 -35 -10 -18 -2
-23 2 -23 22 0 13 -9 29 -20 36 -11 7 -20 20 -20 28 0 9 -6 22 -12 29 -11 11
-9 13 10 8 26 -6 77 12 77 28 1 23 17 75 23 75 4 0 13 -9 20 -20 10 -17 10
-21 -3 -26 -11 -5 -12 -10 -4 -26 7 -14 7 -23 -2 -34 -9 -11 -8 -14 5 -14 9 0
16 4 16 9 0 38 136 -4 146 -45 4 -15 11 -21 21 -17 13 5 13 3 2 -16 -10 -15
-24 -21 -47 -21 -26 0 -33 -3 -28 -15 3 -9 0 -15 -10 -15 -9 0 -14 5 -12 12 5
13 -34 58 -50 58 -17 0 -34 -38 -27 -61 4 -11 9 -18 12 -15 4 3 12 1 19 -5 10
-8 11 -15 1 -31 -9 -16 -9 -22 1 -25 15 -6 16 -33 2 -33 -7 0 -7 -7 0 -21 16
-29 5 -36 -28 -18 -29 17 -177 25 -186 11 -4 -8 -76 -2 -116 9 -19 5 -26 -37
-10 -56 7 -8 22 -13 34 -11 11 2 33 -5 48 -15 30 -22 49 -24 66 -7 8 8 15 8
25 -1 17 -13 43 -6 51 15 6 16 63 19 68 3 5 -16 77 22 78 41 0 10 17 21 45 29
38 11 48 20 64 55 11 22 31 54 46 69 20 23 29 27 40 17 8 -6 19 -9 25 -5 5 3
10 1 10 -5 0 -17 62 -1 76 19 7 9 10 19 8 23 -6 10 44 3 79 -11 16 -6 35 -11
44 -11 14 0 14 2 0 18 -10 10 -17 23 -17 29 0 5 -19 30 -43 54 -24 24 -53 62
-66 84 -20 35 -21 40 -7 51 9 6 16 16 16 23 0 23 -33 61 -52 61 -10 0 -17 4
-13 9 3 5 0 13 -6 16 -5 4 -8 14 -5 22 11 27 -11 50 -46 49 -27 -1 -34 -6 -36
-24 -3 -18 -8 -23 -24 -19 -25 7 -58 -21 -58 -49 0 -12 -6 -21 -12 -20 -25 5
-88 48 -83 57 7 10 -54 69 -70 68 -5 0 -16 -3 -22 -6z"/>
<path d="M7750 13390 c0 -5 5 -10 11 -10 5 0 7 5 4 10 -3 6 -8 10 -11 10 -2 0
-4 -4 -4 -10z"/>
<path d="M8676 13375 c4 -8 10 -15 15 -15 5 0 9 7 9 15 0 8 -7 15 -15 15 -9 0
-12 -6 -9 -15z"/>
<path d="M8780 13375 c7 -9 15 -13 17 -11 7 7 -7 26 -19 26 -6 0 -6 -6 2 -15z"/>
<path d="M7094 13278 c-5 -7 -9 -26 -9 -43 0 -20 -7 -33 -22 -40 l-23 -12 26
-24 c26 -24 27 -24 15 -1 -10 18 -9 22 4 22 8 0 15 6 15 14 0 8 9 18 20 21 16
5 19 12 14 28 -3 12 -12 28 -19 35 -11 12 -14 12 -21 0z"/>
<path d="M8530 13209 c0 -11 4 -18 10 -14 5 3 7 12 3 20 -7 21 -13 19 -13 -6z"/>
<path d="M6960 13121 c0 -29 49 -18 50 12 0 4 -11 7 -25 7 -18 0 -25 -5 -25
-19z"/>
<path d="M8495 13130 c-3 -5 -8 -35 -10 -67 -5 -63 -25 -93 -66 -96 -27 -2
-54 -25 -64 -56 -3 -11 -15 -23 -26 -26 -14 -5 -19 -15 -19 -41 0 -35 -1 -35
-32 -29 -18 4 -40 13 -48 20 -59 48 -70 60 -70 71 0 17 -37 37 -45 25 -7 -12
12 -24 25 -16 6 3 10 1 10 -6 0 -7 7 -20 16 -30 13 -15 14 -24 5 -50 -14 -41
1 -59 22 -29 8 12 20 19 26 16 6 -4 -5 -20 -25 -39 -26 -23 -35 -41 -36 -65
-1 -18 -5 -35 -10 -38 -5 -3 -4 -12 3 -20 7 -9 8 -14 1 -14 -5 0 -8 -8 -5 -18
4 -17 -1 -18 -49 -15 -112 7 -128 4 -174 -27 -25 -16 -51 -30 -59 -30 -30 0
-46 -12 -34 -26 6 -8 8 -21 4 -31 -5 -10 -7 -21 -7 -25 4 -17 -28 -7 -38 12
-6 11 -14 19 -18 19 -4 -1 -14 -1 -22 0 -13 1 -13 2 0 11 11 7 11 10 2 10 -7
0 -11 4 -8 9 3 5 -7 14 -23 19 -20 7 -38 27 -60 68 -17 32 -31 66 -31 76 0 11
-4 16 -10 13 -5 -3 -10 -1 -10 5 0 6 -16 18 -36 26 -32 14 -37 14 -47 -1 -8
-10 -31 -16 -74 -18 -35 -1 -63 -6 -63 -11 0 -4 -12 -1 -26 9 -22 14 -28 15
-35 4 -5 -8 -9 -10 -9 -5 0 6 -13 -2 -28 -17 -16 -15 -31 -25 -34 -21 -4 3
-11 -3 -17 -14 -6 -11 -7 -22 -4 -26 3 -3 1 -6 -6 -6 -7 0 -9 -5 -5 -12 4 -6
11 -29 15 -51 8 -48 -13 -91 -55 -109 -26 -10 -27 -13 -11 -24 15 -12 15 -13
-4 -24 -24 -12 -26 -35 -9 -77 9 -22 12 -24 15 -10 6 24 25 21 46 -8 19 -27
15 -45 -9 -45 -26 0 0 -199 28 -216 7 -4 14 -2 16 4 9 28 17 8 16 -39 -1 -46
4 -57 41 -103 52 -63 65 -88 65 -120 0 -29 30 -86 46 -86 7 0 20 -17 30 -37
18 -40 26 -93 13 -93 -4 0 -11 -9 -14 -20 -4 -11 -17 -33 -31 -49 -14 -17 -20
-32 -15 -36 6 -3 8 -12 5 -19 -5 -13 18 -38 32 -35 13 3 61 -18 68 -30 4 -5 2
-12 -3 -16 -6 -3 -8 -12 -4 -20 3 -8 0 -15 -7 -15 -6 0 -8 -4 -5 -10 3 -5 -1
-23 -10 -39 -16 -33 -11 -61 12 -61 10 0 13 -6 9 -16 -3 -8 -2 -12 4 -9 6 3
10 -1 10 -9 0 -8 -4 -18 -10 -21 -5 -3 -10 -27 -10 -53 -1 -43 -4 -49 -36 -69
-20 -13 -43 -23 -53 -23 -23 0 -56 -39 -71 -85 -10 -30 -21 -41 -59 -58 -25
-11 -51 -27 -57 -35 -8 -12 -22 -13 -60 -8 -27 4 -57 7 -66 7 -10 0 -20 4 -23
10 -4 5 -19 9 -36 9 -16 0 -29 5 -29 12 0 6 -3 9 -6 5 -4 -3 -20 1 -36 9 -22
12 -29 21 -25 36 8 28 -10 71 -27 65 -7 -3 -32 11 -57 30 -41 33 -68 31 -35
-3 9 -8 16 -21 16 -28 0 -7 13 -25 29 -40 16 -16 32 -38 35 -50 6 -25 48 -55
54 -37 2 6 11 11 19 11 12 0 14 -8 10 -34 -4 -24 -1 -39 9 -47 8 -6 14 -17 14
-24 0 -8 16 -19 35 -25 38 -13 43 -25 20 -56 -8 -12 -12 -24 -8 -27 3 -3 3
-17 -1 -31 -6 -23 -9 -24 -32 -16 -35 14 -52 12 -32 -3 9 -7 16 -22 15 -32 -1
-12 7 -24 21 -30 12 -5 22 -15 22 -22 0 -19 42 -44 55 -33 6 5 21 7 33 3 18
-4 22 -1 22 17 0 15 4 20 15 16 9 -3 19 3 25 14 14 26 24 25 38 -4 6 -14 22
-26 41 -29 17 -4 31 -13 31 -20 0 -26 45 -57 83 -57 27 0 44 -8 68 -31 31 -31
75 -54 95 -50 19 2 78 -70 64 -79 -8 -5 -9 -10 -2 -14 6 -3 12 -1 14 6 6 17
110 -17 134 -43 16 -18 20 -19 29 -5 9 12 19 13 48 5 22 -6 50 -6 77 0 33 7
42 6 47 -5 3 -8 16 -14 29 -14 15 0 24 -6 24 -16 0 -9 14 -21 30 -27 21 -8 30
-18 30 -34 0 -12 -4 -24 -9 -27 -9 -6 -5 -24 22 -98 5 -16 16 -28 23 -28 8 0
20 -11 26 -25 6 -14 17 -25 23 -25 23 0 45 -38 50 -85 3 -28 12 -53 21 -60 15
-10 13 -13 -13 -24 -24 -10 -29 -17 -27 -42 1 -17 9 -38 18 -48 22 -24 20 -62
-3 -68 -11 -3 -22 -14 -24 -25 -5 -16 -12 -19 -31 -16 -14 3 -23 1 -20 -3 3
-5 1 -9 -4 -9 -19 0 -21 -43 -3 -67 16 -20 20 -21 25 -7 5 13 9 14 22 3 13
-10 16 -9 21 9 7 28 35 24 71 -10 62 -60 75 -77 69 -92 -7 -17 2 -25 35 -31
12 -3 34 -17 50 -32 15 -15 36 -28 45 -29 10 -1 28 -6 41 -10 19 -5 24 -2 29
15 6 22 7 21 39 -10 37 -36 54 -90 34 -114 -6 -8 -9 -19 -5 -25 8 -13 45 -13
45 0 0 17 14 11 49 -20 19 -18 31 -37 27 -45 -3 -8 0 -17 6 -21 7 -4 8 -3 4 4
-4 7 -3 12 3 12 5 0 12 -6 14 -12 4 -10 6 -10 6 0 1 6 6 12 11 12 6 0 8 -10 4
-24 -6 -27 17 -80 43 -94 10 -6 16 -22 16 -40 0 -34 27 -52 77 -52 25 0 30 -4
30 -25 0 -20 5 -25 25 -25 20 0 25 -5 25 -26 0 -28 36 -74 58 -74 15 0 8 -55
-11 -78 -10 -12 -18 -72 -10 -72 2 0 8 12 13 26 6 14 14 22 20 19 5 -3 10 0
10 8 0 24 26 27 44 5 12 -14 24 -18 42 -14 19 5 26 2 33 -16 7 -18 4 -27 -12
-40 -12 -9 -29 -16 -37 -16 -8 1 -27 0 -43 0 -23 -2 -27 -5 -22 -25 4 -15 1
-28 -9 -36 -13 -11 -13 -18 0 -59 19 -64 18 -72 -10 -72 -43 0 -37 -80 9 -112
7 -5 6 -14 -3 -28 -17 -28 -7 -59 17 -53 20 5 35 -10 46 -46 6 -20 4 -23 -9
-18 -13 5 -16 1 -13 -21 4 -26 2 -27 -62 -38 -66 -12 -66 -12 -93 17 -25 26
-28 27 -28 9 0 -11 -7 -20 -15 -20 -8 0 -15 -5 -15 -11 0 -6 -6 -9 -14 -6 -7
3 -19 0 -26 -6 -10 -9 -14 -9 -17 1 -5 14 -34 16 -49 3 -13 -12 -84 -21 -84
-10 0 14 -28 11 -33 -3 -4 -8 -9 -3 -13 11 -6 22 -8 22 -20 7 -11 -16 -14 -15
-38 11 l-27 28 6 -32 c5 -33 -11 -55 -25 -33 -4 7 -15 10 -24 7 -18 -7 -21
-23 -7 -31 16 -10 -1 -47 -26 -57 -19 -7 -22 -12 -14 -27 7 -14 5 -21 -9 -30
-13 -8 -21 -8 -25 -1 -5 6 -12 6 -23 -3 -14 -11 -14 -9 1 8 22 26 22 38 -1 32
-26 -7 -48 12 -55 49 -5 26 -3 35 13 43 26 14 25 45 0 70 -23 23 -67 26 -94 5
-11 -8 -27 -15 -36 -15 -8 0 -22 -10 -29 -22 -14 -22 -16 -31 -6 -25 2 1 12
-8 21 -21 11 -16 22 -21 35 -17 10 4 28 0 40 -8 20 -14 20 -16 2 -26 -17 -10
-16 -12 10 -32 15 -12 27 -30 27 -44 0 -24 -23 -50 -37 -42 -4 3 -8 -8 -8 -25
0 -30 28 -57 40 -38 9 14 45 -6 45 -25 0 -8 -3 -14 -7 -14 -21 3 -22 -3 -7
-27 13 -19 14 -28 6 -33 -9 -5 -9 -15 -1 -38 9 -27 6 -39 -16 -83 -17 -34 -31
-50 -40 -46 -24 9 -34 -17 -32 -82 2 -50 -2 -66 -15 -76 -10 -7 -18 -20 -18
-28 0 -9 -6 -21 -14 -27 -20 -17 -37 -69 -25 -76 13 -8 11 -55 -2 -55 -16 0 0
-42 25 -65 11 -11 22 -19 23 -17 8 6 21 0 47 -25 16 -15 43 -34 60 -42 29 -15
32 -15 50 2 18 19 19 18 48 -13 36 -41 48 -69 49 -123 0 -47 9 -72 24 -72 42
-2 97 -29 108 -52 9 -21 9 -27 -1 -31 -23 -7 -12 -48 26 -90 38 -42 46 -75 28
-114 -4 -10 -6 -44 -3 -77 2 -34 0 -64 -6 -70 -7 -7 -6 -16 4 -27 8 -9 16 -42
19 -73 4 -50 8 -58 38 -76 26 -16 31 -25 28 -46 -3 -15 3 -37 15 -55 10 -16
19 -39 19 -51 0 -12 5 -23 11 -25 6 -2 5 -14 -5 -33 -19 -36 -20 -58 -3 -52 6
2 25 -7 40 -19 31 -26 47 -30 47 -13 0 6 9 8 21 4 12 -4 41 -1 65 5 38 11 47
10 62 -2 28 -25 62 -32 62 -14 0 20 7 20 42 2 23 -12 29 -12 48 1 28 19 23 57
-7 61 -13 2 -23 8 -23 13 0 6 -5 7 -11 3 -7 -4 -9 2 -7 17 2 20 -2 25 -25 27
-18 2 -33 -3 -41 -13 -7 -10 -18 -14 -30 -9 -11 4 -14 9 -7 14 8 4 1 21 -20
50 -31 43 -31 43 -15 78 12 25 15 47 10 79 -6 38 -3 46 14 59 12 8 19 21 16
28 -3 7 2 16 11 20 12 4 15 13 11 31 -7 27 0 30 38 15 17 -6 27 -6 32 1 3 6
17 8 33 3 77 -20 106 -22 129 -8 12 8 22 22 22 31 0 13 8 15 52 10 28 -4 56
-11 61 -16 11 -11 38 -4 54 16 9 11 16 12 32 3 17 -9 21 -8 21 5 0 19 11 19
35 1 11 -8 24 -12 30 -11 5 2 22 6 38 9 15 4 27 13 27 20 0 8 7 16 15 20 8 3
15 13 14 23 0 10 -3 13 -5 6 -3 -7 -12 -9 -20 -6 -7 3 -11 10 -7 17 4 6 -1 5
-10 -3 -15 -12 -17 -11 -17 6 0 12 11 23 30 30 34 13 55 55 41 81 -14 27 48
25 71 -2 9 -11 17 -18 18 -14 0 4 11 3 25 -2 14 -5 25 -6 25 -1 0 5 24 12 54
15 55 7 96 34 96 62 0 11 5 14 18 9 9 -4 33 -9 52 -12 31 -4 36 -2 47 24 10
22 19 29 40 28 23 0 27 -4 28 -30 0 -28 3 -30 38 -31 20 -1 38 4 38 10 1 6 3
25 4 41 1 17 3 35 4 41 0 7 18 11 44 10 42 -1 45 2 31 38 -6 15 -4 17 6 11 10
-6 12 -4 7 7 -3 9 -1 20 5 26 7 7 7 16 0 27 -10 18 -5 55 7 55 4 0 7 9 7 20 0
11 -3 20 -6 20 -4 0 -16 9 -28 21 -12 11 -27 17 -32 14 -18 -11 -24 27 -7 40
10 7 17 26 17 44 l0 31 37 -20 c44 -23 69 -25 76 -6 5 13 -10 69 -26 94 -5 7
-2 18 6 27 13 13 20 10 52 -26 33 -37 41 -41 73 -37 21 3 55 -1 77 -9 26 -9
54 -11 85 -6 25 4 50 8 55 8 6 0 15 5 20 11 16 18 74 34 126 34 28 0 49 5 49
11 0 6 8 8 19 4 11 -3 22 -1 26 5 3 5 18 10 33 10 21 0 30 7 41 30 7 17 10 41
7 55 -4 14 -1 25 7 28 7 3 5 6 -5 6 -9 1 -20 6 -24 13 -4 6 -3 8 2 5 6 -3 15
7 21 22 9 25 8 28 -8 24 -11 -3 -25 -1 -32 4 -6 6 -24 13 -39 17 -19 4 -28 13
-28 26 0 10 -8 21 -19 25 -13 4 -17 12 -14 28 3 13 -2 29 -11 36 -8 7 -12 19
-9 27 3 8 -2 23 -12 34 -9 10 -14 24 -10 30 4 6 1 19 -7 28 -7 9 3 5 22 -9 19
-15 36 -36 38 -47 2 -12 17 -32 34 -44 39 -27 101 -94 110 -119 4 -11 13 -19
19 -19 8 0 8 -4 -1 -15 -7 -8 -11 -15 -9 -16 2 0 12 -2 23 -4 29 -6 41 -23 41
-62 0 -20 5 -38 11 -40 21 -7 22 22 3 62 -10 21 -19 40 -19 43 0 2 18 1 40 -3
26 -4 40 -3 40 4 0 6 9 11 20 11 11 0 20 5 20 10 0 6 13 10 29 10 16 0 34 6
40 13 7 9 32 13 76 12 94 -3 123 17 127 86 2 44 6 53 23 55 11 1 38 8 60 14
22 6 46 12 53 12 6 1 12 7 12 15 0 7 5 13 11 13 7 0 8 11 4 30 -4 19 -3 30 5
30 6 0 10 8 8 18 -2 13 5 18 29 20 34 3 34 3 17 89 -2 12 0 25 6 28 6 3 7 17
4 31 -5 21 -2 25 25 30 35 7 46 30 36 80 -4 22 -2 34 5 34 8 0 8 6 0 20 -8 16
-17 19 -38 14 -15 -4 -35 -14 -45 -22 -13 -12 -20 -13 -29 -4 -21 21 -39 13
-53 -22 -16 -39 -48 -54 -71 -35 -13 11 -15 10 -13 -2 2 -7 -5 -29 -15 -48
-13 -24 -15 -36 -7 -44 6 -6 11 -19 11 -28 0 -9 7 -22 15 -29 12 -10 15 -10
15 0 0 10 3 10 15 0 26 -22 16 -30 -27 -24 -31 3 -53 15 -79 40 -21 20 -42 32
-50 29 -9 -3 -33 10 -57 31 -28 24 -42 31 -42 21 0 -9 -12 -25 -27 -37 -22
-17 -29 -18 -40 -8 -11 11 -9 23 7 68 11 30 18 61 15 68 -3 8 3 16 14 19 30 8
31 44 3 75 -21 22 -27 25 -43 15 -15 -9 -23 -9 -37 1 -9 7 -28 17 -42 24 -14
7 -33 18 -42 26 -26 21 -88 23 -88 3 0 -9 -7 -24 -14 -34 -11 -15 -20 -16 -53
-9 -34 8 -42 6 -52 -10 -6 -10 -9 -29 -5 -43 5 -19 2 -25 -9 -25 -9 0 -28 -12
-44 -26 -22 -21 -25 -27 -13 -34 13 -8 13 -10 0 -10 -12 -1 -12 -2 2 -10 17
-10 14 -49 -5 -62 -7 -4 -7 -11 0 -20 6 -7 13 -33 16 -57 5 -37 3 -44 -14 -48
-23 -6 -25 -26 -4 -43 19 -16 19 -46 1 -53 -26 -10 -35 125 -11 163 7 11 -13
57 -42 96 -13 17 -23 41 -23 53 0 12 -5 32 -11 43 -14 26 2 44 26 30 42 -23
67 58 36 116 -6 11 -11 39 -11 61 0 35 3 41 25 47 24 6 31 26 27 84 -1 19 18
31 38 25 10 -3 22 7 34 25 14 25 16 37 7 61 l-11 31 48 -7 c26 -3 63 -8 82
-10 20 -3 43 -14 53 -26 9 -12 17 -16 17 -9 0 7 8 9 21 5 14 -5 25 -2 30 6 6
11 11 11 20 2 10 -10 10 -18 1 -38 -8 -18 -9 -32 -2 -45 14 -26 13 -30 -7 -30
-9 0 -13 -3 -10 -7 4 -3 0 -15 -10 -25 -20 -22 -18 -25 26 -31 46 -8 61 -26
64 -78 2 -24 6 -50 11 -57 4 -6 4 -17 1 -22 -9 -14 43 -32 74 -25 19 4 26 12
27 30 1 15 -4 25 -12 25 -8 0 -14 4 -14 10 0 5 7 7 15 4 8 -4 15 -1 15 5 0 13
50 -16 62 -35 5 -7 24 -12 43 -12 30 0 35 3 35 24 0 13 5 24 11 24 8 0 10 -14
6 -39 l-5 -40 67 -24 c45 -17 67 -21 70 -13 6 19 44 56 57 56 7 0 15 6 17 13
3 7 15 0 32 -21 15 -18 31 -29 37 -26 5 3 16 -4 25 -16 28 -40 93 -7 93 48 0
16 7 35 15 42 9 7 15 20 13 29 -1 9 2 26 6 39 6 17 14 22 34 20 22 -2 28 2 30
21 2 13 12 26 23 28 13 4 19 14 19 33 0 36 21 53 55 44 20 -5 32 -1 51 17 13
12 24 29 24 37 0 12 3 12 23 -1 16 -11 28 -12 41 -5 9 5 24 7 33 4 8 -3 20 -3
26 1 6 4 30 8 53 9 33 1 49 8 73 33 17 17 31 36 31 41 0 6 12 10 26 10 23 0
25 3 19 30 -4 18 -3 30 4 30 19 0 60 50 55 65 -4 8 -1 15 5 15 13 0 2 32 -16
43 -23 14 -14 28 13 21 22 -6 25 -4 18 7 -5 8 -7 21 -6 31 2 9 -2 19 -8 23
-19 12 -10 23 23 29 23 4 36 14 46 36 15 35 9 62 -12 54 -8 -3 -40 20 -76 55
-35 34 -56 61 -48 61 25 0 15 45 -11 48 -13 2 -27 14 -32 27 -5 13 -17 28 -27
34 -13 7 -14 10 -4 11 10 0 8 7 -8 24 -13 14 -18 26 -12 30 5 4 7 23 4 44 -6
34 -5 36 11 23 22 -18 31 -8 15 17 -11 17 -7 25 39 71 28 28 56 51 63 51 14 0
3 49 -17 71 -16 18 -19 79 -3 79 6 0 -1 14 -16 32 -19 22 -25 38 -20 55 3 15
-2 33 -16 52 -19 26 -20 31 -6 58 9 16 20 51 25 78 5 28 13 57 16 67 5 11 -3
26 -28 49 -20 18 -36 37 -36 42 0 6 -8 28 -17 48 -13 27 -28 42 -50 50 -23 7
-34 17 -35 32 -1 12 -2 30 -3 39 0 9 -8 25 -16 35 -23 26 -30 52 -20 72 11 19
5 31 -24 48 -11 6 -18 17 -15 25 2 7 4 30 3 50 -1 26 4 38 15 40 12 2 9 10
-12 36 -15 17 -24 32 -19 32 4 0 0 5 -9 11 -10 5 -18 16 -18 23 0 7 -9 21 -20
31 -18 16 -21 17 -44 1 -29 -18 -66 -21 -66 -5 0 6 -7 8 -16 5 -9 -4 -27 1
-41 9 -22 15 -24 14 -34 -11 -14 -40 -38 -54 -69 -42 -21 8 -28 5 -50 -20 -20
-23 -30 -28 -46 -22 -12 5 -24 15 -27 24 -4 9 -15 16 -26 16 -25 0 -55 53 -46
81 5 14 0 28 -16 45 -24 25 -83 49 -98 39 -6 -3 -26 19 -45 49 l-35 54 -38
-10 c-77 -20 -93 -20 -118 -4 -18 12 -25 13 -25 4 1 -20 23 -44 48 -52 24 -8
25 -34 1 -27 -45 13 -59 12 -59 0 0 -8 -20 -25 -45 -38 -25 -13 -45 -30 -45
-38 0 -11 -4 -11 -20 -3 -11 6 -20 17 -20 24 0 9 -7 12 -18 9 -10 -2 -24 2
-31 11 -10 11 -19 13 -39 5 -27 -11 -98 -3 -107 11 -3 4 -13 6 -23 3 -12 -3
-30 7 -50 27 -36 36 -56 33 -39 -5 7 -15 24 -29 42 -33 22 -6 31 -16 36 -38 8
-39 18 -56 30 -49 5 4 16 -1 25 -9 17 -18 20 -17 -65 -22 -73 -4 -83 -9 -75
-39 5 -19 2 -25 -10 -25 -9 0 -16 -7 -16 -15 0 -8 -7 -15 -15 -15 -8 0 -15 -7
-15 -15 0 -8 -5 -15 -11 -15 -6 0 -8 -9 -4 -20 3 -11 1 -35 -5 -52 -9 -24 -9
-48 -2 -88 7 -36 7 -57 0 -61 -5 -3 -9 -9 -9 -13 4 -25 -2 -25 -24 -2 -27 29
-32 46 -14 46 13 0 2 41 -16 56 -8 5 -15 23 -17 40 -2 22 2 31 20 39 12 5 22
13 22 17 0 9 -30 6 -46 -5 -8 -4 -15 6 -20 31 -4 20 -6 41 -5 46 3 11 -29 46
-43 46 -6 0 -30 15 -53 33 -22 17 -55 40 -72 49 -17 9 -39 33 -48 53 -12 26
-26 38 -46 42 -21 4 -33 16 -45 42 -8 20 -15 41 -15 48 0 6 -28 24 -62 40 -49
22 -65 36 -80 66 -10 20 -24 37 -32 37 -17 0 -17 18 2 36 20 20 19 58 -1 75
-15 12 -14 14 2 19 16 6 15 8 -5 27 l-23 21 21 7 c22 7 55 58 44 69 -12 11 -2
120 11 136 17 18 24 70 12 88 -4 7 -5 21 -1 32 3 10 -1 30 -10 43 -8 13 -12
26 -9 29 3 4 -2 20 -10 37 -24 46 -21 90 9 113 14 11 23 24 19 29 -3 6 0 16 6
24 7 8 10 21 7 30 -4 8 -2 17 3 20 6 4 4 18 -6 36 -14 28 -14 30 3 27 16 -3
18 6 18 89 0 65 -4 93 -12 93 -6 0 -14 9 -18 19 -12 38 -54 68 -103 75 -27 4
-66 19 -91 36 -24 17 -57 30 -72 30 -19 0 -30 6 -34 20 -10 31 -58 51 -112 46
-27 -2 -50 -5 -53 -6 -3 -1 -8 -2 -12 -1 -5 0 -8 -3 -8 -9 0 -5 -7 -10 -16
-10 -8 0 -22 -7 -31 -15 -12 -13 -13 -21 -3 -45 6 -16 18 -31 25 -33 7 -3 15
-15 18 -27 4 -16 2 -20 -9 -16 -8 3 -14 1 -14 -4 0 -4 -13 -11 -30 -15 -16 -4
-30 -13 -30 -21 0 -13 -14 -18 -46 -17 -6 0 -9 -8 -6 -19 6 -24 -29 -58 -60
-58 -64 2 -141 56 -144 101 -2 23 -13 39 -29 39 -7 0 -15 6 -18 13 -5 14 6 39
17 38 3 -1 18 -1 32 -1 26 0 26 1 22 50 l-5 51 23 -38 c13 -21 24 -32 24 -25
0 6 7 12 15 12 20 0 19 24 -1 41 -25 21 0 119 30 119 14 0 26 21 26 45 0 7
-13 16 -30 20 -16 4 -30 11 -30 16 0 18 28 20 53 5 24 -17 57 -13 57 6 0 6 11
8 25 6 14 -3 25 -1 25 3 0 5 9 9 19 9 11 0 23 5 26 10 4 6 11 8 16 4 11 -7 46
21 61 49 6 12 6 23 -2 32 -13 16 -7 20 40 30 29 6 33 5 24 -6 -7 -10 -7 -24 1
-48 8 -22 15 -30 20 -22 7 13 32 11 68 -4 14 -6 17 -2 17 19 0 38 -25 82 -51
89 -11 3 -18 10 -14 16 3 6 -1 11 -9 11 -12 0 -14 7 -10 29 5 25 3 29 -21 33
-25 5 -41 -3 -95 -54 -16 -15 -20 -15 -31 -2 -8 10 -14 11 -19 4 -4 -6 -15 5
-26 25 -10 19 -22 35 -26 35 -10 0 1 -50 14 -66 5 -8 2 -14 -9 -18 -10 -4 -14
-4 -11 0 7 7 -1 19 -44 66 -16 16 -28 31 -28 34 0 2 -18 23 -40 45 -27 28 -39
48 -35 59 3 11 -1 20 -10 24 -8 3 -20 17 -25 31 -13 35 -36 41 -78 19 -46 -23
-58 -23 -54 -3 3 22 -74 49 -137 49 -32 0 -56 7 -83 26 -41 29 -68 26 -68 -7
0 -15 -4 -19 -16 -15 -9 4 -22 2 -29 -4 -10 -8 -18 -4 -34 16 -12 15 -21 31
-21 37 0 6 -8 3 -18 -6 -14 -13 -37 -17 -98 -16 -43 1 -86 0 -94 -1 -8 -2 -29
0 -45 4 -27 6 -32 3 -49 -29 -13 -23 -25 -34 -34 -30 -7 3 -18 5 -23 5 -5 0
-9 11 -9 25 0 14 -4 25 -8 25 -4 0 -15 15 -24 33 -38 79 -44 87 -62 87 -11 0
-28 8 -39 17 -10 10 -26 18 -35 18 -10 0 -16 7 -16 18 2 18 -11 23 -21 7z m35
-319 c0 -14 -18 -23 -30 -16 -6 4 -8 11 -5 16 8 12 35 12 35 0z m-229 -164
c-16 -17 -23 -19 -33 -9 -9 9 -8 12 5 12 9 0 22 10 28 22 9 16 14 19 17 9 2
-7 -5 -23 -17 -34z m-556 -179 c-1 -13 -9 -24 -18 -26 -20 -4 -21 2 -7 29 14
26 27 24 25 -3z m460 -1638 c3 -5 1 -10 -4 -10 -6 0 -11 5 -11 10 0 6 2 10 4
10 3 0 8 -4 11 -10z m200 -10 c3 -5 1 -10 -4 -10 -6 0 -11 5 -11 10 0 6 2 10
4 10 3 0 8 -4 11 -10z m-25 -29 c0 -6 -4 -13 -10 -16 -5 -3 -10 1 -10 9 0 9 5
16 10 16 6 0 10 -4 10 -9z m3190 -81 c0 -5 -7 -10 -16 -10 -8 0 -12 5 -9 10 3
6 10 10 16 10 5 0 9 -4 9 -10z m-3213 -102 c-3 -8 -6 -5 -6 6 -1 11 2 17 5 13
3 -3 4 -12 1 -19z m158 -98 c3 -5 1 -10 -4 -10 -6 0 -11 5 -11 10 0 6 2 10 4
10 3 0 8 -4 11 -10z m3325 0 c0 -5 -4 -10 -9 -10 -6 0 -13 5 -16 10 -3 6 1 10
9 10 9 0 16 -4 16 -10z m-3440 -20 c0 -5 -4 -10 -10 -10 -5 0 -10 5 -10 10 0
6 5 10 10 10 6 0 10 -4 10 -10z m3010 -22 c67 -42 139 -58 111 -24 -8 10 -4
13 20 14 17 0 28 -2 25 -5 -3 -4 0 -16 8 -27 7 -12 15 -36 18 -55 4 -29 1 -36
-25 -51 -16 -10 -35 -16 -42 -13 -19 6 -11 38 9 37 9 -1 16 2 16 7 0 12 -27
11 -35 -1 -3 -5 -17 -10 -31 -10 -24 0 -32 -14 -14 -25 6 -3 8 -16 6 -28 -2
-13 2 -31 10 -42 17 -23 18 -35 2 -35 -7 0 -21 14 -31 32 -14 24 -20 29 -27
19 -6 -11 -9 -10 -12 5 -2 10 2 29 10 41 9 15 10 23 2 28 -6 4 -8 15 -5 25 3
10 1 21 -5 25 -5 3 -10 15 -10 25 0 10 -9 21 -19 25 -11 3 -25 13 -33 22 -11
15 -11 16 6 10 16 -6 17 -5 6 8 -18 21 -1 19 40 -7z m-571 -424 c18 -16 18
-60 0 -48 -5 3 -7 10 -4 15 4 5 2 9 -2 9 -5 0 -14 9 -21 20 -15 24 0 26 27 4z
m-19 -40 c0 -11 -5 -14 -16 -10 -9 3 -18 6 -20 6 -3 0 -2 5 1 10 10 16 35 12
35 -6z m-2286 -19 c3 -9 0 -15 -9 -15 -8 0 -15 7 -15 15 0 8 4 15 9 15 5 0 11
-7 15 -15z m2 -88 c-4 -19 0 -33 12 -45 15 -15 16 -20 5 -31 -8 -7 -24 -11
-36 -9 -17 2 -23 11 -27 38 -3 19 -12 46 -21 60 -10 14 -20 35 -23 47 -6 18
-2 22 21 25 38 4 77 -44 69 -85z m2804 49 c0 -3 -4 -8 -10 -11 -5 -3 -10 -1
-10 4 0 6 5 11 10 11 6 0 10 -2 10 -4z m-2821 -175 c-15 -5 -22 6 -14 19 6 9
10 9 16 -1 5 -8 4 -15 -2 -18z m2735 -7 c5 -14 4 -15 -9 -4 -17 14 -19 20 -6
20 5 0 12 -7 15 -16z m-3056 -251 c-8 -10 -14 -10 -24 -2 -20 16 -18 19 10 17
19 -2 22 -5 14 -15z m958 -1430 c-3 -8 -2 -11 3 -8 5 3 12 1 15 -4 3 -5 -6
-11 -20 -14 -19 -3 -24 -1 -20 10 3 8 6 21 6 29 0 9 5 12 11 9 6 -4 8 -14 5
-22z m1839 -753 c3 -5 -3 -10 -15 -10 -12 0 -18 5 -15 10 3 6 10 10 15 10 5 0
12 -4 15 -10z"/>
<path d="M11543 10392 c10 -10 17 -24 17 -30 0 -7 5 -12 10 -12 6 0 10 3 10 8
0 14 -31 52 -42 52 -6 0 -4 -8 5 -18z"/>
<path d="M7064 13085 c24 -18 39 -20 34 -2 -3 6 -15 13 -29 15 -23 2 -23 2 -5
-13z"/>
<path d="M7372 12983 c16 -17 24 -20 35 -12 24 21 15 37 -22 36 l-35 -1 22
-23z"/>
<path d="M7680 12790 c0 -5 7 -10 16 -10 8 0 12 5 9 10 -3 6 -10 10 -16 10 -5
0 -9 -4 -9 -10z"/>
<path d="M7145 12749 c-5 -8 33 -25 48 -21 4 1 7 -3 7 -10 0 -6 8 -2 18 9 9
11 26 23 37 25 11 3 -8 5 -43 5 -34 0 -65 -3 -67 -8z"/>
<path d="M7780 12752 c0 -14 36 -43 43 -35 4 3 0 15 -10 25 -17 19 -33 24 -33
10z"/>
<path d="M6985 10690 c-7 -12 3 -50 14 -50 4 0 6 14 3 30 -5 32 -7 36 -17 20z"/>
<path d="M10946 10556 c3 -9 11 -16 16 -16 13 0 5 23 -10 28 -7 2 -10 -2 -6
-12z"/>
<path d="M8120 9441 c0 -5 5 -13 10 -16 6 -3 10 -2 10 4 0 5 -4 13 -10 16 -5
3 -10 2 -10 -4z"/>
<path d="M8323 9285 c-3 -9 -3 -18 0 -21 9 -9 27 6 27 22 0 19 -19 18 -27 -1z"/>
<path d="M8687 9053 c-7 -7 31 -53 44 -53 10 0 -2 44 -15 52 -14 10 -21 10
-29 1z"/>
<path d="M8950 8546 c0 -9 -8 -16 -19 -16 -30 0 -44 -26 -38 -71 7 -50 15 -59
32 -36 10 14 18 16 39 7 23 -8 26 -7 26 10 0 14 -7 20 -21 20 -17 0 -19 3 -10
14 8 10 9 16 1 21 -16 10 -1 25 26 25 17 0 24 5 24 20 0 22 -16 27 -23 8 -3
-10 -7 -10 -20 1 -15 12 -17 11 -17 -3z"/>
<path d="M8950 8400 c-10 -6 -11 -10 -2 -10 6 0 12 -5 12 -11 0 -5 -10 -9 -22
-7 -15 2 -23 -2 -23 -12 0 -26 58 -19 72 9 20 36 -2 54 -37 31z"/>
<path d="M8875 8378 c-29 -16 -29 -16 -16 -32 10 -12 9 -14 -8 -9 -15 4 -21 1
-21 -11 0 -19 -5 -20 -30 -6 -16 9 -18 6 -15 -25 4 -39 3 -40 -26 -24 -16 8
-18 13 -8 25 12 14 7 18 -23 15 -10 -1 -26 3 -38 9 -15 8 -20 8 -20 -1 0 -6
-7 -9 -15 -5 -23 8 -18 -12 10 -46 22 -26 30 -46 26 -70 0 -4 18 -22 41 -40
23 -18 39 -28 35 -22 -4 7 3 14 17 18 17 4 24 13 23 26 -2 23 -17 27 -17 4 0
-18 -16 -10 -30 16 -9 18 -8 19 17 14 28 -5 73 24 73 47 0 6 9 18 19 27 15 13
40 103 29 102 -2 0 -12 -6 -23 -12z"/>
<path d="M8441 8334 c0 -11 3 -14 6 -6 3 7 2 16 -1 19 -3 4 -6 -2 -5 -13z"/>
<path d="M8455 8310 c-3 -5 -14 -10 -24 -10 -10 0 -25 -8 -32 -17 -12 -14 -12
-16 0 -8 11 6 13 4 6 -11 -4 -10 -11 -36 -15 -56 -4 -20 -15 -49 -24 -62 -13
-21 -14 -29 -4 -46 15 -23 29 -25 46 -8 15 15 122 19 139 6 6 -5 9 -17 6 -26
-4 -11 2 -8 15 7 15 17 25 21 34 14 9 -7 24 1 51 29 23 24 33 40 25 42 -42 13
-60 13 -64 1 -3 -7 -19 -19 -35 -25 -48 -20 -80 21 -44 56 25 26 17 44 -30 65
-51 22 -63 36 -38 41 12 2 14 6 6 11 -6 4 -14 3 -18 -3z m190 -180 c3 -5 1
-10 -4 -10 -6 0 -11 5 -11 10 0 6 2 10 4 10 3 0 8 -4 11 -10z"/>
<path d="M11040 8302 c0 -9 6 -12 15 -8 8 3 27 1 42 -5 27 -10 27 -10 9 10
-21 23 -66 25 -66 3z"/>
<path d="M8600 8266 c0 -19 -4 -38 -10 -41 -16 -10 -12 -35 6 -35 10 0 14 6
10 15 -3 8 -1 15 5 15 6 0 8 9 4 19 -3 11 -1 22 5 26 15 9 12 35 -5 35 -10 0
-15 -10 -15 -34z"/>
<path d="M8540 8170 c0 -5 12 -10 28 -9 24 0 25 1 7 9 -27 12 -35 12 -35 0z"/>
<path d="M11547 8091 c3 -11 -2 -21 -12 -25 -14 -5 -12 -10 12 -29 15 -13 38
-26 50 -29 l22 -6 -21 28 c-11 16 -18 36 -15 44 4 10 1 16 -8 16 -8 0 -15 5
-15 10 0 6 -4 10 -9 10 -5 0 -7 -8 -4 -19z"/>
<path d="M11602 8063 c5 -25 28 -28 28 -4 0 12 -6 21 -16 21 -9 0 -14 -7 -12
-17z"/>
<path d="M11610 7980 c0 -5 5 -10 11 -10 5 0 7 5 4 10 -3 6 -8 10 -11 10 -2 0
-4 -4 -4 -10z"/>
<path d="M14175 7842 c-16 -8 -37 -24 -45 -35 -14 -17 -20 -18 -39 -7 -38 20
-45 -7 -14 -48 l25 -34 -19 -26 c-26 -36 -34 -60 -23 -67 6 -4 4 -21 -5 -42
-9 -20 -13 -45 -9 -56 4 -11 1 -23 -7 -28 -21 -13 -27 -11 -34 12 -5 15 -10
18 -18 10 -13 -13 -57 -15 -57 -2 0 5 -9 11 -20 14 -15 4 -24 -2 -35 -24 -11
-20 -23 -29 -39 -29 -18 0 -29 -10 -43 -37 -14 -27 -27 -39 -46 -41 -20 -3
-27 -9 -27 -26 0 -16 -11 -29 -35 -42 -19 -10 -33 -23 -31 -29 2 -5 -1 -18 -6
-27 -6 -12 -5 -18 3 -18 7 0 26 -11 44 -24 32 -25 41 -26 81 -13 20 7 21 11
12 48 -6 22 -8 42 -5 46 9 8 37 -17 37 -33 0 -16 36 -19 45 -4 4 6 15 8 25 5
17 -5 18 -2 14 34 -4 32 -1 41 10 41 8 0 17 -4 20 -9 3 -5 15 -7 26 -4 15 4
19 11 15 24 -5 15 3 23 37 38 24 10 52 31 62 46 10 16 23 24 32 21 20 -8 66
15 60 30 -8 21 17 74 36 74 17 0 21 9 33 67 4 21 14 34 28 39 38 11 57 35 57
72 0 28 -8 43 -36 69 -40 36 -63 39 -109 15z"/>
<path d="M11190 7215 c0 -9 -7 -27 -16 -41 -16 -24 -13 -39 8 -39 6 0 16 -9
22 -20 16 -27 34 -46 43 -44 16 4 43 -13 43 -27 0 -8 3 -13 8 -13 17 4 73 -15
83 -27 17 -21 56 -17 74 8 14 21 14 24 0 34 -8 6 -15 16 -15 23 0 16 -17 14
-23 -4 -4 -9 -18 -13 -37 -12 -24 2 -32 8 -37 27 -3 14 -11 32 -18 40 -6 8
-15 23 -18 33 -4 10 -11 16 -16 13 -4 -3 -16 3 -26 14 -10 11 -24 20 -32 20
-7 0 -16 7 -19 15 -8 20 -24 19 -24 0z"/>
<path d="M13595 7210 c-11 -4 -29 -17 -40 -27 -12 -11 -33 -23 -48 -27 -19 -4
-27 -12 -25 -24 5 -25 34 -27 41 -2 4 17 9 19 31 10 19 -7 33 -6 48 3 42 23
46 30 35 54 -11 25 -13 26 -42 13z"/>
<path d="M11336 7163 c-6 -14 -5 -15 5 -6 7 7 10 15 7 18 -3 3 -9 -2 -12 -12z"/>
<path d="M11714 7127 c8 -27 22 -55 32 -62 10 -7 19 -26 20 -43 1 -25 -3 -32
-22 -36 -28 -7 -33 -49 -9 -79 20 -27 -8 -58 -46 -50 -21 4 -30 0 -38 -15 -12
-23 1 -72 20 -72 19 0 61 -38 78 -72 9 -17 23 -35 31 -39 8 -4 43 -21 78 -38
34 -17 71 -31 81 -31 11 0 23 -9 26 -21 4 -13 14 -20 28 -18 42 3 56 -1 60
-18 4 -16 5 -16 6 -1 0 9 8 18 17 20 25 4 84 -54 84 -82 0 -30 40 -90 60 -90
18 0 80 -53 80 -69 0 -19 22 -12 27 9 3 13 14 20 28 20 13 0 26 8 30 18 6 16
7 16 20 -2 13 -17 15 -17 30 -2 9 9 14 20 11 24 -3 5 10 8 29 7 42 -1 68 25
59 59 -4 16 0 25 11 30 9 3 13 11 9 17 -4 8 1 9 16 4 22 -7 23 -5 17 34 -5 38
-3 41 19 41 30 0 49 32 35 59 -9 16 -6 21 18 31 33 13 52 48 44 79 -3 13 -1
21 6 21 7 0 10 4 7 9 -3 5 0 11 8 14 16 6 13 51 -4 72 -9 11 -7 14 11 17 15 2
25 13 30 30 6 24 4 27 -12 25 -19 -3 -55 -55 -45 -65 11 -10 -16 -43 -31 -38
-9 4 -17 -1 -20 -14 -4 -16 -11 -19 -27 -14 -11 4 -26 11 -33 16 -7 5 -17 7
-23 3 -6 -4 -16 -2 -23 3 -7 6 -29 7 -52 3 -31 -5 -46 -3 -67 13 -15 10 -25
23 -22 28 3 4 0 8 -5 8 -6 0 -11 -4 -11 -10 0 -5 -9 -10 -19 -10 -11 0 -22 -4
-25 -9 -18 -28 -66 25 -79 87 -4 18 -1 22 18 22 34 0 41 18 10 26 -15 4 -32 1
-41 -7 -12 -10 -15 -10 -12 1 2 7 -3 15 -9 17 -7 3 -13 -3 -13 -12 0 -11 -5
-15 -15 -12 -10 4 -16 -3 -21 -27 -3 -19 -17 -44 -30 -55 l-25 -21 -27 25
c-15 14 -31 25 -36 25 -5 0 -17 7 -26 15 -16 14 -22 14 -59 -1 -22 -9 -41 -20
-41 -25 0 -5 -7 -9 -15 -9 -8 0 -15 5 -15 10 0 6 -11 22 -24 35 -14 14 -20 27
-15 31 5 3 0 19 -13 36 -19 28 -20 32 -5 42 20 15 9 32 -22 33 -26 2 -73 41
-65 54 10 17 -7 31 -22 18 -12 -10 -18 -8 -29 7 -13 17 -13 13 -1 -29z"/>
<path d="M11376 7145 c4 -8 8 -15 10 -15 2 0 4 7 4 15 0 8 -4 15 -10 15 -5 0
-7 -7 -4 -15z"/>
<path d="M13045 7093 c-11 -3 -24 -11 -28 -19 -4 -8 -15 -14 -22 -14 -18 0
-19 -12 -3 -28 21 -21 -93 -12 -121 10 -26 20 -61 24 -61 7 0 -6 -9 -8 -21 -4
-18 6 -20 4 -14 -17 4 -12 12 -24 16 -26 5 -2 9 -13 9 -24 0 -15 5 -19 19 -15
12 3 22 -1 26 -11 4 -12 8 -13 17 -4 26 26 102 9 142 -31 10 -9 33 -17 51 -17
21 0 44 -9 63 -25 33 -28 62 -25 62 6 0 10 5 19 11 19 8 0 10 12 6 33 -4 29
-1 35 26 51 l32 18 -25 13 c-14 8 -33 12 -42 9 -10 -3 -19 2 -23 16 -3 11 -13
20 -21 20 -8 0 -14 7 -14 16 0 10 -6 14 -15 11 -8 -4 -17 -2 -20 3 -6 10 -17
11 -50 3z"/>
<path d="M13398 7093 c-39 -6 -42 -55 -6 -86 18 -15 18 -19 7 -34 -15 -18 -14
-42 4 -76 40 -74 75 -99 98 -71 16 20 5 28 -20 15 -30 -17 -41 11 -25 64 12
41 11 44 -12 66 l-24 23 25 26 c14 15 25 38 25 53 0 28 -6 30 -72 20z m29
-139 c-3 -3 -12 -4 -19 -1 -8 3 -5 6 6 6 11 1 17 -2 13 -5z"/>
<path d="M13298 7074 c-29 -15 -41 -58 -14 -48 15 6 50 53 44 59 -2 2 -15 -3
-30 -11z"/>
<path d="M13340 6980 c0 -5 10 -10 23 -10 18 0 19 2 7 10 -19 13 -30 13 -30 0z"/>
<path d="M11437 6964 c-3 -4 -9 -33 -13 -66 -6 -50 -11 -61 -34 -75 -16 -9
-26 -22 -23 -29 5 -14 -19 -55 -59 -98 -14 -17 -35 -58 -45 -93 -15 -55 -20
-62 -39 -57 -24 6 -38 -21 -49 -95 -3 -24 -12 -53 -20 -64 -10 -14 -11 -25 -4
-39 14 -25 -13 -52 -43 -43 -20 7 -21 5 -15 -53 4 -33 12 -72 18 -86 10 -21 9
-29 -3 -43 -9 -10 -13 -23 -11 -30 2 -6 -5 -17 -16 -23 -12 -6 -21 -17 -21
-25 0 -8 -7 -15 -16 -15 -13 0 -12 -5 5 -29 12 -16 21 -39 21 -51 0 -29 -28
-80 -44 -80 -19 0 -42 -41 -38 -67 2 -12 12 -25 23 -28 18 -6 23 -20 21 -55 0
-11 3 -10 14 4 8 11 14 28 14 38 0 10 5 18 11 18 6 0 23 9 37 20 26 21 72 20
100 -2 18 -16 15 -46 -7 -53 -27 -8 -16 -45 14 -45 12 0 37 -3 55 -7 28 -5 32
-4 27 10 -5 13 -1 17 14 17 11 0 17 5 14 10 -3 6 -1 10 4 10 6 0 11 6 11 14 0
8 11 17 25 20 16 4 25 13 25 26 0 16 7 20 35 20 33 0 34 2 31 30 -2 17 -11 39
-19 48 -19 21 -49 96 -52 132 -1 14 -3 30 -4 37 0 6 -9 14 -19 18 -17 5 -15 9
15 41 19 20 33 46 33 60 0 15 6 24 16 24 11 0 15 6 11 20 -3 11 3 30 15 45 10
14 17 29 14 34 -10 15 22 79 43 86 13 4 20 19 25 55 4 28 12 51 19 52 7 0 17
2 22 2 25 3 35 17 25 36 -5 10 -7 25 -4 33 3 9 -2 27 -12 42 -9 14 -18 43 -20
63 -4 42 4 107 13 98 3 -3 13 5 23 17 17 21 17 23 -22 67 -22 25 -47 45 -55
45 -9 0 -21 9 -27 20 -19 34 -46 52 -59 39z"/>
<path d="M13361 6793 c1 -10 0 -20 -1 -23 -1 -3 -3 -24 -5 -47 -2 -34 0 -42
16 -46 20 -5 21 -2 22 74 0 20 -3 41 -7 48 -11 17 -27 13 -25 -6z"/>
<path d="M13430 6782 c0 -11 41 -34 48 -28 3 4 -3 13 -14 21 -21 16 -34 19
-34 7z"/>
<path d="M11888 6553 c7 -3 16 -2 19 1 4 3 -2 6 -13 5 -11 0 -14 -3 -6 -6z"/>
<path d="M12450 6350 c-9 -6 -10 -10 -3 -10 6 0 15 5 18 10 8 12 4 12 -15 0z"/>
</g>
</svg>
