<?xml version="1.0" standalone="no"?>
<!DOCTYPE svg PUBLIC "-//W3C//DTD SVG 20010904//EN"
 "http://www.w3.org/TR/2001/REC-SVG-20010904/DTD/svg10.dtd">
<svg version="1.0" xmlns="http://www.w3.org/2000/svg"
 width="677.552436pt" height="557.410392pt" viewBox="0 0 677.552436 557.410392"
 preserveAspectRatio="xMidYMid meet">
<metadata>
Created by potrace 1.15, written by Peter Selinger 2001-2017
</metadata>
<g transform="translate(-609.110549,1234.508576) scale(0.100000,-0.100000)"
fill="#222222" stroke="none">
<path d="M10880 12330 c-6 -11 -16 -20 -23 -20 -7 0 -12 -13 -12 -30 0 -16 4
-30 9 -30 4 0 6 -6 3 -14 -3 -8 1 -17 9 -20 8 -3 14 -10 14 -17 0 -6 -7 -9
-15 -5 -8 3 -15 1 -15 -4 0 -6 8 -10 18 -10 10 0 33 -13 52 -30 29 -26 59 -33
45 -10 -6 10 23 22 36 14 5 -3 9 2 9 11 0 18 -80 125 -93 125 -5 0 -6 11 -3
24 8 31 -19 43 -34 16z"/>
<path d="M9962 12279 c2 -7 -8 -15 -22 -19 l-25 -6 24 -8 c16 -6 26 -4 31 5 7
10 11 10 24 -1 15 -11 15 -10 8 11 -9 25 -45 41 -40 18z"/>
<path d="M9854 12273 c7 -13 -27 -37 -38 -26 -3 3 -6 -1 -6 -10 0 -20 26 -22
56 -4 l21 12 -20 20 c-11 11 -17 15 -13 8z"/>
<path d="M7807 12259 c-11 -6 -31 -9 -46 -6 -24 5 -30 1 -42 -26 -12 -27 -20
-33 -51 -35 -30 -3 -38 -7 -38 -23 0 -11 -6 -33 -14 -48 -13 -24 -20 -27 -53
-24 -66 5 -108 2 -111 -7 -2 -6 -10 -10 -18 -10 -8 0 -14 -7 -14 -15 0 -8 -13
-21 -30 -30 -32 -17 -39 -39 -15 -49 8 -3 15 -2 15 3 0 17 39 18 54 2 19 -21
21 -32 3 -25 -7 2 -24 -7 -37 -21 -27 -28 -40 -32 -40 -10 0 8 -5 15 -10 15
-7 0 -8 -6 -2 -16 10 -18 5 -54 -8 -54 -5 0 -15 7 -24 15 -19 19 -30 19 -22
-1 3 -9 -7 -31 -25 -54 -26 -32 -35 -37 -50 -30 -10 6 -32 10 -49 10 -25 0
-33 -5 -41 -29 -6 -18 -20 -32 -35 -35 -15 -4 -24 -14 -24 -26 0 -15 -7 -20
-29 -20 -35 0 -114 -60 -121 -92 -4 -14 -15 -24 -29 -26 -15 -2 -27 -14 -34
-33 -9 -24 -15 -27 -37 -22 l-25 5 28 -28 c28 -29 35 -28 51 11 2 6 23 -9 47
-33 35 -36 47 -42 68 -37 14 4 30 7 34 8 5 1 15 -18 21 -43 7 -25 16 -56 20
-69 7 -20 5 -23 -8 -18 -9 4 -16 2 -16 -3 0 -15 63 -51 77 -45 15 5 33 -25 33
-54 0 -12 5 -21 10 -21 6 0 10 -9 10 -21 0 -12 7 -36 16 -55 13 -27 14 -40 5
-66 -8 -21 -8 -35 -1 -42 15 -15 13 -21 -25 -60 -51 -53 -94 -44 -87 19 4 32
-11 55 -23 35 -3 -5 -1 -10 4 -10 6 0 11 -4 11 -9 0 -4 -11 -6 -25 -3 -20 3
-24 1 -19 -12 3 -9 10 -16 16 -16 13 0 38 -64 38 -96 0 -15 6 -34 14 -43 8 -9
33 -36 55 -61 23 -24 41 -47 41 -51 0 -4 15 -5 34 -2 29 4 36 1 47 -18 15 -27
16 -31 18 -59 0 -11 4 -19 9 -19 4 1 16 1 27 0 19 -2 19 -2 2 -15 -11 -9 -14
-17 -8 -20 6 -4 4 -14 -7 -26 -48 -52 -48 -60 -2 -60 17 0 34 -9 43 -22 13
-18 18 -20 25 -9 7 10 14 10 30 2 11 -6 28 -8 36 -5 9 3 16 1 16 -6 0 -6 -5
-8 -11 -5 -6 4 -5 -2 3 -14 7 -12 14 -17 16 -11 5 14 22 2 22 -16 0 -8 -7 -14
-15 -14 -8 0 -15 -8 -15 -19 0 -20 -36 -36 -46 -20 -3 5 -13 9 -23 9 -10 0
-26 9 -36 20 -17 19 -52 29 -41 11 3 -4 -6 -13 -19 -19 -14 -7 -25 -16 -25
-22 0 -5 -9 -10 -19 -10 -11 0 -27 -8 -36 -17 -14 -14 -20 -14 -37 -4 -11 7
-18 8 -14 3 7 -11 -92 -3 -116 9 -9 5 -25 9 -35 9 -54 0 -89 21 -128 75 -35
48 -42 53 -52 39 -8 -10 -20 -14 -33 -11 -15 4 -20 2 -16 -8 2 -7 -7 -21 -20
-30 -26 -17 -111 -27 -119 -14 -8 13 -55 -15 -52 -31 2 -8 9 -14 15 -12 7 1
12 -2 12 -8 0 -5 6 -10 14 -10 8 0 16 -7 20 -15 3 -10 -1 -15 -11 -15 -9 0
-21 -8 -28 -17 -11 -15 -13 -14 -19 8 -25 91 -29 99 -53 99 -15 0 -22 -4 -18
-11 4 -6 10 -8 13 -5 6 7 32 -13 32 -25 0 -5 -6 -9 -14 -9 -22 0 -28 -17 -15
-41 10 -20 9 -21 -9 -17 -13 4 -27 -1 -38 -13 -17 -18 -18 -18 -60 16 -27 22
-53 35 -72 35 -34 0 -87 43 -78 65 3 8 1 15 -5 15 -6 0 -8 8 -5 18 3 9 1 24
-4 32 -6 10 -10 11 -10 3 0 -7 -9 -13 -19 -13 -11 0 -22 6 -24 13 -4 7 -8 3
-12 -10 -4 -13 -10 -23 -13 -23 -3 0 -29 18 -58 40 l-53 40 11 -30 c7 -22 7
-34 -2 -45 -9 -11 -7 -16 9 -24 16 -9 19 -18 14 -41 -3 -17 0 -36 7 -44 6 -8
9 -24 5 -35 -10 -31 10 -33 61 -6 50 26 74 31 74 15 0 -5 16 -24 36 -42 27
-25 43 -32 66 -29 45 4 31 -22 -18 -34 -33 -9 -39 -14 -42 -40 -2 -16 -13 -40
-24 -52 l-20 -21 21 -12 c12 -6 19 -15 16 -21 -4 -5 -1 -9 6 -9 6 0 18 -8 25
-17 13 -17 14 -17 7 2 -6 19 -6 19 14 2 11 -10 33 -20 49 -23 16 -3 38 -14 50
-25 12 -11 28 -17 37 -14 8 4 30 -1 47 -10 30 -16 35 -16 77 0 35 14 43 21 38
36 -5 15 -1 19 18 19 13 0 32 -8 41 -19 9 -10 37 -24 62 -31 24 -7 44 -18 44
-25 0 -7 11 -12 25 -11 14 0 25 7 25 14 0 6 5 12 10 12 6 0 10 7 10 15 0 18 5
19 29 4 13 -9 26 -9 49 -1 22 7 42 8 69 0 25 -7 38 -7 41 0 1 5 12 8 22 5 14
-4 20 0 20 11 0 9 4 16 9 16 5 0 21 4 35 10 23 8 25 13 16 35 -6 16 -6 25 0
25 6 0 10 9 10 20 0 18 3 19 20 10 26 -14 61 -4 54 15 -3 7 -15 16 -27 19 -18
5 -20 8 -7 16 11 7 20 4 32 -13 10 -12 18 -28 18 -34 0 -7 5 -13 10 -13 6 0
10 -9 10 -20 0 -11 7 -20 15 -20 18 0 19 12 3 28 -8 8 -9 12 -1 12 6 0 14 -6
17 -12 3 -9 11 -6 26 11 14 17 17 27 10 36 -7 9 -6 16 5 25 18 15 17 15 35
-28 7 -17 24 -38 38 -45 14 -6 28 -18 30 -26 3 -8 0 -11 -7 -7 -24 15 3 -28
38 -60 40 -36 39 -41 -4 -44 -53 -4 -60 0 -78 40 -20 44 -36 51 -44 20 -5 -18
-15 -24 -35 -21 -17 2 -7 -40 14 -57 52 -42 62 -55 47 -61 -8 -3 -15 -21 -17
-40 -2 -27 0 -32 11 -23 10 8 20 6 42 -8 39 -26 45 -25 45 5 0 16 6 25 16 25
8 0 13 4 10 9 -3 4 5 6 18 4 21 -4 25 0 30 34 11 64 20 71 58 49 18 -10 50
-36 71 -58 20 -21 42 -36 47 -33 6 3 7 -1 4 -10 -4 -8 0 -22 7 -31 7 -9 9 -18
3 -22 -5 -4 -9 -26 -9 -49 0 -33 5 -46 22 -58 27 -19 54 -96 35 -103 -7 -2
-12 -10 -12 -18 0 -8 -10 -14 -25 -14 -30 0 -51 -40 -36 -68 5 -10 6 -33 2
-52 -7 -35 -13 -39 -103 -57 -35 -7 -45 -57 -13 -71 20 -9 24 -26 28 -109 0
-15 17 -18 17 -3 0 6 9 6 22 1 13 -4 36 -4 53 0 38 11 59 4 79 -26 18 -27 36
-33 36 -11 0 7 -9 16 -20 19 -13 3 -20 14 -20 28 0 12 -8 32 -17 43 -18 20
-18 20 8 4 20 -13 29 -14 38 -5 8 8 11 8 11 -1 0 -21 51 -62 76 -62 15 0 25
-8 30 -22 4 -13 23 -38 43 -57 31 -30 34 -35 19 -45 -16 -9 -16 -12 0 -38 9
-15 24 -31 34 -34 10 -3 18 -9 18 -13 0 -5 20 -14 45 -21 37 -10 51 -10 69 0
15 8 40 10 71 5 39 -5 46 -3 38 7 -6 7 -13 24 -16 37 -7 28 31 71 63 71 17 0
20 4 15 20 -5 15 -2 20 14 20 11 0 24 6 28 14 9 14 53 5 53 -12 0 -11 -26 -37
-67 -66 l-33 -23 42 -39 c34 -31 39 -40 25 -42 -12 -3 -16 -9 -12 -22 8 -26
-28 -44 -71 -36 -27 6 -35 3 -44 -13 -6 -12 -26 -31 -44 -43 -32 -22 -36 -27
-36 -48 0 -5 -9 -10 -19 -10 -12 0 -21 -9 -25 -25 -6 -22 -9 -24 -26 -15 -16
9 -20 8 -20 -5 0 -8 -4 -15 -10 -15 -5 0 -10 -7 -10 -15 0 -8 -4 -15 -8 -15
-5 0 -9 -6 -9 -13 0 -17 -33 -67 -45 -67 -5 0 -21 9 -35 20 -14 11 -34 20 -44
20 -10 0 -28 10 -39 22 -20 21 -20 23 -3 35 16 12 16 14 1 29 -17 17 -20 16
-61 -22 -6 -6 -20 -9 -31 -6 -14 4 -18 1 -13 -10 4 -12 1 -14 -14 -11 -14 4
-19 0 -19 -15 0 -12 -9 -23 -20 -27 -25 -8 -26 -31 -1 -47 15 -9 17 -15 9 -25
-6 -8 -8 -16 -5 -19 3 -3 1 -17 -4 -31 -7 -20 -6 -26 9 -29 10 -3 27 -28 40
-62 25 -67 26 -71 11 -109 -35 -86 -11 -107 55 -47 27 24 58 44 68 44 10 0 21
7 24 15 4 8 15 15 26 15 22 0 43 21 58 59 7 15 16 21 26 17 9 -3 20 -6 25 -6
15 0 10 -27 -8 -45 -15 -15 -14 -18 10 -41 15 -14 27 -29 27 -34 0 -5 10 -12
23 -16 21 -7 21 -7 2 -14 -19 -7 -18 -9 15 -42 31 -31 71 -44 78 -25 6 18 1
29 -12 24 -13 -5 -33 11 -51 42 -6 11 0 12 34 6 39 -6 41 -6 41 19 0 29 3 30
30 16 25 -14 30 -2 20 45 -5 22 -5 44 -1 50 17 21 19 54 4 59 -16 7 -10 63 10
81 7 7 8 6 4 -1 -4 -6 2 -19 13 -29 16 -14 20 -15 20 -4 0 20 72 47 78 30 3
-8 15 -4 35 12 41 31 68 37 114 27 24 -6 40 -5 44 1 7 12 35 -50 31 -68 -2 -7
6 -13 16 -13 14 0 21 -9 25 -29 4 -17 14 -32 26 -36 25 -7 18 -29 -13 -43 -36
-16 -41 -77 -9 -119 27 -37 66 -51 88 -33 11 10 23 6 60 -19 48 -32 50 -31 45
28 -2 21 1 23 27 17 37 -10 53 -24 46 -42 -3 -8 1 -14 11 -14 10 0 13 -6 10
-15 -4 -8 -1 -15 5 -15 7 0 14 7 17 15 5 13 10 12 33 -4 31 -22 81 -35 81 -22
0 17 35 18 60 1 14 -9 44 -25 67 -36 24 -10 45 -26 48 -35 4 -11 13 -15 25
-12 12 3 17 10 12 21 -5 14 -3 15 10 4 22 -18 75 -5 82 20 3 15 10 19 23 14 9
-4 14 -4 10 0 -4 4 1 16 10 26 12 14 14 21 5 30 -8 8 -7 15 4 26 8 8 13 21 9
29 -4 11 -1 13 12 8 10 -4 29 -10 43 -13 14 -2 31 -9 38 -15 9 -7 18 -4 33 11
11 12 26 22 33 22 8 0 20 10 29 23 8 12 37 31 66 42 28 11 51 22 51 26 0 4 8
5 18 2 10 -2 24 3 31 11 8 9 20 16 27 16 8 0 14 4 14 10 0 18 40 32 56 19 8
-6 14 -8 14 -3 0 5 21 9 46 9 32 0 48 5 55 16 5 9 20 20 34 23 26 7 29 15 40
99 5 36 10 47 21 43 8 -3 14 -1 14 4 0 6 10 10 23 10 26 0 70 61 61 84 -7 19
39 50 64 42 10 -4 24 -17 30 -31 15 -33 50 -51 58 -31 5 12 11 13 25 5 13 -6
19 -6 19 1 0 5 7 10 15 10 8 0 15 6 15 14 0 7 7 19 15 26 9 7 13 21 10 31 -5
14 1 22 20 29 24 9 26 13 20 49 -6 34 -4 40 15 46 14 4 19 12 16 22 -3 8 -9
27 -13 41 -6 27 -6 27 15 8 12 -11 28 -16 38 -12 22 9 11 66 -16 85 -11 7 -20
21 -20 30 -1 15 -2 15 -13 0 -11 -15 -15 -15 -31 -3 -17 12 -17 14 -3 20 10 3
17 11 17 18 1 15 36 56 49 56 6 0 11 9 11 20 0 11 6 20 14 20 18 0 29 42 13
52 -9 6 -9 10 0 19 10 10 9 15 -5 25 -10 8 -12 13 -4 14 6 0 12 7 12 16 0 8 5
12 11 9 5 -4 21 -4 34 -1 23 6 24 10 19 50 -7 47 8 86 31 86 8 0 15 5 15 11 0
32 40 38 149 23 37 -5 43 -4 38 9 -3 9 1 21 9 27 8 7 14 23 14 36 0 21 5 24
40 24 37 0 40 2 40 29 0 25 5 30 38 37 20 4 45 6 55 5 9 -1 20 4 23 12 3 9 16
18 30 21 13 4 24 12 24 19 0 26 20 41 57 44 21 1 39 7 41 13 7 19 42 11 42
-10 0 -24 36 -86 42 -70 2 6 19 15 38 19 21 4 39 15 46 29 6 12 14 19 17 15 4
-3 7 -1 7 5 0 7 6 12 14 12 7 0 16 9 19 20 4 16 14 20 46 20 27 0 44 5 47 14
4 11 13 12 35 6 37 -11 38 2 3 67 -16 31 -32 48 -45 49 -10 1 -19 -5 -19 -12
0 -8 -9 -14 -20 -14 -11 0 -20 -6 -20 -14 0 -24 -39 -6 -55 25 -8 15 -15 32
-15 38 0 9 28 28 78 50 30 14 28 33 -8 53 l-30 17 6 -26 c5 -18 4 -24 -5 -19
-6 4 -11 15 -11 25 0 30 -37 54 -90 59 -58 5 -62 22 -9 35 27 6 38 16 47 40 8
21 8 33 1 37 -5 4 -9 12 -7 18 2 6 -6 17 -17 26 -29 21 -7 43 25 26 20 -11 22
-10 17 4 -6 14 -1 15 33 10 32 -5 41 -3 45 10 3 9 8 24 12 34 4 9 7 35 7 57 1
38 3 40 33 40 17 0 34 3 38 7 15 15 35 -6 35 -36 0 -17 7 -51 16 -75 8 -24 13
-44 12 -45 -2 0 -13 -7 -26 -14 -13 -7 -27 -10 -32 -7 -13 8 -13 -7 0 -40 l10
-27 31 27 c18 14 49 35 70 45 48 25 73 58 57 77 -14 17 -2 31 13 16 8 -8 20
-8 37 -2 44 17 53 28 40 49 -9 14 -9 22 0 33 10 12 9 16 -8 20 -17 4 -25 -2
-37 -29 -9 -19 -21 -34 -26 -34 -5 0 -21 13 -36 29 -15 16 -35 30 -46 32 -23
5 -32 29 -11 29 9 0 33 9 53 20 21 11 51 20 68 20 26 0 36 8 59 45 16 25 35
50 42 56 20 16 17 31 -4 25 -11 -4 -19 -1 -20 6 -2 34 -13 63 -27 70 -13 8
-13 12 1 33 9 14 13 32 10 41 -4 10 7 27 30 50 32 29 34 34 16 34 -11 0 -24 5
-28 11 -4 7 -9 7 -13 2 -7 -11 -97 -24 -106 -15 -12 13 -102 -1 -145 -21 -31
-15 -46 -29 -48 -45 -3 -16 -8 -22 -19 -18 -15 6 -70 -41 -65 -57 1 -4 -8 -11
-21 -16 -13 -5 -30 -23 -37 -40 -7 -17 -16 -31 -20 -31 -15 0 -61 -54 -55 -67
19 -47 19 -47 2 -40 -14 5 -16 2 -11 -19 8 -32 -24 -94 -48 -94 -10 0 -18 -7
-18 -15 0 -8 -10 -25 -21 -36 -13 -13 -24 -39 -27 -66 -2 -24 -7 -41 -10 -38
-3 2 -10 1 -16 -4 -6 -5 -22 -5 -36 1 -22 9 -23 11 -7 17 10 3 24 18 31 33 12
23 12 29 0 39 -8 6 -14 17 -14 24 0 7 -8 23 -19 36 -10 13 -21 41 -25 61 -6
35 -5 38 21 44 34 8 55 23 48 34 -3 5 4 12 16 15 15 5 19 13 15 28 -3 12 1 28
8 37 18 21 28 67 16 75 -16 10 -12 25 5 19 19 -8 19 10 0 40 -8 12 -16 36 -17
52 -1 16 -9 40 -19 54 -24 36 -32 67 -19 75 22 14 31 60 24 124 -6 55 -11 69
-38 93 -17 15 -41 28 -53 28 -13 0 -23 4 -23 9 0 6 -11 21 -24 35 -23 26 -23
26 -70 10 -33 -11 -46 -21 -46 -35 0 -29 -37 -57 -70 -53 -25 3 -30 0 -30 -19
0 -20 -6 -22 -52 -25 -37 -1 -59 -8 -73 -22 -11 -12 -14 -20 -7 -20 7 0 12 -4
12 -9 0 -11 -106 11 -139 28 -20 11 -27 10 -52 -8 -34 -26 -63 -27 -86 -3 -14
13 -23 15 -40 7 -13 -5 -23 -13 -23 -18 0 -4 -9 -3 -20 3 -17 9 -24 7 -38 -10
-14 -17 -29 -21 -81 -21 -49 -1 -66 3 -73 15 -5 9 -14 14 -19 10 -6 -3 -23 5
-37 19 -35 32 -79 40 -101 18 -10 -10 -23 -15 -30 -13 -6 2 -25 -1 -42 -8 -23
-10 -32 -10 -44 0 -12 10 -18 10 -30 0 -10 -9 -15 -9 -15 -1 0 6 -7 11 -15 11
-8 0 -15 -7 -15 -15 0 -8 -11 -25 -24 -38 l-25 -25 -22 24 c-30 32 -74 53 -98
47 -10 -2 -22 0 -25 6 -10 16 -61 14 -75 -3 -6 -8 -28 -16 -47 -18 -30 -3 -42
1 -65 25 -23 22 -27 32 -19 46 6 12 5 29 -3 50 -10 28 -9 33 11 47 12 8 22 21
22 28 0 8 7 16 15 20 8 3 15 12 15 21 0 8 9 15 20 15 12 0 20 7 20 16 0 12 -6
15 -25 10 -21 -5 -25 -3 -25 18 0 18 -7 26 -27 31 -17 4 -29 2 -31 -4 -6 -19
-49 -12 -79 13 -28 23 -69 26 -98 6 -16 -10 -63 -11 -70 0 -3 5 -15 6 -28 1
-74 -28 -98 -33 -112 -21 -8 7 -15 16 -15 21 0 5 -26 36 -59 69 -50 50 -70 63
-137 86 -43 15 -87 38 -98 51 -26 29 -86 43 -86 20 0 -10 -15 -17 -46 -22 -34
-5 -48 -12 -51 -26 -7 -27 -31 -24 -45 6 -6 14 -18 25 -27 25 -9 1 -26 6 -39
14 -21 11 -22 14 -8 25 23 20 19 38 -11 53 -16 8 -30 25 -34 42 -10 35 -2 51
15 37 19 -16 25 -4 16 35 -17 74 -83 110 -205 113 -44 1 -84 6 -89 11 -11 11
-27 87 -26 127 0 23 -6 35 -22 45 -13 7 -28 11 -35 10 -7 -2 -22 11 -34 28
-17 23 -31 30 -56 30 -18 0 -33 -4 -33 -9 0 -5 -12 -11 -27 -13 -30 -4 -73 10
-73 24 0 4 -13 8 -30 8 -16 0 -30 4 -30 8 0 5 -6 16 -12 25 -10 12 -17 14 -31
6z m4003 -1709 c0 -5 -6 -10 -14 -10 -8 0 -18 -9 -21 -20 -8 -24 -21 -26 -29
-4 -11 27 -7 36 14 31 11 -3 23 -1 26 4 7 12 24 11 24 -1z m-80 -102 c0 -5 -6
-8 -14 -8 -9 0 -12 7 -9 21 4 16 8 17 14 7 5 -7 9 -16 9 -20z m180 -53 c0 -8
-4 -15 -9 -15 -13 0 -22 16 -14 24 11 11 23 6 23 -9z m-5343 -77 c-3 -8 -6 -5
-6 6 -1 11 2 17 5 13 3 -3 4 -12 1 -19z m1171 -28 c2 -17 -7 -35 -28 -57 -17
-18 -28 -37 -25 -46 9 -22 -47 -30 -84 -11 -17 9 -31 21 -31 27 0 7 -9 18 -20
25 -26 16 -28 47 -2 37 34 -15 72 -18 72 -5 0 7 7 10 15 6 9 -3 15 0 15 9 0
46 83 61 88 15z m2803 -677 c21 -12 29 -25 29 -44 0 -25 -2 -27 -28 -20 -47
14 -132 -14 -164 -54 -16 -18 -37 -37 -48 -40 -11 -4 -20 -14 -20 -23 0 -12
-4 -9 -13 8 -11 22 -10 30 12 63 18 27 30 36 43 31 21 -6 24 6 6 25 -11 10 -8
16 11 32 17 14 26 16 31 8 5 -6 16 -8 29 -4 12 3 19 11 16 16 -8 13 9 11 22
-2 8 -8 15 -6 24 5 18 19 15 19 50 -1z m-141 -163 c0 -5 -4 -10 -9 -10 -6 0
-13 5 -16 10 -3 6 1 10 9 10 9 0 16 -4 16 -10z m-554 -198 c-4 -3 -12 0 -19 7
-9 9 -9 14 3 21 11 7 16 5 18 -6 2 -9 1 -18 -2 -22z m158 -320 c2 -4 1 -14 -4
-22 -7 -11 -11 -11 -24 -1 -9 8 -16 22 -16 33 0 15 3 17 19 8 11 -5 22 -14 25
-18z m-164 -22 c0 -5 -7 -7 -15 -4 -8 4 -15 8 -15 10 0 2 7 4 15 4 8 0 15 -4
15 -10z m-1204 -212 c3 -5 12 -4 20 3 11 9 14 8 14 -5 0 -12 6 -15 24 -10 13
3 27 1 31 -5 3 -6 10 -9 15 -6 4 3 10 -2 14 -10 3 -8 1 -17 -4 -20 -6 -4 -10
-1 -10 4 0 19 -22 12 -27 -9 -6 -24 -16 -25 -33 -5 -9 11 -16 12 -31 2 -11 -7
-17 -18 -14 -24 2 -7 0 -13 -5 -13 -6 0 -10 7 -10 15 0 14 -16 19 -51 16 -9
-1 -22 6 -30 16 -8 9 -9 14 -2 10 6 -4 13 -3 15 3 2 6 14 4 30 -4 17 -9 30
-11 34 -5 3 5 10 7 15 4 5 -4 9 -1 9 4 0 6 -4 11 -9 11 -12 0 -41 28 -41 40 0
10 38 1 46 -12z m-456 -42 c0 -2 -8 -10 -17 -17 -16 -13 -17 -12 -4 4 13 16
21 21 21 13z m592 -84 c10 -8 15 -19 12 -23 -3 -5 0 -9 5 -9 6 0 11 -7 11 -15
0 -8 7 -15 15 -15 9 0 15 -9 15 -25 0 -14 4 -25 9 -25 5 0 16 -17 24 -37 12
-32 13 -40 1 -59 -13 -18 -12 -23 1 -34 8 -7 15 -21 15 -31 0 -10 9 -23 20
-29 11 -6 18 -15 14 -21 -4 -7 -10 -6 -18 0 -7 6 -16 7 -21 3 -4 -4 -6 -1 -3
7 6 19 -27 51 -52 51 -25 0 -38 31 -36 83 2 32 -1 37 -21 37 -24 0 -24 1 -28
76 -1 22 -5 46 -8 52 -10 15 3 43 17 35 6 -3 19 -13 28 -21z"/>
<path d="M10035 12189 c38 -45 79 -69 115 -69 25 0 20 31 -12 69 -26 30 -30
31 -65 22 -31 -9 -41 -8 -57 7 -12 9 -3 -4 19 -29z"/>
<path d="M9950 12210 c-13 -8 -12 -11 5 -24 21 -15 37 -4 28 21 -6 15 -13 16
-33 3z"/>
<path d="M11097 12159 c-23 -28 -31 -31 -61 -26 -28 4 -34 3 -29 -9 3 -8 2
-14 -3 -13 -27 5 -43 -2 -38 -16 4 -9 0 -15 -9 -15 -8 0 -17 -7 -21 -15 -3 -8
-17 -15 -31 -15 -18 0 -25 -5 -25 -19 0 -12 -11 -23 -29 -29 -27 -10 -60 -50
-50 -62 2 -3 -11 -12 -28 -20 -18 -8 -33 -21 -33 -28 0 -7 -7 -15 -15 -18 -12
-5 -13 -10 -4 -20 11 -13 7 -16 -17 -13 -10 1 -23 -24 -17 -34 2 -4 11 -3 18
3 17 14 43 3 76 -34 29 -33 29 -51 -1 -59 -14 -4 -17 -11 -13 -27 5 -20 3 -22
-20 -18 -15 3 -28 2 -28 -1 -6 -29 -4 -69 5 -81 10 -13 9 -13 -8 0 -15 11 -20
12 -23 3 -3 -7 -11 -13 -19 -13 -8 0 -14 -5 -14 -11 0 -5 4 -8 8 -5 5 3 6 -9
4 -26 -5 -31 -5 -31 33 -24 33 7 36 5 31 -12 -8 -24 17 -52 47 -52 23 0 49
-13 48 -24 -2 -16 0 -18 14 -6 8 7 36 14 61 16 38 3 53 -2 90 -27 29 -20 44
-37 44 -52 0 -12 12 -35 26 -51 l25 -29 28 27 c15 14 32 26 38 26 17 0 26 37
14 59 -8 15 -7 20 5 25 24 9 35 -3 23 -25 -12 -24 -5 -49 13 -49 7 0 26 -24
42 -54 16 -30 39 -59 50 -64 44 -21 54 -21 61 1 3 12 8 17 11 12 7 -17 74 -5
74 13 0 13 4 12 23 -5 18 -16 28 -19 52 -11 53 16 69 14 99 -14 16 -16 23 -28
17 -28 -7 0 -9 -5 -6 -11 4 -6 -1 -16 -11 -24 -18 -13 -17 -16 17 -52 42 -44
65 -83 49 -83 -6 0 -4 -12 5 -30 11 -21 23 -30 39 -30 14 0 26 -4 28 -9 2 -5
12 -11 23 -13 11 -1 26 -9 34 -16 10 -10 16 -10 21 -2 4 7 16 10 27 8 22 -3
53 18 53 37 0 14 50 35 81 35 11 0 19 9 21 23 2 13 11 23 24 25 16 2 20 9 16
31 -2 16 1 32 8 36 8 5 8 11 1 19 -8 9 -4 16 14 26 17 9 23 19 20 30 -4 13 2
19 23 23 28 6 29 8 31 73 2 83 -14 114 -58 109 -25 -3 -33 2 -50 31 -11 19
-25 34 -31 34 -6 0 -8 10 -5 23 7 32 -27 67 -72 74 -21 3 -50 14 -65 25 -15
10 -31 17 -36 16 -12 -4 -132 123 -138 147 -3 13 5 31 25 52 16 18 29 42 28
54 -1 12 -25 44 -54 73 -29 28 -53 58 -53 66 0 51 -115 120 -187 112 -38 -4
-44 -1 -54 22 -9 19 -16 23 -28 17 -9 -5 -27 -4 -41 1 -20 7 -22 11 -10 19 12
8 9 9 -9 5 -14 -3 -30 -1 -35 3 -18 14 -79 19 -105 9 -16 -5 -28 -5 -35 2 -15
15 -21 13 -49 -21z m88 -469 c3 -5 1 -10 -4 -10 -6 0 -11 5 -11 10 0 6 2 10 4
10 3 0 8 -4 11 -10z m-15 -100 c0 -13 -5 -17 -20 -13 -15 4 -18 9 -10 18 5 6
7 15 3 19 -4 4 0 4 10 0 9 -3 17 -14 17 -24z m-20 -44 c0 -3 -4 -8 -10 -11 -5
-3 -10 -1 -10 4 0 6 5 11 10 11 6 0 10 -2 10 -4z m50 -56 c11 -21 5 -60 -9
-60 -6 0 -31 58 -31 73 0 16 30 5 40 -13z"/>
<path d="M10144 12102 c14 -13 -49 -29 -77 -19 -24 8 -30 6 -47 -16 -11 -14
-36 -35 -55 -47 -21 -13 -35 -30 -35 -42 0 -11 -8 -22 -20 -25 -11 -3 -20 -14
-20 -24 0 -10 -5 -21 -10 -24 -18 -11 -50 -83 -47 -106 1 -17 -5 -25 -23 -30
-16 -5 -19 -7 -7 -8 10 -1 22 -13 27 -27 13 -33 13 -32 -12 -36 -19 -2 -25
-12 -32 -50 -5 -27 -13 -48 -18 -48 -4 0 -8 -13 -8 -30 0 -16 5 -30 10 -30 6
0 10 -5 10 -11 0 -5 -4 -7 -10 -4 -6 3 -10 -5 -10 -19 0 -14 -5 -28 -12 -32
-8 -5 -9 0 -5 15 4 18 3 20 -8 11 -8 -7 -13 -22 -12 -33 1 -17 -3 -22 -20 -22
-30 0 -70 -52 -56 -74 17 -28 55 -24 92 10 30 28 33 34 22 52 -12 18 -11 19 6
12 10 -4 32 -9 50 -10 25 -2 34 3 42 22 7 15 17 23 26 20 17 -7 39 18 30 34
-5 8 -1 9 14 4 20 -6 21 -4 15 22 -4 15 -10 32 -14 36 -11 12 1 58 12 50 6 -3
8 0 6 8 -3 8 2 19 10 25 14 10 14 16 1 56 -19 57 -5 117 31 135 22 11 26 10
33 -10 5 -14 4 -23 -3 -25 -7 -3 -5 -11 5 -22 9 -10 23 -16 30 -14 8 4 26 -12
44 -37 17 -23 31 -37 31 -30 0 9 5 9 22 0 17 -9 24 -9 32 2 6 8 24 20 39 27
23 10 32 10 49 -2 25 -18 48 -10 48 16 0 19 2 18 21 -6 16 -21 24 -24 39 -16
10 5 20 20 22 32 4 29 37 36 56 12 13 -16 14 -16 9 -2 -4 11 2 24 18 36 25 20
31 64 8 55 -7 -3 -13 -11 -13 -19 0 -15 -10 -17 -34 -8 -12 5 -14 10 -6 19 9
10 6 16 -9 25 -12 6 -21 19 -21 29 0 26 -32 51 -65 51 -21 0 -43 16 -94 69
-36 37 -77 71 -89 74 -13 3 -21 3 -18 -1z"/>
<path d="M10693 12058 c1 -8 -14 -15 -43 -18 -26 -3 -45 -10 -46 -17 -1 -7 -2
-17 -2 -23 -1 -5 -15 -10 -31 -10 -28 0 -29 -2 -22 -28 5 -15 6 -42 3 -60 -4
-27 -1 -32 16 -32 13 0 22 9 26 25 4 14 11 25 16 25 6 0 10 12 10 26 0 17 4
23 12 18 7 -5 9 -2 5 9 -5 12 2 17 31 19 31 3 37 7 36 26 0 17 4 21 15 17 11
-4 10 -1 -4 15 -21 23 -26 25 -22 8z"/>
<path d="M10525 11860 c-3 -5 1 -10 10 -10 9 0 13 5 10 10 -3 6 -8 10 -10 10
-2 0 -7 -4 -10 -10z"/>
<path d="M12742 11442 c1 -4 -2 -24 -7 -45 -5 -27 -15 -41 -30 -47 -16 -6 -22
-15 -19 -27 4 -15 -5 -21 -43 -32 -26 -8 -51 -19 -55 -24 -4 -7 -16 -4 -32 6
-32 21 -37 21 -29 1 7 -19 -12 -34 -44 -34 -16 0 -20 5 -16 19 3 10 0 22 -6
25 -7 4 -11 -1 -11 -14 0 -34 -18 -59 -38 -53 -19 5 -25 43 -8 55 18 12 -1 20
-45 20 -35 -1 -40 2 -36 18 3 13 -3 24 -19 35 -20 13 -31 13 -69 4 -56 -14
-58 -34 -10 -78 19 -17 36 -38 36 -46 1 -8 2 -21 3 -27 0 -7 13 -14 29 -16 15
-2 27 -8 27 -13 0 -5 16 -27 36 -49 33 -36 36 -43 26 -66 -7 -13 -19 -27 -27
-31 -13 -4 -14 -15 -9 -50 5 -33 16 -53 47 -84 22 -22 41 -49 42 -61 2 -23 38
-55 43 -39 2 6 21 2 45 -11 27 -13 38 -16 30 -6 -8 9 -10 32 -6 65 4 42 10 53
27 57 26 6 47 59 39 98 -3 15 -2 36 2 45 4 10 7 31 6 46 -2 22 2 30 19 34 15
4 19 10 14 22 -3 9 -9 27 -12 39 -5 24 -4 24 26 8 17 -9 47 -16 67 -16 30 0
35 3 35 24 0 14 7 26 16 28 11 2 16 17 18 55 3 41 10 60 36 94 32 39 33 42 16
55 -10 7 -24 10 -31 8 -7 -3 -29 -1 -49 4 -19 6 -35 7 -34 4z m33 -22 c3 -5
-1 -10 -9 -10 -9 0 -16 5 -16 10 0 6 4 10 9 10 6 0 13 -4 16 -10z"/>
<path d="M10864 11405 c1 -8 8 -21 16 -28 12 -10 12 -9 2 4 -6 9 -9 18 -6 21
3 3 1 9 -4 12 -6 3 -9 -1 -8 -9z"/>
<path d="M11335 11170 c-3 -5 -2 -10 4 -10 5 0 13 5 16 10 3 6 2 10 -4 10 -5
0 -13 -4 -16 -10z"/>
<path d="M7077 11065 c-15 -11 -15 -14 -3 -24 22 -18 48 -1 32 20 -10 14 -15
15 -29 4z"/>
<path d="M12462 10761 c-16 -10 -6 -81 12 -81 6 0 21 -3 34 -6 13 -4 22 -2 22
5 0 6 -9 11 -20 11 -20 0 -26 17 -22 63 2 19 -6 21 -26 8z"/>
<path d="M12575 10720 c3 -5 10 -10 16 -10 5 0 9 5 9 10 0 6 -7 10 -16 10 -8
0 -12 -4 -9 -10z"/>
<path d="M12605 10700 c-10 -17 12 -37 25 -24 8 8 6 15 -4 23 -10 9 -16 9 -21
1z"/>
<path d="M7227 10676 c4 -17 11 -24 24 -23 28 2 21 41 -7 45 -18 3 -21 -1 -17
-22z"/>
<path d="M12428 10640 c-3 -36 -1 -40 20 -40 19 0 22 4 18 20 -3 11 -9 29 -12
40 -9 33 -22 23 -26 -20z"/>
<path d="M12560 10666 c0 -9 30 -14 35 -6 4 6 -3 10 -14 10 -12 0 -21 -2 -21
-4z"/>
<path d="M12510 10605 c0 -19 5 -35 10 -35 6 0 10 16 10 35 0 19 -4 35 -10 35
-5 0 -10 -16 -10 -35z"/>
<path d="M12339 10571 c-21 -11 -46 -17 -58 -14 -16 4 -21 1 -21 -16 0 -11 -6
-21 -14 -21 -7 0 -16 -14 -20 -32 -7 -34 -32 -68 -51 -68 -7 0 -19 -8 -29 -19
-21 -23 -62 -16 -82 15 -22 33 -48 21 -40 -19 5 -24 4 -27 -8 -18 -11 9 -15 7
-18 -12 -5 -24 -4 -24 23 -8 23 13 32 14 47 4 11 -7 37 -9 61 -6 27 4 41 2 41
-6 0 -6 -4 -11 -9 -11 -5 0 -16 -11 -25 -25 -13 -19 -14 -30 -6 -45 7 -14 7
-20 0 -20 -6 0 -6 -7 2 -20 15 -24 28 -26 28 -5 0 8 8 15 17 15 19 0 74 56 91
95 11 25 15 26 30 13 30 -25 70 -39 75 -25 3 9 7 9 17 0 7 -6 18 -9 24 -7 7 3
18 -7 24 -21 7 -14 20 -25 31 -25 11 0 36 -17 55 -37 36 -38 56 -41 37 -5 -14
26 -14 72 -1 72 12 0 13 45 1 87 -8 26 -6 34 9 45 14 9 17 21 13 41 -7 34 -35
36 -66 4 -16 -17 -32 -23 -57 -21 -19 1 -43 -2 -53 -8 -14 -7 -24 -5 -37 7
-12 11 -20 13 -25 6 -3 -6 -12 -11 -18 -11 -7 0 -4 7 6 14 9 7 17 22 17 34 0
11 11 34 25 50 14 17 25 33 25 36 0 11 -25 6 -61 -13z m-129 -201 c18 -12 2
-12 -25 0 -13 6 -15 9 -5 9 8 0 22 -4 30 -9z m317 -107 c-3 -10 -5 -4 -5 12 0
17 2 24 5 18 2 -7 2 -21 0 -30z"/>
<path d="M6517 10559 c19 -19 3 -57 -28 -64 -16 -4 -33 -4 -39 0 -5 3 -10 1
-10 -4 0 -6 5 -11 10 -11 6 0 10 -7 10 -16 0 -11 -5 -14 -17 -10 -13 5 -12 1
6 -18 12 -13 32 -27 43 -29 16 -5 18 -3 9 6 -19 19 -12 27 24 27 29 0 36 4 41
26 5 18 0 32 -17 51 -19 20 -20 25 -6 20 22 -8 23 18 1 27 -26 10 -40 8 -27
-5z"/>
<path d="M6600 10551 c0 -6 4 -13 10 -16 6 -3 7 1 4 9 -7 18 -14 21 -14 7z"/>
<path d="M12500 10545 c0 -8 2 -15 4 -15 2 0 12 -3 21 -6 15 -6 15 -4 4 15
-16 25 -29 27 -29 6z"/>
<path d="M6456 10402 c-11 -17 12 -62 29 -57 50 16 48 14 30 31 -9 9 -19 14
-22 10 -3 -3 -11 2 -18 11 -8 10 -14 12 -19 5z"/>
<path d="M11855 10330 c3 -5 8 -10 11 -10 2 0 4 5 4 10 0 6 -5 10 -11 10 -5 0
-7 -4 -4 -10z"/>
<path d="M11910 10308 c0 -6 -12 -8 -30 -4 -22 4 -30 2 -30 -8 0 -8 -3 -22 -6
-31 -4 -10 -2 -15 7 -13 9 2 15 -7 17 -24 3 -24 6 -26 21 -18 10 5 22 6 27 2
5 -4 1 2 -9 14 -22 27 -22 34 4 34 18 0 19 2 9 15 -7 9 -10 18 -6 22 11 11 56
-20 56 -39 0 -10 7 -18 16 -18 11 0 14 5 10 16 -3 9 -9 26 -12 38 -4 17 -13
22 -40 23 -19 1 -34 -4 -34 -9z"/>
<path d="M11990 10221 c0 -16 27 -31 48 -28 35 5 35 14 1 26 -39 13 -49 14
-49 2z"/>
<path d="M12076 10200 c9 -16 17 -30 20 -30 2 0 4 14 4 30 0 23 -5 30 -19 30
-18 0 -19 -2 -5 -30z"/>
<path d="M12496 10201 c-3 -5 1 -14 8 -21 8 -6 13 -20 11 -32 -4 -16 -2 -18
10 -8 8 7 15 21 15 31 0 20 -35 44 -44 30z"/>
<path d="M12122 10188 c-14 -14 -16 -28 -3 -28 5 0 11 9 14 20 6 23 5 24 -11
8z"/>
<path d="M12060 10145 c0 -8 2 -15 4 -15 2 0 6 7 10 15 3 8 1 15 -4 15 -6 0
-10 -7 -10 -15z"/>
<path d="M12532 10104 c10 -10 20 -15 24 -12 3 4 -5 12 -18 18 -22 12 -22 12
-6 -6z"/>
<path d="M11982 10094 c-7 -12 -14 -13 -35 -5 -15 6 -26 7 -26 3 4 -24 -3 -42
-16 -42 -8 0 -15 -6 -15 -14 0 -11 -9 -13 -37 -9 -21 3 -43 9 -48 14 -6 4 -20
8 -30 7 -11 0 -32 3 -48 7 -23 6 -26 4 -21 -9 5 -13 -1 -16 -30 -16 -27 0 -36
4 -36 17 0 14 -2 14 -20 -2 l-21 -19 22 -12 c16 -8 18 -13 8 -16 -10 -3 -8 -8
9 -17 14 -8 22 -21 22 -39 0 -15 8 -39 17 -52 10 -14 16 -33 15 -42 -2 -11 3
-18 12 -18 8 0 18 -5 22 -12 5 -7 2 -9 -9 -5 -11 4 -14 2 -11 -8 8 -19 44 -27
44 -9 0 8 5 14 10 14 7 0 7 -7 -1 -21 -6 -13 -7 -25 -2 -30 13 -13 43 0 43 18
0 11 8 12 38 7 20 -4 40 -11 43 -16 4 -6 15 -8 25 -6 15 3 18 11 16 36 -1 21
2 32 11 32 20 0 43 48 30 61 -6 6 -9 17 -6 24 2 8 0 23 -7 34 -12 23 3 66 21
56 5 -4 9 -1 9 6 0 8 4 8 15 -1 9 -7 14 -19 11 -27 -6 -16 -5 -16 28 -3 21 8
26 16 26 45 0 28 4 35 19 35 11 0 23 -4 26 -10 9 -15 25 -12 25 5 0 8 -5 15
-12 15 -6 0 -20 8 -30 17 -24 22 -95 26 -106 7z"/>
<path d="M11700 9755 c0 -8 -4 -15 -8 -15 -5 0 -15 -11 -22 -25 -7 -14 -22
-25 -32 -25 -10 0 -18 -5 -18 -11 0 -6 -7 -3 -16 5 -39 39 -105 27 -122 -23
-10 -30 -8 -98 3 -125 7 -16 5 -18 -13 -14 -31 9 -27 -8 13 -50 20 -21 37 -52
41 -72 8 -47 30 -80 54 -80 25 0 36 -18 16 -26 -18 -7 -21 -39 -5 -49 6 -4 13
3 16 15 3 11 11 19 18 16 17 -6 40 10 41 31 1 10 5 26 9 36 5 12 2 17 -9 17
-18 0 -22 15 -6 25 7 4 7 12 0 25 -14 27 -13 30 15 30 14 0 34 9 46 21 13 13
27 18 41 14 11 -4 31 -8 44 -10 21 -2 24 2 24 31 0 19 5 34 12 34 6 0 2 10
-10 23 -17 18 -20 30 -15 60 5 36 -9 53 -21 25 -3 -7 -3 -1 -1 13 3 23 0 26
-25 23 -18 -2 -30 2 -34 11 -4 11 2 15 19 15 35 0 31 11 -15 42 -30 21 -40 24
-40 13z m-85 -405 c3 -5 1 -10 -4 -10 -6 0 -11 5 -11 10 0 6 2 10 4 10 3 0 8
-4 11 -10z"/>
<path d="M7470 9720 c0 -16 -38 -48 -54 -47 -11 1 -25 -10 -36 -30 -9 -18 -21
-29 -25 -25 -4 4 -4 -11 -1 -33 3 -22 2 -46 -3 -54 -12 -18 16 -64 35 -57 7 3
18 -2 25 -10 7 -8 21 -20 31 -25 18 -10 19 -6 17 58 -2 37 -7 74 -13 81 -6 9
-4 22 7 41 9 16 13 32 9 36 -4 4 5 5 21 3 19 -4 27 -1 27 9 0 11 5 11 30 -2
38 -20 43 -19 28 5 -7 11 -19 20 -26 20 -8 0 -12 6 -9 14 4 10 -4 15 -29 18
-19 2 -34 1 -34 -2z"/>
<path d="M7396 9415 c-3 -8 -1 -15 4 -15 13 0 22 18 11 24 -5 3 -11 -1 -15 -9z"/>
<path d="M7310 9355 c0 -8 7 -15 15 -15 8 0 15 4 15 9 0 5 8 12 18 14 9 3 2 5
-15 6 -23 1 -33 -4 -33 -14z"/>
<path d="M7945 9050 c-3 -5 1 -10 9 -10 9 0 16 5 16 10 0 6 -4 10 -9 10 -6 0
-13 -4 -16 -10z"/>
<path d="M7915 9005 c-11 -8 -28 -15 -38 -15 -15 0 -17 -5 -12 -29 5 -24 2
-32 -17 -42 -13 -7 -24 -12 -25 -11 -17 11 -19 -5 -6 -34 14 -29 15 -37 4 -43
-10 -7 -12 -21 -6 -56 6 -45 5 -47 -13 -43 -27 7 -18 -16 14 -37 l24 -15 0 40
c0 27 5 43 15 46 8 4 15 13 15 21 0 9 8 21 17 28 12 9 14 17 7 26 -7 10 -7 27
0 55 10 37 13 41 34 33 20 -7 21 -6 13 8 -6 12 -5 20 4 28 11 8 12 14 2 33
-12 20 -15 21 -32 7z"/>
<path d="M7700 8684 c-7 -8 -21 -14 -32 -14 -17 0 -17 -2 -5 -27 8 -14 24 -27
35 -28 16 -1 23 7 30 36 11 42 -6 61 -28 33z"/>
<path d="M10350 8636 c0 -4 5 -16 10 -27 11 -20 50 -27 50 -9 0 6 -5 10 -12
10 -6 0 -20 7 -30 17 -10 9 -18 13 -18 9z"/>
<path d="M7801 8171 c-8 -5 -11 -16 -8 -24 7 -18 -32 -57 -57 -57 -14 0 -17
-5 -12 -22 4 -16 -3 -34 -24 -60 -17 -20 -30 -48 -30 -61 0 -61 -37 -107 -85
-107 -8 0 -15 -4 -15 -10 0 -5 -8 -10 -17 -10 -13 0 -14 -3 -5 -12 7 -7 12
-16 12 -22 0 -5 -3 -6 -7 -3 -3 4 -12 2 -20 -4 -13 -11 -14 -10 -17 13 -2 21
-27 20 -33 -1 -3 -12 -12 -21 -19 -21 -8 0 -14 -9 -14 -20 0 -11 -8 -23 -17
-26 -38 -12 -67 -33 -75 -55 -5 -13 -6 -20 -2 -16 16 16 32 -14 24 -44 -5 -16
-5 -29 0 -29 15 0 59 -45 69 -72 11 -29 6 -38 -21 -38 -19 0 -19 -1 2 -27 21
-27 24 -72 5 -85 -7 -5 -7 -8 0 -8 47 1 81 100 51 148 -3 6 6 13 23 17 16 3
37 15 47 26 9 10 23 19 31 19 7 0 13 9 13 20 0 11 7 20 15 20 9 0 19 10 24 23
5 12 26 39 46 60 33 34 42 38 71 32 33 -6 34 -5 34 25 0 21 4 29 11 24 7 -4
10 -1 7 6 -6 19 40 62 60 56 10 -3 24 4 34 18 15 21 16 26 3 36 -8 7 -15 25
-15 41 0 22 -6 30 -33 40 -33 11 -62 53 -50 72 3 5 0 13 -8 17 -10 7 -6 12 13
21 33 15 41 44 22 81 -16 32 -14 31 -33 19z"/>
<path d="M8956 8130 c-15 -5 -16 -9 -7 -14 7 -5 18 -3 24 3 14 14 6 20 -17 11z"/>
<path d="M7390 7360 c0 -5 -14 -10 -30 -10 -28 0 -30 -2 -20 -20 6 -11 9 -32
8 -48 -2 -21 1 -27 17 -27 12 0 21 8 23 20 2 11 11 28 19 37 9 10 12 25 8 37
-6 21 -25 29 -25 11z"/>
<path d="M7327 7244 c-8 -8 1 -24 14 -24 5 0 9 7 9 15 0 15 -12 20 -23 9z"/>
<path d="M7265 7207 c-11 -6 -26 -17 -33 -24 -13 -13 -26 -17 -49 -14 -6 1 -9
-7 -6 -17 3 -14 -1 -19 -19 -18 -20 1 -23 -5 -26 -36 -2 -21 -8 -38 -13 -38
-10 0 49 -92 64 -98 13 -6 7 -31 -10 -41 -20 -11 -15 -13 40 -15 28 -2 28 -1
23 39 -3 22 -2 47 3 55 6 9 6 19 -1 27 -16 20 -1 80 22 86 21 5 26 32 11 56
-7 10 -4 19 7 27 23 16 12 25 -13 11z"/>
<path d="M7263 6835 c9 -6 19 -23 22 -38 9 -36 20 -34 20 2 0 34 -8 44 -37 46
-18 2 -19 0 -5 -10z"/>
</g>
</svg>
