<svg version="1" xmlns="http://www.w3.org/2000/svg" width="1233.797" height="959.186" viewBox="0 0 925.348 719.39"><g fill="#222"><path d="M30.506.087c-.1.5-.1 1.1 0 1.5 0 .5-1 .8-2.4.8-3 0-3.1.5-.7 3.4 1.5 1.9 2 2.1 3 .9.7-.7 1.7-1.1 2.2-.8 1.8 1.1 1.8-2.7 0-4.5-1.1-1.1-2.1-1.7-2.1-1.3zM20.606 6.387l-2.5 2.1 2.8-1.2c1.5-.7 2.7-1.6 2.7-2.1 0-1.1-.1-1-3 1.2zM32.306 8.687c-.3.9.1 2.1.9 2.7 1.1 1 1.4 1 1.4-.1 0-.8-.4-2-.9-2.7-.7-1.1-.9-1.1-1.4.1zM13.506 10.087c-1.3 1.6-1.2 1.7.4.4 1.6-1.3 2.1-2.1 1.3-2.1-.2 0-1 .8-1.7 1.7zM26.606 12.387c.6 1.1.8 2 .4 2s0 .8.9 1.8 2 3.3 2.3 5c.5 2.6 1 3.1 2.5 2.7 1.2-.4 1.9-.1 1.9.7 0 .7 1.8 3.1 4.1 5.3 3.5 3.4 4.6 4 8.7 4 7.3.1 8.5-3.7 2.5-7.7-2.1-1.4-6.2-4.7-9.1-7.3-2.8-2.6-7.5-5.6-10.2-6.6-5.1-1.9-5.1-1.9-4 .1zM6.106 12.387c-.3.5.3 1 1.4 1 1.1 0 2.3-.5 2.6-1 .3-.6-.3-1-1.4-1-1.1 0-2.3.4-2.6 1zM1.606 13.887c0 .8.7 1.5 1.6 1.5 1.4 0 1.4-.3.4-1.5-.7-.8-1.4-1.5-1.6-1.5-.2 0-.4.7-.4 1.5z"/><path d="M54.706 33.087c.1 3.7-.9 11.5-1.5 12.1-.3.2.2 1.8 1 3.5 1.3 2.4 1.4 3.1.2 3.8-.7.5-1.7.9-2.2.9-.5 0-1.8.8-2.9 1.7-1.9 1.7-2 1.7-1.4-.5.4-1.8.2-2.2-1-1.8-.8.3-1.8.6-2.2.6-.5 0-.6 1.1-.3 2.5.2 1.4 0 2.5-.6 2.5s-1.4.9-1.7 2c-.3 1.1-1.2 2-1.9 2-.8 0-1.9.7-2.7 1.6-.8.9-2.1 1.3-3.5 1-1.5-.4-2.6-.1-3.2 1-.5.9-1.2 1.6-1.7 1.6-2.4 0-3.4-6.9-1.3-9 .7-.7 1-1.2.8-1.3-2.7-.5-4.8-.4-4.5.1.2.4-1.6.7-4 .8-2.5 0-4.7-.3-5-.8-.2-.4-2.4-.5-4.8-.3-3.8.5-4.7.2-6-1.7l-1.6-2.3-.6 2.9c-.4 1.6-1.1 4-1.6 5.3-1.3 3.1-.1 4.2 3.6 3.3 1.7-.5 4.6-.5 6.5-.1 1.9.5 4.9 1.1 6.5 1.4 1.7.3 4 .8 5.3 1.1 1.3.2 2 .8 1.8 1.3-.6 1 4.4 2.2 8.7 2.1 2.3 0 3.1.6 4.3 3.6 1.1 2.6 1.9 3.4 3.1 3 .8-.4 2.2-.1 3.1.6 1.2 1 1.6 1 1.9 0 .3-.6 1.4-1.2 2.6-1.2 3-.1 8.2-4.4 7.2-6-.4-.7-.2-1.6.6-2.1 2.2-1.3 2.9-1.1 2.9 1 0 1.2 1.1 2.5 2.7 3.3 1.5.7 2.9 2.1 3.1 3 .2 1 1.7 3.1 3.3 4.9 2.8 3 3.9 6.9 2 6.9-2.2 0-5.6 4.6-5.3 7.1.3 2.2.7 2.5 4 2.4 2 0 4.3-.4 4.9-.8.7-.4 2.2-.2 3.5.5 1.3.7 2.4 1.4 2.6 1.5.2 0 .5.9.6 1.9.2 1 1.1 2.3 2.2 2.8 1 .6 2.3 1.7 2.9 2.5 1.7 2.1 5 .9 5.3-1.9.2-1.4 1-3.2 1.7-4 1.8-2.1 2.8-7.7 1.6-8.5-1.4-.8 4.8-6.5 7-6.5.9 0 1.9-1.1 2.3-2.4.3-1.3 2.2-3.5 4.1-5 1.9-1.5 3.5-3.5 3.5-4.5 0-2.7 3.5-5.4 5.9-4.6 1.2.3 2.1 1.1 2.1 1.6 0 .6 1.5 1 3.3.8 1.7-.1 4.5.3 6 1 1.6.6 3.3.8 3.8.5.6-.3 1.7 0 2.5.7 1.2 1 1.3.9.8-.5-.4-1.1-.1-1.6 1-1.6.9 0 1.6.6 1.6 1.2.1.7.7.2 1.4-1.1s1.1-3.2.9-4.2c-.3-1 .1-1.9 1.1-2.1 1.5-.3 1.4-.6-.2-3.8-1.1-2.4-2.3-3.4-3.7-3.3-1 .1-2.7-.3-3.7-.8-1.3-.7-1.8-.6-1.8.5 0 2.6-3 2.7-4 .1-.5-1.4-1.6-2.5-2.5-2.5-.8 0-1.5-.5-1.5-1 0-.6-1.5-1-3.2-1-3.2 0-3.2 0-1-1.5 2.5-1.8 5.1-.9 7.7 2.7 1.2 1.8 1.9 2.1 3.3 1.2 1-.7 4-.9 6.8-.7 4.5.5 5.2.3 6.5-1.8.8-1.3 1.4-3.6 1.3-5-.2-2.2.1-2.5 2.4-2.4 1.5.1 3.2.3 3.7.5.6.1 2.2.2 3.8.1 4.8-.2 3.1-2.9-4.3-6.6-6.7-3.4-11-4.4-11-2.7 0 1-6.8 3.2-9.7 3.2-1.1 0-3.6 1.1-5.6 2.4-1.9 1.3-3.8 2.2-4.1 1.9-.3-.3-1.7.2-3.1 1.1-1.4.9-2.5 1.3-2.5.9-.1-.5-.7.3-1.5 1.7-1.2 2.3-1.2 2.6.8 3.7s1.8 1.2-2.1 1.3c-2.6 0-4.1-.4-3.7-1 .3-.6-.3-1-1.3-1-2.5 0-3.9-1.8-4.4-5.5-.3-3.2-2.5-4.7-8.7-6-2.3-.5-3.1-.4-2.7.4 1 1.5-.7 1.4-2.3-.2-1-1-1.1-.7-.6 1.5.6 2.2.4 2.8-1 2.8-1.2 0-1.6-.6-1.2-2 .6-2.4-1.7-7.6-3.8-8.4-.8-.3-1.5 0-1.5.6 0 .7-.5.6-1.5-.2-1.2-1-1.6-.9-2.1.4-.5 1.4-.9 1.4-3.5-.5l-2.9-2 .6 3.1c.8 3.8-1.4 5.7-6.1 5.4-3-.3-3.2-.1-2.7 2.3.4 2 .2 2.4-.8 1.8-1-.6-1.2-.4-.7.8.9 2.5-1 2.1-2.4-.4-.6-1.3-.9-4-.6-6.3.4-2.6.1-4.7-.7-5.9-1.8-2.4-2.5-2.1-2.5 1zm92.7 10.9c-.4.3-1.2-.5-1.8-1.8-1.2-2.2-1.2-2.2.6-.6 1 1 1.5 2 1.2 2.4zm-53.8 7.5c0 .6-.4.7-1 .4-.5-.3-1-1.1-1-1.6 0-.6.5-.7 1-.4.6.3 1 1.1 1 1.6zM215.306 33.387c.3 1.1.2 3.5-.1 5.4-.6 3.1-1.1 3.5-4.6 4.1-2.2.4-4.2 1-4.5 1.4-.2.5-3-.5-6.2-2-4.5-2.2-5.8-3.3-5.8-5.1 0-2.1-.5-2.3-4.5-2.3-2.7 0-4.9.6-5.6 1.4-.7.9-3.6 1.6-7.3 1.9-3.3.2-6.1.8-6.1 1.2 0 .5-.8.6-1.9.3-1.5-.4-7.9 2-8.2 3 0 .1-.2 2.1-.5 4.5-.4 3.7-.2 4.4 1.5 4.9 2.4.6 3.5 3.1 2.1 4.8-.6.8-.6 1.5.2 2.3 1.7 1.7-4.9 7.2-8.7 7.2-1.7 0-3.6.5-4.3 1.2-.9.9-1.8.9-3.8-.1-2.5-1.1-2.6-1.1-2.2 1.4.3 1.4-.1 3-.8 3.6-.8.7-1.1 2.1-.8 3.5.4 1.5.2 2.4-.6 2.4-.6 0-.8.4-.5 1 .3.6-.1.7-.9.4-.9-.3-1.6-.1-1.6.5 0 1.5 4.6 3.2 6.5 2.5 1-.4 1.5 0 1.5 1.4 0 1.1.6 2.7 1.3 3.4.8.7 1.2 1.8 1 2.5-.3.8.6.9 3.3.3 4.6-1.1 9.5-6.1 8.2-8.4-.7-1.2-.5-1.6.7-1.6 1.9 0 1.9-.9 0-3-.9-1-1.3-2.4-.9-3.3.5-1.3 1-1.4 3.7-.3 4 1.6 8.1 0 6.6-2.6-1.3-2.4-.1-5.2 1.7-3.7.8.6 1.1 1.5.8 2-.3.5.1.9.8.9.7 0 1.9 1.4 2.7 3.2 1.3 2.8 1.2 3.2-.4 4.5-1.1.7-2.3 1.3-2.8 1.3s-.7 1.5-.4 3.3c.4 2.8 0 3.5-2.9 5.7-1.8 1.4-3.4 3.1-3.4 3.8 0 .7-1.3 1.8-3 2.3-1.6.6-3 1.6-3 2.1 0 .6-.9.8-2 .5-1.5-.4-2.2.1-2.6 1.8-.3 1.2-.4 2.9-.3 3.6.1.8-.8 3.6-2.2 6.3-1.7 3.6-2.1 5-1.1 5.3.6.3 1 .9.7 1.4-.3.5-.1 1.7.5 2.8.8 1.6 1.5 1.8 3.9 1.1 1.7-.4 3.1-.5 3.3-.1.2.4 1.8.4 3.6-.1 2.8-.8 3.2-1.3 3.2-4.3 0-4 1.2-4.5 3.4-1.3 1.1 1.5 1.6 1.8 1.6.8.1-.8.7 0 1.5 1.9 1.8 4.1.6 6.1-3.6 6.1-3.6 0-3.8 1.6-.3 2.4 1.7.5 2.4 1.2 2 2.1-.3.9.1 1.6.9 1.6.8.1 2 .2 2.7.3.6.1 1.3-1 1.5-2.4.2-1.4.8-2.7 1.3-2.8.6-.2 1-1.4 1-2.7 0-1.2.7-2.8 1.5-3.5.8-.7 1.5-2 1.5-2.9 0-.9 1.3-2.1 2.8-2.7 2.1-.8 3.1-2 3.5-4.4.6-2.7 1-3.1 2.9-2.7 2.1.6 10.9-1.1 15.8-3.1 1.8-.7 3.3-.6 5.4.5 1.6.8 4.4 1.5 6.2 1.5 2.2 0 3.4.5 3.7 1.6.4 1.5.5 1.5.6-.1 0-.9.9-1.7 1.9-1.7 1.7 0 5.5-3.4 4.6-4.2-.2-.2-1-2.1-1.9-4.2-1.6-3.7-1.5-3.7.5-3.1 2.4.8 2.6-1.1.5-3.9-1-1.3-1.1-2.2-.5-2.6.7-.4-.7-4-3.5-9.5-2.5-4.8-4.5-9.3-4.5-10 0-.7-.9-2-2.1-3.1-1.1-1-1.8-2.6-1.6-3.6.4-1.3-.2-2-1.7-2.4-1.4-.3-2.8-1.9-3.7-4.2-.7-2-1.5-4-1.7-4.5-.2-.4.5-.7 1.6-.7s2.2-.9 2.5-2c.4-1.4 1.2-1.9 2.9-1.8 2 .3 2.3-.2 2.6-3.8.3-3.7-.1-4.5-2.7-6.3-2.8-2.1-2.9-2.1-2.4-.1zm-33.3 36.6c.8.3 1.2 1.2.9 1.9-.4 1.1-.9 1.2-2.3.3-1-.7-1.6-1.6-1.4-2 .6-1 .8-1 2.8-.2z"/><path d="M107.106 45.387c-1.8.8-1.7.9.8.9 1.5.1 2.7-.4 2.7-.9 0-1.2-.8-1.2-3.5 0zM49.206 47.987c-.3.9-.4 2 0 2.5 1 1.6 2.2.9 2.6-1.6.6-2.8-1.6-3.6-2.6-.9zM32.306 48.187c-.9.2-1.5.7-1.2 1.2.3.5-.4 1.5-1.6 2.3-1.6 1.2-1.8 1.7-.7 2.4.7.4 1.3 1.9 1.3 3.2 0 1.3.6 2.6 1.3 2.8 1.5.6 1.7-4.3.2-5.2-1.7-1.1-1.1-2.2 2-3.7 2.3-1.1 2.8-1.7 1.8-2.5-.7-.5-2.1-.8-3.1-.5zM40.606 49.887c0 1 .7 1.5 1.8 1.3 2.1-.4 1.9-2.2-.2-2.6-1-.2-1.6.3-1.6 1.3z"/><path d="M35.006 52.887c2.7 2.1 5.3 2 3.6 0-.7-.8-2.2-1.5-3.4-1.5-2.1.1-2.1.1-.2 1.5zM257.906 84.487c-.7.7-1.3 2.1-1.3 3 0 1-.5 2.1-1 2.4-.6.4-.7 1.1-.4 1.7.4.5.8 3.8 1 7.3.4 6 .3 6.3-2.1 6.9-2.5.6-3.4 3-1.5 4.1.6.4 1.7.2 2.4-.4.9-.8 1.7-.3 3 1.9 1.5 2.7 3 3.5 6.1 3.1.6 0 .9 2.1.7 5.3-.4 5.4 1.2 8.6 4.7 9.7.6.2.2 1-1 1.7-1.2.8-1.8.9-1.5.4 1-1.6-1.6-2-4.2-.6-2.3 1.1-2.8.9-7.6-3.7-2.8-2.7-5.6-4.9-6.2-4.9-.7 0-1.5-.7-1.8-1.6-.3-.8-1-1.2-1.6-.9-1.2.7-3-3.6-3-7.1 0-1.6-.4-2.3-1.1-1.9-.6.4-2-.3-3.2-1.6-2-2.1-2.2-2.2-2.5-.5-.2 1.1-.9 1.5-1.9 1.2-.8-.3-2.4-.6-3.5-.6-1.6 0-1.8-.3-.9-1.4 1.4-1.7.1-2.8-1.9-1.6-1.2.7-1.2 1.2.2 2.7 1.5 1.6 1.5 2.2.2 5.2-.8 1.8-1.4 4.9-1.4 6.9 0 1.9-.7 4.3-1.6 5.3-.8.9-1.6 3.2-1.6 5 0 1.9-.6 4.4-1.4 5.6-.8 1.2-1.1 2.9-.8 3.7.4 1.1-.3 1.7-2.3 2.2-6.3 1.4-6.4 1.4-5.3 3.4 1.6 2.9.9 8.1-1 7.8-2-.4-5 2.2-5 4.4 0 1-.4 1.8-1 1.8-.5 0-1 1.1-1 2.4 0 1.4-.5 2.8-1 3.1-.6.4-.8 1-.5 1.5.3.4-.3 1.1-1.2 1.5-1 .3-1.9.1-2.1-.4-.2-.6-1-1.1-1.8-1.1s-2.8-1.3-4.5-2.9c-3.1-3-5.3-3.1-7.4-.6-.5.6-2 1.7-3.2 2.4-2 1-2.3.9-2.3-.9 0-1.1-.6-2-1.3-2-.8 0-2.5-1.3-3.9-2.9-2-2.2-3.9-3.1-8-3.6-4.1-.6-5.9-1.4-8-3.8-1.6-1.7-2.8-4.1-2.8-5.3 0-1.3-.5-2.6-1.1-2.9-.6-.4-.8-1.3-.5-2.1.4-1-.2-1.4-1.8-1.4-1.4 0-2.7-.6-3-1.3-.5-1-.7-1-1.2 0-.3.7-1.2 1.3-1.9 1.3s-1.6 1.1-1.9 2.4c-.5 1.9-1.4 2.4-4.8 2.9-2.3.3-5.1.1-6.1-.5-1.6-.8-1.9-.7-1.4.5.4 1 0 1.6-1.1 1.6-4.8.1-13.2 2.4-13.2 3.7 0 1.9-4.9 1.8-5.6-.1-.7-1.7-3.4-2.1-3.4-.5 0 .6-1.1 1.5-2.5 2s-2.5 1.4-2.5 2c0 1.5-5.1 1.2-8.4-.5-1.5-.8-3-1.5-3.2-1.5-.5 0 .4 8.8 1.2 11.2.4 1.3 0 1.8-1.4 1.8-1 0-2.4 1.1-3 2.5-1.1 2.3-.9 2.7 1.2 3.5 3.7 1.4 4.3 3.2.9 2.6-1.5-.2-3-.5-3.3-.6-.3-.1-.8-.2-1.2-.1-.5 0-.8-1.1-.8-2.5s-.4-2.3-.9-1.9c-.6.3-1.3-.1-1.8-.8-1.2-2-4.5-3-5.4-1.6-.5.9-1.4.8-3.3-.4-4.8-3.2-7.1-1.5-5.9 4.3.7 3.6 1.9 4.6 3.8 3 1.1-.9 1.6-.7 2.5.9.7 1.5 2.1 2.1 4.5 2.1 1.8 0 3.7.5 4 1 .4.7 1.3.6 2.6-.1 1.5-.8 2.7-.6 5.2.8 4.1 2.4 8.1 8.2 6.7 9.8-.6.7-.1 2 1.6 3.8l2.5 2.7-2.8.1c-2.6 0-2.7.1-.9 1.2 1.1.7 3.5 2.7 5.3 4.5 2.8 2.6 4 3.2 6.9 2.9 2.4-.3 3.4 0 3.4.9 0 .8.9 1.4 1.9 1.4 2.3 0 6.4 7.8 6.4 12.1 0 2.1.6 2.9 2.6 3.4 2.8.7 5 3.2 5.1 5.8 0 .9.5 1.6 1.2 1.5.7-.2 1.3.6 1.4 1.7.2 3.8 1.5 6.3 3.9 7.9 1.5 1 2.5 2.6 2.5 4 0 1.2.9 3.1 2 4.1 1.2 1 1.8 2.5 1.6 3.2-.3.7.2 1.6 1 2.1s2.4 2.2 3.4 3.7c1.8 2.7 1.8 3.1.3 4.7-1.3 1.4-1.3 2-.3 3.3.7.9 1 2.7.6 4.5-.5 2.7-.1 3.3 3.4 5.5 2.1 1.4 4.4 3.4 5 4.5 1.1 2.1.8 2.4-2.3 2.1-1.5-.2-1.6.1-.6 2.3.9 1.9.9 2.9 0 3.9-.6.8-.9 2.1-.6 2.9.4.9-.1 1.8-1 2.2-.9.3-1.4 1-1 1.6.3.5 0 1.8-.7 2.9-.9 1.4-.9 2.6-.1 4.3.5 1.3.9 3.9.7 5.8-.1 1.9.4 5.9 1.2 8.7.8 2.9 1.5 5.6 1.5 6 0 .5.6 1.5 1.3 2.3.8.8 1.6 2.6 1.8 4 .3 1.4.9 3.3 1.3 4.2.5 1.2.3 1.8-.7 1.8-1.7 0-4.1 3.7-2.8 4.5.5.3 2.1.3 3.5-.1 2.5-.6 3.5.8 1.5 2.1-1.5.9-1.2 2.5.3 1.9.8-.3 1.6.8 2.2 2.8.9 2.9 1.4 3.3 4.5 3.3 3.7 0 9 2.7 9 4.7 0 1.5 3.1 3.7 5.2 3.8 2 0 12.2 7.5 15.5 11.4 1.3 1.4 2.9 2.6 3.5 2.7.7 0 2.4.3 3.8.5s5 .6 8 .7c6 .4 12 2.9 12 5.1 0 .8 1.6 2.4 3.6 3.5 2 1.2 3.8 3 4.1 4.1.3 1.1 1 2 1.7 2 2.9 0 5.5-1.4 5.9-3.1.6-2.4 5.3-2.6 8.6-.3 1.8 1.3 2.5 1.4 3.1.4.5-.8 1.4-.4 2.9 1.6 1.1 1.4 2.1 3.1 2.1 3.5 0 .5.4.9.9.9s.7-1.4.5-3c-.5-2.6-.1-3.2 2.3-4.2 4.5-1.8 10.6-.7 7 1.3-.9.6-1.7 1.6-1.7 2.3 0 2-3.7 4.9-5.1 4-.7-.4-1-.3-.6.3 1 1.6-1.8 3.4-3.9 2.6-1.6-.6-1.7-.4-.7.9.7.8 1 1.7.8 2-.3.3.7.4 2.2.2 1.5-.1 3.1.3 3.5.9.6.9 1.3.7 2.3-.7 1.4-1.9 1.5-1.8 1.5 1 0 2.3.6 3.4 2.5 4.2 1.4.7 2.5.8 2.5.2 0-.5.7-.7 1.5-.4.8.4 2.1.1 2.9-.5 2.1-1.8 3.7 2.8 2.1 5.9-.9 1.7-1 3-.4 4.2.6 1.2.6 1.8-.1 1.8-3.3 0 1.5 5.6 5.7 6.6 1.6.4 4.1 1.6 5.7 2.7 3 2.1 7.6 3.1 7.6 1.6 0-.5 1.6 0 3.5 1.1 2.4 1.3 3.5 1.6 3.5.7.1-1.8 4 3.5 4 5.4 0 .9.7 2.2 1.5 2.9 1 .8 1.2 1.7.7 2.2-1.2 1.2.8 5.8 2.4 5.8.7 0 1.4-2.1 1.6-4.8.4-3.6 0-5.2-1.4-6.8-2.6-2.9-1.6-7.9 1.2-6.4 1 .6 2.3 1 2.8 1 1.1 0 2.4-3.3 2.6-6.7.1-1.2.5-2.6 1-3 1.2-1.2 10.5 9.8 11.6 13.8.6 2.1 2.2 4.4 3.6 5.4 2.1 1.3 2.5 2.3 2.2 4.7-.4 2.7-.1 3.2 3.1 4.6 2 .9 4.1 1.7 4.6 1.7 2.5.1 14.5 6.9 14.5 8.1 0 .8.8 1.7 1.8 2 .9.3 3.3 1.2 5.2 1.9 1.9.7 5 1.9 6.8 2.6 3.2 1.1 3.3 1.4 2.7 5-.6 3.6-.4 3.9 3.2 6.2 2.8 1.8 4.4 2.2 6 1.6 1.8-.7 2.6-.3 4.4 2.2 1.4 2 1.9 3.8 1.5 5.5-.5 1.7-.2 2.6.9 3 .8.4 1.5 1.2 1.5 2s.8 1.4 1.9 1.4c1 0 2.6 1 3.4 2.2 1.3 1.9 1.6 2 1.6.5.1-1.6 1.6-2.2 5.4-1.9.9.1 1.7-.3 1.7-.8 0-1.9 3.9 1 5.5 4 .9 1.7 3.1 3.6 5 4.4 1.9.8 3.5 1.9 3.5 2.4 0 2.1 5.5 6.3 7.7 5.9 1.7-.3 2.5.3 3.3 2.4.7 1.5.9 3.2.6 3.8-.4.5-.2 1.2.3 1.5.5.4 1.2.2 1.6-.4.3-.5 1.3-1 2.1-1 1.3 0 1.4.8.9 4-.6 3.7-.5 4 2.2 4.6 1.5.4 3.5 1.4 4.3 2.3 1.3 1.3 1.5 1.2 1.8-.7.2-1.2.8-2.2 1.3-2.2.6 0 1.8-.7 2.6-1.6.9-.8 2.4-1.4 3.3-1.1.9.2 2.2-.4 2.8-1.4 1-1.5.7-2-1.8-3.1-1.7-.7-3-1.7-3-2.1 0-.5-.4-.6-.9-.3-.4.3-1.6-.1-2.7-.8-1.5-1.2-1.6-1.6-.5-3 1.4-1.7 11.1-2.3 11.1-.7 0 .8 2.7 1.8 6.8 2.7.6.1 1.2-.5 1.2-1.3 0-1 .6-1.4 2-1 1.1.3 2.7-.2 3.5-1 .9-.8 2.3-1.2 3.1-.9 1.3.5 1.4.1.9-2.4-.5-2.3-.3-3 .9-3 .9 0 1.6-.6 1.6-1.3 0-.6.8-.2 1.8.9 2.3 3 5.8 3.8 9.2 2.4 4-1.6 4.9-5 2.1-6.9l-2.3-1.4 2.3-1.2 2.2-1.2-2.6-1.8c-3.2-2-4.4-1.4-4.4 2.2 0 1.6-1 3.4-2.4 4.6-2.4 1.9-2.4 1.9-2.7 0-.2-1.1-1.4-2.5-2.8-3.2-1.3-.6-2.7-1.9-3.1-2.8-1.3-3.7-5.7-7.2-10.4-8.4-3.6-.9-4.9-1.8-4.9-3.1 0-1 .7-1.8 1.6-1.8 1.1 0 1.5-.6 1.1-2-.4-1.6-.2-1.8 1.2-1.1 2.2 1.2 5.6-1.2 4.7-3.5-.5-1.3-.4-1.4.7-.6 1 .9 1.9.7 3.5-.8 1.2-1.1 3.2-2.1 4.6-2.2 1.3-.1 2.2-.7 2-1.3-.2-.5.3-1.9 1.1-2.9 1.1-1.4 1.8-1.6 2.8-.8 1.6 1.4 2.9.5 4.4-3 1.1-2.4.9-3.2-1.2-6.4-1.4-2-2.5-4.7-2.5-6 0-1.3-.9-3.3-2-4.4-2.6-2.6-2.5-3 .5-3 2 0 2.5-.5 2.6-2.8.2-4.8.4-6.2.9-6.1.3 0 1.7-.4 3.3-1 1.7-.7 3.6-.7 5.1-.1 2.1.7 2.6.6 3.1-1 .8-2.5 2.7-2.6 4.7-.3 3.3 3.8 3.1 6-.9 10.4-2.1 2.4-3.3 4-2.7 3.6.5-.3 3.7-.2 7 .3 4.7.6 6.1.5 7-.6.9-1.1 2.1-1.3 5.3-.5 2.8.6 3.9.6 3.4-.2-.4-.7.2-.8 1.8-.3 1.3.5 3.4.9 4.6 1 1.3.2 2.6.6 3 .9 1.2 1.3 2.3.7 2.3-1.1 0-2.6 3.9-2.2 5.8.6l1.5 2.3 2.4-2.7c1.2-1.5 2.3-3.4 2.3-4.2 0-.9.6-1.2 1.6-.8 1.2.4 1.5.2 1-.9-.3-.8-.2-1.5.2-1.5 1.5.1 5.2 3.9 5.2 5.3 0 .9 1.3 1.8 3.3 2.2 1.7.4 3.5 1.3 3.9 1.9.4.6.8-.1.8-1.7 0-1.5.7-3 1.5-3.3.8-.4 1.5-1.2 1.5-1.9 0-2.2 4.3-4.3 6.8-3.4 1.9.7 2.2.5 2.2-1.5 0-2.9 4-4 7-1.9 2.4 1.7 4 .9 4-1.8 0-1.6.5-1.9 2-1.4 1.7.6 2 .2 2-2.9 0-2.7-.4-3.6-1.7-3.6-.9 0-2.4-.6-3.2-1.3-1.9-1.6-10-4.7-12.3-4.7-1.9 0-6.1-9.2-6-13.2 0-1.8-.5-2.8-1.9-3.1-1.3-.4-1.9-1.4-1.9-3.2 0-1.5-.7-3.3-1.5-3.9-1.2-.9-1.3-1.7-.2-4.7.7-2 1.8-4.3 2.5-5.1 1-1.2.8-2-.8-4.1-1.1-1.4-2.3-3.9-2.6-5.6-.5-2.5-.3-3.1 1-3.1 1 0 1.4-.5 1.1-1-.4-.6-1-.8-1.5-.5-1.3.8-5-1.3-5-2.8 0-1.8-6-8.8-7.3-8.6-2 .3-4.7-1.2-4.7-2.7 0-.8-.5-1.4-1.1-1.4-1.3 0-5.2 2-5.9 3.1-.3.5-2.3-.3-4.3-1.8-2.6-1.8-3.7-3.4-3.7-5.2-.1-2.5-.1-2.5-1.5-.7-1.2 1.6-1.9 1.8-4 .8-1.4-.6-2.5-1.6-2.5-2.1s-.9-.7-2-.4c-2.2.6-3.2 3.3-2.8 7.3.2 1.8-.1 2.4-1.2 2.2-.8-.2-1.2 0-.8.4.4.4 0 1.9-1 3.3-.9 1.4-2.6 4.3-3.6 6.3-1.9 3.8-3 4.6-4 2.9-.8-1.3-7.6-.8-10.4.8-3.6 1.9-6.1.5-7.4-4.3-.9-3.6-1.7-4.5-4.5-5.5-1.9-.7-3.7-1.9-4-2.7-.3-.8-1.5-1.4-2.8-1.4-1.3 0-2.6-.7-2.9-1.6-.3-.8-1-1.2-1.6-.9-.5.3-1 .1-1-.5s-.5-.8-1.1-.4c-.7.4-2.5.7-4 .6-1.9 0-3.5.8-4.8 2.4-1 1.3-2.6 2.4-3.5 2.4-.8 0-2 .9-2.6 1.9-.5 1.1-1.9 2.3-3.1 2.6-1.7.6-1.8.9-.7 2.3 1.2 1.6 1.1 1.6-1.2 0-1.4-.9-2.4-2.3-2.2-3.2.2-.9-.4-1.6-1.1-1.6-.9 0-1.8-1.5-2.3-3.8-.6-2.9-.9-3.2-1.2-1.5-.4 2.8-.6 2.8-4.3.6-3.5-2.1-3.3-3.6.6-4.3 2-.4 3.1-1.3 3.5-3.1.4-1.4 1.2-3.5 1.8-4.6 1.4-2.5 6.9-3.6 7.7-1.5.3.8 1.2 1.2 1.9.9.8-.3 1.9 0 2.5.7 1.3 1.6 8.1.8 8.1-.9 0-2.4 5.9-2.3 9.3.2l3.2 2.4 3-3.7c2.5-2.9 3.5-3.5 5.3-3 1.6.6 2.2.3 2.2-.9 0-.8.6-1.8 1.4-2.1 1.8-.7 1-3.1-1.8-6-1.2-1.2-2.8-3.2-3.7-4.5-1.4-2-1.9-2.2-3.2-1-2 1.6-3.7.7-3.7-2 0-1-.4-1.9-.9-1.9s-1.1-1.2-1.3-2.7c-.2-2-1.5-3.4-4.8-5.3-3.9-2.3-4.5-3.1-4.5-6.1 0-3.4-3.1-9.9-4.8-9.9-.4 0-.5-.5-.2-1 .3-.6-.5-1.4-2-2-3-1.1-4.8-5.1-3.9-8.6 1-3.8 4-3.1 4.8 1.1.4 2.1 1.3 3.5 2.2 3.5.8 0 1.7.7 2 1.5.5 1.2 1 1.3 1.9.5 1.1-.9 1.8-.5 3 1.4 1.9 2.9 3.5 3.4 3.5 1.1 0-1.9 1-1.9 3.9.1 1.8 1.3 2.5 1.4 3.1.4.4-.7 1.5-1 2.4-.7 1.9.7 2.2-.9.4-1.7-.7-.3-.2-.5 1.3-.3 2.5.3 4.9-1.3 4.9-3.2 0-.6-2.1-2-4.7-3.2-5-2.3-5.7-2.5-11.1-3.3-4.6-.8-5.2-1.3-5.2-4.5 0-1.6-.7-3.4-1.5-4.1-.8-.7-1.5-1.9-1.5-2.6 0-1.4-1-1.8-4-1.5-2.7.2-4.1-3.4-2.7-6.9.8-1.7 1.6-2.7 2-2.3 1.1 1.1.8-2.9-.6-6.8-1.2-3.5-1.4-3.6-3.7-2.3-3.9 2.1-5.2 1.7-4.9-1.4.2-1.5 0-3.3-.4-4-.5-.7-.3-1.2.7-1.2 4.4 0-.8-13.4-7.5-19.4-3.2-2.9-4-4.3-3.6-6.2.3-1.6 0-2.4-.9-2.4-.8 0-1.4-.7-1.4-1.5s-.5-1.5-1.1-1.5c-.7 0-.9-.9-.5-2.3.4-1.7-.1-3-1.9-4.7-1.4-1.3-2.3-3-2.1-3.6.3-.7-.5-3.2-1.8-5.6-1.7-3.2-2.9-4.4-4.9-4.6-3.7-.4-6.1-4.3-5.3-8.3.5-2.4 0-3.8-1.8-6-1.3-1.5-2.7-3.4-3-4.1-.5-1-.7-1-1.2-.1-.9 1.9-3.9 1.6-5.9-.7-1-1.1-2.5-2.2-3.4-2.5-.9-.3-2.5-1.8-3.4-3.5-1.2-2-2.6-3-4.1-3-1.3 0-2.6-.7-3-1.5-.3-.8-1.6-1.5-3-1.5-1.8 0-2.5-.6-2.8-2.2-.2-1.7-1-2.3-3.2-2.5-1.6-.1-3.8-1.1-5-2.2-1.7-1.6-2.5-1.8-3.4-.9-.6.6-1.5.9-1.9.5-.4-.4-.1-1.3.5-1.9 1.7-1.7 1.5-4.5-.5-5.7-1.6-.9-1.6-1 .5-1.1 1.3 0 2.2-.6 2.2-1.5s1.2-2.1 2.8-2.7c2.2-.9 2.4-1.2.9-1.5-3-.7-5.6-3.9-4.6-5.4 1.9-3 1-4.1-1.8-2.4-3.7 2.1-10.6.9-11.2-2-.2-1.1-3.1-4.6-6.5-7.8l-6.1-5.8 2.3-1.6c2.7-1.9 2.8-3.5.2-5.8-1.1-1-1.8-2.1-1.5-2.5.2-.3-1.6-2.3-4.1-4.4-3.5-2.9-4.5-3.4-5-2.2-.4 1-2.7 1.7-7.5 2.2-3.8.4-6.9 1.1-6.9 1.6s-.6.8-1.2.7c-.7-.1-2.1.1-3.1.6-1 .4-2.3.2-3.1-.4-1-.9-1.6-.9-2.1-.1s-1.1.5-2.1-.7c-.7-1-1.4-1.3-1.4-.6 0 .7-.9 1-2.1.8-1.5-.3-1.9.1-1.7 1.4.4 2.4-2 5.1-4.5 5.1-1.1 0-3.6-.5-5.4-1.2-2.6-.9-3.8-1-5.3-.1-2.3 1.5-5.7.9-9-1.5-4.5-3.3-9.4-5.7-13-6.2-1.9-.3-3.5-1-3.6-1.5 0-.6-.4-1.9-.8-3-1.5-3.8-1.5-4.5-.5-4.5.6 0 .7-.5.4-1-1.2-1.9-3.5-1-3.5 1.2s-.1 2.2-2.3-.5c-1.8-2.2-2.4-2.6-3.4-1.6zm17.7 14.9c0 .5-.5 1-1.1 1-.5 0-.7-.5-.4-1 .3-.6.8-1 1.1-1 .2 0 .4.4.4 1zm43.1 18.7c0 .5.3 2 .5 3.6.4 2.2 0 2.9-2.1 3.9-3 1.4-4.2.5-5.1-3.9-.5-2.5-.3-3.2 1.2-3.6 3.1-.8 5.4-.8 5.5 0zm-15.6 5.3c.3.5.1 1-.4 1-.6 0-1.1-.5-1.1-1 0-.6.2-1 .4-1 .3 0 .8.4 1.1 1zm-188.5 60.7c0 .7-1.1 1.3-2.5 1.3-1.7 0-2.3-.4-1.9-1.4.7-1.8 4.4-1.7 4.4.1zm334 68.9c0 .2-.4 1.2-.9 2.2-.5.9-1.2 2.5-1.5 3.4-.7 2.4-2.2 2.3-2.9-.3-.4-1.3.1-2.6 1.3-3.7 1.1-.8 1.7-1.9 1.4-2.4-.3-.4.2-.5 1-.2.9.3 1.6.8 1.6 1zm-174 51.4c0 .5-.2 1-.4 1-.3 0-.8-.5-1.1-1-.3-.6-.1-1 .4-1 .6 0 1.1.4 1.1 1zm-29.6 15.5c-.6 1.6-3.4 2.1-3.4.7 0-1.3 1.1-2.2 2.6-2.2.8 0 1.1.6.8 1.5zm47.6 9.9c0 1.1-1.9 1.5-2.5.6-.3-.5.1-1 .9-1 .9 0 1.6.2 1.6.4zm150 32.6c0 .5-.2 1-.4 1-.3 0-.8-.5-1.1-1-.3-.6-.1-1 .4-1 .6 0 1.1.4 1.1 1zm-21 23c-.6 1.2-1.4 2-1.6 1.7-.3-.3-.2-1.7.2-3.2.4-1.7 1-2.3 1.6-1.7.6.6.6 1.8-.2 3.2zm-12 5.5c.7.9 1 1.8.7 2.1-1 1.1-3.7-.5-3.7-2.1 0-1.9 1.4-1.9 3 0zm13 101.5c0 1.8-1.9 1.1-3-1.1-1.1-1.9-1-2 .9-.9 1.2.6 2.1 1.5 2.1 2zM152.106 106.387c.4.6 1.1.8 1.6.5 1.4-.9 1.1-1.5-.7-1.5-.8 0-1.2.5-.9 1zM87.606 111.587c0 1.9.2 2 1 .8.9-1.3 1.3-1.1 2.9.9 1.1 1.4 2.1 2 2.5 1.3.6-1-3.8-5.2-5.5-5.2-.5 0-.9 1-.9 2.2zM148.706 110.787c-.9 1.1-.7 1.5.9 1.9 1.3.3 2 0 2-.8 0-2.1-1.6-2.7-2.9-1.1zM112.306 115.387c.3 1 1.2 2.5 2.1 3.2 1.3 1.1 1.2.8-.2-2-1.9-3.6-2.7-4.1-1.9-1.2zM142.606 115.887c-1.4 1.6-1 1.8 1.4.9.9-.3 1.6-1 1.6-1.5 0-1.4-1.6-1.1-3 .6zM91.906 117.187c-1.7 1-.3 2.6 2.6 3 1.8.2 2.2-.2 1.7-1.4-.3-.8-.6-1.8-.6-2 0-.7-2.4-.4-3.7.4zM117.206 120.187c1.2 1.1 6.4 3.3 6.4 2.7 0-.5-5.6-3.5-6.7-3.5-.4 0-.3.4.3.8zM133.006 120.487c-.3.6-1.9.9-3.5.5-4-.8-3.6.2.7 2 3.3 1.4 3.8 1.4 5.5-.2 1-.9 1.9-2.1 1.9-2.6 0-1.2-3.8-1-4.6.3zM92.006 122.187c.3.5-.6 2-2 3.5s-2 2.7-1.4 2.7c.5 0 1 .4 1 1 0 .5-.6 1-1.3 1-.7 0-1.8.9-2.5 2-.7 1.2-1.7 1.8-2.2 1.5-1-.6-6.2 1.8-9.9 4.6-1.4 1.2-2.8 1.6-3.5 1-.6-.5-2.3-.3-4.1.5-1.6.7-2.5 1.3-2 1.4 2.7.1 3.7 1.7 2.5 4-.9 1.8-.9 2.5.6 4.1 1.1 1.2 1.3 1.9.5 1.9-.7 0-.9.4-.6 1 .3.5 1.9 1 3.5 1 2.1 0 2.9-.6 3.4-2.5.4-1.4 1.3-2.5 2.1-2.5s1.5-.7 1.5-1.5.4-1.5.9-1.5c2.1 0 4.1 1.3 4.1 2.6 0 .7.6 1.1 1.4.8.9-.3 1.7.3 2.1 1.8 1.2 3.9 2.4 4.9 4.5 3.5 1.4-.8 1.6-1.5.8-2.4-.6-.7-1.6-1.3-2.3-1.3-1.7 0-2.9-3.2-1.5-4 .5-.3-1-2.1-3.5-4-5.1-3.8-5.5-4.5-2.2-3.6 1.6.4 3.1-.1 4.7-1.6s2.5-1.8 2.8-1c.2.7 1 1.2 1.8 1.2s1.1-.6.7-1.7c-.5-1.2-.2-1.5.9-1 2.1.8 3.1-1.8 1.7-4.4-.8-1.7-.6-2.4 1-3.8 3.2-2.8 2.7-5.1-1-5.1-1.6 0-2.8.4-2.5.8z"/><path d="M87.606 140.387c0 .6.7 1 1.5 1s1.5-.2 1.5-.4-.7-.6-1.5-1c-.8-.3-1.5-.1-1.5.4zM92.806 150.587c.5 1.5 3.7 1.8 4.1.3.1-.6-.9-1.2-2.2-1.3-1.6-.3-2.2.1-1.9 1zM70.006 157.687c.3 2.8 2.2 5.7 3.7 5.7 1 0-.9-4.9-2.7-6.9-1-1.1-1.2-.9-1 1.2zM471.706 345.987c0 1.1.3 1.4.6.6.3-.7.2-1.6-.1-1.9-.3-.4-.6.2-.5 1.3zM621.406 402.087c.3 1.9.1 3.8-.4 4.2-5.6 4-5.3 9.1.6 11.5 2.1.8 4.1 2 4.5 2.6.3.5 2.6 1 5 1 5.6 0 7.5.8 7.5 3.1 0 1.6.5 1.8 2.8 1.3 5.1-1.3 7.2-2.4 7.2-3.8 0-1.8 4-2.8 5.7-1.4.7.6 1.3 2.1 1.3 3.3 0 2.8 2.2 4.7 4.4 3.9.9-.3 1.6-.2 1.7.2.4 4.3.8 5.4 2.2 6.8.8.9 2.4 1.6 3.4 1.6 2.2 0 6.3 2.7 6.3 4.1 0 .6-.6.7-1.2.3-.7-.4-.5.2.5 1.3 2 2.3 2.3 3.8.5 2.7-.7-.5-3.5-.9-6.2-1.1-5.5-.3-6.7-1-4.6-2.3 1-.7 1.1-1 .2-1-.6 0-1.1-.3-1.1-.8.4-2.5-.4-3.7-2.5-3.7-1.5 0-2.2.5-1.9 1.2.3.9-.5 1.3-2.3 1.3-2.5.1-2.6.2-1.1 1.1.9.6 1.5 1.4 1.2 2-.4.5.2.9 1.2.9s3 .8 4.3 1.7c1.4 1 3.3 1.6 4.3 1.5.9-.2 1.7.2 1.7.9s.3.9.7.6c.8-.9 5.3 3.2 5.3 4.9 0 .7.9 1.8 1.9 2.4 1.1.5 3.1 4.2 4.7 8.2 1.5 4 4 9.1 5.5 11.2 1.6 2.2 2.9 4.5 2.9 5.2 0 .7 1.6 2.1 3.5 3.3 1.9 1.1 3.5 2.5 3.5 3 0 1.2 8.4 7.1 10 7.1.6 0 1.8.6 2.6 1.4.7.8 1.9 1.7 2.6 1.9 1 .4.9.8-.2 1.6-1.3.9-1.3 1.1.3 1.1.9 0 1.7.4 1.7 1 0 .5 1.6 2.6 3.5 4.7 1.9 2 3.2 4 2.9 4.5-.3.4-.2.8.3.8.4 0 .8 1.7.8 3.8 0 2.6-.5 3.7-1.5 3.7-.8 0-1.4-.6-1.3-1.3.2-.7-.7-1.2-2.2-1.2-2.2 0-2.4.3-1.9 3 .4 1.7.1 3.6-.6 4.5-.6.8-.9 1.8-.6 2.3.3.4-.1 2.6-.9 4.8-1.1 3.2-1.8 4-4.3 4.2-2.7.3-3 .7-2.8 3.5.1 2.8-.3 3.2-2.5 3.5-2.2.3-2.8 1-3.4 3.8-.4 2.3-1.4 3.9-3 4.6-1.6.7-2.5 2-2.7 4.2-.2 2.1-.8 3.1-1.9 3-.9-.1-1.6.4-1.6 1s-.4 2.3-.8 3.9c-.6 2.2-.4 2.6.9 2.1 2.1-.8 3.2 2.1 1.6 4.1-.9 1.1-.9 1.5-.1 1.5.7 0 .9.4.6 1-.8 1.4.8 1.3 2.2-.1 1.4-1.4 3.6-.2 2.9 1.6-.2.7.1 2.1.9 3.2 1.7 2.4.8 7.3-1.4 7.3-1.3 0-1.4.2-.2.9 1.1.7.7 1.4-2 3-1.9 1.1-3.9 2.5-4.6 3-.7.6-2.1 1.1-3.3 1.1-1.1 0-2 .5-2 1.1 0 .6-1.3.8-3.5.5-3.4-.6-3.5-.5-3.1 2.6.2 2.1 1 3.4 2.3 3.9 2.4.9 5.4 6.4 4.6 8.4-.3.8.2 1.7 1 2.1 1.9.7 3.1 6.3 1.7 7.9-1.3 1.6 1.3 4 3.5 3.1.8-.3 1.5-.1 1.5.4 0 .6.7 1 1.5 1s1.5-.4 1.5-.9 1.1-1.2 2.5-1.5c2.3-.6 2.5-1 1.9-4.2-.6-3.4-.6-3.5 2-2.8 1.9.4 2.7.2 3.2-1 .3-.9 1.2-1.6 1.9-1.6.8 0 1-.9.7-2.5-.4-2.1-.1-2.4 1.4-1.9 1.1.4 2.7 1.4 3.7 2.2 1.5 1.4 1.7 1.3 1.7-.2 0-1.4.4-1.5 2.1-.6 1.7 1 2.3.7 4.2-1.7 1.2-1.5 2.1-3.4 1.9-4.1-.2-.9.3-1.2 1.6-.8 1.1.4 2.4 0 3.2-.9.7-.8 2.5-1.5 4-1.5 1.6 0 3-.7 3.4-1.6.6-1.6 1.9-1.5 7.6.1.9.3 2.7-.6 4-1.8 2.2-2.1 3.6-2.4 10.3-2.4 4.2 0 8 .4 8.3.9.3.5 1.5.1 2.6-.8 1.3-1.2 3.2-1.7 5.6-1.5 2.1.1 5-.3 6.5-.8 2.2-.8 3.3-.7 5.1.4 1.2.8 2.5 1.2 2.9.9.3-.4 2-.1 3.6.6 4.1 1.7 13.7-.3 14.6-3.1.9-2.7-.3-4.3-2.1-2.8-1.1.9-2.2.7-5.1-.6-6.3-2.9-8.2-5.2-7.6-9.1.5-2.8.1-3.9-2.1-5.9-1.4-1.3-2.6-3.1-2.6-3.8 0-.8-.7-1.7-1.5-2.1-1.9-.7-2-3.6-.1-3.6.7 0 1.9-.7 2.6-1.5 1.1-1.3 1.5-1.3 2.1-.3.7 1 .9 1 .9.1 0-2.4 3 0 4.6 3.7 1.8 4.1 4.6 5.6 6.4 3.5.6-.8 1.8-1.1 2.5-.8.8.3 2.1-.2 3-1 1.1-1.2 3-1.5 7-1.1 5.7.4 5.9.3 10.3-5 1.1-1.4 1-1.7-.3-2.2-.9-.4-1.9-.4-2.2 0-.7.7-3.3-1.3-3.3-2.6 0-.5.9-.6 2-.3 1.2.4 2 .2 2-.5 0-.6 1-1 2.2-.8 2.7.4 2.9-1 1.1-7.1-.8-3.1-.9-4.9-.2-5.7.7-.9.6-2-.3-3.6-1.2-2.2-1.4-2.8-1.7-5.5 0-.7-1.4-1.9-3.1-2.8-2.1-1.1-2.9-2.2-2.7-3.7.2-2.5-5.3-6.3-6.5-4.4-.5.7-1.3-.2-2-2.2-1-2.6-1.8-3.2-4.1-3.2-1.6 0-4.3-1.1-6.1-2.5-3.2-2.5-10.3-4.9-17.6-6.1-1.9-.3-4.4-.9-5.5-1.4-4.2-1.7-5.5-1.9-8.9-.9-3.1.9-4.4.5-11.4-3-6-3-8.2-4.7-9.1-6.9-1.2-2.9-6-5-8.2-3.6-.6.3-1.6 0-2.4-.6-1.1-.9-1.5-.9-1.5-.1 0 .6-.9 1.1-2 1.1-1.2 0-2 .7-2.1 1.7 0 1.3-.3 1.1-1-.7-.8-1.8-1.2-2.1-1.8-1.1-.6.9-1.1 1-1.5.2-.4-.6-1.2-1.1-1.7-1.1-.6 0-.7.4-.4 1 1.1 1.7-1.3 1.1-2.7-.8-2.2-2.9-10.6-9.2-12.3-9.2-.9 0-3.1-1.4-4.8-3.2-2.6-2.7-4.1-3.3-8-3.4-4.2-.2-5-.6-7-3.5-1.5-2.2-3-3.3-4.3-3.1-1.6.2-1.9-.4-2-4.3-.1-3.5-.7-5.2-2.7-7.3-1.5-1.6-2.7-3.6-2.7-4.5 0-2.1 3.7-6 5-5.2.4.3 1.1-.1 1.4-.7.3-.7.3-.3 0 .9-.6 2.8 1.9 3.4 6.5 1.5 2.9-1.1 3.9-1.1 7.2.2l3.9 1.6v-2.9c0-3.1-1.4-4.9-2.5-3.1-.9 1.5-1.9 1.2-3.4-1.1-1.1-1.8-1.1-2.3 0-3 1-.6.4-1.2-2.1-2.3-2.1-.8-3.7-1-4.1-.5-.7 1.2-3.8.1-4.1-1.5 0-.6-.2-1.6-.2-2.2-.1-.6-1.6-2.8-3.4-4.8-1.7-2-3.2-4.3-3.2-5.1 0-1.1-1.2-1.5-4.2-1.5-3.8 0-4.7-.5-9.9-6-4-4.3-6.4-6-8.2-6-1.4 0-2.8-.4-3.2-.9-.8-1.4-4.5-.9-4.5.6 0 .7-2-.2-4.5-2.2-5-3.8-10.6-5.7-15.8-5.3-1.8.1-3.7-.1-4.3-.4-.6-.4-.8.7-.6 2.9zm45.2 30.3c0 1.1-.4 2-1 2-.5 0-1-.9-1-2s.5-2 1-2c.6 0 1 .9 1 2zM610.106 406.187c.2.2-.8 1.5-2.3 2.9-2.5 2.3-2.6 2.6-.9 3.7 2.4 1.8 5.8.9 8-2 2.2-3 .9-5.5-2.9-5.2-1.2.1-2.1.4-1.9.6zM600.606 415.287c0 .5-1.2 1.1-2.7 1.3-3.3.4-4.1 2.3-1 2.4 1.2 0 2.9.4 3.8.8 1.9.8 3.2-1.5 2.3-3.9-.7-1.6-2.4-2.1-2.4-.6zM589.106 428.687c.7 2.5-1.6 4.4-3.7 3.1-.6-.4-.5.2.1 1.5 1.2 2.1 1.2 2.1 4.1-.6 3.5-3.1 3.7-3.9 1-5.3-1.9-1-2-.9-1.5 1.3zM561.606 435.787c0 .2.8 1 1.8 1.7 1.5 1.3 1.6 1.2.3-.4s-2.1-2.1-2.1-1.3z"/><path d="M854.306 496.487c-.3 1.1-1 1.8-1.6 1.5-.5-.4-1.2-.2-1.6.4-.4.6-1.1.8-1.6.5-1.4-.9-1.1 3.7.5 6.7 1.7 3.2 1 6.8-1.3 6.9-1 0-1.1.2-.3.6.6.2 1.2.9 1.2 1.4 0 .6-.8.5-2-.1-1.6-.9-2-.8-2 .7 0 1.2-.3 1.4-1.1.6-.6-.6-1.8-.9-2.5-.6-2.1.8-1.7 5.7.6 7.8 2.1 1.9 2.6 3.5 1 3.5-.5 0-1.8-1.7-2.9-3.8-1.1-2-2-3.2-2.1-2.5 0 .6-1.1 1-2.5.8-2.7-.2-3.2 1.3-1.6 4.4.6 1 .6 2.3 0 3.2-.5.7-.9 1-.9.5 0-.6-.9 0-2.1 1.2-1.3 1.5-1.8 2.9-1.4 4.2.5 1.5.2 2-1.4 2-2.4 0-3.5 1.5-2.4 3.2 1.3 2.2 1 12.8-.4 12.8-.8 0-1 .7-.5 2.1.6 1.6.1 2.8-2 5.1-1.5 1.7-2.8 3.7-2.8 4.5 0 1.1-.7 1.4-2.1 1-3.9-1-5.7 1.9-5.3 8.3.4 5.1.2 6-2.1 8.1-4.2 4-2.7 8.4 2 5.9 1.4-.7 3.1-.9 4.2-.5 1 .5 2.2.7 2.6.6.5-.1.7.9.5 2.1-.2 1.6.7 3.2 2.8 5.1 3.2 2.8 5.1 6.7 3.2 6.7-.6 0-.3.9.6 1.9 2.1 2.3 1.2 4.5-1.4 3.8-1.2-.3-2 .2-2.3 1.4-.3 1.1-1.4 1.9-2.6 1.9-1.8 0-2 .4-1.5 2.5.5 1.9.3 2.5-.7 2.3-1.9-.4-2.8-2.8-2.2-5.8.4-2.3.3-2.4-1-.8-.8 1-1.7 1.5-2.1 1.1-.3-.4-1.3.2-2.2 1.3-1.1 1.4-1.7 1.6-2.1.6-.2-.7-2-1.9-3.9-2.7-1.9-.8-3.4-1.8-3.4-2.3 0-1.6-6.1-3.7-6.9-2.4-.4.6-2.5 1.4-4.7 1.8-3.3.5-4.2.3-4.7-1-.4-.9-1.7-1.6-3.1-1.6-1.3 0-2.7-.6-2.9-1.3-.3-.6-.3.3 0 2.1l.6 3.3-4.2-.7c-2.2-.4-4.1-.3-4.1.2.1 1.4 3.7 5.4 4.9 5.4.5 0 1.5 1.7 2.1 3.9.5 2.1 1.6 4.3 2.3 4.9 1.7 1.3 7.3 2.9 13.2 3.7 4.9.7 5 .7 3.2-1.3-1.7-1.9-1.7-2 .2-2.5 1.4-.3 1.8-1.1 1.5-2.4-.4-1.6.4-2.2 5.2-3.7 4.7-1.5 5.8-1.6 6.5-.4 1.4 2.1 1.1 3.3-1.6 5.8-1.4 1.3-2.5 3.2-2.5 4.2 0 1.5-.5 1.7-2.5 1.2-3.3-.8-3.2.9.1 4.9 1.7 2 2.2 3.3 1.5 3.5-.7.2-1.9-.4-2.6-1.4-1.3-1.7-1.6-1.7-2.5-.4-1.5 2.2-1.2 3.1 1 3.7 2.8.8 1.5 2.1-1.5 1.5-2.7-.5-3 .3-1.5 4.2.6 1.7 1.7 2.6 3 2.6 1.2 0 1.9.4 1.6.9-.3.5.8 1.1 2.5 1.5 4.6.9 7.1.7 6.4-.4-.8-1.3.1-1.3 2.6 0 1.5.8 2.1.7 2.5-.4.3-.8 1.2-1.2 2-.9.8.3 2.1-.1 3-.8 1.4-1.1 1.8-1 2.9.4 1 1.4 1.4 1.5 1.8.5.4-.9.6-.8.6.4.1.9.5 1.8 1 2 1.3.5 2.4 4.8 1.2 4.8-.6 0-.8.7-.4 1.6.5 1.4.3 1.5-1.4.5-2.4-1.2-3.7.6-2.6 3.6.5 1.5.3 1.6-.8.5-1.8-1.7-4.9-1.5-4.9.3 0 .8.9 1.9 2 2.5 1.1.6 1.8 1.5 1.5 1.9-.2.5.6 2.9 2 5.4l2.5 4.5-2.9 2.5c-2.3 1.9-2.7 2.8-1.8 3.5 1.3 1.1 6.3 1 7.4-.1.3-.4 1.4-.2 2.4.4 1.5.8 1.9.6 1.9-.7 0-1.1 1-.4 3 2.1 3.7 4.7 3.7 5 .3 2.8-2.8-1.7-2.8-1.7-1.3.2 2.1 2.8 4.3 4.4 5.3 3.8.9-.5 3.7 5.8 3.7 8.5 0 1 1.7 3.6 3.7 5.7 3.3 3.4 3.7 3.6 4.3 1.9.6-1.6.9-1.5 2.4 1.3.9 1.8 2.6 4.1 3.7 5.2 1.3 1.2 2 2.7 1.7 3.9-.3 1.1-.1 2.7.4 3.6 1.2 2.1 4.2 2.2 3.4 0-.8-2.1 1.7-4.5 4.6-4.2 1.9.3 2.3-.2 2.6-3 .2-2.4-.1-3.2-1.3-3.2-1.3 0-1.5-.7-.9-3.8.8-4.5 1-4.8 2.6-3.4 1.8 1.4 10.6-.8 10-2.6-.2-.6.2-1.2.8-1.2.7 0 .9-.8.5-1.9-.5-1.6-.2-1.8 1.7-1.4 1.3.3 2.8 1 3.4 1.4 1.4 1.1 7.4-1.2 7.4-2.8 0-.7-.6-1.3-1.4-1.3-1.9 0-5.6-4.7-5.6-7.1 0-1.1-.7-1.9-1.6-1.9-.9 0-2.8-.9-4.3-1.9-1.5-1.1-4.6-2.1-6.8-2.3-2.5-.3-5.6-1.5-7.7-3.2-2.9-2.2-4.3-2.6-6.6-2.1-1.7.4-3 1.1-3 1.6s-1.3.9-2.9.9c-1.6 0-3.1.6-3.3 1.2-.4 1-1.8.6-5.3-1.2-5.3-2.7-6.9-5-3.7-5 1.2 0 2.3-.8 2.6-1.8.9-3.1-.2-11-1.9-13.6-1-1.4-1.3-2.6-.9-2.6.5-.1-.3-.8-1.8-1.6-1.6-.8-2.8-1.9-2.8-2.4 0-.6-1.9-1-4.1-1-3.7 0-4.6-.5-8.3-4.6-5.1-5.9-5.6-6.7-6.1-10.5-.4-3.2-2.5-6.6-2.5-4.1 0 .7-.9 1.2-2 1.2-2.5 0-2.8-4.5-.4-5.4 1.5-.6 1.5-.8-.1-2.6-2-2.2-1.9-2.5 1.3-3.4 1.6-.6 2.2-.3 2.2.8 0 .9.8 1.6 1.8 1.6 1.4.1 1.3.4-.7 2.1-1.4 1.2-2 2.3-1.5 2.9 1.2 1.1 5.6 1.6 7 .8.6-.4 2.8 1.1 4.9 3.2 2.2 2.2 4.3 4 4.9 4 .5 0 2 1 3.2 2.1 2.6 2.4 5.7 1.9 5.3-.8-.5-4.4 2.9-7.5 5.7-5.2 1.4 1.2 1.9.3 1.4-3-.1-.8.4-1.8 1.2-2.2 1-.7.9-.9-.3-.9-.9 0-2.3-1-3.1-2.2-1.3-2-1.3-2.4.5-4.5 1.5-1.7 3.1-2.3 5.9-2.3 4 0 3.9-.1 6.3 6.7.6 1.7 3.3.6 4.6-1.8.9-1.9-.2-5.7-1.5-5.2-1.8.8-2.7.1-2.1-1.7.3-1.1.2-2.7-.3-3.7-.6-1-.6-2.6-.2-3.9.6-1.4.4-2.9-.6-4.3-.8-1.1-1.2-2.5-.9-3.1 1.4-2.3-1.6-4.9-6.5-5.6-4.6-.6-6.4-1.8-4-2.6.5-.2 1.1-2.1 1.2-4.3.3-3.6.6-4 3.2-4.3 1.6-.2 3.3.1 3.9.7 2 2 3.3 1.1 3.1-1.9-.2-3.1 1.2-4.1 2.2-1.6.5 1.2 1 1.2 3.7-.2 1.8-1 3.4-2 3.5-2.5.2-.4 1.5-.7 2.8-.7 1.3 0 2.4-.6 2.4-1.3.1-.8.4-.7 1.3.3.7.8 2.1 1.6 3.2 1.7 1.7.1 1.5-.3-1-2.3l-3-2.4h3c2 0 3.5.7 4.3 2.1 1.6 2.5 2.7 1.9 1.4-.8-3.1-5.9-3.6-7.5-2.6-8.1 1.3-.9 2.5-5.2 1.4-5.2-.4 0-1-1-1.4-2.3-.5-1.8-.8-1.9-1.5-.8-.8 1.2-1.1.9-1.6-1.2-.4-1.5-1.1-2.7-1.6-2.7s-.9-.8-.9-1.7c0-.9-1.2-3-2.7-4.5-1.7-1.8-2.2-2.8-1.3-2.8 1.1 0 1.1-.3.2-1.2-1.8-1.8-1.5-2.7.8-2.1 2.3.6 2.4.4 1-3.1-.8-2.1-.6-2.5 1.3-2.8 1.4-.2 2.1-.9 1.9-1.9-.1-.9.4-1.9 1.3-2.3 2.3-.8 1.8-2.8-.5-2.1-3.1 1-7.5-3.1-11-10.4-1.8-3.6-3.9-8.1-4.8-9.9-1.5-3.3-3.7-4.2-4.5-2-.8 2.3-2.1-.2-1.9-3.6.3-4-2.2-6.9-3.1-3.5zm3.7 17.5c.5 1.4.4 1.5-.9.4-1.7-1.4-1.9-2-.6-2 .5 0 1.2.7 1.5 1.6zm6.5 187.7c1.1 1.4.6 2.7-1 2.7-.5 0-1.3-.9-1.9-2-.8-1.6-.8-2 .3-2 .8 0 2 .6 2.6 1.3zm2.1 4.1c0 .2-.7.6-1.5 1-.8.3-1.5.1-1.5-.4 0-.6.7-1 1.5-1s1.5.2 1.5.4zM421.806 507.087c-3.3.4-6.2 4.2-6.8 8.8-.7 5.6-3.3 9-4.9 6.4-.5-.7-1.2-.5-2.3.5-1 .8-2.9 1.8-4.5 2.1-1.5.4-3 1.1-3.3 1.6-1 1.7.6 4.6 3.3 5.8 1.5.7 3.3 2.1 4.1 3.2.8 1.1 2 1.8 2.7 1.5.7-.2 1.7.6 2.4 2 1.2 2.8 2.6 3 7 .8 3.5-1.7 6.4-6.4 5.5-8.8-.3-.8.1-2.9 1-4.6 1.1-2.3 1.2-3.8.6-5.6-.7-1.9-.6-3.1.6-4.9.9-1.4 2-2.5 2.5-2.5 1.6 0 .9-3-1.1-5-1.1-1.1-2.3-1.9-2.7-1.8-.5 0-2.3.3-4.1.5zM812.006 508.487c-.3.6-1.4.9-2.3.6-1-.2-1.8.1-1.8.8 0 .6.7 1.1 1.6 1 2.5-.3 5.1-1.6 5.1-2.6 0-1.3-1.7-1.1-2.6.2zM816.306 510.687c-.3.8 0 1.4.6 1.4.7 0 2 .4 2.9.8 1.3.5 1.5.2 1.1-1.6-.4-1.3-.8-1.8-1.1-1.1-.3.9-.8 1-1.7.2-.9-.8-1.4-.7-1.8.3z"/><path d="M411.706 518.987c0 1.1.3 1.4.6.6.3-.7.2-1.6-.1-1.9-.3-.4-.6.2-.5 1.3zM831.106 524.387c-.3.5-.1 1 .4 1 .6 0 1.1-.5 1.1-1 0-.6-.2-1-.4-1-.3 0-.8.4-1.1 1zM875.806 540.487c.2.7 1 1.5 1.7 1.7.8.3 1.2-.1.9-.9-.2-.7-1-1.5-1.7-1.7-.8-.3-1.2.1-.9.9zM417.606 546.587c0 2 .5 4 1 4.3 1.4.9 1.2 3.5-.5 6.9-.8 1.5-1.5 3.9-1.5 5.2 0 1.2-.7 2.7-1.6 3.2-1.4.8-1.4 1 0 2.1.9.8 1.6 1.8 1.6 2.4 0 2.6 3.2 4.5 6.6 4 3.2-.5 3.5-.3 5.3 3.8 1.1 2.7 3.5 5.6 6 7.4 2.2 1.6 4.1 3.3 4.1 3.7 0 .5.4.8.9.8s.7-.9.4-2c-.4-1.4 0-2 1.1-2 1.5 0 1.5-.3.1-3.8-2-4.8-7.1-9.5-9.6-8.9-1.1.3-1.9.2-1.9-.1 0-.4-1.3-2.1-2.8-3.7-3-3.2-5.8-10.8-4.2-11.3.5-.2.5-1.3-.1-2.8-.5-1.4-.7-3.5-.4-4.7.3-1.4-.4-3.3-2-5.2l-2.5-3v3.7zM691.706 575.987c0 1.1.3 1.4.6.6.3-.7.2-1.6-.1-1.9-.3-.4-.6.2-.5 1.3zM664.906 592.787c.4 1 .7 2.3.7 3 0 .6.9 1.2 1.9 1.2 1.1 0 1.7-.4 1.5-.8-.3-.4 0-.8.5-.8.6 0 1.1-.7 1.1-1.5s-.6-1.5-1.4-1.5c-.8 0-2.2-.3-3.2-.7-1.4-.5-1.6-.3-1.1 1.1zM820.606 601.187c0 1.3-.4 3.2-1 4.2-.7 1.3-.6 1.9.4 2.3 1.7.7 2.8-5 1.5-7.3-.6-1.2-.8-1-.9.8zM800.106 622.387c.3.5.8 1 1.1 1 .2 0 .4-.5.4-1 0-.6-.5-1-1.1-1-.5 0-.7.4-.4 1zM863.506 623.087c0 .4-.2 1.6-.4 2.5-.3 1.4 0 1.5 1.6.5 1-.6 1.8-1.6 1.6-2.1-.4-1.3-2.7-2-2.8-.9zM910.906 671.587c-1.5 1.6-2 3.1-1.7 4.5.4 1.4-.1 2.7-1.4 3.8-1.1 1-1.8 2.5-1.5 3.4.6 2.4-2.2 4.4-5.1 3.9-1.8-.4-2.6 0-3 1.5-.4 1.8-.1 1.9 5.1 1.4 3.1-.3 6-1.1 6.4-1.9.5-.7.9-.9.9-.4s.7.3 1.5-.4c1.2-1 1.9-1 2.7-.2 1.3 1.3 4.7 1.6 7.2.6 1.9-.7 2.1-3.5.4-5.2-.9-.9-.8-1.5.6-2.5s1.5-1.8.7-4c-.9-2.3-.8-2.7.6-2.7 3.5 0-2.7-3.2-7.1-3.7-3.4-.3-4.6 0-6.3 1.9zM904.306 693.087c.6 1.6.5 1.7-1.2.3s-1.8-1.3-1.2.3c.4 1.1 1 2.9 1.3 4.2.3 1.3 2 3 3.9 3.9 2.3 1.1 3.4 2.5 3.8 4.6.8 3.5 1.6 3.7 4.6 1.1 1.7-1.5 2.1-2.5 1.5-4.3-.4-1.3-.8-4.1-.8-6.3-.1-3.3-.5-4-2.6-4.5-1.4-.4-3-.3-3.7.2-.7.6-1.9.5-3.2-.1-2.7-1.5-3.1-1.4-2.4.6zM876.106 705.387c.3.5.8 1 1.1 1 .2 0 .4-.5.4-1 0-.6-.5-1-1.1-1-.5 0-.7.4-.4 1zM854.706 708.687c-.9 1.2-.7 1.6.9 2 2.1.5 2.5 0 1.1-2.1-.6-1-1-1-2 .1z"/></g></svg>