<?xml version="1.0" standalone="no"?>
<!DOCTYPE svg PUBLIC "-//W3C//DTD SVG 20010904//EN"
 "http://www.w3.org/TR/2001/REC-SVG-20010904/DTD/svg10.dtd">
<svg version="1.0" xmlns="http://www.w3.org/2000/svg"
 width="457.658205pt" height="701.759721pt" viewBox="0 0 457.658205 701.759721"
 preserveAspectRatio="xMidYMid meet">
<metadata>
Created by potrace 1.15, written by Peter Selinger 2001-2017
</metadata>
<g transform="translate(-744.609387,1278.000000) scale(0.100000,-0.100000)"
fill="#222222" stroke="none">
<path d="M9034 12760 c0 -20 7 -25 19 -14 7 7 -2 34 -12 34 -4 0 -7 -9 -7 -20z"/>
<path d="M9166 12773 c-14 -4 -16 -7 -6 -13 11 -7 11 -11 1 -24 -14 -17 -6
-21 27 -17 7 1 15 -5 18 -14 3 -8 13 -15 20 -15 8 0 17 -13 21 -30 6 -31 21
-38 39 -20 7 7 19 4 37 -10 20 -16 25 -17 21 -6 -3 9 -10 16 -15 16 -13 0 -71
89 -65 99 4 5 -3 7 -14 4 -13 -4 -20 0 -20 10 0 8 -7 18 -16 21 -17 6 -19 6
-48 -1z"/>
<path d="M9130 12750 c0 -5 5 -10 11 -10 5 0 7 5 4 10 -3 6 -8 10 -11 10 -2 0
-4 -4 -4 -10z"/>
<path d="M9117 12709 c4 -13 9 -17 15 -11 11 11 3 32 -12 32 -4 0 -6 -9 -3
-21z"/>
<path d="M9347 12713 c-13 -12 -7 -43 8 -43 9 0 15 9 15 25 0 24 -10 32 -23
18z"/>
<path d="M9450 12680 c0 -6 -6 -10 -12 -9 -40 5 -62 -16 -61 -58 1 -12 -29
-24 -90 -37 -15 -4 -27 -12 -26 -19 4 -33 -2 -47 -21 -47 -16 0 -20 -7 -20
-31 0 -33 -46 -89 -74 -89 -8 0 -22 -10 -30 -22 -15 -20 -16 -21 -34 -5 -19
17 -62 23 -62 9 0 -4 -15 -13 -33 -20 -39 -14 -93 -6 -101 14 -8 22 -44 16
-89 -14 -23 -16 -65 -42 -94 -58 -34 -18 -54 -37 -58 -52 -5 -22 -10 -24 -51
-19 -24 2 -44 1 -44 -4 0 -19 -19 -8 -23 14 l-4 22 -2 -22 c-3 -53 -76 -6 -83
52 -2 21 -8 30 -21 30 -10 0 -29 11 -43 24 -14 13 -27 21 -31 18 -3 -4 -15 0
-27 8 -30 22 -45 19 -77 -16 -29 -31 -39 -57 -18 -43 8 5 10 -1 7 -20 -4 -21
-1 -27 18 -32 13 -3 29 -13 36 -22 10 -12 10 -14 1 -8 -22 12 -15 1 25 -42 37
-40 82 -56 82 -30 0 7 14 -4 31 -25 25 -30 34 -35 45 -26 8 6 14 19 14 28 1
13 3 12 13 -4 16 -26 67 -28 67 -3 0 23 16 23 36 -1 11 -12 24 -17 38 -13 19
5 20 4 6 -11 -35 -38 -40 -47 -40 -73 0 -19 -4 -25 -15 -21 -18 8 -70 -18 -56
-28 17 -10 13 -21 -12 -34 -13 -7 -32 -27 -42 -44 -10 -18 -25 -38 -32 -45 -7
-7 -13 -22 -13 -33 0 -12 -7 -19 -20 -19 -22 0 -25 -7 -11 -29 6 -10 5 -23 -2
-35 -6 -12 -12 -32 -13 -45 -2 -13 -8 -29 -13 -34 -19 -19 -13 -47 9 -47 11 0
20 -6 20 -13 0 -7 10 -17 22 -22 25 -12 40 -42 15 -32 -13 5 -13 3 -1 -21 19
-37 19 -76 -1 -69 -11 5 -13 0 -9 -22 5 -24 2 -30 -16 -36 -15 -5 -19 -12 -14
-23 4 -10 11 -41 17 -70 9 -46 8 -57 -11 -96 -29 -57 -28 -92 4 -133 28 -37
28 -55 0 -131 -18 -47 -15 -62 12 -62 22 -1 102 -74 102 -94 0 -9 4 -16 10
-16 5 0 19 -18 30 -40 19 -36 19 -42 6 -56 -9 -8 -23 -31 -32 -50 -16 -34 -16
-35 10 -72 32 -46 32 -52 4 -52 -16 0 -19 -3 -11 -11 15 -15 5 -45 -20 -57
-40 -19 -52 -19 -77 -2 -48 34 -64 30 -76 -20 -8 -32 -16 -45 -28 -44 -10 1
-16 -6 -16 -18 0 -18 -4 -20 -37 -14 -21 3 -43 6 -50 6 -6 0 -14 9 -18 19 -4
12 -12 17 -24 14 -11 -3 -30 3 -44 12 -20 13 -30 14 -46 6 -21 -12 -90 -15
-115 -5 -9 3 -16 12 -16 19 0 7 -7 15 -15 19 -10 3 -15 -1 -15 -14 0 -30 -35
-34 -74 -8 -24 15 -36 31 -36 46 0 13 -4 21 -9 17 -5 -3 -12 3 -14 12 -3 10
-5 2 -6 -17 -1 -26 -10 -44 -36 -70 -19 -19 -48 -52 -66 -72 -17 -21 -48 -47
-69 -59 -31 -17 -39 -29 -44 -58 -13 -90 -17 -101 -42 -101 -17 0 -22 -4 -18
-15 4 -8 1 -15 -5 -15 -12 0 -61 -51 -61 -63 0 -15 52 -77 65 -77 7 0 19 -8
26 -17 12 -15 12 -16 -3 -10 -10 3 -23 0 -31 -7 -9 -10 -19 -11 -30 -4 -13 7
-19 5 -24 -8 -4 -10 -2 -19 5 -22 7 -2 12 -10 12 -18 0 -7 -6 -11 -14 -8 -9 3
-15 -4 -18 -21 -4 -21 -1 -28 19 -36 13 -5 26 -15 29 -22 8 -21 66 -19 87 4
15 16 21 17 40 7 12 -7 25 -11 30 -10 4 1 7 -4 7 -11 0 -8 8 -21 18 -31 17
-15 22 -15 56 -1 20 9 39 22 42 30 5 12 34 28 54 30 19 1 60 47 60 65 0 19 4
22 29 17 21 -5 34 -1 47 14 11 12 26 18 37 15 11 -2 27 0 37 7 14 8 25 8 45
-1 14 -7 41 -12 60 -12 30 0 35 -3 35 -23 0 -12 -7 -32 -15 -43 -8 -12 -11
-24 -8 -28 3 -3 0 -6 -9 -6 -8 0 -23 -9 -32 -19 -17 -18 -16 -19 2 -25 11 -4
27 -18 36 -31 9 -14 25 -25 35 -25 10 0 22 -7 25 -16 4 -11 14 -15 32 -11 20
3 27 -1 35 -20 5 -14 7 -29 4 -33 -7 -11 27 -30 53 -30 26 0 45 -23 31 -37
-15 -15 5 -25 55 -27 22 -1 47 -5 54 -9 8 -6 12 -2 12 10 0 15 2 15 15 -4 8
-12 28 -23 43 -25 17 -2 28 -10 30 -21 3 -15 0 -18 -17 -12 -27 8 -27 -10 -1
-33 31 -26 61 -30 103 -13 33 14 38 19 34 44 -3 22 2 32 20 44 15 10 23 25 23
44 0 16 3 29 8 29 13 -1 42 -27 42 -39 0 -10 31 -27 53 -29 4 -1 21 -9 37 -19
29 -17 30 -17 60 12 24 23 41 29 82 32 29 2 59 10 67 18 13 12 16 12 28 -3 13
-16 14 -15 10 6 -3 12 -1 22 4 22 5 0 9 -4 9 -10 0 -5 7 -10 16 -10 9 0 12 5
8 12 -5 8 -2 9 10 5 10 -4 20 -7 22 -7 2 0 2 -17 -1 -37 -7 -46 12 -87 42 -91
21 -3 32 -33 34 -91 0 -31 56 -112 87 -126 20 -9 40 -60 28 -72 -12 -12 16
-43 39 -43 13 0 28 -8 34 -17 5 -10 21 -18 35 -18 28 -2 99 -35 105 -49 2 -5
21 -28 42 -50 44 -46 119 -146 119 -158 0 -5 7 -8 15 -8 8 0 21 -16 30 -36 13
-32 13 -38 -1 -60 -9 -13 -24 -24 -34 -24 -13 0 -16 -6 -12 -25 3 -16 0 -25
-8 -25 -7 0 -10 -7 -6 -15 3 -9 0 -15 -10 -15 -13 0 -13 -3 1 -29 10 -21 12
-32 4 -37 -6 -3 -9 -17 -6 -30 2 -15 -3 -30 -14 -40 -11 -10 -19 -27 -19 -38
0 -12 -6 -31 -14 -42 -13 -19 -12 -21 14 -31 23 -9 32 -8 41 3 17 20 43 17 71
-8 33 -30 55 -33 63 -8 7 21 23 24 63 13 17 -4 20 -8 11 -14 -11 -6 -11 -12 0
-31 7 -13 11 -28 10 -34 -5 -18 13 -59 39 -86 33 -35 21 -49 -14 -17 -24 22
-26 22 -22 4 3 -11 -1 -32 -9 -47 -7 -15 -10 -34 -6 -44 5 -13 2 -15 -16 -9
-23 7 -23 6 -17 -57 5 -48 12 -67 28 -79 14 -11 17 -18 9 -23 -17 -11 -41 -74
-41 -107 0 -16 -3 -29 -8 -29 -12 0 -33 -55 -29 -76 2 -10 8 -27 12 -37 5 -13
1 -28 -14 -47 -25 -34 -27 -58 -6 -66 8 -4 13 -10 10 -14 -3 -4 4 -10 15 -13
14 -4 20 0 20 11 0 13 5 11 20 -8 20 -26 22 -57 3 -53 -6 1 -11 -18 -11 -46
-1 -39 3 -52 23 -71 27 -26 32 -49 13 -68 -10 -10 -7 -16 10 -28 12 -8 22 -23
22 -33 0 -10 7 -24 15 -31 8 -7 15 -22 15 -35 0 -33 30 -87 52 -93 15 -3 19
-12 16 -36 -2 -24 1 -30 13 -28 9 1 19 -5 23 -13 4 -12 10 -14 23 -6 12 6 28
4 55 -10 45 -23 52 -24 44 -4 -17 44 50 -11 75 -62 13 -27 32 -49 48 -55 14
-6 38 -16 53 -24 30 -16 68 -19 68 -5 0 6 17 7 38 4 38 -6 92 -54 69 -62 -18
-6 -24 -20 -20 -45 4 -17 10 -22 23 -19 14 4 21 -2 26 -21 3 -14 12 -30 20
-37 8 -6 14 -18 14 -26 0 -35 32 -82 60 -88 19 -4 30 -14 34 -31 6 -22 12 -24
59 -24 49 0 57 -4 127 -60 41 -33 83 -60 93 -60 10 0 15 -4 12 -10 -3 -5 16
-30 42 -55 29 -28 52 -61 58 -83 9 -32 15 -38 47 -43 33 -5 41 -2 72 29 20 19
36 29 36 23 0 -6 11 -13 25 -17 14 -3 25 -10 25 -15 0 -5 5 -9 11 -9 8 0 7 5
-2 16 -10 13 -10 17 0 23 10 6 10 14 3 28 -8 14 -7 26 2 44 7 14 10 31 8 38
-5 14 -3 14 45 -6 21 -8 37 40 23 67 -8 16 -9 20 -1 15 20 -11 4 46 -19 69
-14 16 -17 25 -9 33 8 8 6 20 -6 44 -10 19 -19 36 -21 38 -7 8 -94 -33 -94
-45 0 -8 -7 -14 -15 -14 -8 0 -15 -8 -15 -19 0 -14 -10 -20 -42 -24 -44 -6
-61 2 -78 34 -8 13 -6 17 6 15 9 -1 20 -9 25 -17 6 -10 9 -11 9 -1 0 7 11 30
25 50 14 20 25 47 25 60 0 33 18 62 34 56 14 -5 43 50 38 73 -1 6 11 14 28 18
23 5 30 12 30 31 0 17 7 25 25 30 23 6 23 7 9 30 -9 13 -13 28 -9 34 4 6 1 18
-6 26 -8 9 -9 18 -3 22 17 13 9 52 -14 68 -13 9 -37 14 -55 12 -25 -2 -34 2
-42 20 -13 29 -23 28 -61 -9 -33 -32 -99 -54 -110 -37 -3 5 -12 4 -21 -3 -12
-10 -16 -10 -23 2 -10 15 27 42 45 32 5 -4 7 -3 3 2 -4 4 -3 16 3 27 9 16 6
25 -12 44 -12 13 -26 21 -30 18 -4 -2 -13 5 -20 17 -9 17 -8 23 2 30 8 5 9 9
3 9 -6 0 -16 10 -23 23 -15 28 -71 37 -71 11 0 -11 -6 -15 -19 -11 -15 3 -21
-2 -26 -21 -4 -16 -2 -28 4 -30 6 -2 11 -10 11 -18 0 -8 7 -17 15 -20 8 -4 15
-10 15 -14 0 -15 -39 -21 -60 -10 -37 20 -37 0 0 -31 38 -31 28 -40 -11 -11
-36 25 -61 41 -86 52 -13 5 -23 14 -23 20 0 5 -5 10 -11 10 -6 0 -27 17 -47
38 -29 30 -36 34 -40 20 -4 -22 -5 -22 -43 -2 -23 12 -34 13 -44 4 -8 -7 -20
-8 -27 -4 -7 5 -20 9 -28 9 -8 0 -19 10 -25 22 -5 13 -22 27 -36 32 -15 5 -30
19 -34 30 -3 12 -10 19 -15 16 -4 -3 -13 2 -20 10 -7 8 -21 15 -31 15 -22 0
-49 42 -30 48 6 2 11 15 11 29 0 23 3 25 32 19 31 -6 31 -6 13 14 -14 16 -16
23 -7 32 7 7 12 22 12 34 0 12 7 27 15 34 17 14 20 50 5 50 -6 0 -8 10 -4 24
4 15 -1 36 -12 55 -22 37 -9 98 19 93 30 -5 31 27 3 49 -29 23 -26 39 7 39 21
0 20 2 -8 26 -22 19 -26 27 -16 33 8 5 9 10 3 12 -7 3 -9 27 -5 66 5 51 9 62
26 67 12 3 18 8 14 12 -4 4 0 15 9 25 14 16 14 18 -4 23 -11 4 -23 18 -26 32
-4 16 -13 24 -24 22 -13 -2 -16 3 -14 24 1 14 -2 29 -8 33 -16 10 -12 25 7 25
14 0 14 2 -2 20 -21 24 -22 23 33 39 23 6 42 17 42 24 0 20 84 36 99 19 10
-10 16 -10 27 -1 14 11 10 48 -6 59 -4 3 -11 16 -15 29 -5 18 -4 22 6 15 8 -4
34 -9 59 -10 25 -1 58 -5 74 -9 26 -7 27 -6 17 14 -7 13 -8 21 -2 21 16 0 81
-69 81 -86 0 -9 8 -14 18 -13 9 1 25 -1 35 -6 13 -5 24 -1 38 14 23 24 30 26
49 9 12 -11 12 -10 0 5 -10 14 -10 21 -2 29 7 7 12 22 12 35 0 14 6 23 15 23
8 0 18 12 21 26 5 18 10 22 17 15 6 -6 14 -11 19 -11 11 0 2 54 -13 78 -12 19
-15 20 -31 5 -27 -24 -86 -9 -101 26 -15 34 -47 77 -114 149 -51 57 -107 90
-119 71 -3 -6 -19 -7 -35 -4 -19 4 -29 3 -29 -5 0 -20 -67 -75 -94 -77 -34 -2
-35 28 -2 54 18 15 22 23 14 36 -5 10 -13 15 -18 12 -5 -3 -11 -1 -15 5 -3 5
3 10 13 10 11 0 26 9 33 19 16 23 46 27 111 16 26 -4 56 -4 65 0 10 5 23 7 29
6 7 -1 14 5 18 14 8 21 23 19 29 -4 7 -27 57 -24 57 4 1 19 2 19 14 3 7 -10
16 -15 19 -11 4 3 7 1 7 -4 0 -6 -4 -13 -10 -15 -16 -5 40 -68 61 -68 10 0 18
4 16 8 -1 5 29 39 66 76 46 45 76 67 90 65 12 0 24 -1 27 0 3 1 28 3 55 5 42
3 57 10 93 42 30 29 42 47 42 68 0 18 4 26 13 23 6 -2 27 4 46 14 21 11 44 16
63 12 16 -3 28 -2 27 3 -4 21 2 34 20 43 14 8 25 6 44 -9 14 -11 27 -20 29
-20 10 0 1 41 -13 57 -25 30 -40 71 -28 79 13 8 -19 43 -71 79 -21 15 -40 35
-43 46 -3 11 -18 24 -34 29 -16 6 -34 19 -41 30 -10 17 -10 20 7 20 27 0 22
45 -12 97 -31 50 -34 63 -9 57 14 -4 18 2 20 34 1 25 -3 44 -12 51 -12 11 -11
17 10 48 21 32 22 37 9 56 -13 18 -12 22 5 34 15 11 18 21 13 46 -3 18 -12 40
-21 49 -9 11 -12 27 -8 41 4 16 0 29 -8 37 -8 6 -15 19 -15 28 -1 19 -7 94
-10 103 0 3 -7 6 -15 6 -8 0 -12 -6 -9 -13 2 -7 -4 -21 -14 -31 -10 -10 -17
-26 -15 -36 2 -9 -2 -17 -8 -17 -10 0 -10 -3 -1 -14 9 -11 6 -15 -16 -19 -40
-7 -80 18 -111 69 -15 24 -34 44 -42 44 -8 0 -31 23 -49 52 -19 29 -36 47 -39
40 -2 -7 -10 -12 -18 -12 -8 0 -14 -9 -14 -20 0 -30 -34 -25 -69 11 -17 17
-31 28 -31 24 0 -4 -6 0 -13 7 -17 16 -10 88 8 88 7 0 15 9 18 20 3 13 10 18
21 14 14 -5 16 3 16 54 0 33 -7 72 -15 88 -19 36 -19 50 -1 57 11 4 12 14 5
44 -12 53 -13 51 25 59 31 5 35 10 41 47 9 60 25 107 36 107 22 0 78 -30 87
-47 9 -14 13 -16 23 -5 7 6 26 12 43 12 16 0 26 3 23 7 -4 3 9 17 28 30 28 19
34 29 30 46 -5 20 0 24 42 37 26 7 62 14 80 14 17 0 29 4 27 8 -7 11 10 10 22
-1 13 -13 54 5 54 24 0 9 -14 21 -31 27 -19 7 -28 15 -25 24 3 8 1 25 -4 39
-7 20 -6 25 10 30 13 4 20 15 20 31 0 13 5 24 10 24 6 0 10 7 10 16 0 11 6 13
19 9 14 -4 21 0 26 15 3 11 11 20 16 20 6 0 7 5 4 10 -3 6 2 10 13 10 25 0 76
55 69 74 -3 9 0 28 8 43 13 24 12 30 -1 50 -12 20 -12 23 0 23 8 0 21 3 29 6
11 4 16 -2 19 -18 2 -18 11 -24 41 -29 23 -4 40 -2 45 5 4 6 13 11 21 11 7 0
21 14 30 31 9 17 21 29 26 28 27 -8 73 70 61 102 -4 12 -2 15 9 10 9 -3 15 0
15 8 0 7 7 19 15 26 11 9 12 17 4 32 -9 17 -8 18 10 9 27 -15 36 -14 23 2 -9
10 -7 19 4 35 13 19 13 25 -1 52 -14 27 -14 30 0 30 18 0 19 14 4 41 -8 16
-13 18 -25 8 -11 -9 -14 -8 -14 9 0 24 41 37 70 22 24 -13 25 -7 3 27 -16 24
-16 26 3 40 18 14 18 15 -13 42 -28 24 -32 31 -27 62 4 24 0 47 -10 68 -12 23
-14 36 -6 50 15 29 12 78 -6 106 -16 24 -16 25 11 25 27 0 28 0 21 52 -4 29
-11 57 -16 63 -5 6 -5 17 0 25 12 20 3 30 -26 30 -14 0 -27 6 -30 14 -5 13
-12 13 -51 1 -44 -13 -45 -13 -83 21 -20 19 -42 34 -47 34 -6 0 -22 9 -36 20
l-25 20 -8 -28 c-4 -15 -6 -35 -5 -44 1 -11 -8 -23 -24 -30 -22 -10 -28 -9
-41 8 -13 17 -14 17 -6 1 6 -14 1 -27 -25 -55 -18 -20 -33 -44 -33 -53 0 -23
-33 -33 -60 -19 -14 8 -20 8 -20 0 0 -6 -6 -17 -12 -24 -7 -8 -20 -23 -28 -35
-8 -11 -24 -21 -35 -21 -15 0 -23 -11 -33 -40 -6 -22 -12 -47 -12 -55 0 -8 -9
-24 -20 -35 -20 -20 -21 -29 -22 -122 -1 -37 -5 -47 -19 -51 -11 -3 -19 -14
-19 -24 0 -11 -7 -28 -15 -39 -8 -10 -15 -29 -15 -40 0 -32 -26 -50 -47 -33
-14 12 -17 12 -21 0 -2 -7 -15 -23 -28 -34 -14 -12 -22 -27 -19 -35 3 -9 0
-12 -9 -9 -8 3 -17 3 -20 -1 -4 -3 -27 -5 -52 -5 -40 1 -44 -1 -39 -18 5 -16
1 -19 -27 -21 -18 -1 -40 -2 -48 -4 -8 -1 -19 -2 -23 -3 -5 -1 6 -15 23 -33
27 -26 29 -33 16 -40 -8 -5 -13 -15 -10 -23 5 -11 -1 -15 -18 -15 -27 0 -84
53 -74 68 3 6 -2 13 -11 16 -10 4 -25 21 -34 39 -14 28 -21 32 -55 32 -21 0
-43 -2 -49 -5 -18 -9 -54 -6 -48 4 4 5 -3 7 -15 4 -12 -4 -20 -2 -16 3 3 5 -1
9 -9 9 -8 0 -18 7 -21 16 -3 8 -10 13 -16 9 -5 -3 -12 6 -16 20 -3 14 -9 25
-13 25 -3 1 -16 9 -28 19 l-22 19 18 50 c19 51 19 51 -3 66 -16 10 -18 17 -10
26 13 13 7 53 -6 45 -5 -3 -20 0 -35 7 -19 9 -28 9 -33 1 -14 -22 -74 0 -94
35 l-18 32 31 0 c35 0 99 46 99 72 0 23 52 49 104 53 42 3 44 5 62 73 2 8 14
3 34 -15 41 -36 59 -37 91 -5 l27 27 -19 27 c-18 25 -21 46 -9 58 47 46 74
100 49 100 -6 0 -29 16 -51 36 -23 20 -46 33 -54 30 -9 -4 -18 3 -24 19 -11
30 -30 33 -30 5 0 -11 -7 -20 -15 -20 -8 0 -17 -11 -21 -25 -6 -25 -7 -25 -25
-9 -11 9 -19 14 -19 10 0 -4 10 -16 22 -25 20 -17 30 -41 28 -66 -3 -50 -10
-69 -29 -91 -12 -14 -29 -23 -36 -20 -9 3 -12 0 -9 -8 8 -21 -23 -39 -73 -43
-26 -2 -52 -8 -59 -13 -7 -7 -17 -3 -29 10 -20 22 -45 27 -45 8 0 -7 -13 2
-29 20 -31 34 -61 35 -61 2 0 -10 -7 -20 -15 -24 -8 -3 -15 0 -15 5 0 7 -9 5
-23 -4 -17 -11 -28 -12 -41 -5 -15 8 -17 8 -11 -2 6 -10 4 -12 -8 -7 -21 8
-21 3 -2 -27 14 -21 13 -24 -15 -49 -16 -15 -30 -35 -29 -45 2 -31 14 -57 27
-57 6 0 12 -4 13 -10 1 -17 29 -27 43 -16 15 13 56 3 56 -14 0 -25 -12 -45
-23 -38 -6 4 -8 0 -4 -10 4 -10 -1 -18 -14 -22 -10 -4 -19 -13 -19 -20 0 -8
-4 -16 -9 -20 -13 -8 -81 26 -81 41 0 6 -6 17 -14 23 -15 13 -10 56 10 85 11
15 10 23 -3 42 -8 13 -21 24 -28 24 -7 0 -18 13 -25 29 -9 23 -9 33 1 49 10
16 10 23 0 36 -18 21 -51 88 -51 102 0 6 -7 17 -15 24 -8 7 -15 21 -15 31 0
11 -4 19 -8 19 -4 0 -27 18 -51 40 -34 32 -50 40 -81 40 -27 0 -40 5 -44 18
-20 54 -37 72 -70 72 -25 0 -35 5 -39 20 -3 11 -21 27 -41 35 -20 9 -36 20
-36 25 0 6 -4 10 -10 10 -5 0 -10 -5 -10 -10z m780 -450 c0 -5 -2 -10 -4 -10
-3 0 -8 5 -11 10 -3 6 -1 10 4 10 6 0 11 -4 11 -10z m-20 -60 c8 0 10 8 7 21
-3 13 -1 19 6 16 17 -5 21 -55 6 -73 -16 -20 -70 -19 -63 1 8 19 -15 48 -33
41 -7 -3 -13 1 -13 10 0 11 6 15 20 11 11 -3 20 0 20 6 1 7 9 2 19 -10 11 -13
25 -23 31 -23z m-263 -169 c1 -11 -4 -22 -12 -25 -18 -6 -29 25 -13 36 19 12
24 10 25 -11z m271 -86 l37 -26 -47 3 c-27 2 -48 6 -48 11 0 4 -7 7 -15 7 -8
0 -15 7 -15 15 0 24 47 18 88 -10z m-98 -9 c0 -8 -9 -18 -20 -21 -11 -3 -20
-11 -20 -17 0 -6 -9 -3 -20 7 -24 22 -18 34 15 27 15 -2 25 0 25 7 0 6 5 11
10 11 6 0 10 -6 10 -14z m-1573 -62 c-2 -2 -12 -1 -22 3 -18 6 -18 7 1 13 17
7 33 -5 21 -16z m1793 -24 c0 -5 -2 -10 -4 -10 -3 0 -8 5 -11 10 -3 6 -1 10 4
10 6 0 11 -4 11 -10z m875 -10 c3 -5 1 -10 -4 -10 -6 0 -11 5 -11 10 0 6 2 10
4 10 3 0 8 -4 11 -10z m-2665 -250 c0 -5 -2 -10 -4 -10 -3 0 -8 5 -11 10 -3 6
-1 10 4 10 6 0 11 -4 11 -10z m2310 -40 c0 -5 -5 -10 -11 -10 -5 0 -7 5 -4 10
3 6 8 10 11 10 2 0 4 -4 4 -10z m-533 -152 c-3 -8 -6 -5 -6 6 -1 11 2 17 5 13
3 -3 4 -12 1 -19z m620 -503 c-5 -13 -47 -19 -47 -7 0 6 3 17 6 26 5 12 9 13
25 3 10 -6 18 -16 16 -22z m-2587 -561 c0 -8 -4 -12 -10 -9 -5 3 -10 10 -10
16 0 5 5 9 10 9 6 0 10 -7 10 -16z m490 -496 c0 -4 -6 -5 -13 -2 -7 2 -13 14
-13 25 0 19 1 19 13 3 7 -10 13 -21 13 -26z m118 -53 c-3 -14 -2 -28 2 -30 9
-5 -11 -55 -21 -55 -4 0 -12 7 -19 15 -7 8 -19 15 -26 15 -8 0 -14 7 -14 15 0
8 4 15 9 15 6 0 22 11 37 25 34 31 38 31 32 0z m-375 -160 c-3 -13 -53 -20
-53 -7 0 15 13 23 35 20 11 -2 19 -7 18 -13z m607 -16 c0 -5 -4 -9 -10 -9 -5
0 -10 7 -10 16 0 8 5 12 10 9 6 -3 10 -10 10 -16z m-521 -9 c12 0 21 -3 21 -6
0 -13 -42 -58 -65 -70 -33 -17 -43 1 -17 29 15 16 18 27 12 37 -15 24 -12 32
9 20 11 -5 29 -10 40 -10z m1677 -1867 c-7 -7 -26 7 -26 19 0 6 6 6 15 -2 9
-7 13 -15 11 -17z m-26 -373 c0 -5 -4 -10 -9 -10 -6 0 -13 5 -16 10 -3 6 1 10
9 10 9 0 16 -4 16 -10z m815 -850 c11 -5 16 -9 12 -9 -4 -1 -3 -10 2 -20 8
-13 7 -22 -2 -29 -19 -15 -53 3 -70 37 -15 31 -15 31 11 30 15 0 36 -4 47 -9z"/>
<path d="M9096 12673 c-21 -6 -53 -33 -48 -42 1 -3 -5 -14 -13 -23 -8 -10 -11
-18 -5 -18 5 0 15 8 22 18 7 9 26 24 42 32 16 8 31 21 34 28 4 12 0 13 -32 5z"/>
<path d="M7825 12490 c-4 -6 -3 -16 3 -22 6 -6 12 -6 17 2 4 6 3 16 -3 22 -6
6 -12 6 -17 -2z"/>
<path d="M7891 12491 c-11 -7 -10 -14 5 -42 11 -19 20 -36 21 -38 1 -2 17 -5
35 -6 18 -2 35 -5 38 -6 3 -1 10 -2 15 -3 6 -1 28 -10 50 -20 22 -10 59 -19
83 -20 25 -1 48 -9 53 -17 6 -10 9 -1 9 27 0 47 -25 71 -86 81 -18 3 -32 9
-29 13 2 4 -4 15 -13 24 -16 14 -21 14 -38 1 -25 -19 -52 -19 -70 0 -17 17
-52 19 -73 6z"/>
<path d="M10790 12480 c0 -5 5 -10 11 -10 5 0 7 5 4 10 -3 6 -8 10 -11 10 -2
0 -4 -4 -4 -10z"/>
<path d="M10748 12443 c7 -3 16 -2 19 1 4 3 -2 6 -13 5 -11 0 -14 -3 -6 -6z"/>
<path d="M8037 10726 c-9 -10 -17 -25 -17 -34 0 -13 4 -11 21 6 25 27 21 53
-4 28z"/>
<path d="M7973 10702 c-16 -2 -23 -11 -25 -35 -2 -26 -8 -33 -29 -35 -16 -2
-30 -12 -37 -27 -6 -13 -20 -26 -31 -30 -12 -3 -21 -15 -21 -26 0 -10 -6 -19
-12 -19 -8 0 -6 -5 4 -11 24 -14 63 -1 85 27 10 13 23 24 30 24 7 0 13 7 13
15 0 8 14 21 30 30 24 13 30 22 30 50 0 38 -5 43 -37 37z"/>
<path d="M7707 10576 c-17 -13 -16 -14 3 -19 20 -5 29 -27 10 -27 -5 0 -7 -7
-3 -16 3 -9 2 -19 -3 -23 -5 -3 -16 -20 -26 -38 -14 -27 -14 -32 -2 -37 10 -4
16 4 20 24 4 16 15 32 25 35 10 3 19 16 21 28 2 12 12 23 23 26 41 7 41 41 0
41 -13 0 -27 5 -30 10 -8 13 -16 12 -38 -4z"/>
<path d="M8318 10482 c-13 -5 -15 -11 -8 -22 5 -8 10 -11 10 -6 0 6 7 1 16
-10 15 -19 16 -19 9 1 -4 11 -8 26 -8 33 0 6 -1 12 -1 11 -1 0 -9 -3 -18 -7z"/>
<path d="M11360 9935 c7 -9 15 -13 17 -11 7 7 -7 26 -19 26 -6 0 -6 -6 2 -15z"/>
<path d="M7768 9703 c-22 -3 -28 -10 -28 -29 0 -15 6 -24 16 -24 8 0 13 4 9 9
-3 5 4 12 15 16 11 3 20 13 20 21 0 8 -1 13 -2 13 -2 -1 -15 -4 -30 -6z"/>
<path d="M7686 9678 c5 -7 2 -9 -9 -5 -11 4 -14 2 -10 -9 5 -14 34 -19 46 -8
10 10 -4 34 -20 34 -8 0 -11 -5 -7 -12z"/>
<path d="M7690 9635 c0 -3 8 -17 17 -32 16 -23 17 -24 24 -7 13 34 9 44 -16
44 -14 0 -25 -2 -25 -5z"/>
<path d="M7770 9621 c0 -5 5 -13 10 -16 6 -3 10 -2 10 4 0 5 -4 13 -10 16 -5
3 -10 2 -10 -4z"/>
<path d="M8517 9350 c5 -34 2 -44 -20 -64 -15 -14 -34 -26 -44 -28 -10 -2 -17
-12 -17 -21 1 -13 -10 -21 -42 -29 -24 -7 -44 -16 -44 -20 0 -13 -58 -39 -65
-28 -10 16 -35 12 -35 -6 0 -12 -7 -15 -27 -10 -16 3 -22 3 -15 0 19 -8 4 -24
-23 -24 -13 0 -26 -6 -29 -12 -5 -10 -7 -10 -12 -1 -9 19 -34 3 -34 -21 0 -12
8 -32 17 -46 16 -22 16 -23 -1 -17 -16 6 -16 5 -1 -15 8 -13 15 -32 15 -44 0
-12 7 -27 16 -35 14 -12 14 -14 -2 -26 -17 -12 -16 -14 4 -36 12 -13 22 -29
22 -35 0 -19 31 -62 44 -62 6 0 22 -9 35 -19 27 -21 38 -81 15 -81 -16 0 -19
-16 -4 -25 5 -3 6 -13 3 -23 -6 -15 -5 -15 10 -3 23 19 81 2 131 -38 28 -23
47 -29 84 -29 26 -1 60 -5 74 -11 l27 -10 -15 34 c-18 44 -19 42 20 49 39 7
50 32 28 58 -13 16 -12 19 12 28 25 9 26 13 20 47 -9 49 -11 53 -35 53 -10 0
-19 4 -19 9 0 5 -3 16 -6 25 -5 12 1 16 24 16 22 0 38 9 56 31 21 25 29 29 40
20 9 -8 16 -8 20 -2 4 5 2 12 -4 16 -5 3 -10 11 -10 17 0 6 12 2 27 -7 26 -17
27 -17 45 4 9 13 23 24 30 25 25 3 38 17 38 41 0 12 7 25 15 29 8 3 15 12 15
21 0 8 7 15 15 15 12 0 13 4 3 25 -10 23 -16 25 -60 21 -53 -5 -58 2 -36 49 9
21 9 29 -5 42 -13 13 -19 14 -31 4 -8 -7 -24 -10 -34 -7 -13 5 -22 1 -26 -10
-5 -13 -9 -15 -18 -6 -7 7 -24 12 -38 12 -15 0 -35 9 -45 20 -10 11 -26 22
-36 25 -12 4 -19 16 -20 33 0 15 0 48 0 75 0 45 -2 47 -29 47 -27 0 -28 -1
-23 -40z"/>
<path d="M11550 9113 c0 -5 7 -18 15 -29 19 -25 19 -32 -4 -39 -13 -4 -17 -12
-14 -25 6 -24 58 -70 79 -70 8 0 14 -7 14 -15 0 -8 9 -19 21 -25 17 -9 19 -17
13 -38 -4 -15 -8 -39 -9 -53 -1 -14 -5 -30 -8 -36 -4 -6 0 -13 8 -17 8 -3 15
-13 15 -22 0 -18 38 -53 58 -54 7 0 12 8 11 18 -2 17 8 118 17 159 3 17 -9 38
-48 80 -28 32 -60 63 -70 68 -10 6 -36 33 -58 59 -22 27 -40 44 -40 39z"/>
<path d="M11692 8665 c-14 -16 -27 -22 -41 -18 -12 3 -21 1 -21 -5 0 -6 8 -11
18 -11 9 0 34 -4 55 -9 21 -6 37 -6 37 -1 0 5 7 9 16 9 8 0 13 4 10 9 -4 5 0
12 6 14 7 3 3 6 -9 6 -12 1 -28 7 -36 15 -13 13 -17 12 -35 -9z"/>
<path d="M10951 8340 c-1 -11 -12 -16 -38 -16 -20 0 -38 -5 -40 -11 -3 -8 -13
-7 -32 3 -28 14 -66 10 -56 -6 3 -5 0 -12 -7 -17 -22 -14 -41 -61 -35 -84 12
-45 -59 -82 -81 -43 -8 14 -11 13 -28 -7 -15 -18 -29 -24 -61 -24 -24 0 -43
-4 -43 -8 0 -5 -10 -5 -21 -2 -20 7 -22 5 -16 -29 5 -29 2 -39 -16 -51 -11 -8
-18 -18 -14 -21 4 -4 3 -12 -1 -18 -5 -6 -3 -22 4 -36 12 -21 14 -22 14 -6 0
19 1 19 23 -1 12 -11 28 -19 35 -17 7 1 8 0 2 -3 -7 -3 -5 -12 6 -24 12 -13
15 -29 11 -53 -5 -34 14 -68 30 -52 3 3 17 -1 30 -10 38 -24 55 -3 49 61 l-5
53 62 12 c91 19 101 18 114 -10 l11 -25 1 27 c1 20 5 26 16 22 9 -4 23 4 34
17 18 21 22 23 42 11 18 -12 23 -12 31 0 7 10 11 10 14 1 3 -7 12 -9 20 -6 12
4 12 8 2 21 -10 12 -10 16 -1 19 7 2 9 11 6 19 -3 9 2 14 17 14 11 0 19 4 16
8 -3 5 6 21 18 37 20 25 30 29 76 30 41 1 57 6 70 23 10 12 26 22 37 22 15 0
15 2 3 9 -8 6 -27 7 -42 4 -30 -6 -58 10 -58 33 0 8 11 14 26 14 23 0 74 39
74 57 0 12 -92 -5 -109 -21 -15 -14 -24 -14 -69 -4 -47 12 -53 16 -58 45 -4
18 -11 36 -17 40 -6 3 -7 1 -3 -5 4 -7 3 -19 -2 -28 -7 -12 -10 -13 -19 -2 -6
7 -13 22 -16 33 -3 12 -5 14 -6 5z m-31 -280 c0 -11 -7 -20 -15 -20 -15 0 -21
21 -8 33 12 13 23 7 23 -13z m-65 -80 c-3 -5 -11 -10 -16 -10 -6 0 -7 5 -4 10
3 6 11 10 16 10 6 0 7 -4 4 -10z"/>
<path d="M11436 8209 c5 -8 -24 -14 -53 -10 -7 1 -13 -5 -13 -14 0 -8 -9 -15
-20 -15 -11 0 -20 -3 -20 -6 0 -17 59 -79 87 -90 41 -17 43 -17 43 1 0 13 11
19 32 17 8 -2 33 54 42 91 5 20 3 27 -8 27 -8 0 -16 -4 -18 -9 -2 -5 -19 -4
-40 4 -21 7 -35 9 -32 4z m-11 -29 c3 -5 1 -10 -4 -10 -6 0 -11 5 -11 10 0 6
2 10 4 10 3 0 8 -4 11 -10z"/>
<path d="M10463 8193 c-18 -9 -33 -19 -33 -22 0 -11 69 -28 80 -21 14 9 10 52
-5 56 -5 1 -25 -5 -42 -13z"/>
<path d="M11277 8194 c-12 -12 -8 -21 12 -27 13 -3 18 0 17 11 -3 18 -19 26
-29 16z"/>
<path d="M10486 7884 c-4 -9 -4 -19 -1 -22 2 -3 7 3 11 12 4 9 4 19 1 22 -2 3
-7 -3 -11 -12z"/>
<path d="M10836 7838 c-3 -29 -6 -62 -6 -72 -1 -11 -8 -25 -17 -31 -12 -9 -13
-16 -4 -33 15 -27 14 -32 -4 -32 -8 0 -15 -7 -15 -15 0 -8 -4 -15 -10 -15 -6
0 -5 -9 1 -24 13 -27 49 -42 49 -21 0 8 14 24 32 36 17 13 26 25 20 27 -19 6
-1 32 23 32 18 0 21 4 18 24 -3 13 0 27 6 30 16 10 13 26 -4 26 -8 0 -15 5
-15 10 0 6 -7 10 -16 10 -11 0 -15 6 -12 18 3 10 -5 33 -17 51 l-23 32 -6 -53z"/>
<path d="M11021 7726 c-13 -8 -32 -11 -41 -9 -9 2 -22 -2 -29 -10 -22 -28 24
-31 61 -5 18 13 35 24 37 25 2 2 2 5 0 7 -2 2 -15 -1 -28 -8z"/>
<path d="M10065 6960 c-3 -5 -1 -10 4 -10 6 0 11 5 11 10 0 6 -2 10 -4 10 -3
0 -8 -4 -11 -10z"/>
<path d="M10047 6856 c-3 -8 0 -17 7 -19 10 -4 12 1 9 14 -6 23 -9 24 -16 5z"/>
<path d="M9964 6835 c-4 -9 -13 -14 -20 -11 -18 7 -18 -23 -1 -46 12 -15 14
-14 33 5 34 36 36 45 14 57 -16 9 -22 8 -26 -5z"/>
<path d="M11342 6137 c-12 -13 -22 -31 -22 -41 0 -10 -9 -20 -20 -23 -31 -8
-23 -64 9 -62 10 0 11 2 4 6 -7 2 -13 9 -13 14 0 6 9 5 22 -2 18 -10 24 -8 36
7 13 18 14 18 7 -5 -5 -17 -4 -22 6 -19 8 3 22 -6 32 -19 12 -14 29 -23 47
-23 38 0 47 17 22 43 -11 12 -23 37 -27 55 -3 17 -11 32 -16 32 -6 0 -23 14
-38 30 l-27 30 -22 -23z"/>
<path d="M11700 5980 c0 -6 -10 -8 -24 -4 -14 3 -29 0 -37 -9 -7 -8 -21 -12
-31 -9 -12 3 -18 -1 -18 -11 0 -13 -9 -15 -46 -11 l-45 5 16 -25 c10 -14 32
-35 50 -46 35 -21 105 -27 105 -9 0 8 5 8 15 -1 8 -7 15 -19 15 -27 0 -7 6
-13 13 -11 6 1 26 -5 42 -14 17 -8 36 -13 43 -11 8 3 16 -4 19 -16 4 -17 12
-21 37 -18 17 2 40 8 51 14 11 6 25 9 30 7 13 -5 49 61 41 74 -4 6 -2 13 4 17
6 4 7 12 3 18 -5 9 -3 9 8 0 24 -19 41 3 27 33 -11 24 -28 33 -28 15 0 -12
-60 -42 -70 -36 -4 3 -10 -2 -14 -10 -4 -12 -12 -12 -48 5 -24 11 -51 20 -61
20 -11 0 -35 16 -54 35 -38 38 -43 41 -43 25z"/>
</g>
</svg>
