<?xml version="1.0" standalone="no"?>
<!DOCTYPE svg PUBLIC "-//W3C//DTD SVG 20010904//EN"
 "http://www.w3.org/TR/2001/REC-SVG-20010904/DTD/svg10.dtd">
<svg version="1.0" xmlns="http://www.w3.org/2000/svg"
 width="608.000000pt" height="609.362545pt" viewBox="0 0 608.000000 609.362545"
 preserveAspectRatio="xMidYMid meet">
<metadata>
Created by potrace 1.15, written by Peter Selinger 2001-2017
</metadata>
<g transform="translate(-722.000000,1261.362545) scale(0.100000,-0.100000)"
fill="#222222" stroke="none">
<path d="M8922 12600 c-8 -13 -22 -19 -40 -18 -56 4 -99 -2 -100 -14 -1 -7 -4
-27 -8 -45 -6 -30 -8 -31 -35 -21 -16 5 -35 18 -42 28 -10 14 -24 18 -60 17
-30 -1 -51 3 -56 11 -9 15 -111 6 -111 -9 0 -14 -48 -11 -78 5 -15 7 -38 17
-51 21 -22 7 -23 5 -17 -19 6 -23 3 -26 -18 -26 -17 0 -27 -8 -36 -30 -7 -16
-17 -30 -22 -30 -5 0 -6 -5 -2 -12 5 -8 0 -9 -14 -6 -15 4 -22 2 -22 -8 0 -8
-7 -17 -15 -20 -8 -3 -17 -15 -21 -26 -4 -14 -13 -19 -34 -16 -15 1 -34 -3
-42 -10 -15 -12 -48 -7 -48 8 0 4 -9 10 -21 13 -15 4 -23 0 -26 -13 -4 -15
-16 -20 -53 -22 l-47 -3 35 -73 c27 -56 32 -76 23 -82 -11 -6 -11 -12 -1 -31
12 -21 14 -32 19 -77 0 -7 16 -22 35 -33 31 -18 34 -23 29 -55 -5 -28 -2 -38
15 -50 12 -8 29 -31 38 -52 9 -20 23 -50 32 -66 11 -21 12 -31 4 -34 -9 -3 -9
-9 -2 -23 7 -13 7 -19 0 -19 -5 0 -10 -6 -10 -14 0 -16 -41 -29 -63 -20 -11 4
-13 -1 -10 -20 8 -41 -5 -76 -27 -76 -12 0 -25 -10 -32 -25 -6 -14 -17 -25
-25 -25 -16 0 -16 -8 2 -40 18 -32 18 -40 0 -40 -8 0 -15 -5 -15 -12 0 -6 -11
-25 -24 -42 -33 -45 -58 -95 -51 -106 3 -6 1 -10 -5 -10 -8 0 -8 -6 0 -21 7
-12 9 -37 5 -60 -6 -32 -4 -39 9 -39 9 0 16 -4 16 -10 0 -12 -26 -2 -72 28
-23 15 -46 22 -59 19 -15 -4 -30 5 -55 33 -34 37 -37 39 -84 33 -33 -4 -55 -2
-65 7 -22 18 -18 33 5 20 23 -12 25 -7 10 21 -6 10 -19 19 -29 19 -10 0 -26
10 -35 23 -11 13 -29 22 -47 23 -26 1 -29 -2 -23 -20 4 -12 10 -28 15 -36 5
-9 1 -22 -9 -34 -11 -12 -17 -36 -18 -72 0 -50 1 -54 28 -59 37 -9 41 -17 23
-51 -8 -16 -15 -35 -15 -41 0 -7 -7 -13 -15 -13 -8 0 -12 6 -9 14 3 8 -3 16
-15 19 -22 5 -20 -3 7 -35 14 -16 13 -18 -4 -18 -11 0 -25 5 -32 12 -7 7 -12
8 -12 3 0 -6 -4 -5 -8 0 -14 21 -67 51 -83 48 -13 -3 -15 -11 -9 -36 4 -18 12
-41 17 -52 6 -11 17 -33 24 -50 12 -28 13 -29 17 -7 2 12 7 22 12 22 15 0 22
-20 11 -34 -13 -16 -22 -106 -10 -106 5 0 9 -24 9 -53 0 -47 -4 -56 -40 -96
-22 -24 -43 -54 -46 -67 -3 -12 -16 -25 -28 -28 -21 -5 -23 -11 -21 -58 2 -58
15 -69 55 -48 15 8 19 17 14 32 -5 16 -3 20 8 15 8 -3 40 -8 71 -12 44 -6 57
-4 57 6 0 10 3 10 12 1 7 -7 24 -12 38 -12 14 0 32 -9 40 -19 7 -11 18 -18 22
-15 12 8 39 -16 32 -27 -3 -5 1 -9 8 -9 7 0 24 -9 38 -20 14 -11 35 -20 46
-20 12 0 25 -7 28 -16 3 -8 10 -13 15 -9 9 5 31 -53 31 -82 0 -7 5 -13 11 -13
16 0 59 -48 59 -64 0 -8 -9 -16 -21 -19 -20 -5 -20 -7 12 -46 17 -22 40 -43
50 -46 10 -4 19 -16 19 -28 2 -82 4 -86 43 -103 20 -9 37 -20 37 -24 0 -4 11
-12 24 -18 24 -10 41 -58 25 -68 -15 -9 -10 -61 7 -74 8 -8 35 -14 59 -14 26
-1 51 -8 62 -18 21 -19 63 -24 78 -9 18 16 100 19 113 4 16 -17 24 -53 12 -53
-5 0 -6 -16 -3 -36 5 -28 2 -39 -11 -46 -17 -9 -17 -11 0 -29 9 -10 22 -19 27
-19 33 0 46 -78 26 -155 -6 -22 -16 -68 -22 -103 -9 -57 -12 -63 -32 -58 -17
4 -24 -1 -34 -30 -7 -20 -27 -44 -47 -57 -22 -14 -34 -30 -34 -45 0 -12 -7
-25 -16 -29 -13 -5 -12 -9 8 -30 18 -19 20 -26 9 -32 -11 -7 -12 -23 -7 -70 5
-42 4 -61 -4 -61 -6 0 -10 -6 -8 -12 4 -22 -22 -58 -42 -58 -15 0 -20 -7 -20
-25 0 -23 -2 -24 -21 -15 -32 18 -48 -3 -46 -58 1 -26 5 -50 10 -53 13 -9 -24
-83 -54 -108 -16 -13 -29 -28 -29 -34 0 -5 -8 -16 -17 -23 -16 -12 -16 -13 -2
-14 9 0 24 -11 33 -25 13 -20 22 -24 41 -19 30 7 44 -19 26 -48 -10 -15 -7
-24 16 -53 28 -35 88 -55 115 -39 7 5 23 7 35 6 28 -4 83 25 83 43 0 8 9 15
20 15 11 0 20 7 20 15 0 9 6 12 16 8 10 -4 17 1 21 16 4 16 11 19 28 15 17 -4
25 -1 29 14 6 17 12 19 36 12 22 -6 32 -4 46 11 15 17 15 21 0 70 -17 50 -15
64 7 64 12 0 24 35 26 74 1 17 -3 22 -15 17 -10 -4 -14 -1 -12 6 3 7 21 17 42
21 21 5 40 17 44 26 3 9 14 25 24 35 10 11 18 26 18 34 0 9 7 13 20 9 13 -3
21 1 25 14 12 37 22 18 14 -28 -4 -27 -3 -53 2 -59 5 -6 3 -18 -5 -30 -7 -10
-16 -31 -20 -46 -5 -23 -12 -28 -35 -28 -24 0 -28 -3 -24 -20 5 -17 0 -20 -33
-21 -22 0 -33 -3 -26 -6 16 -6 15 -38 -3 -56 -12 -13 -10 -15 18 -20 18 -2 43
1 55 6 19 9 26 8 33 -5 12 -21 66 -33 84 -18 10 8 15 8 21 -1 5 -9 9 -8 13 5
5 13 12 8 31 -24 38 -63 71 -101 84 -97 35 13 71 -58 45 -89 -25 -30 68 -187
97 -163 18 15 29 -27 13 -47 -17 -21 -1 -30 59 -33 25 -1 48 -5 52 -9 3 -4 17
-13 32 -19 21 -10 29 -9 38 3 15 17 60 19 60 2 0 -7 3 -23 6 -35 4 -15 1 -22
-13 -25 -14 -4 -11 -9 19 -27 20 -12 43 -33 52 -46 18 -27 21 -55 7 -55 -13 0
-19 -70 -6 -71 5 0 0 -4 -13 -9 -13 -6 -22 -15 -20 -22 2 -7 -9 -29 -25 -49
-30 -40 -35 -84 -11 -110 14 -16 13 -21 -6 -61 -21 -40 -65 -87 -83 -88 -14 0
-58 -53 -54 -64 2 -6 15 -10 28 -9 15 1 17 0 7 -3 -10 -3 -18 -10 -18 -14 0
-5 -13 -16 -30 -25 -34 -18 -39 -35 -12 -42 10 -2 26 -18 36 -34 15 -25 15
-28 1 -23 -20 8 -20 -18 1 -57 18 -36 12 -62 -22 -88 -16 -12 -23 -25 -18 -32
4 -7 8 -24 9 -38 2 -35 8 -55 20 -63 6 -5 6 -17 -1 -36 -13 -33 -2 -72 20 -72
10 0 13 6 9 16 -5 14 -3 15 15 5 11 -6 22 -21 24 -33 2 -19 9 -23 38 -21 19 1
36 6 38 12 6 17 22 2 22 -20 0 -10 4 -19 10 -19 5 0 12 -11 16 -25 3 -13 15
-27 25 -30 10 -4 24 -15 29 -26 6 -10 17 -19 26 -19 8 0 17 -6 20 -13 3 -9 16
-12 34 -9 17 2 27 8 24 13 -8 14 27 9 70 -10 l40 -17 -23 -16 -23 -16 23 -31
c12 -17 29 -31 37 -31 11 0 12 3 3 14 -7 9 -8 17 -2 20 5 3 11 1 13 -5 2 -7
16 -1 34 14 26 22 37 25 69 20 29 -5 40 -2 47 11 7 13 17 16 35 11 19 -4 35 3
71 32 55 46 151 96 169 89 8 -3 13 2 13 16 0 21 9 22 78 2 19 -5 22 -2 22 19
0 20 6 26 29 29 16 2 38 1 50 -4 18 -6 21 -4 21 22 0 20 5 30 15 30 8 0 15 7
15 16 0 13 3 14 15 4 18 -15 35 -5 35 21 0 26 49 26 80 -1 21 -18 21 -20 4
-20 -30 0 -76 -64 -68 -96 4 -14 13 -28 20 -31 8 -3 14 -10 14 -15 0 -6 -6 -5
-15 2 -13 11 -15 7 -17 -26 -1 -22 -1 -51 0 -66 2 -24 -3 -28 -33 -34 -21 -4
-35 -12 -35 -21 0 -8 -4 -11 -10 -8 -5 3 -10 1 -10 -4 0 -6 -7 -11 -16 -11
-11 0 -14 -5 -10 -16 3 -9 6 -20 6 -25 0 -5 8 -9 18 -10 10 0 12 -3 5 -6 -21
-8 -15 -33 8 -33 11 0 34 9 50 21 16 11 37 18 46 15 10 -3 29 4 42 15 23 19
23 21 9 58 -15 37 -15 40 2 44 15 4 18 13 15 48 -2 24 1 52 7 62 9 17 11 17
27 3 24 -22 31 -21 80 16 43 31 43 32 38 80 -4 31 -2 48 5 48 5 0 7 7 4 16 -3
8 -2 23 3 33 8 15 3 19 -35 29 -25 7 -56 9 -69 6 -15 -4 -25 -2 -25 5 0 6 11
13 25 16 14 3 36 7 48 10 16 3 32 -3 47 -18 14 -12 33 -27 45 -32 11 -6 21
-23 23 -38 3 -26 11 -31 40 -28 6 1 12 -2 12 -7 0 -5 14 -12 31 -16 19 -4 33
-13 36 -26 4 -15 9 -18 18 -10 7 6 27 7 45 3 31 -6 32 -7 12 -14 -28 -11 -29
-39 -2 -39 37 0 49 20 31 52 -10 18 -12 31 -6 36 6 4 10 13 11 20 1 6 2 21 3
31 2 27 28 51 57 51 42 0 60 29 57 90 -1 30 -6 68 -11 85 -10 36 6 78 28 69
20 -7 -20 30 -48 45 -13 7 -20 16 -17 22 10 15 -5 31 -19 20 -8 -6 -18 -2 -32
14 -12 13 -18 25 -13 27 14 5 -6 83 -20 80 -6 -1 -22 3 -34 10 -24 13 -107 17
-107 6 0 -15 -28 -8 -34 8 -4 9 -5 18 -4 19 2 1 24 11 51 23 26 12 47 29 47
37 0 8 8 24 17 35 11 13 18 39 19 71 0 27 6 55 12 61 7 7 12 21 12 31 0 13 5
17 15 13 9 -3 19 3 25 15 10 18 9 19 -17 13 -24 -6 -26 -5 -16 8 7 8 10 18 7
21 -10 10 -13 57 -4 57 5 0 11 -10 13 -22 l4 -23 8 23 c4 12 11 22 16 22 4 0
22 13 39 30 17 16 37 30 45 30 8 0 15 7 15 15 0 9 11 26 24 38 30 29 42 111
14 104 -20 -6 -43 17 -33 32 6 10 -29 52 -42 50 -15 -1 -13 18 2 31 8 7 15 21
15 31 0 22 18 26 26 6 2 -7 14 -14 26 -14 12 -1 26 -10 31 -19 5 -9 18 -25 28
-35 18 -18 22 -18 42 -4 12 8 29 15 39 15 9 0 21 6 25 13 17 26 50 36 85 27
18 -6 49 -10 70 -10 31 0 41 6 68 40 18 23 37 39 44 37 13 -4 34 15 44 43 l8
21 37 -25 c33 -23 38 -24 52 -10 8 9 20 24 26 35 9 19 12 18 53 -10 24 -17 46
-37 49 -45 4 -9 13 -13 21 -10 8 3 26 -7 40 -23 26 -27 27 -27 41 -9 8 11 15
16 15 11 0 -5 5 -4 12 3 7 7 20 12 29 12 10 0 24 9 32 21 14 19 17 19 51 5 20
-8 36 -12 36 -9 0 3 12 -2 26 -11 24 -17 26 -16 44 7 19 24 33 26 82 13 38
-11 78 18 78 55 0 16 4 29 10 29 5 0 9 3 8 8 -1 4 4 23 10 43 10 29 17 36 32
32 14 -4 20 0 20 12 0 9 10 30 21 47 20 27 26 29 60 24 32 -5 39 -3 39 11 0
13 6 11 28 -10 27 -26 49 -36 37 -18 -3 6 11 13 31 17 19 3 38 13 41 20 3 8
16 14 29 14 15 0 24 6 24 16 0 11 6 14 21 9 27 -9 39 8 39 58 l0 38 38 -7 c20
-4 42 -13 47 -19 6 -7 24 -17 42 -23 28 -9 33 -8 46 11 l15 22 21 -22 c21 -23
58 -33 46 -13 -3 6 3 10 14 10 17 0 21 6 21 30 0 19 5 30 14 30 7 0 -4 17 -25
39 -42 41 -49 61 -23 61 14 0 13 5 -6 37 -17 29 -18 38 -8 44 7 5 17 9 21 9
17 0 25 45 11 67 -18 29 -18 43 2 43 25 0 75 64 95 122 13 36 17 69 13 103 -6
59 -24 137 -34 148 -4 5 -4 25 1 45 12 50 -5 90 -39 94 -33 4 -65 53 -43 67
11 7 9 10 -9 16 -15 5 -19 10 -11 18 7 7 15 6 27 -4 16 -13 17 -11 12 14 -4
21 -1 27 12 27 9 0 25 9 35 20 14 15 21 17 32 9 16 -14 38 2 59 43 13 24 17
26 34 16 23 -15 37 -4 21 16 -7 8 -11 23 -9 34 2 10 -3 26 -11 36 -16 19 -15
21 17 30 13 5 22 3 22 -3 0 -6 5 -11 10 -11 6 0 10 7 10 15 0 10 -10 15 -32
15 -17 0 -39 7 -49 16 -10 9 -39 17 -69 18 -55 3 -70 15 -70 53 0 16 -4 21
-15 17 -9 -4 -13 -14 -9 -28 4 -18 -2 -24 -46 -41 -52 -20 -63 -42 -40 -84 8
-16 5 -18 -40 -13 -31 3 -50 1 -50 -6 0 -5 -9 -8 -20 -5 -13 4 -26 -1 -34 -12
-9 -13 -15 -15 -20 -6 -11 17 -28 2 -21 -19 8 -24 -11 -60 -30 -60 -19 0 -19
-16 0 -24 24 -9 18 -36 -7 -36 -18 0 -20 -2 -8 -10 12 -7 11 -12 -5 -32 -11
-13 -21 -25 -22 -27 -2 -3 -12 5 -23 17 -12 12 -29 22 -40 22 -10 0 -23 6 -27
13 -11 17 -43 18 -43 1 0 -9 -11 -14 -30 -14 -16 0 -30 5 -30 10 0 6 5 10 10
10 14 0 12 32 -4 52 -18 24 -36 4 -36 -38 0 -34 -12 -50 -30 -39 -8 5 -7 11 1
21 9 11 8 14 -5 14 -11 0 -16 9 -16 26 0 22 2 25 15 14 9 -7 15 -8 15 -2 0 5
-11 17 -24 25 -22 15 -25 14 -45 -11 -11 -14 -21 -29 -21 -33 0 -3 -18 -9 -40
-13 -22 -3 -40 -10 -40 -14 0 -4 -20 -12 -45 -18 -47 -11 -105 -8 -105 6 0 13
54 70 66 70 7 0 10 8 6 22 -3 12 -1 19 4 15 6 -3 10 3 11 13 1 11 -4 19 -10
17 -7 -1 -13 14 -15 41 -2 23 -8 42 -14 42 -6 0 -8 9 -5 20 7 28 -24 100 -44
100 -8 0 -25 9 -37 21 -12 11 -27 17 -33 14 -5 -4 -22 -4 -36 0 -18 4 -24 11
-20 24 4 16 -24 45 -46 46 -9 0 -27 26 -27 40 0 11 46 35 67 35 7 0 13 11 13
25 0 14 5 25 10 25 6 0 10 7 10 16 0 8 4 13 9 9 5 -3 15 1 23 8 7 8 18 12 24
10 16 -5 32 18 36 52 2 24 -1 30 -17 31 -33 2 -63 15 -69 31 -3 8 -10 11 -16
8 -6 -3 -13 1 -17 11 -4 10 0 20 10 26 10 5 17 13 17 17 0 13 -37 51 -43 44
-4 -3 -18 2 -31 11 -29 18 -76 22 -76 5 0 -7 -10 -9 -27 -4 -37 9 -53 23 -53
46 0 11 -6 19 -14 19 -8 0 -25 14 -38 31 -13 17 -36 45 -51 61 -22 24 -25 33
-15 39 7 5 17 9 22 9 4 0 5 7 2 16 -4 9 -1 23 5 30 10 12 9 13 -5 8 -10 -4
-26 5 -46 26 -16 17 -29 35 -29 38 3 22 -3 32 -20 32 -11 0 -21 -5 -23 -11 -6
-18 -53 10 -73 44 -10 18 -26 41 -35 52 -17 19 -17 23 0 85 9 36 19 70 21 75
4 14 -26 81 -41 90 -14 9 -28 -9 -37 -47 -3 -18 -12 -28 -24 -28 -20 0 -35
-16 -19 -22 5 -1 12 -19 15 -38 5 -30 1 -40 -19 -59 -20 -19 -23 -28 -15 -42
7 -15 6 -19 -6 -19 -11 0 -14 -6 -9 -25 6 -23 3 -25 -27 -27 -19 -1 -45 -1
-59 0 -13 1 -31 -5 -40 -13 -9 -8 -20 -12 -23 -9 -4 4 -13 1 -21 -5 -8 -7 -20
-10 -27 -6 -6 4 -14 4 -18 -1 -13 -19 -56 -31 -77 -22 -50 23 -151 -91 -125
-141 17 -31 13 -69 -9 -91 -11 -11 -20 -29 -20 -39 0 -11 -4 -23 -10 -26 -5
-3 -10 -20 -10 -37 0 -25 -11 -42 -56 -84 -39 -36 -62 -50 -75 -47 -15 4 -19
0 -19 -21 0 -16 -6 -26 -15 -26 -8 0 -23 -10 -34 -21 -13 -14 -27 -20 -41 -16
-27 7 -72 -38 -106 -104 -12 -26 -37 -59 -53 -75 -22 -20 -29 -34 -25 -50 4
-13 0 -23 -9 -27 -10 -4 -13 -13 -10 -25 7 -28 -13 -61 -43 -68 -19 -5 -22 -9
-13 -20 8 -10 8 -14 0 -14 -6 0 -11 -11 -11 -25 0 -32 46 -58 61 -34 7 11 9
11 9 -3 0 -10 -7 -18 -15 -18 -8 0 -15 -7 -15 -16 0 -13 -7 -15 -31 -10 -17 3
-42 6 -55 6 -16 0 -28 8 -36 25 -6 13 -15 22 -19 19 -5 -2 -16 -1 -26 4 -66
34 -168 52 -188 33 -16 -14 -63 -22 -70 -11 -4 6 -18 -2 -35 -20 -18 -20 -34
-28 -44 -24 -15 6 -15 3 1 -30 14 -30 15 -39 4 -45 -17 -11 -60 10 -54 26 3 7
-1 13 -9 13 -8 0 -26 10 -39 21 -13 12 -40 32 -60 44 -20 13 -39 34 -42 47
l-6 23 19 -23 c13 -16 21 -19 26 -10 4 6 2 14 -5 16 -7 2 -16 14 -21 27 -13
34 -66 57 -137 59 -49 1 -67 6 -85 24 -31 29 -92 30 -161 3 -16 -6 -46 -11
-68 -11 -29 0 -39 -4 -39 -16 0 -8 -4 -13 -9 -10 -16 11 -80 -37 -75 -56 6
-22 -27 -32 -59 -17 -26 12 -67 -1 -67 -22 0 -7 -13 -9 -35 -5 -26 5 -35 3
-35 -6 0 -7 -12 -21 -27 -29 -24 -16 -30 -15 -77 3 -28 11 -73 31 -100 44 -27
14 -57 22 -67 19 -11 -4 -19 -2 -19 5 0 8 -11 10 -33 6 -26 -5 -38 -2 -52 14
-10 11 -24 20 -32 20 -7 0 -13 4 -13 9 0 20 -33 42 -55 37 -24 -6 -48 13 -44
36 6 29 -13 124 -28 140 -15 17 -14 18 20 18 26 0 37 4 37 15 0 13 18 20 43
16 13 -2 8 20 -12 47 -10 15 -21 51 -23 80 -5 48 2 66 17 43 3 -6 21 -1 41 11
26 15 34 26 31 39 -3 12 0 19 9 19 8 0 14 5 14 11 0 7 21 34 46 61 33 36 44
54 39 68 -4 11 -2 20 4 20 6 0 11 8 11 17 0 9 8 25 17 35 22 24 27 97 7 105
-11 4 -12 9 -3 19 9 11 8 14 -4 14 -21 0 -31 34 -17 61 9 16 9 28 0 49 -9 21
-9 42 -2 76 13 61 -4 110 -42 120 -14 3 -26 10 -26 14 0 5 -9 11 -20 15 -15 5
-17 10 -10 30 6 17 5 27 -5 35 -13 11 -11 36 5 75 4 11 11 28 14 39 6 18 7 18
26 1 16 -14 23 -16 32 -7 9 9 9 15 0 24 -24 24 -13 38 28 38 33 0 40 3 40 20
0 22 31 43 53 34 8 -3 17 2 20 10 4 10 1 16 -8 16 -21 0 -19 18 3 23 16 4 16
5 0 6 -11 1 -15 6 -12 15 3 9 12 12 22 9 11 -5 14 -2 9 10 -4 11 -1 17 8 17 7
0 16 4 19 9 7 11 -19 63 -30 61 -5 -1 -11 6 -14 15 -4 11 -20 19 -44 21 -48 4
-49 6 -50 49 -1 31 -4 35 -27 35 -20 0 -30 8 -42 33 -24 50 -24 64 2 86 l23
20 -22 31 c-12 17 -21 32 -19 33 36 19 44 28 47 51 3 26 17 35 24 15 4 -12 94
-30 103 -21 3 3 0 11 -6 19 -14 16 -1 17 35 3 14 -5 26 -16 26 -24 0 -8 5 -18
12 -22 7 -5 9 -2 5 9 -3 8 1 21 8 27 8 7 14 15 13 18 -3 25 3 42 14 36 8 -5 9
-2 5 9 -4 10 -1 17 5 17 7 0 -1 13 -16 29 -20 21 -24 30 -14 34 16 7 -26 47
-49 47 -12 0 -14 8 -9 36 4 19 10 42 13 50 3 8 -1 14 -10 14 -22 0 -30 33 -16
64 9 20 17 25 32 20 11 -3 17 -2 14 3 -3 5 8 15 25 22 25 11 35 12 51 2 14 -9
22 -10 31 -1 8 8 7 13 -4 20 -13 9 -13 10 0 10 18 0 44 37 31 44 -4 3 -8 18
-9 33 -1 15 -5 40 -9 56 -8 26 -9 26 -21 7z m-1364 -1305 c-3 -3 -9 2 -12 12
-6 14 -5 15 5 6 7 -7 10 -15 7 -18z m-106 -412 c-6 -2 -9 -10 -5 -16 13 -21
11 -36 -3 -30 -24 9 -16 54 10 52 6 0 5 -3 -2 -6z m498 -97 c0 -2 3 -12 6 -21
6 -13 1 -16 -21 -13 -37 4 -45 38 -9 38 13 0 24 -2 24 -4z m-25 -94 c0 -4 9
-20 20 -36 15 -22 16 -31 7 -34 -10 -3 -10 -7 -1 -18 7 -8 9 -17 5 -21 -9 -9
-27 10 -30 33 -3 22 -26 31 -26 10 0 -13 -4 -14 -26 -4 l-26 12 25 22 c14 12
23 25 19 29 -3 3 0 10 8 15 14 9 25 5 25 -8z m2705 -846 c0 -3 -4 -8 -10 -11
-5 -3 -10 -1 -10 4 0 6 5 11 10 11 6 0 10 -2 10 -4z m-244 -2315 c-4 -6 -14
-7 -23 -4 -15 6 -14 7 3 13 22 9 29 6 20 -9z m14 -226 c0 -15 -6 -25 -14 -25
-15 0 -16 16 -3 38 12 18 17 15 17 -13z m291 -128 c-13 -13 -26 -3 -16 12 3 6
11 8 17 5 6 -4 6 -10 -1 -17z m229 -1 c0 -8 -7 -17 -16 -20 -28 -11 -34 -6
-22 14 15 23 38 27 38 6z"/>
<path d="M7220 11174 c0 -15 3 -24 7 -21 3 4 12 2 19 -4 8 -7 14 -7 19 1 8 13
-1 27 -26 40 -17 9 -19 7 -19 -16z"/>
<path d="M12050 10134 c0 -9 5 -14 12 -12 18 6 21 28 4 28 -9 0 -16 -7 -16
-16z"/>
<path d="M12015 10109 c-11 -16 -1 -19 13 -3 7 8 8 14 3 14 -5 0 -13 -5 -16
-11z"/>
<path d="M7882 9998 c2 -6 10 -14 16 -16 7 -2 10 2 6 12 -7 18 -28 22 -22 4z"/>
<path d="M13280 9920 c0 -5 5 -10 10 -10 6 0 10 5 10 10 0 6 -4 10 -10 10 -5
0 -10 -4 -10 -10z"/>
<path d="M13275 9850 c-3 -5 -1 -10 4 -10 6 0 11 5 11 10 0 6 -2 10 -4 10 -3
0 -8 -4 -11 -10z"/>
<path d="M13240 9829 c0 -5 5 -7 10 -4 6 3 10 8 10 11 0 2 -4 4 -10 4 -5 0
-10 -5 -10 -11z"/>
<path d="M13056 9701 c-4 -7 -5 -15 -2 -18 9 -9 19 4 14 18 -4 11 -6 11 -12 0z"/>
<path d="M7388 8487 c-7 -13 -5 -25 6 -41 13 -21 13 -25 -2 -39 -14 -15 -13
-18 21 -32 20 -8 43 -24 49 -35 7 -11 19 -20 27 -20 26 0 -9 -29 -50 -41 -21
-7 -36 -16 -32 -22 11 -18 12 -61 2 -73 -13 -16 0 -44 21 -44 34 0 62 -63 37
-83 -23 -19 -29 -73 -10 -93 9 -9 24 -30 34 -48 9 -17 24 -31 33 -31 9 0 20
-6 25 -13 4 -7 15 -10 24 -6 10 3 17 1 17 -5 0 -6 5 -11 10 -11 6 0 10 9 10
20 0 23 5 24 49 9 28 -10 34 -9 46 7 13 18 14 18 34 0 12 -11 21 -25 21 -33 0
-16 22 -17 37 -2 7 7 19 3 41 -15 32 -27 48 -34 36 -14 -5 7 -3 8 5 3 8 -4 21
1 32 14 11 12 26 21 34 21 8 0 15 4 15 10 0 5 8 6 18 3 14 -5 15 -4 6 8 -7 8
-12 33 -12 57 -1 38 1 42 19 37 13 -5 19 -2 19 10 0 9 5 13 10 10 13 -8 42 14
34 26 -3 5 4 22 16 39 11 16 27 50 35 76 12 41 12 52 -1 83 -8 19 -22 43 -31
53 -13 14 -14 21 -5 30 9 9 16 7 27 -8 15 -18 16 -17 9 16 -9 50 -14 54 -35
31 -11 -12 -29 -21 -40 -21 -26 0 -59 17 -59 31 0 11 -49 59 -59 59 -4 0 -12
-5 -18 -11 -8 -8 -17 -7 -34 5 -13 9 -30 16 -38 16 -8 0 -25 10 -38 22 -22 20
-26 21 -61 9 -20 -7 -46 -21 -57 -31 -25 -22 -52 -20 -98 9 -25 15 -46 21 -62
17 -26 -7 -55 15 -55 42 0 24 -49 23 -62 -1z"/>
<path d="M7910 7780 c0 -5 5 -10 11 -10 5 0 7 5 4 10 -3 6 -8 10 -11 10 -2 0
-4 -4 -4 -10z"/>
<path d="M10945 7769 c-4 -6 -1 -15 6 -20 21 -13 31 -11 27 8 -4 20 -24 28
-33 12z"/>
<path d="M7950 7703 c0 -21 3 -24 12 -15 17 17 19 42 2 42 -9 0 -14 -10 -14
-27z"/>
<path d="M10986 7706 c6 -23 2 -32 -17 -47 -20 -15 -23 -26 -24 -83 -1 -58 1
-66 17 -66 29 0 60 19 52 32 -4 6 -8 47 -10 91 -1 44 -7 84 -14 91 -9 8 -10 4
-4 -18z"/>
<path d="M11072 7324 c4 -38 35 -55 53 -30 11 14 12 23 4 33 -6 7 -15 11 -19
8 -5 -3 -11 -1 -15 5 -12 20 -26 10 -23 -16z"/>
<path d="M9601 6594 c0 -11 3 -14 6 -6 3 7 2 16 -1 19 -3 4 -6 -2 -5 -13z"/>
<path d="M9577 6544 c-15 -20 -15 -24 -3 -24 8 0 18 9 21 21 10 29 3 31 -18 3z"/>
</g>
</svg>
