<svg version="1" xmlns="http://www.w3.org/2000/svg" width="850.282" height="571.808" viewBox="0 0 637.711 428.856"><g fill="#222"><path d="M529.238.788c0 .9-1.2 1-4.4.6-2.5-.4-4.6-.3-5 .3-.3.5-1.7.7-3.1.4-1.5-.2-2.5 0-2.5.7 0 .6-.9 1.1-2 1.1-2.3 0-11.5 4.4-12.5 6-.3.5-2.8 1.2-5.5 1.6-4.4.6-4.8.9-4 2.5.6 1 1 3.3 1 5.2 0 1.9.7 4 1.5 4.7 2.1 1.8 1.9 2.8-.7 3.2-2 .3-2.3.9-2.3 4.5 0 3.8-.2 4.3-2.2 4.3-1.3 0-2.3.5-2.3 1.1 0 .5-.4.8-.9.5-1.6-1-2 4.8-.6 8.1.9 2 1 3.3.4 3.3s-.7.9-.4 2.1c.6 1.7.3 2-1.7 1.9-4.1-.4-4.1-.1-.6 3.9 4.7 5.1 5.7 11.1 3 17.3-3.5 7.7-3.5 7.9 0 11 1.8 1.6 3.8 2.6 4.5 2.3 1.6-.6 3.5 3.7 2.1 4.6-.7.4-.6 1.4.1 2.7 1.1 2.1-.2 4.2-1.4 2.2-.3-.5-1.5-1-2.5-1s-2.8-1.5-4-3.5c-1.2-1.9-3-4-4.1-4.5-1.6-.9-1.9-.7-1.9.9 0 3.3-7.8 4.2-11.2 1.3-.9-.8-2.1-1.1-2.7-.7-.6.3-2.7-.1-4.6-1.1-1.9-.9-4.4-1.4-5.4-1.1-2.9.7-4.4-.8-4.3-4.2 0-2.1-.4-3.1-1.4-3.1-1.6 0-1.9 2.6-.4 3.5.6.3 1 1.9 1 3.5 0 3-2.4 3.6-4 1-.7-1.1-1.2-1.1-2.3-.2-1.1 1-1.7.9-2.7-.3-.7-.8-1.6-1.5-2-1.5-.8 0-2.4 5.2-1.8 5.8.2.2-.5.8-1.4 1.3-1.1.6-1.8 2.2-1.8 3.7 0 1.6-.6 3.4-1.2 4-1 1-1 1.5-.1 2 2 1.2-.2 3.6-2.7 2.9-1.7-.4-2-.3-1.1.6.6.6 1.1 1.8 1.1 2.7 0 2.2 4.1 4 9 4 3.1 0 4 .4 4.6 2.2.3 1.3 1.5 3.1 2.6 4.2 1.3 1.2 1.8 2.7 1.5 4.3-.3 1.7.4 3.2 2.2 5.1 2.4 2.4 2.6 2.9 1.4 5.2-.7 1.4-1.1 3.5-.8 4.7.6 2.4-1.3 7.3-2.8 7.3-.5 0-.7.9-.4 2 .3 1.1-.1 2.7-.9 3.4-.8.9-1.4 3.5-1.4 6.4 0 5.1-.9 6.2-5 6.2-1 0-2.6 1-3.4 2.1-1.1 1.7-2.2 2-4.3 1.6-1.6-.3-3.6 0-4.7.8-1.1.9-2.6 1.1-4 .6-1.1-.5-3.9-.8-6-.7-3.2.1-4.7-.5-7.4-3.2-3.7-3.4-6.2-4.1-6.2-1.8 0 1.7-.5 2.1-4.3 3-1.9.4-2.6.3-2.2-.4.3-.5.1-1-.4-1-.6 0-1.1 1.3-1.1 2.8 0 2.6-.2 2.8-3.5 2.4-3.7-.4-4-.8-2.5-3.2.6-1 .2-1.9-1.6-3.1-2.4-1.5-2.9-1.5-8 .3-4.9 1.8-5.7 1.8-7.2.5-.9-.8-3.5-2-5.7-2.7-2.2-.7-4.8-2.4-5.8-3.7-1.3-1.6-2.9-2.3-5.2-2.3-3.6 0-9.5-4.1-9.5-6.6 0-.8-1.2-1.9-2.6-2.4-2.1-.8-2.5-1.5-2-3.3.4-1.7-.1-2.7-2.1-3.9-2.4-1.4-2.7-1.4-4.5.4-1.5 1.5-2.2 1.7-3.4.7-1.2-1-1.3-.9-.8.5.5 1.3-.1 1.6-3 1.6-4 0-4.6.9-1.6 2.7 1.6 1.1 2.1 1 2.9-.4.9-1.7 1.1-1.6 2.9 0 1.4 1.3 1.9 2.7 1.5 4.5-.2 1.5-.5 3.7-.5 4.9 0 1.3-.6 2.3-1.4 2.3-.8 0-1.4.9-1.4 2 0 1.4-.7 2-2.2 2-2.2 0-2.2 0 .3 2.7 2.8 3.1 5.1 11.7 4.2 15.3-.5 2-.3 2.2 1.5 1.8 1.2-.4 2.6 0 3.3.8 1.6 2 3.7 1.7 4.4-.5.3-1 1.4-2.6 2.5-3.6 1.6-1.5 2.2-1.5 3.5-.5.8.7 2.5 1 3.7.7 1.1-.3 3.5 0 5.2.7 1.8.7 4.6 1.1 6.4.8 2.4-.3 3.2-.1 3.2 1.1 0 2.1 3.2 2.6 4.8.7 1-1.1 1.5-1.2 1.8-.3.3.7 1.7 1.3 3 1.3 1.5 0 2.4.6 2.4 1.6 0 1.1.6 1.3 1.9.9 1.6-.5 2 0 2.3 2.2.2 1.9 1.6 3.6 4.6 5.6 3.3 2.2 4 3.2 3.2 4.2-.8.9-.8 1.5 0 2 1.5.9 1.3 5.8-.2 5.2-.9-.3-1.3.6-1.3 2.7 0 3.8 2.4 9.8 3.6 9 2.2-1.3 2.9.9 1 2.8-1.2 1-2.6 1.6-3.3 1.2-.8-.5-.9 0-.4 1.7.4 1.3 1.2 5.3 1.7 8.9 1.3 7.6 3.4 11.7 6.4 12.4 1.6.4 2.6 1.9 3.5 5.1.7 2.5 2.4 5.4 3.7 6.5 1.3 1 2.3 2.2 2.2 2.7-.4 2 .3 2.8 2.4 3 1.2.1 3.8.4 5.7.6 1.9.3 4 .1 4.5-.4.7-.5 2.3.4 4 2.3 2.8 3 3 3 3.3 1 .2-1.3.8-1.9 1.8-1.5.8.3 2.1 0 2.9-.7.8-.7 2.1-1 2.9-.7.9.4 2.7-.8 4.5-2.9 3.1-3.5 3.9-5 2.1-3.9-.5.3-2-1-3.1-3-1.5-2.5-2.4-3.3-2.9-2.4-.5.7-1.6.9-2.6.5-1.7-.7-1.7-.9-.4-1.9 1.1-.9 1.4-2.8 1.3-7.2-.3-5.7-.2-5.9 1.3-3.8 2.1 3 3.4 2.9 3.4-.1 0-1.3.5-2.6 1.1-2.8.5-.2-.1-1.7-1.5-3.3-1.4-1.7-2.6-3.9-2.6-5 0-1.6.8-1.1 4 2.5l4 4.5v-3.6c0-3.3.3-3.7 3.1-4.3 1.7-.3 4.1-.6 5.3-.6 4.3 0 7.6-2.3 7.6-5.3 0-4.1 1.5-6.3 5.2-7.6 2.4-.9 2.9-1.4 1.9-2-1-.7-1-1-.1-1.6.8-.5.9-1 .2-1.4-.6-.3-.8-2.6-.5-5.3.4-3.7.9-4.5 2.2-4.1 1.3.4 1.3.3.2-.5-.9-.6-1.2-2.1-.9-4.2.4-2.6 0-3.5-2.3-5.2-1.7-1.3-3.1-3.6-3.8-6.3-.6-2.5-2.2-5.2-3.6-6.3-1.4-1.1-2.5-2.2-2.5-2.4 0-.3 1.8-1.1 3.9-1.8 2.2-.7 4.2-1.9 4.5-2.6.3-.7 1.4-1.7 2.4-2.3 1.7-.9 2.4-.5 4.6 3 2.2 3.2 2.5 4.3 1.5 5.5-.6.7-1.6 1.1-2.2.7-.6-.3-.7-.1-.3.6.4.6 1.1.9 1.4.7.4-.2.7.7.6 2.2 0 2 1.2 3.6 5.9 7.4 3.3 2.6 6.8 4.8 7.7 4.8.9 0 2 .4 2.5.9.6.6 2.9.7 5.2.4 3.8-.5 4.1-.7 3.2-2.5-1.6-3-.4-3.3 4.1-.9 2.2 1.1 4.7 2.1 5.5 2.1.8 0 1.5.4 1.5.8s1.5.6 3.4.4c2.4-.3 3.6-1 3.9-2.4.3-1.1 1-1.7 1.6-1.3.6.3 1.1.1 1.1-.4 0-.6.7-1.1 1.5-1.1 1.3 0 1.4-.4.4-2.1-.6-1.2-.9-3.7-.6-5.5.3-1.9.2-3.4-.4-3.4-.5 0-.9-.6-.9-1.4 0-2.1-3.1-2.8-5-1.1-3.2 2.9-8.6 1.8-8.2-1.6.1-.4-1.2-1.2-2.7-1.9-2-.8-2.7-1.7-2.4-3 .3-1-.4-2.3-1.6-3.2-1.8-1.2-1.9-1.7-.8-3.2 1.2-1.7 1.5-1.7 4.9.2 3.2 1.8 3.8 1.9 4.9.6.9-1.1.9-1.8.1-2.6-1.9-1.9-1.4-2.9 1.3-2.2 2 .5 2.5.2 3.1-2 .4-1.8.1-3.3-1-4.5-2-2.2-2-3.1-.2-3.1.8 0 1.6-.6 1.9-1.3.5-1.6 5.8 1.1 6.4 3.4.3.9 1.8 2.6 3.5 3.9 2.7 2 3.1 2 4.7.6 2.3-2.1 4.8-2 5.4.1.4 1.7.5 1.7.6 0 .1-1.3 1-1.7 3.9-1.7 4.5 0 7.7-2.6 6.2-5-1.6-2.5-1.1-3.2 1.9-2.5 3.4.7 7.1-1.2 7.1-3.7 0-1 1.3-2.7 2.9-3.9 1.7-1.2 3.5-3.4 4.1-4.9 1.5-3.7 6.4-6.4 9-5 2.9 1.5 8.4-2.5 7-5.1-2-3.7-1.2-5.6 2.8-6.5 2-.4 4.3-.8 5-.7 1 .1 1-.4-.1-2.1-.9-1.2-2.3-2-3.5-1.8-2.5.4-3.8-1.4-1.7-2.2 1.3-.4 1.4-1.6.9-5.6l-.7-5.1 4.2-1.6c2.2-.9 4.1-2.2 4.1-3 0-.7.9-1.3 2-1.3 1 0 2.5-1 3.1-2.3.7-1.2 1.8-2.6 2.6-3 1-.6 1.3-1.7.9-3.3-.6-2.3-.5-2.4 5.5-2.2 5.8.2 6.4 0 8.8-3 2-2.3 3-2.8 4.1-2.2 3.3 2.1 6.4 1 9.7-3.5 1.9-2.6 3-5.1 2.7-6.2-.3-1 0-3.2.7-4.8 2-4.8 2-8.5-.1-8.5-.9 0-2.2-1.1-2.8-2.5-1.9-4.2-1.5-5.5 1.7-5.5 3.3 0 4.7-3 2.8-6.1-.9-1.4-.8-2.2.5-3.6.8-1 1.3-2.4 1.1-3.1-.3-.8.2-3.3 1.1-5.7 1.4-3.4 2.1-4.2 3.6-3.8 1.1.3 2 0 2-.6s.9-2 2-3.1c2.5-2.5 1.7-4.2-1.8-3.9-3.3.2-6.4-1-5.6-2.2.3-.5 0-.9-.7-.9s-.9-1-.7-2.4c.4-1.8 0-2.6-1.4-2.9-1-.3-1.6-.1-1.3.3.3.5.3 2-.1 3.4-.5 2-1.5 2.7-4.6 3.3-2.5.5-4.5 1.6-5.2 2.8-1.7 3.1-2.9 3.5-4.7 1.9-1.6-1.4-1.8-1.3-2.4.6-.7 2.2-3.4 2.4-7.7.5-1.4-.6-1.8-.2-1.8 1.6 0 3.3-1 4.4-4.2 4.6-2.1.1-2.8-.4-3.4-2.5-1.3-4.7-1.2-6.2.7-7.3 1.4-.7 1.6-1.5 1-3.2-.4-1.2-.6-2.7-.4-3.3.6-1.6-2.7-2.6-4.3-1.3-.9.7-1.9.7-3.5-.1-1.4-.8-1.9-.8-1.5-.1.4.7-.1 1.1-1.3 1.1s-2.1-.5-2.1-1c0-1.6-2.7-1.2-3.4.5-.4 1.2-1.1 1.3-2.3.7-2.4-1.2-5.1-.9-8.8 1-3.3 1.7-6.5.9-6.5-1.7 0-1.7-6.1-5.5-8.9-5.5-1.1 0-2.1.6-2.1 1.3 0 .7-.8 1.3-1.7 1.4-1 .1-3.3.5-5.2.9-2.6.5-3.6.3-4.3-1-.5-.9-1.7-1.6-2.6-1.6-1 0-2.3-.5-3-1.2-.9-.9-1.2-.9-1.2.1zm103.7 16.3c-.3.8-.6.5-.6-.6-.1-1.1.2-1.7.5-1.3.3.3.4 1.2.1 1.9zm-102.7 95.9c1.1.7.9.8-1 .5-1.4-.3-2.8-.5-3.2-.5-.4-.1-1.3-.8-2.1-1.6-1.3-1.3-1.3-1.9.1-5l1.7-3.6 1.5 4.6c.8 2.5 2.2 5 3 5.6zm-2.9 3.8c0 .9.2 2.3.4 3.2.1.8-.6 2.1-1.6 2.7-1.6 1-2.1.8-3.5-1.3-.9-1.4-2.5-2.5-3.6-2.5s-1.8-.5-1.5-1.3c.2-.6 1.9-1.2 3.8-1.2 2.1 0 3.3-.5 3.2-1.2-.2-.7.4-1 1.2-.7.8.4 1.5 1.4 1.6 2.3zm5.4 13.6c-1.1.8-2.4 1.3-3 1.1-.5-.1-1.4.3-2 1-.8 1-1.6 1-4.4-.2-3.7-1.5-3.6-2.5.3-2.9 4.4-.5 6.6-1.6 6.6-3.3 0-1.4.4-1.3 2.2.6 2.2 2.1 2.2 2.2.3 3.7zm-57.5 19.4c0 .8-.6 1.1-1.6.7-.9-.3-2.4-.6-3.5-.6-1 0-1.9-.4-1.9-.9 0-.6 1.6-.9 3.5-.8 2.2.1 3.5.7 3.5 1.6zm0 6.1c0 .5-.2 1-.4 1-.3 0-.8-.5-1.1-1-.3-.6-.1-1 .4-1 .6 0 1.1.4 1.1 1zm-18.4 9.5c1.4.7 2.1 1.6 1.5 1.9-.5.3-2.2-.5-3.8-2-1.5-1.4-2.2-2.3-1.5-1.9.6.3 2.4 1.2 3.8 2zm-77.2 3c.3.8.1 1.5-.3 1.5-.5 0-1.1-.7-1.5-1.5-.3-.8-.1-1.5.3-1.5.5 0 1.1.7 1.5 1.5zM185.238 40.088c0 .7-.3 2.3-.6 3.5-.8 2.9.7 3 2.4.3 1-1.7 1-2.3-.3-3.6-1.1-1.2-1.5-1.2-1.5-.2zM179.838 43.388c.4.8 1.1 1.5 1.6 1.5.6 0 .5-.6-.2-1.5-.7-.8-1.4-1.5-1.6-1.5-.2 0-.1.7.2 1.5zM188.238 44.688c0 1.2 3.4 4.2 4.8 4.2.7 0 1.2.4 1.2 1 0 1.9 1.8 1 2.3-1.1.5-1.7.2-2-1.4-1.6-1.3.3-2.4-.2-3.2-1.4-1.2-1.9-3.7-2.6-3.7-1.1zM197.838 49.788c-.3.5.1 1.1.9 1.5 1.5.6 2.9-.7 1.8-1.8-.9-.9-2.1-.8-2.7.3zM199.238 54.088c.1 3.4 1.4 5.7 3.7 6.3 1.9.4 2.3.9 1.5 1.7-.9.9-1.8.8-3.8-.1-3.1-1.4-4.2-.8-2.5 1.3.9 1.1 1 2 .2 3.3-.9 1.6-1.1 1.4-1.7-1.5-.6-3-3.2-5.5-5.1-5-.4.1-1.8-.4-3.1-1.1-2.2-1.2-2.3-1.1-1.2.8.6 1.2.8 2.1.5 2.1-.3 0 0 .9.8 2 1.6 2.3 1.1 8-.8 8-.7 0-2.4 1-3.9 2.1-3.3 2.6-3.3 7.2.1 10.7 1.8 1.9 2 2.8 1.2 4.9-.7 1.9-.6 2.8.5 3.7 1 .7 1.3 2.1.9 3.8-.6 3.3-3.6 3.7-8.4 1.3l-3-1.6.7 2.8c.3 1.5 1.5 3.6 2.6 4.5 1.1 1 1.5 1.8.9 1.8s-.8.7-.5 1.5c.4.9-.1 1.7-1.2 2.1-1.1.3-2.7 1-3.7 1.5-.9.5-2.8.7-4.2.3-4-1-7.2.3-9.4 4-1.9 3-2.5 3.3-6.2 3-2.2-.2-4.4-.6-5-.9-1.6-1-3.1 4.8-2.4 9.2.4 2.9.2 4.3-.5 4.3-.8 0-.8.6 0 2 .6 1.1 1.5 1.8 2 1.5.6-.3 1.5.5 2.2 1.9 1.2 2.7 3.3 3.5 4 1.5.5-1.4 4.8.6 4.8 2.1 0 .6.7 1 1.6 1 1.2 0 1.5.6 1 2.2-.3 1.3-.6 3.1-.6 4 0 1-.6 1.8-1.4 1.8-1.2 0-4.1 5.4-3.8 7.1.1.4.3 2.2.5 4.1.2 1.8.7 4 1.1 4.7.5.8.3 1.6-.5 2.2-1.1.6-1 1.2.5 2.8 2.1 2.3 2.8 8.6 1.4 11.6-1.7 3.2-4.9 6.4-6.2 6-.6-.3-3-.7-5.3-.9-3.9-.4-4.2-.3-4 1.7.1 1.6-.4 2.3-2.1 2.5-1.8.3-2.3.9-1.9 2.2.3 1.1-.1 2.4-.9 3.1-.8.6-1.4 1.8-1.4 2.6 0 2.7-6.7 8-9.8 7.8-1.6-.1-2.9.3-2.9.9-.5 6.2-1.9 10.2-3.9 11-1.9.7-1.8 4.5.1 5.3 2.1.7 4.8 6 3.4 6.5-1.8.6 4.4 7.7 6.9 7.8 2.3 0 2.3 0 .5 2.5-1 1.3-2.3 2.5-3 2.5-1.7 0-3.6 3.8-2.9 5.7.7 1.7-1 5.3-3.3 6.9-1.2 1-1.3 1.8-.4 4.7.9 2.9.8 3.7-.3 4.1-.8.3-1.4 1.3-1.4 2.2 0 1-.5 1.4-1.5 1-1-.4-1.5.1-1.5 1.5 0 1.2-.8 2.3-1.9 2.6-1.6.4-1.8.9-1.1 2.8.7 1.8.5 2.5-.7 2.9-1.9.8-4.3-1.1-4.3-3.4 0-2-3.1-5-5.2-5-.9 0-1.8-1.2-2.2-3-.5-2.7-.9-3-3.1-2.4-2 .5-2.5.2-2.5-1.3 0-3.4 1.8-4.3 5.6-2.7 3.1 1.3 3.4 1.3 3.4-.3.1-1.6.2-1.6 1-.2.5.9 2.5 1.6 4.8 1.7 3.8.3 3.9.2 3.4-2.8-.3-1.8 0-3 .7-3 2.5 0 5-4 5.6-9.2.7-6-.4-10-4-13.8-1.3-1.4-2.5-3.6-2.7-4.9-.2-1.8-1.2-2.7-3.3-3.3-1.6-.4-3.5-1.5-4.2-2.4-1-1.4-1.3-1.4-2.5.5-.7 1.2-1.8 2.1-2.5 2.1s-1.3.7-1.3 1.6c0 1.7-6.6 8.1-9.3 9-1 .3-1.6 1.1-1.4 1.7.2.7-.4 1.6-1.3 2.2-4.7 2.7-8.9 7.5-9.6 11-.7 3.9-4.3 7.2-10.4 9.5-5.1 1.9-5.6 2.8-2.7 4.1 3.4 1.5 2.4 3.2-1.4 2.4-2.1-.5-3.1-.2-3.5.9-.3.9-1 1.4-1.4 1.1-1-.6-2.2 2.4-1.4 3.6.3.5 0 .9-.6.9-.7 0-1 .7-.6 1.5.3.8.1 1.5-.4 1.5-.6 0-1 .9-1 2 0 1.2-.7 2-1.6 2-.9 0-2.5 1-3.6 2.2-1.1 1.3-1.7 1.8-1.4 1.1.4-.6.2-1.5-.4-1.8-.8-.5-.8-1.1 0-2 .8-1 .8-1.5-.1-2.1-.7-.4-1.5-.2-1.7.4-.3.9-.9.9-2.3.2-2-1.1-2.4-.4-1.3 2.4.3.8 1.3 1.2 2.2.9 1.1-.3 1.3-.2.6.4-.6.4-1.6 1.8-2.3 3-.9 1.8-.8 2.4.8 3.5 1.1.8 2.9 4.3 4.1 7.8 1.2 3.6 2.7 7.4 3.3 8.5.6 1.1 1.1 3.6 1.1 5.5.1 2.9.5 3.6 2.4 3.8 1.9.3 2.3.9 2 3.5-.2 1.8-1 4-1.9 5-2.1 2.3-3 7.6-1.7 10 .6 1.2.5 2.3-.3 3.3-1.2 1.5-1 1.6 3.6 1.8 2.6.1 3.9 4.2 3.1 9.8-.6 4.2-1 4.6-4.1 5.2-4 .8-5.1 2.1-3.6 4 .9 1.1.6 1.5-1.4 2-1.4.4-2.5 1.3-2.5 2.2 0 .8-.4 1.3-1 .9-.5-.3-1.8 0-2.9.7-1.5.9-2.5.9-4.7 0-3.3-1.6-4.1-.9-2.6 2.1 2 4.1 2.4 6.8 1.1 8.3-.9 1.1-.9 2.1-.1 3.8.8 1.8.7 2.9-.4 4.5-1 1.3-1.1 2.1-.4 2.1.6 0 .9.4.5.9-.3.6.5 1.5 1.7 2.2 1.3.7 3.5 2.2 5 3.5 2.9 2.3 6.5 2.3 7.5-.2.3-.9 1.1-1.1 2.1-.5 2.2 1.1 4.3.4 6.3-2.1 1.1-1.4 2.9-2 6.2-2.1 2.6-.1 4.7-.4 4.7-.7 0-.8 5.8-.6 6.6.3 1.1 1.1 8.2.9 8.9-.3.3-.6 1.6-1 2.8-1 1.7 0 2.3.6 2.5 2.7.1 1.6.7 2.9 1.2 3.1.6.2 1 1 1 1.8 0 1.1.5 1.2 1.8.5 2.7-1.4 5.8 1.7 6.4 6.7.4 2.3.2 4.2-.3 4.2s-.9.5-.9 1.1c0 .5.5.7 1 .4.6-.3 1-.1 1 .4 0 .6-1 1.1-2.2 1.1-2 0-1.8.4 1.7 3.4 3.7 3.1 3.9 3.6 2.7 5.7-1.7 3.2-.3 10.3 2.1 10.7 1 .2 1.7-.3 1.7-1.2 0-1.5.2-1.5 2.5 0 1.4.9 2.5 2.1 2.5 2.7 0 1.5 3.2 3.6 5.8 3.7 1.3 0 2.2-.6 2.2-1.5 0-1 1-1.5 3.1-1.5 3 0 9.8-3.3 10-4.8.7-7.9 1.2-10.8 1.9-11.7.6-.7.5-1.6-.2-2.3-.8-.8-.4-1.3 1.6-1.8 1.4-.3 2.6-1.2 2.6-1.9s.9-2.4 2-3.8 2-3.7 2-5.1c0-1.9.5-2.6 1.9-2.6 2.4 0 3.9-1.9 4.7-5.9.5-2.2 1.5-3.6 3-4.2 1.3-.4 2.4-1.2 2.4-1.7 0-.4 1.3-1.5 2.9-2.5 2.9-1.7 2.9-1.8 1.6-5.9-.7-2.4-1.6-5-2-5.9-.4-1.2.1-1.8 1.7-2.3 2.8-.7 8.2-8.1 7.3-9.8-.4-.7.5 0 2 1.6l2.6 2.9-.6-3.7c-.6-2.8-.4-3.7.9-4.2.9-.3 1.6-1.2 1.6-1.9 0-2.1 6.9.8 8.9 3.8.9 1.4 2.1 2.3 2.6 1.9 1.6-1.1 1.1-4.5-.7-4.8-2.2-.3-5.6-2.3-4-2.4 1 0 1-.5-.2-2.2-1.1-1.6-1.2-2.6-.4-4.1.8-1.6.7-2.3-.6-3.2-.9-.7-1.6-2.1-1.6-3.2 0-2.1-2.4-3.3-6.7-3.3-2.7 0-3-1.2-.8-3 1.7-1.4 2-5.6.4-6.5-.6-.4-.8-1.4-.4-2.2.3-.9-.2-2.7-1-4-1.1-1.6-1.3-2.9-.7-3.6 2.2-2.9 1.9-5.7-1-10.3-1.6-2.6-2.7-5.2-2.4-5.9.2-.7-.2-2.1-.9-3.2-2-2.6-1.8-3.3 1-3.3 1.4 0 2.5-.5 2.5-1.2 0-.6-.3-.8-.7-.5-.9.9-4.3-4.3-4.3-6.6 0-.9.5-1.7 1-1.7 1.4 0 1.2-4.1-.3-5.9-2.3-2.8-4.1-11.9-2.7-13.6.7-.8 1-2.6.6-3.9-.5-2-.3-2.3 1.4-1.9 2 .5 2.4-.3 2.1-3.8-.1-.9 1.8-3.3 4.1-5.5 2.4-2.1 4.3-4.1 4.3-4.4 0-.3 1.3-.4 2.8-.2 1.6.2 3.6-.3 4.5-1 1-.8 3.6-2 6-2.8 2.3-.7 4.7-1.9 5.3-2.7 1.4-1.6 9.9-1.8 9.9-.2 0 .8.4.8 1.4 0 1.5-1.3 6.6-.5 7.7 1.2.4.5 1.6.6 2.8.2 1.7-.5 2-1 1.1-2-.6-.8-2.1-1.5-3.3-1.7-1.3-.2-2.3-1.1-2.5-2.4-.2-1.2-1.5-2.7-2.9-3.3l-2.6-1.2 3.4-3.4c2.6-2.6 3.8-3.1 5.1-2.4 1 .6 1.8.6 1.8.1 0-1.3 7.1-.6 11.3 1.1 1.9.9 4.5 1.3 5.5 1 1.1-.2 2.3 0 2.6.6.4.6.3 1.1-.2 1.1-1.7 0-2.2 4.7-.9 8.6.9 2.9 2.3 4.3 5.6 6.1 2.4 1.3 5.6 2.3 7 2.2 1.4-.1 4.1.4 5.9.9 2.2.8 3.2.7 3.2 0 0-.6.8-1.6 1.7-2.3 1.5-1.1 1.5-1.5.4-2.9-1.2-1.4-1-1.6 1.8-1.6 3.4 0 3.6-.2 2.1-3-.8-1.5-.6-2.4 1-4 1.1-1.1 1.7-2.6 1.4-3.5-.5-1.1.1-1.5 2-1.5 3.3 0 7.8-2.8 6.9-4.3-.4-.6-.7-2.9-.7-5.1-.1-2.2-.6-4.1-1.4-4.4-.7-.2-1.2 0-1.1.5.7 4.2-2.3 4.3-7 .3-1.8-1.5-3.9-2.6-4.6-2.4-1.8.7-2.9-1.5-2.7-5 .2-1.9-.6-3.8-2-5.4-1.9-2.1-2-2.4-.5-1.9 2.6 1 9.8-3.8 9-5.9-.3-.9 0-2 .7-2.4 1-.6.5-1.8-2.1-5.1-2.5-3.2-3.3-5-3-7.3.2-1.7.7-3.3 1.1-3.6.5-.3.5-1.2 0-2-1.2-1.8-1.3-3-.2-2.9 2 .3 2.1-.3.6-2.6-1.5-2.3-1.5-2.5 0-2.5 2.3 0 1.9-1.2-1.1-3.5-3-2.4-9.3-8.9-9.3-9.8 0-.1 1.6-.2 3.5-.3 2.5 0 4.8-1.2 8.4-4.2 2.7-2.3 5.9-4.2 7-4.2 2.9 0 3-6 .1-7.8-2.1-1.3-2.8-6.2-.9-6.2.6 0 .9-.6.6-1.3-.8-2.1 1.1-5.7 3.1-5.7 1.1 0 3.1.9 4.6 2.1 1.4 1.1 2.6 1.6 2.6 1 0-.6.7-1.1 1.5-1.1 1.9 0 3.8-3.6 3-6-.6-1.9-1.6-2.4-4.2-2.1-1.2.2-6.6-2.1-18.5-7.8-5.9-2.8-7-3.8-8.7-7.7-1.1-2.4-2.6-4.4-3.4-4.4-1.9 0-8-7.8-7.4-9.5.6-1.5-1.3-2.5-5.5-3.1-1.4-.2-4.4-1.9-6.5-3.9-2.7-2.5-4.7-3.5-7-3.5-3.5 0-4.1-.8-2-2.9 1-1 .9-1.5-.5-2.5-1-.7-1.5-1.6-1.2-1.9.3-.3 0-1.5-.6-2.7-.9-1.6-1.5-1.9-2.4-1.1-1 .8-1.7.7-2.6-.4-.7-.8-1.6-1.3-2-1-.9.5-6.7-2.2-7.5-3.6-.9-1.3-2.5-1.1-2.5.3zm-112.9 204.8c.5 0 .9.7.9 1.6 0 1.2-.7 1.4-3.2.9-1.8-.4-3.5-.9-3.8-1.2-.8-.7 2.5-2.3 3.8-1.8.8.3 1.8.5 2.3.5zm42.9 6.8c0 .5-.9 1.9-2 3.2-1.1 1.3-2 2.6-2 3 0 .4-.9 1-1.9 1.3-3.2.8-3.4-2.2-.3-5.3 2.6-2.7 6.2-4 6.2-2.2z"/><path d="M172.738 58.988c2.2 1.1 4.5 2.7 5.1 3.4 1.4 1.9 5.9.6 6-1.7.1-1.5 0-1.6-2.2-.2-2.2 1.5-2.5 1.4-4.9-1-1.5-1.5-3.7-2.6-5.3-2.6-2.5 0-2.4.1 1.3 2.1zM420.238 59.388c0 1.1.4 2.7.9 3.5 1.5 2.2-3.7 5.1-6.4 3.6-1.1-.6-3.1-1.2-4.5-1.3-1.3-.1-3-1-3.7-1.9-1.3-1.8-1.2-2-2.7 3-.3.8.5 1.6 1.7 2 2.2.6 2.1.6-.7 3.1-2 1.7-3.3 2.2-4.5 1.6-.9-.5-2.2-.6-2.9-.4-.7.3-1.2.1-1.1-.4.7-4.1-1.7-4.3-5.7-.6-1.6 1.5-3.3 2.8-3.9 2.9-4.4.6-5.6 1.7-5 4.6.5 2.3.2 3.5-1.6 5.5-1.8 1.8-2.4 3.7-2.5 7.2-.1 4.8-2.2 11.1-3.7 11.1-.5 0-.7 1-.5 2.2.2 1.8 1.1 2.4 3.6 2.6 3.8.4 8.8 2.7 7.4 3.6-1.2.7-.3 5.6 1 5.6.5 0 .6.5.3 1-.4.6-.2 1.7.4 2.3.5.7 1 2.2 1.1 3.2 0 1.1.2 3.3.4 5 .1 1.6.4 4.2.4 5.7.1 1.6 1 3.6 2 4.6 2.4 2.4 2.6 10.9.2 11.7-2.6.8-3 3.8-.9 6.4 1.3 1.5 1.6 3.1 1.2 5.2-.6 3.2.9 3.9 3.6 1.6.9-.7 3.6-2.2 6.1-3.2 2.5-1.1 4.8-2.4 5.1-2.9.4-.5 1.2 0 1.8 1.1 1.2 2.4 3.8 3.6 5.4 2.6.7-.4 1.9-.8 2.7-.8.8 0 1.5-.8 1.5-1.7 0-.9.3-2 .7-2.3.4-.4.2-1.8-.3-3.2-1.1-2.9-.3-4.7 1.7-3.9.9.3 1.4-.2 1.4-1.4 0-1.4.5-1.8 1.6-1.3 1.4.5 1.6.2 1.1-1.9-.6-2.2-.3-2.7 1.7-3.2s2.7-1.6 3.6-6.4c.7-3.1 1.9-6.1 2.6-6.5.8-.5 1.2-1.2.9-1.7-.3-.5-.1-1.1.3-1.4.5-.3.4-2.1-.2-4.1-.8-2.8-1.8-3.8-3.8-4.2-3.3-.6-3.1-.1-3.3-8.1-.2-4.8.2-6.6 1.4-7.5.9-.7 1.6-2.6 1.6-4.4 0-2.6-.3-3.2-1.7-2.7-.9.2-1.9 0-2.3-.6-.5-.8-1.1-.8-2.1.1-1.2 1-1.9.8-3.7-1-1.3-1.1-3.4-2.1-4.8-2.1-1.3 0-3.1-.5-3.9-1-1.3-.9-1.3-1.1 0-2 .8-.5 1-1 .4-1s-1.7-1.1-2.4-2.5c-1-1.9-1-2.7-.1-3.9.8-1 .9-1.6.1-2.1-1.5-.9-.2-2.5 2.1-2.5 1.1 0 1.9-.7 1.9-1.6 0-1.1.6-1.4 2.1-.9 1.4.5 2.5.1 3.4-1.2.7-1 1.7-1.5 2.1-1.1.4.5 1.3-.2 2-1.5 3.4-5.7 3.8-6.9 2.8-7.5-.6-.4-1.6-1.6-2.2-2.7l-1.1-2-.1 2zM17.738 73.388c-1.3 1.6-2.2 2-2.7 1.2s-1.3-.6-2.7.7c-1.1 1-1.8 2.3-1.5 2.7.3.5-.1.9-.8.9-.7 0-2.1 1.4-3 3-1.5 2.7-1.6 3.2-.3 3.6.8.4 1.5 1 1.5 1.6 0 .5.7 1.7 1.6 2.5.9 1 1.4 2.6 1.1 4.1-.3 1.6.5 3.9 2.4 6.8 1.6 2.3 2.9 4.6 2.8 5.1-.6 3.2.4 5.5 2.6 6.3 2.7 1 2.7 2.1.5 9.1-.4 1.4-.4 3.3.2 4.3.5.9.7 2.4.4 3.2-.3.8.7 2.8 2.3 4.5 1.8 1.9 3.1 2.5 3.3 1.8.3-.8 1.1-1 2.2-.6 1.8.7 1.8.8.1 2.7-1.7 1.9-1.7 1.9.9.7s4.3-3.7 2.6-3.7c-.5 0-.7-.7-.3-1.7.5-1.3.2-1.5-1.5-1.1-2 .6-6.2-2.2-6.2-4.1 0-1.3 2.5-2 4.9-1.4 1.7.4 2.1.1 2.1-1.8.1-3.4.5-7.9.7-7.9.1 0 .9 1.3 1.7 2.9 1 1.9 1.2 3.1.5 3.8-.7.7-.4 1.5 1 2.5 1.9 1.4 2.5 1.3 5.5-.1 1.8-.9 2.7-1.7 2-1.9-1.7-.4-.6-3.2 1.2-3.2.8 0 1.4-.4 1.4-1s.9-.6 2.3.1c1.7.8 4 .8 8.1 0 4.4-.8 6.6-.7 9.7.3 3.8 1.3 3.9 1.3 3.9-.8 0-2.5 1.7-4.6 3.4-4 .6.2 1.8-1.2 2.8-3.2 1.2-2.6 1.3-3.4.3-3-.7.2-2.1-.4-3.1-1.5-.9-1-1.3-1.9-.8-1.9s.2-.5-.6-1c-1.2-.8-1.3-1.2-.2-1.9 1-.6.4-1.3-2.2-2.5-2.7-1.3-3.6-2.3-3.6-4.1 0-2.8-.3-2.9-2.9-1.5-1.1.6-3 .6-5 0-3.7-1-5.2.8-4.4 5.3.5 2.3.9 2.6 3.1 2 1.8-.4 2.3-.3 1.7.7-.4.6-.8 4.1-.9 7.6-.2 5.2.1 6.4 1.4 6.4 1.1.1 1 .3-.4 1.2-1.5.8-2.1.8-2.4 0-.2-.7-1.2-1.2-2.3-1.2-1.1 0-2.2-.7-2.6-1.6-.3-.8-1.5-2-2.7-2.5-3.3-1.5-9-5.9-7.6-5.9.9 0 1.1-.9.6-3.1-.6-3.1-.6-3.1 1.7-1.6 3 2 4.2 1.1 5-3.6.5-3.5.2-4.2-3.5-7.9-2.3-2.3-3.8-3.6-3.4-3 1.1 1.8-1.9 1.5-3.4-.3-.7-.8-2.5-1.5-4-1.5-3.1 0-4.3-1.7-4.5-6.8-.4-6-6.5-8.9-10-4.7zm11 33.5c.3.5.1 1-.4 1-.6 0-1.1-.5-1.1-1 0-.6.2-1 .4-1 .3 0 .8.4 1.1 1zm8.5 3.2c0 1.6-.3 1.9-1.1 1.1-.6-.6-.8-1.6-.5-2.2 1.1-1.7 1.6-1.3 1.6 1.1zM429.138 78.688c.6 1.2 1.6 2.4 2.2 2.8.8.4.8.1 0-1.4-.6-1.2-1.6-2.4-2.2-2.8-.8-.4-.8-.1 0 1.4z"/><path d="M41.238 80.188c0 1.9 1.6 3.1 2.4 1.8.3-.5-.1-1.4-.9-2.1-1.2-1-1.5-1-1.5.3zM278.938 93.288c-.4.9-1.3 1.6-2.2 1.6-2.1 0-1.9.9 1 5.2 1.4 2 2.5 4.3 2.5 5.1 0 .8 1.6 2.9 3.5 4.6 1.9 1.7 3.5 3.4 3.4 3.8-.1.5 0 1.2.1 1.8.1.5.1 2.6 0 4.6-.1 3.3.2 3.8 3.1 4.8 2.5.8 3 1.5 2.6 3.1-.4 1.6.1 2.3 1.9 3 1.3.5 2.4 1.4 2.4 2 0 .6-.4.8-1 .5-.5-.3-1 .3-1 1.4 0 1.2.3 2.1.6 2.1 1 0 4.9-2.3 5.5-3.3.4-.5 1.5-.5 2.8.2 1.6.9 2.1.9 2.1-.1 0-.7 1.2.1 2.5 1.9 2.6 3.3 4.5 3.4 7.2.7 1-.9.9-1.5-.2-2.4-2.1-1.7-1.9-2.8 1-6.6 1.9-2.4 2.4-4 1.9-5.9-.7-2.9-3.4-3.4-3.4-.6 0 4.3-4.2 3.1-10.6-3.1-3-2.9-4.7-3.8-6.1-3.4-2.2.7-9-5.5-7.9-7.2.3-.5 0-1.2-.8-1.5-.7-.3-2-2.7-2.7-5.2-1-3.4-2.1-5.1-3.9-5.9-1.4-.6-2.8-1.4-3.1-1.9-.3-.5-.9-.2-1.2.7zM10.238 110.888c-.8.5-1.1 1.2-.7 1.6.4.4.2 1.3-.5 2.1-1.5 1.8-.5 2.5 2.5 1.8 3.1-.8 4.2-3.2 2.3-5.1-1.7-1.6-1.7-1.6-3.6-.4zM.438 113.788c-.9.5-.4 1.1 1.4 2 2.6 1.1 2.6 1.1 1.4-.6-.8-1-1.5-1.9-1.5-2 0-.1-.6.2-1.3.6zM315.538 115.388c0 .8.4 1.5.9 1.5.4 0 .8-.4.8-.9 0-.6-.4-1.2-.8-1.5-.5-.3-.9.1-.9.9zM323.738 114.888c.4.6.1 1.7-.5 2.5-1 1.2-.9 1.6.5 2.1 1 .4 2.1.1 2.6-.7 1.2-2 1.2-2.3-1.2-3.7-1.2-.8-1.8-.9-1.4-.2zM69.238 121.888c0 .5.5 1 1 1 .6 0 1-.5 1-1 0-.6-.4-1-1-1-.5 0-1 .4-1 1zM435.238 122.188c0 .7.9 1.3 1.9 1.3 1.5 0 1.7-.3.9-1.3-.6-.7-1.4-1.3-1.9-1.3s-.9.6-.9 1.3zM12.238 136.788c-.6 1.2-.6 2.2-.1 2.5 1.1.7.2 4.6-1.1 4.6-1.5 0-3.9 2.8-2.9 3.4 1.9 1.2 2.2 5.8.5 7-1.5 1.1-1.5 1.7.2 7.5 1.3 4.6 2.3 6.6 4.1 7.4 1.2.5 2.3 1.9 2.3 2.9 0 2.6 1.8 5.8 4.7 8.6 1.9 1.7 2.3 2.9 1.9 5-.5 2.1 0 3.4 2.3 5.9 1.6 1.8 3.6 4.1 4.3 5 .7 1 2.2 2.3 3.3 2.9 1.1.6 2.9 3 4 5.3 1.1 2.2 2.4 4.1 2.8 4.1 1.4 0 6.7 4.4 6.7 5.6 0 .6 2.5 2.4 5.5 3.9 5.7 2.7 6.6 4.3 4 6.9-.8.8-1.5 2.3-1.5 3.2 0 1.7.1 1.7 1.6.2 1.3-1.3 2.2-1.4 4.5-.6 4.2 1.4 7.5.3 8.8-3.1.9-2.1 1.8-2.7 3.2-2.4 2.1.6 2.4 1.4 1 2.8-1.6 1.8-1.7 5-.1 6.2 1.3 1 1.3 1.3-.3 3-1.9 2.2-2.2 3.3-.7 3.3.6 0 2.3 1.1 3.8 2.5s3 2.5 3.4 2.5c1.1 0 1-1.8-.1-2.5-.5-.3 0-1.6 1.3-3 1.8-2 2.2-3.3 1.9-8-.2-5.5-.2-5.7 2.1-5.1 1.4.3 2.8 0 3.5-.8.9-1.1.7-1.5-.9-1.9-1.1-.3-2-1-2-1.6 0-1.4 4.7-1.5 5.5-.1 1.1 1.8 2.5 0 2.5-3.2 0-2.8.2-3 2.8-2.3 1.5.5 3.7.8 4.9.9 1.2.1 2.8.7 3.5 1.3 2 2.1 3.8 1.5 3.8-1.2 0-1.4.6-2.8 1.4-3.1.8-.3 1.2-1.2 1-1.9-.3-.7.3-1.6 1.5-2 1.1-.3 1.8-1.1 1.6-1.8-.2-.7-.9-3.1-1.5-5.5-.6-2.5-1.7-4.2-2.5-4.2-1.5 0-3.8-3.4-3-4.2.3-.3-.6-1.1-2-1.8-2.7-1.5-3.1-3-1.4-4.7.9-.9.8-1.8-.5-3.7-.9-1.4-1.6-3.4-1.6-4.6 0-1.1-.6-2-1.4-2-2 0-5.9-8.2-4.4-9.1.9-.6.8-1.3-.5-2.7-.9-1-1.7-2.4-1.7-3.1 0-.7-.9-2.5-2-3.9-2-2.4-3.9-3.2-8.3-3.3-1 0-2.9-.4-4.2-.9-1.4-.5-2.7-.5-3-.1-.8 1.5-4.4 0-5-2-.8-2.3-2.4-2.4-4-.3-.9 1.3-1.6 1.4-3.1.6-1.2-.6-2.6-.7-3.4-.2-.9.5-1.9.5-2.7-.2-.9-.7-2.6-.7-5.7.1-6.5 1.6-8.2 1.4-11-1.4-1.5-1.5-3.7-2.5-5.3-2.5h-2.7l3.4 3c1.9 1.6 2.9 2.9 2.3 3-.7 0-1.2.6-1 1.2.1.7-.4 1.3-1 1.2-.7-.1-2-.2-2.8-.3-.8 0-1.5-.8-1.5-1.7 0-.8-.5-1.2-1-.9-.6.4-1 .3-.9-.2.1-.4 0-1.1-.1-1.6-.1-.4-.3-1.2-.4-1.9 0-.6-.7-1.3-1.5-1.6-.8-.3-1.1 0-.7.7.4.6.3 1.1-.3 1.1-.5 0-1.3-.5-1.6-1-.4-.6-1-.8-1.5-.5-.4.3-1.4-.2-2.1-1.1-1.1-1.3-1-1.7.4-2.5 2.1-1.2 2.3-3.3.2-2.5-1 .3-1.8-.1-2.2-1.2-.7-1.8-4.3-5.1-5.5-5.2-.4 0-1.2.9-1.8 1.9z"/><path d="M312.238 139.688c0 .4 1.6 1.2 3.5 1.8 4.3 1.3 4.5 1 .5-1.1-3.3-1.7-4-1.8-4-.7zM29.738 149.888c.3.5.8 1 1.1 1 .2 0 .4-.5.4-1 0-.6-.5-1-1.1-1-.5 0-.7.4-.4 1zM517.838 187.388c.4.8 1.2 1.5 2 1.5 1.6 0 1.9 3.6.4 4.2-2.1.7.2 4.6 3.1 5 1.6.3 3 .3 3.2.2.1-.1.1-2.4-.1-4.9-.4-4.2-.7-4.8-3.8-6.1-4.3-1.8-5.5-1.8-4.8.1zM540.438 199.488c-.9 2.9-.8 3.5.3 3 .7-.2 1.6.2 1.9 1 .3.8 0 1.4-.6 1.4s-.9.2-.6.5c.3.3 1.2.3 2.1-.1 1.2-.4 1.4-1.1.7-2.9-.5-1.4-.5-2.6.2-3.3.7-.7.4-1.3-.9-2.1-1.7-.9-2.1-.6-3.1 2.5zM526.738 202.888c.4.6 1.1.8 1.6.5 1.4-.9 1.1-1.5-.7-1.5-.8 0-1.2.5-.9 1zM534.338 203.488c-.9 1.1-1 1.9-.3 2.6 1.6 1.6 4.2.2 4.2-2.2 0-2.4-1.9-2.6-3.9-.4zM466.938 210.488c-.8.8.3 3.4 1.4 3.4 1.1 0 1.2-2.7 0-3.4-.4-.3-1.1-.3-1.4 0zM114.238 216.988c0 .5-.4.7-1 .4-.5-.3-1-.2-1 .2 0 .5.9 1.4 1.9 2 1.5 1 2.2.9 3.1-.2.6-.8.9-1.9.5-2.5-.8-1.3-3.5-1.3-3.5.1zM472.838 225.088c-.3 1.3-.2 2.6.3 3.1 1.2 1.2 3.2-1.8 2.5-3.7-.9-2.3-2.1-2-2.8.6zM480.238 235.888c0 .5.5 1 1.1 1 .5 0 .7-.5.4-1-.3-.6-.8-1-1.1-1-.2 0-.4.4-.4 1zM73.238 243.488c0 1.4.3 1.4 1.5.4.8-.7 1.5-1.4 1.5-1.6 0-.2-.7-.4-1.5-.4s-1.5.7-1.5 1.6zM257.738 246.888c-.4 1.2-1.1 1.7-1.8 1.3-.7-.3-.4.3.6 1.4.9 1.1 1.7 2.5 1.7 3.1 0 1.4 3.1 3.1 4.6 2.5.6-.2 1.4.4 1.8 1.3.5 1.3.2 1.5-1.4 1.1-1.6-.4-2 0-2 2.2 0 3.5 1.7 5.1 5.2 5.1 2.4 0 2.8.4 2.8 2.8 0 2.7 1.5 5.2 3.2 5.2.4 0 .5-.6.2-1.4-.8-2.2 1.6-3 3-1.1 1.1 1.6 1.7 1.6 5.2.4 4.8-1.7 8.7-5.8 7.2-7.7-1.4-1.7-5.3-1.5-7.2.3-.8.8-1.9 1.5-2.4 1.5-.6 0-1.2.5-1.4 1.1-1.1 3.3-8-5.2-8.2-10.1-.1-2.1-.6-2.5-3.1-2.5-2.5-.1-3-.5-3-2.7-.1-2.6-2-5.8-3.6-5.8-.4 0-1.1.9-1.4 2zM65.238 246.788c0 2 1.3 4.1 2.1 3.5 1.4-.8 1.1-3.1-.6-3.8-.8-.3-1.5-.1-1.5.3zM62.838 253.588c-2.4 1.3-2.6 1.7-1.3 2.4 2.2 1.3 4.7 0 4.7-2.2 0-1-.1-1.9-.2-1.8l-3.2 1.6zM289.738 260.888c.3.5.8 1 1.1 1 .2 0 .4-.5.4-1 0-.6-.5-1-1.1-1-.5 0-.7.4-.4 1zM56.238 262.388c-.7.9-1.9 1.4-2.7 1.1-.8-.3-1.3.2-1.3 1.3 0 1-.7 2.2-1.6 2.5-1 .4-1.4 1.2-1 2.2.4.9.1 2.3-.5 3-.6.7-.8 1.8-.5 2.3.9 1.4 4.6-1.9 4.6-3.9 0-1.8 4.5-6.2 5.4-5.3.3.4.6-.6.6-2 0-3-1.1-3.5-3-1.2z"/></g></svg>