<svg version="1" xmlns="http://www.w3.org/2000/svg" width="1534.722" height="880.795" viewBox="0 0 1151.041 660.596"><g fill="#222"><path d="M565.671 1.272c-.7 1.1-2.2 4.9-3.5 8.5-1.6 4.7-3 7-5.2 8.5-1.6 1.1-3.6 3.3-4.4 5-.9 1.8-2.4 3.1-3.7 3.3-1.4.2-2.3 1-2.3 2.2 0 1.9-6.2 5-10 5-1.3 0-2.2.9-2.6 2.7-.9 3.6-3.1 5.2-7.2 5.3-1.8 0-4.1.6-5.2 1.2-1.5 1-2.6 1-5.2 0-2.7-1-3.5-1-4.3.2-6 8.1-11.9 12-12.8 8.5-.3-1.2-1.1-1.7-2-1.3-.9.3-2.8-1.1-5.1-3.8-2.1-2.4-3.3-3.3-2.7-2.1.9 1.9.8 2.4-1 3.3-1.1.7-2.7.9-3.6.6-.9-.4-1.7.1-2 1.3-.3 1.1-1.1 1.7-1.8 1.5-1.3-.6-3.1.6-8.5 5.8-1.5 1.6-3.3 2.8-3.8 2.8-1.6 0-2.4 3.7-1.7 7.1.5 2.1 1.7 3.5 3.9 4.5 3.1 1.6 6.3 6.3 4.8 7.3-.5.3-1.4 2.2-2.2 4-.8 1.9-2.7 4.9-4.2 6.7-2.9 3.2-3.5 6.2-2.3 10.1.6 1.8 0 2.6-3.4 4.9-2.4 1.5-4.1 3.5-4.1 4.6 0 1-1 2.2-2.4 2.7-1.3.5-2.6 1.6-2.9 2.5-.5 1.1-1.4 1.4-3.5 1-2.4-.5-3-.1-4.7 2.9-1 2-2.9 4-4.2 4.6-1.3.6-2.7 2.1-3.2 3.4-.5 1.2-2.2 2.8-3.7 3.6-8.1 3.7-7.7 3.3-8.1 9.1-.2 3-.4 7.5-.5 9.9 0 2.5-.7 5.1-1.4 5.9-1.1 1-1.1 1.8-.3 3.4.6 1.1.8 2.2.6 2.5-.8.7-4.7-.7-4.7-1.8 0-.5-1.4-.9-3.2-.9-2.4 0-4.1-1-7.5-4.5-2.3-2.5-5.1-4.5-6.2-4.5-1.1 0-3.3-1.1-4.9-2.5-1.9-1.6-3.7-2.3-4.9-1.9-4 1.3-6.3 2.8-6.3 4.1 0 1-.5 1.1-1.8.4-1.1-.6-2.4-.6-3.2-.1-1 .6-2.3.4-3.8-.6-1.2-.8-2.7-1.2-3.2-.9-.5.3-3.1-.1-5.8-1-4.3-1.4-5.1-1.4-7.7-.1-1.7.9-3.5 1.6-4.1 1.6-.7 0-1.5.7-1.8 1.6-.5 1.2-1.7 1.4-6.1 1-4.3-.4-5.5-.2-5.5.9 0 1.8-4.1 2.9-6.9 2-1.3-.4-2.1-.2-2.1.5s-.6 1-1.4.7c-1.5-.6-4.6 2.2-4.6 4.1 0 1.6-2.6 1.4-7.5-.3-3.5-1.3-4.1-1.2-5.8.3-1.2 1.1-3.6 1.7-6.6 1.8-12.6.1-14.1.3-13.4 2.1.5 1.2.3 1.4-.8.7-2.3-1.5-7.9-3.2-7.3-2.3.3.5-.2.9-1 .9-1.6 0-4.5-2.5-4.7-4.1-.7-5-2-7.1-4.3-6.5-1.1.3-2.8.1-3.6-.4-.8-.5-1-1-.5-1.1.6-.1 1.5-.3 2-.4.6-.2 2-.3 3.2-.4l2.2-.1-2.8-5.5c-3.9-7.4-2.9-13 1.9-10.5 1.1.6 2 .7 2 .3 0-1.7-3.1-5.3-4.6-5.3-.8 0-1.4-.5-1.4-1 0-2-3.1-1-5.5 1.7-2 2.3-2.7 2.6-4.2 1.7-1-.7-1.7-2.1-1.6-3.3.2-1.2-.1-2.1-.5-2.1-1.3 0-8.8-7.2-10.8-10.4-1.3-2.1-1.5-3.1-.6-3.4 1.7-.5 1.5-2.3-.7-5.1-1-1.3-1.6-3.2-1.4-4.2.3-1.2 0-1.9-.8-1.9-1.8 0-9.6-9.1-11.4-13.3-.7-1.8-2.3-4.1-3.4-5.1-1.2-1.1-2.1-3.1-2.1-4.7 0-3.3-4.6-7.2-5.9-5-.4.6-1.5.9-2.4.5-.9-.3-1.4-1-1.1-1.5.3-.5-.2-.9-1.2-.9-1.2 0-1.5-.6-1.1-2.2.4-1.3-.2-3.1-1.4-4.7-1.8-2.3-1.9-2.6-.5-2.9 2.7-.6 1.8-2.9-1.1-3-1.6-.1-4.1-.2-5.8-.4-2.6-.3-3 0-2.8 2 .2 1.3-.1 2.1-.7 1.7-.6-.3-1-.1-1 .4 0 .6-1.2 1.1-2.6 1.1-1.4 0-3.4.4-4.4 1-1.4.7-2 .6-2.4-.6-.4-1.1-.2-1.5.8-1.1 1.1.5 1.2 0 .3-2.4-1.4-3.5-3.2-4.2-7.6-2.9-2.8.8-3.8.6-6.2-1.3-1.5-1.2-3.1-3-3.4-3.9-.3-.9-1.4-1.9-2.3-2.1-1.6-.4-1.5-.5.1-.6 1.5-.1 1.5-.4.5-2.1-1.5-2.4-3.6-2.6-4.4-.5-.8 1.9-5.3 1.9-7.4 0-1.3-1.1-2.4-1.2-5.3-.4-3.7 1-5.7.6-5.7-1.1 0-.5-1.4-2.3-3.2-4-2.5-2.5-3.7-3.1-5.9-2.6-1.7.3-3.2 0-4-1-.6-.8-1.4-1.2-1.7-1-.3.3-1.7-.1-3.1-.9-1.4-.7-4.4-2.2-6.7-3.2s-5.2-3.3-6.5-5.1c-1.3-1.8-3-3.9-3.6-4.7-.7-.7-1.3-2-1.3-2.8 0-.8-.9-2.2-1.9-3.1-1.9-1.7-2-1.7-3.6 1.3-.8 1.7-2.2 3.1-3 3.1-1.1 0-1.4.7-.9 2.5.5 2.1.3 2.5-1.5 2.5s-2 .4-1.5 2.5c.4 1.7.1 3.2-.9 4.3-1.8 2.1-4.9 8.6-4.6 9.8.4 2.2-.2 3.4-1.6 3.4-.9 0-1.8.7-2.1 1.5-.3.8-1.4 1.7-2.5 2-1.2.4-1.9 1.6-1.9 3.1 0 1.4-.7 2.7-1.5 3-1.1.5-1.3 1-.5 1.9.7.8.4 1.7-.9 2.9-1.8 1.6-2 1.6-3.4-.5-.9-1.1-1.3-2.7-1-3.5.4-1-.2-1.1-2.9-.4-1.8.6-4.7 1-6.4 1-2.5 0-3.7.8-5.5 3.5-1.3 1.9-2.9 3.5-3.6 3.5-.7 0-1.6.7-2.1 1.7-1.2 2-5.9 1.4-12.5-1.6-2.5-1.2-5.6-2.1-6.9-2.1-3.4.1-6.8 3.5-7.5 7.5-.7 4.7-1.9 5.2-4.9 2.4-1.5-1.4-3.9-2.4-6.2-2.6-5.7-.3-7.4-.7-10.9-2.3-3.1-1.4-4.8-3.8-2.1-2.8.7.3 2.4-.5 3.8-1.8 1.6-1.6 2-2.4 1-2.4-1.1 0-1.1-.2.2-1.3 1.3-1 1.3-1.6.2-3.7-1.3-2.4-1.4-2.4-1.4-.3 0 1.3-.8 2.4-2 2.8-1.1.3-2.9 2.4-4.2 4.6-1.2 2.1-2.6 3.9-3 3.9-.5 0-.6.5-.3 1 .3.6-.1 1.3-.9 1.6-.9.3-1.6 1.4-1.6 2.3 0 1.4.2 1.4 1 .1.8-1.3 1-1.2 1 .4 0 1.3-.4 1.6-1.8 1.1-.9-.4-2.4-.8-3.2-.8-.8 0-2.4-.6-3.5-1.3-2.6-1.8-3.1-1.8-3.1.5 0 1.1 1.4 2.6 3.3 3.6 2.8 1.5 3.2 2.2 2.7 4.4-.4 1.4-1.5 3.5-2.4 4.6-1.7 1.9-1.7 2.2.6 6.9 1.3 2.6 2.2 5.8 2.1 6.9-.1 1.4.5 2.3 1.8 2.5 2.3.5 3.7 2.2 3.1 3.9-.3.6 1.3 1.8 3.4 2.7 2.1.8 4.1 1.9 4.4 2.4.3.6 3.4.7 6.9.5 5.5-.5 6.8-.2 10 1.8 2.8 1.8 3.7 3.1 3.7 5.1 0 1.6-.4 2.8-1 2.8-.5 0-1 .9-1 2 0 1.3.7 2 1.8 2 1 0 2.9 1.1 4.1 2.4 2 2.1 2.6 2.3 4.2 1.3 1.1-.7 1.9-2 1.9-2.9 0-2.4 1.7-2.3 3 .2.6 1.1 1.7 2 2.4 2 .9 0 1.3 1 1.2 2.5 0 1.4-.5 2.5-.9 2.5-.5 0-.5.5-.2 1 .7 1.1-3 .8-4.1-.3-.4-.4-2-.7-3.4-.7-1.5 0-3.3-.6-3.9-1.4-1.3-1.5-8.3-.5-8.9 1.3-.2.6-1.6.8-3.3.4-2.7-.5-2.9-.3-2.9 2.6 0 2 .5 3.1 1.4 3.1 1 0 1.4.9 1.2 2.7-.2 1.4.3 3.8 1 5.2.8 1.4 1.4 3.5 1.5 4.6 0 1.1.3 1.5.5.8.3-.7 1.2-.9 2-.6.8.3 1.4-.1 1.4-1.1 0-.9.5-1.6 1-1.6 1.5 0 4.5-3.1 5.3-5.3.5-1.4 1.6-1.8 4.4-1.6 2.8.2 3.7-.1 3.5-1.1-.2-.7 0-2.5.3-3.8.6-2.3.7-2.4 2.5-.7 1.4 1.3 1.7 2.2 1 3-.7.8-.4 1.8 1 3 1.6 1.4 1.7 2 .8 2.7-.8.4-.8.8-.2.8.6 0 1.1 1.6 1.2 3.5.1 1.9-.3 3.5-.8 3.5-.6 0-1 1.1-1 2.5 0 1.6.6 2.5 1.5 2.5s1.5.9 1.5 2.5c0 1.8.7 2.6 2.5 3.1 2.4.6 8.5 6.6 8.5 8.3 0 .9 6.8 5.4 8.3 5.5.4.1 1.3 1.2 2 2.6 1.2 2.3 1.8 2.5 7.5 2.4 3.8-.1 6.2.3 6.2.9 0 .6.6.3 1.3-.7 1.1-1.6 1.9-1.1 9 4.9 4.2 3.6 7.7 7.1 7.7 7.7 0 .7.4.7 1.4-.1 3-2.5 18.6 7.3 15.8 10.1-.8.8-.7 1.8.4 3.9.8 1.6 1.9 2.9 2.4 2.9 2 0 5 4.1 5 6.9 0 2.3.9 3.4 4.5 5.7 2.5 1.5 4.5 3.4 4.5 4.1 0 .8.9 2.6 2.1 4.2 1.7 2.3 1.9 3.6 1.3 7.9-.3 2.9-1.2 5.2-1.8 5.2-.8 0-.8.2 0 .8 1.3.8.6 7.2-.8 7.2-.5 0-.6.5-.2 1.2.4.7.9 2.3 1 3.6.2 1.3.9 2.9 1.7 3.5 1.3 1.1 3 6.4 4.1 13.3.4 2.7 0 3.5-3.1 5.7-2.4 1.7-4.1 2.3-4.8 1.7-1.2-1-1.3-.5-1.7 8.3-.2 3.1 0 5.7.3 5.7s1.3.6 2.3 1.3c1.7 1.2 1.7 1.5 0 5.6-1.4 3.5-1.5 4.7-.5 6.3.9 1.4.9 2.3.2 3.2-.6.7-1.4 3.3-1.7 5.7-.3 2.4-1.6 6.2-2.8 8.4-2 3.5-2.7 4-6.4 4.3-3.5.3-4.2.7-4.2 2.4 0 1.1-.8 2.6-1.7 3.3-1.5 1.1-1.5 1.3.4 2.3 1.9 1.1 2.1 1.9 1.8 9.4-.2 6.8-.6 8.5-2.3 9.8-1.8 1.5-1.9 1.7-.3 2.7 1.1.7 2.3.8 3.4.1 1.2-.6 3.1-.3 6.3 1.1 2.5 1.2 5.6 1.9 6.8 1.6 2.9-.7 7.1 1.6 7.1 4 0 1.8 5.6 6.6 10.1 8.5 1.2.5 2.5 2.1 2.8 3.7.6 2.2.3 3.1-1.4 4.5s-2 2.4-1.5 4.7c.8 3.6 4.1 8.1 6 8.1.7 0 1.5 1 1.9 2.2.5 1.8.8 2 1.5.9.6-.9 1.4-1 2.4-.5 1.4.8 1.7 1.3 1.7 2.9 0 .3.9.1 2.1-.5 1.6-.9 1.9-1.8 1.4-3.7-.3-1.5-.2-2.2.4-1.8.6.3 2 .1 3.2-.5 1.1-.6 2.8-.8 3.7-.4.9.4 2.4.6 3.2.5 1.6-.3 8.2 1.5 11.8 3.2 1.6.8 2.6.7 3.4-.1 1.6-1.6 3.8-1.5 5.7.2 2.3 2 11.9 2.7 12.9.9 1.4-2.5 9.8-.1 14.1 4.1 3.7 3.6 7.5 4.2 9.2 1.5.5-.9 1.5-.9 3.9 0 3.9 1.3 10-.1 12.6-3.1 1-1 3-1.8 4.6-1.8 2.1 0 2.8-.5 2.8-1.9 0-1 .7-2.4 1.5-3.1.8-.7 1.5-2.2 1.5-3.4.1-1.8.2-1.9 1-.4.9 1.4 1.5 1.5 4.3.5 1.7-.7 3.6-1.8 4-2.5.6-.9 2.5-1.2 5.4-1.1 4.4.3 6.3-.8 7.6-4.5.3-.7 1.2-.4 2.5.8 1.2 1.1 2.8 1.6 3.8 1.2 2.4-.9 9.2 1.2 11.2 3.5.9 1 2.4 1.9 3.4 1.9.9 0 2 .5 2.3 1 .8 1.3 5.7.2 7.1-1.6.7-.9 3.2-1.4 7.2-1.4 5.9 0 6.1-.1 6.7-3l.7-3 2.5 2c1.4 1.1 3.2 2 4 2 .7 0 1.8 1.2 2.3 2.6.6 1.6 1.6 2.4 2.7 2.2 1-.1 3 .6 4.4 1.5 1.5 1 3.9 1.7 5.5 1.5 1.6-.1 3.9.4 5.1 1 1.4.8 2.4.8 2.8.2.4-.6 1.3-.5 2.5.3 2.2 1.3 5.7-.2 5.3-2.2-.2-.6.3-1.1 1.1-1.1s1.7-.7 2-1.6c.3-.8 1.1-1.2 1.7-.8.7.4.9.3.6-.2-.3-.6-.2-1.6.3-2.4.5-.7.3-2.3-.3-3.7-.9-2-.6-2.8 2.1-5.6 1.7-1.7 3.8-5.2 4.8-7.7 2.2-5.7 1.9-5.4 4.3-4 1.7.9 2.1.8 2.1-.5 0-.8.8-1.5 1.8-1.5 2.9 0 3.4-1.1 1.5-3.2-1.4-1.6-1.5-2.1-.4-2.8.8-.5 1.1-1.6.7-2.6-.5-1.7-.5-1.7.6-.3 1.5 1.9 5.6 1.8 6.8-.1.7-1.1 1.1-1.1 2.3-.1 1 .8 1.7.8 2.1.2.5-.7 1.5-.7 3.3 0 3.9 1.4 5.7.5 4.2-2.2-1-2-.9-2.1.7-1.4 7.2 3 7.3 3 10.4 1.2 2.1-1.3 4.5-1.7 8-1.4 2.8.2 5.3 0 5.6-.5.3-.4 1.7-.3 3.1.3 3.3 1.2 5.3.5 5.3-1.9 0-2.2 4.2-4.4 6.6-3.5 3.6 1.4 6.6 5.3 7.9 10.3.1.3.5 1.7.9 3.3.7 2.3.4 3.1-1.8 4.8l-2.6 2.1 2.5 3c1.4 1.6 2.8 4.2 3.2 5.6.7 3.1 3.2 7.4 4.9 8.4.7.5 1 1.7.7 2.8-.4 1.5-.2 1.9 1 1.4.8-.3 1.8-.1 2.2.5.3.6.1 1.1-.5 1.1-1.7 0-.2 1.9 2.8 3.4 4.4 2.2 8.2 2.8 8.2 1.4 0-2.1 3.2-3.5 7.3-3.4 3.2.2 3.7-.1 3.7-2.2s.3-2 4.2 1.8c2.3 2.2 5 4.2 5.9 4.5.9.3 2 2 2.3 3.9.4 1.9 1.3 3.6 2.1 3.9.7.3 2.1 2.1 2.9 3.9 1.6 3.4 5.6 6.8 5.6 4.7 0-.5.5-.7 1.1-.4.6.4.8 1.2.6 1.9-.3.7 1 2.7 2.9 4.6 2.3 2.2 3.1 3.7 2.5 4.4-.7.8.2 2.6 2.9 5.6 2.2 2.5 3.9 5.3 4 6.2 0 .9.8 2.1 1.8 2.7 1.5.9 1.5 1.3.4 3.1-1.1 1.9-1.1 2.5.2 3.9.9 1 1.6 2.3 1.6 2.9 0 1.8 1.8 2.4 4 1.2 2.9-1.5 4.2-.4 2.8 2.5-.8 1.9-.7 2.7.6 4 1.8 1.9 2.1 4.1.6 5-.6.4-.8 2.1-.4 4.1.5 2.7.3 3.4-1 3.4-1 0-1.6.9-1.6 2.5 0 1.8-.9 2.9-3.2 4.1-1.8.9-3.7 2.3-4.1 3.1-.5.8-1.8 1.3-3 1.2-3-.4-7 1.9-6 3.4 1.1 1.8.3 7-1.3 8.8-1.6 1.8-.7 3.4 4.2 6.7 2.3 1.6 3.1 2.9 3.2 5.2 0 1.6.4 3.9.7 5 .5 1.4.2 2-.9 2-.9 0-1.6.5-1.6 1.1 0 1.3 4.8 7.8 7.4 10 1.6 1.3 1.7 1.8.5 4-.8 1.3-2 2.8-2.6 3.2-2.1 1.3-1.5 6.9 1.4 12.4l2.7 5.3-3.8 3.5c-2.1 1.9-4.5 3.5-5.2 3.5-.8 0-1.4.6-1.4 1.4 0 .8-1 2.2-2.1 3-1.3.9-1.9 2.1-1.6 3 .5 1.2 0 1.5-1.6 1.3-1.7-.2-2.3.4-2.5 2.6-.4 3.1-4 5.7-5.2 3.7-.4-.7-2.4-1.4-4.4-1.5-3.2-.3-3.6-.1-3.6 2 0 1.3.4 2.6.9 2.9.5.3.7 1.5.4 2.5-.3 1.3.8 3.2 3.4 6 4.1 4.2 5.4 7.8 2.3 6.1-1.3-.7-2.2-.4-3.5 1-1 1.1-2.3 2-2.9 2-.6 0-1.8.5-2.6 1-1.2.8-1.2 1.2-.2 1.8 1.4 1 7.3.8 8.9-.1.6-.4 4-.5 7.6-.2 7.5.4 13 2.9 16.7 7.5 3.9 4.8 11.1 12 13.1 13 .9.6 2.4.7 3.2.5.7-.3 2 .1 2.7 1 .7.8 1.7 1.5 2.2 1.5.5 0 1.8 1 2.7 2.1.9 1.2 3.4 2.4 5.6 2.8 2.2.3 4.2 1.4 4.9 2.5.6 1.1 1.4 2.5 1.9 3 4 5.6 5.1 6.7 6.5 6.1 1.5-.5 4.7 2 4.9 4 .1.5 1 1.4 2 2 1 .5 2.4 1.8 3.1 2.7.7 1 2 1.8 2.8 1.8.8 0 1.7.7 2.1 1.6.3.9 1.3 1.4 2.4 1.1 1.2-.3 2.4.2 3.2 1.4.8 1 3.7 2.5 6.6 3.2 3 .8 5.8 2.1 6.3 3 .5.9 1.6 1.7 2.4 1.7.8 0 2.9.7 4.7 1.7 4.9 2.5 10.5 2.8 12.8.7 2.2-2 10.9-3.2 10.9-1.5 0 .6.9 1.1 2 1.1s2-.7 2-1.5c0-1.9 1.9-1.9 2.6 0 .3.8 2.1 1.7 4 2.1 1.9.3 3.9 1.4 4.4 2.3.7 1.1.8.6.3-1.8l-.6-3.4 2.4 1.6c1.3.9 3.7 1.7 5.3 1.7 1.6 0 4.3 1.1 6 2.4 1.7 1.3 4.2 2.7 5.5 3.1 2.1.6 2.3.5 1.8-1.4-.6-2.4 1.1-2.9 1.9-.6.8 1.9 4.1 1.1 6.6-1.5.9-1 2.2-2 2.7-2.1.6-.2 1.2-1.6 1.3-3.2.1-1.5.5-2.7.8-2.8.3 0 2.3-.2 4.4-.4 5.2-.6 6.3-1.8 3.3-3.8-1.7-1.1-2.4-2.5-2.5-5-.2-4.2 2.3-5.9 3.1-2.1.2 1.4-.1 2.4-.7 2.4s-.5.4.3.9c.7.5 1 1.4.7 2-.5.7.1 1.1 1.4 1.1 1.3 0 2.4.9 3 2.5 1.3 3.3 3.2 3.2 4.8-.5 1.2-2.5 1.1-3.5-.6-7.2l-1.9-4.3 2.4-2.5c2.4-2.6 3-5.5 1.3-6.5-1.6-1-1.2-2.8.5-2.1 2 .7 1.9-1.3-.2-3.6-1.5-1.7-1.5-1.8.3-1.8 2.4 0 4.7-3.5 3.9-6-.4-1.4 0-1.9 1.7-2.2 2-.3 2.2-.8 2-4.6-.3-3.7-.1-4.2 1.7-4.2 1.2 0 2.1.4 2.1 1 0 .5 1.4 1 3.1 1 1.6 0 2.8.4 2.5.9-.8 1.3 3.5 3.7 5.9 3.3 1.3-.2 2.6-1.6 3.3-3.4.9-2.4 1.6-2.9 3.2-2.5 1.1.3 2 .1 2-.4 0-1.8 4.1-3.1 7-2.1 1.6.6 4.3.7 6.4.2 2.9-.6 3.9-.4 4.9.9 1.6 2.2 6.7 2.7 6.7.7 0-.9.6-1.3 1.3-1.1 2 .8 9-3.8 10.6-7 .9-1.7 2.2-4.1 3-5.5 2.3-3.8 2.3-5.7 0-6.3-1.8-.5-2-1-1.4-3.9 1.2-5.5 2.4-7.8 3.9-7.8 2 0 2.5-3.3.6-4.7-.9-.7-1-1.2-.3-1.3.6 0 .9-.9.6-2-.3-1.1-.1-2.6.5-3.3.6-.6 1.4-2.8 1.9-4.7.9-3.4 1.1-3.5 6.1-3.8 4.5-.3 5.4-.7 6.9-3.3 1.4-2.4 2.3-2.9 4.1-2.4 1.8.4 3.1-.2 5.3-2.6 1.6-1.7 2.9-3.6 2.9-4.1 0-.6 1.1-.7 2.5-.4 2.1.5 2.5.3 2.5-1.7 0-1.3.7-3.2 1.5-4.3 1.4-1.7 1.6-1.8 2.8-.3 1.1 1.5 1.6 1.2 4-2.2 1.6-2.2 3.3-3.6 3.9-3.3.5.4 2.1 0 3.5-.7 2.2-1.2 2.6-1.1 3.4.4.6.9 1.6 1.7 2.4 1.7 1.2 0 4.7 4.9 5.4 7.5.1.5.8 1.7 1.5 2.5s1.9 3.1 2.6 5c.7 1.9 2 4.3 2.8 5.2.8 1 1.1 1.8.6 1.8-.5 0-.1.7.9 1.4 1.1.9 3.2 1.2 5.6.9 2.1-.3 4.7 0 5.8.6 1.9.9 2.2.7 2.7-2.4.5-2.3.2-4.2-.9-5.8-1.8-2.8-1.7-10.4.1-11.1.7-.3 1.6-.1 2 .5.3.6 1.2.8 1.9.5.7-.2 2.1.1 3.1.9 1.1.7 3.9 1.3 6.4 1.3 7.5.1 7.7.1 10.7 2.6 1.5 1.2 3.4 2.1 4.1 1.8.8-.2 3 1.2 5 3.1 2.6 2.5 5 3.8 8 4.3 4 .6 4.2.6 4.2-2 0-2.9 1.1-3.3 3-1.1 1.2 1.5 19.3 10.6 23.8 12 1.3.4 3.9 2.4 5.8 4.5 2 2.1 4.9 4.2 6.6 4.5 1.6.4 3.9 1.6 4.9 2.6 1.6 1.6 2.4 1.7 4 .9 1.6-.9 2.6-.6 5.2 1.6 1.8 1.5 3.1 3.3 2.9 3.9-.6 2.7 8.2 6.5 9.2 4 .3-.8 1.3-1.1 2.5-.8 2.3.6 2.7 1.8 1 2.9-.8.4-.1 1.2 1.7 2.2 2 1 2.9 1.1 3.2.3.8-2.3 6.3-1.2 9.4 1.9 3.3 3.3 6.2 3.9 7.2 1.4.5-1.2.9-1.4 2-.5 1.6 1.3 2.6.3 4.6-4.7 1-2.7 1.5-3 2.7-2 .8.7 1.9 2.2 2.4 3.4.6 1.8 1.6 2.3 4.1 2.2 1.8-.1 4.2-.7 5.2-1.4 1.7-1.1 2.1-1.1 3.2.4.8.9 1.4 3.4 1.4 5.4 0 2.8.6 4 2.3 5 2.9 1.6 14.5 2.2 16.2.8.7-.6 2-.7 3-.4 1 .4 2.1.1 2.6-.7.7-1.1 1.5-.8 3.7 1.6 1.6 1.6 3.5 3.1 4.4 3.1 1.1.1.6-1-1.8-3.4-3.8-3.9-4.4-5.8-1.5-4.2 1.3.7 2.2.7 2.6 0 .4-.6-.7-1.3-2.4-1.6-2.6-.6-3.1-1.1-3.1-3.5 0-1.6-.4-2.9-1-2.9-.5 0-1-.8-1-1.8s-1-2.8-2.2-3.9c-2.4-2.1-10.2-4.6-13.4-4.3-1 .1-2.3.1-2.9 0-.5-.1-3.1-.1-5.7 0-3.8.1-4.9-.2-5.8-2-.7-1.4-1.7-1.9-2.9-1.5-1.2.3-2.1 0-2.5-1-.8-2.1-2.9-1.9-5.1.5-1.9 2.1-4.5 2.7-4.5 1 0-.6-1.1-1.5-2.4-2-2.2-.8-2.4-1.3-1.6-4 1-3.5.1-3.8-4.4-1.5-2.7 1.4-3.1 1.4-5.2-.6-2-1.9-2.2-2.4-1-4.1 1.9-2.6.5-7.3-2.9-10-1.4-1.1-3.2-3.6-4-5.5-1.5-3.6-2-6.1-.9-5 .3.3 1.8.1 3.3-.4 3.1-1.1 5.8-5.5 3.9-6.1-1.2-.4-.3-2.8 1.1-2.8 1 0 5.1 7.4 5.1 9.2 0 1.8 4.4 6.8 6 6.8.5 0 1-1.4 1-3 0-2-.5-3-1.5-3-.8 0-1.9-.9-2.5-1.9-1.4-2.7-1.3-3.4.5-2.7 2.8 1 4.5-.5 4.5-4.2v-3.5l2.3 2.1c1.2 1.2 3.1 2 4.2 2 1.1-.1 3.2.2 4.8.5 2.1.6 2.7.4 2.7-.8 0-.8.7-1.5 1.5-1.5s3.5-.7 6.1-1.6c3.3-1.1 4.9-1.3 5.4-.5.3.6 1.5 1.1 2.6 1 3.4-.4 5.5.1 5 1-.3.5 0 1.1.8 1.4 1.1.4 5.6-4.1 5.6-5.6 0-1-7.9-5.6-8.2-4.8-.2.5-1.4.5-2.7 0-1.9-.8-2.2-1.4-1.6-3.7.4-1.5.9-2.9 1.1-3.2.3-.2 2.3 1.5 4.5 3.9 3.7 4 4.1 4.2 5.8 2.7 1-.9 2-1.6 2.4-1.6.3 0 2.2-1 4.2-2.1 2.7-1.6 3.3-2.4 2.5-3.4-.9-1-.6-1.6.9-2.5 1.2-.6 2-1.6 1.8-2.2-.3-1.5 7.2-5.8 9-5.1 1.9.7 8.5-6.7 7.3-8.2-.7-.8-.4-1.7.9-2.9 1.2-1.1 1.6-2.5 1.3-4.3-.4-2.1.1-3.2 2.3-4.9 2.5-1.9 2.9-3.1 3.3-8.3.4-5.1.2-6.1-1.2-6.1-1.9 0-2.2-1.6-.3-2.3.9-.3.9-.7.1-1.8-.6-.8-1.4-3.1-1.8-5.2-.6-3.2-.4-3.7 1.2-3.7 1 0 2.4-1.1 3-2.4.8-1.9.7-2.7-.6-4-1.6-1.6-1.6-1.7.1-1 1.2.4 1.7.1 1.7-1.2 0-1.1.5-3.5 1-5.4 1-3.6 5.4-7 9.1-7 1 0 1.9-.5 1.9-1 0-.6.9-1 1.9-1 2.4 0 3.1-1.9 3.1-8.1 0-3.8.4-5.1 1.8-5.6.9-.4 3-1.7 4.6-3 2.3-1.9 3-3.4 3.3-7 .2-2.5.8-5.4 1.3-6.4.6-1 1-2.9 1-4.2 0-1.4.7-4.1 1.5-6 .8-2 1.5-4.8 1.5-6.2 0-2.1.4-2.5 2.3-2 1.7.4 2.7-.2 4.4-2.7 2-2.9 2.7-3.2 6.7-2.9 5.7.3 7.5-2.1 7.1-9.5-.3-4.8-.2-5.1 3.1-6.9 3.7-2 3.8-2.4.4-10.1-1.3-3.1-2.6-4.5-5.1-5.3-3.3-1.1-7.4-6.3-6.1-7.6.4-.4.7-1.2.8-1.8.4-3.9 1.8-5.7 4.4-5.7 3.3 0 4.3-2.4 2.8-7.6-.6-2.5-.6-3.9.2-4.9.8-.9.8-1.5 0-2-.5-.3-1-1.6-1-2.8 0-1.2-.9-2.8-2-3.5-1.7-1-2.6-.8-6.2 1.9-3.6 2.5-4.4 2.8-4.6 1.4-.2-.9-1-1.4-1.7-1.1-.8.3-3.2-.9-5.5-2.5-2.3-1.7-4.8-2.8-5.5-2.5-.8.3-1.9-.2-2.5-1-1.6-1.8-4-1.8-4 0 0 1.3-5.7 2.8-6.2 1.6-.6-1.2-6.7-5-8.1-5-.9 0-1.8-.8-2.2-1.9-.7-2.2-4.5-5.9-4.5-4.3 0 .7-.7.9-1.7.5-1.1-.4-1.4-.3-.9.5 1 1.7-.3 5.2-2 5.2-.8 0-1.4.6-1.4 1.4 0 .9-.7 1.2-2.1.9-1.9-.5-2.1-.2-1.7 3.2.4 4.7-1.4 6.2-5.7 4.4-4.6-1.8-5.6-1.9-8.6-.3-1.7.8-4 1.1-5.8.8-4-.8-8.1.3-8.1 2.1 0 .8-.7 1.5-1.5 1.5s-1.5.4-1.5.9c0 .4-1.2.8-2.7.7-2.3-.1-2.8-.6-2.9-3.1-.2-5.1-.4-5.7-1.6-5.2-.7.2-3.1-.8-5.3-2.3-5.5-3.7-6.7-4-8.8-2.1-1.7 1.5-2.1 1.4-4.5-1.6-1.5-1.7-3.8-3.4-5.2-3.8-1.4-.4-3.5-1.3-4.7-2.1-2-1.2-2.1-1.7-1.1-3.4 1-1.5 1-2.7 0-5.5-.8-1.9-1.1-3.9-.7-4.4.3-.5.1-1.2-.5-1.6-.5-.3-1-1.4-1-2.3-.1-1-2.1-2.7-5.2-4.2-2.9-1.4-7.3-4.2-9.9-6.2-2.6-2-5-3.4-5.3-3.1-.7.7-8.6-4.6-8.6-5.7 0-.4-.8-1.1-1.7-1.4-3.6-1.3-7.9-3.9-10.8-6.6-1.6-1.5-4.5-3.3-6.3-4-4.4-1.7-7.6-6.3-6.9-10 .4-1.9.1-3.3-1-4.2-2.3-1.9-9.3-11.5-9.3-12.8 0-.5-.4-1-.9-1s-1.1-1-1.5-2.3c-.5-2.2-7.6-7.7-9.8-7.7-2.3 0-6.8-4.2-6.8-6.4 0-1.6-1.5-3.6-4.5-6-2.5-2.1-4.5-4.2-4.5-4.9 0-.6-1.1-2.3-2.5-3.7-1.4-1.4-4-4.2-5.7-6.3-2.5-3.1-3.4-3.6-4.2-2.5-.6.7-1.8 1.3-2.6 1.3s-1.5.6-1.5 1.4c0 1.8-2.1 2.6-3 1.1-.5-.8-1.1-.8-2.1.1-.9.7-2.8.9-5.1.4-2.1-.4-3.9-.5-3.9-.3-.1.1-1.2-.6-2.4-1.7s-3.2-1.9-4.6-1.7c-1.3.2-3.4-.4-4.6-1.2-1.2-.9-3.1-1.6-4.1-1.6-1 0-2.9-1.1-4.2-2.5-1.7-1.9-2.9-2.4-4.7-2-1.7.4-2.9 0-4.2-1.4-1-1.1-2.4-1.7-3.2-1.4-.7.3-3.1-.9-5.3-2.6-2.2-1.7-4.1-2.7-4.3-2.1-.4 1.4-7.8-.9-10.4-3.2-1.8-1.6-4-2.3-8.6-2.7-.9-.1-1-5.3-.2-7.5.3-.9 1-1.4 1.4-1.1 2.1 1.3-.6-3.8-2.7-5.2-1.7-1.1-2.3-2.3-2.1-3.7.3-1.6-.8-2.9-4.9-5.6-3.1-2.1-5.7-4.6-6.2-6.3-1.4-3.8-10.2-13.7-12.4-13.7-2.1 0-5.9-2-7-3.8-.4-.6-1.3-1.2-2-1.2s-2.2-.9-3.5-1.8c-2-1.6-2.2-2-.9-3 2-1.7.6-7.8-2.3-10.6l-2.2-2.1 1.3 2.2c1 1.6 1 2.5.1 3.6-.7.7-.9 1.7-.5 2 .8.9.8 8.1-.1 9.5-1.3 2.1-3.3 1.3-7.9-3.2-3-2.9-4.8-5.6-5.2-7.9-.7-3.7-4.2-5.8-5.7-3.4-.5.8-.8.9-.8 0 0-.6-1.6-2.1-3.6-3.2-2.4-1.4-3.4-2.7-3-3.6.8-2.2-2.7-5.3-6.9-6.1-3.3-.6-7.5-4.6-7.5-7.2 0-.5-.7-1.2-1.5-1.6-.8-.3-1.5-1.2-1.5-2 0-.9-.7-1.2-2-.9-1.6.4-2 0-2-1.7 0-1.9.2-2 1.5-1 1.2 1 1.8.8 3.5-1.1 1-1.3 1.9-2 2-1.5 0 .5 1.6-1.1 3.6-3.7 2.1-2.6 4.1-4.4 4.9-4.1 2.2.9 2.3-3.9.1-6.4l-1.9-2.2h3.8c4.1 0 6.4-2 6.5-5.6 0-3.9 4.8-5.9 9.3-4 1.3.7 2 .1 3.2-2.7 1.9-4.6 4-5.3 6.9-2.2 2.7 2.9 3.6 3.1 3.6 1 0-1.4-3.8-4.1-5.2-3.7-2 .5-.4-2 2.7-4.4 4-3 4.4-4.4 1.5-4.4-1.1 0-2-.3-2-.8 0-.4-.7-1.6-1.5-2.6-1.3-1.7-1.6-1.8-3.8-.3-1.7 1.1-2.8 1.2-4.1.5-1-.6-4.7-.8-8.1-.6-5.4.5-6.5.3-7.9-1.4-1.2-1.4-2.1-1.7-3-.9-.9.7-1.7.5-2.9-1-1-1.1-2.5-1.8-3.5-1.5-.9.2-4.1 1-7 1.6-4.2 1-5.2 1.6-5 3 .4 2.3-3.7 8-5.7 8-.8 0-1.2.6-1 1.2.3.7-1 2.1-2.7 3.1-3.2 1.8-3.3 1.8-4.7-.2-.7-1.2-1.9-2.1-2.5-2.1-.6 0-2.9-1.4-4.9-3.1-3-2.5-3.7-3.7-3.3-5.5.8-3.1-2.7-5.6-7-4.8-4.1.8-10.9-1.2-13.4-3.8-2.1-2.3-7.2-3-12.2-1.5-2.1.6-2.8.3-3.3-1.2-.4-1.4-1.7-2-5.1-2.3-2.5-.2-4.9.1-5.4.6-.6.6-1.4.5-2.2-.1-2.4-1.9-5.6-2.2-6.2-.6-.4.9-1.3 1.3-2.2.9-.9-.3-1.2-.2-.9.5.4.6-.1 1.9-1.1 3-1.7 1.9-1.8 1.9-3.8 0-1.2-1-3.7-2.1-5.6-2.5-2-.3-4.4-1.5-5.3-2.7-1.2-1.3-2.4-1.8-3.7-1.4-1.3.4-2.2.1-2.6-.9-.9-2.4-1.8-1.9-3.1 1.4-.8 2.2-2 3.2-4.2 3.6-1.8.4-3.3 1.4-3.7 2.6-.5 1.7-1.2 1.9-4.5 1.4-2.5-.4-3.9-.2-3.9.4 0 .6-.5.8-1 .5-.6-.3-1.4.5-1.9 1.9-.6 1.3-1.9 2.7-3 3.1-1.2.3-2.1 1.1-2.1 1.6 0 .6-1.1.2-2.3-.8-2.1-1.5-2.3-2.2-1.6-5.2.5-2.4.4-3.8-.4-4.3s-1.3 0-1.5 1.1c-.2 1.3-.9 1.7-2.1 1.4-1.1-.3-2.1.2-2.4 1.1-.8 2.1-8 2.1-11.2 0-2-1.3-2.8-1.4-4-.4-1.2 1-2.1.8-4.8-1-3.2-2.2-3.3-2.4-2-5.1 1.2-2.3 1.2-3.3 0-6.1-1.3-3.1-1.4-3.2-2.6-1.3zm226.9 118.1c0 1.7-4 1.9-4 .1-.1-.6-1.1.1-2.4 1.7-1.4 1.6-2.2 3.6-1.9 4.5.2.9-.3.4-1.2-1.2-.8-1.5-2-2.7-2.4-2.7-.5 0-1.1-.6-1.4-1.4-.4-1 0-1.2 1.4-.9 1.5.4 1.9 0 1.9-2.1s.5-2.6 2.5-2.6c1.4 0 2.5-.6 2.5-1.3.1-1.7 5 4.1 5 5.9zm-734 17.9c0 .9-.6 1.2-1.6.8-1.3-.5-1.3-.7-.2-1.4 1.7-1.1 1.8-1.1 1.8.6zm692.5 2.6c.4.6 1.4.8 2.2.5 1-.4 1.3-.2 1 .8-.7 1.9 3.6 5.8 5.6 5.1 1-.4 1.7.1 2.2 1.4.7 2.2-1 6.1-2.6 6.1-.6 0-.7.5-.3 1.2.4.6.8 3.6.9 6.7.1 3.1.5 6.4 1 7.3.5 1.3.3 1.8-1 1.8-1.1 0-1.5.5-1.2 1.4.3.8-.1 2-.9 2.7-.8.7-1.4 2.2-1.3 3.3.2 3.7-1.2 6.6-3.4 6.6-2.4 0-4.6 2.7-4.7 5.7 0 1.8-.6 2.3-2.5 2.3-1.3 0-2.8.6-3.2 1.4-1 1.9-7.8 3.2-8.7 1.7-1-1.6 1.8-4.1 4.7-4.3 2.9-.3 2.5-2.8-.4-2.8-1.4 0-1.9-.7-1.9-2.5 0-1.5.6-2.5 1.4-2.5 1.9 0 1.5-4-.7-7.4-2.3-3.4-2.1-5.3.4-6.1 1.1-.4 2.5-1.9 3-3.3.9-2.3.7-2.9-1.2-4.2-1.3-.8-3.2-2.3-4.3-3.2-2.1-1.7-2.1-1.7 1.2-1.8 2.5 0 3.2-.4 3.2-2 0-1.1-.1-2.2-.2-2.4-.5-.8 4.5-5.6 5.7-5.6 1.4 0 3.5-4.3 3.5-7 0-2.2 1.5-2.7 2.5-.9zm37.5-.1c0 .5-.4 1-.9 1-.6 0-1.3-.5-1.6-1-.3-.6.1-1 .9-1 .9 0 1.6.4 1.6 1zm-4.4 13.5c-.3.8-.2 1.5.3 1.5.4 0 1.3 1.2 1.9 2.6 1.2 2.5 1.2 2.5-2.5 2.2-2.8-.2-3.9-.8-4.1-2.2-.3-1.1 0-1.6.7-1.2 1.1.7 1.5-.5 1.2-3.2-.1-.6.6-1.2 1.5-1.2 1 0 1.4.5 1 1.5zm242.4 153.1c0 .8-.4 1.2-1 .9-.5-.3-1-1-1-1.6 0-.5.5-.9 1-.9.6 0 1 .7 1 1.6zm-43.5 214.5c-.4.5.1 1.2.9 1.5 1.7.7 2.2 2.4.7 2.4-.5 0-1.8-1.6-3-3.5-2-3.5-2-3.5-.1-2.5 1.2.6 1.8 1.5 1.5 2.1zm9.5 13.3c0 .3-.4.8-1 1.1-.5.3-1 .1-1-.4 0-.6.5-1.1 1-1.1.6 0 1 .2 1 .4zm-309 70.7c0 1.8-1.8.9-2.3-1.2-.4-1.6-.3-1.8.9-.8.8.6 1.4 1.5 1.4 2zM21.571 46.772c0 .5.5 1 1.1 1 .5 0 .7-.5.4-1-.3-.6-.8-1-1.1-1-.2 0-.4.4-.4 1zM25.571 154.572c0 .5.6 1.7 1.4 2.8 1.2 1.5 1.7 1.6 2.7.7 1-1 .9-1.5-.1-2.8-1.3-1.6-4-2.1-4-.7zM32.571 158.772c0 .5.5 1 1.1 1 .5 0 .7-.5.4-1-.3-.6-.8-1-1.1-1-.2 0-.4.4-.4 1z"/><path d="M1078.571 300.172c0 .9.5 1.6 1 1.6.6 0 1-.4 1-.9 0-.6-.4-1.3-1-1.6-.5-.3-1 .1-1 .9zM383.571 391.672c0 .5.5 1.3 1 1.6.6.3 1 .2 1-.4 0-.5-.4-1.3-1-1.6-.5-.3-1-.2-1 .4zM492.571 392.772c0 .5.9 1 2.1 1 1.1 0 1.7-.5 1.4-1-.3-.6-1.3-1-2.1-1s-1.4.4-1.4 1zM854.571 547.172c0 .2.8 1 1.8 1.7 1.5 1.3 1.6 1.2.3-.4s-2.1-2.1-2.1-1.3zM496.571 577.072c0 .8.7 1.7 1.5 2.1.8.3 1.5 1.2 1.5 2 0 .7.7 1.7 1.5 2 1.4.5 1.3.1-.2-2.5-2.4-4-4.3-5.7-4.3-3.6zM495.571 586.872c0 1.8.4 2.8 1 2.4.6-.4 1.7-.1 2.5.5 1.1.9 1.5.9 1.5.1 0-.6-.7-1.4-1.5-1.7-1.1-.5-1.3-1-.5-1.9 1.1-1.3.4-2.5-1.7-2.5-.8 0-1.3 1.2-1.3 3.1zM1069.371 601.772c-.1.5-2.4 1-5 1.1-5.2.2-6.6 1.9-5.2 6.1 1.2 4 5.3 5.1 8.4 2.3 2.1-1.9 7.5-.3 9.1 2.8.9 1.6.9 1.9-.4 1.4-2.4-.9-2.9 2.1-.6 3.4 1.7.9 1.9 1.7 1.4 5-.4 2.5-.3 4.5.5 5.4.9 1 .7 1.6-.6 2.3-2.3 1.3-1.1 4.2 1.6 4.2 1.2 0 1.9-.4 1.5-.9-.3-.5-.1-1.2.5-1.6.7-.4.7-1.2 0-2.5-1.3-2.3-1.3-3 0-3 1.7 0 6 4.3 6 5.9 0 1.4.1 1.4 1 .1.5-.8 1-2.5 1-3.8 0-1.2.4-2.2 1-2.2.5 0 .8-1 .6-2.3-.2-1.5-1.1-2.3-2.9-2.5-1.5-.2-2.7-.8-2.7-1.4 0-.6-.7-1.9-1.6-2.9-1.2-1.3-1.3-2.2-.5-3.7 1-1.8.4-2.7-4-6.9-2.9-2.6-5.8-5.4-6.5-6.1-1.5-1.5-2.1-1.5-2.6-.2zm5.7 8c.3.5.1 1-.4 1-.6 0-1.1-.5-1.1-1 0-.6.2-1 .4-1 .3 0 .8.4 1.1 1zM1051.571 609.472c.7 2.7.5 4.2-.8 6.2-1.6 2.5-1.6 2.6.3 1.1 1.1-.8 2.6-2.1 3.3-2.8.7-.6 1.8-1.2 2.3-1.2.5 0 .9-.8.9-1.8 0-1.6-1.7-2.9-6.1-4.9-.4-.2-.3 1.4.1 3.4zM1075.571 639.372c0 .8.5 1.2 1 .9.6-.4.8-1.1.5-1.6-.9-1.4-1.5-1.1-1.5.7z"/></g></svg>