<?xml version="1.0" standalone="no"?>
<!DOCTYPE svg PUBLIC "-//W3C//DTD SVG 20010904//EN"
 "http://www.w3.org/TR/2001/REC-SVG-20010904/DTD/svg10.dtd">
<svg version="1.0" xmlns="http://www.w3.org/2000/svg"
 width="774.709062pt" height="814.290177pt" viewBox="0 0 774.709062 814.290177"
 preserveAspectRatio="xMidYMid meet">
<metadata>
Created by potrace 1.15, written by Peter Selinger 2001-2017
</metadata>
<g transform="translate(-628.239289,1405.906633) scale(0.100000,-0.100000)"
fill="#222222" stroke="none">
<path d="M8296 14047 c3 -10 9 -15 12 -12 3 3 0 11 -7 18 -10 9 -11 8 -5 -6z"/>
<path d="M8320 13994 c0 -28 -5 -37 -21 -41 -18 -5 -20 -11 -16 -47 11 -80 19
-105 47 -131 16 -15 26 -34 23 -41 -4 -10 4 -14 28 -14 19 0 45 -7 59 -15 14
-8 35 -19 48 -24 12 -6 22 -15 22 -21 0 -6 15 -19 32 -30 31 -19 33 -23 34
-81 2 -73 21 -102 55 -81 33 21 34 6 3 -22 -20 -17 -31 -21 -36 -13 -4 7 -8 8
-8 2 0 -5 -7 -1 -15 9 -15 19 -15 19 -15 -3 0 -20 -2 -21 -15 -11 -16 13 -18
11 -30 -44 -5 -24 -10 -27 -31 -23 -18 3 -24 0 -22 -11 5 -27 34 -38 68 -25
23 9 33 9 43 -1 19 -19 47 -27 47 -13 0 7 23 25 51 40 28 16 53 35 56 42 2 8
11 11 19 8 8 -3 14 0 14 6 0 6 7 8 15 5 25 -10 49 4 36 20 -6 7 -7 16 -3 20 4
4 -2 14 -12 22 -22 16 -37 124 -17 124 6 0 18 11 26 24 12 18 13 30 6 50 -11
28 -3 34 18 14 6 -7 17 -13 24 -13 7 0 12 -13 12 -28 -1 -15 5 -27 12 -27 23
0 80 40 91 65 6 14 20 25 30 25 22 0 97 -74 88 -88 -7 -12 18 -34 42 -36 9 -1
37 -8 61 -16 41 -13 44 -13 60 8 14 19 22 21 69 15 29 -3 55 -10 58 -14 2 -5
15 -4 28 1 13 5 28 6 32 2 5 -4 2 1 -6 11 -7 10 -15 30 -16 43 -4 35 -24 59
-36 42 -7 -10 -11 -9 -19 5 -5 9 -16 17 -23 17 -7 0 -25 9 -40 21 -14 11 -26
17 -26 13 0 -5 -5 -3 -11 3 -6 6 -18 9 -26 6 -8 -3 -21 4 -29 16 -19 26 -29
26 -53 2 -17 -17 -25 -18 -53 -10 -21 6 -41 6 -53 0 -11 -5 -39 -14 -62 -19
-41 -9 -42 -9 -58 25 -9 19 -32 44 -51 55 -26 15 -34 27 -34 49 0 26 -3 29
-32 29 -18 0 -42 -7 -52 -15 -12 -9 -24 -11 -30 -6 -15 12 -112 48 -153 56
-18 4 -33 10 -33 15 0 4 -13 10 -29 13 -16 4 -45 20 -64 37 -24 20 -37 26 -39
18 -4 -10 -13 -9 -42 5 -20 9 -39 17 -41 17 -3 0 -5 -16 -5 -36z"/>
<path d="M9381 13553 c-1 -7 -7 -13 -15 -13 -25 0 -27 -17 -6 -65 11 -26 18
-51 15 -56 -3 -4 4 -18 15 -29 21 -21 21 -22 4 -35 -16 -11 -15 -14 15 -29
l33 -17 -3 28 c-2 36 9 63 27 63 18 0 18 49 0 73 -7 9 -21 17 -30 17 -19 0
-22 16 -3 23 7 3 1 9 -14 15 -15 6 -29 17 -32 24 -4 10 -6 10 -6 1z"/>
<path d="M9414 13283 c-3 -10 -10 -26 -15 -35 -10 -20 -1 -78 13 -78 5 0 6 -5
3 -10 -4 -6 -10 -8 -15 -5 -5 3 -20 -1 -33 -10 -33 -21 -38 -117 -8 -143 14
-12 20 -33 23 -77 l4 -61 -42 -27 c-32 -21 -41 -32 -37 -47 3 -11 0 -20 -6
-20 -7 0 -11 -20 -11 -51 l0 -51 -35 4 c-27 3 -35 0 -35 -12 -1 -22 -25 -50
-43 -50 -33 0 -47 -13 -47 -41 0 -17 -5 -29 -13 -29 -7 0 -24 -14 -39 -30
l-26 -30 23 -29 c14 -15 29 -40 35 -55 13 -35 13 -93 0 -101 -8 -5 -7 -12 2
-23 7 -9 8 -13 2 -9 -6 4 -19 -2 -29 -13 -10 -11 -24 -20 -31 -20 -7 0 -11 -6
-8 -14 3 -8 -8 -27 -25 -44 -36 -34 -39 -60 -11 -92 21 -24 26 -40 12 -40 -5
0 -16 -16 -25 -35 -14 -30 -22 -35 -50 -35 -24 0 -45 -10 -75 -36 -41 -35 -43
-35 -119 -33 -56 2 -86 9 -105 22 -24 16 -28 16 -28 3 0 -13 -4 -12 -21 5 -13
13 -29 19 -41 16 -10 -3 -35 1 -54 9 -32 14 -34 13 -34 -6 0 -11 -4 -20 -9
-20 -10 0 -14 3 -84 79 -31 33 -58 52 -75 54 -34 4 -78 23 -87 36 -3 6 -15 11
-25 11 -10 0 -21 8 -24 18 -5 14 -14 17 -35 14 -16 -2 -42 3 -59 12 -23 12
-31 13 -35 3 -2 -7 -17 3 -37 26 -19 20 -37 37 -40 37 -4 0 -14 -18 -23 -40
-9 -24 -22 -40 -32 -40 -12 0 -15 -6 -10 -19 3 -11 1 -22 -5 -26 -16 -10 -12
-35 5 -35 12 0 9 -8 -11 -34 -23 -29 -31 -33 -51 -25 -19 7 -23 5 -23 -11 0
-13 -7 -20 -19 -20 -29 0 -35 -17 -10 -31 19 -10 21 -9 16 5 -4 10 -3 14 2 11
5 -3 12 -1 16 4 3 5 17 9 31 8 19 -2 39 -19 71 -59 l44 -56 -20 -41 c-12 -22
-21 -51 -20 -63 0 -16 2 -19 7 -8 8 17 52 25 52 9 0 -6 8 -23 19 -37 18 -27
18 -28 -8 -108 -14 -44 -34 -89 -43 -98 -10 -10 -18 -32 -18 -50 0 -32 -25
-66 -48 -66 -7 0 -12 -6 -12 -14 0 -21 -48 -48 -88 -50 -20 0 -37 -7 -40 -15
-3 -8 0 -11 5 -8 6 4 9 -5 7 -23 -2 -18 1 -30 8 -30 9 0 9 -3 0 -12 -7 -7 -12
-25 -12 -41 0 -19 -4 -26 -12 -21 -6 4 -8 3 -5 -3 8 -13 -20 -73 -37 -79 -9
-3 -12 -26 -11 -67 1 -34 3 -62 5 -62 1 0 3 -15 5 -34 2 -26 -2 -35 -16 -38
-17 -5 -17 -7 -2 -36 15 -30 15 -32 -9 -52 -25 -21 -25 -22 -7 -44 24 -30 24
-41 -1 -41 -13 0 -20 -7 -20 -18 0 -26 -20 -42 -51 -42 -37 0 -43 -24 -14 -59
26 -30 32 -70 15 -87 -12 -12 -14 -49 -5 -86 6 -22 2 -29 -22 -44 -15 -10 -30
-21 -33 -25 -3 -3 -27 -14 -53 -24 -32 -12 -46 -23 -43 -32 4 -9 -4 -13 -29
-13 -37 0 -42 -5 -55 -50 l-9 -30 39 20 c48 25 73 25 92 3 17 -22 42 -75 40
-86 -1 -4 9 -23 23 -41 25 -33 57 -47 145 -63 34 -6 45 -13 50 -30 3 -12 25
-39 48 -59 48 -40 51 -60 21 -132 -13 -32 -13 -35 12 -53 21 -15 26 -26 23
-54 -2 -25 2 -35 12 -35 9 0 12 -5 9 -10 -4 -6 1 -24 9 -42 26 -52 22 -61 -25
-55 -28 4 -39 2 -36 -6 4 -12 78 -11 87 1 9 12 50 32 65 32 9 0 18 12 21 30 6
26 9 28 28 18 11 -6 27 -19 33 -29 10 -14 20 -15 50 -8 41 9 49 5 55 -26 3
-14 11 -19 27 -17 13 1 34 -4 47 -12 17 -12 24 -13 32 -3 11 13 9 69 -4 102
-7 19 -7 19 13 3 11 -10 24 -18 30 -18 14 0 16 106 3 130 -7 13 -6 20 4 23 10
4 13 17 9 46 -3 25 -2 41 4 41 6 0 13 14 17 30 3 18 12 30 21 30 12 0 14 4 5
19 -8 16 -6 21 10 26 11 4 18 11 15 16 -15 23 34 -3 83 -43 18 -16 43 -28 55
-28 26 0 77 -48 77 -71 0 -23 26 -54 33 -41 4 5 16 8 27 5 11 -3 20 0 20 6 0
6 11 11 24 11 19 0 25 6 28 27 2 14 9 29 17 31 10 3 12 -1 9 -16 -5 -17 -3
-19 15 -13 12 5 24 18 27 30 3 12 8 22 13 22 4 -1 17 -1 30 -1 13 0 32 -7 43
-15 15 -12 16 -16 5 -24 -10 -6 -10 -13 -2 -29 13 -25 14 -35 2 -28 -16 10
-19 -18 -5 -52 14 -35 10 -62 -11 -62 -24 0 -37 -149 -14 -176 7 -8 2 -14 -17
-18 -24 -6 -25 -8 -10 -25 9 -10 16 -24 16 -32 0 -8 15 -20 33 -27 17 -7 40
-18 49 -23 23 -12 31 -12 23 1 -3 6 -2 10 4 10 20 0 21 -19 0 -25 -19 -6 -19
-8 -5 -24 9 -10 13 -21 9 -24 -3 -4 -6 -25 -5 -48 2 -36 0 -40 -18 -34 -23 7
-24 6 -10 -29 6 -16 6 -26 0 -26 -5 0 -18 -19 -28 -42 -10 -24 -26 -49 -35
-57 -10 -7 -17 -23 -17 -35 0 -33 -54 -72 -92 -67 -13 2 -18 -5 -18 -23 0 -22
-5 -26 -29 -26 -16 0 -37 -3 -45 -6 -15 -6 -15 -8 -2 -18 16 -11 26 -142 13
-163 -9 -15 -60 -23 -74 -12 -12 10 -63 -29 -63 -48 0 -6 -7 -16 -15 -23 -13
-11 -12 -17 10 -46 23 -30 24 -36 11 -49 -8 -8 -20 -15 -26 -15 -7 0 -5 -6 4
-16 10 -9 16 -33 16 -60 0 -31 4 -44 14 -44 7 0 21 -12 31 -26 19 -29 7 -54
-26 -54 -13 0 -19 -7 -19 -21 0 -11 -5 -17 -10 -14 -6 4 -17 -9 -25 -28 -16
-38 -52 -64 -127 -92 -44 -16 -48 -21 -48 -50 0 -28 -6 -36 -37 -53 -30 -15
-37 -25 -36 -43 7 -63 -4 -151 -20 -160 -6 -4 -7 -15 -2 -25 8 -20 8 -158 0
-185 -5 -14 -1 -15 30 -5 19 6 35 17 35 24 0 9 10 11 37 6 31 -6 35 -4 30 10
-8 20 1 21 22 2 29 -25 77 -27 105 -5 25 20 76 18 76 -3 0 -5 12 -8 27 -6 23
3 28 -2 36 -31 5 -19 14 -43 21 -53 14 -20 9 -78 -7 -78 -22 0 26 -39 68 -55
25 -9 45 -22 45 -28 0 -7 17 -28 37 -47 34 -34 88 -134 79 -149 -3 -4 5 -8 17
-8 12 -1 25 3 29 10 5 9 10 9 20 -1 17 -17 28 -15 29 6 0 13 3 12 11 -5 12
-25 23 -29 33 -13 11 17 44 11 55 -10 6 -11 15 -20 21 -20 5 0 27 -11 48 -25
30 -20 54 -27 107 -29 69 -3 144 -24 144 -39 0 -5 4 -6 9 -2 5 3 13 1 16 -5 5
-8 11 -7 21 1 8 6 22 9 32 7 12 -3 23 2 31 13 6 11 18 19 26 19 10 0 15 10 15
26 0 22 3 25 23 20 12 -3 25 -6 30 -6 4 0 7 -6 7 -14 0 -12 38 -33 48 -27 1 0
11 -8 22 -19 11 -11 29 -20 39 -20 11 0 28 -10 38 -23 10 -12 25 -21 33 -20
10 2 32 -21 58 -62 24 -36 50 -65 59 -65 22 0 42 30 43 63 0 15 4 27 10 27 6
0 6 9 1 23 -7 19 -5 28 10 40 11 10 25 17 33 17 8 0 17 7 20 16 3 8 10 13 15
10 9 -6 47 44 43 57 -1 4 10 5 25 2 16 -3 23 -3 17 0 -12 6 -6 63 8 71 6 4 35
6 64 5 50 -1 68 9 44 24 -23 14 -8 26 30 23 27 -1 47 -10 63 -26 13 -14 16
-22 8 -20 -9 2 -17 -9 -22 -31 -6 -27 -2 -44 19 -83 28 -49 54 -67 75 -50 23
19 51 17 74 -6 13 -13 23 -27 23 -32 0 -6 3 -10 6 -10 3 0 36 -5 73 -11 56 -8
75 -7 105 5 35 15 36 14 42 -8 3 -13 16 -28 29 -34 26 -12 58 -70 53 -98 -2
-12 7 -23 29 -34 18 -8 39 -24 46 -34 9 -12 20 -17 31 -13 9 4 16 2 16 -3 0
-14 101 -110 116 -110 9 0 14 -11 14 -31 0 -18 4 -28 10 -24 6 3 24 -5 41 -18
30 -23 53 -57 114 -169 14 -27 32 -48 41 -48 8 0 12 5 8 11 -4 7 2 9 17 7 16
-2 24 2 23 12 0 8 7 23 17 33 16 18 17 17 16 -5 -1 -13 2 -47 6 -75 7 -47 6
-52 -9 -46 -14 5 -16 2 -10 -21 5 -19 2 -28 -9 -32 -11 -5 -12 -11 -4 -25 5
-11 14 -17 19 -14 5 3 17 -6 26 -20 9 -14 25 -25 35 -25 12 0 24 -11 30 -26 9
-26 10 -26 24 -8 13 18 14 17 8 -6 -8 -32 -22 -41 -45 -29 -13 7 -20 4 -28
-12 -15 -26 -9 -31 43 -38 32 -5 42 -10 42 -24 0 -10 6 -22 13 -26 8 -4 13
-14 12 -22 -5 -32 1 -39 35 -39 22 0 38 6 41 15 10 25 27 17 73 -35 25 -28 53
-50 62 -50 10 0 25 -12 32 -27 l15 -27 7 32 c3 17 3 41 0 53 -6 18 -4 21 9 16
10 -4 24 1 36 13 16 16 18 25 10 45 -5 14 -7 32 -4 40 4 8 2 21 -4 28 -16 19
-18 53 -4 70 11 12 11 24 1 55 -9 31 -9 44 2 63 7 13 14 41 15 62 1 29 -3 40
-19 48 -20 11 -20 12 4 30 19 14 22 20 12 30 -7 7 -13 21 -13 30 0 9 -13 31
-29 48 -27 29 -31 30 -40 14 -8 -14 -12 -16 -22 -5 -10 9 -10 12 -1 12 7 0 12
9 12 20 0 13 7 20 20 20 18 0 19 3 10 20 -11 21 2 60 20 60 6 0 10 11 10 24 0
19 -4 23 -18 19 -14 -3 -18 -11 -14 -29 4 -22 2 -24 -29 -18 -19 4 -40 12 -48
18 -8 6 -24 9 -36 8 -13 -2 -26 2 -30 7 -3 6 -11 11 -16 11 -6 0 -8 -4 -5 -9
10 -16 -5 -43 -18 -32 -12 10 -56 -19 -56 -38 0 -6 -4 -11 -9 -11 -5 0 -11
-14 -15 -32 -6 -30 -7 -31 -26 -13 -11 10 -20 23 -20 30 0 6 -22 22 -50 35
-27 13 -57 32 -67 42 -9 10 -22 18 -28 18 -21 0 -64 40 -59 54 7 18 -21 27
-49 17 -15 -6 -29 -5 -41 4 -9 7 -17 15 -16 17 4 10 -14 38 -25 38 -8 0 -23
12 -35 27 -16 20 -18 28 -8 35 19 12 -11 30 -37 22 -57 -17 -68 -17 -82 1 -17
24 -17 39 1 32 8 -3 19 0 25 7 11 13 4 56 -9 56 -5 0 -15 3 -23 6 -8 3 -22 -2
-31 -11 -19 -20 -50 -16 -54 6 -2 9 4 24 13 33 9 9 13 16 9 16 -3 0 -1 6 6 14
9 12 7 18 -9 33 -12 9 -21 26 -21 36 0 16 6 18 36 15 29 -3 40 1 58 23 32 38
57 49 105 44 33 -4 43 -1 47 13 10 32 21 47 35 47 36 2 88 18 83 26 -3 5 -1 9
5 9 6 0 7 7 4 17 -5 11 -3 14 6 8 10 -5 11 -2 6 14 -4 13 -2 21 5 21 6 0 8 5
5 10 -6 10 7 14 33 11 6 -1 12 3 12 9 0 5 11 10 23 10 21 0 24 5 22 33 -3 40
3 57 21 57 8 0 14 5 14 12 0 9 3 9 12 0 18 -18 26 -15 33 16 3 15 13 36 21 47
14 19 16 19 25 3 14 -24 19 -23 76 15 52 34 118 61 131 53 4 -3 16 11 26 29
16 29 22 33 37 24 14 -7 25 -5 42 6 22 14 25 14 41 -4 9 -10 35 -26 57 -36 33
-15 42 -16 49 -6 6 11 10 10 17 -3 8 -15 17 -10 63 33 30 28 57 51 61 51 3 0
14 9 24 20 13 14 22 17 30 10 8 -7 22 -5 44 6 45 23 129 11 133 -19 3 -18 5
-19 18 -6 27 26 63 37 89 27 14 -5 31 -6 39 -3 8 3 23 -2 32 -10 16 -15 18
-13 26 32 4 26 9 62 10 78 1 17 5 56 9 88 7 55 9 57 37 57 16 0 38 -5 49 -10
15 -9 21 -7 25 5 3 8 14 15 24 15 9 0 25 9 35 20 10 11 25 20 34 20 27 0 42
15 44 44 1 15 8 31 16 35 8 5 9 11 3 15 -18 11 -1 46 22 45 11 0 15 -3 9 -6
-23 -9 -14 -21 22 -27 20 -4 35 -13 35 -21 0 -7 6 -16 13 -18 7 -3 5 -6 -5 -6
-10 -1 -18 -5 -18 -11 0 -5 -7 -10 -15 -10 -16 0 -19 -24 -5 -55 8 -18 9 -18
9 -2 1 14 5 16 20 8 14 -8 20 -7 25 4 3 8 13 15 22 15 10 0 14 3 11 6 -4 4 13
22 36 40 41 33 42 34 56 14 18 -27 41 -25 42 3 1 19 3 17 15 -10 7 -18 22 -37
33 -42 29 -16 32 -47 7 -70 -13 -12 -25 -18 -29 -15 -3 4 -25 7 -47 8 -35 2
-41 0 -37 -15 6 -22 -9 -36 -43 -41 -20 -2 -26 -9 -28 -35 -2 -18 -8 -33 -13
-33 -14 0 0 -42 19 -57 14 -11 13 -15 -6 -31 -12 -11 -19 -22 -15 -26 4 -4 -3
-9 -15 -13 -19 -4 -20 -8 -10 -27 6 -11 11 -23 10 -26 -5 -13 21 -69 33 -74 8
-3 17 -21 21 -41 3 -19 16 -42 27 -50 12 -8 16 -15 10 -15 -7 0 -10 -7 -6 -17
5 -12 3 -14 -7 -8 -10 6 -11 2 -6 -19 4 -15 2 -26 -4 -26 -5 0 -10 -9 -10 -21
0 -12 5 -19 13 -16 6 2 20 -3 30 -11 14 -13 24 -14 45 -6 15 6 49 10 77 9 41
0 53 4 70 23 16 19 31 24 64 24 23 -1 49 -6 57 -13 8 -6 14 -9 14 -6 0 3 13 1
29 -4 22 -8 28 -15 24 -30 -6 -21 23 -89 38 -89 5 0 2 -17 -6 -37 -15 -35 -10
-52 17 -53 4 0 18 -4 33 -10 l26 -10 -20 -38 c-15 -30 -18 -50 -14 -105 5 -53
3 -67 -8 -67 -9 0 -6 -5 6 -12 11 -6 26 -20 33 -30 10 -14 18 -16 32 -8 13 7
19 6 23 -4 3 -8 19 -20 35 -28 l29 -15 -9 41 c-5 23 -11 48 -14 57 -3 12 3 19
21 23 27 7 95 70 95 88 0 6 -10 26 -22 46 -17 27 -19 38 -10 52 6 10 9 31 6
46 -3 16 2 45 12 66 18 41 14 68 -12 68 -9 0 -28 9 -42 21 l-26 20 -8 -22 c-8
-20 -10 -21 -26 -5 -10 9 -26 16 -34 16 -30 0 -98 52 -98 75 0 13 -10 27 -25
35 -19 10 -22 16 -13 22 10 6 10 10 0 17 -8 4 -12 14 -11 22 2 8 -1 28 -5 46
-4 18 -3 40 2 50 8 13 4 24 -14 46 -13 16 -24 35 -24 43 0 13 3 13 21 1 16
-12 25 -12 44 -3 14 6 25 15 25 19 0 5 10 17 23 28 12 10 16 18 10 19 -7 0
-19 13 -28 30 -19 37 -19 46 0 30 34 -28 25 3 -14 47 -23 27 -48 56 -56 66
-25 29 -19 50 13 43 15 -3 21 -3 15 0 -20 9 -15 24 5 17 11 -4 5 6 -15 30 -18
20 -30 43 -27 51 3 8 0 24 -6 36 -7 13 -8 25 -4 29 24 17 36 60 26 90 -10 27
-9 31 7 31 10 0 24 -7 31 -15 17 -21 28 -19 67 11 24 18 33 33 33 54 l0 29 65
-2 c49 -2 65 1 65 12 0 8 7 11 20 8 12 -3 20 0 20 7 0 6 11 27 24 46 12 19 26
52 30 74 4 21 17 52 29 68 21 28 21 30 4 42 -16 12 -16 17 -2 55 8 23 12 47
10 54 -2 6 -6 33 -9 60 -5 44 -4 47 19 47 29 0 59 38 44 56 -7 9 -19 10 -42 3
-39 -11 -40 -11 -32 1 4 6 -15 8 -51 6 -31 -2 -71 1 -88 6 -36 12 -107 82 -96
95 5 4 2 23 -5 41 -12 27 -19 32 -50 32 -19 0 -35 4 -35 10 0 5 -12 16 -27 24
-16 8 -23 15 -17 16 6 0 9 10 7 24 -3 13 3 35 12 49 11 18 14 34 9 49 -4 13
-7 33 -5 46 1 13 -3 30 -9 37 -8 10 -10 30 -5 61 4 30 2 50 -6 60 -9 11 -9 14
2 14 10 0 10 3 1 12 -7 7 -12 16 -12 22 0 5 3 6 7 3 3 -4 15 0 25 10 19 17 24
53 9 69 -5 5 -14 25 -20 44 -9 28 -21 40 -58 58 -27 12 -58 22 -69 22 -12 0
-28 8 -35 17 -12 14 -12 15 -1 9 11 -7 12 -4 3 13 -7 11 -17 21 -24 21 -18 0
-167 144 -167 161 0 8 -18 33 -41 54 -22 22 -49 55 -60 73 -18 27 -26 32 -60
32 -22 0 -49 5 -60 10 -11 6 -19 7 -19 2 0 -14 -57 -9 -72 6 -6 6 -16 12 -21
12 -6 0 -16 8 -23 18 -8 10 -13 12 -14 5 0 -7 -7 -13 -15 -13 -8 0 -22 -11
-31 -24 -8 -14 -32 -34 -52 -44 -20 -11 -36 -25 -34 -32 2 -8 -3 -10 -13 -7
-10 5 -15 0 -15 -14 0 -11 -6 -22 -14 -25 -8 -3 -12 -12 -9 -20 4 -10 0 -12
-11 -8 -10 4 -15 12 -12 19 5 14 -30 9 -51 -8 -9 -7 -13 -5 -13 5 0 17 -40 38
-92 48 -29 6 -38 4 -38 -6 0 -18 -14 -18 -30 1 -7 8 -19 15 -27 15 -16 0 -84
70 -78 80 2 4 -18 35 -46 69 -28 35 -48 65 -45 68 3 3 1 15 -5 25 -9 17 -18
19 -49 14 -32 -5 -38 -3 -43 14 -7 26 -24 26 -32 0 -4 -11 -11 -18 -16 -15 -5
4 -9 -1 -9 -9 0 -9 -6 -17 -12 -17 -7 -1 -24 -3 -37 -4 -13 -1 -28 -10 -33
-19 -5 -9 -18 -16 -28 -16 -28 0 -87 -38 -93 -59 -5 -21 -83 -61 -119 -61 -22
0 -25 -4 -20 -26 3 -20 0 -26 -17 -31 -11 -3 -21 -10 -21 -15 0 -5 -18 -6 -44
-3 -42 7 -44 6 -39 -14 4 -15 1 -21 -12 -21 -14 0 -16 -6 -11 -36 6 -31 4 -36
-13 -41 -25 -6 -25 -6 -7 -41 7 -15 17 -45 20 -67 4 -22 14 -50 22 -63 10 -15
13 -34 8 -57 -4 -22 -2 -35 4 -35 14 0 3 -71 -14 -89 -11 -12 -16 -12 -28 -1
-9 7 -16 16 -16 21 0 4 -12 20 -26 34 -18 19 -23 30 -16 37 12 12 5 38 -10 38
-5 0 -23 9 -39 21 -32 23 -53 17 -44 -11 7 -23 -26 -44 -55 -35 -10 3 -21 1
-25 -5 -8 -13 -82 -13 -90 0 -3 6 -11 10 -16 10 -6 0 -8 -4 -5 -9 3 -5 -17
-18 -45 -29 -28 -12 -48 -26 -44 -32 3 -5 1 -10 -4 -10 -6 0 -11 -7 -11 -15 0
-8 -7 -15 -16 -15 -13 0 -15 -7 -10 -30 4 -23 2 -30 -10 -30 -18 0 -44 -23
-44 -39 0 -16 -40 -13 -72 3 -16 8 -28 11 -28 5 0 -5 -8 -9 -19 -9 -12 0 -20
-9 -24 -27 -7 -33 -59 -64 -98 -60 -14 2 -41 15 -59 29 -26 20 -31 29 -23 43
8 13 6 26 -6 47 -14 24 -14 30 -2 37 12 8 12 11 0 24 -8 8 -21 24 -29 36 -8
11 -19 21 -25 21 -13 0 -47 55 -39 63 4 3 3 14 -1 24 -5 10 -7 26 -6 36 1 10
-5 33 -13 52 -14 29 -14 37 -1 69 20 47 19 62 -6 97 -11 16 -15 29 -9 29 6 0
4 10 -5 24 -14 20 -14 28 -3 45 11 18 10 27 -9 63 -32 64 -36 77 -37 142 -1
53 1 59 25 72 15 7 30 10 34 6 7 -7 -4 39 -11 47 -2 2 -9 -1 -16 -7 -7 -5 -21
-12 -32 -14 -15 -2 -18 4 -20 45 0 26 3 47 9 47 5 0 4 5 -3 12 -20 20 -14 48
13 58 14 5 25 17 25 25 0 25 25 44 49 38 11 -3 21 -1 21 5 0 6 13 13 28 17 31
6 56 53 41 76 -5 8 -3 17 4 21 9 6 9 8 0 8 -16 0 -18 86 -2 95 7 5 2 16 -13
32 -13 14 -22 33 -20 44 2 10 -4 22 -12 25 -9 3 -14 10 -11 14 3 4 -2 13 -10
20 -11 9 -13 23 -9 52 6 32 3 43 -15 62 -18 19 -21 30 -15 60 l6 37 53 -6 c50
-7 52 -6 57 19 4 17 0 26 -10 28 -20 4 -29 137 -10 149 7 4 12 33 13 69 2 40
7 65 16 71 11 6 10 9 -4 15 -11 4 -17 17 -17 40 0 38 -54 152 -82 172 -22 16
-23 51 -1 96 14 31 20 35 52 33 26 -1 36 2 36 13 0 20 30 41 48 34 10 -3 17 3
21 21 4 14 11 23 16 20 6 -4 17 1 26 9 8 9 22 16 29 16 11 0 10 8 -6 35 -25
42 -19 68 21 92 35 21 43 38 29 64 -5 11 -12 33 -14 49 -3 25 0 30 26 35 16 4
43 4 59 0 26 -6 30 -4 30 14 0 24 1 25 34 10 19 -9 29 -8 47 5 13 9 35 16 49
16 30 1 60 21 60 42 0 8 12 20 26 27 40 18 62 -6 62 -70 0 -49 10 -77 19 -51
3 6 9 12 14 12 12 0 49 33 49 44 0 5 -10 30 -22 56 -19 40 -28 48 -54 52 -25
3 -31 1 -26 -12 5 -13 3 -13 -11 -1 -19 15 -14 31 9 31 16 0 16 40 0 51 -5 4
-6 15 -2 25 6 15 9 16 16 5 4 -8 15 -11 25 -8 9 4 14 11 10 16 -3 6 4 9 16 8
12 -1 24 -9 27 -19 2 -10 10 -18 18 -18 11 0 11 5 0 32 -9 21 -11 40 -5 55 5
13 6 28 4 35 -3 7 4 19 15 26 18 11 20 10 20 -9 l0 -22 20 23 c11 13 20 34 20
47 0 28 -60 87 -74 72 -6 -5 -20 -9 -33 -9 -31 0 -106 43 -109 63 -1 9 -16 33
-33 54 -28 36 -30 41 -19 75 6 22 16 35 22 31 7 -4 6 -1 -1 7 -6 7 -9 19 -6
27 5 12 2 13 -13 5 -10 -6 -27 -20 -36 -31 -21 -24 -40 -28 -32 -6 4 8 1 15
-5 15 -6 0 -11 -4 -11 -10 0 -5 -9 -10 -19 -10 -20 0 -37 32 -26 50 4 6 -8 10
-29 10 -20 0 -35 -3 -34 -7 0 -5 -28 -38 -63 -75 -48 -50 -72 -68 -91 -68 -47
0 -58 -10 -58 -50 0 -48 -8 -70 -25 -70 -17 0 -15 -48 3 -59 10 -6 9 -16 -2
-48 -8 -23 -12 -43 -10 -46 3 -3 -7 -14 -22 -26 -34 -27 -96 -22 -160 14 -53
30 -54 30 -54 7 0 -9 -9 -23 -21 -30 -18 -12 -23 -10 -44 12 -28 31 -27 30
-67 10 -17 -9 -43 -14 -58 -12 -24 4 -29 0 -32 -23 -2 -14 -1 -35 3 -45 9 -23
11 -90 3 -81 -9 9 -74 -43 -74 -59 0 -8 -5 -14 -12 -14 -17 0 -107 -100 -114
-127 -4 -13 -11 -20 -20 -16 -7 2 -24 -6 -36 -19 -13 -12 -22 -21 -21 -19 2 2
-3 11 -11 20 -7 9 -16 26 -18 38 -5 19 -3 20 12 11 14 -9 21 -8 33 4 9 9 13
18 10 21 -11 12 -12 62 -1 69 17 9 -49 68 -84 75 -23 5 -28 11 -28 35 0 21
-14 48 -47 89 -27 32 -51 59 -55 59 -3 0 -16 16 -27 36 -17 28 -18 35 -6 31
21 -9 19 13 -2 28 -13 10 -23 10 -37 3 -13 -7 -21 -6 -27 3 -11 18 -11 29 0
29 4 0 6 11 3 25 -2 14 -10 25 -17 25 -8 0 -28 12 -45 26 -29 25 -30 28 -15
44 15 17 15 21 0 54 -16 34 -16 37 5 74 19 34 20 43 9 63 -7 13 -14 35 -15 49
-6 53 -31 134 -42 138 -7 2 -15 -5 -18 -15z m286 -1039 c0 -8 -4 -12 -10 -9
-5 3 -10 10 -10 16 0 5 5 9 10 9 6 0 10 -7 10 -16z m110 -15 c0 -6 -4 -7 -10
-4 -5 3 -10 11 -10 16 0 6 5 7 10 4 6 -3 10 -11 10 -16z m-64 -4 c-3 -8 2 -19
12 -24 9 -5 14 -12 11 -15 -11 -11 -34 4 -46 29 -10 22 -9 25 9 25 14 0 18 -5
14 -15z m-1410 -2222 c-4 -4 -11 -1 -16 7 -16 25 -11 35 7 17 9 -9 13 -20 9
-24z m-42 8 c8 -13 -3 -19 -24 -14 -11 3 -17 9 -14 14 7 11 31 12 38 0z m5058
-907 c16 -9 27 -11 24 -6 -14 23 28 21 56 -3 16 -14 38 -25 49 -25 11 0 22 -7
25 -15 4 -8 11 -15 17 -15 15 0 57 -41 57 -56 0 -16 37 -37 50 -29 6 3 10 0
11 -7 0 -7 4 -3 10 10 5 13 14 20 19 17 8 -5 7 -11 -1 -21 -7 -8 -7 -14 -1
-14 5 0 12 -9 15 -21 3 -12 3 -18 0 -15 -3 3 -19 -2 -35 -10 -16 -8 -50 -16
-76 -17 -53 -2 -69 14 -66 68 1 27 4 30 29 27 25 -3 27 -1 15 13 -7 9 -19 14
-26 11 -7 -3 -34 2 -60 11 -34 11 -52 13 -64 6 -12 -8 -22 -6 -40 7 -12 9 -20
22 -17 27 4 6 -5 20 -18 33 -13 13 -22 27 -19 31 7 12 10 11 46 -7z m-4768
-520 c23 -9 20 -24 -4 -24 -11 0 -20 7 -20 15 0 17 2 18 24 9z m4716 -614 c0
-5 -4 -10 -10 -10 -5 0 -10 5 -10 10 0 6 5 10 10 10 6 0 10 -4 10 -10z m-2780
-604 c-16 -17 -31 4 -18 27 11 21 11 21 18 2 4 -11 4 -24 0 -29z m130 34 c0
-5 -2 -10 -4 -10 -3 0 -8 5 -11 10 -3 6 -1 10 4 10 6 0 11 -4 11 -10z m231
-64 c-9 -10 -8 -16 4 -26 15 -13 11 -35 -6 -25 -5 4 -9 -1 -9 -9 0 -9 -6 -16
-14 -16 -19 0 -30 17 -14 22 7 3 13 11 14 19 0 8 2 22 2 32 1 9 9 17 18 17 13
0 14 -3 5 -14z m199 -16 c0 -5 -4 -10 -10 -10 -5 0 -10 5 -10 10 0 6 5 10 10
10 6 0 10 -4 10 -10z m606 -1307 c-7 -7 -26 7 -26 19 0 6 6 6 15 -2 9 -7 13
-15 11 -17z"/>
<path d="M6710 13221 c0 -5 -13 -14 -30 -21 -27 -11 -29 -16 -27 -59 2 -40 -1
-46 -19 -49 -12 -2 -24 -12 -27 -23 -7 -25 -35 -35 -58 -21 -10 7 -27 12 -38
12 -10 0 -26 11 -35 25 -9 14 -22 25 -28 25 -9 0 -9 -3 0 -12 18 -18 15 -41
-4 -34 -8 3 -26 3 -39 0 l-23 -6 30 -69 c17 -38 36 -69 43 -69 6 0 17 -11 23
-25 6 -14 16 -25 22 -25 5 0 10 -8 10 -18 0 -20 41 -62 78 -81 22 -12 30 -45
12 -56 -28 -17 97 -160 131 -150 9 3 32 -9 53 -27 l37 -33 -19 -48 c-10 -27
-26 -57 -36 -69 -13 -15 -15 -23 -7 -31 18 -18 13 -43 -11 -54 l-23 -11 26 -7
c25 -6 27 -11 28 -61 0 -57 14 -96 34 -93 43 5 57 -24 27 -56 -25 -26 -14 -39
25 -29 16 4 25 13 25 25 0 16 4 18 18 10 9 -5 31 -11 47 -12 23 -3 32 1 40 19
10 22 25 30 25 12 0 -16 64 -39 72 -26 5 8 14 7 29 -2 12 -8 32 -11 48 -7 15
3 43 -1 64 -10 28 -11 43 -13 57 -5 11 6 20 14 20 18 0 4 15 12 33 17 22 7 32
16 30 28 -1 16 4 18 35 13 21 -4 45 -7 54 -8 9 -1 19 -14 22 -31 13 -66 77
-83 111 -30 26 41 65 59 95 43 12 -6 24 -9 27 -7 2 3 18 0 35 -7 26 -11 36
-11 68 5 43 21 59 39 36 39 -10 0 -16 9 -16 24 0 14 -4 27 -9 30 -5 3 -12 18
-16 33 -3 15 -27 45 -53 67 -91 80 -122 114 -122 135 0 13 -11 37 -25 56 -20
25 -24 40 -19 60 5 21 2 32 -14 44 -24 19 -92 107 -92 120 0 5 7 11 15 15 8 3
15 14 15 25 0 11 7 24 16 29 14 8 12 14 -18 48 -18 21 -40 53 -47 69 -8 18
-16 25 -18 17 -3 -9 -19 -2 -48 23 -42 34 -65 44 -65 27 0 -4 -18 -7 -39 -7
-21 0 -50 -6 -63 -13 -21 -12 -31 -9 -92 23 -38 21 -76 35 -86 32 -11 -3 -25
2 -31 10 -7 8 -21 12 -31 10 -17 -5 -34 12 -93 88 -33 43 -96 105 -109 106 -6
1 -15 1 -20 0 -4 -1 -19 5 -32 14 -27 17 -34 19 -34 6z"/>
<path d="M11009 13188 c-3 -63 12 -93 31 -59 7 15 17 20 29 16 16 -5 18 -1 12
27 -6 28 -11 33 -39 36 -27 3 -32 0 -33 -20z"/>
<path d="M9300 13097 c0 -18 5 -27 15 -27 13 0 14 4 4 23 -17 33 -19 33 -19 4z"/>
<path d="M11226 12571 c-3 -5 1 -11 9 -15 8 -3 15 -1 15 4 0 13 -18 22 -24 11z"/>
<path d="M6380 10411 c0 -6 -8 -11 -17 -11 -17 -1 -17 -1 -1 -10 19 -12 50 -2
45 13 -5 15 -27 21 -27 8z"/>
<path d="M6410 10370 c0 -5 5 -10 10 -10 6 0 10 5 10 10 0 6 -4 10 -10 10 -5
0 -10 -4 -10 -10z"/>
<path d="M7073 10356 c4 -11 -5 -17 -36 -22 -52 -10 -59 -11 -75 -13 -8 -1
-11 -8 -8 -19 7 -22 -42 -62 -76 -62 -13 0 -35 -6 -49 -14 -31 -16 -90 -10
-83 9 3 8 -9 15 -37 19 -44 7 -72 -8 -84 -44 -3 -10 -17 -20 -30 -23 -25 -4
-34 6 -15 18 5 3 8 16 6 28 -2 19 -10 22 -54 25 -38 2 -52 -1 -52 -10 -1 -8
-7 -5 -16 7 -9 13 -12 30 -8 48 5 24 3 28 -13 26 -10 -2 -24 0 -31 5 -7 4 -29
9 -50 10 -20 2 -46 6 -57 9 -34 11 -27 -34 7 -47 18 -7 28 -18 28 -31 0 -12 5
-26 11 -32 8 -8 8 -17 0 -32 -7 -12 -8 -21 -3 -21 13 0 61 65 65 87 4 27 17
44 28 37 5 -3 6 -10 2 -17 -4 -6 -8 -24 -10 -41 -4 -33 -19 -56 -38 -56 -8 0
-15 -6 -18 -12 -9 -28 8 -50 55 -74 38 -19 48 -29 43 -43 -12 -38 56 -44 85
-8 l17 21 37 -40 c20 -21 36 -44 36 -50 0 -19 36 -44 62 -44 15 0 28 -4 30
-10 2 -6 14 -4 30 4 18 10 29 11 37 3 7 -7 14 -7 24 1 17 14 54 5 62 -16 12
-28 14 -102 4 -102 -23 0 -67 -43 -61 -59 8 -22 28 -41 36 -34 3 4 6 2 6 -4 0
-17 28 -23 57 -12 20 7 23 13 15 21 -7 7 -12 18 -12 26 0 11 13 12 68 7 37 -4
74 -14 83 -21 8 -8 19 -14 23 -14 10 0 108 -81 124 -102 7 -10 19 -18 25 -18
7 0 18 -14 26 -30 10 -25 16 -29 27 -19 8 7 12 14 9 17 -2 3 4 13 15 22 20 17
20 17 0 35 -24 22 -28 70 -5 61 10 -4 15 2 17 17 0 12 2 27 3 32 2 6 3 16 4
23 0 7 9 12 19 10 11 -2 16 2 13 12 -2 8 -4 27 -4 42 0 15 -3 25 -7 23 -3 -2
-21 5 -39 16 -24 14 -32 25 -28 39 3 11 -3 26 -14 36 -13 12 -16 21 -9 29 5 6
7 14 4 18 -10 10 7 47 22 47 14 0 18 15 14 58 -1 12 3 22 9 22 16 0 13 56 -4
70 -8 7 -12 16 -9 21 3 5 -3 10 -13 11 -10 0 -24 2 -30 2 -7 1 -33 20 -58 44
-25 24 -50 40 -56 37 -5 -4 -17 2 -27 13 -9 10 -30 24 -46 31 -24 10 -28 9
-23 -3z"/>
<path d="M13711 9962 c-13 -27 -13 -27 -29 -7 -10 11 -26 21 -37 22 -15 1 -10
-7 19 -30 100 -80 98 -77 99 -147 2 -63 3 -65 49 -109 30 -28 48 -54 48 -67 0
-13 4 -25 9 -28 10 -7 9 -56 -2 -73 -9 -15 17 -58 35 -58 21 0 20 -23 -1 -35
-12 -6 -21 -8 -21 -4 0 4 -11 -5 -25 -20 -13 -14 -29 -26 -35 -26 -7 0 -9 -8
-5 -20 4 -12 2 -20 -6 -20 -8 0 -9 -4 0 -13 8 -10 7 -17 -1 -25 -8 -8 -6 -18
8 -39 10 -15 26 -49 36 -76 14 -41 15 -49 2 -61 -8 -8 -13 -19 -12 -23 1 -4
-1 -18 -6 -30 -4 -13 -2 -32 5 -45 l12 -23 10 22 c5 12 18 23 28 26 11 3 19
14 19 26 0 12 4 21 10 21 5 0 9 3 9 8 -5 28 3 51 15 46 19 -7 56 73 56 123 0
24 -6 46 -15 53 -14 12 -35 51 -49 93 -3 10 1 32 9 48 12 23 13 34 4 51 -15
28 -19 102 -5 88 16 -16 33 -12 60 14 28 25 34 46 13 46 -8 0 -29 19 -47 43
-19 23 -39 45 -46 50 -7 4 -15 21 -19 37 -5 22 -14 32 -33 36 -36 9 -52 23
-52 44 0 19 -19 30 -50 30 -19 0 -30 19 -30 50 0 30 -16 31 -29 2z"/>
<path d="M13190 9930 c0 -5 5 -10 11 -10 5 0 7 5 4 10 -3 6 -8 10 -11 10 -2 0
-4 -4 -4 -10z"/>
<path d="M7407 9866 c-4 -10 -1 -13 8 -9 8 3 12 9 9 14 -7 12 -11 11 -17 -5z"/>
<path d="M13420 9760 c0 -5 5 -10 10 -10 6 0 10 5 10 10 0 6 -4 10 -10 10 -5
0 -10 -4 -10 -10z"/>
<path d="M8280 9571 c0 -12 5 -21 10 -21 6 0 10 6 10 14 0 8 -4 18 -10 21 -5
3 -10 -3 -10 -14z"/>
<path d="M8440 8500 c-9 -6 -10 -10 -3 -10 6 0 15 5 18 10 8 12 4 12 -15 0z"/>
<path d="M12850 8075 c0 -8 5 -15 10 -15 6 0 10 7 10 15 0 8 -4 15 -10 15 -5
0 -10 -7 -10 -15z"/>
<path d="M11300 6173 c0 -5 5 -15 10 -23 8 -12 10 -11 10 8 0 12 -4 22 -10 22
-5 0 -10 -3 -10 -7z"/>
</g>
</svg>
