<svg version="1" xmlns="http://www.w3.org/2000/svg" width="414.473" height="792.237" viewBox="0 0 310.855 594.178"><g fill="#222"><path d="M282.128 1.543c0 1.4.2 1.9.5 1.2.2-.6.2-1.8 0-2.5-.3-.6-.5-.1-.5 1.3zM282.928 8.443c0 .6-.7 1.1-1.5 1.1s-1.5.4-1.5 1c0 1.5 2.6 1.2 3.9-.4.8-1 .9-1.6.1-2.1-.5-.3-1-.1-1 .4zM292.928 11.943c0 .9 1.4 1.5 3.9 1.8 4.2.4 4.8-1.5.8-2.6-3.5-.9-4.7-.7-4.7.8zM288.528 13.143c-.7 1.8 0 3.4 1.5 3.4 1.2 0 1.2-3.7 0-4.4-.5-.3-1.2.1-1.5 1zM266.928 16.743c0 2.6-.6 3.7-2.9 4.9-2.3 1.4-2.8 2.2-2.4 4.3.4 1.7-.1 3.4-1.1 4.5-.9 1-1.4 2.5-1 3.5.4 1.2.1 1.6-1.5 1.6-1.3 0-2.1.6-2.1 1.6 0 1.1.6 1.5 2 1.1 1.1-.3 2.3-.1 2.6.4.7 1.2 1.6 1.1 3.7-.5 1.4-1.1 1.6-1.8.7-4.2-1.1-2.7-1.1-2.8.8-1 1.1.9 1.9 2.5 1.8 3.4-.3 1.8 4.2 5.2 6 4.5.7-.2 1.5-2.3 1.8-4.6.5-3 1.7-5.2 4.2-7.4 3.9-3.7 4.3-5.3 1.4-5.3-1.2 0-2.5-1-3.2-2.5-.6-1.4-2.2-3.2-3.6-4.1-1.9-1.3-2.2-1.8-1.1-2.5 1-.6.2-.9-2.3-.9-3.6 0-3.8.2-3.8 3.2zM284.628 18.943c-2.1 1.6-2.2 3.2-.3 3.9.9.4 1.6-.3 2.1-2 .8-3.2.5-3.5-1.8-1.9zM212.928 23.343c0 1.7-3.4 6.2-4.6 6.2-.3 0-1.7-.9-3.2-1.9-1.5-1.1-3.7-2.2-5-2.6-2.3-.7-2.3-.7-.7 2.4.9 1.8 2 2.9 2.4 2.7.5-.3 1.6.3 2.5 1.3 1.2 1.3 1.4 2.1.6 2.6-.7.5-.9 2.1-.5 4.6l.7 3.9-3.4-.6c-1.8-.4-3.7-.7-4.3-.8-.5 0-1.1.8-1.3 1.9-.2 1.7-1 2.1-3.7 2.1-4.3 0-4.8.5-3.6 3.5.5 1.3 1 1.8 1 1.2.1-1.6 5.4-1.1 7.5.7.9.7 1.6 2.5 1.6 4.1 0 2.4.4 2.9 2.5 2.9 1.7 0 2.5.6 2.5 1.7 0 1 .7 3.1 1.5 4.7 1.9 3.6 1.9 3.5-.4 2.9-1-.3-2.1 0-2.5.5-.9 1.4 6.2 4.1 13.7 5 6.2.8 6.7.7 6.7-1.1 0-1.6.5-1.8 3.1-1.2 2.3.5 3 .4 2.4-.5-.4-.7-.1-1 1.1-.8 1.3.2 2-.4 2.2-1.9.2-1.4.8-2 1.8-1.6.8.3 1.4-.1 1.4-.9 0-2.3 3.4-4.8 6.3-4.8 2 0 2.7-.5 2.7-1.8 0-2.8-.8-3.1-4-1.5-2.7 1.3-3.2 1.2-5.4-.4-2.5-1.8-3.5-5.3-1.6-5.3 1.7 0-3.2-8.1-5.6-9.2-1.3-.6-2.4-1.5-2.4-2 0-.4-.6-.8-1.2-.8-2.1-.1-6.8-4.8-6.8-6.8 0-1 .6-2.4 1.3-3.1 1-1.1.9-1.2-.2-.6-1.6.9-3.1-1.1-3.1-4.3 0-1.2-.4-2.2-1-2.2-.5 0-1 .8-1 1.8zM252.528 39.743c-.3 1.3 0 2.9.8 3.6 1.1 1.1 1.4.9 2-1.3.7-2.7.1-4.5-1.3-4.5-.5 0-1.1 1-1.5 2.2zM280.928 40.443c0 .6.4 1.3 1 1.6.6.3.7-.1.4-.9-.7-1.8-1.4-2.1-1.4-.7zM283.528 44.043c-.3.8-.1 1.5.4 1.5.6 0 1-.7 1-1.5s-.2-1.5-.4-1.5-.6.7-1 1.5z"/><path d="M251.628 50.143c-1.7 2.2-1.7 2.6-.2 4 1.7 1.7 1.3 4.2-1 8-.8 1.3-1 2.6-.5 3.5 1.1 1.6-.5 2.9-3.7 2.9-2.6 0-2.6 0-1.2 3.6 1.3 3.6-.4 7-4.4 9-2.2 1.2-2.6 1.8-1.7 2.9.8.9.8 1.9.1 3.2-1.3 2.3-4.6 13.4-4.4 15 0 .7-.3 1.3-.9 1.3-.5 0-.6.5-.3 1 .4.7 1.2.7 1.8.2.7-.5 2.7-.9 4.6-1.1 4.8-.2 7.7 2.7 7.5 7.6-.1 2.1.1 4.2.6 4.8.4.5.7 2.5.5 4.2-.1 2.5.3 3.4 1.7 3.9 1.1.3 2.2.3 2.5 0 1.2-1.1 4.3 1.6 4.3 3.7 0 1.2.4 2.8.9 3.6.7 1 .2 2.4-1.5 4.6-1.3 1.8-2.4 4.2-2.4 5.3 0 1.6-.6 2.2-2.1 2.2-1.1 0-1.7.4-1.4 1 .8 1.2-4.5 1-6.2-.3-1.7-1.2-1.7.5-.1 2.1 1.4 1.4 1.7 6.4.3 5.8-1.9-.7-4.5 1.5-4.5 3.9 0 1.3-.6 2.8-1.2 3.2-.7.4-1.3 1.7-1.3 2.7 0 1.3-1.2 2.3-3.7 3.2-4.1 1.4-5.7.4-3.3-2 1-1 1.2-1.7.4-2.1-.5-.4-1.3-.4-1.6-.1-.3.3-1.2.1-1.9-.5-.8-.7-1.4-.7-1.9.2-.5.7-2.8-1.1-6.6-5-3.2-3.4-6.2-6.1-6.7-6.1-.6 0-1.2-.6-1.5-1.4-.3-.7-2.5-1.8-4.9-2.4-3.6-1-4.9-2.1-8.2-6.8-2.5-3.7-4.1-5.2-4.6-4.4-1.1 1.8-4.9.2-7.8-3.2-1.3-1.6-4.1-3.6-6.1-4.5-2.8-1.2-3.2-1.7-1.8-2 1.4-.4 1.7-1.1 1.3-2.6-.3-1.2-.6-2.7-.6-3.4 0-.8-1.3-1.1-4.1-.8-4.8.5-6.9-.2-6.9-2.1 0-.8-.3-1.3-.7-1.2-.5.1-2.1-.4-3.7-1.1-2.2-.9-2.6-1.4-1.7-2.5.7-.9.8-1.7.3-2-.6-.3-1.3.1-1.6.9-.3.8-.9 1.4-1.3 1.3-.4-.1-2.9.1-5.6.6-4.4.7-4.7.9-4.1 3.3.6 2.3.5 2.5-1.6 2-1.8-.5-2.1-.2-1.7 1.3.4 1.5-.4 2-3.8 2.9-2.4.6-5 .8-5.8.5-.8-.3-1.8-.1-2.2.5-.3.6-1.5 1.1-2.5 1.1-1.8 0-1.8.3-.7 2.7.9 2.1.9 2.7-.1 3.1-.7.2-1.9 1-2.7 1.9-.9.8-2.3 1.2-3.5.8-1.6-.5-2-.2-2 1.9 0 2.3.2 2.5 2.6 1.6 3.8-1.5 10-1.2 11.4.5.7.8 1.8 1.5 2.5 1.5s1.5-.7 1.9-1.5c.6-1.7 4.2-2 5.1-.4.4.6 2.1.9 3.9.8 4.2-.4 5 .3 6.6 5 1.2 3.7 3 5.6 3 3.1 0-.5 2.3.3 5 1.7 2.8 1.4 5 3 5 3.4 0 .5 1.5 2.2 3.4 3.9 2.3 2.1 3.5 4.3 3.8 6.6.2 1.9 0 3.4-.5 3.4s-.7.6-.4 1.4c.3.8-.2 1.6-1.4 1.9-1.1.3-1.9 1.4-1.9 2.5s-.5 2.2-1.2 2.4c-1.3.5 1.4 4.6 6 9.2 2.2 2.3 3.1 7.6 1.2 7.6-.5 0-1 1.8-1 3.9 0 2.2-.7 4.6-1.5 5.5-.8.8-1.5 1.9-1.5 2.5 0 .6-1.3 1.1-2.9 1.1-1.6 0-3.1.6-3.5 1.5-.8 2.2-2.1 1.9-5.9-1.5-4.7-4.1-8.6-5.5-9.4-3.3-.7 1.8 2.4 4.6 4.4 3.9.7-.3 1.5-.1 1.8.4.4.6 1.4 1 2.4 1 2.4 0 3.7 1.7 4.5 5.7.6 2.4.4 3.2-.9 3.5-1.3.2-1.2.8.7 3.5 1.3 1.8 2.9 3.3 3.5 3.3.7 0 3.5 2.1 6.3 4.7 4.3 4 5 5.2 5 8.4 0 2.1.4 4.1 1 4.4.5.3.7 1.9.3 3.5-.3 1.7-.1 3 .4 3 1.5 0 1.3 6-.3 9.1-1.6 3.1-.3 4.9 2.1 2.9 1.2-1 1.5-.9 1.5.3 0 .9 1.1 2.9 2.6 4.6 1.4 1.6 2.5 3.4 2.6 3.8.1 1.4 2.1 5.3 2.7 5.4 4.8.5 7.8 1 8.8 1.3 1.3.5 1.5 7.4.2 8.2-.5.3-.9 1.5-.9 2.6 0 1.9-4.4 8.9-6.1 9.6-.4.2-.1 1.5.6 2.9.8 1.5 1.1 3.1.8 3.6-.3.5.5.7 1.8.5 1.9-.2 2.3-.8 2.1-2.7-.3-1.5.1-2.2.9-1.9 1.5.5 6.2-5.9 5.4-7.3-.4-.5.1-.9 1-.9 1.4 0 1.4-.3.1-2.3-.8-1.2-1.7-3.2-2.1-4.5-.5-1.8-.2-2.2 1.4-2.2 1.2 0 2.1.3 2.1.8 0 .4.9 1.3 2.1 2 1.5 1 2.4 1 3.4.2 1-.9 1.6-.7 2.4.9 1.6 2.9 1.4 3.2-1.6 2.9-2.7-.3-2.8-.1-3.3 4.8-.6 6.2-4.5 11.5-7.6 10.4-1.8-.7-1.9-.4-1.6 2.5.3 2.5-.1 3.6-1.9 4.9-1.3.9-1.7 1.6-1 1.6 1.1 0 1.3 1.4.8 6.4-.5 4.8-.3 6.7.7 7.5 1.1.9 1.7.5 2.7-2.1.7-1.8 1.3-4.1 1.4-5.1.3-2.4 1.1-3.1 2.9-2.4.9.4 1.3 1.3 1 2-.3.8.4 3 1.5 5 1.1 1.9 1.7 3.8 1.4 4.1-.3.3-.1 1.2.6 1.9.8 1 .8 2.2.2 3.8-.5 1.3-1 1.9-1.1 1.4-.1-.6-.5-.1-.9 1-.5 1.1-.5 2.7 0 3.7.6 1.1.4 1.8-.5 2.1-.8.3-1.7-.1-2-.9-.9-2.5-2.7-1.6-2 1.1.4 1.6.1 3-.9 4-2.2 2.2-2.7 1.9-2.1-1.4.5-2.6-.1-3.6-5.4-8.8-5.9-5.9-9.7-11.6-8.8-13.2.3-.5-.5-1.1-1.9-1.3-1.6-.3-2.5-.1-2.5.7 0 .6-.7 2.6-1.6 4.3-1.3 2.7-2.1 3.2-5 3.2-1.9 0-3.4.4-3.4 1 0 .5-1.8 2.1-3.9 3.4-4.1 2.6-5.7 5.5-5.2 9.4.4 3.2-2.1 11.2-3.4 11.2-1.5 0-4.6 5.8-3.4 6.5 1.5 1-1.7 3.6-3.5 2.9-.9-.3-1.6-.1-1.6.5 0 2.1-7.2.1-11.2-3-3.2-2.5-4-2.8-6.2-1.8-2.8 1.3-5.1.2-6.1-3-.5-1.7-6-4.5-8.3-4.2-2.4.4-4.1-2-3.8-4.9.3-2.7-2.3-8.3-3.8-8.1-1.7.2-2 0-.7-.8.7-.5 1-1.4.6-2-.8-1.5-5.1 3.7-4.7 5.7.2.8-.4 2.2-1.3 3.2-1.3 1.5-1.4 2.4-.3 6.4 1.1 4 1 5-.5 7.5-1.1 1.9-1.4 3.2-.7 3.6 2 1.3 1 4.6-2 6.3-2.5 1.4-3 2.3-3 5.7-.1 4.3-1.4 6.7-4.2 7.8-1 .3-1.8 1.6-1.8 2.7 0 1.5-.7 2-2.5 2-1.4 0-2.9.8-3.5 2-.6 1.1-2 2-3 2-1.1 0-2 .7-2 1.5s-.7 1.5-1.5 1.5c-1 0-1.5 1.1-1.5 3.5 0 4-1.7 4.6-4.4 1.6-.9-1-2.9-2.1-4.4-2.4-1.5-.2-3.5-.8-4.4-1.2-1.3-.5-1.8-.2-1.8 1 0 1.4-.6 1.6-3.2 1.2-1.8-.3-2.7-.3-2 0 1.9.7 1.4 2.3-.7 2.3-1.1 0-3.1-1-4.3-2.3-2.5-2.3-2.6-5.7-.2-5.7 1 0 1.3-.7.8-2.4-.3-1.3-.1-2.7.5-3 1-.6-.1-2.3-4.3-6.5-.9-.9-2.6-2.6-3.8-3.9-1.2-1.2-3.3-2.2-4.7-2.2-1.9 0-2.2.3-1.3 1.2.8.8 0 2-3.4 4.6-3.6 2.8-4.4 4-3.9 5.6 2.7 8.8 2.8 18.6 0 18.6-.7 0-1.8.6-2.4 1.4-.9 1-.8 1.6.4 2.6 2.9 2.4 1.2 8.9-2 7.7-1.3-.6-1.5-.3-1 1.5.6 1.8.4 2-1.4 1.5-1.6-.4-2.1-.1-2.1 1.4 0 2.3 3.6 3.4 9 2.6 2.2-.3 4.6 0 5.7.7 3.1 2.2 4.8 2.4 6.7 1 1.7-1.2 1.7-1.6.5-3.1-.8-.9-.9-1.4-.2-1 .7.4 1.8-.2 2.6-1.4 2.2-3 7.1-2.3 7.3 1.1.1 1.4-.3 3.1-.8 3.7-.6.7-.8 1.3-.4 1.3.3 0-.2.8-1.1 1.9-1.6 1.6-2.1 1.7-4 .5-1.4-.9-2.4-1-2.8-.4-.3.6-.1 1 .4 1 1.6 0 1.3 1.6-.4 3.4-.9.8-1.5 1.9-1.5 2.3.1.4-.4.9-1 1.1-.9.3-1-.5-.5-2.7.5-2.4.3-3.1-.8-3.1-.8 0-1.7.7-2.1 1.5-.3.8-1.5 1.5-2.6 1.5s-2 .7-2 1.5.6 1.5 1.4 1.5c1.7 0 4.9 4.7 4.1 6-.4.6-1.1.8-1.6.5-.5-.4-.9-.1-.9.4 0 1.5-3.7 1.4-4.7-.2-.4-.6-.8-2.6-.9-4.2 0-1.7-.5-3-1.1-3-1.8 0-9.5-8.4-9-9.8.4-1-.3-1.2-2.4-.9-1.6.2-2.9.8-2.9 1.3s-1.1.7-2.4.3c-2.2-.5-2.5-.2-3.1 3.6-.5 3.1-.3 4.6.9 5.9 2 2.2 2.1 4.1.1 4.1-1.1 0-1.2.5-.5 2.6.8 2 .6 3.1-1 5.1-1.7 2.2-1.8 2.7-.5 4 1.8 1.7 1.9 3.5.3 5.1-.9.9-.7 1.3.5 1.8 1.1.4 1.7 1.7 1.7 3.6 0 3.3 2.5 8.8 4.1 8.8.6 0 .8.4.4.9-.3.5.4 1.2 1.5 1.6 1.1.4 1.8.9 1.6 1.3-.2.4.2 1.3 1 1.9 2 1.9 2.8-.3 1-2.9-2.3-3.2-2.1-3.6 2.6-4.5 2.3-.5 4.2-1.5 4.4-2.3.2-.8.6-2.5 1-3.8.5-1.6.2-2.2-.9-2.2-1.4 0-3.7-2.8-3.7-4.4 0-.8 4.9 1.4 8.2 3.6 1.5 1 3.3 1.5 4.3 1.1 1.2-.4 1.6-.2 1.3.7-.9 2.7 3 5.1 7.2 4.6 2.6-.3 4.5 0 5.3.8 1 1.1 1.5 1 2.9-.7 2.2-2.4 2.2-2.7.4-4.1-1.8-1.4-2.5-5.8-1-6.3 1.9-.6 4.6 2.7 3.4 4.1-1.5 1.9-.2 2.6 4.8 2.6 3.8 0 4.9.5 8.1 3.7l3.6 3.8-2.6.3c-2.4.3-2.7.8-2.7 3.9 0 2 .6 6.4 1.2 9.7 1.2 5.6 1.5 6.1 4.1 6.4 1.6.2 3.4-.2 4-1 1.1-1.3 3.8-3.3 6.4-4.5 1.9-.9 4.5 1 4.9 3.6.4 2.8 2 2.7 3.4-.4.6-1.4 1.5-2.5 2-2.5.4 0 .8-1.1.8-2.5 0-3.7 2.9-7.8 4.5-6.5 1.7 1.4.7 5-1.1 4.3-.8-.3-1.4.1-1.4 1.1 0 .9.8 1.6 2 1.6 1.3 0 2-.7 2-1.9 0-2 5.3-7.1 7.3-7.1 2.2.1 4.7 2.7 4.2 4.2-.9 2.3 3.6 7.1 5.8 6.3 2.2-.9 2.2-2.5-.1-2.5-2.4 0-4.5-5.5-2.7-7 .7-.5 1-2 .8-3.3-.2-1.2.3-3.1 1.1-4.2 1.6-2 1.6-2 2.2.2.3 1.3 1.2 2.3 2 2.3 1 0 1.1-.6.4-2.5-.5-1.4-.6-2.5-.2-2.5 1.6 0 3.2 2.4 3.2 4.7 0 1.3 1.1 3.4 2.5 4.6 1.3 1.2 3.1 4.1 3.9 6.5 1.2 3.7 1.2 4.7-.1 7.2-1.2 2.6-1.2 3.3 0 5 .7 1.1 1.6 1.7 2 1.4.3-.3 1.5.4 2.7 1.6 1.6 1.6 2.5 1.9 2.9 1.1.4-.6 1.5-.9 2.4-.5 1 .4 1.7.1 1.7-.6 0-1 .3-1 1.4-.1 1.3 1.1 1.2 1.5-.5 3.2-1.1 1.1-2.5 1.7-3.2 1.2-1.8-1 1.2 2.6 6.1 7.4 2.3 2.3 4.2 4.9 4.2 5.8 0 .8.3 1.5.8 1.6.4 0 1.8.3 3.2.6 3.3.8 5.7.7 10.5-.1 3.3-.6 4.4-.4 6.2 1.3 2.7 2.5 4.3 2.7 4.3.5 0-1.4.2-1.4 1.6-.3.9.7 2 2.4 2.5 3.7.5 1.3 1.4 2 2 1.7.6-.4 1.6.1 2.3 1 1.7 2.4 6.5 2.8 9.4.9 1.8-1.2 2.1-1.9 1.3-2.7-1.5-1.5-1.4-2.7.4-2.7.8 0 1.5-.5 1.5-1 0-1.5 2.6-1.2 4 .5s6.5 2.1 5.5.5c-.3-.6-.1-1 .6-1 .8 0 .5-.7-.6-2-2.3-2.5-1.3-5.4 1.6-4.5 1.3.4 2.5.1 3.2-.9 1.5-1.9 7-2.4 8.9-.8 2.1 1.7 9.2-1.3 10.9-4.5.8-1.4 2.4-2.9 3.7-3.4 1.3-.5 2.6-1.7 2.9-2.7.2-.9 2.2-2.7 4.3-4 4.2-2.4 5.7-5.5 4.6-9.7-.5-2-.3-2.5 1.4-2.5 1.2 0 2.6-1.2 3.6-3.3 2.2-4.2 2.1-4.2 4-2.6 1.3 1.1 1.8 1.1 2.1.1.3-.6 1.3-1.2 2.4-1.2 1.2 0 1.9-.7 1.9-1.8 0-2.4 7.2-10.2 9.3-10.2 2 0 2.3-2.6.3-3.3-1.5-.6-2.9-4.7-1.5-4.7.6 0 .5-.9-.1-2s-1.6-1.8-2.1-1.4c-.6.3-2.4-.6-4-2.2-1.6-1.5-2.9-2.3-2.9-1.6 0 .8-.8.8-2.9.1-2.2-.8-3.1-1.9-3.5-4.4-.4-1.8-2-4.9-3.6-7-1.6-2-3.4-5.2-4-7-.8-2.5-2.2-3.9-5.4-5.4-2.3-1.2-4.7-2.1-5.4-2.1-.6 0-1.5-.8-2.1-1.7-.8-1.5-1.2-1.6-3.8-.3-2.9 1.4-7.4 1.4-8.3 0-.3-.4-1.5-1.2-2.8-1.9l-2.3-1.2 2.9-3.7c1.6-2 3.2-5 3.6-6.5.6-2.5.3-2.9-2.9-4.3-1.9-.8-3.5-1.9-3.5-2.6 0-.6-.8-2-1.7-3-1.6-1.8-1.5-1.9.5-3.4 2.1-1.4 2.1-1.7.8-4.2-.8-1.5-1.7-3.5-2-4.5-.3-.9-1.4-1.7-2.5-1.7s-2.9-1.3-4.1-2.9c-1.9-2.7-1.9-3.1-.4-3.9 1-.6 1.5-1.6 1.1-2.5-.3-.9.1-1.8.9-2.1.8-.3 1.4-1.8 1.4-3.5 0-2.3-.7-3.3-2.7-4.3-3.9-1.8-3.9-5.9-.1-6.9 3-.8 9.1-6.3 8.1-7.3-.4-.3-1.3-.6-2.2-.6-1.7 0-4.4-4.7-3.5-6.1.7-1.2 3.4-1.1 3.4.1 0 .5.6 1 1.4 1 .7 0 2 1.5 2.7 3.2l1.4 3.3.5-4c.4-3.5.9-4.1 3.8-5 1.7-.5 3.2-1.2 3.2-1.5 0-.4 1.5-.6 3.2-.5 1.8.1 4-.3 5-.8 1.2-.8 2.1-.7 3.4.4 1.6 1.3 1.6 1.2 0-1.9-1-1.9-1.5-3.9-1.3-4.5.2-.7.4-1.7.3-2.2-.1-1-.5-1.1-3.3-1.4-.7 0-2-1.3-2.9-2.7-1.6-2.4-1.6-2.7 0-5.5 1.7-2.8 1.7-2.8-1-3.5-1.7-.5-2.2-.9-1.3-1.4.7-.5 1.8-.6 2.6-.3 2.4.9 4.2-2.8 3.7-7.6-.4-3.5 0-4.9 1.7-6.8 2-2 2.1-2.6.9-4.7-.7-1.4-1.8-2.2-2.6-1.9-1.7.6-3.7-4.2-3.1-7.4.3-1.4-.4-3-1.9-4.4-1.3-1.3-2.4-3.1-2.4-4.1 0-1.2-.7-1.8-2.3-1.8-2.2 0-5.7-2.7-5.7-4.4 0-.4.9-.4 2-.1 1.6.5 2 .2 2-1.9 0-2.2.5-2.6 3.3-2.7 1.7-.1 4-.1 5 0 1.1.2 1.7-.5 1.7-1.8 0-1.4.6-2.1 2-2.1 1.3 0 2-.7 2-2s.7-2 1.8-2c1.5 0 1.8-.6 1.4-3-.4-2.9-2.2-5.3-2.2-2.9 0 1.8-3-1.1-4.1-3.9-.7-1.8-.5-3.1.6-4.9.9-1.4 1.4-3.2 1-4.1-.4-.9-.9-3.3-1.2-5.2-.2-1.9-1.1-4-1.9-4.6-1.6-1.2-2-5.9-.4-4.9.5.3 1.9.1 3-.5 1.5-.8 1.9-1.8 1.5-4.5-.2-1.9 0-3.7.5-4 1.3-.8 0-3.6-3.2-6.7-1.5-1.4-2.8-3.3-2.8-4.2 0-.9-.6-1.6-1.3-1.6-.8 0-1.9-1.1-2.5-2.5-1.8-3.9-1.4-5.3.7-2.8 2.5 3 2.9 2.9 2.8-1-.1-2.3 1.2-5.4 4-9.8 3.9-6.2 4.2-6.4 8.2-6.3 2.2 0 4.1-.3 4.1-.8s.5-.6 1-.3c.6.3 1-.3 1-1.4 0-2.3 2.2-4.1 2.8-2.3.8 2.4 2.4 1.2 1.8-1.3-.5-1.9-.3-2.3.8-1.9.9.3 1.8 1.4 2.1 2.4.9 2.9 4.3 5.3 7.9 5.5 2 .1 3.3-.2 3-.7-.7-1.1 1.3-1 5.4.1 3.9 1.1 4.2-.2 1-3.6-2.5-2.7-2.3-2.7 7.9-.8 9.8 1.9 9.6 1.9 9-.5-.7-2.7.5-2.5 3.3.5 1.8 1.9 2.6 2.2 3.7 1.3.7-.6 1.1-1.3.8-1.6-.3-.3.2-1.6 1.1-2.9 1.4-2.3 1.4-2.5-.5-3-1.2-.3-2.1-1-2.1-1.5 0-.6-.7-.5-1.5.2s-1.5.9-1.5.4-.4-.3-.9.4c-.6 1-1.2.6-2.5-1.4-1-1.4-1.3-2.3-.6-1.9 2.3 1.4 2.8-1.8 1-6-3.5-8.1-1.7-17.5 3.3-17.5 3 0 4.3-1 5-4.1.4-1.5 1.6-2.9 2.7-3.2 2.7-.7 2.6-3.8-.2-6.8-7.9-8.5-8-8.6-7.3-11.9.5-2.1 1.1-3 2.1-2.6 1.8.7 1.8-2.3 0-4.7-1.2-1.6-1.1-2.1 1.1-4.5 3.5-3.7 4.3-6.3 2.8-8.7-.7-1.1-1.2-3.5-1.1-5.3.2-1.8-.1-3.5-.5-3.7-.4-.3-.5-1.3-.3-2.3.4-1.3-.7-2.2-4.2-3.7-2.6-1.1-5.9-3-7.3-4.3-1.4-1.3-3.8-2.6-5.3-2.9-1.5-.3-3.3-1.2-3.9-1.9-.6-.8-1.9-1.4-2.9-1.4s-2.3-.7-3-1.5c-.7-.8-1.8-1.5-2.4-1.5-2.1 0-9.1-4.2-11.7-7-1.7-1.9-4-2.9-7.2-3.4-5.1-.8-6.5-2-4.7-4.1.7-.8 1-1.9.8-2.4-.1-.5-1.1.2-2.1 1.5zm-94.2 64.6c-.4 3.3-.4 3.4-1.5 1.8-1.4-2.2-1.2-4 .4-4 .8 0 1.2.9 1.1 2.2zm138.5 55.8c0 .5-.5 1-1.1 1-.5 0-.7-.5-.4-1 .3-.6.8-1 1.1-1 .2 0 .4.4.4 1zm-71 104.4c0 .3-.4.8-1 1.1-.5.3-1 .1-1-.4 0-.6.5-1.1 1-1.1.6 0 1 .2 1 .4zm-18.3 35.2c-1 1-4.8-2.7-4.1-3.8.4-.6 1.6-.1 2.7 1.1 1.2 1.1 1.8 2.4 1.4 2.7zm7.5 38.6c.6 1.8-2 4.1-3.8 3.4-1.2-.4-1.3-1-.4-2.6 1.2-2.2 3.6-2.7 4.2-.8zm-23.1 32.2c-1.1 1.3-.6 1.8 3.3 3.7 2.5 1.2 4.6 2.5 4.6 3 0 2.2-8.7 2.2-11.4-.1-2.4-1.9-2-6.5.7-8.3 2.6-1.8 4.6-.5 2.8 1.7zm-57.4 56.2c-.9 1-3.8-1.6-3.1-2.8.4-.6 1.3-.4 2.2.6.9.8 1.3 1.9.9 2.2zm139.3 17.9c0 .8-.4 1.5-1 1.5-.5 0-1-.7-1-1.5s.5-1.5 1-1.5c.6 0 1 .7 1 1.5zm-23 5.8c0 .5-.4.5-1 .2-.5-.3-1-1.4-1-2.3 0-1.5.2-1.5 1-.2.5.8 1 1.9 1 2.3zm-171 10.7c0 3.2-.9 3.7-2.8 1.8-1.5-1.5-1.6-3.2-.2-2.3.6.3 1-.1 1-.9 0-.9.5-1.6 1-1.6.6 0 1 1.3 1 3zm168.4 11.6c.3.8.2 1.2-.4.9-.6-.3-1-1-1-1.6 0-1.4.7-1.1 1.4.7zm-1.4 2.4c0 .5-.5 1-1.1 1-.5 0-.7-.5-.4-1 .3-.6.8-1 1.1-1 .2 0 .4.4.4 1zM109.428 51.743c-.9 2.1.7 4.9 2.2 4 .8-.5.8-1.4-.2-3.2-1.2-2.1-1.5-2.3-2-.8z"/><path d="M164.428 51.543c-.3.6-1.8.7-3.2.4-1.8-.5-2.4-.3-1.9.5.9 1.4-.7 1.4-2.2-.1-.8-.8-1.5-.8-2.4 0-2.1 1.7-9.9 4.1-11.5 3.5-1.2-.5-1.4.2-1.2 3.1.3 3.3 0 3.9-3.6 6.1l-4 2.4 3.2.1c2.6 0 3 .3 2.6 1.9-.3 1 0 2.2.6 2.5.6.4 1.1 2.3 1.1 4.2 0 2.7.5 3.6 2.3 4.3 4.3 1.6 7.9 9.9 5.6 12.7-.7.9-.8 1.4-.1 1.4.6 0 1.3.9 1.7 1.9.3 1 1.3 2.2 2.3 2.5.9.3 3.1 1.4 4.9 2.5 3.7 2.3 4.1 1.7 3.5-5.5-.3-4.2-.8-5.4-2.6-6.2-1.3-.6-2.6-1.9-2.9-3.1-.4-1.6.2-2.2 2.9-3.1 3.3-1.1 6-4.1 4.7-5.4-.3-.3.5-.6 1.8-.6 1.4 0 3 .5 3.5 1 1.5 1.5 4.4.1 4.4-2 0-1 .7-2.3 1.6-3.1 1-.8 1.3-2.1.9-3.6-.5-2-.2-2.3 2.4-2.3 2 0 3.2-.6 3.6-1.9.3-1 1.4-2.1 2.5-2.4 2.4-.6 3.8-5.6 1.9-6.8-1-.6-1.5-.3-1.7 1.2-.4 2-.4 2-2.4.2-1.5-1.3-2.2-1.5-2.5-.6-.7 2.1-2.3 1.5-3.3-1.2-.5-1.4-1.7-2.5-2.7-2.5-1 0-2.7-.7-3.7-1.5-2.3-1.7-5.2-2-6.1-.5zM191.128 55.043c-1 1.2-.9 1.6.7 2.5 3.4 1.8 4.2.8 1.9-2.2-1.1-1.4-1.5-1.5-2.6-.3zM247.428 55.543c.3.5 1.1 1 1.6 1 .6 0 .7-.5.4-1-.3-.6-1.1-1-1.6-1-.6 0-.7.4-.4 1zM112.928 57.343c0 .4.5 1.3 1.2 2 .9.9.7 1.2-1 1.2-1.4 0-2 .5-1.6 1.4.3.8 1.2 1.2 2 .9.8-.3 2-.1 2.7.5.6.5 2.7 1.2 4.5 1.4 2.7.4 3.2.2 2.6-1.1-.4-.9-.6-2.3-.6-3.3.1-1.8-3.7-3.2-6.2-2.2-.9.3-1.6.1-1.6-.5s-.4-1.1-1-1.1c-.5 0-1 .4-1 .8zM194.928 61.543c0 .5.7 1 1.6 1 .8 0 1.2-.5.9-1-.3-.6-1-1-1.6-1-.5 0-.9.4-.9 1zM127.928 68.043c0 1.6 1.6 2 2.4.6.3-.5-.1-1.1-.9-1.5-.9-.3-1.5 0-1.5.9zM305.928 108.543c0 .6.7 1 1.5 1s1.5-.2 1.5-.4-.7-.6-1.5-1c-.8-.3-1.5-.1-1.5.4zM118.428 136.443c-.6 1.1.9 2.3 1.9 1.4.9-.9.7-2.3-.3-2.3-.6 0-1.2.4-1.6.9zM245.528 259.343c-1 1.6 2.5 5.3 4.3 4.7 1-.3 2.4.1 3.1 1 1.6 1.9 2.7 1.9 2.7.1 0-.8-.3-1.5-.6-1.4-2 .2-3.1-.3-2.6-1.2.3-.6-.3-1-1.3-1-1.1 0-2.2-.7-2.6-1.5-.6-1.6-2.2-2-3-.7zM192.928 300.043c0 1.6 1.6 2 2.4.6.3-.5-.1-1.1-.9-1.5-.9-.3-1.5 0-1.5.9zM191.428 303.543c-.3.5-.1 1 .4 1 .6 0 1.1-.5 1.1-1 0-.6-.2-1-.4-1-.3 0-.8.4-1.1 1zM187.928 308.043c-1 1.2-1 1.5.4 1.5.9 0 1.6-.7 1.6-1.5s-.2-1.5-.4-1.5-.9.7-1.6 1.5zM108.028 323.143c0 1.1.3 1.4.6.6.3-.7.2-1.6-.1-1.9-.3-.4-.6.2-.5 1.3zM204.928 327.543c0 .5.7 1 1.6 1 .8 0 1.2-.5.9-1-.3-.6-1-1-1.6-1-.5 0-.9.4-.9 1zM105.928 331.143c0 2 2.8 2.4 3.3.5.3-1.1-.2-1.7-1.4-1.7-1.1 0-1.9.6-1.9 1.2zM204.828 331.243c.6 1.3 1.9 2.3 2.8 2.3.9 0 1.4-.1 1.2-.3-.2-.1-1.5-1.1-2.8-2.2l-2.4-2 1.2 2.2zM223.128 350.643c.2.7 1 1.5 1.7 1.7.8.3 1.2-.1.9-.9-.2-.7-1-1.5-1.7-1.7-.8-.3-1.2.1-.9.9zM32.928 425.443c0 .5 1.4 1.6 3 2.5 1.7.8 3 1 3 .5 0-.4-1.3-1.5-3-2.4-1.6-.9-3-1.1-3-.6zM8.728 429.243c.6.2 1.2 1.1 1.2 1.8s.7 1.6 1.6 1.9c.9.3 1.2.2.9-.5-.4-.5-.2-1.5.3-2.2.8-.9.2-1.2-2.1-1.4-1.8 0-2.6.1-1.9.4zM124.428 467.543c.3.5.8 1 1.1 1 .2 0 .4-.5.4-1 0-.6-.5-1-1.1-1-.5 0-.7.4-.4 1zM28.128 479.743c-.7.7-1.2 2.2-1.2 3.5 0 1.3-.6 2.3-1.4 2.3-1.1 0-1.4 1-1.1 4 .3 3.1.1 4-1.1 4-1 0-1.4-.6-1.1-1.5.4-.8.1-1.7-.5-2.1-.6-.4-.8-.3-.5.3.4.6-.2 1.3-1.3 1.6-1.1.3-2.3.1-2.6-.4-1-1.7-2.5-.9-1.9 1 .3 1.2 0 2.3-.8 2.8-.8.4-2.2 2.2-3 3.9l-1.6 3.2 3.6.7c3.1.6 3.9.3 5.4-1.6 1-1.3 1.5-2.7 1.3-3.1-.3-.4.1-.8 1-.8.8 0 1.7-.6 1.9-1.3.4-.9.8-.8 1.6.3 1 1.3 1.1 1.3 1.2 0 .1-.8.1-2 0-2.6-.1-.6 1.1-1.6 2.5-2.3 2.5-1.1 2.6-1.5 1.9-5.4-.3-2.3-.7-5-.8-6-.2-2 0-2-1.5-.5zM72.428 484.443c-.3.5-.1 1.2.5 1.6.5.3 1-.1 1-.9 0-1.8-.6-2.1-1.5-.7zM30.928 494.843c0 .6-1.3 1.8-3 2.5-3 1.4-3.9 3.5-2 4.7 1.7 1.1 1.1 4.3-.9 5-2.3.7-1.7 3.5.8 3.5 3 .1 6.4 3.8 5.8 6.5-.2 1.4-.1 2.8.4 3.1.4.2.6 1.1.3 1.8-.3.8 1.7 3.5 4.5 6.2s5.3 6.1 5.6 7.5c.4 1.5 1.5 3.5 2.6 4.5 1 .9 1.9 2.2 1.9 2.9 0 1.8 3 7.5 4 7.5.5 0 1.2-.5 1.6-1.1.3-.6 1.6-.8 2.8-.5 1.3.3 3.2-.1 4.5-1 2.1-1.5 2.4-1.5 3.8.6 1.3 1.8 2.1 2 5.3 1.5 2.6-.4 4.8-.1 6.9 1 1.8.9 3.5 1.3 4 1.1.5-.3 1.4.1 2.1.9.7.8 1.8 1.5 2.6 1.5.7 0 1.9.8 2.6 1.8 1.4 2 5.8 4.7 5.8 3.6 0-.3.6-.1 1.4.5 2.3 1.9.1 7.1-3 7.1-1.8 0-2.4.5-2.4 2.3 0 1.9-1.2 3-5.7 5.2-3.2 1.6-6 3.3-6.4 3.7-.3.4-1.9.4-3.7-.1-1.8-.5-3.2-.7-3.2-.5 0 1.2 10.3 10.4 11.6 10.4.8 0 2.1 1.4 2.8 3.2 1.3 3.1 1.4 3.1 2.5 1s1.3-2.1 4.1-.7c3.7 1.9 5 1.9 5 0 0-.8.3-1.6.8-1.6 4.4-.8 7.5-1.1 11.7-1.1 2.8 0 5.3-.6 5.7-1.2 1.2-1.7.9-6.1-.4-7.4-1.6-1.6-.4-2.6 1.9-1.4 1.7.9 1.8.7 1.4-3.1-.2-2.9.1-4.4 1.3-5.3.9-.6 2.1-2.6 2.6-4.4.7-2.6.6-3.8-.9-5.9-1-1.4-2.1-3.9-2.5-5.6-.7-2.9-.7-2.9 1.3-1 1.6 1.4 2.4 1.6 3.3.7.9-.9.5-1.4-1.3-2.1-1.3-.5-1.9-1-1.2-1 2.4-.2.1-7.5-3.4-10.8-3.5-3.5-4.9-4-5.5-2.2-.3.9-1 .9-2.6 0-1.2-.7-2.7-.9-3.2-.6-.5.3-3-.8-5.6-2.5-2.6-1.6-5.3-3-5.9-3-.7 0-1.7-1.8-2.3-3.9-.7-2.2-2.3-4.6-3.9-5.6-2.3-1.5-2.4-1.9-1-2.7 1-.5 1.7-1.7 1.7-2.7 0-1.4-.6-1.7-2.5-1.3-1.4.2-2.5 0-2.5-.5 0-.9-3.9-1-6.5-.3-.5.2-1.7.1-2.5-.3-3.9-1.5-12.1-2.9-18-3.1-5.9-.1-6.5-.3-6.8-2.3-.2-1.2-1.1-2.4-2-2.7-1-.3-3.2-2.9-5.1-5.7-2.4-3.7-3.6-4.8-4.4-4-1.7 1.7-2.7 1.3-3.7-1.4-1-2.6-3-3.4-3-1.2zM5.228 503.243c.9.2 2.3.2 3 0 .6-.3-.1-.5-1.8-.5-1.6 0-2.2.2-1.2.5zM97.928 510.243c0 1.1.5 1.1 2 .3 1.1-.6 2-1.2 2-1.3 0-.2-.9-.3-2-.3s-2 .6-2 1.3zM9.928 510.243c-1.7.3-3.1 1.6-4.2 4-1.5 3.2-1.5 4-.3 6.9 1.1 2.6 1.1 3.6.1 5-.7.9-1.7 1.5-2.2 1.2-1.6-1-2.9 1.6-3.2 6.4-.3 3.9-.1 4.8 1.2 4.8 1 0 1.6-.9 1.6-2.3 0-1.2.9-2.8 2-3.5 1.1-.7 2-2.3 2-3.6 0-1.8.6-2.5 2.3-2.8 1.7-.2 2.3-1.1 2.5-3.6.2-1.8.8-3 1.3-2.6.5.3 2.4-.7 4.2-2.2 1.9-1.7 2.4-2.5 1.2-2-4.4 1.8-5.5 1.8-5.5.3 0-.8-.7-2-1.5-2.7-1.3-1.1-1.3-1.4.2-2.6 1-.7 1.6-1.3 1.3-1.2-.3 0-1.6.3-3 .5zM93.628 511.943c-.7 1.8.1 2.6 2.5 2.6s2.3-1.7-.1-2.9c-1.4-.8-2-.7-2.4.3zM1.928 545.643c0 .5.5.7 1 .4.6-.3 1-.8 1-1.1 0-.2-.4-.4-1-.4-.5 0-1 .5-1 1.1zM119.928 583.543c0 .5.5 1 1.1 1 .5 0 .7-.5.4-1-.3-.6-.8-1-1.1-1-.2 0-.4.4-.4 1z"/></g></svg>