<svg version="1" xmlns="http://www.w3.org/2000/svg" width="591.389" height="680.304" viewBox="0 0 443.542 510.228"><g fill="#222"><path d="M361.139 1.622c-3.9 3.9-4.9 4.4-7.3 3.5-2.9-1-4.6-.1-3 1.8 2 2.4-1.8 1.7-4.1-.9l-2.1-2.2-1.9 2.2c-1 1.3-2.9 2.3-4.4 2.3-1.8 0-3 .8-3.7 2.3-1.2 2.7-5.9 5-8.4 4.1-1.1-.5-2.1-.1-2.7.9-.5 1-1.5 1.7-2.3 1.7-.7 0-1.5.5-1.7 1.1-.5 1.4-4.8-.6-4.8-2.1 0-.6-1.1-1-2.5-1s-2.5.4-2.5 1c0 .5-1 2.1-2.2 3.5-2.5 2.9-4.8 1.9-4.3-2 .4-3.8-1.7-3-4.8 1.7l-2.8 4.3 2.6 2c1.4 1.2 2.5 2.4 2.5 2.8 0 .5 1.1 2.4 2.4 4.4 2.2 3.2 2.6 7 .6 5.8-.4-.3-1 .2-1.4 1-.9 2.5-2.6 1.7-2.7-1.3 0-1.5-.3-2.1-.6-1.5-.2.7-1.6 1.3-2.9 1.3-2.2 0-3.4 2.3-1.6 3.3.4.2.1.2-.5.1-.7-.2-1.8.6-2.4 1.7-.6 1.2-1.7 1.8-2.5 1.5-.9-.3-1.2-.1-.9.4 1.2 1.9-1.9 1-5.7-1.6l-3.8-2.7-2.1 2.7c-1.1 1.4-2.6 2.5-3.2 2.4-.7-.1-2.4.6-4 1.6-2.1 1.5-3 1.6-4.2.6-.8-.6-2.3-.9-3.6-.5-1.1.4-3.6.7-5.5.7s-3.4.4-3.4.8c0 2 1.3 4 2.7 4 .8 0 2.6.9 4 2s3.8 2 5.3 2 3.9.9 5.4 2.1c1.5 1.2 2.6 1.6 2.6.9 0-.8 1-1 2.5-.8 2.2.5 2.4.2 1.9-1.8-.5-2.1-.3-2.4 2.4-2.4 1.7 0 4.3-.5 5.8-1 2.1-.8 3.1-.7 4.5.6 1.7 1.5 2.9 1.6 10.9.6 10.6-1.3 13.4-2.5 12.5-5.3-.6-1.8-.5-1.9 1.4-1 1.2.7 2.1 1.6 2.1 2.1s1.1.9 2.5.8c1.4-.1 2.5-.9 2.5-1.6 0-.8.6-1.2 1.4-.9.7.3 1.8.1 2.4-.5 1.2-1.2 2.1.1 2.8 3.8.6 3.4-.9 5-5.2 5.9-2.6.4-3.3.9-2.6 1.8.6.7 1.4 2.8 1.9 4.7.9 3.2 1.3 3.5 4.6 3.4 3.7-.1 5.7 2 3.8 3.9-1.3 1.3 3.2 3.7 5.9 3.2 2.3-.4 2.3-.4 1 2.9-.7 1.9-1.7 2.6-3.5 2.6-2 0-2.5.5-2.5 2.4 0 2-.6 2.4-4.1 3-2.2.4-4.4.4-4.9.1-.4-.3-.6.4-.3 1.6.4 1.3 1.3 1.9 2.7 1.8 1.1-.2 3 0 4.2.4 2.2.8 10-2.2 14.6-5.6 2.7-2 2.8-4.7.1-4.7-.9 0-1.3-.6-.9-1.5.3-.8-.4-2.1-1.6-2.9-2-1.4-2-1.6-.3-2.2 1.3-.5 2.4 0 3.9 1.9 1.2 1.5 2.7 2.7 3.3 2.7.6 0 1.7 1 2.5 2.2 1.4 2 1.4 1.9 1.2-2.5-.2-2.7.1-4.7.7-4.7s.8-.4.4-.9c-.3-.5 0-1.3.7-1.8 2.4-1.4 3.8-1.1 3.8.9 0 1.1 1 2.8 2.3 3.8 1.2 1 1.9 2.2 1.4 2.6-.4.4-1.3.2-1.9-.4-1.9-1.9-2.9-1.4-2.2 1.3.5 2 .3 2.5-1.4 2.5-1.8 0-1.9.3-.9 2.9.9 2.6 1.6 2.9 6.8 3.5 6.3.6 8.9.1 8.9-1.9 0-.8.9-1.1 2.4-.8 2.4.5 2.4.4 1.4-3.1-.9-2.7-.8-4.2.1-5.9 1.5-2.9.9-9.6-1.3-13-1.4-2.1-2.3-2.5-4.6-2.1-2.2.5-3.1.1-3.9-1.5-1.1-1.9-1.4-2-3.4-.7-2.7 1.8-10.3 1-11.1-1-.3-.8-.1-1.4.4-1.4.4 0 .1-1.4-.7-3.2-1-1.9-1.2-3.3-.6-3.5 1.2-.4-3.3-15-5.2-17.3-.8-.8-1.7-2.7-2-4.3-.4-1.5-1.1-3-1.6-3.3-.5-.3-1.4-1.5-2-2.6-1-1.9-.9-2.1 1.8-1.5 2.2.4 3.2.1 4.1-1.4.7-1 1.9-1.9 2.7-1.9.9 0 2.1-1.1 2.7-2.5.6-1.4 1.7-2.5 2.4-2.5s1.6-.9 1.9-2c1.1-3.4 3.8-4.1 7.4-1.9 5.6 3.4 8.6 1.6 4.7-2.9-1.2-1.3-2.3-3.2-2.6-4.2-.5-1.8-.6-1.8-2.6.3zm-23.9 66.7c.3.5.2 1-.4 1-.5 0-1.3-.5-1.6-1-.3-.6-.2-1 .4-1 .5 0 1.3.4 1.6 1zm14 2c.3.5.1 1-.4 1-.6 0-1.1-.5-1.1-1 0-.6.2-1 .4-1 .3 0 .8.4 1.1 1z"/><path d="M297.839 28.922c0 1.1.3 1.4.6.6.3-.7.2-1.6-.1-1.9-.3-.4-.6.2-.5 1.3zM229.139 51.222c-.1 1.5-1.3 4.4-2.7 6.2-3.5 4.7-4.8 8.4-3.5 9.7.9.9 1.5.8 2.5 0 .7-.6 1.6-.8 1.9-.5.3.3-1.2 1.8-3.5 3.4-2.2 1.5-4 3.6-4.1 4.5 0 1-.4 1.8-1 1.8-.5 0-.7.7-.3 1.5.3.9.2 1.5-.3 1.4-2.3-.4-4.5.2-3.9 1.1.7 1.2 5.5 1.3 7.1.2.7-.4 1.3-1.6 1.6-2.7.2-1.5 1-1.9 3.1-1.7 2.2.3 2.7-.1 2.7-1.7 0-1.3.6-2.1 1.6-2.1 2.6 0 5.3-4.2 5.4-8.2 0-2 .5-4 1-4.3 2-1.2.9-4-3.1-7.7-2.2-2.1-4.1-3.8-4.2-3.8-.1 0-.2 1.3-.3 2.9zM249.039 50.222c.1 1.2.7 2.1 1.4 2.1 1.7 0 1.6-1.5-.1-3-1.2-.9-1.5-.8-1.3.9zM99.739 74.322c0 .5-.6 1-1.4 1-.7 0-1.9.7-2.7 1.6-.8 1-2.2 1.4-4.1 1-2.5-.5-2.7-.4-1.8 1.8 1 2.7.5 3.7-1.6 2.9-1-.3-1.2 0-.8 1 .3.9-.2 1.7-1.3 2.1-2.3.7-4.6 6-3.8 8.6.3 1.1.3 2-.2 2-.4 0-.9 1.6-1.1 3.6-.2 2.9 0 3.4 1.1 2.6.7-.6 2.4-.8 3.6-.5 2.3.6 2.3.7.6 1.9-1.5 1.1-1.6 1.8-.8 3.7 2 4.4-2.3 6.9-6.4 3.7-1.4-1.1-2.9-1.7-3.4-1.4-.5.3-1.5.2-2.1-.2-.7-.5-2.4-.8-3.8-.8-1.9 0-2.8-.7-3.6-3-.6-1.9-2.3-3.8-4.5-4.8-1.9-1-3.4-2.2-3.4-2.7s-.3-1.3-.7-1.7c-.5-.4-.8-1.9-.8-3.3s-.5-3.3-1-4.1c-.8-1.3-1-1.2-1 .2 0 1-.4 1.8-.9 1.8s-1.3.9-1.6 2c-.3 1.1-1.3 2.7-2.1 3.5-1.4 1.3-1.3 1.6.9 2.4 2.6 1 4.5 3.1 2.8 3.1-1 0-.8 7.7.3 8.7.3.4.6 1.7.6 3 0 1.8-.5 2.3-2.5 2.3-1.5 0-2.5.6-2.5 1.4 0 .7-1.1 2.1-2.5 3-1.4.9-2.5 1.2-2.5.6 0-.5-1.8-1-4-1-3.7 0-4 .2-4 2.7 0 2-.3 2.4-.9 1.5-.5-.8-1.6-1.2-2.5-1-1.4.2-1.1 1.2 1.8 6.1 1.9 3.2 3.3 6.4 2.9 7.2-.3.8-.1 1.5.4 1.5 1.9 0 4.5 7.6 3.8 10.9-.6 2.7-.3 3.3 2.4 4.9 2.8 1.5 3.1 2.2 3.1 6.3s-.3 4.8-2.4 5.3c-1.6.4-2.5 1.5-3 3.7-.3 1.7-.4 3.5-.1 3.9.3.5 0 2.1-.5 3.6-.8 2.1-.8 2.9.2 3.6 2.1 1.3 5.8.9 5.8-.6 0-2.6 4-3 6.4-.7 2.1 2 2.2 2 3.4.1 1-1.7 1.5-1.8 3.2-.8 1.1.7 2 1.6 2 2.1 0 .4 1.1 1.8 2.4 3 3.3 3 3.8 6.9.9 8.2-2.4 1-2.7 4.2-.3 5 .8.3 2.1 1.8 2.8 3.5 1.4 3.1 3.9 3.9 6 1.8.9-.9 1.2-.8 1.2.5 0 1.4.5 1.4 4.3-.6 3.4-1.8 4.3-2.8 4.5-5.5.3-2.8.7-3.2 3.1-3.2 3 0 6.7-3.2 5.6-4.9-.3-.6.5-1.5 1.8-2 1.4-.6 2.8-1.5 3.2-2.1.5-.7 2-.9 4.1-.5 2.1.3 3.4.2 3.4-.5 0-.5.9-1 2-1s2-.6 2-1.4c0-.7 1.1-2.1 2.5-3 1.8-1.2 2.5-2.5 2.5-4.7 0-2 .4-2.8 1.1-2.3.8.5 1-.6.7-3.5-.3-3.4-.1-4 1.3-3.6 2.4.8 4.3-1.9 3-4.4-1.5-2.8-1.4-3.3.7-2.2 3 1.6 12.5 1 15.2-.9 1.4-.9 3.4-2 4.6-2.4 2.6-.8 4.7-7.3 3.9-12-.5-2.6-.1-4.2 1.8-7.2 3.3-4.9 4.1-14 1.3-13.8-.9.1-2.4-.9-3.2-2.1-1.3-1.9-4.9-3.6-8.6-3.9-1.2-.1-7.8-6.6-7.8-7.7 0-1.6-3.6-5.9-4.3-5.2-.4.3-1.2.1-1.9-.5-.7-.5-2.4-1.2-3.8-1.4-3.7-.5-3.7-4-.1-9.8 1.7-2.8 2.7-5 2.3-5-.5 0-1.4-1.1-2-2.4-1.2-2.7-5.7-4.2-7.8-2.6-1.8 1.6-3 .6-4.4-3.5-1-2.9-1.6-3.5-4.1-3.5-1.6 0-2.9.4-2.9 1zM286.839 79.422c-2.4.5-5.1 1.5-6.1 2.4-.9.8-2.6 1.5-3.8 1.5-1.3 0-2.2.6-2.2 1.5 0 .8-.5 1.5-1 1.5-.6 0-.8 1.5-.4 4l.7 4-3.3-1.7c-3-1.4-3.5-1.4-5.9 0-3.4 2.1-3.6 3.2-1.1 5.7 2.3 2.3 2.4 5.1.2 13.5-.8 2.8-.8 4.3 0 5.2.8 1 .6 1.3-1 1.3-1.5 0-1.9.5-1.5 1.9.5 2-2.7 3.8-4.7 2.6-.9-.5-1.5 2.3-1.1 4.7 0 .5-.5.8-1.3.8-1.9 0-2.9 4.6-1.6 7 .6 1.1.9 2 .6 2-.2 0 .9 1.4 2.5 3.1 1.6 1.7 2.9 3.5 2.9 4s.9.9 1.9.9c1.1 0 2.2.9 2.6 1.9.3 1 1.6 2.1 3 2.3 2.5.5 2.5.6 2.8-15.9 0-2.9.4-3.3 3.4-3.9 1.8-.3 3.6-1 3.9-1.5.3-.5 1.2-.9 2-.9 1.7 0 7.5-3.8 8.7-5.8 1-1.5 7.6-4.4 8.7-3.7 1.6 1 3.2-2.5 2.6-5.6-.5-2.5-.2-3.2 1.3-3.6 1.3-.3 1.8-1 1.4-2.1-.5-1.1-.2-1.4.9-.9 1.1.4 1.8-.1 2.2-1.7.5-1.9 1.1-2.2 3.5-1.8 2.7.4 3.2 0 4.7-3.1 1.1-2.4 3-4.1 5.7-5.3 2.2-1 3.3-2 2.6-2.2-.8-.3-2.5-1.5-3.9-2.8-1.4-1.3-4.1-2.5-6.1-2.7-2-.2-4.7-1.1-6-2-1.3-1-3.3-1.7-4.4-1.7-1.1 0-3.3-.9-5-2-1.6-1.1-3.2-1.9-3.5-1.9-.3.1-2.5.5-4.9 1zM212.439 82.722c-.6 1.6.2 2.8 1.4 2 1.2-.7 1.1-3.4 0-3.4-.5 0-1.1.6-1.4 1.4zM408.439 83.022c-1.4 1.4-5.4 1.9-7.7.9-1.2-.5-1.8.2-2.5 2.6-.9 2.8-1.5 3.3-4.2 3.3-1.8.1-3.5.4-3.9.8-.4.4.7.7 2.4.7s3.4.5 3.8 1.2c1 1.6 3.4-1.9 2.7-4-.3-1 .9 0 2.6 2 1.7 2 4.1 3.8 5.4 4 1.5.2 2.5 1.4 3.3 3.7.8 2.6 1.7 3.5 3.7 3.7 1.5.1 2.7-.2 2.7-.7 0-1.2 4.2-.1 5.1 1.4.4.5 1.1.7 1.7.3.6-.3 2.2-.2 3.7.4 2.1.8 3.1.6 5.5-1.2 3.2-2.3 3.6-3.4 1.9-5.8-.8-1.1-1.2-1.2-1.6-.3-.2.7-1.5 1.3-2.9 1.3-1.7 0-2.5-.7-3-2.6-.4-1.5-1.2-2.3-2-2-2.3.9-6.2-3.2-6.9-7.3-.6-3.9-.8-4-4.6-3.8-2.1.1-4.5.7-5.2 1.4zM381.739 86.722c0 .2.9.6 2 .9 1.1.3 2 .1 2-.4s-.9-.9-2-.9-2 .2-2 .4zM372.539 89.522c-2.1 2.1-1 2.4 1.7.5 1-.8 1.4-1.6.9-1.9-.5-.3-1.7.3-2.6 1.4zM209.239 90.922c-1.1.8-2.6 1.2-3.5.9-1.2-.5-1.3-.4-.2.6.6.7 1.2 2.2 1.2 3.3.1 3.2 2.4 5.8 3.8 4.4.7-.7 1.2-2 1.2-2.9 0-1 .4-2 .9-2.3.9-.6.4-4.3-.8-5-.3-.2-1.5.2-2.6 1zM359.939 96.022l-2.4 2.6 2.7-.7c1.9-.5 3.3-.2 4.6 1 1.1.9 1.9 1.2 1.9.6s-.4-1.4-1-1.7c-.5-.3-1-1.5-1-2.6 0-2.6-2-2.2-4.8.8zM439.439 95.922c.3.8 1.2 1.3 2 1 .8-.3 1.7-.6 1.9-.6.3 0 .2-.5-.1-1-1.1-1.7-4.5-1.2-3.8.6zM436.739 98.322c0 .5.5 1 1.1 1 .5 0 .7-.5.4-1-.3-.6-.8-1-1.1-1-.2 0-.4.4-.4 1z"/><path d="M179.739 101.522c0 3.5-1.5 5.1-3.9 4.3-1.5-.5-2.1-.2-2.1.9 0 1.4-.7 1.3-5-.4-6.7-2.6-9.4-2.6-8.7 0 .4 1.4 0 2-1.3 2-1.8 0-5.1 7.1-5.4 11.7 0 1.3-.3 2.3-.6 2.3s-.6.9-.7 2c-.1 1.1.2 1.8.7 1.5.5-.3 1.1-.1 1.5.5.4.6 1.1.8 1.6.4.5-.3.7-.9.4-1.4-.3-.4.8-2.2 2.4-3.9 4-4.3 7.5-4.1 10 .6 1 1.9.9 2.3-.3 2.3-1.8 0-2.6 2.2-2.6 7 0 2.4-.5 4-1.5 4.4-.8.3-1.5 1.1-1.5 1.9 0 .7-1.1 2.3-2.5 3.5-1.4 1.2-2.5 2.9-2.5 3.8 0 1.3-.7 1.5-3.5 1.1-3.2-.5-3.5-.4-3.5 1.8 0 1.7-.9 2.9-3.2 4.1-3.9 2-5.7 4.2-5.8 6.8 0 1.3-.5 1.6-1.7 1.2-.9-.4-2-.1-2.4.6-.7 1-1.1 1-2.1 0-1.9-1.9-2.6-1.5-2.1 1.2.4 1.7-.1 2.7-1.6 3.5-1.2.7-2.1 1.7-2.1 2.3 0 1.9-5.2 6.8-7.2 6.8-1 0-1.7.3-1.6.7.4 1.9-1.6 6.3-3.6 8.2-1.9 1.8-2.7 2-4.7 1.1-3.7-1.7-7.7.2-9.5 4.5-.8 1.9-2.5 4.2-3.9 5.1-1.8 1.2-2.3 2-1.5 2.9 1.6 1.9.1 7.5-2.1 7.5-1 0-2.1.9-2.4 2-.3 1.1-1.4 2-2.3 2.1-1.1 0-1.2.3-.4.6.6.2 1.2 1.4 1.2 2.4 0 1.3 1 2.4 3 3.1 1.7.5 2.9 1.3 2.7 1.7-.2.3-1 2.1-1.7 3.8-.8 1.8-1.8 3.3-2.2 3.3-.4 0-.8 1.1-.8 2.5 0 2.8-2.6 8.5-3.8 8.5-.4 0-1.2 1.5-1.7 3.2-.7 2.1-1.7 3.4-3 3.6-1.1.1-2.7 1.5-3.6 3-1 1.7-3.4 3.4-6.6 4.6l-5.1 2 2.1 2.8c2.5 3.3 3.1 11.2 1.1 12.9-2 1.7-1.7 6.2.6 8.7 1.8 1.9 1.9 2.5.8 4.3-1 1.7-1 2.3 0 2.6 1.3.5 1.5 3.4.6 7-.4 1.6-1.4 2.3-3 2.3-1.3 0-2.9.7-3.6 1.5-5.9 6.8-6.9 7.6-8.4 6.4-1-.8-1.1-1.4-.4-1.9.7-.5.6-1.1-.5-2-1.3-1-1.5-.9-1.5.8 0 1.1-.8 2.6-1.7 3.3-1.1.9-1.4 1-.9.2 1.2-2.1-1.3-5.5-3.5-4.8-1.1.4-2.7.1-3.5-.6-1.2-1-1.3-.9-.8.5.3.9 1 1.6 1.5 1.6s.9.8.9 1.8.5 2.3 1.1 2.9c.6.6 1.1 3.1 1.1 5.4-.1 2.4.3 4.8.7 5.4.5.5.8 1.7.8 2.6 0 1.5-.9 1.9-4.9 2-2.2.1-4.7 2.9-2.6 2.9.8 0 2.7 1.3 4.2 2.9 2.8 2.9 2.8 5.1 0 5.1-2.2 0-3.4 4.1-1.7 5.8 1.7 1.8.8 3.2-1.6 2.5-1.3-.3-2.3.2-3.1 1.7-.9 1.7-.9 2.1 0 1.5 1.3-.8 7 4.1 7 6.1 0 .6.7 1.7 1.6 2.4.8.8 2.1 2.8 2.9 4.7.8 1.8 2.1 3.3 2.9 3.3.9 0 2.4.8 3.4 1.7 1 1 3.4 1.9 5.5 1.9 4 .1 7.7 2.7 7.7 5.3.1 2.3 3.1 5.9 3.7 4.4.3-.9 1.7-1.1 4.2-.7 2.7.4 4.2.2 5.4-1 .8-.9 2.2-1.6 3-1.6 1.5 0 2.7-2 2.7-4.7 0-1.8 2.8-4.2 4.8-4.3.7 0 1 .5.7 1.1-.4.5-.1 2.4.5 4 1 2.3 1 3.3.1 4.2-.6.6-1.1 2.4-1.1 3.9 0 2.4-.4 2.8-3 2.8-2 0-3 .5-3 1.5 0 .8-.7 1.5-1.6 1.5-1.2 0-1.5.6-1 2.2.3 1.3.6 2.6.6 3 0 .3 1.4 1.1 3 1.7 2 .6 3 1.7 3 3 0 1.1 1.4 3.4 3 5.1 3.5 3.6 3.5 3.6 1.4 5.7-.8.9-1.3 2.2-1 3 .3.8.6 2.3.6 3.3s.9 2 2.1 2.3c1.2.3 1.8 1 1.5 1.5-.3.6.2 1.3 1.1 1.6.9.4 1.9.2 2.3-.4.4-.6 1.1 0 1.8 1.5.6 1.4 1.6 2.5 2.2 2.5.5 0 1 .7 1 1.5s.5 1.5 1 1.5c.6 0 1-.7 1-1.5 0-1.9 4.2-4.3 4.8-2.6.2.6.8 1.1 1.3 1.1s2.6.7 4.7 1.6c2 .9 5.3 1.7 7.2 1.8 3.6.1 6 1.1 6 2.5 0 .4-.9 1.7-2 2.9-1.4 1.4-1.6 2.3-.9 2.8.7.4 2.1-.4 3.1-1.7 1.4-1.6 1.8-1.8 1.4-.6-.3.9-.3 2.4 0 3.2.5 1.2.9 1.2 2.9-.1 1.2-.8 3-1.2 3.9-.8.9.3 1.6.1 1.6-.5s-.7-1.1-1.5-1.1c-1.1 0-1.3-.7-.9-2.9.5-2.3.2-3.2-1.5-4.3-2.7-1.6-2.7-3.6.1-5.9 2.6-2.3 2.1-2.4 6.8.6 2.2 1.4 4.7 2.5 5.6 2.5.9 0 3.8 1.1 6.5 2.5 3.8 1.9 4.9 2.1 4.9 1 0-1.8-4.2-4-10.4-5.6-2.7-.7-5-1.9-5.3-2.8-.8-2.8-2.2-5.5-4-8.1-1-1.3-1.3-2.1-.6-1.7.7.5.9 0 .6-1.4-.3-1.1-1.8-2.6-3.2-3.2-3.5-1.5-3.9-2.3-4.7-8.4-.3-2.9-1.1-5.1-1.6-5-.6.1-1.3-.4-1.5-1.1-.3-.6 0-1.2.6-1.2.7 0 .9-1 .5-2.5s-.1-3.2.7-4.2c.8-.8 1.2-2.6 1.1-3.9-.2-1.3.1-2.4.6-2.4 1.3 0 .8-10.4-.8-15.6-1.1-3.6-1-4.5 1-8.3 1.6-3.3 1.9-4.6.9-5.7-1.7-2-.3-10.7 1.7-10 1.5.6 5.7-2.8 4.6-3.8-.3-.3 0-.6.7-.6s.9-.9.5-2.6c-.5-1.8-.3-2.5.4-2 .7.4 1.2-.6 1.4-2.6.3-2.9.6-3.3 2.8-3 1.4.1 3.2 1.1 4.1 2.1 1.5 1.8 1.7 1.8 4.1.3 2.2-1.5 2.4-2.1 1.5-4.6-.8-2.4-.6-3.2 1-4.5 3-2.4 3.5-5.9 1.1-7.2-1.1-.6-1.7-1.3-1.5-1.6.3-.3 1.9.3 3.6 1.3 3.4 2 5.1 1.3 3-1.3-1.2-1.5-1.2-1.6.3-1 1 .3 1.7.3 1.7-.1-.1-.4-.1-1.8 0-3.2.2-2.3.3-2.4 1.5-.8.7 1 1.9 1.8 2.7 1.8 1 0 1 .3.2 1.1-.6.6-.9 1.8-.6 2.5.3.8 0 1.4-.7 1.4s-.1 1.2 1.3 2.6c3.4 3.4 7.7 3 9.5-.9 1.6-3.2 2.3-3.3 4.7-.7 1.1 1.3 2.5 1.8 3.9 1.4 1.2-.3 4.7-.1 7.9.4 4.4.7 6.1.6 7.7-.5 1.2-.8 2.7-1.2 3.5-.9 1 .4 1.6-.6 2.1-3.2.4-2 1.4-4.5 2.3-5.5 1.4-1.7 1.4-2.2-1.1-6.8-1.4-2.7-2.2-5.2-1.7-5.5.5-.3.6-1.1.2-1.7-.4-.7 0-.7 1 .1 2.2 1.9 3.7.7 3.7-3 0-3 .1-3 1.9-1.4 1.8 1.6 7.1 1.4 7.1-.3 0-.4.6-1.6 1.4-2.6 1.2-1.6 1.6-1.7 3-.6 1.3 1.1 1.9.9 3.9-1.3 1.8-1.9 2.7-2.2 3.5-1.4.9.9 1.6.8 2.9-.4 1.2-1 2.9-1.4 5.1-1.1 2.5.4 3.2.2 3.2-1.1 0-.9.6-1.6 1.3-1.4 1.4.3 1.7-1 .7-3.6-.4-1.3-.9-1.6-1.4-.8-.4.7-2 1.2-3.5 1.2s-3.1.4-3.7 1c-1.3 1.3-5.1.2-6-1.8-.7-1.7-1.4-7.1-1.7-12.5-.1-1.7-.9-2.9-2-3.3-1.1-.3-1.6-1.2-1.3-2 1.3-3.5-8.6-6.1-12.2-3.1-1 .8-1.4.5-1.8-1-.5-1.7-1.6-2.2-5.7-2.6-5.3-.5-9.3 1.2-15.3 6.6-1.4 1.2-3.3 1.7-5.4 1.5-2.9-.3-3.3-.6-3.6-4-.2-3.1.2-4.3 2.7-6.8 1.7-1.6 2.6-3 1.9-3-.6 0-3-1.8-5.2-4-3.5-3.3-3.9-4-2.2-4 1.2 0 2.9-.9 3.9-2s2.4-2 3.2-2c.7 0 1.3-.4 1.3-.9s.9-1.1 2-1.4c1.8-.5 1.8-.7-1.1-3.8-2.8-3-9.4-13.5-9.4-15 0-.3-.8-1.3-1.7-2.3-1-1-1.8-3.1-1.8-4.8 0-2.8.2-2.9 3-2.3 2.6.6 3 .4 3-1.4 0-1.2.5-2.1 1.1-2.1.7 0 .9-1 .7-2.5-.3-1.4-.1-2.8.4-3.1.4-.3.6-.9.3-1.4-.3-.5.3-1.8 1.5-3 2.5-2.5 2.5-3.5-.1-6.1-1.9-1.9-2-2.1-.3-3.3 1.3-1 1.4-1.5.5-2.1-.9-.5-.6-1.1.9-2.2 1.6-1.2 2-2.1 1.5-4.1-.4-1.5-.1-2.8.5-3.2 1.5-1-.5-8.5-3.2-11.9-1.7-2.3-1.8-2.7-.4-3.7.9-.6 1.6-2.3 1.6-3.8s1-4 2.2-5.6l2.2-3-2.2-2.9c-2.1-2.9-2.1-2.9-.1-4.6 1.8-1.7 2-1.7 3.8-.1 1.9 1.7 2.1 1.7 4.8-.8 1.5-1.4 3.6-2.6 4.6-2.6 1.2 0 1.6-.4 1-1.3-.4-.6-.8-2.1-.8-3.2 0-1.3-.8-2.1-2.3-2.3-1.4-.2-2.2.1-2 1 .2.7-.7 1.4-1.9 1.6-1.8.3-2.3-.2-2.3-1.7 0-3.5-5.4-5-7.7-2.1-.9 1.2-1.8 1.3-5.2.4-2.6-.7-4.1-.8-4.1-.1 0 .5-1.1.2-2.5-.7-3.2-2.1-3.5-2-3.5.6zm16 108.3c0 .8-.4 1.5-.9 1.5s-1.1-.7-1.5-1.5c-.3-.9 0-1.5.9-1.5.8 0 1.5.7 1.5 1.5zm-28 23.3c0 .6.7 1.2 1.4 1.5 1 .4 1.3.1 1-.7-.7-1.9 2.3-2.8 4.7-1.3 1.6 1 2.5.9 5-.5 2.6-1.5 3.1-1.6 3.5-.3.9 2.3-.5 6.7-1.8 5.9-.8-.5-.9-.2-.5.9.3 1 .2 1.7-.3 1.7-.6 0-1-.5-1-1 0-.6-.8-1-1.7-1-1.5 0-1.6.2-.3 1 1.2.7 1.2 1-.4 1.6-1.3.5-2.4.1-3.5-1.2-.9-1-3.3-2.7-5.3-3.6-3-1.4-3.8-2.3-3.8-4.4 0-2.3.2-2.4 1.5-1 .8.8 1.5 1.9 1.5 2.4zm-42.7 33.9c.8 1.6 1.2 3.3 1 4-.7 1.9 1.8 2.7 8.1 2.8 5.8 0 5.9.1 8.2 4 1.3 2.2 2.3 4.3 2.4 4.7 0 1.7-5.1.7-6.7-1.2-1.3-1.5-3-2-6.9-2-4.5 0-5.4-.4-8.1-3.3-2.3-2.6-2.8-3.8-2.1-5 1.2-2.2.2-3.7-2.2-3.7-1 0-2.2-.5-2.6-1.2-.5-.8-.2-.9.9-.5.9.3 2.7.2 3.9-.3 1.3-.5 2.4-.9 2.5-.9.1-.1.9 1.1 1.6 2.6zM260.739 153.922c0 1.3-.5 2.4-1.1 2.4-.5 0-.7.5-.4 1 1 1.6 3.5-.8 2.8-2.6-.6-1.6.5-1.8 2.7-.4 1.2.8 1.2 1-.3 1.6-.9.3-1.7 1.5-1.7 2.5 0 1.6-.4 1.7-2.6.8-1.5-.5-2.9-.7-3.2-.5-.3.3.3.8 1.2 1.2.9.3 1.6 1.2 1.6 2s.9 2.2 2 3.1c2.7 2.3 2.6 4.3-.2 3.5-1.8-.4-2-.2-1.5 1.9.4 1.3.7 2.8.7 3.4 0 .5.6-.1 1.3-1.5 1.2-2.2 1.8-2.5 6.2-2.2l4.8.3-1.7-2.5c-1.3-2.1-1.4-3.1-.6-4.7.7-1.1.9-2.6.7-3.4-.4-.9.1-1.1 1.4-.8 2 .5 2.3-.4 1.3-3.1-.5-1.4-.8-1.4-2.1 0-1.6 1.6-4.3 1.6-4.5-.1-.2-1.7-3-4-5-4.1-1.3-.1-1.8.6-1.8 2.2zM252.439 162.022c-1 .3-1.7 1.2-1.5 2.1.1.9 0 2.1-.3 2.7-.4.5-.3 1.9.1 3 .7 1.9.7 1.9 1.9-.3.6-1.2 1.8-2.2 2.6-2.2 1.9 0 2.7-1.6 2-4-.6-2-1.4-2.2-4.8-1.3zM244.939 172.122c-.7 1.4-1.2 3-1.2 3.4 0 1 4 1.1 4 0 0-.4.3-1.7.6-2.8.9-3.2-1.9-3.7-3.4-.6zM60.739 194.322c0 .5.5 1 1.1 1 .5 0 .7-.5.4-1-.3-.6-.8-1-1.1-1-.2 0-.4.4-.4 1zM71.739 210.822c0 1.1-.5 1.5-1.4 1.2-1-.4-1.3-.1-.9.9.3.8 1.1 1.2 1.7.9.6-.3 1.9-.8 2.9-1.1 2.1-.8 1.7-2.8-.6-3.2-1.1-.2-1.7.3-1.7 1.3zM261.839 261.022c.8.2 2.1 2 2.8 4.1 1.9 5.2 2.9 6.2 8.9 8.8 4.9 2.2 6.2 3.6 4.4 4.8-1.2.7-.2 7.4 1.4 8.7.8.6 1.4 1.8 1.4 2.6 0 1.2.7 1.4 3 1 3.2-.7 8.9 1.3 10.9 3.7 1 1.2 1.8 1.3 3.2.5 1.6-.8 2.6-.5 5 1.5 1.7 1.4 3.7 2.6 4.4 2.6.7 0 2 .3 2.9.6 2.2.8 2-1.5-.3-4-1-1.2-2.2-3.1-2.5-4.3-.6-1.8-.4-2 1.4-1.6 1.9.5 1.8.2-.9-4-3.1-4.4-5.4-6.2-7.8-5.8-.7.1-2.7-2.1-4.4-4.9-3-4.8-5.7-7.2-8.9-7.7-.8-.1-4-1.1-7-2.2s-6.5-2-7.6-2.1c-1.2 0-3.8-.7-5.7-1.5-2-.8-4.2-1.4-4.9-1.4-.8.1-.6.3.3.6zM314.139 304.022c-1.3 2.3-1.1 5.9.7 9.8.7 1.6 1.3 3.1 1.4 3.1 0 .1 1 .5 2.3.8 2.9 1 3-1.4.1-6.1-1.2-2-2.2-4.8-2.1-6.4.1-3.3-.8-3.7-2.4-1.2zM326.739 321.322c0 .5.5 1 1 1 .6 0 1-.5 1-1 0-.6-.4-1-1-1-.5 0-1 .4-1 1z"/><path d="M55.739 358.222c1.4 2.8 1.2 4.4-.5 3.7-.8-.3-1.5 0-1.5.7-.1 1.9-3.7 5.7-5.5 5.7-.9 0-1.9.8-2.2 1.8-.3 1.3-1.1 1.8-2.7 1.5-1.6-.3-2.5.2-3.4 2.1-.6 1.4-2.3 2.8-3.7 3.2-1.4.3-3.2 1.9-4.1 3.6-1.3 2.4-2 2.9-4.7 2.6-3-.3-3.2 0-3.5 2.9-.3 3.3-.9 3.6-5.9 3.2-1.3 0-2.2 6.5-1.1 7.2 1.2.7-2.2 2.9-4.4 2.9-1.8 0-5 3.8-4.3 5 .4.6-.1 1-.9 1-.9 0-1.6.7-1.6 1.5s-.4 1.5-1 1.5c-.5 0-1.3 1.2-1.6 2.7-.4 1.6-1.4 3.3-2.2 3.9-.8.6-1.2 1.6-.8 2.3 1.7 2.8 11.6-2 11.6-5.6 0-1.1.6-1 3.2.3 3 1.6 3.2 1.5 4.9-.7 2.4-3 2.3-3.4-.3-7.2l-2.1-3.2 3.5 3.5c1.9 1.9 3.7 4.1 4 4.9.2.8 1.1 1.5 1.9 1.7.7.1 2.2.5 3.2.9 1.2.5 1.7.2 1.7-.9 0-1 .9-1.6 2.4-1.6 1.6 0 2.3-.5 2.2-1.7-.1-1.4 1.2-2 6.4-2.8 4.9-.7 6.6-1.4 6.8-2.8.2-.9.9-1.7 1.5-1.7.7 0 3-.9 5.1-2.1 2.1-1.1 4.7-1.8 5.7-1.6 1.4.4 1.9 0 1.9-1.4 0-1.8.2-1.8 2.8-.5 4.3 2.2 7.9 1.8 8.6-1 .6-2.2 2.1-2.9 5.4-2.5.7.1 2.6-.9 4.3-2.3 1.7-1.5 3.5-2.6 4-2.6 1.7 0 .9-4.3-1.3-7.7-1.8-2.5-3-3.3-5.4-3.3-2.3 0-3.3-.5-3.7-2-.3-1.1-1.3-2.3-2.4-2.7-1-.3-4-2.5-6.8-4.8-4.8-4-12.9-9.5-14-9.5-.3 0-.1.9.5 1.9zm7.5 5.1c.3.5.1 1-.4 1-.6 0-1.1-.5-1.1-1 0-.6.2-1 .4-1 .3 0 .8.4 1.1 1zm4 4.8c1.2.8 1.7 9.2.5 9.2-.4 0-1.1-1.1-1.4-2.4-.3-1.4-1.4-3.2-2.3-4.1-1.4-1.4-1.4-1.8-.2-2.6 1.7-1.1 2.1-1.1 3.4-.1zm6.5 9.7c0 .8-.2 1.5-.4 1.5s-.6-.7-1-1.5c-.3-.8-.1-1.5.4-1.5.6 0 1 .7 1 1.5zM253.639 387.522c-.2 2.1.3 6.3.7 6.7 1.2 1.3 2.5-2.1 1.9-4.8-.6-3.1-2.4-4.3-2.6-1.9zM255.739 397.322c0 1-1.2 2.7-2.6 3.7-2 1.5-2.6 2.9-2.8 6.3-.2 3.1-.8 4.7-2.3 5.7-1.7 1.2-2 2.1-1.6 4.9.4 2.5.2 3.5-1.1 4-.9.4-1.6 1.8-1.6 3.4 0 1.8-.9 3.5-2.4 4.7-1.3 1.1-2.5 2.8-2.8 3.9-.2 1-1 1.9-1.8 1.9-2.1.1-4.1 1.5-3.5 2.5.3.5 0 2.4-.7 4.2-2.5 6.1-1.1 8.2 8.1 13 1.9 1 3.7 1.4 4 .9.4-.4 1.8-1.1 3.4-1.5 1.5-.3 2.7-1.3 2.7-2.2 0-.8.4-1.3.9-1 .5.4 1.2 0 1.4-.6.4-1 .8-.9 1.6.2.7 1 1.1 1.1 1.1.2 0-.6 1.1-1.2 2.4-1.2 1.3 0 2.4-.6 2.3-1.3 0-.6.1-2.9.1-5.1.2-3.5.4-3.8 2.6-3.4 2.1.4 2.5.1 2.9-3.1.2-2-.1-4.5-.8-5.6-.6-1.1-1.5-3.8-1.9-6-1-5.1-2.4-6.9-4.2-5.4-1.7 1.4-1.9-.3-.3-2.9.8-1.2.7-2.8-.4-5.9-1.3-3.9-1.3-4.2.4-4.6 1.1-.3 1.9-1.4 1.9-2.6 0-1.2.5-2.1 1.2-2.1.6 0 .4-.7-.5-1.8-1-1-1.7-2.3-1.7-2.9 0-.6-.9-1.3-2-1.6-1.5-.4-2 0-2 1.3zM199.339 409.022c-.3.4-2.3 1.2-4.3 1.9-2.9 1-4.2 1-6.2.1-3.3-1.6-8.1-1-8.1.9 0 .8-1 1.4-2.4 1.4-1.3 0-2.6.7-3 1.5-.3.8-1.7 1.5-3.2 1.5-2.1 0-2.4.3-1.5 1.4.7.8 2.1 1.2 3.1.9 1.1-.3 2.6 0 3.4.6 1.1.9 1.5.9 2-.1.5-1.1.7-1.1 1.2 0 .3.7 1.8 1.8 3.2 2.3 1.9.7 2.3 1.2 1.4 1.8-1 .6-1 1.1.3 2.1.8.7 1.5 2.1 1.5 3.1s.5 2.1 1 2.4c.6.4.8 1.1.4 1.6-.3.5-.9.7-1.4.4-1.1-.7-2.1 3.8-1 4.9.9.9 8-3 8-4.5 0-.5.6-.9 1.3-.9 1.8 0 1 12.9-.9 14.8-1.7 1.7-1.8 2.5-.1 1.7.6-.4.4 0-.7.9-1 .8-1.5 1.9-1.2 2.5 1 1.6-1.2 2.3-5.4 1.6-2.3-.4-4-1.2-4-2 0-.7-.7-1.8-1.5-2.5-.9-.7-1.4-1.9-1.1-2.6.3-.7-.8-2.7-2.4-4.3-2.2-2.4-3.7-3.1-6.7-3.1-5.9-.1-14.8-2.5-15.1-4.1-.4-1.9-9.1-7.3-11.5-7.2-1.1.1-2.8-.2-3.8-.8-1.4-.7-2-.5-2.8.8-1 2-.4 7.1 1.2 9.1 1.4 1.8-1.7 4.8-6.1 6-2.5.6-3.6 1.3-3.3 2.3.9 2.8.7 8.9-.2 8.9-.5 0-.4.7.3 1.6 1.8 2.1 8.8 5.4 10.4 4.8.6-.2 3.8-.6 6.9-.7l5.8-.3 2.5 4.3c1.4 2.4 3.1 4.2 3.8 4.1.7-.2 2.5 1.1 3.9 2.8 3.3 3.9 2.8 8.4-1.2 11.4-1.4 1.1-3.1 2.4-3.6 2.8-.6.5-1.6.7-2.3.4-.6-.2-1.2.2-1.2.8 0 .7-.8.9-2 .5-1.7-.5-2.1-.1-2.6 2.4-.4 2-1.6 3.6-3.4 4.4-2.4 1.2-2.9 1.2-4.9-.5-3.7-2.9-5.5-2.1-2 .9 1.8 1.6 4.5 4.1 6 5.6 1.6 1.6 3.4 3 4.1 3.1.8.1 3.5 1.8 6.2 3.9 5.2 3.9 7.6 4.5 9.8 2.4.7-.7 2.6-1.2 4.1-1 2.2.1 2.7-.2 2.3-1.3-.4-1.1-.1-1.4 1.3-.9 2 .6 4-1.3 2.5-2.4-.5-.3-1-1.4-1-2.3-.1-1.4.3-1.7 2.4-1.1 2.4.6 2.5.5 1.9-3.6-.4-3.6-.3-4.1 1.5-4.1 1.7 0 1.9-.5 1.3-3.8-.6-3.6-.5-3.8 2.9-5 3.8-1.4 4.1-1.9 2.7-4.1-.7-1-.3-2.3 1-3.9 1-1.4 1.9-3.1 1.9-3.8 0-.7.9-1.5 1.9-1.9 1.1-.3 2.4-1.9 2.9-3.4.8-2.1 1.9-3 4.4-3.5 2.5-.5 3.6-1.3 4.5-3.6.8-2 1.8-3 3.2-3 1.8 0 2-.4 1.5-2.5-.5-2.2-.3-2.5 2-2.5 1.7 0 2.6-.5 2.6-1.5 0-.9 1.2-2.1 2.7-2.8 1.5-.6 4.7-3.3 7.1-5.9 3-3.2 4.9-4.5 6-4.1 1.5.6 1.5.4 0-1.4-1-1.1-1.8-2.5-1.8-3.1 0-.7-.4-1.2-.9-1.2-1.1 0-2.8-4.5-3.6-9.7-.5-2.9-1.4-4.7-3.1-5.7-2.2-1.5-2.5-1.5-3.6.4-2.1 3.3-2.6 3-10.2-5.3-2.4-2.6-5.5-3.5-7-2zm-24.6 70.9c0 2.7-.7 2.9-4.4 1.4-3.2-1.2-3.4-3.7-.3-4.2 3.4-.6 4.7.2 4.7 2.8zm-8 4.4c0 .5-.2 1-.4 1-.3 0-.8-.5-1.1-1-.3-.6-.1-1 .4-1 .6 0 1.1.4 1.1 1z"/><path d="M22.739 413.722c0 1-.7 1.2-2.2.8-1.4-.3-1.9-.2-1.4.6.4.7.3 1.2-.3 1.2-.5 0-1.3.9-1.6 2-.6 2-3.5 2.8-3.5 1 0-.6-1.3-1-3-1-2 0-3 .5-3 1.5 0 .7-.8 1.9-1.7 2.4-1.7 1-1.7 1.2.1 2.6 2.6 2 3.3 1.9 5.1-.8 1.1-1.7 2.3-2.3 4.7-2.1 1.8.1 3.4.7 3.6 1.3.5 1.6 2.2 1.3 2.2-.4 0-.8.7-1.5 1.6-1.5 1.2 0 1.5-.7 1.2-2.4-.3-1.5 0-2.7.8-3 1.7-.7.7-3.6-1.2-3.6-.8 0-1.4.6-1.4 1.4zM2.439 422.022c-.4.3-.7 1.1-.7 1.7 0 .6.5.5 1.2-.2.6-.6.9-1.4.7-1.7-.3-.3-.9-.2-1.2.2zM250.739 455.722c0 .7.9 1.6 2 1.9 2 .5 2.8 2.7 1 2.7-.6 0-.5 1.3.3 3.2 1.8 4.5 1.1 6.8-1.9 6.8-1.7 0-2.4.6-2.4 1.9 0 1.1-.3 2.8-.6 3.8-.4 1.1-.3 1.4.3.6.4-.6 2.2-1.3 3.8-1.5 2.3-.2 3.1-.9 3.3-2.7.3-1.7.6-2 1.2-1.1.4.7 1.4 1.1 2.2.8 1.7-.7 1.9-12.4.1-12.1-.7.2-2-1.1-3-2.7-1.8-3.1-6.3-4.3-6.3-1.6zM126.739 483.322c0 1.2-.4 1.9-.9 1.6-.5-.3-2.8.5-5.2 1.8l-4.3 2.5 2.9 1.1c1.7.6 4.2 1.7 5.7 2.5 2.5 1.2 2.8 1.1 3.4-.7.3-1.1 1.2-1.7 2-1.4.9.3 1.4-.1 1.4-1.3 0-1-.7-2.1-1.5-2.5-.8-.3-1.5-1.4-1.5-2.5s-.4-2.3-1-2.6c-.5-.3-1 .3-1 1.5z"/></g></svg>