<svg version="1" xmlns="http://www.w3.org/2000/svg" width="1245.584" height="669.765" viewBox="0 0 934.188 502.324"><g fill="#222"><path d="M742.188.532c0 .6 1.4 2.2 3.1 3.7 3 2.4 3.3 2.5 5 .9 1.8-1.6 2-1.6 3.8 0 1.1 1 2.1 1.3 2.5.7.4-.5-.3-1.6-1.4-2.4-1.1-.7-1.7-1.7-1.2-2.1.4-.4 0-.6-.8-.4-.8.1-2 .9-2.6 1.7-.9 1.2-1.7 1.1-4.8-.8-2-1.3-3.6-1.8-3.6-1.3zM766.888 1.732c.5 2.1.4 2.1-1.7 1-1.9-1-2.5-.9-4.2.7-1.1 1.2-1.6 2.6-1.2 3.6.5 1.5.9 1.5 3.3.2 2-1 3.1-1.1 3.9-.3.8.8 1.3.3 1.8-1.6.4-1.9.2-3.3-.9-4.3-1.5-1.5-1.5-1.4-1 .7zM767.188 11.832c-2.3 2-2.4 2.2-.6 3.4 1.7 1.3 1.7 1.4-.2 2.4-1.1.6-3.8 1.3-6.1 1.7-3 .5-4.1 1.1-3.7 2 .3.9-.2 1.4-1.5 1.4-1.7 0-1.8.3-.9 2 .7 1.2.7 2.6.2 3.6-.5.8-.6 3.5-.2 6 .4 2.5.3 4.4-.2 4.4s-.7 1.3-.3 2.8c.4 2 .1 3.3-.9 4.1-.8.7-1.2 1.9-.9 2.7.3.8-.1 1.4-1.1 1.4s-1.9 1.1-2.2 2.7c-.7 3.4-2.6 5.8-8.1 10.1-2.4 1.9-4.3 4-4.3 4.8 0 .8-.3 1.3-.7 1.2-1.8-.3-4.3 1.6-4.3 3.3 0 1.2-.7 1.9-1.9 1.9-2.4 0-3.6 1.7-2.3 3.3 1.1 1.5.3 14.7-.9 14.7-.5 0-.9 1.2-.9 2.6 0 1.7-.6 2.8-2 3.1-1.1.3-2 .9-2 1.4 0 .5-1.4.9-3.1.9-2.3 0-3 .4-2.8 1.7.1 1 .1 2.4 0 3-.1 1.6-3.8 1.7-4.3.2-.6-1.9-4 .3-3.5 2.3.3 1.1 0 2.1-.8 2.4-1.9.8-2.7 3.4-1.4 5 .7.9.7 1.8-.1 3.3-1.2 2.4-4.1 2.7-7.3.9-1.2-.7-3.5-1.3-5.2-1.4-5-.3-8.9-1.6-11-3.5-2.7-2.4-9.1-1.6-10 1.2-.6 1.8-.8 1.8-3.2.2l-2.6-1.7.5 3.2c.3 2.3.1 3.1-.7 2.8-.7-.2-4-.1-7.5.3-5.4.7-6.6.5-8.2-1.1-2.4-2.4-4.5-2.3-5.3.3-.7 2-1.2 2.1-6.4 1.6-3.2-.4-6.5-.9-7.4-1.3-1.2-.4-1.7-.1-1.7 1 0 2.8-3.6 5.9-5.9 5.1-1.2-.3-3.6-.1-5.5.6-2.5.9-5 1-9.3.3-5.8-.9-5.8-.9-10.3 2.8-2.5 2.1-5.5 4.8-6.7 5.9-1.9 1.9-3 2.1-7.2 1.5-3.1-.4-5.2-.3-5.6.4-.3.6-1.1.8-1.6.4-.6-.3-2.3-.1-3.9.6-1.6.6-5.3 1.3-8.2 1.4-7.5.4-13.2 1.7-14.1 3.3-.4.7-1.5 1.3-2.3 1.3-.8 0-3.1 1.6-5 3.5-1.9 2-4 3.3-4.5 2.9-.7-.4-1 .5-.8 2.3.4 3.5-1.9 6.9-6.1 9.1-2 1-4.2 3.5-5.6 6.2-3 5.9-4.1 7-6.6 7-2.6 0-8.1 5.9-7.3 7.8.5 1.4-2.9 5.2-4.7 5.2-.4 0-.8.7-.8 1.6 0 1-.6 1.3-1.8 1-1.6-.5-1.7-.1-1.4 3 .4 3.5.3 3.7-1.9 3.1-2.5-.7-8.9 1.1-8.9 2.4 0 .4.5 1.1 1.1 1.5.6.3.8 1.7.4 3.1-.4 1.9 0 3.1 2 4.8 1.4 1.3 2.5 3 2.5 3.8 0 .8 1.2 1.9 2.7 2.6 2 .9 2.3 1.5 1.4 2-1.2.8-4.9 9.7-5.4 13-.4 2.5 2.2 2.3 4.6-.3 1.4-1.4 3.1-2.6 4-2.6 1 0 1.3-.6 1-1.9-.5-2 .3-2.4 7-3.6 2.8-.4 4.7-.1 7 1.3 5.2 3 7.8 3.4 8.4 1.1.6-2.2 2.1-1.6 3.3 1.5.7 1.6.9 1.7.9.4.1-1.8 1.3-1.7 5.8.4 1.6.8 2.6.8 3.6 0 1.6-1.4 2.7-.6 2.7 1.8 0 .9 1.9 2.5 4.6 3.8 3.1 1.5 4.4 2.8 4.2 4-.4 2.9 1 4.1 4.5 3.6 2.8-.5 3.5-.1 5.5 3 2.6 4.2 4.9 4.6 5.8 1l.6-2.5 2.2 2c1.2 1.2 3 2.1 3.9 2.1 1.5 0 4.1 3.3 4.2 5.5.1 2.6 7.8-.1 9.8-3.5 1.5-2.5 2.2-2.8 5.1-2.3 2.2.3 4.9-.2 8.1-1.6 4.1-1.8 6.7-2.1 18.6-2.1 8.1 0 14 .4 14.4 1 .8 1.3 5.2 1.3 6.1-.1.3-.6 2-.9 3.8-.6 3.5.5 9.6-2 9.6-4 0-1.8 2.5-1.7 4 .2 1.4 1.7 5 .3 5-2 0-1 1-1.5 3-1.5 1.8 0 3.3-.6 3.6-1.5.6-1.4 6.5-3.1 9.5-2.7 2 .3 3.6-1.6 4.1-4.7.3-2.1.9-2.5 4.3-2.6 15.9-.4 15.3-.3 15.7-3.1.2-2.1 1.3-3 4.8-4.5 5.8-2.3 12.8-2.4 15.2-.2 1.7 1.5 1.8 1.5 1.8-.2 0-1.5.3-1.5 1.5-.5 1.1.9 1.4 2.2 1 4.2-.5 2.1-.2 3 1 3.4.9.4 2.1.1 2.5-.6.4-.7 1.6-.9 2.9-.5 1.5.4 2.1.2 2.1-.8 0-.8.7-1.7 1.5-2.1.8-.3 1.4-.9 1.3-1.4-.2-.4.3-2.5 1.1-4.5 1.1-2.9 1.9-3.6 3.3-3.1 2.2.6 2.3-.4.3-3-1.1-1.4-1.2-2.3-.4-3.3.6-.7.8-1.3.5-1.3-.4 0-.2-.9.4-2 .8-1.4.8-2 0-2-.6 0-.4-.7.5-1.6.9-1 1.3-2.3.9-3.3-1.4-3.4-2.2-8.4-1.7-9.9.4-1 .2-1.3-.5-.8-.7.4-1.2.3-1.2-.2s-1.5-1.7-3.4-2.6c-4.3-2-7.9-7.6-6-9.4 1.7-1.5 1.9-1.5 3.8.4 1.8 1.8 4 .9 3.2-1.3-.4-1-.2-1.3.8-1 1.1.5 1.4-.3 1.2-3.8-.2-3.1.2-4.6 1.2-5 1.2-.4 1.2-.8.1-2.2-1.2-1.4-1.1-1.5.8-.9 1.8.6 2.1.4 1.5-1.6-.5-2.1-.4-2.2 1.2-.8 1 .8 2.2 2.5 2.7 3.7.5 1.3 1.9 2.7 3.2 3.2 1.2.5 2.9 1.6 3.6 2.5 1 1.2 1.7 1.3 2.7.5.7-.6 1.8-.8 2.4-.4.7.4 2.8-.8 4.8-2.8 3.3-3.1 9.2-5.5 9.2-3.8 0 1.1 5.7 4.1 7.9 4.1 1.2 0 2.1.4 2.1 1 0 1.1 5.9 4.4 6.7 3.6 1-1-2.4-6.1-4-6-1.3.1-1.6-.3-1.2-1.6.3-1.1-.1-2-1-2.4-.9-.3-1.4-1-1.1-1.4.3-.5-.3-3.3-1.4-6.3-2.3-6.1-2.5-7.8-.9-6.2.9.9 1.6.9 3.1 0 1.5-1 2-.9 2.7.2.7 1.1.9 1.1 1.3 0 .4-1.2.7-1.2 2.1 0 .9.7 2.6 1.1 3.7.8 1.1-.3 2.3-.1 2.6.4.9 1.5 3.4 1 2.8-.6-.4-1 0-1.5 1.1-1.5 1.2 0 1.5-.5 1.1-1.6-.3-.9-.6-1.8-.6-2 0-.2-.6-.4-1.3-.4-.7 0-3-.9-5.2-2-4.7-2.4-6.1-7.1-2.5-9 1.9-1 1.9-1.2.4-3.6-1.6-2.3-1.6-2.6.3-4.7 2.5-2.8 3.6-5.9 2.5-6.6-.5-.3-1.2-1.6-1.6-2.9-.6-1.6-.3-2.2.8-2.2.9 0 3.1-1.7 4.9-3.7 3-3.2 3.3-4.1 2.7-7-.6-2.6-.5-3.3.7-3.3 1.5 0 4.3-5.7 4.3-8.9 0-1.8-.3-1.9-2.6-.9-1.8.8-2.4 1.7-2 3.1.4 1.7.1 1.8-3.2 1.2-3.2-.6-6.5-3-7.4-5.5-.2-.4-1.7-.5-3.5-.3-2.4.4-3 .9-2.6 2.1.4 1 .2 1.3-.5.8-.6-.3-2.9-.4-5 0-3.8.6-4 .8-3.8 3.9.3 3.2.3 3.2-3.1 2.4-3.8-.8-6.9-3.2-7.8-6-.3-1-2-2.1-3.6-2.4-2.5-.6-3-1.1-2.6-2.7.3-1.1.1-3.1-.5-4.4-1.2-2.5.5-8.4 2.4-8.4.6 0 .8-1.4.6-3-.6-3.8 1.8-4 6-.5 3.5 2.9 10.2 3.6 10.2 1 0-1.2.6-1.1 3 .7 3 2.1 3.1 2.2 6 .5 2.8-1.7 3.2-1.7 6.5-.1 1.9.9 3.5 2.3 3.5 3 0 .8.5 1.4 1 1.4.6 0 1-.5 1-1.1 0-.6.8-.8 1.9-.4 1.1.3 2.2.1 2.6-.5.5-.8 1.1-.8 2.1.1 1.8 1.5 1.8 3.8 0 5.8-.8.9-1.6 2.7-1.8 4.1-.2 2 .1 2.4 1.7 2.2 1.1-.2 2.2-.8 2.3-1.3.2-.5 1-.9 1.9-.9 1.1 0 1.4-.9 1.2-3.5-.2-2.2.2-3.9 1.2-4.7 1.5-1.2 3.5-7.5 4.1-12.8.2-1.8 1-2.6 2.8-2.8 3.4-.5 5.5-2.3 5.5-4.7 0-1.5.7-2 2.8-2 3.5.1 3.4-.7-.5-6.2-2.3-3.2-3.4-4-3.6-2.9-.5 2.3-7.4 5.7-9.3 4.5-.8-.5-2.5-.9-3.8-.9-1.8 0-2.1.3-1.2 1.3 1.5 1.9-.9 5-3.5 4.5-1.4-.2-1.8-1-1.6-3.1.2-1.8-.1-2.7-1.1-2.7-.8 0-2.2-.9-3.2-2s-2.6-1.9-3.6-1.8c-2 .3-6.9-3.9-6.9-5.9 0-1.2-1.3-1.7-2.4-1.1-.8.5-5.6-4.6-5.6-5.9 0-.7-1.1-1.9-2.5-2.5-1.4-.6-2.5-1.7-2.5-2.5 0-.7-.5-1.3-1.1-1.3-.6 0-.9.7-.5 1.5.4 1-.1 1.5-1.5 1.5-1.5 0-1.9-.5-1.5-1.5.3-.9.2-2.3-.3-3.3-.5-.9-1.2-2.5-1.5-3.5-.7-2.3-3.5-2.1-6.6.4zm5 7.9c0 .5-.4 1-1 1-.5 0-1-.5-1-1 0-.6.5-1 1-1 .6 0 1 .4 1 1zm-19 60.6c0 .8-.5 1.2-1 .9-.6-.4-.8-1.1-.5-1.6.9-1.4 1.5-1.1 1.5.7zm-24.2 55.2c.2.7-.2 1-1.2.6-.9-.3-1.6-1.1-1.6-1.6 0-1.3 2.3-.5 2.8 1zm-14.3 10.2c-.4 1.1-.2 2 .4 2 1.5 0-.8 4.7-2.7 5.5-2.3.9-3.9-1.2-3.4-4.5.3-2.1 1-3 2.3-3 1.1 0 1.9-.5 1.9-1 0-.6.5-1 1.1-1 .6 0 .8.9.4 2zm-13.9 10.9c.3 1.4.7 3.1.9 3.7.8 2.7-12.3 3.4-13.8.8-.5-.8-1.2-1.2-1.8-.9-.5.4-.9-.3-.9-1.4 0-2.3 1.6-3.6 2.5-2.1.9 1.5 2.7 1.2 2-.3-.4-.6 0-.4.8.5 1.9 2.4 2.7 2.3 2.7-.3 0-1.1.5-1.7 1-1.4.6.3 1.3 0 1.6-.8.8-2.3 4.4-.8 5 2.2z"/><path d="M855.188 11.932c-.1 2.8-2.1 5.6-3.7 5.1-1.4-.5-2.6 3.1-1.8 5.7.3 1 .1 3.7-.5 6-.9 3.3-1.5 4-3.6 4-2.3 0-2.5.3-2 2.4.7 2.7-.6 4-4.6 5-2.1.5-2.8 1.2-2.8 3.1 0 1.3-.5 2.7-1 3-1.5.9-.2 4.4 3.1 8.6 3.1 4 4 7.1 1.5 5-1.6-1.3-3.2.2-2.1 1.9.3.5.1 1-.4 1-.6 0-1.1.7-1.1 1.6 0 1.1-.6 1.5-1.9 1.1-1.4-.3-1.8-.1-1.4 1 .5 1.3.2 1.3-1.6.3-1.8-.9-2.1-1.7-1.6-4.2.7-3-.4-4.7-3.2-4.8-.8 0-.7 1 .4 3.2 1.5 2.9 1.5 3.2-.2 4.4-1 .7-1.5 2-1.2 2.9.4.8.2 1.5-.3 1.5-.6 0-1 .7-1 1.5 0 1.6 6.2 3.1 8 2 .6-.4.9-1.4.5-2.2-.5-1.4-.3-1.4 1.2-.2 3.7 2.7 8.3 8.5 8.9 10.9.4 1.4 1 2.9 1.4 3.5 2.7 3.5 5.3 9.4 5.2 11.6-.2 2.8 4.9 8.6 6.6 7.5 1.1-.6 7 1.1 9 2.7.8.6.9 1.4.2 2.1-.7.9.6 2.1 4.4 4.5 3 1.8 5.6 4.1 5.9 5.1.3 1.3 1.1 1.7 2.5 1.3 1.1-.2 3.2.3 4.6 1.2 2.6 1.8 3.2 1.8 14.7-.1 2.9-.5 3.9-.2 5 1.4 1 1.3 2.3 1.9 4.1 1.7 3.9-.4 4.7-1.2 4.4-4.3-.2-1.9-.9-2.7-2.2-2.7-1 0-2-.7-2.2-1.5-.2-1.2.7-1.4 4.8-1.2 4.5.4 5 .2 5-1.7 0-1.2.5-2.1 1-2.1 1 0 1.4 1.3 1.1 4.2-.2 1.2.3 1.6 1.3 1.2.9-.3 1.9.3 2.7 1.7 1.1 2.2 1.2 2.2 2.5.4.8-1 1.4-2.9 1.4-4.1 0-1.7.4-2.1 2-1.7 1.6.4 2 0 2.1-1.8.1-1.3.1-2.7 0-3.2 0-.4.8-.7 1.9-.7 1.6 0 2-.7 2-3 0-1.7-.6-3.1-1.2-3.1-4.7-.5-5.7-.7-6.7-1.3-.6-.4-1.1-1.6-1.1-2.6 0-2.6-3.9-5.3-5.7-3.8-1.6 1.3-6.6 2-14.8 1.9-5.6 0-6.2-.3-9.2-3.5-1.9-2.1-3.3-4.6-3.3-6.1 0-2.9-3.6-5.6-6.8-5-3.2.6-4.7-2.8-4.7-10 0-3.5-.5-6.4-1.2-7-.6-.6-1.5-2.7-1.8-4.7-.6-3-.4-3.9.9-4.4 2.1-.8 2-1.9-.3-4.1-1-1-2.1-3.2-2.4-4.8-2.5-12.1-3.2-14.5-4.8-15-3.1-1-6.9-4.6-6.9-6.6s-.4-2.3-5.4-3.4c-2.7-.6-2.8-.8-2.4-5.5.3-2.8.1-5-.3-5-.5 0-.9 1-.9 2.2zM920.188 124.932c0 2 .1 2.1 2.4 1.2 2.3-.9 2-3-.4-3-1.3 0-2 .7-2 1.8zM807.188 162.632c0 1.1 2.6 2.2 3.4 1.4.3-.3.3-1 0-1.4-.7-1.2-3.4-1.1-3.4 0zM802.988 163.432c.7.3 1.6.2 1.9-.1.4-.3-.2-.6-1.3-.5-1.1 0-1.4.3-.6.6zM749.688 168.732c.3.5 0 .8-.7.5-.7-.3-1.8.3-2.5 1.4-1 1.6-.9 2 .2 2.5 2.5.9 4.5-.5 4.5-3 0-1.3-.5-2.4-1.1-2.4-.5 0-.7.4-.4 1zM492.688 240.732c-.3.5-1.5 1-2.6 1-1.2 0-1.9.7-1.9 2 0 2.3 1 2.5 3.1.7 2.5-2.1 4.2-4.7 3.1-4.7-.6 0-1.4.4-1.7 1zM480.988 252.732c-1 .9-1.8 2.9-1.8 4.4 0 1.5-.7 4.3-1.5 6.3-.8 1.9-1.5 4.5-1.5 5.8 0 2.8 3.3 5.8 5.7 5.3 1.8-.4 2-1 .8-4-.5-1.2 0-1.7 1.7-2 1.6-.2 2.4-1.1 2.8-3.3.4-1.7 1.1-2.9 1.8-2.8 2.3.5 1.2-3.5-1.6-5.9-1.6-1.3-3.3-3.1-3.8-4-.8-1.4-1.1-1.3-2.6.2zM458.988 272.832c-1.1 1.2-3.2 1.9-5.3 1.9-2.2 0-4.1.7-5.4 2.1-1.3 1.4-2.7 2-4 1.6-1.5-.3-2.7.2-4 1.9-1 1.3-2.6 2.4-3.5 2.4-.8 0-2.6 1.2-4 2.6-1.7 1.9-3.1 2.5-4.6 2.1-1.1-.3-3.5-.1-5.2.3-2.2.7-3.8.5-5.9-.5-3.6-1.9-3.9-1.9-3.9.5 0 1.6-.7 2-3.5 2-2.6 0-3.3.3-2.9 1.5.4 1 0 1.5-1.2 1.6-6.3.3-7.8.7-9.5 2.8-1.1 1.3-1.9 3.2-1.9 4.2 0 1.1-.7 2.2-1.5 2.5-.9.4-1.3 1.4-.9 2.8.4 1.9.1 2.1-3.8 2.1-2.4 0-4.9-.4-5.5-.8-.9-.6-1.3-.2-1.3 1.3 0 3.1-2.8 3.6-5.6.9-2.1-2-2.4-2.9-1.9-5.9.4-1.9 1-4 1.5-4.5.4-.6.2-1.5-.5-2.2-1-1-1.6-.9-2.5.2-1.6 1.9-4.5 1.9-7.4 0-2-1.3-2.8-1.3-7.1.2-3.8 1.2-5.5 1.4-7.7.5-2.4-.9-3-.8-3.5.4-.6 1.6-5.7 1.1-8-.8-.9-.7-1.6-.2-2.3 1.8-.7 1.7-1.4 2.4-1.8 1.7-.8-1.3-5.2.1-5.2 1.7 0 .7-.6.8-1.9 0-4.3-2.3-11.2 1.7-9.7 5.6.3.8-.1 1.4-1 1.4-.8 0-1.2.5-.9 1.1 1.2 1.8-2.5 4.9-5.1 4.3-2.1-.5-2.4-.2-2.4 2 0 1.5.8 3 2 3.6 1 .6 1.7 1.7 1.4 2.4-.3.9.3 1.7 1.6 2.1 1.5.5 1.9 1.2 1.5 2.3-.4 1-.8 2.3-.8 2.9 0 .7-.9 1.3-1.9 1.3-1 0-1.8.7-1.8 1.5 0 .9-1.1 2-2.5 2.5s-2.8 1.7-3.1 2.5c-.4.8-1.4 1.5-2.4 1.5-1.1 0-2.2 1.2-2.9 3-.8 2.4-.7 2.9.2 2.3.7-.4 2.4-.6 3.9-.4 2.1.2 2.8-.2 2.8-1.4 0-1.5.8-1.7 5.6-1.3 3.1.3 6.6 0 7.8-.5 2.1-1.1 6.1-8.1 7.2-12.8.3-1.5 1.6-3.1 3-3.8 1.8-.8 2.4-1.8 2.4-4.1 0-1.9.5-3 1.3-2.9.6.1 2-.1 3-.6 1-.4 3.3-.5 5.2-.2 2.1.4 3.5.2 3.5-.5 0-.5 1.1-2.3 2.4-3.9 1.3-1.5 2.6-3.4 2.8-4 .3-.9 1.2-.7 3.1.6 2.2 1.4 3 1.5 4.2.5 1.6-1.3 2.9-.4 5.5 4.2.6 1 2.4 2.4 3.9 3.3 2.6 1.3 3 1.3 3.5 0 .9-2.3 8.2-2 10.3.5 2.2 2.6 3.9 2.5 5.3 0 .8-1.5 1.7-1.9 3.1-1.5 1.3.4 2.1.1 2.6-1.2.3-1 1.7-3 3.1-4.5 1.8-2 2.3-3.3 1.8-5.2-.6-2.4-.5-2.5 3.1-1.9 2.1.3 5.2 1.6 7 2.9 3.3 2.5 5.6 1.7 3.3-1.1-1-1.2-.9-1.6.6-2 1.1-.3 3.1-1.2 4.7-2 1.5-.8 3.3-1.2 4-.9.8.3 1.3-.4 1.4-1.7.3-3.7 2.5-5.2 5.8-3.9 1.9.7 3.1.8 3.9 0 .5-.5 3.6-1 6.7-1 3.2 0 6.1-.5 6.4-1 .3-.6 1.7-1 3.1-1 1.4 0 2.4-.6 2.4-1.5 0-.8 1.1-2.2 2.5-3.1 1.8-1.2 2.4-2.2 2-3.5-.5-1.5-.1-1.9 1.9-1.9 1.5 0 2.6-.6 2.6-1.3 0-2.8 3.4-4.4 9.3-4.2 4.9.1 5.7-.1 5.7-1.7 0-1.9-2.5-2.5-3.5-.8-.4.7-1.1.7-1.8.2-2.5-1.9-7.2-2-8.9-.1zM260.788 339.232c-.3.8-1.2 1.5-2 1.5s-3.7 1.6-6.6 3.5c-6.4 4.3-12.2 6-15.1 4.5-2.1-1.2-5.4.3-4.4 2 1.3 2.1-11.3 3.5-14.3 1.6-.8-.5-1.1.5-.8 3.4.3 3.6.1 4-2 4-1.3 0-2.4.4-2.4 1 0 .5-.9 1-2 1s-2.3.7-2.6 1.5c-.4.9-1.1 1.5-1.8 1.4-3-.4-4.8.3-7.8 3l-3.2 2.8 2.5.8c1.3.4 3.4 1.6 4.6 2.7 1.6 1.5 2.5 1.7 4 1 2-1.1 11.8-1 12.9.1.3.3 1.1.4 1.8.1.7-.3 2.4.6 3.9 2 1.4 1.3 2.8 2.1 3.1 1.8.6-.5 1 3.8.7 7-.1.9.4 2 1 2.4.9.5 1 .2.6-.9-1-2.6 1.9-2.1 4.6.9l2.4 2.5 3.7-2.5c5.2-3.5 7.3-4 9.9-2.4 1.8 1.1 3 1.1 6.7.2 2.5-.7 4.7-1.3 4.9-1.3.2-.1-.4-1-1.4-2.1-1.1-1.2-2.4-3.7-3.1-5.6-1.1-3.3-1.1-3.6 1.3-4.5 1.4-.5 2.7-1.8 3-2.9.3-1.1 1.3-2.2 2.4-2.5 1-.4 1.6-1.2 1.3-2-.3-.8.4-2 1.5-2.7 1.2-.7 2.1-2.3 2.1-3.5 0-1.9.5-2.3 3.4-2.3 2.2 0 4.5-.9 6.3-2.4 1.5-1.3 3.3-2.4 3.8-2.6 2.2-.4 1.7-1-1.1-1.2-1.6 0-3.3-.2-3.9-.3-.5-.2-1.5-.3-2-.4-1.5-.1-4.5-5.5-4.5-8 0-1.2-.4-2.1-1-2.1-.5 0-1 .4-1 1 0 1.6-3 1.1-6-1-2.4-1.7-2.9-1.8-3.4-.5zM287.988 346.132c-2.4 1.8-2.3 4.6.1 4.6 1.1 0 2.3.5 2.7 1.1.3.6 1.4-.2 2.5-2.1 1.1-1.7 1.7-3.5 1.4-4.1-.9-1.3-4.7-1.1-6.7.5zM161.088 358.632c.6 1 2.2 2.6 3.7 3.6 2.2 1.4 2.8 1.5 3.5.4.6-.9.3-1.5-.7-1.7-.9-.2-2.4-1.2-3.5-2.3-2.5-2.5-4.3-2.5-3 0zM179.888 358.432c-1.8.4-1.7.6.4 2.9 1.2 1.3 1.9 2.7 1.6 3.1-.4.3-.2 1.2.3 1.8.8.9.4 1.4-1.5 1.9-2.5.6-2.5.7 2.1 5.1 2.6 2.4 5.1 4.2 5.6 3.9.5-.3 1.5-2 2.2-3.7 1.2-2.8 1.1-3.5-.6-6-1.1-1.5-2.8-2.7-3.8-2.7-2 0-5.5-5.2-4.3-6.4.4-.3.4-.5.2-.5-.2.1-1.2.3-2.2.6z"/><path d="M177.788 366.032c.3 1 .9 1.5 1.2 1.2.3-.3 0-1.1-.7-1.8-1-.9-1.1-.8-.5.6zM185.188 382.732c0 1.1.7 2 1.5 2 1.3 0 1.4-.4.5-2-.6-1.1-1.3-2-1.5-2-.3 0-.5.9-.5 2zM181.688 385.732c.3.5.8 1 1.1 1 .2 0 .4-.5.4-1 0-.6-.5-1-1.1-1-.5 0-.7.4-.4 1zM222.188 394.232c-2.7 2.8-4 3.5-5.9 3-1.4-.4-3 0-4 .8-2.2 2-8.7 3-11 1.7-1.5-.7-2.3-.6-3.5.6-.9.8-1.6 1.9-1.6 2.4 0 .4-1.4.3-3-.3-3.7-1.4-4.6-.4-5.6 5.6-.4 2.2-1.8 5.2-3.2 6.8-2.2 2.6-2.3 3.3-1.2 5.9.6 1.6.9 3.3.6 3.9-.4.5-.2 1.2.2 1.5 1.7 1 .1 5.6-1.9 5.6-2.6 0-2.3 2.1.7 4.9 1.9 1.8 2.5 3.2 2.2 5.3-.4 2.5-.2 2.8 2.3 2.8 3.1 0 4.9 2.3 4.3 5.5-.7 3.8.4 4.9 3 3.2 1.8-1.2 2.6-1.3 3.5-.4.9.9 1.6.9 3.1-.1 1.7-1 2-1 2 .3 0 .8.4 1.5.9 1.5 1.3 0 0-5.1-1.5-5.7-1-.4-1.4-2.5-1.4-7.4 0-6.7 1.2-9 2.5-4.9.4 1.1 1 1.8 1.5 1.5.4-.3 1 .4 1.3 1.5.5 1.9 3.5 2.6 8.9 2.1.9-.1 2.9.5 4.3 1.5 2.5 1.6 2.5 1.6 2.5-1 0-2.3.2-2.5 2.6-1.6 3.6 1.4 5.4 1.2 5.4-.5 0-.8.5-1.6 1-1.6 2.2-.3 2.6-.5 5.4-3.1 2.8-2.7 3-4.5 1.1-9.1-.5-1.3-.2-1.7 1.3-1.7 1.8 0 2-.3 1.1-3.2-1.1-4.2-5.7-8.8-8.6-8.8h-2.3l2.3-4.8c1.2-2.6 2.8-5.3 3.5-6 .6-.7 1.2-1.9 1.2-2.7 0-.7.9-1.5 2-1.8 1.1-.3 2-1 2-1.6 0-.6-.9-1.1-2-1.1s-1.9-.3-1.9-.8c.3-1.9-.3-2.2-2.1-1.2-1.5.8-2.7.7-4.9-.5-1.7-.8-3.2-1.5-3.4-1.5-.1 0-1.9 1.6-3.7 3.5zM28.188 396.132c0 1.9.5 3.6 1.2 3.8.6.2.8 1 .4 1.6-.6.9-1.5.8-3.7-.5-1.6-1-2.9-2.1-2.9-2.5 0-1.1-3.2.3-5.4 2.3-1.1 1.1-1.6 2.5-1.2 3.4.8 2.2-3.3 7.1-5.6 6.7-1-.2-1.9.5-2.3 1.8-.4 1.4-1.2 1.9-2.2 1.6-.8-.3-2.6-.9-4-1.2l-2.5-.7 1.6 3.2c.9 1.7 2.1 3.1 2.6 3.1.6 0 1.5 1.1 2.2 2.4.8 1.9.7 3.4-.5 6.5l-1.6 4 3.5 2.1c1.9 1.2 4.1 2 4.8 1.7.9-.4 1.7.8 2.5 3.4.7 2.2 1.9 4.3 2.6 4.6.8.3 3.4-.4 5.8-1.6 5.5-2.7 11.1-2.7 16.6 0 2.4 1.1 4.6 1.7 5 1.2.3-.4 1.7-1.5 3.1-2.4 2.3-1.5 2.5-1.5 4.1.5 1.6 2 1.6 2.3-.3 5.7l-2 3.6 2.1 4.1c2.2 4.4 2.7 8.7 1.1 9.7-.5.3-1 2-1 3.7 0 2.8-3 6.8-5 6.8-.4 0-1.2 1.2-1.9 2.6-.9 2-1.7 2.5-3.2 2.1-1.9-.5-2.1-.2-1.6 2.6.3 1.8.8 4 1.2 5 .6 1.3.3 1.6-.9 1.1-.9-.3-1.6-.1-1.6.5 0 .7-.8.8-2.4.1-2.1-.8-2.5-.5-4.1 3-.9 2.1-1.4 4.3-1 5 .4.6.2 1.7-.4 2.4-.9 1-.6 1.3 1.4 1.1 1.4-.2 2.5 0 2.5.5 0 1 4.1 2.1 5.2 1.4.5-.3.3-1.3-.4-2.2-.9-1.2-.6-1.1 1 .2l2.2 1.9v-3c0-2.4.6-3.3 2.9-4.3 2-.8 2.8-1.7 2.4-2.7-.3-.8-1.1-1.2-1.8-.9-1.7.6-3.9-1-3.1-2.3 1.2-1.9 4.5-1.2 6.2 1.4 1 1.6 2.3 2.4 3.3 2 .9-.3 4.8.2 8.6 1.1 7.4 1.6 7.9 1.7 10.9 1.2 1.5-.2 2.2.5 2.9 2.9 1.2 3.9 4.3 4.5 5.7 1 .4-1.2 2.6-4.1 4.8-6.4 2.1-2.3 3.8-4.4 3.6-4.6-.2-.2 0-2.3.4-4.8.8-4.6 2.9-5.8 6.1-3.5 1.1.8 1.3.8.8-.1-1.1-1.8.9-2.4 3.8-1.1 2.3 1 2.8 1 3.6-.5.6-.9 1.7-1.7 2.6-1.7 1.3 0 1.3-.3.3-1.5-.7-.8-2.1-1.5-3.1-1.5-1.1 0-1.9-.5-1.9-1.1 0-.6-.6-.9-1.4-.6-.9.4-1.6-.3-2-1.6-.8-2.7-7.2-7-9.5-6.2-2.2.7-6.9-4.5-7.7-8.4-.5-2.4-1.1-3-2.3-2.6-1.8.5-5-2.3-7-6.3-1-1.8-.9-2.3.4-2.8 2.1-.9 2-8.7-.2-10.9-.9-.9-1.7-3.4-1.8-5.4-.1-2.1-.5-4.3-.9-5-.6-.9-.2-1.2 1.1-.9 1.1.2 2.7-.3 3.6-1 1.2-1 2.1-1.1 3.6-.2 1.2.6 2.1 1.5 2.1 2 0 .6.9 1 2 1 1.7 0 1.9-.3 1.1-1.8-1.1-2.1-.4-6.2 1-6.2 1.3 0 .5-9.3-.8-9.7-.7-.3-.9.4-.6 1.6.8 3.2-.4 5.6-2.1 4.2-1-.9-2-.9-3.9 0-1.8.8-3 .8-4.7-.1-1.5-.8-2.5-.9-3.2-.2-1.1 1.1-5.8-.4-5.8-1.9 0-.4-.7-1-1.7-1.3-1.8-.7-5.3 2.4-5.3 4.9 0 1.8-.2 1.8-3.5.3-1.5-.7-3.5-2.9-4.6-5-1.9-3.8-7-7.8-9.8-7.8-.8 0-2.9-1.6-4.7-3.5-4-4.4-5.4-4.4-5.4-.1zm20 14.6c.8.5 1.1 1.2.7 1.6-.4.4-1.5 0-2.4-.9-1.8-1.8-.8-2.3 1.7-.7zM251.888 442.132c-.8 2.1.8 2.9 4.1 2.1 2-.5 2.3-.8 1.2-1.5-.8-.5-1.8-.6-2.3-.3-.5.3-1.3 0-1.7-.7-.5-.8-.9-.8-1.3.4zM228.888 444.432c-.4.3-.7 1.5-.7 2.6s-.8 2.5-1.7 3.2c-1.4 1.1-1.5 1.6-.3 4.4 1 2.4 1 3.5.1 4.4-.6.6-1.1 2.1-1.1 3.4 0 1.8-.6 2.3-2.6 2.3-1.6 0-2.4.5-2.1 1.2.7 2.2 4.1 1.4 5.3-1.2 2.3-4.7 3.7-8.5 3.6-9.2-.1-.4 2.1-1 4.8-1.4 4.4-.6 5-.9 4.4-2.6-.7-2.3-6.3-7.7-8-7.8-.6 0-1.4.3-1.7.7zM246.788 446.232c-.9 1.3-1.6 3.3-1.6 4.4 0 1.4-.9 2.3-2.5 2.7l-2.5.6 2.6 2c1.8 1.4 2.9 1.7 3.6 1 .6-.6 1.7-.8 2.4-.5 1 .4 1.2 0 .8-1.1-.3-.9-.1-2.3.6-3.1 1-1.1.9-1.8-.4-3-1.7-1.8-2.2-5-.6-4 .6.3 1 .1 1-.4 0-1.9-1.7-1.2-3.4 1.4zM175.688 455.732c-.3.5.1 1 .9 1 .9 0 1.6-.5 1.6-1 0-.6-.4-1-.9-1-.6 0-1.3.4-1.6 1zM191.888 456.432c-1.4 1.3-.6 5.3 1.2 6.2 1.7 1 1.8.8 1.1-2.5-.9-4-1.4-4.7-2.3-3.7zM179.188 457.932c0 .8 1.5 1.4 3.8 1.5 3.4.2 3.6.1 1.8-1.3-2.4-1.7-5.6-1.8-5.6-.2zM187.688 459.732c-.3.5-.1 1 .4 1 .6 0 1.1-.5 1.1-1 0-.6-.2-1-.4-1-.3 0-.8.4-1.1 1zM173.788 465.232c-.6 2.4-.8 2.4-6.7 1.8l-6.1-.6.4 3.3c.3 3.1 0 3.4-2.9 4.1-2.2.4-3.6.2-4.4-.7-1.7-2.1-3.9-1.7-3.9.6 0 1.6-.7 2-3.4 2-1.9 0-3.6-.5-3.8-1.2-.2-.6-1.8-1.3-3.5-1.4-1.7-.1-3.6-.5-4.3-.9-.6-.3-2.5-.8-4.2-1-1.7-.3-4.1-1.4-5.4-2.6-2-1.9-2.4-2-5.1-.5-1.6.8-3.5 2.2-4.2 3-1.2 1.4-1 1.6.8 1.6 1.1 0 4.3 1.3 6.9 3 5.6 3.4 6.2 3.6 6.2 1.6 0-1.1.9-1 4.3.6 2.3 1.1 4.5 2.5 4.8 3.1 1 1.4 3.9.1 3.9-1.8 0-2 1.2-1.9 5.5.6 2.7 1.6 3.9 1.9 4.8 1 .6-.6 2.5-1.1 4.2-1.1 4.8 0 8.9-2.5 10.5-6.4 1-2.6 2-3.6 4.5-4 2.1-.4 3.6-1.5 4.3-3.2 1.6-3.3 1.5-3.4-.7-3.4-1.2 0-2.1.9-2.5 2.5zM219.788 472.432c-.6 1.4-.5 1.5.5.6.7-.7 1-1.5.7-1.8-.3-.3-.9.2-1.2 1.2z"/><path d="M37.188 485.732c0 .5.5 1 1.1 1 .5 0 .7-.5.4-1-.3-.6-.8-1-1.1-1-.2 0-.4.4-.4 1zM26.188 488.932c0 1.3 3.2 3.9 4.4 3.5.6-.2 1.1-1.2 1.2-2.3.1-1.4-.6-1.9-2.7-1.9-1.6 0-2.9.3-2.9.7z"/></g></svg>