<svg version="1" xmlns="http://www.w3.org/2000/svg" width="512.168" height="707.019" viewBox="0 0 384.126 530.264"><g fill="#222"><path d="M306.29 1.22c.8.8 1.5 2.1 1.5 3 0 1.2-.8 1.4-3.5 1-1.9-.3-3.5-.2-3.5.4 0 .5-.6.9-1.4.9-.7 0-3.4 1.1-5.9 2.4-2.5 1.4-5.8 2.4-7.4 2.3-3.5-.3-4.1 2.2-1.8 7.3 1.6 3.5 1.6 3.9-.2 7.7-1.1 2.2-1.8 5.3-1.5 7.2.2 1.9-.3 4.3-1.3 5.7-.9 1.4-1.3 2.9-1 3.4.3.6-.1 1-.9 1s-2.1 1-2.7 2.2c-.7 1.3-1.8 2.7-2.5 3.1-2.1 1.2-1.7 3.3.6 3.3 1.4 0 2-.7 2-2.3 0-1.5 1-2.8 3.1-3.9 1.7-.8 2.8-1.1 2.5-.5-.4.6 0 1.1.9 1.1 1.1 0 1.5-.5 1.1-1.5-.3-.8-.1-1.5.5-1.5.7 0 .9-1 .5-2.6-.6-2.2-.4-2.4 1.1-1.5 1 .5 3.3 2.6 5.1 4.6 2.8 3.2 3.2 4.4 3 8.1-.3 3.9-.5 4.1-1.9 2.8-.9-.8-3.2-1.7-5-2-2.8-.5-3.9-.1-6.1 2.1-1.5 1.5-3.4 2.5-4.2 2.2-.7-.3-2.2.2-3.2 1.1-1.1 1-3 1.6-4.2 1.4-2.1-.3-2.3-.1-1.7 1.9.8 2.3.7 2.3-1.9.6-1.4-1-2.6-1.3-2.6-.7 0 1.5-2.7 1.2-4.4-.6-.9-.8-1.6-2.9-1.6-4.5 0-2.5-.2-2.8-1.4-1.7-1.2 1.1-1.2 1.8 0 4.7 1.8 4.2 1.8 5.1-.1 5.1-.8 0-1.5.6-1.5 1.2 0 1.9-4.5 3.7-6.4 2.6-1.2-.7-1.7-.3-2.2 1.7-.4 1.5-1.3 2.5-2.4 2.5-1.1 0-2.2.5-2.5 1.1-.4.6-1.4.8-2.2.5-1-.4-1.3-.1-.8 1.4.4 1.3-.1 2.4-1.9 3.5-2.3 1.5-2.7 1.5-5.1-.1-1.7-1.1-2.2-1.9-1.5-2.4.9-.6.9-.9 0-1.5-.6-.4-1-1.7-.9-2.8.3-4.2-.1-5.7-1.6-5.7-.8 0-1.5.7-1.5 1.5s-.4 1.5-1 1.5c-.5 0-1 .8-1 1.8 0 1.1-1.5 3.4-3.3 5.3-2.4 2.4-3.2 4-2.7 5.3 1 3-.1 7.5-2 8.1-1.5.5-1.6 1.2-.7 5.4.8 4.1.6 5.1-.9 7-1 1.1-3 2.1-4.4 2.1-2.7 0-7 3.6-7 5.8 0 .7-.8.9-2.2.4-2.6-.8-5.7-.7-10.8.6-2.6.6-4.1.4-5.8-.6-2.6-1.7-3.4-1.2-3.6 2-.2 2.8-3.6 2.8-6.7-.1-1.1-1-3.4-2.2-5.2-2.5-1.7-.3-3.8-1.2-4.6-2-2.1-1.7-6.1-2.7-6.1-1.4 0 .5.5 1.8 1 2.8.8 1.5.6 2.1-1 3-1.2.6-2 2.1-2 3.5s-.5 2.5-1 2.5c-.6 0-1.4 1-1.9 2.2-.7 1.8-.2 3 2.5 5.8 3.8 4 7.9 5.2 6.9 1.9-1-3 1.1-2.2 2.4.9.6 1.5 3.3 4.6 6 6.9 4.4 3.8 7.3 9.3 4.9 9.3-.6 0-.8.7-.4 1.5.3.8.1 1.5-.5 1.5-.5 0-.3 1.3.6 3 1.9 3.6 1.9 6 .1 6-1 0-1.5 2.1-1.8 8-.3 5.4-1 8.6-2.1 9.7-.8 1-2 3-2.6 4.6-.8 1.9-1.7 2.7-3.5 2.7-2.9 0-3.8 1-2.6 3 .6 1 .1 2.1-1.6 3.7-1.4 1.3-2.2 2.7-1.9 3.3.3.5.6 2.5.7 4.4.1 3.1.5 3.5 3.6 4.1 2.5.5 3.9.2 5-.8 1.1-1.2 2-1.3 3.8-.5 2.5 1.2 2.5 3.6.1 8.7-.9 1.9-.8 2.5.4 3.5 2.1 1.5 3.4 5.6 1.9 5.6-.7 0-1 .7-.6 1.5.3.8.2 1.4-.2 1.3-1.3-.4-7 3.1-7.5 4.7-.4.8-1.3 1.5-2.2 1.5-.9 0-1.5.9-1.5 2.5v3.2c0 .5.4.8.9.8 2.7 0 3.7 5.8 1.6 8.8-1.4 2-1.1 7.3.5 9 1.1 1.2.1 4.5-1.5 5.1-1.6.6-3.7-1.6-3.3-3.4.2-.8-1.1-1.3-3.7-1.4-3-.1-4.4.4-5.8 2.1-1 1.3-2.9 2.3-4.1 2.3-4.6 0-8.6 1.3-8.6 2.7 0 .8-1.8 3.6-4.1 6.3-2.2 2.6-3.9 5.4-3.8 6.1.2.8-.5 2.9-1.5 4.8-1.1 2-1.5 4.3-1.2 5.7.5 1.7.2 2.6-.8 3-.8.3-1.5 1.8-1.4 3.2 0 3.6-2 11.2-3.7 13.8-1.9 2.9-7 3-9 .1-.8-1.2-1.5-1.8-1.5-1.4 0 .4-1 .1-2.3-.8-1.3-.8-2.6-1.2-3-.9-.3.3-1 .3-1.6 0-.6-.4-.4-2.3.6-5.1 2.3-6.9 1.3-8.8-6.2-12.5-3.6-1.8-7-4-7.5-5-1.2-2.3-1.3-3.3-.1-2.6 1.9 1.2 3.8-.5 3.3-3-.6-3-2-4-2.8-2-.3.9-1.3 1.6-2.1 1.6s-1.1-.5-.8-1.1c.4-.5-.1-1.9-1.1-3-1.1-1.3-1.4-2.3-.8-2.7 2.8-1.9 4.1-5.3 3.4-9.2-.4-2.2-.4-3.7.1-3.5.4.3 1.1 0 1.4-.6.4-.5 2.5-.9 4.7-.8 2.9.3 4.2-.1 4.9-1.3 1.4-2.5.1-4.5-3.2-5.2-1.7-.3-2.8-1-2.4-1.5.6-1.1-2.9-3.4-3.8-2.5-.9.9-6.5-3.4-7.1-5.4-.5-1.4-1.4-1.7-4.4-1.4-2 .3-4.5 1-5.5 1.7-2.1 1.5-5.7.8-7.3-1.4-1-1.3-1.4-1.3-2.8-.2-.9.7-1.6 2.4-1.6 3.7 0 1.6-.6 2.4-1.7 2.4-1 0-3.3.9-5.1 2-1.8 1.1-3.8 1.7-4.5 1.3-.7-.4-2.7-1.3-4.6-2-2.9-1-3.9-.9-6.2.4-2.7 1.6-8.5 1.1-7.4-.7.3-.5.1-1.2-.5-1.5-.6-.4-1-1.4-.9-2.3.3-3-.1-4-1.6-4.6-1.3-.4-1.4-.2-.5 1.4.9 1.6.8 2-.5 2-1.4 0-2 1.2-1.6 3.4.2 1-4.6 5.6-6 5.6-.5 0-.9-.4-.9-.9s-1.2-1.4-2.7-2c-1.6-.6-3.8-1.8-4.9-2.6-2-1.4-2.1-1.4-1.9.2.5 3.9 1.8 6.4 3.1 5.9.7-.3 1.6.4 1.9 1.5.4 1 1.2 1.9 1.8 1.9.8 0 .7.4-.2.9-1.2.8-1.1 1.4.5 3.7 3.2 4.5 3.4 4.8 4.4 7.4.5 1.4 1.4 3.2 1.9 4 .5.8 1.5 3.5 2.2 5.9 1.2 4 1.1 4.5-.6 5.8-1.6 1.1-1.7 1.5-.6 2.2.8.5 2.9.9 4.7.9 2.4 0 3.5-.5 3.9-1.9.5-1.4 1.2-1.8 2.6-1.4 1.4.5 1.9.2 1.9-1 0-1.3.6-1.6 2.3-1.1 1.2.3 2.8.6 3.5.6.8 0 1.1.7.8 1.7-.6 2 4.4 10.1 5.9 9.7.6-.2 2.8 1.2 5 3.1 3.1 2.6 3.7 3.7 2.8 4.6-.9.9-.9 1.7-.1 3.2.7 1.4.7 2.2-.3 2.7-.7.5-1.4 1.7-1.5 2.7-.2 1-.6 2.9-.9 4.3-.5 2 .2 3.4 3.5 7 2.3 2.5 4.8 5.9 5.5 7.6.8 1.7 2.6 3.9 4 4.8 1.4.9 2.3 2.1 2 2.6-.3.6-.1 1.5.4 2.2.6.7 2.2 2.7 3.6 4.5 2.2 2.7 3.1 3.1 6.3 2.8 2-.2 4.4-.5 5.2-.8 4.6-1.6 6.1-1.4 7.8.7 1.3 1.7 2.3 2.1 3.7 1.5 3.7-1.4 9.9-.9 13.1 1 2.4 1.4 4.3 1.8 7.3 1.4 3.5-.5 4.6-.2 6.6 1.7 1.4 1.3 2.5 3.4 2.5 4.6 0 1.3.4 2.5.9 2.8.5.3 1.4 2.6 2 5.1.9 3.4 1.6 4.5 3.1 4.5s2 .7 2 2.8c0 1.6.9 3.7 2 4.7 2.5 2.2 2.3 8.4-.2 10.3-1 .7-1.8 2.1-1.8 3.1 0 .9-.4 2.1-1 2.7-1.3 1.3 3.5 8.4 5.7 8.4 1.9 0 10.3 8.4 10.3 10.3 0 1.6 5.3 7.7 6.7 7.7.5 0 2.8 2.1 5.1 4.6 2.2 2.5 4.6 4.3 5.2 3.9 1.7-1.1 5 .5 5 2.4 0 2.2 2.5 4.5 3.9 3.6 1.4-.8 10.1 3 10.1 4.4 0 .6.6 1.1 1.4 1.1.7 0 1.9 1.3 2.6 3 .7 1.6 1.7 3 2.2 3 1.9 0 5 9.4 4.4 13.2-.6 3.5-.3 3.9 2 3.8.3-.1 1.6 1.9 2.8 4.2 1.6 2.9 2.1 4.8 1.5 6-1.2 2.3 9.7 15.8 12.8 15.8 1.3 0 2.2.3 2.2.7-.3 1.9.2 3.3 1.7 4.7 1.8 1.9 3.4 1.3 3.4-1.3 0-2.4 4.3-2.1 7.2.6 2 1.9 2.9 2 6.8 1.3 2.7-.5 5.2-.4 6.3.1.9.6 2.2.7 2.8.3 1.5-.9 2.9 1.4 2.9 4.7 0 1.6 1.4 4.2 3.5 6.5 1.9 2.1 3.5 4.1 3.5 4.4 0 1.2 4.9 3 5.5 2 1-1.6 16.5 9.2 16.5 11.5 0 .7.7 2.5 1.5 4.1 1.7 3.4 2.6 1.8 2.3-4.1-.3-3.7-.1-4 2.6-4.3 2.9-.4 3.1-1.7 1.1-6.4-.5-1.3-.2-1.5 1.4-1.1 1.2.3 3.6-.2 5.5-1.1 2.8-1.3 3.9-1.4 6.1-.4 2 .9 3.4.9 5.7 0 2.2-.8 3.5-.8 4.4-.1.6.5 1.6.9 2 .8 2-.3 3.4.2 3.1 1.2-.1.6 1 1.3 2.6 1.6 1.5.2 2.7-.1 2.7-.7 0-.5.7-1 1.6-1 1.1 0 1.3.6.9 1.9-.5 1.6 0 2 2.2 2.3 1.5.2 2.7.7 2.6 1.3-.1.5.3 1.6.9 2.2.6.7.7 1.3.4 1.3-.4 0-.2.9.4 2 1.3 2.4 3 2.6 3 .5 0-2.2 4.7-1.9 6 .4.6 1.3 1.7 1.7 3 1.4 2.4-.6 2.6-2.6.5-4.7-.8-.8-1.5-2.6-1.5-4.1 0-1.5-.4-2.4-1-2-.5.3-1-.2-1-1.2-.1-1.9-3-6.4-3-4.5 0 1.6-5.8-.5-9.3-3.5-1.6-1.2-3.3-2.3-3.8-2.3-2.1 0-4.7-3.8-4.2-6.4.3-1.4.9-2.4 1.3-2.1.4.3 1.1-.3 1.5-1.2.4-1.2-.1-2.4-1.4-3.5-2.4-1.9-8.3-13.7-7.5-15 .3-.4 0-.8-.7-.8s-.9-.3-.6-.7c.4-.3 0-1.4-.9-2.4-1.4-1.6-1.4-2 .7-4.8 1.3-1.7 2.7-3.1 3.2-3.1s.7-1.2.4-2.6c-.3-1.6 0-2.8.8-3.1.7-.2 1.6-1.6 2-3 .3-1.5 1.5-3.8 2.6-5.1 1-1.4 1.9-3.3 1.9-4.3 0-1.1.7-1.9 1.5-1.9s1.5-.9 1.5-2 .5-2 1-2c1.9 0 1.1-6.6-1-8.5-1.2-1.1-2-3.1-2-5 0-1.7-.7-4-1.5-5.1-1.8-2.4-1.9-4.4-.1-4.4 1.8 0 3.3-1.9 4.1-5.2.6-2.3.3-2.9-1.9-3.9-1.9-.9-2.6-2-2.6-4 0-3.6-1-4.1-4.6-2.3-3.9 2.1-8.5 2-13.1-.3-2.6-1.2-3.7-2.4-3.6-3.7.2-2.6-3-7.9-5.5-9.2-3.3-1.6-3.6-2.2-2.2-3.9.7-.8 1-3 .8-5-.3-2.9-.1-3.5 1.6-3.5 1.8 0 1.8-.1.2-1.9-2.1-2.3-1.1-5.1 1.9-5.1 2.7 0 3.8-2.1 2.9-5.7-.6-2.3-.5-2.4 1.1-1.5 1.3.7 3.2.6 6.6-.4 3.4-1 5.5-1.1 7.3-.4 2.9 1.1 3.3.2 1.5-3.2-.8-1.5-.8-2.7.2-4.4.9-1.9 1-3.8.2-8.2-1.4-8-.7-13.2 2-13.2 1.1 0 1.8-.3 1.4-.6-.3-.3-.1-1.8.4-3.2.8-2 .6-2.9-1.1-4.7-1.1-1.2-1.7-2.5-1.3-2.9.4-.4.8-2.1.9-3.9.1-1.8.4-5.4.7-8 .3-3 0-5.3-.8-6-1.5-1.5-1.6-10.6-.2-13.2 2.1-3.8 1.9-6.1-.8-7.3-3.4-1.6-3.5-1.5-3.5.8 0 1.9-.1 1.9-3.5.3-1.9-.9-3.2-2-2.9-2.5.3-.5-1.3-2.8-3.5-5.1-2.3-2.3-4.1-4.5-4.1-4.9 0-.5-.9-.3-1.9.4-1.5.9-2.2.8-3.6-.5-.9-.9-2.2-1.7-2.9-1.7-.7 0-2.5-.9-3.9-2l-2.5-2-.5 2.1c-.3 1.2-1 1.8-1.6 1.4-.6-.3-1.1-.1-1.1.6 0 1-.3 1-1.2.1-.7-.7-2.7-1.2-4.5-1.2-2.5 0-3.1-.4-2.7-1.5.5-1.1-.1-1.5-1.9-1.5-1.4 0-3.1-.9-3.9-2.2-1.1-1.6-2.4-2.1-5.9-2.1h-4.4v-4c0-4.3 1.6-5.7 4-3.7 1.2 1 1.5.9 1.5-.6.1-1.7.2-1.7 1.3-.3 1.9 2.4 4.4 3 5.1 1.2.4-1 1.4-1.3 2.7-1 3.1.8 4.9-.2 4.9-2.9 0-1.8.5-2.4 2.3-2.4 2.7 0 4.1-1 5-3.3.7-1.9 2.4-2.1 6.1-.7 1.8.6 2.7.6 3.2-.2.4-.7.3-1.3-.3-1.5-.6-.2-.9-1.3-.6-2.3.3-1.2-.1-2.2-1.1-2.6-.9-.3-1.6-1.2-1.6-2 0-1.1.6-1 3.4.1 3 1.3 3.5 1.3 4-.1.4-.9 1.3-1.4 2.1-1 .8.3 1.5.1 1.5-.4 0-1.6 1.8-1.2 3.7.8 1.2 1.2 3.5 1.9 6.7 2 5.6.2 13.1 4 13.9 7.2.4 1.4 1.3 2 3.5 2 3 0 5.9 2.8 7.5 7.2.4 1 1.5 1.8 2.6 1.8 2.6 0 5.3 4.4 4.5 7.5-.3 1.4-1 2.5-1.6 2.5-1.6 0 .3 2.1 3.1 3.4 5.1 2.2 10 6.1 10.6 8.3.4 1.6 1.3 2.3 2.9 2.3 1.4 0 3.3 1.1 4.4 2.5 1.1 1.3 2.2 2.1 2.6 1.8 1-1 .7-7.1-.4-7.8-.5-.3-1-1.1-1-1.6 0-.6.5-.7 1.1-.3.8.5.8.1 0-1.3-.6-1.1-.8-2.3-.5-2.6.3-.3 0-1.5-.6-2.8-.7-1.2-1.3-3.5-1.4-5-.1-1.6-1.2-3.8-2.4-4.9-2.7-2.5-2.8-3.6-.3-5.1 2-1.3 1.7-5.1-.9-9.8-.7-1.4-1-4.2-.7-6.9.4-3.7.1-4.8-1.5-6.1-2-1.7-4.2-9.1-2.7-9.1 1.1 0-1-5-3.1-7.3-1.2-1.3-3.2-1.8-7.4-1.8-5.1-.1-6.2-.5-10.6-4-2.8-2.2-5-3.7-5-3.3 0 .3-1.6-.4-3.5-1.6-2.9-1.8-3.5-1.9-3.5-.6 0 .9-.5 1.6-1 1.6-1.6 0-2.5-3.1-1.1-3.9.6-.4.9-1.5.5-2.4-.7-2 .7-2.2 2.4-.5.9.9 1.2.9 1.2-.3 0-.9-1.9-2.4-4.2-3.5-2.9-1.3-4.4-2.6-4.6-4.1-.2-1.2-2.3-4-4.8-6.1-2.4-2.2-4.4-4.4-4.4-5 0-.6-1.6-2-3.5-3.2-2.7-1.6-3.3-2.5-2.6-3.7.9-1.7.3-5.3-.9-5.3-.4 0-1.5-2.1-2.5-4.7-1.3-3.5-1.5-4.8-.6-5.1.8-.3.9-.8.1-1.6-.7-.9-.4-1.8 1-3.1 1.1-1 2-2.9 2-4.3 0-2.4.1-2.4 2.5-.8 2.1 1.4 2.4 1.4 1.9.1-.4-.8.1-1.7 1-2.1 2.2-.8 2-3-.5-5.5-1.6-1.6-2.1-3.6-2.4-8.7-.1-4.2-.7-6.8-1.5-7-.7-.3-1 0-.6.6s-.9.8-3.7.5c-2.3-.2-7.1-.6-10.6-.8-7-.4-8.1-1.2-8.1-6.3 0-2-.6-3.5-1.5-3.8-.9-.4-1.3-1.3-1-2.3.3-.9-.2-2.6-1-3.7-1.6-2.1-2-4.8-.6-4 .5.3 1.1-.3 1.4-1.3.4-1.7.9-1.8 4.5-.9 2.5.6 4.4 1.9 5.3 3.4 1.2 2.3 1.6 2.4 7.8 1.8 7.4-.8 10.1-1.8 10.1-3.9 0-.8.7-1.5 1.5-1.5s1.5-.5 1.5-1c0-.6 1-.8 2.4-.4 1.9.4 2.6.1 3.1-1.5.3-1.2 1.1-2.1 1.6-2.1s.7-1.1.3-2.4c-.4-1.9.1-3 2-4.7 1.8-1.6 2.4-2.9 2-4.2-.5-1.5-.3-1.9.9-1.4s2.3-.9 4.3-5.3c1.5-3.3 3-6 3.3-6 .4 0 .6-3.1.6-7 0-5.7-.3-7.2-2-8.4-1.9-1.4-1.9-1.5-.1-3.5 1.1-1.2 2.7-2.1 3.6-2.1 1.1 0 2-1 2.3-2.7.5-2.7-.9-4.7-2.4-3.7-.4.2-1 0-1.4-.6-1.8-2.9-15.5-7.3-15.5-5 0 .6-1.2.4-3-.5-2.7-1.4-3-1.4-3 0 0 1.9-2.4 1.9-4 0-1-1.2-1-1.5 0-1.5.7 0 2.3-1.1 3.6-2.5 1.3-1.4 1.8-2.5 1.1-2.4-3.1.4-3.8-.1-2.5-1.5.7-.8 1.6-1.2 2.1-.9.4.2.7-.1.7-.8 0-1 .3-1 1.2-.1 1.6 1.6 2.5 1.5 3.2-.6.3-.9 1.1-2.5 1.8-3.6 1-1.5 1-2 .1-2.3-.7-.3-1.3-1.6-1.3-3 0-1.9.4-2.3 1.9-1.8 1.2.4 2.1 0 2.5-1.1.8-2.1.9-2-4.1-2.7-3.7-.4-4.1-.3-2.8 1zm-7.5 28.4c0 .4-.7.6-1.5.3-.8-.4-1.5-1-1.5-1.5 0-.4.7-.6 1.5-.3.8.4 1.5 1 1.5 1.5zm8.9 3.2c-.1 1.8-.4 4.3-.8 5.6l-.7 2.5-2-2.7c-1.5-1.8-2.7-2.4-4.2-2.1-1.4.4-2.4-.1-3.1-1.5-1.3-2.4 0-2.9 1.8-.7 1.9 2.2 7.1-.1 7.1-3.2 0-1.3.4-2 1-1.7.6.3 1 2.1.9 3.8zm-6.9-1.3c0 .5-.5 1-1.1 1-.5 0-.7-.5-.4-1 .3-.6.8-1 1.1-1 .2 0 .4.4.4 1zm1 30.2c0 2.2-3.3 0-4.6-3.1-1.2-2.9-1.2-3.2.1-2.7.8.3 1.5 0 1.5-.7.1-1.4 3 5 3 6.5zm-12.5-.2c.3.5.1 1-.4 1-.6 0-1.1-.5-1.1-1 0-.6.2-1 .4-1 .3 0 .8.4 1.1 1zm-15.5 1.6c0 .8-.5 1.2-1 .9-.6-.4-.8-1.1-.5-1.6.9-1.4 1.5-1.1 1.5.7zm23 1.8c1.2 6.6 1 10.4-.4 10.9-1.8.7-3.2-.8-1.6-1.8s1.2-2.5-.6-2.5c-1.2 0-1.4-.5-.9-1.8.4-.9.7-2.7.6-3.9 0-1.6.4-2.1 1.4-1.7.8.4 1.5.7 1.5.8zm-46 24.4c0 .5-.3 1.2-.7 1.6-.5.4-.9 1.2-.9 1.7-.1.5-.2 1.3-.3 1.9 0 .5-.7.7-1.5.4-1.5-.6-1.2-2.7.7-5.2 1.1-1.4 2.7-1.6 2.7-.4zm-4.2 24.7c.7 1.5.8 2.5.2 2.5-.6 0-1 1.3-1 3 0 2.2.4 2.8 1.5 2.3 1.7-.6 4.7 2.6 3.8 4.1-.3.4-.1 1.1.5 1.5.7.4 1.3 1.8 1.4 3.1.2 1.3 1.4 3.4 2.8 4.7l2.5 2.2-2.2.1c-1.3 0-2.3-.5-2.3-1.1 0-.5-.4-.8-.9-.4-.5.3-1.2.1-1.6-.5-.3-.6-1.7.2-3.1 1.7-2.5 2.7-2.6 2.7-4 .8-.9-1.1-1-2.3-.5-2.8s.7-1.5.4-2.2c-.2-.8.8-2 2.4-2.9 1.5-.8 2.4-1.5 1.8-1.6-.5 0-.3-.5.5-1.1 1.2-.9 1.2-1-.3-.5-1 .3-2.7.1-3.8-.4-1.4-.8-1.9-.7-1.9.1 0 .7-.3.9-.6.6-.4-.4-.1-1.3.5-2.1 1-1.2.8-1.5-1.1-1.8-1.7-.2-2.3-1-2.5-3.3-.1-1.6-.7-3.1-1.3-3.3-1.7-.6-1.1-2.2.8-2.2 1 0 2.7-.7 3.8-1.5 2.6-2 2.9-1.9 4.2 1zm29.7 6.5c.3.5.1 1-.4 1-.6 0-1.1-.5-1.1-1 0-.6.2-1 .4-1 .3 0 .8.4 1.1 1zm-39.5 10c0 .5-.2 1-.4 1-.3 0-.8-.5-1.1-1-.3-.6-.1-1 .4-1 .6 0 1.1.4 1.1 1zm-68.2 98.2c-.3.7-1.3 1.5-2.4 1.7-1.6.3-1.7.1-.5-1.3 1.6-1.9 3.4-2.1 2.9-.4zm86.7 23.8c-.3.5-.1 1.1.5 1.5 1.3.8 1.3 4.5 0 4.5-.5 0-1 .7-1 1.5 0 1.9-.5 1.9-3.7-.3-1.5-.9-2.4-1.1-2-.5 1.1 1.8-1.1 5.6-2.7 4.6-.6-.4-.3 0 .7.9 1.8 1.7 1.7 5.1 0 4.6-.4-.2-1 .1-1.1.7-.8 2.4-2.5 3.5-3.7 2.5-.7-.5-3.3-1.3-5.9-1.6-2.5-.4-4.6-1.1-4.6-1.6s-.8-.7-1.9-.3c-2 .6-3-.4-4.9-4.9l-1.3-2.8 3.5.4c1.9.2 3.2 0 3-.4-.3-.4-.1-1.5.4-2.4.6-1.1 1.1-1.3 1.6-.5 1.2 1.9 2.8 1.2 2.1-.9-.5-1.5 0-2.1 1.9-2.6 3.7-.9 5.6.2 5.6 3.1 0 2.5 1 3.2 2.4 1.7.4-.4 1.2-.8 1.7-.8.5-.1 1.2-.2 1.5-.3.4 0 .1-.7-.6-1.5-.6-.8-1.8-1.2-2.6-.9-.8.3-1.4-.1-1.4-1.1 0-.9.7-1.6 1.5-1.6s1.5-.5 1.5-1c0-.6 1.1-2.2 2.5-3.6l2.6-2.6 2.5 2.7c1.3 1.4 2.2 3 1.9 3.5zm-188.8 2.7c-.4 3.9-2 5.1-4.6 3.4-1.1-.7-.9-1.3.8-3 1.1-1.1 2.1-2.6 2.1-3.1 0-.6.5-1 1-1 .6 0 .9 1.6.7 3.7zm155.4 6.9c1.2 1.4 1.1 1.6-.5 1.3-1.1-.2-2.1-1-2.4-1.7-.5-1.7 1.3-1.5 2.9.4zm-55.6 1.4c.3.5.1 1-.4 1-.6 0-1.1-.5-1.1-1 0-.6.2-1 .4-1 .3 0 .8.4 1.1 1zm88 5c.3.5.1 1-.4 1-.6 0-1.1-.5-1.1-1 0-.6.2-1 .4-1 .3 0 .8.4 1.1 1zm-73.5 75c0 .5-.4 1-1 1-.5 0-1-.5-1-1 0-.6.5-1 1-1 .6 0 1 .4 1 1zm3.7 10.6c-.3.3-1.2.4-1.9.1-.8-.3-.5-.6.6-.6 1.1-.1 1.7.2 1.3.5zm38 7c-.3.3-1.2.4-1.9.1-.8-.3-.5-.6.6-.6 1.1-.1 1.7.2 1.3.5zm-18 1c-.3.3-1.2.4-1.9.1-.8-.3-.5-.6.6-.6 1.1-.1 1.7.2 1.3.5zm-15.5 4.3c.8.1-.2 8.1-1.4 10.5-.7 1.2-.7 1.6 0 1.2.6-.3 1.8-.3 2.7 0 1.5.6 1.5.8-.1 2.5-1.5 1.7-1.9 1.7-4.5.3-2-1-2.9-1.1-2.9-.3s-.5.7-1.6-.2c-.9-.7-2.3-1.4-3.1-1.5-1.9-.3-1.9-.3-2.6-4.2-.6-2.9-.4-3.2 1.8-3.2s2.5-.3 1.9-2.4c-.4-1.8-.1-2.5 1.3-2.8 1.5-.4 6.1-.3 8.5.1zm14.8 18.1c0 .5-.2 1-.4 1-.3 0-.8-.5-1.1-1-.3-.6-.1-1 .4-1 .6 0 1.1.4 1.1 1zm-13 5.6c1.1 1.3 1 1.6-.7 2-1.5.4-1.9 1.1-1.6 2.7.5 2.1.5 2.1-1.2.5-1.2-1.1-1.6-2.4-1.1-4.2.7-2.9 2.7-3.4 4.6-1zM318.39 6.12c-.4 1.6-.2 3.1.5 3.8.9.8 1 .8.5-.1-.3-.6-.2-1.4.4-1.8 1.2-.8 1.3-4.5.1-4.5-.5 0-1.2 1.2-1.5 2.6z"/><path d="M325.29 27.52c-.3.5.1 1 .9 1 .9 0 1.6-.5 1.6-1 0-.6-.4-1-.9-1-.6 0-1.3.4-1.6 1zM288.79 48.42c0 1.2.5 2.1 1 2.1.6 0 1-.6 1-1.4 0-.8-.4-1.8-1-2.1-.5-.3-1 .3-1 1.4zM270.09 54.12c-.7.3-.9 1.2-.6 2 .4 1.1.9 1.2 1.9.3 2.5-2 1.7-3.5-1.3-2.3zM280.89 98.42l-2.4.7 2.4 1.5c1.3.9 3.7 2.4 5.4 3.5 1.6 1 2.6 1.4 2.3.8-.4-.6-.1-2.2.7-3.7.8-1.6 1-2.9.4-3.2-.5-.4-1.2.1-1.5.9-.3.9-1.1 1.6-1.6 1.6-.6 0-.8-.7-.4-1.5.6-1.6-1.1-1.8-5.3-.6zM289.29 106.42c-.3.6.4 1.5 1.5 2.1 2 1.1 2.1 1 1-.9-1.2-2.3-1.6-2.5-2.5-1.2zM294.79 106.52c0 .5.7 1 1.6 1 .8 0 1.2-.5.9-1-.3-.6-1-1-1.6-1-.5 0-.9.4-.9 1zM176.79 108.52c2 1.3 3.3 1.3 2.5 0-.3-.6-1.4-1-2.3-1-1.5 0-1.5.2-.2 1zM1.79 228.52c0 1.5-.5 3.1-1.2 3.8-.8.8-.8 1.5.2 2.7.9 1.1 1 1.8.1 2.9-.9 1-.7 1.7.6 2.7.9.8 1.4.9 1 .3-.7-1.2 4.1-1.3 6-.1.6.4 1.3-.4 1.6-1.9.5-2.7-2.4-6.4-5-6.4-.7 0-1.3-.8-1.3-1.8 0-.9-.5-2.4-1-3.2-.8-1.2-1-1-1 1zM163.49 238.82c-.3.9-1.3 1.7-2 1.7-2 0-1.9 4.6.1 6.2 1.3 1.1 1.5.9 1-1.5-.3-1.8 0-3.4.9-4.3.8-.8 1.3-2 1.1-2.6-.3-.7-.7-.5-1.1.5zM127.79 270.52c0 .5.5 1 1.1 1 .5 0 .7-.5.4-1-.3-.6-.8-1-1.1-1-.2 0-.4.4-.4 1zM363.99 281.92c-1.2.7-1.9 1.5-1.5 2 .4.4.1 1.1-.6 1.5-.7.5-1 1.4-.7 2 1 1.6 2.6 1.4 2.6-.4 0-1.9 1.6-2 2.3-.1.6 1.6 4.7 1 4.7-.6 0-.6-.7-.7-1.6-.4-.8.3-1.2.2-.9-.4.3-.6 0-1.9-.7-2.9-1.2-1.6-1.7-1.7-3.6-.7zM372.39 285.22c-1.3 1.3-.5 5.7 1.5 8.9 1.1 1.9 1.8 3.8 1.5 4.3-.3.5.5.4 1.9-.2 2.8-1.3 3.5-5 .9-4.5-.9.2-2.1-.6-2.8-1.7-.6-1.1-1.5-2.3-2.1-2.7-.6-.4-.2-1.3.9-2.1 1.6-1.2 1.7-1.5.3-2-.8-.3-1.8-.3-2.1 0zM381.79 287.42c-1.3 2.5-1.3 5.1.1 5.1.5 0 .7-.5.4-1-.4-.6.1-2.2.9-3.5.9-1.4 1.2-2.5.7-2.5-.6 0-1.5.9-2.1 1.9zM352.79 289.42c-1.9.4-4.3 1.2-5.3 1.7-1.6.9-1.7 1.2-.3 2.3.9.8 1.6 1.9 1.6 2.6 0 2.2 3.2 2.6 5.3.8 6.2-5.4 6.9-6.6 4.1-7.7-.9-.3-1.6-.5-1.7-.5-.1.1-1.8.4-3.7.8zM341.49 294.52c-.3 1.1-.1 2 .4 2s.9-.9.9-2-.2-2-.4-2-.6.9-.9 2zM337.79 296.52c0 .5.5 1 1.1 1 .5 0 .7-.5.4-1-.3-.6-.8-1-1.1-1-.2 0-.4.4-.4 1zM347.79 300.42c0 1.6-.4 2.1-1.5 1.8-1.9-.8-3.1 1.1-1.6 2.6.6.6 1.1 1.9 1.1 2.8 0 1.9 3.3 3.4 5 2.4 1.3-.8 1.3-.3 0 3-1.1 2.8-.3 7.8 1 7 .5-.3 1.3.2 1.8 1.1 2.1 3.7 2.2-2.2.2-7.9-1.1-3.1-2-6.4-2-7.4s-.9-3.2-2-4.8c-1.9-2.9-2-2.9-2-.6zM348.19 326.92c-7.8 4.7-8.9 9.6-4 17.5 3.7 5.8 5.9 13 3.6 11.6-.5-.3-1 0-1 .8 0 2.1 1.6 2.5 9.2 2.2 5.9-.2 6.7 0 7.2 1.7.3 1.3 1 1.8 1.9 1.5.8-.3 2-.1 2.8.3 2 1.3 4.3-.9 2.8-2.6-.9-1.1-.8-1.4.1-1.4.7 0 1.9.8 2.6 1.7 1 1.4 1 .6-.2-2.9-.8-2.6-2.2-5.2-3-5.9-.8-.6-1.4-1.9-1.4-2.8 0-.9-.9-2.2-2.1-2.9-1.5-1-1.8-1.6-1-2.6s.6-1.7-.7-2.9c-.9-.8-1.9-1.5-2.2-1.4-.8.1-6.3-3.5-9.2-6.2l-2.8-2.5 2.2-2.3c3.5-3.8.8-4.3-4.8-.9zM212.29 479.52c-.3.5-.1 1 .4 1 .6 0 1.1-.5 1.1-1 0-.6-.2-1-.4-1-.3 0-.8.4-1.1 1zM357.09 510.62c.4 1.6-.1 2.1-2.4 2.6-1.6.3-2.9.8-2.9 1.2 0 .3-1.6 1.9-3.6 3.5l-3.6 2.8-1.9-2.1c-1.1-1.2-2.5-2.1-3.2-2-.9 0-.9.2.1.6.6.2 1.2 1.3 1.2 2.4 0 1 .5 1.9 1 1.9 1.5 0 1.2 3.3-.6 5.8-2.2 3.1-.9 4.1 1.6 1.2 1.2-1.4 2.6-2 3.5-1.6 3.6 1.3 12.9-6.2 12.1-9.7-.3-1.2.4-2.2 1.9-2.9 1.9-.8 2.2-1.5 1.5-2.8-.5-1-1.9-2-3.1-2.3-1.7-.5-2-.2-1.6 1.4z"/></g></svg>