<svg version="1" xmlns="http://www.w3.org/2000/svg" width="642.188" height="1055.59" viewBox="0 0 481.641 791.693"><g fill="#222"><path d="M76.34.148c-.3.4-.8 2.6-1.2 4.9-.4 2.8-1.1 4-1.9 3.7-2-.8-3.9 2.3-3.4 5.5.4 2.5.1 3.1-1.6 3.3-1.6.2-2.1 1-1.9 3.1.1 2.2-.2 2.7-2.3 2.7-2.6 0-3.1.9-1.3 2.7.7.7.9 2 .5 3-.5 1.3-.9 1.4-1.5.5-.6-1-1.2-.7-2.4 1.1s-1.3 2.7-.4 3.6c.8.8.8 1.4 0 2.2-.6.6-.9 1.7-.6 2.5.2.7-.5 1.9-1.6 2.6-1.2.7-2.1 1.9-2.1 2.6 0 .7-.7 1.5-1.5 1.8-.8.4-1.5 1.4-1.5 2.3 0 1-1.8 2.7-4.1 4-3.4 1.9-4.5 2.1-6.5 1.2-2.2-1-2.4-.8-2.4 1.3 0 3.6-6 4.9-11.4 2.5-2-.9-2.9-.9-4.1.1-2 1.7-16 3.2-19 2-3.3-1.3-5.5 1.3-3.2 3.8 1 1.1 1.3 2.2.7 3.3-.5.8-.7 2.4-.5 3.5.2 1 .4 2.5.4 3.1.1.7.8 1.3 1.6 1.3s1.5.6 1.5 1.4c0 2 6.5 6.6 9.4 6.6 1.4 0 2.8.5 3.1 1 .3.6 1.7.7 3.1.4 1.8-.5 3.1-.1 4.5 1.4 2.4 2.6 2.4 3.2.2 3.2-1.6.1-1.6.2.1 1.5 1.1.8 3.1 1.5 4.5 1.4h2.6l-2.5-1.1c-1.5-.6-2-1.2-1.2-1.5.6-.3 1.2-1.1 1.2-1.8 0-.8.5-1.7 1.2-2.1.6-.4.8-.3.5.3-.4.6 0 1.6.8 2.3.8.7 1.2 1.6.9 2.1-.3.5-.1.9.5.9.5 0 2.3 1.1 3.9 2.5 1.6 1.3 3.2 2.2 3.6 1.8.3-.3.6.4.6 1.6 0 1.3.9 3.6 2.1 5.2 1.1 1.6 1.9 3.9 1.8 5.2-.1 1.2.1 3 .5 3.9.4.9.5 2.1.2 2.6-.3.6.1 1.5.9 2.2.8.6 1.4 2.7 1.3 4.5-.1 1.9.3 4 .9 4.7 2.1 2.7 2.2 5.8.2 6.8-1 .6-1.9 1.7-1.9 2.5s-.4 1.5-1 1.5c-.5 0-.2 1.5.7 3.2l2.4 4.8c.4.8 1.3 1.4 1.9 1.2.9-.2 1.1.9.8 4.1-.3 2.5-.1 5.2.4 6.2 1.2 2.1-2.5 14-5.3 17.1-1.1 1.1-1.9 2.4-1.9 2.8 0 .4-.9 1.9-2 3.4-1.4 1.9-2.2 5.1-2.7 10.7-.5 6.8-1 8.4-3.1 10.3-1.6 1.6-3.3 2.2-4.8 1.9-2.2-.4-2.4-.1-2.4 4.2 0 2.5.5 6.3 1.1 8.4.8 3 .7 4.2-.6 5.9-.8 1.2-1.5 3-1.5 4 0 .9-.6 2.1-1.3 2.5-2.1 1.2-3.1 6.2-1.4 6.9.8.3 1.4 2.1 1.5 4.2.1 2 .6 3.8 1.2 4 1.7.6 1.1 3.2-.7 3.2-1.5 0-1.5.1 0 1.8 1.6 1.7 1.5 2.1-.3 5.7-2.4 4.7-2.6 9.3-.4 12.3.8 1.2 1.3 2.6.9 3.1-.3.5-.1 1.2.4 1.5.4.3.6 3.7.3 7.5-.4 6.2-.3 6.9 1.4 6.8 1.2-.2 2 .8 2.7 3.3 1.7 6.7 1.9 10 .8 11.4-1.4 1.6-.4 7.1 1.5 8.7.8.6 1.4 2.6 1.4 4.5 0 1.8.5 3.6 1 3.9.6.3 1 2.4 1 4.6 0 2.2.4 3.8.9 3.5.5-.3 2.5.7 4.5 2.3 2 1.6 3.2 3.1 2.7 3.3-1.3.5 1.9 7.8 3.4 7.8.7 0 2.3 1.6 3.5 3.6 1.8 2.7 2.1 4.4 1.6 7.5-.6 3.6-.4 4 1.9 4.9 2.4.9 3.5 3 1.5 3-1.4 0-1.2 2.6.3 4.2.8.7 1.2 1.8 1 2.4-.2.6.9 1.6 2.4 2.3 1.6.8 4 2 5.5 2.7 2.7 1.4 2.7 1.4 3.4-2.3.8-4.2 3.3-8.2 5.1-8.3 2.1 0 2.2-1.5.8-6.9-1.3-5.1-1.3-5.2 1-6.3 2-.9 2.2-1.4 1.4-3.5-1.2-3.2-1.2-9.3.1-9.3.5 0 .7-.8.3-1.8-.5-1.3-.1-1.2 1.5.5 1.2 1.2 3.8 2.5 5.7 2.9 1.9.3 3.5 1 3.5 1.4 0 1.1 4.8 3 7.5 3 1.4 0 3 .9 3.7 2 1.4 2.1 4.8 2.8 4.8.9 0-.6.7-.9 1.5-.5 2.4.9 4.3-.3 5-3.2.5-2 .8-2.3 1.6-1.1.5.9.9.9.9.2 0-.6-.4-1.4-.9-1.8-1.5-.9 2.1-6.5 4.2-6.5.9 0 1.7-.5 1.7-1 0-.6 1-.8 2.3-.5 1.3.4 4.1-.4 7.1-1.9 3.8-1.9 5.4-2.3 7.4-1.5 1.9.7 2.9.6 4-.4.9-1 2.8-1.3 5.8-.9 3.6.4 4.4.2 4.4-1.2 0-.9.7-1.6 1.5-1.6 1 0 1.5-1 1.5-3.1 0-2.6.2-3 1.5-1.9.8.6 1.9.9 2.5.5.6-.4 2 .1 3.1 1.1 1 .9 1.9 1.4 1.9 1 0-.4 1.6.2 3.6 1.4 3.4 2.2 3.6 2.2 6.8.5 2-1.1 4.5-1.6 6.4-1.3 1.8.2 3.2 0 3.2-.5 0-1 5-.1 10.3 2.1 2.4.9 4.7 2.9 6.2 5.2 1.9 3.1 2.8 3.7 4.9 3.3 2.1-.4 2.6 0 3.2 2.1.5 2.1 1.2 2.6 3.9 2.6 1.9 0 3.7-.5 4-1 .9-1.5 2.5-.2 2.5 2.1 0 1.1.4 1.8.8 1.5 1.7-1 9.3 3.4 11 6.4 1.5 2.9 2.1 3.1 5.7 2.7 2.2-.3 4.7-.6 5.5-.8 2.1-.6 4.9-5.2 3.9-6.5-.5-.6-.6-1.4-.3-1.7.8-.7-1.5-9.6-2.8-11.4-.5-.7-.5-1.4.2-1.8.6-.4 1.1-2.1 1-3.9-.4-6.2-.2-6.9 1.5-5.2.8.8 1.5 2.4 1.5 3.5 0 1.2.6 2.1 1.4 2.1 3.7 0 4.6 8.4 1 9.2-2.1.5 4.4 5.3 8.2 6.1 2.9.6 3.3.3 5-3.6 1-2.3 2.3-4.9 3-5.7 1-1.4 2.3-5.5 2.6-8.8.1-.6.9-1.2 1.9-1.2 3 0 4.8-1.1 4.2-2.6-.3-.8.1-1.4.9-1.4 2 0 4-6.8 2.8-9.1-.6-1-1-2-1-2.3 0-.3 3.4-.3 7.6-.1 8.5.6 10.4-.2 10.4-4.3 0-1.6 1.3-3.7 3.7-6 4-3.7 5.3-9.2 2.6-11.3-.7-.6-1.3-2.2-1.3-3.5 0-1.3-.4-2.4-.9-2.4-1.5 0-1.9-3.6-.5-5.5 1.1-1.4 2.1-1.6 5.6-1.1 2.3.4 4.7 1.1 5.4 1.7.8.7 1.4.7 1.9-.1.3-.5 1.1-1 1.6-1 .6 0 .8.4.4.9-.3.5 0 1.3.6 1.7.9.5 1-.2.6-2.6-.4-1.8-.7-3.6-.7-4.1 0-.5-1.8-.9-4-.9-2.9 0-4 .4-4 1.5 0 2-2.4 1.9-5.5-.1-1.5-1-2.5-1.2-2.5-.5s-2 1.1-5 1.1c-5.3 0-7-1.5-7.6-7-.2-1.4-.5-3.7-.7-5.2-.2-1.5-.9-3.4-1.6-4.2-2.2-2.6-2.5-9-.6-12 1.1-1.6 1.3-2.6.6-2.6-.7 0-1.1-.6-.9-1.3.2-.7-1.4-2.8-3.5-4.6-2.6-2.4-3.6-3.9-3.2-5.2.5-1.4-.2-2.2-2.9-3.3-4-1.7-4.3-2.3-2.1-4 1.4-1 1.3-1.8-.4-7-1.1-3.3-2.9-6.7-4-7.6-1.5-1-2.4-3.4-3.1-7.3-.5-3.2-1.6-6.5-2.5-7.3-1.2-1.2-1.3-1.9-.4-3 1.6-1.9.2-11.7-1.6-11-.8.3-1.9-.1-2.5-.9-.6-.8-2.8-1.9-4.8-2.6-2-.7-4.8-2-6.1-3-1.3-1.1-2.9-1.9-3.5-1.9-1.7 0-4.5-5.7-3.9-7.9.4-1.4.1-2.1-1-2.1-.8 0-1.8-.7-2.1-1.6-.3-.9-.2-1.2.5-.8.6.3.5-.3-.2-1.5-.8-1.1-2.7-2.3-4.3-2.7-1.7-.4-3.8-1.7-4.9-3-1-1.3-2.7-2.4-3.8-2.4-1.1 0-2.4-1-2.9-2.3-.6-1.2-2.6-4.6-4.4-7.5-1.9-3-3.2-6.2-2.9-7.2.3-1.2-.2-2-1.6-2.5-1.3-.4-2.4-1.8-2.8-3.5-.3-1.6-1.1-3.1-1.9-3.4-.8-.3-1.4-1-1.4-1.6 0-1.7-5.1-8.1-6-7.5-1.1.7-3.2-7.3-2.5-9.6.4-1.3 0-2.8-1-3.9-.9-1-1.5-2.5-1.3-3.2.5-1.4-4.4-8.4-9.4-13.6-2.8-2.8-2.9-3.2-1.3-3.2 1.6 0 1.1-.9-2.4-4.1-2.7-2.5-5.2-3.9-6.5-3.8-1.2.2-3-.2-4.2-.8-1.1-.7-3-1-4.1-.7-2.4.7-8.4-5.1-10.4-10-.8-1.8-2.7-3.4-5.6-4.7-2.8-1.2-5.1-3.1-6.4-5.4-1.2-1.9-2.7-3.5-3.5-3.5-1.7 0-6-2.7-8.6-5.3-1-.9-2.3-1.7-2.8-1.7-.6 0-2.4-1-4-2.1-2.7-2-4.1-2.1-8.1-.5-1.2.5-2.5-.5-4.8-4-1.8-2.6-3-5.2-2.7-5.9.7-1.9-.5-2.6-2.1-1.3-1.9 1.5-10.4 1.8-12.2.4-.8-.6-2.3-1.1-3.4-1.1-2.1 0-2.8-.9-4.7-6.3-.7-1.8-1.9-3.2-2.9-3.2-.9 0-2.8-1.1-4.3-2.5s-2.9-2.1-3.1-1.7zm162.3 320.3c0 .6-.4.7-1 .4-.5-.3-1-1.1-1-1.6 0-.6.5-.7 1-.4.6.3 1 1.1 1 1.6z"/><path d="M19.84 86.548c-1.6 1.6-1.5 2.8.3 2.8.8 0 1.5-.9 1.5-2 0-2.3-.2-2.4-1.8-.8zM253.04 333.448c-.9 1.5.1 2.1 2.6 1.7 2.1-.3 2.1-.3.1-1.5-1.4-.9-2.2-.9-2.7-.2zM283.24 342.248c-1.7 3.7-1.7 4-.1 6.5 1.8 2.6 1.7 5.1-.3 11.4-.9 2.8-.8 3.3.9 4.2 1.6.9 1.9.7 1.9-1 0-1.1.6-2 1.3-2 1 0 1.3-1.3 1.2-4.5-.2-4.7.3-5.3 2.4-3.3 1 1.1 1.6.8 3.1-1.2 1.6-2.1 1.7-2.7.4-4.4-.8-1.1-1.4-2.9-1.4-3.8 0-1.6-5.2-5.8-7.1-5.8-.3 0-1.4 1.7-2.3 3.9zM251.64 342.748c0 1.1-1 1.3-4 .9-2.7-.4-4-.2-4 .6 0 .7-.4 1-.9.6-.6-.3-.8.3-.6 1.4.4 2.3 2.3 6.1 3.1 6.1.2 0 0-.9-.6-1.9-1.3-2.5-1.3-3.4 0-2.6.6.3 1 .1 1-.5s1-.8 2.8-.4c3.2.8 5.6 3.5 4 4.5-2.1 1.3.2 2.9 2.7 1.9 2.1-.8 2.5-.6 2.5.8s.2 1.4.9.3c.8-1.3 1.7-1.2 6.3.4l5.4 1.8 2.7-2.7c4-4 5.2-6.7 3.6-7.7-1.8-1.1-2.6-1.1-3.3 0-.9 1.5-7.2 2.2-10 1.2-1.4-.6-3.5-2.2-4.8-3.6-2.3-2.7-6.8-3.4-6.8-1.1zM245.64 354.848c0 .8-.4 1.5-.9 1.5-1 0-.2 4.8 1 5.6 1.4.8 1.1 3.4-.4 3.4-.8 0-1.9 1.1-2.5 2.5-.9 1.9-.8 2.6.3 3.2.7.4 1.5 1.4 1.7 2.2.5 2.2 4.2 5.7 5.5 5.3 2.2-.7 5.2 1.8 6.9 5.8 1.2 2.6 2.3 3.9 3.2 3.5.7-.2 2.4.2 3.7 1.1 1.3.9 2.9 1.3 3.5.9.5-.3 1 0 1 .7 0 .9.3.9 1-.2 1.6-2.5 1.1-9.3-.9-13-1.2-2.3-2.9-3.8-5-4.4-1.7-.5-3.1-1.4-3.1-2 0-1.1-2.6-2.8-6.4-4.2-1.4-.5-1.7-1.4-1.3-4 .4-2.4.1-3.4-1.1-3.9-1.3-.5-1.3-.8-.4-1.4 1-.6 1-1-.2-2-.8-.7-2-1-2.6-.6-.5.3-1 .1-1-.4 0-.6-.4-1.1-1-1.1-.5 0-1 .7-1 1.5zM272.34 391.948c-1.2 1.3-.8 3.1 1.6 6 1.6 2.1 2.2 4.2 2.2 8.1 0 3.5-.4 5.3-1.2 5.3-.7 0-1 .6-.7 1.3.2.7-.7 1.9-2.1 2.7-2.6 1.4-3 2.6-1.6 4.9.7 1 0 2-2.2 3.5-3.1 2.1-4.2 5.4-2.3 6.7.5.4.5 1.3 0 2-1.2 2-1.4 3.8-.3 4.5.5.3.9 1.6.9 3 0 1.5.6 2.4 1.5 2.4 1.9 0 4.2 5.3 2.5 5.8-1.3.5 6.8 6.8 10.4 8.2 2.5.9 3.5 3.3 1.7 4.4-1.6 1-1.2 22.3.5 28.2.9 3 1.3 6.1 1 6.9-.2.7 1 3 2.9 5.1 3.1 3.3 3.9 3.7 8.2 3.6 2.6 0 5.8-.3 7-.7 1.6-.5 2.5-.1 3.8 1.9 1 1.5 2.7 2.6 3.9 2.6 2.5 0 7 4.2 5.9 5.4-.5.4-.3.6.2.5 2.2-.6 5.3 1.3 5.9 3.6.3 1.3-.1 4.4-.9 6.9-1.4 4.1-1.4 4.9 0 8.2.8 2 1.4 4.9 1.3 6.4-.2 2.7 3.7 8.8 5.7 9 .6 0 1.8 1.1 2.8 2.5l1.7 2.4-4.3-.3c-2.3-.1-4.8-.5-5.4-.9-.6-.4-1.4-.3-1.8.3-.4.6-1.1.8-1.6.4-.5-.3-2.3-.3-3.9.1-2.5.6-2.8.9-2 2.5 1.6 2.9 1.2 4.2-1 3.5-1.1-.4-2-.2-2 .4 0 .6-.7 1.1-1.5 1.1s-2.4.9-3.5 2c-1.2 1.2-2.6 1.8-3.2 1.4-.7-.4-.8-.3-.4.5 1.4 2.2-.5 9.3-2.5 9.8-2.3.6-2.5 2.1-.4 2.9.8.4 1.5 1.3 1.5 2.1 0 1.2-.3 1.3-1.4.4-1.2-1-1.7-.6-2.9 2.1-1.2 2.9-3.2 7.2-4.6 10.2-.2.5.4.6 1.3.3 1-.4 1.9-.1 2.3.9.3 1 .8 1.2 1.2.5.4-.6 1.2-.2 1.9.9 1.5 2.4-.2 2.7-4.3.8-3.5-1.6-5.1.6-2.4 3.3 1.8 1.8 2.3 3.1 2 5.4 0 .6 1.3 1.9 3 2.9 2.2 1.3 2.8 2.3 2.3 3.4-.4 1-1.2 3.2-1.9 5-.6 1.8-1.5 2.9-2 2.5-.4-.5-.3.1.3 1.2.7 1.5.7 2.7-.3 4.5-.7 1.3-1.1 2.9-.8 3.6.2.7 0 1.5-.6 1.9-.8.4-.6 1.5.4 3.5 1.9 3.7 1.9 5.4 0 7-.9.8-1.2 1.7-.7 2.4.5.6 1.2 1.9 1.5 2.9.5 1.4.2 1.6-1.9 1.1-1.5-.4-3.2-.1-4.2.7-2.7 2.2-6.1 3.9-7.7 3.9-.8 0-1.4.6-1.3 1.2.2.7-.4 1.3-1.2 1.2-1.1-.1-1.6 1.3-1.8 5.5-.2 3.1-.8 5.9-1.4 6.2-.7.5-.8 2.5-.3 6.1.4 2.9.9 6.4 1 7.8.2 1.4.4 2.5.5 2.5.7 0 .7 10.6 0 11-.5.3-.2 2.1.6 4 .7 1.8 1.1 4.1.8 4.9-.3.8 0 2.4.6 3.7 1.1 1.9 1 2.1-.4 1.6-1.1-.4-1.6-.1-1.6 1.2 0 1.4-.7 1.7-3 1.6-2.4-.1-3 .2-2.5 1.3.3.8-.6 2.9-1.9 4.7-2.5 3.2-2.5 3.3-.6 5 2.5 2.2 5 7.2 5 9.7 0 3 5.8 2.5 7-.7.5-1.4 1.6-2.5 2.3-2.5 1.9 0 .1-10-2.1-11.8-1.4-1.1-1.4-1.2 0-1.2.8 0 2.3-.9 3.4-2.1 1.5-1.7 2.6-2 5.7-1.5 2.5.4 3.6.3 3.2-.4-.3-.6.1-1.3.9-1.6.9-.3 1.8-2.1 2.2-4 .5-2.9.9-3.3 2.9-2.8 1.3.3 2.6.1 2.9-.5.7-1.1-2.1-6.1-4.1-7.4-2.5-1.6-3.4-4.5-2.1-7.1.6-1.4 1.7-2.6 2.5-2.6 1.1 0 1.1-.4.3-2.1-.7-1.1-1-2.2-.8-2.4.2-.1 2.2-1.4 4.6-2.9 2.3-1.4 4.2-3.3 4.2-4.1 0-2.2 5.6-1.9 8.5.4 1.7 1.2 2.1 2.1 1.4 2.8-.8.8-.6 1.9.5 3.6 1.5 2.3 1.5 2.5.1 3.1-1.5.5-1.4.9.4 3.4 2.2 3.1 2.5 8.8.6 11.2-1.6 2.1-1.6 5.6 0 7 .7.6 3.3 1 5.6.8 3.3-.2 4.4-.8 4.9-2.3.6-2.3 2.7-3 4.5-1.5 1 .8 1.5.7 1.8-.2.4-1 .9-.8 1.7.5.8 1.2 1.6 1.5 2.8.8.9-.5 2.6-.5 3.7-.1 1.2.5 2.8.4 3.6-.1 2.3-1.5 4.9-1 4.9.8 0 1 .9 2.9 2 4.3 1.5 2 2 2.2 2.5.9.4-1.1 2.1-1.6 6.1-1.7 5.4-.1 5.5-.1 7.1 3.6 1 2 3.2 5.6 5 7.9 3.4 4.2 4.3 8.9 2.2 11-1.6 1.6-.2 5 2.2 5.6 1.7.5 2 1.1 1.4 3.6-.5 2.3-.2 3.4 1.5 4.8 6.6 5.7 8.1 7.5 7.7 8.7-.3.8.1 2 .9 2.7.9.7 2.2 2.5 2.9 4 1.3 2.3 1.3 2.8 0 3.3-1.2.4-1.2 1.1-.3 3.7.9 2.6.8 3.3-.6 4.1-.9.5-1.6 1.4-1.6 2.1 0 .7.4.6 1-.3.8-1.2 1-1.2 1-.1 0 1.7 2.9 4 5.2 4.1 1 0 2.2.9 2.8 2 .6 1.1 2.1 2 3.5 2 1.3 0 2.7.5 3 1 .5.8 1.1.7 2 0 2.2-1.8 5-.3 7.9 4 1.4 2.2 3.1 4 3.6 4 .6 0 1.5 1.1 2.2 2.5.8 1.9 1.5 2.2 2.8 1.5 1-.5 2-.7 2.2-.4 1.4 1.4.3-5.4-1.3-8-2.3-3.8-2.4-6.2-.2-7.5 1.4-.7 1.7-2.6 1.9-9.8.1-4.8-.2-9.3-.8-10-1.2-1.4-.2-3.3 1.7-3.3 1.4 0 2.5-2.1 2.5-5.1 0-1.1.7-2.2 1.5-2.5.8-.4 1.2-1 .9-1.5-.3-.5-.7-1.7-.9-2.6-.2-1-.6-3-1-4.6-.5-2-.4-2.7.8-2.7.8 0 1.8-.7 2.1-1.6.4-.9 1.3-1.4 2.2-1 .8.3 1.2.2.9-.4-.3-.6-1.3-1-2.1-1s-2.2-1.6-3.1-3.5c-1.5-3.2-1.5-3.6 0-5.3.9-1 1.7-2.5 1.7-3.3.1-.9.7-.7 1.9.8 1.1 1.3 2.1 2.3 2.4 2.3.2 0 .2-2.1-.1-4.6-.4-3.6-.2-4.5.8-3.9.9.6.9.2-.1-1.6-1.2-2.1-1.4-2.2-1.7-.6-.2 1.2-.9 1.6-1.9 1.3-.8-.3-1.8-.6-2.2-.6-1.5 0-2.9-4.6-1.9-6.3.5-1 .6-2.2.3-2.8-.4-.5 0-2 .9-3.3 1.4-2.3 1.2-6.6-.4-6.6s-3.2 3.1-2.7 5.2c.4 1.2.1 2.8-.5 3.5-.7.9-.7 1.7.1 2.6.6.8.8 1.7.4 2-1.2 1.2-1.2 6.1-.1 7.5.9 1.1.6 1.2-1.8.6-1.6-.4-3.1-1-3.4-1.4-.3-.4-1.6-1.1-2.8-1.5-1.8-.5-2.2-1.2-1.9-2.7.8-3.1-.9-6.5-3.6-7.1-2.5-.7-5.2-5.1-4.1-6.8.8-1.3-2.4-4.9-4.3-4.9-2.1 0-5.3-4.2-4.7-6.2.3-.9 0-1.9-.6-2.3-1.5-1-1.2-2.3.8-2.8 1.5-.3 1.5-.5-.3-1.2-3.3-1.3-4.7-2.7-3.5-3.5.6-.3.8-1.9.4-3.6-.4-2.1-1.9-3.7-5.5-5.9-2.8-1.7-5.2-4-5.5-5.3-.8-2.7-4.1-5.2-6.1-4.5-1.3.5-7.3-4.2-7.3-5.8 0-.4.9-.9 2-1.2 1.1-.3 2-1.2 2-2.1 0-2.2-.8-2-2.9.6-1.1 1.3-2.3 1.8-3 1.4-.9-.6-.7-1.2.7-2.2 2.5-1.7 7.4-10.3 6.6-11.5-.3-.5.1-2.2.9-3.8 1.3-2.6 1.3-3.5 0-7.5-1-2.8-2.7-5.4-4.4-6.7-2.6-1.8-2.8-2.3-1.7-4.2.7-1.2 1.1-2.5 1-3-.1-.4.7-.7 1.8-.7s2-.6 2-1.3c0-1.5-2.8-5.8-4.9-7.3-.8-.7-1.5-3.1-1.6-5.9-.2-3-.8-5.3-1.8-6-.9-.6-1.8-2.2-2.2-3.6-.4-1.6-1.8-2.9-3.7-3.7-2.3-.8-2.8-1.5-2.1-2.4.7-.9.7-2.8-.2-6.3-.9-3.4-1-5.4-.3-6.2 1.4-1.7.1-5-1.3-3.6-1.8 1.8-7.8-5.6-7.2-8.8.3-1.5-.3-4.1-1.1-5.8-.9-1.7-1.4-3.6-1.1-4.1.3-.5-.2-2.1-1.1-3.5-1.4-2.1-1.4-2.5-.2-2.5 2.6 0 .9-4.9-1.8-5.6-1.4-.4-2.4-1.4-2.4-2.4 0-.9-.9-2.5-2-3.5-1.2-1-1.8-2.5-1.5-3.2.2-.8-.2-2.5-1.1-3.7-.8-1.3-1.4-2.8-1.3-3.2.5-2-3.6-8.4-5.3-8.4-1.1 0-1.6-.5-1.3-1.1.4-.5-.1-1.9-1-2.9-1.1-1.2-1.4-2.6-1-3.9.4-1.2 0-3-.9-4.3-.9-1.2-1.6-2.9-1.6-3.8-.1-2.1-5.5-7.9-8.5-9-1.4-.5-2.5-1.5-2.6-2.2 0-.7-.2-2.2-.4-3.3-.2-1.1-.7-3.6-1-5.5-.3-1.9-1.1-4-1.9-4.5-.7-.6-1.6-2.6-2-4.5-1.5-7.8-3-12.8-4-14.1-.6-.8-3.3-2-6.1-2.7-8.3-2.2-13.5-9.4-8.7-12.1 1.4-.8 1.5-1.3.4-3-1-1.8-.9-2.4.8-4.1 1.2-1.2 2.5-1.8 3-1.5.5.3 1.8-.2 2.8-1.2 1-1 2.7-2.3 3.8-2.9 1.7-1 1.8-1.4.5-3.8-.8-1.5-2.3-2.6-3.4-2.6s-1.7-.3-1.4-.7c.4-.3.2-1.2-.4-2-1.4-1.6.3-1.7 1.9-.1.9.9 1.2.6 1.2-1.4 0-2.5-2.1-5.3-3.2-4.2-.3.3-2.2-.2-4.1-1-2-.8-3.7-1.1-3.9-.6-.2.5-1.6 1.2-3.2 1.6-2.2.5-2.7.4-2.4-.7.8-2-2.1-6.5-5.1-8-2.8-1.4-2.8-1.4-5.4-.3-1.4.5-1.8.3-1.5-1.2.3-1.8-2.2-3.1-3.5-1.8zm41.1 269.3c1 .6 1 1-.2 2-1.7 1.4-3.6.7-3.6-1.5 0-1.5 1.8-1.8 3.8-.5zm-14.8 4.6c0 .9-.6 1.2-1.5.9-.8-.4-1.2-1-.9-1.5.8-1.4 2.4-1 2.4.6zm-2.3 3.1c.3.8.1 2-.5 2.6-.6.6-.8 1.7-.5 2.6.5 1.2.1 1.2-2.5-.3l-3.1-1.9 2.2-2.2c2.7-2.7 3.6-2.9 4.4-.8z"/><path d="M383.34 641.948c-1.1 1.2 1.3 4.4 3.3 4.4 1.6 0 1.8-.4 1.1-2.3-.8-2.2-3.1-3.3-4.4-2.1zM433.64 655.248c0 .6.4 1.3 1 1.6.6.3.7-.1.4-.9-.7-1.8-1.4-2.1-1.4-.7zM435.04 667.848c-.4.8-1.3 1.5-2.1 1.5-1.1 0-.8.9 1.1 3.1 1.4 1.7 2.6 3.5 2.6 4 0 1.6 3.9 1 4.9-.9.6-.9 1.1-1.3 1.1-.8 0 .6.6.1 1.4-1 1.3-1.7 1.2-2.1-.3-3.5-4-3.8-7.8-4.8-8.7-2.4zM425.34 670.048c-.4.3-.7 1.8-.7 3.3 0 1.4-.6 3.2-1.2 3.8-1.8 1.8-1.9 7-.2 7.6.8.3 2.1.3 2.9 0 .8-.4 2.2-.1 3 .6.8.7 1.5.9 1.5.4s.5-.2 1 .6c.8 1.2 1 .9 1-1.3 0-1.6.8-4.3 1.8-5.9 1.5-2.7 1.5-3.2.2-3.6-.8-.3-2.7-1.8-4.2-3.4-2.6-2.8-3.9-3.4-5.1-2.1zM448.54 700.748c-.3.4-.4 1.7-.2 2.9.4 2.2.9 2.3 9.4 2.4 9.2.1 15.1 1.8 16.3 4.8.3.8 1.1 1.5 1.8 1.4 1 0 1-.2.1-.6-2.4-.9-1.3-2.2 2.2-2.9 2-.3 3.5-1.2 3.5-2 0-1.6-.5-1.7-4.7-.5-2.4.7-3.5.6-4.4-.5-.6-.8-2.3-1.4-3.8-1.4s-3.3-.6-3.9-1.2c-1-1-1.5-1-2.2.2-.9 1.3-1.1 1.3-1.9.1-.5-.8-1.8-1.6-2.8-1.8-1-.1-3.4-.5-5.3-.9-1.9-.3-3.8-.3-4.1 0zM444.64 708.748c0 .2.9.6 2 .9 1.1.3 2 .1 2-.4s-.9-.9-2-.9-2 .2-2 .4zM441.34 720.948c-1.1 1.1.3 2.4 1.8 1.8.8-.4 1.2-1 .9-1.5-.6-1.1-1.8-1.2-2.7-.3zM437.14 724.348c.3.5.8 1 1.1 1 .2 0 .4-.5.4-1 0-.6-.5-1-1.1-1-.5 0-.7.4-.4 1z"/></g></svg>