<?xml version="1.0" standalone="no"?>
<!DOCTYPE svg PUBLIC "-//W3C//DTD SVG 20010904//EN"
 "http://www.w3.org/TR/2001/REC-SVG-20010904/DTD/svg10.dtd">
<svg version="1.0" xmlns="http://www.w3.org/2000/svg"
 width="645.281559pt" height="419.655677pt" viewBox="0 0 645.281559 419.655677"
 preserveAspectRatio="xMidYMid meet">
<metadata>
Created by potrace 1.15, written by Peter Selinger 2001-2017
</metadata>
<g transform="translate(-679.296950,1200.680355) scale(0.100000,-0.100000)"
fill="#222222" stroke="none">
<path d="M8270 11995 c0 -20 22 -63 61 -118 16 -23 36 -51 44 -62 7 -11 17
-37 20 -57 6 -30 3 -40 -14 -54 -26 -23 -28 -54 -3 -48 26 7 63 -80 55 -131
-6 -38 -6 -38 23 -30 50 14 116 5 143 -19 9 -9 25 -16 35 -16 26 0 39 -40 25
-75 -7 -17 -11 -36 -10 -42 1 -7 -2 -13 -7 -13 -16 0 -30 23 -24 38 4 11 -2 9
-18 -6 -13 -12 -28 -22 -32 -22 -5 0 -6 -6 -2 -12 3 -7 -6 -1 -20 15 -15 15
-32 24 -39 20 -8 -5 -8 -8 1 -11 16 -5 15 -32 0 -32 -33 0 -117 -50 -130 -77
-9 -19 -22 -29 -41 -31 -15 -2 -27 -9 -27 -17 0 -7 -11 -22 -25 -33 -16 -13
-23 -26 -19 -36 8 -21 2 -20 -42 6 -27 16 -39 19 -42 10 -2 -7 -10 -19 -18
-26 -8 -8 -14 -19 -14 -25 0 -6 -6 -11 -14 -11 -8 0 -16 -7 -20 -15 -3 -8 -18
-15 -33 -15 -27 0 -28 -1 -27 -53 0 -30 4 -59 8 -65 9 -16 33 -15 38 0 3 7 7
-16 11 -52 9 -95 24 -131 51 -126 13 2 29 0 37 -5 8 -5 10 -9 5 -9 -5 0 3 -12
18 -27 19 -19 26 -33 22 -50 -13 -48 -26 -73 -41 -73 -8 0 -17 -11 -21 -25 -7
-28 -19 -32 -28 -10 -3 8 -12 12 -20 9 -9 -4 -25 5 -40 23 -20 22 -28 25 -34
15 -5 -8 -18 -13 -28 -12 -53 6 -65 1 -58 -25 5 -20 2 -25 -20 -31 -25 -6 -26
-8 -11 -24 14 -15 14 -21 4 -39 -16 -25 -10 -32 40 -41 42 -8 45 -5 72 65 8
21 13 25 17 15 8 -24 22 -28 63 -17 28 7 39 15 39 28 0 11 5 19 10 19 6 0 10
8 8 18 -4 24 42 30 58 7 15 -20 36 -12 27 10 -7 21 14 19 45 -4 44 -30 67 -33
86 -12 14 16 15 23 5 39 -20 32 -4 55 35 49 34 -5 54 8 69 46 4 10 17 17 31
17 14 0 29 8 35 17 7 14 12 15 24 5 12 -10 16 -9 21 4 12 32 6 171 -10 209
-19 45 -13 55 11 18 l18 -27 17 22 c10 12 21 18 25 14 5 -4 6 0 2 9 -3 9 5 34
19 55 13 22 24 51 24 67 0 29 14 36 24 11 8 -20 26 -9 26 16 0 10 -9 22 -20
25 -11 4 -31 18 -44 32 -13 14 -35 26 -47 27 -14 1 -24 7 -24 16 0 14 -44 54
-69 63 -8 3 -7 9 2 18 10 10 15 11 20 2 5 -8 13 -9 22 -3 8 6 24 10 35 10 30
1 65 34 59 57 -6 21 41 83 63 83 16 0 17 15 3 40 -8 15 -6 24 7 40 18 20 25
80 11 80 -5 0 -8 10 -8 23 0 13 -11 34 -24 46 -22 20 -25 21 -40 6 -9 -9 -20
-14 -26 -10 -5 3 -19 1 -30 -5 -17 -9 -19 -14 -9 -26 10 -12 9 -18 -4 -31 -14
-15 -18 -15 -41 0 -14 10 -32 17 -41 17 -8 0 -15 9 -15 19 0 11 -5 23 -10 26
-6 4 -10 29 -9 57 1 27 -2 53 -7 56 -15 11 -34 51 -34 71 0 11 -5 23 -10 26
-6 4 -8 15 -5 24 5 16 -2 18 -64 16 -64 -2 -70 0 -80 22 -11 24 -46 31 -54 11
-3 -7 -6 -3 -6 9 -1 25 -21 42 -21 18z"/>
<path d="M10030 10840 c0 -21 -5 -30 -16 -30 -11 0 -14 -6 -9 -20 5 -15 2 -20
-12 -20 -11 0 -23 4 -29 10 -11 11 -54 2 -54 -11 0 -5 -8 -9 -17 -9 -10 0 -26
-7 -36 -15 -12 -8 -31 -11 -52 -8 -31 5 -33 4 -28 -17 4 -15 2 -21 -4 -17 -6
4 -16 0 -23 -8 -16 -19 -30 -19 -30 -1 0 13 -22 28 -45 30 -31 4 -56 20 -60
39 -3 12 -17 27 -31 34 -22 10 -24 10 -13 -3 7 -9 13 -25 14 -37 1 -12 4 -28
6 -36 3 -10 -9 -18 -36 -24 -22 -5 -42 -13 -45 -17 -11 -15 -49 -30 -64 -24
-11 4 -21 -4 -33 -25 -17 -29 -77 -61 -90 -47 -4 3 -11 2 -17 -3 -18 -13 -56
-20 -62 -10 -3 5 -28 9 -55 9 -47 0 -49 -1 -39 -21 7 -11 8 -28 4 -37 -4 -9
-6 -26 -5 -37 2 -11 0 -17 -5 -13 -4 4 -13 0 -19 -9 -9 -12 -25 -16 -52 -15
-34 2 -46 -3 -85 -38 -25 -22 -52 -40 -60 -40 -7 0 -24 -9 -37 -19 -17 -13
-22 -25 -18 -41 4 -16 1 -23 -12 -27 -13 -3 -17 -11 -13 -29 2 -13 -1 -30 -7
-38 -9 -11 -7 -22 11 -52 12 -21 17 -34 10 -30 -7 4 -16 -2 -24 -19 -8 -19
-16 -24 -31 -19 -17 5 -17 4 -7 -17 11 -20 10 -25 -9 -40 -14 -12 -17 -19 -9
-21 9 -3 13 -25 13 -64 0 -51 3 -59 20 -62 11 -2 24 -7 28 -12 13 -11 47 0 47
16 0 15 37 14 80 -3 21 -9 26 -8 30 11 5 17 16 22 55 28 48 6 88 13 110 18 19
4 45 0 44 -7 -4 -27 1 -35 15 -23 8 6 12 18 9 26 -4 10 2 14 20 14 17 0 28 7
32 20 8 24 9 24 70 5 30 -9 53 -11 60 -5 7 6 29 3 57 -8 44 -15 48 -15 67 2
11 10 25 15 30 11 6 -3 11 -1 11 6 0 9 3 9 14 0 11 -9 29 -7 81 10 41 13 96
22 141 23 47 1 75 5 78 13 3 7 21 15 40 19 20 3 36 10 36 15 0 5 11 19 25 31
14 12 25 28 25 35 0 7 9 13 19 13 11 0 40 14 64 30 44 29 95 41 82 19 -4 -6 2
-13 13 -16 14 -3 19 -10 15 -21 -4 -10 -2 -13 5 -8 7 4 12 23 12 42 0 24 4 34
13 31 6 -2 21 12 33 32 16 28 26 36 46 34 28 -2 42 24 27 48 -17 27 -10 49 16
49 14 0 25 -4 25 -10 0 -5 4 -10 10 -10 5 0 27 -17 48 -37 45 -44 64 -106 36
-117 -13 -5 -14 -9 -4 -21 8 -9 8 -20 2 -31 -8 -14 -4 -21 24 -36 19 -10 41
-18 49 -18 10 0 15 -10 15 -28 0 -40 27 -91 55 -104 13 -6 28 -21 34 -34 6
-13 17 -24 25 -24 7 0 19 -7 26 -15 7 -9 20 -13 27 -10 8 3 27 -4 41 -16 24
-18 27 -19 32 -4 5 15 7 15 18 2 7 -8 24 -18 37 -21 24 -6 25 -8 21 -90 -2
-46 -7 -89 -10 -95 -4 -6 -3 -19 2 -28 5 -10 7 -23 5 -30 -2 -6 3 -28 11 -48
15 -35 15 -37 -4 -42 -15 -4 -18 -11 -14 -28 3 -13 -1 -28 -10 -38 -22 -22 -6
-60 32 -76 32 -14 51 -51 25 -51 -8 0 -12 -4 -8 -9 3 -5 -3 -12 -14 -16 -23
-7 -36 -52 -20 -71 9 -11 7 -14 -9 -14 -16 0 -19 -5 -15 -22 3 -13 9 -27 13
-33 4 -5 10 -20 13 -33 4 -18 0 -25 -18 -32 -22 -8 -23 -12 -13 -41 l11 -32
17 23 c11 15 19 19 24 11 9 -14 49 -14 64 1 8 8 15 8 25 0 8 -7 16 -9 20 -6
11 11 39 -46 34 -69 -4 -12 -3 -27 1 -33 8 -12 52 -26 50 -15 -2 19 5 20 32 5
38 -23 43 -37 25 -71 -8 -15 -15 -38 -15 -49 0 -17 -8 -23 -37 -29 -21 -4 -44
-12 -52 -18 -8 -7 -37 -12 -65 -12 -49 0 -51 -1 -48 -26 2 -23 -2 -28 -34 -33
-31 -6 -35 -10 -32 -31 4 -21 0 -25 -33 -30 -44 -8 -61 -1 -52 20 3 11 -2 15
-18 15 -27 0 -89 40 -89 58 0 6 -5 12 -12 12 -6 0 -4 8 6 19 14 15 15 24 7 39
-6 11 -8 22 -4 25 12 13 -28 19 -42 7 -11 -9 -19 -9 -28 -2 -15 12 -87 -4 -87
-20 0 -16 -19 -7 -49 23 l-31 31 0 -42 c0 -27 -5 -43 -16 -47 -13 -5 -13 -8 4
-27 11 -11 25 -32 32 -45 12 -22 10 -27 -16 -48 -16 -13 -37 -22 -46 -19 -14
3 -16 1 -8 -14 7 -14 5 -21 -12 -32 -19 -13 -20 -17 -9 -51 12 -35 42 -63 54
-50 3 3 13 -2 22 -11 14 -14 14 -16 -9 -22 -30 -7 -41 -35 -26 -64 6 -12 9
-28 6 -35 -5 -15 10 -29 31 -30 6 0 24 -11 40 -25 15 -13 33 -24 39 -22 23 5
95 -89 107 -141 4 -14 16 -29 28 -32 23 -8 47 -57 30 -63 -17 -6 -13 -43 6
-64 9 -11 18 -37 18 -58 1 -31 -3 -40 -19 -44 -19 -5 -17 -9 18 -41 42 -38 70
-46 59 -17 -6 15 -5 15 15 -2 21 -18 22 -18 91 9 52 21 68 31 64 43 -5 12 -1
14 20 8 23 -5 27 -3 27 14 0 12 4 19 9 15 17 -10 16 30 -1 65 -21 40 -23 64
-5 57 6 -2 11 -10 9 -17 -1 -7 13 -3 33 10 36 22 36 22 58 3 34 -31 57 -36 57
-13 0 14 7 20 23 20 12 1 33 7 47 15 14 8 36 14 49 15 16 0 21 4 17 15 -8 21
11 19 42 -5 14 -11 28 -16 31 -11 3 5 19 9 35 9 15 0 32 5 36 11 4 7 28 13 53
14 38 2 44 4 37 18 -5 9 -16 22 -25 29 -14 12 -13 16 11 42 17 17 38 28 54 28
39 0 72 49 68 103 -2 23 -7 45 -12 48 -4 4 -3 23 4 44 13 39 13 40 -33 130
-11 22 -25 43 -31 47 -8 5 -7 11 1 19 8 8 9 16 1 29 -13 21 -2 74 13 64 8 -4
7 -9 -2 -15 -12 -7 -12 -9 0 -9 10 0 11 -3 2 -13 -16 -20 -3 -27 26 -16 14 5
28 8 31 6 4 -2 15 4 24 14 18 20 13 26 -34 47 -22 9 -28 9 -28 -1 0 -8 -4 -7
-10 3 -15 23 -12 40 6 40 10 0 14 5 10 15 -3 9 1 18 11 22 23 9 77 131 64 147
-7 9 -7 16 1 24 9 9 9 12 0 12 -17 0 -15 25 3 40 9 7 15 20 13 29 -1 9 1 22 5
28 4 7 3 22 -3 33 -10 19 -7 23 29 38 23 9 41 23 41 30 0 6 7 12 15 12 8 0 15
5 15 12 0 6 3 8 7 5 3 -4 21 5 40 19 18 14 41 24 51 23 45 -4 52 0 42 26 -6
16 -6 25 0 25 6 0 10 -4 10 -9 0 -11 25 -21 65 -28 17 -2 39 -10 50 -17 11 -8
29 -10 40 -6 13 5 29 0 46 -13 15 -11 32 -17 37 -13 6 3 12 -2 14 -11 2 -12 6
-14 11 -6 4 6 1 18 -7 26 -11 11 -13 29 -9 72 l6 58 -26 -7 c-24 -6 -31 0 -64
45 -34 47 -38 50 -50 33 -10 -14 -16 -15 -25 -6 -10 10 -10 17 1 34 11 18 11
22 -3 30 -9 5 -16 20 -16 34 0 20 -8 29 -39 41 -23 9 -41 24 -45 36 -3 13 -11
18 -24 15 -12 -3 -23 2 -31 15 -11 17 -11 19 3 14 20 -8 20 -7 1 41 -9 22 -15
43 -14 48 5 17 -13 74 -21 69 -12 -7 -22 11 -42 75 -21 67 -22 76 -4 61 24
-20 32 59 11 104 -20 40 -35 54 -35 31 0 -19 3 -18 -37 -7 -27 8 -35 6 -42 -7
-9 -15 -11 -15 -29 1 -17 16 -20 16 -32 2 -10 -12 -23 -15 -54 -9 -23 4 -54 6
-69 6 -22 -1 -29 5 -33 26 -5 20 -19 33 -56 51 -58 27 -118 84 -118 111 0 32
-11 50 -42 66 -16 8 -26 19 -23 24 10 16 -24 70 -44 70 -25 0 -54 43 -38 59
14 14 37 15 37 1 0 -5 3 -10 8 -10 4 0 7 14 7 32 0 27 -6 35 -41 53 -36 19
-44 20 -60 8 -12 -9 -31 -12 -49 -8 -19 3 -38 0 -50 -9 -14 -10 -25 -11 -37
-5 -12 6 -18 6 -18 0 0 -16 -36 -22 -64 -11 -18 7 -34 7 -46 0 -13 -7 -19 -6
-24 5 -3 8 -20 18 -38 23 -28 7 -35 15 -48 55 -11 35 -22 49 -42 56 -18 6 -30
6 -34 0 -6 -11 -82 28 -101 51 -6 8 -15 12 -18 8 -4 -4 -16 -3 -27 3 -13 7
-29 7 -49 0 -25 -8 -30 -7 -39 10 -6 11 -15 17 -19 14 -10 -6 -28 14 -50 57
-9 17 -25 37 -37 45 -18 12 -24 11 -47 -7 -14 -11 -28 -16 -31 -11 -9 14 -48
10 -67 -6 -23 -19 -63 -7 -99 28 -36 36 -40 36 -40 -1z m477 -2345 c0 -8 -4
-15 -8 -15 -4 0 -9 7 -13 15 -3 9 0 15 8 15 7 0 13 -7 13 -15z"/>
<path d="M6990 10535 c0 -3 7 -22 15 -42 20 -47 19 -60 -5 -66 -24 -6 -36 9
-21 27 9 10 8 15 -4 20 -8 3 -15 0 -15 -6 0 -7 -5 -7 -14 1 -19 16 -58 -3 -50
-24 10 -25 -23 -17 -45 11 -12 15 -21 21 -21 13 0 -20 8 -29 75 -89 33 -30 60
-57 59 -60 -1 -3 16 -18 38 -34 23 -16 37 -34 34 -42 -7 -19 12 -28 60 -29
l42 0 -14 27 c-9 18 -10 29 -3 33 7 5 6 11 -2 21 -6 7 -9 20 -6 28 3 8 -1 17
-9 20 -8 3 -19 17 -24 32 -11 29 -4 68 11 59 5 -3 6 1 3 9 -3 9 -11 16 -16 16
-6 0 -8 9 -5 20 6 23 -14 43 -35 35 -9 -4 -18 1 -21 9 -6 15 -27 23 -27 11z"/>
<path d="M6801 10441 c-16 -10 -8 -26 19 -41 18 -9 18 -8 9 20 -6 16 -12 30
-12 30 -1 0 -8 -4 -16 -9z"/>
<path d="M7973 10397 c-46 -9 -55 -21 -23 -30 25 -6 27 -37 3 -37 -10 0 1 -11
26 -25 23 -14 55 -25 70 -25 19 0 32 -9 44 -30 12 -20 31 -33 60 -41 23 -7 53
-23 67 -35 29 -27 225 -134 245 -134 7 0 18 -7 25 -15 8 -9 21 -13 32 -9 13 4
25 -2 39 -20 11 -14 27 -26 34 -26 8 0 19 -9 25 -21 12 -21 11 -21 -18 1 -38
28 -68 24 -65 -10 4 -58 17 -107 35 -129 12 -16 17 -34 14 -50 -6 -30 12 -65
34 -68 57 -8 97 -25 121 -54 20 -24 30 -30 47 -25 15 5 22 3 22 -6 0 -10 3 -9
10 2 13 20 12 30 -1 30 -5 0 -7 -5 -3 -12 4 -7 3 -8 -4 -4 -6 4 -9 13 -6 20 3
9 -3 17 -15 21 -19 6 -38 46 -33 71 1 5 -11 23 -28 39 -32 31 -39 48 -15 39 8
-4 15 -1 15 4 0 10 37 28 51 25 3 -1 3 12 1 28 -4 26 -8 30 -27 25 -14 -4 -28
0 -36 10 -7 9 -25 21 -39 27 -20 8 -22 11 -7 14 9 3 17 9 17 14 0 18 -22 54
-43 70 -21 18 -16 39 10 39 9 0 27 -10 40 -22 13 -12 25 -19 28 -17 8 8 -7
109 -16 109 -5 0 -9 -4 -9 -10 0 -5 -15 -10 -34 -10 -31 0 -34 -3 -40 -35 -7
-38 -17 -43 -35 -21 -6 8 -25 16 -41 18 -23 3 -30 1 -30 -12 0 -9 5 -21 10
-28 6 -6 -8 6 -31 28 -22 22 -45 38 -51 37 -6 -1 -16 13 -22 31 -6 18 -15 30
-19 26 -4 -4 -7 -2 -7 5 0 7 -5 9 -10 6 -6 -3 -14 5 -19 18 -5 13 -23 30 -40
37 -17 7 -31 19 -31 26 0 17 -17 18 -23 2 -2 -8 -15 -1 -34 20 -27 28 -38 32
-80 32 -27 0 -58 6 -68 14 -11 8 -25 11 -33 9 -8 -3 -15 3 -19 16 -3 11 -9 21
-13 21 -5 0 -10 8 -12 18 -3 15 -9 17 -45 9z m787 -727 c0 -5 -2 -10 -4 -10
-3 0 -8 5 -11 10 -3 6 -1 10 4 10 6 0 11 -4 11 -10z"/>
<path d="M6820 10376 c0 -2 7 -6 15 -10 8 -3 15 -1 15 4 0 6 -7 10 -15 10 -8
0 -15 -2 -15 -4z"/>
<path d="M7760 10364 c0 -7 -11 -15 -24 -18 -14 -3 -30 -20 -40 -41 -13 -26
-23 -35 -41 -35 -14 0 -29 -8 -35 -20 -6 -11 -15 -18 -20 -15 -15 9 -60 -25
-60 -45 0 -22 -29 -33 -56 -24 -19 7 -19 7 0 -14 11 -12 21 -20 24 -17 2 2 16
-2 31 -9 15 -8 35 -10 46 -6 21 7 65 -7 65 -21 0 -5 10 -4 23 1 12 5 39 11 60
15 27 4 37 11 37 25 0 11 12 24 30 32 17 7 30 18 30 24 0 6 8 18 17 25 11 10
14 10 9 2 -4 -7 -3 -13 3 -13 12 0 21 44 17 85 -3 37 -22 75 -39 76 -50 5 -77
2 -77 -7z"/>
<path d="M7020 10213 c0 -5 5 -15 10 -23 8 -12 10 -11 10 8 0 12 -4 22 -10 22
-5 0 -10 -3 -10 -7z"/>
<path d="M7281 10211 c-7 -5 -9 -11 -5 -14 5 -3 15 1 22 9 14 16 5 18 -17 5z"/>
<path d="M7200 10200 c0 -5 11 -10 25 -10 14 0 25 5 25 10 0 6 -11 10 -25 10
-14 0 -25 -4 -25 -10z"/>
<path d="M7320 10196 c0 -10 9 -16 25 -16 13 0 28 -7 33 -16 8 -14 12 -14 41
4 32 19 32 21 13 31 -15 8 -23 8 -27 0 -7 -10 -31 -7 -69 7 -11 4 -16 1 -16
-10z"/>
<path d="M7165 10170 c-3 -5 -1 -10 4 -10 6 0 11 5 11 10 0 6 -2 10 -4 10 -3
0 -8 -4 -11 -10z"/>
<path d="M7130 10160 c-13 -8 -12 -10 3 -10 9 0 17 5 17 10 0 12 -1 12 -20 0z"/>
<path d="M7082 10132 c-18 -3 -21 -7 -12 -17 11 -13 50 -9 50 6 0 12 -12 15
-38 11z"/>
<path d="M10190 10095 c0 -8 2 -15 4 -15 2 0 6 7 10 15 3 8 1 15 -4 15 -6 0
-10 -7 -10 -15z"/>
<path d="M12653 9312 c-28 -15 -44 -54 -20 -49 5 1 12 -4 14 -11 3 -7 -1 -10
-10 -6 -8 3 -23 -5 -34 -19 -15 -20 -26 -24 -49 -20 -16 3 -35 11 -43 17 -12
9 -13 8 -6 -3 6 -11 2 -12 -21 -7 -46 12 -48 12 -52 -7 -2 -10 4 -27 13 -37 9
-10 13 -20 8 -23 -14 -8 -130 -2 -144 9 -27 19 -69 37 -75 32 -10 -10 15 -46
36 -53 14 -4 20 -15 20 -34 0 -16 7 -34 15 -41 8 -7 11 -17 7 -24 -4 -6 -7
-20 -7 -31 0 -12 -8 -21 -20 -23 -11 -3 -24 -10 -28 -18 -4 -8 -16 -14 -25
-14 -12 0 -10 -4 8 -17 42 -29 75 -63 62 -63 -10 0 -10 -5 -2 -21 13 -23 14
-22 -19 -39 -15 -8 -21 -8 -17 -1 5 7 -4 11 -24 11 -21 0 -29 -4 -24 -12 5 -8
2 -9 -9 -5 -13 5 -17 1 -17 -20 0 -24 -2 -25 -39 -20 -34 4 -40 2 -50 -19 -6
-14 -19 -24 -31 -24 -15 0 -20 -7 -20 -25 0 -14 5 -25 11 -25 5 0 8 -3 6 -8
-3 -4 5 -19 16 -33 17 -20 35 -29 74 -34 49 -6 52 -5 55 17 4 28 46 38 60 14
8 -14 12 -14 38 -1 40 21 44 20 63 -21 12 -25 15 -40 8 -48 -8 -9 -6 -18 3
-31 13 -18 14 -18 26 4 9 17 17 21 36 17 22 -6 24 -4 24 34 0 22 5 40 10 40 6
0 10 9 10 21 0 15 5 19 15 15 10 -3 15 1 15 13 0 11 6 21 13 24 9 3 7 10 -7
25 -18 21 -18 21 3 17 29 -5 34 9 10 31 -20 18 -19 18 13 29 28 9 33 15 31 39
-2 23 1 27 17 23 13 -3 27 3 39 19 16 21 23 23 45 14 23 -8 26 -7 26 10 0 17
5 19 25 14 30 -7 55 10 55 38 0 10 12 30 26 43 22 21 25 27 14 40 -16 20 -3
20 17 0 21 -22 36 -8 18 18 -21 31 -19 37 15 37 20 0 30 5 30 15 0 8 -6 12
-13 9 -7 -2 -33 11 -57 30 -28 22 -48 32 -55 26 -14 -11 -37 3 -33 20 4 15
-47 31 -70 22 -14 -5 -15 -3 -5 9 7 8 10 31 9 51 -3 28 -1 35 10 31 8 -3 14 1
14 11 0 20 -16 19 -57 -2z"/>
<path d="M10423 9253 c-16 -6 -5 -33 13 -33 8 0 14 -6 14 -14 0 -7 9 -16 21
-19 16 -4 20 -1 17 15 -2 12 -12 26 -23 32 -11 6 -22 14 -25 17 -3 3 -10 4
-17 2z"/>
<path d="M10152 9230 c-7 -11 -18 -20 -26 -20 -7 0 -19 -7 -26 -15 -7 -9 -20
-13 -28 -10 -10 3 -12 0 -8 -10 3 -8 1 -15 -4 -15 -24 0 9 -69 63 -132 32 -38
42 -44 67 -40 17 2 27 9 23 15 -4 6 -1 7 6 3 9 -6 9 -12 -3 -25 -33 -36 -10
-43 29 -9 16 13 25 32 25 50 0 34 3 34 39 7 17 -13 36 -19 47 -15 16 5 19 14
16 51 -2 25 -8 45 -13 45 -15 0 -10 37 5 43 30 12 59 -40 65 -115 1 -5 8 -8
17 -8 8 0 12 -5 8 -11 -4 -8 0 -8 15 0 11 6 24 23 27 36 3 14 12 25 20 25 8 0
14 5 14 10 0 6 -4 10 -9 10 -6 0 -13 -4 -16 -10 -10 -17 -35 -11 -35 8 0 9
-14 25 -32 35 -23 13 -28 21 -19 26 22 14 -5 22 -34 11 -20 -8 -32 -6 -50 6
-15 10 -36 14 -51 11 -29 -5 -84 21 -84 39 0 9 -21 24 -33 24 -1 0 -8 -9 -15
-20z"/>
<path d="M13000 9159 c-13 -24 -8 -34 15 -26 16 7 21 47 5 47 -5 0 -14 -9 -20
-21z"/>
<path d="M12950 9140 c0 -5 5 -10 11 -10 5 0 7 5 4 10 -3 6 -8 10 -11 10 -2 0
-4 -4 -4 -10z"/>
<path d="M13013 9113 c-18 -6 -16 -32 2 -39 8 -4 15 -12 15 -20 0 -8 5 -14 10
-14 12 0 13 13 1 26 -5 5 -11 18 -13 30 -1 11 -9 19 -15 17z"/>
<path d="M13215 9040 c-4 -6 -11 -8 -16 -5 -5 4 -9 -4 -9 -17 0 -17 3 -19 9
-9 5 8 14 10 21 6 13 -8 32 14 24 27 -7 11 -22 10 -29 -2z"/>
<path d="M13075 8990 c-3 -6 -11 -8 -16 -5 -5 4 -9 3 -9 0 0 -9 43 -44 53 -45
15 0 35 26 29 37 -11 16 -50 25 -57 13z"/>
<path d="M10148 8956 c-23 -17 -25 -58 -3 -50 8 4 15 12 15 20 0 8 7 14 16 14
9 0 14 5 12 12 -6 17 -21 19 -40 4z"/>
<path d="M13143 8933 c-18 -7 -16 -23 2 -23 8 0 15 7 15 15 0 8 -1 15 -2 14
-2 0 -9 -3 -15 -6z"/>
<path d="M10426 8921 c-4 -7 -5 -15 -2 -18 9 -9 19 4 14 18 -4 11 -6 11 -12 0z"/>
<path d="M10836 8745 c-4 -12 -10 -13 -25 -6 -15 9 -18 7 -17 -7 2 -27 17 -32
39 -11 11 10 24 16 29 13 4 -3 8 2 8 10 0 21 -26 21 -34 1z"/>
<path d="M11684 8651 c4 -5 2 -11 -4 -13 -6 -2 -8 -26 -4 -65 6 -53 10 -62 29
-65 18 -4 21 -1 17 14 -3 15 2 18 27 18 42 0 39 13 -11 60 -24 22 -37 40 -30
40 7 0 10 5 7 10 -3 6 -13 10 -21 10 -8 0 -13 -4 -10 -9z m26 -82 c0 -6 -4 -7
-10 -4 -5 3 -10 11 -10 16 0 6 5 7 10 4 6 -3 10 -11 10 -16z"/>
<path d="M11958 8646 c-27 -12 -68 -52 -68 -68 0 -4 -9 -8 -19 -8 -21 0 -81
-31 -81 -42 0 -8 46 -45 62 -50 8 -3 8 -13 0 -36 -10 -31 -10 -31 15 -21 15 5
32 8 39 5 6 -2 22 7 34 21 16 19 24 22 30 13 6 -9 9 -9 15 0 4 6 3 16 -3 22
-6 6 -8 17 -5 24 3 8 0 21 -7 29 -6 8 -9 19 -5 25 4 6 -1 23 -10 37 -13 19
-14 25 -4 21 8 -3 22 5 32 18 20 26 15 28 -25 10z"/>
<path d="M12010 8585 c0 -8 5 -15 10 -15 6 0 10 7 10 15 0 8 -4 15 -10 15 -5
0 -10 -7 -10 -15z"/>
<path d="M11761 8473 c-1 -6 -9 -13 -18 -15 -11 -2 -14 -6 -8 -10 16 -10 38 7
32 23 -3 9 -6 9 -6 2z"/>
</g>
</svg>
