<svg version="1" xmlns="http://www.w3.org/2000/svg" width="542.753" height="778.887" viewBox="0 0 407.065 584.165"><g fill="#222"><path d="M72.063 2.7c.5 2.1.2 3-1.4 3.8-1.1.6-2 1.7-2 2.5 0 1.4.5 1.7 4 1.9.8.1 1.4.4 1.2.8-2.6 7-4.4 9.8-6 9.8-2.6 0-5.3 3.2-4.3 4.9 1 1.6 6.8 2.4 7.6 1.1 1-1.6 2.3-1.1 3 1 .3 1.1 1.1 2 1.7 2 .5 0 1.2-.9 1.5-2 .6-2.3 2.1-2.6 2.9-.7.3.8 1.7 1.1 3.9.9 2.7-.3 3.5-.1 3.5 1.2 0 .9.8 1.6 1.9 1.6 1.1 0 2.1.4 2.3 1 .2.5 1.4 1.1 2.8 1.2 1.8.2 2.4-.1 2.2-1.3-.2-1.3.4-1.5 2.4-1.1 3.8.7 2.7-2-1.2-2.9-1.6-.4-3.7-1-4.6-1.4-1.4-.6-1.8-.2-1.9 1.6V31l-1-2.4c-.6-1.4-1.5-2.1-2.4-1.8-1 .5-1.4-.1-1.3-2.1.1-1.5-.2-3.6-.6-4.7-.6-1.6-.6-1.7.3-.5.8 1.2 1.3 1.2 2.3.2.8-.8.8-1.2.1-1.2-1.7 0-2.3-3.9-.6-4.8 2.1-1.2.7-6.2-1.8-6.2-1.1 0-3.1-.7-4.4-1.6-1.3-.9-2.9-1.3-3.5-.9-.7.4-2.5-.6-4.2-2.1l-3.1-2.9.7 2.7zM57.163 21.5c-.3.5-.1 1 .4 1 .6 0 1.1-.5 1.1-1 0-.6-.2-1-.4-1-.3 0-.8.4-1.1 1zM45.963 30c-1.6 1.1-2.8 1.3-4.7.5-2.4-.9-2.5-.8-2 1.9.4 1.6.1 3.2-.5 3.5-2.1 1.3-1.1 2.6 1.9 2.6 2.4 0 3.4-.8 5.6-4.5 2.9-5.1 2.8-6.2-.3-4zM36.563 40.7c.7 1 .9 1.8.3 1.8-.5 0-1.2.9-1.5 2-.3 1.1-1.2 2-2 2-.9 0-1.9.9-2.2 2.1-.4 1.1-1.3 1.8-2 1.5-.7-.2-1.6.2-1.9.9-.8 2.3 2.7 3.5 7.5 2.7 4.4-.8 4.4-.8 4.2-4.7-.2-5.5-.7-7.3-2.3-8.8-1.2-1-1.2-.9-.1.5zM25.163 55.4c-.3.5-.1 1.2.5 1.6.5.3 1-.1 1-.9 0-1.8-.6-2.1-1.5-.7zM22.263 56.4c-.4.7-.5 1.5-.2 1.8.9.9 1.9-.4 1.4-1.8-.4-1.1-.6-1.1-1.2 0zM11.763 60.1c1 2.8.3 4.7-1 2.6-.5-.9-1.3-.6-2.8 1-1.2 1.3-2.9 2.9-3.7 3.6-1.4 1.2-1.4 1.7.4 5.3 1.8 3.4 1.9 4 .5 4.5-.8.3-1.5 1.3-1.5 2.1 0 1-.6 1.2-2.1.8-2.4-.8-2.2-.2 1.8 5.1 2.2 3 3.1 7.4 1.5 7.4-1.4 0-.8 4.3.8 6.2 1.8 2.3 5 2.3 5 .2 0-.9-.9-3.2-2.1-5.1-1.2-1.8-1.7-3.3-1.3-3.2 2 .3 2.1-.3.9-3.8-.8-2.2-1-4.7-.5-6.4.5-1.5.6-3 .2-3.3-.3-.3.5-.6 1.7-.6 1.7 0 2-.4 1.6-2.3-.4-1.6 0-2.4 1.7-3.2 1.3-.6 3.2-2.7 4.3-4.7 1.1-2.1 2.5-3.8 3.1-3.8.7 0 1.4-.6 1.7-1.4.7-1.7-3.9-3.6-8.4-3.6-2.7 0-2.8.2-1.8 2.6zM12.663 99.5c-1.1.7-1.1 1.1-.1 2.3.8 1 .8 1.7.2 2.2-2 1.2-.8 9.7 1.6 12.1 1.3 1.3 2.3 1.9 2.3 1.4s1.4-.7 3-.4c2.2.5 3 .3 3-.7-.1-1.9-2.8-5.4-3.7-4.6-.3.4-1.5 0-2.5-1-2-1.8-2.5-8.2-.7-10 1.4-1.4-1.2-2.5-3.1-1.3zM24.663 121.1c0 .8-.4 1.3-.9.9-.5-.3-1.3 0-1.7.6-.5.8-.1 1 1.4.7 1.4-.4 2.2 0 2.5 1.3.5 2-.7 2.6-1.8.9-1.2-2-2.2-1-1.8 1.7.9 5.3 1.1 5.6 3.5 3.9 3.1-2.2 3.8-2 3.8.9 0 3.3 2.6 4.3 4.5 1.9 1.8-2.4 1.5-5.9-.5-6-3.5-.2-4-.5-4-2.2 0-1-1.1-2.8-2.5-4-2-1.7-2.5-1.9-2.5-.6z"/><path d="M17.863 134c-1.9 2.2-2 2.6-.5 4 .8.9 1.3 1.9 1 2.2-.4.3-.2 1.4.4 2.4.8 1.5.4 2.7-1.6 5.3-1.4 1.8-2.5 4-2.5 5 0 2.2 4.6 4.4 6.2 2.8 2-2 4.6.4 4.5 4.3-.1 4.5 1.6 6.4 3.8 4.1.9-.9 1.4-2 1.1-2.5-1-1.6.6-4.1 2.6-4.1 1.6 0 1.8.3 1 1.3-1.2 1.4-.6 7.9.9 10.9.9 1.7-.7 7.8-2.3 8.9-.6.3-.3.9.6 1.2 1 .4 1.6 1.9 1.6 4 0 1.8.6 4.2 1.4 5.3 1 1.3 1.1 2.3.4 3.1-.7.9-.3 1.3 1.4 1.7 5.2 1.1 5.3.9 5.1-8.3-.2-4.7-.6-10.3-.9-12.5-.4-2.1-.3-3.7.2-3.5l5.5 2.2c3.3 1.4 4.8 2.6 5.7 4.9.9 2.5 1.4 2.9 2.5 2 .8-.7 1.7-.9 2-.5.4.3.7-.5.7-1.8 0-2.8.9-4.4 3-5.2 1.1-.4 1-.7-.7-1.2s-2.3-1.5-2.3-3.6c0-1.5.5-3.1 1-3.4.6-.3 1-1.7 1-3s.5-2.7 1-3c1.2-.7 1.4-4.5.3-4.6-3.4-.3-5.9-1.1-6.2-2.1-.2-.6-2.1-2.9-4.2-5.1l-3.9-4-2 2.3c-1.9 2.2-2.1 2.2-4.5.6-1.4-.9-2.3-2.1-2-2.7 1-1.5-2.4-2.2-5.2-1-1.9.9-2.9.9-3.9 0-1.1-.9-1.4-.8-1.4.5 0 1-.4 1.4-1 1.1-1.6-1-1.2-5.5.4-4.9 1.1.4 1.3 0 .9-1.6s-1.1-2-2.8-1.6c-1.2.3-3.1-.1-4.2-.9-1.8-1.3-2.2-1.2-4.1 1zM16.663 164.9c0 .2.7.6 1.5 1 .8.3 1.5.1 1.5-.4 0-.6-.7-1-1.5-1s-1.5.2-1.5.4zM47.263 202.5c.4 1.4 1.1 2.6 1.5 2.8.5.2.9 1 .9 1.7s.6 1.5 1.4 1.8c3.3 1.3 2.5 11.6-.9 11.7-.5.1-2.1 1-3.4 2-1.7 1.5-2.2 2.6-1.7 4.5.5 2 .3 2.5-1.2 2.5-2.6 0-4.2 2-4.2 5.2 0 1.5-.4 2.8-1 2.8-.5 0-1 .7-1 1.5s-.9 1.5-2 1.5-2 .4-2 .8c0 .5-1.4.7-3 .4-2.7-.4-3.1-.1-3.6 2.7-.5 2.2-1.4 3.3-3 3.7-1.3.3-2.4 1-2.4 1.5s-.6.9-1.4.9c-.7 0-1.9.7-2.6 1.5-.7.9-2.1 1.3-3.1 1-2.6-.9-2.5 2 .2 3.8l2 1.5-2.1 1.5c-1.2.9-1.9 2-1.5 2.6.3.6.1 1.1-.4 1.1-.6 0-1.1.9-1.1 2 0 1.2-.5 1.7-1.3 1.4-1.9-.7-1.5 6.1.5 8.4.9.9 2.1 2.8 2.8 4.2.7 1.4 1.9 2.9 2.7 3.3 1.1.7 1.2 1.2.2 2.3-.6.8-.9 1.7-.5 2.1.3.3.6.1.6-.5 0-.7 1.1-1.2 2.5-1.2s2.5-.5 2.5-1c0-.6.5-1 1-1 .6 0 1 .8 1 1.9 0 1 .8 2.5 1.7 3.2 1.2 1 1.5 1 .9.1-.4-.7.3-2.4 1.8-4.2 1.4-1.7 2.3-3.7 1.9-4.5-.3-1.1-.1-1.3 1-.9.9.3 2.5 0 3.7-.6 3.3-1.8 6.3 1.3 5.5 5.7-.6 3.6 0 4 2.9 1.8 1.8-1.4 1.9-1.6.2-3.4-1.1-1.2-1.4-2.1-.7-2.6.6-.3.8-1.7.5-3-.5-2.1-.1-2.4 4.7-3.4 4.1-.9 5.5-.9 6.8.1.9.8 2.3 1.3 3.1 1.2.8-.1 2.5-.2 3.8-.3 1.4-.1 2.6-1 3.2-2.6.5-1.4 1.4-2.5 1.9-2.5.6 0 .8-.7.5-1.5-.5-1.1-.2-1.3 1.2-.8 1.5.6 1.5.1-.6-3.2l-2.4-3.8 3.1.6c2.8.6 3.1.3 3.7-2.5.9-4.6.8-4.8-2.1-6-2.7-1.1-2.7-1.2-.5-1.5 1.3-.3 2.2-1.2 2.2-2.2 0-1 .7-2.4 1.5-3.1.9-.8 1.2-1.8.6-2.7-.4-.9-.4-3.5.1-5.9.7-3 .6-4.9-.2-6.5-1.2-2.1-1.1-2 2.1.4 1.9 1.3 4.5 2.8 5.9 3.2 1.4.4 3.1 1.2 3.8 1.8.9.7 2.5.6 5.3-.3 3.7-1.3 4.4-1.2 9.5 1.3 3 1.5 5.4 3.3 5.4 4 0 1.8 5.1 4.2 5.9 2.8 1-1.6 4-.7 5.7 1.7 1.8 2.6 6.4 5.1 8.2 4.5.6-.3 1.2-1.2 1.2-2.2 0-.9.5-2.2 1.2-2.9.9-.9.8-1.6-.5-3-2.1-2.3-2.1-3.2-.2-3.2.8 0 1.9-.9 2.5-2 .6-1.2 2.1-2 3.5-2 2.4 0 2.5-.3 2.5-6 0-4.7.3-6 1.5-6s1.4-.9 1-4.2c-.7-4.8.4-5.9 5.1-5.1l3.3.6-.9-3.3c-.9-3.2-3.8-6.2-5.2-5.4-.4.3-2.8.7-5.4.9-2.6.3-5.5 1.1-6.3 1.9-2.6 2.2-6.2 2.6-9.9 1-2.4-.9-3.9-1.1-4.7-.4-.6.5-1.5.7-1.8.3-.4-.3-.9.2-1.3 1.1-.7 1.8-3.9 2.2-4.9.6-.8-1.3-4.8-1.3-6.2.1-.8.8-1.7.7-3.4-.4-1.6-1.2-3.5-1.4-6.6-1-3.5.5-4.3.3-4.3-1 0-2.4-4.1-3.3-5.6-1.2-.7 1-1.9 1.5-2.7 1.2-.8-.3-2.2.4-3.2 1.6-1.5 1.7-1.9 1.8-2.4.6-.3-.8-1.4-2.5-2.3-3.8-1.4-2-2-2.2-3.2-1.2-1.3 1.1-2.4 1-5.8-.1-4.3-1.5-5.9-1.6-9-.3-1.2.5-2.1-.2-3.3-2.2-1.5-2.6-1.5-2.6-.9-.3zm-20.4 79.2c-.7.7-1.2.8-1.2.2 0-1.4 1.2-2.6 1.9-1.9.2.3-.1 1.1-.7 1.7zM122.563 255.9c-.7 2-1.7 3.6-2.2 3.6-.5 0-.7 1.3-.4 2.9.4 1.8.2 3.1-.6 3.4-.7.3-1.1 2.1-.9 4.8.1 2.4.4 8.2.5 12.9.2 8.1.1 8.5-2 8.8-1.5.2-2.3 1-2.3 2.2 0 1-.4 2.1-1 2.5-1.2.7-.1 3.5 1.4 3.5 1.2 0 1.5 6.4.4 7.6-1.2 1.1-1 6.2.3 6.9.7.5.5 1.3-.5 2.4-.9 1-1.3 2.1-.9 2.4.6.7-.8 2.4-5.4 6.9-1.3 1.2-2.3 2.9-2.3 3.9 0 .9-.6 2.2-1.4 2.8-1.9 1.6-2.9 7.7-1.6 10 .8 1.6.6 2.2-.9 3-1.2.7-1.7 1.8-1.4 3 .3 1 0 2.2-.6 2.5-.6.4-1.1 1.8-1.1 3.2 0 2-.5 2.4-3 2.4-2.1 0-3 .5-3 1.6 0 .8-.3 1.3-.8 1-1.5-.9-4.4 2.4-5.2 6-.6 2.7-.5 4.5.6 6.5.8 1.6 1.4 4.2 1.4 6 0 2.5-.3 3-1.6 2.5-1.5-.6-1.6 0-1.1 3.9.6 3.8.4 4.6-1.4 5.6-1.4.7-2 1.8-1.7 3.2.4 2.5-2.2 5.5-4.2 4.9-.8-.3-1 0-.5.7.4.7.8 4.2 1 7.7.2 4.2.8 7.1 1.9 8.3 1.7 1.9 2.2 5.6.7 4.6-.6-.3-1.3 0-1.8.8-.4.7-1.9 2-3.3 2.9-2.1 1.3-2.6 2.4-2.8 6.2-.2 4.8 1.3 8.2 5.1 12 1.9 1.9 1.9 2 .1 3.3-1 .7-1.2 1.3-.6 1.3 2.2 0 1.3 1.8-1.9 3.8-2.7 1.7-2.9 2-1.2 2.7 1 .4 2.8.7 4.1.6 1.2-.1 2.2.2 2.2.8 0 .6-.6 1.1-1.2 1.1-1.4.1 2 3 3.4 3 .4 0 .8-.9.8-2 0-1.3.7-2 2-2 1.1 0 2-.7 2-1.5 0-1.3 5.5-3.5 8.8-3.5.6 0 1.2-.5 1.2-1.1 0-.6.9-.9 2-.6 1.1.3 2 .1 2-.4 0-1.6 3.7-.9 5.5 1.1 1.4 1.5 2.2 1.7 3.7.9 1.5-.8 2.3-.7 3.4.8.7 1 1.4 2 1.4 2.3 0 .3 1.8.4 4.1.2 2.2-.3 4.6.1 5.2.7 1.6 1.6 4.7 1.4 4.7-.4 0-.8.7-1.5 1.6-1.5.9 0 2.4-1 3.4-2.3 1.6-2.1 2.7-2.3 8.9-2.3 6.9.1 7.1.1 7.7-2.6.4-1.9 1.2-2.8 2.5-2.8s1.9-.7 1.9-2.1c0-1.8.3-1.9 1.4-1 1.9 1.6 6-.4 5.2-2.4-.3-.9 0-1.2.9-.9 2.4.9 3.6-.5 2.5-2.7-.6-1.1-1.6-1.7-2.1-1.3-.6.3-2.1.3-3.5 0-1.7-.5-2.4-1.3-2.4-3.2 0-2.1.3-2.3 1.9-1.5 1.6.9 1.8.8 1.4-.9-.4-1.5 0-2 1.5-2 1.2 0 2.4.5 2.7 1 .4.6 1.2.4 2.2-.6 1.3-1.2 1.8-1.3 2.4-.3.4.7.5 1.7.3 2.1-.3.4 0 .8.5.8 1.6 0 1.3-1.1-.9-4.5-2.4-3.6-2.5-4.5-.5-4.5 1.7 0 2-3.5.4-4.5-.6-.4.4-1.4 2.3-2.4 2.9-1.5 3.6-1.6 6.3-.3 1.6.8 3.5 2.1 4.3 2.9 1.2 1.2 1.6 1.1 2.9-.7 1.8-2.5 3.9-2.6 4.6-.1.6 2.6-1.5 9.1-3 9.1-.7 0-1.3.6-1.3 1.2-.1.7-.9.3-2-1-1-1.2-2.1-1.9-2.4-1.4-.3.5-2.3 1.4-4.5 2.2l-4.1 1.3 3.3 2.3c1.8 1.2 4.6 3.8 6.1 5.8 2.8 3.7 7.2 6.6 10.1 6.6.9 0 1.3-.5 1-1-1.5-2.4 1.7-.7 5.1 2.7 4.1 4.2 5.7 7.5 4.1 8.4-1.6 1.1.3 3.1 2.4 2.6 1-.3 2.2-.1 2.5.4.6 1.1 4.5 1.2 4.3.1-.4-2.2.2-3.2 1.4-2.5.6.4 3 .8 5.2.8 3.3 0 4 .3 4 1.9 0 1.1.8 2 1.8 2.2 3 .4 4.7 2.5 4.7 5.6 0 1.6.7 4.5 1.5 6.5 1.3 3 1.3 4 .2 6.3-1.3 2.4-1.2 2.8.4 3.9 3 1.8 5.9 1.4 5.9-.8 0-1.1.5-2.3 1-2.6.6-.4.7-1.2.3-1.8-.4-.6-.8-2.1-.9-3.4-.2-1.8.2-2.3 2.2-2.3 1.6 0 2.8-.8 3.6-2.5.7-1.5 1.9-2.5 3.3-2.5 1.1 0 2.6-.5 3.2-1.1 1.4-1.4 4.9-.3 5.7 1.7.3.8.2 1.2-.4.9-1.8-1.1-1.1.8 1.2 3.2 1.9 2.1 2 2.6.9 6.2-.6 2.2-1 4.3-.9 4.8.1.4-.2 2.3-.6 4.1-.5 2.2-.4 3.8.4 4.7 1 1.2 1 1.8.1 2.9-.8 1-.9 1.6-.1 2.1.5.3 1 2 1 3.6 0 1.7.4 2.8.9 2.4 1.1-.6 4.9 4.2 7.5 9.2 1.6 3.2 1.4 7.4-.5 9.9-.5.5-.6 2.7-.2 4.7.5 3.1 1.5 4.4 6.9 8.3 3.5 2.5 6.4 4.9 6.4 5.4s1.2 1 2.8 1.2c1.5.2 2.7.7 2.7 1.3.1 1.5 2.4 5.2 2.5 3.8 0-.8 1.3-.7 4.7.3 3.3 1 6.4 3.1 10 6.7 4.3 4.2 5.7 5.1 8.1 4.9 2.2-.2 3.4.3 4.5 1.8.9 1.2 2 1.9 2.5 1.6 1.1-.6 1.9 1.3 2.8 6.1.7 3.5 1.2 4.3 3 4.3.8 0 3.1 1.6 5.1 3.5 2.8 2.8 3.9 3.2 5.4 2.4 2.8-1.4 10.1-.6 12.3 1.4 1.2 1 2.3 1.4 2.9.8.6-.6 2.8.4 5.6 2.4 4.2 3.1 5.2 3.3 10.5 3 4.1-.2 6.6-1 8.2-2.4 3.3-2.9 6.8-2.7 9.3.6 2 2.4 2.3 2.5 4.7 1.2 2.8-1.5 4.4-3.8 4-6-.1-.8-2.6-3.9-5.6-6.9-5.3-5.4-9-11.5-9-15 0-.9-.9-2.5-2.1-3.6-1.4-1.3-1.9-2.7-1.7-4.6.6-3.8-8.1-13.8-11.9-13.8-1.4 0-4.4-1.4-6.7-3.2-4.5-3.5-17.6-16.9-17.6-18 0-.4-1.3-1.4-2.9-2.3-1.6-.8-4.3-3.5-6-6-2.5-3.8-2.8-4.5-1.3-4.6 1.4 0 1.4-.2.2-.6-.8-.3-1.9-1.2-2.3-2-.5-.7-1.3-1.1-1.8-.7-.6.3-1.7-.3-2.5-1.4-.7-1.1-2.6-2.3-4.1-2.7-2.8-.7-8.3-5.7-8.3-7.5 0-.5-.3-.9-.7-.9-.5.1-2.3-.2-4-.6-3-.7-3.3-1.1-3.3-4.4 0-2.1-.6-4.5-1.3-5.5-1.1-1.6-1.7-1.7-3.6-.7-2.8 1.5-4.4.4-7.1-5-1.3-2.4-3-4.1-5-4.8-1.8-.6-2.9-1.5-2.5-2.1.4-.6 1.7-.5 3.6.5 2.4 1.3 3.3 1.3 5.2.3 1.2-.6 3.9-1.2 5.9-1.3 2.1-.1 4-.3 4.2-.6.3-.3 0-2.2-.7-4.4-.9-3-.9-3.9.1-4.3.9-.3.9-.9 0-2.5-.6-1.2-1.3-2.9-1.4-3.7-.1-.8-.5-2.4-.9-3.5-.4-1.4 0-2.7 1.4-3.9 2-1.8 2-2 .3-3.2-1-.8-1.2-1.3-.4-1.4.6 0 1.2-.9 1.2-2 0-1.2.9-2.4 2.1-2.8 1.8-.7 1.9-1 .6-2-1.6-1.4-1.1-5.2.7-5.2 1.8-.1-5.7-3.9-7.7-4-2.1 0-4.7-2.3-4.7-4.2-.1-.9-.3-.9-.9.2-.4.8-.8 3.5-.7 6 .1 3.6.4 4.4 1.8 4.2 2.1-.3 5.6 4.6 5.4 7.8-.1 2.3-.6 2.5-4.9 2.8-2.6.2-4.5.7-4.2 1.3.8 1.2-.2 1.2-2.6-.2-1.7-.9-2.1-.7-2.6 1-.3 1.2-1.4 2.1-2.4 2.1-1.1 0-2.4 1-2.9 2.2-1.6 3.8-3.6 5.8-5.9 5.8-2 0-2.1.5-2 5.5.1 3 0 5.7-.3 6-.3.3-3.3-.4-6.7-1.5-4.8-1.5-6.8-1.7-8.3-.9-1.1.6-2.6.8-3.3.5-.7-.2-1.9.1-2.5.9-.9 1.1-7.6 1.5-8.7.5-.2-.1-.6-.3-1-.4-2.6-.6-5.2-2.8-4.7-4.1.4-.9 0-1.5-1-1.5-.9 0-1.6-.5-1.6-1 0-.6-.6-1-1.4-1-.7 0-1.9-.6-2.5-1.4-.9-1.1-.5-1.5 2.1-1.9 2.2-.3 3.7 0 4.5 1 1.6 2.1 2.5 0 1.7-4.2-.6-3.5.2-4.5 2.2-2.5.7.7 1.4.3 2.1-1.3.9-1.9.7-3.4-1-7.3-1.2-2.7-2.7-5.3-3.4-5.7-.7-.4-1.3-1.9-1.3-3.2 0-1.8.5-2.5 2-2.5 1.1 0 2-.5 2-1 0-.6.8-.5 2 .2 2.5 1.6 3.5.5 2-2.2-1-1.9-.9-2.1 1.2-1.8 2.9.4 3.6-1.4 1.1-2.7-3.6-2-3.3-3 1-3.5 2.3-.3 4.8-.2 5.5.3 1.3 1 1.7-.4.5-1.7-.4-.4-.6-2.3-.4-4.2.1-1.9-.2-3.4-.8-3.4-.6 0-1.7-1.2-2.4-2.6-.9-1.7-1.7-2.3-2.1-1.5-.4.6-1.8 1.1-3.1 1.1-1.5 0-2.6.7-3 2-.4 1.1-1.1 1.8-1.6 1.5-.5-.4-.9.1-.9.9 0 2.5-2 1.9-2.1-.7 0-1.2-.3-1.6-.6-.9-.4 1-.8 1-1.9.1-1.1-.9-1.1-1.5-.3-2.5s.8-1.4.1-1.4c-.6 0-1.4.4-1.7 1-1.1 1.7-3.3 1.1-6.8-2-3.5-3-8.9-4.1-10.2-2-.4.7-1.3.6-2.6-.1-1.1-.6-2.7-.8-3.4-.5-.8.3-1.6-.3-2-1.3-.5-1.8-4.4-4.1-6.9-4.1-.8 0-2.8-1.6-4.5-3.5-3.3-3.8-7-10.1-5.2-9.1.7.4 1.1-.1 1.1-1.3 0-1.1-.4-2.2-.9-2.5-.5-.3-1.9-3.8-3.2-7.8-1.2-4-2.6-7.7-3.1-8.3-.4-.5-.8-2.4-.8-4.1 0-2.9-2-5.3-6.7-7.9-.1 0 .5-2 1.3-4.4 1.3-3.8 1.3-4.6.1-6-.8-.9-1.3-2.1-1-2.7.2-.6-.6-1.9-1.7-2.9s-2-1.3-2-.7c0 .7-.4 1.2-1 1.2-.5 0-1-.8-1-1.8s-.7-2.8-1.6-4c-.9-1.3-1.1-2.2-.4-2.2.8 0 .8-.6 0-2s-.8-2.6.1-4.1c.9-1.8.6-2.6-1.9-5.3-1.6-1.7-3.4-4.5-3.9-6.1-.6-1.9-1.7-3.1-3.1-3.3-1.2-.2-2.2-.7-2.2-1.2 0-.4-1-1.1-2.2-1.5-2-.6-2-.8-.5-1.2.9-.2 1.7-.8 1.7-1.1-.1-1.1-4.8-6.2-5.8-6.2-.5 0-1.6-.7-2.3-1.6-.9-1.1-2.3-1.4-4.6-1.1-2.6.5-3.6.1-4.8-1.6-1.7-2.5-2-4.1-.5-3.2.6.3 1-.1 1-1 0-2.7-3.8-9.2-7.5-12.8-1.9-1.9-3.5-3.9-3.5-4.4 0-.6-.6-1.6-1.4-2.2-1.2-1-1.7-.6-2.7 2.3zm110.7 147.1c1.8 4.4 1.8 5.5-.3 5.5-.9 0-1.3-.3-1-.6.3-.4-.5-1.5-1.8-2.6-2.9-2.3-3.2-4.5-.7-5.1.9-.3 1.8-.5 2-.6.2 0 1 1.5 1.8 3.4zm-3.6 14.1c0 .2-.7.4-1.5.4s-1.5-.4-1.5-1c0-.5.7-.7 1.5-.4.8.4 1.5.8 1.5 1zm-16.2 22.3c.3.8-.1 1.2-.9.9-.7-.2-1.5-1-1.7-1.7-.3-.8.1-1.2.9-.9.7.2 1.5 1 1.7 1.7zm65 15.1c-.1 4.3-1.8 3.7-1.8-.6 0-1.9.4-3.3.9-2.9.5.3.9 1.9.9 3.5zM39.963 292.1c-.2 2.5.2 3.6 1.8 4.4 3 1.6 3.3.7 1.4-3.4-2.3-4.8-3-5-3.2-1zM231.363 326.8c-1.1 1.8-1.3 3.4-.6 7.7.5 3 .5 5.7 0 6-.5.3-.3 1.1.5 1.8 1.2 1 1.4 1 1.4-.3 0-.8.5-1.5 1-1.5.6 0 1-.9 1-1.9 0-1.1.5-2.3 1-2.6.6-.3 1-1.7 1-3.1 0-1.4-.4-2.3-.9-2-1.3.8-2.1-2-1-3.1.6-.6.5-1.4-.4-2.2-1.2-.9-1.8-.7-3 1.2z"/><path d="M232.163 347.4c-.3.6-.2 1.1.2 1.1.5 0 .9 1.8.8 4 0 4.6-.1 4.6-2.8 2.2-1.9-1.7-2-1.6-1.3 1 .3 1.5.2 3-.4 3.3-.7.4-.7 1.1-.2 1.8.6.7.6 3.8 0 7.7-1.4 10.2-1.4 11.4-.1 13.4.6 1 .9 2.5.6 3.2-.4 1 .2 1.3 1.8 1.2 1.8-.2 2.8-1.4 4-4.3.9-2.2 1.2-4.4.7-5-2-2.2-.8-7 2.4-9.6 2.8-2.3 3-2.9 1.9-4.3-.8-.9-1.1-1.9-.8-2.3.4-.3.2-1.2-.4-1.9-.7-.8-.7-1.9-.1-3.1.8-1.4.3-2.6-2.3-5.6-1.9-2.2-3.6-3.4-4-2.8zM277.663 360.7c0 1.9.2 2 1 .8 1.3-1.9 1.3-3 0-3-.5 0-1 1-1 2.2zM278.263 366c.4.8 1.1 1.5 1.6 1.5.6 0 .5-.6-.2-1.5-.7-.8-1.4-1.5-1.6-1.5-.2 0-.1.7.2 1.5zM275.563 376.3c.5.9 1.8 2.5 2.8 3.5 1.9 1.6 2 1.6 2 0 0-2.2-2.5-5.3-4.4-5.3-1 0-1.1.5-.4 1.8zM277.663 385.4c0 2.3 1.6 4.5 2.4 3.3.7-1.1 8.1-.5 10.9 1 1.4.7 1.5 1.2.6 3.1-2.2 4.1-2.9 8.8-1.3 9.4 1.1.4 1.2.9.4 1.8-.8 1-.8 1.5 0 2 1.4.9 1.4.8 2.8-3.3.8-2.4.8-3.9 0-5.8-.8-1.8-.9-2.7-.1-3.2.6-.4 1-2.2.9-3.9-.1-3-.4-3.3-3.4-3.3-1.9 0-3.5-.6-3.8-1.5-.9-2.1-9.4-1.8-9.4.4zM270.663 388.4c-1.7.5-2.1.9-1.2 1.5 2.3 1.4 1.3 3.3-1.6 2.8-3.8-.5-6.3 2.3-3.7 4.2 2.2 1.6 8.5.1 8.5-2 0-.7.9-1.6 2-1.9 1.1-.3 2-.9 2-1.3-.1-.9-2.6-4.2-3.1-4.1-.2.1-1.5.4-2.9.8zM252.663 408.4c0 .4-1.1.6-2.4.4-1.5-.3-2.5.1-2.9 1.1-.8 2.1 2.3 3.8 4.3 2.3 1.5-1.2 2.6-4.7 1.5-4.7-.3 0-.5.4-.5.9zM253.063 414.7c-.5.7-.7 2.1-.6 3 .2 1.2-.3 1.8-1.7 1.8-1 0-2.1.5-2.3 1.2-.3.9-1.5.9-4.8 0-4.8-1.2-6.7-.7-5 1.3.8.9.8 1.5 0 2-1.8 1.1-.2 2.2 2.7 1.8 2.4-.3 3 .1 4.3 2.9 1.1 2.5 2.7 3.7 6.2 5 4.1 1.5 4.7 1.5 5.2.2.3-.8 1-1.2 1.6-.9.5.3 1-.1 1-.9 0-.9-1.2-1.9-2.7-2.2-3.5-.9-4.4-2.3-3.1-4.8.8-1.5.7-2.2-.8-3.3-1-.7-1.2-1.3-.6-1.3 1.9 0 3.8-4.8 2.5-6.1-.8-.8-1.3-.7-1.9.3zm-4.4 13.4c0 .8-.4 1.2-1 .9-.5-.3-1-1-1-1.6 0-.5.5-.9 1-.9.6 0 1 .7 1 1.6zm6 4.4c0 .5-.2 1-.4 1-.3 0-.8-.5-1.1-1-.3-.6-.1-1 .4-1 .6 0 1.1.4 1.1 1zM275.963 417.3c-2.2.2-3.3.9-3.3 1.8s-.6 1.4-1.2 1.1c-.7-.2-1.8.9-2.5 2.5-1 2.3-1.7 2.7-3.6 2.3-1.8-.5-2.6-.1-3.5 1.9-.9 2.1-.9 2.6.2 2.6.7 0 2.6.7 4.3 1.5 3.9 1.9 9.6.1 8.7-2.7-.3-1.2-.1-1.8.7-1.6.7.2 1.3-.2 1.4-.9 0-2.3 1.5-2.6 1.6-.2.1 2.2.2 2.1 1.5-.8 2-4.6.1-7.9-4.3-7.5zM171.663 429.5c0 .5.5 1 1 1 .6 0 1-.5 1-1 0-.6-.4-1-1-1-.5 0-1 .4-1 1zM258.663 435.5c0 .5.7 1 1.6 1 .8 0 1.2-.5.9-1-.3-.6-1-1-1.6-1-.5 0-.9.4-.9 1zM305.963 435.3c-.8.5-.9 1.3-.3 2.2.7 1.2 1 1.2 1.6-.3.8-2.1.3-2.9-1.3-1.9zM304.163 440.5c-.3.5.1 1 .9 1 .9 0 1.6.4 1.6.9s.8 1.2 1.7 1.5c1.3.5 1.1 0-.6-1.8-2.8-3-2.8-2.9-3.6-1.6zM79.663 460.5c-.8.5-1.2 1.1-.9 1.4.3.3 1.4-.1 2.5-.9 2.1-1.6.8-2-1.6-.5zM232.863 486.2c.2 2 1.3 3.3 4 4.6 2 1.1 3.9 2.8 4.1 3.8.3 1.2 1.1 1.7 2 1.3.8-.3 1.8-.1 2.2.5 1.4 2.4 2.6 1 4-4.6.2-.6-.3-2-1.1-3-.8-1.1-1.3-1.3-1.4-.5 0 2-7.1.4-10.1-2.4-3.3-3.1-4.1-3-3.7.3zM247.663 500.4c0 .5.5 1.3 1 1.6.6.3 1 .2 1-.4 0-.5-.4-1.3-1-1.6-.5-.3-1-.2-1 .4zM403.963 567.3c-.3 1.2-1.2 2.2-1.9 2.2-.8 0-1.4.5-1.4 1 0 .7-.6.7-1.8.1-2.2-1.2-5.2.4-5.2 2.7 0 .9.9 2.8 2 4.2 1.1 1.4 2 3.4 2 4.4 0 1.1.3 1.6.7 1.3.3-.4 1.2-.2 1.9.4.7.6 1.8.7 2.5.3.8-.5.5-1.2-1.1-2.4l-2.3-1.8 2.1-.6c2.5-.8 2.6-1.4 1.3-5-.9-2.1-.6-2.7 2-4.4 2.7-1.7 2.8-2 1.4-3.2-1.4-1.1-1.7-1-2.2.8z"/></g></svg>