<?xml version="1.0" standalone="no"?>
<!DOCTYPE svg PUBLIC "-//W3C//DTD SVG 20010904//EN"
 "http://www.w3.org/TR/2001/REC-SVG-20010904/DTD/svg10.dtd">
<svg version="1.0" xmlns="http://www.w3.org/2000/svg"
 width="321.621319pt" height="353.748118pt" viewBox="0 0 321.621319 353.748118"
 preserveAspectRatio="xMidYMid meet">
<metadata>
Created by potrace 1.15, written by Peter Selinger 2001-2017
</metadata>
<g transform="translate(-838.635044,1198.748118) scale(0.100000,-0.100000)"
fill="#222222" stroke="none">
<path d="M9787 11983 c-4 -6 -17 -9 -29 -5 -14 3 -19 2 -14 -6 4 -7 13 -12 21
-12 23 0 26 -16 13 -65 -9 -32 -9 -48 -2 -53 31 -20 20 -92 -14 -92 -14 0 -17
-11 -17 -70 -1 -56 -4 -72 -19 -83 -13 -9 -16 -19 -11 -28 9 -13 15 -49 9 -49
-1 0 -14 4 -28 10 -21 8 -26 6 -26 -6 0 -8 4 -13 9 -9 12 7 41 -22 41 -42 0
-11 -6 -13 -22 -8 -13 4 -34 8 -48 9 -14 0 -28 6 -32 11 -5 7 -8 6 -8 0 0 -6
-16 -11 -35 -11 -30 0 -35 3 -35 23 0 15 -10 28 -30 38 -16 9 -30 22 -30 30 0
16 -38 41 -58 37 -7 -2 -20 11 -30 28 -10 17 -23 28 -30 25 -8 -3 -27 -5 -43
-5 -29 0 -30 -1 -27 -42 2 -29 -2 -47 -12 -55 -13 -10 -13 -16 4 -47 11 -20
37 -55 58 -78 26 -29 35 -44 26 -49 -8 -5 -4 -21 15 -59 31 -59 33 -70 13 -70
-8 0 -17 -7 -20 -16 -3 -9 -11 -12 -18 -8 -7 4 -3 -4 9 -17 12 -13 23 -28 24
-34 1 -5 7 -21 12 -34 9 -19 8 -26 -8 -37 -18 -14 -18 -14 1 -29 16 -12 16
-14 2 -9 -11 4 -20 0 -24 -10 -4 -11 -13 -14 -30 -10 -13 3 -24 2 -24 -3 0
-10 -69 -37 -77 -30 -2 3 0 14 6 25 8 15 7 23 -3 31 -11 9 -15 9 -18 -1 -4
-10 -13 -10 -46 1 -36 12 -41 17 -36 38 7 27 -9 30 -51 11 -21 -9 -28 -9 -34
1 -5 7 -17 11 -28 9 -11 -1 -27 3 -35 10 -13 10 -19 10 -32 -3 -9 -9 -36 -17
-64 -18 -39 -2 -48 -5 -45 -18 4 -15 -28 -34 -51 -30 -5 1 -5 -6 0 -16 4 -10
8 -34 8 -53 1 -31 -3 -36 -31 -44 -18 -6 -36 -20 -42 -33 -6 -13 -16 -21 -21
-18 -6 3 -10 -1 -10 -10 0 -13 -4 -14 -20 -5 -18 10 -20 8 -20 -19 0 -16 -4
-33 -10 -36 -5 -3 -10 -17 -10 -30 0 -12 -7 -26 -16 -29 -11 -4 -14 -13 -10
-31 5 -20 3 -23 -10 -18 -13 5 -15 2 -9 -16 8 -26 -10 -51 -36 -51 -12 0 -19
-7 -19 -20 0 -12 -12 -33 -26 -47 -20 -20 -23 -28 -12 -35 10 -7 9 -11 -6 -23
-12 -9 -17 -21 -13 -35 4 -16 -1 -23 -19 -30 -13 -5 -24 -14 -24 -19 0 -6 -16
-13 -35 -17 -23 -4 -32 -10 -27 -18 4 -6 7 -18 7 -26 1 -28 46 -159 58 -168 7
-5 23 -12 37 -15 61 -14 101 -33 107 -52 10 -29 12 -39 33 -155 7 -36 21 -79
32 -97 19 -32 17 -80 -5 -95 -7 -4 -4 -16 7 -32 9 -14 12 -26 7 -26 -6 0 -8
-6 -5 -14 3 -9 -8 -24 -30 -39 -20 -13 -33 -27 -30 -30 4 -4 2 -12 -4 -20 -15
-17 -11 -59 5 -53 7 3 10 -1 7 -8 -3 -8 2 -20 11 -27 9 -8 27 -24 40 -35 26
-24 37 -22 27 4 -5 14 -3 15 10 4 12 -10 18 -9 28 3 15 18 51 20 67 4 8 -8 14
-6 22 10 l12 21 36 -20 c23 -12 39 -16 43 -9 9 14 77 49 95 49 9 0 25 -9 37
-20 37 -34 49 0 13 40 -19 21 -13 42 6 23 13 -13 69 15 69 34 0 7 9 18 20 25
11 7 20 17 20 23 0 6 9 16 19 22 17 10 19 22 17 82 -2 48 0 68 8 65 11 -4 36
39 36 62 0 6 7 15 16 18 14 5 14 8 0 28 -21 29 -20 48 2 64 16 12 16 14 -5 29
-28 20 -30 39 -3 32 15 -4 20 0 20 14 0 10 -4 19 -10 19 -5 0 -19 9 -30 20
-26 26 -25 40 1 40 15 0 19 4 15 16 -3 9 -6 31 -6 49 0 26 -5 35 -22 41 -17 5
-19 8 -6 15 10 6 15 26 17 65 1 47 -1 55 -12 46 -15 -13 -37 2 -37 25 0 7 -8
20 -19 30 -10 10 -22 28 -25 40 -7 22 -1 23 34 10 27 -10 48 -4 42 11 -4 11
-1 13 7 8 7 -5 11 -16 8 -26 -6 -23 70 -61 82 -41 13 21 61 -7 61 -36 0 -14 5
-23 13 -21 18 3 75 -55 83 -85 3 -15 11 -27 18 -27 16 1 46 25 46 37 0 17 51
22 57 6 8 -21 -4 -28 -23 -12 -16 13 -17 11 -11 -20 9 -42 -11 -110 -38 -133
-20 -17 -20 -17 7 -18 20 0 26 4 22 15 -4 8 -1 15 5 15 6 0 11 7 11 16 0 8 5
24 10 35 8 15 15 17 30 9 11 -6 29 -15 40 -20 23 -12 23 -10 10 25 -8 20 -7
27 5 31 8 4 12 11 8 17 -4 6 0 8 10 4 10 -4 20 0 25 10 6 10 17 14 30 11 15
-4 23 0 27 12 4 12 12 16 25 13 15 -4 20 0 20 13 0 24 -16 49 -32 50 -7 1 -19
2 -25 3 -21 2 -16 59 6 70 23 13 37 77 20 97 -6 8 -9 23 -6 33 3 11 -2 29 -10
41 -8 12 -13 29 -10 40 6 25 -2 35 -55 63 -26 14 -44 28 -41 31 4 3 -3 20 -15
36 -27 35 -27 40 -4 40 29 1 55 26 47 49 -6 20 -5 20 29 6 40 -17 109 -11 131
11 7 8 18 14 24 14 6 0 11 7 11 15 0 14 4 14 31 -1 45 -23 129 -46 145 -40 26
10 25 -15 -1 -40 -20 -18 -31 -22 -38 -15 -20 20 -28 11 -10 -12 9 -13 24 -22
33 -21 39 6 60 18 60 35 0 11 4 19 8 19 12 0 32 -46 32 -74 0 -14 16 -40 39
-62 32 -33 44 -39 78 -38 22 1 45 4 52 8 6 4 15 -2 21 -16 l11 -23 -5 23 c-7
35 3 52 30 52 14 0 24 6 24 14 0 8 14 19 30 25 17 5 30 15 30 22 0 7 8 21 17
31 16 18 16 19 -5 25 -12 3 -22 10 -21 17 4 35 -3 55 -18 56 -10 0 -33 2 -50
4 -18 2 -40 4 -49 5 -8 0 -13 5 -10 9 3 5 -4 16 -15 25 -10 9 -19 24 -19 32 0
16 -16 21 -22 6 -1 -5 -18 -12 -37 -16 -30 -6 -33 -5 -27 11 4 11 12 38 19 61
9 36 8 45 -6 61 -9 10 -17 26 -17 36 0 9 -5 26 -11 37 -10 19 -12 19 -35 4
-23 -15 -25 -14 -30 2 -3 10 -12 30 -20 45 -8 15 -13 31 -12 36 2 5 -12 21
-29 36 -18 15 -33 34 -33 42 0 7 -12 21 -26 31 -21 13 -25 22 -20 44 4 24 -3
36 -47 79 -33 33 -48 53 -40 58 16 10 4 62 -16 69 -9 3 -23 15 -33 27 -15 19
-15 21 0 32 15 11 15 15 -1 48 -20 43 -22 93 -5 98 9 3 7 13 -7 34 -11 16 -23
35 -26 43 -4 10 -8 11 -12 4z m-35 -485 c-9 -9 -15 -9 -24 0 -9 9 -7 12 12 12
19 0 21 -3 12 -12z m22 -54 c18 -7 12 -24 -10 -24 -8 0 -14 7 -14 15 0 17 2
18 24 9z m416 -370 c0 -2 -7 -4 -15 -4 -8 0 -15 4 -15 10 0 5 7 7 15 4 8 -4
15 -8 15 -10z m0 -58 c0 -2 -8 -10 -17 -17 -16 -13 -17 -12 -4 4 13 16 21 21
21 13z m-950 -31 c0 -8 -7 -15 -15 -15 -8 0 -15 7 -15 15 0 8 7 15 15 15 8 0
15 -7 15 -15z m-380 -1055 c0 -5 -5 -10 -11 -10 -5 0 -7 5 -4 10 3 6 8 10 11
10 2 0 4 -4 4 -10z"/>
<path d="M9446 11834 c-3 -8 -10 -13 -15 -9 -5 3 -12 1 -16 -5 -3 -5 -21 -8
-39 -6 -29 4 -33 2 -29 -15 6 -20 -11 -27 -22 -9 -3 6 -23 10 -44 10 -20 0
-42 5 -49 12 -8 8 -15 8 -27 -2 -11 -9 -19 -10 -27 -2 -6 6 -17 8 -24 5 -16
-6 -19 -33 -3 -33 5 0 8 -4 4 -9 -3 -6 3 -14 13 -20 10 -5 24 -21 32 -35 15
-29 50 -35 50 -10 0 11 5 14 18 9 62 -25 72 -25 87 5 8 16 15 36 15 44 0 22
17 28 40 14 12 -8 19 -20 16 -30 -3 -12 2 -18 14 -18 11 0 21 -4 25 -9 3 -6
19 -17 36 -25 29 -14 31 -14 36 4 3 11 11 16 20 13 8 -3 12 -12 8 -21 -3 -9 6
-27 22 -44 28 -29 28 -30 8 -45 -19 -15 -19 -15 5 -8 14 3 36 9 48 12 19 5 23
11 19 30 -2 14 -1 40 3 60 8 33 7 35 -26 49 -19 8 -39 25 -45 37 -7 16 -19 22
-43 23 -18 0 -46 10 -61 22 -33 26 -41 27 -49 6z"/>
<path d="M9090 11836 c0 -2 7 -9 15 -16 13 -11 14 -10 9 4 -5 14 -24 23 -24
12z"/>
<path d="M9380 11750 c0 -5 5 -10 11 -10 5 0 7 5 4 10 -3 6 -8 10 -11 10 -2 0
-4 -4 -4 -10z"/>
<path d="M9534 11640 c0 -11 6 -22 13 -24 8 -4 13 3 13 19 0 14 -6 25 -13 25
-7 0 -13 -9 -13 -20z"/>
<path d="M10070 10770 c-9 -6 -8 -14 5 -34 21 -31 7 -56 -31 -56 -17 0 -22 -4
-18 -15 7 -18 42 -11 60 11 19 24 56 22 70 -5 17 -33 44 -48 37 -21 -4 14 0
20 11 20 24 0 -1 47 -28 54 -13 3 -38 16 -58 30 -20 13 -41 20 -48 16z"/>
<path d="M10470 10700 c-8 -5 -32 -16 -52 -26 -21 -9 -37 -19 -36 -22 2 -23
-5 -32 -27 -32 -18 0 -23 -4 -19 -15 4 -8 11 -15 18 -15 6 0 17 -9 24 -20 7
-11 19 -20 27 -20 8 0 15 -9 15 -20 0 -12 12 -28 28 -37 15 -9 39 -31 52 -49
15 -19 29 -29 34 -24 5 6 4 15 -4 25 -10 12 -10 15 3 15 9 0 19 -4 22 -10 3
-5 21 -10 38 -10 24 0 40 -8 60 -31 15 -17 27 -34 27 -38 0 -4 11 -17 24 -30
16 -15 22 -29 18 -47 -2 -14 -1 -24 4 -22 24 8 62 -57 42 -72 -4 -3 -13 -18
-21 -32 l-14 -27 -32 17 c-18 10 -32 22 -31 27 3 12 -28 27 -40 20 -6 -3 -10
0 -10 8 0 17 -47 40 -55 27 -10 -16 -45 8 -45 30 0 11 -4 20 -8 20 -5 0 -14
11 -21 24 -9 15 -19 22 -31 19 -10 -3 -21 0 -24 6 -4 6 -21 11 -37 11 -17 0
-32 6 -35 14 -7 19 -63 31 -77 17 -6 -6 -21 -11 -34 -11 -13 0 -23 -4 -23 -10
0 -17 -14 -11 -28 11 -16 26 -10 34 16 20 16 -8 23 -6 38 11 19 21 19 21 -8
16 -20 -4 -28 -1 -28 8 0 8 -7 14 -15 14 -8 0 -15 5 -15 10 0 6 -25 10 -57 10
-53 0 -55 -1 -41 -17 9 -10 15 -29 13 -43 -1 -14 -3 -34 -4 -45 -2 -19 -3 -19
-18 3 -8 12 -21 22 -28 22 -20 0 -26 38 -6 43 12 4 11 5 -5 6 -22 1 -67 30
-48 31 7 0 15 11 18 25 4 14 11 23 16 20 5 -3 14 3 19 14 14 26 14 42 0 18 -9
-16 -13 -14 -30 20 -24 47 -24 50 1 28 11 -10 20 -15 20 -10 0 4 6 2 14 -4 12
-10 17 -8 25 8 6 11 11 23 11 28 0 11 -60 34 -71 28 -4 -3 -20 6 -36 21 -29
27 -47 16 -19 -12 22 -22 20 -44 -4 -44 -13 0 -20 -7 -20 -19 0 -38 -10 -51
-31 -40 -15 7 -19 6 -19 -5 0 -9 -7 -12 -20 -9 -16 4 -20 0 -20 -18 0 -18 -3
-20 -12 -11 -17 17 -45 15 -52 -4 -9 -24 -7 -28 9 -14 20 17 28 8 30 -35 1
-20 10 -44 20 -55 17 -19 17 -21 0 -40 -18 -20 -18 -23 -3 -65 16 -42 16 -44
-2 -50 -12 -4 -22 -19 -26 -41 -8 -41 2 -56 20 -32 7 10 16 15 20 11 4 -4 11
-1 16 7 7 11 11 11 24 1 9 -7 13 -17 10 -22 -3 -5 4 -9 15 -9 16 0 21 -6 21
-25 0 -16 -6 -25 -15 -25 -10 0 -15 -10 -15 -29 0 -37 -31 -44 -77 -18 -18 11
-33 15 -33 9 0 -18 24 -77 37 -90 18 -19 16 -55 -5 -78 -24 -25 -18 -40 21
-61 18 -9 26 -18 20 -20 -22 -8 -14 -28 23 -64 26 -25 34 -40 31 -58 -3 -14 1
-49 9 -79 13 -49 13 -56 -2 -67 -13 -9 -14 -16 -5 -33 6 -11 11 -43 11 -70 0
-37 5 -54 21 -68 11 -10 36 -40 56 -66 20 -28 43 -48 54 -48 14 0 19 -7 19
-29 0 -26 7 -33 55 -56 67 -33 82 -49 65 -70 -10 -12 -10 -15 4 -15 10 0 16
-9 16 -25 0 -14 5 -25 10 -25 6 0 10 -9 10 -20 0 -11 -5 -20 -12 -20 -6 0 -1
-11 11 -24 12 -13 21 -34 20 -47 -6 -71 1 -101 33 -131 26 -25 37 -28 65 -23
28 5 33 3 38 -17 5 -22 1 -128 -6 -158 -3 -9 2 -14 10 -12 8 2 24 -1 35 -7 12
-5 38 -12 59 -16 21 -3 47 -15 58 -26 22 -22 45 -25 52 -6 3 9 7 9 18 1 8 -6
31 -14 52 -17 28 -4 37 -2 37 8 0 11 6 12 22 6 26 -9 100 12 119 35 6 8 19 14
28 14 9 0 21 4 27 10 10 10 43 14 74 9 39 -6 57 3 74 36 11 19 25 35 32 35 7
0 10 8 7 20 -3 12 -14 20 -25 20 -13 0 -18 5 -15 14 3 7 1 18 -5 24 -6 6 -1 8
17 4 30 -5 63 23 57 50 -2 10 5 19 17 23 12 3 21 11 21 17 0 5 -7 7 -17 4 -10
-4 -26 3 -42 18 -33 31 -81 45 -81 23 0 -9 -5 -19 -10 -22 -6 -4 -10 -3 -9 2
1 4 1 20 0 35 -1 21 -7 28 -33 33 -18 4 -36 13 -40 19 -11 16 -10 38 2 31 13
-8 61 5 54 16 -3 5 1 9 8 9 29 0 38 21 21 53 -14 28 -14 31 2 39 15 9 15 11
-1 29 -9 10 -24 19 -32 19 -8 0 -30 17 -48 37 -30 32 -34 44 -34 91 0 54 12
89 37 107 12 9 12 16 2 37 -16 35 -4 95 22 109 16 8 19 17 14 40 -6 28 7 41
20 19 11 -18 23 -11 39 21 12 24 13 36 5 52 -10 17 -7 23 11 37 15 11 21 23
17 34 -4 9 2 33 13 54 17 33 18 42 7 65 -6 15 -15 27 -19 27 -5 0 -8 7 -8 15
0 8 4 15 10 15 5 0 7 6 4 14 -3 8 -1 17 4 20 11 7 5 44 -12 65 -11 14 -33 50
-40 66 -2 6 -10 37 -17 70 -19 91 -40 121 -52 75 -3 -12 -14 -20 -26 -20 -15
0 -19 -4 -14 -17 5 -13 2 -15 -15 -11 -12 4 -25 2 -28 -3 -3 -5 -10 -6 -16 -3
-6 4 -14 0 -19 -7 -7 -11 -9 -11 -9 2 0 9 -9 19 -21 22 -15 4 -22 -1 -29 -19
-11 -27 -25 -31 -34 -9 -3 9 0 15 8 15 8 0 16 7 20 15 4 11 13 14 31 9 15 -4
25 -2 25 5 0 6 7 11 15 11 8 0 15 9 15 20 0 11 -4 20 -10 20 -5 0 -10 11 -10
24 0 31 -16 42 -28 20 -9 -16 -11 -15 -21 4 -10 18 -9 21 4 16 11 -4 15 0 15
16 0 19 4 21 30 15 26 -6 30 -4 30 15 0 11 6 23 14 26 8 3 16 14 19 25 3 11
11 17 19 14 17 -7 54 51 61 95 4 32 1 38 -33 63 -24 16 -40 23 -42 16 -3 -8
-14 -6 -37 6 -19 9 -45 15 -60 12 -18 -4 -36 2 -58 19 -17 13 -36 24 -42 24
-6 0 -11 5 -11 10 0 6 -16 10 -35 10 -32 0 -35 -2 -25 -19 5 -11 10 -23 10
-28 0 -13 -52 -30 -90 -29 -31 1 -35 4 -38 30 -4 29 -29 77 -41 75 -3 0 -13
-4 -21 -9z m-455 -330 c3 -6 -1 -7 -9 -4 -18 7 -21 14 -7 14 6 0 13 -4 16 -10z
m550 -142 c5 12 9 13 12 4 3 -7 -3 -22 -13 -33 -15 -16 -15 -19 -1 -19 8 0 17
6 20 13 3 9 7 9 20 -2 10 -7 17 -10 17 -5 0 4 5 3 11 -3 8 -8 1 -21 -24 -47
-33 -34 -35 -34 -51 -17 -9 10 -13 20 -10 24 4 3 -6 21 -21 39 -16 19 -23 34
-16 36 6 2 8 9 4 15 -4 7 5 4 19 -5 25 -16 27 -16 33 0z m-470 -298 c3 -5 1
-10 -4 -10 -6 0 -11 5 -11 10 0 6 2 10 4 10 3 0 8 -4 11 -10z m700 -440 c3 -5
4 -10 1 -10 -2 0 -12 -3 -20 -6 -12 -5 -15 -2 -10 10 7 18 20 21 29 6z m-448
-506 c-3 -3 -12 -4 -19 -1 -8 3 -5 6 6 6 11 1 17 -2 13 -5z"/>
<path d="M10270 10672 c0 -4 6 -14 13 -21 10 -10 7 -16 -13 -33 -15 -12 -26
-15 -28 -9 -6 19 -32 12 -32 -9 0 -31 37 -25 98 13 10 7 9 15 -5 38 -16 28
-33 38 -33 21z"/>
<path d="M10121 10644 c0 -11 3 -14 6 -6 3 7 2 16 -1 19 -3 4 -6 -2 -5 -13z"/>
<path d="M10108 10613 c7 -3 16 -2 19 1 4 3 -2 6 -13 5 -11 0 -14 -3 -6 -6z"/>
<path d="M10561 10330 c1 -8 -1 -23 -5 -32 -4 -9 -6 -24 -4 -32 2 -11 8 -8 19
12 14 25 14 31 2 48 -10 13 -14 15 -12 4z"/>
<path d="M10970 10282 c0 -12 19 -26 26 -19 2 2 -2 10 -11 17 -9 8 -15 8 -15
2z"/>
<path d="M9450 10175 c-28 -8 -37 -13 -22 -14 12 -1 34 -8 47 -17 25 -16 25
-16 25 15 0 17 -1 31 -2 30 -2 -1 -23 -7 -48 -14z"/>
<path d="M8650 9471 c31 -25 42 -26 38 -3 -2 11 -14 18 -33 20 l-30 3 25 -20z"/>
<path d="M8671 9418 c-1 -15 -8 -31 -17 -36 -13 -7 -13 -10 -1 -20 23 -19 37
6 27 48 -7 31 -8 32 -9 8z"/>
<path d="M8595 9280 c-3 -5 -1 -10 4 -10 6 0 11 5 11 10 0 6 -2 10 -4 10 -3 0
-8 -4 -11 -10z"/>
<path d="M11380 9119 c-19 -4 -44 -5 -55 -2 -17 5 -18 4 -7 -9 10 -13 10 -23
-1 -56 -12 -35 -12 -42 1 -55 13 -14 9 -21 -35 -66 -28 -28 -57 -51 -66 -51
-8 0 -18 -12 -21 -26 -6 -21 -1 -32 25 -55 18 -16 41 -29 51 -29 10 0 18 -5
18 -11 0 -5 4 -8 9 -5 5 3 7 15 4 26 -3 11 0 20 6 20 6 0 21 9 34 21 18 15 23
29 21 54 -3 44 21 54 52 20 30 -33 71 -34 70 -2 -1 15 4 22 17 21 9 -1 17 5
17 12 0 18 22 57 38 67 8 5 10 18 5 35 -6 24 -4 25 10 14 13 -11 17 -10 25 4
13 24 -4 61 -32 68 -34 9 -39 7 -33 -14 5 -21 -8 -37 -18 -21 -3 6 -12 8 -20
4 -9 -3 -15 1 -15 11 0 9 -6 13 -13 10 -8 -3 -20 2 -27 11 -7 8 -15 15 -19 14
-3 -1 -22 -5 -41 -10z"/>
<path d="M11330 8788 c1 -28 80 -94 80 -67 0 5 -11 15 -25 21 -14 6 -25 18
-25 25 0 8 4 11 10 8 6 -3 7 1 4 9 -7 19 -44 21 -44 4z"/>
<path d="M9870 8699 c0 -11 -7 -22 -15 -25 -22 -9 -19 -57 5 -71 24 -15 47 -8
55 18 8 23 21 25 29 4 6 -16 64 -45 89 -45 7 0 13 9 14 20 1 15 -6 21 -35 25
-54 9 -63 13 -61 27 1 7 -3 24 -10 38 -16 33 -71 40 -71 9z"/>
<path d="M9802 8674 c3 -17 21 -21 26 -6 1 5 -4 12 -13 16 -11 4 -15 1 -13
-10z"/>
<path d="M10140 8620 c0 -7 -7 -10 -15 -6 -8 3 -15 1 -15 -4 0 -6 -9 -10 -20
-10 -11 0 -20 -7 -20 -15 0 -8 5 -15 11 -15 5 0 8 -3 6 -8 -3 -4 15 -8 40 -9
24 -1 56 -10 71 -20 15 -10 44 -25 65 -35 20 -9 37 -24 37 -33 0 -8 5 -15 10
-15 6 0 10 9 10 20 0 11 4 20 8 20 5 0 20 17 34 39 18 28 23 43 16 55 -9 15
-12 16 -26 3 -17 -14 -31 -18 -74 -17 -13 0 -34 0 -47 0 -13 0 -30 -5 -37 -10
-9 -8 -14 -4 -19 19 -7 31 -35 64 -35 41z"/>
<path d="M10845 8540 c-3 -5 5 -15 19 -21 20 -9 29 -9 41 1 8 7 15 16 15 21 0
12 -67 11 -75 -1z"/>
<path d="M10923 8475 c-10 -11 -9 -15 7 -20 24 -8 40 1 40 21 0 18 -31 18 -47
-1z"/>
</g>
</svg>
