<svg version="1" xmlns="http://www.w3.org/2000/svg" width="891.169" height="1223.467" viewBox="0 0 668.377 917.6"><g fill="#222"><path d="M18.933.6c-.4.6-.1 1.7.5 2.5.8 1 .9 1.5.2 1.5-.6 0-1.4-.4-1.7-1-.7-1.1-6.5 1.5-6.5 2.9s-3.9.1-5.3-1.8c-.7-.9-1.9-2.1-2.7-2.8-1.3-.9-1.5-.6-1.6 1.8-.1 1.7-.7 4-1.3 5.2-1 1.9-.7 3.3 2.4 9.5 2.5 5.2 4.2 7.3 5.9 7.8 1.8.4 2.6 1.5 3.1 4 .3 1.9.3 4.3 0 5.3s.1 2.3.8 3c.8.6 2.2 3.1 3.2 5.6 2.1 4.9 3.7 6 6.6 4.5 1.5-.9 1.9-.7 1.9.7 0 2.6 4 5 5.1 3.1.5-.7.6-2 .3-2.8-1.3-2.9-2.4-11.5-1.9-13.8.3-1.2 1.3-2.2 2.3-2.2 1.4 0 2-1.3 2.9-5.8 1.2-6 .9-6.6-4.1-9.7-1.5-.9-2.4-4-3-10.7-.4-4.2-5.6-9.2-7.1-6.8zM136.033 36.7c-2.3 2.7-1.7 3.2 1.3 1 1.3-1 1.9-2.1 1.4-2.4-.5-.3-1.7.3-2.7 1.4zM127.433 46.7c0 1.1.5 1.7 1 1.4.6-.3 1-1.3 1-2.1s-.4-1.4-1-1.4c-.5 0-1 .9-1 2.1zM31.733 51.3c.4.3 0 1.5-1 2.5-1.9 2.2-1.7 2.5 2.2 3 2.5.2 3.1-.1 3.3-2.1.2-1.3-.2-2.8-1-3.2-1.5-1-4.4-1.2-3.5-.2zM109.933 51.6c-.3.5-1.7 1-3 1h-2.4l2.1 3.7c2 3.3 2.3 3.4 3.1 1.6.9-2.1 5.9-4.3 9.7-4.3 1.7 0 2.1-.3 1.3-1.1-1.4-1.4-10-2.2-10.8-.9zM25.933 56.6c-.3.5.1 1 .9 1 .9 0 1.6-.5 1.6-1 0-.6-.4-1-.9-1-.6 0-1.3.4-1.6 1zM43.433 58.1c-.7.9-2.1 1.3-3 1-2.2-.7-4.2 1.7-3.4 3.9.8 2 4.4 3.6 8 3.6 1.4 0 2.4.6 2.4 1.4 0 .7.9 1.6 2 1.9 1.3.3 1.8.1 1.3-.6-.4-.6-.8-2.6-1-4.4-.8-7.4-3.4-10.3-6.3-6.8zM50.433 59.9c0 .7.7 2.3 1.6 3.6 1.2 1.7 1.4 2.5.5 3-1.3.8-.5 4.1 1 4.1.5 0 .9.7.9 1.5 0 2 3.9 4 5.3 2.6.7-.7 1.6-.7 2.9 0 1.9 1 4.7-.4 7-3.6.4-.6.8-.2.8.7 0 1.1.8 1.8 2 1.8 1.1 0 2-.4 2-.9 0-.6 1.8-.5 4.3.2 3.3 1 4.5 2 5.7 4.6l1.5 3.3 6.6-.6c6.5-.7 6.7-.6 8.7 2.1 1.9 2.6 2.2 2.7 5.4 1.5 1.9-.6 4.2-1.2 5.1-1.2 1 0 1.6-.7 1.5-1.8-.1-.9.2-3.4.6-5.5.6-2.6.5-4.2-.3-5-.6-.6-1.1-1.9-1.1-2.9s-.6-1.8-1.4-1.8c-.8 0-1.8-.9-2.1-2-.7-2.2-4.5-2.8-4.5-.6 0 1.8-4.7 1.8-8.1 0-2.3-1.1-3.6-1.1-9.5.6-3.8 1.1-7.2 2-7.5 2-.3 0-1.2-1.2-1.9-2.6-1.3-2.3-1.5-2.4-2.6-.9-.7 1-1.5 1.2-1.8.6-.4-.6-1.3-.8-2.1-.4-.9.3-2.6-.2-4-1.1-2.2-1.5-2.5-1.5-2.5-.1s-.3 1.4-3 0c-1.7-.9-4-1.3-5.4-.9-1.3.3-2.7.1-3-.5-1-1.5-2.6-1.4-2.6.2zM136.433 86.8c0 .7.7 3.1 1.4 5.3 1 2.8 1.1 4.2.4 4.7-.8.4-.7 2 .2 5.2 1.5 5.5.7 10-1.8 9.4-1.8-.5-4.2 1.3-4.2 3.2 0 1.4 4 5.4 6.8 6.9 1.2.6 2.2 1.9 2.2 2.9.1 2.7 5.6 5.9 12 6.8.8.1 3.1.9 5.2 1.8 2.7 1.1 3.8 2.3 4.3 4.6.4 1.7 1.3 3 2.2 3 1.1 0 1.4.7.9 2.4-.5 1.9-.1 2.5 1.5 2.9 2.2.6 2.2 1.5.4 6-.6 1.4-.2 2 1.4 2.4 1.1.3 2.1.9 2.1 1.4 0 .5.3.8.8.8 2-.3 4.3.2 3.8.9-.3.5 1.2 1.9 3.2 3.3 4 2.6 5.5 6.4 2.1 5.4-1.3-.4-1.9-.2-1.9.9 0 .8-.7 1.9-1.6 2.4-1.3.8-1.4 1.1-.2 2.3.8.8 1.7 2.2 2.1 3.2.4 1 2.1 2.4 3.7 3 1.7.6 3 1.5 3 1.9 0 .5 1.4 1.7 3.2 2.8 2.1 1.3 4.1 3.9 5.9 7.9 2.5 5.5 2.6 5.9.8 5.6-1-.2-1.9-.1-2 .3-.1.4-.3 2.6-.5 4.9l-.4 4.2 3.2-1.1c1.9-.7 3.3-.7 3.5-.2 1 2.7 2.4 3.5 6.7 3.9 5.7.6 9.9 3.1 9.3 5.6-.3 1 .1 2 .9 2.3.7.3 1.6 2.1 2 4 .5 3.1 1 3.6 3.3 3.6 1.5 0 3.2.5 3.8 1.1.7.7 3.8 1.1 7.1 1.1 5.2-.1 6.1.2 8.6 2.9 1.7 1.7 3.5 2.8 4.3 2.5.8-.4 2.6-.9 3.9-1.2 1.4-.4 2.7-1.6 3-3 .7-2.9 1.8-3 5.2-.5 3.8 2.6 10.2 5.2 10.2 4 0-.5-.7-1.2-1.5-1.5-.8-.4-1.5-1.1-1.5-1.6 0-.6-1.8-2.7-3.9-4.8-4-3.9-6.2-9.7-4.2-10.9 2.2-1.4 1.4-6.7-2.1-14.1-2-4.1-3.8-8.6-4-10-.2-1.7-1-2.6-2.4-2.8-1.5-.2-2.4-1.2-2.8-3.3-.3-1.6-1.4-3.2-2.3-3.6-2.5-.8-6.3-4.4-6.3-5.8 0-1.8-4.2-5.3-7.1-6-1.5-.4-3.8-1.9-5.2-3.3-2.1-2.3-2.5-3.9-3-11.2-.4-7.1-1-9.7-3.7-15-1.8-3.6-3.7-6.8-4.2-7.1-1.7-1.1-1.8-12.1-.2-15.3 1.9-3.9 1.8-4.6-.8-4.6-1.2 0-3.9-1.2-6-2.7-3-2-4.2-2.3-5-1.5-1.8 1.8-6.9 1.4-11.3-.9-2.2-1.2-4.2-2.5-4.5-2.9-.7-1-7-3-9.5-3-1.2 0-3 .9-3.9 1.9-1.5 1.6-2.7 1.8-7.2 1.4-4.3-.5-5.4-.3-5.4.9 0 1.9-6.8 2.1-9.7.2-1.3-.8-3.7-4.1-5.3-7.4-3.1-6.2-6.2-10-8-10-.5 0-1 .6-1 1.2zM106.733 88.1c-.9 1-.9 2 0 4.6.9 2.3.9 3.3.1 3.6-.6.2-.9 1.4-.7 2.7.3 1.3 0 2.7-.6 3-.6.4-1.1 1.8-1.1 3.2 0 1.4-.6 2.4-1.4 2.4-1 0-1.2.7-.8 2.2.9 3.9 5.4 9.8 7.3 9.8.9 0 2.4.7 3.3 1.5 1.7 1.7 3.6 2 3.6.5 0-.6 1.3-1 2.9-1 2.3 0 3-.5 3.5-2.6.4-1.5 1-2.4 1.3-2.1.3.3 1.2-.1 2-.9.9-.8 2.2-1.3 2.9-1 2.4.9 1.6-4.6-1.1-7.4-1.5-1.6-3.1-5.2-4.1-9.3-1.6-6.3-1.9-6.7-5.3-7.7-2-.5-4.4-1-5.4-1s-2.6-.4-3.5-.9c-1.1-.6-2.1-.4-2.9.4z"/><path d="M137.433 124.7c0 1.5.6 2.9 1.4 3.2 1.6.6 1.5-.9-.2-3.8-1.1-1.9-1.1-1.9-1.2.6zM269.433 234.7c0 .9 1.1 2.6 2.5 3.9 1.6 1.5 2.5 3.4 2.5 5.3 0 2.9 2.4 6.5 10 14.5 3.7 4 7 9.4 7 11.5 0 .7.6 1.9 1.3 2.5.6.7 1.2 1.6 1.2 2 .1.4.6 1.7 1.3 2.9 1 1.8 1 2.3.1 2.3-.7 0-2 .8-2.9 1.7-1.5 1.6-1.6 2.2-.2 5.8 2.4 6.6 3.1 10.4 1.9 10.8-.6.2-.3 1.7.8 4 2.1 4.4 1.6 9.3-1.7 16.8-1.6 3.8-1.8 5.2-.9 6.3.9 1.1.7 2.1-.9 4.8-1.1 1.8-2 4-2 4.9 0 2.2 2.5 7 3.3 6.3.3-.3 1 .4 1.7 1.5 1 1.9.8 2.1-2.1 2.1-2.8 0-3.1.2-2.5 2.5.6 2.2.3 2.6-2.3 3.1-3.7.8-7.1 4.2-5.3 5.3.7.4 2.2 2.4 3.2 4.4 2.7 5 2.5 17.3-.2 18-1.4.4-1.6 1-1 2.6.9 2.5 7 7.1 9.4 7.1 1 0 2.2.8 2.5 1.7.4 1 1 2 1.3 2.3.4.3 1 2.1 1.4 4.1.6 3.4.5 3.7-3.3 5.4-3.5 1.5-3.9 2-3 3.6.7 1.5.6 2.1-.6 2.5-1.8.7-1.9 1.4-.3 5.1 2 4.7 1.8 7.3-.7 11.4-2 3.1-2.3 4.3-1.5 6.4.6 1.5.8 3.1.5 3.6-.7 1-6 .1-9.7-1.8-1.6-.7-2.8-1-2.8-.6s-.9-.3-2-1.5c-1.2-1.2-2.4-2.2-2.8-2.2-1 0-4.4-5.7-4-6.7.4-1-6-2.5-10.1-2.4-1.8.1-3.9-.3-4.5-.8-1.8-1.4-6.6-1.9-6.6-.8 0 .7-.4.7-1.2-.1-.7-.7-2.1-1.2-3.3-1.2-3.2 0-7.6-2.3-7-3.7.2-.7-.1-2.7-.7-4.4-.8-2.5-.8-3.3.3-4 .8-.5.9-.9.3-.9-1.7 0-4.4 3.4-4.4 5.6 0 1.1.7 2.9 1.5 4 1.5 2 2 6.4.8 6.4-.5 0-.8 1.8-.7 4 0 2.5-.4 4.1-1.4 4.5-.9.3-1.2 1.3-.9 2.5.4 1.4 0 2-1.1 2-1.2.1-1 .5.8 1.4 3.2 1.9 4.3 1.1 3.7-2.8-.4-3-.4-3 1.1-.8.8 1.2 2.1 2.2 2.8 2.2 3.3 0 15.2 14.8 13.4 16.7-.5.4-.6 1.9-.3 3.3.5 3 6.1 6.6 7.6 5.1.7-.7 2.5.3 5.5 2.7 3.5 2.9 5.4 3.7 8.9 3.8 5.3.2 6.3 1.3 6.3 7 0 3.2.7 4.9 3.4 8 3.1 3.6 3.5 3.8 6.1 2.6 2.7-1.3 3-1.1 7.4 3.9 2.5 2.9 4.6 5.7 4.6 6.3 0 .6.2 1.1.5 1.2.3 0 1.5.6 2.8 1.3 1.4.7 2.2.8 2.2.1 0-.5-.4-1-1-1-.5 0-1-.5-1-1.1 0-.5.5-.7 1-.4 1.6 1 1.2-.7-.7-2.7-1.8-2-1.4-3.2.8-2.3 1.7.6 4.4 6.4 4.1 8.5-.2 1.5 5 5.7 6.5 5.3 1.3-.3 2.2-7.7 1.2-8.9-.7-.8-.1-1.4 1.6-1.8 1.6-.4 2.5-1.3 2.5-2.6s.7-2 2-2 1.8-.5 1.4-1.5c-.4-.8.1-1.7.9-2 .9-.4 1.4-1.9 1.3-4.3 0-2.4.8-4.8 2.3-6.9 2.4-3.2 2.4-3.3.7-7.6-1.8-4.8-1.4-11.8.9-13.7.7-.6 1.1-2 .8-3-.4-1.5 0-2 1.6-2 1.5 0 2.1-.6 2.1-2.3 0-1.2.4-2.9.9-3.6.6-.9.6-2.2-.1-3.4-.8-1.6-.5-2.4 1.5-4.1 1.5-1.3 2.7-3.6 3-5.8.3-2.1 1.5-4.7 2.6-5.9 1.7-1.8 1.8-2.5.8-4.3-.6-1.2-1.2-3.4-1.3-5-.1-1.7-1.1-3.6-2.5-4.7-2.1-1.6-2.2-1.8-.6-3.4 2.3-2.2 2.1-4.1-.4-5.9-1.2-.8-3-2.9-4.1-4.6-1.5-2.6-2.1-3-3.3-2-.8.7-1.5 1-1.6.6-.4-2.5-.1-6.4.4-7.3.4-.6 0-1.6-.8-2.3-.8-.7-1.7-2.7-2.1-4.6-.3-1.9-.9-3.4-1.3-3.4-.9 0-3.2-3.9-3.7-6.4-.2-1.1-2-3.4-3.9-5-2.1-1.7-3.2-3.2-2.6-3.6 1.4-.8-.8-7.1-3.1-8.8-1-.7-1.8-2-1.8-2.8 0-.8-.7-1.7-1.5-2-.8-.4-1.5-1.2-1.5-1.9s-.7-1.9-1.6-2.6c-2-1.6-1.1-10.5 1.3-13.2 1.7-1.8 1.5-3.3-1.8-11.5-1.2-2.8-1.2-3.4.1-4.2.8-.5 1.1-1 .6-1-.5 0-.3-.7.4-1.6.8-.8 1.5-2.7 1.6-4.1.2-1.4 1-3.4 2-4.4 1.1-1.2 1.4-2.7 1-4.5-.5-1.9-.2-3 1-3.8 1.4-1.1 1.5-1.6.4-3.6s-1-2.2.4-1.7c1.1.4 1.6.1 1.6-1 0-.9.9-2.6 2-3.8 1.5-1.6 2.1-3.9 2.5-9.4.2-4 0-8.3-.5-9.6-.8-2-1.4-2.3-4.9-1.8-3.4.5-4.7.1-7.6-2.1-4.1-3.1-7.4-8.8-5.6-9.4.8-.3.6-.9-.6-1.8-1.7-1.2-1.7-1.4 0-4.4 2.3-4.2 2.2-6-.4-6-1.1 0-1.7.4-1.4 1 .9 1.4-5.7 7.1-7.7 6.6-1-.2-2.1 0-2.4.5-1 1.7-3.4.9-4.6-1.6-1-2.2-1.5-2.4-5.6-1.8-2.9.4-4.3.3-3.9-.4.3-.5-.7-2.3-2.3-3.8-2.1-2-3-2.4-3-1.4zm30 191.9c0 .5 1.3 1 2.9 1 1.7 0 3.3.4 3.6 1 .3.5.1 1-.4 1-.6 0-1.1.9-1.1 2 0 2.4-2.3 1.7-6.2-1.9-3.3-3.1-3.5-4.1-.8-4.1 1.1 0 2 .4 2 1zm-4 5.1c0 .6-.4.7-1 .4-.5-.3-1-1.1-1-1.6 0-.6.5-.7 1-.4.6.3 1 1.1 1 1.6zm6.7 35.4c-.1 4.2-.9 4.4-2.8.7-.7-1.5-1.5-2.9-1.6-3.2-.2-.3.8-.7 2.1-.8 2.1-.1 2.4.2 2.3 3.3z"/><path d="M225.933 419.9c-.9 3.2-.9 3.2 2.8 4.1 2.3.5 2.7.3 2.7-1.4 0-1.1-.4-2-1-2-.5 0-1-.8-1-1.8 0-1.3-.2-1.4-.9-.3-.7 1.1-.9 1.1-1.4 0-.3-.8-.8-.3-1.2 1.4zM224.133 428.3c.4 1 .2 1.4-.4 1-.6-.4-1.3 0-1.7.8-.6 1.7.9 2.1 1.9.5.3-.6 1.7-.7 3.1-.4 3.2.8 3.1-1-.1-2.4-3.4-1.5-3.6-1.5-2.8.5zM315.433 505.3c0 1.1 1.2 2.6 2.6 3.3 2.1 1.2 2.5 2 2.2 4.7-.3 2.5 0 3.4 1.5 3.9 1 .3 2.1.3 2.4 0 .4-.3 0-.6-.7-.6-1 0-.9-.4.3-1.3 2.8-2 .9-6.5-4.1-9.4-4-2.4-4.2-2.4-4.2-.6zM321.733 519.3c-3.5.7-2.8 3.4 2.2 8.3 2.5 2.5 4.4 4.9 4.2 5.5-.3.5 0 1.9.5 3 .8 1.9.8 1.9.4-.2-.2-1.2.1-2.4.8-2.6.8-.3.7-.8-.2-1.9-.9-1.1-1-1.8-.2-2.3.5-.3 1-2.6 1-5.1 0-2.8-.4-4.3-1-3.9-.5.3-1 .1-1-.4 0-1.1-2.5-1.2-6.7-.4zM334.233 537.9c-1.8.7-2.8 1.8-2.8 3.2 0 1.2-.5 2.6-1.1 3.2-.8.8-.7 1.7.4 3.3 1 1.5 1.3 3.4 1 5.7-.3 1.9-.1 4.4.5 5.6 3.4 6.9 3.3 10.3-.9 18-.7 1.3-.7 2.3.1 3.2.9 1 .5 2.3-1.4 5.4-2.7 4.2-3.2 7.6-1.6 10.1.6 1 .4 2-.6 3.1-1.1 1.2-1.3 3.1-1 6.8.5 4.8.4 5.2-1.4 4.6-1.8-.6-1.9-.4-1 2 .5 1.4 1 3.9 1 5.5s.7 3 1.6 3.4c1.3.5 1.4.9.4 2-.9 1.2-.6 1.8 1.9 3 1.7.9 4.2 3.3 5.6 5.3 1.4 2.1 2.5 3.3 2.5 2.8.1-.6.7.1 1.5 1.5.7 1.4 1.7 2.4 2.2 2.2.4-.1.8.2.8.7 0 .5.3 1.3.8 1.7.4.4.7 2.6.7 4.9 0 3.6.6 4.9 4 8.3 3.9 3.8 5 6.2 3 6.2-.5 0-.7.6-.4 1.4.4 1 2.2 1.5 6 1.5 2.9 0 6.3.3 7.5.6 1.4.5 2.5.1 3.5-1.2 1.3-1.6 1.5-1.7 2.4-.2.5.9 2.2 2 3.7 2.4 2 .5 2.4.8 1.3 1.5-1.9 1.2.2 5.4 5 9.8 3.5 3.4 4.7 7.4 2.7 9.9-.5.7-.6 2.4-.3 3.8.5 2.1 1.1 2.4 3.1 1.9 1.5-.4 2.5-.2 2.5.5 0 .6.6 1.1 1.3 1.1.8 0 2 1.2 2.7 2.6 1 1.7 2 2.4 3.3 2 1.7-.4 1.9-.1 1.4 2.9-.5 2.9-.2 3.4 1.9 3.9 1.3.4 2.4 1.1 2.4 1.6 0 1.6 2.2 1.2 3.5-.6 1-1.5 1.5-1.1 3.8 2.9 1.4 2.6 3 7.8 3.7 11.8 1 6.9 1 7.3-1.2 9.6-2.2 2.4-2.2 2.5-.3 2.2 2.6-.4 6.5.9 8.7 2.9 1.2 1 2.2 1.2 3 .5.7-.5 4-.9 7.3-.8 7.5.3 7.2.2 7.8 1.9.4 1 .1 1.3-.9.9-.9-.3-1.4.2-1.4 1.5 0 1.1.7 2.3 1.6 2.6 1.7.6 3-.1 7-4.2 1.3-1.2 3.2-2.2 4.4-2.2 1.1 0 2-.5 2-1 0-.6.6-1 1.4-1 .8 0 1.6-.6 1.9-1.4.7-1.8 7.7-3.9 9.1-2.7.6.4 3.2 1.5 5.8 2.5 3.4 1.2 4.8 2.3 5 3.9.2 1.6.9 2.1 2.3 1.9 1.1-.2 2.8-.3 3.8-.3.9 0 1.7-.4 1.7-.9 0-.6.9-.6 2.3-.1 8.4 3.3 10.9 4.8 13.7 8.2 1.7 2.2 3.6 3.9 4.2 3.9.5 0 1.9 1.1 2.9 2.4 2.3 3 10.6 7.9 11.9 7.1.5-.3 2.1.1 3.4 1 1.4.9 3 1.4 3.6 1 1.5-.9 16.1 8.5 17.3 11.2 1.3 2.9 1.4 2.9 7.7-.3 4.3-2.1 6.2-2.5 10.3-2.1 4.6.4 5.3.2 7.2-2.1 2.5-3.2 3.6-7 2.3-7.8-.5-.3-.7-1.2-.4-1.9.3-.8-.2-1.9-1-2.5-2.2-1.9-1.7-3 1.4-3 2.3 0 2.7-.4 2.7-3 0-1.9-.6-3.2-1.6-3.5-1.5-.5-4.5-5.5-3.2-5.5 1.1 0 7.3 4.2 7.3 5 0 .4 1.2 1 2.7 1.3 2.6.5 2.6.4.8-.9-1-.8-2.3-1.4-2.7-1.4-.5 0-.8-2.3-.7-5 .2-3.1.7-5 1.4-5s3.1-1.4 5.3-3c2.3-1.7 4.5-3 5-3 .4 0 1.6-2.1 2.5-4.7 1.7-4.5 1.7-4.8.1-6-1.6-1.1-1.4-1.3 1.4-1.9 3.5-.7 4.1-1.8 1.6-2.8-.9-.4-2.5.1-3.4.9-1.6 1.4-1.8 1.4-2.4 0-.8-2.1-8.3-1.7-7.8.3.1.8-.3 1.2-1 .9-.7-.3-3-1.1-5-1.8-2.8-.9-3.8-1.8-4-3.8-.2-2-1.4-3.1-5.3-5-5.2-2.4-12.2-3.4-13.2-1.8-.3.5-.8.5-1.2.1-.3-.5-1.3-1.4-2.2-1.9-.9-.6-2.8-1.8-4.2-2.8-1.4-1-4.4-2-6.6-2.2-2.2-.1-5-1.1-6.4-2.1-1.3-1.1-4.1-2.8-6.3-3.9-4.2-2.1-5.5-3.5-4.8-4.6.2-.4-.4-.8-1.3-.8-1 .1-2.8-.2-3.9-.6-1.6-.5-2.3-.2-2.7 1.4-.3 1.3-1.3 2.1-2.5 2.1-1.1 0-2.2.6-2.4 1.2-.3.9-1.2.8-3.1-.5-1.4-.9-3.5-1.7-4.6-1.7-1.1 0-2.2-.9-2.6-1.9-.6-2-11-12.1-12.4-12.1-.4 0-1.4-1.5-2.3-3.3-1.7-3.6-10.7-11.6-9.5-8.4.4 1.1.2 1.7-.8 1.7-1.7 0-9.3-5-11.9-7.9-1.1-1.2-2.5-2.1-3.3-2.1-.7 0-1.3-.5-1.3-1 0-1.5-3.8-5-5.4-5-.7 0-1.9-.6-2.5-1.4-.7-.8-2.1-1.2-3.1-.9-2.5.7-5-1.3-5-3.8 0-2.2-.4-2.3-3-.9-1.5.8-2.4.6-4.1-1.1-2.4-2.4-7.6-4.1-10-3.4-.9.3-2.2-.1-2.9-1-.7-.8-2.2-1.5-3.4-1.5-1.7 0-2.9-1.4-5.2-6.1-1.6-3.4-2.8-7-2.6-8 .2-1-.6-2.4-1.7-3.1-1.2-.7-2.1-2.1-2.1-3 0-3.1-2.4-6.9-5.2-8.4-1.5-.8-2.8-2.1-2.8-2.9 0-.9-1-2-2.3-2.6-1.2-.6-3.2-2.3-4.2-4-1.1-1.6-2.4-2.9-3-2.9-.5 0-2.3-1.1-4-2.4-2.6-2.2-2.9-2.7-1.7-4.5 2.2-3.8.9-10.1-3.3-15.1-.7-.8-1.5-2.7-1.9-4.3-.4-1.5-2.2-4.5-4.1-6.6-1.9-2.1-3.5-4.3-3.5-4.9 0-.6-1.3-2.1-3-3.3-1.6-1.2-2.7-2.6-2.4-3 .2-.4-1-.5-2.9-.2-2.3.3-3.7 0-4.6-1.1-.8-1-2.9-1.6-5.2-1.6-3 0-4.2-.6-5.9-3-2.3-3.3-2.3-3.3-6.2-1.7zm231.9 225.3c-.3.3-1.2.4-1.9.1-.8-.3-.5-.6.6-.6 1.1-.1 1.7.2 1.3.5zM637.433 655.6c0 .5.5 1 1.1 1 .5 0 .7-.5.4-1-.3-.6-.8-1-1.1-1-.2 0-.4.4-.4 1zM604.033 658.6c-.2 1.4-.8 5.3-1.1 8.7-.7 7 .1 7.7 4.5 4.3 1.4-1.1 3-2 3.6-2 1.6 0 2.6-2.8 1.4-3.5-.6-.4-1.4-.4-1.9-.1-.5.3-1.1-.7-1.4-2.2-.3-1.6-1.5-3.9-2.6-5.3l-1.9-2.4-.6 2.5zM623.433 659.4c0 2.2-2.4 3-3.5 1.2-.3-.6-1.7-1-3-1-2.9 0-2.5 1.9 1.4 6.2 3.3 3.8 5.5 3.5 7.5-.7 1.5-3.1 2.1-3.4 4.4-2.9 1.9.4 2.3.3 1.3-.4-1.1-.8-1-1.2.5-2.1 2.5-1.4-.1-1.4-2.7 0-1.6.8-2.5.7-4-.7-1.8-1.6-1.9-1.6-1.9.4z"/><path d="M552.833 675.8c.2 4 2.4 6.8 5.2 6.8.7 0 1.5 2 1.8 4.7 1 7.7 1.2 8.8 2 10.1.4.7.2 1.2-.4 1.2-.6 0 .3 1.6 2.1 3.5 1.9 1.9 3.9 3.5 4.5 3.5.7 0 1.4.4 1.6.9.2.5 2.6.4 5.6-.2 4.7-1 5.2-1.4 5.2-3.7 0-2.3.3-2.6 3.3-2.3 4.5.5 6.6-1 5-3.7-2.3-3.5-1.6-4.3 2.8-3.6 3.7.6 4 .5 3.4-1.4-.4-1.1-.2-2 .4-2 1.3 0 5.5 4 4.4 4.1-.5 0 .3.5 1.6 1 3.1 1.2 3.5.7 3.4-3.9-.1-2 .5-4.4 1.2-5.2 1.2-1.3 1-2.3-1.5-6.5-1.6-2.8-3-4.4-3-3.6 0 .8-.6 1.1-1.6.7-.9-.3-2.1-.3-2.7.1-1.2.8-3.8 1.1-13.8 1.6-2.5.1-5.4.8-6.3 1.6-1.4 1.2-2.3 1.2-5 .3-1.9-.7-4-1-4.8-.7-.8.3-2.8-.5-4.4-1.8-1.6-1.4-4.6-3.2-6.5-4l-3.7-1.5.2 4zM589.733 731.7c-1.4 1.4-.6 3.9 1.2 3.9.7 0 1.6.7 1.9 1.6.4.9.9 1.4 1.3 1 .3-.3 1.7.1 2.9.9 2.3 1.5 2.3 1.5 1.4-1-2.4-6.3-6.1-9-8.7-6.4zM600.933 745.2c.4 1 1.3 3.5 2 5.4.7 1.9 1.7 3.4 2.2 3.4 1.3-.2 5.3 1.8 5.3 2.7 0 1.9-1.4 3.9-2.7 3.9-1.1 0-1.4.7-1 2.2.3 1.3.9 3.6 1.3 5.2l.7 2.8-2.7-1.7c-2.1-1.4-2.5-1.5-2.1-.3.7 1.8-2 4.8-4.2 4.8-.8 0-1.3.6-1 1.2.2.7 1.1 1.2 1.9 1 2.5-.4 4 2.2 2.5 4.2-.9 1.3-2.8 1.8-6.8 1.9-5.7.2-8.4 1.8-4.6 2.8 1.3.3 2.1 1.3 2.1 2.2-.2 1.6.9 2 5.1 2 3.4-.1 3.5-.2 3.5-3.2 0-2.5.4-2.9 3.2-3.3 3.4-.5 8.8 1.1 8.8 2.6 0 1.3 6.5 10.8 8.9 13 1.9 1.8 2.6 1.8 5.6.7 2-.7 4.5-.9 5.8-.5 3.6 1.2 8.5.8 10.3-.7.9-.7 2.6-1.3 3.7-1.4 1.4 0 2.3-.7 2.5-2 .7-4.2 1.1-4.6 3.2-3.5 1.1.6 2 1.7 2 2.5 0 2 1.3 1.9 5.7-.5 2.1-1.1 3.2-2 2.6-2-.7 0-1-.7-.7-1.5.4-.8-.1-1.7-.9-2.1-1.9-.7-1.9-6.1 0-6.8 1.5-.6 1.8-3.6.3-3.6-.6 0-1.3.7-1.6 1.5-.5 1.2-1 1.3-2 .4-1.7-1.4-1.9-3.9-.3-3.9.6 0 .8-.9.4-2-.4-1.3-.1-2.2.9-2.6.9-.3 1.6-1.5 1.6-2.5s.5-1.9 1-1.9c.6 0 1-1.3 1-2.9 0-2 .6-3 2-3.4 2.4-.6 2.6-2.2.5-3.1-.9-.3-2.9.8-5 2.9-4 4.1-4.6 4.2-7 1.5l-1.8-2-2.2 2c-1.2 1.1-2.8 2-3.6 2-.8 0-2 .5-2.7 1.2-.9.9-1.8.9-3.7 0-1.4-.7-4.4-.9-6.9-.6-3.4.5-4.9.3-6.1-1-1.8-1.8-4.5-2.2-4.5-.6 0 .5-1.1 1-2.4 1-1.3 0-2.6.5-2.8 1.2-.3.8-1.5.5-3.6-1.1-2.7-1.9-3.2-2.9-3.3-6.4 0-3.9-.4-4.5-5.6-8.6-3.8-3-5.4-3.8-4.8-2.5zm59 37.1c.3 1-.3 1.2-2.3.7-3.4-.9-3.6-1-2.8-2.9.5-1.3.9-1.3 2.6-.3 1.1.7 2.2 1.8 2.5 2.5zM591.433 751.1c-.7.9-2.1 1.3-3.1 1-1.1-.4-1.9-.2-1.9.5 0 .6-.4.8-1 .5-.5-.3-1-.2-1 .3 0 1.4 2.6 2.2 6.6 2.2 3.1 0 3.9-.8 3.5-3.3 0-.4.4-.7 1-.7.5 0 .7-.5.4-1-.9-1.5-3.1-1.2-4.5.5zM555.433 772.1c0 1.4-1.3 2.5-4.3 3.7-2.3 1-4.8 1.8-5.5 1.8-.6 0-1.2.9-1.2 2s-.7 2-1.5 2c-.9 0-1.2.6-.8 1.6.5 1.3.2 1.5-1.5.9-1.9-.5-2.2-.2-2.2 1.9 0 1.7-1 3.1-3.6 4.6-2.5 1.6-3.3 2.7-2.8 3.9 1.9 4.3 1.7 7.4-.6 9.1-2.1 1.6-2.2 1.8-.6 4.8.9 1.7 1.6 4 1.6 5.2 0 1.6.6 2 3 2s3-.4 3-2c0-3.2 4.9-7 8.1-6.3 2.1.4 2.8 0 3.3-1.5.4-1.1 1.6-2.2 2.6-2.5 1.4-.3 2-1.4 2-3.2 0-1.8.6-2.9 2-3.2 2.2-.6 5.4-4.9 4.5-6.3-.9-1.4 4-4.1 6-3.4 1.6.7 1.7.3 1.2-2.9-.4-2.5-.1-3.9.9-4.8.8-.6 1.4-1.8 1.4-2.6 0-1.3.3-1.3 1.5-.3 1.1.9 1.4 2.3 1 4.4-1.6 8.4-1.3 9.6 1.7 7 1.6-1.5 2.2-1.6 3.9-.5 1.6.9 2.4.9 3.5 0 2.2-1.8 1.7-4.8-1.1-6.1-1.7-.7-2.2-1.5-1.5-2.2 1.3-1.6 0-3.2-3.2-4-1.6-.3-2.8-1.2-2.8-2 0-1.8-7.3-3.6-13.2-3.3-4 .2-4.8.5-4.8 2.2zm12.5 4.6c.4.6.5 1.2.2 1.5-.7.7-3.7-.7-3.7-1.7 0-1.3 2.7-1.1 3.5.2z"/><path d="M649.633 798.9c-.7.7-2.8 1.4-4.7 1.5-1.9.1-4.5.8-5.8 1.7-1.4.8-3.2 1.3-4.1.9-1.2-.5-1.5-.2-1 1 .7 1.9 0 2-2.7.6-1.3-.7-1.9-.7-1.9 0 0 .5-1.1 1-2.4 1-1.4 0-2.8.5-3.1 1-1.1 1.8-2.7-.1-2.1-2.5.7-2.6.4-2.9-3.5-3.9-2.2-.5-2.8-.2-3.2 1.5-.5 1.8-1.1 2-3.3 1.5-2.5-.7-2.6-.5-2 1.9.5 1.8.1 3.5-1.3 5.3-2.4 3.5-3 7.5-1.2 9.6.9 1 1.1 2.6.6 4.3-.4 1.6-.9 5.2-1.2 8-.4 4.2-.8 5.3-2.3 5.3-2.2 0-6.1 11.2-5.3 15.2.7 3.5 3.4 4.5 5.1 2 1.1-1.7 1.9-1.9 4.4-1.1 3.5.9 6.8-.3 6.8-2.6 0-.9.9-1.5 2.1-1.5 1.2 0 2.3-.8 2.6-1.8.2-1 1.7-2.3 3.3-2.9 2.3-.9 2.8-1.5 2.3-3.4-.3-1.3-1.1-3-1.7-3.8-.9-1.1-.7-1.3 1.2-.7 1.3.4 3.9 1 5.9 1.2 2 .3 3.9.7 4.3.9.4.3 1.1-1.1 1.4-3 .7-3.3.9-3.5 4.6-3.5 2.3 0 4-.5 4-1.1 0-.7.9-.9 2.4-.5 2.1.5 2.3.3 1.8-2.2l-.5-2.7 2.4 2.1c1.3 1.2 4.1 2.4 6.1 2.7 3.1.5 4 .2 4.8-1.4.6-1 .7-1.9.3-2-.4 0 .2-.4 1.4-.9 1.6-.7 2.1-1.4 1.6-2.7-1-2.9-2.5-4.4-3.9-3.9-.6.2-2.1-.4-3.2-1.5-2.7-2.5-3.5-2.4-2.7.2 1.4 4.2-1.8 1.4-4.6-4.2-3.1-6-3.6-8.9-1.5-8.9 1.6 0 2.8-4.9 1.7-6.8-.6-1.1-1-1.1-1.9.1zM598.533 861.2c0 1.1.3 1.4.6.6.3-.7.2-1.6-.1-1.9-.3-.4-.6.2-.5 1.3zM595.433 863.6c0 1.9.3 2.1 1.2 1.2.9-.9.9-1.5 0-2.4-.9-.9-1.2-.7-1.2 1.2zM575.633 870.1c-.9 2-1.9 2.5-4.8 2.5-3 0-3.5.3-3 1.7.4.9.1 2-.5 2.4-1.5.9 4.1 3.9 7.4 3.9 1.4 0 2.8-.7 3.1-1.6.3-.9 1.3-1.4 2.1-1 .8.3 1.7 0 2.1-.5.4-.6 1.4.1 2.5 1.7 1 1.5 1.6 3.1 1.3 3.6-.3.4 0 .8.5.8.6 0 1.1-1.1 1.1-2.5s.4-2.5.9-2.5c1.1 0 5.1-6.6 5.1-8.6 0-1.8-.3-1.8-5.2.6-2.3 1.1-4.4 1.7-4.7 1.2-.6-.8-5.8-4.2-6.4-4.2-.2 0-.9 1.1-1.5 2.5zM561.433 871.1c0 .8-.7 1.8-1.5 2.1-1.1.5-1.3 1-.5 1.9.5.6.7 1.5.3 1.8-.3.4.1.7 1 .7 1 0 1.7-.7 1.7-1.6 0-.8.5-1.2 1.1-.8.8.5.8.1 0-1.3-.6-1.1-.8-2.3-.5-2.6.3-.3.1-.8-.5-1.2-.6-.3-1.1.1-1.1 1zM581.133 885c-1 .8-1.4 1.6-1 1.9.5.3 1.4-.3 2.1-1.4 1.4-2.2 1.3-2.3-1.1-.5zM575.233 885.3c-1 .2-1.8 1.1-1.8 2 0 1.2.3 1.3 1.5.3.8-.6 1.9-.9 2.4-.5.7.3.8 0 .5-.9-.3-.9-.7-1.5-.8-1.5 0 .1-.9.3-1.8.6zM576.433 891.6c0 1.1-.4 2-1 2-1.3 0-1.3 3.3 0 4.6.6.6.5 2.2-.3 4.4-1.8 5.1-2.5 5.9-4.7 5.3-2.3-.6-2.5 0-1 2.8 1.1 1.9 4.5 2.5 6.6 1.1.6-.4 1.5-1.8 1.9-3.2.4-1.4 1.3-2.9 2-3.5 1.9-1.6 2.4-5.3.9-6.6-1.5-1.2-2-3.4-.5-2.5 1.7 1.1 1.9-3.3.2-4.8-2.4-2.2-4.1-2-4.1.4zM580.933 916.6c.3.5.8 1 1.1 1 .2 0 .4-.5.4-1 0-.6-.5-1-1.1-1-.5 0-.7.4-.4 1z"/></g></svg>