<svg version="1" xmlns="http://www.w3.org/2000/svg" width="619.958" height="1108.23" viewBox="0 0 464.968 831.173"><g fill="#222"><path d="M244.485.741c-1.1.5-2.6.6-3.3.4-.7-.3-1.8 1-2.7 3-.8 2-2.4 3.8-3.5 4.2-1.5.5-1.9 1.2-1.5 2.6.4 1 .2 1.9-.4 1.9-.6 0-1.7 1.2-2.4 2.7-1.3 2.3-1.2 3.1.4 6.7 1.2 2.7 1.5 4.5.8 5.7-.5 1-.9 3.5-.9 5.7 0 3.1-.5 4.3-2.5 5.6-1.8 1.2-2.5 2.5-2.5 4.7 0 2.3-.7 3.4-2.9 4.7-1.8 1-3.2 2.8-3.5 4.4-.3 1.6-1.2 2.8-2.1 2.8-.8 0-1.5.8-1.5 1.7 0 .9-.9 2.7-2.1 3.9-1.6 1.7-1.8 2.6-1.1 4.1.7 1.3.7 3.2-.1 6.2-1 3.7-1.5 4.2-3.5 3.8-2.1-.4-2.3-.2-1.7 2.1.5 2 .1 3-1.6 4.3-1.3 1-3.2 4.5-4.4 8.4-2.2 6.6-2.7 7.3-9.5 10.7-1.4.7-2.7 1.5-3 1.9-.3.3-1.3.9-2.3 1.2-1.1.4-2.1 1.6-2.4 2.7-.3 1-1.6 2.3-3 2.7-2 .7-2.7 1.7-3 4.3-.4 4.4-2.6 6.8-4.6 5.1-1.2-.9-1.6-.8-2.1.4-.4 1.3-1 1.4-2.6.5-2.9-1.6-6.8-.2-8.8 3.2-1.3 2.2-2.2 2.8-3.9 2.3-1.8-.4-2.3-.1-2.3 1.5 0 2.6-2.7 8-4 8-.6 0-1 .7-1 1.5 0 1.7-6.5 2.2-7.5.5-.3-.6-1.8-1-3.3-1-2.1 0-3.1.8-4.4 3.9-1 2-1.8 4.2-1.8 4.8 0 .6-.4 1.3-1 1.5-.5.2-.6 1.7-.1 4 .8 3.3.7 3.7-1.3 4-1.4.2-2.2 1.1-2.4 2.8-.4 2.4-1.3 3.7-7.7 10.2-1.8 1.9-2.9 3.9-2.7 5.2.4 3.2-7.3 9.3-13.9 10.9-1.9.5-2.7 1.6-3.5 4.9-1.4 5.3-1.1 13.2.5 15.2.9 1 .9 1.6.1 2.1-.7.4-.9 2-.6 3.9.4 2 .1 3.9-.9 5.3-.8 1.2-1.2 2.9-.9 3.8.4 1 .1 2.1-.7 2.6-.8.4-1.4 1.2-1.5 1.6-.3 2.5-1.9 4.3-3.9 4.3-1.5 0-2.5.7-2.8 2.2-.7 2.5-7.1 9.8-8.7 9.8-.5 0-1.2 1.1-1.6 2.5-.5 2.1-1.2 2.5-4 2.5-2.2 0-3.4.5-3.4 1.3 0 1.1-1.1 1.2-4.7.6-4.1-.6-5-.5-6.2 1.2-.7 1-2 1.9-2.9 1.9-3.2 0-8.2 2.5-8.8 4.3-.3 1.1-2.3 3.8-4.4 6.1-3.7 4-3.8 4.2-2.8 8.6 1.3 5.8 1.3 9-.1 17-1.8 10.1-1.2 14.9 2.5 19.3 1.7 2.1 2.1 3.3 1.5 4.5-1.2 2.2-1 9.2.2 9.2 1.6 0-.3 9.4-2.3 11-1 .8-2.1 3.5-2.4 6.1-.9 6.3-4 14-6.1 15.1-.9.6-3 .7-4.6.4l-2.9-.6 1.5 3c.8 1.6 1.5 4.1 1.5 5.5 0 1.6 1 3.5 2.3 4.6 1.5 1.3 1.8 2.1 1.1 2.6-.6.5-1.5 2.7-1.8 5-.4 2.2-1.3 4.9-2.1 5.9-.9 1.3-1 2.6-.4 4.3 1.4 3.4-.7 9-3.5 9.7-2.1.5-2.2.9-1.6 4.4.6 3.2.4 4.3-1.1 5.6-1.1 1-1.9 2.5-1.9 3.4 0 .9-.5 2.1-1.1 2.7-1 1 .4 8.8 2.3 12.6.8 1.5.5 2-1.1 2.4-1.6.4-2.1 1.3-2.1 3.7 0 4.6-3.9 15.4-6.1 16.9-2.5 1.8-3.8 7.7-1.6 7.7.8 0 2 .6 2.6 1.4 1 1.1.9 1.5-.4 1.8-1.5.3-1.5.6.3 2.8 2 2.5 2 2.6.1 4.9-1 1.3-1.9 3.2-1.9 4.2 0 1.2-.5 1.6-1.5 1.3-1.1-.5-1.2 0-.5 2.6 1.5 5.2-4 16-8.2 16-1 0-1.8.3-1.8.7.1 2.5 3.7 4.4 9.3 4.8 3.4.3 3.1-.1 6.1 6.5 2.3 5 2.4 5.6 1 6.7-1.5 1.1-1.5 1.4-.1 3.4 1.3 1.8 1.4 2.4.2 3.5-.7.8-2.1 1.1-2.9.8-1.4-.5-1.4-.3-.1 2.2.9 1.9 1.1 3.2.5 3.8-1.5 1.5-1.2 7.9.4 10.2.8 1.1 1.7 4.6 1.9 7.7.2 3.2.7 6 1.1 6.4.3.4-.3 1.7-1.5 2.9-2.1 2.2-2.3 6.5-.4 7 1.1.3 5.5-6 5.5-7.8 0-.6.9-.8 2-.5 1.5.4 2.5-.3 3.7-2.4 1.2-2 2.5-2.9 4.3-2.9 1.4 0 3.3-.9 4.3-2.1 1.1-1.3 2.5-1.8 3.6-1.4 2.2.7 9.3-2.4 8.5-3.7-.6-.9 4.3-5.5 6.9-6.3.9-.4 1.7-1.3 1.7-2 0-1 1.2-1.3 4.1-1.2 2.9.1 4.5-.4 5.4-1.6 1.7-2.3 3.4-2.2 2.8.2-.4 1.5.1 2 1.9 2.3 1.7.2 2.3 1 2.4 3.1.1 3.4 1.1 4.4 4.4 4.9 2 .2 2.5.9 2.5 3-.1 1.6.4 2.8 1.1 2.8.9 0 3.4 4.1 3.4 5.7 0 .3-.9.3-1.9 0-2.1-.5-4.8 3.3-3.7 5.2.4.6.1 1.1-.6 1.1-1.9 0-6.1 4.7-5.3 6 .3.6 0 .7-.9.4-2-.8-2-.1 0 3.8.9 1.7 1.4 3.8 1.1 4.8-.2 1-.1 2.4.4 3.1.5.8.2 2-.6 2.9-.8.9-1.6 4.1-1.7 7.3-.1 3.1-.6 5.7-1.1 5.7-.5 0-.7.7-.3 1.5.3.9 0 1.5-1 1.5-1.1 0-1.3.6-.9 1.9.4 1.3-.1 2.4-1.6 3.5-1.3.9-2.1 1.7-1.8 1.8 3.1 2 5.1 2.8 5.8 2.3 1.1-.6 6.9 5.9 8.2 9.3.6 1.6.6 3.6-.1 5.6-1.7 5.2-1.4 11.8 1 18.6 1.5 4.5 2.1 8.1 1.8 12.4-.3 5.3 0 6.2 2.5 8.9 1.5 1.7 4.2 3.8 6 4.7 1.7 1 3.2 2.4 3.2 3.3 0 .9.9 2.2 1.9 3 1.9 1.4 1.9 1.5-.3 2.6-1.3.8-2 1.8-1.7 2.7.3.8.1 1.4-.4 1.4-1.6 0-1.2 2.6 1 6.9 1.2 2.1 2.4 6.2 2.9 8.9.5 3 1.9 6.6 3.4 8.6 1.5 1.9 2.7 4.4 2.7 5.5 0 1.2.5 2.1 1 2.1.6 0 1 1.1 1 2.4 0 5.6 2.3 8.7 15.3 20.2 5.1 4.6 7 7 7.7 9.7.5 2.6.4 3.9-.5 4.7-.9.8-1.5.8-2 0-.4-.6-1.3-.2-2.5 1.2-1.5 1.9-2.1 2.1-4.1 1.1-2.4-1-4.9.2-4.9 2.5 0 1.7-2.5 3-4.4 2.2-3.6-1.3-6.7.1-8.2 3.6-1.6 3.9-2 4-4.6 1.7-1.8-1.6-1.8-1.6-1.2.3.4 1 1.2 2.2 1.8 2.6.6.4-.1 1.1-1.7 1.7-1.5.6-2.7 1.8-2.7 2.7 0 1.4-.2 1.5-1.7.3-1.5-1.3-1.5-1.2 0 1.8 2.1 4 2.1 4.3-.3 4.3-1.4 0-1.8.5-1.3 1.7.3 1 1.1 2.2 1.8 2.8.6.5 1.4 1.8 1.8 2.8.5 1.4 1.3 1.7 4.2 1.1 3.1-.5 3.6-.3 4.5 2 .5 1.4 1.6 2.6 2.4 2.6 2.3 0 7.1 5 6.8 6.9-.4 2.6 2.3 4.4 6.8 4.6 5.1.3 8.7 2.7 9.5 6.4.4 2.1 1.9 3.7 5 5.5 3.9 2.3 8.5 8.6 8.5 11.7 0 .6.9 2.2 2 3.6 2.2 2.8 2.7 4.8.9 3.8-.6-.4-.5.3.3 1.5.7 1.2 2.8 2.8 4.5 3.5 2.2.9 3.1 1.9 2.7 2.8-.6 1.5 2.2 3.1 3.7 2.1.6-.3 1.6 0 2.4.6.8.6 1.9.9 2.5.5.6-.4 2.3.4 3.8 1.6 1.4 1.3 2 1.6 1.3.7-.7-1-1.1-3.3-.9-5.2.4-3.3.2-3.5-5.4-6.1-6.8-3.2-8-5.4-4.8-9.8 2.2-2.9 2.2-3.1.5-4.3-2.4-1.7-2.9-6.9-.9-8.9 1.6-1.5 1.6-2 .1-10.9-.2-1-1.1-2.3-2.1-2.8-1.3-.7-1.6-1.7-1.1-3.8.4-1.9.1-3.7-1-5.3-1.2-1.9-1.4-4.1-.9-11.3.7-10.5.7-11.8-.2-16.6-.7-4.1-1.9-4.9-8.2-5.3-2.4-.2-5.2-1.1-6.1-1.9-2.2-2-4.1-2-4.1 0 0 .8-.4 1.2-1 .9-1.6-1-1.2-3.5.6-3.5.8 0 1.2-.4.9-1-.3-.6-.1-1 .5-1s.9-.4.5-.9c-.3-.6.3-1.4 1.2-2 1-.6 1.4-1.1.9-1.1-.5 0 .3-.9 1.8-2.1 1.5-1.1 3.3-1.9 4-1.6 1 .4 1.3-.4 1.1-3.1-.1-2-.5-4.4-.9-5.3-.5-1.1-.1-1.9 1-2.3 1.4-.5 1.4-.9.3-2.3-1.2-1.4-1.1-1.5.8-.9 1.7.5 2.5.1 3.5-1.8.7-1.4 1.8-2.6 2.3-2.8.6-.2.9-1.3.7-2.4-.2-1.8.6-2.5 4-3.5 3.6-1.2 4.4-1.9 4.8-4.4.4-2.5 1-3.1 3.6-3.3 2.4-.2 3.4-1.1 4.7-3.8 1-1.9 1.7-5.1 1.7-7.1v-3.5l5.5.4c3.9.3 5.9.1 6.6-.9.6-.7 2-1.3 2.9-1.3 1.3 0 2.1-1 2.5-3.3.4-1.7 1.2-3.8 1.7-4.4.6-.7.8-2.2.5-3.4-.3-1.1 0-2.2.6-2.5.7-.2 1.3-2.8 1.5-5.6.2-2.9.8-5.6 1.5-6 .7-.4.8-.8.2-.8-.5 0-.2-.5.8-1.1.9-.5 1.7-1.5 1.7-2.1 0-.6.8-2 1.7-3 1.4-1.6 1.5-2.5.5-6.6-.6-2.6-1.4-5.5-1.8-6.5-.5-1.5-.3-1.8 1.2-1.6 1.1.2 3.5-.9 5.5-2.4s4.8-2.7 6.2-2.7c2.4 0 2.7-.4 2.7-3.5s.3-3.5 2.5-3.5c3.2 0 9.8-4.3 11.5-7.5.8-1.5 2.2-2.5 3.5-2.5 1.8 0 2.3-.8 3.1-4.7.8-3.9 1.3-4.8 3.7-5.4 3.6-1 5.7-2.7 5.7-4.7 0-.9 1.2-2.6 2.6-3.7 2.1-1.7 2.8-3.2 3.1-7.2.4-3.3 1.1-5.4 2-5.7 2-.8 3.3.2 3.3 2.5 0 1.1.7 3.3 1.5 5 .9 1.6 1.4 3.3 1.1 3.8-.3.4.6 1.8 1.9 3.1 2 1.8 2.2 2.6 1.3 3.7-.9 1.1-.9 1.7.3 2.4.8.5 2 .9 2.7.9 1.2 0 7.4 4.4 11 7.8.9.8 1.8.9 2.6.3 1.4-1.2 12.1-1.3 15.2-.1 1.3.5 2.6 2.1 3 3.5.3 1.4 1 2.5 1.5 2.5s.9 1.1.9 2.5-.4 2.5-1 2.5c-.5 0-1 .4-1 1 0 .5.5 1 1.1 1 .7 0 2.2 1.1 3.5 2.5 2.6 2.8 4.7 3.3 3.8 1-.4-.9 0-1.5.7-1.5.8 0 .2-1.1-1.4-2.5-1.5-1.4-2.3-2.5-1.7-2.5 1.3 0 .3-4.3-1.1-4.8-.5-.2-.9-1.4-.9-2.7 0-1.3-1.2-3.4-2.9-4.7-2.1-1.8-2.8-3.2-2.6-5.1.5-4.7-.9-8.2-3.3-8.1-1.5 0-2.1-.5-2-1.5.4-2.2-6.3-3.5-7.9-1.5-1.7 2.3-5.5 0-5.1-3.1.2-1.4-.9-3.8-2.9-6.3-2.6-3.2-3.1-4.6-2.7-7.3.4-2.7 0-4-2.1-6.2-1.9-2-2.4-3.3-2-4.8.5-1.4.3-1.9-.4-1.5-.7.5-.9.1-.5-.8.3-.9 1.1-1.3 1.6-.9 1.1.6.8-1.4-.7-6.5-.6-1.8-.4-2.1.9-1.6.9.3 2.3 0 3.2-.7 1.4-1.1 1.8-1.1 2.9.4.7.9 2 1.7 2.9 1.7.9 0 1.6.8 1.6 1.7.1 4.1 1.5 4.4 5.3 1 3.5-3.1 3.6-3.3 1.7-4.5-1.1-.6-2.9-1.2-4-1.2-1.3 0-2.4-1-3.1-2.7-.9-2.3-.6-3 2.1-5.5 3.3-3 3.2-4.8-.3-4.8-3.5-.1-7.4-4.2-7.5-7.8 0-2.5.4-3.2 1.8-3.2 2 0 8-8.3 8-11.2 0-1-.9-2.3-2-3-2.6-1.6-2.6-5.8-.1-6.5 2.4-.6 3.5-8.3 1.4-9.6-.7-.5-1.1-1.2-.8-1.7.8-1.3 9.4-7 10.5-7 .6 0 2.2-1.8 3.6-4s3.5-4.2 4.6-4.6c1.6-.5 1.9-1.2 1.4-3.9-.6-3-.4-3.4 2.1-4 3.4-.7 5.3-2.2 7.1-5.4.9-1.6 1-2.6.3-3-.6-.4-.7-1.2-.1-2.1.6-.8 1-2.9 1-4.7 0-1.8.7-3.7 1.8-4.5 4.3-3.3 4.1-5-.7-9.4-4.5-4.1-4.5-4.3-2.8-6.2 1.2-1.3 1.9-3.9 2.1-8.1.2-3.3.8-6.6 1.3-7.3 1.4-1.7 2.8-8.6 2.4-12-.2-2.2.1-2.7 1.3-2.2 1.4.5 1.5-.1 1-4-.4-2.9-.2-5.1.5-6 .6-.7.9-2 .5-2.9-.3-.8 0-1.8.5-2.2.6-.3.8-1.1.5-1.7-.4-.6.4-1.9 1.7-2.9l2.4-1.8-2.3-3.1c-3-3.9-3.8-10.2-1.7-12.3.8-.9 1.5-2.2 1.5-2.9 0-.8.5-1.9 1.1-2.5.8-.8.5-2-1.4-4.5-4-5.3-4-8.8.2-8.8 3.7 0 4.7-1.5 4.5-6.8-.1-3.2.4-4.5 1.8-5.3 1-.5 1.8-1.6 1.8-2.4 0-.9 1-1.5 2.4-1.5 1.9 0 2.5-.7 3.2-3.8.4-2 .7-4.4.6-5.2-.1-.8.2-2.2.8-3 .8-1.2 1.3-1.3 3-.3 3.2 2 6.6 1.6 8.3-1.1 1.4-2 1.4-2.6.3-3.5-2.1-1.7-1.9-8.9.2-9.4 1.4-.3 1.2-.6-.8-1.5l-2.5-1.1h2.4c2-.1 2.3-.5 1.9-3.1-.3-2.2 0-3.1 1.4-3.6 1.8-.5 2.2-1.9 1.8-6.3-.1-1.9.2-2.2 1.6-1.7 1 .4 2.1.1 2.5-.6 1.2-1.8 3.7.7 5 5.2 1 3.2 1.5 3.7 4 3.6 3.1-.1 3.6-1.4 1.8-4.7-.7-1.5-.7-2.4.2-3.5.8-1 .8-1.4 0-1.4-.6 0-1.1-.6-1.1-1.4 0-.8-.7-2.2-1.5-3-1.2-1.2-1.3-2-.5-3.5 1.5-3-2.6-4.1-4.6-1.2-1.2 1.7-1.9 1.9-3.5 1.1-2.5-1.4-2.5-3 .1-2.3 1.9.5 2.1.1 1.9-3.3-.1-2.2-.7-4.5-1.3-5.2-1.2-1.6.8-3.2 4.1-3.2 1.2 0 2.5-.5 2.9-1.1.3-.6 1.5-.9 2.5-.6 1.1.3 1.9 0 1.9-.5 0-.6.6-.6 1.4.1 1.1.9 2 .9 3.5.2 1.1-.6 2.9-1.1 4-1.1 1.2 0 2.1-.7 2.1-1.5 0-.9.9-1.5 2.3-1.5s2.6-1 3.5-2.7c1-2.3.9-3.3-.7-6.6l-2-3.9 2.4-2.4c1.3-1.3 2.5-3.4 2.7-4.6.2-1.5 1.1-2.4 2.6-2.6 1.2-.2 2.2-.9 2.2-1.7 0-2.5 3.5-7.5 5.3-7.5.9 0 1.7-.5 1.7-1.1 0-.6.9-.8 2-.4 2.4.8 7-1.8 7-4 0-.7.9-1.6 1.9-2 3.8-1.2 7.1-4.7 8.1-8.6.8-2.8 1.6-3.9 3-3.9 2.1 0 2.7-1.5 1-2.5-.5-.3-1-2-1-3.6s-.6-3.2-1.4-3.5c-2.2-.9-2.9-5.4-1.1-7.3.8-1 1.2-2.1.9-2.4-.4-.4-.1-1.3.5-2.1.9-1.1 1-2 .1-3.5-.9-1.8-.7-2.5 1.6-4.5 2.5-2.1 2.8-3.2 3.3-10.2.6-7.8.6-7.9 3.4-7.9 1.5.1 2.7-.4 2.7-1 .1-.5.7.1 1.4 1.4.7 1.3 1.1 3.2.8 4.3-.8 3.1 2.5 2.1 3.6-1.2.6-1.6 2.2-3.5 3.6-4.1 1.4-.7 2.3-1.6 2-2-.3-.5 0-.9.6-.9s.9-.4.6-.9c-.7-1 2.7-2.1 6.6-2.1 2.1 0 2.9-.7 3.9-3.5.7-1.9 1.9-3.5 2.7-3.5.9 0 1.3-.7.9-2-.3-1.1.1-2.7.9-3.4.8-.8 1.4-1.9 1.4-2.5 0-.6.7-1.1 1.5-1.1 2.7 0 4.9-7.9 3.1-10.9-.7-1-.4-1.1 1.2-.2 3.3 1.7 3.8 1.3 3.4-2.4-.3-2.3 0-3.5.8-3.5 1.5 0 .9-9.2-1-13.6-.8-1.9-1-3.9-.5-5 .4-1 .7-2.6.6-3.6-.1-.9.3-1.9.9-2.3 1.7-1.1 1.1-3.2-1.1-3.8-1.9-.5-2.1-1.1-1.7-4.4.5-3.2.1-4.1-1.7-5.5-1.5-1.2-2.5-1.4-2.7-.7-.3.8-2 .3-4.8-1.2-3.9-2-4.2-2.4-2.2-2.7 1.2-.2 2.2-.8 2.2-1.3s1.1-2.6 2.4-4.7c1.9-2.9 2.4-4.8 2.1-8.8-.3-5.4-2.8-10.4-5.1-10.4-.8 0-1.4-.6-1.4-1.3-.1-.8-.4-.7-1.3.3-1.8 2.2-11.9 2-14.4-.3-2-1.8-4.8-2.4-3.9-.8.3.5-.3 1.1-1.5 1.4-1.3.3-1.9 1.2-1.7 2.4.2 1-.3 1.8-.9 1.7-.7-.1-2.2-.2-3.2-.3-1.3-.1-1.8-.7-1.5-1.9.3-1-.7-3.1-2.3-4.9-1.5-1.7-3.3-3.9-3.8-4.9-.9-1.4-1.4-1.5-3.4-.5-1.3.7-3.3 1-4.6.7-1.9-.5-2.2-.3-1.8 1.3.3 1-.3 3.3-1.2 5-.8 1.7-1.4 3.5-1.1 3.9.3.5-.4 1.5-1.5 2.2-1 .8-1.9 2.2-1.9 3.2 0 1.9-1.5 2.4-2.4.9-.4-.5 0-1.1.6-1.4.8-.3.2-.9-1.3-1.5s-2.9-1.8-3.2-2.6c-1.1-2.7-3.7-1.9-3.7 1.2 0 1.5-.7 3.7-1.5 4.9-.8 1.2-1.2 2.8-.9 3.7.4 1.2 0 1.6-1.5 1.6-1.2 0-2.1.6-2.1 1.3 0 1.5-5.1 4.7-7.4 4.7-1.8 0-2.1 1.5-.6 2.5 1.8 1.1 0 2.5-3.1 2.5-4.2 0-6.7-2.5-5-5.1 1.3-2.2.6-4.3-1.3-3.6-1.8.7-2.4.1-8.4-7.5-3-3.7-6.7-7.7-8.3-8.9-3.6-2.5-3.6-3.3-.3-4.8 3.5-1.6 2.8-4.7-1-4.4-2.3.2-3-.4-4.2-3.5-2.6-6.4-3.6-8.6-5-11.2-.8-1.4-2.2-4.2-3.1-6.2-2-4-4.8-5.5-6.2-3.1-.8 1.6-.7 1.6-7.8-2.1-3.8-2-4.3-2-4.3-.1 0 1.2-1 1.5-4.5 1.2-2.6-.2-4.5.1-4.5.7s-.5.5-1.2-.2-2-1.2-2.9-1.2c-.9 0-2.2-.6-2.8-1.3-.8-1.1-2.5-1.2-7.2-.5-6.8.9-11.8-.2-15.5-3.4-1.2-1.1-2.8-1.6-3.8-1.2-.9.4-2.4 0-3.4-.8-.9-.8-2.8-1.5-4.2-1.6-1.3 0-3.1-1-4-2-2.1-2.7-5.7-4.5-6.5-3.2-.4.6-1.5.6-3.3-.1-1.8-.7-2.8-.7-3 0-.6 1.8-1.9 1.3-2.5-.9-.6-2.2-1.1-2.3-4.2-1.1zm-1.1 528.7c1.8.7 1.2 2.4-1 2.4-.8 0-1.4-.7-1.4-1.5 0-1.7.2-1.8 2.4-.9zm25.6 13.4c0 .5-.2 1-.4 1-.3 0-.8-.5-1.1-1-.3-.6-.1-1 .4-1 .6 0 1.1.4 1.1 1z"/><path d="M414.585 39.341c-.3.8-.1 1.5.4 1.5.6 0 1-.7 1-1.5s-.2-1.5-.4-1.5-.6.7-1 1.5zM283.285 535.641c-.7.4-.9 1.3-.4 2.1.6 1 1 .9 1.5-.5.8-2 .4-2.5-1.1-1.6zM8.685 551.441c-1.1 1.2.3 2.4 2.9 2.4 1.5 0 2.4-.6 2.4-1.5 0-1.5-4-2.1-5.3-.9zM7.485 555.841c-.3.5-.1 1 .4 1 .6 0 1.1-.5 1.1-1 0-.6-.2-1-.4-1-.3 0-.8.4-1.1 1z"/></g></svg>