<?xml version="1.0" standalone="no"?>
<!DOCTYPE svg PUBLIC "-//W3C//DTD SVG 20010904//EN"
 "http://www.w3.org/TR/2001/REC-SVG-20010904/DTD/svg10.dtd">
<svg version="1.0" xmlns="http://www.w3.org/2000/svg"
 width="803.095276pt" height="907.478353pt" viewBox="0 0 803.095276 907.478353"
 preserveAspectRatio="xMidYMid meet">
<metadata>
Created by potrace 1.15, written by Peter Selinger 2001-2017
</metadata>
<g transform="translate(-602.605332,1465.478353) scale(0.100000,-0.100000)"
fill="#222222" stroke="none">
<path d="M6907 14647 c-3 -8 3 -23 14 -33 22 -20 24 -10 5 25 -10 18 -14 20
-19 8z"/>
<path d="M6560 14604 c0 -8 5 -12 10 -9 6 4 8 11 5 16 -9 14 -15 11 -15 -7z"/>
<path d="M6816 14603 c-22 -6 -53 -33 -37 -33 5 0 12 -9 16 -19 6 -21 19 -27
77 -36 42 -7 62 14 48 51 -5 12 -6 25 -3 28 4 3 2 6 -3 6 -6 0 -15 -5 -22 -12
-9 -9 -16 -8 -30 5 -10 9 -20 16 -23 16 -2 -1 -13 -4 -23 -6z"/>
<path d="M6613 14567 c-30 -9 -33 -14 -33 -49 0 -25 -4 -38 -12 -37 -40 5 -50
-1 -45 -27 3 -20 -1 -27 -19 -34 -13 -5 -24 -15 -24 -21 0 -7 -9 -9 -24 -5
-14 3 -27 2 -31 -3 -3 -6 -26 -13 -51 -17 l-45 -6 7 -67 c8 -78 19 -111 37
-111 8 0 17 -21 23 -55 l10 -55 -46 0 c-25 0 -55 6 -65 14 -28 20 -45 9 -45
-30 0 -28 -6 -38 -32 -54 -31 -19 -32 -19 -72 2 -22 11 -53 22 -69 25 -26 4
-29 2 -24 -16 3 -12 1 -21 -3 -21 -4 0 -6 -9 -3 -20 3 -12 -1 -22 -11 -26 -25
-9 -3 -39 52 -71 26 -15 52 -34 59 -43 18 -24 46 -136 41 -165 -3 -14 -1 -28
3 -31 5 -3 9 -13 9 -23 0 -10 7 -24 15 -31 10 -8 12 -17 6 -24 -6 -7 -6 -17
-1 -26 6 -8 10 -24 10 -35 1 -28 75 -73 141 -85 69 -13 147 12 109 35 -5 3
-10 15 -10 25 0 21 -34 45 -50 35 -5 -3 -14 3 -19 14 -13 24 -14 34 -2 27 5
-3 14 1 21 9 7 8 16 12 21 9 5 -3 9 -1 9 5 0 5 11 23 25 39 18 21 21 32 13 40
-9 9 -8 18 1 36 8 13 10 29 7 35 -4 6 0 11 8 11 9 0 13 6 10 14 -4 10 11 6 44
-12 43 -23 52 -24 66 -13 9 8 15 20 12 28 -3 7 -3 13 0 13 3 0 10 -13 15 -28
13 -38 64 -43 73 -8 4 16 19 27 59 39 30 9 68 17 85 17 34 0 49 14 33 33 -7 9
-2 18 19 32 15 10 37 38 47 61 l20 42 -43 33 c-41 32 -75 89 -53 89 18 0 9 48
-12 62 -19 12 -20 17 -10 36 7 14 8 28 3 40 -5 9 -8 44 -6 77 2 40 -2 67 -11
82 -8 12 -12 28 -10 36 3 7 -3 21 -13 30 -13 12 -17 26 -14 42 2 14 0 25 -6
25 -6 0 -23 14 -39 30 -27 29 -73 41 -73 20 0 -14 -21 -12 -39 3 -12 10 -24
11 -48 4z"/>
<path d="M6295 14160 c-9 -15 -1 -23 21 -18 15 3 16 4 1 16 -11 9 -17 10 -22
2z"/>
<path d="M6268 14123 c7 -3 16 -2 19 1 4 3 -2 6 -13 5 -11 0 -14 -3 -6 -6z"/>
<path d="M7498 13570 c2 -17 12 -32 22 -35 12 -4 21 -20 25 -45 4 -26 12 -40
22 -40 12 0 14 7 9 28 -4 15 -10 40 -13 57 -6 29 -38 64 -59 65 -6 0 -9 -12
-6 -30z"/>
<path d="M6937 13479 c-39 -34 -57 -58 -57 -74 0 -38 -27 -58 -69 -50 -20 4
-45 14 -55 23 -18 16 -19 16 -13 -16 5 -25 2 -37 -14 -53 -19 -19 -19 -22 -5
-38 22 -25 20 -44 -4 -38 -16 4 -21 -2 -28 -37 -5 -27 -4 -42 2 -45 32 -11 35
-23 13 -41 -16 -13 -26 -15 -34 -8 -18 15 -16 -2 3 -23 13 -15 18 -26 23 -58
1 -3 7 3 14 13 12 16 14 15 36 -8 28 -29 41 -33 41 -11 0 8 7 15 15 15 9 0 12
6 8 16 -4 10 -1 15 8 13 32 -6 126 15 159 36 44 28 60 22 111 -40 41 -49 41
-50 18 -55 -13 -3 -28 -16 -34 -28 -11 -26 -74 -53 -104 -45 -20 5 -23 1 -23
-37 -1 -3 2 -17 6 -32 4 -19 2 -28 -6 -28 -7 0 -21 -18 -31 -40 -10 -21 -27
-42 -37 -45 -19 -6 -19 -7 -2 -33 9 -14 16 -33 14 -42 -2 -10 12 -24 35 -36
47 -24 73 -73 73 -136 0 -41 4 -50 36 -76 23 -19 32 -32 24 -37 -7 -4 2 -22
27 -51 81 -93 103 -122 103 -132 0 -23 46 -95 66 -102 24 -9 38 -47 20 -53 -8
-3 -8 -10 2 -26 17 -28 15 -33 -7 -26 -21 6 -42 -20 -34 -42 2 -6 -5 -14 -16
-18 -17 -5 -19 -9 -8 -26 9 -15 9 -23 0 -39 -11 -17 -8 -23 20 -50 17 -16 41
-33 52 -36 11 -4 26 -15 32 -24 7 -10 24 -21 38 -24 36 -9 32 -30 -5 -22 -19
3 -30 1 -30 -5 0 -7 -10 -9 -23 -6 -26 7 -52 -6 -43 -22 4 -6 2 -11 -3 -11 -6
0 -11 -4 -11 -10 0 -5 9 -10 20 -10 11 0 20 -4 20 -9 0 -5 9 -12 19 -16 23 -7
42 -58 41 -112 0 -26 21 -30 39 -9 8 9 8 21 2 39 -5 14 -7 28 -4 31 4 3 -2 6
-11 6 -25 0 -14 23 15 30 14 4 30 0 38 -8 8 -7 22 -11 32 -9 23 6 69 -28 69
-52 0 -9 6 -26 14 -36 8 -11 11 -26 8 -33 -3 -8 2 -19 11 -24 10 -5 17 -15 17
-22 0 -19 52 -64 83 -71 15 -4 30 -11 32 -16 3 -4 12 -6 20 -3 7 3 18 -4 25
-15 13 -25 67 -29 76 -6 5 11 11 12 24 5 10 -6 30 -10 44 -10 14 0 26 -4 26
-10 0 -5 -10 -10 -21 -10 -19 0 -21 -4 -15 -31 3 -17 6 -48 6 -69 0 -29 5 -39
25 -50 23 -12 26 -19 22 -58 -2 -24 -9 -47 -15 -51 -7 -4 -11 -36 -11 -86 1
-71 3 -81 25 -98 13 -10 24 -28 24 -41 0 -12 4 -26 8 -32 5 -5 6 -40 3 -77 -7
-77 4 -97 55 -97 20 0 43 -11 69 -35 21 -20 36 -38 33 -41 -3 -3 5 -16 19 -30
20 -20 24 -34 23 -67 -5 -80 -1 -95 32 -126 32 -30 108 -58 126 -47 6 3 21 2
34 -2 66 -25 75 -24 98 13 12 20 37 42 56 50 28 12 34 19 34 45 0 26 3 29 18
22 32 -17 80 -22 85 -9 3 8 10 7 24 -6 23 -20 26 -47 6 -47 -11 0 -8 -10 9
-41 34 -60 62 -79 119 -79 45 0 50 -2 62 -32 8 -18 20 -38 28 -44 14 -11 112
-27 159 -26 37 0 60 -16 76 -54 8 -19 13 -37 12 -40 -2 -3 9 -12 25 -20 22
-12 27 -21 27 -54 0 -42 27 -100 47 -100 9 0 10 -7 4 -24 -7 -17 -5 -27 6 -39
10 -10 13 -24 8 -45 -6 -28 -9 -30 -32 -21 -17 6 -30 6 -39 -2 -7 -6 -18 -8
-24 -4 -5 3 -10 1 -10 -6 0 -7 -10 -23 -21 -35 -12 -13 -27 -34 -33 -46 -12
-24 -33 -30 -53 -15 -9 6 -13 5 -13 -3 0 -9 -12 -10 -43 -6 -35 5 -48 3 -70
-14 -15 -12 -27 -18 -27 -13 -1 4 -9 -1 -18 -13 -10 -11 -24 -23 -31 -25 -8
-3 -15 -20 -16 -38 -2 -19 -9 -37 -16 -42 -10 -6 -10 -13 -1 -34 16 -34 15
-75 0 -75 -7 0 -23 -18 -36 -40 -12 -22 -26 -40 -31 -40 -4 0 -6 -11 -3 -25 3
-17 -1 -27 -12 -31 -9 -3 -16 -15 -16 -26 0 -11 -16 -36 -35 -56 -28 -30 -43
-38 -77 -40 -137 -10 -148 -15 -148 -64 0 -38 -2 -40 -54 -63 -32 -14 -63 -21
-76 -18 -16 4 -21 3 -16 -6 4 -6 12 -9 17 -6 14 9 22 -21 11 -42 -10 -17 -11
-17 -17 0 -4 9 -10 17 -14 17 -10 0 -7 -103 3 -119 5 -8 4 -16 -5 -22 -11 -7
-9 -10 9 -15 13 -4 25 -17 29 -33 8 -36 29 -64 50 -68 63 -10 85 -17 90 -29 3
-8 10 -14 15 -14 6 0 33 -11 60 -25 28 -14 62 -26 75 -27 14 -2 29 -12 35 -23
6 -11 23 -32 38 -46 21 -19 27 -33 23 -51 -8 -40 12 -67 47 -66 17 1 39 -7 51
-18 16 -14 24 -16 38 -7 9 6 30 9 44 6 21 -4 26 -10 22 -24 -3 -10 -2 -27 4
-37 7 -13 7 -22 -1 -30 -9 -9 -8 -12 5 -12 19 0 21 -8 7 -30 -8 -13 -10 -13
-10 0 0 24 -17 -2 -25 -39 -7 -33 -7 -34 21 -27 35 9 42 15 27 24 -18 12 8 27
50 28 20 1 37 -2 37 -7 0 -5 -6 -9 -12 -9 -8 0 -5 -7 6 -15 18 -13 18 -18 6
-54 -12 -39 -12 -41 19 -71 33 -33 37 -45 21 -55 -37 -23 63 -66 107 -46 13 6
33 11 45 11 14 0 18 5 14 16 -9 24 17 12 29 -13 5 -12 16 -22 25 -23 8 0 45
-3 82 -5 63 -3 128 -27 128 -47 0 -4 8 -8 18 -8 9 0 23 -9 30 -20 7 -11 16
-20 21 -20 10 0 8 41 -3 58 -4 7 -3 12 2 12 6 0 12 -6 15 -14 6 -14 62 -30
107 -31 19 0 30 10 47 40 17 33 25 39 48 37 14 -2 37 4 50 12 29 19 95 29 95
15 0 -5 10 -7 23 -4 15 4 34 -3 60 -23 l39 -28 34 34 c33 33 36 34 48 17 13
-18 15 -18 60 -1 26 10 60 16 77 14 16 -3 29 0 29 5 0 15 72 -2 103 -24 15
-11 32 -17 38 -14 5 4 21 -1 35 -10 24 -15 27 -15 51 0 14 10 28 26 31 37 3
13 11 18 23 15 20 -5 56 31 76 76 7 15 18 27 24 27 8 0 8 4 0 14 -10 12 -9 13
7 9 11 -2 23 0 26 6 4 6 18 8 31 5 17 -4 25 -1 29 14 5 13 19 22 46 26 45 7
92 48 94 83 0 12 7 23 13 23 7 0 12 3 12 8 -1 4 -1 18 0 31 1 23 2 23 19 8 24
-22 27 -21 52 5 23 25 29 22 33 -18 2 -17 7 -36 11 -43 5 -8 0 -21 -13 -35
-24 -26 -26 -36 -7 -36 7 0 19 -7 26 -15 7 -8 16 -13 20 -10 5 3 16 -5 24 -17
10 -14 12 -24 6 -28 -11 -7 -2 -67 11 -76 18 -11 9 -61 -13 -77 l-23 -16 31 0
c17 -1 43 -10 56 -21 17 -13 37 -18 61 -17 32 3 36 0 41 -26 3 -16 3 -40 0
-53 -3 -13 -2 -24 4 -24 5 0 31 -17 58 -39 63 -50 85 -56 115 -33 21 16 89 22
141 13 3 0 5 -15 3 -32 -5 -38 12 -73 59 -118 25 -25 37 -46 42 -77 4 -31 11
-44 27 -48 20 -5 20 -6 2 -26 -10 -11 -25 -20 -33 -20 -9 0 -12 -6 -8 -16 4
-10 2 -15 -6 -12 -18 6 -62 -38 -48 -47 6 -4 19 0 29 9 10 9 27 16 39 16 12 0
29 8 38 19 9 10 24 17 33 14 9 -2 25 3 36 11 11 9 15 16 10 16 -20 0 -4 76 19
93 7 5 3 14 -11 26 -15 13 -19 21 -11 29 8 8 6 15 -6 27 -22 22 -20 28 5 14
12 -6 24 -20 26 -30 6 -20 43 -27 43 -8 0 14 49 3 71 -17 20 -18 30 -18 23 1
-4 10 0 15 15 15 17 0 21 -6 21 -30 0 -17 7 -42 16 -55 9 -13 13 -29 9 -35 -4
-6 1 -30 10 -53 17 -44 9 -97 -15 -97 -6 0 -8 -5 -4 -11 13 -21 -18 -59 -48
-59 -31 0 -33 -3 -17 -31 15 -30 -8 -77 -41 -81 -14 -2 -24 -9 -22 -15 1 -7
-2 -13 -8 -13 -5 0 -10 -7 -10 -15 0 -8 5 -15 10 -15 6 0 10 -9 10 -20 0 -11
-4 -20 -10 -20 -23 0 -7 -28 18 -32 35 -5 77 11 96 37 12 17 19 18 72 8 35 -7
63 -7 69 -2 5 5 19 9 32 9 13 0 23 5 23 10 0 15 33 12 56 -5 12 -8 24 -11 28
-8 3 3 6 1 6 -6 0 -8 8 -6 25 5 14 9 22 20 19 25 -7 12 0 11 30 -2 35 -16 73
-4 80 25 3 14 14 27 24 30 25 8 75 75 68 91 -3 10 7 18 35 26 45 14 79 59 79
106 0 16 11 44 24 61 l23 32 19 -27 c10 -16 17 -32 16 -36 -1 -5 7 -11 18 -14
11 -3 20 -12 20 -19 0 -8 12 -19 26 -24 34 -13 36 -13 32 9 -4 23 105 149 137
157 17 4 26 17 35 52 7 26 13 52 14 57 1 6 5 13 9 16 4 3 3 18 -3 34 -12 30
-6 45 11 28 16 -16 49 -3 49 18 0 11 7 22 16 26 8 3 13 12 10 20 -3 8 -2 12 3
9 8 -5 60 9 93 25 10 5 25 6 35 2 10 -3 15 -3 11 2 -4 4 2 19 12 33 11 13 20
34 20 46 1 31 23 55 59 62 17 4 34 11 37 15 3 5 16 9 29 9 13 0 30 9 38 20 8
11 28 23 46 26 17 4 34 11 37 15 3 5 14 9 25 9 11 0 22 6 25 14 4 12 11 12 29
4 17 -8 31 -7 53 3 25 11 30 20 34 58 3 26 14 64 24 86 17 35 23 40 49 37 17
-2 35 -10 42 -18 6 -9 27 -17 47 -19 28 -2 37 1 41 16 4 11 10 17 15 14 9 -6
24 24 21 43 -3 16 24 43 34 34 4 -4 5 2 1 14 -3 11 0 28 9 40 8 10 15 26 15
35 0 9 13 20 32 25 38 11 47 29 18 37 -15 4 -20 13 -20 39 0 27 -6 37 -32 53
-18 10 -27 20 -20 23 7 2 9 9 5 15 -4 6 -7 20 -8 31 -1 12 -5 28 -9 37 -4 10
-1 23 9 33 10 10 12 16 4 16 -17 0 -4 81 15 96 30 21 7 104 -28 104 -7 0 -18
11 -24 25 -14 31 -38 32 -46 3 -10 -38 -7 -58 9 -58 8 0 15 -4 15 -10 0 -5 -6
-10 -14 -10 -8 0 -18 -9 -21 -20 -3 -11 -15 -20 -26 -20 -14 0 -21 -9 -25 -30
-4 -16 -12 -30 -19 -30 -6 0 -17 -18 -24 -41 -9 -30 -16 -39 -27 -35 -9 3 -18
6 -20 6 -2 0 -4 9 -4 20 0 11 7 20 15 20 14 0 14 4 -1 31 -12 25 -18 29 -25
18 -5 -8 -9 -9 -9 -4 -1 22 -87 106 -111 109 -14 1 -30 5 -36 9 -6 4 -14 3
-18 -3 -4 -6 -17 -4 -37 6 -36 19 -60 5 -38 -21 12 -15 10 -16 -25 -9 -49 9
-79 41 -59 62 15 15 19 62 6 62 -5 0 -15 11 -22 25 -8 16 -22 25 -37 25 -14 0
-23 6 -23 15 0 9 -7 18 -15 21 -8 4 -16 14 -16 23 -1 9 -5 0 -8 -19 -5 -24 -3
-39 7 -47 9 -8 10 -13 2 -18 -8 -5 -8 -10 0 -20 6 -7 8 -19 5 -27 -3 -8 1 -21
10 -28 17 -14 20 -40 4 -40 -6 0 -19 4 -29 10 -14 8 -19 5 -25 -13 -4 -12 -8
-26 -9 -32 -2 -14 -47 -13 -72 2 -19 10 -23 10 -27 -7 -3 -13 -14 -20 -30 -20
-57 0 -84 -12 -98 -43 -11 -23 -25 -33 -57 -43 -28 -8 -44 -9 -48 -2 -4 6 -26
8 -56 4 -41 -6 -52 -4 -63 11 -10 13 -24 17 -56 14 -24 -1 -48 -6 -53 -11 -9
-9 -47 20 -40 31 3 5 -8 12 -23 15 -15 4 -41 21 -58 38 -16 17 -46 45 -66 62
-19 17 -38 38 -42 47 -4 12 -18 17 -42 17 -33 0 -35 2 -35 31 0 28 3 31 24 27
19 -4 23 -1 19 11 -4 9 -12 23 -19 32 -8 8 -16 35 -19 60 -7 55 -26 71 -66 57
-17 -6 -33 -8 -36 -5 -3 4 -21 0 -39 -8 -19 -8 -34 -10 -34 -4 0 5 -9 9 -20 9
-13 0 -25 12 -35 36 -14 34 -15 35 -37 20 -25 -18 -108 -22 -108 -6 0 6 -6 10
-12 10 -8 0 -13 -13 -14 -30 -1 -17 -11 -41 -23 -53 -11 -13 -21 -31 -21 -41
0 -13 -5 -16 -22 -10 -56 17 -68 25 -72 46 -3 13 -7 35 -10 50 -4 15 -2 30 4
33 15 9 12 35 -4 35 -7 0 -26 20 -42 45 -16 25 -35 44 -43 42 -8 -1 -20 8 -26
20 -7 13 -24 34 -39 48 -15 14 -24 25 -20 25 4 0 -1 9 -11 20 -10 11 -24 20
-30 20 -7 0 -29 14 -50 30 -21 17 -46 30 -57 30 -10 0 -40 11 -65 25 -27 14
-51 21 -57 16 -22 -17 -73 -20 -92 -6 -16 12 -21 11 -36 -2 -10 -9 -18 -22
-18 -28 0 -15 -45 -25 -111 -25 -40 0 -49 3 -50 18 0 9 -3 12 -5 7 -2 -6 -20
-9 -40 -7 -28 3 -39 11 -48 32 -9 23 -13 25 -24 14 -18 -20 -33 -17 -39 6 -4
15 -11 18 -27 14 -27 -6 -51 18 -42 42 7 18 -29 74 -49 74 -7 0 -15 9 -18 20
-3 12 0 20 7 20 6 0 12 8 12 18 1 9 4 25 9 35 5 12 3 17 -8 17 -22 0 -46 37
-40 60 3 11 -4 31 -16 46 -25 31 -28 64 -6 64 28 0 55 60 55 122 0 48 3 58 20
63 11 3 20 13 20 21 0 8 13 32 29 52 31 40 48 96 32 106 -5 4 -12 2 -16 -4
-10 -16 -69 2 -89 28 -18 23 -20 24 -27 6 -5 -16 -9 -13 -25 19 -11 22 -25 37
-36 37 -10 0 -18 -4 -18 -10 0 -20 -21 -10 -30 14 -6 18 -20 27 -44 32 -20 3
-33 10 -31 15 3 5 -1 22 -10 39 -9 17 -15 36 -14 43 6 37 -49 79 -75 58 -23
-19 -148 -17 -189 3 -21 10 -41 16 -44 12 -10 -10 -33 15 -33 35 0 15 7 19 38
19 36 0 37 1 38 35 0 26 -3 34 -13 31 -7 -3 -17 3 -23 14 -13 24 -13 33 1 24
6 -3 15 0 20 7 15 24 10 31 -15 25 -30 -7 -56 2 -56 20 0 15 -85 104 -117 123
-16 9 -15 10 10 11 15 0 27 4 27 10 0 5 7 7 16 3 13 -5 15 -2 10 13 -5 19 5
47 18 45 25 -3 36 1 36 15 0 8 5 12 10 9 6 -4 17 -1 25 5 11 10 15 10 15 1 0
-21 17 -2 22 23 3 17 1 23 -8 19 -7 -3 -23 2 -36 11 -31 22 -45 20 -52 -9 -4
-16 -13 -25 -26 -25 -18 0 -24 -12 -23 -47 1 -7 -3 -13 -8 -13 -5 0 -9 8 -9
18 0 12 -2 14 -8 4 -5 -8 -16 -10 -28 -5 -16 6 -17 5 -6 -9 18 -23 -4 -71 -29
-63 -10 4 -27 1 -38 -4 -16 -9 -20 -7 -24 17 -4 18 1 34 13 47 19 20 19 21 -3
67 -16 34 -33 52 -64 68 -24 12 -47 29 -53 38 -9 16 -9 16 -10 0 0 -21 -16
-32 -32 -21 -7 4 -17 8 -23 8 -5 0 -22 8 -37 18 -21 15 -25 23 -19 40 8 25 7
84 -2 93 -3 4 0 19 8 35 13 25 20 28 51 24 22 -3 33 -1 29 5 -3 5 -13 10 -21
10 -8 0 -22 18 -31 40 -10 22 -21 40 -25 40 -5 0 -8 7 -8 15 0 16 -25 21 -35
6 -7 -12 -55 35 -55 54 0 8 4 16 10 20 18 11 -2 35 -31 35 -27 0 -28 2 -31 52
-2 41 -7 54 -20 56 -15 3 -17 -2 -12 -27 8 -40 -9 -61 -52 -61 -41 0 -84 19
-78 34 3 7 -7 25 -21 42 -14 16 -24 37 -21 46 2 11 -4 20 -17 24 -21 7 -21 7
3 16 13 5 30 6 38 3 11 -4 12 -2 4 8 -16 19 -34 69 -22 62 6 -3 15 -3 20 0 6
4 -8 24 -32 46 -27 26 -38 42 -30 45 6 3 12 11 12 18 0 7 9 21 19 30 11 10 21
28 23 40 2 15 11 22 31 24 28 3 33 16 17 42 -6 9 -5 17 3 22 15 9 -20 49 -38
42 -7 -3 -25 2 -38 11 -24 15 -26 15 -41 -6 -15 -21 -16 -22 -34 -6 -16 15
-32 16 -103 11 -64 -5 -98 -3 -140 10 -38 11 -77 14 -122 10 -59 -4 -72 -2
-109 20 -24 14 -61 42 -83 61 -22 19 -43 35 -47 35 -18 0 -25 4 -61 36 -21 20
-48 34 -62 34 -15 0 -28 7 -32 18 -4 9 -14 22 -24 29 -9 7 -19 33 -23 62 -7
53 -17 66 -59 76 -15 4 -32 15 -37 25 -6 10 -20 20 -32 22 -12 2 -30 18 -42
39 -23 40 -41 61 -103 124 -24 23 -43 50 -43 59 0 9 -19 37 -41 61 -23 25 -38
45 -34 45 4 0 -4 9 -18 20 -14 11 -28 28 -31 38 -5 15 -19 17 -103 16 -137 -2
-203 -12 -196 -30 3 -8 1 -14 -5 -14 -5 0 -12 10 -15 21 -5 17 -12 21 -36 17
-19 -3 -32 0 -35 9 -8 19 -30 16 -51 -7 -15 -17 -16 -24 -7 -45 6 -14 9 -31 6
-39 -4 -11 1 -15 23 -13 22 2 27 -2 25 -16 -2 -10 6 -29 16 -42 30 -37 37 -93
16 -116 -9 -10 -25 -19 -35 -19 -10 0 -21 -9 -24 -20 -7 -23 -55 -75 -55 -60
0 5 -6 7 -13 4 -7 -2 -22 4 -32 16 -17 19 -17 20 0 20 12 0 15 5 10 18 -4 9
-12 30 -17 45 -8 22 -13 26 -20 15 -5 -8 -6 -4 -2 14 5 24 2 29 -28 41 -19 8
-47 30 -62 48 -16 19 -41 41 -56 49 -83 45 -108 68 -103 94 4 18 1 26 -9 26
-10 0 -14 10 -13 33 3 39 -12 70 -30 63 -7 -2 -19 2 -25 10 -7 8 -20 14 -30
14 -9 0 -29 9 -43 20 -14 11 -30 20 -35 20 -6 0 -12 5 -14 11 -2 6 -21 11 -42
11 -23 0 -39 5 -43 14 -3 8 -14 14 -25 14 -11 0 -18 5 -15 13 2 6 -1 19 -8 27
-7 8 -15 30 -19 48 -6 35 -4 36 52 15 6 -3 13 3 13 13 4 40 5 50 13 66 4 9 2
27 -6 42 l-14 26 -57 -51z m521 -686 c-4 -39 -28 -42 -28 -4 0 21 5 31 16 31
11 0 14 -8 12 -27z m-45 -69 c3 -4 2 -15 -4 -26 -10 -19 -12 -19 -30 -2 -10 9
-19 21 -19 26 0 9 44 11 53 2z m165 -62 c18 -38 15 -65 -9 -85 -17 -15 -23
-16 -35 -6 -13 11 -13 14 -1 21 13 7 12 13 -4 44 -21 43 -20 49 13 50 16 1 27
-6 36 -24z m-73 -122 c-3 -5 -10 -10 -16 -10 -5 0 -9 5 -9 10 0 6 7 10 16 10
8 0 12 -4 9 -10z m-18 -74 c-4 -29 -1 -46 10 -58 13 -14 13 -19 2 -30 -18 -16
-99 -23 -99 -9 0 6 7 11 15 11 9 0 15 9 15 24 0 14 5 28 10 31 6 4 8 10 5 14
-8 13 26 72 37 65 6 -4 8 -24 5 -48z m143 -422 c0 -8 -4 -12 -10 -9 -5 3 -10
10 -10 16 0 5 5 9 10 9 6 0 10 -7 10 -16z m237 -96 c-3 -7 -5 -2 -5 12 0 14 2
19 5 13 2 -7 2 -19 0 -25z m-197 -42 c0 -7 11 -21 25 -30 15 -10 25 -26 25
-39 0 -13 5 -28 11 -34 7 -7 7 -23 -1 -53 -9 -32 -14 -40 -21 -29 -7 12 -9 12
-9 -1 -1 -8 -8 -1 -17 15 -9 17 -24 36 -35 43 -10 7 -18 20 -18 29 0 9 -10 27
-22 40 l-21 23 35 0 c32 0 35 2 30 25 -2 15 0 25 7 25 6 0 11 -6 11 -14z m170
-61 c10 -12 10 -15 -4 -15 -9 0 -16 7 -16 15 0 8 2 15 4 15 2 0 9 -7 16 -15z
m-437 -161 c9 -9 -4 -35 -14 -28 -5 3 -9 12 -9 20 0 14 12 19 23 8z m312 -5
c-4 -6 0 -16 8 -22 19 -15 33 -77 18 -77 -6 0 -8 -7 -5 -15 4 -8 1 -15 -6 -15
-9 0 -11 10 -6 30 3 19 1 30 -6 30 -6 0 -8 3 -5 6 3 4 -3 18 -13 32 -25 32
-25 42 1 42 12 0 17 -4 14 -11z m2235 -569 c0 -5 -5 -10 -11 -10 -5 0 -7 5 -4
10 3 6 8 10 11 10 2 0 4 -4 4 -10z m-1410 -404 c0 -3 -4 -8 -10 -11 -5 -3 -10
-1 -10 4 0 6 5 11 10 11 6 0 10 -2 10 -4z m-135 -304 c-3 -7 -5 -20 -5 -28 0
-8 -7 -14 -15 -14 -8 0 -15 8 -15 18 0 9 -3 27 -6 40 -6 21 -5 22 20 11 16 -8
25 -18 21 -27z m115 -32 c0 -5 -4 -10 -10 -10 -5 0 -10 5 -10 10 0 6 5 10 10
10 6 0 10 -4 10 -10z m-65 -51 c12 -19 -5 -23 -22 -6 -16 16 -16 17 -1 17 9 0
20 -5 23 -11z m5352 -1721 c-3 -8 -6 -5 -6 6 -1 11 2 17 5 13 3 -3 4 -12 1
-19z m-101 -35 c-10 -10 -19 5 -10 18 6 11 8 11 12 0 2 -7 1 -15 -2 -18z
m-4771 -213 c3 -5 1 -10 -4 -10 -6 0 -11 5 -11 10 0 6 2 10 4 10 3 0 8 -4 11
-10z m45 -62 c0 -24 -2 -23 -28 12 l-22 30 25 -12 c14 -6 25 -19 25 -30z m70
-6 c0 -15 -2 -15 -10 -2 -13 20 -13 33 0 25 6 -3 10 -14 10 -23z m1615 -72
c-3 -5 -10 -10 -16 -10 -5 0 -9 5 -9 10 0 6 7 10 16 10 8 0 12 -4 9 -10z m-29
-27 c-7 -7 -26 7 -26 19 0 6 6 6 15 -2 9 -7 13 -15 11 -17z m871 -440 c-3 -3
-11 -2 -17 2 -9 6 -9 10 1 16 14 8 27 -7 16 -18z"/>
<path d="M6500 13421 c0 -5 7 -11 15 -15 9 -3 12 -12 8 -21 -5 -14 0 -15 32
-9 31 5 41 3 51 -11 10 -13 17 -15 26 -8 7 6 25 13 41 17 15 3 27 11 27 16 0
14 -28 12 -33 -2 -3 -10 -7 -10 -18 -2 -15 12 -113 44 -136 44 -7 0 -13 -4
-13 -9z"/>
<path d="M7570 13401 c0 -17 43 -42 54 -31 12 12 0 25 -31 35 -13 3 -23 2 -23
-4z"/>
<path d="M6392 13346 c-6 -13 -8 -27 -4 -31 4 -4 7 -12 7 -18 0 -7 15 -12 35
-13 19 0 43 -4 53 -8 13 -6 17 -3 17 13 0 12 5 21 10 21 6 0 10 10 10 23 0 19
-5 22 -43 23 -23 0 -49 4 -58 8 -11 5 -19 -1 -27 -18z"/>
<path d="M7615 13332 c-9 -24 -5 -32 15 -32 19 0 26 -19 21 -58 -1 -8 4 -20
11 -29 7 -9 11 -29 9 -44 -4 -42 19 -89 44 -89 28 0 45 19 45 48 0 18 4 23 17
18 14 -6 53 22 53 38 0 3 -16 21 -35 40 -30 30 -34 40 -31 74 3 35 1 40 -18
40 -11 1 -45 2 -73 4 -37 2 -54 -1 -58 -10z"/>
<path d="M7560 13296 c0 -2 7 -9 15 -16 12 -10 15 -10 15 4 0 9 -7 16 -15 16
-8 0 -15 -2 -15 -4z"/>
<path d="M6346 13245 c-3 -8 -1 -15 3 -15 5 0 11 7 15 15 3 8 1 15 -3 15 -5 0
-11 -7 -15 -15z"/>
<path d="M7564 12864 c4 -16 7 -34 8 -41 1 -7 5 -10 9 -8 12 8 4 68 -10 73
-11 4 -12 -2 -7 -24z"/>
<path d="M7170 11855 c0 -8 -6 -18 -14 -21 -22 -9 -8 -38 38 -76 l42 -35 -4
34 c-3 19 -12 39 -23 46 -11 7 -19 22 -19 34 0 12 -4 25 -10 28 -5 3 -10 -1
-10 -10z"/>
<path d="M8550 10350 c0 -6 7 -10 15 -10 8 0 15 2 15 4 0 2 -7 6 -15 10 -8 3
-15 1 -15 -4z"/>
<path d="M9102 9980 c0 -14 2 -19 5 -12 2 6 2 18 0 25 -3 6 -5 1 -5 -13z"/>
<path d="M8926 9615 c4 -8 8 -15 10 -15 2 0 4 7 4 15 0 8 -4 15 -10 15 -5 0
-7 -7 -4 -15z"/>
<path d="M13245 9110 c4 -6 11 -8 16 -5 14 9 11 15 -7 15 -8 0 -12 -5 -9 -10z"/>
<path d="M8960 8161 c0 -5 7 -11 15 -15 9 -3 15 0 15 9 0 8 -7 15 -15 15 -8 0
-15 -4 -15 -9z"/>
<path d="M13446 7458 c4 -6 7 -26 6 -44 -2 -41 9 -49 32 -23 17 20 17 21 -4
14 -19 -6 -20 -4 -12 12 11 20 -1 53 -19 53 -6 0 -7 -5 -3 -12z"/>
<path d="M11680 7436 c0 -9 5 -16 10 -16 6 0 10 4 10 9 0 6 -4 13 -10 16 -5 3
-10 -1 -10 -9z"/>
<path d="M13360 7400 c-8 -5 -12 -11 -9 -14 2 -3 11 -1 19 4 8 5 12 11 9 14
-2 3 -11 1 -19 -4z"/>
<path d="M13390 7380 c0 -12 8 -12 35 0 18 8 17 9 -7 9 -16 1 -28 -3 -28 -9z"/>
<path d="M13350 7342 c-22 -30 -26 -32 -37 -16 -18 25 -26 11 -12 -20 7 -15
15 -22 19 -17 3 6 19 16 36 23 25 11 29 17 24 38 l-6 25 -24 -33z"/>
<path d="M13213 7339 c-41 -12 -43 -24 -4 -16 18 4 31 2 33 -5 5 -15 28 -1 28
18 0 16 -11 16 -57 3z"/>
<path d="M13093 7308 c-3 -5 -17 -7 -30 -3 -20 5 -24 3 -20 -9 5 -11 0 -16
-13 -16 -10 0 -21 -4 -25 -10 -3 -6 -16 -5 -32 3 -20 9 -27 9 -30 0 -3 -7 -10
-10 -18 -7 -7 3 -18 -4 -25 -15 -6 -12 -20 -21 -30 -21 -20 0 -20 0 0 -20 11
-11 20 -27 20 -36 0 -26 99 -12 122 16 10 12 22 19 27 16 5 -4 26 3 46 15 26
16 35 27 32 40 -6 23 18 25 39 4 9 -8 21 -15 28 -15 11 0 10 7 -2 35 -14 30
-20 34 -49 33 -19 -1 -36 -5 -40 -10z"/>
<path d="M12735 7265 l-30 -24 25 -1 c14 0 39 -9 57 -19 27 -17 33 -18 43 -5
10 11 9 14 -4 14 -10 0 -21 13 -27 30 -13 36 -25 37 -64 5z"/>
<path d="M13220 6986 c0 -2 7 -9 15 -16 9 -7 15 -8 15 -2 0 5 -7 12 -15 16 -8
3 -15 4 -15 2z"/>
<path d="M11473 6954 c-18 -8 -33 -18 -33 -23 0 -5 -10 -7 -21 -4 -14 4 -25 0
-31 -11 -5 -9 -15 -16 -21 -16 -21 0 -51 -44 -49 -70 2 -14 -4 -34 -12 -45
-13 -18 -13 -22 1 -37 12 -13 13 -24 6 -45 -7 -19 -7 -34 1 -46 9 -15 6 -22
-16 -38 -32 -24 -36 -46 -10 -65 16 -13 16 -15 0 -24 -18 -11 -14 -46 8 -54 8
-3 14 -14 14 -23 0 -32 29 -63 58 -63 28 0 102 -43 102 -60 0 -5 -6 -13 -14
-17 -11 -6 -12 -19 -5 -58 5 -27 11 -54 12 -60 2 -5 7 -27 12 -47 4 -21 13
-38 19 -38 6 0 19 -13 29 -29 10 -17 25 -29 35 -29 9 1 27 -2 38 -6 15 -5 23
-2 28 10 5 13 9 14 21 4 8 -6 19 -9 25 -5 6 4 15 -7 21 -24 10 -29 29 -43 29
-21 0 5 9 2 19 -7 17 -14 18 -18 4 -31 -8 -8 -12 -24 -9 -34 4 -16 1 -19 -15
-15 -23 6 -35 -29 -23 -70 4 -16 8 -32 8 -38 1 -5 9 -9 18 -7 9 1 25 -12 38
-33 12 -19 27 -36 33 -36 7 -1 21 -3 33 -4 l20 -2 -21 62 -22 61 42 -14 c30
-9 57 -30 89 -68 49 -57 52 -80 7 -70 l-26 6 25 -14 c14 -7 36 -17 49 -21 22
-7 23 -5 17 19 -4 16 -2 26 4 26 13 0 31 -45 34 -82 2 -31 1 -30 39 -46 15 -6
27 -7 27 -2 0 5 12 5 30 0 28 -8 30 -7 32 18 1 15 1 38 0 50 -1 19 3 22 16 17
61 -26 148 -55 162 -55 10 0 21 -7 24 -16 5 -12 14 -15 36 -10 17 3 30 1 30
-4 0 -6 5 -10 11 -10 5 0 8 4 5 9 -3 5 4 9 17 10 44 1 57 5 57 16 0 6 19 20
43 31 30 13 45 28 52 49 8 25 16 30 45 32 72 4 109 15 115 34 3 10 16 21 28
25 39 12 77 47 77 70 0 25 15 40 25 24 10 -17 32 -11 61 15 15 14 35 25 44 25
29 0 70 39 70 66 0 21 3 23 19 14 28 -14 36 -13 21 5 -7 8 -10 22 -6 30 3 9 0
26 -8 38 -8 12 -17 42 -20 67 -4 25 -11 52 -17 60 -7 11 -8 8 -3 -12 4 -17 2
-28 -4 -28 -8 0 -8 -10 0 -32 9 -24 8 -33 0 -36 -7 -2 -12 -12 -12 -23 0 -14
-7 -19 -28 -19 -24 0 -28 -4 -27 -27 0 -22 -4 -28 -20 -26 -11 1 -24 -5 -28
-13 -12 -21 -30 -17 -72 16 -27 21 -41 27 -46 19 -5 -9 -19 -8 -53 4 -46 16
-121 13 -110 -5 6 -10 -14 -38 -27 -38 -5 0 -9 6 -9 13 0 6 -11 17 -25 24 -17
7 -25 8 -25 1 0 -15 -51 -81 -57 -74 -3 2 -16 0 -30 -5 -20 -7 -30 -6 -44 7
-16 15 -17 15 -13 -3 4 -13 -3 -23 -20 -32 -14 -8 -25 -17 -24 -20 1 -3 -4
-19 -10 -34 -10 -23 -18 -28 -40 -26 -31 3 -69 -15 -92 -44 -20 -24 -74 -26
-99 -3 -10 9 -26 16 -36 16 -11 0 -32 12 -47 27 -15 15 -28 21 -28 15 0 -7 -7
-12 -16 -12 -8 0 -13 4 -10 9 3 5 -1 12 -9 15 -12 4 -13 10 -5 25 5 11 7 27 3
37 -4 10 -2 15 3 11 5 -3 10 20 11 55 1 45 6 63 20 73 17 13 17 14 1 15 -12 0
-18 8 -18 24 0 17 -9 28 -30 38 -33 14 -47 38 -29 49 7 4 9 14 4 25 -4 11 -9
36 -10 56 -2 26 -12 46 -36 70 -20 19 -34 44 -34 58 -1 14 -4 46 -9 72 -6 38
-4 47 6 43 7 -3 28 4 46 15 25 15 32 25 27 39 -3 11 -1 22 5 26 7 5 8 11 1 19
-11 13 -4 56 10 56 5 0 4 12 -1 26 -13 33 -13 34 5 28 11 -5 15 1 15 25 0 17
4 31 9 31 13 0 19 -46 9 -65 -12 -21 -5 -29 21 -20 12 4 18 12 14 21 -3 7 0
14 6 14 7 0 11 14 9 36 -2 34 -3 35 -33 28 -52 -12 -126 -4 -141 16 -18 23
-23 90 -7 90 7 0 13 9 13 20 0 37 -113 47 -151 13 -15 -12 -24 -11 -73 14 -48
23 -60 26 -76 15 -16 -10 -27 -9 -56 3 -20 8 -37 15 -38 14 0 0 -16 -7 -33
-15z"/>
<path d="M13262 6944 c-7 -8 -8 -14 -3 -14 10 0 25 19 20 25 -2 1 -10 -3 -17
-11z"/>
<path d="M13126 6911 c-11 -12 -19 -40 -21 -73 -2 -46 1 -57 25 -83 34 -37 35
-81 2 -142 -12 -23 -22 -49 -22 -58 0 -9 -9 -15 -24 -15 -29 0 -119 -78 -112
-96 3 -7 0 -29 -5 -48 -12 -45 1 -74 42 -88 16 -5 29 -15 29 -22 0 -6 14 -17
32 -24 30 -11 33 -10 59 21 20 23 26 40 22 62 -2 16 -5 43 -7 58 -1 15 -8 33
-14 39 -16 16 -15 28 3 28 18 0 19 12 3 28 -9 9 -8 12 6 12 9 0 15 4 12 9 -4
5 -2 21 4 36 8 20 7 32 -2 44 -7 9 -9 13 -4 9 5 -4 18 7 30 25 17 24 20 36 12
48 -7 12 -4 30 8 63 18 47 15 66 -10 66 -8 0 -14 5 -14 11 0 5 5 7 10 4 6 -3
10 -1 10 5 0 7 5 10 11 8 6 -2 10 -7 9 -12 -2 -11 21 -26 40 -26 9 0 16 9 16
20 0 11 -3 20 -7 20 -4 0 -12 15 -19 34 -8 26 -15 33 -30 29 -10 -3 -29 2 -42
11 -29 20 -31 20 -52 -3z m-21 -641 c3 -6 -1 -7 -9 -4 -18 7 -21 14 -7 14 6 0
13 -4 16 -10z"/>
<path d="M13176 6375 c-4 -12 -1 -16 11 -13 18 3 21 20 5 26 -5 1 -12 -4 -16
-13z"/>
<path d="M12045 6090 c3 -5 8 -10 11 -10 2 0 4 5 4 10 0 6 -5 10 -11 10 -5 0
-7 -4 -4 -10z"/>
</g>
</svg>
