<?xml version="1.0" standalone="no"?>
<!DOCTYPE svg PUBLIC "-//W3C//DTD SVG 20010904//EN"
 "http://www.w3.org/TR/2001/REC-SVG-20010904/DTD/svg10.dtd">
<svg version="1.0" xmlns="http://www.w3.org/2000/svg"
 width="470.458753pt" height="875.019513pt" viewBox="0 0 470.458753 875.019513"
 preserveAspectRatio="xMidYMid meet">
<metadata>
Created by potrace 1.15, written by Peter Selinger 2001-2017
</metadata>
<g transform="translate(-837.539364,1369.019513) scale(0.100000,-0.100000)"
fill="#222222" stroke="none">
<path d="M9967 13670 c-3 -11 -1 -23 4 -26 11 -6 12 -44 1 -44 -4 0 -12 4 -18
10 -6 6 -24 4 -49 -4 -29 -10 -42 -11 -47 -3 -4 6 -2 15 5 19 8 5 7 8 -5 8 -9
0 -23 -9 -31 -21 -13 -17 -19 -19 -36 -10 -20 11 -20 10 -10 -16 8 -21 7 -29
-2 -32 -7 -2 -25 -17 -42 -32 -16 -16 -34 -29 -40 -29 -5 0 -7 -11 -5 -25 6
-28 -8 -32 -37 -11 -14 10 -25 11 -38 4 -10 -5 -21 -7 -24 -4 -4 3 -12 1 -20
-5 -7 -7 -28 -9 -49 -6 -32 5 -35 4 -32 -16 2 -17 -2 -22 -22 -23 -46 -2 -50
-4 -62 -29 -6 -14 -18 -25 -27 -25 -10 0 -12 -3 -5 -8 6 -4 14 -17 18 -29 6
-17 3 -23 -8 -23 -23 0 -19 -15 9 -34 15 -10 46 -16 81 -16 47 0 57 3 61 20 6
23 14 25 31 8 10 -10 17 -10 32 0 17 10 25 9 47 -5 29 -19 42 -23 96 -28 20
-1 37 1 37 6 0 5 9 9 19 9 11 0 23 5 26 10 3 6 15 10 27 10 13 0 18 5 15 13
-4 10 2 13 20 9 18 -3 25 0 30 17 6 22 18 27 28 11 3 -6 17 -7 30 -4 18 4 25
1 30 -16 4 -14 12 -19 22 -16 29 11 63 -5 63 -29 0 -15 11 -32 30 -45 34 -24
40 -44 10 -35 -23 7 -23 5 -11 -29 7 -17 7 -26 -2 -30 -7 -2 -5 -5 5 -5 9 -1
35 -17 58 -36 48 -40 90 -47 90 -15 0 17 7 20 45 20 39 0 45 3 51 25 8 32 17
32 39 -2 16 -24 16 -27 1 -38 -14 -11 -14 -14 -1 -25 8 -7 13 -24 11 -39 -3
-30 -33 -81 -47 -81 -5 0 -15 -11 -21 -25 -8 -18 -17 -24 -30 -19 -14 4 -17 1
-16 -18 2 -17 -3 -24 -19 -26 -15 -2 -23 -11 -25 -30 -3 -23 -7 -27 -33 -24
-16 2 -34 8 -39 13 -15 14 -36 11 -36 -6 0 -12 -4 -13 -19 -5 -11 5 -36 10
-55 10 -30 0 -37 -5 -52 -35 -13 -27 -15 -49 -10 -92 5 -47 4 -54 -9 -49 -9 3
-15 0 -15 -9 0 -10 -10 -15 -30 -15 -25 0 -30 -4 -30 -24 0 -29 -3 -31 -49
-41 -31 -7 -33 -5 -29 13 3 12 -2 26 -13 36 -11 9 -19 13 -19 11 0 -3 -9 -1
-21 5 -17 10 -23 7 -40 -13 -16 -21 -25 -24 -58 -20 -37 5 -39 4 -46 -26 -3
-17 -3 -36 1 -42 5 -9 2 -10 -9 -6 -10 3 -17 2 -17 -3 0 -6 7 -10 17 -10 13 0
11 -4 -7 -20 -13 -11 -26 -20 -29 -20 -14 0 -30 -63 -21 -81 12 -22 3 -48 -27
-76 -23 -23 -22 -53 3 -53 18 0 8 -82 -12 -93 -8 -4 -14 -14 -14 -21 0 -10
-18 -13 -72 -11 -83 3 -95 5 -117 23 -9 7 -20 13 -26 13 -5 1 -19 8 -30 15
-28 20 -43 18 -77 -11 -35 -29 -52 -31 -104 -8 -22 9 -41 17 -44 18 -3 0 -12
5 -20 10 -28 17 -46 12 -48 -14 -1 -14 -7 -28 -13 -32 -8 -5 -8 -8 0 -13 6 -4
11 -16 11 -28 0 -15 5 -19 20 -15 16 4 20 0 20 -20 0 -25 1 -26 20 -8 11 10
17 22 14 26 -3 5 -1 9 5 9 25 0 43 -15 56 -47 18 -44 18 -43 0 -43 -20 0 -30
-27 -17 -43 17 -20 -52 -14 -73 6 -23 23 -36 21 -68 -9 -16 -14 -30 -24 -31
-23 -2 2 -9 14 -15 27 -10 19 -10 23 1 20 18 -3 58 24 58 39 0 7 -6 13 -12 13
-8 1 -6 6 4 14 13 10 15 15 6 24 -7 7 -18 12 -25 12 -6 0 -31 18 -55 40 -47
43 -58 48 -58 25 0 -9 -6 -12 -15 -9 -11 5 -15 -1 -15 -20 0 -15 -7 -29 -15
-32 -8 -4 -12 -10 -9 -16 3 -5 12 -7 19 -4 15 5 29 -20 19 -35 -16 -26 24 -66
106 -105 25 -12 24 -12 -11 -13 -111 -3 -132 -13 -155 -73 -3 -10 -13 -18 -20
-18 -8 0 -14 -5 -14 -10 0 -6 -13 -5 -33 4 -31 13 -34 12 -62 -15 -15 -16 -32
-29 -37 -29 -4 0 -8 -4 -8 -10 0 -5 7 -10 15 -10 12 0 10 -9 -9 -42 -17 -31
-31 -44 -50 -46 -22 -3 -25 -7 -20 -26 5 -21 0 -25 -40 -37 -39 -11 -43 -15
-34 -32 6 -11 6 -17 0 -14 -5 4 -19 -4 -31 -17 -19 -20 -20 -25 -7 -35 15 -13
12 -68 -5 -103 -6 -10 -5 -18 3 -20 6 -2 17 -26 24 -54 6 -27 15 -57 19 -66 5
-13 3 -18 -9 -18 -13 0 -16 -14 -16 -89 l0 -89 -36 -32 c-27 -23 -34 -34 -25
-43 6 -6 11 -21 11 -32 0 -12 9 -30 20 -40 11 -10 20 -25 20 -34 0 -9 6 -25
14 -36 7 -11 14 -24 14 -30 1 -5 9 -12 19 -14 9 -2 33 -15 51 -29 28 -21 37
-24 53 -14 10 7 28 12 39 12 17 0 18 3 8 25 -10 22 -9 29 9 47 l21 21 31 -23
c22 -15 30 -27 26 -40 -5 -14 -2 -17 14 -13 13 3 23 -2 32 -19 7 -12 12 -26
11 -30 -1 -4 2 -18 7 -32 8 -19 6 -28 -10 -42 -10 -9 -19 -29 -19 -43 0 -15
-7 -37 -16 -49 -17 -25 -20 -69 -9 -138 6 -38 4 -43 -23 -63 -17 -12 -40 -37
-52 -56 -12 -19 -33 -38 -46 -41 -13 -3 -24 -10 -24 -15 0 -5 -9 -9 -20 -9
-11 0 -20 -4 -20 -8 0 -5 -12 -15 -26 -23 l-26 -13 24 -21 c31 -26 60 -73 49
-77 -5 -2 -10 -16 -11 -33 -4 -53 -1 -58 22 -52 12 4 28 1 36 -5 8 -7 31 -13
53 -13 24 -1 47 -9 61 -22 19 -18 31 -20 69 -16 41 5 48 3 54 -16 3 -11 4 -25
1 -30 -4 -5 1 -17 10 -25 9 -9 13 -23 10 -31 -3 -9 0 -12 10 -8 12 4 14 -2 13
-28 -2 -19 3 -44 9 -56 18 -33 24 -153 7 -159 -10 -4 -10 -11 2 -36 13 -25 14
-36 3 -69 -7 -21 -17 -36 -21 -33 -5 3 -16 -13 -25 -35 -14 -35 -19 -40 -39
-35 -20 5 -23 3 -18 -16 4 -16 0 -23 -16 -27 -17 -4 -20 -10 -14 -27 4 -11 6
-32 6 -46 -1 -25 35 -86 44 -76 3 3 18 -3 33 -14 34 -24 73 -26 90 -5 7 9 19
14 27 11 8 -4 13 2 13 15 0 20 2 20 23 6 12 -8 36 -17 54 -21 27 -6 33 -4 49
23 19 33 51 46 71 29 9 -8 13 -7 13 2 0 7 7 10 14 7 11 -4 13 -1 9 10 -5 14
-3 14 22 1 22 -12 37 -13 67 -5 28 7 43 6 51 -2 8 -8 8 -11 -1 -11 -7 0 -12
-4 -12 -9 0 -5 11 -8 24 -5 14 2 28 0 31 -6 10 -17 25 -1 25 27 0 17 -4 24
-14 20 -8 -3 -16 2 -19 13 -5 20 -7 20 68 -11 39 -15 63 -20 68 -12 3 5 32 6
64 3 45 -4 58 -9 58 -22 0 -21 34 -58 52 -58 8 0 20 -15 28 -34 8 -19 20 -38
26 -41 5 -4 8 -13 5 -21 -3 -7 0 -16 6 -20 7 -4 5 -10 -6 -16 -19 -11 -21 -56
-3 -78 7 -9 29 -17 49 -19 29 -2 40 2 50 18 7 12 23 21 35 21 12 0 28 7 37 15
8 8 20 15 26 15 6 0 9 4 5 9 -3 6 21 22 53 37 33 16 69 42 83 61 13 18 29 31
36 28 7 -2 15 0 18 4 3 5 16 4 30 -2 26 -12 34 -29 13 -24 -9 1 -12 -9 -10
-34 2 -23 -3 -41 -13 -49 -8 -7 -15 -18 -15 -25 0 -7 -18 -15 -39 -19 -22 -3
-41 -13 -45 -22 -5 -14 -1 -16 27 -11 34 5 118 -12 156 -33 17 -9 21 -8 21 6
0 15 4 14 25 -6 18 -17 25 -34 25 -62 0 -22 4 -37 9 -34 4 3 22 1 39 -4 18 -5
46 -5 64 0 18 5 47 10 63 12 38 4 66 37 58 67 -5 21 -4 22 16 9 12 -7 19 -19
16 -26 -3 -8 -5 -18 -5 -23 0 -5 -6 -9 -14 -9 -8 0 -18 -5 -21 -11 -8 -12 14
-69 26 -69 5 0 9 -7 9 -15 0 -8 -6 -15 -13 -15 -9 0 -11 -12 -9 -41 2 -22 1
-68 -3 -103 l-6 -63 -51 -24 c-28 -13 -61 -22 -74 -21 -24 3 -70 -20 -91 -47
-11 -13 -13 -12 -13 6 0 27 -18 41 -60 45 -28 2 -40 -2 -58 -24 -22 -26 -23
-36 -5 -100 3 -12 -1 -18 -13 -18 -17 0 -17 -1 -2 -16 13 -13 19 -14 37 -2 20
12 24 10 41 -10 11 -13 22 -39 26 -58 3 -19 10 -34 14 -34 15 0 19 -29 7 -54
-8 -17 -20 -26 -35 -26 -20 0 -21 -3 -12 -20 6 -12 12 -39 13 -60 2 -31 -1
-40 -13 -40 -9 0 -25 -6 -35 -14 -17 -12 -17 -15 -2 -36 22 -31 6 -51 -33 -43
-36 7 -58 -13 -52 -46 4 -19 2 -23 -12 -18 -9 4 -16 1 -16 -4 0 -6 -9 -9 -19
-6 -14 3 -18 1 -14 -9 3 -9 -2 -14 -12 -14 -14 0 -15 -3 -5 -15 6 -8 9 -23 5
-35 -5 -17 -13 -21 -32 -17 -17 3 -23 1 -19 -9 3 -8 -1 -14 -9 -14 -8 0 -15
-9 -15 -20 0 -13 -5 -18 -15 -14 -10 4 -13 2 -10 -8 8 -21 -40 -58 -76 -58
-24 0 -30 -4 -25 -15 3 -8 0 -15 -7 -15 -7 -1 -25 -11 -41 -24 -21 -17 -26
-29 -22 -44 6 -16 3 -19 -12 -15 -14 3 -22 -3 -31 -24 -6 -16 -25 -37 -41 -46
-16 -10 -31 -26 -35 -36 -6 -21 -112 -131 -125 -131 -4 0 -11 -11 -14 -25 -4
-14 -14 -29 -24 -32 -37 -15 -64 -63 -77 -140 -5 -32 -12 -42 -30 -47 -16 -4
-27 -18 -37 -48 -10 -30 -22 -44 -39 -49 -13 -4 -20 -7 -15 -8 5 -1 3 -8 -4
-16 -9 -11 -23 -14 -45 -9 -28 5 -38 1 -66 -25 -17 -17 -38 -31 -45 -31 -8 0
-11 -9 -8 -27 6 -31 11 -39 20 -30 4 4 1 13 -6 22 -16 19 -1 19 24 0 10 -8 23
-12 27 -9 5 3 14 -6 21 -20 6 -14 19 -26 29 -26 10 0 21 -5 24 -10 4 -6 13 -7
24 -1 15 8 20 4 31 -25 10 -24 18 -33 30 -29 13 4 25 -10 49 -54 l31 -60 -35
-33 c-19 -18 -42 -39 -51 -47 -14 -12 -16 -29 -11 -98 2 -45 2 -83 -3 -83 -4
0 -12 -31 -19 -70 -7 -38 -16 -70 -21 -70 -4 0 -11 -11 -14 -24 -4 -15 -17
-28 -36 -34 -19 -7 -30 -18 -30 -30 0 -10 -13 -36 -30 -58 -16 -21 -30 -43
-30 -48 0 -4 -13 -24 -30 -43 -16 -18 -30 -40 -30 -48 0 -8 -9 -15 -20 -15
-13 0 -25 -11 -33 -27 -6 -16 -18 -33 -26 -39 -8 -6 -11 -15 -8 -21 8 -13 -11
-83 -28 -100 -8 -7 -21 -13 -30 -13 -9 0 -18 -12 -21 -30 -4 -16 -10 -30 -15
-30 -14 0 -37 -64 -27 -76 10 -14 -4 -55 -26 -73 -11 -10 -13 -18 -6 -32 6
-10 10 -22 9 -26 -6 -37 22 -36 54 1 17 21 17 21 11 -9 -4 -16 -11 -32 -16
-33 -38 -15 -50 -77 -15 -77 10 0 25 -9 33 -19 12 -17 11 -22 -11 -44 -14 -14
-25 -29 -25 -34 0 -14 21 -52 34 -60 19 -13 46 -9 46 7 0 8 9 15 20 15 13 0
20 7 20 19 0 11 9 22 19 26 21 6 18 39 -6 63 -7 7 -12 28 -10 46 2 32 2 32 45
26 23 -4 53 -17 65 -28 13 -12 31 -22 41 -22 25 0 75 -28 120 -66 42 -36 59
-43 50 -20 -3 8 3 16 16 19 14 4 19 10 14 18 -5 9 5 10 43 5 43 -5 52 -4 57
11 3 10 9 24 12 31 3 7 -2 12 -13 12 -13 0 -9 6 15 21 26 17 35 19 47 9 13
-10 15 -8 15 13 0 14 5 29 11 33 6 3 8 16 4 28 -3 11 -8 39 -11 61 -2 22 -7
46 -9 53 -9 24 35 50 75 45 33 -5 62 -5 93 -3 74 7 152 -21 144 -52 -6 -21 22
-33 29 -13 3 8 14 17 25 20 27 9 24 47 -6 75 -30 28 -32 40 -6 40 29 0 32 35
5 61 -37 35 -39 57 -10 84 26 24 26 25 11 61 -14 34 -12 71 4 84 38 31 91 157
93 221 1 15 5 26 10 23 16 -10 78 26 78 45 0 10 14 32 30 49 36 38 39 82 10
130 -21 33 -21 34 -1 39 27 7 35 32 16 53 -14 16 -13 19 11 34 23 16 25 23 22
64 -3 26 -8 55 -12 65 -6 12 -4 17 7 17 21 0 29 27 15 50 -9 14 -9 28 0 58 7
22 12 50 12 64 0 28 17 48 42 48 12 0 18 7 18 21 0 12 5 19 13 16 24 -8 34 23
24 71 -7 33 -6 51 2 64 13 20 7 38 -12 38 -15 1 -52 50 -37 50 5 0 10 5 10 10
0 14 -33 13 -48 -2 -18 -18 -21 -7 -15 41 l6 43 44 -6 c31 -4 42 -2 37 5 -4 6
-3 14 2 18 30 20 34 85 7 87 -31 2 -35 5 -29 19 3 8 -2 19 -12 24 -12 7 -13
10 -3 11 10 0 12 8 8 30 -6 25 -3 30 14 30 11 0 30 -10 43 -22 35 -34 43 -31
41 15 -2 28 3 48 13 60 10 11 16 35 16 58 -1 32 2 39 17 39 11 0 19 6 19 13 0
6 16 28 36 47 20 19 44 51 54 71 10 19 26 41 34 48 9 8 16 21 16 31 0 11 15
23 45 34 36 14 45 22 45 41 0 13 5 27 10 30 6 4 8 15 5 26 -4 13 -2 19 8 19
18 0 29 73 16 106 -5 15 -5 33 2 48 8 17 8 29 -1 46 -6 12 -10 22 -8 23 31 16
43 28 50 52 4 16 14 33 23 38 9 5 14 16 11 25 -4 11 6 26 29 45 27 22 39 25
58 18 28 -11 53 1 42 19 -5 9 -4 11 3 6 15 -9 47 24 47 50 0 11 -8 29 -18 39
-13 12 -16 26 -12 42 3 14 3 33 0 43 -6 17 -8 18 -34 2 -28 -16 -30 -16 -74
21 -25 20 -50 37 -56 37 -6 0 -16 9 -23 20 -7 11 -18 20 -24 20 -7 0 -21 19
-33 42 -15 32 -18 44 -8 50 9 6 9 10 -1 20 -6 6 -12 24 -12 39 0 32 -26 63
-46 55 -8 -3 -14 -1 -14 4 0 6 4 10 10 10 5 0 7 13 4 30 -4 19 -2 30 5 30 6 0
11 -4 11 -10 0 -16 38 -11 48 6 6 11 11 13 16 5 4 -6 14 -11 21 -11 20 0 8 28
-24 58 -23 20 -24 22 -5 17 29 -8 88 59 74 85 -5 10 -7 27 -4 37 5 15 4 15 -5
3 -6 -8 -11 -10 -11 -5 0 6 -4 4 -9 -4 -8 -12 -12 -12 -25 -2 -21 17 -21 7 0
-13 14 -15 14 -16 -5 -16 -12 0 -21 6 -21 15 0 8 -5 14 -12 12 -7 -1 -13 4
-14 11 -1 6 -2 13 -3 15 -1 1 -4 16 -7 34 -3 24 1 33 14 36 16 4 16 5 -1 6
-10 0 -20 -6 -23 -14 -4 -8 -12 -15 -20 -15 -8 0 -14 -10 -14 -23 0 -12 -8
-33 -17 -46 -9 -14 -11 -21 -5 -17 8 5 12 0 12 -14 0 -14 -5 -20 -17 -18 -13
2 -18 -4 -18 -21 0 -30 31 -53 44 -32 7 11 11 9 21 -9 9 -18 9 -24 0 -30 -7
-4 -9 -13 -6 -19 4 -6 1 -11 -8 -11 -9 0 -18 11 -22 23 -4 18 -11 23 -27 20
-14 -3 -30 3 -41 16 -14 15 -23 18 -31 11 -17 -14 -45 -2 -45 20 0 9 -9 25
-20 35 -12 11 -20 31 -20 50 0 17 -5 36 -11 42 -16 16 -38 5 -32 -17 6 -23
-25 -34 -67 -25 -22 5 -32 3 -36 -9 -3 -9 -15 -16 -25 -16 -30 0 -22 17 14 29
32 11 82 55 147 130 19 22 41 40 48 41 9 0 11 7 7 20 -9 28 14 26 43 -4 23
-25 31 -52 10 -40 -7 5 -8 3 -3 -5 5 -9 10 -10 18 -2 6 6 20 11 32 11 12 0 26
5 31 10 7 7 19 8 36 1 14 -5 28 -7 31 -5 7 8 -30 44 -45 45 -7 0 5 7 27 15 21
8 42 18 45 22 14 19 72 52 81 47 5 -4 25 6 43 22 19 15 46 36 60 46 18 12 26
27 26 47 0 19 5 30 14 30 15 0 102 148 97 165 -13 39 -12 45 4 45 13 0 15 6
10 29 -5 24 -2 29 16 34 21 6 21 7 6 31 -10 14 -17 34 -17 44 0 10 -11 33 -25
52 -25 35 -33 70 -15 70 6 0 10 6 10 14 0 8 7 16 15 20 8 3 15 14 15 25 0 11
7 27 16 35 14 15 12 16 -20 16 -20 0 -36 -4 -36 -9 0 -5 -8 -12 -19 -16 -10
-3 -21 -18 -24 -34 -3 -16 -13 -31 -21 -34 -9 -4 -13 -1 -10 6 2 7 -6 17 -18
22 -12 6 -25 23 -29 39 -7 23 -4 29 12 33 11 3 19 14 19 25 0 17 4 19 26 14
23 -6 25 -4 19 11 -4 10 -10 29 -13 43 -2 14 -9 30 -14 37 -7 9 -2 14 19 18
74 17 102 49 79 94 -20 39 -11 101 15 101 11 0 19 7 19 15 0 10 10 15 28 15
23 0 33 8 48 35 22 41 25 42 49 15 10 -11 21 -17 24 -13 19 26 60 35 110 24
47 -10 57 -9 111 14 33 14 64 25 70 25 20 0 42 30 37 49 -2 11 4 26 14 35 12
9 19 29 19 49 0 28 4 33 22 33 15 -1 24 6 26 19 6 31 23 49 33 33 10 -16 89
-11 107 6 9 9 29 12 56 9 30 -4 51 0 69 12 14 9 35 15 45 13 11 -2 30 6 42 17
20 18 23 19 34 3 17 -23 73 -19 156 10 8 2 34 4 57 4 25 -1 46 5 54 14 19 23
35 0 32 -48 -4 -66 -4 -69 0 -126 4 -41 1 -57 -14 -76 -11 -15 -15 -26 -8 -28
5 -2 13 -22 16 -46 5 -34 3 -42 -11 -42 -9 0 -16 -4 -16 -10 0 -5 -7 -10 -15
-10 -23 0 -18 -17 8 -25 12 -4 26 -7 31 -6 4 1 17 -1 28 -5 22 -7 20 -31 -10
-93 -9 -19 -15 -45 -14 -58 1 -13 -4 -23 -12 -23 -10 0 -11 -7 -2 -35 7 -21
16 -33 23 -30 36 13 60 -44 31 -73 -9 -9 -3 -12 28 -14 21 0 45 -1 52 -1 7 1
11 -7 10 -16 -3 -13 7 -16 62 -16 55 0 68 3 83 23 19 23 70 31 82 12 13 -21
25 -8 26 28 0 34 1 35 11 14 8 -16 8 -29 -1 -49 -10 -21 -9 -29 1 -38 18 -15
71 -37 64 -26 -3 5 6 21 19 35 14 15 25 34 25 42 0 8 11 25 25 38 14 13 25 28
25 33 0 5 -11 20 -25 33 -14 13 -25 31 -25 40 0 8 -6 25 -14 35 -8 11 -16 38
-17 60 -4 35 -1 40 16 39 11 -1 28 -5 38 -9 13 -5 17 -2 17 14 0 12 6 21 15
21 8 0 15 5 15 10 0 6 9 10 19 10 11 0 22 9 26 19 6 19 32 34 51 30 20 -3 32
2 38 16 4 11 -9 25 -41 45 -26 17 -39 30 -30 30 20 0 34 45 18 63 -6 8 -7 18
-2 23 5 5 6 26 4 47 -4 28 -10 37 -24 37 -10 0 -19 7 -19 15 0 10 -10 15 -31
15 -25 0 -29 3 -24 19 3 11 2 22 -3 25 -6 3 -12 -3 -15 -13 -4 -19 -58 -36
-67 -22 -11 17 -48 31 -52 20 -4 -13 -35 -1 -42 17 -3 8 5 24 19 36 29 25 31
45 9 76 -8 12 -11 22 -6 22 14 0 20 68 8 80 -7 7 -2 10 13 10 21 0 23 3 17 32
-3 18 -10 36 -14 40 -14 14 -49 -25 -48 -52 1 -16 -4 -24 -12 -22 -17 3 -43
-23 -34 -33 4 -5 -1 -5 -11 -2 -14 5 -20 2 -24 -13 -3 -11 -9 -20 -13 -20 -4
0 -10 -14 -14 -30 -4 -22 -15 -35 -38 -45 -18 -8 -27 -14 -20 -15 19 0 14 -24
-8 -43 -18 -15 -25 -16 -48 -5 -30 15 -46 56 -17 45 17 -7 13 5 -12 35 -13 14
-12 20 2 47 15 29 14 32 -5 53 -11 12 -22 19 -25 16 -3 -2 4 -13 14 -22 18
-17 18 -19 3 -47 -10 -16 -22 -27 -29 -25 -7 3 -13 -6 -15 -21 -4 -34 -55 -74
-68 -53 -6 9 -3 18 9 27 10 7 24 26 31 43 10 23 17 29 31 25 23 -8 25 15 7 65
-10 30 -9 35 12 52 18 15 21 21 11 27 -30 19 25 131 64 131 36 0 7 57 -37 73
-9 3 -28 27 -41 54 -79 157 -76 153 -102 153 -19 0 -29 9 -43 38 -22 47 -35
56 -44 31 -6 -15 -13 -18 -33 -13 -15 4 -25 2 -25 -5 0 -15 -26 -14 -60 4 -18
9 -30 24 -30 35 0 15 -10 20 -45 26 -25 3 -45 11 -45 16 0 6 6 8 14 5 10 -4
12 0 9 13 -4 14 2 21 21 26 33 8 31 33 -4 51 -27 13 -60 66 -60 96 0 10 -12
28 -26 41 -22 18 -25 26 -16 42 7 13 7 25 0 38 -7 13 -7 20 0 25 11 7 11 28 0
46 -4 6 -3 17 3 25 14 23 11 32 -10 25 -22 -7 -76 49 -65 67 4 6 3 8 -3 5 -6
-4 -18 -1 -28 7 -16 11 -23 33 -29 95 -2 13 -17 37 -35 53 -27 25 -39 29 -66
24 -22 -4 -36 -2 -44 8 -6 8 -20 12 -31 9 -14 -4 -23 2 -31 20 -6 14 -21 27
-33 29 -13 2 -25 14 -31 33 -5 17 -20 45 -33 63 -13 17 -21 32 -18 32 3 0 -3
18 -15 39 -15 30 -28 40 -53 45 -38 7 -69 -1 -60 -16 7 -11 -40 17 -71 42 -11
9 -36 23 -55 30 -19 8 -55 33 -80 57 -36 35 -50 43 -71 39 -24 -4 -30 1 -57
54 -29 54 -30 60 -14 69 22 13 5 45 -27 49 -32 5 -75 93 -60 125 9 20 6 31
-21 70 -28 42 -34 46 -62 40 -30 -6 -30 -6 -26 30 3 26 0 37 -9 37 -7 0 -13 7
-13 15 0 10 -10 15 -34 15 -19 0 -41 6 -48 13 -23 23 -88 43 -88 26 0 -4 -8
-6 -17 -5 -10 0 -17 -5 -15 -12 2 -10 -2 -10 -18 -2 -11 6 -20 15 -20 19 0 5
-15 6 -33 1 -27 -6 -39 -3 -63 16 -16 13 -23 24 -16 24 17 0 15 45 -3 60 -8 7
-15 19 -15 27 0 7 -6 16 -14 19 -8 3 -19 19 -25 35 -10 28 -53 56 -59 38 -4
-10 -44 11 -55 29 -4 6 -19 12 -32 12 -13 0 -25 5 -27 10 -2 7 -13 7 -34 0
-21 -8 -39 -8 -58 0 -45 17 -83 13 -89 -10z m583 -338 c0 -20 -23 -31 -43 -20
-16 8 -17 12 -6 19 18 11 49 12 49 1z m-210 -156 c0 -73 0 -73 -25 -68 -14 2
-22 8 -19 14 3 5 1 14 -4 21 -25 32 -24 58 5 83 15 13 31 24 36 24 4 0 7 -33
7 -74z m280 50 c0 -3 -4 -8 -10 -11 -5 -3 -10 -1 -10 4 0 6 5 11 10 11 6 0 10
-2 10 -4z m-384 -48 c-13 -7 -14 -13 -6 -23 9 -10 7 -20 -5 -39 -24 -37 -41
-32 -53 14 -11 43 -10 45 17 30 14 -7 21 -4 31 15 7 13 17 22 23 18 5 -3 2
-10 -7 -15z m-76 -58 c0 -5 -5 -10 -11 -10 -5 0 -7 5 -4 10 3 6 8 10 11 10 2
0 4 -4 4 -10z m-1364 -1455 c-3 -8 -15 -15 -27 -15 l-22 0 24 26 c23 24 37 19
25 -11z m204 -695 c0 -5 -4 -10 -10 -10 -5 0 -10 5 -10 10 0 6 5 10 10 10 6 0
10 -4 10 -10z m-60 -180 c0 -33 -15 -38 -46 -15 -13 10 -14 14 -5 15 11 0 11
3 1 15 -11 13 -8 15 19 15 28 0 31 -3 31 -30z m-330 0 c0 -5 -4 -10 -10 -10
-5 0 -10 5 -10 10 0 6 5 10 10 10 6 0 10 -4 10 -10z m425 -140 c3 -5 -1 -10
-10 -10 -9 0 -13 5 -10 10 3 6 8 10 10 10 2 0 7 -4 10 -10z m1429 -1034 c9 3
16 1 16 -5 0 -7 11 -23 24 -35 31 -32 39 -55 20 -63 -13 -5 -13 -8 1 -30 9
-13 15 -36 13 -50 l-3 -25 -27 22 c-16 12 -28 18 -28 14 0 -5 -5 -3 -12 4 -7
7 -21 12 -31 12 -11 0 -25 7 -31 16 -10 12 -19 14 -46 6 -20 -5 -34 -15 -32
-22 2 -9 -4 -11 -20 -6 -13 3 -26 6 -30 6 -5 0 -8 9 -8 19 0 11 -9 22 -19 26
-14 4 -71 84 -71 99 0 0 20 1 44 1 44 0 96 -30 96 -55 0 -7 7 -7 21 0 11 6 18
17 16 23 -2 6 13 24 32 38 30 23 38 25 47 13 6 -8 19 -12 28 -8z m-309 4 c3
-5 2 -10 -4 -10 -5 0 -13 5 -16 10 -3 6 -2 10 4 10 5 0 13 -4 16 -10z m460
-540 c3 -5 1 -10 -4 -10 -6 0 -11 5 -11 10 0 6 2 10 4 10 3 0 8 -4 11 -10z
m-32 -122 c-27 -7 -49 1 -25 9 6 3 10 8 7 13 -3 4 6 3 20 -3 l24 -12 -26 -7z"/>
<path d="M9270 13275 c0 -8 -6 -12 -13 -9 -14 5 -17 -29 -4 -42 3 -4 2 -15 -4
-25 -6 -13 -6 -25 1 -39 15 -28 23 -25 16 5 -6 22 -3 25 19 25 22 0 25 4 25
35 0 22 6 38 15 41 27 11 16 24 -20 24 -24 0 -35 -5 -35 -15z"/>
<path d="M9255 13120 c-3 -5 -1 -10 4 -10 6 0 11 5 11 10 0 6 -2 10 -4 10 -3
0 -8 -4 -11 -10z"/>
<path d="M9600 12460 c0 -5 5 -10 10 -10 6 0 10 5 10 10 0 6 -4 10 -10 10 -5
0 -10 -4 -10 -10z"/>
<path d="M8737 10654 c2 -6 11 -11 18 -10 26 4 26 13 1 18 -16 3 -23 1 -19 -8z"/>
<path d="M13002 10591 c2 -9 14 -18 28 -19 14 -2 31 -9 39 -15 12 -10 13 -8 8
13 -4 14 -7 28 -7 32 0 3 -16 6 -35 5 -27 -1 -35 -5 -33 -16z"/>
<path d="M8511 9961 c-13 -10 -20 -21 -15 -24 5 -3 19 6 31 19 25 28 18 31
-16 5z"/>
<path d="M10632 9288 c2 -6 10 -14 18 -16 8 -3 10 0 5 9 -4 8 3 4 16 -9 23
-22 23 -24 6 -37 -17 -12 -16 -14 13 -35 16 -12 30 -18 30 -14 0 3 6 1 14 -5
10 -8 16 -9 21 -1 9 15 12 110 3 110 -4 0 -8 -5 -8 -10 0 -6 -13 -4 -30 5 -35
18 -93 20 -88 3z"/>
<path d="M10780 9200 c0 -5 5 -10 11 -10 5 0 7 5 4 10 -3 6 -8 10 -11 10 -2 0
-4 -4 -4 -10z"/>
<path d="M8860 9081 c0 -5 5 -13 10 -16 6 -3 10 -2 10 4 0 5 -4 13 -10 16 -5
3 -10 2 -10 -4z"/>
<path d="M10656 8933 c-9 -9 -7 -33 3 -33 12 0 22 28 12 34 -5 3 -11 3 -15 -1z"/>
<path d="M10034 8563 c-10 -13 -27 -23 -36 -23 -9 0 -20 -4 -23 -10 -3 -5 -15
-10 -26 -10 -16 0 -18 -5 -13 -27 4 -16 15 -34 25 -40 9 -7 27 -29 39 -49 13
-19 34 -40 48 -45 27 -10 44 -3 23 10 -10 7 -8 13 10 30 12 11 31 23 42 27 14
5 17 12 12 31 -4 16 -1 29 6 34 12 7 -3 25 -63 74 l-24 20 -20 -22z"/>
<path d="M10330 7239 c0 -5 5 -7 10 -4 6 3 10 8 10 11 0 2 -4 4 -10 4 -5 0
-10 -5 -10 -11z"/>
<path d="M9120 6905 c0 -5 5 -17 10 -25 5 -8 10 -10 10 -5 0 6 -5 17 -10 25
-5 8 -10 11 -10 5z"/>
<path d="M9125 6820 c3 -5 8 -10 11 -10 2 0 4 5 4 10 0 6 -5 10 -11 10 -5 0
-7 -4 -4 -10z"/>
<path d="M8860 5180 c0 -5 5 -10 11 -10 5 0 7 5 4 10 -3 6 -8 10 -11 10 -2 0
-4 -4 -4 -10z"/>
<path d="M8825 5160 c3 -5 10 -10 16 -10 5 0 9 5 9 10 0 6 -7 10 -16 10 -8 0
-12 -4 -9 -10z"/>
<path d="M8825 5075 c-8 -30 -22 -55 -30 -57 -9 -2 -11 -8 -6 -16 11 -19 61 5
61 30 0 10 9 27 20 38 23 23 15 52 -13 56 -12 1 -21 -14 -32 -51z"/>
<path d="M8775 4950 c3 -5 11 -10 16 -10 6 0 7 5 4 10 -3 6 -11 10 -16 10 -6
0 -7 -4 -4 -10z"/>
</g>
</svg>
