<?xml version="1.0" standalone="no"?>
<!DOCTYPE svg PUBLIC "-//W3C//DTD SVG 20010904//EN"
 "http://www.w3.org/TR/2001/REC-SVG-20010904/DTD/svg10.dtd">
<svg version="1.0" xmlns="http://www.w3.org/2000/svg"
 width="383.954104pt" height="390.968674pt" viewBox="0 0 383.954104 390.968674"
 preserveAspectRatio="xMidYMid meet">
<metadata>
Created by potrace 1.15, written by Peter Selinger 2001-2017
</metadata>
<g transform="translate(-828.325435,1182.968674) scale(0.100000,-0.100000)"
fill="#222222" stroke="none">
<path d="M9324 11815 c21 -16 32 -13 21 4 -3 6 -14 11 -23 11 -15 -1 -15 -2 2
-15z"/>
<path d="M9312 11746 c11 -8 14 -16 8 -22 -13 -13 13 -60 31 -56 8 2 28 4 45
4 31 0 32 2 30 39 -2 34 -16 70 -16 41 0 -13 -27 -12 -49 2 -10 6 -12 5 -7 -2
4 -7 3 -12 -3 -12 -5 0 -13 5 -16 10 -3 6 -14 10 -23 10 -16 -1 -16 -2 0 -14z"/>
<path d="M9376 11634 c-3 -9 4 -25 19 -40 22 -21 25 -34 25 -90 0 -56 3 -68
25 -88 28 -26 32 -46 10 -46 -10 0 -28 -25 -45 -62 -27 -56 -28 -64 -14 -79
10 -11 13 -26 8 -43 l-6 -26 -28 20 c-24 17 -29 18 -34 5 -3 -9 0 -15 8 -15
13 0 31 -29 23 -36 -2 -2 -22 -5 -46 -8 -43 -3 -91 -37 -91 -63 0 -7 -9 -13
-20 -13 -13 0 -28 -13 -41 -35 -12 -19 -25 -35 -30 -35 -5 0 -9 -7 -9 -15 0
-8 -7 -15 -16 -15 -12 0 -15 -7 -12 -30 4 -25 1 -30 -16 -30 -12 0 -34 -7 -49
-15 -15 -8 -33 -12 -40 -9 -10 3 -13 -12 -14 -61 0 -36 -6 -71 -12 -79 -10
-12 -9 -20 4 -39 9 -14 13 -32 9 -42 -6 -14 -3 -16 14 -10 23 7 29 -4 12 -21
-7 -7 0 -22 22 -47 67 -74 68 -76 42 -101 -12 -12 -20 -13 -35 -5 -11 5 -17
14 -14 19 3 4 -1 10 -7 13 -10 3 -10 9 0 26 14 25 7 45 -14 37 -8 -3 -14 0
-15 7 -1 7 -2 21 -3 31 0 11 -7 21 -15 24 -9 3 -11 0 -6 -7 4 -7 -2 -23 -15
-36 -13 -14 -20 -31 -17 -39 4 -9 2 -18 -4 -22 -6 -3 -9 -20 -7 -37 l3 -32
-59 3 c-48 2 -57 0 -53 -12 7 -18 -37 -56 -65 -56 -14 0 -18 -5 -14 -15 7 -18
-29 -39 -56 -32 -25 7 -68 -9 -68 -24 0 -20 -45 -54 -65 -50 -11 2 -17 0 -13
-4 3 -4 -2 -15 -13 -26 -25 -25 -26 -54 -1 -44 9 4 25 10 35 12 9 3 17 8 17
12 1 3 9 17 20 29 16 20 22 22 33 10 18 -17 27 -57 16 -64 -14 -8 -11 -24 5
-24 19 0 36 23 38 53 2 25 20 29 49 11 6 -3 14 -1 18 5 5 7 13 1 22 -16 8 -16
18 -31 24 -35 5 -4 2 -10 -8 -14 -12 -4 -16 -13 -12 -25 4 -11 2 -19 -4 -19
-23 0 -10 -49 20 -79 17 -17 28 -35 24 -40 -6 -10 11 -24 34 -28 41 -6 61 -15
61 -27 0 -7 12 -18 26 -24 14 -7 23 -8 19 -2 -9 14 18 12 34 -2 9 -8 11 -8 8
-2 -4 7 0 25 8 40 10 20 15 23 15 12 0 -10 5 -18 10 -18 6 0 10 4 10 10 0 5 8
6 17 3 11 -4 12 -8 5 -11 -7 -2 -12 -10 -12 -18 0 -8 -4 -14 -10 -14 -15 0
-12 -29 5 -46 22 -22 19 -43 -5 -37 -14 4 -20 0 -20 -10 0 -8 -6 -17 -12 -20
-10 -3 -10 -9 0 -26 13 -23 16 -50 5 -52 -44 -7 -64 -6 -68 2 -4 5 2 9 11 9
13 0 9 7 -14 30 -18 17 -39 30 -49 30 -9 0 -25 8 -35 17 -14 13 -21 14 -27 5
-10 -17 -4 -111 9 -126 5 -8 8 -21 4 -29 -4 -12 0 -16 18 -15 12 1 28 6 35 11
15 11 33 1 33 -19 0 -8 5 -14 10 -14 16 0 12 -60 -5 -66 -19 -8 -56 -71 -50
-87 3 -7 -8 -18 -25 -25 -16 -8 -30 -20 -30 -27 0 -7 -13 -19 -30 -27 -16 -7
-30 -16 -30 -21 0 -4 -9 -17 -20 -29 l-19 -21 34 -39 c28 -30 35 -46 35 -78 0
-28 7 -47 22 -62 l22 -22 -22 -9 c-16 -8 -20 -16 -16 -33 4 -17 1 -26 -11 -30
-13 -6 -15 -17 -11 -65 2 -32 14 -78 24 -103 18 -39 18 -47 6 -71 -8 -15 -11
-32 -8 -37 4 -6 -2 -8 -15 -3 -21 6 -25 -1 -24 -42 0 -6 -10 -14 -23 -17 -25
-7 -32 -34 -13 -53 8 -8 8 -17 -1 -32 -6 -12 -8 -26 -5 -31 4 -6 -4 -14 -17
-19 -25 -11 -22 -13 22 -15 18 0 30 4 30 12 0 6 5 12 10 12 6 0 10 -13 10 -30
0 -39 29 -64 98 -84 54 -15 58 -15 82 2 14 11 30 28 36 40 10 21 11 21 31 -6
18 -24 23 -25 42 -14 11 6 36 12 55 12 24 0 36 5 38 16 3 14 7 13 30 -5 14
-12 28 -17 30 -11 2 6 20 -3 40 -20 20 -17 50 -33 68 -36 33 -7 50 -29 50 -66
0 -28 29 -108 47 -129 7 -8 13 -21 13 -27 0 -6 7 -9 15 -6 10 4 13 14 9 30 -5
19 -1 26 17 33 13 5 20 10 15 10 -5 1 -1 10 9 21 18 20 18 21 -13 46 -17 15
-38 37 -47 51 -16 24 -16 26 11 54 15 16 33 29 39 29 12 0 45 36 45 49 0 5 11
23 24 39 17 20 26 43 27 75 2 33 7 47 19 50 13 3 16 12 12 36 -2 17 0 31 5 31
6 0 8 11 6 24 -4 19 0 25 21 30 15 4 24 11 21 16 -3 6 -1 10 4 10 7 0 10 27 8
75 -2 41 0 75 4 75 8 0 -5 28 -34 71 l-18 26 46 48 c38 38 44 49 34 61 -18 22
1 36 50 37 35 2 41 5 37 20 -3 14 2 17 29 17 45 0 65 9 65 29 0 10 11 23 25
29 14 6 25 18 25 26 0 8 11 28 24 43 23 28 29 29 88 27 50 -3 67 1 83 16 14
13 25 16 35 10 21 -13 43 -12 34 1 -4 7 3 6 17 -2 13 -7 30 -12 37 -11 7 2 31
-15 53 -37 21 -23 45 -41 53 -41 27 0 38 -26 23 -56 -13 -25 -12 -28 29 -66
42 -39 56 -79 24 -71 -8 2 -27 -8 -42 -22 -15 -14 -32 -25 -38 -25 -19 0 -42
-30 -36 -45 7 -20 -14 -65 -31 -65 -8 0 -13 -6 -12 -12 5 -28 -14 -88 -27 -88
-21 0 -17 -14 12 -39 25 -21 25 -23 8 -42 -15 -16 -16 -24 -6 -58 15 -49 15
-48 -6 -53 -12 -3 -25 -24 -35 -54 -14 -44 -14 -51 -1 -72 9 -13 17 -34 18
-47 1 -13 8 -31 15 -39 10 -12 10 -23 3 -46 -6 -16 -7 -30 -2 -30 4 0 10 3 12
8 2 4 17 14 33 23 24 12 36 13 63 4 31 -11 74 -55 53 -55 -6 0 -7 -8 -4 -17 6
-16 5 -16 -10 -4 -24 19 -21 7 8 -39 14 -22 25 -52 25 -68 0 -34 26 -73 44
-66 7 3 16 -2 19 -10 4 -10 1 -16 -7 -16 -8 0 -16 -9 -19 -21 -3 -12 -10 -18
-15 -15 -5 3 -15 -1 -22 -9 -8 -9 -21 -13 -32 -9 -17 5 -18 3 -8 -15 9 -17 8
-22 -5 -27 -8 -3 -15 -11 -15 -16 0 -6 7 -8 15 -4 8 3 26 1 39 -4 18 -7 26 -5
30 6 3 8 12 14 20 14 9 0 13 -6 11 -12 -7 -19 13 -46 23 -31 8 13 67 -32 58
-45 -6 -10 47 -52 64 -52 5 0 10 4 10 10 0 10 114 6 143 -5 12 -5 17 -2 17 9
0 9 6 13 14 10 8 -3 17 0 21 5 4 8 15 5 31 -8 14 -11 31 -18 39 -15 15 6 65
106 65 130 0 8 7 17 15 20 8 4 15 15 15 25 0 10 5 19 11 19 5 0 7 5 4 11 -12
19 36 50 67 44 40 -9 56 10 50 62 -4 39 -1 47 27 73 17 17 38 30 46 30 8 0 15
6 15 14 0 7 11 34 25 61 20 37 23 50 14 61 -7 9 -8 14 -1 14 20 0 23 33 3 46
-10 7 -21 25 -23 38 -5 22 -1 25 30 28 29 2 39 9 54 39 12 23 34 43 66 59 39
19 49 30 49 50 0 14 4 35 8 48 6 19 3 25 -24 35 -19 7 -29 17 -26 25 2 7 -6
17 -20 22 -14 5 -25 18 -25 28 0 10 -5 23 -12 30 -8 8 -8 15 1 26 11 13 9 20
-8 42 -12 15 -21 37 -21 50 0 12 -13 37 -28 54 l-29 31 5 -33 c3 -18 14 -40
26 -49 20 -17 20 -17 1 -60 -18 -40 -45 -79 -45 -64 0 3 -12 -6 -27 -20 -28
-25 -43 -31 -43 -17 0 11 -63 13 -71 1 -3 -6 -15 5 -27 25 -12 20 -27 37 -34
37 -7 1 -22 2 -33 3 -14 1 -19 7 -17 22 3 23 -31 54 -79 73 -18 7 -19 10 -6
10 10 1 18 10 19 24 4 59 3 75 -3 71 -15 -9 -17 42 -4 63 22 33 19 53 -7 53
-21 0 -23 5 -21 45 0 25 -3 45 -8 45 -5 0 -9 7 -9 15 0 19 -18 20 -22 0 -2
-13 -8 -12 -37 5 -24 15 -32 26 -28 40 3 11 1 23 -4 26 -5 3 -7 9 -4 13 2 5
-4 16 -15 26 -19 18 -29 52 -11 41 9 -6 31 36 31 61 0 9 -7 25 -17 35 -15 16
-15 18 0 18 13 0 16 10 16 43 -1 23 6 58 14 77 8 19 12 41 10 48 -3 6 2 12 11
12 9 0 16 4 16 9 0 6 14 11 32 13 23 2 36 11 47 32 9 16 21 28 26 28 24 -1 44
31 38 60 -5 27 -4 30 15 24 15 -5 21 -2 24 11 3 14 12 17 48 14 24 -1 53 -9
63 -16 16 -11 22 -11 38 3 25 22 24 25 -12 41 -29 13 -30 14 -12 33 18 20 18
21 -14 16 -30 -4 -34 -1 -53 39 -11 23 -20 46 -20 51 0 15 45 8 57 -9 8 -11
21 -15 33 -12 16 4 18 9 9 19 -6 7 -17 10 -25 7 -18 -7 -18 12 -1 29 12 10 10
15 -7 29 -29 24 -14 34 21 15 15 -8 24 -15 19 -16 -5 0 -2 -8 6 -17 8 -10 15
-33 15 -51 0 -20 7 -38 19 -47 25 -19 34 -19 34 0 0 8 6 15 13 15 8 0 19 12
26 28 7 15 19 40 27 55 13 26 12 30 -7 46 -12 10 -21 29 -21 46 -1 61 -7 74
-41 83 -26 7 -32 13 -29 34 1 14 -5 31 -13 38 -14 11 -14 15 0 36 14 22 13 24
-13 36 -18 9 -27 21 -27 38 0 17 -6 26 -20 29 -11 2 -30 11 -42 21 -13 10 -41
18 -68 18 -35 1 -51 7 -65 24 -11 13 -20 19 -20 13 -2 -18 -8 -42 -15 -63 -5
-17 -1 -23 19 -28 14 -3 30 -3 35 1 6 3 11 1 11 -4 0 -13 67 -15 74 -2 3 5 24
0 45 -11 35 -17 39 -22 29 -38 -19 -30 -53 -32 -105 -8 -30 15 -62 22 -85 20
-33 -3 -38 -7 -38 -27 0 -32 -29 -47 -80 -40 -24 3 -39 1 -35 -4 3 -6 -2 -14
-12 -20 -16 -8 -14 -10 10 -16 15 -4 27 -11 27 -15 0 -16 -26 -27 -50 -20 -19
4 -26 14 -31 44 -5 32 -3 39 14 45 20 7 19 8 -4 15 -15 5 -19 9 -11 13 10 4
10 10 -3 29 -8 13 -12 24 -8 24 5 0 0 5 -9 11 -17 9 -58 -6 -58 -23 0 -7 -66
-3 -90 5 -31 12 -53 12 -57 0 -3 -7 0 -13 7 -13 6 0 8 -5 5 -10 -4 -7 -13 -6
-27 1 -11 6 -30 8 -43 5 -13 -3 -27 -1 -30 5 -13 20 -36 -40 -24 -62 8 -16 4
-27 -20 -57 -19 -25 -27 -43 -21 -52 9 -17 -5 -60 -19 -60 -6 0 -14 7 -19 16
-9 16 -33 16 -87 0 -15 -5 -35 8 -79 48 -35 33 -64 52 -72 49 -21 -8 5 -34 57
-59 28 -13 42 -27 46 -45 4 -20 10 -25 24 -22 14 4 22 -2 29 -23 7 -16 7 -31
2 -36 -10 -10 -4 -48 7 -48 4 0 12 5 18 11 6 6 25 11 43 12 28 2 33 6 36 30 1
15 -2 25 -7 22 -5 -4 -9 1 -9 9 0 22 16 28 30 11 7 -8 9 -15 4 -15 -5 -1 4
-11 20 -24 28 -23 28 -24 7 -31 -11 -3 -21 -13 -21 -21 0 -11 -4 -12 -19 -4
-14 7 -21 6 -24 -3 -4 -9 -6 -8 -6 2 -1 11 -4 11 -16 1 -20 -16 -19 -39 2 -62
9 -11 11 -18 5 -18 -7 0 -12 -9 -12 -20 0 -24 -15 -27 -24 -4 -3 8 -10 12 -16
9 -6 -4 -8 -11 -5 -16 4 -5 -3 -9 -14 -9 -11 0 -22 4 -26 9 -3 5 -20 13 -38
17 -43 9 -77 46 -64 69 18 34 -44 187 -80 193 -23 5 -63 41 -73 68 -14 36
-139 52 -177 22 -7 -6 -19 -6 -30 0 -31 17 -179 7 -199 -12 -18 -19 -35 -17
-42 4 -3 7 0 10 7 6 16 -10 14 6 -5 32 -9 13 -13 30 -10 39 7 16 -46 73 -68
73 -6 1 0 6 14 13 14 7 27 23 29 37 5 36 3 159 -4 198 -6 30 -4 32 23 32 16 0
34 6 40 13 16 19 25 109 13 139 -9 24 -7 27 20 37 29 10 33 18 29 79 -1 17 3
32 9 32 6 0 11 6 11 13 0 7 11 29 25 50 28 40 26 58 -4 50 -23 -6 -71 24 -71
43 0 8 -6 14 -12 14 -7 0 -23 18 -36 40 -12 22 -27 40 -32 40 -6 0 -5 11 2 25
9 20 8 28 -5 43 -10 10 -17 24 -17 30 0 6 -13 20 -30 32 -16 12 -30 17 -30 11
0 -6 -5 -11 -11 -11 -5 0 -7 5 -4 10 3 6 0 10 -8 10 -8 0 -18 -7 -21 -16z
m-234 -998 c9 0 15 -4 12 -7 -2 -4 0 -10 6 -14 14 -9 12 -48 -3 -70 -19 -25
-32 -3 -15 25 11 18 10 23 -12 40 -14 11 -35 20 -48 20 -14 0 -21 4 -16 11 4
6 17 8 33 3 14 -4 34 -7 43 -8z m1333 -116 c3 -5 -1 -10 -10 -10 -9 0 -13 5
-10 10 3 6 8 10 10 10 2 0 7 -4 10 -10z m-1318 -14 c17 5 20 2 16 -18 -3 -18
2 -27 19 -35 52 -25 58 -24 58 9 0 25 3 29 12 20 7 -7 23 -12 38 -12 36 0 54
-15 47 -39 -3 -12 -1 -19 3 -16 15 9 16 -29 2 -46 -15 -17 -52 -15 -52 3 0 5
5 6 10 3 6 -3 10 -1 10 5 0 6 5 8 12 4 7 -4 8 -3 4 4 -10 16 -51 15 -65 -2
-16 -19 -62 -29 -74 -17 -14 14 -47 14 -47 1 0 -5 9 -10 20 -10 13 0 20 -7 20
-20 0 -26 -3 -26 -45 11 -30 26 -36 28 -41 15 -6 -16 -8 -16 -25 0 -25 22 -24
41 2 55 16 8 27 8 45 -2 13 -7 27 -10 30 -6 4 3 15 2 25 -4 13 -7 19 -6 19 2
0 6 -8 13 -19 16 -10 2 -24 14 -30 26 -6 12 -19 33 -28 47 -13 19 -14 22 -2
13 8 -7 24 -10 36 -7z m-52 -36 c3 -5 1 -10 -4 -10 -6 0 -11 5 -11 10 0 6 2
10 4 10 3 0 8 -4 11 -10z m285 0 c0 -5 -2 -10 -4 -10 -3 0 -8 5 -11 10 -3 6
-1 10 4 10 6 0 11 -4 11 -10z m240 -11 c0 -6 -4 -7 -10 -4 -5 3 -10 11 -10 16
0 6 5 7 10 4 6 -3 10 -11 10 -16z m-34 -46 c-10 -10 -19 5 -10 18 6 11 8 11
12 0 2 -7 1 -15 -2 -18z m-40 -52 c0 -11 -4 -17 -8 -15 -4 3 -8 12 -8 20 0 8
4 14 8 14 4 0 8 -9 8 -19z m1268 -16 c-4 -8 -8 -15 -10 -15 -2 0 -4 7 -4 15 0
8 4 15 10 15 5 0 7 -7 4 -15z m-1484 -37 c0 -6 -7 -5 -15 2 -8 7 -15 17 -15
22 0 6 7 5 15 -2 8 -7 15 -17 15 -22z m-580 -24 c0 -8 -5 -12 -10 -9 -6 4 -8
11 -5 16 9 14 15 11 15 -7z m2280 -49 c0 -12 -19 -12 -23 0 -4 9 -1 12 9 8 7
-3 14 -7 14 -8z m-690 -137 c0 -5 -7 -8 -15 -8 -20 0 -20 -39 0 -54 8 -6 18
-26 21 -44 5 -26 4 -31 -8 -27 -8 3 -26 -5 -41 -19 -22 -20 -28 -22 -38 -10
-6 8 -26 14 -45 14 l-33 0 3 65 c2 36 6 68 9 71 3 3 19 0 35 -8 28 -14 29 -14
40 14 5 15 17 28 26 28 9 0 16 5 16 12 0 12 29 -21 30 -34z m-274 -87 c-7 -11
-36 -16 -36 -6 0 3 6 12 13 20 13 15 33 3 23 -14z m634 -31 c0 -5 -2 -10 -4
-10 -3 0 -8 5 -11 10 -3 6 -1 10 4 10 6 0 11 -4 11 -10z m42 -24 c10 -7 19
-24 20 -37 2 -13 9 -29 16 -34 11 -9 9 -14 -7 -29 -15 -14 -24 -16 -33 -8 -7
6 -25 8 -40 5 -20 -4 -28 -12 -33 -39 -3 -21 -12 -34 -21 -34 -8 0 -32 -9 -53
-20 -21 -10 -41 -16 -45 -13 -11 11 -6 51 8 65 7 8 16 24 20 35 9 27 73 66 95
58 13 -5 14 -4 4 6 -20 21 -15 47 10 52 37 7 41 7 59 -7z m-1612 -26 c0 -5 -2
-10 -4 -10 -3 0 -8 5 -11 10 -3 6 -1 10 4 10 6 0 11 -4 11 -10z m90 -31 c0 -5
-4 -9 -10 -9 -5 0 -10 7 -10 16 0 8 5 12 10 9 6 -3 10 -10 10 -16z m720 -90
c0 -6 -4 -7 -10 -4 -5 3 -10 11 -10 16 0 6 5 7 10 4 6 -3 10 -11 10 -16z m800
-39 c0 -5 -2 -10 -4 -10 -3 0 -8 5 -11 10 -3 6 -1 10 4 10 6 0 11 -4 11 -10z
m-784 -209 c3 0 9 -3 12 -7 4 -4 -4 -4 -18 -1 -14 4 -31 7 -37 7 -8 0 -13 12
-13 28 l1 27 24 -28 c13 -15 27 -27 31 -26z m214 -31 c0 -3 -9 -6 -20 -6 -11
0 -20 3 -20 7 0 4 -3 15 -7 25 -6 16 -4 16 20 -2 14 -10 27 -21 27 -24z m-128
-11 c17 -19 17 -43 -2 -50 -22 -9 -52 2 -46 17 3 7 -2 18 -9 24 -8 7 -13 16
-10 20 8 12 52 5 67 -11z m503 -448 c3 -11 15 -23 26 -26 19 -6 19 -7 -5 -35
-13 -16 -26 -34 -28 -40 -2 -6 -11 -8 -21 -5 -18 8 -23 40 -7 50 15 9 12 25
-4 25 -8 0 -18 5 -22 12 -5 7 -2 9 8 5 12 -4 14 -1 11 14 -7 26 33 26 42 0z"/>
<path d="M9705 11369 c-12 -18 3 -22 20 -5 14 14 14 16 1 16 -8 0 -18 -5 -21
-11z"/>
<path d="M11190 10898 c0 -14 53 -108 62 -108 5 0 0 12 -11 26 -12 15 -21 32
-21 38 0 13 -29 56 -30 44z"/>
<path d="M11270 10806 c0 -9 5 -16 10 -16 6 0 10 4 10 9 0 6 -4 13 -10 16 -5
3 -10 -1 -10 -9z"/>
<path d="M11279 10763 c-18 -47 -9 -58 49 -61 l52 -3 -12 28 c-15 33 -45 63
-65 63 -7 0 -18 -12 -24 -27z"/>
<path d="M11610 10769 c0 -4 -6 -7 -12 -6 -39 1 -48 -4 -48 -29 0 -17 -6 -28
-20 -31 -25 -7 -27 -24 -2 -21 40 5 90 -14 101 -38 13 -29 36 -32 28 -4 -3 11
-1 23 4 26 6 4 6 10 1 17 -6 7 -13 30 -16 53 -5 26 -13 41 -22 41 -8 0 -14 -4
-14 -8z"/>
<path d="M10854 10715 c-5 -12 -10 -13 -20 -4 -11 9 -14 7 -14 -9 0 -42 51
-33 58 11 4 21 -16 23 -24 2z"/>
<path d="M10905 10710 c3 -5 8 -10 11 -10 2 0 4 5 4 10 0 6 -5 10 -11 10 -5 0
-7 -4 -4 -10z"/>
<path d="M11470 10690 c0 -5 5 -10 11 -10 5 0 7 5 4 10 -3 6 -8 10 -11 10 -2
0 -4 -4 -4 -10z"/>
<path d="M10593 10683 c-18 -6 -16 -23 1 -23 17 0 30 16 19 23 -5 2 -14 2 -20
0z"/>
<path d="M11295 10680 c3 -6 2 -10 -4 -10 -6 0 -8 -6 -5 -14 7 -17 34 -10 34
9 0 7 -7 16 -16 19 -8 3 -12 2 -9 -4z"/>
<path d="M10805 10660 c18 -20 45 -27 45 -12 0 8 -43 32 -57 32 -3 0 2 -9 12
-20z"/>
<path d="M11350 10670 c0 -11 48 -25 56 -17 4 3 3 10 -1 16 -8 14 -55 14 -55
1z"/>
<path d="M11815 10659 c-5 -14 -15 -19 -41 -19 -19 0 -34 -5 -34 -12 0 -6 -7
-4 -18 5 -29 26 -43 22 -32 -9 13 -34 13 -34 -10 -34 -11 0 -20 -7 -20 -15 0
-23 22 -18 46 11 l23 25 17 -28 c10 -15 19 -30 21 -32 1 -2 15 -5 31 -7 36 -4
67 26 59 56 -4 16 -2 20 9 16 8 -3 14 -1 14 3 0 5 -7 11 -15 15 -8 3 -15 12
-15 20 0 23 -28 27 -35 5z"/>
<path d="M11257 10643 c-9 -9 -9 -63 1 -63 20 1 34 19 27 36 -5 11 -7 22 -7
27 2 9 -12 9 -21 0z"/>
<path d="M11196 10626 c3 -8 12 -12 20 -9 17 6 9 23 -11 23 -8 0 -12 -6 -9
-14z"/>
<path d="M10014 10505 c19 -14 36 -12 36 6 0 5 -12 9 -27 9 -27 -1 -27 -1 -9
-15z"/>
<path d="M8456 10243 c7 -24 47 -29 42 -5 -2 9 -13 18 -25 20 -17 2 -20 -1
-17 -15z"/>
<path d="M8573 10135 c-16 -17 -19 -25 -9 -28 7 -3 16 -14 19 -26 5 -19 3 -19
-18 -5 -12 8 -33 17 -45 19 -12 2 -29 10 -37 17 -14 11 -15 10 -9 -10 6 -18 4
-21 -9 -15 -13 4 -16 1 -13 -13 2 -11 11 -18 22 -17 15 1 17 -5 11 -45 -11
-78 -10 -85 2 -89 18 -7 29 47 12 58 -12 7 -11 9 2 9 27 0 69 25 64 38 -3 9 3
10 20 6 17 -4 25 -2 25 6 0 9 4 9 17 -1 11 -10 14 -10 9 -2 -4 7 0 23 8 34 13
19 13 26 1 49 -8 15 -22 30 -30 34 -20 7 -16 9 -42 -19z"/>
<path d="M11256 10136 c4 -11 -1 -19 -17 -25 -24 -10 -24 -10 -2 -10 12 -1 29
-11 37 -22 9 -13 21 -19 30 -16 22 9 20 24 -4 32 -11 3 -20 12 -20 19 0 8 -7
19 -15 26 -13 11 -14 10 -9 -4z"/>
<path d="M11298 10133 c7 -3 16 -2 19 1 4 3 -2 6 -13 5 -11 0 -14 -3 -6 -6z"/>
<path d="M11325 10059 c-4 -6 -5 -12 -2 -15 2 -3 7 2 10 11 7 17 1 20 -8 4z"/>
<path d="M11290 10000 c0 -5 12 -10 28 -10 21 0 24 2 12 10 -20 13 -40 13 -40
0z"/>
<path d="M8673 9945 c-6 -6 -11 -23 -12 -36 0 -13 -1 -35 -3 -49 -2 -15 2 -24
9 -23 6 2 32 -1 57 -6 27 -5 46 -5 46 0 0 5 11 7 24 3 28 -7 50 23 39 53 -6
16 -5 16 10 4 15 -12 17 -11 17 3 0 19 5 20 31 6 15 -8 19 -7 19 4 0 35 -50
41 -105 13 -22 -12 -44 -20 -49 -19 -5 2 -17 -5 -27 -14 -10 -9 -25 -14 -34
-11 -17 7 -20 23 -5 32 12 7 13 42 3 48 -5 3 -13 -1 -20 -8z"/>
<path d="M11049 9939 c-6 -3 -20 -4 -30 -2 -10 3 -19 0 -19 -6 0 -6 -13 -11
-29 -11 -27 0 -28 -1 -18 -25 8 -17 17 -23 27 -19 8 4 23 7 33 8 9 0 17 6 17
12 0 7 18 15 40 19 22 4 42 10 45 15 6 10 -51 19 -66 9z"/>
<path d="M8482 9885 c-12 -27 -7 -41 18 -46 3 0 13 -2 23 -4 15 -3 16 -1 6 11
-9 11 -8 14 2 15 8 0 4 5 -8 11 -12 6 -23 18 -25 26 -2 11 -7 6 -16 -13z"/>
<path d="M11135 9900 c3 -5 13 -10 21 -10 8 0 14 -4 14 -8 0 -5 16 -16 35 -25
43 -20 47 -3 5 21 -16 9 -30 20 -30 25 0 4 -12 7 -26 7 -14 0 -23 -4 -19 -10z"/>
<path d="M8456 9818 c3 -5 9 -6 14 -3 4 3 11 -1 13 -7 4 -8 6 -7 6 4 1 11 -6
16 -18 15 -11 0 -17 -5 -15 -9z"/>
<path d="M11401 9813 c0 -15 -9 -25 -26 -29 -19 -5 -28 -16 -36 -47 -10 -37
-9 -43 10 -58 22 -18 28 -44 11 -54 -6 -4 -9 -35 -6 -76 2 -47 0 -74 -9 -82
-20 -21 -47 -84 -43 -105 2 -10 -3 -26 -11 -36 -12 -14 -11 -19 5 -37 17 -19
17 -20 -1 -13 -16 7 -18 3 -12 -31 7 -43 11 -50 26 -41 6 4 7 15 2 28 -8 22
-1 35 44 82 11 11 25 34 30 51 10 28 14 30 54 27 24 -1 49 3 57 9 8 6 22 9 33
6 14 -3 17 0 14 14 -7 26 20 25 57 -3 27 -20 44 -58 20 -43 -6 4 -6 -4 1 -19
6 -13 22 -27 35 -30 13 -4 24 -11 24 -16 0 -6 7 -10 16 -10 10 0 14 6 10 15
-4 10 1 15 14 15 13 0 20 7 20 20 0 22 10 26 27 9 7 -7 18 -1 37 21 14 17 26
36 26 41 0 6 9 8 19 4 12 -3 37 3 60 15 46 23 68 25 73 8 8 -23 28 4 28 37 0
19 5 46 12 59 9 21 8 29 -6 45 -15 16 -22 17 -47 8 -16 -6 -29 -14 -29 -18 0
-13 -75 -6 -93 9 -13 11 -20 13 -28 5 -16 -16 -59 5 -59 29 0 10 -11 24 -25
30 -17 8 -25 19 -25 37 -1 44 -49 88 -66 60 -14 -24 -75 -6 -80 24 -1 4 -2 10
-3 15 -1 4 -6 -1 -12 -11 -7 -11 -17 -15 -33 -11 -12 3 -30 6 -40 8 -10 1 -21
9 -26 16 -7 11 -11 11 -24 1 -12 -10 -15 -8 -19 16 -3 22 -4 23 -6 6z"/>
<path d="M11254 9743 c4 -55 11 -79 23 -89 10 -7 21 -14 24 -14 16 0 18 34 4
67 -19 45 -19 53 0 53 22 0 0 32 -32 47 l-26 12 7 -76z"/>
<path d="M8550 9782 c9 -19 8 -27 -4 -41 -9 -10 -16 -23 -16 -29 0 -7 -4 -12
-10 -12 -5 0 -7 -7 -4 -15 4 -8 2 -15 -4 -15 -5 0 -12 -13 -14 -30 -3 -16 -1
-30 3 -30 4 0 20 -5 34 -10 23 -9 25 -13 15 -25 -10 -12 -10 -15 3 -15 9 0 19
5 22 10 4 7 13 6 27 -1 20 -11 21 -10 14 31 -3 23 -3 39 1 37 13 -7 46 30 34
38 -6 3 -11 15 -11 27 0 11 -8 22 -20 25 -18 5 -18 7 -4 29 9 13 12 28 8 35
-5 8 -9 7 -16 -5 -12 -21 -37 -20 -55 2 -13 15 -13 15 -3 -6z"/>
<path d="M8990 9755 c0 -8 4 -15 10 -15 5 0 7 7 4 15 -4 8 -8 15 -10 15 -2 0
-4 -7 -4 -15z"/>
<path d="M8820 9592 c0 -11 -11 -24 -25 -30 -29 -13 -30 -19 -9 -47 13 -17 16
-18 24 -5 5 8 10 25 10 36 0 12 7 27 15 34 8 7 15 16 15 21 0 5 -7 9 -15 9 -8
0 -15 -8 -15 -18z"/>
<path d="M8465 9580 c3 -5 8 -10 11 -10 2 0 4 5 4 10 0 6 -5 10 -11 10 -5 0
-7 -4 -4 -10z"/>
<path d="M8640 9540 c0 -10 52 -40 71 -40 7 0 0 11 -15 25 -27 25 -56 33 -56
15z"/>
<path d="M10980 9476 c0 -26 -29 -47 -57 -40 l-26 7 22 -22 c11 -11 21 -32 21
-46 0 -28 53 -59 92 -53 19 2 23 9 22 36 -1 21 3 32 12 32 8 0 14 5 14 11 0 5
-10 9 -22 7 -19 -2 -22 1 -20 20 3 17 -2 22 -17 22 -12 0 -21 6 -21 14 0 8 -4
18 -10 21 -5 3 -10 -1 -10 -9z"/>
<path d="M8685 9460 c-3 -5 1 -10 9 -10 9 0 16 5 16 10 0 6 -4 10 -9 10 -6 0
-13 -4 -16 -10z"/>
<path d="M11120 9466 c0 -2 7 -6 15 -10 8 -3 15 -1 15 4 0 6 -7 10 -15 10 -8
0 -15 -2 -15 -4z"/>
<path d="M12053 9448 c-4 -7 -21 -18 -38 -24 -26 -8 -30 -14 -29 -45 0 -35 0
-36 -32 -29 -27 6 -31 5 -27 -11 3 -12 14 -19 28 -19 13 0 25 -7 29 -15 3 -8
1 -15 -5 -15 -6 0 -9 -7 -5 -15 3 -10 -1 -15 -11 -15 -11 0 -13 -3 -7 -9 5 -5
22 -7 37 -4 17 3 24 9 17 13 -7 4 -9 17 -4 34 5 20 12 26 28 24 11 -2 21 -10
20 -18 -1 -10 9 -15 32 -16 29 0 33 3 36 32 3 23 -2 38 -14 48 -10 9 -18 26
-18 38 -1 33 -26 64 -37 46z"/>
<path d="M8644 9425 c-7 -26 -36 -33 -64 -15 -18 11 -30 -5 -30 -41 0 -19 -9
-29 -36 -42 -19 -10 -40 -15 -45 -12 -5 4 -9 -5 -9 -18 0 -14 -7 -27 -15 -31
-8 -3 -15 -12 -15 -21 0 -9 -9 -15 -24 -15 -18 0 -25 -7 -29 -29 -4 -20 -14
-31 -32 -35 -14 -4 -30 -4 -35 -1 -16 10 -11 -7 7 -27 9 -11 11 -18 5 -18 -17
0 -15 -52 4 -78 12 -17 19 -20 29 -12 8 7 21 7 38 1 15 -6 27 -6 29 -1 2 5 13
1 24 -8 17 -14 20 -25 17 -54 -5 -34 -8 -37 -29 -32 -25 7 -30 -1 -14 -26 6
-10 4 -21 -8 -34 -9 -11 -11 -16 -4 -12 8 5 12 0 12 -13 0 -14 -5 -19 -15 -15
-9 4 -15 0 -15 -10 0 -21 22 -20 41 2 9 9 30 28 48 42 26 21 30 30 25 53 -4
18 -2 27 7 27 7 0 26 11 43 23 17 13 48 29 69 36 30 10 37 17 37 38 0 15 -8
35 -17 45 -16 17 -15 19 15 30 25 10 32 18 32 38 0 14 9 43 20 65 25 49 25 72
1 125 l-19 43 26 25 c27 25 27 25 3 19 -13 -3 -34 -2 -47 3 -20 8 -25 6 -30
-15z"/>
<path d="M11075 9430 c-3 -5 -2 -10 4 -10 5 0 13 5 16 10 3 6 2 10 -4 10 -5 0
-13 -4 -16 -10z"/>
<path d="M11020 9075 c0 -8 4 -15 10 -15 5 0 7 7 4 15 -4 8 -8 15 -10 15 -2 0
-4 -7 -4 -15z"/>
<path d="M8285 9010 c3 -5 11 -10 16 -10 6 0 7 5 4 10 -3 6 -11 10 -16 10 -6
0 -7 -4 -4 -10z"/>
<path d="M8670 9000 c0 -5 5 -10 11 -10 5 0 7 5 4 10 -3 6 -8 10 -11 10 -2 0
-4 -4 -4 -10z"/>
<path d="M8680 8525 c0 -13 40 -68 40 -55 1 10 8 7 24 -11 13 -15 33 -32 45
-38 14 -8 21 -21 21 -40 0 -24 5 -30 31 -35 19 -3 33 -13 36 -25 4 -15 12 -18
42 -15 30 3 39 -1 52 -21 10 -17 18 -22 28 -15 12 7 12 12 -3 35 -10 15 -23
24 -31 21 -7 -2 -16 2 -19 10 -3 8 -12 14 -21 14 -8 0 -15 8 -15 18 0 24 -56
75 -100 92 -19 8 -48 24 -65 35 -30 22 -65 38 -65 30z"/>
<path d="M9255 8460 c3 -5 8 -10 11 -10 2 0 4 5 4 10 0 6 -5 10 -11 10 -5 0
-7 -4 -4 -10z"/>
<path d="M9016 8302 c-3 -6 -2 -13 3 -16 5 -3 7 -16 4 -29 l-5 -22 17 23 c16
21 16 26 2 39 -9 9 -17 11 -21 5z"/>
<path d="M9376 8235 c4 -8 1 -15 -5 -15 -6 0 -8 -6 -5 -14 3 -8 -4 -24 -16
-36 -18 -18 -20 -24 -9 -31 10 -6 20 -2 31 12 10 11 22 17 28 14 6 -4 19 1 29
11 15 17 16 19 1 34 -9 8 -26 21 -38 27 -18 11 -20 10 -16 -2z"/>
<path d="M8956 8209 c-4 -24 -10 -30 -22 -25 -13 5 -14 4 -6 -7 9 -10 8 -17 0
-25 -15 -15 -9 -21 23 -24 21 -3 24 1 22 25 -1 15 3 27 9 27 7 0 6 6 -2 15
-11 13 -10 14 4 9 12 -4 16 0 16 15 0 35 -36 27 -44 -10z"/>
<path d="M9060 8161 c-6 -12 -7 -21 -1 -21 10 0 24 30 17 37 -2 3 -9 -5 -16
-16z"/>
<path d="M9030 8126 c0 -2 7 -6 15 -10 8 -3 15 -1 15 4 0 6 -7 10 -15 10 -8 0
-15 -2 -15 -4z"/>
<path d="M8996 8093 c-11 -12 -6 -21 36 -62 24 -22 37 -41 30 -41 -6 0 -12 -6
-12 -14 0 -8 8 -12 23 -9 17 3 26 -2 37 -21 7 -14 18 -26 23 -26 5 0 3 7 -4
17 -13 15 -11 16 13 10 24 -6 26 -4 24 15 -5 47 -19 77 -36 83 -10 3 -21 12
-23 20 -4 8 -14 11 -27 8 -12 -3 -25 -1 -29 6 -8 13 -46 23 -55 14z"/>
<path d="M10316 8075 c4 -8 12 -15 19 -15 7 0 15 7 19 15 4 11 -1 15 -19 15
-18 0 -23 -4 -19 -15z"/>
</g>
</svg>
