<?xml version="1.0" standalone="no"?>
<!DOCTYPE svg PUBLIC "-//W3C//DTD SVG 20010904//EN"
 "http://www.w3.org/TR/2001/REC-SVG-20010904/DTD/svg10.dtd">
<svg version="1.0" xmlns="http://www.w3.org/2000/svg"
 width="649.447491pt" height="803.616728pt" viewBox="0 0 649.447491 803.616728"
 preserveAspectRatio="xMidYMid meet">
<metadata>
Created by potrace 1.15, written by Peter Selinger 2001-2017
</metadata>
<g transform="translate(-704.457198,1445.919881) scale(0.100000,-0.100000)"
fill="#222222" stroke="none">
<path d="M9418 14443 c-29 -33 -41 -64 -29 -76 8 -8 17 -5 34 11 13 12 33 22
45 22 28 0 30 35 3 50 -27 14 -36 13 -53 -7z"/>
<path d="M9550 14383 c0 -10 6 -25 13 -32 10 -10 8 -12 -8 -9 -16 2 -20 -3
-21 -27 -1 -39 12 -55 45 -55 17 0 22 3 13 8 -16 11 -6 40 17 47 17 5 25 35
10 35 -4 0 -21 12 -38 26 -28 23 -31 24 -31 7z"/>
<path d="M9120 14377 c0 -8 -11 -26 -25 -41 -20 -22 -28 -25 -44 -16 -27 14
-31 13 -31 -10 0 -11 7 -23 15 -26 17 -7 20 -34 4 -34 -8 0 -7 -6 2 -17 10
-11 10 -14 2 -9 -9 5 -13 0 -13 -18 0 -35 20 -43 41 -18 9 12 25 22 34 22 15
0 17 6 12 36 -5 31 -4 34 14 29 10 -4 19 -2 19 4 0 5 9 12 20 16 19 6 23 35 7
51 -14 14 -6 26 14 21 13 -3 19 -1 16 6 -6 18 -87 21 -87 4z"/>
<path d="M9255 14381 l-30 -7 40 -16 c32 -13 42 -13 47 -3 4 7 18 10 33 7 14
-2 25 0 25 6 0 5 -14 12 -31 16 -35 7 -41 6 -84 -3z"/>
<path d="M9088 14113 c4 -10 10 -35 11 -55 2 -32 0 -36 -17 -31 -10 2 -33 -4
-51 -15 -27 -16 -29 -21 -17 -31 35 -29 96 20 103 81 4 36 1 45 -17 56 -19 12
-20 11 -12 -5z"/>
<path d="M9827 14098 c-10 -11 -24 -18 -30 -15 -53 20 -55 19 -62 -21 l-6 -40
-60 3 c-32 1 -59 -1 -59 -5 0 -13 -65 -6 -76 8 -8 11 -13 12 -18 4 -9 -15 -62
-16 -71 -2 -9 14 -55 12 -55 -2 0 -8 -15 -14 -35 -15 -68 -5 -82 -8 -78 -19 7
-18 -15 -27 -45 -19 -25 6 -25 8 -9 19 21 16 22 23 2 23 -15 0 -28 -24 -20
-37 2 -4 -4 -15 -15 -25 -19 -18 -20 -17 -20 3 0 18 -6 22 -29 22 -16 0 -34
-7 -41 -15 -9 -11 -22 -14 -42 -10 -20 5 -30 2 -34 -9 -3 -9 -9 -14 -13 -12
-13 8 -76 -11 -74 -22 4 -15 -13 -16 -22 -2 -10 16 -65 12 -65 -4 0 -11 -10
-13 -39 -9 -35 5 -39 3 -43 -21 -3 -15 -1 -29 3 -32 14 -8 10 -24 -6 -24 -26
0 -50 -33 -47 -62 2 -20 -1 -28 -12 -28 -8 0 -17 4 -20 9 -3 5 -21 11 -39 13
-28 3 -33 1 -29 -14 2 -9 -2 -24 -10 -31 -20 -21 -113 -15 -138 8 -28 25 -27
-2 1 -31 19 -21 20 -24 5 -47 -9 -13 -14 -31 -11 -39 4 -9 -1 -22 -9 -31 -19
-18 -20 -40 -5 -69 10 -18 9 -20 -5 -15 -8 3 -18 2 -21 -3 -4 -6 -15 -10 -27
-10 -11 0 -29 -12 -40 -26 -12 -14 -31 -30 -44 -34 -14 -6 -24 -18 -24 -30 0
-14 -7 -20 -22 -20 -20 0 -85 -41 -100 -64 -4 -6 -20 -9 -37 -8 -16 2 -32 -1
-36 -7 -3 -6 -17 -11 -31 -11 -17 0 -24 -6 -24 -19 0 -13 -10 -20 -32 -25
-102 -20 -105 -22 -106 -71 -1 -34 4 -50 20 -65 12 -11 17 -20 11 -20 -16 0
-10 -39 7 -50 12 -8 12 -10 1 -10 -7 0 3 -17 23 -37 37 -39 46 -73 23 -95 -11
-10 -11 -15 2 -29 8 -10 18 -16 23 -13 5 3 14 1 21 -5 8 -6 18 -6 27 -1 9 5
20 5 28 -2 10 -9 16 -8 23 3 8 13 10 12 13 -11 2 -18 29 -30 43 -18 9 7 19 -4
38 -47 23 -53 24 -59 8 -70 -20 -15 -24 -83 -6 -110 17 -26 17 -45 -2 -45 -25
0 0 -38 27 -42 17 -2 27 -15 38 -48 22 -65 29 -73 59 -67 36 7 99 -19 83 -35
-9 -9 -6 -18 14 -39 16 -17 28 -43 31 -70 4 -23 17 -59 30 -78 15 -23 22 -43
18 -58 -3 -12 0 -25 7 -30 7 -4 14 -15 15 -23 1 -8 4 -26 8 -40 3 -14 7 -32 9
-40 2 -8 9 -15 17 -15 13 0 16 -15 20 -92 1 -13 5 -23 10 -23 5 0 9 -7 9 -15
0 -13 18 -20 43 -16 11 2 8 -34 -4 -46 -7 -7 -9 -22 -4 -40 5 -15 7 -32 6 -37
-1 -5 3 -22 10 -38 9 -23 9 -32 -3 -46 -10 -11 -13 -24 -8 -37 8 -22 -3 -54
-32 -97 -14 -21 -18 -40 -14 -75 2 -26 -1 -68 -7 -93 -11 -41 -14 -45 -40 -42
-25 3 -27 1 -19 -15 11 -22 -10 -78 -33 -87 -11 -4 -14 -13 -9 -30 4 -18 1
-27 -14 -35 -18 -9 -20 -21 -20 -96 0 -47 4 -85 9 -85 6 0 5 -8 -1 -19 -6 -13
-17 -17 -30 -14 -13 4 -20 0 -20 -9 0 -8 -9 -23 -19 -32 -16 -14 -23 -15 -41
-6 -15 8 -25 8 -34 1 -8 -6 -22 -9 -32 -5 -35 11 -84 38 -84 46 0 5 -7 8 -15
8 -8 0 -15 -5 -15 -11 0 -6 -6 -9 -14 -6 -8 3 -16 3 -18 -1 -4 -9 -65 -52 -74
-52 -4 0 -16 -8 -27 -17 -18 -17 -20 -17 -36 3 -9 12 -27 26 -39 33 -12 7 -20
16 -18 20 8 12 -65 49 -95 49 -61 -1 -129 24 -150 53 -11 16 -25 27 -30 23 -6
-3 -16 -1 -24 6 -11 10 -13 5 -10 -30 l4 -41 -37 23 c-20 12 -39 21 -42 18 -3
-3 -12 9 -20 26 -17 36 -61 56 -127 58 -29 1 -42 -3 -39 -11 7 -16 -33 -24
-55 -10 -16 10 -21 8 -34 -11 -9 -12 -25 -22 -36 -22 -10 0 -19 -4 -19 -10 0
-5 -13 -10 -29 -10 -25 0 -29 -4 -28 -27 1 -16 10 -34 19 -41 19 -14 25 -72 7
-72 -5 0 -8 -4 -5 -9 8 -13 -21 -66 -36 -67 -7 0 -34 -10 -59 -22 -40 -18 -47
-26 -52 -59 -6 -36 1 -61 10 -35 6 16 31 15 62 -2 17 -9 28 -29 37 -62 13 -53
11 -64 -12 -64 -11 0 -12 -4 -5 -18 15 -27 -11 -56 -44 -48 -24 6 -26 5 -20
-16 4 -13 19 -42 32 -65 18 -30 22 -49 17 -65 -11 -33 -6 -57 22 -97 24 -35
32 -81 15 -81 -14 0 -21 -40 -11 -65 6 -16 5 -25 -3 -28 -16 -5 9 -37 30 -37
7 0 17 -8 21 -17 18 -42 48 -83 65 -89 9 -3 17 -15 17 -28 0 -15 6 -22 21 -23
26 -2 43 -23 74 -90 19 -41 32 -55 64 -69 23 -10 43 -26 46 -35 3 -9 12 -20
20 -23 8 -3 15 -12 15 -20 0 -8 9 -18 20 -21 11 -3 20 -15 20 -26 0 -43 129
-89 165 -59 8 7 20 4 38 -10 14 -12 39 -25 55 -31 22 -8 32 -20 41 -52 21 -71
54 -147 65 -147 26 -1 67 -53 104 -134 22 -47 45 -86 51 -86 5 0 23 -14 40
-30 22 -23 32 -44 37 -80 5 -36 12 -51 25 -55 11 -4 19 -11 19 -17 0 -6 14
-26 31 -46 17 -19 39 -53 49 -76 10 -23 35 -57 57 -77 109 -104 101 -98 117
-80 10 11 12 21 5 34 -6 10 -6 17 -1 17 11 0 3 48 -9 56 -15 9 -10 24 7 24 12
0 14 4 7 13 -6 6 -13 20 -16 29 -5 15 -1 17 31 14 20 -1 44 -6 52 -9 17 -7
116 -27 131 -27 6 0 7 9 4 21 -6 18 -5 19 13 10 14 -7 23 -8 27 -1 4 6 11 7
17 4 7 -5 9 -1 5 9 -9 24 3 21 35 -10 20 -19 31 -24 36 -16 14 23 31 -3 37
-56 5 -47 4 -53 -14 -58 -12 -3 -17 -11 -14 -19 3 -8 9 -11 14 -8 5 3 9 -4 9
-15 0 -15 -6 -21 -21 -21 -20 0 -20 -1 -3 -29 15 -25 15 -32 5 -45 -11 -13
-10 -17 5 -23 12 -4 22 0 32 15 13 19 16 20 30 6 12 -13 13 -24 4 -62 -8 -37
-7 -50 4 -66 8 -11 14 -28 14 -37 0 -10 11 -19 30 -22 16 -4 38 -15 49 -26 17
-17 22 -17 39 -5 18 12 22 11 36 -11 9 -14 22 -22 30 -19 8 3 19 -3 26 -15 8
-15 8 -21 0 -21 -14 0 -3 -41 14 -53 6 -4 30 -12 54 -18 23 -6 45 -15 47 -19
8 -14 14 -150 6 -145 -4 2 -15 -5 -24 -15 -17 -21 -13 -49 10 -63 7 -4 13 -14
13 -22 0 -7 7 -21 16 -29 12 -12 13 -23 5 -51 -5 -20 -6 -48 -1 -64 5 -18 4
-33 -2 -39 -8 -8 -6 -16 6 -27 9 -9 16 -21 16 -26 0 -5 8 -9 18 -9 23 0 47
-47 33 -64 -14 -16 22 -59 37 -44 8 8 14 4 22 -16 5 -15 10 -31 10 -36 0 -5
12 -15 28 -23 15 -7 43 -23 64 -35 20 -11 39 -18 42 -15 3 3 11 -6 17 -21 7
-15 15 -22 19 -17 3 6 11 2 18 -9 10 -16 10 -20 -1 -20 -8 0 -14 -6 -15 -12 0
-7 -2 -22 -4 -33 -2 -13 5 -23 20 -30 12 -5 22 -15 22 -21 0 -7 7 -15 16 -18
8 -3 12 -10 9 -16 -3 -5 2 -10 11 -10 10 0 31 -12 46 -27 24 -23 32 -26 48
-15 24 15 111 -5 137 -31 16 -16 16 -18 -2 -31 -19 -14 -19 -15 8 -25 28 -11
35 -25 16 -36 -7 -5 -4 -14 7 -26 16 -18 16 -19 -6 -19 -13 0 -32 8 -43 18
-22 18 -16 1 10 -29 7 -8 15 -30 17 -47 2 -18 8 -38 15 -45 6 -8 8 -16 5 -19
-7 -8 54 -28 87 -28 15 0 29 5 31 11 2 5 11 7 19 4 20 -7 44 -55 28 -55 -6 0
-1 -14 11 -30 12 -17 23 -38 24 -48 2 -10 12 -17 27 -17 17 0 29 -10 44 -37
10 -20 32 -44 47 -53 16 -9 38 -37 50 -61 15 -32 25 -43 37 -39 10 3 20 -3 26
-17 12 -27 72 -45 97 -29 9 6 24 8 33 5 18 -7 44 21 45 48 0 9 9 20 20 23 11
3 20 13 20 21 0 8 6 14 13 14 14 0 50 33 43 41 -2 2 -6 19 -9 37 -5 25 -3 32
9 32 14 0 14 2 0 16 -9 8 -16 25 -16 37 0 12 -12 31 -27 44 l-28 22 24 1 c13
0 30 -8 37 -17 12 -15 15 -16 23 -3 8 12 14 12 34 1 32 -17 67 0 67 34 0 13 4
26 9 29 4 3 6 17 3 31 -5 29 12 33 40 8 10 -9 33 -17 52 -18 18 -1 39 -6 46
-10 8 -5 11 -4 6 3 -3 6 3 16 14 22 11 6 20 17 20 25 0 11 8 13 32 8 23 -5 34
-2 45 12 12 18 13 18 13 -2 0 -23 13 -37 24 -26 3 3 1 12 -5 19 -9 10 -7 15 4
20 9 3 21 3 27 -1 7 -4 10 0 8 11 -4 24 18 25 65 2 20 -10 37 -14 37 -8 0 5
11 10 25 10 14 0 25 5 25 11 0 5 5 7 10 4 6 -3 10 -1 10 5 0 7 6 8 18 1 14 -7
23 -5 35 10 9 10 21 19 26 19 15 0 26 -23 13 -28 -7 -2 -10 -13 -6 -27 7 -28
-12 -92 -34 -118 -11 -12 -24 -16 -39 -12 -13 3 -23 1 -23 -4 0 -15 -57 -7
-77 11 -17 16 -18 15 -18 -10 -1 -31 20 -51 54 -52 20 0 21 -2 11 -15 -7 -8
-9 -15 -4 -15 12 0 154 -137 154 -148 0 -5 7 -9 15 -9 8 0 12 4 9 9 -3 4 4 8
16 8 12 0 24 -9 29 -22 9 -23 9 -23 21 5 7 15 17 27 22 27 5 0 7 13 3 30 -9
41 -1 38 26 -10 12 -21 29 -41 38 -43 25 -5 62 15 104 56 31 31 41 36 57 27
25 -13 56 -13 79 2 16 10 26 8 54 -6 25 -14 38 -16 52 -8 14 7 25 6 42 -5 22
-14 25 -14 46 8 29 31 72 53 86 45 11 -7 16 11 12 51 -1 13 9 29 27 42 26 18
31 19 50 5 23 -16 47 -9 72 20 10 13 10 16 -2 16 -8 0 -20 11 -26 25 -10 22
-9 25 8 25 27 0 29 50 3 51 -15 0 -14 2 4 11 34 17 44 75 19 118 -11 19 -24
38 -28 41 -5 3 -6 14 -2 23 4 10 2 21 -5 26 -9 5 -6 14 13 33 14 14 26 37 26
51 0 14 4 28 10 31 6 3 10 21 10 39 0 24 9 41 36 67 32 31 35 38 31 79 -3 25
-13 67 -22 94 -16 42 -17 53 -5 80 7 17 13 43 13 59 0 19 5 27 18 27 20 0 130
105 121 115 -4 4 1 11 10 16 10 5 15 16 12 23 -3 8 2 36 11 62 11 33 13 50 5
58 -14 14 -13 26 4 26 8 0 17 11 20 25 4 14 11 25 16 25 6 0 10 5 10 12 0 9
-3 9 -12 0 -15 -15 -43 -15 -68 -2 -19 10 -19 11 -1 29 26 26 58 32 66 13 4
-10 9 -12 13 -7 10 15 65 39 81 36 11 -2 12 6 7 38 -5 33 -3 41 9 41 8 0 15 8
15 19 0 20 27 48 36 38 4 -3 13 0 21 8 8 8 23 15 33 15 14 0 19 9 22 45 4 56
-6 85 -31 92 -11 3 -22 12 -25 20 -5 13 3 15 59 11 58 -5 67 -3 80 15 7 11 20
17 28 14 22 -8 38 13 26 34 -7 15 -6 17 5 13 8 -3 23 -1 34 5 13 7 23 7 32 -2
10 -10 11 -2 6 41 -6 48 -5 52 14 52 11 0 21 5 21 10 1 6 2 15 3 22 0 6 11 12
23 13 31 2 38 12 24 29 -10 12 -8 17 8 26 17 9 19 15 11 30 -14 26 -13 53 3
47 8 -3 14 5 15 22 2 27 29 54 47 47 5 -2 8 -10 6 -17 -15 -53 -13 -59 10 -59
l24 0 -25 -20 c-14 -11 -34 -20 -45 -20 -12 0 -16 -3 -9 -8 20 -13 32 -46 39
-109 7 -61 7 -62 -24 -77 -19 -10 -33 -27 -37 -44 -3 -15 -7 -32 -9 -39 -2 -7
0 -15 5 -18 15 -9 12 -25 -4 -25 -21 0 -29 -33 -15 -64 7 -14 15 -26 19 -26 4
0 12 -11 18 -25 6 -14 8 -25 4 -25 -5 0 -7 -13 -4 -30 5 -32 35 -42 46 -15 3
8 12 12 21 9 8 -3 15 -1 15 5 0 6 11 11 25 11 20 0 25 -5 25 -24 0 -13 8 -27
17 -30 15 -6 15 -8 3 -16 -12 -8 -9 -10 10 -10 25 -1 60 -21 60 -35 0 -5 -9 0
-21 11 -21 19 -21 18 -40 -5 -21 -26 -24 -37 -9 -46 5 -3 7 -12 4 -20 -3 -7 4
-18 16 -25 13 -7 19 -18 16 -26 -4 -10 7 -20 34 -32 22 -9 40 -24 40 -32 0 -8
11 -20 24 -26 21 -10 24 -9 19 5 -4 9 -24 33 -45 54 -22 20 -35 37 -29 37 6 0
11 11 11 25 0 20 5 25 24 25 14 0 28 5 31 10 3 6 12 10 18 10 7 0 4 -7 -6 -14
-17 -13 -17 -15 4 -35 23 -21 44 -23 44 -5 2 23 17 54 28 55 35 2 92 11 96 14
2 3 -7 25 -20 49 -19 36 -26 43 -40 35 -10 -5 -19 -5 -21 0 -2 5 -16 10 -33
12 -45 5 -65 26 -65 70 0 32 5 41 34 58 19 12 37 28 40 36 3 8 12 15 21 15 10
0 15 10 15 29 0 16 4 41 10 55 5 14 12 65 16 114 6 82 5 91 -14 110 -29 29
-35 56 -19 95 14 31 13 35 -5 46 -15 10 -17 15 -8 26 9 11 7 22 -9 48 -11 19
-18 36 -15 40 3 3 -12 1 -34 -5 -32 -8 -41 -16 -49 -41 -8 -29 -13 -32 -51
-35 -29 -2 -47 2 -58 13 -15 15 -18 15 -35 -1 -11 -10 -22 -14 -26 -11 -3 4
-1 7 5 7 7 0 9 11 6 29 -5 24 -3 29 11 28 10 -1 20 4 22 11 3 6 -2 12 -10 12
-8 0 -18 7 -21 16 -5 13 -12 11 -39 -16 -21 -21 -28 -34 -19 -37 17 -6 15 -28
-4 -47 -22 -23 -34 -20 -34 9 0 15 -6 25 -14 25 -7 0 -21 10 -30 23 l-17 22 6
-28 6 -29 -29 20 c-16 12 -43 36 -60 53 -18 18 -32 27 -32 21 0 -10 -5 -10
-20 -2 -19 10 -27 40 -13 53 3 4 14 0 23 -8 16 -14 17 -14 13 10 -5 22 -2 25
25 25 23 0 32 6 41 29 7 15 23 33 37 40 15 7 27 22 30 41 8 35 6 35 47 13 30
-15 31 -15 18 1 -12 14 -11 19 3 35 10 11 33 22 52 25 33 7 34 8 28 46 -6 38
6 55 21 30 5 -8 12 -7 22 1 15 13 14 65 -2 103 -6 14 -5 17 3 12 24 -15 3 34
-30 70 -15 17 -17 29 -12 63 5 30 11 41 20 37 8 -3 14 1 14 9 0 8 12 21 27 28
26 14 26 15 6 25 -26 14 -37 41 -23 57 16 20 -25 141 -46 133 -11 -4 -13 111
-2 118 4 3 5 16 2 29 -5 20 -1 27 21 35 31 12 71 58 67 77 -2 7 4 13 12 13 9
0 19 12 23 27 8 34 55 83 78 83 14 0 16 5 10 23 -14 41 -13 151 1 181 21 44
18 49 -23 42 -34 -6 -36 -5 -20 7 9 8 17 19 17 26 0 6 5 11 10 11 6 0 9 26 8
65 -3 61 -1 66 28 92 43 40 48 58 14 60 -19 1 -30 -4 -36 -18 -8 -16 -21 -21
-63 -24 -60 -4 -139 -37 -148 -61 -4 -11 -14 -14 -33 -11 -15 3 -32 1 -37 -4
-7 -7 -20 -6 -41 5 -28 15 -30 14 -35 -4 -3 -11 -12 -20 -21 -20 -9 0 -13 6
-10 13 3 9 -8 17 -31 24 -35 11 -36 11 -42 -19 -3 -17 -15 -33 -27 -38 -12 -5
-17 -9 -13 -9 5 -1 1 -8 -8 -17 -14 -14 -18 -15 -33 -1 -21 18 -42 12 -42 -13
0 -26 -34 -34 -69 -16 -26 14 -30 14 -35 0 -5 -12 -10 -13 -27 -4 -11 7 -18
18 -15 25 8 21 -10 28 -36 14 -13 -6 -24 -13 -26 -15 -2 -1 6 -12 17 -23 24
-24 27 -41 6 -41 -17 0 -37 -65 -29 -97 4 -16 2 -23 -9 -23 -8 0 -17 -10 -20
-21 -4 -15 -11 -20 -21 -16 -9 4 -16 1 -17 -6 0 -7 -2 -24 -3 -39 -1 -16 1
-28 4 -28 3 0 11 -4 19 -9 11 -7 12 -13 3 -23 -13 -16 -32 -126 -25 -146 6
-15 -18 -12 -29 3 -4 6 -8 2 -8 -7 0 -10 5 -18 10 -18 6 0 10 -5 10 -12 0 -6
-11 -1 -25 12 -14 13 -25 18 -25 11 0 -25 -48 -64 -83 -66 -19 -1 -40 -6 -47
-10 -8 -5 -18 -1 -27 11 -12 16 -15 17 -23 4 -8 -13 -13 -13 -42 -1 -18 8 -51
15 -74 16 -45 2 -65 11 -63 28 1 7 -1 25 -6 41 -5 18 -4 36 3 47 16 25 -12 78
-41 81 -30 2 -39 4 -59 12 -12 6 -33 -2 -65 -23 -35 -24 -55 -30 -73 -26 -39
10 -53 25 -38 42 10 12 9 18 -5 28 -10 7 -15 19 -11 28 3 9 -4 25 -17 38 -13
13 -24 30 -25 39 -6 40 -12 54 -22 58 -7 2 -12 0 -12 -5 0 -5 -19 -7 -42 -5
-28 3 -49 13 -65 31 -14 14 -22 21 -19 14 4 -6 -4 -27 -16 -47 -22 -34 -51
-46 -63 -26 -4 6 -19 9 -33 8 -15 -1 -33 1 -40 6 -7 4 -12 2 -12 -6 -1 -9 -5
-7 -14 5 -16 21 -24 21 -45 3 -9 -7 -37 -17 -64 -20 -44 -7 -48 -6 -57 19 -6
15 -8 30 -5 35 7 12 -44 50 -66 50 -10 0 -21 -4 -24 -10 -4 -6 -16 -3 -31 7
-19 12 -28 13 -37 4 -6 -6 -25 -11 -42 -11 -17 0 -40 -6 -51 -14 -21 -16 -64
-11 -77 10 -9 15 -144 17 -153 2 -3 -5 -22 -7 -44 -3 l-37 6 -19 -53 c-18 -50
-22 -54 -63 -64 -24 -5 -49 -18 -56 -28 -14 -18 -36 -17 -83 7 -17 8 -28 8
-41 0 -15 -10 -23 -7 -41 12 -13 13 -24 34 -26 47 -2 13 -7 48 -11 78 -7 50
-11 55 -35 58 -18 2 -30 12 -38 31 -6 16 -27 43 -45 61 -19 18 -32 37 -29 42
10 15 -27 48 -53 48 -20 0 -23 4 -19 20 3 11 8 29 11 39 4 14 -1 23 -15 31
-12 6 -19 14 -17 17 3 2 -3 13 -14 24 -19 19 -27 84 -10 91 18 7 -1 69 -25 80
-13 6 -24 18 -24 26 0 9 -7 23 -16 33 -14 16 -14 21 -1 51 38 84 66 208 48
208 -4 0 -15 16 -24 36 -13 27 -15 40 -6 55 8 15 7 32 -5 66 -17 49 -13 71 10
52 11 -9 17 -9 28 0 10 9 15 8 20 -4 3 -8 13 -15 23 -15 22 0 48 49 33 64 -5
5 -10 20 -10 32 0 21 3 22 32 13 18 -5 40 -9 49 -9 22 0 69 74 62 100 -4 16
-1 20 21 20 30 0 66 32 66 58 0 11 14 27 34 37 36 20 46 45 49 120 1 22 6 43
11 46 13 10 -4 31 -20 25 -10 -4 -25 12 -45 44 -17 28 -43 57 -58 64 -14 8
-39 28 -55 45 -28 29 -29 34 -18 64 7 19 12 41 12 50 0 10 12 22 27 28 l26 10
-21 20 c-12 11 -22 25 -22 32 0 6 7 2 15 -10 15 -21 52 -22 39 -2 -3 5 4 9 15
9 24 0 28 18 7 26 -8 3 -17 16 -20 29 -7 27 -36 42 -36 19 0 -23 -34 -13 -38
11 -2 11 -11 26 -20 32 -13 11 -14 19 -3 60 7 27 15 65 18 86 3 20 9 37 14 37
13 0 11 37 -3 63 -10 19 -9 20 4 9 22 -18 61 2 75 39 8 21 16 27 27 23 12 -4
15 -2 10 9 -7 19 40 31 80 21 27 -7 34 4 14 24 -6 6 -9 14 -6 18 4 3 16 -4 27
-15 16 -16 34 -21 71 -21 28 0 50 4 50 9 0 23 -22 66 -41 79 -10 7 -17 17 -14
22 3 5 0 12 -6 15 -5 4 -8 13 -5 21 8 20 -15 54 -36 54 -9 0 -23 6 -30 13 -25
25 -47 27 -58 7 -6 -12 -21 -20 -36 -20 -14 0 -27 -7 -31 -17 -10 -27 -63 -73
-84 -73 -16 0 -17 -4 -7 -30 8 -26 7 -34 -7 -50 -10 -11 -24 -20 -32 -20 -10
0 -12 -6 -8 -20 5 -15 0 -21 -27 -28 -18 -5 -40 -5 -49 -1 -11 6 -25 2 -41
-11 -28 -22 -72 -21 -95 3 -12 12 -21 13 -40 4 -19 -8 -29 -7 -51 9 -40 30
-114 66 -120 59 -3 -3 1 -5 9 -5 11 0 11 -2 -1 -10 -8 -5 -11 -10 -7 -10 11 0
-12 -40 -23 -40 -6 0 -10 7 -10 16 0 8 4 13 9 10 17 -11 -1 32 -20 50 -18 16
-19 16 -19 -3 0 -15 -8 -22 -33 -26 -19 -3 -48 -19 -66 -37 -24 -24 -35 -29
-45 -21 -9 8 -18 3 -34 -19 -15 -20 -27 -27 -39 -23 -14 6 -13 8 5 24 27 21
27 34 2 67 -27 33 -11 52 24 29 24 -16 25 -16 22 6 -4 37 -17 57 -37 57 -13 0
-17 -5 -12 -17 5 -12 2 -15 -10 -10 -12 5 -17 1 -17 -13 0 -15 -7 -20 -26 -20
-22 0 -25 -4 -23 -28 5 -41 -32 -85 -64 -77 -14 4 -28 2 -31 -3 -11 -18 -76
13 -92 43 -8 15 -14 32 -14 37 0 5 -9 21 -20 35 -20 25 -20 25 1 42 l21 17
-31 59 c-17 32 -35 63 -40 69 -14 19 -22 64 -10 68 17 6 -2 39 -21 36 -24 -4
-70 40 -70 66 0 12 -11 30 -25 40 -13 10 -22 23 -19 28 4 5 -6 22 -21 38 -22
23 -24 28 -11 33 25 10 19 64 -10 103 -29 37 -28 40 11 22 15 -7 29 -24 33
-42 l8 -31 6 28 c4 22 0 31 -23 48 -32 22 -38 39 -14 39 8 0 15 9 15 20 0 11
7 20 15 20 8 0 15 4 15 10 0 5 14 16 30 25 17 9 30 24 30 35 0 21 55 65 70 55
5 -3 15 3 22 15 7 11 19 20 26 20 8 0 12 6 9 14 -5 12 5 16 41 18 41 3 48 6
52 28 3 14 14 43 23 66 l18 41 76 -2 c59 -1 80 3 98 17 13 10 28 18 33 18 15
0 33 -27 36 -55 4 -30 16 -46 16 -20 0 14 3 15 14 6 9 -8 28 -10 50 -5 29 5
36 11 36 29 0 18 4 22 19 18 13 -3 21 2 26 17 5 15 12 19 25 15 26 -8 46 28
25 45 -22 18 -19 50 5 50 24 0 26 13 4 34 -19 20 -25 19 -47 -6z m-1057 -543
c-7 -8 -14 -15 -15 -15 -2 0 -5 7 -9 15 -4 10 1 15 16 15 17 0 18 -2 8 -15z
m-790 -405 c0 -5 -4 -10 -10 -10 -5 0 -10 5 -10 10 0 6 5 10 10 10 6 0 10 -4
10 -10z m-27 -34 c6 -16 -2 -28 -14 -20 -12 7 -11 34 0 34 5 0 11 -6 14 -14z
m1307 -156 c0 -5 -4 -10 -10 -10 -5 0 -10 5 -10 10 0 6 5 10 10 10 6 0 10 -4
10 -10z m3670 -3621 c0 -5 -6 -7 -12 -3 -14 8 10 -26 26 -37 4 -4 3 -15 -3
-26 -5 -11 -7 -24 -3 -29 4 -5 -5 2 -20 15 -19 17 -25 28 -19 39 5 8 6 23 4
33 -4 13 0 19 11 19 9 0 16 -5 16 -11z m-117 -326 c9 -3 17 -1 17 5 0 6 9 8
20 5 33 -9 24 -40 -14 -54 -19 -7 -33 -16 -30 -21 3 -4 0 -8 -5 -8 -6 0 -11 5
-11 10 0 6 -6 10 -12 10 -8 0 -14 15 -15 36 -1 30 1 35 15 29 9 -4 25 -10 35
-12z m-1498 -1773 c3 -5 2 -10 -4 -10 -5 0 -13 5 -16 10 -3 6 -2 10 4 10 5 0
13 -4 16 -10z m-1495 -71 c0 -6 -4 -7 -10 -4 -5 3 -10 11 -10 16 0 6 5 7 10 4
6 -3 10 -11 10 -16z m1537 -11 c24 -23 29 -43 13 -53 -5 -3 -18 12 -30 35 -23
45 -18 51 17 18z m-1 -115 c-10 -10 -19 5 -10 18 6 11 8 11 12 0 2 -7 1 -15
-2 -18z m4 -43 c0 -5 -4 -10 -10 -10 -5 0 -10 5 -10 10 0 6 5 10 10 10 6 0 10
-4 10 -10z m20 -102 c0 -20 -29 7 -33 30 l-5 26 19 -25 c10 -13 19 -27 19 -31z
m-727 -34 c8 -45 -33 -25 -47 24 -7 21 -6 21 17 11 14 -6 27 -22 30 -35z
m-723 -25 c0 -5 -4 -9 -10 -9 -5 0 -10 7 -10 16 0 8 5 12 10 9 6 -3 10 -10 10
-16z m600 -9 c0 -5 -5 -10 -11 -10 -5 0 -7 5 -4 10 3 6 8 10 11 10 2 0 4 -4 4
-10z"/>
<path d="M9685 13868 c-3 -7 -11 -41 -18 -76 -7 -34 -16 -60 -19 -56 -9 8 -48
-5 -48 -17 0 -5 8 -9 19 -9 10 0 24 -7 31 -15 17 -20 40 -19 56 2 16 22 27 12
27 -24 0 -15 6 -33 15 -39 13 -10 12 -14 -7 -33 -21 -21 -21 -24 -6 -47 9 -14
25 -24 40 -24 13 0 36 -12 52 -26 24 -22 29 -23 39 -10 14 19 67 12 86 -12 11
-13 10 -15 -5 -9 -11 4 -16 3 -12 -3 3 -6 17 -10 29 -10 32 0 58 69 53 139 -2
40 0 48 10 39 7 -6 13 -17 13 -24 0 -8 5 -14 11 -14 6 0 9 6 6 14 -4 9 5 21
19 31 25 16 25 17 8 36 -11 12 -21 16 -28 10 -6 -5 -33 -11 -61 -12 -44 -3
-51 -1 -60 19 -5 12 -13 22 -18 22 -4 0 -5 -4 -2 -10 3 -5 -3 -10 -15 -10 -11
0 -23 -7 -27 -16 -3 -8 -11 -13 -18 -10 -6 2 -18 0 -25 -4 -17 -11 -48 27 -56
69 -4 17 -11 31 -16 31 -21 0 -58 53 -52 75 6 25 -13 45 -21 23z"/>
<path d="M7375 13691 c-3 -6 -24 -8 -49 -5 -41 6 -45 5 -76 -35 -31 -37 -34
-39 -47 -23 -11 12 -16 14 -19 4 -10 -23 -44 -35 -62 -20 -11 9 -14 10 -8 1 5
-9 0 -13 -16 -13 l-23 0 21 -18 c18 -15 49 -72 42 -77 -2 -1 -19 -9 -39 -18
-32 -15 -35 -20 -31 -48 3 -22 1 -30 -7 -25 -14 9 -14 6 4 -38 9 -20 13 -47 9
-61 -5 -19 -2 -25 10 -25 9 0 16 -6 16 -13 0 -8 9 -22 19 -31 11 -10 17 -25
14 -34 -3 -10 -1 -13 4 -7 15 19 60 33 94 31 19 -2 43 2 54 7 11 6 27 13 36
17 8 5 23 3 33 -2 17 -9 113 17 126 34 6 8 84 -30 132 -64 28 -20 44 -11 34
20 -3 10 -1 33 4 52 8 27 6 37 -7 52 -12 13 -14 29 -10 63 6 42 5 45 -18 51
-14 3 -34 17 -44 30 -10 13 -25 24 -33 24 -8 0 -23 9 -33 20 -10 11 -28 20
-39 20 -38 0 -49 14 -42 56 6 40 3 50 -26 72 -10 8 -18 9 -23 3z"/>
<path d="M7636 13145 c-16 -28 -26 -35 -62 -41 -24 -3 -41 -10 -39 -15 3 -4
13 -5 22 -2 11 4 14 3 9 -5 -5 -8 0 -12 13 -12 20 0 41 -43 27 -57 -3 -3 2
-11 11 -18 24 -18 28 -82 6 -89 -28 -9 -27 -69 2 -96 22 -20 25 -21 40 -7 10
10 12 18 4 22 -7 5 -5 11 4 18 19 16 27 50 15 71 -7 12 -5 24 6 41 9 13 16 33
16 45 0 13 7 20 20 20 11 0 20 4 20 9 0 5 8 12 18 14 16 4 16 5 0 6 -12 1 -18
9 -18 27 0 14 4 22 10 19 5 -3 18 -1 29 4 15 8 22 6 33 -11 12 -17 18 -19 34
-10 10 6 15 12 10 12 -5 0 -3 7 4 15 17 21 5 31 -16 14 -14 -11 -18 -10 -32 8
-14 17 -25 20 -59 17 -30 -3 -52 2 -75 16 l-34 19 -18 -34z"/>
<path d="M7267 12970 c-4 -17 -11 -21 -26 -17 -12 3 -21 1 -21 -4 0 -5 -7 -9
-15 -9 -18 0 -20 -29 -2 -32 6 0 17 -2 24 -2 21 -2 54 -39 42 -47 -8 -5 -7
-13 4 -30 10 -13 14 -32 11 -46 -5 -18 -1 -25 17 -32 14 -5 25 -5 27 0 2 5 10
9 18 9 16 0 18 9 5 29 -5 7 -13 11 -19 7 -6 -4 -10 8 -9 29 1 22 6 35 14 35
16 0 16 0 -2 43 -8 19 -21 37 -30 41 -8 3 -19 15 -24 28 l-8 22 -6 -24z"/>
<path d="M10874 12858 c-4 -6 4 -21 20 -35 15 -12 24 -23 20 -23 -3 0 -1 -7 6
-15 10 -13 9 -19 -6 -38 -10 -12 -15 -19 -10 -15 5 4 19 -11 30 -34 12 -23 26
-43 32 -45 18 -6 58 85 45 101 -6 7 -8 15 -5 18 3 3 -13 21 -35 39 -23 18 -41
38 -41 46 0 16 -46 17 -56 1z"/>
<path d="M10735 12838 c-9 -11 -15 -21 -13 -22 20 -17 46 -23 64 -16 12 5 25
6 28 3 12 -12 6 13 -6 29 -21 25 -54 28 -73 6z"/>
<path d="M10660 12843 c0 -13 29 -38 35 -31 3 3 -4 13 -15 23 -11 10 -20 13
-20 8z"/>
<path d="M7414 12825 c-8 -21 4 -35 32 -35 13 0 24 -5 24 -11 0 -5 5 -7 11 -4
19 12 5 36 -29 51 -28 11 -34 11 -38 -1z"/>
<path d="M7520 12829 c0 -5 7 -9 15 -9 8 0 15 -7 15 -15 0 -8 5 -15 11 -15 5
0 8 4 4 9 -3 5 5 11 17 13 18 3 13 6 -19 15 -24 6 -43 7 -43 2z"/>
<path d="M7389 12775 c-7 -26 3 -44 24 -45 14 0 7 38 -8 44 -8 3 -16 3 -16 1z"/>
<path d="M8096 12733 c4 -16 12 -31 18 -35 14 -9 70 26 74 46 3 13 -2 14 -28
4 -23 -8 -35 -7 -43 1 -19 19 -28 12 -21 -16z"/>
<path d="M11031 12744 c0 -11 3 -14 6 -6 3 7 2 16 -1 19 -3 4 -6 -2 -5 -13z"/>
<path d="M8142 10898 c5 -15 28 -23 28 -10 0 5 -7 13 -16 16 -10 4 -14 1 -12
-6z"/>
<path d="M12692 10784 c-7 -14 -12 -34 -12 -44 0 -15 -7 -20 -25 -20 -58 0 -6
-42 58 -47 29 -3 59 -10 67 -17 8 -7 27 -16 41 -19 20 -5 30 -1 46 21 19 26
20 31 7 61 -10 23 -11 38 -4 51 14 26 -2 33 -47 21 -20 -6 -47 -8 -59 -5 -12
3 -25 1 -28 -5 -4 -6 -13 -11 -19 -11 -8 0 -8 3 1 9 10 6 10 10 -1 19 -11 9
-16 7 -25 -14z"/>
<path d="M11960 10351 c0 -5 7 -11 15 -15 9 -3 15 0 15 9 0 8 -7 15 -15 15 -8
0 -15 -4 -15 -9z"/>
<path d="M12000 10335 c0 -8 7 -15 16 -15 14 0 14 3 4 15 -7 8 -14 15 -16 15
-2 0 -4 -7 -4 -15z"/>
<path d="M13326 9395 c-3 -8 -12 -15 -21 -15 -11 0 -15 -11 -15 -46 0 -40 -2
-45 -19 -39 -22 7 -53 -29 -44 -52 4 -11 0 -13 -21 -7 -21 5 -26 3 -26 -13 0
-11 -10 -24 -22 -30 -21 -9 -18 -11 24 -17 50 -7 108 -50 108 -79 0 -9 9 -19
20 -22 12 -4 19 -14 18 -23 -2 -11 5 -18 19 -20 13 -2 32 -15 43 -29 31 -40
119 -37 103 3 -3 8 2 23 12 34 23 26 13 50 -17 43 -13 -3 -28 -11 -34 -19 -7
-8 -15 -9 -25 -3 -8 5 -9 9 -4 9 6 0 19 7 29 15 18 13 18 16 4 32 -25 28 -29
58 -14 88 15 28 9 58 -18 94 -9 12 -7 12 11 3 20 -11 22 -10 21 17 -1 15 2 33
6 40 4 6 2 11 -3 11 -6 0 -11 -8 -11 -18 0 -41 -86 -15 -95 29 -7 32 -20 38
-29 14z"/>
<path d="M13477 9307 c-3 -9 -2 -19 4 -23 15 -9 18 -2 9 20 -6 17 -7 18 -13 3z"/>
<path d="M8225 8570 c3 -5 0 -7 -8 -4 -8 3 -18 0 -22 -6 -5 -8 -11 -8 -21 1
-17 14 -19 -2 -2 -19 15 -15 58 -16 58 -1 0 5 5 7 10 4 6 -3 10 3 10 14 0 12
-7 21 -16 21 -8 0 -12 -4 -9 -10z"/>
<path d="M8275 8540 c3 -5 10 -10 16 -10 5 0 9 5 9 10 0 6 -7 10 -16 10 -8 0
-12 -4 -9 -10z"/>
<path d="M8155 8520 c3 -5 8 -10 11 -10 2 0 4 5 4 10 0 6 -5 10 -11 10 -5 0
-7 -4 -4 -10z"/>
<path d="M8423 8490 c-9 -13 -9 -20 0 -29 6 -6 7 -11 2 -11 -5 0 7 -11 28 -25
26 -18 37 -34 38 -53 3 -57 7 -88 17 -127 7 -26 7 -42 1 -46 -5 -3 -12 -18
-15 -34 l-5 -28 24 29 c33 40 39 71 21 106 -14 27 -14 32 2 49 15 16 16 23 6
37 -6 9 -23 40 -37 67 -15 28 -36 57 -49 67 -21 15 -23 15 -33 -2z"/>
<path d="M8141 8486 c-8 -10 -9 -16 -1 -21 5 -3 13 1 16 10 9 22 -1 29 -15 11z"/>
<path d="M8742 8463 c6 -7 14 -13 19 -13 5 0 9 6 9 13 0 7 -9 13 -19 13 -15 0
-17 -3 -9 -13z"/>
<path d="M8120 8425 c0 -9 -9 -15 -25 -15 -14 0 -24 -3 -24 -7 4 -26 -3 -42
-15 -37 -11 4 -13 0 -9 -16 4 -16 0 -23 -16 -27 -27 -7 -22 -27 7 -28 12 0 21
-4 19 -10 -1 -5 -10 -9 -19 -8 -11 2 -20 -6 -24 -21 -4 -16 -11 -23 -20 -19
-9 3 -14 -2 -14 -15 0 -11 -16 -31 -40 -47 -31 -21 -40 -34 -40 -56 0 -28 -2
-29 -45 -29 -25 0 -45 -5 -45 -11 0 -6 -7 -17 -15 -25 -21 -21 -19 -29 9 -44
20 -10 23 -18 20 -47 -4 -34 20 -93 55 -135 18 -23 28 -23 36 2 4 11 15 20 26
20 19 0 20 4 13 67 -6 58 -5 65 9 60 9 -3 21 0 27 8 13 16 11 95 -4 114 -9 11
-7 13 12 7 18 -6 22 -4 22 13 0 15 6 21 24 21 13 0 30 7 37 16 11 13 10 17 -4
25 -25 15 -21 27 13 34 32 7 44 19 47 50 1 11 7 43 13 70 12 57 5 105 -16 105
-8 0 -14 -7 -14 -15z"/>
<path d="M12958 8348 l-23 -21 25 6 c14 4 31 7 38 7 17 0 15 17 -2 23 -8 3
-25 -4 -38 -15z"/>
<path d="M12783 8303 c-7 -3 -13 -11 -13 -19 0 -8 -9 -14 -20 -14 -11 0 -20
-4 -20 -10 0 -5 -11 -10 -25 -10 -22 0 -24 -3 -15 -19 5 -11 10 -27 10 -36 0
-13 -4 -14 -20 -5 -11 6 -20 9 -20 6 0 -8 61 -95 71 -101 5 -4 7 -10 4 -15 -9
-15 13 -48 35 -55 30 -10 24 -26 -7 -19 -55 12 -63 16 -63 30 0 8 -6 14 -14
14 -7 0 -19 7 -27 16 -8 10 -21 13 -38 9 -40 -10 -45 -21 -19 -46 18 -18 36
-24 72 -26 26 -1 54 -7 63 -15 20 -16 62 -18 57 -3 -3 6 7 24 22 40 24 26 27
37 25 86 -1 31 2 60 8 63 5 4 7 22 4 40 -4 28 -1 36 16 45 23 13 29 41 9 41
-7 0 -20 -5 -28 -10 -10 -6 -22 -5 -35 4 -11 7 -26 11 -32 9z"/>
<path d="M8582 8138 c11 -24 27 -51 36 -61 12 -14 13 -20 4 -26 -8 -5 0 -18
25 -41 20 -19 49 -52 65 -74 21 -29 28 -34 28 -20 0 22 -19 52 -57 90 -19 19
-23 28 -13 34 9 6 8 13 -5 34 -10 14 -13 26 -7 26 8 0 8 9 1 29 -7 20 -20 31
-48 40 -21 6 -41 11 -44 11 -3 0 4 -19 15 -42z"/>
<path d="M7720 8011 c0 -6 -13 -11 -29 -11 -16 0 -34 -7 -41 -15 -7 -8 -16
-13 -20 -10 -4 3 -10 -2 -14 -10 -3 -8 -13 -15 -21 -15 -10 0 -15 -7 -13 -17
3 -13 11 -17 33 -15 17 2 43 3 59 4 16 0 37 9 47 19 22 22 29 70 12 76 -7 3
-13 0 -13 -6z"/>
<path d="M8763 7852 c2 -14 -13 -26 -45 -36 -11 -3 -18 -15 -18 -31 0 -18 -5
-25 -20 -25 -10 0 -24 -8 -29 -18 -5 -10 -28 -31 -50 -47 -35 -23 -39 -30 -29
-43 11 -13 9 -14 -15 -10 -21 4 -27 2 -23 -9 4 -8 -4 -17 -19 -23 -15 -6 -25
-17 -25 -30 0 -11 -4 -20 -9 -20 -5 0 -11 -9 -14 -20 -4 -14 -14 -20 -35 -20
-16 0 -35 -6 -42 -14 -6 -8 -18 -12 -26 -9 -9 3 -14 -1 -14 -12 0 -14 -3 -15
-15 -5 -8 7 -15 19 -15 28 0 16 -48 66 -65 67 -5 1 -18 5 -28 9 -12 6 -24 3
-37 -9 -19 -17 -21 -17 -38 -2 -10 10 -32 17 -49 17 -18 0 -33 6 -37 15 -7 19
-16 19 -45 -4 -20 -16 -22 -20 -10 -39 11 -17 10 -23 -1 -37 -7 -9 -20 -13
-28 -10 -11 4 -13 -1 -7 -22 3 -16 11 -29 16 -31 5 -2 9 -13 9 -25 0 -35 16
-53 33 -39 14 12 31 10 130 -14 21 -5 32 -2 42 12 8 11 15 14 15 8 0 -7 19
-21 42 -33 43 -21 57 -16 58 18 0 9 7 11 21 8 12 -3 19 -1 16 6 -10 30 157 76
190 52 14 -10 22 -10 40 2 14 9 33 13 48 9 24 -6 25 -5 15 14 -11 20 3 30 15
10 3 -5 17 -10 31 -10 13 0 24 -4 24 -10 0 -16 20 -11 27 7 4 10 -2 23 -15 34
-26 20 -28 29 -7 29 8 0 15 6 15 13 0 23 -12 28 -25 11 -11 -15 -14 -15 -37 0
-13 9 -27 13 -30 10 -4 -3 -9 4 -13 15 -3 12 -12 21 -19 21 -6 0 -12 9 -13 21
-2 17 1 18 13 9 11 -10 17 -6 29 24 15 34 31 53 18 20 -4 -10 1 -17 16 -21 11
-3 21 -8 21 -12 0 -4 9 -7 20 -8 11 -1 20 3 20 9 0 6 11 1 25 -12 l25 -23 9
24 c7 18 5 27 -5 35 -16 13 -19 50 -5 59 15 9 41 66 35 76 -3 5 -11 9 -18 9
-8 0 -21 10 -30 23 -9 12 -15 16 -13 9z"/>
<path d="M7877 7793 c-12 -22 -16 -63 -7 -63 6 0 8 -5 5 -10 -4 -6 -11 -8 -16
-5 -5 4 -9 1 -9 -4 0 -18 18 -12 34 11 10 15 12 26 6 39 -7 12 -6 19 2 21 9 3
9 6 1 11 -7 4 -14 4 -16 0z"/>
<path d="M7810 7696 c0 -2 7 -9 15 -16 13 -11 14 -10 9 4 -5 14 -24 23 -24 12z"/>
<path d="M7840 7640 c0 -19 3 -21 12 -12 9 9 9 15 0 24 -9 9 -12 7 -12 -12z"/>
<path d="M8390 7599 c0 -20 16 -24 37 -11 8 5 3 11 -13 19 -21 10 -24 9 -24
-8z"/>
<path d="M7846 7601 c-3 -5 1 -11 9 -14 9 -4 12 -1 8 9 -6 16 -10 17 -17 5z"/>
<path d="M7878 7487 c11 -13 10 -19 -5 -34 -15 -15 -16 -22 -7 -42 18 -35 30
-44 52 -36 13 4 19 12 15 21 -5 13 6 18 34 15 20 -3 26 20 9 38 -9 10 -14 21
-11 24 3 4 2 5 -2 2 -3 -3 -11 -1 -17 4 -6 5 -27 12 -46 16 -31 7 -33 6 -22
-8z"/>
<path d="M9771 7063 c11 -34 19 -42 19 -20 0 7 -7 22 -15 33 -13 17 -14 16 -4
-13z"/>
<path d="M9630 6870 c0 -6 7 -22 16 -35 9 -13 12 -30 8 -36 -4 -8 -3 -9 4 -5
7 4 12 1 12 -9 0 -9 4 -14 8 -11 13 8 27 -7 46 -47 9 -20 21 -35 25 -32 5 2
14 -2 21 -10 15 -18 31 -20 24 -2 -3 8 8 16 27 22 57 18 92 90 53 110 -12 6
-28 16 -36 23 -10 8 -31 10 -63 5 -45 -6 -47 -5 -40 15 3 12 5 22 3 22 -2 0
-18 -4 -35 -9 -20 -6 -35 -6 -38 0 -8 12 -35 12 -35 -1z"/>
<path d="M9967 6713 c-15 -15 -7 -55 13 -60 11 -3 28 -21 37 -40 11 -25 18
-31 24 -21 13 20 11 48 -3 46 -7 -2 -14 8 -16 22 -6 39 -38 70 -55 53z"/>
<path d="M9726 6665 c4 -8 10 -12 15 -9 14 8 10 24 -6 24 -9 0 -12 -6 -9 -15z"/>
<path d="M10045 6670 c3 -5 8 -10 11 -10 2 0 4 5 4 10 0 6 -5 10 -11 10 -5 0
-7 -4 -4 -10z"/>
<path d="M10096 6603 c-11 -11 -6 -23 9 -23 8 0 15 4 15 9 0 13 -16 22 -24 14z"/>
<path d="M10062 6578 c-14 -14 -16 -44 -3 -53 15 -8 33 33 23 50 -6 12 -11 12
-20 3z"/>
</g>
</svg>
