<?xml version="1.0" standalone="no"?>
<!DOCTYPE svg PUBLIC "-//W3C//DTD SVG 20010904//EN"
 "http://www.w3.org/TR/2001/REC-SVG-20010904/DTD/svg10.dtd">
<svg version="1.0" xmlns="http://www.w3.org/2000/svg"
 width="794.698736pt" height="721.909624pt" viewBox="0 0 794.698736 721.909624"
 preserveAspectRatio="xMidYMid meet">
<metadata>
Created by potrace 1.15, written by Peter Selinger 2001-2017
</metadata>
<g transform="translate(-641.198928,1359.909624) scale(0.100000,-0.100000)"
fill="#222222" stroke="none">
<path d="M6914 13585 c9 -23 -4 -45 -26 -45 -18 0 -20 -5 -15 -36 5 -29 3 -35
-9 -30 -8 3 -28 3 -44 -1 -24 -4 -30 -11 -30 -32 -1 -23 -2 -24 -14 -9 -16 21
-53 13 -61 -13 -4 -10 -14 -19 -24 -19 -21 0 -25 -56 -4 -64 7 -3 13 -13 13
-21 0 -9 -4 -13 -10 -10 -6 3 -7 -1 -4 -9 8 -20 23 -20 30 -1 5 11 11 12 24 5
33 -18 43 -12 36 20 -3 17 -2 29 3 26 5 -3 12 2 16 11 5 16 8 15 25 -7 24 -31
25 -50 3 -50 -15 0 -14 -2 2 -20 11 -12 16 -29 12 -45 -3 -18 0 -28 10 -32 11
-4 13 -17 8 -57 -5 -40 -2 -59 14 -91 12 -21 21 -52 21 -67 0 -21 8 -31 35
-44 40 -19 41 -21 18 -54 -10 -14 -17 -27 -16 -30 2 -3 -6 -5 -16 -5 -11 0
-22 -3 -26 -7 -4 -4 -13 -4 -20 -1 -10 3 -13 -5 -12 -34 1 -21 7 -41 12 -45 6
-5 5 -8 -2 -8 -7 0 -10 -7 -7 -15 5 -11 -1 -15 -20 -15 -18 0 -26 5 -27 18 0
13 -3 12 -11 -5 -6 -13 -17 -24 -25 -24 -27 -3 -31 -4 -39 -11 -3 -4 -18 2
-32 13 l-26 20 -17 -22 c-15 -20 -19 -21 -33 -10 -9 7 -16 23 -17 35 -1 16 -3
14 -10 -9 -5 -16 -6 -37 -4 -46 6 -18 -25 -55 -55 -64 -11 -3 -20 -13 -20 -21
0 -8 -5 -14 -11 -14 -25 0 0 -24 27 -25 16 -1 42 -9 59 -18 19 -11 32 -13 36
-6 3 6 11 4 19 -6 7 -8 20 -15 29 -15 9 0 22 -5 27 -10 17 -17 42 -1 49 32 4
16 10 27 13 23 3 -3 11 9 17 27 11 30 9 36 -19 66 l-30 32 25 0 c14 0 39 -11
55 -25 33 -28 40 -30 48 -12 3 8 11 4 26 -12 11 -13 17 -27 13 -30 -4 -3 -10
-15 -11 -26 -6 -34 -47 -63 -84 -61 -40 3 -48 -7 -48 -59 0 -36 -3 -40 -26
-41 -38 -3 -66 -33 -59 -64 4 -14 10 -29 14 -33 11 -11 41 3 41 19 0 8 8 14
17 14 9 0 27 10 40 22 l23 21 0 -25 c0 -15 -6 -28 -12 -31 -14 -4 55 -37 78
-37 22 0 26 18 10 47 -8 16 -15 22 -16 16 0 -18 -17 -16 -24 3 -5 14 -1 16 24
11 22 -5 30 -3 30 8 0 8 5 15 11 15 5 0 7 5 4 10 -3 6 -1 10 5 10 6 0 9 4 5
10 -3 5 0 18 7 29 12 20 13 20 35 -5 12 -15 20 -31 16 -37 -4 -7 7 -8 30 -4
21 3 37 2 37 -3 0 -5 9 -12 20 -15 25 -8 25 -23 3 -44 -10 -9 -19 -22 -21 -30
-5 -22 8 -51 23 -51 8 0 18 -7 23 -17 6 -10 22 -16 41 -16 17 0 31 -4 31 -9 0
-4 -6 -8 -13 -8 -8 0 -14 -14 -15 -35 -2 -20 -7 -46 -12 -60 -6 -15 -6 -27 0
-30 16 -10 11 -23 -7 -20 -10 2 -22 4 -26 4 -4 1 -3 10 2 20 9 16 4 24 -27 47
-20 15 -41 34 -45 41 -6 10 -29 12 -88 8 -68 -4 -79 -2 -79 12 0 9 -3 14 -6
11 -6 -6 -51 33 -49 42 1 3 -6 13 -17 23 -17 16 -18 16 -18 -18 0 -28 -5 -37
-24 -45 -22 -8 -24 -13 -16 -39 9 -34 -8 -58 -35 -47 -19 7 -19 7 5 -48 20
-48 18 -76 -6 -76 -17 0 -18 -16 -3 -26 8 -4 4 -13 -12 -25 -34 -26 -51 -23
-74 11 -13 19 -23 26 -29 20 -6 -6 -27 -10 -49 -10 -21 0 -36 -4 -32 -9 3 -5
-2 -16 -10 -24 -20 -21 -19 -30 4 -22 31 9 50 -4 49 -36 -1 -24 -4 -27 -15
-17 -10 8 -11 13 -2 18 7 5 7 10 1 14 -15 9 -32 -18 -35 -56 -3 -28 0 -34 12
-31 9 2 23 -1 31 -7 13 -9 13 -12 0 -23 -9 -6 -14 -20 -12 -29 2 -10 -1 -18
-7 -18 -6 0 -11 -7 -11 -15 0 -8 -7 -15 -15 -15 -8 0 -14 -3 -14 -7 4 -22 -15
-72 -25 -66 -6 3 -1 -5 11 -17 14 -15 35 -24 60 -25 21 -1 41 -3 45 -4 4 0 15
-16 24 -33 9 -18 20 -35 23 -38 3 -3 7 -14 8 -25 1 -11 5 -33 9 -49 5 -20 3
-27 -4 -22 -11 6 -1 -41 13 -64 3 -5 2 -10 -2 -10 -5 0 -9 -22 -9 -48 0 -47 1
-49 35 -59 22 -7 40 -8 47 -2 6 5 13 6 16 4 6 -6 44 -16 66 -17 6 -1 12 -7 12
-14 0 -14 28 -27 41 -19 4 3 6 20 2 36 l-6 31 32 -16 c21 -11 31 -13 31 -5 0
8 7 6 18 -4 10 -10 24 -17 30 -17 7 0 12 -11 12 -24 0 -19 4 -22 25 -19 13 3
29 11 35 19 13 14 58 3 73 -19 5 -8 7 -5 6 8 -3 46 2 65 17 65 13 0 15 8 9 53
-7 52 -28 82 -52 73 -18 -7 -64 11 -90 36 -26 24 -30 43 -8 35 25 -10 27 11 4
34 -13 13 -36 23 -53 23 -42 1 -45 27 -6 44 17 8 37 11 45 8 8 -3 15 -1 15 5
0 6 13 1 28 -10 24 -17 39 -19 98 -15 75 6 119 32 111 66 -4 14 1 18 19 18 14
0 27 7 30 15 4 8 17 15 30 15 13 0 33 9 43 19 11 11 41 22 70 26 28 4 54 11
57 16 3 6 15 7 26 3 18 -5 19 -2 14 29 -4 24 -1 39 9 47 8 7 15 19 15 26 0 8
6 14 13 14 8 0 22 9 33 21 10 11 26 18 36 16 9 -3 22 1 28 8 6 7 35 20 65 30
47 14 55 20 55 42 0 14 -4 22 -10 18 -6 -4 -22 0 -35 9 -33 21 -87 20 -111 -2
-17 -16 -25 -17 -58 -8 -20 6 -37 16 -36 21 1 6 7 9 14 7 9 -1 14 12 16 45 4
96 2 100 -55 127 -24 12 -38 28 -51 61 -10 28 -23 45 -33 45 -10 0 -22 5 -28
11 -8 8 -17 8 -33 -1 -21 -11 -21 -12 -3 -25 19 -15 21 -13 -31 -29 -7 -3 -23
6 -35 20 -22 25 -51 32 -51 13 0 -6 -6 -9 -14 -6 -8 3 -17 1 -19 -6 -9 -23
-29 10 -34 56 -5 38 -2 47 14 58 13 7 18 19 15 31 -2 10 0 18 5 18 8 0 9 9 4
52 -1 4 -13 20 -27 35 -24 26 -26 33 -20 91 6 54 3 69 -15 102 -18 31 -20 42
-10 54 9 11 7 19 -14 41 -28 31 -30 40 -14 50 7 5 8 32 3 83 -6 70 -5 76 9 63
9 -7 14 -17 11 -22 -3 -5 2 -9 11 -9 17 0 20 7 30 63 5 34 4 37 -17 37 -30 0
-54 15 -39 24 13 8 15 53 2 60 -16 10 -19 66 -4 66 8 0 16 8 20 18 3 9 17 46
30 80 18 47 22 67 14 75 -6 6 -11 19 -11 29 0 21 -35 86 -60 112 -10 10 -34
20 -53 21 -18 1 -51 14 -73 29 -44 29 -59 33 -50 11z m66 -905 c0 -5 -9 -10
-19 -10 -11 0 -23 5 -26 10 -4 6 5 10 19 10 14 0 26 -4 26 -10z m-53 -162 c-3
-8 -6 -5 -6 6 -1 11 2 17 5 13 3 -3 4 -12 1 -19z m-217 -134 c0 -8 -19 -13
-24 -6 -3 5 1 9 9 9 8 0 15 -2 15 -3z"/>
<path d="M6420 12590 c8 -5 20 -10 25 -10 6 0 3 5 -5 10 -8 5 -19 10 -25 10
-5 0 -3 -5 5 -10z"/>
<path d="M8047 12470 c-10 -15 -17 -35 -17 -44 0 -18 -27 -21 -49 -7 -11 7
-22 2 -38 -15 -29 -32 -29 -38 2 -52 32 -15 38 -15 30 -2 -3 6 -2 10 2 10 12
0 36 -42 39 -65 1 -11 -2 -27 -7 -36 -5 -10 -3 -21 4 -29 10 -10 8 -12 -5 -7
-17 6 -22 -3 -21 -40 1 -7 -5 -13 -12 -13 -7 0 -24 -9 -38 -20 -14 -11 -29
-20 -34 -19 -23 6 -62 -15 -65 -34 -2 -14 -10 -21 -21 -21 -11 1 -17 -5 -17
-21 0 -13 -7 -25 -15 -29 -17 -6 -20 -42 -5 -51 19 -12 113 -13 131 -2 15 9
21 8 33 -8 9 -11 16 -16 16 -12 0 4 9 3 20 -3 14 -8 19 -17 15 -30 -9 -27 4
-30 84 -19 78 11 101 4 101 -32 0 -20 66 -59 87 -52 7 2 21 -14 33 -37 16 -32
19 -45 10 -55 -7 -8 -8 -20 -4 -27 11 -18 13 -97 2 -104 -5 -3 -6 -13 -3 -23
6 -19 -38 -67 -53 -57 -6 3 -7 -22 -4 -63 4 -63 3 -69 -16 -75 -25 -8 -39 -43
-23 -59 16 -16 13 -37 -5 -37 -12 0 -5 -11 20 -35 27 -25 36 -40 31 -54 -3
-11 1 -36 9 -55 8 -20 12 -36 9 -36 -3 0 0 -7 7 -15 7 -8 23 -13 36 -11 25 5
41 -8 24 -19 -21 -13 -8 -34 40 -64 29 -18 64 -31 83 -31 27 0 39 -8 72 -50
22 -27 48 -50 57 -50 10 0 18 -5 18 -12 0 -6 3 -8 6 -5 4 3 16 1 28 -5 11 -7
24 -12 28 -13 4 0 16 -10 27 -22 11 -12 30 -25 42 -28 26 -9 69 12 70 34 0 10
3 11 5 4 3 -7 12 -9 20 -6 7 3 11 9 8 14 -7 12 17 11 35 0 9 -6 22 -6 34 1 15
8 17 12 7 18 -10 6 -11 17 -1 51 17 61 18 84 4 81 -9 -1 -13 12 -13 43 0 45 7
54 27 34 7 -7 13 -7 17 0 4 5 13 8 21 4 11 -3 15 2 15 17 0 16 4 20 15 16 9
-3 18 1 21 9 4 8 13 15 21 15 10 0 12 6 8 19 -3 11 -1 23 6 26 8 5 9 26 5 67
-7 57 -6 59 13 48 11 -6 25 -18 30 -28 25 -43 25 -43 77 -23 30 11 57 15 69
10 30 -11 35 -10 35 7 0 12 6 15 21 11 15 -4 19 -2 15 9 -4 11 -1 14 13 9 25
-8 61 14 61 37 0 24 11 23 45 -4 21 -16 31 -19 44 -11 9 6 15 17 13 26 -3 20
25 30 48 17 14 -8 21 -6 28 6 6 11 24 18 53 19 24 1 58 3 76 4 40 1 63 24 63
61 0 23 3 28 17 23 13 -5 15 -3 9 13 -5 10 -15 39 -24 64 -8 25 -23 57 -34 72
-18 26 -18 27 2 33 13 4 20 15 20 30 0 13 4 26 10 30 6 4 5 16 -1 33 -18 45
-22 65 -23 115 -1 35 -5 49 -18 53 -10 3 -22 3 -26 0 -5 -3 -17 5 -27 17 -12
14 -20 17 -23 9 -5 -17 -47 -15 -61 2 -7 8 -30 23 -52 34 -32 16 -47 18 -75
11 -19 -6 -34 -14 -34 -19 0 -16 -60 -11 -66 5 -4 8 -18 15 -33 15 -15 0 -32
5 -38 11 -8 8 -13 8 -17 0 -4 -7 -13 -7 -24 -2 -9 5 -43 14 -74 21 -41 8 -61
18 -72 35 -9 14 -28 32 -42 42 -23 15 -28 15 -38 2 -6 -8 -19 -18 -29 -22 -18
-7 -67 11 -67 25 0 4 -5 8 -12 8 -6 0 -20 7 -30 17 -20 18 -103 49 -160 58
-21 4 -36 12 -35 18 1 6 -7 13 -18 15 -31 6 -53 31 -48 53 4 12 0 19 -9 19 -8
0 -22 18 -32 41 -12 27 -29 46 -52 56 -24 12 -38 29 -50 59 -16 41 -18 43 -37
29 -12 -8 -29 -15 -39 -15 -10 0 -18 -7 -18 -15 0 -14 -21 -21 -45 -15 -5 1
-34 3 -62 4 -33 0 -55 6 -58 14 -3 9 -15 11 -38 7 -29 -6 -36 -3 -51 19 -9 14
-23 26 -31 26 -8 0 -15 4 -15 9 0 22 -28 17 -43 -9z"/>
<path d="M8160 12462 c0 -12 19 -26 26 -19 2 2 -2 10 -11 17 -9 8 -15 8 -15 2z"/>
<path d="M7245 12412 c3 -14 15 -32 26 -40 11 -7 17 -18 13 -23 -3 -6 3 -13
15 -16 12 -3 21 -9 21 -13 0 -5 14 -3 31 3 42 16 99 71 90 86 -5 7 -12 3 -21
-14 -15 -27 -25 -31 -36 -14 -4 7 -18 -1 -36 -22 l-30 -34 5 29 c6 33 -23 70
-61 79 -22 5 -23 3 -17 -21z"/>
<path d="M7235 12330 c-3 -5 1 -10 10 -10 9 0 13 5 10 10 -3 6 -8 10 -10 10
-2 0 -7 -4 -10 -10z"/>
<path d="M7010 12306 c0 -2 7 -6 15 -10 8 -3 15 -1 15 4 0 6 -7 10 -15 10 -8
0 -15 -2 -15 -4z"/>
<path d="M6995 12280 c-3 -5 6 -12 20 -16 35 -9 41 0 10 14 -14 7 -27 8 -30 2z"/>
<path d="M7055 12221 c-7 -12 34 -41 57 -41 11 0 18 8 18 20 0 17 -5 19 -25
14 -15 -4 -25 -2 -25 5 0 13 -17 15 -25 2z"/>
<path d="M6465 11910 c3 -5 8 -10 11 -10 2 0 4 5 4 10 0 6 -5 10 -11 10 -5 0
-7 -4 -4 -10z"/>
<path d="M6455 11810 c3 -5 8 -10 11 -10 2 0 4 5 4 10 0 6 -5 10 -11 10 -5 0
-7 -4 -4 -10z"/>
<path d="M9845 11448 c-4 -10 -11 -16 -16 -13 -5 4 -9 -5 -9 -18 0 -17 9 -29
28 -38 19 -10 28 -23 30 -44 4 -40 34 -90 54 -90 8 0 23 -6 32 -14 21 -18 48
-7 39 16 -4 14 -3 15 6 7 14 -12 51 -7 51 7 0 4 -7 12 -15 17 -13 6 -13 14 -4
40 6 18 20 37 31 43 11 6 17 17 14 25 -3 7 2 17 11 22 10 6 12 11 5 16 -6 4
-23 -1 -37 -10 -20 -13 -29 -14 -38 -5 -6 6 -25 11 -43 11 -17 0 -42 8 -55 19
-36 28 -77 32 -84 9z"/>
<path d="M9892 11218 c-6 -6 -8 -17 -5 -24 3 -8 0 -14 -6 -14 -8 0 -9 -6 -2
-18 5 -9 7 -30 4 -45 -4 -21 1 -35 20 -55 24 -25 25 -33 21 -102 -2 -41 -8
-76 -14 -78 -5 -2 -10 -11 -10 -21 0 -33 -26 -56 -61 -55 -36 1 -49 -9 -49
-39 0 -10 -6 -24 -13 -32 -10 -10 -12 -30 -6 -86 7 -57 5 -77 -6 -89 -10 -11
-11 -20 -4 -33 8 -13 7 -22 -1 -32 -6 -8 -9 -19 -5 -26 4 -6 1 -15 -6 -20 -10
-6 -11 -9 -1 -9 6 0 12 -11 12 -24 0 -13 3 -26 8 -28 8 -3 52 -82 52 -93 0 -4
-7 -5 -15 -2 -11 5 -13 0 -8 -23 4 -25 -1 -36 -31 -66 -20 -20 -36 -44 -36
-54 0 -11 -5 -22 -10 -25 -8 -5 -8 -11 0 -20 6 -7 8 -19 4 -28 -3 -10 9 -26
35 -47 23 -19 37 -38 34 -46 -3 -9 2 -14 13 -14 41 -1 67 -35 75 -96 5 -45 3
-62 -7 -70 -8 -6 -14 -17 -14 -24 0 -8 -9 -23 -20 -35 l-20 -22 21 -27 c12
-15 23 -44 24 -65 3 -34 1 -38 -16 -34 -14 4 -19 0 -19 -15 0 -12 5 -24 10
-27 17 -11 11 -35 -15 -61 -14 -14 -28 -36 -31 -49 -3 -14 -10 -25 -15 -25 -5
0 -9 -9 -9 -20 0 -11 -6 -20 -13 -20 -7 0 -18 -9 -25 -20 -7 -12 -28 -22 -53
-26 l-41 -7 7 -41 c3 -23 6 -59 6 -80 0 -22 7 -53 15 -69 9 -16 13 -35 10 -43
-3 -7 0 -16 6 -20 7 -4 6 -9 -3 -15 -10 -6 -6 -9 12 -9 18 0 29 -8 37 -25 20
-43 14 -74 -18 -105 -29 -28 -30 -32 -15 -52 8 -13 15 -30 15 -40 0 -11 8 -18
20 -18 23 0 25 -19 8 -67 -10 -27 -16 -31 -35 -27 -22 6 -23 5 -9 -27 15 -36
54 -49 48 -16 -4 26 24 20 47 -10 12 -16 25 -33 31 -40 5 -7 10 -16 10 -21 0
-16 28 -34 34 -23 3 5 0 11 -6 14 -10 3 -8 9 5 24 9 11 17 27 17 36 0 22 19
57 44 79 10 10 16 18 11 18 -4 0 0 11 9 24 16 26 7 44 -16 29 -19 -11 -38 -12
-38 -2 0 5 5 9 11 9 6 0 8 9 4 21 -7 20 -4 21 23 16 18 -4 37 -1 48 8 26 20
41 18 47 -5 3 -11 10 -20 16 -20 6 0 8 6 6 13 -7 18 51 19 65 2 7 -8 25 -15
41 -15 28 0 56 -30 41 -44 -3 -4 1 -4 10 -1 9 4 19 2 22 -4 5 -7 13 -7 26 1
14 9 22 9 32 0 11 -9 17 -9 26 0 8 8 15 8 27 -2 18 -15 40 -1 51 32 5 16 12
19 34 14 24 -4 30 -1 44 29 9 18 21 35 27 37 6 2 12 20 14 40 3 57 25 100 47
95 13 -4 18 0 18 15 0 13 5 18 14 15 20 -8 66 55 66 88 0 24 3 26 26 21 20 -5
25 -4 21 7 -4 10 1 13 18 9 30 -5 41 14 15 30 -11 7 -20 22 -20 33 0 11 -9 40
-21 65 -22 46 -41 58 -174 106 -40 15 -85 58 -85 81 0 20 -71 93 -90 93 -22 0
-40 39 -29 67 9 25 -31 107 -57 117 -14 5 -14 8 0 22 11 11 13 21 7 32 -6 10
-5 22 2 34 9 14 8 21 -6 35 -11 12 -17 13 -17 5 0 -19 -38 10 -60 45 -16 26
-13 50 10 73 3 3 6 22 7 43 1 20 9 44 17 53 20 20 20 20 -6 57 -26 37 -28 45
-31 115 -1 46 -4 52 -23 52 -15 0 -30 13 -48 44 -26 45 -52 64 -58 42 -2 -9
-12 -10 -36 -4 -25 7 -32 13 -28 26 16 55 18 72 5 72 -7 0 -19 7 -28 15 -9 8
-27 24 -41 35 l-25 20 33 -7 c30 -5 38 -2 67 32 19 20 38 34 44 31 7 -5 8 -1
4 10 -5 13 -2 15 17 9 16 -5 21 -4 18 6 -3 8 -13 14 -24 14 -12 0 -20 8 -22
23 -3 18 -8 23 -23 19 -10 -3 -19 0 -19 6 0 6 -3 7 -7 4 -4 -4 3 -21 16 -37
19 -26 20 -31 6 -36 -8 -3 -15 -12 -15 -20 0 -8 -4 -14 -8 -14 -11 0 -13 39
-1 45 5 4 2 17 -7 30 -15 24 -13 57 3 54 25 -4 28 7 25 88 -3 76 -2 85 11 74
18 -14 36 4 20 20 -11 11 -5 56 9 65 5 3 4 12 -3 20 -9 11 -8 14 4 14 11 0 14
5 10 18 -9 25 -51 73 -55 63 -5 -14 -81 2 -86 18 -3 10 1 12 14 8 18 -7 18 -6
1 7 -13 10 -16 21 -12 39 7 28 -6 42 -23 25z"/>
<path d="M7115 11200 c-3 -5 -1 -10 4 -10 6 0 11 5 11 10 0 6 -2 10 -4 10 -3
0 -8 -4 -11 -10z"/>
<path d="M12251 9631 c-8 -5 -20 -7 -28 -4 -7 3 -19 1 -26 -5 -13 -10 -76 -27
-90 -24 -4 1 -17 -3 -29 -9 -16 -9 -22 -8 -29 2 -7 11 -9 11 -9 1 0 -8 -8 -10
-24 -6 -15 3 -27 1 -33 -8 -4 -7 -15 -13 -23 -13 -9 0 -14 -7 -12 -17 2 -11
-3 -18 -12 -18 -9 0 -35 -11 -59 -24 l-43 -25 -43 20 c-24 10 -59 33 -78 49
-37 33 -48 36 -56 16 -8 -20 -64 -28 -109 -14 -35 10 -41 9 -61 -11 -22 -21
-22 -22 -4 -53 18 -31 12 -47 -18 -48 -6 0 -22 -18 -35 -40 -14 -22 -28 -40
-32 -40 -4 0 -5 -7 -2 -15 4 -8 1 -15 -5 -15 -7 0 -17 -14 -23 -30 -6 -20 -16
-29 -27 -28 -11 2 -16 -4 -15 -19 0 -17 -7 -23 -33 -28 -24 -4 -33 -11 -33
-26 0 -16 -4 -19 -22 -13 -18 5 -28 -1 -53 -30 -21 -25 -41 -38 -64 -41 -18
-2 -41 -10 -50 -19 -25 -23 -66 -29 -80 -13 -13 17 -52 11 -64 -10 -13 -21
-36 -15 -67 19 -16 17 -32 30 -34 27 -7 -7 75 -95 94 -101 12 -4 13 -7 2 -20
-7 -10 -10 -26 -7 -41 5 -19 2 -27 -12 -31 -42 -13 -11 -84 37 -86 21 0 23
-100 2 -100 -10 0 -12 -6 -7 -17 4 -10 11 -33 15 -51 4 -18 13 -39 19 -46 7
-8 13 -28 14 -44 1 -18 6 -27 11 -22 5 5 16 0 25 -11 16 -20 16 -20 51 5 19
14 45 31 58 37 12 7 22 18 22 26 0 7 14 28 32 45 30 29 33 30 94 24 61 -6 63
-6 76 21 7 15 27 32 43 38 17 5 37 19 46 30 15 18 21 19 60 8 37 -10 47 -9 61
4 19 17 58 14 153 -12 127 -35 124 -34 130 -14 4 11 18 26 33 34 46 25 85 62
78 74 -17 27 67 -1 92 -32 10 -12 20 -12 71 2 58 15 61 15 83 -5 42 -39 128
-80 136 -67 6 10 14 9 37 -3 34 -17 52 -13 57 15 l3 20 45 -20 c24 -11 48 -25
52 -32 5 -8 16 -5 37 11 16 12 37 19 45 16 9 -3 16 -1 16 5 0 6 7 11 15 11 8
0 15 5 15 11 0 6 6 9 13 6 22 -8 48 13 42 33 -3 10 -1 21 4 24 6 4 7 14 4 22
-5 14 -3 15 14 6 23 -13 34 -7 26 14 -4 10 3 14 21 14 17 0 26 5 26 15 0 21
27 30 44 16 11 -10 23 -8 53 8 22 11 45 26 51 34 15 17 19 65 8 89 -14 31 46
-1 79 -42 17 -20 39 -41 49 -46 33 -15 42 -40 23 -62 -9 -10 -17 -25 -17 -34
0 -8 -12 -25 -26 -39 -23 -21 -25 -29 -20 -71 4 -29 3 -48 -3 -48 -13 0 5 -61
21 -71 7 -5 22 -6 33 -4 11 2 37 7 58 10 32 5 36 8 28 24 -12 22 -3 63 13 58
6 -2 11 -10 12 -18 1 -30 39 -79 61 -79 12 0 31 -9 41 -20 10 -11 27 -21 38
-23 28 -4 46 -17 41 -30 -5 -16 39 -126 60 -149 20 -23 44 -88 32 -88 -16 0
-9 -25 17 -64 23 -33 28 -36 36 -22 5 9 18 16 28 16 15 0 20 7 20 28 0 45 73
95 99 69 10 -9 18 -6 37 16 13 15 24 35 24 43 0 8 7 14 15 14 8 0 15 6 16 13
0 6 14 23 30 36 27 21 32 22 47 9 9 -8 32 -21 50 -28 18 -7 36 -19 40 -26 5
-8 16 -11 31 -7 21 5 23 10 18 44 -4 28 -2 37 6 33 7 -3 3 2 -7 10 -11 9 -15
16 -8 16 6 0 10 15 9 38 -1 37 -1 37 -42 34 -26 -2 -35 0 -27 6 7 5 12 15 10
23 -2 9 4 13 15 11 16 -3 18 1 12 28 -6 27 -4 32 14 37 16 4 20 11 16 24 -4
13 -1 19 8 19 23 0 50 36 43 58 -4 13 -1 22 9 26 8 3 15 1 15 -4 0 -17 44 -10
68 9 22 19 30 51 13 51 -5 0 -12 14 -15 30 -3 17 -9 44 -12 60 -9 47 -29 61
-75 54 -33 -6 -44 -3 -60 15 -11 11 -25 21 -31 21 -6 0 -20 8 -30 17 -14 13
-21 14 -27 5 -5 -9 -12 -9 -26 2 -11 8 -25 12 -31 9 -7 -3 -19 5 -26 16 -15
24 -48 28 -48 6 0 -21 -13 -19 -35 5 -10 11 -24 20 -32 20 -7 0 -16 7 -19 15
-4 10 -13 13 -26 9 -26 -8 -57 21 -51 47 3 10 13 19 23 19 13 0 17 5 13 21 -3
12 0 25 7 29 9 6 8 15 -5 43 -19 40 -54 77 -42 44 4 -12 1 -20 -11 -24 -9 -4
-21 -13 -25 -20 -7 -11 -12 -11 -23 -2 -8 6 -14 17 -14 24 0 23 -24 22 -47 -2
-16 -16 -18 -25 -10 -30 7 -5 -4 -10 -28 -13 -44 -6 -93 8 -146 39 -19 11 -45
21 -59 23 -32 4 -52 17 -45 29 4 5 2 9 -3 9 -6 0 -8 8 -5 19 4 14 -1 19 -21
19 -22 0 -24 -3 -15 -19 7 -15 6 -19 -5 -19 -9 0 -13 6 -10 14 4 9 -6 20 -25
31 -17 8 -31 22 -31 29 0 8 -7 17 -16 20 -12 4 -13 10 -6 19 7 8 6 20 -3 37
-10 17 -14 20 -15 9 0 -20 -43 -15 -61 7 -6 8 -28 14 -49 14 -22 0 -43 7 -51
16 -11 14 -27 15 -94 10 -95 -7 -83 -7 -168 0 -46 4 -72 3 -82 -6 -8 -7 -21
-10 -28 -7 -7 3 -21 -1 -32 -9 -29 -22 -98 -18 -113 6 -9 15 -23 20 -55 20
-23 0 -48 -4 -56 -9z m859 -216 c-7 -9 -15 -13 -17 -11 -7 7 7 26 19 26 6 0 6
-6 -2 -15z m-379 -176 c13 -25 -4 -42 -33 -35 -9 2 -19 -1 -22 -8 -3 -6 -3 -1
0 12 4 15 0 24 -13 29 -15 6 -13 9 12 14 17 4 33 7 37 8 4 0 12 -9 19 -20z"/>
<path d="M10782 9164 c10 -10 20 -15 24 -12 3 4 -5 12 -18 18 -22 12 -22 12
-6 -6z"/>
<path d="M9872 8533 c2 -10 10 -18 18 -18 22 0 18 29 -3 33 -14 3 -18 -1 -15
-15z"/>
<path d="M13525 8222 c-11 -2 -24 -8 -29 -13 -6 -5 -20 -9 -33 -9 -12 0 -26
-6 -30 -14 -4 -8 -28 -28 -51 -44 -41 -27 -44 -32 -48 -83 -7 -68 -7 -83 -6
-144 2 -65 -2 -94 -15 -125 -6 -14 -14 -33 -17 -42 -7 -23 -44 -23 -75 -2 -22
16 -23 16 -16 -6 5 -15 2 -25 -6 -31 -11 -7 -11 -9 2 -9 27 0 56 -43 63 -93 6
-47 5 -47 -19 -41 -19 5 -25 2 -25 -11 0 -15 -7 -16 -50 -10 -42 6 -50 4 -50
-9 0 -9 -17 -23 -40 -32 -34 -14 -38 -19 -30 -34 6 -10 10 -28 10 -40 0 -14 8
-24 21 -27 20 -6 20 -7 5 -18 -14 -11 -15 -14 -1 -25 8 -7 15 -18 15 -25 0
-15 28 -28 42 -19 5 4 23 -3 38 -15 20 -14 30 -17 33 -8 3 6 6 2 6 -9 1 -22
22 -46 37 -43 20 3 33 -2 56 -26 22 -22 27 -23 32 -9 3 9 13 14 21 10 8 -3 18
1 22 8 5 7 14 15 22 18 8 2 15 16 17 31 2 25 0 27 -34 29 -20 0 -44 1 -53 0
-19 -2 -31 42 -22 76 3 13 -4 36 -16 57 -11 20 -21 44 -21 54 0 9 -5 22 -12
29 -20 20 -2 23 31 5 17 -10 31 -24 31 -30 0 -7 7 -13 15 -13 8 0 24 -18 35
-39 19 -39 50 -59 70 -46 5 3 10 -1 10 -10 0 -10 11 -26 25 -37 14 -11 25 -28
25 -39 0 -11 7 -22 15 -25 8 -4 15 -12 15 -19 0 -7 7 -16 16 -19 8 -3 12 -11
8 -17 -4 -7 -3 -9 4 -5 6 3 13 2 17 -3 3 -5 18 -16 34 -24 28 -14 29 -14 35
15 5 23 10 28 25 23 10 -3 31 0 47 6 32 13 80 12 107 -2 11 -6 24 -6 35 0 15
9 15 10 1 11 -12 0 -18 14 -23 52 -4 29 -12 58 -18 65 -7 9 -7 13 2 13 16 0
-38 67 -126 155 -73 72 -74 74 -74 125 0 39 -6 59 -24 83 -20 26 -24 40 -19
73 3 26 1 44 -6 48 -12 8 -5 52 11 73 5 7 6 18 1 25 -4 7 -11 58 -14 113 -9
141 -14 156 -54 147z"/>
<path d="M13223 7643 c-7 -2 -13 -11 -13 -19 0 -8 -7 -14 -15 -14 -9 0 -12 -6
-8 -17 4 -11 8 -13 11 -5 3 10 7 10 17 2 10 -9 16 -7 24 9 21 38 14 57 -16 44z"/>
<path d="M12944 7510 c-1 -16 2 -27 6 -25 4 3 13 -2 20 -10 11 -14 15 -14 31
1 20 18 14 48 -9 39 -8 -3 -22 1 -31 9 -14 13 -16 11 -17 -14z"/>
<path d="M13918 7253 c-16 -4 -16 -7 -3 -27 8 -12 12 -26 8 -29 -3 -4 1 -7 10
-7 9 0 27 -12 40 -26 22 -24 25 -24 41 -9 21 22 20 32 -4 38 -11 3 -28 19 -37
36 -18 31 -22 33 -55 24z"/>
<path d="M14270 7129 c0 -5 5 -7 10 -4 6 3 10 8 10 11 0 2 -4 4 -10 4 -5 0
-10 -5 -10 -11z"/>
<path d="M13936 7098 c-3 -13 -6 -40 -6 -60 0 -28 -4 -38 -16 -38 -11 0 -14
-5 -10 -16 3 -9 6 -22 6 -31 0 -11 6 -10 28 7 29 23 57 86 42 95 -5 3 -7 19
-3 35 5 25 2 30 -15 30 -12 0 -22 -9 -26 -22z"/>
<path d="M14248 7075 c-6 -24 6 -63 15 -48 3 5 3 23 -2 39 -6 25 -8 26 -13 9z"/>
<path d="M14230 6995 c0 -8 -8 -15 -17 -15 -10 0 -29 -16 -43 -35 -32 -44
-100 -73 -134 -57 -19 8 -25 8 -29 -2 -4 -9 -15 -12 -32 -8 -24 4 -26 2 -21
-16 15 -47 16 -64 1 -58 -9 3 -15 0 -15 -9 0 -22 -53 -66 -70 -59 -34 14 -50
16 -50 5 0 -6 8 -11 19 -11 28 0 39 -20 39 -75 0 -27 3 -57 6 -66 4 -9 6 -20
5 -25 -7 -37 37 -64 101 -61 23 1 37 3 31 5 -13 4 -15 42 -3 42 15 0 32 -24
32 -44 0 -17 2 -18 10 -6 8 13 11 13 19 1 9 -15 35 -6 26 9 -7 12 40 24 61 16
8 -3 24 -2 33 4 15 7 17 18 14 52 -3 24 -13 52 -23 63 -9 11 -19 27 -22 35
-11 30 -13 35 -36 57 -32 33 -25 58 16 58 33 0 47 19 42 56 -5 34 1 59 14 59
17 0 28 -24 20 -45 -5 -13 1 -17 22 -14 11 1 24 -25 24 -51 0 -18 3 -21 9 -11
7 10 13 11 30 2 11 -7 21 -16 21 -21 0 -5 7 -7 15 -4 22 9 19 21 -13 49 -23
20 -27 31 -24 60 3 24 9 35 21 35 15 1 15 2 0 13 -9 7 -21 22 -28 35 -7 12
-17 22 -24 21 -27 -3 -36 2 -31 16 4 8 1 15 -5 15 -6 0 -11 -7 -11 -15z m20
-85 c0 -5 -5 -10 -11 -10 -5 0 -7 5 -4 10 3 6 8 10 11 10 2 0 4 -4 4 -10z"/>
<path d="M13900 6914 c0 -17 17 -36 24 -26 3 5 -1 15 -9 22 -8 7 -15 9 -15 4z"/>
<path d="M13992 6470 c2 -20 9 -26 36 -28 19 -2 32 1 32 8 0 6 -5 8 -11 5 -6
-4 -22 4 -36 16 l-25 24 4 -25z"/>
<path d="M14080 6425 c0 -2 10 -10 23 -16 20 -11 21 -11 8 4 -13 16 -31 23
-31 12z"/>
<path d="M14130 6390 c0 -5 5 -10 10 -10 6 0 10 5 10 10 0 6 -4 10 -10 10 -5
0 -10 -4 -10 -10z"/>
</g>
</svg>
