<?xml version="1.0" standalone="no"?>
<!DOCTYPE svg PUBLIC "-//W3C//DTD SVG 20010904//EN"
 "http://www.w3.org/TR/2001/REC-SVG-20010904/DTD/svg10.dtd">
<svg version="1.0" xmlns="http://www.w3.org/2000/svg"
 width="555.599205pt" height="672.569050pt" viewBox="0 0 555.599205 672.569050"
 preserveAspectRatio="xMidYMid meet">
<metadata>
Created by potrace 1.15, written by Peter Selinger 2001-2017
</metadata>
<g transform="translate(-726.496565,1359.569050) scale(0.100000,-0.100000)"
fill="#222222" stroke="none">
<path d="M11992 13572 c-17 -23 -27 -28 -52 -24 -18 2 -40 -2 -55 -12 -13 -9
-35 -16 -48 -16 -22 0 -23 -4 -21 -50 1 -35 -2 -50 -11 -50 -7 0 -15 -9 -18
-20 -3 -11 -12 -20 -21 -20 -23 0 -15 -51 13 -81 13 -13 29 -37 36 -54 8 -16
28 -45 46 -64 30 -30 32 -34 17 -45 -15 -11 -15 -13 1 -23 13 -8 22 -6 40 8
13 11 29 19 36 19 7 0 15 20 18 49 3 28 14 65 23 83 10 20 16 54 16 90 -1 56
0 58 23 52 20 -5 23 -3 18 15 -3 12 -2 21 1 21 14 0 65 -31 73 -44 4 -7 22
-16 38 -20 28 -6 31 -4 41 29 13 42 2 59 -45 70 -39 8 -63 37 -59 71 3 26 0
29 -27 30 -16 0 -37 4 -46 8 -12 5 -23 -1 -37 -22z"/>
<path d="M9240 13271 c0 -8 -6 -11 -15 -7 -12 4 -14 0 -10 -17 4 -15 0 -29
-14 -41 -19 -17 -20 -17 -37 2 -14 17 -19 18 -31 7 -7 -8 -13 -18 -13 -24 0
-6 -9 -15 -20 -21 -14 -7 -20 -21 -20 -44 0 -25 -6 -35 -25 -44 -30 -14 -86
-98 -79 -117 7 -17 -34 -74 -61 -86 -19 -8 -19 -8 3 -15 12 -3 22 -10 22 -15
0 -5 7 -9 15 -9 20 0 19 -27 -1 -48 -13 -13 -22 -14 -45 -5 -16 6 -29 7 -29 3
0 -5 -13 -15 -30 -24 -16 -8 -30 -10 -30 -5 0 6 -4 8 -9 5 -5 -4 -22 -1 -38 5
-34 13 -153 17 -153 5 0 -4 -11 -6 -25 -4 l-24 5 22 -29 c18 -22 28 -27 53
-24 22 3 34 -1 42 -15 7 -10 18 -16 26 -13 19 7 23 -25 21 -143 -1 -82 1 -102
17 -125 11 -16 28 -28 39 -28 12 0 24 -11 32 -27 13 -31 27 -43 75 -60 37 -14
66 -7 58 13 -3 9 2 14 14 14 14 0 20 7 20 21 0 19 2 20 16 8 12 -10 15 -24 10
-55 -4 -35 0 -49 26 -90 27 -41 32 -57 29 -99 -1 -27 2 -63 9 -79 9 -24 8 -32
-7 -48 -17 -19 -17 -21 0 -50 9 -16 17 -42 17 -58 0 -16 5 -32 10 -35 6 -4 8
-11 5 -16 -4 -5 -2 -9 4 -9 5 0 3 -14 -6 -31 -8 -16 -20 -28 -26 -26 -14 4
-37 -37 -37 -64 0 -11 -6 -22 -14 -25 -8 -3 -13 -11 -10 -17 2 -7 -14 -21 -36
-31 -32 -16 -40 -24 -40 -47 0 -15 -11 -41 -25 -57 -18 -22 -25 -40 -23 -64 2
-27 0 -33 -15 -31 -17 1 -18 -5 -14 -60 6 -72 11 -99 19 -112 3 -6 11 -27 16
-48 11 -39 2 -71 -23 -89 -15 -11 -1 -19 38 -21 35 -3 77 -39 77 -68 0 -9 18
-10 70 -6 53 4 71 3 77 -8 5 -7 20 -17 36 -20 21 -6 27 -4 27 9 0 9 5 16 12
16 7 0 5 7 -5 18 -13 14 -13 20 -2 35 12 17 14 16 35 -10 17 -22 28 -27 55
-24 19 1 43 -3 54 -9 17 -9 21 -8 21 5 0 9 5 13 10 10 6 -3 10 1 10 9 0 9 6
16 14 16 8 0 16 5 18 12 3 7 25 0 64 -23 32 -19 74 -38 93 -44 26 -8 37 -19
50 -51 21 -53 40 -76 59 -69 11 4 13 -5 11 -42 -3 -52 7 -83 28 -96 7 -4 13
-17 13 -27 0 -11 7 -20 15 -20 9 0 12 -6 9 -15 -4 -8 -2 -15 4 -15 5 0 12 -11
14 -25 4 -20 1 -25 -14 -25 -18 0 -19 -4 -13 -37 4 -21 11 -43 16 -49 5 -6 6
-13 4 -16 -11 -11 42 -36 56 -27 20 12 26 11 33 -7 5 -13 1 -15 -19 -10 -23 6
-25 4 -20 -16 2 -13 9 -52 15 -88 10 -70 6 -78 -48 -90 -24 -5 -24 -5 -5 -30
11 -14 20 -36 21 -50 0 -14 3 -34 6 -46 6 -24 -26 -64 -52 -64 -17 0 -42 -58
-42 -100 0 -11 -4 -20 -8 -20 -5 0 -17 -17 -26 -37 -30 -69 -52 -105 -69 -115
-10 -5 -17 -21 -17 -39 0 -22 -6 -32 -25 -39 -19 -7 -25 -17 -25 -38 0 -15 5
-33 11 -39 9 -9 7 -10 -10 -6 -11 3 -21 1 -21 -5 0 -6 -11 -9 -25 -6 -14 2
-25 0 -25 -5 0 -6 -16 -1 -36 11 -26 15 -35 18 -32 7 3 -8 1 -22 -4 -32 -7
-14 -3 -28 16 -56 14 -20 26 -45 26 -54 0 -10 7 -34 15 -53 15 -36 10 -69 -6
-43 -6 9 -9 -1 -9 -28 0 -26 -5 -43 -12 -43 -6 0 -2 -10 10 -23 29 -31 28 -61
-5 -86 -14 -12 -23 -24 -20 -28 4 -3 2 -12 -3 -18 -14 -17 16 -28 40 -15 15 8
23 5 38 -15 11 -14 25 -25 30 -25 16 0 24 -36 17 -70 -4 -17 -8 -30 -11 -30
-14 0 -48 48 -45 64 1 10 -3 23 -11 27 -22 14 -30 10 -13 -7 9 -9 13 -19 9
-23 -4 -3 -9 0 -11 7 -3 6 -9 10 -14 6 -5 -3 -9 3 -9 12 0 17 -1 17 -13 0 -12
-16 -16 -13 -41 34 -28 51 -28 52 -6 45 17 -5 20 -4 15 5 -5 8 0 19 14 29 l21
16 -30 33 c-23 26 -28 37 -20 51 13 26 -3 38 -45 33 -27 -3 -35 -9 -35 -24 0
-15 -5 -19 -20 -15 -11 3 -23 1 -26 -4 -3 -5 -12 -5 -23 0 -10 6 -43 9 -73 8
-46 -2 -54 -5 -50 -19 2 -9 -7 -28 -21 -42 -14 -14 -25 -31 -24 -38 2 -55 -1
-59 -43 -52 -34 6 -40 4 -40 -11 0 -10 8 -27 17 -37 12 -14 14 -21 6 -26 -8
-5 -9 -13 -3 -22 6 -8 10 -24 10 -36 0 -12 11 -41 23 -65 15 -28 23 -59 22
-84 -2 -51 2 -63 30 -78 l23 -12 -18 -70 c-9 -38 -23 -71 -29 -73 -6 -2 -9 -8
-5 -13 3 -5 -2 -12 -10 -15 -9 -3 -14 -10 -11 -14 3 -5 1 -20 -5 -34 -5 -14
-5 -28 -1 -31 18 -10 41 8 41 31 0 14 7 27 15 30 8 4 15 15 15 25 0 12 7 19
19 19 10 0 21 7 25 15 3 8 10 14 17 13 12 -3 22 11 43 65 12 29 20 37 41 37
14 0 39 7 54 15 16 8 31 12 34 9 14 -14 66 23 90 63 18 29 33 43 47 43 17 0
20 -4 15 -19 -4 -15 -1 -20 12 -19 23 2 103 -48 103 -65 0 -7 12 -24 28 -39
15 -14 34 -34 42 -44 14 -18 15 -18 18 3 2 12 18 37 36 56 26 28 32 41 28 66
-2 19 0 31 7 31 14 0 14 33 0 47 -7 7 -9 25 -5 47 6 32 11 36 36 36 41 0 80
20 80 42 0 10 7 18 15 18 21 0 19 24 -5 45 -19 18 -19 18 3 41 12 13 31 24 43
24 11 0 29 9 38 19 12 13 38 22 74 27 41 5 62 13 80 33 26 28 55 30 85 4 15
-15 19 -15 35 0 10 10 27 17 38 17 30 0 58 24 51 44 -5 11 -1 16 13 16 11 0
20 5 20 10 0 6 11 15 25 22 14 6 27 23 30 39 5 23 12 29 32 29 16 0 27 7 30
19 7 28 112 38 133 12 15 -17 16 -17 33 6 11 13 28 23 43 23 48 0 62 15 57 62
-5 40 -3 43 18 44 13 0 38 3 55 8 48 11 53 -17 13 -67 l-32 -40 29 7 c16 4 38
8 48 10 12 1 24 15 29 32 5 16 14 34 19 40 4 6 5 19 2 29 -4 9 -2 20 3 24 15
9 27 71 14 71 -6 0 -11 7 -11 15 0 8 8 15 17 15 29 0 80 42 93 77 6 19 21 38
32 42 19 7 19 8 3 24 -13 14 -14 17 -2 17 19 0 29 24 20 48 -6 15 -8 14 -13
-5 -5 -22 -6 -22 -43 12 -21 19 -44 35 -50 35 -7 0 -17 16 -23 35 -9 29 -9 35
4 35 9 0 12 6 7 18 -7 19 -8 22 -6 40 0 6 7 12 14 12 14 0 37 40 37 63 0 7 14
18 30 24 30 11 41 45 19 58 -6 4 -8 14 -5 22 4 8 -5 28 -18 44 -29 34 -42 85
-27 103 22 26 -7 155 -44 196 -12 14 -25 44 -29 68 -6 41 -5 42 17 37 21 -6
26 -1 41 40 12 31 16 58 12 83 -14 80 -12 97 11 100 20 3 22 10 25 88 2 47 -1
92 -6 101 -4 8 -10 42 -11 74 -3 46 0 59 11 59 18 0 18 8 -1 26 -23 24 -19 47
6 39 19 -6 21 -4 16 14 -3 14 0 24 9 28 8 3 14 12 14 19 0 8 6 21 13 28 10 11
17 10 42 -8 17 -11 41 -21 55 -21 27 0 28 -4 16 -95 -5 -36 -4 -40 4 -21 10
23 11 23 37 6 24 -16 27 -16 38 -1 7 10 19 14 29 10 26 -10 86 5 86 21 0 24
42 17 72 -12 l28 -27 41 21 c41 21 42 21 62 2 12 -10 24 -19 29 -19 4 0 8 -9
8 -21 0 -14 5 -19 18 -17 11 2 25 -2 33 -8 23 -19 89 -44 89 -33 0 5 6 9 14 9
8 0 16 4 18 8 2 5 15 12 31 16 20 5 29 2 33 -9 4 -8 13 -15 21 -15 9 0 14 -9
12 -27 -4 -53 -1 -61 26 -55 14 2 22 8 19 13 -7 12 3 11 26 -1 19 -10 120
-155 120 -171 0 -5 9 -9 20 -9 16 0 20 -7 20 -36 0 -40 51 -124 76 -124 8 0
32 -9 53 -20 30 -15 40 -27 45 -53 4 -19 4 -42 0 -51 -4 -9 -1 -16 6 -16 6 0
14 9 17 20 6 24 12 25 39 5 19 -13 23 -12 43 6 11 11 21 24 21 28 0 5 9 7 20
4 14 -4 20 0 20 11 0 9 8 16 18 16 17 1 83 119 83 150 0 11 4 10 17 -5 9 -11
28 -21 41 -23 14 -1 22 1 18 4 -4 4 -2 13 5 21 8 10 8 20 -2 38 -11 20 -11 27
0 40 7 8 10 18 7 21 -7 8 17 34 31 34 5 0 12 9 15 20 4 16 14 20 45 20 31 0
41 5 49 23 11 25 -1 51 -49 103 -16 17 -32 44 -37 60 -4 17 -15 30 -27 32 -10
2 -29 14 -40 26 -12 13 -36 28 -53 36 -17 7 -31 17 -31 23 0 6 -7 19 -16 29
-14 14 -14 20 -4 33 7 8 10 28 8 44 -2 17 -2 29 1 28 14 -3 72 41 62 47 -6 4
-11 22 -11 39 0 18 -13 50 -29 74 -37 54 -62 197 -42 240 8 18 9 29 1 37 -5 5
-10 29 -10 51 0 29 -6 47 -20 60 -11 10 -20 28 -20 39 0 12 -4 27 -8 34 -10
16 -32 -50 -32 -97 0 -27 -4 -31 -26 -31 -19 0 -25 4 -20 15 3 8 0 15 -7 15
-9 0 -8 3 1 9 7 4 15 24 16 44 3 30 0 36 -18 39 -17 2 -22 11 -24 46 -2 26 -8
42 -16 42 -19 0 -37 24 -40 54 -3 31 -23 56 -45 56 -10 0 -28 11 -40 24 -21
23 -61 26 -61 5 0 -5 -14 -9 -31 -9 -16 0 -28 4 -25 8 7 11 -56 2 -72 -11 -7
-5 -37 -10 -67 -11 -55 0 -55 0 -66 -38 -5 -21 -14 -38 -19 -38 -6 0 -10 -7
-10 -15 0 -10 -10 -15 -30 -15 -16 0 -30 -5 -30 -11 0 -7 -11 -9 -30 -5 -23 4
-32 1 -37 -10 -4 -11 -13 -14 -30 -9 -18 4 -39 -3 -76 -27 -29 -18 -56 -39
-61 -47 -15 -24 -57 -60 -88 -76 -23 -11 -34 -12 -48 -3 -15 10 -23 9 -39 -6
-12 -11 -21 -25 -21 -32 0 -17 -37 -37 -56 -30 -8 3 -14 12 -14 20 0 8 -15 24
-34 35 -40 25 -46 26 -46 4 0 -14 -2 -14 -17 -1 -24 20 -64 20 -85 1 -14 -13
-21 -14 -30 -5 -7 7 -29 12 -50 12 -32 0 -38 -3 -38 -21 0 -15 -5 -19 -19 -14
-11 3 -25 -1 -34 -10 -10 -10 -18 -12 -22 -5 -4 6 -12 9 -18 7 -7 -2 -18 2
-25 10 -16 15 -56 18 -47 3 3 -5 13 -10 21 -10 8 0 26 -11 39 -24 20 -20 22
-29 15 -57 -12 -51 -21 -69 -34 -69 -19 0 -12 -41 9 -56 10 -8 29 -14 42 -14
13 0 23 -4 23 -10 0 -5 -4 -10 -10 -10 -6 0 -10 -26 -10 -59 0 -64 -12 -84
-30 -51 -15 28 -58 27 -62 -2 -2 -17 -9 -23 -28 -22 -13 1 -31 -5 -39 -13 -8
-9 -23 -12 -38 -8 -21 5 -23 3 -18 -18 5 -20 1 -27 -27 -39 -59 -28 -77 -30
-94 -14 -8 9 -26 16 -40 16 -17 0 -24 6 -24 19 0 29 -22 42 -44 25 -30 -21
-52 -17 -75 14 -12 15 -25 32 -30 39 -6 7 -26 9 -51 6 -24 -3 -40 -2 -40 5 0
11 -119 10 -138 -2 -6 -3 -22 -1 -36 5 -20 9 -26 20 -26 44 0 26 -5 32 -32 40
-17 6 -34 16 -36 23 -3 11 0 12 16 3 28 -15 32 -14 32 5 0 13 7 15 31 10 24
-5 35 -1 49 17 13 16 15 26 8 35 -8 9 -3 12 23 12 19 0 41 5 49 10 13 9 13 12
-3 24 -11 9 -14 15 -7 18 7 2 12 21 12 42 l0 38 27 -26 c25 -24 61 -35 61 -19
0 3 -14 18 -31 33 -24 20 -32 35 -35 69 -2 24 -7 48 -11 55 -4 6 -8 17 -9 24
-2 8 -10 22 -20 33 -9 10 -14 22 -11 26 11 10 57 -38 57 -59 0 -10 5 -18 11
-18 6 0 9 7 5 15 -3 8 -1 15 5 15 6 0 7 5 4 10 -9 15 7 12 31 -5 12 -8 23 -12
26 -10 3 3 26 1 52 -4 26 -5 49 -5 52 0 3 5 14 9 24 9 10 0 27 11 38 25 11 14
25 25 31 25 6 0 11 6 11 14 0 24 92 0 114 -30 14 -19 21 -22 27 -13 6 11 13 9
31 -8 l23 -21 40 19 c22 11 45 26 51 34 9 12 15 9 38 -17 15 -17 25 -37 22
-45 -3 -7 1 -13 8 -13 8 0 16 6 18 12 3 8 9 4 17 -10 12 -23 37 -30 43 -12 5
17 125 32 149 19 26 -13 50 4 32 22 -6 6 -9 18 -6 25 3 8 2 30 -1 49 -5 26
-12 35 -26 35 -13 0 -20 7 -20 19 0 10 -7 24 -15 31 -8 6 -13 17 -12 23 1 6
-5 11 -13 12 -8 0 -15 9 -16 20 -1 11 -2 25 -4 30 -1 6 -2 13 -2 17 1 3 -5 9
-14 12 -12 5 -12 2 -3 -15 27 -51 -27 -67 -63 -19 -21 29 -23 30 -30 10 -9
-24 -31 -26 -48 -5 -9 11 -9 15 -1 15 7 0 9 5 6 10 -4 6 -16 3 -32 -10 -14
-11 -38 -20 -52 -20 -15 0 -32 -5 -37 -10 -12 -12 -69 9 -118 43 -17 12 -33
23 -36 25 -2 2 2 7 9 11 11 7 10 11 -5 20 -17 11 -15 12 13 8 43 -5 32 9 -14
18 -28 5 -38 3 -45 -10 -8 -13 -13 -14 -24 -4 -10 8 -18 9 -25 2 -15 -15 -48
-4 -59 18 -6 10 -17 16 -25 13 -8 -4 -34 5 -58 19 -41 25 -97 28 -97 5 0 -5
-5 -6 -12 -2 -7 4 -21 9 -32 10 -12 1 -41 9 -65 18 -33 13 -47 14 -57 5 -19
-16 -57 -1 -163 65 -69 42 -91 52 -95 41 -3 -8 -10 -15 -17 -15 -6 0 -9 6 -6
13 4 10 -2 13 -18 9 -12 -2 -35 3 -50 10 -24 13 -31 13 -63 -4 -36 -18 -36
-18 -47 2 -6 11 -14 17 -18 14 -4 -4 -7 0 -7 9 0 10 -6 17 -14 17 -23 0 -76
34 -82 53 -3 9 -15 17 -27 17 -12 0 -40 12 -62 27 -36 25 -37 27 -17 34 24 9
20 22 -27 88 -22 30 -23 37 -12 68 11 30 11 38 -3 51 -12 12 -20 13 -39 5 -18
-9 -32 -7 -66 9 -23 10 -44 27 -47 36 -3 9 -12 29 -20 44 -13 23 -12 27 1 30
14 3 14 5 1 23 -10 13 -15 15 -16 6z m568 -1175 c1 -2 0 -10 -3 -18 -11 -27
-64 -30 -101 -7 -19 11 -34 22 -34 24 0 2 15 1 34 -2 21 -3 36 -1 41 7 6 10
52 7 63 -4z m1534 -213 c21 -19 24 -53 5 -53 -8 0 -22 -9 -33 -21 l-19 -21
-17 22 c-23 29 -23 47 1 55 12 4 18 12 14 21 -7 20 26 18 49 -3z m-1316 -151
c7 -4 8 -15 3 -29 -10 -28 -16 -28 -42 -5 -11 9 -17 12 -14 5 5 -7 0 -9 -13
-6 -15 4 -17 8 -7 17 23 23 54 31 73 18z m1094 -192 c0 -5 -8 -10 -17 -10 -15
0 -16 2 -3 10 19 12 20 12 20 0z m1689 -356 c3 -16 1 -17 -13 -5 -19 16 -21
34 -3 29 6 -3 14 -13 16 -24z m-3199 -2039 c0 -14 -4 -25 -10 -25 -5 0 -10 11
-10 25 0 14 5 25 10 25 6 0 10 -11 10 -25z m-59 -148 c-10 -9 -11 -8 -5 6 3
10 9 15 12 12 3 -3 0 -11 -7 -18z"/>
<path d="M11846 13079 c3 -5 1 -9 -5 -9 -5 0 -13 -9 -16 -20 -3 -11 -13 -20
-22 -20 -12 0 -13 -3 -4 -14 10 -11 10 -20 0 -37 -9 -17 -9 -24 0 -27 6 -2 11
-10 11 -18 0 -8 4 -14 8 -14 4 0 9 -21 10 -47 1 -25 10 -58 19 -72 10 -14 18
-32 18 -40 0 -7 10 -20 23 -29 15 -10 22 -11 22 -3 0 8 6 7 16 -3 20 -21 34
-20 34 2 0 9 12 35 25 57 30 48 32 80 6 102 -19 15 -19 17 -3 31 9 7 12 11 6
8 -13 -7 -37 18 -27 27 3 4 -10 7 -30 7 -26 0 -37 4 -37 15 0 8 -4 15 -10 15
-5 0 -15 10 -21 23 -11 20 -11 21 5 8 15 -13 18 -12 23 7 3 12 13 22 21 22 14
0 14 2 -1 17 -18 18 -81 28 -71 12z"/>
<path d="M11911 12684 c0 -11 3 -14 6 -6 3 7 2 16 -1 19 -3 4 -6 -2 -5 -13z"/>
<path d="M11922 12640 c0 -14 2 -19 5 -12 2 6 2 18 0 25 -3 6 -5 1 -5 -13z"/>
<path d="M11897 12584 c-8 -8 3 -34 14 -34 11 0 12 27 0 34 -4 3 -11 3 -14 0z"/>
<path d="M11894 12532 c-6 -4 -14 -18 -17 -31 l-6 -24 21 20 c20 21 22 49 2
35z"/>
<path d="M11862 12442 c-6 -14 -12 -32 -12 -40 0 -9 -6 -12 -16 -8 -20 8 -16
-34 6 -51 19 -15 50 -17 50 -2 0 5 5 7 10 4 6 -3 10 -1 10 4 0 6 -9 11 -19 11
-29 0 -33 13 -17 52 18 41 7 69 -12 30z"/>
<path d="M11275 12130 c3 -5 8 -10 11 -10 2 0 4 5 4 10 0 6 -5 10 -11 10 -5 0
-7 -4 -4 -10z"/>
<path d="M11300 12116 c0 -9 5 -16 10 -16 6 0 10 4 10 9 0 6 -4 13 -10 16 -5
3 -10 -1 -10 -9z"/>
<path d="M9380 9471 c0 -45 14 -48 22 -6 3 14 -1 30 -8 36 -11 9 -14 4 -14
-30z"/>
<path d="M9327 9430 c3 -11 9 -22 13 -25 5 -3 6 4 3 15 -3 11 -9 22 -13 25 -5
3 -6 -4 -3 -15z"/>
<path d="M9971 9118 c-17 -6 -21 -12 -14 -19 17 -17 51 -7 44 12 -5 13 -11 14
-30 7z"/>
<path d="M8048 8973 c-10 -2 -18 -9 -18 -14 0 -5 -9 -9 -20 -9 -21 0 -27 -15
-10 -25 14 -9 -11 -45 -33 -45 -21 0 -35 -29 -18 -39 6 -4 9 -14 6 -23 -3 -8
-1 -28 5 -43 9 -24 8 -32 -5 -41 -14 -10 -14 -13 0 -24 21 -18 19 -29 -10 -40
-14 -5 -25 -16 -25 -23 0 -19 -33 -47 -55 -47 -15 0 -17 -6 -12 -35 3 -18 0
-46 -6 -60 -10 -21 -17 -24 -40 -19 -20 4 -29 1 -34 -13 -3 -10 -11 -25 -18
-33 -15 -19 -38 -100 -31 -108 3 -3 -1 -13 -10 -23 -9 -10 -14 -27 -11 -39 6
-23 -5 -32 -46 -37 -17 -2 -26 1 -22 7 3 6 -3 10 -13 10 -11 0 -27 11 -36 25
-9 14 -12 25 -6 25 6 0 1 18 -10 40 -22 43 -27 116 -9 122 9 3 9 10 0 27 -7
13 -11 31 -8 42 5 18 -18 47 -29 36 -4 -3 -2 -27 2 -54 8 -43 7 -49 -16 -72
-14 -14 -30 -24 -37 -23 -13 3 -6 -35 10 -55 5 -7 7 -13 3 -13 -3 0 -1 -12 4
-26 9 -22 8 -25 -5 -20 -19 7 -19 -7 1 -46 15 -29 15 -32 0 -43 -9 -7 -16 -17
-16 -24 0 -14 -15 -14 -41 -1 -15 8 -19 7 -19 -5 0 -8 -7 -15 -15 -15 -22 0
-29 -44 -11 -77 11 -22 12 -33 4 -41 -8 -8 -5 -9 11 -5 25 6 27 20 6 43 -12
13 -13 23 -4 48 14 41 45 42 85 5 16 -15 31 -27 34 -26 3 1 5 -39 4 -88 -1
-49 3 -89 7 -89 11 0 22 38 14 50 -3 6 4 14 16 18 22 9 35 52 15 52 -6 0 -5 5
2 12 9 9 20 7 47 -7 48 -26 66 -9 29 28 -15 15 -32 27 -37 27 -7 0 -8 3 -1 10
12 12 84 -9 91 -26 6 -16 56 3 72 28 10 16 7 21 -26 35 -21 9 -48 16 -60 15
-12 -1 -25 3 -29 9 -4 6 1 10 12 8 11 -1 30 3 44 8 14 6 42 18 63 26 24 11 37
22 37 35 0 10 9 27 20 37 11 10 20 24 20 31 0 30 86 51 128 31 40 -19 140 -22
161 -3 9 8 27 14 41 14 14 0 39 1 55 2 17 2 46 0 65 -4 26 -4 29 -4 14 3 -26
11 -36 35 -28 66 3 12 1 26 -5 29 -5 4 -8 13 -5 20 3 7 -11 33 -31 56 -30 36
-36 50 -33 78 4 28 0 36 -19 45 -28 13 -30 37 -3 37 10 0 24 9 30 20 7 13 21
20 39 20 16 0 42 6 58 13 27 11 28 13 11 30 -10 9 -18 12 -18 5 0 -6 -7 -4
-18 5 -11 10 -36 17 -60 17 -31 0 -42 4 -42 15 0 8 -7 15 -15 15 -8 0 -22 15
-31 33 -9 17 -24 40 -33 49 -9 9 -22 24 -29 33 -13 15 -15 16 -44 8z"/>
<path d="M8490 8946 c0 -9 -7 -16 -15 -16 -14 0 -14 -4 -1 -35 13 -31 13 -35
-4 -40 -10 -3 -20 -14 -23 -25 -4 -16 1 -19 37 -22 40 -3 41 -4 40 -38 -2 -48
-21 -166 -28 -178 -3 -5 6 -15 19 -22 25 -14 34 -40 14 -40 -7 0 -10 -15 -7
-40 2 -22 0 -40 -5 -40 -5 0 -19 -13 -32 -29 -14 -16 -39 -31 -56 -35 -28 -5
-30 -9 -25 -32 6 -23 4 -26 -13 -21 -32 8 -32 -19 -1 -50 38 -37 54 -78 36
-92 -11 -10 -11 -19 1 -53 8 -22 12 -47 9 -54 -3 -7 4 -16 15 -19 18 -6 20
-12 14 -43 -4 -21 -7 -58 -7 -84 0 -31 -4 -48 -14 -52 -19 -7 -18 -35 1 -42 8
-4 15 -16 15 -28 0 -11 5 -28 10 -36 6 -10 2 -24 -15 -47 -14 -17 -22 -38 -19
-46 3 -10 -2 -18 -14 -21 -19 -7 -32 -40 -24 -64 2 -7 13 -12 25 -12 12 0 32
-3 45 -6 18 -5 20 -9 11 -20 -7 -8 -9 -17 -5 -21 3 -3 6 -1 6 5 0 11 21 9 62
-4 13 -4 18 -12 15 -23 -2 -10 4 -23 15 -30 16 -10 22 -7 43 15 13 14 29 23
34 20 20 -13 123 -8 132 5 5 8 3 17 -4 22 -8 6 -5 7 8 4 15 -3 24 3 32 19 6
13 7 26 2 29 -4 3 -6 12 -3 20 3 7 1 23 -6 34 -8 17 -8 21 4 21 8 0 17 9 21
19 3 11 17 26 30 35 14 9 25 24 25 32 0 9 9 27 20 41 18 23 18 27 4 54 -8 16
-19 27 -23 25 -24 -15 -91 99 -91 156 0 35 20 64 28 40 2 -7 16 -3 38 10 18
11 32 23 29 27 -2 4 15 7 38 7 23 -1 47 2 54 7 14 10 68 -16 76 -38 11 -26 30
-17 23 11 -6 22 -4 25 13 19 16 -5 18 -2 14 14 -3 11 -14 27 -24 37 -14 12
-19 31 -19 66 0 26 4 48 9 48 12 0 41 -28 41 -40 0 -14 49 -21 68 -9 15 10 26
7 60 -16 22 -15 49 -25 59 -23 21 4 30 43 13 63 -8 9 -8 14 0 17 8 2 8 11 2
28 -11 29 -59 40 -68 16 -5 -12 -9 -12 -32 0 -15 8 -32 14 -38 14 -5 0 -20 14
-32 30 -14 18 -32 30 -45 30 -12 0 -33 7 -45 16 -12 8 -25 13 -30 10 -4 -2
-16 3 -27 11 -20 15 -20 15 3 30 25 18 28 41 9 68 -10 12 -16 14 -21 7 -4 -7
-16 -12 -26 -12 -10 0 -27 -11 -37 -23 -10 -13 -28 -29 -41 -36 -15 -8 -22
-21 -22 -40 0 -35 -43 -75 -76 -68 -20 4 -24 -2 -35 -45 -11 -39 -15 -45 -22
-31 -5 10 -19 25 -30 35 -12 9 -22 27 -22 40 -1 13 -5 29 -9 36 -4 7 -3 12 3
12 15 0 44 59 37 76 -3 8 1 14 9 14 8 0 17 11 21 25 4 17 10 23 18 18 7 -5 2
1 -11 12 -28 25 -29 31 -3 38 29 7 25 31 -7 43 -16 6 -35 24 -43 40 -15 30
-55 83 -90 119 -11 11 -21 34 -23 51 -4 34 -97 131 -97 100z m245 -685 c3 -5
1 -12 -5 -16 -5 -3 -10 1 -10 9 0 18 6 21 15 7z"/>
<path d="M8382 8788 c-14 -14 -16 -28 -3 -28 5 0 11 9 14 20 6 23 5 24 -11 8z"/>
<path d="M7440 8736 c0 -2 11 -6 25 -8 13 -3 22 -1 19 3 -5 9 -44 13 -44 5z"/>
<path d="M7506 8722 c-4 -7 -2 -12 4 -12 6 0 8 -10 4 -25 -3 -14 -2 -25 4 -25
16 0 21 38 7 56 -8 12 -14 14 -19 6z"/>
<path d="M9710 8719 c0 -6 5 -19 10 -30 8 -13 7 -19 0 -19 -7 0 -10 -17 -8
-42 3 -39 5 -43 31 -43 26 -1 27 1 21 30 -3 16 -13 40 -21 53 -8 13 -12 30 -9
37 2 7 -2 16 -10 19 -8 3 -14 1 -14 -5z"/>
<path d="M9633 8643 c9 -2 23 -2 30 0 6 3 -1 5 -18 5 -16 0 -22 -2 -12 -5z"/>
<path d="M7400 8410 c0 -18 3 -19 20 -10 11 6 20 15 20 20 0 6 -9 10 -20 10
-13 0 -20 -7 -20 -20z"/>
<path d="M8355 8360 c3 -5 8 -10 11 -10 2 0 4 5 4 10 0 6 -5 10 -11 10 -5 0
-7 -4 -4 -10z"/>
<path d="M7348 8193 c7 -3 16 -2 19 1 4 3 -2 6 -13 5 -11 0 -14 -3 -6 -6z"/>
<path d="M7314 8159 c-3 -6 -1 -16 5 -22 9 -9 14 -8 21 3 5 8 10 18 10 23 0
11 -28 8 -36 -4z"/>
<path d="M7285 8130 c3 -5 8 -10 11 -10 2 0 4 5 4 10 0 6 -5 10 -11 10 -5 0
-7 -4 -4 -10z"/>
<path d="M7481 7908 c-11 -25 -17 -29 -39 -23 -22 5 -24 4 -13 -9 11 -13 11
-22 1 -46 -14 -34 -40 -40 -40 -10 0 14 -7 20 -22 20 -17 0 -19 -3 -10 -12 19
-19 14 -34 -14 -46 l-25 -12 5 45 c3 27 0 47 -6 51 -7 5 -9 2 -6 -8 5 -11 0
-14 -20 -10 -20 4 -24 2 -19 -12 4 -9 1 -16 -4 -16 -7 0 -5 -10 5 -25 12 -19
14 -33 8 -63 -5 -21 -6 -47 -1 -58 7 -20 52 -45 87 -49 30 -3 52 -17 52 -34 1
-14 2 -14 14 2 7 9 18 17 23 17 9 0 27 30 36 60 2 8 -4 32 -15 53 -20 40 -17
57 9 57 10 0 14 6 11 18 -3 11 1 30 8 43 17 31 18 85 1 92 -8 3 -19 -7 -26
-25z"/>
<path d="M8130 7654 c0 -8 7 -17 15 -20 8 -4 15 -10 15 -15 0 -4 -7 -6 -15 -3
-17 7 -21 -11 -5 -21 6 -4 9 -13 8 -20 -4 -18 2 -19 35 -4 17 8 26 18 22 27
-3 7 -5 17 -5 22 0 4 -16 17 -35 29 -29 17 -35 18 -35 5z"/>
<path d="M8280 7620 c0 -5 7 -10 16 -10 8 0 12 5 9 10 -3 6 -10 10 -16 10 -5
0 -9 -4 -9 -10z"/>
<path d="M8248 7603 c7 -3 16 -2 19 1 4 3 -2 6 -13 5 -11 0 -14 -3 -6 -6z"/>
<path d="M7407 7557 c-9 -24 15 -95 35 -100 10 -3 18 -13 18 -22 0 -9 -3 -14
-7 -12 -5 2 -16 -4 -25 -15 -15 -15 -15 -18 -3 -18 8 0 15 5 15 10 0 6 5 10
10 10 6 0 10 -7 10 -15 0 -12 7 -14 28 -9 15 4 28 8 29 9 2 0 -6 18 -17 38
-24 44 -24 47 -5 47 9 0 20 -10 25 -22 5 -14 9 -17 9 -7 1 18 -18 39 -35 39
-7 0 -19 -7 -28 -15 -14 -14 -17 -13 -32 10 -13 21 -14 28 -4 41 11 12 11 18
-2 30 -13 13 -16 13 -21 1z"/>
<path d="M7565 7482 c-6 -16 10 -32 33 -32 6 0 12 -6 12 -14 0 -8 11 -13 28
-14 15 0 49 -6 75 -13 38 -10 50 -10 56 -1 6 9 15 10 40 1 17 -6 35 -9 38 -5
4 3 -1 6 -10 6 -9 0 -25 10 -36 21 -11 12 -26 19 -35 16 -9 -4 -31 0 -49 8
-19 8 -37 12 -40 9 -3 -3 -15 0 -28 6 -45 25 -77 29 -84 12z"/>
<path d="M8510 7425 c-14 -16 -10 -18 14 -9 9 3 16 10 16 15 0 14 -16 11 -30
-6z"/>
<path d="M7940 7401 c0 -6 -8 -8 -17 -5 -15 4 -15 4 -3 -4 30 -19 68 -23 74
-7 3 9 0 15 -8 15 -8 0 -21 3 -30 6 -9 3 -16 1 -16 -5z"/>
<path d="M8457 7339 c4 -12 0 -25 -8 -30 -10 -6 -11 -11 -2 -20 6 -6 15 -9 20
-6 11 7 5 65 -7 72 -5 3 -6 -4 -3 -16z"/>
<path d="M8000 7315 c0 -18 10 -31 38 -49 20 -13 38 -20 40 -15 5 12 -36 67
-59 79 -16 9 -19 7 -19 -15z"/>
<path d="M8400 7270 c0 -11 -9 -28 -19 -37 -11 -9 -17 -23 -13 -31 4 -11 1
-14 -10 -9 -10 3 -19 -1 -22 -10 -5 -12 -1 -14 16 -10 13 4 26 0 33 -9 6 -9
18 -12 27 -9 13 5 16 14 11 38 -3 18 -10 38 -16 45 -8 10 -5 14 11 19 26 6 28
18 6 27 -23 9 -24 8 -24 -14z"/>
<path d="M8147 7194 c5 -13 17 -18 36 -15 4 1 17 -3 27 -9 12 -6 20 -7 20 -1
0 5 -20 16 -44 24 -38 13 -44 13 -39 1z"/>
<path d="M8325 7150 c3 -5 8 -10 11 -10 2 0 4 5 4 10 0 6 -5 10 -11 10 -5 0
-7 -4 -4 -10z"/>
<path d="M8297 7134 c-3 -3 -3 -12 0 -20 3 -8 0 -14 -6 -14 -16 0 -3 -24 22
-39 19 -13 20 -12 10 1 -7 8 -9 19 -4 24 9 10 -12 57 -22 48z"/>
<path d="M8216 7077 c3 -10 9 -15 12 -12 3 3 0 11 -7 18 -10 9 -11 8 -5 -6z"/>
<path d="M8262 7068 c-8 -8 -7 -19 4 -39 8 -16 12 -29 8 -29 -4 0 -1 -7 6 -15
14 -17 20 -18 39 -6 12 7 9 17 -16 55 -22 32 -33 42 -41 34z"/>
<path d="M8215 7040 c-3 -5 -1 -10 4 -10 6 0 11 5 11 10 0 6 -2 10 -4 10 -3 0
-8 -4 -11 -10z"/>
<path d="M8350 7028 c0 -18 2 -19 18 -7 9 7 18 14 20 15 1 1 -6 4 -18 7 -15 4
-20 0 -20 -15z"/>
<path d="M8156 7012 c-2 -4 0 -28 5 -54 8 -35 14 -45 27 -43 9 2 24 4 32 4 9
1 5 6 -10 14 -34 17 -58 66 -39 78 9 6 10 9 2 9 -6 0 -14 -4 -17 -8z"/>
<path d="M8275 6946 c-16 -17 -15 -76 0 -76 20 0 24 11 16 51 -4 26 -9 33 -16
25z"/>
</g>
</svg>
