<svg version="1" xmlns="http://www.w3.org/2000/svg" width="474.237" height="721.8" viewBox="0 0 355.678 541.35"><g fill="#222"><path d="M116.22 1.552c-1.6.8-2.8 1.9-2.8 2.4 0 .6-.9 1-2 1-1.8 0-2 .7-1.9 6.7 0 3.8.5 8.5 1.1 10.5.8 2.7.8 4.1 0 5.1-.8.9-.8 1.7-.1 2.4 1.4 1.4-.9 9.3-2.6 9.3-2.4 0-3.4 2.4-1.9 4.4 1.8 2.6 1.8 5.5-.1 6.2-.8.4-1.5 1.4-1.6 2.3 0 1.2-.3 1-1.1-.7-.6-1.2-1.8-2.3-2.7-2.4-2.4-.2-4.5-.6-5.1-.8-.3-.1-1.6-.3-2.9-.4-1.4-.2-2.7-.8-2.9-1.4-.2-.7-1-1.2-1.8-1.2-2.5 0-1.5 3.3 2 6.5 2.5 2.3 3.3 3.8 3 5.2-.3 1.2.1 4.8 1 8.1.8 3.3 1.8 8.3 2.2 11.1.4 3.4 1.2 5.2 2.3 5.6 1.3.4 1.6 1.4 1.3 4.5-.3 3 0 4.1 1.2 4.6 1.1.4 1.6 1.8 1.6 4.3 0 2.8.7 4.4 3 6.6 1.6 1.5 3.2 4.1 3.5 5.6.4 1.6 1.3 2.9 2 2.9.8 0 1.3 1.2 1.2 3.5-.1 1.9-.4 3.5-.9 3.5-1 0 .2 6.1 1.5 7.8.8 1 .7 1.6-.6 2.3-.9.6-1.7 1.8-1.7 2.9 0 1.1-1 2.2-2.2 2.6-2.9.9-3.8 2.2-3.8 5.9 0 1.9-.9 3.6-2.6 5-2.6 2-2.6 2.1-.8 5.2 1.8 3 1.8 3.2 0 5.2-1.2 1.3-1.4 2.1-.7 2.1s2.3 2.4 3.6 5.4c1.6 3.6 3.1 5.5 4.6 5.9 2.8.7 3.7.1 2.1-1.5-1.7-1.7-1.5-2.8.3-2.2.8.4 1.5 1.4 1.6 2.3 0 1 .2 1.1.6.3.2-.6 1.3-1.2 2.3-1.2.9 0 2.3-.7 3-1.5.7-.8 1.9-1.5 2.6-1.5.8 0 1.4-.7 1.4-1.5 0-1.9 1.4-1.9 2.9-.1 1.9 2.3.9 7-1.6 8.1-1.3.5-2.3 1.3-2.3 1.7 0 .5-.6.8-1.3.8-.8 0-2.1.8-3 1.7-1.4 1.7-1.3 2.1 1.7 5.4 3.9 4.2 9.2 6.7 10.8 5.1 1-1 4.5.8 8.4 4.3 1.4 1.3.6 3.5-1 2.9-1.8-.7-2.9 2.5-1.5 4.3.9 1 .9 1.7.1 2.5-1.4 1.4 1.5 6.7 3.8 7 .8 0 2.1.2 2.7.2.7.1 1.2.5 1 .9-.3 1.2 4.6 3.7 6.3 3.2 1.9-.6 3.4.4 4.9 3.3 1 1.9 1.9 2.3 4.9 2 2.9-.2 3.7-.8 4.2-2.8.4-1.7.8-2.1 1.4-1.2.4.6 1.6 1.2 2.7 1.2 1 0 1.9.4 1.9 1 0 .5.6 1 1.3 1 1.2 0 2.3 1.7 4.9 7.3 1 2.2 1.9 2.8 4.3 2.7 1.6-.1 3.5-.1 4 0 1.3.3 4.2.1 8.2-.6 3-.4 3.2-.7 2.6-3.4-.5-2.9-.5-2.9 4.1-2.8 2.8 0 5.3-.5 6.4-1.5 2.3-2 6.7-3.3 5.7-1.7-.6.9.1 1 2.6.5 1.9-.4 3.7-1.2 4-1.7.4-.6 2.1-.5 4.7.1 3.4 1 4.9.8 9.4-.9l5.3-2 .3-7.1c.1-4 .7-7.8 1.2-8.4.5-.7.7-1.5.3-1.9-.4-.4-.1-1.1.6-1.6 1-.5 1.4-3 1.5-7.6.1-6.1-.1-6.9-1.9-7.2-2.4-.5-5.5-3.1-5.5-4.7 0-.6-1-1.7-2.3-2.2-1.9-.9-2.5-.8-3.3.5-1.5 2.3-4.4.8-4.4-2.4 0-2.3.3-2.6 2.5-2.2 3.2.7 3.2-.2-.2-3.8-2.6-2.8-2.6-2.9-.6-3.2 1.6-.2 2-1 1.8-3-.1-1.5-.4-3.4-.8-4.2-.3-.8-.8-3.3-1.2-5.5-.4-2.2-1.8-5.5-3.1-7.2-2.1-2.7-2.4-4-2-8.3.3-2.8.8-5.5 1.1-6 .6-.9-.9-4.2-3.4-7.3-1.2-1.5-1.2-1.7.2-1.7 3.9 0 5.5-10.3 1.8-11.3-1.2-.3-2.1-1.8-2.5-4.3-.6-3.2-.4-4 1.4-5.4 1.1-.9 1.8-1.8 1.5-2.2-1.1-1.1-5.4 1.7-6.5 4.2-.7 1.4-1.9 3.2-2.8 4.1-1.5 1.4-2 1.4-4.9-.4-1.8-1-3.3-2.3-3.3-2.8 0-.4-.6-.6-1.4-.3-.9.3-1.7-.3-2.1-1.5-.4-1.4-1.5-2.1-3.1-2.1-1.7 0-2.4-.6-2.4-1.8 0-2.7-3.2-5.2-6.4-5.2-2.4 0-3.1-.7-4.9-5-1.1-2.7-2.9-5.2-3.8-5.5-1.9-.6-5.8-5.4-8.3-10.3-1.3-2.6-2-3.1-3.4-2.3-1.2.6-3.5.3-7.2-1-3-1-5.6-1.9-5.7-1.9-.2 0-.3-1.1-.3-2.4 0-2-.4-2.3-2.2-1.8l-2.1.5 2.1-2.1c2.3-2.3 3-4.8 1-3.6-.8.5-.9.2-.5-.9s.1-1.7-.7-1.7c-.8 0-2.9-1.8-4.6-4-1.7-2.2-4.3-4.3-5.6-4.6-2.8-.7-2.9-1-.8-3.1 1.2-1.3 1.3-1.8.3-2.4-1.1-.6-1-1.1.2-2.6 1.8-2.1 2.4-7.9.9-8.8-1.7-1.1 1.8-3.7 4-3 2.6.8 2.5-.8-.2-3.8-4-4.2-11.1-6.9-7.4-2.8 1 1.1 1.5 2.5 1.1 3-.8 1.4-3.5 1.4-3.5.1 0-.6-.8-1-1.7-1-1.3 0-1.4.3-.5 1.2 1.8 1.8 1.4 3.8-.7 3.8-2.3 0-5.2-3.6-4.4-5.6.3-.8 1.1-1.4 1.9-1.4.7 0 1.8-.9 2.4-2 .6-1.1 1.7-2 2.5-2s1.5-.5 1.5-1c0-.6-.4-1-.9-1-.6 0-1.8-1.3-2.7-2.9-1.6-2.7-1.9-2.8-3.1-1.3-1.2 1.6-1.4 1.6-2.4-.1-1.3-2.1-7.3-2.2-11.1-.1zm24.9 17c-.3.3-1.2.4-1.9.1-.8-.3-.5-.6.6-.6 1.1-.1 1.7.2 1.3.5zm85.3 154.9c0 .8 1.2 2.6 2.7 4 1.5 1.4 2.2 2.5 1.5 2.5-1.3 0-7.2-5.8-7.2-7.1 0-.5.7-.9 1.5-.9s1.5.7 1.5 1.5zM197.12 2.552c-2.7 2.5-2.9 2.5-4.7.9-1.7-1.6-2-1.6-2.6-.2-.3.8-1.6 1.8-2.9 2.1-1.6.4-2.6 1.6-3 3.6-.7 3.2-3.8 6-6.7 6-.9 0-2 .4-2.3 1-.3.5 0 .7.8.4.8-.3 1.8-.1 2.2.5.3.6 1.5 1.1 2.7 1.1 1.5 0 1.8-.4 1.4-1.8-.4-1 .4-.6 2 1.1 1.9 2.1 3.2 2.7 5 2.3 1.2-.3 2.6-.1 3 .5.9 1.5 2.4-.9 2.4-3.9 0-1.2.4-2.2 1-2.2 1.7 0 5-3.4 5-5.2 0-1.5.6-1.7 3.8-1.2 2.8.4 4.3.2 5.4-.9 1.2-1.2 1.8-1.3 2.8-.4.9.9 1.1.8.8-.7-.5-2.8-6.6-6-8.4-4.5-1.1.9-1.8.9-2.6.1-1.6-1.6-1.9-1.6-5.1 1.4z"/><path d="M155.12 13.552c-.3.3-.3 1.2 0 2s-.1 1.4-1.1 1.4c-.9 0-1.9.7-2.2 1.5-.4.8-1 1.3-1.4 1-1.6-1-2 1.3-.4 2.6 1.3 1 1.7 1 2.4-.1.9-1.5 3-2 10.3-2.5 6.2-.4 6.9-1.1 1.8-2-2.2-.4-5.1-1.5-6.4-2.6-1.4-1-2.7-1.6-3-1.3zM199.32 24.552c-.7 1.4-1.2 4-1 5.6.2 2.2-.1 2.9-1.1 2.6-.7-.3-1.3-1.6-1.3-2.9 0-1.6-.7-2.5-2-2.7-1.1-.2-2.6-.9-3.2-1.4-2.4-1.9-1.4 1.8 1.2 4.6 2.7 3 3.2 5.2 1.3 5.9-.7.3-.1.6 1.4.6 1.5.1 3-.4 3.3-1 .4-.6 1.3-.8 2-.5.7.2 1.6-.2 1.9-1.1.4-.9 1.4-1.3 2.5-1 2.1.5 3.1-1.6 3.1-6.9 0-2.4-.5-3.3-2.2-3.8-3.7-1-4.4-.7-5.9 2zM215.82 88.052c0 1.3.3 1.5 1.3.7.7-.6 1.3-1.2 1.3-1.3 0-.2-.6-.5-1.3-.8-.7-.3-1.3.3-1.3 1.4zM244.42 160.552c0 1.7-6.3 4.4-10.3 4.4h-3l2.4 3.1c1.3 1.7 3.6 3.8 5.1 4.7 2.7 1.6 2.8 1.6 4.5-.8 1-1.4 1.8-2.9 1.9-3.5 0-.5.2-1.8.2-2.7.1-.9 1.1-2 2.2-2.3 2.8-.9 2.5-3.2-.5-3.7-1.7-.4-2.5-.1-2.5.8zM111.42 172.552c0 .8.5 1.2 1 .9.6-.4.8-1.1.5-1.6-.9-1.4-1.5-1.1-1.5.7zM103.42 175.352c0 2.7 2.8 4 5.8 2.7l2.7-1.3-2.5-1.4c-3.2-1.7-6-1.8-6 0zM242.82 176.952c.3.8.7 2.5 1.1 3.8.4 1.3.2 2.9-.4 3.6-1.2 1.4-.2 2.7 2.9 3.8 1.6.6 4.3-1.6 3.3-2.6-.4-.3 0-.6.7-.6.9 0 .8-.5-.4-1.9-1.6-1.8-1.6-1.9-.1-2.3 1.5-.3 1.4-.6-.5-3-2.3-3.1-7.4-3.7-6.6-.8zM107.22 186.652c.3 1.8-.1 3-1.3 3.9-1 .8-1.4 1.8-.9 2.6.6.9.3.9-1-.1-1.4-1.2-1.9-1.2-2.6-.2-.5.9-1 1-1.4.2-1.4-2.3-3.6-1.1-3.6 1.9 0 1.6.4 3 .9 3 .4 0 2 1.1 3.4 2.4 2.1 1.9 2.5 3.1 2.1 5.3-.8 4.1 1.3 6.2 6.5 6.7 5.2.4 7.1 2.5 6.5 6.9-.3 1.8-.1 3.8.5 4.6 1.4 2.2 3.4.2 2.8-2.9-.6-2.7 2.4-9 4.2-9 .5 0 1.2-1.4 1.6-3 .4-1.7 1.3-3 2-3 1.1 0 .9-.9-.7-3.8-1.2-2-1.5-3.1-.8-2.5 2.4 2.2 5 1.6 5-1.1 0-1.3.7-2.6 1.5-3 2.5-.9 1.7-2.3-2.2-4.1-2.1-.9-5.5-2.8-7.5-4.2-3.5-2.4-7.8-2.5-7.8-.2 0 .5-.8.5-2-.1-6-3-5.7-3-5.2-.3zM250.42 190.652c0 1.3 2.9 3.8 3.5 3.1.3-.3-.4-1.3-1.5-2.3-1.1-1-2-1.3-2-.8zM258.92 200.152c-.4 1.8-.9 5.5-1 8.3-.2 4.2.3 5.6 2.8 8.7 2.2 2.8 3.8 3.8 5.9 3.8 1.5 0 2.8-.5 2.8-1 0-1.5 7.1-.1 9.3 1.8 1.9 1.7 2.2 4.3.6 5.9-.8.8-.5 1.9 1.2 4.2 1.2 1.7 2.6 3.1 3.1 3.1.4 0 1.2.8 1.7 1.9 1.4 2.5-.7 6.9-3.4 7.3-2.4.4-3.1 5.3-.9 6.2.8.3 1.4 0 1.4-.6s.9-.3 1.9.6c2.1 1.9 4.1 1.4 4.1-1 0-.8.9-1.4 2-1.4 1.3 0 2-.7 2-2 0-1.1.5-2 1.1-2 .7 0 .9-1 .5-2.6-.6-2.3-.5-2.4 1.4-1.4 1.7.9 2.4.8 3.3-.4 1.4-1.8 3.7-2 12.5-1 4.5.5 6.2.4 6.2-.5 0-.7.5-.9 1.1-.5 1.3.8 2.9-1.3 2.9-3.9 0-2-2.2-4.7-3.8-4.7-.5 0-1.6-1-2.4-2.1-1-1.6-2-2-3.6-1.5-1.2.4-2.2 1.4-2.2 2.3 0 1.8-3.9 5.2-6.1 5.3-.9 0-2.2-.7-2.9-1.5-.7-.8-1.8-1.5-2.6-1.5-2 0-13.4-11.1-13.4-13.1 0-1.8-1.9-2.9-5.2-2.9-1.2 0-2.2-.8-2.5-2.1-.4-1.4-1.2-1.9-2.4-1.6-1.1.3-1.9.1-1.9-.5 0-1.1-5.4-5.8-8.4-7.3-1.1-.6-2.6-2.1-3.2-3.3-1.1-2.2-1.1-2.2-1.9 1zM324.42 216.952c-2.3.7-2.3.8-.3.9 1.2.1 2.4.7 2.6 1.3.3.7.6.3.6-1 .1-1.2 0-2.2-.1-2.1-.2.1-1.4.5-2.8.9zM344.72 220.452c1 1.1-5.2 3.7-6.6 2.8-.6-.4-.8 0-.4 1.1s.3 1.5-.4 1c-.6-.4-1.5 0-2 .7-.6 1.1-1.5.7-3.8-1.9-1.6-1.7-3.7-3.2-4.6-3.2-2.2 0-3.9 4.8-2.3 6.7.9 1.1.9 1.6 0 2.2-.9.5-.8 1.2.3 2.7.9 1.2 1.4 1.4 1.5.6 0-1 .9-1.2 3.1-.7 2.1.5 3.4.3 3.9-.5.8-1.3 4.7.7 8.3 4.3 1.6 1.6 4.5 1.8 9.4.7.1 0 1.1-1.6 2.3-3.6l2.3-3.6-3.9-4c-2.2-2.2-4.8-4.4-5.9-5-1.1-.6-1.7-.7-1.2-.3zM350.92 222.952c-.3.5.1 1 1 1s1.3-.5 1-1c-.3-.6-.8-1-1-1-.2 0-.7.4-1 1zM114.42 227.452c0 1.4-.7 2.8-1.5 3.1-.8.4-1.5 1.5-1.5 2.6 0 1.3-.6 1.8-2 1.6-1-.2-2.5.6-3.3 1.6-1.4 1.9-1.6 1.9-4 .3-2.5-1.6-2.6-1.6-2.4 1 .2 2.3-.3 2.8-3.7 3.6-2.9.7-4.6.6-7-.5-3.3-1.5-5.5-1-9.3 2.4-2.4 2.1-7.9 3.2-8.8 1.8-.4-.7-1.8-.9-3.3-.5-3 .7-7.4 4-6.5 4.8.3.4-.2 1.8-1.1 3.3-1.2 1.8-2.4 2.4-3.7 2.1-1-.3-3 0-4.3.6-2.3 1.1-2.3 1.1 3 7.4 3 3.5 5.4 7.2 5.4 8.3 0 1.1.7 2 1.5 2 2 0 1.9 2.9 0 3.6-.8.4-2.2.1-3-.6-1.2-1-1.5-.9-1.5.9 0 3.1-2.7 2.6-6.1-1.1l-2.9-3.2v3.1c0 3.3 1.5 5.2 2.3 3.1.3-.7.6-.3.6 1 .1 1.5-.4 2.2-1.1 2-1.8-.6-4.1 2-3.4 3.7.9 2.5 6.2 1.8 8.5-1.1 1.2-1.5 2.1-2.2 2.1-1.7 0 1.3 7.1.9 9.8-.6 1.9-1 2.3-.9 2.8.4.3.8 1 1.2 1.5.9.5-.3.9.4.9 1.6 0 1.2.5 2 1.2 1.8 2.3-.8 1.9-2.7-1.1-4.2-2-1.1-3.3-2.8-4-5.3-.6-2-2.2-4.8-3.6-6.3l-2.6-2.7 3-2.6c1.7-1.4 3.1-3.4 3.1-4.4.1-1.7.1-1.7 1.4-.1 1.6 2.2 3.2 2.3 4 .3.3-.8 1.2-1.5 2.1-1.5 2 0 1.9-.7-.5-3.8-1.6-2-1.8-2.7-.8-3.3 1.5-.8 9.9.5 12.7 2.1 2.9 1.5 4.2 1.2 4-.8-.3-3.6 0-4.3 1.8-3.3 1.3.7 2.1.5 3-.7 1.1-1.6 1.2-1.6 1.3 0 0 2.2 1.6 2.3 2.8.3.6-1.3 1.8-.3 5.5 4.5 3 3.9 5.4 6 6.8 6 1.1 0 1.8-.4 1.5-.9-.3-.5-.1-3.4.6-6.6 1-5.2 1.3-5.6 3.5-5l2.4.6-.7-8.1c-.5-5.6-.3-8.4.5-9.4 1-1.1.7-1.9-1.6-4-3.5-3.3-4.3-3.3-4.3-.1zM327.72 242.152c-.2 1.6.1 1.7 1.3.8 1.7-1.5 1.7-1.7.1-2.3-.8-.3-1.4.3-1.4 1.5zM279.72 253.652c.3 1.2-.1 2.4-.9 2.7-.7.3-1.9 2.4-2.5 4.8-2.1 7-3.8 9.1-7.1 8.4-2.3-.5-3.4 0-5.7 2.6-3.4 3.8-3 5.8 1 5.8 1.7 0 3.2.6 3.6 1.5.5 1.4.8 1.4 2.9 0 3-1.9 4-1.9 2.4 0-.7.8-1 3.1-.8 5 .2 1.9 0 3.5-.4 3.5s-.8 1-.8 2.3c0 3.3 4.1 5.4 7.8 4.1 2.1-.8 3.5-.7 6.5.8 2 1 3.7 1.7 3.8 1.6.7-3 .7-7.4-.1-8.3-.6-.7-.8-2-.4-2.9.4-1.1-.2-1.9-2-2.6-1.6-.6-2.6-1.7-2.6-2.9 0-2.6-3-4.3-5.2-3-2.1 1.1-3.2-.3-2.3-3.1.5-1.5 1.2-1.8 3.6-1.3 1.9.3 2.9.1 2.9-.6s.4-1 .9-.6c.5.3 1.2-.4 1.6-1.4.6-2.1-.6-5.3-3.2-8.3-.8-.9-1.2-2.1-.9-2.6.3-.6-.1-2.5-1-4.3-.8-1.9-1.3-2.4-1.1-1.2zM118.22 264.052c1.3 4.1 1.3 5 .1 6.5-.7.9-1.2 2.9-1.1 4.4.2 1.5-.4 3.2-1.3 4-.8.7-2.2 2.8-3.1 4.6-.9 1.8-4.2 5.8-7.4 8.9-3.7 3.4-5.7 6.1-5.4 7 1 2.4-2.5 11.3-4.7 12-2.1.7-2.5 2-.8 3.1 1.3.8.3 7-1.5 9.9-.7 1.1-2.1 5.7-3.1 10.3-1.3 5.9-2.4 8.7-3.9 9.8-1.1.7-1.5 1.4-.8 1.4 1.4 0 .5 5.2-.9 5.8-.4.2-.4 1.3 0 2.5s.6 2.7.4 3.4c-.2.7 0 2.1.6 3.1.8 1.6.7 2.1-.5 2.6-1.1.4-1.3 1.2-.8 2.8.4 1.3.7 4.4.5 7-.2 4.4 0 4.8 2.1 4.9 1.3 0 1.7.3 1 .6-.9.3-.5 1.2 1.2 2.8 2.3 2.1 2.4 2.7 1.5 5.4-1.2 3.5-2.4 3.8-5.9 1.4-2.2-1.6-2.4-1.6-3.8.5-.8 1.2-2.2 2.2-3.2 2.2-1.3 0-1.7.6-1.3 2 .4 1.3-.1 2.2-1.3 2.6-1.1.4-2.7 1.4-3.6 2.2-1 .8-2.6 1.2-3.8.9-1.4-.3-2 0-2 1 0 1.3-.3 1.3-1.5.3s-1.5-.9-1.5.8c0 1.1-.8 2.2-2 2.5-1.1.3-2 .1-2-.4s-1.1-.9-2.5-.9c-2.5 0-3.3-1.4-1.5-2.5.6-.4.8-1.1.5-1.6-1.1-1.7-2.3-.9-3 2.1-.9 3.9-1.8 4.4-4.5 2-2.7-2.3-7.2-2.8-6.4-.6.3.7-.2 1.6-1.1 2-.9.3-1.3 1.1-.9 1.7.3.6.1 1.5-.7 2-1.1.6-1 1.1.4 2.7 2.1 2.3 2.1 4.1.2 6.6-2 2.6-1.9 3.3.4 4.1 1 .3 2.4 1.9 3.1 3.5 1.2 3 3 4.1 3 1.8 0-1.6 4.8 3.1 5.6 5.4.3 1 1.9 3.3 3.5 5 3.5 3.9 3.6 4.8.5 4.8-2.7 0-4.2 1.5-2.6 2.5 2.3 1.4.7 4.4-5.4 9.9-4.5 4.1-6.2 6.4-5.9 7.7.6 2.1-5.4 10.9-7.4 10.9-.7 0-1.3.4-1.3.9s-.3 1.6-.6 2.5c-1 2.6 2.4 1.9 4.2-.9 1-1.5 2.6-2.5 4-2.5 1.3 0 2.4-.5 2.4-1.1 0-.6 2.3-3.3 5.1-6 4.8-4.6 9.2-6.9 10.6-5.6.3.4 2.1-1.3 3.9-3.7 2.2-2.9 3.1-5 2.7-6.4-.5-1.9-.1-2.1 3.1-2 2 .1 3.2.4 2.7.7-1.4.9-.2 5.1 1.5 5.1.7 0 1.8.9 2.4 2 1.4 2.5 3 2.6 3.7 0 .3-1 1.4-2.2 2.4-2.5 1-.4 1.9-1.2 1.9-1.8 0-1.9 3.8-4.7 5.5-4.1.8.4 1.5 1 1.5 1.5 0 1.9 3.1 2.1 4.4.4 1-1.4 1.7-1.6 3.2-.7 1.1.7 1.4 1.2.6 1.2-.9 0 0 1.9 2.2 5 2 2.8 3.6 5.8 3.6 6.8 0 2.9 1.2 6.2 2 5.7.4-.3 2.2.3 4 1.1 2.4 1.2 3.4 1.4 3.9.5.4-.6 1.4-.9 2.2-.6 1 .3 2.2-1.6 4.2-7 1.6-4.1 2.5-8 2.2-8.5-.3-.6.1-1 .9-1 .9 0 1.6-.7 1.6-1.5s.8-1.5 1.8-1.5c1.1 0 2.7-.9 3.7-2 1.1-1.3 2.5-1.8 3.7-1.4 1.1.3 1.8 0 1.8-.8s1.4-3.5 3-6.2c2.2-3.4 2.8-5.2 2.1-6.3-.6-1.1-.4-2.1.5-3.1.8-.7 1.4-2.3 1.4-3.5 0-2.9-3.5-8.3-4.5-6.8-1 1.7-4.8-3.6-4.2-5.9.5-2-2.9-5-5.8-5-1.6 0-5.2-5-6.1-8.8-.8-3 1.4-7.2 3.8-7.2 2.2 0 2.4-2.3.3-4-1.1-.9-2-.8-4.5 1-2.9 2.1-7.8 2-6.5-.1.4-.5-.1-.9-.9-.9-.9 0-1.6.6-1.6 1.3 0 .8-.9 2.2-1.9 3.1-1.9 1.7-2 1.7-3.1-.4-.7-1.2-.9-3.2-.6-4.3.3-1.2-.1-2.8-.8-3.7-.7-.8-1.6-2.6-1.9-3.8-.6-2.3-.5-2.4 1.5-.5 2.1 1.8 2.1 1.8 1.4-.2-.5-1.1-1.1-2.8-1.3-3.8-.3-.9-1.2-1.7-1.9-1.7-2 0-1.7-2.7.4-3.9 1.6-.9 1.6-1.1 0-3.9-1.9-3.2-2.4-7.2-.9-7.2.5 0-.2-2.1-1.5-4.7-2-3.6-2.2-4.8-1.2-5.4 3-2 7.8 0 7.8 3.2 0 1.2.5 1.9 1.2 1.7 2-.7 2-2.5 0-4.5-3.2-3.1-4-5.4-3.1-8.7.5-1.7.9-4.6.9-6.5 0-2.5.3-3.2 1.5-2.7.8.3 2.2.9 3 1.2 1 .4 1.8-.3 2.5-2.1.5-1.4 1.4-2.3 2-2 .6.4.7-.2.2-1.7-1.1-3-.4-5.8 1.4-5.8.8 0 1.4-1 1.4-2.4 0-2.9 2.2-3.9 7.4-3.6 3.7.2 3.8.1 3.2-2.4-.6-2.4-.4-2.6 2.9-2.6 3.7 0 4.1-.5 2.5-3-.6-.9-1-1.1-1-.3s-.7 1-1.7.6c-3.4-1.2-4.2-4.2-2-6.5.8-.7 1.7-3.1 2.1-5.2.4-2.1 1.4-5.3 2.3-7.2 1.3-2.7 1.4-3.6.3-4.9-.9-1.1-1.6-1.2-2.5-.5-1.7 1.4-3.1-.6-1.6-2.4.8-.9.3-2.1-1.8-4.4-1.6-1.7-2.6-3.3-2.3-3.6.3-.3 0-.6-.7-.6-.8 0-1.1-.7-.7-1.5.3-.8.1-1.5-.5-1.5s-.9-.6-.6-1.3c.8-2.2-2.5-6.5-5.3-6.9l-2.7-.4 1.5 4.7zm11.2 41.5c0 .8-.4 1.2-1 .9-.5-.3-1-1-1-1.6 0-.5.5-.9 1-.9.6 0 1 .7 1 1.6zm-59 130c0 .8-.4 1.2-1 .9-.5-.3-1-1.3-1-2.1s.5-1.2 1-.9c.6.3 1 1.3 1 2.1zm4.7 2c-.3.3-1.2.4-1.9.1-.8-.3-.5-.6.6-.6 1.1-.1 1.7.2 1.3.5zm31.3 3c0 .8-.4 1.2-1 .9-.5-.3-1-1-1-1.6 0-.5.5-.9 1-.9.6 0 1 .7 1 1.6zm-37 4c0 .8-.4 1.2-1 .9-.5-.3-1-1-1-1.6 0-.5.5-.9 1-.9.6 0 1 .7 1 1.6zm5-1.2c0 .2-.7.6-1.5 1-.8.3-1.5.1-1.5-.4 0-.6.7-1 1.5-1s1.5.2 1.5.4z"/><path d="M45.42 270.352c0 .2.7.7 1.6 1 .8.3 1.2.2.9-.4-.6-1-2.5-1.4-2.5-.6zM63.22 336.352c-3.3 1.2-3.6 3.6-.8 5.4 1.2.7 1.8 1.7 1.5 2.1-.3.5.3.7 1.4.4 1-.3 2.2 0 2.5.6 1.3 2 3.1 1.1 3.1-1.4 0-2.1-.5-2.5-2.7-2.5s-2.8-.5-2.8-2.1c0-1.1.4-1.8.9-1.4.5.3 1.2.1 1.5-.4.9-1.4-1.6-1.8-4.6-.7zM64.42 349.252c0 .9-.9 2.1-2 2.7-1.1.6-2 1.8-2 2.8 0 1.1.3 1.3.8.5.4-.6 2.3-1.5 4.2-2 2.1-.6 3.6-1.6 3.8-2.7.3-1.2 0-1.6-.7-1.1-.7.4-1.8.1-2.6-.5-1.2-1-1.5-.9-1.5.3zM114.42 351.152c0 .8.7 1.5 1.5 1.5 1.8 0 1.5-1.9-.3-2.5-.7-.2-1.2.3-1.2 1zM59.62 358.852c-.8.5-1.2 1.7-1 2.7.2 1.5.5 1.3 1.5-.9 1.4-3 1.4-3-.5-1.8zM43.92 365.952c-.4.6-.2 1.7.4 2.3 1.5 1.5 2.5.2 1.3-1.9-.7-1.2-1.1-1.3-1.7-.4zM55.42 365.852c0 .5.7 1.1 1.5 1.5.8.3 1.5.1 1.5-.3 0-.5-.7-1.1-1.5-1.5-.8-.3-1.5-.1-1.5.3zM33.42 367.852c1.2 2.2 1.1 2.3-1.3 1.7-1.4-.3-2.9-.2-3.2.4-.8 1.3-6.1 1.3-8.6 0-1.6-.9-1.9-.7-1.9 1.5 0 1.4-.4 2.5-1 2.5-.5 0-1 .6-1 1.3 0 .9-.9 1.2-3 .9-1.8-.2-3.5.2-4.4 1.1-1.9 1.9-1 2.8 2.2 2 1.5-.3 2.3-.2 1.9.4-.3.5.7 2 2.3 3.2 1.7 1.2 3 3 3 4s1.8 3.4 4 5.5c2.2 2 4 4.5 4 5.6 0 1 .8 2.1 1.8 2.3 1.2.3 1.3.5.2.6-.8 0-2.1 1-2.7 2.1-1.1 1.6-1 2.1.5 2.9 4.8 2.5 10.7.7 11.5-3.6.3-1.5.2-3.3-.2-3.8-1.5-1.9-2-5.6-.8-5.2 1.7.5 4.1-9.2 2.6-10.9-.6-.7-.8-1.8-.4-2.5.4-.6.1-2.2-.6-3.6-1.2-2.2-1.1-2.7.6-3.9 1-.8 1.5-1.4.9-1.4-.5 0-.2-.5.6-1 1.2-.7.8-1-1.4-1-1.6 0-3.8-.8-4.9-1.8-1.9-1.7-2-1.6-.7.7zm1 36.6c0 1.1-3.1 1.1-3.9.1-.9-1-.6-1.2 1.4-.8 1.4.2 2.5.6 2.5.7zM48.82 368.852c1 1.5 4.1 1.8 5.3.6.8-.9.3-1.2-2.3-1.3-1.9-.1-3.2.2-3 .7zM5.92 374.952c.3.5.8 1 1.1 1 .2 0 .4-.5.4-1 0-.6-.5-1-1.1-1-.5 0-.7.4-.4 1zM29.52 469.252c-.6.8-.8 1.7-.4 2 .7.8 3.3-1.1 3.3-2.4 0-1.3-1.6-1.1-2.9.4zM117.22 472.052c-1.6 2.6-1.5 2.7 1.3 3.3 1.6.3 4.1 1.8 5.5 3.3 1.4 1.6 3.3 3.6 4.2 4.7.9 1 2.8 2.5 4.1 3.4 2.2 1.5 2.4 1.5 3.7-.2 1.8-2.6 6.8-.9 7.2 2.5.2 1.3.7 2.8 1.1 3.2 1.3 1.3 8.1-2.5 8.1-4.5 0-2.1 1.2-2.2 6.5-.3 5.4 2 5.5 1.9 5.5-1.5 0-3.2.9-3.6 4.1-1.9 1.5.8 2.4.7 3.6-.3 1.3-1 1.7-1 2-.1.3.7 1.2 1.3 2 1.3.9 0 1.3.6.9 1.5-.8 2.2 2.4 5.7 4.1 4.4.9-.8 2.1-.5 4.5 1.2l3.3 2.4-2.9-3.8c-1.6-2-3.2-3.7-3.7-3.7s-.9-.9-.9-2c0-3.1-2.8-6.9-4.8-6.3-.9.2-2.7-.5-3.9-1.6-1.2-1.2-2.9-2.1-3.8-2.1-.9 0-1.4-.4-1.1-.8.3-.5-1.8-1.8-4.7-3-5.4-2.3-13.7-3-13.7-1.2 0 .5-.7 1-1.5 1s-3.7 1.5-6.3 3.4c-5.6 3.9-12.7 4.6-13.8 1.4-.3-1-1.4-1.8-2.5-1.8-1.2 0-1.9-.7-1.9-1.9s-.9-2-2.3-2.3c-1.8-.3-2.8.2-3.9 2.3zM23.92 473.152c-1.2 1.2-2.8 1.7-4.1 1.4-1.6-.4-2.6.1-3.8 1.9-.9 1.4-2.6 2.5-3.8 2.5h-2.1l2.3-2.5c2.5-2.6 2.4-2.7-3.2-3.9-2.6-.6-2.7-.5-2.1 2.6.5 2.8.4 3.1-1.2 2.4-1.8-.6-1.8-.6-.2 1.2 2.1 2.3 2.1 4.1.2 11.1-1 3.8-1.1 5.9-.4 6.7.6.8.6 1.4 0 1.8-.5.3-1.2 2.4-1.6 4.5-.5 3.1-1 3.8-2.2 3.4-1.1-.4-1.4-.2-.9.5.4.6.2 2-.3 3.1-.8 1.4-.7 2.2.5 3.2.8.7 1.3 1.8 1 2.4-.6 1.6 2.2 5.7 3.4 5 .5-.3 1.1.8 1.5 2.5.6 2.9 3.6 5.6 4.8 4.3.4-.3 2.7 0 5.2.6 3.7.9 5.2.9 8.1-.4 2-.8 4-1.3 4.4-1 .4.3 1.1-.2 1.4-1.1.3-.8 1.4-1.4 2.4-1.2 1.1.2 2.6-.3 3.5-1 2.2-1.9 7.2.8 8.1 4.3.4 1.4 1.1 2.3 1.6 2 1-.6 4.2 4.8 3.8 6.4-.2.5 1.4 2.1 3.5 3.5 3.5 2.4 3.9 2.5 5.4 1 1-.9 1.7-3.3 1.7-5.5 0-2.7.4-3.9 1.4-3.9 1.1 0 1.3-.8.7-3.6-.5-2.8-.3-3.4.7-2.8.7.4.4-.2-.6-1.5-1.4-1.6-2.2-1.8-2.7-.9-.6.9-1.2.8-2.7-.5-1-.9-3.1-1.7-4.7-1.7-2.1 0-2.5-.3-1.7-1.3.7-.8.5-2.2-.8-4.7-1.1-1.9-1.9-3.1-2-2.5 0 .5-1.2-1.5-2.6-4.5-2.8-6-8.3-11-12.1-11-1.5 0-2.2.4-1.7 1.1 1.1 1.9-3.9-.1-6.3-2.5l-2.2-2.1 2.1-5c2.7-6.3 2.5-6.1 4.8-4.7 1.9 1.2 2.8.3 1.3-1.2-.4-.4-.8-1.3-.8-1.9-.2-2.9-1.8-6.4-3.3-7.3-1.3-.8-2.2-.6-3.7.8zM190.42 495.052c0 .5.5.7 1 .4.6-.3 1-.8 1-1.1 0-.2-.4-.4-1-.4-.5 0-1 .5-1 1.1zM68.42 525.252c0 .9.7 1.7 1.5 1.7 1.9 0 1.9 1.1 0 3.6-2.4 3.2-1.7 3.9 1.1.9l2.6-2.8-2.6-2.6c-2.1-2.1-2.6-2.2-2.6-.8z"/></g></svg>