<?xml version="1.0" standalone="no"?>
<!DOCTYPE svg PUBLIC "-//W3C//DTD SVG 20010904//EN"
 "http://www.w3.org/TR/2001/REC-SVG-20010904/DTD/svg10.dtd">
<svg version="1.0" xmlns="http://www.w3.org/2000/svg"
 width="721.403616pt" height="829.331620pt" viewBox="0 0 721.403616 829.331620"
 preserveAspectRatio="xMidYMid meet">
<metadata>
Created by potrace 1.15, written by Peter Selinger 2001-2017
</metadata>
<g transform="translate(-630.144372,1394.746615) scale(0.100000,-0.100000)"
fill="#222222" stroke="none">
<path d="M9871 13933 c0 -12 -5 -24 -10 -27 -5 -3 -11 -21 -13 -40 -3 -27 0
-36 14 -39 10 -3 21 0 25 5 3 6 1 8 -5 4 -6 -3 -13 -2 -16 3 -3 5 1 12 10 15
15 6 15 8 0 25 -12 13 -13 20 -6 23 7 2 10 15 7 28 -4 23 -4 23 -6 3z"/>
<path d="M9873 13803 c-10 -3 -10 -9 0 -24 9 -15 9 -23 -1 -37 -7 -9 -15 -25
-18 -34 -5 -13 -17 -18 -45 -18 -38 0 -54 -20 -28 -35 13 -8 6 -30 -9 -31 -7
-1 -19 -2 -27 -3 -8 0 -15 -10 -15 -20 0 -11 -9 -22 -19 -26 -17 -5 -18 -11
-10 -38 7 -25 6 -33 -7 -40 -11 -7 -12 -12 -4 -22 9 -11 9 -28 0 -70 -11 -55
-11 -55 18 -80 16 -13 32 -39 36 -57 3 -17 12 -39 20 -47 7 -9 16 -27 19 -41
3 -14 12 -50 21 -80 11 -39 14 -74 10 -120 -7 -68 -15 -92 -44 -125 -26 -30
-32 -68 -14 -93 8 -12 12 -22 7 -22 -4 0 0 -5 9 -11 19 -11 16 -28 -14 -71
-24 -34 -23 -65 2 -80 11 -7 20 -18 20 -24 0 -7 11 -15 25 -18 14 -4 23 -11
20 -16 -4 -6 -11 -7 -17 -4 -7 4 -8 2 -4 -4 4 -6 -6 -18 -24 -27 -28 -15 -30
-19 -24 -52 4 -22 3 -34 -3 -30 -5 3 -16 -9 -23 -28 -8 -19 -20 -35 -28 -35
-20 0 -5 -40 29 -74 16 -15 29 -32 29 -37 0 -5 16 -23 35 -40 19 -18 35 -40
35 -49 0 -9 19 -25 45 -38 32 -15 45 -28 45 -43 0 -11 5 -30 11 -41 6 -11 12
-32 14 -46 1 -14 12 -34 24 -43 11 -9 21 -24 21 -32 0 -17 62 -67 83 -67 20 0
64 -50 51 -58 -6 -4 -14 -25 -17 -47 -5 -32 -2 -44 15 -62 12 -13 16 -23 10
-23 -17 0 -15 -42 3 -66 8 -10 15 -23 15 -27 0 -13 -43 3 -67 25 -18 17 -29
19 -78 13 -53 -7 -58 -6 -86 21 -26 25 -29 26 -29 8 0 -29 -48 -29 -52 0 -2
13 -11 22 -25 24 -27 4 -27 2 -11 -33 10 -22 9 -28 -3 -36 -12 -7 -11 -9 2 -9
9 0 19 -7 22 -14 4 -10 1 -13 -9 -9 -8 3 -14 -1 -14 -8 0 -11 -3 -11 -10 1 -7
11 -10 7 -10 -17 0 -35 -14 -49 -47 -45 -11 2 -24 -2 -28 -7 -3 -6 -21 -11
-38 -11 -32 0 -32 0 -34 -56 -2 -31 -7 -62 -12 -68 -5 -6 -11 -22 -13 -36 -2
-21 -8 -25 -33 -23 -27 3 -92 -22 -105 -39 -3 -3 -18 4 -33 16 -21 17 -26 27
-20 42 6 17 8 17 15 -6 7 -23 7 -22 4 5 -2 17 -6 37 -10 46 -5 10 1 20 19 29
17 9 24 19 20 29 -5 13 -4 14 6 4 18 -18 40 -16 33 2 -4 8 -11 12 -18 8 -6 -3
0 6 14 20 58 61 60 65 50 92 -14 37 -13 45 9 45 15 0 22 12 32 50 7 28 16 50
19 50 4 0 5 14 2 30 -3 23 -8 29 -22 25 -9 -3 -24 3 -34 14 -16 18 -16 20 -1
28 14 8 14 12 -5 36 -15 19 -23 47 -27 92 -6 84 -8 93 -16 101 -4 4 -7 17 -7
29 0 29 -26 51 -56 47 -15 -2 -28 5 -39 22 -9 13 -30 28 -46 31 -21 5 -29 11
-25 21 3 8 1 14 -5 14 -5 0 -12 -7 -16 -16 -3 -8 -12 -13 -19 -10 -7 3 -16 1
-20 -5 -3 -6 -12 -8 -20 -5 -16 6 -17 1 -5 -23 12 -21 -3 -51 -18 -36 -15 17
-1 75 19 75 24 0 33 28 16 46 -20 20 -28 18 -21 -5 11 -35 -16 -34 -90 4 -76
38 -155 57 -155 36 0 -15 -65 -14 -90 2 -17 10 -22 9 -30 -2 -13 -22 -43 -22
-67 1 -12 11 -26 17 -32 13 -6 -3 -11 -1 -11 4 0 6 -11 11 -25 11 -14 0 -29 8
-35 19 -5 11 -24 22 -42 26 -18 4 -40 13 -48 20 -8 7 -35 15 -60 18 -64 7
-119 29 -126 50 -4 11 -12 16 -21 13 -8 -3 -23 -1 -33 4 -13 7 -21 7 -25 -1
-4 -6 -13 -8 -21 -5 -7 3 -16 1 -19 -4 -9 -15 -27 -12 -19 3 4 6 -9 -5 -29
-25 -21 -20 -37 -43 -37 -51 0 -18 -23 -67 -32 -67 -5 0 -8 -11 -8 -25 0 -15
-8 -29 -22 -36 -13 -7 -27 -18 -31 -26 -5 -9 -16 -11 -29 -7 -30 9 -96 -24
-100 -50 -2 -15 -11 -22 -30 -24 -16 -2 -28 -8 -28 -13 0 -6 -4 -7 -10 -4 -5
3 -10 1 -10 -4 0 -6 8 -11 18 -11 9 0 23 -12 30 -27 16 -35 15 -43 -4 -43 -8
0 -12 -5 -9 -10 9 -15 -4 -50 -19 -50 -8 0 -19 -7 -26 -15 -7 -8 -16 -13 -20
-10 -5 3 -10 1 -12 -5 -2 -6 -16 -6 -41 1 -22 6 -45 8 -53 5 -8 -3 -14 1 -14
10 0 23 -42 55 -57 42 -8 -6 -18 -6 -30 0 -13 7 -24 6 -38 -4 -10 -8 -27 -12
-37 -8 -12 3 -18 0 -18 -9 0 -8 -7 -20 -15 -27 -8 -7 -15 -21 -15 -31 0 -12
-7 -19 -20 -19 -13 0 -20 -7 -20 -20 0 -20 -14 -27 -24 -11 -6 9 -64 25 -83
22 -7 -1 -30 7 -52 19 -52 26 -56 26 -90 -12 l-29 -33 -35 17 c-35 17 -36 16
-42 -2 -8 -24 -17 -25 -55 -5 l-30 16 0 -31 c0 -16 -5 -30 -11 -30 -5 0 -7 -5
-4 -11 4 -6 -2 -13 -13 -16 -11 -3 -23 -15 -26 -27 -3 -14 -21 -30 -46 -41
-43 -19 -46 -27 -26 -64 7 -13 11 -32 8 -43 -5 -19 -37 -25 -47 -8 -13 22 -61
10 -83 -20 -15 -19 -31 -30 -47 -30 -14 0 -25 -4 -25 -9 0 -4 -12 -9 -27 -10
-78 -4 -100 -8 -124 -24 -14 -10 -33 -15 -42 -12 -10 5 -15 1 -14 -12 2 -13
-6 -19 -25 -21 -20 -2 -30 -10 -34 -28 -4 -17 -13 -24 -30 -24 -19 0 -24 -6
-26 -27 0 -16 0 -35 1 -43 12 -86 12 -92 -5 -105 -10 -7 -24 -11 -30 -8 -7 2
-15 -4 -18 -14 -3 -10 -17 -30 -31 -45 -23 -25 -23 -29 -10 -54 8 -15 12 -31
9 -36 -3 -4 2 -11 10 -14 18 -7 21 -31 6 -36 -6 -2 -13 -35 -17 -75 -5 -62 -9
-72 -29 -82 -32 -14 -44 -79 -19 -97 11 -8 15 -19 11 -31 -4 -9 -4 -14 0 -11
12 13 64 -22 70 -46 3 -13 16 -34 30 -47 13 -12 21 -25 19 -30 -3 -4 8 -10 23
-14 19 -4 37 -19 53 -45 13 -22 31 -42 39 -45 21 -7 51 -60 45 -77 -7 -17 26
-98 46 -115 8 -6 39 -19 69 -29 30 -10 78 -33 106 -51 28 -18 56 -33 63 -33 7
0 19 -16 27 -35 11 -28 20 -35 42 -35 15 0 33 -5 40 -12 9 -9 16 -8 30 5 26
24 40 21 68 -12 19 -23 36 -31 77 -36 32 -5 60 -16 73 -29 40 -39 79 -70 87
-68 14 4 67 -92 67 -123 0 -17 7 -40 15 -52 9 -14 13 -32 9 -46 -5 -21 9 -40
97 -128 89 -90 103 -109 105 -140 1 -20 9 -52 18 -71 19 -40 196 -218 217
-218 29 0 72 -36 83 -70 11 -35 47 -61 93 -66 28 -3 93 -42 93 -56 0 -6 6 -8
14 -5 8 3 24 -5 36 -18 21 -22 21 -25 6 -40 -28 -29 -15 -76 37 -127 15 -16
21 -31 18 -50 -1 -8 100 -108 109 -108 4 0 12 -11 20 -24 15 -28 46 -40 54
-20 16 41 98 -20 116 -86 7 -24 22 -48 40 -61 15 -12 26 -27 24 -34 -6 -14 22
-28 37 -20 11 7 69 -22 69 -35 0 -14 53 -36 84 -35 27 2 66 -24 66 -43 0 -12
68 -34 81 -26 8 4 9 3 5 -5 -4 -6 2 -23 13 -37 25 -32 26 -44 5 -44 -12 0 -14
-3 -6 -12 5 -7 12 -30 15 -51 3 -20 10 -44 16 -51 19 -22 -8 -94 -44 -119 -51
-35 -75 -68 -76 -106 -3 -61 -4 -65 -18 -90 -28 -50 -11 -134 30 -144 18 -5
28 -28 12 -26 -25 4 -33 -2 -25 -18 6 -10 6 -27 0 -44 -6 -18 -6 -44 0 -72 l9
-44 -28 3 c-23 3 -27 0 -22 -14 3 -9 11 -23 16 -30 6 -7 12 -40 14 -73 4 -47
1 -60 -11 -65 -21 -8 -22 -87 -1 -104 8 -7 15 -10 15 -6 0 3 12 1 26 -4 23 -9
25 -8 19 12 -6 18 -5 20 5 11 15 -14 15 -117 0 -154 -6 -14 -22 -31 -36 -37
-13 -7 -24 -17 -24 -23 0 -7 -9 -9 -22 -6 -13 4 -32 -2 -49 -14 -15 -10 -32
-19 -37 -19 -5 0 -12 -6 -15 -13 -4 -10 2 -13 20 -9 17 3 24 1 20 -6 -8 -12
65 -43 76 -32 8 7 34 1 93 -21 16 -5 30 0 57 22 35 29 37 29 66 15 16 -9 33
-20 36 -26 3 -5 20 -10 37 -10 16 0 41 -9 56 -20 16 -13 29 -17 35 -11 22 22
91 -30 92 -69 0 -16 17 -17 48 -5 12 5 17 2 17 -9 0 -13 6 -15 28 -9 29 8 41
8 118 1 49 -5 94 -22 94 -36 0 -4 4 -13 9 -21 10 -15 40 -3 77 31 19 17 22 17
34 3 15 -18 48 -20 47 -2 -1 6 5 40 13 75 12 55 17 62 38 62 18 0 23 5 20 22
-2 15 4 26 19 33 13 7 31 19 41 28 10 10 23 17 29 17 6 0 14 7 17 16 5 12 14
14 38 9 18 -4 35 -11 38 -16 3 -4 17 -2 30 6 14 8 35 20 48 26 19 10 21 18 16
46 -5 26 -3 33 10 33 9 0 16 5 16 11 0 6 9 9 20 6 11 -3 23 -1 26 4 3 6 14 7
24 4 12 -4 27 2 39 14 24 24 25 23 42 -53 8 -32 20 -61 27 -63 6 -3 12 -15 12
-27 0 -13 14 -35 30 -49 17 -15 30 -34 30 -41 0 -27 18 -26 55 4 21 17 48 30
61 30 12 0 24 5 26 11 3 8 14 7 35 -5 21 -10 34 -12 38 -5 4 5 12 8 18 6 5 -1
28 14 50 36 34 34 43 38 63 29 19 -9 25 -7 38 14 10 15 14 33 10 49 -7 27 7
33 25 11 16 -19 55 -9 89 25 19 19 33 26 37 19 5 -8 11 -7 22 1 8 7 32 12 53
11 24 -2 55 5 80 18 22 11 40 18 40 15 0 -3 9 -1 20 5 11 6 20 17 20 25 0 9 6
12 15 9 10 -4 15 0 16 12 1 37 34 78 67 85 18 4 38 12 46 18 15 13 49 4 40
-11 -3 -5 3 -12 15 -15 32 -8 25 -37 -14 -56 -19 -9 -35 -20 -35 -25 0 -15 42
-97 53 -104 6 -4 17 -2 25 4 10 8 20 4 42 -17 17 -16 33 -25 37 -22 3 4 17 -3
30 -15 27 -26 54 -33 46 -12 -3 8 1 14 10 14 9 0 22 8 29 18 7 10 21 21 31 25
9 3 17 13 17 22 0 8 4 15 10 15 5 0 7 7 3 15 -3 9 -2 15 3 13 5 -1 20 2 33 6
19 7 22 13 17 38 -3 16 -15 41 -26 55 -11 14 -20 31 -20 38 0 17 -23 25 -40
15 -25 -16 -150 82 -150 118 0 10 -5 23 -11 29 -29 29 -45 178 -22 204 17 20
8 68 -14 76 -11 4 -13 16 -8 47 9 52 12 56 31 49 11 -4 15 -15 12 -34 -3 -18
0 -29 7 -29 7 0 20 -9 30 -20 10 -11 13 -20 7 -20 -7 0 -12 -9 -12 -20 0 -11
4 -20 10 -20 5 0 6 8 3 17 -5 12 -2 15 10 10 14 -5 16 -2 11 17 -5 21 -3 22
25 18 21 -3 33 0 37 11 4 10 15 14 36 10 19 -3 36 1 47 11 17 16 177 39 194
29 5 -3 12 -1 16 6 5 7 19 5 46 -9 47 -24 45 -24 45 -6 0 12 5 12 30 3 17 -6
30 -15 30 -19 0 -4 5 -8 11 -8 7 0 9 12 7 31 -3 20 0 33 9 36 7 3 13 14 13 24
0 38 35 59 101 59 51 0 64 4 80 23 10 12 18 27 19 34 0 21 20 25 27 6 3 -10
23 -39 45 -65 21 -26 41 -60 44 -76 5 -26 12 -31 48 -37 22 -3 51 -11 63 -18
32 -18 103 -117 103 -144 0 -27 9 -40 65 -94 40 -39 40 -39 24 -68 -12 -21
-14 -32 -6 -40 7 -7 13 -6 21 4 11 15 50 19 96 11 14 -2 31 -5 38 -5 10 -1 12
-12 7 -45 -6 -38 -4 -44 14 -49 12 -3 24 -1 27 4 3 5 14 9 25 9 27 0 81 -29
74 -40 -11 -17 6 -38 27 -32 13 3 26 -1 34 -12 10 -14 20 -16 46 -10 18 4 39
7 46 5 20 -3 42 18 35 35 -3 8 3 17 13 21 28 10 64 56 63 78 -2 37 1 50 20 74
l19 24 26 -28 c14 -15 26 -34 26 -42 0 -8 6 -21 14 -28 11 -12 15 -7 26 28 7
23 21 49 31 58 22 20 25 46 11 82 -10 23 -16 26 -37 21 -22 -5 -25 -3 -23 17
1 13 -10 47 -23 74 -28 55 -43 115 -30 115 5 0 11 9 14 19 5 20 -24 56 -36 45
-3 -4 -9 7 -13 22 -4 16 -15 34 -24 41 -11 8 -15 21 -13 40 3 16 -5 57 -16 91
-12 34 -21 72 -21 86 0 14 -4 28 -10 31 -5 3 -10 23 -10 44 0 20 -5 42 -11 48
-7 7 -8 17 -3 25 8 12 12 40 14 92 1 11 -8 32 -20 48 -11 15 -16 28 -10 28 16
0 12 33 -10 84 -12 26 -28 46 -37 46 -9 0 -13 6 -10 14 3 8 -1 17 -9 20 -18 7
-18 40 0 58 9 10 11 20 5 30 -12 22 -1 48 17 41 10 -4 12 0 8 11 -4 11 0 16
12 16 33 1 59 32 58 68 -1 17 -2 33 -4 35 -1 1 -3 9 -5 17 -2 8 -7 25 -11 38
-5 16 -2 22 10 22 18 0 21 16 5 26 -8 5 -6 10 5 16 9 5 16 16 16 25 0 9 6 13
15 10 8 -4 17 -2 21 4 3 6 13 8 21 5 10 -4 13 -2 10 6 -3 7 -8 21 -12 30 -4
11 1 20 17 29 32 17 47 40 48 72 0 24 4 27 35 27 33 0 75 27 75 49 0 4 -11 24
-25 44 -16 25 -24 50 -24 79 0 88 -6 110 -32 131 -38 31 -53 65 -39 82 12 15
-6 58 -42 100 -10 12 -21 35 -24 53 -6 27 -4 32 13 32 25 0 37 57 22 98 -7 18
-7 28 0 30 16 5 13 32 -3 32 -8 0 -18 10 -21 23 -4 12 -14 37 -23 55 -11 26
-12 36 -3 41 6 4 9 15 5 25 -5 13 -9 15 -15 5 -5 -9 -10 -5 -14 14 -4 14 -16
29 -26 32 -10 4 -19 11 -19 16 0 5 -6 9 -13 9 -7 0 -18 9 -25 21 -11 17 -10
22 10 38 18 15 20 22 11 33 -7 8 -15 32 -19 54 -4 30 -20 55 -59 98 -36 38
-51 63 -48 75 3 11 -3 30 -12 44 -9 14 -12 27 -7 29 19 7 -8 47 -43 64 -20 9
-39 23 -42 31 -3 7 -16 13 -30 13 -20 0 -23 4 -18 19 4 14 0 23 -14 30 -27 15
-37 14 -55 -5 -14 -14 -18 -13 -43 12 -16 16 -23 29 -16 31 12 4 -60 83 -75
83 -5 0 -17 9 -27 20 -12 14 -25 17 -46 13 -24 -4 -30 -1 -38 18 -7 17 -10 19
-10 7 -1 -13 -8 -17 -28 -14 -42 6 -112 39 -91 43 17 4 14 29 -12 84 -9 21 -9
31 0 49 10 20 10 24 -6 33 -11 6 -30 12 -43 13 -14 2 -36 12 -50 24 -15 11
-36 25 -48 32 -13 6 -23 15 -23 21 0 5 -10 17 -22 28 l-23 18 22 1 c13 0 30
-12 42 -28 18 -26 25 -29 68 -25 26 2 63 4 81 3 21 0 49 12 82 35 27 19 56 32
64 29 9 -3 17 3 21 15 4 14 15 21 31 21 13 0 24 6 24 13 0 6 5 4 11 -6 11 -19
64 -49 72 -41 3 3 16 -6 30 -20 33 -33 61 -33 99 -1 16 14 38 25 49 25 15 0
19 7 19 38 0 21 5 43 12 50 8 8 8 15 -1 26 -7 8 -10 24 -6 35 3 11 -3 35 -15
58 -23 44 -26 71 -6 79 8 3 12 13 9 23 -3 13 2 20 17 24 17 4 20 10 15 26 -5
17 -2 21 14 21 12 0 21 5 21 10 0 6 -13 10 -29 10 -17 0 -33 5 -36 10 -3 6 1
10 11 10 14 0 16 7 10 46 -5 38 -3 49 11 60 15 11 16 16 6 33 -10 15 -9 20 2
25 8 3 15 11 15 19 0 9 9 12 28 9 33 -4 71 30 55 50 -5 7 -10 25 -11 40 -2 32
-60 120 -76 115 -6 -2 -12 -16 -14 -30 -2 -15 -8 -27 -14 -27 -6 0 -8 -9 -5
-20 4 -16 1 -20 -11 -16 -51 14 -92 16 -92 5 0 -6 -7 -8 -16 -5 -19 7 -74 -14
-74 -29 0 -15 -88 -103 -109 -110 -12 -3 -21 -19 -25 -39 -5 -26 -14 -37 -35
-44 -21 -7 -31 -19 -36 -41 -6 -27 -17 -36 -72 -61 -73 -33 -135 -41 -113 -15
9 10 9 15 1 15 -6 0 -11 9 -11 21 0 13 4 18 12 13 7 -4 8 -3 4 4 -4 7 -16 17
-28 23 -16 8 -19 8 -13 -1 10 -16 -16 -32 -32 -19 -7 6 -17 8 -23 4 -5 -3 -10
-2 -10 3 0 5 -16 13 -35 19 -19 6 -33 7 -29 2 3 -5 -3 -8 -13 -7 -48 4 -83 -3
-83 -16 0 -11 -8 -12 -34 -6 -30 6 -33 5 -29 -11 3 -11 1 -19 -3 -19 -5 0 -15
-14 -22 -30 -8 -17 -17 -28 -21 -25 -10 6 -51 -41 -51 -58 0 -8 4 -7 10 3 7
11 10 11 10 2 0 -9 10 -11 36 -6 41 8 54 -4 54 -49 0 -16 4 -26 9 -22 6 3 15
-4 21 -15 6 -12 21 -20 37 -20 31 0 52 -25 53 -62 0 -16 6 -28 13 -28 6 -1 2
-9 -10 -19 -13 -11 -23 -24 -23 -30 0 -5 -5 -21 -11 -34 -10 -22 -14 -23 -40
-14 -16 6 -29 17 -29 24 0 16 -17 17 -22 1 -3 -8 -12 -4 -26 10 -13 13 -28 19
-39 15 -12 -5 -15 -2 -11 9 6 16 -27 38 -57 38 -17 0 -39 36 -26 44 11 7 20
56 14 73 -3 8 -13 11 -23 8 -10 -3 -26 4 -41 18 -13 14 -34 27 -46 31 -25 8
-55 60 -47 81 3 7 0 16 -5 20 -6 3 -9 11 -6 16 4 5 0 9 -7 9 -7 0 -21 9 -33
19 -11 11 -40 39 -65 63 -55 52 -84 93 -95 133 -12 48 -12 129 2 143 9 9 9 18
-3 40 -16 32 -18 68 -4 77 19 12 11 38 -9 32 -13 -3 -21 1 -24 14 -4 13 -14
19 -33 19 l-28 0 22 20 c12 12 22 26 22 31 0 6 7 8 15 5 10 -4 20 3 27 19 6
14 15 25 19 25 5 0 6 8 2 18 -5 15 -4 15 9 -2 14 -17 15 -17 30 7 16 23 16 25
-10 38 -15 8 -30 19 -35 26 -4 6 -27 19 -50 28 -45 17 -77 56 -77 94 0 11 -9
25 -20 31 -11 6 -20 20 -20 31 0 11 -8 22 -17 26 -10 4 -33 19 -51 35 -20 17
-41 27 -50 24 -11 -4 -39 15 -81 54 -36 33 -74 63 -85 66 -12 4 -35 17 -53 30
-17 13 -38 24 -47 24 -8 0 -17 8 -20 18 -4 10 -22 26 -41 35 -26 12 -35 23
-35 41 0 16 -11 32 -29 45 -21 15 -31 33 -36 61 -6 35 -10 40 -35 40 -48 0
-90 12 -90 26 0 7 -9 18 -19 24 -22 11 -40 60 -39 104 0 21 -10 39 -36 63 -21
20 -36 44 -36 58 0 24 -17 35 -56 35 -29 0 -58 41 -49 69 9 28 -20 68 -55 75
-21 4 -35 16 -49 45 -12 22 -25 42 -30 46 -16 9 -51 -18 -51 -38 0 -17 -5 -18
-52 -12 -65 9 -98 21 -98 35 0 6 -5 8 -11 4 -19 -11 -108 114 -92 129 3 4 -2
18 -11 31 -9 14 -16 39 -16 56 0 29 -9 35 -46 31 -7 -1 -23 12 -37 29 -14 16
-27 30 -29 29 -2 0 -8 -3 -15 -6z m-13 -2248 c0 -8 -4 -15 -10 -15 -5 0 -10 7
-10 15 0 8 5 15 10 15 6 0 10 -7 10 -15z m-2132 -280 c2 -2 -1 -13 -8 -24 -12
-24 -45 -28 -54 -6 -3 9 0 15 9 15 9 0 12 6 8 16 -5 13 -2 15 18 9 13 -4 25
-9 27 -10z m1662 -19 c9 -24 -6 -86 -22 -86 -50 0 -93 61 -61 86 10 8 26 12
36 10 9 -2 17 0 17 5 0 19 21 8 30 -15z m-1515 -32 c12 -19 14 -29 6 -34 -7
-3 -9 -14 -5 -23 8 -23 0 -21 -45 9 l-39 25 22 24 c28 30 40 30 61 -1z m3254
-4142 c14 -11 14 -14 1 -22 -23 -14 -54 21 -45 50 7 22 8 22 17 4 6 -10 18
-25 27 -32z"/>
<path d="M9240 12286 c0 -9 5 -16 10 -16 6 0 10 4 10 9 0 6 -4 13 -10 16 -5 3
-10 -1 -10 -9z"/>
<path d="M9220 12265 c-8 -45 -8 -47 2 -37 5 5 8 18 5 28 -3 11 -6 15 -7 9z"/>
<path d="M13065 11570 c3 -5 10 -10 16 -10 5 0 9 5 9 10 0 6 -7 10 -16 10 -8
0 -12 -4 -9 -10z"/>
<path d="M13022 11565 c4 -5 4 -13 -1 -19 -5 -6 -5 -20 0 -31 4 -11 8 -14 8
-6 1 9 9 12 26 9 30 -6 34 7 5 15 -11 3 -19 11 -18 17 2 7 -4 15 -12 18 -8 2
-12 1 -8 -3z"/>
<path d="M13316 7293 c-4 -4 12 -17 36 -28 25 -12 43 -27 43 -37 0 -16 37 -58
50 -58 3 0 5 8 5 17 0 13 3 14 12 5 7 -7 17 -12 23 -12 13 0 36 50 29 61 -7
12 -34 12 -34 0 0 -14 -54 -20 -68 -8 -11 8 -11 12 0 18 10 6 10 13 2 26 -12
19 -83 30 -98 16z"/>
<path d="M11527 6832 c-35 -36 -37 -41 -26 -65 7 -15 18 -27 24 -27 7 0 15 -9
18 -20 3 -11 1 -20 -5 -20 -5 0 -6 -4 -3 -10 21 -35 53 28 33 64 -7 12 -5 16
7 16 17 0 19 17 5 40 -5 9 -5 19 1 27 11 12 4 33 -10 33 -4 0 -24 -17 -44 -38z"/>
<path d="M10388 6735 c-10 -13 -18 -31 -18 -39 0 -9 -5 -16 -11 -16 -6 0 -8
-7 -5 -16 4 -11 2 -15 -8 -11 -8 3 -23 -4 -35 -16 l-20 -23 34 -27 c19 -15 35
-34 35 -42 0 -14 11 -19 36 -16 6 0 18 -14 28 -31 9 -18 14 -25 11 -15 -4 14
-1 17 14 12 11 -3 22 -1 26 5 5 8 13 6 25 -5 10 -9 23 -15 31 -13 7 2 15 -5
17 -14 2 -11 -2 -18 -12 -18 -10 0 -15 -8 -14 -23 2 -18 7 -23 24 -19 21 4 22
1 21 -70 -1 -40 -5 -78 -10 -85 -4 -6 5 -21 22 -36 21 -18 28 -31 24 -45 -3
-12 5 -42 17 -67 16 -33 19 -50 12 -57 -6 -6 -8 -16 -5 -24 3 -7 0 -28 -6 -47
-8 -24 -9 -42 -1 -61 12 -33 4 -52 -15 -36 -11 9 -15 6 -20 -17 -12 -53 -13
-53 -40 -43 -29 11 -30 10 -11 -35 10 -24 22 -35 35 -35 12 0 21 4 21 10 0 6
18 7 45 3 41 -5 45 -4 39 12 -6 15 -3 17 18 12 19 -5 28 -2 32 9 5 13 9 14 20
4 23 -18 59 5 50 32 -3 12 -2 18 3 15 15 -9 45 32 38 53 -3 11 1 32 9 49 12
23 13 36 5 61 -9 24 -8 37 1 55 11 20 10 29 -9 60 -25 43 -27 52 -6 35 13 -11
14 -10 9 4 -5 12 0 16 20 16 24 0 26 4 26 40 0 27 7 47 20 60 24 24 16 50 -17
50 -18 0 -24 4 -19 15 3 8 -4 21 -15 29 -17 11 -19 18 -10 34 16 30 14 72 -4
72 -8 0 -15 9 -15 20 0 11 -4 20 -10 20 -5 0 -10 -7 -10 -15 0 -23 -36 -37
-50 -20 -7 8 -18 15 -25 15 -6 0 -20 9 -30 20 -10 11 -31 20 -46 20 -15 0 -31
5 -34 10 -4 6 -11 7 -17 4 -6 -4 -14 0 -19 7 -15 24 -10 28 21 19 22 -6 30 -5
30 4 0 13 -41 36 -64 36 -8 0 -34 19 -59 43 -105 99 -108 101 -129 72z m170
-200 c-3 -3 -9 2 -12 12 -6 14 -5 15 5 6 7 -7 10 -15 7 -18z"/>
<path d="M10599 5713 c21 -41 106 -76 117 -49 7 17 -42 71 -51 56 -7 -11 -42
-9 -63 4 -11 7 -12 4 -3 -11z"/>
</g>
</svg>
