<svg version="1" xmlns="http://www.w3.org/2000/svg" width="1428.574" height="1352.887" viewBox="0 0 1071.431 1014.666"><g fill="#222"><path d="M314.621 1.5c0 .8.2 1.5.4 1.5s.6-.7 1-1.5c.3-.8.1-1.5-.4-1.5-.6 0-1 .7-1 1.5zM101.521 4.9c.9 1.6.6 1.9-2.2 2.4-1.7.2-3.9.1-4.8-.4-1.1-.6-2.2-.3-3.3 1-.9 1-3.4 2.4-5.5 3.1-3.2 1-4.2 1-6.9-.4-1.7-.9-3.6-1.6-4.2-1.6-.6 0-1.8-.6-2.5-1.4-1.7-1.6-6.9-1.4-18.3 1-3.1.6-3.2.7-1.6 2.5 1.3 1.5 1.5 3 1 7.6-.3 3.2-.2 6.5.4 7.3.6 1 .2 2.4-1.7 4.8-2.4 3.2-2.5 3.4-.4 2.7 2.5-.8 2.8.3.4 2-1.5 1.1-2 1-3.4-.6-1.6-1.9-1.7-1.8-3.2 1.3-1.4 2.9-1.5 3.4-.2 4.4 1.9 1.4 1.9 4.1.1 4.6-1.9.4-9.6 9.6-9.6 11.5 0 1.2-.8 1.4-3.5 1.1-1.9-.2-3.5 0-3.5.5 0 .4-.4.5-1 .2-.5-.3-1-.1-1 .4 0 .6-1 1.1-2.3 1.1-1.3 0-3.2.7-4.3 1.5-1 .8-2.6 1.5-3.5 1.5-.9 0-2.4.9-3.4 2s-2.2 1.7-2.7 1.4c-.4-.3-.7 0-.6.7.2.6-.3 1.4-1 1.6-1.7.7-1.2-2.8.6-4.3 2.2-1.6-1.3-4.2-3.8-2.7-1.1.8-2.1.8-2.7.2-.6-.6-1.4-.5-2.2.5-.9 1.1-1 2.4-.1 5.4 1.1 4.2 2.3 5.1 7.9 5.8 1.9.3 4.1.9 4.8 1.5 2.1 1.8 8 2.8 9.2 1.6 1.7-1.7 10.3-.9 11.7 1.1.9 1.1 1.3 1.2 1.4.4 0-1.9 4.7-1.4 6.8.8 1 1.1 2.4 3.8 3.1 5.9 1.1 3.8 1.3 3.9 6.2 4.3 6.3.4 8.9-.5 8.9-3.2 0-2.2.8-2.4 6.5-1 3.3.8 4.2.6 5.2-.7.7-.9 1.6-1.3 2-1 .3.4 1.6-.1 2.7-1.2 2.1-1.9 7.6-1.9 7.6 0 0 .5.5.9 1 .9.7 0 .8-1.3.4-3.6-.6-3.3-.5-3.6 1.7-3.3 3 .3 5.9-1 5.9-2.5 0-.7 2.2-2.3 4.9-3.6 4.6-2.1 4.9-2.4 3.7-4.4-.7-1.2-1.2-3.1-1.1-4.4.1-1.2-.2-2.2-.7-2.2-.5 0-.6-.5-.3-1 .4-.6 1.1-.7 1.7-.4.7.5.9-.3.6-2.3-.4-2.6-.2-2.9 1.9-2.5 1.3.2 2.3-.1 2.3-.7 0-.7 1.9-.9 5.6-.6 3.7.4 5.3.2 4.9-.5-.3-.5-.1-1 .5-1 .7 0 .9-.8.5-2.1-.6-1.9-.4-2.1 1.8-1.7 2.2.4 2.7.1 3.2-2.3.6-2.5 1-2.8 3.3-2.3 1.5.4 4.1 1.5 5.8 2.5 3.8 2.3 4.4 2.3 4.4.4 0-1.1.4-1.3 1.8-.6.9.5 2.5 1.2 3.5 1.5 1 .3 1.7 1.5 1.7 3.1 0 1.8.5 2.5 2 2.5 1.1 0 2-.5 2-1 0-.7.6-.7 2 0 1.7.9 2 .8 2-1.1 0-1.7.4-2 2.1-1.6 1.2.3 1.8.3 1.5 0-.3-.4.3-1.2 1.3-2 1.3-.9 2.1-2.8 2.3-5.6l.3-4.2 1.7 3.4c1.3 2.4 1.5 3.8.8 4.6-.8.9-.6 1.4.5 1.9.9.3 1.3.2 1-.4-.3-.6.2-1.1 1.2-1.2 1 0 2.5-.2 3.3-.2 2.9-.3-.8-7.6-3.9-7.6-1 0-3.3-1.7-5.1-3.7-1.9-2.1-3.6-3.1-3.8-2.5-.6 2-2.2 1.4-2.2-.8 0-1.3-1-2.4-2.6-3-1.4-.6-2.3-1.4-2-1.8.9-1.6-1.2-3.6-2.6-2.5-2 1.5-7.5-.3-9.4-3.2-1.6-2.5-6.4-3.6-6.4-1.5 0 2.2-4.1.8-7.4-2.5-3.3-3.3-5.4-4.6-4.2-2.6.6 1-1.6 2.1-4.2 2.1-1.6 0-4.2-4.1-4.2-6.7 0-1.4-2.2-2.7-6.3-3.7-2.5-.6-2.7-.5-1.8 1.3zm55.1 31.2c0 .6-.4.7-1 .4-.5-.3-1-1.1-1-1.6 0-.6.5-.7 1-.4.6.3 1 1.1 1 1.6zM316.221 5.4c.7 1.8-2.2 6.3-4.4 6.9-1.2.3-.9.5.6.6 1.8.1 2.2.5 1.7 2-.4 1.3.2 2.5 1.8 3.8 1.3 1 3.2 3.4 4.2 5.3 2.1 4 3.9 5.7 7.8 7.1 1.5.6 2.7 1.5 2.7 2.1 0 .5.5.6 1 .3.6-.3 2.3.3 3.9 1.4 1.8 1.3 4.5 2.1 6.9 2.1 3.4 0 4.1.4 4.6 2.5.8 3 2.1 3.2 3.8.6.7-1.1 1.8-1.7 2.7-1.3 1.4.5 1.4.3.2-1.1-1.2-1.5-1.1-1.7.4-1.7 1.3 0 1.1-.7-1.3-3.8-1.6-2-3.1-4.6-3.3-5.7-.6-2.7-9.6-7-11.4-5.5-.9.8-1.5.8-2 0-.8-1.3-5.7-.2-6.7 1.6-.9 1.4-4.8.7-4.8-.8 0-.6-.7-.5-1.5.2-1.8 1.5-1.7 1.6-3.3-3.1-1.5-4.5-1.5-5 .2-4.3 1.7.6 5.4-1.1 7.9-3.7 1.7-1.8 1.7-1.9-.8-2.9-1.4-.5-2.5-1.6-2.5-2.5 0-1.8-2.6-2-3.3-.3-.4 1-.7 1-1.8 0-1.8-1.6-4-1.5-3.3.2zM302.921 13.7c-3.2.6-2.9 3.1.5 4.4 1.5.7 2.2 1.3 1.4 1.6-1.4.5-.6 2.3 1 2.3.6 0 .9-.3.6-.6-.4-.3 0-1.7.7-3.1.7-1.4 1.1-3.2.8-3.9-.5-1.4-1-1.5-5-.7z"/><path d="M41.621 27.9c0 1.6-.3 3.6-.6 4.5-.4 1.1-.1 1.6 1.1 1.6 1.1 0 1.5-.5 1.1-1.6-.4-1.2-.1-1.4 1.3-.9 1.4.4 2.3 0 3.1-1.5 1.7-3.1.5-5-3-5-2.7 0-3 .3-3 2.9zM261.221 37.9c-.4.5-.4 1.6-.1 2.3.9 2.3-1.2 6.8-2.8 6.2-.9-.3-1.9.6-2.7 2.5-.7 1.7-1.6 3.1-2.1 3.1-1.2 0 1.2 6.1 2.7 6.7.7.2 1 1.1.7 1.9-.3.8 0 1.4.6 1.4s.8.7.4 1.6c-.3.8-1.2 1.3-2 1-.7-.3-1.6 0-1.9.8-.3.7-1.5 1.1-2.7.9-3.4-.7-7.8 1.3-7.1 3.2.3.8.1 1.5-.6 1.5-1.5 0-4.1 2.6-3.3 3.4.4.3-.6.6-2.2.6-3.9 0-10.5 3.2-10.2 4.9.1.8-.4 1.6-1 1.8-.8.3-1.3-.4-1.3-1.5 0-1.5-.5-1.9-1.9-1.5-1.1.3-1.7 1.1-1.5 1.8.7 1.7-8.2 3-11.8 1.6-3.5-1.3-3.9-2.3-2.5-6 1-2.6.9-3.3-.3-4.1-1.6-1-6.8-.2-8.7 1.3-1.8 1.3-3.7-.5-6.2-5.9-1.2-2.4-2.8-4.4-3.5-4.4-.8 0-2.1-.6-2.8-1.3-1.2-1.2-4.5-2.4-8.6-3.3-2-.4-2.1-.6-2.5-4.6-.4-3.7-3-8.8-4.5-8.8-.4 0-1.2.4-1.8.8-1.4 1 .3 9.2 2 9.2.8 0 1.6 1.3 1.9 3 .5 2.5 4.9 6.2 7.2 6 .3 0 1.5.9 2.7 2 1.2 1.1 2.5 2 2.8 2 .4 0 .5 1.1.2 2.5-.3 1.8.1 3.1 1.4 4 1.6 1.2 1.7 1.6.5 2.4-.7.5-1.1 1.3-.7 1.9.3.6.2 1.3-.4 1.7-.5.3-1 1.5-1 2.6s-1.4 3.2-3 4.6l-3 2.5 2.2 3c1.2 1.7 2.8 3.3 3.7 3.5.9.3 2.4 2.1 3.3 4 1.5 3.2 1.5 3.8.2 4.7-1.3 1-1 1.6 1.6 4.1 1.6 1.6 3 3.4 3 3.9 0 .6 2.1 3.1 4.6 5.6 4.4 4.3 8.1 10.6 7 11.8-.3.3-.6.2-.6-.2s-1.1.5-2.5 1.9-3.2 2.5-4 2.5c-1.1 0-1.4 1.1-1.1 4.7.3 3.9.8 4.9 2.5 5.1 1.1.2 2.2 1.1 2.5 2 .7 2.3.2 9.4-.7 10.9-.4.6-.2 2.3.5 3.8 1.3 3-.3 5.8-2.3 3.8-.7-.7-1.7-.4-3.4 1-1.9 1.8-2.1 2.5-1.2 4.4.5 1.3 1.7 2.3 2.5 2.3 1 0 1.3.8 1 3-.4 2.4-.1 3 1.4 3 1 0 1.8.4 1.8.9 0 1.4-2.9 2.2-5.5 1.5-1.7-.4-3.2.1-5.2 2-1.9 1.8-3.4 2.5-4.8 2.1-1.1-.4-2.8-.8-3.9-.9-1-.1-2.5-1.1-3.3-2.2-.8-1-2.2-1.9-3.1-2-.9-.1-2.7-.4-3.9-.8-1.8-.6-2.2-.4-1.7.8.4 1.1 0 1.6-1.5 1.6-1.3 0-2.2.7-2.3 1.7 0 1-.1 2.5-.2 3.3-.1.8-1.2 1.7-2.6 2-2 .5-2.5 1.2-2.6 4-.1 1.9-.3 3.9-.5 4.5-.2.5.1 2 .5 3.3.5 1.6.3 2.9-.8 4.1-.9 1-1.6 2.5-1.6 3.3 0 .9-.7 2.1-1.5 2.8-1.1.9-1.3 1.6-.5 2.4 1.5 1.5 1.2 3-1 5.4-1.7 1.8-1.8 2.2-.5 2.2 1.2 0 1.5.6 1 2-.3 1.1-.8 3.1-1.1 4.6-.4 2.1-.2 2.5 1.4 2 1.2-.4 3.4.4 5.8 2 4.2 2.9 5.2 3 16.2 1.9 6.8-.7 7.2-.7 7.2 1.2 0 2.3 2.2 4.5 4.2 4.2 1.8-.4 10.5 8 11.6 11.1.7 1.7 1.8 2.6 3.6 2.8 6.6.5 10 5.4 11.2 16 .3 3.4 1.1 6.2 1.5 6.2.5 0 .9.9.9 2 0 1.4.6 2 1.6 1.8 2.5-.4 2.9 2.2.5 2.9l-2.1.5 2 3.3c1.1 1.7 1.7 3.5 1.4 3.8-1.1 1.1 6.9 9.6 11.1 11.8 3.1 1.7 4.7 3.4 6.4 7.1 1.2 2.6 2.9 4.8 3.6 4.8.9 0 1.5 1 1.5 2.4s.5 2.8 1.1 3.2c.6.3.8 1.6.5 2.7-.4 1.5.8 4.1 3.5 8.3 2.2 3.4 4.4 7.5 4.9 9.2.9 3.2.3 7.2-1 7.2-.4 0-1.1 3.3-1.5 7.4-.5 5.4-1.2 7.9-2.6 9.2-1.1 1-1.9 3-1.9 5 0 1.8-.4 3.5-1 3.9-.5.3-.7 1.2-.3 2 .3.8 0 1.5-.7 1.5-.8 0-1 1-.6 3.2.3 1.8.2 4.6-.3 6.3-.6 2.4-1.3 3-3.4 2.8-3.6-.2-3.5 1.8.3 6 1.7 1.9 3 3.9 3 4.4 0 .9 7.4 4.3 9.3 4.3.4 0 1.7-.9 2.9-2 2.9-2.7 4.2-2.5 6.8.7 1.2 1.6 3.1 3.3 4.3 4 2.7 1.5 6.7 1.7 6.7.3 0-.5 1.5-1 3.3-1 6.9.1 11.5-1.1 12-3.2.5-1.8.7-1.9 3.7-.3 2.2 1.1 3.6 1.3 4.2.7.6-.6 2.6-.8 4.4-.5 2.1.4 3.4.2 3.4-.5 0-.6 1-1.6 2.1-2.3 1.8-.9 2.5-.7 5 2.1 2.3 2.5 3.5 3.1 5.4 2.6 2-.5 2.6-.2 3.1 1.9.3 1.4 1 2.3 1.4 2 .4-.3 1.3 1.6 1.9 4 .8 3.3 1.8 4.8 3.6 5.5 1.3.5 4.2 2.1 6.5 3.5 2.6 1.6 4 2.1 4 1.3.1-.7 1.1 0 2.4 1.6 1.3 1.5 2.2 3.6 1.9 4.5-.3 1.2.9 2.1 4.7 3.6 2.9 1.1 5.6 2.6 6.2 3.2.6.7 2.5 1.3 4.2 1.3 1.8 0 3.8-.6 4.5-1.3 1.1-1 1.2-.8.7.9-.5 1.8 0 2.6 2.9 4.4 3.7 2.3 4.5 4 2 4-1.1 0-1.4.7-.9 2.5.3 1.4.2 2.5-.4 2.5-.6 0-.8.9-.5 2 .7 2.5-.3 2.5-4.5 0-4.2-2.6-4.3-2.5-3.2.5 1.1 2.8-.5 6.5-2.8 6.5-.7 0-1.5.7-1.8 1.5-.4.8-1.2 1.5-2 1.5-1.3 0-2 2.7-1.5 6 .6 3.3.9 6.6 1 8.4.1 1.5.4 1.6 1.6.6.9-.7 1.5-.8 1.5-.2 0 .5 2.5 3.6 5.6 6.8 4.4 4.6 5.4 6.3 4.9 8.2-.5 1.9 0 2.5 2.8 3.7 5.1 2.1 5.7 3.3 4.5 8.5-1.4 6.2-2.1 7.4-4.9 8-1.9.5-2.6 1.5-3.1 4.5-1.8 10.4-3.2 13.9-7.9 18.6-3.1 3.2-4.4 5.1-3.8 6 .5.8.2 2-.8 3.1-.9 1-1.3 2.6-1 4 .4 1.2.2 2.7-.3 3.2-1.1 1.4-.1 6.6 1.5 7.2 1.5.6.8 5.3-1.2 7.5-.8.9-1.1 2.4-.7 3.4.6 1.5.3 1.7-1.8 1.2-1.9-.5-2.8-.2-3.2.9-.4 1.1-1 1.3-1.9.7-.6-.6-2-1.3-3-1.6-1.6-.6-1.6-.4-.3 2.1.9 1.7 1.1 3.4.6 4.2-.4.7-.6 1.9-.3 2.6.5 1.2-6.2 8.3-10.4 11.1-1.3.9-2.3 2.4-2.3 3.4 0 1.8-4.4 3.8-5.7 2.6-.3-.4-1.5.8-2.7 2.6-1.3 2-3.2 3.3-4.7 3.5-1.5.2-3.2 1.3-3.9 2.6-.9 1.8-2 2.3-4.8 2.2-2.9-.1-3.8.4-5.2 2.9-2.1 3.6-1.5 5.8 1.2 4.9 1.7-.5 1.8-.4.6 1.5-1.1 1.7-1 2.2.5 3.3 2.1 1.6 1.3 6-1 5.1-1.3-.5-1.2-.1.2 2.7 1.6 3 1.6 3.4.1 4.2-2.8 1.6-1.5 14.4 2 21 1 1.8 1.1 2.9.4 3.3-.7.4-.8 2.6-.5 5.6.5 4.4.4 4.9-1.4 4.9-1.4 0-1.9.5-1.5 1.4.3.8 1.2 1.2 2 .9.8-.3 1.4 0 1.4.6 0 1.4 4.1 5.2 5 4.6.4-.2 1.3 1.5 2 3.8 1.6 4.8 7 10.7 11.5 12.3 2.3.8 3 1.7 3.1 3.8.1 1.5.6 3.2 1.3 3.9.6.6 1.1 2.1 1.1 3.3 0 1.5 1.5 3 5 5.2 2.8 1.7 5.3 3.9 5.6 4.9.3 1 1 2.6 1.5 3.6s.7 2.2.4 2.7c-.4.6.1 1 1 1 2.9 0 6.7 3.8 9.2 9.2 1.3 2.9 3 5.6 3.6 6 .9.6.9 1-.2 1.7-2.2 1.4.4 2.1 3.6.9 4.3-1.6 8.3-.4 8.3 2.6 0 1.4 1.2 3.9 2.6 5.6 2.6 3 2.7 3 4.7 1.3 1.1-1 1.7-1.3 1.4-.6-.4.6-.3 1.5.3 1.8.8.5.8 1.1 0 2.1-.9 1-.8 2 .3 4.3 1.3 2.6 1.3 3.2 0 5-1.4 2.1-.9 4.6.8 3.6.5-.4.9.7.9 2.3 0 1.6.9 3.9 2 5.2 2.4 2.7 2.7 7 .5 7s-1.8 1.9.6 3.9c1.6 1.2 2 2.3 1.5 3.9-.8 2.4-2.2 2.7-6 1.2-1.8-.6-2.6-.6-2.6.1 0 .6-.4.8-.9.4-1.9-1.1-2.2 1.7-.6 5 .8 1.9 1.7 5.1 1.9 7.1.2 2.9 1.3 4.6 5.7 8.7 3 2.8 5.9 5.2 6.4 5.2.6.1 1.2.3 1.5.4.3.1 2.9.4 5.9.7 3 .2 5.9.8 6.5 1.2.6.5 2.3.9 3.8 1 1.5.1 4.4 1.1 6.5 2.2 2.1 1.1 4.3 2 4.9 2 1.5 0 2.7 2.7 2.8 5.9.1 2.5 1.5 3.2 7.1 3.5 1.7 0 3.5.4 4.1.8 1.8 1.2 9.2-2.2 9.8-4.5.5-1.9.6-1.9 3-.3 1.5.9 2.6 1.2 2.6.6 0-.7.8-.9 2.1-.5 1.2.4 2.7.8 3.4.9.7.1 2 .8 2.8 1.4 1.7 1.4 3.3 0 2.2-1.8-.3-.6-.2-1 .4-1 .5 0 1.1.6 1.3 1.2.3.7 1.5 1.3 2.9 1.3 1.5 0 2.8.8 3.4 2.2 1.2 2.8 2.1 2.9 2.8.3.3-1.1.2-1.8-.3-1.5-.4.3-1-.1-1.3-.9-.3-.8.1-1.7.9-2 .8-.3 1.4-1.4 1.4-2.5 0-1.8.3-1.9 2.5-.9 1.4.6 2.5 1.6 2.5 2.1s.8.7 1.9.4c1-.2 2.9.4 4.2 1.4 1.3 1 2.9 1.9 3.5 1.9.6 0 1.7.6 2.3 1.4 1.6 1.9 6.1.8 6.1-1.5 0-1.6.3-1.7 2-.9 1.1.5 2.9 1.4 4 2 2.3 1.2 6 1.3 6 .3 0-.4-1.4-2.2-3.2-4-1.8-1.8-2.7-3.3-2-3.3 2.2 0 1.3-5.1-1.5-8.4-1.4-1.7-3-3-3.5-2.8-.5.1-1.9-.4-3-1.2-1.9-1.4-2.3-1.3-3.9.5-1.7 1.9-1.9 2-4.3.4-1.4-1-2.4-2-2.1-2.4.2-.4-.9-1.5-2.5-2.4-2.7-1.6-2.8-2-1.8-4.8.8-2.2.7-3.4-.1-4.2-2.1-2.1-1.1-2.8 3.3-2.2 3.8.6 4.6.4 5.9-1.5 1.4-1.9 1.6-2 2.4-.5.9 1.5 1.2 1.3 2.7-1 1.4-2.1 1.5-2.9.5-4.1-1-1.3-1-1.7.2-2.5 1.9-1.2 2.9-1.1 2.9.2 0 .5.4.8 1 .4.5-.3 1.8.3 3 1.5 1.1 1.1 2.7 2 3.5 2 .8 0 1.5.8 1.5 1.9 0 2.3 2.5 4.5 4.4 3.8 1.4-.6 5.4 2.9 5.5 4.8.1.5 1.9 1.6 4.1 2.3 2.2.8 4 1.8 4 2.3 0 1.7 6.4 3.9 7.2 2.6.5-.8.8-.5.8.7 0 1.4.5 1.7 2.3 1.2 1.2-.3 2.5-.6 3-.6.4 0 .7-.9.7-2 0-1.3.6-1.9 1.8-1.8 3.9.3 5-.4 7.3-4.7 1.9-3.7 2.8-4.5 4.4-4 5.8 1.8 8.5 2.2 8.5 1.4 0-1.2 15.4 0 15.8 1.2.2.5.8.9 1.4.9.6 0 .8-.6.5-1.4-.5-1.1 1.6-3 2.6-2.4.1.1 1.3-.4 2.5-1.1 1.3-.7 6-1.4 10.5-1.6 6.8-.4 8.9-.1 12.5 1.7 2.4 1.1 4.8 3.1 5.4 4.4 1.4 3.1 3.8 3 6.8-.1 1.4-1.5 4.4-2.9 7.6-3.6 5-1.1 5.4-1.4 5.4-4.1 0-1.5.5-2.8 1-2.8.6 0 1-.9 1-1.9 0-1.1.3-2.7.6-3.6.6-1.4.8-1.4 2.4 0 1.4 1.3 2.2 1.4 4.3.4 2.2-1 3.1-.9 5.2.5 1.4.9 2.5 2.1 2.5 2.8 0 1.4 7.7.2 10.7-1.8 1.2-.7 3.8-1.4 5.8-1.4 1.9 0 3.5-.4 3.5-.9 0-1.5 3.3-2.2 4.2-.9.4.7.6 5.1.3 9.8-.7 9.4-2.4 13.5-5.6 12.7-1.7-.5-2.4.8-2 3.5.2 1.3-5.7 3.9-6.4 2.8-.9-1.5-7.5-1.2-7.5.3 0 2.1-5.1 12.1-6.6 13-1.1.6-1 1.3.2 4.2 1.3 3.1 1.3 3.5-.1 3.5-1.3 0-1.2.4.4 2.1 1.1 1.2 2.6 3.4 3.3 5 1.7 3.4 8.8 8.5 9.7 7 .4-.6 1.2-.6 2-.2.7.5 2.2.6 3.2.4 1.3-.4 1.9 0 1.9 1.2 0 2.1 3.2 6.8 8.4 12.2 4 4.1 4.5 5.4 4.9 11.8.2 2.8 4.2 7.5 6.4 7.5 1.7 0 4.6 3.9 4 5.3-.3.8 0 2.3.7 3.3 1.4 2.1 1.6 10.2.3 12.2-.8 1.2 4.8 10.2 6.3 10.2.4 0 .7 1.3.7 3 0 2.2-.5 3-1.8 3-1.5 0-1.7.6-1.3 3.2.4 1.8 1.3 3.8 2 4.4 1.8 1.5 1.8 4.4-.1 4.4-.9 0-1.2.6-.9 1.5.4.8.1 2.1-.5 2.8-.6.7-1.7 4.2-2.5 7.6-.8 3.5-2.1 7-2.9 7.9-.8 1-1.5 2.9-1.5 4.3 0 2.2.4 2.5 2.9 2.1 2.4-.4 2.7-.7 1.8-2.3-.5-1.1-.6-1.9-.1-1.9 1.5 0 3.2 5.2 2.9 8.7-.1 1.8-.8 3.3-1.4 3.3-.7 0-1.3 1.1-1.3 2.4 0 1.4-.5 2.8-1 3.1-.6.4-.8 1-.5 1.5.6 1-2.2 7.1-3.7 8.1-.5.3-1 1-1.1 1.5-.1.5-.5.8-.9.6-1.8-.5-.6 4.9 1.4 6.8 2.7 2.5 4.9 2.6 6.9.2.9-.9 2.4-2.2 3.3-2.7 1.3-.8 1.8-2.9 2.2-9.3.4-7 2.1-15.4 2.3-11.5.1 1.7 4.6 1.6 10.2 0 3.2-1 6.4-1.1 10.9-.6 7.3.9 16.2-.4 18-2.7.7-.7 2.5-1.4 3.9-1.4 1.5 0 4.9-1.5 7.5-3.2 8.3-5.6 10.6-6.6 16.7-7.3 3.8-.5 5.9-1.2 5.9-2 0-.7 1.1-1.6 2.5-1.9 1.5-.4 3.1-1.8 3.7-3.4 2.3-5.2 4.9-8.2 7.2-8.2 1.8 0 2.5-.7 3-3 .4-2.1 1.1-3 2.6-3 1.4 0 2-.7 2-2.2 0-2 .1-2 1.8-.5 1 .9 3.1 1.6 4.8 1.6 10.6 0 15.9.7 15.9 2 0 .8.8 1.5 1.8 1.7.9.1 1.7-.4 1.7-1.1 0-2.1 6.9-2.9 8.9-1.1 2.5 2.3 4 2 5.3-.9.7-1.6 1.7-2.4 2.6-2 1.2.4 1.4-.4 1-4.3l-.5-4.9 3.9.1c2.1.1 3.8-.2 3.8-.6 0-.4.9-1 2-1.3 1.5-.5 1.9-1.2 1.5-2.5-.4-1.2.1-2.3 1.4-3.2 1-.8 2.1-2.7 2.3-4.3.3-2.7.6-2.9 7.4-4.1 3.8-.6 7.9-1.6 9-2.2 1-.6 2.7-1.3 3.8-1.6 1.2-.4 1.7-1.3 1.3-2.6-.4-1.5 0-2 1.3-2 1.1 0 2.1-.4 2.5-1 .4-.6 1.5-.6 3 0 1.6.6 2.5.6 2.5 0s.7-1 1.5-1 1.5-.7 1.5-1.5c0-.9.6-1.2 1.7-.8 1.1.4 1.4.3.9-.5-.4-.6-.2-2.1.4-3.2.9-1.6.8-2.5 0-3.5-1.7-2.1-.2-3.8 2.9-3.2 2.3.5 3-.1 5.6-4.4 1.8-2.9 3.6-4.8 4.5-4.6 1.7.3 4-4.2 4-7.8 0-2.1 3.4-4.5 6.5-4.5.7 0 1.5-.6 1.7-1.2.3-.7.8.7 1.2 3.1.8 5 2.3 8.4 3.5 7.6.5-.2 1.4.2 2.1 1 1.4 1.7 0 6.4-2.8 9.7-1 1.2-1.2 2.5-.6 4.5.4 1.5.7 4.3.5 6-.1 1.8.2 3.3.7 3.3.5 0 1.9.9 3.2 2 1.3 1.1 3.1 2 4.1 2 2.4 0 3.3 1.6 1.3 2.4-.8.3-1.2 1-.9 1.6.4.7-.3.6-2.1 0-4.8-1.9-6.1-.7-5.6 5.3l.4 5.4-5.5-.4-5.6-.3 1.4 2.7c.8 1.6 1.5 4 1.5 5.5s.5 3 1 3.3c1.4.9 1.2 3.1-.5 4.8-1.2 1.3-1.2 1.7.3 2.9.9.8 2.5 1.8 3.5 2.2 1.1.3 2.1 1.5 2.4 2.6.4 1.3 1.4 2 3 2 1.3 0 2.1-.4 1.8-1-.9-1.4.1-1.2 3.6.6 1.7.8 3.9 1.2 5 .9 2.8-.9 9.6 4 11.3 7.9.7 1.7 5.2 7 10 11.9 8.5 8.5 8.8 8.7 12.5 8.1 3.2-.5 4.3-.2 7.2 2.3 4.3 3.8 6.8 4.6 8.6 3.1 1.2-1 9.2-1.8 19.5-2 2.9-.1 11.3 5 13.5 8.1 1.1 1.6 2.1 1.9 5.1 1.4 2-.3 4-1 4.3-1.5.9-1.4 10.9 1.1 10.9 2.8 0 .7 1.2 2.7 2.8 4.4 2.5 2.8 2.8 2.9 5.2 1.5 1.4-.8 3.3-1.8 4.3-2.1 1.4-.5 1.7-1.3 1.2-3.5-.6-2.4-.3-2.9 1.3-2.9 2 0 3.5-2.1 3.7-5 0-.9.8-1.4 1.9-1.2 1.4.3 1.7-.1 1.3-1.2-.4-.9-.4-3-.1-4.6.5-2.3 1-2.8 2.3-2.1 4.3 2.1 12.4-.8 14.5-5.4 2.1-4.3 2.1-4.4-1-7.6-1.8-1.9-2.7-4.1-3.1-8.1-.5-5.4-.5-5.5 2.8-7 1.8-.9 3.8-1.4 4.4-1 .5.3.4-.2-.4-1.1-.7-.9-1.7-1.5-2.1-1.2-1.5.9-3.8-.7-4.4-3.1-.5-1.7-1.3-2.4-3.1-2.4-1.6 0-2.5-.6-2.5-1.6 0-.9-.5-3.3-1.1-5.4-.9-3.1-1.5-3.6-3.4-3.2-2 .3-2.3.1-1.8-1.7.3-1.2.1-2.1-.6-2.1-.6 0-1.1.8-1.1 1.8 0 3.7-3.6 5.6-10.3 5.5-8.4 0-10.1-.7-11.6-4.8-.9-2.5-1.8-3.5-3.3-3.5-1.7 0-1.8-.2-.8-1.5s1-2.3-.5-5.5c-1-2.1-1.5-4.9-1.2-6 .3-1.3 0-2.3-.9-2.7-.8-.3-1.4-1.8-1.4-3.4 0-2.5-.3-2.9-2.2-2.4-1.3.3-5.3.7-9 .9-6.1.2-6.8 0-6.8-1.6 0-1-1.1-2.3-2.5-2.8-3.1-1.2-5.6-6-5.2-10.2.2-1.9-.3-4-1.1-5.1-1.3-1.5-1.3-1.7 0-1.7.9 0 1.8-.7 2.2-1.5.4-1-.1-1.5-1.4-1.5-1 0-3-.5-4.4-1.1-1.9-.9-2.9-.9-4 0-1.2 1-1.7.9-2.8-.8-.7-1.2-1.8-2.1-2.5-2.1s-1.3-.6-1.3-1.3c0-.6-1.2-1.3-2.6-1.4-1.4 0-4.1-1.6-6-3.4-2.9-2.8-3.3-3.8-2.8-6.5.3-1.8.1-5.6-.5-8.5-.6-3-1.2-7.6-1.5-10.3-.4-5.6-1.5-6.6-7.3-6.6-3.4 0-4.5-.5-5.4-2.3-.7-1.2-1-2.4-.8-2.7.2-.3-1.2-.6-3.1-.8-1.9-.2-4.2-.9-5-1.6-1.7-1.5-5.1-3-6.2-2.8-1.1.3-9.5-3.5-10.2-4.6-.7-1.1-5.5-.4-7.6 1.2-2.8 2-18.7.4-20.6-2.2-1.4-1.9-5.8-.7-5 1.4.3.8-.1 1.4-.8 1.4-.8 0-1.6.6-1.9 1.4-.7 1.8-4.7 1-4.7-.9 0-.7-1.2-1.6-2.6-1.9-2.5-.7-2.6-1-1.9-4.9.3-2.3.7-5 .8-6 .1-.9.7-1.7 1.3-1.7.7 0 1-.8.7-2-.3-1.1-.2-3.2.1-4.6.7-2.6.7-2.6 2.7-.8 1.5 1.3 1.8 1.4 1.4.3-.4-1.1.9-2.2 4.5-4 4.8-2.3 5-2.6 4.6-5.7-.4-2.6-.1-3.2 1.4-3.2 2.3 0 6-4.6 6-7.5 0-1.2-.9-3-2-4-1-.9-1.9-2-1.8-2.4.2-1.2-3.3-8.1-4.1-8.1-.5 0-1.9-2.5-3.1-5.6-3.2-8.6-3.8-9.5-5.8-8.5-.9.5-4 1.6-6.8 2.5-5.1 1.7-5.2 1.7-9.6-.8-2.5-1.4-4.7-2.3-5-2.1-.2.2-1.2-1-2.1-2.8-1.6-2.9-2.2-3.2-5.1-2.9-2.7.3-3.8-.2-6.5-3.3-1.8-2.1-3-4.3-2.7-5.1.3-.8 0-1.4-.6-1.4-.7 0-.7-.4 0-1.3 2.7-3.2-8.5-8.3-13.5-6.2-1 .5-2.2.7-2.7.6-.4-.1-.6.9-.2 2.3.3 1.4.2 2.7-.4 3.1-.5.3-.7 1.2-.3 2 .4 1.1.1 1.3-1.1.9-1-.4-1.6-.1-1.6.7 0 1-.3 1-1.2.1-2-2-2.7-1.4-3 2.5-.3 3.2-.8 3.9-3.3 4.8-1.6.5-3.2 1.2-3.5 1.5-.3.3-1.1.5-1.7.6-.7.1-2.2.2-3.2.2-1.1.1-2.2 1.1-2.6 2.1-.7 2.4-4.3 3.7-5.8 2.2-.6-.6-1.9-1.1-2.9-1.1s-2.3-1.1-2.7-2.4c-1.1-2.9-3.6-3.9-6.1-2.6-2.9 1.6-5.5 1.2-7.6-1.1-1.2-1.4-2.5-1.8-4.1-1.4-2.6.6-3-.6-.8-2.5 4.5-3.7-3-17-9.3-16.5-1.6.1-4.7-.7-6.8-1.9-3.7-2-3.9-2.6-4.8-9.6-.2-1.4-.7-3.8-1.1-5.4-.5-1.8-.3-3.6.4-4.8 1.4-2.2 1.4-2.1-1.7-3.7-1.8-1-2.2-2-2.1-4.9.3-4.2-3.4-10.5-7.9-13.4-3.7-2.4-6.2-5.9-6.2-8.6 0-2.5-13.2-16.2-15.6-16.2-1.2 0-2.7-3-2.2-4.6.5-2.1-1.4-5.3-2.8-4.7-.9.3-1.4 0-1.2-.8.2-.8-.7-1.5-2-1.7-2-.3-2.2-.8-1.7-3.1.4-1.9.1-3.2-1-4.1-.9-.8-2.3-2.6-3.1-4.1-1.5-3-1.9-5.3-.5-3.1.6 1 1 1 2.1-.3.9-1.1.9-1.5.1-1.5-.7 0-1-.8-.7-1.8.5-1.4.1-1.8-1.2-1.7-.9 0-2.3.4-2.9.8-1.7 1-2.4-.6-2.8-6.3-.3-5.4-2-8.4-4.1-7.6-1.8.7-3.7-3-3.1-5.6.3-1.2-.2-3.2-1.3-4.7-2.6-3.7-2.4-16.8.3-16.3 1.8.3 6.6-4.4 6.7-6.6 0-.7 1.3-1.2 2.9-1.2 2.3 0 3-.5 3.5-2.6.5-2 1.2-2.5 2.7-2.1 1.6.4 1.9.2 1.4-1.4-.5-1.5-.1-1.9 1.8-1.9 1.3 0 3.2-.9 4.2-2 1.1-1.2 2.5-1.8 3.4-1.5.8.3 1.2.3.9-.1-1.1-1 1.8-3.4 4.1-3.4 1.1 0 2.6-.6 3.3-1.4.8-.7 2.4-1.7 3.6-2 2.8-.9 3.2-6.7.5-6.4-1 .1-3.1 0-4.7 0-2.3-.2-2.7-.5-1.8-1.4 1.8-1.8 1.5-2.6-1-3-1.6-.2-2.4-1.1-2.6-3-.2-1.4-1-3.2-1.8-3.8-.8-.7-1.4-2-1.4-2.9 0-.9-.6-2.3-1.2-3-1.1-1.1-1-1.3.3-.8.9.3 3.5-.4 5.8-1.5 4.1-2 5.2-4.3 3-6.5-.8-.8-.8-1.3 0-1.7.6-.4 1.1-1.4 1.1-2.2 0-.8-.3-1.3-.8-1-.4.2-2.2-.2-4.1-1-2.8-1.2-3.1-1.6-2.1-2.9 1-1.2.9-1.5-.4-1.5-.9 0-2.1-1.1-2.7-2.4-.9-1.8-2.2-2.5-5.8-3-11.8-1.7-13.2-2.3-12.9-5.8.4-3.9-2.6-6.2-4.6-3.6-1.2 1.7-7.3 2.7-10.6 1.7-.9-.2-1.6.4-1.8 1.7-.2 1.6-.9 2-2.6 1.7-1.9-.4-2.6-1.5-3.6-5.9-.7-3-1-5.7-.6-6.1.3-.4-.7-1.2-2.3-1.9-2.5-1.1-2.9-1.8-3.3-6.1-.3-3.7 0-5.5 1.5-7.7 1.6-2.3 1.8-3.2.9-4.7-.7-1.1-.8-1.9-.3-1.9s.5-1.7 0-4.1c-1.1-4.6-.6-5.9 2.2-5.9 1.3 0 1.9-.7 1.9-2.1 0-1.8.2-1.9 1.5-.9 1.2 1 1.5 1 1.5-.3 0-.8-.7-2-1.5-2.7-.9-.7-1.3-1.5-1-1.8.3-.3-.1-1.2-.8-2-.9-1.2-.9-1.6.1-1.9.6-.3 1.2-1.3 1.2-2.3 0-1 .6-2 1.3-2.3.6-.3-.4-1.2-2.2-2-1.9-.8-4-1.3-4.6-1.1-2.1.8-5.5-4.1-5.9-8.6-.2-3.1-1-4.9-2.7-6.2-1.3-1-3.4-2.8-4.6-4-2.2-2.1-2.2-2.1-.2-4.6 2.2-2.8 2.4-6.2.7-9.5-3.5-6.8-3.6-7.8-.8-5.2 1.1 1 2 1.3 2 .8 0-1.4 2.6-2.4 4.5-1.7.8.4 1.5 1.3 1.5 2.1s.5 1.1 1 .8c.6-.3 1-1.5 1-2.6 0-1 .6-1.9 1.3-1.9.6 0 .4-.6-.7-1.2-4-2.3-5.6-4.2-4.5-5.4.6-.8.6-2.1-.1-3.9-.8-2.2-.7-3.3.5-5.1.8-1.3 1.1-2.4.7-2.4-.5 0-.7-1.1-.4-2.5.2-1.4-.1-3.2-.8-4-1.9-2.3.4-1.8 2.6.6 1.5 1.7 2.6 2 5.6 1.5 2.2-.4 3.9-.2 4.3.5.4.6 2.1.9 3.9.8 1.7-.2 3.7 0 4.4.5.6.4 1.6.5 2 .2.4-.2 1.4-.1 2.2.5 1.2.7 1.2.9-.4.9-1.5 0-1.6.3-.6 1.5.6.8.9 1.9.5 2.4-.8 1.5 6.2 4.2 9 3.5 1.3-.3 2.5-1.4 2.8-2.5.4-1.5 1.1-1.8 3-1.4 2 .5 2.8.2 3.7-1.5 1-1.8.8-2.6-.9-4.4-1.2-1.3-2.1-3.6-2.1-5.4 0-3.5-1.9-4.4-2.7-1.2-.3 1.1-1.2 2-2 2-2.3 0-7-5.3-6.7-7.5.2-1.1-.1-3.8-.6-6-.9-4.1.1-6 2.8-5 .6.2 1.2.1 1.2-.4s-.9-1.1-2.1-1.4c-2.7-.7-2-2.8 1.4-4.5 1.5-.7 2.7-2.1 2.7-3.1s.7-2.4 1.5-3.1c1-.8 1.2-1.8.6-2.7-1.1-2 1.4-7 3.9-7.8 1-.3 2-1.6 2.2-2.8.2-1.4 1.1-2.3 2.6-2.5 1.2-.2 2.3-.6 2.3-1 .5-2.7.4-6.4-.3-6.8-1.4-.9-.9-2.2 1.2-2.7 2.2-.6 4.4-5.2 3.6-7.4-.4-1-1.1-1.1-2.3-.5-1 .5-2.4.7-3 .5-.7-.3-1.3.3-1.3 1.2 0 1-.7 1.5-1.7 1.3-1.4-.2-1.9-1.7-2.4-5.8-.3-3-.9-6.7-1.3-8.3-.7-2.3-.5-2.7 1.2-2.7 3.5 0 9-11.8 6.3-13.5-.6-.3-1.1-1.3-1.1-2.2 0-1.3.2-1.3 1.7-.2 1.5 1.3 1.5 1.1-.1-1.9-1.2-2.4-2.2-3.1-3.5-2.7-1 .3-2.9-.3-4.3-1.4-3.2-2.6-12.3-16-13.7-20.4-.7-1.9-2.3-4.5-3.6-5.7-1.6-1.5-2.5-3.5-2.5-5.2 0-1.6-.5-3.9-1.2-5.1-1.9-3.7-9-11.7-10.3-11.7-1.2 0-2.5-2.1-2.5-4.1 0-.5.7-.9 1.5-.9 1.3 0 1.4-.4.5-2.1-.7-1.1-.9-3.1-.6-4.4.4-1.4.1-2.5-.8-2.8-.7-.3-1.3-2-1.4-3.8 0-1.8-.9-4.1-2-5.1-1.9-1.9-1.9-1.9-2.6 1.2-.4 2.2-1 3-2 2.7-.9-.4-1.6.4-2 2.3-.7 3.6-4.1 5.7-6.2 3.9-1.7-1.4-1.6-1.5-3.6 3.1-.9 1.9-1.6 6.1-1.5 9.3 0 5.5-.2 6.1-3.7 9.1-3 2.7-3.6 4-3.8 7.5-.1 2.5-.7 4.5-1.5 4.8-.7.3-1.3 1.1-1.3 1.9 0 .7-.9 1.8-1.9 2.4-1.1.5-2.1 2-2.3 3.1-.5 3.3-3.3 4.7-5.9 3.1-1.7-1.1-2.3-1.1-2.9-.2-.5.8-1.8 1-3.7.6-2.3-.5-3.2-.3-3.7 1-.5 1.4-1.5 1.5-5.5 1-3.5-.5-5-.3-5.3.6-.3.9-1.6.6-4.6-.9-2.3-1.1-3.9-1.6-3.5-1 .6 1-1.3.7-4.9-.8-1.2-.5-1.8-.3-1.8.6-.1 2.1-7 6.1-9.6 5.6-1.3-.2-2.5.2-2.8.9-.7 1.9-7 1-10.1-1.4-2.2-1.7-3.1-1.9-4.7-1.1-1.1.6-3.1.8-4.4.5-1.7-.5-2.4-.2-2.4.8 0 1.9-2 3.2-2.9 1.9-.3-.6-1.8-1.3-3.3-1.6-1.5-.4-2.9-1.5-3.2-2.5-.4-1.1-2.4-2.3-5-3-3.3-.8-4.6-1.8-5.5-4-1-2.3-1.7-2.8-3.7-2.4-1.6.3-2.4 0-2.5-.9 0-.8-.4-.4-1 .9-.6 1.5-1.3 2.1-2.1 1.5-.7-.4-2.2-.8-3.3-.9-1.1-.1-2.8-.5-3.7-.9-1.2-.5-1.8-.3-1.8.6 0 .7-1.4 2.8-3.1 4.5-2.7 2.8-3.5 3.1-5.4 2.2-1.7-.7-3.3-.7-5.6.1-1.7.6-4.7 1.1-6.5 1.1-2.3 0-3.4.5-3.4 1.4 0 2.3-1.5 2.7-5.1 1.3-3.6-1.5-17-1.6-27.1-.2-4.1.5-5.8.4-5.8-.4 0-.7-1.9-1.1-4.8-1.1-3.5 0-5.4-.5-6.6-1.9-2.7-3-7.1-4.5-9.4-3.2-2.7 1.4-6.8 1.3-11.4-.3-2.2-.8-3.6-.9-3.5-.3.6 2.7-2.4 1.2-5.6-2.9-2.1-2.6-3.7-4.2-3.7-3.5 0 1.7-12.8-5.3-17.2-9.5-2.1-2-3.8-4.2-3.8-4.9 0-.7-1.8-2.9-4-4.9-2.2-2-4-4.2-4-4.9 0-.8-.9-2.2-2-3.2-1.2-1-1.8-2.5-1.5-3.3.3-.8 0-2.1-.6-2.8-.8-1-.8-1.4-.1-1.4 1.5 0-.7-5.2-3.6-8.5-1.2-1.4-2.2-3-2.2-3.6 0-.7-.8-1.8-1.7-2.5-2.3-1.7-.6-3.6 2.5-2.8 2.3.7 2.9 1.9 1.2 2.9-1.4.9-.2 2.5 1.3 1.9 1.8-.6 1.1-8.3-.8-10.4-1.9-2.1-2.1-10.5-.2-9.4.8.5.8.2-.2-.9-.7-.9-1.9-1.7-2.6-1.7-.7 0-1.6-.7-1.9-1.6-.7-1.8 1-5.4 2.5-5.4.7 0 .9-1.2.7-3-.4-2.4-.1-3 1.4-3 2 0 2.5 2.6.6 3.3-1 .3-1 .7 0 2 1.1 1.3 1.8 1.4 3.8.5 1.3-.6 2.4-1.5 2.4-1.9 0-.4.9-.5 2-.2 1.4.4 2 0 2-1 0-.8.3-2.2.6-3 .8-2.2-2.1-2.8-5.5-1.1-2.7 1.4-3.3 1.3-5.5-.1-1.4-.9-2.8-2.5-3.1-3.6-.4-1-1-1.9-1.5-1.9s-1.1-1.3-1.5-2.9c-.3-1.6-1.2-3.2-1.9-3.4-1.3-.5-1.4-6.5-.2-9.7.6-1.4-3.9-9.5-7.9-14.5-3.8-4.7-4.6-7.5-2-7.5 1.8 0 4.8-4.4 4.3-6.2-.3-.7-3.3-1.7-6.9-2.3-5.5-.9-6.6-1.4-7.7-3.8-.7-1.5-2-2.7-2.9-2.7-.9 0-3-1-4.7-2.3-1.7-1.3-5.8-2.9-9.1-3.7-3.3-.7-7.5-2.5-9.3-3.9-5.6-4.3-10.2-9.4-10.2-11.2 0-2.9-1.1-4.9-2.9-4.9-.9 0-4.2-2.5-7.3-5.4-3.2-3-6.8-5.6-8-5.8-1.4-.2-2.4-1.1-2.6-2.3-.3-2.1-4.2-5.4-4.2-3.5 0 .5-1.1 1-2.5 1-1.9 0-2.8-.8-3.9-3.5-.8-1.9-2.2-3.8-3.1-4.1-2.4-1-7.5 1.6-7.5 3.8 0 2.1-3.2 3.8-3.8 2-.2-.7-.8-.9-1.3-.6-1.2.7-4.9-2.4-4.9-4.1 0-.7-1-1.5-2.2-1.9-3.1-.8-3.6-.8-4.2.3zm109.4 388.1c0 .5-.2 1-.4 1-.3 0-.8-.5-1.1-1-.3-.6-.1-1 .4-1 .6 0 1.1.4 1.1 1zm80.5 5c-.3.5-1.3 1-2.1 1s-1.2-.5-.9-1c.3-.6 1.3-1 2.1-1s1.2.4.9 1zm4.8 2c-.3 1.1-1.2 2-1.9 2-1.6 0-1.6-.2-.8-2.4.9-2.4 3.3-2 2.7.4zm227.8 57.3c-1.3 1.3-2.6.3-1.6-1.2.3-.6 1.1-.8 1.7-.5.6.4.6 1-.1 1.7zm2.3 8.9c-.7 1.1-3.2 1-3.9-.2-1.1-1.8.5-3 2.5-1.8 1 .7 1.6 1.6 1.4 2zm-5.4 3.8c-.4.3-1 1.7-1.4 3.2-.4 1.9-1.3 2.8-2.7 2.8-2.3 0-2.1-1.9.9-7.7 1.6-3.1 1.6-3.1 2.7-1 .6 1.2.8 2.4.5 2.7zm28 105.6c0 1.6-.2 1.6-2.4.8-1.2-.5-1.3-.9-.3-1.9 1.4-1.5 2.7-1 2.7 1.1zm70 119.4c0 .5-.2 1-.4 1-.3 0-.8-.5-1.1-1-.3-.6-.1-1 .4-1 .6 0 1.1.4 1.1 1zm-323 90c0 .5-.6 1-1.4 1-.8 0-1.8-.5-2.1-1-.3-.6.3-1 1.4-1 1.2 0 2.1.4 2.1 1z"/><path d="M356.621 39.4c0 1.4-.4 2.8-1 3.1-1.8 1.1-1.1 5.4 1 6.5 1.3.7 2 2.1 2 4 0 1.6.6 3.5 1.4 4.3 2.4 2.4 5.6 8.1 5.6 10.1 0 1.8-1 1.9-5.2.1-2.3-.9-2.4 2.4-.2 6.6.8 1.6 1.2 3.8.9 4.8-.4 1.3.1 2 1.5 2.4 1.1.3 2 1.3 2 2.4 0 1.2 1.2 2.3 3.3 3.1 2.6 1 2.9 1.4 1.7 2.2-1.3.8-1.2 1.2.8 2.5 1.2.9 2 2.1 1.7 2.6-.4.5-.2.9.4.9.5 0 1.8.3 2.8.6 1.6.6 1.6.5-.1-.8-1.9-1.5-1.9-1.6.3-2.3 1.5-.4 2.8-.1 4 .9 2.4 2.2 4 2 3.4-.4-.4-1.4-1.1-1.9-2.3-1.5-1.9.6-4.5-1.9-3.6-3.4.8-1.2-2.4-5.1-4.1-5.1-.7 0-1.3-.7-1.3-1.6 0-.9-.5-1.2-1.1-.8-.7.4-1 .1-.7-.7.3-.8 1.4-1.3 2.4-1.1 1.8.2 2-.3 1.8-4.8-.2-3.7-.9-5.8-2.7-8-2.8-3.3-2.6-6.3.4-9.3 1.1-1 1.9-3.1 1.9-4.7 0-2.5-.4-3-2.5-3-3 0-5.9-4-5-7 .7-2.1.6-2.2-3.9-2.4-1.6-.1-3.1-.7-3.4-1.4-.7-2.1-2.2-1.3-2.2 1.2zM668.621 174.8c0 1.3 3.1 5.2 4.1 5.2.5 0 .3-1.4-.6-3-1.4-2.8-3.5-4.1-3.5-2.2zM154.121 186c.3.5.8 1 1.1 1 .2 0 .4-.5.4-1 0-.6-.5-1-1.1-1-.5 0-.7.4-.4 1zM688.621 367.9c0 .5.5 1.3 1 1.6.6.3 1 .2 1-.4 0-.5-.4-1.3-1-1.6-.5-.3-1-.2-1 .4zM736.021 517.5c-1 2-.8 2.4 1.2 3.4 1.3.6 2.4 1.7 2.4 2.6 0 .8.9 1.5 2 1.5s2-.7 2-1.5.7-1.5 1.6-1.5c1.1 0 1.4-.6.9-2.3-1-3-2.6-4.6-3.2-3-.6 1.7-2.3 1.6-4.2-.1-1.4-1.3-1.7-1.2-2.7.9zM732.821 518c0 1.4.2 1.9.5 1.2.2-.6.2-1.8 0-2.5-.3-.6-.5-.1-.5 1.3zM744.921 527.1c-.7 1.7-1.6 2.8-2.1 2.5-.5-.3-.9.7-.9 2.2 0 2.7.1 2.8 3.4 1.7 2.2-.6 3.6-1.8 4-3.3.3-1.2 1.3-2.7 2.2-3.2 1.3-.8 1.2-.9-.9-1-1.5 0-3-.4-3.6-1-.6-.6-1.4.1-2.1 2.1zM729.021 546.5c.4 2.4 1.6 3 1.6.7 0-1.2-.4-2.2-.9-2.2s-.8.7-.7 1.5zM711.321 601c-.3 1.1-.1 2 .4 2s.9-.2.9-.4.3-1.1.6-2c.3-.9.2-1.6-.4-1.6-.5 0-1.2.9-1.5 2zM630.021 819.5c.6 1.4 1.7 2.5 2.4 2.5 2 0 1.4-1.6-1.2-3.3-2.3-1.6-2.3-1.5-1.2.8zM479.721 833.3c-1.5 3.8-1.4 4 1.4 5.4 2.3 1 2.5.9 2.5-1-.1-1.2-.7-3.3-1.5-4.7l-1.3-2.5-1.1 2.8zM489.121 839.9c-.3.5-.1 1.2.5 1.6.5.3 1-.1 1-.9 0-1.8-.6-2.1-1.5-.7zM886.621 883c0 .5.5 1 1.1 1 .5 0 .7-.5.4-1-.3-.6-.8-1-1.1-1-.2 0-.4.4-.4 1zM881.621 888.4c0 .9-.5 1.6-1.2 1.6-.6 0-.3.9.7 2 1.7 1.9 2 1.9 3.4.5 1.2-1.1 1.3-2 .5-3.2-1.4-2.3-3.4-2.8-3.4-.9zM1036.621 981.4c0 .2.7.7 1.6 1 .8.3 1.2.2.9-.4-.6-1-2.5-1.4-2.5-.6zM619.621 983.1c0 .5-.8 1.3-1.7 1.6-2.6 1-6.3 4-5.7 4.6.3.3 1.3.3 2.2 0 1-.4 1.3-.2.8.5-.4.7-1.4 1.2-2.2 1.2-1.6 0-1.9 1.6-.4 2.5.6.4.9 1.8.8 3.2-.2 1.4.2 2.8.8 3 .7.2 1-.5.7-2.1-.4-2.1-.2-2.4 1.7-1.9 2 .5 2.2.3 1.8-1.9-.5-2.7.6-4.7 3.7-6.4 2.8-1.5 2.8-2.8 0-4.1-1.4-.6-2.5-.7-2.5-.2zM607.421 984.7c.7.3 1.6.2 1.9-.1.4-.3-.2-.6-1.3-.5-1.1 0-1.4.3-.6.6zM662.621 992c-1.9 1.6-4 3-4.6 3-.7 0-1.5.7-1.8 1.6-.4 1-1.3 1.4-2.8 1-1.3-.3-1.7-.3-1 0 1.7.8-1.5 3.3-4.1 3.4-1.1 0-1.7.5-1.4 1.2.2.7-.4 2.4-1.3 3.8-1.2 1.6-1.6 3.6-1.3 5.3.6 3.3 2.1 4.4 2.9 2.3.4-1 1.8-1.6 3.8-1.6 2.2 0 4-.9 6.1-3.1 1.6-1.8 3.1-2.7 3.3-2 .5 1.4 2.4 1.4 5.6 0 2.3-1.1 2.3-1.3 1-4.5-1.8-4.3-1.8-5.4.2-5.4.9 0 2.9-1.1 4.5-2.5l3-2.4-3.7-1.6c-4.6-1.9-4.3-2-8.4 1.5zM679.221 989.8c-.3.5.1.9.9.9s1.2-.4.9-.9c-.3-.4-.7-.8-.9-.8-.2 0-.6.4-.9.8zM625.421 997.7c.7.3 1.6.2 1.9-.1.4-.3-.2-.6-1.3-.5-1.1 0-1.4.3-.6.6zM609.121 1001c-.3.5.1 1 .9 1 .9 0 1.6-.5 1.6-1 0-.6-.4-1-.9-1-.6 0-1.3.4-1.6 1zM605.621 1001.9c0 .5-.3 1.8-.6 2.8-.5 1.6-.4 1.6 1-.1 1.8-2.3 2-3.6.6-3.6-.5 0-1 .4-1 .9zM632.621 1001.4c0 .3.9 1 2 1.6 1.1.6 2 .8 2 .6 0-.3-.9-1-2-1.6-1.1-.6-2-.8-2-.6zM593.321 1009.7c1.4 1.3 3 1.9 4.3 1.6 3-.8 2.4-2.6-.7-2-1.6.3-3.5 0-4.3-.6-.9-.7-.6-.2.7 1zM601.421 1007.7c.7.3 1.6.2 1.9-.1.4-.3-.2-.6-1.3-.5-1.1 0-1.4.3-.6.6z"/></g></svg>