<?xml version="1.0" standalone="no"?>
<!DOCTYPE svg PUBLIC "-//W3C//DTD SVG 20010904//EN"
 "http://www.w3.org/TR/2001/REC-SVG-20010904/DTD/svg10.dtd">
<svg version="1.0" xmlns="http://www.w3.org/2000/svg"
 width="613.859618pt" height="845.643609pt" viewBox="0 0 613.859618 845.643609"
 preserveAspectRatio="xMidYMid meet">
<metadata>
Created by potrace 1.15, written by Peter Selinger 2001-2017
</metadata>
<g transform="translate(-700.000000,1403.000000) scale(0.100000,-0.100000)"
fill="#222222" stroke="none">
<path d="M7144 14014 c3 -9 6 -18 6 -21 0 -3 7 0 15 7 21 18 19 30 -6 30 -15
0 -19 -4 -15 -16z"/>
<path d="M7140 13955 c4 -33 1 -40 -21 -63 -11 -12 -18 -26 -14 -31 9 -16 -6
-41 -26 -41 -13 0 -19 -7 -19 -21 0 -11 -4 -17 -10 -14 -17 11 -11 -16 10 -42
11 -14 20 -32 20 -39 0 -17 -37 -37 -53 -29 -6 4 -3 -1 7 -9 11 -9 26 -16 33
-16 8 0 12 -13 11 -35 -1 -42 -5 -44 -18 -10 -10 26 -30 34 -30 12 0 -21 39
-97 50 -97 6 0 10 -9 10 -20 0 -13 7 -20 19 -20 11 0 23 -5 26 -10 4 -6 15
-10 24 -8 20 3 51 -19 51 -36 0 -22 63 -36 131 -30 52 5 67 3 78 -10 9 -10 10
-16 2 -16 -6 0 -11 -4 -11 -10 0 -21 20 -9 26 16 6 22 11 25 33 19 14 -3 42
-18 61 -33 46 -36 88 -54 110 -47 10 3 22 0 27 -8 9 -15 74 -47 96 -47 8 0 17
-7 21 -15 3 -8 14 -15 24 -15 10 0 22 -3 26 -7 4 -5 12 -9 17 -9 5 -1 13 -2
19 -3 17 -2 49 -76 40 -91 -5 -8 -5 -19 -1 -25 11 -13 -5 -54 -24 -61 -8 -4
-15 -15 -15 -26 0 -10 4 -17 9 -13 6 3 15 -4 21 -16 10 -17 8 -28 -6 -55 -15
-28 -22 -32 -45 -27 -36 7 -47 -13 -20 -38 12 -11 21 -26 21 -34 0 -9 10 -15
25 -15 14 0 25 -4 25 -9 0 -15 59 -21 85 -9 14 6 25 17 25 25 0 7 11 13 25 13
14 0 36 7 49 16 23 14 25 14 40 -8 10 -15 12 -26 6 -32 -15 -15 -13 -22 18
-58 35 -40 46 -68 29 -68 -7 0 -18 5 -25 12 -16 16 -20 9 -24 -45 -2 -26 -6
-47 -10 -47 -5 0 -8 -13 -8 -29 0 -16 -7 -34 -15 -41 -11 -9 -13 -16 -5 -24
14 -14 12 -26 -5 -26 -9 0 -12 -6 -9 -15 5 -11 -3 -17 -26 -21 -17 -4 -34 -13
-37 -20 -3 -8 -11 -14 -19 -14 -7 0 -38 -10 -67 -22 -52 -21 -54 -23 -63 -74
-5 -29 -7 -61 -4 -70 8 -21 -14 -69 -47 -104 -21 -23 -21 -25 -6 -43 9 -10 17
-36 18 -57 1 -50 42 -112 57 -86 6 10 22 16 44 16 32 0 71 14 84 29 5 6 44 29
97 57 17 9 37 28 44 41 7 13 26 32 41 41 15 9 28 24 28 34 0 9 5 20 10 23 6 4
8 15 5 24 -6 20 25 96 47 114 19 16 42 117 29 130 -13 13 3 43 41 79 20 18 28
34 24 46 -4 13 -1 18 13 18 11 0 17 -4 14 -9 -3 -5 4 -6 16 -2 17 5 21 2 21
-15 0 -13 -4 -19 -11 -14 -8 5 -10 -6 -8 -33 4 -34 2 -39 -13 -35 -10 2 -18
-1 -18 -6 0 -6 -9 -20 -20 -30 -23 -21 -26 -88 -4 -96 14 -6 23 -51 13 -67 -4
-7 -3 -21 2 -30 7 -14 4 -19 -11 -24 -15 -5 -19 -12 -15 -25 4 -13 0 -20 -15
-25 -22 -7 -25 -21 -10 -61 8 -20 7 -37 -3 -63 -16 -40 -8 -151 12 -175 6 -7
9 -15 6 -18 -3 -3 4 -13 15 -23 11 -10 20 -24 20 -31 0 -7 8 -29 17 -48 15
-33 15 -37 0 -54 -19 -21 -13 -32 15 -32 14 0 18 -8 18 -31 0 -22 -4 -30 -14
-26 -9 4 -13 -3 -12 -24 1 -19 5 -27 14 -24 26 10 11 -39 -23 -70 -28 -27 -31
-34 -18 -39 9 -4 13 -9 10 -12 -3 -3 2 -26 10 -50 11 -34 12 -48 3 -58 -8 -11
-8 -19 1 -34 7 -12 9 -33 5 -56 -6 -31 -11 -37 -27 -33 -13 4 -19 0 -19 -12 0
-9 -4 -21 -10 -27 -6 -6 0 -22 19 -44 21 -26 28 -44 26 -72 -1 -38 -19 -68
-40 -68 -7 0 -29 -16 -50 -35 -29 -28 -36 -41 -31 -60 3 -13 2 -27 -4 -30 -16
-10 -11 -39 8 -52 10 -6 27 -33 37 -59 20 -54 29 -64 63 -64 17 0 24 -7 28
-28 3 -16 17 -34 34 -44 16 -9 36 -33 44 -52 15 -35 52 -54 39 -19 -5 12 -3
14 8 8 34 -19 59 -50 59 -72 0 -22 42 -73 60 -73 4 0 10 -14 14 -31 4 -19 24
-48 51 -74 37 -34 45 -48 45 -77 0 -31 6 -38 51 -68 28 -18 53 -39 56 -46 3
-8 11 -14 18 -14 7 0 15 -7 19 -15 9 -23 56 -19 56 5 0 18 2 18 33 5 25 -11
32 -19 30 -39 -1 -18 3 -26 14 -26 9 0 13 6 9 15 -3 9 0 15 10 15 35 0 81 -79
64 -110 -9 -17 -6 -24 15 -44 14 -13 30 -38 36 -55 8 -23 17 -31 35 -31 13 0
23 -5 21 -12 -1 -6 14 -15 34 -18 20 -4 46 -16 59 -28 22 -20 25 -31 29 -112
1 -22 4 -30 9 -22 5 7 16 10 24 7 9 -4 19 -2 22 4 10 15 46 -10 46 -31 0 -10
6 -18 13 -18 6 0 24 -12 40 -25 21 -18 27 -33 27 -63 0 -25 8 -49 21 -66 11
-14 18 -26 14 -26 -3 0 1 -13 10 -30 14 -27 14 -33 0 -67 l-16 -37 24 22 c13
12 32 22 43 22 31 0 75 24 69 38 -2 6 0 12 6 12 6 0 8 4 4 9 -3 6 4 15 15 21
36 19 23 60 -28 85 -44 22 -46 35 -5 35 19 0 23 5 23 30 0 23 5 30 19 30 10 0
40 11 66 26 26 14 54 23 61 20 10 -4 14 3 14 20 0 16 7 28 18 31 13 3 17 12
15 36 -3 28 0 34 34 50 24 12 39 15 41 8 2 -6 8 -11 13 -11 6 0 7 5 3 11 -4 7
-1 10 7 7 8 -2 20 -17 27 -31 14 -28 27 -34 37 -17 12 19 22 10 34 -31 10 -34
10 -43 -1 -50 -8 -6 -9 -9 -1 -9 16 0 141 -128 155 -160 7 -16 25 -32 45 -39
18 -7 39 -18 45 -25 7 -7 26 -16 41 -20 20 -5 27 -3 27 9 0 9 9 15 25 15 19 0
25 5 25 21 0 18 2 19 15 9 8 -7 15 -23 15 -36 0 -28 15 -31 37 -8 9 8 22 13
29 10 9 -3 15 9 20 40 3 24 11 44 16 44 6 0 8 7 5 15 -4 8 -2 17 4 21 14 8 49
-25 49 -46 0 -10 16 -40 35 -68 19 -28 37 -62 41 -76 5 -22 3 -26 -15 -26 -17
0 -19 -4 -12 -22 4 -13 7 -28 5 -33 -2 -6 10 -16 28 -24 23 -11 33 -11 36 -3
4 12 34 16 45 6 3 -3 1 -20 -5 -36 -9 -26 -8 -33 6 -44 15 -10 16 -16 6 -34
-7 -13 -9 -35 -6 -51 3 -18 1 -31 -8 -36 -7 -4 -19 -21 -27 -38 -11 -24 -21
-30 -48 -31 -19 -1 -40 -9 -46 -18 -7 -9 -19 -14 -29 -10 -10 4 -16 1 -16 -8
0 -45 -96 -66 -124 -27 -14 20 -16 20 -31 5 -9 -9 -13 -20 -10 -26 6 -9 -14
-14 -41 -11 -7 1 -15 -23 -19 -59 -5 -43 -11 -60 -22 -60 -8 0 -20 -13 -26
-29 -15 -41 -66 -63 -126 -55 -43 6 -49 4 -54 -15 -5 -19 -8 -20 -34 -10 -26
10 -31 8 -63 -28 -19 -22 -50 -45 -69 -51 -19 -7 -55 -26 -81 -42 -26 -16 -61
-33 -78 -36 -26 -5 -31 -10 -27 -28 5 -17 -2 -24 -40 -40 -25 -10 -52 -15 -61
-12 -10 4 -22 -1 -30 -11 -11 -15 -16 -16 -33 -5 -18 10 -21 10 -21 -4 0 -9
-12 -29 -27 -43 -18 -17 -27 -34 -25 -49 2 -13 -3 -25 -12 -28 -25 -10 -22
-81 4 -89 11 -4 18 -10 15 -14 -2 -5 4 -16 15 -26 11 -10 20 -28 20 -40 0 -24
-37 -55 -65 -55 -8 0 -15 -9 -15 -20 0 -11 3 -19 8 -18 18 5 91 -13 101 -26 6
-7 22 -11 36 -8 28 5 31 -4 10 -32 -8 -11 -15 -28 -15 -39 0 -10 -9 -21 -20
-24 -49 -13 45 -61 110 -56 68 5 70 5 70 20 0 20 37 15 65 -9 18 -15 23 -28
19 -44 -5 -18 1 -26 28 -40 40 -20 113 -84 96 -84 -6 0 -4 -8 6 -19 14 -15 16
-29 10 -69 -6 -48 -5 -50 14 -45 11 2 23 16 27 30 4 18 9 23 17 15 14 -14 68
5 68 25 0 12 8 14 33 10 18 -2 44 2 60 10 20 10 32 11 47 3 14 -7 20 -7 20 0
0 17 26 11 45 -10 10 -11 24 -20 30 -20 7 0 16 -15 19 -32 3 -18 8 -42 11 -53
15 -63 21 -115 13 -129 -5 -9 -6 -21 -2 -27 3 -6 0 -16 -7 -21 -10 -7 -9 -8 6
-4 15 4 23 -1 33 -23 7 -15 9 -36 6 -46 -5 -12 -4 -16 3 -12 17 10 24 -21 10
-43 -6 -11 -20 -20 -31 -20 -14 0 -17 -5 -13 -22 8 -28 -53 -90 -86 -88 -39 4
-44 0 -40 -23 4 -18 0 -23 -17 -24 -30 -3 -35 -10 -20 -28 11 -13 10 -15 -6
-9 -18 5 -18 5 1 -10 17 -14 20 -15 25 -2 3 9 10 12 18 7 17 -11 -12 -81 -34
-81 -13 0 -14 -3 -4 -15 6 -8 8 -20 4 -26 -5 -8 -3 -9 5 -5 7 5 21 0 32 -10
20 -18 26 -44 10 -44 -5 0 -7 -9 -4 -20 4 -15 0 -20 -16 -20 -23 0 -26 -11
-10 -41 8 -16 7 -30 -5 -58 -8 -21 -12 -48 -9 -59 8 -34 -25 -57 -87 -59 -65
-3 -103 12 -94 39 7 22 -27 26 -45 4 -7 -9 -31 -13 -69 -12 l-59 2 29 -43 c16
-23 38 -49 49 -56 12 -9 21 -31 25 -63 4 -27 13 -59 20 -71 8 -12 11 -29 8
-37 -3 -9 -2 -16 4 -16 15 0 25 -71 13 -83 -20 -20 -13 -102 11 -133 12 -15
23 -33 24 -39 1 -6 31 -40 68 -76 57 -57 66 -70 66 -102 0 -20 7 -54 16 -74
18 -44 84 -105 84 -79 0 19 47 19 71 -1 8 -7 26 -11 39 -8 13 2 30 -1 38 -7
10 -9 15 -9 21 1 18 28 119 -54 107 -86 -3 -8 2 -16 12 -19 9 -3 24 -9 33 -14
9 -4 22 -4 30 0 7 5 18 5 25 -1 17 -14 90 0 110 22 19 21 46 24 75 9 14 -8 19
-7 19 1 0 7 10 9 29 6 20 -4 31 -2 35 8 3 10 20 15 46 15 35 0 42 -4 64 -39
29 -45 56 -57 88 -39 13 7 27 11 32 10 5 -2 5 5 1 15 -4 10 -9 44 -11 76 -2
50 0 57 16 57 24 0 55 55 51 90 -2 13 -10 29 -19 36 -13 9 -11 12 11 18 15 3
27 13 27 22 0 8 -4 13 -9 10 -5 -3 -14 0 -20 8 -7 8 -8 16 -3 18 15 6 41 102
29 110 -6 4 -17 2 -24 -3 -17 -15 -33 -2 -33 28 0 17 -4 23 -13 20 -7 -3 -24
4 -38 14 -19 14 -20 19 -7 19 9 0 28 -4 42 -10 21 -8 26 -6 26 6 0 8 7 17 15
20 8 4 15 16 15 29 0 18 4 21 25 17 21 -4 25 -1 25 20 0 13 5 29 12 36 9 9 9
15 0 24 -17 17 -15 25 8 31 24 6 25 24 6 95 -8 28 -12 52 -10 52 2 0 -10 13
-28 30 l-33 29 31 1 c39 0 94 45 94 77 0 15 7 24 23 27 109 23 114 24 126 3 9
-14 16 -16 24 -8 12 12 38 15 35 4 -1 -5 4 -21 10 -36 7 -16 12 -32 12 -35 0
-4 7 -18 16 -31 l17 -23 24 51 c14 28 31 51 38 51 8 0 11 7 8 20 -3 12 0 20 6
20 7 0 9 5 5 11 -4 8 -9 8 -17 0 -19 -19 -32 -12 -49 24 -16 36 -14 41 11 26
18 -11 41 -3 41 15 0 7 8 19 19 26 11 8 18 24 17 38 -1 16 7 30 22 40 31 19
60 103 54 154 -3 25 0 41 8 46 11 7 10 17 -3 52 -11 27 -14 56 -11 79 7 39
-17 89 -41 89 -20 0 -24 49 -9 93 8 22 14 55 14 74 0 20 4 32 10 28 6 -3 10 1
10 10 0 9 -21 37 -46 61 -25 25 -44 50 -42 57 2 7 23 21 46 32 25 12 41 27 42
38 0 9 5 17 11 17 7 0 9 10 5 25 -4 14 -2 34 4 45 9 16 8 20 -5 20 -8 0 -14 3
-13 8 5 17 -28 52 -51 52 -21 0 -23 3 -17 31 7 34 27 59 49 59 10 0 13 7 10
20 -3 11 -1 20 5 20 6 0 10 14 10 30 -1 43 8 47 40 18 15 -14 35 -28 45 -31 9
-4 17 -12 17 -19 1 -21 84 -68 120 -68 34 0 60 19 60 45 0 22 25 46 43 40 7
-3 26 -1 40 4 15 6 27 8 27 5 0 -9 -22 -49 -31 -54 -4 -3 -1 -14 7 -24 13 -18
15 -18 32 -2 14 12 25 14 43 8 36 -14 59 4 49 38 -13 45 -30 70 -48 71 -10 0
-12 3 -4 6 6 2 9 10 5 16 -4 6 0 8 10 4 25 -9 21 8 -5 22 -13 7 -33 26 -46 42
-19 23 -20 29 -8 29 9 0 16 7 16 16 0 11 6 13 19 9 22 -7 49 29 31 40 -14 9
-1 28 15 21 20 -7 23 2 15 37 -4 18 -4 41 0 52 4 11 3 26 -2 33 -7 8 -7 12 0
12 5 0 8 9 5 21 -4 16 -8 17 -14 7 -6 -10 -11 -10 -21 0 -17 17 -23 15 -36
-13 -14 -30 -26 -31 -58 -6 l-25 20 21 11 c12 6 28 9 36 6 8 -3 30 1 49 8 18
8 46 16 62 17 35 4 93 -19 93 -37 0 -7 17 -18 38 -23 49 -14 52 -14 52 5 0 12
6 15 23 10 14 -3 33 1 45 10 12 8 27 12 32 9 6 -3 10 1 10 9 0 9 7 16 15 16
13 0 14 4 5 20 -9 17 -6 25 20 50 16 16 29 35 28 42 -2 7 7 17 20 23 17 7 22
16 19 32 -2 12 -1 26 2 30 14 21 73 54 86 49 9 -3 12 0 9 8 -10 26 50 15 81
-15 23 -21 40 -28 65 -27 19 0 44 -2 55 -5 24 -8 56 9 39 21 -6 4 -15 21 -18
38 -4 17 -17 37 -29 43 -28 15 -67 86 -70 127 l-2 31 -37 -13 c-32 -11 -44
-10 -90 6 -42 15 -53 23 -55 42 0 13 -2 25 -3 28 -8 23 -9 60 0 65 20 13 9 34
-27 52 -35 17 -38 21 -36 58 3 37 -2 46 -42 85 -35 34 -42 47 -33 57 8 11 5
20 -15 41 -15 16 -27 40 -27 54 0 20 -8 29 -32 39 -35 13 -78 45 -131 93 -22
20 -43 30 -64 30 -23 0 -33 5 -33 15 0 11 -5 9 -16 -7 -16 -23 -34 -29 -34
-12 0 6 7 10 15 10 8 0 15 9 15 21 0 15 5 19 19 14 26 -8 38 39 16 61 -11 12
-12 20 -5 35 9 16 5 26 -22 58 -21 25 -35 35 -40 28 -4 -6 -4 -16 0 -22 12
-18 8 -65 -5 -65 -7 0 -13 -4 -13 -9 0 -4 -11 -6 -25 -3 -20 3 -25 10 -25 32
0 16 -7 30 -16 34 -21 8 -22 8 -21 -6 1 -40 -4 -50 -21 -46 -10 3 -27 -1 -37
-8 -14 -11 -22 -11 -32 -2 -18 14 -36 -7 -29 -35 2 -9 -3 -21 -11 -26 -11 -5
-14 -17 -11 -35 4 -18 1 -26 -8 -26 -8 0 -14 -5 -14 -11 0 -7 -10 -9 -25 -5
-14 4 -25 2 -25 -4 0 -5 0 -13 -1 -17 0 -12 -48 -35 -58 -28 -5 3 -11 -1 -13
-7 -3 -9 -16 -3 -39 17 -32 28 -35 35 -37 93 -2 55 0 65 23 88 14 14 25 35 25
46 0 12 9 32 21 44 l21 22 -25 17 c-14 9 -28 27 -31 41 -4 13 -14 24 -22 24
-12 0 -15 6 -10 24 7 27 -15 51 -48 51 -19 0 -22 8 -29 70 -4 43 -3 81 3 99 8
22 7 33 -3 45 -7 9 -19 29 -27 45 -14 27 -13 29 13 48 32 24 34 46 11 171 -15
81 -15 89 0 106 9 10 16 22 16 28 0 6 5 13 11 15 9 3 9 9 1 25 -6 11 -9 35 -6
54 9 53 -9 85 -49 93 -19 3 -42 15 -52 26 -10 11 -26 20 -36 20 -11 0 -24 9
-31 20 -7 11 -22 20 -34 20 -12 0 -25 7 -28 15 -3 9 -11 15 -18 13 -7 -1 -23
3 -35 10 -15 8 -23 9 -23 2 0 -5 -22 13 -50 42 -27 28 -50 54 -50 56 0 2 -11
13 -25 24 -14 11 -25 24 -25 31 0 6 -9 30 -21 54 -17 35 -19 46 -9 58 14 17
14 17 -20 20 -15 2 -32 -6 -42 -17 -12 -14 -25 -19 -40 -15 -17 5 -31 -2 -55
-25 -18 -18 -33 -37 -33 -44 0 -6 -16 -24 -36 -39 -31 -24 -44 -27 -106 -27
-38 1 -76 6 -84 13 -9 7 -14 8 -14 1 0 -6 -8 -9 -17 -8 -16 3 -21 17 -26 76
-1 14 -12 29 -24 35 -20 10 -21 13 -7 26 13 13 13 20 -1 58 -8 24 -15 52 -15
62 0 11 -5 19 -10 19 -6 0 -15 11 -20 25 -5 14 -29 38 -54 53 -24 15 -51 39
-59 55 -9 15 -25 27 -37 27 -11 0 -20 5 -20 10 0 6 4 10 9 10 4 0 6 11 3 25
-5 26 -62 78 -99 89 -14 4 -20 12 -16 21 3 9 -9 31 -26 50 -17 20 -31 41 -31
48 0 7 -12 13 -27 14 -24 1 -47 20 -56 46 -1 5 -23 10 -47 9 -34 0 -49 5 -63
22 -13 16 -16 17 -11 4 8 -23 -14 -24 -30 -2 -7 9 -33 17 -66 20 -29 3 -61 9
-69 13 -9 5 -22 6 -28 4 -16 -6 -77 31 -100 61 -10 12 -25 23 -33 23 -27 1
-43 8 -64 27 -13 13 -21 16 -24 8 -5 -17 -27 -15 -43 4 -10 12 -10 17 0 23 9
6 7 10 -8 14 -11 2 -22 0 -23 -5 -7 -20 -59 -11 -76 13 -9 13 -14 25 -12 27 3
2 -3 8 -12 13 -10 5 -20 26 -24 45 -4 20 -20 49 -36 66 -16 16 -31 43 -35 59
-6 33 -7 33 -34 19 -15 -8 -21 -7 -25 4 -3 8 -23 17 -45 21 -23 4 -43 14 -49
25 -6 10 -19 22 -30 25 -11 3 -20 11 -20 16 0 14 30 11 31 -3 0 -7 5 -1 10 14
12 31 -10 73 -42 83 -10 4 -24 16 -30 27 -8 16 -17 19 -40 14 -15 -3 -31 -1
-34 4 -3 6 -15 10 -27 10 -16 0 -18 3 -9 14 7 8 9 25 5 40 -6 27 -20 34 -26
15 -2 -6 -13 -3 -28 9 l-25 21 30 0 c54 2 65 4 65 14 0 6 20 7 48 4 55 -6 110
18 119 54 7 25 11 24 35 -6 11 -14 25 -25 33 -25 7 0 20 -11 28 -24 16 -24 57
-42 57 -25 0 6 9 5 21 -1 22 -12 79 -4 79 11 0 5 7 9 15 9 22 0 21 89 -2 105
-15 11 -15 13 4 19 14 5 21 15 20 29 0 12 0 50 1 85 2 48 5 62 17 62 26 0 17
44 -15 75 -16 15 -27 32 -24 37 3 4 0 8 -7 8 -9 0 -9 3 0 14 8 10 9 16 1 21
-16 10 -12 21 15 33 22 10 27 9 32 -5 4 -9 1 -19 -5 -21 -7 -2 -12 -8 -12 -14
0 -6 7 -8 15 -5 8 4 17 2 20 -3 3 -6 15 -15 25 -20 16 -8 18 -7 14 4 -3 8 -12
17 -19 20 -11 4 -10 12 6 43 10 20 19 51 19 68 l1 30 19 -23 c14 -17 25 -22
40 -17 14 5 20 2 20 -9 0 -9 -6 -16 -12 -17 -7 0 0 -5 16 -9 31 -10 68 2 47
14 -6 4 -11 12 -11 17 0 6 5 7 12 3 6 -4 8 -3 5 3 -4 6 -23 14 -43 17 -28 6
-33 10 -24 21 7 8 7 15 1 19 -5 4 -12 2 -16 -4 -11 -19 -44 -10 -78 20 -19 17
-42 30 -50 30 -9 0 -28 5 -42 12 -19 9 -28 9 -37 0 -7 -7 -30 -12 -53 -12 -31
0 -43 5 -54 22 l-14 22 -18 -22 c-15 -19 -24 -21 -57 -16 -29 4 -43 13 -51 30
-6 13 -14 24 -19 24 -4 0 -9 14 -10 32 -3 37 -20 61 -39 54 -7 -3 -13 1 -13 9
0 8 -3 14 -7 13 -23 -4 -93 45 -93 65 0 27 -102 76 -159 77 -20 0 -22 -3 -13
-12 7 -7 12 -20 12 -30 0 -10 6 -18 13 -18 8 0 19 -11 25 -25 6 -14 7 -25 3
-25 -32 0 15 -125 67 -177 27 -28 29 -60 2 -68 -11 -3 -20 -11 -20 -16 0 -5
-7 -9 -15 -9 -8 0 -12 6 -9 14 6 15 -36 16 -69 1 -10 -4 -29 -3 -41 3 -19 8
-26 7 -37 -9 -8 -12 -22 -18 -32 -15 -9 2 -21 -2 -25 -10 -7 -12 -14 -13 -35
-5 -15 6 -27 15 -27 20 0 14 -33 23 -40 10 -6 -8 -9 -8 -14 0 -4 6 -3 11 3 11
7 0 7 8 1 24 -5 15 -5 37 0 57 7 25 6 39 -5 56 -9 14 -13 33 -9 48 5 19 2 25
-11 25 -11 0 -15 5 -12 14 3 8 -1 20 -9 27 -10 8 -12 15 -4 23 17 17 11 43
-12 58 -18 12 -22 25 -23 61 0 36 -4 47 -16 47 -9 0 -28 11 -43 25 -30 27 -67
50 -78 47 -4 -1 -20 12 -36 28 -26 25 -36 29 -83 28 -30 -1 -57 -6 -61 -12 -4
-7 -9 -5 -13 5 -4 11 -14 14 -32 11 -19 -4 -30 1 -43 18 l-18 24 5 -27 c4 -22
0 -30 -26 -44 -19 -11 -35 -30 -40 -48 -8 -31 -12 -32 -74 -20 -31 6 -36 5
-32 -8 4 -10 -2 -17 -20 -21 -19 -5 -25 -11 -21 -23 6 -14 3 -13 -20 2 -24 16
-27 16 -45 0 -15 -14 -16 -22 -7 -38 8 -16 7 -23 -7 -33 -9 -7 -14 -18 -10
-24 4 -6 1 -18 -6 -26 -10 -12 -15 -12 -28 -1 -25 20 -61 34 -120 48 -42 9
-55 9 -61 -1 -6 -10 -15 -10 -38 -2 -17 6 -33 8 -36 5 -3 -3 -13 0 -23 8 -11
9 -14 10 -9 2 12 -21 -9 -15 -30 8 -22 24 -75 53 -117 63 -40 9 -97 -3 -97
-21 0 -9 -6 -13 -15 -9 -9 3 -24 -3 -35 -14 -16 -16 -23 -17 -44 -7 -28 13
-52 63 -34 69 17 6 0 28 -21 28 -25 0 -41 20 -41 52 0 16 -7 42 -15 58 -10 20
-11 30 -3 32 8 3 8 9 0 25 -6 11 -9 36 -6 55 5 29 1 41 -25 70 -23 26 -27 38
-19 46 9 9 8 16 -6 30 -17 16 -18 16 -16 -3z m-50 -405 c0 -5 -4 -10 -9 -10
-6 0 -13 5 -16 10 -3 6 1 10 9 10 9 0 16 -4 16 -10z m756 -170 c8 0 14 -4 14
-10 0 -5 18 -10 39 -10 39 0 39 -1 37 -35 -2 -21 1 -32 7 -28 5 3 8 0 5 -8 -6
-18 -56 -19 -62 -2 -3 7 -1 13 4 13 5 0 7 7 4 15 -4 8 -10 12 -16 9 -5 -3 -17
1 -26 9 -9 8 -29 17 -44 21 -19 4 -28 13 -28 25 0 11 -3 28 -7 38 -5 14 1 11
26 -9 18 -16 39 -28 47 -28z m-116 -45 c0 -8 -2 -15 -4 -15 -2 0 -6 7 -10 15
-3 8 -1 15 4 15 6 0 10 -7 10 -15z m2104 -260 c3 -8 1 -15 -3 -15 -5 0 -11 7
-15 15 -3 8 -1 15 3 15 5 0 11 -7 15 -15z m-1654 -123 c12 -43 2 -56 -50 -67
-31 -7 -33 -6 -21 8 11 14 10 20 -3 39 -24 34 -21 50 9 42 19 -5 25 -2 25 10
0 29 29 5 40 -32z m337 -274 c-3 -8 -6 -5 -6 6 -1 11 2 17 5 13 3 -3 4 -12 1
-19z m543 -2553 c0 -19 -11 -19 -36 0 -18 14 -18 14 9 15 17 0 27 -5 27 -15z
m525 -543 c11 -9 26 -25 34 -35 12 -15 11 -17 -17 -17 -20 0 -31 6 -35 18 -2
9 -8 25 -12 35 -9 22 4 21 30 -1z m2289 -132 c31 -11 34 -30 6 -30 -10 0 -24
9 -30 20 -12 23 -11 24 24 10z m854 -575 c7 -14 12 -28 12 -30 0 -11 -25 -4
-42 12 -15 14 -19 14 -16 3 2 -8 -4 -15 -12 -15 -24 0 -23 31 2 43 35 16 44
14 56 -13z"/>
<path d="M7000 13652 c0 -11 4 -23 8 -26 10 -6 9 30 -1 40 -4 4 -7 -2 -7 -14z"/>
<path d="M8070 13651 c0 -7 -4 -9 -10 -6 -6 3 -7 -1 -4 -9 3 -9 12 -16 19 -16
7 0 15 -6 18 -12 2 -7 8 -10 12 -6 4 4 -2 19 -14 34 -11 15 -21 21 -21 15z"/>
<path d="M9830 12892 c0 -5 7 -15 15 -22 8 -7 15 -8 15 -2 0 5 -7 15 -15 22
-8 7 -15 8 -15 2z"/>
<path d="M9886 12806 c4 -11 2 -21 -7 -26 -7 -5 -11 -11 -9 -14 3 -2 14 2 25
10 18 14 18 15 2 32 -17 16 -18 16 -11 -2z"/>
<path d="M9888 12738 c5 -5 16 -8 23 -6 8 3 3 7 -10 11 -17 4 -21 3 -13 -5z"/>
<path d="M9824 12716 c-8 -22 11 -49 35 -51 12 -1 21 2 21 8 0 5 10 18 23 28
l22 20 -32 -6 c-18 -4 -34 -2 -38 4 -9 15 -25 14 -31 -3z"/>
<path d="M9460 12430 c0 -5 7 -10 15 -10 8 0 15 5 15 10 0 6 -7 10 -15 10 -8
0 -15 -4 -15 -10z"/>
<path d="M9360 12392 c0 -21 36 -46 46 -31 6 11 -23 49 -38 49 -4 0 -8 -8 -8
-18z"/>
<path d="M9447 12383 c-12 -12 -7 -22 8 -17 8 4 15 10 15 15 0 11 -14 12 -23
2z"/>
<path d="M7870 11915 c-1 -5 -3 -23 -5 -39 -2 -16 0 -37 5 -45 5 -9 10 -11 10
-6 1 6 3 23 5 39 2 16 0 37 -5 45 -5 9 -10 12 -10 6z"/>
<path d="M7880 11776 c0 -9 -8 -16 -17 -16 -13 0 -14 -3 -5 -12 16 -16 15 -28
-1 -28 -7 0 -18 -5 -25 -12 -9 -9 -5 -17 14 -35 40 -37 50 -29 44 35 -1 12 3
22 9 22 14 0 8 53 -7 58 -6 2 -12 -3 -12 -12z"/>
<path d="M8220 10682 c0 -22 -4 -43 -9 -46 -13 -9 -1 -46 15 -46 8 0 14 -7 14
-16 0 -13 3 -14 15 -4 8 7 12 17 8 23 -4 6 0 8 11 4 14 -5 16 -3 11 12 -7 23
4 52 19 50 28 -3 46 2 46 14 0 7 -18 13 -47 15 -26 1 -55 10 -65 19 -17 15
-18 14 -18 -25z"/>
<path d="M8185 10649 c-4 -6 -5 -12 -2 -15 2 -3 7 2 10 11 7 17 1 20 -8 4z"/>
<path d="M9980 9755 c0 -8 4 -15 10 -15 5 0 7 7 4 15 -4 8 -8 15 -10 15 -2 0
-4 -7 -4 -15z"/>
<path d="M12385 8060 c-3 -5 1 -10 10 -10 9 0 13 5 10 10 -3 6 -8 10 -10 10
-2 0 -7 -4 -10 -10z"/>
<path d="M12356 8043 c-6 -14 -5 -15 5 -6 7 7 10 15 7 18 -3 3 -9 -2 -12 -12z"/>
<path d="M9419 8030 c-15 -16 -15 -19 1 -32 15 -14 19 -13 36 8 10 13 26 24
34 25 8 0 4 5 -10 9 -36 12 -43 10 -61 -10z"/>
<path d="M9360 7973 c0 -5 5 -25 11 -42 10 -28 9 -37 -11 -63 -26 -35 -21 -59
10 -51 13 4 26 0 31 -8 6 -10 9 -10 9 -1 0 6 -1 14 -2 17 -2 2 6 10 16 18 17
13 18 17 5 45 -8 18 -17 32 -21 32 -5 0 -8 6 -8 13 0 8 -9 22 -20 32 -11 10
-20 14 -20 8z m40 -128 c0 -8 -2 -15 -4 -15 -2 0 -6 7 -10 15 -3 8 -1 15 4 15
6 0 10 -7 10 -15z"/>
<path d="M12370 7962 c0 -16 22 -30 41 -25 18 5 17 7 -7 19 -31 16 -34 17 -34
6z"/>
<path d="M12195 7840 c3 -5 13 -10 21 -10 8 0 14 5 14 10 0 6 -9 10 -21 10
-11 0 -17 -4 -14 -10z"/>
<path d="M12082 7818 c-29 -18 -32 -22 -17 -30 11 -7 22 -5 34 6 10 9 24 16
32 16 8 0 23 7 33 15 19 14 18 15 -15 15 -19 0 -49 -10 -67 -22z"/>
<path d="M9921 7544 c-6 -14 -11 -33 -11 -43 0 -10 -6 -24 -14 -30 -8 -7 -12
-20 -9 -30 11 -42 -42 -35 -59 8 -6 14 -12 21 -14 15 -7 -16 -72 7 -77 27 -6
21 -50 29 -72 13 -17 -13 -17 -15 -2 -32 9 -10 17 -23 17 -29 0 -6 10 -23 22
-39 13 -15 23 -42 24 -59 1 -16 6 -49 12 -72 8 -39 0 -61 -11 -30 -3 9 -9 9
-23 1 -25 -15 -28 -29 -9 -48 9 -9 14 -24 11 -33 -6 -18 6 -45 18 -44 27 4 38
-4 53 -39 20 -46 33 -51 33 -15 0 22 3 24 19 15 26 -14 26 -14 57 15 35 33 80
31 77 -2 -2 -19 0 -20 27 -10 28 11 28 11 9 28 -21 18 -28 99 -8 99 5 0 8 3 6
8 -3 4 1 13 9 19 8 8 15 9 19 3 3 -6 15 -10 26 -10 15 0 19 7 19 35 0 23 6 37
18 44 14 7 17 18 14 45 -3 25 0 36 9 36 19 0 -2 19 -26 23 -35 5 -45 17 -39
43 6 24 4 26 -40 28 -11 1 -21 7 -24 15 -3 10 0 12 12 8 19 -7 76 18 76 33 0
5 -17 9 -37 8 -21 -1 -52 4 -69 9 -29 10 -33 9 -43 -13z"/>
<path d="M10066 7492 c-3 -6 -1 -14 5 -17 15 -10 25 3 12 16 -7 7 -13 7 -17 1z"/>
<path d="M10173 6659 c-6 -6 -8 -19 -6 -30 4 -15 8 -17 19 -8 16 13 18 35 6
43 -5 3 -13 1 -19 -5z"/>
<path d="M11761 6654 c0 -11 3 -14 6 -6 3 7 2 16 -1 19 -3 4 -6 -2 -5 -13z"/>
<path d="M12320 6535 c0 -13 -4 -14 -21 -5 -17 10 -21 8 -26 -10 -4 -17 -12
-21 -29 -17 -13 2 -24 0 -24 -4 0 -5 -9 -9 -19 -9 -11 0 -23 -4 -26 -10 -9
-15 -66 -12 -84 4 -26 22 -61 30 -61 13 0 -18 -43 -47 -69 -47 -13 0 -19 -5
-15 -14 3 -9 -9 -22 -33 -36 -35 -19 -38 -24 -35 -58 3 -32 -1 -40 -27 -57
-16 -10 -29 -24 -28 -29 1 -5 -22 -15 -51 -22 -29 -7 -61 -19 -70 -27 -9 -8
-23 -12 -29 -10 -7 3 -13 0 -13 -7 0 -6 -5 -8 -11 -4 -8 4 -8 9 0 17 16 16 14
25 -7 31 -24 8 -92 -20 -92 -38 0 -25 -38 -49 -68 -43 -16 3 -34 1 -39 -4 -6
-6 -14 -5 -22 5 -11 13 -15 12 -32 -5 -23 -23 -24 -42 -7 -126 10 -54 16 -64
40 -74 24 -10 32 -9 49 7 20 18 21 18 38 -5 13 -17 19 -20 23 -10 3 8 23 20
44 28 45 16 53 26 54 61 1 24 1 24 14 -5 7 -16 25 -43 40 -58 25 -27 37 -87
17 -87 -14 0 -18 -42 -7 -67 10 -25 53 -32 73 -12 17 17 83 2 83 -18 0 -10 6
-13 16 -9 13 5 15 1 12 -19 -7 -37 5 -38 37 -5 22 23 28 40 29 73 1 39 5 47
39 72 31 22 37 32 33 50 -3 12 1 36 9 53 15 30 47 43 103 42 22 0 30 14 13 24
-5 3 -7 16 -4 27 6 20 7 21 19 5 11 -16 13 -16 26 -1 38 46 41 47 80 41 23 -4
46 -1 57 6 16 9 27 8 59 -6 29 -13 51 -16 81 -11 29 5 47 3 57 -6 35 -29 52
-14 45 39 -1 6 3 12 9 12 6 0 8 10 6 23 -8 41 -17 56 -33 50 -8 -3 -19 0 -25
8 -8 11 -9 10 -4 -3 4 -15 -1 -18 -29 -18 -23 0 -35 5 -35 14 0 8 -6 16 -12
19 -19 7 -60 -11 -53 -23 10 -17 -14 -39 -35 -33 -26 7 -26 33 0 40 11 3 20
11 20 18 0 7 6 16 13 18 7 3 5 6 -5 6 -21 1 -25 37 -5 44 9 3 9 7 -1 19 -7 9
-9 19 -4 22 5 3 9 19 10 36 0 16 4 40 7 51 4 12 3 19 -2 16 -5 -3 -13 -3 -18
1 -17 12 -36 52 -30 62 4 6 1 10 -4 10 -6 0 -11 -7 -11 -15z m-204 -442 c-7
-7 -26 7 -26 19 0 6 6 6 15 -2 9 -7 13 -15 11 -17z"/>
</g>
</svg>
