<?xml version="1.0" standalone="no"?>
<!DOCTYPE svg PUBLIC "-//W3C//DTD SVG 20010904//EN"
 "http://www.w3.org/TR/2001/REC-SVG-20010904/DTD/svg10.dtd">
<svg version="1.0" xmlns="http://www.w3.org/2000/svg"
 width="738.117327pt" height="377.727415pt" viewBox="0 0 738.117327 377.727415"
 preserveAspectRatio="xMidYMid meet">
<metadata>
Created by potrace 1.15, written by Peter Selinger 2001-2017
</metadata>
<g transform="translate(-643.674499,1186.727415) scale(0.100000,-0.100000)"
fill="#222222" stroke="none">
<path d="M9377 11847 c4 -18 11 -26 21 -25 9 2 18 -4 20 -13 2 -12 -4 -16 -22
-14 -14 2 -30 6 -36 10 -9 5 -10 1 -5 -14 4 -15 2 -21 -9 -21 -8 0 -18 5 -22
12 -5 7 -3 8 6 3 10 -6 12 -4 7 9 -4 10 -7 20 -7 22 0 2 -4 4 -9 4 -5 0 -8 -7
-7 -16 2 -24 -21 -29 -28 -7 -7 20 -46 49 -46 33 0 -5 -7 -10 -15 -10 -8 0
-15 -5 -15 -11 0 -6 -7 -9 -15 -5 -8 3 -21 -4 -29 -15 -12 -17 -18 -19 -35
-10 -41 23 -87 -40 -63 -86 10 -19 0 -48 -32 -96 -13 -19 -17 -36 -12 -59 3
-17 1 -36 -4 -43 -7 -9 -7 -21 0 -40 8 -22 7 -31 -5 -45 -8 -9 -15 -28 -15
-43 0 -14 -4 -29 -10 -32 -5 -3 -10 -17 -10 -30 0 -15 -7 -26 -19 -30 -21 -6
-29 -33 -33 -102 -1 -24 -8 -45 -15 -47 -7 -3 -13 -11 -13 -18 0 -10 -20 -13
-73 -12 -39 1 -76 -2 -82 -6 -5 -4 -29 -11 -52 -15 -27 -4 -43 -12 -43 -21 0
-8 -9 -14 -20 -14 -14 0 -20 -7 -20 -24 0 -13 -7 -29 -15 -36 -8 -7 -15 -19
-15 -26 0 -8 -9 -14 -20 -14 -13 0 -17 -5 -14 -14 4 -9 -2 -16 -17 -18 -14 -2
-30 -17 -43 -43 -11 -22 -26 -46 -33 -53 -17 -18 -17 -25 8 -66 l21 -36 -23
-20 c-13 -11 -34 -19 -46 -20 -13 0 -23 -4 -23 -10 0 -5 -7 -10 -16 -10 -14 0
-14 -3 -4 -15 9 -11 10 -19 2 -27 -7 -7 -17 -4 -34 12 -22 21 -59 40 -78 40
-4 0 -10 -13 -12 -30 -3 -16 -1 -30 4 -30 5 0 8 -10 6 -22 -2 -17 -10 -23 -29
-23 -19 1 -25 -4 -21 -13 3 -8 -2 -19 -12 -24 -9 -5 -14 -13 -11 -19 4 -5 -2
-9 -12 -10 -10 0 -13 -3 -6 -6 9 -3 8 -11 -4 -29 -20 -32 -47 -46 -103 -55
-50 -8 -93 6 -69 22 12 8 11 11 -3 20 -22 13 -23 29 -2 29 11 0 14 5 9 18 -4
9 -10 26 -13 37 -2 11 -11 27 -18 35 -20 24 -35 70 -23 70 8 0 7 5 -1 15 -10
12 -10 15 4 15 20 0 21 23 2 40 -8 6 -12 18 -9 26 3 9 -2 14 -15 14 -11 0 -26
7 -33 16 -36 43 -129 81 -186 75 -11 -1 -24 2 -27 7 -3 5 -20 6 -38 3 -21 -5
-41 -3 -53 5 -32 20 -101 22 -90 3 4 -6 -3 -22 -16 -35 -19 -20 -32 -25 -64
-22 l-40 3 1 -42 c0 -30 -3 -43 -13 -43 -7 0 -13 -6 -13 -14 0 -20 -38 -30
-55 -16 -12 10 -16 9 -21 -4 -9 -22 -47 -20 -69 4 -13 15 -31 20 -65 20 -34 0
-52 5 -65 20 -14 16 -20 17 -27 8 -5 -9 -10 -10 -15 -2 -11 15 -43 25 -43 13
0 -6 -8 -5 -22 2 -16 8 -23 9 -26 1 -2 -6 -10 -8 -18 -5 -8 3 -14 -1 -14 -11
0 -8 -13 -22 -28 -30 -41 -21 -57 -43 -43 -59 13 -17 -27 -76 -47 -69 -7 2
-11 -2 -10 -9 2 -7 -4 -13 -12 -14 -8 0 -16 -9 -18 -20 -2 -11 -9 -26 -15 -33
-9 -11 -13 -11 -24 4 -12 16 -13 16 -13 1 0 -9 -4 -17 -10 -17 -5 0 -10 -6
-10 -13 0 -20 -43 -37 -63 -25 -13 7 -25 4 -46 -11 -19 -14 -47 -21 -81 -22
l-53 -2 28 -23 c17 -13 26 -28 22 -37 -3 -9 4 -19 19 -26 15 -6 24 -18 23 -29
-3 -27 11 -52 31 -52 9 0 28 -17 42 -37 59 -90 78 -123 84 -147 3 -14 12 -27
20 -27 29 -3 33 -4 46 -16 6 -7 17 -13 23 -13 7 0 27 -19 45 -42 24 -29 28
-39 16 -35 -17 7 -18 3 -12 -50 11 -91 8 -126 -12 -143 -23 -19 -19 -85 7
-113 15 -17 14 -20 -3 -32 -27 -20 -17 -49 19 -52 50 -4 75 -13 75 -27 0 -7
15 -16 33 -20 62 -12 135 -48 146 -72 6 -13 15 -24 21 -24 6 0 8 -4 5 -10 -7
-11 11 -48 34 -71 17 -16 61 -43 71 -44 3 0 16 -10 29 -22 17 -16 22 -28 18
-45 -5 -17 -1 -27 13 -36 11 -7 20 -21 20 -31 0 -11 12 -29 28 -41 15 -12 27
-25 27 -29 0 -20 42 -81 55 -81 9 0 34 -18 55 -40 35 -36 76 -56 59 -29 -3 6
8 3 25 -5 36 -19 44 -52 10 -43 -12 3 -31 0 -43 -8 -13 -9 -27 -11 -35 -6 -9
6 -26 2 -47 -9 -17 -10 -42 -16 -53 -13 -12 3 -27 1 -34 -5 -7 -6 -23 -8 -36
-5 l-23 6 18 -28 c24 -37 28 -64 9 -71 -8 -4 -15 -14 -15 -24 0 -36 -34 -96
-53 -92 -9 2 -20 -3 -23 -12 -3 -9 -18 -22 -33 -29 -23 -11 -29 -11 -40 0 -16
17 -28 9 -13 -9 5 -7 15 -33 22 -56 9 -36 9 -47 -3 -60 -30 -34 -30 -62 -2
-88 14 -13 39 -31 54 -39 28 -14 28 -16 18 -59 l-10 -45 -30 21 c-21 15 -32
18 -35 10 -2 -8 -10 -7 -28 4 -24 16 -24 16 -24 -14 0 -17 6 -32 15 -36 8 -3
20 -17 25 -31 5 -14 21 -30 36 -35 21 -8 31 -6 54 12 15 13 31 31 33 42 4 13
12 17 26 13 12 -3 27 3 37 14 11 12 31 19 55 19 21 0 40 4 43 8 5 9 200 7 214
-2 5 -3 12 3 15 14 3 13 14 20 29 20 13 0 29 9 36 21 13 20 14 20 32 4 13 -11
28 -15 43 -11 16 3 29 1 36 -8 17 -21 61 -29 78 -15 11 10 16 10 22 1 5 -8 16
-3 37 17 21 21 38 29 57 27 20 -2 37 6 59 26 25 23 38 28 59 24 18 -3 32 0 40
10 7 9 23 20 36 25 13 5 23 16 23 25 0 30 167 207 188 199 6 -2 12 0 12 5 0 4
36 7 79 6 92 -4 95 -1 85 75 -4 31 -3 49 4 49 5 0 12 9 15 20 3 11 13 20 22
20 13 0 16 6 11 25 -4 14 -2 25 3 25 12 0 41 -29 41 -41 0 -11 53 -12 64 -1 4
4 13 7 19 7 14 0 10 34 -6 55 -16 20 -37 58 -37 66 0 4 9 -1 20 -11 14 -13 23
-15 32 -7 9 7 37 6 92 -4 74 -13 80 -12 103 6 13 10 36 21 51 25 15 3 35 18
44 32 l16 26 28 -29 c15 -16 24 -24 20 -17 -5 9 4 11 34 7 22 -3 48 0 58 5 14
7 25 6 41 -6 21 -14 24 -14 43 5 19 18 22 19 51 4 17 -9 47 -16 67 -17 34 -1
35 0 35 36 0 21 -5 43 -12 50 -9 9 -5 16 20 28 29 14 32 20 29 54 -4 46 11 48
56 8 28 -26 31 -33 22 -55 -11 -29 -4 -56 14 -56 12 0 57 28 67 42 7 11 78
-18 106 -44 17 -16 31 -20 62 -15 49 6 130 -9 145 -27 6 -8 35 -19 65 -25 30
-7 60 -16 67 -22 9 -7 16 -4 26 9 7 11 23 22 36 26 12 4 22 12 22 17 0 5 11 2
25 -7 14 -9 23 -19 21 -23 -2 -3 19 -4 47 -2 31 2 55 9 60 17 6 10 13 11 27 4
17 -9 19 -5 26 36 4 31 10 44 20 40 7 -3 14 0 17 7 2 7 11 12 19 12 9 0 33 16
54 35 63 57 87 70 102 54 7 -8 30 -14 51 -14 27 0 44 -7 61 -25 13 -14 32 -25
43 -25 10 0 48 -20 84 -45 76 -54 135 -78 182 -77 19 0 42 -3 52 -8 12 -7 21
-5 29 5 8 9 21 13 31 10 13 -4 19 -1 19 8 0 10 14 17 43 20 94 12 202 41 217
60 14 16 19 17 43 6 23 -10 38 -10 73 -1 25 7 51 9 57 5 14 -9 31 -13 74 -18
18 -2 37 -6 44 -10 6 -4 15 -2 19 5 5 8 15 10 26 6 36 -15 104 -15 104 0 0 19
20 28 33 15 21 -21 34 -12 29 19 -3 23 0 30 12 30 9 0 22 11 28 25 7 16 17 24
27 21 64 -19 69 -19 85 13 10 18 16 55 16 95 0 55 3 67 20 76 11 6 20 19 20
29 0 10 7 24 15 31 8 7 15 27 15 45 0 18 7 38 15 45 9 7 13 21 10 31 -4 11 -2
19 4 19 6 0 11 11 11 25 0 21 5 25 28 25 20 0 35 9 50 30 13 17 28 30 35 30 8
0 20 15 28 33 9 21 21 32 36 33 12 1 20 -2 18 -6 -5 -9 38 -40 55 -40 6 0 8 5
5 10 -3 6 -1 10 5 10 6 0 8 5 4 11 -3 6 8 3 25 -5 29 -15 32 -15 51 4 11 11
31 20 45 20 27 0 32 9 14 27 -9 9 -3 11 22 8 19 -3 41 -14 51 -25 9 -11 21
-20 27 -20 6 0 11 -7 11 -15 0 -8 -9 -15 -20 -15 -20 0 -29 -33 -11 -44 12 -8
54 41 46 54 -4 6 -1 17 5 25 10 12 9 16 -3 21 -9 3 -21 3 -27 -1 -6 -4 -10 4
-10 20 0 22 4 26 18 21 15 -5 15 -5 1 6 -8 7 -18 22 -21 33 -3 11 -9 28 -13
38 -5 11 -3 17 6 17 9 0 15 13 16 34 2 41 -26 54 -64 29 -22 -15 -26 -15 -41
0 -13 13 -13 20 -4 29 7 7 12 20 12 30 0 13 8 18 25 18 14 0 25 4 25 8 0 5 6
9 13 9 22 0 77 45 77 63 0 10 20 26 50 40 28 13 50 25 50 28 0 2 -9 17 -21 33
-11 16 -17 29 -12 29 4 0 15 12 24 28 21 36 8 83 -32 116 l-30 26 25 10 c32
12 32 17 1 71 -14 24 -25 59 -25 78 0 29 -3 33 -23 29 -19 -4 -28 3 -45 34
-25 43 -80 78 -92 58 -5 -9 -9 -9 -14 -1 -4 6 -18 11 -31 11 -32 0 -65 44 -65
86 0 23 -6 37 -20 44 -11 6 -20 17 -20 24 0 25 -44 53 -89 55 -26 1 -54 10
-69 22 -18 14 -34 18 -54 14 -21 -5 -30 -2 -34 10 -5 13 -8 14 -15 3 -12 -19
-45 4 -42 30 2 15 -5 21 -29 26 -23 5 -28 9 -20 19 8 9 7 24 -2 51 -18 51 -39
63 -68 36 -12 -11 -16 -20 -9 -20 8 0 10 -7 6 -20 -5 -14 -2 -20 9 -20 22 0
20 -22 -5 -43 -16 -14 -24 -15 -34 -7 -9 8 -20 8 -31 2 -9 -5 -25 -7 -35 -5
-13 4 -20 -2 -24 -18 -9 -33 -75 -63 -121 -55 -26 5 -36 3 -40 -9 -4 -9 -13
-14 -20 -11 -8 3 -14 0 -14 -6 0 -9 -3 -9 -12 0 -7 7 -22 12 -35 12 -13 0 -26
6 -29 14 -4 11 -19 13 -62 9 -31 -3 -98 -6 -148 -7 -76 -1 -95 2 -112 17 -19
17 -22 17 -51 2 -17 -8 -31 -22 -31 -29 0 -20 -26 -27 -72 -20 -28 5 -42 3
-48 -6 -7 -11 -14 -12 -35 -2 -23 11 -29 10 -39 -4 -10 -13 -24 -15 -72 -10
-96 9 -155 6 -166 -9 -5 -7 -14 -6 -28 3 -11 6 -31 12 -45 12 -15 0 -24 4 -21
9 9 14 -17 71 -34 73 -8 0 -27 0 -42 -1 -17 -1 -41 8 -61 23 -19 14 -37 23
-40 20 -8 -8 -73 22 -83 38 -4 6 0 16 9 23 12 9 17 27 17 64 0 47 -3 53 -34
73 -23 15 -42 40 -57 77 -12 30 -37 71 -54 90 -31 35 -40 57 -52 128 -6 40
-19 50 -63 55 -31 3 -35 7 -38 33 -2 16 -7 32 -10 35 -4 3 -12 14 -18 25 -11
20 -84 40 -84 24 0 -5 -9 -13 -20 -19 -22 -12 -90 6 -137 37 -19 13 -28 14
-31 5 -2 -6 -14 -12 -27 -12 -13 0 -25 -3 -27 -7 -1 -5 -19 -16 -39 -26 -41
-21 -72 -14 -106 27 -22 25 -63 36 -63 16 0 -5 -16 0 -35 11 -19 11 -42 18
-52 15 -25 -8 -74 38 -99 91 -10 24 -25 43 -33 43 -8 0 -19 8 -26 17 -12 15
-12 14 -8 -10z m-1087 -1237 c0 -5 -7 -10 -16 -10 -8 0 -12 5 -9 10 3 6 10 10
16 10 5 0 9 -4 9 -10z m35 -71 c6 -19 0 -38 -9 -28 -10 12 -16 49 -7 49 5 0
13 -9 16 -21z m4265 -614 c0 -8 -9 -15 -20 -15 -22 0 -27 15 -7 23 21 9 27 7
27 -8z m-3292 -484 c1 -1 3 0 5 2 8 6 38 -34 32 -43 -3 -5 2 -11 12 -11 17 -1
17 -2 1 -6 -21 -5 -24 -19 -5 -26 9 -3 8 -9 -5 -22 -16 -17 -18 -17 -52 5
l-36 22 22 18 23 19 -30 26 -30 26 30 -5 c17 -2 31 -5 33 -5z m-43 -51 c3 -5
1 -10 -4 -10 -6 0 -11 5 -11 10 0 6 2 10 4 10 3 0 8 -4 11 -10z m-1965 -1080
c0 -5 -4 -10 -9 -10 -6 0 -13 5 -16 10 -3 6 1 10 9 10 9 0 16 -4 16 -10z"/>
<path d="M11940 11019 c0 -5 5 -7 10 -4 6 3 10 8 10 11 0 2 -4 4 -10 4 -5 0
-10 -5 -10 -11z"/>
<path d="M13280 10239 c0 -6 -9 -9 -20 -6 -11 3 -20 1 -20 -3 0 -18 -31 -39
-52 -35 -12 3 -36 -4 -53 -15 -18 -11 -40 -17 -53 -13 -31 8 -110 -20 -173
-62 -39 -26 -56 -32 -66 -24 -9 8 -14 7 -19 -5 -3 -9 -29 -23 -56 -31 -28 -8
-59 -25 -70 -37 -19 -23 -19 -23 1 -37 12 -7 21 -19 21 -27 0 -8 12 -12 33
-12 50 0 137 -34 137 -54 0 -10 7 -18 15 -18 8 0 15 -5 15 -10 0 -6 12 -9 27
-7 18 2 32 14 44 36 l17 32 23 -33 c13 -18 36 -44 51 -56 16 -13 28 -30 28
-38 0 -8 5 -14 10 -14 16 0 12 18 -10 38 -18 17 -18 20 -4 40 l15 22 39 -21
c36 -20 39 -21 61 -5 13 9 30 16 39 16 21 0 80 55 80 75 0 9 4 14 9 11 15 -9
61 33 54 50 -8 20 41 10 80 -18 23 -16 37 -18 85 -12 33 3 66 14 77 24 11 10
46 28 78 40 43 16 57 26 53 37 -5 12 -1 14 21 8 22 -5 25 -4 16 6 -6 6 -9 17
-7 24 3 7 -8 22 -24 34 -36 25 -82 28 -82 5 0 -12 -6 -15 -22 -10 -13 3 -59
11 -103 17 -44 7 -87 18 -96 26 -8 7 -24 13 -33 13 -10 0 -27 11 -37 24 -19
24 -28 26 -62 11 -10 -4 -27 -1 -42 9 -16 10 -25 12 -25 5z"/>
<path d="M7250 8850 c0 -5 7 -10 16 -10 8 0 12 5 9 10 -3 6 -10 10 -16 10 -5
0 -9 -4 -9 -10z"/>
<path d="M7145 8100 c-3 -5 3 -10 14 -10 12 0 21 5 21 10 0 6 -6 10 -14 10 -8
0 -18 -4 -21 -10z"/>
</g>
</svg>
