<?xml version="1.0" standalone="no"?>
<!DOCTYPE svg PUBLIC "-//W3C//DTD SVG 20010904//EN"
 "http://www.w3.org/TR/2001/REC-SVG-20010904/DTD/svg10.dtd">
<svg version="1.0" xmlns="http://www.w3.org/2000/svg"
 width="441.181301pt" height="763.471597pt" viewBox="0 0 441.181301 763.471597"
 preserveAspectRatio="xMidYMid meet">
<metadata>
Created by potrace 1.15, written by Peter Selinger 2001-2017
</metadata>
<g transform="translate(-719.462948,1363.471597) scale(0.100000,-0.100000)"
fill="#222222" stroke="none">
<path d="M8093 13624 c-3 -8 -12 -14 -20 -14 -8 0 -24 -11 -35 -25 -16 -20
-27 -25 -54 -22 -19 2 -40 11 -47 20 -6 9 -28 19 -48 22 -36 7 -36 6 -51 -39
-21 -62 -6 -76 51 -46 25 12 41 16 41 9 0 -6 7 -9 15 -5 15 5 20 -19 15 -68
-1 -13 3 -17 14 -13 34 13 77 -99 45 -119 -6 -3 -9 -15 -6 -25 3 -10 1 -22 -4
-25 -5 -3 -9 -12 -9 -20 0 -23 67 -18 80 6 7 13 21 20 38 20 21 0 31 -8 45
-39 9 -20 17 -47 17 -59 0 -15 10 -27 28 -35 15 -6 30 -16 33 -20 9 -13 46 9
60 35 17 32 18 87 2 133 -11 29 -28 50 -65 75 -56 38 -93 81 -86 100 3 9 9 8
21 -4 9 -10 17 -12 17 -6 0 8 6 8 20 0 35 -19 80 -19 80 -1 1 14 2 13 11 -2 9
-15 13 -16 26 -6 10 9 17 9 21 2 4 -6 18 -14 31 -18 23 -7 23 -10 18 -75 -5
-64 -4 -71 23 -108 27 -37 27 -41 13 -62 -9 -12 -12 -25 -7 -29 5 -3 22 -23
37 -43 15 -21 37 -38 47 -38 11 0 26 -12 34 -29 21 -40 44 -47 56 -15 12 30
32 27 40 -6 5 -20 12 -23 63 -25 l57 -3 -7 27 c-5 23 -4 24 9 13 9 -7 19 -24
22 -37 4 -16 11 -22 21 -19 8 4 15 1 15 -6 0 -15 22 -34 73 -60 20 -11 37 -25
37 -30 0 -14 37 -50 44 -43 3 4 9 -8 12 -25 4 -19 14 -32 28 -36 21 -6 21 -7
-5 -29 -15 -12 -30 -33 -34 -47 -13 -42 -55 -120 -65 -120 -5 0 -17 12 -27 26
-15 23 -18 24 -28 10 -15 -20 -39 -20 -70 0 -22 14 -25 15 -25 1 0 -18 -46
-57 -68 -57 -9 0 -23 -7 -32 -15 -15 -13 -23 -13 -71 4 -75 25 -140 36 -148
23 -4 -6 -22 -7 -49 -2 -26 4 -42 4 -42 -2 0 -6 -7 -7 -16 -4 -11 4 -14 1 -12
-12 1 -9 -1 -19 -6 -22 -6 -3 -11 11 -12 30 -1 19 -7 49 -15 67 -11 26 -11 34
1 48 9 11 14 47 14 111 1 90 -5 107 -29 86 -6 -4 -24 7 -42 25 -17 18 -27 33
-22 33 13 0 11 34 -3 48 -10 10 -10 15 1 21 7 5 9 11 4 14 -5 3 -16 32 -23 63
-10 39 -20 58 -32 62 -10 2 -18 9 -18 15 0 12 -31 36 -47 37 -7 0 -13 -11 -13
-25 0 -14 -4 -25 -10 -25 -5 0 -10 4 -10 10 0 5 -7 7 -16 3 -10 -4 -17 1 -21
15 -3 11 -18 25 -34 31 -16 5 -40 23 -54 38 -13 15 -25 22 -25 15 0 -7 -6 -12
-12 -11 -38 5 -41 -2 -13 -25 29 -24 29 -25 11 -39 -19 -14 -17 -16 25 -47 24
-17 61 -40 81 -51 40 -20 66 -60 71 -107 2 -15 7 -34 12 -42 31 -50 42 -79 32
-89 -8 -8 -7 -11 2 -11 7 0 9 -4 6 -10 -15 -24 8 -79 41 -102 24 -16 34 -31
34 -49 0 -30 31 -62 63 -64 14 -1 23 -9 25 -23 2 -12 -2 -22 -8 -22 -6 0 -1
-10 10 -22 12 -13 26 -23 31 -23 5 0 15 -11 22 -25 7 -14 19 -25 27 -25 10 0
15 -12 16 -37 0 -21 3 -41 7 -45 12 -11 8 -50 -7 -62 -8 -7 -17 -39 -21 -71
-5 -41 -11 -60 -21 -60 -7 0 -16 -11 -20 -24 -3 -15 -16 -27 -31 -31 -21 -5
-24 -10 -18 -35 5 -24 1 -32 -25 -51 -17 -13 -28 -29 -26 -36 5 -12 -5 -17
-19 -10 -3 1 -17 -21 -30 -49 -29 -61 -47 -78 -74 -69 -11 3 -28 2 -38 -4 -34
-18 -126 -32 -137 -21 -17 17 -24 11 -21 -16 1 -15 -3 -28 -11 -31 -8 -3 -14
-11 -14 -18 0 -17 58 -14 69 4 7 11 21 11 73 2 88 -15 88 -15 100 20 6 16 13
28 15 25 10 -9 43 14 43 30 0 13 2 13 22 0 12 -9 30 -16 40 -16 9 0 29 -11 44
-25 28 -26 30 -27 102 -29 31 -2 42 2 42 12 0 13 3 12 22 0 20 -13 24 -12 50
18 15 17 28 39 28 48 0 20 14 21 30 1 13 -16 75 -21 65 -6 -7 13 28 23 68 20
39 -4 65 17 59 46 -2 12 4 27 12 34 9 8 16 20 16 27 0 19 59 18 66 0 8 -21 30
-26 58 -13 20 10 24 17 19 39 -7 35 10 36 43 3 28 -28 83 -59 91 -51 3 3 -6
19 -21 36 -14 17 -26 36 -26 42 0 6 -3 9 -6 5 -4 -3 -20 1 -35 9 -26 13 -28
17 -17 37 6 12 11 36 9 53 -1 21 3 33 13 37 9 4 16 13 16 22 0 17 35 55 50 55
6 0 10 5 10 10 0 6 7 10 16 10 12 0 15 6 11 22 -8 27 18 58 47 58 12 0 32 12
46 27 14 14 40 32 58 40 34 14 35 38 1 28 -34 -11 -34 23 0 71 17 25 31 49 31
54 0 6 7 10 15 10 8 0 15 7 15 15 0 8 11 25 25 37 14 12 23 28 21 35 -6 16 -1
16 24 3 16 -9 21 -6 26 15 3 14 12 25 20 25 12 0 12 5 0 33 -12 30 -12 36 6
60 11 15 16 27 13 27 -4 0 -2 7 5 15 9 11 7 23 -12 56 -17 31 -20 43 -10 46 6
3 12 18 12 34 0 17 5 29 13 29 6 0 12 10 12 23 1 12 4 34 8 48 5 21 3 28 -12
32 -16 4 -19 13 -17 48 3 40 -1 49 -41 92 -39 42 -44 52 -38 80 l6 32 -20 -23
c-18 -21 -23 -21 -70 -11 -45 9 -54 8 -78 -9 -36 -25 -86 -19 -112 14 -12 15
-21 20 -23 12 -7 -20 -38 0 -38 25 0 14 -7 30 -15 37 -12 10 -22 8 -53 -13
-20 -14 -54 -33 -74 -42 -21 -8 -38 -19 -38 -23 0 -7 -93 -30 -139 -35 -7 -1
-21 12 -30 29 -17 33 -58 59 -64 41 -3 -11 -40 5 -71 32 -10 9 -38 17 -64 17
-39 1 -51 7 -73 34 -15 17 -44 38 -65 45 -29 10 -39 19 -38 34 1 23 -12 29
-18 9 -3 -8 -20 -1 -50 19 -53 35 -116 49 -125 27z m966 -1234 c12 0 21 -4 21
-8 0 -16 -12 -21 -29 -12 -9 5 -24 11 -33 14 -10 3 -18 10 -18 16 0 7 6 8 19
0 11 -5 29 -10 40 -10z m-34 -30 c3 -5 2 -10 -4 -10 -5 0 -13 5 -16 10 -3 6
-2 10 4 10 5 0 13 -4 16 -10z"/>
<path d="M8380 13596 c0 -2 7 -7 16 -10 8 -3 12 -2 9 4 -6 10 -25 14 -25 6z"/>
<path d="M7777 13503 c-4 -3 -7 -11 -7 -17 0 -6 5 -5 12 2 6 6 9 14 7 17 -3 3
-9 2 -12 -2z"/>
<path d="M7763 13415 c0 -11 4 -12 14 -4 7 6 13 13 13 15 0 2 -6 4 -13 4 -8 0
-14 -7 -14 -15z"/>
<path d="M8395 13150 c-3 -5 -1 -10 4 -10 6 0 11 5 11 10 0 6 -2 10 -4 10 -3
0 -8 -4 -11 -10z"/>
<path d="M10207 12672 c14 -38 25 -44 45 -22 23 25 23 25 -19 33 -27 5 -31 4
-26 -11z"/>
<path d="M10290 12646 c0 -9 7 -16 16 -16 17 0 14 22 -4 28 -7 2 -12 -3 -12
-12z"/>
<path d="M10174 12607 c-40 -27 -66 -72 -58 -102 5 -20 3 -23 -14 -18 -16 4
-23 -3 -33 -31 -7 -19 -17 -32 -22 -29 -6 4 -7 -4 -4 -18 5 -19 1 -28 -16 -39
-27 -17 -69 -18 -74 -3 -3 7 4 9 15 6 16 -4 19 1 18 26 -1 23 -6 31 -20 31
-10 0 -36 5 -57 11 -33 10 -41 9 -65 -10 -25 -20 -29 -20 -51 -6 -23 16 -28
10 -17 -19 3 -9 12 -16 20 -16 8 0 14 -7 14 -15 0 -19 7 -19 27 0 8 8 19 13
24 10 15 -10 10 -23 -8 -21 -13 1 -18 -6 -16 -24 3 -46 -4 -53 -35 -32 -24 18
-30 18 -47 6 -31 -23 -86 -9 -113 28 -7 10 -26 25 -43 33 -27 15 -29 14 -29
-5 0 -16 -7 -20 -34 -20 -26 0 -36 -5 -41 -20 -3 -11 -12 -20 -20 -20 -22 0
-47 -31 -42 -51 3 -12 0 -19 -8 -19 -8 0 -11 -7 -9 -17 3 -12 -3 -22 -18 -28
-12 -5 -39 -37 -59 -70 -19 -33 -45 -64 -57 -70 -26 -11 -28 -28 -7 -49 19
-18 19 -30 1 -45 -12 -10 -19 -8 -36 9 -11 11 -25 18 -30 15 -15 -9 -12 -25 4
-25 9 0 13 -13 13 -40 0 -37 -2 -40 -21 -34 -11 3 -26 13 -33 21 -26 33 -149
81 -165 65 -7 -7 -3 -14 10 -21 11 -6 30 -31 42 -57 21 -42 21 -47 6 -62 -9
-9 -22 -17 -29 -18 -29 -3 -56 -17 -60 -33 -3 -11 -8 -7 -18 16 -11 26 -18 32
-41 30 -23 -2 -28 -6 -24 -20 2 -10 -2 -21 -10 -24 -21 -8 -29 4 -14 22 20 24
-5 48 -31 32 -17 -10 -23 -9 -34 6 -13 18 -14 17 -20 -3 -7 -23 -14 -23 -89
-4 -22 5 -26 3 -26 -14 0 -23 -61 -59 -79 -47 -6 3 -11 -2 -11 -12 0 -25 -69
-78 -97 -75 -27 4 -30 -14 -8 -45 14 -19 13 -21 -10 -25 -14 -3 -25 -1 -25 3
0 5 -13 9 -30 9 -16 0 -30 -4 -30 -10 0 -5 -7 -10 -15 -10 -25 0 -65 -23 -65
-38 0 -8 -6 -12 -13 -9 -9 3 -12 -3 -9 -22 5 -33 -14 -50 -63 -58 -31 -5 -37
-3 -42 15 -3 12 -11 18 -18 16 -7 -3 -27 7 -43 23 -17 15 -43 36 -57 47 -15
10 -33 34 -41 52 -11 26 -21 34 -42 36 -76 5 -94 13 -86 44 8 30 -7 31 -70 3
-39 -17 -45 -23 -35 -35 6 -8 10 -15 8 -17 -36 -21 -51 -27 -63 -27 -7 0 -19
-6 -25 -14 -9 -11 -20 -12 -43 -5 -17 4 -34 6 -39 4 -4 -3 -10 -1 -14 5 -3 5
-17 7 -31 4 -18 -5 -30 1 -53 25 -16 17 -29 36 -28 43 3 78 -7 91 -78 103 -33
6 -38 5 -27 -6 6 -7 12 -27 12 -44 0 -23 -7 -35 -28 -47 -19 -12 -32 -14 -39
-7 -6 6 -8 0 -5 -20 6 -41 -10 -45 -49 -11 -19 17 -46 29 -62 30 -27 0 -27 0
-12 -30 16 -31 39 -42 28 -14 -4 12 -1 15 13 12 10 -2 20 -12 20 -23 1 -11 2
-28 3 -37 1 -10 7 -18 15 -18 14 0 29 -37 20 -52 -3 -4 -12 -8 -20 -8 -10 0
-14 -8 -13 -22 4 -30 -18 -69 -35 -62 -21 8 -26 -41 -5 -54 9 -6 20 -24 24
-40 5 -25 45 -58 66 -54 3 0 5 -9 4 -21 -1 -12 6 -28 16 -35 20 -14 132 -52
167 -57 29 -4 52 -23 52 -42 0 -8 6 -21 14 -29 8 -8 20 -38 26 -68 6 -30 18
-60 26 -66 7 -7 14 -18 14 -24 0 -6 9 -17 20 -24 16 -9 18 -17 11 -30 -14 -26
2 -48 18 -28 12 14 15 13 31 -6 11 -14 30 -23 49 -24 29 -2 31 1 31 31 0 32
23 55 35 35 3 -6 30 14 60 44 30 30 63 53 72 52 13 -1 19 8 21 32 3 34 8 37
31 23 10 -7 24 -2 45 14 17 13 42 26 56 30 34 8 82 68 73 90 -5 15 -1 16 24
11 24 -6 36 -2 57 17 14 13 26 32 26 41 0 13 4 15 19 6 29 -15 68 -12 75 5 3
8 1 15 -5 15 -10 0 -3 43 13 77 11 22 11 21 32 -10 12 -18 32 -33 44 -35 12
-2 22 -8 22 -13 0 -6 4 -8 9 -5 5 4 22 1 37 -5 20 -7 30 -7 32 0 2 6 8 8 14 5
5 -3 12 3 15 15 3 12 8 21 11 21 16 0 72 -47 72 -60 0 -8 3 -24 6 -35 4 -15
-3 -27 -25 -42 -27 -21 -32 -21 -58 -8 -35 19 -43 19 -43 1 0 -19 -37 -31 -54
-16 -8 6 -16 20 -19 31 -5 17 -2 20 14 16 13 -4 19 -1 16 6 -2 7 -12 10 -23 9
-10 -2 -23 3 -30 12 -23 32 -25 -12 -4 -60 17 -36 18 -48 9 -66 -9 -18 -9 -20
4 -15 9 3 21 -1 27 -9 7 -8 23 -14 36 -14 13 0 27 -6 31 -14 4 -7 30 -16 57
-18 40 -5 51 -2 65 14 9 11 28 26 44 34 15 8 27 21 27 29 0 8 7 15 16 15 17 0
82 49 67 51 -4 1 3 4 17 8 15 5 32 3 43 -5 16 -10 22 -9 38 7 17 17 22 18 47
6 15 -8 40 -17 55 -21 15 -4 25 -11 22 -16 -9 -15 55 -99 70 -94 7 3 16 -4 20
-15 3 -12 15 -26 26 -31 21 -12 26 -50 7 -50 -8 0 -9 -3 -2 -10 5 -5 26 -7 46
-4 35 6 37 8 31 36 -6 28 -5 30 16 19 11 -7 21 -8 21 -2 0 11 30 24 38 16 3
-3 -1 -16 -8 -30 -11 -20 -11 -27 0 -40 11 -14 11 -18 1 -25 -9 -5 -10 -10 -3
-14 6 -4 9 -13 5 -21 -6 -17 8 -20 24 -4 8 8 13 8 17 0 4 -6 19 -11 33 -11 21
0 23 2 13 15 -10 12 -9 16 4 21 17 7 23 64 6 64 -5 0 -10 9 -10 19 0 15 7 19
32 17 32 -1 32 0 29 40 -3 48 12 64 31 34 15 -23 30 -25 58 -8 16 10 22 8 40
-15 17 -21 25 -25 35 -17 9 8 14 6 19 -6 8 -22 9 -21 -16 -27 -12 -4 -29 -1
-37 6 -11 10 -13 9 -9 -3 2 -8 20 -19 39 -24 19 -6 40 -16 47 -23 7 -7 18 -13
23 -13 6 0 37 -23 69 -51 45 -40 59 -59 62 -85 2 -19 0 -34 -4 -34 -4 0 -8
-12 -8 -26 0 -19 -4 -25 -15 -20 -13 5 -14 2 -1 -22 7 -15 11 -33 9 -39 -3 -7
3 -13 12 -13 9 0 13 -5 10 -11 -4 -6 -13 -8 -21 -5 -15 6 -20 -9 -6 -18 9 -6
8 -48 -2 -64 -4 -7 -2 -12 6 -13 7 -1 33 -2 57 -3 28 -1 48 -8 56 -19 12 -16
101 -67 118 -67 4 0 7 11 7 25 0 28 15 34 24 9 8 -21 31 -12 31 12 0 17 7 19
65 17 36 -1 77 -4 93 -7 20 -4 27 -1 27 9 0 20 17 19 29 -2 8 -16 11 -15 20
10 8 19 17 27 36 27 20 0 25 5 25 25 0 13 -7 28 -15 33 -20 11 -28 54 -12 64
9 6 8 11 -3 21 -24 18 -13 117 13 117 5 0 3 8 -5 18 -20 24 -21 62 -1 62 15 0
10 14 -5 16 -4 0 -20 6 -35 12 -37 16 -47 15 -47 -3 0 -8 -4 -15 -10 -15 -5 0
-10 5 -10 10 0 19 -30 10 -46 -15 -13 -20 -25 -25 -55 -25 -22 0 -39 -4 -39
-9 0 -5 -24 -7 -52 -4 -29 2 -69 4 -88 4 -56 -2 -87 17 -111 66 -12 24 -19 47
-16 50 9 9 -44 74 -55 67 -5 -3 -15 0 -23 6 -12 10 -15 9 -15 -3 0 -10 -6 -14
-15 -11 -8 4 -15 1 -15 -5 0 -16 -47 -13 -75 5 -18 12 -23 23 -20 44 4 37 12
50 30 50 10 0 12 16 10 65 -2 36 -7 80 -10 98 -7 32 -7 32 13 14 16 -15 24
-16 41 -7 43 22 11 87 -36 75 -20 -5 -24 -2 -22 12 2 10 -5 32 -14 50 -9 18
-17 34 -17 38 0 12 31 4 36 -10 7 -18 44 -20 44 -2 0 6 9 23 19 36 21 27 18
59 -4 41 -9 -7 -16 -6 -24 4 -9 11 -7 13 16 11 43 -3 64 -16 61 -36 -5 -28 16
-26 22 2 6 29 51 36 84 14 11 -8 31 -15 43 -15 13 0 23 -3 24 -7 0 -5 2 -16 4
-26 2 -11 -1 -16 -8 -14 -7 2 -11 11 -11 19 1 10 -5 14 -17 11 -25 -7 -24 -33
0 -33 11 0 23 -4 26 -10 10 -16 33 12 27 33 -2 9 -14 24 -25 32 -17 12 -18 15
-5 15 24 0 20 118 -4 126 -23 7 -23 20 -1 28 11 5 14 10 7 14 -16 10 -27 79
-14 87 12 8 0 33 -35 71 -28 30 -26 46 2 22 21 -18 73 -29 73 -16 0 5 10 12
22 17 17 6 27 2 44 -16 27 -29 34 -29 34 3 0 20 4 25 23 22 19 -3 22 1 19 25
-3 25 -1 27 30 27 30 0 41 8 83 59 39 47 53 58 66 51 19 -11 69 35 69 63 0 10
8 17 19 17 14 0 17 6 13 25 -3 21 0 25 18 25 16 0 20 -4 16 -15 -3 -8 -1 -15
4 -15 6 0 10 7 10 15 0 8 4 15 9 15 6 0 7 16 4 35 -3 20 -1 41 6 48 18 23 1
73 -35 107 -36 32 -40 30 -46 -20 -2 -19 -9 -25 -26 -24 -15 0 -21 -4 -18 -13
11 -27 -12 -12 -39 27 -15 22 -32 41 -36 41 -5 1 -13 2 -19 3 -14 2 -76 60
-89 84 -8 14 -8 23 -1 27 8 5 7 11 -1 21 -9 11 -8 14 4 14 18 0 42 36 30 43
-5 3 -22 -5 -39 -16z m-2381 -1702 c-5 -13 -23 -22 -23 -11 0 15 14 35 21 31
4 -3 6 -12 2 -20z m2212 -275 c3 -5 2 -10 -4 -10 -5 0 -13 5 -16 10 -3 6 -2
10 4 10 5 0 13 -4 16 -10z"/>
<path d="M10536 12537 c3 -10 9 -15 12 -12 3 3 0 11 -7 18 -10 9 -11 8 -5 -6z"/>
<path d="M10458 12503 c7 -3 16 -2 19 1 4 3 -2 6 -13 5 -11 0 -14 -3 -6 -6z"/>
<path d="M10395 12481 c-3 -5 -1 -12 5 -16 5 -3 10 1 10 9 0 18 -6 21 -15 7z"/>
<path d="M8211 12353 c-9 -20 -9 -29 0 -37 9 -8 10 -8 5 2 -14 24 13 12 50
-23 21 -20 41 -32 46 -27 5 5 3 14 -6 21 -12 11 -13 17 -1 45 16 38 11 50 -16
35 -13 -6 -25 -6 -38 1 -26 14 -26 14 -40 -17z"/>
<path d="M8301 12204 c0 -11 3 -14 6 -6 3 7 2 16 -1 19 -3 4 -6 -2 -5 -13z"/>
<path d="M8240 12150 c-8 -5 -12 -12 -9 -15 4 -3 12 1 19 10 14 17 11 19 -10
5z"/>
<path d="M8108 12111 c-19 -18 -15 -31 9 -31 8 0 11 5 8 10 -4 6 -1 17 5 25
17 21 -1 17 -22 -4z"/>
<path d="M7997 12073 c-4 -3 -7 -14 -7 -23 0 -16 4 -16 45 -2 25 8 45 18 45
23 0 10 -73 12 -83 2z"/>
<path d="M7910 11960 c0 -40 -3 -48 -15 -44 -11 5 -13 2 -9 -10 8 -20 20 -13
39 23 10 21 11 31 2 40 -8 8 -7 11 6 11 9 0 17 7 17 15 0 8 -9 15 -20 15 -17
0 -20 -7 -20 -50z"/>
<path d="M7745 11720 c3 -5 10 -10 16 -10 5 0 9 5 9 10 0 6 -7 10 -16 10 -8 0
-12 -4 -9 -10z"/>
<path d="M10010 11554 c0 -8 5 -12 10 -9 6 4 8 11 5 16 -9 14 -15 11 -15 -7z"/>
<path d="M9838 11503 c-16 -2 -28 -11 -28 -19 0 -8 -5 -14 -10 -14 -7 0 -7 -7
0 -21 9 -16 8 -26 -4 -44 -23 -34 -21 -40 25 -85 36 -34 38 -40 20 -40 -11 0
-22 -6 -22 -12 -3 -28 -5 -34 -22 -65 -10 -18 -23 -33 -30 -33 -6 0 1 -7 17
-15 15 -8 35 -15 43 -15 8 0 23 -10 34 -22 12 -15 18 -18 19 -9 0 8 8 20 17
27 17 11 16 16 -14 58 -20 28 -27 46 -20 46 7 0 21 6 30 13 16 11 16 15 -3 66
-23 58 -21 68 7 53 16 -9 18 -6 19 24 0 21 -3 31 -10 27 -6 -4 -4 2 4 12 8 10
10 16 3 12 -6 -4 -14 -3 -18 3 -3 5 -1 10 4 10 6 0 11 7 11 15 0 8 6 15 13 16
14 1 -33 17 -48 17 -5 -1 -22 -3 -37 -5z"/>
<path d="M9290 10981 c0 -6 5 -13 10 -16 6 -3 10 1 10 9 0 9 -4 16 -10 16 -5
0 -10 -4 -10 -9z"/>
<path d="M9289 10933 c-13 -16 -12 -17 4 -4 16 13 21 21 13 21 -2 0 -10 -8
-17 -17z"/>
<path d="M7764 10815 c8 -8 17 -15 20 -15 3 0 3 7 0 15 -4 8 -13 15 -21 15
-12 0 -12 -2 1 -15z"/>
<path d="M9697 10604 c-4 -4 -2 -15 4 -26 12 -22 69 -22 77 0 3 9 -3 11 -24 6
-19 -5 -30 -2 -39 9 -7 9 -15 14 -18 11z"/>
<path d="M10180 10527 c-14 -6 -27 -12 -29 -14 -2 -1 8 -14 22 -27 28 -26 39
-21 43 21 3 29 -5 33 -36 20z"/>
<path d="M10335 10510 c-3 -5 3 -10 14 -10 12 0 21 5 21 10 0 6 -6 10 -14 10
-8 0 -18 -4 -21 -10z"/>
<path d="M10280 10486 c0 -7 7 -27 15 -42 8 -16 15 -38 15 -49 0 -11 4 -26 9
-34 7 -11 11 -10 22 6 11 18 15 19 37 7 14 -7 30 -11 34 -8 5 3 18 -2 29 -12
18 -16 19 -16 21 7 2 43 -2 63 -17 72 -8 4 -15 13 -15 18 0 6 4 8 9 5 5 -4 11
-1 13 5 2 7 23 -19 45 -58 23 -38 49 -75 57 -82 8 -7 20 -28 26 -46 9 -27 15
-32 33 -27 12 3 19 1 14 -3 -4 -5 5 -17 20 -27 17 -10 22 -18 13 -18 -10 0
-11 -3 -4 -8 23 -15 35 -54 29 -93 -6 -35 -10 -39 -35 -39 -17 0 -33 -7 -39
-17 -9 -17 -10 -17 -28 0 -11 9 -24 17 -30 17 -15 0 -53 44 -53 62 0 9 -18 31
-40 48 -22 17 -40 29 -40 25 0 -3 -9 -1 -20 5 -11 6 -20 17 -20 25 0 8 -5 15
-11 15 -5 0 -9 10 -7 21 2 15 -6 26 -27 38 -21 11 -30 24 -30 41 0 22 -6 26
-45 31 -25 4 -47 5 -49 3 -9 -8 35 -33 57 -34 12 0 22 -3 22 -7 0 -13 -20 -39
-20 -28 0 6 -5 2 -11 -8 -7 -12 -17 -16 -30 -12 -17 6 -19 3 -13 -19 5 -22 3
-26 -15 -26 -12 0 -24 -6 -27 -14 -7 -18 -34 -9 -34 11 0 24 30 74 41 67 7 -4
9 5 7 22 -2 19 -14 36 -33 48 -17 11 -39 37 -49 59 -21 45 -49 47 -54 4 -3
-20 -8 -27 -18 -23 -8 3 -32 -2 -54 -10 -31 -13 -40 -22 -40 -40 0 -23 -31
-64 -49 -64 -5 0 -11 -23 -15 -50 -10 -71 -15 -82 -34 -70 -43 25 -56 40 -45
51 6 6 9 18 6 27 -5 11 -3 13 6 7 10 -6 11 0 6 26 -10 44 -23 69 -37 69 -6 0
-26 11 -43 24 -18 14 -43 28 -57 31 -13 3 -37 19 -52 36 -28 29 -59 42 -37 15
10 -11 9 -21 -4 -45 -10 -20 -12 -37 -7 -48 5 -10 14 -27 19 -38 8 -16 6 -29
-8 -55 -9 -19 -15 -45 -13 -56 8 -31 -12 -38 -35 -15 -32 32 -84 56 -89 41 -3
-7 -12 -20 -21 -29 -26 -26 -19 -51 18 -67 19 -8 43 -12 53 -8 10 3 25 0 33
-6 8 -6 18 -9 23 -6 5 3 15 -6 22 -19 16 -30 46 -33 55 -5 3 11 14 20 24 20 9
0 23 6 30 13 10 10 15 8 26 -8 8 -11 19 -25 25 -32 5 -7 10 -18 10 -24 0 -7 7
-21 17 -31 9 -11 11 -18 5 -18 -7 0 -12 4 -12 9 0 5 -11 4 -25 -2 -14 -7 -25
-20 -25 -29 0 -9 -8 -19 -17 -22 -26 -9 -68 -75 -65 -103 3 -17 -1 -23 -16
-23 -13 0 -22 -9 -26 -27 -4 -16 -17 -47 -29 -70 l-22 -42 21 -28 c12 -15 33
-34 47 -41 19 -9 27 -21 27 -39 0 -21 3 -23 14 -14 8 7 25 9 40 5 22 -5 26
-12 26 -42 0 -19 7 -43 16 -53 14 -16 14 -19 -5 -38 -11 -11 -16 -23 -11 -26
6 -4 10 -15 10 -26 0 -15 -7 -19 -30 -19 -28 0 -30 -2 -20 -20 6 -11 8 -25 5
-30 -9 -15 -44 -12 -61 5 -9 8 -24 15 -34 15 -10 0 -22 5 -25 11 -10 15 -55
-29 -48 -47 3 -8 16 -14 29 -14 13 0 24 -4 24 -10 0 -5 -6 -10 -13 -10 -7 0
-13 -9 -13 -20 0 -12 7 -20 17 -20 19 0 43 -46 29 -55 -13 -8 -13 -35 -1 -35
5 0 16 7 25 15 9 9 17 11 21 5 10 -15 45 12 45 35 0 12 6 30 14 40 8 11 12 25
9 32 -8 21 40 34 79 21 62 -21 94 -37 112 -57 10 -11 23 -18 29 -16 7 3 20 -7
30 -20 20 -28 15 -93 -8 -102 -11 -3 -10 -10 1 -31 8 -16 10 -28 4 -30 -6 -2
-8 -8 -5 -12 3 -5 12 -7 19 -4 10 4 13 -5 12 -36 0 -30 -4 -39 -15 -35 -8 3
-22 -2 -32 -12 -32 -32 -44 -39 -61 -35 -10 2 -19 -6 -23 -20 -11 -35 -48 -88
-63 -88 -7 0 -10 -4 -7 -10 3 -5 1 -10 -5 -10 -6 0 1 -23 16 -50 15 -28 27
-64 27 -80 0 -19 5 -30 15 -30 11 0 13 -9 8 -37 -4 -21 -7 -47 -7 -58 -2 -109
9 -142 32 -92 8 18 19 23 52 25 76 4 267 -42 230 -55 -10 -4 -10 -12 1 -38 8
-18 12 -36 9 -39 -10 -9 18 -36 38 -36 20 0 33 -29 23 -54 -3 -9 -12 -16 -20
-16 -8 0 -14 -5 -14 -11 0 -7 15 -10 40 -7 34 3 39 1 35 -13 -3 -10 -1 -20 5
-24 5 -3 10 -19 10 -35 0 -16 7 -30 16 -34 24 -9 24 -8 8 22 -17 33 -18 69 -1
76 8 3 6 10 -9 23 -12 10 -27 29 -34 42 -11 22 -11 24 10 18 20 -5 22 -3 16
24 -4 19 -1 29 7 29 8 0 9 2 1 8 -16 10 -27 49 -16 56 14 9 9 129 -6 134 -7 2
-10 8 -7 12 3 5 -4 14 -15 20 -16 9 -20 8 -20 -5 0 -8 6 -15 13 -16 6 0 -1 -5
-16 -11 -35 -12 -39 -9 -31 28 4 22 15 33 45 46 29 12 39 22 39 40 1 26 22 58
39 58 17 0 13 15 -9 35 -24 21 -26 41 -5 49 36 13 10 85 -60 169 -33 39 -45
47 -73 47 -29 0 -34 3 -29 20 3 10 -1 24 -9 31 -8 6 -14 18 -14 25 0 8 -5 14
-11 14 -8 0 -8 4 0 14 9 11 7 15 -11 20 -13 3 -33 6 -45 6 -13 0 -24 8 -28 20
-3 11 -11 20 -16 20 -5 0 -9 8 -9 17 0 9 -7 25 -17 35 -9 10 -11 18 -5 18 6 0
21 21 32 48 21 45 21 49 5 94 -22 61 -14 93 35 146 21 24 39 45 39 48 1 2 1 7
1 11 0 3 9 -2 20 -12 18 -16 25 -14 21 8 -3 20 19 4 25 -18 3 -14 13 -25 21
-25 8 0 20 -15 28 -34 8 -19 19 -37 25 -41 5 -3 10 -12 10 -20 0 -8 11 -31 25
-51 32 -48 32 -63 -1 -56 -24 4 -25 3 -14 -18 10 -19 9 -27 -9 -50 -16 -22
-17 -29 -7 -33 8 -3 12 -15 9 -31 -4 -17 -10 -23 -20 -19 -12 5 -14 1 -8 -15
5 -18 2 -22 -14 -22 -11 0 -23 -5 -26 -10 -4 -6 -1 -9 6 -8 7 2 18 -7 24 -20
8 -18 15 -22 35 -17 14 4 27 11 28 16 3 6 9 5 18 -2 11 -9 16 -6 24 15 11 29
35 26 45 -5 4 -10 14 -19 23 -19 9 0 30 -7 46 -15 16 -8 34 -14 40 -13 6 1 21
-1 33 -6 13 -4 31 -2 43 4 11 6 26 8 32 4 20 -13 61 -14 75 -2 9 7 13 7 13 -1
0 -6 7 -11 15 -11 8 0 15 4 15 9 0 5 3 16 6 25 4 11 -2 19 -20 26 -19 7 -26
17 -26 36 0 22 2 24 15 14 12 -10 18 -7 32 19 10 17 22 31 27 31 5 0 3 6 -3
14 -13 15 4 66 22 66 5 0 7 6 4 14 -4 9 2 16 15 19 14 4 19 11 14 21 -3 9 -9
22 -12 30 -4 10 7 16 44 21 34 4 57 14 73 31 12 13 30 24 40 24 21 0 43 25 34
40 -6 9 0 11 44 14 8 1 16 7 19 14 2 6 14 12 27 12 39 0 55 11 55 37 0 15 4
22 11 17 7 -4 7 1 -1 16 -6 12 -9 24 -6 27 3 4 1 12 -5 20 -8 9 -8 13 -1 13 6
0 13 -4 16 -9 3 -5 15 -7 25 -4 10 3 22 0 25 -6 11 -18 24 -13 28 11 2 18 10
22 45 24 22 1 57 8 76 15 32 11 34 15 27 40 -8 26 -6 28 23 31 24 2 33 8 35
26 2 12 9 22 16 22 23 0 36 22 24 43 -9 17 -8 19 11 14 17 -4 21 -1 21 19 0
21 3 23 19 14 25 -13 27 -13 45 6 17 17 22 49 7 39 -6 -3 -15 4 -22 16 -19 36
-53 66 -92 80 -34 12 -37 15 -31 44 7 40 -17 65 -43 44 -13 -11 -17 -11 -20
-2 -3 8 -14 11 -28 7 -19 -5 -29 3 -56 43 -39 55 -53 78 -71 113 -20 40 -40
51 -82 46 -45 -5 -66 1 -66 20 0 7 -8 18 -19 23 -25 14 -146 17 -163 5 -25
-20 -51 -26 -45 -10 4 9 -8 23 -31 39 -54 35 -77 40 -93 21 -32 -39 -67 -37
-174 6 -28 12 -95 20 -94 12 3 -22 -3 -32 -21 -32 -11 0 -20 4 -20 8 0 8 -52
42 -64 42 -3 0 -6 -6 -6 -14z m-136 -304 c-1 -34 -12 -55 -25 -47 -8 6 -3 48
8 68 9 16 18 5 17 -21z m1066 -23 c0 -18 -2 -20 -15 -9 -13 11 -13 15 -3 21
18 12 18 12 18 -12z m-1380 -48 c0 -26 -16 -35 -24 -15 -10 25 -7 34 9 34 8 0
15 -9 15 -19z m16 -218 c-3 -11 9 -39 29 -68 l34 -50 -25 -7 c-32 -8 -51 -32
-64 -80 -7 -24 -7 -45 0 -62 8 -22 5 -30 -16 -51 -29 -29 -33 -30 -60 -7 -16
13 -19 26 -16 60 3 28 0 42 -8 42 -7 0 -10 6 -7 14 3 7 1 18 -4 23 -5 5 4 14
26 21 21 8 32 18 29 26 -3 8 6 25 19 38 13 13 27 42 31 63 9 46 13 55 27 55 6
0 8 -8 5 -17z m304 -223 c0 -5 -5 -10 -11 -10 -5 0 -7 5 -4 10 3 6 8 10 11 10
2 0 4 -4 4 -10z m112 -222 c-7 -7 -12 -8 -12 -2 0 14 12 26 19 19 2 -3 -1 -11
-7 -17z m-4 -133 c-3 -3 -9 2 -12 12 -6 14 -5 15 5 6 7 -7 10 -15 7 -18z m-3
-565 c3 -5 1 -10 -6 -10 -6 0 -9 -8 -6 -20 3 -11 1 -23 -4 -26 -5 -3 -9 -4 -9
-2 0 2 -4 18 -9 36 -8 28 -7 32 9 32 10 0 22 -4 25 -10z"/>
<path d="M10203 10458 c-23 -11 -32 -38 -13 -38 18 0 80 37 73 44 -9 9 -34 6
-60 -6z"/>
<path d="M9360 10225 c0 -8 9 -15 20 -15 13 0 18 5 14 15 -4 8 -12 15 -20 15
-8 0 -14 -7 -14 -15z"/>
<path d="M9240 10210 c-7 -14 -7 -20 0 -20 15 0 13 -80 -2 -85 -15 -6 -21 -55
-7 -55 8 0 40 -63 53 -106 13 -42 15 -144 2 -137 -6 3 -2 -3 8 -15 19 -22 19
-22 -2 -22 -12 0 -22 -4 -22 -10 0 -5 -9 -19 -20 -30 -19 -19 -22 -19 -52 -4
-28 15 -30 15 -25 0 5 -12 0 -16 -16 -16 -13 0 -36 -13 -52 -30 -16 -16 -34
-30 -41 -30 -6 0 -14 -9 -17 -20 -3 -13 -11 -18 -20 -14 -8 3 -17 -2 -21 -11
-7 -20 2 -38 15 -30 5 4 9 -1 9 -9 0 -9 -4 -16 -10 -16 -5 0 -10 -6 -10 -14 0
-16 35 -40 72 -50 21 -5 26 -10 21 -24 -4 -9 -11 -20 -17 -24 -8 -6 -7 -11 2
-17 12 -7 11 -14 -2 -40 -9 -17 -20 -31 -24 -31 -4 0 -20 14 -36 30 -26 27
-76 43 -62 21 8 -12 -22 -23 -37 -14 -6 4 -1 -8 12 -25 22 -32 54 -42 66 -22
8 12 37 9 47 -5 4 -5 14 -2 26 8 10 9 23 17 28 17 16 0 56 59 48 72 -4 6 -1 9
6 6 20 -6 22 -49 4 -69 -8 -9 -14 -28 -12 -41 4 -29 49 -70 62 -57 6 5 21 -1
40 -19 16 -15 26 -21 22 -14 -5 7 -1 12 10 12 16 0 16 -1 1 -18 -16 -17 -16
-20 6 -39 18 -18 24 -19 35 -8 16 18 15 26 -2 19 -8 -3 -17 -1 -21 5 -3 6 0
11 8 11 8 0 17 6 20 14 3 8 31 20 62 27 48 11 56 15 51 31 -3 12 2 22 12 25
29 11 68 72 63 100 -1 7 10 20 24 29 30 20 31 28 5 56 -11 12 -20 32 -20 46 0
29 18 64 30 57 4 -3 6 4 3 15 -3 11 -10 20 -15 20 -6 0 -7 11 -4 25 6 23 3 25
-35 31 -22 4 -54 18 -70 31 l-29 25 -18 -22 -18 -22 -14 26 c-7 14 -20 26 -28
26 -13 0 -12 3 1 18 10 10 14 22 10 25 -3 4 0 7 9 7 10 0 15 11 16 33 2 44
-17 93 -58 152 -29 43 -34 57 -32 102 1 28 6 62 11 74 5 16 3 28 -8 41 -20 23
-28 23 -41 -2z m60 -230 c0 -5 -4 -10 -10 -10 -5 0 -10 5 -10 10 0 6 5 10 10
10 6 0 10 -4 10 -10z m-200 -350 c0 -5 -4 -10 -9 -10 -6 0 -13 5 -16 10 -3 6
1 10 9 10 9 0 16 -4 16 -10z"/>
<path d="M11500 10026 c0 -7 7 -19 15 -26 16 -13 20 -3 9 24 -8 20 -24 21 -24
2z"/>
<path d="M10076 9555 c-3 -8 -13 -15 -21 -15 -9 0 -14 -4 -11 -9 4 -5 0 -12
-6 -15 -7 -2 -2 -3 12 -1 14 2 32 4 40 4 10 1 11 4 3 12 -6 6 -9 18 -6 25 3 8
3 14 0 14 -3 0 -7 -7 -11 -15z"/>
<path d="M9479 9272 c-1 -4 -1 -14 0 -24 1 -9 -6 -22 -17 -30 -10 -7 -21 -21
-25 -30 -3 -10 -13 -18 -21 -18 -9 0 -19 -12 -22 -26 -4 -14 -12 -23 -18 -21
-15 6 -14 -46 2 -100 7 -24 17 -43 22 -43 10 0 7 -46 -3 -57 -11 -10 -8 -20 9
-37 12 -12 20 -13 35 -6 11 6 24 8 29 5 11 -7 40 34 40 58 0 10 6 17 14 15 8
-2 21 6 29 16 12 17 12 21 -6 39 -16 16 -18 27 -13 71 4 28 11 55 17 61 14 14
11 25 -8 25 -14 0 -15 2 -4 9 8 5 9 11 3 15 -5 3 -13 21 -16 40 -4 22 -13 36
-26 39 -11 3 -21 2 -21 -1z"/>
<path d="M9655 9180 c-3 -5 -2 -10 4 -10 5 0 13 5 16 10 3 6 2 10 -4 10 -5 0
-13 -4 -16 -10z"/>
<path d="M9610 9160 c0 -5 5 -10 10 -10 6 0 10 5 10 10 0 6 -4 10 -10 10 -5 0
-10 -4 -10 -10z"/>
<path d="M9255 9140 c-3 -6 1 -7 9 -4 18 7 21 14 7 14 -6 0 -13 -4 -16 -10z"/>
<path d="M9556 9142 c-2 -4 -1 -14 4 -22 7 -11 11 -12 25 0 13 10 13 15 3 21
-17 11 -26 11 -32 1z"/>
<path d="M9207 9073 c-4 -3 -7 -13 -7 -22 1 -13 3 -13 11 2 11 19 8 33 -4 20z"/>
<path d="M11207 8863 c-4 -3 -7 -11 -7 -17 0 -6 5 -5 12 2 6 6 9 14 7 17 -3 3
-9 2 -12 -2z"/>
<path d="M11410 8852 c0 -7 -4 -11 -9 -8 -5 4 -7 -3 -4 -14 4 -15 -1 -21 -23
-25 -16 -4 -36 -9 -45 -11 -8 -2 -44 7 -79 21 -88 34 -119 33 -126 -4 -4 -21
-15 -33 -37 -42 l-31 -13 35 -15 c19 -8 46 -13 62 -12 16 2 47 -9 76 -27 32
-20 56 -28 74 -25 19 4 28 0 37 -16 6 -12 15 -19 19 -16 5 2 14 -8 21 -24 6
-16 22 -39 36 -52 20 -19 27 -21 49 -11 14 6 24 8 23 4 -4 -14 23 -52 38 -52
13 0 12 5 -5 26 -23 30 -14 54 20 54 18 0 23 17 22 67 -1 9 4 10 18 2 11 -5
19 -8 20 -7 1 2 3 33 5 70 2 43 -1 67 -7 65 -6 -1 -29 16 -52 37 -36 34 -49
39 -90 40 -32 1 -47 -3 -47 -12z"/>
<path d="M10370 8733 c-43 -13 -43 -13 -30 -28 9 -11 9 -15 1 -15 -7 0 -6 -9
5 -25 9 -14 22 -25 30 -25 12 0 38 -36 37 -50 -2 -20 20 -50 36 -50 11 0 22
-6 24 -12 4 -9 6 -9 6 1 1 8 -9 25 -21 38 -17 18 -18 23 -6 23 9 0 19 7 22 16
8 22 8 26 -3 19 -6 -3 -13 1 -18 9 -4 7 -17 15 -28 18 -15 2 -20 12 -21 36 -1
37 -12 52 -34 45z"/>
<path d="M10960 8691 c0 -24 -88 -103 -104 -94 -20 13 -47 10 -42 -4 3 -8 -2
-13 -14 -13 -13 0 -20 -7 -20 -18 0 -25 -19 -42 -47 -42 -13 0 -23 -4 -23 -10
0 -5 -7 -10 -15 -10 -25 0 -65 -23 -65 -37 0 -16 -1 -16 -34 -3 -18 6 -26 6
-26 -1 0 -6 -7 -8 -16 -5 -12 4 -11 0 5 -20 11 -14 18 -31 15 -38 -5 -13 44
-64 54 -56 4 3 8 -5 10 -17 2 -13 15 -32 29 -42 13 -11 22 -25 18 -31 -3 -5
-3 -16 2 -22 4 -7 8 -20 8 -28 0 -8 8 -15 18 -15 10 0 24 -11 32 -24 9 -18 14
-20 18 -10 4 11 6 10 6 -2 1 -9 -17 -28 -39 -43 -22 -14 -40 -31 -40 -37 0 -7
-11 -9 -30 -5 -25 4 -30 2 -30 -14 0 -16 -4 -17 -30 -10 -16 5 -43 18 -60 30
-21 15 -30 17 -30 8 0 -8 -4 -6 -11 5 -6 10 -22 17 -39 17 -20 0 -36 9 -54 32
l-25 32 -12 -27 c-7 -15 -18 -26 -24 -23 -6 2 -12 -2 -12 -10 0 -16 35 -13 46
5 6 10 9 9 14 -2 7 -18 -11 -37 -34 -37 -10 0 -21 -5 -24 -11 -4 -6 -13 -8
-21 -5 -20 8 -17 -8 6 -29 13 -11 18 -25 14 -37 -4 -13 0 -18 13 -17 10 0 13
3 6 6 -10 3 -9 8 3 20 14 14 18 13 45 -13 16 -15 29 -37 29 -49 0 -15 12 -27
38 -40 67 -33 94 -95 42 -95 -12 0 -18 -4 -15 -10 3 -5 -3 -10 -14 -10 -11 0
-23 5 -26 10 -4 7 -13 6 -26 -1 -26 -14 -59 -2 -59 21 0 11 -12 22 -32 29 -23
8 -29 14 -20 20 18 11 6 36 -34 66 -22 17 -41 24 -53 20 -12 -3 -21 0 -25 11
-4 10 -14 14 -25 11 -11 -2 -23 3 -30 15 -7 11 -15 17 -18 14 -3 -3 -14 1 -25
8 -46 32 -107 -20 -64 -55 15 -12 26 -14 38 -8 20 11 44 1 71 -29 18 -20 18
-20 -2 -27 -11 -3 -28 -22 -37 -41 -9 -19 -20 -34 -25 -34 -5 0 -9 -7 -9 -16
0 -10 -7 -14 -22 -12 -19 3 -23 -3 -29 -36 -3 -22 -14 -45 -23 -51 -9 -7 -16
-17 -16 -24 0 -6 -8 -11 -18 -11 -10 0 -22 -4 -27 -9 -6 -5 -19 -11 -30 -15
-17 -5 -20 -1 -22 26 -1 17 2 37 7 43 5 6 7 21 3 33 -5 21 -6 21 -34 5 -20
-12 -25 -20 -18 -29 7 -8 7 -14 0 -18 -6 -4 -8 -13 -4 -21 6 -18 3 -18 -32 -5
-23 9 -26 8 -23 -7 2 -10 12 -19 23 -21 54 -8 63 -13 60 -29 -1 -10 2 -26 7
-36 5 -10 7 -21 4 -24 -3 -4 -11 8 -17 25 -6 18 -15 29 -21 26 -5 -3 -7 -12
-4 -20 3 -7 1 -16 -4 -19 -6 -4 -10 1 -10 9 0 9 -4 16 -10 16 -15 0 -23 -66
-11 -88 15 -27 14 -42 -2 -42 -7 0 -18 -18 -23 -39 -10 -35 -8 -44 20 -90 22
-37 41 -55 69 -66 21 -8 36 -19 33 -24 -3 -4 2 -15 12 -24 20 -18 112 -50 120
-42 3 3 17 -6 31 -19 34 -33 97 -47 136 -30 l30 12 -28 4 c-15 1 -26 5 -25 8
2 3 -7 21 -18 40 -15 23 -19 42 -14 55 7 21 1 51 -20 98 -11 23 -19 27 -56 27
-40 0 -45 3 -58 35 -8 19 -19 35 -24 35 -5 0 -15 12 -22 26 -13 23 -15 24 -21
7 -3 -10 -2 -26 3 -35 9 -19 -7 -25 -27 -10 -14 10 -17 32 -5 32 5 0 10 5 10
10 0 6 -12 3 -26 -6 -19 -13 -22 -19 -12 -26 10 -7 10 -9 -2 -5 -8 2 -17 17
-20 33 -3 16 -9 28 -13 27 -18 -7 -26 -2 -21 12 4 9 -1 18 -11 21 -16 6 -15 9
6 25 22 17 25 17 42 1 10 -9 34 -17 54 -19 19 -1 40 -8 47 -16 16 -21 102 -28
117 -11 6 8 17 14 24 14 14 0 28 -27 20 -40 -3 -5 -1 -11 4 -15 7 -3 4 -19 -6
-39 -10 -21 -13 -41 -8 -53 7 -16 8 -16 12 -1 3 14 9 15 26 7 28 -13 63 -69
43 -69 -42 0 -14 -82 31 -90 31 -6 78 32 69 56 -3 8 1 14 10 14 8 0 12 5 9 10
-3 6 1 10 9 10 10 0 16 -9 16 -26 0 -19 5 -24 18 -22 11 2 27 -4 37 -12 17
-14 17 -13 10 10 -7 22 -6 23 9 11 9 -7 16 -21 16 -31 0 -9 18 -29 40 -44 35
-23 39 -29 30 -46 -6 -11 -19 -24 -30 -30 -11 -6 -20 -20 -20 -31 0 -15 -5
-19 -15 -15 -10 3 -15 -1 -15 -12 0 -10 -11 -37 -24 -62 -21 -40 -29 -46 -67
-53 -24 -4 -54 -8 -66 -9 -19 0 -23 -6 -23 -33 0 -24 -7 -37 -26 -50 -17 -11
-24 -23 -21 -35 4 -16 1 -18 -22 -14 -24 5 -30 1 -41 -25 -7 -17 -12 -49 -12
-70 1 -30 -4 -41 -18 -46 -20 -6 -30 -33 -30 -87 0 -24 5 -38 13 -38 6 0 3 -7
-8 -15 -19 -15 -19 -16 3 -37 19 -19 22 -20 22 -5 0 10 8 17 20 17 11 0 20 6
20 14 0 19 37 34 98 39 12 1 22 8 22 15 0 24 23 49 40 45 10 -3 21 0 24 6 4 6
18 11 32 11 13 0 24 4 24 9 0 10 47 20 133 28 47 4 57 8 57 23 0 10 5 22 10
25 6 4 8 15 5 25 -4 12 1 19 16 23 11 3 18 10 14 16 -3 6 -1 11 5 11 7 0 9 8
5 20 -4 13 -2 20 6 20 7 0 5 8 -7 21 -15 16 -16 24 -6 39 9 15 9 24 -2 44 -14
27 -10 86 6 86 24 0 58 50 58 85 0 27 5 38 18 42 9 2 26 23 37 46 16 33 25 41
43 39 15 -2 22 2 22 12 0 11 9 16 30 16 17 0 30 3 30 8 0 4 16 24 35 44 35 38
35 38 55 18 11 -11 26 -20 34 -20 7 0 19 -6 25 -14 6 -7 23 -13 37 -13 18 0
22 2 13 8 -11 6 -7 15 19 38 31 29 39 59 33 124 -1 9 1 17 6 17 4 0 14 14 22
32 12 27 15 29 26 15 14 -19 26 -12 18 9 -7 18 57 20 74 3 9 -9 18 -8 37 5 21
13 24 21 19 47 -4 23 -2 34 9 40 11 6 15 23 13 63 -1 30 -5 58 -9 64 -3 5 10
22 29 36 19 15 35 33 35 40 0 7 11 23 25 36 14 13 25 34 25 47 0 14 6 23 15
23 11 0 14 7 10 23 -3 12 -1 47 4 77 7 42 6 61 -5 82 -20 38 -18 40 17 33 26
-6 31 -4 36 14 3 12 10 21 17 20 26 -3 35 2 44 29 12 36 3 56 -52 120 -50 59
-53 64 -31 56 18 -7 20 7 3 24 -10 10 -10 15 1 21 9 6 1 10 -25 13 -22 3 -42
0 -46 -6 -4 -7 -8 -5 -11 4 -20 69 -23 75 -44 72 -11 -2 -23 4 -26 13 -10 24
-62 19 -80 -8 -12 -19 -22 -23 -46 -19 -24 3 -30 8 -26 21 3 9 -2 26 -10 37
-20 26 -19 44 3 44 16 1 16 1 0 14 -10 7 -18 22 -18 33 0 44 -20 54 -123 59
-91 4 -97 3 -97 -15z m-180 -591 c0 -5 -2 -10 -4 -10 -3 0 -8 5 -11 10 -3 6
-1 10 4 10 6 0 11 -4 11 -10z m-4 -28 c19 -16 41 -61 35 -70 -2 -2 5 -14 14
-28 9 -14 14 -28 12 -31 -11 -11 -47 9 -47 26 0 10 -9 26 -20 36 -12 10 -18
25 -16 32 3 7 1 15 -4 18 -12 7 -13 35 -2 35 4 -1 17 -9 28 -18z m-560 -228
c53 -25 59 -38 33 -73 -12 -17 -26 -28 -31 -25 -4 3 -8 -2 -8 -11 0 -11 -5
-15 -15 -11 -9 3 -19 -3 -25 -14 -6 -12 -16 -17 -26 -13 -9 3 -11 9 -6 12 5 3
9 35 7 71 -1 36 0 68 2 73 7 11 32 8 69 -9z m734 -459 c0 -8 -7 -15 -15 -15
-26 0 -18 20 13 29 1 1 2 -6 2 -14z m-385 -245 c3 -5 1 -10 -4 -10 -6 0 -11 5
-11 10 0 6 2 10 4 10 3 0 8 -4 11 -10z m88 -34 c-20 -11 -44 11 -24 23 8 6 19
4 26 -2 10 -10 10 -14 -2 -21z"/>
<path d="M9354 8463 c-7 -2 -9 -17 -4 -42 6 -35 4 -41 -23 -62 -16 -13 -37
-32 -46 -41 -8 -10 -20 -18 -27 -18 -6 0 -19 -9 -29 -20 -10 -11 -24 -20 -32
-20 -7 0 -13 -5 -13 -11 0 -7 -7 -8 -17 -4 -10 4 -25 7 -33 8 -8 0 -21 4 -27
10 -10 7 -13 0 -13 -33 0 -29 -13 -69 -41 -128 -25 -52 -38 -93 -35 -106 4
-15 -3 -29 -25 -48 -17 -16 -34 -28 -40 -28 -5 0 -9 -7 -9 -15 0 -21 -30 -19
-46 3 -8 10 -13 12 -14 5 0 -7 -6 -13 -14 -13 -7 0 -16 -9 -19 -20 -3 -13 -14
-20 -30 -20 -14 0 -27 -6 -30 -14 -7 -18 1 -26 25 -26 22 0 23 -9 2 -39 -16
-22 -15 -24 12 -50 19 -18 36 -26 51 -23 13 2 34 -3 48 -12 31 -20 45 -20 45
0 0 12 6 15 25 10 30 -8 85 -54 85 -72 0 -7 6 -14 12 -16 9 -3 7 -12 -6 -33
-17 -26 -20 -27 -31 -12 -18 25 -28 21 -22 -10 3 -15 0 -35 -6 -44 -15 -24
-11 -26 47 -33 26 -2 51 -7 54 -10 3 -3 10 2 17 10 7 10 31 18 60 21 36 3 57
12 82 33 18 17 51 39 73 50 34 17 40 25 40 52 0 30 1 31 40 25 47 -6 59 6 34
34 -18 20 -18 22 3 57 11 20 29 37 39 37 9 0 20 9 24 19 5 15 9 16 15 7 6 -10
9 -10 15 -1 6 9 15 8 38 -4 42 -22 52 -20 52 9 0 18 -9 31 -30 43 -16 9 -30
21 -30 26 0 4 25 32 55 61 53 52 60 67 56 125 0 8 2 10 5 4 8 -19 66 7 58 26
-3 8 -10 47 -14 85 -4 39 -13 81 -19 94 -8 14 -9 21 -2 17 13 -8 27 42 15 53
-5 4 -22 13 -37 19 -28 12 -29 12 -22 -18 6 -29 5 -30 -32 -32 -21 0 -46 -1
-55 0 -10 1 -23 -8 -29 -19 -9 -17 -17 -20 -42 -15 -61 12 -87 29 -87 57 0 24
-34 67 -49 62 -3 -1 -13 11 -21 26 -8 15 -20 26 -26 24z"/>
<path d="M9930 7790 c0 -11 7 -20 15 -20 8 0 15 9 15 20 0 11 -7 20 -15 20 -8
0 -15 -9 -15 -20z"/>
<path d="M8975 7470 c-17 -19 -11 -28 10 -12 10 7 19 32 12 32 -2 0 -12 -9
-22 -20z"/>
<path d="M8930 7390 c0 -5 5 -10 11 -10 5 0 7 5 4 10 -3 6 -8 10 -11 10 -2 0
-4 -4 -4 -10z"/>
<path d="M8596 7364 c4 -15 2 -24 -5 -24 -7 0 -11 -6 -10 -12 5 -40 -4 -60
-34 -80 -26 -16 -34 -28 -33 -50 1 -15 5 -28 9 -28 5 0 7 -8 6 -17 -1 -10 2
-33 6 -51 6 -26 12 -32 26 -29 10 3 20 0 22 -7 2 -6 13 4 24 22 17 28 22 31
33 17 18 -22 33 -18 20 5 -6 12 -8 36 -4 58 l7 37 9 -27 c15 -45 33 -33 31 20
-1 15 34 16 39 1 3 -9 9 -9 25 0 12 6 31 11 43 11 12 0 25 10 32 25 6 14 15
25 20 25 4 0 8 5 8 11 0 5 -4 8 -9 4 -5 -3 -12 -1 -15 4 -4 5 -22 7 -41 4 -23
-4 -35 -2 -35 6 0 6 4 11 8 11 5 0 14 11 20 24 9 20 7 27 -12 45 -26 25 -39
26 -55 7 -11 -14 -81 -28 -81 -16 0 3 -13 11 -30 17 -29 11 -30 10 -24 -13z"/>
<path d="M10880 7141 c0 -12 5 -21 10 -21 6 0 10 6 10 14 0 8 -4 18 -10 21 -5
3 -10 -3 -10 -14z"/>
<path d="M8680 7120 c0 -5 5 -10 11 -10 5 0 7 5 4 10 -3 6 -8 10 -11 10 -2 0
-4 -4 -4 -10z"/>
<path d="M10702 7120 c2 -8 14 -16 26 -18 11 -2 24 -12 28 -24 4 -14 9 -17 17
-9 6 6 22 11 35 11 21 0 23 2 12 15 -9 11 -15 12 -20 5 -5 -7 -11 -6 -20 5 -8
9 -20 13 -32 9 -10 -3 -26 0 -35 8 -14 11 -15 11 -11 -2z"/>
<path d="M10250 7066 c0 -3 4 -16 10 -30 6 -17 6 -26 0 -26 -16 0 -12 -17 6
-24 9 -4 13 -2 8 5 -4 7 0 9 14 5 35 -11 37 14 4 45 -29 27 -42 35 -42 25z"/>
<path d="M10630 6749 c0 -13 41 -22 52 -11 6 6 -1 11 -21 14 -17 3 -31 1 -31
-3z"/>
<path d="M9830 6641 c0 -5 7 -11 15 -15 8 -3 15 -13 15 -22 0 -8 5 -14 11 -12
6 2 10 7 10 11 -1 4 -1 16 -1 27 0 15 -7 20 -25 20 -14 0 -25 -4 -25 -9z"/>
<path d="M9903 6623 c1 -18 5 -33 10 -33 4 0 7 -7 7 -16 0 -11 -6 -15 -20 -11
-19 5 -24 -3 -21 -31 1 -8 -7 -16 -19 -19 -19 -5 -19 -7 -5 -23 15 -17 11 -50
-6 -50 -14 0 -8 -111 8 -142 20 -40 37 -36 30 8 -4 25 -2 37 9 41 7 3 14 12
14 20 0 8 5 23 11 34 8 16 13 18 25 9 30 -26 61 19 33 47 -8 8 -8 28 -1 68 9
53 8 59 -14 84 -20 22 -25 24 -33 11 -8 -12 -12 -10 -20 10 -9 24 -9 23 -8 -7z
m62 -93 c3 -5 2 -10 -4 -10 -5 0 -13 5 -16 10 -3 6 -2 10 4 10 5 0 13 -4 16
-10z m-39 -55 c0 -38 -9 -45 -25 -18 -7 13 -5 23 6 35 9 10 17 18 17 18 1 0 1
-16 2 -35z"/>
<path d="M10120 6451 c0 -15 -5 -18 -22 -14 -22 4 -22 3 2 -11 14 -8 27 -10
28 -5 2 5 8 7 13 3 10 -6 12 7 3 30 -8 22 -24 20 -24 -3z"/>
<path d="M10012 6438 c6 -18 28 -21 28 -4 0 9 -7 16 -16 16 -9 0 -14 -5 -12
-12z"/>
<path d="M9833 6200 c-13 -15 -23 -39 -23 -53 0 -13 -11 -36 -25 -51 -14 -15
-25 -29 -25 -31 0 -14 -38 -45 -55 -45 -19 -1 -19 -1 -2 -11 27 -16 94 -2 100
22 3 13 11 17 21 13 21 -8 20 5 -1 22 -17 13 -17 13 1 14 15 0 16 3 6 15 -10
12 -9 15 6 15 16 0 19 7 18 45 0 31 3 45 12 45 8 0 11 6 8 15 -8 21 -16 18
-41 -15z"/>
<path d="M9640 6008 c0 -4 4 -8 9 -8 6 0 12 4 15 8 3 5 -1 9 -9 9 -8 0 -15 -4
-15 -9z"/>
</g>
</svg>
