<?xml version="1.0" standalone="no"?>
<!DOCTYPE svg PUBLIC "-//W3C//DTD SVG 20010904//EN"
 "http://www.w3.org/TR/2001/REC-SVG-20010904/DTD/svg10.dtd">
<svg version="1.0" xmlns="http://www.w3.org/2000/svg"
 width="783.485005pt" height="425.699963pt" viewBox="0 0 783.485005 425.699963"
 preserveAspectRatio="xMidYMid meet">
<metadata>
Created by potrace 1.15, written by Peter Selinger 2001-2017
</metadata>
<g transform="translate(-609.000000,1210.005466) scale(0.100000,-0.100000)"
fill="#222222" stroke="none">
<path d="M11527 12093 c-10 -9 -9 -23 2 -23 5 0 11 7 15 15 5 15 -5 20 -17 8z"/>
<path d="M11829 12041 c-23 -32 -35 -40 -72 -45 -43 -7 -46 -10 -59 -49 -15
-47 -38 -52 -68 -15 -9 12 -29 21 -45 22 -24 1 -30 7 -37 34 -9 35 -25 42 -35
15 -4 -10 -11 -21 -16 -24 -14 -10 -45 1 -51 17 -4 10 3 14 24 14 31 0 35 6
24 35 -5 13 -9 14 -15 4 -4 -7 -18 -14 -31 -15 -21 -2 -68 -14 -68 -18 0 0 7
-19 14 -41 11 -31 16 -36 21 -22 9 21 28 22 45 2 11 -13 9 -19 -10 -37 -23
-22 -67 -31 -76 -16 -3 4 -12 8 -21 8 -14 0 -14 -2 2 -20 10 -11 22 -17 26
-14 5 3 9 0 9 -6 0 -6 -13 -16 -30 -21 -16 -6 -30 -14 -30 -18 0 -17 -161 4
-172 22 -5 8 -13 5 -27 -7 -19 -18 -22 -18 -46 -2 -20 13 -25 14 -25 2 0 -15
-21 -26 -51 -26 -11 0 -19 -7 -19 -16 0 -26 -64 -84 -81 -73 -24 15 -99 11
-99 -6 0 -8 -12 -22 -26 -32 -14 -10 -37 -27 -52 -39 -33 -25 -65 -34 -83 -23
-15 9 -37 -36 -38 -78 -1 -13 -5 -23 -11 -23 -14 0 -50 -37 -50 -52 -1 -16
-68 -68 -87 -68 -7 0 -12 -3 -12 -7 1 -5 1 -19 0 -32 -1 -22 -4 -23 -46 -18
-25 4 -45 3 -45 -2 0 -4 -12 -9 -27 -9 -97 -5 -142 -14 -136 -28 4 -12 0 -14
-20 -9 -15 4 -38 0 -58 -10 -22 -12 -47 -16 -81 -13 -27 3 -46 3 -44 0 3 -2
-9 -31 -26 -63 -28 -52 -33 -57 -51 -47 -16 8 -22 7 -29 -6 -5 -9 -17 -16 -27
-16 -9 0 -31 -15 -48 -32 -17 -18 -37 -38 -44 -44 -8 -6 -32 -32 -54 -57 -31
-36 -43 -44 -56 -36 -25 13 -27 12 -31 -12 -3 -21 -14 -26 -129 -66 -37 -12
-46 -19 -42 -34 3 -10 -2 -30 -11 -44 -9 -13 -16 -33 -16 -45 0 -14 -7 -20
-21 -20 -17 0 -20 -5 -17 -25 4 -17 1 -25 -8 -25 -8 0 -14 -10 -14 -22 0 -12
-10 -32 -22 -45 -16 -17 -22 -37 -24 -83 -1 -48 -7 -67 -29 -96 -16 -20 -36
-39 -45 -41 -12 -3 -16 -11 -13 -23 5 -17 -1 -19 -53 -19 -45 0 -71 -6 -108
-26 -43 -23 -51 -24 -58 -11 -5 9 -17 16 -27 16 -20 0 -71 -43 -71 -59 0 -7
-8 -7 -24 -1 -18 6 -26 5 -29 -5 -4 -10 -15 -8 -51 10 -24 12 -58 27 -75 33
-23 8 -33 19 -37 41 -5 23 -19 39 -55 61 -27 16 -49 25 -49 20 0 -6 -9 -10
-19 -10 -11 0 -23 -4 -26 -10 -3 -5 -15 -10 -25 -10 -10 0 -27 -10 -37 -23
-28 -36 -39 -39 -83 -21 -28 11 -45 13 -51 7 -6 -6 -24 -7 -44 -3 -28 6 -33 5
-27 -9 3 -9 13 -21 23 -28 24 -18 30 -51 11 -62 -11 -6 -16 -22 -15 -46 1 -29
-2 -35 -14 -30 -24 9 -61 -21 -68 -56 -6 -27 -10 -30 -36 -27 -27 4 -29 2 -29
-27 0 -17 7 -40 15 -52 8 -12 11 -24 6 -27 -11 -7 -10 -76 1 -76 4 0 8 -5 8
-11 0 -8 -4 -8 -15 1 -8 6 -19 9 -25 5 -7 -4 -18 2 -26 13 -12 18 -22 20 -62
15 -37 -4 -51 -2 -61 11 -7 9 -19 16 -25 16 -11 0 -50 35 -96 85 -31 34 -75
65 -78 54 -3 -6 -14 -4 -29 6 -14 9 -27 14 -31 11 -3 -3 -16 1 -30 10 -13 8
-30 13 -37 10 -8 -3 -28 2 -44 10 -17 9 -40 13 -50 9 -11 -3 -22 -1 -26 5 -4
7 -12 5 -21 -5 -14 -14 -48 -20 -84 -15 -8 1 -26 13 -41 26 -26 25 -49 31 -49
14 0 -11 -47 -3 -65 10 -18 14 -63 -1 -69 -23 -6 -19 -9 -17 -28 21 -17 36
-23 41 -36 30 -8 -7 -18 -11 -21 -9 -3 2 -15 10 -26 17 -11 8 -27 14 -36 14
-9 0 -28 9 -42 20 -30 24 -37 25 -37 5 0 -12 -4 -13 -19 -5 -32 17 -38 12 -45
-35 -7 -41 -10 -45 -35 -45 -16 0 -34 7 -41 15 -7 9 -19 14 -27 11 -18 -7 -64
14 -57 26 3 5 0 9 -7 7 -33 -4 -48 1 -43 16 4 8 1 15 -4 15 -18 0 -18 44 0 62
33 33 7 117 -26 88 -9 -7 -23 -9 -32 -6 -14 5 -16 1 -11 -23 5 -25 4 -28 -14
-24 -19 5 -20 4 -8 -15 11 -18 10 -24 -6 -42 -10 -11 -25 -18 -33 -15 -10 3
-12 0 -9 -10 4 -8 -1 -19 -11 -24 -13 -8 -14 -12 -5 -22 19 -19 -1 -44 -61
-78 -60 -35 -110 -40 -120 -14 -5 12 -9 14 -18 5 -14 -14 -48 -16 -48 -3 0 5
-16 15 -35 22 -22 8 -35 20 -35 31 0 10 -4 18 -8 18 -21 0 -63 -27 -68 -43 -4
-14 -13 -18 -30 -14 -18 3 -22 1 -14 -8 15 -17 2 -45 -21 -45 -10 0 -19 -3
-19 -6 0 -14 64 -64 76 -60 8 3 20 -7 29 -23 11 -23 19 -27 40 -24 14 3 25 11
25 19 0 18 29 7 58 -22 13 -13 27 -24 32 -24 6 0 10 -9 10 -19 0 -25 59 -45
105 -37 29 6 37 2 76 -38 24 -25 44 -53 44 -62 0 -20 53 -42 105 -44 33 -1 70
-19 70 -34 0 -4 17 -24 38 -44 22 -21 39 -47 40 -61 0 -13 11 -34 24 -48 12
-13 27 -38 33 -56 5 -18 24 -41 42 -52 18 -11 32 -28 33 -37 0 -9 8 -23 18
-30 11 -7 24 -23 31 -35 6 -13 20 -23 30 -23 10 0 37 -17 60 -38 35 -32 41
-43 37 -70 -4 -36 8 -49 52 -58 18 -4 32 -10 32 -15 0 -5 7 -9 16 -9 10 0 14
-6 11 -14 -8 -21 28 -50 50 -41 10 5 23 7 30 6 17 -2 53 35 53 55 0 12 11 6
39 -19 44 -40 72 -40 90 -1 9 21 14 23 38 13 15 -6 46 -11 69 -13 37 -2 40 0
36 21 -6 33 17 37 82 13 42 -16 60 -19 70 -11 10 8 22 5 50 -14 20 -14 43 -25
50 -25 8 0 16 -7 20 -15 8 -22 34 -7 32 19 -2 13 -6 28 -10 34 -10 16 -7 15
38 -8 36 -18 40 -18 61 -2 13 9 21 20 19 24 -3 4 14 21 36 39 23 18 46 44 53
58 7 14 28 34 49 44 33 18 37 25 47 79 5 32 8 65 5 73 -4 9 7 25 25 40 30 26
30 28 29 108 -1 45 2 95 6 110 7 24 5 29 -13 34 -11 3 -21 13 -21 23 0 14 -7
16 -42 13 -24 -1 -55 -5 -70 -8 -34 -5 -39 2 -31 48 5 32 8 35 24 26 11 -5 19
-6 19 -1 0 12 58 6 107 -12 l42 -15 55 60 c30 32 59 59 65 59 5 0 22 7 38 15
15 8 40 17 54 19 32 7 73 42 64 55 -3 7 3 11 15 11 17 0 19 -3 10 -19 -15 -29
-12 -49 10 -71 14 -14 18 -28 14 -48 -4 -21 1 -36 21 -60 26 -31 26 -31 7 -53
-17 -18 -23 -19 -44 -8 -12 7 -28 20 -35 29 -8 11 -21 15 -42 12 -25 -3 -31
-9 -31 -28 0 -13 -4 -24 -9 -24 -15 0 -19 -48 -4 -63 11 -11 12 -19 2 -40 -7
-15 -16 -27 -21 -27 -4 0 -8 -9 -8 -19 0 -11 -9 -26 -20 -34 -11 -8 -18 -16
-15 -19 3 -3 1 -17 -4 -32 -6 -14 -7 -26 -3 -26 13 0 28 15 36 34 5 14 10 16
18 8 20 -20 37 -84 28 -102 -5 -9 -8 -25 -7 -35 3 -28 -33 -31 -63 -5 -29 25
-34 25 -27 -2 3 -12 1 -30 -5 -41 -6 -11 -10 -51 -10 -88 1 -38 -3 -71 -7 -73
-10 -6 -8 -37 4 -56 5 -9 4 -15 -3 -18 -7 -2 -9 -8 -6 -14 10 -16 -41 -2 -99
26 -26 13 -49 20 -52 16 -2 -3 -22 -12 -44 -20 -28 -9 -41 -19 -41 -32 0 -10
-7 -18 -15 -18 -9 0 -12 -6 -9 -15 4 -9 0 -15 -7 -15 -11 0 -11 -2 0 -9 8 -5
16 -28 18 -52 3 -23 11 -55 19 -70 9 -18 10 -30 4 -34 -6 -4 -8 -11 -4 -16 3
-6 -4 -17 -15 -26 -17 -12 -21 -21 -16 -43 5 -23 2 -31 -17 -42 -13 -7 -23
-20 -23 -28 0 -9 -7 -14 -17 -12 -10 2 -18 -2 -18 -8 0 -6 -11 -15 -24 -20
-14 -5 -26 -19 -28 -31 -2 -18 -10 -23 -38 -24 -19 -1 -44 4 -56 11 -19 11
-21 10 -20 -9 1 -12 -5 -25 -13 -28 -8 -3 -15 -18 -16 -34 -1 -22 1 -24 9 -12
9 14 14 13 48 -4 35 -18 39 -18 45 -3 3 9 1 25 -6 36 -19 30 -7 31 23 3 15
-14 37 -25 50 -25 47 0 88 -71 75 -129 -9 -41 -5 -49 15 -32 9 7 21 9 28 5 7
-5 23 -7 35 -6 12 2 25 -3 30 -10 4 -7 20 -21 35 -31 16 -10 27 -21 27 -25 -4
-24 4 -32 31 -32 19 0 30 5 30 14 0 7 13 16 30 19 21 5 28 11 24 22 -4 9 0 15
10 16 57 4 61 3 61 -16 0 -15 7 -20 25 -20 22 -1 25 -4 22 -33 -2 -17 3 -44
11 -59 21 -40 37 -95 32 -104 -3 -4 4 -10 15 -14 21 -7 27 -30 10 -40 -5 -3
-10 -15 -10 -26 0 -14 -5 -19 -17 -17 -13 2 -21 -6 -28 -27 -7 -20 -18 -31
-33 -33 -21 -3 -22 -5 -9 -20 21 -26 47 -98 38 -108 -5 -5 -11 -23 -14 -41 -6
-31 -5 -32 31 -38 20 -4 45 -9 54 -11 11 -3 23 5 35 23 10 15 24 32 31 36 10
7 10 12 2 22 -9 11 -6 20 17 39 33 30 42 31 90 11 44 -19 42 -19 36 3 -3 12 4
25 21 36 14 9 26 23 26 31 0 8 8 15 18 15 9 0 22 8 29 19 7 12 20 17 35 15 36
-6 89 52 106 117 4 19 15 34 23 35 34 2 39 5 39 20 0 12 7 14 30 9 23 -5 30
-3 30 9 0 10 -9 16 -22 17 l-23 0 23 10 c17 6 30 5 45 -6 12 -8 32 -15 44 -15
13 0 23 -4 23 -9 0 -4 19 -11 42 -14 23 -3 47 -13 54 -21 12 -17 39 -22 29 -6
-10 16 18 71 32 65 7 -2 13 2 13 10 0 9 9 15 23 15 12 0 33 6 47 13 20 10 24
19 22 44 -2 21 4 42 19 62 20 27 21 34 10 58 -8 18 -9 29 -2 31 13 4 -29 92
-44 92 -20 0 -45 35 -45 62 0 13 -3 28 -7 32 -4 3 -8 27 -9 51 -1 26 -9 54
-18 64 -20 22 -20 31 -1 31 8 0 15 9 15 19 0 11 4 22 9 26 14 8 6 112 -10 132
-8 8 -14 29 -15 45 -1 23 2 28 16 23 9 -3 29 4 44 16 21 17 26 27 21 46 -5 21
-3 23 20 17 26 -6 32 0 38 43 2 11 9 28 16 37 8 9 11 26 7 40 -4 15 0 28 9 36
8 7 15 23 15 36 0 13 4 24 8 24 5 0 14 11 20 25 7 16 20 25 34 25 43 0 66 12
72 36 4 15 14 24 26 24 14 0 27 14 42 45 12 25 28 45 35 45 17 0 53 -59 53
-86 0 -12 7 -27 15 -34 8 -7 15 -20 15 -30 0 -19 21 -39 62 -59 14 -7 29 -22
31 -33 5 -16 12 -18 56 -15 45 4 55 1 87 -24 20 -16 46 -29 58 -29 26 0 96 65
96 90 0 5 5 10 10 10 6 0 10 14 10 30 0 20 5 30 15 30 8 0 15 8 15 19 0 11 9
21 21 24 17 5 20 11 16 29 -5 21 -5 21 7 6 19 -25 52 -23 59 4 4 15 -1 30 -15
45 -18 19 -19 23 -5 23 8 0 23 7 31 16 9 8 20 12 26 9 5 -3 10 1 10 9 0 9 7
16 16 16 9 0 14 7 13 18 -1 9 3 28 8 42 8 18 7 32 -3 52 l-14 26 30 -11 c23
-9 38 -8 61 0 22 9 37 9 51 2 10 -5 22 -7 27 -5 5 3 12 -2 15 -11 7 -17 -9
-33 -32 -33 -10 0 -10 -4 0 -20 17 -27 28 -25 41 9 8 23 19 30 47 35 26 4 40
13 48 31 6 14 18 25 26 25 7 0 19 7 26 15 7 8 17 12 23 8 5 -3 8 -2 5 3 -10
16 11 54 30 54 11 0 37 13 60 29 l40 30 24 -20 c19 -17 24 -18 26 -6 6 30 73
10 112 -34 30 -33 42 -39 75 -39 22 0 48 -7 58 -14 9 -7 28 -11 41 -9 16 3 36
-3 55 -16 16 -12 34 -21 39 -21 6 0 13 -14 17 -31 5 -21 12 -29 23 -27 10 2
17 10 17 18 0 20 10 24 45 17 22 -5 31 -14 36 -34 3 -15 12 -32 19 -38 6 -5
15 -23 19 -39 5 -21 12 -27 25 -23 10 2 29 -2 42 -9 13 -7 34 -13 46 -14 16 0
23 -8 28 -31 4 -19 16 -34 31 -39 13 -5 24 -17 24 -25 0 -9 7 -26 15 -39 14
-21 14 -24 0 -29 -20 -8 -21 -96 0 -123 8 -11 15 -14 15 -6 0 6 11 12 25 12
21 0 25 5 25 28 0 21 2 24 10 12 9 -13 12 -13 24 2 17 22 59 38 102 38 24 0
34 4 34 16 0 8 5 12 10 9 6 -4 17 -1 25 5 8 6 18 9 24 6 5 -4 12 3 16 14 4 14
12 19 24 15 22 -7 21 37 -2 63 -9 10 -17 31 -17 47 0 16 -7 36 -15 45 -14 16
-12 19 24 44 29 20 45 25 65 20 15 -3 32 -1 40 5 25 21 156 -15 141 -38 -6
-11 19 -21 52 -21 19 0 24 4 19 16 -5 13 -2 15 11 9 10 -4 35 -11 55 -15 21
-4 44 -12 52 -19 25 -21 54 3 47 42 -1 4 5 15 14 23 13 14 19 12 49 -11 19
-14 37 -33 40 -41 3 -7 14 -14 23 -14 10 0 28 -7 40 -15 27 -19 107 -14 132 9
21 19 54 21 84 4 12 -7 45 -13 74 -13 40 0 57 -5 77 -24 17 -16 32 -22 47 -18
30 8 68 -11 62 -32 -2 -9 8 -31 22 -50 14 -19 25 -39 25 -44 0 -14 61 -81 81
-89 13 -5 23 -1 33 14 12 16 21 19 45 15 23 -5 31 -3 31 8 0 8 5 15 10 15 18
0 10 29 -10 35 -19 6 -18 8 9 31 16 14 35 41 42 62 6 20 17 44 24 52 7 8 15
27 19 42 4 18 11 25 20 22 17 -6 56 12 56 26 0 6 20 30 45 56 35 35 44 50 39
68 -5 20 -2 23 27 24 18 0 41 -4 51 -9 26 -14 12 16 -16 35 -18 11 -26 12 -35
3 -8 -8 -11 -6 -11 9 0 10 -11 32 -25 47 -14 15 -20 27 -13 27 8 0 7 6 -5 17
-9 9 -19 14 -23 11 -6 -7 14 -50 28 -59 10 -7 0 -39 -13 -39 -5 0 -9 -9 -9
-19 0 -33 -11 -51 -31 -51 -13 0 -21 -9 -25 -28 -5 -26 -9 -28 -60 -29 -43 -1
-54 2 -54 14 0 9 -3 13 -7 10 -3 -4 -17 2 -29 14 -17 16 -31 20 -52 16 -17 -3
-37 -1 -46 6 -20 14 -194 3 -211 -14 -12 -12 -56 -11 -75 1 -8 5 -11 10 -6 10
5 0 1 9 -9 20 -15 16 -16 22 -5 35 11 14 10 20 -12 40 -14 13 -40 49 -58 80
-31 54 -63 84 -94 89 -17 2 -56 40 -56 53 0 14 -41 45 -54 40 -7 -3 -23 1 -37
9 -13 7 -39 13 -57 14 -28 0 -32 3 -27 19 7 24 -32 57 -87 72 -68 18 -89 32
-108 70 -11 20 -36 47 -57 60 -64 38 -122 96 -110 108 20 20 -9 12 -37 -10
-29 -23 -34 -39 -11 -39 8 0 15 -4 15 -10 0 -5 -3 -10 -7 -10 -14 1 -43 27
-43 38 0 5 -10 8 -21 5 -14 -4 -26 0 -33 9 -13 18 -56 7 -56 -14 0 -9 -3 -8
-10 2 -7 12 -13 13 -27 3 -10 -6 -17 -16 -16 -22 2 -6 -4 -11 -12 -11 -8 0
-15 4 -15 10 0 5 -19 14 -41 20 -48 13 -59 5 -59 -47 0 -27 -3 -30 -22 -26
-13 3 -20 2 -16 -2 4 -4 -7 -24 -25 -44 -18 -20 -40 -47 -49 -60 -9 -13 -21
-20 -27 -17 -5 4 -16 -3 -24 -14 -14 -20 -15 -20 -20 -1 -2 11 -1 23 4 28 11
11 -15 79 -33 85 -8 3 -5 14 11 36 16 23 20 36 13 49 -6 10 -6 26 -2 39 7 17
4 24 -16 33 -19 9 -24 8 -24 -4 0 -17 -10 -19 -42 -6 -13 5 -35 12 -50 15 -16
4 -28 13 -28 21 0 20 -60 57 -82 51 -10 -2 -28 8 -42 25 -15 16 -34 29 -44 29
-19 0 -52 33 -52 51 0 6 16 -3 35 -20 44 -38 56 -39 73 -4 18 39 15 48 -15 63
-20 9 -24 14 -13 18 8 3 19 11 23 18 4 8 15 14 24 14 10 0 13 6 9 16 -5 14 -2
15 21 9 16 -3 39 -7 53 -7 15 0 42 -15 67 -39 23 -21 51 -39 61 -39 18 0 72
48 72 64 0 10 42 45 55 46 6 0 16 9 23 20 23 38 150 67 221 51 31 -7 41 -5 45
5 3 8 14 14 25 14 14 0 19 5 15 14 -4 11 0 13 16 9 19 -5 21 -3 16 14 -4 13
-2 23 7 26 7 3 28 36 46 73 18 38 36 77 42 86 13 25 11 50 -6 75 -8 11 -14 36
-13 55 0 18 -4 43 -10 54 -6 11 -9 36 -7 56 4 28 0 40 -25 63 -17 16 -30 35
-30 42 0 8 -11 31 -25 51 -14 20 -25 44 -25 54 0 9 -4 20 -10 23 -5 3 -10 11
-10 18 0 8 3 8 11 0 9 -9 15 -8 24 0 9 9 8 18 -6 44 -13 23 -15 33 -6 33 6 0
-3 9 -20 20 -23 14 -33 27 -33 45 0 24 -31 51 -44 38 -3 -3 -6 5 -6 18 -1 13
-7 35 -15 49 -19 34 -20 87 -2 71 15 -12 27 -5 27 15 0 9 -6 11 -22 5 -14 -5
-34 -2 -59 11 -21 10 -44 18 -50 18 -7 0 -23 10 -37 23 -21 19 -25 20 -35 7
-12 -16 -44 -15 -61 1 -15 14 -19 11 -47 -30z m-212 -169 c-19 -4 -47 14 -47
29 0 5 15 2 33 -8 25 -13 28 -18 14 -21z m-4442 -1666 l30 -24 -19 -38 c-17
-37 -19 -38 -27 -16 -5 12 -15 22 -24 22 -19 0 -20 19 -1 26 11 4 13 12 6 30
-12 30 -3 30 35 0z m-645 -156 c0 -5 -2 -10 -4 -10 -3 0 -8 5 -11 10 -3 6 -1
10 4 10 6 0 11 -4 11 -10z m5630 -370 c0 -5 -4 -10 -10 -10 -5 0 -10 5 -10 10
0 6 5 10 10 10 6 0 10 -4 10 -10z m-3811 -1192 c14 -19 5 -23 -18 -9 -7 5 -10
14 -6 21 4 6 8 10 9 8 1 -2 8 -11 15 -20z m-39 -12 c0 -3 -4 -8 -10 -11 -5 -3
-10 -1 -10 4 0 6 5 11 10 11 6 0 10 -2 10 -4z"/>
<path d="M11814 10605 c-4 -16 -1 -30 9 -40 21 -21 30 -19 24 5 -3 11 -1 20 4
20 16 0 10 15 -11 28 -17 10 -20 9 -26 -13z"/>
<path d="M13768 10007 c2 -10 5 -16 6 -15 1 2 7 10 13 18 10 13 8 16 -6 16
-13 0 -17 -6 -13 -19z"/>
<path d="M13900 9892 c0 -5 7 -9 15 -9 8 0 12 4 9 9 -3 4 -9 8 -15 8 -5 0 -9
-4 -9 -8z"/>
</g>
</svg>
