<?xml version="1.0" standalone="no"?>
<!DOCTYPE svg PUBLIC "-//W3C//DTD SVG 20010904//EN"
 "http://www.w3.org/TR/2001/REC-SVG-20010904/DTD/svg10.dtd">
<svg version="1.0" xmlns="http://www.w3.org/2000/svg"
 width="285.992708pt" height="286.268522pt" viewBox="0 0 285.992708 286.268522"
 preserveAspectRatio="xMidYMid meet">
<metadata>
Created by potrace 1.15, written by Peter Selinger 2001-2017
</metadata>
<g transform="translate(-867.007292,1107.970958) scale(0.100000,-0.100000)"
fill="#222222" stroke="none">
<path d="M9881 11062 c-8 -16 -6 -18 12 -17 12 1 23 9 25 18 5 23 -25 22 -37
-1z"/>
<path d="M9890 11000 c0 -11 7 -20 15 -20 17 0 18 2 9 24 -9 23 -24 20 -24 -4z"/>
<path d="M9856 10945 c-3 -8 -1 -15 4 -15 6 0 10 7 10 15 0 8 -2 15 -4 15 -2
0 -6 -7 -10 -15z"/>
<path d="M9715 10933 c-22 -8 -55 -13 -72 -11 -34 4 -37 0 -33 -40 1 -20 -2
-23 -19 -17 -20 6 -27 -7 -22 -39 3 -17 -11 -46 -20 -41 -5 4 -9 -1 -9 -9 0
-9 -5 -16 -11 -16 -5 0 -8 -4 -5 -9 3 -5 -1 -11 -9 -15 -11 -4 -15 2 -15 23 0
15 -9 36 -20 46 -20 18 -20 18 -14 1 4 -11 2 -21 -6 -26 -10 -6 -3 -18 24 -46
39 -40 45 -61 20 -66 -12 -2 -4 -15 29 -50 51 -54 60 -58 51 -24 -5 21 -3 24
15 19 12 -3 21 -11 21 -19 0 -45 95 -32 143 19 24 25 32 29 45 19 23 -16 104
-62 108 -62 2 0 4 8 4 19 0 10 -9 21 -20 24 -11 3 -20 13 -20 22 0 13 -7 15
-34 10 -24 -5 -36 -3 -42 7 -5 8 -17 18 -27 21 -11 4 -21 16 -24 27 -6 24 -33
27 -33 4 0 -11 -6 -14 -21 -9 -15 5 -19 4 -14 -5 5 -8 0 -7 -14 2 -29 18 -26
24 10 32 20 4 28 10 23 18 -5 7 -2 9 8 5 20 -7 31 3 18 18 -6 7 -2 19 13 36
33 35 36 50 23 101 l-11 45 -40 -14z"/>
<path d="M9770 10938 c0 -6 3 -8 6 -5 4 3 16 1 28 -5 19 -10 20 -10 7 5 -16
19 -41 23 -41 5z"/>
<path d="M10237 10670 c-4 -17 -9 -19 -31 -10 -23 8 -26 7 -26 -11 0 -16 -4
-19 -17 -14 -40 16 -55 17 -79 5 -13 -8 -27 -11 -30 -7 -4 3 -15 -5 -26 -18
-11 -14 -25 -22 -33 -18 -8 3 -15 0 -15 -6 0 -6 -11 -16 -25 -21 -14 -5 -25
-16 -25 -24 0 -20 -53 -39 -100 -34 -41 4 -42 3 -36 -24 4 -21 2 -28 -9 -28
-8 0 -15 5 -15 11 0 7 -9 9 -22 4 -13 -3 -37 -8 -55 -10 -18 -2 -37 -6 -43
-10 -5 -3 -24 1 -41 9 l-31 16 7 -38 c4 -20 11 -43 17 -49 14 -18 -5 -39 -42
-46 -37 -8 -49 -44 -25 -80 15 -23 14 -27 -2 -60 -13 -26 -23 -35 -35 -31 -12
4 -19 -2 -24 -20 -4 -19 -13 -26 -29 -26 -39 0 -55 -11 -55 -36 0 -24 -3 -26
-77 -28 -12 -1 -28 -7 -34 -13 -7 -7 -26 -13 -42 -13 -38 0 -100 -49 -85 -67
6 -8 8 -16 4 -20 -3 -3 1 -15 11 -25 15 -17 15 -18 -1 -18 -10 0 -14 -5 -10
-11 8 -14 -31 -3 -63 17 -19 12 -22 11 -26 -4 -4 -16 -5 -16 -6 1 -1 11 -9 17
-25 17 -14 0 -32 10 -40 22 -15 21 -16 21 -16 3 0 -10 9 -28 20 -40 15 -16 19
-29 14 -53 -4 -17 -10 -29 -15 -26 -15 9 -10 -33 5 -46 8 -6 12 -18 10 -25 -4
-9 0 -12 14 -9 14 4 22 -2 31 -23 11 -28 60 -63 87 -63 19 0 56 -77 49 -100
-4 -13 0 -20 14 -25 29 -9 65 -64 63 -94 -3 -42 12 -57 41 -44 14 7 28 21 32
32 3 12 11 21 16 21 5 0 9 15 9 34 0 32 3 35 33 38 24 2 33 8 35 26 2 12 10
22 19 22 11 0 14 6 9 25 -5 18 -2 27 9 31 8 4 15 18 15 33 0 47 21 76 62 89
22 7 43 10 47 7 5 -3 11 12 13 33 6 43 -11 74 -48 91 -17 7 -24 17 -20 26 3 9
0 15 -9 15 -7 0 -16 4 -19 9 -4 5 3 7 14 4 11 -3 31 -2 45 1 21 5 24 11 19 30
-4 16 -1 25 11 30 9 3 13 11 9 18 -5 8 -2 9 10 5 14 -5 17 -3 12 8 -4 10 1 15
15 15 37 0 101 40 112 71 7 17 19 29 29 29 10 0 18 7 18 14 0 13 4 13 35 0 44
-18 79 -18 95 1 8 10 26 15 49 13 31 -3 36 0 39 20 3 18 8 22 20 16 26 -11 82
-5 82 9 0 11 25 3 25 -9 0 -5 5 -17 11 -27 9 -16 14 -17 52 -5 23 7 42 19 42
27 0 9 7 11 25 7 17 -4 25 -2 25 6 1 7 9 3 19 -9 23 -28 77 -33 67 -7 -6 15
-4 15 17 1 21 -14 24 -13 33 1 6 9 28 17 55 19 24 2 55 5 69 6 19 2 26 -3 28
-20 3 -22 32 -33 32 -13 0 6 10 10 22 10 22 0 22 1 -6 28 -18 17 -30 23 -33
15 -5 -13 -64 20 -113 63 -14 12 -41 24 -60 28 -27 5 -40 14 -54 41 -26 47
-27 85 -4 85 11 0 18 7 18 19 0 23 -43 107 -69 136 -10 11 -24 30 -30 43 -15
28 -57 30 -64 2z"/>
<path d="M10813 10196 c5 -12 -1 -20 -16 -26 -16 -6 -17 -9 -5 -9 9 -1 24 -11
32 -22 14 -20 43 -41 76 -54 51 -21 80 -40 76 -51 -8 -21 46 -47 104 -51 50
-4 56 -2 56 15 0 12 -5 18 -13 15 -9 -3 -11 0 -8 10 4 10 -2 17 -19 21 -27 7
-34 20 -16 31 14 9 12 26 -2 24 -7 -1 -25 1 -40 5 -15 5 -35 3 -48 -4 -29 -15
-66 3 -86 42 -16 32 -102 82 -91 54z"/>
<path d="M11087 9963 c-3 -5 2 -25 11 -47 14 -35 17 -38 48 -33 29 5 35 2 53
-29 12 -19 21 -44 21 -54 0 -10 5 -22 10 -25 6 -4 10 5 10 19 0 17 6 26 16 26
10 0 14 7 12 23 -2 12 -9 21 -17 19 -8 -2 -18 3 -22 10 -7 11 -9 11 -9 0 0 -7
-17 3 -37 22 -21 20 -46 39 -55 42 -10 3 -18 12 -18 20 0 15 -16 19 -23 7z"/>
<path d="M11279 9903 c-13 -16 -12 -17 4 -4 9 7 17 15 17 17 0 8 -8 3 -21 -13z"/>
<path d="M11488 9846 c-10 -7 -18 -23 -18 -34 0 -14 -11 -27 -30 -37 -16 -9
-30 -17 -30 -18 0 -2 19 -4 42 -6 47 -2 59 10 51 51 -4 20 -1 29 11 34 9 3 16
10 16 15 0 13 -22 10 -42 -5z"/>
<path d="M11153 9758 c-6 -7 -14 -23 -17 -35 -7 -23 0 -28 32 -24 8 1 20 -6
27 -16 13 -17 14 -17 20 0 4 9 13 17 20 17 7 0 17 6 23 13 8 10 5 16 -11 27
-12 7 -29 15 -37 16 -8 1 -22 4 -31 8 -9 4 -20 1 -26 -6z"/>
<path d="M11371 9718 c10 -18 13 -20 17 -8 3 8 10 18 16 22 6 4 -2 8 -17 8
-26 0 -27 -2 -16 -22z"/>
<path d="M9269 9367 c-20 -12 -34 -26 -32 -32 4 -13 -83 -49 -97 -40 -6 4 -10
-4 -10 -18 0 -18 -9 -27 -37 -39 -23 -8 -48 -11 -63 -7 -41 11 -110 10 -110
-2 0 -8 -5 -8 -15 1 -12 10 -15 10 -15 -4 0 -8 11 -23 25 -32 14 -9 23 -20 20
-24 -3 -5 -1 -11 5 -15 17 -10 11 -25 -10 -25 -20 0 -27 -14 -11 -24 4 -3 8
-22 7 -43 -1 -31 -5 -39 -23 -41 -12 -2 -33 4 -47 14 -25 16 -26 15 -26 -4 0
-12 -9 -23 -19 -27 -17 -5 -19 -13 -15 -48 2 -23 7 -52 9 -64 3 -14 1 -23 -6
-23 -7 0 -9 -9 -5 -24 3 -12 2 -26 -2 -31 -4 -4 -7 -32 -7 -64 0 -50 -2 -56
-20 -54 -25 2 -51 -63 -33 -85 8 -10 7 -11 -7 -6 -11 5 -22 1 -29 -8 -6 -8
-16 -17 -23 -19 -8 -3 0 -23 22 -58 19 -30 32 -57 30 -61 -6 -10 30 -42 38
-33 4 3 7 2 7 -4 0 -20 93 -103 126 -112 19 -5 46 -23 60 -40 14 -17 36 -31
47 -31 12 0 30 -7 40 -15 16 -12 23 -11 50 5 21 13 36 16 48 10 12 -7 19 -6
22 3 3 9 10 9 28 -2 30 -18 139 -22 139 -5 0 8 19 10 66 7 l67 -5 -6 41 c-3
27 -1 41 6 41 7 0 7 4 -1 12 -18 18 -15 28 11 38 21 8 21 9 -5 9 -17 1 -28 7
-28 15 0 8 12 24 28 35 15 12 33 26 40 32 7 6 20 8 29 5 8 -4 22 -1 29 5 8 6
21 8 30 5 14 -5 15 -4 4 9 -10 13 -9 15 9 15 11 0 21 5 21 11 0 5 4 8 9 5 5
-3 11 1 15 9 3 8 12 15 21 15 8 0 15 7 15 15 0 8 9 19 20 25 16 9 18 15 10 30
-16 30 -12 40 19 40 17 0 32 4 35 8 9 15 -6 52 -17 45 -18 -11 -47 -11 -54 0
-4 6 -1 7 7 2 10 -6 12 -4 7 8 -4 11 -1 17 8 17 13 0 13 3 3 20 -7 11 -21 20
-32 20 -15 0 -16 -3 -6 -15 7 -8 8 -15 3 -15 -13 0 -103 100 -103 114 0 7 -15
20 -34 29 -26 12 -37 26 -45 52 -5 20 -20 44 -33 55 -13 11 -17 19 -10 20 6 0
12 9 12 20 0 21 -27 40 -58 40 -24 0 -35 25 -22 50 8 15 5 24 -15 44 -14 14
-32 23 -40 20 -10 -4 -15 0 -16 12 -1 11 -3 31 -5 47 -2 21 1 27 16 27 10 0
20 6 22 12 5 13 -41 108 -51 108 -3 0 -22 -11 -42 -23z"/>
</g>
</svg>
