<?xml version="1.0" standalone="no"?>
<!DOCTYPE svg PUBLIC "-//W3C//DTD SVG 20010904//EN"
 "http://www.w3.org/TR/2001/REC-SVG-20010904/DTD/svg10.dtd">
<svg version="1.0" xmlns="http://www.w3.org/2000/svg"
 width="500.037171pt" height="752.555582pt" viewBox="0 0 500.037171 752.555582"
 preserveAspectRatio="xMidYMid meet">
<metadata>
Created by potrace 1.15, written by Peter Selinger 2001-2017
</metadata>
<g transform="translate(-781.000000,1393.000000) scale(0.100000,-0.100000)"
fill="#222222" stroke="none">
<path d="M11170 13920 c0 -5 7 -10 16 -10 8 0 12 5 9 10 -3 6 -10 10 -16 10
-5 0 -9 -4 -9 -10z"/>
<path d="M11131 13879 c-16 -13 -22 -26 -18 -40 6 -23 -19 -52 -60 -69 -13 -5
-23 -16 -23 -25 0 -8 -7 -15 -16 -15 -8 0 -13 -4 -9 -10 3 -5 -12 -18 -34 -30
l-40 -20 -34 20 c-19 12 -39 20 -43 18 -5 -1 -19 3 -31 10 -19 11 -23 10 -23
-3 0 -17 -21 -20 -36 -5 -7 7 -18 2 -34 -15 -16 -17 -34 -25 -59 -25 -23 -1
-47 -10 -65 -24 -23 -19 -34 -22 -57 -16 -22 7 -29 5 -29 -6 0 -8 -5 -14 -11
-14 -7 0 -9 -9 -5 -23 4 -16 -1 -31 -14 -45 -24 -25 -85 -39 -104 -23 -7 6
-15 8 -18 5 -3 -3 -23 2 -43 10 -45 19 -53 20 -37 4 15 -15 16 -32 2 -23 -6 3
-14 -5 -20 -19 -6 -16 -17 -26 -30 -26 -11 0 -20 -4 -20 -10 0 -5 -7 -10 -16
-10 -9 0 -34 -10 -55 -22 -32 -18 -39 -27 -39 -53 0 -37 -49 -88 -50 -52 -1 6
-15 21 -33 33 -18 11 -31 26 -29 34 2 8 -3 10 -13 6 -11 -4 -34 12 -71 49 -31
30 -60 55 -66 55 -6 0 -3 -9 7 -20 16 -18 16 -20 2 -20 -9 0 -21 9 -27 20 -6
12 -28 36 -48 55 -34 31 -38 32 -44 14 -4 -10 -15 -19 -24 -19 -9 0 -23 -8
-30 -17 -10 -13 -16 -15 -22 -6 -13 20 -36 -1 -24 -23 13 -25 17 -74 8 -96 -4
-9 -5 -22 -1 -28 8 -13 -64 -170 -78 -170 -5 0 -6 -11 -3 -25 5 -20 3 -25 -12
-25 -15 0 -18 -6 -14 -30 3 -20 0 -30 -9 -30 -8 0 -4 -9 9 -23 12 -13 22 -29
22 -35 0 -15 13 -15 27 -1 21 21 56 -54 58 -122 2 -33 -1 -61 -5 -64 -4 -3 -6
-19 -4 -37 4 -33 -26 -78 -53 -78 -18 0 -17 -15 2 -30 29 -24 59 -72 44 -70
-25 4 -42 0 -35 -7 7 -8 12 -9 54 -11 34 -3 22 -25 -16 -33 -26 -5 -36 -2 -50
15 -19 24 -52 41 -52 26 0 -11 25 -36 56 -57 17 -11 24 -25 24 -47 0 -18 5
-37 11 -43 18 -18 19 -83 2 -83 -8 0 -12 -4 -9 -9 3 -5 15 -7 26 -4 14 4 20 0
20 -11 0 -18 25 -22 35 -6 4 6 15 0 27 -16 15 -18 28 -24 43 -21 19 3 24 -2
29 -23 3 -17 13 -30 27 -33 17 -5 20 -11 15 -30 -5 -21 -2 -25 26 -31 17 -3
39 -12 47 -20 20 -17 89 -26 95 -11 2 5 20 -7 38 -27 37 -41 53 -48 46 -20 -4
14 1 17 27 16 18 -1 37 -4 43 -8 11 -6 42 4 76 26 36 23 43 32 39 48 -3 12 4
16 29 17 51 2 77 13 71 30 -5 13 -2 13 15 4 11 -6 23 -15 26 -20 8 -12 64 9
70 26 3 8 -2 13 -15 13 -11 0 -22 7 -25 15 -4 8 -14 15 -24 15 -16 0 -17 5
-11 28 5 16 15 38 22 51 12 19 12 24 -1 34 -17 14 -23 34 -16 54 4 11 10 11
26 3 11 -6 18 -15 15 -20 -3 -5 -1 -11 5 -15 6 -3 10 3 10 15 0 16 4 20 16 16
9 -3 20 -6 26 -6 6 0 8 -13 6 -30 -4 -25 1 -35 27 -54 26 -20 31 -30 27 -55
-2 -17 1 -38 8 -46 16 -19 -4 -47 -27 -38 -12 5 -14 3 -7 -8 4 -8 7 -21 6 -30
-1 -8 7 -24 18 -34 11 -10 20 -22 20 -27 0 -5 14 -23 32 -40 20 -19 28 -33 20
-36 -7 -2 -12 -20 -12 -40 0 -23 -8 -44 -22 -59 -18 -20 -20 -27 -11 -43 11
-16 8 -20 -17 -29 -17 -5 -30 -17 -30 -25 0 -9 -6 -16 -12 -16 -7 -1 -3 -9 9
-19 24 -20 21 -31 -8 -31 -14 0 -18 -7 -16 -30 1 -16 8 -32 15 -35 6 -2 12
-16 12 -30 0 -17 4 -24 11 -19 6 3 15 1 19 -6 5 -8 18 -10 40 -5 30 7 31 8 14
18 -23 13 -34 28 -28 39 3 4 26 -8 51 -27 25 -19 49 -35 53 -35 14 0 70 79 64
93 -4 10 4 14 33 13 31 -2 39 -6 41 -24 2 -12 -1 -22 -7 -22 -17 0 9 -59 31
-71 14 -8 23 -7 34 2 13 10 17 10 24 0 4 -8 13 -11 19 -7 6 4 19 2 29 -3 23
-12 62 -3 62 14 0 8 8 11 19 8 10 -3 22 0 25 6 4 6 16 11 28 11 14 0 18 5 14
15 -3 9 0 15 9 15 9 0 15 10 16 23 0 12 3 16 6 10 10 -27 31 -12 38 27 7 39 7
39 31 23 22 -14 28 -14 52 -2 30 16 47 37 47 59 0 8 15 18 33 24 28 8 32 13
32 41 0 24 5 34 20 38 24 6 26 36 5 78 -16 30 -12 54 7 43 7 -5 9 0 6 14 -4
15 -2 22 8 22 19 0 18 26 -1 34 -19 7 -20 26 0 26 18 0 31 24 38 73 6 37 26
67 46 67 16 0 25 22 11 30 -9 6 -9 13 1 31 10 19 14 21 17 8 3 -14 8 -15 34
-5 32 12 60 56 73 116 4 19 12 41 17 48 8 9 5 12 -11 12 -14 0 -21 6 -21 20 0
11 5 20 10 20 6 0 10 11 10 24 0 14 5 28 10 31 18 11 11 66 -12 98 -21 30 -11
30 24 0 9 -8 27 -13 40 -11 18 2 23 9 23 32 1 24 7 32 34 44 24 9 37 10 44 3
16 -16 30 -13 23 4 -4 10 1 15 15 15 11 0 18 4 15 9 -3 5 -1 23 5 40 9 25 8
38 -5 65 -9 19 -23 37 -32 40 -8 3 -13 10 -9 16 10 16 -14 50 -35 50 -11 0
-27 13 -37 31 l-18 30 -5 -28 c-5 -27 -8 -28 -59 -28 -43 0 -55 3 -59 18 -2 9
-15 20 -28 23 -14 4 -29 14 -34 24 -13 24 -13 33 0 25 6 -4 17 -1 26 5 12 10
18 9 33 -8 25 -30 46 -9 24 24 -9 15 -11 24 -4 24 6 0 11 -4 11 -10 0 -5 8
-10 18 -10 9 0 23 -9 30 -20 7 -11 17 -20 24 -20 6 0 3 9 -7 20 -10 11 -15 23
-12 27 10 9 87 -28 115 -56 22 -22 25 -23 34 -7 5 9 13 14 18 11 11 -7 60 23
78 47 9 12 21 15 46 11 24 -4 37 0 47 12 8 9 25 28 38 41 19 20 21 26 11 39
-7 8 -10 15 -6 15 9 0 -23 60 -49 92 -20 24 -23 25 -28 9 -5 -22 -59 -32 -127
-24 -28 3 -55 1 -62 -4 -7 -6 -39 -18 -70 -28 -48 -15 -63 -16 -87 -5 -23 9
-38 9 -64 1 -33 -11 -35 -14 -30 -49 4 -29 0 -41 -17 -57 -12 -11 -25 -18 -29
-15 -3 3 -7 -5 -9 -16 -3 -21 -42 -66 -42 -49 0 4 -11 0 -25 -9 -28 -18 -65
-8 -65 19 0 7 -13 26 -28 42 -48 48 -55 71 -56 181 l-2 104 -32 26 c-18 15
-32 30 -32 35 0 6 -8 16 -55 68 -20 22 -19 40 3 32 14 -5 13 -3 -3 10 -17 14
-18 18 -5 27 8 5 23 10 34 10 12 0 16 5 12 16 -3 9 -6 38 -6 65 0 39 -5 55
-23 72 -13 12 -26 27 -28 34 -3 8 -12 5 -28 -8z m39 -913 c0 -3 -4 -8 -10 -11
-5 -3 -10 -1 -10 4 0 6 5 11 10 11 6 0 10 -2 10 -4z m-1500 -346 c0 -5 -4 -10
-10 -10 -5 0 -10 5 -10 10 0 6 5 10 10 10 6 0 10 -4 10 -10z m1028 -511 c2
-10 -4 -15 -15 -14 -26 2 -44 15 -37 26 9 15 48 6 52 -12z"/>
<path d="M12464 12115 c-9 -22 1 -29 15 -11 8 10 9 16 1 21 -5 3 -13 -1 -16
-10z"/>
<path d="M12404 12096 c21 -32 20 -36 -3 -36 -11 0 -23 -5 -27 -11 -3 -6 -15
-9 -25 -6 -14 4 -19 0 -19 -14 0 -10 -4 -19 -10 -19 -5 0 -25 -16 -44 -35 -24
-24 -45 -35 -64 -35 -21 0 -32 -7 -40 -25 -6 -14 -17 -25 -23 -25 -7 0 -20 -7
-29 -15 -12 -11 -24 -12 -49 -5 -30 8 -32 7 -25 -12 5 -18 3 -20 -15 -15 -18
4 -21 1 -21 -24 0 -22 -5 -29 -20 -29 -13 0 -20 -7 -20 -19 0 -30 -24 -43 -66
-35 -24 4 -35 3 -31 -3 4 -6 -2 -22 -13 -36 -11 -14 -20 -33 -20 -42 0 -13 -6
-16 -25 -11 -29 7 -32 0 -9 -26 15 -16 15 -18 1 -24 -9 -3 -13 -12 -10 -20 3
-8 0 -14 -6 -14 -6 0 -11 -7 -11 -15 0 -8 -6 -15 -12 -16 -7 0 1 -6 17 -12 33
-13 39 -32 15 -47 -16 -10 -16 -10 27 -14 17 -2 53 -37 53 -53 0 -7 9 -13 20
-13 11 0 20 -4 20 -9 0 -16 49 13 59 36 10 23 70 41 91 28 6 -4 17 -2 25 5 9
8 15 8 20 0 11 -18 78 -41 88 -31 5 5 25 7 43 4 29 -5 33 -3 28 11 -5 13 1 16
39 16 43 0 45 1 51 36 5 22 3 41 -5 50 -14 17 2 19 20 2 12 -11 13 -9 6 7 -5
11 -9 36 -11 55 -1 19 -11 69 -23 110 -11 41 -21 79 -21 84 0 5 -10 0 -23 -12
-29 -28 -49 -28 -66 -1 -11 19 -11 21 3 16 18 -7 22 18 7 42 -6 10 -5 27 5 49
7 19 12 38 9 42 -7 11 42 60 59 60 8 0 19 7 26 15 7 9 29 15 51 15 39 0 39 0
37 39 -1 31 -6 42 -26 51 -25 11 -25 11 -8 -14z"/>
<path d="M12487 12024 c-11 -11 -8 -52 3 -59 6 -4 8 -10 5 -15 -3 -4 2 -13 10
-20 11 -9 19 -7 40 14 14 14 27 25 29 23 3 -1 7 1 10 4 3 3 -7 18 -23 33 -23
22 -29 24 -28 11 3 -26 -22 -30 -31 -5 -4 11 -11 18 -15 14z"/>
<path d="M9944 11962 c-16 -8 -34 -22 -40 -30 -6 -8 -16 -12 -22 -8 -7 4 -12
2 -12 -3 0 -6 12 -11 28 -11 15 0 38 -7 50 -16 26 -18 52 -12 52 12 0 11 5 14
18 9 9 -4 28 -10 40 -13 13 -2 34 -15 47 -28 33 -33 71 -32 77 1 6 27 -15 65
-28 52 -4 -4 -14 -1 -23 6 -9 8 -48 21 -87 29 -64 13 -74 13 -100 0z"/>
<path d="M11618 11947 c-7 -8 -19 -12 -26 -9 -11 3 -18 -36 -13 -75 1 -7 -2
-13 -6 -13 -5 0 -9 -10 -10 -22 0 -13 1 -17 4 -10 8 20 33 14 33 -8 0 -12 -6
-20 -12 -19 -28 3 -37 -2 -31 -17 4 -10 -4 -25 -21 -40 -14 -14 -26 -32 -26
-40 0 -10 -6 -14 -14 -11 -9 4 -16 -4 -19 -23 -8 -37 -34 -62 -58 -55 -11 4
-19 2 -19 -4 0 -16 -62 -13 -86 3 -18 13 -24 13 -49 0 -16 -8 -34 -13 -41 -10
-8 3 -11 -1 -7 -10 6 -16 -22 -20 -32 -4 -9 15 -35 12 -35 -5 0 -31 -44 -104
-70 -115 -14 -6 -37 -31 -50 -55 -13 -25 -30 -47 -36 -49 -7 -3 -10 -14 -7
-25 6 -22 -13 -78 -33 -98 -15 -15 -34 -17 -34 -4 0 5 -8 12 -18 15 -22 7 -46
76 -26 76 19 0 28 19 34 70 4 36 9 44 23 42 21 -4 22 22 2 61 -8 16 -14 38
-12 50 1 14 -8 27 -30 41 -18 12 -30 27 -28 34 7 20 -6 42 -26 42 -10 0 -19
-5 -19 -11 0 -5 -4 -8 -9 -5 -16 10 -41 -5 -41 -25 0 -26 -18 -24 -42 6 -11
14 -24 23 -29 20 -5 -4 -9 -2 -9 3 0 5 -7 9 -15 9 -8 0 -15 -5 -15 -11 0 -6
-5 -5 -12 2 -7 7 -17 12 -22 12 -6 0 -5 -5 1 -11 7 -7 9 -24 7 -39 -6 -27 5
-44 48 -74 20 -15 20 -15 2 -61 -19 -46 -20 -47 -56 -42 -29 4 -38 2 -38 -9 0
-10 -7 -13 -25 -8 -21 5 -25 3 -25 -15 0 -12 6 -21 15 -21 8 0 15 -7 15 -15 0
-7 7 -18 15 -23 13 -7 14 -13 3 -38 -7 -17 -19 -29 -25 -27 -8 3 -13 -4 -13
-16 0 -12 -6 -21 -14 -21 -8 0 -17 -7 -20 -15 -4 -12 -10 -13 -24 -6 -11 6
-24 6 -33 0 -20 -13 -26 -11 -48 12 l-20 22 -12 -25 c-9 -21 -8 -30 6 -52 10
-14 23 -26 30 -26 6 0 20 -9 30 -20 10 -11 21 -17 26 -14 5 2 17 -13 29 -36
11 -22 27 -40 35 -40 15 0 21 -38 17 -106 -2 -23 3 -33 23 -44 26 -14 33 -30
13 -30 -7 0 -5 -7 5 -17 8 -10 15 -35 15 -55 0 -20 3 -42 8 -49 5 -9 1 -11
-14 -7 -27 7 -27 8 3 -46 14 -25 25 -47 25 -50 0 -9 -35 -12 -56 -5 -12 4 -56
4 -98 0 -45 -4 -76 -3 -76 2 0 5 -18 7 -39 4 -29 -3 -41 -1 -45 9 -3 8 -11 14
-18 14 -16 1 -69 47 -66 57 2 4 -10 25 -27 45 -22 28 -35 36 -51 32 -12 -3
-25 -1 -28 5 -4 6 -17 11 -30 11 -13 0 -39 16 -59 37 -21 20 -37 31 -37 25 0
-21 -37 -12 -54 13 -20 30 -20 35 -1 35 27 0 16 31 -14 43 -18 6 -32 21 -36
34 -3 13 -14 32 -25 43 -11 11 -17 26 -14 34 3 8 1 17 -5 20 -6 4 -8 26 -4 54
4 37 2 51 -11 61 -15 13 -15 15 1 27 17 13 17 14 0 8 -9 -3 -23 -1 -31 5 -15
13 -39 6 -76 -21 -28 -20 -73 -26 -107 -15 -17 6 -23 3 -28 -13 -4 -13 -12
-19 -21 -16 -8 3 -35 -6 -60 -19 -34 -18 -51 -22 -64 -15 -9 5 -20 6 -24 3 -7
-8 -35 27 -36 45 0 6 7 12 15 12 26 0 -15 48 -51 60 -21 7 -33 19 -36 35 -3
13 -1 22 3 19 5 -3 9 0 9 7 0 6 7 17 16 24 15 11 15 14 1 36 -8 13 -18 41 -21
61 -6 33 -5 37 11 32 16 -6 15 -5 -2 9 -25 19 -45 11 -45 -18 0 -24 -35 -62
-44 -47 -8 13 -84 13 -91 1 -4 -5 -11 -7 -16 -4 -5 4 -9 -2 -9 -13 0 -10 -13
-28 -29 -40 -25 -18 -34 -20 -60 -11 -23 8 -35 8 -45 0 -8 -7 -25 -9 -42 -5
-19 5 -25 4 -20 -4 4 -7 2 -21 -4 -32 -13 -24 -71 -28 -89 -6 -6 8 -22 16 -34
19 -21 6 -21 5 -4 -8 18 -13 18 -14 -3 -25 -33 -18 -62 -21 -78 -7 -13 10 -15
9 -10 -10 5 -18 -1 -23 -41 -34 -25 -7 -55 -18 -66 -26 -11 -7 -34 -13 -52
-13 -25 0 -33 -4 -33 -18 0 -23 -30 -52 -54 -52 -12 0 -15 -4 -9 -15 5 -8 7
-33 5 -55 -3 -33 -8 -40 -26 -40 -13 0 -30 -14 -46 -38 -14 -20 -31 -41 -38
-45 -9 -6 -11 -19 -6 -40 3 -18 3 -29 -2 -24 -4 4 -14 -7 -21 -24 -11 -27 -17
-30 -39 -25 -20 5 -30 2 -41 -14 -10 -13 -21 -19 -33 -15 -13 4 -20 0 -25 -16
-5 -16 -13 -20 -34 -17 -24 3 -28 -1 -42 -45 -16 -48 -16 -49 7 -58 13 -4 24
-14 24 -20 0 -8 -4 -9 -14 0 -10 8 -21 7 -45 -5 -33 -16 -45 -49 -13 -37 15 6
15 5 2 -9 -8 -9 -26 -30 -39 -47 -13 -17 -32 -31 -42 -31 -37 0 -87 -28 -105
-60 -12 -19 -30 -34 -46 -37 -21 -4 -28 -11 -28 -28 0 -18 4 -21 24 -18 34 7
69 -14 63 -38 -3 -10 -3 -19 -1 -19 7 0 34 60 34 77 0 10 12 32 26 48 22 26
24 27 19 8 -4 -13 -4 -32 0 -42 6 -20 36 -22 43 -3 5 17 22 15 22 -3 0 -8 7
-15 15 -15 8 0 15 -4 15 -10 0 -5 -7 -10 -15 -10 -13 0 -15 -8 -9 -37 3 -21
12 -43 20 -49 19 -15 18 -30 -2 -38 -9 -3 -14 -13 -10 -21 3 -8 1 -17 -5 -21
-6 -3 -4 -11 7 -18 25 -19 10 -53 -29 -62 -18 -4 -71 -7 -119 -7 -82 1 -86 0
-76 -17 9 -14 17 -16 40 -9 34 9 78 -7 78 -28 0 -8 7 -22 16 -31 11 -10 13
-17 5 -20 -7 -2 -8 -9 -1 -21 6 -12 5 -29 -3 -50 -10 -27 -9 -34 3 -42 8 -5
23 -7 33 -5 9 2 17 -1 17 -8 0 -7 13 -25 29 -40 21 -20 35 -26 50 -21 14 4 23
1 27 -9 8 -20 33 -21 40 -1 7 17 64 21 64 5 0 -7 6 -7 19 0 25 13 32 -4 17
-42 -5 -15 -6 -31 -2 -35 5 -4 11 -2 13 5 3 6 16 12 29 12 15 0 24 6 24 15 0
19 4 19 41 -1 23 -11 34 -12 44 -4 10 8 15 8 20 0 4 -6 14 -9 23 -5 8 3 23 -3
34 -15 l19 -20 34 26 c19 14 39 23 44 19 6 -3 27 1 46 11 29 13 33 19 24 30
-13 16 -14 16 24 32 15 6 27 19 27 27 0 9 7 24 16 32 10 10 13 25 9 41 -5 20
-3 23 11 18 12 -4 15 -2 10 9 -4 11 1 15 19 15 14 0 32 11 44 26 13 17 26 24
37 20 11 -4 18 0 21 14 3 11 12 20 19 20 8 0 14 9 14 21 0 16 5 20 28 17 17
-2 26 2 24 10 -1 6 2 12 8 12 16 0 11 32 -7 46 -16 12 -14 13 20 14 20 0 37
-4 37 -9 0 -14 41 0 47 15 3 8 14 14 24 14 10 0 19 4 19 8 0 5 20 8 45 8 25
-1 45 -4 45 -8 0 -5 -7 -8 -16 -8 -9 0 -14 -6 -11 -12 2 -7 14 -12 26 -11 22
3 30 -20 11 -32 -15 -9 1 -58 25 -77 12 -10 25 -31 28 -48 6 -25 11 -30 35
-30 16 0 40 9 54 20 l25 19 24 -32 c33 -44 38 -60 23 -72 -17 -13 -7 -55 13
-55 10 0 14 7 10 19 -3 12 1 22 9 25 8 3 14 14 14 24 0 10 9 27 20 37 11 10
20 26 20 37 0 24 32 24 54 -1 13 -14 16 -28 11 -54 -5 -24 -2 -42 9 -59 17
-26 11 -68 -10 -68 -8 0 -14 -5 -14 -11 0 -7 21 -10 58 -7 52 3 57 5 62 28 11
53 40 5 32 -52 -4 -24 -9 -28 -38 -28 -38 0 -42 -10 -19 -53 13 -25 12 -32 -3
-63 -12 -25 -21 -34 -34 -31 -11 3 -18 0 -18 -10 0 -8 -6 -13 -12 -10 -7 2
-21 0 -32 -5 -12 -7 -22 -6 -29 1 -15 15 -27 14 -27 -3 0 -23 -72 -1 -95 28
-12 15 -28 26 -38 26 -12 0 -17 8 -17 28 0 34 -30 65 -54 56 -18 -7 -23 -59
-6 -69 15 -9 12 -45 -4 -45 -12 0 -14 -14 -13 -65 1 -36 -1 -65 -5 -65 -5 0
-7 -3 -7 -7 5 -29 -4 -53 -20 -58 -17 -5 -17 -9 -6 -43 13 -37 13 -37 -18 -44
-58 -12 -91 -86 -35 -80 17 2 34 -4 47 -17 11 -11 29 -25 40 -31 15 -8 20 -17
16 -33 -5 -17 1 -28 25 -45 l31 -23 20 25 c11 14 27 26 35 26 8 0 14 9 14 20
0 24 -6 24 71 -1 73 -24 105 -25 129 -4 9 8 23 15 31 15 8 0 20 9 27 20 17 27
32 25 32 -5 0 -14 5 -25 11 -25 5 0 7 -5 4 -10 -4 -6 7 -13 24 -16 17 -4 31
-11 31 -17 0 -6 3 -7 6 -4 4 4 19 -2 34 -13 15 -11 30 -17 34 -13 3 3 6 1 6
-5 0 -15 -15 -15 -41 -2 -17 9 -19 7 -19 -17 0 -16 -7 -39 -16 -51 -13 -19
-13 -26 -3 -38 7 -9 11 -38 10 -70 -2 -46 1 -58 20 -73 l22 -17 -39 -41 c-37
-38 -38 -42 -25 -66 13 -22 13 -27 -3 -42 -17 -17 -17 -31 -6 -177 0 -3 9 -4
20 -1 11 3 20 0 20 -6 0 -6 9 -11 20 -11 11 0 20 5 20 11 0 5 5 7 10 4 6 -3
10 -2 10 4 0 7 8 7 23 2 28 -11 43 -3 49 24 2 11 10 19 17 17 7 -1 21 0 31 3
18 6 24 36 32 170 3 37 5 40 33 40 35 0 49 20 59 80 9 55 21 72 38 57 19 -15
62 13 54 35 -3 8 -3 20 1 26 4 7 8 17 8 22 0 6 12 11 28 13 16 2 27 -2 27 -8
0 -7 -7 -10 -15 -6 -9 3 -15 0 -15 -8 0 -18 40 -9 57 13 11 14 14 14 22 1 6
-8 18 -15 27 -15 10 0 19 -6 21 -12 3 -7 0 -13 -6 -13 -16 0 -13 -27 3 -33 18
-7 41 -47 27 -47 -5 0 -12 9 -16 19 -3 11 -13 18 -23 16 -9 -2 -23 -4 -29 -4
-19 -1 -16 -41 3 -41 10 0 14 -7 12 -17 -4 -19 -9 -20 -47 -8 -16 5 -21 4 -17
-4 4 -6 -4 -13 -18 -17 -18 -4 -35 1 -60 21 -20 15 -36 24 -36 21 0 -18 22
-46 35 -46 25 0 17 -25 -18 -57 -35 -32 -73 -47 -83 -32 -10 16 -37 10 -30 -7
3 -8 1 -24 -5 -35 -12 -24 4 -51 27 -42 8 3 14 -1 14 -10 0 -20 27 -29 50 -17
30 16 60 -8 60 -48 0 -20 4 -31 10 -27 6 3 13 -1 16 -9 3 -9 15 -16 25 -16 13
0 16 5 12 16 -3 8 4 29 17 46 14 19 20 38 16 52 -3 13 0 30 7 39 10 14 14 14
25 1 7 -8 9 -14 4 -14 -13 0 -22 -49 -11 -56 5 -3 9 -14 9 -25 0 -10 5 -19 10
-19 7 0 10 -22 8 -57 -3 -53 0 -60 29 -92 17 -19 37 -46 44 -60 6 -14 16 -35
22 -46 13 -24 18 -67 20 -163 l2 -74 -32 -13 c-25 -11 -33 -20 -33 -39 0 -20
8 -29 33 -39 42 -18 55 -35 54 -72 -1 -35 29 -122 51 -147 15 -18 9 -54 -8
-43 -5 3 -10 1 -10 -5 0 -7 -8 -9 -21 -5 -16 5 -20 3 -17 -6 3 -9 18 -13 39
-12 80 5 116 4 141 -2 19 -5 36 -2 53 9 13 9 36 16 50 16 14 0 25 6 25 13 0 8
9 22 20 32 15 13 17 22 10 36 -14 25 -12 32 5 25 8 -3 19 3 25 13 7 15 6 20
-6 25 -11 4 -14 14 -11 27 5 20 -7 30 -41 33 -30 3 -92 30 -92 41 0 5 -3 20
-6 32 -4 14 1 27 15 39 11 10 17 22 14 27 -3 5 5 7 18 5 15 -2 23 2 22 10 -2
6 4 12 12 12 9 0 19 8 22 18 4 9 13 22 21 28 11 8 12 15 4 30 -6 11 -9 59 -8
106 3 80 5 89 35 127 18 23 38 38 44 35 7 -3 0 4 -15 17 -32 29 -44 65 -27 85
17 20 -25 64 -61 64 -33 0 -80 61 -80 103 0 30 16 32 73 8 34 -13 47 -8 47 22
1 20 4 19 30 -12 16 -19 27 -37 25 -41 -2 -4 2 -16 10 -26 14 -18 14 -17 15
11 1 25 2 27 11 13 5 -10 17 -18 26 -18 10 0 14 -6 10 -19 -3 -12 1 -22 10
-25 10 -4 14 -16 11 -36 -3 -19 0 -31 10 -35 21 -8 34 4 27 26 -4 12 -1 19 7
20 7 1 20 2 28 3 25 2 23 35 -4 71 -25 32 -33 65 -20 78 4 3 16 -8 28 -25 26
-39 52 -50 43 -19 -7 29 6 27 86 -14 37 -19 87 -38 110 -42 52 -8 107 -30 107
-43 0 -6 15 -16 33 -24 27 -11 35 -11 48 0 12 11 18 11 28 1 9 -9 14 -9 20 2
7 10 18 5 48 -23 32 -28 49 -36 79 -36 22 0 54 -9 72 -20 18 -11 45 -20 60
-20 15 0 34 -4 42 -10 9 -6 17 -5 21 2 5 7 25 -3 55 -28 69 -56 93 -85 94
-114 0 -31 27 -50 55 -39 11 4 39 8 63 8 39 1 43 3 37 21 -3 11 -3 20 2 20 14
-1 43 -27 43 -39 0 -12 10 -14 77 -15 35 -1 43 2 43 17 0 19 11 22 27 6 6 -6
13 -7 17 -1 6 10 76 -8 76 -20 0 -13 40 -9 41 5 1 6 4 1 8 -12 10 -37 37 -50
55 -26 8 11 13 28 10 37 -4 12 2 19 19 23 22 6 25 13 30 73 3 37 1 71 -4 77
-16 17 -10 33 11 28 14 -4 20 0 20 11 0 9 5 16 11 16 6 0 9 7 5 15 -3 9 0 15
9 15 7 0 17 -9 20 -20 3 -11 10 -20 15 -20 5 0 7 7 4 15 -4 8 -1 15 6 15 26 0
37 26 34 85 -1 33 2 66 8 73 7 8 6 22 -5 44 -9 18 -12 35 -8 38 13 9 8 51 -6
46 -7 -3 -17 4 -23 14 -6 11 -19 20 -29 20 -17 0 -18 4 -8 36 9 31 8 37 -6 46
-14 7 -16 17 -11 50 6 32 4 39 -6 33 -8 -5 -11 -4 -6 3 3 6 2 13 -4 17 -12 8
-13 45 -1 45 12 0 23 44 15 63 -3 8 -16 20 -29 27 -15 8 -31 32 -42 62 -10 28
-32 63 -50 79 -18 15 -33 35 -33 44 0 9 -9 15 -23 15 -25 0 -63 42 -69 77 -1
11 3 27 10 36 9 10 10 17 2 22 -6 4 -2 14 12 25 20 17 21 19 5 20 -10 0 -15 5
-12 10 3 6 -2 10 -12 11 -10 0 -3 5 16 11 23 6 37 6 44 -1 6 -6 18 -11 26 -11
11 0 12 3 4 11 -9 9 -6 17 8 33 16 16 22 18 28 8 6 -11 12 -10 25 4 9 9 28 16
41 17 34 0 61 57 43 89 -6 13 -13 29 -14 35 -1 7 -16 27 -33 44 -17 17 -31 36
-31 42 0 7 -5 4 -11 -6 -10 -18 -11 -18 -25 0 -13 17 -13 17 -14 -1 0 -14 -5
-17 -22 -12 -13 3 -29 6 -35 6 -7 0 -13 11 -13 23 0 30 -29 57 -62 57 -14 0
-31 7 -38 15 -7 8 -16 13 -20 10 -11 -7 -71 66 -67 80 5 13 -39 35 -68 35 -13
0 -25 -6 -28 -14 -3 -7 -21 -16 -40 -20 -46 -9 -71 -37 -63 -72 6 -23 4 -26
-13 -21 -24 6 -46 -16 -37 -39 11 -28 -22 -53 -153 -120 -51 -26 -69 -30 -88
-23 -34 13 -97 11 -111 -3 -6 -6 -20 -12 -29 -13 -10 -1 -46 -5 -79 -9 -43 -5
-64 -4 -69 4 -5 8 -10 8 -21 -1 -8 -6 -14 -9 -14 -5 0 3 -15 -3 -32 -14 -34
-20 -69 -26 -82 -13 -13 14 -125 9 -131 -4 -2 -7 -13 -13 -24 -13 -11 0 -23
-5 -27 -11 -6 -10 -30 -7 -70 8 -11 4 -15 3 -11 -4 5 -8 -2 -8 -23 0 -26 10
-36 9 -61 -5 -38 -22 -67 -12 -99 35 -13 19 -29 33 -36 30 -7 -2 -17 4 -22 14
-8 13 -5 24 9 42 14 17 16 28 9 41 -5 10 -11 48 -13 85 -4 61 -3 66 14 62 24
-6 25 17 4 67 -15 36 -28 136 -17 136 3 0 13 -7 23 -16 42 -38 120 21 86 64
-8 10 -7 16 1 21 12 7 11 28 -1 49 -10 14 14 16 41 3 26 -13 86 -31 104 -31 9
0 19 -6 21 -12 3 -8 6 -6 6 4 1 10 -8 22 -20 28 -16 9 -18 14 -8 26 6 8 9 27
6 44 -5 23 -1 36 22 61 16 17 34 28 40 25 7 -5 11 5 11 28 0 29 28 96 68 161
4 6 5 19 3 29 -2 15 2 18 20 13 16 -4 19 -3 10 6 -17 17 -13 72 8 98 15 19 17
28 8 44 -9 18 -9 19 6 6 12 -9 17 -10 17 -2 0 7 14 17 30 22 20 7 31 18 32 32
1 12 2 29 4 37 1 8 2 23 3 33 1 11 9 17 25 17 32 0 50 23 40 52 -4 13 -7 28
-6 35 2 6 -2 14 -8 18 -5 3 -10 19 -10 34 0 15 -7 36 -15 47 -18 24 -19 64 -1
64 16 0 30 40 31 90 0 27 6 37 27 47 24 12 42 51 37 79 -1 5 -1 26 0 47 1 34
5 40 36 53 23 9 35 21 35 34 0 24 6 25 27 5 8 -9 12 -23 9 -32 -11 -27 3 -54
22 -43 25 13 55 24 72 25 8 1 21 3 28 4 6 0 12 8 12 16 0 8 4 15 9 15 5 0 11
9 14 20 3 11 1 20 -4 20 -12 0 -59 83 -59 106 0 10 -8 33 -18 49 -22 36 -34
109 -20 123 6 6 4 20 -6 39 -11 23 -12 33 -3 42 6 6 8 11 5 11 -4 0 -13 -6
-20 -13z m-754 -693 c24 -9 20 -44 -5 -44 -11 0 -18 4 -14 9 3 5 1 12 -5 16
-13 8 -13 25 -1 25 5 0 16 -3 25 -6z m-11 -358 c4 -10 1 -13 -9 -9 -15 6 -19
23 -5 23 5 0 11 -7 14 -14z m-1254 -844 c0 -24 -1 -25 -9 -7 -12 28 -12 47 0
40 6 -3 10 -18 9 -33z m251 -532 c5 0 10 -5 10 -11 0 -5 -4 -7 -10 -4 -12 8
-13 -5 -1 -24 6 -9 3 -32 -6 -60 -8 -25 -15 -52 -15 -58 -2 -17 -8 -16 -30 4
-18 16 -17 17 13 42 l31 26 -22 38 c-13 22 -17 37 -10 37 6 0 8 5 5 10 -4 6
-4 19 0 28 6 15 8 14 16 -5 4 -13 13 -23 19 -23z m278 -60 c-25 -34 -40 -35
-44 -3 -3 18 2 22 29 26 17 2 33 5 35 5 1 1 -7 -12 -20 -28z m-151 -26 c-9 -9
-28 6 -21 18 4 6 10 6 17 -1 6 -6 8 -13 4 -17z m2633 -464 c0 -5 -2 -10 -4
-10 -3 0 -8 5 -11 10 -3 6 -1 10 4 10 6 0 11 -4 11 -10z m-2775 -100 c3 -5 1
-10 -4 -10 -6 0 -11 5 -11 10 0 6 2 10 4 10 3 0 8 -4 11 -10z m412 -146 c-9
-9 -28 6 -21 18 4 6 10 6 17 -1 6 -6 8 -13 4 -17z m33 -34 c0 -5 -8 -10 -17
-10 -15 0 -16 2 -3 10 19 12 20 12 20 0z m560 -260 c0 -5 -2 -10 -4 -10 -3 0
-8 5 -11 10 -3 6 -1 10 4 10 6 0 11 -4 11 -10z m-69 -583 c-1 -12 -15 -9 -19
4 -3 6 1 10 8 8 6 -3 11 -8 11 -12z"/>
<path d="M9731 11926 c-9 -11 -8 -15 5 -20 25 -10 62 -7 70 5 4 6 -1 9 -13 7
-11 -2 -27 3 -35 10 -12 10 -18 10 -27 -2z"/>
<path d="M10240 11920 c0 -5 5 -10 10 -10 6 0 10 5 10 10 0 6 -4 10 -10 10 -5
0 -10 -4 -10 -10z"/>
<path d="M10270 11901 c0 -5 -13 -12 -28 -16 -19 -4 -28 -12 -28 -25 0 -11 5
-20 11 -20 5 0 21 -9 35 -19 19 -16 22 -22 12 -34 -10 -11 -9 -17 2 -26 8 -7
13 -18 10 -25 -3 -7 7 -18 21 -24 15 -7 24 -8 20 -2 -3 5 1 10 10 10 9 0 15
-6 12 -12 -2 -7 3 -18 11 -24 28 -21 7 -40 -39 -38 -57 3 -72 -10 -64 -54 l6
-34 -39 6 -40 5 8 -32 c10 -42 29 -85 29 -69 1 8 20 -2 46 -23 25 -21 42 -41
39 -46 -3 -5 3 -9 13 -10 10 0 13 -3 6 -6 -7 -2 -13 -12 -13 -20 0 -9 -6 -13
-14 -10 -9 4 -17 -2 -21 -14 -4 -12 -15 -19 -31 -19 -19 0 -24 -5 -24 -26 0
-14 -4 -23 -10 -19 -5 3 -10 1 -10 -4 0 -6 -16 -11 -36 -11 -49 0 -40 -21 17
-39 24 -8 47 -19 51 -25 4 -6 8 4 8 22 0 36 15 43 25 11 9 -29 50 -22 49 9 -1
22 10 29 20 13 9 -13 46 -1 46 15 0 7 -10 39 -21 71 -12 31 -18 58 -13 60 28
10 36 25 38 69 1 54 34 101 63 90 12 -5 14 -1 10 16 -3 13 -9 40 -12 61 -6 30
-11 37 -31 37 -27 0 -32 17 -9 26 8 4 15 15 15 26 0 12 6 19 18 17 9 -1 31 -1
47 0 26 1 27 3 12 12 -9 6 -15 14 -12 19 3 5 -7 16 -23 24 -15 8 -33 26 -40
40 -14 32 -64 66 -70 48 -6 -18 -27 -15 -47 8 -19 21 -35 26 -35 11z m90 -151
c0 -18 -3 -19 -20 -10 -22 12 -18 30 6 30 8 0 14 -9 14 -20z"/>
<path d="M12471 11888 c-1 -24 14 -31 29 -13 9 10 9 15 1 15 -6 0 -11 -6 -12
-12 0 -7 -4 -4 -9 7 -7 16 -9 17 -9 3z"/>
<path d="M10217 11693 c-3 -4 7 -17 22 -27 l26 -20 -20 25 c-11 13 -21 25 -21
27 -1 2 -4 0 -7 -5z"/>
<path d="M9850 11526 c0 -2 7 -7 16 -10 8 -3 12 -2 9 4 -6 10 -25 14 -25 6z"/>
<path d="M9876 11483 c-9 -22 -8 -23 14 -23 15 0 21 -9 26 -39 6 -38 7 -39 37
-30 16 5 33 7 36 4 4 -2 13 0 20 5 10 6 7 11 -12 21 -14 8 -46 28 -70 46 -37
25 -47 28 -51 16z"/>
<path d="M11570 11457 c0 -7 12 -14 27 -15 26 -2 26 -1 7 13 -24 18 -34 19
-34 2z"/>
<path d="M9836 11453 c-11 -11 -6 -23 9 -23 8 0 15 4 15 9 0 13 -16 22 -24 14z"/>
<path d="M10400 11440 c19 -13 30 -13 30 0 0 6 -10 10 -22 10 -19 0 -20 -2 -8
-10z"/>
<path d="M10026 11342 c1 -15 3 -30 3 -34 1 -3 9 -4 20 -1 10 3 22 0 25 -6 4
-6 12 -11 18 -11 6 0 3 9 -6 19 -10 11 -15 25 -10 32 5 8 3 10 -5 5 -7 -5 -20
-1 -29 8 -16 14 -17 13 -16 -12z"/>
<path d="M7980 10711 c0 -17 -4 -32 -9 -35 -9 -6 18 -89 33 -103 5 -4 6 0 3
10 -6 15 -4 16 16 6 20 -11 21 -11 8 4 -7 10 -10 17 -5 17 5 0 1 5 -8 11 -10
5 -18 17 -18 26 0 13 3 14 11 6 8 -8 17 -6 34 9 20 17 21 23 12 49 -9 24 -17
29 -44 29 -30 0 -33 -3 -33 -29z"/>
<path d="M10984 10235 c-4 -10 2 -28 15 -45 26 -35 27 -44 4 -29 -13 7 -26 7
-45 0 -21 -8 -25 -15 -21 -32 5 -19 4 -20 -15 -10 -17 9 -22 8 -26 -7 -3 -10
-21 -24 -38 -32 l-33 -14 37 -3 c25 -3 44 -12 57 -29 10 -13 23 -24 27 -24 19
-1 55 -37 57 -57 0 -12 4 -20 8 -17 16 9 43 -11 69 -53 17 -27 30 -39 33 -31
3 8 6 6 6 -5 1 -14 6 -17 24 -11 30 9 32 11 17 29 -8 10 -9 15 -1 15 22 0 10
18 -19 29 -27 9 -35 23 -31 57 1 6 -10 21 -24 34 -30 28 -31 36 -5 43 17 4 20
12 17 44 -2 21 -9 48 -15 59 -6 12 -8 24 -5 28 3 3 -2 6 -13 6 -11 0 -25 13
-34 32 -17 37 -37 47 -46 23z"/>
<path d="M9145 10051 c-3 -5 4 -26 16 -45 17 -29 18 -35 5 -30 -14 5 -14 2 1
-39 12 -33 21 -44 32 -39 9 3 5 -4 -9 -15 -24 -20 -27 -32 -20 -88 0 -5 7 -2
14 7 7 10 16 15 19 12 3 -3 11 -3 17 1 8 5 7 11 -2 22 -10 12 -9 17 5 28 21
15 15 57 -12 89 -15 18 -15 19 0 13 12 -4 18 1 22 19 2 14 0 24 -8 24 -6 0
-18 11 -25 25 -13 25 -44 34 -55 16z"/>
<path d="M11125 10030 c3 -5 8 -10 11 -10 2 0 4 5 4 10 0 6 -5 10 -11 10 -5 0
-7 -4 -4 -10z"/>
<path d="M8801 9976 c-10 -12 -6 -15 20 -21 36 -8 64 10 39 25 -22 14 -46 12
-59 -4z"/>
<path d="M9117 9920 c-3 -12 0 -20 7 -20 6 0 17 9 24 20 11 17 10 20 -7 20
-10 0 -21 -9 -24 -20z"/>
<path d="M9317 9915 c-9 -13 -30 -30 -45 -37 -17 -9 -28 -22 -29 -38 -1 -14
-3 -34 -5 -45 -3 -17 2 -19 41 -16 26 2 41 -1 37 -7 -6 -10 15 -22 40 -22 23
0 35 44 15 51 -9 4 -20 3 -26 0 -5 -4 -20 -8 -33 -9 -19 -1 -21 2 -12 19 6 10
16 18 22 16 16 -3 33 70 22 93 -8 17 -10 17 -27 -5z"/>
<path d="M11219 9904 c-13 -16 -11 -19 34 -45 25 -14 23 21 -2 43 -18 15 -21
15 -32 2z"/>
<path d="M9386 9884 c-3 -9 -6 -29 -6 -45 0 -23 4 -29 23 -29 16 0 22 6 23 25
1 14 -2 25 -7 25 -5 0 -9 6 -9 14 0 22 -17 28 -24 10z"/>
<path d="M8078 9775 c-6 -30 -2 -32 12 -6 6 11 6 22 1 25 -5 3 -11 -5 -13 -19z"/>
<path d="M9160 9756 c0 -2 7 -9 15 -16 12 -10 15 -10 15 4 0 9 -7 16 -15 16
-8 0 -15 -2 -15 -4z"/>
<path d="M9290 9092 c0 -6 5 -14 10 -17 6 -3 10 -17 10 -30 0 -23 34 -65 52
-65 4 0 8 18 8 41 0 24 4 38 10 34 6 -3 10 -1 10 6 0 7 -10 9 -27 6 -20 -4
-35 1 -50 16 -13 11 -23 15 -23 9z"/>
<path d="M12663 9043 c-7 -3 -13 -16 -13 -30 0 -21 4 -24 21 -20 29 8 119 -51
115 -76 -3 -22 -39 -48 -53 -39 -5 4 -18 26 -28 48 -13 32 -22 40 -36 37 -28
-8 -23 -30 11 -45 17 -7 30 -18 30 -25 0 -20 33 -33 53 -21 10 5 25 7 33 4 26
-10 16 43 -18 95 -21 32 -38 49 -49 47 -9 -2 -25 4 -35 13 -11 9 -25 14 -31
12z"/>
<path d="M9365 8954 c4 -11 7 -28 7 -39 -2 -29 27 -55 62 -55 45 0 116 -68
116 -110 0 -16 9 -50 21 -74 21 -45 32 -146 16 -146 -4 0 -5 -5 -1 -11 4 -8
-1 -9 -16 -4 l-22 7 19 -38 c47 -90 47 -92 31 -111 -15 -17 -22 -42 -19 -70 1
-15 57 -18 66 -3 3 5 12 7 19 4 9 -3 16 5 21 23 3 15 12 31 18 35 9 6 9 10 0
16 -8 5 -10 17 -4 37 9 34 -7 85 -26 85 -13 0 -18 17 -15 52 1 9 -7 19 -17 23
-11 3 -25 13 -32 21 -11 13 -9 14 13 9 14 -4 29 -2 32 3 9 15 10 55 1 75 -5
13 -4 16 9 11 10 -4 18 0 22 10 3 9 12 16 20 16 24 0 15 36 -11 48 -20 9 -25
19 -25 46 0 31 -5 37 -55 66 -30 17 -55 36 -55 42 0 5 -16 1 -36 -11 -42 -25
-44 -25 -44 -6 0 8 -7 15 -15 15 -9 0 -18 7 -21 15 -4 8 -15 15 -26 15 -11 0
-29 5 -40 11 -19 10 -20 9 -13 -7z"/>
<path d="M9715 8850 c-3 -5 3 -10 14 -10 12 0 21 5 21 10 0 6 -6 10 -14 10 -8
0 -18 -4 -21 -10z"/>
<path d="M9690 8819 c0 -5 5 -7 10 -4 6 3 10 8 10 11 0 2 -4 4 -10 4 -5 0 -10
-5 -10 -11z"/>
<path d="M12751 8814 c0 -11 3 -14 6 -6 3 7 2 16 -1 19 -3 4 -6 -2 -5 -13z"/>
<path d="M12765 8760 c3 -5 8 -10 11 -10 2 0 4 5 4 10 0 6 -5 10 -11 10 -5 0
-7 -4 -4 -10z"/>
<path d="M10150 8524 c0 -43 -15 -74 -36 -74 -8 0 -12 -5 -9 -11 4 -6 -2 -13
-14 -16 -12 -3 -21 -13 -21 -25 0 -11 -5 -18 -11 -16 -6 2 -10 8 -10 13 0 15
-30 45 -46 45 -7 0 -13 5 -13 10 0 6 -13 9 -29 8 -16 -1 -27 -6 -24 -11 3 -5
-5 -16 -17 -24 -17 -12 -19 -17 -9 -24 7 -4 14 -18 15 -31 1 -13 5 -31 9 -42
6 -13 3 -21 -8 -28 -18 -10 -24 -48 -7 -48 5 0 7 -6 4 -14 -3 -8 -20 -14 -40
-14 -41 0 -55 -9 -34 -22 11 -7 8 -10 -12 -10 -17 0 -28 5 -28 14 0 23 29 84
42 89 7 3 -8 15 -35 26 -48 22 -54 41 -14 41 18 0 19 2 7 10 -13 8 -12 10 3
10 10 0 25 6 33 14 7 8 19 16 25 18 8 3 9 15 4 36 -6 28 -9 31 -26 22 -16 -9
-17 -15 -9 -31 13 -23 7 -35 -19 -42 -13 -3 -18 0 -15 8 3 7 -2 15 -10 18 -9
4 -16 3 -16 -1 0 -4 -17 -25 -37 -47 -28 -31 -36 -47 -34 -70 2 -16 8 -33 15
-37 6 -5 -5 -5 -24 -1 -19 3 -36 10 -38 15 -2 4 -8 8 -13 8 -4 0 -6 -7 -2 -16
4 -11 0 -15 -13 -14 -40 5 -45 1 -34 -20 8 -15 7 -26 -1 -42 -14 -25 -14 -26
6 -48 8 -9 21 -35 29 -57 13 -37 13 -43 -1 -54 -9 -8 -13 -24 -11 -41 3 -15 1
-28 -4 -28 -18 0 -6 -28 27 -60 19 -18 32 -37 29 -41 -2 -4 1 -11 7 -14 6 -4
8 -18 5 -31 -5 -17 -2 -26 9 -30 8 -4 15 -15 15 -25 0 -10 7 -39 16 -65 15
-45 15 -49 -6 -86 -20 -36 -21 -40 -6 -63 9 -13 16 -30 16 -38 0 -11 66 -67
104 -88 48 -26 66 -32 99 -34 22 -1 42 -7 46 -13 20 -33 116 -45 148 -19 18
14 62 -18 75 -54 6 -18 17 -29 27 -28 30 3 37 -1 38 -23 1 -13 7 -24 13 -26 5
-2 10 -10 10 -17 0 -8 11 -26 25 -41 14 -15 28 -43 31 -63 5 -26 18 -45 48
-69 66 -53 169 -124 161 -113 -14 23 11 9 35 -19 52 -62 60 -70 86 -76 16 -4
39 -1 59 9 31 15 34 15 55 -7 19 -21 25 -23 62 -13 36 9 43 8 54 -9 7 -10 17
-24 22 -29 5 -6 12 -17 15 -25 3 -10 6 -11 6 -2 1 6 9 12 19 12 10 0 24 6 30
12 10 10 17 10 31 1 14 -9 23 -9 35 0 25 18 11 42 -44 77 -46 30 -68 66 -51
83 14 14 -12 58 -31 53 -13 -3 -18 2 -18 16 0 11 -5 39 -12 61 -9 31 -9 42 -1
44 7 3 9 12 6 20 -5 12 -2 15 10 10 8 -3 18 -1 20 6 7 18 -12 47 -30 47 -9 0
-29 14 -45 30 l-28 30 -6 -30 c-7 -35 -25 -38 -81 -15 -33 14 -37 14 -49 -2
-12 -17 -13 -17 -14 3 0 12 -7 27 -15 34 -8 6 -13 21 -12 32 1 14 -12 30 -45
52 -25 17 -51 42 -58 56 l-12 25 -29 -33 c-16 -17 -31 -32 -34 -32 -12 0 -85
51 -85 60 0 5 6 7 14 4 11 -4 11 3 -2 40 -11 31 -23 46 -37 48 -12 2 -19 9
-17 20 1 9 -11 42 -29 72 -27 48 -38 58 -80 73 -27 10 -49 21 -49 25 0 4 -13
16 -30 28 -27 19 -29 19 -23 3 5 -15 2 -14 -16 5 -12 12 -25 23 -29 23 -4 1
-20 3 -37 5 -19 2 -39 15 -56 35 -15 19 -29 28 -32 21 -8 -12 -47 -4 -47 9 0
14 -49 53 -73 59 -13 4 -22 14 -22 25 0 15 -7 20 -30 21 -17 0 -36 4 -43 8
-15 9 -16 43 0 48 7 3 6 12 -6 30 -17 26 -8 47 14 33 6 -4 9 3 7 16 -2 13 4
32 15 43 27 29 23 62 -7 70 -16 4 -25 13 -25 26 0 10 -4 22 -10 25 -5 3 -10
15 -10 27 0 30 26 6 34 -32 3 -17 12 -30 20 -30 8 0 23 -16 35 -36 25 -42 25
-44 5 -44 -11 0 -14 -5 -9 -17 4 -10 9 -25 12 -33 2 -8 22 -28 44 -43 38 -27
39 -28 39 -7 0 13 5 20 12 18 11 -4 62 24 96 52 6 6 12 29 12 50 0 33 3 40 20
40 13 0 20 7 20 20 0 19 1 20 37 5 29 -12 38 -13 45 -3 9 14 7 25 -13 74 -10
26 -10 36 3 62 14 27 14 33 2 43 -10 8 -11 15 -4 24 7 8 7 21 1 38 -8 21 -7
27 8 32 14 4 18 15 17 50 -1 55 -26 64 -26 9z m-380 -208 c0 -24 -16 -27 -35
-6 -18 19 -17 20 8 20 17 0 27 -5 27 -14z m220 4 c0 -5 -6 -10 -14 -10 -8 0
-18 5 -21 10 -3 6 3 10 14 10 12 0 21 -4 21 -10z"/>
<path d="M9717 8481 c-2 -9 0 -28 6 -41 8 -21 11 -22 14 -7 5 20 19 23 26 5 3
-8 6 -6 6 5 1 9 -6 17 -15 17 -10 0 -14 6 -11 14 3 8 0 17 -8 19 -7 3 -15 -2
-18 -12z"/>
<path d="M9930 8480 c-9 -6 -10 -10 -3 -10 6 0 15 5 18 10 8 12 4 12 -15 0z"/>
<path d="M9890 8469 c0 -5 5 -7 10 -4 6 3 10 8 10 11 0 2 -4 4 -10 4 -5 0 -10
-5 -10 -11z"/>
<path d="M9490 8266 c0 -14 5 -28 11 -32 6 -3 9 -15 6 -25 -3 -11 -1 -17 4
-13 5 3 9 12 9 21 0 11 6 14 25 9 31 -8 34 15 5 44 -29 29 -60 26 -60 -4z"/>
<path d="M11134 8175 c3 -8 9 -22 12 -30 3 -8 1 -15 -5 -15 -6 0 -11 -9 -11
-20 0 -13 7 -20 20 -20 11 0 20 3 21 8 0 4 2 18 3 31 2 13 -4 33 -13 43 -19
22 -35 24 -27 3z"/>
<path d="M9435 8160 c3 -5 8 -10 11 -10 2 0 4 5 4 10 0 6 -5 10 -11 10 -5 0
-7 -4 -4 -10z"/>
<path d="M9480 8140 c0 -5 5 -10 10 -10 6 0 10 5 10 10 0 6 -4 10 -10 10 -5 0
-10 -4 -10 -10z"/>
<path d="M9456 8121 c-3 -4 2 -17 10 -27 9 -10 13 -14 10 -7 -4 6 -1 13 6 15
6 2 8 10 4 16 -8 14 -23 16 -30 3z"/>
<path d="M11272 8110 c-7 -11 -19 -20 -27 -20 -8 0 -15 -6 -15 -12 0 -7 -12
-18 -26 -25 -21 -10 -32 -9 -54 2 -16 8 -30 20 -32 26 -2 7 -20 14 -40 16 -29
3 -37 0 -41 -17 -3 -12 -11 -18 -19 -15 -10 4 -12 -6 -10 -44 l4 -49 -54 -25
c-96 -46 -95 -103 2 -88 55 9 90 27 90 46 0 10 10 15 29 15 23 0 30 5 34 27 3
15 3 42 0 59 -3 19 0 34 7 39 8 5 11 0 9 -16 -1 -13 1 -36 5 -51 5 -15 3 -35
-4 -48 -7 -13 -8 -26 -2 -33 5 -7 12 -29 15 -51 5 -34 4 -38 -12 -33 -16 4
-19 -1 -19 -29 0 -26 10 -46 44 -83 24 -27 44 -56 44 -65 0 -10 7 -31 16 -48
13 -25 14 -32 2 -39 -10 -7 -8 -17 11 -53 13 -25 32 -48 43 -52 11 -3 24 -16
30 -29 6 -13 19 -26 29 -28 11 -3 19 -10 19 -17 0 -6 -8 -9 -18 -6 -13 4 -21
-2 -29 -24 -6 -17 -18 -30 -26 -30 -8 0 -17 -6 -20 -14 -4 -9 -14 -12 -25 -9
-11 2 -23 -1 -27 -8 -12 -19 -15 -88 -4 -94 5 -4 7 -22 3 -42 -5 -29 -3 -39
11 -49 10 -8 15 -17 12 -21 -4 -4 9 -23 29 -44 25 -26 32 -39 24 -44 -9 -6 -6
-13 10 -25 17 -13 24 -29 26 -60 1 -30 7 -46 20 -53 24 -14 53 -49 54 -65 0
-7 -7 -23 -15 -36 -20 -29 -11 -71 18 -91 24 -17 41 -20 33 -6 -3 5 3 11 14
14 11 3 23 1 26 -5 3 -5 14 -2 26 8 13 13 21 15 26 7 4 -6 23 -13 42 -15 49
-4 68 -43 43 -87 -10 -17 -24 -31 -31 -31 -7 0 -11 -4 -8 -9 4 -5 1 -11 -5
-13 -7 -2 -9 -13 -5 -26 8 -24 26 -30 26 -8 0 10 9 9 40 -7 l41 -20 23 23 c30
27 38 64 18 84 -13 12 -13 18 -3 30 8 9 11 26 7 41 -3 14 -1 33 6 44 9 15 8
22 -5 36 -20 19 -22 45 -4 45 6 0 4 5 -5 11 -22 12 -24 63 -4 81 11 11 8 18
-20 45 -19 17 -34 35 -34 40 0 5 -9 16 -20 26 -11 9 -20 24 -20 34 0 9 -8 25
-17 35 -9 10 -18 38 -19 63 -2 27 -15 67 -36 105 -30 56 -32 62 -15 71 9 5 17
19 17 29 0 11 6 20 14 20 18 0 37 47 35 90 -3 83 0 167 7 198 5 25 2 36 -11
46 -15 11 -24 37 -28 87 -1 10 -8 14 -17 12 -13 -3 -17 3 -16 29 0 18 -4 41
-9 52 -7 15 -5 17 12 12 16 -5 22 -1 27 16 10 41 7 47 -31 54 -21 4 -43 11
-49 15 -6 5 -18 7 -25 4 -8 -3 -28 4 -45 14 -27 17 -33 27 -39 73 -9 76 -13
84 -41 96 -31 15 -27 16 -42 -8z"/>
<path d="M10397 7634 c6 -16 25 -14 30 2 2 5 -6 10 -16 11 -14 1 -18 -3 -14
-13z"/>
<path d="M10511 7566 c-9 -11 -7 -15 8 -19 13 -3 21 1 24 14 6 22 -15 26 -32
5z"/>
<path d="M10610 7559 c0 -7 -12 -10 -27 -7 -26 4 -28 1 -28 -31 0 -26 5 -37
18 -39 9 -2 17 -10 17 -17 0 -27 23 -27 45 0 17 22 26 26 41 20 10 -5 24 -9
29 -10 6 0 16 -4 23 -8 7 -5 12 -3 12 5 0 7 -8 18 -19 25 -13 8 -17 19 -13 39
5 26 4 27 -31 21 -20 -3 -39 -1 -42 4 -8 13 -25 11 -25 -2z"/>
<path d="M10763 7436 c1 -25 5 -46 8 -46 3 0 11 -11 17 -25 10 -21 9 -30 -4
-51 -15 -22 -15 -24 -1 -18 9 3 24 1 33 -4 14 -8 24 -4 44 17 27 26 48 67 30
56 -6 -3 -10 3 -10 13 0 21 -23 46 -33 36 -9 -10 -47 6 -47 20 0 7 -9 21 -19
30 -19 17 -19 17 -18 -28z"/>
<path d="M11147 7224 c-9 -10 -9 -44 1 -44 4 0 14 5 22 10 13 8 13 11 -1 25
-8 8 -18 12 -22 9z"/>
<path d="M11000 6691 c0 -3 14 -14 30 -23 25 -14 30 -15 30 -3 0 8 0 18 0 22
0 4 -13 8 -30 9 -16 1 -30 -1 -30 -5z"/>
<path d="M11440 6633 c1 -10 7 -29 14 -42 l13 -24 10 30 c9 25 8 31 -8 41 -25
16 -29 15 -29 -5z"/>
<path d="M11041 6614 c-1 -12 -8 -25 -17 -28 -24 -9 -6 -26 27 -26 29 0 39 13
18 25 -6 4 -14 17 -19 29 l-9 21 0 -21z"/>
<path d="M11095 6580 c11 -13 25 -30 32 -37 7 -8 10 -20 6 -28 -3 -11 -1 -13
10 -9 9 3 18 -2 21 -13 9 -26 53 -55 77 -51 l21 3 -20 25 c-11 14 -29 41 -39
60 -15 26 -28 36 -58 42 -21 5 -46 14 -54 21 -9 6 -7 1 4 -13z"/>
<path d="M11311 6526 c-18 -10 -24 -23 -27 -55 -5 -56 -1 -61 41 -50 27 8 40
6 60 -7 17 -11 25 -13 25 -4 0 7 6 10 13 7 9 -3 12 11 12 54 0 41 -4 59 -12
59 -7 0 -13 -4 -13 -10 0 -15 -51 -12 -64 4 -9 13 -15 13 -35 2z"/>
<path d="M11869 6524 c-12 -14 -11 -16 5 -13 11 2 21 10 24 17 5 17 -13 15
-29 -4z"/>
<path d="M11720 6528 c0 -2 6 -23 14 -48 12 -40 16 -45 41 -42 15 2 33 -2 41
-9 11 -9 14 -7 15 12 1 13 2 36 3 50 2 24 -2 27 -42 33 -47 6 -72 8 -72 4z"/>
<path d="M11061 6511 c-8 -6 -9 -11 -3 -15 6 -3 14 -1 17 5 9 14 2 20 -14 10z"/>
<path d="M11934 6494 c3 -9 6 -20 6 -25 0 -5 4 -9 9 -9 5 0 8 8 6 18 -2 9 -4
20 -4 25 -1 4 -6 7 -12 7 -6 0 -8 -7 -5 -16z"/>
<path d="M11975 6460 c-3 -5 1 -10 9 -10 8 0 18 5 21 10 3 6 -1 10 -9 10 -8 0
-18 -4 -21 -10z"/>
</g>
</svg>
