<?xml version="1.0" standalone="no"?>
<!DOCTYPE svg PUBLIC "-//W3C//DTD SVG 20010904//EN"
 "http://www.w3.org/TR/2001/REC-SVG-20010904/DTD/svg10.dtd">
<svg version="1.0" xmlns="http://www.w3.org/2000/svg"
 width="792.333333pt" height="684.054934pt" viewBox="0 0 792.333333 684.054934"
 preserveAspectRatio="xMidYMid meet">
<metadata>
Created by potrace 1.15, written by Peter Selinger 2001-2017
</metadata>
<g transform="translate(-615.558040,1307.591280) scale(0.100000,-0.100000)"
fill="#222222" stroke="none">
<path d="M8335 13070 c-4 -6 -13 -9 -21 -6 -8 3 -14 2 -14 -2 0 -5 -16 -9 -36
-9 -20 -1 -48 -7 -61 -14 -19 -10 -26 -10 -32 -1 -5 9 -12 7 -26 -8 -13 -14
-29 -20 -49 -18 l-31 3 0 -53 c0 -45 -4 -56 -25 -72 l-25 -19 23 -30 c12 -17
22 -37 22 -45 0 -8 8 -20 18 -25 11 -7 13 -13 7 -18 -12 -9 -13 -58 -2 -69 7
-7 -22 -28 -55 -40 -10 -3 -18 -12 -18 -19 0 -8 -13 -13 -35 -13 -19 0 -35 4
-35 9 0 5 -11 9 -25 9 -14 0 -25 -5 -25 -11 0 -7 -10 -9 -27 -5 -15 4 -29 3
-33 -4 -7 -11 -64 12 -75 31 -12 19 -52 9 -65 -16 -7 -14 -19 -25 -26 -25 -7
0 -16 -9 -19 -21 -4 -11 -13 -18 -20 -16 -7 3 -18 0 -24 -6 -8 -8 -11 -4 -11
16 0 15 4 27 10 27 5 0 7 7 4 15 -4 8 -1 22 6 30 7 8 10 22 6 30 -3 9 0 15 9
15 21 0 19 12 -5 33 -25 21 -46 22 -54 2 -3 -8 -14 -15 -25 -15 -10 0 -21 -9
-24 -20 -8 -33 -48 -25 -77 15 -22 31 -29 35 -60 30 -22 -4 -47 0 -67 10 -30
15 -33 15 -52 -4 -11 -11 -18 -27 -15 -35 3 -8 1 -17 -5 -21 -6 -3 -11 -15
-11 -26 0 -16 -5 -19 -20 -14 -14 5 -20 2 -20 -9 0 -9 -4 -16 -10 -16 -5 0
-12 -17 -16 -37 -10 -55 20 -158 57 -195 16 -16 29 -37 29 -47 0 -9 6 -26 14
-36 12 -17 12 -21 -3 -31 -13 -10 -20 -7 -43 19 -26 30 -27 31 -28 10 0 -13
10 -33 21 -44 40 -40 45 -139 7 -139 -14 0 -18 -5 -14 -16 3 -9 6 -18 6 -20 0
-2 9 -4 20 -4 15 0 20 7 20 28 0 24 4 28 23 26 12 -1 25 -3 30 -3 11 -1 9 -61
-3 -61 -14 0 -7 -105 8 -123 11 -13 10 -17 -5 -26 -17 -10 -16 -11 5 -17 22
-6 27 -19 35 -81 2 -23 -1 -33 -10 -33 -7 0 -13 -4 -13 -10 0 -5 5 -10 11 -10
5 0 15 -13 20 -30 6 -16 18 -30 26 -30 8 0 11 5 7 12 -4 7 -3 8 5 4 6 -4 9
-12 6 -17 -4 -5 24 -9 66 -9 66 0 71 1 66 20 -3 11 -1 18 4 14 15 -9 10 18 -7
37 -17 19 -23 72 -11 107 6 17 5 22 -7 22 -18 0 -20 18 -6 56 10 25 11 26 29
10 11 -10 22 -13 25 -8 6 10 -58 72 -74 72 -6 0 -31 20 -58 45 -32 30 -56 45
-74 45 -15 0 -30 5 -33 11 -10 15 2 24 17 11 23 -18 103 -25 119 -10 8 7 28
21 44 30 17 10 29 24 29 33 -1 8 9 18 22 21 18 5 24 13 24 34 0 27 1 28 43 22
38 -5 41 -4 28 11 -9 12 -10 17 -2 17 8 0 10 8 6 20 -5 15 -3 18 9 14 9 -3 16
-1 16 5 0 14 -37 15 -45 1 -8 -13 -45 -13 -45 -1 0 6 5 13 10 16 6 3 10 19 10
34 0 15 6 33 12 39 10 10 10 15 0 21 -8 5 -12 19 -10 32 4 23 5 23 12 4 5 -11
14 -34 22 -52 18 -39 18 -47 0 -40 -10 4 -13 1 -9 -9 3 -8 12 -13 20 -10 9 4
19 -6 29 -29 16 -39 20 -80 5 -56 -6 10 -10 10 -16 1 -4 -7 2 -18 14 -26 12
-8 21 -20 21 -26 0 -6 23 -32 51 -59 32 -31 49 -54 46 -64 -4 -8 -2 -17 3 -20
6 -4 7 -17 4 -30 -3 -13 2 -37 12 -56 13 -25 19 -56 19 -114 0 -72 -2 -82 -23
-99 l-24 -19 31 -19 c17 -11 31 -26 31 -33 0 -14 -58 -26 -66 -13 -3 4 -16 8
-29 8 -25 0 -25 0 -8 -34 15 -32 15 -36 -1 -51 -9 -9 -16 -30 -16 -46 0 -24
-7 -32 -37 -45 -21 -10 -44 -16 -50 -15 -7 1 -13 -7 -13 -19 0 -11 -7 -20 -15
-20 -8 0 -15 -7 -15 -15 0 -8 -7 -15 -15 -15 -8 0 -15 4 -15 8 0 4 -9 8 -20 8
-11 0 -20 -6 -20 -13 0 -7 5 -13 11 -13 5 0 7 -5 4 -10 -3 -6 -19 -8 -34 -5
-23 4 -30 1 -34 -15 -3 -11 -16 -24 -29 -29 -27 -10 -68 -55 -68 -75 0 -8 -7
-16 -15 -20 -12 -4 -11 -10 8 -29 12 -13 32 -29 45 -36 12 -6 22 -19 22 -28 0
-10 6 -14 20 -10 10 3 24 -1 30 -8 9 -10 6 -16 -9 -25 -16 -8 -21 -8 -21 2 0
11 -2 10 -9 0 -9 -15 -69 46 -96 97 -17 34 -27 38 -45 17 -6 -8 -17 -13 -24
-10 -16 6 -15 45 2 63 7 7 12 23 10 35 -3 21 -18 24 -50 11 -12 -4 -26 2 -43
19 -14 14 -28 26 -30 26 -2 0 -1 -16 2 -36 l6 -37 -51 5 c-29 3 -54 2 -58 -1
-13 -13 -50 -5 -72 17 -17 18 -26 21 -36 13 -9 -8 -22 -8 -40 -1 -28 10 -35 0
-12 -19 16 -14 9 -61 -10 -61 -8 0 -14 -4 -14 -10 0 -19 -30 -10 -46 15 -11
17 -25 25 -44 25 -15 0 -33 7 -40 15 -16 19 -30 19 -30 1 0 -9 -17 -16 -45
-21 -25 -3 -43 -10 -40 -15 12 -19 -7 -83 -26 -87 -11 -3 -19 -9 -19 -14 0
-16 -26 -10 -44 10 -15 16 -23 18 -47 9 -16 -6 -39 -8 -50 -5 -16 4 -20 1 -18
-16 3 -22 -16 -67 -32 -77 -5 -3 10 -26 31 -50 22 -25 35 -46 30 -48 -6 -2
-10 -21 -10 -42 0 -21 -7 -45 -15 -54 -8 -8 -12 -21 -9 -29 3 -8 1 -18 -5 -22
-6 -3 -11 -15 -11 -26 0 -11 -6 -22 -13 -25 -9 -3 -12 -16 -9 -34 2 -17 0 -30
-4 -30 -5 0 -10 -24 -10 -52 -1 -29 -2 -73 -3 -96 -2 -29 3 -48 13 -55 21 -17
38 -87 25 -103 -7 -9 -7 -19 1 -34 6 -12 9 -28 6 -35 -2 -7 2 -16 11 -19 13
-5 14 -18 9 -79 -7 -62 -12 -76 -39 -105 -21 -21 -38 -31 -50 -28 -14 3 -17 0
-13 -11 10 -26 -13 -90 -39 -107 -18 -12 -25 -25 -25 -47 0 -24 -4 -30 -15
-25 -17 6 -21 -29 -6 -53 6 -10 5 -21 -4 -33 -9 -15 -10 -29 -2 -61 5 -23 14
-47 19 -54 15 -19 48 -147 43 -164 -3 -9 1 -22 10 -29 8 -7 15 -20 15 -29 0
-30 24 -51 62 -54 21 -2 40 -6 44 -9 3 -4 6 -34 7 -67 2 -58 1 -61 -22 -61
-20 0 -21 -2 -11 -15 11 -13 8 -15 -18 -15 -17 0 -37 -3 -46 -6 -21 -8 -32
-70 -16 -99 9 -17 9 -28 0 -44 -9 -18 -8 -30 8 -61 13 -28 16 -42 8 -50 -7 -7
-7 -16 2 -30 9 -14 9 -26 3 -39 -6 -10 -7 -28 -4 -41 l6 -23 -35 26 c-19 15
-46 27 -60 27 -21 0 -24 -4 -21 -23 4 -20 -1 -24 -34 -33 l-38 -9 44 -30 c54
-37 70 -60 54 -76 -10 -10 -17 -9 -32 5 -20 18 -20 17 0 -35 14 -36 18 -64 14
-90 -8 -44 -48 -89 -80 -89 -18 0 -22 -4 -18 -20 3 -10 8 -18 12 -17 16 5 50
-44 48 -70 -2 -24 1 -28 26 -28 19 1 27 -4 27 -17 0 -10 6 -18 14 -18 8 0 21
-3 29 -6 21 -8 29 24 12 49 -21 30 -19 40 5 25 11 -7 20 -21 20 -30 0 -10 5
-18 11 -18 7 0 9 -12 6 -32 -5 -35 9 -78 30 -91 7 -4 13 -14 13 -21 0 -7 9
-21 20 -31 19 -18 20 -17 20 5 0 18 4 21 23 16 12 -3 25 -6 29 -6 4 0 10 -9
13 -20 7 -22 51 -28 57 -9 6 17 69 20 93 5 11 -7 32 -15 48 -18 35 -7 36 12 2
48 -18 19 -23 33 -19 50 4 14 2 30 -4 37 -14 17 -3 67 17 75 26 11 24 53 -5
110 -22 42 -24 55 -14 67 10 12 8 26 -10 75 -12 33 -28 60 -35 60 -7 0 -21 12
-31 27 -28 43 -105 123 -119 123 -8 0 -12 13 -11 35 1 26 5 35 19 35 14 0 16
4 7 19 -15 28 -12 33 10 19 16 -10 24 -10 40 0 12 7 24 11 28 8 12 -7 26 6 60
60 23 37 32 63 32 93 0 31 9 58 33 96 39 65 60 80 89 64 25 -13 41 4 35 39 -4
23 7 30 19 11 11 -18 24 12 17 40 -6 24 -5 23 35 -8 22 -18 45 -30 51 -27 5 4
12 2 16 -4 3 -6 18 3 32 21 21 25 32 30 57 26 33 -5 65 22 66 56 0 9 4 17 9
17 5 0 29 18 52 40 24 22 49 40 56 40 8 0 13 13 13 33 0 32 1 33 35 29 22 -3
35 0 35 7 0 6 11 16 25 21 16 6 25 17 25 31 0 15 4 19 16 15 9 -3 27 3 41 14
14 11 31 20 37 20 19 0 70 57 56 62 -9 3 -9 13 -2 42 6 20 8 43 6 51 -3 7 3
16 15 20 12 3 21 11 21 17 0 6 6 5 16 -3 9 -8 14 -25 12 -45 -1 -18 1 -36 5
-40 11 -11 8 -64 -4 -64 -6 0 -9 -12 -7 -27 2 -16 8 -27 15 -26 6 2 23 -21 37
-50 20 -41 23 -60 18 -92 -7 -37 -5 -41 23 -55 27 -14 30 -19 27 -58 -3 -34 1
-46 18 -60 19 -15 20 -21 10 -47 -6 -16 -17 -33 -23 -37 -8 -5 -1 -18 22 -42
27 -28 32 -38 22 -49 -9 -12 -6 -23 16 -56 15 -23 32 -40 39 -37 15 6 94 -61
94 -79 0 -7 8 -16 18 -20 16 -6 16 -7 0 -19 -16 -12 -14 -16 18 -47 29 -28 35
-41 33 -69 -2 -39 19 -120 32 -120 14 0 59 -54 59 -70 0 -8 24 -33 53 -56 41
-32 56 -38 69 -30 18 11 44 -13 74 -67 20 -37 15 -92 -7 -91 -10 1 -22 -8 -29
-20 -9 -18 -18 -21 -46 -18 -20 3 -38 11 -41 18 -3 8 -9 14 -14 14 -4 0 -27
18 -51 40 -24 22 -50 40 -58 40 -8 0 -38 8 -66 19 -28 10 -73 22 -99 25 -43 7
-46 6 -41 -12 9 -28 -37 -39 -70 -17 -21 14 -24 14 -24 0 0 -10 -9 -15 -26
-15 -15 0 -32 -7 -38 -15 -10 -13 -39 -20 -100 -24 -19 -1 -19 -2 -1 -21 24
-27 27 -47 13 -87 -7 -19 -16 -29 -25 -26 -7 3 -13 0 -13 -6 0 -6 -9 -11 -20
-11 -15 0 -20 -7 -20 -25 0 -22 -3 -24 -19 -16 -16 9 -20 6 -26 -17 -9 -36
-23 -52 -46 -52 -16 0 -18 -5 -13 -25 7 -27 -12 -85 -27 -85 -13 0 -11 -44 3
-58 9 -9 9 -12 0 -12 -7 0 -12 -7 -12 -14 0 -12 6 -13 30 -5 17 6 30 15 30 19
0 5 45 7 100 6 55 -1 100 2 100 6 0 4 7 8 15 8 8 0 15 -4 15 -10 0 -5 6 -10
14 -10 9 0 12 7 9 20 -5 18 -1 20 28 16 34 -3 49 -19 30 -31 -15 -9 -14 -25 2
-25 8 0 14 -6 15 -12 5 -58 11 -96 17 -110 4 -10 5 -36 3 -58 -3 -30 0 -39 9
-36 7 3 18 -4 24 -16 9 -17 18 -19 51 -15 35 5 40 3 49 -21 7 -19 7 -28 -1
-30 -5 -2 -17 -10 -24 -18 -8 -8 -24 -14 -36 -14 -11 0 -23 -6 -26 -13 -2 -7
-21 -14 -42 -15 -20 -2 -41 -10 -45 -18 -7 -12 -19 -14 -56 -9 -37 5 -52 3
-64 -9 -8 -9 -23 -16 -33 -16 -15 0 -14 -4 6 -25 17 -18 34 -25 61 -25 20 0
39 5 41 11 5 15 85 14 104 -1 11 -10 12 -15 3 -20 -6 -4 -9 -16 -7 -26 4 -17
6 -16 15 6 6 14 18 32 27 39 10 8 14 21 11 32 -4 11 -2 19 5 19 7 0 8 6 1 18
-7 14 -5 21 10 30 10 7 26 12 34 12 8 0 24 5 34 12 16 9 27 8 59 -6 43 -20 92
-15 113 10 7 8 20 12 31 8 14 -4 29 3 48 21 20 19 34 25 49 20 23 -7 28 4 9
23 -9 9 -8 16 5 30 10 11 15 26 11 36 -9 24 12 20 30 -6 22 -31 20 -36 -9 -30
-24 4 -25 3 -15 -22 5 -14 7 -26 4 -26 -4 0 -1 -7 7 -16 23 -28 22 -81 -2 -97
-19 -14 -20 -17 -5 -39 9 -14 13 -27 10 -30 -3 -4 5 -12 18 -19 l23 -13 -25
-7 -25 -7 27 -1 c24 -1 26 2 24 39 -1 21 -5 42 -9 46 -13 14 -7 24 14 24 18 0
20 4 15 26 -4 16 -3 23 3 20 5 -4 12 -2 16 3 3 6 13 7 22 4 11 -4 14 -3 9 6
-6 8 -1 10 16 6 28 -7 54 16 44 41 -3 8 1 22 9 30 8 9 15 26 15 38 0 14 9 27
24 34 39 17 61 58 47 85 -6 12 -12 35 -13 50 -2 16 -8 33 -15 39 -15 12 -17
38 -4 38 6 0 13 -4 16 -10 8 -12 105 -10 105 2 0 6 7 7 16 4 20 -8 14 14 -9
28 -13 8 -20 6 -31 -9 -14 -19 -15 -19 -21 -2 -4 9 -14 16 -22 15 -11 -2 -19
12 -29 47 -11 44 -11 51 4 63 9 7 25 9 36 5 12 -4 34 -8 50 -8 16 -1 33 -9 38
-18 5 -9 19 -16 31 -16 27 1 88 -21 111 -40 9 -8 48 -17 86 -20 57 -6 71 -4
76 9 4 8 6 18 6 23 -1 4 5 7 13 7 8 0 15 7 15 15 0 18 48 64 67 65 7 0 10 7 6
16 -5 13 -1 15 23 10 32 -6 81 25 69 44 -8 12 25 13 44 1 7 -5 11 -13 7 -19
-3 -5 7 -14 22 -20 24 -8 31 -7 40 9 12 18 14 18 45 3 17 -9 39 -22 47 -30 9
-7 50 -15 95 -18 71 -4 80 -7 101 -33 12 -15 30 -28 40 -28 24 0 68 47 53 56
-8 4 -8 9 -1 13 6 3 20 -7 32 -24 23 -32 20 -36 -27 -45 -10 -2 -20 -4 -22 -4
-2 -1 4 -10 14 -21 22 -24 61 -18 88 13 18 20 18 19 12 -31 -4 -35 -2 -52 5
-52 22 0 6 -45 -18 -48 -17 -3 -21 -8 -17 -22 4 -13 0 -20 -15 -25 -24 -7 -26
-28 -5 -45 8 -7 12 -17 9 -22 -4 -6 -10 -6 -17 1 -6 6 -21 11 -34 11 -13 0
-23 4 -23 9 0 15 -79 9 -92 -7 -11 -13 -9 -14 13 -9 19 5 31 2 40 -10 12 -14
12 -16 -2 -11 -19 7 -43 -18 -52 -54 -5 -19 -1 -31 17 -47 14 -13 26 -18 30
-12 4 5 1 13 -5 16 -7 5 -3 12 10 22 18 12 25 12 56 -3 20 -9 42 -28 50 -43
10 -19 14 -21 15 -9 0 15 4 16 26 7 32 -11 34 -10 43 33 5 24 13 34 30 36 21
3 23 7 17 44 -5 33 -2 46 17 72 13 17 27 41 31 54 9 26 21 29 30 6 7 -18 44
-15 98 9 21 10 41 17 45 17 25 0 113 46 113 59 0 9 10 17 23 18 49 5 62 8 68
17 9 12 29 -2 29 -20 0 -8 8 -14 18 -14 39 0 100 -98 71 -115 -5 -4 -9 -26 -9
-51 0 -24 -4 -44 -10 -44 -5 0 -10 -6 -10 -14 0 -17 -35 -31 -67 -27 -15 2
-23 -3 -23 -12 0 -25 12 -47 21 -41 19 11 38 -17 33 -45 -5 -22 0 -34 20 -54
14 -14 26 -30 26 -35 0 -4 16 -14 36 -21 48 -17 108 -77 123 -123 7 -21 21
-40 32 -43 10 -4 19 -12 19 -18 0 -7 13 -25 30 -40 24 -23 33 -26 49 -18 14 8
22 7 31 -4 7 -8 18 -15 24 -15 7 0 17 -15 24 -32 10 -29 68 -76 117 -97 6 -2
32 -19 59 -38 26 -18 52 -33 57 -33 15 0 10 -27 -5 -33 -10 -4 -15 -23 -16
-59 0 -29 -1 -64 -1 -77 -1 -13 -7 -30 -15 -38 -13 -13 -34 -75 -34 -100 0 -7
-9 -13 -20 -13 -16 0 -20 -7 -20 -32 0 -17 -7 -39 -16 -49 -12 -14 -13 -22 -5
-38 12 -21 -3 -61 -23 -61 -5 0 -1 -9 8 -19 10 -11 19 -31 20 -45 1 -32 41
-45 65 -22 10 11 11 16 3 16 -7 0 -12 5 -12 10 0 6 9 10 21 10 18 0 21 5 17
35 -3 26 -1 34 9 31 17 -7 17 9 0 26 -8 7 -16 27 -20 45 l-6 32 46 3 47 3 11
57 c6 32 13 60 16 62 2 3 26 13 53 23 40 15 51 24 60 51 8 21 23 39 44 49 26
13 30 18 22 33 -13 25 -13 30 4 30 16 0 26 30 26 78 0 21 5 32 14 32 12 0 15
18 15 85 -1 47 4 91 9 98 5 7 10 29 10 50 1 21 4 42 8 48 3 5 0 17 -8 26 -7 9
-8 14 -2 10 7 -4 17 -1 22 6 8 10 5 20 -13 40 -32 34 -31 37 5 37 24 0 30 4
30 23 0 27 -35 52 -72 52 -33 1 -35 -8 -7 -36 13 -13 18 -27 14 -40 -5 -14 -1
-25 12 -34 16 -13 16 -14 2 -15 -33 0 -45 -66 -15 -75 13 -4 16 -8 9 -12 -7
-2 -13 -11 -13 -19 0 -10 -7 -13 -25 -8 -21 5 -24 3 -19 -11 6 -15 4 -15 -14
-4 -14 9 -18 17 -12 23 22 22 10 41 -25 42 -22 0 -40 7 -49 19 -7 10 -18 15
-24 11 -6 -4 -21 -2 -33 5 -17 9 -23 8 -30 -2 -7 -11 -9 -10 -9 3 0 11 -11 20
-26 24 l-27 7 24 13 24 14 -22 6 c-16 4 -23 14 -23 33 0 45 -11 73 -27 67 -8
-4 -23 4 -34 16 -10 13 -18 18 -19 12 0 -6 -13 -9 -32 -6 -35 5 -78 41 -78 66
0 8 -8 20 -17 25 -17 10 -17 10 0 11 25 0 21 24 -10 61 -23 26 -24 30 -7 21
12 -6 30 -9 40 -6 13 3 30 -4 47 -20 22 -21 38 -26 77 -26 27 0 60 -5 73 -11
18 -8 39 -8 82 1 53 11 56 13 51 36 -6 22 -3 24 26 24 17 0 39 7 49 16 14 13
22 13 39 4 28 -15 76 3 83 32 3 11 10 17 15 14 5 -3 17 1 28 8 15 12 16 16 5
29 -10 13 -9 17 8 27 12 6 21 16 21 22 0 6 7 20 17 30 15 17 15 18 -5 18 -22
0 -72 53 -72 76 0 9 5 12 11 8 6 -3 14 -2 18 3 7 11 82 39 129 48 25 5 32 12
32 30 0 23 0 23 40 8 23 -9 37 -19 32 -22 -33 -23 5 -89 43 -75 16 6 16 5 4
-17 -7 -13 -14 -33 -16 -44 -2 -10 -7 -22 -11 -25 -7 -5 -12 -80 -5 -80 13 0
70 36 81 51 7 11 19 19 26 19 8 0 19 7 26 16 7 8 23 14 34 13 40 -3 67 1 62 9
-9 15 12 35 39 38 16 2 28 -3 32 -12 3 -8 19 -22 36 -31 27 -13 32 -13 41 -1
6 8 16 14 21 12 6 -1 31 -4 58 -7 37 -4 47 -1 47 11 0 13 2 13 18 -1 14 -13
21 -14 30 -5 8 8 12 8 12 1 0 -6 12 -13 28 -16 41 -10 56 -23 57 -53 1 -16 8
-30 15 -32 9 -3 11 3 8 22 -3 14 -1 26 3 26 5 0 9 -4 9 -10 0 -5 6 -7 14 -4
17 6 33 -35 18 -45 -16 -10 -9 -61 8 -62 8 -1 21 -2 29 -3 15 -1 23 -26 22
-68 0 -16 4 -28 9 -28 6 0 10 -8 10 -18 0 -25 73 -99 115 -117 19 -7 35 -21
35 -29 0 -19 32 -37 61 -33 18 1 25 -5 33 -28 6 -16 16 -34 23 -40 6 -5 13
-17 14 -25 4 -25 -20 -70 -36 -70 -9 0 -13 -4 -10 -10 3 -5 1 -10 -5 -10 -6 0
-15 -11 -20 -25 -8 -20 -16 -25 -43 -25 -18 0 -37 4 -42 9 -6 6 -11 -4 -13
-28 -2 -31 2 -40 22 -50 13 -7 29 -24 35 -37 13 -30 22 -30 53 0 19 20 36 26
84 28 57 3 59 4 62 32 4 31 -6 60 -49 150 -16 33 -29 65 -29 72 0 25 24 65 36
60 7 -3 20 6 29 20 9 14 20 22 25 19 6 -3 26 7 45 22 35 27 36 30 32 86 -4 51
-2 57 15 57 15 0 18 5 13 20 -4 11 -2 20 4 20 20 0 11 32 -19 67 -16 18 -30
39 -30 44 0 6 -10 24 -22 39 -50 62 -62 85 -63 117 0 26 -7 38 -30 52 -44 27
-89 78 -76 85 17 11 13 46 -10 83 -17 27 -20 43 -15 86 12 97 7 148 -12 122
-10 -14 -63 -16 -79 -4 -8 7 -10 17 -4 28 13 23 17 64 8 78 -4 7 -3 21 3 32 5
11 7 26 4 34 -3 8 0 18 5 22 6 3 9 11 6 16 -4 5 1 9 9 9 9 0 15 3 14 8 -1 4 2
19 6 34 8 26 9 27 36 13 26 -14 29 -13 43 8 9 15 12 29 6 38 -5 9 -3 26 6 42
7 14 11 28 7 31 -3 3 -2 6 2 6 11 0 59 -32 85 -58 26 -24 68 -24 83 1 5 8 17
8 45 -1 26 -8 39 -8 42 -1 1 5 22 28 46 51 39 37 42 44 35 74 -4 19 -6 34 -4
34 2 0 20 -9 39 -20 40 -22 55 -19 55 10 0 30 50 70 87 70 30 0 38 8 34 33 0
4 4 7 9 7 6 0 10 7 10 15 0 9 6 12 15 9 26 -11 65 4 58 22 -5 15 -3 15 24 1
16 -9 36 -23 43 -32 22 -26 131 -96 128 -82 -3 13 37 58 45 50 8 -8 64 25 70
42 4 8 4 22 1 30 -4 9 -1 15 7 15 9 0 10 3 2 11 -16 16 5 87 28 94 11 4 30 17
43 30 l23 23 -19 42 c-12 27 -17 52 -13 70 3 16 2 31 -5 35 -16 10 -50 -4 -50
-21 0 -8 -7 -14 -15 -14 -8 0 -15 -7 -15 -15 0 -8 -4 -15 -9 -15 -4 0 -6 -11
-4 -24 4 -18 0 -25 -20 -30 -14 -3 -33 -3 -42 0 -9 4 -21 0 -28 -10 -12 -16
-16 -16 -57 -2 -24 8 -47 13 -51 11 -3 -3 -17 11 -30 30 -24 35 -53 46 -63 23
-3 -9 -14 -3 -30 17 -30 34 -32 45 -11 45 19 0 19 15 0 43 -11 17 -12 31 -5
56 7 26 6 35 -11 52 -10 10 -19 22 -19 25 0 15 -36 50 -48 46 -6 -2 -12 1 -12
7 0 6 7 11 15 11 8 0 15 7 15 16 0 8 -4 12 -10 9 -5 -3 -10 2 -10 11 0 10 -3
15 -6 11 -3 -3 -21 3 -40 14 -19 10 -34 14 -34 9 0 -19 -18 -10 -23 11 -4 15
-11 20 -22 15 -25 -9 -65 4 -65 23 0 13 -2 13 -9 2 -6 -10 -13 -11 -29 -2 -14
8 -29 8 -47 1 -40 -15 -74 -12 -105 10 -15 11 -36 18 -46 16 -82 -15 -114 -16
-114 -6 0 14 -88 -34 -112 -61 -14 -17 -20 -18 -37 -8 -15 10 -23 10 -34 1 -8
-7 -21 -10 -29 -7 -7 3 -22 -1 -33 -8 -16 -12 -24 -12 -54 0 -20 9 -39 20 -42
25 -10 16 -84 28 -117 19 -25 -7 -34 -5 -53 12 -13 12 -18 22 -11 25 6 2 8 10
5 18 -3 10 4 16 26 20 21 4 31 12 31 24 0 13 6 17 18 13 14 -3 22 4 31 26 17
40 45 64 68 57 14 -4 19 -1 20 13 1 13 -8 23 -28 30 -25 9 -33 7 -49 -9 -25
-25 -50 -26 -50 -2 0 11 -8 26 -18 35 -19 18 -37 23 -28 9 7 -11 -6 -30 -24
-34 -8 -2 -20 -9 -25 -16 -9 -11 -19 -9 -57 7 -45 19 -78 59 -78 94 0 8 -7 20
-15 27 -13 11 -18 10 -31 -8 -21 -30 -40 -27 -53 8 -5 17 -15 30 -20 30 -6 0
-8 -7 -5 -15 8 -20 -6 -19 -21 2 -14 19 -35 9 -35 -18 0 -27 -17 -24 -50 10
-16 16 -31 27 -33 25 -2 -2 -12 6 -23 18 -10 12 -13 18 -6 14 6 -4 12 -2 12 3
0 6 -4 11 -10 11 -5 0 -10 7 -10 15 0 17 -18 52 -37 73 -7 7 -13 17 -13 22 0
5 -8 11 -17 14 -14 4 -18 16 -17 50 1 24 4 48 7 53 13 21 -33 46 -86 49 -59 2
-99 -16 -116 -53 -9 -19 -18 -23 -56 -23 -25 0 -45 -5 -45 -10 0 -7 -6 -7 -17
-1 -10 5 -44 12 -75 16 -44 6 -59 12 -63 26 -7 21 -35 18 -85 -6 -15 -7 -33
-9 -45 -4 -11 4 -15 8 -8 8 6 1 13 11 15 24 2 16 11 23 31 25 19 2 27 9 27 23
0 10 4 19 9 19 5 0 14 14 21 31 8 19 18 28 27 25 20 -8 53 11 53 30 0 11 6 13
20 9 11 -3 20 -2 20 4 0 5 9 13 20 16 11 3 20 14 20 22 0 9 8 25 17 35 16 17
16 20 0 35 -16 16 -17 16 -17 0 0 -12 -8 -17 -30 -17 -32 0 -36 9 -19 42 9 18
9 20 -4 15 -18 -7 -42 17 -33 32 15 24 -32 15 -60 -11 -30 -28 -33 -29 -75
-17 -62 17 -119 18 -119 2 0 -31 -71 -24 -141 13 -14 7 -29 11 -32 8 -3 -3
-33 12 -66 35 -34 22 -61 36 -61 30 0 -6 -12 -4 -27 5 -41 21 -135 38 -217 38
-43 0 -86 7 -109 17 -32 14 -37 20 -35 46 3 25 -2 33 -32 47 -39 20 -72 23
-98 9 -11 -6 -36 -4 -67 4 -42 11 -52 11 -61 -1 -6 -7 -14 -11 -17 -7 -4 3 -7
1 -7 -4 0 -14 -26 -11 -42 5 -7 7 -19 12 -28 12 -21 0 -42 57 -30 81 8 14 3
20 -30 36 -22 10 -42 26 -45 35 -5 15 -9 15 -41 2 -26 -11 -39 -12 -55 -3 -12
6 -30 8 -41 6 -23 -6 -63 25 -84 64 -9 18 -11 43 -7 79 5 45 9 51 25 46 34 -8
48 3 38 29 -7 18 -5 24 7 27 9 2 3 7 -16 14 l-30 12 16 -24 c9 -14 14 -26 12
-28 -9 -10 -69 24 -69 39 0 11 -6 14 -24 9 -27 -6 -56 17 -56 46 0 10 -4 21
-9 24 -4 3 -6 17 -3 31 4 22 1 25 -25 25 -20 0 -39 11 -63 35 -19 19 -40 35
-48 35 -9 0 -13 7 -9 20 3 12 -1 24 -11 30 -12 6 -13 12 -6 17 17 12 26 90 11
97 -9 5 -9 7 1 12 6 3 12 12 12 20 0 8 8 14 18 14 9 0 28 9 42 20 24 19 24 19
3 13 -15 -3 -23 -1 -23 7 0 8 -13 4 -36 -9 -44 -26 -69 -15 -54 25 8 21 6 26
-13 35 -12 6 -29 24 -36 41 -12 25 -11 32 2 45 11 11 12 24 6 51 -4 20 -4 43
1 53 12 21 1 32 -16 18 -24 -20 -126 103 -109 131 3 4 -2 10 -10 14 -8 3 -15
14 -15 25 0 10 -7 22 -15 25 -9 3 -15 13 -13 22 2 11 -11 24 -35 36 -21 11
-45 34 -54 52 -9 17 -24 42 -34 55 -11 13 -19 31 -19 41 0 9 -28 42 -62 74
-35 31 -74 67 -88 80 -14 14 -44 32 -68 41 -24 10 -55 34 -73 56 -32 41 -53
49 -62 25 -7 -17 -66 -51 -68 -39 -1 5 -3 19 -4 32 -3 30 -32 48 -69 42 -4 -1
-14 3 -21 9 -10 8 -15 8 -20 0z m182 -120 c1 -11 -1 -19 -5 -17 -4 2 -15 7
-25 10 -22 8 -13 27 11 27 11 0 18 -8 19 -20z m-422 -121 c10 -15 -1 -23 -20
-15 -9 3 -13 10 -10 16 8 13 22 13 30 -1z m-495 -304 c0 -8 -9 -19 -20 -25
-14 -7 -20 -7 -20 0 0 5 7 10 15 10 9 0 12 6 9 15 -4 8 -1 15 5 15 6 0 11 -7
11 -15z m-90 -27 c0 -13 -32 -6 -37 9 -3 7 3 9 16 6 12 -3 21 -10 21 -15z m46
-5 c19 -25 17 -43 -4 -43 -28 0 -43 20 -31 42 12 22 18 23 35 1z m1154 -247
c0 -17 -14 -29 -23 -20 -8 8 3 34 14 34 5 0 9 -6 9 -14z m200 -17 c26 0 30 -2
16 -8 -14 -5 -16 -10 -8 -15 7 -4 9 -12 6 -18 -4 -7 -2 -8 4 -4 7 4 12 3 12
-3 0 -5 20 -17 44 -26 44 -17 86 -54 86 -78 0 -6 5 -19 10 -27 9 -13 11 -13
20 0 6 9 10 10 10 3 0 -8 14 -10 44 -7 32 4 45 1 49 -9 4 -11 0 -13 -15 -9
-13 3 -19 1 -15 -5 4 -6 -7 -25 -23 -42 -33 -34 -70 -40 -90 -16 -15 18 -30
11 -30 -15 0 -10 -9 -22 -21 -25 -11 -4 -24 -18 -29 -31 -10 -26 -21 -29 -50
-14 -14 7 -23 6 -35 -6 -9 -9 -18 -14 -21 -11 -3 3 -20 -11 -37 -31 -18 -20
-35 -38 -39 -40 -5 -2 -8 -10 -8 -17 0 -7 -10 -15 -21 -18 -16 -4 -20 -11 -16
-26 3 -11 -1 -22 -9 -25 -7 -3 -11 -12 -8 -21 3 -8 10 -12 15 -9 5 3 9 -2 9
-10 0 -9 -6 -16 -13 -16 -12 0 -39 -58 -36 -77 3 -20 -2 -25 -16 -13 -8 7 -15
21 -15 31 0 11 -4 19 -10 19 -5 0 -10 -8 -10 -17 0 -13 -3 -14 -11 -6 -6 6
-17 10 -23 7 -6 -2 -18 9 -27 25 -9 16 -39 41 -67 56 -33 18 -49 32 -45 41 7
19 -47 40 -58 22 -7 -10 -11 -10 -21 0 -9 9 -9 12 1 12 7 0 22 11 33 25 11 14
24 23 28 20 5 -3 14 13 20 36 8 29 15 39 26 35 8 -3 14 -2 14 3 0 4 18 7 40 7
41 -1 43 3 24 62 -2 8 8 12 31 12 28 0 35 4 35 19 0 11 5 21 11 23 9 3 9 10 0
27 -7 13 -10 32 -8 43 6 22 -19 36 -35 20 -7 -7 -17 -7 -34 0 -25 12 -23 31 2
21 14 -5 15 -3 4 17 l-12 23 36 -22 36 -23 0 22 c0 15 5 20 14 17 9 -4 12 0 9
12 -3 13 6 24 36 38 37 19 39 21 23 37 -15 15 -11 16 58 10 41 -3 91 -6 110
-5z m-240 -59 c0 -5 -4 -10 -9 -10 -6 0 -13 5 -16 10 -3 6 1 10 9 10 9 0 16
-4 16 -10z m-1200 -190 c0 -5 -7 -7 -15 -4 -8 4 -15 8 -15 10 0 2 7 4 15 4 8
0 15 -4 15 -10z m1794 -256 c20 -8 21 -24 2 -24 -8 0 -16 7 -20 15 -6 17 -4
18 18 9z m-1281 -111 c5 -7 13 -10 19 -7 7 5 9 1 5 -9 -4 -11 2 -21 18 -30 24
-12 25 -13 6 -29 -18 -15 -20 -15 -26 9 -4 18 -11 24 -24 20 -24 -6 -51 10
-45 27 3 8 1 17 -5 21 -6 3 -11 11 -11 16 0 14 53 -1 63 -18z m137 -114 c0 -6
-4 -7 -10 -4 -5 3 -10 11 -10 16 0 6 5 7 10 4 6 -3 10 -11 10 -16z m741 -75
c8 -8 21 -14 27 -14 15 0 16 -17 1 -26 -6 -3 -8 -15 -6 -26 4 -15 3 -17 -8 -8
-9 8 -14 8 -17 0 -5 -15 -43 1 -83 35 -22 18 -25 25 -13 25 12 0 15 6 11 21
-6 20 -3 21 33 15 21 -4 46 -14 55 -22z m689 -72 c0 -13 -12 -22 -22 -16 -10
6 -1 24 13 24 5 0 9 -4 9 -8z m1900 -708 c0 -8 -4 -12 -10 -9 -5 3 -10 10 -10
16 0 5 5 9 10 9 6 0 10 -7 10 -16z m-1350 -314 c0 -15 7 -20 25 -20 32 0 32
-12 1 -26 -17 -8 -28 -8 -35 -1 -7 7 -19 7 -37 -2 -38 -17 -39 -8 -4 33 36 41
50 45 50 16z m-170 -70 c26 5 52 4 62 -1 9 -5 21 -9 25 -8 20 3 24 -2 13 -16
-13 -15 -5 -39 11 -30 5 4 9 1 9 -4 0 -6 -4 -11 -10 -11 -5 0 -10 -4 -10 -10
0 -5 7 -10 15 -10 9 0 15 -9 15 -25 0 -20 -5 -25 -25 -25 -14 0 -25 -4 -25 -9
0 -5 -8 -11 -17 -13 -9 -2 -17 -13 -18 -26 -1 -18 5 -24 27 -29 32 -6 34 -11
14 -38 -7 -10 -11 -26 -9 -36 5 -16 1 -17 -27 -9 -33 9 -60 -4 -60 -29 0 -17
-15 -13 -34 8 -19 21 -61 17 -52 -4 3 -8 -2 -16 -10 -19 -23 -9 -34 -7 -34 4
0 6 7 10 15 10 21 0 19 27 -4 39 -10 6 -26 29 -35 51 -9 22 -20 40 -25 40 -5
0 -29 21 -55 48 -60 61 -62 102 -4 71 18 -9 20 -9 15 4 -7 18 17 42 33 32 5
-3 10 -2 10 4 0 5 15 8 34 5 29 -3 38 1 58 25 19 24 25 26 38 16 11 -10 27
-11 60 -5z m155 -178 c-7 -8 -35 7 -35 18 0 6 7 6 20 -2 10 -7 17 -14 15 -16z
m15 -22 c0 -5 -4 -10 -10 -10 -5 0 -10 5 -10 10 0 6 5 10 10 10 6 0 10 -4 10
-10z m-2295 -40 c6 -20 6 -20 28 0 35 34 52 26 54 -26 2 -41 0 -45 -20 -42
-16 2 -22 10 -21 26 1 26 -4 27 -34 6 -12 -8 -22 -10 -22 -5 0 6 -7 11 -15 11
-18 0 -19 4 -3 30 16 25 25 25 33 0z m-81 -39 c4 -5 3 -16 0 -25 -8 -22 -114
-23 -114 -2 0 9 7 12 18 10 9 -3 26 2 37 10 23 17 51 21 59 7z m1202 -1010 c1
-22 -3 -31 -19 -35 -29 -7 -33 0 -14 22 10 10 17 27 17 37 0 29 14 8 16 -24z
m-1276 -431 c0 -5 -7 -10 -16 -10 -8 0 -12 5 -9 10 3 6 10 10 16 10 5 0 9 -4
9 -10z m4190 -210 c0 -5 -4 -10 -9 -10 -6 0 -13 5 -16 10 -3 6 1 10 9 10 9 0
16 -4 16 -10z m-3510 -374 l-21 -21 -5 23 c-7 24 -20 29 -27 10 -4 -9 -6 -9
-6 -1 -1 6 14 20 32 30 32 19 32 19 40 -1 5 -14 2 -26 -13 -40z m-65 -26 c3
-5 2 -10 -4 -10 -5 0 -13 5 -16 10 -3 6 -2 10 4 10 5 0 13 -4 16 -10z m170
-50 c3 -5 2 -10 -4 -10 -5 0 -13 5 -16 10 -3 6 -2 10 4 10 5 0 13 -4 16 -10z
m2610 -460 c3 -5 1 -10 -4 -10 -6 0 -11 5 -11 10 0 6 2 10 4 10 3 0 8 -4 11
-10z m-9 -65 c-1 -31 -18 -38 -54 -23 -26 11 -27 12 -4 16 13 2 26 10 29 18 9
24 31 16 29 -11z"/>
<path d="M9775 10200 c-3 -5 -1 -10 4 -10 6 0 11 5 11 10 0 6 -2 10 -4 10 -3
0 -8 -4 -11 -10z"/>
<path d="M7840 13050 c-7 -4 -10 -15 -7 -24 5 -14 3 -15 -13 -6 -18 9 -19 8
-11 -12 4 -13 5 -34 1 -48 -4 -16 0 -36 12 -55 24 -40 23 -46 -8 -34 -30 11
-31 11 -36 -14 -2 -14 8 -23 43 -36 45 -17 48 -17 84 0 21 11 49 19 63 19 18
0 23 5 21 23 -3 26 9 67 20 67 4 0 13 -6 21 -12 12 -11 12 -10 1 5 -8 9 -9 17
-3 17 5 0 13 7 16 16 3 8 2 12 -4 9 -16 -10 -50 14 -50 35 0 25 -28 40 -63 33
-16 -3 -37 1 -50 10 -14 9 -29 12 -37 7z"/>
<path d="M7610 12983 c-8 -3 -20 -11 -25 -18 -7 -9 -17 -9 -35 -2 -37 14 -80
18 -80 7 0 -6 -24 -10 -52 -10 -45 -1 -50 -3 -36 -13 12 -10 14 -17 6 -31 -5
-9 -7 -23 -4 -31 3 -8 -3 -17 -15 -20 -14 -5 -18 -12 -14 -25 4 -12 -1 -22
-12 -29 -15 -8 -16 -11 -3 -15 8 -3 27 -10 41 -15 20 -7 28 -5 37 10 7 10 19
19 27 19 9 0 27 7 40 16 14 9 31 14 39 11 19 -7 25 20 13 56 -11 33 -4 45 17
28 8 -6 18 -11 22 -9 5 1 26 -4 46 -11 40 -13 58 -9 58 15 0 8 -4 13 -9 9 -5
-3 -15 11 -21 30 -12 36 -14 37 -40 28z"/>
<path d="M7696 12904 c-3 -8 -3 -26 0 -39 7 -30 34 -42 34 -15 0 13 5 18 15
14 19 -8 19 1 -1 31 -19 29 -39 32 -48 9z"/>
<path d="M7756 12695 c-13 -13 -13 -20 -3 -36 6 -10 18 -17 25 -14 8 3 18 5
23 5 13 0 11 34 -3 48 -16 16 -23 15 -42 -3z"/>
<path d="M7579 11946 c18 -21 71 -50 71 -38 0 14 -32 39 -60 47 -23 7 -24 6
-11 -9z"/>
<path d="M7662 11898 c3 -7 20 -18 39 -26 l34 -14 -24 26 c-25 27 -56 35 -49
14z"/>
<path d="M9430 11789 c0 -11 4 -18 10 -14 5 3 7 12 3 20 -7 21 -13 19 -13 -6z"/>
<path d="M9475 11765 c0 -14 4 -25 8 -25 4 0 13 -13 18 -30 6 -16 15 -27 20
-24 5 3 12 -2 15 -10 3 -9 15 -16 25 -16 20 0 24 24 13 68 -7 26 -36 31 -32 5
2 -10 -4 -19 -14 -21 -12 -2 -18 3 -18 15 0 10 -8 28 -18 40 l-17 23 0 -25z
m90 -74 c3 -5 1 -12 -5 -16 -5 -3 -10 1 -10 9 0 18 6 21 15 7z"/>
<path d="M9847 11773 c-13 -13 -7 -21 13 -16 11 3 17 9 14 14 -6 11 -18 12
-27 2z"/>
<path d="M7293 11759 c-6 -8 -14 -30 -18 -50 -6 -31 -10 -35 -31 -31 -22 4
-24 1 -24 -31 0 -19 4 -37 10 -39 5 -1 12 -17 16 -35 6 -29 3 -33 -20 -39 -14
-3 -26 -9 -26 -13 0 -14 16 -29 35 -33 15 -3 19 -10 17 -32 -3 -31 23 -59 47
-50 8 2 27 -8 43 -23 16 -15 28 -21 28 -14 0 7 6 11 14 8 21 -8 49 33 51 77 2
24 -5 51 -16 70 -10 17 -19 37 -19 45 0 8 -7 23 -16 33 -13 14 -14 21 -5 32
15 18 6 52 -14 60 -8 3 -15 12 -15 20 0 8 -9 17 -19 21 -11 3 -21 13 -23 22
-3 14 -5 14 -15 2z"/>
<path d="M9877 11745 c-15 -11 -15 -14 -3 -24 15 -13 56 1 56 18 0 15 -36 19
-53 6z"/>
<path d="M9690 11720 c-8 -5 -25 -10 -36 -10 -12 0 -25 -8 -28 -17 -6 -15 -8
-15 -17 -3 -15 24 -6 -20 11 -50 7 -14 12 -27 11 -30 -1 -2 2 -6 8 -8 6 -2 11
1 11 7 0 6 7 11 15 11 10 0 15 10 15 26 0 21 4 25 20 21 11 -3 31 3 45 15 20
16 23 23 14 34 -13 16 -47 18 -69 4z"/>
<path d="M9795 11720 c3 -5 10 -10 16 -10 5 0 9 5 9 10 0 6 -7 10 -16 10 -8 0
-12 -4 -9 -10z"/>
<path d="M9935 11700 c-3 -5 -1 -10 4 -10 6 0 11 5 11 10 0 6 -2 10 -4 10 -3
0 -8 -4 -11 -10z"/>
<path d="M7697 11603 c-13 -12 -7 -33 8 -33 8 0 15 9 15 20 0 20 -11 26 -23
13z"/>
<path d="M7643 11570 c2 -24 23 -34 31 -13 7 19 -1 33 -19 33 -8 0 -13 -9 -12
-20z"/>
<path d="M7605 11560 c-3 -5 1 -10 9 -10 9 0 16 5 16 10 0 6 -4 10 -9 10 -6 0
-13 -4 -16 -10z"/>
<path d="M13156 10014 c-9 -22 -8 -23 14 -21 23 1 27 22 6 30 -8 3 -17 -1 -20
-9z"/>
<path d="M13140 9942 c0 -5 7 -9 15 -9 8 0 15 4 15 9 0 4 -7 8 -15 8 -8 0 -15
-4 -15 -8z"/>
<path d="M13489 9123 c-2 -70 -12 -88 -45 -85 -22 3 -26 1 -18 -8 17 -17 47
-8 60 18 9 18 14 21 20 10 5 -7 7 -20 6 -30 -2 -9 2 -19 8 -23 8 -5 8 -11 -1
-21 -8 -10 -8 -14 -1 -14 15 0 35 -38 39 -77 6 -53 32 -106 49 -99 24 9 54
-12 54 -38 0 -18 5 -23 18 -21 9 2 17 4 17 6 0 1 12 2 28 3 25 2 27 0 27 -41
l0 -43 -37 0 c-36 0 -38 -2 -39 -34 -1 -38 26 -55 46 -31 6 8 18 11 26 8 24
-9 66 6 60 22 -2 7 0 15 5 17 6 2 12 31 14 65 2 52 0 63 -15 68 -12 4 -16 13
-12 30 2 14 8 25 13 25 8 0 5 30 -7 69 -4 11 -7 11 -21 0 -13 -11 -17 -11 -21
-1 -2 7 -10 19 -18 26 -8 8 -14 21 -14 28 0 8 -13 24 -30 36 -27 20 -44 52
-20 37 6 -4 10 6 10 23 0 29 -25 52 -32 30 -5 -13 -57 12 -77 36 -7 9 -18 13
-23 10 -5 -3 -17 1 -26 8 -37 32 -42 31 -43 -9z"/>
<path d="M13994 9005 c3 -8 9 -22 12 -30 3 -8 1 -15 -6 -15 -6 0 -8 -5 -5 -10
4 -6 12 -4 22 5 12 13 18 13 30 3 12 -9 16 -9 24 3 14 23 11 29 -21 36 -17 3
-33 10 -36 14 -9 15 -26 10 -20 -6z"/>
<path d="M13871 8981 c22 -23 37 -29 64 -28 19 1 35 5 35 8 0 7 -101 49 -117
49 -6 0 2 -13 18 -29z"/>
<path d="M13836 8955 c4 -8 8 -15 10 -15 2 0 4 7 4 15 0 8 -4 15 -10 15 -5 0
-7 -7 -4 -15z"/>
<path d="M11501 8285 c-1 -6 4 -16 11 -23 9 -9 7 -12 -10 -12 -23 0 -30 -24
-11 -36 8 -4 8 -9 0 -17 -6 -6 -11 -15 -11 -19 0 -10 23 -6 32 6 3 5 15 10 25
11 52 3 57 40 9 60 -19 8 -36 20 -39 27 -3 7 -6 8 -6 3z"/>
<path d="M6741 8236 c-7 -9 -8 -17 -2 -20 13 -9 43 4 38 17 -5 17 -23 19 -36
3z"/>
<path d="M6860 8147 c0 -6 -3 -22 -6 -34 -8 -29 20 -32 35 -5 7 14 5 23 -10
35 -13 11 -19 13 -19 4z"/>
<path d="M10145 8110 c-3 -5 1 -10 10 -10 9 0 13 5 10 10 -3 6 -8 10 -10 10
-2 0 -7 -4 -10 -10z"/>
<path d="M6820 8080 c0 -5 5 -10 10 -10 6 0 10 5 10 10 0 6 -4 10 -10 10 -5 0
-10 -4 -10 -10z"/>
<path d="M6886 8081 c-19 -7 -19 -8 2 -13 15 -4 22 -2 22 8 0 8 -1 14 -2 13
-2 0 -12 -4 -22 -8z"/>
<path d="M11547 8069 c7 -7 15 -10 18 -7 3 3 -2 9 -12 12 -14 6 -15 5 -6 -5z"/>
<path d="M8720 7906 c0 -26 -38 -45 -73 -35 -16 5 -41 6 -54 3 -14 -4 -33 0
-48 10 -13 9 -36 16 -50 16 -21 0 -25 -5 -25 -28 0 -29 31 -68 43 -55 4 3 7 1
7 -5 0 -6 20 -20 44 -30 31 -14 46 -28 54 -50 5 -16 7 -34 2 -38 -4 -5 -11
-27 -14 -49 -6 -35 -4 -44 18 -64 21 -20 24 -27 13 -40 -11 -14 -10 -14 5 -2
12 9 16 21 12 38 -6 23 -5 24 30 18 29 -6 36 -4 36 8 0 9 5 19 12 23 7 5 8 3
3 -5 -5 -9 -1 -9 14 1 12 7 21 20 21 28 0 8 11 23 24 34 14 10 22 24 19 32 -3
8 -9 12 -13 9 -13 -8 -33 23 -28 43 3 11 -2 23 -13 30 -15 10 -17 17 -9 38 15
39 12 62 -10 74 -16 8 -20 8 -20 -4z m0 -92 c0 -2 -7 -4 -15 -4 -8 0 -15 4
-15 10 0 5 7 7 15 4 8 -4 15 -8 15 -10z"/>
<path d="M10824 7834 c12 -26 26 -32 26 -11 0 7 -8 17 -19 24 -17 11 -18 10
-7 -13z"/>
<path d="M11425 7800 c3 -5 8 -10 11 -10 2 0 4 5 4 10 0 6 -5 10 -11 10 -5 0
-7 -4 -4 -10z"/>
<path d="M11420 7771 c0 -6 5 -13 10 -16 6 -4 8 -11 5 -16 -4 -5 1 -9 9 -9 10
0 16 9 16 25 0 18 -5 25 -20 25 -11 0 -20 -4 -20 -9z"/>
<path d="M11314 7739 c-7 -12 4 -29 21 -29 7 0 15 -4 17 -10 2 -6 9 -6 17 0
12 7 12 11 3 23 -16 19 -50 28 -58 16z"/>
<path d="M11398 7713 c6 -2 18 -2 25 0 6 3 1 5 -13 5 -14 0 -19 -2 -12 -5z"/>
<path d="M11025 7650 c3 -5 8 -10 11 -10 2 0 4 5 4 10 0 6 -5 10 -11 10 -5 0
-7 -4 -4 -10z"/>
<path d="M11001 7634 c0 -11 3 -14 6 -6 3 7 2 16 -1 19 -3 4 -6 -2 -5 -13z"/>
<path d="M12815 7400 c-4 -6 -10 -8 -15 -5 -10 6 -1 -36 12 -52 6 -7 4 -20 -7
-36 -16 -25 -15 -25 31 -51 26 -14 52 -26 58 -26 6 0 17 -13 24 -30 12 -25 11
-33 -2 -52 -9 -12 -16 -37 -16 -54 0 -18 -8 -38 -20 -49 -13 -12 -18 -25 -14
-38 4 -12 -4 -31 -25 -57 l-31 -38 36 -31 c19 -17 40 -31 47 -31 7 0 23 -9 37
-20 30 -24 56 -25 64 -4 6 16 51 17 72 2 17 -12 44 1 44 21 0 25 11 33 27 20
7 -7 30 -12 51 -13 32 -1 37 -4 34 -24 -3 -19 0 -21 26 -16 32 6 92 -19 92
-38 0 -9 3 -9 12 0 7 7 21 12 31 12 17 0 18 2 6 16 -11 14 -11 18 2 28 8 6 22
27 32 47 9 19 28 41 42 47 16 7 23 17 19 24 -4 7 -3 8 5 4 17 -11 41 12 34 32
-6 15 -5 15 10 3 9 -7 23 -11 31 -8 7 3 19 0 26 -6 10 -9 11 -9 6 1 -4 7 -1
15 8 18 20 8 20 28 2 51 -8 10 -35 44 -61 75 -30 37 -51 55 -60 52 -8 -4 -18
1 -21 10 -4 10 -18 16 -36 16 -22 0 -40 10 -65 36 -32 34 -60 42 -33 9 10 -12
10 -15 -4 -15 -16 0 -20 -21 -16 -82 2 -33 -35 -69 -64 -63 -12 2 -42 7 -68
10 -38 5 -51 12 -73 40 -16 22 -21 35 -13 35 8 1 5 6 -6 15 -17 13 -18 15 -3
15 9 0 17 4 17 10 0 5 8 7 18 3 9 -3 14 -3 10 2 -4 4 0 14 8 22 13 14 13 17
-6 30 -11 8 -20 21 -20 29 0 8 -4 14 -10 14 -5 0 -9 -3 -9 -7 5 -34 -2 -51
-21 -46 -22 6 -28 33 -7 33 6 1 -1 12 -17 25 l-30 24 -15 -30 c-13 -28 -17
-30 -50 -24 -50 9 -50 10 -36 52 10 29 10 39 2 42 -7 2 -16 10 -20 17 -9 16
-73 19 -82 4z m765 -381 c0 -10 -4 -19 -10 -19 -5 0 -10 12 -10 26 0 14 4 23
10 19 6 -3 10 -15 10 -26z"/>
<path d="M13320 7306 c0 -2 7 -9 15 -16 9 -7 15 -8 15 -2 0 5 -7 12 -15 16 -8
3 -15 4 -15 2z"/>
<path d="M13649 6917 c-9 -7 -19 -30 -23 -52 -4 -22 -12 -45 -18 -52 -6 -8 -6
-28 2 -60 18 -80 17 -113 -5 -113 -13 0 -14 -4 -5 -20 12 -22 40 -27 40 -7 0
6 7 25 15 41 8 15 12 39 9 51 -4 16 1 31 15 46 13 14 17 27 12 38 -4 9 -7 44
-6 79 2 64 -5 73 -36 49z"/>
<path d="M10491 6628 c-1 -9 15 -26 34 -38 19 -12 40 -31 46 -42 8 -15 13 -17
19 -8 4 7 12 10 17 7 5 -3 8 7 5 23 -3 19 -9 27 -18 23 -8 -3 -25 2 -39 11
-13 9 -31 16 -39 16 -8 0 -17 6 -19 13 -4 7 -6 6 -6 -5z"/>
<path d="M10757 6602 c-9 -2 -15 -7 -12 -12 3 -4 -6 -11 -20 -14 -14 -4 -25
-11 -25 -16 0 -5 -6 -7 -13 -4 -7 2 -22 -4 -32 -16 -10 -11 -26 -20 -37 -20
-28 0 -25 -61 4 -79 l22 -14 -22 -17 c-12 -10 -22 -26 -22 -35 0 -11 -5 -15
-15 -11 -8 3 -15 1 -15 -5 0 -7 -12 -9 -34 -5 -24 5 -37 2 -46 -9 -7 -8 -18
-15 -26 -15 -7 0 -17 -6 -21 -14 -4 -7 -13 -15 -19 -17 -7 -3 -6 -15 3 -38 10
-24 17 -31 23 -22 5 9 10 10 14 3 7 -12 59 0 81 18 9 8 15 8 20 0 8 -13 55
-13 55 -1 0 6 10 9 23 9 53 -3 77 2 77 18 0 14 -3 14 -15 4 -13 -10 -15 -9
-15 9 0 12 -4 20 -9 16 -5 -3 -11 3 -13 12 -4 21 31 59 51 55 10 -3 12 4 8 26
-5 26 -2 32 26 46 30 14 32 14 35 -2 13 -60 47 -6 43 66 -2 29 1 42 10 42 11
0 11 2 0 13 -10 10 -15 9 -24 -3 -7 -8 -23 -21 -36 -28 -21 -12 -22 -12 -16
10 4 13 12 28 17 35 11 14 0 21 -25 15z m-92 -105 c0 -8 4 -19 8 -23 11 -11 8
-36 -3 -29 -6 4 -8 10 -5 14 2 5 -4 16 -15 26 -11 10 -17 22 -14 27 9 14 29 4
29 -15z m-15 -192 c-7 -8 -19 -15 -26 -15 -8 0 -14 -5 -14 -11 0 -6 -11 -9
-25 -7 -38 5 -29 21 19 34 58 16 60 16 46 -1z"/>
<path d="M10559 6473 c-13 -16 -12 -17 4 -4 9 7 17 15 17 17 0 8 -8 3 -21 -13z"/>
</g>
</svg>
