<?xml version="1.0" standalone="no"?>
<!DOCTYPE svg PUBLIC "-//W3C//DTD SVG 20010904//EN"
 "http://www.w3.org/TR/2001/REC-SVG-20010904/DTD/svg10.dtd">
<svg version="1.0" xmlns="http://www.w3.org/2000/svg"
 width="422.920745pt" height="927.001117pt" viewBox="0 0 422.920745 927.001117"
 preserveAspectRatio="xMidYMid meet">
<metadata>
Created by potrace 1.15, written by Peter Selinger 2001-2017
</metadata>
<g transform="translate(-786.672219,1494.001117) scale(0.100000,-0.100000)"
fill="#222222" stroke="none">
<path d="M10255 14929 c-4 -6 -4 -13 -1 -16 3 -4 -3 -17 -15 -29 -12 -13 -16
-24 -10 -28 5 -4 12 -2 15 3 3 5 14 7 24 5 9 -2 25 2 35 10 15 12 16 18 6 40
-12 26 -42 35 -54 15z"/>
<path d="M10420 14895 c0 -8 -6 -15 -14 -15 -9 0 -12 -7 -9 -19 3 -10 0 -22
-6 -25 -16 -10 -91 -14 -91 -5 0 5 -12 9 -26 9 -17 0 -28 -6 -31 -20 -3 -11
-14 -20 -25 -20 -10 0 -17 -4 -14 -9 3 -5 -1 -11 -9 -15 -8 -3 -15 0 -15 5 0
7 -10 9 -27 5 -16 -4 -34 -7 -40 -8 -16 -2 -17 -34 -2 -44 8 -5 8 -8 0 -13
-16 -10 16 -51 39 -51 24 0 35 -17 20 -34 -8 -11 -8 -15 2 -19 7 -2 10 -8 6
-12 -4 -4 -21 4 -38 19 -17 14 -36 26 -41 26 -19 0 -13 -68 8 -92 12 -14 13
-23 4 -49 -8 -24 -8 -36 2 -47 6 -8 12 -25 12 -38 1 -19 -7 -24 -46 -31 -28
-6 -54 -6 -63 -1 -12 7 -16 5 -16 -6 0 -9 6 -13 14 -10 8 3 17 1 21 -5 4 -7
-6 -14 -25 -17 -34 -7 -65 -43 -50 -58 6 -6 5 -16 -1 -29 -7 -12 -7 -23 -1
-29 6 -6 6 -20 -2 -40 -9 -25 -8 -31 7 -39 9 -6 26 -20 38 -32 11 -12 25 -22
31 -22 6 0 13 -6 16 -12 2 -7 -1 -13 -7 -13 -7 0 -9 -10 -5 -27 7 -31 24 -55
24 -34 0 9 9 12 28 9 25 -4 30 0 40 34 8 26 9 45 3 57 -9 15 -3 21 33 39 24
12 51 22 60 22 16 0 22 21 9 34 -4 3 -8 12 -10 19 -16 68 -16 67 2 61 14 -6
16 -3 10 14 -4 16 -2 22 8 22 8 0 18 7 21 16 3 8 10 13 15 10 5 -3 12 2 16 11
6 16 8 15 25 -7 14 -18 21 -21 32 -13 14 11 89 10 109 -2 9 -6 10 2 6 33 -4
23 -3 43 3 47 5 3 -1 25 -15 51 l-24 45 26 10 26 10 -22 23 c-12 13 -21 27
-20 32 1 5 -1 22 -6 37 -5 19 -3 33 7 45 23 26 15 101 -12 129 -21 22 -22 24
-6 63 9 22 11 40 6 40 -6 0 -10 -7 -10 -15z m-280 -295 c0 -5 -2 -10 -4 -10
-3 0 -8 5 -11 10 -3 6 -1 10 4 10 6 0 11 -4 11 -10z"/>
<path d="M10300 14856 c0 -9 5 -16 10 -16 6 0 10 4 10 9 0 6 -4 13 -10 16 -5
3 -10 -1 -10 -9z"/>
<path d="M10055 13991 c-15 -14 -74 -27 -90 -19 -9 5 -24 6 -33 2 -9 -4 -21
-6 -26 -5 -17 4 -106 -103 -106 -126 0 -15 -6 -23 -16 -23 -14 0 -14 -3 -4
-15 9 -11 10 -15 0 -15 -6 0 2 -11 18 -25 17 -14 34 -25 39 -25 17 0 53 -46
53 -67 0 -13 8 -24 20 -28 11 -3 20 -14 20 -24 0 -10 7 -24 15 -31 8 -7 15 -9
15 -4 0 5 11 -13 25 -40 14 -27 23 -51 21 -54 -7 -6 25 -86 37 -94 13 -8 -42
-57 -64 -58 -24 0 -46 -90 -26 -105 7 -5 17 -23 21 -38 4 -19 11 -25 19 -20 7
4 36 8 66 8 49 0 56 -3 64 -25 13 -32 73 -64 81 -43 4 10 15 13 34 8 31 -6 45
11 57 73 4 17 12 32 18 32 8 0 7 4 -1 12 -19 19 -14 37 13 44 13 3 29 12 35
19 8 9 19 11 33 6 29 -10 57 -3 57 15 0 12 4 12 21 3 17 -9 25 -7 43 10 22 20
24 21 56 4 24 -12 35 -13 38 -5 2 7 8 10 13 6 5 -3 9 0 9 5 0 6 11 11 25 11
31 0 31 6 3 32 -13 11 -17 17 -10 13 9 -5 12 2 10 25 -1 18 -8 35 -15 37 -7 3
-13 11 -13 18 0 6 -9 20 -20 30 -14 13 -20 31 -20 62 0 40 2 44 20 38 16 -5
20 -2 20 18 0 15 11 35 28 49 24 20 27 28 20 50 -8 24 -12 26 -34 16 -13 -6
-24 -19 -24 -27 0 -19 -34 -21 -66 -3 -17 9 -28 6 -62 -14 -23 -14 -42 -29
-42 -33 0 -5 -30 -11 -67 -13 -41 -3 -68 -9 -71 -17 -6 -18 -52 48 -52 75 0
12 -6 24 -14 27 -23 9 -76 93 -76 120 0 14 -3 27 -8 29 -4 2 -22 26 -40 54
-28 45 -52 61 -67 45z m255 -417 c0 -10 -5 -14 -15 -10 -13 5 -14 2 -4 -15 14
-27 9 -31 -15 -13 -19 13 -19 14 -1 34 22 24 35 26 35 4z"/>
<path d="M10691 13863 c-1 -12 -6 -23 -12 -25 -6 -2 -9 -15 -7 -28 l3 -25 19
28 c15 22 17 32 8 50 l-11 22 0 -22z"/>
<path d="M9845 13165 c-11 -17 -56 -21 -132 -10 -31 4 -53 3 -53 -3 0 -5 -12
-21 -26 -36 -15 -14 -21 -26 -15 -26 8 0 7 -5 -3 -16 -26 -26 -38 -53 -31 -74
4 -12 2 -20 -5 -20 -6 0 -8 -5 -3 -12 4 -7 8 -17 8 -23 0 -11 -34 -31 -61 -37
-23 -4 -47 -91 -30 -108 13 -13 15 -110 3 -110 -5 0 -6 -13 -2 -29 3 -17 2
-32 -4 -36 -8 -4 -8 -13 0 -27 7 -12 14 -46 16 -76 2 -30 10 -64 17 -75 7 -12
14 -56 15 -97 2 -43 9 -84 16 -97 12 -18 12 -22 0 -27 -8 -3 -15 -15 -15 -28
0 -22 22 -50 121 -147 39 -38 59 -67 64 -91 4 -19 16 -51 26 -70 11 -19 19
-44 19 -55 0 -32 26 -62 61 -69 26 -5 38 -1 66 25 20 17 43 29 52 26 14 -3 16
2 13 27 -4 27 -3 29 10 18 13 -10 15 -9 11 12 -4 19 1 26 26 37 27 12 30 18
27 49 -4 42 -21 92 -57 162 -12 24 -11 28 4 28 9 0 12 10 9 32 -3 22 0 35 12
43 15 11 15 13 1 19 -11 4 -14 13 -9 32 6 25 5 26 -20 22 -18 -4 -26 -1 -26 8
0 8 4 14 9 14 6 0 6 12 1 32 -6 20 -6 36 1 44 6 7 9 21 7 31 -4 24 9 43 30 43
10 0 23 9 30 20 7 11 19 20 28 20 8 0 13 4 9 10 -3 5 -12 7 -20 3 -10 -3 -15
1 -15 14 0 10 -5 24 -12 31 -9 9 -8 12 5 12 23 0 23 79 1 123 -9 18 -13 29 -9
24 11 -9 35 61 28 80 -3 8 -18 17 -34 20 -18 3 -26 10 -22 19 3 8 -1 22 -8 31
-11 13 -11 17 -1 20 6 3 12 13 12 23 0 20 28 34 52 25 11 -4 19 8 31 46 9 28
15 54 13 58 -3 4 -27 22 -54 41 -28 18 -48 39 -45 46 5 14 -66 44 -105 44 -15
0 -32 -7 -37 -15z"/>
<path d="M11889 12193 c-1 -5 -1 -11 0 -15 0 -5 -7 -8 -18 -8 -20 0 -47 -52
-36 -69 3 -6 -2 -14 -12 -18 -10 -4 -23 -13 -29 -21 -7 -9 -20 -13 -33 -9 -24
6 -28 -5 -6 -23 10 -9 15 -9 15 -1 0 6 11 11 25 11 16 0 25 6 25 15 0 13 4 14
20 5 16 -9 20 -8 20 7 0 13 3 14 12 5 19 -19 24 -14 25 26 1 69 5 82 26 71 16
-9 17 -8 5 10 -12 20 -37 29 -39 14z"/>
<path d="M12055 12190 c-3 -5 3 -10 14 -10 11 0 23 5 26 10 3 6 -3 10 -14 10
-11 0 -23 -4 -26 -10z"/>
<path d="M11955 12150 c3 -5 13 -10 21 -10 8 0 14 5 14 10 0 6 -9 10 -21 10
-11 0 -17 -4 -14 -10z"/>
<path d="M12010 12150 c0 -5 5 -10 10 -10 6 0 10 5 10 10 0 6 -4 10 -10 10 -5
0 -10 -4 -10 -10z"/>
<path d="M11686 12075 c4 -8 10 -12 15 -9 14 8 10 24 -6 24 -9 0 -12 -6 -9
-15z"/>
<path d="M11653 12047 c-13 -5 -23 -14 -23 -19 0 -5 10 -6 23 -2 27 8 30 10
26 22 -3 6 -13 5 -26 -1z"/>
<path d="M11560 12027 c0 -17 -9 -27 -35 -37 -22 -9 -35 -20 -35 -32 0 -10 -5
-18 -11 -18 -15 0 -7 -43 10 -48 10 -3 12 1 8 18 -8 32 10 65 28 50 9 -8 14
-7 18 4 5 11 13 13 36 6 23 -6 31 -5 35 7 9 24 7 31 -16 53 -28 26 -38 25 -38
-3z"/>
<path d="M10020 11870 c0 -5 7 -10 16 -10 8 0 12 5 9 10 -3 6 -10 10 -16 10
-5 0 -9 -4 -9 -10z"/>
<path d="M10006 11839 c-4 -9 -6 -20 -4 -25 1 -5 -12 -25 -30 -44 -61 -66 -63
-69 -52 -90 8 -15 6 -20 -10 -25 -34 -11 -24 -35 15 -35 19 0 35 -4 35 -10 0
-5 4 -10 9 -10 20 0 80 -46 85 -66 4 -15 13 -21 33 -21 16 0 37 -3 47 -8 13
-6 17 -5 12 3 -3 6 3 16 14 22 14 8 18 15 12 23 -4 7 -9 28 -11 47 -1 19 -11
45 -23 57 -21 23 -21 23 -1 23 14 0 23 9 27 26 8 31 9 30 -27 39 -17 5 -27 3
-27 -4 0 -6 -11 -11 -25 -11 -14 0 -25 -5 -25 -12 0 -7 -16 4 -36 23 l-35 34
22 18 c18 14 20 21 11 40 -8 18 -11 19 -16 6z m74 -259 c0 -5 -2 -10 -4 -10
-3 0 -8 5 -11 10 -3 6 -1 10 4 10 6 0 11 -4 11 -10z"/>
<path d="M11443 11803 c-7 -2 -9 -11 -6 -19 3 -8 0 -14 -6 -14 -15 0 -51 -37
-43 -44 3 -3 0 -16 -6 -29 -6 -12 -12 -29 -14 -37 -3 -8 -26 -19 -54 -25 -27
-5 -50 -16 -50 -23 -1 -6 -2 -17 -3 -23 0 -6 -9 -8 -20 -4 -24 7 -51 -4 -51
-21 0 -8 -9 -14 -20 -14 -11 0 -20 -4 -20 -10 0 -5 -12 -10 -26 -10 -23 0 -26
-3 -21 -26 3 -19 1 -24 -11 -19 -8 3 -20 -1 -26 -10 -16 -22 -121 -4 -153 26
-20 20 -26 21 -47 9 -13 -7 -38 -11 -55 -8 -28 4 -29 3 -24 -25 l6 -29 -32 17
c-18 9 -35 14 -38 11 -3 -3 -13 3 -22 14 -9 10 -26 21 -38 25 -19 5 -22 2 -25
-27 -2 -22 -8 -33 -19 -33 -9 0 -23 -5 -30 -11 -24 -20 -55 -25 -84 -14 -23 9
-32 8 -44 -4 -13 -14 -12 -18 9 -41 13 -14 21 -28 17 -31 -4 -4 -9 1 -13 10
-3 9 -24 26 -45 38 -30 17 -36 24 -28 35 6 7 17 13 25 13 7 0 12 9 11 20 -1
12 -8 20 -18 20 -10 0 -20 8 -22 18 -4 16 -5 16 -6 -1 -1 -11 -6 -15 -12 -11
-8 4 -9 -1 -4 -16 5 -16 4 -21 -6 -18 -8 3 -13 12 -11 22 4 25 -13 19 -26 -9
-14 -30 -42 -32 -68 -4 -23 26 -52 42 -81 45 -27 3 -30 -8 -6 -27 15 -12 16
-12 10 6 -5 15 -1 13 18 -8 28 -32 33 -57 9 -57 -8 0 -12 -5 -8 -11 4 -8 -1
-9 -15 -4 -17 5 -24 2 -28 -14 -3 -11 -14 -23 -25 -27 -15 -4 -19 -12 -15 -30
3 -18 0 -24 -14 -24 -11 0 -19 -4 -19 -10 0 -5 4 -10 10 -10 5 0 9 -17 8 -37
-1 -37 -31 -79 -48 -68 -5 3 -12 -5 -16 -19 -5 -20 -15 -27 -55 -35 -28 -6
-57 -11 -65 -11 -8 0 -12 -4 -9 -10 3 -5 2 -10 -4 -10 -5 0 -13 5 -17 11 -4 7
-9 7 -13 2 -3 -6 -18 -13 -34 -17 -23 -5 -29 -2 -39 19 -6 14 -19 25 -29 25
-13 0 -19 12 -24 49 -4 28 -4 59 -1 69 5 13 1 22 -10 26 -10 4 -14 13 -11 27
3 13 -1 24 -13 32 -14 8 -18 18 -14 34 4 13 2 23 -4 23 -5 0 -27 27 -48 60
-38 58 -56 71 -69 50 -3 -5 -11 -10 -18 -10 -8 0 -8 3 1 12 21 21 13 44 -20
59 -23 9 -33 21 -33 36 0 12 -8 30 -18 41 -9 10 -17 24 -17 30 0 7 -7 12 -15
12 -9 0 -15 -9 -15 -23 0 -17 -10 -28 -40 -41 -34 -15 -40 -21 -34 -39 3 -12
10 -26 15 -32 15 -16 10 -44 -8 -45 -131 -6 -206 -3 -210 7 -12 30 -73 19 -73
-14 0 -7 -11 -26 -25 -41 -20 -21 -27 -24 -34 -14 -5 8 -21 12 -38 11 -16 -2
-42 4 -56 14 -32 21 -41 21 -57 2 -12 -14 -15 -14 -30 0 -26 23 -36 18 -49
-25 -9 -29 -17 -40 -31 -40 -20 0 -23 -7 -24 -60 -1 -16 -9 -29 -23 -35 -13
-5 -22 -14 -22 -20 4 -30 -4 -43 -26 -49 -14 -4 -25 -13 -25 -20 0 -18 -49
-27 -72 -12 -14 8 -20 8 -27 -3 -7 -10 -13 -11 -30 -2 -20 11 -21 10 -15 -13
5 -20 -2 -32 -33 -63 -46 -47 -73 -80 -73 -92 0 -6 -9 -13 -21 -16 -16 -5 -19
-12 -15 -28 4 -12 9 -30 11 -39 2 -9 9 -26 15 -38 7 -12 10 -30 7 -41 -3 -10
2 -24 10 -31 11 -9 14 -24 10 -55 -4 -39 -2 -43 24 -52 19 -7 34 -23 46 -50
10 -23 23 -41 30 -41 7 0 10 -7 6 -16 -3 -8 -12 -13 -20 -9 -13 4 -14 -2 -9
-39 4 -27 3 -47 -4 -51 -5 -3 -10 -11 -10 -16 0 -6 3 -8 8 -6 4 3 7 -14 8 -38
1 -32 8 -52 28 -76 22 -26 26 -39 22 -68 -16 -95 -15 -107 5 -119 15 -10 19
-10 19 0 1 8 7 5 15 -6 9 -11 22 -17 34 -13 27 7 50 -52 26 -65 -12 -7 -12
-13 -2 -30 10 -16 9 -22 -1 -25 -9 -3 -5 -13 12 -34 37 -43 60 -171 35 -196
-8 -8 -5 -22 10 -52 12 -22 25 -41 30 -41 4 0 16 -19 26 -42 29 -66 62 -106
94 -113 43 -9 54 -28 46 -74 -5 -29 -2 -46 10 -65 9 -14 14 -29 11 -35 -3 -5
6 -14 22 -19 15 -5 37 -19 49 -31 28 -26 31 -26 54 3 13 16 26 22 39 19 22 -6
27 -29 8 -35 -9 -3 -9 -6 0 -12 7 -4 12 -3 12 3 0 6 7 8 15 5 8 -4 15 -1 15 6
0 6 5 8 10 5 7 -4 7 -13 0 -26 -7 -12 -7 -19 -1 -19 24 0 -12 -108 -49 -148
-24 -25 -20 -58 6 -48 14 5 57 -19 92 -52 8 -7 18 -9 23 -6 6 3 18 -1 27 -9 9
-8 36 -15 59 -15 32 -1 42 3 46 18 3 13 11 17 26 13 17 -4 20 -2 14 13 -5 13
-3 16 10 11 9 -3 19 -2 22 4 4 5 10 7 15 4 4 -3 13 2 20 9 6 8 25 18 41 21 16
4 36 16 44 27 13 19 18 20 53 10 22 -7 62 -12 91 -12 47 0 52 3 73 35 18 28
29 35 55 35 33 0 83 41 83 67 0 16 14 16 56 1 34 -12 64 0 64 25 0 6 -3 8 -6
4 -4 -3 -21 0 -39 7 -20 9 -38 10 -46 5 -8 -5 -21 -9 -29 -9 -12 1 -12 3 2 13
11 9 14 18 7 28 -14 23 -10 49 9 56 9 4 20 11 24 17 4 7 13 5 25 -5 10 -9 26
-19 35 -22 9 -3 18 -18 20 -34 3 -25 7 -28 39 -28 41 0 81 -29 72 -52 -4 -10
0 -14 13 -11 13 2 21 -6 29 -35 6 -21 17 -42 24 -46 11 -7 11 -14 -1 -37 -13
-26 -12 -34 10 -84 22 -51 22 -55 6 -67 -14 -10 -15 -15 -4 -28 13 -16 2 -39
-27 -58 -19 -12 -16 -25 10 -50 14 -12 27 -39 30 -62 4 -22 12 -44 19 -50 23
-18 51 -94 50 -134 -1 -28 6 -48 26 -75 54 -71 72 -107 72 -146 0 -21 5 -42
10 -45 6 -3 10 -17 10 -30 0 -23 -2 -24 -25 -13 -37 17 -43 2 -17 -42 12 -21
22 -41 22 -44 0 -2 -24 -7 -52 -11 -47 -7 -50 -9 -30 -18 34 -16 27 -77 -10
-77 -10 0 -17 -4 -14 -9 3 -5 0 -9 -7 -8 -44 1 -47 -2 -21 -30 14 -15 23 -35
21 -44 -3 -11 7 -22 32 -35 20 -9 40 -17 45 -15 9 2 26 -18 26 -31 0 -5 -4 -8
-10 -8 -16 0 -51 -40 -45 -50 4 -6 -5 -10 -19 -10 -16 0 -27 -7 -31 -20 -5
-15 -10 -17 -30 -10 -27 10 -36 -2 -28 -43 4 -21 1 -27 -12 -27 -9 0 -30 -10
-47 -21 -24 -18 -34 -20 -54 -11 -21 10 -25 8 -39 -18 -8 -16 -15 -36 -15 -45
0 -8 -4 -15 -10 -15 -5 0 -12 -11 -16 -25 -6 -25 -37 -35 -48 -16 -7 10 -25 9
-42 -1 -15 -10 -65 44 -79 86 -7 19 -11 50 -10 68 2 18 -1 40 -6 48 -7 13 -8
12 -9 -2 0 -12 -5 -15 -17 -11 -11 4 -14 3 -9 -5 4 -7 1 -12 -8 -12 -8 0 -23
-12 -34 -27 -19 -26 -25 -28 -80 -25 l-60 3 18 -37 19 -36 -28 -24 c-30 -25
-51 -31 -51 -15 0 5 6 12 13 14 7 3 5 6 -5 6 -17 1 -26 21 -10 21 5 0 16 6 26
13 15 11 16 17 7 35 -7 14 -8 23 -1 27 7 4 7 12 0 25 -14 26 -13 30 9 30 11 0
26 7 35 15 8 8 19 15 24 15 5 0 15 7 22 15 10 12 7 14 -20 10 -17 -2 -37 -9
-44 -15 -8 -5 -21 -8 -30 -4 -9 3 -22 1 -30 -5 -8 -7 -31 -13 -52 -14 -20 -1
-39 -6 -40 -12 -2 -5 12 -28 31 -50 19 -21 33 -40 31 -42 -1 -2 -14 -4 -27 -5
-21 -2 -24 -6 -21 -30 3 -20 -1 -30 -14 -34 -11 -4 -37 -27 -60 -50 -28 -31
-49 -44 -67 -44 -21 0 -27 -5 -27 -21 0 -15 5 -19 15 -15 8 3 21 3 29 0 18 -7
9 -34 -11 -34 -7 0 -22 -13 -31 -30 -9 -16 -20 -30 -24 -30 -5 0 -8 -6 -8 -12
0 -7 -6 -25 -14 -40 -12 -23 -12 -29 -1 -38 9 -8 12 -22 8 -42 -4 -22 -2 -33
10 -39 20 -12 47 -65 47 -94 0 -12 11 -32 25 -45 14 -13 25 -29 25 -37 0 -7 5
-13 11 -13 5 0 7 5 3 11 -9 15 36 1 57 -17 9 -8 30 -19 48 -24 27 -7 31 -6 31
10 0 10 5 22 10 25 6 3 10 14 10 23 0 14 -2 15 -9 3 -8 -12 -12 -12 -25 -2
-11 10 -12 18 -4 42 10 29 28 40 28 17 0 -9 4 -8 10 2 7 11 5 19 -7 28 -15 11
-14 12 11 12 26 0 27 2 21 32 -4 18 -11 37 -16 43 -16 16 -10 35 11 35 12 0
32 -12 46 -27 14 -16 45 -37 67 -48 24 -11 48 -32 55 -47 7 -16 18 -28 23 -28
6 0 6 -8 -1 -20 -12 -22 -5 -60 11 -60 5 0 9 -12 9 -27 0 -22 -2 -25 -10 -13
-5 8 -10 11 -10 5 -1 -5 -5 0 -10 12 -8 20 -12 21 -47 10 -21 -6 -47 -20 -58
-30 -19 -18 -19 -18 0 -23 25 -6 65 -77 54 -95 -5 -9 -1 -21 10 -34 11 -11 22
-35 26 -52 7 -37 97 -178 122 -191 10 -6 14 -17 11 -30 -3 -12 0 -29 8 -39 7
-10 14 -26 14 -35 0 -14 8 -18 35 -18 20 0 50 -7 68 -16 30 -16 32 -16 45 5 8
11 21 21 28 21 8 0 14 3 14 8 0 10 82 9 99 -2 10 -6 12 -6 7 2 -10 17 5 15 31
-3 18 -13 22 -13 33 0 16 19 30 19 30 0 0 -8 12 -28 28 -44 50 -54 63 -72 56
-82 -14 -23 17 -36 78 -33 34 1 69 -1 78 -6 11 -6 21 -5 28 2 18 18 35 -2 29
-38 -4 -23 0 -40 12 -56 10 -13 21 -30 24 -38 3 -9 6 -10 6 -2 1 6 8 12 16 12
8 0 19 9 25 20 6 11 15 18 21 15 5 -4 9 3 9 15 0 12 -5 18 -10 15 -17 -11 -50
5 -50 25 0 10 -10 20 -22 23 -20 6 -18 22 3 22 5 0 9 3 9 8 0 4 0 12 0 18 0 6
-6 9 -14 6 -7 -3 -19 0 -25 6 -8 8 -11 8 -11 -1 0 -10 -5 -10 -20 -2 -10 6
-17 16 -14 24 3 7 -2 18 -10 25 -7 6 -12 21 -9 31 3 11 0 27 -7 35 -8 9 -8 15
-2 15 6 0 17 3 26 6 10 4 16 1 16 -10 0 -8 9 -20 19 -26 11 -5 22 -23 26 -40
8 -35 40 -42 50 -10 7 23 -2 60 -15 60 -10 0 -90 99 -90 111 0 5 14 24 30 42
17 19 30 46 30 60 0 14 6 30 13 34 22 13 27 52 11 88 -8 19 -13 38 -12 42 2 5
-9 19 -23 33 -15 16 -28 43 -32 67 -4 23 -18 54 -31 70 -37 45 -49 75 -51 126
-2 42 0 47 17 41 16 -5 17 -3 7 20 -10 20 -9 28 5 41 9 9 16 18 16 21 0 10
-30 3 -44 -11 -13 -14 -16 -13 -26 6 -6 11 -9 27 -6 35 4 9 2 12 -5 8 -6 -3
-8 -17 -5 -30 4 -14 2 -24 -4 -24 -5 0 -10 7 -10 15 0 8 -4 15 -10 15 -5 0
-10 -7 -10 -15 0 -8 -4 -15 -10 -15 -21 0 -9 -26 25 -53 43 -35 55 -84 28
-120 -14 -20 -24 -24 -48 -21 -63 10 -136 36 -132 48 2 6 1 20 -4 32 -11 30 4
49 27 36 25 -14 49 16 30 38 -21 24 -2 76 34 92 24 10 30 19 30 42 0 16 -8 39
-19 50 -22 25 -36 76 -21 76 6 0 8 5 4 12 -4 7 -9 22 -10 35 -2 19 2 23 24 24
26 0 77 17 58 18 -5 1 -1 10 9 21 10 11 13 20 7 20 -6 0 -18 7 -26 16 -15 14
-16 14 -16 -1 0 -15 -1 -15 -16 -1 -8 9 -12 21 -9 27 4 5 -1 16 -11 24 -29 20
-12 27 73 31 43 1 81 3 86 3 4 1 7 8 7 18 0 15 2 15 19 -1 10 -10 21 -14 24
-9 9 16 1 52 -16 71 -9 10 -17 27 -17 37 0 17 1 17 20 0 19 -18 20 -17 20 5 0
12 8 28 17 35 15 11 15 17 5 39 -12 27 -12 27 23 20 28 -5 35 -3 35 10 0 21
19 20 49 -3 16 -12 22 -24 18 -35 -4 -9 -2 -16 2 -16 5 0 12 7 15 17 6 14 8
14 20 -3 8 -10 12 -23 8 -28 -3 -6 3 -6 14 -2 10 4 33 10 49 13 43 9 74 32 81
59 7 26 14 30 30 15 5 -6 16 -4 27 4 18 13 16 15 -22 35 -46 23 -48 28 -25 45
15 10 14 16 -10 54 -21 32 -25 46 -16 56 8 10 7 16 -6 23 -11 6 -14 16 -9 31
3 12 11 19 16 16 20 -13 7 14 -21 43 -16 18 -30 36 -30 42 0 13 -33 13 -46 0
-16 -16 -62 12 -74 45 -8 21 -7 31 0 33 7 3 7 8 -1 18 -16 19 28 104 53 104
17 0 22 15 19 50 -1 9 1 11 6 5 4 -5 33 -11 64 -13 l55 -3 -4 37 c-3 21 -1 34
5 31 5 -3 10 5 11 19 1 17 -3 24 -16 24 -10 0 -23 5 -30 12 -7 7 -12 8 -12 4
0 -5 -12 13 -26 40 -14 26 -34 54 -45 61 -15 11 -16 19 -9 39 8 19 6 26 -5 30
-8 4 -15 16 -15 28 0 11 -4 27 -9 35 -8 12 -12 12 -25 2 -13 -11 -19 -11 -31
-1 -8 6 -18 9 -24 6 -5 -3 -35 8 -67 24 -31 17 -62 29 -68 27 -14 -5 -39 65
-25 73 5 4 -2 19 -18 36 -20 22 -27 40 -28 74 -1 55 7 68 50 76 39 7 61 44 45
75 -7 12 -7 19 -1 19 6 0 13 16 17 35 4 23 12 35 23 35 14 1 14 2 -2 11 -13 7
-15 14 -8 23 5 6 12 40 14 74 2 39 10 69 21 80 9 10 16 33 16 50 0 17 4 34 10
37 10 6 11 13 13 111 1 37 8 68 17 79 8 10 15 35 15 56 0 28 4 39 17 42 20 6
25 42 7 52 -6 4 -8 14 -5 22 3 8 -4 28 -17 45 -14 20 -18 32 -10 35 11 4 -43
103 -57 103 -3 0 -12 24 -20 53 -7 28 -15 58 -18 66 -4 10 -1 12 7 6 19 -11
31 15 18 36 -16 25 74 112 115 111 21 0 28 4 28 19 0 13 7 19 21 19 11 0 17 5
14 10 -4 6 3 27 14 46 20 33 29 65 14 51 -3 -4 -17 0 -29 8 -17 11 -24 12 -28
2 -3 -6 -3 -2 0 11 4 15 1 22 -9 22 -20 0 -28 25 -17 54 5 14 5 26 0 28 -4 2
-11 20 -15 41 -6 30 -4 37 9 37 9 0 16 5 16 11 0 6 -7 9 -15 5 -9 -3 -15 0
-15 8 0 8 16 17 38 21 20 4 31 10 25 12 -7 3 -13 13 -13 23 0 10 -11 25 -25
34 -14 9 -25 22 -25 29 0 6 -16 25 -35 40 -29 23 -33 31 -25 47 15 28 -4 70
-32 70 -13 0 -30 5 -38 11 -13 9 -12 10 3 5 9 -3 29 -1 42 4 22 8 27 6 37 -15
14 -30 33 -32 48 -4 7 12 18 18 26 15 8 -3 14 0 14 7 0 7 7 4 14 -6 11 -14 15
-15 19 -5 4 9 11 6 24 -10 26 -32 74 -27 89 9 7 15 22 29 35 32 13 3 41 10 62
15 35 9 39 8 47 -14 6 -14 9 -30 7 -35 -1 -6 11 -13 27 -14 15 -2 36 -11 45
-19 10 -9 22 -16 27 -16 5 0 2 6 -7 13 -15 11 -15 15 7 40 23 27 25 27 58 13
33 -14 36 -13 73 14 21 15 49 31 63 35 14 4 28 13 32 19 4 6 17 11 30 11 16 0
24 7 26 23 4 24 -23 32 -31 10 -3 -10 -8 -10 -21 1 -9 8 -14 21 -11 29 3 8 0
20 -5 28 -8 9 -7 20 6 40 17 25 17 27 0 39 -12 9 -14 15 -6 20 7 4 10 19 6 36
-3 18 -1 29 6 29 6 0 8 11 5 30 -4 16 -2 32 3 35 7 4 6 13 0 25 -15 28 -12 60
6 60 8 0 12 5 9 10 -4 6 1 22 10 36 18 28 17 53 -2 47z m-819 -395 c-4 -6 -10
-5 -15 3 -14 22 -10 33 6 19 8 -7 12 -17 9 -22z m-139 -64 c17 -15 24 -23 16
-19 -9 6 -12 4 -7 -3 9 -15 39 -15 53 -1 8 8 13 8 17 0 4 -6 0 -11 -8 -11 -18
0 -21 -16 -6 -25 8 -5 8 -11 0 -20 -8 -10 -4 -17 19 -31 l30 -18 -19 -26 c-13
-18 -16 -30 -9 -37 11 -11 1 -45 -12 -37 -10 6 -50 -14 -64 -33 -8 -11 -17
-12 -38 -4 -39 15 -45 14 -52 -9 -5 -16 -15 -20 -48 -19 l-42 1 40 11 40 12
-11 35 c-8 23 -8 39 -2 47 6 7 6 19 0 30 -9 19 9 69 21 56 4 -3 7 3 7 15 0 11
-4 24 -10 27 -14 9 -12 53 3 70 18 21 49 17 82 -11z m195 -205 c0 -6 -4 -7
-10 -4 -5 3 -10 11 -10 16 0 6 5 7 10 4 6 -3 10 -11 10 -16z m-515 -49 c-41
-8 -58 -2 -42 15 9 9 19 10 42 2 l30 -11 -30 -6z m-385 -11 c0 -5 -7 -9 -15
-9 -9 0 -12 6 -9 15 6 15 24 11 24 -6z m951 -202 c-6 -6 -11 -9 -12 -6 0 2 -2
14 -5 27 -4 22 -3 22 12 7 13 -12 14 -19 5 -28z m-1027 -1100 c7 18 19 10 22
-15 0 -9 5 -29 8 -44 6 -21 4 -27 -12 -32 -14 -5 -18 -13 -14 -28 3 -15 2 -19
-7 -14 -12 8 -78 -41 -73 -56 1 -4 -2 -8 -8 -8 -25 0 -8 49 25 74 l34 27 -22
25 c-21 25 -33 69 -16 58 5 -3 9 2 9 12 0 15 2 15 24 1 22 -15 25 -15 30 0z
m-208 -99 c5 -7 3 -8 -7 -3 -12 7 -11 5 1 -11 24 -32 43 -44 71 -44 34 0 45
-15 25 -35 -17 -17 -13 -19 -79 39 -13 13 -38 28 -56 35 -17 8 -28 17 -25 22
8 13 62 11 70 -3z m240 -155 c-4 -4 -11 -1 -16 7 -16 25 -11 35 7 17 9 -9 13
-20 9 -24z m19 -53 c3 -5 -1 -10 -9 -10 -9 0 -16 5 -16 10 0 6 4 10 9 10 6 0
13 -4 16 -10z m-595 -280 c0 -11 -7 -20 -15 -20 -18 0 -19 12 -3 28 16 16 18
15 18 -8z m1137 -2346 c29 -8 20 -24 -13 -24 -15 0 -24 6 -24 15 0 17 4 18 37
9z m77 -133 c17 -18 16 -20 -4 -26 -26 -8 -45 7 -37 29 8 21 20 20 41 -3z m61
-21 c3 -5 2 -10 -4 -10 -5 0 -13 5 -16 10 -3 6 -2 10 4 10 5 0 13 -4 16 -10z
m-149 -18 c6 -4 16 -16 23 -27 11 -19 12 -19 6 3 -5 19 -3 22 17 19 21 -4 24
-9 20 -36 -1 -5 -16 -11 -33 -13 -22 -4 -32 0 -36 11 -4 9 -13 24 -21 34 -13
14 -13 17 -1 17 8 0 19 -4 25 -8z"/>
<path d="M9700 9720 c0 -5 5 -10 11 -10 5 0 7 5 4 10 -3 6 -8 10 -11 10 -2 0
-4 -4 -4 -10z"/>
<path d="M10305 11630 c-3 -5 1 -10 9 -10 9 0 16 5 16 10 0 6 -4 10 -9 10 -6
0 -13 -4 -16 -10z"/>
<path d="M10197 11614 c6 -15 23 -19 23 -5 0 5 -7 11 -14 14 -10 4 -13 1 -9
-9z"/>
<path d="M10370 11589 c0 -6 -10 -9 -22 -6 -13 3 -31 2 -41 -2 -17 -6 -16 -9
6 -33 15 -16 29 -23 37 -18 10 6 9 9 -1 13 -8 3 3 4 24 2 20 -2 37 -2 37 0 0
2 -4 15 -10 29 -9 26 -30 36 -30 15z"/>
<path d="M8790 11541 c0 -6 5 -13 10 -16 6 -3 10 1 10 9 0 9 -4 16 -10 16 -5
0 -10 -4 -10 -9z"/>
<path d="M11943 11335 c-18 -8 -33 -21 -33 -30 0 -8 -6 -15 -14 -15 -10 0 -14
-10 -14 -30 1 -17 3 -28 6 -25 3 3 14 -3 24 -12 22 -20 58 -27 58 -12 0 6 9 9
20 6 22 -6 28 8 8 16 -9 4 -10 8 -2 14 14 11 27 46 14 38 -6 -3 -10 -1 -10 4
0 6 5 11 10 11 6 0 10 11 10 25 0 29 -25 33 -77 10z"/>
<path d="M10077 11280 c3 -11 9 -17 15 -14 5 3 4 12 -3 20 -16 19 -18 18 -12
-6z"/>
<path d="M11786 11226 c4 -11 -4 -17 -29 -21 -61 -12 -54 -55 9 -55 19 0 24 5
24 25 0 19 5 25 21 25 28 0 21 34 -9 38 -16 3 -20 -1 -16 -12z"/>
<path d="M11660 11150 c0 -6 -12 -22 -26 -35 l-27 -25 25 0 c17 0 28 8 36 25
15 32 15 45 2 45 -5 0 -10 -5 -10 -10z"/>
<path d="M11546 11061 c-4 -5 3 -7 14 -4 23 6 26 13 6 13 -8 0 -17 -4 -20 -9z"/>
<path d="M11503 11033 c-15 -5 -17 -23 -4 -23 5 0 11 7 15 15 3 8 4 15 3 14
-1 0 -8 -3 -14 -6z"/>
<path d="M10858 11012 c-21 -4 -21 -3 -7 -39 l12 -28 8 35 c4 19 7 35 6 36 -1
0 -10 -1 -19 -4z"/>
<path d="M11303 10967 c3 -8 0 -20 -6 -27 -9 -9 -6 -11 13 -8 30 4 35 41 6 46
-13 3 -17 0 -13 -11z"/>
<path d="M11230 10905 c-23 -25 -23 -25 -2 -25 12 0 23 8 27 21 10 31 1 32
-25 4z"/>
<path d="M10820 10891 c0 -6 5 -13 10 -16 6 -3 10 -24 10 -46 0 -27 4 -39 14
-39 8 0 21 -3 30 -6 20 -8 20 8 2 49 -8 18 -16 40 -20 50 -6 17 -46 25 -46 8z"/>
<path d="M11148 10827 c-3 -19 -2 -25 4 -19 6 6 8 18 6 28 -3 14 -5 12 -10 -9z"/>
<path d="M10821 10754 c7 -8 25 -22 40 -29 23 -13 29 -13 39 0 10 12 7 16 -14
25 -14 5 -33 7 -41 4 -8 -4 -15 -1 -15 5 0 6 -5 11 -11 11 -8 0 -7 -5 2 -16z"/>
<path d="M10914 10763 c4 -5 13 -8 19 -8 7 -1 11 -7 9 -15 -3 -12 -1 -12 8 -3
16 15 4 33 -22 33 -12 0 -18 -3 -14 -7z"/>
<path d="M11010 10755 c0 -8 4 -15 10 -15 5 0 7 7 4 15 -4 8 -8 15 -10 15 -2
0 -4 -7 -4 -15z"/>
<path d="M10915 10711 c-4 -12 -12 -18 -21 -14 -7 3 -14 0 -14 -6 0 -6 8 -11
18 -11 20 0 46 36 33 45 -5 3 -12 -4 -16 -14z"/>
<path d="M8066 9815 c-3 -9 -18 -15 -36 -15 -16 0 -30 -4 -30 -10 0 -17 -29
-11 -47 10 -29 33 -43 25 -43 -25 0 -37 -4 -47 -26 -61 -17 -12 -21 -19 -13
-25 6 -4 9 -14 6 -22 -8 -22 13 -36 51 -35 23 1 31 5 30 16 -5 25 21 26 30 1
5 -14 11 -18 16 -11 3 6 -6 23 -21 37 l-28 27 26 -4 c27 -5 36 15 18 38 -6 8
-2 10 13 8 13 -2 32 -5 43 -6 25 -4 44 -27 45 -55 0 -12 5 -25 10 -28 15 -9 2
-25 -21 -25 -16 0 -19 -4 -14 -20 8 -25 -10 -50 -35 -50 -11 0 -20 10 -23 29
-6 28 -7 29 -41 19 -43 -13 -54 -56 -24 -94 26 -32 42 -30 66 7 16 25 20 28
26 14 3 -9 4 -21 1 -26 -3 -4 7 -11 22 -15 47 -11 103 -48 103 -67 0 -10 11
-22 24 -27 13 -5 27 -14 31 -19 3 -6 21 -11 40 -11 19 0 37 -4 40 -10 3 -5 17
-10 30 -10 22 0 24 -3 19 -30 -6 -26 -4 -30 15 -30 11 0 21 5 21 11 0 6 8 8
19 4 11 -3 22 -2 25 4 3 5 24 7 45 4 32 -4 42 -2 52 15 l13 21 34 -21 c33 -20
42 -20 90 8 2 1 -1 11 -7 23 -6 12 -15 30 -21 41 -5 11 -10 26 -10 35 0 8 -17
25 -38 39 -20 13 -46 41 -57 62 -28 54 -55 89 -69 89 -7 0 -28 15 -47 33 -18
17 -36 27 -37 22 -2 -6 -8 -8 -13 -5 -5 4 -32 8 -60 10 -39 2 -58 9 -80 31
-16 15 -31 35 -34 43 -6 18 -85 55 -85 40 0 -6 -5 -7 -11 -4 -6 4 -8 13 -5 21
3 8 -1 14 -8 14 -8 0 -16 -7 -20 -15z"/>
<path d="M8037 9456 c-4 -10 -1 -13 9 -9 7 3 14 9 14 14 0 14 -17 10 -23 -5z"/>
<path d="M8000 9420 c-11 -7 -11 -11 -1 -24 11 -13 11 -16 -3 -16 -9 0 -16 -4
-16 -10 0 -5 7 -7 15 -3 9 3 24 -2 34 -11 17 -16 19 -15 34 8 15 23 15 25 -6
38 -40 26 -43 27 -57 18z"/>
<path d="M8723 9324 c8 -16 24 -37 36 -48 16 -14 18 -23 10 -37 -11 -22 -4
-39 15 -39 7 0 21 -9 31 -20 10 -11 22 -17 27 -13 6 3 14 0 18 -6 4 -7 26 -15
49 -18 33 -5 41 -3 41 11 0 20 16 21 24 0 3 -8 14 -14 24 -12 11 2 26 -3 35
-11 15 -12 17 -11 17 3 0 9 -4 16 -10 16 -5 0 -7 6 -4 13 3 8 -2 20 -11 27
-10 8 -15 9 -15 2 0 -6 -7 -9 -15 -6 -8 4 -15 12 -15 19 0 22 -38 24 -56 4
-38 -42 -109 -12 -109 46 0 23 -5 31 -22 33 -13 2 -23 7 -23 12 0 5 -14 19
-31 31 l-31 22 15 -29z"/>
<path d="M8993 9335 c0 -8 4 -12 9 -9 4 3 8 9 8 15 0 5 -4 9 -8 9 -5 0 -9 -7
-9 -15z"/>
<path d="M10030 9325 c-14 -16 -5 -35 16 -35 15 0 20 35 5 44 -5 3 -14 -1 -21
-9z"/>
<path d="M8998 9298 c-6 -15 12 -58 23 -58 4 0 3 15 -3 33 -14 40 -15 41 -20
25z"/>
<path d="M9016 9221 c-3 -4 2 -15 12 -23 35 -30 44 -30 21 1 -25 34 -26 35
-33 22z"/>
<path d="M10839 8881 c6 -10 7 -22 3 -26 -4 -5 -1 -5 6 -1 9 5 9 12 2 27 -6
10 -13 19 -16 19 -2 0 0 -8 5 -19z"/>
<path d="M10915 8350 c-3 -5 -2 -10 4 -10 5 0 13 5 16 10 3 6 2 10 -4 10 -5 0
-13 -4 -16 -10z"/>
<path d="M9760 7935 c-11 -13 -10 -14 4 -9 9 3 16 10 16 15 0 13 -6 11 -20 -6z"/>
<path d="M9818 7909 c4 -29 16 -37 26 -20 8 12 -3 38 -18 44 -8 3 -11 -4 -8
-24z"/>
<path d="M9725 7910 c-3 -5 -1 -10 4 -10 6 0 11 5 11 10 0 6 -2 10 -4 10 -3 0
-8 -4 -11 -10z"/>
<path d="M9988 7779 c7 -9 10 -24 6 -33 -3 -9 -2 -16 2 -16 12 0 39 18 34 22
-3 2 -16 12 -30 23 -16 13 -20 14 -12 4z"/>
<path d="M10570 7783 c-43 -6 -60 -19 -60 -48 0 -12 -7 -28 -15 -35 -24 -20
-46 -72 -35 -85 5 -6 7 -20 4 -32 -3 -11 -1 -24 5 -27 19 -12 12 -36 -13 -47
-15 -7 -22 -17 -19 -25 4 -10 0 -12 -13 -7 -24 9 -10 -13 18 -28 15 -8 19 -8
14 0 -4 6 -3 11 3 11 5 0 13 -5 16 -10 4 -6 14 -10 23 -8 10 1 28 -5 42 -15
30 -21 40 -22 40 -3 0 8 -10 16 -22 18 -29 4 -35 46 -9 65 21 14 61 110 61
143 0 11 5 20 10 20 16 0 12 32 -7 52 -17 19 -16 19 10 13 15 -4 27 -3 27 2 0
13 -30 53 -38 51 -4 0 -23 -3 -42 -5z"/>
<path d="M9265 7270 l-30 -8 33 -1 c17 0 32 4 32 9 0 6 -1 9 -2 9 -2 -1 -16
-5 -33 -9z"/>
<path d="M10542 7219 c2 -7 10 -15 17 -17 8 -3 12 1 9 9 -2 7 -10 15 -17 17
-8 3 -12 -1 -9 -9z"/>
<path d="M10640 7196 c0 -13 -5 -17 -20 -13 -11 3 -18 1 -14 -4 6 -11 41 -12
48 -1 2 4 1 14 -5 22 -7 12 -9 12 -9 -4z"/>
<path d="M9578 7153 c7 -3 16 -2 19 1 4 3 -2 6 -13 5 -11 0 -14 -3 -6 -6z"/>
<path d="M10068 6449 c3 -32 0 -44 -12 -51 -13 -8 -15 -13 -5 -24 6 -7 15 -12
19 -9 5 3 26 -10 48 -28 33 -28 38 -36 30 -56 -6 -16 -5 -22 5 -18 6 2 17 -3
23 -11 16 -22 129 4 149 34 10 15 21 20 38 17 20 -4 28 2 45 36 18 35 19 41 6
41 -9 0 -28 12 -43 28 -39 38 -111 29 -111 -14 0 -8 -7 -14 -15 -14 -8 0 -14
-3 -13 -7 2 -13 -14 -63 -21 -63 -12 1 -96 80 -84 80 7 0 10 7 6 18 -8 23 -52
82 -61 82 -4 0 -6 -19 -4 -41z"/>
<path d="M10048 6207 c-36 -30 -58 -78 -64 -140 -9 -92 -12 -100 -39 -95 -18
4 -25 0 -29 -17 -6 -24 -31 -35 -79 -35 -16 0 -26 -4 -23 -8 3 -5 23 -7 46 -6
36 2 42 -1 56 -28 12 -23 18 -27 24 -18 7 11 14 11 33 3 23 -11 28 -8 51 20
l26 32 -2 -30 c-3 -30 -3 -30 43 -27 51 3 65 -11 50 -51 -5 -12 -7 -40 -6 -62
2 -32 7 -42 29 -50 15 -6 23 -14 20 -18 -4 -4 -1 -7 7 -7 8 0 20 5 26 11 8 8
17 8 29 1 13 -7 23 -5 38 9 11 11 26 17 33 15 7 -3 13 -1 13 5 0 6 4 8 9 5 4
-3 19 6 31 19 27 28 42 31 59 11 20 -24 70 -30 91 -11 12 11 20 13 25 5 3 -5
11 -8 16 -4 6 3 19 -2 30 -12 23 -21 35 -13 20 14 -17 31 -14 37 24 51 19 7
35 19 35 27 0 9 8 14 18 13 30 -3 35 1 22 16 -10 12 -10 15 4 15 12 0 16 10
16 41 0 22 4 38 9 34 5 -3 13 0 16 6 4 5 13 8 21 5 12 -5 12 -2 3 15 -8 16 -8
23 0 29 7 4 9 15 5 25 -5 12 -4 16 3 12 6 -4 17 1 24 10 11 13 11 15 1 9 -7
-4 -20 -2 -29 6 -14 11 -16 11 -10 -4 8 -22 -32 -48 -73 -48 -20 0 -30 -5 -30
-15 0 -8 -11 -22 -26 -31 -15 -10 -23 -23 -19 -32 3 -8 1 -20 -5 -27 -8 -9 -6
-14 5 -19 20 -7 20 -56 -1 -56 -8 0 -13 -4 -10 -9 7 -11 -41 -24 -54 -16 -6 4
-10 11 -10 16 0 6 5 7 10 4 6 -3 10 -2 10 4 0 5 -4 13 -10 16 -5 3 -10 2 -10
-4 0 -8 -35 -9 -108 -2 -10 1 -10 6 -2 21 15 28 -4 60 -35 60 -14 0 -25 4 -25
10 0 18 -60 41 -115 43 -30 2 -53 1 -50 -1 6 -6 -61 -62 -75 -62 -8 0 -9 6 -5
18 4 9 9 25 12 34 3 9 18 20 34 23 22 5 29 12 29 30 0 12 -7 26 -17 29 -15 6
-15 8 2 20 17 12 16 15 -4 61 -11 26 -21 54 -21 61 0 12 -68 54 -87 54 -4 0
-20 -10 -35 -23z"/>
<path d="M10700 6143 c1 -20 16 -31 30 -22 13 8 13 10 0 19 -18 12 -30 13 -30
3z"/>
<path d="M10738 6065 c2 -14 8 -25 13 -25 14 0 11 26 -5 39 -11 9 -12 6 -8
-14z"/>
</g>
</svg>
