<?xml version="1.0" standalone="no"?>
<!DOCTYPE svg PUBLIC "-//W3C//DTD SVG 20010904//EN"
 "http://www.w3.org/TR/2001/REC-SVG-20010904/DTD/svg10.dtd">
<svg version="1.0" xmlns="http://www.w3.org/2000/svg"
 width="414.190887pt" height="568.750729pt" viewBox="0 0 414.190887 568.750729"
 preserveAspectRatio="xMidYMid meet">
<metadata>
Created by potrace 1.15, written by Peter Selinger 2001-2017
</metadata>
<g transform="translate(-772.387814,1284.750729) scale(0.100000,-0.100000)"
fill="#222222" stroke="none">
<path d="M9566 12835 c-4 -12 -15 -14 -46 -9 -46 7 -83 -15 -73 -44 4 -9 2
-13 -4 -9 -6 4 -13 1 -16 -7 -7 -16 32 -56 55 -56 9 0 21 -7 28 -15 7 -8 19
-15 26 -15 15 0 19 -16 6 -24 -5 -3 -15 -30 -22 -61 -14 -58 -37 -82 -67 -71
-12 5 -14 2 -8 -16 4 -13 9 -39 12 -59 5 -34 3 -37 -44 -62 -26 -14 -47 -30
-45 -37 1 -6 -5 -13 -13 -16 -8 -4 -15 -15 -15 -25 0 -12 -7 -19 -20 -19 -12
0 -20 -7 -20 -16 0 -23 -42 -54 -64 -47 -15 4 -18 2 -11 -13 4 -11 9 -26 12
-35 3 -9 15 -22 28 -29 19 -10 22 -17 14 -31 -5 -11 -18 -19 -29 -19 -10 0
-21 -6 -23 -12 -3 -8 -6 -5 -6 6 -1 14 -6 17 -23 11 -28 -8 -38 -9 -58 -4 -12
3 -15 -7 -15 -51 l0 -55 -47 -8 c-40 -8 -48 -13 -48 -31 0 -14 -10 -28 -25
-36 -15 -8 -23 -20 -21 -27 3 -8 -1 -16 -9 -19 -24 -10 -17 -24 10 -22 14 1
25 6 25 10 0 5 10 2 23 -6 12 -8 46 -17 75 -21 44 -5 52 -4 52 10 0 20 24 45
43 45 8 0 32 -8 53 -17 30 -14 39 -24 39 -43 0 -18 6 -26 23 -28 13 -2 24 3
27 12 3 9 7 23 10 31 2 8 3 17 2 19 -1 1 4 10 12 19 9 12 18 14 31 7 12 -7 23
-4 38 10 20 19 56 20 75 1 6 -6 22 -7 37 -4 23 4 33 -2 65 -40 45 -54 70 -64
87 -34 7 12 11 27 9 32 -2 6 -5 38 -8 72 -4 58 -3 63 26 93 29 31 30 33 15 61
-13 26 -13 29 1 29 8 0 18 12 21 28 4 15 13 36 20 47 8 11 14 27 14 36 0 10
11 31 25 47 15 18 25 42 25 60 0 34 18 43 63 31 62 -17 137 13 137 54 0 12 5
17 14 14 23 -9 31 42 9 58 -15 11 -18 26 -16 77 2 34 7 64 13 66 6 2 7 9 4 14
-4 6 1 17 10 24 20 14 13 36 -9 28 -8 -3 -21 6 -31 21 -11 16 -20 23 -26 17
-6 -6 -20 -5 -36 4 -15 8 -32 14 -38 14 -6 0 -17 7 -24 15 -19 23 -30 18 -46
-20 -12 -30 -19 -35 -48 -35 -20 0 -40 8 -51 20 -10 11 -14 20 -9 20 5 0 -10
9 -33 20 -28 12 -44 27 -48 43 -7 28 -63 47 -76 25 -6 -9 -11 -9 -22 0 -12 10
-16 9 -21 -3z"/>
<path d="M10898 12693 c7 -3 16 -2 19 1 4 3 -2 6 -13 5 -11 0 -14 -3 -6 -6z"/>
<path d="M10820 12658 c0 -21 -6 -31 -19 -35 -13 -3 -18 -13 -17 -40 1 -46 27
-65 54 -40 10 9 21 15 24 12 2 -3 5 1 6 8 0 6 4 22 7 35 5 14 3 22 -5 22 -9 0
-10 3 -1 14 16 19 4 43 -25 49 -21 4 -24 1 -24 -25z"/>
<path d="M10760 12505 c0 -9 -9 -15 -23 -15 -13 0 -32 -6 -42 -14 -10 -7 -27
-11 -37 -8 -19 5 -23 -5 -10 -26 5 -7 16 -10 26 -6 11 4 7 -4 -12 -25 -19 -21
-34 -30 -45 -25 -13 4 -16 0 -14 -22 2 -26 -1 -28 -38 -31 -65 -5 -104 -22
-111 -47 -4 -17 -11 -22 -27 -19 -23 4 -49 -28 -73 -92 -11 -30 -21 -34 -59
-22 -16 6 -23 1 -32 -23 -9 -23 -18 -30 -38 -30 -37 0 -68 -18 -61 -36 3 -8
-1 -17 -9 -20 -10 -4 -13 -14 -9 -30 4 -15 2 -24 -5 -24 -6 0 -16 -11 -22 -24
-7 -16 -27 -29 -58 -39 -46 -14 -46 -15 -43 -56 2 -25 -1 -41 -7 -41 -6 0 -11
-6 -11 -13 0 -9 -10 -12 -30 -9 -26 4 -30 1 -30 -20 0 -25 -46 -78 -68 -78 -7
0 -12 -5 -12 -11 0 -7 -10 -9 -25 -7 -14 3 -28 2 -31 -3 -2 -4 -12 -5 -20 -2
-11 4 -14 14 -11 32 7 32 -34 84 -61 79 -9 -2 -16 -9 -15 -15 1 -6 -13 -19
-32 -29 -19 -10 -35 -22 -35 -27 0 -17 42 -67 51 -62 5 4 9 -1 9 -9 0 -9 6
-16 13 -16 8 0 19 -11 25 -25 6 -13 22 -27 35 -31 20 -5 27 -16 37 -64 8 -39
9 -64 2 -75 -10 -19 -5 -55 8 -55 9 0 18 -32 24 -87 5 -36 -9 -43 -29 -16 -13
18 -35 10 -35 -12 0 -8 11 -22 25 -31 21 -14 25 -22 20 -45 -5 -20 -2 -30 11
-37 15 -8 14 -11 -6 -25 -13 -9 -27 -14 -32 -11 -14 9 -9 -7 13 -42 11 -19 16
-34 10 -34 -6 0 -11 -14 -11 -31 0 -24 -4 -30 -15 -25 -9 3 -15 0 -15 -9 0 -8
-4 -15 -10 -15 -5 0 -6 -7 -3 -17 4 -11 3 -14 -6 -9 -7 5 -20 1 -30 -9 -13
-11 -27 -14 -46 -9 -27 7 -50 10 -88 13 -10 0 -22 12 -27 25 -7 18 -14 22 -33
19 -33 -6 -67 13 -67 37 0 11 -4 20 -10 20 -5 0 -10 7 -10 15 0 8 -6 15 -14
15 -8 0 -29 18 -46 40 -17 22 -38 40 -45 40 -8 0 -27 11 -42 25 -23 20 -25 24
-10 25 12 0 17 6 15 17 -4 22 -28 29 -28 9 0 -9 -4 -16 -10 -16 -13 0 -13 27
1 35 6 4 8 14 5 22 -4 10 -1 13 12 9 16 -5 19 1 21 41 1 27 6 49 11 51 14 5
-2 76 -21 89 -10 8 -15 21 -12 31 2 11 -3 27 -13 36 -12 12 -14 20 -6 28 12
12 4 38 -16 54 -8 6 -12 16 -8 22 3 6 -9 27 -28 47 -26 27 -31 38 -20 42 21 8
17 31 -8 44 -33 18 -49 42 -35 51 7 4 -6 8 -28 9 -92 3 -149 -1 -159 -11 -16
-16 -86 -13 -86 4 0 17 -27 29 -35 16 -13 -21 -46 -8 -94 34 -36 32 -56 43
-70 39 -13 -3 -21 -1 -21 7 0 7 -7 10 -15 6 -9 -3 -18 1 -21 9 -4 8 -10 15
-16 15 -5 0 -6 -4 -3 -10 3 -5 -1 -11 -9 -11 -9 -1 -22 -2 -28 -3 -7 0 -14
-11 -16 -23 -2 -13 -8 -23 -14 -23 -6 0 -8 -14 -4 -37 17 -97 18 -126 6 -118
-20 12 -4 -54 20 -87 26 -36 25 -48 -4 -48 -34 0 -37 -9 -25 -71 6 -30 11 -64
13 -77 1 -12 8 -28 14 -34 7 -7 12 -22 12 -35 0 -15 11 -30 32 -43 31 -18 54
-18 43 1 -3 5 1 6 10 3 9 -4 13 -13 10 -24 -3 -9 1 -23 10 -30 19 -16 19 -49
0 -56 -21 -8 -19 -21 5 -29 12 -4 26 0 37 10 15 15 17 13 33 -32 12 -35 22
-49 38 -51 13 -2 25 3 28 12 3 9 12 16 20 16 10 0 14 14 14 48 0 48 1 49 44
72 l45 23 30 -24 c32 -26 59 -81 41 -87 -5 -2 -10 -16 -10 -30 0 -43 -11 -72
-27 -72 -11 0 -11 -4 -3 -20 15 -27 -6 -27 -22 1 -7 11 -29 29 -50 40 l-36 18
10 -32 c6 -18 20 -54 31 -80 17 -39 19 -52 9 -68 -17 -27 -15 -39 7 -39 10 0
22 -7 25 -16 9 -22 8 -24 -9 -24 -10 0 -15 -10 -15 -34 0 -19 -5 -36 -12 -38
-8 -3 -6 -14 7 -36 19 -31 38 -41 49 -23 3 4 16 6 30 4 24 -5 46 -39 46 -74 0
-12 14 -28 34 -40 19 -11 42 -31 50 -45 9 -13 22 -24 29 -24 25 0 66 -60 73
-108 5 -31 15 -52 31 -65 20 -16 23 -25 17 -55 -3 -21 -14 -44 -24 -52 -27
-22 -16 -78 17 -86 13 -4 38 -20 56 -38 26 -26 31 -38 30 -73 -1 -25 4 -46 13
-54 8 -6 14 -19 14 -28 0 -9 8 -28 18 -43 l18 -28 35 30 c19 16 46 29 62 30
22 0 27 4 27 25 0 14 4 25 10 25 20 0 75 65 75 90 0 16 6 25 15 25 8 0 18 4
22 9 4 6 13 4 22 -3 21 -17 20 -31 0 -31 -12 0 -15 -6 -9 -22 16 -55 21 -97
13 -113 -6 -10 -6 -21 2 -30 9 -11 7 -21 -10 -45 -12 -16 -26 -30 -31 -30 -16
0 -3 -15 39 -44 l39 -27 48 25 c47 25 104 30 134 12 7 -5 15 -6 18 -2 7 6 99
-40 108 -54 5 -8 11 -7 21 1 11 9 18 2 34 -36 13 -31 25 -45 34 -42 7 3 28 -7
47 -22 32 -27 33 -27 52 -8 13 13 27 17 47 14 38 -8 64 20 54 58 -6 24 -4 26
14 21 18 -6 21 -2 24 31 2 31 7 39 26 41 13 2 22 10 22 21 0 15 8 18 39 18 21
0 45 5 52 11 78 65 140 96 169 87 25 -8 38 20 22 46 -15 24 -15 29 1 29 7 0
13 8 13 19 0 13 -5 17 -16 13 -13 -5 -13 -3 -2 10 14 18 7 26 -29 33 -29 6
-51 26 -45 41 3 7 -1 26 -9 41 -8 15 -15 33 -15 40 0 6 -13 14 -28 18 -16 3
-39 19 -50 35 -23 31 -28 45 -12 35 5 -3 18 3 30 15 11 11 20 17 20 13 0 -5 5
0 11 10 7 12 23 17 54 17 36 0 47 5 69 31 14 17 30 28 35 25 5 -3 11 1 15 9 3
8 16 15 28 16 13 0 33 13 46 29 22 28 22 30 6 55 -16 25 -16 25 12 25 39 1 64
22 64 53 0 13 7 27 15 31 17 6 21 66 4 66 -5 0 -7 5 -4 10 9 14 38 -9 32 -24
-3 -7 4 -12 15 -12 15 0 18 5 13 23 -4 16 -1 23 10 23 8 0 18 12 22 28 l6 27
15 -35 c8 -19 17 -29 19 -22 3 7 0 19 -6 26 -6 7 -9 21 -5 30 4 11 1 16 -10
16 -23 0 -20 24 6 35 23 10 29 50 13 88 -9 22 -67 23 -85 2 -7 -8 -18 -15 -24
-15 -6 0 -27 -14 -45 -31 -19 -17 -45 -35 -58 -40 -19 -7 -22 -14 -17 -34 5
-22 3 -25 -19 -25 -20 0 -27 6 -32 30 -4 16 -15 36 -24 42 -18 13 -33 79 -35
149 -1 20 -9 46 -18 56 -10 11 -18 24 -18 29 0 5 -18 31 -40 58 -27 32 -39 55
-34 65 4 9 9 54 11 101 2 47 9 87 14 88 6 3 5 9 -1 17 -7 8 -9 23 -6 33 8 25
86 30 86 6 0 -8 -3 -14 -7 -14 -5 0 -8 -18 -8 -40 -1 -23 3 -39 9 -37 6 2 18
-6 27 -17 10 -12 20 -18 24 -14 4 4 0 14 -9 23 -25 26 -39 57 -29 64 6 3 18
23 28 44 9 20 30 45 46 54 20 12 27 23 23 35 -4 14 0 17 17 16 15 -2 27 5 34
18 6 12 16 29 23 37 8 9 9 18 3 21 -15 10 12 57 29 50 34 -14 50 -16 50 -5 0
6 11 11 25 11 16 0 25 6 25 16 0 13 -3 14 -14 5 -12 -10 -17 -8 -25 8 -6 11
-11 26 -11 34 0 8 -9 22 -20 32 -23 21 -26 37 -7 29 8 -3 20 2 27 11 20 24 56
18 96 -17 32 -28 34 -33 20 -44 -9 -6 -16 -21 -16 -32 0 -11 -8 -23 -17 -25
-14 -4 -13 -5 4 -6 12 0 24 -5 27 -10 3 -5 17 -11 31 -13 24 -5 25 -4 19 31
-5 35 -5 35 9 11 7 -14 19 -24 26 -22 13 3 51 -34 51 -49 0 -4 -9 -11 -21 -14
-15 -5 -19 -13 -16 -27 7 -25 -16 -34 -49 -20 -16 8 -24 8 -24 1 0 -6 -9 -8
-20 -4 -27 9 -25 2 11 -40 28 -32 30 -38 20 -67 -9 -26 -8 -35 4 -47 18 -19
51 -3 49 23 -2 23 13 20 21 -4 6 -17 12 -20 41 -14 28 5 40 2 58 -15 20 -19
26 -19 57 -9 18 7 35 13 37 14 5 3 -23 84 -28 84 -3 0 -4 29 -2 64 4 67 -8
106 -34 106 -10 0 -14 6 -11 14 3 8 1 28 -5 44 -10 25 -8 32 10 50 12 12 22
28 22 35 0 6 11 22 25 35 15 14 22 29 18 39 -4 10 -2 14 4 10 5 -3 20 3 32 15
18 16 28 18 44 11 12 -5 43 -7 70 -5 37 3 47 8 47 22 0 10 4 20 10 22 5 2 6
18 0 41 -8 36 -7 38 9 23 10 -9 21 -13 25 -9 4 4 17 8 28 8 33 0 35 25 1 25
-15 0 -35 4 -42 9 -8 5 -22 6 -30 2 -9 -5 -35 -11 -58 -15 -35 -5 -46 -2 -71
19 -39 33 -85 26 -102 -16 -7 -16 -17 -29 -22 -29 -6 0 -5 -7 2 -16 11 -13 10
-16 -8 -20 -12 -4 -19 -11 -15 -20 3 -8 -1 -14 -10 -14 -22 0 -30 -16 -17 -39
12 -24 -2 -97 -18 -93 -7 1 -12 -4 -12 -12 0 -13 -30 -31 -39 -24 -2 2 -7 -7
-12 -19 -5 -13 -17 -23 -28 -23 -21 0 -74 39 -53 40 8 0 10 8 6 24 -3 13 -1
33 5 44 13 24 5 52 -15 52 -8 0 -14 7 -14 16 0 9 -9 29 -21 45 -11 16 -23 44
-26 63 -5 29 -12 38 -47 52 -22 10 -50 19 -61 20 -10 1 -21 7 -23 13 -6 18
-19 13 -25 -9 -3 -13 -14 -20 -30 -20 -20 0 -23 4 -20 24 4 18 -1 25 -19 29
-40 11 -71 8 -90 -10 -12 -11 -18 -12 -18 -3 0 7 -7 10 -15 6 -8 -3 -15 -2
-15 2 0 4 -11 20 -25 36 -44 51 -21 90 31 51 19 -14 19 -14 0 -15 -15 0 -17
-3 -9 -11 13 -13 49 -7 46 8 -1 5 16 15 37 22 22 6 46 22 55 34 12 17 17 19
24 8 6 -9 11 -10 15 -2 4 6 16 11 26 11 10 0 21 6 23 13 3 6 6 1 6 -13 1 -18
4 -21 10 -11 7 11 14 8 32 -13 12 -14 32 -26 43 -26 19 0 19 2 -4 13 -16 8
-25 21 -25 37 0 14 -6 35 -12 47 -12 20 -12 21 21 11 23 -7 37 -19 40 -34 4
-13 13 -24 21 -24 8 0 15 2 15 5 0 10 -124 135 -134 135 -6 0 -26 16 -45 35
-36 37 -91 49 -91 20z m-215 -458 c20 -40 19 -46 -5 -40 -12 3 -20 0 -20 -6 0
-7 -5 -9 -10 -6 -6 4 -18 1 -27 -7 -14 -11 -13 -8 1 15 15 22 16 27 4 27 -10
0 -13 8 -10 28 3 24 8 28 28 24 14 -2 30 -17 39 -35z m281 -23 c5 -18 1 -29
-12 -39 -29 -22 -37 -18 -30 13 4 15 7 33 8 40 2 22 27 13 34 -14z m-859 -293
c3 -20 1 -21 -12 -7 -18 17 -20 39 -3 34 6 -2 13 -14 15 -27z m512 -65 c25
-14 24 -16 -28 -43 -32 -17 -31 -18 -31 22 0 39 16 45 59 21z m-61 -84 c6 -18
-15 -14 -22 4 -4 10 -1 14 6 12 6 -2 14 -10 16 -16z m-32 -49 c-10 -10 -19 5
-10 18 6 11 8 11 12 0 2 -7 1 -15 -2 -18z m-431 -13 c3 -5 -3 -10 -14 -10 -12
0 -21 -5 -21 -12 0 -9 -3 -9 -12 0 -10 10 -10 15 2 22 20 13 37 12 45 0z m923
-820 c7 -11 9 -20 4 -20 -10 0 -32 22 -32 32 0 15 15 8 28 -12z m-1085 -542
c32 -12 33 -18 7 -41 -11 -9 -17 -23 -14 -30 6 -16 -22 -31 -31 -17 -4 6 -6
29 -7 53 0 23 -5 46 -12 50 -11 9 -3 7 57 -15z"/>
<path d="M10511 12034 c0 -11 3 -14 6 -6 3 7 2 16 -1 19 -3 4 -6 -2 -5 -13z"/>
<path d="M7735 12490 c10 -11 20 -20 22 -20 2 0 -2 9 -9 20 -7 11 -17 20 -22
20 -5 0 -1 -9 9 -20z"/>
<path d="M7845 12470 c-4 -12 -5 -24 -2 -27 3 -2 8 5 12 17 4 12 5 24 2 27 -3
2 -8 -5 -12 -17z"/>
<path d="M7809 12436 c27 -29 33 -32 25 -13 -2 7 -14 19 -27 26 -21 13 -21 12
2 -13z"/>
<path d="M8103 12395 c-11 -8 -23 -25 -27 -38 -5 -20 -13 -24 -45 -25 -21 -1
-52 -7 -67 -13 -25 -9 -31 -7 -45 10 -10 12 -20 21 -24 21 -4 0 -19 9 -35 20
l-27 19 -24 -26 -24 -26 32 6 c27 5 35 2 45 -16 7 -12 13 -31 13 -42 0 -12 8
-21 20 -23 11 -2 32 -15 47 -29 14 -14 31 -22 37 -19 6 4 18 3 28 -2 20 -11
25 -104 10 -167 -6 -22 -9 -50 -9 -62 1 -12 -3 -25 -8 -28 -16 -10 -12 -71 6
-86 8 -7 13 -21 11 -31 -3 -11 -1 -15 5 -12 6 4 14 0 19 -7 8 -12 10 -12 18 1
5 8 7 18 4 23 -6 10 30 42 68 59 35 15 46 48 18 55 -10 3 -19 12 -19 19 0 25
-1 29 -18 47 -15 17 -15 17 1 11 9 -3 17 -10 17 -15 0 -5 8 -9 18 -10 10 0 12
-3 5 -6 -7 -2 -13 -12 -12 -21 0 -11 2 -12 6 -4 2 6 14 12 25 12 14 0 18 5 14
15 -8 23 11 18 29 -7 13 -20 17 -21 25 -8 9 13 11 13 20 0 5 -8 11 -19 13 -25
5 -13 37 13 37 30 0 7 6 17 13 24 16 12 37 -3 37 -28 1 -9 22 -26 48 -39 47
-23 49 -23 90 -7 23 10 48 15 56 12 11 -4 7 8 -10 40 -13 25 -24 58 -24 73 0
21 -6 29 -25 34 -19 5 -25 13 -25 33 0 41 -22 92 -42 99 -10 3 -23 15 -29 26
-10 18 -17 19 -64 13 -47 -5 -55 -4 -64 14 -6 11 -9 26 -6 33 7 19 -6 34 -37
44 -16 5 -28 14 -27 19 0 10 -31 22 -61 24 -9 1 -25 -6 -37 -14z"/>
<path d="M11055 12328 c-13 -16 -14 -20 -2 -15 8 3 20 0 26 -6 8 -8 11 -8 11
1 0 6 7 9 15 6 25 -10 17 12 -9 24 -19 8 -26 7 -41 -10z"/>
<path d="M11113 12255 c-6 -14 -7 -25 -2 -25 5 0 9 5 9 10 0 6 7 10 15 10 9 0
12 6 9 15 -9 21 -17 18 -31 -10z"/>
<path d="M11710 12198 c0 -10 5 -18 11 -18 5 0 15 -13 20 -30 6 -16 15 -28 19
-25 5 3 13 -3 19 -12 9 -16 10 -16 11 4 0 12 -4 25 -10 28 -18 11 -10 26 10
20 21 -7 28 9 9 20 -6 4 -8 13 -5 20 3 10 -7 13 -40 13 -36 -1 -44 -5 -44 -20z"/>
<path d="M11685 12110 c-3 -5 3 -10 15 -10 12 0 18 5 15 10 -3 6 -10 10 -15
10 -5 0 -12 -4 -15 -10z"/>
<path d="M11840 12094 c0 -23 -2 -25 -15 -14 -18 15 -34 5 -18 -11 15 -15 48
-7 48 11 0 8 4 21 8 28 5 8 3 12 -7 12 -11 0 -16 -9 -16 -26z"/>
<path d="M11738 12079 c12 -12 38 -15 37 -5 0 5 -10 10 -22 11 -13 0 -19 -2
-15 -6z"/>
<path d="M9630 11675 c0 -8 7 -15 16 -15 14 0 14 3 4 15 -7 8 -14 15 -16 15
-2 0 -4 -7 -4 -15z"/>
<path d="M11008 11422 c-3 -9 -2 -26 2 -37 4 -11 4 -27 -1 -35 -11 -22 29 -20
61 3 21 15 23 20 12 37 -10 17 -10 20 5 20 14 1 12 4 -7 15 -35 20 -67 19 -72
-3z"/>
<path d="M10730 11322 c0 -9 -3 -26 -6 -37 -4 -17 3 -25 39 -43 24 -12 47 -22
51 -22 13 0 5 28 -10 34 -9 4 -14 13 -10 22 3 9 2 12 -5 9 -14 -9 -41 15 -35
31 3 7 -2 15 -10 18 -9 3 -14 -1 -14 -12z"/>
<path d="M9740 11315 c-10 -12 -10 -15 4 -15 9 0 16 5 16 11 0 5 5 7 12 3 7
-4 8 -3 4 4 -10 16 -21 15 -36 -3z"/>
<path d="M10883 11179 c15 -12 36 -38 47 -58 23 -46 45 -67 55 -51 4 6 15 8
26 5 11 -4 19 -2 19 5 0 6 4 8 10 5 5 -3 7 0 4 8 -3 8 -16 20 -30 27 -13 7
-24 20 -24 29 0 14 -2 14 -10 1 -8 -13 -11 -13 -19 -1 -5 7 -13 11 -19 7 -6
-3 -22 5 -36 19 -14 14 -31 25 -38 25 -7 0 0 -10 15 -21z"/>
<path d="M11097 11078 c-21 -22 -27 -37 -23 -54 4 -15 11 -21 20 -18 8 3 17 0
21 -6 5 -8 11 -8 21 1 18 15 18 29 -1 29 -8 0 -15 4 -15 9 0 21 13 41 26 41
19 0 18 16 -2 24 -19 7 -14 10 -47 -26z"/>
<path d="M11070 10981 c0 -6 4 -13 10 -16 6 -3 7 1 4 9 -7 18 -14 21 -14 7z"/>
<path d="M11000 10726 c0 -9 5 -16 10 -16 6 0 10 4 10 9 0 6 -4 13 -10 16 -5
3 -10 -1 -10 -9z"/>
<path d="M9200 10166 c0 -9 7 -12 20 -9 11 3 17 9 14 14 -8 14 -34 10 -34 -5z"/>
<path d="M10708 10123 c5 -21 7 -23 10 -9 2 10 0 22 -6 28 -6 6 -7 0 -4 -19z"/>
<path d="M9318 9887 c-46 -8 -58 -14 -58 -29 0 -12 -7 -18 -24 -18 -16 0 -27
-7 -31 -21 -5 -13 -12 -18 -22 -14 -9 3 -30 1 -47 -4 -17 -5 -47 -12 -67 -15
-30 -5 -38 -11 -42 -36 -6 -26 -9 -28 -42 -25 -20 2 -43 9 -52 16 -14 12 -15
11 -9 -7 9 -29 -33 -42 -51 -17 -12 15 -13 15 -13 -6 0 -12 -5 -31 -11 -42
-11 -22 5 -54 22 -43 5 3 9 -2 9 -10 0 -9 9 -25 21 -37 20 -20 20 -21 3 -40
-10 -11 -28 -18 -43 -17 -20 2 -26 -2 -27 -17 -1 -11 -2 -37 -3 -57 0 -25 -6
-38 -15 -38 -7 0 -16 -13 -19 -30 -5 -22 -12 -30 -27 -30 -13 0 -18 -4 -15
-11 4 -5 -1 -19 -11 -30 -12 -13 -17 -32 -15 -55 1 -19 -2 -34 -8 -34 -6 0
-11 -13 -11 -30 0 -16 -4 -30 -10 -30 -16 0 -23 -49 -9 -66 12 -15 19 -55 19
-104 -1 -14 -1 -45 -1 -70 1 -25 -2 -52 -6 -60 -4 -8 -7 -22 -8 -30 -3 -35
-28 -78 -50 -88 -35 -16 -31 -37 17 -84 25 -25 37 -43 30 -46 -17 -5 -15 -29
2 -35 25 -10 11 -41 -27 -62 -41 -22 -44 -36 -21 -80 8 -16 16 -49 18 -73 3
-30 10 -48 25 -58 12 -8 21 -12 21 -8 0 3 7 1 16 -7 10 -8 14 -22 11 -38 -4
-20 1 -31 20 -44 24 -19 24 -19 30 2 3 13 13 21 26 21 12 0 31 12 42 27 29 35
94 44 102 13 3 -11 11 -20 18 -20 8 0 17 -9 20 -21 4 -11 12 -18 18 -16 15 5
47 -11 47 -23 0 -6 -9 -10 -21 -10 -16 0 -19 -4 -14 -20 6 -18 3 -20 -19 -14
-20 5 -26 2 -26 -10 0 -9 -9 -21 -19 -28 -10 -6 -17 -18 -14 -25 3 -7 -2 -24
-11 -38 -9 -13 -16 -31 -16 -40 0 -9 -9 -15 -25 -15 -16 0 -25 -6 -25 -15 0
-8 3 -14 8 -13 4 1 20 -5 35 -12 24 -12 30 -12 38 1 7 12 9 12 9 -2 0 -28 -39
-59 -75 -59 -19 0 -35 -4 -35 -9 0 -6 -12 -9 -27 -8 -23 2 -28 -3 -36 -35 -5
-21 -15 -38 -23 -38 -8 0 -11 -6 -7 -17 4 -11 -3 -23 -21 -38 -15 -12 -28 -31
-29 -43 -1 -19 -7 -22 -45 -22 -24 0 -53 5 -64 11 -16 9 -23 8 -29 -2 -7 -12
-14 -11 -40 4 -36 20 -56 22 -61 6 -3 -9 -9 -9 -25 -1 -18 10 -21 8 -25 -13
-5 -22 -2 -25 25 -25 17 0 35 -8 42 -17 12 -17 14 -17 32 -1 10 9 36 20 58 23
37 5 42 3 61 -27 11 -18 26 -32 32 -31 6 2 14 -6 17 -17 7 -21 30 -27 39 -11
3 5 18 12 33 16 36 9 63 33 63 57 0 22 -5 23 55 -6 l50 -25 5 22 6 21 21 -21
c20 -20 23 -20 50 -6 19 10 42 13 71 9 42 -6 92 10 107 34 3 5 -2 24 -11 42
-12 23 -13 33 -5 36 9 3 7 10 -5 23 -16 17 -16 19 1 25 9 4 33 7 53 8 35 1 37
-1 38 -29 0 -34 10 -55 25 -55 6 0 6 7 -1 19 -15 29 -12 38 5 15 12 -16 16
-17 24 -4 8 12 13 12 30 -4 12 -11 21 -25 21 -33 0 -8 13 -13 38 -13 21 0 44
-6 50 -12 13 -13 21 -7 36 27 3 6 10 3 15 -7 7 -10 19 -14 32 -11 19 5 20 3
11 -12 -10 -19 5 -45 27 -45 6 0 11 -5 11 -12 0 -6 6 -3 14 8 14 19 15 19 50
0 20 -11 37 -17 39 -15 20 32 45 87 41 92 -3 3 -18 2 -33 -3 -18 -5 -36 -3
-52 5 -13 7 -27 11 -31 9 -5 -3 -8 0 -8 5 0 19 -17 12 -23 -9 -8 -30 -52 -12
-52 21 0 14 -9 29 -22 37 -13 7 -23 20 -23 28 0 9 -7 22 -15 30 -21 21 -19 29
10 42 26 12 36 35 10 26 -10 -4 -15 0 -15 13 0 26 7 32 31 26 10 -3 19 -14 19
-24 0 -11 5 -19 11 -19 5 0 7 5 4 10 -7 12 5 13 23 2 9 -7 6 -15 -13 -36 -17
-18 -24 -34 -20 -47 8 -25 42 -25 50 0 3 11 17 26 30 35 23 15 25 15 35 -3 5
-11 10 -26 10 -33 0 -8 7 -24 16 -36 13 -18 19 -21 30 -11 11 9 14 9 14 -1 0
-10 16 -11 65 -7 37 4 65 2 65 -3 0 -5 18 -27 41 -50 36 -36 44 -39 77 -34 33
5 41 2 77 -35 22 -22 49 -41 59 -41 11 0 28 -7 38 -17 16 -14 26 -15 76 -6 49
10 59 9 70 -5 11 -15 15 -15 49 3 20 11 38 27 40 36 4 13 13 16 44 12 30 -4
40 -2 45 11 5 13 9 14 20 5 11 -9 14 -8 14 4 0 8 7 20 15 27 8 7 12 16 10 20
-3 5 8 5 25 0 22 -6 34 -5 44 6 13 12 17 11 34 -11 11 -14 27 -25 36 -25 9 0
37 -19 61 -41 25 -23 47 -40 49 -38 8 10 36 69 36 78 0 5 -15 19 -34 30 -29
18 -34 27 -40 75 -3 30 -9 63 -13 73 -6 16 -5 17 11 4 15 -13 19 -13 27 0 5 8
9 19 9 25 0 7 8 11 18 10 14 -1 17 8 18 57 1 32 6 63 12 69 9 9 12 9 12 0 0
-7 11 -12 25 -12 30 0 33 20 4 27 -21 6 -21 6 2 19 13 7 37 13 52 14 33 0 67
16 67 32 0 6 11 21 25 34 14 13 25 27 25 31 0 5 -24 8 -54 9 -40 0 -53 -4 -52
-14 1 -8 -9 -18 -21 -23 -17 -6 -29 -1 -56 25 -33 31 -39 33 -97 30 -34 -1
-73 1 -86 6 -19 7 -24 6 -24 -5 0 -8 -9 -15 -19 -15 -11 0 -22 -9 -26 -20 -5
-16 -9 -18 -31 -8 -20 10 -27 9 -35 -3 -6 -10 -9 -10 -9 -1 0 8 -16 12 -46 12
-38 0 -47 4 -51 20 l-6 21 -14 -21 c-17 -25 -29 -26 -36 -2 -2 9 -8 26 -12 37
-5 11 -5 17 0 13 4 -4 16 9 27 30 l19 37 -45 43 c-25 23 -41 42 -35 42 5 0 9
9 9 20 0 21 40 38 59 25 16 -9 13 2 -6 32 -10 15 -12 24 -5 20 8 -6 12 0 14
20 2 43 3 46 26 83 24 39 26 48 13 69 -6 10 -5 27 4 47 7 18 11 35 7 38 -3 3
4 6 15 6 18 0 20 4 14 28 -5 15 -12 26 -17 25 -5 -1 -13 -2 -19 -3 -5 -1 -32
-2 -60 -1 -44 1 -52 5 -70 31 -11 16 -26 30 -33 30 -7 0 -15 7 -18 15 -4 10
-11 12 -23 5 -19 -10 -58 -3 -78 13 -9 6 -13 6 -13 -1 0 -6 -25 3 -55 20 -41
24 -56 39 -61 62 -5 22 -2 33 11 42 10 8 15 20 11 29 -3 9 1 27 10 40 9 14 13
32 10 41 -4 10 -2 14 6 10 7 -3 21 -9 31 -12 20 -7 39 -66 24 -75 -5 -4 -5 -9
2 -13 6 -4 9 -11 6 -16 -3 -5 -2 -11 3 -14 10 -6 112 22 129 36 9 7 20 2 36
-16 13 -14 34 -26 45 -26 11 0 24 -5 27 -10 4 -7 13 -6 27 1 18 9 24 8 35 -7
18 -24 28 -11 12 17 -7 13 -13 40 -14 61 -2 28 -10 44 -29 59 -14 11 -26 27
-26 35 0 8 -10 14 -23 14 -27 0 -75 49 -105 108 -29 56 -28 63 7 56 23 -5 32
-2 43 15 7 12 18 21 23 21 17 0 12 46 -6 66 -23 26 -34 64 -19 64 7 0 10 6 7
14 -3 8 1 20 9 26 8 7 14 19 14 27 0 10 7 14 19 10 15 -3 22 7 40 58 11 35 21
70 21 79 0 10 5 14 10 11 6 -3 10 -1 10 5 0 14 -51 9 -67 -7 -7 -6 -13 -23
-13 -37 0 -19 -5 -26 -20 -26 -11 0 -23 -6 -26 -14 -3 -8 -19 -18 -35 -21 -16
-4 -29 -11 -29 -16 0 -5 -9 -9 -21 -9 -11 0 -17 5 -14 10 3 6 -1 10 -9 10 -8
0 -20 9 -26 20 -6 11 -16 18 -21 14 -6 -3 -26 11 -46 31 -41 43 -71 56 -95 43
-12 -6 -18 -5 -18 2 0 6 -6 10 -12 8 -7 -1 -23 3 -35 10 -15 8 -29 9 -47 2
-21 -8 -31 -5 -54 15 -22 19 -32 21 -41 12 -9 -9 -16 -9 -31 1 -26 16 -40 15
-40 -3 0 -11 -9 -14 -32 -11 -27 3 -34 8 -36 30 -4 29 -35 43 -74 32 -15 -3
-30 2 -44 15 -14 13 -24 17 -29 10 -8 -13 -62 -15 -69 -2 -3 5 1 12 10 15 13
5 14 9 4 21 -6 7 -18 11 -26 8 -8 -3 -14 0 -14 6 0 12 -12 12 -92 -2z m292
-113 c0 -14 -3 -14 -15 -4 -8 7 -15 14 -15 16 0 2 7 4 15 4 8 0 15 -7 15 -16z
m-485 -734 c3 -5 15 -10 25 -10 10 0 23 -6 27 -14 8 -13 100 -66 116 -66 5 0
5 5 2 10 -3 6 1 13 9 16 9 3 16 12 16 20 0 19 39 18 46 -1 4 -10 14 -13 28 -9
14 3 32 -3 48 -15 14 -12 31 -21 36 -21 20 0 26 -24 27 -104 1 -51 7 -89 16
-103 12 -20 12 -26 0 -45 -20 -31 -31 -77 -21 -83 5 -3 7 -12 4 -20 -4 -8 -10
-12 -15 -9 -5 3 -9 -2 -9 -11 0 -9 -9 -19 -20 -22 -15 -4 -19 -11 -15 -24 10
-30 -24 -24 -35 6 -5 14 -17 28 -25 31 -8 4 -15 14 -15 23 0 29 -24 70 -47 80
-19 9 -21 8 -16 -7 5 -15 3 -14 -16 3 -18 15 -24 16 -30 6 -6 -9 -11 -9 -15
-3 -3 6 -2 13 4 17 14 9 2 25 -14 19 -16 -6 -46 21 -46 42 0 8 -6 14 -14 14
-8 0 -17 6 -20 13 -3 6 -3 2 0 -11 4 -15 0 -24 -10 -28 -9 -3 -14 -10 -11 -14
3 -5 -2 -13 -12 -18 -9 -6 -18 -24 -19 -42 -3 -39 -18 -51 -59 -48 -28 3 -30
5 -29 45 1 32 -3 44 -15 48 -22 7 -45 66 -30 76 7 4 9 17 6 30 -3 13 -10 40
-14 59 -6 23 -20 43 -42 57 -19 13 -29 23 -22 23 6 0 11 9 11 20 0 11 7 20 15
20 8 0 15 4 15 8 0 14 50 33 63 25 21 -13 35 -12 41 3 5 13 10 13 35 0 31 -17
47 -11 30 11 -8 9 -8 13 -1 13 6 0 14 -4 17 -10z m745 -384 c-4 -4 -6 -14 -3
-21 5 -14 -30 -55 -47 -55 -5 0 -10 -7 -10 -15 0 -8 4 -15 10 -15 17 0 41 -46
44 -86 3 -46 -27 -101 -61 -110 -25 -7 -30 -33 -11 -52 9 -9 8 -12 -4 -12 -13
0 -18 -11 -20 -42 -2 -25 -8 -42 -14 -41 -7 1 -11 -3 -11 -10 1 -40 -2 -42
-78 -43 -56 0 -74 3 -71 12 3 7 -2 18 -10 24 -11 10 -14 9 -14 -9 0 -11 -6
-21 -12 -22 -7 0 -21 -2 -31 -4 -13 -2 -6 9 21 37 23 23 38 46 35 54 -3 8 1
14 11 14 19 0 20 9 5 30 -8 11 -12 12 -16 3 -2 -7 -11 -13 -19 -13 -9 0 -12
-4 -9 -10 3 -5 2 -10 -4 -10 -21 0 -19 18 4 38 14 12 25 28 25 37 0 8 9 19 20
25 11 6 17 16 14 25 -3 8 1 22 10 30 9 9 16 20 16 25 0 16 -22 23 -30 10 -14
-22 -20 6 -9 44 11 38 3 69 -11 45 -7 -10 -12 -10 -23 -1 -7 7 -17 9 -20 5 -4
-3 -7 1 -7 10 0 9 5 19 10 22 6 3 10 15 10 26 0 20 15 26 25 9 9 -14 44 -12
60 3 7 8 11 25 8 39 -5 26 -4 26 33 17 22 -5 43 -9 47 -9 4 0 7 -8 5 -17 -2
-13 5 -19 26 -21 48 -6 79 6 73 28 -6 23 23 46 35 27 4 -7 3 -16 -2 -21z
m-628 -518 c-7 -7 -12 -8 -12 -2 0 14 12 26 19 19 2 -3 -1 -11 -7 -17z m288
-7 c0 -5 -7 -14 -15 -21 -16 -14 -18 -10 -9 14 6 17 24 22 24 7z m-140 -130
c0 -12 -20 -36 -20 -24 0 6 -3 19 -6 27 -5 12 -2 15 10 10 9 -3 16 -9 16 -13z
m-306 -182 c-6 -11 -24 -2 -24 11 0 5 7 7 15 4 8 -4 12 -10 9 -15z m1414 -107
c6 -18 -15 -14 -22 4 -4 10 -1 14 6 12 6 -2 14 -10 16 -16z"/>
<path d="M9420 8570 c8 -5 20 -10 25 -10 6 0 3 5 -5 10 -8 5 -19 10 -25 10 -5
0 -3 -5 5 -10z"/>
<path d="M9635 8320 c3 -5 13 -10 21 -10 8 0 12 5 9 10 -3 6 -13 10 -21 10 -8
0 -12 -4 -9 -10z"/>
<path d="M10377 9790 c7 -25 23 -37 23 -17 0 8 -6 20 -14 26 -12 10 -13 8 -9
-9z"/>
<path d="M10437 8894 c-25 -34 -6 -94 30 -94 12 0 14 8 9 35 -5 27 -3 37 9 41
20 8 19 30 -1 38 -24 9 -27 7 -47 -20z"/>
<path d="M10830 7970 c0 -5 5 -10 11 -10 5 0 7 5 4 10 -3 6 -8 10 -11 10 -2 0
-4 -4 -4 -10z"/>
<path d="M8332 7755 c6 -14 16 -25 22 -25 6 0 6 4 -2 12 -8 8 -9 15 -1 25 9
10 7 13 -10 13 -18 0 -19 -3 -9 -25z"/>
<path d="M9316 7721 c-9 -9 -14 -20 -10 -23 9 -10 44 4 44 18 0 22 -16 25 -34
5z"/>
<path d="M8380 7720 c8 -5 20 -10 25 -10 6 0 3 5 -5 10 -8 5 -19 10 -25 10 -5
0 -3 -5 5 -10z"/>
<path d="M9206 7652 c-9 -17 -21 -32 -28 -34 -7 -3 -1 -7 15 -10 17 -3 27 -1
27 6 0 6 14 17 31 23 36 14 34 37 -4 41 -20 3 -29 -3 -41 -26z"/>
<path d="M9413 7606 c-29 -30 -29 -33 2 -33 18 0 30 8 41 28 13 27 13 29 -3
29 -10 0 -28 -11 -40 -24z"/>
<path d="M9525 7622 c-9 -9 -5 -22 7 -22 6 0 20 -7 30 -17 11 -9 18 -11 18 -5
0 7 15 12 35 12 35 0 46 12 23 26 -7 4 -8 3 -4 -4 4 -7 2 -12 -3 -12 -6 0 -11
6 -11 13 0 12 -83 20 -95 9z"/>
<path d="M10787 7587 c3 -14 -2 -31 -12 -41 -15 -14 -15 -21 -5 -46 7 -16 19
-35 28 -42 13 -11 12 -8 -2 13 -16 26 -16 27 9 43 30 19 31 43 6 74 -24 28
-29 28 -24 -1z"/>
<path d="M9335 7560 c-18 -19 -17 -20 1 -20 20 0 44 17 44 32 0 15 -27 8 -45
-12z"/>
<path d="M9154 7552 c7 -12 -22 -25 -37 -15 -6 3 -34 7 -64 9 -60 2 -63 -2
-39 -71 13 -36 13 -41 -2 -49 -10 -5 -23 -18 -30 -28 -7 -10 -22 -18 -33 -18
-23 0 -23 -3 -4 -40 9 -18 11 -31 5 -35 -6 -3 -10 -17 -10 -31 0 -18 -5 -24
-22 -24 -20 0 -20 -2 11 -34 21 -21 39 -32 49 -29 8 4 20 -1 27 -11 8 -11 15
-13 20 -7 3 6 24 11 46 11 22 0 39 5 39 11 0 15 30 38 50 39 21 0 51 60 54
106 1 22 7 48 13 60 7 13 8 25 2 35 -14 22 -11 26 26 33 32 6 40 15 36 40 -1
4 3 14 10 22 12 15 0 19 -95 29 -37 4 -56 3 -52 -3z"/>
<path d="M10880 7490 c0 -5 4 -10 9 -10 5 0 12 -7 15 -16 7 -18 -15 -44 -38
-44 -9 0 -16 -6 -16 -14 0 -17 -31 -30 -39 -17 -4 6 -12 6 -20 2 -18 -12 6
-50 37 -57 12 -4 22 -14 22 -23 0 -10 9 -27 20 -39 11 -12 20 -26 20 -31 0 -5
5 -13 12 -17 8 -5 9 2 5 22 -4 23 -1 33 14 42 10 7 19 21 19 31 0 11 8 22 19
26 27 8 35 60 14 91 -11 17 -18 21 -23 14 -5 -8 -14 -5 -29 11 -11 12 -21 26
-21 31 0 4 -4 8 -10 8 -5 0 -10 -4 -10 -10z"/>
<path d="M8677 7362 c-7 -11 17 -100 31 -114 9 -9 12 -7 12 10 0 12 -4 22 -9
22 -10 0 -3 39 11 57 5 7 7 17 3 23 -7 12 -42 14 -48 2z"/>
<path d="M8747 7340 c3 -11 9 -20 14 -20 11 0 11 3 3 24 -9 23 -23 20 -17 -4z"/>
<path d="M8887 7210 c-8 -29 -5 -33 23 -28 22 3 22 3 3 27 l-20 24 -6 -23z"/>
<path d="M8800 7210 c0 -5 -6 -10 -13 -10 -7 0 -20 -9 -30 -20 -16 -19 -16
-20 18 -20 24 0 35 5 35 14 0 8 3 21 6 30 3 9 1 16 -5 16 -6 0 -11 -4 -11 -10z"/>
</g>
</svg>
