<svg version="1" xmlns="http://www.w3.org/2000/svg" width="1113.949" height="1050.032" viewBox="0 0 835.462 787.524"><g fill="#222"><path d="M595 1.624c0 3.3 3.8 7.9 6.5 7.9 1.3 0 2.7.4 3 1 .3.5.1 1-.6 1-1 0-1 .3-.1 1.2.7.7 1.2 1.5 1.2 1.9 0 1.2-3.8 1.7-4.9.6-.8-.8-1.1-.3-1.1 1.6 0 1.5-.4 2.7-1 2.7-.5 0-1 .9-1 2.1 0 3.1-3 8.9-4.6 8.9-.8 0-1.4.5-1.4 1.1 0 .7-.7.8-1.7.4-3.1-1.2-5.4-1.4-4.8-.4 1.1 1.7-.6 3.1-2.1 1.8-2-1.7-2.9-.4-3 4.4-.2 5.7-1.3 13.7-2 14.9-.3.5-1.4.6-2.5.3-1.3-.4-1.9-.2-1.9.8 0 .8-1.1 2.2-2.5 3.1-2.3 1.5-3.8 5.5-1.5 4.1.6-.4.7-1.1.4-1.7-.9-1.4 3.6 0 5.7 1.8 1.8 1.6 3.3 1.9 2.4.4-1.2-1.9.7-1 2.5 1.2 1.7 2.2 1.7 2.3-1.2 4.8-2.8 2.4-2.9 2.8-1.4 4.3 2.1 2.1 2 2.7-.5 2.7-1.5 0-1.9.4-1.5 1.6.4 1.1.1 1.4-1.2 1.2-1.1-.3-1.6-1.2-1.5-2.6.3-2.9-4.4-4.3-6.2-1.8-1.8 2.4-2.3 2-3.5-2.6-.8-2.8-1.4-3.7-2-2.8-.4.7-2.9 2.3-5.5 3.4-4.4 2.1-4.5 2.3-2.8 3.8 1 .9 3.4 2 5.3 2.6 1.9.5 4.4 1.3 5.4 1.8 1.6.6 1.8.4 1.3-.9-.8-2 .3-2.2 2.5-.5 1.8 1.5 3.8 7 3.8 10.4 0 1.6.5 2.1 1.8 1.8 1.5-.4 1.7.2 1.7 4.8s-.3 5.3-2 5.3c-1.1.1-2.5.4-3.1.8-.7.4-3.3.3-5.8-.2-4.6-.8-4.6-.8-4.6 2 0 2.2-.5 2.9-1.9 2.9-2.3 0-3.6 5.2-1.9 7.9.9 1.5.8 2.9-.7 6.7-2.3 6.2-3.2 7.4-6 7.4-2.5 0-6 3.4-5.1 4.8.3.6-.1 1.2-.9 1.6-2.3.8-1.8 2.2 1.8 5.8 2 2.1 4 3.2 5.2 2.9 1.1-.2 1.7 0 1.2.5-.4.4.2 1.8 1.4 3l2.2 2.3-2.8.7c-2.1.5-3 .2-3.7-1.1-.9-1.5-1.1-1.5-2.2.6-.8 1.6-2.2 2.5-4.3 2.7-2.1.2-3.4 1-3.8 2.3-.7 2.2-.9 2.2-5.3 1-3.5-1-4-.3-2 2.8.9 1.5.8 2.2-.5 3.5-.8.9-2 1.6-2.6 1.6-2 0-1.2 5.1 1 6.9 1.2 1 2.7 3.3 3.3 5.2.7 2.1 1.9 3.5 3.1 3.8 1.1.2 2.3.8 2.7 1.4.9 1.4 9.1.9 10-.6.4-.7 1.1-.7 2.2.2 1.2 1 1.3 1.7.5 2.7-.6.7-.8 1.8-.4 2.4.4.6.8 2.4.9 3.8.1 1.5.6 3.7 1 4.9.5 1.5.1 2.8-1.2 4.1-1.4 1.4-1.7 2.4-1 3.7.6.9 1.2 3.7 1.5 6.1.3 3.6 0 5-2.1 7.7-2.7 3.5-3.6 10.9-1.6 12.2.6.3 1-.2 1-1.1 0-1.5.2-1.6 1.3-.5.9 1.1.9 1.4 0 1.8-.7.2-2.2 2-3.4 3.9-2 3.2-2 3.6-.5 5.9 1.8 2.7 2.1 3.9.7 3.1-.5-.3 0 1.1 1 3.2 2.6 4.9 2.2 7.7-1.1 7.8-4.9.1-11 1.6-11 2.6 0 .6-.6.6-1.5-.2-1.8-1.5-8.2-1.7-9.6-.3-1.5 1.5-.1 5.6 1.7 4.9 2-.8 4.4.3 4.4 2 0 .8-1 1.4-2.4 1.4-2.6 0-4 2.9-4.1 8.5v2.9l-6.2-.2-6.3-.2v3c0 1.7-.4 3-1 3-.5 0-.7.7-.4 1.5.4.9 0 1.5-.9 1.5-1.1 0-1.5.9-1.5 3.2.1 1.8-.4 3.4-1 3.6-.7.2-1.2 1.2-1.2 2.2 0 2.4-2.9 4-7.3 4-3.1 0-3.6.4-5.2 4.5-1.3 3.7-2.1 4.5-3.5 4-2.2-.7-10.4 4.1-9.5 5.5.4.6-.1 1.3-.9 1.6-.9.3-1.6 1.5-1.6 2.5s-.6 1.9-1.3 1.9c-2.4 0-5.8 5.9-6.4 11.1-.5 4.2-1.3 5.8-4.5 9-5.7 5.6-9.3 7.6-11.2 6-1.7-1.4-5.2.4-9.8 5.1-1.4 1.6-3.3 2.8-4.1 2.8-.9 0-2.3.8-3.3 1.7-1 1-2 1.8-2.3 1.9-1.8.3-6.7 2.7-7.3 3.6-.5.9-1.1.8-2.2-.1-.9-.8-3.4-1.4-5.7-1.5-3.4-.2-4.3.1-5.2 2.1-.8 1.8-1.5 2.1-3.5 1.6-2.2-.5-2.3-.3-1.7 1.7.6 2 .4 2.2-1.8 1.8-1.6-.3-2.8 0-3.1.8-.3.8-1.2 1.1-2.3.7-1.4-.5-1.2 0 .7 2.7 1.8 2.5 2 3.2.8 2.7-1.2-.4-2.1.3-3 2.4-.7 1.6-2.1 2.9-3.1 2.9-1.6 0-1.7.6-1.2 5 .5 4.3.3 4.9-1.1 4.3-.9-.3-1.4-1.3-1.1-2.4 1-3.7-1.1-2.7-5.7 2.6-2.6 3-5.4 5.5-6.1 5.5-.8 0-1.2.6-.9 1.3.3.8-.2 2-1.1 2.7-1.2 1-1.8 1-3 0-2.2-1.8-3.2 1.6-1.1 3.9 1.5 1.6 1.5 1.9-.3 3.5-1.1 1-2.4 1.5-3 1.2-.5-.4-1.2.2-1.6 1.3-.3 1.1-1.9 2.2-3.5 2.6-2.4.5-3 1.2-3 3.3 0 1.5-.4 3.3-.9 4.1-.6.9-.5 2.4.2 3.9.9 1.9.8 2.6-.4 3.6-.8.6-1.8 1.9-2.2 2.8-.3 1-1.1 1.8-1.7 1.8-.6 0-.8 1-.4 2.5.4 1.8.1 2.7-1 3.1-.9.3-1.6 1.1-1.6 1.8 0 .6-1.7 1.6-3.7 2.3-3.5 1.1-4 1-6.3-1.2-2-1.9-2.9-2.2-4.3-1.3-1.5.8-2.4.5-4.2-1.2-1.5-1.4-2.5-1.8-3-1.1-.3.6-1.5 1.1-2.6 1.1-1 0-2.7.5-3.7 1.1-1.4.9-2.6.8-5.1-.5-3.7-2-9.1-1.3-9.1 1 0 .8-.7 2.8-1.5 4.4-1.2 2.4-2.2 3-4.8 3-2.1 0-3.6.7-4.4 1.9-1.6 2.6-6.3 3.4-6.3 1 0-1-.4-2-.8-2.3-1.3-.8-8.7 1.7-10.6 3.6-1 1-2.2 1.8-2.7 1.8-1.2 0-4-2.6-3.4-3.1.2-.2-1.1-.5-2.9-.6-1.8-.1-4.9-1.1-7-2.3-3.1-1.9-4.1-2.1-6.2-1.1-2.2 1-2.8.8-4.5-1.1l-1.9-2.3 1.1 2.7c1 2.3.9 3.1-.4 4.6-2.3 2.5-3.1 7.5-1.9 11.1 1.6 4.4.4 9.2-3.2 13.5l-3.1 3.8-4.3-1.5c-2.5-.9-4.2-1.1-4.2-.5 0 .6-1.4.8-3 .6-1.7-.3-2.9-.2-2.8.1 6.3 12.4 8.5 21.1 5.2 21.1-1.7 0-1.9 2.6-.2 3.6.7.5.5 1.1-.7 2.1-1.7 1.2-1.7 1.3-.2 1.3 1.8 0 2.3 2.5.7 3.5-.5.3-1 .2-1-.3s-1.5-1.3-3.4-1.9c-3.1-.9-3.5-.8-3.9.9-.3 1.1-1 1.7-1.7 1.3-.5-.3-3.4-.8-6.2-1-4.3-.3-5.6 0-8 2-1.6 1.4-3.4 2.5-3.9 2.5s-.9.9-.9 2.1c0 1.4-.5 1.9-1.7 1.7-1.1-.2-1.7-1.2-1.6-2.4.2-2.2-4-5-5.8-3.9-.5.4-.9.1-.9-.5s-.4-.9-.9-.6c-1.4.9-2.4 11.8-1.3 14.5.6 1.7.5 2.9-.5 4-.7.9-2.9 3.5-4.9 5.8-1.9 2.3-3.9 5.5-4.3 7-.6 2.5-1.3 2.9-5.5 3.4-3.5.4-5 .1-5.3-.8-.7-1.8-2.3-.6-2.3 1.8 0 1.5-.7 1.9-3.8 1.9-3.8 0-8.9 3-7.5 4.4.3.3-.1.6-1 .6-2.4 0-2.1 3.7.3 4.3 1.1.3 2 1 2 1.6 0 1.4-3.3 1.4-4.6.1-.6-.6-1.8.4-3.4 3-1.3 2.1-3.4 4.1-4.5 4.4-1.2.3-2.7 1.8-3.4 3.3-.7 1.5-1.5 2.3-1.9 1.7-.4-.5-2.4-1-4.4-1-3.8-.1-3.8-.1-3.8 3.8 0 3.7.2 4 2.4 3.4 3.4-.8 3.9 1.5 1.1 4.7-1.5 1.8-3.2 2.7-5.3 2.7-2.4 0-3.1.5-3.4 2.2-.2 1.8-1 2.2-4.3 2.3-2.2 0-4.5.4-5.1.7-.5.4-1.6.3-2.3-.1-.7-.5-2.6-.2-4.3.6-2.7 1.4-3.1 1.4-5.2-.6-2.6-2.4-5.2-2-6.2 1.1-.5 1.6-1.2 1.9-3.6 1.4-1.7-.3-4.3-.6-5.9-.6-2.7 0-2.9-.3-2.9-3.9 0-4.7-.9-5.5-4.5-4.1-1.9.7-2.7.7-3.1-.4-.3-.7-2.3-2.2-4.5-3.1-2.7-1.3-3.8-2.3-3.4-3.3.4-1 0-1.3-1.5-.9-1.3.3-2.1-.1-2.5-1.4-.4-1.1-1-1.7-1.4-1.4-.5.2-2.5-.5-4.7-1.5-3.7-1.9-3.9-1.9-4.5-.2-1.3 3.6-3.5 4.5-6.3 2.7-1.4-1-3.5-1.5-4.6-1.2-1.6.4-2.5-.3-4.2-3.6-1.1-2.3-2.8-4.7-3.7-5.4-1.3-1-1.3-1.4-.3-2.1 1.5-1 .5-4.2-1.4-4.2-1.7 0-3.4-3.2-3.9-7.1-.2-1.6-1.1-3.6-2-4.5-.8-.8-1.5-2-1.5-2.6 0-.6-.7-.5-1.7.3-1.5 1.3-1.6 1.1-1-1.1.4-1.4.7-2.9.7-3.3 0-.5.5-.5 1-.2.6.3 1-.3 1-1.4 0-1.2.7-2.1 1.5-2.1 1.5 0 2.1-2.7 1.7-8.2-.1-1.5.3-3 .8-3.3 1.8-1.1 1-3.5-1.1-3.5-1.2 0-2.3.8-2.6 2-.4 1.6-.9 1.8-2.5.9-1.4-.8-1.8-1.7-1.4-3.4.3-1.3-.1-3.6-.9-5.1-1-2-1.5-2.3-1.5-1.1 0 1.3-.6 1-2.8-1.4-2.1-2.4-3.3-3-5-2.5-1.1.4-2.4 1.5-2.7 2.5-.4 1.4-1.5 1.7-6.1 1.6-4.5-.2-5.5.1-5.3 1.4.4 4.5-.1 5.3-2.7 4.8-1.6-.3-2.8 0-3.1.9-.3.8-1.2 1.4-2 1.4-1.2 0-1.3 1-.7 5.7.3 3.2 1.1 6.6 1.6 7.6.6 1.2.4 2.8-.6 4.9-.9 1.7-1.6 3.2-1.6 3.3 0 .1 1.8.7 4 1.4 4.4 1.3 7.1 4.8 4.9 6.2-.8.5-1.6.9-1.9.9-.3 0-.5 1.6-.4 3.6.1 2.8.9 4.2 3.6 6.4 1.9 1.6 4.1 4.2 4.7 5.8.8 2 2 3 3.4 3.1 4.7.1 6.2.4 6.9 1.5.5.7.8.4.8-.7 0-2.1.7-2.2 2.7-.1.9.9 2.9 1.4 4.7 1.3 4.5-.4 5.8.7 5.1 4.2-.5 2-.3 2.9.7 3.1 2.9.3 3.4.5 6.8 2.6 1.9 1.2 4 2.2 4.7 2.2 4.8 0 8.6 4.5 8.8 10.6.2 4.9 3.2 9.5 5.8 8.8.9-.3 1.7-.2 1.8.3 0 .4.3 1.7.5 2.8.2 1.1.5 2.7.6 3.6.1.9.7 1.5 1.4 1.2.7-.2 1.8.4 2.6 1.4.7 1 2.4 2.7 3.6 3.8 1.8 1.5 2.5 1.6 3.1.6.6-.9 1-.5 1.5 1.4.5 2 1 2.4 2 1.6.9-.8 1.8-.7 3.2.4 2.6 2 11.8 2 13.4 0 1.1-1.4 1.4-1.3 2.6.4.8 1.1 2.9 2.2 4.7 2.6 1.7.4 4.7 1.6 6.5 2.6 1.8 1 4.9 1.9 6.8 1.9 3.2 0 3.5-.2 2.9-2.3-.6-2.1-.6-2.1.9-.3.9 1.1 1.6 2.3 1.6 2.8 0 .4 1.7 1.6 3.8 2.7 2.1 1.1 4.4 2.7 5.1 3.5.7.9 1.8 1.3 2.4.9.7-.4.8.5.4 2.5-.6 2.8-.4 3.2 1.6 3.2 1.2 0 3.7-.4 5.5-.9 2.5-.8 3.5-.6 4.9.7.9.9 2.6 1.7 3.7 1.7 1.8 0 2.1.5 1.8 3.9-.3 4-2.7 6.9-4.9 6.1-.9-.3-1 .3-.2 2.2.5 1.5.7 3.3.4 4.1-.3.8.3 2.1 1.2 2.9 1.3 1 1.5 1.6.6 1.9-.7.3-1.3 1.1-1.3 1.8 0 2.9 11.1-.7 12.4-4 .4-1 1.1-1.2 2-.7 1.7.9 6.1 6.8 7.5 10 .6 1.3 1.5 2.3 2.1 2.3.6 0 .9.4.5.9-.3.5.9 2.1 2.7 3.4l3.2 2.5-2.7 6c-1.5 3.3-2.7 6.3-2.7 6.7 0 .4 1.1 2 2.4 3.6 1.3 1.5 2.6 3.3 2.8 3.8.1.6 2.7 1.2 5.6 1.4 4 .3 5.5.1 5.9-1 .3-.8 1.1-1.2 1.9-.9 1.6.6 4.4-3.6 4.4-6.7 0-3.3.9-3.8 3.5-2.1 2.2 1.4 2.4 1.4 3.5-.6.9-1.7 1.4-1.9 2.6-.9.8.6 1.4 1.8 1.4 2.6 0 1.1.7 1.3 3 .8 2.2-.5 3-.3 3 .7.1 3.7 10.9 10.4 12.5 7.8.4-.6 1.5-1 2.6-1 1 0 1.9-.6 1.9-1.4 0-.9.8-1.2 2.5-.8 1.6.3 2.5 0 2.5-.8 0-1 .3-1 1.5 0 1.7 1.4 2 6.5.5 7.5-.5.3-.7 1.1-.4 1.8.2.7-1.4 3.2-3.7 5.6-4 4.2-4.2 5.9-.8 6.4.8.2 1.9.6 2.5.9.6.4 1.7-.2 2.4-1.3.8-1 2.2-1.9 3.2-1.9 1.1 0 1.8-.7 1.8-2 0-1.1-.4-2-.9-2s-1.2-1.2-1.6-2.7c-.5-2.1-.1-3.1 1.9-4.8 1.4-1.2 2.6-3 2.6-3.9 0-.9.8-2.8 1.7-4.2 1.9-2.9 1.9-11.4.1-14.8-1-1.8-.9-1.9.4-.9 1.1 1 1.9.9 3.7-.4 2.2-1.5 2.3-1.5 1.2.5-1.4 2.6-1.4 4.2-.1 4.2.6 0 1-.7 1-1.5s.6-1.5 1.3-1.5c.8 0 .7-.4-.3-1-.8-.5-1-1-.5-1 .6 0-.1-1-1.5-2.1-1.7-1.4-2.1-2.2-1.2-2.6 1.8-.7 1.5-1.7-1.8-5.2-1.7-1.7-3.3-4.5-3.7-6.2-.3-1.7-1.7-3.7-3.2-4.7-1.4-.9-2.7-1.7-2.9-1.8-.2-.1.2-1.1.9-2.2 1-1.7 1-2.5-.6-4.8-1.1-1.7-1.8-4.5-1.7-7.1 0-3-.4-4.3-1.3-4.3-.8 0-2-1.3-2.8-2.9-1.2-2.4-1.2-3.8-.1-9 1.2-6.1.5-12.2-1.7-14.6-1.4-1.4-1.1-2.5.6-2.5 2.4 0 1.8-4.4-1-7.4-2.5-2.7-2.5-2.8-.5-3.3 2.4-.6 2.6-1.9.5-2.7-2.2-.8-1.8-2.5.5-1.9 1.1.3 2.6.1 3.3-.4.6-.6 2.7-1.3 4.4-1.6 1.9-.4 4.6-2.1 6.3-3.9 2.8-3 3.1-3.2 4.1-1.5.8 1.3 1.4 1.5 2.3.7 1-.7 1.7-.6 2.6.5 1 1.2 1 1.5-.1 1.5-1 0-.9.4.3 1.6 1.4 1.4 2.3 1.5 5.7.7 4-1.1 6.1-.3 6.1 2.3 0 1.4 4.4 2.7 4.8 1.4.2-.4 1.8-.2 3.6.5 3.2 1.3 3.4 1.3 3.9-.6.6-2.1 4.2-2.4 4.2-.4 0 2.2 1.6 3.2 5 3.3 2.3.1 3.8-.4 4.1-1.3.4-.8 1.2-1.5 2-1.5 1.6 0 3.4-3.1 3.4-5.9 0-1.2.7-2.1 1.6-2.1.8 0 1.2-.4.9-1-.3-.5 0-.7.9-.4.9.3 1.6-.1 1.8-1.2.3-1.5.9-1.3 3.8 1.6 2.8 2.7 3.6 3.1 3.8 1.8.2-.9.9-1.5 1.7-1.2.7.3 1.6.1 1.9-.5.4-.6 1.3-.8 2.1-.5.7.3 1.8-.3 2.4-1.5 1.7-3.2 1.3-4.8-1.1-4.6-1.3.1-2.9-.2-3.5-.8-.9-.6-1.3-.6-1.3.2s-.6.8-2.1-.1c-1.7-1-2.3-1-2.6-.1-.7 2-3.3 1.5-3.3-.6 0-2.9 2.2-4.1 6.4-3.4 2.6.4 4.1.2 4.6-.7.7-1.1 1.1-1.1 2.4-.1 1.2 1 1.7.8 2.7-1.1l1.2-2.3 1.2 2.8c1 2.5 1.3 2.7 2.5 1.2.7-.9 1.4-3.2 1.5-5.2 0-2 .6-3.8 1.3-4.1.7-.2 1.2-.9 1.2-1.7 0-.7.7-1.8 1.5-2.5 1-.8 1.3-2.1.8-3.8-.4-1.7-.2-2.3.6-1.8 1.6 1 1.4-1-.4-3.7-1.3-2.1-1.3-2.7.5-6.1 1.7-3.5 1.8-4.1.5-6.7-.8-1.5-1.9-3.1-2.5-3.4-1.8-1.1-1.1-2.8.9-2.2 1.3.3 1.8 0 1.5-.8-.3-.7.1-1.5.8-1.8.9-.3 1.3-1.9 1.1-4.8-.1-2.6.4-5.3 1.3-6.6 1.4-2.2 1.3-2.3-.9-2.3-1.3 0-3.2-.9-4.2-2s-1.3-2-.7-2c.5 0 .9-.8.7-1.8-.2-.9-.4-1.9-.4-2.2-.1-.7-4.3-5.2-6.9-7.4-1.2-1.1-3.9-2.2-6-2.5-3.6-.6-3.7-.7-4-5.4-.2-3.7 0-4.7 1.2-4.7 1.8 0 2.1-3.5.6-7.4-.7-1.9-1.7-2.6-3.5-2.6-1.4 0-2.5-.3-2.5-.8 0-1.2 4.9-3.1 5.6-2.1.3.5 1.6.9 2.9.9 1.3 0 2.6.6 2.9 1.2.3.7.3.3 0-1-.9-3.8.5-6.5 3.2-5.9 1.3.2 2.4-.1 2.4-.6 0-.8.3-.8 1.1 0 1.7 1.7 5.9.2 9.4-3.2 2.9-3 3.4-3.2 4.8-1.8 1.1 1.2 1.9 1.3 3.5.4 1.5-.8 2.8-.8 4.7.1 2.2 1 2.8.9 3.5-.3.5-.8.7-2.2.4-3.2-.3-1.1 0-1.7.9-1.7.8 0 2-.7 2.7-1.5.7-.8 2.4-1.5 3.9-1.5 2 0 2.3.2 1.1 1-1.3.8-1.3 1 .2 1 .9 0 3 1.7 4.6 3.7 1.7 2.1 4.9 4.8 7.1 6.1 3.9 2.1 4.1 2.1 4.1.4 0-1.3 1.2-2.3 3.9-3.2 3.4-1.1 4.2-1 6.2.4 2.6 1.8 4.3 2.1 3.4.6-.8-1.3-.4-1.3 4 .6l3.7 1.5 3.3-3.8c2.8-3.2 3.1-4.3 2.7-7.9-.4-3.5-.1-4.4 1.7-5.3 1.1-.7 2.1-1.8 2.1-2.6 0-.9 1-1.5 2.4-1.5 2.5 0 14.6-7.5 14.6-9.1 0-.5.9-.8 2.1-.6 1.8.2 2.3-.6 3.4-4.8 1-4.4 1.2-7.9.7-12.1-.1-.7-1.2-1.4-2.4-1.8-1.8-.5-2-.8-.9-1.5.9-.6 1.2-2 .9-4-.3-2 0-3.1.8-3.1.7 0 1.4.4 1.6 1 .2.6 1.5.6 3.3.2 1.9-.5 2.5-1.1 1.7-1.6-.7-.4-1-1.1-.7-1.6.3-.4-.5-.6-1.6-.3-1.6.4-2 .2-1.7-.8.2-.8 1.5-1.5 2.7-1.7 1.2-.2 2.6-1.4 3.1-2.7.7-1.7 1.8-2.5 4.2-2.7 2.9-.3 3.4-.8 4.3-4.3.6-2.2 1.3-4.5 1.8-5.2.4-.6.3-1.4-.3-1.8-1.7-1-1.1-2.5 1-2.5 1.1 0 2-.7 2-1.5 0-1.5 1-1.9 4.3-1.6.9.1 1.7-.3 1.7-.8 0-.6.7-1.1 1.6-1.1 1.1 0 1.4.6.9 2-.4 1.1-.2 2.1.4 2.1.6.1 1.6.3 2.1.4.6.1 1.3.3 1.8.4.4.1-.1.6-1.1 1.2-1.8 1-1.8 1.2-.1 3 1.2 1.4 2.6 1.8 4.1 1.4 3.2-.8 10.4 2.4 13.7 6.2 3.5 3.9 6.1 4.4 5.2 1-.3-1.3.1-3.2.9-4.4.8-1.1 1.2-2.3.8-2.6-.3-.4.6-1.1 2.1-1.6 1.4-.6 2.6-1.4 2.6-1.9s1.6-2.4 3.6-4.3c4.5-4.4 7.4-9.9 7.4-14.3 0-3.4.1-3.5 2.5-2.6 1.6.6 2.5.6 2.5 0 0-1.1 6.7-10.2 8.3-11.1.5-.4.7-1.4.4-2.3-.6-1.4-.2-1.6 2.6-1.1 2.9.6 3.6.3 5.2-2.2 1.1-1.5 1.8-3.7 1.7-4.8-.6-6.6 10.4-15.4 17.5-14 1.8.3 3.3 1 3.3 1.6 0 .5 2.4.7 5.8.5 3.1-.2 6.9-.5 8.4-.5 2.5-.1 2.6-.3 1.7-3.3-1.3-4.7-1.2-4.8 2.1-4.8 2.3 0 3-.4 3-2 0-1.4.7-2 2.2-2 2 0 2-.1.5-1.8s-1.5-2.1.8-5.4c1.4-2.1 2.5-4.3 2.5-5.1 0-.8.7-1.7 1.4-2 1.1-.4 1.4-1.9 1.2-5.4-.5-7.2.3-10.1 2.8-10.5 1.6-.2 2.2-1.1 2.4-3.6.2-2.3-.1-3.2-1.1-3.2-.8 0-2-.6-2.6-1.4-2.1-2.6 1.1-2.5 5.7.1 2.3 1.3 4.2 2 4.2 1.5 0-1.4 3.5-2.1 5.2-1.1 1 .6 2.3.2 3.9-1.2 1.8-1.5 3.2-1.9 5.6-1.4 1.9.3 3.4.1 3.9-.6.4-.7 2.2-.9 5-.5 3.8.5 4.5.2 6.2-1.9 1.1-1.4 2.9-2.5 4-2.5 3.6 0 5.2-1.1 5.2-3.6 0-2.4 0-2.4 3.6-.9 4.8 2 6.5 1.9 5.8-.3-.5-1.5-.4-1.5.8-.2 1.5 1.8 6.8 2.5 6.8 1 0-.6 1.1-1 2.4-1 6.7 0 15.6-7.3 14.8-12.3-.4-1.9.5-2.1 2.7-.8.8.5 1.4 2.6 1.4 5.1 0 3.4.4 4.3 2.3 5.1 1.3.4 2.4 1.5 2.4 2.4 0 .8.5 1.5 1 1.5.6 0 1-.5 1-1 0-1.6 6.3-1.2 8.8.6 1.2.8 2.2 2.1 2.2 2.8 0 .7 1.3 1.3 3.3 1.4 6.6.2 10.2 1.1 11.7 3 .9 1 2.5 2.4 3.7 3 1.4.8 2.3 2.6 2.8 5.4.3 2.4.9 5.7 1.1 7.4l.6 3 5.1-.7c2.9-.4 6.4-.5 7.8-.2 2 .4 2.7 0 3.2-1.6.5-2.1.6-2.1 3.6-.4 2.6 1.5 3.3 1.6 4 .4.9-1.4 2.4-1.3 10.3.5 2.2.5 2.9.1 4.1-2.2l1.5-2.8 3 3.1c2 1.9 3.5 2.7 4.4 2.2.8-.5 2.1 0 3.6 1.4 1.8 1.7 3.6 2.2 7.5 2.2 3.6 0 5.1.4 5 1.2-.2.7 0 1.3.5 1.4.4 0 1.9.3 3.5.5 2 .4 2.7.1 2.7-1.1 0-1.2.6-1.5 2.1-1 1.3.4 1.9.3 1.6-.2-.4-.6 1.2-1 3.5-1.1 2.3-.1 4.4-.6 4.8-1.1.7-1.2 5.5-3.1 7.7-3.1 1 0 1.3.6.9 1.6-.8 2.1 1.4 10.5 2.6 9.8.6-.4.6-1-.1-1.7-1.7-1.7-1.3-2.7.9-2.7 1.1 0 2.5.9 3.2 2 1.8 2.8 2.6 2.5 2-.6-.5-2.5-.4-2.6 4-1.9 4.3.6 4.6.5 5.2-1.9.5-1.9 1.3-2.6 3.1-2.6 1.4 0 2.5-.6 2.5-1.3 0-.7 1.1-2.1 2.5-3.1 2.1-1.6 2.5-2.7 2.5-7.3 0-2.9-.7-7-1.5-9-1.7-4.1-2-7.7-.5-6.8.6.3 1 .1 1-.4 0-1.4-1.3-1.4-2.7 0-.9.9-2.3.6-5.7-1-2.5-1.1-5.5-2.1-6.5-2.1-1.8 0-12.1-9.2-12.1-10.8 0-1.4-7.3-5.7-7.7-4.5-.3.8-1.2.9-3.4.1-3.9-1.4-6 .2-4.1 3.2 1.1 1.7 1 2-.8 2-1.1 0-2-.7-2-1.5 0-1.7-3-3.5-5.9-3.5-1.3 0-2.3-.8-2.6-2.3-.4-1.4-1.9-2.8-3.7-3.5-1.6-.6-2.7-1.5-2.4-2 .3-.6 0-1.5-.8-2.1-.8-.7-1.2-2.7-1.1-5.1.2-3.3-.1-4-1.6-4-1.1 0-1.9.5-1.9 1.1 0 .8-.5.7-1.5-.1-.9-.7-1.4-1.9-1.1-2.7.4-.9-.3-1.3-2.3-1.3-1.5 0-3.6-.9-4.6-2-1-1.1-2.6-2-3.6-2-1.2 0-2.1-1-2.5-2.8-.9-3.2-3.3-5.3-5.5-4.6-.9.2-1.9-.2-2.2-1.1-.4-.8-2.4-1.8-4.6-2.1-4.5-.7-8.7-4.4-7.7-6.9.4-1-.3-1.9-1.9-2.7-1.3-.6-2.2-1.5-1.9-1.9.5-.9-1.6-1.3-4.9-1.1-2.6.3-11.6-5.8-11.7-7.8 0-.3 1.3-1.1 2.9-1.8 2.1-.9 2.8-1.8 2.4-3.2-.5-1.8 0-2 4.5-2 2.8 0 5.4.5 5.7 1 1.1 1.7 8.2.2 15.5-3.4 2.2-1.1 3.3-.9 7.5 1.1 4.1 1.9 5.1 2 5.3.8.3-1.2.8-1.3 2.3-.5 1 .6 1.9.7 1.9.3 0-2.1-7.3-15.2-9.9-17.7-1.7-1.6-3.3-4.3-3.6-6-.4-1.7-.9-4-1.2-5-.4-1.4-.1-1.8 1.1-1.3 1.1.4 1.6.1 1.6-.9 0-1.1-.6-1.5-2-1.1-1.1.3-2 .1-2-.3 0-1.8-4.7-5.9-5.6-5-.6.6-2.8-.7-5.9-3.6-3.2-2.8-4.5-4.7-3.7-5 .6-.3 1.2-1.2 1.2-2 0-.9.5-1.2 1-.9.6.3 1-.1 1-.9s-1-1.8-2.2-2.2c-3.1-.9-3.8-2.3-2.5-4.8.7-1.2 1.3-2.2 1.4-2.4.1-.2 1.1.1 2.2.8 1.5.8 2.1.8 2.1 0 0-.7 1.2-1 2.8-.8 1.9.2 2.6-.1 2.4-1.1-.2-.8.3-1.1 1.3-.8 1.8.7 1.9.3.4-2.4-.6-1.3-.7-2.5-.1-3.2 1.7-2.1 2.4-9.8 1-11.4-.9-1.1-.9-1.6 0-2.2 1.5-.9.5-4.1-1.3-4.1-.7 0-1.8-.7-2.5-1.5s-1.6-1.2-2.2-.9c-.5.3-1.4-.8-2.1-2.5-.6-1.7-1.5-3.1-2-3.1-.4 0-.3.9.3 1.9.5 1.1 1 2.8 1 3.9 0 1.5-.6 1.8-3 1.4-2.4-.3-3-.9-3-2.8s-.7-2.4-3.6-3c-1.9-.4-3.7-1.2-3.9-1.8-.1-.6-.8-2.9-1.4-5.2-.8-3.1-1.8-4.4-4.7-5.7l-3.5-1.7 2.4-3c3.3-3.9 4.5-10.4 2.3-12.6-.9-.8-1.7-3-1.8-4.7-.1-1.8-.3-4.1-.4-5.2-.1-1.1-.2-2.4-.3-2.9-.1-.6-.6-.5-1.3.2-.9.9-1.6.8-2.9-.4-1.9-1.7-6.5-1.5-6.2.3.1.6-.4 1.7-1.2 2.3-.8.7-1.5 2.8-1.5 4.7 0 2.6-.5 3.6-2 4-1.1.3-2 1-2 1.5 0 .6-1.1.7-2.5.4-1.8-.5-2.5-.2-2.5.9 0 2.2-6.2 1.9-9.1-.4-2.5-1.9-6.9-1.4-6.9.9 0 .5-1.3 1-3 1-3.2 0-4.1-1.7-1.4-2.7 1.3-.5 1.3-.7.2-1.4-1-.7-.9-.9.5-.9 1 0 1.7-.8 1.7-2.1 0-1.1.5-1.7 1-1.4.6.4 1-.7 1-2.4s.4-3.1.9-3.1c1.7 0 2.4-6.1 1-8.6-1.3-2.5-3.9-3.3-3.9-1.2 0 .9-.3.9-1.2 0-.7-.7-2.7-1.2-4.5-1.2-2.7 0-3.3-.4-3.4-2.3-.1-1.2-.2-3.5-.3-5.1-.1-3.9-2.4-4.6-2.8-.9-.2 2-1.2 3.2-3.6 4.3-2.6 1.2-3.2 2-2.8 3.9.2 1.4-.2 3.1-1 3.8-1.2 1.2-1.4 1.1-1.4-.9 0-1.3-.7-3.2-1.5-4.2-.8-1.1-1.5-3-1.5-4.2 0-1.7-.5-2.1-1.9-1.7-1.1.3-2.8-.5-4.4-2.1-1.4-1.4-3-2.6-3.6-2.6-.5 0-1.4-1.3-1.9-2.9-.6-1.6-2-3.9-3.2-5.1-1.9-1.9-2.5-2-4.5-1-3.4 1.8-6-.1-9.2-7-2.8-6.2-5.9-8.4-10.2-7.3-1.2.3-3.2-.2-4.6-1.1-2.4-1.6-2.5-1.6-2.5.5zm44.5 44.8c.3.5.1 1.2-.5 1.6-.6.4-.7 1.2-.4 1.8.4.7.3.9-.1.4-1.3-1.1-1.7-4.7-.6-4.7.6 0 1.2.4 1.6.9zm13.5 16.1c0 .5-1.8 1-4 1s-4-.5-4-1c0-.6 1.8-1 4-1s4 .4 4 1zm-12 6.2c0 1.2-2.4 1-3.8-.4-2-2-1.3-2.8 1.3-1.6 1.4.6 2.5 1.5 2.5 2zm33.1 89.2c1.3.2 2.6.5 2.9.6.3 0-.8.7-2.5 1.4-2.7 1.1-3.2 1-4.7-1-2.4-3-2.4-5.2 0-3.1 1 .9 2.9 1.9 4.3 2.1zm-61.1 2.5c0 .6-.4 1.3-1 1.6-.5.3-1-.1-1-.9 0-.9.5-1.6 1-1.6.6 0 1 .4 1 .9zm3 4.1c0 .5-.4 1-1 1-.5 0-1-.5-1-1 0-.6.5-1 1-1 .6 0 1 .4 1 1zm72 5c0 .5-.2 1-.4 1-.3 0-.8-.5-1.1-1-.3-.6-.1-1 .4-1 .6 0 1.1.4 1.1 1zm-63.4 3.1c.3.6.2 1.5-.4 2.1-.7.7-1.4.3-2.1-1.1-1-1.7-.9-2.1.3-2.1.8 0 1.8.5 2.2 1.1zm45.4 22.3c0 .2-.7.7-1.6 1-.8.3-1.2.2-.9-.4.6-1 2.5-1.4 2.5-.6zm-247.6 217.5c1 1.1 2.4 3.7 3.1 5.7 1 3.1 1 4 0 5.1-.8.7-1.8 1.3-2.3 1.3-.6 0-1.2.5-1.4 1.2-.3.8-1.1.9-2.4.3-1-.4-2.2-.9-2.6-.9-.4-.1-1.3-.7-1.9-1.4-1-1-.9-1.2.7-1.2 2.8 0 4.6-3.7 4-8.3-.6-4.1.2-4.6 2.8-1.8zm-157.4 50.1c0 .5.7 1 1.4 1 .8 0 2.7 1.2 4.3 2.6 3.2 2.9 2.4 5.3-2.1 6.5-2.3.6-2.7.5-2.2-.8.4-.9.1-2.2-.5-2.9-.9-1.1-.8-1.4.2-1.4.7 0 0-1.3-1.6-3-2.2-2.3-2.5-3-1.2-3 .9 0 1.7.4 1.7 1zm-2 13.2c0 .4-.7.5-1.5.2-.8-.4-1.5-.1-1.5.6 0 .9-.6.8-1.8-.3-1-1-2.2-1.4-2.5-1-.4.3-.7-.1-.7-1 0-.8.6-1.7 1.3-2 1.3-.5 6.7 2.3 6.7 3.5zm-6.8 4.3c.3 1.4.1 2.5-.3 2.5-.5 0-.9-.6-.9-1.4 0-.8-.3-2.2-.7-3.2-.4-1.1-.3-1.5.4-1.1.6.4 1.3 1.8 1.5 3.2zm25.8 12.1c0 .8-.4 1.2-1 .9-.5-.3-1-1-1-1.6 0-.5.5-.9 1-.9.6 0 1 .7 1 1.6zm-75.4 20.1c-1 1-1.9-.5-1-1.8.6-1.1.8-1.1 1.2 0 .2.7.1 1.5-.2 1.8zm34.9 16.3c.3.5.1 1-.4 1-.6 0-1.1-.5-1.1-1 0-.6.2-1 .4-1 .3 0 .8.4 1.1 1zm-216.9 27.2c-1 .6-2 .7-2.4.3-.9-.8 2-2.5 3.1-1.8.5.3.2 1-.7 1.5zm209.9 21.8c.3.5.1 1-.4 1-.6 0-1.1-.5-1.1-1 0-.6.2-1 .4-1 .3 0 .8.4 1.1 1zm3.5 0c0 .5-.2 1-.4 1-.3 0-.8-.5-1.1-1-.3-.6-.1-1 .4-1 .6 0 1.1.4 1.1 1zm-3 2.5c0 1.5-1.4 3.4-2.1 2.9-.5-.3-.9.2-.9 1.1 0 3.4-2.5.7-2.6-2.7-.1-3.5-.1-3.6 2.7-2.6 1.6.5 2.9 1.1 2.9 1.3zm-52 33c.7.9 2.1 1.3 3.1 1 1.1-.4 1.9-.2 1.9.3 0 2.1-6.1 2.2-10.1.2-2.1-1.1-3.9-2.3-3.9-2.5 0-1.3 7.9-.3 9 1z"/><path d="M701.5 39.024c.2 2.8.4 5.6.5 6.4 0 .8.3 1.1.6.8 1.2-1.2 1-8.2-.3-10.2-1.1-1.6-1.2-1.2-.8 3zM536.7 59.224c-.4.3.1 1.5 1 2.6 1.3 1.5 1.5 2.1.6 2.4-.7.3-1.3 1.4-1.3 2.5 0 1.4.5 1.8 1.5 1.4 1.1-.4 1.5.1 1.5 1.9 0 1.8.5 2.5 2 2.5 1.1 0 2-.4 2-.9s1-1.1 2.3-1.4c2.2-.3 2.1-.4-.4-1.4-1.7-.8-3.3-2.8-4.5-5.7-1.8-4.3-3.2-5.5-4.7-3.9zM420.9 290.624c-1.5 1.6-2.9 3.5-3.2 4.3-.6 1.5-7.9 2.7-11.9 1.9-2.3-.5-2.7-.3-2.2 1.1.3.9.1 3-.7 4.7-1.1 2.9-1.5 3.1-5.1 2.6-2.9-.4-3.8-.2-3.8.9 0 1.2-1.2 1.4-5.7 1.2-4.9-.3-5.8-.6-5.8-2.2 0-2.2-4.3-4.2-5.9-2.6-1.1 1.1-5.9 1.4-6.9.3-1-1-7.7-1.5-7.7-.6.1 1.4 2.7 4.3 3.3 3.6.4-.3 1.3 0 2.2.7 1.3 1.1 1.9 1 3.4-.4 1.8-1.7 2-1.6 3.1 1.8.6 2 1 4.8.8 6.3-.2 1.9.2 2.7 1 2.5 1-.2 1.1.7.6 3.4-.5 2.5-.3 3.9.7 4.4.9.6.6 1-1.3 1.5-1.6.4-2.9 1.6-3.2 3.1-.5 1.9-1.3 2.4-3.7 2.4-1.7 0-2.8.4-2.4.9.3.6-.4 1.5-1.5 2.1-1.4.7-2 2.1-2 4.4 0 1.9-.7 5-1.5 6.9-.9 2.1-1.1 3.8-.6 4.2 1.2.7 1.1 6.5-.1 6.5-.4 0-.8.4-.8 1 0 .5.9 1 2 1s2-.5 2-1.1c0-.6.7-.8 1.5-.5 1 .4 1.9-.2 2.5-1.8.6-1.7 2.1-2.6 5.4-3.5 5.8-1.4 6.6-1.4 6.6.4 0 1.7 2.5 2 3.5.5.3-.6 1.7-.7 2.9-.4 1.4.3 2.9 0 3.8-.9 1.2-1.2 1.8-1.3 3.8-.2 2.7 1.5 3.7 7 1 5.9-3.9-1.7-6.6-1.5-10.2.9-2 1.4-3.9 2.3-4.2 1.9-.3-.3-.6.2-.6 1.2 0 .9.4 1.5.9 1.2.5-.3 1.2.2 1.6 1.2.6 1.6.7 1.6 1.6-.1.6-.9 1.7-1.7 2.6-1.7.9 0 1.3-.6 1-1.4-.4-1 .4-1.5 2.6-1.9 1.8-.2 3.7-.2 4.2.2.6.3 3.6.7 6.8.8 4.3.1 5.7-.2 5.7-1.3 0-.8.4-1.4.9-1.4 2 0 .8-4.8-1.5-5.9-1.3-.6-2.4-1.5-2.4-2.1 0-1.4 1.7-1.3 2.2.2.6 1.7 3.4.3 5.4-2.7 1.3-2 1.4-2.8.4-4-1-1.2-.9-1.5.4-1.5 1.2 0 1.6-.5 1.1-1.9-.3-1.1.1-2.6 1-3.5 1.4-1.4 1.4-1.8 0-4.6-1.6-3-5.2-4.4-4.1-1.5.3.8.1 1.5-.4 1.5s-1.1-.8-1.3-1.8c-.4-1.6-.5-1.6-.6.1-.1 1.3-.6 1.7-2 1.2-1.2-.3-2.1 0-2.5 1-.3.8-1.5 1.5-2.8 1.5-1.7 0-1.9.3-1 1.2.7.7 1.2 1.9 1.2 2.7 0 1.1-.4 1-2-.4-1.1-1-2-3-2-4.5s-.9-3.5-2-4.5c-2.6-2.4-2.6-3.9.1-2.4 1.5.8 2.4.8 3.2 0 .6-.6 2-1.1 3.2-1.1 2.8 0 4.5-1.8 4.5-4.8 0-2 .3-2.2 1.4-1.3.8.7 2.9.9 5.4.5 3.3-.5 4.4-.2 6.1 1.5 1.2 1.2 2.9 2 3.9 1.9 1.2-.2 1.7.4 1.6 2.1-.1 1.6 1 3.4 2.9 5 3.2 2.7 7.7 3.8 7.7 1.9 0-.6 1-.8 2.5-.4 2.3.6 2.5.4 2.5-3.3 0-3.1-.4-4-2.2-4.4-1.2-.4-1.9-.9-1.6-1.2.5-.5 7.8-1.3 13.6-1.5.6 0 1.2-.6 1.2-1.4 0-.8.6-1.6 1.3-1.9.7-.3 1.2-2 1.2-4-.2-3.4 0-3.6 2.8-3 2.7.6 2.9.5 1.8-1.6-.7-1.1-1.7-2.1-2.3-2.1-.5 0-.8-.9-.5-2 .4-1.4-.3-2.3-2.6-3.5-1.6-.8-3.6-1.5-4.4-1.5-.8 0-1.3-.8-1.1-1.9.3-1.9-4.3-7.1-6.3-7.1-.5 0-.9.9-.9 1.9 0 1.7-.4 1.8-2.8 1.1-1.6-.4-3.5-.4-4.3 0-2 1.1-6.2-.7-5.6-2.4.5-1.3-1.2-2.7-3.1-2.6-.4.1-1.9 1.4-3.3 3.1zm-15.9 53.9c0 .5-.4 1-1 1-.5 0-1-.5-1-1 0-.6.5-1 1-1 .6 0 1 .4 1 1zM600.3 293.424c-.4 1.6-1.1 1.9-2.9 1.5-1.9-.5-2.4-.2-2.4 1.3 0 2.6 5.5 7.7 8.3 7.8 1.3.1 2.8.5 3.5.9.8.5 1.2-.1 1.2-1.6.1-2.2.1-2.2 1.5-.4 1.4 1.9 1.5 1.9 1.5-.7 0-1.5-.7-3-1.5-3.3-.8-.4-1.5-1.5-1.5-2.5 0-1.1-.8-2.2-1.7-2.5-1-.3-2.6-1-3.6-1.5-1.5-.8-2-.6-2.4 1zM585 301.524c0 .6.5 1.9 1.2 2.9.9 1.5.8 2.2-.3 3.3-.8.8-2 1.3-2.7 1-1.3-.4-1.5.7-.6 3.1.8 2.3 4.7.9 4.1-1.4-.3-1.2 0-1.9.9-1.9.8 0 1.1-.6.8-1.5-.4-.9 0-1.5 1-1.5 2.1 0 2-1.3-.2-3.3-2.1-1.9-4.2-2.2-4.2-.7zM805.1 303.324c-.8 1.6-.9 2.8-.1 4.2 1.1 2 3 2.7 3 1.1 0-.5.2-1.5.5-2.3.3-.7-.1-2.2-.8-3.3-1.4-1.8-1.5-1.8-2.6.3zM805.4 314.324c-1.1 1.5-2.6 4.6-3.4 6.9-.7 2.4-1.9 4.3-2.7 4.3-.7 0-1.8.9-2.5 1.9-.6 1-1.8 1.7-2.5 1.4-.7-.3-1.3 0-1.3.6s-.7 1.1-1.5 1.1-1.5.5-1.5 1.1c0 2 6.5 8.4 8.5 8.4 1.1 0 2 .4 2.1 1 .4 4.7 2.7 8.1 3.6 5.3.3-.7.9-.8 1.9-.2.8.5 1.8.9 2.3.9.9 0 1.1.7 2.3 6.8.6 3.4 2.4 4.3 5.2 2.8 1.5-.9 2.6-.8 4.1.1 2.5 1.6 2.6 3 .3 2.1-1.6-.6-1.6-.4.1 1.5 1.1 1.2 2.9 2.2 4.1 2.2 1.1 0 2.6.5 3.2 1.1.9.9 1.1.7.7-.8-.4-1.5-1.2-1.9-3-1.5-1.9.3-2.4 0-2.4-1.7 0-1.2.5-3.1 1-4.1.8-1.5.6-2.1-.9-2.9-1.3-.7-1.7-1.8-1.3-3.6.2-1.5-.2-3.3-1-4.3-1.9-2.1-4.4-7.7-5.3-11.6-.3-1.6-1.7-3.8-3.1-4.8-2.7-2.2-3.1-3.8-.9-3.8.8 0 1.5-.9 1.5-2s.5-2 1.2-2c.6 0-.1-1.1-1.6-2.3-1.6-1.4-2.6-3.2-2.4-4.3.5-2.9-2.5-2.6-4.8.4zM831.5 356.524c-.3 1.1-1.1 2-1.8 2s-.8.3-.1 1c1.5 1.5 3.9.3 5.2-2.6 1-2.1.9-2.4-.8-2.4-1 0-2.2.9-2.5 2zM356 359.024c0 .9.6 1.2 1.5.9.8-.4 1.5-1 1.5-1.5s-.7-.9-1.5-.9-1.5.7-1.5 1.5zM379.5 366.524c-.3.5.1 1 .9 1 .9 0 1.6-.5 1.6-1 0-.6-.4-1-.9-1-.6 0-1.3.4-1.6 1zM487.7 398.924c-.9 2.2-.1 3.6 1.9 3.6 1.8 0 1.8-1.1.1-3.4-1.3-1.8-1.4-1.8-2-.2zM483 402.524c0 .5.5 1 1 1 .6 0 1-.5 1-1 0-.6-.4-1-1-1-.5 0-1 .4-1 1zM445.5 440.624c-.4.6-.5 1.2-.2 1.5.2.3.7-.2 1-1.1.7-1.7.1-2-.8-.4zM439.3 443.924c-1.3.6-2.3 1.6-2.3 2.2 0 .7-.7 1.4-1.5 1.8-.9.3-1.5 1.8-1.5 3.5 0 1.6-.6 3.2-1.2 3.5-1.9.8 2.9 4 6.1 4.1 2.9 0 5.2-2.2 4.4-4.2-.3-.7-1.1-1.3-1.9-1.3-1.5 0-1.4-2.4.5-7.2 1.2-3.2.5-3.8-2.6-2.4zM444.1 443.724c-.1 1.1 2.2 5.8 2.8 5.8.4 0 .7-.9.7-2s-.6-2-1.2-2c-.7 0-1.5-.6-1.7-1.3-.3-.6-.6-.9-.6-.5zM450.6 449.424c-.4.7-.5 1.5-.2 1.8.9.9 1.9-.4 1.4-1.8-.4-1.1-.6-1.1-1.2 0zM421 453.624c0 .5-.4.8-.8.5-1.6-1-3 2.8-1.9 5.4.9 2.4 1.1 3.3 1.5 8.9.2 1.9.6 2.2 2.4 1.8 2.6-.7 4.8.8 4.8 3.4 0 3.5 1.5 1.9 3.8-4 1.2-3.2 2.2-6.1 2.2-6.4 0-.4-1.8-1.9-4.1-3.4s-4.5-3.7-5-5c-.9-2.3-2.9-3.2-2.9-1.2zM446.5 455.424c-.3.5-.1 1.2.5 1.6.5.3 1-.1 1-.9 0-1.8-.6-2.1-1.5-.7zM407 463.024c0 .8-.8 1.5-1.8 1.5-1.6 0-1.9.9-1.9 6.2-.1 6.6.6 7.8 4.5 7.8 1.5 0 2.2-.6 2.2-2 0-1.5.6-1.9 2.3-1.7 1.9.2 2.2-.3 2.2-3.8.1-4.6-.8-6.1-4.7-8.1-2.5-1.3-2.8-1.3-2.8.1zm-.3 4.5c.1 1.1-.2 2-.8 2-1 0-1.2-2.3-.2-3.3.9-.9.9-1 1 1.3zM401.1 468.124c0 1.1.3 1.4.6.6.3-.7.2-1.6-.1-1.9-.3-.4-.6.2-.5 1.3zM424.8 475.124c-1 .9.3 4.2 1.8 4.8 1.7.7 1.7.5.1-2.8-.8-1.4-1.6-2.3-1.9-2zM341.5 504.524c-2.7 2.8-2.8 3.1-1.2 4.7 2 2 2.6 1.6 3-2.3.2-1.7.7-3.5 1.1-4.2 1.2-2 .1-1.3-2.9 1.8zM338.5 514.524c.3.5.8 1 1.1 1 .2 0 .4-.5.4-1 0-.6-.5-1-1.1-1-.5 0-.7.4-.4 1zM136 553.424c0 .6.4 1.3 1 1.6.6.3.7-.1.4-.9-.7-1.8-1.4-2.1-1.4-.7zM343.7 568.624c-1.2 1.3-2.5 1.8-3.8 1.4-1.1-.4-1.9-.2-1.9.5s-.6 1-1.4.7c-.7-.3-1.9 0-2.5.6-.8.8-1.6.6-3-.7-1.8-1.7-1.9-1.7-2.6.3-.4 1.2-1.2 1.8-2.1 1.4-.7-.3-1.4 0-1.4.6s-.6 1.1-1.3 1.1c-2.1 0-3.8 6.9-2.7 11.3 1.1 5.2.5 4.8 10 5.9.8.1 2 .8 2.5 1.5 2.1 2.8 11.1-3.1 9.8-6.3-.2-.7.5-1.5 1.6-1.9 1.2-.3 2.1-1.3 2.1-2 0-.9 1.7-1.6 4.6-2.1 4.1-.6 4.5-.9 4-3-.4-1.3 0-2.8.9-3.8 1.2-1.1 1.2-1.6.3-2.3-2.4-1.4-3.8-1.1-3.8.8 0 1.5-.7 1.9-3.1 1.9-2.6 0-2.9-.3-2.4-2 .4-1.3.2-2-.6-2-1 0-1-.3-.1-1.2.7-.7 1.2-1.6 1.2-2 0-1.4-2.5-.7-4.3 1.3zM31.2 569.224c1 1.2 1.4 2.9 1.1 5-.5 3.2-.5 3.2-3.1 1.5-1.4-.9-3-1.7-3.6-1.8-.6-.1-1.9-.5-2.8-.9-1-.4-1.8-.3-1.8.3 0 1.7-3.8 2-5.9.5-1.9-1.3-2.1-1.2-2.1.8 0 1.9.4 2.1 3.5 1.6 3-.5 3.5-.3 3.5 1.3 0 2.1-3.3 3.6-5.2 2.4-.9-.5-.8-.2.1 1 .8.9 2 1.5 2.7 1.2 1.7-.6 4.2 2.9 5 6.9.6 3.6 4 5.6 7.2 4.2 3-1.3 5.2-.3 4.5 2.2-.3 1.2-1 1.8-1.6 1.4-.7-.4-.8 0-.4 1.1.4 1 .7 2.2.7 2.7s.6.9 1.4.9c.8 0 1.6.7 2 1.5.3.8.1 1.5-.5 1.5s-.8.4-.4.9c.3.6-.2 1.4-1.1 1.9-1.4.8-1.2 1.2 1.5 2.5 1.7.8 3.1 1.2 3.1.7 0-1.6 4.5-.6 5.8 1.2 1.7 2.3 2.3 2.3 4.9-.1 1.8-1.7 2.3-1.8 4.1-.5 1.9 1.3 2.2 1.2 3.4-.8.7-1.3 1.1-2.7 1-3.2-.2-.5.2-1.2.8-1.6 1.4-.8-4.8-6.4-10.9-9.8-3.1-1.8-4.1-2-4.1-.9 0 .9-1.1 1.4-3.1 1.4-2.5 0-3.1-.5-3.6-2.9-.3-1.6-1-3.1-1.4-3.4-1.8-1-.8-2.4 1.6-2.4 1.4 0 2.5-.6 2.5-1.3 0-.7.9-2 2-3 1.1-.9 2-2.2 2-2.8 0-.8-.4-.8-1.4 0-1.1.9-1.8.5-3.5-2.2-1.2-1.9-2.1-4.6-2.1-6.1 0-1.9-.5-2.6-1.9-2.6-1.1 0-2.3-.5-2.6-1-.3-.6-1.1-1-1.7-1-.6 0-.4.8.4 1.7zM362.1 583.124c0 1.1.3 1.4.6.6.3-.7.2-1.6-.1-1.9-.3-.4-.6.2-.5 1.3z"/><path d="M346.5 587.624c.3.4.3 2-.1 3.4-.5 1.9-1.2 2.5-2.5 2.2-2.5-.7-5.8 2.7-5.5 5.7.1 1.3 1.7 4.1 3.4 6 1.8 2.1 2.9 4.2 2.6 5.1-.4.9.3 1.9 2 2.6 1.4.7 2.3 1.6 2 2-.6 1 .8 1.2 3 .3.9-.3 1.6-1.3 1.6-2.1 0-1.3.3-1.3 1.6-.2 1.4 1.1 1.8 1 3-.6 1-1.4 1.4-1.5 1.4-.4.1.9.7.7 1.9-.8 1.6-1.9 2.1-2 3.1-.8 1.4 1.7.5 3.6-1.4 2.9-1.5-.6-2.6 3.6-2.6 10.2 0 3.5.3 4.4 1.8 4.4 3.5-.1 7.3-5 3.9-5-.8 0-2.2-.9-3.2-2-1.8-2-1.8-2 1.4-.4 2.5 1.2 3.5 1.3 4.6.4.8-.7 2.1-1 2.9-.7.8.3 1.7-.1 2-.9.3-.8.2-1.4-.3-1.4-1.6 0-2.9-4.4-1.7-6.2.8-1.4.7-2.1-.8-3.5-1-1-1.6-1.2-1.2-.6 1.1 1.9-2 1.6-4.4-.5-1.1-.9-3.2-1.9-4.7-2.2-2.8-.5-4.5-3-2-3 1.6 0 2.8-7 2-11.4-.4-2.1-.9-2.4-3.2-2-1.4.3-4.5.1-6.8-.4-2.4-.6-4-.6-3.8-.1zM42 592.124c0 .8.5 1.2 1 .9.6-.4.8-1.1.5-1.6-.9-1.4-1.5-1.1-1.5.7zM277 597.424c0 .5.7 1.4 1.5 2.1 1.6 1.4 1.8 1 .9-1.4-.6-1.7-2.4-2.2-2.4-.7zM64 606.424c0 .6.4 1.1.9 1.1s2.7 1.6 4.8 3.6c5.6 5.3 8.3 6.6 8.3 3.9 0-.8-.4-1.5-.9-1.5-.4 0-1.9-1-3.3-2.3-2-1.9-4.1-3.1-9-5.5-.5-.2-.8.2-.8.7zM88 621.724c0 .5.7 2 1.6 3.4.9 1.4 1.8 4.1 1.9 6.2.1 2 .6 5.4 1 7.4.9 4.6 0 8.8-2.1 8.8-.8 0-1.3-.4-.9-.9.9-1.6-3.6-2.4-6.1-1-1.3.7-2.4 1.5-2.4 1.9 0 .4-1.2.5-2.7.2-2.6-.5-2.7-.4-1.3 1.4.9 1 2.2 3.1 2.9 4.6 1.1 2.2 2.1 2.7 4.6 2.6 1.7-.1 3.7.2 4.4.7.8.4 2.1-.2 3.3-1.5 1.5-1.6 1.8-2.4.9-3-.9-.5-.8-.9.4-1.4 1-.3 2.3-.2 2.9.3.6.6 2.7.7 4.6.3 4.2-.9 5.8-.8 8.8.2 1.5.5 2.9.3 3.9-.5 1.3-1.1 1.8-.9 3.5 1.4 2.4 3.4 3.4 3.4 6.4.1 3.3-3.5 3-5.2-1.3-7.2-4.6-2.1-5.3-2.9-5.3-6.4 0-1.9-.7-2.9-2.2-3.3-1.3-.4-3.9-2.2-5.8-3.9-4.8-4.4-7.6-6.4-6.6-4.9 1.5 2.6-1.6 1.2-4.7-2.1-3-3.2-9.7-5.5-9.7-3.4zM140.6 643.124c-2 2.4-3.2 3.2-3.9 2.5-.7-.7-2.3.3-4.9 2.9l-4 3.9 3.8 4.6c2.1 2.5 4 4.5 4.3 4.5.2 0 2-.5 3.8-1.2 4.3-1.5 8.3-9 6.5-11.9-.7-1-1.2-3.5-1.2-5.4 0-1.9-.3-3.5-.7-3.4-.5 0-2.1 1.6-3.7 3.5zM54.4 651.324c.1 2.4.9 4.9 1.9 5.9 1.6 1.6 1.7 1.5 1.7-1.9 0-2.1-.6-4.1-1.4-4.5-.7-.4-1.5-1.5-1.8-2.3-.3-.8-.5.4-.4 2.8zM66.4 652.324c.3.5-.2 1.9-1 3-1.4 2-1.7 2.1-3 .7-.9-.8-2-1.3-2.4-1-1.2.8 2.6 4.5 4.5 4.5.8 0 1.5.4 1.5 1 0 .5.8 1 1.8 1s2.3.5 2.9 1.1c1.5 1.5 6.3 1.9 6.3.5 0-.6.7-.3 1.5.8 1.6 2.1 3.5 1.4 3.5-1.4 0-1 .5-2.2 1-2.5 1.8-1.1 1-2.6-1-2-1.2.4-2.6 0-3.6-.9-.8-.9-3-1.6-4.7-1.6-2.1 0-3.6-.7-4.5-2-.7-1.1-1.7-2-2.3-2-.5 0-.8.4-.5.8zM133 662.524c0 .5.5 1 1 1 .6 0 1-.5 1-1 0-.6-.4-1-1-1-.5 0-1 .4-1 1zM143.3 664.624c-.7.7-.4 1.7 1.3 3.4 1.3 1.3 2.6 3.6 2.9 5.2 1.6 7.2 4.1 9.8 4.3 4.3.1-3.5-1.9-8.5-4.7-11.8-2.2-2.5-2.3-2.6-3.8-1.1zM135 666.924c0 .9.5 1.6 1 1.6.6 0 1-.4 1-.9 0-.6-.4-1.3-1-1.6-.5-.3-1 .1-1 .9zM263 666.524c0 .5.7 1 1.5 1s1.5-.5 1.5-1c0-.6-.7-1-1.5-1s-1.5.4-1.5 1zM154.6 682.424c-.9 1.4 1.2 2.5 6.9 3.6 3.6.8 5.3 1.6 6 3.3.5 1.2 1.6 2.2 2.4 2.2 1.2 0 1.2-.3-.1-1.8-.9-.9-1.9-2.7-2.3-4-.4-1.4-1.2-2.1-2.1-1.8-.7.3-1.6.1-1.9-.5-.4-.5-1.9-.8-3.3-.7-1.5.1-3.3-.1-3.9-.5-.6-.4-1.4-.3-1.7.2zM179.3 697.124c-.3.9 0 1.9.6 2.4.7.4 1.2 1 1.2 1.4-.3 1.8 0 2 .9.6 1.2-1.9 1.3-3.3.1-2.5-.5.3-1.3 0-1.7-.6-.3-.6 0-1.5.7-2 1.1-.7 1.1-.9.1-.9-.7 0-1.5.7-1.9 1.6zM233.9 713.524c-.1.5-.2 1.5-.3 2.1 0 .5-1.2 1.8-2.5 2.8-2 1.5-2.1 1.9-.7 2.4.9.4 1.6 1.6 1.6 2.7 0 1.5.7 2 2.5 2 2.1 0 2.5-.5 2.5-2.8 0-1.5.7-3.9 1.4-5.4 1.3-2.5 1.3-2.9-.4-3.8-2.4-1.3-4-1.3-4.1 0zM226.6 717.024c.4.8 1 1.5 1.5 1.5s.9-.7.9-1.5-.7-1.5-1.5-1.5c-.9 0-1.2.6-.9 1.5zM231.5 742.524c.2 10.1 0 11.7-1.6 13.1-1.8 1.5-1.9 3.8-.4 8.7.7 2.2.8 2.2 3.4.5 6.2-4.1 7.8-4.5 10.4-2.8 2.3 1.5 2.4 1.9 1.4 5.8-.6 2.3-1.4 4.5-1.9 4.8-.5.3.1 2.3 1.4 4.5 1.7 2.8 2.4 3.4 2.6 2.1.2-.9.8-1.7 1.4-1.7.6 0 .8-1.2.4-3.1-.4-2.2-.2-3.5.9-4.3 1.2-.9 1.3-2.1.4-7.6-.5-3.5-1.5-6.8-2.1-7.1-.6-.4-.8-1.4-.5-2.2.3-.8-.1-2.4-.8-3.5-.8-1-1.2-2.2-.9-2.5.3-.3-.2-1.9-1-3.6-1.1-2-2.1-2.8-3.1-2.5-1 .4-1.5 0-1.5-1.3 0-1.2-1.1-2.3-3-3-1.7-.6-3-1.9-3-2.8 0-.9-.4-1.4-.9-1.1-.5.4-1.1 0-1.4-.6-.3-.7-.4 3.9-.2 10.2zM241 786.024c0 .8.2 1.5.4 1.5s.6-.7 1-1.5c.3-.8.1-1.5-.4-1.5-.6 0-1 .7-1 1.5z"/></g></svg>