<?xml version="1.0" standalone="no"?>
<!DOCTYPE svg PUBLIC "-//W3C//DTD SVG 20010904//EN"
 "http://www.w3.org/TR/2001/REC-SVG-20010904/DTD/svg10.dtd">
<svg version="1.0" xmlns="http://www.w3.org/2000/svg"
 width="1101.878664pt" height="794.500245pt" viewBox="0 0 1101.878664 794.500245"
 preserveAspectRatio="xMidYMid meet">
<metadata>
Created by potrace 1.15, written by Peter Selinger 2001-2017
</metadata>
<g transform="translate(-523.121336,1325.912615) scale(0.100000,-0.100000)"
fill="#222222" stroke="none">
<path d="M11953 13234 c-9 -19 -9 -32 -2 -46 13 -23 7 -30 -23 -32 -14 -1 -28
-11 -36 -28 -8 -17 -21 -28 -34 -28 -12 0 -18 -5 -15 -13 2 -7 -8 -38 -23 -69
-23 -51 -25 -59 -12 -72 13 -13 12 -16 -11 -21 -14 -4 -26 -14 -26 -23 -3 -72
-12 -88 -71 -120 -31 -18 -67 -32 -79 -32 -16 0 -21 -6 -21 -24 0 -18 -8 -27
-32 -35 -17 -6 -33 -9 -36 -6 -8 8 -42 -43 -42 -64 0 -12 -6 -21 -15 -21 -8 0
-15 -4 -15 -8 0 -5 -29 -14 -65 -21 -63 -13 -65 -14 -50 -32 19 -20 11 -43
-14 -36 -14 3 -16 -6 -15 -62 0 -36 4 -76 8 -88 9 -28 -2 -52 -15 -32 -6 11
-13 8 -33 -10 -19 -18 -32 -22 -56 -18 -25 6 -30 3 -30 -13 0 -24 2 -24 -55
-4 -44 14 -47 14 -80 -6 -31 -19 -38 -30 -34 -56 0 -4 -3 -10 -8 -13 -5 -3
-19 -20 -31 -38 -21 -30 -52 -36 -52 -11 0 5 -14 30 -31 54 -21 30 -40 47 -59
51 -18 3 -32 14 -36 27 -8 26 -22 36 -51 36 -15 0 -31 13 -47 38 -13 20 -40
46 -60 57 -20 11 -36 25 -36 32 0 6 -9 15 -20 18 -11 4 -27 20 -35 36 -9 16
-20 29 -25 29 -6 0 -10 6 -10 14 0 8 -11 17 -25 20 -14 4 -25 13 -25 20 0 8
-7 17 -16 20 -12 5 -15 2 -10 -10 5 -13 2 -15 -18 -10 -14 3 -27 3 -30 -2 -8
-14 -115 -5 -141 12 -13 9 -32 16 -42 17 -10 0 -45 15 -78 33 -48 25 -60 36
-60 56 0 23 -3 25 -46 22 -25 -2 -65 4 -90 12 -72 25 -153 19 -162 -13 -6 -26
-43 -23 -62 5 -9 14 -20 22 -26 18 -17 -10 -112 17 -151 43 -22 15 -54 26 -78
27 -50 3 -76 25 -62 53 14 26 -23 89 -43 73 -7 -6 -11 -18 -8 -28 5 -20 -47
-44 -68 -31 -8 5 -26 0 -45 -12 -22 -13 -35 -16 -39 -9 -4 6 -13 9 -21 6 -10
-4 -14 3 -14 22 0 17 -8 32 -20 40 -12 7 -19 16 -16 20 3 5 0 14 -5 22 -8 13
-11 13 -22 -2 -12 -15 -16 -16 -42 -2 -23 12 -30 12 -37 2 -11 -19 -10 -42 4
-56 8 -8 8 -12 1 -12 -6 0 -16 7 -24 16 -11 14 -13 14 -21 0 -8 -14 -13 -14
-47 4 -21 10 -41 17 -44 14 -8 -9 -49 16 -79 48 -24 26 -29 27 -48 16 -15 -9
-23 -10 -28 -2 -4 6 -18 15 -31 19 -22 7 -22 8 -7 17 13 7 14 13 6 23 -14 17
-98 14 -109 -3 -9 -15 -76 10 -84 31 -6 15 -47 30 -47 17 0 -4 -7 -10 -14 -13
-11 -4 -13 -1 -9 10 4 10 2 14 -5 9 -7 -4 -12 7 -14 31 -2 20 -9 38 -17 41
-10 3 -12 0 -7 -14 4 -11 9 -27 11 -36 2 -9 9 -26 15 -38 6 -11 10 -31 8 -43
-2 -12 2 -21 8 -20 7 1 20 -7 29 -17 10 -11 15 -20 10 -20 -4 0 -2 -7 5 -15
18 -21 4 -65 -20 -65 -10 0 -23 -8 -29 -17 -7 -14 -13 -15 -33 -6 -22 10 -24
9 -23 -24 1 -23 -2 -32 -11 -29 -6 2 -21 -4 -33 -15 -12 -11 -26 -17 -31 -14
-15 9 -61 18 -90 17 -14 0 -34 8 -45 18 -11 10 -31 21 -45 25 -13 4 -37 17
-51 28 -17 12 -46 20 -79 22 -29 1 -56 8 -60 15 -5 9 -11 6 -22 -9 -8 -11 -17
-19 -19 -17 -3 3 -17 7 -33 10 -22 4 -29 1 -33 -14 -3 -11 -11 -20 -18 -20 -7
0 -18 -7 -25 -15 -7 -8 -21 -15 -32 -15 -14 0 -18 5 -14 15 3 8 1 15 -4 15 -6
0 -8 -16 -4 -40 6 -36 4 -40 -18 -45 -15 -4 -34 -22 -47 -46 -12 -21 -29 -39
-36 -39 -12 0 -12 -5 -3 -24 17 -38 -15 -100 -48 -93 -16 3 -24 0 -24 -9 0
-20 -18 -17 -30 5 -24 46 -136 82 -156 50 -3 -6 -16 -8 -28 -4 -59 18 -87 22
-92 14 -3 -5 -12 -9 -19 -9 -11 0 -10 8 6 35 18 30 19 36 6 41 -9 3 -13 12
-11 19 3 8 -6 20 -23 29 -15 8 -48 33 -73 55 -25 23 -48 41 -52 41 -5 0 -8 11
-8 25 0 14 -4 25 -10 25 -5 0 -12 12 -16 28 -3 15 -8 36 -11 47 -5 19 -4 19
13 4 34 -29 50 -29 48 -1 0 17 -8 28 -23 34 -13 4 -25 17 -28 28 -3 10 -14 22
-24 25 -10 4 -19 14 -19 24 0 41 -69 68 -88 34 -6 -9 -16 -14 -25 -10 -13 5
-14 0 -5 -31 7 -25 7 -47 -1 -73 -14 -47 -11 -116 6 -130 7 -6 13 -19 13 -29
0 -10 7 -23 16 -31 8 -7 22 -26 31 -43 8 -17 27 -41 42 -53 14 -12 21 -22 15
-23 -6 0 -9 -12 -6 -28 2 -19 -3 -33 -17 -46 -13 -12 -21 -31 -21 -51 0 -20
-6 -35 -15 -39 -8 -3 -15 -15 -15 -26 0 -12 -7 -20 -16 -20 -16 0 -16 -22 1
-106 6 -25 3 -35 -13 -46 -18 -12 -20 -19 -12 -52 5 -24 20 -48 40 -65 17 -14
32 -33 33 -41 2 -8 6 -21 10 -27 5 -7 5 -18 1 -24 -9 -15 45 -120 65 -126 9
-2 24 -9 33 -14 10 -5 28 -9 41 -9 26 0 77 -47 77 -71 0 -8 -6 -21 -12 -28
-11 -11 -10 -14 0 -18 6 -3 10 -9 6 -14 -16 -26 62 -44 111 -25 14 5 15 9 5
21 -19 23 -2 31 28 15 28 -16 47 -71 30 -88 -6 -6 -6 -18 2 -32 15 -28 -3 -78
-28 -76 -13 1 -16 -6 -15 -29 1 -16 -4 -37 -13 -46 -8 -9 -12 -24 -8 -33 3 -9
0 -30 -7 -48 -11 -27 -10 -32 5 -43 9 -7 15 -18 14 -24 -2 -6 8 -17 22 -24 17
-9 27 -25 33 -55 6 -31 13 -42 27 -42 23 0 17 -32 -16 -77 -13 -17 -24 -34
-24 -38 0 -3 -9 -15 -20 -27 -18 -19 -18 -24 -6 -43 9 -14 11 -27 5 -36 -5 -8
-9 -10 -9 -5 0 5 -9 1 -19 -8 -11 -10 -17 -25 -14 -36 6 -23 -23 -34 -97 -35
-88 -3 -88 -2 -82 -30 2 -15 0 -25 -7 -25 -6 0 -11 -7 -11 -15 0 -8 -7 -15
-16 -15 -8 0 -12 -5 -9 -10 9 -15 -22 -60 -42 -60 -9 0 -26 9 -38 20 -21 19
-23 20 -36 3 -11 -13 -11 -15 0 -9 10 7 12 3 6 -15 -8 -25 -22 -39 -41 -39
-21 0 -24 29 -7 58 22 38 12 62 -26 62 -37 0 -73 15 -132 57 -26 18 -51 33
-56 33 -15 0 -36 57 -29 77 4 9 1 20 -6 24 -15 9 -19 159 -5 159 24 0 -5 27
-44 40 -34 12 -48 24 -62 53 -10 21 -25 41 -35 44 -9 3 -31 19 -49 36 -31 29
-33 30 -58 13 -24 -16 -28 -16 -44 -2 -13 12 -20 13 -29 4 -9 -9 -15 -9 -24 0
-23 23 -34 12 -36 -40 -1 -29 -5 -61 -8 -71 -4 -12 4 -22 25 -35 19 -10 31
-26 33 -42 2 -21 8 -24 30 -22 26 3 44 -17 64 -70 3 -10 10 -18 16 -18 5 0 4
9 -2 20 -7 14 -7 20 0 20 5 0 10 -4 10 -10 0 -5 6 -7 13 -5 6 3 23 -11 37 -31
14 -19 31 -41 37 -49 10 -10 10 -14 1 -17 -6 -2 -9 -12 -5 -21 5 -13 12 -14
38 -7 18 5 36 15 40 21 5 8 8 8 13 0 4 -6 4 -16 0 -23 -4 -7 -3 -8 4 -4 25 15
11 -21 -18 -49 -17 -16 -28 -35 -26 -41 3 -7 -1 -15 -8 -17 -24 -9 -24 -54 0
-104 13 -26 24 -53 24 -60 0 -11 30 -73 40 -83 3 -3 5 -12 5 -20 0 -21 -38
-30 -51 -11 -8 10 -17 12 -30 6 -10 -5 -30 -9 -44 -9 -20 -1 -25 -6 -23 -23 2
-15 -3 -23 -12 -23 -15 0 -44 -37 -49 -62 -10 -49 -19 -66 -32 -61 -8 3 -14
-1 -14 -11 0 -9 -6 -15 -12 -13 -7 1 -14 -8 -16 -20 -2 -12 -11 -25 -22 -28
-10 -3 -20 -15 -23 -25 -3 -13 -14 -20 -30 -20 -13 0 -30 -7 -38 -16 -8 -10
-21 -13 -38 -9 l-26 5 29 -25 c20 -19 31 -23 41 -15 9 7 23 5 50 -6 21 -9 51
-13 66 -10 19 3 32 -1 44 -14 10 -11 30 -20 44 -20 31 0 71 -25 71 -45 0 -7 9
-17 21 -20 24 -8 59 -61 59 -92 0 -12 5 -25 11 -29 8 -4 7 -9 -2 -14 -10 -7
-10 -11 0 -24 7 -9 17 -14 21 -11 18 11 41 -7 34 -28 -6 -18 -3 -19 22 -13 16
4 30 11 32 16 2 5 19 6 39 3 26 -4 34 -3 29 5 -5 8 2 12 19 12 14 0 24 4 20 9
-3 5 -1 12 3 15 5 3 7 17 4 31 -3 16 0 25 8 25 9 0 11 10 6 30 -7 37 7 32 29
-11 13 -25 21 -29 55 -29 21 0 42 5 45 10 10 17 44 11 55 -9 14 -27 13 -84 -2
-99 -9 -9 -9 -12 0 -12 12 0 52 -39 52 -51 0 -4 -6 -14 -13 -21 -8 -7 -13 -30
-13 -51 1 -24 -3 -37 -11 -37 -18 0 -16 -19 3 -27 8 -3 13 -12 10 -19 -3 -8
-1 -14 3 -14 5 0 27 -15 50 -34 28 -24 47 -33 62 -29 18 5 20 2 18 -25 -3 -25
3 -37 30 -62 19 -16 37 -30 41 -30 10 0 28 -80 23 -101 -3 -10 -12 -19 -20
-19 -10 0 -7 -10 11 -33 14 -19 31 -48 37 -66 8 -24 14 -29 24 -21 9 8 17 4
29 -15 20 -31 24 -31 61 1 23 20 37 24 59 20 17 -4 33 -10 36 -15 3 -5 32 -19
65 -31 33 -12 67 -29 75 -38 25 -26 52 -38 94 -40 43 -3 91 22 79 41 -4 7 4 5
18 -4 39 -26 84 -32 99 -14 17 20 64 19 81 -2 10 -11 10 -14 2 -9 -8 4 -13 1
-13 -9 0 -16 -10 -15 -55 2 -6 2 -21 -10 -33 -27 -13 -16 -29 -30 -37 -30 -22
0 -56 -42 -50 -61 3 -9 -2 -25 -12 -34 -16 -16 -15 -20 10 -65 20 -35 24 -49
15 -52 -10 -4 -10 -10 0 -29 11 -20 10 -30 -2 -61 -14 -32 -14 -37 0 -49 8 -7
13 -18 10 -26 -3 -8 1 -30 9 -49 11 -26 11 -34 1 -34 -22 0 -67 -55 -60 -73 3
-10 10 -17 16 -17 5 0 8 -13 6 -29 -3 -33 25 -71 52 -71 21 0 33 -23 19 -37
-11 -11 18 -56 32 -47 11 6 69 -17 69 -28 0 -12 76 -29 95 -22 12 5 24 -1 36
-17 l18 -24 24 27 24 28 27 -27 c23 -23 30 -25 47 -15 29 19 66 14 109 -13 48
-30 46 -30 53 -4 3 11 15 23 26 26 12 3 21 14 21 24 0 11 4 19 8 19 16 0 31
47 19 59 -8 8 -3 11 21 11 25 0 32 4 32 19 0 10 7 24 15 31 13 11 13 15 3 21
-7 5 14 8 47 7 77 -1 148 26 140 53 -5 15 -1 19 19 19 39 0 70 16 106 53 32
34 80 55 80 34 0 -6 2 -8 6 -5 3 3 7 44 8 92 3 64 0 89 -10 97 -15 12 -20 69
-6 69 4 0 19 -7 34 -14 33 -17 35 -14 39 43 3 32 12 52 34 77 40 43 61 44 70
2 4 -18 12 -39 17 -45 7 -9 6 -13 -3 -13 -11 -1 -10 -3 2 -13 9 -7 14 -18 11
-26 -2 -7 1 -17 7 -20 7 -4 14 -25 18 -47 6 -40 51 -124 67 -124 5 0 27 -20
50 -44 31 -33 51 -46 81 -51 55 -8 67 -16 87 -55 19 -37 50 -60 55 -43 2 6 13
8 25 6 11 -3 23 -1 27 6 6 9 19 7 53 -8 35 -15 49 -17 58 -8 9 9 15 7 26 -8 8
-11 24 -30 35 -43 11 -13 17 -27 14 -32 -7 -12 16 -50 30 -50 23 0 48 -27 39
-41 -4 -8 -7 -24 -5 -36 2 -16 -3 -23 -14 -23 -9 0 -14 -4 -11 -9 3 -5 0 -14
-8 -20 -8 -7 -12 -21 -9 -31 4 -14 0 -20 -12 -20 -12 0 -15 -5 -10 -20 9 -27
-12 -89 -40 -120 -15 -16 -25 -43 -29 -76 -5 -45 -3 -53 19 -74 27 -25 34 -53
12 -44 -8 3 -19 -1 -26 -9 -9 -11 -8 -17 4 -27 8 -7 12 -16 9 -21 -3 -5 -2
-15 3 -21 4 -7 8 -20 10 -28 1 -8 7 -16 12 -18 6 -2 11 -9 11 -16 0 -8 12 -12
31 -11 24 1 38 -5 58 -27 33 -38 48 -73 26 -64 -13 4 -14 2 -5 -14 5 -10 22
-20 37 -22 33 -4 62 -51 44 -72 -6 -7 -8 -16 -4 -20 4 -4 -3 -9 -15 -13 -17
-4 -19 -9 -12 -22 7 -15 5 -17 -21 -13 -16 2 -29 0 -27 -4 5 -15 -46 -75 -59
-70 -7 3 -15 1 -18 -4 -4 -6 -14 -6 -26 1 -19 10 -20 8 -17 -23 3 -30 -1 -35
-35 -52 -34 -16 -40 -17 -55 -3 -24 21 -41 23 -84 8 -27 -9 -35 -16 -31 -28 5
-12 2 -15 -9 -10 -12 4 -14 1 -11 -14 6 -20 62 -69 79 -69 5 0 2 5 -6 10 -13
9 -13 10 1 10 8 0 20 -5 27 -12 9 -9 18 -9 37 0 14 7 37 12 50 12 13 0 27 4
30 10 3 5 19 7 35 3 19 -3 30 -1 30 6 0 7 9 9 25 5 16 -4 25 -2 25 5 0 9 5 9
20 1 12 -6 29 -8 40 -5 14 5 23 -2 35 -25 12 -23 22 -30 38 -28 12 2 21 9 19
16 -1 8 2 11 7 8 5 -4 12 -20 16 -37 5 -23 3 -34 -10 -43 -14 -10 -15 -17 -6
-33 13 -26 44 -20 61 11 8 16 19 22 33 19 74 -13 95 -14 101 -5 3 5 24 7 47 5
38 -4 41 -3 36 17 -4 17 -1 21 16 19 12 -1 33 1 47 5 14 3 40 8 58 10 19 1 37
7 40 13 4 5 27 13 52 17 25 4 56 9 70 11 76 14 127 -2 151 -47 8 -15 13 -16
32 -7 12 7 23 13 25 14 2 2 -4 20 -12 40 -9 21 -16 39 -16 40 0 1 14 8 31 15
24 10 30 18 26 36 l-4 23 54 -28 53 -28 86 17 c48 10 90 23 94 30 4 7 12 10
18 6 15 -9 42 4 42 21 0 8 5 11 10 8 6 -3 10 2 10 12 1 16 2 16 13 -2 7 -12
19 -19 27 -18 9 2 25 -6 37 -17 32 -29 43 -25 36 15 -5 32 -4 35 20 35 14 0
43 11 63 25 20 14 33 25 28 25 -5 0 -3 4 4 8 7 5 10 16 6 25 -3 9 -9 15 -13
13 -3 -2 -15 2 -26 10 -10 8 -15 14 -9 15 5 0 21 3 36 5 24 4 30 -1 48 -38 24
-50 24 -52 5 -44 -10 3 -15 -1 -15 -12 0 -9 -7 -28 -15 -42 -8 -14 -19 -35
-24 -47 -6 -13 -19 -23 -31 -23 -11 0 -20 -7 -20 -15 0 -8 -4 -15 -9 -15 -5 0
-8 -14 -6 -30 1 -22 16 -43 51 -75 27 -25 52 -45 57 -45 5 0 7 -17 5 -37 -2
-22 2 -38 10 -41 6 -2 12 -10 12 -18 0 -8 4 -14 9 -14 5 0 7 9 4 20 -6 24 0
25 22 3 16 -15 17 -15 13 7 -4 32 20 37 28 6 3 -14 10 -26 16 -26 5 0 7 4 3 9
-3 5 8 3 25 -5 27 -14 32 -14 47 2 10 9 16 28 15 41 -2 14 3 25 12 29 9 3 16
12 16 20 0 8 5 14 10 14 6 0 10 -6 10 -14 0 -11 8 -12 43 -4 23 5 55 16 71 24
18 8 33 10 40 5 6 -5 29 -11 51 -13 34 -3 41 -8 48 -34 7 -23 21 -36 58 -53
27 -13 49 -30 49 -37 0 -19 108 -66 129 -55 11 7 26 3 49 -11 18 -11 39 -17
47 -14 8 3 31 -6 51 -19 39 -26 64 -32 64 -15 0 6 13 4 30 -5 17 -9 30 -12 30
-8 0 5 9 14 21 21 18 11 24 11 37 -2 10 -8 29 -18 45 -21 15 -4 33 -15 40 -24
18 -26 38 -30 91 -20 43 8 50 6 65 -12 10 -13 31 -22 51 -24 19 -2 35 -4 35
-5 0 -1 12 -3 28 -5 20 -3 27 1 27 13 1 14 4 13 20 -6 12 -15 21 -19 26 -11 4
7 23 9 50 6 29 -3 44 -1 44 7 0 6 7 2 15 -8 8 -11 18 -17 21 -13 4 3 15 -5 26
-18 17 -22 24 -24 73 -19 40 4 55 2 55 -6 0 -10 3 -10 14 -1 11 9 21 6 47 -16
19 -15 42 -37 52 -48 18 -20 19 -20 33 -1 8 11 14 23 14 27 0 5 11 20 24 34
20 22 23 31 16 61 -7 31 -5 40 16 59 13 12 24 28 24 34 0 8 11 4 29 -8 16 -12
28 -28 27 -37 -1 -19 61 -28 82 -12 9 8 12 5 12 -10 0 -18 25 -42 43 -42 3 0
10 15 18 33 16 39 26 47 62 47 15 0 30 6 33 14 7 18 54 8 54 -12 0 -9 18 -38
41 -64 35 -42 39 -51 27 -65 -11 -15 -11 -16 6 -10 10 4 25 2 32 -4 10 -8 14
-8 14 0 0 19 20 12 46 -16 41 -44 73 -53 112 -31 32 17 33 17 32 1 -1 -10 -1
-20 0 -23 6 -14 7 -70 1 -70 -4 0 -16 -8 -28 -17 -20 -16 -20 -17 -2 -50 11
-19 14 -35 8 -38 -5 -4 -7 -10 -4 -15 3 -4 -2 -13 -10 -20 -9 -7 -13 -21 -10
-31 5 -14 2 -17 -9 -13 -13 5 -12 -3 5 -42 24 -55 46 -84 64 -84 7 0 20 -12
30 -26 12 -19 14 -29 5 -39 -7 -8 -9 -24 -5 -36 5 -14 2 -25 -6 -31 -20 -13
29 1 61 18 14 7 35 18 48 23 14 7 22 19 22 36 0 27 9 32 27 14 8 -8 13 -8 17
0 4 6 17 11 30 11 12 0 27 5 34 12 6 6 29 11 52 10 32 -2 40 2 40 16 1 47 23
52 170 40 8 0 26 -9 39 -20 13 -10 32 -18 42 -18 12 0 19 -7 19 -19 0 -22 11
-31 54 -46 16 -5 32 -17 34 -25 3 -8 1 -12 -3 -8 -11 10 -35 -10 -35 -29 0 -8
7 -13 17 -11 19 3 63 -32 63 -51 0 -6 -7 -11 -15 -11 -27 0 -16 -17 14 -23 23
-5 30 -12 33 -34 2 -20 9 -29 26 -31 12 -2 22 -10 22 -17 0 -19 80 -65 113
-65 16 0 28 -7 31 -17 3 -10 19 -26 36 -35 16 -9 30 -24 30 -33 0 -9 9 -15 23
-15 16 0 18 -3 8 -9 -10 -6 -10 -13 -2 -29 15 -29 41 -36 57 -15 12 17 13 17
19 1 4 -10 17 -18 29 -18 11 0 30 -7 40 -15 25 -19 41 -19 60 0 14 14 18 14
38 1 34 -21 148 -32 159 -15 6 10 9 6 9 -13 0 -21 5 -28 19 -28 20 0 35 -25
25 -41 -3 -5 4 -21 15 -35 16 -21 19 -35 15 -64 -6 -35 -4 -40 24 -54 16 -8
35 -28 40 -43 22 -56 43 -71 98 -66 45 4 53 2 97 -32 41 -31 53 -36 85 -31 20
3 38 5 40 6 1 0 -2 9 -8 21 -8 15 -8 24 0 34 8 10 8 14 -2 18 -8 4 -5 8 9 12
14 5 20 13 16 23 -10 33 -46 102 -53 102 -4 0 -10 14 -13 30 -7 32 -24 40 -33
16 -8 -20 -34 -8 -34 15 0 10 -8 23 -17 28 -10 6 -12 11 -5 11 6 0 12 9 12 20
0 11 5 20 10 20 6 0 -5 29 -25 63 -19 35 -35 70 -35 78 0 17 -106 109 -126
109 -42 0 -95 34 -123 79 -15 26 -41 60 -55 76 -19 20 -25 36 -22 51 5 17 1
24 -14 29 -11 3 -38 24 -60 46 -22 22 -48 39 -58 38 -29 -5 -76 12 -90 32 -8
11 -25 19 -41 19 -16 0 -34 6 -41 14 -6 8 -17 13 -25 10 -7 -3 -16 -1 -20 5
-3 6 -14 11 -24 11 -11 0 -23 12 -30 28 -12 28 -40 43 -108 57 -19 4 -34 2
-38 -5 -9 -15 -115 -2 -136 16 -8 8 -21 14 -28 14 -6 0 -14 14 -18 31 -4 22
-14 34 -33 41 -20 6 -30 20 -39 48 -6 22 -20 44 -31 50 -22 12 -43 78 -34 106
4 14 3 16 -4 5 -6 -8 -17 -11 -32 -6 -18 6 -22 4 -17 -8 4 -11 2 -14 -8 -11
-20 8 -29 42 -14 60 17 21 -3 62 -36 70 -26 6 -32 23 -15 40 8 8 5 18 -9 35
-13 17 -17 33 -14 57 4 22 0 38 -12 52 -17 18 -14 60 5 60 12 0 5 33 -7 37 -6
2 -9 13 -6 24 3 11 -2 28 -12 39 -18 20 -18 21 0 34 14 10 15 17 8 31 -17 29
8 105 34 105 8 0 11 5 8 11 -4 6 -13 8 -21 5 -7 -3 -20 4 -28 16 -9 13 -21 18
-31 15 -11 -5 -19 1 -25 19 -17 42 -13 56 13 48 l22 -6 -21 23 c-12 13 -29 38
-40 56 -14 26 -23 31 -41 27 -29 -8 -29 4 -2 53 12 21 23 49 25 63 2 14 1 19
-2 13 -9 -21 -34 -15 -34 7 0 11 4 20 9 20 5 0 11 10 13 22 3 19 26 38 62 51
4 1 9 17 10 33 1 17 6 37 12 45 19 24 23 58 8 70 -12 9 -10 15 9 36 12 13 32
28 44 33 14 6 20 15 17 24 -8 22 56 33 71 12 14 -19 60 -23 49 -4 -5 8 -2 9
12 3 10 -4 28 -7 39 -7 11 1 27 -6 37 -15 11 -10 26 -13 41 -9 15 3 29 1 36
-8 17 -21 85 -1 122 35 13 13 14 20 5 29 -8 10 -8 14 2 17 6 3 12 15 12 28 0
13 5 27 11 30 6 4 8 14 5 22 -3 8 1 30 10 48 18 38 57 51 88 29 29 -20 31 -18
33 21 1 21 -3 35 -10 35 -12 0 -74 109 -70 121 1 4 -7 4 -19 1 -12 -3 -26 1
-32 9 -6 8 -25 21 -43 28 -28 11 -54 41 -35 41 4 0 13 14 21 31 11 26 11 33 0
40 -7 4 -11 9 -9 11 26 16 52 28 65 28 8 0 15 2 15 4 0 14 -34 134 -42 150 -9
16 -7 18 14 13 29 -8 41 0 53 38 6 17 18 30 27 30 10 0 23 6 30 13 6 6 18 12
26 12 11 0 13 8 8 31 -5 26 -1 36 27 62 29 28 33 37 29 73 -3 29 1 46 13 58
11 11 14 23 9 34 -4 9 -13 36 -19 59 -11 39 -10 44 8 56 19 13 19 13 -2 55
-11 22 -21 53 -21 67 0 14 -5 25 -11 25 -7 0 -9 10 -7 25 4 17 -2 31 -19 46
-14 14 -21 29 -18 40 3 10 0 17 -7 16 -51 -2 -66 4 -72 28 -4 15 -13 25 -25
25 -22 0 -71 60 -71 88 0 10 -9 27 -20 37 -27 25 -25 53 5 65 14 5 25 17 25
26 0 9 8 23 18 30 16 13 16 15 -1 25 -12 7 -15 15 -9 22 4 7 9 26 10 42 1 26
0 28 -9 10 -14 -29 -93 -51 -156 -45 -29 3 -53 2 -53 -3 0 -5 -8 -6 -17 -3
-19 8 -33 -9 -33 -42 0 -15 -5 -22 -12 -19 -7 2 -13 8 -13 14 0 15 -81 103
-94 103 -6 0 -11 7 -11 15 0 8 7 15 15 15 30 0 37 36 14 75 -12 20 -21 48 -21
63 1 40 -16 87 -39 107 -12 11 -17 25 -13 37 7 22 -70 108 -97 108 -25 0 -59
39 -52 58 4 8 -2 21 -12 28 -15 11 -24 11 -53 -1 -19 -8 -52 -15 -73 -15 -27
0 -45 -6 -56 -20 -10 -11 -25 -20 -34 -20 -9 0 -20 -7 -23 -16 -5 -12 -14 -15
-36 -11 -16 4 -32 2 -35 -4 -4 -5 -16 -7 -26 -4 -11 4 -26 2 -34 -5 -10 -9
-23 -6 -55 10 -36 18 -73 29 -117 32 -7 1 -13 7 -13 15 0 7 -17 15 -39 19 -31
5 -42 13 -51 33 -13 31 -27 55 -58 99 l-24 33 -19 -38 c-10 -20 -19 -47 -19
-59 0 -12 -6 -27 -14 -34 -8 -6 -13 -17 -10 -25 3 -7 -4 -20 -16 -28 -13 -9
-18 -20 -14 -31 5 -13 0 -16 -24 -16 -17 0 -32 6 -35 13 -3 9 -8 9 -21 -2 -16
-13 -15 -15 4 -36 11 -12 20 -26 20 -31 0 -15 -42 -12 -59 4 -7 7 -15 11 -17
9 -9 -9 9 -37 26 -42 29 -9 62 -69 54 -99 -3 -14 -10 -26 -15 -26 -5 0 -5 -7
-2 -17 4 -11 3 -14 -6 -9 -8 6 -10 1 -6 -17 5 -17 2 -26 -10 -31 -16 -6 -16
-8 -1 -31 9 -14 12 -25 6 -25 -5 0 -10 -10 -10 -21 0 -12 -18 -43 -40 -69 -22
-26 -40 -52 -40 -58 0 -6 -7 -18 -16 -27 -13 -13 -14 -21 -6 -40 8 -16 8 -26
1 -31 -6 -4 -5 -11 3 -21 11 -14 13 -13 18 6 5 20 7 20 34 6 35 -18 36 -18 36
0 0 8 8 15 18 15 10 0 23 5 30 12 9 9 20 3 48 -25 27 -27 46 -37 69 -37 36 0
55 -15 55 -45 0 -11 10 -26 21 -33 16 -10 19 -16 10 -25 -9 -9 -14 -9 -20 1
-6 11 -19 7 -58 -17 -28 -17 -57 -31 -66 -31 -9 0 -24 -13 -34 -30 -22 -38
-38 -38 -74 1 -16 17 -29 28 -29 24 0 -4 -11 0 -25 9 -18 12 -30 13 -50 6 -14
-5 -29 -9 -33 -8 -15 3 -68 -15 -84 -29 -9 -8 -19 -25 -22 -39 -5 -20 -11 -23
-30 -18 -17 4 -33 -3 -59 -25 -42 -37 -79 -40 -137 -10 -23 12 -43 19 -45 17
-10 -10 46 -50 70 -50 21 0 25 -4 19 -22 -15 -49 -58 -74 -61 -35 -2 22 -20
49 -33 49 -4 0 -10 -13 -13 -30 -6 -25 -11 -30 -37 -30 -24 0 -33 -6 -40 -26
-6 -14 -8 -30 -4 -35 3 -5 -4 -9 -15 -9 -12 0 -21 -4 -21 -10 0 -5 -9 -10 -20
-10 -29 0 -77 -27 -90 -49 -5 -11 -7 -33 -4 -50 6 -30 6 -31 -31 -31 -34 0
-36 -2 -24 -17 11 -13 11 -17 2 -20 -7 -3 -13 -16 -13 -30 0 -20 -4 -24 -19
-20 -12 3 -27 -3 -36 -13 -16 -18 -58 -20 -105 -5 -16 5 -20 2 -20 -18 0 -14
-8 -35 -18 -47 -16 -19 -22 -21 -40 -11 -20 11 -21 10 -12 -14 9 -24 6 -29
-14 -26 -4 1 -17 -1 -27 -4 -17 -6 -19 -13 -13 -54 5 -36 2 -50 -10 -60 -9 -7
-14 -17 -11 -21 3 -5 1 -20 -5 -35 -8 -22 -13 -24 -30 -15 -11 6 -35 10 -53 8
-43 -2 -55 6 -65 45 -9 35 -38 49 -39 20 -1 -10 3 -31 8 -48 5 -16 11 -48 13
-71 5 -37 3 -42 -20 -53 -17 -7 -24 -17 -20 -26 3 -9 0 -15 -9 -15 -8 0 -15
-8 -15 -19 0 -10 -7 -24 -15 -31 -12 -10 -15 -10 -15 4 0 9 6 16 13 16 6 0 4
5 -5 11 -10 5 -18 16 -18 24 0 8 -7 11 -20 8 -23 -6 -25 2 -5 37 9 18 10 29 3
37 -16 20 -23 16 -27 -14 -7 -59 2 -108 20 -108 27 0 28 -20 1 -31 -15 -7 -22
-13 -15 -13 21 -2 2 -41 -21 -41 -24 0 -66 40 -66 64 0 9 -3 16 -7 16 -5 0
-21 12 -36 26 -24 20 -27 27 -17 39 7 8 10 24 7 35 -3 11 -1 23 5 26 5 3 7 12
4 20 -8 20 23 18 46 -3 18 -16 18 -16 12 0 -4 12 -1 17 10 17 10 0 16 8 16 21
0 11 5 30 11 41 21 39 -43 108 -85 92 -12 -5 -16 0 -16 20 0 19 -5 26 -20 26
-23 0 -55 44 -46 65 5 15 -30 42 -41 31 -3 -3 -15 1 -27 9 -11 8 -36 15 -56
15 -20 0 -46 7 -58 16 -20 14 -23 14 -28 0 -3 -9 -11 -16 -16 -16 -7 0 -6 5 1
14 9 11 8 15 -6 20 -15 6 -14 9 8 29 56 49 61 60 44 100 -14 34 -13 47 5 92
37 88 33 110 -29 168 -43 41 -51 64 -26 73 21 9 20 80 -2 92 -11 7 -14 15 -8
28 5 11 9 22 9 26 1 5 13 21 27 36 20 21 25 32 18 45 -14 24 -3 69 21 87 17
13 19 20 10 49 -5 19 -8 36 -6 38 1 2 15 -6 30 -18 20 -16 30 -19 39 -10 6 6
19 11 29 11 10 0 39 19 63 43 25 23 48 41 51 39 3 -2 16 12 28 30 l23 33 -29
24 c-17 14 -25 26 -19 30 17 11 -25 90 -53 101 -32 12 -53 44 -62 95 -3 22
-11 45 -16 51 -5 7 -4 22 3 38 9 20 9 32 0 52 -6 14 -9 30 -5 35 3 6 0 17 -7
26 -8 8 -14 28 -14 43 0 15 -7 35 -15 45 -12 15 -12 18 2 26 12 7 15 24 14 81
-2 45 -7 73 -14 76 -7 2 -12 12 -12 23 0 17 5 18 39 13 36 -6 43 -3 71 27 17
19 34 46 37 62 3 17 12 27 23 27 15 0 19 10 20 53 4 87 0 166 -11 194 -7 19
-6 28 2 34 7 4 9 15 5 25 -4 11 -10 68 -13 128 -4 97 -3 108 11 103 13 -5 15
-2 10 18 -5 21 -3 25 15 25 12 0 21 5 21 10 0 7 6 7 19 1 16 -9 18 -8 14 8 -4
15 1 19 19 20 53 1 57 3 47 23 -5 10 -6 18 -2 17 22 -4 32 4 43 32 8 17 18 28
26 25 26 -10 19 19 -13 51 -18 19 -33 38 -33 43 0 15 69 -23 70 -38 0 -7 4
-11 9 -7 5 3 13 0 17 -6 4 -8 3 -9 -4 -5 -7 4 -12 2 -12 -3 0 -8 19 -9 55 -5
47 6 55 4 55 -10 0 -9 9 -34 20 -56 19 -37 41 -51 85 -56 11 -2 40 -8 65 -14
61 -15 121 -20 114 -9 -3 5 1 18 9 29 12 17 16 18 20 6 8 -20 45 -9 52 15 7
22 18 24 46 9 15 -8 19 -7 19 5 0 8 6 15 13 15 32 1 81 70 58 84 -5 3 -7 15
-4 26 3 11 -2 32 -12 46 -14 21 -16 39 -10 90 5 54 4 64 -9 64 -29 0 -28 22 3
51 26 24 36 27 52 19 25 -14 44 -3 28 16 -6 8 -8 21 -4 31 5 10 7 22 6 28 -1
5 0 24 4 42 4 24 11 33 25 33 34 0 42 32 25 105 -9 37 -22 77 -30 89 -11 17
-12 34 -6 76 6 38 5 62 -5 85 -14 35 -37 58 -47 48 -4 -3 -7 13 -7 36 0 55
-13 78 -49 86 -33 7 -141 114 -141 139 0 9 -6 16 -12 16 -7 0 -25 6 -40 14
-15 8 -50 14 -77 13 -34 0 -57 5 -69 16 -10 9 -25 17 -32 17 -8 0 -33 9 -56
21 -32 15 -44 28 -49 50 -5 24 -10 27 -25 19 -9 -5 -27 -7 -39 -5 -14 2 -19 0
-15 -7 5 -8 -12 -9 -61 -4 -82 8 -88 11 -74 37 7 14 7 29 0 50 -8 23 -7 29 3
29 8 0 19 7 26 15 10 12 6 20 -19 46 -17 17 -31 39 -31 50 0 27 -13 24 -27 -7z
m-2920 -694 c-19 -32 -33 -39 -33 -15 0 8 6 15 14 15 8 0 16 7 20 15 3 8 8 15
11 15 3 0 -2 -13 -12 -30z m-13 -57 c0 -8 -4 -11 -10 -8 -5 3 -10 1 -10 -4 0
-6 -4 -11 -10 -11 -11 0 -14 33 -4 43 10 10 34 -4 34 -20z m-333 -49 c-3 -3
-12 -4 -19 -1 -8 3 -5 6 6 6 11 1 17 -2 13 -5z m2273 -359 c7 -9 10 -27 7 -45
-4 -16 -2 -32 3 -35 21 -13 9 -23 -18 -14 -31 11 -62 51 -43 57 6 2 9 8 5 13
-3 5 0 9 5 9 6 0 11 7 11 15 0 19 14 19 30 0z m-3410 -1822 c0 -13 -3 -13 -15
-3 -8 7 -15 16 -15 21 0 5 7 6 15 3 8 -4 15 -13 15 -21z m415 -153 c3 -5 1
-10 -4 -10 -6 0 -11 5 -11 10 0 6 2 10 4 10 3 0 8 -4 11 -10z m-855 -130 c0
-5 -5 -10 -11 -10 -5 0 -7 5 -4 10 3 6 8 10 11 10 2 0 4 -4 4 -10z m1060 -10
c0 -5 -4 -10 -10 -10 -5 0 -10 5 -10 10 0 6 5 10 10 10 6 0 10 -4 10 -10z
m-756 -35 c-4 -8 -11 -12 -16 -9 -6 4 -5 10 3 15 19 12 19 11 13 -6z m6231
-115 c3 -5 -1 -10 -9 -10 -9 0 -16 5 -16 10 0 6 4 10 9 10 6 0 13 -4 16 -10z
m-6305 -185 c10 -12 9 -16 -5 -21 -19 -8 -46 5 -53 24 -5 17 43 15 58 -3z
m690 5 c0 -5 -2 -10 -4 -10 -3 0 -8 5 -11 10 -3 6 -1 10 4 10 6 0 11 -4 11
-10z m5820 -26 c0 -8 -4 -14 -10 -14 -5 0 -10 9 -10 21 0 11 5 17 10 14 6 -3
10 -13 10 -21z m-6005 6 c3 -5 1 -10 -4 -10 -6 0 -11 5 -11 10 0 6 2 10 4 10
3 0 8 -4 11 -10z m-470 -40 c3 -5 1 -10 -4 -10 -6 0 -11 5 -11 10 0 6 2 10 4
10 3 0 8 -4 11 -10z m725 -10 c0 -5 -7 -7 -15 -4 -8 4 -15 8 -15 10 0 2 7 4
15 4 8 0 15 -4 15 -10z m1190 -70 c0 -5 -5 -10 -11 -10 -5 0 -7 5 -4 10 3 6 8
10 11 10 2 0 4 -4 4 -10z m-50 -60 c0 -5 -4 -10 -10 -10 -5 0 -10 5 -10 10 0
6 5 10 10 10 6 0 10 -4 10 -10z m-40 -64 c-14 -14 -22 -2 -14 18 5 14 9 15 15
4 4 -7 4 -17 -1 -22z m4024 2 c-3 -5 2 -15 12 -22 16 -12 15 -14 -9 -20 -17
-4 -24 -11 -21 -20 3 -8 0 -17 -6 -21 -20 -13 -23 4 -5 31 9 14 15 37 13 49
-4 16 -1 22 9 18 7 -3 10 -9 7 -15z m-4054 -28 c0 -5 -4 -10 -9 -10 -6 0 -13
5 -16 10 -3 6 1 10 9 10 9 0 16 -4 16 -10z m-30 -50 c0 -5 -7 -7 -15 -4 -8 4
-15 8 -15 10 0 2 7 4 15 4 8 0 15 -4 15 -10z m-75 -50 c3 -5 2 -10 -4 -10 -5
0 -13 5 -16 10 -3 6 -2 10 4 10 5 0 13 -4 16 -10z m195 -19 c0 -5 -9 -19 -20
-32 -21 -26 -27 -10 -8 21 13 21 28 27 28 11z m2310 -141 c0 -5 -7 -7 -15 -4
-8 4 -15 8 -15 10 0 2 7 4 15 4 8 0 15 -4 15 -10z m515 -537 c4 -14 2 -23 -4
-23 -6 0 -11 3 -11 8 0 4 -3 18 -6 32 -8 31 11 16 21 -17z m2230 -724 c4 -5
18 -14 31 -19 29 -11 41 -37 25 -53 -8 -8 -15 -6 -26 9 -14 18 -15 16 -9 -22
7 -48 2 -53 -48 -47 -41 6 -53 23 -16 23 19 0 20 2 7 13 -9 6 -23 24 -32 38
-15 24 -15 28 1 48 18 22 56 28 67 10z m85 -201 c0 -4 -4 -8 -9 -8 -6 0 -12 4
-15 8 -3 5 1 9 9 9 8 0 15 -4 15 -9z m-3500 -157 c0 -18 -18 -21 -30 -6 -10
13 -9 15 9 15 11 0 21 -4 21 -9z m-732 -39 c5 -16 -56 -51 -79 -45 -22 6 -26
23 -4 23 8 0 24 9 36 21 21 21 40 21 47 1z m-134 2 c9 -3 16 -17 16 -30 0 -28
-3 -29 -35 -8 -42 27 -27 56 19 38z m-14 -54 c0 -5 -2 -10 -4 -10 -3 0 -8 5
-11 10 -3 6 -1 10 4 10 6 0 11 -4 11 -10z"/>
<path d="M9412 13019 c2 -7 10 -15 17 -17 8 -3 12 1 9 9 -2 7 -10 15 -17 17
-8 3 -12 -1 -9 -9z"/>
<path d="M9300 12975 c-15 -18 1 -26 23 -10 15 10 15 14 3 18 -8 3 -20 0 -26
-8z"/>
<path d="M9190 12941 c0 -5 7 -12 16 -15 14 -5 15 -4 4 9 -14 17 -20 19 -20 6z"/>
<path d="M9247 12939 c7 -7 15 -10 18 -7 3 3 -2 9 -12 12 -14 6 -15 5 -6 -5z"/>
<path d="M9206 12903 c-11 -11 -6 -23 9 -23 8 0 15 4 15 9 0 13 -16 22 -24 14z"/>
<path d="M5566 12494 c-5 -13 -9 -15 -18 -6 -15 15 -72 16 -63 2 10 -17 -18
-70 -37 -70 -10 0 -18 -6 -18 -13 0 -9 -10 -12 -31 -9 -21 3 -30 1 -25 -6 9
-14 -26 -70 -41 -65 -17 6 -27 -16 -9 -23 12 -5 11 -9 -5 -25 -11 -11 -17 -24
-14 -29 4 -6 1 -10 -4 -10 -6 0 -11 5 -11 10 0 6 -7 10 -16 10 -11 0 -13 -6
-9 -20 10 -31 -5 -90 -24 -91 -17 -1 -15 -1 28 -15 9 -3 10 -8 3 -17 -18 -23
-20 -67 -3 -80 18 -13 61 -95 61 -114 0 -7 5 -13 10 -13 9 0 14 17 13 48 -1
14 4 14 32 2 18 -7 19 -8 3 -15 -24 -10 -23 -41 2 -48 25 -6 23 -49 -2 -59
-10 -4 -18 -14 -18 -23 0 -13 10 -15 48 -13 41 3 47 6 46 25 0 19 3 22 23 17
17 -5 23 -2 23 11 0 10 8 23 17 30 11 8 16 25 15 55 -2 35 1 41 14 36 39 -15
64 -18 64 -7 0 15 33 14 49 -1 11 -11 13 -9 7 12 -3 14 -6 31 -6 39 0 7 -6 11
-13 8 -9 -3 -23 14 -40 47 -31 61 -33 76 -11 76 20 0 97 77 91 93 -2 6 -14 12
-28 12 -29 0 -37 27 -18 62 10 19 11 28 1 44 -7 10 -10 29 -8 42 17 82 16 84
-12 90 -15 3 -34 8 -43 12 -10 4 -19 0 -23 -11z m-156 -125 c0 -5 -4 -9 -10
-9 -5 0 -10 7 -10 16 0 8 5 12 10 9 6 -3 10 -10 10 -16z"/>
<path d="M5400 12476 c0 -8 5 -18 10 -21 6 -3 10 -11 10 -16 0 -5 -11 -2 -25
7 -22 14 -32 15 -64 5 -21 -6 -47 -11 -57 -11 -15 0 -19 -7 -18 -27 1 -16 7
-27 13 -25 6 1 11 -2 11 -7 0 -5 10 -11 22 -14 27 -7 58 18 58 46 0 15 3 17
13 9 13 -11 42 -11 53 0 9 9 -6 68 -17 68 -5 0 -9 -6 -9 -14z"/>
<path d="M5307 11913 c-4 -3 -7 -15 -7 -26 0 -15 3 -17 13 -8 8 6 18 7 23 3 4
-4 2 2 -6 13 -8 11 -15 21 -16 23 0 1 -4 -1 -7 -5z"/>
<path d="M5653 11891 c2 -10 0 -25 -4 -34 -6 -9 -6 -33 0 -56 5 -24 5 -41 0
-41 -5 0 -9 -4 -9 -9 0 -5 9 -7 20 -4 11 3 20 12 20 20 0 8 7 22 16 30 29 30
1 113 -39 113 -5 0 -7 -8 -4 -19z"/>
<path d="M5271 11854 c0 -11 3 -14 6 -6 3 7 2 16 -1 19 -3 4 -6 -2 -5 -13z"/>
<path d="M6090 11790 c-7 -17 -19 -29 -27 -28 -9 2 -20 -5 -27 -15 -9 -15 -7
-22 12 -37 l22 -18 -31 -22 c-21 -16 -27 -26 -20 -33 7 -7 14 -7 23 0 7 5 27
9 43 8 17 -1 38 -3 48 -4 10 0 22 -12 27 -26 5 -14 14 -25 19 -25 12 0 43 -55
36 -62 -3 -3 6 -10 21 -16 l25 -12 -7 47 c-8 56 -12 65 -25 58 -5 -4 -9 -2 -9
3 0 6 -8 9 -17 8 -20 -1 -43 38 -43 76 0 16 -9 33 -22 43 -19 13 -21 17 -8 25
12 7 12 12 0 34 -17 34 -25 33 -40 -4z"/>
<path d="M5593 11735 c0 -8 4 -12 9 -9 4 3 8 9 8 15 0 5 -4 9 -8 9 -5 0 -9 -7
-9 -15z"/>
<path d="M5652 11712 c-23 -18 -84 -20 -132 -6 -21 6 -19 1 18 -34 44 -44 58
-50 65 -29 2 8 25 11 75 10 42 -2 72 1 72 7 0 6 6 10 14 10 18 0 49 47 36 55
-15 9 -32 -5 -26 -21 8 -21 -6 -24 -42 -9 -18 8 -35 14 -39 14 -3 -1 -9 4 -12
9 -4 7 -15 4 -29 -6z"/>
<path d="M12760 11714 c0 -8 5 -12 10 -9 6 4 8 11 5 16 -9 14 -15 11 -15 -7z"/>
<path d="M12720 11680 c-24 -24 -26 -56 -4 -64 21 -8 20 -9 29 42 8 47 4 51
-25 22z"/>
<path d="M5800 11681 c0 -6 7 -14 16 -18 8 -3 20 -17 26 -32 6 -15 12 -21 15
-13 3 6 9 10 14 6 5 -3 9 1 9 10 0 8 6 16 13 19 6 2 -6 8 -28 12 -22 4 -46 12
-52 18 -9 6 -13 6 -13 -2z"/>
<path d="M5825 11585 c1 -14 4 -27 6 -28 2 -2 21 -14 41 -27 44 -29 48 -38 14
-35 -15 2 -32 -6 -44 -20 -20 -23 -20 -24 -1 -41 10 -9 19 -12 19 -6 0 6 7 9
15 6 10 -4 15 0 15 10 0 9 7 19 15 22 23 9 18 53 -9 85 -13 15 -27 25 -30 22
-3 -4 -6 1 -6 9 0 9 -7 19 -16 22 -22 9 -23 9 -19 -19z"/>
<path d="M12748 11593 c7 -3 16 -2 19 1 4 3 -2 6 -13 5 -11 0 -14 -3 -6 -6z"/>
<path d="M12810 11550 c0 -5 5 -10 10 -10 6 0 10 5 10 10 0 6 -4 10 -10 10 -5
0 -10 -4 -10 -10z"/>
<path d="M5945 11450 c3 -5 8 -10 11 -10 2 0 4 5 4 10 0 6 -5 10 -11 10 -5 0
-7 -4 -4 -10z"/>
<path d="M15055 10030 c-3 -5 1 -10 9 -10 9 0 16 5 16 10 0 6 -4 10 -9 10 -6
0 -13 -4 -16 -10z"/>
<path d="M15107 10025 c-18 -13 -17 -14 3 -20 26 -8 29 -5 21 17 -5 14 -9 15
-24 3z"/>
<path d="M13362 9800 c-9 -15 -9 -21 1 -26 6 -4 9 -4 5 1 -4 4 -3 14 4 22 6 7
9 15 7 18 -3 2 -10 -4 -17 -15z"/>
<path d="M12076 8867 c2 -7 13 -13 24 -13 14 0 16 3 8 13 -6 7 -17 13 -24 13
-7 0 -11 -6 -8 -13z"/>
<path d="M14440 7681 c0 -6 5 -13 10 -16 6 -3 10 1 10 9 0 9 -4 16 -10 16 -5
0 -10 -4 -10 -9z"/>
<path d="M9470 7396 c0 -9 5 -16 10 -16 6 0 10 4 10 9 0 6 -4 13 -10 16 -5 3
-10 -1 -10 -9z"/>
<path d="M9410 7365 c0 -9 5 -15 11 -13 6 2 11 8 11 13 0 5 -5 11 -11 13 -6 2
-11 -4 -11 -13z"/>
<path d="M10130 7217 c0 -9 13 -27 30 -40 26 -23 29 -29 20 -52 -12 -33 -13
-48 -1 -41 5 4 18 -6 29 -20 11 -16 24 -24 31 -20 6 4 9 12 6 17 -4 5 1 9 9 9
9 0 15 3 15 8 -4 24 3 34 21 29 28 -7 25 7 -5 23 -14 7 -25 19 -25 26 0 16
-31 34 -58 34 -11 0 -31 9 -46 21 -20 16 -26 17 -26 6z"/>
<path d="M10715 7220 c4 -6 11 -8 16 -5 14 9 11 15 -7 15 -8 0 -12 -5 -9 -10z"/>
<path d="M10730 7184 c0 -13 18 -39 24 -34 2 3 -2 14 -10 24 -8 11 -14 16 -14
10z"/>
<path d="M10753 7139 c-24 -9 -32 -52 -13 -64 6 -4 8 -11 4 -16 -3 -5 0 -8 8
-7 21 5 42 56 32 77 -7 15 -14 17 -31 10z"/>
<path d="M13808 6963 c7 -3 16 -2 19 1 4 3 -2 6 -13 5 -11 0 -14 -3 -6 -6z"/>
<path d="M16145 5357 c-8 -30 1 -50 18 -40 6 4 24 6 39 5 49 -4 32 44 -20 54
-27 6 -32 3 -37 -19z"/>
<path d="M16235 5370 c3 -5 8 -10 11 -10 2 0 4 5 4 10 0 6 -5 10 -11 10 -5 0
-7 -4 -4 -10z"/>
</g>
</svg>
