<svg version="1" xmlns="http://www.w3.org/2000/svg" width="1366.235" height="1239.861" viewBox="0 0 1024.676 929.896"><g fill="#222"><path d="M311.176 1.896c-1 1.1-2.2 1.7-2.7 1.4-1.3-.8-3.8 1.6-3.8 3.7 0 1.1-.7 1.9-1.5 1.9-1.2 0-1.3.3-.3 1.9 1.4 2.3 2.8 1.8 2.8-1 0-2.3 3.2-2.6 4.9-.5 1.2 1.5 5.1 1 6.3-.8.4-.5 2.5-1 4.7-1.1 4.8-.1 5.6-.7 4.2-3.2-2.6-4.6-2.9-4.8-4.6-3.3-1.2 1-2.1 1-4.1.1-3.3-1.5-3.8-1.4-5.9.9zM282.476 13.196c2.9 3 2.9 7.3.1 8.2-1.4.5-1.8 1-1.1 1.7.6.6 1.8.7 2.9.3 1-.5 2.2-.7 2.7-.6.4.1 1.4-.3 2.2-1 .8-.6 2.1-.9 2.9-.5.9.3 1.8-.1 2.2-1.1 1-2.6-6.8-9.3-10.8-9.3h-3.2l2.1 2.3zM302.176 15.196c-.8 1.9-.2 3.1 1.3 2.6.5-.2.6-1.3.2-2.4-.7-1.9-.8-1.9-1.5-.2zM297.276 18.596c-.7 1.6 0 3.3 1.3 3.3.5 0 1.1-.9 1.4-1.9.6-2.4-1.9-3.6-2.7-1.4zM247.276 20.396c-2.7 2.5-2.8 2.7-1.1 4.5 1 1.1 2.4 2 3.2 2 .7 0 1.3.9 1.3 2 0 2.2 2.4 2.7 3.6.8.5-.7 1.1-.5 2.1.8 1.5 2.1 3.9 1.2 5.7-2.2.6-1 1.2-2.1 1.3-2.3.2-.2.9.2 1.8.9 1.1.9 1.5.9 1.5.1 0-.7.5-.9 1-.6.6.3 1 0 1-.8 0-2.3-4.3-5.4-8.2-6.1-2.1-.3-5.3-.8-7-1.1-2.6-.4-3.9 0-6.2 2zM277.676 24.896c-1.3.9-1.3 1.2.3 2.1 1.1.7 1.6 1.7 1.2 2.9-.3 1-.1 2.1.5 2.5.5.3 1 0 1-.7 0-1 .2-1 .9.1 1.7 2.6 1.9-.5.3-4.2-1.8-4-2-4.1-4.2-2.7zM253.876 32.596c-1 .4-1 .8-.1 1.9.9 1.1.8 1.8-.5 3.3-1.1 1.3-1.4 2.1-.7 2.6.6.3 1.1 2.8 1.1 5.6 0 3.7-.4 4.9-1.5 4.9-.8 0-1.5.3-1.5.7 0 .5-2 1.7-4.5 2.8-2.5 1.1-4.5 2.3-4.5 2.7 0 .5-1.5.8-3.3.8-2.6 0-3.6.6-4.5 2.5-1.1 2.4-1.5 2.5-6.5 1.9-4.4-.5-5.5-.3-6 1-.7 1.9-4.9 2.1-7.9.5-1.9-1-2-.9-1.4 1.2.4 1.3 1 3.4 1.3 4.6.3 1.3.9 2.3 1.4 2.3.5 0 .9 2 .9 4.5 0 4.3-.1 4.5-2.5 3.9-2-.5-2.5-.2-3.1 2-1 4.2-2.9 5-4.8 2.1-1.4-2.1-2-2.4-3.7-1.5-1 .6-2.4.8-3 .5-.6-.4-.7.3-.3 1.9.6 2.4.4 2.6-3.1 2.6h-3.7l1.6 2.5c2 3 2 3.9.1 3.1-1.1-.4-1.5.2-1.5 2 0 1.6-.8 2.8-2.4 3.5-3.4 1.6-3.2 7.5.2 8.4 1.5.4 2.2 1.3 2.2 3.1 0 1.4-.4 2.3-1 1.9-1-.6-3.5 4.2-3.1 5.9.4 1.8-2.3 5.7-3.5 5.2-.7-.3-1.4 0-1.6.6-.2.6-2.2 1.6-4.3 2.3-3.8 1-4 1.3-5.6 7.4-1 3.6-1.5 7.1-1.2 7.8.3.9-.3 1.6-1.5 2-2.1.5-5.7 5.3-8 10.7-.9 2.1-1.8 2.7-3.2 2.3-2.2-.6-2.5 0-1.1 2.2.6.9.6 2.2-.1 3.5-1 1.8-1.1 1.8-2 .2-.5-.9-1.3-1.4-1.8-1.1-1.4.9-5-1.3-5-3 0-.8.8-1.5 1.7-1.5 1.3 0 1.4-.3.5-1.2-.7-.7-1.2-1.9-1.2-2.7 0-1 .6-.8 1.9.7 2.8 3.3 4.1 2.7 4.1-1.7 0-3.3.6-4.4 3.7-6.8 2.1-1.8 3.3-3.4 2.9-4.1-.9-1.5-5.5-.5-8.1 1.8-1.1 1-3.6 2.1-5.5 2.5-1.9.5-2.9 1-2.2 1.2 1.9.7 1.4 2.2-1.5 4.8-1.8 1.6-2.4 2.8-1.8 3.2.6.5 1 1.5.9 2.3 0 .8-.2 2.3-.2 3.2-.1 1.1-1 1.8-2.3 1.8-2.3 0-2.2 1.9.2 3.1 2.8 1.3 9.8 2.6 10.6 1.9.4-.4 1.8-1.1 3.1-1.5 1.9-.5 2.2-.3 2 1.6-.2 1.7.5 2.7 2.6 3.8 2.2 1 3.1 1.1 3.4.3.6-1.9 3-1.4 2.8.5 0 1.1.5 1.7 1.3 1.5 1-.2 1.2.5.7 3.2-.4 2-.2 4.5.4 5.6.9 1.6.8 2-.5 2-1.8 0-1.8 0-.1 3.6.7 1.6 1.6 4.6 1.9 6.7.5 3.4.4 3.6-1.3 2.7-2.6-1.4-2.8-1.3-2.9 1.2 0 1.3-.3 3.9-.7 5.9-.4 2.7 0 5 1.6 8.5l2.1 4.9-2.5 2.1c-1.8 1.6-2.1 2.5-1.3 3.3.8.8.8 1.4-.1 2.3-.7.7-1.2 1.9-1.2 2.8 0 2.9-2.5 7-4.3 7-1.5 0-1.6.3-.7 2.1 1.7 3.1-.5 11.3-3.4 12.8-2.7 1.5-3.1 5.3-1 8.6 1.2 1.8 1.3 2.8.5 4.4-.6 1.1-1.1 3.1-1.1 4.5 0 3.4-1 5.6-2.6 5.6-1.7 0-4.4 5.1-4.4 8.2 0 1.3-.7 3.3-1.5 4.4-.8 1.2-1.1 2.4-.8 2.8.3.3 0 .6-.8.6-3.5 0-5.2 11.5-2.6 16.7 1 1.8 1.7 4.4 1.7 5.8 0 1.8.9 3.1 3 4.3 3 1.7 3.9 3.2 1.9 3.2-.6 0-.8.7-.5 1.6.4.9.1 2.3-.5 3.1-.7.8-1.3 4.1-1.5 7.5-.2 5.4.1 6.4 2.4 8.8 2.9 2.9 11.5 4.9 12.7 3 1-1.6 2.5-.1 2.5 2.5 0 1.3.7 3 1.5 3.9 1.6 1.6 1 4.4-1.3 6.2-.7.5-1.2 1.9-1 3 .2 1.2-.2 1.8-1.1 1.6-.9-.2-1.1.3-.7 1.3.3.9.6 2.1.6 2.6s.8.9 1.8.9c1.8 0 1.9.5 1.3 5.2-.1.3-1.4 1.1-3.1 1.6-2.4.9-3.1.8-4-.6-.7-1.3-.8-.8-.3 1.7.4 2.5.3 3.2-.5 2.7-.8-.4-1.2 0-1.2 1.2 0 1-.3 2.2-.7 2.6-.5.4-.8 1.1-.9 1.4 0 .4-.6 2-1.2 3.5-.7 1.6-1.2 3.2-1.2 3.7s-.6 1-1.2 1.2c-.9.3-.8 1.2.5 3.1.9 1.4 1.7 3.5 1.7 4.5 0 2 2.9 5.2 4.8 5.2.6 0 1.6.9 2.2 2 1.1 2.1 4.6 2.7 5.2.9.5-1.5 10.7 3.6 11.5 5.7.4 1.1 1.4 1.4 3.4 1 2.4-.5 3-.2 3.5 1.9.3 1.4 1 2.5 1.5 2.5s.9 1.1.9 2.4c0 1.5 1.1 3.2 2.7 4.4 2 1.5 2.8 2.9 2.9 5.6 0 2-.3 3.6-.8 3.6-.4 0-.8.8-.8 1.8 0 1.1 1.4 2.5 3.5 3.5 2 .9 4 2.8 4.5 4.2.5 1.4 1.6 2.5 2.4 2.5.9 0 2 .9 2.7 2.1.7 1.4 1.7 1.9 2.9 1.6 1.1-.3 2.4.1 3 .8.6.7 2.3 1.6 3.8 2 1.5.4 3.5 1.5 4.5 2.6 1.2 1.2 3.1 1.9 5.7 1.9 3.4 0 4.2.4 5.5 3 .9 1.6 1.3 3 1 3-.3 0 .4.9 1.5 2 2 2 2.6 5 1.4 6.3-1.5 1.5-1.1 7.2.8 10.4 1.4 2.2 1.8 4.3 1.5 6.2-.5 2.1-.1 3.4 1.4 4.7 2.4 2.2 2.2 6-.4 5.8-.9-.1-1.7.2-1.7.7 0 .5-1 .7-2.2.4-3.1-.8-5 2.3-3.9 6.3.5 1.6.7 5 .4 7.5-.5 4.1-.8 4.5-2.4 3.7-1-.6-2-.6-2.3-.1-.3.5 0 1.1.8 1.4.8.3 1.2 1.5.9 3-.3 1.4 0 2.8.6 3.1.8.5.7 1.2-.3 2.2-1.8 1.7-3.3 1.8-3.8.2-.3-.7-.9-.8-1.8-.3-.8.5-3 1-5 1.2-1.9.1-5.5.6-8 1-5.2.7-4.8.7-7.7-.2-1.8-.5-2.3-.2-2.3 1 0 1-.5 1.5-1.3 1.2-2.3-.9-3.5.7-3 3.6.6 3 2.4 3.5 4.3 1.2 2.6-3.1 6-1.2 8.8 4.8 1.6 3.7 1.5 4.8-.3 4.1-1.1-.5-1.3-.2-.9 1 .5 1.4.9 1.4 3.7-.1 1.8-1 3.9-1.6 4.6-1.4.8.1 2.1-.5 2.8-1.5 1.2-1.7 1.4-1.6 3.6.4 1.3 1.2 2.8 2.2 3.3 2.2.6 0 1.6.6 2.2 1.2.7.7 1.7 1.3 2.1 1.3.4 0 2.1 1.5 3.8 3.4 1.7 1.8 4.1 3.8 5.4 4.5 1.7.8 2.5 2.1 2.7 4.6.5 7.2.2 9.3-1.4 11.1-1.5 1.7-1.6 2.4-.4 6 1.2 3.5 1.2 4.2-.1 5-.8.5-1 .9-.6.9.5 0-.1 1.4-1.3 3-1.5 2-2 3.9-1.6 5.4.5 2.1-.1 2.7-4.9 5.1-3 1.4-5.5 3.1-5.5 3.6 0 1.4-7.6 8.9-9 8.9-.8 0-1 .9-.6 2.6.4 1.5.9 4 1.2 5.8.3 1.7.8 3.8 1.1 4.6.4.8.7 2.8.8 4.5.1 1.6.5 3.7.8 4.5.5 1-.6 2.9-3.2 5.6-3.1 3.3-3.7 4.4-2.9 5.9.8 1.3.7 2-.5 2.7-.9.5-2.1 2.6-2.7 4.8-.7 2.4-1.8 4.1-3.1 4.5-1.8.6-1.9.9-.6 2.8.8 1.2 1.7 3.3 2 4.7.5 2.2.1 2.8-3.1 4.5-2.7 1.5-3.6 2.6-3.4 4.1.1 1.2-.4 2.7-1.3 3.4-.8.7-1.5 1.9-1.5 2.6 0 .8-.9 1.3-2.2 1.1-1.8-.1-2.2.2-2 1.9.3 2.1-2.1 3.2-8.3 3.6-1.1.1-2.3.6-2.6 1-.3.5-1.8.4-3.2-.3-3.9-1.8-8.1.2-7.1 3.4.3 1.2 1.3 2.9 2 3.8.8.9 1.1 1.8.8 2.2-.4.3.7 2.2 2.5 4.2 1.7 2 3.1 4.2 3.1 4.9 0 1.5 6.8 4.6 10.1 4.6 1.5 0 1.9-.5 1.5-1.5-.4-1.2-.2-1.3 1.3-.6 1 .6 3.3 1.3 5.1 1.6 4.2.7 5 1.2 5 3.1 0 .9.6 1.4 1.3 1.1.6-.2 1.1-1 .9-1.6-.3-1.4 1.5-1.5 2.3-.1.3.5 1.7 1 3 1 1.7 0 2.5-.6 2.7-2.3.2-1.8.8-2.1 3.5-1.9 1.7.2 3.4-.2 3.8-.8.3-.6 1.1-.8 1.6-.5.5.4.9-.1.9-1s.4-1.4.9-1c.6.3.9-.7.8-2.1-.2-2.1.3-2.7 2.1-2.9 2-.1 2.6.6 2.3 2.7-.1 1.2 7.3 3.2 12.9 3.4 5.4.2 12 2.1 12 3.6 0 .4 1.6 1.9 3.6 3.4 2.6 2.1 4.6 2.7 7.2 2.6 2.6-.2 4.7.5 7.8 2.8 4.2 3 9.3 4.2 7.8 1.8-.5-.8-.2-.9 1-.5 1 .4 2 .7 2.2.7.2 0 .4 1 .5 2.2v2.3l.9-2.3c1-2.4 1.8-2.6 3.9-1.3.8.5 2.4.3 4-.5 1.4-.8 3.3-1.4 4.1-1.4.9 0 2.1-.5 2.7-1.1.7-.7 1.9-.2 3.9 1.8 2.4 2.4 3.3 2.7 5.2 1.8 1.2-.5 2.2-1.7 2.2-2.6 0-2.5 2.5-3 6.3-1.4 3.1 1.3 3.4 1.2 4.6-.7 1.2-2 1.3-2 4.2.8 1.6 1.5 2.9 3.3 2.9 4 0 .7 1.7 1.6 3.8 2 5 .9 9.2 3.1 9.2 4.9 0 1.1 1.2 1.5 4.5 1.5 5 0 8.9 1.6 11.9 4.9 1.1 1.2 2.7 2.1 3.7 2.1.9 0 2.9 1.4 4.3 3 1.4 1.7 2.9 3.2 3.3 3.3.4.1.7.6.5 1-.1.5.5.4 1.5-.1 1.8-1.1 7.7 1.5 9.6 4 .6.9.7.6.4-1-.4-1.7-.1-2.2 1.5-2.2 1 0 2.8-.5 4-1.1 1.6-.9 2.4-.7 4.4 1.2 1.3 1.2 2.4 1.9 2.4 1.5 0-.5.7-.3 1.5.4s1.2 1.6.9 2.1c-.3.5-.1.9.4.9.6 0 1.2-.7 1.6-1.5.3-.8 1.5-1.5 2.6-1.5 2.7 0 5.2-2.4 4.4-4.3-.3-.8 0-1.8.6-2.2.8-.5.6-1.4-.5-3.2-1.2-1.7-1.5-3.6-1-5.9.5-3 1-3.4 3.5-3.4 3.3 0 3.8-1.1 1.4-3.4-.8-.9-1.2-1.6-.8-1.6.4 0-.1-.9-1-1.9-1-1-1.3-2.1-.7-2.2 1.2-.5-2.5-8.9-3.9-8.9-.6 0-1-.9-1-1.9 0-1.1-.4-2.3-1-2.6-.5-.3-1-1.7-1-3 0-3.5-1.5-3.9-4.6-1-3 2.8-5.4 2-5.4-1.7 0-1.5.5-1.9 2-1.5 1.3.3 2 0 2-1 0-1.2 1.2-1.4 5.7-1.1 5.5.3 5.8.2 7.8-2.9 1.1-1.8 2.5-3.2 3.2-3.3.7 0 1.6-.6 2-1.4 1.3-2.2 5.3-.2 4.6 2.3-.3 1.2-.1 2.1.5 2.1s1.4.9 1.7 2c.3 1.1 1.1 2 1.7 2 .6 0 2.2 1.2 3.6 2.7 2.2 2.4 2.6 2.6 3.5 1.1 1.7-2.7 6.2-.4 7.9 4.1 1.4 3.4 2 3.9 5.7 4.4 4.5.6 8.1 3 8.1 5.4 0 1.1.7 1 3.3-.6l3.4-2.1 2.2 2.3c1.1 1.3 1.8 2.7 1.4 3.2-.5.4-.2.5.5.1s1.5-.1 1.8.8c.7 1.7 3.9 2.2 4.8.7.4-.5 1.8-.5 3.4.1 2.3.9 4.2.7 9-.7 3.4-1 6.2-2.2 6.2-2.7 0-.4.8-.8 1.8-.8s2.3-.5 2.8-1c.7-.7 2.4-.6 5.3.5 2.4.8 5.7 1.5 7.3 1.5 3.6 0 8 2.2 13.5 6.6 2.3 1.9 5 3.4 6 3.4 1.1 0 2.4.5 3 1.1.8.8 1.7.8 3.1 0 2.2-1.2 3.2-.6 3.2 1.9 0 2.2 3.9 5.8 4.8 4.4.4-.6 2.1-1.4 3.8-1.7 2.6-.5 3.3-.3 3.7 1.4.3 1.1 1.1 1.9 1.9 1.8 2.4-.5 5.7 1.2 6.3 3.2.4 1.2 2.3 2.7 4.2 3.5 2.4 1 3.3 2 2.9 3-.3.8.3 2.3 1.4 3.4 1.1 1.1 2 2.8 2 3.8 0 1.1 1.1 2.4 2.5 3 1.4.6 2.5.8 2.5.4s1.6-.6 3.5-.4c2.7.3 3.5.1 3.5-1.2 0-2.4 1.6-2 4.9 1.3 1.6 1.6 4 2.9 5.3 3 10.8.3 14.3 1.5 20.2 7.3 3.1 3 5.2 3.7 4.2 1.3-.3-.9 0-1.5.8-1.5s3.7-1.6 6.5-3.5c5.1-3.6 7.6-3.8 6.9-.6-.2.9.7 2.7 2 4.1 1.5 1.6 2.1 1.8 1.6.7-.3-1-.1-1.7.5-1.7s1.1-1.1 1.1-2.4c0-1.3.6-2.6 1.4-2.9 1.1-.5 1.7-3.2 3-14.2.1-.6-.1-2.7-.5-4.8-.3-2-.2-3.7.2-3.7.5 0 .9.6 1 1.2 0 .7.4.3.9-1 .5-1.2 1.6-2.2 2.4-2.2 2 0 2.6-4.6.8-6.4-.9-.9-1.2-2.1-.7-3.3.5-1 .7-2.6.6-3.6-.1-.9.2-1.7.7-1.7 1.5 0 5.3-8.7 4.6-10.5-.4-1.1.4-2 3-3 2-.9 3.4-2 3.1-2.6-.4-.6.3-.7 1.8-.4 1.9.5 2.9.1 4.1-1.6.9-1.3 1.6-2.6 1.6-3 0-.3-2-1.4-4.5-2.4-3.5-1.3-5-2.6-6.5-5.6-1.1-2.1-1.6-3.9-1.1-3.9.9 0 1-3.1.1-4-.3-.3-1-1.5-1.7-2.7-1.1-1.9-1-2.2 1-2.5 1.2-.2 3.9.2 6.1.9 3.4 1.1 4 1.1 5.1-.3 1.5-2.1 6.5-2.1 7.7 0 .5.9 1.5 1.6 2.2 1.6.8 0 1.9.7 2.6 1.5 1 1.2 1.6 1.3 2.4.5.8-.8.6-1.5-.8-2.6-1.7-1.2-1.8-1.4-.3-1.4.9 0 1.7-.8 1.7-1.8.1-2.8 3.5-6.6 5.1-5.6.8.5 2.8.9 4.5.9 2.6 0 3-.3 2.6-2.2-.3-1.6.6-3.4 3.2-6 2-2.1 3.6-4.4 3.6-5.3 0-.8 1.7.4 3.9 3 2.6 3 4.1 5.9 4.6 8.7.3 2.2 1.6 5.2 2.9 6.6 2 2.1 2.3 3.4 2 8.4-.1 3.8.3 6.6 1.2 8.1 1.2 1.9 1.3 2.6.3 3.8-1 1.2-.9 1.8.4 3.2 1.6 1.5 1.7 1.5 1.7-1 0-3.6 1-5.8 2.5-5.8 2.7 0 9.8-7.8 11.4-12.6 1.5-4.4 1.9-4.9 7-6.6 7.1-2.3 8.1-3.3 8.1-7.9 0-3.7.1-3.8 2.8-3.3 3.1.6 6.1-1.5 6.3-4.4 0-.9.2-3.1.4-4.8.4-2.6 0-3.3-2.2-4.3-2-.9-2.3-1.5-1.4-2 .8-.5 1.1-1.7.7-2.9-.5-1.4-.1-2.4 1-3 1.3-.7 1.4-1.3.4-3.1-1.3-2.5-.6-4.1 1.1-2.4 1.4 1.4 3.9-.5 3.2-2.4-.3-.7.2-1.6 1.1-1.9 1.5-.6 1.5-.8-.1-2.7-1.7-1.9-1.7-1.9.3-1.3 1.6.5 2.4.2 2.8-1.1.4-1 .2-1.9-.3-2.1-.6-.2-1.1-1-1.1-1.8s-1.4-2.1-3-2.8l-3.1-1.2 2.2-2.8c1.6-2 1.9-3.3 1.3-5.4-.4-1.5-.8-3.3-.9-4 0-.7-.6-1.6-1.3-2.1-.7-.4-1.4-3-1.6-5.7-.2-2.7-1.2-6.9-2.1-9.4-1-2.5-1.8-5.5-1.9-6.8 0-1.2-.4-2.2-.8-2.2-.3 0-.4-1.8-.1-4 .5-3.3.3-4-1.1-4-.9 0-2.3-1.5-3.2-3.3-1.7-3.5-7.9-8.1-10-7.3-.7.3-1.7-.1-2.3-.8-.8-.9-.2-1.7 1.9-3 1.7-.9 3-2.4 3-3.2 0-.9.9-1.4 2.8-1.3 1.5.1 4.3-.6 6.3-1.4 2-.9 3.9-1.4 4.1-1.1.3.2 1.7 0 3.1-.5 1.7-.7 2.8-.7 3.2-.1.4.6 1.6 1 2.9 1 1.2 0 2.7.5 3.2 1 .7.7 1.9.3 3.7-1.3 1.9-1.6 2.4-2.6 1.7-3.3-.8-.8-.2-1.5 1.9-2.4 1.7-.7 3.1-1.6 3.1-2.1s.7-.9 1.6-.9c1.3 0 1.4-.3.5-1.4-.9-1.1-.9-1.5 0-1.8 1-.3.7-2.1-1.1-6.9-1.2-3.5-2.8-6.9-3.5-7.4-.9-.8-.7-1.5.7-2.9 1.4-1.5 1.7-2.8 1.2-5.3-.5-2.9-.2-3.7 2.2-5.8 1.6-1.4 2.4-2.5 1.8-2.5-.7 0-1.5-1.6-1.8-3.5-.4-2-1.1-3.3-1.6-3-.4.3-1.8-.7-3-2.2-1.9-2.4-2.7-2.7-7.5-2.6-3 .1-5.7-.2-6-.6-.2-.4-2.6-.4-5.2 0s-7.4.8-10.6.8c-4 .1-5.9.5-6.3 1.5-.3.8-1.3 1.2-2.4.9-2.6-.7-6.9 2.5-8.8 6.6-1.1 2.2-2.5 3.7-3.8 3.9-1.2.2-3 1.2-4 2.3-1 1.1-3 1.9-4.9 1.9-1.8 0-4.7.5-6.5 1.2-2.8.9-3.5.9-4.6-.6-.7-1-1.7-1.5-2.2-1.2-1.7 1-8.7-1.7-11.9-4.7-2.7-2.5-3.7-2.9-6.7-2.4s-3.6.3-3.6-1.2c0-1-1.1-2.3-2.5-2.9-1.4-.6-2.5-1.9-2.5-2.8 0-2.5-3.1-7.1-5.7-8.5-1.4-.7-2.3-2.2-2.3-3.5 0-2.4-3.5-6.4-5.4-6.4-2.5.1-4.3 2.8-5 7.3-.4 2.7-1.4 5.1-2.2 5.4-1 .4-1.1 1-.4 2.3 1.4 2.7 1.4 2.8-2.9 4.9-3.1 1.6-4.5 1.8-7.2 1.1-1.9-.6-4.2-.7-5.1-.4-1 .3-1.8 0-1.8-.7 0-.9-.4-.8-1.5.1s-1.5.9-1.5.1c0-.7-.4-1-.9-.6-.5.3-1.2.1-1.6-.5-.3-.5-1.5-1-2.6-1-1.7 0-1.8.3-.8 2.1.9 1.8.7 2.3-1.3 3.7-1.2.9-2.6 1.6-3 1.4-.5-.1-.8.3-.8.9 0 1.2-5.8.3-7.7-1.3-.7-.5-2.2-.8-3.5-.7-1.3.2-3.3-.3-4.6-1-2.1-1.1-2.8-.9-6.3 1.4-3.2 2.3-3.7 3-2.8 4.6.5 1.1 1.5 1.9 2.2 1.9.7 0 1.3 1.8 1.5 4.5.3 4.4.2 4.5-2.2 3.6-1.3-.6-2.7-.7-3-.4-.3.4-.6-.8-.6-2.5 0-1.8.5-3.2 1.2-3.2 2.1 0-.6-2-3.4-2.5-1.4-.3-4.2-1.2-6.1-2-4-1.7-5.8-1.9-5.5-.8.1.5-.2 1.9-.6 3.2-.6 1.8-.4 2.6.9 3.3 1.5.9 1.5 1.2-.6 3.4-2.8 3-3.7 3-4.8.2-.6-1.6-.2-3.4 1.1-5.9l1.8-3.6-3.5-3.9c-3.9-4.2-4-5.3-.4-7.1 1.3-.7 1.8-1.3 1-1.3-1 0-1.1-.3-.2-1.4 1.2-1.5 2.8-1.6 4.8-.3.6.4 1.8.4 2.6.1 1.7-.6 2.9-4.1 1.8-4.9-.5-.2-.7-2.1-.6-4.2.2-2.1-.1-4.6-.6-5.6-.8-1.3-.6-1.7.7-1.7 1.2 0 .3-1.4-2.8-4.5-2.5-2.4-4.1-4.8-3.7-5.2.5-.5.5-2.8.1-5.3-.6-3.5-1.1-4.4-3-4.5-2.9-.2-3.9-1.3-4.8-4.9-.6-2.6-.5-2.8 1.7-2.1 2.2.7 2.3.7.9-1s-1.3-1.8.3-1.2c1.5.5 1.6.2 1.1-2.1-1-4.1-1.9-4.6-8.4-4.8-3.2 0-6.5-.6-7.3-1.2-.8-.7-1.7-.8-2.1-.4-1.4 1.3-7.1.8-8.3-.8-.6-.8-.9-2.5-.6-3.7.4-1.8-.1-2.5-2.1-3.3-2.2-.8-2.5-1.4-2-3.5.6-2.5-1.7-6.5-3.8-6.5-1.4 0-6.8-5.9-6.8-7.5 0-.7.5-1.7 1-2 .6-.4.7-1.3.1-2.4-.6-1-.7-2.8-.4-4.1.6-2.2.4-2.3-2.6-1.7-2.8.6-3.7.2-6.3-2.3-1.6-1.7-3.3-3-3.8-3-1.5 0-1.7 2.5-.3 3.9 1.8 1.7 1 2.5-1.6 1.6-1.6-.5-1.9-1.2-1.4-3.6.5-2.5.2-2.9-1.5-2.9-1.2 0-2.4.4-2.7 1-.3.5-2 1-3.6 1-2.3 0-3.2-.6-4-2.7-.8-2.1-1.2-2.4-1.9-1.4-.6 1.1-1.1 1-2.1-.7-.7-1.1-1.8-1.8-2.4-1.6-.6.3-2.2-.7-3.5-2.1-1.3-1.4-2.9-2.5-3.7-2.5-.7 0-2-1.6-2.8-3.6-1.1-2.6-1.9-3.4-3.1-3-4.1 1.6-10.4-4-10.4-9.3 0-1.9-4.3-7.1-5.9-7.1-.5 0-1.7-2.2-2.5-4.8-.9-2.6-2.5-5.5-3.6-6.5-1.1-.9-2-2.8-2-4.2 0-1.4-.7-4.2-1.5-6.2-1.8-4.3-1.8-4.3-.2-4.3.8 0 1.3-1.9 1.5-5.5.2-4.6-.1-5.9-2-7.9-5.2-5.3-5.6-10.2-1.1-13.1 1.9-1.3 2.3-2.2 1.9-4.1-.5-1.8-.2-2.4.9-2.4.9 0 1.9-.8 2.2-1.7.5-1.4.8-1.1 1.4 1.1.6 2 .4 3.3-.6 4.2-.7.8-1.7 2.3-2 3.4-.3 1.1-1.3 2-2 2-.8 0-1.2.6-.9 1.4.6 1.6 4.2 1 6.2-1.1 2.2-2.1 4.3-1.5 7.8 2.2s5.4 4.4 5.4 2c0-1.1.6-1.2 2.2-.6 2.2.8 3.8 3.1 2.1 3.1-1.5 0-1.3 6.1.2 6.7.8.3 1.5 1.1 1.5 1.8 0 2.3 1.9 2.7 5.1 1.1 1.7-.9 3.5-1.3 4-1 .5.3.9-.2.9-1.1 0-.8 1.2-2.1 2.8-2.8 1.5-.6 3.3-1.7 4-2.4 1.5-1.5.8-3.3-1.3-3.3-1.8 0-4.6-4-3.8-5.3.3-.6.6-2.6.7-4.5.1-2.5-.5-4-2.3-5.3-1.3-1-2.7-1.7-3.1-1.4-.4.2-2-.9-3.5-2.5-1.9-2-2.4-3-1.4-3 1.8 0 1.8-4.2 0-6.4-.7-.8-1-2-.7-2.5.4-.5.2-1.2-.4-1.6-.5-.3-1-1.5-1-2.6 0-1.3-.6-2-1.7-1.8-3.2.3-3.8-.1-5.6-3.4-1.5-2.8-2.3-3.3-4.3-2.9l-2.5.5 2.1 2.2c1.5 1.6 1.9 2.9 1.4 5.6-.8 4.8-3.3 9.9-4.7 9.8-2.1-.1-5.2-1.6-5.2-2.5-.1-.5-.7-2-1.4-3.3-1.1-1.9-1.8-2.2-4.3-1.7-1.7.3-3.6 1.3-4.3 2.3-.9 1.2-1.4 1.3-2 .3-.4-.7-.2-1.6.5-2 .6-.4 1.1-1 1.1-1.4-.1-.3-.1-2.2-.1-4.1 0-2.8.4-3.5 2-3.5 1.5 0 2-.7 2-2.8 0-1.6-.8-3.2-2-4-2.1-1.3-2.6-3.7-1-4.7.5-.3 2.6.1 4.6 1 4.3 1.8 4.4 1.8 4.4.5 0-.6-.9-1-1.9-1-2.1 0-6.1-4.4-6.1-6.8 0-.9-.7-1.3-2-.9-1 .3-2 .1-2.2-.3-.2-.4-1.4-1.1-2.8-1.5-2.2-.7-2.3-.6-1.1.9.7.9 1.1 2.5.8 3.6-.3 1.1-.1 1.8.4 1.5 1.3-.8 5.1 1.4 4.6 2.8-.2.7-3.5 1.2-8.4 1.4l-8 .3-.7-3c-.5-2.9-.7-3-2.8-1.8-1.3.6-3 1.2-3.8 1.3-.9 0-1.7 1.3-2 3.5-.5 3.4-.6 3.5-5.5 3.6-2.7.1-5.6-.3-6.2-.9-.7-.5-3.1-1.1-5.3-1.2-3-.3-4.7.2-6.8 1.9-1.5 1.3-4.4 2.9-6.6 3.6-3.7 1.2-3.9 1.1-6.5-1.6-2.6-2.9-2.7-3.1-3-5.9 0-.8-.7-1.5-1.4-1.5s-2.5-.6-4-1.3c-2.5-1.1-3.2-2.4-2.8-5.5.1-.7-.5-1.5-1.3-1.8-1.1-.4-1.4-2.1-1.4-6.7.2-6.4-1.7-14.9-3.1-14.4-.4.1-2-1.3-3.5-3.1-1.7-2-3.7-3.2-5.2-3.2-1.7 0-2.4-.6-2.4-1.8 0-1.1-.9-2.7-2-3.7s-2-2.6-2-3.6-1.3-2.7-2.8-3.8c-1.6-1.1-3.9-4-5.2-6.5-1.3-2.5-2.7-4.6-3.2-4.6-.4 0-.8-1.1-.8-2.3 0-2.7-3.9-7.7-5.9-7.7-.9 0-1.2-.8-.9-2.5.3-1.4.1-2.5-.3-2.5-.5 0-.9.5-.9 1.2 0 .6-.7 2-1.6 3-1.6 1.7-1.8 1.7-3 0-.9-1.2-.9-2.1-.2-2.9.8-1 .6-1.3-.4-1.3-.8 0-2-1.1-2.6-2.5-.6-1.4-1.8-2.5-2.6-2.5-.9 0-2-.9-2.6-2-.6-1.1-.7-2-.3-2 .4 0-1-1.6-3-3.5s-4.4-3.5-5.2-3.5c-.8 0-1.5-.7-1.5-1.5 0-2-3.6-9.1-5.1-10-.6-.4-1.3.2-1.6 1.3-.3 1.1-1.2 2.3-2 2.6-.8.3-1.2 1-.8 1.6.4.6-.6.7-2.6.3-2-.4-3.4-.2-3.9.7-.4.6-2.4 1.4-4.4 1.5-2.8.3-3.8 0-4.7-1.6-.8-1.6-1.3-1.8-2.5-.8-1.1.9-2.3.8-5.4-.6l-4-1.8-2.1 2.7c-1.2 1.5-3 2.6-4.5 2.6-1.3 0-2.4.6-2.4 1.3 0 .9-1.2 1.1-4 .9-2.3-.2-4.7.1-5.5.8-1.3 1-1.9.9-3.5-.5-1.1-1-2-2.3-2-2.9 0-.6-2.5-3.1-5.5-5.4-5.2-4.1-6.2-6.2-2.9-6.2.8 0 1.4-.8 1.4-1.8s.6-2.7 1.4-3.8c1.3-1.8 1.2-2.2-.6-3.3-1.8-1.1-2-1.1-1.5.3.3.8.1 1.8-.5 2.2-.7.4-.6.9.3 1.5 1.1.7 1.1.9-.2.9-2 0-3.3-5.1-1.6-6.3.8-.5.4-.7-.8-.5-1.4.2-1.9-.2-1.7-1.3.1-.8-.9-2.2-2.3-2.9l-2.5-1.3 2.3-1.1c1.6-.9 2.1-1.9 1.9-4.1-.5-6.5-.1-8.9 2-10.7 1.1-1 2.5-1.8 3-1.8.4 0 .8-.7.8-1.5s-.3-1.5-.8-1.5c-1.1 0-3.4-5.8-2.7-7 .3-.5 1.7-.7 3-.4 1.6.4 2.6 0 3.4-1.3 1-1.7 1.2-1.7 2.2 0 .5.9 1.4 1.5 2 1.2 1.8-1.1.9-4.5-2.1-7.9-2.3-2.6-2.7-3.5-1.6-3.9 1.2-.5 1.2-1.2-.4-4.5-1.7-3.5-4.8-7.1-5.7-6.5-.8.7-9.3.2-9.3-.5.1-2.2 1.8-3.4 3.6-2.4 1.4.7 2.6.6 4.4-.3 1.3-.7 2.9-1.1 3.5-.9.6.3 1.7-1.9 2.6-4.8 1.2-4.1 2.1-5.4 3.8-5.6 1.5-.3 2.4-1.3 2.8-3.3.4-2.3 1-2.8 2.4-2.4 1.3.4 1.9.1 1.9-.8 0-.8.7-2 1.6-2.8 1.1-.9 1.4-2.2 1-4.2-.5-2.3-.3-2.8.9-2.3.8.3 1.8-.2 2.3-1.1 1.1-1.9 3.3-.8 2.6 1.2-.3.8-.7 3.2-.7 5.2-.2 3-.6 3.8-2 3.6-1.2 0-1.7.4-1.3 1.3.4 1-.4 1.6-2.4 2.1-4 .7-4.6 1.9-1.5 2.6 1.4.2 2.8 0 3.1-.5.9-1.4 3.4 1.2 3.4 3.6 0 1.2.6 3 1.3 4 1.1 1.6 1.4 1.2 2.6-3.3.7-2.8 1.7-5.3 2.2-5.7.5-.3.9-1.6.9-3s.7-2.7 1.6-3.1c1.3-.5 1.2-.9-.7-2.9-1.2-1.3-1.7-2.4-1.1-2.4.7 0 1.2-.8 1.2-1.7 0-1.3.3-1.4 1.2-.5.9.9 1.6.2 3-2.9 2.2-4.9 2.2-5.3.4-4.6-1.7.7-3.6-1.1-3.6-3.4 0-.9-1.6-2.9-3.5-4.3-3.9-3-4.8-6.2-1.5-5.3 1.7.4 1.8.2.9-1.5-.6-1-.8-2.4-.6-3.1.5-1.4-1-4.7-2.1-4.6-.4 0-1.3.3-2 .6zm-28.4 80.5c.7.7 1.2 2 1.2 3 0 2.6-2.7 1.1-3.3-1.8-.5-2.6.2-3.1 2.1-1.2zm-25.1 15.4c.7 1 1.3 1.4 1.3 1 0-.4.5-.4 1.2 0 .7.5.4 1-1.1 1.6-1.3.5-1.9 1.2-1.5 1.9.5.9 0 1-1.4.7-1.2-.4-2.2-.2-2.2.4 0 .5-.5.8-1.2.6-.6-.2-2 .4-3 1.4-1 1-2.3 1.6-2.8 1.3-.4-.3-1-.1-1.2.4-.1.4-1.4 1.2-2.7 1.6-2 .6-2.3.4-1.8-.9.5-1.3-.1-1.6-3.3-1.6-2.4 0-4 .5-4 1.2 0 1.2-1.5.2-1.5-1 0-.4-.4-1.3-.9-2-1.3-2.1.8-3.6 3.3-2.2 3.6 1.9 9 .2 10.7-3.4 1.4-2.8 1.9-3.1 6.1-3 3.2.1 5 .7 6 2zm28.3 24c0 1.7-2.2 1.4-2.8-.4-.2-.7.3-1.2 1.2-1.2.9 0 1.6.7 1.6 1.6zm-80 2.4c0 .5-.4 1-.9 1-.6 0-1.3-.5-1.6-1-.3-.6.1-1 .9-1 .9 0 1.6.4 1.6 1zm76 7c0 .5-.4 1-1 1-.5 0-1-.5-1-1 0-.6.5-1 1-1 .6 0 1 .4 1 1zm293 244c0 .5-.4 1-1 1-.5 0-1-.5-1-1 0-.6.5-1 1-1 .6 0 1 .4 1 1zm40.7 37.2c-.3.8-.6.5-.6-.6-.1-1.1.2-1.7.5-1.3.3.3.4 1.2.1 1.9zm4.5 74.6c2.1 2.1.2 2.3-2.3.3-1.9-1.6-2-1.9-.6-1.7.9.1 2.2.7 2.9 1.4zm-322.2 60.4c0 2-1.8.5-2.3-1.9-.5-2.6-.4-2.6.9-.8.8 1 1.4 2.2 1.4 2.7z"/><path d="M298.676 68.896c0 .5-.7 1-1.5 1s-1.5.4-1.5.9c0 1-5.3 3.1-7.7 3.1-.8 0-1.1-.5-.8-1 .3-.6-.1-1-.9-1-.9 0-1.6.7-1.6 1.5 0 .9-.6 1.2-1.5.9-1.4-.6-1.6-.2-1.9 4.6-.1.8-1 1.6-2.1 1.8-1.1.2-2.8 1.3-3.8 2.3-1.3 1.4-2.5 1.7-4.8 1.2-2.4-.4-3.4-.2-4.1 1-.5 1-1.6 1.7-2.5 1.7-.9 0-2.5.8-3.6 1.7-1.8 1.7-1.9 1.7-3.2 0-1.1-1.5-1.4-1.5-2.5-.2-.8.9-2.9 1.5-5.7 1.5-3.9 0-4.4.2-4.2 2.2.4 4.4-.1 5.7-2.3 6-1.6.2-2.2 1-2.3 3.1-.1 3.1 2.2 5.8 3.3 4 1.4-2 5.4-3.4 8.2-2.8 1.6.3 3.1.2 3.5-.4.7-1.2 4.5.6 5.8 2.7.7 1 1.5.6 3.3-1.5 1.3-1.5 2.4-3.4 2.4-4.1 0-1.3 2.8-1.6 5.4-.6.9.3 1.6 1.3 1.6 2.1 0 1.3.3 1.3 2.4-.1 1.9-1.2 2.7-1.3 3.3-.3.5.8 1 .2 1.3-1.8.4-2.2 1-2.9 2.4-2.7 1 .2 2.5 0 3.5-.4 2.8-1.2 4.4-1.3 6.2-.3 1.1.5 2 .5 2.4 0 .3-.6 1.7-.6 3.3-.1 2.8.7 3.6 1.1 9.8 4.3 3.1 1.6 3.2 1.6 4.8-.9 1.7-2.4 1.6-2.6-1.3-5.9-2.3-2.7-3.2-3.1-3.8-2.1-.4.7-2.3 1.7-4.2 2.1-3.4.7-3.4.7-1.7-1 1.7-1.8 1.7-1.9-.5-3.6-2.1-1.6-2.3-2.1-1.3-4.6 1.2-3.2.6-15.3-.7-15.3-.5 0-.9.4-.9 1zM241.676 118.396c0 .8.4 1.5 1 1.5.5 0 .7-.7.4-1.5-.4-.8-.8-1.5-1-1.5-.2 0-.4.7-.4 1.5zM245.276 120.296c-.7 2.6 2.4 10.6 4.2 10.6.7 0 1.5.6 1.8 1.3.3.8 1.8 1.4 3.4 1.4 2.8 0 2.9-.1 1.4-1.8-.9-1-1.3-2.3-.9-2.8.3-.7-.2-1.1-1.4-1.1-3.6 0-5.1-1.2-5.1-4 0-1.8.6-3 1.6-3.2 1-.2.5-.7-1.4-1.4-2.7-1-3.1-1-3.6 1zM138.676 145.896c0 .5.9 1.4 2 2 1.1.6 2 .7 2 .3 0-.5-.9-1.4-2-2.1-1.1-.7-2-.8-2-.2zM234.276 159.796c-2.2 2.4-.1 4.7 2.5 2.7 1.4-1 1.5-1.5.4-2.9-1.1-1.6-1.3-1.6-2.9.2zM138.576 167.596c-1.5.2-3 1.2-3.3 2.1-.3.9-.8 2.2-1.1 2.8-.3.6.4 1.4 1.6 1.7 1.1.3 1.8 1 1.5 1.6-.8 1.2 0 1.7 4.6 2.5l3.7.7-1-3.6c-.6-1.9-.7-4-.4-4.6.7-1-1.2-4-2.4-3.8-.3.1-1.8.4-3.2.6zM152.876 168.996c.2.7 1 1.5 1.7 1.7.8.3 1.2-.1.9-.9-.2-.7-1-1.5-1.7-1.7-.8-.3-1.2.1-.9.9zM130.476 176.096c-1.6.5-2.8 1.6-2.8 2.4 0 .8-.8 1.4-1.7 1.4-2.1 0-.6 1.5 2.5 2.5 1.6.5 2.2.2 2.2-.9 0-.8.9-2 2-2.6 1.1-.6 2-1.7 2-2.5 0-1.7-.4-1.7-4.2-.3zM451.276 220.496c-.4 1-1.2 1.4-2.2 1-1-.4-2.2.1-2.9 1-.9 1.4-1.6 1.4-3.3.5-2.9-1.6-3.1.9-.2 2.7 1.1.7 2 2 2 3 0 .9.4 2.3.9 3.1.7 1.1 1.3.9 3-.8 1.1-1.1 2.1-3.1 2.1-4.2 0-1.2.9-2.9 2-3.9 1.7-1.5 1.8-1.9.6-2.9-1.1-.9-1.5-.8-2 .5zM399.176 225.996c-1.1 1.7-.2 1.8 1.9.3 1.7-1.2 1.7-1.4.4-1.4-.9 0-2 .5-2.3 1.1zM407.176 227.996c.8 3.7 3.7 6.3 7 6.3 6.7-.2 14.5-1.7 14.5-2.9 0-2.5-2.2-2.7-5.2-.5-4 3-8.7 2.1-13.4-2.7l-3.6-3.6.7 3.4zM432.376 226.896c-.4 1.7 0 2 2.8 2 1.9 0 3.6-.4 4-.9.6-1.1-.1-1.6-3.6-2.5-2.1-.5-2.8-.2-3.2 1.4zM396.676 228.896c0 .5.5 1 1.1 1 .5 0 .7-.5.4-1-.3-.6-.8-1-1.1-1-.2 0-.4.4-.4 1zM406.676 234.996c0 .4.5 1.1 1 1.4.6.3 1 2.4 1 4.6 0 3.7-.2 4-2.1 3.4-1.7-.6-2-.4-1.3.6 1.6 2.5.2 6.3-3.4 9.6-2 1.8-3.1 3.3-2.5 3.3.7 0 1.4-.4 1.8-1 .8-1.2 5.2.7 8.6 3.8 2.3 2.1 3.1 2.2 6.2 1.4 2-.6 3.7-.8 4-.6.2.2 1.4-.7 2.7-2.1 1.3-1.4 2.8-2.5 3.4-2.5.6 0 1.7-.9 2.4-2.1 1.3-2 1.4-2 2.7-.2 1.4 1.7 1.4 1.7 1.5-.3 0-2.8-1.6-4.5-8-8.4-3-1.9-5.9-4-6.3-4.7-.4-.7-1.3-1.3-1.8-1.3-.6 0-2.3-1.3-3.9-2.8-2.6-2.7-6-3.8-6-2.1zM.676 246.896c-1.4.9-1 1.2 4.3 3.3l3.7 1.6-1.7-2.4c-2-2.6-4.5-3.6-6.3-2.5zM12.676 251.796c1.7.5 2.5 1.5 2.7 3.1 0 1.4.1 3.1.2 3.7.1.7.6 1.3 1.2 1.3 1.3 0 4.8 4.1 4.9 5.6 0 .6.7 1.7 1.5 2.4 1.3 1 1.9 1 3.5-.5 1.2-1.1 1.7-2.2 1.1-2.9-.4-.6-1.1-2.3-1.4-3.7-1-4-8.8-9.9-12.9-9.8-3 .1-3.1.2-.8.8zM457.976 268.896c1.4 1.1 2.8 2 3.1 2 .3 0 .6-.9.6-2 0-1.6-.7-2-3.1-2h-3.2l2.6 2zM128.376 269.396c-.9.6-1.7 1.7-1.7 2.4 0 .6-.4 1.1-1 1.1-.5 0-1.2 1.1-1.6 2.5-.3 1.4-1.2 2.5-2 2.5s-1.4.7-1.4 1.5c0 .9-.7 1.8-1.5 2.1-1 .4-1.3 1.3-1 2.5.4 1.3.1 1.9-.8 1.9-2.5 0-2.5 2.4 0 4.3 1.3 1 2.3 2.9 2.3 4.2 0 3.8 1.5 3.7 3.4-.2.9-1.9 2-3.3 2.3-2.9.3.3 1.2-.6 2-2 1-2 1-3 .2-4-.9-1.1-.6-2 1.5-3.9 1.4-1.3 2.6-2.9 2.6-3.5 0-.5.8-1 1.9-1 2.6 0 3.5-4 1.3-5.7-3.6-2.8-4.7-3.1-6.5-1.8zm2.3.9c0 .3-.4.8-1 1.1-.5.3-1 .1-1-.4 0-.6.5-1.1 1-1.1.6 0 1 .2 1 .4zM453.376 269.896c.3 1.1.7 2 .9 2 .2 0 .4-.9.4-2s-.4-2-.9-2-.7.9-.4 2zM64.476 270.596c-4.3.2-7.8.8-7.8 1.3s-.7 1.6-1.6 2.4c-1.2 1.3-2 1.4-3.6.5-1.1-.6-3.1-.9-4.4-.6-1.8.3-2.8-.2-3.5-1.6-1.1-1.9-1.2-1.8-3.1 1.2-1.1 1.7-2.4 3.1-2.9 3.1s-1.7.8-2.8 1.9c-1.5 1.5-1.7 2.6-1 7.6.4 3.3 1.6 6.6 2.7 7.9 3 3.4 3.8 5 2 4.3-2.3-.8-3.4 4-1.3 6.2.8 1 1.5 2.5 1.5 3.4 0 .9.6 1.7 1.3 1.7 3.3.1 4 1.6 2.2 5.3-1.9 4-1.4 5.7 1.6 5.7 1 0 1.8.3 1.7.7-.2.5.5 2.9 1.6 5.6 1.2 3.2 2.7 5.2 4.7 6.2 2.2 1.2 2.9 2.2 2.9 4.6 0 1.7-.4 2.8-1 2.4-1.4-.9-6 3.7-5.6 5.7.1 1 1.3 2.9 2.5 4.2 1.6 1.7 2.2 3.2 1.8 4.7-.8 3.2.9 5.9 3.8 5.9 1.4 0 2.5-.5 2.5-1 0-.6 1.1-1 2.5-1 1.6 0 2.5.6 2.5 1.5 0 .8.6 1.5 1.4 1.5 2.8 0 4.6-1.2 4.6-3.2 0-1.5.5-1.8 1.6-1.4 1.6.6 5.9-2.1 9.8-6 1.8-1.8 2.1-6.6.6-9.5-.8-1.5-.7-1.9.4-1.9 1.6 0 2.9-4.1 2-6.3-.3-1 .5-1.8 2.6-2.6 1.7-.6 2.9-1.5 2.6-2-1.2-1.8 1.4-2.2 7.6-1.1 6.2 1.2 6.3 1.1 8.4-1.5 1.2-1.5 3-2.6 4-2.5 4.5.5 7.4-.1 7.4-1.4 0-.8-.4-1.6-.9-1.8-.4-.2-1.2-1.3-1.5-2.6-.5-1.5-.3-2.4.8-2.8.9-.3 1.6-1.7 1.6-3.1 0-1.7.4-2.3 1.4-2 1.8.7 2.9-3.2 1.4-5-.7-.9-.7-1.3.1-1.3.6 0 1.1-.5 1.1-1.1 0-.8-.4-.8-1.5.1-1.2 1-1.8.9-3.1-.4-1.5-1.6-1.8-1.6-3.6.1-1.5 1.3-3.6 1.8-7.7 1.8-4.8 0-5.7.3-6.6 2.2-1.5 3.5-2 2.8-2.3-2.8-.2-4 .1-5 1.2-4.6 2.1.8 3.7-3.5 2-5.8-.8-1-1.2-3.6-1.1-5.9.4-4.7-1.9-9.6-4.5-9.6-1 0-2.7.9-3.8 2-1.1 1.1-2 1.5-2 .9 0-1.4-4.1-4.8-6-4.9-.8 0-3.1-1.4-5-3-1.9-1.7-3.7-2.9-4-2.8-.3.1-4 .4-8.2.5zM137.676 271.996c0 1 2.7 1.9 3.4 1.2 1.1-1.2.6-1.9-1.4-1.9-1.1 0-2 .3-2 .7zM29.776 273.496c0 1.1.3 1.4.6.6.3-.7.2-1.6-.1-1.9-.3-.4-.6.2-.5 1.3zM29.376 278.896c.6 2.3-1.5 2.8-3.5.8-.8-.8-1.2-.8-1.2-.1 0 1 2.2 2.3 3.8 2.3 1.8-.1 3.2-1.8 2.6-3.3-.9-2.4-2.3-2.1-1.7.3zM125.776 295.796c-1.2.8-1.3 1.4-.3 3.5.6 1.4 1.7 2.6 2.3 2.6.9 0 .9.3 0 1.4-.9 1-.8 1.5.3 1.9.9.4 1.7-.2 2.1-1.4.4-1 1.1-1.9 1.6-1.9 1.5 0 1.1-1.5-1-3.7-1.1-1.2-1.7-2.4-1.4-2.7 1-.9-2-.7-3.6.3zM483.276 299.396c-.3.8-.1 1.5.4 1.5.6 0 1-.7 1-1.5s-.2-1.5-.4-1.5-.6.7-1 1.5zM135.676 299.896c0 .5.5 1 1.1 1 .5 0 .7-.5.4-1-.3-.6-.8-1-1.1-1-.2 0-.4.4-.4 1zM128.176 308.896c.3.5.8 1 1.1 1 .2 0 .4-.5.4-1 0-.6-.5-1-1.1-1-.5 0-.7.4-.4 1zM616.076 383.496c.4 1.1.1 1.4-1.3.9-2.9-.9-3.5 3.3-1 6.8 1.6 2.2 1.8 3.1.9 4.3-.7.8-.9 1.4-.5 1.4s.2.6-.4 1.3c-.8 1-.7 1.8.3 3.2 1.2 1.7 4.2 1.3 3.1-.5-.3-.5.8-.5 2.5 0 3.5 1 3.9.1 1-2.5-1.4-1.2-1.7-2.2-1-3 .6-.7.6-2.5.1-4.6-.5-1.9-1.2-4.6-1.5-6.2-.4-1.5-1.1-2.7-1.7-2.7-.6 0-.8.7-.5 1.6zM605.876 398.896c-.7 1.1-1.9 2-2.6 2-2.2 0-7.6 3.4-7.6 4.7 0 .7-1.1 1.3-2.5 1.3-1.6 0-2.5.6-2.5 1.6 0 1.1-.5 1.4-1.6 1-.9-.3-1.8-.6-2-.6-.2 0-.4-.6-.4-1.4 0-1.6-3.5-4-7.2-5-4.4-1-10.9.4-10.6 2.3.2 1.2-.6 1.7-3.4 1.9-3.2.3-3.7 0-4-2-.2-1.6-.9-2.2-2.1-2-1 .2-2.9-.4-4.3-1.3-2.1-1.4-2.4-1.4-2.4 0 0 .9-.9 1.5-2.4 1.5-1.8 0-2.9 1.1-4.9 5.2-2.9 5.9-2.2 8 1.7 5.2 2.7-2 3.3-3.9 1.6-4.9-.5-.3-1-1.1-1-1.7 0-.7.6-.6 1.5.2 1.2 1 1.5 1 1.5-.4 0-2.1 4.9-2.2 5.5-.1.3.8.8 2.3 1.2 3.2.3 1 .7 2 .8 2.3 1.2 3.4 2.7 6 3.9 6.7 1.3.7 1.3 1.2-.2 4.3-.9 1.9-2.2 4.1-2.9 4.8-1.7 1.8-.5 4.2 2.1 4.2 1.5 0 2.7.9 3.5 2.6 1 2.3.9 2.5-.8 1.9-2.6-.8-4.1 3.4-1.7 4.7.9.5 1.7 1.9 1.7 3.1.1 1.6.3 1.7.6.5.3-1.3 4.9-3.8 6.9-3.8.1 0 .4 1.5.6 3.2.2 2.4.8 3.3 2.1 3.3 1 0 2.2.7 2.7 1.5s1 1.1 1 .5c0-.5.7.1 1.6 1.4 1.1 1.5 1.4 3.4 1.1 5.6-.4 2.4-.1 3.8 1.1 4.7 1.3 1.1 1.5 1.1.9-.5-.9-2.4 1.7-2.2 3.4.3 1.3 1.8 1.8 1.9 5.8.8 3.4-.9 4.6-.9 4.9 0 .5 1.7 3.2 1.5 3.2-.3 0-.8-.4-1.5-.9-1.5-.8 0-1.8-2-2.7-5.5-.2-.6-.6-2-1-3.3-.5-1.6-.2-2.2 1-2.2 1 0 1.3-.6 1-1.5-.4-.9.8-3.1 3-5.5 2-2.2 3.6-4.6 3.6-5.3 0-1.9 4.3-5.2 6.4-4.8 1.6.2 1.8-.2 1.2-2.5-.7-2.6-3.1-5.3-4.9-5.4-.5 0-.5-.9-.2-2.1.6-1.8.4-2-1.3-1.5-2.5.8-3.5-1.6-2.4-5.9.7-2.4 1.4-3.1 4-3.3 1.8-.2 3.2-.7 3.2-1.2 0-1.1 4.3 0 5.2 1.4.5.7.8.5.8-.5 0-2-3.5-5.3-4.9-4.5-1.4.9-2.5-3.3-1.2-4.8.8-1 .6-1.7-.7-2.9-1.6-1.5-1.9-1.5-3 .3zm-21.2 12.2c0 .5.8.8 1.8.8s2.8.9 4 2c2.3 2.2 2.9 5 1.1 5-.6 0-.8.8-.5 1.8.5 1.4.1 1.8-1.6 1.7-3.7-.1-8.7-3.6-9.3-6.7-.4-1.5-1.1-3-1.6-3.3-2-1.3-.7-2.3 2.6-2.2 1.9.1 3.5.5 3.5.9zM663.876 459.096c-.7.7-1.2 1.9-1.2 2.8 0 .9-.6 2.2-1.2 2.8-1 1-1 1.4 0 2.1.7.4 1 1.5.6 2.6-.5 1.3-.3 1.6.7 1.3.8-.3 1.3-1.2 1.3-2.1-.1-.9.2-1.5.6-1.2 1.6 1 3.8-3 3.3-6.3s-2-4.1-4.1-2zM651.776 467.496c1 1.3 1 1.7 0 2.4-1.6.9-.6 3 1.5 3 .8 0 1.3-.4.9-.9-.3-.5-.1-1.2.5-1.6.5-.3 1-1.5 1-2.6 0-1.4-.7-1.9-2.6-1.9-2.3 0-2.5.2-1.3 1.6zM635.376 469.296c-.6 1.5 2.6 5 3.6 4 .3-.3 1.2-.2 1.9.2 2 1.3 4 1.4 5.7.4 1.2-.7 1-.9-1.2-1-1.6 0-3.7-.5-4.8-1-1.4-.8-1.9-.7-1.9.1 0 .8-.4.8-1.5-.1-1.2-1-1.3-1.5-.4-2 .7-.5.8-1 .1-1.4-.5-.3-1.2 0-1.5.8zM201.676 548.496c0 .8.5 1.2 1 .9.6-.4.8-1.1.5-1.6-.9-1.4-1.5-1.1-1.5.7zM198.676 551.896c-1.3.8-1.2 1 .3 1 .9 0 1.7-.5 1.7-1 0-1.2-.1-1.2-2 0zM763.176 551.796c-.4.8.5 2.3 2.6 4.1 3.6 3 5.4 3.2 2.5.2-.9-.9-2.3-2.6-3-3.6-1-1.4-1.5-1.6-2.1-.7zM790.076 553.996c-.3.6-1.2.8-1.9.6-.6-.3-1.9.3-2.8 1.4-.9 1-2.3 1.9-3.1 1.9-.8 0-1.7.7-2 1.6-.7 1.8 1 4.4 2.8 4.4.7 0 2.2 1.3 3.4 3 1.3 1.6 3 3 4 3 3 0 6.4 3 5.9 5.1-.6 2.3 2.5 4.3 5.4 3.6 1-.3 2.6.1 3.6.9 1.7 1.3 1.7 1.5 0 2.8-1.5 1.1-1.5 1.5-.3 2.5.8.6 1.2 2 .9 3-.6 2.4 2.2 4.7 4 3.2.8-.6 1.7-.8 2-.4 1 1 3.7-1.8 3.7-3.9 0-1 .5-1.6 1-1.3.6.3 1 .1 1-.6s.3-.9.7-.6c1.1 1.1 3.3-1.4 3.3-3.8 0-1.4-.7-2.5-1.9-2.8-1-.2-2.6-1.9-3.5-3.7-1.8-3.6-2.2-8.5-.6-7.5s1.1-.5-1.1-3.3c-1.1-1.5-2.6-2.7-3.2-2.7-.7 0-1.1-.9-1.1-1.8.2-1.3-.4-1.7-2-1.5-1.2.1-3.6-.6-5.2-1.6-3.2-2.2-11.9-3.2-13-1.5zM193.576 555.396c1.7 3.4 3.1 5.1 3.1 3.9 0-.7-.9-2.2-2.1-3.5-1.6-1.9-1.8-2-1-.4zM811.676 556.696c0 .7.4 1.1.9.7.6-.3 1.5.4 2.1 1.6 1.3 2.4 2.2 1.9 2.6-1.6.2-2.1-.1-2.4-2.7-2.2-1.6.1-2.9.8-2.9 1.5zM705.676 701.696c0 3.9-.1 4.1-2.2 3.3-1.3-.5-2.3-1.6-2.3-2.6s-.6-2-1.4-2.3c-1-.3-1.2.1-.8 1.7.3 1.2 0 2.1-.6 2.1s-.7.3-.4.7c1 .9-1.3 3.3-3.2 3.3-.9 0-2.8.6-4.2 1.4-1.5.7-5 2.1-7.9 3.1-4.9 1.6-5.1 1.8-3.4 3.6 1.4 1.6 1.5 2 .1 3.3-.8.8-1.7 1.2-2.1.9-.3-.4-.6.1-.6 1 0 2.2 2.5 1.2 4.5-1.9 1-1.5 2.3-2.3 3.8-2.1 1.7.2 2.2-.3 2-2.1-.4-2.9.8-2.8 3.9.5 3.1 3.4 4.2 7.4 2.5 9.6-.9 1.3-2 1.5-4.8.8-2.5-.6-4.1-.4-5.4.5-1.7 1.3-1.7 1.5.3 5.4 1.1 2.2 1.6 4.3 1.1 4.6-.5.3-.6 1.7-.3 3.1.6 2.3.5 2.4-1.4 1.4-3.2-1.7-3.7 2.5-.6 6.1 2.7 3.3 3.1 5.8.9 5.8-2 0-1.9 3 .1 5.8.9 1.3 1.4 3.8 1.3 6-.3 5 .7 7.7 3.6 9.6 1.4.9 2.5 2.3 2.5 3 0 .9 1 1.3 3.1 1.2 1.7-.1 3.3.3 3.5.9.6 1.3 6.6 1.6 7.5.3 1.1-1.7 4.8 5.1 6.1 11.2 1.1 5.3 1 6.4-.2 7.4-1.9 1.4-1.9 5.4 0 6.6 1.2.7 1.2 1.2.3 2.1-1.7 1.7 1.1 4.9 4.2 4.9 1.3 0 2.6.7 2.9 1.6.9 2.5.7 6.4-.4 6.4-.5 0-1-.6-1-1.4 0-1.9-.7-2.3-5.1-3.1-3.2-.6-3.7-.4-4.2 1.6-.3 1.3-.1 2.9.4 3.6.8.9.5 1.5-1.5 2.4-1.4.7-2.6 1.7-2.6 2.2 0 .5-.9.7-1.9.4-1-.2-2.5-.1-3.2.4-.7.4-2.2.2-3.3-.4-1.2-.6-2.5-1-3-.9-.5.2-2.1-.8-3.5-2.2l-2.7-2.6-3.2 3c-1.8 1.6-3.6 2.9-4 2.8-.4-.1-1.5.2-2.6.7-2.1.9-4.1-1.5-4.1-5 0-1.5-.6-1.9-2.1-1.7-2.3.3-5.9-4.1-5.1-6.2.8-1.9-.5-3.4-3.7-4.2-2.6-.6-2.8-.5-2.2 1.2.9 2.2.9 2.2.7 5.1 0 1.2-.8 2.8-1.6 3.7-1.4 1.3-1.3 1.6.7 3 1.2.9 3.3 1.6 4.6 1.6 1.6 0 2.1.4 1.5 1.2-.4.7-.8 2-.8 2.8 0 1.1-1.2 1.5-4.7 1.5-3.8 0-5.3.6-7.7 2.7-1.6 1.6-3.4 2.8-4 2.8-.6 0-1.1.5-1.1 1 0 .6-1.1.3-2.5-.6-1.4-.9-2.5-1.3-2.5-.9s-.7.2-1.5-.5c-1.3-1-1.9-1-3.4.4s-2.4 1.5-4 .6c-1.7-.9-2.1-.8-2.1.5 0 .8-.6 1.5-1.4 1.5-.8 0-1.7.7-2 1.5-.5 1.3-1 1.4-2.8.4-1.7-.9-2.4-.9-3.2.3-1.8 2.4-7.8 3.1-10.4 1.2-1.8-1.2-2.6-1.3-3.7-.4-.9.7-2.6.9-4.1.6-1.7-.5-2.3-.3-1.9.4.3.5 2.7.9 5.2.8 2.9-.1 5 .4 5.7 1.3.6.8 1.8 1.5 2.6 1.7.8.2 2.3 1.2 3.3 2.3 2 2.1 4.7 2.5 6.4.8.8-.8 1.6-.3 2.7 2 .9 1.7 2.1 3.1 2.6 3.1.6 0 1 .9 1 1.9 0 2.5 3.2 8.1 4.5 8 1.7-.1 5.1-1.8 3.8-1.8-1.5-.1-1.7-3.7-.3-4.6.6-.4 2.5.5 4.2 2 2.1 1.8 3.3 2.3 3.8 1.5 1.2-2 4.5-.7 4.3 1.7-.1 1.1.7 2.9 1.7 3.8 1.7 1.6 2.6 1.7 5.7.7 3.4-1 3.8-.9 7.7 2.4 2.5 2.2 4.6 3.2 5.6 2.8.8-.4 2.5-.9 3.8-1.1 2.1-.5 3.2-3.3 1.2-3.3-.5 0-1-.4-1-.8 0-.5 2.4-.8 5.3-.7 4.4.1 5.8-.3 9-2.8 2.1-1.6 4.4-4.2 5.3-5.8.8-1.6 2.1-2.9 3-2.9 3.3 0 9.2-4 10.2-7 1.3-3.5 2-3.6 7.1-1.1 4.5 2.4 6.5 4.6 5.6 6.3-.4.7.8-.4 2.5-2.5 2.3-2.6 4-3.7 6-3.7 4.3 0 6 1 6 3.6 0 2.3.2 2.4 6.3 1.7 3.4-.3 6.9-1 7.8-1.4 1.4-.7 1.8-.2 2.3 2.6.7 3.5-.6 7.5-2.4 7.5-1.7 0-1.1 2.6 1 4.5 1.1 1 2 2.3 2 3 0 2.3 3.8 4.8 6.4 4.1 2.1-.5 2.6-.2 3 1.6.8 3.6.3 14.8-.6 14.8-.4 0-.8.7-.8 1.5s-.7 1.5-1.5 1.5-1.5-.5-1.5-1c0-.6-1.4-1-3.2-1-3 0-3 .1-1.4 1.9 1.1 1.2 1.4 2.1.7 2.6-.6.3-1.1 1.1-1.1 1.6 0 .6.5.7 1.1.4.5-.4 1.8 0 2.7.8.9.8 2.8 1.8 4.1 2.2 2.2.7 2.3.5 1.9-2.5-.4-3-.3-3.1 2.1-2.4 1.4.4 3.4.8 4.4.9 1 .1 3 1.4 4.5 2.9 2.3 2.4 2.5 2.9 1.2 3.9-2.1 1.7-1.4 5.7 1.1 5.7 1.7 0 1.8-.3.9-2.1-1-1.8-.9-1.9.7-1.1 1 .6 3.1 2.4 4.6 4 1.9 2 3.5 2.8 4.8 2.5 2.2-.6 2.5-1.9.7-2.6-1-.4-1-.6-.1-.6.7-.1.3-1.7-1.2-4.4-3.1-5.3-3.1-6.7-.2-6.4 2 .2 2.2-.2 2.2-5.5 0-3.1.2-5.5.4-5.2 1 .9 4.1-3.1 4.1-5.3 0-2.4 1.5-3.1 2.3-1.1.3.7.3-.1 0-1.9-.8-4.7.4-8.2 3.3-9.5 2.3-1.1 2.5-1.7 2.1-5-.3-2.5 0-4.1.9-4.9.8-.7 1.3-1.8 1-2.6-.3-.7 0-2.6.6-4.1 2.3-5.5 1.3-8.7-1.9-6-1 .8-1.8.9-2 .3-2.1-6.3-6.4-8.8-15.5-9.4-2.2-.1-2.4-3.1-.3-3.1.9 0 2.4-1.3 3.3-3 .9-1.6 2.1-3 2.5-3 1.6 0 8.7-8.2 8.7-10 0-1.8.6-2 10.5-3.6 2.2-.3 5-1.5 6.1-2.6 2-1.8 2.4-1.8 5.2-.4 2.5 1.3 3.2 1.3 4.8.1 1.1-.8 3.3-1.5 5-1.5 3.8 0 8.4-3.4 8.4-6.2 0-1.7.4-2 3-1.4 4.2.8 7.1-.8 10.5-5.9 2.6-3.9 3.5-4.5 6.6-4.5 2 0 4.2.7 4.9 1.5.9 1.1 3.3 1.4 9.2 1.4 7.1-.1 8.1-.3 8.5-2 .4-1.5 1-1.8 2.7-1.2 1.1.4 3.7.8 5.6.8 2.6 0 3.7.6 4.5 2.3.5 1.2 1.4 2.2 1.9 2.2s1.4.7 2.1 1.6c.9 1.4 1.6 1.4 3.3.5 2.4-1.3 2.9-4 1.1-5.8-.8-.8-.6-1.8.6-3.6 1.6-2.6 1.6-2.6-1.7-2.9-2.6-.2-3.4-.8-3.8-2.8-.7-3.6-3.2-6.7-6.5-8.1-6.5-2.8-11.3-11-10.1-17 .6-3.2.5-3.2-4.7.4-2 1.4-3.2 1.6-3.9.9-.8-.8-1.7-.8-3-.1-1.1.6-3.9 1.1-6.4 1.2-3.8.2-4.6.6-6.1 3.4-1.7 3.3-4.2 4.4-4.4 2 0-.6-.4-.2-.9 1-.5 1.3-1.6 2.3-2.5 2.3-1.1 0-1.4.6-.9 2.4.6 2.5-1 4.4-2.1 2.6-.4-.6-2.1.5-3.9 2.5-1.8 1.9-4.3 3.5-5.4 3.5-1.5 0-2.3.8-2.8 2.7-1 4.9-1.3 5.3-3.9 5.3-4.5 0-10.5 3.5-23.1 13.5-1.8 1.4-3.9 2.5-4.8 2.5-1.1 0-1.6.9-1.6 3.3 0 3.2-.3 3.4-5 4.7-2.9.8-5 1.9-5 2.7 0 2.1-6.8 4.7-8.6 3.2-1.9-1.5-1.8-2.5.5-4.8 1.9-1.9 1.9-2-1.2-5.1-1.7-1.7-3.6-4.2-4.3-5.5-1.1-2.2-1-2.6 1.1-4.2l2.3-1.8-2.4-4.9c-2.7-5.6-2.8-6-1.3-5.1.6.4.5-.3-.3-1.4-1.3-2.2-1.3-2.2-1.6-.1-.2 1.1-.7 2-1.2 2-.4 0-1 .9-1.3 2-.3 1.1-1.9 2.5-3.6 3.1-3.9 1.4-7.1 6.6-4.6 7.5.8.3 1.3 1 1 1.5-.3.4.4 1.3 1.5 1.9 1.5.8 2 2 1.9 4.3-.2 3.3-2 8.7-2.9 8.7-1.2 0-3-5.4-2-6 .7-.4.6-1.6-.4-3.4-1.3-2.5-1.5-2.6-3-1.1-2 2.1-2 3.4 0 5.6 1.5 1.7 1.5 1.9 0 3.4-.9 1-1.6 3.3-1.6 5.5 0 3.2-.4 3.9-2.5 4.4-1.4.4-3 .4-3.5.1-.5-.3-1.1-.1-1.5.4-.3.6-1.2.8-2 .4-.8-.3-1.5 0-1.5.6s-.7 1.1-1.5 1.1-1.5.4-1.5 1c0 .5-.7.7-1.5.4-.8-.3-3.6.6-6.3 2.1-5.8 3.2-10.9 3.2-10.4 0 .2-1.1 1.7-4 3.4-6.5 2-2.9 3.1-5.8 3.2-8.2l.1-3.7 2.1 2c1.4 1.3 3.9 2.1 6.8 2.3 2.5.2 5.7 1.1 7 2 1.4.9 3.4 1.6 4.5 1.6 1.7 0 1.9-.5 1.4-3.5-.5-2.9-.3-3.5 1.2-3.5s1.3-.4-.9-2.6c-1.4-1.5-2.6-3.1-2.6-3.6s-.5-.6-1.2-.2c-.6.4-1.6.1-2.2-.7-.6-.8-2-1.9-3.1-2.5-1.1-.6-2.1-2.3-2.3-3.8-.2-1.6-.9-2.6-2-2.6-.8 0-2.6-1-3.9-2.1-1.8-1.8-2.5-2-3.8-.9-.8.7-2.1 1-2.9.7-.7-.3-1.8-.1-2.4.5-1.8 1.8-4.9-1.1-4.4-4.2.3-2.1-.2-3.2-1.7-4.2-2.8-1.7-2.9-6.4-.1-7.3 1.1-.3 2-1.1 2-1.6 0-.6-.4-.7-1-.4-1.3.8-1.3-2.1 0-4.5 1.2-2.2-.3-6.3-3.6-9.8-2.7-2.8-3.6-6.9-1.7-7.6.8-.3 1.1-1.1.7-1.7-.4-.8-.1-.8 1.5 0 1.8 1 2 .9 1.4-.6-.5-1.2-.2-1.5.9-1.1 2.3.9 3.9-.6 4-4 .1-1.7.5-2.9.9-2.6.5.3 1.7.1 2.6-.5 1.5-.8 1.6-1 .3-1.5-6.2-2-7.3-2.5-5.7-2.5 2.1-.1 2.1-.5.1-3.6-1.4-2.2-1.4-2.5-.1-3.1 1.2-.4 1.3-1.2.6-3.7-.6-2.1-.5-3.3.1-3.5 2.2-.8.7-3.3-5.4-9.4-5.7-5.6-6.5-6.8-6.8-10.7-.2-3.5-.9-4.8-3.5-6.9l-3.3-2.5v4.1zm76.9 120.2c1.5 2.2 1.5 2.4-.1 1.7-1.4-.5-1.8-.1-1.8 1.6 0 2.1 0 2.1-2.5-.4-1.7-1.7-2.4-3.1-1.9-4.3.9-2.4 4.3-1.7 6.3 1.4zm-30.9 5c0 .5-.7 1-1.6 1-.8 0-1.2-.5-.9-1 .3-.6 1-1 1.6-1 .5 0 .9.4.9 1zm-89.6 11.6c.3.8.2 1.2-.4.9-.6-.3-1-1-1-1.6 0-1.4.7-1.1 1.4.7zm-5.3 5.1c.1 1.7.2 1.7.6 0 .3-1.1 1.4-1.7 3.4-1.7h2.9l-2 2c-1.1 1.1-2 2.4-2 3 0 .5-1 .8-2.2.7-1.5-.3-2.3-1.2-2.5-3-.2-1.5.1-2.7.7-2.7.5 0 1.1.8 1.1 1.7zm-7.1 1.8c0 .8-.2 1.5-.4 1.5s-.6-.7-1-1.5c-.3-.8-.1-1.5.4-1.5.6 0 1 .7 1 1.5zm0 7.5c0 .5-.4 1-.9 1-.6 0-1.3-.5-1.6-1-.3-.6.1-1 .9-1 .9 0 1.6.4 1.6 1zm-4.5 4c.3.5.1 1-.4 1-.6 0-1.1-.5-1.1-1 0-.6.2-1 .4-1 .3 0 .8.4 1.1 1z"/><path d="M693.676 700.396c-1.3 1.6-.7 4.5.9 4.5.5 0 1.3-.5 1.6-1 .3-.6.1-1-.5-1-.7 0-.9-.8-.5-2 .8-2.4.2-2.6-1.5-.5zM943.876 737.596c.4 1.3-6 7.3-7.9 7.3-.9 0-2.1.6-2.7 1.4-1 1.3-1.6 1.3-5.2 0-2.3-.7-6.1-1.3-8.5-1.1-4 .2-4.5.6-5.4 3.5-.5 1.8-1.6 3.2-2.5 3.3-1.1 0-.9.4.7 1.5 1.7 1.3 2 2 1.3 4.4-.9 3.3 1.7 16.3 3.2 15.4.4-.3.8 0 .8.6 0 .7-1.3 1.7-2.9 2.3-1.9.7-3.6 2.4-4.7 4.9-.9 2.1-2.3 3.8-3 3.8-.8 0-1.1.6-.8 1.5.4.8 1 1.2 1.5.9.5-.3.9.1.9.8.1 1.9 12.3 10.7 13.5 9.7 1.5-1.1 6-.5 7.9 1 2.1 1.8 4.6.7 4.6-2 0-1.5.4-1.9 1.3-1.3 1.8 1.3 4.1 1.1 5.9-.6 1.5-1.4 1.4-1.7-.9-4.2-2-2.1-2.3-2.8-1.2-3.2 4.2-1.3 6.5-1.3 10.2 0 2.3.8 4.7 1.2 5.4 1 .6-.3 3.2.6 5.7 1.9 2.5 1.3 4.6 1.9 4.8 1.4.2-.7 1.2-.7 3 0 2.9 1.1 3.8.6 3.8-1.9 0-1.4 1.1-1.6 6.5-1.5 7 .1 6.8.2 4.8-5.3-.3-.7.4-1.2 1.9-1.2 3.2 0 4 .8 2.7 3.1-1.2 2.3-.1 9.9 1.5 9.9.6 0 2.1 1.6 3.4 3.5 2.1 3.4 4.2 4.6 4.2 2.5 0-.6.5-1 1.1-1 .6 0 2.4-1.1 4.1-2.5 1.6-1.4 3.6-2.5 4.5-2.5 1.1 0 1.4-.6.9-2.6-.6-2.2-.5-2.4 1.2-1.5 1.5.8 2.3.5 4-1.6 1.2-1.4 1.9-3 1.6-3.5-.3-.4.4-.8 1.6-.8 1.2 0 2.5-1 3.2-2.5.6-1.4 1.5-2.5 2-2.5s.5-.7 0-1.6c-1.3-2.3-.3-5.6 1.4-5 1 .4 1.4-.3 1.4-1.9 0-1.4-.5-2.5-1.1-2.5-.5 0-.7.4-.4 1 .9 1.5-1 1.2-5-.7-3.6-1.7-5.4-5.1-3.9-7.4.4-.7-.8-.4-2.7.8-5.2 3.2-10.5 4.6-12.7 3.4-1.6-.9-1.9-.4-3 4.6-.7 3.4-2 6.3-3.5 7.7-2.3 2.1-2.6 2.1-5.3.7-3.9-2.1-10.4-7.5-8.1-6.7.9.3 1.7.1 1.7-.4 0-.6-.6-1-1.4-1-2.3 0-4.6-2.9-4.6-5.6 0-1.4.4-2.2 1-1.9.6.3 1-.3 1-1.3 0-1.1-.7-2.3-1.5-2.6-1.2-.4-1.3-1-.6-2.5.8-1.4.7-2.2-.4-3.1-.8-.7-1.5-1.8-1.5-2.5 0-2.8-4-6.2-8.1-6.9-2.9-.5-4.3-1.2-4.6-2.6-.6-2.1-4.7-2.8-5.8-1-1.1 1.8-4.3 1.1-7.5-1.6-1.7-1.5-3-2.2-2.8-1.7zm65.1 41.6c.4-.3.7-.1.7.6 0 1.7-3.2 1-3.8-.9-.4-1.2-.3-1.3 1-.3.8.7 1.8 1 2.1.6zM732.176 745.896c-1.1.5-1.5.9-.8.9.6.1 1.9.8 2.7 1.7 1 1 1.6 1.1 1.6.4 0-.8 1-1 2.5-.8 1.4.3 2.8.1 3.1-.3.3-.5-.6-.9-2-.9s-2.6-.5-2.6-1c0-1.2-1.7-1.2-4.5 0zM575.276 750.596c-.3.4-.6 1-.6 1.4 0 1 2.8 2 3.4 1.1.5-.9-2-3.2-2.8-2.5zM1015.776 758.196c-1.3 2.1-1.2 2.1.5.5 1-1 1.6-2 1.3-2.2-.3-.3-1.1.5-1.8 1.7z"/><path d="M1018.676 761.896c.7 1.4.7 2 0 2-.5 0-1 .5-1 1.1 0 .5.4.8.9.5.5-.4 1.1 0 1.4.6.3 1 .7 1 2.1-.1 1.6-1.3 1.5-1.6-.5-3.8-2.7-2.8-4.4-3-2.9-.3zM979.376 762.496c.3.9 0 2-.7 2.4-.9.6-.7 1.1.9 1.9 1.8 1 2.1.9 2.1-.9 0-2 .9-2.4 4.3-2.1.9.1 1.7-.3 1.7-.8 0-.6-.1-1.1-.2-1.2-.2 0-2.2-.2-4.5-.5-3.7-.4-4.2-.3-3.6 1.2zM603.776 766.496c0 1.1.3 1.4.6.6.3-.7.2-1.6-.1-1.9-.3-.4-.6.2-.5 1.3zM965.176 796.896c-.3.5-.1 1 .4 1 .6 0 1.1-.5 1.1-1 0-.6-.2-1-.4-1-.3 0-.8.4-1.1 1zM961.276 800.496c-.4 1-1.2 1.4-2.2 1-2.3-.9-5.9 1.3-4.5 2.7 1.8 1.8 1.3 3.3-2.4 7.7-2.8 3.3-3.3 4.5-2.4 5.6 1.4 1.7 4.8 1.2 6.4-.9 1-1.5 1.4-1.3 3.4 1.3 1.2 1.7 2.7 3 3.3 3 .7 0 .7-.4-.1-1.4-.8-1-.9-1.6-.1-2.1.5-.3 1-.3 1 .2.1 1.8 2-2.4 2-4.3 0-1.5.8-2.4 2.5-2.8 3-.8 3.2-2 .6-4.2-1.1-1-1.6-2.4-1.3-3.6.8-3.4-5-5.4-6.2-2.2zM988.276 799.796c-.3.5.1 1.1.9 1.5 1.5.6 2.9-.7 1.8-1.8-.9-.9-2.1-.8-2.7.3zM654.676 801.396c-1.7 1-2 1.4-.9 1.5.9 0 2.2-.7 2.9-1.5 1.5-1.8 1.2-1.8-2 0zM902.676 800.696c0 .5.7 1.3 1.6 1.6 1 .4 1.4.1 1.2-.6-.5-1.5-2.8-2.3-2.8-1zM938.576 801.396c-2.5 1.4-4.7 5.5-2.8 5.5.4 0 1.9 1.2 3.3 2.7 2.1 2.2 2.7 2.4 4 1.4 2-1.7 2-3.8-.2-7.8-1.6-3-1.8-3.1-4.3-1.8zM643.376 801.996c.7.7 1.5 1 1.8.7.3-.3-.2-.9-1.2-1.2-1.4-.6-1.5-.5-.6.5zM650.776 804.496c0 1.1.3 1.4.6.6.3-.7.2-1.6-.1-1.9-.3-.4-.6.2-.5 1.3zM655.976 804.396c-.8.9-.6 1.5.8 2.3 1 .7 2.1 1.2 2.4 1.2 1 0 .5-2.2-.8-3.4-1-1-1.5-1-2.4-.1zM930.076 804.396c2.1 1.6 3.2 1.3 2.1-.4-.3-.6-1.4-1.1-2.3-1.1-1.5.1-1.5.2.2 1.5zM675.476 820.696c-.3 1.1 0 1.9.8 1.9 1.6 0 1.9-2.3.5-3.1-.5-.3-1.1.2-1.3 1.2zM959.676 826.196c0 .9-.9 2.1-1.9 2.7-1.4.7-2.1 2.3-2.3 5.2-.3 3.9-.6 4.4-4.3 5.8-6.5 2.4-11.5 6.2-11.5 8.7 0 1.6-.8 2.5-2.6 2.9-2.6.7-2.6.7-1.9 7.8.4 3.9 1.2 7.5 1.8 8.1 1.5 1.2 2 7.5.8 9.4-.6 1-1.3 1.1-2.9.2-1.7-.9-2.3-.8-3 .5-.5.9-1.2 1.5-1.5 1.5-.4-.1-.7.1-.7.4 0 .3.3.5.6.4 2.5-.3 3.2 7.6 1 10.6-1 1.4-1.1 2.5-.4 3.9.8 1.4.7 1.7-.3 1.4-.8-.3-2.2.4-3.3 1.3-1 1-2.3 1.6-2.8 1.3-.4-.3-1.7-.3-2.8.1-1.5.5-1.7 1.1-1 2.9.5 1.5.5 2.7-.3 3.5-.8.8-.6 1.5 1.1 2.7 1.2.8 2.2 2.1 2.2 2.9 0 1.6.5 2 4.4 2.9 2.4.6 2.7.5 1.9-.6-1.6-1.8-.5-6.8 1.3-6.1.8.3 1.4.1 1.4-.3 0-.5 1.5-1.5 3.3-2.2 1.7-.7 3.9-1.7 4.7-2.1.8-.4 2.8-.2 4.5.5 3.3 1.3 5.4.8 7.2-1.7.8-1.1 2-1.5 3.5-1.1 1.7.4 2 .2 1.5-1.2-.6-1.4-.2-1.6 2.6-1.1 1.8.4 4.5.2 6-.4 2.2-.9 2.7-1.7 2.7-4.5 0-4.5 1.8-5.6 2.7-1.6.3 1.8 1.8 4.1 3.4 5.3 2.7 1.9 2.9 2.6 2.9 8.3 0 6.3-.8 7.9-4.5 8.6-2.2.4-3 2.7-2.1 6.2.7 3 6.8 9.4 8.4 8.8.6-.2 1.2.1 1.2.7s.7.8 1.5.5c.8-.4 1.3-1 1-1.4-.3-.5-.1-1.1.5-1.5.6-.4.2-1.5-1-2.7-2.2-2.4-2.5-3.4-1-4.3.6-.3 1-2.4 1-4.5s-.4-4.2-1-4.5c-1.5-.9-1.2-2.5.4-2.5.9 0 1.2-.7.9-2.1-.4-1.2 0-2.5.8-2.9.7-.5 1.3-2.4 1.2-4.4-.1-2.5.3-3.6 1.3-3.6 1.8 0 1.8-2.4.1-4.2-.8-.7-1.2-1.8-1-2.4.2-.6-.3-1.7-1.2-2.4-1.9-1.6-1.9-3 .1-3 2.7 0 .9-2.5-2-2.8-3.1-.4-5.6 1.3-5.6 3.8 0 2.2-2.6 4.5-3.4 3.1-.4-.6-1.4-.7-2.2-.4-1.4.5-1.5.3-.5-1.5.6-1.1 1.5-2.4 2.1-2.7.9-.6-1.9-6.5-4.6-9.6-.8-.8-1.4-2.1-1.4-2.7 0-.7-.4-1.2-.8-1.2-.9 0-8.2-6.7-8.2-7.5 0-.3 1.1-.5 2.4-.5 2.2 0 2.5-.6 3.1-5.3 1.1-8.6 1.3-20.1.4-21.9-.5-.9-1-2.9-1.1-4.3-.3-3-2.8-5.8-2.8-3.2zM796.176 905.996c-1.6 1.6-3.1 3.3-3.1 3.9-.1.5-.2 1.3-.3 1.7 0 .4-.8-.2-1.6-1.3-1.4-1.9-1.4-1.8-.9.2.3 1.2 2.6 4.4 5.1 7.3 3.7 4.3 5 5.1 7.9 5.1 2.6 0 4.3.9 7 3.5 1.9 1.9 3.7 3.5 4 3.5.7 0-2.9-6.3-4.1-7.2-.6-.5-.5-1.2.3-2 1.9-1.9 1.5-2.8-1.9-4-2-.7-2.7-1.3-1.9-1.8 1.6-1-.8-5.5-4.7-9.1l-2.8-2.7-3 2.9zM919.176 909.896c-1.9.7-1.9.7.3 2.5 1.6 1.4 1.8 2.1.9 2.7-2.2 1.3 1.4 3.8 4.1 2.7 2.8-1 2.8-2.5.1-3.9-1.1-.6-2.3-1.9-2.7-2.9-.5-1.3-1.3-1.6-2.7-1.1z"/></g></svg>