<?xml version="1.0" standalone="no"?>
<!DOCTYPE svg PUBLIC "-//W3C//DTD SVG 20010904//EN"
 "http://www.w3.org/TR/2001/REC-SVG-20010904/DTD/svg10.dtd">
<svg version="1.0" xmlns="http://www.w3.org/2000/svg"
 width="807.000000pt" height="584.358586pt" viewBox="0 0 807.000000 584.358586"
 preserveAspectRatio="xMidYMid meet">
<metadata>
Created by potrace 1.15, written by Peter Selinger 2001-2017
</metadata>
<g transform="translate(-587.000000,1311.780819) scale(0.100000,-0.100000)"
fill="#222222" stroke="none">
<path d="M10666 13094 c4 -23 2 -33 -10 -37 -12 -5 -14 -14 -9 -38 5 -29 4
-32 -13 -25 -15 6 -17 5 -6 -5 16 -17 15 -44 -3 -59 -9 -7 -12 -22 -9 -39 4
-20 -3 -40 -27 -76 -23 -35 -29 -50 -20 -53 38 -13 60 -77 39 -115 -8 -15 -7
-18 2 -12 8 5 11 3 8 -6 -3 -8 -11 -14 -19 -15 -8 0 -22 -4 -32 -9 -15 -6 -16
-10 -5 -17 10 -7 10 -11 -4 -21 -10 -8 -14 -22 -11 -38 3 -19 0 -28 -14 -32
-50 -17 -73 -41 -73 -80 0 -19 -11 -38 -31 -57 -23 -20 -30 -34 -26 -49 3 -12
-3 -31 -14 -45 -10 -13 -19 -31 -19 -39 0 -8 -11 -18 -24 -21 -29 -7 -49 -52
-51 -116 -1 -36 -5 -46 -21 -49 -28 -5 -35 -23 -16 -37 13 -10 14 -15 5 -25
-10 -9 -15 -10 -27 0 -8 7 -38 11 -68 10 -65 -2 -113 11 -113 30 0 8 -6 16
-12 19 -7 2 -13 -3 -13 -12 0 -9 -7 -16 -15 -16 -8 0 -15 -3 -16 -7 -6 -69
-26 -138 -45 -153 -8 -7 -13 -19 -10 -27 3 -7 4 -13 3 -13 -1 0 -20 6 -41 14
-33 11 -42 11 -53 1 -7 -7 -21 -11 -32 -8 -10 3 -22 0 -25 -5 -4 -6 -22 -8
-41 -5 -23 4 -35 2 -35 -6 0 -6 -8 -11 -18 -11 -9 0 -34 -9 -55 -20 -20 -11
-44 -20 -52 -20 -8 0 -20 -10 -26 -22 -9 -17 -9 -24 5 -33 17 -13 22 -35 7
-35 -5 0 -13 6 -19 13 -6 7 -28 14 -49 15 -21 2 -42 7 -47 12 -5 5 -19 5 -33
-1 -20 -8 -26 -6 -30 10 -6 25 -44 16 -40 -9 5 -34 41 -90 54 -85 7 2 13 -3
13 -11 0 -10 -6 -14 -15 -10 -8 3 -21 -2 -29 -10 -12 -11 -20 -12 -35 -5 -13
7 -34 6 -71 -3 l-52 -14 -14 32 c-8 17 -18 38 -23 46 -5 8 -15 29 -21 47 -11
30 -13 30 -30 15 -50 -45 -82 -61 -113 -55 -15 3 -33 0 -41 -6 -11 -9 -23 -8
-52 4 -31 13 -44 13 -67 4 -21 -9 -34 -9 -53 0 -36 16 -58 14 -89 -11 -16 -12
-43 -23 -61 -25 -35 -2 -124 31 -124 47 0 15 -69 33 -83 22 -7 -6 -27 -9 -45
-8 -28 2 -33 -1 -29 -16 3 -11 -2 -19 -17 -24 -11 -3 -30 -14 -40 -23 -14 -12
-20 -13 -23 -3 -3 6 -13 12 -24 12 -16 0 -18 -5 -13 -27 4 -16 7 -30 6 -33 0
-35 -4 -42 -17 -36 -8 3 -15 1 -15 -4 0 -6 -9 -5 -20 2 -11 7 -20 17 -20 22 0
19 -32 44 -51 39 -26 -7 -24 -19 6 -39 17 -11 25 -25 25 -44 0 -16 7 -30 15
-34 18 -6 20 -33 4 -38 -7 -2 -12 -23 -13 -46 -1 -26 -6 -42 -13 -42 -7 0 -13
-7 -13 -15 0 -9 -12 -18 -30 -21 -16 -4 -30 -10 -30 -15 0 -5 -13 -15 -30 -24
-16 -9 -30 -21 -30 -29 0 -20 -32 -44 -64 -48 -19 -2 -30 -9 -32 -21 -1 -10
-13 -27 -27 -37 -14 -11 -28 -31 -31 -45 -4 -16 -13 -25 -26 -25 -10 0 -22 -4
-25 -10 -3 -5 -19 -7 -35 -3 -27 5 -30 3 -30 -18 0 -17 -10 -30 -32 -42 -19
-10 -41 -35 -52 -57 -16 -34 -23 -39 -43 -34 -15 4 -23 2 -23 -7 0 -10 -3 -10
-11 -2 -8 8 -7 20 5 45 11 20 13 34 6 36 -15 5 -12 22 5 22 8 0 15 4 15 9 0
15 -41 40 -55 35 -23 -9 -38 23 -29 63 4 21 7 47 6 58 -3 20 72 95 96 95 15 0
15 9 -3 40 -19 32 -19 44 0 36 11 -4 15 1 15 19 0 28 15 33 24 9 9 -23 29 -5
23 22 -2 14 0 27 5 30 5 3 2 14 -7 24 -14 15 -14 18 0 30 8 7 15 25 15 40 0
32 65 104 86 96 7 -3 18 2 24 10 7 8 21 14 31 14 28 0 32 17 7 34 -12 9 -19
16 -14 16 5 0 3 7 -4 15 -12 14 -17 12 -47 -17 l-33 -32 -28 28 c-26 28 -27
28 -3 21 22 -7 23 -6 16 34 -5 29 -3 41 5 41 7 0 10 8 7 20 -10 38 62 48 88
13 6 -8 18 -11 28 -7 15 5 15 9 5 22 -10 12 -10 16 -1 19 10 4 10 9 0 26 -7
12 -16 25 -22 29 -6 5 -5 8 3 8 26 0 10 22 -29 38 -35 13 -39 19 -34 39 4 17
-2 31 -21 50 l-27 26 -18 -48 c-10 -27 -23 -51 -29 -55 -14 -9 4 -58 27 -75
11 -8 13 -17 7 -26 -4 -8 -9 -36 -9 -64 0 -45 -3 -51 -30 -64 -16 -8 -32 -18
-34 -23 -3 -10 -51 -32 -63 -30 -5 1 -8 -7 -8 -17 0 -27 -64 -63 -98 -55 -15
4 -32 11 -38 16 -6 4 -19 6 -28 2 -10 -4 -31 5 -54 22 -44 35 -80 54 -97 54
-8 0 -21 7 -30 16 -9 9 -35 19 -57 21 -23 2 -47 8 -53 13 -9 7 -14 6 -18 -4
-7 -17 -77 -27 -95 -13 -9 7 -18 4 -32 -8 -16 -15 -29 -17 -77 -10 -59 7 -81
8 -118 6 -25 -2 -59 5 -106 21 -25 8 -40 21 -48 42 -9 21 -14 26 -18 16 -2 -8
-7 -22 -11 -30 -3 -8 -7 -19 -7 -25 -5 -30 -20 -73 -33 -97 -12 -20 -22 -26
-36 -23 -12 3 -27 1 -35 -4 -12 -8 -11 -15 7 -46 26 -43 27 -55 7 -55 -8 0
-15 -4 -15 -9 0 -5 -14 -13 -32 -16 -26 -6 -35 -3 -50 15 -13 16 -18 18 -18 7
0 -9 5 -19 11 -22 6 -5 4 -12 -8 -20 -15 -11 -21 -11 -33 0 -16 15 -90 31 -90
20 0 -3 5 -15 10 -26 9 -15 7 -21 -5 -25 -9 -4 -15 -14 -13 -23 1 -9 -1 -22
-5 -29 -5 -7 -2 -14 7 -18 17 -7 10 -34 -9 -34 -7 0 -15 -10 -18 -21 -4 -15
-11 -20 -22 -15 -13 5 -15 1 -10 -17 4 -12 13 -34 20 -49 11 -22 10 -30 -2
-48 -8 -11 -12 -27 -9 -35 8 -21 -4 -19 -30 6 l-22 20 -27 -25 c-19 -18 -32
-23 -40 -16 -7 6 -25 6 -50 -1 -28 -8 -45 -8 -64 2 -34 16 -71 20 -71 8 0 -5
-16 -9 -35 -9 -29 0 -35 -4 -35 -20 0 -12 11 -32 25 -46 14 -14 25 -34 25 -46
0 -11 11 -29 25 -40 14 -11 25 -30 25 -42 0 -12 7 -31 15 -42 8 -10 15 -35 15
-55 0 -23 6 -39 15 -43 8 -3 12 -12 9 -21 -4 -9 1 -17 10 -21 19 -7 12 -42
-12 -60 -16 -12 -13 -16 32 -39 11 -5 23 -22 27 -37 6 -23 4 -28 -11 -28 -13
0 -17 -5 -13 -20 3 -11 1 -26 -4 -33 -5 -6 -10 -26 -12 -44 -2 -29 2 -33 41
-51 52 -22 74 -19 83 15 6 24 7 24 24 9 10 -9 30 -16 46 -16 19 0 38 -11 61
-36 42 -44 42 -53 4 -67 -16 -6 -30 -17 -30 -23 0 -6 -10 -18 -21 -26 -18 -12
-20 -17 -10 -35 14 -27 14 -80 0 -88 -6 -5 -4 -11 7 -19 13 -10 14 -17 5 -34
-18 -34 -9 -76 17 -80 15 -2 22 2 22 12 0 24 20 19 42 -9 11 -14 28 -25 39
-25 11 0 22 -7 25 -15 4 -8 15 -15 26 -15 14 0 18 5 15 15 -5 11 0 13 23 8 20
-4 30 -2 30 7 0 7 8 10 20 7 25 -7 36 9 12 18 -16 7 -15 8 3 15 44 18 54 13
52 -31 -1 -29 3 -43 16 -50 33 -19 57 -53 57 -81 0 -33 42 -78 72 -78 10 0 21
-7 24 -15 4 -8 10 -13 14 -10 14 9 60 -14 60 -29 0 -28 93 -38 104 -11 9 26
46 17 80 -20 19 -19 38 -35 44 -35 16 0 25 -18 28 -56 2 -25 -1 -31 -12 -27
-9 3 -13 12 -10 19 3 8 2 14 -3 14 -5 0 -12 -12 -15 -26 -5 -20 0 -33 24 -60
19 -22 30 -46 30 -64 0 -16 5 -32 11 -36 8 -4 3 -12 -12 -20 -13 -7 -20 -13
-15 -14 6 0 1 -7 -10 -15 -10 -8 -26 -14 -34 -14 -9 0 -10 2 -3 5 8 4 9 13 1
35 -9 25 -7 32 12 47 17 13 19 22 12 41 l-8 23 -17 -26 c-9 -14 -17 -30 -17
-36 0 -5 -4 -10 -10 -10 -5 0 -10 -6 -10 -13 0 -8 -7 -27 -15 -44 -12 -25 -25
-32 -71 -42 -52 -12 -54 -14 -40 -30 20 -22 20 -35 1 -51 -22 -19 -18 -38 13
-58 35 -22 44 -82 12 -82 -17 0 -19 -3 -10 -19 13 -26 13 -78 -1 -87 -8 -5 -6
-10 5 -16 19 -11 23 -78 4 -78 -6 0 -2 -10 10 -23 26 -27 28 -55 6 -71 -12
-10 -2 -11 50 -8 79 5 136 -4 136 -22 0 -8 12 -21 26 -31 15 -10 23 -22 20
-31 -3 -8 -1 -14 4 -14 6 0 10 4 10 10 0 5 18 8 39 5 29 -2 41 1 45 12 4 8 13
13 21 9 9 -3 19 3 26 15 8 16 7 25 -5 38 -9 10 -16 25 -16 33 0 22 49 53 84
53 39 0 42 26 10 75 -14 21 -26 52 -26 68 -1 21 -7 32 -21 36 -38 10 -11 31
42 32 59 2 61 3 66 36 3 12 7 35 11 50 4 19 1 32 -10 43 -12 13 -14 21 -5 36
5 11 7 29 3 41 -5 17 -3 20 10 15 10 -4 15 -3 11 3 -3 6 3 10 14 10 31 0 51
11 52 29 0 11 2 12 6 3 8 -22 53 -33 100 -26 35 5 44 11 49 30 7 28 12 29 41
9 20 -14 21 -13 28 13 3 15 13 37 21 50 12 18 18 21 29 12 12 -10 13 -5 8 26
-5 28 -3 35 7 29 7 -4 16 -2 21 6 6 11 11 10 27 -4 10 -9 23 -17 28 -17 11 0
33 -47 40 -84 3 -18 -1 -26 -16 -31 -11 -4 -18 -10 -16 -14 6 -10 -54 -55 -73
-56 -21 0 -22 -75 -1 -98 17 -18 16 -62 -1 -52 -4 3 -27 2 -50 -1 -28 -5 -43
-13 -46 -25 -3 -10 -18 -21 -34 -24 l-28 -6 29 -52 c31 -56 38 -103 24 -178
-4 -21 -12 -28 -39 -33 -41 -8 -46 -15 -47 -65 -1 -57 9 -75 43 -88 24 -9 30
-16 25 -30 -8 -21 27 -93 60 -124 22 -20 24 -20 55 -5 18 9 33 15 34 14 5 -8
74 -156 80 -173 4 -11 9 -52 10 -91 2 -39 8 -88 13 -108 8 -29 8 -36 -4 -36
-18 0 -18 -24 -1 -38 7 -6 32 -15 56 -21 23 -5 43 -11 44 -13 1 -1 11 -20 21
-40 13 -26 16 -42 9 -50 -12 -16 -10 -67 4 -76 5 -4 9 -29 9 -57 -1 -49 0 -50
29 -50 17 0 45 -11 63 -24 29 -20 33 -28 28 -55 -5 -25 1 -41 29 -80 19 -27
35 -55 35 -62 0 -6 13 -14 30 -17 22 -5 33 -16 45 -44 9 -21 17 -46 18 -56 1
-10 9 -23 19 -28 10 -5 18 -16 18 -25 0 -8 11 -19 24 -24 14 -5 33 -21 42 -35
11 -17 24 -25 38 -23 18 3 22 12 28 73 10 94 10 98 6 115 -2 9 3 14 12 12 10
-2 6 6 -9 22 -17 18 -20 26 -10 26 10 0 11 2 2 8 -12 7 -63 79 -63 87 0 3 11
5 24 5 46 0 57 10 51 44 -5 24 -1 37 15 56 12 14 26 24 31 23 12 -4 5 65 -9
79 -16 16 -15 33 2 47 16 13 10 51 -8 51 -6 0 -28 5 -49 11 -31 8 -38 14 -35
32 2 17 9 22 30 20 22 -1 28 4 33 27 4 16 19 45 35 64 15 20 31 52 34 71 5 25
12 35 25 35 12 0 18 7 17 18 -2 26 28 21 32 -6 2 -13 11 -26 20 -28 9 -3 25
-10 35 -15 11 -6 17 -6 17 2 0 5 5 7 10 4 6 -3 10 -15 10 -26 0 -10 2 -19 5
-19 15 0 55 34 55 47 0 11 7 9 30 -7 27 -19 34 -19 31 2 0 4 15 4 35 1 30 -5
36 -3 41 16 7 29 22 27 73 -10 35 -26 47 -30 61 -21 12 8 20 8 24 2 3 -6 11
-10 16 -10 11 0 2 42 -17 79 -8 14 -14 29 -14 33 0 7 60 -14 94 -33 12 -7 22
-7 29 0 6 6 18 4 35 -7 19 -12 27 -13 30 -4 3 9 11 8 32 -3 16 -8 35 -15 43
-15 10 0 13 -8 10 -24 -6 -28 21 -47 52 -36 11 4 30 10 43 15 12 4 22 15 22
25 0 18 32 54 89 100 65 52 73 62 68 82 -4 14 2 24 24 36 16 10 29 23 29 30 0
14 19 16 39 3 19 -12 43 -2 37 15 -4 10 3 14 24 14 17 0 30 6 32 15 3 13 6 13
31 0 15 -8 43 -17 61 -21 32 -5 34 -4 41 25 5 26 11 31 26 26 11 -4 19 -2 19
6 0 8 5 8 17 -2 14 -12 16 -12 8 0 -6 11 -4 13 9 8 10 -4 22 -7 28 -7 11 0 97
-88 99 -102 1 -4 3 -12 4 -18 1 -5 3 -14 4 -19 0 -5 10 -7 21 -4 13 4 20 0 20
-9 0 -8 17 -43 37 -77 32 -54 36 -70 34 -114 -2 -29 -7 -54 -11 -57 -15 -9 -5
-39 19 -61 17 -16 26 -18 34 -10 6 6 30 11 54 11 51 0 96 18 89 37 -7 17 14
17 41 -2 18 -13 23 -12 43 5 13 11 27 20 32 20 4 0 8 7 8 15 0 19 4 19 42 -1
24 -12 36 -14 49 -6 12 8 22 7 38 -4 11 -8 25 -13 30 -9 5 3 12 1 15 -3 3 -5
23 -8 45 -6 46 3 66 -14 59 -51 -6 -27 15 -54 27 -35 3 6 11 8 16 5 5 -3 6 1
3 9 -3 9 -10 16 -15 16 -5 0 -9 7 -9 15 0 9 9 15 22 15 17 0 19 -3 10 -12 -8
-8 -6 -18 9 -39 l20 -28 -26 -22 c-30 -27 -31 -39 -5 -71 20 -27 18 -40 -6
-31 -12 4 -14 0 -8 -21 4 -19 2 -27 -10 -32 -11 -4 -13 -11 -6 -23 6 -12 5
-22 -2 -29 -9 -9 -6 -12 14 -12 15 0 30 -4 33 -10 12 -20 26 -10 15 11 -15 27
-5 36 17 17 19 -15 53 -13 53 3 0 5 13 9 30 9 20 0 33 -7 41 -22 18 -33 40
-47 75 -48 28 0 31 3 27 25 -4 19 0 25 20 30 14 4 34 2 45 -4 31 -16 41 -13
48 14 3 14 13 25 21 25 24 0 53 -20 53 -36 0 -8 5 -12 10 -9 6 4 8 10 5 15 -3
5 -1 11 5 15 7 4 6 13 -1 27 -9 17 -8 23 5 30 19 11 21 34 4 41 -7 3 -3 6 8 6
22 1 25 23 8 64 -6 17 -5 18 14 6 19 -12 25 -10 56 21 36 37 36 50 2 89 l-21
23 38 -4 c31 -3 37 -1 37 15 0 18 1 18 23 3 36 -26 49 -30 67 -18 26 16 34
-12 13 -44 -14 -21 -14 -29 -3 -50 11 -19 11 -27 2 -36 -9 -9 -15 -9 -24 0
-19 19 -30 14 -26 -10 2 -16 9 -22 21 -20 9 2 17 -2 17 -8 0 -6 5 -8 10 -5 6
3 24 -4 41 -16 23 -16 33 -19 42 -10 15 15 23 14 41 -5 15 -14 16 -14 16 5 0
11 -5 23 -12 27 -8 5 -3 10 15 15 42 11 104 -19 111 -53 4 -22 11 -28 30 -28
14 0 36 -4 50 -10 17 -6 27 -6 32 1 3 6 12 8 19 5 8 -3 15 0 17 5 2 6 11 7 21
4 9 -4 14 -12 10 -19 -4 -6 1 -5 10 3 9 7 14 18 10 24 -3 5 2 16 11 23 14 10
17 23 14 61 -3 26 -8 57 -13 67 -8 18 -5 19 50 12 63 -7 89 -21 81 -43 -3 -7
-1 -13 4 -13 6 0 10 5 10 10 0 6 6 10 13 10 14 0 15 34 2 63 -5 13 -2 22 14
33 11 8 21 24 21 34 0 10 4 21 9 25 5 3 12 18 16 34 3 16 13 35 22 42 12 11
17 10 28 -4 15 -21 26 -22 19 -2 -4 8 -1 15 5 15 14 0 45 31 54 52 4 13 13 14
49 7 24 -5 61 -15 83 -23 47 -17 55 -14 47 16 -4 16 -2 19 9 13 11 -6 11 -5 3
4 -7 7 -20 11 -30 9 -26 -5 -54 26 -47 51 3 12 9 21 14 21 5 0 9 7 9 15 0 8
-4 15 -9 15 -13 0 -24 89 -13 103 6 7 10 14 9 17 -3 15 38 60 54 60 13 0 19 7
19 25 0 20 6 25 34 31 19 3 42 14 51 24 10 11 30 22 46 25 16 4 37 19 48 34
11 15 42 51 70 80 29 30 51 63 51 75 0 12 14 38 30 58 19 23 32 53 36 82 6 37
11 47 34 54 36 13 45 57 19 91 -24 30 -18 38 13 17 12 -9 27 -16 33 -16 5 0 3
5 -5 10 -9 6 -10 10 -3 10 7 0 17 9 23 20 9 16 4 25 -27 54 -31 28 -36 37 -25
47 10 11 12 10 12 0 0 -7 14 -27 30 -44 17 -18 41 -43 53 -56 l22 -24 -21 5
c-17 4 -20 2 -17 -13 3 -10 11 -24 19 -30 8 -6 14 -18 14 -26 0 -21 30 -63 46
-63 7 0 16 -11 20 -25 3 -14 12 -25 19 -25 19 0 94 81 88 96 -3 8 -8 12 -12
10 -4 -3 -13 0 -21 5 -12 8 -12 12 -2 16 9 3 10 9 3 17 -6 7 -7 24 -2 42 5 17
3 36 -3 48 -8 14 -8 20 2 23 6 3 9 9 6 14 -3 6 4 7 18 4 19 -5 24 -2 25 14 1
11 -2 23 -7 26 -10 6 20 65 33 65 4 0 2 10 -5 21 -10 17 -10 23 0 26 6 3 12
14 12 25 0 15 3 18 13 11 18 -15 91 -27 82 -14 -3 6 2 11 13 11 10 0 27 9 37
20 12 13 25 18 40 14 18 -4 23 1 32 30 6 20 7 34 3 31 -5 -3 -11 4 -15 15 -4
13 2 31 19 53 14 19 26 39 26 45 0 7 4 12 9 12 14 0 61 48 61 64 0 8 8 21 18
28 27 19 45 72 37 107 -5 24 -3 33 10 37 12 5 15 14 11 30 -5 20 -3 24 15 24
12 0 20 3 16 6 -3 3 -19 3 -35 -1 -23 -5 -33 -15 -46 -50 -16 -40 -19 -43 -44
-36 -15 4 -33 6 -41 3 -8 -2 -11 0 -8 6 4 5 0 15 -9 23 -13 10 -16 9 -20 -8
-6 -23 -44 -21 -44 3 0 8 -6 14 -14 14 -7 0 -19 7 -26 15 -10 12 -7 19 19 41
35 29 61 73 61 101 0 10 -21 40 -47 66 -36 38 -51 47 -67 42 -12 -4 -33 -9
-48 -12 -16 -3 -28 -11 -28 -18 0 -18 27 -38 40 -30 6 3 24 -5 40 -18 25 -22
27 -27 14 -37 -8 -8 -12 -21 -8 -32 5 -16 1 -18 -28 -15 -47 5 -66 17 -44 29
15 8 12 14 -21 45 -28 27 -39 32 -41 21 -5 -25 -46 -42 -70 -29 -28 15 -45 14
-39 -3 3 -8 0 -22 -8 -32 -9 -13 -10 -26 -4 -42 12 -32 13 -32 -22 -32 -24 0
-30 -4 -25 -16 6 -16 -19 -63 -41 -77 -7 -4 -13 -19 -13 -32 0 -13 -8 -30 -17
-37 -11 -8 -18 -27 -19 -48 -1 -54 -29 -110 -54 -110 -12 0 -18 -4 -15 -11 4
-5 -1 -19 -10 -29 -12 -13 -15 -28 -11 -44 3 -14 2 -28 -4 -31 -16 -10 -12
-63 6 -91 9 -13 14 -27 10 -31 -3 -3 -6 -1 -6 5 0 7 -9 12 -19 12 -11 0 -23 5
-26 10 -12 20 -27 10 -21 -15 5 -19 1 -28 -19 -41 -14 -9 -25 -25 -25 -35 0
-12 -7 -19 -20 -19 -13 0 -18 -5 -13 -15 3 -9 -3 -25 -12 -35 -21 -23 -13 -39
10 -20 13 11 19 9 38 -9 13 -11 28 -21 34 -21 6 0 16 -14 23 -30 7 -17 20 -35
29 -40 14 -8 14 -9 -2 -10 -25 0 -74 27 -86 47 -8 14 -10 15 -11 3 0 -9 -11
-2 -29 18 -17 17 -35 32 -41 32 -6 0 -1 -10 10 -22 25 -27 22 -52 -7 -56 -20
-3 -22 1 -21 52 1 34 -4 61 -13 72 -13 15 -11 16 24 12 44 -5 46 0 12 32 -14
13 -25 18 -25 11 0 -18 -17 -4 -23 20 -4 13 1 26 14 37 10 9 19 24 19 33 0 12
9 16 36 15 44 -1 53 15 25 43 -15 15 -28 19 -48 15 l-28 -5 -3 65 c-2 57 0 65
14 59 14 -5 15 0 10 33 -15 106 -18 134 -9 134 5 0 14 13 20 30 10 27 8 33
-18 61 -32 34 -32 47 -2 31 22 -12 49 0 39 17 -4 6 0 11 9 11 13 0 12 6 -6 42
-25 49 -57 78 -78 70 -7 -3 -20 3 -26 12 -8 10 -16 13 -19 7 -4 -6 -13 -8 -21
-5 -11 5 -13 17 -8 49 5 37 2 45 -16 54 -12 7 -21 21 -21 35 0 28 -26 42 -38
20 -12 -21 -86 -8 -120 21 -15 12 -37 26 -50 29 -13 4 -27 19 -32 32 -8 20
-13 23 -27 15 -13 -7 -25 -4 -42 10 -18 15 -27 17 -44 8 -17 -9 -23 -8 -34 7
-7 10 -11 26 -7 36 4 14 -1 17 -23 17 -15 0 -43 3 -60 7 -22 4 -33 2 -33 -5 0
-7 -9 -21 -19 -32 l-19 -21 -15 28 -15 28 -7 -43 c-5 -31 -11 -41 -21 -37 -8
3 -23 0 -34 -6 -14 -9 -22 -9 -33 1 -13 10 -16 9 -19 -6 -3 -10 -8 11 -12 47
-5 36 -13 71 -19 78 -8 11 -7 16 6 24 16 9 15 14 -18 59 -19 27 -35 55 -35 62
0 25 -37 50 -65 43 -21 -5 -34 2 -75 40 -28 26 -50 52 -50 60 0 7 -19 19 -42
27 -24 7 -43 18 -43 23 -2 28 -19 54 -36 54 -10 0 -19 4 -19 9 0 6 -18 31 -40
56 -22 25 -40 53 -40 61 0 8 -6 14 -12 13 -46 -8 -136 63 -106 83 10 6 7 10
-9 14 -16 4 -23 14 -23 30 0 12 -8 29 -18 36 -26 18 -34 56 -15 66 22 13 12
46 -14 50 -21 3 -73 54 -73 72 0 8 -43 23 -70 24 -9 1 -36 21 -62 46 -25 25
-65 60 -87 79 -23 18 -41 38 -41 43 0 7 5 6 13 -1 10 -8 17 -7 25 1 8 8 5 16
-14 30 -24 20 -33 48 -14 48 6 0 10 9 10 21 0 11 -4 17 -11 14 -5 -4 -21 5
-34 19 -13 14 -31 26 -39 26 -9 0 -19 16 -26 39 -17 64 -40 84 -94 84 -39 0
-51 5 -63 24 -8 13 -24 23 -34 23 -14 0 -19 7 -19 29 0 17 5 33 10 36 6 4 7
11 4 17 -4 6 0 14 7 19 8 4 14 12 14 16 1 21 32 53 51 53 12 0 27 7 34 15 7 8
9 15 4 15 -4 0 -3 5 4 12 9 9 20 4 47 -22 19 -19 35 -29 35 -24 0 6 -5 15 -11
21 -13 13 8 103 24 103 5 0 4 7 -3 15 -7 8 -17 15 -22 15 -6 0 -8 -7 -4 -15 4
-10 -1 -15 -16 -15 -15 0 -18 3 -10 13 13 16 21 77 10 83 -13 8 3 57 25 78 18
18 18 20 3 31 -9 7 -16 20 -16 30 0 13 -6 16 -24 11 -20 -5 -26 -1 -35 24 -7
21 -7 30 1 30 6 0 5 7 -3 17 -8 9 -9 14 -3 10 14 -8 26 30 18 60 -4 15 2 28
20 44 33 29 33 41 -5 84 -23 26 -27 35 -15 35 21 0 21 34 -1 71 -13 22 -22 27
-40 23 -20 -5 -26 1 -48 48 -13 30 -38 67 -55 83 -18 18 -30 39 -30 55 0 14
-7 35 -15 46 -14 18 -14 17 -9 -12z m142 -962 c2 -7 -3 -12 -12 -12 -9 0 -16
7 -16 16 0 17 22 14 28 -4z m-108 -171 c0 -5 -9 -7 -20 -4 -11 3 -20 7 -20 9
0 2 9 4 20 4 11 0 20 -4 20 -9z m-10 -40 c0 -5 -9 -7 -20 -4 -11 3 -20 7 -20
9 0 2 9 4 20 4 11 0 20 -4 20 -9z m300 -200 c0 -11 -26 -22 -34 -14 -12 12 -5
23 14 23 11 0 20 -4 20 -9z m-4335 -391 c3 -5 1 -10 -4 -10 -6 0 -11 5 -11 10
0 6 2 10 4 10 3 0 8 -4 11 -10z m1565 0 c0 -5 -2 -10 -4 -10 -3 0 -8 5 -11 10
-3 6 -1 10 4 10 6 0 11 -4 11 -10z m-1705 -20 c3 -5 2 -10 -4 -10 -5 0 -13 5
-16 10 -3 6 -2 10 4 10 5 0 13 -4 16 -10z m184 -100 c19 -5 38 -16 43 -25 10
-17 88 -96 88 -89 0 3 6 -1 14 -8 15 -14 7 -40 -23 -69 -14 -13 -19 -13 -43
-1 -24 12 -30 11 -44 -2 -8 -9 -16 -29 -16 -45 -1 -20 -5 -28 -14 -24 -9 3
-14 -2 -14 -13 -1 -17 -2 -17 -13 -4 -7 8 -27 25 -45 38 l-32 23 0 -40 c0 -36
-2 -39 -31 -43 -40 -6 -57 21 -29 47 14 13 17 22 10 40 -10 26 -5 35 20 35 9
0 30 12 45 26 28 26 28 26 11 55 -9 16 -13 29 -8 29 5 0 7 13 4 30 -6 42 4 64
26 55 9 -4 32 -11 51 -15z m-372 -42 c6 -7 13 -37 17 -65 6 -45 4 -52 -9 -47
-8 4 -17 0 -21 -9 -3 -9 -13 -13 -27 -10 -18 5 -20 3 -9 -8 17 -18 15 -46 -4
-53 -22 -8 -20 -9 -43 27 -15 25 -19 43 -14 70 5 33 8 36 29 31 15 -4 24 -2
24 5 0 6 3 10 8 10 19 -3 23 2 12 16 -10 12 -10 15 3 15 10 0 14 6 11 15 -7
18 10 20 23 3z m-102 -538 c3 -5 0 -10 -8 -10 -10 0 -13 -7 -10 -20 6 -24 1
-25 -37 -5 -44 23 -39 45 9 45 22 0 43 -4 46 -10z m59 -42 c9 -12 13 -24 11
-27 -6 -5 -45 29 -45 41 0 15 19 8 34 -14z m-146 -105 c2 -7 -3 -13 -12 -13
-9 0 -16 -5 -16 -12 0 -8 -3 -9 -10 -2 -15 15 -1 46 18 42 8 -2 17 -9 20 -15z
m586 -378 c-7 -17 -20 -20 -28 -6 -7 10 3 21 20 21 8 0 11 -6 8 -15z m6743
-57 c-3 -8 -6 -5 -6 6 -1 11 2 17 5 13 3 -3 4 -12 1 -19z m18 -57 c-9 -16 -25
-3 -18 15 4 10 9 12 15 6 6 -6 7 -15 3 -21z m-1397 -449 c2 -6 -3 -15 -12 -18
-17 -7 -8 -38 24 -84 26 -36 26 -37 -12 -32 -39 6 -98 63 -98 95 0 13 -6 29
-12 36 -11 10 -9 12 7 9 11 -1 23 -7 27 -13 4 -5 10 -2 13 7 8 19 56 20 63 0z
m1030 -97 c19 -24 21 -33 7 -39 -11 -4 -15 0 -13 11 2 12 -7 21 -27 28 -27 9
-29 12 -15 26 14 15 16 15 27 0 7 -9 16 -20 21 -26z m-648 25 c0 -5 -5 -10
-11 -10 -5 0 -7 5 -4 10 3 6 8 10 11 10 2 0 4 -4 4 -10z m17 -154 c17 -15 20
-22 12 -33 -6 -7 -18 -13 -26 -13 -10 0 -12 -6 -8 -20 4 -14 2 -20 -8 -20 -8
0 -17 -7 -21 -15 -8 -22 -47 -19 -53 4 -3 11 -11 22 -19 25 -8 3 -14 10 -14
15 0 6 6 8 14 5 18 -7 31 27 14 38 -9 5 -7 8 8 8 13 0 25 10 33 26 12 28 15
27 68 -20z m-4587 -97 c0 -5 -4 -9 -10 -9 -5 0 -10 7 -10 16 0 8 5 12 10 9 6
-3 10 -10 10 -16z m-801 -235 c18 -13 20 -18 10 -25 -20 -13 -29 -11 -29 6 0
8 -4 15 -10 15 -5 0 -10 5 -10 10 0 14 12 12 39 -6z m1579 -459 c-3 -3 -9 2
-12 12 -6 14 -5 15 5 6 7 -7 10 -15 7 -18z m-300 -105 c28 0 9 -18 -30 -28
-32 -8 -44 -8 -50 1 -12 19 -9 30 7 23 8 -3 15 0 15 5 0 7 9 9 23 5 12 -3 28
-6 35 -6z m332 -39 c0 -5 -7 -11 -15 -15 -9 -3 -15 0 -15 9 0 8 7 15 15 15 8
0 15 -4 15 -9z m-75 -71 c3 -5 -1 -10 -9 -10 -9 0 -16 5 -16 10 0 6 4 10 9 10
6 0 13 -4 16 -10z"/>
<path d="M6276 11065 c-3 -8 -1 -15 3 -15 5 0 11 7 15 15 3 8 1 15 -3 15 -5 0
-11 -7 -15 -15z"/>
<path d="M12040 9500 c0 -5 5 -10 11 -10 5 0 7 5 4 10 -3 6 -8 10 -11 10 -2 0
-4 -4 -4 -10z"/>
<path d="M9510 11796 c0 -19 33 -76 44 -76 4 0 6 10 2 23 -3 12 -6 27 -6 34 0
7 -9 17 -20 23 -16 8 -20 8 -20 -4z"/>
<path d="M5909 11716 c30 -31 33 -39 28 -75 -5 -41 3 -55 32 -56 26 0 21 -20
-6 -22 -36 -2 -65 -40 -57 -77 4 -19 3 -26 -5 -22 -7 5 -9 1 -5 -8 3 -9 1 -16
-5 -16 -31 0 12 -83 49 -95 11 -4 20 -12 20 -19 0 -7 12 -28 26 -47 15 -19 24
-25 20 -15 -6 17 -2 18 48 12 39 -4 56 -3 59 7 3 9 7 9 19 0 11 -10 19 -9 37
3 22 16 22 17 4 36 -18 20 -25 78 -10 78 15 0 6 30 -18 56 -14 15 -25 32 -25
38 0 6 -7 24 -15 40 -8 15 -12 39 -9 52 4 15 2 24 -5 24 -6 0 -11 7 -11 15 0
9 -12 18 -29 21 -27 6 -41 22 -55 68 -5 13 -12 17 -30 12 -16 -4 -26 -1 -30 9
-3 8 -18 15 -33 15 l-27 0 33 -34z"/>
<path d="M6216 11216 c23 -32 36 -33 25 -3 -5 12 -16 24 -26 25 -16 4 -16 2 1
-22z"/>
<path d="M13354 10351 c21 -23 26 -26 26 -11 0 5 -10 15 -22 21 -23 12 -23 12
-4 -10z"/>
<path d="M13360 10312 c0 -5 10 -19 22 -32 21 -22 22 -22 29 -4 3 10 2 25 -3
32 -12 13 -48 17 -48 4z"/>
<path d="M12906 10263 c-6 -14 -5 -15 5 -6 7 7 10 15 7 18 -3 3 -9 -2 -12 -12z"/>
<path d="M12986 10248 c3 -4 9 -8 15 -8 5 0 9 4 9 8 0 5 -7 9 -15 9 -8 0 -12
-4 -9 -9z"/>
<path d="M12929 10238 c-1 -5 -2 -16 -3 -25 -1 -10 -8 -28 -15 -41 -7 -13 -10
-30 -7 -39 5 -12 10 -11 26 10 22 27 26 63 10 87 -5 8 -10 12 -11 8z"/>
<path d="M12878 10223 c-10 -2 -18 -9 -18 -14 0 -14 16 -11 30 6 7 8 11 14 9
14 -2 -1 -12 -3 -21 -6z"/>
<path d="M13920 10076 c0 -9 5 -16 10 -16 6 0 10 4 10 9 0 6 -4 13 -10 16 -5
3 -10 -1 -10 -9z"/>
<path d="M12926 9661 c-3 -5 1 -14 9 -21 12 -10 15 -10 15 3 0 19 -16 31 -24
18z"/>
<path d="M6487 9463 c-13 -12 -7 -33 8 -33 8 0 15 9 15 20 0 20 -11 26 -23 13z"/>
<path d="M6520 9432 c0 -12 100 -105 106 -99 10 10 -21 47 -39 47 -10 0 -26
13 -35 30 -16 29 -32 39 -32 22z"/>
<path d="M7738 9338 c2 -10 6 -18 8 -18 2 0 8 8 13 18 7 14 6 18 -8 18 -12 0
-17 -6 -13 -18z"/>
<path d="M13420 9338 c0 -9 -5 -18 -12 -20 -8 -3 -8 -7 -2 -11 6 -3 23 6 37
21 l26 27 -25 0 c-16 0 -24 -6 -24 -17z"/>
<path d="M6657 9311 c3 -12 17 -23 34 -26 16 -4 31 -11 34 -16 4 -5 13 -9 21
-9 8 0 26 -12 40 -27 l24 -28 -10 27 c-6 18 -6 29 0 33 18 11 11 21 -29 43
-22 13 -56 22 -79 22 -35 0 -39 -3 -35 -19z"/>
<path d="M7727 9293 c-3 -5 6 -9 19 -9 13 -1 21 2 18 7 -6 11 -31 12 -37 2z"/>
<path d="M13420 9280 c0 -6 7 -10 15 -10 8 0 15 2 15 4 0 2 -7 6 -15 10 -8 3
-15 1 -15 -4z"/>
<path d="M7470 9169 c0 -6 -8 -9 -18 -7 -12 4 -18 -1 -18 -13 0 -11 4 -19 8
-19 4 0 8 5 8 10 0 6 9 10 20 10 21 0 27 15 10 25 -5 3 -10 1 -10 -6z"/>
<path d="M13340 9046 c0 -10 -9 -16 -22 -16 -12 0 -37 -5 -55 -12 -23 -8 -36
-9 -44 -1 -5 5 -21 8 -35 5 -35 -6 -32 -44 6 -74 34 -26 34 -24 -38 -127 -28
-39 -50 -61 -62 -61 -31 0 -24 -35 15 -74 31 -31 50 -76 26 -62 -14 9 -21 -35
-9 -58 8 -15 8 -21 -1 -24 -14 -5 -14 -35 1 -50 15 -15 -17 -88 -43 -95 -10
-3 -28 -22 -40 -42 -12 -20 -25 -32 -28 -27 -3 6 -5 -34 -4 -89 2 -82 0 -99
-13 -99 -8 0 -17 -7 -20 -15 -4 -8 -11 -12 -18 -8 -22 14 -35 11 -51 -13 -14
-21 -21 -23 -55 -18 -33 5 -40 4 -40 -9 0 -13 7 -15 30 -10 23 4 30 2 30 -10
0 -8 6 -17 13 -20 20 -8 51 -67 35 -68 -7 0 -4 -4 7 -8 11 -5 21 -12 21 -17 5
-32 19 -54 38 -60 11 -3 46 -22 75 -42 71 -46 108 -51 138 -17 32 34 45 32 41
-6 -3 -33 -3 -33 64 -44 20 -3 32 2 42 16 17 25 31 9 22 -27 -7 -28 1 -31 20
-7 11 16 13 15 25 -12 8 -17 19 -34 26 -38 8 -5 11 -12 8 -17 -3 -4 6 -15 20
-24 14 -9 25 -22 25 -29 0 -21 20 -35 41 -30 13 4 18 11 14 20 -4 11 -1 13 12
8 10 -4 26 -10 36 -13 12 -3 17 -11 14 -23 -8 -29 28 -24 51 6 11 14 23 45 27
68 4 23 12 47 17 54 7 8 5 19 -5 34 -14 18 -14 25 0 57 11 27 12 40 3 57 -6
11 -10 25 -9 31 4 22 -2 33 -16 28 -13 -6 -20 6 -16 29 0 4 -3 7 -8 7 -11 0
-35 125 -27 139 4 5 -3 16 -15 24 -19 14 -19 16 -4 25 29 16 10 66 -38 102
-22 16 -47 30 -54 30 -7 0 -13 7 -13 15 0 9 -11 27 -25 41 -14 14 -25 36 -25
49 0 17 -5 22 -17 19 -12 -3 -30 10 -51 36 -28 33 -30 40 -15 40 16 1 16 2 2
13 -34 26 -33 119 1 110 10 -3 21 0 24 6 4 6 12 11 17 11 6 0 8 -4 5 -9 -14
-22 26 -18 51 5 22 21 26 32 25 74 -1 42 2 50 17 50 10 0 24 7 31 15 7 8 23
15 36 15 14 0 25 8 29 19 3 11 12 18 18 15 9 -3 12 7 11 31 -2 35 -1 36 16 20
22 -20 40 -12 40 17 0 14 5 18 15 14 9 -3 15 0 15 9 0 8 5 15 11 15 7 0 9 -10
5 -25 -5 -19 -2 -25 9 -25 9 0 13 5 10 10 -3 6 -2 10 4 10 5 0 13 -5 17 -11 3
-6 15 -9 25 -6 10 3 22 1 25 -4 9 -15 18 -10 42 25 28 41 21 62 -23 70 -24 5
-36 14 -45 36 -16 38 -39 42 -71 13 -33 -30 -83 -45 -98 -30 -16 16 -111 16
-111 0 0 -6 -5 -13 -12 -15 -17 -6 -65 19 -72 37 -3 8 -22 22 -43 32 -21 9
-41 19 -45 21 -5 2 -8 -3 -8 -12z"/>
<path d="M6675 8990 c-4 -6 -12 -10 -18 -9 -26 3 -57 -1 -57 -8 0 -5 9 -19 19
-32 16 -21 21 -23 33 -10 8 8 13 20 10 27 -6 19 16 14 38 -8 12 -12 26 -18 31
-14 7 4 9 -1 5 -13 -10 -31 34 -56 77 -44 21 6 25 9 12 10 -27 1 -45 19 -38
37 3 10 -3 14 -19 14 -25 0 -58 27 -58 48 0 15 -26 16 -35 2z"/>
<path d="M13885 8990 c3 -5 8 -10 11 -10 2 0 4 5 4 10 0 6 -5 10 -11 10 -5 0
-7 -4 -4 -10z"/>
<path d="M7380 8900 c0 -5 4 -10 9 -10 6 0 13 5 16 10 3 6 -1 10 -9 10 -9 0
-16 -4 -16 -10z"/>
<path d="M6824 8838 c4 -23 36 -78 46 -78 12 0 1 -60 -15 -80 -16 -19 -8 -90
10 -90 17 0 24 -20 18 -52 -4 -22 -2 -26 14 -22 19 5 63 62 63 82 0 6 -13 18
-30 27 -16 9 -30 23 -30 32 0 14 2 14 20 -2 18 -16 20 -16 20 -2 0 19 38 31
80 25 27 -4 29 -3 15 12 -8 9 -12 20 -9 23 4 4 -6 23 -21 43 -24 31 -30 34
-39 22 -16 -22 -47 -7 -76 36 -25 36 -40 45 -40 25 0 -8 -4 -8 -14 0 -11 10
-14 9 -12 -1z"/>
<path d="M7067 8683 c-12 -11 -8 -23 8 -23 8 0 15 -9 15 -20 0 -15 7 -20 25
-20 31 0 32 12 1 44 -24 26 -37 31 -49 19z"/>
<path d="M9866 8201 c-5 -7 -18 -10 -31 -7 -21 5 -23 3 -22 -27 2 -31 3 -32
52 -33 28 0 64 -8 82 -17 48 -25 124 -19 105 8 -8 12 -33 17 -87 16 -59 -1
-74 7 -83 42 -6 22 -11 27 -16 18z"/>
<path d="M10213 8118 c-13 -6 -23 -18 -23 -27 1 -14 2 -14 13 -1 7 8 19 21 27
28 17 14 13 14 -17 0z"/>
<path d="M9780 8115 c0 -2 7 -8 15 -15 12 -10 15 -10 15 2 0 8 -7 15 -15 15
-8 0 -15 -1 -15 -2z"/>
<path d="M10118 8108 c-5 -15 9 -31 34 -41 28 -10 33 14 8 35 -26 21 -37 23
-42 6z"/>
<path d="M9780 8050 c0 -17 3 -19 19 -8 21 13 19 28 -5 28 -8 0 -14 -9 -14
-20z"/>
<path d="M12765 8038 c-11 -6 -27 -19 -36 -30 -10 -13 -29 -20 -56 -21 -35 -2
-39 -4 -30 -19 10 -15 77 -48 95 -46 4 1 6 9 4 20 -2 10 1 18 6 18 6 0 8 9 5
20 -8 30 14 51 46 43 23 -6 25 -5 12 10 -16 20 -19 20 -46 5z"/>
<path d="M11750 7916 c0 -4 10 -21 23 -38 16 -23 19 -32 9 -35 -10 -4 -10 -8
-1 -19 13 -16 39 -19 39 -4 0 15 26 12 40 -5 9 -11 16 -13 23 -6 7 7 2 25 -14
56 -21 39 -28 45 -56 45 -17 0 -38 3 -47 6 -9 3 -16 3 -16 0z"/>
<path d="M12131 7854 c5 -6 6 -26 3 -43 -5 -25 -3 -32 7 -30 16 2 42 -6 80
-26 25 -14 26 -14 27 17 1 56 -32 87 -100 91 -18 1 -23 -1 -17 -9z"/>
<path d="M11425 7810 c-3 -5 -1 -10 4 -10 6 0 11 5 11 10 0 6 -2 10 -4 10 -3
0 -8 -4 -11 -10z"/>
<path d="M11790 7764 c0 -4 7 -12 16 -19 24 -17 2 -55 -32 -55 -14 0 -22 -4
-19 -10 3 -5 15 -10 26 -10 10 0 19 5 19 10 0 6 9 10 20 10 21 0 27 30 14 64
-6 15 -44 23 -44 10z"/>
<path d="M11755 7650 c3 -5 10 -10 16 -10 5 0 9 5 9 10 0 6 -7 10 -16 10 -8 0
-12 -4 -9 -10z"/>
<path d="M8450 7309 c-7 -11 -9 -23 -6 -27 3 -3 6 -2 6 3 0 4 7 2 15 -5 13
-11 15 -8 15 19 0 36 -14 41 -30 10z"/>
</g>
</svg>
