<?xml version="1.0" standalone="no"?>
<!DOCTYPE svg PUBLIC "-//W3C//DTD SVG 20010904//EN"
 "http://www.w3.org/TR/2001/REC-SVG-20010904/DTD/svg10.dtd">
<svg version="1.0" xmlns="http://www.w3.org/2000/svg"
 width="788.303254pt" height="519.069431pt" viewBox="0 0 788.303254 519.069431"
 preserveAspectRatio="xMidYMid meet">
<metadata>
Created by potrace 1.15, written by Peter Selinger 2001-2017
</metadata>
<g transform="translate(-589.696746,1319.884348) scale(0.100000,-0.100000)"
fill="#222222" stroke="none">
<path d="M12600 13181 c0 -12 -9 -21 -25 -25 -14 -4 -25 -11 -25 -18 0 -6 -8
-4 -18 6 -18 15 -19 15 -30 -9 -6 -13 -23 -27 -36 -31 -14 -3 -28 -14 -31 -24
-9 -27 -97 -71 -118 -59 -13 8 -17 6 -17 -8 0 -11 -17 -28 -44 -43 -25 -13
-43 -28 -40 -32 11 -17 -7 -26 -36 -18 -26 7 -30 6 -30 -11 0 -10 4 -19 8 -19
4 0 13 -12 20 -27 24 -53 50 -95 67 -107 26 -19 26 -95 0 -110 -11 -6 -24 -17
-30 -24 -9 -11 -14 -10 -27 5 -9 10 -16 23 -15 28 1 6 -13 11 -31 13 l-33 3
16 -25 c10 -15 13 -31 9 -38 -5 -7 -7 -25 -5 -40 1 -16 -2 -28 -7 -28 -6 0
-15 -13 -21 -30 -5 -16 -16 -30 -23 -30 -14 0 -51 -32 -83 -74 -11 -14 -28
-25 -37 -26 -20 0 -24 -15 -8 -25 29 -18 -22 -105 -61 -105 -19 0 -49 -35 -49
-57 0 -8 11 -18 25 -25 19 -8 24 -17 21 -39 -2 -20 2 -29 15 -32 20 -5 27 -47
9 -47 -5 0 -10 -18 -10 -39 0 -22 -5 -43 -10 -46 -13 -8 -50 4 -50 16 0 6 5 7
12 3 7 -4 8 -3 4 5 -6 9 -11 9 -21 1 -9 -8 -17 -7 -26 2 -8 8 -20 13 -26 12
-7 -1 -22 -2 -33 -3 -26 -1 -64 -42 -49 -52 6 -4 8 -12 4 -18 -4 -7 -1 -19 7
-28 11 -14 11 -16 -4 -11 -10 4 -19 1 -22 -8 -3 -8 -17 -14 -31 -14 -23 0 -25
-3 -19 -22 9 -30 40 -69 47 -61 4 3 9 -1 13 -10 3 -9 12 -13 21 -10 15 6 63
-14 75 -32 4 -5 6 -27 4 -47 -2 -27 1 -38 10 -38 13 0 16 -7 13 -26 0 -4 5
-11 13 -15 10 -7 10 -9 -2 -9 -27 -1 11 -20 40 -20 17 0 21 -3 12 -9 -22 -13
-4 -58 29 -72 16 -6 34 -20 40 -30 11 -22 49 -26 49 -5 0 21 26 13 54 -17 29
-31 38 -34 34 -10 -2 10 9 23 27 32 17 9 32 19 33 24 2 4 13 7 23 7 11 0 18
-4 15 -9 -8 -13 25 -38 65 -49 43 -12 88 5 67 26 -9 9 -9 12 0 12 8 0 10 9 6
25 -8 34 18 33 63 -1 l33 -25 0 25 c0 19 -5 26 -20 26 -11 0 -20 6 -20 13 0 6
-7 25 -15 41 -21 40 -13 56 30 56 27 0 35 4 35 18 0 26 20 42 51 42 20 0 28 6
31 25 3 13 0 26 -6 29 -6 3 -1 8 11 11 20 7 37 36 34 62 -1 6 3 14 9 18 5 3
10 19 10 35 0 16 7 33 16 38 14 8 14 10 0 21 -20 17 -21 41 -1 41 18 0 18 5 5
30 -7 13 -6 21 5 30 12 10 14 29 10 89 -3 42 -2 81 2 87 5 5 31 17 58 26 53
16 70 42 36 53 -17 5 -19 13 -16 57 2 28 7 64 10 80 4 18 2 35 -7 45 -11 13
-11 17 0 21 50 16 81 79 82 164 0 29 -3 36 -15 32 -11 -4 -15 1 -15 17 0 12
-4 36 -10 53 -5 17 -12 48 -15 69 -5 28 -10 37 -20 33 -9 -3 -20 5 -28 21 -11
21 -12 32 -1 62 11 32 10 38 -7 57 -23 24 -24 59 -5 96 8 15 11 30 6 33 -5 3
-7 12 -4 19 3 7 -6 20 -20 30 -32 20 -36 20 -36 -3z m-175 -1407 c31 -20 32
-36 4 -32 -12 2 -26 13 -30 26 -10 26 -6 27 26 6z"/>
<path d="M13170 12425 c0 -25 -45 -40 -85 -28 -34 11 -35 10 -35 -14 0 -25 -1
-26 -20 -8 -16 15 -21 15 -25 4 -6 -17 -51 -23 -60 -9 -4 6 -12 7 -18 3 -18
-11 -50 -12 -69 -1 -12 5 -18 5 -18 -2 0 -5 -3 -9 -7 -9 -22 4 -43 -2 -56 -15
-19 -20 -13 -176 8 -192 8 -6 15 -16 15 -23 0 -6 4 -11 8 -11 4 0 14 -16 21
-35 16 -44 29 -45 23 -2 l-4 32 26 -29 c15 -17 29 -41 33 -55 3 -14 10 -31 15
-38 6 -7 3 -25 -8 -50 -9 -21 -18 -40 -19 -43 -1 -3 -9 -22 -18 -43 -11 -25
-14 -45 -8 -60 7 -18 4 -25 -15 -34 -12 -6 -26 -8 -29 -4 -10 9 -55 8 -55 -2
0 -4 -4 -5 -10 -2 -5 3 -10 2 -10 -3 0 -13 35 -22 64 -16 31 5 53 -20 37 -40
-18 -22 30 -52 58 -37 29 16 41 13 41 -9 0 -11 -7 -20 -15 -20 -8 0 -15 -4
-15 -10 0 -15 23 -60 31 -60 4 0 5 -28 3 -61 -4 -53 -2 -60 12 -55 8 3 20 6
25 6 5 0 9 15 9 34 0 28 3 33 19 29 13 -3 20 2 25 21 3 14 11 26 16 26 6 0 10
7 10 15 0 8 6 15 14 15 7 0 19 -7 26 -15 7 -8 20 -15 30 -15 10 0 20 7 24 15
3 8 14 15 25 15 11 0 23 5 26 10 10 17 53 12 57 -7 3 -14 8 -12 31 12 23 25
33 55 29 86 -2 15 37 15 88 2 40 -10 55 -11 61 -2 4 7 18 10 32 7 20 -4 27 0
31 17 6 23 57 51 75 41 5 -3 19 7 31 24 16 22 20 38 15 60 -5 23 -3 30 9 30 9
0 16 7 16 16 0 12 6 15 21 11 37 -10 69 12 69 49 0 26 -5 33 -25 38 -14 4 -25
13 -25 20 0 8 -9 16 -20 19 -11 3 -20 0 -20 -6 0 -6 -8 -4 -17 6 -16 16 -16
18 5 37 27 26 28 42 2 65 -11 10 -20 24 -20 32 0 8 -13 22 -29 31 -30 17 -41
38 -41 78 0 23 -32 57 -56 60 -23 4 -44 24 -44 43 0 10 -13 27 -30 39 -32 24
-48 29 -32 10 8 -10 4 -13 -13 -14 -14 -1 -32 -10 -41 -19 -17 -16 -18 -16
-25 3 -12 31 -26 35 -49 12 -22 -22 -26 -21 -77 16 -37 28 -53 30 -53 9z"/>
<path d="M13714 12085 c3 -8 0 -15 -6 -15 -7 0 -6 -5 2 -15 8 -10 21 -13 34
-9 30 9 31 12 11 34 -21 24 -50 27 -41 5z"/>
<path d="M11656 12032 c-7 -12 7 -27 27 -28 17 -2 17 -1 1 17 -19 21 -21 22
-28 11z"/>
<path d="M12876 12031 c-3 -5 -20 -12 -37 -16 -24 -5 -29 -11 -24 -26 4 -13 2
-19 -9 -19 -22 0 -20 -13 5 -36 19 -17 21 -18 30 -1 6 9 17 17 26 17 12 0 13
3 5 13 -8 10 -7 21 4 42 13 26 14 49 0 26z"/>
<path d="M11573 11764 c-43 -38 -46 -39 -76 -23 -16 9 -22 9 -25 0 -2 -6 -9
-11 -17 -11 -7 0 -18 -6 -24 -14 -8 -10 -23 -13 -46 -9 -30 5 -33 3 -40 -25
-7 -32 -42 -52 -92 -52 -13 0 -26 -8 -30 -17 -4 -10 -16 -31 -27 -46 -18 -25
-22 -26 -32 -12 -8 11 -14 13 -19 5 -5 -8 -14 -6 -31 4 -13 9 -39 18 -59 21
-20 2 -39 7 -44 9 -13 9 -32 -19 -25 -37 4 -12 -2 -18 -20 -23 -14 -3 -26 -13
-26 -21 0 -11 -7 -13 -31 -8 -23 5 -30 4 -27 -7 4 -16 -37 -58 -57 -58 -23 0
-18 -13 15 -45 24 -23 32 -26 44 -16 17 14 52 7 78 -16 16 -14 23 -14 65 0 35
11 51 13 61 5 9 -8 16 -6 26 8 14 19 32 15 77 -18 13 -9 20 -8 31 3 8 8 13 20
11 26 -3 8 6 10 31 6 24 -4 36 -2 36 6 0 6 7 11 15 11 8 0 15 8 15 19 0 10 6
24 13 30 19 15 77 26 77 13 0 -5 12 -12 26 -15 18 -3 24 -1 20 9 -7 17 10 19
18 2 3 -9 11 -6 24 10 11 12 27 22 36 22 9 0 16 4 16 9 0 5 12 9 28 8 35 0 92
24 92 40 0 7 4 13 9 13 5 0 11 14 15 30 6 32 32 40 54 18 9 -9 12 -9 12 1 0 9
8 11 23 8 19 -5 17 -3 -8 16 -48 35 -65 56 -65 77 0 23 -32 43 -55 34 -19 -8
-40 17 -24 27 6 3 1 9 -10 12 -15 3 -32 -5 -58 -29z m-213 -166 c0 -6 -6 -5
-15 2 -8 7 -15 14 -15 16 0 2 7 1 15 -2 8 -4 15 -11 15 -16z"/>
<path d="M12845 11639 c-10 -15 1 -23 20 -15 9 3 13 10 10 16 -8 13 -22 13
-30 -1z"/>
<path d="M10535 11471 c-4 -25 -13 -57 -22 -69 l-15 -24 64 3 c55 3 63 2 62
-14 -2 -14 3 -16 20 -11 33 10 47 25 41 45 -4 11 -2 19 4 19 6 0 11 12 11 28
0 24 -5 29 -47 40 -27 7 -62 16 -80 21 -31 8 -31 8 -38 -38z"/>
<path d="M10735 11427 c-16 -19 -18 -50 -3 -44 7 2 12 10 11 16 -4 14 12 14
38 1 16 -9 19 -7 19 15 0 21 -5 25 -27 25 -16 -1 -32 -6 -38 -13z"/>
<path d="M11975 11430 c-3 -5 -18 -10 -33 -10 -19 0 -31 -7 -37 -22 -6 -13
-17 -22 -25 -20 -11 3 -11 0 1 -14 11 -14 11 -18 1 -22 -7 -2 -26 -15 -42 -29
-16 -13 -35 -21 -41 -17 -9 5 -10 -1 -5 -20 10 -40 -1 -68 -24 -61 -22 7 -31
-5 -24 -31 4 -14 13 -19 32 -18 46 2 51 4 47 17 -3 6 -1 18 4 26 7 10 13 11
31 1 19 -10 25 -8 46 11 13 12 24 30 24 39 0 17 54 44 83 41 9 -1 17 2 17 8 0
6 7 8 15 5 8 -4 15 -1 15 6 0 6 3 9 8 6 4 -2 15 2 25 9 22 16 14 37 -32 78
-31 27 -74 36 -86 17z m-130 -170 c3 -5 -1 -10 -9 -10 -9 0 -16 5 -16 10 0 6
4 10 9 10 6 0 13 -4 16 -10z"/>
<path d="M12345 11419 c-11 -4 -41 -8 -67 -8 -35 -1 -48 -5 -48 -15 0 -8 9
-18 20 -21 11 -4 27 -19 35 -34 16 -32 39 -44 65 -36 9 3 23 -1 30 -10 16 -19
40 -19 40 0 0 17 16 20 25 5 3 -5 16 -10 28 -10 12 -1 35 -11 51 -24 16 -14
36 -21 47 -19 14 4 22 -2 30 -25 12 -34 57 -50 88 -30 15 9 23 7 42 -11 13
-12 29 -19 37 -16 7 2 23 -2 36 -10 26 -17 118 -15 124 3 2 6 10 8 18 5 8 -3
21 0 29 7 13 11 15 8 15 -14 0 -24 4 -27 27 -24 28 3 45 34 25 47 -5 3 -17 21
-26 39 -9 18 -21 30 -26 27 -5 -3 -11 -1 -15 5 -3 5 -17 10 -30 10 -28 0 -96
33 -118 58 -8 9 -17 26 -18 36 -5 25 -69 63 -69 41 0 -18 -75 -21 -85 -4 -5 6
-11 5 -19 -6 -15 -21 -50 -14 -82 16 -23 21 -35 24 -107 25 -45 1 -91 -2 -102
-7z"/>
<path d="M10444 11392 c8 -13 -23 -72 -39 -72 -8 0 -15 -4 -15 -9 0 -5 -11
-12 -25 -15 -29 -7 -25 -26 11 -43 34 -16 51 -8 73 36 13 28 15 42 7 55 -9 13
-7 20 7 30 16 12 16 14 1 20 -21 8 -26 8 -20 -2z"/>
<path d="M12146 11366 c27 -25 43 -32 56 -27 24 9 20 26 -7 26 -11 0 -31 8
-45 18 -41 29 -43 19 -4 -17z"/>
<path d="M11510 11364 c0 -3 10 -14 22 -24 21 -17 21 -19 6 -50 -9 -18 -14
-39 -11 -47 3 -7 -1 -13 -7 -13 -9 0 -7 -7 5 -20 22 -24 55 -26 55 -4 0 15 2
15 24 0 14 -9 27 -12 30 -7 3 5 24 6 47 4 l41 -5 -18 26 c-10 16 -23 25 -31
22 -9 -4 -19 6 -28 27 -18 41 -44 72 -72 86 -23 12 -63 15 -63 5z"/>
<path d="M13454 11333 c5 -12 -3 -15 -51 -17 -31 -2 -55 -53 -48 -99 8 -43 -8
-65 -32 -45 -10 8 -13 6 -13 -7 0 -12 -6 -16 -20 -12 -12 3 -20 0 -20 -7 0 -7
9 -21 20 -31 11 -10 20 -26 20 -35 0 -10 12 -25 26 -35 24 -16 25 -17 7 -30
-13 -11 -14 -14 -4 -15 8 0 27 12 42 26 22 21 30 24 47 15 26 -14 59 -14 64 0
2 5 24 13 48 16 25 3 49 12 53 20 7 11 12 11 23 2 11 -9 14 -9 14 1 0 7 6 10
14 7 9 -4 16 3 19 20 4 20 -3 32 -27 54 -37 32 -75 144 -56 163 18 18 11 21
-60 22 -55 0 -70 -3 -66 -13z"/>
<path d="M10281 11208 c-7 -21 -18 -38 -25 -38 -8 0 -25 -9 -39 -20 -14 -11
-37 -20 -50 -20 -32 0 -40 -36 -15 -64 10 -11 18 -27 18 -37 0 -9 7 -22 15
-29 9 -7 13 -15 10 -18 -3 -3 1 -13 9 -21 13 -14 13 -23 -1 -66 -9 -28 -20
-51 -25 -53 -14 -6 -9 -32 6 -32 8 0 17 -7 20 -16 9 -24 7 -34 -6 -29 -14 5
-38 -37 -38 -65 0 -16 -16 -50 -58 -123 -15 -25 -23 -58 -25 -97 -1 -32 -6
-62 -9 -66 -4 -4 -5 -18 -2 -30 4 -17 1 -26 -10 -30 -9 -3 -16 -12 -16 -20 0
-8 -9 -14 -20 -14 -11 0 -20 4 -20 10 0 5 -7 7 -15 4 -8 -4 -15 -1 -15 5 0 7
7 14 15 17 12 5 13 10 4 20 -6 8 -18 14 -27 14 -19 0 -64 -51 -58 -67 3 -6 -1
-17 -9 -23 -7 -6 -16 -22 -19 -35 -4 -14 -14 -25 -22 -25 -13 0 -14 -3 -5 -13
6 -8 7 -17 3 -21 -4 -4 -2 -6 3 -4 12 4 15 -4 15 -37 0 -19 -10 -29 -40 -45
-41 -21 -60 -51 -60 -96 0 -35 -43 -32 -81 6 -28 28 -59 31 -59 6 0 -17 -46
-56 -67 -56 -10 0 -24 -9 -31 -21 -8 -12 -19 -18 -28 -15 -18 7 -18 -13 0 -33
17 -19 8 -85 -12 -87 -7 -1 -20 -2 -29 -3 -15 -1 -13 -6 10 -26 15 -14 35 -25
43 -25 17 0 56 -20 66 -35 4 -5 6 -16 3 -24 -3 -7 9 -26 27 -42 26 -23 41 -29
72 -27 30 2 43 -3 57 -21 11 -13 19 -28 19 -35 1 -14 50 -51 50 -36 0 20 28
10 46 -17 10 -16 19 -23 22 -15 2 6 12 12 22 12 9 0 23 6 29 13 6 8 29 22 51
32 22 10 40 21 40 25 0 5 11 11 24 14 14 3 34 19 45 35 19 26 24 28 45 18 13
-6 22 -17 19 -23 -8 -21 11 -23 49 -5 28 13 35 20 28 31 -16 24 -12 70 5 70 8
0 15 6 15 14 0 10 9 14 25 12 27 -3 47 -16 25 -16 -9 0 -8 -5 4 -19 9 -10 21
-32 25 -47 5 -22 16 -31 42 -37 47 -12 163 -16 170 -6 3 5 20 3 37 -3 27 -10
34 -10 41 1 6 9 11 10 15 2 12 -19 24 -12 19 9 -4 14 -1 20 7 18 7 -2 22 14
33 35 24 43 37 43 106 -7 75 -54 92 -73 86 -99 -4 -15 0 -29 13 -40 23 -21 52
-13 52 14 0 20 15 26 25 9 11 -18 45 -11 45 9 0 11 -4 22 -10 26 -6 3 -6 15 0
30 6 15 6 27 0 30 -17 10 -11 25 9 25 11 0 23 5 27 11 3 6 24 9 45 7 37 -3 39
-2 39 24 l0 28 66 -37 c56 -30 70 -34 86 -24 10 6 23 9 27 7 5 -3 8 4 7 15 0
11 -7 24 -15 29 -16 9 -20 32 -22 145 -1 44 -6 83 -12 86 -6 4 -5 20 3 43 13
39 6 76 -15 76 -18 0 -78 57 -71 69 3 5 -1 15 -10 22 -13 11 -21 10 -46 -4
-41 -24 -80 -22 -104 6 -22 26 -46 74 -50 102 -1 11 -5 34 -8 51 -4 26 0 34
24 52 16 12 33 22 38 22 17 0 8 33 -15 56 -25 26 -31 49 -9 41 11 -4 11 -1 2
19 -6 13 -14 24 -19 24 -4 0 -5 11 -1 24 4 18 0 28 -17 39 -12 9 -26 14 -30
11 -5 -3 -18 0 -29 6 l-20 11 20 -35 c11 -21 15 -38 10 -41 -6 -4 -10 -3 -10
2 0 4 -5 1 -10 -7 -5 -8 -7 -25 -4 -37 6 -21 4 -21 -25 -10 -17 6 -31 14 -31
18 0 6 -31 17 -55 19 -5 0 -26 17 -47 37 -20 19 -41 32 -46 29 -6 -3 -14 -1
-17 5 -4 5 -13 8 -21 5 -13 -5 -64 40 -64 57 0 4 -16 21 -35 38 -19 17 -35 40
-35 50 0 10 -9 24 -20 31 -25 16 -25 33 -2 50 15 11 19 27 19 93 1 94 -17 125
-73 125 -22 0 -33 5 -36 18 -3 10 -15 18 -27 19 -36 3 -65 38 -83 103 -3 9
-10 -1 -17 -22z m56 -272 c-3 -8 3 -22 14 -32 10 -9 19 -28 19 -41 0 -25 10
-29 27 -12 16 16 56 -14 59 -46 1 -14 -1 -25 -6 -25 -4 0 -13 -22 -20 -49 -9
-40 -16 -50 -36 -54 -19 -3 -24 0 -23 12 1 9 -2 27 -8 40 l-9 23 -18 -26 c-9
-15 -14 -31 -11 -36 3 -5 1 -11 -5 -15 -5 -3 -10 -11 -10 -17 0 -6 3 -8 7 -5
3 4 14 0 24 -9 20 -18 55 -12 43 7 -4 8 -3 9 4 5 7 -4 12 -13 12 -20 0 -16
-38 -28 -54 -18 -16 10 -85 11 -91 2 -7 -11 -53 11 -60 28 -8 21 6 62 21 62 8
0 14 -4 14 -10 0 -5 5 -10 10 -10 6 0 10 7 10 15 0 8 16 21 34 29 33 14 35 17
29 53 -3 21 -11 43 -18 48 -10 9 -10 14 1 30 8 10 12 27 8 37 -3 11 1 20 10
24 9 3 13 10 10 15 -3 5 0 9 6 9 7 0 10 -6 7 -14z m623 -326 c0 -5 -4 -10 -10
-10 -5 0 -10 5 -10 10 0 6 5 10 10 10 6 0 10 -4 10 -10z m-536 -16 c4 -10 1
-14 -6 -12 -15 5 -23 28 -10 28 5 0 13 -7 16 -16z m-454 -228 c0 -3 -4 -8 -10
-11 -5 -3 -10 -1 -10 4 0 6 5 11 10 11 6 0 10 -2 10 -4z"/>
<path d="M11446 11188 c2 -18 11 -38 19 -44 8 -6 12 -14 8 -17 -3 -4 1 -7 9
-7 23 0 30 71 9 87 -31 24 -49 16 -45 -19z"/>
<path d="M13222 11103 c14 -3 15 -9 7 -30 -12 -31 -10 -33 19 -22 42 16 22 61
-26 58 -16 -1 -16 -2 0 -6z"/>
<path d="M13010 11092 c0 -7 -8 -12 -17 -12 -15 -1 -13 -5 9 -24 22 -19 24
-25 12 -30 -8 -3 -12 -10 -9 -16 3 -5 1 -10 -6 -10 -9 0 -10 -3 -3 -10 5 -5
19 -7 32 -4 19 6 21 11 16 48 -6 38 -34 87 -34 58z"/>
<path d="M13186 11034 c-9 -24 -7 -28 9 -14 17 14 20 30 6 30 -5 0 -12 -7 -15
-16z"/>
<path d="M13148 10993 c-10 -2 -15 -10 -11 -19 3 -8 -1 -14 -10 -14 -16 0 -33
-18 -25 -26 3 -2 28 3 57 12 51 15 52 16 35 35 -9 10 -20 18 -23 18 -3 -1 -14
-3 -23 -6z"/>
<path d="M13065 10970 c3 -5 8 -10 11 -10 2 0 4 5 4 10 0 6 -5 10 -11 10 -5 0
-7 -4 -4 -10z"/>
<path d="M13170 10930 c0 -5 5 -10 11 -10 5 0 7 5 4 10 -3 6 -8 10 -11 10 -2
0 -4 -4 -4 -10z"/>
<path d="M10100 10841 c-14 -27 -13 -41 4 -41 7 0 19 -7 26 -15 18 -21 40 -19
40 5 0 11 -4 20 -8 20 -5 0 -14 11 -20 25 -14 30 -28 32 -42 6z"/>
<path d="M11007 10627 c-3 -8 1 -14 8 -14 7 0 11 6 8 14 -3 7 -6 13 -8 13 -2
0 -5 -6 -8 -13z"/>
<path d="M10840 10579 c0 -5 5 -7 10 -4 6 3 10 8 10 11 0 2 -4 4 -10 4 -5 0
-10 -5 -10 -11z"/>
<path d="M11030 10490 c0 -5 5 -10 10 -10 6 0 10 5 10 10 0 6 -4 10 -10 10 -5
0 -10 -4 -10 -10z"/>
<path d="M11435 10462 c3 -7 -1 -15 -9 -18 -9 -3 -16 -12 -16 -20 0 -8 -9 -14
-20 -14 -25 0 -27 -36 -3 -62 16 -18 16 -19 -4 -24 -12 -3 -24 -13 -27 -21 -3
-8 -11 -11 -16 -8 -6 4 -23 4 -38 0 l-27 -7 22 -18 c12 -9 19 -20 16 -24 -3
-3 2 -9 11 -12 14 -5 15 -9 4 -16 -9 -7 -7 -8 7 -4 12 3 31 -3 45 -14 14 -11
19 -20 13 -20 -7 0 -13 -7 -13 -16 0 -13 7 -15 34 -10 24 5 39 2 49 -8 12 -13
19 -11 51 12 20 14 44 41 52 59 16 31 17 32 48 20 28 -11 70 -7 126 13 3 1 20
1 38 0 18 -1 39 4 47 10 9 7 20 8 32 2 10 -5 37 -7 59 -5 41 5 41 5 31 34 -9
22 -18 29 -39 29 -15 0 -28 -4 -28 -9 0 -15 -32 -20 -75 -13 -33 6 -43 4 -56
-12 -15 -18 -19 -19 -55 -5 -22 8 -43 25 -49 37 -5 12 -17 22 -25 23 -63 3
-71 7 -130 69 -34 36 -59 59 -55 52z"/>
<path d="M11060 10451 c0 -5 7 -15 17 -22 15 -13 15 -12 4 9 -12 23 -21 28
-21 13z"/>
<path d="M11138 10325 c26 -42 29 -44 75 -43 45 1 47 2 32 18 -9 10 -24 16
-33 13 -10 -2 -36 9 -59 26 l-42 30 27 -44z"/>
<path d="M12010 10266 c0 -2 7 -9 15 -16 9 -7 15 -8 15 -2 0 5 -7 12 -15 16
-8 3 -15 4 -15 2z"/>
<path d="M8228 10080 c-3 -21 0 -34 9 -37 7 -3 13 -11 13 -19 0 -8 8 -14 18
-14 26 0 49 -21 56 -52 5 -20 3 -28 -8 -28 -14 0 -20 -47 -6 -55 14 -8 -2 -55
-19 -55 -17 0 -51 -51 -51 -76 0 -21 39 -56 53 -47 18 11 67 4 84 -12 8 -8 19
-13 24 -10 5 4 9 0 9 -8 0 -21 59 -44 70 -28 5 9 13 5 29 -15 11 -14 21 -30
21 -34 0 -15 84 -17 101 -3 9 8 35 16 58 18 32 3 46 -1 69 -20 16 -13 39 -27
53 -30 39 -10 64 -32 51 -47 -11 -14 -9 -44 6 -99 7 -26 6 -42 -3 -59 -18 -34
-9 -79 22 -108 16 -14 29 -20 31 -14 2 7 15 3 33 -10 29 -21 30 -22 59 -4 22
13 30 14 30 4 0 -9 3 -9 10 2 9 13 13 12 26 -5 15 -20 16 -19 13 5 -1 14 2 33
6 43 5 11 3 23 -5 30 -10 10 -12 8 -7 -5 10 -28 -19 -11 -33 20 -20 42 -22 62
-4 62 28 0 54 -20 54 -41 0 -12 11 -34 25 -51 14 -16 25 -25 25 -19 0 7 8 7
25 1 14 -5 25 -7 25 -4 0 2 9 0 21 -6 18 -10 20 -19 17 -60 l-3 -48 43 -18
c32 -13 41 -22 37 -33 -15 -37 -17 -73 -6 -98 7 -19 8 -39 2 -60 -13 -45 -4
-71 24 -69 15 1 21 6 18 16 -2 8 3 5 13 -7 9 -13 22 -23 30 -23 7 0 30 -11 50
-25 20 -14 45 -25 55 -25 11 0 19 -4 19 -9 0 -22 47 -80 69 -86 17 -4 22 -11
18 -26 -3 -12 1 -23 14 -29 10 -6 19 -18 19 -26 0 -17 61 -97 68 -89 3 3 19
-14 35 -36 22 -31 32 -37 39 -27 6 8 8 0 6 -24 -1 -21 3 -43 10 -50 16 -16 16
-48 0 -49 -7 0 -1 -6 14 -13 15 -6 34 -20 41 -30 8 -11 31 -20 60 -23 33 -4
51 -12 58 -24 5 -11 17 -19 26 -19 13 0 15 -9 11 -52 l-4 -53 39 -2 39 -1 -5
39 c-4 28 -1 39 8 39 26 0 35 67 10 76 -20 8 -21 100 -2 107 8 3 28 -8 45 -24
36 -34 39 -35 45 -11 3 14 6 12 15 -10 15 -35 26 -40 57 -26 23 10 28 10 36
-5 12 -20 40 -11 32 11 -5 11 -2 14 10 9 11 -4 14 -2 10 9 -3 8 1 14 10 14 8
0 17 6 19 12 4 10 10 10 30 1 21 -9 30 -9 47 3 11 8 22 12 22 7 1 -4 2 -15 3
-23 1 -16 76 -24 76 -9 0 5 -7 9 -16 9 -14 0 -77 56 -79 70 0 3 -16 26 -35 52
-33 47 -34 47 -78 41 -34 -5 -43 -3 -38 6 9 15 -21 40 -47 41 -10 0 -29 11
-43 25 -14 14 -30 23 -35 19 -5 -3 -8 -2 -7 3 5 20 -14 49 -40 61 -27 12 -29
15 -28 75 0 49 5 65 20 78 20 16 20 16 -2 28 -12 6 -19 17 -16 25 3 7 -2 16
-11 20 -9 3 -13 11 -10 16 4 6 1 17 -5 25 -6 8 -9 19 -5 24 3 6 -1 24 -10 41
-12 23 -13 35 -5 50 6 11 8 24 5 29 -3 5 0 11 6 13 6 2 -1 16 -16 30 -17 17
-25 34 -21 45 3 11 -5 30 -19 48 -20 24 -31 29 -64 28 -24 -1 -44 4 -52 13 -9
11 -15 12 -26 3 -10 -9 -17 -9 -25 -1 -7 7 -19 12 -28 12 -9 0 -25 6 -35 14
-17 13 -18 17 -6 40 8 14 12 29 8 32 -3 3 3 15 13 27 14 15 17 24 9 33 -6 7
-8 22 -4 34 4 12 0 26 -9 36 -9 9 -14 20 -11 25 4 5 1 9 -5 9 -8 0 -10 -9 -6
-25 4 -14 1 -28 -6 -35 -66 -55 -83 -61 -106 -38 -9 9 -12 9 -12 -3 0 -8 5
-20 12 -27 8 -8 8 -12 1 -12 -6 0 -8 -11 -5 -25 2 -14 8 -25 12 -25 4 0 10
-16 12 -35 2 -19 2 -35 -2 -35 -24 1 -80 81 -80 116 0 17 -4 34 -9 40 -6 5
-11 31 -13 57 -3 48 -3 49 -51 65 -40 14 -52 25 -80 72 -20 34 -45 61 -65 70
-17 8 -32 20 -32 25 0 6 -18 11 -39 10 -21 0 -37 -3 -35 -7 6 -9 -78 -4 -93 5
-6 4 -9 21 -7 39 2 18 -2 38 -10 47 -8 9 -19 29 -25 44 -6 15 -19 30 -28 34
-28 10 -62 44 -57 57 3 7 -6 21 -18 32 l-23 19 18 -22 c18 -21 18 -23 1 -51
-13 -23 -26 -31 -56 -35 -47 -6 -56 -13 -40 -29 18 -18 14 -41 -9 -61 -15 -13
-24 -15 -33 -8 -7 6 -16 8 -19 4 -4 -3 -10 2 -13 12 -5 11 -1 21 9 27 26 14
20 35 -12 51 -25 12 -31 13 -35 1 -3 -9 -15 -12 -33 -8 -22 4 -30 1 -38 -17
-20 -46 -60 -31 -46 17 10 36 2 48 -55 87 -23 15 -52 39 -64 52 -28 30 -36 31
-43 5 -3 -11 -10 -20 -17 -20 -6 0 -8 5 -5 10 4 6 -13 10 -44 10 -38 0 -56 5
-71 20 -12 12 -18 25 -15 29 2 5 -2 11 -10 15 -17 6 -20 -5 -4 -21 7 -7 6 -12
-5 -16 -10 -4 -16 -1 -16 8 0 30 -65 54 -86 32 -4 -4 -15 0 -24 8 -16 15 -18
13 -22 -15z m207 -290 c3 -5 1 -10 -4 -10 -6 0 -11 5 -11 10 0 6 2 10 4 10 3
0 8 -4 11 -10z m-33 -22 c-7 -7 -12 -8 -12 -2 0 14 12 26 19 19 2 -3 -1 -11
-7 -17z m-8 -45 c4 -9 2 -21 -4 -27 -7 -7 -10 -5 -10 7 0 9 -7 17 -15 17 -8 0
-15 5 -15 10 0 17 37 11 44 -7z m486 -233 c0 -5 -2 -10 -4 -10 -3 0 -8 5 -11
10 -3 6 -1 10 4 10 6 0 11 -4 11 -10z m814 -513 c-11 -6 -12 -13 -3 -29 10
-19 9 -20 -15 -16 -18 4 -34 -2 -52 -18 -14 -13 -22 -24 -18 -24 4 0 5 -2 2
-5 -3 -3 -17 -1 -31 4 -21 8 -24 7 -21 -7 2 -9 0 -24 -6 -32 -9 -13 -11 -13
-20 0 -6 8 -8 27 -6 42 3 16 0 29 -7 32 -11 4 34 10 59 7 6 -1 27 6 47 14 27
11 35 19 30 32 -5 12 -2 15 10 10 9 -3 16 -3 16 1 -3 18 2 22 15 10 12 -11 12
-14 0 -21z m-159 -157 c3 -5 1 -10 -4 -10 -6 0 -11 5 -11 10 0 6 2 10 4 10 3
0 8 -4 11 -10z"/>
<path d="M11640 9910 c0 -14 -52 -60 -62 -54 -4 3 -8 -8 -8 -24 0 -35 -36 -72
-71 -72 -44 0 -101 -21 -96 -34 7 -17 -12 -36 -35 -36 -19 0 -25 -25 -8 -35 8
-5 7 -11 0 -21 -18 -21 9 -77 28 -61 11 9 19 5 38 -18 13 -17 24 -36 24 -43 0
-8 9 -25 19 -39 11 -13 18 -30 15 -38 -3 -7 10 -26 30 -42 39 -31 44 -40 21
-45 -13 -2 -12 -8 5 -35 15 -25 27 -33 49 -33 16 0 36 -6 43 -13 18 -18 54
-18 69 -1 9 11 9 21 0 40 -6 14 -11 34 -11 45 0 23 -54 79 -76 79 -17 0 -17 5
-4 31 9 15 7 21 -5 25 -19 8 -20 24 -1 24 19 0 24 18 18 58 -4 30 -3 32 28 32
l32 0 -6 75 c-6 75 -6 75 19 75 22 0 24 3 18 33 -3 17 -12 39 -19 48 -8 8 -14
27 -14 40 0 13 -9 30 -20 37 -11 7 -20 8 -20 2z"/>
<path d="M7849 9712 c-31 -23 -36 -32 -33 -59 1 -18 5 -37 9 -43 3 -5 1 -10
-4 -10 -22 0 -10 -26 20 -42 35 -20 60 -23 75 -8 8 8 19 7 38 -1 33 -15 45 -5
22 20 -10 11 -13 21 -7 25 5 3 18 -4 28 -16 23 -29 69 -38 59 -13 -5 14 -2 16
19 11 18 -5 25 -2 25 8 0 8 -3 16 -7 18 -5 2 -15 17 -24 33 -10 17 -26 34 -38
40 -12 5 -21 13 -21 17 0 5 -8 8 -17 8 -10 0 -29 9 -43 20 -33 26 -58 24 -101
-8z"/>
<path d="M8010 9730 c0 -12 28 -25 36 -17 3 3 -4 10 -15 17 -15 7 -21 7 -21 0z"/>
<path d="M8085 9705 c16 -13 31 -22 34 -20 5 6 -41 44 -54 44 -5 0 3 -11 20
-24z"/>
<path d="M8170 9720 c0 -5 -9 -18 -20 -28 -20 -19 -20 -19 18 -34 22 -9 47
-12 58 -7 14 5 28 1 45 -12 l24 -20 -25 3 c-20 2 -24 -1 -22 -17 2 -11 5 -21
6 -23 7 -7 96 45 96 56 0 8 8 10 25 6 15 -4 25 -2 25 5 0 6 -8 11 -18 11 -10
0 -23 5 -28 10 -6 6 -43 11 -82 11 -71 1 -77 4 -73 37 1 6 -5 12 -14 12 -8 0
-15 -4 -15 -10z"/>
<path d="M7715 9680 c10 -32 13 -36 25 -24 7 7 3 17 -11 30 -22 19 -22 19 -14
-6z"/>
<path d="M8386 9605 c-3 -8 -16 -15 -30 -15 -19 0 -23 -4 -19 -20 6 -24 -4
-26 -29 -3 -21 19 -23 8 -5 -30 14 -31 24 -34 30 -9 4 16 5 16 6 0 0 -10 7
-18 15 -18 8 0 16 -7 20 -15 3 -8 9 -14 14 -13 13 5 82 -45 87 -64 10 -31 31
-40 68 -30 38 11 62 -1 69 -33 2 -13 11 -20 25 -19 17 0 23 -7 28 -32 3 -18 3
-44 0 -57 -7 -25 15 -52 23 -29 2 7 14 12 27 12 13 0 28 6 32 14 4 8 19 16 33
18 20 2 24 8 22 27 -1 14 7 34 19 47 14 15 19 29 15 42 -4 11 -3 23 2 26 5 3
7 16 5 29 -4 18 -16 28 -43 37 -22 7 -42 22 -48 36 -6 12 -20 27 -30 33 -16 9
-21 7 -25 -10 -3 -11 -4 -29 -2 -40 3 -15 -2 -19 -26 -19 -16 0 -29 -4 -29
-10 0 -5 -7 -10 -15 -10 -8 0 -15 9 -15 19 0 13 -11 23 -34 31 -18 6 -41 19
-51 30 -9 10 -30 22 -46 25 -16 4 -29 11 -29 16 0 12 -37 49 -49 49 -5 0 -11
-7 -15 -15z"/>
<path d="M6796 9491 c-4 -6 -13 -8 -21 -4 -12 4 -15 -4 -15 -40 0 -25 4 -49
10 -52 5 -3 7 0 4 9 -3 8 3 19 15 25 11 6 18 17 15 25 -3 8 2 16 12 18 15 3
16 4 1 16 -10 8 -17 9 -21 3z"/>
<path d="M9875 9420 c-3 -6 1 -7 9 -4 18 7 21 14 7 14 -6 0 -13 -4 -16 -10z"/>
<path d="M6730 9396 c0 -9 -4 -16 -9 -16 -10 0 -24 -51 -26 -95 -3 -51 -5 -56
-16 -49 -8 4 -7 9 2 15 11 6 11 11 2 20 -16 16 -43 4 -43 -21 0 -13 -7 -20
-20 -20 -13 0 -20 -7 -20 -20 0 -11 -7 -23 -15 -26 -8 -4 -15 -13 -15 -21 0
-13 -3 -13 -15 -3 -9 7 -14 19 -11 25 2 7 0 18 -5 26 -6 10 -9 5 -9 -17 0 -29
-2 -30 -32 -26 l-32 5 22 -28 c26 -32 28 -60 6 -69 -8 -3 -12 -2 -9 4 3 6 2
10 -3 10 -5 0 -21 -25 -36 -55 -19 -38 -34 -57 -51 -61 -18 -4 -25 -13 -25
-29 0 -33 -23 -52 -69 -60 -22 -3 -42 -13 -45 -21 -3 -8 -12 -14 -20 -14 -8 0
-17 -8 -21 -17 -3 -10 -17 -26 -31 -37 -21 -15 -30 -16 -50 -7 -20 9 -31 7
-57 -7 -63 -35 -87 -55 -87 -73 0 -20 -38 -41 -75 -41 -17 0 -20 -6 -17 -34 5
-40 37 -73 54 -56 7 7 22 12 35 12 16 0 21 4 16 16 -4 12 0 14 20 9 14 -4 28
-2 31 4 11 17 34 13 66 -10 16 -12 46 -23 67 -24 52 -3 49 -1 63 -36 11 -25
11 -35 1 -51 -8 -13 -9 -23 -3 -27 6 -3 13 -31 16 -61 4 -30 10 -56 15 -58 16
-5 -1 -52 -17 -50 -10 2 -18 -5 -20 -17 -2 -12 0 -16 5 -9 4 5 35 16 67 24 40
9 60 19 63 31 3 10 16 25 30 34 15 11 22 22 19 32 -4 9 1 21 10 28 16 11 16
14 1 36 -23 32 -22 48 3 42 11 -3 20 0 20 6 0 40 37 -30 44 -84 4 -31 75 -64
146 -67 8 0 20 -4 25 -8 6 -4 26 -13 46 -19 32 -10 41 -9 73 10 28 16 47 20
81 17 29 -4 51 -1 62 8 10 7 29 14 43 14 14 0 32 5 40 10 10 6 20 4 33 -8 18
-16 18 -15 12 10 -5 19 -1 32 14 47 28 28 26 41 -4 41 -14 0 -29 8 -35 20 -6
11 -15 18 -21 15 -12 -8 -69 33 -69 50 0 18 -58 31 -73 16 -15 -15 -43 -14
-70 3 -15 10 -43 14 -87 12 -53 -3 -72 1 -106 20 l-41 23 -27 -29 c-35 -40
-48 -38 -68 10 -9 22 -12 38 -6 37 6 -1 13 4 15 11 3 6 0 12 -6 12 -6 0 -11
10 -11 22 0 20 1 21 20 3 15 -14 23 -15 34 -6 11 9 15 8 20 -6 4 -10 2 -19 -3
-21 -6 -2 -11 -8 -11 -13 0 -13 49 -7 62 8 6 7 16 13 22 13 8 0 11 12 8 34 -4
35 -4 35 39 38 41 3 44 5 41 31 -3 31 4 34 30 10 17 -15 18 -15 18 0 0 10 7
17 16 17 9 0 12 5 8 12 -5 7 -2 9 8 5 9 -3 21 0 27 6 10 9 12 9 9 -2 -2 -10 8
-17 27 -20 18 -4 34 -15 40 -29 5 -12 14 -22 18 -22 5 0 20 -9 34 -20 36 -28
43 -25 43 16 0 31 3 36 20 31 22 -6 45 16 35 33 -4 7 3 19 15 27 17 12 19 17
9 24 -10 6 -11 13 -2 31 28 56 19 108 -29 165 -7 9 -17 30 -23 47 -7 22 -18
32 -37 36 -17 3 -38 22 -61 55 -19 28 -40 49 -46 48 -24 -6 -61 17 -61 37 0
11 -7 23 -15 26 -12 5 -13 9 -4 21 14 16 0 36 -17 25 -18 -12 -34 -70 -21 -75
7 -2 9 -8 4 -13 -4 -4 -15 0 -25 10 -12 14 -14 20 -4 23 6 3 12 19 12 37 0 18
5 37 11 43 8 8 8 13 0 17 -6 4 -11 0 -11 -8z m-175 -616 c3 -5 2 -10 -4 -10
-5 0 -13 5 -16 10 -3 6 -2 10 4 10 5 0 13 -4 16 -10z m39 -48 c2 -4 1 -14 -4
-22 -7 -11 -12 -12 -21 -3 -6 6 -8 16 -5 22 8 13 23 14 30 3z"/>
<path d="M11762 9231 c-7 -4 -25 -6 -39 -3 -19 4 -24 1 -21 -9 7 -18 57 -14
77 6 16 16 5 20 -17 6z"/>
<path d="M11811 9224 c0 -11 3 -14 6 -6 3 7 2 16 -1 19 -3 4 -6 -2 -5 -13z"/>
<path d="M8635 9208 c-4 -11 -18 -18 -32 -18 -17 0 -27 -7 -30 -20 -4 -15 -11
-19 -26 -14 -15 5 -19 3 -14 -10 3 -8 1 -19 -6 -23 -12 -8 -94 -14 -183 -13
-48 0 -51 -1 -47 -22 4 -19 -2 -25 -37 -36 -22 -7 -51 -10 -64 -6 -19 4 -26 1
-31 -15 -3 -12 -13 -21 -21 -21 -8 0 -14 -7 -14 -15 0 -8 -10 -20 -22 -26 -13
-6 -24 -13 -26 -14 -2 -2 5 -16 14 -31 l18 -27 -26 6 c-17 5 -33 1 -49 -12
-13 -10 -34 -21 -45 -25 -16 -5 -20 -12 -17 -26 3 -11 11 -20 19 -20 7 0 16
-5 20 -12 5 -8 2 -9 -9 -5 -9 3 -19 2 -22 -4 -4 -5 -15 -3 -27 6 -20 13 -24
12 -55 -20 -18 -19 -33 -41 -33 -50 0 -8 -4 -15 -10 -15 -5 0 -10 -6 -10 -13
0 -24 -45 -57 -78 -57 -20 0 -42 -10 -64 -30 -18 -16 -36 -30 -41 -30 -13 0
-31 -21 -45 -53 -8 -20 -17 -27 -28 -23 -9 3 -22 6 -31 6 -8 0 -13 6 -10 13 2
6 -9 20 -25 30 -37 22 -38 22 -38 -9 0 -23 -3 -25 -24 -20 -14 3 -36 1 -49 -5
-17 -8 -30 -8 -44 -1 -29 16 -65 4 -58 -19 4 -13 1 -19 -9 -19 -11 0 -17 10
-18 33 -1 17 -2 41 -2 51 -1 11 -10 20 -21 22 -25 3 -55 10 -77 19 -11 4 -20
-1 -29 -17 -7 -13 -10 -25 -8 -27 2 -2 -3 -8 -12 -14 -12 -7 -22 -4 -42 13
-27 24 -27 40 -1 40 9 0 12 -5 8 -11 -4 -8 0 -8 15 0 22 12 29 31 10 31 -5 0
-7 -4 -4 -10 3 -5 2 -10 -2 -10 -5 0 -13 10 -18 23 -10 21 -30 27 -30 8 0 -5
-3 -12 -6 -15 -3 -3 -6 13 -8 36 -2 33 1 39 14 35 19 -8 20 7 0 23 -12 10 -15
10 -15 0 0 -10 -5 -9 -17 3 -20 17 -44 7 -56 -26 -4 -11 -12 -15 -19 -11 -10
6 -11 5 -1 -8 7 -8 10 -18 6 -21 -3 -4 2 -16 12 -27 17 -18 17 -21 2 -38 -21
-23 -9 -40 27 -40 20 0 35 -8 48 -25 11 -14 25 -24 32 -21 9 3 16 -6 20 -27 3
-18 15 -43 27 -55 37 -40 4 -98 -43 -73 -28 15 -34 4 -14 -25 23 -36 21 -41
-29 -60 -25 -10 -43 -22 -39 -27 3 -5 0 -9 -5 -9 -6 0 -11 -9 -11 -19 0 -11
-4 -23 -10 -26 -23 -14 8 -116 35 -114 31 4 47 -4 57 -27 9 -18 17 -24 32 -20
10 3 28 0 38 -5 16 -9 20 -7 25 10 3 11 9 18 14 15 5 -3 9 7 9 23 0 44 13 56
33 33 20 -24 49 -27 41 -5 -4 8 -12 15 -20 15 -16 0 -18 18 -5 39 8 12 13 9
28 -17 14 -24 23 -30 40 -25 14 3 23 1 23 -6 0 -17 18 -13 50 10 50 38 77 5
46 -56 -20 -38 -10 -63 14 -35 9 11 27 20 38 20 11 0 22 6 24 12 7 21 -15 80
-32 86 -16 6 -49 42 -50 55 0 4 6 7 14 7 8 0 13 6 12 13 0 6 4 13 9 15 6 1 12
-10 13 -25 5 -38 21 -56 37 -43 9 7 21 7 39 0 45 -17 66 -12 76 16 7 17 15 24
25 20 8 -3 22 -9 30 -12 11 -5 15 1 15 21 0 17 -4 24 -12 19 -8 -5 -9 -2 -5
11 4 9 2 23 -4 31 -8 10 -5 16 10 26 24 14 28 48 7 48 -22 0 -41 29 -28 42 6
6 8 18 4 27 -5 14 -4 14 20 -1 25 -16 26 -16 38 8 13 24 35 29 76 18 15 -4 20
-11 17 -25 -3 -10 -10 -19 -16 -19 -7 0 -7 -4 1 -12 9 -9 16 -7 32 7 11 10 20
24 20 32 0 24 49 15 62 -12 8 -18 15 -22 23 -15 7 6 20 7 29 4 10 -4 16 -2 14
4 -2 6 6 17 17 25 16 12 25 13 55 2 19 -7 54 -16 78 -20 48 -8 54 4 26 56 -15
29 -15 30 5 20 11 -6 36 -11 56 -11 32 0 36 2 30 21 -6 18 -4 20 14 14 12 -4
28 -1 36 5 10 9 19 9 36 0 12 -7 24 -8 28 -3 3 4 17 14 31 21 14 7 36 19 50
28 17 10 46 14 93 12 37 -2 67 0 67 3 0 3 11 11 25 17 21 10 26 9 36 -10 11
-20 12 -20 22 -3 7 13 6 24 -1 36 -10 15 -8 19 11 25 28 8 37 23 32 49 -14 70
-16 75 -50 91 -24 11 -32 20 -26 28 10 12 7 96 -4 134 -5 13 -3 22 4 22 6 0
10 15 9 33 -1 19 2 39 6 45 3 6 2 13 -4 17 -5 3 -10 34 -11 68 0 34 -4 71 -9
82 -7 18 -8 19 -15 3z m-983 -700 c-6 -6 -14 -9 -17 -6 -3 3 -3 13 1 22 5 12
10 14 17 7 8 -8 8 -14 -1 -23z m83 -38 c0 -8 -10 -14 -23 -15 -28 -2 -52 33
-31 46 16 10 54 -12 54 -31z m-431 -38 c-1 -2 -12 2 -24 8 -17 9 -19 14 -9 26
10 12 14 11 24 -8 6 -13 11 -24 9 -26z m73 -118 c-3 -3 -12 -4 -19 -1 -8 3 -5
6 6 6 11 1 17 -2 13 -5z m-97 -130 c0 -25 -35 -12 -38 14 -3 21 -1 22 17 12
12 -6 21 -18 21 -26z"/>
<path d="M6565 9200 c-3 -5 -2 -10 4 -10 5 0 13 5 16 10 3 6 2 10 -4 10 -5 0
-13 -4 -16 -10z"/>
<path d="M9430 8799 c0 -5 -4 -8 -8 -5 -4 2 -9 -6 -10 -19 -2 -30 13 -40 37
-23 14 10 16 19 10 36 -8 22 -29 31 -29 11z"/>
<path d="M7156 8765 c4 -9 0 -15 -8 -15 -10 0 -15 -10 -15 -27 0 -16 -4 -39
-8 -52 -7 -21 -6 -23 14 -16 13 4 28 1 38 -7 14 -11 15 -10 9 10 -4 12 -3 22
2 22 11 0 31 69 24 88 -2 6 -17 12 -33 12 -21 0 -27 -4 -23 -15z"/>
<path d="M9485 8770 c3 -5 8 -10 11 -10 2 0 4 5 4 10 0 6 -5 10 -11 10 -5 0
-7 -4 -4 -10z"/>
<path d="M6730 8734 c0 -5 15 -21 34 -36 26 -21 33 -33 30 -55 -3 -24 1 -28
24 -29 15 -1 36 -3 47 -5 32 -6 24 24 -11 40 -26 11 -31 19 -30 45 1 29 -1 31
-32 28 -18 -2 -40 2 -48 8 -7 7 -14 9 -14 4z"/>
<path d="M6663 8698 c-8 -19 -5 -25 24 -45 18 -12 45 -26 58 -29 32 -8 33 15
4 62 -25 42 -70 48 -86 12z"/>
<path d="M9543 8680 c4 -14 7 -28 7 -32 0 -13 17 -9 22 5 3 6 -4 21 -15 32
-20 20 -20 20 -14 -5z"/>
<path d="M7280 8630 c0 -5 5 -10 11 -10 5 0 7 5 4 10 -3 6 -8 10 -11 10 -2 0
-4 -4 -4 -10z"/>
<path d="M9503 8602 c-7 -5 -9 -13 -4 -21 7 -11 11 -9 20 8 12 21 6 27 -16 13z"/>
<path d="M6231 8219 c-9 -27 -8 -30 7 -27 10 2 18 14 20 31 4 37 -13 34 -27
-4z"/>
<path d="M6183 8146 c4 -9 -1 -19 -11 -25 -14 -8 -13 -10 11 -16 15 -4 34 -5
42 -1 22 8 3 50 -25 54 -17 3 -21 0 -17 -12z"/>
<path d="M6232 8066 c2 -18 8 -26 21 -26 14 0 16 4 7 19 -16 32 -30 35 -28 7z"/>
<path d="M6285 8070 c3 -5 8 -10 11 -10 2 0 4 5 4 10 0 6 -5 10 -11 10 -5 0
-7 -4 -4 -10z"/>
<path d="M7260 8062 c0 -5 11 -19 24 -31 25 -23 25 -23 19 -2 -5 21 -43 50
-43 33z"/>
</g>
</svg>
