<?xml version="1.0" standalone="no"?>
<!DOCTYPE svg PUBLIC "-//W3C//DTD SVG 20010904//EN"
 "http://www.w3.org/TR/2001/REC-SVG-20010904/DTD/svg10.dtd">
<svg version="1.0" xmlns="http://www.w3.org/2000/svg"
 width="1072.415324pt" height="407.199299pt" viewBox="0 0 1072.415324 407.199299"
 preserveAspectRatio="xMidYMid meet">
<metadata>
Created by potrace 1.15, written by Peter Selinger 2001-2017
</metadata>
<g transform="translate(-507.084676,1198.917594) scale(0.100000,-0.100000)"
fill="#222222" stroke="none">
<path d="M13908 11968 c-3 -20 -9 -23 -50 -23 -26 -1 -50 -3 -53 -6 -3 -3 4
-17 15 -32 11 -14 20 -30 20 -35 0 -22 27 -32 60 -22 21 6 38 6 45 0 6 -5 31
-10 55 -12 l45 -3 8 -53 c5 -29 12 -50 17 -47 8 5 20 -42 20 -80 0 -12 7 -28
15 -35 8 -7 15 -21 15 -32 0 -10 14 -32 31 -47 24 -22 31 -38 33 -72 3 -38 0
-46 -19 -56 -18 -8 -27 -7 -39 5 -13 14 -14 13 -10 -5 7 -25 -48 -63 -90 -63
-15 0 -40 -9 -55 -21 -16 -12 -44 -24 -62 -28 -28 -6 -33 -11 -31 -29 3 -18
-2 -22 -22 -22 -14 0 -26 -5 -26 -11 0 -5 -4 -7 -10 -4 -5 3 -10 1 -10 -5 0
-6 -17 -18 -37 -26 -92 -37 -93 -38 -87 -58 5 -15 2 -18 -15 -13 -17 4 -21 1
-21 -17 0 -23 -34 -46 -65 -46 -10 0 -15 -10 -15 -29 0 -33 -20 -54 -44 -45
-12 5 -20 -2 -29 -25 -13 -35 -47 -43 -47 -11 0 23 -6 25 -24 8 -10 -9 -10
-17 -3 -30 13 -20 -8 -52 -29 -44 -10 4 -10 -2 -2 -25 6 -16 8 -39 4 -51 -3
-12 1 -29 8 -38 8 -8 16 -24 18 -35 3 -14 11 -19 26 -18 14 2 22 -3 22 -12 0
-11 8 -15 28 -12 21 2 32 13 49 47 13 29 29 47 45 51 18 4 22 11 20 35 -2 25
0 27 10 14 12 -14 56 -19 83 -10 15 5 59 -15 74 -34 7 -9 17 -16 22 -16 5 0 0
9 -11 20 -11 11 -21 25 -21 30 -1 6 -2 22 -4 38 -1 15 -5 35 -9 45 -6 12 -4
17 8 17 14 0 15 4 6 20 -11 21 -8 25 56 78 20 18 24 26 15 32 -9 5 0 10 25 14
68 12 91 10 120 -13 18 -14 30 -18 34 -11 4 7 13 10 21 9 8 -1 21 0 29 4 44
17 70 14 86 -10 8 -14 13 -31 10 -39 -3 -7 0 -17 7 -21 7 -5 27 -38 46 -75 19
-38 41 -68 48 -68 8 0 16 -7 19 -15 4 -8 14 -15 23 -15 14 -1 14 -2 -3 -15
-10 -7 -15 -19 -11 -25 4 -6 -1 -20 -11 -31 -23 -26 -28 -113 -8 -156 8 -18
19 -33 24 -33 5 0 12 -10 15 -22 4 -11 19 -32 33 -45 14 -13 19 -23 12 -23
-10 0 -9 -5 3 -18 11 -12 13 -22 7 -32 -5 -8 -10 -32 -10 -54 0 -33 3 -38 20
-33 11 3 20 1 20 -5 0 -5 4 -7 9 -4 5 3 18 -2 29 -12 24 -20 55 -132 41 -146
-5 -6 -9 -29 -9 -53 0 -25 -5 -43 -11 -43 -8 0 -7 -6 2 -17 11 -13 11 -15 1
-9 -9 5 -15 1 -19 -13 -4 -15 -13 -21 -34 -21 -17 0 -32 -6 -35 -15 -5 -11
-10 -13 -19 -5 -10 8 -15 8 -20 -1 -5 -7 -23 -9 -51 -5 -39 5 -44 3 -44 -14 0
-12 -13 -26 -32 -36 -58 -29 -59 -32 -38 -72 11 -20 20 -43 20 -51 0 -17 -52
-101 -62 -101 -5 0 -8 -7 -8 -15 0 -8 -5 -15 -11 -15 -5 0 -8 -4 -4 -9 3 -6
-7 -8 -22 -7 -16 2 -34 4 -42 5 -8 0 -11 4 -8 7 9 10 -41 46 -53 39 -6 -4 -8
-10 -5 -15 8 -13 -44 -21 -65 -10 -11 6 -20 17 -20 26 0 10 -7 13 -24 8 -13
-3 -37 1 -54 10 -24 12 -41 13 -88 6 -42 -7 -61 -6 -72 2 -11 10 -17 9 -27 -5
-7 -9 -19 -17 -28 -17 -17 0 -33 42 -23 59 4 5 -15 26 -41 46 -25 19 -54 48
-63 63 -32 50 -150 152 -177 152 -11 0 -40 16 -65 35 -25 19 -48 32 -50 29 -3
-2 -11 2 -18 11 -7 8 -19 15 -28 15 -14 0 -14 2 0 18 15 17 14 42 -2 42 -4 0
-6 -10 -2 -22 3 -14 1 -19 -6 -14 -6 4 -19 -2 -29 -14 -10 -11 -25 -20 -33
-20 -9 0 -21 -5 -28 -12 -9 -9 -15 -9 -24 0 -7 7 -16 12 -22 12 -5 0 -1 -6 9
-14 15 -11 17 -17 8 -27 -8 -11 -8 -19 0 -34 23 -39 81 -95 99 -95 10 0 18 -5
18 -11 0 -13 77 -83 121 -112 16 -11 29 -25 29 -33 0 -8 9 -19 20 -26 11 -7
20 -17 20 -21 0 -5 10 -23 23 -40 12 -18 22 -43 21 -57 0 -14 4 -31 10 -38 5
-8 12 -23 13 -35 2 -11 25 -40 51 -64 26 -23 62 -57 80 -74 18 -18 43 -40 56
-50 21 -16 23 -16 23 -1 0 9 -5 23 -10 30 -9 11 -7 13 8 11 11 -2 38 3 60 11
22 7 47 14 55 15 8 1 24 5 36 8 29 10 63 -27 47 -51 -6 -9 -18 -16 -27 -14
-10 2 -16 -4 -16 -14 0 -10 -6 -25 -14 -33 -22 -24 -10 -108 16 -114 11 -3 17
-10 13 -16 -8 -15 18 -14 32 0 9 9 18 8 35 -3 17 -11 31 -12 55 -5 26 8 36 6
59 -12 26 -21 29 -21 41 -5 10 14 15 15 28 4 8 -7 13 -16 10 -20 -6 -10 44
-60 61 -60 7 0 22 -15 33 -34 25 -40 47 -51 59 -30 7 13 13 10 35 -16 15 -17
27 -37 27 -45 0 -7 24 -22 53 -34 33 -14 59 -32 69 -49 31 -51 53 -64 116 -65
62 -2 112 16 112 40 0 16 30 17 81 2 20 -7 46 -8 56 -4 10 4 35 9 56 11 30 2
41 -2 53 -21 13 -20 19 -22 35 -12 18 11 17 13 -8 39 -21 22 -23 28 -10 28 10
0 14 5 11 15 -4 8 -1 15 5 15 6 0 11 17 11 38 0 21 5 43 11 49 8 8 7 17 -5 34
-22 32 -21 59 4 59 21 0 26 16 11 39 -6 10 -5 23 2 35 6 12 10 29 8 39 -1 10
3 25 10 33 9 11 9 21 0 40 -6 14 -11 43 -11 64 0 22 -4 40 -10 40 -11 0 -32
69 -24 82 17 27 104 -25 104 -63 0 -9 6 -28 13 -41 12 -24 13 -24 32 -5 20 19
20 18 29 -6 8 -23 14 -24 72 -24 53 1 64 4 64 18 0 9 10 19 23 23 33 9 37 8
37 -9 0 -8 -4 -15 -10 -15 -5 0 -10 -9 -10 -20 0 -21 10 -24 46 -14 25 7 51
57 53 104 1 19 7 38 14 42 17 11 82 4 100 -10 16 -14 27 -6 27 20 0 25 40 24
47 -1 3 -11 18 -25 33 -31 36 -15 71 -5 63 17 -5 13 -1 15 20 11 15 -3 27 -1
27 3 0 5 12 9 26 9 26 0 26 1 22 54 -4 50 -3 54 13 45 15 -8 19 -5 24 13 2 13
4 34 4 48 0 14 0 34 1 45 0 11 0 42 0 69 0 27 5 55 11 62 6 8 8 26 4 44 -4 20
-2 37 7 47 10 13 10 17 1 20 -21 7 -15 49 10 66 l22 15 -27 22 c-16 12 -28 31
-28 43 0 20 -6 22 -62 25 -78 3 -120 26 -129 70 -4 18 -3 35 2 38 5 3 9 10 9
16 0 7 -5 6 -15 -2 -8 -6 -18 -9 -22 -7 -5 3 -9 -3 -10 -13 -1 -11 3 -17 10
-14 7 2 13 -6 13 -21 2 -30 -11 -32 -28 -5 -15 23 -34 26 -41 6 -9 -23 -42
-24 -68 -3 -16 13 -20 21 -11 24 6 3 12 15 12 27 0 12 5 27 12 34 9 9 3 15
-25 27 -42 17 -49 28 -12 19 21 -5 25 -3 25 15 0 12 -4 21 -10 21 -5 0 -10 11
-10 25 0 14 5 25 10 25 12 0 13 10 2 28 -7 9 -16 10 -40 1 -41 -14 -82 1 -99
36 -9 21 -9 25 4 25 20 0 16 103 -5 145 -9 17 -17 36 -18 43 -3 17 -34 52 -47
52 -10 0 -44 28 -94 80 -28 28 -34 41 -31 68 3 25 0 32 -14 32 -25 0 -28 68
-3 82 7 4 10 18 8 32 -3 15 1 32 10 40 17 18 31 86 23 113 -9 27 -66 24 -79
-3 -5 -12 -20 -27 -32 -32 -21 -10 -25 -8 -31 10 -4 12 -1 24 7 29 11 6 10 12
-4 27 -9 10 -14 22 -10 25 10 11 43 8 43 -3 0 -5 5 -10 10 -10 6 0 5 8 -2 20
-10 16 -10 24 0 38 23 32 25 43 11 70 -7 15 -14 34 -15 42 0 8 -2 22 -3 32 0
9 -15 21 -31 27 -19 6 -35 22 -43 40 -12 28 -14 29 -29 15 -14 -14 -20 -14
-53 -3 -21 8 -40 20 -42 26 -3 7 -11 13 -18 13 -6 0 -20 9 -29 19 -10 11 -25
17 -37 14 -15 -4 -19 0 -19 19 0 14 -15 42 -34 64 -28 31 -37 37 -47 27 -7 -7
-19 -13 -26 -13 -20 0 -15 34 7 47 16 11 21 10 28 -4 6 -10 16 -14 26 -10 15
6 15 10 2 34 -8 16 -23 37 -35 47 -12 11 -21 29 -21 41 0 12 -9 30 -20 40 -11
10 -20 24 -20 31 0 14 -35 28 -49 20 -5 -3 -11 0 -14 7 -7 18 -46 15 -58 -4
-5 -8 -9 -9 -10 -4 0 6 -4 -1 -8 -15 -5 -14 -4 -33 1 -44 6 -10 7 -33 4 -50
-4 -18 -3 -36 1 -40 5 -4 8 -25 8 -46 0 -32 -2 -37 -17 -29 -11 6 -18 5 -21
-4 -4 -8 -18 2 -42 26 -28 30 -40 36 -60 31 -14 -3 -25 -10 -25 -15 0 -18 -21
-9 -51 22 -16 16 -27 35 -23 40 3 6 -5 20 -18 33 -12 12 -30 33 -38 45 -24 38
-51 60 -66 54 -8 -3 -22 -2 -31 2 -10 5 -28 7 -39 6 -12 -1 -28 5 -37 13 -22
22 -35 20 -39 -6z m632 -393 c0 -8 -4 -15 -10 -15 -5 0 -7 -6 -4 -14 3 -8 0
-17 -6 -21 -14 -9 6 -35 28 -35 18 0 82 -47 82 -61 0 -17 -29 -9 -40 11 -9 16
-15 18 -37 9 -30 -11 -63 -3 -63 16 0 7 -12 23 -27 35 -16 12 -28 25 -28 28 0
4 -4 13 -9 21 -6 10 -5 12 2 7 7 -4 12 -1 12 8 0 9 9 16 20 16 11 0 20 -7 20
-15 0 -22 31 -18 37 5 6 23 23 27 23 5z m-40 -161 c0 -8 -5 -12 -10 -9 -6 4
-8 11 -5 16 9 14 15 11 15 -7z m-767 -414 c8 0 7 -4 -1 -12 -9 -9 -16 -8 -30
6 -16 18 -16 19 1 12 10 -3 24 -6 30 -6z m1046 -91 c29 16 31 15 29 -29 -1
-22 -4 -40 -8 -40 -11 0 -36 25 -55 55 -15 24 -15 27 -2 17 12 -10 21 -11 36
-3z m59 -148 c3 -19 0 -22 -17 -16 -17 5 -20 3 -14 -11 5 -13 2 -15 -15 -9
-16 5 -22 2 -22 -9 0 -35 -17 -13 -18 24 -2 39 -1 39 28 33 20 -4 30 -2 30 7
0 21 25 4 28 -19z m-46 -116 c15 -4 32 -13 39 -21 6 -8 20 -14 29 -14 12 0 21
-10 25 -29 4 -18 14 -31 28 -35 19 -5 20 -8 7 -16 -13 -9 -13 -12 3 -24 22
-17 22 -25 -2 -19 -12 3 -24 -3 -34 -17 -22 -32 -46 -20 -44 22 2 35 3 35 -68
24 -39 -5 -47 1 -35 24 7 14 7 25 -1 38 -10 15 -9 24 4 42 8 12 13 30 10 39
-3 10 -2 12 4 4 4 -6 20 -14 35 -18z m400 -140 c6 -14 15 -25 20 -25 4 0 8 -7
8 -16 0 -14 -3 -14 -15 -4 -9 7 -15 8 -15 2 0 -17 -59 -33 -82 -21 -13 7 -23
7 -32 0 -9 -7 -16 -7 -24 1 -18 18 -14 31 8 25 11 -3 20 -1 20 4 0 5 11 7 25
3 19 -5 25 -2 25 9 0 17 26 47 41 47 5 0 15 -11 21 -25z m-365 -11 c-3 -3 -12
-4 -19 -1 -8 3 -5 6 6 6 11 1 17 -2 13 -5z m43 -906 c0 -6 -7 -5 -15 2 -8 7
-15 17 -15 22 0 6 7 5 15 -2 8 -7 15 -17 15 -22z m-1060 -118 c0 -5 7 -10 15
-10 8 0 15 -4 15 -10 0 -5 -9 -10 -20 -10 -11 0 -20 2 -20 4 0 2 -3 11 -6 20
-3 9 -1 16 5 16 6 0 11 -4 11 -10z"/>
<path d="M14470 11520 c0 -5 4 -10 9 -10 6 0 13 5 16 10 3 6 -1 10 -9 10 -9 0
-16 -4 -16 -10z"/>
<path d="M14834 10585 c5 -11 9 -24 10 -30 5 -22 32 -55 46 -55 12 1 12 3 -2
11 -9 5 -15 15 -13 22 3 6 -7 26 -21 42 -19 21 -25 24 -20 10z"/>
<path d="M7212 11555 c6 -14 15 -25 20 -25 17 0 23 -2 34 -11 7 -6 16 -4 23 5
9 10 9 15 -1 19 -7 3 -30 12 -50 21 l-38 16 12 -25z"/>
<path d="M7317 11568 c-27 -10 -27 -11 -11 -29 22 -24 37 -24 29 0 -4 14 -1
20 12 23 10 2 14 6 8 9 -5 4 -23 2 -38 -3z"/>
<path d="M7433 11499 c7 -22 -23 -38 -51 -28 -12 5 -22 13 -22 19 0 5 -7 10
-15 10 -8 0 -15 -6 -15 -13 0 -18 31 -80 44 -89 22 -15 -5 -7 -41 12 l-36 19
-19 -21 c-10 -12 -18 -27 -18 -34 0 -7 -9 -18 -20 -24 -15 -8 -19 -17 -15 -31
5 -14 -2 -27 -24 -46 -17 -15 -31 -33 -31 -40 0 -7 -4 -13 -10 -13 -5 0 -10
-11 -10 -24 0 -13 -7 -29 -15 -36 -8 -7 -12 -17 -9 -22 4 -6 -2 -8 -15 -3 -16
5 -21 2 -21 -12 0 -15 -2 -16 -10 -3 -11 18 -16 13 -25 -27 -4 -20 -3 -33 4
-33 17 0 22 -36 10 -64 -7 -14 -17 -26 -22 -26 -5 0 -4 -6 2 -14 6 -7 9 -21 5
-30 -13 -34 23 -15 45 24 12 22 26 40 30 40 5 0 9 12 9 27 0 16 9 34 23 46 18
15 23 27 20 59 l-3 41 48 -8 c44 -6 46 -5 41 14 -3 14 1 22 13 26 9 3 25 14
35 25 14 15 15 23 6 34 -9 11 -6 15 16 22 16 4 33 8 38 8 6 1 13 5 16 10 4 4
17 3 29 -4 12 -7 20 -8 16 -2 -3 5 9 20 27 32 18 13 43 38 56 57 l23 35 -23
24 c-12 13 -27 24 -33 24 -6 0 -21 12 -34 28 -13 15 -21 20 -19 11z"/>
<path d="M10490 11330 c0 -5 -7 -7 -15 -4 -17 7 -21 -11 -4 -22 6 -3 8 -16 5
-27 -8 -30 16 -107 32 -107 8 0 20 -7 26 -16 10 -14 14 -13 31 3 25 23 45 58
45 79 0 10 5 14 16 10 8 -3 12 -2 9 4 -3 6 -2 10 4 10 6 0 8 6 6 13 -6 14 -55
39 -55 27 0 -5 4 -10 9 -12 19 -7 -9 -48 -32 -48 -20 0 -29 10 -46 50 -21 48
-31 61 -31 40z"/>
<path d="M10734 11332 c-20 -13 -25 -42 -7 -42 9 0 13 3 10 7 -4 3 -2 12 5 20
12 15 8 25 -8 15z"/>
<path d="M9314 11273 c-10 -30 -34 -78 -34 -69 0 5 -7 3 -15 -4 -12 -10 -18
-10 -30 0 -18 15 -40 3 -26 -13 13 -17 -14 -77 -34 -77 -9 0 -13 -4 -10 -10 6
-10 -3 -11 -68 -14 -16 -1 -33 -9 -38 -19 -17 -30 -45 -39 -92 -27 -45 12 -94
31 -140 55 -55 28 -64 22 -62 -42 0 -32 7 -68 13 -80 9 -16 10 -29 3 -41 -5
-10 -8 -41 -5 -68 5 -58 5 -57 -2 -110 -4 -26 -2 -44 5 -48 20 -13 12 -54 -15
-75 -15 -12 -33 -21 -40 -21 -8 0 -11 -6 -7 -16 4 -10 -1 -17 -15 -21 -12 -3
-24 -13 -27 -23 -3 -10 -12 -20 -19 -23 -8 -3 -24 -24 -37 -46 -12 -23 -31
-43 -40 -46 -10 -4 -28 -24 -41 -46 -13 -23 -27 -38 -35 -35 -7 3 -13 1 -13
-4 0 -6 -11 -10 -25 -10 -16 0 -25 -6 -25 -15 0 -18 -5 -19 -30 -3 -16 11 -23
9 -40 -10 -14 -14 -33 -22 -55 -22 -19 0 -35 -5 -35 -11 0 -7 -9 -9 -23 -5
-32 8 -64 -24 -72 -71 -12 -71 -14 -73 -41 -62 -14 5 -29 7 -34 4 -5 -3 -11
-1 -15 5 -14 22 -22 -2 -17 -50 4 -44 2 -52 -19 -69 -56 -44 -77 -69 -69 -81
11 -17 0 -50 -16 -50 -8 0 -14 -6 -14 -13 0 -21 -41 -40 -93 -42 -26 -2 -56
-10 -65 -18 -9 -8 -22 -12 -29 -10 -6 2 -13 -6 -15 -19 -2 -15 -11 -24 -25
-26 -12 -2 -25 -12 -28 -22 -3 -11 -24 -29 -46 -42 -43 -24 -46 -30 -24 -48 8
-7 15 -9 15 -5 0 4 17 -3 37 -15 24 -14 58 -23 90 -25 57 -2 77 -16 87 -61 4
-16 18 -38 33 -49 14 -11 48 -42 74 -69 26 -26 52 -46 57 -42 6 3 24 -7 41
-23 24 -22 31 -38 31 -65 0 -20 5 -36 10 -36 6 0 10 -6 10 -14 0 -8 7 -16 14
-19 12 -5 13 -13 6 -38 -11 -39 -7 -43 65 -60 27 -6 57 -18 66 -26 12 -10 37
-13 82 -12 51 2 73 -2 102 -19 20 -12 43 -22 51 -22 8 0 22 -13 31 -29 11 -19
42 -40 94 -65 84 -39 109 -44 109 -21 0 22 33 18 48 -6 7 -12 16 -18 19 -15 3
3 23 -4 44 -14 25 -13 48 -18 68 -14 35 7 47 -2 79 -61 37 -69 52 -113 39
-118 -22 -7 28 -72 77 -98 27 -15 72 -52 101 -83 29 -31 58 -56 64 -56 13 0
63 -67 80 -107 8 -19 28 -35 64 -51 29 -12 56 -22 60 -22 5 0 20 -9 34 -20 30
-23 59 -26 66 -6 4 9 14 12 25 9 11 -2 23 0 26 6 4 6 16 11 26 11 31 0 30 41
-3 76 -27 29 -27 32 -11 48 13 14 14 22 6 39 -6 12 -16 49 -22 83 -11 55 -15
61 -43 70 -25 7 -31 14 -30 32 2 13 -6 41 -18 63 -21 43 -21 61 1 34 17 -21
30 -19 30 4 0 11 5 21 11 23 5 2 -3 23 -20 48 -21 32 -27 48 -19 57 7 9 1 24
-21 55 -17 24 -32 59 -34 78 -5 52 -34 105 -65 120 -27 13 -26 14 27 21 29 4
57 13 61 19 4 7 13 9 19 6 7 -4 11 1 11 12 0 11 7 23 15 26 12 4 14 10 5 25
-13 26 -13 31 4 31 17 0 27 34 19 70 -4 22 -1 28 18 33 19 5 20 8 9 22 -12 14
-11 18 1 26 8 5 24 9 36 9 12 0 23 5 25 10 2 6 29 15 62 20 32 5 64 15 72 21
19 16 18 69 -1 69 -8 0 -15 3 -15 6 0 9 29 34 37 32 19 -5 72 34 81 60 8 24 7
33 -6 47 -10 10 -11 15 -5 11 7 -4 30 -8 51 -9 37 -2 38 -1 40 33 2 22 10 40
22 49 11 7 20 20 20 27 0 8 7 14 15 14 8 0 15 5 15 11 0 7 12 9 35 5 22 -4 35
-3 35 4 0 5 7 10 15 10 8 0 15 4 15 8 0 5 9 18 20 30 12 12 16 22 10 22 -5 0
-10 10 -10 23 0 16 -3 18 -9 8 -7 -10 -13 -11 -30 -2 -11 7 -21 17 -21 24 0 7
-9 23 -20 35 -17 18 -18 22 -5 22 13 0 14 4 4 23 -11 19 -11 21 3 9 11 -8 18
-9 22 -3 4 6 21 8 38 4 l32 -6 -22 31 c-13 17 -31 34 -42 37 -11 4 -20 12 -20
20 0 10 9 11 41 4 48 -11 59 -6 59 26 0 13 4 27 10 30 5 3 17 21 26 40 9 19
23 35 30 35 10 0 13 8 9 31 -4 22 -2 28 6 23 9 -5 10 -2 6 11 -8 19 17 44 44
45 17 0 17 0 22 83 2 52 0 61 -25 86 l-28 29 30 11 c25 8 30 15 28 38 -3 40 9
58 29 42 12 -10 16 -10 23 2 5 8 6 15 1 17 -5 1 -5 17 -2 35 5 21 13 32 24 31
13 -1 15 4 11 21 -4 16 3 30 25 53 21 20 31 40 31 60 0 17 4 32 9 34 5 2 3 30
-4 63 -7 33 -14 54 -14 48 -1 -20 -21 -15 -21 5 0 10 -3 22 -7 26 -13 13 -12
38 2 32 20 -7 26 35 9 62 -11 17 -22 22 -37 18 -12 -3 -28 -6 -35 -6 -7 0 -10
-5 -7 -10 10 -16 -4 -48 -23 -55 -9 -3 -28 -28 -41 -55 -26 -54 -34 -57 -103
-41 -25 6 -38 5 -38 -1 0 -6 -7 -4 -16 3 -15 12 -16 11 -10 -9 6 -16 3 -22 -8
-22 -9 0 -16 8 -16 20 0 11 -9 36 -21 56 -14 26 -17 40 -10 47 6 6 11 14 11
18 0 11 -74 -2 -82 -15 -5 -7 -8 -4 -8 7 0 11 -8 17 -25 17 -14 0 -33 4 -43 9
-46 23 -81 29 -86 15 -4 -11 -11 -11 -32 -3 -15 5 -34 7 -41 5 -7 -3 -29 2
-48 11 -32 15 -36 15 -53 0 -23 -21 -106 -24 -156 -5 -21 9 -54 32 -73 52 -19
20 -44 36 -56 36 -12 0 -39 9 -60 20 -45 24 -46 24 -53 3z m371 -1561 c2 -63
-29 -53 -42 12 -3 20 14 38 31 33 5 -2 10 -22 11 -45z m-41 -41 c-3 -3 -15 6
-27 18 l-22 24 27 -19 c14 -10 24 -21 22 -23z m89 -52 c23 -12 37 -28 37 -42
0 -4 -9 -3 -20 3 -11 6 -20 9 -20 6 0 -2 -3 -11 -6 -19 -4 -12 0 -14 15 -10
27 7 27 -4 -1 -27 -13 -10 -23 -26 -23 -37 0 -30 -43 -29 -57 1 -6 14 -18 26
-26 26 -20 0 -41 30 -42 57 0 12 -5 23 -12 25 -7 3 -5 7 6 11 10 4 15 3 11 -3
-3 -6 1 -11 9 -11 29 -3 34 -4 42 -11 4 -5 21 -8 38 -8 23 0 27 3 16 9 -8 6
-18 7 -23 4 -5 -3 -13 1 -18 8 -15 25 37 37 74 18z"/>
<path d="M10679 11278 c-1 -7 -1 -16 0 -20 0 -5 -4 -8 -10 -8 -5 0 -7 -5 -3
-11 3 -6 17 -8 30 -5 19 5 24 2 24 -13 0 -11 4 -22 8 -25 10 -6 9 19 -2 52 -9
26 -45 50 -47 30z"/>
<path d="M13775 11270 c-3 -5 -1 -10 4 -10 6 0 11 5 11 10 0 6 -2 10 -4 10 -3
0 -8 -4 -11 -10z"/>
<path d="M13730 11243 c0 -4 5 -15 10 -23 8 -13 10 -13 10 2 0 9 -4 20 -10 23
-5 3 -10 3 -10 -2z"/>
<path d="M10180 11171 c0 -5 9 -7 20 -4 11 3 20 7 20 9 0 2 -9 4 -20 4 -11 0
-20 -4 -20 -9z"/>
<path d="M10802 11110 c0 -14 2 -19 5 -12 2 6 2 18 0 25 -3 6 -5 1 -5 -13z"/>
<path d="M13374 11105 c-3 -14 -4 -36 -2 -49 4 -18 -1 -28 -18 -37 -19 -9 -21
-16 -13 -30 12 -23 27 -25 25 -3 0 9 5 19 12 21 7 3 10 -1 6 -11 -4 -12 0 -16
15 -16 24 0 27 20 9 49 -9 15 -9 26 0 46 10 21 10 31 1 41 -17 21 -28 17 -35
-11z"/>
<path d="M6968 10938 c-2 -12 -12 -27 -23 -33 -45 -23 -47 -26 -32 -43 17 -20
29 -122 17 -142 -4 -7 -15 -10 -25 -7 -9 4 -27 -1 -41 -10 -22 -14 -27 -14
-35 -2 -6 10 -9 10 -9 2 0 -7 -9 -13 -20 -13 -11 0 -20 -5 -20 -11 0 -6 -9 -8
-21 -4 -12 4 -36 8 -53 9 -17 2 -38 5 -46 7 -12 3 -15 -6 -15 -39 -1 -38 3
-46 28 -58 24 -13 28 -20 26 -52 -2 -21 0 -42 4 -48 3 -6 3 -21 0 -33 -5 -18
-11 -21 -30 -17 -16 5 -30 0 -45 -13 -19 -19 -23 -19 -56 -5 -32 13 -36 13
-48 -3 -7 -10 -14 -24 -14 -31 0 -9 -15 -2 -40 18 -22 17 -44 29 -49 25 -5 -3
-37 -6 -70 -6 -34 -1 -61 -5 -61 -10 0 -5 -5 -9 -12 -9 -6 0 -19 -7 -29 -16
-13 -12 -22 -13 -36 -6 -14 8 -23 4 -44 -19 -19 -21 -29 -27 -34 -18 -5 7 -14
-3 -26 -27 -10 -22 -18 -35 -19 -30 0 5 -11 -3 -24 -17 -14 -15 -43 -34 -65
-43 -22 -9 -43 -25 -46 -35 -4 -11 -10 -17 -14 -14 -5 2 -13 -13 -20 -34 -6
-21 -18 -44 -26 -51 -8 -7 -15 -21 -15 -31 0 -16 -4 -17 -31 -7 -20 7 -34 7
-38 1 -4 -6 -21 -5 -46 1 -38 11 -40 13 -43 56 -5 58 -22 77 -69 75 -37 -1
-103 -32 -103 -48 0 -5 -13 -22 -29 -38 l-30 -29 -35 34 c-20 18 -36 38 -36
45 0 6 -4 11 -10 11 -5 0 -10 -6 -10 -14 0 -8 -16 -32 -35 -53 -37 -40 -43
-61 -23 -81 9 -9 8 -13 -4 -17 -12 -5 -14 -13 -9 -33 4 -15 3 -36 -2 -47 -6
-11 -13 -27 -17 -35 -4 -8 -16 -19 -28 -25 -12 -5 -22 -14 -22 -19 0 -5 -11
-24 -26 -43 -14 -18 -22 -37 -19 -43 3 -5 1 -19 -5 -31 -9 -15 -9 -24 -1 -32
16 -16 14 -27 -6 -27 -14 0 -14 -2 2 -20 11 -12 19 -37 19 -61 1 -37 -1 -39
-21 -34 -26 6 -29 -5 -10 -35 10 -17 9 -22 -3 -31 -12 -8 -10 -9 8 -4 16 5 22
2 22 -9 0 -8 -13 -17 -30 -21 -16 -4 -32 -11 -36 -16 -9 -15 17 -40 35 -34 31
9 45 -11 42 -60 -2 -40 0 -46 16 -44 10 1 25 0 33 -3 43 -16 103 -29 108 -24
3 3 13 -1 22 -9 22 -20 56 -9 39 11 -9 11 -6 14 20 14 26 0 31 4 31 24 0 13 7
26 15 30 8 3 12 12 9 21 -4 8 -1 22 6 29 8 11 9 20 0 36 -8 16 -8 25 4 41 16
24 60 49 85 49 9 0 27 7 39 16 12 8 22 12 22 8 0 -4 9 2 20 14 12 12 25 22 30
22 5 0 21 -20 36 -45 19 -34 32 -45 52 -47 15 -1 35 -2 44 -3 9 0 27 -10 40
-21 13 -12 31 -24 41 -27 13 -5 16 -13 12 -27 -5 -15 2 -28 27 -50 18 -17 43
-40 54 -51 12 -11 35 -21 50 -23 16 -3 42 -9 57 -15 41 -16 104 -14 110 3 3 8
14 12 24 10 22 -5 54 15 36 23 -7 2 -13 10 -13 17 0 6 -16 20 -35 30 -33 18
-46 36 -26 36 5 0 3 17 -5 38 -7 20 -13 44 -14 53 0 21 -31 34 -40 18 -5 -7
-14 -3 -29 12 -22 24 -28 49 -11 49 5 0 24 16 42 35 21 24 35 32 42 25 13 -13
49 -13 41 0 -3 6 1 13 9 16 10 4 16 18 16 35 0 16 6 32 14 35 21 8 16 72 -6
80 -10 3 -31 19 -48 36 -30 29 -32 30 -50 13 -18 -16 -20 -17 -20 -2 0 19 -16
23 -22 6 -5 -14 -58 0 -65 17 -3 8 3 41 13 74 14 45 23 59 34 54 50 -20 70
-22 70 -7 0 11 5 13 18 7 30 -13 61 -7 96 19 24 19 36 23 44 15 19 -19 98 25
107 59 l7 28 15 -22 c12 -18 19 -21 34 -12 10 5 19 16 19 24 0 7 11 22 24 32
15 12 25 33 28 58 8 61 39 169 52 177 6 4 26 8 44 8 24 0 41 8 63 32 16 18 29
36 29 40 0 5 6 8 14 8 8 0 18 9 21 20 3 11 14 20 24 20 10 0 26 9 36 20 10 11
26 20 35 20 9 0 25 6 36 14 16 12 17 18 8 44 -14 37 3 102 26 102 33 0 55 68
39 122 -5 20 -4 30 4 34 24 9 17 42 -9 48 -19 5 -24 11 -19 26 4 13 0 22 -14
29 -17 9 -20 8 -23 -11z m-88 -328 c0 -5 -4 -10 -10 -10 -5 0 -10 5 -10 10 0
6 5 10 10 10 6 0 10 -4 10 -10z m-1090 -574 c0 -8 -4 -17 -9 -21 -12 -7 -24
12 -16 25 9 15 25 12 25 -4z m305 -466 c0 -3 4 -11 8 -17 5 -8 4 -13 -2 -13
-16 0 -44 48 -35 61 5 8 10 6 18 -7 6 -11 11 -21 11 -24z m-804 -106 l24 -25
-28 10 c-37 14 -40 14 -33 -4 3 -8 1 -15 -3 -15 -17 0 -18 24 -2 42 9 10 16
18 16 18 1 0 12 -12 26 -26z m199 -24 c0 -5 -4 -10 -9 -10 -6 0 -13 5 -16 10
-3 6 1 10 9 10 9 0 16 -4 16 -10z m-10 -36 c0 -8 7 -17 15 -20 8 -4 15 -10 15
-15 0 -17 -47 21 -58 46 -11 24 -10 25 8 15 11 -6 20 -17 20 -26z"/>
<path d="M13340 10790 c0 -5 -6 -10 -14 -10 -7 0 -26 -6 -41 -14 l-26 -14 30
-31 c37 -37 39 -45 9 -36 -20 7 -21 5 -15 -43 5 -40 3 -51 -10 -56 -14 -6 -15
-20 -9 -108 4 -56 9 -105 12 -110 8 -12 44 15 44 33 0 9 -10 23 -22 31 -21 14
-21 16 -6 32 10 9 14 24 11 32 -3 8 4 28 16 44 20 28 31 88 32 178 0 21 5 32
15 32 21 0 17 23 -6 38 -12 7 -20 8 -20 2z"/>
<path d="M10350 10561 c0 -6 4 -13 10 -16 6 -3 7 1 4 9 -7 18 -14 21 -14 7z"/>
<path d="M5110 10465 c0 -28 -4 -35 -20 -35 -27 0 -25 -16 4 -35 16 -11 22
-22 19 -35 -3 -11 0 -20 6 -20 6 0 23 -18 37 -40 22 -33 24 -43 14 -55 -10
-12 -8 -16 15 -25 33 -13 28 -13 69 11 l35 20 -26 47 c-14 26 -38 58 -53 72
-15 14 -31 35 -35 48 -3 12 -13 22 -21 22 -8 0 -14 5 -14 11 0 5 5 7 10 4 6
-3 10 -3 10 2 0 14 -14 29 -32 36 -15 5 -18 1 -18 -28z"/>
<path d="M11847 10483 c-15 -27 -16 -61 -1 -67 22 -9 34 1 34 28 0 24 -25 53
-33 39z"/>
<path d="M15525 10451 c-3 -5 -1 -12 5 -16 5 -3 10 1 10 9 0 18 -6 21 -15 7z"/>
<path d="M5208 10426 c12 -5 23 -19 23 -30 1 -17 2 -18 6 -3 2 9 8 17 13 17 5
0 11 -8 13 -17 4 -14 5 -14 6 3 1 16 -6 23 -26 27 -16 3 -35 7 -43 9 -8 2 -5
0 8 -6z"/>
<path d="M6803 10424 c3 -11 8 -30 12 -43 10 -34 26 -11 17 24 -5 16 -14 31
-21 33 -9 3 -11 -2 -8 -14z"/>
<path d="M15488 10432 c-10 -2 -25 -19 -34 -38 -9 -20 -21 -31 -28 -27 -6 3 7
-13 29 -36 45 -47 49 -49 42 -19 -9 31 10 63 28 48 21 -18 37 -3 24 21 -17 33
-43 54 -61 51z"/>
<path d="M11860 10392 c0 -24 27 -61 44 -59 10 1 21 -4 23 -10 3 -7 -3 -13
-11 -13 -9 0 -21 -10 -27 -22 -26 -58 -34 -65 -67 -63 -22 2 -32 -2 -32 -11 0
-8 -7 -14 -15 -14 -8 0 -15 -5 -15 -10 0 -13 -70 -10 -87 3 -17 13 -34 -2 -73
-64 -19 -28 -40 -49 -50 -49 -10 0 -23 -7 -30 -15 -7 -9 -18 -14 -24 -12 -6 2
-19 -12 -28 -31 -13 -26 -15 -39 -7 -54 15 -28 -4 -67 -46 -98 -23 -17 -32
-30 -28 -40 3 -8 8 -36 9 -61 3 -41 0 -47 -21 -57 -14 -7 -25 -18 -25 -26 0
-28 58 -74 102 -81 24 -4 62 -20 86 -36 24 -16 49 -29 57 -29 8 0 25 -16 37
-35 13 -19 31 -35 41 -35 9 0 17 -4 17 -10 0 -5 7 -10 16 -10 11 0 14 -6 8
-22 -6 -21 -5 -21 15 4 11 14 21 33 21 41 0 17 52 47 80 47 10 0 23 7 30 15 7
8 27 15 45 15 45 0 66 27 86 110 5 23 4 39 -4 49 -9 12 -9 13 1 7 7 -4 12 -2
12 7 0 22 36 27 61 9 44 -31 54 -24 54 37 0 31 -4 62 -9 70 -7 11 -5 13 7 8
11 -4 14 -2 11 7 -3 7 3 17 13 21 16 6 15 8 -7 17 -20 7 -22 11 -10 18 8 5 22
10 30 10 9 0 24 16 34 35 23 43 47 49 63 15 l11 -25 1 28 c1 24 4 27 22 22 14
-5 19 -3 15 3 -13 21 36 -1 64 -29 34 -35 76 -53 86 -38 4 8 9 7 14 -2 7 -10
11 -10 24 0 12 10 13 17 6 26 -8 10 -3 13 25 13 26 0 43 8 63 29 15 15 27 33
28 38 2 42 18 75 34 75 30 0 34 20 9 46 l-23 24 -27 -26 c-21 -20 -34 -25 -54
-20 -17 4 -27 2 -31 -8 -3 -8 -13 -12 -24 -9 -10 3 -21 0 -24 -6 -10 -16 -61
-14 -75 3 -7 8 -25 19 -42 25 -25 8 -30 7 -40 -10 -7 -14 -14 -17 -22 -11 -23
18 -59 21 -74 6 -8 -8 -29 -14 -46 -14 -46 0 -157 93 -157 130 0 19 -11 36
-38 57 -21 17 -49 47 -62 67 -23 33 -50 48 -50 28z"/>
<path d="M10525 10341 c-3 -11 -3 -31 1 -45 5 -21 3 -26 -14 -26 -10 0 -30 -9
-44 -19 -23 -18 -28 -19 -67 -5 -49 17 -61 12 -61 -22 0 -26 -11 -30 -41 -14
-13 8 -19 7 -19 0 0 -6 -13 -24 -30 -40 -35 -34 -35 -36 -14 -80 13 -26 14
-37 5 -51 -6 -10 -11 -35 -11 -54 0 -32 8 -40 33 -36 10 2 21 -28 13 -36 -3
-3 -12 -1 -19 5 -10 9 -17 6 -30 -8 -16 -19 -16 -21 3 -40 22 -22 51 -26 81
-10 12 7 19 7 19 1 0 -6 7 -8 15 -5 8 4 22 1 29 -5 11 -10 18 -6 32 18 10 17
22 31 26 31 4 0 8 9 8 20 0 19 2 20 26 7 33 -17 74 -2 74 27 0 19 1 18 23 -2
13 -12 28 -22 34 -22 6 0 20 -15 31 -34 22 -38 69 -57 150 -60 23 -1 47 -7 53
-13 6 -6 18 -9 25 -6 8 3 31 -3 51 -12 35 -17 37 -17 50 1 7 10 13 24 13 31 0
21 15 15 26 -9 6 -13 9 -17 7 -9 -2 8 5 22 15 31 21 20 62 10 62 -14 0 -9 15
-23 33 -32 50 -25 67 -45 67 -75 0 -32 15 -46 33 -30 13 10 52 5 72 -9 6 -4
20 -9 32 -12 18 -5 22 -1 25 33 2 21 -2 46 -9 55 -10 13 -9 21 2 38 19 26 19
46 0 82 -8 16 -15 39 -15 52 0 19 5 22 35 22 37 0 47 18 21 39 -8 7 -12 21 -8
33 4 15 2 19 -7 14 -17 -11 -61 40 -61 71 l0 26 -23 -21 c-26 -24 -48 -27 -78
-11 -17 9 -21 7 -26 -10 -6 -24 -8 -25 -33 -11 -13 7 -21 7 -25 0 -10 -15 -55
-12 -61 5 -4 8 -15 15 -25 15 -10 0 -19 5 -19 11 0 6 -9 9 -20 6 -10 -3 -21 0
-24 7 -3 7 -5 6 -5 -3 -1 -9 -5 -10 -13 -4 -7 6 -31 13 -53 17 -81 12 -115 26
-115 46 0 30 -70 90 -106 90 -18 0 -38 8 -50 21 l-18 20 -8 -21 c-7 -18 -10
-19 -28 -8 -12 8 -20 24 -20 40 0 32 -16 37 -25 9z"/>
<path d="M12836 10347 c-16 -12 -17 -16 -5 -35 11 -18 10 -24 -6 -44 -11 -12
-24 -28 -30 -36 -33 -45 -57 -64 -78 -59 -21 6 -21 6 -3 -8 11 -8 28 -15 38
-15 11 0 31 -6 47 -14 15 -8 33 -11 40 -7 16 10 86 -2 106 -19 17 -15 17 -15
33 24 11 24 11 31 0 37 -7 5 -13 25 -13 46 0 32 -4 39 -23 41 -14 2 -27 15
-36 35 -7 18 -22 40 -33 49 -16 15 -22 16 -37 5z"/>
<path d="M6790 10327 c0 -12 9 -28 20 -35 12 -7 20 -8 20 -2 0 5 -5 10 -11 10
-7 0 -9 10 -5 25 5 18 2 25 -9 25 -9 0 -15 -9 -15 -23z"/>
<path d="M5286 10300 c11 -67 78 -137 112 -116 11 6 72 -30 72 -44 0 -5 5 -10
10 -10 19 0 10 49 -12 73 -28 29 -65 50 -77 42 -13 -8 -41 23 -35 38 2 7 -5
22 -17 33 -13 10 -19 13 -15 7 5 -9 0 -13 -13 -13 -10 0 -22 6 -25 13 -3 6 -3
-4 0 -23z"/>
<path d="M13181 10309 c-29 -11 -94 -76 -83 -82 12 -8 76 7 99 23 22 16 35 61
18 66 -5 1 -21 -2 -34 -7z"/>
<path d="M6758 10254 c-5 -4 -8 -16 -8 -28 0 -14 3 -17 11 -9 6 6 9 19 7 28
-1 9 -6 13 -10 9z"/>
<path d="M13190 10203 c0 -12 5 -25 10 -28 13 -8 13 15 0 35 -8 12 -10 11 -10
-7z"/>
<path d="M6689 10143 l-26 -25 23 -46 c29 -57 30 -72 4 -72 -12 0 -26 -12 -36
-32 -9 -18 -40 -56 -69 -84 -52 -52 -73 -98 -53 -121 12 -15 1 -36 -14 -27 -6
4 -5 -2 2 -15 6 -12 15 -19 20 -16 5 3 13 -3 19 -13 6 -11 29 -23 56 -29 33
-8 44 -8 36 0 -18 18 -13 27 19 38 17 6 30 15 30 19 0 5 16 6 35 3 26 -4 36
-2 41 11 4 10 18 16 35 16 26 0 29 3 29 31 0 20 4 29 13 26 6 -2 11 -13 9 -25
-2 -13 6 -27 22 -38 24 -15 39 -63 16 -49 -5 3 -21 -6 -36 -20 -14 -14 -31
-22 -37 -18 -7 3 -3 -3 7 -15 11 -12 14 -22 8 -22 -6 0 -14 5 -17 10 -4 6 -19
9 -33 8 -15 -1 -33 1 -40 6 -7 4 -15 1 -18 -8 -3 -9 -17 -16 -30 -16 -15 0
-24 -6 -24 -16 0 -10 -6 -14 -15 -10 -8 3 -18 -2 -23 -11 -9 -16 -52 -11 -52
7 0 4 -23 23 -51 41 -55 35 -53 35 -84 -23 -8 -15 -15 -34 -15 -43 0 -8 -4
-15 -10 -15 -5 0 -10 -11 -10 -23 0 -13 -9 -32 -20 -42 -15 -14 -17 -22 -9
-36 5 -11 7 -23 5 -28 -3 -5 1 -12 10 -15 8 -3 13 -10 10 -14 -9 -14 45 -35
58 -22 5 5 17 10 26 9 10 0 11 -2 3 -6 -10 -3 -10 -10 -2 -24 12 -24 -15 -59
-33 -41 -13 13 -38 4 -38 -14 0 -8 -5 -14 -11 -14 -6 0 -17 -7 -26 -15 -8 -8
-19 -13 -24 -9 -6 3 -17 0 -26 -8 -10 -8 -14 -8 -10 -1 4 6 3 14 -2 17 -5 4
-8 -2 -7 -11 4 -23 20 -27 56 -14 22 7 30 7 30 -2 1 -7 22 -22 48 -34 69 -31
79 -33 108 -23 18 7 30 7 39 0 6 -5 15 -7 18 -3 4 3 18 -6 31 -22 15 -17 28
-25 36 -20 7 5 28 10 47 12 44 5 83 20 83 33 0 5 13 10 29 10 16 0 31 3 33 8
2 4 17 15 33 24 19 10 31 26 33 42 3 24 5 25 55 20 29 -3 55 -8 59 -10 4 -3 5
9 2 25 -6 26 -3 31 19 36 25 7 43 40 26 51 -5 3 -9 16 -9 30 0 21 5 24 35 24
41 0 48 25 14 53 -12 11 -18 25 -15 34 4 11 2 14 -9 9 -9 -3 -15 0 -15 9 0 11
9 14 35 10 33 -4 35 -2 35 25 0 28 3 30 35 30 19 0 55 -5 79 -12 46 -12 79 -4
114 30 7 6 22 12 32 12 11 0 25 10 31 22 12 21 12 21 26 -6 11 -21 18 -25 26
-17 6 6 17 11 25 11 7 0 19 6 27 13 11 11 8 15 -15 24 -19 7 -32 7 -38 1 -6
-6 -18 -6 -32 2 -13 7 -51 12 -86 12 -43 0 -67 4 -75 14 -6 8 -19 12 -29 9
-11 -3 -37 14 -77 50 -69 62 -127 81 -138 44 -4 -10 -16 -20 -28 -21 -12 0
-26 -2 -32 -3 -25 -6 -31 -7 -40 -9 -5 -1 -18 -6 -28 -10 -9 -5 -29 -5 -43 -2
-23 6 -26 11 -20 38 5 24 1 34 -17 48 -12 10 -28 35 -36 56 -8 22 -24 55 -37
74 -16 22 -20 38 -14 44 18 18 12 80 -10 94 -11 7 -20 19 -20 27 0 23 -41 16
-71 -12z"/>
<path d="M12318 9953 c7 -3 16 -2 19 1 4 3 -2 6 -13 5 -11 0 -14 -3 -6 -6z"/>
<path d="M12316 9931 c-3 -5 1 -11 9 -14 9 -4 12 -1 8 9 -6 16 -10 17 -17 5z"/>
<path d="M6330 9778 c0 -7 12 -23 28 -36 15 -13 21 -20 13 -16 -10 5 -12 3 -7
-5 4 -7 13 -10 19 -8 7 2 19 -1 27 -8 8 -7 29 -16 47 -19 27 -6 32 -4 38 15 9
27 -7 41 -82 69 -62 23 -83 25 -83 8z"/>
<path d="M6497 9776 c-3 -8 -2 -18 3 -21 13 -8 20 9 11 24 -6 10 -10 9 -14 -3z"/>
<path d="M9868 9548 c-34 -12 -35 -19 -7 -37 18 -11 23 -11 30 1 8 12 13 49 7
47 -2 0 -15 -5 -30 -11z"/>
<path d="M5114 9422 c2 -9 8 -18 14 -20 17 -5 15 25 -2 31 -9 4 -13 0 -12 -11z"/>
<path d="M14915 9430 c3 -5 11 -10 16 -10 6 0 7 5 4 10 -3 6 -11 10 -16 10 -6
0 -7 -4 -4 -10z"/>
<path d="M9660 9390 c0 -5 9 -10 21 -10 11 0 17 5 14 10 -3 6 -13 10 -21 10
-8 0 -14 -4 -14 -10z"/>
<path d="M9617 9311 c-36 -40 -19 -60 20 -24 24 22 28 31 18 40 -10 9 -18 5
-38 -16z"/>
<path d="M5203 9308 c2 -15 -1 -29 -7 -32 -8 -3 -8 -5 0 -5 24 -2 34 25 18 45
-15 18 -15 18 -11 -8z"/>
<path d="M9823 9323 c4 -3 2 -12 -4 -20 -9 -10 -8 -13 5 -13 9 0 16 8 16 20 0
11 -5 20 -12 20 -6 0 -8 -3 -5 -7z"/>
<path d="M13513 9226 c-13 -15 -12 -28 5 -66 10 -24 11 -24 11 12 1 20 6 38
13 40 6 2 8 10 4 16 -9 15 -18 15 -33 -2z"/>
<path d="M13688 9203 c-11 -3 -18 -14 -18 -29 0 -13 -4 -24 -8 -24 -11 0 -35
-51 -27 -58 3 -3 5 -2 5 2 0 4 9 2 20 -4 25 -13 54 5 57 35 1 11 5 35 9 53 6
33 2 36 -38 25z"/>
<path d="M13522 9099 c-9 -14 -9 -19 -1 -19 6 0 9 -6 6 -14 -3 -8 1 -17 9 -20
8 -3 14 -1 14 4 0 6 6 10 14 10 11 0 12 5 3 25 -16 33 -31 37 -45 14z"/>
<path d="M9990 8545 c-6 -8 -9 -23 -5 -35 4 -14 2 -20 -9 -20 -9 0 -13 -6 -10
-13 3 -9 -9 -18 -36 -27 -22 -7 -38 -15 -35 -18 2 -2 -6 -12 -18 -22 -15 -13
-28 -15 -44 -9 -17 6 -21 5 -16 -6 3 -10 -1 -15 -15 -15 -11 0 -22 -8 -25 -20
-3 -11 -17 -24 -31 -30 -17 -6 -24 -14 -20 -25 5 -12 -2 -15 -30 -15 -23 0
-39 -6 -42 -15 -7 -17 -41 -30 -68 -26 -10 1 -22 -3 -27 -11 -6 -10 -11 -10
-21 0 -14 14 -28 16 -28 2 0 -5 11 -12 25 -16 30 -8 31 -17 4 -55 l-21 -29 21
-34 c27 -43 26 -57 -4 -90 -14 -15 -23 -32 -20 -37 4 -5 -2 -12 -12 -16 -15
-6 -12 -8 12 -13 18 -3 30 -12 29 -21 -1 -11 7 -14 32 -11 21 3 34 10 34 18 0
8 5 14 11 14 6 0 9 7 5 15 -4 11 2 15 25 15 38 0 69 16 69 36 0 10 6 14 15 10
11 -4 15 2 15 21 0 15 7 35 16 44 15 17 15 20 0 43 -23 36 -21 66 5 66 13 0
23 8 26 21 6 20 21 21 86 3 9 -3 17 0 17 6 0 7 6 8 18 1 10 -5 37 -7 60 -4 32
4 47 1 62 -12 19 -18 20 -17 20 6 0 14 -5 30 -12 37 -7 7 -8 12 -2 12 14 -1
40 -23 46 -41 4 -9 20 -26 37 -38 28 -20 30 -20 40 -4 9 16 11 16 19 -7 7 -18
6 -26 -3 -28 -16 -4 -27 -40 -14 -47 14 -9 47 13 54 35 3 11 13 20 20 20 8 0
34 7 59 15 46 16 80 11 72 -10 -2 -7 4 -15 14 -18 12 -3 20 2 23 14 4 13 0 19
-11 20 -12 0 -11 3 5 9 25 10 40 47 24 63 -7 7 -5 14 7 24 16 12 16 14 -4 31
-12 9 -30 23 -40 30 -17 11 -17 12 5 6 25 -7 26 1 6 48 -5 13 -2 15 16 11 31
-9 52 21 36 50 -7 12 -17 26 -24 32 -6 5 -13 19 -15 30 -3 16 -10 19 -40 17
-21 -1 -50 -9 -65 -17 -15 -8 -36 -15 -45 -15 -11 0 -18 -8 -18 -18 0 -15 -9
-17 -64 -15 -60 2 -64 1 -59 -18 5 -17 2 -20 -18 -18 -13 2 -30 0 -37 -5 -7
-4 -16 -5 -19 -2 -4 3 -15 -1 -25 -10 -15 -14 -20 -15 -33 -4 -15 12 -15 14
-1 22 9 5 16 22 16 38 0 20 5 30 15 30 8 0 15 9 15 20 0 11 6 20 13 21 13 0
-21 17 -39 18 -6 1 -17 -6 -24 -14z"/>
</g>
</svg>
