<?xml version="1.0" standalone="no"?>
<!DOCTYPE svg PUBLIC "-//W3C//DTD SVG 20010904//EN"
 "http://www.w3.org/TR/2001/REC-SVG-20010904/DTD/svg10.dtd">
<svg version="1.0" xmlns="http://www.w3.org/2000/svg"
 width="647.731075pt" height="500.955507pt" viewBox="0 0 647.731075 500.955507"
 preserveAspectRatio="xMidYMid meet">
<metadata>
Created by potrace 1.15, written by Peter Selinger 2001-2017
</metadata>
<g transform="translate(-698.617770,1249.944294) scale(0.100000,-0.100000)"
fill="#222222" stroke="none">
<path d="M10830 12491 c0 -5 6 -13 13 -19 7 -6 11 -29 9 -60 -3 -44 -7 -51
-28 -56 -14 -4 -29 -4 -34 -1 -12 8 -50 -17 -50 -32 0 -7 12 -35 26 -61 22
-41 30 -48 50 -44 13 2 24 9 24 14 0 6 6 5 15 -2 11 -9 12 -17 5 -30 -7 -14
-4 -31 15 -68 28 -56 29 -62 14 -62 -17 0 -39 -27 -38 -47 0 -10 21 -31 49
-49 46 -30 50 -31 95 -20 26 7 50 18 55 26 13 21 83 -35 75 -61 -5 -15 3 -23
38 -40 43 -21 45 -23 40 -59 -6 -43 12 -63 33 -36 12 16 12 16 16 -1 3 -17 4
-17 11 0 5 13 0 20 -18 27 -19 7 -25 17 -25 40 0 16 5 30 11 30 5 0 3 10 -5
22 -9 12 -16 32 -16 43 0 11 -7 28 -15 38 -11 15 -11 24 -2 44 10 22 8 27 -13
43 -14 10 -27 15 -30 10 -8 -13 -68 30 -76 53 -4 13 -12 16 -26 11 -13 -4 -27
1 -41 14 -12 11 -46 32 -74 46 -54 27 -69 54 -35 63 20 5 42 54 42 92 0 12 7
29 15 37 22 23 18 41 -10 48 -13 3 -41 17 -61 31 -39 26 -54 31 -54 16z"/>
<path d="M10061 12396 c-13 -14 -36 -28 -52 -31 -34 -8 -52 -34 -38 -56 12
-19 11 -29 -1 -29 -11 0 -27 -11 -58 -41 -9 -9 -31 -20 -49 -23 -17 -4 -34
-14 -37 -23 -5 -11 -15 -14 -40 -10 -33 5 -34 4 -42 -36 -9 -49 -7 -88 7 -101
13 -15 11 -26 -6 -26 -8 0 -31 -8 -50 -17 -29 -14 -36 -22 -32 -40 3 -16 -2
-24 -15 -28 -21 -7 -50 -58 -47 -83 3 -37 0 -43 -19 -33 -15 8 -23 2 -45 -35
-16 -27 -34 -44 -46 -44 -10 0 -24 -7 -32 -16 -7 -8 -26 -22 -41 -30 -23 -12
-27 -18 -18 -29 9 -10 7 -20 -5 -39 -10 -14 -22 -26 -28 -26 -8 0 -8 -3 0 -11
12 -12 6 -49 -9 -49 -5 0 -18 -20 -29 -45 -15 -33 -31 -51 -60 -66 -29 -14
-39 -25 -35 -36 7 -17 -35 -72 -70 -91 -19 -10 -23 -18 -18 -36 5 -19 0 -26
-26 -37 -22 -10 -30 -19 -26 -31 5 -21 -5 -23 -23 -5 -11 10 -12 9 -6 -2 6
-10 2 -12 -14 -6 -16 5 -20 3 -15 -10 4 -8 3 -39 0 -68 -6 -45 -11 -54 -39
-68 -18 -10 -30 -23 -28 -30 2 -8 7 -29 10 -48 8 -44 26 -50 39 -14 7 18 11
22 11 10 1 -14 5 -16 20 -7 28 14 31 13 31 -15 0 -14 -4 -25 -8 -25 -4 0 -8
-8 -9 -17 -3 -41 -17 -98 -26 -104 -5 -4 5 -15 22 -25 36 -21 47 -42 26 -50
-8 -4 -15 -13 -15 -22 0 -9 -5 -31 -12 -49 -9 -25 -17 -33 -30 -30 -9 3 -18 2
-20 -2 -2 -4 -34 -6 -71 -3 -62 4 -69 7 -82 33 -19 37 -30 42 -55 29 -16 -8
-25 -8 -35 0 -9 8 -15 8 -20 0 -3 -6 -11 -8 -16 -5 -5 4 -9 1 -9 -5 0 -7 -8
-9 -19 -5 -16 5 -20 -1 -25 -39 -4 -25 -11 -48 -17 -51 -5 -4 -9 -15 -9 -27 0
-11 -8 -22 -20 -25 -15 -4 -18 -11 -13 -34 4 -22 2 -29 -10 -29 -10 0 -14 -6
-11 -14 10 -25 -21 -69 -50 -72 -21 -2 -26 1 -26 21 0 13 -10 29 -25 39 -14 9
-24 13 -23 9 1 -4 -3 -18 -10 -30 -7 -12 -11 -28 -10 -35 2 -9 -6 -12 -23 -10
-15 1 -32 -5 -40 -15 -11 -13 -11 -15 -1 -9 11 7 11 4 1 -12 -12 -19 -15 -19
-41 -6 -15 8 -28 20 -28 26 0 9 -3 9 -11 1 -6 -6 -17 -9 -24 -7 -7 3 -24 -9
-38 -26 -20 -24 -32 -29 -50 -25 -14 4 -28 1 -35 -7 -12 -15 -92 -16 -126 -3
-16 7 -17 6 -6 -14 6 -13 10 -24 8 -25 -2 -1 -25 -12 -53 -23 -63 -25 -68 -45
-20 -89 23 -21 35 -39 31 -49 -3 -9 0 -15 8 -15 19 0 26 -33 11 -54 -9 -12
-20 -15 -38 -11 -20 5 -25 2 -30 -17 -7 -29 -1 -75 11 -91 5 -7 13 -37 16 -68
6 -50 5 -58 -18 -82 -13 -14 -30 -42 -37 -62 -7 -19 -19 -35 -27 -35 -9 0 0
-16 22 -40 20 -22 36 -45 36 -52 0 -6 -9 -2 -20 10 -12 12 -28 22 -38 22 -9 0
-33 3 -53 6 -35 6 -36 5 -32 -18 4 -23 2 -24 -26 -20 -31 4 -31 4 -20 -22 7
-14 20 -26 31 -26 10 0 18 -5 18 -12 0 -7 11 -21 24 -33 14 -11 28 -35 31 -54
7 -32 6 -33 -19 -27 -26 6 -38 -8 -13 -17 9 -3 9 -7 -1 -20 -7 -8 -12 -22 -10
-30 2 -9 -5 -24 -14 -34 -10 -10 -28 -31 -40 -46 -33 -40 -80 -45 -119 -13
-17 14 -40 28 -52 31 -26 7 -49 49 -35 63 6 6 2 11 -11 15 -12 3 -21 1 -21 -5
0 -5 -7 -16 -15 -25 -9 -8 -13 -23 -10 -32 7 -22 -37 -45 -54 -28 -7 7 -10 2
-8 -21 2 -32 7 -36 39 -33 25 3 76 -29 81 -50 8 -29 -37 -52 -86 -44 -23 4
-47 12 -54 17 -7 6 -19 6 -30 0 -10 -5 -24 -7 -31 -5 -7 3 -19 0 -27 -7 -18
-15 -120 -3 -140 16 -19 19 -75 30 -75 15 0 -6 -11 -17 -25 -23 -17 -7 -24
-18 -23 -34 1 -12 5 -21 9 -18 4 2 10 -4 12 -13 3 -10 8 -28 12 -40 5 -17 2
-20 -13 -16 -15 3 -22 -3 -30 -26 -6 -17 -16 -31 -21 -31 -15 0 -61 -72 -54
-83 3 -5 6 -22 5 -38 0 -15 6 -33 14 -40 8 -6 14 -24 14 -40 0 -16 10 -46 23
-67 35 -57 44 -82 55 -150 6 -35 16 -70 23 -78 14 -17 39 -18 39 -2 0 23 28
-16 54 -74 21 -48 22 -58 9 -58 -11 0 -13 -5 -7 -17 4 -10 7 -51 5 -90 -1 -40
1 -73 6 -73 12 0 44 60 37 71 -3 6 4 19 16 29 17 14 21 26 16 45 -4 14 -10 25
-15 25 -8 0 -51 64 -51 75 0 2 9 1 20 -2 16 -4 19 0 17 23 -2 25 2 28 32 31
25 2 40 -3 54 -18 18 -19 20 -20 38 -3 11 10 17 24 14 31 -9 25 38 10 64 -20
22 -27 27 -28 75 -22 28 4 58 13 66 20 8 7 27 15 41 18 14 4 31 18 39 32 15
29 23 31 40 10 17 -21 53 -19 82 5 14 10 28 17 30 14 3 -2 11 2 18 11 7 8 23
15 36 15 12 0 26 5 30 11 3 6 17 8 31 4 16 -4 22 -2 18 5 -4 7 6 8 29 4 54 -8
73 7 68 53 l-4 38 33 -30 c19 -16 37 -36 42 -43 4 -7 23 -18 41 -26 25 -10 40
-28 59 -69 25 -51 44 -67 87 -72 37 -4 101 -30 116 -47 10 -10 23 -18 31 -18
7 0 16 -7 20 -15 5 -13 52 -45 67 -45 2 0 11 7 20 15 13 13 15 11 21 -18 12
-57 29 -97 42 -97 30 0 124 -43 120 -54 -4 -9 2 -11 16 -9 18 4 23 13 25 44 2
35 0 39 -20 40 -20 0 -21 2 -7 11 23 16 1 89 -39 131 -18 18 -32 36 -32 39 0
3 15 11 33 19 17 7 33 14 35 15 2 1 -4 14 -13 28 -12 17 -15 35 -10 56 l7 30
29 -21 c16 -11 29 -26 29 -34 0 -7 6 -16 13 -18 10 -4 10 -6 0 -6 -23 -2 -14
-29 18 -55 17 -14 37 -26 45 -26 9 0 13 -4 9 -9 -3 -5 0 -13 7 -17 7 -4 10 -4
6 1 -4 4 -1 13 6 20 19 20 9 115 -15 141 -18 19 -18 54 0 54 17 0 51 -48 45
-63 -9 -24 65 -57 108 -48 19 4 41 3 51 -3 13 -8 20 -7 27 4 5 8 12 11 16 7
13 -13 31 27 30 64 -1 20 -7 44 -15 52 -7 9 -10 20 -7 25 3 6 -1 16 -10 23
-11 9 -14 22 -10 42 3 16 2 36 -3 45 -15 28 13 81 49 93 24 9 30 17 30 39 0
16 -4 32 -10 35 -5 3 -10 13 -10 21 0 8 4 13 9 9 6 -3 11 17 13 47 2 44 0 55
-16 63 -25 13 -42 73 -27 97 20 32 13 41 -25 35 -43 -7 -64 0 -64 22 0 19 -35
61 -51 61 -6 0 -7 5 -4 10 3 6 0 10 -8 10 -14 0 -47 30 -47 43 0 4 6 7 13 7 7
0 21 6 31 13 15 11 17 17 7 35 -13 24 -9 27 18 13 14 -8 21 -4 35 20 18 30 41
38 49 17 3 -7 6 -3 6 8 1 12 8 27 16 34 10 8 13 27 11 60 -3 33 0 50 9 54 13
5 15 70 2 82 -4 4 -7 27 -7 51 0 23 -4 43 -8 43 -4 0 -14 16 -21 36 -7 19 -19
38 -27 41 -19 7 -18 45 3 81 15 27 16 33 3 59 -8 15 -15 30 -16 33 -1 3 26 5
62 5 61 0 64 -1 73 -27 8 -23 16 -28 43 -28 42 1 70 21 57 41 -17 27 -11 39
15 29 13 -5 33 -6 45 -3 13 3 21 1 21 -6 0 -7 5 -9 11 -5 14 8 59 -43 59 -66
0 -11 16 -23 45 -34 31 -12 45 -23 45 -36 0 -10 5 -22 10 -25 15 -9 12 -25 -5
-25 -12 0 -13 -5 -4 -27 5 -14 7 -33 4 -41 -3 -7 1 -23 9 -33 11 -16 11 -27 3
-49 -9 -24 -8 -32 6 -48 9 -10 17 -24 17 -30 0 -6 8 -13 19 -17 10 -3 42 -32
70 -65 38 -44 59 -60 78 -60 32 0 91 -28 90 -43 -1 -52 2 -56 48 -54 29 1 45
7 45 15 0 10 13 11 53 6 57 -7 90 -21 83 -33 -3 -4 5 -18 18 -30 l24 -22 13
30 c8 17 20 31 26 31 7 0 13 5 13 10 0 17 17 11 23 -7 2 -10 8 -27 13 -37 6
-17 4 -18 -20 -12 -25 6 -27 5 -21 -16 8 -26 53 -68 74 -68 29 0 91 -34 97
-54 6 -19 7 -19 18 2 6 12 10 40 8 63 -3 31 -10 43 -28 51 -24 11 -31 28 -16
42 4 4 7 15 8 24 4 61 3 58 19 36 8 -12 13 -34 12 -50 -2 -26 2 -30 45 -44 41
-13 46 -18 41 -37 -4 -20 -1 -23 27 -23 17 0 41 5 52 11 12 7 44 13 71 15 27
3 59 11 70 19 12 8 32 15 46 15 13 0 29 8 36 17 11 14 17 15 37 6 15 -7 30 -8
39 -2 19 12 116 11 124 -1 10 -16 37 1 32 21 -3 12 2 20 14 24 10 3 16 12 13
19 -7 19 61 59 98 58 16 0 31 5 34 13 4 9 16 12 40 8 30 -5 34 -3 34 16 0 18
6 21 43 21 24 0 49 -6 56 -12 13 -14 27 -2 76 64 19 26 22 27 64 15 36 -10 45
-9 49 1 2 7 11 18 19 25 20 17 43 39 81 81 18 20 38 34 43 30 22 -13 60 9 103
61 l44 55 21 -28 c11 -15 21 -22 21 -15 0 12 10 12 48 -1 28 -9 47 -42 29 -49
-6 -3 -1 -6 11 -6 16 -1 26 6 29 19 6 22 22 21 76 -7 23 -12 27 -12 27 1 0 15
-17 30 -35 31 -25 1 11 155 35 155 6 0 8 11 4 25 -5 20 -1 26 21 35 15 6 31 8
36 4 5 -3 9 3 9 14 0 23 45 67 59 57 6 -3 11 -1 11 5 0 7 7 10 15 6 10 -4 17
3 21 22 3 15 10 38 15 51 8 19 4 32 -21 69 -30 46 -38 72 -20 72 5 0 24 15 42
33 18 17 45 40 61 50 26 17 27 18 11 42 -20 30 -5 55 32 55 15 0 24 6 24 15 0
17 -16 20 -25 5 -9 -14 -61 -12 -73 3 -6 7 -23 14 -37 15 -38 3 -64 39 -65 90
0 23 -4 42 -10 42 -6 0 -10 27 -10 60 l0 60 -42 21 c-33 17 -46 19 -60 10 -10
-6 -27 -11 -38 -11 -14 0 -20 -7 -20 -22 0 -31 -13 -49 -28 -39 -7 4 -12 12
-10 17 1 5 -4 18 -11 30 -13 19 -16 20 -42 7 -16 -8 -30 -20 -30 -26 -1 -7 -2
-19 -3 -27 0 -8 -8 -15 -16 -15 -8 0 -18 -4 -22 -10 -5 -6 -19 -4 -38 7 -28
16 -33 16 -63 2 -31 -15 -37 -14 -104 8 -55 19 -72 21 -82 11 -12 -14 -37 -8
-63 15 -12 10 -18 11 -18 3 0 -6 -10 -16 -22 -21 -18 -6 -27 -4 -40 11 -9 10
-23 19 -31 19 -7 0 -22 9 -32 20 -10 11 -30 20 -44 20 -15 0 -36 7 -49 15 -18
13 -20 19 -10 35 9 14 9 22 -2 35 -7 9 -9 15 -4 14 29 -5 42 2 37 22 -4 13 2
27 16 40 19 18 27 19 74 10 28 -5 56 -6 62 -3 5 3 24 5 43 4 23 -2 31 1 27 9
-5 7 -1 9 12 5 17 -5 20 -2 18 16 -1 13 -4 24 -5 26 -1 1 -3 6 -4 11 0 5 -4
13 -8 17 -13 13 -9 24 7 18 10 -4 15 0 15 11 0 9 -7 23 -15 31 -17 17 -20 44
-5 44 6 0 10 5 10 11 0 5 -4 8 -8 5 -5 -3 -16 10 -25 29 -17 36 -35 43 -54 24
-8 -8 -14 -6 -22 9 -6 11 -20 24 -31 27 -11 4 -18 10 -15 15 3 5 -3 15 -15 22
-11 7 -20 18 -20 25 0 16 -44 17 -72 2 -16 -9 -24 -8 -36 5 -15 14 -14 18 6
36 11 11 31 20 42 20 27 0 82 28 95 49 34 54 23 71 -43 71 -45 0 -59 9 -62 35
-3 26 10 66 20 60 7 -5 3 39 -7 65 -8 20 -11 30 -17 59 -7 32 -9 33 -40 25
-20 -5 -25 -11 -21 -25 5 -14 1 -19 -14 -19 -12 0 -21 -4 -21 -10 0 -5 -7 -10
-15 -10 -8 0 -15 -4 -15 -10 0 -5 -4 -10 -10 -10 -14 0 -80 47 -74 53 6 5 -42
40 -68 50 -9 3 -19 21 -23 39 -11 58 -26 85 -51 96 -13 7 -24 15 -24 19 0 5
-19 7 -42 5 -39 -2 -45 0 -68 34 -14 19 -57 72 -95 116 -57 64 -82 84 -130
105 -33 13 -66 25 -72 26 -7 0 -34 26 -59 58 -26 32 -56 62 -68 65 -11 4 -39
22 -62 40 -23 19 -47 34 -55 34 -8 0 -19 10 -24 23 -6 12 -17 21 -24 19 -7 -1
-28 6 -47 17 -19 11 -36 16 -39 10 -9 -14 -23 -11 -27 7 -2 13 -8 11 -27 -10z
m727 -1072 c-10 -10 -28 6 -28 24 0 15 1 15 17 -1 9 -9 14 -19 11 -23z m92
-275 c0 -5 -9 -9 -20 -9 -19 0 -27 20 -13 33 7 8 33 -11 33 -24z m-45 -39 c3
-5 1 -10 -4 -10 -6 0 -11 5 -11 10 0 6 2 10 4 10 3 0 8 -4 11 -10z m-1400
-462 c4 -13 7 -26 6 -30 -1 -5 4 -8 9 -8 6 0 10 -4 10 -10 0 -5 -11 -10 -24
-10 -14 0 -27 -4 -30 -9 -3 -5 -21 -5 -41 -1 -30 7 -35 5 -35 -11 0 -15 -7
-19 -35 -19 -42 0 -45 14 -6 34 16 9 31 22 34 31 7 18 54 20 59 3 7 -19 28 2
28 28 0 30 15 31 25 2z m55 -38 c0 -5 -4 -10 -10 -10 -5 0 -10 5 -10 10 0 6 5
10 10 10 6 0 10 -4 10 -10z m-195 -90 c5 -8 12 -7 22 2 12 10 17 9 28 -5 7 -9
19 -17 27 -17 22 0 28 -55 10 -81 -9 -14 -12 -32 -7 -56 6 -34 5 -35 -17 -29
-13 3 -30 6 -39 6 -22 0 -59 37 -59 60 0 10 9 22 20 25 21 7 21 7 -5 50 -14
24 -25 46 -25 49 0 10 39 6 45 -4z m-108 -166 c13 -27 10 -44 -8 -44 -5 0 -9
10 -9 23 0 13 -5 28 -12 35 -9 9 -9 12 3 12 7 0 19 -12 26 -26z m-31 -226 c-1
-19 -7 -33 -14 -32 -7 1 -19 2 -27 3 -29 2 -6 61 24 61 15 0 18 -7 17 -32z
m-825 -38 c20 0 33 -51 16 -62 -18 -11 -20 -10 -45 28 -22 35 -21 67 1 45 6
-6 19 -11 28 -11z m864 -10 c3 -5 -1 -10 -9 -10 -9 0 -16 5 -16 10 0 6 4 10 9
10 6 0 13 -4 16 -10z m2645 -60 c0 -5 -2 -10 -4 -10 -3 0 -8 5 -11 10 -3 6 -1
10 4 10 6 0 11 -4 11 -10z m65 -10 c3 -5 1 -10 -4 -10 -6 0 -11 5 -11 10 0 6
2 10 4 10 3 0 8 -4 11 -10z m-3593 -27 c-5 -23 -7 -25 -10 -8 -2 11 -9 23 -16
27 -6 5 -3 8 10 8 18 0 20 -4 16 -27z m3548 7 c0 -5 -2 -10 -4 -10 -3 0 -8 5
-11 10 -3 6 -1 10 4 10 6 0 11 -4 11 -10z m-3740 -492 c0 -20 -20 -24 -36 -8
-6 6 -8 25 -6 42 l5 31 18 -24 c10 -13 19 -32 19 -41z m95 -92 c35 -17 54 -22
67 -15 9 5 19 5 22 1 2 -4 -8 -13 -24 -20 -21 -10 -27 -18 -23 -33 3 -11 -1
-25 -10 -32 -9 -7 -17 -23 -19 -36 -2 -18 -12 -27 -35 -33 -48 -12 -46 -43 2
-35 24 4 35 2 35 -6 0 -7 11 -12 24 -12 23 0 24 1 8 18 -14 16 -14 17 0 12 9
-4 19 -2 23 4 3 6 15 11 26 11 16 0 18 3 10 19 -8 15 -7 20 5 25 12 5 13 10 6
19 -18 21 -33 67 -22 67 6 0 10 -8 10 -17 1 -29 25 -53 54 -53 14 0 26 -4 26
-10 0 -5 7 -10 15 -10 8 0 15 -3 15 -8 0 -4 9 -13 21 -20 15 -10 19 -10 14 -1
-6 9 -1 10 19 5 15 -4 26 -2 26 4 0 16 -40 51 -50 45 -6 -3 -17 -2 -26 3 -23
13 1 28 58 35 46 6 78 -9 64 -31 -3 -5 8 -12 24 -16 33 -6 41 -35 12 -43 -10
-2 -22 -14 -27 -26 -8 -18 -17 -22 -52 -20 -28 2 -43 -2 -47 -12 -3 -8 -12
-15 -21 -15 -8 0 -15 -6 -15 -14 0 -11 -9 -13 -33 -10 -28 3 -36 0 -45 -20
-10 -23 -13 -24 -52 -14 -23 6 -49 22 -61 36 -17 22 -22 24 -31 12 -8 -12 -9
-12 -4 2 3 10 1 20 -4 23 -11 7 -51 -12 -63 -29 -10 -15 -53 38 -53 66 0 13
12 36 27 52 19 21 25 35 19 45 -4 9 -7 32 -6 51 2 19 -2 40 -7 47 -5 7 -6 17
-3 22 7 11 22 6 101 -33z m162 22 c-3 -8 -6 -5 -6 6 -1 11 2 17 5 13 3 -3 4
-12 1 -19z m-787 -258 c0 -5 -4 -10 -10 -10 -5 0 -10 5 -10 10 0 6 5 10 10 10
6 0 10 -4 10 -10z m795 -40 c-3 -5 -11 -10 -16 -10 -6 0 -7 5 -4 10 3 6 11 10
16 10 6 0 7 -4 4 -10z m564 -272 c-10 -19 -29 -24 -29 -8 0 6 6 10 13 11 9 0
9 2 0 6 -10 3 -10 7 0 18 16 17 29 -3 16 -27z m-68 -65 c13 -16 12 -17 -3 -4
-10 7 -18 15 -18 17 0 8 8 3 21 -13z m63 -46 c11 -11 9 -18 -10 -40 -28 -33
-30 -33 -38 -3 -12 47 18 74 48 43z m-1684 -117 c-8 -5 -17 -7 -19 -4 -3 3 1
9 9 14 8 5 17 7 19 4 3 -3 -1 -9 -9 -14z"/>
<path d="M12460 11953 c0 -5 -22 -19 -49 -31 -41 -17 -48 -25 -44 -42 7 -26
-15 -53 -38 -47 -12 3 -16 0 -12 -9 3 -8 10 -14 15 -14 5 0 8 -5 6 -12 -4 -11
-30 -18 -70 -19 -27 0 -24 -60 3 -79 30 -21 46 -38 52 -52 3 -10 9 -11 26 0
11 6 32 12 47 12 25 0 25 2 19 40 -6 33 -4 39 9 34 28 -11 48 -52 36 -75 -7
-12 -9 -39 -5 -65 7 -52 -10 -78 -38 -62 -23 12 -21 2 5 -35 13 -18 22 -33 20
-34 -12 -13 68 -82 102 -87 7 -1 35 -21 61 -44 26 -23 55 -42 64 -42 10 0 26
-7 37 -15 24 -18 35 -19 28 -2 -3 10 4 14 26 15 17 0 30 -4 30 -11 0 -18 39
-39 60 -32 13 4 20 0 25 -15 3 -11 12 -20 20 -20 8 0 11 -7 8 -20 -3 -11 0
-27 7 -35 7 -8 10 -21 7 -29 -9 -22 5 -28 25 -9 10 9 19 14 21 12 1 -2 11 -22
20 -43 17 -36 19 -38 35 -23 13 13 14 19 4 29 -10 10 -8 14 8 23 18 10 18 13
5 39 -20 38 -19 42 15 56 17 7 30 18 30 26 0 20 77 41 100 26 16 -10 22 -7 38
15 17 24 18 30 6 48 -11 17 -12 26 -1 48 6 15 18 27 26 27 8 0 11 6 7 15 -3 9
1 40 9 70 9 37 11 64 5 86 -12 41 -39 81 -49 74 -5 -3 -19 12 -31 33 -12 20
-28 41 -36 45 -8 4 -14 17 -14 27 0 11 -6 20 -12 20 -7 1 -3 9 9 19 20 16 21
21 8 31 -8 7 -15 9 -16 4 0 -5 -4 1 -9 14 -12 28 -37 29 -45 2 -5 -16 -12 -19
-28 -14 -12 3 -27 11 -34 16 -7 6 -20 5 -34 -2 -12 -7 -35 -9 -50 -6 -26 5
-28 4 -19 -13 8 -15 6 -20 -12 -24 -33 -9 -78 4 -89 25 -5 10 -14 16 -20 12
-5 -3 -16 -1 -24 6 -7 6 -16 7 -19 2 -3 -5 -38 -9 -77 -9 -67 -1 -73 1 -98 29
-15 17 -38 31 -52 32 -16 1 -23 7 -21 17 1 9 -7 24 -18 34 -11 10 -20 14 -20
8z m-130 -194 c0 -5 -7 -9 -15 -9 -8 0 -15 7 -15 15 0 9 6 12 15 9 8 -4 15
-10 15 -15z"/>
<path d="M11560 11864 c0 -14 3 -14 15 -4 8 7 15 14 15 16 0 2 -7 4 -15 4 -8
0 -15 -7 -15 -16z"/>
<path d="M11527 11824 c-4 -4 -4 -17 -1 -29 7 -29 -20 -53 -41 -35 -8 7 -15 8
-15 3 0 -15 -86 -24 -116 -13 -21 8 -31 7 -44 -5 -19 -17 -46 -20 -55 -5 -9
14 -25 12 -25 -3 0 -20 40 -55 41 -36 0 8 5 1 9 -15 5 -16 7 -33 5 -37 -3 -3
3 -6 13 -5 12 1 16 -5 14 -21 -3 -18 2 -23 17 -23 12 0 21 7 21 15 0 17 9 19
28 7 15 -10 22 -100 10 -125 -5 -10 -6 -26 -3 -36 7 -24 66 -35 78 -15 4 8 17
14 27 14 11 0 20 5 20 12 0 9 3 9 11 1 14 -14 39 -6 39 13 0 8 10 14 24 14 13
0 26 6 29 13 2 6 8 -1 12 -16 5 -20 3 -33 -9 -46 -12 -13 -13 -20 -4 -29 10
-10 8 -17 -9 -33 -19 -20 -20 -23 -5 -52 8 -18 20 -35 25 -38 5 -4 7 -11 3
-17 -3 -6 -2 -13 4 -17 5 -3 10 -19 10 -35 0 -35 17 -48 33 -26 21 28 70 1
106 -58 17 -28 40 -57 51 -64 11 -7 20 -23 20 -37 0 -14 5 -25 10 -25 6 0 10
-9 10 -19 0 -25 10 -51 20 -51 5 0 6 9 3 20 -4 15 0 20 15 20 12 0 24 5 27 10
3 6 2 10 -4 10 -14 0 -54 84 -42 88 5 2 3 18 -5 37 -21 51 -17 96 11 128 14
16 30 25 35 22 12 -8 5 32 -15 82 -12 29 -11 33 16 59 16 15 29 36 29 46 0 19
24 25 34 9 4 -5 17 -4 31 2 26 13 32 36 15 66 -8 16 -5 19 17 19 17 0 27 -7
31 -20 7 -29 77 -54 132 -49 10 1 6 9 -14 25 -38 31 -30 56 18 56 29 0 33 3
29 20 -3 11 -9 20 -14 20 -5 0 -6 13 -3 29 5 24 2 31 -17 41 -34 18 -35 19
-13 34 19 14 19 15 1 49 -14 26 -24 33 -39 29 -11 -2 -22 -11 -25 -18 -3 -8
-11 -14 -19 -14 -8 0 -14 -4 -14 -10 0 -5 -3 -9 -7 -8 -18 4 -63 -27 -63 -43
0 -18 -26 -33 -41 -23 -5 3 -22 -3 -39 -12 -27 -17 -30 -17 -48 -1 -25 23
-100 23 -109 1 -5 -15 -8 -15 -17 -2 -14 19 -69 17 -78 -2 -4 -8 -5 3 -2 25 6
42 -2 55 -37 68 -14 4 -13 -1 5 -34 16 -29 19 -43 10 -56 -17 -29 -12 -68 9
-65 26 4 21 -13 -9 -28 -14 -8 -30 -22 -35 -32 -5 -10 -16 -18 -24 -18 -23 0
-18 38 8 52 25 15 33 70 8 60 -11 -4 -13 2 -8 31 4 27 1 41 -15 59 -11 13 -24
33 -29 45 -6 15 -14 20 -28 16 -13 -3 -21 -1 -21 6 0 7 4 9 10 6 6 -3 7 1 4 9
-6 17 -16 20 -27 10z m218 -224 c3 -5 1 -10 -4 -10 -6 0 -11 5 -11 10 0 6 2
10 4 10 3 0 8 -4 11 -10z"/>
<path d="M12260 11808 c0 -19 2 -20 10 -8 13 19 13 30 0 30 -5 0 -10 -10 -10
-22z"/>
<path d="M8503 11173 c-3 -25 -4 -64 -2 -100 1 -19 7 -23 33 -24 17 0 39 -2
48 -4 16 -3 16 -1 3 25 -8 16 -15 42 -15 57 0 21 -9 34 -33 49 l-32 21 -2 -24z"/>
<path d="M12986 11018 c-19 -27 -21 -44 -3 -26 14 13 29 48 22 48 -2 0 -11
-10 -19 -22z"/>
<path d="M8588 10995 c-13 -19 -29 -35 -37 -35 -11 0 -10 -5 4 -20 10 -11 19
-30 20 -42 1 -13 3 -26 4 -30 0 -3 17 -16 37 -27 30 -18 35 -26 30 -46 -4 -15
0 -29 11 -41 10 -9 18 -23 19 -29 1 -7 7 -21 13 -32 10 -17 10 -16 11 5 0 12
-4 22 -9 22 -6 0 -2 24 8 53 11 28 24 51 30 49 20 -4 -17 56 -38 63 -10 3 -18
11 -18 18 1 39 -6 54 -35 70 -23 14 -28 21 -20 29 15 15 15 28 2 28 -5 0 -20
-16 -32 -35z"/>
<path d="M12928 10953 c7 -3 16 -2 19 1 4 3 -2 6 -13 5 -11 0 -14 -3 -6 -6z"/>
<path d="M11900 10924 c0 -8 5 -12 10 -9 6 4 8 11 5 16 -9 14 -15 11 -15 -7z"/>
<path d="M8982 10898 c-7 -7 -12 -18 -12 -25 0 -11 5 -11 20 -3 11 6 20 17 20
25 0 18 -12 19 -28 3z"/>
<path d="M8640 10675 c0 -8 7 -15 15 -15 9 0 12 6 9 15 -4 8 -10 15 -15 15 -5
0 -9 -7 -9 -15z"/>
<path d="M12429 10487 c7 -7 7 -17 0 -29 -13 -25 -1 -39 12 -15 8 13 14 15 30
7 10 -6 19 -8 19 -4 0 16 39 -30 42 -50 2 -11 10 -20 17 -18 8 2 21 0 29 -3
13 -5 12 -8 -6 -21 -27 -19 -28 -44 -3 -51 12 -3 23 -17 26 -33 4 -20 15 -32
37 -39 23 -8 29 -15 24 -28 -9 -21 67 -93 98 -93 28 0 53 -38 31 -46 -8 -3
-12 -10 -9 -16 3 -5 13 -7 21 -4 8 3 26 -3 41 -14 39 -31 108 -19 145 26 24
29 32 32 60 27 30 -6 31 -5 17 13 -8 10 -19 22 -25 26 -6 5 -5 8 3 8 10 0 10
3 0 14 -8 9 -17 11 -22 5 -15 -14 -23 -11 -29 11 -3 10 2 25 10 31 12 11 9 17
-21 45 -19 18 -38 45 -42 61 -4 15 -10 33 -14 38 -4 6 -10 18 -14 29 -5 14 -2
17 9 12 23 -9 18 4 -12 28 -34 27 -64 35 -84 23 -10 -6 -25 -4 -45 6 l-30 16
-13 -35 c-12 -34 -12 -34 -42 -19 -16 9 -33 13 -38 11 -5 -3 -16 3 -26 14 -10
11 -21 17 -26 14 -5 -2 -22 2 -38 11 -17 8 -39 15 -49 15 -11 0 -22 6 -25 14
-3 7 -19 16 -37 18 -20 3 -27 1 -21 -5z"/>
<path d="M13004 10439 c3 -17 6 -38 6 -45 0 -16 32 -34 71 -39 32 -4 94 -46
81 -54 -5 -3 5 -17 22 -31 17 -13 25 -17 17 -7 -8 10 -11 20 -8 24 4 3 2 12
-4 20 -9 9 -8 13 0 13 6 0 16 11 21 25 20 53 -36 103 -125 111 -22 2 -51 6
-64 9 -22 6 -23 4 -17 -26z"/>
<path d="M13291 10346 c-9 -10 -9 -16 -1 -21 13 -8 42 14 34 26 -8 13 -20 11
-33 -5z"/>
<path d="M13235 10330 c3 -5 10 -10 16 -10 5 0 9 5 9 10 0 6 -7 10 -16 10 -8
0 -12 -4 -9 -10z"/>
<path d="M13214 10161 c17 -18 17 -20 -1 -38 -21 -21 -19 -46 7 -83 9 -14 22
-40 28 -57 10 -31 10 -33 -12 -33 -22 0 -24 -4 -22 -42 4 -60 26 -130 47 -150
11 -9 19 -27 19 -41 0 -29 25 -93 40 -102 6 -4 10 10 10 35 0 24 4 39 10 35
12 -8 50 16 50 32 0 7 4 13 10 13 6 0 6 9 -1 26 -11 30 10 74 36 74 10 0 15
10 15 29 0 17 5 33 11 37 7 4 0 17 -18 36 -20 21 -24 31 -15 37 7 4 10 15 6
26 -6 15 -16 17 -66 12 -55 -5 -59 -4 -55 13 3 10 -4 28 -14 39 -11 11 -19 24
-19 29 0 13 -63 92 -74 92 -5 0 -1 -9 8 -19z"/>
<path d="M13083 10073 c-14 -5 -18 -33 -5 -33 4 0 14 5 22 10 17 11 2 30 -17
23z"/>
<path d="M13146 10065 c-19 -14 -18 -15 13 -15 21 0 31 4 29 12 -6 18 -21 19
-42 3z"/>
<path d="M9296 9867 c3 -10 9 -15 12 -12 3 3 0 11 -7 18 -10 9 -11 8 -5 -6z"/>
<path d="M9304 9825 c-8 -19 8 -52 22 -47 11 3 6 43 -7 56 -5 6 -11 2 -15 -9z"/>
<path d="M13320 9565 c-9 -11 -9 -23 -2 -45 10 -27 9 -30 -9 -30 -11 0 -17 -5
-14 -10 4 -6 11 -8 16 -5 5 4 9 1 9 -4 0 -14 -11 -13 -32 3 -19 14 -25 32 -8
21 6 -3 10 1 10 9 0 18 -13 26 -55 36 -25 6 -32 4 -28 -5 6 -19 -35 -29 -53
-14 -12 10 -15 10 -12 -2 2 -8 9 -18 16 -24 22 -18 4 -72 -29 -86 -35 -14 -31
-22 13 -23 19 -1 34 -7 34 -13 1 -7 2 -17 3 -23 2 -17 51 -12 51 5 0 18 102
125 119 125 6 0 11 5 11 11 0 5 4 8 8 5 4 -2 14 -1 22 5 12 7 10 9 -6 9 -23 0
-37 21 -28 44 7 19 -22 28 -36 11z"/>
<path d="M9193 9376 c3 -8 -1 -20 -9 -27 -13 -10 -11 -17 16 -44 30 -31 33
-65 7 -65 -18 0 25 -26 55 -34 15 -3 34 -19 42 -34 17 -31 17 -31 22 26 4 50
-25 119 -44 100 -14 -14 -34 -1 -30 20 1 10 -9 29 -23 45 -29 29 -44 35 -36
13z"/>
<path d="M9370 9200 c8 -5 20 -10 25 -10 6 0 3 5 -5 10 -8 5 -19 10 -25 10 -5
0 -3 -5 5 -10z"/>
<path d="M9406 9164 c-43 -42 -39 -80 7 -68 15 3 27 12 27 20 0 8 5 14 10 14
18 0 10 22 -10 27 -11 3 -17 9 -14 14 9 14 -3 10 -20 -7z"/>
<path d="M10615 9170 c-3 -5 -18 -10 -33 -10 -19 0 -23 -3 -15 -11 8 -8 5 -17
-11 -33 -13 -11 -21 -26 -19 -32 6 -16 -27 -46 -43 -40 -8 3 -13 0 -11 -7 1
-7 -6 -11 -18 -9 -11 2 -39 5 -62 7 -38 2 -43 0 -45 -19 -2 -35 -3 -41 -11
-53 -5 -8 3 -18 22 -27 37 -20 49 -53 25 -70 -11 -8 -14 -18 -9 -27 19 -30 14
-60 -11 -69 -15 -6 -24 -17 -24 -30 0 -11 -7 -23 -15 -26 -8 -4 -15 -15 -15
-26 0 -17 -5 -19 -30 -13 -42 9 -73 -2 -67 -25 4 -16 -9 -27 -45 -34 -3 0 -10
-4 -14 -8 -4 -5 -19 -8 -33 -8 -33 0 -53 -22 -69 -77 -10 -34 -19 -44 -40 -49
-15 -3 -34 -8 -44 -10 -9 -3 -19 0 -23 6 -8 12 -54 -19 -55 -37 0 -7 -6 -13
-14 -13 -8 0 -20 -13 -28 -30 -7 -18 -20 -30 -31 -30 -11 0 -21 -9 -24 -19 -3
-11 -12 -22 -20 -25 -10 -4 -13 -14 -8 -35 6 -26 2 -32 -25 -46 -17 -9 -35
-26 -41 -38 -5 -12 -30 -31 -55 -41 -42 -17 -46 -21 -40 -48 5 -24 2 -30 -20
-38 -14 -6 -29 -8 -34 -5 -4 3 -7 -10 -6 -28 1 -22 -4 -32 -14 -33 -30 -2 -64
-20 -52 -28 7 -4 12 -12 12 -17 0 -6 -12 -1 -26 10 -15 11 -30 18 -35 15 -5
-3 -9 0 -9 6 0 6 -8 9 -18 6 -12 -4 -27 3 -41 18 -22 23 -22 25 -6 50 22 33
13 70 -20 92 -30 20 -32 31 -4 39 11 4 27 22 35 40 8 19 20 38 27 42 8 4 17
22 20 39 7 36 -18 68 -50 63 -10 -2 -23 -1 -29 3 -5 4 -29 2 -53 -3 -33 -7
-47 -6 -63 6 -15 10 -25 11 -34 4 -8 -7 -14 -7 -19 1 -17 27 -62 -10 -69 -57
-2 -11 -11 -18 -25 -17 -14 0 -21 -5 -21 -19 0 -18 -2 -18 -23 -4 -18 12 -26
12 -39 3 -11 -8 -14 -17 -8 -26 4 -7 6 -20 3 -29 -4 -14 -3 -14 5 -1 9 12 13
12 30 -3 10 -9 22 -14 27 -10 4 5 4 -5 0 -22 -18 -69 8 -187 48 -221 20 -17
28 -31 24 -45 -4 -14 1 -23 16 -29 33 -14 53 -33 61 -57 4 -11 14 -24 23 -27
12 -5 14 -1 11 19 -6 28 3 32 22 10 6 -8 22 -13 33 -12 18 2 21 -3 19 -24 -2
-21 1 -27 15 -25 13 1 19 -7 21 -26 3 -27 14 -33 54 -30 9 1 26 -14 38 -33 25
-41 45 -46 36 -10 -5 19 -2 25 10 25 14 0 14 3 4 15 -14 17 -8 28 18 32 10 1
22 -7 27 -20 6 -12 19 -22 30 -22 11 0 26 -4 33 -8 6 -5 12 -5 12 0 1 4 8 -4
16 -20 8 -15 12 -32 9 -37 -3 -4 5 -12 17 -16 13 -4 29 -15 35 -25 16 -21 49
-15 56 11 4 15 17 19 68 22 35 1 66 0 67 -5 11 -25 38 -38 66 -34 17 2 38 1
47 -4 10 -5 23 -3 35 5 15 12 16 16 5 30 -12 14 -10 16 10 18 13 0 32 0 42 0
14 -2 16 2 7 17 -7 14 -6 27 5 47 13 26 13 30 -5 49 -20 21 -19 32 2 103 8 26
15 32 38 32 21 0 40 11 68 42 35 37 39 46 36 86 -2 36 1 45 16 49 11 3 16 11
13 19 -3 8 2 17 11 20 15 6 15 8 2 23 -8 9 -16 34 -18 56 -3 22 -10 50 -17 63
-13 25 -7 42 15 42 19 0 18 44 -2 65 -9 9 -29 19 -45 22 -28 5 -39 26 -20 37
12 8 20 66 9 72 -16 10 -7 23 21 29 27 6 29 9 20 32 -8 21 -6 26 11 30 13 4
19 11 16 20 -4 11 -1 13 14 8 12 -4 20 -2 20 5 0 7 8 10 20 7 15 -4 20 0 20
15 0 17 2 18 15 8 8 -7 35 -14 60 -16 35 -2 45 1 45 13 0 8 5 13 12 11 6 -2
23 8 37 22 14 14 39 34 54 44 27 16 27 19 13 35 -20 22 -20 31 0 31 12 0 14 7
9 29 -3 17 -2 32 4 36 6 3 11 16 11 27 0 11 9 35 20 54 13 19 17 35 11 39 -6
3 -8 11 -5 18 2 7 0 35 -5 62 -7 38 -6 56 5 77 8 15 14 29 14 33 0 9 -18 6
-25 -5z m-958 -1132 c-3 -8 -6 -5 -6 6 -1 11 2 17 5 13 3 -3 4 -12 1 -19z
m-229 -105 c38 -16 42 -21 40 -48 -3 -27 -7 -30 -42 -33 -21 -2 -36 1 -32 6 3
5 -6 14 -19 20 -13 6 -31 25 -40 42 l-16 30 33 0 c18 0 52 -8 76 -17z m87
-133 c-3 -5 -10 -10 -16 -10 -5 0 -9 5 -9 10 0 6 7 10 16 10 8 0 12 -4 9 -10z"/>
<path d="M9860 8550 c0 -5 5 -10 11 -10 5 0 7 5 4 10 -3 6 -8 10 -11 10 -2 0
-4 -4 -4 -10z"/>
<path d="M9890 8543 c0 -6 -3 -18 -6 -27 -3 -9 -2 -16 4 -16 15 0 21 25 11 41
-5 9 -9 9 -9 2z"/>
<path d="M9850 8452 c0 -6 -7 -12 -15 -14 -9 -2 -12 -8 -6 -16 7 -12 12 -12
30 0 11 7 20 17 18 22 -5 14 -27 20 -27 8z"/>
<path d="M8930 8322 c0 -4 5 -13 12 -20 18 -18 28 -15 28 8 0 13 -7 20 -20 20
-11 0 -20 -4 -20 -8z"/>
<path d="M7210 8081 c0 -6 -6 -11 -14 -11 -20 0 -25 -50 -8 -77 16 -26 34 -31
25 -7 -11 29 -8 69 6 80 10 8 11 13 3 18 -7 4 -12 2 -12 -3z"/>
<path d="M10115 7680 c-3 -5 -1 -10 4 -10 6 0 11 5 11 10 0 6 -2 10 -4 10 -3
0 -8 -4 -11 -10z"/>
<path d="M10080 7620 c-12 -7 -12 -10 3 -16 28 -10 20 -34 -12 -34 -39 0 -48
-26 -19 -57 l22 -23 22 21 c26 25 37 76 17 84 -8 2 -12 9 -8 14 8 14 -9 21
-25 11z"/>
<path d="M10187 7540 c-4 -14 -11 -18 -24 -14 -17 5 -17 5 0 -6 10 -6 23 -9
30 -7 7 2 20 -2 30 -11 15 -14 17 -13 17 1 0 15 2 15 28 0 29 -16 82 -12 82 7
0 13 -54 28 -112 31 -10 0 -20 4 -23 10 -10 15 -22 10 -28 -11z"/>
</g>
</svg>
