<?xml version="1.0" standalone="no"?>
<!DOCTYPE svg PUBLIC "-//W3C//DTD SVG 20010904//EN"
 "http://www.w3.org/TR/2001/REC-SVG-20010904/DTD/svg10.dtd">
<svg version="1.0" xmlns="http://www.w3.org/2000/svg"
 width="936.535189pt" height="644.856907pt" viewBox="0 0 936.535189 644.856907"
 preserveAspectRatio="xMidYMid meet">
<metadata>
Created by potrace 1.15, written by Peter Selinger 2001-2017
</metadata>
<g transform="translate(-496.000000,1271.000000) scale(0.100000,-0.100000)"
fill="#222222" stroke="none">
<path d="M8550 12710 c-13 -8 -12 -10 3 -10 9 0 17 5 17 10 0 12 -1 12 -20 0z"/>
<path d="M8647 12696 c-20 -15 -22 -32 -5 -42 7 -5 8 -3 4 5 -5 7 0 18 10 26
11 7 17 16 14 18 -3 3 -13 0 -23 -7z"/>
<path d="M8504 12664 c-2 -28 -1 -28 15 4 9 17 9 22 -1 22 -7 0 -14 -12 -14
-26z"/>
<path d="M8704 12660 c-4 -18 -13 -30 -22 -30 -12 0 -11 -4 6 -16 12 -8 20
-20 17 -25 -12 -19 7 -8 30 17 14 15 22 31 19 36 -4 6 0 14 7 19 16 10 12 14
-24 23 -25 6 -28 3 -33 -24z"/>
<path d="M8605 12660 c3 -5 8 -10 11 -10 2 0 4 5 4 10 0 6 -5 10 -11 10 -5 0
-7 -4 -4 -10z"/>
<path d="M8350 12616 c0 -11 -5 -35 -12 -53 -10 -27 -9 -35 1 -45 12 -11 13
-10 7 6 -5 13 -2 17 9 13 19 -8 30 10 15 28 -12 14 -5 39 9 31 4 -3 8 6 9 19
1 18 -3 23 -18 22 -13 -1 -20 -8 -20 -21z"/>
<path d="M8630 12633 c0 -14 19 -38 25 -32 8 8 -5 39 -16 39 -5 0 -9 -3 -9 -7z"/>
<path d="M8560 12570 c0 -5 5 -10 10 -10 6 0 10 5 10 10 0 6 -4 10 -10 10 -5
0 -10 -4 -10 -10z"/>
<path d="M8630 12559 c0 -26 -31 -67 -47 -62 -7 3 -15 -7 -19 -21 -4 -19 -13
-26 -29 -26 -23 0 -40 24 -29 41 3 5 -2 9 -10 9 -9 0 -18 11 -22 25 -4 17 -14
25 -30 27 -13 0 -29 1 -36 2 -20 2 -48 -84 -42 -125 5 -32 2 -37 -18 -42 -13
-4 -34 -3 -47 0 -18 5 -22 3 -16 -7 6 -9 -2 -11 -35 -5 -28 5 -40 4 -36 -3 3
-6 -12 -29 -35 -51 -37 -38 -44 -41 -77 -35 -20 4 -45 11 -54 16 -14 7 -18 5
-18 -11 0 -11 -9 -23 -22 -27 -21 -6 -21 -7 11 -36 21 -19 40 -28 52 -25 10 3
22 1 25 -4 3 -5 14 -9 24 -9 14 0 19 -6 17 -21 -1 -14 4 -23 16 -24 10 -2 14
1 11 7 -4 6 -1 9 7 6 8 -3 14 -11 14 -19 0 -17 31 -13 64 8 21 14 26 13 53 -7
l29 -21 12 30 c6 16 21 34 34 40 13 6 23 18 23 26 0 9 14 28 31 42 17 15 35
37 40 50 5 13 17 23 28 23 11 0 21 6 23 12 3 8 9 4 17 -10 8 -15 8 -22 1 -22
-6 0 -4 -8 5 -17 16 -15 16 -18 1 -28 -14 -11 -13 -14 9 -35 14 -13 25 -19 25
-14 0 5 8 -1 18 -13 13 -16 22 -19 40 -12 12 4 22 15 22 24 0 8 5 24 12 35 10
15 10 29 1 62 -7 24 -8 44 -4 46 5 1 6 13 4 26 -3 15 3 30 17 44 29 27 24 68
-8 65 -23 -3 -26 4 -16 31 5 13 9 14 20 5 17 -14 19 3 4 32 -15 27 -60 26 -60
-2z"/>
<path d="M10801 12498 c-10 -28 -13 -30 -53 -26 -48 4 -89 -21 -81 -50 5 -23
-53 -92 -78 -92 -10 0 -19 -4 -19 -10 0 -5 5 -10 10 -10 6 0 10 -8 10 -19 0
-10 11 -26 25 -35 32 -21 35 -20 35 7 0 27 19 61 21 37 1 -8 0 -30 -1 -47 -1
-24 3 -33 14 -33 20 0 50 -45 42 -65 -3 -8 -1 -15 5 -15 9 0 6 -41 -6 -60 -5
-9 1 -12 22 -9 3 0 10 -6 14 -13 10 -18 0 -60 -12 -52 -5 2 -30 2 -57 -2 -42
-5 -49 -9 -45 -25 4 -15 0 -19 -23 -20 -16 -1 -45 -2 -64 -4 -43 -3 -60 3 -60
20 0 13 -30 28 -46 23 -5 -1 -19 3 -31 10 -19 10 -20 9 -16 -8 3 -11 12 -20
19 -20 8 0 14 -9 14 -20 0 -11 -3 -20 -7 -20 -5 0 -16 -14 -25 -30 -19 -34 -5
-41 20 -10 17 20 17 20 55 1 20 -10 37 -15 37 -10 0 5 7 9 16 9 8 0 12 -4 9
-10 -3 -5 1 -10 10 -10 25 0 87 -51 81 -67 -6 -15 -5 -15 45 -18 52 -3 115
-36 111 -58 -2 -9 4 -20 13 -23 17 -7 21 -54 5 -54 -7 0 -7 -7 1 -21 8 -16 8
-23 0 -28 -7 -5 0 -22 20 -49 24 -32 41 -45 75 -53 27 -7 46 -18 49 -30 4 -10
11 -19 18 -19 6 0 20 -9 32 -20 12 -12 35 -22 51 -23 24 -2 28 1 26 18 -3 15
-1 17 8 8 13 -12 43 -6 35 7 -2 4 13 14 35 23 l40 15 -15 36 c-15 36 -15 36
10 36 18 0 26 7 31 26 4 14 2 30 -5 37 -16 16 -14 30 4 23 10 -3 15 1 16 14 2
23 3 29 13 52 8 18 -28 92 -65 133 -9 11 -21 34 -25 50 -7 27 -6 29 9 17 12
-10 19 -11 29 -2 7 6 28 20 46 30 22 14 32 27 32 45 0 18 5 25 19 25 21 0 33
22 25 45 -4 9 0 15 10 15 9 0 15 3 15 8 -1 4 -1 22 0 40 1 32 1 32 26 16 14
-9 25 -15 26 -13 10 49 10 49 -26 49 -25 0 -37 5 -42 18 -3 9 -19 31 -36 49
-18 19 -26 36 -22 44 5 8 4 10 -3 5 -7 -4 -12 -2 -12 3 0 6 -7 11 -15 11 -8 0
-15 -5 -15 -12 0 -6 -9 -3 -20 7 -13 11 -18 25 -14 37 4 13 0 18 -13 18 -11 0
-36 16 -57 35 -21 19 -41 36 -45 36 -3 1 -15 3 -26 5 -11 2 -41 8 -67 13 -27
6 -54 8 -62 5 -26 -10 -104 45 -92 65 3 5 0 11 -8 14 -10 4 -18 -5 -25 -25z
m-41 -527 c0 -10 -40 -22 -52 -15 -18 11 -6 24 22 24 17 0 30 -4 30 -9z"/>
<path d="M9360 12424 c0 -26 -2 -26 -42 -20 -24 4 -52 8 -63 9 -11 2 -36 -10
-55 -25 -29 -23 -42 -26 -72 -22 -27 5 -46 1 -71 -14 -19 -11 -58 -25 -88 -31
-29 -7 -61 -19 -71 -27 -9 -9 -23 -14 -30 -12 -17 6 -46 -52 -37 -77 4 -12 1
-25 -7 -33 -8 -7 -14 -21 -14 -32 0 -21 -41 -70 -59 -70 -6 0 -11 -4 -11 -10
0 -5 -9 -9 -21 -7 -21 2 -32 -10 -43 -45 -3 -11 -15 -18 -29 -18 -13 0 -32 -9
-41 -19 -21 -24 -67 -33 -81 -17 -5 7 -23 18 -39 24 -24 11 -28 11 -23 -3 4
-8 2 -15 -2 -15 -5 0 -12 6 -14 13 -4 9 -6 9 -6 0 -1 -7 -8 -10 -16 -7 -9 4
-15 0 -15 -10 0 -10 -8 -16 -21 -16 -15 0 -19 -5 -15 -15 11 -30 -105 -70
-130 -45 -7 7 -21 7 -43 -1 -27 -10 -35 -8 -52 7 -21 19 -79 30 -79 14 0 -19
-32 -10 -37 10 -3 13 -14 20 -28 20 -13 0 -25 7 -29 15 -3 8 -12 12 -21 9 -9
-4 -15 -1 -15 9 0 8 5 17 12 19 9 3 9 12 -1 35 -15 37 -41 51 -54 28 -5 -9
-16 -14 -26 -10 -11 3 -25 -3 -36 -15 -10 -11 -21 -17 -25 -15 -4 3 -13 -17
-20 -43 -6 -26 -17 -54 -24 -62 -8 -8 -16 -35 -19 -60 -4 -34 -1 -52 14 -77
l21 -33 -21 0 c-12 0 -21 -6 -21 -15 0 -8 -15 -29 -33 -47 -18 -18 -40 -45
-50 -60 -12 -19 -22 -25 -37 -21 -16 4 -19 2 -14 -12 6 -15 3 -17 -24 -13 -26
4 -29 2 -20 -9 8 -10 8 -17 1 -24 -8 -8 -13 -7 -17 0 -11 17 -23 13 -28 -7 -4
-15 -19 -21 -63 -26 -37 -4 -62 -3 -71 5 -7 6 -22 8 -33 4 -10 -3 -22 -1 -26
5 -4 6 -15 8 -25 5 -11 -3 -20 1 -24 11 -5 13 -17 16 -68 12 -58 -4 -64 -3
-85 23 -13 15 -43 35 -68 44 -43 17 -44 17 -76 -6 -28 -20 -34 -21 -42 -8 -8
13 -15 14 -33 5 -13 -6 -24 -16 -24 -22 0 -25 -33 -24 -59 0 -32 30 -109 46
-122 25 -4 -8 -21 -14 -36 -14 -34 0 -46 -34 -14 -42 20 -5 38 -39 27 -50 -3
-4 5 -21 19 -39 14 -18 25 -41 25 -52 0 -10 8 -36 19 -57 19 -39 14 -67 -14
-87 -5 -4 -10 -45 -10 -90 0 -80 -1 -83 -22 -82 -21 1 -23 -3 -23 -52 0 -30
-4 -62 -9 -72 -6 -9 -13 -34 -16 -54 -3 -21 -11 -38 -17 -38 -7 0 -9 -18 -6
-50 3 -27 1 -50 -3 -50 -5 0 -9 -9 -9 -21 0 -11 -5 -30 -12 -42 -6 -12 -11
-37 -9 -55 2 -22 -3 -38 -14 -46 -15 -11 -15 -15 3 -54 10 -23 22 -39 25 -35
4 3 7 -3 7 -13 0 -11 6 -26 13 -33 10 -10 8 -15 -6 -26 -17 -12 -17 -15 5 -61
27 -56 28 -150 2 -140 -19 7 -17 -4 6 -39 26 -39 26 -61 0 -35 -22 22 -40 26
-40 9 0 -12 -50 -4 -60 9 -11 15 -63 12 -81 -4 -10 -9 -25 -14 -32 -11 -8 3
-19 1 -25 -5 -7 -7 -21 -4 -46 12 -20 12 -36 17 -36 12 0 -6 -23 -13 -50 -17
-41 -6 -49 -10 -40 -21 9 -10 6 -15 -17 -21 -15 -4 -36 -6 -45 -4 -10 1 -18
-2 -18 -7 0 -5 -29 -8 -65 -6 -62 3 -67 1 -77 -22 -6 -13 -19 -24 -30 -24 -10
0 -18 -7 -18 -14 0 -13 -5 -13 -36 0 -40 17 -64 13 -64 -11 0 -8 -4 -15 -9
-15 -5 0 -11 -9 -14 -21 -3 -12 -10 -18 -16 -15 -6 4 -29 -11 -53 -33 -34 -33
-42 -47 -42 -76 0 -20 -5 -35 -12 -35 -37 0 -58 -139 -29 -194 15 -29 15 -30
-27 -75 -24 -25 -44 -47 -45 -50 -2 -2 -9 1 -16 7 -14 12 -61 3 -105 -20 -20
-10 -22 -17 -17 -46 5 -25 2 -37 -10 -46 -14 -10 -13 -15 11 -46 14 -19 30
-46 36 -60 6 -15 12 -20 15 -12 4 10 8 10 18 2 22 -19 60 -8 63 18 4 29 16 28
41 -5 11 -16 28 -36 37 -45 15 -15 14 -17 -7 -29 -23 -12 -23 -12 -3 -28 14
-12 20 -30 22 -71 1 -30 8 -58 15 -62 29 -18 35 -24 41 -45 6 -19 4 -23 -16
-23 -23 -1 -23 -1 4 -23 30 -24 88 -35 88 -16 0 7 7 8 18 4 9 -4 26 -7 37 -7
28 1 85 34 85 49 0 7 5 13 10 13 6 0 10 7 10 15 0 8 14 17 33 20 37 7 92 58
82 75 -5 7 -12 5 -20 -7 -13 -17 -15 -17 -35 3 l-21 21 34 23 c35 24 39 48 11
71 -21 17 -17 31 6 19 16 -9 20 -8 20 5 0 9 -7 18 -16 22 -12 4 -8 11 17 33
26 21 33 35 35 66 2 52 13 84 29 84 18 0 7 37 -13 45 -13 5 -13 7 4 19 10 8
24 12 30 9 7 -2 19 6 28 19 9 12 16 17 16 10 0 -16 45 -15 59 2 6 7 9 21 5 29
-5 13 4 16 43 19 44 3 48 5 51 30 2 18 11 28 28 32 13 4 24 11 24 16 0 6 11
10 25 10 14 0 43 6 64 12 36 11 41 17 57 68 9 30 25 64 35 76 11 11 16 23 13
27 -4 4 -1 13 5 21 7 8 10 20 6 26 -3 5 -1 10 4 10 6 0 20 9 31 20 16 16 25
18 40 10 11 -6 20 -15 20 -21 0 -6 -5 -7 -11 -3 -9 5 -10 -1 -5 -22 9 -33 25
-56 36 -49 15 10 38 -32 44 -79 2 -26 12 -56 21 -65 8 -10 21 -41 27 -69 7
-29 18 -52 23 -52 6 0 22 -10 35 -22 14 -13 25 -18 27 -11 8 22 44 0 62 -37
17 -35 17 -41 3 -69 -14 -29 -13 -33 11 -70 22 -33 32 -39 69 -43 24 -3 49 0
56 5 8 7 25 4 51 -8 23 -10 48 -14 60 -10 12 3 21 3 21 -2 0 -4 17 -13 38 -20
20 -6 46 -15 57 -19 18 -7 19 -6 6 10 -20 25 -2 37 59 40 14 1 31 -6 38 -14
10 -13 11 -12 5 5 -6 18 -5 18 10 6 10 -8 36 -15 58 -17 22 -1 46 -7 53 -13 7
-6 15 -8 19 -5 16 16 49 -13 77 -68 28 -57 29 -63 14 -79 -15 -17 -15 -21 0
-59 9 -23 14 -45 11 -50 -3 -5 -1 -17 4 -27 16 -30 26 -60 29 -90 1 -7 15 -13
32 -13 17 0 30 -4 30 -10 0 -5 -10 -10 -22 -10 -21 0 -21 0 -2 -15 24 -18 44
-19 44 -2 0 8 7 14 15 14 9 0 14 -5 12 -11 -6 -16 10 -56 23 -56 5 0 10 7 10
15 0 21 13 19 28 -5 7 -11 21 -20 31 -20 11 0 28 -11 39 -25 11 -14 26 -25 33
-25 8 0 26 -6 40 -14 14 -7 37 -16 51 -19 33 -9 40 -27 25 -66 -8 -21 -8 -34
-1 -41 17 -17 44 0 44 27 0 25 0 25 26 8 24 -15 28 -15 42 -1 13 12 13 18 2
31 -17 21 -5 31 17 14 11 -9 14 -10 9 -1 -4 7 -2 12 8 12 20 0 30 19 28 53 -2
27 0 29 23 23 21 -6 25 -3 25 18 0 17 8 27 29 36 18 7 28 17 25 25 -8 19 29
24 43 5 11 -13 12 -13 13 1 0 25 45 12 58 -16 10 -22 14 -23 41 -12 26 9 36 8
60 -6 36 -21 51 -22 51 -2 0 8 4 15 9 15 5 0 11 -7 15 -15 3 -8 1 -15 -3 -15
-5 0 -11 -7 -15 -15 -3 -8 -2 -14 2 -13 4 1 15 -2 25 -7 12 -5 24 -1 37 10 11
10 23 15 26 12 8 -8 54 59 54 78 0 18 5 19 29 3 16 -10 25 -7 53 14 18 14 43
28 55 32 29 9 70 -2 77 -22 12 -32 37 -72 45 -72 5 0 26 -15 47 -34 21 -19 42
-32 47 -29 5 3 11 -4 14 -15 3 -11 16 -23 29 -26 13 -4 24 -12 24 -20 0 -7 11
-19 25 -26 22 -12 23 -15 10 -23 -9 -5 -23 -6 -31 -3 -8 3 -12 2 -9 -4 3 -5
-3 -17 -14 -27 -14 -13 -17 -23 -11 -33 15 -24 12 -70 -5 -70 -31 0 -66 -24
-64 -44 1 -12 -3 -34 -9 -49 -10 -24 -14 -26 -33 -17 -15 9 -24 8 -35 -1 -8
-6 -14 -8 -14 -3 0 4 -6 0 -13 -11 -8 -10 -19 -15 -25 -11 -15 9 -26 -36 -16
-66 4 -13 7 -25 7 -28 0 -3 7 -20 14 -39 14 -33 13 -36 -8 -51 -12 -10 -19
-22 -15 -29 4 -6 -4 -22 -18 -35 -31 -28 -32 -37 -6 -61 11 -10 20 -27 20 -37
0 -31 27 -73 67 -107 29 -25 33 -31 16 -26 -17 5 -23 2 -23 -9 0 -9 -5 -16
-11 -16 -7 0 -10 -12 -7 -30 3 -22 -2 -36 -19 -52 -13 -12 -23 -32 -23 -45 0
-22 -33 -79 -54 -94 -5 -4 -5 -12 -2 -18 4 -6 -1 -23 -12 -39 -36 -52 -35 -62
6 -79 20 -8 44 -21 53 -29 17 -15 94 -10 105 7 4 7 39 -12 98 -53 10 -8 19
-26 19 -41 0 -15 4 -27 10 -27 6 0 20 -9 31 -20 30 -27 93 -52 101 -40 4 6 15
0 27 -15 20 -26 58 -34 58 -13 0 6 -7 19 -16 29 -14 16 -14 20 7 48 13 17 27
31 32 31 4 0 5 9 2 20 -4 12 -2 20 5 20 8 0 7 8 -4 25 -13 20 -14 25 -3 25 7
0 24 11 37 25 18 20 21 28 12 37 -14 14 -16 98 -2 98 6 0 10 -6 10 -14 0 -19
23 -36 38 -27 7 4 10 15 7 23 -5 13 5 19 49 29 54 12 57 11 121 -20 38 -19 73
-30 84 -26 13 4 20 -1 25 -17 6 -21 7 -21 17 -5 5 9 16 17 24 17 7 0 19 14 27
30 13 31 23 37 33 20 10 -16 55 -12 55 5 0 8 6 12 14 9 8 -3 17 -1 20 5 4 6
24 15 44 21 51 14 73 33 81 69 l6 30 59 -54 c33 -30 63 -55 68 -55 5 0 32 -12
60 -26 31 -16 61 -24 76 -21 26 5 86 -15 97 -33 11 -18 32 -11 39 13 6 20 7
21 20 5 7 -10 15 -15 19 -12 5 6 68 -23 77 -36 8 -11 50 -19 66 -13 19 7 18
29 -2 37 -13 5 -15 15 -11 49 4 28 1 48 -8 61 -10 13 -11 24 -5 36 5 10 6 20
3 24 -3 3 2 15 13 27 14 16 26 19 51 14 36 -6 48 13 14 22 -10 2 -24 16 -30
29 -14 31 -14 34 -1 34 6 0 10 -9 10 -21 0 -11 4 -17 10 -14 5 3 15 -3 22 -15
20 -32 54 -25 73 14 15 31 19 34 42 25 17 -6 39 -4 76 8 29 10 56 16 61 15 24
-8 56 9 56 29 0 17 3 19 13 10 10 -8 17 -7 25 1 9 9 12 8 12 -4 0 -9 10 -18
22 -20 14 -2 22 -11 23 -26 2 -21 29 -51 48 -52 5 0 6 -9 2 -19 -3 -11 -2 -22
3 -25 5 -3 7 -17 5 -30 -8 -42 -42 -37 -97 16 -37 35 -54 45 -66 38 -11 -6
-20 -3 -28 11 -7 10 -21 19 -33 19 -18 0 -18 -2 8 -24 22 -19 25 -27 16 -38
-10 -11 -3 -22 33 -56 44 -42 44 -43 29 -72 -9 -17 -20 -30 -25 -30 -6 0 -10
-11 -10 -25 0 -18 4 -23 15 -19 8 4 22 1 30 -6 8 -7 15 -8 15 -2 0 5 -9 16
-21 24 -21 13 -21 13 5 16 14 1 31 3 38 4 8 2 13 -11 15 -36 1 -21 9 -46 18
-56 16 -18 20 -35 6 -26 -5 4 -7 -2 -4 -13 2 -10 15 -23 28 -29 13 -6 32 -23
41 -37 9 -14 30 -33 46 -41 16 -8 34 -27 40 -42 7 -15 24 -43 39 -62 14 -19
29 -53 32 -75 4 -26 16 -49 35 -65 36 -32 62 -74 62 -100 0 -13 7 -20 20 -20
29 0 35 -24 16 -69 -15 -38 -14 -40 4 -46 10 -3 32 -21 48 -40 38 -42 85 -68
99 -54 8 8 18 7 33 -1 18 -10 24 -9 35 7 13 17 14 17 32 0 11 -9 28 -17 39
-17 38 0 64 -13 64 -31 0 -19 75 -95 114 -116 13 -7 35 -14 50 -17 32 -6 56
-23 56 -41 0 -6 9 -20 19 -29 11 -10 22 -29 25 -42 4 -16 19 -31 41 -40 27
-11 41 -28 70 -85 19 -39 37 -80 39 -91 1 -12 11 -27 21 -34 15 -11 20 -10 36
9 12 14 17 16 13 6 -7 -22 26 -56 37 -38 6 11 17 11 57 0 111 -28 141 -22 147
32 4 36 22 41 62 17 21 -13 60 -26 88 -30 42 -6 54 -4 78 14 l29 21 43 -49
c39 -43 49 -49 87 -51 24 -1 58 -5 76 -9 30 -8 32 -7 32 18 0 22 3 25 16 18
17 -10 56 6 112 47 18 12 36 19 42 16 5 -3 10 1 10 10 0 10 5 13 13 9 8 -5 8
-2 -2 9 -12 15 -11 17 8 17 15 0 21 -6 21 -22 0 -12 3 -19 6 -15 3 3 17 -5 31
-19 23 -23 26 -24 37 -8 9 12 15 14 20 6 10 -17 36 -15 36 2 0 7 7 20 16 27
24 20 36 59 24 74 -7 9 -8 15 -1 19 6 4 7 14 4 22 -5 14 -3 14 16 3 12 -8 24
-22 27 -31 5 -17 17 -22 37 -19 5 1 20 -8 34 -19 18 -14 30 -17 42 -10 30 15
66 -10 69 -50 5 -46 18 -60 57 -60 29 0 34 4 40 29 5 22 10 28 26 24 22 -6 23
2 8 46 -6 17 -17 31 -25 31 -7 0 -29 20 -48 45 l-34 46 24 25 c19 21 30 25 59
22 34 -4 35 -3 35 29 0 20 -5 33 -12 33 -18 0 -39 50 -29 68 5 10 10 11 15 4
4 -6 13 -9 21 -6 8 4 12 10 9 15 -3 5 4 9 14 9 15 0 19 5 15 19 -2 10 3 25 11
34 9 8 16 23 16 32 0 13 6 15 31 10 31 -7 32 -7 25 26 -4 19 -8 50 -10 69 -3
41 -31 99 -52 107 -8 3 -13 11 -12 18 6 24 -46 115 -69 121 -12 3 -27 18 -33
32 -6 15 -22 47 -36 71 -14 24 -23 50 -20 57 3 7 1 16 -4 19 -22 13 -8 25 29
25 35 0 40 3 45 28 6 23 12 27 39 27 25 0 31 4 29 18 -2 9 2 17 8 17 15 0 12
38 -7 78 -12 26 -14 37 -5 40 16 5 16 83 0 117 -9 20 -9 31 0 45 8 14 8 21 1
26 -7 4 -9 22 -4 48 9 57 9 125 0 164 -6 28 -5 32 12 32 10 0 26 13 35 28 15
24 22 28 49 24 22 -3 34 0 41 12 5 9 16 16 23 16 8 0 15 5 15 10 0 6 9 10 19
10 16 0 18 5 14 40 -4 28 -2 40 7 40 7 0 10 7 6 16 -5 13 -1 15 18 10 20 -5
26 -1 32 16 4 13 12 26 18 30 8 5 7 11 -2 20 -9 9 -12 9 -12 -4 0 -9 -14 -19
-32 -24 -22 -7 -34 -17 -36 -31 -2 -16 -11 -23 -35 -25 -24 -2 -33 -8 -35 -25
-3 -17 -11 -23 -30 -25 -60 -4 -85 4 -141 46 -64 46 -105 57 -201 52 -63 -3
-92 7 -83 30 3 8 -3 24 -12 34 -10 11 -13 20 -8 20 6 0 14 15 17 33 6 27 8 29
17 15 12 -22 44 -24 35 -3 -6 17 15 20 31 4 14 -14 73 -2 80 17 3 8 10 11 15
7 7 -4 9 4 6 21 -5 25 -3 27 19 21 14 -3 32 0 45 9 21 15 21 15 -6 22 -14 3
-26 13 -26 20 0 8 -10 18 -23 23 -27 10 -55 41 -38 41 14 0 15 57 1 65 -5 3
-10 19 -10 35 0 29 -35 100 -50 100 -11 0 -33 122 -23 129 16 12 8 54 -12 65
-11 6 -22 14 -25 17 -3 3 -13 8 -22 12 -9 3 -18 16 -20 29 -3 20 -9 23 -45 24
-34 0 -46 6 -65 29 -13 16 -22 35 -20 42 2 7 -4 13 -12 13 -8 0 -17 9 -21 20
-6 19 -65 62 -82 59 -37 -6 -44 26 -18 79 15 30 15 33 -15 86 -34 60 -54 81
-69 72 -14 -9 -43 5 -38 18 3 7 -1 20 -9 31 -8 10 -14 24 -14 29 0 6 5 3 11
-6 5 -10 15 -18 21 -18 7 0 6 6 -2 15 -15 18 -15 17 29 40 31 16 33 19 27 56
-4 24 -2 39 4 39 5 0 10 5 10 10 0 13 -37 13 -45 1 -10 -18 -86 -3 -120 23
-19 14 -40 26 -48 26 -7 0 -24 11 -37 25 -13 14 -28 25 -33 25 -6 0 -25 11
-43 25 -36 28 -59 32 -71 13 -4 -7 -15 -14 -23 -14 -8 -1 -23 -5 -32 -9 -13
-5 -18 -2 -18 8 0 9 -13 25 -30 37 -16 12 -30 26 -30 33 0 6 -20 30 -44 52
-43 42 -59 78 -61 140 0 17 -4 36 -9 43 -4 8 -1 23 8 37 9 13 16 34 16 45 0
13 4 18 11 14 11 -6 11 61 0 81 -3 6 -6 24 -6 40 0 24 -4 29 -20 27 -11 -2
-26 -11 -33 -20 -11 -14 -14 -15 -21 -3 -7 11 -15 11 -40 3 -45 -16 -76 -1
-52 24 6 5 4 21 -5 41 -11 22 -13 37 -6 49 7 13 6 24 -4 40 -14 20 -13 22 17
33 24 8 30 15 26 31 -4 17 0 20 24 20 18 0 39 10 54 25 27 26 34 75 11 75 -19
0 -29 30 -15 46 6 8 9 25 7 38 -4 18 0 26 14 29 11 3 18 0 18 -9 0 -8 7 -14
15 -14 8 0 15 9 15 20 0 25 8 25 35 0 17 -16 38 -20 120 -23 55 -1 106 -7 114
-12 21 -13 75 -14 83 -2 4 8 15 7 34 -1 35 -16 39 -11 20 27 -20 38 -20 52 -1
45 11 -5 13 -2 9 10 -8 20 0 20 31 0 30 -20 55 -12 55 17 0 14 5 19 14 16 10
-4 13 -1 9 10 -3 8 0 18 6 22 9 6 6 19 -10 52 -31 59 -59 79 -59 40 0 -10 -7
-24 -16 -31 -12 -11 -18 -10 -32 3 -15 16 -15 17 1 17 23 0 21 9 -8 32 -14 11
-25 25 -25 31 -1 29 -92 99 -107 83 -8 -8 8 -27 18 -21 5 4 9 -20 9 -54 0 -34
-4 -61 -9 -61 -22 0 -39 13 -34 26 7 18 -23 30 -41 15 -18 -15 -75 4 -98 33
-9 11 -20 17 -24 13 -4 -4 -13 2 -21 13 -17 25 -33 26 -33 3 0 -32 -15 -45
-43 -37 -30 7 -35 28 -11 42 20 11 15 56 -8 60 -12 2 -20 -8 -28 -35 -11 -36
-16 -40 -71 -57 -32 -9 -59 -21 -59 -26 0 -5 -15 -24 -32 -43 -24 -26 -45 -37
-78 -42 -75 -11 -132 -12 -202 0 -55 8 -74 16 -102 44 -36 35 -94 49 -103 24
-3 -6 -10 -10 -18 -7 -7 3 -15 -1 -18 -9 -4 -11 -16 -13 -55 -6 -28 4 -61 13
-73 19 -19 11 -21 10 -15 -5 13 -34 -25 -54 -94 -51 -57 2 -64 4 -72 26 -7 19
-11 21 -17 11 -6 -10 -19 -12 -44 -7 -35 7 -36 6 -48 -34 -11 -36 -16 -40 -35
-36 -13 4 -24 1 -26 -6 -3 -8 -46 -11 -145 -9 -135 1 -142 0 -148 -19 -4 -13
-13 -20 -23 -18 -10 2 -22 -6 -27 -17 -6 -11 -20 -21 -32 -23 -12 -2 -25 -12
-28 -22 -3 -11 -21 -30 -38 -42 -18 -12 -38 -30 -45 -40 -7 -9 -19 -15 -27
-12 -10 4 -12 0 -8 -15 4 -15 1 -21 -10 -21 -30 0 -82 -56 -96 -104 -13 -45
-30 -70 -51 -78 -5 -1 -11 -25 -14 -52 -4 -49 -23 -76 -53 -76 -7 0 -22 -5
-32 -12 -14 -9 -23 -8 -42 5 -13 10 -35 17 -49 17 -17 0 -21 3 -12 9 10 6 5
16 -22 42 -21 19 -34 40 -31 48 3 7 -1 24 -10 37 -8 13 -12 30 -8 39 4 12 -9
30 -43 61 -40 36 -45 44 -28 44 17 0 20 5 17 24 -3 13 -1 32 5 41 7 13 2 31
-19 69 -16 28 -29 58 -29 66 -1 15 -53 53 -88 64 -26 8 -55 70 -47 97 5 15 2
22 -13 26 -29 7 -34 40 -12 76 15 24 17 35 8 51 -6 11 -7 21 -2 23 35 12 59
31 59 46 0 10 7 22 15 27 8 5 11 10 5 11 -5 1 -21 3 -35 6 -14 2 -36 5 -49 6
-17 1 -31 15 -47 42 -26 45 -30 71 -11 79 6 3 2 3 -9 1 -17 -4 -25 2 -38 29
-9 20 -23 33 -32 32 -9 0 -19 5 -21 12 -3 7 1 12 8 11 16 -3 69 11 69 17 0 2
-6 13 -12 24 -10 16 -10 24 0 40 9 15 10 31 2 63 -5 24 -7 52 -4 63 3 12 -4
28 -19 43 -21 18 -29 21 -45 12 -29 -16 -31 -14 -30 19 1 39 28 63 61 55 28
-7 40 -27 30 -51 -10 -28 34 -93 64 -94 6 0 15 10 19 22 6 20 7 21 17 2 15
-28 28 -34 72 -34 22 0 45 4 50 8 15 10 38 63 41 92 2 14 8 26 14 28 19 7 10
31 -20 53 -25 19 -27 24 -14 33 13 10 10 12 -16 14 -18 1 -48 9 -67 17 -19 8
-48 16 -64 17 -19 1 -41 14 -60 36 -26 28 -35 32 -60 27 -26 -6 -35 -1 -69 34
-40 41 -54 74 -32 77 24 3 24 4 12 19 -17 21 -31 19 -62 -9 -38 -36 -79 -19
-106 43 -29 67 -35 84 -36 101 -1 9 -13 15 -35 17 -26 2 -32 0 -27 -13 5 -12
1 -14 -16 -8 -12 3 -34 7 -49 8 -15 1 -31 5 -35 9 -4 4 -15 7 -24 7 -9 0 -23
15 -31 33 -11 26 -20 32 -46 33 -38 0 -72 29 -109 92 -20 33 -28 41 -35 31 -6
-9 -12 -10 -16 -4 -5 6 -18 11 -30 12 -19 2 -23 -2 -23 -23z m-1650 -784 c0
-5 -2 -10 -4 -10 -3 0 -8 5 -11 10 -3 6 -1 10 4 10 6 0 11 -4 11 -10z m5140
-702 c0 -9 -28 -23 -35 -17 -2 2 -1 17 2 33 6 27 7 28 19 11 8 -10 14 -23 14
-27z m-6050 -654 c0 -8 -5 -14 -11 -14 -5 0 -7 -5 -4 -10 4 -6 9 -9 13 -7 4 2
19 -20 35 -49 l27 -54 -22 0 c-19 0 -20 -2 -8 -10 9 -6 10 -10 3 -10 -6 0 -15
5 -18 11 -5 7 -13 5 -24 -5 -15 -14 -19 -14 -39 0 -20 14 -22 14 -22 0 0 -28
-17 -17 -24 15 -5 26 0 38 24 66 17 18 30 42 30 51 0 21 20 43 32 36 4 -3 8
-12 8 -20z m-109 -237 c-7 -7 -12 -5 -17 7 -4 11 -1 21 7 27 17 11 26 -18 10
-34z m409 -7 c0 -5 -5 -10 -11 -10 -5 0 -7 5 -4 10 3 6 8 10 11 10 2 0 4 -4 4
-10z m-13 -34 c14 -13 22 -29 19 -35 -10 -16 -41 -14 -56 4 -9 11 -10 15 -1
15 8 0 10 8 6 20 -8 26 0 25 32 -4z m5313 -206 c0 -5 -4 -10 -10 -10 -5 0 -10
5 -10 10 0 6 5 10 10 10 6 0 10 -4 10 -10z m250 -11 c0 -6 -4 -7 -10 -4 -5 3
-10 11 -10 16 0 6 5 7 10 4 6 -3 10 -11 10 -16z m-4820 -699 c0 -5 -4 -10 -10
-10 -5 0 -10 5 -10 10 0 6 5 10 10 10 6 0 10 -4 10 -10z m-55 -80 c3 -5 2 -10
-4 -10 -5 0 -13 5 -16 10 -3 6 -2 10 4 10 5 0 13 -4 16 -10z m5825 -129 c13
-26 13 -40 -1 -21 -8 11 -12 12 -16 2 -7 -17 -23 -5 -23 19 0 25 26 25 40 0z
m-467 -89 c-2 -7 14 -15 37 -18 22 -4 43 -10 46 -15 8 -13 -16 -50 -27 -43 -6
3 -16 -1 -22 -10 -11 -14 -17 -11 -56 24 -43 39 -43 41 -26 61 20 21 52 22 48
1z m-746 -82 c1 0 0 -7 -3 -15 -5 -11 1 -15 22 -15 22 0 34 -9 51 -34 13 -21
32 -35 51 -39 16 -3 45 -20 63 -36 22 -21 40 -29 52 -25 13 4 29 -5 53 -30 19
-20 40 -36 46 -36 6 0 18 -7 27 -15 9 -8 30 -26 47 -40 34 -27 44 -21 44 27 0
16 5 19 24 14 17 -4 31 2 52 20 l28 27 18 -23 c23 -28 23 -35 -2 -58 l-21 -19
21 -54 c22 -56 52 -95 79 -104 16 -5 45 -59 44 -82 -1 -17 37 -24 44 -7 7 18
18 18 37 -2 23 -22 20 -37 -4 -24 -25 13 -26 -1 -2 -29 19 -23 82 -41 82 -22
0 19 26 12 53 -13 27 -25 26 -36 -3 -36 -10 0 -23 -7 -30 -15 -16 -19 -50 -19
-50 0 0 8 -10 24 -23 37 -18 18 -34 23 -80 24 -49 0 -56 -2 -59 -20 -2 -15 -9
-20 -24 -18 -12 1 -26 -4 -33 -12 -6 -7 -21 -12 -31 -9 -23 6 -26 19 -7 27 6
3 -1 3 -18 -1 -16 -3 -31 -6 -32 -7 -1 -1 2 -18 7 -39 4 -21 5 -50 1 -64 l-7
-27 -17 24 c-9 14 -17 30 -17 37 0 6 -9 14 -19 18 -14 4 -18 12 -14 23 5 14 3
15 -7 5 -11 -10 -11 -15 0 -28 10 -12 10 -19 2 -27 -9 -9 -15 -7 -26 7 -13 18
-14 18 -21 -4 -7 -23 -7 -23 -28 -3 -12 10 -41 30 -65 43 -31 17 -48 35 -62
67 -27 59 -25 70 10 90 28 16 35 29 31 60 -2 11 2 11 19 2 20 -10 21 -10 16 8
-5 15 -1 22 14 27 15 5 20 13 18 28 -2 12 -9 21 -16 19 -10 -2 -11 4 -7 19 6
19 4 21 -18 15 -22 -5 -30 0 -52 31 -14 21 -25 42 -25 48 -1 18 -39 57 -50 50
-11 -7 -110 46 -130 70 -7 8 -20 15 -29 15 -22 1 -114 87 -101 95 18 11 10 32
-17 45 l-28 13 30 7 c17 3 43 3 60 -2 16 -4 31 -8 32 -8z m-3117 -62 c0 -18
-2 -19 -17 -7 -10 7 -20 14 -22 16 -1 1 0 6 3 12 10 16 36 1 36 -21z m3141
-458 c5 0 9 -7 9 -16 0 -23 -44 -14 -48 10 -3 14 0 17 13 12 9 -3 21 -6 26 -6z
m-4 -47 c-4 -3 -2 -12 3 -18 7 -9 6 -14 -3 -18 -15 -6 -49 27 -40 37 4 3 15 6
26 6 11 0 17 -3 14 -7z m83 -43 c0 -5 -4 -10 -9 -10 -6 0 -13 5 -16 10 -3 6 1
10 9 10 9 0 16 -4 16 -10z m-1257 -323 c3 -8 2 -20 -3 -27 -6 -10 -10 -8 -19
7 -10 19 -6 33 10 33 4 0 9 -6 12 -13z"/>
<path d="M12994 8256 c-8 -22 3 -33 18 -18 9 9 9 15 0 24 -9 9 -13 7 -18 -6z"/>
<path d="M12785 8180 c-16 -18 -16 -18 4 -13 25 6 35 19 22 27 -4 3 -16 -3
-26 -14z"/>
<path d="M12920 8191 c0 -5 7 -14 15 -21 9 -7 13 -15 10 -18 -7 -7 15 -32 29
-32 6 0 16 11 22 24 9 19 8 27 -5 37 -18 16 -71 22 -71 10z"/>
<path d="M12775 8130 c-7 -11 14 -39 69 -95 15 -15 18 -16 13 -3 -7 19 17 43
33 33 15 -9 12 7 -5 32 -8 11 -27 24 -42 27 -16 4 -35 9 -45 12 -9 3 -19 0
-23 -6z"/>
<path d="M7831 12209 c4 -35 -2 -59 -16 -59 -14 0 -14 -3 0 -24 16 -24 37 -34
84 -41 24 -4 60 28 53 48 -1 4 3 7 9 7 8 0 8 5 -1 15 -7 8 -10 26 -8 40 4 19
2 23 -7 15 -13 -11 -85 -8 -104 5 -8 4 -12 2 -10 -6z"/>
<path d="M8625 12161 c-6 -5 -19 -11 -30 -13 -18 -3 -17 -5 8 -22 18 -12 31
-16 38 -9 13 13 -3 57 -16 44z"/>
<path d="M8335 11910 c3 -5 8 -10 11 -10 2 0 4 5 4 10 0 6 -5 10 -11 10 -5 0
-7 -4 -4 -10z"/>
<path d="M6623 11716 c-25 -12 -29 -21 -12 -32 6 -3 20 3 31 14 23 23 13 33
-19 18z"/>
<path d="M6565 11710 c-3 -5 -1 -10 4 -10 6 0 11 5 11 10 0 6 -2 10 -4 10 -3
0 -8 -4 -11 -10z"/>
<path d="M6520 11645 c-7 -9 -5 -19 9 -36 17 -21 20 -22 26 -7 4 9 13 14 21
11 27 -10 14 16 -16 30 -23 12 -31 13 -40 2z"/>
<path d="M6837 11609 c7 -7 15 -10 18 -7 3 3 -2 9 -12 12 -14 6 -15 5 -6 -5z"/>
<path d="M11231 11523 c-1 -6 -4 -20 -7 -30 -5 -17 -5 -17 6 0 6 10 9 23 6 30
-3 9 -5 9 -5 0z"/>
<path d="M11070 11389 c0 -5 5 -7 10 -4 6 3 10 8 10 11 0 2 -4 4 -10 4 -5 0
-10 -5 -10 -11z"/>
<path d="M10360 11240 c0 -5 5 -10 10 -10 6 0 10 5 10 10 0 6 -4 10 -10 10 -5
0 -10 -4 -10 -10z"/>
<path d="M12905 11090 c4 -6 11 -8 16 -5 14 9 11 15 -7 15 -8 0 -12 -5 -9 -10z"/>
<path d="M13100 10691 c0 -11 50 -24 58 -16 8 8 -19 25 -40 25 -10 0 -18 -4
-18 -9z"/>
<path d="M13225 10689 c4 -6 13 -8 20 -5 7 2 18 -1 24 -7 9 -9 11 -8 6 6 -4
10 -18 17 -32 17 -15 0 -22 -4 -18 -11z"/>
<path d="M13005 10680 c3 -5 11 -10 16 -10 6 0 7 5 4 10 -3 6 -11 10 -16 10
-6 0 -7 -4 -4 -10z"/>
<path d="M13335 10640 c-5 -9 29 -47 45 -50 32 -7 40 -6 40 5 0 7 -13 18 -30
24 -16 5 -30 15 -30 20 0 14 -17 14 -25 1z"/>
<path d="M5172 9487 c-14 -17 -4 -57 14 -57 8 0 14 -7 14 -17 0 -29 7 -9 14
40 7 42 5 47 -12 47 -11 0 -24 -6 -30 -13z"/>
<path d="M5359 9397 c-35 -31 -41 -57 -13 -57 8 0 14 -5 14 -12 0 -9 3 -9 12
0 7 7 20 12 30 12 10 0 18 5 18 10 0 6 7 10 15 10 8 0 15 2 15 5 0 9 -43 65
-49 65 -3 -1 -22 -15 -42 -33z"/>
<path d="M5255 9392 c-4 -4 -14 -7 -23 -7 -12 0 -18 -10 -20 -32 -2 -18 -7
-33 -13 -33 -5 0 -9 -6 -9 -14 0 -8 -9 -18 -21 -21 l-21 -7 22 -15 c25 -17 20
-42 -16 -78 -13 -13 -24 -31 -24 -39 0 -21 -43 -48 -65 -40 -16 6 -34 -9 -35
-28 0 -13 58 -9 62 4 3 7 24 17 49 23 35 9 45 16 47 35 2 13 15 32 29 43 13
11 38 40 53 66 23 36 26 48 17 60 -10 12 -9 13 2 6 11 -7 13 -1 8 29 -4 27 -3
35 6 30 9 -5 8 -3 0 6 -14 16 -38 21 -48 12z"/>
<path d="M4960 9110 c0 -5 5 -10 11 -10 5 0 7 5 4 10 -3 6 -8 10 -11 10 -2 0
-4 -4 -4 -10z"/>
<path d="M8007 8656 c-11 -8 -14 -17 -8 -20 6 -4 8 -28 5 -58 -4 -42 -2 -49
10 -45 10 4 22 -6 35 -29 27 -46 53 -47 40 -2 -13 48 -11 84 6 98 19 16 20 60
1 60 -7 0 -26 2 -42 5 -17 3 -36 -1 -47 -9z"/>
<path d="M14290 8431 c0 -5 5 -13 10 -16 6 -3 10 -2 10 4 0 5 -4 13 -10 16 -5
3 -10 2 -10 -4z"/>
<path d="M8110 8384 c12 -29 1 -49 -31 -59 -10 -4 -19 -11 -19 -16 0 -5 -8
-17 -19 -28 -15 -15 -17 -26 -11 -60 4 -23 3 -44 -1 -47 -16 -9 2 -25 21 -19
10 3 21 1 25 -5 4 -7 13 -6 28 2 12 7 31 11 43 10 28 -4 51 25 59 75 6 39 5
43 -19 49 -14 3 -23 11 -20 18 3 7 -2 19 -11 26 -8 7 -15 28 -15 46 0 27 -4
34 -20 34 -17 0 -18 -3 -10 -26z"/>
<path d="M14244 8375 c-4 -8 -12 -15 -20 -15 -29 0 -9 -36 21 -37 11 -1 33 -5
49 -9 26 -6 29 -5 23 15 -3 12 0 21 5 21 6 0 3 9 -7 20 -21 24 -63 26 -71 5z"/>
<path d="M9790 7631 c0 -10 30 -24 37 -17 3 3 2 9 -2 15 -8 13 -35 15 -35 2z"/>
<path d="M13911 6511 c12 -34 29 -33 29 1 0 12 -3 18 -7 15 -3 -4 -12 -2 -19
4 -11 9 -12 6 -3 -20z"/>
</g>
</svg>
