<svg version="1" xmlns="http://www.w3.org/2000/svg" width="1135.978" height="537.91" viewBox="0 0 851.983 403.433"><g fill="#222"><path d="M835.336 2.957c.6 2.7-.8 4.5-1.7 2-.5-1.4-4.8 0-4.8 1.6 0 .8.5 1.4 1 1.4.6 0 1 .4 1 1 0 .5-.3.9-.7.8-1.7-.6-5.1 2.9-5.7 6-.6 2.6-.5 3.2.9 3.2 1.1 0 1.5.5 1.2 1.4-.3.8.1 2 .9 2.7 1.9 1.5 1.4 4-1.1 6.1-1.4 1.1-2.4 1.3-3.2.6-.9-.7-1.4-.6-1.9.5-.3.8-2.2 1.8-4.2 2.2-4 .7-5.2 1.9-5.2 5.1 0 1.2-.7 2.7-1.5 3.4-.8.7-1.5 2.3-1.5 3.6 0 1.6-.6 2.4-1.7 2.4-1.7.1-1.7.1 0 1.4 1 .8 1.7 2.6 1.7 4.5 0 3.5.1 3.5-3.7 2-4.1-1.7-7.3-1.9-7.3-.6 0 .7-.7 2.3-1.7 3.6-1.9 2.8-2.4 7.4-1.1 11.7.9 3.4-1.1 9.7-3.6 11.1-1.4.8-7.6 8.8-7.6 9.8 0 .2 1.1 0 2.5-.5 1.6-.6 3.4-.6 5 0 1.9.7 2.5.6 2.5-.4 0-1.7 6-3 7.4-1.6.5.5 2.9 1 5.2 1 2.4 0 4.5.4 4.9.9.3.5 2.1.7 4 .4 4-.6 4-.7 2.1 3.7-1.1 2.7-1.1 3.7 0 6 1.7 3.3 7.7 5.5 9.5 3.4.6-.8 2.8-1.4 4.8-1.4 2.4 0 3.2-.3 2.2-.9-1.5-1-.7-3.1 1.3-3.1.7 0 2.1-1.5 3.1-3.4 1.6-2.9 1.7-3.7.6-5-1.2-1.4-1-1.6 1.3-1.6 2.2 0 2.6-.4 2.6-3 0-1.7-.4-3-.9-3-1.6 0-1.9-3.8-.4-4.4 2.2-.9-.1-3.4-3.5-3.8-1.5-.2-3.1-1.2-3.7-2.3-2.2-4.5-5.3-7.5-7.8-7.5-1.8 0-2.7-.7-3.1-2.5-.4-1.4-2-3.1-3.9-4-1.9-.9-4.4-2.9-5.6-4.5-2.1-2.9-2.1-3-.2-3 1.1 0 3.5 1.3 5.3 2.8 2.5 2.2 4.2 2.8 7.1 2.7 2.1-.1 4 .2 4.3.7.9 1.3 2.4.9 2.4-.7 0-1.9 2.9-2 3.6-.1.3.8 1.4 1.1 2.8.9 2.6-.5 3.9-4.3 3-8.1-.4-1.4 0-2.2 1.6-2.7 1.2-.4 2.6-1.8 3.2-3.1.6-1.3 1.5-2.4 2-2.4s.6-1.1.2-2.5c-1-3.9.5-11.5 2.2-11.5 2.7 0-5.5-7.6-9.5-8.9-4.2-1.2-6.2-4.8-3.7-6.6.8-.6 1-1.7.5-3-1.1-2.9-1.1-4.7.1-4 1.5.9 1.2-.2-.6-1.9-2.5-2.5-3.6-1.9-2.9 1.4zm5.5 79.8c0 .4-.9 1.3-2 2s-2 1-2 .8c0-.2-.3-1.1-.6-2-.5-1.2 0-1.6 2-1.6 1.4 0 2.6.3 2.6.8zM799.836 29.357c0 .2.7.7 1.6 1 .8.3 1.2.2.9-.4-.6-1-2.5-1.4-2.5-.6z"/><path d="M805.836 33.357c0 .8.9 1.8 2.1 2.1 2.9 1 3.1.3.3-1.8-2-1.5-2.4-1.5-2.4-.3zM276.036 59.757c-1.4 2.6-.4 4 2.3 3.4 1.8-.3 2.5 0 2.5 1.2 0 .9.5 1.6 1.1 1.6.6 0 .8-.8.4-1.9-.3-1 .1-2.4 1-3.1 1.9-1.6 1.9-3 0-3-.8 0-1.5.4-1.5 1s-.9.6-2.5 0c-1.9-.7-2.6-.6-3.3.8zM270.636 71.157c-.2 2.5-.8 3.4-2.5 3.6-3.2.5-2.8 2.3 1 4.8 2.7 1.8 3.6 1.9 5 .9.9-.7 1.8-2.3 1.9-3.6.2-3-2.3-8.9-3.9-8.9-.6 0-1.3 1.5-1.5 3.2zM273.436 84.757c.3 1.3 0 2.9-.6 3.7-.8 1-.8 2.4-.1 5.2 1.4 5 1.4 5.3-.6 4.6-.9-.4-1.4-.2-1.1.3.8 1.2-1.2 3.8-3.7 4.8-1.9.7-1.8.9 1 3.1 1.6 1.3 2.6 2.7 2.2 3.1-.4.4-.7.3-.7-.1 0-.5-.6 0-1.4 1-1.2 1.7-1.2 2.4.5 5.7 1.2 2.3 1.5 3.9.9 4.3-.6.3-.7 1.7-.4 3 .7 2.8-1.1 6.5-3.2 6.5-1.3 0-1.5.6-.8 2.7.4 1.6.7 4 .6 5.5-.1 1.5.9 3.7 2.3 5.2 1.2 1.4 2.6 4.3 3 6.6.4 2.4 1.4 4.4 2.6 5.1 1.4.7 1.7 1.4 1 2.7-.6 1.1-.6 2.4 0 3.5.6 1 .7 2.7.3 4-.4 1.2-.8 3.1-1 4.2-.1 1.1-.4 3.5-.7 5.4-.3 1.8-.1 4.1.6 5.1.9 1.5.6 2.9-1.2 6.9-2.3 4.7-2.6 5-5.5 4.4-1.7-.3-3.8-1.2-4.7-1.9-2.1-1.9-2.9-1.7-2.9.5 0 1.7-.6 2-4.6 1.7-5-.3-6.3-1.5-5.7-5 .7-3.6-2.1-3.9-4.6-.5-2.3 3.1-4.1 3.8-4.1 1.5 0-1.2-.6-1.2-3.7 0-5 1.7-11.7 1.7-15.2 0l-2.8-1.5.5 5.4.4 5.4-5.3.3c-3 .2-5.2.6-4.9.9.3.4-.3 1.6-1.4 2.8-1 1.1-1.6 2.7-1.2 3.6.7 2-3.3 5.8-9 8.6-2.3 1.1-5.1 3.1-6.3 4.3-1.4 1.5-3 2.2-4.2 1.9-1.4-.4-1.9 0-1.9 1.6 0 2.1-1.3 2.6-5.7 2.2-1.4-.1-2.3.4-2.3 1.2 0 .8-1.5 1.8-3.2 2.2-2.3.5-2.7.9-1.5 1.2 2.1.5 2.2 1.9.2 3-1 .6-1.7 3.1-2.1 6.8-.8 7.7-1.9 10.4-4.1 10.4-4.1-.1-11 .9-13.3 1.9-1.4.5-4.4 2.9-6.7 5.3-6 6.3-8.1 7.9-10.1 7.9-1.1 0-2.7.9-3.7 2-2.1 2.3-3.6 2.5-5.3.8-.7-.7-3-1.3-5.2-1.3-3.6-.1-4.1.2-4.7 2.4-.3 1.5-1.4 3.5-2.4 4.6-1 1.1-2.2 3.2-2.8 4.7-1.3 3.5-3.4 3.6-4.9.3-1.3-2.7-3.3-3.2-5.4-1.2-1.6 1.6-5.7-.1-5-2.1.2-.6-.4-1.5-1.3-1.8-1.3-.5-1.6-1.8-1.4-5.5.2-3.5-.2-5.4-1.5-6.8-2.6-2.8-.2-3.7 3.3-1.2 1.6 1.2 3.6 1.8 4.5 1.5 1.9-.7 1.9-.6.4-3.9-.8-1.8-1.9-2.5-3.9-2.5-1.5 0-3 .4-3.4 1-.9 1.4-3.6 0-3.3-1.9.2-1.1-.5-1.7-2.2-1.8-1.5-.1-1.8 0-.7.3 1.2.4 1.6 1.2 1.2 2.5-.4 1.2-.1 2.1.9 2.5 1.3.5 1.3 1.1-.2 4.9-.9 2.4-2 4.2-2.4 3.9-.4-.3-1.1.3-1.5 1.3-1 2.6-6.6 7.8-8 7.5-.7-.2-1.3.1-1.3.6 0 .6-1.1 1.3-2.5 1.6-1.7.4-2.5 1.3-2.5 2.7 0 1.8-.4 2.1-2.8 1.6-2.1-.4-3.1-.1-4 1.4-1.3 2-4.1 2.5-5.7 1-.6-.5-1.9-1.2-3-1.5-1.9-.5-2.1-.2-1.7 2.9.2 1.9-.1 4.2-.8 5-.6.8-.9 1.8-.7 2.3 1 1.6 1.6 12.2.6 11.6-1.2-.7-3.4 1.6-4.3 4.4-.4 1.2-1.2 2-1.7 1.6-.6-.3-2 .1-3.2.9-1.2.8-4.6 1.8-7.5 2.2-4.3.6-5.6 1.2-6.4 3.1-.6 1.3-1.7 2.4-2.5 2.4-.7 0-1.3.5-1.3 1.1 0 .6-.7.8-1.6.5-1-.4-1.8 0-2.1 1.2-.2 1-1.8 2.3-3.6 3-2.4.9-2.8 1.5-2 2.3.9.9.9 1.8.2 3.1-.5 1-.7 2.2-.4 2.7.3.5 0 1.1-.7 1.3-.8.3-1.2 3.1-1.2 8.2-.1 7.3-.3 7.9-2.9 10-1.8 1.5-2.4 2.5-1.7 3.2 1.3 1.3-4.5 5.8-6.1 4.8-.6-.3-.3.9.7 2.7 2.7 5.1 2.7 6.7.2 7.1-1.6.2-2.4 1.2-2.9 3.5-.7 3.8 1.5 4.8 2.6 1.2.5-1.6 1-1.8 2.1-.8 1.1.9 1.4.9 1.4 0 0-.8.5-.9 1.7-.2 1 .5 2.6.5 4 0 1.9-.7 2.7-.3 4.9 2.6 2.9 3.9 5.9 5.2 7.9 3.5.7-.6 1.5-.7 1.7-.2.4 1.2 4.8 2.6 4.8 1.5.1-1.9 1.8-3.3 3.3-2.7.9.3 1.4 1 1.1 1.5-.3.5.7.9 2.1.9 1.5 0 4.2.7 6.1 1.6 3.4 1.6 3.6 1.6 5.9-.6 1.3-1.2 2.6-3.3 3-4.7.8-3.4 2.6-2.5 4.9 2.4 1.4 3.1 2.8 4.5 5.8 5.6 3.5 1.4 3.8 1.8 3.3 4.4-.6 2.5-.5 2.6.8 1 1.7-2.1 3.1-2.2 2.3-.2-.3.8-.1 1.5.4 1.5.6 0 1-.5 1-1.1 0-.7 1.1-.8 3-.4 2.9.6 11.7-2.4 13.1-4.6.3-.6.1-2.8-.5-4.9-1.2-4.6-.5-5.3 7.6-9.2 3.6-1.7 5-3.1 5.6-5.3.6-2.2 1.6-3.1 3.8-3.6 4.9-1 9.9-4.6 10.4-7.6.4-2.2 1.2-2.9 4-3.5 8-1.6 9-2 9-3.9s1.8-2.4 8.3-1.9c1.7.1 2.9-.4 3.2-1.4.3-.9.7-2.3 1-3.1.3-1.2 1-1.3 3.1-.5s3.1.7 4.4-.5c.9-.9 2.5-1.3 3.4-.9 1.2.5 1.5.2 1-1.1-.5-1.2-.3-1.6.6-1.3 1.7.5 6-3.4 6-5.5 0-1 .6-1.3 1.9-1 1.3.3 2.3-.2 3-1.5.6-1.1 2.6-2.3 4.6-2.6 2-.4 3.5-1.3 3.5-2.1s.9-1.9 2-2.5c1.1-.6 2.3-2.2 2.6-3.5.6-2.4 1.9-3 5.8-2.6 1 0 2.4-.5 3-1.3.9-1.2 4.4-2.4 8.2-2.8.6-.1 1.1-.8 1-1.7-.1-1.2.7-1.5 2.8-1.3 1.6.2 3.2-.2 3.6-.7.4-.8 2.2-.8 5.6-.2 4.1.8 5.2.7 6.8-.7 1-.9 2.6-1.7 3.5-1.8.9-.1 2.6-.2 3.9-.3 1.2 0 2.2-.8 2.2-1.6s.5-1.5 1.1-1.5c1.9 0 8.8-6.7 7.9-7.7-.5-.4-1-2.2-1.2-3.8-.3-2.7 0-3 3-3.3 2.4-.2 3.2-.7 2.8-1.8-.3-.8-.1-1.4.5-1.4.5 0 1.2.7 1.5 1.5.4.8 1.4 1.5 2.3 1.5.9 0 2.6.7 3.8 1.5 1.9 1.3 2.2 1.3 2.7-.1.4-1.2 1-1.3 2.6-.4s2 .8 2-.5c0-.8.6-1.5 1.3-1.5 1.9 0 4.6-5.4 3.6-7.2-1.1-2 1.9-4.8 5.5-5.2 1.4-.1 2.9-.6 3.2-.9.4-.3 2.1-.1 3.8.6 3.2 1.3 8.5 1.5 10.3.4 1.6-1 2.9 1.3 3.7 6 .6 4.3.6 4.3-2.5 4.3s-3.2 0-1.4 2c1 1.1 2.6 2.2 3.6 2.5 1 .3 2.1 1.6 2.5 2.8.4 1.2 1.4 2.7 2.2 3.3.8.6 1.8 3.5 2.2 6.5l.7 5.3-4.9 4.7c-5.4 5.2-9.2 6.1-10.3 2.5-.4-1.1-.7-2.4-.6-2.9.2-1.1-1.4-.8-2.7.5-.7.7-1.2.8-1.2.4s-1.4.4-3.2 1.9c-2.3 1.9-3.8 2.5-5.6 2-4-1-8.2 4.3-8.6 10.9-.1 1.4-2.3 1.9-3 .7-.4-.6-1.2-.8-1.9-.5-1.5.5-4.7-4.6-4.7-7.5 0-3-1.3-2.6-4.4 1.1-1.6 2-2.5 4-2.1 5 .3 1 .8 2.6 1.1 3.6.4 1.2-.3 2.2-2 3.2-1.4.7-2.6 2-2.6 2.7 0 .8-.5 1.1-1.1.7-.7-.4-1-.2-.7.6.5 1.5 7 2.2 7.9.9.3-.5 1.3-.7 2.2-.3.9.3 1.5 1 1.2 1.4-.3.5.4 1.1 1.5 1.5 1.1.3 3.4 1.8 5.1 3.2l3 2.6-3.6 2.4c-1.9 1.3-3.5 3-3.5 3.8 0 2.6 1.2 4.4 2.6 3.8.9-.3 1.4 0 1.2.8-.4 1.6 6.3 4.1 7.6 2.9.5-.5 1.7-.5 2.7 0 1.2.7 1.9.6 2.2-.4.4-.9 1.4-1.2 2.6-.9 1.2.3 2.1.1 2.1-.6 0-.6.7-1.1 1.5-1.1s1.5-.7 1.5-1.5.9-1.5 2-1.5 2.3-.7 2.6-1.5c.3-.8 1.4-1.7 2.5-2 1.4-.5 1.8-1.2 1.3-3.1-.4-1.5 0-3.4 1-4.9.9-1.4 1.6-4.5 1.6-7.5 0-3.7.5-5.4 1.9-6.7 1.1-.9 1.8-2 1.5-2.5-.3-.4 0-.8.5-.8.6 0 1.1-.8 1.1-1.8 0-1.4.9-1.7 5.5-1.6 5.4.1 8.9-1.6 6.5-3.1-1.6-1-1.2-2.5.8-2.5 1.4 0 1.3-.4-.7-1.9-1.6-1.2-2-2-1.2-2.5.7-.4.9-1.6.6-2.7-.4-1.2-.2-1.9.7-1.9.8 0 2.2-.9 3.2-2.1 1.7-2 1.7-2.4.1-7.2-1.4-4.2-1.4-5.2-.3-5.8 1.7-1 1.5-6.3-.4-8.6-.7-.9-1.3-3.5-1.3-5.7 0-3.7-.3-4.1-2.5-4.2-1.4 0-4.3-.8-6.5-1.8-3.4-1.6-3.7-1.9-2.1-2.8 1.3-.7 2.2-.5 3.7.8 1 .9 1.9 1.3 1.9.9 0-.5.5-.4 1.2.3 1.8 1.8 2.7 1.4 2.2-1.1l-.5-2.2 1 2.2c.6 1.3 1.7 2.3 2.5 2.3 2 0 3.1 2.1 1.6 3-.9.5-.9.9-.1 1.4.6.4 1.1 1.8 1.1 3.1 0 3.4 1 5.5 2.6 5.5.8 0 1.4.4 1.4 1 0 .5-.5 1-1.1 1-.5 0-.7.5-.3 1.1.3.6.1 1.5-.6 1.9-2 1.3-1.5 7.1 1.2 12.7.9 1.9 2.3 3 4.3 3.3 2.8.5 3 .8 3 5.3.1 2.6-.4 4.7-1 4.7-1.1 0-4 6-5 10.3-.4 2.3.1 3.6 2.5 6.3 1.6 1.9 3 3.9 3 4.3 0 .5.9 1.1 2 1.4 1.5.4 2 0 2-1.6 0-1.8.8-1.3 5 2.8 2.8 2.7 5 5.5 5 6.2 0 .7.5 1.2 1.1 1.1 1.4-.4 6.8 8.2 6.2 9.8-.2.7.6 2 1.9 3 1.3 1.1 2.9 3.1 3.5 4.7.7 1.5 2.4 3.2 3.7 3.7 2.6.9 5 4.3 3.9 5.4-.3.3-.1.6.5.6.7 0 1.2.7 1.2 1.6 0 1.4.8 1.6 4.6 1 2.6-.3 5.3-.6 6-.6.8 0 1.4-.7 1.4-1.5s.5-1.5 1-1.5c.6 0 1 .6 1 1.4 0 2.5 2.6 3.6 9.6 3.9 6.9.3 11.4-.8 11.4-2.9 0-.7.8-2.2 1.8-3.4l1.9-2.3 2.9 2.2c2.6 1.9 3.6 2.1 7.2 1.3 3.1-.8 4.6-.6 6.2.5 1.4 1 2.5 1.1 3.3.5 3.8-2.9 10.7-1.4 10.7 2.4 0 1.2-.7 2.5-1.6 2.8-1.3.5-1.4.9-.4 2.1.7.8.9 1.5.4 1.5s-.3.4.4.8c2.8 1.8 3.4 11.2.7 11.2-2.6 0-1.6 2.1 1.6 3.2 2.5.8 2.9 1.5 2.5 3.3-.5 1.9-.1 2.2 2.7 2.4 1.7.2 4.5.3 6 .2 1.5 0 3 .6 3.3 1.3.6 1.6 4.6 1.4 5.2-.3.2-.7 1.5-1.6 2.8-2.1 1.3-.5 2.4-1.6 2.4-2.5 0-.8.9-1.5 1.9-1.5 1.1 0 2.1-.6 2.4-1.3.3-.9.8-.8 1.8.4.8.9 2.9 2.1 4.7 2.7 2.9 1 3.2.9 3.2-.9 0-1 .5-1.9 1.1-1.9.6 0 .9-.6.6-1.3-2.1-5-2.1-5.1-.4-4.4.9.3 1.7.3 1.7-.2s1-1.1 2.3-1.5c1.3-.3 2.9-1.7 3.5-3.1 1-2.1 1.8-2.5 5.7-2.5 2.6 0 4.4-.3 4.1-.8-.2-.4-.1-2.6.3-4.8.7-3.4.5-4.3-1.1-5.3-1-.6-1.8-1.7-1.8-2.5 0-.7-1-1.6-2.1-1.9-1.4-.4-2-1.1-1.6-2 .3-.8 0-2-.6-2.7-.9-.9-.6-1.1 1.3-.8 2.2.3 2.5 0 2.2-2.2-.2-1.4-1.5-3.7-3-5.3-1.6-1.7-2.1-2.7-1.2-2.7.9 0 .5-.9-1-2.5-2-2.1-2.2-2.9-1.2-4.9.8-1.9.7-2.7-.6-4.1-1.3-1.4-1.4-1.8-.4-2.2 2.2-.8 3.4-5.1 2.1-7.5-.6-1.2-1.2-4.7-1.4-7.9-.1-4.9.1-6 1.7-6.5 1.4-.4 1.8-1.6 1.8-5.9 0-3.7.4-5.5 1.5-5.9 1.2-.4 1.2-1.2-.6-5.3-3.4-7.9-4-9.5-3-8.9.5.3 1.1-1.3 1.4-3.7.3-2.3.9-5.7 1.2-7.5.6-2.4.4-3.2-.7-3.2s-3.8-3.8-3.8-5.3c0-.2 2.9-.6 8-1 1.7-.1 3-.8 3-1.4 0-1.4 3.1-2.2 7.5-2 2.3.2 3.3-.5 5-3.2 1.1-1.9 3.8-5.2 5.9-7.4 4-4.2 4.7-6.8 3.1-11.6-.7-2.2-.6-2.3 1.8-1.7 2.6.6 2.7.5 2.7-3.4 0-2.2.4-4 .9-4 1.7 0 2-4.2.4-5.8-1-1.1-1.2-1.7-.4-2 .8-.3.8-.9 0-2.4-.9-1.7-.9-2 .4-1.5 1.9.7 3-.3 1.7-1.8-.6-.8-.3-1.1 1.3-1.1 1.2.1 2.4-.4 2.5-.9.7-2 2.4-3.5 3.4-2.9.5.3.7 1.2.4 2-.3.8-.2 1.3.2 1.3 1.8-.3 3.3.2 2.8.9-.9 1.4 1.3 3.7 3.6 3.8 1.3.1 3 .4 3.9.8 1 .4 2.5-.3 4.3-2.1 2.5-2.4 2.6-2.8 1.1-3.2-3.4-.6.7-1.9 4.3-1.4 2.5.5 3.3.3 2.8-.5s.1-1.2 1.6-1.2c2.2 0 9.2-5.3 8.2-6.2-.2-.3.3-2.6 1.2-5.2 1.4-3.9 2-4.7 3.9-4.4 1.2.1 3-.4 4-1.2 1-.8 3.6-2.2 5.9-3.1 3.6-1.5 4.3-1.5 6.3-.2 2 1.4 2.3 1.3 2.9-.1.3-.8 2.1-1.8 4-2.2 2.2-.4 4.2-1.7 5.5-3.5 1.2-1.8 2.9-2.9 4.4-2.9 1.5 0 2.5-.7 2.8-2.2.9-3.3-1.3-4-5.2-1.7-2.4 1.4-4.2 1.8-6 1.3-1.4-.4-3.2-.6-3.8-.5-.7.1-1.3-.7-1.3-1.7s-.8-2.6-1.9-3.6c-1.7-1.6-1.9-1.5-3.1 1.4-.7 1.6-1.6 2.7-2.1 2.4-.5-.3-.9.2-.9 1.1 0 3-3.1 6.3-6.6 6.9-3 .6-3.3.9-2.4 2.7 1 1.7.6 2.2-2.6 3.5-2 .8-4.3 1.3-5 1-1-.4-1.4.2-1.4 1.8 0 1.7-.9 2.7-3.2 3.7-1.8.7-4.8 2.5-6.6 4.1-3.4 2.9-6.1 3.4-12.4 1.9-3.5-.8-3.6-.8-4.3 2.5-.5 3.2-2.1 5.2-3.1 4.1-.3-.2-.7-2.4-1-4.8-.3-2.3-.7-4.7-1-5.1-.3-.4.6-.8 1.9-.8 1.3 0 3.2-.9 4.2-2s1.3-2 .7-2c-1.7 0-5.2-3.7-5.2-5.5 0-.8.9-1.5 1.9-1.5 1 0 2.2-.7 2.5-1.6.9-2.3.8-2.6-.6-2.1-.7.2-2.2-.1-3.3-.6-2.4-1.3-8.7-1.6-9.6-.4-.3.4-1.8-.2-3.3-1.4-1.9-1.5-2.5-2.7-2.1-4 .4-1 .3-2-.2-2-.4-.1-1.7-.3-2.9-.4-1.2-.1-3-1.1-4.1-2.2-1.1-1.1-2.6-2.2-3.4-2.5-.8-.3-1.3-1.9-1.2-4.1.1-2-.3-4-.8-4.3-.5-.3-.9 0-.9.7s-1.2.2-2.7-1.2c-1.6-1.4-3.6-3.1-4.5-3.8-1.7-1.3-10.2-2.3-18.1-2.1-2 0-4.6-.4-5.6-1-1.7-.8-2-.6-2.6 2.1-.4 1.7-1.4 3.3-2.3 3.7-1 .3-2.2 1.2-2.8 2-.5.7-1.7 1.3-2.5 1.2-.7-.1-1.9-.2-2.5-.1-1.4.1-1.4 6.1.1 6.1.7 0 .9 1.3.7 3.6-.3 2.8 0 3.9 1.7 5 2.6 1.9 2.6 2.6 0 4.2-1.8 1.1-2.4 1.1-4.2-.5-1.9-1.7-2-1.7-1.4-.1.4 1 .2 1.8-.3 1.8-.6 0-1 .9-1 2 0 1.3-1.2 2.8-3 3.8-1.6.9-3 2.2-3 2.8 0 1.8-4.8 5.7-6.4 5.1-.8-.3-1.7-.1-2 .6-.2.7-.5.2-.5-1-.1-1.2-.6-2.5-1.1-2.8-.6-.4-.9-1.4-.8-2.3.2-1.3-.9-1.8-5.2-2.4-3-.5-5.7-1.2-6-1.6-1.1-1.5-2.8-1.1-2.3.7.2 1-.3 2.5-1.1 3.4-.9.8-1.6 2-1.6 2.6 0 1.7-7.4 7.1-9.7 7.1-2.4 0-3.1 1.4-1.3 2.5 1.4.8 1.3 5.2-.1 6.1-.7.4-1.6-.1-2.1-1-1.3-2.3-2.7-2-3.4.9-.7 2.7-1.2 2.9-3.3 1.6-.9-.6-2.2-.4-3.6.5-3.5 2.3-10.1.8-15.7-3.5-2.6-2-4.7-4-4.8-4.4 0-.5.4-.5 1-.2s.7-.1.4-1c-.4-.8-.1-2.1.5-2.9 1.3-1.5.5-2.6-2-2.6-.9 0-1.9-.7-2.3-1.5-.3-.8-1.4-1.5-2.4-1.5-2.3 0-4.5-2.3-4-4.2.4-1.9-4-7.8-5.9-7.8-1.1 0-1.4-.6-1-2.2.4-1.3-.2-3.5-1.5-5.7-1.2-1.8-2.3-4.8-2.4-6.5-.8-9.1-1.8-14.2-3.1-15.4-.7-.8-1.1-2.2-.8-3.3.8-2.3-1.2-9.6-2.6-10.1-1.1-.4-3.9-7.2-3.9-9.7 0-.8-1.8-3.6-4-6.2-3.8-4.5-5.3-8.9-3-8.9.6 0 1-.7 1-1.6 0-.8-.4-1.3-.9-.9-1.3.7-5.1-4.8-5.1-7.4 0-2.1-1.6-2.9-2.2-1.1-.1.5-2.7 1-5.7 1.1-4.1.2-5.6-.2-6.3-1.4-.5-1-1.9-1.7-3.1-1.7-1.2 0-4.5-1.5-7.2-3.3-3-1.9-6.6-3.4-9-3.5-3-.3-4.9-1.2-7.7-4-2.1-2-3.8-4.4-3.8-5.2-.1-.8-1-3.3-2.1-5.5-1-2.2-1.6-3-1.3-1.7zm179.4 103.6c0 .3-.4.8-1 1.1-.5.3-1 .1-1-.4 0-.6.5-1.1 1-1.1.6 0 1 .2 1 .4zm76 31.4c0 .5-1.1 1.4-2.5 2-2.8 1.3-3.2.9-1.2-1.3 1.3-1.6 3.7-2 3.7-.7zm-203 27.2c0 .5-.4 1-1 1-.5 0-1-.5-1-1 0-.6.5-1 1-1 .6 0 1 .4 1 1zm-29 7c0 .5-.4 1-.9 1-.6 0-1.3-.5-1.6-1-.3-.6.1-1 .9-1 .9 0 1.6.4 1.6 1zm4.5 3.2c-.4-.7 0-1.2.9-1.2 1.9 0 2.2 4 .4 5.9-1.1 1-.8 1.6 1 2.9 2.2 1.7 2.1 3.2-.2 3.2-.6 0-.5-.4.2-.9 1.1-.7 1.1-.9-.2-1.4-.9-.4-1.6-.1-1.6.6-.1 2.2-2.4-2.7-2.6-5.4-.1-1.4-.5-3.6-.9-5l-.8-2.4 2.2 2.5c1.3 1.4 2 1.9 1.6 1.2zm14 3.7c-1 1.6-2.5.3-2.5-2.2 0-2 .1-2 1.6-.5.9.9 1.3 2.1.9 2.7zm-5.2 3.7c-2.2 1.6-3.3 1.8-3.3.4 0-.6.7-1 1.5-1s1.5-.5 1.5-1.1c0-.5.5-.7 1.1-.4.6.5.4 1.2-.8 2.1zm-23.8 1c1.4.6 1.4.8-.1 2.5-2.3 2.6-6 2.5-6.7-.1-.4-1.7-.2-2 1.3-1.5 1 .3 2.1.1 2.5-.5.7-1.2.8-1.2 3-.4zm-171.5 25c0 .3-.7 1.2-1.5 2-1.2 1.3-1.5 1.3-1.5.1 0-.7.3-1.7.7-2 .8-.8 2.3-.9 2.3-.1zM760.836 89.957c0 .5-1.3 1-2.8 1-1.5 0-3.2.4-3.7.9-.6.5-2.7 1.4-4.7 2l-3.7 1.2-.7 8c-.5 5.6-1 7.9-2 7.9-.7 0-1.1.6-.9 1.2.6 1.8-2.6 5.7-5 6-3.4.6-2.8 2.2 1 3.2 3.3.9 3.8.7 5.8-1.7 1.9-2.4 2.8-2.7 7.4-2.5 4.2.2 5.7-.2 7.6-2 1.5-1.4 3.6-2.2 6-2.2 4.2 0 5.1-.9 3.8-4.4-.8-1.9-.7-2.4.3-2 .7.3 2-.1 2.7-.9.8-.8 2.4-1.9 3.5-2.5 1.7-.9 5.2-8.9 4.2-9.7-.2-.1-1.5-.5-3-.9-2.3-.5-2.8-.3-2.8 1.3 0 3.1-1.8 3.4-4.5.7-4.7-4.7-8.5-6.8-8.5-4.6zM674.836 96.957c0 .5.7 1 1.5 1 .9 0 1.2.6.9 1.5-.4 1-1.3 1.3-2.7.9-1.6-.5-1.9-.3-1.3 1.2.9 2.2.9 2.2.7 5.5-.1 1.8-.8 2.8-2.2 3.2-1.2.3-1.9 1.2-1.7 2.2.4 2.1 2.4 1.9 2-.3-.2-1.5-.1-1.5 1.2.1 1 1.4 1.5 1.5 1.9.5.3-.7.6.1.6 1.9.1 1.7.5 3.4.9 3.7 1.2.7 5.2-3.1 5.2-4.9 0-.8.5-1.5 1-1.5.7 0 .7.6.1 1.9-1.4 2.6.5 8.8 2.9 9.6 1.1.4 3.3-.1 5-1.1l3-1.8-2.3-2.4c-1.9-2.1-2-2.5-.7-3.5 2.6-2.1 1.4-6.7-1.7-6.7-.9 0-2.5.8-3.6 1.7-1.9 1.8-1.9 1.7-1.6-3.5.3-3.7.1-5.1-.8-4.8-.6.3-1.9-.4-2.9-1.6-2.5-2.6-5.4-4.2-5.4-2.8zM688.536 104.457c.3.8.9 1.2 1.4.9 1.2-.7 1.1-1.1-.5-1.7-1-.4-1.3-.1-.9.8zM692.836 106.657c0 3 .3 3.3 3.1 3.3 2.6 0 2.9-.3 2-1.4-.9-1.1-.9-1.5.1-2 .7-.3.3-.4-1-.2-1.3.3-2.6-.2-3.2-1.2-.7-1.4-.9-1-1 1.5zM664.536 107.057c.7.7 1.5 1 1.8.7.3-.3-.2-.9-1.2-1.2-1.4-.6-1.5-.5-.6.5zM702.636 106.657c-1 .3-1.8.9-1.8 1.4 0 1.1 4.9 2.4 5.7 1.5 1.1-1.1-2.1-3.3-3.9-2.9zM710.836 108.857c-1.7.5-2.1.9-1.2 1.5.6.4 1.2.4 1.2 0s.8 0 1.9 1c1 .9 2.5 1.4 3.3 1.1 1.1-.5 1.7.2 2 2.4.3 1.7.1 3.1-.3 3.1-.5 0-.6.6-.3 1.4.6 1.6 8.5 2.9 11.1 1.8 1-.4 1.9-1.8 2.1-3 .3-3.3-3.4-6.1-8-6.2-2.7 0-4-.6-4.8-2-1.1-2.1-2.7-2.3-7-1.1zM697.436 120.157c-.9 3.5-.7 4.1 1 3.4.9-.4 2.3-.1 3 .5 2.5 2.1 1.6-1.6-1-4l-2.3-2.2-.7 2.3zM666.436 122.857c-.3.5.1 1.2 1 1.5 1.1.4 1.4 1.3 1 3-.6 2.3-.5 2.4 2.6 1.5 1.7-.5 3.3-.7 3.5-.5.8.8-2.5 2.4-6.1 3-3.4.7-3.8.5-3.2-1 .3-.9.4-2.5.1-3.5-.6-1.7-.7-1.7-2.6.2-1 1-1.9 2.8-1.9 3.9s-.4 2-1 2c-.5 0-1 .7-1 1.5s-.8 1.5-1.7 1.5c-1.5 0-1.6.2-.3 1 .8.5 1.1 1.2.7 1.6-.3.4-1.2.2-1.9-.3-1.9-1.5-5.4-2.2-6.8-1.3-.7.5-2.1.3-3.1-.3-1.3-.8-2.4-.8-4.1.2-2 1-7.3 1.8-15 2.2-.9 0-1.9 1.1-2.2 2.4-.4 1.5-1.1 2.2-2 1.9-1.6-.6-5.2 2.6-3.8 3.5.5.3.9 1.3 1 2.1 0 .8.4 2.5.7 3.7.6 1.8.3 2.3-.9 2.3-1.4 0-1.5.4-.6 2 1.3 2.5.5 4-2.1 4-1 0-1.9.4-1.9.9 0 1-14.3.7-16-.4-.9-.6-.8-1 .4-1.7 1.9-1.1 2.1-3.5.4-4-2.3-.8-5.7.4-5.2 1.7.3.7-.4 2-1.6 2.8-1.6 1.1-2 2-1.3 3.4.5 1 .9 5.7.8 10.5 0 9.7-.3 9.4 7.3 7.8 3-.7 5.7-.7 7.3-.2 1.7.7 3.4.5 5.9-.8 2.1-1 6.2-1.8 10.4-1.9 3.7 0 7.2-.4 7.7-.7.5-.3.9.2.9 1 0 .9.5 1.6 1 1.6.6 0 1-.5 1-1 0-.6 1.2-1 2.6-1 1.6 0 2.3-.4 1.8-1.2-.4-.7-.3-.8.4-.4.9.5.9 1.3.1 2.7-.8 1.6-.7 2.3.7 3.3 1.5 1.2 1.5 1.3 0 1.9-2.6 1-1.8 2.7 1.3 2.7 1.6 0 3.9-1 5.5-2.5 1.4-1.3 3.2-2.2 4-1.9.7.3 1.6-.3 2-1.3 1.1-3 3.4-6.7 5.1-7.9 1.4-1 1.4-1.2 0-1.8-.8-.3-1.8-.5-2.1-.5-.8.1-2.4-2.2-2.4-3.4 0-.5.8-.7 1.8-.5 3 .4 7.8-2.4 9-5.4.5-1.5 1.7-2.8 2.6-2.8.9 0 2.5-.5 3.5-1.2 1.8-1.1 1.8-1.2 0-6.2-1.1-2.8-1.9-5.2-1.9-5.4 0-.2 1.4.7 3.1 1.9 2.1 1.4 4.4 2.2 6.9 2.1 2.7-.1 4.5.5 6.4 2.3 2.7 2.5 3.4 4.5 1.5 4.5-.5 0-.8.4-.4 1 .9 1.5 3.5-.1 3.5-2.2 0-3.3-3.1-8.7-5.3-9.4l-2.2-.7 2.3-.8c2.8-1.1 2.8-1.7-.3-5.3-2.6-3.1-3.1-5.1-1.5-6.1 2-1.2.9-3.3-2-3.9-3.1-.6-4.2-2.6-1.5-2.6s1.7-3.5-1-3.6c-1.4-.1-2.5.3-2.5.9 0 .6-1 .1-2.3-1.1-2.4-2.3-5.2-2.9-6.1-1.3zM82.836 158.657c0 1.2-.3 2.9-.7 3.9-.4 1.1-.3 1.5.5 1 .6-.3 1.3-.2 1.6.3.3.5 1.5.7 2.5.4 2.7-.7 3.6 1.4 1.1 2.7-1.5.8-2 .8-2-.1 0-.7-1.5-.9-4.9-.4-3.1.4-5.1.3-5.6-.4-.3-.6-.1-1.1.5-1.1s.8-.5.5-1c-.4-.6-1-.8-1.5-.5-.5.3-2.6.1-4.8-.3-3.6-.8-3.9-.8-3.5.9.3 1.1 0 1.9-.7 1.9s-1.8.7-2.5 1.6c-.9 1.4-1.6 1.4-3.3.5-1.9-1-2.4-.9-3.4 1.4-.6 1.4-1.9 2.5-3 2.5-1 0-1.8.6-1.8 1.4 0 3.4-6.5 1.5-10.2-3-.9-1.1-3.5-2.6-5.8-3.3-3.6-1.1-4.4-1-6 .4-1 .9-2.3 1.4-2.9 1.1-.6-.4-1.9-.3-2.8.3-1.3.6-2.9.5-5.2-.5-4.4-1.8-4.7-1.8-2.7.5 1.6 1.7 1.5 1.9-1 3.6-1.9 1.2-2.3 2-1.5 2.8.8.8.6 1.6-.6 2.9-1.3 1.5-1.4 2.3-.5 4.3.9 2 .9 2.5-.3 2.5-.8 0-1.2.6-.9 1.4.3.8 1.2 1.2 2 .9 1.6-.6 2 2.2.4 3.2-.6.4-.9 1.9-.8 3.3.3 2.4 0 2.7-2.7 2.6-3.7-.1-5.4 2-5.5 6.6 0 2-.5 4.1-1.1 4.7-.8.8-.8 2.1.1 4.7.8 2.4.8 4.6.1 7-.5 2-.6 3.8-.2 4 .4.3.6 1.9.3 3.6-.2 1.8 0 3 .7 3 .6 0 1.1-.5 1.1-1.1 0-.7 1.1-.9 3-.5 2.1.4 3.2.1 3.6-.8.3-.8 1.3-1.2 2.3-.9 1 .3 3.9-.5 6.4-1.6 2.5-1.2 5.1-2.1 5.6-2.1.6 0 1.1-.5 1.1-1.2 0-.6.3-.8.7-.5.3.4 1.1-.3 1.7-1.6.7-1.3 2.9-2.8 5.4-3.6 2.9-.9 4.2-1.8 3.8-2.7-.8-2.1 4.2-5.4 8.4-5.4 2.6 0 4.2-.7 5.8-2.5 1.2-1.4 2.6-2.5 3.1-2.5s1.7 2.5 2.6 5.5c1.1 3.3 2.3 5.5 3.2 5.5.9 0 1.1.5.7 1.2-.6 1-.4 1 .8 0 .9-.7 3.6-1.4 6-1.5 2.4-.1 4.8-.9 5.5-1.7 1-1.3 1.4-1.2 3.3.6 1.2 1.1 2.1 3.1 2.2 4.5.1 3.1 1.8 7.9 2.9 7.9 1.1 0 3.2 7.8 3.1 11.7-.2 3.9 1.1 4.2 3.3.9 1-1.5 2.9-2.6 5.5-3 3.8-.6 4-.8 4-4 0-1.9.7-4.1 1.5-5 1.4-1.3 1.3-1.6-.5-2.6-1.1-.6-2.4-1.9-3-3-.9-1.7-.7-2.2 1.5-3 1.5-.6 2.5-1.7 2.5-2.9 0-1 .7-2.4 1.5-3.1 1.1-.9 1.2-1.7.5-3s-.7-2.1.1-2.5c.5-.4 1.4-1.7 1.9-2.9.7-1.9 1.4-2.2 4.6-1.8 3.5.4 3.7.3 3-1.9-.4-1.3-.8-3.4-.9-4.7-.1-1.2-.7-2.2-1.4-2.2-1 0-1.2-1.1-.7-4.3.4-2.3 1-4.4 1.4-4.7.4-.3.7-2.5.7-5s.3-5.4.8-6.4c.6-1.3.5-1.7-.2-1.3-.6.4-1.8-.5-2.7-1.8-.9-1.4-2.1-2.3-2.6-2-.4.3-1.7-.6-2.8-2-1.3-1.7-2.2-2.1-2.4-1.3-.4 1.1-1.2 1.1-4 0-1.9-.6-5.4-1.2-7.9-1.2-3.8 0-4.7-.4-6.1-2.8-1.6-2.5-1.7-2.5-1.8-.5zm-24 41.7c0 .3-.4.8-1 1.1-.5.3-1 .1-1-.4 0-.6.5-1.1 1-1.1.6 0 1 .2 1 .4zm26 11.4c0 1.3-1.2 2.2-2.2 1.6-1-.6-.1-2.4 1.3-2.4.5 0 .9.4.9.8zM.036 161.157c.5 1.5 2.8 2.3 2.8 1 0-.5-.7-1.3-1.6-1.6-1-.4-1.4-.1-1.2.6z"/><path d="M438.336 162.157c1.1.6 2.6 1.8 3.3 2.6 1 1.4 1.2 1.2 1.2-1.1 0-2.4-.4-2.7-3.2-2.7-3 .1-3.1.2-1.3 1.2zM5.036 166.157c.3.7 1.3 1.5 2.2 1.6 1.2.3 1.7-.1 1.4-1-.3-.7-1.3-1.5-2.2-1.6-1.2-.3-1.7.1-1.4 1zM376.336 202.457l-4 2.4 3.2.1c1.8 0 3.7.7 4.5 1.7 1.8 2.4 5.5 2.8 5.3.5-.3-2.7-2.7-7.2-3.9-7.2-.6 0-2.9 1.1-5.1 2.5zM368.436 203.557c-.5 1.4-.4 1.5.9.4 1.7-1.4 1.9-2 .6-2-.5 0-1.2.7-1.5 1.6zM528.536 229.557c.6 1.5 2.3 1.9 2.3.5 0-.5-.7-1.1-1.4-1.4-1-.4-1.3-.1-.9.9zM87.536 244.657c-.7 1.1 1 4 1.8 3.1.4-.4.3-1.4-.3-2.4-.5-.9-1.2-1.2-1.5-.7zM236.036 316.857c1.3 2.2 2.8 2.8 2.8 1.1 0-.5-.9-1.4-2-2-1.9-1-2-1-.8.9zM235.436 340.457c-.3.8-.1 1.5.4 1.5.6 0 1-.7 1-1.5s-.2-1.5-.4-1.5-.6.7-1 1.5zM232.236 342.757c-.6.4-1 1.7-.9 3 .1 2.2 2.6 4.3 6.8 5.8 1 .4 2.1 2 2.4 3.6.6 3.2 2.8 4.7 4.5 3 .7-.7.2-1.5-1.6-2.7-2.5-1.6-2.5-1.8-.9-3.1 1.7-1.3 1.7-1.3.1-1.4-1 0-1.8-.7-1.8-1.6 0-.8.5-1.2 1-.9.6.3 1 .1 1-.4 0-.6-.4-1.1-.9-1.1s-1.2-.8-1.5-1.8c-.3-1-1.4-1.8-2.3-1.8-1-.1-2.5-.4-3.3-.7-.8-.4-2-.3-2.6.1z"/><path d="M226.436 353.557c-.4 1-1.2 1.4-2.2 1-2.3-.9-5 2.2-3.7 4.3 1.1 1.8 9.5 4.2 10.3 3 .3-.5 1.9-.7 3.5-.6 2.7.2 3-.1 2.6-2.3-.3-1.4-.5-3.5-.5-4.8-.1-2-.6-2.2-4.7-2.2-3.4 0-4.9.5-5.3 1.6z"/></g></svg>