<svg version="1" xmlns="http://www.w3.org/2000/svg" width="755.891" height="757.568" viewBox="0 0 566.918 568.176"><g fill="#222"><path d="M140.894 1.066c-.3.6-1.7.9-3.1.6-1.6-.3-2.7.1-3 1-.3.8-1.1 1.2-1.8.9-.8-.3-1.8.8-2.5 2.4-.7 1.6-2.1 3.2-3.1 3.5-1.2.4-1.8 1.4-1.7 3.1.1 1.3.5 2.4.8 2.4.9 0 3 6.3 3 8.9 0 1.2-.6 2.4-1.4 2.7-1.9.7-1.4 4.5 1 7.1 4 4.4 4.7 5.5 4.7 7.8 0 1.4.8 3.2 1.8 4.1 1.8 1.6 1.9 1.6 1.9-1.1 0-2.3.3-2.6 2.1-2.2 1.7.5 2 .2 1.6-1.5-.5-1.7-.2-1.9 2.1-1.3 2.8.7 4.2 2.1 4.2 4.4 0 .9-.7 1.1-2 .8-1.7-.4-2-.2-1.5 1.4.5 1.4 0 2.1-1.6 2.7-2.1.8-2.1.9 1.4 3 1.9 1.3 3.8 2.9 4.1 3.7.3.8 1.5 1.5 2.7 1.5 1.1 0 3.2.9 4.6 2 2.6 2 5.4 2.6 6.6 1.4.9-1-1.1-4.4-5.2-8.8-2.2-2.3-3.1-4-2.4-4.3 1.7-.6.4-3.3-1.6-3.3-1.6-.1-5.1-2.3-5.1-3.3 0-.3 1.8-.8 4-1.2 3.6-.6 3.9-.9 2.9-2.7-.8-1.5-1.7-1.9-3.9-1.5-2 .4-3.3.1-4.5-1.3-1.7-1.9-1.7-2.1-.2-3.8 2.2-2.4 2.1-3.4-.3-8.2-1.8-3.6-1.9-4-.4-4 1.3 0 1.4-.3.5-1.4-.9-1.1-.6-2 1.4-4.2 2.2-2.4 2.4-2.9 1-3.7-1.3-.7-1.4-1.2-.4-2.3.9-1.1.7-1.6-1.2-2.3-1.9-.8-2-1-.6-1 1-.1 1.6-.5 1.2-1.1-.3-.5-1.2-.7-2-.3-.8.3-1.5 0-1.5-.6 0-1.4-1.7-1.4-2.6 0z"/><path d="M152.494 8.466c.8.9.8 1.5.2 1.5-1.1 0-.4 4 .7 4 2.3.1 3.1 1.8 2 4.3-.9 1.9-.9 3.3 0 5.8.7 2 .8 3.5.2 3.9-.6.3-.3 1.9.6 3.9 1.3 2.6 1.4 3.9.6 6.1-.9 2.5-.8 2.9 1.3 4 2.7 1.5 4 6 2.5 8.8-.8 1.6-.7 2.1.6 2.6.9.4 2 .1 2.4-.6.6-.9 1.1-.9 2.3.1 1.3 1.1 1.3 1.6-.5 4.4-2 3.4-2.6 9.2-.9 10.2.5.3 1.2-.7 1.6-2.2.8-3.5 3.4-6.5 5-5.9 2.2.8 7.1-2.3 8.3-5.2 1.3-3.3.7-15.2-1-18.3-.9-1.8-.9-2.4 0-2.7.7-.2 1.7-1.4 2.2-2.6.5-1.1 1.8-3.5 2.8-5.1 1.1-1.7 2-4.5 2-6.4.1-1.9.8-4.3 1.8-5.3 1.4-1.6 1.4-1.8 0-1.8-.8 0-1.7.5-1.9 1-.2.6-1.2.3-2.4-.8-2.5-2.4-7.5-3.5-6.7-1.5.3.8-.2 1.3-1.4 1.3-1 0-2.4.5-3 1.1-.8.8-2 .6-4.3-.6-2.7-1.4-3.4-1.5-4.2-.3-.7 1-1.1.9-2.3-.6-.8-1-1.6-2.2-1.7-2.6-.2-.4-2-1-4.1-1.3-3.3-.5-3.7-.4-2.7.8zM134.294 50.666c.7.3 1.6.2 1.9-.1.4-.3-.2-.6-1.3-.5-1.1 0-1.4.3-.6.6zM156.494 65.966c0 .5.5 1 1 1 .6 0 1-.5 1-1 0-.6-.4-1-1-1-.5 0-1 .4-1 1zM164.594 70.466c1.9 1.9 1.3 7.5-.7 7.5-3.1 0-2.7 10.3.4 10.6.6.1 1.5.2 1.9.3 1 .2-3.4 4.1-4.7 4.1-1.4 0-1.3 0 1.5 5.3 1.3 2.6 2 4.9 1.5 5.2-.6.3-.5 1.6 0 3.1.6 1.4.8 3 .5 3.4-.3.5 1.2.8 3.3.7 2.7-.1 4.4.5 6 2.1 1.2 1.2 2.1 2.2 2 2.3-1.1.5-7.5.6-8.2.1-1.4-.8-7.6-.8-7.6 0 0 .4-1.1.2-2.5-.4-1.4-.6-2.3-1.4-2-1.7.3-.2-.9-1-2.7-1.5-2.6-.9-3.3-1.7-3.4-3.9-.1-3.9-1.3-4.7-6.2-4-3.1.4-4.2 1-3.8 1.9.5 1.3.2 1.6-2.6 1.8-1.8.1-2.8 1.7-2.8 4.3 0 1.3-.6 2.3-1.3 2.3-.7 0-1.8 1.3-2.4 3-1 2.6-1.6 3-5 3-3.2 0-8.6 1.9-5.8 2 1.9.1-4 2.9-6.2 3-3.2 0-7.5 2.1-9.5 4.4-1.2 1.5-2.9 2.1-5.9 2.1-5.2 0-6.1 1.9-2 4.2 1.7 1 3.1 2.2 3.1 2.8 0 .5 2 2.9 4.3 5.2 3.7 3.5 4.9 4.1 7.9 3.8 3.3-.3 3.7-.1 5.2 3.8 1.1 2.9 1.3 4.4.5 5.3-1.1 1.3-.2 6.1.8 5 .4-.3 1.2.2 1.8 1.1 1.7 2.2 0 7.3-2.4 7.3-1.4 0-1.6.7-1.3 3.5.2 2 0 3.5-.4 3.4-2.7-.5-3.4.2-2.4 2 1.4 2.7 1.3 5.1-.4 5.1-.7 0-1.6 1-1.9 2.1-.4 1.5-1.1 2-2.1 1.6-.9-.4-1.6-.2-1.6.3 0 .6-.6 1-1.4 1-.8 0-1.6.5-1.8 1.2-.3.7-1.2.6-3-.6-2.8-1.8-4.4-4.6-2.8-4.6.6 0 1 .4 1 1 0 .5.5 1 1.1 1 .6 0 .8-.9.4-2.2-.6-1.6-.4-2 .7-1.6 1.1.5 1.4-.7 1.3-5.9-.1-3.5.2-6.6.7-6.9.4-.3.8-1.4.8-2.5 0-1 .5-1.9 1-1.9.6 0 1-.7 1-1.5 0-1.3.3-1.3 2-.3 2.7 1.7 3 .9 1.7-3.5-1.4-4.3-2.4-4.7-3.3-1.1-.4 1.6-1.2 2.3-2 2-.8-.3-1.4-.1-1.4.5s-.4.7-1 .4c-.6-.3-.7.1-.4.9.3.9.1 1.6-.5 1.6s-1.1.7-1.1 1.5-.9 1.5-2 1.5-2-.5-2-1c0-.6.5-1 1-1 .6 0 1-.7 1-1.5 0-1.5-6-3.1-8.4-2.2-.8.3-2 0-2.6-.8-.6-.7-2.4-1.8-4-2.5-2.1-.9-3-1.9-3-3.5 0-2.4-3.7-5.5-6.6-5.5-.9 0-2.3-.8-3-1.8-1.1-1.4-1.6-1.5-3.4-.4-1.2.7-3 1-4.1.7-2.8-.9-4.1.2-2.9 2.6 1.5 2.7-.6 4.5-5 4.3-2.4-.1-3.6-.6-3.8-1.7-.2-1 .1-1.7.7-1.7s.8-.7.4-1.5c-.3-.9-.8-1.3-1.1-1-.3.3-1.4-.2-2.4-1.2-1.2-1-1.8-1.2-1.8-.4 0 .7-.5.9-1.2.5-.8-.5-.9 0-.4 1.7 2.9 9.8 3.7 13.7 3.1 16.6-.5 2.7-.3 3.2 1 2.7 1-.4 1.5 0 1.5 1 0 1.8 5.6 5.6 8.3 5.6.9 0 1.7.4 1.7.8s1.5 2.4 3.3 4.4c3.2 3.5 4.4 6.8 2.5 6.8-.4 0-.8.6-.8 1.4 0 .9-.7 1.2-1.8.9-1-.2-2.6.4-3.6 1.5-1.7 1.9-1.7 2.2 0 5.4 3.3 6.1 2.7 8.3-4.5 15.4l-2.4 2.4 3.2.6c2.4.5 3.1 1.2 3.1 2.9 0 1.3-.4 2.5-.9 2.7-1.8.6-1.6 5 .3 6.2 1.4.8 2 .8 2.3-.2.6-1.4 3.9-1.6 4.8-.2 1.1 1.7 2.5 1.1 3.5-1.5.6-1.6 1.4-2.3 2.5-1.9.9.4 1.5.1 1.5-.9 0-1.6 2.9-2.7 7.1-2.7 2.9 0 4.6-2.5 2.4-3.4-1.8-.7-.8-4.4 1.7-5.7 1.5-.8 1.8-1.7 1.3-4.1-.7-3-.6-3 2.1-2.3 1.6.4 4.3.9 5.9 1.1 12.2 1.3 17.9 3.7 19.5 7.9.7 1.9 1.8 2.3 9.2 2.8 4.6.3 10.1.3 12.3.1 2.4-.2 5.5.2 7.7 1.2 3.5 1.6 3.8 1.5 6.6-.5 3.6-2.5 5-2.6 7.3-.5 1 .9 2.9 1.8 4.2 1.9 1.3.2 3.8 1 5.5 1.9 3.5 1.8 9.8 2.1 10.7.5.4-.6 1.3-.8 2-.5.8.3 1.6 0 1.8-.7.3-.7.9 0 1.5 1.5 1 2.3 3 3.6 6.6 4.2.6.1 1.9.7 3 1.2 1.5.9 1.6 1.5.8 3-.8 1.4-.7 2.3.5 3.6 2 2.2.5 7.2-2.3 7.6-1.9.3-4.4 4.2-4.4 7.1 0 .9-.7 2.5-1.5 3.5-.9 1.2-1.5 4.2-1.5 7.2 0 5 .3 5.5 4.5 9.5 2.8 2.6 4.3 4.9 4 5.7-.3.8 0 2.1.6 2.9.9 1 .9 1.7.2 2.4-.8.8-.2 2.4 2 5.6 3.1 4.4 3.2 4.5 1.4 7.4-2.1 3.7-2.1 5.6-.3 9 .7 1.5 1 3.2.5 4-.9 1.8 2.7 10.5 4.7 11.3.8.3 1.4 0 1.4-.6s.9-.3 2 .7c1.9 1.8 2 1.7 2-.3 0-2.5 1.2-2.8 2.9-.8.9 1.1.9 2 .2 3.5-1.7 3.1-1.4 3.5 4.9 6 3.3 1.3 6 3 6 3.6 0 .7.7 1.8 1.6 2.6.8.7 1.3 2.1 1.1 3-.3 1 .1 2.3.9 3 1.5 1.3 2 5.4.5 4.4-.5-.3-1.2-.1-1.5.4-.3.5-1.4.7-2.5.4-1.3-.3-2 .2-2.4 1.7-.3 1.2-1.5 2.4-2.6 2.7-2.6.7-2.6 1.5-.1 3.1 1.2.7 1.8 1.6 1.6 2.1-.3.5.9 1.1 2.7 1.5 1.8.4 3.3.2 3.5-.4.2-.6 1.1-.6 2.5.2 1.5.8 2.2.8 2.5 0 .6-2 6.7-3.4 9.6-2.2 2 .7 2.5.7 2-.1-.4-.8.3-.9 2.2-.5 3.9.8 6.3-.7 4.8-3.1-.7-1-1.9-1.7-2.8-1.7-.9.1-2.6-1.2-3.8-3-1.5-2.1-1.6-2.6-.4-1.5 1.4 1.3 2.4 1.5 5 .7 2.9-.9 3.6-.7 5.9 1.6 1.4 1.4 3.5 2.6 4.5 2.6 1.1 0 4.1 1 6.8 2.1 3.5 1.6 5.2 1.9 6.4 1.1 2-1.2 4.4 0 8.4 4.2 1.5 1.7 2.3 2.3 1.6 1.3-1-1.3-1-1.7-.1-1.7 1.2 0 4.1-2.4 4.1-3.4 0-.3-.7-.3-1.5 0-.8.4-1.5.1-1.5-.5 0-1.2 3.9-2.4 6.6-2 1.1.2 2.4 0 3.1-.4.8-.5 1.5.1 1.9 1.7.4 1.6 1.1 2.3 2 1.9.8-.3 1.1-.9.8-1.4-.3-.5.2-.6 1-.3.9.3 1.6.1 1.6-.5s1.6-1.7 3.5-2.5 3.5-2.2 3.5-3c0-.9.7-1.6 1.5-1.6s1.7-1.4 2.1-3.5c.6-3.4 3.4-5 3.4-2 0 1.8 1.4 1.9 4.2.4 1.7-.9 2.4-.8 3.7.8.9 1.1 2.7 2.6 4.1 3.5 3 1.8 9 2.8 9 1.5 0-.5.7-.4 1.5.3 1.3 1 1.5.9 1.5-1 0-1.7.4-2.1 1.7-1.6.9.4 2 .1 2.4-.5.7-1.3 2.9-.4 2.9 1.2 0 .6-.5.7-1.2.3-.8-.5-.9.2-.5 2.6.4 1.8.7 3.7.7 4.2 0 .6 1.6.7 3.8.3 3-.5 4.4-.2 6.4 1.4 1.4 1.2 3.3 2.1 4.2 2.1.9 0 1.6.5 1.6 1.1 0 .6.9.8 2.3.4 3.8-1.2 10.7-4.8 10.7-5.7 0-1.2 3.4-1 4.8.4.9.9 1.2.9 1.2-.2s.3-1.1 1.2-.2c1.4 1.4 5.2 1.6 4.3.3-.3-.5-.1-1.2.5-1.6.5-.3 1-1.7 1-3s.5-2.5 1.1-2.7c1.7-.6-.8-5.9-3.1-6.5-2.3-.6-2.4-.8-1-3.4.6-1 1.9-1.9 3-1.9s2.4-.9 3-2c.7-1.2 1.6-1.8 2.3-1.3.7.4.7 0-.2-1-1.5-1.9-2.6-2.3-1.5-.5.5.8 0 .9-1.4.6-1.5-.4-2.2-.2-2.2.9 0 .8-.4 1.2-.9.9-.5-.4-1.1-.1-1.3.5-.3.9-.9.9-2.6 0-1.7-.9-2.2-2.1-2.2-5 0-3-.5-4-2.4-4.9-2.3-1-2.4-1.3-1.3-4.7.6-1.9 1.5-3.4 2.1-3.2 1.7.6 1.8 2.4.1 4-1.4 1.5-1.4 1.7.5 2.7 1.3.7 2 .7 2 0 0-1.3 6.5-4 9.9-4 1.4 0 3.6-.3 4.9-.6 1.9-.6 2.2-1.1 1.7-3.5-.7-3.3 0-3.6 2.6-1.3 1.7 1.6 4.4 1.1 3.4-.6-.3-.5.9-1.1 2.6-1.5 1.9-.4 3.3-1.5 3.7-2.7.3-1.5 1.1-1.9 2.8-1.5 2.1.4 2.4 0 2.4-2.4 0-2.3.5-2.9 2.1-2.9 1.1 0 3.4-.9 5-2.1 1.7-1.1 5.2-2.3 8.3-2.6 5.1-.5 5.3-.7 5.4-3.5 0-1.7-.8-3.8-1.9-4.9-1.1-1.1-1.7-2.4-1.4-2.8.2-.5-.2-1.4-1-2.1-2-1.6-1.9-3 .2-3 2.4 0 5.3 2.9 4.6 4.8-.4 1-.2 1.3.5.8.7-.4 1.2-1.4 1.2-2.2 0-.8.8-1.4 1.8-1.4 1.6-.1 1.6-.2-.2-1.5-1-.8-1.6-2.1-1.3-2.9.8-2-1.3-3.3-2.3-1.5-1.1 1.7-5.8-.3-6.7-2.8-.3-1-1.5-3.1-2.7-4.7-1.1-1.6-1.5-2.6-.9-2.3.7.4 1.4.3 1.8-.2.3-.6 1.2-.8 2-.5 1 .4 1.2 0 .8-1.6-.3-1.1.2-3.9 1.2-6 1.7-3.7 1.7-4.1.1-6.5-1-1.5-1.5-3.2-1.3-3.8.2-.7-.2-2.7-.9-4.6-1.3-3.1-1.2-3.5 1.6-7.1 2.2-2.8 2.6-4 1.8-4.8-.7-.7-.8-1.2-.2-1.2.5 0 .2-.5-.6-1-1.3-.9-1.2-1.3.8-2.9 1.2-1.1 2.2-2.9 2.2-4 0-1.4.6-2.1 2-2.1 2.3 0 2.6-1 .8-2.8-.9-.9-.9-1.5 0-2.4.7-.7 1.2-2 1.2-2.9 0-2.4-3.2-3.4-4.6-1.5-1.4 2-1.8 2-5.9 0-2.5-1.2-3.5-2.4-3.9-5-.8-3.8-2.1-4.4-3.1-1.4-.4 1.1-1.5 2-2.6 2-2.6 0-3.5 2.7-1.6 4.8.8.9 1.4 2.8 1.3 4.2-.2 2.9-3.3 9.1-4.4 8.8-.4-.1-1.9.2-3.3.6-2.6.7-2.6.9-1.3 3.4 1.8 3.6 1.9 3.5-1.7 5.6-2.4 1.4-2.8 2.1-1.9 3.2.8.8.9 2.8.5 5.2-.6 3.8-.7 3.9-4.6 3.8-2.1 0-3.9-.4-3.9-.8 0-.5-.5-.8-1.1-.8-.5 0-.7.4-.4 1 1 1.7-5.9-.1-7.5-1.9-.9-1-2.1-1.6-2.7-1.4-.7.3-2.2-.1-3.3-.7-1.8-1-2.1-1.9-1.8-5.6.2-3-.1-4.5-1-4.9-.9-.3-1.2-1.4-.8-2.9.5-2.1.1-2.5-3.9-3.6-2.5-.7-5-1.9-5.6-2.6-.6-.8-1.9-1.4-2.9-1.4s-2.3-.7-3-1.5c-1.1-1.3-1-1.4.4-.9 1.1.4 1.6.1 1.6-1 0-.9-.4-1.6-.9-1.6s-1.7-.3-2.7-.7c-1.1-.4-1.5-.3-1.1.4.7 1.1-4.9 2.7-6.4 1.7-.5-.3-.9 0-.9.5 0 1.7-1.3 1.3-4-1.2-1.6-1.5-3.9-2.4-5.9-2.5-2.2 0-5.3-1.4-8.8-3.9-9.8-7-12.3-8-21.4-8.8-6.7-.5-9.3-.4-12.2.9-5.4 2.2-15.7.7-15.7-2.4 0-1.6-8.3-9-10.1-9-2.5 0-7.7-3.2-8.9-5.5-1.5-2.9-5-5-5-3.1 0 2.2-2.8 3.9-7.8 4.7-5.7.8-6.4.5-5.2-2.6.9-2.2.6-2.6-3.3-4.3-4.8-2.1-7.1-1.9-5.8.6.4 1 1.1 3.6 1.5 5.9l.6 4.2-4.8-.1c-5.4 0-6.5-.5-7.5-3-.4-1.1.2-2.2 1.9-3.2 3.1-2.1 3.1-3.4-.1-4.1-1.4-.3-3.6-.7-5-1-1.4-.3-2.5-1-2.5-1.7 0-.6-1.2-2.2-2.7-3.6-2.8-2.6-2.8-2.6-.6-3.1l2.2-.6-1.9-5.5c-1.1-3-1.9-6.9-2-8.7 0-2.2-.6-3.6-2.1-4.3-1.2-.7-1.8-1.8-1.5-2.6.3-.9.1-1.2-.4-.9-.6.3-1 0-1-.7 0-1-.3-.9-1 .2-.5.9-.5 1.7.1 2 .5.4.3 2-.7 4.1-2.3 4.6-2.2 4.5-3.8 2.3-1.2-1.6-1.2-2.2-.2-3.4.8-.8 1.3-2.3 1.3-3.3 0-2.1-4.2-2.3-5.1-.2-.3.9-1.8 1.5-3.5 1.5-1.6 0-3.3.5-3.6 1.1-.5.7-1.5.4-2.9-.9-1.1-1-3-2.3-4.1-2.8-2.1-.9-10.4-1.2-10.2-.4.1.3-.2.6-.8.7-.5.1-.9-.9-.7-2.2.3-2.1-.1-2.5-2.2-2.5-2 0-2.6-.5-2.6-2.3 0-1.3-.5-2.8-1.1-3.4-.7-.7-.3-1.9 1.6-3.9 1.4-1.5 2.3-3.4 2.1-4.1-.4-1 .1-1.2 1.8-.7 1.8.4 2.7 0 3.5-1.5.8-1.3.8-2.2.1-2.6-1.2-.7-.3-7.4 1.1-9 .5-.5.9-1.5.9-2.2 0-.8.9-3.2 2-5.4 2-4.4 1.7-5.7-2.9-11.2-.8-1-1.5-3-1.6-4.4 0-1.8-.9-3.1-2.9-4.3-1.7-.9-3.3-2.8-3.7-4.4-1-3.4-4.7-7.6-6.8-7.6-1.4 0-1.4.2 0 1.5zm-.8 111.6c.6 2.1-1.7 5.7-2.6 4.2-.7-1.1.4-6.3 1.3-6.3.4 0 1 1 1.3 2.1zm-4.3 3.8c0 .6-.4 1.3-1 1.6-.5.3-1-.1-1-.9 0-.9.5-1.6 1-1.6.6 0 1 .4 1 .9zm128 33.2c1 1.8.9 2-.7 1.7-1-.2-1.9-1.1-2.1-2.1-.5-2.4 1.5-2.1 2.8.4zm89 11.3c0 1.1-1.9 1.5-2.5.6-.3-.5.1-1 .9-1 .9 0 1.6.2 1.6.4zm-100.8 36.1c-.4 2.1-1 2.5-4.1 2.5-2.1 0-4.6-.7-5.7-1.5-1.8-1.4-1.8-1.5.3-1.2 1.2.2 2.6.6 2.9 1 1.6 1.6 4.2.6 4.8-1.8.8-3.3 2.5-2.4 1.8 1zm5.2 26.4c.3.5-.3 1.1-1.3 1.4-1.4.3-1.8.1-1.4-.9.6-1.6 1.9-1.8 2.7-.5zm-19.6 28.7c1.8.8 3.2 2 3.2 2.7 0 2.7-2.5 7.6-4.2 8-2.2.6-2.3-.2-.4-3.9 1.4-2.5 1.3-3-.5-5.6-2.4-3.3-2.3-3.3 1.9-1.2z"/><path d="M225.694 103.466c.3 1.4.1 2.5-.3 2.5-.5 0-1.8.8-2.9 1.7-2.2 2-2.6 4.9-.7 5.6 2 .8-.7 4.2-3.7 4.5-1.4.2-2.6.8-2.6 1.3s-.9.9-2.1.9c-1.5 0-1.9.5-1.5 1.5.4 1-.3 1.9-1.9 2.7-2 .9-2.2 1.4-1.4 3 .7 1.3.7 2.9 0 5-.9 2.5-.8 3.3.5 4.3 3 2.1 6.3.6 7.4-3.4.5-2 1.9-4.2 3-4.9 1.1-.7 2-2.1 2-3.1 0-2.9 1.7-3.4 2.4-.8.7 2.1.7 2.1 1.5.2.5-1.1.6-3.5.3-5.4-.4-2.6-.1-3.7 1.3-4.8 1.5-1 1.6-1.6.7-2.5-3.6-3.6 2.7-3.4 7.8.2 1.8 1.3 3.1 1.6 3.5 1 .3-.5 1.7-1 3.1-1 1.3 0 2.4-.5 2.4-1.2 0-.9.3-.9 1.2 0 .7.7 2.4 1.2 4 1.2h2.7l-1.7-3c-1.5-2.6-2.2-3-6.4-3-2.6 0-5-.5-5.3-1-.3-.6-2-1-3.6-1s-4.6-.7-6.5-1.5l-3.6-1.5.4 2.5zM263.194 109.866c.4 1.6 0 1.9-2.4 1.6-1.5-.1-3.1.2-3.5.9-.5.7-1.2.5-2.2-.9-.9-1.1-1.6-1.6-1.6-1.2 0 1.7 4.5 6.7 6.1 6.7 1 0 2.1.4 2.4 1 .3.5 1.7 1 3 1 1.4 0 2.9.9 3.5 2 1.3 2.5 3.2 2.5 5.4.1 1.7-1.8 1.7-1.9-.2-2.5-1-.4-2.7-.4-3.5 0-2 .7-4-3.6-3-6.2.4-1.1-.1-2.2-1.2-3-2.6-1.9-3.4-1.7-2.8.5zM269.394 136.766c-.9 1-1.4 2.3-1.2 2.9.3.7-.5 2.1-1.6 3.2-1 1-1.7 2.2-1.3 2.6.3.3.6 1.8.7 3.3 0 2.1.4 2.6 2 2.4 1.1-.2 2.5-.4 3-.4.6-.1 1.1-1.5 1.2-3.2.4-4.6 2.3-7.8 3.9-6.5 1.6 1.3 5.7.2 5.1-1.4-.2-.7-2.1-1.7-4.3-2.2-2.1-.6-4.4-1.3-5-1.7-.6-.4-1.7.1-2.5 1zM264.494 158.566c0 .8.5 1.2 1 .9.6-.3 1-1 1-1.6 0-.5-.4-.9-1-.9-.5 0-1 .7-1 1.6zM267.494 166.066c0 .5.5.7 1 .4.6-.3 1-.8 1-1.1 0-.2-.4-.4-1-.4-.5 0-1 .5-1 1.1zM263.094 170.466c2.4 1.8 3.1 1.9 3.1 0 0-.9-1-1.5-2.6-1.5-2.4 0-2.4.1-.5 1.5zM429.694 171.766c.3 3 1.9 4.7 2.9 3 1-1.5-.1-4.6-1.8-5.2-1.1-.5-1.4.1-1.1 2.2zM411.094 177.666c.2 6.6 0 7.3-1.7 7.3-2.5 0-3.5 2.6-1.9 4.5 1.7 2 2.7 1.9 3.5-.4.3-1.1 1.8-2.2 3.4-2.6 2.4-.5 2.7-.9 2.3-3.7-.4-2.7-.2-3 1.4-2.3 4.1 1.7 7.4 1.8 7.4.1 0-.9.5-1.6 1-1.6.6 0 1-.6 1-1.4 0-.9-.8-1.2-2.5-.8-1.4.2-2.5.8-2.5 1.3 0 1.4-5.4-1.7-8.6-4.9l-2.9-2.9.1 7.4z"/><path d="M414.494 171.966c0 .5.6 1 1.4 1 .8 0 1.8-.5 2.1-1 .3-.6-.3-1-1.4-1-1.2 0-2.1.4-2.1 1zM414.494 190.766c0 2.1 2.5 4.8 3.3 3.5.3-.4-.3-1.9-1.4-3.2-1.8-2.2-1.9-2.2-1.9-.3zM56.494 191.866c0 .5.5 1.3 1 1.6.6.3 1 .2 1-.4 0-.5-.4-1.3-1-1.6-.5-.3-1-.2-1 .4zM6.794 203.666c-.7 1.5-1.3 3.3-1.3 4.1 0 .9-.6 1.2-1.5.8-.8-.3-2.1-.9-2.9-1.2-1.1-.4-1.3 0-.9 1.5s1.3 2.1 3.4 2.1c1.6 0 2.9.4 2.9.9s1.2 1.1 2.8 1.4c1.5.4 3.2 1 3.8 1.4 1.6 1.1 2.8 5.3 1.5 5.3-.6 0-1.1 1.1-1.1 2.5 0 1.6.6 2.5 1.6 2.5.9 0 2.7.9 4.1 2 1.6 1.3 4.1 2 6.7 2 2.2 0 4.8.4 5.6 1 .9.5 1.9.5 2.6-.1.7-.6 3.1-1 5.3-1.1 5.5-.1 5.9-1.2 1.7-4.1-2.4-1.6-3.2-2.7-2.5-3.4.7-.7.5-1.4-.7-2.3-1.4-1.2-1.7-1.2-2.5.3-.6.9-1.5 1.7-2.1 1.7-2.7 0-10.1-4.5-12.4-7.5-1.4-1.8-3.7-3.6-5.2-4-1.5-.4-3.4-1.3-4.2-2-.8-.7-1.9-1.4-2.5-1.4-.5 0-1.1-.5-1.4-1.2-.2-.8.2-1 1.3-.6 1.4.6 1.5.3.6-1.3-1.3-2.5-1.3-2.5-2.7.7zm2.2 5.3c-.3.5-1.1 1-1.6 1-.6 0-.7-.5-.4-1 .3-.6 1.1-1 1.6-1 .6 0 .7.4.4 1z"/><path d="M1.494 213.466c0 2.1 1.8 3.7 3.6 3.3 1.8-.5 1.8-.5-.1-1.3-1.1-.5-2.3-1.3-2.7-1.9-.5-.7-.8-.7-.8-.1zM40.494 214.066c0 .5.5.7 1 .4.6-.3 1-.8 1-1.1 0-.2-.4-.4-1-.4-.5 0-1 .5-1 1.1zM379.694 229.966c0 1.4.2 1.9.5 1.2.2-.6.2-1.8 0-2.5-.3-.6-.5-.1-.5 1.3zM44.694 230.966c-1.5 2.4-.7 4.4 1.5 3.6.9-.4 2.3.4 3.5 1.9 1.1 1.4 2.4 2.3 2.9 1.9.6-.3 1.6-.1 2.4.6 2.1 1.7 5.5-.4 4.8-3-.4-1.5 0-2 1.6-2 2.2 0 2.6-.7 1.3-2.7-.9-1.5-3.5-1.2-5.8.7-1.3 1.2-1.8 1.2-2.1.3-.3-.8-1.4-1.1-2.7-.7-1.4.3-2.9-.1-3.9-1-2-2-2-2-3.5.4zM65.994 229.866c-.6 1.1.9 2.3 1.9 1.4.9-.9.7-2.3-.3-2.3-.6 0-1.2.4-1.6.9zM446.194 290.766c-1.2.2-1.6.9-1.3 1.9.4.9-.1 1.7-1.4 2-1.3.3-2 1.4-2 2.9 0 1.4-.6 2.4-1.4 2.4-.8 0-1.8.9-2.1 2-.6 1.9-2.6 2.5-6.7 2.2-1.2-.1-1.8.5-1.8 1.8 0 1.6-.5 1.9-3 1.3-2.5-.5-3-.2-3 1.4 0 1.1-1.1 2.5-2.5 3.1-2 .9-3.1.7-6.7-1.3-3.9-2.2-4.4-2.3-6-.8-1.2 1.1-1.5 2.4-1.2 4.7.6 3.6 2.5 7.8 3.9 8.8.5.4.2 1-.8 1.4-.9.3-1.4 1-1.1 1.5.3.5-.2.9-1 .9-1.2 0-1.6 1-1.6 4 0 3.1-.5 4.3-2.5 5.6-2 1.3-2.8 1.4-4 .4-1-.8-1.5-.9-1.5-.1 0 .6-1.8 2.3-4 3.7-2.4 1.6-4 3.5-4 4.6 0 3.1-1.8 5.5-4.6 6.2-2.6.7-2.6.8-1.9 7.2.4 4.3 1.3 7.2 2.5 8.4 1 1 2 1.7 2.2 1.5.7-.7 23.1-2.3 24.4-1.8.8.3 1.4 1.3 1.4 2.2 0 1.3.2 1.4 1 .1.8-1.2 1.1-1.2 2.7.2 1 .8 2.8 1.9 4.1 2.3 1.6.5 2.1 1.2 1.7 2.5-.5 1.5-.2 1.7 1.5 1.3 1.1-.3 2 0 2 .6s1.1 1.1 2.4 1.1c1.3 0 2.6.7 3 1.5.3.8 1.7 1.5 3.1 1.5 1.8 0 2.8.7 3.5 2.5.5 1.4 1.3 2.5 1.8 2.5 2.1 0 3.8 5.6 3.1 10-.7 4.7 1.5 11.9 3.6 12 .6 0 1.9 1.3 2.8 3 1.7 2.8 1.7 3.1.1 6.1-1.5 3-1.5 3.4 0 6.1 1 1.5 1.5 3.2 1.2 3.7-.3.5.1 1.4.8 2 .8.7 1.7 3 2.1 5.1.4 2.1 1.3 4.1 2.1 4.4.8.3 1.4 1.2 1.4 2.1 0 .8.5 1.5 1 1.5.6 0 1 1.2 1 2.6 0 1.4.5 3.5 1.1 4.6.9 1.8.8 2.4-.7 3.5-1 .7-1.4 1.3-1 1.3.5 0 .3.6-.3 1.3-.6.8-.8 1.7-.4 2 .3.4 2.3-1.1 4.3-3.2 3.4-3.5 4.4-3.9 9.5-4.3 3.7-.2 6 .1 6.7.9.6.7 2 1.3 3.2 1.3 1.1 0 2.9.7 3.9 1.4 2.1 1.6 16.7 2 16.7.6s5.5-4 8.4-4c1.5 0 2.7-.7 3-1.8.9-2.6 6.5-2.8 8.3-.2 1.8 2.5 4.8 2.8 3.8.2-.4-.9-.9-2.3-1.2-3-.3-.6 0-1.2.7-1.2 1 0 1-.3 0-1.5-.7-.8-2.1-1.5-3.1-1.5-2.4 0-3.2-1.5-1.4-3 1.2-1 1-1.7-1.1-5-1.4-2.2-3.7-4.6-5-5.5-1.5-.9-2.4-2.5-2.4-4.1 0-2.4.1-2.5 4.8-1.8 2.6.4 4.9 1 5.2 1.3.3.4 1.8 1.7 3.4 2.9 1.6 1.2 2.3 2.2 1.7 2.2-.9 0-.9.5-.1 2 .6 1.1 1.6 2 2.2 2 .6 0 2.6 1.1 4.4 2.5 1.8 1.4 4.3 2.5 5.5 2.5 3.3 0 10.7 5.2 11.8 8.2 1.1 3 2.1 3.4 3.8 1.7 1.7-1.7-3-7.5-7.3-9.1-3.8-1.3-5.2-4.1-3.3-6.4 1.9-2.3-1.7-5.7-5.2-4.9-3.5.8-6.9-1-6.9-3.5 0-1-.4-2.1-1-2.5-1.4-.9 0-3.7 1.6-3.1 1.9.7 1.8-2.8-.1-4.4-.8-.6-1.9-.9-2.5-.5-.5.3-1-.1-1-.9 0-.9-.5-1.6-1-1.6-.6 0-2.3-1.4-3.9-3.2-2.5-2.8-3.1-3-4.5-1.9-1.9 1.6-2.1.3-.2-2.2.7-.9 2.4-1.7 3.8-1.7 1.3 0 2.9-.5 3.6-1.2 1.6-1.6 6.6.7 5.9 2.6-.3.8-.3 1.7 0 2 1 1 10.3-9.6 10.3-11.7 0-1.6.5-1.8 3.9-1.2 3.6.6 3.9.4 5.1-2.5 1-2.5 1.7-3 3.5-2.6 2.7.7 6.5-1.9 6.5-4.4 0-1 .9-2.2 2.1-2.5 2.8-.9.8-3-2.9-3.1-4.9-.1-11.4-2.7-14.5-5.8-2.7-2.8-2.8-3.1-1.1-3.5 1-.2 2.5-1.2 3.2-2.2.7-1.1 1.9-1.9 2.6-1.9 2.1 0 3.5-4.2 2.2-6.5-.6-1.1-1.3-2.2-1.6-2.5-1.4-1.4-2.9-5-2.1-5 1.4 0 2-3.7.8-4.9-1.6-1.6-3.7-8.2-3.7-11.7 0-2.5-.7-3.4-3.5-5-3-1.6-3.5-2.4-3.3-4.9.2-1.8-.3-3.5-1.2-4.2-1.3-1-1-1.2 1.6-1.3 3.4 0 4.2-1.2 6.3-9.5 1.6-6 1.4-6.6-1.5-4-2.1 1.9-3 2.2-4.5 1.4-2.4-1.2-7.1-.8-8.4.8-.5.7-3.6 1.6-6.8 1.9-5.5.7-6 .5-9-2.3-1.8-1.7-3.9-2.9-4.7-2.8-9.9 1.8-11 1.8-11-.3 0-1.5-.9-2.1-3.7-2.5-2.1-.3-4.5-.8-5.3-1.1-.9-.4-2.5.2-3.7 1.4-1.2 1.1-2.7 2-3.3 2-.5 0-1 .5-1 1.1 0 .8-.4.8-1.5-.1-.8-.6-2.9-1.6-4.7-2-1.8-.4-4-1.1-4.9-1.4-1-.4-2.3 0-3.3.9-1.4 1.4-2.1 1.5-5.3.4-2.1-.7-4.7-2.1-5.8-3-1.1-.9-3.7-2-5.7-2.3-2.1-.4-4.3-1.5-5-2.4-.7-1-2.1-1.6-3.1-1.4zM424.194 297.066c.7.7 1.5 1 1.8.7.3-.3-.2-.9-1.2-1.2-1.4-.6-1.5-.5-.6.5z"/><path d="M426.694 300.166c.6 1.8 2.8 2.1 2.8.4 0-.9-.7-1.6-1.6-1.6-.9 0-1.4.5-1.2 1.2zM329.194 348.466c-2.8 2.4-3.3 3.4-2.6 4.8 1.3 2.2 2 2.1 4.7-.3 2.5-2.4 6.3-3 6.9-1.3.3.8-.3 1.3-1.4 1.3-1.4 0-1.5.2-.4.9 1.6 1 2.3 8.6 1 11.8-.9 2.4-.8 2.4 4.3 2.8.9 0 2.6.9 3.8 2 1.6 1.4 2.3 1.6 3.2.7 2.7-2.7 7.8.2 7.8 4.5 0 1.2.7 2.3 1.5 2.7.8.3 1.2 1.2.9 2-1.1 3 8-1.8 13.6-7.2 3-2.8 5.2-5.2 4.8-5.2-1.3 0 2.6-4 3.9-4 1.9 0 1.6-2-.4-2.7-1-.3-3.3-1.7-5.1-3-1.8-1.3-4.2-2.5-5.5-2.6-1.2 0-2.5-.5-2.8-1-.8-1.2-6.9-1.6-6.9-.4 0 .5-.8.6-1.7.2-1-.4-2.7-.9-3.8-1-1.1-.2-2-.4-2-.5 0-.1-1.8-.3-4-.4-3-.2-4.9-1.1-7.8-3.8-4.6-4.3-7.3-4.4-12-.3zM451.894 459.266c-.4 1.4-1.2 1.7-2.9 1.3-1.3-.3-2.5-.2-2.7.4-.2.5-1.8.6-4 .1-2.9-.7-3.8-.5-4.3.6-.3 1-1.3 1.3-2.6 1-1.4-.4-2.9.2-4.6 1.9-1.3 1.3-2.8 2.4-3.4 2.4-.5 0-.9.6-.8 1.2.1.7-.7 3.2-1.7 5.5-1.7 3.8-2.3 4.3-5.1 4.3-2.7 0-3.3.4-3.3 2.1 0 1.7-.4 2-2.3 1.5-1.6-.4-2.9.1-4.1 1.5-1.2 1.4-2.1 1.8-2.8 1.1-1.6-1.6-5.8 1-5.8 3.7 0 1.9-.4 2.3-2.5 1.9-2.1-.5-2.4-.2-1.9 1.7.3 1.3.1 2.6-.5 2.9-.6.4-1.1 1.7-1.1 2.9s-.6 3.8-1.3 5.8c-1 3-1.6 3.5-3.2 2.9-1.1-.4-2.6-.3-3.3.3-.7.5-3.2.7-5.7.5-2.5-.3-4.5-.2-4.5.3s-.7.6-1.6.2c-1.2-.4-1.5-.1-1.2 1.3.2 1.1 1.1 1.8 2.1 1.6 1.1-.2 1.7.4 1.7 1.6 0 2.6-8 3.9-9.3 1.6-.5-.8-1.3-1.2-1.8-.8-.5.3-1.8-.5-2.9-1.8l-1.9-2.3-1.1 3.2c-.7 1.8-1.3 3.3-1.5 3.3-.1 0-2.8-1.1-5.9-2.5-3.1-1.4-6.3-2.5-7.2-2.5-.8 0-1.9-1.1-2.4-2.5-1.1-2.8-4.1-3.3-6-1-1.1 1.3-1.1 2 0 4 .7 1.3 1 3.1.7 3.9-.3.8 0 2.8.8 4.3 1.2 2.3 1.2 3.1.1 4.8-.7 1.1-1.5 3-1.8 4.2-.5 1.9-.2 2.3 1.7 2.3 1.3 0 2.7-.5 3-1 .4-.6 1.5-.8 2.6-.5 1 .4 1.9.2 1.9-.4 0-1.4 4.6.3 6.7 2.5 1.1 1.1 2.6 1.4 4.7 1 2.5-.5 3.6-.1 6.5 2.8 2 2 3.9 3.5 4.4 3.6h2.2c.9 0 2.5 1.6 3.6 3.5 1.2 1.9 2.7 3.5 3.5 3.5.7 0 1.6 1.1 2 2.4.3 1.5 2.3 3.3 5.5 5 2.7 1.5 5 3.3 5.1 3.9 0 .7.2 1.7.2 2.3.1.6.9 1.9 1.9 2.8 2.4 2.4 8.7 1.4 8.7-1.3 0-1.3.7-1.8 2.3-1.6 1.2.1 3 .3 3.9.4.9 0 2.7 1.5 3.9 3.3 1.3 1.7 1.6 2.8.8 2.3-1.2-.8-1.2-.6.1.9 1.2 1.6 2.5 1.8 8.7 1.4 5.3-.4 7.6-.1 8.4.8.9 1 1.5.8 3.2-1.2 2-2.3 2.5-2.4 5.1-1.4 1.6.6 3.2.7 3.5.3.3-.4 1.3-1 2.1-1.2 3.4-.8 4.5-.5 4.4 1.1-.1 1 0 1.8.3 1.8 1.5 0 6.4-3.4 8.5-5.8 1.3-1.5 4.4-3.9 6.8-5.3 2.5-1.3 4.9-2.9 5.3-3.4.6-.6 1-.6 1.4.2.2.7 1.7 1.3 3.1 1.3 4.1 0 5.7-4.4 3.8-10.1-1.3-3.7-1.3-4.5 0-6.3 1.6-2.3 1.9-4 .5-3.2-.5.3-1.4-1.4-2-3.9-1.6-6.3.2-13.1 3.9-15 1.5-.8 2.9-1.2 3.2-1 .2.2.1-1.7-.2-4.2-.3-3-1-4.7-2-4.9-.8-.1-2.3-.5-3.3-.9-1.3-.6-2-.2-2.4 1.3-.5 1.9-.7 1.9-4.1.5-2-.8-4.8-1.2-6.5-.9-1.7.3-3.6.1-4.3-.5-1-.8-1.9-.7-3.6.5-2.5 1.8-5.8 2.1-5.8.6 0-.6-1.1-1-2.5-1-1.8 0-2.5-.5-2.5-1.9 0-2.6 3.1-3.5 7.7-2.2 4.2 1.2 5.1.8 3.3-1.4-.7-.8-1-2.2-.6-3 .3-.8.1-1.5-.3-1.5-1.7 0-2-3-.6-6.4 2.3-5.5 2-7.6-1.2-7.6-2.1 0-3.3-.8-4.5-3-1-1.7-2.5-3-3.6-3s-2.5-.7-3.2-1.5c-1.1-1.3-1-1.4.6-.8 1.7.6 1.7.5.5-1s-1.1-1.7.6-1.7c3.9 0 5.8-5 3.1-7.9-.8-.9-.4-.8 1.2.2 2.4 1.5 5 2.1 7.8 1.8.6 0 1.2-1.4 1.2-3 0-2.4-.5-2.9-3-3.3-2.3-.3-3.1 0-3.6 1.5z"/></g></svg>