<?xml version="1.0" standalone="no"?>
<!DOCTYPE svg PUBLIC "-//W3C//DTD SVG 20010904//EN"
 "http://www.w3.org/TR/2001/REC-SVG-20010904/DTD/svg10.dtd">
<svg version="1.0" xmlns="http://www.w3.org/2000/svg"
 width="568.551903pt" height="705.611486pt" viewBox="0 0 568.551903 705.611486"
 preserveAspectRatio="xMidYMid meet">
<metadata>
Created by potrace 1.15, written by Peter Selinger 2001-2017
</metadata>
<g transform="translate(-806.177515,1365.000000) scale(0.100000,-0.100000)"
fill="#222222" stroke="none">
<path d="M10250 13638 c0 -7 5 -20 10 -28 8 -12 10 -9 10 13 0 15 -4 27 -10
27 -5 0 -10 -6 -10 -12z"/>
<path d="M10330 13623 c-11 -13 -25 -21 -30 -18 -6 3 -10 -3 -10 -15 0 -19 -4
-21 -30 -15 -19 4 -30 3 -30 -4 0 -18 -40 -12 -67 9 -33 25 -68 28 -55 3 7
-12 4 -22 -9 -37 -21 -22 -25 -51 -9 -61 16 -10 0 -26 -23 -24 -40 3 -49 -1
-43 -16 3 -9 -1 -18 -9 -21 -8 -4 -15 -14 -15 -23 0 -10 -26 -45 -58 -78 -32
-33 -75 -83 -97 -112 -22 -29 -45 -49 -52 -47 -7 3 -13 1 -13 -4 0 -11 13 -14
43 -10 10 1 26 -5 35 -13 33 -28 85 -48 93 -36 5 9 12 8 24 -4 25 -25 47 -22
40 6 -4 17 0 25 22 35 15 6 37 12 50 12 13 0 26 7 29 15 4 8 17 15 30 15 14 0
32 11 45 29 13 18 27 27 39 24 10 -3 33 3 51 13 19 10 37 18 42 19 11 0 10 7
-3 37 -10 21 -10 32 3 58 10 18 14 43 11 59 -4 20 -1 30 10 34 9 4 16 13 16
21 0 9 9 23 19 33 11 10 22 31 25 47 3 15 9 33 15 40 7 8 -2 17 -29 32 l-39
22 -21 -25z"/>
<path d="M10436 13631 c-3 -5 1 -11 9 -15 9 -3 15 0 15 9 0 16 -16 20 -24 6z"/>
<path d="M8774 13509 c-6 -10 62 -89 77 -89 15 0 -6 56 -30 76 -30 26 -37 29
-47 13z"/>
<path d="M8877 13364 c-4 -4 -7 -40 -7 -80 0 -49 -4 -74 -12 -77 -10 -4 -10
-7 0 -18 16 -17 15 -29 -2 -29 -24 0 -29 -19 -12 -45 21 -32 21 -69 1 -61 -8
3 -22 9 -32 13 -11 4 -14 3 -9 -6 5 -8 1 -14 -13 -18 -12 -3 -21 -12 -21 -19
0 -9 -11 -14 -28 -14 -16 0 -37 -8 -46 -19 -16 -18 -15 -20 17 -40 19 -11 40
-21 47 -21 8 0 11 -14 9 -42 -4 -50 7 -88 25 -88 7 0 21 -9 31 -20 16 -18 19
-18 48 -3 51 26 94 28 106 5 8 -15 8 -21 -1 -24 -19 -7 0 -38 23 -38 11 0 33
-9 47 -21 l27 -21 8 31 c4 17 14 31 21 31 8 0 16 10 19 21 4 16 11 20 26 16
22 -5 29 7 11 18 -5 3 -10 19 -10 34 0 21 8 32 40 50 43 24 48 32 26 50 -13
11 -32 66 -28 82 2 9 -66 17 -77 10 -4 -4 -13 -23 -20 -43 -10 -32 -17 -37
-51 -43 -47 -8 -56 -4 -65 32 -3 15 -16 37 -28 49 -40 40 -47 53 -36 59 5 4 7
15 4 26 -4 11 -2 19 5 19 6 0 8 5 5 10 -3 6 1 13 9 16 9 3 16 17 16 30 0 17 6
24 20 24 14 0 18 5 14 18 -11 34 -29 66 -49 86 -11 12 -27 31 -35 44 -8 13
-18 20 -23 16z"/>
<path d="M9715 13130 c-3 -5 1 -10 10 -10 9 0 13 5 10 10 -3 6 -8 10 -10 10
-2 0 -7 -4 -10 -10z"/>
<path d="M9671 13088 c3 -23 -13 -78 -23 -78 -5 0 -7 -4 -3 -9 3 -6 16 -6 34
0 32 11 46 51 30 81 -11 20 -41 24 -38 6z"/>
<path d="M9672 12982 c-15 -10 -5 -42 13 -42 7 0 15 -15 17 -35 3 -23 0 -35
-8 -35 -6 0 -14 -11 -16 -25 -5 -23 -2 -25 28 -25 26 0 32 4 28 15 -4 8 -1 15
5 15 6 0 11 -4 11 -10 0 -5 10 -20 21 -31 15 -15 18 -23 9 -29 -8 -5 -5 -9 9
-13 27 -7 31 0 29 55 l0 45 -42 -1 c-27 -1 -41 3 -41 12 0 7 -7 17 -15 22 -13
8 -12 10 1 15 15 5 15 9 0 41 -15 35 -26 40 -49 26z"/>
<path d="M9652 12912 c-18 -3 -23 -9 -19 -22 4 -15 -2 -20 -25 -26 -23 -4 -27
-8 -17 -15 8 -5 24 -9 37 -9 17 0 22 6 22 25 0 13 8 28 17 34 22 12 15 18 -15
13z"/>
<path d="M9829 12893 c-13 -15 -12 -15 9 -4 23 12 28 21 13 21 -5 0 -15 -7
-22 -17z"/>
<path d="M9778 12883 c6 -2 18 -2 25 0 6 3 1 5 -13 5 -14 0 -19 -2 -12 -5z"/>
<path d="M9507 12861 c3 -11 13 -19 23 -18 21 1 17 12 -10 27 -15 8 -17 6 -13
-9z"/>
<path d="M9432 12844 c-11 -12 -9 -14 8 -14 11 0 20 4 20 9 0 17 -15 19 -28 5z"/>
<path d="M9527 12760 c1 -30 2 -57 3 -59 0 -2 9 4 20 14 20 18 22 18 51 1 23
-13 34 -15 42 -7 6 6 19 11 29 11 10 0 18 4 18 9 0 4 11 20 25 34 28 27 25 34
-15 37 -43 4 -58 0 -75 -16 -15 -15 -17 -15 -34 0 -10 9 -23 16 -30 16 -7 0
-10 4 -7 8 2 4 -3 8 -12 8 -14 0 -17 -10 -15 -56z"/>
<path d="M9890 12800 c-14 -10 -24 -28 -23 -39 0 -12 1 -30 2 -41 1 -27 32
-26 58 3 12 14 19 35 19 56 -2 40 -21 47 -56 21z"/>
<path d="M9410 12801 c0 -6 4 -12 9 -15 12 -8 2 -48 -16 -63 -8 -6 -16 -20
-17 -30 -4 -22 -59 -28 -77 -7 -6 8 -26 14 -43 14 -36 0 -96 -35 -74 -43 9 -4
7 -6 -5 -6 -10 -1 -15 -5 -12 -11 11 -18 -32 -10 -58 10 -15 12 -28 16 -32 11
-3 -6 -13 -7 -22 -4 -12 5 -15 2 -10 -10 3 -9 2 -17 -3 -17 -6 0 -10 -5 -10
-11 0 -6 7 -8 15 -5 11 4 19 -3 26 -21 15 -41 -17 -79 -64 -76 l-35 2 -6 -60
c-4 -34 -10 -59 -13 -55 -3 3 -15 -1 -27 -9 -11 -8 -35 -15 -53 -15 -18 0 -33
-4 -33 -9 0 -10 -50 -2 -67 12 -9 7 -13 5 -13 -5 0 -8 -5 -19 -11 -25 -14 -14
-63 7 -72 32 -9 22 -44 19 -50 -6 -4 -16 -11 -19 -26 -14 -13 4 -21 2 -21 -5
0 -7 -6 -5 -15 4 -16 15 -51 16 -152 1 -37 -5 -57 -4 -67 5 -19 15 -83 3 -67
-13 6 -6 21 -11 33 -12 21 -2 25 -11 18 -40 -7 -28 1 -54 14 -49 15 6 56 -45
56 -69 0 -20 17 -31 22 -15 3 8 10 3 18 -12 7 -13 23 -32 35 -42 16 -12 21
-25 18 -42 -4 -18 0 -26 16 -31 12 -4 18 -12 14 -21 -9 -24 32 -17 66 12 17
14 31 32 31 40 0 9 5 12 10 9 6 -3 10 -1 10 5 0 7 7 10 15 7 8 -4 17 -2 21 4
9 15 44 -20 37 -38 -5 -12 0 -14 25 -8 45 9 72 -2 72 -29 0 -13 7 -29 15 -36
9 -7 13 -21 9 -34 -3 -14 1 -28 10 -35 9 -8 16 -22 16 -33 0 -10 8 -21 18 -25
9 -3 34 -22 56 -41 21 -19 41 -30 45 -26 9 12 71 15 71 4 0 -6 -6 -10 -14 -10
-18 0 -40 -82 -24 -91 7 -4 7 -9 -1 -13 -14 -9 -15 -46 -1 -46 5 0 16 -16 24
-35 8 -19 22 -35 30 -35 8 0 20 -9 26 -20 6 -11 16 -20 23 -20 16 0 13 -75 -3
-95 -8 -9 -10 -30 -6 -57 9 -63 10 -69 34 -115 17 -33 20 -47 12 -68 -15 -40
-12 -64 13 -88 22 -23 80 -132 92 -174 3 -12 1 -24 -5 -28 -8 -5 -4 -12 9 -22
14 -9 21 -25 21 -46 0 -26 11 -44 56 -90 31 -31 59 -57 63 -57 12 0 40 -34 61
-72 14 -26 24 -33 48 -34 38 0 72 -28 65 -53 -3 -10 2 -32 11 -49 9 -17 16
-40 16 -50 0 -10 9 -27 20 -37 25 -23 26 -60 1 -77 -10 -7 -21 -23 -25 -35 -4
-13 -13 -23 -20 -23 -8 0 -11 -12 -8 -34 5 -43 -5 -48 -51 -26 -20 10 -37 14
-37 10 0 -5 5 -12 10 -15 6 -3 10 -11 10 -17 0 -6 -7 -5 -17 3 -15 12 -16 12
-11 -8 5 -17 2 -22 -10 -20 -28 4 -41 17 -35 32 8 24 -44 19 -59 -5 -7 -11
-18 -20 -25 -20 -7 0 -13 -4 -13 -9 0 -4 -11 -6 -25 -3 -14 2 -25 7 -25 11 0
4 -25 7 -56 7 -36 1 -61 7 -71 17 -12 12 -21 13 -39 5 -18 -8 -30 -8 -47 1
-18 9 -31 9 -66 -4 -24 -8 -61 -16 -82 -17 -43 -1 -76 19 -59 36 5 5 10 14 10
20 0 5 -8 -1 -19 -13 -17 -20 -51 -21 -51 -1 0 5 -3 16 -7 25 -5 15 -1 16 24
11 21 -5 34 -2 43 9 7 9 21 13 31 10 20 -7 49 28 49 60 0 12 -13 34 -28 51
-24 25 -28 35 -24 72 2 23 8 42 13 42 6 0 6 8 0 19 -6 10 -8 21 -5 23 2 3 -10
8 -28 12 -17 3 -36 2 -42 -4 -5 -5 -22 -10 -36 -10 -14 0 -32 -6 -38 -12 -10
-10 -17 -10 -33 0 -12 8 -24 11 -27 8 -3 -3 0 -6 8 -6 10 0 10 -3 1 -14 -8
-10 -9 -16 -1 -21 14 -8 3 -25 -17 -25 -12 0 -14 8 -11 35 2 22 0 35 -7 35 -6
0 -27 18 -45 40 -19 22 -42 40 -53 40 -11 0 -28 6 -36 14 -22 20 -71 31 -71
17 0 -6 -9 -11 -20 -11 -12 0 -24 -9 -29 -23 -8 -20 -15 -23 -40 -19 -22 3
-31 10 -31 24 0 10 -4 17 -10 13 -5 -3 -7 -12 -4 -20 4 -10 0 -12 -15 -8 -12
3 -21 1 -21 -6 0 -7 -9 -9 -23 -6 -15 4 -28 1 -36 -9 -8 -9 -20 -16 -27 -16
-8 0 -14 -5 -14 -11 0 -7 -11 -9 -29 -6 -19 4 -33 1 -41 -8 -7 -8 -18 -15 -25
-15 -6 0 -20 -9 -30 -20 -18 -20 -18 -21 6 -44 13 -12 33 -39 44 -60 17 -32
18 -38 5 -46 -12 -8 -3 -21 48 -68 46 -43 61 -63 56 -76 -4 -11 2 -26 19 -44
29 -31 40 -69 18 -64 -11 2 -13 -8 -8 -54 6 -60 33 -106 49 -82 12 19 29 -11
22 -38 -4 -15 2 -29 18 -45 21 -21 24 -31 20 -76 -2 -32 -11 -59 -23 -72 -11
-12 -17 -22 -14 -22 3 -1 9 -2 14 -3 5 0 13 -4 17 -8 4 -5 15 -8 24 -8 24 0
60 -46 60 -76 0 -14 5 -34 11 -45 5 -11 11 -38 11 -60 0 -21 3 -39 7 -39 3 0
7 -19 8 -43 2 -31 9 -47 28 -63 59 -48 79 -135 34 -149 -22 -7 -24 -15 -6 -39
11 -16 17 -17 36 -7 19 10 20 15 10 28 -11 13 -10 14 11 11 14 -2 24 -9 23
-16 -4 -18 43 -45 66 -37 27 8 61 -15 61 -41 0 -15 9 -25 30 -33 17 -5 30 -15
30 -21 0 -18 51 -59 66 -53 8 3 14 0 14 -6 0 -6 5 -11 11 -11 6 0 8 9 4 20 -8
24 -1 24 45 2 29 -14 35 -23 35 -50 1 -17 -3 -32 -7 -32 -4 0 -8 -11 -8 -25 0
-20 -5 -25 -25 -26 -14 -1 -31 -2 -37 -3 -7 -1 -17 -7 -21 -13 -4 -7 -26 -16
-48 -19 -23 -4 -43 -13 -46 -20 -3 -8 -12 -14 -21 -14 -13 0 -13 -2 -1 -17 23
-29 38 -60 32 -66 -10 -11 -33 5 -33 23 0 26 -27 32 -43 9 -10 -13 -20 -17
-32 -13 -13 5 -16 4 -11 -4 5 -8 0 -12 -13 -12 -12 0 -21 -4 -21 -10 0 -5 -6
-10 -14 -10 -10 0 -12 12 -9 47 3 38 1 45 -9 35 -14 -14 -58 -16 -58 -2 0 6
-9 10 -20 10 -11 0 -20 -7 -20 -15 0 -8 -11 -22 -25 -31 -24 -16 -25 -19 -18
-88 3 -39 11 -74 17 -78 7 -5 4 -8 -6 -8 -10 0 -18 -5 -18 -12 0 -6 3 -8 7 -5
3 4 12 2 20 -4 10 -9 13 -8 13 1 0 9 7 8 24 -4 19 -12 31 -13 55 -5 20 7 36 7
49 0 11 -6 22 -8 25 -4 4 3 21 -5 39 -18 28 -21 43 -24 96 -23 35 1 66 5 69 8
3 3 14 1 23 -4 13 -7 22 -5 30 6 11 13 15 12 31 -5 11 -11 19 -26 19 -34 0 -8
9 -22 21 -33 21 -19 21 -18 40 4 13 17 24 22 40 17 19 -6 21 -4 16 14 -3 11
-1 23 4 26 14 9 22 -41 10 -63 -19 -35 -14 -72 10 -72 14 0 19 5 17 18 -2 11
3 27 11 36 12 15 12 22 -2 52 -10 19 -27 38 -39 43 -20 7 -20 8 -3 15 11 4 22
2 26 -6 4 -7 11 -10 14 -6 9 9 8 94 0 109 -5 8 -1 9 14 4 13 -4 28 -1 36 5 8
7 27 10 42 7 20 -4 31 1 46 19 23 30 29 30 45 -3 16 -37 15 -43 -8 -43 -23 0
-25 -8 -7 -31 16 -21 45 -31 53 -18 3 6 12 8 20 5 7 -3 16 -1 19 5 9 14 25 1
19 -16 -4 -10 3 -18 20 -25 14 -5 26 -13 27 -17 7 -49 4 -83 -6 -83 -18 0 -24
-44 -8 -59 14 -13 37 -6 28 10 -9 14 17 10 38 -5 9 -7 17 -18 17 -25 0 -11
-57 -66 -69 -66 -4 0 -15 -8 -25 -17 -10 -10 -22 -18 -27 -18 -6 0 -9 -8 -7
-17 3 -21 -9 -43 -23 -43 -5 0 -9 6 -9 14 0 8 -16 20 -35 26 -19 6 -35 16 -35
21 0 6 -5 7 -10 4 -6 -4 -17 -1 -25 5 -8 6 -19 9 -25 5 -5 -3 -23 7 -39 23
-18 18 -34 26 -43 22 -22 -13 -77 0 -71 16 3 9 -2 14 -17 14 -11 0 -18 5 -15
10 3 6 -3 10 -15 10 -17 0 -21 -6 -20 -27 4 -51 2 -57 -15 -43 -12 10 -16 9
-21 -3 -3 -9 -3 -21 1 -27 3 -5 0 -10 -8 -10 -10 0 -13 -7 -10 -20 3 -13 0
-20 -8 -20 -8 -1 -3 -7 11 -15 16 -8 29 -10 36 -4 16 13 44 0 45 -22 1 -10 2
-23 3 -27 1 -11 36 -45 36 -36 0 5 5 3 11 -3 8 -8 8 -17 0 -31 -15 -28 6 -77
25 -61 7 6 15 6 18 1 8 -14 -34 -23 -55 -11 -10 5 -29 9 -44 9 -14 0 -36 10
-48 23 -31 33 -112 73 -104 52 7 -17 -8 -21 -18 -5 -11 18 -22 11 -28 -19 -4
-20 -12 -28 -24 -27 -10 0 -18 -5 -18 -12 0 -8 -8 -19 -17 -26 -12 -9 -14 -16
-7 -23 7 -7 8 -17 1 -28 -6 -12 -11 -14 -16 -6 -10 15 -56 14 -56 -2 0 -7 5
-18 12 -25 9 -9 7 -12 -10 -12 -20 0 -27 -14 -23 -42 0 -4 -10 -15 -22 -25
-19 -15 -22 -25 -19 -65 3 -36 0 -49 -11 -54 -9 -3 -13 -13 -10 -25 3 -11 -1
-21 -11 -25 -9 -3 -16 -12 -16 -20 0 -8 -5 -14 -11 -14 -24 0 -56 -35 -49 -54
4 -13 -2 -28 -17 -45 -20 -21 -27 -23 -43 -14 -14 10 -21 9 -30 -2 -7 -8 -29
-15 -49 -15 -24 0 -32 -3 -22 -9 11 -7 10 -11 -5 -19 -23 -12 -89 11 -79 28 3
5 -2 10 -13 10 -15 0 -19 -7 -18 -33 2 -41 51 -106 104 -139 41 -25 63 -49 55
-61 -2 -4 0 -14 7 -22 6 -7 10 -19 9 -27 -4 -34 2 -50 17 -44 8 3 24 -3 36
-14 17 -16 19 -22 8 -35 -10 -13 -9 -15 8 -15 15 0 20 5 16 15 -4 8 -1 15 5
15 6 0 11 -4 11 -8 0 -5 12 -14 26 -20 14 -7 23 -8 19 -2 -4 6 8 10 29 10 27
0 40 6 52 25 13 20 20 23 30 14 8 -6 12 -15 9 -19 -3 -4 2 -10 10 -14 9 -3 15
0 15 10 0 8 5 12 10 9 6 -4 9 -1 8 6 -2 7 14 22 35 33 21 12 40 31 43 44 4 15
14 22 30 22 13 0 24 5 24 10 0 12 67 14 74 2 7 -12 76 -2 76 11 0 5 9 2 19 -8
12 -10 38 -18 64 -19 28 -1 54 -10 72 -24 15 -12 33 -22 38 -22 6 0 28 -17 50
-37 30 -30 50 -40 98 -49 48 -9 61 -8 71 3 6 8 21 12 31 9 12 -3 31 3 45 15
14 10 30 19 37 19 7 0 18 7 25 15 10 12 15 12 35 -1 28 -19 63 -11 86 18 l16
21 42 -23 c22 -13 41 -27 41 -32 0 -4 9 -8 19 -8 35 0 51 -12 51 -36 0 -27 13
-31 32 -10 10 11 21 8 61 -20 53 -37 72 -42 64 -20 -3 8 1 20 9 27 29 24 -11
130 -56 144 -22 7 -55 59 -62 98 -5 23 -2 27 13 22 22 -7 48 14 41 33 -2 6 1
12 6 12 11 0 10 39 -1 57 -4 6 -2 13 5 15 20 7 0 54 -41 94 -32 33 -38 46 -38
79 l1 40 -42 -1 c-38 -1 -43 1 -49 25 -4 14 -7 46 -7 70 1 39 -2 45 -33 63
-32 20 -37 30 -33 76 1 12 -3 22 -8 22 -12 0 -42 -45 -42 -64 0 -7 -7 -17 -16
-20 -16 -6 -16 -28 1 -26 10 1 24 -66 17 -86 -2 -6 -18 -10 -37 -8 -32 2 -35
0 -41 -34 -4 -21 -9 -31 -11 -24 -3 6 -11 12 -18 12 -7 0 -16 15 -19 34 -6 31
-10 34 -54 41 -26 4 -49 7 -52 7 -3 0 -13 7 -23 16 -11 10 -37 16 -70 16 -41
1 -52 5 -55 19 -2 9 -7 17 -12 17 -12 0 -20 28 -13 46 3 8 11 13 19 10 9 -3
11 3 8 20 -2 13 0 24 6 24 6 0 8 10 4 25 -4 16 -2 25 6 25 6 0 18 6 25 14 12
12 12 16 0 26 -23 19 -18 30 15 30 35 0 35 1 14 41 -15 29 -14 31 10 56 14 14
26 29 26 34 0 5 6 6 14 3 9 -3 16 4 20 21 4 15 12 25 18 23 7 -3 30 13 51 34
22 21 46 38 53 38 8 0 14 4 14 9 0 6 20 13 45 16 42 7 45 9 51 44 9 54 23 87
50 112 16 15 24 33 24 56 0 38 22 45 42 13 7 -11 18 -20 25 -20 6 0 13 -12 15
-27 2 -20 9 -28 23 -28 11 0 19 6 18 13 -4 19 12 14 41 -13 14 -13 42 -27 61
-31 19 -3 46 -15 59 -25 13 -11 29 -19 35 -19 6 0 11 -4 11 -9 0 -4 11 -6 25
-3 15 2 33 -2 43 -11 18 -15 48 -17 70 -3 7 4 19 3 26 -3 7 -6 21 -9 30 -5 11
4 16 0 16 -14 0 -12 5 -24 10 -27 7 -4 8 3 4 21 -5 20 -2 30 11 40 15 11 16
16 5 29 -7 8 -8 15 -2 15 5 0 16 -7 23 -16 22 -27 52 -34 72 -16 15 14 19 13
36 -2 11 -10 21 -28 23 -39 2 -17 13 -23 45 -29 45 -7 84 -24 95 -42 4 -6 9
-4 14 7 8 23 34 4 34 -27 1 -13 18 -35 45 -56 36 -28 45 -41 45 -66 0 -20 9
-39 25 -54 14 -13 25 -28 25 -34 0 -17 71 -76 99 -82 47 -10 81 -26 81 -38 0
-6 24 -35 54 -64 43 -42 60 -52 87 -52 34 0 77 -22 92 -47 10 -16 31 -17 57
-1 16 10 26 9 57 -9 21 -11 59 -26 85 -34 36 -10 47 -18 52 -38 3 -14 17 -34
31 -44 23 -16 27 -16 55 -2 27 14 33 14 63 -1 17 -9 39 -22 47 -30 9 -7 41
-16 72 -20 53 -6 58 -5 83 22 23 25 27 26 41 12 12 -11 25 -13 56 -8 23 5 47
6 54 3 6 -2 14 3 17 11 4 9 14 12 26 9 15 -4 23 1 30 18 4 13 6 30 3 38 -4 10
2 12 27 6 26 -6 32 -3 39 16 8 21 14 22 75 20 65 -2 67 -2 67 22 0 35 10 57
25 57 16 0 27 42 18 67 -3 10 -17 29 -30 42 -24 25 -30 41 -14 41 5 0 12 16
15 35 5 27 2 39 -14 55 -24 24 -26 50 -5 50 8 0 15 4 15 9 0 19 -42 81 -51 75
-5 -3 -9 3 -9 12 0 16 1 16 19 -1 18 -15 24 -16 50 -4 17 8 31 21 31 31 0 9 9
20 21 23 12 4 18 12 15 21 -3 8 -9 21 -12 29 -3 8 -2 15 4 15 6 0 24 14 41 31
22 22 37 29 51 24 11 -4 20 -2 20 4 0 6 0 14 0 19 0 4 -6 7 -12 7 -7 0 -14 10
-16 23 -3 16 2 22 15 22 22 0 47 68 32 86 -5 6 -9 25 -7 41 4 51 -27 70 -62
38 -15 -14 -22 -13 -64 2 -29 11 -45 22 -42 30 3 7 -1 13 -9 13 -8 0 -15 4
-15 9 0 15 54 7 67 -9 20 -24 16 6 -4 37 -10 15 -13 24 -7 20 7 -4 16 9 24 33
9 27 19 40 32 40 12 0 18 7 18 23 0 12 7 32 15 43 8 12 13 33 12 47 -1 14 3
26 8 26 6 0 13 10 17 23 5 14 6 6 3 -19 -3 -24 -1 -43 4 -43 14 0 33 28 26 40
-3 5 -1 10 4 10 6 0 11 -4 11 -10 0 -24 72 -42 125 -30 21 5 35 -1 35 -14 0
-7 14 -16 30 -19 17 -4 30 -12 30 -19 0 -7 11 -18 25 -25 20 -9 25 -8 25 3 0
8 15 31 34 51 45 51 59 80 52 109 -5 17 -2 24 9 24 14 0 19 16 16 52 -1 9 7
19 19 23 11 3 20 10 20 15 0 5 20 12 44 15 37 6 47 12 56 36 7 16 19 29 27 29
23 0 73 59 73 86 0 27 34 40 76 30 28 -7 64 16 64 41 0 8 12 13 30 13 17 0 30
5 30 10 0 6 11 10 25 10 15 0 25 6 25 15 0 16 60 105 71 105 4 0 11 -4 14 -10
11 -18 23 -10 34 22 10 29 9 34 -10 49 l-22 17 24 12 c13 7 36 24 51 38 24 22
26 27 13 45 -8 11 -11 32 -8 51 4 23 0 36 -15 50 -12 10 -18 24 -15 32 3 8 -5
18 -22 24 -35 13 -35 14 -35 -14 0 -28 -17 -37 -42 -24 -11 5 -18 20 -18 38 0
17 -4 30 -9 30 -5 0 -17 3 -26 6 -12 5 -16 2 -14 -12 2 -10 0 -24 -4 -31 -4
-6 -3 -22 2 -36 5 -14 7 -28 3 -32 -4 -3 -8 -29 -9 -56 -2 -66 -31 -115 -65
-111 -18 2 -28 -4 -36 -23 -7 -14 -20 -25 -31 -25 -11 0 -23 -5 -27 -11 -3 -6
-16 -8 -27 -5 -14 3 -32 -5 -54 -25 -19 -16 -38 -27 -44 -24 -5 4 -9 1 -9 -4
0 -6 -3 -10 -7 -10 -5 1 -20 1 -35 0 -23 -1 -28 -6 -28 -26 0 -16 -6 -25 -15
-25 -9 0 -18 -7 -21 -15 -4 -8 -16 -15 -29 -15 -18 0 -24 -7 -29 -37 -15 -94
-23 -118 -35 -115 -8 2 -11 -3 -8 -12 6 -16 -26 -32 -43 -21 -6 3 -13 -1 -16
-10 -4 -9 -12 -14 -19 -11 -7 2 -15 -3 -18 -13 -5 -22 -58 -34 -90 -22 -13 5
-30 5 -39 0 -11 -6 -22 -4 -33 7 -15 15 -18 15 -45 -11 -25 -24 -30 -26 -36
-12 -3 10 -10 17 -15 17 -12 0 -11 -37 1 -59 7 -14 4 -21 -16 -32 -22 -11 -27
-11 -35 1 -5 8 -7 20 -4 27 2 6 0 26 -5 42 -5 18 -5 33 1 36 5 4 9 19 9 36 0
23 4 29 23 29 12 0 36 -9 52 -20 35 -23 61 -26 68 -7 8 21 0 107 -12 120 -6 8
-6 18 -1 27 10 16 -7 43 -20 35 -5 -3 -11 -1 -15 5 -12 19 -33 11 -28 -11 5
-18 3 -20 -17 -14 -19 6 -21 4 -15 -14 9 -31 -2 -26 -20 9 -19 37 -19 40 4 40
11 0 23 5 26 11 12 19 -3 21 -36 5 -43 -22 -70 -20 -76 4 -5 18 -7 18 -26 5
-12 -8 -41 -15 -65 -15 -27 0 -60 -9 -83 -22 -37 -21 -39 -21 -84 -3 -28 10
-58 15 -76 11 -22 -4 -32 -1 -41 13 -7 11 -18 17 -27 13 -14 -5 -14 -3 -3 10
10 13 11 22 3 37 -18 33 -12 41 18 24 24 -14 33 -15 52 -5 13 7 16 10 7 8 -11
-3 -18 0 -18 9 0 9 6 12 15 9 19 -8 19 10 0 26 -11 9 -12 16 -3 30 9 14 8 21
-5 35 -24 23 -21 32 13 38 28 6 29 7 15 34 -23 44 -19 58 38 117 42 45 55 53
70 45 25 -15 37 -3 37 37 0 21 4 33 10 29 6 -4 10 9 10 32 0 27 -6 42 -20 51
-11 7 -20 17 -20 23 0 7 6 7 17 -2 13 -11 17 -11 21 -1 2 7 17 37 33 67 16 30
29 63 29 74 0 10 19 39 43 63 59 61 75 93 58 119 -11 19 -10 20 8 14 10 -3 22
-1 26 5 4 6 15 5 33 -4 25 -13 30 -12 51 4 16 11 22 23 18 34 -7 17 3 21 19 7
15 -14 54 6 54 28 0 30 21 37 41 13 9 -12 26 -22 37 -22 11 0 23 -7 26 -16 3
-8 10 -13 15 -10 8 5 67 -20 81 -34 3 -3 20 -13 38 -22 46 -24 72 -23 72 3 0
11 5 17 10 14 6 -3 10 -2 10 4 0 5 -5 13 -11 17 -16 9 -1 93 23 126 10 15 17
32 14 37 -6 9 22 26 37 23 4 -1 12 9 17 23 6 15 17 25 30 25 17 0 18 3 10 26
-7 16 -7 23 0 19 6 -3 10 0 10 8 0 10 7 13 20 10 11 -3 20 -14 20 -25 0 -10 4
-16 10 -13 5 3 25 2 44 -4 31 -8 38 -6 61 14 14 13 25 30 25 38 0 7 7 22 15
33 8 10 15 27 15 37 0 10 6 20 13 22 7 3 13 27 14 61 2 48 -1 57 -18 61 -10 3
-19 6 -19 7 -1 0 -3 26 -6 56 -2 30 -7 68 -9 84 -3 16 0 35 6 42 8 10 9 18 0
27 -8 11 -5 16 14 25 18 9 25 19 25 41 0 23 5 30 23 33 17 2 23 11 25 36 2 18
-2 40 -9 48 -15 18 -8 18 36 -3 21 -10 38 -27 41 -40 4 -13 10 -23 15 -23 12
0 11 17 -1 25 -17 11 -11 20 21 32 28 11 31 16 26 40 -7 34 31 77 57 67 13 -5
15 -2 7 17 -6 17 -19 26 -44 30 -20 3 -42 11 -50 17 -9 8 -24 9 -47 2 -36 -10
-50 -6 -50 16 0 8 -7 14 -16 14 -9 0 -18 9 -21 21 -4 12 -11 18 -20 15 -16 -7
-93 30 -93 44 0 5 -12 15 -27 22 -16 8 -28 22 -29 33 -1 11 -6 33 -13 48 -6
16 -11 37 -11 47 0 10 -12 28 -27 40 l-28 22 -10 -26 c-5 -15 -19 -29 -31 -32
-14 -4 -21 -11 -17 -19 3 -9 -5 -16 -24 -20 -15 -4 -32 -8 -38 -10 -5 -1 -21
7 -35 19 -21 18 -22 18 -10 2 14 -18 13 -19 -2 -13 -15 5 -18 1 -18 -26 0 -18
-5 -38 -12 -45 -8 -8 -8 -15 3 -28 11 -14 11 -18 -4 -29 -9 -7 -17 -17 -17
-24 0 -6 -4 -11 -10 -11 -5 0 -10 5 -10 10 0 22 -59 9 -90 -20 -26 -24 -39
-30 -60 -25 -26 6 -29 3 -43 -39 -20 -59 -49 -90 -75 -82 -17 6 -21 1 -27 -24
-4 -17 -12 -33 -18 -36 -7 -2 -13 -28 -14 -57 -2 -38 -8 -56 -23 -69 -25 -21
-25 -26 3 -48 26 -20 53 -91 43 -109 -4 -6 -20 -11 -36 -11 -30 0 -42 -16 -46
-65 -6 -59 -7 -65 -20 -65 -6 0 -15 -7 -18 -16 -5 -12 -15 -15 -39 -11 -31 5
-33 4 -29 -22 3 -26 2 -27 -31 -23 -29 3 -35 0 -40 -19 -6 -21 -7 -21 -31 -6
-24 16 -26 16 -36 -3 -11 -21 -40 -20 -88 3 -17 8 -28 8 -41 0 -10 -6 -34 -10
-52 -7 -19 2 -58 7 -86 10 -29 4 -58 13 -64 20 -15 18 -29 18 -29 -1 0 -9 -10
-20 -22 -25 -13 -5 -17 -9 -10 -9 6 -1 12 -5 12 -9 0 -4 -19 -9 -42 -9 -26 -1
-45 -8 -50 -18 -7 -12 -13 -13 -29 -4 -12 6 -18 13 -15 16 11 12 -16 44 -49
57 -38 16 -50 16 -83 -3 -13 -7 -32 -9 -45 -5 -12 4 -30 8 -40 9 -19 1 -97 71
-97 86 0 5 -21 24 -47 43 -46 33 -48 37 -48 83 0 34 -4 48 -14 48 -8 0 -17 7
-20 17 -9 25 -70 88 -85 88 -8 0 -16 3 -19 8 -2 4 -2 2 -1 -5 4 -16 -27 -26
-40 -13 -7 7 -6 10 3 10 7 0 10 7 6 19 -3 10 1 23 9 30 11 9 13 19 5 37 -15
42 -11 61 16 68 22 6 24 9 15 27 -6 11 -10 28 -8 38 2 11 -6 28 -16 40 -11 12
-16 21 -12 21 4 0 -2 12 -13 26 -12 15 -21 33 -21 40 0 19 52 44 71 34 10 -6
25 -2 45 10 54 36 30 110 -26 80 -18 -10 -21 -9 -18 7 2 14 -3 17 -20 15 -13
-1 -30 5 -38 13 -20 19 -44 19 -58 0 -10 -14 -15 -14 -51 0 -36 16 -40 16 -51
0 -12 -16 -15 -16 -44 8 -16 14 -46 31 -64 38 -33 12 -35 15 -31 52 3 33 -1
44 -24 66 -15 14 -36 41 -46 59 -21 35 -45 47 -86 43 -15 -1 -33 5 -42 13 -18
18 -43 21 -52 6 -4 -6 -23 -7 -46 -4 -25 4 -44 2 -54 -6 -12 -10 -18 -10 -31
1 -9 8 -22 14 -28 14 -6 1 -19 5 -29 9 -10 5 -23 3 -33 -5 -10 -8 -18 -9 -22
-2 -9 13 -72 25 -72 14 0 -5 -9 -7 -21 -4 -15 4 -22 0 -26 -16 -3 -13 -18 -24
-42 -31 -56 -15 -66 -13 -84 25 -19 39 -21 49 -9 42 4 -3 8 8 9 24 2 23 -4 32
-28 45 -17 8 -37 13 -45 10 -12 -5 -20 17 -15 47 1 7 -18 10 -49 8 -18 -1 -50
44 -89 127 -17 34 -35 62 -41 62 -17 0 -25 -5 -22 -12 5 -16 -10 -7 -33 20
-25 28 -33 48 -14 36 7 -4 9 0 6 12 -4 11 -9 33 -13 49 -6 28 -66 95 -85 95
-5 0 -9 5 -9 10 0 6 5 10 11 10 8 0 8 5 -1 15 -7 8 -16 12 -21 9 -5 -3 -9 3
-9 12 0 21 -39 104 -48 103 -19 -3 -65 3 -56 7 6 3 9 16 6 29 -2 14 0 25 7 25
7 0 4 13 -6 35 -11 24 -19 31 -24 23 -7 -10 -11 -10 -21 0 -14 14 -28 16 -28
3z m51 -136 c1 -17 -18 -17 -25 0 -4 11 -1 15 10 13 8 -2 15 -7 15 -13z m19
-70 c10 -12 10 -15 -4 -15 -9 0 -16 7 -16 15 0 8 2 15 4 15 2 0 9 -7 16 -15z
m-250 -5 c0 -5 -2 -10 -4 -10 -3 0 -8 5 -11 10 -3 6 -1 10 4 10 6 0 11 -4 11
-10z m240 -180 c0 -5 -4 -10 -10 -10 -5 0 -10 5 -10 10 0 6 5 10 10 10 6 0 10
-4 10 -10z m-566 -111 c-7 -11 -34 -12 -34 -1 0 14 11 21 26 15 8 -3 11 -9 8
-14z m-94 -232 c0 -5 -4 -5 -10 -2 -5 3 -10 14 -10 23 0 15 2 15 10 2 5 -8 10
-19 10 -23z m57 -1547 c-3 -13 0 -20 10 -20 8 0 11 -5 8 -10 -6 -9 -42 -5 -54
6 -5 4 29 44 37 44 2 0 2 -9 -1 -20z m-167 -111 c0 -11 -4 -17 -10 -14 -5 3
-10 15 -10 26 0 11 5 17 10 14 6 -3 10 -15 10 -26z m714 -284 c-4 -8 -8 -15
-10 -15 -2 0 -4 7 -4 15 0 8 4 15 10 15 5 0 7 -7 4 -15z m-874 -27 c0 -13 -7
-31 -14 -41 -12 -15 -13 -13 -12 23 0 25 5 40 13 40 7 0 13 -10 13 -22z m3920
-1080 c0 -5 -4 -8 -10 -8 -5 0 -10 10 -10 23 0 18 2 19 10 7 5 -8 10 -18 10
-22z m-3370 -168 c22 -17 23 -19 7 -25 -19 -8 -54 2 -44 12 4 3 2 12 -4 20
-18 21 11 16 41 -7z m756 -92 c16 -18 35 -44 42 -57 13 -23 13 -23 -17 -19
-25 4 -31 1 -31 -14 0 -10 -7 -18 -16 -18 -8 0 -12 -4 -9 -10 3 -5 1 -10 -4
-10 -6 0 -11 5 -11 10 0 18 -2 25 -11 42 -12 22 0 108 15 108 7 0 25 -15 42
-32z m-782 -463 c-6 -16 -24 -21 -24 -7 0 11 11 22 21 22 5 0 6 -7 3 -15z"/>
<path d="M9870 12682 c0 -6 7 -18 16 -27 11 -11 13 -19 6 -28 -16 -19 4 -54
37 -65 27 -10 30 -8 33 11 4 21 5 21 18 -5 13 -28 34 -36 44 -19 12 19 -34
106 -62 118 -43 18 -92 26 -92 15z m94 -41 c13 -14 14 -20 4 -23 -21 -8 -38 2
-38 23 0 24 12 24 34 0z"/>
<path d="M13500 11353 c1 -14 30 -47 36 -41 8 8 -14 48 -26 48 -6 0 -10 -3
-10 -7z"/>
<path d="M13530 11229 c0 -5 5 -7 10 -4 6 3 10 8 10 11 0 2 -4 4 -10 4 -5 0
-10 -5 -10 -11z"/>
<path d="M11165 11189 c4 -5 21 -16 38 -25 30 -14 31 -14 12 1 -11 9 -19 20
-18 24 1 4 -7 8 -18 8 -11 1 -17 -2 -14 -8z"/>
<path d="M8660 10561 c0 -5 5 -13 10 -16 6 -3 10 -2 10 4 0 5 -4 13 -10 16 -5
3 -10 2 -10 -4z"/>
<path d="M8710 10550 c0 -5 5 -10 11 -10 5 0 7 5 4 10 -3 6 -8 10 -11 10 -2 0
-4 -4 -4 -10z"/>
<path d="M13718 9819 c-2 -20 -8 -24 -35 -23 -25 2 -33 -2 -33 -15 0 -10 -13
-27 -30 -39 -16 -13 -30 -30 -30 -40 1 -16 1 -16 11 0 5 10 16 15 24 12 8 -4
15 -1 15 6 0 6 5 8 12 4 16 -10 80 -5 92 6 5 6 4 15 -4 25 -8 10 -9 19 -3 28
6 8 5 20 -3 36 l-12 24 -4 -24z"/>
<path d="M12440 8889 c0 -5 5 -7 10 -4 6 3 10 8 10 11 0 2 -4 4 -10 4 -5 0
-10 -5 -10 -11z"/>
<path d="M12416 8831 c-3 -5 1 -11 9 -15 9 -3 15 0 15 9 0 16 -16 20 -24 6z"/>
<path d="M12415 8770 c-16 -18 -17 -22 -4 -35 12 -12 18 -13 31 -3 14 11 15
17 4 36 l-12 23 -19 -21z"/>
<path d="M12350 8720 c0 -5 5 -10 10 -10 6 0 10 5 10 10 0 6 -4 10 -10 10 -5
0 -10 -4 -10 -10z"/>
<path d="M12430 8701 c0 -6 4 -13 10 -16 6 -3 7 1 4 9 -7 18 -14 21 -14 7z"/>
<path d="M9235 8540 c3 -5 8 -10 11 -10 2 0 4 5 4 10 0 6 -5 10 -11 10 -5 0
-7 -4 -4 -10z"/>
<path d="M9333 8533 c-18 -7 -16 -33 2 -33 8 0 15 9 15 20 0 11 -1 20 -2 19
-2 0 -9 -3 -15 -6z"/>
<path d="M9278 8523 c6 -2 18 -2 25 0 6 3 1 5 -13 5 -14 0 -19 -2 -12 -5z"/>
<path d="M9426 8367 c3 -10 9 -15 12 -12 3 3 0 11 -7 18 -10 9 -11 8 -5 -6z"/>
<path d="M9025 8170 c-3 -5 -15 -10 -26 -10 -20 0 -23 -8 -13 -34 3 -9 10 -13
15 -10 5 3 9 -1 9 -8 0 -7 6 -2 13 12 18 34 19 78 2 50z"/>
<path d="M8970 8101 c6 -12 17 -21 25 -21 21 0 19 5 -11 25 -25 16 -25 16 -14
-4z"/>
<path d="M8801 8074 c0 -11 3 -14 6 -6 3 7 2 16 -1 19 -3 4 -6 -2 -5 -13z"/>
<path d="M8457 7142 c-14 -16 -15 -21 -4 -30 20 -17 39 1 29 27 -8 22 -8 22
-25 3z"/>
<path d="M8280 7126 c0 -8 4 -17 9 -20 5 -3 7 -23 4 -45 -4 -30 -1 -42 15 -57
11 -10 27 -44 35 -74 8 -30 16 -49 16 -42 1 9 10 7 31 -8 17 -12 30 -17 30
-11 0 6 7 11 15 11 21 0 19 11 -9 49 -24 32 -25 61 -2 61 6 0 17 9 24 20 7 11
19 20 27 20 8 0 15 6 15 13 0 13 -40 43 -52 39 -5 -1 -8 2 -8 8 0 21 -41 32
-72 19 -28 -11 -33 -11 -49 9 -20 26 -29 28 -29 8z"/>
<path d="M10210 7120 c0 -6 -10 -8 -24 -4 -14 3 -40 -3 -67 -15 -23 -12 -51
-21 -61 -21 -10 0 -18 -7 -18 -15 0 -8 -4 -15 -10 -15 -5 0 -10 -9 -10 -20 0
-13 -10 -24 -25 -30 -14 -5 -25 -16 -25 -25 0 -17 16 -20 25 -5 3 6 17 10 30
10 23 0 24 -3 18 -45 -4 -36 -2 -45 10 -45 8 0 17 5 19 11 2 6 22 12 44 13 22
2 50 8 62 15 29 16 35 14 29 -9 -9 -35 35 -60 107 -58 33 0 69 5 79 10 14 7
17 4 17 -17 0 -14 4 -25 10 -25 5 0 12 -11 16 -25 3 -14 12 -25 20 -25 8 0 14
-4 14 -10 0 -5 5 -10 11 -10 16 0 89 -63 89 -77 0 -7 7 -10 15 -7 10 4 15 0
15 -11 0 -17 1 -17 20 0 14 13 23 15 32 7 7 -6 24 -10 38 -10 35 0 55 -6 74
-21 11 -9 16 -10 16 -2 0 6 9 11 20 11 11 0 20 4 20 10 0 5 -17 8 -37 7 -28
-1 -38 2 -38 13 -1 27 -14 37 -40 32 -20 -3 -25 0 -25 17 0 12 6 21 15 21 19
0 19 10 1 35 -7 11 -17 30 -21 43 -7 25 -12 26 56 -9 21 -11 42 4 88 64 17 22
-1 47 -34 47 -18 0 -29 12 -49 52 -14 29 -26 48 -26 43 0 -5 -6 0 -14 10 -13
17 -14 17 -23 0 -10 -17 -12 -17 -49 1 -21 10 -52 28 -67 41 -22 18 -33 21
-48 13 -14 -8 -27 -6 -50 5 -28 15 -32 15 -50 0 -21 -20 -69 -13 -69 9 0 7 -7
13 -15 13 -8 0 -15 -5 -15 -10 0 -6 -8 -2 -19 7 -17 16 -19 16 -25 0 -6 -15
-8 -15 -31 0 -14 9 -25 12 -25 6z"/>
<path d="M8508 7108 c9 -9 15 -9 24 0 9 9 7 12 -12 12 -19 0 -21 -3 -12 -12z"/>
<path d="M8485 7089 c-4 -6 -4 -13 -1 -16 3 -4 6 -1 6 6 0 7 5 9 12 5 7 -4 8
-3 4 4 -9 15 -13 15 -21 1z"/>
<path d="M10683 7078 c2 -7 10 -13 17 -13 7 0 15 6 18 13 2 7 -5 12 -18 12
-13 0 -20 -5 -17 -12z"/>
<path d="M9846 6971 c-7 -11 32 -51 50 -51 7 0 15 -6 17 -12 4 -10 6 -10 6 0
1 7 5 11 10 8 4 -3 13 5 19 18 13 29 -4 40 -44 30 -13 -3 -31 -1 -38 5 -9 8
-16 8 -20 2z"/>
<path d="M8247 6911 c-14 -5 -10 -9 18 -20 20 -7 39 -10 42 -7 4 3 1 6 -5 6
-6 0 -17 6 -24 13 -7 8 -21 11 -31 8z"/>
<path d="M10746 6607 c3 -10 9 -15 12 -12 3 3 0 11 -7 18 -10 9 -11 8 -5 -6z"/>
</g>
</svg>
