<?xml version="1.0" standalone="no"?>
<!DOCTYPE svg PUBLIC "-//W3C//DTD SVG 20010904//EN"
 "http://www.w3.org/TR/2001/REC-SVG-20010904/DTD/svg10.dtd">
<svg version="1.0" xmlns="http://www.w3.org/2000/svg"
 width="786.790979pt" height="347.794702pt" viewBox="0 0 786.790979 347.794702"
 preserveAspectRatio="xMidYMid meet">
<metadata>
Created by potrace 1.15, written by Peter Selinger 2001-2017
</metadata>
<g transform="translate(-611.968534,1153.436117) scale(0.100000,-0.100000)"
fill="#222222" stroke="none">
<path d="M13074 11522 c1 -19 20 -42 34 -42 16 0 1 40 -18 50 -14 7 -17 6 -16
-8z"/>
<path d="M13047 11440 c3 -11 7 -20 9 -20 2 0 8 9 14 20 9 17 8 20 -9 20 -14
0 -18 -5 -14 -20z"/>
<path d="M12970 11411 c0 -17 -4 -21 -15 -17 -9 3 -18 -1 -21 -9 -4 -8 -15
-15 -26 -15 -15 0 -18 -5 -13 -21 9 -29 -21 -60 -50 -53 -13 3 -26 1 -29 -5
-13 -20 -38 -13 -31 9 5 17 2 20 -25 20 -18 0 -44 8 -58 18 -41 28 -62 34 -62
16 0 -8 -11 -19 -25 -24 -14 -5 -25 -16 -25 -24 0 -19 -44 -46 -72 -45 -13 1
-32 -2 -42 -6 -14 -6 -17 -5 -12 3 4 8 0 12 -11 12 -11 0 -28 7 -39 15 -26 20
-28 19 -68 -16 -24 -20 -42 -29 -54 -25 -13 5 -22 -1 -30 -19 -8 -17 -20 -25
-36 -25 -13 0 -27 -7 -30 -16 -4 -10 -12 -14 -22 -10 -12 4 -14 1 -9 -14 5
-16 2 -20 -15 -20 -11 0 -23 -7 -26 -15 -4 -8 -12 -15 -19 -15 -7 0 -15 -7
-19 -15 -3 -8 -12 -15 -21 -15 -8 0 -15 -9 -15 -20 0 -10 -9 -24 -20 -30 -12
-6 -20 -21 -20 -35 0 -28 -3 -29 -30 -15 -15 8 -17 6 -13 -10 3 -11 0 -27 -7
-35 -6 -8 -9 -19 -5 -25 9 -14 -13 -67 -30 -74 -7 -2 -23 6 -36 20 -12 13 -27
24 -34 24 -6 0 -18 9 -28 20 -10 12 -23 17 -33 13 -10 -4 -22 0 -28 8 -16 23
-50 33 -42 14 3 -8 1 -15 -5 -15 -5 0 -7 -11 -3 -24 9 -36 -7 -56 -19 -25 -6
13 -9 28 -8 32 1 5 -3 6 -9 2 -6 -3 -8 -11 -5 -16 4 -5 -1 -12 -9 -15 -9 -4
-16 -18 -16 -34 0 -22 -7 -32 -32 -44 -17 -9 -38 -16 -46 -16 -10 0 -12 -4 -5
-12 17 -22 4 -96 -18 -103 -26 -8 -42 -42 -35 -71 4 -13 7 -27 8 -31 0 -5 9
-14 19 -21 11 -7 19 -20 19 -28 0 -8 5 -14 11 -14 8 0 8 -4 0 -14 -9 -11 -9
-20 -2 -35 12 -21 5 -51 -12 -51 -6 0 -18 -7 -28 -16 -14 -12 -22 -13 -38 -4
-12 6 -31 10 -44 8 -57 -6 -138 15 -168 43 -17 16 -42 29 -54 29 -13 0 -39 9
-58 20 -19 11 -41 18 -49 15 -8 -3 -20 0 -26 8 -7 8 -23 12 -36 10 -17 -4 -27
1 -35 16 -7 12 -19 21 -29 21 -9 1 -28 10 -41 20 -20 17 -22 26 -17 63 5 35 3
49 -12 67 -19 24 -19 24 -30 3 -14 -25 -53 -34 -107 -24 -30 5 -47 2 -69 -11
-22 -12 -41 -15 -73 -11 -38 5 -48 2 -82 -25 -45 -36 -75 -45 -139 -43 -93 2
-169 -4 -202 -17 -14 -5 -32 -6 -40 -2 -20 11 -101 -10 -116 -29 -13 -17 -68
-10 -116 13 -17 9 -38 16 -46 16 -16 0 -83 56 -81 66 3 10 -34 47 -74 74 -39
26 -74 105 -52 118 22 13 27 49 9 64 -9 7 -27 23 -40 36 -30 26 -36 28 -27 5
5 -12 3 -14 -7 -8 -10 6 -12 3 -8 -12 5 -18 1 -20 -33 -20 -21 0 -44 6 -50 13
-6 8 -18 14 -26 14 -7 0 -27 10 -44 22 -28 21 -31 22 -40 5 -12 -20 -34 -23
-26 -3 8 19 -25 26 -48 10 -15 -11 -22 -11 -46 2 -16 8 -36 26 -45 40 -9 13
-19 22 -21 20 -3 -3 -17 8 -32 23 -16 17 -50 35 -88 46 -44 13 -73 29 -97 54
-78 81 -106 101 -92 65 5 -13 -1 -15 -35 -13 -36 3 -43 0 -50 -19 -5 -12 -15
-22 -24 -22 -8 0 -14 -6 -12 -12 1 -7 -4 -12 -11 -10 -10 2 -10 -2 -2 -18 12
-23 6 -40 -14 -40 -19 0 -27 -39 -13 -60 8 -14 8 -22 -2 -33 -8 -10 -9 -17 -1
-22 5 -3 10 -1 10 5 0 7 6 10 13 7 6 -2 11 -15 10 -28 -1 -16 0 -18 4 -6 3 11
10 16 19 13 8 -3 21 -9 29 -12 11 -4 15 0 15 17 0 13 4 30 9 38 12 19 42 6 34
-15 -5 -14 -8 -66 -4 -101 1 -14 72 -53 96 -53 9 0 22 -14 29 -30 7 -17 15
-27 19 -24 13 13 39 -20 34 -43 -3 -16 2 -27 14 -34 16 -8 17 -14 9 -30 -8
-15 -7 -26 6 -48 16 -28 16 -31 0 -56 -9 -14 -23 -28 -31 -31 -12 -5 -11 -12
3 -40 12 -27 14 -39 5 -53 -6 -10 -13 -35 -14 -57 -2 -31 4 -48 29 -83 18 -24
32 -48 32 -53 0 -11 -17 -10 -25 2 -3 6 -15 5 -31 -2 -18 -9 -27 -9 -36 0 -19
19 -28 14 -28 -14 0 -23 -3 -25 -30 -19 -24 5 -37 1 -67 -24 -21 -17 -43 -31
-50 -31 -17 0 -16 -10 3 -31 15 -16 14 -20 -14 -47 -24 -24 -30 -36 -27 -65 2
-19 8 -44 14 -55 8 -15 8 -21 -1 -24 -8 -3 -8 -10 1 -27 8 -14 10 -37 6 -57
-7 -38 -8 -38 -36 -24 -16 9 -19 7 -19 -15 0 -20 -5 -25 -25 -25 -16 0 -25 -6
-25 -16 0 -9 -13 -21 -30 -27 -17 -6 -30 -20 -32 -32 -2 -14 -9 -19 -25 -17
-13 2 -23 -2 -23 -7 0 -6 -9 -11 -20 -11 -16 0 -19 -5 -15 -22 4 -18 0 -26
-20 -35 -17 -7 -25 -8 -25 -1 0 6 -8 5 -17 -4 -10 -8 -26 -13 -37 -10 -14 3
-17 10 -12 33 4 22 1 31 -14 39 -12 6 -20 7 -20 1 0 -13 -41 -1 -46 13 -3 7
-26 11 -61 9 -31 -1 -62 2 -70 8 -14 12 -34 -3 -46 -33 -3 -10 -13 -18 -21
-18 -8 0 -16 -6 -19 -12 -2 -8 -10 -1 -17 15 -11 22 -20 27 -50 27 -20 0 -41
-5 -46 -10 -7 -7 -20 -7 -40 0 -33 12 -162 8 -183 -4 -7 -5 -20 -2 -29 6 -52
44 -201 106 -222 93 -6 -4 -27 -1 -48 6 -20 7 -60 12 -87 11 -39 -2 -56 2 -73
17 -13 10 -33 26 -45 34 -19 13 -20 18 -9 34 31 45 32 63 12 136 -24 85 -23
77 -5 77 16 0 18 8 18 121 0 85 -4 96 -39 109 -14 6 -24 18 -24 30 0 11 -6 20
-13 20 -8 0 -22 9 -32 20 -17 18 -17 20 -1 20 14 0 15 4 6 20 -6 11 -8 25 -5
30 3 6 -6 21 -22 34 -22 20 -26 27 -15 37 14 15 16 75 2 84 -6 4 -10 -10 -10
-34 0 -31 -4 -41 -16 -41 -8 0 -12 -5 -9 -10 3 -6 -4 -25 -17 -42 -12 -18 -23
-39 -23 -47 0 -8 -6 -16 -12 -18 -16 -6 -17 31 -3 58 8 14 7 19 -2 19 -20 -1
-89 -46 -81 -53 3 -4 2 -7 -3 -7 -6 0 -16 6 -22 12 -9 9 -15 10 -20 2 -4 -6
-15 -13 -24 -17 -12 -4 -18 -17 -18 -35 0 -34 -16 -52 -48 -52 -13 0 -33 -5
-44 -11 -18 -10 -24 -8 -38 8 -9 11 -27 26 -40 33 -27 15 -62 21 -55 10 2 -4
-7 -12 -20 -18 -18 -8 -26 -8 -31 0 -5 7 -3 8 6 3 8 -5 11 -4 6 3 -4 6 -13 9
-21 5 -9 -3 -15 1 -15 10 0 8 -7 20 -15 27 -19 16 -19 30 -1 30 12 0 13 7 5
32 -12 42 -11 51 1 43 6 -3 10 -1 10 4 0 14 -6 14 -29 1 -13 -6 -27 -5 -45 3
-31 14 -41 36 -21 43 15 6 11 47 -7 70 -5 7 -11 23 -13 35 -5 26 -48 69 -68
69 -7 0 -2 -8 11 -18 13 -10 20 -21 16 -25 -4 -4 -13 -2 -20 4 -21 17 -47 3
-36 -18 15 -26 -6 -70 -41 -88 -29 -15 -32 -14 -61 12 -17 16 -34 33 -38 38
-4 6 -8 1 -8 -11 0 -12 -11 -38 -25 -58 -14 -21 -22 -42 -19 -48 4 -6 1 -8 -7
-6 -8 3 -29 -3 -47 -14 -23 -14 -42 -18 -63 -14 -41 8 -39 -18 4 -44 40 -25
52 -25 76 -1 19 19 19 18 29 -3 6 -11 11 -15 11 -8 2 26 30 11 41 -22 8 -24
20 -38 42 -45 21 -7 28 -15 24 -26 -3 -8 -1 -15 4 -15 6 0 10 8 11 18 0 13 3
12 11 -5 11 -24 38 -32 38 -12 0 8 4 8 15 -1 10 -8 12 -18 6 -29 -5 -9 -6 -21
-4 -28 2 -6 -8 -19 -22 -29 -14 -9 -35 -34 -46 -56 -11 -21 -24 -38 -30 -38
-7 0 -9 -22 -6 -60 3 -35 0 -60 -5 -60 -6 0 -8 -7 -4 -15 7 -19 -24 -21 -43
-2 -10 10 -11 8 -5 -8 4 -11 12 -26 17 -33 7 -8 5 -18 -6 -30 -15 -17 -15 -20
9 -45 14 -15 30 -27 36 -27 7 0 7 -4 0 -12 -5 -8 -6 -22 -1 -33 4 -11 8 -15 8
-8 1 17 28 5 36 -14 3 -9 1 -19 -5 -23 -18 -11 1 -40 25 -40 21 0 23 -3 18
-40 -4 -32 -2 -40 10 -40 23 0 30 -30 11 -51 -9 -10 -13 -23 -8 -30 5 -8 2
-11 -7 -7 -9 4 -15 -1 -16 -11 -1 -9 -5 -30 -9 -48 -5 -29 -4 -31 15 -26 12 3
21 1 21 -6 0 -6 16 -33 35 -59 21 -29 34 -60 34 -78 0 -53 13 -104 27 -104 26
0 26 -22 -1 -50 -15 -16 -27 -40 -27 -54 0 -27 -37 -44 -50 -23 -12 20 -20 0
-9 -22 7 -12 7 -22 1 -26 -5 -3 -7 -12 -4 -19 3 -9 -3 -17 -15 -21 -15 -4 -21
-15 -21 -36 0 -19 -6 -32 -17 -36 -10 -3 -25 -12 -33 -19 -8 -7 -30 -14 -49
-16 -27 -2 -38 -10 -53 -35 -15 -28 -15 -33 -3 -33 10 0 15 -11 15 -35 0 -29
-4 -35 -21 -35 -19 0 -20 -4 -14 -52 6 -44 5 -50 -9 -45 -10 4 -16 1 -16 -8 0
-8 4 -15 10 -15 12 0 50 37 44 43 -3 2 9 7 26 11 26 5 30 9 25 26 -10 30 12
62 37 54 17 -5 20 -3 15 10 -8 20 25 22 45 2 23 -22 55 -29 61 -12 5 13 12 12
45 -6 42 -23 70 -74 52 -92 -17 -17 -11 -48 10 -53 11 -3 20 -9 20 -13 0 -5
25 -6 55 -3 59 6 86 -6 82 -35 -4 -31 18 -27 28 5 14 42 20 47 42 35 34 -19
58 22 27 45 -19 14 -49 3 -71 -26 -11 -14 -13 -12 -14 14 -1 17 -2 37 -1 47 1
9 -5 19 -13 22 -8 3 -15 0 -15 -7 0 -8 -4 -6 -10 3 -17 26 -11 30 43 30 29 0
58 5 64 11 8 8 17 8 33 -1 17 -9 29 -7 63 10 31 17 51 20 83 15 26 -3 45 -2
49 5 4 7 12 7 25 0 25 -13 30 -13 30 5 0 21 8 19 47 -15 32 -28 35 -29 61 -16
15 8 46 17 67 21 85 13 87 14 79 37 -5 18 -3 20 12 13 43 -17 54 -17 54 -1 0
9 7 19 15 22 8 4 13 9 10 14 -2 4 1 14 8 23 11 15 16 15 65 -8 28 -13 52 -20
52 -14 0 5 -7 12 -16 16 -12 4 -13 8 -3 14 8 4 19 3 27 -3 10 -9 15 -9 21 1 6
9 11 8 21 -4 7 -8 21 -15 31 -15 12 0 16 -5 13 -15 -4 -8 -13 -15 -20 -15 -12
0 -12 -4 -3 -21 8 -17 8 -20 -1 -14 -7 4 -16 2 -20 -5 -5 -9 -18 -7 -49 9 -50
23 -80 17 -107 -24 -14 -21 -19 -23 -33 -13 -13 10 -12 8 2 -8 9 -11 17 -25
17 -31 0 -6 10 -13 21 -16 17 -5 20 -11 15 -31 -3 -14 -3 -26 1 -26 5 0 14
-14 22 -31 11 -26 11 -38 0 -71 -18 -55 -5 -73 54 -74 25 0 53 -6 61 -13 11
-9 15 -9 18 1 6 17 71 -5 100 -34 11 -11 26 -17 34 -14 8 3 25 -9 41 -29 16
-19 34 -35 41 -35 7 0 10 -5 7 -11 -9 -14 31 -57 75 -79 43 -22 100 -16 100
10 0 19 19 30 50 30 9 0 23 7 31 16 8 10 21 13 36 9 28 -7 63 10 63 31 0 11 5
12 18 6 9 -5 23 -7 31 -4 8 3 11 0 7 -7 -5 -7 2 -11 18 -11 13 0 27 -6 29 -12
3 -7 6 -2 6 11 1 17 4 21 14 14 6 -6 36 -19 66 -29 41 -14 55 -16 58 -7 5 14
48 -4 93 -39 15 -12 36 -18 55 -16 26 3 30 0 27 -18 -2 -12 9 -34 27 -53 28
-30 32 -31 108 -31 47 0 84 -5 91 -12 8 -8 15 -8 26 1 13 11 22 9 50 -8 18
-12 41 -19 50 -15 21 8 75 -32 82 -62 6 -25 37 -33 49 -13 4 6 21 10 39 9 52
-3 59 -1 52 16 -4 11 -1 14 12 10 9 -3 29 -8 45 -12 18 -4 29 -15 33 -31 4
-16 9 -21 14 -13 4 6 13 11 21 10 28 -4 37 0 42 21 4 15 11 20 23 15 9 -3 23
-1 30 5 16 13 19 44 4 34 -17 -11 -38 50 -39 113 0 34 -3 66 -6 71 -3 5 -1 12
5 16 8 5 -27 65 -51 85 -14 12 -28 98 -20 126 6 26 12 29 50 32 25 2 44 9 48
18 4 11 9 12 19 3 12 -9 14 -3 14 35 0 25 5 46 10 46 6 0 10 9 10 20 0 23 13
25 73 8 23 -6 59 -8 79 -4 30 5 38 12 43 36 4 17 11 30 17 30 13 0 37 30 38
48 0 6 -8 12 -17 12 -9 0 -13 3 -10 7 4 3 2 12 -4 20 -9 10 -8 13 4 13 19 0
12 33 -15 72 -15 22 -16 31 -7 52 9 20 9 32 1 51 -7 14 -12 34 -12 44 0 10 -9
26 -20 36 -11 10 -20 28 -20 40 0 12 -9 30 -20 40 -11 10 -20 26 -20 36 0 10
-9 23 -19 29 -22 11 -18 50 5 50 13 0 18 11 15 36 -2 14 22 35 46 39 10 2 18
4 18 5 0 1 17 3 37 5 30 3 38 0 43 -16 6 -17 8 -17 21 -5 8 8 23 17 33 21 27
8 34 34 16 61 -9 13 -12 24 -8 24 3 0 -3 10 -15 23 -18 19 -21 30 -15 58 3 19
13 44 20 56 8 12 12 27 8 34 -4 6 13 -1 39 -15 25 -14 46 -21 46 -16 0 6 11 8
25 4 19 -5 25 -2 25 10 0 20 14 21 30 1 22 -26 37 -17 50 30 7 25 21 50 31 56
11 5 19 21 19 35 0 13 7 27 15 30 8 4 15 12 15 20 0 8 9 14 19 14 12 0 21 9
25 25 4 16 13 25 27 25 11 0 22 7 26 16 3 8 12 13 19 10 11 -4 14 6 14 40 0
37 3 45 15 40 23 -8 45 4 45 25 0 23 13 24 34 4 8 -8 18 -15 22 -15 11 0 33
-34 34 -51 0 -25 25 -30 38 -8 8 12 8 19 2 19 -16 0 -12 27 6 45 9 9 23 14 30
11 7 -3 16 -1 19 4 9 15 32 12 49 -5 12 -13 19 -13 42 -3 23 11 28 10 46 -11
17 -21 23 -23 52 -14 24 8 37 7 50 -3 12 -8 26 -10 41 -4 45 17 86 8 119 -25
18 -18 46 -35 62 -39 16 -3 34 -8 41 -9 7 -2 21 -15 32 -29 11 -14 33 -28 48
-31 16 -3 43 -8 62 -12 19 -4 48 -17 65 -29 17 -12 44 -28 60 -36 25 -13 29
-13 41 4 10 13 21 17 39 12 21 -5 26 -3 26 14 0 18 3 18 28 8 15 -7 47 -29 72
-48 25 -20 58 -42 73 -48 34 -15 87 -16 87 -2 0 6 3 10 8 10 11 0 82 -64 82
-73 0 -5 9 -22 20 -37 15 -21 19 -39 15 -74 -4 -39 -2 -46 13 -46 10 0 24 9
32 19 7 11 17 18 21 15 10 -6 59 17 59 28 0 12 34 10 48 -4 20 -20 32 4 37 71
2 35 1 60 -2 57 -9 -8 -33 14 -33 30 0 8 6 14 13 14 7 0 27 26 44 58 18 31 48
74 67 96 20 21 36 41 36 45 0 3 14 12 31 20 18 8 35 25 41 42 5 16 13 29 17
29 4 0 5 15 3 33 -2 22 2 38 13 47 14 11 17 10 22 -8 3 -12 9 -22 14 -22 4 0
13 -10 20 -21 8 -17 8 -28 -4 -53 -35 -70 -41 -110 -20 -128 16 -13 17 -38 2
-38 -6 0 -9 -10 -8 -22 1 -13 -3 -36 -9 -51 -20 -47 -12 -97 13 -97 7 0 16 -6
18 -12 3 -7 3 2 0 20 -4 25 -2 32 10 32 9 0 17 8 19 18 3 14 6 14 17 -6 11
-20 10 -26 -6 -38 -12 -10 -14 -17 -7 -20 8 -3 5 -18 -10 -47 -16 -30 -22 -58
-22 -97 2 -58 -10 -110 -25 -110 -5 0 -6 -13 -3 -29 7 -31 -1 -40 -40 -43 -25
-2 -25 -3 -8 -23 10 -11 26 -33 36 -48 27 -44 58 -77 73 -77 8 0 13 -12 13
-31 0 -24 11 -42 48 -78 27 -26 53 -46 59 -44 7 3 25 -3 42 -11 16 -9 40 -16
53 -16 21 1 21 2 5 11 -17 10 -17 12 -2 29 11 12 13 20 6 25 -19 11 -12 25 13
25 13 0 29 7 36 15 17 20 30 19 31 -2 0 -14 2 -15 6 -3 3 8 12 23 20 32 8 9
12 22 7 29 -4 7 -3 10 2 7 5 -3 24 14 42 38 25 33 29 46 20 53 -7 6 -26 21
-41 33 -28 23 -28 23 -12 61 13 33 14 37 0 37 -8 0 -15 5 -15 12 0 22 45 107
57 108 8 0 11 10 7 30 -5 23 -3 30 10 30 22 0 31 -4 29 -12 -1 -3 5 -12 14
-20 15 -11 16 -10 11 10 -4 13 -2 22 5 22 7 0 12 18 12 46 0 33 5 48 18 55 9
6 17 19 17 29 0 13 5 17 14 14 24 -9 101 75 118 129 15 47 15 47 -10 66 l-26
19 36 10 c19 5 47 8 61 5 20 -4 27 1 38 26 12 28 18 31 44 25 17 -3 42 -14 57
-25 32 -23 61 -24 78 -5 6 8 18 12 26 9 18 -7 65 15 79 37 5 8 11 26 13 40 2
14 6 40 10 57 l7 33 28 -24 c18 -16 23 -26 15 -28 -10 -4 -10 -8 1 -21 7 -9
10 -24 7 -33 -8 -22 21 -54 48 -54 26 -1 88 -72 106 -122 8 -21 18 -38 22 -38
4 0 8 -7 8 -15 0 -18 17 -20 23 -2 2 7 10 1 17 -15 7 -15 24 -32 39 -38 14 -6
35 -24 47 -40 11 -17 49 -53 85 -81 35 -29 64 -55 64 -58 1 -20 18 -30 40 -21
18 7 25 5 29 -6 9 -24 -4 -37 -22 -22 -12 10 -14 10 -8 1 4 -8 2 -13 -4 -13
-6 0 -9 -4 -5 -9 3 -6 34 -9 69 -8 l64 2 -13 41 c-6 22 -17 49 -22 59 -6 11
-7 30 -3 46 9 30 5 39 -19 39 -32 0 -79 44 -86 79 -7 36 -22 51 -85 85 -39 20
-77 56 -60 56 6 0 10 6 9 13 -6 34 39 65 55 38 3 -5 23 -9 44 -9 l39 -1 -2 54
c-1 30 -9 65 -19 79 -9 14 -16 32 -16 41 0 8 -6 15 -12 15 -18 1 -73 50 -87
78 -7 12 -14 36 -16 53 -5 37 -31 79 -49 79 -8 0 -17 7 -20 16 -4 10 -2 13 6
8 7 -5 9 0 6 14 -4 15 -2 22 8 22 18 0 18 24 -1 40 -8 7 -15 18 -15 24 1 6 14
-5 30 -24 25 -28 30 -43 30 -86 0 -38 4 -53 16 -58 9 -4 13 -13 10 -23 -3 -10
-1 -25 4 -33 8 -13 10 -12 10 3 0 9 6 17 14 17 15 0 29 51 20 75 -4 10 0 15
15 15 14 0 25 9 31 26 14 37 12 46 -8 40 -11 -4 -34 4 -56 19 -20 14 -41 25
-46 25 -19 0 -28 36 -23 86 7 62 -8 84 -55 84 -16 0 -43 7 -58 15 -32 17 -54
19 -54 7 0 -5 -16 -8 -35 -7 -28 1 -34 -2 -29 -15 4 -8 10 -35 13 -60 l6 -45
40 3 c47 4 65 17 65 45 0 21 0 21 21 -1 11 -12 17 -27 14 -33 -4 -5 -2 -16 5
-24 9 -10 6 -15 -10 -20 -18 -6 -21 -13 -18 -36 3 -17 1 -32 -4 -35 -4 -3 -8
-14 -8 -25 0 -11 -7 -19 -17 -19 -14 0 -15 2 -4 9 10 6 10 10 1 16 -6 4 -20
-1 -30 -10 -11 -10 -25 -15 -33 -12 -9 3 -13 -2 -13 -17 1 -14 -6 -22 -21 -24
-13 -2 -23 -9 -23 -15 0 -7 -9 3 -20 21 -11 18 -25 30 -30 27 -5 -3 -19 -1
-30 5 -15 8 -18 8 -14 -3 7 -20 -21 -40 -46 -32 -11 3 -20 11 -20 16 0 5 -7 9
-15 9 -9 0 -20 11 -26 24 -6 13 -20 26 -30 29 -26 7 -48 56 -30 67 9 5 11 17
7 36 -16 63 -18 94 -7 94 21 0 11 19 -11 22 -16 2 -22 9 -21 23 3 23 -16 75
-27 75 -16 0 -18 45 -3 71 15 25 15 30 -1 69 -16 40 -16 43 0 55 13 9 15 20
11 45 -5 24 -2 39 13 60 11 15 20 33 20 39 0 6 5 11 10 11 13 0 13 36 0 60 -9
16 -6 24 14 41 45 39 42 99 -6 99 -11 0 -33 9 -49 21 -23 16 -27 24 -19 38 5
10 6 21 2 25 -3 4 -1 10 6 15 9 5 9 12 -3 27 -14 19 -14 18 -15 -3 0 -14 -6
-23 -15 -23 -8 0 -15 -7 -15 -16 0 -8 -4 -12 -10 -9 -5 3 -10 17 -10 31 0 22
-2 24 -22 13 -18 -10 -24 -8 -35 7 -12 17 -13 16 -13 -5z m35 -31 c3 -5 1 -10
-4 -10 -6 0 -11 5 -11 10 0 6 2 10 4 10 3 0 8 -4 11 -10z m-1070 -670 c2 -4
-7 -5 -20 -2 -14 2 -25 8 -25 12 0 10 38 1 45 -10z m45 5 c0 -8 -4 -15 -9 -15
-5 0 -14 7 -21 15 -10 13 -9 15 9 15 12 0 21 -6 21 -15z m460 -121 c0 -8 -4
-12 -10 -9 -5 3 -10 10 -10 16 0 5 5 9 10 9 6 0 10 -7 10 -16z m720 -74 c0 -5
-4 -10 -9 -10 -6 0 -13 5 -16 10 -3 6 1 10 9 10 9 0 16 -4 16 -10z m-6424
-200 c20 0 25 3 15 9 -21 14 4 22 33 11 30 -11 34 -18 9 -16 -10 0 -19 -8 -21
-19 -5 -23 -30 -44 -54 -45 -10 0 -18 -4 -18 -10 0 -5 -11 -10 -26 -10 -19 0
-28 -8 -40 -35 -8 -19 -18 -35 -23 -35 -5 0 -7 -10 -4 -22 3 -13 1 -19 -4 -13
-4 6 -21 18 -36 28 l-28 18 28 33 c15 18 31 33 35 32 4 0 19 13 33 29 18 23
27 27 33 17 7 -10 11 -10 22 3 10 12 10 19 2 27 -7 7 -12 17 -12 23 0 5 7 2
14 -7 7 -10 26 -18 42 -18z m6610 -17 c-7 -7 -26 7 -26 19 0 6 6 6 15 -2 9 -7
13 -15 11 -17z m157 13 c4 -10 1 -13 -8 -9 -8 3 -12 9 -9 14 7 12 11 11 17 -5z
m67 -5 c0 -11 -39 -21 -45 -11 -2 4 -2 10 2 14 10 9 43 7 43 -3z m-6736 -57
c9 -3 16 -13 16 -21 0 -10 -6 -13 -16 -9 -9 3 -18 6 -20 6 -2 0 -4 7 -4 15 0
17 2 18 24 9z m6516 -61 c0 -7 -6 -10 -14 -7 -8 3 -12 13 -9 25 5 16 8 18 14
7 5 -7 9 -18 9 -25z m20 -43 c0 -5 -4 -10 -10 -10 -5 0 -10 5 -10 10 0 6 5 10
10 10 6 0 10 -4 10 -10z m-6735 -20 c3 -5 1 -10 -4 -10 -6 0 -11 5 -11 10 0 6
2 10 4 10 3 0 8 -4 11 -10z m6789 -36 c9 -23 8 -24 -14 -24 -19 0 -27 20 -13
33 11 11 20 8 27 -9z m366 6 c0 -5 -2 -10 -4 -10 -3 0 -8 5 -11 10 -3 6 -1 10
4 10 6 0 11 -4 11 -10z m-156 -56 c6 -15 -29 -38 -44 -29 -6 3 -10 14 -10 23
0 21 46 26 54 6z m46 -65 c0 -5 -7 -9 -15 -9 -8 0 -15 7 -15 15 0 9 6 12 15 9
8 -4 15 -10 15 -15z m-1270 -59 c0 -5 -4 -10 -10 -10 -5 0 -10 5 -10 10 0 6 5
10 10 10 6 0 10 -4 10 -10z m-3631 -296 c12 8 41 -3 41 -15 0 -5 -8 -9 -17 -9
-15 -1 -14 -4 6 -21 18 -15 21 -23 13 -31 -16 -16 -15 -43 4 -79 11 -23 12
-30 2 -28 -15 3 -51 -11 -59 -23 -3 -4 -20 3 -39 17 -37 27 -45 30 -35 15 3
-5 2 -16 -2 -24 -7 -12 -11 -12 -28 0 -19 14 -19 16 -2 25 9 6 15 15 11 21 -4
6 -10 5 -15 -3 -5 -8 -9 -9 -9 -4 0 6 4 16 9 24 8 12 14 13 36 3 31 -14 45 -8
45 18 0 10 4 21 9 24 5 3 12 18 15 32 5 20 2 30 -14 41 -11 8 -18 19 -14 24 4
6 11 6 19 -1 8 -7 18 -9 24 -6z m3505 0 c23 -9 20 -24 -4 -24 -11 0 -20 7 -20
15 0 17 2 18 24 9z m410 -19 c3 -9 0 -15 -8 -15 -8 0 -16 7 -20 15 -3 9 0 15
8 15 8 0 16 -7 20 -15z m-3216 -213 c6 6 19 8 29 4 14 -6 15 -9 4 -15 -9 -6
-10 -11 -2 -15 13 -8 15 -36 2 -36 -5 0 -12 10 -15 23 -7 21 -7 21 -16 2 -5
-11 -9 -14 -9 -7 -1 6 -4 11 -8 11 -19 -3 -33 2 -47 17 -26 25 -18 34 17 19
25 -10 37 -11 45 -3z m-44 -67 c-6 -16 -24 -21 -24 -7 0 11 11 22 21 22 5 0 6
-7 3 -15z m116 -15 c0 -5 -2 -10 -4 -10 -3 0 -8 5 -11 10 -3 6 -1 10 4 10 6 0
11 -4 11 -10z m-2480 -41 c0 -6 -4 -7 -10 -4 -5 3 -10 11 -10 16 0 6 5 7 10 4
6 -3 10 -11 10 -16z m-30 -9 c0 -5 -2 -10 -4 -10 -3 0 -8 5 -11 10 -3 6 -1 10
4 10 6 0 11 -4 11 -10z m-340 -122 c0 -6 -6 -5 -15 2 -8 7 -15 14 -15 16 0 2
7 1 15 -2 8 -4 15 -11 15 -16z m445 -109 c0 -9 7 -24 15 -33 31 -38 -27 -74
-61 -37 -14 15 -29 19 -60 18 -43 -3 -62 14 -40 36 8 8 11 6 11 -7 0 -13 5
-16 18 -11 9 4 27 10 38 12 15 3 20 11 17 23 -4 15 1 17 29 16 23 -1 33 -7 33
-17z m365 -65 c0 -3 -6 -11 -13 -18 -15 -15 -45 -13 -61 5 -8 9 -6 10 12 6 12
-3 22 -2 22 2 0 4 9 7 20 8 11 1 20 -1 20 -3z m790 -554 c0 -5 -5 -10 -11 -10
-5 0 -7 5 -4 10 3 6 8 10 11 10 2 0 4 -4 4 -10z"/>
<path d="M7133 10738 c-3 -64 3 -83 28 -85 12 -1 29 -9 38 -17 21 -19 41 -4
41 29 0 12 5 26 12 33 9 9 9 12 -1 12 -7 0 -9 5 -5 12 5 7 0 9 -14 6 -15 -4
-28 3 -46 23 -37 41 -51 37 -53 -13z"/>
<path d="M6378 10763 c7 -3 16 -2 19 1 4 3 -2 6 -13 5 -11 0 -14 -3 -6 -6z"/>
<path d="M6410 10728 c0 -13 6 -18 17 -16 24 5 27 25 3 31 -15 4 -20 0 -20
-15z"/>
<path d="M6411 10686 c-19 -22 -10 -40 11 -24 11 8 15 18 9 26 -6 10 -10 10
-20 -2z"/>
<path d="M11411 10629 c8 -16 13 -18 19 -9 6 9 12 9 29 1 17 -10 24 -9 36 2
12 13 9 15 -23 21 -67 11 -74 9 -61 -15z"/>
<path d="M13230 10454 c0 -8 5 -12 10 -9 6 4 8 11 5 16 -9 14 -15 11 -15 -7z"/>
<path d="M13265 10450 c3 -5 16 -10 28 -10 18 0 19 2 7 10 -20 13 -43 13 -35
0z"/>
<path d="M6681 10434 c0 -11 3 -14 6 -6 3 7 2 16 -1 19 -3 4 -6 -2 -5 -13z"/>
<path d="M13846 10413 c-6 -14 -5 -15 5 -6 7 7 10 15 7 18 -3 3 -9 -2 -12 -12z"/>
<path d="M11518 10413 c7 -3 16 -2 19 1 4 3 -2 6 -13 5 -11 0 -14 -3 -6 -6z"/>
<path d="M13260 10405 c0 -8 2 -15 4 -15 2 0 6 7 10 15 3 8 1 15 -4 15 -6 0
-10 -7 -10 -15z"/>
<path d="M13305 10380 c3 -5 8 -10 11 -10 2 0 4 5 4 10 0 6 -5 10 -11 10 -5 0
-7 -4 -4 -10z"/>
<path d="M13831 9904 c0 -11 3 -14 6 -6 3 7 2 16 -1 19 -3 4 -6 -2 -5 -13z"/>
<path d="M11380 9790 c-16 -11 -15 -11 18 -15 18 -2 20 0 11 11 -13 16 -10 16
-29 4z"/>
<path d="M11380 9709 c0 -5 5 -7 10 -4 6 3 10 8 10 11 0 2 -4 4 -10 4 -5 0
-10 -5 -10 -11z"/>
<path d="M11701 9506 c7 -15 15 -23 17 -16 3 7 -3 19 -13 28 -15 16 -16 15 -4
-12z"/>
<path d="M13690 9521 c0 -5 9 -11 21 -14 16 -4 18 -3 8 9 -13 16 -29 19 -29 5z"/>
<path d="M13806 9515 c4 -8 7 -15 9 -15 1 0 8 7 15 15 10 13 9 15 -8 15 -15 0
-20 -5 -16 -15z"/>
<path d="M6460 9160 c0 -18 2 -19 20 -8 11 7 20 16 20 20 0 5 -9 8 -20 8 -13
0 -20 -7 -20 -20z"/>
<path d="M7446 8843 c-4 -9 -2 -21 4 -27 7 -7 10 -2 10 17 0 31 -5 34 -14 10z"/>
</g>
</svg>
