<svg version="1" xmlns="http://www.w3.org/2000/svg" width="866.697" height="575.403" viewBox="0 0 650.023 431.552"><g fill="#222"><path d="M367.21.952c-.8 1-.9 1.6-.1 2.1 2.1 1.3.9 2.4-1.9 1.9-2.4-.5-3.2-.1-4.7 2.1-1 1.5-1.8 3.5-1.9 4.5-.1 1.5-1.2 3.2-6.5 9.7-.6.7-.4 1.3.5 1.7.9.3 1.5 1.9 1.5 4 0 1.9.5 4.6 1.1 6 .7 1.4.8 3.3.4 4.3-.5 1-.7 2.5-.7 3.3.1.8-.2 2.1-.7 2.9-.8 1.2-1.2 1.2-2.4.2-.9-.6-1.7-.8-1.9-.2-.6 1.8-7.1-2.4-8.7-5.6-.9-1.8-2.4-3.5-3.4-3.9-1-.3-2.7-2-3.8-3.7-1.9-3.3-2.2-3-2.3 2.8-.1 2.2-.5 2.9-1.6 2.6-.8-.2-3.2-.6-5.2-.9-2.1-.2-3.8-.8-3.8-1.4 0-.5-.9-.6-2-.3-1.1.4-2 .2-2-.4 0-.6-.7-1.1-1.5-1.1s-1.5.4-1.5.9-1.1 1.2-2.5 1.5c-1.6.4-2.2 1.1-1.9 2.1.4.8.2 1.5-.4 1.5-.5 0-1.3 1.1-1.6 2.5-.4 1.4-1.1 2.5-1.7 2.5-.6 0-1.7.7-2.5 1.5-.9.8-3.3 1.8-5.5 2.1-2.1.4-4.4 1.3-5 2-.9 1.1-1.5 1.1-3.2-.1-2.9-2-5-1.9-7.2.5-1 1.1-2.6 2-3.6 2-.9 0-2.6 1.2-3.7 2.7-1.5 2.1-2.7 2.7-5.5 2.6-3.6-.1-3.6-.1-2 2.3 1.8 2.9 3.4 10.4 2.2 10.4-.5 0-.9.7-.9 1.5 0 1.2-.4 1.3-1.9.5-2.8-1.5-2.9-1.4-2.4 3.7.3 3.5.1 4.5-.8 3.6-1.1-1.1-4.9-.6-4.9.8 0 .4.5 1.1 1 1.4 1.9 1.1-.1 2.5-3.5 2.5-2.1 0-3.9-.7-4.7-1.8-.7-1-2.2-2.1-3.3-2.4-1.1-.3-2.8-.9-3.7-1.3-1.3-.5-1.8-.2-1.8.9 0 .9-.4 1.6-1 1.6-.5 0-1-.5-1-1.1 0-.8-.4-.8-1.4 0-1.1.9-2 1-3.5.1-1.7-.9-2-.8-1.5.5.8 1.9-.5 1.9-4.5-.1-2.5-1.2-3.5-1.3-4.6-.4-.8.6-1.9.9-2.5.5-.5-.3-1 .1-1 1 0 1-.9 1.5-2.7 1.5-14.5-.1-16.2.2-17.8 2.7-1.4 2.1-2.2 2.4-5.1 1.8-2.9-.5-3.4-.3-3.4 1.4 0 3.8-10 5.5-12.8 2.2-1-1.1-2.7-2.2-3.9-2.6-1.8-.5-2.3-.2-2.3 1.3s-1.1 2.2-4.4 3.1c-2.5.6-4.7 1.5-5 2-.3.5-1.4.8-2.4.6-.9-.2-2.9-.6-4.4-.9-1.5-.4-3-1.5-3.3-2.7-.6-1.9-.8-1.9-2.4-.5-3.4 3.1-9.4 1.4-12.6-3.5-3.4-5-6.5-3.4-6.5 3.2 0 1.8-.4 2.8-1 2.4-.5-.3-1-.1-1 .5s.6 1 1.3.9c1.6-.3 6.7 1.8 6.7 2.7 0 .4-.8 1.6-1.7 2.6-1.6 1.8-1.6 2 1.5 4.4 1.8 1.4 3.2 3 3.2 3.6 0 .6.6 1.9 1.4 2.7 1.6 1.9 3 9.4 1.5 8.6-1.5-1-1 1.2.6 2.5 1.8 1.5 2 8.1.3 9.8-.9.9-.7 1.6.7 3.2 1 1.1 1.5 2.3 1.2 2.7-.4.3.1 1.2 1.1 1.9 1.4 1 1.8 1 2.3-.4.5-1.3 1.1-.6 2.8 2.6l2.2 4.4-3.3 4.4c-2.1 2.8-3.9 4.3-5 4-1.4-.3-1.5 0-.6 2 .8 1.7.7 3.5-.2 6.9-.7 2.5-1.4 4.5-1.5 4.5-.2 0-3.2-1.3-6.7-3-7-3.3-10.9-3.8-12.9-1.4-.7.9-3.3 2.5-5.7 3.6-3.3 1.6-4.2 2.5-3.9 3.9.7 2.4-1.8 2.5-3.2.1-.7-1.1-1.3-1.3-1.8-.6-1.2 1.6-8.6 1.3-10-.5-1-1.4-1.2-1.1-1.3 1.6 0 3.7-2.8 5.8-6.1 4.8-1.1-.4-2.6-.1-3.4.5-.8.6-2.3.9-3.4.5-2.4-.7-8.1 3-8.1 5.3 0 .8 1.2 2.6 2.8 4.1 2.3 2.1 2.4 2.6 1 2.9-2 .4-3.3 3.6-2.2 5.4.4.7.9 3 1 5.2.3 6.3.3 6.3 2.3 6.9 2.8.7 3.1 6.3.6 10.4-1.1 1.8-2.6 3.1-3.2 2.8-.8-.3-1.3.5-1.3 2 0 1.3-1.1 3.6-2.4 5.2-1.3 1.5-3.2 4.6-4.3 6.9l-2 4.1 2.5 2.1c1.3 1.2 2.7 2 3.2 1.7.4-.3 1.3.2 2 1 .7.9 2.9 1.5 5.1 1.5 2.8 0 4.2.6 5.1 2 1.5 2.4 2.8 2.6 2.8.5 0-.8.3-1.4.8-1.4.4.1 1.6.1 2.6 0 1.8-.1 1.7-.3-.4-2.1-2.7-2.3-3.6-2.5-4.4-.8-.6 1.5-3.8-2-3.3-3.6.6-1.8 4.4-1.5 6.2.4 1.2 1.4 2.5 1.7 4.5 1.3 2.2-.4 3.2 0 4.2 1.6.7 1.2 2.3 2.1 3.8 2.1 1.4 0 3.1.4 3.9.9.9.6 2.4.5 3.9-.2 2-.9 2.6-.8 3.4.7.7 1.3 1.7 1.6 4.1 1 1.8-.3 3.7-1.1 4.4-1.6.8-.6 1.5-.3 2.3 1.1.6 1.2 1.5 2.1 2.1 2.1.6 0 .7-.5.3-1.2-.4-.7-.3-.8.4-.4s1.2 1.6 1.2 2.6.8 2.4 1.8 2.9c.9.6 1.3 1.1.8 1.1s-.3.7.5 1.6c1 1.3 1 1.7-.2 2.5-.8.5-2.2.9-3.1.9-.9 0-2 .4-2.3 1-.3.5-.2 1 .3 1 .6 0 .8 1 .5 2.1-.5 1.9-.3 2.1 2.1 1.7 1.4-.3 2.9-.1 3.2.3.3.5 1 .9 1.5.9.6 0 .7-.5.3-1.1-.4-.7-.1-1 .7-.7.8.3 1.3 1.1 1.1 1.8-.2.7.9 2.6 2.4 4.1 2.2 2.3 3.6 2.9 7.1 2.9 3.7 0 4.5.4 5.3 2.5.6 1.6 1.4 2.3 2.5 1.9.8-.4 2.1-.2 2.8.3 1.7 1.4 5.7 2.3 5.7 1.3 0-.5-.6-1-1.2-1.3-.7-.2-1-.8-.5-1.2.4-.5 1.3-.3 1.9.3 1.8 1.8 6.8 1.5 6.8-.3 0-.8.6-1.4 1.3-1.2 1.8.3 2.8 2 1.6 2.8-.7.4-.4 1.2.6 2.3 1.1 1.1 1.5 2.5 1.1 4-.4 1.5 0 2.8.8 3.5.9.8 1.3 2.6 1.1 4.8-.2 2 .3 4.6 1.1 5.8.8 1.2 1.1 2.5.7 2.8-.3.4 1.2.7 3.5.7 3.9 0 7-2.3 8.5-6.3.3-.9.8-.9 1.8 0 1.8 1.7 8 1.6 10.3-.2 1.7-1.3 2.2-1.3 3.6 0 .9.8 2.6 1.6 3.8 1.8 1.2.2 2.5.6 2.8 1 .4.4 2.2.7 4 .7 1.8 0 3.6.4 3.9 1 1 1.6 2.2 1.2 2.8-1 .3-1.2 1.4-2 2.6-2 1.2 0 2.1-.5 2.1-1.2s.6-.6 1.8.4c3 2.6 4.2 3.1 3.6 1.4-.5-1.3.1-1.6 3-1.6 2.3 0 3.9-.6 4.2-1.5.5-1.1 1-1.2 2.3-.3 2.7 1.6 7.1.2 7.1-2.3 0-1.5.5-1.9 1.5-1.6 1.7.7 3-.9 1.5-1.8-2-1.2-.9-3.4 2-4 1.7-.4 3-1.1 3-1.6 0-.6 1.4-.7 3.4-.3 2 .3 5.1 0 7.3-.7 2.1-.7 4.1-1.2 4.5-1.1 1.3.3 5.9-10.1 5.3-11.9-.3-1 .1-1.9 1-2.3.8-.3 1.5-1.7 1.5-3.4 0-1.5.4-3.2.9-3.8.5-.5 1.3-2.5 1.8-4.4.8-2.9 1.4-3.6 4.2-4 2.7-.4 3.5-1.1 4.6-4.3.7-2 1.1-3.7.8-3.7-.2 0 .3-.7 1.1-1.6 2.4-2.3 1.9-4.7-1.4-7.9-1.6-1.6-3-3.6-3-4.6 0-.9-.7-2-1.6-2.3-1.5-.6-1.5-.8 0-2.5 1.4-1.5 1.5-2.4.7-3.9-.6-1.1-.8-3.4-.5-5 .5-2.4.2-3.2-1.6-4.2-1.9-1-2.1-1.8-1.8-7.5.1-4.1-.2-6.9-1-7.7-.6-.6-1.2-2.4-1.2-3.8 0-1.8-.8-3.1-2.2-3.8-1.7-.8-1.9-1.1-.6-1.1.9-.1 1.8-.6 2-1.2.4-1.3 11.3-4.9 15-4.9 4.3 0 7 1.7 6.6 4.3-.2 1.6.2 2.2 1.5 2.1 1.3-.2 1.6.3 1.2 2-.5 2.1-.5 2.1 1.1-.2.9-1.2 2.2-2.2 3-2.2.8 0 1.1-.6.8-1.5-.5-1.2 0-1.4 2.4-.9 2.8.6 3.2.3 3.8-2.2.4-1.6 1.1-3.4 1.6-4.1.5-.7.5-1.4-.1-1.7-1.2-.8-.4-5.8 1-6.7 1.5-.9-.1-5.9-2-6.7-1.5-.5-4-3.1-4.1-4.2 0-.3 1-1 2.3-1.5 1.2-.6 2.1-1.5 2-2.1-.1-.6 1.5-1.1 3.5-1.1 2-.1 3.2.1 2.5.4-.9.3-.9 1-.1 2.9 1.2 2.6 1.2 2.6 5 2.8 2.6.2 5.3 1.6 2.9 1.6-.7 0-.4 1.4.9 4 1.2 2.4 1.8 4.9 1.5 6.3-.4 1.5-.1 2.8.9 3.6 2.1 1.8 2 3.1-.3 3.1-3 0-3.6 3.1-.9 5.2 2 1.5 2.1 1.8.5 1.8-1 0-1.6.4-1.3.9.8 1.2 7.9 1 8.8-.3.4-.6 1.1-.6 2 .1.7.6 2.4 1.3 3.8 1.5 1.5.2 2.6 1.1 2.8 2.3.2 1.1 1.1 2.8 2 3.8.9 1 1.5 3.2 1.4 4.8-.2 3 1.5 7.5 2.5 6.5.3-.2 2.4.7 4.7 2.1 2.3 1.5 5.3 2.6 6.9 2.5 2-.2 2.7.2 2.7 1.5 0 1 1 2.3 2.3 2.8 1.8.8 2.1 1.7 1.9 4.6-.2 2.7.4 4.7 2.7 8.1 1.7 2.5 3.7 5 4.4 5.7 1.4 1.1 1.2 6.1-.3 6.1-3 0 5.3 10 10.7 12.8 2.7 1.5 7 1.5 7.8.1.4-.6 1.4-.8 2.2-.5 2.2.9 5.6-1.3 4.9-3.1-.5-1.2.2-1.4 3.6-1.3 7.9.5 8.6.2 8.1-2.4-.4-2.1-.2-2.4 1.5-1.9 2.4.6 4.9 5.3 2.8 5.3-3.2 0-2.5 4.9.7 5 1.8 0 .5 2-1.3 2-1.2 0-3.2 1.2-4.6 2.7-2.2 2.4-2.3 2.8-.8 4.4 1.4 1.6 1.4 1.9-.6 3.9-1.3 1.3-2 3-1.7 4.1.3 1.2-.2 2-1.4 2.4-1.1.4-1.9 1.2-1.8 1.8.1.7-.1 2-.5 2.9-.5 1-.3 3.1.2 4.7.9 2.6.8 2.9-1.4 3.4-1.3.2-2.6.2-2.9-.1-.3-.3-1.2-.7-1.9-.8-1-.1-1.2.6-.6 3.2.4 1.8.5 3.5.2 3.8-.2.3-.6 1.7-.8 3.1-.1 1.4-.8 3.3-1.5 4.1-1.4 1.7-.5 12 1.3 14.1.6.7.7 1.3.2 1.4-.5 0 .1.4 1.4.9 1.3.6 2.2 1.8 2.2 3 0 1.1.8 2.4 1.8 2.7 2.7 1 4.2 2.9 3.2 3.9-1.5 1.5.1 5.4 2.9 6.9 1.8 1 2.1 1.4.9 1.5-1.7 0-4.7 4-3.1 4 .4 0 .2.4-.5.8-1 .7-.9 1.5.4 4 1.5 3.1 3.4 4.3 3.4 2.2 0-.6.5-1 1-1 .6 0 1 .7 1 1.5s.4 1.4.9 1.2c.5-.1 1.8.9 3 2.2 1.6 1.8 1.8 2.7 1 3.7-1.2 1.5-.3 3.8 1.2 2.9.5-.4.9 0 .9.9 0 2.7 3.5 1 4.5-2.2.5-1.8 1.3-3.2 1.7-3.2.4 0 .8-.7.8-1.5s.7-1.5 1.5-1.5c1.2 0 1.4-.4.6-1.7-.6-1.2-.4-2.8 1-5.5 2.2-4.3 2.4-6.8.7-6.8-.7 0 .1-.7 1.8-1.6 4.5-2.2 7.4-5.2 6.8-6.9-.5-1.2.2-1.5 2.9-1.5 3.8 0 6.1-1.9 5.1-4.4-.4-1.1-.2-1.5.8-1.1.8.3 2.7-.6 4.3-2.1 2.8-2.6 2.9-2.6 6.3-1 1.9.9 4.3 1.4 5.3 1.1 1.3-.4 4 .7 8 3.4l6.1 4.1 2.9-3c1.7-1.6 3-3.2 3-3.5 0-.2.2-1.2.5-2 .8-2-.3-4.8-1.6-4-.6.4-.7 1.2-.4 1.8.4.7-.4.1-1.7-1.2-1.6-1.6-2-2.5-1.1-2.8 1.5-.6 1.6-3.7.1-6.5-.6-1.1-1.2-3.6-1.4-5.5-.2-2.5-1.3-4.3-3.7-6.4-1.8-1.5-2.7-2.8-2-2.9 2 0 1.4-1.6-1.2-2.9-1.3-.7-2.9-2.4-3.5-3.7-.6-1.4-3.1-4.6-5.6-7.2-4.3-4.6-4.3-4.9-2.5-6.2 1.1-.8 2-2 2-2.7 0-.7.9-1.3 1.9-1.3 3.7 0 5.1-1.2 5.1-4.1 0-1.7.6-3.2 1.5-3.5.8-.4 1.5-1.5 1.5-2.6 0-1 1.1-3.9 2.5-6.4 1.4-2.5 2.5-5.1 2.5-5.9 0-.8.8-1.8 1.8-2.4 1.4-.8 1.5-1.2.5-2.2-1.9-1.9-1.6-3.7.8-4.4 2-.7 1.9-.8-.7-2.1-1.6-.9-4.2-1.4-5.9-1.3-4.2.3-7.3-1-8-3.3-.4-1-1.4-1.8-2.3-1.6-3.4.5-7.2-1.3-8.6-4-2.3-4.5-3.9-5.5-7-4.1-2 1-2.9 1-3.8.1-.7-.7-1.9-1.2-2.8-1.2-1.8 0-12-9.3-15.7-14.4-1.3-1.6-2.3-4.3-2.3-5.8 0-1.7-.9-3.6-2.4-4.9-2.3-2-2.4-2.6-1.9-8.8.6-7.1.5-7.4-7.9-21-2.1-3.2-2.1-3.3-.2-2.7 1.6.5 2 .1 2.2-2 .1-1.9-.2-2.5-1.3-2.1-1.9.8-3-3-1.5-4.8.9-1.1.9-1.5.1-1.5-1.6 0-5.1-3.8-5.1-5.6 0-.9.5-1.2 1.2-.8.7.4.8.3.4-.5-.4-.6-1.1-.9-1.6-.6-.9.6-3-4.8-3-7.8 0-1.5-.5-1.8-2.5-1.5-1.4.3-3-.1-3.6-.8-.6-.8-.8-1.4-.4-1.4s.2-.7-.5-1.5c-.6-.8-.9-2.3-.5-3.4.3-1 .1-2.2-.5-2.6-.6-.4-.2-1.3 1.1-2.4 1.7-1.3 2-2.3 1.4-3.7-.5-1-1-3.5-1.2-5.4-.2-1.9-1.4-4.6-2.7-6-3.5-3.9-5.6-7.6-6.4-11.7-.6-2.9-1.3-3.9-3-4.1-1.6-.3-2.2-1-2.2-2.8 0-1.4-.7-2.7-1.5-3-.8-.4-1.5-1.2-1.5-2 0-.7-.9-2.2-2.1-3.3-2.5-2.3-2.3-6.6.4-9.6 1.5-1.7 1.9-1.8 2.8-.5.9 1.2 1 1 .6-.8-.4-1.6-.1-2.2 1.3-2.2 3.8 0 4.7-1 4.4-4.8-.1-2.1-1-4.1-2.1-4.9-3.9-2.7-4.5-3.5-3.4-4.6 1.7-1.7 1.4-6.7-.4-6.7-.8 0-1.5-.4-1.5-.9s-.3-1.7-.7-2.7c-.5-1.4-.3-1.6 1.1-1.1 1.3.5 1.7.3 1.4-1.1-.2-1.2-1.1-1.6-3.2-1.4-2.6.3-2.8.2-2.2-2.2.5-2.1.1-2.8-2.3-4-2.9-1.6-4.9-4.6-2.9-4.6.7 0 .8-1.1.3-3.3-.4-1.7-.8-4.3-.8-5.7-.2-1.7-.9-2.6-2.7-3-1.8-.4-2.7-1.6-3.5-4.7-1.2-5.1-1.9-5.8-3.4-3.9zm-3.6 59.6c1.6.3 2 1 .6 1-.9 0-1.1.8-.7 2.4.3 1.4.3 3.2 0 4-.7 1.7-3.4 2.2-3.4.6 0-.6-.4-1-.9-1s-.7.9-.4 2c.8 2.9-2.1 2.6-3.5-.4-.9-2-.8-2.5.5-3 1-.4 1.4-1.5 1.1-3.1-.4-1.7-.1-2.5.8-2.5.8 0 1.4-.5 1.4-1 0-.7.6-.7 1.8-.1.9.5 2.2 1 2.7 1.1zm-.5 12.6c0 .8-.5 1.2-1 .9-.6-.4-.8-1.1-.5-1.6.9-1.4 1.5-1.1 1.5.7zm30 32.5c0 .5-.4.9-.8.9-.5 0-.9-.7-.9-1.5s.4-1.2.9-.9c.4.3.8.9.8 1.5zm-42 12.4c.6.3.8 1.1.4 1.6-.3.5-1.1.6-1.7.2-.6-.4-2-.8-3-.8-1-.1-2.3-.7-2.8-1.2-.8-.8-.1-1 2.5-.8 1.9.2 4 .6 4.6 1zm-13.8 10.2c-1 .4-1 .8-.1 1.9.7.8.7 1.4.1 1.4-1.2 0-2.3-2.6-1.5-3.4.4-.3 1.1-.6 1.7-.5.6 0 .5.3-.2.6zm-42.8 4.4c-.5 5.4-.9 5.9-5 5.9-2.4 0-3.4-.5-3.4-1.5 0-2 3.6-5.5 5.6-5.5 1 0 1.4-.6 1-1.5-.3-.9 0-1.5.8-1.5 1 0 1.2 1.2 1 4.1zm7.1-1.1c.3.5.2 1-.4 1-.5 0-1.3-.5-1.6-1-.3-.6-.2-1 .4-1 .5 0 1.3.4 1.6 1zm-23.6 9.6c.3.3 0 .9-.5 1.4-.7.7-1.7.3-3-1.1-1.9-2.2-1.9-2.2.6-1.4 1.4.4 2.7.9 2.9 1.1zm126.6 11.4c.3.5.2 1-.4 1-.5 0-1.3-.5-1.6-1-.3-.6-.2-1 .4-1 .5 0 1.3.4 1.6 1zm-18 3c.3.5.1 1-.4 1-.6 0-1.1-.5-1.1-1 0-.6.2-1 .4-1 .3 0 .8.4 1.1 1zm-212.9 37.2c.3 1 .9 1.6 1.4 1.3.9-.6 2.4 2.4 2.1 4.4-.3 1.5 3.7 6.1 5.4 6.1.6 0 .9 1.5.7 4-.3 3 0 4.1 1.2 4.6.9.3 1.6 1.1 1.6 1.8 0 .6.9 1.7 1.9 2.3 1.6 1 2.5 1 4.7-.1 3.2-1.7 5-1.2 5.7 1.6.4 1.4 1.1 1.8 2.4 1.4 1-.3 2.6.1 3.6.8 1.9 1.5 1.5 3.8-1.1 6.9-1.2 1.3-1.3 2.2-.4 4.1 1.4 3.1-.8 9.9-3.5 10.6-1.4.4-1.8 1.6-2 6.3-.1 3.3-.8 6.5-1.4 7.3-1 1.3-1.4 1-2.5-1.5-1.2-3-3.3-3.8-8-3.2-.6.1-1.7-.5-2.3-1.3-.6-.8-2.1-1.2-3.1-.9-1.4.4-2 0-2-1 0-.9-.5-1.9-1.2-2.3-.7-.4-.8-.3-.4.4.5.8 0 1.2-1.3 1.2-1.2 0-2.1.6-2.1 1.4 0 2.4-3.4 7.4-5.6 8.5-1.2.5-3.1.7-4.2.4-1.4-.3-1.9 0-1.9 1.4 0 4.4-.2 4.6-4.2 3.9-2.9-.4-4-.2-4.5.9-.8 2.2-3.7 1.8-4.3-.5-.3-1.1-1-2-1.7-2.1-.6 0-.1-.4 1.1-.9 2.4-1 2.2-4-.2-4-.7 0-1.8-.7-2.5-1.5-.9-1.1-1.5-1.3-2-.5-.4.7-.7-.3-.6-2.2.1-1.8.6-3.9 1.3-4.6 1.6-1.7 2.7-7.6 1.9-10.6-.3-1.4-1.5-2.8-2.6-3.1-2.1-.7-5.8-6.5-4.1-6.5.5 0 .7-.9.4-2-.3-1-.8-1.8-1.2-1.7-1.2.3-5.9-4.5-5.7-5.9.1-.8 1.1-2 2.1-2.8 1.6-1.2 1.7-1.6.6-3-1-1.1-1-1.6-.2-1.6.7 0 1-.3.8-.8-.7-1 10.6-.2 11.9.9.7.6 2.8.9 4.7.7 3.2-.2 3.5-.4 3.3-3.2-.2-3.8 1-6.6 2.9-6.6.8 0 1.9-.9 2.5-2 .6-1.1 1.7-1.7 2.4-1.4 2.3.9 3.9-3.1 2.1-5-1.3-1.3-1.3-1.5.2-1.8 4.4-.8 7.3-.3 7.9 1.4zm-36.1 66.7c.3.5.1 1.2-.5 1.6-.5.3-1-.1-1-.9 0-1.8.6-2.1 1.5-.7z"/><path d="M318.11 28.052c0 .8.2 1.5.4 1.5s.6-.7 1-1.5c.3-.8.1-1.5-.4-1.5-.6 0-1 .7-1 1.5zM67.71 57.752c-1 .9-1.5 2.1-1.2 2.6.3.5-.4 1.3-1.7 1.7-2.6.8-2.7.8-5 0-1.4-.6-1.6-.4-.9 1.6 1.2 3.2-2.1 9.9-4.9 9.9-1.1 0-2.7.6-3.5 1.4-.7.8-1.9 1.6-2.5 1.8-.7.2-1.3 2.1-1.3 4.1-.1 2.6-.6 3.7-1.6 3.7-.8 0-2 1.1-2.7 2.5-.9 2-.8 2.5.3 2.5.8 0 1.4.6 1.3 1.2-.1.7.1 2 .5 2.9 1 2.3-1 7-2.8 6.3-1.1-.4-1.3 0-.9 1.5.4 1.4.1 2.1-.9 2.1-.8 0-3 .8-4.9 1.7-1.9.9-4.6 1.6-6.2 1.5-1.5-.1-3.7.4-5 1.2-2.7 1.7-9.7 1-9.7-1 0-1.6-2.3-1.8-4.9-.4-1.4.7-2.4.3-4.2-1.6-1.3-1.4-3.3-3-4.4-3.6-1.2-.5-.6.4 1.3 2.1 1.7 1.7 3.2 3.5 3.2 4 0 .6.7 1.4 1.5 1.9.9.4 2.4 2.3 3.4 4.2 2.2 4.1 4.6 5.4 3.6 1.9-.5-1.9-.4-2.1.4-.9.9 1.2 1.3.9 2.3-1.8 1.4-3.6 2.3-4 3.7-1.5.9 1.7 1.2 1.7 4 .1 3.1-1.7 4.8-1.3 3.1.7-.7.8-.4 1.8 1 3 1.1 1 2 2.6 2 3.6s.5 2.1 1 2.4c1.7 1.1 1.1 3.5-.9 3.5-1 0-2.1.7-2.5 1.5-.3.8 0 1.4.7 1.2 2.1-.4 1.3 2.7-1 3.8-1.6.8-1.9 1.5-1.2 2.2.8.8.8 1.7 0 3-.7 1.4-.7 2.3.2 3.2.9 1 .8 1.1-.5.6-1.4-.6-1.8-.2-1.8 1.7 0 4.2-6.7 8.8-8.5 5.8-.3-.5-1.2-.7-2-.3-2.7 1-1.6 1.9 2.6 2.1 4.4.3 10.9 3.9 10.9 6 0 .8.9 2.7 2.1 4.3 1.6 2.3 2.8 2.9 5.2 2.8 1.8-.1 4.1.2 5.1.6 1.2.5 1.7.5 1.3-.2-.3-.5 0-1 .8-1s1.5.7 1.5 1.4c0 1.4 1.2 1.3 5.6-.4 1.3-.5 3.1 16.8 1.9 18.7-1.3 2 .5 7 2.6 7 1.2 0 1.9-.7 1.9-1.9 0-1.7.5-1.9 3.8-1.4 3.4.6 3.6.5 2.3-1.1-1.1-1.3-1.6-1.4-2.4-.4-1 1.5-1 1.3 1.7-7 1.6-4.7 2-5.2 4.7-5.2 1.7 0 4.3.7 5.9 1.5 1.6.8 3.5 1.2 4.3.9.8-.3 1.8 0 2.2.6.5.8 1.1.8 2.1-.1 1-.8 1.4-.8 1.4 0 0 .6.4 1.1.9 1.1 1.4 0 2-5.3.9-7.4-.9-1.6-.7-1.8 1-1.4 1.5.4 3.1-.3 5.2-2.3 2.5-2.4 3-3.7 3-7.4 0-3.1.5-4.7 1.5-5.1.9-.4 1.5-1.9 1.5-3.9 0-1.8.5-3.5 1.2-3.7.6-.2-.5-1.7-2.5-3.2-2-1.6-3.7-3.7-3.7-4.7s-.9-2.3-1.9-2.9c-1.6-.8-1.8-1.5-1.1-3.9.6-2.1.4-3.5-.8-5.2-1.2-1.8-1.3-2.8-.4-5.3.9-2.3.9-4.3 0-8.3-1.2-5-1.4-5.3-5.3-6.2-7.5-1.8-11.4-3.7-15-7.4-1.9-2-3.5-4.4-3.5-5.5 0-1-.5-2.3-1.2-3-.9-.9-.9-1.2 0-1.2 1 0 1-.5.1-2.1-.8-1.6-.8-2.3 0-2.9.7-.4 1.1-1.1 1-1.6-.3-1.7 2.3-7.4 3.4-7.5.7-.1 3-.3 5.2-.4 2.2-.2 4.5-.4 5.2-.4.6-.1.9-1 .6-2.2-.3-1.1-.9-1.6-1.2-1.1-.4.6-1.5 0-2.8-1.4-1.2-1.3-1.8-2.4-1.3-2.4.4 0 1-.9 1.3-2 .3-1.1 1.7-2.4 3.1-3 4.2-1.5 3.2-3.7-1.7-4.1-3.1-.3-4.9.1-6.1 1.3zM397.61 59.552c.3.5 1.3 1 2.1 1s1.4-.5 1.4-1c0-.6-.9-1-2.1-1-1.1 0-1.7.4-1.4 1zM261.91 64.852c.7.8.8 1.8.4 2.2-.4.5-.1.5.6.1 1.7-1 1.5-2.3-.4-3-1.3-.5-1.4-.4-.6.7z"/><path d="M73.71 65.852c.3 1 .9 1.5 1.2 1.2.3-.3 0-1.1-.7-1.8-1-.9-1.1-.8-.5.6zM417.11 133.452c0 1.1 2.1 1.9 3.8 1.4 2.1-.8 1.3-2.3-1.3-2.3-1.4 0-2.5.4-2.5.9zM598.51 183.952c-.3.8-1.3 1.2-2.4.9-1.2-.3-2 .2-2.5 1.6-.4 1.4-1.5 2.1-3 2.1-3.1 0-4.1 1.7-2.2 3.8.8.9 1.7 3.1 1.9 4.9l.4 3.2-2.7-1.5c-1.8-.9-3-1-3.4-.4-.4.6-1.1.8-1.6.5-.5-.4-.9-.2-.9.4 0 .5.5 1.3 1 1.6.6.3 1 1.5 1 2.5 0 3.6 2.1 6.5 6.2 8.5 2.2 1 3.5 2.1 2.9 2.3-1.3.4-1.5 3.9-.2 4.7.5.3.8 2.7.6 5.4-.3 3.6 0 5.1 1.1 5.5.8.3 1.4 1.6 1.4 2.9 0 1.3 1.1 3.6 2.5 5.1 2.9 3.1 3 3.9 1 5.6-2.7 2.2-1.8 5.9 2 8.1 1.9 1.1 3.7 3 4.1 4.2.3 1.2 1.5 3.2 2.6 4.4 2 2.1 2 2.4.5 5.6-2 4.1-5.2 7.1-6.6 6.2-.6-.3-1.1.1-1.1.9 0 1.6-1.6 2.1-5.7 1.7-1.3-.1-2.3.3-2.3.9 0 .5.4 1 .9 1s1.1 1.6 1.3 3.5c.3 2.6 0 3.5-1.1 3.5s-1.2.3-.4 1.1c.9.9 1.8.8 3.8-.5 2.5-1.6 2.6-1.6 3.4.6 1.2 3.2.7 3.7-3.5 3.1-2-.3-3.9-.1-4.3.4-.3.4-1.8 1.4-3.3 2-1.6.7-2.8 1.9-2.8 2.7 0 2-6.7 7.6-10 8.3-1.6.3-3.9 1.6-5.1 2.9-1.2 1.3-3 2.4-4 2.4s-4.8 1.2-8.6 2.7c-5.1 2.1-6.7 3.2-6.5 4.5.4 2.1-6.2 5.1-9.1 4.2-1.2-.4-1.7-.2-1.3.4 1 1.6-2.5 3.1-5 2.2-1.3-.5-2.4-.5-2.6 0-.2.4-2 .2-4.1-.5-4.6-1.6-12.6-.7-17.5 1.9-1.8.9-3.8 1.4-4.4 1-.7-.4-.8-.3-.4.4s.1 1.2-.6 1.2c-3.9.1-4 1.7-.2 7.4 2.1 3.1 4.7 5.9 5.8 6.2 1.1.4 2.6 1.3 3.4 2.1.9.9 2.4 1.2 4.3.8 1.7-.4 3.6-.1 5.1.9 2 1.3 2.7 1.3 4.9.2 4-2 7.9-2.5 8.7-1 .9 1.6 6.9 6 10.1 7.4 2 .9 2.8.7 4.8-1.2l2.4-2.3-.6 3c-.3 1.7-.7 3.6-.9 4.4-.1.7-1 1.7-1.9 2.3-.9.5-1.7 1.8-1.7 2.8 0 1.1-.5 2-1.1 2-.8 0-.9 1.1-.5 3.2.4 2.2.1 3.7-1 4.9-.9 1-1.4 2.5-1.1 3.4.8 2 5.7 2 5.7-.1 0-.8.5-1.2 1-.9.6.3 1-.1 1-.9 0-.9-.4-1.6-.9-1.6s-1.1-1.1-1.3-2.5c-.3-1.4-.2-2.5.1-2.5 2 .1 3.3 2.2 3.3 5.5s.2 3.6 2.2 3.1c1.1-.3 2.7-.6 3.4-.6.6 0 1.2-1.1 1.2-2.5 0-2.6.8-2.9 6.3-2.5 1.5.1 2.7-.3 2.7-.9 0-.6.7-1.1 1.5-1.1.9 0 1.5-.9 1.5-2.3 0-1.3.5-2.8 1.1-3.4.8-.8.8-1.3 0-1.7-1.9-1.2-1.2-2.6 1.3-2.6 4.6 0 8.8-1.3 9.4-2.9.8-2 2.8-4.1 4-4.1.5 0 1.2-.9 1.5-2 .3-1.1.1-2-.4-2s-.9.4-.9 1c0 .5-.9.1-2.1-1.1-1.6-1.6-1.8-2.3-.8-3.5.6-.8 1.8-1.4 2.6-1.4 1.3 0 1.3-.3.3-1.5s-.8-2 1-4.2c2-2.5 2-2.8.4-4-1.6-1.1-1.6-1.4-.1-3.7 1.6-2.3 1.6-2.5-.3-3.1-2.8-.9-1.3-3.5 2-3.5 4.2 0 8.4-1.8 10.4-4.5 1.4-1.9 2.8-2.5 5.6-2.5 3.3 0 3.9-.4 5.5-4 1.3-3 2.3-3.9 3.5-3.5 1.4.4 1.6.1 1.3-2-.4-1.8 0-2.7 1.3-3.1 1.1-.4 2.7-1.4 3.7-2.2 1.1-1 1.7-1.1 1.7-.4 0 1.5 4.1 6.2 5.4 6.2.5 0 1.8-.7 2.8-1.7 1.1-.9 1.8-1.1 1.8-.5 0 .7.7 1.2 1.5 1.2.9 0 1.5-.9 1.5-2.2 0-2 .1-2 2-.3 1.3 1.2 2.7 1.5 4.5 1.1 3.2-.8 3.2-3.4 0-4.6-1.4-.5-2.5-1.7-2.5-2.6 0-1.8-4-9.5-5.5-10.6-.5-.4 0-.8 1.3-.8 2.8 0 2.8-1.1 0-2.9l-2.2-1.4 2.3-.9c1.4-.5 2.1-1.4 1.8-2.2-.3-.8-.1-1.6.4-1.8 1.8-.6-.2-3.8-2.3-3.8-1.5 0-1.8-.5-1.4-1.6.4-.9-.1-2.8-.9-4.1-1.4-2.1-1.4-2.5 0-3.9 1.9-1.9 1.9-4.8.1-6.3-.8-.7-1.7-2.5-2.1-4-.5-2.3-1-2.7-2.9-2.4-1.5.3-3-.2-4-1.4-3.6-4-6.6-8.1-6.6-9.1 0-.5-2-1.7-4.4-2.6-6.2-2.4-9.5-5.2-8.9-7.5.3-1 0-2.2-.6-2.5-.6-.4-1.1-1.7-1.1-3s-.9-3.1-2-4.1c-1.1-1-2-3.1-2-4.8 0-3.9 2.1-10.7 3.3-10.7.5 0 .7-1.4.5-3-.3-2.1-.1-2.9.7-2.6.7.2 1.8-.7 2.4-2 1.6-3.6 1.4-4.9-.5-3.3-1.3 1-1.7 1-2.5-.2-.5-.8-.9-1.7-.9-2.2 0-.4-.6-.7-1.4-.7-.8 0-1.6-.7-2-1.5-.7-1.9-4.5-2-5.2-.1zM43.61 187.552c-2.5.6-2.7.8-1.2 1.4.9.5 1.7 1.7 1.7 2.8 0 1 .4 1.7.9 1.3.5-.3 1.2.4 1.6 1.5.4 1.1 1.1 1.8 1.6 1.4.5-.3.7-1.5.3-2.6-.4-1.2-.1-2.4.7-2.8 1-.7 1-1.1 0-2.4-.8-.9-1.6-1.5-2-1.5-.3.1-1.9.5-3.6.9zM540.11 210.452c0 .7-.9.9-2.5.5-2.2-.5-2.7-.2-3.6 2.5-.7 2.1-1.8 3.1-3.1 3.1-1.5 0-1.9.5-1.5 2 .3 1.2-.1 2.4-1.1 2.9s-1.6 1.2-1.4 1.5c.7 1.7 0 1.7-1.7.2-1.5-1.4-2.4-1.5-4-.7-1.1.6-3.8 1.1-6 1.1-3 0-4.4.6-5.9 2.5-1.1 1.4-2.4 2.5-3 2.5-.5 0-1.2.7-1.6 1.5-.3.8-1.8 1.5-3.2 1.5h-2.7l2.3 2.5c1.3 1.4 3.1 2.5 4 2.5.9 0 2.5 1 3.6 2.1 1 1.2 2.9 2.5 4.2 3 1.8.7 2.1 1.4 1.6 3.4-.6 2.3-.3 2.5 2.4 2.5 1.7 0 5.7.7 8.9 1.5 7.2 1.9 8.4 1.9 7.7 0-.9-2.2 2.3-3 4.1-1.1.9.9 2.6 1.6 3.7 1.6 1.7 0 2-.5 1.6-3-.3-1.7-.1-3.3.3-3.6.5-.2.6-1.1.2-1.9-.6-1.7 1.2-2.1 2.2-.5.9 1.4 2.5.3 2.5-1.7 0-.9-.6-1.3-1.4-1-1.7.7-2.7-1.3-1.9-4.1.3-1.3-.2-2.7-1.6-3.8-1.1-1-1.8-2.1-1.5-2.6.3-.4-.8-1.3-2.3-2-2.7-1.2-6.2-4.5-6.3-6.1 0-.4.7-.7 1.5-.7s1.5-.4 1.5-.8c0-.5.6-1.6 1.3-2.5 1-1.3 1.9-1.5 4.9-.8 2.9.7 3.8.6 4.3-.7.7-1.9-.2-2.9-3.7-3.7-1.8-.5-2.8-.3-2.8.4zM495.61 230.552c-.3.5-.1 1 .4 1 .6 0 1.1-.5 1.1-1 0-.6-.2-1-.4-1-.3 0-.8.4-1.1 1zM65.91 238.252c.7.3 1.6.2 1.9-.1.4-.3-.2-.6-1.3-.5-1.1 0-1.4.3-.6.6z"/><path d="M554.91 242.652c-2.5 1.4-2.2 2.6.6 3.1 2 .4 2.3.1 2.2-1.9-.1-2.6-.4-2.7-2.8-1.2zM420.11 250.552c0 .5.5 1 1 1 .6 0 1-.5 1-1 0-.6-.4-1-1-1-.5 0-1 .4-1 1zM86.11 252.452c0 .4-1.1 2-2.5 3.5-2.6 2.8-2.4 3.1 2.7 3.9 2.3.3 2.8 0 3.3-2.4.4-1.6 1.1-3.1 1.6-3.4 1.9-1.2.8-2.5-2.1-2.5-1.6 0-3 .4-3 .9zM135.11 271.052c-1.8 1.9-2 2.5-.8 2.5 1.9 0 5.2-3.6 4-4.4-.5-.3-2 .6-3.2 1.9zM127.31 275.252c-1 .4-1 .8-.1 1.9.9 1.1.8 1.4-.6 1.4-1.7 0-1.7.1 0 2 1 1.1 2.3 1.9 2.9 1.7.6-.2 2.8.7 4.8 2 4.7 2.9 5.8 2.9 5.8 0 0-2.8-3.7-9-4.9-8.2-.5.3-1.2.1-1.6-.5-.6-1-4-1.2-6.3-.3zM590.11 281.052c-1.9 2.3-.8 2.6 1.9.4 1.6-1.3 1.8-1.9.8-1.9-.8 0-2 .7-2.7 1.5zM580.41 286.352c-.9 2.3 1.8 3.2 4.9 1.6 1.5-.8 2.8-1.9 2.8-2.4 0-1.5-7.1-.8-7.7.8zM123.11 288.652c0 .5.5.7 1 .4.6-.3 1-.8 1-1.1 0-.2-.4-.4-1-.4-.5 0-1 .5-1 1.1zM118.11 290.252c0 .5.4 1.4.9 2.1.6 1 1 .9 1.4-.7.3-1.4 0-2.1-.9-2.1-.8 0-1.4.3-1.4.7zM111.71 296.252c-.4.5-2.4.8-4.4.8-2.6 0-3.7.5-3.8 1.5-.1.8-.2 2.5-.2 3.6-.1 1.2-1.1 2.4-2.2 2.7-1.1.3-2 1.2-2 2.1 0 .9.8 1.6 2 1.6 1.1 0 2 .4 2 1 0 .5 1.5.1 3.2-.8 2.3-1.3 3.5-2.9 4.1-5.4.5-2.2 1.8-4 3.3-4.8 1.3-.8 2.4-1.7 2.4-2.2 0-1-3.4-1.1-4.4-.1zM92.61 311.452c-.3.5-.1 1.2.4 1.5.5.3 1.1-.1 1.5-.9.6-1.6-.9-2.1-1.9-.6zM470.81 322.552c.3 1.1 1 2.1 1.7 2.2.6 0 1.6.2 2.1.3.6.2 1.6.3 2.3.4.6 0 1.2 1 1.2 2 0 2.5 2 3.8 3.1 2 .6-1.1 1.4-1 4.3.3 2.9 1.4 3.5 1.5 4 .2.4-1 2.2-1.4 6.6-1.4 5.3 0 6.1-.2 5.8-1.8-.2-1.1-1.3-1.7-3.3-1.7-4.2-.1-11.6-1.5-13.8-2.7-1.4-.7-2.4-.5-3.7.7-1.9 1.7-3.1 1.4-10.2-2.2-.3-.2-.4.6-.1 1.7zM595.11 339.152c0 .8.5 1.2 1 .9.6-.4.8-1.1.5-1.6-.9-1.4-1.5-1.1-1.5.7zM587.11 355.352c0 1.1-.6 2.3-1.2 2.6-.7.4-.2.4 1.2.1 1.4-.2 3.5-.5 4.8-.5 1.4 0 2.1-.4 1.7-1.1-.4-.5-1.2-.8-1.8-.6-.7.2-2-.2-2.9-1.1-1.6-1.4-1.8-1.3-1.8.6zM425.51 355.952c-.3.9-1.2 1.2-2.1.9-1.3-.5-1.5-.2-1.1 1.5.5 1.8.2 2.2-1.8 2.2-3.2 0-5.9 4.1-4.5 6.9.8 1.4.8 2.2.1 2.6-.6.4-.8 1.5-.5 2.6.4 1 .2 1.9-.4 1.9-.6 0-1.8 1.4-2.6 3-1.8 3.5-1.2 7.2 1.1 6.3.8-.3 1.4.1 1.4.8 0 1.2.2 1.2.9 0 .7-1.1 1.3-1 3.4.4 2.4 1.5 2.8 1.5 6.1 0 1.9-.9 4-1.3 4.7-.9.9.5 1-.1.6-2.4-.6-2.8-.4-3.2 1.4-3.2 1.1 0 1.7-.4 1.4-1-.4-.6 0-2.1.9-3.4 1-1.6 1.3-3.6.9-6.2-.7-4.7-1.9-6.4-4.4-6.4-1.4 0-2.1-.9-2.6-3-.7-3.5-2.1-4.8-2.9-2.6zM581.71 364.052c-.3.8-.1 1.7.5 2 .5.4.6 1.2.2 1.8-1 1.7-1.1 4.7-.1 5.3 1.4.9 4.8-.7 4.8-2.2 0-1.1.6-1.3 2.3-.8 1.2.4 2.6 1.2 3 1.8.6.7.7.4.3-.7-.3-1-.6-2.3-.6-2.8s-1.1-.9-2.4-.9c-1.4 0-3.1-.8-3.8-1.8-1.9-2.7-3.5-3.4-4.2-1.7zM577.71 369.852c.3 1 .9 1.5 1.2 1.2.3-.3 0-1.1-.7-1.8-1-.9-1.1-.8-.5.6zM531.41 373.152c.1 1 .6 2.5 1.1 3.2.5.8.2 2-.8 3.1-2.5 2.7-1.9 4.1 1.7 4.1 1.7 0 4.7.9 6.5 2l3.3 2-.3-3.2c-.2-2.5-.8-3.3-2.3-3.3-1.4 0-1.9-.6-1.7-2 .2-1.4 0-1.6-.6-.7-.5.7-1.6 1-2.6.6-1.2-.4-1.4-1-.6-1.9.7-.8.3-1.9-1.5-3.5-2.3-2.2-2.5-2.2-2.2-.4zM590.61 375.552c.4.6 1.1.8 1.6.5 1.4-.9 1.1-1.5-.7-1.5-.8 0-1.2.5-.9 1zM550.91 380.652c-1.4.7-1.5 1.5-.8 3.4.9 2.3.7 2.5-2.4 2.5-2.5 0-3.5.6-4.4 2.5-.6 1.4-1.6 2.5-2 2.5-.5 0-.7 1.1-.4 2.5.3 1.7-.1 2.7-1.2 3.1-.8.3-1.8 2.1-2.2 4-.3 1.8-1.7 4.6-3 6.1-2.3 2.7-3 5.3-1.8 6.6.9.9 3.4-1.9 3.4-3.8 0-.8.7-1.8 1.5-2.1 1.9-.8 4.8 1.5 4.1 3.3-1 2.4 2.4 1.4 3.5-1.1 1.2-2.5 4.5-4.1 5.4-2.5.3.4 1.6.4 2.9-.2 1.7-.8 2.2-1.8 2.1-4.4 0-1.8-.7-4-1.4-4.9-.9-1-1-1.6-.2-1.6.6 0 1.1-.7 1.1-1.5s.5-1.5 1-1.5c.6 0 1-.9 1-1.9 0-1.1.9-2.3 2-2.6 1.4-.4 1.9-1.3 1.6-2.3-.3-.9-.8-2.9-1.2-4.5-.5-2.2-1.1-2.7-3.8-2.7-1.7 0-3.9.5-4.8 1.1zM521.71 384.452c.4 1.4.7 3.4.8 4.3 0 2.2-.2 2.1 4.1.4 5.5-2.3 4.4-6.1-1.8-6.8-3.7-.4-3.8-.3-3.1 2.1zM516.11 412.552c0 .6-1 1.5-2.3 2.1-1.8.8-2.2 1.7-1.9 4 .3 2-.1 3.1-1.1 3.5-.9.3-1.3 1.2-1 2.2.5 1.1.2 1.4-.9.9-.9-.3-1.9 0-2.2.8-.3.8.3 1.7 1.5 2 1 .4 1.9 1.3 1.9 2.1 0 1 1.2 1.4 4.1 1.4 3.4 0 4-.3 3.5-1.6-.3-.9.3-2.9 1.5-4.6 1.7-2.3 2.7-2.8 4.5-2.4 1.7.5 2.6.2 3-.9.4-.8 1.6-1.5 2.8-1.5 1.9 0 2.2-.4 1.8-2.9-.4-2.9-.6-3-5.4-2.9-3.2 0-5.6-.6-6.7-1.6-2-1.8-3.1-2-3.1-.6z"/></g></svg>