<svg version="1" xmlns="http://www.w3.org/2000/svg" width="659.697" height="655.363" viewBox="0 0 494.773 491.522"><g fill="#222"><path d="M256.06 4.159c.2 2.4.6 3.7.8 3 .3-.6 1.1-1.2 1.8-1.2 1.1 0 1.1-.6.2-3-1.7-4.5-3.3-3.7-2.8 1.2zM244.86 9.059c-1 1.1-1.5 2.4-1.2 2.9.4.6-.1 1-.9 1-1.2 0-1.6 1-1.6 3.5 0 3.4-.5 3.8-4.5 3.8-.5 0-1 1.3-1.1 2.9-.1 1.8.4 2.8 1.3 2.8 1.9 0 1.3 3.2-.7 3.7-1.2.4-1.3.3-.1-.5 1.1-.8.9-1.1-.8-1.7-1.1-.3-2.1-1.1-2.1-1.7 0-.7-.5-.6-1.5.2-.8.6-1.9.9-2.4.5-.6-.3-1.8.3-2.8 1.5-1 1.1-2.7 2-3.9 2-1.2 0-2.8 1-3.6 2.1-1.2 2-1.8 2.1-6 1.2-3.4-.8-5.2-.7-6.9.3-1.3.7-3.4 1-4.6.7-1.3-.3-2.3-.1-2.3.5 0 .7-2.6 1-7.1.8-3.9-.1-7.3.2-7.5.6-.3.4-1.8.8-3.3.8-3.5 0-6 2.4-3.5 3.4 1 .4 2.2 0 2.9-1.1 1.1-1.5 1.3-1.5 2.4.5 2.3 4.3 1.2 5.7-4.6 5.5-.7-.1-1.3.3-1.3.8s-.6.6-1.4.3c-1.2-.5-1.3 0-.5 3.1.7 2.5.7 4.1.1 4.7-.6.6-.8 1.6-.6 2.3.3.7.1 1.6-.5 2-.7.4-.8 1.2-.2 2.3 1.3 2.4.7 8.8-.7 8.5-1.6-.4-1.5 1.6.3 4.7 2 3.4 1.9 4-.7 4-2.1 0-2.1.1.5 1.5 1.6.8 3.4 1.4 4 1.2.7-.1 1.2 1 1.2 2.5.1 1.5.4 3 .7 3.4.4.3.4 1.2.1 2-.4 1 .3 1.4 2.1 1.4 1.5 0 2.9.6 3.2 1.4.6 1.5 5 1 7.3-.8 1-.8 1.8-.5 3.1 1.2 1.5 1.7 2.9 2.2 6.9 2.2s5.2.4 6.1 2c.6 1.1 1.7 2 2.6 2 .8 0 1.7.7 2 1.5.5 1.1 1 1.3 1.9.5.9-.7 1.9-.5 3.6.8 1.3 1.1 3.6 2.2 5 2.5 3 .8 4.6 4.5 2.3 5.4-1.8.7-1.8 1.8.2 3.7 1.8 1.8 1 8-.9 7.3-.7-.2-2.2.7-3.5 2.1-2.3 2.4-2.3 2.4-2.9.3-.3-1.1-1.2-2.1-1.9-2.1-2.1 0-1.7 1.9.9 4.1l2.2 1.8-2.7.1c-1.8 0-2.8-.5-2.8-1.5 0-.8-.4-1.5-1-1.5-.5 0-.7.6-.4 1.4.5 1.3-2.8 3-5.4 2.7-1.9-.3-.4 5.1 2.1 7 1.3 1.1 1.6 1.8.8 2.3-1.7 1.1-1.3 2.4.8 3.1 1.3.4 1.7 1.2 1.4 2.5-.3 1.1-1 2-1.5 2s-.2 1 .6 2.2c2.4 3.4-1.4 8.8-6.3 8.8-2.7 0-2.8.2-2.5 4.2.2 2.4.5 5.9.5 7.9.1 2.9.7 4 2.8 5 1.4.7 3.8 2.4 5.3 3.7l2.6 2.4 2.3-2.6c1.2-1.4 2.6-2.3 3.1-2 .4.3.8 0 .8-.5 0-.6.7-1.1 1.5-1.1 1.2 0 1.5-1.3 1.5-5.5 0-3 .5-5.5 1-5.5.6 0 1-.9 1-2.1 0-2.6 2.1-2 3.8 1.2.8 1.6 1.1 4.4.8 8.1-.3 3.3-.1 6 .4 6.3 1.3.8 1.3 6.6 0 9.9-.7 2.1-1.5 2.5-3.7 2.3-3-.4-5.7-1.3-8.5-2.8-1.9-1-2.3-.2-.9 2 .9 1.3-.5 7-1.9 8.1-.3.3-1.6 2.2-2.9 4.3-1.5 2.5-2.7 3.5-3.5 2.9-.6-.5-1.8-1.1-2.6-1.4-2.1-.7-2.4 2.6-.4 4.3.8.6 1.4 1.8 1.4 2.5 0 .8.6 1.4 1.3 1.4 1.7 0 5 6.4 5 9.9 0 2 .5 2.7 1.6 2.5 7.2-1.3 7.2-1.3 6.5-4.2-.5-2.2-.4-2.5.6-1.5 1 .9 1.7.7 3.2-1.3 1.5-1.8 2.9-2.4 5.9-2.4 2.6 0 4.2.5 4.5 1.5.4.8 1.2 1.5 2 1.5.7 0 1.1-.6.8-1.4-.9-2.3 2.4-7.6 4.6-7.6 1.1 0 2-.5 2-1 0-1.5 3-1.2 3 .2.1.7 1.6 2.3 3.5 3.5 2.7 1.7 4.9 2.2 9.5 2.1 3.3 0 6.3-.5 6.6-1 .3-.4 1-.5 1.6-.2.6.4 1.4.1 1.8-.6 1-1.6 4-.6 4 1.4 0 .8 1.1 2.7 2.6 4.1 1.4 1.4 2.2 3 1.9 3.5-.3.6-.2 1 .3 1s1.2.8 1.4 1.8c.3 1 2.7 2.9 5.4 4.2 2.7 1.4 5.5 3.3 6.2 4.3 1.8 2.3 8.8 1.8 8.6-.7-.1-.9.2-1.3.7-1 .5.3.9.1.9-.5 0-.5-.4-1.3-1-1.6-.5-.3-1-1.4-1-2.3 0-1.2.3-1.3 1.2-.4 1.8 1.8 2.7 1.5 3.8-1.3.5-1.4 1.6-2.5 2.5-2.5 1.7 0 2.1-2.5.5-3.5-2.3-1.4-.7-2 5.3-2h6.2l-.3-2.8c-.3-2.5-.1-2.8 1.7-2.2 1.5.4 2.1.2 2.1-.9 0-.8-.4-1.8-1-2.1-.5-.3-1.5-1.5-2-2.6-1.1-1.9-1-1.9 2.6-.4 2.2.9 5.6 1.3 8.7 1.1 4.2-.3 5.6-1 7.9-3.5 1.5-1.7 3.5-3.1 4.3-3.1.9 0 1.3-.5 1-1-.4-.6 0-2.1.8-3.4 1.1-1.6 1.2-2.7.5-4-.6-1-.8-2.9-.5-4.3.4-2-.1-2.7-3-4.1-2.4-1.2-3.3-2.2-3.1-3.7.2-1.1-.6-2.9-1.7-4-1.6-1.6-2-3.3-2-8 0-3.4-.5-6.7-1.3-7.6-1.1-1.4-1-1.7.7-2.2 1.2-.3 2.5-1.6 3-2.9.5-1.3 1.6-3 2.5-3.7 1.7-1.4 2.3-8.1.7-8.1-.5 0-1.3-.9-1.6-2-.4-1.3-1.5-2-3.2-2-1.8 0-2.4-.4-2-1.5.4-.8.2-1.7-.3-2-.6-.4-1-1.9-1-3.6 0-1.9-.5-2.9-1.4-2.9-1.8 0-4.7-4-4-5.2.3-.5 0-1.5-.6-2.3-.7-.8-.8-2-.3-2.7 1.4-2.3.9-12.2-.7-13.5-2.2-1.7-.7-2.5 2.5-1.3 2.4.9 3 .8 3.8-.5.7-1.2 1.2-1.3 2.2-.5 1.8 1.5 5.8.3 5.1-1.6-.8-2.1 1.3-1.7 4.8 1 4 3 16.3 4.6 17.2 2.3.3-.9 1.3-1.3 2.5-1 1 .3 1.9.1 1.9-.5 0-1.2 4.5-2.1 7.1-1.5 1 .3 1.9 1.2 1.9 1.9 0 1.7-.1 1.7-3.5.4-2.4-.9-2.6-.8-2 1.1.6 1.9.5 2-1.6.9-1.9-1.1-2.1-1-1.6.4.4 1 .1 1.6-.8 1.6-1.7 0-2.1 2.6-.5 3.2.6.2-.1 2-1.5 4s-2.5 4.8-2.5 6.2c0 2-1 3.1-4.2 4.8-5.6 3-8.7 3.8-9.4 2.7-.3-.5-1.7-.9-3.1-.9-2 0-2.3.3-1.4 1.3.6.8 1 3.1 1 5.3-.1 6.5.6 8.7 3.2 9.8 3.4 1.5 4.2 2.5 6.6 8.1 1.9 4.4 2 5.2.7 6.6-1.3 1.4-1.2 1.8.6 3l2.1 1.4-2 6c-1.1 3.3-2.1 6.8-2.1 7.7 0 1.2-.8 1.8-2.1 1.8-1.7 0-2 .4-1.5 2.2.4 1.7-.1 2.8-1.6 4-2.2 1.6-2.2 1.7-.3 3.8 1 1.1 2.2 4.3 2.5 7.2.6 4.8.6 5.1-2 6.1-1.4.5-3.1 2-3.7 3.3-.9 2-.8 2.4 1.1 3 1.1.4 2.4 1.2 2.8 1.8.5.7 1.2.5 2.1-.7 1.2-1.8 1.5-1.7 5.2 1.5 2.1 1.8 6.3 5.8 9.2 8.9 5.8 6.1 9.4 7.6 15 6 2.1-.6 3.5-.5 4.2.2.8.8 1.4.8 2.3-.1 2.1-2.1 3.1-1.3 2.5 1.8-.6 2.7-.4 3 1.8 3 1.4 0 2.5.3 2.5.8 0 .4.9 1.3 1.9 1.9 1.6 1 2.6.9 5.1-.3 1.7-.9 3.7-1.3 4.5-1 .9.3 1.5-.1 1.5-1 0-.8-.6-1.4-1.2-1.3-5.2.6-8.9-2.1-5.7-4.2.9-.7.5-.8-1.3-.3-2.1.5-2.8.2-2.8-.9 0-1 .7-1.3 1.9-1 1.2.3 2-.2 2.4-1.6.3-1.4 1.3-2.1 3.1-2.1s2.4-.4 2-1.4c-.7-1.7 2.8-3 5.7-2.1 1.8.6 2 1.2 1.5 4.1-.4 1.8-1.3 4.6-2.1 6.1-1.4 2.6-1.3 2.9.4 3.7 5.8 2.6 5 13.9-1.4 19.8l-3 2.8 2.5 1.9c2.9 2.3 5.1 1.2 4.3-2.2l-.5-2.2 1.9 2.3c1.3 1.6 3.3 2.4 7 2.8 7 .9 10.1 0 10.9-3.2.5-2.1 1.1-2.4 3.1-1.9s2.4.2 2.2-1.2c-.4-2.4 2.7-8 5-9.3 1.1-.5 3.1-1 4.5-1 1.6 0 2.7-.7 3.1-2 .3-1.1 1-2 1.5-2 .4 0 1.8-1.1 3.1-2.5 1.3-1.3 3.3-2.5 4.4-2.5 1.4 0 1.6-.3.7-.8-.7-.5-1-1.6-.7-2.5.4-.9-.2-2.4-1.4-3.6-2.7-2.7-2.7-4.1-.1-4.1 1.8 0 1.9-.3 1-2-.6-1.1-1.7-2-2.4-2s-2.1-1-3.2-2.1c-1.9-2.2-1.9-2.2.5-1.4 1.6.5 2.1.4 1.7-.4-1.3-2.1 2.3-2.3 8.1-.5 3.2.9 6.3 2.1 7 2.6.7.5 1.3.4 1.6-.4.4-1 .9-.9 2 .4.8 1 2.2 1.8 3.1 1.8.9 0 2.4.8 3.5 1.9 1 1 3 2.1 4.4 2.5 2.2.5 2.4.3 2-1.4-.4-1.4 0-2 1-2 2 0 3-1.6 2-3.3-.4-.6-.6-2-.5-3 .2-1-.4-3-1.4-4.4l-1.7-2.6-1.6 2.2c-1.6 2.1-1.8 2.1-3.3.4-.9-1-1.8-3.1-2-4.8-.3-3.1-6.1-8-8.4-7.1-.7.3-1.8-.2-2.5-1.1-1.2-1.3-1.5-1.3-3.1.7-1.5 1.8-2.1 2-3.3 1-1.2-1-1.5-.9-1.5.5 0 1.3-.6 1.6-2.4 1.1-2-.5-2.7-.1-3.7 2.3-.7 1.6-1.7 2.7-2.1 2.5-.5-.3-.6-.9-.4-1.3.3-.4.8-3.5 1-6.8.5-5.6.4-6.1-1.9-7.3-1.4-.7-2.5-1.7-2.5-2.2 0-.4-1-.8-2.1-.8-1.8 0-2.1-.4-1.6-2.9.7-3.3-.5-4.7-4.3-5.4-3.3-.7-8.1-3.2-9.1-4.9-.6-.9-.9-.6-.9 1.1 0 1.7-.4 2.2-1.6 1.7-1.1-.4-1.4-.1-.9 1.3.4 1.3-.2 2.5-2.1 4-2.1 1.7-2.5 2.5-1.9 5 .5 2.6 0 3.8-3.1 7.6-2.1 2.5-4.6 4.5-5.6 4.5-1.1 0-2.3 1.1-2.8 2.6-1.4 3.5-3.7 1.6-3.6-2.8.1-2.6.6-3.3 2.9-3.9 4.2-1.1 5.7-2.8 5.7-6.5 0-2 .8-4 1.9-5.1 2.1-2 1.7-3.5-1.1-4.6-1-.3-1.8-1.3-1.8-2 0-.8-1.1-1.9-2.4-2.5-2.1-1-2.6-.8-3.1.8-.9 2.7-5.6 2.6-8.1-.1-1.1-1.2-2.6-1.8-3.7-1.5-1.7.4-1.8.1-1.1-3.7 1.1-5.7.6-12.8-.9-14.3-.4-.4-.7-2-.7-3.5 0-1.6-.8-3.4-1.9-4.1-1.4-1-1.8-2.3-1.5-5.5.2-3-.1-4.3-1.2-4.7-.9-.3-1.4-1.2-1.1-2 .3-.8-.3-3.1-1.4-5.2-2.4-4.9-2.4-6.4.2-6.4 1.8 0 2-.4 1.5-2.5-.4-1.4-.3-3.1.1-3.8.4-.7.8-3.9.8-7.3l.1-6-4.3-1c-3.3-.8-4.3-.7-4.3.2 0 .7-1.4 2-3.2 2.8-3.7 1.9-4.6 2-3 .4.9-.9.8-1.6-.6-3.1-1.2-1.4-1.3-2.1-.5-2.4 1.3-.5.7-3.3-.7-3.3-.4 0-1.1 1.1-1.4 2.5-.4 1.4-1.1 2.5-1.7 2.5-.6 0-.5-.8.2-2.3.7-1.2 1.2-2.3 1.1-2.5-.1-.1-.1-.5-.1-1 .1-.4.1-1.5 0-2.5-.2-1.1.5-1.7 1.8-1.7 1.4 0 2.1.8 2.3 2.7.2 1.6 1 2.9 1.9 3.1 1.7.3 1.8-.1 2.1-7.8 0-1.9.7-4 1.4-4.8.8-.7 1.7-2.5 2-4 .4-1.5 1.4-3.6 2.3-4.6 1.5-1.8 1.5-1.8-.9-.5-1.4.8-2.8 1.8-3.2 2.4-.4.5-.8-.4-.8-2-.1-2.8-.2-2.9-1-.8-.7 1.8-1.7 2.3-4.5 2.3-2.9 0-3.5.4-3.5 2.1 0 1.9-.4 2-3.2 1.4-5.2-1.1-9.1-.9-12.5.5-2.9 1.3-3.7 1.2-8-.8-2.6-1.2-6.5-2.3-8.5-2.4-2.1-.1-3.8-.7-3.8-1.3 0-1.6-3.3-4.5-5.2-4.5-1.6 0-5.5-3.8-7.3-7.2-.6-1.3-1.7-2.2-2.4-2-1.7.3-5.1-1.6-5.1-3 0-.6-.7-1.9-1.6-2.9-1.3-1.5-2-1.6-4.1-.6-2.3 1-2.8.9-4.1-1.1-.8-1.2-2-2.2-2.8-2.2-1.3 0-1.8-1.2-2.9-7.3-.4-2.6-1.9-5-4.7-7.8-2.2-2.2-4.4-3.7-4.7-3.3-.3.3.4 1.3 1.7 2.1 2.5 1.8 2.9 3.8.7 4.7-.8.3-1.5 1.4-1.5 2.4 0 4-8.8 4.9-10.3 1-.4-1-.6-1-.6-.1-.1 2-3.8 1.5-6.6-.9-1.9-1.7-2.5-3.1-2.5-6.5 0-3.2-.4-4.3-1.5-4.3-.9 0-2-1-2.5-2.3-1-2.6-6.7-8.7-8.1-8.7-.5 0-1.7-.8-2.7-1.8-2.5-2.3-9.8-6.2-11.4-6.1-.7 0-2.1.9-3.1 2zm-5.7 14.9c0 .5-.2 1-.4 1-.3 0-.8-.5-1.1-1-.3-.6-.1-1 .4-1 .6 0 1.1.4 1.1 1zm-53.5 63c.3.5-.1 1-1 1s-1.3-.5-1-1c.3-.6.8-1 1-1 .2 0 .7.4 1 1zm30.5 57.2c0 3.4-1.6 2.5-1.7-.9-.1-2.5.2-3.2.8-2.2.5.8.9 2.2.9 3.1zm7.4 7.3c-.4.8-.7 1.5-.9 1.5-.2 0-.5-.7-.9-1.5-.3-.9 0-1.5.9-1.5s1.2.6.9 1.5zm66.6 2.5c0 .5-.4 1-1 1-.5 0-1-.5-1-1 0-.6.5-1 1-1 .6 0 1 .4 1 1zm78 2.5c0 2 4 2.7 4 .7.1-1.1 1.4-.2 4.1 2.8 3.5 3.8 4 5 3.6 7.7-.4 2.5-.2 3.3.9 3.3.8 0 1.4.7 1.4 1.6 0 .8-.4 1.2-1 .9-.5-.3-1 .1-1 .9 0 1.9-.2 1.9-3.7.4-4.4-2-6.9-4.6-5.6-5.9.8-.8-.1-2.3-3.3-5.4-2.4-2.4-4.4-5-4.4-5.9 0-.8-.3-2.1-.6-3-.5-1.3-.2-1.4 2.5-.5 1.7.6 3.1 1.7 3.1 2.4zm-61.1 3.4c.2.1-.2.7-.8 1.5-.8 1-.8 2 .4 4.2 1.9 3.6 1.9 4.4 0 4.4-.8 0-1.5.8-1.5 1.8 0 2.4-1.9 4.2-3.6 3.5-.8-.3-1.4.1-1.4 1.1 0 .9-.8 1.6-1.9 1.6-1.1 0-2.3.4-2.6 1-.3.5-2.8 1-5.5 1-4.2 0-4.9.2-4.4 1.7.5 1.6.4 1.6-.8.2-.7-.9-2.5-1.9-4-2.3-4-.9-3.6-3.6.5-3.6 2 0 3.9-.8 5-2 2-2.4 3.5-2.5 7.1-.6 5.2 2.7 9.2-1.2 6-5.8-1.3-1.9-1.9-6.7-1-7.7.3-.3 6.8-.3 8.5 0zm79.1 16c1.6 3 1.2 3.6-1 1.6-2.1-1.9-2.6-3.5-1-3.5.5 0 1.4.9 2 1.9zm10.4 7.2l3.8 1.1-.6 4.8-.6 4.7 5.3 2.6c7.9 3.7 8.6 6.9 1.5 6.4-4.2-.4-8.8-3.2-9.5-5.8-.3-1-1.3-2.1-2.3-2.4-1.7-.6-3.1-3.7-3.5-8.1-.1-1.1-.5-2.6-.9-3.2-.9-1.5 1.6-1.5 6.8-.1zm-9 1.5c.3.8.2 1.2-.4.9-.6-.3-1-.2-1 .3s-1.1 1.4-2.5 2c-2.2 1-2.3 1-1.5-1.1.4-1.2 1.3-2.1 1.9-2 .6.2 1.1-.2 1.1-.7 0-1.6 1.7-1.2 2.4.6zm18.1 9.5c1.1 1.7-.1 2.1-1.5.4-.8-.9-.8-1.5-.2-1.5.6 0 1.4.5 1.7 1.1zm15.5 2.1c0 .6-.6.5-1.5-.2-.8-.7-1.5-1.4-1.5-1.6 0-.2.7-.1 1.5.2.8.4 1.5 1.1 1.5 1.6zm-2.6 2.3c.3.8.1 1.5-.4 1.5-.6 0-1-.7-1-1.5s.2-1.5.4-1.5.6.7 1 1.5zm-65.9 2.5c.3.5.1 1-.4 1-.6 0-1.1-.5-1.1-1 0-.6.2-1 .4-1 .3 0 .8.4 1.1 1zm67.5 1.4c0 .2.3 1.2.6 2.1.6 1.3.1 1.6-2.2 1.3-3.8-.4-4.7-3.8-1-3.8 1.4 0 2.6.2 2.6.4zm-2.7 7c.3.8 0 2-.8 2.6-1.1.9-1.6.7-2.4-.9-.8-1.4-.8-2.1.2-2.4 2-.9 2.5-.8 3 .7zM283.16 18.059c0 .5.5.7 1 .4.6-.3 1-.8 1-1.1 0-.2-.4-.4-1-.4-.5 0-1 .5-1 1.1z"/><path d="M286.16 19.959c0 .5-.7.7-1.5.4-2.2-.9-1.9 1.8.5 4.4 2 2.1 5 2.9 6.3 1.6.9-.9-2-6.1-3.8-6.7-.8-.4-1.5-.2-1.5.3zM407.56 30.559c.4 1-.4 2.1-2.5 3.2-2.8 1.5-3 2-2.3 5.2 1 5.4 1.1 11.9 0 11.3-.5-.4-.6.4-.3 1.8.4 1.3.7 2.9.7 3.6 0 1.3 6.8 5.7 9.2 5.9 1 .1 2.5-1 3.3-2.3 1.2-1.8 2.1-2.2 3.8-1.7 1.2.3 1.9.3 1.4-.1-.4-.5 0-1.6.8-2.4 1.9-2.2 2.2-8.5.5-10.6-.9-1.1-1-1.9-.2-2.7.8-.8-.7-2.4-5.6-6-3.7-2.7-6.8-5.4-7-5.9-.2-.5-.8-.9-1.4-.9-.6 0-.7.7-.4 1.6z"/><path d="M422.56 56.259c.3 1 .6 2 .6 2.3 0 .2.7.1 1.5-.2.8-.4 1.5-1 1.5-1.6 0-.5-.5-.6-1.1-.2-.6.3-1.6 0-2.1-.7-.8-1.1-.8-1-.4.4zM420.56 61.859c1.2 1.3 1.4 2.1.6 2.6-1.7 1-.1 2.5 2.7 2.5 2.5 0 2.5-.1 1-1.8-1-1-1.7-2.6-1.7-3.5 0-1.1-.8-1.7-2.2-1.7-2 0-2 .1-.4 1.9zM452.66 64.959c-.3.6-1.5 1-2.6 1-1 0-1.9.4-1.9 1 0 1.6-4.2 5-5.4 4.3-.6-.3-.7-.2-.3.2.4.5 1.9 1.1 3.3 1.2 3.1.5 6.4 3.2 6.4 5.5 0 .9.8 1.9 1.8 2.2 2.4.8 5.8 7.6 3.8 7.6-.7 0-2 1-2.8 2.2-1.3 2-1.8 2.1-3.2.9-1.3-1.1-1.7-1.1-2.2.3-.8 2-6.4 3.6-12.6 3.6-3.7 0-4.8.4-4.8 1.6 0 .8-.5 1.2-1.1.9-.6-.4-.9-.1-.8.6.1.8-.3 3.3-1 5.7-.7 2.6-.9 4.8-.3 5.5 1.4 1.9.2 10.7-1.4 10.7-1.1 0-1.2.4-.2 1.9 1 1.6.7 2.6-1.5 5.9l-2.6 4 2.9 1.1c2 .7 3 .7 3 0 0-.6.5-.7 1-.4.6.3 1 1.3 1 2.1 0 1.8 2.5 4.5 3.4 3.9.3-.3.4-.2.1.1-.2.4 0 1.5.6 2.6.8 1.5.5 2.5-1.4 4.8-1.5 1.8-2.8 2.5-3.4 1.9-.6-.6-2.1-.5-4.1.2-2.7.9-3 1.3-1.9 3 .6 1 1.8 1.9 2.5 1.9 1.3 0 3.5 4.3 3.6 6.9.1 1.6 2.6 2.8 2.6 1.3 0-.6 1.3-1.3 2.9-1.7 2-.4 3.1-1.4 3.5-3.1.5-1.7 1.6-2.6 3.5-3 2.3-.5 3.3-1.5 4.5-4.8.9-2.3 1.6-4.7 1.6-5.4 0-.7.4-1.2.8-1.2.5 0 .8-2.5.7-5.5-.2-5.1-.1-5.5 2.1-5.5 1.2 0 2.6-.5 2.9-1 .3-.6-.3-1-1.4-1-1.2 0-2.1-.7-2.1-1.5 0-1.9 1.1-1.9 3.6-.1 1.4 1 2.2 1.1 3.2.4 1-.8 1.7-.6 2.8 1.1 1.2 1.6 1.9 1.9 2.9 1.1 1.4-1.2 2.5.6 2.5 4.1 0 1.6.4 1.8 1.8 1.1.9-.5 2.2-.8 2.8-.5 1 .3 1.2-1.9.6-6.3-.1-.6-1.6-1.7-3.2-2.4-2.4-1-2.8-1.5-1.9-2.7 1-1.1 1.5-1.1 3.6.2 2.6 1.7 2.6 1.7 7.9-5.3.9-1.2 1.7-1.3 4.2-.4 2.9 1 3.2.9 3.2-.9 0-1.1-.5-2.9-1.1-4-.6-1.2-.7-2.8-.3-3.7.4-.9.6-2 .6-2.5-.1-.4.7-.7 1.9-.7 3 0 2.2-4.4-.8-4.8-1.3-.2-2.3-.8-2.3-1.4 0-.6-.7-1.9-1.5-2.8-1.3-1.4-1.2-1.9.1-4.5.9-1.7 1.6-5.3 1.7-8l.2-5-4.6.3c-3.2.2-4.9-.1-5.8-1.2-.8-.9-2.4-1.6-3.7-1.6-1.2 0-2.9-.9-3.7-2.1-1-1.3-1.7-1.6-2.2-1-1.1 1.9-4.3-.6-5-3.9-.7-3.2-5.8-6.9-7-5zm-7.7 73.2c.9 2.3.9 2.8-.3 2.8-2 0-4.4-3.8-3.8-6.1.5-1.7.8-1.8 1.8-.7.6.7 1.7 2.5 2.3 4zm-4.8 3.4c0 .8-.4 1.2-1 .9-.5-.3-1-1.3-1-2.1s.5-1.2 1-.9c.6.3 1 1.3 1 2.1zM155.16 77.959c0 .5.9 1.4 2 2 1.1.6 1.9 1.6 1.7 2.2-.1.7.7 1.3 1.8 1.5 1.1.2 3.4 1.1 5.2 2 2.6 1.4 3.4 1.4 4.7.4.9-.7 1.3-1.7 1-2.2-.3-.5 0-.9.5-.9.6 0 1.1-.5 1.1-1 0-.6-1.2-.4-2.9.4-2.6 1.4-3.3 1.4-7-.2-2.3-.9-4.4-2.5-4.7-3.5-.6-1.8-3.4-2.4-3.4-.7zM219.16 116.859c0 .5.5 1.3 1 1.6.6.3 1 .2 1-.4 0-.5-.4-1.3-1-1.6-.5-.3-1-.2-1 .4zM201.16 144.959c0 1.8.3 1.9 2 .8 1.4-.9 1.6-1.4.7-2-2-1.3-2.7-.9-2.7 1.2zM196.16 149.959c-1.7 1.7-2.8 1.9-5.7 1.4-3.5-.7-3.6-.6-2.9 2 .5 2.1.3 2.6-1.3 2.6-1.1 0-2.3.5-2.7 1.1-.3.6-1.9.9-3.5.7-2-.3-2.9 0-2.9.9 0 .7-.9 2.2-2 3.3-2.7 2.7-2.5 3 1.1 3 1.8 0 4.8 1 6.8 2.2 2 1.3 3.8 2.2 4.1 2.1.3-.1 1.5 0 2.7.4 3.2.8 6-.4 4.5-1.9-1.9-1.9-1.4-2.9 1.2-2.2 2.5.6 3.6-1.3 3.6-6.9 0-1.5.5-2.7 1.1-2.7.7 0 .8-.7.4-1.8-.4-.9-.7-2.7-.6-4 .1-2.7-1.3-2.8-3.9-.2zM164.66 170.959c.3.5 1.1 1 1.6 1 .6 0 .7-.5.4-1-.3-.6-1.1-1-1.6-1-.6 0-.7.4-.4 1zM192.86 172.059c-1.6 1-1.6 1.2.4 4.1 1.2 1.7 2.3 4.5 2.4 6.3.3 4.7 1.5 6.2 3.1 4 1.1-1.4 1-2-.2-3.3-1.1-1-1.3-2.5-.9-5.1.7-4.5-1.8-7.6-4.8-6zM164.16 174.959c-1.2.8-1.1 1 .7 1 1.2 0 2.5-.5 2.8-1 .8-1.3-1.5-1.3-3.5 0zM164.16 184.359c0 1-1.3 1.6-3.7 1.8-3.2.2-3.7.6-3.5 2.3.2 1.1.9 2.3 1.4 2.6.6.4.8 1.4.5 2.3-.7 1.8 1.3 2.2 3 .5 1.4-1.4 7-1.4 11.8 0 7.3 2.2 8.8 2.5 8.1 1.3-.4-.7-.2-2 .3-3.1.8-1.4.6-2.2-.7-3.3-2.7-2.3-7-3.8-10.7-3.8-1.9 0-3.7-.5-4-1-.9-1.5-2.5-1.2-2.5.4zM193.46 188.459c-.7.8-1.3 1.9-1.3 2.5 0 .5-.3.9-.7.8-.5-.1-2.2.7-3.9 1.8-3.2 1.9-3.2 2-1.3 4.3 1 1.3 1.9 2.9 1.9 3.7 0 .8 1.1 1.4 2.8 1.5 1.5.1 4.1.3 5.7.5 5.5.7 5.7 0 2.4-7.8-3.6-8.6-4-9.1-5.6-7.3zM207.16 195.359c0 .9.5 1.6 1 1.6.6 0 1-.4 1-.9 0-.6-.4-1.3-1-1.6-.5-.3-1 .1-1 .9zM492.66 209.959c-.3.5.1 1 1 1s1.3-.5 1-1c-.3-.6-.8-1-1-1-.2 0-.7.4-1 1zM237.46 217.459c.4.8.2 1.7-.3 2-.5.3-.7 1.2-.4 1.9.4.9-.5 1.6-2.5 2.1-2.3.5-3.7.1-6-1.6-3.5-2.6-3.6-2.5-4.4 1.7-.4 2.3 0 3.7 1.6 5.5 1.2 1.4 2.7 3.4 3.3 4.5.8 1.2 2.3 1.9 4.5 2 3.3 0 3.4.2 3.3 3.7-.1 2 .3 3.7.7 3.7.5 0 .9-.4.9-.9 0-2.4 9.8 2.5 14.4 7.3 2.7 2.8 5.6 5 6.3 4.8.7-.2 1.3.4 1.3 1.3s-.4 1.3-1 1c-.6-.3-.7.1-.4.9.3.9 1.2 1.6 1.9 1.6s1.8.7 2.5 1.5 1.7 1.5 2.2 1.5c.6 0 .8-.7.4-1.5-.9-2.5.5-4.5 3.1-4.5 2.1 0 2.3-.3 1.4-1.4-.6-.8-1-1.8-.9-2.4.3-1.1-5.8-8.1-7.2-8.3-.6-.1-1.3-.2-1.7-.3-2.5-.5-11.3-8.1-12.3-10.6-.7-1.6-1.8-3.4-2.6-4.1-1.8-1.5-4.4-6.7-4.4-8.9 0-1.7-1.8-4-3.3-4-.5 0-.7.7-.4 1.5zM373.66 224.959c.3.5.8 1 1.1 1 .2 0 .4-.5.4-1 0-.6-.5-1-1.1-1-.5 0-.7.4-.4 1zM369.66 226.959c-.3.5-1.7 1-3.1 1-1.4 0-2.4.6-2.4 1.4 0 .7-1 2-2.2 2.8-1.4.9-1.9 2-1.5 3.1.8 2.1 2.7 2.2 2.7.2s2.9-1.9 5.2.2c1.5 1.3 2.3 1.4 4.3.5l2.5-1.1-2.1-3.5c-1.1-2-1.8-4-1.4-4.6.3-.5.2-1-.4-1-.5 0-1.3.4-1.6 1zM305.16 228.859c0 .5 1.1 1.1 2.5 1.3 2 .4 2.3.3 1.4-.8-1.3-1.6-3.9-1.9-3.9-.5zM376.86 233.659c-1.5 5-1.8 8.5-.9 7.9 1-.6 6.8 1.9 7.8 3.5.3.5 0 1.7-.7 2.5-1 1.3-1 1.7.2 2.5 1.8 1.1 2.2 1.1 5.4-.1 1.8-.7 2.5-1.5 2.1-2.5-.3-.9 0-1.5.9-1.5 1 0 1.5-1 1.5-3.1 0-1.7.7-3.8 1.6-4.7 1.3-1.3 1.4-1.7.3-2.1-.7-.2-2-1-2.7-1.8-1.6-1.6-3.9-1.7-4.4-.2-.4 1.1-4.2.4-9-1.6-1.1-.4-1.8-.1-2.1 1.2zm9 13.5c-.3.8-.6.5-.6-.6-.1-1.1.2-1.7.5-1.3.3.3.4 1.2.1 1.9zM64.36 240.759c-2.9 1.6-4.7 2.1-5.5 1.4-.7-.5-2.4-1.2-4-1.6-2.1-.5-3.3-.1-5.3 1.9-1.3 1.3-3.6 2.8-4.9 3.1-1.4.3-3.7 2.5-5.2 4.9-3.6 5.6-9.4 9.1-16 9.7-1.6.2-.6 1.3 1 1.3.8 0 1.1 2.4 1 7.7-.1 4.3.2 8 .8 8.3.5.4.9 1.5.9 2.6 0 1.4.7 1.9 2.5 1.9 2.9 0 8.6 7 7.8 9.8-.2 1 .9 3.1 2.6 5.1 1.7 1.9 3.1 3.9 3.1 4.5 0 .6 1 2.3 2.3 3.8 2.8 3.3 11.6 5.5 13.3 3.3.8-1.1 1.4-.7 2.9 2.1 1 1.9 2.2 3.4 2.7 3.4s1.3 1.1 1.8 2.5 1.6 2.5 2.4 2.5c.7 0 2.1 1.1 3 2.5.9 1.4 2.6 2.5 3.7 2.5 1.2 0 1.7.4 1.4 1.1-.4.6.2 1.3 1.4 1.6 1.4.3 2.1 1.3 2.1 2.8 0 3 4.8 4.5 6.6 2 1.1-1.5 1.3-1.5 1.9.4.3 1.1 1.2 1.8 2 1.5.7-.3 1.6.3 1.9 1.4.7 2 7.8 8.2 9.4 8.2 1.2 0 2.2 3.5 2.2 7.7 0 2 .8 4 2.2 5.2 2 1.9 2 2.2.5 3.9-2.1 2.3-.6 4.2 3.4 4.2 1.5 0 3.2.7 3.9 1.5.7.8 1.6 1.2 2.1.9.9-.5 6.1-1.4 10.4-1.7 1.5-.2 2.1-1.1 2.5-4.2l.5-4 1.8 2.5c1.6 2.3 1.9 2.4 2.8.7 1.4-2.4 5.5-2.2 6.2.3.3 1.1.1 2.2-.4 2.6-1.7 1 2 6.2 5.2 7.3 4 1.4 3.9 1.4 3.9-.3 0-.8.9-1.8 2-2.1 2.8-.9 2.5-4.3-.5-5.7-2.8-1.3-3.2-2.3-1.1-3.5 2.5-1.5.1-5.3-3.3-5.3-3.8 0-4.8-1.6-2.1-3 1.7-.9 2-1.7 1.5-4-.5-2.2-.2-3 1.3-3.4 1.1-.4 2.2-1.5 2.5-2.6.3-1.1 1.5-2 3.3-2.2 2.3-.2 3-.9 3.2-3.1.4-3.3-.4-3.4-2.7-.5-1 1.1-2.3 1.8-2.8 1.5-1.2-.8-.5-4.7.8-4.7s-.1-3.2-2.3-5.4c-1.4-1.3-2.8-1.6-4.8-1.3-1.9.4-3 .2-3.3-.7-.4-1 .8-1.7 3.6-2.5 2.3-.6 4.8-1.5 5.6-2 1-.6 2.2-.4 3.8.6 2.1 1.4 2.5 1.4 4.1.1 2.3-2.1 3.9-1.3 6.2 3.3 2.6 5 4.8 6.2 8.8 4.7 2.9-1.1 3.4-1 6.1 1.6 2.2 2.1 3.7 2.7 5.5 2.4 2.3-.5 2.6-.2 2.6 2.3 0 1.6.5 2.9 1 2.9.6 0 1 .7 1 1.5s.5 1.5 1 1.5c.6 0 1 1.3 1 2.8 0 3.6 4.8 7.7 6.7 5.7.7-.7.9-1.6.5-2-.4-.4.9-.5 2.9-.1 2.6.5 4 .2 4.9-.9 1.2-1.5 6.6-1.5 9 0 1.5 1 1.2 3.6-.7 5-1.6 1.2-1.6 1.4-.1 2.9.9.9 2 1.6 2.5 1.6.4 0 2.1 1.6 3.6 3.5 2.4 3.1 2.6 3.8 1.5 5.7-2.2 4-1.8 5.8 2.2 7.8 2.4 1.2 4 1.6 4.7.9.6-.6 1.4-.5 2.2.5.9 1.1 1.8 1.3 3 .7.9-.5 3.5-.8 5.9-.6 3.4.2 4 0 3.1-1.1-1.2-1.5-1-1.7 5.1-3.2 2.4-.6 3.6-1.5 3.8-2.9.3-1.8.7-2 3-1.3 5.2 1.5 8.7 4.3 11.1 8.8 1.5 3 1.9 4.8 1.2 5-.6.2-1.1 1.3-1.1 2.3 0 1.3-.4 1.8-1.2 1.3-1-.6-1-.4 0 .7 1.7 1.9 1.5 2.9-.8 2.9-1.2 0-1.7.5-1.4 1.3.3.9-.9 1.8-3.5 2.7-2.5.8-3.8 1.7-3.3 2.4.3.6.7 2.3.8 3.9.1 2.3-.1 2.5-1.2 1.6-2-1.6-2.8-.5-1.5 1.9 1.5 2.8 1.4 2.9-1.1 3.7-1.5.4-1.8.8-1 1.2 1.1.4 3.4 4.7 3.3 6.3 0 .3.8 1.4 1.8 2.5 3.8 4.1 5.5 10.5 2.9 10.5-.6 0-.8.3-.5.7.4.3 0 1.5-1 2.5-1.5 1.7-1.5 1.8.5 1.8 1.2 0 2.2-.5 2.2-1 0-.6 1.1-1 2.5-1 1.5 0 2.5-.6 2.5-1.5s.6-1.2 1.5-.9c.8.4 1.5.1 1.5-.5s1.1-1.1 2.3-1.1c2.8 0 5.7-2.9 5.7-5.6 0-1.1 1.1-3.6 2.5-5.6 1.4-2.1 3.1-5.4 3.8-7.5.8-2.6 1.8-3.8 3-3.7.9.1 1.7-.3 1.7-.8 0-.7.5-.6 1.4.1 1.8 1.5 6.1-.1 7.5-2.7.7-1.4 1.8-1.8 3.9-1.4 4.1.6 6.9-1.2 7.7-4.8.7-3 2-3.6 7-3.1 1.1.1 3.2-.4 4.7-1 2.3-.9 2.6-1.5 2.1-4-.6-3.1-.2-3.4 2.7-1.9 1.4.7 2.3.6 3.4-.6 3.3-3.2 1.3-9.6-3.5-11.3-1.8-.6-3.8-2-4.6-3.1-.7-1-3-2.2-5.1-2.6-4.9-.9-6.8-2.7-8.7-8.5-.9-2.7-2.4-5.5-3.4-6.1-1-.7-2-2.1-2.4-3-.3-1-1.3-1.5-2.4-1.2-2 .6-10.1-3.6-12.5-6.3-1.3-1.7-4.8-9.9-4.8-11.6 0-.4.7-.7 1.5-.7 1.4 0 1.4-.4 0-3.6-.8-1.9-2.4-4.8-3.5-6.4-1.1-1.5-2-4-2-5.5s-.9-4-2.1-5.6c-1.2-1.7-2.3-4.9-2.6-7.2-.3-2.3-1-5-1.5-6-.7-1.5-.5-2 1-2.4 3.4-.9 3.8-8.3.4-8.3-.8 0-1.2-.3-.9-.6.4-.4-.4-1.6-1.8-2.8-2.5-2.2-5.8-8.9-4.8-9.9.3-.3.3-1.8-.1-3.2-.9-3.6-4.2-3.2-8 1-1.8 1.9-4.2 3.5-5.3 3.5-2.8 0-3.9 1.7-4.7 6.9-.4 2.4-1.3 4.9-2 5.5-.7.6-1.8 3-2.5 5.3-.6 2.4-1.6 4.3-2.1 4.3s-1.6.7-2.4 1.6c-1.5 1.4-1.7 1.4-2.3-.2-.3-.9-.1-2.4.5-3.4 1.3-2.2-.2-4-3.4-4-1.3 0-2.6-.5-2.9-1-1-1.6-3.3-1.1-4 .9-.6 2.1-9 3.8-10.9 2.2-.6-.5-4.2-1.4-8.1-1.9-6.1-.8-7.1-.7-8.9.9-1.1 1.1-3 1.9-4.3 1.9-1.9 0-2.3.5-2.3 3 0 1.7-.6 3.1-1.2 3.1-2.8.3-3.4.5-5.6 1.7-1.3.8-2.9 1.1-3.7.9-.7-.3-1.8.6-2.4 2-.9 2-1.6 2.4-3.6 1.9s-2.5-.3-2.5 1.2c0 3.3-2.8 5.9-7.1 6.6-2.9.5-4.3 1.2-4.6 2.6-.6 2.3-2.3 2.7-2.3.5 0-1.9-2.6-2-3.3 0-.4 1-2.1 1.4-6 1.4-5.2-.1-5.4-.2-5.5-2.8 0-4.9-.2-6.1-.9-6-2.8.4-4.4-.5-5.8-3.1-2-4-1.3-6.3 2.5-7.7 2.4-.9 3-1.7 3-4.2 0-1.7-.5-4-1.2-5-1.4-2.3-4.8-1.6-4.1.9.7 2.4-1.2 3.3-5.3 2.5-2.5-.4-3.4-1-3-2 .3-.8.1-1.4-.5-1.2-2 .4-3.5-3.1-2.2-5.2 1.7-2.8-.2-6.2-6.1-10.6-2.8-2.2-4.7-4.5-4.8-5.8 0-1.2-.2-2.7-.2-3.4-.1-.6-.9-2-1.9-3-.9-1.1-1.7-2.5-1.7-3.1 0-.6-1.1-1.9-2.5-2.8-2-1.3-2.8-1.4-3.9-.5-1.2 1-1.9.8-3.5-.6-3.6-3.3-5.5-4.8-5.8-4.5-.2.1-1.6-.4-3.3-1.3-3.2-1.6-8-.6-8 1.7 0 .9-.3.9-.9-.2-.6-.8-.7-1.8-.4-2.3.3-.5-.5-.4-1.7.3-1.9 1-2.4.9-3.7-1-1.1-1.6-1.8-1.8-2.8-1-1 .8-1.6.7-2.3-.6-1.4-2.5-3.1-2.4-8 .4zm-30.9 28.5c.5-.3.7.3.5 1.3-.5 2.6-5.8 2.9-5.8.3 0-1-.4-2.1-1-2.4-.5-.3-1-1-1-1.5 0-.6 1.4-.1 3.2 1 1.7 1 3.6 1.6 4.1 1.3zm191.7 33.7c0 .5-1.2 1-2.7.9-2.5 0-2.6-.1-.8-.9 2.7-1.2 3.5-1.2 3.5 0zm-99 10.5c.7.8.8 1.5.2 1.5-.5 0-1.5-.7-2.2-1.5-.7-.8-.8-1.5-.2-1.5.5 0 1.5.7 2.2 1.5zm102.3 1.6c-.4 1.3-.9 1.7-1.6 1-1.2-1.2-.1-4.5 1.2-3.7.5.3.7 1.5.4 2.7zm-92.8 3.5c.7-.2 1.5.3 1.8 1.3.3 1.1-.1 1.8-1.2 1.8-2.4 0-6.8-3.4-7.4-5.7-.5-1.8-.3-1.8 2.5.5 1.7 1.5 3.6 2.4 4.3 2.1zm101.5-3.2c0 1.1-1.9 1.5-2.5.6-.3-.5.1-1 .9-1 .9 0 1.6.2 1.6.4zm4.5 38.4c-.6.7-3.5-1.8-3.5-3.1 0-.5.9-.2 2 .8s1.8 2 1.5 2.3zM12.16 259.659c0 .5.6 1.5 1.3 2.2 1 1 .8 1.1-.8.5-1.6-.6-1.8-.5-.7.7 1.9 2.1 1.4 3.6-1.2 3.4-5.3-.6-3.7 5.5 1.9 7.2 2.5.8 3.6.7 5.3-.8 1.2-.9 2.2-2.5 2.2-3.4 0-1 .5-1.3 1.3-.9.8.5.8.2-.2-.9-.7-.9-2.1-1.7-3-1.7-1.2 0-1.3-.2-.3-.8 1-.7.8-1.2-.5-2.3-4-3.3-5.3-4.1-5.3-3.2zM5.16 261.059c0 .7-1 .9-2.6.5l-2.6-.7 1.8 3.1c1.8 3 3.8 3.8 4.9 2.1.3-.5.1-1.3-.5-1.6-.6-.4-.8-1.5-.5-2.6.4-1 .4-1.9.1-1.9-.3 0-.6.5-.6 1.1zM17.16 261.059c0 .5.5.7 1 .4.6-.3 1-.8 1-1.1 0-.2-.4-.4-1-.4-.5 0-1 .5-1 1.1zM20.16 263.959c.6 1.1 1.2 2 1.4 2 .2 0 .2-.9-.1-2-.3-1.1-.9-2-1.5-2-.5 0-.4.9.2 2z"/><path d="M157.66 307.059c-.4.6-.5 1.2-.2 1.5.2.3.7-.2 1-1.1.7-1.7.1-2-.8-.4zM156.16 329.459c0 .2 1 1 2.3 1.6 2 1.1 2.1 1.1.8-.4-1.3-1.6-3.1-2.3-3.1-1.2zM168.86 331.559c-.5.5-2.3.7-4.1.6-4.2-.4-7 2.3-4.3 4.3.9.7 1.7 1.7 1.7 2.3 0 .6 1.2 2 2.8 3.1 2.1 1.6 2.3 2 1 2.1-1.8 0-2.3 1.1-1.1 2.3.3.4 1.1 0 1.7-.8 1.3-1.8 5.6-.9 5.6 1.1 0 .8.5 1.4 1.1 1.4 1.7 0 4 2.8 4.2 5 .2 2.4-.1 2.4 2.6.1 1.3-1.1 1.9-2.5 1.5-3.5-.3-.9.1-2.7 1-4.1 2.4-3.6 2.1-4.3-3.1-6.8-2.6-1.2-5.9-3.5-7.3-5-1.4-1.6-2.9-2.5-3.3-2.1zm1.8 10.4c.3.5.2 1-.4 1-.5 0-1.3-.5-1.6-1-.3-.6-.2-1 .4-1 .5 0 1.3.4 1.6 1zM159.16 342.959c0 .5.7 1 1.6 1 .8 0 1.2-.5.9-1-.3-.6-1-1-1.6-1-.5 0-.9.4-.9 1zM198.16 351.759c0 1-.6 2.7-1.4 3.8-.8 1.1-1.9 3.9-2.6 6.2-.9 3.6-1.4 4.2-3.1 3.7-1.3-.4-1.9-.2-1.9.8 0 1.3-.6 1.3-4.5.1-4.4-1.3-4.6-1.2-6.1 1.1-1.8 2.8-5.5 3.3-7.4 1-1-1.2-1.8-1-5.3 1.8-2.3 1.8-4.6 3.8-5.2 4.4-1.1 1.4-5.5.7-5.5-.8 0-2-1.9-.7-3.9 2.6-1.8 3.2-2.5 3.5-6.5 3.5-3.2 0-4.8.5-5.6 1.7-.8 1.4-1.3 1.5-1.7.5-.4-1-1-1-2.9.3-2.2 1.4-2.6 1.4-4.9-.1-2.5-1.6-2.6-1.6-3.7 1.4-1.6 4.2-3.6 4.8-6.5 2-2.3-2.1-2.5-2.2-3.4-.5-.6.9-1.4 1.7-2 1.7-.5 0-2.2 1.3-3.7 2.8-1.5 1.6-3.4 2.6-4.2 2.4-1.3-.4-1.3-.3-.2 1 1 1.3 1 1.8.1 2.4-.7.4-1.8-.1-2.6-1.1-.7-1.1-1.3-1.5-1.3-1.1 0 .5-.6.4-1.3-.2-1-.9-1.3-.4-1.5 2.4-.4 5-1.8 8.1-4.1 8.9-1.2.3-2.1 1.1-2.1 1.7 0 .6-.7.5-1.6-.3-.9-.7-2.3-1.4-3.2-1.5-.8-.2-1.9-1-2.4-1.8-.5-.9-1.4-1.6-1.9-1.6-.6 0-.8.4-.4 1 .7 1.1-2.3 4.3-4.8 5.3-1 .4-2 1.5-2.3 2.4-.3 1-1 2.6-1.5 3.5-.5 1-.9 2.5-.9 3.3 0 1.8-.5 1.8-3.1.5-1.5-.9-1.9-.7-1.9.7 0 1.5-.8 1.8-4.5 1.6-6.3-.3-6.1 2.4.4 6.6 3.7 2.4 5.7 4.6 7.8 8.9 1.6 3.1 3.9 6.1 5.1 6.7 2.6 1.1 3.3 4.4 2.9 13l-.2 6 4 .1c5.3 0 10.9 1.4 9.8 2.4-.4.4-1.9 1.1-3.2 1.5-1.9.6-2.3.4-1.8-.8.9-2.4-.2-2.7-4.4-1.2-2.4.9-4.1 1-4.4.4-1-1.4-2.7.1-2.1 1.8.4.9-.6 3-2.4 4.9-1.6 1.9-3 4.2-3 5.2 0 1.6.5 2.7 3.9 8.2 1.2 2.1 1.2 2.3-.8 1.7-2.1-.5-2.8.3-1.4 1.6.3.4 1.7 0 2.9-.8 2.2-1.4 2.4-1.4 3.9 1.5 1.3 2.5 2.2 3 5.1 3 1.9 0 4.4.5 5.5 1 1.5.8 1.9.7 1.9-.3 0-1.7 6-3.1 7.3-1.8 1.6 1.6 3.7 0 3.7-2.9 0-1.6.5-3 1.1-3.2 1.5-.5 0-5.8-1.7-5.8-.8 0 .6-2 3-4.4 3.6-3.5 4.3-4.6 3.2-5.5-.7-.6-1.5-.8-1.8-.5-.4.3-.6-1.1-.5-3 0-1.9.6-3.7 1.3-4 .7-.3 1-1.4.7-2.5-.3-1.2-.9-1.8-1.4-1.5-.5.3-2.8.7-5 .8-2.4.2-4.9 1.2-6.3 2.5-1.7 1.6-2.5 1.9-2.8.9-.3-.7.5-2 1.6-2.9 1.9-1.6 1.9-1.8.3-4.2-2.2-3.4-2.1-3.9.6-3.6 2.5.4 8.7-3 8.7-4.7 0-.7.7-1.4 1.5-1.8.8-.3 1.5-1.3 1.5-2.2 0-1 .5-1.4 1.5-1 .8.3 1.5.1 1.5-.5s.4-.8.9-.4c.5.3 1.2.1 1.6-.5.3-.5 1.1-1 1.7-1 1.4 0 .3 7.1-1.3 8.1-1.7 1-.3 3.9 2 3.9 1.1 0 2.3.4 2.6 1 .3.5 1.4 1 2.3 1 1.5 0 1.5-.2.2-1-1.2-.7-.8-1.1 1.8-1.6 1.8-.4 3.5-1.1 3.8-1.5.3-.5 1.4-.9 2.4-.9s2-.5 2.2-1.1c.2-.6 1.5-1.2 3-1.2 1.6-.1 2.4-.7 2.1-1.5-.4-.8.5-1.2 2.7-1.2 2.6 0 3.4-.5 4.3-3 .6-1.7 1.7-3 2.4-3s1-.7.7-1.8c-1.3-3.7-3.5-8.1-4.4-8.7-.6-.3-1-2.6-1-5 0-4.9-1.6-6.5-6.8-6.5-3.1 0-7.9-4.1-6.8-5.9 1.3-2 7.5-2.4 10.1-.7 1.5 1 2.5 1.2 2.5.6 0-.7.8-.9 2-.5s2 .2 2-.6.4-.8 1.3-.1c.7.6 1.8.7 2.6.2 2.2-1.3 5.5.8 7.4 4.9 2 4.3 2.2 7.1.5 7.1-.6 0-.3.9.7 2 2.4 2.6 2.9 2.5 4.4-.6 1-2.3.9-3-.9-4.9-2.4-2.5-2.6-3.7-.5-2.9.9.4 1.6-.3 2.1-2 .3-1.4 1-2.6 1.5-2.6s.7-1.1.3-2.5c-.4-1.5-.2-2.5.5-2.5 1.7 0 1.3-4.7-.4-5.4-.9-.3-1.5 0-1.5 1 0 1.3-.6 1.5-2.7.9-3.6-.9-3.6-.8-2.2-3.9.9-1.9.9-3.2.1-5.1-.9-2-.9-2.3.3-1.8.8.3 1.5 1 1.5 1.7 0 .6.5.3 1.1-.7 1.2-2.1 3.9-2.3 3.9-.2 0 1.9.2 1.9 7.7-.4l6.1-1.9 2.4 3c1.2 1.6 3.3 4 4.6 5.3 1.2 1.2 2.2 2.7 2.2 3.2 0 .6.7 1.6 1.5 2.3.8.7 1.5 2.1 1.5 3.1 0 2.3 5.1 5.9 8.2 5.9 2.1 0 2.5.5 2.5 3.1 0 2.2.8 3.7 2.9 5.4 3.7 2.9 4.9 2.4 6.4-3 .7-2.4 1.8-4.6 2.6-4.9 1.7-.7 1.8-3.8.2-5.4-.9-.9-.8-1.6.4-2.9 1.6-1.8 1.7-4.2.3-9.5-.5-1.9-.2-2.9 1-3.5 1.4-.8 1.5-1.6.7-4.5s-.6-4.1 1-6.6c1.9-3 1.9-3-.2-2.5-1.1.3-2 .9-2 1.4 0 1.5-3.2 1-5.1-.7-.9-.8-2.6-1.6-3.7-1.7-1.4-.1-2.2-1-2.6-3.2-.3-1.7-1.5-3.8-2.6-4.8-2.5-2.1-2.5-3.4 0-4.2 1.4-.4 1.9-1.3 1.6-2.3-1.7-5.6-1.8-7.2-.5-7.2 1.1 0 1.1-.3-.1-1-2.3-1.5-4-1.2-4 .8zm-25 20.7c0 .2-.9.9-2 1.5-1.6.9-2 .8-2-.5 0-.8.9-1.5 2-1.5s2 .2 2 .5zm-39.8 21.4c-.5.3-1.1 1.3-1.4 2.1-.3 1-.6.6-1-1.1-.4-2.2-.2-2.5 1.4-2.1 1.1.3 1.5.8 1 1.1zm-36.2 18.2c0 .5.5.7 1.2.3.7-.4.8-.3.4.4-.4.6-1.3.9-2.1.5-1.7-.6-2-2.3-.5-2.3.6 0 1 .5 1 1.1zM210.16 354.959c0 1.3.5 2 1.3 1.7.6-.2 1.2-1 1.2-1.7s-.6-1.5-1.2-1.8c-.8-.2-1.3.5-1.3 1.8z"/><path d="M165.86 356.359c-1.5 1.2-1.5 1.5-.2 2.6 1.7 1.4 1.9 4.3.5 7.1-1.2 2.1-.7 2.4 2 .9 1.1-.6 1.7-1.6 1.4-2.5-.4-.9-.1-2.2.6-2.9.9-1.2.8-2-.5-4-1-1.4-1.8-2.6-1.9-2.6 0 0-.9.7-1.9 1.4zM153.86 367.659c-1.8.5-1.8.6-.1 2.4.9 1 2.8 1.9 4.1 1.9 2 0 2.4-.4 2.1-2.3-.3-2.2-2.5-3-6.1-2zM160.16 391.359c0 .2.7.9 1.5 1.6.9.7 1.5.8 1.5.2 0-.5-.7-1.2-1.5-1.6-.8-.3-1.5-.4-1.5-.2zM68.76 407.559c-.8 2-.8 1.9 2.4 2.9l2.5.8-2-2.4c-1.1-1.3-2-2.5-2.1-2.7-.1-.2-.4.5-.8 1.4zM210.46 423.759c-.6 1.5-1.4 4.2-1.8 5.9-.5 2.3-1.2 3.3-2.5 3.3-1 0-3.5 1-5.5 2.1-3.4 2-3.6 2.4-3 5.9.4 2.4 0 5.1-1.1 7.9-1.2 3-1.4 4.5-.6 5.3.8.8.9.4.5-1.2l-.6-2.3 3.1 2.3c2.3 1.7 3.8 2.1 6.1 1.7 3.2-.7 3.6-.1 3.2 4.5-.3 2.4 3.9 4.8 8.2 4.6 2-.1 3.7-.5 3.7-.9s.9-1.1 2-1.4c1.1-.4 1.8-1 1.5-1.5-.3-.5-.1-1.2.5-1.5.6-.4.8-1.6.4-2.7-.5-1.7-.3-1.9 1.5-1.3 1.7.5 2.1.2 2.1-1.4 0-1.2.5-2.1 1-2.1.6 0 1-.7 1-1.6 0-1.4.2-1.5 1.6-.3 1.5 1.2 1.6 1.1 1-.9-.7-2.1-.5-2.2 1.8-1.6 1.6.4 2.6.2 2.6-.5 0-1.6 6-1.3 9.4.4 1.6.9 3.1 1.4 3.3 1.2.2-.3.4-2.5.5-5.1.1-4.5.1-4.6 3.4-4.6 3.7 0 3.9-.2 2.4-3.1-.7-1.3-.7-1.9 0-1.9.5 0 1-.7 1-1.5 0-1.1-1.2-1.5-4.5-1.5-2.6 0-4.5.5-4.5 1.1 0 .7-.7.8-1.7.4s-2.9-.9-4.2-1.1c-1.4-.3-2.8-.7-3.3-1-.4-.3-1.5.4-2.5 1.6-1.8 2.1-5.7 2.7-6.8 1-.3-.6-1.5-1-2.5-1-1.3 0-1.7-.5-1.4-1.5.4-1 0-1.5-1.3-1.5-1.9 0-5.8-3-6.5-5-.2-.6-1.7-1.3-3.4-1.5-2.5-.3-3.2.1-4.1 2.3zM57.66 422.959c-.3.5-.1 1 .4 1 .6 0 1.1-.5 1.1-1 0-.6-.2-1-.4-1-.3 0-.8.4-1.1 1zM69.56 485.059c-.3.6-.1 1.6.5 2.2.9.9 1.4.8 2.1-.3.9-1.5.4-3-1-3-.5 0-1.2.5-1.6 1.1z"/></g></svg>