<?xml version="1.0" standalone="no"?>
<!DOCTYPE svg PUBLIC "-//W3C//DTD SVG 20010904//EN"
 "http://www.w3.org/TR/2001/REC-SVG-20010904/DTD/svg10.dtd">
<svg version="1.0" xmlns="http://www.w3.org/2000/svg"
 width="878.666187pt" height="579.840002pt" viewBox="0 0 878.666187 579.840002"
 preserveAspectRatio="xMidYMid meet">
<metadata>
Created by potrace 1.15, written by Peter Selinger 2001-2017
</metadata>
<g transform="translate(-564.333813,1239.128315) scale(0.100000,-0.100000)"
fill="#222222" stroke="none">
<path d="M7817 12355 c-26 -25 -52 -45 -57 -45 -6 0 -10 -6 -10 -14 0 -8 -8
-21 -17 -28 -10 -7 -18 -20 -18 -28 0 -9 -11 -16 -26 -18 -16 -2 -32 -13 -39
-28 -7 -13 -17 -24 -22 -24 -4 0 -8 -13 -8 -29 0 -24 -5 -30 -30 -34 -24 -5
-30 -12 -30 -32 0 -18 -5 -25 -20 -25 -11 0 -20 -4 -20 -9 0 -6 -33 -44 -74
-86 -69 -71 -78 -77 -118 -78 -63 -3 -88 -29 -92 -97 -3 -54 -20 -77 -32 -45
-4 9 -10 13 -13 8 -3 -4 -23 -21 -43 -36 -34 -25 -38 -26 -47 -10 -6 10 -11
13 -11 6 0 -15 -57 -43 -75 -37 -7 3 -16 1 -19 -5 -5 -7 -15 -7 -33 0 -18 7
-30 6 -40 -3 -8 -6 -33 -14 -56 -17 -37 -6 -42 -10 -54 -47 -12 -35 -18 -41
-41 -41 -16 0 -42 -6 -58 -15 -28 -14 -33 -13 -64 9 -41 27 -50 29 -50 7 0
-10 6 -14 14 -11 8 3 17 0 19 -8 4 -8 -11 -22 -38 -36 -36 -19 -46 -21 -59
-10 -9 8 -16 20 -16 27 0 23 -52 124 -60 119 -5 -3 -25 6 -45 20 -21 13 -41
22 -46 19 -5 -3 -9 0 -9 5 0 6 -8 11 -19 11 -10 0 -32 13 -49 29 -21 20 -37
28 -51 24 -14 -4 -21 -1 -21 10 0 20 -26 41 -35 27 -4 -7 -12 -7 -24 0 -14 7
-23 5 -36 -10 -10 -12 -13 -20 -7 -20 7 0 12 -5 12 -11 0 -8 -4 -8 -15 1 -8 6
-24 13 -37 15 -13 1 -27 4 -33 6 -5 2 -20 -2 -32 -9 -17 -10 -28 -10 -44 -2
-19 11 -20 10 -9 -9 9 -17 8 -25 -4 -36 -8 -8 -17 -28 -21 -45 -6 -26 -11 -30
-40 -30 -41 0 -49 -10 -33 -45 11 -25 9 -29 -27 -64 -35 -33 -43 -37 -72 -30
-18 4 -33 3 -33 -2 0 -5 14 -9 30 -9 24 0 33 -6 41 -27 14 -37 8 -47 -42 -60
-37 -10 -44 -16 -45 -37 -1 -17 3 -26 12 -26 21 0 28 -27 11 -44 -8 -8 -17
-13 -20 -10 -3 3 -14 1 -24 -6 -17 -11 -17 -11 0 -6 12 4 21 -2 30 -22 6 -15
18 -33 25 -41 11 -11 10 -15 -5 -26 -16 -12 -16 -14 7 -33 13 -11 30 -17 37
-15 9 4 13 -6 13 -35 0 -25 5 -42 14 -45 8 -3 24 -24 37 -46 13 -24 30 -41 40
-41 24 0 39 -30 39 -74 0 -25 -4 -36 -15 -36 -8 0 -15 -4 -15 -10 0 -19 40
-50 65 -50 13 0 40 -14 60 -31 31 -28 35 -36 35 -83 1 -44 16 -86 32 -86 10 0
78 -66 78 -75 0 -5 -10 -19 -22 -32 -21 -22 -21 -23 -2 -22 44 4 65 -3 99 -32
34 -30 71 -96 60 -107 -3 -3 9 -13 25 -23 17 -11 30 -25 30 -33 0 -21 -28 -46
-51 -46 -24 0 -25 -18 -1 -28 9 -4 18 -14 20 -22 1 -8 10 -30 20 -48 13 -25
14 -36 6 -50 -9 -13 -9 -23 1 -42 44 -89 105 -237 105 -257 0 -1 -7 -3 -15 -3
-17 0 -20 -25 -5 -35 16 -10 12 -45 -5 -45 -20 0 -9 -74 16 -110 10 -14 32
-59 49 -100 23 -57 39 -80 65 -97 28 -19 34 -29 33 -55 0 -18 2 -48 6 -66 5
-21 3 -38 -5 -48 -10 -13 -9 -13 12 -6 13 4 43 7 67 6 34 -2 41 1 33 10 -6 7
-8 16 -4 19 3 4 -4 18 -16 31 l-22 23 21 6 c16 4 20 11 15 25 -3 11 -1 23 6
27 7 5 9 23 4 51 -5 33 -3 44 7 45 22 0 57 54 71 109 8 29 21 58 30 65 10 7
17 22 17 35 0 19 4 22 34 18 19 -2 33 -1 31 2 -2 4 5 14 16 23 21 19 25 53 7
60 -7 3 2 6 20 6 25 1 35 6 39 21 7 25 19 26 28 3 6 -16 8 -16 25 5 24 29 38
23 137 -58 17 -14 18 -13 18 22 0 17 -6 33 -12 36 -15 4 -18 52 -3 52 18 0 10
22 -10 27 -10 3 -22 14 -25 24 -4 10 -10 19 -15 19 -5 0 -7 7 -4 15 4 8 1 15
-5 15 -6 0 -11 4 -11 10 0 5 7 7 15 4 10 -4 15 0 15 15 0 12 3 20 8 20 20 -3
32 2 27 12 -4 6 -1 9 6 7 21 -4 86 67 94 101 6 27 9 29 26 21 15 -9 19 -7 19
5 0 8 11 20 24 25 26 9 31 20 56 114 15 56 20 63 70 86 8 4 24 24 36 46 13 24
31 40 44 42 12 2 25 12 27 23 3 10 12 19 20 19 12 0 12 3 -2 16 -9 9 -14 18
-12 20 7 7 37 -7 37 -17 0 -5 9 -9 21 -9 15 0 19 -4 15 -16 -3 -9 -6 -27 -6
-40 0 -16 -8 -27 -22 -33 -26 -10 -62 -47 -64 -64 0 -7 -2 -20 -2 -31 -1 -12
-7 -16 -18 -12 -9 4 -13 2 -8 -5 4 -6 10 -27 14 -45 7 -31 5 -35 -16 -40 -15
-4 -34 0 -50 11 -26 16 -26 16 -19 -7 4 -12 14 -27 22 -33 9 -5 29 -21 45 -34
26 -21 27 -26 14 -33 -9 -5 -14 -13 -11 -19 10 -15 52 -10 59 7 10 26 36 -3
36 -39 0 -22 10 -40 38 -66 22 -21 44 -54 52 -79 7 -24 24 -51 36 -61 13 -10
26 -31 30 -47 9 -40 42 -104 53 -104 5 0 7 -13 5 -28 -3 -21 2 -34 23 -54 30
-27 74 -44 68 -24 -6 16 22 49 34 41 27 -16 40 -62 30 -99 -11 -41 -6 -56 19
-56 10 0 27 -7 40 -15 18 -13 21 -14 16 -1 -3 7 0 17 6 21 12 8 49 -33 50 -55
0 -8 15 -25 34 -38 35 -24 51 -63 33 -81 -16 -16 11 -71 31 -64 11 5 14 2 10
-9 -9 -22 44 -49 104 -52 40 -2 55 -8 70 -27 10 -13 32 -39 49 -57 21 -23 28
-39 24 -52 -5 -14 -2 -20 9 -20 9 0 16 -3 16 -7 0 -5 17 -9 38 -10 23 -1 43
-9 54 -22 9 -12 20 -21 25 -21 16 -1 61 -45 68 -67 3 -13 13 -23 20 -23 28 0
63 -22 58 -36 -6 -17 1 -18 28 -1 17 10 22 9 34 -8 8 -11 22 -29 33 -40 37
-40 43 -53 36 -79 -3 -14 -13 -26 -21 -26 -13 0 -15 -9 -10 -42 7 -49 -9 -78
-42 -78 -17 0 -21 -6 -21 -29 0 -17 5 -33 10 -36 21 -13 9 -23 -34 -29 -56 -9
-73 -27 -57 -62 14 -32 14 -34 -4 -34 -25 0 -18 -10 41 -64 l56 -51 3 -109 c3
-95 6 -111 25 -131 12 -13 19 -28 16 -34 -4 -5 -2 -12 4 -16 17 -10 12 -45 -5
-39 -11 4 -15 0 -15 -16 0 -29 -25 -53 -56 -53 -13 0 -27 -4 -30 -8 -3 -5 -9
-7 -14 -4 -17 10 -60 -14 -60 -35 0 -13 -9 -22 -25 -26 -13 -3 -29 -12 -36
-20 -9 -12 -14 -11 -32 1 -30 21 -38 19 -27 -9 5 -15 5 -37 0 -57 -5 -17 -7
-36 -3 -42 3 -5 -3 -16 -13 -24 -13 -10 -14 -14 -4 -12 8 2 30 -5 48 -14 32
-18 33 -18 52 5 17 21 19 22 37 7 20 -18 83 -24 83 -8 0 6 -5 19 -11 30 -9 19
-9 19 10 10 17 -10 19 -20 18 -81 -1 -38 -5 -70 -8 -70 -4 0 -9 -18 -11 -40
-2 -22 0 -40 4 -40 4 0 10 -21 13 -47 4 -27 14 -59 22 -73 18 -30 100 -109
107 -103 2 3 16 -3 29 -12 20 -13 30 -14 46 -6 17 9 25 6 50 -21 17 -18 31
-37 31 -42 0 -4 6 -6 14 -3 7 3 26 -7 41 -23 21 -22 26 -36 22 -56 -7 -37 50
-97 78 -81 13 7 20 7 23 -1 2 -6 10 -8 18 -5 9 3 14 -2 14 -16 0 -23 7 -26 30
-11 12 8 13 13 3 30 -18 28 -16 31 12 20 15 -6 26 -6 30 0 4 6 21 10 38 10 24
0 38 8 57 32 14 17 25 34 25 37 1 20 32 71 43 71 7 0 15 7 18 15 4 8 14 15 25
15 10 0 22 7 27 17 9 15 11 14 20 -4 10 -19 28 -24 80 -23 9 0 34 0 55 0 20 0
37 4 37 10 0 13 51 2 130 -27 68 -26 180 -40 224 -29 14 3 34 16 45 27 18 20
21 20 42 5 26 -18 66 -12 89 15 8 10 35 22 60 26 36 7 46 13 48 31 2 12 9 22
15 22 7 1 25 21 40 45 24 38 34 45 60 45 56 0 77 10 77 37 0 17 5 23 17 21 24
-4 45 40 39 81 -4 27 0 39 24 62 16 16 36 29 44 29 9 0 16 7 16 15 0 9 8 18
18 22 9 3 34 22 56 41 21 19 53 40 71 48 19 7 36 18 39 23 4 5 20 12 36 16 17
4 30 11 30 16 0 5 11 9 25 9 29 0 42 21 50 81 15 115 13 109 45 102 29 -5 30
-4 30 29 0 28 5 37 26 47 23 10 25 15 19 47 -5 27 -2 41 11 55 10 11 18 36 18
59 1 35 5 41 30 50 17 6 34 6 40 1 6 -5 30 -10 53 -13 36 -3 43 0 52 20 9 19
16 22 43 17 18 -3 49 -6 68 -7 63 -1 75 -7 94 -43 17 -32 22 -35 51 -29 25 4
41 -1 77 -25 25 -17 48 -38 52 -46 7 -20 26 -19 26 1 0 8 4 12 10 9 5 -3 19
10 31 29 24 40 23 40 50 25 15 -7 24 -7 35 2 11 9 14 8 14 -5 0 -25 26 -30 70
-12 22 9 52 16 65 16 19 0 25 5 25 21 0 18 5 21 29 17 17 -2 28 -1 25 3 -2 4
7 19 21 33 14 14 25 30 25 36 0 5 5 10 10 10 19 0 88 78 95 108 5 25 12 31 45
36 23 3 46 15 57 29 10 12 26 21 36 19 10 -2 24 1 32 8 14 12 65 4 65 -11 0
-5 12 -9 28 -9 37 -1 65 -26 92 -84 13 -27 31 -51 42 -54 10 -2 18 -8 18 -12
0 -4 20 -29 44 -56 30 -32 42 -53 37 -62 -10 -18 -2 -59 14 -72 8 -6 24 -12
37 -12 30 -2 53 -19 38 -28 -16 -10 -2 -37 18 -35 61 7 92 18 92 35 0 14 8 18
35 17 23 -1 35 -6 35 -15 0 -11 3 -12 14 -3 9 8 21 8 39 2 22 -9 26 -16 25
-46 -1 -19 6 -43 14 -52 9 -10 18 -27 20 -38 2 -11 10 -20 18 -20 20 0 33 -21
25 -44 -3 -10 1 -24 10 -31 19 -16 20 -31 0 -24 -11 5 -13 -1 -8 -31 4 -27 2
-39 -12 -49 -20 -14 -13 -36 12 -36 10 0 13 -6 9 -16 -3 -9 -6 -22 -6 -30 0
-8 -10 -14 -27 -14 -25 0 -26 0 -8 -20 10 -11 13 -20 7 -20 -6 0 -9 -18 -8
-47 2 -27 -2 -54 -8 -62 -9 -12 -5 -13 22 -9 22 3 32 1 32 -9 0 -7 6 -13 14
-13 8 0 21 -3 30 -6 12 -5 16 0 16 16 0 22 1 22 18 7 10 -10 22 -14 26 -10 12
13 26 -20 14 -35 -8 -9 -8 -16 0 -24 6 -6 8 -17 5 -24 -3 -8 0 -20 6 -28 6 -7
8 -16 4 -19 -3 -4 1 -7 10 -7 9 0 19 4 22 10 3 5 19 7 35 4 21 -5 42 1 77 23
26 16 55 29 63 28 9 0 20 15 26 35 7 19 12 27 13 18 1 -10 7 -18 14 -18 8 0
26 -13 40 -29 24 -27 25 -30 8 -36 -10 -3 -25 -3 -34 0 -8 4 -18 1 -23 -6 -9
-15 103 -6 119 10 11 11 67 -16 67 -32 0 -5 20 -7 45 -5 59 7 76 -6 73 -57 -3
-38 -2 -40 29 -43 28 -3 32 -1 26 15 -5 15 -3 16 8 6 18 -17 29 -16 29 2 0 8
4 15 9 15 5 0 7 -22 5 -48 -4 -44 -2 -50 21 -62 23 -12 28 -12 35 0 7 12 10
12 16 -3 3 -9 10 -15 14 -12 5 3 20 -9 34 -26 14 -16 34 -29 43 -28 33 3 35
-1 13 -19 -25 -20 -19 -54 8 -45 14 5 15 3 5 -8 -19 -19 -16 -70 5 -85 13 -10
14 -13 3 -14 -11 0 -9 -6 6 -22 34 -39 35 -47 9 -81 -26 -33 -26 -50 -1 -41 7
3 15 -2 18 -10 4 -9 17 -16 30 -16 14 0 32 -12 45 -30 13 -16 26 -30 31 -30 4
0 14 24 21 54 12 52 12 55 -13 87 -18 24 -27 51 -31 92 -3 31 -8 62 -11 66 -3
5 3 12 14 16 14 4 20 17 23 53 3 26 1 55 -4 65 -5 10 -5 25 2 36 20 38 12 57
-29 69 -21 7 -44 19 -51 27 -7 8 -19 15 -26 15 -20 0 -17 14 7 36 14 13 19 26
15 44 -3 14 -8 40 -12 57 -5 29 -9 32 -30 27 -19 -5 -34 3 -67 32 -23 21 -41
44 -39 50 1 7 -24 14 -70 18 -40 4 -77 11 -82 16 -15 15 -49 12 -72 -5 -10 -8
-25 -15 -31 -15 -19 0 -53 38 -47 53 2 7 -6 25 -20 40 -13 14 -21 28 -18 31 3
4 -9 1 -27 -5 -26 -9 -34 -9 -44 4 -16 20 -77 28 -77 10 0 -15 -75 -19 -85 -3
-3 5 -18 9 -33 8 -15 -1 -46 1 -70 5 -40 6 -42 5 -36 -17 4 -18 1 -25 -15 -29
-11 -3 -25 1 -32 9 -6 8 -26 14 -45 14 -23 0 -37 6 -44 20 -6 11 -17 20 -24
20 -18 0 -27 50 -13 75 6 11 10 28 8 39 -1 10 0 28 3 40 4 18 11 22 33 19 21
-3 35 2 52 21 14 14 30 26 38 26 16 0 17 22 2 37 -9 9 -9 24 1 59 11 37 20 49
42 58 15 6 28 14 28 19 0 18 64 87 81 87 17 0 39 45 39 81 0 11 11 20 31 24
17 4 40 16 50 26 16 16 17 23 8 42 l-12 22 24 -21 c41 -36 69 -47 93 -36 11 6
30 13 40 16 15 5 17 9 8 18 -27 27 -10 31 44 11 7 -3 10 5 7 21 -6 28 11 36
21 11 3 -8 15 -15 26 -15 12 0 18 5 15 10 -3 6 -1 10 4 10 6 0 11 7 11 16 0
11 -6 14 -20 9 -11 -3 -20 -2 -20 3 0 6 -19 42 -41 82 -37 64 -40 74 -29 95 8
14 18 21 27 18 12 -5 13 -2 5 14 -6 11 -10 35 -9 54 2 27 -2 34 -18 37 -21 4
-97 61 -127 94 -14 16 -20 17 -37 6 -16 -10 -23 -10 -33 0 -6 6 -25 12 -40 12
-18 0 -28 5 -28 15 0 8 -8 15 -19 15 -10 0 -30 9 -44 21 -31 24 -67 33 -67 16
-1 -7 -8 0 -16 16 -8 15 -21 28 -29 29 -8 0 -19 1 -24 2 -5 1 -20 -15 -33 -34
-13 -19 -30 -35 -38 -35 -8 0 -23 -10 -32 -21 -16 -20 -88 -39 -88 -23 0 3
-24 0 -52 -8 -38 -9 -61 -10 -82 -3 -37 13 -76 13 -76 0 0 -6 -15 -9 -36 -7
-24 3 -37 0 -41 -9 -3 -8 -14 -14 -25 -14 -10 0 -17 -4 -14 -9 4 -5 -16 -8
-44 -7 -28 2 -53 -1 -56 -6 -10 -16 -24 3 -24 32 0 24 -6 30 -42 42 -23 8 -46
22 -52 32 -6 10 -26 34 -44 53 -25 27 -32 42 -28 59 4 16 -1 28 -19 42 -14 11
-25 24 -25 30 0 5 -7 23 -15 38 -20 39 -20 61 0 44 8 -7 15 -18 15 -25 0 -19
26 -25 45 -11 16 11 15 14 -9 29 -31 21 -34 47 -6 65 11 6 17 18 14 26 -5 12
1 14 29 9 31 -5 35 -2 41 21 3 14 13 26 21 26 19 0 19 18 0 63 -19 46 -19 46
7 56 15 5 23 17 23 32 0 17 5 23 18 21 12 -2 17 4 17 20 0 15 3 19 11 11 16
-16 101 -3 126 19 21 19 21 19 27 0 5 -14 13 -18 30 -15 13 3 27 0 30 -6 12
-18 36 -12 36 9 0 11 7 20 16 20 8 0 13 4 10 9 -7 10 60 25 73 16 6 -3 12 -1
16 4 3 6 17 6 36 -1 23 -8 38 -7 57 2 l27 12 -22 15 c-13 9 -23 24 -23 34 0
17 -36 37 -47 25 -7 -7 -56 19 -72 38 -8 9 -22 16 -32 16 -11 0 -19 3 -19 8 0
7 -44 55 -75 80 -8 7 -13 18 -9 23 3 5 2 9 -3 8 -18 -4 -45 15 -54 38 -7 20
-11 22 -28 11 -11 -7 -17 -16 -15 -20 3 -4 -2 -8 -11 -8 -9 0 -19 9 -22 20 -4
15 -9 17 -22 10 -13 -6 -16 -18 -13 -43 5 -43 -12 -77 -38 -77 -13 0 -18 -5
-14 -15 7 -18 -18 -20 -48 -4 -15 8 -22 8 -28 -1 -4 -7 -13 -9 -19 -6 -6 4
-14 1 -17 -8 -3 -9 -16 -14 -32 -12 -30 2 -57 -18 -47 -34 9 -15 -43 -2 -83
21 -18 11 -42 19 -53 19 -10 0 -19 5 -19 11 0 18 -112 120 -150 136 -21 9 -53
13 -83 10 -26 -2 -50 0 -53 4 -3 5 -12 9 -21 9 -27 0 -71 39 -78 70 -7 30 -46
51 -110 56 -16 1 -31 7 -33 12 -2 6 -19 30 -38 54 -18 24 -34 50 -34 58 0 8
-9 21 -20 28 -14 8 -20 9 -20 1 0 -6 -9 -9 -20 -6 -10 3 -21 0 -23 -6 -2 -7
-16 -2 -34 11 -17 12 -36 22 -42 22 -6 0 -26 9 -46 20 -20 11 -42 20 -51 20
-8 0 -12 5 -9 11 4 5 1 18 -7 27 -8 9 -21 33 -28 52 -7 19 -21 44 -30 55 -9
11 -31 44 -48 73 -24 39 -28 52 -17 52 16 0 20 16 6 24 -5 3 -14 29 -21 57
-10 39 -18 53 -39 62 -14 6 -32 19 -39 29 -8 11 -22 15 -41 13 -17 -2 -34 2
-41 10 -11 13 -17 11 -41 -9 -23 -19 -39 -24 -74 -23 -25 1 -45 -1 -45 -5 0
-4 -12 -7 -27 -7 -16 0 -46 -3 -69 -7 -37 -5 -40 -8 -36 -31 4 -23 3 -24 -32
-18 -35 7 -36 7 -27 -17 13 -34 -4 -58 -39 -58 -18 0 -29 5 -27 12 1 6 -13 16
-30 21 -22 7 -33 16 -33 28 0 10 -13 25 -30 34 -16 8 -34 24 -40 35 -8 15 -18
18 -44 15 -27 -4 -42 2 -77 30 -28 22 -47 31 -53 25 -6 -6 -20 -10 -32 -10
-16 0 -26 11 -39 47 -30 78 -41 80 -37 7 3 -38 0 -64 -5 -64 -6 0 -8 -11 -5
-25 4 -22 -1 -28 -27 -38 -31 -11 -35 -21 -34 -89 0 -10 -5 -18 -10 -18 -5 0
-6 -7 -3 -16 4 -10 2 -13 -6 -8 -10 6 -49 16 -108 28 -8 2 -46 6 -84 11 -62 7
-70 10 -79 34 -6 15 -27 34 -50 46 -22 11 -48 31 -56 45 -15 23 -14 24 1 12
25 -20 60 -23 78 -7 19 17 19 57 1 79 -12 14 -10 16 12 16 21 0 26 6 31 38 13
68 16 74 41 70 21 -4 22 -3 12 15 -9 15 -9 21 1 24 6 3 12 13 12 24 0 12 7 19
19 19 24 0 54 60 46 92 -4 16 2 31 19 49 22 24 23 29 11 45 -20 27 -18 44 5
44 11 0 20 4 20 10 0 5 14 17 31 26 24 12 37 13 58 5 14 -5 41 -13 59 -16 25
-5 32 -3 32 9 0 9 5 16 10 16 6 0 8 11 4 25 -5 22 -2 26 25 31 38 8 68 49 50
70 -16 19 -3 31 19 18 33 -20 52 -6 52 39 0 25 4 37 8 29 6 -9 12 -6 20 13 11
24 10 25 -18 25 -17 0 -30 4 -30 9 0 5 -13 14 -30 21 -23 10 -30 19 -30 41 0
15 -7 32 -16 37 -12 7 -3 11 36 16 44 6 54 4 66 -11 13 -17 13 -17 14 0 0 12
8 17 30 17 21 0 30 5 30 16 0 9 9 18 21 21 11 3 25 17 30 30 5 13 13 21 19 18
5 -3 10 1 10 9 0 8 10 16 23 18 l22 3 -26 25 c-33 32 -41 57 -30 97 7 26 6 35
-9 48 -23 21 -18 37 19 53 28 13 42 56 15 45 -13 -5 -29 31 -19 46 10 17 -13
22 -28 6 -24 -23 -44 -18 -59 15 -7 17 -17 30 -21 30 -5 0 -5 5 -2 10 3 6 -1
10 -10 10 -9 0 -13 5 -10 11 4 6 -6 24 -23 40 -31 30 -51 31 -80 2 -7 -7 -20
-13 -28 -13 -8 0 -14 -5 -14 -12 0 -6 -6 -3 -14 7 -7 10 -23 20 -36 22 -26 4
-52 32 -45 50 2 7 -4 17 -14 23 -16 8 -21 5 -31 -19 -12 -31 -65 -75 -79 -67
-5 3 -22 1 -39 -5 -25 -8 -36 -7 -57 7 -25 16 -26 16 -32 -5 -3 -12 -16 -24
-32 -27 -14 -4 -30 -10 -36 -14 -5 -5 -33 -7 -62 -4 -29 2 -55 -1 -58 -6 -4
-6 -17 -7 -29 -4 -18 4 -25 1 -29 -17 -4 -15 -11 -20 -22 -15 -9 3 -25 1 -37
-5 -15 -8 -24 -7 -37 5 -10 9 -28 16 -42 16 -13 0 -31 5 -39 10 -19 12 -50
-15 -50 -43 0 -14 -5 -18 -20 -14 -15 4 -20 0 -20 -14 0 -16 -5 -18 -24 -13
-18 4 -30 0 -43 -15 -9 -12 -20 -21 -24 -21 -3 0 -27 16 -52 35 -26 20 -62 37
-86 41 -23 4 -44 11 -47 15 -3 5 -20 9 -37 9 -26 0 -37 7 -50 30 -22 37 -37
39 -37 5 0 -26 -14 -33 -25 -15 -5 8 -11 7 -21 -1 -11 -9 -21 -9 -38 -1 -31
14 -36 7 -22 -29 9 -26 8 -32 -7 -40 -9 -6 -17 -20 -17 -33 0 -18 -7 -25 -30
-30 -17 -3 -33 -5 -36 -3 -3 1 -12 -10 -20 -26 -16 -30 -91 -83 -112 -78 -8 1
-24 -5 -37 -13 -30 -20 -51 -20 -62 -2 -14 23 -54 40 -63 26 -8 -13 -45 -6
-70 15 -26 21 -50 26 -56 11 -5 -14 -11 -13 -106 20 -38 12 -48 8 -27 -13 8
-8 -2 -8 -32 1 -28 8 -45 20 -49 32 -4 17 -16 20 -84 22 -83 3 -100 7 -91 22
3 5 -4 14 -15 20 -11 6 -18 15 -15 19 5 9 -97 41 -128 41 -10 0 -17 8 -17 20
0 11 -7 23 -15 26 -12 5 -12 9 0 28 21 31 9 84 -27 119 -15 16 -28 33 -28 38
0 5 -6 9 -13 9 -18 0 -37 35 -30 58 3 11 1 28 -4 36 -8 14 -16 9 -56 -29z
m2841 -438 c3 -26 2 -27 -20 -16 -13 7 -29 15 -37 19 -33 15 -23 31 15 28 34
-3 39 -6 42 -31z m-4561 -196 c10 9 13 8 13 -4 0 -8 3 -22 6 -31 4 -11 1 -16
-11 -16 -9 0 -13 5 -10 11 4 6 -2 13 -14 16 -12 3 -21 12 -21 21 0 12 3 13 12
4 8 -8 15 -9 25 -1z m-142 -111 c-3 -5 -11 -10 -16 -10 -6 0 -7 5 -4 10 3 6
11 10 16 10 6 0 7 -4 4 -10z m38 -59 c3 -13 -3 -22 -20 -30 -13 -6 -25 -11
-26 -11 -2 0 0 50 2 58 1 1 9 2 20 2 10 0 21 -9 24 -19z m4359 -1046 c0 -5 -5
-11 -11 -13 -6 -2 -11 4 -11 13 0 9 5 15 11 13 6 -2 11 -8 11 -13z m-2472
-160 c0 -3 -3 -4 -7 -4 -22 4 -33 -3 -33 -18 0 -28 -12 -6 -14 26 -1 17 3 32
8 34 10 4 46 -26 46 -38z m20 25 c0 -5 -2 -10 -4 -10 -3 0 -8 5 -11 10 -3 6
-1 10 4 10 6 0 11 -4 11 -10z m-280 -170 c0 -5 -2 -10 -4 -10 -3 0 -8 5 -11
10 -3 6 -1 10 4 10 6 0 11 -4 11 -10z m50 -120 c0 -5 -4 -10 -9 -10 -6 0 -13
5 -16 10 -3 6 1 10 9 10 9 0 16 -4 16 -10z m-570 -214 c0 -3 -4 -8 -10 -11 -5
-3 -10 -1 -10 4 0 6 5 11 10 11 6 0 10 -2 10 -4z m5570 -437 c0 -5 -4 -9 -10
-9 -5 0 -10 7 -10 16 0 8 5 12 10 9 6 -3 10 -10 10 -16z m1118 -688 c31 -9 42
-17 42 -32 0 -11 7 -22 15 -25 8 -4 15 -10 15 -16 0 -5 -4 -7 -8 -4 -4 3 -25
1 -46 -4 -36 -8 -38 -7 -51 23 -8 18 -21 32 -31 32 -13 0 -18 10 -21 45 l-4
45 23 -26 c13 -14 42 -31 66 -38z m-1049 -307 c-6 -7 -15 -11 -20 -8 -5 3 -3
11 4 18 16 18 31 8 16 -10z"/>
<path d="M5645 11270 c3 -5 8 -10 11 -10 2 0 4 5 4 10 0 6 -5 10 -11 10 -5 0
-7 -4 -4 -10z"/>
<path d="M13902 8628 c-14 -14 -16 -28 -3 -28 9 0 24 30 18 36 -2 2 -9 -2 -15
-8z"/>
<path d="M12780 8140 c0 -11 5 -20 10 -20 6 0 10 9 10 20 0 11 -4 20 -10 20
-5 0 -10 -9 -10 -20z"/>
<path d="M14400 6621 c0 -5 7 -14 15 -21 12 -10 15 -10 15 3 0 8 -7 17 -15 21
-8 3 -15 2 -15 -3z"/>
</g>
</svg>
