<svg version="1" xmlns="http://www.w3.org/2000/svg" width="901.333" height="811.727" viewBox="0 0 676 608.795"><g fill="#222"><path d="M249.3 1.666c-.5 1.4-1.6 1.5-6.5 1-5.5-.7-5.8-.6-5.8 1.4 0 1.3-.8 2.4-2 2.7-1.1.3-2 .9-2 1.4 0 .5-1.1.9-2.4.9-1.4 0-2.8.5-3.2 1.1-1.2 1.9-9.5 4.9-12 4.3-1.8-.5-2.4-.2-2.4 1.1 0 1.4-.6 1.6-2.6 1.1-1.8-.5-4.1.1-7.5 1.9-3.8 1.9-4.9 2.2-4.9 1.1 0-1-.9-1.4-2.7-1.3-3.2.2-4.4 1.2-6 4.9-1.2 2.7-1.2 2.7-4.3 1-1.9-1.1-3.3-1.3-3.8-.7-1.3 1.8-8.3 1.8-9.6-.1-1.7-2.3-5.2-1-6 2.1-.4 1.4-1.2 2.5-1.9 2.5-.6 0-2.4.7-3.9 1.4-2 1.1-3.6 1.2-5.8.5-1.6-.5-4.3-1.3-6-1.8-2.8-.9-2.9-.8-2 1 .8 1.4.6 2.7-.5 4.9-.9 1.7-1.3 3.5-1 4 1 1.6-4.2 1.1-5.9-.5-1.9-2-3.5-1.9-5.9.2-1.4 1.3-3.6 1.8-8.1 1.8h-6.1v13l-4.5 1.5c-2.5.8-4.7 1.7-5 2-.3.3-1.9 1.6-3.7 2.8l-3.2 2.3-4.2-2.1c-2.2-1.2-4.4-1.9-4.7-1.6-.3.3 0 .6.6.6 1.9 0 1.4 1.7-1.1 4.4l-2.4 2.5-2.6-2.7c-1.5-1.6-2.7-3.3-2.7-4 0-1.9-1.7-1.4-3.3.8-.9 1.3-2 1.8-3.1 1.4-1.1-.4-1.6-.1-1.6 1 0 .9.7 1.9 1.5 2.2.8.4 1.5 1.2 1.5 1.9s.7 1.8 1.5 2.5 1.5 2.1 1.5 3.1c0 1.1.6 2 1.3 2.1.6 0 1.7.2 2.3.2.6.1 1.8.7 2.6 1.4 1.1.9 2.3 1 4.2.2 2.5-.9 2.7-.7 3.2 2 .4 1.6.9 2.9 1.3 2.8 2.3-.3 4.1.4 4.1 1.6 0 .8 1.2 1.7 2.7 2.1 3.8.9 5.3 2.3 5.3 4.9 0 1.2.6 2.8 1.2 3.4 1.6 1.6-.5 3.1-4.2 3.2l-2.5.1 2.5 1.7c1.3.9 3.1 2.5 3.9 3.4.9 1 2.1 1.8 2.9 1.8 1 0 1.2 1.1.6 4.5-.5 3.6-.3 4.6 1 5.1.9.3 1.6 1.2 1.6 2s.7 1.4 1.5 1.4 1.5.5 1.5 1.1c0 .6 1 .9 2.3.8 1.2-.1 4.9 1 8.2 2.5 10 4.4 11 5.1 10.8 7.4-.2 1.2.2 2.2.7 2.2.6 0 1.5 1.1 2 2.5.8 2.1.6 3.2-1.1 5.5-1.2 1.5-1.9 3.3-1.5 3.8.3.5 0 1.2-.8 1.5-.9.4-1.2 1.8-1 4.7.2 2.8 0 3.9-.8 3.4-.7-.4-.8-.3-.4.5 1 1.6-4.2 6.4-6.1 5.6-1.3-.4-1.3-.1.2 2.1.9 1.4 1.4 3.6 1.1 4.7-.5 2.5 1.7 6.2 3.2 5.3 1.8-1.1 6.2 1.3 6.2 3.3 0 1.1.4 2.3 1 2.6.5.3.9 2.8.8 5.4-.2 4.9 1.2 8.1 3.7 8.1.7 0 1.5 1.2 1.8 2.8.6 2.9 2.5 3.6 9.5 3.4 1.7 0 3.2.4 3.2.9s.4.9 1 .9c.5 0 .7-.6.4-1.3-.3-.9.6-1.2 3.1-1.2 1.9.1 3.6.3 3.7.6 2.1 3.5 2.7 4.9 1.8 4.9-1.9 0-1 2.9 1.2 3.6 1.4.4 2.5.1 3.3-1 1.9-2.5 11.5-1.6 11.5 1 0 .8.7 1.4 1.5 1.4s1.5-.5 1.5-1c0-.6 1-.8 2.4-.4 1.8.4 2.6.1 3-1.4.5-1.4 1.3-1.8 2.6-1.5 3.3.9 8.7-1.6 9.4-4.2.7-2.7 2.6-3.4 2.6-1 0 .9 1 1.5 2.6 1.5 1.4 0 2.2-.4 1.9-1-.3-.5.7-1.2 2.2-1.6 1.5-.4 3.5-1.2 4.3-2 .8-.7 2.6-1.5 4-1.9 1.8-.4 3.2-2.1 4.9-5.6 1.6-3.5 2.8-4.9 4-4.7.9.1 2.9-.7 4.5-1.9 2.4-1.9 2.7-2.7 2.1-5.4-.7-2.9-.5-3 1.5-2.4 1.5.5 2 .4 1.6-.4-.6-.9 4-9.1 5.1-9.1.2 0 2.3.9 4.6 2 2.5 1.2 4.3 1.6 4.5 1 .2-.5 1-1 1.8-1s1.4-.5 1.4-1c0-.6.9-1 1.9-1 2.1 0 8.4-3 8.9-4.3.2-.4 1-.7 1.8-.7.9 0 1.4-1.1 1.4-2.9 0-2.3.4-2.8 2.3-2.6 3.1.3 3.1.3 1.8 1.9-.7.8-.9 2.5-.6 3.8.5 2 0 2.7-3.2 4.4-2.1 1-4.1 2.3-4.4 2.7-.4.5-1.8 1-3.3 1-1.7.1-2.6.8-2.6 1.9 0 1.7-3.7 4.5-5.2 4-1.7-.5-.6 1.4 1.9 3.2 1.9 1.4 3 1.6 4.2.9 1.3-.8 2.4-.2 5.4 3.3 2 2.3 3.7 4.7 3.7 5.3 0 .6.5 1.1 1.2 1.1 2 0 7.8 4.4 7.8 6 0 1.2.2 1.2.9.2.4-.7 1.2-1.2 1.7-1.1 3 .5 4.6-.2 4.1-2-.3-1.4-.1-1.8.9-1.4.8.3 1.4 1.3 1.4 2.4 0 1 1.7 3.1 3.7 4.6 6.7 5 12.4 12.5 10.4 13.7-.5.4-.4 1.6.2 3 .7 1.5 1.4 2 1.9 1.3.4-.7 1.3-.2 2.6 1.4 1.4 1.6 1.7 2.6.9 3.1-1.1.7-.3 2.3 1.1 2.3.4 0 2 1.3 3.7 2.8 2.3 2.2 3.5 2.7 5.5 2.2 5.1-1.4 11-1.7 11-.7 0 .6-.4 1.3-.9 1.6-.5.3-.7 1.5-.4 2.6.3 1.2 0 2-.7 2-1 0-1 .3 0 1.5.6.8.9 2.3.5 3.4-.6 1.9.6 4.7 3.5 8.5 1.3 1.7 1.3 1.9-.1 1.4-2.5-1-2.5 6.2.1 9.2 1.9 2.2 2 2.6.5 3.6-.9.7-2.5.9-3.7.6-1.9-.5-2-.2-1.4 2.4 1.3 5.5 1.8 14.4.9 15.7-.5.6-.9 3.1-.9 5.4.1 2.4-.3 4.3-.8 4.3s-.1.9.8 1.9c1 1.1 1.5 2.4 1.1 3-.3.6.1 2.7 1.1 4.6 1.4 3 1.4 4 .4 6.6-1.2 2.7-1.1 3.3.8 5.7 2.9 3.6 4.8 7.1 5.6 10.4.5 2.3.3 2.7-1.1 2.3-1-.3-.3.2 1.5 1 1.7.8 3.2 2.1 3.2 2.8 0 .6 1.5 2.4 3.4 3.9 2.2 1.7 3.6 3.8 3.8 5.5.2 2.1.8 2.8 2.3 2.6 1.6-.1 2 .5 2.2 3.1.2 1.8 1.4 5.8 2.8 8.9 1.3 3.1 2 5.9 1.5 6.2-2.1 1.3.3 13.3 2.9 15 1.7 1 1.3 2.1-1.9 5.2-3.6 3.3-3.7 3.9-.9 4.6 1.2.3 1.8 1 1.4 1.7-.9 1.4 1.3 4 3.5 4 2 0 5.4 3.5 4.6 4.8-.3.5.2 1.9 1.1 3.2l1.7 2.4.7-2.7c1-3.6.1-6.5-2.2-7.2-2.7-.9-2.4-2.5.5-2.5 3.3 0 5.6 1 5.6 2.4 0 .6.8 1.8 1.8 2.7 1.4 1.2 2.3 1.3 4.2.5 4.7-2 5.1-2.6 3.9-4.8-1-1.9-.9-2 2.1-1.3 2.2.5 3.5.3 4-.5 1.1-1.7 4.7-.3 5.3 2 .4 1.7.2 1.8-1.4.9-1.7-.9-1.9-.6-1.9 2.1 0 1.7.4 2.9.9 2.5.6-.3 1.5.4 2.1 1.5.6 1.1 1.5 1.8 2.1 1.5.5-.4.6-1.1.3-1.7-.4-.6.1-1.7 1.1-2.5 1.1-.7 1.3-1.3.7-1.3-.7 0-1.2-.8-1.2-1.8 0-2.2-3.7-5.9-6.5-6.4-1.5-.2-2-1.1-2-3.3 0-1.7-.4-3.6-.8-4.3-.5-.7-.4-1.8.2-2.6.6-.7.8-1.5.5-1.9-.3-.3-.6-2.6-.6-5.2 0-3.8-.3-4.8-1.9-5.2-2.1-.6-3.5-4.1-2.2-5.4.6-.6.5-2.9-.4-6.2-1.6-6.1-1.7-10.3-.3-11.2.6-.3 1-1.6 1-2.7 0-1.2-.3-1.8-.7-1.5-.3.4-1.4-.7-2.4-2.3-2.2-3.6-5.5-3.9-8.7-1-2.1 2-2.3 2-4.9.3-1.6-1-3.2-2.4-3.7-3.1-.6-1.1-1-1.2-1.6-.2-.9 1.5-9.5-3.2-12.3-6.7-1.9-2.4-6.3-3.1-6.9-1.1-.3.8-.9.8-2.4 0-1.8-1-1.8-1.1.8-2.1 2.5-1 4.7-3.1 3.1-3.1s-1.1-5.5.8-8.1c2.1-3 2.4-4.9.9-4.9-2 0-.9-3.1 1.4-4 1.4-.5 3.2-2.2 4-3.7 1.3-2.4 1.5-2.5 1.6-.8.1 1.1.4 1.4.7.7.2-.6 1.1-1.2 1.8-1.2.8 0 1.1-.7.8-2-.4-1.5.1-2.1 2.3-2.6 1.6-.4 3.4-1.1 4-1.6 2.1-1.6 8 .4 6.8 2.3-.3.6-.3 2.1 0 3.4.7 2.8 5.8 4.4 8.1 2.5.8-.7 2.2-1 3-.6.9.3 1.3.2 1-.4-.3-.6.5-1 1.9-1 1.6 0 2.6-.6 2.6-1.4 0-.8.6-1.6 1.3-1.9 1.5-.5 4.9 1.1 4.3 2.1-.2.4 1.1.8 2.9.9 2.9.3 3.2.1 2.7-2.2-.3-1.8 0-2.5 1.1-2.5.8 0 2-.7 2.7-1.5 1.6-1.9 6.8-4.5 9.2-4.5 1 0 1.8-.6 1.8-1.3 0-1.6 6.3-7.9 7.6-7.6 2.5.4 6.4-.2 5.9-1-.3-.5 0-1.3.6-1.6.5-.4.8-1.4.4-2.2-.8-2.1 2.2-5.2 4.4-4.6 2.3.6 3.6-3.1 4.6-12.5.5-4.1 1.5-7.4 3.1-9.8 1.8-2.6 2.2-4 1.4-5.2-.8-1.5-.9-1.5-1 .4 0 1.1-.3 2.3-.6 2.7-1 .9-5.7-1.2-8.6-4-2.9-2.8-2.4-4.3 2.1-5.8 1.3-.4 2-1 1.5-1.4-1-.7-1.6-2.7-1.7-5.1 0-.8-.4-2.1-1-2.8-.7-.9-.5-1.8.7-3 1.3-1.6 1.4-2.1.3-3.6-1.2-1.6-1.7-1.7-3.7-.6s-2.5 1-2.8 0c-.6-1.7-4.1-5.3-6.7-6.8-1.5-.9-1.7-1.4-.8-2 1-.6 1-1.6.2-4.3-2.5-7.6-3.9-9.9-5.9-9.9-1.1 0-2-.4-2-1 0-.5-2.4-2.2-5.2-3.6-2.9-1.5-4.7-2.9-4-3.1.6-.3 1.2-1 1.2-1.7 0-1.7-3.5-4.8-4.4-3.9-.9 1-2.6-1.7-2.6-4.2 0-1.1-.7-3.3-1.5-4.9-.8-1.5-1.5-3.6-1.5-4.5 0-.9-.7-3.6-1.6-6-1.1-3.3-1.2-4.6-.3-5.1 1.8-1.2-.6-7.2-4.6-11-3.1-3-3.4-3.7-3.2-8.7.2-4.5.5-5.3 1.9-5 1 .3 1.9-.3 2.3-1.7 1.2-3.5 1.1-9-.1-10.6-2.3-3.1-2.4-5-.4-5 1.8 0 1.9-.3.8-2-1-1.5-1-2.3-.2-2.8 1.5-.9.3-4.1-2.5-6.6-2.3-2.1-4.2-2.5-13.3-2.9-3.2-.1-6.3-.8-7-1.5-.6-.6-2-1.2-3-1.2s-1.7-.4-1.5-.9c.1-.5-2.2-3.7-5-7-2.9-3.3-5.3-6.4-5.3-6.9s-1.8-2.5-4-4.5c-4.3-3.8-5-5.7-2.2-5.7 1.5 0 1.7-1 1.6-7.1 0-3.9-.5-7.4-1-7.7-1.4-1-3.4-8.2-2.3-8.2.5 0 .9-.4.9-.8 0-1.1-6.1-3.2-9.3-3.2-1.7 0-3.6-1.1-5.3-2.9-2.6-3-2.6-3-5.8-1.2-3.1 1.8-6.6 2.3-6.6 1.1 0-.4-.9-1.8-2.1-3.1-1.8-2.1-2.2-2.2-3.2-.9-.7.8-2.2 1.4-3.5 1.2-1.3-.2-2.4.3-2.8 1.2-.3.9-1.6 1.6-2.8 1.6-1.2 0-2.7.5-3.4 1.2-.7.7-1.2.8-1.2.4 0-.5-.6-.3-1.4.3-2.1 1.8-5-.1-6.7-4.1-.7-1.8-2.3-4.7-3.6-6.4-2.6-3.4-2.9-5-1.1-5.6 1.7-.6-1.9-3.9-7.1-6.7-2.7-1.3-4.6-1.8-5-1.2-.8 1.2-11.2-2.8-15.3-5.9-3.5-2.5-11.6-2.8-12.5-.4zm33.3 141.2c-1 .9-1.5-.2-2.1-3.9l-.5-3.4 1.5 3.4c.9 1.8 1.4 3.6 1.1 3.9zm-85.2 52.7c-.6 1.5-3.5 3.5-5 3.5-.4 0 .3-1.1 1.6-2.5 2.6-2.8 4.2-3.3 3.4-1zm147.6 119.5c0 .5-.4 1-1 1-.5 0-1-.5-1-1 0-.6.5-1 1-1 .6 0 1 .4 1 1zm22 60.4c0 1.1-1.9 1.5-2.5.6-.3-.5.1-1 .9-1 .9 0 1.6.2 1.6.4zM0 40.666c0 5 3.7 14.4 5.7 14.4 1 0 1.1-.5.3-1.9-1.3-2.5-1.3-6.1 0-6.1.6 0 1-.5 1-1 0-.6-1.1-1-2.5-1-2.4 0-3-1.2-2.6-4.8.1-.6-.3-1.2-.9-1.2-.5 0-1 .7-1 1.6z"/><path d="M21.3 40.766c-.7.2-1.3 1.3-1.3 2.4 0 2.3-2.5 2.5-4.6.4-.9-.8-2.3-1.5-3.2-1.5-1.4 0-1.5.2-.2 1 1.2.7 1.1 1.2-.5 3s-1.7 2.4-.6 4.2c1.1 1.8 1.1 2-.4 1.4-1.4-.5-1.7-.2-1.2 2.1.5 3-.1 5.5-1.3 4.8-.8-.5-6.6 5.2-5.9 5.9.2.2 2 .6 3.9.7 3.2.3 3.5.2 3.3-2.1l-.3-2.5 1.9 2.2c2 2.4 3.8 3.2 2.5 1.2-.3-.6.5-.3 2 .6 1.6 1.1 2.6 2.6 2.6 4.2s.7 2.7 1.9 3c3.2.8 7 11.9 5.3 15-.7 1.2 0 2.8 2.5 6.1 1.9 2.5 3.2 5.1 2.9 5.8-.3.7.2 1.8 1 2.5s1.3 1.8 1 2.6c-.3.8.2 1.3 1.4 1.3 2.1 0 3.7 3.7 2.2 5.2-.7.7-.7 1.9-.1 3.5.5 1.3.6 3.5.3 4.9-.3 1.3-.1 3.1.6 3.9 1.4 1.7 2.1 6.5.9 6.5-.5 0-.9.7-.9 1.5s-.5 1.5-1.2 1.5c-.6 0-.9.2-.6.6.3.3.2 2-.2 3.9-1 4.5.4 5.6 7.5 5.8 4 .2 5.2-.1 4.1-.8-1.2-.9-1.2-1.6-.1-4.2 1.8-4.2 5.2-7.6 5.8-5.8.8 1.8 6.5 2.5 7.2.7.8-2.1.7-2.2-1.6-2.2-1.1 0-1.8-.4-1.5-.9.3-.4 0-2.2-.6-3.9-1.1-2.8-1-3.3.6-4.5 1.4-1 1.6-1.6.7-2.1-1.6-1 1.6-4.8 3.3-4 .6.3.2-.2-.9-1.2-2.1-1.7-2-1.7 3.3.3.9.3 1.4.3 1-.2-.4-.4-.1-1.4.7-2.2 3.1-3 1.2-4.4-2.8-1.9-1.9 1.2-2.4 1.1-4-.6-1.8-1.9-1.8-2 .2-2.5 1.2-.3 2.1-.9 2.1-1.5 0-.5.9-.4 2 .2 3.2 1.7 3.9.4 3.7-6.1-.1-4.8.2-6.4 1.6-7.4 1.4-1 1.6-1.8.7-3.9-.5-1.5-1-4.1-1-5.7 0-2.1-.9-3.8-3-5.5-2.6-2.2-2.8-2.8-1.6-4 .8-.8 2.2-1.4 3-1.4 1 0 1.6-.9 1.6-2.5 0-1.9.5-2.5 2.1-2.5 1.7 0 5.4-1.4 6.7-2.6.5-.3-7.8-7.8-9.2-8.3-.6-.2-2.1-1.2-3.2-2.3-2.8-2.5-10.1-2.2-9.6.4.1.9-1.2 2.5-3.3 3.8-1.9 1.2-3.5 2.8-3.5 3.5 0 1.8-2.1 6.5-2.9 6.5-.3 0-1.9-1.8-3.5-4-3.3-4.5-5.3-5.1-5.8-1.8-.2 1.2-1.1 2.2-2.3 2.4-1.1.2-2.1.8-2.3 1.3-.5 1.5-4.9 1.4-5.5-.2-.3-.7-.6-.8-.6-.1-.1 1.4-4.7.6-6.1-1.1-1.3-1.6.5-6.9 2-6 .5.3 1-.1 1-.9 0-.9.9-3 1.9-4.8 1.9-2.9 1.9-3.2.3-4.4-1.1-.9-1.2-1.3-.4-1.4.7 0 1.2-1.3 1.2-3 0-3-.4-3.3-2.7-2.3zM85.2 51.266c-1.9 1.9-1.4 2.9.8 1.6 2-1.3 2.7-2.8 1.2-2.8-.4 0-1.3.5-2 1.2zM398 95.566c0 .8-.6 2.4-1.2 3.5-1.1 1.7-.9 2.2 1.2 3.7 1.4 1 2.9 1.8 3.5 1.9.5 0 1.6.2 2.3.2.6.1 1.2 1.1 1.2 2.1s.7 2.1 1.5 2.5c1.3.5 1.3.1.1-2.9-1.1-2.5-1.1-3.5-.3-3.9.9-.3.9-.5 0-.5-.7-.1-1.3-.8-1.3-1.7 0-1.2-.7-1.5-2.4-1.2-2.5.5-4.9-2.3-2.7-3 1.3-.4.5-2.2-1-2.2-.5 0-.9.7-.9 1.5zM36.5 145.066c-.4.6-1 .8-1.5.5-.5-.3-2.4.1-4.2.9-3.2 1.4-3.3 1.4-.6 1.5 1.4.1 2.8-.4 3-1 .2-.6 1.4-.2 3 1 2.4 1.9 2.6 1.9 3 .3.9-3.3-1.2-5.7-2.7-3.2zM20.6 147.366c.3 1 .9 1.5 1.2 1.2.3-.3 0-1.1-.7-1.8-1-.9-1.1-.8-.5.6zM154.8 197.266c1.4 1.5 2.5 1.9 3.2 1.2.6-.6-.1-1.4-2.2-2.2l-3.2-1.2 2.2 2.2zM158.3 201.366c-1.8 1.2-3.3 2.5-3.3 2.8 0 1.1 4.5 5.5 5.5 5.4 5.6-.6 7.1-4.1 3.6-8.3-2.3-2.6-1.8-2.6-5.8.1zM167.5 209.066c.3.5.8 1 1.1 1 .2 0 .4-.5.4-1 0-.6-.5-1-1.1-1-.5 0-.7.4-.4 1zM406.6 392.566c.9 1.4 3.2 3.2 5 4 1.9.8 3.4 1.9 3.4 2.4 0 .6.7.8 1.5.5.8-.4 1.5-.2 1.5.4 0 .6-.6 1.3-1.2 1.5-.9.4-.8.6.3.6.8.1 2.6 1.2 3.8 2.5 1.8 1.9 2.1 2.8 1.2 4.3-.9 1.7-.4 2.1 4.4 3.8 3 1 5.6 2.4 5.9 3.1.6 1.7 5.6 1.4 5.6-.2 0-.7-.7-1.9-1.5-2.8-1.7-1.6-2.1-6.6-.5-6.6 1.4 0 1.2-2-.2-2.4-.7-.3-2.6-.7-4.1-1-1.7-.4-2.5-1.1-2.1-1.8.5-.7.2-.9-.7-.6-5.1 1.9-5.8 1.9-8.8-1.1-1.7-1.7-3.1-3.7-3.1-4.6 0-.9-.9-1.5-2.2-1.5-1.3 0-3.2-.7-4.2-1.5-1.1-.8-2.8-1.5-3.8-1.5-1.7 0-1.8.1-.2 2.5zM440.8 422.166c.2 1.6.8 2.9 1.2 2.9.5 0 2.2 1.2 3.9 2.6 3.9 3.2 3.9 2.7.1-2.9s-5.8-6.6-5.2-2.6zM449 431.966c0 .5.5 1.3 1 1.6.6.3 1 .2 1-.4 0-.5-.4-1.3-1-1.6-.5-.3-1-.2-1 .4zM453.5 435.966c1.1 1.9-1.5 10-3.4 10.6-1.3.4-1.6 1.7-1.4 6.7.1 3.3.4 6.7.7 7.4.3.8-.3 1.9-1.4 2.7-1.3.9-2 3-2.5 7.2l-.6 6 3.6 1.7c4.5 2.3 6.5 2.3 6.5.1 0-1.3.9-.8 3.7 1.9 2.7 2.8 4 5.3 5.3 10.2 1.3 5.4 1.4 6.6.3 6.6-1.1 0-1 .5.3 2.5 1.7 2.6 1.2 4.5-1.2 4.5-.8 0-1.4.5-1.4 1.1 0 .6.7.8 1.6.5.9-.3 2.2-.6 3-.6.8 0 1.4-.7 1.4-1.6 0-1.2.7-1.4 3-.9 2 .4 3 .3 3-.5 0-.7.8-1 2-.7 2.1.5 2.3 0 2-4.5-.4-6.3 5.9-9.7 8-4.3 1.2 3.1 1.3 3.1 4.3.1 1.8-1.8 3.1-2.2 5.2-1.8 2.4.4 2.7.2 2.2-1.2-.4-1.1.1-2.8 1.3-4.3 2.2-2.8 2.6-5.3.9-5.3-.5 0-2.9-2-5.1-4.5-2.3-2.5-4.7-4.5-5.3-4.5-.7 0-1.5-.9-1.8-2-.5-1.8-2.3-2.5-6.6-2.3-.9.1-1-.2-.2-1 1.7-1.7 1.3-4.8-.7-5.3-.9-.3-2.5-1.9-3.4-3.5-1-1.6-3.1-3.5-4.8-4-1.7-.6-6-4.6-10.2-9.2-6.4-7.4-10.3-11-8.3-7.8zM598 444.866c1.8 3.7-1.8 5.8-8.7 5.2-1.7-.1-2.3.4-2.3 1.9 0 1.2-.5 2.1-1.1 2.1-.5 0-.9 1-.7 2.2.3 2.2 0 2.3-4.9 2-3.9-.3-5.3 0-5.3 1 0 1.6-3.7 4.1-5 3.3-.6-.4-2.2.2-3.8 1.3-1.5 1-3.4 2-4.2 2.1-.8.1-3.5.4-5.9.7-2.7.4-5.2.2-6.8-.7-2-1.1-2.6-1.1-3.2 0-.5.7-2.1 1.4-3.7 1.5-1.6.1-3.4.4-3.9.8-.6.3-2.1.1-3.4-.6-3.4-1.9-12.3-.2-15.7 2.9-1.5 1.4-3.3 2.5-4.1 2.5-.7 0-2.9 1.6-4.7 3.5-1.9 1.9-4.3 3.5-5.4 3.5-2.9 0-3.6 2.9-1.2 5.5 1.1 1.2 2 2.5 2 2.9 0 .5 1.4 2.4 3 4.3 1.7 1.8 3 4.2 3 5.2s.9 2.6 1.9 3.5c1.1 1 1.7 2.4 1.4 3.2-.3 1 .2 1.4 1.8 1.4 2.2.1 2.3.2.7 1.4-2.1 1.5-2.3 4.7-.6 6.4.6.6 1.3 2.6 1.5 4.4.2 2.3 1.6 4.5 4.7 7.5 2.5 2.4 4.2 4.3 3.8 4.3-.4 0 .8.9 2.6 2 2.1 1.3 3.5 3.1 3.9 5.1.4 2.1.9 2.7 1.6 2 1.5-1.5 2.7-1.4 2.7.4 0 .8.9 1.9 2 2.5 1.1.6 2 1.7 2 2.5 0 .7 2.7 3.5 6 6.1 3.3 2.5 5.7 5 5.5 5.5-.3.4 0 1.1.6 1.5.7.4.9.3.6-.3-.4-.5.5-1.6 1.8-2.3 3.1-1.7 3.2-4.7.5-10.1l-2.1-4 2.8.7c3.9.9 4.1 1.1 4.8 4.5.4 1.9 1.5 3.3 2.6 3.6 1 .3 1.9 1.2 1.9 1.9 0 .8.3 1.3.8 1.3 2.3-.4 3.5.5 4.9 3.8.9 2.1 1.6 4.1 1.5 4.5-.1.5.9.8 2.2.8 1.4 0 2.8.4 3.1 1 .3.5 1.1 1 1.6 1 .6 0 .8-.4.5-.9-.8-1.2 7.6-2 9.2-.8.6.5 1.2.6 1.2.1 0-.4.6 0 1.3 1.1.8 1 1.9 1.5 2.5 1.1 1.9-1.1 1.4-5.1-.8-7.1-1.6-1.4-1.7-2-.6-3 1.4-1.4 3.3-1.5 5.4-.2.7.5 1.2.4 1.2-.2 0-.6.9-1.1 1.9-1.1 3.2 0 9.4-4.1 8.1-5.4-.7-.7-1.6-.7-3 .2-1.6 1-2.4 1-3.9 0-2.4-1.5-3.4-4.7-2-6.4.7-.9.2-1.4-1.9-1.9-2.3-.5-2.9-1.2-2.9-3.1 0-2.2.3-2.4 2.8-1.9 2.5.6 2.9.3 2.9-1.4 0-2.6 1.2-2.7 2.8-.1 1.5 2.4 3.4 2.7 2.5.3-.4-1-.2-1.4.4-1 .6.4 2.4.2 4.1-.2 3.4-1 5.9.7 4.7 3.1-.4.7-.1.6.7-.3 1.6-2 7.5-3.2 8.4-1.8.9 1.6 2.5-1.2 1.8-3.3-.4-1.3.3-1.8 2.8-2.3 2.5-.5 3.7-1.5 5-4.3 2-4.2 1.6-5.2-2.2-5.2-2.9 0-4.4 1.9-3.4 4.5.5 1.2-.3 1.5-4.2 1.3-5.6-.2-7.8-1.8-7.1-5.4.3-1.7-.1-2.8-1.4-3.5-2.2-1.1-2.5-3.5-.6-4.2.9-.3.9-.7 0-1.8-1.2-1.5-.6-6.9.8-6.9.5 0 .9-.7.9-1.5s.4-1.5.8-1.5c1.6 0 3.2 2.4 3.2 4.8 0 1.8.4 2.2 1.8 1.8.9-.3 2.4-.1 3.2.4 1 .6 2 .4 3.2-.7 1.9-1.7 2.4-4.8.9-5.7-1.2-.8-1.1-6 .2-6.8.6-.3 1.2-2.7 1.4-5.1.4-4 .1-4.7-2.6-6.6-3.6-2.6-5.5-7.7-4.5-12.5.4-2.3.2-3.6-.5-3.6-.6 0-1.8-1.5-2.7-3.3-2.1-3.9-3.6-5.2-9.4-7.9-5-2.3-5.8-3.1-8.5-7.2-1.1-1.6-2.1-2.4-2.3-1.7-.6 1.7-3.3 1.3-4.9-.7-1.3-1.5-1.3-1.5-.3.6z"/><path d="M445.5 479.066c-.3.5-.1 1 .4 1 .6 0 1.1-.5 1.1-1 0-.6-.2-1-.4-1-.3 0-.8.4-1.1 1zM638.4 507.166c3.2 2.5 3.6 6.4.6 5.4-1.5-.5-1.8-.3-1.4.9.3.9 1 1.6 1.5 1.6s.9.8.9 1.7c0 1.5-.2 1.6-1 .3-.5-.8-1-1-1-.5 0 .6.9 1.8 2 2.8 1.3 1 2 1.2 2 .5 0-.9.3-.9 1.2 0 .7.7 1.8 1.2 2.6 1.2 1.2 0 1.2-.3.1-1.6-.8-1-.9-1.8-.2-2.2.6-.4.7-1.5.2-2.7-.4-1.1-.8-1.4-.8-.6-.1 2-3.1-.7-3.1-2.8 0-1.8-3.9-6.1-5.4-6.1-.5 0 .3.9 1.8 2.1zM457 507.466c0 .2.9.6 2 .9 1.1.3 2 .1 2-.4s-.9-.9-2-.9-2 .2-2 .4zM610 535.266c0 .7.7 2.4 1.6 3.7 1.2 1.7 1.9 2 2.8 1.1.8-.8.7-1.3-.4-2-.8-.5-1.5-1.5-1.5-2.1 0-.7-.6-1.4-1.2-1.7-.7-.2-1.3.2-1.3 1zM612.8 551.166c-4.1 4.4-5.3 9.9-2.2 9.9.8 0 1.2.5.9 1-.5.8-1.1.7-2.1-.1-2.3-1.9-2.8-.2-.9 2.7 1 1.5 1.3 2.9.8 3.3-1.9 1.2-2.3 6.9-.7 8.6.9.8 1.8 1.5 2.2 1.5.4 0 1.6 1.4 2.7 3.1 2.5 3.8 4.8 5.1 10.5 6 2.5.4 7.6 1.8 11.3 3.1 7.6 2.7 12.7 2.6 12.7-.2 0-1.3.5-1.7 2-1.3 1.2.3 2 0 2-.7 0-1.9 8.2-.1 9.8 2.1 1.4 2.1 4.2 2.6 4.2.7 0-.7.7-.5 1.8.5 1.6 1.5 1.9 1.5 3-.3.6-1.1.9-2.5.6-3.3-.2-.7.7-2.6 2.1-4.1 1.4-1.5 2.5-3.6 2.5-4.6 0-2.2-2.2-3.9-2.8-2.2-.2.7-1.2 1.2-2.2 1.2-1 0-2 .9-2.3 2.1-.5 1.8-.9 1.9-2.7.9-1.6-.9-2.5-.8-3.6.1-1.5 1.2-1.7.8-1.4-3 .1-1.8-.2-2.2-1.4-1.8-2.8 1.1-4.2-.2-4-3.6.1-1.8-.4-4-1.4-5-2.2-2.4-.2-3.7 4.5-3 2.3.4 3.3.2 3.3-.7 0-.7.8-1.9 1.8-2.7.9-.8 1.1-1.2.5-.8-.7.3-1.3.3-1.3-.2 0-1.5 1.5-2.8 3.5-3 5.5-.7 5.9-1 6.1-4.1.1-1.8-.2-3-.6-2.7-.4.3-1.3-.2-2-1-1-1.2-1.6-1.2-4.5.2-2 1-3.1 2.1-2.8 2.9.8 2.2-2.2 1.6-5-1-3.2-3-7-4.3-7.5-2.7-.2.6-1.2 1.1-2.2 1.1-.9 0-2.3.7-3 1.5-.7.8-2 1.5-2.9 1.5-1.8 0-5.1 4.8-5.1 7.4 0 2.2-4.7 3.9-8.7 3.1-2.8-.5-3.3-.3-3.3 1.4 0 1.8-.5 2-3.9 1.7-2.1-.2-4.3-.6-5-1-.6-.4-1.1-.1-1.1.8 0 1.6-2.5 2.2-3.3.8-.7-1.2 1.7-4.7 3.3-4.7 1.7 0 3-4 2.3-7.3-.4-1.6-.1-2.2 1.3-2.2 1.9 0 1-1.5-.9-1.5-.7 0-1.1-1.1-1-2.3.2-1.2.2-2.2 0-2.1-.1 0-1.9 1.8-3.9 4zM597 555.966c0 .6.5 1.1 1.1 1.1.5 0 .8.4.4.9-.3.5 0 1.3.6 1.6.6.4.9 2.9.8 5.8-.3 4.2 0 5.2 1.6 5.8 1.1.4 1.4.8.8.8-1.8.1-1.6 2.1.2 2.1 1.2 0 1.4-.8.9-4.3-.4-2.3-1.1-4.7-1.6-5.4-.5-.6-.8-2.3-.6-3.8.2-1.9-.4-3.2-1.9-4.2s-2.3-1.1-2.3-.4zM555.2 560.766c-.8 1.8-.9 3-.2 3.7.7.7 1 .6 1-.1s.9-1.4 1.9-1.8c1.3-.4 1.7-1.2 1.4-2.5-.7-2.8-2.6-2.5-4.1.7zM587.4 575.166c-.3.6-.2 1.4.4 1.8.5.3 1.1 1.5 1.3 2.6.3 1.2 1.4 2.1 2.7 2.3 1.4.2 2.2.9 2 1.9-.2.9.2 1.8.7 2 .6.2 1.1-1.4 1.2-3.7.2-2.9-.2-4-1.3-4-.7 0-1.4-.6-1.4-1.4 0-2.3-4.4-3.5-5.6-1.5zM598.5 576.066c.3.5 1.5 1 2.6 1s1.7-.5 1.4-1c-.3-.6-1.5-1-2.6-1s-1.7.4-1.4 1zM588.3 585.366c-.6.7-2.8 2.5-4.7 4.2-2 1.6-3.6 3.4-3.6 4 0 .5-1.2 1.9-2.7 3.1l-2.7 2.1 3 1.4c2.1 1 3 2.2 3.2 4.5.3 2.7.6 3 3.2 2.6 2.2-.3 3-1 3-2.4 0-1.6.5-1.9 2.1-1.5 1.8.5 2 .2 1.6-1.9-.2-1.3 0-2.7.5-3 .4-.3 0-1.8-1.1-3.3-1.8-2.5-2.5-7.1-1.1-7.1.3 0 1.1-.9 1.8-2 1-1.6 1-2 0-2-.7.1-1.8.6-2.5 1.3zM662 599.566c0 .2 1 1 2.3 1.6 2 1.1 2.1 1.1.8-.4-1.3-1.6-3.1-2.3-3.1-1.2zM572.6 602.466c.3.8-.8 1.9-2.6 2.8-2.7 1.3-2.9 1.7-1.5 2.8 1.2 1 1.8 1 3.2-.1.9-.8 1.9-1.3 2.2-1.3.3.1.5-.2.4-.7-.2-.5.4-.9 1.2-.9.8 0 1.5-.5 1.5-1 0-.6-.5-1-1.1-1-.5 0-.8-.4-.5-.8.2-.4-.4-.8-1.4-.9-1.2-.1-1.7.3-1.4 1.1z"/></g></svg>