<?xml version="1.0" standalone="no"?>
<!DOCTYPE svg PUBLIC "-//W3C//DTD SVG 20010904//EN"
 "http://www.w3.org/TR/2001/REC-SVG-20010904/DTD/svg10.dtd">
<svg version="1.0" xmlns="http://www.w3.org/2000/svg"
 width="714.748526pt" height="1211.076202pt" viewBox="0 0 714.748526 1211.076202"
 preserveAspectRatio="xMidYMid meet">
<metadata>
Created by potrace 1.15, written by Peter Selinger 2001-2017
</metadata>
<g transform="translate(-612.099931,1619.293110) scale(0.100000,-0.100000)"
fill="#222222" stroke="none">
<path d="M8400 16191 c0 -6 -16 -11 -35 -11 -19 0 -35 -3 -35 -7 0 -15 -47
-30 -63 -21 -12 6 -19 3 -27 -12 -6 -11 -17 -20 -24 -20 -17 0 -29 -42 -15
-51 6 -3 4 -11 -6 -19 -8 -7 -15 -8 -15 -3 0 18 -30 10 -36 -10 -4 -12 2 -27
17 -43 19 -20 21 -28 12 -43 -9 -14 -9 -21 0 -31 9 -9 7 -15 -10 -27 -13 -9
-23 -26 -23 -38 0 -12 -10 -30 -22 -38 -19 -13 -20 -16 -6 -16 10 -1 24 -14
32 -29 14 -27 13 -30 -9 -54 -26 -28 -24 -32 30 -58 36 -17 75 -50 75 -63 0
-5 -6 -7 -14 -4 -12 5 -12 1 0 -30 9 -19 13 -41 10 -48 -3 -8 2 -19 10 -25 10
-9 14 -9 14 -1 0 6 5 11 10 11 6 0 10 -12 10 -26 0 -18 5 -24 18 -22 20 3 42
-9 42 -23 0 -6 -4 -7 -10 -4 -6 3 -7 -1 -4 -9 3 -9 10 -16 14 -16 27 0 50
-169 25 -190 -8 -7 -22 -10 -30 -6 -10 3 -25 -4 -39 -19 -19 -20 -23 -35 -21
-69 2 -25 6 -50 10 -56 9 -15 -4 -83 -18 -92 -7 -4 -25 -8 -40 -8 -21 0 -27
-4 -25 -17 2 -12 -5 -19 -20 -21 -22 -3 -22 -5 -7 -16 10 -7 20 -30 24 -51 6
-36 7 -37 23 -22 11 11 19 13 23 6 4 -5 -1 -16 -10 -23 -16 -11 -15 -14 9 -29
14 -9 39 -17 55 -17 48 0 81 -17 81 -41 0 -12 11 -30 24 -40 24 -19 41 -79 24
-90 -5 -3 7 -25 26 -47 l34 -42 -24 -50 c-13 -27 -24 -56 -24 -64 0 -8 -6 -16
-12 -19 -10 -3 -10 -9 -2 -24 9 -15 8 -23 -6 -41 -10 -12 -24 -22 -31 -22 -8
0 -6 -7 5 -19 15 -17 16 -27 8 -65 -5 -25 -7 -48 -4 -50 3 -3 23 4 44 16 30
17 38 27 34 43 -8 33 7 48 42 40 28 -6 31 -4 34 22 l3 28 18 -32 c10 -18 22
-33 28 -33 8 0 8 5 -1 15 -6 8 -10 20 -8 26 2 7 14 -1 27 -19 12 -18 19 -32
14 -32 -4 0 3 -7 15 -16 12 -8 26 -12 32 -9 5 3 22 -1 38 -9 16 -8 32 -13 35
-10 3 3 28 -3 57 -13 51 -18 52 -18 47 -54 -3 -20 -2 -41 2 -46 9 -14 41 -24
41 -13 0 6 -7 10 -15 10 -8 0 -15 5 -15 10 0 6 5 10 10 10 6 0 10 9 10 19 0
11 -4 23 -10 26 -18 11 -11 23 10 18 12 -3 20 0 20 7 0 9 7 8 24 -3 23 -15 24
-15 30 6 3 12 6 32 6 44 0 18 6 22 30 21 16 -1 37 5 46 12 9 8 30 13 48 12 20
-2 38 4 49 15 47 51 55 62 49 69 -4 4 6 4 21 0 33 -8 59 8 50 30 -7 18 7 17
31 -1 19 -14 19 -15 2 -15 -16 0 -17 -2 -5 -17 15 -17 20 -103 7 -103 -4 0 -8
-11 -8 -25 0 -21 -5 -25 -30 -25 -16 0 -30 -4 -30 -10 0 -5 -10 -10 -23 -10
-13 0 -33 -9 -44 -19 -23 -21 -62 -18 -76 6 -11 19 -57 17 -57 -3 0 -9 -13
-21 -30 -27 -23 -9 -30 -17 -30 -39 0 -15 5 -28 10 -28 6 0 10 -5 10 -11 0 -6
-7 -8 -16 -5 -13 5 -15 2 -11 -14 4 -16 0 -20 -20 -20 -34 0 -52 -26 -53 -72
0 -24 -7 -45 -19 -57 -23 -23 -23 -88 0 -83 8 2 19 10 26 19 17 22 31 8 44
-43 12 -46 35 -67 49 -45 5 9 9 8 15 -6 11 -28 14 -113 3 -113 -5 0 -6 -5 -2
-12 4 -6 8 -33 8 -58 1 -26 6 -54 12 -61 6 -8 17 -36 24 -62 13 -48 13 -48
-19 -76 -17 -15 -31 -38 -31 -50 0 -34 -16 -57 -49 -71 -22 -9 -30 -18 -28
-34 2 -18 -3 -21 -33 -21 -32 0 -36 -4 -52 -45 -10 -25 -18 -55 -18 -67 0 -13
-4 -23 -10 -23 -5 0 -10 -6 -10 -14 0 -7 -13 -16 -28 -19 -26 -5 -28 -9 -24
-37 5 -38 -25 -110 -46 -110 -11 0 -13 -9 -9 -39 4 -31 1 -44 -15 -58 -35 -31
-41 -53 -23 -73 9 -10 27 -21 41 -24 14 -4 24 -14 24 -25 0 -10 9 -26 20 -36
22 -20 27 -55 8 -55 -6 0 -4 -7 5 -18 10 -10 17 -28 17 -40 0 -12 9 -26 20
-32 15 -8 20 -21 20 -50 0 -27 4 -40 14 -40 20 0 40 -27 24 -32 -8 -3 -12 -20
-11 -46 2 -37 -1 -43 -23 -48 -13 -3 -24 -10 -24 -14 0 -14 28 -19 34 -7 3 9
8 8 15 -3 9 -12 13 -13 20 -1 7 10 13 11 30 2 44 -24 17 -41 -34 -21 -20 8
-35 7 -56 -4 -27 -14 -29 -13 -29 6 0 15 -4 18 -17 13 -69 -27 -218 -24 -247
5 -17 17 -43 11 -49 -10 -4 -16 -14 -20 -54 -21 -75 -1 -138 -13 -136 -27 2
-6 -6 -16 -16 -22 -16 -8 -18 -17 -14 -47 3 -21 6 -47 7 -58 0 -12 9 -32 18
-47 16 -25 16 -26 -14 -57 -17 -17 -39 -31 -49 -31 -20 0 -26 -15 -9 -25 6 -3
10 -15 10 -26 0 -12 7 -19 18 -19 30 0 59 -118 33 -134 -17 -11 0 -41 32 -60
l32 -18 -23 -18 c-12 -10 -22 -25 -22 -34 0 -9 -8 -16 -20 -16 -11 0 -20 -7
-20 -15 0 -9 -17 -23 -37 -33 -21 -9 -39 -20 -41 -24 -2 -4 -21 1 -42 12 -71
36 -154 20 -165 -31 -4 -17 -13 -33 -21 -36 -8 -3 -14 -12 -14 -20 0 -11 -7
-13 -24 -9 -16 4 -26 1 -29 -9 -5 -11 -13 -12 -38 -5 -30 9 -31 8 -15 -9 20
-22 20 -35 1 -51 -13 -11 -13 -15 0 -33 8 -11 12 -31 9 -47 -5 -21 0 -32 18
-46 34 -27 41 -43 28 -59 -8 -9 -10 -27 -5 -47 11 -53 5 -160 -11 -182 -12
-17 -11 -22 3 -38 9 -10 21 -28 27 -40 6 -13 22 -28 35 -34 15 -8 18 -13 9
-17 -10 -3 -11 -9 -1 -25 10 -16 9 -21 -1 -25 -7 -3 -16 -19 -19 -36 -8 -38
-51 -81 -81 -81 -12 0 -32 7 -44 16 -21 15 -22 14 -22 -16 0 -18 -6 -33 -15
-36 -8 -4 -15 -15 -15 -25 0 -12 -7 -19 -18 -19 -11 0 -28 -8 -39 -17 -17 -16
-18 -22 -9 -50 6 -17 14 -35 19 -39 13 -13 8 -26 -8 -20 -9 3 -15 0 -15 -9 0
-10 -10 -15 -28 -15 -16 0 -35 -9 -47 -22 -10 -13 -18 -24 -17 -25 6 -8 0 -23
-9 -23 -6 0 -27 -14 -46 -30 -18 -16 -40 -30 -48 -30 -8 0 -15 -4 -15 -9 0 -5
-9 -11 -20 -14 -26 -7 -26 -33 1 -40 12 -3 18 -10 14 -16 -4 -7 -14 -5 -31 5
-30 20 -38 15 -25 -19 12 -30 1 -42 -29 -32 -16 5 -19 2 -17 -12 5 -23 16 -53
28 -76 6 -11 6 -24 0 -34 -5 -9 -5 -29 -1 -44 9 -31 37 -76 45 -71 14 7 115
-28 115 -40 0 -4 12 -6 26 -5 32 2 45 -22 16 -30 -13 -3 -19 -10 -15 -20 4 -9
-1 -19 -10 -25 -10 -5 -17 -16 -17 -24 0 -8 -4 -13 -9 -10 -4 3 -16 -3 -26
-14 -10 -11 -29 -20 -42 -20 -16 0 -23 -6 -23 -20 0 -12 7 -20 16 -20 13 0 11
-6 -9 -26 -19 -19 -40 -27 -82 -31 -40 -4 -59 -11 -66 -24 -5 -11 -18 -19 -29
-19 -11 0 -25 -12 -33 -26 -15 -28 -72 -54 -119 -54 -32 0 -34 -7 -12 -38 17
-25 10 -62 -12 -62 -8 0 -19 -11 -25 -24 -7 -14 -17 -22 -25 -19 -10 3 -14 -3
-14 -20 0 -17 -7 -28 -20 -32 -11 -4 -27 -19 -35 -35 -23 -45 -44 -60 -81 -60
-19 0 -34 -5 -34 -11 0 -6 -18 -27 -40 -46 -28 -25 -40 -44 -40 -63 0 -15 -9
-35 -20 -45 -11 -10 -25 -35 -31 -56 -7 -22 -19 -39 -30 -42 -11 -3 -19 -12
-19 -21 0 -9 -6 -16 -14 -16 -19 0 -27 -25 -13 -39 11 -11 -13 -17 -58 -12
-14 1 -17 -1 -9 -9 20 -20 68 -19 103 1 18 11 61 22 95 26 33 3 66 10 73 15 7
5 17 7 23 3 5 -3 10 1 10 9 0 9 6 13 14 10 7 -3 27 11 44 31 25 28 39 35 71
37 30 1 41 6 45 20 4 19 6 19 31 2 16 -10 44 -17 72 -16 33 0 51 -5 62 -18 21
-25 90 -43 108 -28 7 6 13 7 14 2 1 -5 4 2 8 16 l7 25 17 -31 c9 -17 13 -34
10 -38 -4 -3 6 -6 20 -6 34 0 50 -29 41 -75 -4 -25 -2 -36 7 -40 15 -6 19 -58
7 -71 -15 -14 -8 -26 12 -21 13 3 31 -4 49 -19 30 -25 43 -26 151 -6 30 6 44
13 42 22 -3 11 0 11 12 1 12 -10 13 -18 4 -36 -13 -29 6 -85 28 -85 16 0 19
-21 4 -36 -6 -6 -6 -22 0 -44 6 -22 6 -38 -1 -46 -7 -9 -6 -19 3 -34 11 -19
10 -24 -10 -40 l-23 -19 21 -40 c12 -24 16 -41 9 -41 -7 0 -8 -11 -4 -29 4
-21 1 -33 -10 -43 -9 -7 -24 -21 -32 -30 -9 -9 -19 -15 -23 -13 -18 11 1 -50
23 -73 15 -16 27 -33 27 -40 0 -14 31 -31 47 -25 7 3 14 -10 18 -34 8 -50 34
-102 61 -120 13 -8 24 -29 28 -53 4 -25 12 -40 21 -40 20 0 39 -38 26 -54 -5
-6 -9 -51 -7 -101 2 -84 15 -135 35 -135 5 0 11 -12 14 -27 4 -21 0 -32 -16
-45 l-22 -17 28 -29 c15 -15 24 -31 21 -35 -13 -12 7 -58 36 -84 22 -19 27
-29 19 -39 -8 -9 -1 -22 25 -50 37 -39 53 -71 42 -82 -4 -3 -13 4 -22 16 -23
33 -36 17 -33 -41 4 -60 -10 -69 -64 -44 -18 8 -41 17 -51 19 -12 2 -23 15
-28 35 -7 27 -12 31 -39 30 -20 -1 -36 -9 -43 -22 -6 -11 -17 -31 -25 -45 -9
-14 -14 -35 -12 -47 1 -13 -2 -23 -8 -23 -18 0 -101 -90 -101 -110 0 -10 -4
-22 -10 -25 -5 -3 -10 -24 -10 -46 0 -27 -5 -42 -16 -46 -8 -3 -20 -17 -25
-30 -5 -13 -13 -21 -19 -18 -23 14 -7 -15 31 -56 22 -24 35 -45 30 -47 -7 -2
-3 -14 9 -29 11 -14 20 -34 20 -45 0 -11 4 -17 9 -13 5 3 13 0 16 -6 4 -5 12
-8 19 -6 6 3 19 -13 28 -34 15 -35 15 -39 1 -39 -11 0 -14 -6 -9 -24 7 -28
-10 -44 -27 -27 -17 17 -26 13 -20 -9 3 -11 14 -20 24 -20 11 0 28 -9 39 -20
11 -11 24 -20 28 -20 5 0 16 -18 26 -41 10 -22 23 -42 30 -45 7 -3 10 -20 8
-45 -4 -33 1 -46 22 -68 20 -21 26 -39 30 -86 2 -33 5 -61 5 -62 1 -2 8 -3 17
-3 12 0 15 7 12 25 -4 17 -1 25 8 25 8 0 11 6 8 15 -4 9 0 15 10 15 16 0 23
40 9 54 -4 4 -6 22 -5 41 2 21 -2 38 -13 46 -31 27 -55 53 -55 61 0 4 11 8 24
8 13 0 26 6 29 14 3 8 14 12 24 10 11 -3 34 10 58 31 42 38 75 51 101 41 8 -3
24 -1 35 5 13 6 25 7 32 1 7 -5 22 -12 35 -15 19 -4 22 -2 17 11 -4 12 -3 14
5 6 17 -17 83 -2 95 22 6 11 16 19 23 16 8 -2 18 9 25 27 10 27 15 31 37 26
14 -4 22 -3 18 0 -4 4 0 14 8 23 14 13 17 13 32 -1 9 -9 12 -20 8 -24 -5 -5
-11 -2 -13 5 -8 21 -32 -18 -33 -52 0 -32 -25 -67 -43 -60 -17 6 -16 -101 1
-117 10 -11 12 -10 12 1 0 9 5 8 20 -5 15 -14 20 -31 20 -70 0 -43 4 -56 26
-76 41 -38 58 -85 43 -121 -10 -24 -10 -31 1 -38 18 -11 -3 -63 -39 -93 -28
-24 -31 -28 -31 -53 0 -12 -7 -15 -24 -12 -22 4 -23 3 -15 -19 5 -14 7 -28 4
-33 -3 -5 -1 -11 5 -15 5 -3 10 -1 10 4 0 6 7 11 16 11 11 0 14 6 9 20 -5 16
-2 20 18 20 29 0 87 -27 93 -44 3 -7 0 -25 -6 -40 l-10 -27 31 18 c17 10 36
28 42 41 13 28 39 28 71 0 24 -21 25 -25 13 -48 -17 -31 -5 -63 30 -79 19 -9
22 -15 14 -24 -11 -14 -6 -47 12 -84 5 -13 8 -26 4 -29 -8 -8 37 -44 55 -44 7
0 19 -9 26 -21 20 -31 -2 -82 -31 -73 -16 5 -19 3 -14 -11 4 -9 7 -19 7 -21 0
-11 59 -1 89 15 43 23 78 13 110 -29 12 -17 30 -30 41 -30 14 0 20 -7 21 -22
0 -21 47 -67 146 -142 29 -23 153 -30 153 -8 0 6 -4 12 -9 12 -5 0 -19 15 -30
34 -25 39 -29 116 -7 116 7 0 16 9 19 21 3 12 10 18 16 14 6 -3 11 -2 11 3 0
5 10 8 23 6 12 -1 26 -3 31 -3 4 -1 6 -8 2 -16 -3 -8 -1 -15 3 -15 5 0 12 7
15 16 6 15 9 15 29 -3 15 -15 28 -18 42 -13 11 4 23 6 28 3 15 -9 5 14 -24 52
-16 22 -35 40 -42 41 -7 0 -18 2 -24 2 -7 1 -19 16 -28 32 -13 25 -13 30 -1
30 25 0 24 55 -1 86 -29 37 -31 59 -3 44 16 -8 21 -6 31 11 8 15 8 24 0 32
-20 20 -12 31 9 12 11 -10 20 -24 20 -31 0 -29 33 -33 81 -8 26 14 64 28 85
31 22 3 48 14 60 24 13 13 38 20 75 21 35 1 58 8 66 18 6 8 13 13 15 10 3 -3
17 -22 32 -42 16 -21 35 -38 43 -38 8 0 11 5 7 12 -5 8 -2 9 12 3 10 -4 33
-10 49 -13 17 -2 36 -9 43 -15 17 -13 29 0 14 15 -15 15 -16 58 -1 58 5 0 8 4
4 9 -10 17 11 20 38 6 15 -8 29 -14 30 -14 1 0 15 -4 30 -10 16 -6 33 -11 38
-11 5 0 9 -8 7 -17 -2 -12 5 -19 21 -21 15 -2 21 0 17 7 -4 6 -3 11 3 11 12 0
41 -28 41 -41 0 -14 56 -11 69 5 9 10 9 20 0 40 -7 14 -16 26 -20 26 -5 0 -6
6 -3 13 2 7 -8 17 -26 24 -20 8 -30 18 -30 33 0 12 4 19 9 16 4 -3 6 6 3 19
-5 30 8 32 34 4 13 -14 25 -18 42 -14 18 4 25 1 29 -14 5 -20 46 -37 51 -21 2
5 14 3 27 -6 21 -14 24 -14 32 1 10 17 43 11 43 -9 0 -18 40 -39 53 -27 14 11
87 -8 87 -24 0 -5 5 -3 10 5 9 13 14 10 35 -15 14 -16 25 -37 25 -45 0 -12 8
-15 36 -12 23 3 34 9 30 17 -8 22 33 5 61 -26 25 -26 29 -27 44 -13 10 9 23
13 28 9 6 -3 21 5 33 18 13 13 31 26 41 30 9 3 17 13 17 22 0 8 6 15 14 15 8
0 17 9 21 19 3 11 12 22 21 25 38 15 32 121 -9 151 -23 17 -21 32 4 38 20 5
18 27 -2 27 -6 0 -8 -4 -5 -9 3 -5 -1 -12 -10 -15 -27 -10 -30 3 -5 20 15 11
21 23 18 35 -3 11 -1 19 5 19 5 0 6 5 2 12 -5 8 -10 6 -19 -5 -14 -20 -55 -11
-55 12 0 9 -9 22 -20 29 -11 7 -21 22 -21 35 -1 17 -2 18 -6 5 -5 -22 -8 -22
-38 -2 -23 15 -23 14 -18 -7 5 -18 3 -21 -10 -16 -11 4 -17 -2 -22 -22 -6 -27
-8 -28 -53 -23 -52 6 -82 25 -58 39 7 4 15 17 17 28 4 17 13 20 77 23 49 2 75
7 78 16 4 11 10 11 30 2 13 -6 24 -16 24 -21 0 -17 39 -45 46 -34 4 6 13 4 25
-7 15 -14 21 -14 34 -4 12 10 16 8 24 -11 5 -14 5 -25 0 -27 -23 -9 -5 -44 36
-72 25 -17 45 -26 45 -20 0 17 20 11 45 -14 13 -13 36 -26 52 -29 l28 -5 -23
18 c-12 10 -22 24 -22 31 0 7 -12 26 -27 41 -22 23 -24 28 -9 28 22 0 13 38
-15 60 -14 11 -16 19 -9 26 13 13 -15 94 -32 94 -6 0 -7 21 -4 52 5 41 2 54
-11 63 -15 11 -13 14 20 23 20 6 49 20 63 31 15 12 39 21 55 21 18 0 30 6 34
19 3 10 16 22 30 25 13 3 44 22 69 41 l46 35 16 -25 c11 -16 14 -34 10 -51 -8
-31 -45 -64 -63 -57 -9 4 -13 -7 -13 -37 0 -35 -3 -42 -17 -38 -14 4 -18 -2
-20 -26 -2 -23 0 -27 7 -16 8 13 13 13 31 2 19 -12 24 -11 48 15 20 22 27 39
26 66 -1 21 2 37 6 37 5 0 6 7 3 14 -3 8 4 25 15 38 13 13 19 29 15 38 -4 8
-6 32 -5 53 1 22 -4 46 -11 55 -10 11 -10 16 -1 19 9 3 9 12 2 30 -5 15 -7 33
-5 40 6 16 -2 19 -62 26 -23 3 -40 1 -36 -4 3 -5 -2 -6 -10 -3 -9 3 -17 16
-18 28 0 11 -2 26 -2 32 -1 6 -14 22 -29 35 -26 23 -27 27 -20 79 7 45 12 54
27 52 14 -3 16 1 11 17 -5 17 -2 21 14 21 12 0 21 6 21 16 0 8 7 22 15 30 8 8
12 21 9 29 -4 9 0 15 10 15 9 0 16 4 16 9 0 25 -15 41 -37 41 -20 0 -24 4 -20
20 3 10 -2 25 -9 31 -8 7 -13 18 -10 24 2 7 -15 27 -40 46 -24 18 -44 38 -44
45 0 21 -15 24 -44 8 -16 -7 -34 -14 -41 -14 -35 0 -114 61 -108 82 3 8 -31
20 -43 16 -5 -1 -24 6 -42 17 -24 15 -36 32 -47 69 -8 27 -13 52 -10 54 3 3
-5 20 -16 39 -18 28 -18 33 -5 33 13 0 16 11 16 54 0 30 5 58 10 61 16 10 12
23 -12 36 -18 10 -20 9 -15 -5 8 -21 1 -20 -31 2 -15 10 -38 19 -51 20 -36 2
-53 25 -55 74 -2 33 -14 65 -49 124 -27 44 -45 86 -42 95 4 10 -4 22 -20 33
-15 10 -25 26 -25 40 0 14 -18 41 -47 69 -40 40 -49 44 -56 31 -6 -10 -6 -30
1 -51 10 -34 10 -34 -18 -28 -18 4 -33 1 -43 -9 -9 -9 -20 -16 -26 -16 -6 0
-11 -7 -11 -15 0 -23 -47 -19 -61 6 -9 18 -18 21 -55 16 -36 -4 -44 -1 -49 14
-5 14 -13 17 -34 13 -18 -4 -32 0 -40 10 -8 9 -22 16 -32 16 -28 0 -69 47 -69
79 0 16 -7 34 -15 41 -9 7 -15 8 -15 2 0 -5 -9 -8 -20 -5 -23 6 -27 28 -5 37
8 3 15 1 15 -5 0 -6 10 -3 22 5 12 9 30 16 39 16 11 0 18 10 21 30 3 19 0 30
-8 30 -20 0 -26 32 -8 51 12 13 13 22 5 37 -9 16 -8 21 5 24 14 3 13 7 -6 31
-12 15 -20 31 -16 34 3 3 -1 15 -9 25 -7 11 -12 25 -9 32 8 23 -24 91 -50 104
-28 14 -37 35 -10 25 10 -4 17 1 20 15 4 13 12 18 24 15 36 -10 38 106 1 135
-14 11 -12 12 13 10 23 -2 30 -8 31 -26 1 -12 12 -33 24 -46 21 -22 21 -25 6
-40 -12 -12 -14 -20 -7 -29 6 -7 12 -16 14 -22 1 -5 8 -8 13 -6 6 2 20 4 33 4
12 -1 22 3 22 9 0 5 10 2 22 -6 12 -9 37 -16 55 -16 18 0 33 -4 33 -9 0 -5 20
-7 45 -5 25 1 45 -2 45 -7 0 -6 14 -7 34 -4 23 5 38 2 47 -8 16 -17 49 -11 49
9 0 23 17 16 48 -21 26 -33 34 -36 98 -41 77 -7 119 -8 149 -4 26 3 68 -5 93
-19 33 -18 52 -13 52 11 l0 22 15 -21 c8 -12 12 -28 9 -36 -3 -8 -1 -18 5 -22
6 -3 11 -20 11 -36 0 -25 3 -29 18 -25 12 4 30 -7 57 -34 21 -22 36 -40 33
-40 -3 0 2 -20 11 -45 18 -48 58 -99 159 -203 34 -35 62 -67 63 -70 0 -4 3
-18 5 -31 3 -16 -1 -28 -11 -34 -13 -7 -14 -12 -4 -23 6 -8 9 -24 6 -36 -5
-21 -5 -21 7 -6 9 12 24 16 52 15 30 -2 43 -9 59 -32 13 -19 29 -30 45 -31 27
-1 55 20 45 35 -3 6 2 14 10 19 9 5 21 28 26 52 13 57 21 66 75 79 37 10 44
14 35 25 -9 11 -6 18 14 34 14 11 30 35 37 52 10 30 13 32 49 27 29 -4 36 -2
32 9 -3 9 1 14 12 14 12 0 15 5 10 20 -5 14 -2 20 9 20 9 0 16 5 16 10 0 6 10
8 24 4 23 -5 25 -3 31 51 6 42 11 55 21 51 12 -4 11 0 -1 24 -9 17 -11 30 -5
30 5 0 10 7 10 15 0 9 6 18 14 21 8 3 13 11 10 19 -3 7 2 15 10 18 9 4 16 13
16 21 0 7 7 16 15 19 12 5 12 10 0 34 -18 35 -19 53 -2 53 7 0 18 14 24 30 8
21 18 30 34 30 25 0 85 56 66 63 -7 2 2 11 19 20 17 9 34 13 38 10 3 -4 12 0
19 9 6 9 24 18 40 22 23 5 27 11 27 41 0 26 4 35 16 35 11 0 15 6 11 20 -4 15
0 20 13 20 13 0 28 17 45 51 25 51 25 52 6 70 -10 10 -22 15 -25 12 -8 -8 -57
38 -51 47 3 4 -2 13 -11 20 -12 11 -12 15 -2 21 10 7 9 9 -3 9 -12 0 -15 7
-11 25 5 28 -21 36 -32 10 -15 -40 -71 9 -64 56 3 17 -1 34 -9 40 -7 6 -10 15
-7 20 3 5 -5 9 -19 9 -40 0 -110 90 -100 130 3 10 16 21 29 24 16 4 24 14 24
29 0 25 10 42 25 42 25 2 65 30 65 47 0 10 4 18 10 18 11 0 11 70 0 85 -4 6
-13 32 -20 58 -7 26 -21 52 -31 58 -11 5 -19 18 -19 28 0 11 -6 21 -14 24 -20
8 -30 74 -16 108 9 21 9 36 0 64 -10 30 -9 39 3 53 8 9 17 43 21 75 6 56 39
126 69 144 25 15 56 70 51 89 -3 12 4 29 18 45 13 13 23 29 24 34 1 25 36 84
68 117 20 20 36 45 36 54 0 9 11 32 25 50 14 18 25 40 25 48 0 9 6 16 14 16 8
0 24 25 37 55 13 32 29 55 38 55 8 0 11 3 8 7 -9 9 33 53 50 53 7 0 13 6 13
14 0 8 3 22 6 30 5 12 2 15 -10 10 -14 -5 -14 -3 -3 18 23 45 44 60 66 48 13
-7 22 -7 26 0 4 6 10 8 15 5 4 -3 13 2 20 10 7 8 21 15 31 15 20 0 25 15 9 25
-15 9 -12 47 2 43 7 -3 29 13 50 34 20 21 44 38 53 38 23 0 29 25 18 80 -12
57 6 108 51 149 19 18 26 34 26 63 l0 38 45 0 c37 0 51 5 71 27 l26 28 -24 20
c-29 24 -62 75 -63 95 0 12 -16 15 -73 17 -93 1 -100 4 -94 41 3 25 -1 32 -32
50 -32 19 -35 24 -26 42 6 11 7 20 3 19 -4 -1 -15 0 -23 4 -8 3 -26 7 -41 9
-22 4 -25 2 -21 -23 3 -20 -2 -30 -18 -39 -13 -7 -20 -8 -16 -2 3 6 1 14 -5
18 -6 3 -15 0 -20 -7 -7 -11 -9 -11 -9 -1 0 7 -11 17 -25 22 -30 11 -34 33 -5
28 10 -2 19 0 20 5 1 25 -1 27 -18 18 -13 -7 -22 -7 -29 0 -11 11 -63 2 -63
-12 0 -5 -13 -9 -29 -9 -16 0 -31 -6 -35 -15 -3 -9 -19 -15 -41 -15 -22 0 -34
-4 -30 -10 3 -5 1 -10 -4 -10 -6 0 -11 -10 -11 -23 0 -13 -5 -28 -11 -34 -8
-8 -6 -13 9 -17 11 -4 27 -15 37 -26 19 -21 43 -17 63 11 16 24 42 13 42 -16
0 -13 4 -26 10 -30 5 -3 19 -19 30 -35 l21 -30 -35 -32 c-20 -18 -36 -37 -36
-41 0 -13 -21 -30 -62 -52 -21 -11 -38 -25 -38 -31 0 -6 -13 -17 -29 -23 -26
-11 -29 -17 -33 -75 -6 -68 -20 -99 -54 -115 -29 -13 -41 -49 -22 -64 30 -24
58 -87 49 -106 -6 -10 -13 -42 -17 -72 -3 -30 -14 -65 -22 -79 -9 -14 -15 -28
-14 -32 1 -4 -7 -12 -18 -18 -11 -6 -20 -18 -20 -27 0 -25 -40 -103 -53 -103
-5 0 -7 -3 -4 -7 12 -11 -37 -30 -59 -22 -29 10 -48 -4 -39 -30 5 -17 -1 -29
-27 -51 -40 -36 -58 -38 -58 -7 0 13 -11 34 -25 47 -14 13 -25 28 -25 33 0 15
-33 36 -56 37 -12 0 -27 6 -34 14 -9 11 -17 12 -34 4 -16 -7 -29 -7 -43 0 -16
9 -22 6 -38 -24 -15 -28 -16 -40 -8 -69 6 -18 8 -36 5 -39 -10 -11 -40 -6 -45
7 -4 8 -6 7 -6 -4 -1 -13 -9 -14 -78 -1 -86 15 -109 24 -105 42 1 6 -2 9 -8 5
-5 -3 -10 -15 -10 -26 0 -16 -7 -19 -52 -18 -29 0 -47 3 -40 6 16 6 16 24 0
20 -7 -1 -19 -8 -27 -16 -13 -12 -16 -11 -25 8 -10 23 -55 28 -101 11 -21 -8
-33 -5 -63 14 -48 32 -98 42 -119 25 -8 -7 -23 -14 -32 -14 -36 -1 -97 -18
-112 -32 -20 -17 -43 -9 -64 23 -8 13 -22 24 -30 24 -8 0 -25 12 -39 26 -22
24 -29 26 -74 21 -30 -3 -54 -1 -60 5 -8 8 -15 8 -26 -1 -12 -10 -21 -9 -44 3
-27 14 -31 14 -36 0 -5 -12 -16 -15 -41 -12 -22 2 -35 0 -35 -7 0 -16 -47 -58
-66 -61 -9 -2 -29 -15 -44 -29 -27 -26 -28 -26 -60 -10 -18 9 -29 12 -25 5 19
-31 -43 -52 -77 -26 -25 18 -22 33 7 52 14 9 23 20 20 24 -3 4 2 13 10 20 8 7
15 19 15 26 0 9 12 14 33 14 33 0 57 15 57 35 -1 5 -15 19 -33 31 -21 13 -31
27 -30 41 1 11 -6 28 -17 38 -19 17 -19 18 3 36 12 10 17 18 11 19 -16 0 -34
45 -24 60 5 8 6 26 3 41 -3 19 1 37 15 57 15 20 18 32 11 39 -8 8 -6 20 5 41
20 38 20 48 1 32 -11 -9 -19 -9 -36 3 -12 9 -27 13 -34 11 -7 -3 -23 9 -35 26
l-22 31 27 -7 c20 -5 30 -2 39 12 8 11 13 24 12 29 0 6 24 12 54 15 48 4 55 8
58 28 3 20 8 23 28 18 35 -9 46 1 33 27 -8 15 -9 22 -1 25 7 2 6 16 -4 44 -9
26 -11 44 -5 48 7 3 5 20 -4 45 -12 37 -12 40 5 43 17 3 18 12 15 93 l-4 90
32 19 c18 11 44 20 59 20 18 0 29 7 33 19 3 11 23 28 43 38 27 13 37 24 36 41
-1 25 0 26 27 12 31 -17 52 12 55 76 1 40 -3 60 -17 77 -17 22 -17 25 -2 47
18 26 19 81 1 113 -5 11 -11 48 -12 83 -1 51 -6 67 -25 88 -21 23 -23 31 -18
88 3 35 9 73 13 86 5 18 3 22 -17 22 -21 0 -66 25 -134 73 -17 13 -18 17 -6
31 12 15 12 21 -6 44 -11 15 -29 29 -39 31 -10 2 -22 9 -26 15 -7 13 -51 13
-102 0 -23 -5 -27 -4 -21 7 5 7 8 26 7 41 -1 17 4 31 15 38 16 9 15 10 -6 8
-21 -3 -26 2 -32 30 -3 17 -3 32 2 32 4 0 8 8 7 18 -1 58 12 133 26 147 24 24
20 28 -21 23 -43 -5 -83 9 -83 29 0 7 5 13 11 13 8 0 10 12 6 35 -5 30 -3 35
14 35 12 0 19 7 19 20 0 23 0 23 37 9 22 -8 30 -7 40 6 6 10 17 14 22 10 6 -3
14 1 17 9 7 18 49 22 59 6 9 -15 45 -12 51 5 8 20 44 1 44 -24 0 -11 7 -21 15
-25 8 -3 15 -14 15 -25 0 -20 22 -33 43 -25 7 2 22 -5 32 -16 15 -17 17 -23 6
-29 -8 -5 -10 -14 -6 -21 6 -10 2 -12 -13 -8 -28 8 -29 -11 -1 -43 l21 -24
-22 -5 c-25 -6 -25 -8 -11 -65 l11 -45 22 20 c12 11 28 20 36 20 18 0 112 82
112 98 0 6 6 12 14 12 9 0 12 7 9 20 -4 13 0 20 9 20 9 0 20 17 27 39 11 38
12 39 52 34 50 -7 92 12 83 39 -3 10 0 18 6 18 6 0 9 4 5 9 -3 5 3 12 12 15
49 13 82 16 87 8 3 -6 14 -8 24 -5 10 2 30 -7 47 -23 27 -25 29 -26 42 -8 8
11 23 18 37 16 24 -3 52 21 42 37 -3 5 1 12 9 15 12 4 13 10 5 25 -14 27 -13
36 3 22 11 -8 21 -3 47 25 30 33 32 40 27 85 -6 48 11 101 39 124 7 6 14 19
16 30 3 17 11 20 51 18 30 -2 46 1 42 7 -15 24 16 7 42 -23 15 -19 45 -46 66
-61 20 -16 37 -36 37 -45 0 -22 30 -70 69 -108 17 -17 27 -34 22 -38 -13 -8
-3 -32 16 -39 9 -4 21 -2 28 4 14 12 101 -24 121 -49 8 -10 13 -11 18 -3 4 6
13 9 22 5 8 -3 26 5 39 17 14 13 28 20 32 16 12 -12 10 -150 -2 -159 -15 -11
34 -49 59 -45 15 2 20 9 18 23 -12 72 -12 81 8 103 18 22 21 23 42 8 12 -9 31
-16 41 -16 15 0 18 7 16 38 -1 20 -1 52 0 71 l1 33 26 -17 c26 -17 27 -16 54
13 15 17 25 33 22 36 -3 3 0 6 7 6 8 0 11 8 8 19 -3 14 0 17 15 13 21 -5 61
25 52 40 -4 5 8 2 25 -7 17 -9 37 -12 44 -8 7 4 21 6 33 5 11 -2 27 4 34 12 7
9 19 16 27 16 7 0 16 7 19 15 4 8 12 15 20 15 8 0 14 5 14 10 0 6 8 10 18 10
21 0 42 42 35 70 -3 11 0 26 6 34 10 11 9 16 -4 23 -15 9 -15 11 0 23 22 18
53 20 66 3 17 -20 59 -17 60 5 0 10 3 12 6 5 2 -7 8 -13 12 -13 12 0 71 89 62
95 -5 2 -12 26 -16 52 -4 27 -11 55 -16 64 -5 10 -4 20 2 26 19 19 0 47 -56
87 -55 40 -67 56 -41 56 11 0 13 10 9 43 -3 23 -10 50 -14 59 -11 21 -12 68
-1 68 5 0 9 16 10 35 1 38 -16 47 -38 20 -10 -11 -16 -12 -26 -4 -11 9 -16 5
-25 -15 -7 -14 -16 -26 -21 -26 -5 0 -6 -4 -3 -10 3 -5 0 -11 -7 -11 -76 -8
-97 -17 -104 -44 -3 -13 -14 -31 -25 -41 -10 -9 -19 -23 -19 -31 0 -7 -7 -13
-15 -13 -8 0 -15 -4 -15 -10 0 -5 -6 -10 -13 -10 -7 0 -23 -11 -34 -24 l-21
-24 24 -6 c30 -8 22 -26 -12 -26 -14 0 -27 -7 -30 -15 -4 -8 -10 -12 -15 -9
-6 3 -15 1 -22 -4 -8 -7 -20 -6 -37 3 -18 10 -20 14 -8 15 9 0 18 5 20 10 2 6
13 12 24 12 24 2 25 19 4 61 -12 25 -12 32 3 57 23 38 22 91 -3 117 -11 12
-25 40 -32 62 -9 28 -22 46 -45 58 -18 10 -33 21 -33 25 0 3 -6 13 -13 20 -33
35 -49 71 -43 100 9 44 -2 74 -31 87 -73 33 -127 101 -122 153 1 12 -1 30 -5
39 -4 8 -2 27 3 42 11 28 -6 127 -22 127 -4 0 -28 20 -53 45 -24 25 -52 45
-61 45 -8 0 -31 9 -49 21 -29 17 -34 18 -34 5 0 -12 -10 -15 -44 -13 -37 2
-46 -1 -50 -16 -4 -16 -12 -19 -45 -15 -23 2 -41 0 -41 -4 0 -11 -51 -4 -78
11 -24 13 -62 7 -62 -11 0 -5 -7 -8 -15 -5 -14 6 -65 -45 -65 -64 0 -6 -5 -7
-10 -4 -6 4 -17 2 -24 -5 -8 -6 -26 -8 -40 -4 -17 4 -26 2 -26 -6 0 -8 -7 -10
-17 -5 -10 4 -29 8 -42 10 -13 1 -27 8 -31 15 -5 8 -17 10 -31 7 -13 -4 -37
-2 -54 3 -16 6 -56 17 -88 26 -32 9 -62 21 -67 27 -5 7 -21 27 -36 45 l-26 32
-25 -20 c-42 -33 -60 -27 -59 20 1 29 -3 39 -12 35 -15 -5 -42 51 -42 87 0 17
-3 19 -12 10 -7 -7 -20 -12 -30 -12 -10 0 -18 -1 -18 -2 -1 -35 -23 -124 -32
-129 -10 -6 -9 -15 5 -39 l18 -30 -30 0 c-17 0 -31 5 -31 10 0 6 -7 10 -15 10
-9 0 -12 -6 -9 -15 8 -21 -23 -19 -66 4 l-36 19 -11 -24 c-8 -18 -8 -26 2 -34
6 -5 14 -8 16 -5 3 2 5 -4 6 -13 1 -9 5 -29 9 -44 5 -22 3 -28 -10 -28 -8 0
-22 12 -31 28 -27 50 -54 73 -90 79 -20 3 -41 14 -47 23 -9 14 -18 15 -54 8
-28 -6 -49 -6 -63 1 -34 19 -71 14 -71 -9 0 -17 -7 -20 -49 -20 -47 0 -80 18
-67 38 8 13 -15 73 -36 93 -9 10 -20 39 -24 66 -4 30 -16 57 -30 72 -25 24
-29 22 -36 -24 -2 -11 -9 -21 -16 -21 -6 -1 -21 -2 -33 -3 -18 -1 -20 -5 -15
-27 8 -32 -18 -56 -53 -47 -22 5 -23 3 -17 -21 5 -19 2 -28 -9 -32 -8 -4 -15
-12 -15 -19 0 -6 -9 -20 -21 -31 -14 -12 -18 -25 -14 -41 4 -18 0 -24 -19 -29
-43 -11 -77 8 -91 50 -8 22 -18 42 -23 45 -5 3 -11 15 -13 26 -3 11 -10 21
-17 21 -6 1 -16 2 -22 3 -5 0 -10 16 -10 34 0 24 -8 41 -30 62 -19 18 -30 39
-30 56 0 16 -11 45 -25 65 -29 42 -35 74 -10 54 11 -10 18 -9 30 4 14 13 14
19 1 50 -8 18 -20 38 -28 42 -7 5 -25 35 -40 68 -14 32 -37 66 -50 75 -16 10
-24 25 -24 42 0 17 -13 39 -37 63 -32 31 -42 36 -67 31 -23 -5 -31 -2 -40 15
-11 20 -10 21 9 11 18 -10 21 -8 26 26 4 21 11 48 17 59 6 13 7 43 4 70 -7 47
-6 50 24 66 44 25 37 33 -26 29 -38 -2 -59 1 -64 10 -5 7 -19 13 -32 15 -37 3
-69 12 -83 24 -8 7 -19 4 -35 -10 -28 -24 -58 -25 -90 -3 -21 15 -23 15 -17 1
3 -9 -2 -23 -13 -33 -23 -21 -104 -29 -132 -14 -11 6 -18 7 -15 2 8 -13 -22
-55 -33 -48 -5 3 -11 1 -14 -4 -9 -14 -105 8 -127 30 -10 10 -23 19 -29 19 -5
0 -10 7 -10 16 0 8 -4 13 -9 10 -5 -3 -11 1 -15 9 -3 8 -12 12 -20 9 -8 -3
-17 -1 -20 5 -5 7 -14 7 -30 -1 -20 -9 -28 -7 -47 11 -13 11 -26 21 -31 21 -4
0 -23 14 -43 31 -19 17 -35 26 -35 20z m960 -427 c0 -14 -3 -14 -15 -4 -8 7
-15 14 -15 16 0 2 7 4 15 4 8 0 15 -7 15 -16z m134 -390 c9 -23 7 -36 -3 -30
-5 4 -7 -2 -4 -13 3 -10 0 -22 -6 -25 -8 -5 -8 -13 -1 -27 6 -11 15 -17 19
-14 13 7 42 -41 35 -58 -3 -8 2 -17 10 -20 10 -4 13 -1 9 9 -6 17 28 19 45 2
14 -14 16 -54 3 -62 -5 -3 -20 3 -34 14 -14 11 -31 20 -37 20 -7 0 -19 8 -26
18 -12 16 -13 15 -14 -8 -1 -23 -2 -23 -20 10 -11 22 -15 39 -9 45 14 14 11
28 -6 22 -8 -4 -17 -2 -21 4 -4 7 -10 6 -18 0 -18 -15 -26 -3 -26 40 0 30 6
42 30 59 17 12 30 18 30 14 0 -5 5 -3 12 4 16 16 25 15 32 -4z m-29 -224 c3
-6 -1 -7 -9 -4 -11 4 -16 0 -16 -10 0 -18 -8 -20 -30 -6 -13 9 -13 11 0 20 19
13 47 13 55 0z m-283 -294 c19 12 38 13 38 2 0 -5 7 -16 15 -24 11 -11 13 -26
8 -57 -6 -38 -5 -41 10 -29 9 8 13 20 10 28 -7 19 11 18 27 -1 12 -14 15 -14
31 1 11 10 19 30 19 46 0 16 4 27 9 23 5 -3 7 -24 4 -48 -3 -23 -6 -54 -6 -69
0 -18 -4 -25 -13 -21 -8 3 -14 -1 -14 -9 0 -16 -38 -51 -49 -44 -4 3 -24 6
-44 8 -19 1 -35 5 -34 9 1 4 -10 18 -26 33 -22 21 -27 32 -24 61 3 26 0 35
-10 35 -8 0 -13 6 -10 13 2 6 12 11 21 9 14 -3 16 0 7 17 -15 27 -14 36 4 21
8 -6 20 -8 27 -4z m-247 -2600 c19 -8 35 -19 35 -25 0 -5 3 -16 6 -25 4 -9 1
-16 -6 -16 -6 0 -14 9 -17 20 -6 24 -19 26 -30 5 -14 -24 -44 4 -37 33 7 26 6
26 49 8z m3235 -2986 c0 -5 -4 -10 -10 -10 -5 0 -10 5 -10 10 0 6 5 10 10 10
6 0 10 -4 10 -10z m88 -632 c-3 -7 -13 -15 -23 -16 -15 -4 -16 -2 -4 12 17 19
32 21 27 4z m-4468 -43 c0 -6 -8 -20 -19 -29 -17 -16 -19 -16 -24 4 -3 13 0
20 9 20 8 0 11 6 8 15 -5 11 -2 13 10 9 9 -3 16 -12 16 -19z m25 -55 c3 -5 1
-10 -4 -10 -6 0 -11 5 -11 10 0 6 2 10 4 10 3 0 8 -4 11 -10z m2210 -419 c-20
-18 -52 -22 -52 -6 0 10 10 15 31 15 18 0 26 -4 21 -9z m460 -261 c3 -5 -1
-10 -9 -10 -9 0 -16 5 -16 10 0 6 4 10 9 10 6 0 13 -4 16 -10z m-2188 -1040
c5 0 18 -9 28 -20 24 -26 40 -25 52 2 l10 22 26 -28 c19 -20 24 -33 18 -44
-11 -20 -2 -52 15 -52 8 0 14 -4 14 -10 0 -5 7 -10 15 -10 22 0 39 -38 25 -56
-7 -7 -10 -23 -7 -34 3 -13 -1 -24 -14 -31 -15 -8 -17 -14 -9 -29 17 -32 12
-35 -53 -37 -34 -2 -57 0 -51 5 17 11 26 49 14 57 -8 5 -8 11 0 20 25 30 -61
185 -101 185 -5 0 -9 8 -9 19 0 10 -6 24 -14 31 -8 6 -12 18 -9 26 5 13 8 13
23 -1 9 -8 21 -15 27 -15z m248 -349 c3 -5 1 -12 -5 -16 -5 -3 -10 1 -10 9 0
18 6 21 15 7z m2659 -447 c3 -8 2 -14 -2 -14 -9 1 -42 26 -42 33 0 11 39 -6
44 -19z m-391 -216 c-3 -24 -16 -65 -28 -93 -24 -52 -26 -106 -6 -142 15 -29
14 -32 -6 -28 -10 1 -17 9 -15 18 1 8 -2 18 -7 22 -6 3 -8 11 -5 19 3 7 -7 18
-21 24 l-25 12 20 20 c12 12 26 18 33 13 7 -4 6 0 -2 10 -13 16 -11 22 18 51
17 18 28 35 24 39 -3 4 -7 23 -8 42 0 27 3 35 16 35 14 0 16 -7 12 -42z
m-2033 -129 c0 -6 -4 -7 -10 -4 -5 3 -10 11 -10 16 0 6 5 7 10 4 6 -3 10 -11
10 -16z"/>
<path d="M9213 14735 c-17 -19 -16 -25 2 -25 8 0 15 9 15 20 0 23 -1 24 -17 5z"/>
<path d="M9979 15822 c6 -11 20 -24 32 -27 11 -4 18 -13 16 -20 -3 -7 -1 -17
5 -23 15 -15 2 -42 -21 -42 -28 0 -32 -11 -20 -55 8 -26 7 -41 0 -48 -6 -6
-11 -24 -11 -39 0 -30 -9 -35 -28 -16 -9 9 -12 9 -12 0 0 -8 -8 -10 -23 -7
-18 5 -28 0 -41 -19 -11 -17 -26 -26 -43 -26 -14 0 -23 -3 -20 -7 4 -3 2 -12
-4 -20 -9 -10 -7 -13 10 -13 12 0 30 6 42 13 17 10 22 9 30 -6 7 -12 17 -16
31 -11 18 5 20 3 15 -15 -4 -16 -1 -21 13 -21 11 0 22 -4 25 -10 3 -5 -1 -10
-9 -10 -13 0 -12 -4 5 -21 11 -11 23 -18 26 -15 3 2 22 -4 41 -15 20 -10 42
-19 49 -19 6 0 14 -9 18 -19 6 -20 29 -20 72 1 12 6 29 8 37 5 17 -7 33 33 21
52 -3 6 -2 11 4 11 5 0 9 16 8 34 -2 27 -7 36 -23 40 -26 7 -38 34 -24 51 7 8
4 17 -11 31 -20 18 -20 18 -1 25 11 4 22 19 24 34 4 21 -1 30 -28 49 -20 13
-30 26 -25 32 13 13 16 45 7 71 -6 18 -10 20 -25 12 -13 -9 -25 -6 -55 15 -21
14 -43 26 -48 26 -6 0 -24 10 -40 22 -30 21 -30 21 -19 0z"/>
<path d="M10895 15211 c-3 -5 -1 -12 5 -16 5 -3 10 1 10 9 0 18 -6 21 -15 7z"/>
<path d="M10936 15203 c-9 -23 44 -76 67 -67 28 10 20 26 -30 61 -28 20 -32
20 -37 6z"/>
<path d="M8653 14140 c4 -15 2 -20 -8 -17 -9 4 -11 -1 -8 -14 7 -27 20 -24 27
6 4 15 11 23 18 19 6 -4 9 -1 6 7 -3 8 -13 16 -23 18 -14 2 -17 -2 -12 -19z"/>
<path d="M8353 14122 c-19 -3 -20 -7 -12 -30 9 -27 65 -67 73 -54 2 4 -6 25
-17 47 -17 31 -27 39 -44 37z"/>
<path d="M8725 14120 c4 -6 11 -8 16 -4 5 3 21 -1 34 -10 34 -22 45 -19 16 4
-24 21 -77 28 -66 10z"/>
<path d="M8441 13968 c6 -15 8 -35 4 -45 -10 -25 -13 -133 -3 -139 4 -3 8 2 8
10 0 34 33 83 63 95 28 10 30 13 15 22 -10 5 -18 16 -18 24 0 8 -12 18 -27 21
-16 4 -34 14 -41 23 -10 13 -10 11 -1 -11z"/>
<path d="M8420 13735 c0 -8 5 -15 10 -15 6 0 10 7 10 15 0 8 -4 15 -10 15 -5
0 -10 -7 -10 -15z"/>
<path d="M12437 13393 c-10 -9 -9 -23 2 -23 5 0 11 7 15 15 5 15 -5 20 -17 8z"/>
<path d="M12416 11665 c-6 -17 2 -45 14 -45 10 0 21 41 14 52 -8 13 -21 9 -28
-7z"/>
<path d="M12396 11615 c-4 -10 1 -15 16 -15 17 0 18 2 8 15 -7 8 -14 15 -15
15 -2 0 -5 -7 -9 -15z"/>
<path d="M13252 11528 c-14 -14 -16 -28 -3 -28 9 0 24 30 18 36 -2 2 -9 -2
-15 -8z"/>
<path d="M12198 11290 c-10 -11 -25 -20 -33 -20 -21 0 -19 -16 3 -32 23 -16
37 -97 17 -104 -9 -4 -10 -15 -4 -41 4 -20 7 -39 7 -42 -4 -21 18 -41 43 -41
26 0 28 2 17 19 -9 15 -7 22 9 40 12 13 24 18 27 13 13 -22 86 16 86 44 0 7
-14 23 -31 36 -17 13 -40 33 -52 44 -19 19 -24 20 -35 7 -21 -22 -37 -9 -34
28 3 34 18 52 37 41 5 -3 4 2 -4 12 -10 12 -16 14 -21 5 -6 -8 -9 -8 -11 0 -3
7 -11 3 -21 -9z"/>
<path d="M12285 10960 c3 -5 0 -10 -7 -10 -7 0 -3 -9 10 -22 21 -21 23 -22 39
-5 17 17 17 19 -1 33 -23 16 -50 19 -41 4z"/>
<path d="M12435 9250 c-10 -11 -26 -20 -37 -20 -22 0 -23 -13 -2 -34 28 -28
47 -14 57 42 8 38 6 39 -18 12z"/>
<path d="M12385 9170 c3 -5 8 -10 11 -10 2 0 4 5 4 10 0 6 -5 10 -11 10 -5 0
-7 -4 -4 -10z"/>
<path d="M6200 8820 c5 -38 3 -51 -8 -55 -11 -4 -9 -10 10 -28 21 -18 24 -30
22 -66 -4 -59 -10 -71 -33 -71 -13 0 -18 -5 -15 -13 3 -8 -2 -20 -11 -27 -11
-9 -12 -16 -5 -25 7 -8 7 -16 2 -19 -11 -7 -3 -56 8 -56 5 0 11 6 13 13 3 6 6
0 6 -15 1 -23 6 -28 26 -28 14 0 29 8 35 19 5 11 18 22 28 25 22 7 82 96 82
120 0 9 5 16 10 16 6 0 10 11 10 24 0 13 7 29 15 36 12 10 13 16 4 26 -13 16
-1 18 20 5 9 -6 21 -3 34 10 12 10 29 19 39 19 9 0 25 11 34 26 16 24 16 26
-5 40 -11 8 -21 22 -21 30 0 17 -12 18 -28 2 -17 -17 -73 -17 -90 -1 -16 16
-54 17 -69 2 -7 -7 -25 -3 -61 15 -28 14 -53 26 -55 26 -2 0 -1 -22 3 -50z"/>
<path d="M6153 8398 c-36 -22 -41 -33 -18 -42 9 -3 15 0 15 9 0 8 6 12 14 9 9
-3 17 3 21 16 9 29 5 30 -32 8z"/>
<path d="M6155 8318 c-14 -33 -16 -47 -7 -70 5 -15 7 -28 2 -28 -5 0 -11 -13
-15 -30 -8 -35 11 -60 45 -60 19 0 21 4 16 26 -6 24 -5 26 19 20 14 -4 25 -2
25 3 0 5 9 12 19 16 20 6 20 6 -1 27 -18 18 -23 19 -44 7 -25 -13 -48 -4 -26
10 7 4 10 15 6 24 -7 19 0 21 26 7 14 -7 20 -6 24 7 9 24 -26 44 -39 23 -3 -5
-12 -10 -20 -10 -10 0 -12 9 -8 35 7 46 1 44 -22 -7z"/>
<path d="M11436 7765 c-4 -15 -14 -25 -25 -25 -13 0 -18 -8 -19 -30 -1 -41 25
-46 81 -14 44 24 63 47 35 42 -7 -2 -14 4 -14 12 -1 8 -2 21 -3 28 0 6 -12 12
-25 12 -17 0 -26 -7 -30 -25z"/>
<path d="M11340 7710 c0 -5 7 -10 15 -10 8 0 15 5 15 10 0 6 -7 10 -15 10 -8
0 -15 -4 -15 -10z"/>
<path d="M7620 7691 c0 -5 -10 -7 -21 -4 -18 5 -20 3 -14 -17 7 -21 5 -23 -23
-17 -31 6 -52 -6 -32 -18 15 -9 12 -25 -5 -25 -17 0 -15 -42 4 -78 7 -14 8
-22 1 -22 -5 0 -10 -7 -10 -15 0 -19 -10 -19 -38 1 -12 8 -22 12 -22 8 0 -3
-6 -2 -13 4 -7 6 -23 9 -34 6 -18 -5 -21 -11 -16 -40 5 -32 3 -36 -26 -47 -17
-6 -31 -15 -31 -18 0 -4 -7 -15 -16 -23 -20 -21 -11 -34 41 -57 24 -10 46 -26
49 -35 5 -12 14 -14 44 -9 21 3 50 1 65 -4 23 -9 28 -7 38 12 8 14 14 17 17 9
2 -6 10 -12 18 -12 22 0 86 -35 109 -59 47 -50 133 -121 147 -121 8 0 6 18 -9
58 -4 8 5 12 25 12 35 0 50 27 33 59 -8 14 -8 22 -1 26 6 4 8 15 5 26 -4 13
-2 19 9 19 31 0 19 53 -18 83 -19 15 -39 27 -43 27 -21 0 -31 23 -21 45 11 25
4 75 -12 75 -5 0 -7 -8 -3 -17 3 -10 3 -15 -2 -11 -4 4 -14 3 -22 -4 -11 -8
-17 -8 -26 2 -9 10 -9 13 1 17 15 6 16 33 1 33 -7 0 -9 10 -7 25 3 13 1 22 -3
19 -5 -3 -9 0 -9 5 0 6 -4 10 -10 9 -5 -2 -27 16 -48 40 -36 38 -72 55 -72 33z"/>
<path d="M7267 7396 c-18 -14 -24 -46 -7 -46 6 0 10 9 10 19 0 11 6 21 13 24
6 2 10 7 7 10 -3 3 -13 0 -23 -7z"/>
<path d="M11330 7141 c0 -5 5 -13 10 -16 6 -3 10 -2 10 4 0 5 -4 13 -10 16 -5
3 -10 2 -10 -4z"/>
<path d="M7740 5916 c0 -9 -7 -12 -20 -9 -17 5 -18 3 -7 -21 14 -30 20 -32 41
-10 9 8 20 12 26 9 12 -7 14 -35 2 -35 -4 0 -13 -9 -19 -20 -9 -14 -10 -21 -1
-26 6 -4 8 -3 5 3 -7 11 49 27 64 17 5 -3 9 2 9 10 0 9 12 19 26 22 l25 6 -22
24 c-15 16 -32 23 -58 22 -54 -1 -63 1 -56 12 3 6 1 10 -4 10 -6 0 -11 -6 -11
-14z"/>
<path d="M7897 5858 c-31 -43 -41 -67 -37 -98 3 -33 11 -45 20 -30 6 9 15 8
39 -4 32 -17 34 -36 3 -36 -15 -1 -15 -2 -2 -13 23 -18 54 -69 57 -93 3 -16
-3 -23 -22 -28 -21 -5 -25 -12 -25 -42 0 -19 -4 -43 -9 -53 -14 -26 2 -132 22
-143 10 -5 17 -15 17 -23 0 -13 25 -43 63 -73 13 -11 20 -11 40 3 22 14 26 14
40 0 21 -20 34 -19 42 5 9 27 47 35 83 16 32 -16 42 -13 42 16 0 10 7 18 18
18 9 0 26 7 36 15 11 8 28 15 38 15 14 0 18 8 18 36 0 27 5 37 20 41 14 4 20
14 20 35 0 19 8 36 22 48 l22 17 -21 11 c-11 6 -26 25 -33 42 -11 26 -10 33 5
50 22 24 11 44 -15 27 -11 -6 -20 -17 -20 -24 0 -12 -16 -17 -48 -16 -8 1 -12
-6 -9 -17 6 -22 -10 -50 -29 -50 -10 0 -13 -8 -9 -30 7 -39 -6 -38 -54 5 -21
19 -44 35 -50 35 -6 0 -16 12 -22 26 -7 21 -6 31 7 45 12 13 13 19 4 19 -9 0
-10 3 -1 14 18 21 2 46 -30 46 -34 0 -61 36 -34 46 25 10 17 41 -19 77 -19 19
-36 43 -38 53 -2 14 -13 19 -41 20 -21 1 -43 6 -50 13 -18 18 -35 13 -60 -21z"/>
<path d="M11375 5810 c-3 -5 -1 -10 4 -10 6 0 11 5 11 10 0 6 -2 10 -4 10 -3
0 -8 -4 -11 -10z"/>
<path d="M11374 5751 c7 -24 20 -47 29 -53 15 -8 17 -4 17 27 0 26 -4 35 -16
35 -9 0 -23 8 -30 18 -11 14 -11 9 0 -27z"/>
<path d="M11510 5686 c-8 -10 -21 -14 -36 -10 -15 4 -24 2 -24 -5 0 -6 -7 -11
-15 -11 -17 0 -18 -2 -9 -24 3 -9 12 -16 19 -16 6 0 19 -8 28 -17 9 -10 31
-26 50 -37 l35 -18 29 31 c17 17 33 28 36 24 13 -12 19 28 7 42 -11 13 -10 14
6 9 13 -5 16 -4 9 3 -5 6 -28 15 -50 20 -22 6 -47 14 -56 17 -9 4 -21 0 -29
-8z"/>
<path d="M8522 5559 c1 -26 6 -36 17 -35 9 1 20 -9 26 -22 5 -12 16 -20 23
-17 8 3 18 5 23 5 5 0 9 7 9 16 0 9 6 14 13 11 6 -2 12 -16 12 -30 -1 -16 5
-27 13 -27 7 0 12 6 11 13 -1 6 1 20 5 30 5 9 6 24 2 32 -6 17 -42 21 -48 5
-3 -10 -87 27 -101 45 -4 6 -6 -6 -5 -26z"/>
<path d="M8640 5581 c0 -6 5 -13 10 -16 6 -3 10 1 10 9 0 9 -4 16 -10 16 -5 0
-10 -4 -10 -9z"/>
<path d="M11621 5583 c-1 -6 -8 -19 -17 -27 -8 -9 -11 -16 -6 -16 15 0 34 28
29 42 -4 9 -6 9 -6 1z"/>
<path d="M8677 5431 c5 -19 3 -23 -10 -18 -17 6 -31 -17 -28 -47 2 -14 -2 -17
-15 -12 -14 5 -15 4 -5 -8 6 -7 20 -16 30 -19 15 -3 17 0 13 16 -3 14 -1 18 6
13 7 -4 12 -1 12 7 0 8 7 17 15 21 20 7 19 19 -4 47 l-20 24 6 -24z"/>
<path d="M11007 5433 c-4 -3 -7 -14 -7 -24 0 -18 -27 -29 -72 -29 -25 0 -28
-4 -28 -35 0 -29 -4 -36 -25 -41 -26 -7 -52 -41 -39 -52 4 -4 8 -2 11 3 11 30
20 35 49 26 16 -5 51 -12 77 -16 42 -6 48 -9 44 -26 -6 -22 19 -79 34 -79 5 0
12 -7 16 -15 3 -9 19 -29 35 -46 21 -20 28 -36 25 -50 -4 -15 1 -23 19 -31 13
-6 24 -17 24 -25 0 -8 12 -13 33 -13 24 0 38 -8 58 -33 35 -44 51 -76 44 -87
-4 -6 7 -24 24 -40 19 -20 31 -26 34 -17 3 9 9 8 21 -4 21 -20 11 -47 -20 -55
-18 -5 -23 -11 -19 -24 3 -11 0 -20 -10 -24 -8 -3 -15 -12 -15 -21 0 -8 -5
-15 -11 -15 -7 0 -9 -11 -5 -30 3 -17 1 -30 -4 -30 -6 0 -10 -9 -10 -19 0 -17
105 -120 131 -129 6 -3 6 -9 -1 -17 -18 -22 5 -65 35 -65 15 0 25 -6 25 -14 0
-8 9 -17 19 -21 19 -6 31 -33 31 -72 0 -17 -6 -23 -22 -23 -20 0 -20 -1 -5
-18 10 -10 17 -29 17 -41 0 -30 73 -95 111 -98 23 -2 29 1 29 17 0 10 5 22 10
25 6 4 8 15 5 26 -5 15 -1 19 16 19 22 0 22 0 3 21 -12 13 -15 23 -7 27 5 4
14 18 18 32 4 14 11 27 15 30 5 3 4 25 0 50 -5 25 -6 54 -4 66 4 15 -4 27 -30
45 -23 15 -36 32 -36 46 0 12 -7 38 -17 57 -15 33 -15 38 1 80 20 51 15 66
-18 66 -30 0 -39 10 -24 27 15 18 -20 68 -48 68 -13 0 -21 11 -27 38 -6 26
-18 42 -36 52 -39 20 -52 39 -62 89 -4 25 -16 62 -25 83 -10 21 -19 56 -20 78
-2 29 -10 46 -29 62 -17 15 -24 29 -21 41 4 13 -1 23 -19 32 -13 7 -28 23 -31
34 -4 12 -10 23 -13 26 -4 3 -14 17 -24 33 -10 15 -23 27 -29 27 -9 0 -9 -3 0
-12 26 -26 13 -36 -43 -34 -54 3 -101 28 -89 47 3 5 -7 20 -23 34 -30 26 -36
29 -46 18z"/>
<path d="M10725 5300 c-3 -5 0 -10 8 -10 8 0 20 -7 27 -15 7 -8 17 -12 22 -9
11 7 -20 44 -38 44 -7 0 -16 -4 -19 -10z"/>
<path d="M10759 5214 c-7 -8 -20 -13 -30 -11 -18 5 -59 -26 -59 -43 0 -5 -7
-7 -15 -3 -13 4 -12 -4 5 -47 14 -36 18 -55 10 -60 -6 -4 -8 -13 -6 -21 8 -21
-21 -56 -35 -42 -12 12 -39 7 -39 -7 0 -14 58 -70 73 -70 8 0 20 -7 27 -15 14
-17 76 -20 85 -5 5 8 11 7 21 -1 8 -6 14 -8 14 -3 1 5 7 -6 16 -25 8 -19 24
-41 35 -49 11 -8 18 -20 16 -27 -4 -8 4 -12 24 -11 27 1 29 3 29 44 0 29 8 55
27 83 20 31 27 54 27 94 1 29 4 51 8 48 5 -2 16 1 25 7 17 10 16 10 -2 9 -37
-3 -44 1 -47 24 -4 26 -42 36 -51 13 -8 -19 14 -21 31 -4 21 21 13 -7 -9 -31
-16 -17 -24 -20 -35 -10 -8 6 -14 17 -14 25 0 21 -16 25 -64 14 -32 -7 -52 -7
-69 1 -23 10 -24 14 -14 53 5 22 19 48 30 57 12 10 16 19 9 22 -5 4 -16 0 -23
-9z"/>
</g>
</svg>
