<?xml version="1.0" standalone="no"?>
<!DOCTYPE svg PUBLIC "-//W3C//DTD SVG 20010904//EN"
 "http://www.w3.org/TR/2001/REC-SVG-20010904/DTD/svg10.dtd">
<svg version="1.0" xmlns="http://www.w3.org/2000/svg"
 width="316.354031pt" height="504.188571pt" viewBox="0 0 316.354031 504.188571"
 preserveAspectRatio="xMidYMid meet">
<metadata>
Created by potrace 1.15, written by Peter Selinger 2001-2017
</metadata>
<g transform="translate(-838.645969,1229.233286) scale(0.100000,-0.100000)"
fill="#222222" stroke="none">
<path d="M9300 12289 c0 -6 -9 -9 -20 -6 -11 3 -20 0 -20 -5 0 -6 -6 -5 -15 2
-12 10 -15 10 -15 0 0 -8 -9 -11 -25 -8 -14 3 -33 -1 -42 -8 -10 -7 -26 -14
-35 -14 -26 0 -29 -15 -11 -51 10 -21 13 -34 6 -36 -6 -2 -9 -13 -6 -23 3 -12
-5 -28 -22 -44 l-28 -26 -23 25 c-20 22 -26 24 -49 13 -16 -7 -25 -19 -25 -35
0 -13 -8 -26 -17 -30 -10 -4 -21 -11 -24 -16 -4 -6 -19 -6 -35 -2 -38 11 -55
7 -80 -16 -11 -10 -26 -19 -33 -19 -27 0 -50 -44 -51 -97 0 -46 -4 -57 -33
-86 -43 -43 -51 -80 -25 -128 10 -21 26 -43 34 -50 13 -10 13 -15 -1 -35 -15
-23 -14 -25 35 -55 27 -17 50 -35 50 -40 0 -5 11 -9 25 -9 16 0 25 -6 25 -16
0 -9 -5 -13 -12 -8 -7 3 1 -5 17 -20 17 -14 36 -25 43 -26 6 0 12 -4 12 -9 0
-16 78 -92 82 -80 2 7 12 7 31 -2 33 -15 35 -26 5 -25 -21 1 -23 -4 -24 -51
-1 -29 -4 -59 -7 -67 -4 -10 2 -20 16 -27 12 -7 23 -13 25 -14 1 -1 -2 -14 -8
-29 -7 -19 -6 -38 5 -68 7 -23 12 -45 9 -50 -3 -4 2 -18 10 -30 11 -15 12 -25
5 -34 -7 -8 -1 -19 19 -36 31 -26 48 -58 30 -58 -6 0 -16 8 -23 17 -11 15 -17
15 -39 5 -31 -14 -33 -40 -6 -75 22 -28 26 -42 9 -31 -8 4 -7 0 1 -15 14 -27
5 -59 -26 -90 -30 -30 -30 -38 -1 -47 45 -14 97 -64 97 -94 0 -20 12 -39 43
-68 24 -22 47 -48 51 -58 6 -14 9 -16 15 -5 6 9 11 1 15 -25 10 -63 7 -87 -14
-109 -11 -12 -20 -31 -20 -43 0 -12 -9 -26 -19 -32 -19 -10 -19 -11 5 -66 14
-32 22 -64 19 -72 -3 -8 -1 -20 5 -27 14 -17 3 -43 -22 -51 -11 -3 -17 -12
-14 -20 3 -8 -1 -14 -9 -14 -8 0 -15 -4 -15 -10 0 -5 -7 -7 -15 -4 -8 4 -15 2
-15 -4 0 -5 -19 -12 -41 -16 -36 -6 -39 -8 -26 -19 11 -8 15 -20 11 -35 -6
-22 -8 -22 -25 -6 -15 14 -19 14 -20 3 -1 -8 -3 -30 -4 -49 -2 -19 -6 -47 -9
-63 -4 -16 -1 -38 7 -53 13 -24 12 -28 -10 -50 -26 -26 -93 -34 -93 -11 0 9
-3 8 -9 -2 -7 -10 -13 -11 -30 -2 -16 9 -21 9 -21 -1 0 -7 -7 -21 -14 -31 -12
-15 -18 -16 -35 -7 -17 9 -21 8 -21 -5 0 -23 -25 -13 -27 11 -1 10 -5 29 -9
42 -4 13 -2 22 4 22 6 0 8 12 6 28 -3 15 -5 32 -6 39 -1 7 -6 11 -11 10 -6 -1
-21 13 -34 32 -17 25 -20 37 -11 42 8 5 7 14 -5 33 -9 14 -17 31 -17 39 0 26
-25 64 -54 83 -17 10 -43 27 -58 36 l-27 17 6 -32 c3 -18 7 -34 9 -36 2 -2 -1
-10 -8 -18 -11 -14 -7 -19 44 -54 16 -11 -25 -113 -49 -124 -28 -12 -28 -17
-3 -40 11 -10 20 -26 20 -35 0 -17 26 -35 44 -31 4 1 14 -3 21 -9 9 -8 15 -8
20 0 10 17 25 1 17 -20 -4 -10 -17 -30 -29 -44 -13 -15 -23 -30 -23 -36 0 -16
-59 -6 -63 11 -4 16 -54 35 -65 25 -3 -3 2 -14 11 -24 10 -10 17 -25 17 -33 0
-12 -2 -12 -9 0 -5 8 -17 11 -28 7 -24 -8 -20 -54 7 -84 12 -13 15 -24 9 -33
-5 -8 -9 -24 -9 -37 0 -28 36 -102 50 -102 6 0 9 -5 8 -12 -5 -23 29 -20 35 4
9 34 20 14 12 -22 -8 -35 -49 -85 -63 -76 -5 3 -17 -3 -27 -14 -10 -11 -21
-17 -25 -15 -4 3 -24 -11 -44 -31 -35 -34 -35 -36 -20 -59 9 -14 23 -25 31
-25 8 0 37 -19 64 -42 36 -32 48 -48 45 -63 -3 -11 1 -30 7 -41 16 -29 69 -72
83 -67 6 2 17 -8 24 -22 8 -15 19 -24 28 -20 7 3 22 5 33 5 12 0 19 7 19 20 0
11 3 20 6 20 11 0 46 -22 65 -41 16 -16 23 -18 34 -9 20 16 55 -4 48 -28 -3
-12 6 -29 26 -48 18 -17 40 -55 53 -91 18 -49 27 -63 43 -63 11 0 47 -18 80
-40 33 -22 64 -40 68 -40 11 0 67 -59 67 -71 0 -6 -4 -7 -10 -4 -5 3 -10 0
-10 -9 0 -8 -2 -20 -5 -28 -4 -9 4 -13 24 -14 26 -1 30 3 34 30 l4 31 13 -32
c13 -30 61 -53 68 -33 2 5 10 6 18 3 10 -4 12 0 8 11 -5 13 1 16 36 16 38 0
47 5 94 55 29 31 50 58 47 60 -12 13 269 -12 285 -26 6 -5 15 -4 22 3 9 9 17
6 35 -10 13 -12 29 -22 35 -22 6 0 18 -13 27 -30 9 -17 21 -27 29 -24 8 3 27
-11 44 -32 19 -23 41 -38 57 -40 36 -4 132 -107 167 -179 20 -41 67 -78 102
-79 10 -1 23 -9 27 -18 5 -10 14 -26 19 -35 6 -10 13 -25 16 -34 3 -8 22 -24
42 -34 20 -10 52 -30 70 -43 18 -13 40 -21 48 -18 9 3 21 3 27 -1 7 -4 27 -9
45 -10 32 -2 62 -18 60 -31 -2 -22 7 -32 47 -53 25 -13 47 -31 50 -40 10 -30
62 -70 101 -76 45 -7 90 -44 81 -67 -8 -20 10 -31 27 -17 9 8 20 3 41 -19 16
-17 36 -30 44 -30 20 0 136 -55 144 -67 4 -6 23 -10 43 -11 20 -1 43 -7 50
-13 8 -6 14 -8 14 -3 0 4 16 -8 36 -27 27 -27 43 -34 73 -34 l38 0 -15 32
c-14 30 -14 34 3 53 14 16 15 22 5 35 -7 8 -18 15 -25 15 -19 0 -27 43 -11 58
11 11 10 19 -4 48 -17 33 -26 184 -11 184 14 0 11 95 -5 142 -16 50 -23 181
-11 208 4 8 -2 30 -14 49 -16 27 -23 31 -30 20 -7 -11 -11 -10 -24 9 -9 12
-26 22 -38 22 -12 0 -29 6 -38 13 -15 11 -35 89 -46 182 -4 31 -17 52 -56 93
-28 28 -57 52 -64 52 -12 0 -53 56 -53 73 0 4 9 7 20 7 11 0 20 7 20 15 0 8 3
14 8 14 25 -4 39 5 50 33 10 27 9 33 -6 44 -9 7 -29 15 -43 18 -19 3 -28 13
-31 31 -4 19 -2 25 8 21 8 -3 14 -1 14 4 0 14 -23 12 -45 -4 -11 -8 -26 -12
-35 -9 -9 3 -11 2 -5 -4 6 -4 12 -17 12 -29 1 -17 -5 -21 -34 -22 -27 -1 -43
6 -66 28 -35 34 -46 36 -87 15 -29 -15 -30 -15 -30 5 0 14 -10 24 -30 31 -16
6 -30 16 -30 21 0 6 -9 8 -20 5 -13 -3 -21 1 -25 14 -5 14 -12 18 -30 13 -14
-4 -26 0 -32 9 -13 21 -75 40 -84 25 -4 -7 -24 -12 -44 -11 -23 1 -38 -4 -42
-13 -4 -11 -9 -11 -26 -2 -12 7 -30 11 -41 9 -10 -1 -27 7 -37 18 -11 12 -25
21 -32 21 -21 1 -103 81 -89 87 22 9 -37 63 -67 63 -17 0 -30 8 -36 22 -6 12
-16 24 -24 26 -8 3 -11 1 -8 -4 3 -5 -8 -17 -25 -27 -24 -14 -29 -14 -25 -3 8
20 -35 26 -49 6 -10 -12 -14 -12 -28 -1 -13 11 -17 11 -22 -3 -5 -14 -9 -14
-35 5 l-29 20 0 -20 c0 -19 -5 -20 -50 -16 -64 5 -106 37 -116 85 -13 67 -53
124 -101 144 -29 12 -42 23 -39 32 3 7 0 16 -5 20 -6 3 -8 17 -5 30 4 14 0 37
-8 53 -9 16 -12 31 -9 35 4 3 -4 17 -16 30 -16 17 -19 26 -11 31 9 6 9 9 0 15
-8 5 -9 13 -4 21 5 8 14 33 20 56 8 32 8 43 -1 47 -7 2 -15 19 -18 38 -3 18
-9 43 -13 56 -5 16 -2 22 10 22 14 0 15 4 6 20 -6 11 -7 20 -3 20 4 0 0 7 -11
15 -10 8 -16 21 -13 29 4 9 -1 17 -13 21 -15 5 -19 14 -17 41 1 22 6 33 15 29
23 -8 12 11 -13 25 -14 8 -24 18 -22 24 3 6 -5 21 -16 33 -19 21 -19 23 -2 29
22 9 48 -22 39 -48 -3 -10 0 -18 6 -18 6 0 8 5 5 10 -3 6 1 10 9 10 12 0 10 7
-10 29 -27 31 -76 49 -67 24 7 -18 0 -17 -43 6 -31 17 -33 20 -14 23 l22 3
-21 27 c-26 32 -26 38 -3 38 20 -1 52 -23 52 -37 0 -12 36 -24 44 -15 3 3 6
13 6 23 0 22 36 44 45 29 4 -6 15 -8 25 -5 11 3 20 0 24 -10 3 -9 0 -15 -10
-15 -14 0 -13 -6 5 -36 26 -44 26 -54 1 -47 -36 9 -37 -26 -1 -59 17 -16 31
-32 31 -36 0 -14 61 -11 67 3 3 8 14 15 25 15 17 0 19 6 15 48 -5 54 6 92 27
92 12 0 14 12 12 53 -3 59 -10 77 -32 77 -12 0 -12 4 2 25 13 20 14 28 4 40
-10 12 -10 15 3 15 9 0 22 10 28 22 10 18 8 24 -7 35 -17 12 -21 11 -40 -12
-24 -30 -75 -37 -132 -17 -18 6 -30 7 -27 1 8 -13 -2 -11 -60 9 -38 13 -49 22
-47 35 2 10 -3 17 -12 17 -8 0 -22 10 -31 23 -12 15 -19 18 -22 9 -3 -6 -9
-10 -14 -6 -5 3 -3 12 5 20 13 12 13 18 0 42 -16 32 -18 52 -4 52 12 0 3 48
-13 68 -7 8 -5 12 7 12 8 0 31 -17 51 -37 27 -29 37 -35 43 -25 5 8 13 12 18
10 5 -1 10 12 12 31 3 33 3 33 -30 28 -47 -7 -128 35 -128 67 0 15 -9 27 -25
34 -14 7 -30 24 -36 39 -5 15 -23 39 -39 53 -16 14 -31 37 -35 51 -3 14 -19
33 -36 43 -29 17 -41 43 -15 33 8 -3 22 3 31 13 13 14 14 23 6 39 -16 29 -14
31 19 31 20 0 30 5 30 15 0 23 41 95 55 95 6 0 24 11 39 25 15 14 31 25 37 25
5 0 14 11 19 25 5 14 17 28 27 32 21 8 72 64 73 81 0 6 5 12 11 12 8 0 7 5 -2
16 -18 22 -22 54 -8 71 9 11 7 18 -9 36 -20 21 -57 96 -50 102 2 1 13 8 26 14
18 9 22 20 22 56 0 24 -5 56 -11 72 -7 20 -7 29 1 31 26 9 40 34 33 60 -3 15
-6 39 -6 54 0 16 -4 28 -9 28 -4 0 -8 7 -8 15 0 9 -7 18 -15 21 -8 4 -15 12
-15 19 0 8 -18 24 -40 36 -38 22 -56 59 -27 59 8 0 7 3 -3 10 -12 7 -12 11 3
28 26 28 14 102 -16 99 -11 -1 -22 4 -24 11 -3 6 2 12 11 12 27 0 32 48 7 71
-11 11 -21 15 -21 8z m-33 -1895 c-3 -3 -12 -4 -19 -1 -8 3 -5 6 6 6 11 1 17
-2 13 -5z m138 -204 c3 -5 -1 -10 -9 -10 -9 0 -16 5 -16 10 0 6 4 10 9 10 6 0
13 -4 16 -10z m-734 -749 c14 -13 17 -21 9 -26 -6 -4 -12 -5 -13 -4 -1 2 -8
14 -15 27 -15 27 -8 28 19 3z"/>
<path d="M8787 11469 c7 -7 15 -10 18 -7 3 3 -2 9 -12 12 -14 6 -15 5 -6 -5z"/>
<path d="M9440 10560 c0 -5 5 -10 11 -10 5 0 7 5 4 10 -3 6 -8 10 -11 10 -2 0
-4 -4 -4 -10z"/>
<path d="M9512 9908 c3 -7 12 -14 21 -16 12 -2 15 1 11 12 -7 19 -38 22 -32 4z"/>
<path d="M8778 9713 c7 -3 16 -2 19 1 4 3 -2 6 -13 5 -11 0 -14 -3 -6 -6z"/>
<path d="M11393 8983 c-17 -6 -17 -23 0 -23 8 0 14 7 14 15 0 8 -1 15 -1 14
-1 0 -7 -3 -13 -6z"/>
<path d="M11340 8962 c0 -4 -13 -22 -29 -40 -16 -17 -25 -34 -20 -37 5 -4 12
1 15 9 8 20 34 21 34 2 0 -8 11 -17 25 -20 16 -4 25 -13 25 -26 0 -28 46 -28
53 0 4 15 0 20 -14 20 -11 0 -22 8 -25 18 -13 40 -39 82 -51 82 -7 0 -13 -3
-13 -8z"/>
<path d="M11236 8894 c-3 -8 -10 -12 -16 -9 -6 3 -13 -1 -16 -9 -3 -9 -12 -16
-19 -16 -7 0 -17 -6 -23 -13 -8 -9 -6 -16 8 -25 16 -10 25 -6 61 27 25 22 39
43 35 49 -10 17 -23 15 -30 -4z"/>
<path d="M11521 7269 c11 -22 29 -25 29 -5 0 7 -9 16 -20 19 -17 4 -18 2 -9
-14z"/>
</g>
</svg>
