<svg version="1" xmlns="http://www.w3.org/2000/svg" width="884.154" height="730.257" viewBox="0 0 663.115 547.692"><g fill="#222"><path d="M165.615.99c-.4.6-1.2 1-1.8.9-3.3-.4-3.8.1-2.6 2.2.9 1.8.8 2.4-.4 3.1-.9.4-1.9 2.3-2.2 4.1-.4 1.7-1.1 3.7-1.6 4.3-.5.6-1.1 3.7-1.3 6.9-.4 4.5-.1 6.1 1.3 7.6 1.1 1.2 1.6 2.9 1.3 4.4-.2 1.5 0 2.5.7 2.5.6 0 1.1-.7 1.1-1.5s.5-1.5 1-1.5c.6 0 1-.9 1-2s.7-2.3 1.5-2.6c1.2-.5 1.3-1 .5-1.9-.8-1-.5-2.3 1.3-5.2 2.3-3.7 2.4-3.9.5-5.3-1.5-1.3-1.7-2.3-1.2-6.7.4-3 1.1-5 1.6-4.6 1.2.7 2.8-1.5 2.8-4 0-1.8-2.5-2.4-3.5-.7zM135.615 40.99c-1 1.1-2.5 1.9-3.3 1.8-.9-.2-2.1.8-2.8 2.2-4.4 9.4-6.1 12.3-7.1 12.7-.7.3-1.3 1.1-1.3 1.7 0 .7-.9 2.2-2.1 3.5-2 2.1-2 2.3-.3 4.2 1.6 1.8 1.6 2 .1 3.7-1 1-1.7 2.4-1.7 3.1 0 .7-.7 1-1.8.7-1.3-.4-2.1.2-2.9 2.3-.9 2.6-.8 3.2 1.4 5.3 2 1.9 2.3 2.9 1.8 5.8-.4 1.9-1.1 4.1-1.7 4.7-1.4 1.7-4.9 1.7-4.2 0 .6-1.6-3.9-1.6-5.8 0-2 1.7-7.8.1-9.6-2.5-1.3-2-1.3-2.2.1-2.2 1.1 0 1.4-.5 1-1.6-.3-.8-1.1-1.3-1.8-1-.7.2-2.1-.4-3.1-1.5-1.6-1.8-5-1.8-6.4.1-.3.3-1.3.9-2.3 1.3-1 .4-2.2 2-2.8 3.6-.8 2.2-2 3.1-5.5 4.1-2.4.7-4.7 1-5.1.7-.3-.4-1.2.1-1.9 1.1-1.2 1.6-1.4 1.6-4.1 0l-2.8-1.7-2.5 5.2c-1.7 3.5-3.9 6.1-6.8 8.1-3.4 2.2-4.2 3.3-3.8 4.9.6 2.2-4.9 9.7-7.1 9.7-.8 0-2.5 1.1-3.9 2.5-1.7 1.7-3.8 2.6-6.5 2.8l-3.9.2v4.8c0 2.7.4 5.6.9 6.6 1.3 2.4-4.1 13.7-6.9 14.6-1.4.4-2 1.6-2.1 3.8-.2 6.6.3 10.2 1.7 11.8 2.1 2.4 1.7 5.4-1.2 8.9l-2.7 3.1 1.9 3.5c1.1 1.9 2.6 4.2 3.6 5 1.4 1.4 1.4 1.9.2 4.2-.8 1.5-1.4 3.5-1.4 4.4 0 .9-.4 2-1 2.3-2.9 1.8.1 13.5 3.4 13.5 1.5 0 2.8 4.8 1.6 5.5-.4.3-1.1 2-1.4 3.9-.4 1.9-1.3 3.9-2.1 4.6-.8.7-1.5 1.9-1.5 2.7 0 1.1-.4 1.1-2 .3-1.7-.9-2.2-.7-3.2 1.5-.6 1.4-1.5 2.5-2 2.5s-.7.4-.4.9c.3.4-.1 1.6-.8 2.6-1.1 1.5-1.1 2.3 0 4.4 1.9 3.6 1.8 4.1-.9 4.1-1.3 0-3.1.6-4.1 1.3-1.6 1.2-1.6 1.4.6 2.5 4.3 2.3 7.1 7.8 7.3 14.1.1 3.1.5 6.2.9 6.9.4.7.1 1.2-.9 1.2-.8 0-2 1.1-2.5 2.5s-1.5 2.5-2.2 2.5c-1.6 0-2.2 6.6-.8 7.5.6.3 1 2 1 3.6 0 1.7.5 4 1.1 5.1.9 1.8.9 2-.4 1.5-1.2-.5-1.8.6-2.8 5.1-.7 3.1-1.6 6.2-2.1 6.9-.6.7-.4 1.9.4 3.2.9 1.5 1 3 .2 5.9-.6 2.3-.7 4.9-.2 6.2.5 1.4.5 2.7-.1 3.3-.7.7-.6 1.7.1 3 2.4 4.5 2.7 7.7 1 9.8-.9 1-2.5 1.9-3.5 1.9-3.9 0-.9 2.2 3.2 2.4 2.7.2 4.8.9 5.6 1.9.8 1.1 1.5 1.3 2.2.6.8-.8 1.3-.7 1.8.1.4.7.4 1.5-.1 1.9-.5.3-1.4 1.6-2.1 2.7-1.3 2.4-.1 4.4 2.7 4.4.9 0 4.7 3.1 8.4 7 3.8 3.8 7.4 7 8.1 7 .6 0 1.7 1.9 2.4 4.2.7 2.3 2.5 5.3 4 6.7 1.5 1.4 3.6 5 4.5 7.9 1.7 5.1 1.7 5.4 0 7.3-1.6 1.8-1.6 1.9.4 1.9 1.2 0 2.6 1 3.3 2.1.9 1.7.8 2-.3 1.7-.7-.3-2 .7-2.9 2.1-3.4 5.7-.1 18.1 4.9 18.1 3.1 0 5.7 2.8 5.4 5.7-.2 1.3.2 3 .8 3.8.9 1.1.7 1.7-.9 2.7-2.5 1.5-2.7 4-.6 5.8.9.8 1.5 3 1.5 5.7 0 3.6-.4 4.6-2 5-1.1.3-1.7 1-1.4 1.5.3.5 1.2.7 2 .4.8-.3 1.4.1 1.4.9s-.8 1.5-1.8 1.5c-2.3 0-4.2 1.9-4.2 4.2 0 1-.4 1.8-1 1.8-.5 0-1.2 1.6-1.6 3.5-.3 1.9-1 3.5-1.5 3.5s-.5.8-.2 1.7c.5 1.2.2 1.5-.9 1-2-.7-3.4 3.8-1.9 5.7 1.1 1.3.4 5.6-1 5.6-1.2 0-4.2 6.7-3.4 7.9.3.6.2 1.1-.3 1.1-.6 0-.9 1.1-.8 2.4.1 2.1.5 2.3 3.9 1.8 2.1-.2 5.6.1 7.7.8 4.8 1.6 8.3.4 13.1-4.6 1.8-1.9 3.8-3.4 4.5-3.4.7 0 1.5-1.4 1.9-3.1.6-2.8 1-3.1 3.6-2.5 1.6.3 2.9.1 2.9-.4s1.5-.3 3.4.5c2.3 1 3.6 1.1 3.8.4.2-.6 1.4-.8 2.9-.4 2.1.5 2.5 1.1 2.1 3.1-.5 2.8 2.2 3.5 3.2.8.4-1 1.3-1.3 2.5-.9 1.1.3 2.2.1 2.6-.5.3-.5 1.7-1 3-1 1.4 0 2.6-.7 2.9-1.8.9-2.8 4.8-4.4 10.7-4.5 6.2 0 9.3-2.5 8.4-6.5-.5-2.2-.3-2.3 2.2-1.8 2.5.6 3.5-.1 9.8-7.1 3.9-4.2 7.7-9.4 8.6-11.4 1.1-2.4 2.6-3.9 4.3-4.3 1.4-.3 2.6-1.3 2.6-2.2 0-1 .6-1.4 1.5-1 2 .7 6.1-3.5 5.6-5.9-.3-1.5 0-1.7 1-.8 1.8 1.4 6.9 1.2 6.9-.4 0-.6 1.3-1.4 2.9-1.8 2.1-.4 2.8-1.1 2.4-2.1-.4-1 0-1.2 1.1-.8 1.2.5 1.6 0 1.6-1.9 0-1.4.4-2.8.9-3.1 2.1-1.4-2-9.1-4.4-8.2-.7.2-1.1-1.1-1-4 .1-2.5-.2-4.7-.7-5-1.6-1 .3-2.4 3.3-2.4 3.2 0 4.8-2.2 3-4.3-.6-.8-.7-1.7-.1-2.3.5-.5 1-3.7 1.1-7.2.2-5.5.6-6.5 2.8-8.1 1.8-1.2 3.8-1.7 6.4-1.3 2.9.3 3.7.1 3.7-1.2 0-.9.7-1.6 1.5-1.6s1.5-.6 1.5-1.4c0-.8.9-1.8 2-2.1 1.9-.6 2.5-2.1 2.2-5.8-.1-.9 0-1.7.3-1.7.9 0 5.2 4.6 5.8 6.2.4 1.2 1.7 1.8 3.7 1.8 2.3 0 3.5.8 5.2 3.3 2.3 3.6 9.1 7.9 11.2 7.1 1.7-.6 4.1 2.2 2.6 3.1-.5.3-1 1.1-1 1.6 0 .6.4.8.9.5 1.3-.9 3.4 2.2 2.7 3.9-.3.9-.1 3.6.4 6.1.7 3 .7 5.1 0 6.3-.7 1.5-.6 2.1.8 2.7.9.4 2.1.6 2.6.5.5-.1 1.6.1 2.5.4 1.3.5 1.4.7.1 1.5-.8.6-1 1-.4 1 1.3 0 5.4-3.7 5.4-4.9 0-.5.9-.7 2-.4 1.6.4 2 0 2-2.1 0-2.4.2-2.5 2-1.4 1.5.9 1.9 2 1.5 3.6-.4 1.6 0 2.4 1.2 2.9 1 .4 2.7 1.5 3.8 2.6 1.3 1.2 3.8 2 6.8 2.2 3 .2 5.3.9 6 1.9 1 1.4 1.2 1.3 1.3-.9.3-4.2 1.2-5.9 2.7-4.7.7.6 2.3.9 3.5.5 1.6-.4 2.2-1.3 2.2-3.4 0-2 .5-2.9 1.6-2.9 2.9 0 6.2-3.3 5.3-5.5-1.3-3.3-1-4.5 1-4.5 1.1 0 2.7-.7 3.5-1.6 1.1-1.1 2.5-1.4 4.5-.9 1.7.3 3.2.2 3.6-.4.8-1.4 4.5-1.4 4.5 0 0 .5-.4.7-1 .4-.6-.4-1 .7-1 2.4s.3 3.1.8 3.1c.4 0 .8 2.1.9 4.6.1 3.4-.3 4.7-1.5 5.2-2.4.8-7.2 5.8-6.5 6.6 1.8 1.8-4.4.3-6.4-1.5-1.9-1.9-2.3-2-2.9-.6-1.2 3.3-1 5.3.7 6.5 2.1 1.4 2.6 4.2.8 4.2-.8 0-.8.5.1 1.5.7.8 1.9 1.5 2.6 1.5.8 0 2 1.2 2.7 2.7.6 1.6 1.4 3 1.7 3.3.3.3 1.1 2.7 1.7 5.4.9 4 .8 5.2-.3 6.3-1.2 1.2-1.1 1.8.3 4 1.5 2.3 2.1 2.4 6.7 1.9 4.9-.6 5.2-.5 7.6 2.9 2.6 3.6 4.9 4.2 9.3 2.6 2.5-1 4.2-4.7 2.6-5.7-1.3-.7-1.1-3.4.2-3.4 1.4 0 3.9-2.5 3.9-3.9 0-.6.5-1.1 1-1.1.6 0 1 .5 1 1 0 2.4 6 4.7 10.7 4.2 3.5-.4 4.4-.2 3.8.8-1.1 1.8 1.3 2.9 5.3 2.3 2.9-.5 3.4-.3 2.9.9-.3.9.4 3.1 1.6 4.9 1.1 1.9 2.2 4.1 2.3 4.9.2.8 1.1 2 2 2.7 2.2 1.6 7.8 1.8 6.8.2-.4-.7-.1-1 .7-.7.7.2 1.6 1.5 1.9 2.8.4 1.5 1.5 2.6 3 3 1.6.4 2.6 1.4 2.8 2.7.4 2.8-1.4 6.3-3.3 6.3-.8 0-1.5.8-1.5 1.9 0 1-.6 3.1-1.4 4.5-1.8 3.6-1.1 6.3 1.7 6.2 1.2-.1 2.5-.4 2.8-.8.8-1.1 5.9 1.5 5.9 2.9 0 .7.6 1.3 1.4 1.3 2.4 0 3.9 5.5 3 10.7-.5 2.7-.7 6.7-.5 9 .2 3.1-.1 4.3-1.1 4.3-.7 0-.2.9 1.2 1.9 1.9 1.5 2.9 1.7 4.5.9 1.1-.6 2.3-1.5 2.6-2.1.4-.5 1.5.7 2.4 2.7 1 2 2.6 4.1 3.6 4.6 1 .6 2.1 1.9 2.4 3 .3 1.1 1.5 2 2.6 2 1.2 0 1.9.7 1.9 1.9 0 1.1.4 2.2 1 2.6.5.3.6 1.3.3 2.1-.7 2 1.3 3.4 5 3.4 1.5 0 4.4 1.1 6.5 2.4 2 1.3 4.7 2.7 5.9 3 1.8.6 2.1.4 1.6-1.5s-.3-2.1 1.5-1.7c1.6.5 2.2.2 2.2-1.1 0-1 1.2-2.8 2.6-4.2 2.2-2.1 2.5-3 2-6.3-.4-2.1-1.8-5.3-3.2-6.9-1.8-2.2-2.4-3.8-2.1-5.7.7-3.2 0-4.2-3.7-5.8-1.8-.8-2.6-1.6-1.9-2 1.6-1 2.7-5.8 1.5-6.6-1.1-.6-.3-5.8 1-6.7.4-.3-.7-2.3-2.6-4.5-3.8-4.4-6.7-14.8-3.9-13.7.8.3 1.2 1.1.9 1.8-.3.9.4 1.2 2.2 1 1.5-.2 3.2.1 3.8.6 2.2 1.8 1.5-7.3-.8-10.9-1.7-2.8-1.9-3.6-.7-4.3.8-.5 1.7-.9 2.2-.9.4 0 .7-.9.7-2 0-1.2.6-3.3 1.4-4.8 1.3-2.6.9-11.3-.7-12.9-.4-.3 0-1.4.9-2.4 1.1-1.2 1.3-2.2.6-3.6-1.1-2.1 1.3-11.7 2.8-10.8.4.3 1.9-.9 3.1-2.6 1.9-2.7 2-3.5 1-5.1-.7-1.1-1.1-2.1-.9-2.2.2-.2 2.2-1.3 4.5-2.6l4.1-2.3-1.3-3.8c-.8-2.2-1-4.1-.5-4.4.6-.3.5-1.6 0-3.1-1.2-3.2-1.7-16.5-.7-18.1.4-.7 1-4.2 1.4-7.8.4-5 1.1-6.9 2.6-8 1-.7 1.6-1.8 1.2-2.4-.3-.7.2-1.1 1.4-1.1 3.3 0 6.1-3 5.4-5.8-.5-2.1-.3-2.3 1.6-1.7 2 .6 2.2.5 1.2-1.3-1.6-3-1.4-5.5.4-4.8 1.7.6 2.1-.9.5-1.9-.5-.3-1-1.6-1-2.8 0-1.8-.2-1.9-1-.7s-1 1.2-1.6-.3c-.4-1-.2-2.3.4-2.9 1.2-1.2-.4-5.8-2.5-7.1-.7-.4-1.3-1.6-1.3-2.6 0-1.8-2.6-4.7-3.9-4.5-1.4.3-4.7-1.5-6.6-3.6-2.8-3-6.8-5-10.5-5-2.3 0-3-.5-3-1.9 0-2.1-2.3-4.4-3.4-3.4-.3.4-1.3-.3-2.2-1.5-2.1-3.1-3.1-2.7-2.6.9l.4 3-2.7-2.5c-1.5-1.4-3.3-2.6-3.9-2.6-.6 0-2.1-.3-3.4-.6-1.8-.5-2.1-.3-1.6 1 .3.9.1 1.6-.5 1.6s-1.1 1-1.1 2.2c0 2-.1 2-1.8.5-2.3-2.1-5.2-2.2-5.2-.3 0 2-2.3 2.6-4.3 1.1-1.6-1.2-1.6-1.3.2-1.8 1.4-.3 1.7-1.1 1.4-3.1-.5-2.3-.2-2.6 2-2.6 3.1 0 4.4-1.5 2.1-2.4-2.5-.9-1.4-1.5 5.2-2.7 8.5-1.5 9.1-1.7 9.7-4 .3-1.1 1.4-2.3 2.5-2.6 1.8-.4 1.9-.8.9-3.6-.8-2.3-.7-3.2.2-3.5.7-.2-.1-2-2.3-4.6-2.4-3-3.2-4.7-2.5-5.7.5-.8.9-1.1.9-.6 0 1.7 4.9-2.6 5.4-4.9.4-1.5 1.4-2.4 2.5-2.4 2.9 0 5.1-1.1 5.1-2.4 0-1.8 5.9-12.7 8.3-15.3 1.1-1.2 2.4-2 2.9-1.7.6.4 2 .1 3.3-.6 1.8-1 2.6-2.6 3.5-7.7.6-3.5.8-6.9.4-7.6-.5-.9-.3-.9.7 0 .7.7 1.6 1.3 2 1.3 1.1 0 .4-6.4-.9-8.8-.9-1.6-.9-2.2-.1-2.2 2.3 0-.2-7.2-3.7-10.5-1.9-1.8-3.4-3.8-3.4-4.4 0-.7-.4-1-.9-.7-.5.4-3.7-.7-7-2.3l-6.2-2.9 3.2-1.1c2.2-.8 2.9-1.5 2.5-2.6-.3-.9.1-1.8.9-2.1 1.1-.5 1.2-1.1.4-2.5-.7-1.4-.6-1.9.4-1.9 1.7 0 7.5-2.8 8.2-4 .9-1.4-.5-3.8-2.6-4.3-1.2-.3-1.7-1.1-1.4-2 .4-.8-.5-2.1-2.1-3.2l-2.6-1.7 4.8-2.8c2.7-1.6 6.4-4.2 8.2-5.8 2.8-2.6 3.5-2.9 5.8-1.8 1.8.8 2.4 1.7 2.1 3.3-.3 1.4 0 2 .9 1.6.6-.2 1.5 0 1.8.5.9 1.5 4.5.2 5.7-2 1-1.8 1.2-1.8 3.5-.3 1.4.9 3.3 1.3 4.4 1 2-.6 3.7 1 2 2-.5.3-1 1-1 1.6 0 1.8 2.2.9 5.1-2.2 1.6-1.7 2.9-2.8 2.9-2.4 0 .4 1.6-.7 3.5-2.4 2-1.7 4.2-3.1 4.9-3.1 2.7 0 1.2-8.1-2.4-13.6-3.2-4.9-3.8-5.2-8.5-5.8-3.7-.4-5.6-1.2-7.3-3.1-1.2-1.5-2.6-2.4-3.1-2-.5.3-1.2.1-1.6-.5-.4-.6-1.1-.8-1.6-.5-.5.4-.9-.3-.9-1.4 0-1.2-.6-2.1-1.4-2.1-.7 0-1.9-.7-2.6-1.5-1-1.2-1.6-1.3-2.7-.3-1 .8-1.7.8-2.1.2-1.3-1.9-4.1-2.3-5.6-.8-1.1 1-2.1 1.2-3.3.6-1-.5-2.3-.7-2.9-.5-.6.2-2.3-1.2-3.8-3.2-2.1-2.8-3.4-3.5-6-3.5-1.9 0-4.5-.9-6-2.1-2.6-2-2.8-2-4.6-.4-1.3 1.2-3.2 1.6-6.3 1.4-4.5-.4-5.1.4-2.5 3.8.5.7.8 2.6.6 4.3-.2 1.8.3 3.4 1.1 3.9.7.5 1.1 1.3.7 1.9-.3.6-.1 1.4.5 1.8 2 1.2-3.2 3.3-5.7 2.3-1.5-.5-2.4-.4-2.7.4-.3.9-.9.9-2.3.1-2-1.2-6.4.1-6.4 1.8 0 .5-.4.6-1 .3-.5-.3-1-.2-1 .2 0 1.2-6 4.6-6.7 3.9-.4-.3-1.3-.1-2 .6-1.1.9-1.6.9-2.3-.1-.5-.9-1.8-1.1-3.9-.6-3.9.8-5 2.5-2 3.2 2.2.6 2.2.7.3 1.4-3.6 1.4-5.3.9-7-2-1-1.7-2.3-2.7-3.1-2.4-.7.3-2 0-2.8-.7-.8-.7-2.4-1-3.5-.7-1.1.3-2.3.1-2.6-.4-.3-.5-1.1-.8-1.8-.7-2.3.5-11.6-4.5-12.2-6.6-.8-2.7-3.4-5.7-4.4-5.1-.4.3-1.3-.2-2-1s-2.2-1.5-3.4-1.5c-1.1 0-3.6-.9-5.4-2-1.8-1.1-3.9-2-4.5-1.9-.7.1-2 .1-3 0-3-.2-15.7-14.6-15.7-17.8 0-.7-1.1-1.3-2.5-1.3-2 0-2.7-.6-3.1-2.8-.4-2-1.7-3.3-4.7-4.8-2.8-1.3-4.3-2.7-4.5-4.3-.2-1.3-1.8-3.1-3.8-4.3-3.8-2.2-4.3-4.2-1.6-5.7.9-.6 1.4-1.1 1-1.2-5-1-7.4-2.2-9.5-4.7-1.3-1.5-2.3-2.2-2.3-1.6 0 .5.8 1.9 1.8 3s1.6 2.6 1.4 3.4c-.8 2.3-5.2 6.1-6.3 5.4-.6-.3-1.3.3-1.6 1.4-.7 2.8-3.3 1.7-3.3-1.3 0-1.3-.5-2.7-1-3-.6-.4-.8-1.6-.4-2.7.6-2.1-5.5-12.2-8.1-13.2-1.2-.4-1.2-1-.1-3.8 1.1-3 1.1-3.5-1.1-5.5-1.3-1.3-2.6-2.2-2.9-2.2-.3.1-2.2-1.3-4.1-3-1.9-1.7-3.9-3.1-4.5-3.1-.5 0-.7-.4-.4-.9.3-.5-.1-1.4-.9-2.1-1.1-.9-1.2-1.7-.5-3 2-3.7 1.2-8.1-2.1-11.1-2-1.9-3.8-2.7-4.9-2.4-1 .3-2.5-.2-3.4-1-1-1-1.6-1.2-1.6-.5 0 2.2-6.2 7.2-8.3 6.6-2.7-.7-4.7 1.4-4.7 4.9 0 .9-.8 1.9-1.7 2.2-1 .4-2.3 1.3-2.9 2.2-1 1.2-1.5 1.2-4-.6-3.3-2.3-7.4-3.5-7.4-2.2 0 .4-.7.6-1.5.3-.8-.4-1.5-1.5-1.5-2.5 0-2-.8-2.3-3.4-1.3-1.2.5-1.3 1-.3 3.1.9 1.9.8 2.6-.4 3.4-2.6 1.6-4.9 1-5-1.4 0-1.8-.3-1.7-1.2 1-1 2.8-1.5 3-3.1 2.1-1.5-.8-2.1-.8-2.4.1-.2.6-2.8-1-5.9-3.9-3-2.7-6.1-5-6.9-5-.8 0-1.4-.5-1.4-1 0-.6.5-1 1-1 1.6 0 1.2-3.2-.7-5.2-1.5-1.7-1.5-1.8.5-1.8 1.3 0 2.2-.6 2.2-1.5 0-1.1-1.1-1.3-5.2-.9-2.9.3-6 .8-6.8 1.1-2.2.9-5.3.3-7.1-1.3-2-1.8-2.2-1.8-4.4.6zm230 123c.3.5.1 1-.4 1-.6 0-1.1-.5-1.1-1 0-.6.2-1 .4-1 .3 0 .8.4 1.1 1zm6 5c-.6 1-3.5 1.4-3.5.6 0-.2-.3-1.1-.6-1.9-.3-1 .1-1.7 1.3-1.9 2-.4 3.8 1.6 2.8 3.2zm8.5 4.2c0 3.8-3.5 1.4-3.8-2.6-.2-2.9-.2-2.9 1.8-1.1 1.1 1 2 2.6 2 3.7zm-126 239.8c0 .5-.5 1-1.1 1-.5 0-.7-.5-.4-1 .3-.6.8-1 1.1-1 .2 0 .4.4.4 1zm-207.5 57c.3.5.1 1-.4 1-.6 0-1.1-.5-1.1-1 0-.6.2-1 .4-1 .3 0 .8.4 1.1 1zM616.715 110.69c-.4.9-.1 2.1.5 2.7.9.8 1 .7.6-.5-.3-.9 0-2.2.6-2.8.8-.8.8-1.1 0-1.1-.6 0-1.4.8-1.7 1.7zM612.715 115.69c.3 2 .8 4 1.2 4.3.4.3.7 2 .8 3.7.1 4-2.5 4.5-4.9 1-2.1-3.1-2.8-1.8-2.1 3.6.4 3.1 1.2 4.7 2.1 4.7 1.1 0 1.1.4.3 2-.9 1.7-1.4 1.8-3.1.9-1.8-.9-2.6-.6-5.3 2-1.8 1.7-3.7 3.1-4.2 3.1-.6 0-2.5 1.3-4.2 3-1.7 1.6-4.3 3.2-5.7 3.6-2.3.6-3 1.5-2.6 3.7.1.4-1 1.2-2.4 1.7-2.4.9-2.4 1-1 5.1 1.7 4.7.6 7.4-2.7 6.6-2.5-.7-7.2 5.5-6.5 8.4.5 2 .3 2.1-3.6 1.6-4.4-.6-8.2.7-7.1 2.4.4.8 0 .8-1.3 0-2.4-1.2-8.3.6-8.3 2.6 0 .6-.9 1.5-2 1.8-1.1.3-2 1.5-2 2.5 0 1.7-.4 1.8-2.5 1-1.5-.6-2.6-.6-3 0-.9 1.4-11.5 0-14.2-1.8-2.1-1.3-2.3-1.3-2.3.7 0 1.1-.6 2.1-1.3 2.1-1.1 0-1.5 3.8-.8 8.6.2 1.7 5.1 2.4 5.1.8 0-1.7.1-1.7 3.3-.5 1.4.6 2.8.7 3.1.3.4-.3 1.5-.7 2.6-.9 2-.3 2.1 0 3.4 10 .5 3.5.3 3.8-2.5 4.4-2.8.5-5.1 2.3-3.1 2.3.6 0 1.2 1.8 1.4 4 .3 3-.1 4.5-1.4 5.7-1 .9-1.8 2.6-1.8 3.7 0 3.7-3.7 8.6-6.5 8.6-2.2 0-2.5.3-1.9 2.4.8 3.4-.2 4.9-2.6 3.6-1.3-.7-2.1-.7-2.5.1-.4.6-1.4.8-2.4.4-1.3-.5-1.4-.4-.3.6.6.7 1.2 2.3 1.2 3.6 0 1.3.7 2.6 1.5 2.9 1.8.7 2 4.4.3 4.4-.7 0 0 1.2 1.5 2.5 2.2 1.9 3.9 2.5 7.6 2.5 2.9 0 5.3.6 6 1.4.8 1 2.1 1.2 4.7.6 1.9-.4 4.4-.6 5.5-.3 1.1.3 2.7-.2 3.7-1 .9-.9 4.2-1.9 7.2-2.3 5.8-.7 9.9-2.9 10-5.3 0-.8.7-1.1 2-.8 1.2.3 4.1-.6 6.7-1.9 3.2-1.7 5.4-2.3 7.3-1.9 1.6.4 3.1.1 3.5-.5.5-.8 1-.8 2 0 1.1.9 1.7.3 3-2.4 1.9-4 1.9-4 4.6-2.6 1.5.8 1.9.7 1.9-.5 0-2 .8-1.9 4.8.5 3.8 2.4 6.5 2.5 8.1.6.7-.8 3.4-1.7 6.2-2.1 2.7-.4 4.9-1 4.9-1.4 0-.4 1.7-1.3 3.8-1.9 3.5-1.1 3.7-1.4 3.9-5.6.1-2.5-.2-4.8-.8-5.1-2.1-1.4.5-2.5 5.6-2.5 3.4 0 5.5-.5 5.8-1.3.3-.8 1.3-.4 3.2 1.3 1.6 1.5 2.9 2 3.2 1.4.2-.6 1.5-.9 2.8-.6 2.7.5 3 0 1.5-2.8-.8-1.5-.4-2.5 2-5.1 2.1-2.4 2.7-3.6 1.9-4.5-.7-.9-.7-1.9.1-3.4.6-1.1 1-2.8.8-3.8-.1-.9.5-3.2 1.5-5.1 1.7-3.4 1.7-3.5-.5-5.8l-2.1-2.3h2.2c1.2 0 3.1.5 4.2 1 1.5.8 1.9.7 1.9-.4 0-1.5-2.1-2.7-6-3.3-1.4-.2-3.2-1.2-4-2.2-.8-1.1-2.5-2.2-3.7-2.5-2.5-.8-5.2-3.6-3.4-3.6 1.7 0 1.3-2.7-.5-3.4-.8-.3-1.2-1.1-.9-1.7.4-.6-.2-2-1.3-3.2-1-1.2-2.2-4-2.6-6.2-.4-2.2-.9-4.9-1.1-6-.2-1.1-.7-4.3-1.1-7-.7-5-3.8-10.5-5.9-10.5-2.1 0-6.6-5.6-5.9-7.3.4-1.2.1-1.7-1-1.7-1.2 0-1.4-.9-1.1-4.5.4-3.5.1-4.9-1.4-6.4-2.6-2.6-5.5-4.1-8.1-4.1-1.5 0-2-.5-1.7-1.5.4-.8.2-1.7-.3-2-.5-.3-.6 1.2-.4 3.2zM478.115 152.89c0 .6.5 1.3 1 1.6.6.3 1-.1 1-.9 0-.9-.4-1.6-1-1.6-.5 0-1 .4-1 .9zM484.615 155.99c.4.6-.5.8-2.2.4-1.8-.3-3.8.2-5.6 1.4l-2.9 1.9 3.7.7c2.5.5 4.1 1.6 5.4 3.7 1 1.6 2 2.6 2.4 2.3.3-.4 2.1.3 4 1.5 3.7 2.2 6.3 2.8 3.6.8-.9-.7-2.2-2.9-2.9-4.9-.8-2-1.8-3.4-2.3-3.1-.6.4-.7-.4-.4-1.9.5-1.9.2-2.8-.9-3.2-2.2-.8-2.6-.8-1.9.4zM499.115 170.39c0 .7-1 1.6-2.1 1.9-1.5.4-2 1.1-1.5 2.2.3.9.6 2.5.6 3.5 0 1.3.7 1.7 2.8 1.6 1.5-.1 3.2-.5 3.9-.9.8-.5 1.8.3 2.8 2.3 1.3 2.5 2.1 3 5.4 3 2.1 0 5.4.3 7.2.6l3.4.5-2.2-1.9c-1.3-1.1-2.3-2.7-2.3-3.4 0-1-.9-1.3-3-1-1.8.3-3 0-3-.7 0-.6-1.1-2.1-2.5-3.3-1.3-1.1-2.2-2.6-1.8-3.1.3-.6.1-.7-.5-.3-.6.3-1.3.2-1.7-.4-.4-.6-1-.8-1.5-.5-.5.3-1.1.1-1.5-.5-.9-1.5-2.5-1.2-2.5.4z"/><path d="M646.115 224.99c0 .5.7 1 1.5 1s1.5-.5 1.5-1c0-.6-.7-1-1.5-1s-1.5.4-1.5 1zM268.115 419.99c1.2 2.2 1.8 2.4 4 1 1.1-.7.9-1.1-1.3-1.9-3.8-1.5-3.9-1.4-2.7.9zM271.115 427.99c0 .5.6 1 1.4 1 .8 0 1.8-.5 2.1-1 .3-.6-.3-1-1.4-1-1.2 0-2.1.4-2.1 1zM31.315 501.59c-1.7 1.9-.8 4.6 1.3 3.8.8-.3 1.5-1 1.5-1.5s.5-.9 1.1-.9c.5 0 .7.4.4 1-.3.5-.1 1 .4 1 1.7 0 1.3-1.5-.7-3.3-2.2-2-2.3-2-4-.1z"/></g></svg>