<?xml version="1.0" standalone="no"?>
<!DOCTYPE svg PUBLIC "-//W3C//DTD SVG 20010904//EN"
 "http://www.w3.org/TR/2001/REC-SVG-20010904/DTD/svg10.dtd">
<svg version="1.0" xmlns="http://www.w3.org/2000/svg"
 width="631.177809pt" height="552.994491pt" viewBox="0 0 631.177809 552.994491"
 preserveAspectRatio="xMidYMid meet">
<metadata>
Created by potrace 1.15, written by Peter Selinger 2001-2017
</metadata>
<g transform="translate(-663.590452,1282.052849) scale(0.100000,-0.100000)"
fill="#222222" stroke="none">
<path d="M7974 12808 c-4 -6 -3 -8 4 -4 6 3 14 1 18 -5 3 -6 1 -15 -5 -19 -7
-4 -11 -11 -9 -16 4 -16 -21 -52 -42 -59 -14 -4 -20 -15 -20 -36 0 -16 4 -29
10 -29 6 0 6 -8 0 -22 -5 -13 -12 -36 -16 -53 -3 -16 -9 -24 -11 -17 -3 6 -11
12 -18 12 -7 0 -15 7 -19 15 -11 29 -47 15 -101 -40 -30 -30 -55 -61 -55 -68
0 -17 -54 -57 -78 -57 -37 0 -81 -21 -75 -36 3 -8 -1 -14 -10 -14 -9 0 -13 -7
-10 -23 4 -19 -3 -26 -44 -45 -26 -12 -58 -20 -70 -18 -16 3 -20 1 -16 -10 3
-8 2 -14 -3 -13 -5 1 -22 -3 -39 -10 -16 -7 -67 -14 -112 -14 -68 -2 -79 -4
-70 -16 9 -11 9 -15 0 -18 -21 -7 -15 -26 18 -61 32 -34 37 -69 5 -37 -14 14
-22 16 -35 8 -25 -15 -24 -47 1 -79 13 -16 31 -44 41 -62 18 -32 18 -35 2 -70
-10 -20 -23 -43 -29 -51 -16 -20 -15 -59 2 -66 8 -3 13 -17 11 -32 -1 -16 1
-45 6 -66 8 -40 -3 -62 -34 -69 -8 -2 -22 -11 -32 -20 -19 -18 -17 -40 7 -68
9 -11 10 -26 5 -51 -6 -25 -4 -38 6 -47 21 -20 15 -31 -17 -30 -28 1 -44 18
-17 18 6 1 -3 7 -22 15 -41 18 -42 18 -35 0 10 -24 -8 -17 -40 15 -16 17 -31
29 -32 27 -9 -8 17 -81 33 -92 15 -12 16 -16 4 -27 -11 -11 -14 -11 -18 0 -4
9 -9 10 -18 2 -9 -7 -16 -6 -25 5 -7 8 -21 15 -32 15 -10 0 -17 4 -14 9 3 5
-2 15 -11 22 -13 11 -17 11 -20 2 -3 -7 -9 -13 -14 -13 -5 0 -9 6 -9 13 0 6
-22 36 -50 66 -42 46 -57 55 -97 62 -27 4 -54 9 -62 11 -18 4 -34 -61 -19 -79
5 -7 7 -16 4 -21 -3 -4 8 -16 23 -25 19 -11 29 -25 29 -41 0 -13 9 -34 21 -47
l21 -23 0 22 c0 24 7 27 30 12 11 -7 12 -12 3 -18 -6 -4 -11 -16 -10 -27 1
-14 -4 -20 -15 -19 -23 2 -22 -4 2 -43 21 -35 55 -58 64 -44 3 5 22 5 43 1 21
-4 62 -10 90 -12 44 -4 54 -2 58 12 4 12 12 16 25 13 23 -6 34 -32 16 -39 -19
-7 2 -76 32 -104 12 -11 22 -29 22 -39 0 -11 10 -22 23 -25 21 -7 21 -7 2 -16
-17 -7 -18 -9 -2 -9 10 -1 22 10 27 24 14 37 67 35 102 -5 25 -29 58 -40 58
-20 0 15 33 12 58 -6 12 -8 25 -13 30 -10 4 2 24 -4 44 -14 22 -10 38 -14 40
-8 2 6 28 4 68 -7 70 -19 93 -32 84 -46 -3 -5 3 -7 13 -5 73 15 85 20 94 42
11 31 36 30 61 -1 11 -14 27 -25 36 -25 8 0 26 -10 39 -22 20 -19 25 -20 33
-8 5 8 10 22 10 30 0 18 60 25 60 7 0 -7 9 -23 20 -37 25 -32 25 -40 1 -40
-11 0 -21 -6 -24 -12 -3 -10 -10 -8 -25 6 -41 36 -67 -16 -41 -81 13 -33 19
-223 7 -223 -20 0 15 -40 35 -41 20 -1 19 -2 -6 -12 -24 -10 -27 -14 -21 -45
7 -37 45 -85 71 -88 17 -3 59 21 83 47 8 9 21 14 29 11 9 -3 11 0 6 8 -4 7 -2
16 6 20 9 6 4 11 -17 16 -16 4 -45 15 -64 26 -19 10 -40 18 -47 18 -7 0 -13 4
-13 9 0 17 26 30 48 24 16 -4 22 -1 22 11 0 9 3 16 8 16 12 -1 47 -30 35 -30
-6 0 -13 -13 -15 -29 -3 -23 -1 -28 11 -23 9 3 19 10 23 16 7 10 41 -26 44
-46 1 -5 2 -12 3 -16 0 -5 12 -14 26 -20 14 -6 25 -18 25 -27 0 -17 43 -31 61
-20 6 4 15 1 20 -6 13 -21 11 -32 -6 -25 -8 3 -14 2 -14 -2 5 -34 -44 -43 -62
-11 -5 11 -19 19 -30 19 -11 0 -22 8 -25 18 -18 57 -19 57 -40 36 -11 -11 -28
-23 -37 -27 -9 -3 -17 -16 -17 -27 0 -22 -50 -50 -90 -50 -11 0 -20 -4 -20
-10 0 -5 4 -10 8 -10 14 0 52 -40 52 -55 0 -32 -36 -14 -53 25 -9 22 -21 40
-25 40 -18 0 -30 49 -25 108 4 58 -5 79 -22 52 -5 -8 -11 -8 -20 0 -13 11 -45
4 -45 -10 0 -4 -11 -11 -25 -14 -16 -4 -25 -13 -25 -26 0 -11 -5 -20 -11 -20
-8 0 -7 -6 2 -17 8 -9 13 -18 12 -20 -2 -1 -3 -4 -2 -5 1 -2 2 -17 4 -35 2
-27 -1 -32 -24 -38 -14 -4 -34 -15 -44 -26 -10 -10 -24 -19 -32 -19 -30 0 -15
-36 19 -48 41 -15 53 -39 29 -58 -17 -13 -16 -15 7 -34 14 -11 20 -20 13 -20
-6 0 -9 -9 -6 -20 3 -12 0 -20 -7 -20 -7 0 -10 -8 -7 -20 3 -11 1 -20 -5 -20
-15 0 -1 -50 22 -82 25 -35 25 -47 0 -41 -17 5 -20 0 -20 -30 0 -19 -7 -40
-16 -48 -8 -7 -22 -25 -29 -39 -12 -24 -12 -30 0 -46 20 -27 18 -52 -5 -64
-15 -8 -19 -17 -15 -31 4 -11 -2 -32 -14 -52 -16 -26 -17 -36 -8 -54 22 -40 9
-163 -17 -163 -8 0 -17 -7 -20 -16 -3 -8 -11 -12 -16 -9 -6 4 -15 -7 -21 -24
-12 -35 -21 -38 -39 -16 -7 8 -25 15 -41 15 -15 0 -34 7 -43 15 -20 21 -21 20
-22 -25 -1 -23 -3 -43 -6 -45 -2 -3 -21 -6 -41 -7 -24 -2 -39 -9 -42 -19 -4
-11 -13 -15 -26 -12 -22 6 -52 -25 -41 -42 4 -5 7 -21 8 -35 1 -14 6 -47 11
-73 10 -44 9 -47 -7 -42 -10 3 -21 1 -25 -5 -3 -5 -17 -10 -30 -10 -13 0 -25
-6 -28 -12 -3 -10 -7 -10 -20 1 -15 12 -17 11 -17 -4 0 -14 -9 -16 -52 -14
-48 3 -54 1 -68 -23 -8 -15 -33 -35 -56 -44 -32 -13 -41 -22 -38 -37 2 -15 -1
-18 -16 -14 -18 5 -18 4 1 -31 10 -20 19 -46 19 -57 1 -48 62 -77 73 -34 8 30
27 14 27 -24 1 -28 6 -35 49 -55 30 -14 59 -37 76 -62 25 -36 65 -55 65 -31 0
5 9 13 20 16 11 3 20 13 20 21 0 16 21 19 36 5 5 -6 25 3 52 25 40 34 54 57
31 51 -6 -1 -13 8 -15 20 -3 17 0 21 13 16 10 -4 14 -2 9 5 -3 6 -2 13 4 17 6
4 7 11 4 17 -5 7 5 9 30 4 28 -5 38 -3 42 8 3 9 10 13 16 10 5 -3 16 3 24 15
15 21 44 29 44 12 0 -5 13 -12 29 -16 16 -3 35 -13 42 -21 6 -8 20 -14 30 -14
10 0 33 -14 51 -30 20 -18 49 -33 73 -37 21 -3 50 -17 63 -30 13 -13 26 -22
29 -20 2 3 16 -1 31 -9 32 -16 52 -3 52 35 0 42 30 121 46 121 8 0 14 7 14 15
0 13 4 14 21 5 16 -9 24 -8 37 3 9 9 29 19 45 22 15 4 27 13 27 21 0 9 11 14
30 14 33 0 80 19 80 32 0 17 43 67 53 61 5 -3 25 -9 43 -13 31 -7 34 -6 35 16
3 47 13 63 54 86 31 18 34 29 22 87 -6 27 -4 31 6 23 23 -19 51 -7 62 26 5 18
13 32 17 32 4 0 8 6 8 14 0 13 4 13 26 2 14 -8 31 -22 39 -32 16 -23 75 -28
75 -7 0 10 6 13 16 9 9 -3 20 -6 25 -6 5 0 9 -6 9 -14 0 -24 26 -38 39 -22 7
8 19 12 28 9 8 -3 19 0 24 8 6 10 9 10 9 2 0 -7 5 -13 10 -13 6 0 10 6 10 13
0 16 74 13 107 -4 22 -12 27 -11 44 11 10 14 19 31 19 37 0 15 52 43 80 43 12
0 20 -7 20 -17 1 -21 33 -63 49 -63 6 0 11 12 11 26 0 23 3 26 25 22 17 -4 25
-1 25 8 0 8 7 14 15 14 16 0 24 -4 83 -35 40 -20 49 -15 28 17 -15 23 -15 24
19 36 18 7 36 21 39 30 6 19 42 27 51 11 4 -5 15 -9 27 -9 18 0 19 2 7 16 -11
14 -10 16 11 13 14 -2 35 3 48 10 13 7 30 10 38 7 8 -3 14 1 14 9 0 16 37 20
55 7 6 -4 15 -22 22 -41 l12 -33 -28 5 c-26 5 -29 3 -33 -23 -5 -33 17 -64 52
-75 11 -3 20 -11 20 -17 0 -6 8 -4 18 4 11 11 24 13 38 8 18 -7 21 -15 17 -52
-2 -23 -11 -48 -20 -55 -8 -6 -12 -16 -8 -22 3 -6 0 -11 -7 -11 -9 -1 -9 -4 3
-13 11 -9 14 -24 11 -54 -3 -35 -8 -43 -24 -43 -18 0 -18 -1 -3 -17 15 -14 15
-18 2 -27 -9 -7 -13 -22 -10 -42 5 -29 3 -31 -21 -27 -15 3 -26 1 -26 -6 0 -6
-12 -11 -27 -11 -25 0 -25 -1 -9 -19 13 -15 15 -24 7 -38 -11 -22 -8 -94 5
-114 5 -8 10 -32 11 -54 3 -49 -50 -164 -84 -180 -21 -11 -22 -13 -6 -35 10
-14 20 -43 23 -65 4 -35 9 -40 33 -43 23 -3 26 -6 16 -18 -9 -11 -7 -19 15
-39 14 -13 26 -31 26 -40 0 -8 6 -15 13 -15 9 0 14 -12 15 -30 0 -16 -3 -30
-8 -30 -5 0 -4 -12 2 -26 11 -23 13 -24 24 -10 12 17 39 23 30 7 -13 -21 5
-37 38 -33 28 3 37 -1 52 -23 11 -15 27 -35 37 -46 18 -20 22 -39 8 -39 -5 0
-11 -13 -13 -30 -3 -22 1 -33 14 -42 16 -11 18 -17 9 -41 -8 -21 -8 -35 3 -55
11 -22 12 -31 1 -45 -7 -9 -17 -17 -23 -17 -6 0 -9 -7 -6 -15 4 -8 -1 -17 -10
-21 -9 -3 -16 -12 -16 -19 0 -20 -34 -45 -55 -39 -16 4 -25 -5 -45 -43 -19
-37 -31 -49 -53 -51 -22 -3 -27 -8 -24 -25 4 -35 15 -45 42 -39 16 3 33 -2 46
-14 11 -10 35 -23 52 -29 21 -7 32 -17 31 -28 -2 -23 18 -22 34 3 7 11 21 20
33 20 16 0 19 4 14 19 -5 16 -2 19 20 17 14 -2 39 -13 56 -25 23 -17 45 -23
101 -24 50 -1 73 2 75 11 3 6 16 12 29 12 15 0 24 6 24 15 0 18 5 18 31 5 13
-8 19 -7 19 0 0 6 14 16 30 21 17 6 30 18 30 27 0 10 16 34 35 55 19 21 35 44
35 52 0 8 6 18 13 22 19 11 27 39 15 51 -15 15 -3 29 32 35 25 6 30 11 30 37
0 21 5 30 16 30 13 0 14 3 5 14 -9 11 -6 15 14 20 14 4 30 4 35 1 12 -8 18 26
8 53 -7 20 -6 21 11 12 14 -7 22 -6 30 3 16 20 17 73 1 92 -12 15 -12 19 2 29
14 10 23 52 19 93 -1 6 -9 9 -20 6 -13 -3 -20 2 -24 18 -8 28 -1 39 24 39 11
0 19 -7 19 -17 1 -14 8 -10 31 15 30 34 35 62 12 70 -8 2 -13 -5 -13 -17 0
-12 -6 -21 -15 -21 -8 0 -15 -5 -15 -11 0 -7 -8 -1 -19 12 -20 26 -33 79 -20
79 5 0 9 9 9 19 0 15 6 19 25 17 14 -1 27 -5 30 -8 8 -8 65 4 65 14 0 5 4 7 9
4 13 -9 32 19 25 38 -3 9 -1 16 4 16 6 0 18 14 26 32 15 29 15 32 -4 45 -15
10 -19 21 -15 36 5 18 4 19 -5 7 -9 -13 -12 -12 -25 4 -17 22 -21 71 -5 61 6
-3 10 2 10 12 0 22 -36 83 -49 83 -5 0 -16 13 -24 29 -13 26 -13 28 4 24 11
-3 25 0 32 6 8 6 17 8 20 4 4 -3 7 -2 7 4 0 6 14 16 30 23 17 7 30 16 30 21 0
5 7 9 15 9 8 0 15 7 15 15 0 10 16 16 50 21 40 5 50 10 50 25 0 11 7 19 15 19
8 0 15 5 15 11 0 7 9 9 23 6 29 -8 43 2 49 34 3 19 -1 31 -13 40 -13 9 -15 16
-8 26 15 17 17 113 3 121 -11 7 -25 69 -28 127 -1 17 -5 36 -10 43 -4 7 -5 24
-2 38 4 13 2 33 -4 44 -9 16 -7 26 8 48 23 33 53 125 44 132 -12 9 -13 78 -1
86 15 9 37 -16 41 -46 2 -14 7 -30 11 -37 4 -7 -3 -23 -18 -39 -54 -59 24 -52
85 7 22 22 45 39 50 39 6 0 10 11 10 24 0 13 7 29 16 36 13 12 13 16 -8 35
-34 32 -53 36 -66 14 -14 -21 -78 -27 -84 -8 -3 9 -10 9 -26 0 -12 -7 -28 -9
-34 -5 -21 13 -83 5 -96 -13 -12 -17 -16 -16 -70 12 -31 16 -64 28 -74 27 -13
-2 -20 5 -24 27 -4 16 -15 38 -25 47 -11 9 -19 23 -19 29 0 7 -7 15 -15 19
-22 8 -18 29 10 50 14 10 25 27 25 37 0 10 5 21 10 24 6 4 8 10 5 14 -8 13 67
22 82 9 25 -20 14 31 -11 57 -14 14 -20 27 -15 31 6 4 5 11 -2 21 -9 10 -10
16 -2 21 24 15 73 124 67 148 -4 17 -2 24 7 24 29 0 26 122 -3 163 -12 17 -23
38 -24 46 -1 9 -8 38 -15 64 -10 36 -10 50 -2 55 13 8 -10 127 -29 149 -6 7
-11 41 -12 75 -2 59 1 65 31 97 18 19 33 39 33 44 0 6 9 20 20 32 11 12 29 45
39 73 16 42 17 54 6 69 -14 20 -23 98 -13 108 10 11 -4 44 -21 50 -9 2 -22 18
-29 34 -16 36 -1 66 35 76 16 4 22 12 20 27 -1 15 4 23 18 26 33 7 45 22 39
51 -5 22 -1 29 20 39 18 8 27 22 31 49 12 71 26 105 41 99 8 -3 14 -1 14 4 0
5 6 7 13 4 16 -6 42 39 34 60 -8 19 55 30 122 21 45 -6 49 -5 54 16 l6 23 23
-21 c25 -23 79 -26 100 -5 6 6 18 12 25 12 8 0 16 6 19 13 3 10 22 12 67 10
34 -2 76 -4 92 -4 17 1 61 -9 99 -21 49 -15 71 -19 74 -10 2 8 11 8 29 1 45
-17 85 -18 79 -3 -3 9 2 14 14 14 26 0 79 55 69 72 -14 21 -10 28 12 28 17 0
19 3 10 14 -25 30 31 73 62 48 7 -6 22 -11 32 -11 11 0 32 -3 48 -7 38 -9 33
8 -8 27 -29 13 -35 14 -35 3 0 -18 -4 -17 -41 1 -16 9 -33 14 -38 11 -4 -3
-18 2 -30 10 -20 14 -21 18 -7 33 21 24 -2 107 -41 146 -17 17 -33 40 -37 53
-4 12 -14 22 -23 22 -14 0 -13 -3 3 -21 16 -17 16 -22 4 -29 -8 -6 -20 -10
-26 -10 -7 0 -14 -8 -16 -18 -7 -26 -61 -27 -83 -2 -14 16 -20 17 -36 7 -20
-12 -27 -7 -43 28 -3 6 -10 2 -16 -8 -6 -9 -22 -29 -36 -44 -23 -25 -25 -25
-44 -8 -19 17 -19 17 -7 -8 7 -14 21 -30 33 -36 14 -6 23 -22 27 -46 3 -20 14
-44 24 -53 11 -9 14 -14 7 -9 -17 11 -44 -2 -37 -19 3 -8 11 -14 19 -14 23 0
16 -16 -11 -28 -33 -15 -33 -15 -38 6 -4 13 -5 12 -6 -5 0 -12 -7 -24 -13 -27
-7 -4 -3 -4 10 -2 15 3 22 -1 22 -11 0 -10 -6 -12 -21 -8 -16 5 -19 4 -14 -6
6 -9 3 -10 -10 -5 -10 4 -21 2 -24 -3 -9 -14 -106 23 -142 53 -31 27 -59 34
-59 16 0 -5 -4 -10 -10 -10 -5 0 -10 5 -10 10 0 16 35 47 48 42 7 -2 12 1 12
7 0 6 16 11 35 11 49 0 85 19 85 45 0 11 -11 36 -25 55 -16 21 -23 41 -19 53
4 11 -1 23 -12 31 -12 9 -14 15 -6 20 7 4 12 13 12 19 0 7 -7 3 -15 -7 -15
-19 -16 -19 -56 2 -50 27 -74 16 -64 -30 5 -22 3 -28 -10 -28 -9 0 -15 -6 -14
-12 1 -7 0 -20 -3 -28 -3 -8 -9 -28 -14 -45 -12 -39 -39 -43 -69 -11 -13 14
-33 26 -44 26 -11 0 -23 5 -26 10 -3 6 -1 10 5 10 6 0 8 5 5 10 -3 6 -16 10
-29 10 -17 0 -26 9 -35 38 -7 20 -37 61 -66 91 l-54 54 -12 -27 c-10 -22 -10
-29 0 -35 7 -5 14 -21 16 -37 1 -16 5 -37 10 -47 4 -9 5 -28 3 -42 -6 -31 23
-60 53 -52 25 7 69 -8 69 -23 0 -6 -4 -9 -9 -6 -11 7 -44 -61 -36 -73 3 -6 -1
-13 -8 -18 -15 -9 -24 -39 -35 -118 -9 -59 -17 -75 -40 -75 -10 0 -28 -7 -40
-16 -12 -8 -22 -12 -22 -8 0 4 -8 0 -18 -9 -10 -10 -22 -14 -25 -11 -4 4 -13
1 -21 -5 -11 -10 -25 -7 -65 14 -28 14 -51 22 -51 18 0 -5 -14 -17 -30 -28
-25 -17 -29 -25 -24 -48 5 -22 1 -32 -14 -43 -12 -8 -22 -27 -24 -42 -3 -23
-8 -28 -37 -30 -30 -3 -33 -1 -28 17 3 12 -2 26 -13 36 -16 14 -18 14 -31 -1
-19 -23 -71 -44 -109 -44 -16 0 -30 -4 -30 -10 0 -5 -8 -10 -18 -10 -10 0 -27
-6 -38 -14 -13 -10 -23 -11 -31 -4 -9 8 -18 4 -33 -13 -10 -13 -19 -28 -20
-32 0 -4 -15 -23 -33 -42 -26 -26 -38 -32 -60 -28 -18 4 -34 0 -45 -10 -16
-14 -21 -15 -45 -2 -15 7 -52 16 -83 18 -64 5 -75 16 -81 82 -3 22 -12 48 -20
57 -15 17 -14 18 16 14 17 -2 41 -12 53 -22 21 -19 21 -19 8 2 -12 19 -10 27
8 58 12 21 22 43 22 51 0 10 8 9 37 -5 32 -15 39 -16 51 -3 13 13 13 17 -2 31
-16 16 -18 16 -31 -1 -15 -21 -28 -16 -99 35 -30 21 -42 25 -48 16 -6 -11 -8
-11 -8 0 0 7 7 15 15 18 8 4 15 16 15 28 0 12 14 37 31 55 16 18 29 34 27 35
-2 1 -12 8 -22 16 -18 14 -19 13 -13 -2 8 -22 13 -22 -81 -2 -42 9 -90 17
-106 18 -17 1 -38 13 -53 30 l-23 28 -28 -30 c-23 -25 -34 -29 -75 -27 -26 1
-55 9 -65 18 -9 8 -36 18 -59 22 -24 4 -46 11 -49 17 -4 6 -10 5 -15 -3 -7
-11 -11 -11 -21 -1 -7 7 -13 18 -13 24 0 10 -58 54 -110 84 -11 6 -22 21 -25
33 -5 22 -55 55 -70 46 -4 -3 -12 1 -18 8 -6 8 -2 37 14 92 25 81 25 127 1
167 -10 17 -8 23 21 47 25 22 32 35 32 64 0 38 -21 67 -47 67 -9 0 -13 -3 -10
-6 12 -12 -33 -63 -49 -57 -9 3 -14 0 -12 -8 5 -23 -39 -23 -52 0 -6 12 -7 21
-3 21 4 0 -11 10 -34 22 -24 12 -43 27 -43 34 0 7 -11 30 -25 50 -14 20 -25
46 -25 58 0 12 -7 32 -16 44 -10 14 -11 22 -3 20 6 -2 14 3 16 10 3 6 0 12 -6
12 -6 0 -20 10 -32 23 l-21 22 7 -22 c4 -14 2 -23 -4 -23 -6 0 -11 -15 -11
-34 0 -19 -4 -38 -10 -41 -13 -8 -13 -65 0 -65 5 0 7 -7 3 -16 -3 -10 0 -22 8
-28 15 -12 23 -70 8 -60 -5 3 -9 -4 -9 -15 0 -12 -4 -21 -10 -21 -12 0 -8 -43
5 -52 6 -5 5 -8 -3 -8 -8 0 -10 -8 -6 -25 5 -19 2 -25 -10 -25 -18 0 -23 -54
-7 -79 7 -11 2 -18 -17 -29 -25 -12 -28 -12 -41 7 -16 25 -30 27 -45 6 -10
-14 -15 -13 -48 4 -32 16 -39 16 -49 5 -6 -8 -15 -11 -20 -8 -5 3 -14 -6 -21
-20 -7 -17 -19 -26 -33 -26 -15 0 -25 -8 -29 -22 -6 -21 -7 -22 -17 -5 -8 14
-7 24 5 42 9 13 16 26 16 28 0 2 -20 24 -45 49 -40 41 -52 68 -45 103 1 6 -4
4 -11 -2 -19 -19 -39 -16 -39 6 0 10 -13 34 -30 52 -16 19 -30 39 -30 44 0 10
-23 33 -49 49 -21 14 -31 -15 -14 -41 8 -13 11 -24 7 -24 -5 -1 -18 -3 -29 -4
-35 -5 -50 -10 -57 -20 -5 -6 -8 -5 -8 4 0 10 -8 12 -29 8 -29 -6 -29 -6 -26
41 2 28 -2 54 -11 66 -19 27 -18 36 5 36 25 0 31 10 33 55 1 23 6 35 16 35 11
0 13 9 8 39 -8 51 -54 121 -79 121 -10 0 -28 11 -39 25 -21 27 -71 35 -84 13z
m1366 -958 c0 -5 -7 -10 -15 -10 -8 0 -15 5 -15 10 0 6 7 10 15 10 8 0 15 -4
15 -10z m165 -320 c3 -5 1 -10 -4 -10 -6 0 -11 5 -11 10 0 6 2 10 4 10 3 0 8
-4 11 -10z m-1585 -80 c0 -5 -2 -10 -4 -10 -3 0 -8 5 -11 10 -3 6 -1 10 4 10
6 0 11 -4 11 -10z m2031 -262 c-10 -16 -10 -22 -1 -28 9 -5 9 -9 1 -14 -6 -4
-8 -12 -5 -18 5 -7 1 -9 -9 -5 -13 5 -15 1 -11 -21 5 -31 -10 -62 -24 -47 -14
15 -22 93 -10 97 7 3 7 11 -1 25 -19 36 -14 54 13 47 17 -4 25 0 31 13 6 16 8
16 18 -5 8 -18 8 -29 -2 -44z m-2416 -79 c10 -16 -1 -22 -26 -14 -17 6 -19 9
-8 16 19 12 26 11 34 -2z m-10 -39 c3 -5 1 -10 -4 -10 -6 0 -11 5 -11 10 0 6
2 10 4 10 3 0 8 -4 11 -10z m-15 -30 c0 -5 -2 -10 -4 -10 -3 0 -8 5 -11 10 -3
6 -1 10 4 10 6 0 11 -4 11 -10z m-125 -40 c3 -5 2 -10 -4 -10 -5 0 -13 5 -16
10 -3 6 -2 10 4 10 5 0 13 -4 16 -10z m595 -60 c0 -5 -4 -10 -10 -10 -5 0 -10
5 -10 10 0 6 5 10 10 10 6 0 10 -4 10 -10z m305 -580 c3 -5 1 -10 -4 -10 -6 0
-11 5 -11 10 0 6 2 10 4 10 3 0 8 -4 11 -10z m30 -20 c3 -5 1 -10 -4 -10 -6 0
-11 5 -11 10 0 6 2 10 4 10 3 0 8 -4 11 -10z m2405 -710 c0 -5 -2 -10 -4 -10
-3 0 -8 5 -11 10 -3 6 -1 10 4 10 6 0 11 -4 11 -10z m23 -30 c3 -11 1 -18 -4
-14 -5 3 -9 12 -9 20 0 20 7 17 13 -6z m-2062 -228 c-7 -2 -18 1 -23 6 -8 8
-4 9 13 5 13 -4 18 -8 10 -11z m477 -104 c9 -9 8 -16 -5 -30 -15 -17 -17 -17
-35 4 -14 17 -16 23 -6 30 18 11 32 10 46 -4z m-2160 -450 c-2 -5 -8 -9 -13
-9 -5 0 -11 4 -13 9 -1 5 4 9 13 9 9 0 14 -4 13 -9z"/>
<path d="M8827 12803 c-4 -3 -7 -20 -7 -37 0 -32 33 -72 50 -61 5 3 11 1 15
-5 10 -16 25 -12 25 6 0 11 6 15 20 11 30 -8 24 12 -16 50 -23 21 -43 32 -52
28 -8 -3 -18 -1 -22 5 -3 6 -9 7 -13 3z"/>
<path d="M11250 12589 c0 -12 -8 -23 -20 -26 -11 -3 -20 -13 -20 -22 0 -9 -14
-30 -30 -48 -29 -31 -29 -32 -8 -35 12 -2 24 -9 26 -17 3 -9 0 -12 -11 -8 -10
4 -17 -2 -21 -15 -4 -19 -7 -20 -22 -7 -16 13 -17 11 -12 -19 2 -17 1 -32 -3
-32 -4 0 -5 -8 -2 -19 4 -16 0 -18 -23 -13 -25 4 -27 3 -21 -19 4 -13 7 -27 7
-31 0 -5 4 -8 10 -8 5 0 6 8 3 17 -5 12 -2 15 10 10 11 -4 18 1 22 16 4 12 13
37 22 55 13 29 18 33 43 27 15 -3 31 -2 34 3 6 10 80 7 98 -4 5 -4 8 -17 5
-30 -6 -34 8 -39 39 -15 15 12 35 21 46 21 23 0 45 20 57 52 8 22 9 22 31 -14
15 -26 29 -38 44 -38 13 0 30 -8 39 -18 15 -16 15 -20 -3 -47 -11 -17 -20 -26
-20 -21 0 5 -7 3 -15 -4 -13 -10 -19 -10 -33 4 -27 23 -30 20 -27 -20 3 -27 0
-34 -10 -30 -18 7 -87 -13 -105 -30 -10 -10 -10 -14 -2 -14 7 0 12 5 12 10 0
6 13 1 29 -11 22 -16 36 -19 61 -14 17 4 34 13 37 21 7 19 95 18 133 -1 30
-15 30 -15 30 11 0 25 2 26 50 22 54 -3 63 4 28 23 -13 7 -44 30 -69 53 -25
23 -69 57 -97 76 -50 34 -60 52 -43 78 7 11 9 11 14 -2 10 -26 27 -18 27 12 0
25 -4 28 -35 30 -27 2 -41 -3 -58 -22 -22 -23 -26 -24 -66 -14 -38 10 -42 14
-38 35 3 17 -4 31 -30 53 -18 17 -41 30 -49 30 -10 0 -14 6 -10 15 4 11 -2 15
-24 15 -24 0 -30 -4 -30 -21z"/>
<path d="M10440 12565 c10 -12 9 -20 -4 -40 -9 -14 -23 -25 -31 -25 -18 0 -19
-12 -4 -27 8 -8 7 -17 -3 -32 -14 -23 -33 -27 -43 -11 -4 6 -11 7 -17 3 -7 -3
-38 -5 -70 -4 -56 2 -58 2 -58 -23 0 -14 -4 -26 -9 -26 -4 0 -6 -11 -3 -26 3
-17 -2 -32 -17 -48 -16 -17 -20 -30 -15 -50 5 -21 3 -25 -10 -20 -11 4 -16 1
-16 -10 0 -9 -6 -16 -13 -16 -14 0 -15 -29 -3 -72 4 -15 4 -33 0 -40 -5 -7 -7
-21 -5 -31 3 -24 42 -62 61 -62 18 0 26 -53 11 -68 -6 -6 -11 -24 -11 -39 0
-18 -5 -28 -15 -28 -8 0 -15 -6 -15 -14 0 -8 -3 -21 -6 -29 -4 -11 1 -13 20
-10 21 4 26 11 26 34 0 22 5 29 20 29 11 0 20 7 20 15 0 8 7 15 15 15 8 0 14
3 14 8 -4 23 3 38 23 47 12 6 27 25 33 44 9 27 19 36 54 48 31 10 46 12 54 4
16 -16 64 -13 71 4 3 8 12 15 20 15 20 0 30 18 18 33 -5 7 -12 27 -16 46 -5
29 -4 32 9 21 13 -11 14 -10 9 3 -3 8 -1 25 6 36 8 16 8 21 -2 21 -12 0 -50
70 -43 78 1 1 15 -2 30 -8 16 -6 34 -9 41 -6 7 3 15 -2 18 -10 3 -8 10 -14 16
-14 6 0 8 5 5 11 -4 5 0 18 8 27 20 22 38 68 43 112 2 19 6 50 9 68 6 30 4 33
-25 39 -18 3 -34 12 -37 19 -3 8 -16 14 -29 14 -17 0 -22 -4 -18 -15 9 -22
-14 -18 -26 5 -8 16 -15 18 -35 10 -15 -6 -27 -6 -30 0 -4 6 -13 10 -22 10
-13 0 -13 -3 -3 -15z"/>
<path d="M11824 12301 c3 -5 -1 -14 -9 -21 -17 -14 -20 -50 -5 -50 6 0 16 -12
23 -27 14 -33 67 -86 76 -77 3 4 0 9 -6 11 -7 3 -13 17 -13 33 0 15 -6 30 -14
33 -8 3 -17 21 -21 39 -11 55 -16 68 -26 68 -6 0 -8 -4 -5 -9z"/>
<path d="M11362 12240 c14 -22 24 -19 15 5 -4 8 -11 15 -17 15 -6 0 -6 -7 2
-20z"/>
<path d="M12413 11844 c3 -4 0 -12 -7 -20 -11 -10 -20 -11 -45 -1 -27 10 -32
9 -44 -8 -14 -17 -16 -18 -56 -2 -23 10 -44 17 -46 17 -11 0 -4 -28 9 -40 8
-6 12 -19 9 -27 -4 -9 1 -22 13 -30 10 -7 24 -31 30 -53 10 -35 10 -41 -4 -49
-15 -8 -14 -13 3 -48 11 -21 20 -39 20 -40 0 -1 13 -5 29 -9 27 -6 29 -5 24
20 l-5 26 31 -18 c18 -11 49 -22 69 -26 20 -4 37 -12 37 -19 0 -9 2 -9 8 1 7
9 13 8 27 -8 10 -11 24 -20 32 -20 7 0 13 -6 13 -12 0 -7 16 -24 35 -38 19
-14 35 -30 35 -37 0 -15 33 -73 41 -73 11 0 69 -57 69 -68 0 -19 34 -23 47 -6
7 10 13 21 13 26 0 4 9 8 20 8 11 0 20 -7 20 -15 0 -8 3 -14 8 -14 21 4 31 -3
25 -17 -6 -16 12 -34 35 -34 6 0 12 7 12 15 0 7 8 18 17 24 15 8 15 11 -7 34
-13 13 -29 45 -35 70 -11 41 -10 48 8 66 16 16 18 23 8 35 -10 12 -9 15 5 18
15 3 13 7 -10 34 -14 18 -26 39 -26 47 0 9 -11 29 -24 44 -20 23 -32 28 -70
28 -38 0 -45 3 -41 16 3 10 -1 19 -10 23 -9 3 -15 0 -15 -9 0 -17 -45 -21 -55
-5 -3 5 -11 7 -18 4 -8 -3 -25 6 -39 19 -14 13 -33 27 -42 30 -17 7 -20 13
-30 59 -7 30 -79 88 -110 88 -10 0 -17 -3 -13 -6z"/>
<path d="M10036 11765 c7 -18 21 -31 34 -33 12 -2 24 -11 27 -20 10 -28 35
-52 55 -52 22 0 22 3 3 39 -8 16 -12 31 -8 34 3 4 0 19 -6 35 -12 28 -16 29
-65 28 l-53 -1 13 -30z m38 -16 c-3 -5 -10 -7 -15 -3 -5 3 -7 10 -3 15 3 5 10
7 15 3 5 -3 7 -10 3 -15z"/>
<path d="M10128 11483 c7 -3 16 -2 19 1 4 3 -2 6 -13 5 -11 0 -14 -3 -6 -6z"/>
<path d="M12780 11198 c0 -21 16 -39 35 -42 10 -1 19 -11 21 -20 4 -25 10 -29
32 -22 13 4 19 16 19 36 0 27 -3 30 -32 30 -18 0 -38 7 -45 15 -15 18 -30 19
-30 3z"/>
<path d="M12816 11101 c-4 -6 -13 -8 -21 -4 -9 3 -15 -1 -15 -10 0 -8 -8 -14
-17 -13 -10 0 -19 -8 -21 -19 -3 -11 -11 -25 -20 -31 -15 -11 -14 -21 13 -87
6 -15 2 -17 -29 -12 -34 4 -37 2 -30 -17 4 -14 2 -18 -5 -14 -6 4 -11 3 -11
-2 0 -6 -9 -8 -20 -5 -15 4 -20 0 -20 -15 0 -12 -9 -22 -22 -26 -23 -6 -23 -7
7 -31 30 -24 41 -73 20 -87 -19 -14 10 -43 46 -46 19 -1 44 -8 56 -14 18 -9
20 -14 12 -30 -12 -22 -2 -40 10 -20 5 9 20 11 48 6 l40 -6 -3 37 c-2 32 1 38
25 48 18 8 26 18 23 27 -3 8 -1 12 4 7 4 -4 13 5 19 20 12 28 5 61 -24 111 -7
13 -10 30 -7 37 2 7 2 15 -1 18 -3 3 -7 26 -9 52 -2 25 -8 54 -14 64 -5 11 -7
26 -5 34 7 17 -20 43 -29 28z m-62 -106 c4 -13 2 -14 -14 -5 -23 13 -26 20 -6
20 8 0 16 -7 20 -15z"/>
<path d="M12222 9750 c0 -14 2 -19 5 -12 2 6 2 18 0 25 -3 6 -5 1 -5 -13z"/>
<path d="M12312 9758 c6 -18 28 -21 28 -4 0 9 -7 16 -16 16 -9 0 -14 -5 -12
-12z"/>
<path d="M11757 9737 c-14 -21 -15 -21 -35 -4 -12 12 -22 14 -26 8 -4 -6 -20
-8 -36 -4 -20 3 -30 1 -30 -6 0 -8 -8 -10 -22 -5 -23 7 -23 6 -4 -15 17 -19
18 -23 4 -38 -9 -10 -19 -28 -22 -40 -4 -13 -12 -23 -18 -23 -5 0 -8 -7 -4
-15 3 -9 0 -15 -8 -15 -8 0 -16 -7 -20 -15 -8 -22 -42 -18 -65 6 -15 17 -23
18 -40 10 -54 -28 -61 -31 -71 -31 -18 0 -50 -38 -37 -44 7 -2 5 -5 -5 -5 -9
-1 -20 8 -23 19 -9 28 -23 25 -20 -5 2 -14 -1 -25 -6 -25 -5 0 -9 -4 -9 -10 0
-5 4 -10 10 -10 5 0 36 -27 70 -60 50 -51 60 -66 60 -96 0 -21 6 -37 15 -40 8
-4 12 -10 9 -15 -3 -5 1 -9 9 -9 8 0 20 -7 27 -15 8 -9 16 -12 19 -6 13 21 85
11 95 -14 2 -7 13 -11 24 -9 13 4 26 -5 45 -34 23 -36 32 -41 89 -51 62 -12
137 -20 189 -21 20 0 28 -6 33 -25 4 -15 25 -37 54 -55 26 -16 42 -30 36 -30
-5 0 -19 6 -30 14 -14 11 -22 11 -32 3 -10 -8 -21 -6 -43 7 -29 17 -31 17 -43
0 -14 -19 -20 -13 -30 28 -6 25 -8 26 -43 16 -21 -6 -45 -13 -53 -15 -8 -3
-39 -5 -67 -3 -42 1 -53 -2 -53 -14 0 -9 -4 -16 -9 -16 -11 0 -37 -61 -32 -79
2 -12 0 -13 -12 -2 -12 9 -21 10 -36 1 -12 -6 -21 -8 -21 -4 0 3 -6 1 -13 -5
-8 -6 -16 -9 -18 -7 -2 2 -16 6 -31 10 -28 6 -28 6 -28 -44 0 -42 -5 -55 -26
-75 -15 -14 -31 -25 -36 -25 -5 0 -27 -15 -48 -32 -32 -27 -38 -37 -33 -60 4
-20 1 -29 -11 -34 -11 -4 -14 -13 -10 -30 5 -18 2 -24 -11 -24 -12 0 -15 -4
-8 -12 26 -33 22 -47 -28 -95 -90 -87 -95 -90 -117 -82 -17 6 -24 3 -33 -14
-21 -38 -40 -47 -71 -31 -25 13 -31 12 -75 -16 -32 -21 -55 -29 -70 -25 -13 3
-23 1 -23 -5 0 -5 6 -10 14 -10 20 0 55 -52 62 -92 4 -18 7 -62 8 -98 1 -36 5
-77 10 -92 9 -30 -7 -68 -28 -68 -8 0 -17 -11 -20 -25 -6 -25 -39 -35 -51 -15
-21 34 -35 -23 -15 -61 8 -14 7 -19 -2 -19 -13 0 29 -22 65 -34 9 -3 17 -15
17 -27 0 -12 5 -19 13 -16 6 2 23 -4 36 -15 15 -11 28 -15 35 -9 6 5 29 12 51
16 22 4 54 18 72 31 l32 24 16 -30 c10 -20 33 -39 66 -53 27 -13 46 -27 42
-31 -4 -4 1 -4 11 0 15 6 17 3 12 -14 -5 -15 -1 -24 14 -32 11 -6 18 -15 15
-21 -4 -5 8 -9 24 -9 17 0 31 4 31 9 0 5 10 13 23 17 12 3 30 13 40 22 9 8 17
12 17 7 0 -4 7 -2 15 5 8 7 15 23 15 36 0 13 4 24 8 24 13 0 47 81 44 101 -2
10 2 20 8 24 5 3 10 13 10 21 0 12 -2 12 -14 2 -8 -7 -12 -15 -10 -17 3 -3
-14 -13 -36 -23 -34 -16 -44 -30 -42 -58 0 -3 3 -12 7 -21 4 -10 -3 -19 -20
-27 -37 -17 -50 -15 -84 14 -17 14 -31 23 -31 19 0 -3 -11 6 -25 21 -14 15
-25 34 -25 42 0 12 -3 12 -15 2 -8 -7 -12 -16 -9 -21 3 -5 -2 -12 -10 -15 -9
-3 -16 -15 -16 -25 0 -43 -45 -2 -48 44 -2 29 8 33 39 17 15 -9 19 -7 19 5 0
16 22 45 34 45 3 0 6 -8 6 -17 0 -14 2 -15 9 -4 6 8 14 10 22 5 8 -5 19 -9 24
-10 6 -1 18 -5 28 -9 10 -4 17 -3 17 4 0 6 11 11 25 11 14 0 25 -4 25 -10 0
-5 7 -7 15 -4 8 4 15 11 15 18 0 6 28 20 63 32 54 17 62 24 65 47 2 18 9 27
20 27 10 0 22 13 29 30 6 17 18 30 26 30 7 0 19 12 26 26 9 21 14 24 26 14 10
-8 19 -8 33 -1 11 6 23 7 27 3 4 -4 2 3 -4 16 -13 24 -9 27 19 12 14 -8 25 -4
49 15 l30 26 25 -26 c14 -14 32 -25 41 -25 8 0 15 -4 15 -10 0 -5 12 -10 27
-10 26 0 26 1 7 16 -18 15 -18 15 8 10 26 -6 47 9 33 22 -4 4 -10 1 -12 -6 -7
-20 -91 76 -102 117 -7 23 -7 39 0 47 6 8 5 13 -6 18 -9 3 -15 18 -15 36 0 28
3 30 38 31 46 2 44 2 63 -6 9 -3 24 1 33 10 10 10 24 14 37 10 28 -9 59 21 59
56 0 15 5 31 11 35 6 3 8 16 5 28 -3 13 1 32 10 44 14 21 14 25 -6 57 -12 19
-20 43 -18 54 2 10 -6 28 -16 40 -19 21 -19 21 7 21 30 0 47 24 47 69 0 16 7
36 15 45 8 8 15 22 15 30 0 9 5 16 10 16 6 0 10 -7 10 -16 0 -8 5 -12 10 -9 6
4 17 1 25 -5 10 -8 15 -9 15 -2 0 6 -8 16 -17 21 -10 6 -13 11 -7 11 7 0 14
10 18 23 5 17 8 19 15 8 8 -12 13 -12 35 3 14 9 26 25 26 36 0 11 5 20 10 20
6 0 10 11 10 25 0 16 6 25 16 25 8 0 12 5 9 11 -11 17 -11 79 0 79 17 -1 54
-24 54 -35 0 -5 7 -11 15 -13 20 -4 9 36 -14 50 -16 10 -16 14 -2 50 15 38 37
49 58 28 7 -7 10 1 11 24 1 29 -3 36 -27 45 -20 6 -35 23 -49 56 -22 49 -42
55 -48 14 -2 -13 -12 -31 -23 -41 -11 -9 -20 -21 -20 -27 0 -6 -5 -11 -12 -11
-6 0 -4 -7 5 -18 21 -23 21 -31 1 -53 -14 -16 -14 -20 1 -50 15 -28 15 -31 1
-26 -8 3 -18 2 -21 -3 -4 -6 5 -10 19 -10 14 0 28 -5 31 -11 9 -14 7 -15 -37
-23 -36 -7 -38 -5 -38 19 0 18 -5 25 -19 25 -10 0 -25 7 -32 16 -11 13 -10 17
4 25 10 6 17 22 17 37 0 16 5 33 11 39 17 17 14 92 -5 106 -9 7 -19 27 -22 45
-5 25 -3 32 10 32 18 0 20 20 7 67 -6 21 -5 35 2 42 8 8 7 11 -4 12 -7 1 -18
2 -24 4 -5 1 -16 3 -22 3 -19 3 -16 43 5 58 16 13 16 15 -7 34 -13 11 -18 20
-11 20 14 0 10 51 -5 62 -5 4 -27 8 -47 8 -20 0 -40 5 -44 11 -3 6 -19 9 -34
5 -20 -4 -30 -1 -34 10 -4 10 -13 14 -22 10 -8 -3 -25 -1 -36 5 -17 9 -24 8
-32 -3 -6 -8 -29 -15 -50 -16 -22 -2 -43 -5 -48 -8 -4 -3 -8 0 -8 5 0 6 -3 10
-7 9 -5 -1 -18 3 -29 10 -19 10 -24 8 -37 -11z m593 -593 c0 -14 -4 -23 -9
-20 -5 3 -7 15 -4 26 7 28 13 25 13 -6z m-160 -49 c-7 -8 -17 -15 -22 -15 -6
0 -5 7 2 15 7 8 17 15 22 15 6 0 5 -7 -2 -15z m-40 -44 c0 -14 -18 -23 -31
-15 -8 4 -7 9 2 15 18 11 29 11 29 0z m40 -65 c0 -2 3 -11 6 -20 4 -11 0 -16
-13 -16 -25 0 -33 8 -26 26 4 12 33 21 33 10z m-50 -16 c0 -5 -7 -10 -15 -10
-8 0 -15 5 -15 10 0 6 7 10 15 10 8 0 15 -4 15 -10z m-864 -1247 c-8 -8 -36 5
-36 17 0 7 6 7 21 0 11 -7 18 -14 15 -17z"/>
<path d="M12220 9676 c0 -9 5 -16 10 -16 6 0 10 4 10 9 0 6 -4 13 -10 16 -5 3
-10 -1 -10 -9z"/>
<path d="M11142 9640 c-10 -16 -10 -25 0 -43 11 -21 12 -21 20 12 11 40 -2 59
-20 31z"/>
<path d="M11115 9570 c-3 -5 -1 -10 4 -10 6 0 11 5 11 10 0 6 -2 10 -4 10 -3
0 -8 -4 -11 -10z"/>
<path d="M12345 9430 c3 -5 8 -10 11 -10 2 0 4 5 4 10 0 6 -5 10 -11 10 -5 0
-7 -4 -4 -10z"/>
<path d="M9630 9260 c0 -5 5 -10 11 -10 5 0 7 5 4 10 -3 6 -8 10 -11 10 -2 0
-4 -4 -4 -10z"/>
<path d="M9512 9209 c-10 -16 -11 -24 -2 -33 8 -8 12 -5 16 12 4 13 14 22 25
22 11 0 19 5 19 10 0 19 -45 10 -58 -11z"/>
<path d="M12449 9163 c-13 -15 -12 -15 9 -4 23 12 28 21 13 21 -5 0 -15 -7
-22 -17z"/>
<path d="M9463 9135 c0 -8 4 -15 8 -15 4 0 9 7 13 15 3 9 0 15 -8 15 -7 0 -13
-7 -13 -15z"/>
<path d="M9370 9108 c0 -15 5 -30 10 -33 15 -9 12 -45 -4 -45 -8 0 -17 -13
-21 -30 -4 -17 -13 -30 -22 -30 -11 0 -13 -5 -8 -17 4 -10 7 -26 7 -35 0 -10
3 -18 8 -18 5 0 11 -8 13 -17 4 -14 5 -12 6 5 1 24 11 28 28 11 7 -7 17 -3 32
17 20 25 20 28 5 45 -9 10 -13 23 -9 28 8 14 58 14 71 1 7 -7 8 6 4 38 -4 42
-8 47 -32 50 -16 2 -29 8 -29 13 -1 5 -3 14 -4 19 -1 6 -3 13 -4 16 0 4 -8 1
-17 -7 -13 -10 -17 -10 -25 2 -6 10 -9 7 -9 -13z"/>
<path d="M9220 9016 c0 -8 5 -18 10 -21 15 -9 -25 -43 -73 -62 -52 -21 -83
-66 -68 -99 12 -28 25 -30 76 -8 21 9 49 14 62 11 18 -3 23 0 23 17 0 12 7 31
15 42 8 12 12 24 9 27 -3 3 4 10 15 17 12 6 21 20 20 33 0 12 -3 16 -6 10 -7
-18 -23 -16 -23 3 0 8 -6 22 -14 30 -19 18 -46 18 -46 0z"/>
<path d="M6810 8826 c0 -2 7 -9 15 -16 9 -7 15 -8 15 -2 0 5 -7 12 -15 16 -8
3 -15 4 -15 2z"/>
<path d="M9240 8719 c-14 -20 -17 -20 -60 -5 -25 9 -48 16 -51 16 -8 0 -3 -87
8 -142 7 -30 7 -50 1 -56 -6 -6 -5 -18 3 -33 9 -17 9 -24 0 -27 -6 -2 -11 -17
-11 -33 0 -16 -4 -29 -10 -29 -18 0 -10 -22 10 -27 11 -3 20 -11 20 -18 0 -16
-33 -45 -51 -45 -8 0 -20 -4 -28 -9 -12 -8 -12 -13 3 -36 10 -15 16 -35 13
-45 -4 -14 -1 -17 12 -13 9 4 20 12 24 20 4 7 16 13 26 13 26 0 71 45 72 72 2
28 5 59 7 75 1 6 15 14 31 18 17 3 31 14 34 26 3 11 14 19 26 19 24 0 27 20 9
53 -7 12 -13 40 -15 61 -2 22 -12 49 -22 60 -24 26 -36 71 -22 80 6 4 11 11
11 17 0 16 -24 9 -40 -12z"/>
<path d="M8406 8222 c3 -59 -29 -84 -61 -47 -5 7 -18 15 -27 18 -14 5 -18 1
-18 -18 0 -13 -6 -30 -14 -37 -7 -8 -17 -25 -21 -38 -17 -55 -58 -121 -71
-116 -8 3 -14 -1 -14 -8 0 -8 -6 -16 -12 -19 -7 -2 1 -8 17 -12 17 -4 38 -14
47 -23 10 -8 28 -12 43 -9 18 3 28 0 32 -10 3 -8 12 -12 19 -9 7 3 16 1 18 -3
3 -5 17 -8 31 -8 31 0 58 -22 50 -41 -3 -8 1 -22 10 -31 8 -9 26 -29 39 -46
22 -27 27 -29 46 -17 14 9 26 9 39 2 15 -7 20 -6 25 6 4 9 2 22 -4 29 -15 18
7 62 35 69 14 4 31 21 42 44 23 49 62 71 80 45 7 -9 13 -12 13 -6 0 7 12 8 39
2 22 -5 79 -7 127 -5 77 4 90 8 106 28 10 13 18 19 18 15 0 -18 26 19 28 40 1
13 6 32 10 41 5 9 6 44 3 77 -5 44 -9 54 -14 39 -4 -12 -17 -26 -30 -32 l-22
-11 23 -7 c25 -7 29 -26 9 -42 -9 -8 -31 -8 -75 1 -54 10 -63 15 -73 42 -7 16
-19 38 -27 48 -14 16 -16 16 -26 -5 -13 -27 -67 -36 -101 -18 -27 14 -94 7
-106 -11 -7 -11 -13 -10 -28 10 -18 24 -76 37 -87 20 -6 -10 -64 17 -64 31 0
5 -13 18 -28 28 l-28 20 2 -26z"/>
<path d="M9627 7402 c-24 -26 -21 -33 11 -26 29 7 44 23 36 36 -9 14 -30 9
-47 -10z"/>
</g>
</svg>
