<svg version="1" xmlns="http://www.w3.org/2000/svg" width="1010.032" height="1159.338" viewBox="0 0 757.524 869.503"><g fill="#222"><path d="M580.864.273c-.7.3-1.3 1.4-1.3 2.5 0 1.5-.5 1.8-1.9 1.3-1.1-.3-2.2-.1-2.6.5-.3.5-1.8 1-3.3 1-3.7 0-8.6 5.4-7.8 8.6.5 1.8.2 2.1-1.3 1.7-1.2-.3-2 .1-2.3 1.1-.3 1.4-.7 1.4-4.1-.4-2.1-1.1-4.2-1.8-4.8-1.4-.5.3-3.5.7-6.6.9-3.1.2-5.9.7-6.2 1.2-1.3 1.9-11.7 4.3-18.4 4.3-3.9 0-6.8.3-6.4.6.8.9-1.8 3.4-3.6 3.4-.8 0-1.8 1.1-2.1 2.4-.4 1.6-1.5 2.5-3.7 3-5.2 1-9.9.7-10-.7-.1-1.8-7.9-8.2-8.7-7.1-.9 1.1-3.8 3-7.4 4.7-2.2 1-2.5 1.6-1.6 2.5.9.9.9 1.2-.2 1.2s-1.1.3-.2 1.2c1.6 1.6 1.5 3.8-.1 3.8-.7 0-2.1 1.5-3.1 3.2-.9 1.8-2.3 4.4-3.1 5.8-.8 1.5-1.5 6-1.6 11.2-.2 8.3 0 8.9 2.9 12.9 2.1 2.9 2.9 4.6 2.2 5.4-.6.7-.6 1.5.1 2.2 1.2 1.2.3 5.3-1.2 5.3-.5 0-.9 1.1-.9 2.4 0 1.3-1.6 4-3.5 6.2-1.9 2.1-3.5 4.7-3.5 5.7 0 1.6-.2 1.7-1.5.7-1.3-1.1-1.8-1-3.1.8-.8 1.2-2.4 2.2-3.4 2.2-1.1 0-2.4.9-3 2-.6 1.1-1.7 2-2.4 2-.8 0-1.1 1-.8 3 .3 1.8 0 3-.7 3-.6 0-1.1.6-1.1 1.4 0 .8-1.7 2.5-3.7 3.7-5.3 3.3-5.6 3.4-4.9 1.1.4-1.2.2-2.4-.6-2.8-.6-.4-1.3-.3-1.5.3-.6 1.8-8.6.3-11.1-2.1-2.2-2-2.4-2-3.3-.3-.6.9-1.4 1.5-2 1.2-.5-.4-.9-.2-.9.4 0 1-1.8 1-3.6-.2-.7-.4-2.2.7-3.7 2.6-6.1 7.9-7.5 8.6-12.7 6.3-1.1-.5-1.6 0-1.7 1.5-.1 1.1-1 2.7-2 3.5-1.7 1.2-1.7 1.4.4 2.9 2.4 1.7 4.8 7.8 3.9 10.1-.4 1-1.3 1.3-2.5.9-1.8-.5-1.9-.3-1 3 .6 1.9.8 3.9.6 4.3-.3.4 1.1 1.7 2.9 2.9l3.4 2.2.2-3.7c0-2 .1-4.5 0-5.4-.1-1.5.2-1.6 2.4-.8 2.2.9 2.7.7 3.1-1 .3-1.1 1.4-2 2.5-2 1 0 1.6-.5 1.3-1-.8-1.2-.3-1.3 2.9 0 1.9.7 2.9.6 4-.5 1.3-1.3 1.7-1.2 3.5 1.1 2.1 2.6 2.1 2.6.1 5.4-1.1 1.6-2 3.1-2 3.5 0 .3 2 3.1 4.5 6.2 2.5 3 4.5 5.9 4.5 6.4 0 1.4 9.9 10.3 13 11.6 1.6.7 3.1 1.6 3.4 2.1.9 1.5-.6 5.2-2 5.2-.8 0-1.4.3-1.4.7 0 .5-1.1.9-2.5 1-1.4.2-3.6.4-4.8.5l-2.4.3 2 2.7c2.5 3.3 2.5 8.5 0 10.3-1.5 1.2-1.6 1.7-.5 3.4.9 1.6 1 3.2.2 6.5-1.5 6.7.6 10.1 6.8 11 3.9.6 5.2 1.3 7.7 4.6 1.7 2.1 3.5 3.9 4 4 1.4.1 7.1 5.5 8.5 8 .6 1.2.9 2.8.6 3.6-.3.8.9 2.7 3.1 4.7 3.6 3.2 8 7.6 11.1 10.9.8 1 2.3 1.8 3.3 1.8 1.7 0 3.3 2.5 2.4 4-.3.4.2 1.3 1 2s1.5 1.8 1.5 2.5c0 .6 1.1 1.7 2.5 2.3 1.8.8 2.5 2 2.5 3.9 0 1.6.9 3.9 2 5.3 1.9 2.4 2.8 6.6 1.2 5.6-.7-.4-.8 9.8 0 11.9.4 1.3-3.6 6.5-5 6.5-2.1 0-2.2 5-.2 9 2.4 4.7 2.2 5.4-2.9 7.9-2 1.1-4.3 2.7-5.1 3.5-.7.9-3.2 2.1-5.7 2.7-4.7 1.2-5.8 2.2-4.7 4.1.5.7.9 2.1.9 3.1.1.9.9 2.3 1.7 3 2.3 1.8 2.7 4 .9 5.4-2.1 1.6-5.8 1.6-6.4 0-.2-.6-2.5-1.8-5-2.5-6-1.8-7.4-3.5-5.7-6.7 1.1-2 1.1-2.7 0-4-.7-.8-1.8-1.5-2.4-1.4-2.5.4-8.4-3.3-13.9-8.5-3.2-3.1-6.6-5.6-7.6-5.6-.9 0-3-1.4-4.6-3-1.6-1.7-3.5-3-4.2-3-.7 0-1.3-.5-1.3-1.1 0-1-5.2-3.3-6.6-2.9-.4.1-1.1-.4-1.5-1.2-.7-1-.9-.9-.9.4 0 2.4-.9 2.3-3.7-.4l-2.3-2.1v2.2c0 1.8-.4 2.2-2 1.8-1.7-.4-2 0-2 3.3 0 5.2-1.6 9.1-3.4 8.4-2-.8-2.8-4.4-1-5.1 1.3-.5 1.3-.9-.1-2.9-1.4-2.2-1.4-2.4.4-2.4 1.1 0 2.1-.9 2.4-2.1.4-1.5 1.1-2 2.1-1.6 1.2.5 1.6 0 1.6-1.8 0-1.4.7-2.6 1.8-2.9 1.4-.5 1.7-1.4 1.4-3.6-.5-3.3-2.2-5.2-2.2-2.4 0 2.3-4.9 7.4-7.1 7.4-1.1 0-2.3-1.5-3.2-4.3-1.4-3.7-1.6-3.9-1.6-1.5-.1 2.3-.5 2.8-2.8 2.8-1.4 0-3.5.8-4.6 1.7-1.7 1.6-3.8 2.2-8.9 2.4-1 0-1.8.8-1.8 1.8s-.7 2.4-1.5 3.1c-.8.7-1.5 1.8-1.5 2.6 0 1.4-7.5 1.4-9.8 0-1.7-1-1.5 1.5.3 5 1.4 2.8 1.3 2.9-1.3 4.3-1.5.8-3 1.9-3.4 2.5-.4.6-1.3 1.1-2 1.2-.7 0-2.4.2-3.7.2-1.9.2-2.2.6-1.7 2.7.4 1.5.1 2.9-.8 3.7-1.2 1.1-.8 2.4 2.5 8.6 3.8 7.1 3.9 7.4 2.3 10.3-1.4 2.8-1.4 3.2.2 5 .9 1 3.2 2.2 5.1 2.5 1.9.4 3.7 1.3 4 2.1.4 1.1.7 1.1 1.7-.2s1.7-1.4 4.1-.5c1.7.6 3.8 1.8 4.7 2.7.9.8 2.1 1.2 2.7.9.5-.4 1.3 0 1.8.7 1.5 2.6 5.8 2.9 8.7.6 1.4-1.1 2.6-2.7 2.6-3.4 0-1.9 2.8-2.6 7-1.6 3.1.6 3.5 1.1 3.3 3.6-.1 1.7.5 3.4 1.5 4.1 1.6 1.2 1.6 1.3 0 1.4-1.1 0-1.5.6-1.1 2 .3 1.1.9 1.7 1.4 1.4.5-.3.9 0 .9.5 0 .6-.7 1.1-1.5 1.1s-2.4 1.3-3.6 2.9c-1.8 2.5-2.5 2.8-4.6 2-1.3-.5-5.1-.9-8.4-.9-3.3 0-6.8-.5-7.8-1.2-2.1-1.3-5.6-.4-4.6 1.2.4.6 1.1.8 1.6.5.5-.4 1.8 1 3 2.9 1.2 2 2.5 3.4 2.9 3.1.5-.3 1.4.4 2.1 1.6.9 1.8.9 2.5-.5 3.4-.9.7-1.6 1.8-1.6 2.5s-.3 1.1-.6.7c-.4-.3-1.2 0-2 .7-1.4 1.4-1.3 5.3.1 7.6.5.9.4 1.5-.3 1.8-.7.2-1.2 1-1.2 1.8 0 1 1 1.4 3.5 1.2 3.7-.2 4.5-1.7 2-3.8-2.2-1.8-1.8-3.3.5-2 1.6.9 2.2.6 3.6-1.5 1.6-2.4 1.5-2.6-.7-4.6-1.3-1.1-1.7-1.7-.9-1.2.8.4 3.3.8 5.5.9 5.6.2 12.9 3.8 16.1 7.9 1.4 1.9 3.1 3.2 3.6 2.9.5-.3 1.9.3 3.1 1.4 1.2 1.1 4.1 2.3 6.5 2.7 3.5.6 4.2.4 4.2-.9 0-.9.5-1.6 1-1.6.6 0 1 .5 1 1.2 0 .6.8.4 2-.7 1-.9 2.5-1.5 3.2-1.2.9.3 1.4-.4 1.3-2.2 0-1.8.7-2.9 2.3-3.6 1.2-.5 2-1.6 1.7-2.2-1.1-2.9 3.6-1 6.5 2.6 3.1 3.8 5.4 5.4 9.8 6.6 1.8.5 2.2.2 2.2-1.4 0-1.2.7-2.1 1.5-2.1s1.5.5 1.5 1.1c0 .7 1.2.9 3.5.5 2.8-.6 3.5-.4 3.5.9 0 .9-.4 1.4-.9 1-.5-.3-2.2.6-3.7 2-2 1.8-3.5 2.4-5 2.1-1.8-.5-2.4-.1-2.9 1.6-2.1 8.1-2.9 9.9-4.2 9.4-.8-.3-1.1-.2-.8.3 1.3 2.2-3.3 1.5-6.5-.9-1.9-1.5-4-3-4.7-3.3-1.7-1.1-6.2 7.3-5.6 10.5.7 3.8-3.1 6.2-7.5 4.7-2.4-.8-3.8-.7-6.4.4-4.8 2.2-8.1 2.7-9.8 1.7-1-.7-1.1-1-.2-1 .6 0 1.2-.4 1.2-.9 0-1.4-4.2-1.8-6.1-.7-2.7 1.5-4.7 0-5.4-4.2l-.6-4-3 1.5c-1.6.8-3.5 2.4-4.3 3.5-1.4 1.9-1.8 2-6.6.8-5.3-1.3-6.9-.7-7 2.6 0 1.5-5 5.9-9 7.9-1.9 1-4.5 2.6-5.7 3.8-1.6 1.4-2.6 1.7-3.5 1-.7-.6-3.2-1.4-5.6-1.8-3.8-.6-4.5-.4-6.3 1.9-1.1 1.4-3 2.6-4.1 2.6-1.1 0-2.9 1.1-4 2.5s-2.6 2.5-3.5 2.5c-1 0-1.3.6-.9 1.6.5 1.3.1 1.4-2.3.9-2.1-.4-3-.2-3.4.9-.4.9-1.6 1.6-2.7 1.6-1.2 0-2 .7-2 1.6 0 1.1-.5 1.4-1.7.9-3.2-1.2-3.7-1-4.1 1.5-.2 1.4-1 3.2-1.8 4-1.6 1.9-1.9 6.2-.6 11 .7 2.9.5 3.9-1.2 5.8-2 2.2-2 2.4-.3 3.3.9.6 1.7 1.8 1.7 2.9 0 1 .6 2.1 1.3 2.3.9.4.9.6-.1.6-.7.1-1 .5-.7 1.1.8 1.3-.8 1.3-2.2-.1-1.6-1.6-5.5-.1-4.9 1.9.3.9.8 3.7 1.1 6.1.3 2.4.8 4.8 1.1 5.3.3.5-.2 1.8-1.1 2.8-1.5 1.7-1.5 2 0 5 .9 1.7 1.4 3.9 1 4.8-.3 1 1.2 5.4 3.4 9.9 3.1 6.3 4.5 8.2 6.3 8.5 2.8.4 4.1 5.8 1.4 5.8-1.8 0-2.1 2.1-.7 3.5.5.6 1.1 2.3 1.3 4 .3 2.6 0 3-2 2.7-2.1-.3-2.2-.2-1 1.7.7 1.2 1.9 2.1 2.6 2.1.7 0 1.1.4.8.8-.2.4-.1 1.4.4 2.2.5.7.4 2.1-.3 3.1-.8 1.3-.8 2.1.1 3.2 1.5 1.7.3 3.1-1.4 1.6-1.4-1.2-5.4.4-5.4 2.1 0 .6-.8 1-1.7 1-2.9.1-6 3.4-7.4 7.8-.7 2.3-1.6 4.2-2.1 4.2s-.7.4-.3 1c1 1.6-1.8 5-3.7 4.4-1-.3-3.3.2-5.3 1.1-2.9 1.5-3.3 2-2.4 3.6.7 1.5.6 2.1-.5 2.5-1.1.4-1.4 1.4-1 3 .6 2.2.3 2.4-3.4 2.4-3.2 0-4.2.4-4.7 2-.3 1.1-1.5 2-2.6 2-1.2 0-1.9.7-1.9 2 0 1.7-.5 1.9-2.5 1.4-1.4-.3-2.5-.2-2.5.4 0 1.7 4.3 2.2 6 .7 1.6-1.5 6-1 6 .7 0 .5.5.6 1 .3.6-.4 1-1.6.8-2.8-.3-2.1.1-2.2 7.6-2.2 5.4 0 8 .4 8.3 1.2.3.7 1.1 1.3 1.8 1.3.8 0 1.1.8.8 1.9-.3 1 0 2.8.6 4 1 1.7.9 2.1-.4 2.1-.8 0-1.5.5-1.5 1.1 0 .7.8.6 2.3-.3 1.3-.9 3.2-1.2 4.7-.8 1.4.4 3.1.2 3.8-.3.9-.7 2.3-.4 4.7.9 3.5 1.9 4.9 4.2 1.9 3-1.2-.5-1.5-.2-1 1 .3.8.6 2 .6 2.5 0 .6.5.7 1.1.4.6-.4 1.7.2 2.5 1.4.9 1.2 2 1.9 2.5 1.6.5-.4.9.3.9 1.4 0 1.2.6 2.1 1.4 2.1.8 0 1.8.9 2.1 2 .3 1.1 1.5 2 2.6 2 2.5 0 6.9 3.9 6.9 6.2 0 1-1 2-2.4 2.4-2.6.6-4 2.9-2.9 4.6.3.6.1.8-.5.4-.6-.3-1.3.3-1.7 1.4-.3 1.1-1.4 2-2.3 2-1 0-2.3.9-3 2.1-.9 1.3-2 1.9-3.2 1.6-1.4-.4-2.1.3-2.9 2.4-.5 1.6-.7 2.9-.3 2.9.4 0 .1.4-.7.9-1 .6-1.1 1.7-.6 3.7 1.1 3.9.6 7.7-1.1 8.7-.8.5-1.2 1.3-.8 1.8.6 1-2.3 9.7-3.8 11.3-1.9 2.2-.6 9.6 1.7 9.6s2.9 2.2 1.1 3.5c-1.4 1.1-1.5 1.7-.5 3.8.9 2.1.7 3.2-1.6 7.1-1.6 2.7-2.5 5.5-2.2 6.6.4 1.4-.5 2.7-3.4 4.8-3.1 2.3-3.6 3.1-2.6 4.2 1 1 .7 1.1-1.5.6-2.4-.5-2.8-.3-2.8 1.4 0 1.5-.7 2-2.6 2-2.1 0-2.5.4-2.1 2 .3 1.3-.1 2.1-1.4 2.5-1 .4-1.9 1.1-1.9 1.6s-1.3.9-2.9.9c-1.7 0-3.3.4-3.6 1-1.1 1.8-6 1.1-9.7-1.5-2.2-1.5-3.9-2.1-4.3-1.5-.9 1.5-4.2 1.2-4.8-.4-.4-.9-1.4-1.2-2.6-.9-1.8.5-1.9 1.2-1.7 9.2.1 4.8.6 9.2 1 9.9.5.8 3.9 1 11.4.6 5.9-.2 11.2-.5 11.7-.5.6 0 2.5.1 4.4.2 3.1.2 3.2.3 1.1 1.4-1.9 1-2 1.3-.6 2.4.9.8 1.6.9 1.6.4s2.8-.8 6.2-.6c6.7.3 9.4 2 8.4 5.5-.2 1.1.7 2.7 2.7 4.3 1.8 1.4 3.7 2.9 4.3 3.5.7.5 1.4 1.3 1.5 1.7.2.4 3.5.6 7.3.5 5.7-.3 6.9-.7 7.3-2.2.5-1.8.7-1.8 2.8-.4 1.8 1.2 2.4 1.2 2.8.2.3-.9 1.1-.5 2.5 1.2 2.6 3.1 2.7 3.9.2 7-2.5 3.2-2.5 5.1.1 8.3 1.6 2.1 1.8 3.1 1 4.6-1.5 2.7-1.6 2.7 3.3 2.3 2.8-.3 5.1-1.1 6.2-2.3 1.1-1.2 3-1.9 5.4-1.9 2 0 4.1-.5 4.6-1 .6-.6 3.9-1.8 7.3-2.6 6.2-1.6 7.5-2.4 12.5-7.2 2.6-2.5 6.4-2.3 8.7.4 1.4 1.8 4.3 1.8 3.6.1-.3-.7.6-2.3 1.9-3.6 1.3-1.3 2.7-3.4 3-4.7.3-1.3 1.5-2.4 2.7-2.6 1.2-.2 2.8-1.7 3.7-3.3.8-1.7 1.6-3.2 1.7-3.3.1-.2.9.1 1.9.6 2 1.1 5.7-.8 8.7-4.5 1-1.3 2.7-2.3 3.8-2.3 2.2 0 6.9-3.8 6.9-5.6 0-.7 1-1.4 2.3-1.6 1.2-.2 2.2-.8 2.1-1.3-.1-1.3 2.2-3.5 3.6-3.5.7 0 .8-.6 0-1.9-2.1-3.9-1.3-5.1 3.4-5.1 5.7 0 10.4-1.7 11.1-4.1.4-1.1 1.5-1.9 3-1.9 1.2 0 2.5-.7 2.9-1.5.3-.8 1.2-1.5 2.1-1.5.8 0 1.5-.5 1.5-1.1 0-.5.4-.8.9-.5 1.4.9 3.3-4.8 2.5-7.7-.5-2.4-.3-2.7 2-2.7 2.9 0 10.5-7.4 10.6-10.3 0-.9.4-1.7.9-1.7 1.5 0 0-8.3-2-11.1-1.3-1.9-1.6-3.6-1.2-6.8.4-2.7.9-3.9 1.5-3.3 1 1 6.8-1.6 6.8-3.1 0-.4 1.1-.7 2.5-.7 2.4 0 3.2-1.4 2.5-4.5-.1-.5-.2-1.9-.3-3 0-1.1-.5-2.5-.9-3.2-.6-.7-.5-2 .2-3.3.9-1.8 1.7-2 4.3-1.4 4.8 1 7.7 2.2 7.7 3.2 0 .5 2 2 4.5 3.3 2.5 1.3 4.5 2.7 4.5 3.1 0 .5.9.8 2 .8 1.4 0 2.1-.9 2.6-3.5.6-3.4.6-3.4 3.4-2 2.9 1.5 6.5 1.1 5.4-.7-.8-1.2 2.5-4.8 5.5-6 1.6-.6 4.1-.5 7.1.3 3.9 1 5.1.9 7.7-.4 4.3-2.3 7.3-6.8 7.3-11.1 0-2 .4-3.6.8-3.6.5 0 2.1-1.1 3.7-2.4 2.8-2.4 2.9-3.3.9-8-.7-1.8-.6-1.9 1.5-.4 1.7 1.2 3.1 1.4 5.9.7 2-.4 3.8-1.2 4-1.8.2-.5 1-.7 1.8-.4 2 .7 1.8-.2-1.1-4.7-1.4-2.2-2.5-4.1-2.5-4.4 0-1.1 3.4-1.5 4.6-.5 2 1.6 2.9-1.3 1.6-5.1-1-2.8-.9-3 1.4-3 1.9 0 2.4-.5 2.4-2.5 0-1.4.9-3.3 2-4.2 1.1-1 2-2.4 2-3.1 0-1 .9-1.3 3-1 2.8.4 3.1.1 5.2-5.3 1.3-3.2 2.9-6 3.6-6.1 1-.2.6-1.1-1.2-3.1-3.1-3.4-3.3-4.1-.6-3.4 1.5.4 2 0 2-1.5 0-1.4-.5-1.8-1.9-1.3-1 .3-3.1.1-4.5-.5-3.7-1.4-3-4.2 1.3-5.4 3.2-.9 3.3-1.1 2.8-5.3-.2-2.4-.1-4.6.4-4.9 1.6-1 .9-3-2.1-6-1.8-1.8-3-3.9-3-5.7 0-1.5-.4-2.7-1-2.7-.5 0-1 .7-1 1.5 0 1.8-.5 1.8-3 .5-1.2-.7-1.8-.6-1.7.3.1 4.6-.3 5.2-3.6 5.1-3.7-.2-8.6-2.4-10.5-4.7-.8-.9-3.3-1.5-6.4-1.6-2.8 0-5.6-.5-6.2-1.1-.7-.7-.5-1 .5-1 2.8 0 1.8-6.8-1.6-10.1-3.2-3.3-4.7-3.7-4.3-1.2.2 1.1-.7 2.1-2.7 2.7-1.6.6-3.3 1.5-3.6 2-.4.5-1.1.6-1.7.2-.6-.3-1.3-.2-1.6.3-.3.5-1.5.7-2.6.4-1.4-.4-2-.1-1.8.8.2 1-.7 1.3-3.6 1.1-3.2-.3-3.8 0-3.3 1.2.4.9.1 1.6-.6 1.6-2.6 0-6.7 2.5-6.7 4.1 0 .9-.3 1.9-.7 2.3-.7.6-1.1 2.8-1.4 7.9-.1 1.6-.5 2.5-.8 2-.9-1.2-3.1-1.4-3.1-.3 0 .5-.7.7-1.5.4-.9-.4-1.5 0-1.5 1 0 1.2-1 1.6-4.3 1.6-2.4 0-4.8-.5-5.4-1.1-.7-.7-1.3-.7-1.7-.1-.4.7-1.6.6-3.4-.4-3.4-1.8-4.7-1.8-6.2.1-2.1 2.5-9.5.7-10.5-2.6-.7-2.1-2-2.5-3-.9-.3.6-1.7.7-3.1.4-1.6-.4-2.6-.1-2.9.9-.5 1.1-1.5 1.2-4.6.7-3.4-.6-4.2-.4-5.2 1.1-.7 1.1-1.8 1.9-2.5 1.9s-1 .5-.6 1.1c.3.6 0 2.2-.7 3.6-1.5 2.7-.3 5.8 2.2 5.8.8 0 1.4 1.1 1.4 2.7.1 1.7-.4 2.8-1.3 2.8-1 0-1 .5.2 2.2.9 1.2 1.6 3.2 1.6 4.4 0 1.7-.5 2-2.5 1.6-1.4-.2-2.5-.9-2.5-1.4 0-.5-.6-.6-1.2-.1-.7.4-2.3.6-3.5.4-1.3-.1-4.8.3-7.9.9-5.5 1.2-5.7 1.1-8.5-1.6-1.6-1.5-2.9-3.4-2.9-4.1 0-.7-.6-1.3-1.4-1.3-1.8 0-2.5-2.4-2.1-7 .3-4.6-.2-5.3-2.8-3.5-2 1.3-2.4 1.2-4.3-.8-1.1-1.2-3.3-4.1-4.9-6.5-1.8-2.8-3.2-3.9-3.9-3.3-1.1.9-6-3.2-4.9-4.2.2-.3.9-2.3 1.3-4.4.8-3.2.6-4.1-1.1-5.9-2-2.1-2-2.3-.3-4.3 1-1.2 2.4-2.1 3.1-2.1.7 0 1.2-.5 1-1-.1-.6.9-1.6 2.3-2.3 1.8-.9 2.6-2.2 2.8-4.5.2-1.8 1-3.6 1.8-3.9 1.8-.7 1.8-3.3-.1-5.7-1.9-2.5-1.9-3.7 0-3 1.7.7 2.1-1.1.5-2.1s-1.2-5.2.6-5.9c1.6-.6 1.6-3.5 0-8.1-.7-1.8-.6-1.8 1.2.2 2.6 2.9 6.2 3.1 6.2.3 0-1.1.5-2 1.1-2 .5 0 .7-.5.4-1-.3-.6-.2-1 .3-1 1.5 0 .1-5.3-2-7.7-1.1-1.2-1.7-2.7-1.3-3.3.4-.6.1-1.8-.7-2.7-1.1-1.4-1.1-1.7.1-2.1.8-.3 3.5-2.5 6-4.9 3.7-3.6 5.1-4.4 7.7-4.1 3.3.2 6.4-1.5 6.4-3.7 0-.7.9-1.5 2-1.8 1.7-.4 1.9-1.1 1.4-3.1-.5-2.2-.3-2.6 1.5-2.6 1.5 0 2.1-.6 2.1-2.1 0-1.1.5-4.1 1.1-6.6 1.2-4.4 1.3-4.5 4.5-4 1.9.3 3.6.1 4-.4.3-.5 1.4-.7 2.4-.4 1.2.4 2.9-.6 5.3-3 1.9-1.9 4.4-3.5 5.6-3.5 1.4 0 1.9-.5 1.5-1.5-.4-.9.7-3 2.5-5 1.7-2 3.1-4.5 3.1-5.5 0-1.1.6-2 1.4-2 1 0 1.4-1.1 1.1-3.9-.1-2.1-.6-4.4-1-5.1-.4-.7-.2-1.6.4-2 2.3-1.4 4-8.1 2.8-10.9-.9-1.9-.9-2.5.1-2.9 2.2-.7 7.2-6.6 6.8-7.9-.3-.7.4-1.5 1.5-1.8 1.6-.5 1.9-1.6 1.9-6.2 0-5.3.1-5.5 2.3-4.8 1.2.4 3.7.8 5.5.9 1.7.1 3.2.4 3.2.8 0 .5.7.8 1.5.8s1.5-.9 1.5-2c0-2.2 2.9-2.7 4.7-.9.9.9 1 .6.6-1-.4-1.7-.1-2.4 1.6-2.8 1.1-.3 2.1-.9 2.1-1.5 0-.5 1-.3 2.3.4 1.2.7 2.9 1.1 3.8 1 .9-.2 1.9.4 2.2 1.2.5 1.2 1.9 1.5 6.4 1.2 5.2-.3 6-.7 7.8-3.4 1.1-1.8 3.8-3.8 6.3-4.7 2.9-1.2 4.2-2.3 4.2-3.6 0-2.3.9-2.4 3.6-.5 1.2.9 2.6 1.1 3.4.6.7-.4 2.4-.4 3.7.1 4.8 1.8 7.8-.9 7.8-7.1.1-2.5.4-5.8.8-7.3.6-2.3 1.1-2.7 3-2.1 1.2.4 2.6 1.3 3 2 1.3 2.2 4 1.7 3.4-.5-.3-1.5.4-2.2 3.4-3.4 2.7-1.1 4-2.3 4.5-4.1.8-3.3-2-6.9-4.5-5.8-1.4.7-5.2.8-9.7.3-1.1-.1-2-3.1-2.8-9.9-.3-1.9-1.2-4.2-2.1-5.2-.9-1-1.4-2.3-1.1-2.9.4-.5-.3-1.5-1.5-2.1-1.7-1-2-1.9-1.7-5.2.3-3.7.1-4.1-3.4-5.9-5.4-2.8-7.4-6.1-6.1-10.4.6-1.8.7-3.7.2-4.2-.4-.4.5-2.6 2-4.9 3.2-4.6 3.6-11 .8-12.6-1.3-.7-1.5-1.9-1-5.8.4-3.4.2-5-.6-5-1.3 0-1.5-5.6-.2-6.5.5-.3.8-2.8.6-5.5-.3-3.4 0-5 .8-5 .7 0-.1-1.2-1.7-2.6-2.7-2.4-2.9-2.9-1.8-5.6.7-2 .8-3.7.2-4.9-1.3-2.4-5-3.5-6-1.8-.7 1-1.1 1-2.4 0-.9-.8-1.6-1.1-1.6-.8 0 .3-1.5.1-3.4-.3-2-.4-3.9-.3-4.4.2-.5.5-2.1.6-3.6.2-1.9-.5-2.6-1.2-2.6-3.1 0-2.2.2-2.4 1.6-1.2 2.3 1.9 4.6 2 6.6.3 1-.9 2.5-1.3 3.6-1 1.6.5 2.2 0 3-2.4 1.1-3 3.2-4.1 3.2-1.7 0 2.1 3.7 5 5.5 4.3.9-.3 2.9.4 4.5 1.6 2.1 1.5 3.3 1.8 4.2 1.1.7-.6 3.9-.9 7.1-.8 3.1.1 5.7-.2 5.7-.6 0-1.5 4.7-1 6.1.7.8 1 2.6 1.4 5.3 1.2 4.5-.3 4.2-.8 3.3 7.4-.2 2.1-1 4.4-1.7 5.3-1 1.2-1 1.5.4 1.5.9 0 1.6-.7 1.6-1.6 0-.9.5-1.3 1.3-1 .6.3 2 .9 3 1.2.9.4 1.7 1 1.7 1.4 0 1.6 3.5 1.6 5.3.1 1.4-1.1 2.2-1.2 3.5-.5 2.3 1.5 3 4.9.8 4.1-1.8-.7-4.6.1-4.6 1.3 0 .5 1 .6 2.3.2 2-.5 2.1-.4.8 1.1-1.2 1.5-1.2 1.7.3 1.1 1-.4 1.6-.1 1.6.7 0 1 .3 1 1.1.2.6-.6 1.7-.9 2.5-.6.7.2 1.9-.8 2.9-2.6 1.5-2.9 1.4-3.2-.5-4.8-1.1-1-2-2.4-2-3.2 0-.8.3-1.2.6-.8.9.9 4-2.4 4.8-5.1.4-1.2 1.4-2.2 2.1-2.2.9 0 1.2-.6.9-1.5-.4-1 0-1.5 1.3-1.5 1 0 2.3-1 2.8-2.3.9-1.8.5-3.2-2.1-7.5-1.8-3-4.1-6-5.2-6.8-1.5-1-2.3-3.4-3.3-10.1-1.3-8.7-1.3-8.9-6.3-13.5-4.4-4.1-4.8-4.8-2.8-4.8 2.4 0 2.4-.2 2.2-9.5-.1-3.3-.8-7-1.6-8.3-1.9-3-1-4.2 3.1-4.2 1.9 0 3.6-.4 4-.9.3-.5 1.9-1.2 3.5-1.6 1.7-.4 3-1.3 3-2.2 0-.8 1.1-2.4 2.5-3.4 2.1-1.7 2.3-2.3 1.3-4.5-.9-2-.9-3 .1-4.5.6-1.1.9-2.8.6-3.8-.3-1 .1-2.4 1-3.1 1.7-1.4 2-4.6.6-5.5-.5-.3-1.2-.1-1.6.5-.9 1.4-6.8 1.3-8.3-.2-.7-.7-1.2-2.1-1.2-3.1 0-1.6-.5-1.8-3.2-1.4-1.8.2-4.5-.2-6-.9-1.7-.9-2.9-1-3.3-.4-.3.6.4 1 1.7 1 2.1 0 2.1.1.6 1.7-1.4 1.4-2 1.4-3.3.3-.9-.7-1.3-2-1-2.8.3-.8 0-2.2-.7-3-1.1-1.3-1-1.5.4-.9 2.8 1 3-.9.2-2.3-3.6-2-5.1-.1-3.1 3.8 1.4 2.9 1.2 8.2-.4 9.2-.4.3-.1 2 .8 3.8 1.2 2.5 1.3 3.6.4 4.5-1.6 1.6-1.4 10.3.3 12 1.6 1.6.4 3.7-2.2 3.7-1 0-1.2.6-.7 1.7 1.9 4.4 1.7 7-.4 7.6-1.3.3-2.1 1.3-2.1 2.8 0 2.1-.1 2.1-1.9.5-1.5-1.4-2.4-1.5-3.9-.7-1.7.9-2.5.5-5.1-2.4-1.7-2-3.1-4.6-3.1-6 0-1.6-.7-2.6-2.2-3-3-.9-9.5-7.9-8.9-9.6.2-.8-.2-1-1.5-.5-4.7 1.8-7.7 1.9-8.6.3-.5-1-1.5-1.7-2.2-1.7-.8 0-2.1-1.2-3.1-2.6-1.9-3-2.9-8.4-1.5-8.4 1.6 0 1.1-4.2-.7-6.2-1.5-1.7-1.5-2-.3-2.8 2-1.3 4.7-1.2 5.5 0 .5.8 1.1.7 2.1-.1 1.1-.9 1.8-.9 2.9.1 1.4 1.2 1.4 1.5 0 3-.8.9-1.2 2-.8 2.3.8.9 3.3-1.2 3.3-2.9 0-.7.9-1.8 1.9-2.3 1.6-.9 1.8-1.6 1.1-4.8-.7-2.8-.5-4.2.6-5.4 1-1.2 1.3-2.8.8-5.6-.5-3.6-.3-4.2 2.2-6.2 2.1-1.7 2.9-3.2 3-5.6.1-3.5-2.3-5.7-3.6-3.4-.6.8-.9.8-1.5-.1-.4-.6-1.7-1-3-.8-2.9.4-5.5-1.8-5.5-4.7 0-2.4-2.2-4.9-3.3-3.8-1 1-3.7-1.8-3.7-3.8 0-1.7.5-1.8 3.9-1.3 4.2.7 7-1.3 3.2-2.3-2.9-.7-3.8-4.3-1.5-6 1.1-.8 2.9-1.6 4.2-2 1.5-.3 2.2-1.3 2.2-2.9 0-1.3.5-2.4 1.1-2.4.7 0 .5-1-.5-2.5-.9-1.4-1.4-3-1.1-3.5.6-.9-.8-1.4-2.7-1.1-.5 0-.8-.5-.8-1.3 0-.9.7-1.2 2-.9 1.3.4 2 0 2-1 0-.8 1.3-2 2.9-2.7 2.3-.9 3-2 3.5-5.1.4-2.6 1.1-3.9 2.2-3.9 1 0 1.4-.6 1.1-1.4-.3-.8.2-1.6 1.4-1.9 1-.3 1.9-1.3 1.9-2.2 0-1 .4-1.3 1.3-.8 1.5.9 5.9.5 7.2-.8 1-1 4.4 3.8 7.6 10.9 2.3 5.2 2.3 5.2.4 5.2-.8 0-1.5.6-1.5 1.4 0 1.6 4 1 5.3-.8.5-.7 1.3-.4 2.5 1 1 1.1 2.3 1.9 3 1.6.6-.2 1.5.4 1.8 1.2.5 1.4.9 1.3 2.6-.6 1.1-1.3 2.6-3.2 3.4-4.2 1.1-1.6 1.6-1.7 2.8-.6 2.2 1.8 3.1-1 1.7-5.2-.6-1.7-.9-4.6-.5-6.4.6-3.3-1.7-8.4-4-8.4-.6-.1-2.7-1.4-4.6-3-2.7-2.3-3.1-3.3-2.2-4.2.7-.7 1.2-2 1.2-3s.6-2.1 1.3-2.3c.6-.3 1.3-1.9 1.4-3.5.1-1.7-.1-2.9-.5-2.7-.4.3-2.7-1.1-5.2-2.9-2.5-1.9-5.6-4-7-4.6-1.4-.7-2.7-1.5-3-1.8-.3-.3-1.6-.5-2.9-.5-1.8 0-2.5-.6-2.8-2.4-.4-2.9-.4-3-2-2.4zm-127.6 169.5c-.3.8-.6.5-.6-.6-.1-1.1.2-1.7.5-1.3.3.3.4 1.2.1 1.9zm1.3 5.9c0 .5-.7.9-1.5.9-1.5 0-2-1.2-.9-2.3.8-.8 2.4.1 2.4 1.4zm22.9 7.5c2.6 3.3 2.7 4.8.2 3.2-2.2-1.3-4.6-5.8-3.2-5.8.5 0 1.9 1.2 3 2.6zm98 36.8c1 1.2.8 1.3-.8.9-1.2-.3-2.1-.9-2.1-1.4 0-1.4 1.6-1.1 2.9.5zm24.6 1.8c.1 1.5.4 3 .8 3.4 1.5 1.5.7 4.4-1.2 4.4-1.1 0-2.1.5-2.3 1-.2.6-1.8-.2-3.6-1.7l-3.3-2.8 3.3-3.8c3.7-4.3 6.3-4.5 6.3-.5zm-12.5 6.8c0 .5-.2 1-.4 1-.3 0-.8-.5-1.1-1-.3-.6-.1-1 .4-1 .6 0 1.1.4 1.1 1zm-39 75c0 .5-.2 1-.4 1-.3 0-.8-.5-1.1-1-.3-.6-.1-1 .4-1 .6 0 1.1.4 1.1 1zm-39 1c0 .5-.2 1-.4 1-.3 0-.8-.5-1.1-1-.3-.6-.1-1 .4-1 .6 0 1.1.4 1.1 1zm-111.3 4.6c-.3.3-1.2.4-1.9.1-.8-.3-.5-.6.6-.6 1.1-.1 1.7.2 1.3.5zm85.3 29.4c0 1-4.9 1-5.5 0-.3-.5.2-1.8 1.2-2.8 1.7-1.8 1.8-1.8 3 .2.7 1.2 1.2 2.3 1.3 2.6zm21.9 0c.7 2.3 1.6 3 3.5 3 2.3 0 2.5.3 2 3-.5 2.5-.2 3.1 2 4.1 1.4.7 2.6 2 2.6 2.9 0 .9.7 2.5 1.5 3.6 2.4 3.2 1.8 4.4-2.3 4.4-2.6 0-4.1-.6-5-2-.7-1.2-2.3-2-4-2-1.6 0-3.7-.6-4.7-1.4-1-.7-2.7-1.1-3.8-.8-2.6.7-3.7-1.4-3.7-7.5 0-4.3.3-5.3 2-5.8 1.1-.3 2-1.1 2-1.6s.9-.9 1.9-.9c1.1 0 2.3-.5 2.6-1 1.1-1.8 2.3-1.1 3.4 2zm-36.4 1.1c.4.6.5 1.2.2 1.5-.7.7-3.7-.7-3.7-1.7 0-1.3 2.7-1.1 3.5.2zm17.8 1.9c.6 2.3-1 3.7-2.4 2.3-1-1-.2-4.3 1.1-4.3.4 0 1 .9 1.3 2zm-50.9 16.1c-.8 1.3-2.4.1-2.4-1.8 0-1.3.3-1.3 1.5-.3.8.7 1.2 1.6.9 2.1zm12.1 3.9c.3.5.1 1-.4 1-.6 0-1.1-.5-1.1-1 0-.6.2-1 .4-1 .3 0 .8.4 1.1 1zm62.5 14.4c0 1.6-2.8 1.8-5.9.3-2.4-1.2-2.4-1.2 1-1.8 3.9-.6 4.9-.3 4.9 1.5zm-202 207.6c0 .5-.4 1-.9 1-.6 0-1.3-.5-1.6-1-.3-.6.1-1 .9-1 .9 0 1.6.4 1.6 1zm.4 157.5c.4 1-.1 1.5-1.6 1.5-1.7 0-1.8-.2-.8-1.5.7-.8 1.4-1.5 1.5-1.5.2 0 .5.7.9 1.5zM459.664 5.473c-.9.6-1 1.1-.2 1.5.6.4.9 1.2.6 1.7-.3.5-.2 2.5.4 4.4.5 2 .6 3.7.1 4-.5.3-.7 1.2-.4 2 .4.8 1 1.3 1.4 1 .4-.3 1.4.2 2.1 1.1.7.9 2.2 2 3.4 2.5 1.1.5 2.8 1.5 3.8 2.1 2.4 1.8 5-.1 5.8-4.2 1-4.6-.5-8-3.3-8-3.2 0-5-1.4-4.3-3.1 1.1-3-6.3-7-9.4-5z"/><path d="M552.564 135.073c0 .8.4 1.5.8 1.5.5 0 .9-.7.9-1.5s-.4-1.5-.9-1.5c-.4 0-.8.7-.8 1.5zM381.264 146.273c-1.2 1.1-.8 2.3.8 2.3.9 0 2.6.7 4 1.6 1.8 1.2 2.8 1.3 4.4.5 1.6-.9 2.1-.7 2.6.9.4 1.1 1.1 1.8 1.6 1.4.5-.3.6-1 .3-1.6-.5-.7-.1-.9.9-.5 1.2.4 1.4.2 1-1.1-1.2-3.1-3.4-4-7.6-3-2.6.6-4.4.5-5.1-.2-1.2-1.2-2-1.3-2.9-.3zM406.164 148.373c-.3.6-.1 1.4.5 1.7 1.5 1 2.5-.3 1.2-1.6-.7-.7-1.3-.7-1.7-.1zM648.664 215.473c-.7.5-1 1.4-.7 2 .4.6 0 1.1-.8 1.1-1 0-1.6.9-1.6 2.4 0 3-1.6 3.6-9.2 3.6-3.9 0-6.4.5-7.4 1.5-1.2 1.2-1.2 1.5-.2 1.5s.9.3-.2 1c-1.2.7-1.2 1.2.4 2.9 1.6 1.8 1.7 2.5.8 4.7-.7 1.3-1.2 3.4-1.2 4.6 0 1.2-.8 3-1.7 4.1-1.7 1.8-1.6 2 3 6.3 2.6 2.5 5.1 4.3 5.6 4 1.3-.9 7.8 2.1 8.4 3.9.4.8 1.3 1.5 2 1.5.8 0 2 .6 2.6 1.4.9 1 2 1.2 4.2.6 1.6-.5 2.9-.6 2.9-.2 0 .4.5 0 1-.8s1-3.4 1-5.7v-4.2l3.6.4c1.9.3 4.4 1 5.4 1.5 2.4 1.3 6 1.3 6 0 0-.6-.9-1-1.9-1-2.3 0-3.7-1.6-1.9-2.2.9-.3.4-1.5-1.5-3.7-3.2-3.9-3.2-4.1-.7-8.6 1.1-1.9 1.7-3.5 1.3-3.5-.4 0-.2-.5.4-1.1 1.4-1.4.6-3.9-1.3-3.9-.8 0-2.2-.9-3.1-2-1-1.1-2.2-2-2.9-2-.6 0-1.6-1.1-2.2-2.5-1-2.1-.9-2.5.4-2.5s1.1-.5-.7-2.5c-2.5-2.6-4.9-3.3-4.9-1.3 0 .7-.7.5-1.8-.5s-2.3-1.3-3.1-.8zM464.064 243.573c-.4.6-.4 1-.1 1 .2 0 1.1.3 2 .6.9.3 1.6.2 1.6-.4 0-1.4-2.8-2.3-3.5-1.2zM676.064 247.473c-2.7.6-3.2 1.2-2.6 3.9 0 .4 1.9.7 4.2.5 3.3-.2 4.6.3 6.7 2.5 1.4 1.5 2.2 2.1 1.8 1.4-1-1.6 2.3-2.9 3.4-1.3 1 1.8 6 4.2 7.1 3.5 3.4-2.1 5.3 7.2 2.3 11.4-.9 1.4-1.4 3.3-1 4.7.3 1.3.2 2.5-.3 2.7-.5.2-.2 2 .6 4.1 1 2.4 2.1 3.6 2.9 3.3.7-.3 2.6-.1 4.2.3 3.3 1 6.2-.6 6.2-3.5.1-1.6.5-1.4 2.4 1 1.3 1.6 2.9 2.5 3.5 2.2.6-.4 1.8 0 2.7.9 1.5 1.4 1.7 1.4 3-.2 1.5-2 1.8-3.7.5-2.9-.7.5-3.1-3.4-3.1-5.1 0-1.1 7.5 1 9.8 2.8 3.1 2.4 7.8 2.5 9.2.1.9-1.6 1.1-1.6 2 0 1.2 2 4.7 1.3 5.5-1.3.3-1 1.4-2 2.3-2.3.9-.3 1.8-1.6 1.8-2.9.2-2.1-.2-2.4-2.7-2.1-1.5.2-3.1-.1-3.4-.6-.4-.6-1-.8-1.5-.5-.4.3-2.1-.2-3.6-1-1.6-.8-3.7-1.5-4.6-1.5-1.3 0-1.8-.8-1.8-2.6 0-2.1-.3-2.4-1.3-1.5-1.7 1.4-4.7-1.6-5-4.8-.1-1.1-.5-2.1-.9-2.1-.5 0-2.3-1.6-4-3.5-2.8-3.3-3.2-3.4-4.8-2-2 1.8-6.1 2-7.8.3-.9-.9-1.2-.6-1.2 1.5 0 3.6-3.1 3.6-7.2.1-1.8-1.4-4-2.4-5.3-2.2-1.2.1-3-.5-3.9-1.5-1.9-1.8-4.1-2.4-3.1-.7.8 1.3-5.1.8-8-.6-1.1-.6-3.3-.8-5-.5zM591.564 255.573c0 1.1.6 2 1.4 2 2.1 0 3.1-2.1 1.5-3.1-2.2-1.4-2.9-1.1-2.9 1.1zM754.664 266.873c-1.4 1.7-.4 4.7 1.5 4.7 1.5 0 1.8-2.8.5-4.8-.6-1-1-1-2 .1zM595.164 331.973c-1.6.8-2.4 1.6-1.8 2 .6.3 1.3.2 1.7-.4.3-.6 1.8-.7 3.3-.3 2.4.6 2.6.5 1.3-1-.7-1-1.4-1.7-1.5-1.6 0 0-1.4.6-3 1.3zM589.364 335.773c-1 1-1.4 1.8-.9 1.8 1 0 3.6-2.9 3-3.4-.2-.1-1.2.6-2.1 1.6zM346.064 349.273c-.8.8-1.5 1.9-1.5 2.4 0 .6-1.3 1.5-3 2-1.6.6-3 1.5-3 2.1 0 .5.4.7.9.3.5-.3 1.2.4 1.6 1.5.4 1.3 1.5 2 3.1 2 2.1 0 2.4.3 1.9 2.1-.5 1.4-.3 1.9.3 1.5 1.2-.7 5.6 5 4.8 6.2-.3.5.8 2.4 2.4 4.2 2.4 2.7 3 3 3 1.5s.6-1.1 2.4 1.5c2.3 3.4 2.5 5 .5 5-.6 0-.7-.5-.3-1.2.4-.7.3-.8-.4-.4-.8.5-.8 1.5-.1 3.4.7 1.9.7 2.8-.1 3-.7.3-.5 1.1.7 2.4 1.6 1.8 1.7 2.1.1 3.2-1 .7-1.3 1.7-.9 2.4.5.9 1.3.6 2.6-1.2 1.4-1.9 2.5-2.3 4.5-2 4.3.9 6.4-2.4 6.3-9.9-.1-3.5.2-7 .7-7.7.6-1 .3-2.1-.7-3.2-1.5-1.7-1.5-1.8.2-1.8 1.6 0 1.6-.2.1-2.5s-1.5-2.4.1-1.9c1.2.4.8-.2-.9-1.7-1.5-1.3-3.6-4.2-4.7-6.4-1.2-2.2-2.1-3.6-2.1-3.1s-.7.2-1.6-.5c-.9-.7-2.9-1.2-4.4-1.1-1.6.2-4.7-.6-6.9-1.6-3.7-1.8-4.3-1.9-5.6-.5zM566.564 368.573c0 .6-.4.8-1 .5-.5-.3-1 .1-1 .9s.5 1.8 1 2.1c.6.3 1 .1 1-.6s.8-.6 2.4.4c2.2 1.5 2.5 1.5 4-.2 1.6-1.8 1.5-1.9-.8-2.5-1.3-.3-3.1-.9-4-1.2-.9-.3-1.6-.1-1.6.6zM524.564 381.773c-1.4.5-3.9.7-5.7.5-2.4-.4-3.5-.1-4.5 1.5s-2.5 2.2-5.5 2.2c-2.8.1-3.9.5-3.6 1.3.3.7 1.2 1.3 2 1.3.9 0 3.7 2.2 6.3 5 2.6 2.7 5 5 5.4 5 .3 0 .6-1.4.6-3.2v-3.1l2.6 2.4c3.2 2.9 5.3 7 5.6 10.4.3 2.8 1.7 3.4 1.9.7.1-.9.1-2.1 0-2.6-.1-.4.3-1.3.8-2 .6-.7.5-2-.3-3.5-1.1-1.9-1.1-2.9.1-5.3.8-1.6 1.2-3.4.8-4.1-4-7.6-3.9-7.5-6.5-6.5zM503.564 383.573c0 .5.5 1 1.1 1 .5 0 .7-.5.4-1-.3-.6-.8-1-1.1-1-.2 0-.4.4-.4 1zM374.564 390.773c0 .9.7 1.9 1.6 2.2 1.5.6 1.5.4.3-1.1-.7-1-1.5-2-1.6-2.2-.2-.2-.3.3-.3 1.1zM347.164 395.873c-1.6 1.2-1.8 2.2-1.2 7 .4 3.1 1.2 5.9 1.7 6.3 1.6.9 3.9-1.6 3.9-4.2 0-1.8.6-2.4 2.1-2.4 1.8 0 2-.4 1.4-2.8-.3-1.5-.9-3-1.3-3.3-1.6-1.5-4.9-1.8-6.6-.6zM339.764 402.973c1 .7 1.5 1.5 1.3 1.8-.3.3-.1 1.6.4 2.9.7 2.1.9 1.8.9-1.9.1-3.7-.2-4.2-2.1-4.2-2 .1-2.1.2-.5 1.4zM333.764 411.273c-.8 1.8-.9 3-.2 3.7.7.7 1 .4 1-.7 0-.9.3-1.6.8-1.5.4 0 1.5-.2 2.5-.7 1.4-.6 1.5-1 .6-2.1-1.7-2.1-3.3-1.7-4.7 1.3zM527.164 409.673c.4.8-.4.9-2.7.5-3-.5-3.2-.5-1.1.6 1.2.6 2.3 1.9 2.3 3 .1 1 .2 2.4.3 3 .1.7-.7 2.3-1.8 3.5-1.6 2-1.7 2.3-.3 2.3.9 0 1.7 1 1.9 2.2.2 1.8.9 2.2 2.7 2 1.3-.1 4.4.9 6.8 2.4 3.4 1.9 4.2 2.9 3.3 3.8-.7 1-.6 1.7.5 2.6 1.3 1 1.5.9 1.5-.9s.6-2.1 4-2.1c2.2 0 4.3 0 4.7-.1.4 0 .9.4 1.1 1 .2.6-.4 1.1-1.3 1.1-1.4 0-1.5.3-.5 1.5 1.4 1.7 4 .3 4-2.1 0-.8.2-1.4.5-1.4 1.2 0 8.5 3.6 8.5 4.2 0 1.7 3.4 3.8 5.4 3.3l2.1-.6-2.2 1.9-2.2 1.9 2.2 2.1c1.2 1.1 3.7 2.3 5.5 2.7 1.7.3 3.2 1.1 3.2 1.6s.5.9 1.1.9c.6 0 .9-.7.5-1.5-.3-.8-.1-2.7.5-4.1.8-2.2.6-2.9-.9-4-1.3-.9-1.7-2.2-1.5-4.1.3-2-.2-3.4-1.6-4.7-1.9-1.7-2.1-1.8-2.1-.2 0 .9-.4 1.4-1 1.1-.5-.3-1-.2-1 .3s-.6.9-1.4.9c-.8 0-1.4-.8-1.3-1.8.1-1 .5-1.5.9-1.3 1.4.9.8-.9-.9-2.8-1.1-1.2-1.6-3.2-1.5-5.2.4-4-1.9-6.4-3.8-4.1-.7.8-2.4 1.5-3.7 1.5-1.7 0-2.3.4-2 1.4.3.7-.1 2.3-.9 3.4-1.8 2.7-6.5 2.3-8-.6-.6-1.2-2.3-3.3-3.7-4.6-1.5-1.4-2.7-3.3-2.7-4.3 0-2.2-3.7-4.8-4.2-3.1-.3.7-1.4.9-3.1.4-1.5-.3-2.5-1.1-2.2-1.6.3-.5-.3-1.4-1.4-1.9-2.5-1.4-3.4-1.4-2.5 0zm40.8 27.4c-.7 1.7-2 2-2.9.6-.3-.5.3-1.2 1.2-1.4 1-.3 1.9-.5 2-.6.1 0 0 .6-.3 1.4zM349.564 414.073c0 .8.2 1.5.4 1.5s.6-.7 1-1.5c.3-.8.1-1.5-.4-1.5-.6 0-1 .7-1 1.5z"/><path d="M547.264 437.273c-.4.3-.7 1.1-.7 1.7 0 .6.5.5 1.2-.2.6-.6.9-1.4.7-1.7-.3-.3-.9-.2-1.2.2zM565.264 450.173c-.4.4-.7 1.7-.7 2.8.1 1.9.1 2 1.1.3 1.1-1.9.8-4.3-.4-3.1zM573.764 452.573c0 1.4.2 1.9.5 1.2.2-.6.2-1.8 0-2.5-.3-.6-.5-.1-.5 1.3zM82.564 580.773c.5 2.4.6 4.7.3 5.2-.4.5-.1.6.5.2.7-.4 1.2-.2 1.2.3 0 .6-.5 1.1-1.1 1.1-.7 0-.9 1-.7 2.4.4 1.8-.2 2.8-2.3 4-1.5.9-3.4 1.6-4.2 1.6-2.3 0-2.6 2.2-.6 5.1 1.5 2.1 1.6 3.3.8 6.7-.5 2.4-.6 5.4-.3 6.7.5 1.9.2 2.5-1 2.5-.9 0-1.6.4-1.6.8 0 1.7 1.3 2.1 3.1.9 2-1.3 2.5-4.2.9-5.2-2.3-1.5-.8-2.6 2.7-1.9 3.1.6 3.5.4 3-1-.9-2.3.2-4.6 2.3-4.6 1 0 2-.7 2.4-1.5.3-.8 1.3-1.5 2.2-1.5 1.3 0 1.5-.9 1.2-4.5-.1-2.4.1-4 .5-3.6.9.9 6.9-1.7 7.5-3.2.2-.4 1.9-.7 3.8-.7 2.9 0 3.4-.3 3.4-2.3 0-1.3.5-2.8 1.1-3.4 1.4-1.4.3-3.3-1.9-3.3-1.5 0-1.5-.2-.2-1 1.2-.8 1.1-1-.5-1-1.2 0-2.7-.6-3.3-1.2-1-1-1.7-1-3.3 0-1.3.9-2.5 1-3.2.4-1.8-1.5-9.5-2.3-10.3-1.1-.4.7-1 .6-1.9-.1-1-.8-1.1-.2-.5 3.2zM109.564 581.573c0 .5.4 1 .9 1 .6 0 1.3-.5 1.6-1 .3-.6-.1-1-.9-1-.9 0-1.6.4-1.6 1zM67.364 596.173c.5 1 1.7 1.9 2.6 2 2.2.3 2-.1-1-2.1-2.5-1.6-2.5-1.6-1.6.1zM270.564 602.073c0 .8 0 1.8-.1 2.2-.2 2.1 1.9 1 2.3-1.2.4-1.7.1-2.5-.8-2.5-.8 0-1.4.7-1.4 1.5zM77.564 627.473c0 .5.7 2.8 1.5 5.1 2.1 6 2 8.3-.4 7.5-1.5-.5-2.4.1-3.6 2.4-.8 1.7-2 3.1-2.4 3.1-.5 0 .2 2.1 1.5 4.6 1.3 2.5 2.1 5 1.8 5.6-.9 1.5-1 10.8-.1 10.8 1.3 0 .8 3-.7 3.6-1.6.6-.3 5.2 2.7 9.4.9 1.3 1.7 3 1.7 3.7 0 .7 1.6 3 3.5 5.2 3.9 4.2 4.3 6.5 1.9 9.2-1.6 1.8-1.7 1.7-3.6-.7-1.1-1.4-2.7-2.3-3.4-2-1.8.7-1.8-.9-.1-2.6 1.6-1.6 1.1-8.3-.8-9.8-1-.9-1.6-.6-2.5.9-.6 1.3-2.1 2.1-3.5 2.1s-2.5.5-2.5 1.1c0 1.3-2 3.3-4.2 4.2-1.1.4-1.8 1.7-1.8 3.2 0 3-2.5 3.4-3.3.4l-.6-2.1-3 2.3c-1.7 1.3-3.1 2.6-3.1 3 0 .4-1.3.2-3-.4-3.2-1.2-3.7-2.6-1.8-4.5.9-.9.7-1.2-1.2-1.2-1.3 0-3.2-.7-4.2-1.7-1.9-1.7-2.6-.5-.7 1.4.9.9.6 2.1-1 4.8-1.1 2-2.1 4.3-2.1 5.1 0 .8-.4 1.2-1 .9-1.3-.8-1.3-.2.1 2.9 1 2.2.9 2.8-1.2 4.6-1.3 1.1-3.4 1.9-4.6 1.7-1.9-.4-2.1-.1-1.2 1.4.5 1.1 1.4 1.9 1.8 1.9.5 0 1.1.9 1.4 2 .5 2 2.7 2.8 2.7 1 0-.5.7-.7 1.5-.4 1 .4 1.5 0 1.3-1.2-.3-3.8.2-5.4 1.7-5.4 2.3 0 3 2.8 1.2 4.8-.8.9-1.8 3.4-2.1 5.5-.6 3-.3 4.3 1.3 6.4 1.2 1.4 2.1 3.2 2.1 3.9 0 1.4 5.7 6 7 5.7.4-.1 2.3 1.5 4.3 3.5 2.5 2.6 3.7 4.8 3.9 7.2.4 4.4 1.2 5 7.1 5 4 0 4.9.4 5.9 2.4.8 1.9 1.7 2.4 4.2 2.3 1.7-.2 3.6-.6 4.2-1 .7-.4 1.5 0 1.8.9.5 1.3.9 1.4 2.1.4.8-.7 2.6-1 4-.6 1.8.5 2.5.2 2.5-.9 0-.9.7-1.4 1.8-1.2 3.5.6 5.9 2.7 7.7 6.7 1.1 2.4 2.4 3.9 3.1 3.6 1.7-.6 1.3 8.6-.4 10.7-.9 1-1 1.7-.2 2.2 1.4.9 1.3 3.8-.2 3.2-.7-.2-1.3-1-1.3-1.8s-1-1.5-2.3-1.7c-2.1-.3-2.1-.2-1 2.3.9 2.1.9 3.1-.1 4.7-1 1.7-.9 2 .8 2.5 2.6.7 4.2 5.4 3.1 9.2-1 3.6-5 9.1-6.6 9.1-.6 0-2.2 1.6-3.5 3.5-1.3 1.9-2.9 3.5-3.5 3.5-1.9 0-3.4 2.4-2.4 4 .7 1.2 1.4 1.1 4.7-.2 4.2-1.8 9.8-2.2 12.3-.8 1.1.6 2.1.5 2.7-.1.8-.8 1.3-.4 1.8 1.1.6 1.9 1.2 2.1 4.4 1.6 3-.5 4.4-.1 7.1 1.9 1.9 1.4 4.4 2.5 5.5 2.5 1.2 0 3.7.5 5.6 1.1 1.9.6 4 1.3 4.8 1.5 1.1.4.9 1-.8 2.8l-2.1 2.3 2.5 1.3c1.9 1 2.2 1.6 1.4 2.7-.9 1-.5 1.3 2 1.3 3.4 0 4.1-1.3 1.4-2.9-1.6-.9-1.6-1.2-.3-2.1.8-.5 2.6-1 4-1l2.5-.1-2.7-1.5c-1.6-.8-2.8-1.9-2.8-2.4 0-1.7 3.9-1.1 4.9.7.9 1.6 1 1.6 1.1-.5 0-1.2.4-2.2.9-2.2.4 0 .6-1.1.3-2.5-.6-3.5.7-3.1 1.9.5.6 1.6 1.7 3 2.5 3s1.4.4 1.4.8c0 .5 2.1 1.3 4.8 1.8 3.2.6 5 1.5 5.6 2.9 1 2.3 5 5.6 7.2 5.9.8.1 1.9.7 2.5 1.3.8.8.1 1.4-2.5 2.3-3.5 1.1-3.5 1.2-2 3.6.9 1.3 2.1 2.4 2.6 2.4.6 0 .5-.6-.2-1.5-1-1.2-.9-1.5.7-1.5 3.2 0 7.4-6.2 5.3-7.5-1.5-.9-1.2-4.5.6-6.2.9-.9 3-1.8 4.8-2 3.3-.3 5.2-2.1 6.7-6.4 1.3-3.6 5.4-2.9 6.8 1.2.5 1.6.6 2.9.2 2.9-.5 0-1.4 1.4-2.1 3.1-1.2 2.8-1.1 3.2 2 6.4 3.4 3.5 7.4 4.9 10.1 3.4 1.2-.6 2.1-.4 2.9.6.7.8 1.6 1.2 2.1 1 .4-.3 1.6.6 2.5 2 .9 1.4 2.3 2.4 3 2.1.9-.3 1.3.1 1.1 1.4-.4 3.9 1.7 2 3.1-2.7.7-2.6 1.9-6 2.7-7.5 1.1-2.3 1.1-3-.6-5.8-1.1-1.8-1.7-4-1.4-5.1.9-2.7-6.3-9.6-12-11.6-2.6-.8-4.9-2.3-5.2-3.2-.3-.9-1.5-2.4-2.7-3.3-1.8-1.4-1.9-2-.9-3.7 1.1-1.7.9-2.1-1.6-3.2-2.9-1.3-6.3-7.3-3.5-6.2.8.3 1.4 0 1.4-.6 0-.7-1.3-1.7-3-2.2-1.6-.6-3-1.5-3-2s-.9-.9-2-.9c-2.3 0-2.7-2.8-.5-3.6 2.7-1.1 1.6-1.9-2.3-1.9-5.3.1-7.4-.5-6.8-2.1.3-.7.1-1.6-.3-1.9-.5-.3-.7-1.4-.4-2.5.3-1-.2-2.6-1.1-3.5-.9-.9-1.6-2.3-1.6-3.1 0-.8-.8-1.4-1.9-1.4-1 0-2.9-.8-4.2-1.8-3.1-2.4-10.5-5.3-11.3-4.5-.4.4-.5-.3-.3-1.5s.9-2.8 1.5-3.4c.7-.7 1.2-2.1 1.2-3.2 0-1.8.1-1.8 2.5.4 1.4 1.3 2.5 1.8 2.5 1.2 0-1.8 5.1-1.4 7.2.5 1 .9 1.8 1.1 1.8.5 0-.6-.4-1.4-1-1.7-.6-.4-.5-1.4.3-2.7 1-1.6.9-2.2-.1-2.5-1-.4-.9-.9.4-2.4 1-1.1 1.2-1.9.6-1.9-.7 0-1.2-.4-1.2-1 0-.5 1.9-.9 4.2-.7 3.2.1 4.3-.2 4.4-1.3 0-.8.2-2.9.3-4.5l.3-3 .8 2.7c1 3.3 3.9 6.5 6.4 6.9 2.5.5 4.6 4 2.9 4.6-.7.3-1.3 1.1-1.3 1.8 0 .8-1 2-2.2 2.6l-2.3 1.2 3 1.3c1.7.7 4.9 1.3 7.2 1.4 3 0 4.9.7 6.9 2.5 3.1 2.8 5.4 3.2 5.4.9 0-.9.5-1.2 1.1-.8.9.5 1-.1.5-2.1-.7-2.6-.6-2.7 1.1-1.4 1 .8 2.1 1.8 2.4 2.3.4.5 1.7.9 3 1 1.5.1 2.8 1 3.4 2.3.5 1.3 1.3 2.3 1.7 2.3.3 0 2.3 1.6 4.2 3.5 3.9 3.7 5.1 4.2 6.2 2.3.5-.8 1.1-.6 1.9.6 1.1 1.5 1.5 1.5 4.1.1 1.6-.8 3.4-1.5 4.1-1.5 1.6 0 1.2-3.8-.4-4.4-.7-.3-1-1.2-.7-2.1.3-.8.2-1.5-.4-1.5-.6 0-1-2-.9-4.5.2-4.2.4-4.5 2.5-4 2 .5 2.2.3 1.6-2-.5-2-.2-2.5 1.2-2.5.9 0 2.5.7 3.5 1.6 1.6 1.4 1.8 1.4 2.4-.8 1.2-3.8 3.5-5.8 6.1-5.2 2.5.6 6.4-.3 6.4-1.5 0-.5-1.8-2-4-3.5-2.2-1.4-4-3.2-4-3.9 0-1.1-1.6-2.7-8.2-7.7-1.6-1.2-2.8-3.1-2.9-4.3 0-1.2-.3-1.6-.6-.9-.3.9-1.5.3-3.6-1.8-1.7-1.6-3.7-3-4.4-3-.7 0-2.8-1.4-4.8-3.1-1.9-1.7-3.5-2.6-3.5-2 0 2.2-5.4 1.1-8.3-1.7-2.1-1.9-2.8-2.2-2.4-1 .4 1 .4 2.5.1 3.3-.7 1.7-3.4 2.1-3.4.5 0-.6-.9-1-2-1-2.8 0-2.5 1.1 1 4.5 1.6 1.5 2.7 3.2 2.4 3.7-.9 1.4-4.6.9-6.1-1-1.3-1.5-1.3-1.5-.4.5.8 1.5.7 2.8-.2 4.7-1.3 2.3-1.5 2.4-3 .8-1.5-1.4-2-1.5-3.9-.3-1.6 1-2.3 1-2.6.2-.5-1.6-4.2-1.4-4.2.3 0 1.2-.6 1.2-2.9.3-1.6-.6-2.7-1.6-2.4-2.3.2-.7-.5-1.7-1.6-2.3-1.6-.9-2.2-.8-2.9.5-.6 1.1-1.6 1.3-3.5.9-1.5-.4-2.7-1.1-2.7-1.6s-1.1-.9-2.5-.9c-1.5 0-2.5-.6-2.5-1.4 0-2.3-5.8-3.1-8-1.1-1.2 1.1-2 1.3-2.5.6-.3-.6-1.8-1.1-3.2-1.1-1.4 0-4.3-.5-6.4-1.1-2.8-.9-4.2-.9-5.2-.1-.7.6-2.4 1-3.7.7-1.3-.2-4-.1-6.1.4-2.9.7-4.1.5-5-.5-.6-.8-1.5-1.1-2.1-.8-.5.3-1.6 0-2.4-.7-.8-.6-1.7-.9-2.1-.6-.3.3-1.7 0-3.2-.7-1.4-.7-3.4-1.1-4.4-.7-1.5.6-1.3 1 1.5 3.1 2.7 2 4.4 2.4 10.9 2.4 4.3.1 7.5.4 7.2.9-.7 1.2.8 4.8 1.8 4.2 1.7-1.1 4.7 1.4 4.2 3.5-.4 1.6-.8 1.8-1.9.9-1.1-.9-1.4-.8-1.4.5 0 .9-.6 2.5-1.2 3.7-1.1 1.7-1 2.2.5 3 1.8 1.1 1.8 1.1 0 2.8-1.7 1.7-2 1.7-5.5-.7-2-1.3-4.2-2.1-4.9-1.7-.6.4-1.4.4-1.8-.1-.3-.5-1.9-1.5-3.5-2.2-2.7-1.2-2.8-1.2-2.3 1 1 3.9-.3 6.8-2.9 6.8-3.3 0-3 1.5.6 3.7 1.7.9 3 2.1 3 2.6s1.2.7 2.6.4c1.8-.3 3.7.4 6.7 2.7 4.6 3.5 5.9 7.4 3.3 9.6-.9.7-1.6 2.1-1.6 3.1 0 2.2-1.1 2.3-5.6.7-2.7-.9-3.7-.9-5.8.5-1.4.9-3.2 1.7-4.1 1.7-.9 0-1.4.4-1.1.9 1.1 1.8-1.9 3.8-4.9 3.1l-3-.6 4.5-3.3c2.5-1.8 6.6-4.3 9.1-5.6 3.1-1.6 4.5-3 4.4-4.2-.2-2.7-1.4-4.3-2.9-3.7-.7.3-1.8-.7-2.4-2.1-.9-1.9-1.9-2.5-4.4-2.5-4.7-.1-13.4-8.1-14.2-13.2-.5-2.8-1.6-4.4-4.6-6.5-2.9-2-4-3.5-4-5.4 0-2.2.5-2.7 2.5-2.7 1.4 0 2.5.5 2.5 1s.5.6 1 .3c.6-.3 1-1.7 1-3.1 0-1.5.6-2.4 1.5-2.4.8 0 1.5-.7 1.5-1.5 0-2 2.7-1.9 3.8.2.6 1 1.6 1.4 2.7.9 1.6-.6 1.5-1-1-3.6-1.6-1.7-3.8-3-5-3-1.4 0-3.2-1.4-4.8-3.7-1.5-2.1-2.7-3.2-2.7-2.6 0 .7-.7 1-1.5.7-.8-.4-1.5-.2-1.5.4 0 .5-1.1 1.3-2.5 1.6-1.6.4-2.5 1.3-2.5 2.6 0 2.7-3.7 2.6-7.1-.3-2-1.7-2.5-2.7-1.9-4.2.7-1.8.8-1.9 1.5-.3.5 1.2 1.8 1.8 4 1.8 2.9 0 3.4-.4 4-2.9.4-2 1.1-2.8 2.1-2.4.8.3 1.4 0 1.4-.6 0-.7.9-1.5 2.1-1.9 2.8-1.1 3.5-9.2 1.1-14.2-.9-1.9-1.9-6.6-2.3-10.4-.6-6.3-2.1-9.2-4.1-8-.4.2-1-1.2-1.4-3.3-.4-2.1-1.1-4.3-1.6-5-.6-.8-.3-1.5 1.1-2.3 1.8-.9 2-1.7 1.4-5.7-.5-4-.4-4.6 1-4 1.8.7 1.4-1.3-.9-4.7-1.1-1.6-1.1-2.1.4-3.2 1.6-1.2 1.6-1.3-.3-1.9-1.1-.4-3-1.1-4.3-1.6-1.5-.6-2.1-.6-1.7.1.3.5.2 1-.4 1-.5 0-1.2-.8-1.6-1.8-.7-2.4-6.5-5.3-6.5-3.3zm17.2 85.3c-.7.7-1.2.8-1.2.2 0-1.4 1.2-2.6 1.9-1.9.2.3-.1 1.1-.7 1.7zm50.8 32.9c0 .6-.4.7-1 .4-.5-.3-1-1.1-1-1.6 0-.6.5-.7 1-.4.6.3 1 1.1 1 1.6zm-36 20.9c1.2.8 1.1 1-.7 1-1.2 0-2.5-.5-2.8-1-.8-1.3 1.5-1.3 3.5 0zm70.5 36c.3.5.1 1-.4 1-.6 0-1.1-.5-1.1-1 0-.6.2-1 .4-1 .3 0 .8.4 1.1 1zm15.1 2.7c-.7.7-2.6-.7-2.6-1.9 0-.6.6-.6 1.5.2.9.7 1.3 1.5 1.1 1.7zM312.964 684.373c-1.8 1.2-2.4 4-.8 4.6.8.3 1.4 0 1.5-.7 0-.7.2-2 .4-3 .4-1.9.4-1.9-1.1-.9zM294.764 688.773c.2.8-.5 1.2-1.6 1-1.8-.3-1.8-.2-.2 1.3.9.9 1.6 2.5 1.6 3.5 0 1.1 1.2 2.7 2.6 3.7 2.1 1.3 3 1.4 4.5.5 1-.7 2.7-1.2 3.7-1.2 1.6 0 4.2-3.6 4.2-5.8 0-.4-1.5-.8-3.2-.9-4.9-.2-7-.7-9.6-2.1-1.8-1-2.2-1-2 0zM301.064 701.873c-.4 1-.5 2.1-.1 2.4 1 1 1.8-.4 1.3-2.4-.4-1.7-.4-1.7-1.2 0zM293.164 703.773c-.3 1.3-.6 2.8-.6 3.5 0 1.5 3.2 2.5 5.3 1.7 2.1-.8 1.5-5.6-.9-6.5-2.9-1.2-3.1-1.1-3.8 1.3zM302.264 706.273c-.3.5-.1 2.8.3 5.3s.8 3.7.9 2.7c0-.9.8-1.7 1.7-1.7.8 0 1.2-.5.8-1.1-.3-.6 0-1.5.7-2 1.1-.8 1-1.2-.5-2.4-2.2-1.7-3.3-1.9-3.9-.8z"/><path d="M114.864 733.073c-1 1.1-.8 1.8.8 3.7l2 2.3-.6-2.3c-.4-1.2-.2-2.2.4-2.2.6 0 .8-.7.5-1.5-.7-1.8-1.5-1.8-3.1 0zM259.364 749.873c-.7.7-2.2 1.6-3.2 2-2.6 1-1.6 1.6 1.6 1 1.6-.3 2.5-1 2.1-1.6-.4-.6 0-.8 1-.4 1 .3 1.7.2 1.7-.3 0-1.6-1.8-2-3.2-.7zM298.564 751.073c.7.8 1.7 1.2 2.2.9.6-.4.5-1-.3-1.5-2.2-1.4-3.3-1-1.9.6zM257.264 757.173c-.3.3-.3 1.2 0 2s0 2.1-.7 3c-2.2 2.5.4 4 2.8 1.6 1.5-1.5 1.7-2.3.9-3.1-.8-.8-.8-1.1.2-1.1.9 0 .8-.4-.3-1.5-1.6-1.7-2-1.8-2.9-.9zM180.764 759.173c-.7.8-.9 1.4-.5 1.4s.2.5-.5 1.2c-.9.9-1.6.7-3.1-.6-1.1-1-2.2-1.3-2.5-.8-.3.5.3 1.2 1.4 1.5 1.1.3 2.6 1.9 3.3 3.5 1.8 4.3 4.4 2.2 4.1-3.2-.4-4.6-.5-4.8-2.2-3zM263.564 759.073c0 1.8 2.4 3 4 2 .8-.5.5-1.1-.7-2.1-2.4-1.8-3.3-1.7-3.3.1zM247.564 767.273c0 .5 1.1 1.3 2.4 1.9 2 .9 2.6.9 3-.3.9-2.2.8-2.3-2.4-2.3-1.6 0-3 .3-3 .7zM31.764 779.273c-.6.3-1 .8-.7 1.2.2.5 0 2.3-.5 4.1-1.2 4.1.2 7 3.4 7 1.3 0 3.4.8 4.7 1.9 1.6 1.2 3.4 1.7 5.5 1.4l3.1-.5-4.6-4.8c-2.5-2.6-5.4-5-6.3-5.3-1-.4-1.8-1.5-1.8-2.6 0-2.2-.9-3-2.8-2.4zM62.164 784.273c-.4 1.3-1.8 2.6-3.2 2.9-1.8.5-2.2.9-1.4 1.9 1.1 1.3-.6 2.5-3.7 2.5-2.1 0-4.3 2.5-4.3 4.9 0 4 8.3 7 9.7 3.5.5-1.5.8-1.5 1.7-.2 1.1 1.5 4.9 3.8 6.1 3.8.4 0 .5-.6.2-1.3-.2-.6-.1-1.9.4-2.8.6-1.2.2-2.5-1.2-4.3-1.2-1.5-2.4-5-2.8-7.9-.6-4.2-.8-4.8-1.5-3zM322.564 783.873c0 .8.7 2 1.5 2.7.8.7 1.5 1.9 1.5 2.7 0 .8.5 1.1 1.1.7.8-.4.8-.9 0-1.7-1.6-1.6-1.3-3.1.3-1.8.7.6 2 .9 2.7.6 2.1-.7 7.4 4.4 6.1 5.7-.8.8-.8 1.7-.1 3 1.2 2.2 3.5 2.4 4.2.3.5-1.1 1.2-1.2 3.6-.4 2.4.9 3.4.8 4.6-.4 1-1.1 1.2-1.8.4-2.2-.8-.5-.8-1 0-1.8 1.5-1.5 1.4-2.7-.2-2.7-.8 0-2.2-.9-3.2-2s-2.4-2-3.2-2c-.7 0-1.3-.5-1.3-1.1 0-1-2.6-.9-13 .2-.8.1-2.3-.1-3.2-.6-1.3-.5-1.8-.3-1.8.8zM193.564 787.173c0 .8.5 1.2 1 .9.6-.3 1-1 1-1.6 0-.5-.4-.9-1-.9-.5 0-1 .7-1 1.6zM71.164 800.773c.4.6 1.1 3 1.6 5.2 1.3 6.3 1.3 6.3 2.6 7.9.9 1 1 1.7.2 2.2-.5.3-1 1.2-1 1.8 0 .8.3.7.9-.2.7-1.1 1.1-.9 2 .8.9 1.6.9 2.1 0 2.1-.8 0-.7.6.3 1.7.9 1 1.3 2.5 1.1 3.3-.2.8.5.4 1.6-1 2.5-3 2.6-3.9.5-4.7-1.4-.5-1.3-.9.7-2.5 1.5-1.2 1.8-1.8.7-1.5-2 .7-2.8-1.1-2.8-6 0-2.8-.8-4.2-3.7-6.9-3.6-3.4-6.1-4.5-4.7-2.2zM67.364 828.373c-4.3 1.3-5.5 2-4.9 3.1.6.9 1.1 1 1.5.2 1.3-2 2.9-1.2 2.3 1.1-.4 1.2-.1 2.9.6 3.7.9 1.2.9 1.3 0 .7-.7-.4-1.3-.3-1.3.3 0 1.2 7.3.2 7.8-1.1.2-.4 1.7-.8 3.4-.8 2.8 0 2.9-.2 2.3-3.3-.7-3.2-2.9-5.8-4.9-5.6-.6 0-3.7.8-6.8 1.7zM9.464 831.173c-1.3 2.5-2 2.6-6.4.9-1.1-.5-1.7-.5-1.3 0 .4.4 0 1.4-.9 2.3-1.4 1.4-1.3 1.8 1.6 4.4 3.5 3.2 5.1 3.5 5.1 1.2 0-1 .6-1.4 1.4-1.1 1.7.7 4.6-2.3 4.6-4.6s1.3-2.1 3.5.3c1 1.1 2.6 2 3.7 2 2.1 0 2.2-.1.6-3.5-1.1-2.5-2.8-3.4-2.8-1.5 0 .6-1.7.2-3.9-.9l-3.8-2-1.4 2.5zM37.064 834.873c-.9.5-2.5.7-3.5.4-1-.2-2.5.4-3.4 1.4-.9 1.1-2.4 1.9-3.3 1.9-1.7.1-1.7.1 0 1.1 1.5.9 1.7 1.8 1.2 4.5-.5 3-.3 3.4 1.5 3.4 1.1 0 2-.5 2-1.1 0-.7 1 .1 2.2 1.7 1.2 1.6 2.4 3.1 2.6 3.4.2.3 1-.4 1.7-1.4 1.4-1.8 1.6-1.8 4-.2 2.7 1.8 4.5 1.4 4.5-1 0-1.2.4-1.3 2.3-.2 1.2.7 2.5 1.1 2.8 1.1.4-.1 1.5.7 2.4 1.7 1.8 2 1.9 2 5.2-1.7 3.6-4.2 3.7-4.2 2.4-6.2-.8-1.2-1.2-1.2-2.4-.2-1.3 1-1.9.7-3.8-1.8-1.3-1.7-3-3.1-3.9-3.1-.9 0-2-.3-2.3-.6-1.7-1.7-10.7-4-12.2-3.1zM163.864 848.173c-.7.7-1.3 1.8-1.3 2.4 0 1.2-3.9.8-4.8-.6-2.2-2.9-6.9.6-5.6 4.1.4.9 0 1.5-1 1.5-.9 0-1.6.5-1.6 1 0 .6-1.1.8-2.5.4-1.6-.4-2.5-.2-2.5.6 0 .6.5.8 1 .5.6-.3 1.7.1 2.6 1 1.3 1.2 1.4 1.9.4 3-.7.8-1.6 1.2-2.1.9-1.5-.9.3 2.8 2.3 4.8 2.1 2.1 4.5 2.3 8.5.6 1.5-.6 3.2-1 3.7-.9.5.1 1.6-.5 2.6-1.4 1-.9 3.5-1.9 5.6-2.2 2.2-.3 4.4-1 5.1-1.5.7-.5 1.4-.5 1.8.2 1.2 2 3.7 1.1 3.3-1.3-.2-1.5-.9-2.1-2-1.9-1 .2-1.8-.1-1.8-.6 0-.6-1.1-1.3-2.5-1.6-1.4-.4-2.5-1.1-2.5-1.6 0-.6-.6-1-1.4-1-.8 0-2-1.8-2.8-3.9-1.1-3.2-1.5-3.7-2.5-2.5z"/></g></svg>