<?xml version="1.0" standalone="no"?>
<!DOCTYPE svg PUBLIC "-//W3C//DTD SVG 20010904//EN"
 "http://www.w3.org/TR/2001/REC-SVG-20010904/DTD/svg10.dtd">
<svg version="1.0" xmlns="http://www.w3.org/2000/svg"
 width="507.851381pt" height="511.034613pt" viewBox="0 0 507.851381 511.034613"
 preserveAspectRatio="xMidYMid meet">
<metadata>
Created by potrace 1.15, written by Peter Selinger 2001-2017
</metadata>
<g transform="translate(-774.126505,1252.368427) scale(0.100000,-0.100000)"
fill="#222222" stroke="none">
<path d="M11138 12492 c-3 -20 -3 -39 -1 -42 7 -8 23 24 23 47 0 38 -18 34
-22 -5z"/>
<path d="M11103 12383 c-7 -2 -13 -11 -13 -19 0 -8 -4 -14 -9 -14 -5 0 -7 -10
-4 -22 3 -13 2 -20 -2 -16 -4 4 -16 -4 -27 -17 -11 -14 -26 -25 -34 -25 -10 0
-14 -14 -14 -57 -1 -78 -26 -131 -79 -163 -44 -27 -68 -80 -57 -126 5 -18 2
-24 -9 -24 -22 0 -57 -85 -60 -144 -1 -40 -6 -52 -23 -59 -12 -6 -22 -14 -22
-19 0 -4 -13 -8 -30 -8 -25 0 -29 -4 -27 -22 1 -17 -4 -24 -20 -26 -13 -2 -23
-8 -23 -13 0 -20 -42 -49 -71 -49 -18 0 -37 -7 -43 -16 -9 -12 -17 -13 -40 -4
-29 10 -77 4 -59 -9 16 -10 22 -62 10 -88 -5 -13 -18 -23 -29 -23 -15 0 -18
-8 -18 -43 0 -46 -13 -67 -42 -67 -10 0 -20 -10 -24 -24 -6 -25 -29 -36 -76
-36 -31 0 -34 -7 -14 -35 7 -11 14 -32 14 -48 0 -26 -2 -27 -35 -21 -32 6 -35
5 -29 -14 4 -11 2 -23 -4 -27 -5 -3 -10 -26 -10 -51 0 -24 -4 -44 -10 -44 -5
0 -7 -7 -4 -15 4 -10 -3 -18 -19 -24 -14 -5 -28 -15 -32 -21 -4 -7 -18 -9 -31
-6 -18 5 -24 2 -24 -10 0 -11 -5 -14 -16 -10 -26 10 -64 -4 -64 -24 0 -11 -4
-22 -10 -25 -5 -3 -10 -17 -10 -31 0 -14 -7 -27 -15 -30 -8 -4 -15 -13 -15
-21 0 -11 -7 -13 -29 -8 -19 4 -32 2 -38 -7 -4 -7 -18 -18 -30 -25 -17 -10
-24 -9 -34 3 -9 11 -10 17 -1 22 29 19 38 131 11 148 -5 3 -9 20 -9 37 -1 28
-9 37 -63 72 -33 22 -75 54 -92 70 -18 17 -48 43 -68 58 -21 16 -37 37 -37 48
0 11 -10 23 -24 28 -27 11 -42 40 -23 47 7 2 13 22 13 44 2 48 -29 81 -78 83
-27 2 -34 -2 -36 -20 -3 -19 -6 -20 -39 -11 -27 7 -38 7 -44 -4 -7 -10 -11 -8
-15 10 -5 16 -14 22 -35 22 -31 0 -33 -5 -29 -67 1 -24 -3 -33 -14 -33 -9 0
-16 -5 -16 -11 0 -5 -4 -7 -10 -4 -5 3 -10 0 -10 -8 0 -12 -21 -24 -52 -31 -3
0 -10 -4 -13 -8 -4 -4 -20 -1 -36 7 -33 18 -69 20 -69 4 0 -6 -9 -8 -21 -4
-23 7 -59 -19 -59 -42 0 -8 -5 -11 -10 -8 -6 3 -14 -4 -19 -18 -7 -18 -16 -23
-40 -21 -18 1 -39 8 -48 16 -15 11 -16 10 -11 -10 5 -18 -3 -31 -38 -64 -24
-22 -44 -48 -44 -58 0 -10 -7 -23 -15 -30 -8 -7 -15 -19 -15 -26 0 -8 -11 -16
-25 -20 -16 -4 -25 -12 -23 -23 3 -24 -75 -103 -95 -95 -13 4 -17 1 -17 -15 0
-12 -5 -21 -11 -21 -7 0 -9 -9 -6 -21 5 -17 2 -20 -14 -16 -10 3 -19 1 -19 -4
0 -5 -9 -9 -20 -9 -11 0 -23 -7 -26 -15 -4 -8 -10 -13 -14 -10 -4 3 -14 -2
-21 -11 -9 -11 -22 -14 -45 -10 -26 5 -32 3 -37 -13 -6 -26 -57 -46 -135 -55
-80 -9 -115 -24 -109 -47 6 -23 -1 -32 -50 -57 l-43 -21 -47 20 c-42 18 -48
18 -62 4 -8 -8 -10 -15 -4 -15 13 0 24 -48 12 -56 -13 -7 -5 -44 12 -54 10 -7
6 -12 -19 -23 -25 -10 -29 -16 -20 -25 7 -7 13 -22 13 -35 0 -16 7 -23 27 -25
20 -2 28 -10 33 -31 3 -16 5 -32 3 -37 -4 -13 59 -102 96 -134 27 -25 31 -35
36 -104 5 -50 12 -82 24 -95 14 -15 14 -20 3 -24 -9 -3 -14 -22 -15 -52 0 -39
3 -47 23 -55 13 -5 30 -18 38 -30 14 -20 13 -24 -4 -41 -21 -21 -25 -44 -9
-54 8 -5 8 -11 0 -19 -7 -10 -5 -20 10 -39 11 -14 20 -30 20 -36 0 -6 14 -14
30 -17 33 -7 33 -9 34 -100 1 -46 8 -74 30 -117 15 -31 32 -57 37 -57 5 0 9
-13 9 -30 0 -21 -4 -28 -14 -24 -8 3 -17 1 -21 -5 -3 -6 -19 -11 -35 -11 -29
0 -30 -1 -27 -50 2 -30 10 -57 22 -70 18 -20 18 -21 -19 -57 -28 -28 -35 -42
-30 -58 4 -11 6 -40 5 -64 -1 -41 0 -43 21 -36 13 4 31 7 41 6 9 0 17 4 17 10
0 5 -5 9 -11 9 -5 0 -9 8 -8 18 2 9 -3 27 -10 40 -12 22 -11 23 10 12 20 -11
21 -11 15 14 -6 26 -5 26 16 15 13 -6 35 -23 50 -36 14 -14 31 -23 36 -19 5 3
14 -13 21 -35 9 -31 10 -44 0 -55 -9 -11 -9 -17 0 -28 8 -10 9 -16 1 -21 -5
-3 -7 -17 -4 -31 5 -19 2 -24 -13 -24 -16 0 -20 -6 -19 -32 1 -39 13 -50 37
-37 22 12 79 12 79 0 0 -17 27 -19 54 -6 23 12 28 12 33 0 3 -8 13 -15 23 -15
9 0 25 -9 35 -20 10 -11 28 -20 39 -20 27 0 66 -27 66 -44 0 -8 12 -17 27 -21
15 -3 31 -11 34 -17 5 -8 24 -8 61 -2 l53 9 3 43 c3 33 7 42 22 42 32 0 50 11
50 32 0 16 5 19 29 13 25 -5 29 -3 34 23 9 43 75 57 187 41 45 -6 71 2 80 26
9 24 93 75 123 75 8 0 31 11 51 25 34 23 41 24 83 14 26 -5 52 -14 59 -20 8
-6 14 -5 18 6 3 9 18 15 39 15 34 0 64 20 50 33 -3 4 10 7 30 7 29 0 36 4 39
23 2 14 11 23 25 25 12 2 25 11 28 22 9 28 96 43 111 19 3 -6 17 -9 30 -6 17
3 25 -1 30 -15 8 -27 -14 -86 -37 -93 -23 -8 -25 -21 -3 -29 10 -4 25 1 36 11
11 10 22 17 24 16 2 -2 19 -3 38 -3 25 0 36 5 41 19 5 17 8 17 50 4 24 -9 51
-26 60 -39 13 -21 21 -24 49 -18 28 5 38 1 60 -22 15 -17 24 -36 21 -45 -6
-18 98 -115 121 -113 8 1 23 -13 35 -32 18 -30 19 -40 10 -86 -18 -91 -10
-133 33 -177 31 -32 37 -44 32 -65 -3 -14 -11 -26 -16 -26 -5 0 -7 -13 -4 -29
5 -21 1 -34 -14 -49 -11 -11 -18 -23 -14 -26 3 -4 7 -27 9 -53 1 -25 9 -53 16
-62 21 -23 30 -131 12 -131 -13 0 -22 -33 -24 -85 -2 -42 -9 -71 -25 -105 -33
-69 -59 -97 -105 -109 -52 -14 -49 -20 10 -27 30 -4 53 -14 74 -35 17 -16 38
-29 47 -29 9 0 19 -11 22 -25 6 -23 10 -25 49 -19 23 4 44 7 47 6 36 0 51 -5
64 -18 15 -14 16 -14 16 5 0 12 5 21 10 21 18 0 11 30 -7 31 -11 0 -13 3 -5 6
7 3 31 -5 53 -16 22 -12 45 -19 50 -15 5 3 16 0 24 -6 23 -19 48 -4 43 25 -6
30 -1 31 32 5 14 -11 35 -20 47 -20 12 0 25 -5 28 -11 5 -6 13 -3 22 10 10 16
21 19 39 15 18 -5 24 -2 24 10 0 22 49 11 71 -16 15 -19 16 -18 34 16 11 21
25 34 32 32 9 -4 15 8 19 34 5 30 11 40 25 40 25 0 24 8 -2 29 -20 16 -20 20
-9 78 11 54 16 63 39 68 33 8 70 40 100 88 18 30 22 48 18 83 -4 38 -2 44 15
44 16 0 18 5 13 33 -6 29 -3 36 19 50 32 21 52 87 36 118 -11 19 -9 20 9 14
15 -4 19 -3 16 7 -3 8 8 21 26 32 41 24 69 52 69 69 0 7 5 18 10 23 8 8 6 15
-5 24 -21 17 -19 33 3 21 14 -8 20 -4 31 20 8 18 19 28 26 25 19 -7 23 11 17
67 -4 43 -3 49 16 54 12 3 24 14 27 24 4 11 11 17 16 14 5 -4 9 -1 9 5 0 6 13
16 29 21 35 12 45 33 29 58 -6 10 -9 25 -5 33 5 15 56 28 105 28 13 0 20 5 17
10 -3 6 -1 10 5 10 8 0 9 10 5 30 -4 19 -3 30 4 30 18 0 12 17 -8 23 -19 5
-27 52 -10 63 17 10 10 82 -8 93 -10 6 -15 11 -10 11 4 0 -2 17 -12 39 -16 31
-28 40 -56 45 -33 7 -46 21 -25 28 15 5 -13 131 -31 137 -7 2 4 9 26 15 25 7
44 20 50 33 5 12 19 23 30 25 13 2 21 12 23 28 2 14 10 32 17 40 7 8 12 33 10
57 -2 34 1 42 17 47 15 3 18 10 13 25 -4 14 -2 21 6 21 7 0 9 3 6 7 -4 3 -2
12 4 20 9 10 7 18 -7 34 -18 20 -18 20 11 14 17 -4 43 -11 59 -16 38 -12 35
-13 46 16 5 14 17 25 27 25 10 0 25 5 33 10 11 7 9 9 -10 8 -14 -1 -30 -6 -37
-11 -8 -6 -20 -1 -36 15 -12 12 -28 23 -35 24 -7 1 -19 2 -28 3 -10 0 -14 7
-11 15 4 10 -4 18 -21 24 -23 7 -18 10 38 15 36 4 66 11 68 17 2 5 9 7 16 4 8
-3 20 2 28 10 10 9 19 11 25 5 12 -12 115 10 126 28 6 10 13 10 28 3 16 -9 19
-7 19 11 0 19 4 21 35 15 27 -5 37 -3 41 9 6 15 54 22 54 7 0 -5 13 -7 30 -4
21 3 32 0 36 -12 8 -21 74 -23 74 -2 0 8 13 24 29 36 17 11 33 29 36 40 5 16
10 18 26 9 15 -7 24 -7 34 1 8 7 19 9 25 5 13 -8 13 1 -2 25 -10 16 -10 24 -1
40 7 10 10 26 7 33 -3 8 2 17 12 21 15 6 15 8 1 24 -23 25 -40 72 -23 66 20
-8 38 42 23 67 -10 16 -9 21 1 28 8 5 11 17 7 33 -4 15 -2 29 4 32 6 4 11 29
11 56 0 30 5 50 13 53 9 3 9 7 -1 20 -7 8 -12 21 -11 29 4 19 -11 60 -28 80
-20 22 -10 48 17 48 28 0 24 40 -5 55 -11 5 -30 20 -43 33 -12 12 -26 22 -31
22 -5 0 -14 13 -20 28 -7 16 -25 33 -41 39 -21 8 -30 18 -30 33 0 12 -4 19 -9
16 -4 -3 -19 6 -32 20 -20 21 -21 27 -9 34 12 7 12 12 2 22 -17 17 -15 31 3
24 15 -5 19 5 16 33 -2 8 2 10 11 5 21 -14 38 -13 38 1 0 7 6 15 13 18 8 3 7
10 -7 26 -24 26 -31 26 -56 1 -11 -11 -34 -23 -50 -27 -21 -4 -30 -11 -30 -24
0 -20 -4 -22 -64 -20 -25 0 -43 -5 -51 -16 -8 -11 -14 -13 -19 -5 -4 7 -17 12
-30 12 -14 0 -28 9 -36 24 -7 13 -22 27 -33 30 -38 10 -108 -6 -133 -31 -13
-12 -28 -23 -33 -23 -25 0 -61 21 -61 35 0 9 -4 14 -8 11 -5 -3 -24 8 -43 24
-19 16 -46 29 -60 30 -15 0 -32 6 -38 13 -6 8 -29 19 -51 26 -28 8 -40 17 -40
31 0 10 -10 26 -21 34 -19 13 -25 13 -43 1 -15 -10 -31 -12 -58 -6 -35 8 -38
7 -38 -14 0 -18 -4 -22 -20 -18 -11 3 -20 9 -20 14 0 14 -26 10 -58 -8 -25
-14 -30 -22 -25 -44 5 -24 1 -28 -43 -43 -56 -19 -57 -19 -49 -6 3 6 -3 10
-13 10 -18 0 -62 50 -45 50 5 0 0 5 -9 11 -10 5 -18 15 -18 21 0 7 5 6 15 -2
23 -19 18 4 -5 25 -11 10 -20 24 -20 32 0 7 -7 13 -15 13 -30 0 -75 30 -81 54
-3 13 -17 29 -30 35 -14 6 -23 15 -19 20 3 5 0 13 -7 18 -13 8 -18 9 -52 11
-14 2 -17 7 -12 26 5 19 1 26 -15 31 -15 5 -18 9 -9 15 10 6 10 15 1 43 -7 19
-9 46 -6 59 3 13 1 37 -5 53 -6 15 -7 31 -3 34 4 3 9 22 10 41 2 28 -4 43 -27
69 -31 34 -39 66 -17 74 9 3 9 9 -1 27 -11 18 -11 25 1 38 16 19 12 82 -7 94
-14 9 54 76 71 71 19 -7 63 60 56 86 -4 16 -1 26 11 33 16 9 16 12 -6 35 -13
15 -18 27 -12 30 14 5 1 95 -22 146 -17 38 -19 39 -41 30z m-1628 -1001 c0
-18 -20 -15 -23 4 -3 10 1 15 10 12 7 -3 13 -10 13 -16z m3120 -1482 c3 -5 1
-10 -4 -10 -6 0 -11 5 -11 10 0 6 2 10 4 10 3 0 8 -4 11 -10z m-3647 -936 c29
15 60 7 48 -13 -4 -6 -2 -11 4 -11 6 0 10 -10 8 -23 -1 -13 5 -35 15 -50 10
-15 16 -41 15 -62 -3 -35 -11 -44 -23 -25 -5 8 -11 8 -20 0 -13 -11 -65 5 -65
20 0 18 -41 52 -56 46 -18 -7 -59 18 -59 37 -1 6 7 19 16 28 10 8 21 27 24 41
6 25 8 25 35 11 25 -12 33 -12 58 1z m-39 -215 c-31 -8 -53 7 -36 26 9 10 16
9 36 -4 l24 -15 -24 -7z"/>
<path d="M8814 11269 c2 -18 4 -42 5 -52 1 -16 3 -17 16 -3 18 17 20 40 3 30
-7 -5 -9 -2 -6 7 3 8 0 23 -8 34 -13 17 -14 16 -10 -16z"/>
<path d="M7764 10498 c-4 -7 -8 -26 -9 -43 -1 -16 -5 -38 -9 -48 -13 -28 4
-35 24 -9 11 13 24 20 34 16 10 -4 16 -1 16 9 0 8 9 17 20 20 21 5 28 27 9 27
-5 0 -7 4 -4 10 3 5 0 7 -9 4 -8 -3 -26 2 -39 11 -20 13 -27 13 -33 3z"/>
<path d="M8130 8835 c0 -11 -3 -31 -7 -44 -5 -19 -2 -22 13 -19 15 3 18 10 16
33 -4 35 -22 59 -22 30z"/>
<path d="M10120 8840 c0 -5 5 -10 11 -10 5 0 7 5 4 10 -3 6 -8 10 -11 10 -2 0
-4 -4 -4 -10z"/>
<path d="M8120 8735 c-7 -8 -21 -15 -31 -15 -20 0 -27 -34 -9 -45 16 -10 50
14 50 36 0 11 5 17 10 14 6 -3 10 1 10 9 0 20 -14 20 -30 1z"/>
<path d="M8027 8664 c3 -9 9 -12 12 -7 3 4 10 11 15 16 5 4 0 7 -12 7 -15 0
-20 -4 -15 -16z"/>
<path d="M8005 8590 c-4 -6 -16 -8 -27 -4 -18 5 -20 3 -14 -19 4 -18 1 -27
-10 -31 -8 -3 -13 -10 -9 -15 3 -6 17 -4 33 5 15 7 33 14 40 14 8 0 10 8 6 28
-8 34 -10 36 -19 22z"/>
<path d="M7903 8453 c-7 -3 -13 -11 -13 -19 0 -8 -7 -14 -15 -14 -8 0 -15 -5
-15 -11 0 -7 -11 -8 -30 -4 -29 6 -30 6 -20 -20 14 -36 13 -45 -5 -45 -8 0
-12 -6 -9 -13 3 -8 17 -11 39 -9 29 3 39 12 60 50 26 47 30 92 8 85z"/>
<path d="M7770 8304 c0 -9 -8 -23 -17 -30 -16 -12 -13 -12 15 -3 41 14 48 25
22 39 -16 9 -20 8 -20 -6z"/>
<path d="M11192 7473 c6 -7 14 -10 19 -7 5 3 25 1 44 -5 21 -5 33 -6 30 0 -4
5 0 9 7 10 7 0 2 5 -11 10 -35 14 -102 8 -89 -8z"/>
<path d="M11280 7419 c0 -5 5 -7 10 -4 6 3 10 8 10 11 0 2 -4 4 -10 4 -5 0
-10 -5 -10 -11z"/>
</g>
</svg>
