<?xml version="1.0" standalone="no"?>
<!DOCTYPE svg PUBLIC "-//W3C//DTD SVG 20010904//EN"
 "http://www.w3.org/TR/2001/REC-SVG-20010904/DTD/svg10.dtd">
<svg version="1.0" xmlns="http://www.w3.org/2000/svg"
 width="855.271612pt" height="517.527703pt" viewBox="0 0 855.271612 517.527703"
 preserveAspectRatio="xMidYMid meet">
<metadata>
Created by potrace 1.15, written by Peter Selinger 2001-2017
</metadata>
<g transform="translate(-516.099830,1263.910256) scale(0.100000,-0.100000)"
fill="#222222" stroke="none">
<path d="M12133 12611 c4 -21 2 -31 -9 -35 -14 -5 -14 -8 0 -28 11 -16 13 -25
5 -35 -16 -18 -4 -43 21 -43 12 0 29 -14 42 -35 17 -26 28 -33 43 -29 19 5 19
4 2 -9 -14 -12 -15 -16 -3 -20 8 -3 21 -28 30 -55 20 -58 53 -83 42 -32 -5 28
-4 30 14 20 15 -8 21 -6 30 11 9 17 8 25 -7 41 -10 11 -17 22 -15 24 7 11 -1
20 -28 32 -16 8 -30 18 -30 23 0 6 4 8 9 4 19 -11 23 17 6 35 -14 15 -15 23
-6 34 9 11 5 16 -19 26 -16 7 -35 18 -41 26 -6 8 -21 14 -34 14 -29 0 -36 9
-25 30 7 13 6 20 -6 24 -25 10 -27 8 -21 -23z"/>
<path d="M12085 12400 c-8 -24 1 -40 21 -40 9 0 12 5 8 11 -5 9 1 10 20 5 27
-7 27 -6 10 19 -20 30 -50 33 -59 5z"/>
<path d="M12267 12253 c-10 -10 -8 -63 2 -63 5 0 14 7 21 15 9 11 9 18 -3 35
-7 11 -17 17 -20 13z"/>
<path d="M12244 12118 l-19 -23 23 19 c21 18 27 26 19 26 -2 0 -12 -10 -23
-22z"/>
<path d="M12200 12090 c-12 -8 -12 -10 3 -16 21 -8 35 2 21 16 -5 5 -15 6 -24
0z"/>
<path d="M12178 12033 c7 -3 16 -2 19 1 4 3 -2 6 -13 5 -11 0 -14 -3 -6 -6z"/>
<path d="M12172 11980 c0 -14 2 -19 5 -12 2 6 2 18 0 25 -3 6 -5 1 -5 -13z"/>
<path d="M12040 11927 c0 -20 -14 -24 -83 -22 -46 2 -60 -1 -67 -15 -5 -9 -21
-25 -35 -34 -21 -14 -29 -15 -41 -5 -10 8 -14 8 -14 0 0 -6 -4 -11 -10 -11 -5
0 -9 5 -7 11 2 11 -8 16 -48 21 -14 2 -19 -2 -17 -14 1 -9 -3 -20 -9 -24 -15
-9 -124 -8 -139 1 -6 4 -10 -6 -10 -24 0 -36 -8 -38 -38 -11 -12 11 -26 20
-32 20 -13 0 -13 -57 0 -65 6 -4 8 -11 4 -16 -4 -6 -11 -6 -20 2 -11 9 -14 7
-14 -15 0 -15 -4 -25 -9 -21 -5 3 -13 0 -16 -6 -4 -6 -18 -8 -31 -5 -17 5 -24
2 -24 -9 0 -17 -9 -19 -30 -5 -10 6 -20 4 -32 -6 -9 -9 -25 -13 -36 -10 -13 5
-22 0 -29 -17 -9 -19 -17 -22 -55 -19 -35 3 -48 9 -63 33 -11 16 -25 29 -31
29 -6 0 -16 11 -22 24 -6 13 -22 26 -39 29 -32 7 -65 47 -38 47 18 0 19 9 2
31 -20 25 -43 29 -58 8 -7 -10 -19 -19 -26 -19 -7 0 -13 -5 -13 -11 0 -7 -10
-9 -25 -5 -18 5 -25 2 -25 -9 0 -22 -16 -18 -38 9 -10 14 -32 28 -48 32 -16 4
-42 14 -58 23 -24 13 -30 14 -34 2 -2 -7 -13 -21 -23 -29 -11 -9 -19 -22 -19
-29 0 -7 -6 -13 -12 -13 -7 0 -35 -11 -63 -25 -27 -14 -55 -23 -62 -21 -8 4
-13 -3 -13 -18 0 -32 -43 -61 -70 -46 -25 14 -27 -4 -2 -22 10 -7 22 -19 27
-27 13 -22 15 -84 3 -98 -8 -10 -4 -13 20 -13 16 0 35 -7 42 -15 7 -8 16 -12
21 -9 5 3 9 -4 9 -14 0 -11 7 -22 15 -26 9 -3 15 0 15 9 0 8 7 15 15 15 24 0
17 -19 -15 -38 l-30 -19 29 -27 c22 -21 30 -40 36 -84 12 -94 11 -126 -3 -144
-8 -10 -12 -24 -9 -33 4 -8 2 -15 -3 -15 -5 0 -7 -7 -4 -15 4 -8 -1 -17 -9
-21 -10 -3 -15 -17 -15 -35 1 -22 -13 -43 -58 -92 -32 -34 -71 -68 -86 -74
-19 -9 -30 -25 -38 -53 -6 -22 -21 -47 -34 -55 -16 -11 -22 -22 -19 -38 6 -29
-23 -58 -33 -33 -9 24 -54 21 -54 -3 0 -33 -11 -51 -31 -51 -11 0 -22 -7 -25
-15 -4 -8 -12 -15 -20 -15 -8 0 -11 -6 -8 -15 4 -10 0 -15 -14 -15 -31 0 -57
-60 -44 -99 8 -23 7 -31 -4 -35 -8 -3 -14 -12 -14 -20 0 -12 -10 -15 -42 -12
-33 3 -49 -2 -74 -20 -33 -26 -59 -31 -69 -14 -4 6 -22 8 -43 4 -63 -10 -72
-15 -72 -35 0 -14 -7 -19 -25 -19 -16 0 -25 -6 -25 -15 0 -9 -7 -18 -16 -22
-12 -4 -14 -14 -10 -35 5 -24 3 -29 -9 -24 -12 4 -15 -1 -13 -25 1 -17 8 -34
15 -36 18 -7 16 -33 -2 -33 -9 0 -15 -9 -15 -21 0 -18 -4 -20 -25 -15 -19 5
-25 2 -25 -10 0 -11 -5 -14 -17 -9 -36 13 -71 17 -77 7 -8 -13 -55 0 -101 28
l-35 22 -10 -26 c-5 -14 -16 -26 -25 -26 -9 0 -15 -9 -15 -24 0 -14 -4 -28
-10 -31 -5 -3 -10 -14 -10 -24 0 -10 -7 -24 -15 -31 -8 -6 -14 -15 -13 -18 4
-15 -14 -52 -25 -52 -7 0 -18 -9 -24 -19 -10 -15 -9 -20 2 -25 11 -4 14 -23
12 -81 -1 -41 -5 -75 -9 -75 -13 0 -9 -35 7 -56 21 -28 18 -37 -11 -30 -22 6
-25 4 -20 -10 5 -13 4 -15 -7 -5 -11 9 -14 6 -15 -16 -2 -61 -11 -79 -27 -53
-3 6 -14 10 -25 10 -10 0 -21 7 -24 15 -5 14 -8 14 -31 -1 -23 -15 -27 -15
-43 -2 -36 32 -106 43 -222 35 -25 -2 -51 1 -58 7 -10 7 -16 6 -22 -4 -7 -12
-13 -12 -34 -1 -14 8 -35 11 -51 7 -18 -5 -38 1 -69 19 -47 27 -76 31 -94 13
-9 -9 -15 -9 -24 0 -7 7 -36 12 -66 12 -29 0 -61 4 -71 10 -10 5 -31 6 -47 2
-34 -10 -67 -4 -59 9 4 5 1 9 -5 9 -6 0 -10 -8 -9 -17 4 -41 0 -43 -52 -39
-28 2 -54 8 -58 13 -8 12 -53 24 -45 12 8 -14 -24 -11 -56 6 -22 11 -35 12
-56 5 -36 -14 -60 -5 -74 29 -12 29 -40 40 -147 58 -29 5 -48 23 -23 23 32 0
90 118 76 155 -7 18 -43 20 -49 3 -2 -7 -8 -9 -13 -5 -4 4 -3 17 4 27 7 11 12
29 12 40 0 13 9 22 25 26 18 5 25 13 26 33 0 14 3 40 5 56 2 17 5 40 7 52 l2
22 43 -24 42 -24 0 24 c0 13 7 30 15 39 9 9 11 17 5 21 -5 3 -10 12 -10 18 0
7 8 3 16 -8 8 -11 20 -19 26 -17 7 2 8 -10 4 -32 -5 -23 -2 -45 8 -64 9 -18
11 -33 5 -44 -9 -17 14 -33 32 -22 6 3 16 0 24 -6 10 -9 19 -9 28 -3 6 6 29
13 49 17 32 6 36 10 32 31 -2 14 0 25 7 25 7 0 8 11 4 30 -6 26 -4 30 15 30
18 0 19 3 10 20 -9 16 -8 22 5 26 8 4 15 18 15 34 0 16 7 30 16 34 8 3 12 10
9 16 -3 5 0 10 8 10 16 0 27 21 27 51 0 19 34 27 44 10 3 -4 17 -6 30 -4 14 3
35 -2 48 -11 29 -20 39 -20 31 0 -5 14 -2 16 23 10 16 -4 45 -8 65 -10 20 -2
44 -8 53 -13 35 -19 120 47 100 78 -3 5 12 7 33 6 34 -2 38 1 41 25 2 17 -4
31 -16 40 -27 19 -34 45 -15 53 9 3 21 1 27 -5 16 -16 23 -12 36 20 10 24 10
33 0 45 -10 12 -9 16 6 22 31 12 107 9 112 -4 2 -7 8 -13 13 -13 4 0 6 7 2 16
-5 14 -3 14 16 2 18 -11 23 -11 31 2 10 16 -23 60 -45 60 -20 0 -55 40 -55 64
0 12 -13 35 -30 51 -18 18 -30 39 -30 54 1 24 2 25 14 8 18 -23 46 -12 46 19
0 13 4 24 9 24 12 0 21 62 11 75 -5 6 -1 26 9 45 9 19 16 47 14 63 -1 15 2 27
7 27 5 0 8 18 7 41 -2 40 -1 41 47 60 39 16 51 17 57 7 4 -7 11 -10 14 -6 3 3
-5 18 -18 34 -13 16 -33 55 -45 87 -19 52 -20 61 -8 79 17 24 2 60 -21 51 -15
-6 -18 23 -3 32 14 9 2 46 -20 65 -9 8 -26 31 -36 50 -10 19 -22 37 -25 40 -3
3 -11 21 -18 40 -6 19 -20 46 -30 60 -19 24 -20 24 -40 6 -26 -24 -59 -16
-106 25 -21 19 -41 29 -51 25 -8 -3 -24 -1 -34 4 -13 7 -20 6 -23 -3 -3 -9 -7
-9 -18 0 -20 17 -53 -9 -45 -35 6 -18 0 -21 -51 -30 -35 -6 -65 -6 -75 -1 -23
12 -28 11 -28 -5 0 -20 -40 -62 -66 -70 -12 -4 -24 -16 -27 -28 -6 -20 -7 -20
-31 -5 -25 17 -56 14 -56 -5 0 -5 -4 -7 -9 -3 -5 3 -11 -5 -13 -17 -2 -13 -9
-22 -17 -20 -8 2 -18 -2 -22 -9 -5 -8 -14 -5 -32 13 -18 18 -29 22 -36 15 -13
-13 -77 34 -86 63 -6 18 -13 20 -58 15 -29 -3 -75 2 -108 10 -37 10 -81 13
-126 10 -37 -3 -77 -6 -88 -6 -11 0 -28 -8 -39 -17 -18 -16 -19 -16 -12 3 6
16 5 18 -5 8 -17 -17 -44 -16 -59 2 -19 22 -33 6 -27 -30 4 -23 1 -35 -9 -39
-8 -3 -11 -12 -7 -22 5 -14 2 -16 -20 -10 -20 5 -27 2 -32 -14 -3 -11 -10 -20
-15 -20 -5 0 -7 -7 -4 -15 9 -22 -15 -45 -45 -44 -50 2 -106 -13 -122 -33 -11
-15 -18 -17 -23 -9 -4 7 -15 10 -24 7 -10 -3 -36 -10 -60 -16 -42 -11 -43 -12
-40 -48 2 -29 8 -38 25 -40 18 -3 24 -14 33 -58 11 -50 13 -54 25 -37 10 13
10 22 3 31 -20 24 -3 21 40 -6 23 -15 45 -35 48 -45 3 -10 20 -34 37 -53 25
-29 28 -37 16 -45 -22 -14 -28 -11 -35 16 -4 16 -13 25 -25 25 -10 0 -19 4
-19 8 0 10 -50 35 -57 28 -3 -2 0 -13 5 -23 5 -10 7 -23 5 -30 -9 -24 81 -103
117 -103 5 0 10 7 10 15 0 19 11 19 36 -1 18 -15 18 -15 0 -10 -16 6 -17 3
-11 -26 4 -18 8 -59 9 -90 0 -31 7 -63 14 -69 6 -7 12 -19 12 -25 0 -7 16 -25
35 -40 25 -19 34 -32 30 -45 -3 -9 -1 -20 4 -23 15 -10 41 -66 30 -66 -6 0 -2
-12 9 -27 37 -52 40 -111 5 -82 -22 19 -30 -2 -26 -68 2 -46 9 -63 30 -85 15
-15 21 -28 15 -28 -20 0 -14 -16 11 -29 12 -7 28 -25 36 -41 11 -26 15 -28 32
-19 11 6 25 8 32 6 7 -2 22 5 34 16 27 24 32 21 40 -27 5 -31 2 -39 -23 -59
-16 -12 -32 -21 -36 -20 -4 2 -5 -4 -2 -12 7 -18 -7 -20 -25 -2 -11 10 -14 9
-18 -1 -3 -6 -9 -9 -15 -6 -6 4 -14 1 -19 -7 -6 -11 -12 -10 -28 5 -10 9 -26
18 -34 20 -8 1 -23 8 -33 16 -9 8 -19 14 -21 13 -16 -12 -59 49 -48 67 3 5 0
19 -6 33 -8 18 -7 35 5 71 17 51 12 74 -23 98 -13 9 -17 19 -11 27 5 9 -3 29
-23 57 -28 40 -29 45 -15 61 8 11 14 34 13 56 -1 22 3 41 9 43 17 6 12 69 -5
69 -8 0 -18 18 -24 45 -7 32 -17 48 -35 57 -14 7 -25 16 -25 20 0 4 -17 35
-37 69 -25 40 -35 67 -31 82 4 16 -1 24 -18 32 -32 15 -64 33 -82 49 -9 7 -33
21 -54 32 -32 17 -38 17 -46 4 -18 -32 -48 -19 -102 46 -15 18 -44 79 -45 96
-1 13 125 49 192 56 20 2 34 27 15 27 -7 0 -58 -12 -115 -27 -74 -19 -101 -30
-98 -40 9 -22 -42 -28 -64 -8 -11 10 -20 23 -19 29 1 6 1 22 0 35 -1 20 -5 22
-27 17 -18 -5 -32 -2 -44 9 -13 12 -23 13 -43 6 -14 -5 -28 -7 -32 -3 -3 3 -3
-1 1 -11 6 -18 -10 -22 -66 -18 -29 2 -70 44 -70 72 0 12 -7 19 -20 19 -11 0
-37 16 -58 35 -34 31 -35 34 -14 35 24 0 29 21 9 39 -20 16 -68 -8 -61 -31 4
-12 0 -18 -11 -18 -9 0 -15 7 -13 16 2 10 -2 19 -8 21 -7 2 -10 -6 -7 -22 3
-14 0 -32 -7 -39 -17 -21 -89 -18 -102 4 -14 22 -38 15 -38 -11 0 -10 -7 -22
-16 -27 -14 -8 -12 -12 12 -31 19 -15 30 -18 34 -10 5 7 13 -1 21 -20 8 -17
17 -31 21 -31 5 0 8 -11 8 -24 0 -13 7 -29 15 -36 8 -7 15 -19 15 -27 0 -8 7
-22 16 -30 10 -10 14 -27 12 -44 -3 -15 0 -25 4 -22 5 3 12 -4 15 -16 5 -21
23 -30 23 -11 0 6 5 10 10 10 14 0 12 -38 -2 -42 -9 -3 -8 -12 5 -31 9 -14 17
-34 17 -43 0 -24 49 -66 111 -94 44 -21 53 -22 63 -10 6 8 22 15 36 15 30 0
39 -32 32 -114 -4 -47 -3 -53 11 -48 9 3 27 -3 41 -14 14 -11 41 -20 60 -21
20 -1 37 -7 41 -16 3 -8 11 -12 19 -9 8 3 26 -8 40 -24 14 -16 30 -29 35 -29
4 0 22 -22 39 -50 21 -33 38 -50 51 -50 23 0 45 -30 56 -75 8 -38 33 -65 51
-58 8 3 14 -1 14 -10 0 -9 16 -37 36 -63 31 -40 35 -52 30 -82 -3 -20 -11 -39
-17 -43 -17 -10 4 -65 36 -95 14 -13 25 -27 25 -31 0 -16 -75 -90 -98 -97 -12
-4 -22 -11 -22 -16 0 -5 -16 -7 -35 -6 -32 3 -35 1 -35 -25 0 -15 7 -32 15
-37 14 -7 13 -10 -3 -28 -15 -16 -17 -25 -9 -51 10 -30 0 -63 -10 -36 -7 18
-33 3 -33 -19 0 -15 -5 -18 -20 -13 -16 5 -20 2 -20 -14 0 -16 -6 -21 -25 -21
-14 0 -25 6 -26 13 0 6 -6 -7 -14 -31 -17 -55 -31 -71 -56 -65 -11 3 -30 1
-42 -5 -12 -6 -30 -12 -39 -14 -16 -3 -16 -6 -4 -30 11 -21 11 -26 1 -22 -14
6 -27 -63 -15 -81 3 -5 7 -22 8 -37 2 -31 -23 -45 -37 -20 -9 16 -11 16 -27 0
-21 -20 -11 -37 10 -19 12 10 15 7 18 -25 3 -35 5 -37 43 -40 22 -2 41 -8 43
-14 2 -6 16 -17 32 -25 25 -13 29 -12 44 4 9 10 16 24 16 32 0 24 28 56 37 43
5 -6 18 -16 31 -23 19 -10 22 -9 22 5 0 13 6 15 28 11 21 -4 31 -1 40 14 7 10
15 18 20 18 4 -1 25 -1 47 0 41 1 41 1 37 36 -3 21 0 35 7 35 7 0 8 16 4 46
-5 36 -3 45 8 43 8 -1 28 4 46 12 28 11 31 17 26 39 l-6 25 29 -26 c16 -14 41
-30 55 -36 15 -7 37 -30 50 -52 14 -25 30 -41 41 -41 11 0 28 -5 39 -10 15 -9
19 -7 19 7 0 14 6 10 25 -13 16 -21 37 -34 61 -38 26 -5 34 -11 30 -22 -8 -20
11 -54 28 -54 8 0 21 -17 29 -37 15 -38 15 -38 -12 -41 -32 -4 -54 -42 -34
-60 8 -8 13 -9 13 -2 0 5 7 10 15 10 23 0 18 -15 -10 -30 -23 -12 -24 -15 -10
-30 8 -9 15 -21 15 -27 0 -12 73 -11 82 2 4 6 8 20 8 32 0 13 12 28 35 42 19
11 35 27 35 35 0 23 62 67 77 54 9 -7 17 -7 27 1 16 14 43 4 66 -24 7 -8 21
-13 30 -10 11 3 20 -1 23 -10 4 -8 16 -14 29 -12 18 1 24 -4 26 -23 9 -59 58
-74 102 -30 17 17 17 20 4 20 -11 0 -14 5 -10 16 3 9 6 23 6 32 1 25 40 -24
40 -49 0 -10 5 -19 10 -19 6 0 10 -7 10 -15 0 -20 14 -19 31 1 12 14 14 14 27
-3 10 -12 16 -14 19 -6 4 10 10 10 31 -1 27 -13 105 -16 117 -4 8 8 86 -3 100
-14 17 -14 86 -58 90 -58 3 0 5 7 5 15 0 31 167 8 209 -29 13 -11 27 -12 74
-3 51 9 63 8 92 -7 18 -10 38 -15 44 -11 22 13 48 -4 44 -29 -4 -21 -2 -22 26
-18 21 3 50 -5 87 -22 42 -20 64 -25 90 -20 19 3 36 10 39 14 3 5 24 11 48 15
24 5 56 20 75 36 18 16 37 29 42 29 6 0 10 6 10 14 0 8 11 17 25 20 14 4 30
17 35 31 6 16 15 23 25 19 11 -4 15 0 15 15 0 15 9 25 30 32 29 11 38 23 23
32 -5 2 -3 2 4 1 7 -2 15 1 18 5 2 5 21 12 41 16 30 5 35 10 31 26 -5 18 -2
19 24 14 18 -4 29 -2 29 4 0 6 7 8 15 4 9 -3 22 2 29 12 9 13 20 16 36 12 13
-3 30 -1 38 5 8 7 31 13 52 14 52 3 65 12 47 32 -10 11 -12 24 -7 37 5 11 9
32 9 48 1 27 1 27 31 12 17 -9 30 -19 30 -24 0 -5 9 -11 21 -14 11 -3 23 -15
26 -26 3 -12 10 -21 15 -21 18 0 68 -41 68 -56 0 -16 70 -89 92 -96 15 -5 1
-28 -18 -28 -8 0 -13 4 -10 8 2 4 1 14 -4 22 -8 13 -12 12 -24 -5 -13 -17 -18
-18 -35 -7 -25 15 -91 16 -91 1 0 -17 -43 -49 -60 -44 -8 3 -21 -4 -28 -15
-10 -17 -10 -24 2 -42 8 -11 13 -25 11 -32 -14 -47 -14 -66 -1 -66 9 0 12 7 9
20 -6 24 9 26 27 5 16 -19 29 -19 51 1 11 10 23 13 31 8 7 -5 15 -9 18 -10 19
-3 48 -20 67 -37 12 -11 29 -17 37 -14 8 3 22 -3 32 -14 17 -18 17 -20 -1 -33
-12 -9 -15 -15 -7 -20 7 -4 12 -19 12 -33 0 -22 2 -24 16 -12 13 11 15 10 12
-5 -3 -20 57 -52 67 -35 4 5 15 9 26 9 12 0 19 7 19 19 0 11 4 22 8 25 15 9
78 -13 97 -33 12 -14 22 -17 34 -12 47 24 88 38 103 35 21 -3 66 -34 92 -63
11 -12 24 -21 30 -21 6 0 35 -10 64 -22 41 -17 55 -19 61 -10 6 10 18 10 59 1
58 -14 87 -1 78 34 -4 17 -1 18 26 13 31 -6 51 10 85 68 7 12 12 17 13 11 0
-12 47 -35 54 -27 3 3 1 11 -5 18 -9 10 -5 16 17 25 16 6 37 15 47 20 10 6 22
7 27 4 6 -4 10 1 10 9 0 18 11 21 25 7 6 -6 25 -2 49 10 35 17 42 17 68 5 16
-8 30 -10 34 -5 11 18 23 8 34 -28 7 -21 19 -49 27 -62 14 -22 14 -24 -1 -18
-18 7 -22 -8 -4 -19 15 -10 38 24 38 56 0 14 -14 42 -30 62 -32 38 -27 54 13
44 12 -3 16 -3 10 0 -7 3 -13 12 -13 19 0 7 -19 16 -46 21 -31 6 -51 16 -58
29 -5 11 -17 31 -26 45 -27 42 -30 59 -14 75 12 11 14 26 9 54 -4 25 -2 41 5
46 8 5 8 11 -2 22 -10 13 -8 15 12 12 14 -1 44 1 68 5 32 6 49 4 67 -8 33 -22
45 -20 45 5 0 15 4 19 15 15 8 -3 22 -9 30 -12 11 -5 15 1 15 25 0 25 6 34 26
41 14 6 36 7 49 4 13 -3 37 2 55 11 18 9 29 12 25 5 -6 -9 -2 -9 13 -1 12 6
24 16 27 21 11 18 63 11 79 -11 13 -19 13 -24 0 -36 -21 -21 -28 -61 -15 -89
9 -20 8 -24 -5 -24 -13 0 -15 -6 -10 -27 10 -44 11 -47 19 -60 5 -9 2 -13 -8
-13 -8 0 -18 7 -22 16 -4 12 -9 6 -18 -20 -9 -26 -10 -46 -1 -76 8 -34 8 -43
-4 -50 -10 -6 -14 -28 -15 -69 0 -40 -4 -61 -12 -61 -6 0 -14 4 -17 8 -6 10
-115 3 -136 -9 -12 -6 -7 -11 18 -20 24 -8 34 -19 39 -40 3 -15 14 -36 24 -45
11 -9 19 -23 19 -31 0 -20 18 -16 25 7 4 13 15 20 31 20 14 0 23 -4 20 -9 -3
-5 3 -11 14 -14 11 -3 23 -1 26 4 7 13 51 11 60 -2 13 -22 11 -89 -3 -89 -7 0
-13 7 -13 15 0 8 -4 15 -10 15 -5 0 -10 -4 -10 -10 0 -6 -9 -6 -26 0 -14 6
-37 10 -51 10 -21 0 -23 -3 -14 -14 9 -11 8 -15 -4 -20 -13 -5 -14 -10 -5 -27
7 -11 14 -18 18 -15 3 4 15 -2 26 -12 12 -11 47 -27 79 -37 41 -12 61 -24 66
-39 7 -16 16 -21 46 -20 20 1 41 7 46 15 8 11 13 10 28 -9 11 -12 21 -28 23
-34 4 -10 10 -10 29 -2 20 9 29 8 54 -9 17 -11 37 -29 46 -40 9 -11 37 -24 65
-29 75 -14 78 -14 102 -22 14 -5 29 -3 37 4 10 8 19 8 34 1 11 -6 33 -11 48
-11 16 0 34 -5 39 -10 7 -7 18 -4 34 10 17 15 32 19 52 15 24 -6 29 -3 38 19
10 27 28 33 46 17 5 -5 30 -7 56 -4 35 4 49 11 53 24 8 26 34 38 86 41 31 2
43 -1 42 -9 -2 -7 2 -13 7 -13 6 0 10 -7 10 -15 0 -18 2 -18 33 -4 18 8 31 8
48 -1 22 -10 23 -10 5 4 -18 14 -18 17 -3 47 14 29 14 35 0 56 -15 23 -15 23
19 23 19 0 38 -4 43 -9 12 -11 75 -2 75 10 0 20 57 6 90 -21 42 -36 46 -37 54
-5 6 25 7 25 38 9 25 -13 32 -14 39 -2 7 10 10 8 15 -9 8 -28 24 -30 31 -3 3
11 9 17 14 15 12 -8 89 69 89 89 0 21 12 20 38 -2 15 -14 18 -22 10 -36 -13
-23 -2 -33 20 -19 9 6 17 22 17 37 -1 15 5 26 12 26 7 0 12 4 11 9 -2 5 5 16
15 23 14 10 19 30 21 77 2 34 8 67 14 73 12 12 4 48 -12 48 -7 0 -16 -4 -22
-9 -5 -6 -16 -4 -29 5 -16 12 -18 18 -7 34 17 28 16 30 -18 30 -26 0 -30 4
-32 28 -6 107 -11 122 -44 122 -14 0 -30 10 -40 24 -8 14 -29 28 -45 31 -33 7
-56 34 -83 93 -12 26 -29 45 -48 53 -16 7 -36 23 -45 35 -8 13 -19 22 -23 19
-5 -3 -11 3 -15 14 -3 10 -16 30 -29 44 -13 14 -28 39 -34 56 -10 29 -10 31 8
21 18 -10 20 -7 20 24 0 36 -34 106 -52 106 -7 0 -6 -5 1 -13 13 -17 4 -28
-17 -20 -13 5 -14 0 -8 -35 6 -41 6 -42 -23 -42 -28 0 -29 -2 -21 -32 4 -18
11 -41 15 -50 10 -26 -37 -34 -79 -14 -43 20 -50 20 -41 -1 4 -10 8 -23 9 -30
4 -25 4 -25 139 -33 10 -1 22 -12 27 -25 12 -32 3 -56 -36 -98 -13 -14 8 -67
27 -67 6 0 7 5 4 10 -3 6 -1 10 6 10 10 0 10 3 1 12 -21 21 -13 29 13 12 17
-11 25 -12 25 -4 0 6 5 10 12 8 13 -5 19 -48 6 -48 -4 0 -8 5 -8 11 0 8 -5 8
-15 -1 -8 -7 -15 -19 -15 -26 0 -8 -10 -14 -25 -14 -16 0 -25 -6 -25 -15 0 -9
-10 -19 -23 -24 -18 -7 -23 -18 -25 -50 -2 -24 4 -50 13 -64 19 -29 10 -64
-11 -46 -11 9 -14 8 -14 -1 0 -9 -5 -8 -18 3 -28 26 -58 12 -56 -26 1 -18 2
-36 4 -42 1 -5 2 -24 1 -42 -1 -26 -4 -30 -20 -26 -24 6 -57 41 -48 50 8 8
-40 33 -62 32 -10 0 -11 -2 -3 -6 6 -2 12 -12 12 -20 0 -12 3 -13 14 -4 11 9
14 2 15 -44 0 -30 -3 -55 -9 -55 -5 0 -7 6 -4 14 3 8 -2 16 -13 19 -16 4 -16
5 0 6 9 0 17 6 17 12 0 5 -4 7 -10 4 -5 -3 -10 -1 -10 5 0 8 -7 9 -17 5 -10
-4 -30 -7 -45 -6 -22 1 -28 -3 -28 -18 0 -23 -51 -52 -79 -44 -28 7 -36 34
-12 40 12 3 17 11 14 22 -2 10 3 23 11 30 14 12 13 15 -9 33 -29 22 -33 41 -8
31 17 -7 17 -6 0 20 -22 34 -23 54 -1 36 13 -10 17 -10 25 2 8 12 11 11 20 -3
5 -10 17 -18 24 -18 9 0 15 -10 15 -25 0 -15 -6 -25 -14 -25 -8 0 -17 -4 -20
-9 -5 -7 58 -9 84 -2 3 0 6 16 6 34 1 17 4 58 7 89 4 43 2 58 -9 62 -7 3 -11
11 -8 19 2 7 -4 22 -16 32 -11 10 -20 23 -20 29 0 15 -67 76 -83 76 -21 -1
-47 -27 -47 -47 0 -25 35 -57 54 -50 8 3 20 -1 26 -9 7 -8 9 -14 6 -14 -4 0
-2 -8 3 -18 5 -10 6 -24 1 -32 -5 -8 -3 -22 6 -35 13 -20 13 -23 -1 -29 -12
-4 -20 4 -32 31 -10 26 -12 38 -4 41 22 7 11 32 -14 32 -14 0 -28 7 -31 15 -5
12 -9 13 -21 3 -11 -9 -19 -9 -34 0 -12 8 -34 10 -57 6 -60 -10 -72 -15 -72
-30 0 -9 -11 -14 -30 -14 -19 0 -33 -6 -37 -16 -4 -11 -13 -14 -29 -10 -17 5
-24 2 -24 -8 0 -7 -7 -19 -15 -26 -13 -11 -15 -7 -15 24 0 26 4 35 12 30 7 -5
9 -1 6 13 -4 15 1 24 19 32 20 9 24 16 19 37 -6 23 -5 24 13 14 22 -11 71 -4
71 11 0 5 6 9 14 9 8 0 20 17 27 38 6 20 16 42 21 49 5 7 7 21 4 31 -5 14 -1
21 15 25 12 3 29 2 38 -2 9 -5 31 -11 49 -14 27 -6 32 -4 32 13 0 11 7 20 15
20 14 0 14 3 -1 24 -8 14 -15 33 -14 43 4 33 0 43 -15 43 -18 0 -43 48 -38 72
3 12 -4 19 -24 24 -15 4 -41 18 -57 33 -17 15 -27 20 -24 11 3 -9 0 -24 -8
-35 -13 -17 -14 -16 -14 18 0 31 4 37 20 37 11 0 23 6 26 14 3 8 12 12 20 9 8
-3 25 2 38 11 21 13 24 22 22 66 -1 27 -6 53 -9 57 -13 12 -7 22 15 25 14 2
24 13 29 30 6 22 1 33 -27 62 -19 20 -37 49 -40 66 -5 24 -9 28 -20 19 -8 -6
-25 -8 -40 -5 -17 5 -23 3 -19 -4 3 -5 -1 -13 -9 -16 -9 -3 -16 -14 -16 -24 0
-25 -19 -35 -26 -16 -8 22 -26 20 -23 -1 3 -36 -2 -43 -29 -43 -15 0 -33 -5
-39 -11 -19 -19 -81 -20 -99 -2 -13 14 -17 14 -25 2 -5 -8 -9 -18 -9 -23 0 -4
-7 -5 -16 -2 -9 4 -23 1 -30 -5 -15 -12 -15 -12 -18 43 -1 16 -7 33 -14 40
-17 17 -15 31 3 24 10 -3 15 1 15 13 0 10 8 29 18 41 16 19 17 29 8 61 -5 21
-7 42 -3 46 12 11 161 -17 170 -33 11 -19 53 -18 61 1 3 8 12 15 21 15 8 0 15
5 15 12 0 6 3 9 6 6 3 -4 15 3 26 14 17 17 20 30 16 89 l-4 69 31 -30 c26 -26
28 -33 18 -50 -16 -24 -7 -50 17 -50 11 0 22 -5 25 -10 15 -24 35 13 35 62 0
49 0 50 28 44 33 -7 57 6 49 28 -4 11 3 21 24 32 22 11 28 19 20 28 -11 14 -3
57 13 68 7 5 3 17 -10 35 -43 58 -34 110 23 127 19 6 21 11 13 32 -5 13 -6 24
-2 24 4 0 -2 8 -13 16 -14 11 -16 18 -7 21 18 7 14 31 -8 45 -29 18 -28 93 1
108 12 7 18 18 15 26 -3 8 0 14 8 14 16 0 38 41 36 66 -5 42 0 54 23 54 12 0
29 4 37 10 9 6 17 5 22 -3 6 -9 8 -9 8 1 0 38 -73 98 -106 85 -16 -6 -20 12
-4 22 6 3 10 12 10 18 0 7 -7 4 -14 -5 -7 -10 -25 -18 -40 -18 -21 0 -28 -6
-33 -30 -3 -17 -18 -41 -34 -55 -16 -13 -29 -33 -29 -44 0 -17 -5 -19 -34 -14
-27 4 -36 1 -49 -18 -14 -19 -26 -23 -66 -23 -28 0 -57 6 -66 14 -16 13 -15
15 5 32 20 16 21 18 4 19 -11 1 -23 1 -28 0 -5 -1 -16 4 -25 12 -47 40 -91 23
-91 -34 l0 -37 -42 5 c-47 6 -76 23 -40 23 15 0 22 6 22 19 0 11 5 21 12 23 8
3 5 16 -11 41 -20 33 -21 40 -10 66 7 16 17 27 21 25 4 -3 8 4 8 15 0 11 5 23
10 26 13 8 4 43 -17 67 -10 11 -11 18 -3 23 17 10 -30 57 -52 52 -9 -3 -19 1
-22 9 -3 8 -12 14 -21 14 -16 0 -18 14 -15 86 1 23 -3 45 -9 49 -20 11 -12 25
15 25 23 0 24 1 10 16 -19 18 -21 54 -4 54 9 0 9 3 0 12 -7 7 -12 20 -12 29 0
10 -14 32 -32 49 -29 29 -30 33 -14 42 37 21 56 48 56 82 0 29 -3 34 -22 33
-13 0 -44 3 -70 7 -40 7 -48 6 -48 -7z m-4645 -497 c3 -5 1 -10 -4 -10 -6 0
-11 5 -11 10 0 6 2 10 4 10 3 0 8 -4 11 -10z m66 -161 c-13 -14 -21 -18 -21
-9 0 13 32 42 38 35 2 -2 -5 -14 -17 -26z m7 -57 c17 -2 32 -10 32 -17 0 -7 6
-15 13 -18 8 -3 5 -12 -11 -28 -19 -21 -25 -22 -43 -11 -12 8 -19 10 -16 5 3
-5 -8 -15 -25 -22 -26 -12 -35 -11 -63 2 -20 10 -36 12 -42 6 -11 -11 -73 -21
-73 -11 0 3 10 27 21 53 21 45 23 47 60 43 21 -2 49 1 61 6 13 5 30 6 38 3 8
-3 30 -8 48 -11z m3394 -242 c12 -11 28 -20 35 -20 7 0 13 -4 13 -10 0 -5 -10
-8 -22 -6 -13 2 -22 9 -20 15 3 16 -14 14 -32 -5 -9 -8 -16 -17 -16 -18 0 -9
51 -56 60 -56 5 0 10 -4 10 -10 0 -5 15 -16 34 -25 26 -13 36 -24 41 -51 3
-20 9 -42 12 -50 3 -8 -1 -14 -11 -14 -9 0 -16 6 -16 14 0 21 -17 28 -24 10
-3 -8 -2 -12 4 -9 6 3 10 -1 10 -10 0 -8 -6 -18 -14 -21 -12 -4 -13 -12 -5
-32 9 -22 7 -30 -11 -44 -22 -18 -50 -15 -50 6 0 24 -18 40 -32 29 -7 -7 -31
-13 -53 -15 -35 -3 -40 0 -38 17 1 11 -4 37 -12 58 -19 47 -19 44 5 50 17 4
20 14 20 56 0 36 5 53 17 59 12 7 15 18 10 46 -6 35 5 57 18 36 3 -5 11 -10
16 -10 6 0 8 4 5 9 -5 8 3 15 22 20 2 1 12 -8 24 -19z m1713 1 c3 -5 1 -12 -5
-16 -5 -3 -10 1 -10 9 0 18 6 21 15 7z m-779 -325 c20 -21 31 -41 28 -50 -3
-8 2 -17 13 -20 15 -5 18 -17 18 -66 0 -33 -3 -60 -7 -60 -20 0 -36 13 -31 26
3 8 -1 14 -11 14 -9 0 -16 7 -16 16 0 8 5 12 10 9 6 -3 10 -1 10 4 0 6 -5 11
-11 11 -6 0 -8 9 -4 20 5 16 -2 29 -30 54 -32 30 -35 37 -26 55 15 28 18 27
57 -13z m-766 -526 c0 -5 -10 -10 -22 -10 -19 0 -20 2 -8 10 19 13 30 13 30 0z
m-3980 -10 c0 -5 -2 -10 -4 -10 -3 0 -8 5 -11 10 -3 6 -1 10 4 10 6 0 11 -4
11 -10z m40 -11 c0 -14 -17 -10 -23 5 -4 10 -1 13 9 9 7 -3 14 -9 14 -14z
m5430 -69 c0 -5 -4 -10 -10 -10 -5 0 -10 5 -10 10 0 6 5 10 10 10 6 0 10 -4
10 -10z m-5639 -153 c-13 -13 -26 -3 -16 12 3 6 11 8 17 5 6 -4 6 -10 -1 -17z
m5469 -101 c7 -20 8 -20 15 -2 5 11 3 21 -6 27 -8 5 -9 9 -4 9 19 0 32 -15 43
-49 10 -28 9 -37 -3 -51 -8 -9 -15 -21 -15 -27 0 -13 -28 -25 -33 -15 -12 22
-16 62 -6 68 7 4 7 9 2 13 -15 9 -27 64 -13 56 6 -4 15 -17 20 -29z m-4648
-51 c4 -19 1 -25 -12 -25 -16 0 -17 3 -7 25 7 14 13 25 13 25 1 0 4 -11 6 -25z
m65 -25 c7 0 21 -12 32 -26 l21 -26 -21 -30 c-21 -29 -21 -29 -43 -10 -11 11
-41 30 -66 42 -78 38 -100 51 -100 61 0 5 3 9 6 9 9 0 76 -42 92 -57 15 -15
36 -18 28 -4 -4 5 -1 11 5 13 9 3 9 9 0 25 -19 36 -13 48 12 25 13 -12 28 -22
34 -22z m-194 15 c-6 -18 -34 -16 -41 3 -2 7 6 12 22 12 19 0 24 -4 19 -15z
m301 -155 c4 0 4 6 0 13 -4 6 2 4 12 -6 15 -13 16 -20 6 -26 -7 -4 -11 -23
-10 -44 2 -23 7 -32 13 -26 15 15 25 11 25 -11 0 -10 7 -23 16 -28 27 -15 -8
-34 -50 -26 -37 6 -43 13 -26 30 6 6 0 9 -15 9 -14 0 -25 -3 -25 -6 0 -3 -14
-4 -31 -1 -28 4 -30 7 -27 41 2 24 8 35 17 33 7 -1 19 2 27 9 7 6 18 8 24 4 5
-3 10 2 10 14 0 11 -5 23 -10 26 -6 4 -8 11 -4 16 4 6 13 4 23 -5 10 -9 21
-16 25 -16z m2136 -10 c0 -5 -2 -10 -4 -10 -3 0 -8 5 -11 10 -3 6 -1 10 4 10
6 0 11 -4 11 -10z m195 -71 c-3 -5 1 -6 9 -3 11 4 16 0 16 -10 0 -21 -26 -21
-34 0 -9 24 -7 36 4 29 6 -4 8 -11 5 -16z m-2582 -26 c-7 -2 -19 -2 -25 0 -7
3 -2 5 12 5 14 0 19 -2 13 -5z m2590 -68 c4 -8 2 -17 -3 -20 -6 -4 -10 3 -10
14 0 25 6 27 13 6z m1769 -57 c-9 -9 -15 -9 -24 0 -10 10 -10 15 2 22 20 12
38 -6 22 -22z m-1957 -118 c3 -5 2 -10 -4 -10 -5 0 -13 5 -16 10 -3 6 -2 10 4
10 5 0 13 -4 16 -10z m1310 1 c10 -17 -12 -21 -25 -6 -10 12 -10 15 3 15 9 0
18 -4 22 -9z m639 -17 c13 -5 14 -9 5 -20 -17 -21 -38 -17 -32 6 6 23 5 22 27
14z m-1364 -34 c0 -5 -4 -10 -10 -10 -5 0 -10 5 -10 10 0 6 5 10 10 10 6 0 10
-4 10 -10z m1420 -40 c0 -5 -4 -10 -10 -10 -5 0 -10 5 -10 10 0 6 5 10 10 10
6 0 10 -4 10 -10z m1115 -31 c4 -6 13 -8 21 -5 13 5 30 -11 21 -20 -6 -6 -77
22 -77 30 0 10 29 6 35 -5z m75 -48 c0 -6 -4 -13 -10 -16 -5 -3 -10 1 -10 9 0
9 5 16 10 16 6 0 10 -4 10 -9z m-1465 -20 c3 -11 15 -23 26 -26 22 -7 26 -45
4 -45 -8 0 -15 6 -15 13 0 8 -11 24 -25 37 -28 26 -32 40 -11 40 8 0 17 -9 21
-19z m1345 -130 c0 -11 -31 -24 -38 -16 -3 3 0 5 7 5 7 0 9 5 6 10 -3 6 1 10
9 10 9 0 16 -4 16 -9z m-726 -209 c15 -18 15 -19 -9 -30 -33 -15 -68 -15 -83
0 -19 19 -14 29 12 22 16 -4 25 -1 29 10 8 21 30 20 51 -2z"/>
<path d="M7770 9486 c0 -2 7 -9 15 -16 12 -10 15 -10 15 4 0 9 -7 16 -15 16
-8 0 -15 -2 -15 -4z"/>
<path d="M11555 11870 c3 -5 8 -10 11 -10 2 0 4 5 4 10 0 6 -5 10 -11 10 -5 0
-7 -4 -4 -10z"/>
<path d="M12744 11563 c-3 -10 -10 -30 -16 -45 -9 -23 -6 -32 16 -59 14 -17
26 -34 26 -38 0 -5 11 -19 24 -32 24 -25 35 -56 25 -74 -3 -5 -1 -20 6 -32 10
-20 12 -18 12 23 0 24 5 50 11 56 8 8 8 17 1 30 -6 12 -6 18 1 18 5 0 10 6 10
14 0 8 4 16 9 18 6 2 7 21 4 43 -5 36 -10 42 -56 65 -28 14 -55 26 -59 28 -4
2 -11 -5 -14 -15z"/>
<path d="M13030 11546 c0 -7 -9 -21 -21 -32 l-21 -19 24 -7 23 -6 -22 -7 c-13
-4 -20 -11 -17 -16 8 -13 44 -11 44 2 0 8 5 7 15 -1 18 -15 20 -13 29 18 4 13
3 22 -3 22 -5 0 -9 12 -8 26 2 21 -3 28 -20 30 -14 3 -23 -1 -23 -10z"/>
<path d="M6070 11406 c0 -13 -7 -29 -15 -36 -21 -17 -19 -30 5 -30 15 0 20 7
20 25 0 16 6 25 15 25 18 0 19 12 3 28 -18 18 -28 14 -28 -12z"/>
<path d="M13065 11420 c-3 -5 -11 -7 -17 -4 -6 4 -9 1 -6 -7 3 -8 15 -16 29
-17 13 -2 29 -8 36 -13 7 -6 13 -6 17 -1 3 6 -1 15 -9 22 -8 7 -15 9 -15 4 0
-5 -7 -1 -14 9 -9 12 -16 14 -21 7z"/>
<path d="M6009 11352 c-1 -7 -2 -18 -3 -24 -1 -7 -7 -18 -15 -24 -11 -9 -11
-17 -2 -47 7 -20 12 -44 11 -54 -4 -32 0 -34 25 -17 14 9 25 23 25 31 0 9 6
13 14 10 24 -10 28 25 6 55 -11 15 -20 31 -20 36 0 14 -40 47 -41 34z"/>
<path d="M12962 11230 c7 -23 7 -34 -2 -46 -11 -12 -10 -17 6 -28 22 -17 40
-10 24 9 -8 9 -8 15 0 20 12 7 2 57 -14 67 -21 14 -25 8 -14 -22z"/>
<path d="M12900 11199 c0 -8 9 -20 20 -27 11 -7 20 -8 20 -4 0 5 -9 17 -20 27
-15 14 -20 15 -20 4z"/>
<path d="M12950 11130 c-9 -6 -10 -10 -3 -10 6 0 15 5 18 10 8 12 4 12 -15 0z"/>
<path d="M8887 10589 c7 -7 15 -10 18 -7 3 3 -2 9 -12 12 -14 6 -15 5 -6 -5z"/>
<path d="M5810 10405 c0 -5 5 -17 10 -25 5 -8 10 -10 10 -5 0 6 -5 17 -10 25
-5 8 -10 11 -10 5z"/>
<path d="M5607 10353 c-10 -10 -8 -23 4 -23 5 0 8 4 5 9 -4 5 0 12 6 14 7 3 8
6 2 6 -6 1 -14 -2 -17 -6z"/>
<path d="M5789 10336 c-5 -6 -9 -16 -9 -23 0 -17 -35 -11 -80 12 -18 9 -29 12
-25 5 7 -11 -69 -90 -86 -90 -5 0 -9 -5 -9 -12 0 -6 -8 -4 -19 6 -18 17 -19
16 -25 -2 -4 -11 -14 -23 -22 -26 -10 -4 -13 -13 -10 -24 4 -12 -3 -27 -19
-42 -13 -12 -22 -27 -19 -32 8 -12 -34 -58 -64 -69 -32 -12 -47 -57 -27 -79 8
-9 13 -19 10 -22 -3 -3 1 -11 10 -18 27 -23 18 -48 -20 -56 -19 -3 -35 -10
-35 -14 0 -13 -51 -8 -57 6 -3 8 -9 14 -15 14 -5 0 -6 -4 -3 -10 3 -5 -1 -10
-9 -10 -9 0 -16 4 -16 9 0 5 -9 12 -19 16 -10 3 -21 15 -24 25 -3 11 -12 20
-21 20 -20 0 -20 -5 0 -35 8 -13 14 -34 12 -47 -2 -15 4 -26 17 -33 11 -6 21
-20 23 -31 3 -20 74 -59 80 -44 2 5 9 7 16 4 18 -7 29 25 15 42 -13 15 -4 17
26 4 13 -5 26 -3 35 5 8 7 27 14 41 17 26 5 27 3 31 -42 2 -12 6 -16 11 -11 6
6 19 6 34 0 30 -11 73 -1 73 17 0 8 5 14 10 14 7 0 8 -6 2 -16 -7 -12 -3 -27
15 -53 19 -28 24 -45 20 -74 -4 -30 -1 -39 14 -48 10 -5 26 -25 34 -45 8 -19
22 -37 32 -40 10 -3 37 -14 59 -24 25 -11 45 -15 50 -10 12 12 74 -25 74 -44
0 -8 15 -16 38 -20 22 -3 50 -14 63 -25 13 -10 44 -22 69 -26 25 -4 54 -14 65
-21 28 -20 35 -17 35 11 0 14 -5 25 -11 25 -5 0 -8 4 -4 9 3 5 31 15 63 21 62
13 72 21 72 61 0 24 4 27 49 33 77 10 74 55 -5 102 -10 6 -21 21 -24 34 -6 26
-31 38 -73 36 -22 -1 -36 7 -59 36 -16 21 -38 38 -48 38 -18 0 -80 62 -80 80
0 5 -14 23 -31 41 -38 39 -55 79 -34 79 19 0 19 4 0 39 -8 16 -11 32 -7 35 3
4 -6 3 -20 -3 -32 -12 -44 0 -29 28 9 16 4 27 -34 65 -24 25 -41 46 -37 46 3
0 -4 8 -17 17 l-24 16 29 24 c16 12 24 23 18 23 -15 0 -12 74 5 93 7 10 12 17
10 18 -28 5 -82 2 -90 -5z m-269 -542 c0 -9 -7 -14 -17 -12 -25 5 -28 28 -4
28 12 0 21 -6 21 -16z"/>
<path d="M12543 10263 c10 -15 -2 -43 -18 -43 -18 0 -15 -68 3 -75 12 -4 12
-2 4 8 -7 8 -8 17 -4 21 4 4 7 13 7 19 0 23 31 17 45 -8 17 -32 40 -32 40 0 0
14 4 25 9 25 4 0 6 10 4 23 -3 16 -12 22 -31 23 -15 0 -36 4 -46 9 -13 6 -17
5 -13 -2z"/>
<path d="M13047 10134 c-3 -4 -3 -19 0 -35 7 -38 -17 -91 -39 -85 -15 3 -17
-2 -14 -32 7 -61 16 -75 72 -122 29 -25 54 -52 55 -60 0 -11 2 -12 6 -2 3 8
-15 33 -41 58 -49 47 -57 64 -28 64 15 0 17 11 16 101 -1 92 -10 130 -27 113z"/>
<path d="M5292 9883 c2 -10 11 -19 21 -21 12 -2 15 1 11 12 -8 22 -36 30 -32
9z"/>
<path d="M5440 9722 c0 -4 7 -18 16 -31 12 -17 19 -20 28 -11 8 8 7 15 -6 24
-10 7 -15 16 -11 19 3 4 -1 7 -10 7 -9 0 -17 -3 -17 -8z"/>
<path d="M12940 9565 c0 -8 5 -15 10 -15 6 0 10 7 10 15 0 8 -4 15 -10 15 -5
0 -10 -7 -10 -15z"/>
<path d="M7070 9553 c-49 -6 -56 -17 -33 -55 23 -37 37 -88 25 -88 -4 0 -16 9
-25 21 -17 20 -19 20 -44 4 -32 -21 -45 -6 -32 38 5 18 5 36 -1 46 -8 14 -9
13 -10 -5 0 -11 -11 -31 -25 -44 -19 -18 -31 -22 -60 -17 -30 5 -35 3 -35 -14
0 -13 -7 -19 -24 -19 -19 0 -25 -6 -28 -30 -3 -16 -1 -30 3 -30 4 0 9 -6 12
-14 4 -11 -4 -9 -29 6 -39 23 -55 17 -36 -12 15 -25 15 -75 0 -99 -10 -16 -7
-25 20 -55 17 -20 29 -42 26 -50 -3 -8 1 -27 10 -43 14 -26 15 -26 16 -5 0 12
4 22 9 22 5 0 11 11 13 25 3 14 1 25 -3 25 -5 0 -6 7 -3 15 4 8 2 21 -4 28
-15 18 -18 59 -5 82 6 11 8 26 5 34 -3 10 5 9 29 -6 37 -22 102 -36 163 -34
27 0 47 -6 61 -19 21 -20 47 -22 73 -6 8 5 20 2 31 -8 19 -18 62 -21 77 -7 5
5 25 11 44 13 26 2 35 7 34 21 -1 9 3 17 10 16 30 -4 40 1 28 13 -18 18 -15
28 8 28 11 0 20 -5 20 -11 0 -8 5 -7 15 1 14 12 14 15 0 30 -8 9 -12 20 -8 23
11 11 -6 8 -27 -5 -16 -10 -23 -9 -45 12 -18 17 -25 32 -22 48 4 23 -28 57
-44 46 -5 -3 -11 6 -14 19 -7 25 -61 52 -87 42 -8 -3 -21 1 -28 10 -7 8 -15
14 -19 13 -3 0 -22 -3 -41 -5z"/>
<path d="M11690 9459 c0 -6 -6 -9 -12 -7 -11 4 -38 -14 -38 -24 0 -3 13 -14
29 -26 26 -19 28 -19 24 -3 -2 10 3 25 11 34 20 19 20 23 1 31 -8 3 -15 1 -15
-5z"/>
<path d="M11540 9426 c0 -8 43 -46 53 -46 4 0 7 10 5 23 -2 16 -11 23 -30 25
-16 2 -28 1 -28 -2z"/>
<path d="M9636 9331 c-4 -6 -12 -8 -19 -5 -13 5 -57 -30 -57 -46 0 -5 5 -12
10 -15 6 -3 10 -19 10 -36 0 -21 5 -29 17 -29 13 0 14 3 5 12 -17 17 -15 33 2
19 7 -6 25 -10 39 -9 25 2 25 3 10 20 -15 17 -15 18 0 18 11 0 18 9 19 25 0
14 1 31 2 37 1 16 -30 23 -38 9z"/>
<path d="M9741 9319 c7 -15 7 -24 -1 -33 -8 -10 -5 -15 11 -19 15 -4 19 -2 15
9 -4 10 2 14 19 14 37 0 30 15 -15 33 -39 15 -40 15 -29 -4z"/>
<path d="M7400 9280 c0 -5 5 -10 11 -10 5 0 7 5 4 10 -3 6 -8 10 -11 10 -2 0
-4 -4 -4 -10z"/>
<path d="M9697 9256 c-3 -8 0 -17 8 -20 14 -5 28 17 18 28 -10 10 -21 7 -26
-8z"/>
<path d="M9542 9220 c0 -14 2 -19 5 -12 2 6 2 18 0 25 -3 6 -5 1 -5 -13z"/>
<path d="M12956 9139 c6 -8 10 -26 9 -41 0 -16 4 -28 10 -28 7 0 11 15 10 37
-1 29 -5 39 -20 42 -15 2 -17 0 -9 -10z"/>
<path d="M9927 9095 c3 -13 16 -31 29 -40 21 -14 24 -23 24 -80 0 -35 -4 -67
-10 -70 -28 -17 23 -88 58 -79 15 4 21 -1 26 -21 6 -22 9 -25 21 -15 11 9 12
17 5 30 -14 27 -12 60 3 60 23 0 52 40 49 66 -2 13 1 24 7 24 12 0 10 27 -3
48 -4 7 -13 11 -20 9 -6 -3 -20 1 -31 9 -10 8 -26 14 -34 14 -8 0 -29 13 -46
29 -16 16 -42 31 -56 35 -23 5 -26 3 -22 -19z"/>
<path d="M11506 9101 c-16 -25 -13 -66 4 -89 11 -13 20 -31 20 -38 0 -8 7 -14
15 -14 8 0 15 6 15 14 0 7 6 26 14 41 13 25 13 30 -6 56 -21 27 -54 44 -62 30z"/>
<path d="M6788 9038 c-10 -10 -13 -18 -7 -18 6 0 9 -7 5 -15 -5 -13 30 -42 44
-36 3 1 7 -6 8 -15 3 -13 -1 -16 -21 -12 -24 5 -24 3 -20 -36 3 -23 13 -50 23
-61 13 -15 16 -32 13 -65 -4 -44 -3 -44 11 -18 8 15 15 51 15 80 1 29 2 68 3
86 1 24 -6 41 -30 65 -23 24 -29 36 -21 44 6 6 7 13 2 15 -4 3 -16 -3 -25 -14z"/>
<path d="M11684 8875 c26 -19 42 -19 26 0 -7 8 -20 15 -29 15 -13 -1 -13 -3 3
-15z"/>
<path d="M9864 8779 c8 -12 12 -27 9 -35 -4 -11 -11 -11 -41 2 -21 8 -38 19
-40 23 -1 4 -14 6 -27 3 -19 -3 -25 -11 -25 -31 0 -30 7 -42 36 -58 16 -9 24
-9 33 0 6 6 12 9 12 7 2 -5 7 -51 10 -80 1 -8 8 -23 17 -32 12 -14 12 -21 3
-32 -7 -8 -18 -13 -24 -10 -8 3 -12 -14 -13 -53 l-2 -57 28 29 c15 17 35 35
45 41 10 6 23 24 28 40 5 16 18 38 28 50 11 11 19 28 19 38 0 9 6 29 14 44 17
35 26 106 15 123 -5 8 -9 10 -9 4 0 -13 -97 -18 -105 -5 -3 5 -11 10 -16 10
-6 0 -3 -10 5 -21z"/>
<path d="M6813 8705 c-18 -20 -16 -25 7 -25 13 0 20 7 20 20 0 23 -10 25 -27
5z"/>
<path d="M6760 8650 c0 -5 -7 -10 -15 -10 -8 0 -15 -4 -15 -9 0 -9 -45 -6 -61
4 -3 3 -7 -14 -7 -38 0 -23 -3 -58 -7 -78 -6 -31 -12 -38 -38 -44 -18 -4 -36
-7 -42 -6 -5 2 -2 -6 8 -17 26 -29 21 -37 -29 -39 -32 -1 -47 3 -51 13 -5 13
-8 12 -24 -2 -20 -18 -27 -84 -9 -84 6 0 10 -8 10 -19 0 -10 9 -21 20 -24 13
-3 20 0 20 9 0 8 7 17 15 20 8 3 17 15 21 26 4 15 12 18 30 14 13 -4 24 -2 24
3 0 6 6 8 13 5 18 -6 42 22 27 31 -6 3 -8 11 -5 16 4 5 2 16 -3 26 -8 13 -3
20 22 33 17 8 30 21 28 28 -4 19 18 53 29 46 18 -11 49 27 43 53 -4 13 -1 30
6 38 9 10 9 15 1 15 -6 0 -11 -4 -11 -10z"/>
<path d="M12930 8604 c0 -3 5 -15 11 -26 8 -16 13 -18 19 -8 5 8 3 19 -5 27
-14 14 -25 17 -25 7z"/>
<path d="M12917 8538 c-8 -29 0 -36 19 -17 13 14 13 17 1 28 -12 9 -16 7 -20
-11z"/>
<path d="M12980 8551 c0 -6 5 -13 10 -16 6 -3 10 1 10 9 0 9 -4 16 -10 16 -5
0 -10 -4 -10 -9z"/>
<path d="M9727 8346 c-15 -22 -15 -25 0 -38 15 -11 16 -11 10 6 -4 10 -2 25 4
33 7 7 10 16 7 19 -3 2 -12 -6 -21 -20z"/>
<path d="M6450 8288 c0 -19 2 -20 10 -8 13 19 13 30 0 30 -5 0 -10 -10 -10
-22z"/>
<path d="M9727 8258 c-4 -12 -4 -33 0 -46 4 -16 0 -27 -13 -37 -11 -8 -14 -15
-8 -15 25 0 44 36 39 75 -6 47 -11 53 -18 23z"/>
<path d="M6450 8235 c7 -8 16 -15 21 -15 5 0 6 7 3 15 -4 8 -13 15 -21 15 -13
0 -13 -3 -3 -15z"/>
<path d="M9685 8230 c4 -6 11 -8 16 -5 14 9 11 15 -7 15 -8 0 -12 -5 -9 -10z"/>
<path d="M6455 8186 c11 -8 24 -12 28 -9 11 7 -12 23 -32 23 -11 0 -9 -4 4
-14z"/>
<path d="M9617 8117 c3 -5 -2 -16 -10 -25 -7 -9 -17 -25 -21 -36 -5 -14 -13
-17 -35 -13 -23 5 -30 2 -40 -19 -6 -14 -11 -31 -11 -38 0 -21 -45 -56 -73
-56 -21 0 -27 -5 -27 -22 0 -36 -12 -45 -56 -42 -35 1 -44 -2 -54 -21 -7 -13
-10 -31 -7 -39 8 -21 37 -20 37 1 0 15 1 15 18 0 10 -10 28 -17 40 -17 12 0
30 -13 42 -30 12 -16 30 -30 40 -30 10 0 20 -6 23 -14 9 -22 41 -12 55 17 7
14 21 28 31 32 28 9 41 65 25 111 -8 22 -14 40 -14 42 0 1 13 2 29 2 26 0 29
4 33 36 2 19 0 37 -4 40 -13 8 -9 24 5 24 24 0 47 36 47 74 0 36 0 36 -39 34
-21 -2 -37 -7 -34 -11z"/>
<path d="M9545 7710 c-3 -5 7 -18 22 -27 31 -20 39 -59 17 -81 -8 -7 -14 -19
-14 -27 0 -7 -7 -16 -15 -19 -14 -5 -14 -9 1 -38 l16 -32 20 27 c10 14 24 24
31 22 7 -3 18 -1 26 4 10 7 11 13 2 29 -6 12 -10 34 -9 49 2 33 -17 73 -36 73
-8 0 -19 7 -26 15 -14 17 -26 19 -35 5z"/>
<path d="M9694 7705 c-4 -8 -12 -15 -20 -15 -8 0 -14 -5 -14 -11 0 -5 -5 -7
-12 -3 -7 4 -8 3 -4 -4 5 -9 14 -7 31 4 21 14 41 44 29 44 -2 0 -7 -7 -10 -15z"/>
<path d="M9540 7481 c0 -6 5 -13 10 -16 6 -3 10 1 10 9 0 9 -4 16 -10 16 -5 0
-10 -4 -10 -9z"/>
</g>
</svg>
