<?xml version="1.0" standalone="no"?>
<!DOCTYPE svg PUBLIC "-//W3C//DTD SVG 20010904//EN"
 "http://www.w3.org/TR/2001/REC-SVG-20010904/DTD/svg10.dtd">
<svg version="1.0" xmlns="http://www.w3.org/2000/svg"
 width="548.214378pt" height="345.468603pt" viewBox="0 0 548.214378 345.468603"
 preserveAspectRatio="xMidYMid meet">
<metadata>
Created by potrace 1.15, written by Peter Selinger 2001-2017
</metadata>
<g transform="translate(-667.770399,1187.000000) scale(0.100000,-0.100000)"
fill="#222222" stroke="none">
<path d="M8400 11859 c0 -5 5 -7 10 -4 6 3 10 8 10 11 0 2 -4 4 -10 4 -5 0
-10 -5 -10 -11z"/>
<path d="M8383 11832 c-13 -8 -6 -52 8 -52 5 0 9 14 9 30 0 33 0 33 -17 22z"/>
<path d="M10774 11764 c11 -45 28 -55 24 -15 -2 19 -9 37 -17 39 -11 4 -12 -2
-7 -24z"/>
<path d="M8368 11713 c21 -8 2 -23 -22 -17 -17 4 -30 -1 -44 -16 -11 -12 -25
-19 -31 -15 -15 9 -14 -6 4 -50 9 -20 13 -45 10 -55 -3 -11 0 -32 8 -47 8 -15
12 -33 10 -39 -2 -7 6 -10 22 -6 20 3 25 9 22 24 -4 14 2 22 19 28 38 15 32
48 -11 56 -51 9 -58 30 -22 65 16 16 33 29 37 29 4 0 12 11 18 25 11 23 9 25
-11 24 -12 0 -16 -3 -9 -6z"/>
<path d="M10763 11624 c8 -26 16 -34 33 -34 30 0 23 20 -15 48 l-29 21 11 -35z"/>
<path d="M10789 11561 c-9 -10 -13 -25 -9 -36 3 -9 4 -31 2 -47 -4 -26 -7 -28
-33 -23 -35 8 -35 4 -7 -39 19 -28 28 -34 55 -33 24 2 33 7 33 20 0 12 8 17
25 17 22 0 24 -3 15 -19 -5 -11 -15 -22 -22 -25 -11 -5 -11 -7 0 -12 7 -3 17
-15 23 -26 10 -18 9 -20 -5 -15 -9 4 -16 2 -16 -4 0 -6 -7 -9 -15 -5 -8 3 -15
0 -15 -7 0 -13 -55 -41 -79 -40 -15 1 -41 -20 -41 -34 0 -5 15 -7 33 -5 27 3
37 -1 50 -22 10 -14 23 -26 30 -26 7 0 21 -15 32 -32 10 -18 38 -52 62 -76 50
-50 55 -72 17 -72 -23 0 -25 -3 -20 -27 6 -22 0 -33 -35 -69 -40 -41 -42 -46
-42 -104 0 -33 -4 -60 -9 -60 -5 0 -3 -10 3 -22 9 -17 9 -24 -4 -33 -9 -6 -16
-31 -18 -60 -3 -36 -9 -53 -23 -61 -10 -6 -20 -23 -22 -38 -1 -14 2 -24 7 -21
5 4 9 1 9 -4 0 -15 -33 -14 -48 1 -10 10 -15 10 -21 -1 -5 -7 -14 -11 -20 -7
-7 5 -8 1 -4 -10 4 -12 3 -15 -5 -10 -7 4 -12 2 -12 -6 0 -8 -5 -6 -11 5 -6
10 -8 29 -5 42 3 13 2 27 -4 30 -5 3 -10 16 -10 28 0 12 -12 45 -27 74 -27 51
-27 53 -11 81 9 16 16 39 16 53 -2 32 -44 99 -62 99 -8 0 -21 3 -30 6 -10 4
-16 1 -16 -9 0 -8 -6 -20 -14 -26 -11 -9 -15 -4 -20 27 -4 28 -13 42 -33 53
-32 16 -57 40 -61 59 -26 115 -30 145 -19 153 7 5 3 6 -10 2 -14 -4 -23 -2
-23 4 0 6 5 11 11 11 5 0 7 5 3 11 -3 6 -1 15 7 19 8 6 14 34 15 83 l3 74 -44
36 c-24 21 -49 37 -54 37 -6 0 -11 7 -11 16 0 12 -6 10 -21 -10 -19 -25 -49
-36 -49 -18 0 13 -48 33 -55 22 -3 -4 -24 -11 -48 -15 -23 -4 -48 -12 -54 -17
-9 -7 -13 -7 -13 1 0 24 -25 40 -46 28 -25 -14 -34 -27 -34 -55 0 -14 -15 -38
-35 -58 -19 -18 -35 -38 -35 -43 0 -5 -15 -8 -32 -7 -33 2 -67 -24 -68 -51 0
-7 -7 -13 -16 -13 -11 0 -15 -6 -11 -20 3 -13 -1 -21 -14 -25 -10 -4 -19 -11
-19 -16 0 -5 -17 -8 -39 -5 -25 3 -46 -1 -61 -11 -18 -13 -26 -13 -45 -3 -35
19 -46 5 -29 -35 8 -19 10 -35 5 -35 -17 0 -19 -55 -3 -85 9 -18 17 -25 20
-17 3 10 9 10 28 -3 15 -10 24 -11 24 -4 0 7 9 6 24 -4 25 -17 36 -13 36 10 0
7 -9 13 -20 13 -13 0 -17 5 -14 14 10 26 37 28 56 4 15 -20 19 -21 28 -8 9 13
11 13 20 0 7 -11 4 -20 -13 -34 -16 -14 -17 -18 -4 -13 9 4 17 2 17 -3 0 -5
11 -12 25 -16 18 -4 25 -13 25 -30 0 -21 5 -24 35 -24 l36 0 -16 30 c-16 32
-4 42 15 13 8 -13 13 -14 16 -5 3 6 19 12 35 12 21 0 27 4 23 15 -9 21 15 46
40 43 13 -2 20 2 19 10 -3 14 -1 15 30 3 19 -7 29 -6 43 8 25 23 54 34 81 32
12 -1 30 6 40 16 11 11 32 19 48 18 17 -1 34 1 39 4 6 2 20 5 31 6 17 0 21 -5
19 -25 -6 -52 -22 -110 -33 -124 -16 -19 -16 -98 0 -127 6 -13 13 -39 15 -59
5 -52 16 -94 27 -101 5 -4 5 -14 -2 -27 -6 -11 -8 -28 -5 -36 3 -9 2 -16 -4
-16 -5 0 -7 -12 -4 -26 3 -19 1 -25 -7 -20 -26 17 -8 -16 32 -54 35 -34 48
-40 75 -37 28 3 36 -2 53 -30 12 -19 19 -40 16 -47 -10 -24 12 -34 51 -24 20
5 49 11 64 13 35 4 50 14 42 28 -3 7 1 4 9 -5 8 -10 17 -18 20 -18 3 0 17 -4
32 -10 21 -8 24 -13 16 -28 -10 -18 10 -58 22 -45 4 3 7 -1 7 -10 0 -8 -9 -18
-19 -22 -15 -5 -32 -35 -30 -55 0 -2 -9 -7 -20 -12 -13 -4 -20 -15 -18 -25 4
-29 17 -43 32 -36 8 3 15 0 15 -6 0 -6 11 -16 25 -21 14 -5 28 -17 31 -25 4
-8 25 -24 49 -34 47 -21 58 -32 49 -54 -4 -12 -15 -9 -59 15 -30 16 -58 35
-62 43 -7 11 -17 11 -57 1 l-49 -13 36 -22 c42 -26 52 -50 48 -108 -2 -38 0
-44 23 -53 15 -5 29 -17 32 -25 4 -8 12 -15 19 -15 7 0 16 -7 19 -16 9 -24 8
-26 -14 -19 -16 5 -20 2 -20 -14 0 -12 5 -21 10 -21 6 0 10 5 10 10 0 6 11 10
25 10 14 0 25 5 25 11 0 16 19 0 34 -29 12 -23 12 -30 1 -45 -11 -15 -17 -16
-34 -8 -26 14 -36 -2 -15 -23 20 -21 30 -20 47 4 13 18 15 19 21 5 3 -9 4 -20
1 -25 -3 -4 2 -24 10 -44 15 -36 40 -47 61 -26 15 15 64 -8 57 -26 -3 -8 -14
-14 -24 -14 -17 0 -19 -6 -17 -40 1 -30 -4 -46 -22 -65 l-23 -25 20 -22 c29
-31 40 -93 20 -104 -9 -5 -18 -21 -22 -35 -5 -22 -1 -30 22 -47 15 -11 37 -22
48 -24 11 -2 19 -10 17 -16 -1 -7 5 -12 13 -12 8 0 15 -4 15 -10 0 -5 -9 -10
-21 -10 -11 0 -29 -5 -40 -11 -18 -9 -19 -7 -13 15 7 29 -2 32 -30 11 -11 -8
-28 -15 -37 -15 -12 0 -16 -6 -12 -18 3 -14 -1 -19 -18 -18 -34 1 -35 -29 -4
-58 23 -21 27 -32 23 -65 -2 -27 1 -42 10 -46 14 -5 6 -57 -10 -63 -4 -2 -6
-8 -3 -12 3 -5 12 -7 19 -4 21 8 30 -15 16 -42 -11 -19 -11 -26 0 -39 7 -9 19
-14 25 -11 18 7 53 -20 70 -55 9 -16 13 -29 10 -29 -10 0 25 -60 35 -61 61 -6
110 -2 110 8 0 6 8 14 18 17 13 4 19 16 19 38 0 23 8 39 31 58 18 15 32 36 32
49 0 19 4 21 33 16 30 -6 34 -4 33 15 -1 26 41 61 75 63 21 2 24 7 24 42 -1
22 -6 49 -12 60 -37 67 -138 116 -145 71 -4 -26 -45 -36 -78 -19 -35 18 -51
16 -43 -4 4 -11 3 -14 -5 -9 -7 4 -12 12 -12 19 0 6 -11 23 -25 37 -14 15 -27
36 -30 48 -5 31 -15 43 -26 37 -5 -4 -9 1 -9 9 0 9 5 16 10 16 6 0 10 14 10
32 l0 31 24 -22 c28 -27 72 -26 70 2 -1 12 6 17 27 17 41 0 52 32 28 84 -10
22 -15 44 -13 48 12 19 37 5 62 -36 21 -34 36 -46 72 -56 25 -8 50 -20 56 -29
7 -8 25 -15 40 -16 26 0 29 -3 26 -31 -4 -40 27 -66 68 -57 15 3 31 0 34 -6 4
-6 15 -11 24 -10 14 0 13 2 -3 9 -15 6 -16 9 -4 9 21 1 43 -26 58 -68 16 -49
14 -54 -19 -47 -29 5 -30 4 -30 -32 0 -59 45 -121 112 -154 66 -33 92 -35 111
-8 14 20 14 20 31 -5 18 -27 44 -33 52 -12 2 7 17 12 34 11 16 -1 56 6 87 16
47 14 59 22 61 41 2 13 10 31 17 39 8 10 12 36 10 73 -2 43 1 57 11 57 8 0 14
10 14 23 0 13 -3 18 -8 10 -8 -13 -55 -33 -78 -33 -8 0 -14 7 -14 15 0 9 -9
15 -24 15 -25 0 -36 -28 -36 -93 0 -17 -2 -28 -6 -25 -3 3 -20 2 -39 -2 -21
-5 -35 -4 -38 3 -2 6 -10 6 -24 -2 -31 -16 -57 -14 -86 9 -19 15 -27 17 -35 7
-6 -6 -10 -16 -11 -21 0 -11 -51 -37 -61 -31 -9 6 0 55 10 55 5 0 11 -6 14
-12 3 -7 2 0 -1 16 -5 24 -3 28 10 23 13 -5 22 4 36 31 11 21 27 44 35 51 24
20 20 38 -18 76 -38 40 -46 43 -46 15 0 -13 -5 -18 -15 -14 -10 4 -15 0 -15
-15 0 -12 -6 -21 -15 -21 -21 0 -19 13 5 35 11 10 18 20 15 23 -3 3 0 11 6 19
9 10 7 27 -6 68 -9 30 -21 55 -26 55 -5 0 -14 11 -19 24 -8 21 -14 24 -57 22
-26 -1 -56 2 -65 6 -11 6 -18 5 -18 -2 0 -5 -18 -10 -39 -10 -23 0 -41 -5 -44
-12 -3 -10 -7 -10 -20 0 -14 12 -15 10 -4 -17 14 -38 3 -50 -23 -26 -12 11
-33 20 -48 21 -49 3 -53 4 -47 14 3 6 21 10 40 10 28 0 34 4 40 28 6 27 -1
110 -11 145 -5 14 -9 16 -20 6 -11 -9 -16 -7 -23 12 -5 13 -7 27 -4 31 2 4 -7
20 -21 35 -15 15 -26 31 -26 34 0 4 -16 24 -36 45 -32 35 -35 43 -30 82 6 48
22 82 37 82 6 0 7 -4 4 -10 -3 -5 1 -10 9 -10 21 0 108 -67 123 -95 12 -23 55
-55 72 -55 5 0 2 14 -6 32 -9 17 -17 41 -19 52 -2 12 -6 31 -10 44 -5 19 -3
22 20 22 21 0 26 5 26 25 0 14 4 25 10 25 5 0 7 7 3 16 -3 9 5 27 22 44 l27
29 -26 24 c-29 27 -35 67 -11 67 13 0 14 4 4 21 -8 15 -8 19 0 15 7 -5 14 4
17 23 6 26 11 31 35 31 26 0 29 3 29 35 0 19 5 45 11 59 9 20 9 29 -1 41 -10
12 -10 19 -3 23 6 4 13 35 14 69 4 57 2 64 -25 92 -33 34 -49 40 -39 14 4 -10
2 -14 -4 -10 -6 4 -13 1 -16 -7 -6 -15 -57 -10 -57 5 0 5 -8 5 -17 2 -12 -5
-15 -2 -10 10 4 10 -5 37 -23 66 -27 47 -29 56 -27 147 2 84 0 98 -15 102 -20
5 -39 52 -31 80 2 11 0 23 -6 26 -13 9 -15 53 -2 60 18 11 -2 49 -36 69 -29
17 -32 22 -19 29 11 6 14 14 7 26 -4 9 -11 34 -15 55 -4 21 -11 35 -16 32 -5
-3 -12 0 -17 7 -14 22 -90 59 -126 60 -43 1 -63 28 -45 58 7 11 18 20 24 20 7
0 15 7 18 16 5 12 2 15 -10 10 -8 -3 -24 -1 -36 5 -17 9 -18 13 -5 27 8 9 14
25 14 35 0 18 -22 23 -32 7 -3 -5 -14 -1 -25 10 -14 14 -28 18 -48 14 -24 -5
-34 2 -80 56 -29 34 -55 73 -58 86 -7 28 -13 29 -35 5z m130 -180 c7 -5 11
-14 7 -19 -9 -15 -36 -4 -36 14 0 16 9 18 29 5z m-128 -139 c-28 -4 -40 6 -21
18 9 6 20 4 29 -3 12 -10 11 -13 -8 -15z m-932 -278 c7 -6 -2 -11 -31 -18 -17
-4 -28 -2 -28 4 0 6 -13 4 -31 -6 -18 -9 -28 -11 -24 -4 18 29 92 44 114 24z
m496 -474 c-3 -5 -14 -10 -23 -9 -14 0 -13 2 3 9 27 11 27 11 20 0z m495 -10
c0 -5 -2 -10 -4 -10 -3 0 -8 5 -11 10 -3 6 -1 10 4 10 6 0 11 -4 11 -10z m-40
-11 c0 -5 -6 -7 -12 -3 -10 6 -10 4 0 -7 6 -7 12 -35 12 -61 0 -42 -3 -48 -20
-48 -18 0 -19 3 -9 21 8 15 8 19 0 15 -6 -4 -11 -5 -11 -2 0 2 -3 11 -6 20 -4
11 0 16 12 17 14 0 15 2 5 6 -8 3 -20 -2 -28 -12 -7 -10 -16 -16 -19 -13 -8 9
5 45 22 63 18 17 54 20 54 4z m80 -69 c0 -5 -4 -10 -10 -10 -5 0 -10 5 -10 10
0 6 5 10 10 10 6 0 10 -4 10 -10z m-410 -10 c0 -5 -4 -10 -10 -10 -5 0 -10 5
-10 10 0 6 5 10 10 10 6 0 10 -4 10 -10z m353 -77 c-7 -2 -19 -2 -25 0 -7 3
-2 5 12 5 14 0 19 -2 13 -5z m357 -708 c7 -9 8 -15 2 -15 -5 0 -12 7 -16 15
-3 8 -4 15 -2 15 2 0 9 -7 16 -15z m-60 -20 c0 -8 -7 -15 -15 -15 -26 0 -18
20 13 29 1 1 2 -6 2 -14z m85 -35 c3 -6 -1 -7 -9 -4 -18 7 -21 14 -7 14 6 0
13 -4 16 -10z m493 -377 c6 -19 -25 -16 -32 3 -4 11 -1 14 11 12 9 -2 18 -9
21 -15z m-515 -263 c8 0 8 -3 0 -11 -13 -13 -43 -5 -43 12 0 6 7 8 16 5 9 -3
21 -6 27 -6z m77 -10 c0 -5 -7 -10 -15 -10 -8 0 -15 5 -15 10 0 6 7 10 15 10
8 0 15 -4 15 -10z"/>
<path d="M7905 11481 c-3 -10 -3 -26 1 -35 4 -11 1 -16 -10 -16 -12 0 -16 -10
-16 -35 0 -21 5 -35 13 -35 6 0 22 -3 34 -6 19 -5 21 -2 19 19 -1 14 -9 34
-17 43 -9 11 -9 15 -1 10 16 -9 16 16 0 32 -9 9 -8 12 6 12 15 0 16 3 6 15
-17 20 -27 19 -35 -4z"/>
<path d="M10701 11464 c0 -11 3 -14 6 -6 3 7 2 16 -1 19 -3 4 -6 -2 -5 -13z"/>
<path d="M10000 11440 c0 -5 5 -10 11 -10 5 0 7 5 4 10 -3 6 -8 10 -11 10 -2
0 -4 -4 -4 -10z"/>
<path d="M7720 11408 c0 -7 -12 -24 -25 -37 -29 -27 -31 -39 -11 -67 14 -18
15 -18 21 -1 4 9 13 17 20 17 7 0 15 7 19 15 6 18 62 21 68 4 3 -8 16 -10 41
-5 45 8 40 24 -7 23 -25 -1 -44 8 -70 31 -39 34 -56 40 -56 20z"/>
<path d="M8030 11411 c0 -12 28 -22 35 -12 3 5 -2 12 -11 15 -21 8 -24 8 -24
-3z"/>
<path d="M8280 11371 c0 -8 -7 -11 -15 -7 -9 3 -15 0 -15 -9 0 -8 4 -15 9 -15
13 0 35 29 27 37 -3 3 -6 1 -6 -6z"/>
<path d="M8065 11320 c-7 -22 -20 -26 -30 -9 -7 11 -57 -40 -52 -54 1 -4 18
-18 37 -30 29 -18 33 -19 27 -4 -3 9 -2 17 4 17 6 0 8 9 4 20 -5 15 -2 20 14
20 25 0 34 14 26 40 -8 26 -22 26 -30 0z"/>
<path d="M7617 11273 c-2 -5 -3 -19 -3 -33 1 -25 14 -28 54 -15 21 7 13 31
-13 43 -31 14 -33 14 -38 5z"/>
<path d="M9268 11233 c-19 -3 -28 -10 -28 -23 0 -20 -32 -82 -58 -112 -8 -10
-27 -18 -42 -18 -31 0 -44 -24 -41 -77 2 -19 -4 -40 -13 -49 -12 -12 -14 -20
-5 -36 8 -16 7 -22 -8 -34 -23 -17 -28 -17 -44 2 -8 10 -9 18 -2 22 17 11 25
50 12 58 -8 5 -5 12 10 23 16 12 23 30 25 64 4 57 -10 62 -19 7 -7 -41 -11
-43 -55 -31 -19 6 -30 2 -47 -16 -13 -13 -23 -31 -23 -39 0 -17 3 -16 -83 -20
-70 -2 -102 -20 -90 -51 3 -7 1 -13 -4 -13 -5 0 -9 -21 -9 -46 0 -32 -5 -50
-17 -59 -9 -7 -20 -26 -23 -43 -6 -28 -34 -54 -34 -32 0 6 -6 10 -14 10 -7 0
-38 23 -67 52 -52 50 -54 51 -57 28 -2 -14 -8 -30 -13 -36 -6 -8 -4 -14 6 -17
8 -4 12 -13 9 -21 -4 -11 6 -20 34 -33 35 -15 39 -20 30 -36 -7 -14 -7 -18 2
-12 6 4 20 -1 30 -10 11 -10 30 -19 42 -20 13 -1 26 -3 30 -4 4 0 7 -28 7 -62
-1 -52 -4 -62 -23 -69 -19 -7 -19 -9 -3 -15 28 -11 77 3 97 27 11 13 19 18 20
11 0 -18 80 30 80 49 0 22 7 25 55 29 33 3 41 0 52 -21 l12 -24 10 27 c6 15
17 27 25 27 17 0 26 22 19 48 -4 15 3 24 25 36 17 9 33 25 37 36 9 28 42 45
60 30 17 -14 65 14 65 37 0 16 -30 74 -43 84 -4 3 -5 13 -1 22 10 28 -15 47
-62 47 -47 0 -51 5 -29 34 8 11 15 32 15 48 0 31 24 48 69 48 20 0 32 6 36 19
5 18 8 18 33 5 21 -11 28 -11 34 -1 5 9 35 13 102 12 73 -1 96 2 96 12 0 7 5
13 10 13 21 0 9 28 -16 34 -14 4 -33 20 -42 36 -12 21 -25 30 -44 30 -14 0
-28 -5 -30 -11 -3 -8 -9 -7 -19 3 -19 19 -46 26 -81 21z m-440 -440 c17 0 32
4 32 9 0 4 7 8 15 8 11 0 10 -8 -7 -37 -26 -45 -39 -56 -52 -43 -15 15 -26 12
-26 -5 0 -21 -16 -19 -39 4 -11 11 -21 19 -23 18 -2 -1 7 7 19 18 13 12 23 27
23 34 0 9 4 10 13 4 6 -6 27 -10 45 -10z"/>
<path d="M8054 11198 c-16 -18 -16 -20 -2 -15 40 14 75 -70 57 -138 -10 -37
-9 -41 16 -62 14 -13 23 -28 19 -34 -4 -8 0 -9 15 -4 15 5 21 2 21 -9 0 -9 8
-16 18 -16 38 0 57 -44 23 -53 -14 -3 -18 -11 -15 -25 6 -22 -15 -35 -37 -21
-11 7 -12 12 -2 27 10 16 7 21 -21 33 l-33 15 11 -28 c9 -23 8 -31 -4 -38 -12
-8 -11 -12 8 -30 12 -11 22 -27 22 -35 0 -8 7 -15 15 -15 8 0 15 7 15 15 0 9
6 12 17 8 12 -5 14 -3 8 8 -6 10 -5 11 4 3 9 -9 7 -19 -9 -48 -12 -20 -25 -36
-29 -36 -4 0 -5 -16 -3 -36 3 -27 0 -39 -12 -46 -13 -7 -16 -17 -11 -39 4 -18
3 -29 -4 -29 -15 0 -14 -27 2 -33 6 -2 20 0 30 5 10 5 31 6 48 3 25 -6 29 -4
29 14 0 12 5 21 11 21 5 0 15 13 20 29 7 20 19 30 40 35 21 4 29 11 29 26 0
15 7 20 25 20 29 0 75 40 75 65 0 19 19 20 26 0 4 -8 13 -15 22 -15 11 0 4 10
-18 30 -29 24 -32 31 -20 39 8 6 26 8 40 5 24 -5 24 -5 6 10 -16 13 -17 19 -7
48 6 18 28 47 48 64 28 24 35 35 29 50 -6 12 -10 15 -13 7 -3 -7 -15 -13 -28
-13 -36 0 -55 -10 -55 -31 0 -16 -5 -15 -45 12 -25 17 -45 36 -45 44 0 17 -66
58 -80 50 -19 -12 -50 26 -50 60 0 24 -6 34 -26 44 -14 6 -30 9 -34 6 -12 -7
-59 17 -97 49 l-30 26 -19 -22z m286 -249 c0 -5 -9 -9 -20 -9 -11 0 -20 4 -20
8 0 4 9 8 20 9 11 1 20 -2 20 -8z"/>
<path d="M7710 11180 c0 -5 17 -28 39 -50 38 -40 81 -53 81 -26 0 9 -7 12 -20
9 -11 -3 -20 -1 -20 5 0 11 -60 72 -72 72 -4 0 -8 -4 -8 -10z"/>
<path d="M7634 11169 c-7 -12 12 -29 34 -29 15 0 16 12 0 28 -15 15 -25 15
-34 1z"/>
<path d="M8993 11057 c5 -15 37 -22 37 -9 0 5 -9 12 -21 15 -13 3 -19 1 -16
-6z"/>
<path d="M10230 10999 c0 -11 -4 -17 -10 -14 -5 3 -10 -3 -10 -13 0 -26 -21
-33 -62 -22 -18 6 -41 7 -52 4 -10 -4 -22 0 -27 7 -8 11 -11 11 -19 -3 -6 -10
-17 -15 -25 -11 -9 3 -22 0 -30 -7 -8 -6 -23 -9 -35 -5 -11 4 -20 2 -20 -4 0
-6 5 -11 10 -11 23 0 8 -42 -20 -58 -16 -9 -30 -23 -30 -31 0 -9 -5 -8 -17 6
-10 10 -15 14 -10 9 13 -18 7 -23 -18 -18 -14 2 -25 0 -25 -7 0 -7 -8 -8 -22
-2 -14 5 -33 4 -48 -2 -14 -6 -57 -11 -97 -12 -48 -2 -81 -8 -98 -19 -14 -9
-25 -13 -25 -10 0 4 -9 -1 -20 -11 -16 -15 -25 -16 -43 -7 -12 6 -34 13 -49
16 -23 5 -28 3 -28 -12 0 -10 -11 -29 -24 -41 l-24 -23 -16 26 c-9 14 -22 36
-30 49 -18 31 -6 53 21 39 27 -15 42 12 31 56 -9 32 -38 45 -38 17 0 -9 -7
-18 -15 -21 -8 -4 -15 -19 -15 -34 0 -16 -5 -32 -10 -35 -6 -4 -7 -11 -4 -17
4 -7 2 -8 -5 -4 -6 4 -14 0 -18 -10 -4 -10 0 -20 10 -26 12 -6 17 -22 17 -53
0 -44 0 -44 30 -38 34 6 39 -6 12 -30 -23 -21 -46 -22 -38 -2 7 19 -8 20 -23
1 -8 -10 -9 -16 -1 -21 20 -12 11 -51 -16 -63 -22 -11 -25 -17 -23 -60 1 -26
-5 -63 -14 -82 l-16 -36 54 1 c30 1 61 7 70 15 12 10 21 10 40 2 36 -17 54 -5
61 39 4 21 10 39 15 39 12 0 11 37 -1 45 -19 12 15 33 43 28 18 -4 27 -1 27 7
0 9 7 7 20 -5 18 -17 20 -17 14 -2 -8 21 5 22 34 1 12 -8 33 -16 45 -18 36 -4
47 -15 47 -46 0 -16 4 -31 9 -34 5 -4 7 2 4 13 -3 12 2 20 16 24 13 3 21 13
21 25 0 11 6 22 12 24 7 3 13 13 13 24 0 10 10 23 22 29 16 7 21 15 17 27 -3
10 -1 18 5 18 6 0 11 -7 11 -15 0 -13 4 -12 21 4 22 20 53 22 92 6 11 -4 17
-3 17 5 0 8 9 11 25 8 17 -4 25 -1 25 9 0 10 4 11 20 3 18 -10 18 -13 5 -51
-8 -23 -15 -55 -16 -73 -2 -43 -21 -85 -41 -92 -19 -6 -13 -34 8 -34 7 0 16
-15 20 -34 6 -37 31 -55 41 -31 4 11 14 14 38 9 26 -4 35 -2 43 12 9 17 12 17
29 3 30 -26 102 -59 128 -59 28 0 68 35 62 53 -2 7 -10 12 -18 12 -8 0 -24 6
-37 13 -12 7 -27 10 -32 7 -5 -3 -29 7 -54 22 -35 21 -44 32 -40 46 4 12 -3
28 -19 45 -29 33 -38 55 -27 72 5 7 3 21 -3 31 -14 23 18 78 36 60 20 -20 25
-12 21 29 -3 37 -2 40 21 40 14 0 25 4 25 10 0 5 16 26 35 46 39 40 40 42 24
99 -10 35 -9 41 11 57 12 10 19 18 16 18 -4 0 1 11 9 24 15 23 15 25 -4 31
-12 3 -21 11 -21 16 0 5 -4 9 -10 9 -5 0 -10 -9 -10 -21z m-270 -279 c-15 -28
-47 -27 -44 3 1 12 3 26 3 31 1 5 7 3 14 -3 17 -13 26 -5 28 23 2 15 3 13 6
-6 2 -15 -1 -36 -7 -48z m-460 -5 c0 -8 6 -16 13 -18 7 -3 5 -6 -5 -6 -10 -1
-18 6 -18 14 0 26 -21 16 -33 -15 -6 -16 -15 -30 -19 -30 -12 0 -10 7 13 51
17 33 23 38 35 29 8 -7 14 -18 14 -25z m505 -5 c3 -5 -1 -10 -9 -10 -8 0 -18
5 -21 10 -3 6 1 10 9 10 8 0 18 -4 21 -10z m-618 -56 c-3 -3 -12 -4 -19 -1 -8
3 -5 6 6 6 11 1 17 -2 13 -5z m273 -124 c0 -5 -7 -10 -15 -10 -8 0 -15 5 -15
10 0 6 7 10 15 10 8 0 15 -4 15 -10z"/>
<path d="M8775 10993 c3 -8 5 -17 5 -19 0 -3 5 -2 10 1 16 10 12 32 -5 32 -10
0 -14 -6 -10 -14z"/>
<path d="M10180 10985 c0 -8 4 -15 10 -15 5 0 7 7 4 15 -4 8 -8 15 -10 15 -2
0 -4 -7 -4 -15z"/>
<path d="M8494 10675 c-3 -14 -4 -34 -1 -45 3 -11 0 -23 -7 -28 -9 -5 -7 -12
6 -24 12 -12 18 -14 18 -5 1 6 3 38 5 70 5 58 -9 79 -21 32z"/>
<path d="M8415 10564 c-38 -23 -38 -24 -10 -18 17 3 36 13 44 20 26 24 7 23
-34 -2z"/>
<path d="M9130 10580 c0 -5 5 -10 10 -10 6 0 10 5 10 10 0 6 -4 10 -10 10 -5
0 -10 -4 -10 -10z"/>
<path d="M9191 10570 c-21 -10 -30 -20 -23 -24 7 -4 12 -2 12 4 0 7 7 10 15 6
9 -3 19 3 25 14 6 11 9 20 8 19 -2 -1 -18 -9 -37 -19z"/>
<path d="M9840 10579 c0 -5 -5 -7 -10 -4 -6 3 -13 -1 -16 -10 -4 -9 -13 -14
-20 -11 -9 4 -14 -2 -14 -15 0 -11 -5 -30 -11 -41 -10 -18 -8 -24 7 -35 12 -9
20 -10 22 -3 2 5 9 10 16 10 9 0 12 9 8 25 -3 20 0 25 17 25 14 0 20 4 15 11
-3 6 -1 14 5 18 6 4 9 15 5 24 -7 19 -24 23 -24 6z"/>
<path d="M9748 10543 c7 -3 16 -2 19 1 4 3 -2 6 -13 5 -11 0 -14 -3 -6 -6z"/>
<path d="M9120 10524 c0 -8 5 -12 10 -9 6 4 8 11 5 16 -9 14 -15 11 -15 -7z"/>
<path d="M8395 10520 c3 -5 8 -10 11 -10 2 0 4 5 4 10 0 6 -5 10 -11 10 -5 0
-7 -4 -4 -10z"/>
<path d="M8094 10483 c4 -7 2 -13 -4 -13 -6 0 -8 -5 -4 -11 4 -8 9 -8 17 0 8
8 7 14 -2 24 -11 10 -13 10 -7 0z"/>
<path d="M9512 10477 c-12 -6 -22 -17 -22 -25 0 -8 -6 -12 -15 -8 -8 3 -15 1
-15 -5 0 -6 -7 -8 -16 -5 -14 5 -16 1 -11 -29 3 -19 2 -35 -3 -35 -12 0 -1
-30 18 -53 14 -16 14 -19 -3 -31 -13 -10 -24 -10 -41 -2 -13 6 -24 14 -24 17
0 3 -11 4 -25 1 -14 -2 -25 0 -25 7 0 5 -7 8 -15 4 -9 -3 -25 3 -36 13 -20 18
-21 18 -35 -1 -8 -10 -14 -25 -14 -32 0 -17 -20 -17 -21 0 -1 6 -2 17 -4 22
-1 6 -3 14 -3 18 -1 5 -9 1 -18 -7 -23 -24 -148 -22 -197 3 -20 10 -34 14 -30
7 9 -14 4 -49 -8 -57 -6 -3 -18 -21 -28 -40 -13 -23 -26 -34 -40 -33 -11 0
-21 -3 -21 -8 0 -4 -7 -8 -15 -8 -24 0 -18 -18 15 -42 21 -15 26 -24 18 -29
-7 -5 -15 -3 -19 3 -4 6 -10 -3 -14 -20 -6 -29 -8 -30 -42 -25 -32 5 -35 4
-30 -11 4 -10 7 -29 7 -42 0 -13 9 -33 19 -43 16 -16 17 -24 8 -61 -9 -33 -17
-42 -38 -47 -18 -3 -29 -13 -33 -29 -4 -15 -14 -24 -26 -24 -32 0 -22 -45 19
-95 25 -29 21 -58 -9 -66 -14 -4 -19 -7 -12 -8 17 -1 15 -21 -3 -21 -9 0 -15
-9 -15 -24 0 -14 -4 -28 -10 -31 -5 -3 -10 -15 -10 -26 0 -15 7 -19 33 -19 17
0 38 -4 46 -9 17 -11 43 -3 35 10 -3 5 0 9 5 9 18 0 12 15 -23 61 l-34 45 34
-4 c31 -4 33 -6 27 -33 -3 -17 -1 -29 5 -29 6 0 13 -8 16 -18 3 -9 16 -22 28
-27 15 -6 23 -18 22 -32 -1 -13 2 -23 6 -23 20 0 16 -41 -6 -67 -13 -15 -24
-23 -24 -17 0 7 -7 14 -15 18 -25 9 5 -31 32 -43 26 -12 29 -24 9 -44 -9 -9
-11 -19 -5 -28 8 -12 10 -12 18 0 5 7 15 11 22 9 8 -3 22 1 31 9 9 8 28 15 42
14 14 -1 38 -1 52 -2 15 -1 41 -16 63 -38 36 -35 78 -48 97 -28 15 14 46 7 51
-13 3 -11 12 -20 19 -20 8 0 17 -7 20 -15 7 -17 35 -20 50 -5 7 7 29 1 70 -20
63 -32 104 -32 104 1 0 25 19 34 33 15 9 -11 16 -13 27 -6 10 6 11 10 3 10 -7
0 -13 7 -13 15 0 8 -4 15 -10 15 -5 0 -10 9 -10 20 0 14 6 20 18 18 10 -2 16
2 14 11 -16 74 -16 74 6 60 18 -11 23 -10 39 10 23 28 53 19 53 -15 0 -16 10
-28 30 -39 29 -15 33 -15 59 5 16 11 38 20 49 20 31 0 52 11 52 26 0 8 16 38
35 67 23 34 31 55 25 61 -13 13 -13 49 0 41 18 -11 10 15 -10 32 -18 16 -18
18 -3 35 9 10 13 18 9 18 -4 0 -2 9 4 20 6 11 21 20 33 20 28 0 67 -34 67 -58
1 -15 2 -15 15 2 20 27 19 36 -5 36 -11 0 -23 6 -26 14 -7 19 13 56 29 51 51
-15 67 -15 67 2 0 10 7 27 15 37 14 19 15 19 15 2 0 -14 3 -16 13 -7 8 6 17 8
20 4 4 -3 15 0 24 9 22 18 80 23 98 8 7 -6 17 -10 21 -9 13 3 67 -12 81 -23 7
-5 14 -5 18 2 12 20 50 9 90 -27 l40 -36 -30 8 c-44 10 -73 15 -135 21 -31 3
-60 11 -66 20 -9 11 -13 6 -18 -26 -3 -23 -13 -43 -21 -46 -10 -4 -13 -14 -9
-30 5 -18 2 -24 -10 -24 -13 0 -15 -4 -7 -18 5 -10 10 -34 10 -53 0 -53 3 -67
16 -63 7 3 11 -9 12 -31 1 -19 -3 -35 -8 -35 -4 0 -18 -10 -31 -22 -13 -13
-48 -32 -78 -42 -30 -11 -57 -23 -60 -27 -12 -17 -53 -13 -64 6 -6 11 -15 23
-21 27 -14 10 -57 -33 -46 -46 9 -11 -6 -88 -22 -113 -4 -7 -25 -17 -47 -23
-21 -6 -47 -18 -56 -27 -10 -10 -37 -18 -67 -20 -28 -1 -54 -8 -58 -14 -5 -8
-13 -7 -30 5 -31 21 -39 20 -39 -4 0 -10 -7 -23 -15 -28 -17 -9 -11 -42 7 -42
6 0 5 -7 -3 -16 -10 -13 -10 -20 5 -45 17 -29 17 -29 -8 -29 -14 0 -26 -5 -26
-11 0 -6 -9 -8 -20 -4 -17 5 -20 2 -20 -22 0 -16 -6 -35 -12 -42 -10 -11 -10
-13 0 -7 8 5 12 -1 12 -17 0 -13 9 -35 19 -49 11 -13 22 -40 26 -59 6 -32 10
-35 38 -35 18 0 40 -4 50 -8 13 -7 16 -5 11 8 -6 15 -1 17 32 14 37 -3 39 -1
39 25 -1 27 9 35 19 18 3 -5 18 -11 33 -14 22 -4 33 0 50 21 18 21 24 24 32
13 4 -7 6 -22 3 -34 -4 -16 -2 -19 11 -14 9 3 19 2 22 -3 4 -6 -2 -10 -12 -10
-10 -1 4 -10 31 -22 38 -17 52 -19 65 -10 9 7 23 15 31 18 51 19 53 31 19 97
l-20 39 21 5 c18 5 20 10 14 32 -16 56 -5 101 25 101 11 0 37 8 56 17 30 14
36 22 32 41 -3 15 2 26 15 33 11 6 17 17 14 24 -4 11 11 14 72 14 42 -1 99 4
126 10 26 7 56 9 65 6 14 -4 16 1 13 32 -4 30 -2 35 12 30 16 -6 41 25 29 36
-6 7 42 28 70 30 9 1 17 6 17 13 0 6 18 19 40 29 26 12 43 27 46 42 4 14 12
22 19 19 7 -2 33 -8 59 -11 35 -6 51 -4 64 8 9 8 27 18 40 22 15 4 21 12 18
22 -4 10 1 17 15 20 19 5 20 11 15 46 -4 22 -3 43 3 46 5 3 -33 6 -85 6 -97 0
-114 7 -114 45 0 10 6 8 18 -8 16 -21 20 -22 31 -8 11 13 11 16 0 16 -10 0
-10 3 -3 8 17 10 -1 53 -20 46 -8 -3 -17 -1 -21 5 -3 6 -1 11 6 11 7 0 9 8 6
21 -4 16 -3 18 9 8 11 -9 14 -8 14 7 0 23 -42 53 -48 35 -2 -6 -19 -11 -39
-11 -20 0 -46 -9 -60 -20 -31 -24 -50 -25 -93 -4 -21 11 -28 19 -20 24 7 4 9
16 5 29 -6 19 -4 20 20 11 22 -8 32 -6 59 15 36 27 56 32 56 13 0 -9 3 -9 11
-1 8 8 0 27 -30 69 -37 51 -41 63 -36 95 5 30 2 41 -16 58 -13 12 -29 21 -37
21 -8 0 -12 6 -8 15 6 16 -22 35 -41 28 -7 -3 -13 1 -13 7 0 6 -13 30 -29 53
-15 23 -26 47 -24 54 2 6 -5 14 -17 18 -13 4 -19 12 -16 21 4 11 -7 14 -53 14
-33 0 -67 3 -77 7 -14 5 -16 3 -11 -11 6 -14 3 -17 -9 -12 -8 3 -27 3 -40 0
-19 -5 -22 -9 -13 -20 8 -10 6 -14 -13 -17 -57 -10 -92 -6 -105 13 -8 12 -24
19 -41 18 -15 -1 -35 2 -44 6 -13 6 -20 3 -25 -10 -6 -15 -20 -19 -60 -21 -48
-2 -53 0 -53 18 0 18 -4 20 -27 14 -23 -5 -25 -4 -14 9 10 12 9 20 -6 40 -21
30 -27 31 -47 11 -18 -18 -38 -12 -51 17 -6 12 -21 23 -34 25 -14 2 -25 4 -26
6 -1 1 -23 28 -48 61 -45 55 -47 61 -41 105 6 45 5 46 -23 47 -15 0 -38 -4
-51 -9z m-271 -249 c-27 -11 -34 -9 -21 7 6 8 8 20 4 27 -4 7 2 4 13 -7 18
-18 18 -21 4 -27z m279 -43 c0 -8 -4 -15 -10 -15 -5 0 -7 7 -4 15 4 8 8 15 10
15 2 0 4 -7 4 -15z m-91 -84 c-15 -5 -22 6 -14 19 6 9 10 9 16 -1 5 -8 4 -15
-2 -18z m61 -31 c0 -5 -9 -10 -21 -10 -15 0 -19 -5 -15 -15 3 -8 1 -15 -4 -15
-6 0 -10 -6 -10 -14 0 -20 -38 -30 -55 -16 -8 7 -15 26 -15 41 0 29 0 29 25
13 23 -15 27 -15 38 -1 7 8 21 17 32 20 11 3 21 5 23 6 1 0 2 -3 2 -9z"/>
<path d="M7983 10452 c-6 -25 -14 -27 -31 -10 -9 9 -12 7 -12 -11 0 -21 -3
-23 -35 -17 -29 6 -35 4 -35 -11 -1 -25 -24 -53 -43 -53 -17 0 -57 -67 -57
-96 0 -9 -9 -18 -20 -21 -11 -3 -20 -8 -21 -12 -3 -27 -8 -100 -9 -118 0 -16
-6 -23 -20 -23 -17 0 -19 -3 -10 -19 15 -30 12 -49 -10 -56 -16 -5 -18 -10 -9
-32 9 -25 0 -42 -24 -43 -4 0 -5 -27 -1 -60 6 -56 5 -60 -14 -60 -12 0 -26 -9
-32 -20 -6 -11 -27 -27 -47 -35 -28 -12 -34 -19 -30 -36 3 -12 0 -22 -9 -26
-8 -3 -14 -19 -14 -39 0 -24 -5 -34 -15 -34 -8 0 -15 -8 -15 -18 0 -11 -9 -27
-20 -37 -11 -10 -20 -25 -20 -35 0 -17 -112 -80 -143 -80 -10 0 -17 -6 -16
-12 3 -27 -1 -58 -8 -57 -32 5 -43 -3 -43 -31 0 -21 5 -30 16 -30 8 0 31 -12
50 -26 29 -23 34 -24 34 -9 0 14 6 16 33 11 17 -4 34 -12 36 -19 2 -6 17 -25
33 -41 27 -26 31 -27 45 -13 12 12 20 13 34 4 15 -9 23 -7 42 11 27 25 40 27
59 9 7 -7 48 -23 90 -34 67 -18 79 -19 96 -7 39 27 82 -5 82 -61 0 -51 138
-129 162 -92 6 9 11 8 19 -5 7 -12 22 -18 49 -18 34 0 41 4 46 25 3 14 12 25
19 25 8 0 21 7 29 16 9 8 21 12 26 9 6 -4 26 5 45 19 19 15 40 23 49 20 19 -7
20 0 5 29 -12 21 -12 21 14 4 27 -17 67 -23 67 -9 0 12 58 31 79 25 16 -4 22
3 31 36 6 22 17 47 25 55 8 8 16 25 17 38 2 13 5 25 8 28 23 23 50 74 50 95 0
15 6 25 15 25 9 0 12 6 8 16 -4 10 1 22 12 30 17 12 13 16 -41 40 -32 15 -69
36 -81 47 -13 11 -23 16 -23 10 0 -16 -44 -31 -75 -25 -23 4 -27 2 -22 -12 4
-9 4 -29 1 -45 -7 -33 -29 -36 -72 -12 -13 7 -30 10 -38 7 -8 -3 -14 -1 -14 5
0 7 -12 8 -30 4 -20 -4 -37 -2 -47 7 -12 10 -17 10 -20 1 -6 -17 -33 -4 -33
16 0 9 10 22 22 30 19 12 20 15 6 25 -8 6 -18 21 -22 34 -5 15 -15 22 -32 22
-14 0 -33 8 -43 18 -19 18 -51 102 -51 134 0 10 -6 18 -12 18 -10 0 -10 2 0 9
8 4 12 12 10 17 -1 5 7 10 20 12 12 2 20 8 17 13 -3 5 1 6 9 3 25 -10 48 49
41 104 -9 65 -8 86 5 90 16 6 12 30 -12 62 -18 24 -22 43 -21 97 0 38 -3 73
-8 79 -6 8 -4 14 6 18 10 3 13 11 9 18 -4 7 -10 28 -14 48 -5 29 -10 35 -31
35 -14 0 -34 6 -43 14 -15 13 -18 12 -23 -7z"/>
<path d="M9670 10402 c0 -16 28 -34 34 -23 4 6 -3 15 -14 21 -11 6 -20 7 -20
2z"/>
<path d="M9863 10390 c3 -21 39 -39 55 -27 10 8 9 13 -4 28 -19 21 -55 21 -51
-1z"/>
<path d="M9810 10376 c0 -13 49 -56 65 -56 10 0 -21 40 -44 56 -18 13 -21 13
-21 0z"/>
<path d="M7785 10360 c3 -5 8 -10 11 -10 2 0 4 5 4 10 0 6 -5 10 -11 10 -5 0
-7 -4 -4 -10z"/>
<path d="M10350 10330 c-7 -17 -17 -30 -22 -30 -19 0 30 -38 94 -74 l67 -36
-14 26 c-8 15 -28 33 -45 40 -17 8 -29 18 -25 24 4 6 10 8 15 5 9 -5 20 18 20
41 0 8 -9 14 -21 14 -11 0 -29 4 -39 10 -15 8 -20 4 -30 -20z"/>
<path d="M10617 10274 c-3 -3 -3 -12 -1 -19 3 -7 -2 -27 -11 -45 -27 -52 -13
-72 15 -23 21 35 29 41 47 36 20 -4 23 -1 23 26 0 32 -8 39 -27 20 -8 -8 -13
-8 -17 0 -8 12 -19 14 -29 5z"/>
<path d="M9851 10241 c-13 -13 -17 -21 -8 -18 10 3 17 -1 20 -14 7 -28 36 -25
33 4 -2 13 -7 30 -12 38 -7 12 -13 10 -33 -10z"/>
<path d="M10470 10250 c0 -5 5 -10 10 -10 6 0 10 5 10 10 0 6 -4 10 -10 10 -5
0 -10 -4 -10 -10z"/>
<path d="M9945 10220 c-4 -6 3 -10 14 -10 25 0 27 6 6 13 -8 4 -17 2 -20 -3z"/>
<path d="M9910 10190 c0 -4 10 -11 23 -17 16 -8 25 -7 35 3 17 19 16 20 -23
20 -19 0 -35 -3 -35 -6z"/>
<path d="M10521 10181 c-7 -5 -10 -14 -7 -20 10 -16 26 -14 20 3 -3 8 2 16 13
19 12 3 13 5 3 6 -8 0 -21 -3 -29 -8z"/>
<path d="M10551 10118 c-8 -21 2 -58 15 -58 3 0 2 5 -1 10 -14 22 7 27 29 7
17 -15 21 -25 15 -33 -7 -8 -6 -15 1 -19 16 -10 24 1 25 33 0 19 -6 29 -20 32
-11 4 -20 14 -20 25 0 29 -33 31 -44 3z"/>
<path d="M10723 9766 c-9 -11 -8 -18 7 -31 18 -16 20 -16 26 -1 7 18 -1 46
-13 46 -4 -1 -13 -7 -20 -14z"/>
<path d="M11630 9669 c0 -5 5 -7 10 -4 6 3 10 8 10 11 0 2 -4 4 -10 4 -5 0
-10 -5 -10 -11z"/>
<path d="M10090 9652 c0 -10 11 -24 24 -30 23 -10 24 -9 17 16 -9 32 -41 43
-41 14z"/>
<path d="M11506 9653 c-3 -7 -12 -13 -20 -13 -20 0 -28 -32 -16 -64 13 -35 13
-36 -5 -36 -25 0 -17 -34 15 -65 17 -16 30 -39 30 -52 0 -20 2 -22 13 -11 8 7
12 20 10 29 -3 9 0 20 6 23 5 4 8 13 5 20 -5 12 36 27 81 31 22 1 36 18 33 38
-1 12 4 37 11 55 10 24 11 36 3 44 -16 16 -45 -10 -39 -33 3 -12 -2 -20 -13
-24 -10 -3 -20 -14 -22 -23 -3 -11 -14 3 -32 39 -27 54 -50 70 -60 42z"/>
<path d="M10170 9637 c0 -10 39 -47 49 -47 16 0 14 16 -5 34 -13 14 -44 22
-44 13z"/>
<path d="M10145 9580 c-6 -9 1 -12 22 -9 4 0 10 -6 13 -15 3 -10 10 -12 19 -7
11 7 7 13 -17 25 -19 10 -33 12 -37 6z"/>
<path d="M9922 9501 c-11 -7 -10 -10 3 -15 23 -9 25 -8 25 9 0 17 -9 19 -28 6z"/>
<path d="M9966 9502 c-2 -4 -2 -13 2 -18 10 -15 40 -25 47 -15 2 5 -5 11 -16
14 -12 3 -18 10 -14 16 3 6 2 11 -4 11 -5 0 -12 -4 -15 -8z"/>
<path d="M7057 9373 c-9 -2 -15 -9 -12 -14 9 -14 22 -11 29 6 3 8 4 14 3 14
-1 -1 -10 -3 -20 -6z"/>
<path d="M7006 9321 c-34 -35 -34 -61 -1 -61 14 0 28 7 31 15 4 8 10 12 15 9
5 -3 9 8 9 24 0 41 -22 46 -54 13z"/>
<path d="M7110 9341 c0 -5 8 -14 17 -19 9 -6 17 -19 18 -31 2 -24 -5 -27 -24
-8 -7 6 -12 8 -11 2 5 -23 -1 -35 -15 -35 -9 0 -18 -7 -21 -15 -4 -8 -15 -15
-25 -15 -13 0 -19 -7 -19 -24 0 -29 -16 -42 -33 -28 -7 6 -24 8 -38 5 -25 -5
-25 -5 -17 -71 8 -55 7 -67 -6 -74 -9 -5 -16 -19 -16 -31 0 -13 -21 -46 -50
-77 -28 -30 -49 -59 -47 -65 2 -5 19 -20 38 -33 19 -13 38 -34 42 -47 4 -12
17 -25 28 -28 11 -3 23 -15 26 -26 4 -16 9 -19 19 -11 9 8 20 8 41 -2 30 -15
73 -13 73 3 0 5 6 9 14 9 7 0 19 14 26 30 7 17 22 37 33 45 12 8 17 20 13 30
-3 9 0 18 8 21 33 13 17 84 -18 84 -8 0 -17 15 -20 33 -14 67 -13 72 21 81 38
12 49 47 22 72 -17 15 -19 15 -19 1 0 -23 -20 -32 -36 -16 -19 20 4 63 35 67
13 2 34 13 47 25 l23 22 -20 32 c-12 18 -26 30 -32 26 -6 -4 -8 0 -4 10 4 11
1 17 -8 17 -8 0 -20 8 -27 18 -17 23 -38 36 -38 23z"/>
<path d="M7246 9296 c3 -9 11 -16 16 -16 13 0 5 23 -10 28 -7 2 -10 -2 -6 -12z"/>
<path d="M9610 9199 c0 -3 9 -14 21 -25 17 -16 22 -16 29 -4 6 8 8 19 7 24 -3
10 -57 15 -57 5z"/>
<path d="M9657 9143 c-4 -3 -7 -11 -7 -17 0 -6 5 -5 12 2 6 6 9 14 7 17 -3 3
-9 2 -12 -2z"/>
<path d="M11588 9063 c7 -3 16 -2 19 1 4 3 -2 6 -13 5 -11 0 -14 -3 -6 -6z"/>
<path d="M11550 9045 c0 -8 -6 -12 -14 -9 -8 3 -25 -6 -39 -20 -23 -22 -23
-25 -6 -29 11 -3 19 -1 19 4 0 4 6 6 14 3 8 -3 17 -1 20 5 4 6 20 8 37 4 24
-5 28 -3 23 10 -3 9 -14 19 -25 22 -11 4 -17 11 -14 16 4 5 1 9 -4 9 -6 0 -11
-7 -11 -15z"/>
<path d="M11406 9005 c-3 -8 -1 -15 4 -15 6 0 10 7 10 15 0 8 -2 15 -4 15 -2
0 -6 -7 -10 -15z"/>
<path d="M6688 8935 c17 -36 33 -42 38 -12 2 15 -30 47 -47 47 -4 0 1 -16 9
-35z"/>
<path d="M6733 8875 c0 -19 6 -29 18 -32 11 -3 19 -13 19 -22 1 -14 3 -13 15
3 18 24 11 36 -21 36 -14 0 -23 4 -20 8 2 4 1 14 -3 21 -6 9 -8 4 -8 -14z"/>
<path d="M9516 8871 c-3 -5 1 -11 9 -15 8 -3 15 -1 15 4 0 13 -18 22 -24 11z"/>
<path d="M11900 8730 c0 -11 5 -20 11 -20 6 0 8 -8 4 -19 -4 -13 0 -20 15 -24
24 -6 24 -10 0 41 -23 47 -30 52 -30 22z"/>
<path d="M11973 8693 c1 -15 8 -28 15 -31 17 -5 15 45 -2 51 -11 4 -14 -1 -13
-20z"/>
<path d="M9875 8699 c-4 -5 -13 -8 -19 -6 -7 3 -18 -4 -25 -14 -6 -11 -23 -24
-36 -29 -19 -7 -25 -17 -25 -38 0 -15 4 -32 9 -37 5 -6 11 -21 13 -35 4 -36
30 -31 50 10 15 30 16 37 3 56 -13 19 -12 22 3 27 21 5 56 63 43 71 -5 4 -13
1 -16 -5z"/>
<path d="M11840 8700 c20 -13 33 -13 25 0 -3 6 -14 10 -23 10 -15 0 -15 -2 -2
-10z"/>
<path d="M9724 8634 c9 -8 21 -12 27 -8 13 7 -7 24 -29 24 -10 0 -10 -4 2 -16z"/>
<path d="M9742 8530 c-17 -28 -15 -57 6 -65 16 -6 16 -7 -2 -20 -20 -15 -21
-14 27 -29 15 -4 35 10 57 39 14 18 13 19 -1 8 -13 -11 -19 -9 -34 7 -9 10
-15 26 -12 34 3 8 -2 21 -12 30 -15 14 -18 13 -29 -4z"/>
</g>
</svg>
