<?xml version="1.0" standalone="no"?>
<!DOCTYPE svg PUBLIC "-//W3C//DTD SVG 20010904//EN"
 "http://www.w3.org/TR/2001/REC-SVG-20010904/DTD/svg10.dtd">
<svg version="1.0" xmlns="http://www.w3.org/2000/svg"
 width="512.733659pt" height="514.667933pt" viewBox="0 0 512.733659 514.667933"
 preserveAspectRatio="xMidYMid meet">
<metadata>
Created by potrace 1.15, written by Peter Selinger 2001-2017
</metadata>
<g transform="translate(-797.198890,1219.914074) scale(0.100000,-0.100000)"
fill="#222222" stroke="none">
<path d="M10520 12176 c0 -13 -5 -26 -11 -28 -13 -4 -2 -35 17 -42 10 -4 14 2
14 18 0 14 5 26 11 28 9 3 9 10 0 26 -15 29 -31 28 -31 -2z"/>
<path d="M9797 12113 c-4 -3 -7 -16 -7 -27 0 -12 -7 -34 -15 -50 -8 -15 -15
-38 -15 -49 0 -20 1 -20 25 3 21 20 24 31 22 77 -1 29 -2 53 -3 53 0 0 -4 -3
-7 -7z"/>
<path d="M9100 12099 c0 -7 8 -18 18 -25 15 -12 15 -15 2 -23 -9 -7 -19 -6
-29 2 -12 10 -14 9 -8 -6 4 -10 7 -23 7 -28 0 -5 11 -14 25 -19 15 -6 27 -20
30 -37 3 -15 10 -43 15 -61 7 -29 6 -34 -13 -42 -12 -5 -16 -9 -9 -9 8 -1 27
8 42 19 26 18 31 19 69 5 24 -8 43 -10 46 -4 10 15 60 10 106 -10 24 -11 47
-17 53 -14 35 22 116 -1 116 -33 0 -20 18 -27 90 -35 48 -5 59 -8 43 -14 -13
-4 -23 -11 -23 -16 0 -5 -9 -9 -19 -9 -19 0 -31 -19 -31 -48 0 -13 2 -14 9 -3
11 17 17 6 26 -46 5 -34 4 -43 -8 -43 -16 0 -29 -57 -15 -66 13 -8 9 -32 -4
-31 -52 2 -54 -3 -15 -37 46 -41 67 -40 84 2 12 30 12 32 -7 32 -11 0 -20 6
-20 13 0 6 11 12 25 12 14 0 25 -3 25 -8 0 -8 35 10 63 32 20 16 22 52 5 70
-11 10 -9 11 7 6 11 -3 7 1 -9 11 -22 12 -34 14 -46 6 -20 -12 -57 3 -73 29
-15 25 21 71 51 64 14 -4 24 0 28 9 6 16 41 16 76 1 20 -8 62 -71 63 -95 3
-41 6 -49 26 -74 16 -20 24 -24 34 -16 16 13 104 -6 111 -24 7 -18 66 -12 99
9 48 32 55 41 42 54 -8 8 -7 11 5 11 8 0 21 -6 27 -14 10 -11 8 -17 -6 -25
-10 -6 -13 -11 -8 -11 47 -5 85 -34 85 -64 0 -18 -60 -39 -86 -31 -17 6 -18 6
-1 -5 9 -6 17 -18 17 -26 0 -8 6 -24 13 -35 10 -17 9 -23 -1 -26 -7 -3 -19
-11 -26 -19 -16 -15 -46 -9 -59 13 -11 18 -47 17 -47 -2 0 -8 -9 -15 -20 -15
-14 0 -20 -7 -21 -22 -1 -20 -2 -20 -6 -4 -7 25 -21 39 -61 60 -34 18 -72 14
-72 -7 0 -7 14 -18 30 -24 24 -9 30 -17 30 -42 0 -17 4 -31 8 -31 5 0 14 -11
20 -25 7 -14 23 -30 37 -35 15 -6 24 -14 21 -19 -12 -19 25 -40 69 -39 39 0
44 3 47 26 3 22 8 26 38 27 29 0 37 5 50 32 12 25 21 33 43 33 15 0 39 7 53
17 21 13 31 14 61 5 l35 -11 -4 30 c-4 27 -3 30 18 25 34 -9 52 28 28 55 -16
18 -16 19 14 19 23 0 30 -4 26 -14 -3 -8 0 -17 6 -21 6 -4 11 -1 9 6 -4 35 3
58 19 63 20 7 68 83 58 93 -3 3 1 15 9 27 21 28 19 40 -10 75 -25 29 -25 30
-5 33 11 2 21 8 22 13 1 15 -45 36 -56 25 -6 -6 -14 -3 -22 8 -11 14 -13 15
-14 1 0 -21 -61 -78 -88 -84 -31 -6 -42 -14 -42 -31 0 -8 -10 -25 -21 -37
l-21 -22 12 24 c10 20 10 26 -3 36 -13 9 -12 14 10 33 14 12 29 22 34 22 14 0
109 97 102 104 -4 3 -1 6 5 6 7 0 12 7 12 16 0 14 2 15 17 3 9 -8 14 -9 10 -3
-3 6 -2 27 4 47 7 27 14 35 26 30 11 -4 14 -2 9 8 -3 8 -9 21 -12 31 -3 9 -16
19 -27 23 l-22 6 22 9 c27 11 24 23 -21 93 -33 51 -43 56 -53 30 -4 -10 -13
-24 -20 -31 -7 -7 -13 -22 -13 -32 0 -11 -8 -23 -17 -29 -13 -7 -14 -12 -6
-23 7 -8 8 -19 3 -28 -5 -8 -6 -18 -3 -23 3 -5 -4 -4 -16 2 -17 9 -21 9 -21
-2 0 -8 -13 -17 -30 -20 -16 -4 -30 -12 -30 -19 0 -7 -12 -21 -26 -31 -21 -15
-30 -17 -56 -8 -17 6 -32 11 -34 11 -2 0 1 -12 6 -26 10 -25 9 -26 -20 -22
-24 4 -30 1 -25 -9 3 -8 5 -17 5 -19 0 -2 9 -4 19 -4 22 0 35 -28 25 -54 -8
-20 22 -34 39 -17 16 16 50 15 41 -1 -4 -7 2 -5 14 6 12 10 19 23 16 27 -3 5
2 9 10 9 28 0 19 -44 -11 -57 -47 -20 -83 -26 -83 -14 0 6 -6 11 -14 11 -10 0
-13 -7 -11 -20 5 -24 -3 -50 -15 -50 -5 0 -10 15 -12 32 -3 28 -10 36 -58 59
-30 15 -64 29 -75 31 -11 2 -23 7 -26 12 -9 11 -29 -1 -29 -17 0 -18 -63 -49
-83 -41 -9 3 -17 15 -17 25 0 10 -13 28 -28 39 -21 16 -28 28 -25 45 4 18 -15
77 -32 103 -1 1 -12 4 -23 7 -26 5 -78 -20 -86 -41 -8 -20 -46 0 -46 24 0 13
-9 19 -35 20 -31 2 -35 0 -35 -22 0 -46 -30 -40 -37 7 -5 29 -22 57 -36 57 -7
0 -13 18 -14 46 -2 47 -21 82 -30 57 -3 -7 -11 -13 -20 -13 -8 0 -13 -7 -11
-17 2 -10 10 -17 19 -16 10 2 14 -5 14 -22 -2 -46 -19 -49 -61 -9 -67 63 -77
67 -118 50 -21 -9 -38 -11 -41 -5 -4 5 -11 7 -16 3 -5 -3 -26 4 -45 15 -19 12
-46 21 -60 21 -15 0 -24 6 -24 15 0 8 -6 15 -14 15 -8 0 -16 7 -20 15 -6 17
-36 20 -36 4z m1485 -179 c3 -5 1 -10 -4 -10 -6 0 -11 5 -11 10 0 6 2 10 4 10
3 0 8 -4 11 -10z m-91 -305 c-4 -8 -12 -15 -20 -15 -20 0 -17 18 4 23 9 3 18
5 19 6 1 0 0 -6 -3 -14z m23 -17 c-3 -8 -6 -5 -6 6 -1 11 2 17 5 13 3 -3 4
-12 1 -19z m-242 -178 c3 -5 1 -10 -4 -10 -6 0 -11 5 -11 10 0 6 2 10 4 10 3
0 8 -4 11 -10z"/>
<path d="M10716 12091 c-4 -7 -5 -15 -2 -18 9 -9 19 4 14 18 -4 11 -6 11 -12
0z"/>
<path d="M9510 12080 c0 -5 5 -10 11 -10 5 0 7 5 4 10 -3 6 -8 10 -11 10 -2 0
-4 -4 -4 -10z"/>
<path d="M10699 12016 c-9 -6 -14 -16 -12 -23 2 -6 -5 -17 -16 -23 -25 -13
-27 -37 -5 -68 20 -28 65 -29 82 -2 7 12 17 18 22 15 6 -4 7 1 3 11 -4 12 -3
15 5 10 31 -19 -3 44 -38 72 -20 16 -29 18 -41 8z"/>
<path d="M9118 11822 c-21 -8 -38 -21 -38 -28 0 -8 -8 -14 -18 -14 -10 0 -29
-8 -42 -17 -27 -19 -61 -26 -127 -24 -40 1 -42 -1 -52 -35 -7 -24 -7 -43 -1
-55 15 -27 12 -43 -14 -74 -16 -19 -30 -26 -44 -23 -26 7 -45 -30 -29 -57 7
-14 7 -20 -1 -23 -7 -2 -12 -10 -12 -17 0 -8 -9 -12 -25 -11 -13 2 -22 -1 -19
-5 3 -5 -4 -9 -15 -9 -11 0 -22 -9 -26 -20 -9 -29 -55 -61 -77 -54 -11 3 -20
-1 -24 -11 -6 -13 -9 -14 -15 -3 -6 8 -12 9 -16 3 -5 -6 -18 -10 -30 -9 -17 1
-23 -4 -23 -18 0 -14 -5 -18 -19 -13 -15 4 -20 -1 -26 -27 -3 -18 -7 -49 -8
-68 -1 -19 -8 -39 -15 -43 -7 -4 -11 -20 -10 -35 1 -15 -1 -33 -5 -39 -4 -6 2
-22 13 -36 11 -14 20 -34 20 -46 0 -11 9 -25 19 -31 18 -9 19 -7 14 26 -6 34
-4 36 16 29 16 -5 21 -2 21 10 0 12 6 15 20 10 13 -4 20 -2 20 6 0 8 6 6 18
-4 10 -10 24 -17 30 -17 15 0 15 -6 1 -32 -8 -16 -8 -24 4 -35 13 -14 14 -21
1 -62 -18 -59 -18 -66 2 -47 8 9 26 19 40 22 18 5 24 13 24 32 0 31 31 101 45
102 6 0 9 17 7 40 -4 39 -4 40 21 31 14 -5 28 -7 31 -4 3 4 6 1 6 -5 0 -6 9
-13 19 -17 11 -3 23 -15 26 -26 4 -12 23 -28 43 -36 21 -8 40 -20 44 -26 3 -5
18 -11 33 -13 20 -2 25 1 21 14 -4 12 6 25 30 41 l35 24 15 -21 c9 -13 26 -22
40 -22 14 0 42 -11 62 -25 20 -14 34 -25 30 -25 -4 0 1 -19 12 -42 26 -61 24
-109 -8 -143 l-25 -28 37 5 c29 3 40 0 47 -14 7 -13 6 -18 -2 -18 -7 0 23 -35
66 -79 43 -43 87 -98 99 -122 28 -58 49 -58 56 1 5 44 6 44 20 23 18 -27 35
-29 49 -5 8 14 13 15 30 5 15 -10 21 -10 24 0 4 8 6 7 6 -3 2 -26 34 -38 84
-33 26 3 47 10 47 14 0 16 30 9 70 -16 22 -14 43 -25 47 -25 3 0 14 -6 22 -14
26 -22 89 -28 100 -9 5 9 23 16 42 17 36 1 68 24 61 44 -2 7 2 11 9 10 7 -2
19 9 28 24 13 22 13 32 4 46 -8 13 -8 33 -2 67 6 33 5 52 -2 62 -10 11 -5 13
32 7 67 -9 130 -10 136 -1 3 4 11 3 18 -3 7 -6 21 -7 34 -2 l21 7 -20 38 c-23
43 -26 67 -6 67 22 0 13 28 -20 59 -48 48 -54 58 -48 88 5 24 1 30 -26 40 -27
10 -30 14 -21 31 8 15 7 23 -3 31 -10 8 -16 9 -21 1 -9 -14 -55 -2 -81 21 -24
22 -34 24 -34 5 0 -7 -9 -25 -20 -39 -11 -14 -21 -37 -22 -50 -2 -22 -5 -24
-21 -15 -16 8 -17 7 -8 -11 15 -27 14 -28 -11 -27 -16 1 -24 -5 -26 -20 -2
-15 -17 -24 -55 -36 -57 -18 -67 -16 -67 11 0 9 -20 31 -44 48 -33 23 -45 39
-48 64 -3 19 -1 37 5 41 7 4 8 14 1 30 -14 32 -7 68 12 61 8 -3 14 0 14 5 0 6
-16 9 -35 7 -25 -2 -35 1 -35 11 0 8 5 14 12 14 6 0 5 7 -5 18 -9 10 -13 22
-8 28 14 16 1 95 -18 101 -31 11 -51 36 -51 65 0 20 -10 38 -36 61 -21 17 -42
32 -48 32 -6 0 -26 6 -44 14 -26 11 -36 11 -41 2 -6 -9 -11 -8 -21 4 -7 8 -21
15 -31 15 -14 0 -19 -11 -25 -47 -4 -27 -12 -51 -18 -55 -8 -5 -7 -16 2 -40
13 -37 6 -50 -24 -42 -27 7 -32 71 -7 89 14 11 15 18 4 58 -7 25 -10 50 -7 55
18 29 -37 82 -84 82 -11 0 -20 5 -20 11 0 8 -5 8 -15 -1 -8 -7 -21 -10 -29 -7
-8 3 -17 1 -20 -6 -3 -9 -5 -9 -5 0 -1 17 13 23 54 25 20 1 38 5 41 10 3 4 1
8 -4 8 -5 0 -9 6 -9 13 0 6 -4 21 -9 31 -6 15 -4 18 8 13 19 -7 63 37 53 53
-4 6 -16 8 -27 4 -13 -4 -27 1 -41 14 -32 28 -48 30 -89 14z m166 -458 c5 -14
4 -15 -9 -4 -17 14 -19 20 -6 20 5 0 12 -7 15 -16z"/>
<path d="M9330 11810 c0 -16 -4 -20 -15 -16 -8 3 -15 0 -15 -7 0 -19 56 -48
82 -44 33 5 78 29 73 37 -5 8 -65 24 -79 21 -5 -1 -17 6 -27 15 -18 16 -19 16
-19 -6z"/>
<path d="M10200 11741 c0 -30 11 -51 27 -51 8 0 11 5 8 13 -4 6 1 3 10 -8 16
-20 16 -20 12 0 -7 45 -57 85 -57 46z"/>
<path d="M9317 11726 c-3 -8 0 -17 8 -20 11 -4 25 13 25 30 0 11 -29 2 -33
-10z"/>
<path d="M10210 11544 c0 -27 65 -61 73 -39 7 17 -1 25 -28 25 -11 0 -26 5
-33 12 -7 7 -12 8 -12 2z"/>
<path d="M9752 11484 c10 -10 20 -15 24 -12 3 4 -5 12 -18 18 -22 12 -22 12
-6 -6z"/>
<path d="M10850 11490 c0 -17 -74 -91 -107 -106 -30 -15 -52 -44 -34 -44 5 0
7 -9 4 -20 -3 -11 -9 -17 -14 -14 -5 3 -9 1 -9 -5 0 -5 -5 -22 -12 -38 -6 -15
-11 -31 -10 -35 1 -5 -7 -8 -18 -8 -11 0 -20 -4 -20 -10 0 -5 5 -10 10 -10 6
0 10 -6 10 -13 0 -8 9 -22 20 -32 12 -10 19 -24 16 -30 -6 -16 21 -48 33 -40
6 3 11 2 11 -4 0 -5 21 -11 48 -13 38 -2 46 -6 44 -20 -2 -11 3 -18 13 -18 11
0 14 6 9 25 -9 35 2 31 47 -16 45 -48 54 -103 20 -114 -12 -4 -20 -17 -23 -40
-5 -41 8 -49 41 -24 13 11 30 19 37 19 8 0 14 6 14 13 0 8 21 12 70 12 49 0
70 4 70 12 0 7 -8 12 -17 11 -38 -3 -50 3 -62 28 -6 15 -9 29 -6 32 3 3 -2 16
-10 29 -9 13 -13 23 -10 23 3 0 1 8 -4 18 -8 15 -3 26 26 55 19 21 39 37 44
37 5 0 9 6 9 14 0 7 7 19 15 26 17 14 10 60 -12 73 -18 11 -17 31 2 23 25 -9
18 27 -12 67 -35 44 -67 61 -93 47 -22 -12 -34 1 -25 29 9 28 -4 49 -37 60
-39 14 -78 14 -78 1z"/>
<path d="M10763 11445 c-9 -25 4 -29 17 -6 7 15 7 21 0 21 -6 0 -13 -7 -17
-15z"/>
<path d="M9825 11413 c-6 -36 -19 -52 -39 -53 -5 0 -3 7 4 15 6 8 9 19 5 25
-9 14 -45 13 -45 -2 0 -6 -6 -4 -13 6 -13 17 -14 17 -20 2 -5 -13 -11 -15 -26
-6 -26 13 -31 13 -31 -5 0 -8 6 -15 13 -15 8 0 22 -8 31 -19 9 -10 30 -21 47
-25 20 -4 36 -17 50 -41 12 -19 27 -35 35 -35 7 0 28 -13 45 -28 34 -30 33
-52 -2 -52 -10 0 -19 -4 -19 -10 0 -5 -7 -10 -16 -10 -14 0 -14 3 -4 15 10 12
9 15 -7 15 -10 0 -25 6 -33 13 -12 10 -12 9 -1 -5 12 -16 11 -18 -5 -18 -14
-1 -11 -5 12 -18 27 -15 30 -20 23 -41 -7 -19 -6 -22 6 -17 8 3 14 0 12 -7 -1
-8 13 -12 43 -12 31 0 44 -4 42 -13 -4 -20 17 -52 35 -52 12 0 13 3 4 14 -6 7
-9 20 -7 27 2 8 7 26 10 42 5 22 12 27 37 27 l30 0 -18 30 c-9 17 -21 30 -25
30 -4 0 -8 6 -8 14 0 7 -9 16 -20 19 -19 5 -41 43 -45 78 -1 9 -11 33 -24 54
-15 27 -19 41 -11 50 11 13 4 45 -10 45 -5 0 -10 -6 -13 -12 -3 -10 -7 -10
-19 0 -14 11 -17 7 -23 -25z"/>
<path d="M8771 10894 c7 -9 7 -19 -1 -33 -13 -25 -14 -25 -35 -4 -16 16 -18
16 -27 0 -5 -10 -14 -15 -19 -11 -5 3 -17 0 -26 -7 -8 -7 -25 -18 -37 -24 -21
-11 -22 -19 -12 -77 3 -18 -1 -29 -11 -32 -13 -5 -13 -9 -2 -23 12 -15 12 -16
-3 -10 -10 3 -18 2 -18 -3 0 -6 -7 -10 -17 -10 -14 0 -14 -2 2 -20 21 -24 40
-26 31 -5 -3 9 0 15 10 15 8 0 17 -7 20 -15 8 -20 26 -19 57 5 14 11 37 20 50
20 14 0 28 4 31 9 3 5 15 7 25 4 13 -3 21 2 26 16 8 25 -1 41 -21 41 -8 0 -14
9 -14 20 0 12 7 20 16 20 11 0 14 5 10 16 -10 26 47 13 59 -13 5 -13 15 -23
21 -23 20 0 -21 93 -44 101 -11 4 -23 16 -26 27 -4 11 -18 22 -31 25 -20 3
-23 1 -14 -9z"/>
<path d="M10515 10869 c4 -5 1 -9 -5 -9 -6 0 -8 -5 -4 -11 8 -13 -35 -3 -50
12 -19 18 -26 8 -26 -36 0 -41 -2 -45 -24 -45 -41 0 -77 -83 -41 -96 8 -3 23
-21 34 -39 l19 -33 -25 -7 c-14 -3 -32 -12 -39 -20 -12 -12 -11 -17 7 -34 15
-14 20 -28 17 -46 -3 -14 -1 -28 3 -31 5 -3 9 -1 9 5 0 5 10 13 23 17 12 3 30
13 40 22 12 10 17 11 17 3 0 -7 7 -10 18 -6 11 3 30 -3 45 -16 22 -17 27 -18
27 -5 0 9 8 16 20 16 11 0 20 -6 20 -13 0 -13 83 -77 100 -77 6 0 10 7 10 16
0 11 6 14 20 9 18 -6 20 -3 14 20 -5 21 -1 32 18 50 13 12 34 26 47 30 13 4
21 13 19 23 -4 26 16 26 22 1 9 -38 26 -33 22 6 -3 21 0 35 7 35 6 0 10 -3 10
-7 -5 -32 3 -63 16 -63 34 0 72 -31 95 -75 13 -26 34 -51 46 -55 35 -14 37
-28 7 -47 -58 -37 -58 -37 -17 -121 21 -42 38 -81 39 -87 0 -5 5 -17 10 -25 6
-8 11 -24 12 -35 5 -67 15 -120 24 -136 9 -17 6 -19 -28 -21 -98 -5 -108 -3
-132 22 -24 24 -24 24 -33 4 -10 -22 5 -74 22 -74 5 0 10 -9 10 -20 0 -11 -6
-20 -14 -20 -9 0 -12 -7 -9 -18 3 -12 -4 -25 -21 -36 -24 -15 -28 -15 -51 0
-25 16 -35 8 -15 -12 17 -17 -34 -114 -60 -114 -10 0 -16 -10 -17 -27 0 -16 1
-20 4 -10 4 17 6 17 23 2 10 -9 16 -23 14 -30 -3 -7 -1 -16 5 -19 7 -5 7 -13
-1 -25 -9 -15 -7 -25 9 -52 32 -52 38 -95 16 -107 -17 -10 -17 -12 3 -39 20
-26 38 -33 40 -15 2 17 17 42 26 42 5 0 7 -4 3 -9 -3 -6 5 -15 17 -22 13 -6
25 -13 27 -15 1 -1 -8 -18 -22 -36 -14 -18 -27 -42 -29 -53 -2 -15 -12 -21
-40 -23 -31 -3 -35 -6 -30 -24 4 -18 2 -20 -16 -16 -22 6 -44 -12 -55 -45 -5
-12 -13 -16 -26 -12 -30 9 -81 -42 -81 -82 0 -26 -6 -36 -25 -45 -16 -7 -23
-17 -20 -27 5 -18 -29 -81 -45 -81 -5 0 -7 -7 -3 -16 5 -13 -3 -15 -46 -13
-55 3 -57 5 -36 33 10 13 11 24 5 36 -5 10 -6 20 -3 24 3 3 1 6 -5 6 -7 0 -12
-4 -12 -9 0 -5 -9 -7 -20 -4 -11 3 -20 13 -20 22 0 29 -35 43 -66 26 -15 -8
-31 -12 -35 -10 -4 3 -10 -2 -13 -11 -3 -8 -10 -13 -15 -10 -5 3 -11 0 -14 -8
-3 -8 -19 -17 -36 -21 -18 -4 -28 -11 -25 -17 4 -6 -1 -8 -15 -3 -16 5 -21 2
-21 -10 0 -10 -6 -15 -13 -12 -25 9 -11 -32 21 -66 18 -18 32 -37 32 -41 0 -5
26 -33 58 -62 31 -29 60 -57 64 -61 4 -4 25 -29 47 -54 23 -25 41 -53 41 -61
0 -8 3 -17 6 -21 10 -10 34 4 34 22 1 13 3 12 12 -4 6 -11 18 -25 26 -31 12
-9 13 -17 4 -41 -9 -27 -7 -34 18 -62 19 -20 25 -33 17 -38 -6 -3 -13 -1 -15
5 -5 16 -52 15 -52 0 0 -7 14 -22 30 -33 33 -22 44 -43 34 -69 -4 -11 -13 -14
-30 -10 -22 6 -22 4 -11 -19 9 -20 17 -24 37 -20 17 3 31 -1 39 -11 16 -19 47
-21 55 -3 3 9 9 7 19 -5 8 -10 16 -16 18 -14 2 3 4 -9 4 -25 0 -17 -5 -29 -12
-29 -7 0 -13 -4 -13 -8 0 -4 -12 -9 -27 -10 -15 -1 -30 -7 -34 -13 -3 -6 -16
-8 -27 -5 -11 4 -23 2 -27 -4 -12 -19 -53 -10 -75 17 -25 33 -78 52 -127 48
-20 -2 -41 -1 -46 2 -5 3 -28 6 -50 7 -27 1 -56 11 -82 29 -22 15 -50 27 -63
27 -27 0 -82 26 -82 40 0 12 -55 50 -82 56 -34 8 -111 23 -125 23 -6 1 -14 15
-18 31 -5 23 -11 29 -24 25 -18 -6 -126 39 -137 56 -11 18 -57 31 -64 19 -4
-6 -13 -13 -21 -14 -8 -2 -26 -6 -41 -10 -20 -6 -31 -3 -50 16 l-23 23 -3 -22
c-3 -24 -26 -31 -37 -13 -4 6 -11 8 -16 5 -21 -14 36 -82 64 -77 4 1 7 -7 7
-18 0 -11 4 -28 9 -38 30 -57 39 -87 30 -103 -6 -11 -5 -20 1 -24 11 -7 14
-28 3 -22 -5 3 -17 1 -28 -3 -18 -7 -17 -8 8 -15 24 -6 28 -12 23 -31 -5 -19
0 -26 24 -39 20 -11 27 -20 23 -32 -5 -13 -1 -15 22 -11 23 5 34 -1 62 -29 18
-20 33 -40 33 -44 0 -13 36 -29 64 -29 16 0 26 6 26 15 0 12 4 11 20 -5 24
-24 28 -24 76 -3 50 22 65 23 87 4 16 -13 17 -13 12 1 -4 11 1 21 13 29 12 7
18 19 14 27 -4 12 2 14 34 9 28 -4 49 -17 74 -45 31 -34 38 -37 57 -27 17 9
20 14 11 23 -9 9 -9 15 0 24 7 7 12 8 12 2 0 -5 4 -3 9 5 6 9 11 10 15 2 4 -6
2 -11 -3 -11 -18 0 -12 -29 8 -39 21 -12 34 -48 20 -57 -16 -9 -10 -34 9 -34
27 0 62 -29 62 -51 0 -11 7 -19 16 -19 11 0 14 5 10 16 -6 15 -4 15 20 0 23
-16 27 -16 49 -2 31 20 32 20 38 -5 5 -17 9 -19 26 -9 12 6 21 17 21 25 0 8 6
12 14 9 8 -3 25 4 37 15 30 27 37 26 78 -9 18 -17 35 -30 37 -30 2 0 8 9 14
21 8 14 8 24 1 33 -6 7 -9 27 -7 44 2 18 -2 42 -9 56 -7 13 -14 40 -17 59 -3
29 0 37 16 41 11 3 24 0 28 -7 12 -18 10 10 -1 32 -8 14 -4 21 20 35 25 15 34
16 65 4 31 -11 37 -11 45 4 7 12 18 15 49 11 32 -5 44 -2 54 13 11 14 17 16
28 7 8 -7 19 -8 27 -3 15 8 57 -4 124 -36 36 -17 39 -17 48 -2 5 10 17 14 29
11 16 -4 20 0 20 21 0 15 6 26 14 26 18 0 47 -61 36 -75 -5 -6 -5 -17 0 -25
14 -22 12 -33 -5 -26 -10 3 -15 -1 -15 -14 0 -16 -5 -18 -35 -13 -21 3 -41 1
-50 -7 -8 -7 -33 -13 -55 -14 -29 0 -42 -6 -46 -18 -3 -10 -11 -19 -17 -20 -7
0 -16 -2 -22 -3 -5 -2 -18 -3 -29 -4 -12 -1 -16 -6 -12 -17 4 -12 -12 -34 -56
-74 l-61 -57 21 -24 c23 -24 28 -45 13 -51 -6 -2 -4 -26 3 -58 10 -46 16 -56
36 -58 13 -2 40 -15 59 -28 20 -13 44 -24 54 -24 26 0 18 -34 -9 -38 -16 -2
-20 -9 -16 -32 5 -36 36 -46 63 -19 14 14 17 27 13 44 l-6 25 30 -17 c24 -14
34 -15 43 -6 9 9 9 16 -2 29 -13 16 -12 17 14 10 18 -4 40 -1 62 10 22 10 40
13 48 8 6 -5 23 -9 36 -9 13 0 41 -16 63 -36 29 -26 46 -35 64 -31 13 2 24 10
24 17 0 20 31 27 50 10 20 -18 51 -20 67 -4 6 6 17 8 23 4 7 -4 28 -9 46 -10
28 -2 35 3 45 27 6 15 18 28 25 28 8 0 14 10 14 25 0 22 3 24 19 16 10 -6 21
-8 24 -5 3 3 12 -3 19 -15 7 -12 18 -21 25 -21 7 0 13 -6 13 -14 0 -7 7 -19
15 -26 13 -10 19 -10 33 4 26 22 39 20 66 -11 23 -27 26 -27 61 -14 32 11 39
11 46 0 5 -8 9 -17 9 -21 0 -5 11 -8 25 -8 16 0 25 -6 25 -16 0 -22 29 -69 72
-116 26 -28 50 -43 88 -53 28 -8 57 -12 64 -9 11 4 54 -33 49 -42 -8 -13 0
-24 17 -24 10 0 23 -6 27 -13 13 -23 59 -48 75 -42 9 4 18 -1 22 -11 5 -13 15
-15 59 -10 50 7 92 -7 92 -31 0 -4 8 -19 17 -31 16 -23 16 -24 23 -3 3 11 4
25 1 30 -4 5 7 12 24 16 16 4 32 11 35 16 4 5 15 9 26 9 12 0 19 7 19 19 0 13
9 21 29 26 18 4 31 14 34 27 5 18 8 19 21 8 17 -14 22 -65 6 -55 -5 3 -10 0
-10 -8 0 -8 -7 -20 -16 -28 -8 -7 -13 -21 -10 -31 3 -13 -3 -23 -20 -30 -14
-7 -23 -18 -22 -26 4 -21 28 -27 28 -7 0 12 4 14 17 7 20 -12 44 0 91 46 22
21 29 32 19 32 -20 0 -33 20 -19 29 6 3 13 26 17 50 7 46 40 99 63 100 6 1 12
8 12 16 0 17 30 35 59 35 l20 0 -20 35 c-19 32 -31 39 -66 38 -7 -1 -13 8 -13
18 0 11 -7 19 -17 19 -13 0 -14 3 -5 12 7 7 12 21 12 33 0 12 5 26 11 32 16
16 -24 53 -58 53 -22 0 -25 2 -13 10 9 6 10 10 3 10 -6 0 -18 -8 -25 -19 -7
-10 -23 -21 -35 -25 -13 -4 -23 -14 -23 -22 0 -10 -7 -13 -25 -8 -14 3 -32 1
-40 -6 -12 -10 -18 -6 -35 22 -11 18 -20 41 -20 51 0 12 -14 24 -41 35 l-41
16 6 49 c6 40 4 51 -10 62 -16 11 -15 13 9 19 23 5 25 9 17 31 -5 14 -8 30 -6
37 1 7 1 10 -1 6 -7 -12 -33 3 -33 19 0 19 -29 42 -53 43 -10 0 -20 7 -23 15
-9 23 -40 27 -73 11 -17 -9 -35 -16 -40 -16 -6 0 -32 23 -58 50 -47 49 -83 65
-83 34 0 -9 -5 -12 -12 -8 -8 5 -9 2 -5 -9 9 -25 -20 -21 -33 4 -7 11 -9 26
-7 34 3 7 0 18 -6 24 -8 8 -8 14 -2 19 6 4 9 18 7 32 -2 14 -3 37 -3 53 0 15
-5 27 -12 27 -7 0 -6 4 3 10 13 8 11 11 -7 16 -13 3 -36 28 -53 55 -25 41 -27
51 -15 55 8 4 15 12 15 19 0 13 51 38 77 38 23 0 34 41 20 77 -10 27 -9 33 4
43 33 24 41 55 30 109 -8 37 -8 54 0 64 6 7 8 18 4 23 -3 6 -2 18 3 27 7 12 4
22 -11 37 -14 14 -22 17 -25 9 -6 -20 -43 -14 -49 8 -6 23 -4 23 -38 10 -20
-8 -32 -7 -46 4 -13 9 -16 16 -10 21 18 11 12 27 -8 20 -10 -3 -23 1 -30 9
-12 14 -46 16 -66 4 -6 -3 -35 -5 -65 -4 -52 1 -56 3 -70 33 -8 18 -20 33 -26
33 -14 0 -26 28 -19 40 3 4 -4 6 -15 3 -11 -3 -23 -10 -26 -15 -3 -5 -11 -4
-19 2 -11 9 -12 4 -8 -27 4 -34 2 -40 -26 -56 -17 -10 -31 -22 -31 -28 0 -5
-7 -9 -15 -9 -8 0 -15 -6 -15 -14 0 -16 -27 -12 -70 11 -23 12 -25 11 -28 -7
-2 -14 -11 -20 -28 -20 -13 0 -24 -5 -24 -10 0 -6 -16 -8 -40 -4 -33 5 -44 3
-59 -13 -11 -11 -21 -29 -23 -39 -4 -25 -66 -31 -105 -10 -24 13 -25 15 -8 16
32 0 65 29 65 55 0 19 7 26 28 31 32 8 60 34 54 52 -2 7 2 10 12 6 9 -3 16 -1
16 5 0 6 6 8 14 5 16 -6 29 46 15 60 -5 6 -9 13 -9 16 0 14 81 32 122 28 41
-5 45 -3 71 32 15 21 31 49 37 64 7 18 17 26 34 26 16 0 27 7 31 20 5 15 12
19 30 14 20 -5 27 1 47 35 15 27 30 41 43 41 22 0 97 57 163 126 23 24 47 44
51 44 5 0 6 15 1 33 -4 18 -5 47 -3 64 4 25 8 29 29 25 17 -3 24 0 24 12 0 9
-6 16 -14 16 -8 0 -17 4 -20 8 -3 5 8 9 25 9 16 0 37 7 46 16 24 23 43 83 30
96 -7 7 0 12 19 17 45 11 55 23 48 60 -5 26 -2 35 15 46 12 7 21 18 21 25 0
15 66 37 82 27 10 -6 10 -5 1 7 -14 17 -20 70 -10 86 10 15 -2 43 -19 43 -7 0
-17 7 -22 15 -4 9 -25 17 -45 18 -29 3 -46 13 -78 48 -27 28 -43 39 -46 31 -3
-7 1 -21 9 -30 20 -22 30 -51 22 -63 -3 -6 -13 -1 -22 9 -10 11 -26 22 -37 25
-11 4 -33 19 -48 33 -23 21 -35 25 -60 20 -18 -4 -40 -16 -50 -29 -16 -21 -18
-21 -31 -4 -18 23 -22 13 -21 -40 1 -46 1 -46 -65 -44 -19 1 -30 -2 -24 -6 30
-22 18 -73 -17 -73 -12 0 -23 8 -26 20 -5 20 -13 24 -45 21 -9 -1 -19 7 -23
19 -6 17 -16 23 -42 19 -3 0 -10 6 -15 15 -6 11 -17 14 -37 10 -21 -5 -35 0
-50 15 -17 17 -21 18 -21 6 0 -13 -10 -15 -49 -12 -45 3 -49 1 -40 -15 11 -21
4 -38 -15 -38 -14 0 -29 -34 -27 -61 1 -12 -5 -15 -24 -11 -23 4 -25 9 -23 43
2 48 -3 53 -35 38 -20 -9 -30 -9 -40 -1 -11 9 -16 7 -25 -13 -9 -19 -16 -23
-32 -17 -12 4 -21 12 -21 17 0 17 -30 44 -44 39 -7 -3 -16 -1 -20 5 -10 17
-46 13 -61 -6 -12 -17 -14 -17 -31 0 -12 12 -13 17 -4 17 8 0 11 6 7 15 -5 13
0 15 29 9 21 -4 35 -2 35 4 0 6 8 8 18 5 12 -3 19 1 20 11 1 9 3 23 4 31 1 8
9 15 18 15 15 0 15 5 -6 46 -26 52 -24 64 12 64 26 0 29 7 15 29 -6 10 -5 24
4 42 9 16 12 40 8 63 -4 27 -2 37 11 42 9 3 13 10 10 15 -11 18 20 9 43 -13
13 -12 23 -17 23 -11 0 6 -7 14 -16 17 -8 3 -12 11 -9 16 4 6 1 9 -7 8 -9 -2
-14 10 -16 37 -4 43 -53 120 -84 130 -10 4 -18 10 -18 14 0 5 -11 6 -25 3 -18
-3 -25 0 -25 11 0 8 -6 17 -14 20 -7 3 -28 31 -45 63 -33 56 -32 64 3 77 10 3
17 57 8 58 -4 0 -20 2 -35 4 -17 2 -30 -1 -33 -10 -5 -13 -70 -15 -91 -2 -5 3
-20 -4 -34 -16 -31 -28 -53 -28 -57 1 -2 12 -8 22 -14 22 -6 0 -8 -13 -6 -31
4 -22 0 -33 -14 -40 -10 -5 -18 -17 -18 -25 0 -12 -6 -15 -25 -10 -20 5 -25 3
-25 -13 0 -11 -4 -23 -10 -26 -5 -3 -7 -19 -4 -34 5 -23 2 -30 -13 -35 -28 -9
-64 1 -90 25 l-23 22 0 -22 c0 -16 -4 -21 -15 -18 -8 4 -17 2 -20 -2 -3 -5
-13 -7 -24 -4 -12 3 -24 -3 -35 -18 -14 -21 -16 -21 -16 -5 0 11 -7 28 -17 38
-14 15 -14 18 -1 18 8 0 22 8 32 18 21 24 9 99 -16 94 -19 -3 -32 24 -16 34 5
4 14 0 19 -7 6 -11 9 -10 15 4 5 14 9 15 23 5 9 -7 13 -8 9 -4 -4 5 -3 15 4
23 13 17 9 21 -31 33 -19 5 -29 5 -26 -1z m10 -139 c3 -5 1 -10 -4 -10 -6 0
-11 5 -11 10 0 6 2 10 4 10 3 0 8 -4 11 -10z m-52 -57 c6 -31 -6 -43 -34 -36
-21 6 -25 33 -7 51 20 20 35 14 41 -15z m772 -693 c3 -5 -1 -10 -9 -10 -8 0
-18 5 -21 10 -3 6 1 10 9 10 8 0 18 -4 21 -10z m98 -103 c-2 -4 -11 -3 -19 4
-12 10 -12 14 -2 20 13 9 30 -10 21 -24z m51 -12 c3 -8 13 -15 22 -15 12 0 15
-7 12 -25 -4 -21 1 -28 41 -47 68 -32 90 -58 51 -58 -11 0 -20 -5 -20 -12 0
-9 -3 -9 -11 -1 -7 7 -37 9 -84 6 -54 -4 -74 -2 -80 8 -5 7 -4 14 3 17 7 2 12
12 12 22 0 10 4 21 9 25 6 3 4 18 -4 38 -12 30 -12 33 8 44 29 16 34 16 41 -2z
m566 -40 c0 -8 -4 -17 -10 -20 -6 -4 -10 5 -10 20 0 15 4 24 10 20 6 -3 10
-12 10 -20z m-6 -125 c-8 -10 -10 -21 -4 -30 6 -10 4 -23 -5 -37 -8 -12 -15
-29 -15 -37 0 -12 -5 -13 -30 -5 -31 11 -38 23 -20 34 6 3 10 18 10 33 0 15 7
40 15 56 8 15 12 32 9 37 -3 6 0 17 7 25 10 12 15 9 29 -23 14 -32 15 -41 4
-53z m-724 40 c0 -5 -7 -7 -15 -4 -8 4 -12 10 -9 15 6 11 24 2 24 -11z m210
-91 c0 -4 -9 -5 -20 -2 -15 4 -19 1 -15 -9 4 -9 0 -15 -9 -15 -8 0 -13 4 -10
9 3 4 0 8 -6 8 -6 0 -3 11 7 24 17 22 19 23 36 9 9 -9 17 -19 17 -24z m-130
-2 c0 -23 -30 -56 -45 -51 -13 5 -13 10 1 35 15 29 44 40 44 16z m147 -39 c-3
-8 -6 -5 -6 6 -1 11 2 17 5 13 3 -3 4 -12 1 -19z m-413 -294 c9 -24 7 -28 -9
-14 -17 14 -20 30 -6 30 5 0 12 -7 15 -16z m-4 -64 c10 -19 10 -20 -9 -8 -22
13 -28 28 -11 28 5 0 14 -9 20 -20z m-770 -1270 c0 -5 -7 -7 -15 -4 -8 4 -15
8 -15 10 0 2 7 4 15 4 8 0 15 -4 15 -10z m190 -114 c0 -3 -4 -8 -10 -11 -5 -3
-10 -1 -10 4 0 6 5 11 10 11 6 0 10 -2 10 -4z"/>
<path d="M11141 10844 c0 -11 3 -14 6 -6 3 7 2 16 -1 19 -3 4 -6 -2 -5 -13z"/>
<path d="M8570 10811 c0 -5 5 -13 10 -16 6 -3 10 -2 10 4 0 5 -4 13 -10 16 -5
3 -10 2 -10 -4z"/>
<path d="M8580 10744 c0 -8 5 -12 10 -9 6 4 8 11 5 16 -9 14 -15 11 -15 -7z"/>
<path d="M8480 10720 c0 -11 7 -20 15 -20 9 0 18 -7 21 -15 4 -8 17 -15 30
-15 42 0 28 26 -28 52 -37 17 -38 17 -38 -2z"/>
<path d="M8838 10713 c7 -3 16 -2 19 1 4 3 -2 6 -13 5 -11 0 -14 -3 -6 -6z"/>
<path d="M8889 10708 c-3 -11 -11 -59 -13 -88 -2 -19 -7 -42 -10 -51 -5 -11 1
-21 18 -33 15 -9 26 -23 26 -32 0 -21 41 -74 57 -74 7 0 13 -9 13 -21 0 -11 7
-28 16 -37 17 -17 94 -26 94 -12 0 5 19 8 43 7 37 -2 42 1 45 21 2 14 -5 30
-20 42 -13 11 -20 19 -15 20 10 0 -28 73 -47 89 -9 8 -16 19 -16 26 0 6 -25
24 -55 40 -48 24 -57 34 -54 61 2 19 -76 58 -82 42z"/>
<path d="M8190 10660 c0 -5 6 -10 13 -10 7 0 18 -14 24 -31 9 -23 17 -30 29
-25 10 4 22 -1 30 -11 12 -16 13 -16 14 -1 0 26 -33 76 -55 82 -31 9 -55 7
-55 -4z"/>
<path d="M10330 10660 c0 -5 7 -10 15 -10 8 0 15 5 15 10 0 6 -7 10 -15 10 -8
0 -15 -4 -15 -10z"/>
<path d="M8480 10650 c-14 -3 -20 -9 -15 -12 12 -8 65 2 65 11 0 9 -16 9 -50
1z"/>
<path d="M8396 10584 c-4 -9 -4 -19 -1 -22 3 -3 5 0 5 6 0 7 7 12 16 12 8 0
12 5 9 10 -9 15 -22 12 -29 -6z"/>
<path d="M8261 10574 c0 -11 3 -14 6 -6 3 7 2 16 -1 19 -3 4 -6 -2 -5 -13z"/>
<path d="M8300 10549 c0 -5 5 -7 10 -4 6 3 10 8 10 11 0 2 -4 4 -10 4 -5 0
-10 -5 -10 -11z"/>
<path d="M8230 10525 c0 -14 -4 -25 -9 -25 -14 0 -1 -38 16 -44 21 -9 30 0 35
33 4 26 2 29 -14 20 -20 -11 -24 1 -7 18 7 7 6 12 -5 16 -12 5 -16 0 -16 -18z"/>
<path d="M8327 10496 c-4 -10 -1 -13 8 -9 8 3 12 9 9 14 -7 12 -11 11 -17 -5z"/>
<path d="M8288 10468 c6 -8 9 -18 5 -21 -3 -4 1 -7 11 -7 24 0 16 34 -9 39
-16 3 -17 1 -7 -11z"/>
<path d="M10430 10470 c0 -5 5 -10 11 -10 5 0 7 5 4 10 -3 6 -8 10 -11 10 -2
0 -4 -4 -4 -10z"/>
<path d="M11377 10460 c-3 -12 0 -20 8 -20 14 0 27 25 18 34 -11 11 -21 6 -26
-14z"/>
<path d="M9290 10410 c0 -11 7 -20 15 -20 8 0 15 -4 15 -10 0 -5 -8 -6 -17 -3
-12 5 -15 2 -10 -10 5 -14 2 -16 -18 -11 -29 7 -35 -15 -10 -36 8 -7 15 -17
15 -22 0 -12 26 -38 38 -38 6 0 12 7 16 15 4 10 14 13 34 9 17 -4 32 -1 36 5
9 14 53 15 61 1 3 -5 -3 -15 -13 -21 -13 -8 -17 -20 -14 -37 3 -16 -1 -28 -12
-34 -9 -5 -16 -15 -16 -23 0 -7 -13 -23 -28 -34 -23 -16 -32 -18 -42 -8 -10 9
-11 9 -5 -1 4 -8 -1 -22 -13 -35 -11 -12 -23 -37 -27 -54 -4 -21 -17 -39 -35
-49 -27 -16 -28 -19 -16 -53 14 -39 15 -109 2 -129 -6 -10 -1 -11 18 -6 17 4
26 2 26 -6 0 -6 -4 -9 -9 -6 -5 4 -7 -3 -4 -14 7 -27 29 -19 26 9 -2 13 1 20
7 16 6 -3 16 -3 23 2 6 4 30 8 51 9 22 0 34 -2 28 -4 -7 -2 -12 -8 -12 -12 0
-15 42 -50 60 -50 29 0 18 -42 -17 -62 -18 -11 -35 -28 -38 -39 -8 -23 -60
-27 -69 -4 -3 8 -12 15 -20 15 -13 0 -14 -4 -3 -27 6 -16 17 -32 24 -38 7 -6
9 -15 5 -22 -14 -22 -53 13 -46 41 7 30 -22 44 -31 15 -6 -19 -11 -21 -49 -23
-40 -2 -27 -25 18 -31 46 -7 63 -29 31 -41 -10 -4 -12 -11 -7 -18 11 -15 13
-56 3 -56 -5 0 -14 -14 -21 -30 -11 -25 -10 -33 2 -48 10 -12 14 -35 12 -75
-2 -32 1 -55 5 -52 5 2 16 -6 25 -19 14 -22 14 -28 1 -60 -9 -20 -20 -36 -26
-36 -5 0 -19 -9 -31 -20 -12 -11 -29 -20 -38 -20 -27 0 -50 -34 -50 -73 0 -26
-6 -39 -20 -47 -19 -10 -19 -11 6 -50 l27 -40 -26 -24 c-22 -20 -24 -26 -13
-41 12 -17 13 -16 21 6 4 13 8 27 9 31 0 3 4 10 9 14 4 4 7 14 7 23 1 21 47
77 56 68 11 -11 54 34 54 56 0 16 2 17 16 7 12 -11 18 -11 30 2 12 11 13 21 4
42 -16 43 -12 51 15 26 13 -12 30 -39 36 -59 7 -20 19 -41 27 -47 11 -8 12
-13 3 -18 -6 -4 -9 -12 -5 -17 3 -5 0 -17 -7 -25 -9 -11 -9 -18 -1 -26 7 -7
12 -20 12 -29 0 -9 7 -19 15 -22 11 -5 12 -1 5 19 -12 30 -12 34 -2 33 23 -4
32 4 32 30 0 26 4 29 46 35 25 3 54 1 65 -4 15 -8 19 -7 19 5 0 8 -4 15 -10
15 -5 0 -10 4 -10 9 0 15 39 0 63 -25 12 -13 31 -24 42 -24 11 0 28 -9 38 -21
11 -13 25 -18 36 -14 12 3 21 0 25 -10 9 -25 48 4 43 33 -2 12 0 22 4 22 5 0
9 -4 9 -10 0 -5 7 -10 15 -10 9 0 26 -6 38 -14 12 -8 41 -13 65 -11 42 2 54
-9 31 -32 -13 -13 -3 -67 16 -83 10 -8 19 -8 34 -1 21 12 62 -1 89 -26 20 -19
22 -16 11 17 -9 25 -7 34 10 56 15 19 18 31 11 38 -5 5 -10 16 -10 24 0 34
-109 129 -118 103 -5 -14 -39 -14 -47 -1 -8 13 -25 13 -25 1 0 -5 9 -13 20
-16 11 -4 18 -11 14 -16 -3 -5 -15 -7 -26 -3 -18 5 -20 3 -15 -15 6 -24 -4
-34 -26 -25 -19 7 -6 73 18 90 15 11 14 13 -4 19 -13 4 -21 15 -21 30 0 12 -7
26 -16 29 -8 3 -12 10 -9 16 4 6 11 8 16 5 5 -4 18 -3 30 0 17 6 18 9 7 22
-12 15 -10 15 10 4 23 -12 87 -32 145 -45 19 -5 26 -3 22 4 -3 5 -1 10 4 10 7
0 10 19 9 47 -1 29 3 48 11 51 15 5 -5 32 -25 32 -21 0 -22 72 -1 93 9 9 21
17 26 17 5 0 12 14 16 30 4 17 13 30 21 30 19 0 29 -4 27 -11 -5 -15 43 -2 49
14 6 13 14 16 32 11 19 -4 26 -1 31 16 8 25 9 22 -30 43 -20 11 -24 16 -12 17
22 0 22 16 1 28 -11 6 -15 17 -12 30 4 15 -1 26 -18 37 -13 8 -23 21 -21 28 1
6 -5 12 -13 12 -18 0 -36 22 -57 72 -15 37 -15 38 4 21 23 -21 42 -22 66 -4
21 16 22 35 2 42 -10 4 -13 14 -8 32 4 19 3 23 -7 17 -10 -6 -12 -4 -7 7 3 10
-4 25 -18 38 -21 20 -25 21 -30 7 -4 -8 -15 -17 -26 -20 -11 -3 -18 -11 -17
-19 2 -7 -6 -13 -17 -14 -30 -1 -68 -14 -87 -31 -9 -8 -21 -12 -27 -9 -5 4
-12 2 -16 -4 -6 -9 -103 43 -116 63 -4 5 -12 0 -19 -13 -6 -12 -14 -19 -17
-16 -3 2 -16 0 -30 -5 -29 -11 -55 2 -97 48 -21 23 -27 25 -41 13 -13 -11 -18
-10 -29 6 -10 13 -11 23 -4 31 10 13 -11 85 -38 128 -18 29 -15 132 3 140 13
4 13 9 -2 32 -10 15 -14 28 -8 30 9 3 -1 51 -24 113 -13 34 -12 50 2 50 17 0
20 16 5 25 -5 3 -10 1 -10 -4 0 -15 -36 -14 -60 1 -24 15 -37 4 -20 -17 18
-22 7 -29 -56 -31 -50 -2 -54 0 -49 17 5 14 0 22 -20 29 -35 13 -35 13 -35
-10z m40 -860 c0 -5 -4 -10 -10 -10 -5 0 -10 5 -10 10 0 6 5 10 10 10 6 0 10
-4 10 -10z m145 -1 c3 -3 -1 -22 -9 -41 -9 -20 -12 -39 -8 -43 4 -3 7 -10 7
-13 1 -4 6 -16 12 -27 18 -32 21 -91 4 -80 -5 3 -12 1 -16 -5 -9 -15 -25 -12
-25 4 0 12 -7 13 -32 5 -51 -14 -65 -5 -63 44 0 23 5 49 10 57 16 25 16 50 0
73 -8 12 -15 24 -15 28 0 8 127 6 135 -2z m-146 -215 c2 -2 2 -7 -1 -10 -4 -3
-19 2 -35 10 l-28 16 30 -6 c17 -4 32 -8 34 -10z m-134 -344 c3 -5 -1 -10 -9
-10 -9 0 -16 5 -16 10 0 6 4 10 9 10 6 0 13 -4 16 -10z"/>
<path d="M9565 10420 c3 -5 8 -10 11 -10 2 0 4 5 4 10 0 6 -5 10 -11 10 -5 0
-7 -4 -4 -10z"/>
<path d="M8193 10413 c-7 -2 -9 -11 -7 -18 3 -8 -4 -24 -15 -37 -20 -21 -21
-23 -4 -30 27 -10 33 -9 33 6 0 8 7 16 15 20 30 11 9 70 -22 59z"/>
<path d="M9563 10380 c1 -11 7 -20 14 -20 7 0 13 9 13 20 0 11 -6 20 -14 20
-9 0 -14 -9 -13 -20z"/>
<path d="M9165 10330 c3 -5 8 -10 11 -10 2 0 4 5 4 10 0 6 -5 10 -11 10 -5 0
-7 -4 -4 -10z"/>
<path d="M8130 10321 c0 -12 28 -22 35 -12 3 5 -2 12 -11 15 -21 8 -24 8 -24
-3z"/>
<path d="M8070 10255 c0 -19 9 -19 34 0 19 14 19 15 -7 15 -17 0 -27 -5 -27
-15z"/>
<path d="M8043 10202 c-5 -4 -12 -15 -16 -25 -4 -10 -11 -15 -17 -12 -5 3 -10
-1 -10 -9 0 -9 -7 -16 -16 -16 -9 0 -14 -6 -11 -12 2 -8 22 -13 49 -13 38 0
44 3 40 18 -2 9 1 17 7 17 6 0 11 7 11 16 0 20 -24 44 -37 36z"/>
<path d="M10776 10075 c-3 -9 7 -14 30 -17 19 -2 34 -3 34 -2 0 2 -13 9 -29
17 -24 12 -31 12 -35 2z"/>
<path d="M12370 10070 c0 -5 4 -10 9 -10 6 0 13 5 16 10 3 6 -1 10 -9 10 -9 0
-16 -4 -16 -10z"/>
<path d="M10840 10029 c0 -13 46 -59 60 -59 15 0 12 17 -5 24 -8 3 -15 14 -15
24 0 11 -8 18 -20 19 -11 1 -20 -3 -20 -8z"/>
<path d="M9152 9698 c-21 -21 -13 -38 18 -38 31 0 35 6 24 34 -7 19 -25 21
-42 4z"/>
<path d="M9050 9635 c0 -8 7 -15 16 -15 14 0 14 3 4 15 -7 8 -14 15 -16 15 -2
0 -4 -7 -4 -15z"/>
<path d="M9200 9639 c0 -5 5 -7 10 -4 6 3 10 8 10 11 0 2 -4 4 -10 4 -5 0 -10
-5 -10 -11z"/>
<path d="M9097 9606 c-3 -8 1 -20 9 -27 13 -10 17 -10 24 1 5 9 5 20 -2 27
-14 17 -25 16 -31 -1z"/>
<path d="M9028 9603 c7 -3 16 -2 19 1 4 3 -2 6 -13 5 -11 0 -14 -3 -6 -6z"/>
<path d="M9276 8671 c-3 -5 3 -11 14 -14 13 -3 20 0 20 9 0 15 -26 19 -34 5z"/>
<path d="M9242 8639 c2 -6 8 -10 13 -10 5 0 11 4 13 10 2 6 -4 11 -13 11 -9 0
-15 -5 -13 -11z"/>
<path d="M9223 8588 c2 -19 -3 -23 -29 -23 -30 0 -30 -1 -20 -34 6 -20 19 -37
34 -42 20 -8 22 -12 12 -24 -14 -17 -14 -17 14 -32 14 -8 27 -6 50 6 17 9 33
19 34 24 2 4 10 7 18 7 18 0 -24 63 -72 108 -42 38 -44 39 -41 10z"/>
<path d="M11166 8124 c-4 -10 -2 -13 6 -8 8 5 9 2 5 -9 -3 -9 -2 -19 3 -22 6
-4 10 7 10 24 0 33 -14 42 -24 15z"/>
<path d="M11126 8092 c-3 -5 4 -13 15 -20 15 -10 19 -10 19 2 0 15 -27 29 -34
18z"/>
<path d="M12620 7980 c0 -5 5 -10 10 -10 6 0 10 5 10 10 0 6 -4 10 -10 10 -5
0 -10 -4 -10 -10z"/>
<path d="M10120 7855 c0 -3 6 -14 13 -26 10 -17 9 -22 -3 -32 -22 -17 -18 -49
7 -69 27 -23 35 -23 51 2 10 17 9 23 -7 37 -16 13 -17 18 -6 29 8 8 21 11 32
7 17 -6 17 -6 1 10 -9 9 -23 17 -31 17 -8 0 -17 7 -21 15 -5 14 -36 22 -36 10z"/>
<path d="M10978 7453 c7 -3 16 -2 19 1 4 3 -2 6 -13 5 -11 0 -14 -3 -6 -6z"/>
</g>
</svg>
