<?xml version="1.0" standalone="no"?>
<!DOCTYPE svg PUBLIC "-//W3C//DTD SVG 20010904//EN"
 "http://www.w3.org/TR/2001/REC-SVG-20010904/DTD/svg10.dtd">
<svg version="1.0" xmlns="http://www.w3.org/2000/svg"
 width="758.655593pt" height="705.768774pt" viewBox="0 0 758.655593 705.768774"
 preserveAspectRatio="xMidYMid meet">
<metadata>
Created by potrace 1.15, written by Peter Selinger 2001-2017
</metadata>
<g transform="translate(-595.337146,1317.844393) scale(0.100000,-0.100000)"
fill="#222222" stroke="none">
<path d="M11597 13173 c-12 -3 -16 -11 -12 -23 8 -25 -38 -36 -67 -15 -21 14
-23 13 -35 -16 -11 -26 -17 -30 -37 -25 -25 6 -49 -13 -60 -50 -5 -16 -12 -20
-36 -16 -25 3 -29 1 -24 -12 4 -11 1 -16 -11 -16 -12 0 -15 -5 -9 -22 4 -13
13 -27 20 -33 17 -14 7 -61 -16 -71 -16 -8 -16 -11 -4 -22 12 -11 14 -10 14 5
0 13 3 14 12 5 18 -18 -8 -33 -36 -23 -27 10 -46 3 -69 -26 -14 -18 -22 -21
-36 -13 -22 11 -71 -8 -71 -28 0 -10 -8 -12 -30 -7 -25 5 -30 3 -30 -12 -1
-24 -95 -128 -108 -119 -6 3 -13 2 -17 -4 -3 -5 -19 -10 -34 -10 -15 0 -32 -5
-38 -11 -13 -13 -65 -6 -106 16 l-28 14 21 -26 c12 -15 20 -41 20 -62 0 -20 9
-51 20 -68 15 -25 16 -33 6 -33 -13 0 -31 -27 -28 -42 1 -4 -10 -19 -23 -34
-14 -15 -28 -37 -31 -49 -3 -13 -16 -27 -30 -34 -20 -9 -26 -8 -36 8 -13 21
-38 17 -38 -5 0 -8 -7 -14 -16 -14 -11 0 -14 -5 -10 -17 4 -10 4 -14 -1 -10
-6 7 -20 -54 -36 -158 -3 -19 -8 -34 -28 -82 -6 -16 -5 -23 2 -23 7 0 9 -11 6
-30 -8 -39 8 -39 22 1 6 17 27 46 47 64 32 29 38 32 64 22 26 -10 32 -7 69 26
23 20 45 37 51 37 17 0 60 54 60 76 0 11 9 29 20 39 11 10 20 26 20 37 0 10 7
18 15 18 21 0 50 49 47 80 -2 18 2 30 13 34 9 3 14 10 11 15 -3 4 13 16 35 26
23 11 38 24 35 31 -3 7 2 18 10 25 8 7 13 17 11 23 -17 44 -18 56 -4 56 9 0
12 9 9 28 -2 18 2 35 13 45 10 11 14 25 10 37 -9 27 28 27 63 -1 l27 -20 14
30 c13 27 20 31 56 31 22 0 46 -5 53 -12 9 -9 17 -7 33 8 15 13 23 15 26 7 6
-18 89 14 112 43 10 13 24 24 31 24 9 0 11 11 7 35 -3 19 -2 35 2 35 5 0 11
10 15 23 l6 22 20 -25 c11 -14 20 -35 20 -46 0 -17 5 -20 25 -16 14 2 25 0 25
-7 0 -5 7 -8 15 -5 8 4 12 10 9 15 -3 5 6 4 20 -2 17 -8 28 -23 32 -45 4 -21
10 -31 19 -28 19 8 26 32 13 40 -7 4 -8 3 -4 -4 4 -7 2 -12 -4 -12 -7 0 -9 7
-6 16 3 9 6 18 6 20 0 3 8 0 18 -5 12 -6 23 -5 35 4 15 11 16 17 7 34 -9 18
-8 21 10 21 15 0 20 7 20 26 0 16 4 23 12 18 7 -4 8 -3 4 4 -4 6 -13 9 -20 6
-20 -8 -76 44 -76 70 0 24 -28 56 -48 56 -7 0 -12 10 -12 22 0 22 -41 118 -50
116 -3 0 -13 -2 -23 -5z"/>
<path d="M12820 12115 c-7 -8 -19 -15 -26 -15 -8 0 -14 -4 -14 -10 0 -6 -9 -6
-26 0 -33 13 -34 13 -34 -5 0 -8 -7 -15 -15 -15 -8 0 -15 5 -15 11 0 6 -7 3
-16 -5 -23 -24 -88 -21 -106 5 -12 19 -17 20 -55 10 -23 -6 -49 -21 -57 -33
-11 -16 -21 -19 -44 -15 -26 5 -32 2 -42 -23 -8 -20 -22 -31 -43 -36 -17 -3
-53 -29 -83 -59 -52 -52 -73 -93 -58 -116 4 -8 3 -9 -5 -5 -7 5 -21 -1 -34
-14 -12 -12 -43 -35 -69 -51 -41 -24 -48 -33 -48 -59 0 -20 -6 -33 -17 -37
-10 -3 -48 -28 -85 -55 -56 -41 -75 -50 -119 -53 -28 -2 -55 -9 -59 -15 -5 -9
-9 -9 -14 -1 -9 14 -26 14 -26 0 0 -5 5 -7 10 -4 6 3 10 -1 10 -9 0 -18 -25
-22 -35 -5 -4 6 -14 8 -22 5 -8 -4 -22 3 -32 16 -11 13 -29 21 -48 21 -23 0
-35 9 -57 39 -15 21 -26 45 -23 52 3 7 1 19 -3 27 -7 10 -11 7 -19 -14 -6 -15
-15 -27 -20 -27 -4 0 -11 -13 -14 -30 -5 -21 -11 -28 -22 -24 -8 3 -15 1 -15
-5 0 -7 -13 -5 -34 6 -32 15 -37 15 -75 0 -38 -16 -40 -16 -46 3 -4 11 -11 20
-18 20 -6 0 -21 10 -35 22 l-23 23 11 -29 c8 -23 7 -32 -5 -46 -20 -22 -21
-43 -6 -99 11 -37 10 -47 -1 -55 -7 -7 -12 -25 -10 -45 2 -20 -2 -37 -9 -42
-7 -4 -13 -24 -13 -43 0 -20 -4 -36 -8 -36 -4 0 -8 -7 -8 -15 0 -19 -20 -19
-46 -1 -17 13 -21 12 -40 -5 -19 -17 -22 -18 -27 -5 -4 9 -13 16 -20 16 -8 0
-20 7 -27 15 -7 8 -16 13 -20 10 -5 -3 -13 9 -19 27 -8 23 -8 34 0 39 8 4 7 8
-2 11 -11 4 -11 9 2 24 9 10 14 25 12 32 -3 6 0 12 6 12 6 0 11 10 11 23 -1
20 -2 20 -11 5 -5 -10 -17 -18 -25 -18 -11 0 -14 -9 -12 -32 2 -25 -2 -35 -21
-44 -29 -15 -51 -4 -74 36 -10 16 -32 31 -57 39 -22 6 -40 17 -40 24 0 8 -3 7
-9 -2 -11 -17 -41 -24 -41 -10 0 5 -14 7 -32 4 -17 -3 -44 -1 -60 6 -24 10
-28 17 -28 48 1 33 2 34 14 18 10 -13 15 -14 18 -6 3 9 14 6 36 -10 l32 -22 0
22 c0 13 -15 36 -35 55 -31 28 -36 30 -44 15 -9 -14 -10 -14 -16 4 -4 11 -13
35 -21 53 -11 26 -12 41 -3 75 11 40 9 46 -29 124 l-41 83 22 16 c21 16 21 16
-13 9 -19 -3 -45 -6 -57 -7 -12 0 -25 -8 -28 -18 -3 -10 -15 -20 -26 -23 -13
-4 -18 -10 -14 -17 5 -9 1 -10 -13 -6 -15 5 -21 2 -24 -11 -2 -13 -15 -18 -58
-20 -30 -1 -68 -3 -85 -4 -17 -1 -39 -12 -52 -25 -26 -28 -67 -31 -109 -9 -37
19 -50 19 -58 0 -3 -8 -12 -12 -21 -9 -9 4 -13 9 -11 12 3 3 1 11 -4 18 -8 9
-18 9 -39 1 -23 -9 -34 -7 -52 6 -13 9 -33 23 -44 31 -11 7 -43 17 -71 20 -46
6 -52 4 -61 -16 -7 -15 -33 -32 -71 -47 -34 -13 -63 -28 -65 -34 -2 -6 -11 -6
-25 2 -14 8 -22 8 -22 1 0 -5 -13 -10 -29 -10 -17 0 -32 -4 -36 -10 -4 -6 -15
-6 -31 0 -41 16 -64 12 -73 -12 -7 -19 -5 -25 16 -34 33 -14 54 -53 42 -76 -5
-10 -5 -26 0 -40 5 -13 8 -25 7 -28 0 -3 9 -19 22 -37 12 -17 22 -36 22 -42 0
-6 9 -11 19 -11 11 0 23 -4 26 -10 11 -19 35 -10 41 15 3 14 10 22 15 19 5 -3
9 1 9 9 0 14 40 37 64 37 8 0 11 10 8 30 -3 25 -1 30 15 30 11 0 35 7 52 16
28 14 37 14 57 4 20 -11 27 -11 41 2 10 9 35 18 55 22 30 5 41 3 57 -13 12
-12 18 -27 15 -36 -6 -14 -9 -14 -29 -1 -25 17 -45 5 -45 -26 0 -15 -5 -17
-27 -12 -25 7 -27 6 -14 -9 14 -18 42 -22 55 -9 11 11 58 11 86 1 22 -8 26
-17 28 -54 1 -38 -1 -44 -20 -47 -20 -3 -20 -4 -6 -19 9 -8 19 -34 23 -58 5
-33 13 -45 33 -53 15 -6 22 -12 15 -15 -10 -3 -10 -10 -2 -25 8 -16 7 -24 -8
-41 -10 -12 -18 -33 -17 -47 1 -14 3 -38 5 -55 1 -16 -1 -40 -5 -53 -5 -14 -3
-29 5 -38 17 -20 22 -104 7 -104 -6 0 -4 -8 5 -18 20 -22 22 -38 5 -45 -7 -3
1 -6 18 -6 52 -2 142 -87 104 -99 -15 -5 -31 -46 -39 -97 -4 -23 -12 -39 -19
-37 -7 1 -12 -5 -12 -13 0 -12 -3 -13 -19 -3 -11 7 -17 16 -14 21 9 14 -61 -3
-72 -18 -6 -7 -19 -14 -30 -16 -11 -2 -26 -19 -34 -37 -8 -17 -20 -32 -28 -32
-7 0 -27 -8 -45 -18 -56 -32 -76 -33 -116 -6 -21 15 -38 21 -40 15 -2 -6 -21
-11 -43 -11 -33 0 -41 4 -49 24 -5 14 -19 30 -31 36 -16 9 -18 14 -9 20 8 5 9
10 2 14 -6 3 -13 -3 -17 -14 -4 -12 -14 -19 -23 -18 -9 2 -18 -5 -20 -15 -3
-13 6 -22 27 -30 17 -6 31 -17 31 -24 0 -7 6 -13 14 -13 14 0 30 -39 20 -49
-3 -3 -13 0 -24 6 -14 10 -21 9 -31 -3 -7 -9 -20 -12 -32 -8 -13 4 -17 2 -13
-5 4 -6 -3 -15 -17 -20 -14 -6 -27 -15 -29 -21 -2 -8 -11 -8 -31 -1 -33 13
-73 0 -81 -27 -8 -25 -44 -32 -76 -15 -14 7 -21 13 -16 13 5 0 -3 9 -18 21
-14 11 -29 35 -34 52 -6 22 -19 37 -43 49 -19 9 -28 17 -21 18 22 0 8 24 -18
30 -27 6 -37 33 -39 96 -1 22 -5 44 -10 50 -5 5 -14 25 -20 44 -7 23 -22 40
-42 50 -27 14 -46 40 -81 112 -4 10 -8 26 -8 37 0 10 -7 24 -15 31 -8 7 -15
18 -15 25 0 20 -35 45 -63 45 -16 0 -33 10 -47 27 -11 15 -35 35 -51 45 -18
11 -29 24 -26 32 10 26 -28 47 -91 49 -33 2 -66 8 -75 15 -12 10 -16 9 -20
-10 -5 -18 -9 -20 -19 -10 -6 6 -19 12 -28 12 -8 0 -27 12 -42 28 -34 36 -55
52 -67 52 -6 0 -13 16 -17 36 -5 26 -16 41 -44 59 -21 13 -41 33 -45 45 -4 11
-15 20 -26 20 -16 0 -19 5 -14 19 3 11 0 29 -7 41 -11 17 -11 22 2 30 12 8 11
10 -7 10 -13 0 -23 -5 -23 -11 0 -6 -8 -9 -17 -7 -10 2 -18 12 -18 23 0 11 -6
19 -12 18 -7 -2 -13 4 -13 12 0 8 -7 15 -15 15 -16 0 -31 42 -21 59 4 5 -2 15
-13 20 -20 11 -44 69 -39 93 1 7 -6 26 -17 42 -14 21 -16 31 -7 34 8 2 9 9 2
22 -7 13 -6 20 6 24 9 4 14 13 10 21 -3 8 0 14 7 12 7 -1 11 6 9 17 -2 11 1
15 8 11 7 -4 10 -16 7 -26 -4 -15 0 -19 19 -19 15 0 24 6 24 15 0 8 4 15 9 15
4 0 8 13 7 29 -1 16 -3 29 -6 29 -3 -1 -12 1 -20 4 -77 26 -84 27 -91 17 -4
-7 -22 -9 -46 -6 -33 5 -44 2 -62 -17 -25 -27 -97 -36 -87 -11 3 9 0 12 -10 8
-9 -3 -12 -13 -9 -23 4 -12 -3 -25 -17 -36 -19 -15 -24 -30 -25 -76 -2 -32 1
-68 6 -82 8 -21 4 -28 -31 -59 -37 -32 -44 -35 -99 -32 -56 2 -58 1 -44 -15
16 -18 27 -130 12 -130 -4 0 -3 -9 2 -19 8 -14 7 -22 -4 -31 -8 -7 -15 -18
-15 -26 0 -15 -84 -74 -106 -74 -7 0 -14 -5 -14 -11 0 -5 -5 -7 -10 -4 -6 4
-8 16 -4 28 6 20 4 19 -19 -5 -15 -16 -29 -23 -32 -18 -4 6 -13 7 -23 1 -9 -4
-34 -11 -56 -14 -32 -5 -39 -3 -43 13 -6 24 -10 24 -28 6 -12 -12 -12 -16 0
-26 11 -9 11 -17 3 -36 -6 -13 -16 -24 -21 -24 -5 0 -7 -12 -4 -26 4 -21 -4
-31 -49 -66 -30 -22 -54 -44 -54 -49 0 -4 -9 -11 -20 -14 -14 -4 -20 -15 -20
-36 0 -24 -4 -29 -24 -29 -16 0 -27 -7 -31 -20 -4 -11 -15 -20 -26 -20 -11 0
-18 -4 -15 -9 8 -13 -52 -19 -64 -7 -7 7 -10 6 -10 -1 0 -6 7 -19 16 -27 8 -9
13 -16 9 -16 -3 0 -1 -9 5 -21 8 -15 8 -24 0 -34 -21 -25 53 -48 77 -24 7 7
17 8 29 1 23 -12 44 -5 44 14 0 8 8 14 19 14 27 0 35 40 12 65 -10 11 -24 30
-30 43 -10 19 -9 22 8 22 23 0 71 -20 71 -29 0 -4 26 -6 58 -4 78 3 86 -3 77
-65 -5 -38 -15 -59 -43 -90 -69 -76 -71 -78 -51 -110 15 -24 -26 -142 -49
-142 -11 0 -13 -8 -9 -37 6 -36 5 -38 -20 -40 -14 0 -29 -7 -34 -14 -11 -19
-24 15 -14 39 15 37 15 62 1 62 -7 0 -21 11 -30 24 -8 14 -25 27 -36 31 -12 4
-25 18 -30 31 -5 13 -18 24 -28 24 -23 0 -62 40 -62 63 0 21 -56 57 -87 57
-13 0 -23 5 -23 10 0 6 5 10 10 10 21 0 9 32 -26 66 -38 39 -56 39 -31 0 15
-22 15 -24 -4 -29 -12 -3 -23 1 -29 14 -14 25 -20 24 -52 -6 -25 -23 -30 -24
-50 -11 -39 24 -85 29 -110 12 -32 -22 -35 -21 -43 21 -6 33 -55 109 -55 85 0
-5 7 -15 15 -22 23 -19 18 -49 -10 -60 -14 -5 -25 -12 -25 -15 0 -4 4 -3 10 0
6 4 7 -1 3 -11 -6 -16 -7 -15 -20 2 -16 22 -17 38 -1 28 7 -5 8 -3 3 7 -18 30
-51 73 -72 95 -13 13 -23 28 -23 34 0 5 -11 10 -24 10 -14 0 -27 4 -31 10 -3
5 -11 7 -18 4 -16 -6 -57 32 -57 53 0 9 -9 36 -21 60 -17 35 -26 43 -48 43
-15 0 -31 4 -37 10 -21 21 -8 -66 14 -94 12 -16 22 -35 22 -43 0 -7 11 -30 24
-51 14 -20 26 -53 28 -72 3 -32 0 -35 -25 -38 -22 -3 -27 -7 -22 -23 4 -13 2
-19 -9 -19 -20 0 -21 -24 -1 -44 8 -8 15 -20 15 -26 0 -21 44 -60 67 -60 13 0
31 -13 43 -30 12 -16 17 -30 12 -30 -20 0 3 -55 36 -88 19 -19 40 -50 48 -68
10 -23 26 -39 56 -52 24 -10 49 -26 56 -35 8 -9 19 -14 26 -11 7 3 21 -4 31
-16 10 -11 26 -20 36 -20 18 0 18 -1 0 -42 -18 -42 -18 -73 -1 -63 5 3 7 12 3
21 -4 12 -1 13 20 3 18 -8 26 -21 29 -45 3 -30 1 -34 -18 -34 -36 0 -39 -84
-4 -95 10 -3 22 -20 25 -36 5 -23 11 -29 23 -24 10 4 28 9 42 11 23 5 25 10
22 45 -5 44 0 47 34 20 20 -15 29 -17 58 -7 28 8 33 13 25 28 -14 25 -12 27
20 18 16 -4 32 -6 35 -3 2 3 15 -2 28 -11 12 -9 30 -16 39 -16 9 0 22 -7 29
-15 7 -9 15 -13 18 -11 3 3 18 -6 34 -19 16 -14 38 -25 48 -25 33 0 58 -49 55
-107 -2 -28 -6 -56 -9 -61 -3 -5 6 -20 20 -33 21 -20 35 -24 77 -22 67 2 139
-22 178 -58 17 -16 32 -29 34 -29 1 0 0 11 -2 25 -5 23 -4 23 21 12 14 -7 26
-16 26 -21 0 -5 7 -3 16 5 13 10 17 10 25 -2 13 -20 11 -31 -3 -23 -9 5 -9 3
1 -9 9 -11 11 -29 7 -51 -5 -24 -2 -37 9 -46 8 -7 15 -19 15 -26 0 -8 5 -14
10 -14 9 0 14 14 11 33 0 4 11 7 25 7 14 0 37 9 51 19 13 11 44 23 69 27 38 5
44 10 44 30 0 24 0 24 26 7 28 -18 104 -25 104 -10 0 5 18 7 40 4 35 -4 40 -3
40 15 0 13 -5 18 -14 15 -18 -7 -25 20 -14 52 7 20 6 22 -5 13 -8 -7 -17 -9
-20 -5 -12 11 -8 23 8 23 8 0 15 8 15 18 1 16 2 16 15 -1 9 -13 23 -18 46 -15
31 3 32 1 45 -47 8 -27 16 -60 20 -72 4 -15 1 -23 -14 -27 -13 -5 -23 -23 -31
-62 -10 -44 -18 -57 -38 -65 -19 -7 -23 -14 -17 -27 13 -30 8 -72 -15 -102
-11 -16 -21 -35 -21 -43 0 -26 50 -116 70 -127 11 -6 20 -17 20 -26 0 -12 -4
-13 -21 -4 -19 11 -20 10 -9 -10 13 -25 7 -50 -14 -50 -8 0 -17 -15 -21 -37
-9 -51 -32 -93 -51 -93 -8 0 -19 -12 -24 -26 -7 -18 -15 -24 -26 -20 -8 3 -12
2 -9 -4 3 -5 1 -18 -5 -29 -6 -13 -7 -22 0 -26 14 -9 -26 -49 -43 -42 -8 3
-20 0 -27 -6 -10 -9 -14 -9 -17 1 -4 10 -8 9 -17 -4 -9 -11 -10 -30 -6 -56 4
-21 3 -41 -2 -44 -5 -3 3 -26 18 -51 17 -30 27 -62 28 -92 1 -37 5 -48 24 -56
12 -5 22 -13 22 -17 0 -4 12 -3 26 2 32 13 44 6 44 -26 0 -15 6 -24 15 -24 9
0 21 -11 27 -25 8 -18 14 -22 24 -15 6 6 10 19 7 29 -6 25 24 35 53 16 30 -19
54 -19 54 0 0 8 9 15 19 15 10 0 22 7 25 16 3 8 10 13 15 10 5 -3 12 1 15 10
8 20 53 11 73 -14 7 -9 13 -13 13 -9 0 5 13 0 29 -9 25 -15 36 -16 65 -7 24 8
37 8 45 0 8 -8 11 -8 11 1 0 7 7 12 15 12 8 0 15 9 15 19 0 11 5 23 11 26 6 4
7 19 4 36 -5 20 -3 29 7 30 7 0 -2 5 -19 10 -30 9 -32 12 -21 29 15 24 27 25
34 5 4 -8 10 -15 15 -15 5 0 9 7 9 15 0 17 21 20 36 5 5 -5 25 -11 43 -12 32
-3 35 0 44 32 4 19 9 43 10 52 1 12 5 14 11 8 6 -6 17 -10 26 -10 12 1 12 2
-2 11 -24 13 -23 25 2 32 11 3 18 1 15 -3 -3 -5 -2 -16 1 -25 6 -14 9 -14 23
-2 9 8 30 19 47 26 18 7 34 22 37 34 11 45 35 99 38 88 3 -9 15 -10 46 -3 23
5 68 7 100 4 103 -10 116 -9 128 14 5 11 16 19 23 16 7 -2 19 4 26 14 13 17
15 16 41 -4 15 -12 34 -22 41 -22 7 0 15 -9 19 -19 3 -11 15 -23 26 -26 11 -4
18 -13 15 -20 -7 -19 23 -41 67 -49 30 -6 37 -4 37 9 0 10 10 15 30 15 25 0
30 4 30 23 0 13 -6 29 -12 35 -15 15 4 32 38 32 12 0 27 7 34 15 7 8 17 12 22
9 6 -4 8 3 4 17 -6 22 -6 23 7 7 8 -10 17 -18 21 -18 13 0 5 28 -14 45 -13 12
-20 14 -20 5 0 -8 -8 -10 -22 -7 -14 4 -30 0 -42 -11 -14 -13 -20 -14 -23 -4
-4 9 -8 10 -18 2 -18 -15 -68 -2 -61 16 3 7 -12 27 -35 45 -52 41 -61 59 -45
90 20 39 -7 81 -69 104 -41 17 -51 25 -53 48 -4 31 -34 51 -65 43 -12 -3 -33
4 -51 17 -17 12 -40 20 -53 19 -12 -2 -31 6 -42 17 -22 22 -28 51 -11 51 14 0
12 20 -5 54 -8 15 -15 35 -15 42 0 8 -7 14 -15 14 -9 0 -18 6 -20 13 -3 6 -21
13 -41 14 -44 2 -64 18 -64 50 0 20 4 23 23 19 12 -3 16 -3 9 0 -6 3 -15 23
-18 45 -6 35 -10 39 -35 39 -16 0 -29 4 -29 10 0 5 -11 19 -24 32 -14 13 -26
34 -28 48 -2 15 -16 33 -35 45 -18 11 -32 28 -33 37 0 9 -12 30 -26 47 l-26
31 32 -6 c23 -5 34 -2 44 12 13 16 17 17 42 4 16 -8 34 -14 40 -15 6 0 18 -6
27 -13 12 -11 20 -6 51 29 33 39 38 41 76 36 30 -4 40 -2 40 9 0 20 12 18 52
-9 31 -21 36 -22 56 -9 17 11 19 18 12 32 -8 15 -6 20 11 25 11 4 25 19 30 33
l11 27 13 -25 c8 -14 14 -35 15 -48 0 -12 7 -25 15 -28 8 -4 15 -10 15 -15 0
-5 -7 -9 -15 -9 -19 0 -20 -26 0 -34 8 -3 13 -11 10 -18 -6 -18 40 -68 64 -68
12 0 23 -10 30 -30 5 -16 15 -30 20 -30 6 0 11 -12 11 -26 0 -15 6 -32 14 -38
7 -6 21 -30 30 -54 16 -43 16 -43 -5 -37 -19 6 -21 4 -16 -14 4 -15 0 -24 -11
-28 -9 -3 -25 -13 -35 -21 -17 -15 -16 -17 6 -41 24 -27 50 -98 41 -113 -3 -4
-14 -8 -25 -8 -12 0 -19 -7 -19 -20 0 -17 3 -19 20 -10 10 6 23 18 28 27 8 14
17 9 59 -30 38 -36 56 -46 79 -44 24 2 30 -2 32 -22 5 -29 47 -66 80 -67 13
-1 28 -6 35 -13 6 -6 21 -11 34 -11 13 0 42 -14 65 -31 29 -21 49 -28 65 -24
18 4 28 -3 49 -35 15 -22 37 -43 50 -46 13 -3 21 -11 18 -16 -3 -5 3 -16 15
-24 21 -15 41 -70 41 -115 0 -32 29 -54 95 -71 32 -9 45 -17 45 -30 0 -10 -7
-21 -15 -24 -13 -5 -12 -10 5 -34 11 -15 20 -32 20 -37 0 -16 37 -45 52 -41 7
2 20 -3 28 -10 8 -7 28 -22 43 -33 16 -12 24 -25 19 -28 -6 -3 -12 -17 -13
-31 -3 -18 -10 -25 -25 -24 -20 0 -20 -1 -7 -45 8 -28 10 -48 4 -54 -6 -6 -6
-19 0 -34 11 -29 -10 -77 -41 -93 -13 -7 -20 -21 -20 -41 0 -17 -6 -32 -15
-35 -17 -7 -21 -34 -5 -34 14 0 12 -26 -2 -42 -7 -7 -13 -32 -12 -55 0 -24 -1
-43 -3 -43 -2 0 -18 15 -34 33 -28 30 -31 31 -44 14 -11 -15 -17 -16 -34 -8
-11 6 -31 11 -44 11 -17 0 -26 7 -30 21 -3 12 -10 19 -15 16 -4 -4 -20 0 -35
8 -26 14 -67 10 -67 -6 0 -5 -14 -9 -31 -9 -17 0 -28 -4 -24 -10 3 -5 1 -10
-6 -10 -7 0 -10 -3 -6 -6 7 -8 -24 -44 -34 -39 -4 3 -7 -12 -7 -33 0 -71 -9
-102 -35 -126 -25 -24 -26 -24 -6 -42 24 -21 28 -89 4 -80 -22 8 -19 -1 17
-45 17 -21 39 -39 48 -39 24 0 40 -20 40 -50 0 -52 21 -65 98 -63 50 2 74 -2
82 -12 6 -8 17 -12 25 -9 19 7 28 -12 16 -34 -7 -13 -7 -22 1 -30 16 -16 55
-15 65 1 4 6 18 21 31 31 20 18 23 18 40 3 16 -15 20 -15 40 -1 12 8 22 22 22
31 0 10 6 13 16 9 9 -4 24 0 33 8 9 8 27 14 41 14 98 -2 150 11 150 37 0 8 8
18 17 24 10 5 18 15 19 23 0 7 2 22 2 34 2 18 10 22 53 27 28 4 57 11 64 17
10 9 25 6 59 -9 l45 -20 11 37 c6 24 6 38 0 40 -23 8 -8 32 25 38 28 5 35 11
35 30 0 13 5 24 11 24 7 0 9 10 5 26 -9 35 32 86 59 72 12 -7 20 -7 24 1 5 7
15 9 26 5 13 -5 16 -4 11 4 -10 17 9 15 24 -3 19 -23 31 -18 24 10 -5 21 -3
25 14 25 24 0 37 16 22 25 -5 3 -10 15 -10 27 0 15 4 18 18 13 9 -5 41 -11 71
-15 32 -4 58 -13 66 -23 8 -11 15 -13 22 -6 8 8 13 5 18 -10 3 -12 19 -28 34
-36 16 -8 31 -21 34 -28 3 -8 25 -17 48 -20 24 -3 45 -10 47 -16 2 -5 10 -7
18 -4 20 8 74 -17 74 -34 0 -8 12 -26 27 -41 19 -19 26 -35 25 -59 -2 -24 3
-36 22 -48 16 -11 26 -28 29 -53 7 -59 41 -137 61 -140 15 -3 16 -1 7 16 -15
28 -14 32 7 25 15 -6 44 -26 89 -63 10 -8 7 -19 -12 -48 -21 -33 -23 -42 -15
-74 12 -43 21 -51 81 -71 48 -16 111 -68 122 -99 4 -11 12 -15 22 -12 11 5 18
0 22 -15 3 -11 12 -21 19 -21 8 0 22 -4 32 -9 9 -5 26 -12 36 -16 15 -4 17 -8
8 -17 -7 -7 -12 -22 -12 -35 0 -44 41 -27 90 36 40 52 48 58 68 50 33 -13 32
-13 32 31 0 22 5 40 10 40 6 0 10 6 10 13 0 8 11 19 25 25 17 8 25 20 25 37 0
17 5 25 18 25 11 0 18 8 20 23 2 29 -18 67 -36 67 -11 0 -12 9 -7 40 4 26 3
40 -4 40 -23 0 -32 39 -16 70 9 17 19 60 22 95 3 35 9 62 13 60 5 -3 6 4 3 14
-8 32 30 45 72 25 28 -13 34 -20 29 -39 -7 -28 14 -38 54 -23 41 16 62 5 62
-32 0 -25 4 -30 25 -30 19 0 26 -6 31 -27 3 -16 12 -44 21 -64 8 -21 12 -46 8
-58 -5 -17 -2 -21 14 -21 14 0 19 5 15 15 -4 8 1 17 10 21 23 9 20 38 -6 49
-32 14 -35 43 -6 47 15 2 23 10 24 23 1 11 4 30 8 42 5 15 2 24 -11 32 -16 9
-15 11 10 20 15 6 27 18 27 26 0 9 5 13 10 10 6 -3 10 0 10 7 1 7 7 1 15 -14
8 -14 28 -33 44 -41 26 -13 31 -13 44 1 14 13 21 12 63 -16 26 -17 51 -29 55
-26 11 6 89 -36 89 -49 0 -4 9 -5 20 -2 13 4 31 -1 49 -14 18 -13 45 -21 69
-21 37 0 41 3 47 30 8 36 11 36 55 7 70 -47 106 -34 74 27 -7 14 -10 26 -6 26
4 0 -1 5 -10 11 -22 12 -24 41 -3 33 14 -6 19 5 16 33 -1 8 5 10 14 7 21 -9
19 9 -10 65 -13 27 -22 51 -19 54 3 3 -6 24 -21 47 -15 23 -22 39 -16 36 17
-11 12 17 -7 39 -28 33 -99 85 -116 85 -8 0 -22 14 -31 30 l-16 30 31 0 c36 0
49 22 27 45 -19 19 -28 19 -21 1 5 -12 -8 -14 -70 -12 -65 2 -75 0 -79 -16 -6
-20 -32 -23 -71 -8 -20 7 -27 6 -34 -6 -8 -14 -24 -18 -121 -23 -7 -1 -29 -17
-48 -38 l-35 -36 -41 21 -41 21 -11 -22 c-6 -12 -20 -22 -30 -23 -11 0 -30 -6
-43 -13 -12 -6 -26 -10 -30 -7 -23 14 -66 14 -88 -1 -16 -10 -35 -13 -54 -9
-22 4 -30 2 -30 -8 0 -18 -75 -37 -89 -23 -8 8 -11 2 -11 -20 0 -17 6 -34 13
-36 10 -4 10 -6 0 -6 -7 -1 -13 -9 -13 -18 -1 -27 -23 -51 -53 -58 -15 -4 -27
-13 -27 -21 0 -8 -4 -14 -9 -14 -6 0 -4 15 4 34 13 30 12 35 -3 49 -9 9 -29
20 -45 26 -27 10 -37 31 -16 31 8 0 10 12 6 34 -6 40 0 51 21 34 11 -10 17 -9
27 6 8 10 18 15 23 12 5 -3 6 15 1 42 -4 26 -3 48 2 50 21 8 5 37 -50 90 -51
50 -60 64 -66 106 -6 39 -5 47 5 41 10 -6 11 -2 6 18 l-6 25 50 -13 c44 -12
50 -11 50 2 0 9 6 13 15 10 10 -4 16 5 23 36 5 23 5 47 1 52 -11 15 -5 111 8
127 8 9 6 27 -9 66 -22 59 -52 81 -85 63 -14 -7 -23 -7 -31 1 -7 7 -12 8 -12
4 0 -5 -7 -3 -15 4 -8 7 -22 10 -30 6 -9 -3 -15 0 -15 9 0 8 -3 14 -7 13 -5 0
-16 2 -25 5 -10 4 -25 9 -33 12 -8 2 -15 11 -15 20 0 8 -8 23 -17 33 -10 10
-30 32 -45 48 -14 16 -43 40 -63 54 -67 46 -103 80 -109 105 -4 14 -14 34 -24
45 -62 69 -73 89 -59 111 9 14 0 28 -53 83 -35 35 -67 63 -70 61 -8 -5 -30 64
-30 94 0 14 -6 21 -19 21 -22 0 -36 15 -46 50 -8 25 -8 25 14 6 11 -11 21 -15
21 -10 0 17 71 44 89 34 9 -5 31 -14 49 -20 21 -8 32 -19 32 -33 0 -11 10 -28
21 -38 21 -18 22 -18 38 0 9 10 22 16 29 14 7 -3 10 1 6 11 -3 9 -1 16 5 16 6
0 11 -7 11 -15 0 -8 5 -15 11 -15 5 0 7 5 4 10 -3 6 1 10 9 10 8 0 19 8 25 17
16 29 25 6 24 -58 -1 -44 2 -59 12 -59 7 0 16 -8 18 -17 4 -16 5 -16 6 1 1 15
7 18 34 13 20 -3 40 0 52 9 16 12 21 12 39 -4 22 -19 135 -72 155 -72 6 0 11
5 11 11 0 7 12 10 30 7 22 -3 31 0 36 14 6 19 42 43 51 34 3 -3 23 7 45 20 22
14 49 24 59 21 11 -3 22 -1 25 5 3 5 12 7 19 4 16 -6 39 19 31 33 -3 5 3 7 14
4 16 -4 19 -2 14 13 -5 14 0 11 19 -8 20 -22 35 -28 67 -28 25 0 39 4 35 10
-12 20 48 32 110 22 49 -8 61 -7 68 5 8 12 12 11 31 -6 l22 -21 74 29 c46 18
78 37 83 50 9 19 11 19 35 3 20 -13 26 -14 30 -4 3 10 7 8 16 -4 12 -16 14
-16 33 3 14 14 26 17 41 12 18 -7 20 -12 13 -33 -15 -38 10 -52 29 -15 9 16 8
25 -6 40 -10 11 -12 19 -6 19 7 0 12 16 12 38 0 21 11 56 25 81 14 23 25 51
25 62 0 10 6 22 13 26 19 12 47 80 47 115 0 30 1 31 20 13 13 -11 25 -15 37
-10 10 5 22 7 26 6 16 -3 67 30 67 44 0 8 7 15 15 15 9 0 20 11 26 24 6 13 20
26 29 29 10 3 20 15 22 28 3 24 24 32 44 17 6 -4 20 1 32 13 28 25 62 11 62
-26 0 -14 4 -25 8 -25 14 0 60 -77 67 -112 11 -55 16 -68 26 -68 6 0 7 9 4 21
-4 12 -1 32 6 46 12 22 11 26 -5 35 -13 8 -15 12 -6 18 8 5 3 17 -19 39 -17
17 -32 39 -32 49 -2 23 -5 53 -7 73 -1 9 -12 21 -25 26 -17 8 -27 26 -37 68
-13 56 -13 58 8 75 30 25 28 51 -8 82 -28 24 -29 29 -18 53 9 21 9 31 0 46 -7
11 -10 24 -7 29 4 6 2 10 -4 10 -5 0 -11 12 -13 27 -2 17 -12 32 -26 39 -33
16 -36 22 -22 39 7 8 8 15 2 15 -5 0 -13 16 -17 36 -7 38 7 85 33 116 12 15
13 20 1 34 -7 9 -14 21 -16 28 -1 6 -5 21 -9 34 -5 18 -2 22 14 22 27 0 40 19
37 57 -2 20 1 30 9 27 7 -3 11 13 12 46 1 51 -3 59 -23 39 -15 -15 -30 14 -39
79 -5 36 -12 53 -24 57 -20 6 -31 47 -19 66 4 8 -4 27 -22 48 -16 20 -29 43
-29 52 0 9 -11 21 -25 27 -23 10 -30 23 -26 45 2 15 -28 65 -44 70 -8 4 -15
13 -15 22 0 9 -7 27 -16 41 -14 21 -15 31 -4 72 7 26 19 54 25 62 22 27 23 66
3 79 -18 11 -26 71 -9 71 5 0 11 7 15 15 3 9 0 15 -9 15 -8 0 -15 -6 -15 -13
0 -19 -63 -64 -68 -48 -2 6 -15 25 -29 41 -28 33 -72 40 -93 15z m-2799 -463
c0 -4 2 -15 4 -24 2 -11 -2 -15 -11 -11 -8 3 -14 -1 -15 -8 -1 -21 -18 23 -18
49 -1 20 2 21 19 12 11 -6 20 -14 21 -18z m2279 -17 c0 -8 5 -15 11 -15 5 0 8
-4 4 -10 -3 -5 -14 -1 -25 10 -24 24 -25 30 -5 30 8 0 15 -7 15 -15z m-2775
-25 c18 -19 17 -20 -3 -20 -15 0 -22 6 -22 20 0 11 2 20 3 20 2 0 12 -9 22
-20z m425 -10 c0 -5 -4 -10 -10 -10 -5 0 -10 5 -10 10 0 6 5 10 10 10 6 0 10
-4 10 -10z m2440 -20 c0 -5 -5 -10 -11 -10 -5 0 -7 5 -4 10 3 6 8 10 11 10 2
0 4 -4 4 -10z m-2445 -10 c3 -5 2 -10 -4 -10 -5 0 -13 5 -16 10 -3 6 -2 10 4
10 5 0 13 -4 16 -10z m3234 -205 c-10 -10 -22 -13 -34 -9 -18 7 -18 8 1 15 10
4 26 8 34 8 12 1 12 -1 -1 -14z m-872 -137 c-3 -8 -6 -5 -6 6 -1 11 2 17 5 13
3 -3 4 -12 1 -19z m-1179 -88 c16 -53 16 -55 -14 -69 -21 -9 -30 -9 -41 1 -13
11 -12 14 7 30 12 10 19 22 15 28 -7 12 3 50 13 50 4 0 13 -18 20 -40z m1790
1 c3 -8 -1 -12 -9 -9 -7 2 -15 10 -17 17 -3 8 1 12 9 9 7 -2 15 -10 17 -17z
m-5728 -41 c0 -5 -4 -10 -10 -10 -5 0 -10 5 -10 10 0 6 5 10 10 10 6 0 10 -4
10 -10z m-828 -227 c10 -9 18 -22 18 -28 0 -7 10 -15 21 -18 16 -4 20 -11 16
-26 -4 -17 0 -21 19 -21 14 0 28 -9 35 -22 7 -13 11 -23 9 -23 -2 0 0 -11 5
-24 10 -32 -10 -50 -24 -22 -7 12 -19 21 -27 21 -9 0 -29 9 -45 21 -23 16 -28
26 -24 47 4 18 3 21 -3 9 -6 -15 -10 -16 -26 -4 -23 17 -15 52 9 43 13 -4 13
-2 5 14 -5 10 -15 22 -20 25 -10 6 -5 25 7 25 4 0 15 -7 25 -17z m298 -214 c0
-6 -4 -7 -10 -4 -5 3 -10 11 -10 16 0 6 5 7 10 4 6 -3 10 -11 10 -16z m22 -51
c35 -16 36 -28 2 -28 -14 0 -23 -4 -19 -10 3 -5 2 -10 -4 -10 -13 0 -24 18
-27 47 -3 26 -2 26 48 1z m178 -148 c8 -5 11 -12 7 -16 -4 -4 -15 0 -24 9 -18
18 -8 23 17 7z m5600 -4 c0 -3 -4 -8 -10 -11 -5 -3 -10 -1 -10 4 0 6 5 11 10
11 6 0 10 -2 10 -4z m-210 -34 c0 -15 -2 -15 -10 -2 -13 20 -13 33 0 25 6 -3
10 -14 10 -23z m-5220 -79 c0 -24 -25 -9 -28 17 -3 21 -2 22 12 11 9 -7 16
-20 16 -28z m-124 -49 c-4 -45 -19 -60 -36 -39 -10 12 -10 15 0 15 7 0 10 6 7
13 -7 18 11 59 23 52 6 -4 9 -22 6 -41z m5074 -223 c0 -6 -4 -13 -10 -16 -5
-3 -10 1 -10 9 0 9 5 16 10 16 6 0 10 -4 10 -9z m-25 -141 c3 -5 2 -10 -4 -10
-5 0 -13 5 -16 10 -3 6 -2 10 4 10 5 0 13 -4 16 -10z m591 -1691 c0 -13 4 -34
8 -46 9 -29 -24 -62 -66 -65 -48 -4 -49 27 -3 72 19 18 35 42 35 53 0 28 25
15 26 -14z m-1886 -30 c0 -5 -7 -6 -15 -3 -8 4 -15 13 -15 21 0 13 3 13 15 3
8 -7 15 -16 15 -21z m1420 -129 c0 -5 -4 -10 -10 -10 -5 0 -10 5 -10 10 0 6 5
10 10 10 6 0 10 -4 10 -10z m-140 -15 c0 -8 -4 -15 -9 -15 -13 0 -22 16 -14
24 11 11 23 6 23 -9z"/>
<path d="M7855 11990 c3 -5 8 -10 11 -10 2 0 4 5 4 10 0 6 -5 10 -11 10 -5 0
-7 -4 -4 -10z"/>
<path d="M11424 11718 c-3 -4 3 -19 13 -34 9 -15 19 -22 21 -16 2 6 10 8 18 5
12 -4 15 1 12 23 -2 24 -8 29 -31 29 -16 1 -30 -3 -33 -7z"/>
<path d="M11435 11640 c3 -5 14 -10 23 -10 15 0 15 2 2 10 -20 13 -33 13 -25
0z"/>
<path d="M9618 11518 c5 -5 16 -8 23 -6 8 3 3 7 -10 11 -17 4 -21 3 -13 -5z"/>
<path d="M9752 11495 c-17 -12 -26 -13 -42 -5 -34 18 -44 0 -16 -29 13 -14 29
-38 35 -53 6 -16 16 -28 22 -28 8 0 7 5 -2 17 -13 15 -11 16 13 11 17 -3 29 0
32 8 3 9 -2 14 -12 14 -10 0 -27 7 -38 16 -18 15 -17 15 14 10 27 -5 32 -3 32
15 0 13 4 18 13 13 8 -5 8 -2 -2 9 -17 21 -21 21 -49 2z"/>
<path d="M7230 11465 c0 -8 9 -15 20 -15 11 0 20 2 20 5 0 2 -9 9 -20 15 -16
9 -20 8 -20 -5z"/>
<path d="M7295 11421 c3 -6 12 -11 20 -11 7 0 15 -5 17 -11 2 -5 11 -7 21 -3
29 11 14 29 -27 32 -25 2 -36 0 -31 -7z"/>
<path d="M6493 11413 c4 -6 -3 -13 -14 -16 -20 -5 -20 -7 -5 -22 9 -9 16 -23
16 -31 0 -8 10 -19 23 -23 18 -7 19 -10 6 -15 -12 -5 -15 -18 -11 -61 4 -49 2
-55 -14 -55 -15 0 -19 -8 -21 -39 -2 -34 2 -44 35 -72 20 -18 37 -35 37 -38 0
-15 47 -83 52 -77 4 4 13 -4 20 -16 7 -13 12 -17 13 -10 0 6 5 12 12 12 6 0
19 7 29 16 14 13 16 21 8 41 -8 23 -5 30 32 64 33 30 45 36 60 29 26 -14 49
-12 49 4 0 20 11 25 63 30 24 3 61 12 83 22 21 9 42 16 47 16 6 -2 11 36 10
76 -1 7 11 12 28 12 22 0 29 5 29 20 0 17 -26 40 -47 40 -4 0 -14 -14 -22 -32
-10 -22 -16 -27 -20 -17 -6 15 -41 22 -41 9 0 -20 -41 -4 -46 17 -4 13 -13 23
-22 23 -9 0 -25 9 -37 20 -20 19 -26 19 -74 8 -44 -10 -59 -9 -108 6 -40 13
-58 15 -61 7 -5 -16 -16 -14 -43 9 -41 34 -44 36 -58 44 -9 6 -12 5 -8 -1z
m42 -63 c3 -5 2 -10 -4 -10 -5 0 -13 5 -16 10 -3 6 -2 10 4 10 5 0 13 -4 16
-10z m15 -105 c0 -8 5 -15 12 -15 6 0 8 -3 5 -6 -8 -8 -37 14 -37 27 0 5 5 9
10 9 6 0 10 -7 10 -15z"/>
<path d="M7133 10888 c7 -37 46 -49 68 -20 7 9 10 14 5 10 -5 -4 -18 -1 -30 7
-25 18 -47 19 -43 3z"/>
<path d="M6793 10857 c12 -13 28 -21 36 -18 10 3 8 7 -6 12 -12 4 -24 12 -28
18 -3 6 -10 11 -15 11 -5 0 1 -10 13 -23z"/>
<path d="M9509 10706 c-29 -20 -4 -56 40 -56 18 0 22 4 17 17 -4 9 -2 20 5 23
6 5 -1 11 -18 17 -21 8 -34 7 -44 -1z"/>
<path d="M9500 10625 c7 -9 15 -13 17 -11 7 7 -7 26 -19 26 -6 0 -6 -6 2 -15z"/>
<path d="M13399 10032 c-5 -13 -9 -30 -9 -38 0 -8 -6 -14 -12 -14 -7 0 -5 -5
5 -11 21 -12 38 -4 30 16 -6 18 -3 18 30 6 18 -7 30 -6 45 5 11 8 28 11 39 7
17 -6 17 -6 1 14 -10 11 -18 25 -18 31 0 6 -19 10 -51 9 -43 -2 -53 -6 -60
-25z"/>
<path d="M11245 9720 c3 -5 11 -10 16 -10 6 0 7 5 4 10 -3 6 -11 10 -16 10 -6
0 -7 -4 -4 -10z"/>
<path d="M12800 9700 c0 -5 -6 -10 -12 -10 -7 0 -24 -9 -38 -19 l-24 -19 24
-21 c19 -15 28 -17 36 -8 12 13 29 87 19 87 -3 0 -5 -4 -5 -10z"/>
<path d="M11401 9684 c0 -11 3 -14 6 -6 3 7 2 16 -1 19 -3 4 -6 -2 -5 -13z"/>
<path d="M11370 9670 c0 -5 5 -10 11 -10 5 0 7 5 4 10 -3 6 -8 10 -11 10 -2 0
-4 -4 -4 -10z"/>
<path d="M7362 9634 c-13 -6 -42 -10 -65 -9 l-42 3 1 -46 c1 -26 -7 -74 -16
-107 -10 -34 -16 -73 -13 -89 4 -18 -1 -36 -15 -55 -14 -20 -17 -32 -10 -44
11 -20 -16 -55 -27 -37 -7 12 -71 -49 -67 -64 5 -17 -29 -56 -49 -56 -16 0
-19 -4 -14 -17 16 -39 17 -53 4 -53 -7 0 -9 -3 -5 -7 4 -4 15 -8 24 -8 11 0
16 -7 14 -20 -1 -12 13 -38 34 -63 37 -44 54 -50 35 -14 -6 11 -8 28 -4 37 5
14 14 16 50 11 32 -4 43 -2 43 8 0 7 -3 16 -7 20 -5 4 -8 26 -9 47 0 36 2 41
28 46 19 4 27 10 24 19 -3 9 2 14 13 14 24 0 59 76 43 92 -21 21 -13 29 11 13
29 -18 37 -12 37 30 0 18 7 38 16 46 8 7 13 21 11 31 -4 14 -1 17 12 13 11 -3
27 6 45 24 27 28 28 31 15 60 -16 36 -17 36 -45 16 -25 -17 -34 -11 -34 21 0
13 -5 26 -10 29 -6 4 -10 12 -8 18 1 7 -2 23 -6 36 -5 15 -4 26 4 31 7 4 10
14 8 22 -2 11 -7 12 -26 2z"/>
<path d="M12753 9579 c3 -10 1 -19 -5 -19 -5 0 -7 -3 -5 -7 5 -12 -42 -53 -48
-42 -9 14 -25 11 -25 -5 0 -10 -16 -12 -64 -10 l-65 3 -6 -31 c-5 -21 -3 -34
6 -40 11 -7 11 -11 2 -15 -7 -2 -13 -13 -13 -24 0 -11 -7 -22 -15 -25 -8 -4
-12 -10 -9 -15 3 -5 1 -9 -5 -9 -14 0 -2 -79 16 -107 15 -22 15 -26 0 -40 -15
-15 -17 -15 -23 0 -3 9 -10 15 -14 12 -5 -3 -20 0 -35 7 -37 17 -49 0 -31 -43
8 -19 13 -61 12 -96 -1 -35 2 -63 6 -63 13 0 9 -35 -7 -56 -8 -10 -15 -27 -15
-36 0 -10 -6 -18 -14 -18 -11 0 -12 -8 -6 -35 6 -25 4 -38 -6 -46 -8 -6 -14
-17 -14 -24 0 -8 -11 -22 -24 -32 l-24 -19 29 -19 c28 -20 59 -90 59 -135 0
-25 38 -70 59 -70 8 0 25 -10 38 -21 18 -18 25 -19 37 -10 11 9 15 9 18 0 8
-25 25 2 22 36 -1 19 2 35 7 35 5 0 9 7 9 16 0 8 4 13 9 10 10 -7 23 19 14 28
-4 3 -19 6 -34 6 -20 0 -28 6 -33 24 -3 14 -3 31 0 39 3 8 -8 30 -25 49 l-30
35 34 -11 c18 -6 33 -13 33 -16 -2 -29 5 -37 32 -37 25 0 30 4 28 21 -3 19 1
21 47 18 43 -3 54 0 73 21 20 21 21 26 8 37 -12 9 -13 17 -6 31 8 14 7 17 -3
13 -9 -3 -18 9 -27 37 -15 44 -41 78 -75 97 -11 6 -14 12 -7 12 19 0 49 34 44
51 -2 8 -15 24 -29 35 -26 22 -39 65 -50 161 -5 48 -8 53 -48 74 -36 19 -42
26 -34 41 11 20 31 14 102 -30 30 -18 41 -21 53 -11 11 9 14 8 14 -6 0 -9 10
-34 21 -55 18 -32 25 -37 39 -28 13 8 27 3 67 -25 53 -37 86 -40 97 -9 3 10
12 34 20 55 12 33 12 42 0 65 -8 15 -14 33 -14 39 0 16 -29 51 -53 64 -12 7
-17 6 -15 -2 2 -6 -3 -14 -9 -16 -8 -3 -13 4 -13 17 0 20 -4 22 -34 16 -60
-11 -73 45 -21 94 19 18 22 27 14 42 -5 10 -8 22 -5 26 2 4 -5 9 -16 9 -15 2
-19 -3 -15 -18z m25 -270 c-2 -6 -8 -10 -13 -10 -5 0 -11 4 -13 10 -2 6 4 11
13 11 9 0 15 -5 13 -11z"/>
<path d="M7497 9455 c3 -8 9 -12 14 -9 12 7 11 11 -5 17 -10 4 -13 1 -9 -8z"/>
<path d="M7170 8854 c0 -54 20 -67 55 -34 15 14 23 32 22 49 -2 24 -6 27 -39
28 l-38 2 0 -45z"/>
<path d="M7200 8750 c0 -5 5 -10 11 -10 5 0 7 5 4 10 -3 6 -8 10 -11 10 -2 0
-4 -4 -4 -10z"/>
<path d="M7176 8705 c-10 -8 -23 -12 -27 -9 -5 3 -9 1 -9 -5 0 -5 5 -11 11
-13 9 -3 9 -9 0 -25 -6 -12 -11 -35 -11 -52 0 -24 -4 -31 -20 -31 -10 0 -23 6
-27 13 -4 8 -22 17 -39 20 -28 5 -31 4 -27 -13 3 -11 9 -17 15 -14 11 7 40
-15 33 -27 -8 -11 28 -29 59 -29 16 0 27 7 31 20 4 11 17 28 31 36 13 9 24 23
24 30 0 20 13 17 33 -7 19 -21 38 -22 45 -1 2 7 -4 12 -13 12 -10 0 -15 5 -12
14 3 8 -5 19 -20 27 -13 7 -31 26 -39 41 -17 32 -14 31 -38 13z m-76 -146 c0
-6 -4 -7 -10 -4 -5 3 -10 11 -10 16 0 6 5 7 10 4 6 -3 10 -11 10 -16z"/>
<path d="M7310 8614 c0 -7 30 -64 33 -64 2 0 4 13 5 29 2 21 -3 30 -18 34 -11
3 -20 3 -20 1z"/>
<path d="M7856 8569 c6 -19 -5 -28 -54 -45 -28 -10 -32 -10 -30 4 2 13 -10 18
-51 24 -63 10 -71 6 -42 -19 27 -23 28 -47 1 -38 -18 6 -19 4 -9 -22 8 -23 7
-30 -7 -40 -16 -12 -15 -13 9 -13 25 0 27 -3 26 -42 0 -24 -4 -52 -8 -63 -5
-11 -4 -25 1 -33 8 -8 3 -22 -13 -47 -21 -31 -43 -41 -73 -36 -4 1 -19 -5 -33
-14 -13 -9 -32 -14 -41 -11 -13 4 -23 -8 -40 -45 -13 -27 -28 -49 -34 -49 -6
0 -18 -7 -27 -15 -9 -8 -27 -24 -41 -35 -24 -20 -25 -20 -6 -35 19 -15 19 -15
-3 -15 -12 0 -20 -4 -16 -9 3 -5 -3 -11 -12 -14 -17 -4 -17 -4 0 -10 9 -4 25
-10 35 -14 24 -9 46 -4 55 13 7 13 14 12 45 -6 20 -12 31 -16 25 -9 -18 18
-16 39 2 39 9 0 35 9 57 20 23 11 48 20 56 20 9 0 11 7 7 22 -6 17 -4 20 10
15 9 -4 19 -7 21 -7 2 0 4 -8 4 -18 0 -20 24 -45 53 -55 9 -4 22 -17 27 -29 5
-13 9 -17 9 -9 1 11 7 9 24 -7 13 -12 30 -22 38 -22 9 0 26 -12 40 -26 25 -27
66 -49 86 -45 6 1 14 -3 17 -8 4 -6 17 -6 34 -1 15 5 63 11 107 13 89 5 115
12 115 34 0 10 6 12 23 7 12 -4 32 -8 44 -10 11 -1 30 -5 42 -9 16 -5 21 -2
21 10 0 14 5 16 23 10 12 -4 39 -8 59 -9 20 0 43 -7 49 -13 17 -17 34 -16 53
3 20 20 20 34 0 34 -8 0 -12 5 -9 10 9 15 -17 11 -39 -5 -26 -20 -57 -20 -50
0 4 10 2 13 -7 10 -18 -7 -81 51 -103 92 -12 25 -14 38 -5 60 17 46 3 86 -38
106 -26 13 -38 15 -43 7 -5 -9 -9 -9 -14 -1 -4 6 -23 11 -42 11 -27 0 -34 4
-32 17 2 11 -11 24 -37 39 -26 13 -39 27 -37 37 4 24 -46 67 -77 67 -56 0 -67
9 -79 61 -6 26 -9 55 -6 62 2 7 0 24 -5 38 -11 28 -64 92 -55 68z"/>
<path d="M7591 8424 c0 -11 3 -14 6 -6 3 7 2 16 -1 19 -3 4 -6 -2 -5 -13z"/>
<path d="M12536 8385 c-3 -9 0 -15 9 -15 16 0 20 16 6 24 -5 3 -11 -1 -15 -9z"/>
<path d="M7594 8287 c-4 -20 -1 -34 10 -45 15 -15 16 -15 16 5 0 12 5 25 10
28 6 3 10 15 10 25 0 32 -38 21 -46 -13z"/>
<path d="M8281 7851 c-10 -6 -10 -10 -1 -16 13 -8 24 -1 19 14 -3 6 -10 7 -18
2z"/>
<path d="M12470 7820 c0 -10 -8 -23 -17 -29 -14 -8 -15 -12 -4 -25 17 -20 31
-21 31 -1 0 8 4 15 9 15 14 0 10 48 -5 54 -9 3 -14 -2 -14 -14z"/>
<path d="M12518 7738 c9 -9 15 -9 24 0 9 9 7 12 -12 12 -19 0 -21 -3 -12 -12z"/>
<path d="M11821 7298 c-5 -14 -5 -28 1 -35 13 -16 -8 -26 -31 -14 -14 8 -22 7
-31 -4 -7 -8 -17 -12 -23 -8 -7 4 -8 0 -4 -11 4 -10 7 -24 7 -32 0 -12 4 -12
20 -4 11 6 25 8 30 5 17 -10 11 -32 -10 -38 -13 -3 -18 -10 -14 -21 8 -21 -42
-42 -61 -26 -10 9 -16 3 -26 -24 -7 -20 -19 -36 -26 -36 -7 0 -13 -9 -13 -21
0 -11 -5 -29 -10 -40 -8 -13 -7 -25 0 -39 9 -16 8 -22 -5 -26 -10 -4 -13 -13
-9 -26 3 -10 1 -25 -5 -32 -8 -10 -7 -21 4 -42 20 -39 20 -98 0 -90 -10 3 -15
-1 -15 -11 0 -14 -2 -14 -20 2 -19 17 -20 17 -20 0 0 -10 -8 -24 -17 -31 -17
-12 -17 -13 3 -14 27 0 68 -44 61 -64 -4 -11 0 -16 12 -16 10 0 24 -7 32 -16
12 -14 14 -14 25 0 10 14 14 11 30 -28 10 -24 22 -42 26 -40 3 2 9 0 13 -6 4
-6 -4 -10 -19 -10 -14 0 -27 -4 -31 -10 -7 -12 26 -51 37 -44 5 3 21 -2 36
-12 28 -18 86 -28 76 -13 -3 5 0 9 6 9 7 0 21 11 32 25 24 31 40 31 72 1 26
-23 38 -85 15 -70 -7 4 -7 -1 1 -16 8 -15 9 -25 2 -29 -7 -4 -8 -12 -2 -21 8
-13 10 -12 10 3 0 10 5 15 10 12 6 -3 10 0 10 8 0 22 57 17 67 -6 6 -13 21
-20 47 -23 21 -2 44 -8 51 -14 8 -6 19 -10 27 -9 19 4 60 -11 80 -28 12 -11
17 -29 15 -65 -2 -39 2 -53 17 -64 26 -18 36 -18 36 2 0 11 6 15 20 11 18 -5
23 2 19 30 0 3 7 10 16 15 19 11 12 43 -18 75 -15 17 -17 26 -9 36 6 7 14 31
18 53 3 21 10 44 15 51 7 7 6 14 -1 18 -6 4 -8 15 -5 26 7 20 -36 70 -70 83
-8 3 -15 14 -15 25 0 19 -18 31 -50 31 -9 0 -23 7 -30 15 -9 11 -15 13 -20 5
-5 -8 -20 -3 -46 15 -21 14 -46 24 -55 22 -16 -4 -59 32 -59 51 -1 9 -47 62
-55 62 -9 0 -6 -40 5 -61 8 -13 7 -19 0 -19 -7 0 -9 -13 -4 -35 5 -27 3 -36
-10 -41 -11 -4 -13 -11 -6 -23 15 -28 8 -61 -13 -61 -10 0 -15 -4 -12 -10 3
-5 1 -10 -4 -10 -11 0 -15 13 -12 38 2 15 -1 15 -35 -3 -27 -14 -30 -14 -46 5
-9 11 -19 20 -23 20 -12 0 -45 42 -45 55 0 7 11 20 25 29 22 15 25 23 23 69
-1 29 1 62 5 75 7 17 5 22 -8 22 -13 0 -16 6 -13 25 3 14 -1 30 -8 36 -19 15
-18 34 3 54 14 14 14 18 2 26 -10 6 -8 9 10 9 23 0 23 1 7 19 -17 18 -16 19 2
25 14 5 18 13 15 26 -4 15 0 20 16 20 20 0 21 4 15 68 -8 100 -7 114 7 123 11
6 11 11 2 20 -6 6 -9 18 -6 25 3 8 -1 14 -11 14 -9 0 -16 5 -16 10 0 19 -31
10 -39 -12z"/>
</g>
</svg>
