<?xml version="1.0" standalone="no"?>
<!DOCTYPE svg PUBLIC "-//W3C//DTD SVG 20010904//EN"
 "http://www.w3.org/TR/2001/REC-SVG-20010904/DTD/svg10.dtd">
<svg version="1.0" xmlns="http://www.w3.org/2000/svg"
 width="624.614160pt" height="875.111440pt" viewBox="0 0 624.614160 875.111440"
 preserveAspectRatio="xMidYMid meet">
<metadata>
Created by potrace 1.15, written by Peter Selinger 2001-2017
</metadata>
<g transform="translate(-624.000000,1473.486834) scale(0.100000,-0.100000)"
fill="#222222" stroke="none">
<path d="M12020 14721 c0 -10 9 -21 20 -24 12 -3 20 0 20 7 0 6 -9 17 -20 24
-17 11 -20 10 -20 -7z"/>
<path d="M11940 14713 c0 -6 7 -14 16 -17 9 -4 14 -12 10 -21 -19 -46 -19 -50
-5 -37 21 19 29 14 19 -12 -10 -26 11 -58 25 -36 3 5 -1 10 -11 10 -15 0 -15
2 -1 23 19 29 11 77 -12 77 -9 0 -22 5 -29 12 -8 8 -12 8 -12 1z"/>
<path d="M11870 14638 c0 -9 8 -22 18 -27 16 -10 16 -10 -1 -11 -10 0 -27 5
-38 10 -12 7 -19 7 -19 1 0 -20 39 -32 61 -21 11 7 27 9 34 6 8 -3 17 -1 20 4
4 6 1 10 -5 10 -7 0 -10 7 -6 15 4 12 0 14 -20 9 -17 -4 -29 -2 -35 7 -7 11
-9 11 -9 -3z"/>
<path d="M11760 14589 c0 -5 5 -7 10 -4 6 3 10 8 10 11 0 2 -4 4 -10 4 -5 0
-10 -5 -10 -11z"/>
<path d="M11690 14540 c0 -4 -8 -16 -17 -26 -10 -10 -18 -29 -18 -43 0 -22 -5
-26 -32 -29 -29 -3 -31 -5 -20 -23 6 -10 20 -19 29 -19 9 0 21 -7 26 -16 8
-14 12 -12 31 12 13 16 19 35 16 46 -8 24 4 23 33 -4 13 -13 31 -23 40 -23 10
0 16 -7 14 -16 -1 -9 6 -24 17 -33 14 -12 18 -26 14 -48 -3 -22 1 -36 17 -53
17 -18 20 -29 14 -64 l-7 -41 44 0 c56 0 73 11 64 40 -5 15 -1 27 14 41 12 11
21 28 21 37 0 10 5 23 11 29 9 9 8 18 -5 37 -13 21 -14 29 -4 45 9 15 9 23 -1
35 -11 13 -11 20 4 42 15 24 13 51 -3 29 -4 -6 -20 -10 -37 -10 -22 0 -32 -6
-35 -20 -4 -12 -20 -25 -40 -31 -35 -12 -35 -11 -54 29 -14 32 -16 45 -7 59 9
14 8 18 -4 18 -8 0 -15 -9 -15 -20 0 -23 -8 -25 -35 -7 -34 22 -75 37 -75 27z"/>
<path d="M12025 14530 c3 -5 8 -10 11 -10 2 0 4 5 4 10 0 6 -5 10 -11 10 -5 0
-7 -4 -4 -10z"/>
<path d="M11674 14347 c3 -11 -2 -22 -14 -29 -18 -11 -29 -48 -14 -48 36 0 56
48 33 80 -9 13 -10 12 -5 -3z"/>
<path d="M11490 14158 c0 -8 -11 -20 -25 -26 -18 -9 -25 -19 -25 -41 0 -20 -6
-30 -19 -34 -20 -5 -34 -54 -21 -76 16 -29 -49 -71 -70 -45 -20 23 -30 16 -19
-13 11 -29 10 -30 -54 -64 -25 -13 -37 -25 -33 -35 3 -9 -9 -21 -37 -36 -49
-26 -86 -32 -93 -15 -3 8 -29 12 -75 11 -55 0 -74 -4 -84 -17 -7 -9 -16 -17
-21 -17 -5 0 -15 -14 -23 -31 -7 -17 -19 -28 -26 -25 -8 3 -11 -2 -8 -15 9
-33 -14 -21 -25 14 -5 17 -10 24 -11 15 -1 -11 -9 -18 -21 -18 -11 0 -20 -6
-20 -14 0 -9 -7 -12 -19 -9 -27 7 -44 -27 -31 -61 5 -14 16 -26 24 -26 7 0 16
-7 20 -15 3 -10 -1 -15 -14 -15 -13 0 -20 -8 -22 -27 -2 -20 -9 -29 -26 -31
l-22 -3 20 -29 c18 -26 19 -31 5 -63 -13 -32 -13 -36 6 -53 12 -11 23 -18 25
-16 9 5 27 2 21 -5 -4 -3 -1 -13 6 -21 9 -12 9 -16 0 -19 -9 -3 -10 -10 -4
-21 4 -9 11 -29 15 -44 5 -22 3 -28 -10 -28 -12 0 -15 -6 -10 -22 3 -13 6 -26
6 -29 0 -4 18 -9 40 -11 32 -3 41 0 51 19 9 17 10 29 1 48 -10 21 -9 28 9 46
11 11 33 21 48 22 16 1 27 5 25 9 -6 10 86 98 102 98 6 0 15 12 18 26 5 17 12
24 21 20 9 -3 12 0 9 8 -3 7 2 19 11 26 12 10 13 16 4 27 -18 21 3 38 29 24
14 -7 29 -8 46 -1 16 6 27 6 31 0 15 -24 25 -6 25 43 0 30 3 57 7 61 4 4 9 24
10 44 2 20 4 42 5 47 0 6 -2 21 -6 34 -5 14 -4 21 2 18 5 -4 16 12 25 34 13
33 20 39 36 34 22 -7 91 47 91 71 0 8 7 17 15 20 8 4 15 17 15 29 0 13 5 27
11 30 6 5 8 27 3 63 -6 50 -5 55 8 44 18 -14 44 -7 52 14 3 8 12 14 20 14 7 0
17 7 20 16 9 24 7 28 -8 15 -11 -9 -18 -6 -35 15 -13 17 -21 21 -21 12z"/>
<path d="M11855 14120 c-4 -6 -1 -21 7 -33 20 -32 23 -87 5 -87 -8 0 -22 -16
-32 -36 -9 -20 -25 -44 -35 -54 -13 -13 -17 -28 -14 -50 4 -25 1 -33 -13 -36
-22 -6 -54 -59 -47 -78 4 -10 0 -13 -14 -9 -15 4 -20 -2 -26 -28 -8 -40 -23
-59 -47 -59 -13 0 -20 -10 -24 -37 -10 -57 -12 -61 -36 -65 -12 -2 -27 -12
-33 -23 -6 -11 -21 -38 -34 -59 -21 -34 -22 -40 -9 -47 12 -7 13 -14 4 -34 -7
-14 -18 -25 -25 -25 -9 0 -11 -7 -7 -20 9 -30 -13 -53 -43 -45 -25 6 -25 6 -9
-19 20 -30 21 -36 5 -36 -7 -1 -23 -9 -36 -20 -20 -16 -21 -22 -11 -39 10 -15
10 -23 0 -35 -7 -8 -9 -21 -5 -28 5 -7 7 -25 6 -39 -4 -32 25 -68 58 -71 20
-2 25 2 25 18 1 12 6 28 12 36 12 13 8 121 -4 142 -3 5 -7 24 -9 43 -2 33 -1
34 15 19 10 -9 28 -16 40 -16 18 0 20 3 11 19 -7 14 -7 22 0 26 8 5 7 11 0 20
-7 9 -9 27 -5 45 6 28 10 31 31 26 39 -10 124 4 124 21 0 11 4 11 29 -1 25
-13 31 -13 50 0 18 13 20 19 10 30 -10 12 -6 20 20 45 18 16 29 33 26 39 -3 6
4 10 18 10 13 0 26 3 29 6 7 7 -34 49 -57 58 -11 4 -15 13 -12 26 4 15 -3 24
-29 36 -46 22 -51 34 -16 34 31 0 62 33 62 65 0 8 5 15 11 15 6 0 22 14 36 30
13 17 32 30 41 30 10 0 23 10 31 22 12 19 11 23 -8 38 -12 8 -18 19 -14 24 4
4 9 22 10 39 1 18 5 47 9 66 4 23 3 36 -6 41 -7 5 -14 17 -15 27 -2 38 -34 58
-50 33z"/>
<path d="M10710 13711 c0 -5 7 -15 17 -22 15 -13 15 -12 4 9 -12 23 -21 28
-21 13z"/>
<path d="M11840 13491 c-7 -13 -7 -22 0 -26 12 -7 12 -7 15 23 3 27 -1 28 -15
3z"/>
<path d="M10720 13035 c-22 -12 -24 -19 -23 -84 0 -54 -3 -71 -13 -71 -9 0
-14 -11 -14 -31 0 -22 -13 -45 -47 -84 -41 -47 -50 -52 -71 -44 -31 12 -65 11
-57 -1 4 -6 11 -8 17 -4 6 4 8 -3 6 -17 -2 -17 3 -27 19 -34 33 -14 59 -85 32
-85 -7 0 -9 -10 -7 -25 3 -14 1 -28 -4 -31 -4 -3 -6 -10 -3 -15 4 -5 -1 -9 -9
-9 -18 0 -35 -28 -39 -67 -2 -16 -7 -34 -10 -40 -4 -7 -5 -23 -2 -36 6 -21 4
-24 -17 -20 -30 5 -64 -19 -53 -37 11 -18 13 -60 3 -60 -4 0 -8 -11 -8 -24 0
-21 -6 -25 -32 -28 -27 -2 -33 -7 -31 -25 2 -16 -2 -21 -11 -17 -11 4 -13 0
-9 -15 3 -12 1 -21 -6 -21 -8 0 -10 -11 -6 -34 5 -25 3 -35 -8 -39 -17 -6 -27
3 -51 50 -20 40 -20 43 2 44 10 0 12 3 5 6 -18 7 -16 23 2 23 22 0 8 24 -23
37 -15 7 -35 26 -44 42 -16 29 -73 61 -108 61 -10 0 -20 8 -23 19 -4 18 -66
36 -77 22 -11 -15 -89 -5 -109 13 -21 19 -21 19 -21 -2 0 -23 -5 -24 -85 -26
-16 -1 -37 5 -46 12 -22 17 -66 -5 -61 -32 5 -24 -14 -36 -55 -36 -28 0 -33
-4 -33 -24 0 -13 -7 -26 -15 -30 -8 -3 -15 -12 -15 -21 0 -8 -7 -15 -15 -15
-22 0 -18 -18 11 -45 21 -20 24 -29 18 -59 -5 -27 -11 -36 -26 -36 -24 0 -46
21 -40 39 4 13 -14 31 -31 31 -4 0 -12 -12 -18 -27 -7 -20 -6 -28 3 -35 9 -5
7 -8 -8 -8 -21 0 -21 -1 -8 -41 11 -32 12 -44 3 -55 -9 -12 -7 -19 10 -37 11
-13 21 -31 21 -41 0 -14 5 -17 24 -12 16 4 26 1 30 -10 3 -8 10 -12 16 -9 11
7 17 -5 24 -47 3 -19 -1 -31 -12 -37 -13 -7 -14 -12 -4 -24 10 -11 9 -22 -3
-51 -17 -41 -17 -41 -55 -21 -15 8 -50 17 -77 19 -26 2 -51 4 -55 5 -4 1 -8
11 -10 24 -2 13 -11 23 -23 24 -11 2 -37 5 -59 7 -48 6 -78 -11 -70 -38 5 -15
3 -18 -10 -13 -9 4 -16 3 -16 -1 0 -15 -58 -74 -68 -68 -5 3 -12 -4 -15 -15
-3 -12 -10 -18 -17 -14 -6 4 -18 1 -26 -6 -11 -9 -18 -9 -32 4 -9 8 -35 19
-57 23 -22 4 -34 9 -27 11 6 3 12 11 12 18 0 16 -16 22 -55 21 -28 -1 -30 -3
-28 -40 2 -30 12 -48 45 -82 44 -45 58 -50 38 -15 -7 14 -7 21 0 21 5 0 10 -5
10 -11 0 -7 7 -8 18 -4 53 22 87 24 107 6 11 -11 39 -22 62 -26 43 -7 112 -51
113 -71 0 -7 21 -15 48 -19 51 -7 75 -21 66 -37 -4 -5 10 -23 29 -39 35 -29
40 -53 14 -70 -12 -8 33 -77 56 -85 9 -3 17 -9 17 -14 0 -4 19 -15 41 -24 24
-10 62 -39 88 -68 52 -58 111 -156 105 -173 -3 -7 2 -18 11 -25 9 -7 22 -28
30 -47 8 -18 20 -33 27 -33 7 0 19 -9 25 -19 7 -11 34 -32 60 -47 26 -15 56
-34 66 -42 11 -10 17 -11 17 -4 0 7 5 12 10 12 6 0 10 -5 10 -11 0 -26 44
-109 61 -114 13 -4 19 -16 19 -36 0 -22 5 -29 20 -29 27 0 26 -30 -1 -37 -19
-5 -19 -7 12 -39 23 -24 30 -39 26 -55 -3 -11 0 -30 6 -41 10 -15 9 -22 -4
-31 -32 -25 -31 -49 3 -77 l32 -27 -22 -23 c-16 -17 -19 -27 -12 -41 6 -10 10
-28 10 -40 0 -12 20 -46 45 -76 35 -43 46 -66 51 -106 5 -33 15 -59 30 -74 12
-12 25 -31 29 -41 4 -16 0 -20 -24 -24 -20 -3 -32 0 -36 10 -3 7 -11 12 -17
10 -7 -3 -21 6 -31 19 -13 16 -25 22 -37 18 -10 -3 -21 -1 -25 5 -3 5 -15 10
-26 10 -11 0 -36 11 -56 24 -40 27 -63 21 -82 -21 -7 -15 -19 -23 -35 -23 -46
0 -76 -18 -76 -44 0 -18 -9 -30 -30 -41 -30 -15 -32 -15 -49 6 l-18 22 -7 -28
c-5 -18 -3 -31 4 -35 8 -5 8 -10 2 -14 -5 -3 -22 4 -36 15 -21 17 -30 19 -41
9 -8 -7 -21 -10 -29 -7 -8 3 -17 -1 -20 -10 -4 -9 -13 -13 -23 -9 -9 4 -20 2
-23 -5 -6 -8 -13 -8 -28 0 -28 15 -35 14 -60 -9 -22 -21 -22 -21 -43 -2 -11
11 -27 41 -34 66 -8 26 -23 60 -34 75 -18 25 -18 29 -5 43 16 16 9 48 -11 48
-7 0 -16 7 -19 16 -9 23 -7 34 5 34 6 0 17 7 25 15 14 13 14 16 0 21 -9 3 -16
14 -16 24 0 10 -9 20 -21 23 -16 4 -19 11 -14 26 8 25 -19 74 -48 87 -12 5
-24 19 -27 31 -3 12 -18 32 -35 44 l-30 24 26 -35 26 -34 -21 -32 c-20 -30
-28 -33 -76 -25 -3 1 1 5 8 10 11 7 10 9 -3 14 -9 4 -13 3 -10 -3 3 -6 -1 -10
-9 -10 -11 0 -16 -13 -18 -47 -3 -47 -4 -48 -35 -46 -23 2 -33 -2 -37 -15 -5
-15 -15 -18 -50 -17 -24 1 -49 6 -56 10 -7 4 -16 2 -20 -5 -6 -9 -15 -7 -38
10 -27 20 -33 21 -65 10 -25 -10 -33 -18 -30 -31 4 -14 0 -16 -16 -12 -16 4
-21 1 -21 -16 0 -31 -50 -28 -90 5 -21 18 -45 28 -76 30 -25 2 -42 -1 -39 -6
3 -5 0 -12 -6 -16 -7 -4 -9 -3 -6 4 8 11 -68 52 -96 52 -10 0 -23 11 -29 25
-6 13 -18 27 -27 30 -9 3 -22 18 -28 34 -10 28 -32 35 -49 18 -4 -4 -17 -7
-30 -7 -17 0 -23 -7 -28 -35 -8 -39 -12 -42 -37 -19 -16 14 -18 14 -23 -4 -4
-11 -18 -27 -31 -36 -17 -11 -27 -29 -31 -57 -9 -52 -65 -112 -99 -103 -13 3
-34 0 -47 -7 -12 -7 -27 -13 -31 -14 -4 0 -12 -6 -16 -14 -6 -9 -11 -10 -15
-2 -4 6 -26 11 -50 11 -23 0 -47 5 -53 11 -8 8 -13 8 -17 0 -4 -6 -2 -11 3
-11 6 0 11 -12 11 -26 0 -14 -4 -23 -8 -20 -14 9 9 -108 25 -126 13 -15 11
-19 -26 -44 l-42 -27 -28 27 c-16 15 -37 27 -47 26 -35 -4 -55 0 -49 9 3 6
-10 17 -29 26 -19 9 -39 22 -44 28 -16 20 -24 75 -13 82 21 12 -8 45 -39 45
-24 0 -30 4 -30 21 0 14 -10 24 -30 32 -20 7 -30 18 -30 32 0 28 -15 50 -25
36 -3 -7 -16 -9 -27 -6 -11 4 -26 0 -37 -9 -17 -16 -76 -16 -112 -2 -10 5 -31
-3 -54 -18 -43 -29 -65 -33 -65 -11 0 8 -14 28 -31 46 -23 23 -36 29 -52 24
-55 -17 -67 -17 -67 -2 0 8 -7 20 -15 27 -13 11 -15 7 -15 -24 0 -40 -42 -98
-69 -94 -24 3 -88 -64 -96 -101 -5 -23 -12 -31 -23 -29 -10 2 -17 12 -17 23 0
13 -7 20 -20 21 -11 0 -28 4 -38 8 -10 5 -37 6 -61 3 -27 -4 -47 -2 -56 6 -10
9 -14 9 -18 -2 -3 -8 -22 -32 -43 -52 -27 -27 -46 -37 -65 -36 -36 3 -47 -29
-26 -74 15 -30 22 -34 61 -36 24 -1 50 -4 57 -7 19 -7 7 -33 -18 -39 -14 -4
-19 -11 -14 -22 5 -13 0 -16 -22 -13 -21 2 -26 8 -24 25 2 12 -2 24 -8 28 -5
3 -10 1 -10 -5 0 -6 -3 -9 -7 -7 -5 3 -19 1 -32 -4 -20 -8 -22 -14 -17 -40 4
-21 1 -31 -9 -35 -8 -4 -15 -12 -15 -20 0 -8 -7 -14 -15 -14 -11 0 -15 -11
-15 -36 0 -27 -5 -37 -20 -41 -11 -3 -20 -11 -20 -18 0 -8 8 -11 18 -8 12 3
22 -4 29 -20 8 -17 23 -27 48 -31 41 -8 79 -41 71 -62 -3 -7 2 -30 10 -49 8
-20 12 -41 8 -47 -4 -6 -8 -25 -10 -42 -1 -17 -9 -35 -17 -40 -12 -8 -12 -13
1 -36 14 -24 14 -33 2 -71 -8 -24 -19 -47 -24 -51 -17 -11 11 -57 39 -64 20
-5 31 0 50 20 26 28 41 33 47 15 5 -14 38 0 38 16 0 6 8 19 18 28 14 13 25 15
52 7 18 -5 36 -7 40 -5 4 3 11 -6 14 -20 4 -17 16 -27 39 -33 20 -5 40 -20 52
-40 11 -18 26 -29 34 -26 7 2 19 0 26 -6 7 -6 17 -10 21 -8 5 1 27 -9 49 -23
22 -13 49 -29 60 -35 21 -11 78 -148 66 -159 -5 -6 35 -45 110 -109 14 -12 28
-29 32 -39 3 -9 15 -17 26 -17 11 0 26 -3 34 -6 10 -3 17 1 19 13 3 12 11 2
27 -34 28 -64 45 -79 98 -91 29 -7 63 -28 105 -64 62 -55 117 -91 104 -69 -11
18 1 13 70 -26 42 -24 63 -42 59 -51 -3 -8 2 -23 10 -35 8 -12 15 -30 15 -40
0 -10 5 -15 10 -12 12 8 45 -12 110 -66 56 -46 76 -52 133 -39 52 11 102 -1
117 -30 12 -22 77 -53 96 -46 8 3 19 -5 28 -23 13 -25 53 -60 66 -57 3 0 16
-7 30 -17 13 -9 37 -17 52 -17 17 0 28 -5 28 -13 0 -8 11 -19 25 -25 14 -6 25
-18 25 -27 0 -8 7 -15 15 -15 9 0 18 -7 22 -15 6 -17 74 -19 107 -2 24 12 80
-18 95 -51 9 -18 17 -23 34 -18 16 4 29 -1 40 -14 9 -11 23 -20 31 -20 9 0 14
-12 14 -37 1 -56 -5 -70 -38 -83 -22 -9 -30 -19 -30 -37 0 -13 -7 -26 -15 -29
-8 -4 -15 -12 -15 -20 0 -8 -4 -14 -10 -14 -12 0 -13 -10 -1 -29 13 -20 154
-22 146 -2 -4 9 0 11 11 7 8 -3 22 -6 31 -6 9 0 13 -6 10 -14 -3 -7 0 -19 6
-26 9 -10 8 -12 -5 -7 -21 7 -24 -13 -6 -31 17 -17 4 -24 -26 -13 -17 7 -26 7
-26 1 0 -6 -6 -10 -14 -10 -9 0 -12 -7 -9 -19 2 -10 -2 -24 -9 -32 -8 -8 -17
-22 -21 -31 -8 -23 -25 -23 -83 2 l-47 20 -45 -21 c-39 -19 -43 -24 -28 -34
21 -16 21 -35 -2 -35 -19 0 -48 -38 -44 -57 2 -7 -2 -13 -8 -13 -8 0 -10 -13
-5 -40 6 -36 5 -40 -14 -40 -16 0 -20 -6 -18 -22 1 -17 -3 -23 -18 -24 -61 -3
-59 -2 -40 -30 12 -18 13 -29 6 -38 -13 -16 -4 -26 22 -26 13 0 17 -5 13 -15
-3 -8 8 -34 24 -58 16 -23 32 -55 35 -70 7 -27 7 -27 -21 -12 -49 25 -90 20
-111 -15 -9 -16 -21 -30 -26 -30 -4 0 -5 5 -2 10 4 6 4 23 0 39 -8 39 -48 47
-72 15 -20 -27 -56 -31 -100 -11 -28 12 -77 62 -79 81 -1 6 -2 16 -3 23 0 6
-14 14 -30 18 -32 7 -41 26 -53 110 -2 11 -8 23 -14 27 -6 4 -9 18 -7 30 6 32
-70 96 -92 78 -12 -10 -18 -10 -29 -1 -10 8 -25 9 -48 3 -26 -6 -34 -15 -38
-37 -4 -25 -12 -30 -65 -45 -34 -9 -61 -23 -63 -31 -1 -8 -17 -21 -35 -28 -18
-8 -35 -19 -39 -25 -5 -8 -8 -7 -8 2 0 6 -11 12 -24 12 -17 0 -31 10 -43 31
-10 17 -34 37 -53 46 -19 8 -43 19 -52 24 -24 12 -37 11 -15 -2 20 -12 22 -35
5 -46 -33 -21 -40 -41 -23 -67 9 -14 23 -22 30 -20 19 8 31 -23 29 -71 -1 -31
-5 -40 -18 -39 -12 1 -15 -3 -11 -16 4 -13 -1 -20 -17 -25 -76 -20 -104 -31
-111 -42 -4 -7 -14 -13 -22 -13 -7 0 -15 -10 -17 -22 -2 -15 -11 -24 -25 -26
-13 -2 -23 -7 -23 -12 0 -4 -10 -11 -22 -14 -23 -6 -22 -7 10 -36 17 -16 32
-34 32 -39 0 -16 21 -24 71 -25 27 -1 51 -5 55 -9 4 -4 8 -24 8 -44 0 -24 7
-43 18 -51 10 -7 18 -20 18 -28 0 -17 16 -19 26 -3 3 6 19 9 35 5 19 -4 40 1
63 15 31 18 37 18 67 6 75 -32 96 -35 112 -20 13 13 19 12 54 -5 29 -15 43
-18 57 -10 15 9 22 7 33 -8 7 -10 13 -23 13 -28 0 -7 28 -11 69 -12 68 -1 70
-1 80 27 8 23 15 28 43 27 18 0 37 -3 41 -5 17 -10 113 -10 125 -1 16 14 17
-13 0 -30 -8 -8 -8 -15 0 -25 7 -8 9 -16 6 -19 -3 -3 2 -28 11 -56 l17 -50 70
-16 c38 -9 75 -13 81 -9 32 20 47 40 47 65 0 21 4 26 16 21 10 -4 22 1 30 11
7 10 17 15 23 12 5 -4 17 4 26 16 16 23 16 23 32 3 10 -14 17 -16 20 -7 8 20
31 14 35 -10 2 -13 8 -23 13 -24 31 -3 45 -18 45 -50 0 -27 6 -36 30 -49 16
-8 40 -15 53 -15 14 0 30 -7 37 -15 7 -8 21 -15 31 -15 22 0 160 49 173 61 6
5 18 2 29 -9 10 -9 21 -16 23 -14 13 8 44 0 44 -12 0 -7 9 -16 20 -19 11 -3
20 -1 20 5 0 6 9 8 20 5 13 -3 20 0 20 9 0 12 35 20 65 14 40 -8 115 32 115
61 0 7 13 -1 29 -19 17 -17 35 -32 40 -32 6 0 17 -13 26 -29 8 -16 24 -32 34
-36 24 -7 63 15 57 32 -3 7 -1 15 4 18 8 5 7 30 -5 98 -3 20 0 27 11 27 13 0
12 5 -5 34 -12 18 -21 50 -21 71 0 22 -8 47 -20 62 -11 14 -20 34 -20 44 0 11
-6 19 -14 19 -36 0 -44 94 -11 127 8 8 15 23 15 34 0 16 6 20 26 17 27 -3 32
-8 54 -63 16 -38 26 -15 11 25 -9 27 -8 30 12 31 12 1 30 0 40 -1 10 -1 25 8
35 19 16 20 19 20 71 7 29 -8 60 -21 70 -30 9 -8 28 -18 44 -21 15 -4 27 -13
27 -21 0 -9 11 -14 30 -14 16 0 43 -8 61 -19 17 -10 39 -16 50 -14 14 4 31 -5
54 -27 18 -18 38 -29 43 -26 6 3 22 2 35 -3 34 -13 49 6 41 49 -5 22 -3 35 7
41 12 8 11 11 -3 20 -29 16 -21 26 29 39 58 14 70 23 78 61 4 16 13 32 20 36
8 5 14 13 14 18 0 13 73 26 86 15 23 -17 60 -19 77 -3 17 15 18 15 18 0 0 -20
26 -23 33 -4 4 9 8 9 15 -2 11 -15 27 2 17 19 -3 6 1 10 9 10 17 0 21 27 7 49
-9 15 8 43 21 35 11 -7 48 19 48 33 0 7 -10 28 -22 47 -49 75 -78 124 -78 129
0 2 8 4 18 3 13 -1 17 6 16 32 -1 22 3 32 12 32 12 0 12 4 3 21 -10 19 -9 21
8 17 13 -3 24 2 32 13 6 11 23 19 39 19 38 0 47 11 19 24 -24 12 -28 36 -15
75 6 16 4 31 -7 47 -9 15 -11 24 -4 24 6 0 8 11 5 28 -4 15 -1 50 5 77 6 28
12 66 12 85 2 31 -1 35 -24 38 -32 4 -49 42 -19 42 10 0 20 6 23 13 3 6 10 -1
16 -17 l11 -28 21 26 c11 14 27 26 34 26 8 0 19 10 26 21 9 18 7 25 -9 41 -19
20 -21 20 -72 3 -28 -9 -62 -15 -76 -12 -13 2 -27 0 -30 -5 -10 -16 -24 3 -18
27 3 12 1 26 -5 29 -6 4 -11 23 -11 42 0 30 -3 33 -17 26 -27 -13 -93 -6 -112
13 -15 15 -15 16 2 9 19 -7 50 13 41 27 -3 5 -13 9 -22 9 -9 0 -26 8 -37 17
-20 15 -20 15 2 10 13 -3 24 1 27 9 4 10 11 11 31 4 35 -13 35 -13 35 14 0 13
6 29 14 35 12 10 17 8 26 -8 11 -22 53 -28 80 -11 9 5 19 5 26 -1 15 -12 44
-1 44 17 0 18 70 31 80 14 4 -7 13 -9 20 -5 7 5 30 7 52 7 42 -2 44 3 24 53
-11 25 -11 35 -3 38 7 2 8 8 4 13 -4 4 -17 3 -28 -4 -17 -11 -24 -10 -47 6
-35 24 -62 34 -62 22 0 -6 -4 -10 -10 -10 -19 0 3 30 26 36 23 6 34 24 14 24
-5 0 -10 7 -10 15 0 8 -6 14 -12 12 -7 -1 -14 8 -16 20 -4 26 -32 53 -32 32
-1 -8 -8 -2 -16 14 -8 15 -19 27 -25 27 -6 0 -8 -4 -4 -9 3 -5 -7 -11 -22 -13
-24 -3 -28 -7 -26 -33 3 -29 2 -28 -15 10 -18 39 -18 80 0 91 15 10 -22 43
-40 36 -10 -3 0 9 21 27 36 32 46 34 88 16 13 -5 20 2 29 32 7 21 17 43 22 50
5 7 7 21 3 33 -9 29 23 39 44 13 20 -26 71 -37 71 -16 0 9 6 13 14 10 14 -6
29 15 31 43 0 9 8 14 19 12 9 -2 28 4 41 12 14 9 37 16 52 16 17 0 46 14 72
35 24 19 51 35 61 35 24 0 73 108 73 161 0 21 4 25 19 22 15 -5 18 1 18 31 0
27 3 35 13 29 6 -4 4 5 -6 21 -10 15 -17 30 -14 32 6 7 37 -7 37 -17 0 -4 7
-6 15 -3 8 4 15 13 15 21 0 9 6 13 15 9 9 -3 15 0 15 9 0 8 7 15 15 15 8 0 22
18 31 40 17 43 23 47 42 28 14 -14 16 0 3 20 -10 16 -81 13 -99 -5 -18 -17
-54 -16 -78 2 -10 8 -26 15 -34 15 -27 1 -54 28 -42 42 12 15 -16 57 -33 51
-17 -5 -38 37 -25 52 14 17 50 26 47 12 -4 -21 66 -13 88 9 12 12 27 23 35 26
9 3 14 18 13 40 l-1 35 45 -2 c38 -1 50 4 75 28 18 19 28 37 25 48 -3 10 -1
19 4 21 4 2 -3 24 -16 51 -14 26 -24 48 -24 50 0 1 -3 10 -7 21 -4 10 -2 27 4
37 7 10 12 31 13 46 1 36 11 58 27 59 37 3 40 5 35 24 -9 34 37 25 76 -15 25
-26 42 -35 67 -35 23 0 37 -6 44 -20 6 -11 15 -20 21 -20 6 0 -1 14 -15 31
-14 17 -26 38 -26 48 0 9 -13 24 -29 34 -29 17 -47 64 -31 81 4 4 4 21 -2 36
-8 24 -5 32 21 59 37 37 37 42 11 59 l-20 12 20 22 c28 30 24 108 -6 108 -21
0 -27 20 -10 33 8 7 14 21 11 32 -2 11 -4 22 -4 25 -1 3 -6 -2 -11 -10 -6 -10
-13 -11 -17 -5 -5 6 -21 10 -36 10 -33 -1 -56 19 -32 29 12 4 13 10 6 25 -6
10 -7 21 -4 25 3 3 0 14 -9 23 -8 10 -15 29 -16 41 -1 20 3 23 22 18 26 -6 63
25 51 44 -4 6 2 19 13 28 28 25 31 44 11 71 -10 13 -16 28 -12 35 4 6 8 17 8
23 0 7 12 26 27 42 24 25 26 33 18 60 -6 20 -5 31 2 31 5 0 8 6 5 14 -3 8 6
24 19 37 18 17 23 30 19 46 -4 16 -1 23 9 23 23 0 8 28 -17 32 -22 3 -23 6
-10 71 3 15 0 33 -6 41 -7 8 -9 25 -6 39 7 27 -18 45 -40 27 -18 -15 -24 -2
-14 33 5 17 6 40 3 49 -3 10 0 18 6 18 6 0 8 10 4 25 -4 18 -2 25 9 25 18 0
32 43 28 91 l-2 37 48 -3 c26 -1 48 -3 48 -4 0 -1 16 -4 37 -6 28 -3 43 2 65
21 15 13 34 22 41 19 13 -5 15 5 12 43 -1 17 4 22 24 22 20 0 26 5 26 21 0 13
4 18 12 13 8 -5 9 -2 5 9 -4 10 -10 24 -14 33 -5 14 -1 16 25 12 l32 -5 -18
31 c-10 17 -21 40 -24 52 -4 17 -1 21 21 22 34 0 80 11 109 25 17 8 25 8 34
-1 19 -19 48 -14 48 8 0 11 7 20 15 20 21 0 55 -36 55 -59 0 -17 5 -19 37 -14
23 4 45 16 56 30 21 26 46 24 81 -8 21 -20 52 -26 41 -9 -3 6 -1 10 5 10 6 0
8 5 5 10 -4 6 0 29 9 53 8 23 14 53 12 67 -2 14 -4 31 -5 38 0 8 -19 31 -41
53 -22 22 -40 46 -40 53 0 22 -45 47 -59 33 -8 -8 -14 -3 -23 21 -14 37 -19
39 -42 13 -14 -16 -23 -18 -43 -10 -14 5 -34 7 -45 3 -12 -4 -30 5 -55 26 -24
22 -38 28 -43 20 -4 -6 -13 -12 -21 -13 -22 -4 -59 -40 -52 -51 4 -6 -1 -5
-10 2 -13 11 -14 18 -5 38 6 13 16 24 21 24 5 0 3 7 -4 17 -8 9 -13 19 -13 22
1 6 0 14 -9 41 -3 9 -23 25 -46 35 -22 11 -41 25 -41 31 0 7 -9 14 -20 17 -11
3 -18 1 -15 -3 3 -5 0 -12 -6 -16 -17 -10 -32 23 -33 75 -1 40 -6 51 -41 84
-34 33 -37 38 -16 34 21 -5 23 -3 17 25 -3 17 -6 35 -6 40 0 6 -11 8 -23 4
-19 -4 -26 0 -35 20 -10 22 -9 26 10 33 14 5 17 10 10 15 -9 5 -9 13 -1 27 6
12 9 22 7 23 -21 15 -83 36 -94 32 -10 -4 -14 3 -14 24 0 25 -5 30 -49 45 -32
10 -58 28 -74 48 -29 39 -45 116 -27 127 9 6 5 17 -16 44 -26 33 -29 34 -36
16 -9 -24 -26 -26 -34 -5 -4 10 -14 13 -30 9 -13 -3 -37 -2 -53 4 -23 8 -34 6
-57 -9 -16 -10 -31 -29 -34 -41 -3 -13 -16 -27 -28 -33 -12 -5 -20 -16 -17
-22 2 -8 -4 -13 -16 -13 -17 0 -20 -5 -17 -29 1 -16 -3 -35 -10 -44 -7 -8 -25
-39 -40 -68 -15 -29 -34 -56 -42 -60 -68 -31 -88 -36 -103 -28 -9 5 -28 7 -42
3 -20 -5 -23 -9 -15 -19 12 -14 1 -40 -32 -80 -9 -11 -18 -31 -20 -45 -5 -37
-60 -41 -83 -7 -9 14 -15 29 -13 33 1 5 -3 19 -10 32 -7 12 -9 22 -4 22 10 0
9 30 -1 46 -3 6 -10 30 -16 52 -8 40 -8 42 16 48 23 6 24 10 19 58 -3 28 -6
60 -7 71 -1 11 0 27 3 35 37 111 39 119 26 141 -10 17 -10 23 0 26 6 3 12 15
12 28 0 13 4 35 10 49 17 45 -44 85 -90 61z m-85 -1015 c-3 -5 -15 -10 -26
-10 -10 0 -19 5 -19 10 0 6 12 10 26 10 14 0 23 -4 19 -10z m435 -101 c0 -5
-10 -9 -21 -9 -18 0 -19 2 -9 15 12 15 30 12 30 -6z m-40 -24 c21 -25 1 -31
-22 -7 -18 18 -19 22 -6 22 8 0 21 -7 28 -15z m-1445 -45 c3 -6 -1 -7 -9 -4
-18 7 -21 14 -7 14 6 0 13 -4 16 -10z m1563 -55 c-3 -3 -9 2 -12 12 -6 14 -5
15 5 6 7 -7 10 -15 7 -18z m-43 5 c4 -6 1 -17 -5 -26 -11 -12 -14 -12 -25 3
-7 10 -11 21 -9 25 7 11 32 10 39 -2z m-550 -171 c11 -17 0 -20 -21 -4 -17 13
-17 14 -2 15 9 0 20 -5 23 -11z m120 -85 c-7 -8 -20 -11 -28 -8 -13 5 -13 8 1
23 11 12 21 15 29 8 10 -7 9 -12 -2 -23z m-130 -26 c32 -14 32 -26 -2 -39 -14
-5 -31 -16 -37 -24 -6 -7 -20 -15 -31 -17 -14 -2 -21 -12 -23 -34 -2 -17 -14
-42 -28 -55 -23 -22 -24 -22 -24 -2 0 11 -11 30 -24 42 -24 22 -41 61 -27 61
4 0 12 -5 19 -12 9 -9 13 -8 17 4 4 10 14 14 25 11 13 -4 33 8 62 36 24 22 44
41 45 41 1 0 14 -5 28 -12z m-1040 -1919 c20 -37 10 -57 -32 -65 -23 -4 -37
-13 -40 -25 -3 -10 -10 -16 -15 -13 -6 4 -6 -2 1 -13 8 -17 6 -24 -14 -43 -13
-13 -22 -26 -20 -30 2 -4 -7 -12 -22 -19 -23 -11 -25 -10 -20 8 5 21 -10 31
-48 31 -15 0 -29 9 -36 22 -10 18 -8 24 11 38 22 17 22 19 6 41 -20 29 -20 39
-1 39 8 0 15 -7 15 -15 0 -9 9 -15 25 -15 15 0 24 -5 23 -12 -2 -9 10 -13 34
-13 20 0 34 3 32 7 -3 4 1 16 8 27 11 17 10 23 -5 38 -16 16 -15 18 20 34 44
20 59 16 78 -22z m505 -1292 c0 -10 -5 -17 -12 -15 -19 7 -32 34 -24 54 7 19
8 19 22 0 8 -11 14 -28 14 -39z m264 -16 c-6 -6 -24 19 -24 34 1 6 7 1 15 -9
8 -11 12 -22 9 -25z m36 -12 c-11 -7 -3 -8 26 -4 34 5 49 1 89 -22 31 -18 49
-36 51 -51 2 -13 -1 -22 -9 -22 -22 0 -38 16 -31 33 5 14 0 17 -25 17 -17 0
-31 -4 -31 -9 0 -18 -33 -21 -51 -5 -11 10 -19 14 -19 11 0 -3 -13 -1 -30 4
-30 11 -41 29 -17 29 8 0 20 11 27 25 10 18 17 22 24 15 8 -8 6 -14 -4 -21z
m-85 -68 c-3 -6 4 -19 16 -29 13 -13 17 -22 10 -27 -6 -3 -14 1 -17 9 -3 9
-12 16 -19 16 -17 0 -28 17 -20 30 3 6 13 10 21 10 8 0 13 -4 9 -9z m453 -114
c-2 -26 2 -33 27 -46 17 -9 32 -17 35 -19 3 -2 -4 -10 -14 -18 -17 -12 -17
-16 -5 -31 12 -15 12 -16 -3 -10 -10 3 -20 2 -23 -4 -8 -12 -55 31 -55 51 0 9
-7 25 -15 37 -16 23 -11 78 6 67 5 -3 9 2 9 11 0 13 4 14 21 5 15 -8 19 -19
17 -43z m-166 26 c6 -22 -1 -43 -13 -43 -11 0 -29 42 -22 53 8 13 31 7 35 -10z
m-188 -9 c12 -5 13 -10 5 -25 -16 -31 -66 -18 -53 14 6 18 22 21 48 11z m166
-59 c0 -9 -6 -12 -16 -8 -13 5 -13 7 -2 14 17 11 18 11 18 -6z m45 -113 c-3
-3 -11 0 -18 7 -9 10 -8 11 6 5 10 -3 15 -9 12 -12z m-95 -265 c0 -14 -20 -37
-32 -37 -4 0 -8 11 -8 25 0 18 5 25 20 25 11 0 20 -6 20 -13z m-1600 -57 c0
-5 -2 -10 -4 -10 -3 0 -8 5 -11 10 -3 6 -1 10 4 10 6 0 11 -4 11 -10z m-1350
-964 c0 -8 3 -23 6 -33 6 -16 5 -16 -9 2 -19 23 -22 45 -7 45 6 0 10 -6 10
-14z m1895 -66 c10 -11 24 -20 32 -20 19 0 16 -18 -5 -29 -22 -11 -57 13 -67
47 -8 28 15 30 40 2z"/>
<path d="M11442 12935 c0 -16 2 -22 5 -12 2 9 2 23 0 30 -3 6 -5 -1 -5 -18z"/>
<path d="M11422 12888 c3 -7 13 -15 22 -16 12 -3 17 1 14 10 -3 7 -13 15 -22
16 -12 3 -17 -1 -14 -10z"/>
<path d="M9040 11621 c0 -12 6 -21 15 -21 8 0 15 4 15 9 0 5 -7 14 -15 21 -13
10 -15 9 -15 -9z"/>
<path d="M12450 11541 c0 -6 4 -13 10 -16 6 -3 7 1 4 9 -7 18 -14 21 -14 7z"/>
<path d="M12450 11480 c19 -13 30 -13 30 0 0 6 -10 10 -22 10 -19 0 -20 -2 -8
-10z"/>
<path d="M10038 10263 c7 -3 16 -2 19 1 4 3 -2 6 -13 5 -11 0 -14 -3 -6 -6z"/>
<path d="M9150 10249 c0 -5 5 -7 10 -4 6 3 10 8 10 11 0 2 -4 4 -10 4 -5 0
-10 -5 -10 -11z"/>
<path d="M6840 10070 c0 -5 5 -10 11 -10 5 0 7 5 4 10 -3 6 -8 10 -11 10 -2 0
-4 -4 -4 -10z"/>
<path d="M7433 9949 c-2 -24 13 -25 26 -1 7 14 6 18 -8 19 -10 1 -17 -6 -18
-18z"/>
<path d="M11683 9532 c-10 -16 -20 -29 -23 -29 -3 0 -16 -3 -28 -7 -17 -6 -22
-13 -19 -27 3 -10 -1 -22 -8 -27 -18 -10 -7 -65 11 -58 34 13 41 -3 29 -57
-10 -45 -15 -52 -37 -55 -23 -3 -26 -8 -31 -60 -4 -37 -2 -59 5 -64 17 -10 72
47 65 66 -4 10 -1 16 7 16 9 0 16 17 21 47 9 62 22 93 38 93 11 0 13 15 11 64
-2 53 0 64 12 59 12 -4 12 -1 0 28 -18 44 -32 47 -53 11z"/>
<path d="M11750 9544 c0 -8 5 -12 10 -9 6 4 8 11 5 16 -9 14 -15 11 -15 -7z"/>
<path d="M11372 9288 c-7 -7 -12 -16 -12 -21 0 -5 7 -1 16 8 9 9 14 18 12 20
-2 3 -10 -1 -16 -7z"/>
<path d="M11470 9140 c5 -10 7 -26 3 -36 -4 -12 -3 -15 5 -10 7 4 18 4 25 -1
6 -4 27 -8 45 -8 31 0 32 1 26 30 -3 17 -7 30 -8 31 0 1 -25 4 -54 7 -49 6
-52 5 -42 -13z"/>
<path d="M11580 9046 c0 -9 7 -16 16 -16 17 0 14 22 -4 28 -7 2 -12 -3 -12
-12z"/>
<path d="M6772 8821 c-11 -6 -9 -9 6 -13 15 -4 19 -2 15 8 -6 16 -4 16 -21 5z"/>
<path d="M10615 8240 c4 -6 11 -8 16 -5 14 9 11 15 -7 15 -8 0 -12 -5 -9 -10z"/>
<path d="M10923 8181 c-10 -15 -10 -21 0 -24 9 -3 9 -9 0 -26 -7 -11 -13 -27
-13 -35 0 -9 -7 -12 -21 -9 -17 5 -20 2 -17 -13 3 -15 11 -19 41 -17 35 2 85
37 68 47 -5 3 -14 26 -20 51 -12 50 -20 55 -38 26z"/>
<path d="M10835 8140 c-3 -5 -3 -15 1 -21 3 -6 0 -15 -7 -20 -11 -7 -10 -9 4
-9 9 0 17 6 17 14 0 8 3 21 6 30 7 17 -11 22 -21 6z"/>
<path d="M10895 8140 c3 -5 11 -10 16 -10 6 0 7 5 4 10 -3 6 -11 10 -16 10 -6
0 -7 -4 -4 -10z"/>
<path d="M10549 7879 c-3 -19 1 -45 8 -59 12 -23 13 -24 13 -4 0 14 6 21 17
20 24 -2 29 32 6 41 -10 4 -23 13 -29 22 -9 12 -12 8 -15 -20z"/>
<path d="M8312 7713 c-3 -36 -6 -38 -42 -17 -27 16 -32 17 -41 4 -5 -8 -7 -23
-5 -32 2 -10 0 -34 -4 -55 -5 -22 -5 -44 1 -55 11 -21 1 -48 -11 -28 -5 9 -12
9 -26 1 -11 -6 -31 -15 -46 -21 -16 -5 -28 -16 -28 -24 0 -11 -7 -10 -37 5
-43 22 -64 24 -60 7 1 -8 -8 -13 -23 -13 -17 -1 -25 -6 -24 -18 1 -9 -3 -17
-9 -17 -5 0 -2 -9 9 -21 10 -11 14 -20 9 -19 -18 4 -55 -12 -49 -21 3 -5 -2
-9 -10 -9 -27 0 -45 -59 -42 -135 2 -38 4 -73 5 -77 2 -15 64 -40 87 -35 27 5
32 -14 9 -33 -19 -16 -19 -37 0 -48 16 -8 11 -42 -6 -42 -14 0 -11 -30 5 -46
14 -14 46 -10 46 6 0 4 20 14 45 21 33 10 47 20 51 36 3 12 15 25 25 28 10 4
19 13 19 21 0 9 13 29 29 45 16 16 24 29 17 29 -8 0 -12 17 -13 50 -1 49 9 65
21 35 3 -9 19 -21 36 -26 18 -7 30 -18 30 -29 0 -10 11 -25 25 -34 20 -13 25
-14 25 -3 0 18 66 30 90 17 9 -5 26 -6 38 -3 19 4 22 13 22 53 0 58 20 82 48
56 10 -9 21 -13 25 -10 10 10 -20 47 -40 50 -10 2 -19 8 -21 13 -2 6 -10 11
-17 11 -16 0 -39 74 -31 96 3 7 -6 22 -20 33 -21 17 -25 27 -23 60 3 43 -20
81 -51 81 -12 0 -16 10 -17 38 -1 71 -17 127 -21 75z"/>
<path d="M10773 7733 c-7 -2 -13 -11 -13 -18 0 -7 -6 -16 -12 -18 -8 -4 -7 -6
4 -6 9 -1 23 5 31 13 10 10 27 13 57 9 29 -4 41 -3 37 5 -4 5 -16 8 -26 5 -10
-3 -22 0 -25 6 -7 11 -31 13 -53 4z"/>
<path d="M10960 7736 c0 -2 7 -6 15 -10 8 -3 15 -1 15 4 0 6 -7 10 -15 10 -8
0 -15 -2 -15 -4z"/>
<path d="M10910 7720 c0 -5 7 -10 15 -10 8 0 15 5 15 10 0 6 -7 10 -15 10 -8
0 -15 -4 -15 -10z"/>
<path d="M8170 7676 c0 -2 9 -6 20 -9 11 -3 20 -1 20 4 0 5 -9 9 -20 9 -11 0
-20 -2 -20 -4z"/>
<path d="M7862 7463 c13 -3 15 -10 7 -35 -5 -18 -14 -35 -21 -39 -7 -4 -9 -11
-5 -16 5 -4 12 -1 16 6 5 7 14 10 20 7 6 -4 11 -2 11 3 0 15 37 51 44 44 3 -4
6 -3 6 1 0 9 -65 36 -82 35 -7 -1 -6 -3 4 -6z"/>
<path d="M7835 7260 c4 -6 11 -8 16 -5 14 9 11 15 -7 15 -8 0 -12 -5 -9 -10z"/>
<path d="M8564 7245 c-8 -19 2 -45 16 -45 12 0 30 41 23 53 -7 13 -33 8 -39
-8z"/>
<path d="M8658 7202 c-10 -2 -18 -8 -18 -13 0 -5 -7 -9 -15 -9 -21 0 -19 -17
4 -29 15 -9 22 -6 36 15 19 30 17 41 -7 36z"/>
<path d="M8506 7171 c-16 -17 -16 -19 0 -25 10 -4 21 -1 25 5 4 6 12 8 18 5
18 -12 34 4 20 20 -16 19 -43 18 -63 -5z"/>
<path d="M7930 7033 c0 -5 4 -14 9 -21 6 -10 10 -9 14 7 3 14 0 21 -9 21 -8 0
-14 -3 -14 -7z"/>
<path d="M7205 6890 c3 -5 12 -7 20 -3 21 7 19 13 -6 13 -11 0 -18 -4 -14 -10z"/>
<path d="M7240 6830 c6 -11 15 -20 19 -20 5 0 11 9 14 20 4 16 0 20 -19 20
-22 0 -23 -3 -14 -20z"/>
<path d="M7297 6843 c-12 -11 -8 -22 12 -33 21 -11 54 -3 46 11 -3 4 -12 6
-20 2 -9 -3 -15 1 -15 11 0 16 -12 21 -23 9z"/>
<path d="M8116 6756 c3 -9 11 -16 16 -16 13 0 5 23 -10 28 -7 2 -10 -2 -6 -12z"/>
</g>
</svg>
