<?xml version="1.0" standalone="no"?>
<!DOCTYPE svg PUBLIC "-//W3C//DTD SVG 20010904//EN"
 "http://www.w3.org/TR/2001/REC-SVG-20010904/DTD/svg10.dtd">
<svg version="1.0" xmlns="http://www.w3.org/2000/svg"
 width="607.764627pt" height="721.000000pt" viewBox="0 0 607.764627 721.000000"
 preserveAspectRatio="xMidYMid meet">
<metadata>
Created by potrace 1.15, written by Peter Selinger 2001-2017
</metadata>
<g transform="translate(-697.452314,1330.000000) scale(0.100000,-0.100000)"
fill="#222222" stroke="none">
<path d="M7170 13290 c0 -5 5 -10 10 -10 6 0 10 5 10 10 0 6 -4 10 -10 10 -5
0 -10 -4 -10 -10z"/>
<path d="M7168 13249 c-26 -28 -25 -55 4 -88 24 -27 26 -31 11 -39 -12 -7 -15
-20 -11 -56 3 -25 2 -46 -3 -46 -5 0 -9 -11 -9 -25 0 -30 -13 -32 -40 -5 -11
11 -33 20 -50 20 -23 0 -30 5 -30 19 0 20 -27 48 -36 38 -3 -3 -2 -12 2 -19
11 -17 13 -48 3 -42 -12 7 -21 -14 -12 -28 12 -20 11 -91 -1 -107 -7 -9 -7
-16 -1 -18 31 -11 37 -21 25 -42 -6 -12 -8 -31 -5 -41 4 -14 -2 -27 -20 -44
-22 -21 -25 -28 -15 -45 6 -12 10 -29 8 -39 -3 -14 4 -17 42 -14 25 2 53 6 63
9 13 3 20 -2 24 -15 7 -27 52 -47 60 -27 4 12 9 13 18 5 11 -9 12 -7 8 9 -7
28 9 26 45 -4 33 -28 52 -31 70 -13 10 10 15 10 21 -1 7 -10 10 -11 16 0 8 12
-9 30 -50 54 -10 6 -19 20 -20 30 -1 11 -7 30 -13 42 -14 25 -16 63 -3 63 5 0
14 13 21 29 11 26 14 28 32 18 16 -10 22 -9 32 6 7 9 18 17 24 17 6 0 14 6 18
13 4 6 4 9 0 5 -16 -13 -32 16 -28 50 4 27 -1 39 -21 58 -15 13 -30 24 -35 24
-14 0 -52 76 -52 104 0 15 -7 38 -16 51 -9 14 -14 31 -11 38 2 7 -7 26 -22 43
-25 29 -27 30 -43 13z"/>
<path d="M7096 13235 c4 -8 8 -15 10 -15 2 0 4 7 4 15 0 8 -4 15 -10 15 -5 0
-7 -7 -4 -15z"/>
<path d="M9070 12981 c0 -5 5 -13 10 -16 6 -3 10 -2 10 4 0 5 -4 13 -10 16 -5
3 -10 2 -10 -4z"/>
<path d="M8990 12788 c0 -7 11 -13 24 -13 15 0 22 5 19 13 -3 6 -14 12 -24 12
-10 0 -19 -6 -19 -12z"/>
<path d="M8416 12768 c4 -13 7 -29 7 -35 0 -7 11 -13 24 -13 20 0 23 4 18 20
-5 15 -2 20 11 20 13 0 14 3 4 15 -7 8 -26 15 -42 15 -26 0 -29 -3 -22 -22z"/>
<path d="M8957 12734 c-3 -3 -3 -13 0 -21 5 -14 -11 -32 -30 -33 -4 0 -12 10
-18 23 -10 21 -15 23 -55 17 -24 -4 -52 -14 -62 -23 -15 -14 -25 -15 -57 -6
-29 8 -40 8 -43 0 -3 -8 -11 -7 -29 4 -23 16 -25 15 -30 -4 -3 -12 -12 -21
-19 -21 -8 0 -17 -7 -20 -15 -9 -23 -29 -18 -42 11 -7 14 -17 22 -22 19 -6 -4
-23 1 -38 10 l-27 16 28 -25 c27 -25 38 -76 16 -76 -6 0 -4 -7 5 -15 8 -8 22
-12 30 -9 11 4 16 0 16 -11 0 -12 6 -16 20 -12 12 3 31 -4 47 -16 38 -30 87
-46 107 -35 11 6 25 2 45 -13 25 -18 33 -20 46 -9 8 7 15 20 15 29 0 9 20 32
45 51 24 19 44 41 45 48 0 6 9 12 20 12 23 0 24 4 10 31 -9 15 -7 21 5 25 8 3
15 17 15 30 0 23 -10 31 -23 18z"/>
<path d="M9536 12564 c-8 -22 -8 -62 2 -67 4 -3 24 -8 44 -11 33 -5 36 -4 30
12 -7 20 -57 82 -65 82 -3 0 -8 -7 -11 -16z"/>
<path d="M7380 12530 c0 -6 6 -10 14 -10 25 0 62 -39 76 -79 14 -43 37 -53 59
-27 10 11 8 23 -9 55 -11 23 -26 42 -33 42 -38 4 -55 8 -79 18 -18 6 -28 7
-28 1z"/>
<path d="M8615 12480 c3 -5 11 -10 16 -10 6 0 7 5 4 10 -3 6 -11 10 -16 10 -6
0 -7 -4 -4 -10z"/>
<path d="M8665 12470 c10 -11 13 -20 7 -20 -24 0 -11 -36 18 -52 17 -10 39
-35 49 -58 10 -22 26 -46 35 -53 10 -7 18 -27 18 -44 1 -34 25 -53 40 -31 6
10 10 10 18 -2 5 -8 10 -23 10 -33 0 -10 4 -16 9 -13 16 10 21 -23 6 -38 -12
-12 -11 -16 5 -31 11 -10 20 -24 20 -31 0 -7 9 -15 20 -19 18 -6 18 -8 5 -28
-7 -12 -17 -46 -21 -74 -6 -49 -8 -52 -30 -47 -23 6 -24 4 -15 -19 7 -18 6
-28 -3 -36 -9 -8 -11 -26 -5 -65 4 -30 10 -59 13 -65 15 -24 -64 -110 -101
-111 -28 0 -75 21 -86 37 -5 8 -12 11 -18 8 -5 -4 -9 -1 -9 6 0 7 -10 9 -25 7
-24 -5 -40 5 -40 27 0 6 -14 15 -32 20 l-32 11 23 29 c20 25 22 31 9 44 -8 7
-12 22 -10 33 7 26 -40 80 -63 73 -10 -3 -37 1 -61 10 -43 15 -44 14 -66 -9
-19 -23 -24 -24 -53 -13 -25 9 -33 9 -39 -2 -7 -10 -13 -10 -29 -2 -28 15 -31
14 -25 -10 4 -15 0 -22 -16 -26 -11 -3 -18 -9 -16 -14 3 -4 3 -26 -1 -48 -6
-35 -10 -41 -30 -41 -13 0 -33 -9 -43 -19 -14 -14 -22 -16 -30 -8 -8 8 -17 5
-31 -11 -24 -26 -39 -27 -66 -8 -14 11 -16 18 -8 26 20 20 -1 73 -44 116 -23
23 -42 51 -42 63 0 11 -4 21 -9 21 -5 0 -14 13 -21 29 -11 29 -23 33 -47 18
-7 -5 -19 -5 -25 0 -7 4 -31 10 -53 13 -35 4 -40 9 -43 33 -3 25 -1 28 18 22
11 -4 39 -4 60 0 31 5 41 12 46 31 3 13 10 24 15 24 5 0 9 7 9 15 0 8 5 15 11
15 6 0 7 5 2 13 -4 6 -8 22 -8 35 0 13 -6 26 -12 30 -8 5 -7 14 5 30 l17 22
29 -25 c25 -21 31 -23 38 -11 7 13 12 13 38 0 16 -9 44 -16 62 -16 18 0 40 -4
50 -9 11 -6 18 -4 22 6 4 11 11 13 31 5 23 -9 26 -6 38 23 8 17 10 34 5 35 -4
2 -6 7 -3 12 3 4 -2 13 -10 20 -8 7 -15 18 -15 26 0 29 -37 35 -110 18 -66
-15 -73 -15 -90 1 -15 13 -22 14 -40 5 -27 -14 -53 4 -45 31 4 11 3 29 -1 41
-6 20 -7 21 -20 4 -7 -10 -17 -15 -23 -12 -6 4 -21 1 -33 -6 -13 -7 -29 -11
-36 -10 -7 2 -22 -8 -33 -22 -11 -14 -26 -26 -33 -26 -7 0 -27 -7 -44 -15 -29
-15 -32 -15 -52 5 -11 11 -25 20 -31 20 -5 0 -8 4 -4 9 3 5 0 13 -6 17 -9 5
-10 -1 -6 -23 4 -19 1 -38 -9 -51 -12 -17 -12 -26 -3 -43 6 -12 7 -24 3 -28
-5 -3 -10 -19 -12 -36 -2 -26 4 -34 45 -60 27 -16 54 -29 60 -29 7 1 15 -15
18 -35 3 -20 10 -55 16 -78 12 -54 12 -53 -8 -54 -15 0 -14 -3 5 -16 25 -18
29 -51 7 -59 -21 -9 -8 -24 21 -24 17 0 24 -5 24 -20 0 -11 -4 -20 -10 -20 -5
0 -10 -6 -10 -13 0 -8 -18 -20 -40 -27 -22 -7 -40 -17 -40 -21 0 -4 -3 -14 -6
-23 -4 -10 -1 -16 7 -16 7 0 20 -6 28 -13 27 -22 119 -41 135 -28 10 8 16 9
21 1 11 -17 37 -11 42 11 5 17 11 20 32 14 14 -4 43 -9 64 -12 22 -3 37 -11
37 -18 0 -14 37 -45 52 -45 5 0 8 11 8 25 0 29 5 30 40 10 14 -8 37 -14 51
-15 27 0 57 -25 45 -37 -8 -8 33 -53 49 -53 7 0 24 -9 38 -20 l25 -20 12 30
c10 23 16 28 25 20 7 -6 25 -8 41 -4 19 5 25 4 20 -4 -4 -8 -2 -10 7 -6 8 3
31 -1 50 -10 23 -9 37 -11 39 -4 5 13 68 1 68 -13 0 -5 9 -9 20 -9 11 0 20 5
20 12 0 9 3 9 12 0 7 -7 20 -12 30 -12 11 0 18 -7 18 -20 0 -20 12 -25 62 -21
14 1 43 -5 63 -13 45 -19 59 -13 51 26 l-6 29 29 -20 c16 -12 37 -21 46 -21 9
0 30 -8 46 -17 24 -14 33 -15 47 -6 9 7 35 21 58 31 60 28 84 52 84 84 0 18 5
28 15 28 8 0 15 9 15 20 0 17 7 20 40 20 77 0 140 -47 140 -105 0 -8 6 -15 14
-15 8 0 17 -7 20 -16 4 -11 13 -14 30 -10 18 4 25 0 34 -18 9 -20 7 -27 -8
-41 -11 -10 -24 -33 -30 -51 -7 -19 -16 -32 -21 -29 -5 4 -9 -5 -9 -20 0 -14
-9 -51 -20 -83 -11 -32 -18 -68 -15 -83 4 -18 -1 -33 -19 -52 -19 -20 -21 -28
-12 -36 15 -13 9 -71 -8 -65 -7 3 -12 -12 -13 -41 -1 -25 2 -45 6 -45 15 0 39
-56 31 -71 -6 -11 2 -26 28 -53 31 -33 36 -46 37 -86 0 -26 6 -54 14 -63 7 -9
11 -28 8 -42 -3 -18 1 -29 14 -36 10 -5 18 -13 17 -17 -1 -4 6 -19 15 -34 15
-21 16 -31 7 -48 -9 -16 -8 -25 1 -36 6 -8 9 -17 6 -20 -3 -3 5 -26 18 -50 13
-25 22 -51 19 -59 -10 -25 -34 -25 -50 0 -18 27 -49 32 -76 12 -11 -9 -14 -18
-7 -28 7 -10 0 -22 -27 -45 l-35 -30 32 -32 c18 -18 39 -32 46 -32 7 0 13 -5
13 -12 0 -6 6 -19 14 -27 11 -13 36 -137 36 -182 0 -5 10 -9 22 -9 12 0 30 -7
40 -16 17 -16 17 -18 -3 -35 -20 -17 -20 -20 -6 -41 22 -34 56 -68 67 -68 6 0
10 -8 10 -19 0 -10 7 -24 15 -31 9 -7 15 -29 15 -51 0 -22 5 -39 10 -39 6 0
19 -9 31 -21 14 -14 24 -18 31 -11 20 20 158 -82 158 -117 0 -5 15 -15 34 -22
23 -8 37 -22 45 -44 6 -18 20 -40 31 -50 11 -10 20 -23 20 -30 0 -7 9 -20 20
-30 11 -10 20 -24 20 -31 0 -7 12 -26 26 -43 14 -17 21 -31 16 -31 -5 0 -12
-10 -15 -22 -2 -13 -8 -31 -12 -40 -5 -13 -1 -19 19 -24 18 -4 26 -13 26 -27
0 -16 3 -18 12 -9 18 18 28 15 28 -9 0 -11 10 -29 22 -39 l22 -17 -28 -26
c-28 -26 -28 -26 -8 -47 12 -13 18 -29 15 -41 -3 -11 -1 -19 4 -17 6 2 26 -15
44 -37 39 -45 56 -52 73 -32 16 21 66 27 126 18 34 -5 63 -4 81 2 23 9 39 8
76 -7 27 -9 56 -19 67 -21 28 -6 29 -10 11 -44 -13 -26 -19 -30 -35 -21 -35
19 -40 12 -40 -55 0 -62 -1 -65 -30 -80 -23 -12 -30 -22 -30 -45 0 -20 5 -30
15 -30 8 0 15 -7 15 -16 0 -13 -7 -15 -29 -11 -31 6 -51 -7 -51 -35 0 -9 -8
-22 -17 -27 -16 -9 -16 -10 4 -11 12 0 36 -14 54 -31 17 -17 37 -28 44 -25 10
3 15 -6 17 -32 2 -29 8 -37 28 -42 17 -4 26 -14 28 -30 2 -14 11 -33 19 -42
19 -21 8 -45 -13 -28 -28 24 -37 4 -9 -22 23 -22 31 -24 46 -15 12 8 15 15 9
21 -14 14 -12 26 3 20 8 -3 20 2 27 11 11 13 10 18 -7 30 -13 9 -19 22 -16 33
2 10 -2 24 -10 31 -9 7 -13 21 -9 34 5 22 38 57 53 57 4 0 11 16 15 36 4 23
10 32 16 26 16 -16 38 -2 38 23 0 13 6 26 13 28 8 4 7 6 -4 6 -8 1 -20 -4 -25
-9 -16 -16 -41 10 -57 60 -8 25 -14 46 -12 48 2 2 13 -2 26 -8 21 -12 22 -11
15 20 -3 19 -1 38 5 46 8 10 8 22 0 45 -6 18 -9 34 -7 37 10 10 56 -9 56 -23
0 -8 17 -22 38 -30 86 -37 203 -127 256 -201 15 -19 80 -8 72 12 -10 25 27 15
51 -13 16 -20 22 -23 23 -12 0 19 33 59 47 59 6 0 8 10 6 23 -4 21 -1 22 59
22 62 0 88 -7 88 -26 0 -5 -9 -9 -20 -9 -11 0 -20 -4 -20 -10 0 -5 7 -10 15
-10 15 0 19 -11 16 -38 -2 -10 2 -11 18 -2 18 9 25 7 47 -15 14 -14 23 -29 20
-34 -3 -5 1 -12 10 -15 21 -8 21 -8 27 14 6 25 58 28 77 5 7 -9 20 -13 28 -10
20 8 37 -5 21 -17 -9 -6 1 -8 31 -6 50 3 84 29 75 57 -3 11 4 28 20 45 14 15
25 33 25 40 0 8 7 19 15 26 8 7 15 25 15 40 0 16 -7 30 -15 34 -8 3 -15 16
-15 28 0 18 2 20 9 9 10 -16 60 -25 105 -19 17 2 39 45 31 59 -4 5 2 9 13 9
15 0 18 -6 14 -28 -4 -29 15 -53 76 -100 28 -20 30 -25 21 -54 -9 -31 0 -47
25 -48 5 0 17 -7 27 -16 15 -13 16 -20 7 -40 -7 -14 -17 -23 -25 -20 -18 7
-33 -24 -23 -50 7 -18 5 -23 -16 -28 -13 -4 -24 -12 -24 -19 0 -8 -26 -22 -57
-33 -49 -16 -58 -23 -61 -46 -2 -19 -11 -28 -30 -33 -25 -6 -25 -8 -9 -19 9
-7 17 -21 17 -31 0 -30 34 -94 53 -100 9 -4 17 -13 17 -21 0 -8 6 -14 13 -12
8 2 28 -12 47 -30 21 -21 36 -30 42 -24 7 7 25 3 52 -9 22 -10 52 -19 65 -19
14 0 33 -8 43 -17 12 -11 36 -18 61 -18 23 0 47 -3 53 -7 6 -4 14 -4 18 -1 10
10 -95 102 -110 96 -9 -3 -14 2 -14 12 0 9 -4 14 -9 11 -5 -3 -14 1 -21 9 -7
8 -16 13 -20 10 -9 -6 -23 25 -15 34 3 3 14 0 23 -7 33 -24 46 -25 74 -9 23
13 34 14 49 6 25 -13 57 7 39 25 -17 17 -12 24 18 28 19 2 28 9 30 25 5 32 28
49 47 33 8 -7 13 -16 10 -20 -3 -5 -2 -16 2 -25 5 -15 8 -15 24 6 10 13 19 34
19 47 0 13 6 22 16 22 8 0 12 5 9 10 -3 6 3 10 15 10 12 0 18 5 15 10 -3 6 5
10 19 10 13 0 26 6 29 13 5 15 47 -19 47 -39 0 -11 75 -54 95 -54 3 0 10 11
15 25 7 19 17 25 39 25 16 0 31 -6 34 -12 7 -22 19 -1 20 35 1 27 4 33 18 30
19 -5 89 59 89 82 0 8 7 15 15 15 9 0 12 6 8 16 -5 13 -2 15 17 9 24 -7 24 -7
8 17 -16 24 -16 28 4 67 16 34 18 44 8 56 -21 25 -5 27 24 4 43 -34 53 -9 12
28 -25 23 -42 31 -66 29 -20 -1 -34 3 -37 11 -3 8 -12 12 -20 9 -8 -3 -11 -1
-8 4 13 21 -47 22 -96 1 -52 -23 -92 -21 -82 5 3 7 0 14 -6 14 -26 0 -55 70
-54 132 1 43 -16 53 -70 43 -21 -4 -37 -3 -41 4 -13 21 -111 59 -155 60 -31 1
-52 8 -67 22 -13 12 -29 19 -37 16 -15 -5 -37 10 -37 25 0 4 10 8 22 8 20 0
18 3 -14 33 -48 44 -78 57 -100 44 -13 -9 -21 -7 -36 6 -18 17 -20 17 -26 1
-5 -13 -14 -15 -46 -10 -45 7 -90 26 -90 37 0 4 -12 26 -27 48 -17 27 -34 41
-48 41 -11 0 -26 5 -33 12 -9 9 -19 7 -42 -10 -34 -26 -53 -28 -70 -7 -8 9
-30 15 -59 15 -45 0 -134 34 -171 66 -9 7 -24 13 -35 13 -11 0 -35 3 -52 7
-25 5 -34 2 -39 -10 -3 -9 -10 -13 -15 -11 -5 3 -21 -1 -36 -9 -24 -12 -31
-12 -47 -1 -10 8 -24 11 -32 8 -8 -3 -14 0 -14 6 0 6 6 11 13 11 7 0 8 3 2 8
-15 10 -47 62 -39 62 4 0 -5 9 -20 21 -17 14 -33 18 -44 13 -9 -4 -23 -8 -31
-8 -7 -1 -17 -11 -22 -23 -7 -19 -1 -27 34 -53 23 -17 43 -26 45 -20 2 5 14
10 26 10 19 0 22 -5 20 -32 -1 -18 2 -41 8 -52 9 -17 8 -18 -23 -12 l-33 6 29
-31 c17 -18 23 -28 15 -24 -13 8 -13 6 -2 -8 8 -9 11 -21 7 -27 -7 -11 -54 32
-74 68 -6 12 -20 22 -31 22 -33 0 -68 118 -40 135 6 4 8 11 5 16 -8 12 -45 12
-45 -1 0 -5 -4 -10 -10 -10 -5 0 -10 8 -10 18 0 10 -17 35 -38 55 -36 35 -61
49 -46 26 4 -8 0 -8 -15 0 -11 7 -21 20 -21 30 0 30 -21 40 -67 32 -32 -6 -43
-5 -47 5 -3 8 -1 14 5 14 5 0 2 11 -6 24 -25 38 -14 91 28 134 39 40 37 67 -5
67 -17 0 -24 7 -28 28 -3 17 -16 35 -30 42 l-25 14 30 1 c17 0 41 7 55 15 14
8 33 18 43 21 14 5 18 14 15 35 -3 16 0 31 6 34 10 4 -54 -2 -87 -9 -27 -6
-47 -19 -41 -27 5 -9 -83 -3 -113 6 -7 3 -13 -2 -13 -9 0 -11 -6 -11 -33 -2
-18 6 -45 19 -60 29 -15 10 -38 22 -52 27 -14 5 -28 17 -32 26 -3 10 -23 33
-44 51 -27 25 -37 41 -35 56 3 12 5 33 5 46 l1 25 22 -24 22 -23 23 27 c13 15
28 24 33 21 6 -4 22 1 36 10 14 9 28 14 31 11 14 -14 43 44 41 83 -1 23 1 43
4 46 3 3 18 -1 34 -10 17 -9 30 -11 32 -5 2 6 9 10 16 10 18 0 56 43 56 63 0
19 35 41 53 32 6 -4 3 1 -7 9 -11 9 -25 16 -32 16 -7 0 -21 11 -32 25 -24 30
-32 31 -32 4 0 -12 -4 -17 -11 -13 -6 3 -9 14 -6 24 6 23 -20 34 -31 14 -7
-12 -10 -13 -19 -2 -14 18 -22 68 -11 68 5 0 0 12 -11 26 -25 32 -26 44 -6 44
8 0 15 5 15 11 0 6 9 8 23 4 l22 -7 -22 21 c-33 31 -30 53 5 45 15 -4 29 -7
32 -6 29 0 27 6 -14 33 -25 17 -51 40 -57 50 -11 22 3 26 19 6 18 -21 88 -21
110 1 10 10 16 24 14 32 -3 8 7 5 25 -8 17 -12 33 -19 37 -15 12 12 6 42 -11
53 -12 7 -14 13 -6 16 7 3 1 15 -15 31 l-26 26 21 10 c17 7 21 16 18 39 -2 17
0 41 5 54 13 32 3 53 -21 47 -10 -3 -16 -9 -13 -14 10 -16 0 -13 -74 24 -19 9
-47 17 -62 17 -18 0 -34 8 -44 21 -8 12 -25 27 -38 33 -13 6 -29 25 -37 41 -7
17 -21 39 -30 50 -28 33 -38 68 -30 100 10 33 -8 55 -42 55 -10 0 -30 17 -45
38 -67 91 -97 111 -107 71 -3 -12 -10 -18 -15 -15 -6 3 -12 2 -14 -4 -2 -6 -8
6 -14 25 -10 33 -10 36 12 41 19 5 24 13 24 39 0 42 -21 61 -51 45 -27 -15
-51 5 -43 35 6 23 49 46 70 38 8 -3 14 0 14 6 0 6 9 11 19 11 11 0 28 13 38
30 16 29 19 29 31 13 11 -15 14 -16 22 -3 8 12 15 9 42 -16 18 -18 39 -29 45
-27 7 3 15 -2 18 -10 8 -19 54 -10 78 15 18 18 50 20 74 5 7 -4 15 -30 19 -58
4 -32 13 -53 24 -59 24 -13 34 -51 11 -43 -13 5 -14 3 -4 -7 10 -11 8 -16 -9
-24 -25 -13 -36 -36 -17 -36 7 0 22 -9 33 -19 24 -23 78 -19 69 5 -4 10 4 14
29 14 38 0 63 29 52 62 -5 18 -3 20 20 16 26 -5 35 5 16 17 -5 3 -10 11 -10
16 0 6 5 7 10 4 6 -4 10 7 10 24 0 21 -5 31 -16 31 -8 0 -22 17 -30 38 -8 20
-19 45 -24 54 -5 10 -7 24 -4 33 10 26 -17 67 -39 61 -13 -3 -21 1 -24 15 -8
30 -23 22 -23 -12 0 -27 -2 -30 -15 -19 -10 9 -15 9 -15 1 0 -6 -16 -11 -36
-11 -31 0 -35 2 -24 15 9 11 8 19 -4 37 -13 18 -16 19 -16 5 0 -19 -15 -23
-25 -7 -10 17 -38 12 -31 -6 3 -8 2 -12 -3 -9 -5 3 -12 1 -16 -5 -3 -5 -1 -10
4 -10 6 0 11 -7 11 -15 0 -8 5 -15 10 -15 6 0 10 -8 9 -17 0 -15 -3 -14 -16 5
-16 22 -61 33 -47 10 5 -8 2 -9 -10 -5 -10 4 -22 7 -28 7 -7 0 -9 17 -6 45 4
31 1 48 -8 56 -8 6 -11 16 -8 21 11 18 -6 58 -25 58 -26 0 -30 8 -20 43 11 39
8 42 -20 16 -12 -12 -24 -19 -27 -17 -2 3 -6 27 -7 54 -2 27 -7 56 -12 64 -8
13 -6 13 10 0 17 -14 18 -13 12 12 -6 24 -5 26 19 19 14 -3 33 -19 42 -33 15
-25 15 -28 -3 -47 -10 -12 -13 -21 -7 -21 7 0 21 -9 32 -20 18 -18 23 -19 35
-7 8 8 11 17 8 21 -4 3 -1 6 5 6 7 0 12 -4 12 -10 0 -5 8 -10 18 -10 12 0 13
3 5 8 -9 6 -4 13 17 25 21 13 31 28 36 55 8 39 18 54 48 65 16 6 16 10 5 24
-9 11 -10 14 -2 9 16 -9 55 12 50 27 -2 6 -14 14 -27 17 -14 3 -27 15 -30 27
-9 34 -63 73 -103 73 -20 0 -39 5 -42 10 -8 13 -57 1 -71 -18 -12 -17 -74 -24
-74 -9 0 5 -6 4 -14 -2 -7 -6 -24 -11 -37 -10 -13 0 -34 -2 -47 -5 -13 -3 -20
-1 -17 5 4 5 -5 9 -18 9 -28 0 -45 37 -21 47 15 5 19 41 6 59 -10 15 -42 25
-42 14 0 -5 -20 -8 -45 -6 -25 2 -45 -1 -45 -7 0 -6 -4 -6 -12 0 -7 6 -28 15
-45 21 -30 10 -33 9 -33 -10 0 -17 -2 -18 -15 -8 -12 10 -19 10 -27 2 -19 -19
-49 -14 -55 8 -7 27 -39 26 -46 -1 -4 -16 -10 -20 -24 -14 -10 4 -26 7 -35 7
-10 0 -20 3 -23 9 -11 16 -24 10 -27 -13 -2 -18 -9 -22 -28 -20 -15 2 -41 -8
-62 -22 -42 -28 -84 -44 -74 -27 4 6 -5 13 -21 17 -20 5 -30 3 -37 -11 -20
-33 -71 -82 -92 -89 -16 -5 -20 -12 -16 -31 4 -22 1 -25 -27 -25 -36 0 -76 22
-106 58 -15 17 -32 24 -62 25 -37 2 -43 5 -48 29 -4 15 -12 31 -18 36 -17 13
-72 24 -137 26 -37 2 -70 11 -98 27 -40 22 -44 23 -53 7 -15 -26 -24 -22 -48
17 -16 28 -26 35 -52 35 -31 0 -32 0 -14 -20z m-905 -291 c0 -6 -4 -7 -10 -4
-5 3 -10 11 -10 16 0 6 5 7 10 4 6 -3 10 -11 10 -16z m1653 7 c4 -10 1 -13 -9
-9 -15 6 -19 23 -5 23 5 0 11 -7 14 -14z m-89 -22 c4 -11 14 -14 35 -9 30 6
29 8 22 -52 -1 -7 -14 -9 -40 -6 -44 6 -62 -10 -31 -27 27 -14 17 -30 -13 -21
-62 20 -107 47 -107 64 0 14 4 16 16 9 25 -14 53 -3 47 17 -8 30 60 54 71 25z
m-186 -59 c-3 -13 0 -26 6 -29 6 -2 3 -5 -6 -5 -17 -1 -38 26 -38 48 0 6 10
11 21 11 17 0 20 -5 17 -25z m237 -85 c3 -5 1 -10 -4 -10 -6 0 -11 5 -11 10 0
6 2 10 4 10 3 0 8 -4 11 -10z m-1448 -336 c-3 -3 -12 -4 -19 -1 -8 3 -5 6 6 6
11 1 17 -2 13 -5z m2101 -17 c8 -10 5 -12 -16 -11 -38 3 -39 3 -22 14 20 13
26 12 38 -3z m62 -37 c6 -11 7 -20 2 -20 -5 0 -17 9 -27 20 -16 18 -16 20 -2
20 9 0 21 -9 27 -20z m-610 -10 c0 -5 -2 -10 -4 -10 -3 0 -8 5 -11 10 -3 6 -1
10 4 10 6 0 11 -4 11 -10z m580 -30 c0 -5 -7 -7 -15 -4 -8 4 -15 8 -15 10 0 2
7 4 15 4 8 0 15 -4 15 -10z m-132 -432 c13 -25 33 -49 45 -53 20 -6 18 -8 -12
-15 -18 -4 -37 -13 -41 -19 -5 -8 -19 -6 -51 8 -24 11 -38 20 -30 20 9 1 12 9
9 26 -3 14 1 30 8 36 8 6 14 20 14 31 0 34 32 16 58 -34z m452 -408 c0 -5 -2
-10 -4 -10 -3 0 -8 5 -11 10 -3 6 -1 10 4 10 6 0 11 -4 11 -10z m270 -367 c0
-8 -4 -11 -10 -8 -5 3 -10 1 -10 -5 0 -8 -6 -8 -20 0 -23 12 -27 35 -5 26 8
-3 15 -1 15 4 0 5 7 7 15 4 8 -4 15 -13 15 -21z m-790 -679 c0 -8 -5 -12 -10
-9 -6 4 -8 11 -5 16 9 14 15 11 15 -7z m0 -33 c0 -12 -26 -32 -33 -25 -9 10 4
34 19 34 8 0 14 -4 14 -9z m434 -112 c-8 -14 -24 -10 -24 6 0 9 6 12 15 9 8
-4 12 -10 9 -15z m766 -356 c0 -5 -4 -13 -8 -19 -9 -15 -56 1 -47 16 7 12 55
14 55 3z m-197 -144 c40 -11 43 -16 25 -54 -7 -16 -17 -24 -26 -20 -10 4 -13
-3 -10 -24 4 -40 -51 -88 -82 -71 -16 9 -25 8 -35 0 -8 -7 -19 -9 -25 -5 -13
8 -13 -21 0 -46 10 -17 7 -19 -25 -19 -20 0 -36 5 -37 13 -6 55 -31 147 -40
147 -4 0 -8 -5 -8 -12 0 -6 -3 -9 -6 -6 -3 4 0 16 6 28 9 18 14 20 20 9 5 -7
27 -14 49 -14 33 -1 46 5 72 33 17 18 37 31 45 28 7 -3 15 2 18 10 6 17 10 17
59 3z m-462 -61 c6 -11 4 -18 -6 -22 -8 -3 -15 -1 -15 3 0 5 -18 4 -40 -1 -35
-9 -40 -13 -34 -32 6 -18 5 -19 -10 -7 -20 17 -21 50 -1 57 8 4 12 10 9 15 -3
5 2 9 10 9 9 0 16 5 16 11 0 6 7 9 15 5 8 -3 15 0 15 7 1 12 23 -13 41 -45z
m44 -38 c3 -5 2 -10 -4 -10 -5 0 -13 5 -16 10 -3 6 -2 10 4 10 5 0 13 -4 16
-10z m685 -110 c0 -5 -2 -10 -4 -10 -3 0 -8 5 -11 10 -3 6 -1 10 4 10 6 0 11
-4 11 -10z m260 -341 c0 -5 -4 -9 -10 -9 -5 0 -10 7 -10 16 0 8 5 12 10 9 6
-3 10 -10 10 -16z m1350 -239 c0 -5 -2 -10 -4 -10 -3 0 -8 5 -11 10 -3 6 -1
10 4 10 6 0 11 -4 11 -10z m55 -10 c-3 -5 -10 -10 -16 -10 -5 0 -9 5 -9 10 0
6 7 10 16 10 8 0 12 -4 9 -10z"/>
<path d="M9550 12455 c0 -19 17 -28 35 -17 13 7 12 10 -10 20 -20 9 -25 9 -25
-3z"/>
<path d="M9526 12424 c-4 -14 -5 -28 -3 -31 3 -2 8 8 11 23 4 14 5 28 3 31 -3
2 -8 -8 -11 -23z"/>
<path d="M8340 12291 c0 -5 7 -11 15 -15 8 -3 15 -1 15 3 0 5 -7 11 -15 15 -8
3 -15 1 -15 -3z"/>
<path d="M8381 12266 c-10 -12 -8 -13 9 -9 25 7 37 23 17 23 -8 0 -20 -6 -26
-14z"/>
<path d="M8242 12240 c-7 -11 -21 -20 -31 -20 -34 0 -51 -12 -51 -35 0 -13 -4
-26 -10 -30 -10 -6 5 -49 29 -78 10 -13 12 -23 4 -40 -13 -30 10 -89 32 -81 9
4 23 0 33 -9 28 -25 57 -7 57 37 0 21 -5 36 -12 36 -11 0 -33 30 -33 44 0 3
10 6 23 6 17 0 28 11 45 46 23 47 22 67 -3 57 -24 -8 -17 12 9 33 28 21 24 38
-8 30 -11 -2 -30 2 -40 10 -26 18 -29 18 -44 -6z"/>
<path d="M10682 12244 c-7 -8 -8 -14 -3 -14 10 0 25 19 20 25 -2 1 -10 -3 -17
-11z"/>
<path d="M10640 12206 c0 -9 -8 -16 -20 -16 -13 0 -18 -5 -14 -15 6 -14 10
-13 34 2 32 20 38 37 16 41 -9 2 -16 -3 -16 -12z"/>
<path d="M7840 12082 c0 -6 -2 -17 -5 -24 -4 -9 4 -19 20 -26 22 -10 25 -9 25
7 0 10 -9 26 -20 36 -11 10 -20 13 -20 7z"/>
<path d="M7900 11992 c6 -13 14 -21 18 -18 3 4 -2 14 -12 24 -18 16 -18 16 -6
-6z"/>
<path d="M10489 11969 c-10 -6 -7 -9 14 -9 29 0 35 5 14 13 -8 3 -20 1 -28 -4z"/>
<path d="M10714 11879 c-10 -17 18 -40 45 -37 17 2 27 10 29 24 2 17 -3 20
-33 21 -19 1 -38 -3 -41 -8z"/>
<path d="M7950 11866 c0 -17 16 -30 23 -19 3 5 -1 14 -9 21 -12 10 -14 10 -14
-2z"/>
<path d="M7960 11823 c0 -1 9 -7 20 -13 16 -8 20 -8 20 4 0 9 -8 14 -20 13
-11 -1 -20 -2 -20 -4z"/>
<path d="M10435 11810 c3 -5 11 -10 16 -10 6 0 7 5 4 10 -3 6 -11 10 -16 10
-6 0 -7 -4 -4 -10z"/>
<path d="M7551 11704 c0 -11 3 -14 6 -6 3 7 2 16 -1 19 -3 4 -6 -2 -5 -13z"/>
<path d="M8228 11483 c-21 -5 -24 -33 -4 -33 7 0 16 9 19 20 3 11 4 19 4 19
-1 -1 -10 -3 -19 -6z"/>
<path d="M8245 11420 c-8 -13 4 -50 16 -50 5 0 12 7 15 15 7 18 -22 50 -31 35z"/>
<path d="M11200 10570 c0 -6 -11 -16 -25 -22 -18 -8 -25 -19 -25 -39 0 -19 -6
-30 -20 -34 -14 -4 -20 -15 -20 -36 0 -17 -6 -32 -15 -35 -34 -13 -7 -74 32
-74 11 0 24 -5 31 -12 9 -9 12 -8 12 5 0 9 6 17 14 17 11 0 15 -13 14 -52 -1
-52 6 -106 16 -115 9 -10 -22 -33 -37 -27 -10 3 -17 -4 -21 -22 -6 -23 -11
-26 -36 -20 -17 3 -30 1 -30 -4 0 -5 -7 -7 -15 -4 -19 7 -19 -3 -2 -21 9 -9
19 -10 30 -3 14 7 17 4 17 -17 0 -14 -4 -25 -10 -25 -5 0 -10 -6 -10 -14 0
-22 73 -25 112 -4 18 10 44 18 59 18 14 0 44 13 67 30 36 25 45 28 74 19 23
-6 42 -6 63 3 56 22 57 27 14 68 -36 34 -40 42 -38 81 1 24 -2 53 -7 64 -6 11
-10 39 -9 62 1 23 -2 40 -6 38 -4 -3 -12 9 -18 25 -10 30 -25 37 -50 21 -17
-11 -51 21 -51 49 0 11 -4 20 -9 20 -5 0 -26 16 -47 35 -37 36 -54 43 -54 25z
m25 -20 c3 -5 1 -10 -4 -10 -6 0 -11 5 -11 10 0 6 2 10 4 10 3 0 8 -4 11 -10z"/>
<path d="M10646 10555 c4 -8 8 -15 10 -15 2 0 4 7 4 15 0 8 -4 15 -10 15 -5 0
-7 -7 -4 -15z"/>
<path d="M10624 10515 c-3 -8 4 -27 17 -42 15 -19 19 -21 14 -8 -5 11 -9 30
-9 43 -1 25 -14 29 -22 7z"/>
<path d="M11725 10228 c-7 -17 -18 -22 -38 -21 -18 1 -27 -3 -27 -13 0 -8 -9
-14 -20 -14 -11 0 -20 -5 -20 -11 0 -8 -13 -9 -41 -5 -40 6 -40 6 -37 -21 2
-22 8 -28 25 -26 28 3 49 -28 52 -77 1 -13 8 -20 21 -20 11 0 20 -6 20 -13 0
-18 56 -58 72 -52 7 3 37 -16 66 -41 38 -33 61 -46 85 -47 25 -1 33 -6 34 -21
3 -23 10 -77 12 -88 2 -12 36 -9 49 4 10 9 16 8 29 -5 13 -13 15 -20 5 -29
-23 -23 -13 -58 28 -99 22 -22 40 -50 41 -62 0 -12 3 -16 6 -9 9 22 34 13 47
-19 11 -27 14 -28 26 -14 8 10 23 15 37 12 18 -3 25 1 29 19 7 27 16 29 46 13
12 -7 24 -7 29 -2 16 16 -2 44 -32 50 -16 3 -29 11 -29 17 0 26 -25 66 -39 61
-8 -3 -22 2 -32 11 -14 12 -19 13 -19 4 0 -10 -4 -9 -17 2 -10 8 -29 18 -43
22 -39 10 -69 38 -74 71 -7 45 -17 75 -27 75 -5 0 -9 14 -9 31 0 19 -10 43
-25 61 -14 16 -25 37 -25 46 0 9 -16 30 -36 45 -19 16 -34 34 -32 40 2 7 -26
43 -62 80 -63 65 -65 67 -75 45z m461 -654 c-3 -8 -10 -13 -16 -9 -6 4 -5 13
3 26 13 21 23 8 13 -17z"/>
<path d="M11029 10013 c-8 -2 -21 -19 -27 -37 -7 -20 -22 -37 -35 -40 -21 -7
-20 -8 11 -23 32 -17 33 -16 60 10 23 23 25 29 12 37 -13 8 -13 10 1 10 18 0
33 26 23 41 -5 9 -17 10 -45 2z"/>
<path d="M10886 9945 c-4 -11 2 -15 19 -15 30 0 32 6 6 19 -14 8 -20 7 -25 -4z"/>
<path d="M11150 9210 c0 -7 -7 -10 -15 -6 -9 3 -15 0 -15 -9 0 -8 4 -15 9 -15
5 0 16 -3 25 -6 11 -4 16 0 16 14 0 12 -4 24 -10 27 -5 3 -10 1 -10 -5z"/>
<path d="M10110 8810 c0 -5 -7 -10 -15 -10 -8 0 -15 -7 -15 -15 0 -8 -11 -17
-25 -21 -27 -7 -67 -66 -59 -88 6 -15 54 -10 54 6 0 5 -4 7 -9 4 -4 -3 -6 6
-3 19 2 14 10 25 18 25 7 0 18 9 24 20 6 11 17 20 25 20 9 0 15 10 15 25 0 14
-2 25 -5 25 -3 0 -5 -4 -5 -10z"/>
<path d="M10400 8514 c0 -8 5 -12 10 -9 6 3 10 10 10 16 0 5 -4 9 -10 9 -5 0
-10 -7 -10 -16z"/>
<path d="M11390 8458 c0 -9 5 -20 10 -23 13 -8 13 5 0 25 -8 13 -10 13 -10 -2z"/>
<path d="M11105 8425 c-22 -14 -50 -25 -62 -25 -14 0 -23 -6 -23 -16 0 -9 -13
-28 -29 -43 -24 -22 -33 -25 -53 -18 -12 5 -40 11 -60 12 -32 2 -38 0 -38 -16
0 -17 -6 -19 -42 -17 -66 3 -108 -10 -108 -34 0 -16 -5 -19 -21 -15 -16 4 -19
3 -11 -5 6 -6 8 -25 5 -44 -3 -18 -2 -41 1 -51 4 -10 7 -20 6 -22 -1 -2 4 -7
11 -11 17 -11 -3 -57 -42 -101 -16 -18 -29 -35 -30 -38 0 -3 -1 -26 -2 -51 -1
-32 -10 -56 -30 -81 -32 -42 -37 -90 -9 -82 32 8 98 67 94 84 -2 10 6 19 19
22 15 4 20 11 17 25 -5 17 1 21 35 25 42 6 87 -6 87 -23 0 -5 7 -10 15 -10 8
0 15 7 15 16 0 9 4 14 8 12 10 -4 112 -116 112 -123 0 -3 -5 -14 -12 -24 -9
-15 -7 -29 11 -72 13 -30 34 -65 47 -79 17 -18 20 -29 14 -40 -16 -24 -11 -31
11 -19 12 6 32 9 45 6 14 -2 27 0 30 4 11 19 23 6 59 -66 40 -78 60 -93 108
-82 22 6 61 -15 63 -33 1 -6 2 -14 3 -19 0 -5 16 -8 34 -6 24 2 33 8 35 24 2
11 7 21 11 21 7 0 5 -116 -3 -137 -3 -7 -3 -27 1 -44 l6 -30 33 32 c19 18 34
41 34 51 0 10 7 18 15 18 12 0 13 5 4 26 -7 21 -6 31 7 45 10 11 24 19 32 19
9 0 13 7 9 20 -3 11 -1 20 4 20 5 0 9 11 9 24 0 13 5 26 11 28 14 5 -6 58 -22
58 -16 0 -59 48 -59 66 0 8 4 13 8 10 5 -3 15 6 23 20 7 14 32 34 56 45 32 15
43 25 43 42 0 21 -29 73 -30 53 0 -4 -12 0 -27 9 -14 10 -39 19 -55 20 -16 1
-42 15 -58 30 -17 16 -30 24 -30 18 0 -8 -10 -6 -30 3 -37 19 -39 27 -43 167
-1 55 -5 68 -19 73 -10 3 -23 14 -28 25 -8 13 -21 19 -45 19 -19 0 -35 3 -35
6 0 10 26 31 48 38 15 5 22 15 22 31 0 13 5 27 10 30 6 3 8 18 4 33 -5 23 -4
25 8 11 18 -22 56 -30 83 -17 19 9 29 6 55 -12 31 -22 32 -22 45 -2 8 11 26
23 40 26 25 7 34 30 14 41 -6 4 -13 -2 -16 -14 -3 -12 -10 -21 -17 -21 -6 0
-21 -3 -33 -6 -19 -5 -25 0 -40 34 -15 36 -22 41 -53 44 -25 2 -38 9 -45 26
-5 12 -15 22 -22 22 -6 0 -18 3 -27 6 -11 4 -16 1 -16 -10 0 -21 -58 -22 -66
-1 -4 8 -14 15 -24 15 -10 0 -23 7 -30 15 -17 20 -28 19 -75 -10z m-48 -256
c8 -8 17 -8 30 -1 12 7 25 7 34 1 7 -5 33 -9 56 -9 47 0 65 -17 38 -36 -15
-11 -26 -10 -69 6 -33 13 -62 18 -83 14 -45 -9 -69 1 -53 21 15 18 32 19 47 4z
m403 -745 c0 -8 -5 -12 -10 -9 -6 4 -8 11 -5 16 9 14 15 11 15 -7z"/>
<path d="M10344 8276 c-4 -10 -14 -16 -24 -13 -13 3 -16 -1 -12 -22 3 -14 7
-20 9 -13 3 6 13 12 24 12 23 0 36 27 21 42 -8 8 -13 7 -18 -6z"/>
<path d="M11632 8260 c7 -11 18 -20 24 -20 13 0 51 -40 44 -46 -3 -2 23 -33
58 -69 34 -35 62 -71 62 -78 0 -8 9 -22 20 -32 20 -18 21 -18 41 3 11 13 17
27 13 34 -18 28 -49 58 -60 58 -17 0 -36 34 -29 52 3 8 -3 23 -15 33 -18 16
-23 17 -45 5 -30 -16 -34 -13 -38 31 -2 29 -6 34 -29 34 -15 1 -30 4 -34 8
-15 15 -23 6 -12 -13z"/>
<path d="M10500 8200 c0 -5 5 -10 11 -10 5 0 7 5 4 10 -3 6 -8 10 -11 10 -2 0
-4 -4 -4 -10z"/>
<path d="M10311 8186 c-7 -9 -14 -34 -14 -56 -2 -36 -6 -42 -34 -52 -27 -10
-37 -22 -61 -70 -2 -5 3 -8 12 -8 9 0 16 -4 16 -8 0 -16 -55 -92 -78 -108 -21
-14 -33 -42 -13 -29 13 7 41 -23 41 -44 0 -30 25 -45 44 -26 9 9 16 21 16 26
0 6 13 22 30 35 16 14 35 44 42 66 6 22 22 47 34 55 22 14 23 21 21 119 -1 57
-5 104 -9 104 -3 0 -13 2 -21 5 -7 3 -19 -1 -26 -9z"/>
<path d="M10632 8158 c2 -6 10 -14 16 -16 7 -2 10 2 6 12 -7 18 -28 22 -22 4z"/>
<path d="M11880 7995 c0 -9 -13 -41 -29 -73 -22 -44 -27 -62 -19 -76 7 -12 5
-27 -7 -52 -13 -28 -22 -34 -46 -34 -17 0 -28 -4 -24 -9 3 -5 1 -12 -5 -16 -6
-4 -8 -11 -4 -16 3 -6 0 -24 -6 -40 -10 -24 -10 -35 0 -54 7 -13 10 -33 7 -44
-3 -12 3 -27 14 -37 10 -9 19 -13 19 -9 0 4 9 0 21 -11 11 -10 26 -19 32 -20
31 -3 37 -5 51 -20 9 -8 16 -27 16 -41 0 -18 4 -24 14 -20 24 9 47 -36 36 -72
-5 -17 -7 -31 -4 -31 2 0 19 15 38 34 l33 35 32 -33 c17 -17 31 -37 31 -43 0
-8 10 -9 36 -1 21 5 48 8 61 5 18 -3 23 -1 19 9 -4 10 3 14 20 14 31 0 103 31
87 37 -7 3 -13 9 -13 15 0 6 7 7 16 4 14 -5 15 -4 5 8 -16 18 -5 38 17 34 11
-2 18 5 20 20 2 12 10 22 18 22 8 0 24 10 35 21 20 20 23 20 31 5 18 -31 25
-15 23 47 -2 34 -3 65 -4 70 -1 4 -10 7 -20 7 -11 0 -23 5 -26 10 -3 6 -14 10
-24 10 -10 0 -24 6 -30 14 -11 13 -17 13 -47 0 -33 -14 -35 -14 -46 11 -11 24
-28 34 -28 16 0 -4 -18 -3 -40 2 -27 8 -40 17 -40 28 0 10 -4 21 -10 24 -15 9
-12 25 4 19 9 -3 16 4 20 21 11 41 -28 81 -86 89 -40 6 -53 13 -85 51 -27 32
-39 41 -46 32 -6 -8 -7 -4 -4 11 4 15 -1 25 -13 32 -27 15 -50 12 -50 -5z"/>
<path d="M10086 7845 c4 -8 7 -15 9 -15 2 0 5 7 9 15 3 9 0 15 -9 15 -9 0 -12
-6 -9 -15z"/>
<path d="M10375 7760 c-3 -5 -3 -15 1 -23 3 -8 -2 -17 -10 -20 -8 -3 -23 -21
-32 -39 -9 -18 -25 -39 -35 -46 -11 -7 -19 -22 -19 -32 0 -11 -9 -25 -20 -32
-20 -13 -28 -58 -10 -58 6 0 10 -4 10 -9 0 -5 -8 -8 -17 -7 -11 0 -18 -6 -18
-18 0 -11 -6 -21 -14 -24 -8 -3 -11 0 -7 7 5 7 1 9 -8 5 -9 -3 -16 -9 -16 -14
0 -13 36 -40 54 -40 16 0 16 -2 -1 -24 -10 -13 -20 -22 -24 -21 -3 2 -23 0
-44 -5 -31 -7 -43 -6 -56 6 -15 13 -21 13 -54 -3 -35 -17 -37 -17 -50 1 -8 10
-11 24 -8 32 3 8 0 14 -6 14 -6 0 -11 10 -12 23 0 12 -3 16 -6 10 -6 -17 -48
-17 -61 0 -6 7 -22 13 -36 15 -21 1 -26 -3 -26 -20 0 -17 -3 -19 -12 -10 -7 7
-20 12 -30 12 -17 0 -23 -19 -20 -60 1 -8 2 -28 4 -44 1 -18 13 -36 30 -49 19
-14 26 -27 23 -38 -4 -12 1 -20 15 -24 13 -4 20 -15 20 -30 0 -13 5 -27 10
-30 7 -4 6 -13 -1 -26 -6 -13 -7 -25 -1 -32 5 -7 12 -24 14 -39 5 -28 -6 -38
-42 -38 -23 0 -33 -40 -20 -75 6 -15 8 -31 5 -35 -3 -5 3 -13 12 -19 12 -7 13
-10 4 -11 -11 0 -11 -3 0 -16 10 -13 10 -17 -2 -25 -8 -5 -22 -9 -31 -9 -10 0
-18 -5 -18 -11 0 -7 -9 -9 -24 -5 -22 5 -23 4 -24 -50 0 -30 -5 -61 -11 -68
-6 -7 -8 -16 -5 -19 4 -3 -5 -20 -20 -37 -22 -27 -25 -38 -20 -71 4 -23 3 -39
-3 -39 -6 0 -8 -11 -6 -23 6 -32 -23 -63 -43 -46 -14 12 -15 10 -18 -23 -1 -7
-13 -26 -28 -42 -32 -33 -25 -51 24 -62 17 -3 42 -19 55 -35 17 -20 39 -31 78
-39 47 -10 54 -15 60 -40 3 -15 13 -31 21 -34 9 -3 12 -1 9 4 -4 6 5 5 19 -1
14 -7 23 -15 21 -19 -8 -13 23 -32 37 -24 16 10 68 6 83 -6 17 -14 57 8 89 50
21 29 34 36 56 35 16 -1 27 2 24 6 -2 4 13 13 33 20 36 12 37 13 13 19 -14 4
-28 2 -32 -4 -4 -6 -12 -5 -22 3 -20 17 -20 31 0 31 8 0 12 5 8 11 -8 14 14
29 33 22 7 -3 13 -11 13 -19 0 -19 16 -18 24 1 3 8 12 15 20 15 19 0 27 25 13
40 -10 10 -3 11 30 6 23 -3 44 -2 47 3 4 5 1 11 -5 13 -17 6 -1 31 41 62 22
17 40 38 40 47 0 10 5 21 11 25 6 3 9 15 6 25 -3 11 -1 19 3 19 5 0 10 10 12
23 2 13 9 22 20 21 10 -1 22 11 29 27 15 38 26 37 31 -3 5 -29 -17 -88 -34
-96 -5 -2 -8 -12 -8 -23 0 -10 -5 -19 -10 -19 -6 0 5 -14 25 -31 20 -18 34
-38 31 -45 -3 -9 2 -14 12 -14 13 0 14 -2 3 -9 -8 -5 -11 -17 -7 -28 7 -22
-15 -46 -54 -61 -23 -9 -22 -10 18 -17 39 -6 47 -4 73 21 25 24 35 27 91 25
117 -3 119 -3 114 -17 -3 -7 2 -18 9 -24 12 -10 16 -9 21 4 10 26 21 19 28
-18 4 -19 12 -37 19 -39 9 -3 9 -9 0 -25 -10 -16 -9 -23 6 -36 23 -21 37 -20
63 4 23 21 82 27 93 10 4 -6 11 -7 17 -4 7 5 9 1 5 -9 -8 -21 17 -40 41 -33
12 4 39 -4 68 -19 26 -14 54 -23 61 -21 7 3 15 1 18 -4 14 -22 24 -8 12 17 -9
20 -9 27 0 30 8 3 9 14 2 36 -11 39 -11 39 0 33 11 -7 33 18 24 27 -3 4 5 7
18 7 22 1 23 2 6 14 -24 19 -4 31 23 14 18 -12 24 -8 65 37 25 28 45 54 45 58
0 20 -22 46 -35 41 -28 -11 -127 88 -108 107 12 12 -12 69 -29 69 -7 0 -6 5 1
14 10 11 8 15 -6 19 -11 3 -6 5 12 6 34 2 68 40 65 74 -1 12 -2 51 -3 87 -2
52 -6 69 -24 85 -24 23 -40 65 -24 65 6 0 11 12 11 26 0 20 4 25 16 20 10 -4
31 3 49 16 27 18 34 30 39 72 8 72 8 86 -6 86 -16 0 -79 -70 -72 -81 8 -13
-10 -11 -23 2 -6 6 -9 17 -7 24 3 6 -2 17 -10 24 -8 7 -12 19 -10 26 3 7 -4
18 -15 25 -17 9 -21 8 -21 -5 0 -19 -14 -19 -30 0 -7 8 -29 15 -49 15 -20 0
-42 5 -49 12 -9 9 -12 8 -13 -7 -1 -11 -2 -24 -4 -30 -1 -5 -3 -16 -3 -22 -3
-18 -30 -16 -79 7 -30 13 -43 15 -43 7 0 -13 -87 -17 -107 -4 -7 5 -13 -1 -15
-15 -2 -12 -12 -27 -23 -33 -20 -10 -20 -11 -28 -150 -2 -27 -8 -60 -15 -72
-7 -12 -12 -35 -12 -52 0 -30 -10 -37 -47 -32 -8 1 -13 -9 -13 -22 0 -33 -39
-57 -91 -57 l-42 0 5 50 c3 34 0 56 -9 70 -8 11 -12 29 -8 40 4 14 -1 23 -22
33 -38 20 -58 45 -72 89 -8 25 -19 38 -33 40 -16 2 -23 11 -26 37 -2 20 1 31
6 27 19 -11 19 19 1 45 -10 14 -16 29 -13 31 2 3 0 17 -6 32 -9 26 -10 26 -35
10 -24 -15 -27 -15 -44 0 -10 9 -24 14 -32 11 -15 -6 -69 80 -69 110 0 18 10
18 68 0 16 -6 22 -3 22 9 0 9 4 24 10 34 5 9 12 52 15 95 4 42 11 77 16 77 5
0 9 15 9 34 0 21 6 36 15 40 8 3 15 12 15 20 0 7 7 17 16 20 10 4 14 12 10 22
-4 11 -1 14 13 9 11 -3 21 0 24 8 4 10 -8 17 -39 24 -25 6 -47 7 -49 3z m935
-669 c0 -17 -18 -21 -24 -6 -3 9 0 15 9 15 8 0 15 -4 15 -9z m-700 -695 c-7
-9 -20 -16 -29 -15 -10 0 -11 2 -3 6 15 6 16 43 1 43 -5 0 -7 5 -3 11 4 7 13
4 27 -9 17 -18 18 -23 7 -36z"/>
<path d="M10226 7732 c-3 -6 -32 -18 -62 -27 l-56 -16 28 -29 c22 -22 30 -25
32 -14 2 9 9 13 15 11 47 -20 47 -20 47 6 0 14 5 27 11 29 6 2 7 12 1 27 -5
15 -11 20 -16 13z"/>
<path d="M10945 7550 c-9 -27 -6 -30 40 -33 25 -1 39 3 43 12 3 10 0 12 -13 7
-12 -4 -26 1 -41 15 l-22 21 -7 -22z"/>
<path d="M10210 7550 c0 -5 5 -10 11 -10 5 0 7 5 4 10 -3 6 -8 10 -11 10 -2 0
-4 -4 -4 -10z"/>
<path d="M10186 7542 c-7 -12 3 -42 14 -42 18 0 22 22 7 37 -9 9 -17 11 -21 5z"/>
<path d="M12032 7267 c-12 -7 -20 -16 -16 -19 8 -9 64 12 64 23 0 13 -21 11
-48 -4z"/>
<path d="M10465 7080 c3 -5 8 -10 11 -10 2 0 4 5 4 10 0 6 -5 10 -11 10 -5 0
-7 -4 -4 -10z"/>
<path d="M10499 7079 c-10 -6 -3 -9 20 -9 19 0 31 3 27 7 -10 11 -32 12 -47 2z"/>
<path d="M10455 6330 c3 -5 8 -10 11 -10 2 0 4 5 4 10 0 6 -5 10 -11 10 -5 0
-7 -4 -4 -10z"/>
<path d="M10398 6313 c-36 -6 -35 -15 2 -31 31 -14 50 -10 50 11 0 7 -4 6 -11
-3 -9 -12 -10 -11 -6 8 3 12 2 21 -1 21 -4 -1 -19 -4 -34 -6z"/>
<path d="M10472 6280 c-15 -25 -15 -30 2 -30 17 0 30 30 19 41 -5 5 -14 0 -21
-11z"/>
<path d="M10265 6280 c-3 -5 -1 -10 4 -10 6 0 11 5 11 10 0 6 -2 10 -4 10 -3
0 -8 -4 -11 -10z"/>
<path d="M10505 6241 c-6 -11 9 -23 19 -14 9 9 7 23 -3 23 -6 0 -12 -4 -16 -9z"/>
<path d="M11310 6121 c0 -10 31 -31 45 -31 11 0 -5 20 -26 30 -12 7 -19 7 -19
1z"/>
</g>
</svg>
