<svg version="1" xmlns="http://www.w3.org/2000/svg" width="773.916" height="851.998" viewBox="0 0 580.437 638.999"><g fill="#222"><path d="M418.437 2.358c-.7 1.6-1.6 3-2.1 3-1.1 0-5.9 7.6-5.9 9.4 0 1.5-5.7 2.8-7.5 1.8-.5-.4-1.7-.5-2.7-.4-.9.2-1.9-.2-2.3-.8-1-1.6-6.6-1.2-8.6.6-1 .9-3.9 1.8-6.4 2-3.6.3-5-.1-6.6-1.7-1.9-1.9-4.8-3.3-10-4.9-2.3-.7-2.5-.5-2.1 1.6.5 2.8-.5 3-4.4.9-4.8-2.5-5.2-2-3.8 3.7 1.5 5.6 1.9 4.8-4.6 11.3-1.4 1.5-3.6 2.5-5.2 2.5s-2.7.5-2.5 1.2c.1.7-1.7 1.3-5.1 1.5-3.6.3-5.9 1-7.3 2.4-1.8 1.8-2.9 2-7.1 1.5-2.7-.4-5.8-1.2-6.9-1.9-1.5-.9-2.1-.8-3.3.8-1.2 1.6-1.9 1.8-4.3.9-1.8-.6-2.7-1.6-2.5-2.7.2-.9-.1-1.7-.5-1.8-.4 0-1.9-.2-3.2-.3-1.4-.2-3.1-1.2-3.9-2.4-1.3-1.9-1.5-2-3-.6-1 1.1-2.5 1.4-4.4 1-3.3-.6-6.4 1.6-5.2 3.6.5.8.2.9-1.1.4-1.6-.6-1.7-.2-1.3 3.1.5 3.5.3 3.9-2.9 5.5-1.8 1-4.1 1.8-5 1.8-1 0-1.4.6-1 2 .3 1 0 2.1-.7 2.3-.8.3-.7.8.2 1.9 1.8 2.2-2.3 8.7-5.6 8.8-2.4 0-6.2 5.1-6.2 8.2 0 1.4-.9 1.8-4 1.8-2.2 0-4 .4-4 .9s-1.1 1.2-2.4 1.5c-1.4.3-3.2 1.3-4.1 2.2-1.2 1.3-1.9 1.4-2.8.5-1.5-1.5-2.7-1.4-2.7.3 0 .7-.7 1.9-1.5 2.6-.8.7-1.5 1.9-1.5 2.8 0 1.6-6.7 8.1-8.5 8.3-.5.1-2.7.3-4.8.4-2 .2-4.4 1.1-5.2 1.9-1.3 1.3-1.3 1.6 0 3 .8.8 1.5 1.9 1.5 2.5 0 1.6-7.3 1.3-9.6-.4-2.7-2-3.6-1.9-2.9.5.8 2.5-.6 2.6-2.7.1-1.5-1.8-1.5-2 .3-3.3 3.2-2.1 3.6-8.3.9-12-1.2-1.7-2-3.8-1.7-4.9.3-1.1-.1-2.3-1.1-2.8-1.3-.7-1.4-1.4-.5-3.4.9-2 .8-2.7-.8-4-1-.9-1.6-2.3-1.3-3.2.4-.9-.1-1.7-1-2.1-1.3-.5-1.4-1-.5-2 .6-.7.8-1.8.4-2.4-.3-.5.1-1 .9-1 .9 0 1.6-.5 1.6-1.1 0-.5.5-.7 1-.4 1.1.7 2.6-2.2 1.6-3.2-.3-.4-1.5-.7-2.5-.8-2.5-.2-5.1-2.3-5.1-4.2 0-1.1-.7-1.4-2.2-1-1.4.4-2.9 0-4-1s-1.8-1.1-1.8-.5c0 1.4-4.9 1.3-6.8-.1-.9-.7-1.1-.6-.6.6.9 2.3-6.5 1.5-8.4-.9-1.4-1.8-1.4-1.8-.9.4.4 1.6-.1 3-1.5 4.4-1.7 1.7-2.8 1.9-6.4 1.4-2.4-.3-4.4-.2-4.4.3s-1.4 1.2-3.1 1.6c-2.3.5-3 1.1-2.6 2.5.3 1.2-.3 2.1-1.8 2.8-3 1.4-3.8 5.6-1.5 7.7 1.5 1.4 2.8 5 3.5 10 .1.5-.2 1.8-.7 2.7-.5 1-.3 1.8.5 2.2.8.3.6.9-.7 2-1.6 1.3-1.7 1.8-.5 3.2 2 2.4 3.6 10.3 2.9 14.6-.8 4.5 1 9.1 4.3 11.3 4 2.6 4 5.1.1 7.4-1.9 1.1-3.4 2.5-3.4 3.1 0 .5-.7 1-1.6 1-1 0-1.4.6-1 1.5.3.9 0 1.5-.9 1.5-.8 0-1.5.7-1.5 1.5s-.5 1.5-1.2 1.5c-.6 0-2 .8-3 1.7-2.2 2-8.3 4.3-11.5 4.3-1.4 0-2.3.6-2.3 1.6 0 .8-.4 1.3-.9.9-.5-.3-1.2-.1-1.6.5-.4.6-1.2.6-2.4-.2-1.5-.9-2.2-.8-3.6.5-1.9 2-3.1 2.1-4 .7-.5-.8-1.1-.7-2 0-1.5 1.3-3.9.4-3-1.1.3-.5 0-.6-.8-.3s-1.8.1-2.1-.5c-.8-1.3-8.5 1.6-10.3 3.8-1.1 1.3-1.4 1.4-2.2.2-1.1-1.6-2.2 2.6-2.1 8 .1 5.9-1.1 9.8-3.2 10.5-1.6.5-1.9 1.2-1.4 3.9l.7 3.4-4.8.6c-8.1 1.1-8.3 1.3-8.3 5.4 0 4-1.4 6.1-4 6.1-1.5 0-1.5.6-.5 5.8.7 3.1 1.5 6.7 1.9 8 .8 2.5.7 2.6-2.7 1.3-2.1-.8-2.6-.6-4.1 2.5-.9 1.9-1.6 4.2-1.6 5.2 0 1.6-4.1 4.2-6.6 4.2-.7 0-2.7 1.2-4.4 2.7-2.5 2.1-3.1 3.2-2.7 5.6.2 1.8-.1 3.1-1 3.4-.8.3-1.1 1.4-.7 3 .6 2.4.5 2.5-2.5 1.8-2.3-.5-3.1-.3-3.1.7 0 2 1.5 3.9 4.1 5.2 1.4.7 2.4 2.1 2.4 3.3.1 2.4 3.2 6.3 4.8 6 .5-.1 1.5 2 2.1 4.8 1.5 6.3 2.6 8.3 6.5 11.8 3.1 2.7 4 6 2.1 7.2-1.5.9 3 4.7 4.8 4 2.2-.8 3.4.5 1.8 2.1-1.3 1.2-1.3 1.8.2 4.4.9 1.6 2 3 2.5 3 .4 0 .7.7.7 1.5s-.6 1.5-1.4 1.5c-.8 0-1.7.9-2.1 1.9-.7 2.5-3.1 3.4-5.5 2.1-2.5-1.4-3-1.3-3 .6 0 2.3-2.5 4.4-5.4 4.4-3 0-4.4 1.8-2.1 2.6 1.3.6 1.5 1.5 1 5.4-.5 3.8-.2 5.6 1.5 8.9 2.4 4.7 2 7-1.6 10.6-3.3 3.3-3.9 3.2-5.8-1-1.1-2.3-2.4-3.5-3.7-3.5-1.1 0-3.6-1.2-5.5-2.6-3.5-2.7-4-2.3-2.8 2.4.4 1.2 2 3 3.6 3.8 1.6.8 3.4 2.8 4 4.5.5 1.6 1.4 2.6 1.9 2.3 1.5-.9 1 1.4-.7 3-.9.9-1.2 2.1-.7 2.8 1.2 2 1.2 6.7-.1 7.7-.7.6-2.5.4-4.8-.4-3.7-1.2-5.3-.7-5.8 2-.5 2.4-2 5.4-2.9 5.9-.5.4-.7 2.3-.4 4.3.4 2.6.2 3.9-.9 4.7-.8.6-2 2.1-2.7 3.3-.9 1.7-2.1 2.3-4.6 2.3-3.1 0-3.5.3-3.5 2.5 0 1.8-.7 2.8-2.5 3.5-1.4.5-2.8 1.5-3 2.2-.3.7-2.2 1.4-4.2 1.6-2.1.1-4.1.9-4.6 1.7-.4.8-1.7 1.5-2.7 1.5-1.5 0-2 .7-2 2.5 0 2.5-3.2 5.1-5 4-.6-.4-1-.3-.9.2.4 2.1-.2 3.4-1.3 2.7-.7-.5-.8-.3-.4.5.6.9 1.3.8 2.8-.5 1.6-1.6 2.1-1.6 2.8-.4.6.8 1 1 1 .5.1-2.3 2 2.2 2 4.7 0 1.7.8 3.3 1.9 4 2.5 1.5 1 3.8-1.9 3.1-3.4-.9-2.3 2.2 1.8 5.3 2 1.6 4.1 2.9 4.6 2.9 1.1 0 4.6 6.4 4.6 8.5.1 2.8 2.7 5.2 5 4.5 2.2-.7 6.4 2 5.5 3.6-1.3 2 1.7 1.7 5.1-.6 2-1.4 3.3-2.5 2.8-2.5-1.2 0 2.9-2.9 4.3-3 .6 0 1.6 1.4 2.2 3.1 1.4 4.2 1.5 4-1.5 3.3-2.4-.6-2.6-.5-2.2 1.8.2 1.3-.1 3-.9 3.6-1 1-1.3 1-1.3 0 0-.9-.3-.9-1.2 0-.7.7-1.7.8-2.9.2-1.3-.7-2.1-.4-3.3 1.6-1.6 2.3-1.6 2.6.4 5.1 1.1 1.4 2 4.1 2 6 0 2.6 1 4.4 4.4 8.1 2.9 3.1 5.3 7.1 7 11.6 3 7.9 3.2 9.6 1.1 9.6-1.4 0-1.4.3-.1 2.7 1 2.1 1.1 3.3.3 5.1-.8 1.7-.8 2.9.1 4.3 1.5 2.4 1.6 6.9.1 6.9-1.6 0-.3 4.2 3.1 10 1.7 2.8 3 5.9 3 6.8 0 1 .7 2.7 1.5 3.8 1.1 1.6 1.2 2.9.5 5.5-1.3 4.5.4 9 4.4 11.4 1.7 1 3.8 1.9 4.6 2 .8.1 2.2.6 3.1 1.1 2 1.2 7.5 7.5 8 9.3.3.7 2 1.9 3.9 2.5 3 1 3.5 1.6 3.5 4.3 0 4.8 2.9 7.3 8.6 7.3 3.8 0 5.1.5 6.6 2.3 1 1.3 3 2.7 4.5 3 1.5.4 4.4 2.2 6.4 3.9 3.7 3.3 12.2 6.2 13.8 4.7.5-.4 2.2-.1 3.7.7 2.8 1.4 2.8 1.4 4-2.6 1.2-3.9 1.3-4 3.2-2.3 1 1 2.5 3 3.3 4.5 1.8 3.5 5.1 3.7 6.6.3.6-1.4 1.7-2.5 2.5-2.5.7 0 1.3-.9 1.3-2 0-1.4.7-2 2.1-2 1.9 0 2-.4 1.5-3.5-.5-2.7-.2-4 1.4-5.7 1.9-2.1 1.9-2.3.3-3.2-1-.5-2.1-1.3-2.4-1.8-.3-.6-.9-.8-1.3-.6-.4.1-1.6-1.7-2.7-4.1l-1.9-4.3 2.9.4c2 .3 2.7 0 2.4-.8-.3-.7.5-1.4 1.9-1.6 1.7-.2 2.4-1 2.6-3.3.5-6.5 1.3-9.5 2.5-9.5.6 0 3.1-.8 5.5-1.8 3.1-1.2 4.2-2.2 3.8-3.4-.2-1.1.3-2 1.6-2.4 1.5-.4 1.8-1.2 1.3-3.4-.5-2.3-.2-2.9 1.8-3.3 1.3-.4 4.6-.3 7.5.2 4.6.7 5.2.6 5.2-1 0-.9.5-1.9 1-2.1.7-.2.7-1.5 0-3.8-.8-2.6-.7-3.7.3-4.5.7-.6 1.9-2.9 2.6-5.2 1.3-3.8 1.6-4.1 3.7-3.2 2.6.9 3.1 0 1.2-1.9-.9-.9-.8-1.2.5-1.2.9 0 1.7-.6 1.7-1.4 0-1.7-7-5.2-7.9-4-.9 1.3-8.9 1.6-9.6.4-.7-1.1-8.5 2.5-8.5 3.9 0 .5-1.8 1.1-4 1.5-3.3.5-4.1 1.1-4.6 3.4-.9 3.7-3.8 6.4-5.3 4.9-.8-.8-1.1-.6-1.1 1 0 2.5-1.7 3.9-4.9 4.1-3 .1-3.3.5-3.3 3.7 0 1.5-.7 2.9-1.4 3.2-1.9.7-1.8 3.2.3 5.5 1.4 1.6 1.5 1.8 0 1.8-.9 0-1.5.8-1.4 2 .1 1.7.3 1.8 1.8.4 1.3-1.2 1.9-1.2 2.5-.3.4.7 0 1.7-.9 2.4-1 .7-1.7 1.7-1.7 2.2 0 .6-.8 1.3-1.8 1.5-1.9.5-2.2 3.8-.7 7.1 1.1 2.6-.1 3.2-3.2 1.7-1.6-.8-3.3-1.4-3.9-1.5-.6 0-1.8-.6-2.7-1.3-1.1-.9-1.7-1-2.2-.2-.8 1.2-5.6.5-9-1.3-1.1-.6-3-1-4.2-.8-1.1.1-2.4-.2-2.7-.8-.4-.6-1.2-.8-1.9-.5-1.8.7-6.7-4.8-7.3-8.1-.3-1.6-.7-3.2-1-3.7-.3-.4.9-2.1 2.7-3.8 2.9-2.6 3.1-3.2 2.1-5.5-1.2-2.7-.2-3.9 2.9-3.4 3.7.5 4.9-.2 4.9-2.7 0-2.3.3-2.5 2.5-2 1.9.5 2.5.2 2.7-1.1.4-4.9 1.7-7.5 3.5-6.9 2.8 1.1 11.2-5 11.3-8.2 0-.6 1.2-1.2 2.7-1.2 1.4 0 3.4-.7 4.4-1.6 1.7-1.5 2.1-1.5 5.1.3 1.8 1.1 4.1 1.8 5.1 1.6.9-.3 1.7 0 1.7.5s.9 1.2 2 1.5c2 .5 5-2.9 5-5.7 0-.9.7-1.2 2-.9 2.7.7 2.6-1.4-.2-4.4-1.2-1.3-1.6-2.3-.9-2.3.7 0 .9-.4.6-1-1.1-1.8-1.4-5.1-.4-4.5 1.9 1.2.8-1.7-1.3-3.7-1.6-1.3-1.9-2.1-1.1-2.4.8-.3 1.1-1.6.8-3-.3-1.3-.7-3.5-1-4.9-.3-1.4-1.4-3.4-2.5-4.5s-2.2-3-2.6-4.3c-.4-2-.1-2.6 1.9-3.1 1.4-.3 3.2-.9 4-1.2 1.1-.4 2.3.7 3.9 3.5 1.3 2.2 3 4.4 4 4.8 2.9 1.4 10.8 9.3 10.8 10.9 0 2.4 2.9 7.4 4.4 7.4.7 0 1.9 1.1 2.6 2.4 1.5 2.9 8.4 6 10.6 4.8.8-.5 2.8-.6 4.5-.4 3.4.5 8.9 6.5 8.9 9.8 0 2.3 2.3 4.8 3.3 3.7.9-.9 12.7 2.8 12.7 4 0 .5 1.1.6 2.5.3 1.8-.5 2.7-.1 3.5 1.4.6 1.1 1.9 2 3 2 1.2 0 2 .8 2.2 2.2.3 2 .9 2.3 4.8 2.3 3.3 0 4.5.4 4.8 1.6.2 1.1 1.1 1.4 3.1 1.1 2.3-.3 3.3.2 4.6 2.2 1 1.4 2.3 2.6 3.1 2.6.7 0 2.3 1.3 3.5 2.9 1.2 1.6 3.9 3.4 6.2 4.2 2.3.7 5.2 2.4 6.5 3.8 1.6 1.8 2.5 2.2 2.9 1.3.3-.8 1.1-.4 2.5 1.3 1.1 1.4 3 2.5 4.2 2.5 2.6 0 5.6 2.8 5.6 5.3 0 3.3 7.2 6.1 9.6 3.7 1.1-1.1 4 1.7 3.8 3.7-.1.7-.2 2-.3 2.8 0 .8-.7 1.5-1.5 1.5s-1.2.9-1.1 2.5c.2 1.4-.1 2.5-.6 2.5-2.4 0 0 7.2 2.6 7.7.6.1 1.8.5 2.8.8 1 .4 1.7.3 1.7-.5 0-.6.4-.9.8-.6.4.2 1.4.1 2.1-.3 1.6-1.1 6.4 3.6 5.7 5.5-.8 2.1.4 4.3 2 3.7.9-.3 1.3-1.2 1-1.9-.7-1.7.6-1.8 2.2-.2.9.9 1.2.9 1.2 0s.5-1 1.7-.4c.9.5 3.4.7 5.6.4 2.7-.3 4.2-.1 4.9.9.8 1.2 1.1 1.1 2-.2.9-1.4 1.7-1.5 4.2-.7 1.7.6 3.8 1.8 4.6 2.7 1.6 1.7 9.4 2.1 14 .6 5.9-1.9 13-1.3 13 1.1 0 .8.7 1.4 1.5 1.4 1.2 0 3.4 3.3 3.9 6 .1.3.6 1.2 1.1 2 .5.8 1.7 2.9 2.5 4.6 1.5 2.8 1.5 3.2.1 4.3-1.3.9-1.2 1 .9.6 7.7-1.7 12.8-3.9 12.3-5.3-.5-1.1-.1-1.3 1.5-.8 1.1.4 2.3.2 2.7-.3.4-.7 1.4-.7 3-.1s2.5.6 2.5 0 .9-1 1.9-1c2.8 0 7.2-7.9 5.9-10.4-1-1.9.3-3.5 2.8-3.6.6 0 2.1-1.1 3.4-2.5 1.5-1.6 3-2.3 4.1-2 1.4.5 1.6.1 1.2-1.5-.4-1.5.1-2.6 1.6-3.6 1.1-.8 2.1-2.6 2.1-3.8 0-1.3.7-2.6 1.5-3 1-.4 1.4-1.3 1-2.9-.5-1.7.1-2.8 2.4-4.5 3.8-2.8 7.5-10.7 6.1-13.2-.7-1.3-.6-2 .5-2.4.8-.3 1.5-1.4 1.5-2.4s1.1-2.9 2.5-4.2c2.5-2.3 5.6-10 6.2-15.5.3-2.3-.3-3.5-2.4-5.3-2.6-2.1-2.7-2.4-1-3.6.9-.7 1.7-2.2 1.7-3.2s.4-2.5.9-3.3c.6-.8.6-2.4 0-3.8-.7-1.9-.5-2.3 1.1-2.3 1.8 0 2-.7 2-5.8 0-6.7 2.4-12.7 4.7-11.8.8.3 2.3.1 3.3-.4 1.5-.8 1.7-1.5 1-3.4-.7-2-.5-2.5 1.6-3.5 1.9-.8 2.4-.8 2.4.4 0 .8.6 1.2 1.4.9 1.2-.5 1.1-1.1-.4-3.7-2-3.4-8-7.6-8-5.7 0 .8-.6.8-2 0-1.1-.6-2-1.8-2-2.8 0-.9-.7-2.9-1.4-4.4-.8-1.5-1.2-2.7-.8-2.7 1.9.3 2.3-.2 1.2-1.5-.6-.8-1.7-1.3-2.4-1-.7.3-2-.4-3-1.5-1.7-1.9-1.6-2 1.8-3.6 2-1 3.6-2.2 3.6-2.7s.8-.8 1.8-.6c2.4.4 5.2-1.9 5.2-4.1 0-.9.5-2.2 1.1-2.8 1.4-1.4.3-3.3-1.8-3.3-1.6 0-5.4-3.6-7.1-6.7-1-1.7.4-6.3 1.9-6.3.4 0 1-1.3 1.4-3 .4-1.6 1-3.2 1.4-3.5 1.1-.6-2.2-10-4.2-12.3-2-2.2-2.1-3.2-.4-3.2 2.8 0 .3-11.4-2.8-12.6-.8-.4-1.5-1.4-1.5-2.3 0-.9-2.9-4.6-6.4-8.1-8.4-8.6-12.4-16-8.6-16 1.3 0 1.9-.9 2.2-3.4.4-4 0-5.8-1.3-5-.5.3-.9-.4-.9-1.6 0-1.2.4-1.9.8-1.6 1.2.7 2.5-.5 4.5-4.4 1.1-1.9 2.6-4.7 3.5-6.2 1.3-2.3 1.4-3.3.4-6.1-2-5.5-1.4-16.5.8-15.2.9.6 6.3-5.9 7.3-8.8.7-1.9 2.8-2.2 4.4-.6.7.7 1.8.9 2.6.6 1.6-.6 1-6.4-1.1-10.4-1.1-1.9-1-2.2.3-1.7.8.4 1.5.2 1.5-.4 0-1.4-2.8-3.5-3.9-2.8-.5.3-2.3-.5-3.9-1.9s-3.5-2.5-4.1-2.5c-.6 0-1.1-1.4-1.1-3 0-2.4-.4-3-2.2-3-2.2-.1-5.8-2.1-5.8-3.3 0-.4.7-.4 1.5-.1 1 .4 1.5 0 1.5-1.2 0-2.7 3.3-9.3 4.8-9.4.6 0 1.2-.7 1.2-1.5 0-.9 2-3.5 4.5-5.9 4.9-4.8 5.3-6.5 3.5-14.4-1.1-4.5.6-12.8 3.1-15.8 1.2-1.5.3-3.8-1.2-2.9-.5.4-.9-.5-.9-1.9 0-1.9.5-2.6 2-2.6 1.4 0 2.7-1.6 4.5-5.6 2.4-5.3 2.5-5.6.8-7.8-1-1.2-2.2-2.4-2.8-2.7-.5-.2-.9-.7-.7-1.2.1-.4-.6-.7-1.5-.7-1.6-.1-1.5-.2.2-1.2 1.1-.6 2.1-1.2 2.3-1.4.2-.1-.4-1.6-1.3-3.4-1.9-3.7-1.6-6 .6-3.8.8.8 1.9 1.3 2.5 1.1.6-.2 1.9 1.2 2.8 3.1 1.9 4.1 2.7 4.8 4.5 3.7.9-.6.4-1.5-1.8-3.4-1.7-1.4-2.7-2.8-2.2-3.2.6-.3.8-2.8.6-5.6-.3-4-.1-4.8.9-4 2.1 1.7.7-3.8-1.7-7.1-1.4-1.9-2.4-2.5-3.2-1.8-.7.5-1.5.7-1.9.3-.3-.4-1.2-.8-1.9-.9-.7-.1-1.9-.5-2.8-.9-1-.3-2-.1-2.4.5-.5.8-1.3.6-2.6-.6-1.2-1.1-2.9-1.5-5.1-1.1-2.5.3-3.9-.1-5.6-1.6-2-1.8-2.4-1.9-3.2-.7-.5.8-1 2.5-1 3.8 0 1.6-.4 2.1-1.2 1.5-1.3-.8-1.8-.9-3.8-1.2-.6 0-1.6-1.2-2.2-2.6-1-2.2-.8-2.9 1.2-5 1.3-1.4 2.9-2.5 3.7-2.5.7 0 1.3-.8 1.3-1.8 0-1.4-.2-1.5-1-.2-.5.8-1.2 1.2-1.5.9-1-1.1.6-3.7 2.6-4.2 1.5-.4 1.8-1.1 1.3-3.5s-.2-3 1.4-3.4c2.2-.6 5.8 2.3 4.5 3.6-.4.4.1.4 1.1 0 1.1-.4 2.1-.2 2.7.7 1.3 2 1.1 2.9-.6 2.9-2.4 0-3.5 3.2-1.9 5.5.8 1 1.4 1.5 1.4 1.1 0-.4 1.2.2 2.6 1.3 3.7 2.9 4.4 2.7 4.4-1.9 0-2.9.4-4 1.5-4 .8 0 1.5-.7 1.5-1.5s.5-1.5 1-1.5c.6 0 1-.7 1-1.5 0-.9.9-1.5 2.4-1.5 2.6 0 2.9-1.7.8-4.3-.7-.8-1-2.2-.6-3 .3-.9-.1-2.6-1-3.8-2.1-3.1-1.1-9.4 2.2-13.8l2.5-3.3-2.2-3.8c-1.8-3.3-1.9-3.9-.6-4.4.9-.3 1.8.1 2.1.9.4.8 1.2 1.5 1.8 1.5 2 0 3.8 4.8 2.6 7-.7 1.3-.5 2.4.9 4.1 1.6 2 2.1 2.1 3.5 1 1.3-1.1 1.7-1.1 2.2.3.7 1.8 4.3 1.3 5.6-.8.4-.6 3.3 1.6 7.4 5.7 3.6 3.7 6.4 7.1 6 7.4-.3.4.6 1.9 2 3.4 2.3 2.4 2.9 2.6 4.7 1.6 1.5-.9 2.1-.9 2.4 0 .7 2 3 1.5 3.6-.7.3-1.3 0-2-1-2-2.3 0-5.1-4.1-5.8-8.5-1.1-6.6-1.5-7.3-4.9-8.5-1.9-.6-3.8-2.1-4.4-3.5-1.2-2.7-.4-3.3 1.7-1.3 1.1 1.1 1.2.9.3-.8-.7-1.2-1.8-2.4-2.7-2.8-1-.4-1.4-1.3-1-2.9.5-1.7-.1-3-2.1-5-1.5-1.5-2.4-2.7-2-2.7.4 0 .2-.9-.4-1.9-.6-1.2-.6-2.2-.1-2.5.5-.3.7-1.5.4-2.5-.3-1 0-2.8.6-3.9 1-1.8.4-2.8-4.2-7.4-6.2-6.3-8.3-11.9-5.8-15.7 1.4-2.3 1.3-2.5-2.2-5.3l-3.7-3 2.3-1.8c1.8-1.5 2-2.1.9-3.2s-1.2-1-.6.5c.6 1.6.3 1.7-2.2 1.1-1.6-.4-3.6-1.3-4.5-2-.8-.8-2.1-1.4-2.7-1.4-.6 0-2.5-1.2-4.2-2.7-2.6-2.1-4.1-2.6-8-2.5-3.1 0-5.3-.4-6-1.4-.7-.8-1.7-1.4-2.3-1.4-.6 0-2.5-1.4-4.3-3.1-2.8-2.7-3.4-3-5.5-1.8-2 1-2.5.9-3.4-.6-.5-1-2.1-3.1-3.4-4.6-1.3-1.7-2-3.6-1.7-4.5.7-1.8-1.5-7.4-3.6-9.2-1.3-1-1.7-.8-2.8 1.8zm32.7 172.1c-.3 1.1-.1 1.7.4 1.3.5-.3.9-.1.9.4s1.1.7 2.5.4c1.5-.2 2.5 0 2.5.7s-.5.9-1 .6c-.6-.4-1.6-.3-2.3.3-.7.5-2 1.2-2.9 1.5-1.6.5-1.8 0-1.8-3.9 0-3 .4-4.3 1.1-3.8.6.3.9 1.5.6 2.5zm-375.1 112.8c-.8 1.3-3.6 1.5-3.6.3 0-.4.5-1.3 1.2-2 1.4-1.4 3.4 0 2.4 1.7zm72.4 116.2c0 .5-.4.9-1 .9-.5 0-1-.7-1-1.6 0-.8.5-1.2 1-.9.6.3 1 1 1 1.6zm-95 4.6c0 1.3-.3 1.3-1.5.3-.8-.7-1.5-1.6-1.5-2.1s.7-.6 1.5-.3c.8.4 1.5 1.3 1.5 2.1zm58 118.1c0 1.4-3.9 4.6-4.7 3.9-.3-.4.2-1.6 1.2-2.7 1.9-2.1 3.5-2.6 3.5-1.2zm3 7.4c0 1.6-.3 1.9-1.1 1.1-.6-.6-.8-1.6-.5-2.2 1.1-1.7 1.6-1.3 1.6 1.1zM138.037 60.958c-.4.9.1 1.4 1.4 1.4 2.3 0 2.7-1.5.6-2.3-.8-.3-1.7.1-2 .9zM145.437 61.758c0 .9.5 1.6 1 1.6.6 0 1-.4 1-.9 0-.6-.4-1.3-1-1.6-.5-.3-1 .1-1 .9zM135.537 68.958c0 1.1.3 1.4.6.6.3-.7.2-1.6-.1-1.9-.3-.4-.6.2-.5 1.3z"/><path d="M150.237 99.058c-2.3.4-2.8.9-2.8 3.4 0 1.7-.6 3.2-1.5 3.5-.8.4-1.5 1.1-1.5 1.6s-1 1.8-2.1 2.7c-1.5 1.2-2 2.3-1.5 3.8.6 1.8 1.1 2 4.2 1.3 4.6-1.1 5.1-1.6 3.1-3.8-2.2-2.4-2.1-3.2.2-3.2 1.4 0 1.8-.5 1.4-1.8-.4-1.6 0-1.8 2.5-1.4 2.7.4 2.9.2 2.5-2.2-.4-1.8-.1-2.6.8-2.6 1.1 0 1.1-.2-.1-1-.8-.5-1.7-.9-2-.8-.3 0-1.7.3-3.2.5zM115.937 100.358c.3.5.8 1 1.1 1 .2 0 .4-.5.4-1 0-.6-.5-1-1.1-1-.5 0-.7.4-.4 1zM118.637 104.058c-1.8.4-2.3 1-1.9 2.6.3 1.2.2 3.1-.3 4.2-.4 1.1-.3 2.8.2 3.9 1.5 2.7 1.7 6.9.6 8.3-.7.9-.7 1.3 0 1.3 1.1 0 .9 4.5-.3 7.3-.9 2.2-.3 2.9 1.9 2.1 1.2-.5 1.6-1.8 1.5-5.8-.2-3.4.6-7.4 2.3-11.9 1.5-3.7 2.2-7 1.7-7.3-.5-.3-.9-1.6-.9-3 0-2.4-.4-2.5-4.8-1.7z"/><path d="M152.437 107.658c0 .9-.6 1.7-1.4 1.7-1 0-1.3 1.3-.9 5.6.3 3.4 0 6.1-.8 7-.9 1.1-.8 1.4.5 1.4.9 0 1.6-.7 1.6-1.6 0-.8.5-1.2 1-.9.6.4 1-.5 1-1.9 0-1.6.6-2.6 1.5-2.6 1.8 0 1.9-1 .3-4.7-.6-1.5-1.2-3.1-1.2-3.5-.2-1.5-1.6-2-1.6-.5zM510.437 118.158c0 .4.4 1.3.9 2 .7 1.1.9 1.1 1.4-.1.3-.9-.1-1.8-.9-2.1-.8-.3-1.4-.2-1.4.2zM443.437 127.358c0 .5.5 1 1 1 .6 0 1-.5 1-1 0-.6-.4-1-1-1-.5 0-1 .4-1 1zM438.437 130.358c0 .5.5 1 1.1 1 .5 0 .7-.5.4-1-.3-.6-.8-1-1.1-1-.2 0-.4.4-.4 1zM440.937 137.358c.3.5 1.6 1 2.8.9 2.1 0 2.1-.1.2-.9-2.8-1.2-3.7-1.2-3 0zM472.937 173.358c.3.5.8 1 1.1 1 .2 0 .4-.5.4-1 0-.6-.5-1-1.1-1-.5 0-.7.4-.4 1zM66.037 279.658c.3 1 .9 1.5 1.2 1.2.3-.3 0-1.1-.7-1.8-1-.9-1.1-.8-.5.6zM2.137 381.758c-2.5 1.1-2.6 1.4-1.2 2.6.8.7 1.6 1.1 1.8.9 1.7-3 2.7-4.9 2.5-4.8-.2 0-1.6.6-3.1 1.3zM508.637 386.558c-.7.7-1.2 1.8-1.2 2.5 0 1.6-3.6 5.3-5.1 5.3-.6 0-.8.9-.4 2 .5 1.5.3 1.8-.9 1.4-.9-.3-1.6-.2-1.6.4 0 1.8-3.1 2.2-4.6.7-.9-.8-2.1-1.5-2.9-1.5-.7 0-1.6-1.2-1.9-2.6-.4-1.4-1.2-2.3-1.9-2.1-.7.2-2.5-.5-4-1.6-2.7-1.8-2.9-1.8-4.1-.2-1 1.3-2 1.6-4.1 1.1-2.6-.7-2.7-.5-2.3 2.3.3 2.4-.2 3.7-2.4 5.8-1.5 1.5-2.8 2.2-2.8 1.7 0-.5-.9-1.5-2.1-2.2-1.9-1.2-1.9-1.1-1 .7.6 1.1 1.6 2.3 2.1 2.6 1.6 1 1.2 2.3-.9 3-1.5.5-1.9 1.3-1.5 3.8.2 1.8.5 5.4.7 8.1.2 2.8.9 5.2 1.5 5.4.7.2 1.2-.4 1.2-1.4 0-1.5.3-1.5 2.3.4 1.3 1.2 2.9 2.2 3.6 2.2 2.1 0 7.1-3.3 7.1-4.7 0-.6.7-1.6 1.5-2.1 1.3-.7 1.4-1.4.5-3.7-.6-1.6-1.8-3.4-2.8-4.1-1.6-1.2-1.5-1.3.6-1.4 1.3 0 3.3 1.2 4.6 2.7 2.1 2.5 2.6 2.6 5 1.5 2.2-1 2.8-.9 3.2.3.4.8 1.2 1.5 2 1.5.9 0 1.4 1.1 1.4 3.2 0 3.8 1.2 3 1.5-.9.4-6.1.4-6.1 2.5-5.6 1.4.4 2 0 2-1.1 0-1.5 3.3-5.6 4.5-5.6.3 0 .5.7.5 1.6 0 .8 1.1 3.4 2.4 5.7 3.1 5.3 4.1 10.3 2.6 12.2-.8 1-.9 1.9 0 3.5s.8 2.1-.5 2.6c-1.1.5-1.3 1.5-.9 4.5.4 2.4.2 4.4-.6 5.4-1.5 1.8-.5 3.5 2.2 3.5 1.4 0 1.8.5 1.4 1.6-.3.8 0 2.1.7 2.8 1.7 1.7 7.5 4.3 11.3 5.1 2.6.5 3.2.3 3.7-1.4.8-3.3 7.9-2.9 10.6.5 2.1 2.7 7.3 3.5 11.9 1.7l2.3-.9-2.7-2.7c-2.5-2.5-4.1-4.8-6-8.6-.4-.7-.2-2.9.5-4.8 1.1-2.9 1-3.7-.2-5.1-.8-.9-1.2-2.2-1-2.9.2-.6-.5-1.4-1.6-1.8-1-.3-3.1-1.5-4.5-2.6-2.2-1.7-2.6-2.9-2.6-6.9 0-3.9-.4-4.9-1.9-5.3-1.1-.2-2.4 0-2.9.5-1.2 1.2-10.5-4.9-9.6-6.3.3-.6 0-1.6-.6-2.4-.6-.8-1-2.9-.9-4.7.3-3.9-.8-7.8-2.2-7.8-.6 0-1.9.5-3 1-1.6.9-2.1.5-3.5-3-1.7-4.3-2.3-4.7-4.2-2.8z"/><path d="M500.537 415.958c0 1.1.3 1.4.6.6.3-.7.2-1.6-.1-1.9-.3-.4-.6.2-.5 1.3zM496.937 425.358c-.3.5.1 1 .9 1 .9 0 1.6-.5 1.6-1 0-.6-.4-1-.9-1-.6 0-1.3.4-1.6 1zM558.137 458.058c-.3.4-.1 1.9.4 3.2.6 1.5 1.4 2.1 2.5 1.7 4.4-1.7 6.4-1.8 6.4-.3 0 1.8-2.4 3.9-4.1 3.5-2.3-.5-2.2 3.4.2 5.3 1.8 1.3 2.8 1.5 4.6.6 1.6-.7 2.6-.7 3.6.1 1 .9 1.9.7 3.5-.8 1.2-1.1 2.8-1.7 3.6-1.4 1.2.5 1.6 0 1.6-1.8 0-2.6-3.9-5.6-5.8-4.4-.6.3-2.3-.5-3.9-1.8-1.6-1.4-4.3-2.8-5.9-3.1-1.6-.4-3.6-.9-4.6-1.1-.9-.3-1.8-.1-2.1.3zM181.537 464.258c-1 .6-1 1-.1 1.6.6.4.9 1.4.5 2.3-.3.9-.3 1.3.1.9s1.2.1 1.9 1 1.6 1.3 2.2 1c1.2-.8 1.5-6.7.3-6.7-.5 0-1.4-.2-2.2-.5-.7-.3-1.9-.1-2.7.4zM192.637 469.358c0 1.4.2 1.9.5 1.2.2-.6.2-1.8 0-2.5-.3-.6-.5-.1-.5 1.3zM577.137 473.758c-1.8 1.4-2.3 3.6-.7 3.6 1 0 3.4-3.9 2.8-4.5-.2-.2-1.1.2-2.1.9zM199.937 475.358c-.3.5-.1 1 .4 1 .6 0 1.1-.5 1.1-1 0-.6-.2-1-.4-1-.3 0-.8.4-1.1 1zM297.037 543.858c-.3.9-1 1.4-1.5 1-.5-.3-1.2.4-1.6 1.5-.4 1.1-1.5 2-2.6 2s-1.7.4-1.4 1c1 1.6-1.4 5-3.6 5-1.1 0-3.8 1.8-5.9 4-3.4 3.5-4.2 3.9-7.2 3.4-1.8-.4-4.2-1.4-5.2-2.3-1.4-1.1-1.7-1.2-1.1-.2.6 1.1.4 1.3-.9.8-1.4-.6-1.6-.3-1.1 1.3.5 1.5 0 2.1-1.9 2.6-4 1-2.1 2.2 2.9 1.9 2.5-.2 6.1.1 8.1.5 3.4.8 3.6.7 3-1.3-.4-1.9-.2-1.8 1.5.5 1.3 1.7 3 2.8 4.5 2.8 2.3 0 6.4 3.1 6.4 4.9 0 .5 2.1 1.4 4.8 1.9 7.7 1.7 10.2 2 10.2 1.1 0-1.5 3.4-.9 5.5.9 1.2.9 2.5 2.6 2.9 3.7.5 1.3 1 1.5 1.3.7.3-.6 1-1.2 1.7-1.2s2.1-.9 3.1-2c1.6-1.8 2-1.9 3.5-.5 2.5 2.3 3.3.5 1-2.1l-2.1-2.2 2.6-.6c1.5-.4 3.5-.4 4.6-.1 1.3.5 1.9.2 1.9-1 0-.8.6-1.8 1.4-2.1.8-.3 1.7-1.7 2.1-3.1.8-3.5 2.6-5.1 4.9-4.5 1.5.4 1.8.1 1.3-1.1-.3-.9.1-1.8.9-2.1 2-.8 5.1.8 3.6 1.8-.6.4-.9 1.3-.6 2.1.3.8-.2 1.5-1.3 1.8-1 .2-.3.2 1.5 0 1.7-.2 3.2 0 3.2.4.1.4 1.2 2.1 2.5 3.7 1.8 2.3 2.3 2.5 2 1-.2-1-.4-2.3-.4-2.7-.1-.5-.5-.5-1.1-.2-1 .6-1.4-1.3-1.1-4.8.2-1-.8-2.1-2.4-2.7-2.2-.8-2.6-1.5-2.3-4.2.3-3.1.1-3.3-3.7-3.9-2.8-.5-4.5-.3-5.6.7-1 .9-2.7 1.2-4.6.8-2.5-.5-3.1-.2-3.6 1.5-.4 1.8-1 2-3.9 1.5-3.8-.8-6-2.4-4-3.1.6-.3 1.2-1.1 1.2-2 0-1.1-.9-1.4-3.4-1.2-1.9.2-3.8 0-4.2-.4-.4-.4-2-.7-3.5-.7-1.7 0-3.4-.9-4.6-2.4-2.3-3.2-6.8-4.4-7.7-2.1zM231.437 562.758c0 .9.5 1.6 1 1.6.6 0 1-.4 1-.9 0-.6-.4-1.3-1-1.6-.5-.3-1 .1-1 .9z"/><path d="M241.437 563.458c0 1.5-.5 1.9-1.9 1.4-1.1-.3-2.2-.1-2.5.4-.4.5-2.6.8-5.1.6-3.2-.3-4.3 0-3.9.9.3.8-1.1 1.8-3.6 2.6-2.2.7-4 1.7-4 2.2 0 .4-.8.8-1.7.8-1.6.1-1.6.2.2 1.6 1.1.9 1.5 1.8.9 2-1.2.5-.6 6.4.7 6.4.5 0 1.2-.7 1.5-1.5.9-2.3 2.4-.7 2.4 2.6 0 3.4 2.2 3.9 4.3.9.8-1.1 3.4-3.6 5.9-5.5 2.5-1.9 5.1-4.6 5.8-6 1.1-2 2-2.5 4.4-2.3 2.5.2 3-.1 2.8-1.5-.2-1.2.4-1.7 2.1-1.7 2.6 0 4.4-2.5 2.6-3.5-.5-.4-.7-1.1-.4-1.6.9-1.3-1.2-1.1-3.4.3-1.5.9-2.5.9-4.5 0-2.3-1-2.6-.9-2.6.9zM253.937 562.358c.7 1.1 4.5 3.3 4.5 2.6 0-.2-.7-1.2-1.6-2-1.7-1.8-3.9-2.2-2.9-.6zM355.537 566.958c0 1.1.3 1.4.6.6.3-.7.2-1.6-.1-1.9-.3-.4-.6.2-.5 1.3zM388.237 572.058c.7.3 1.6.2 1.9-.1.4-.3-.2-.6-1.3-.5-1.1 0-1.4.3-.6.6zM217.737 589.958c-1.7.7-3.5 1.8-3.8 2.4-.9 1.5 2.3 5 4.4 4.9 1 0 1.2-.2.4-.6-2.2-.8-1.4-3.1 1.2-3.7 1.6-.4 2.5-1.3 2.5-2.6 0-2.3-.4-2.3-4.7-.4zM205.237 593.058c-1 .2-1.8.9-1.8 1.4 0 .6.5.7 1.1.4.5-.4 1.9.1 3 1.1 2.6 2.4 5.9 2.6 5.9.3 0-1-1.2-2.1-3.1-2.8-1.8-.6-3.2-1-3.3-1-.1.1-.9.3-1.8.6zM218.637 600.158c-.9.6-.6 1.2 1.3 2 2.7 1.2 2.8 1.2 1.9-1.2-.7-1.8-1.3-1.9-3.2-.8zM201.937 608.058c-.8 1.2-1.5 2.6-1.5 3.1 0 1.5-4.8 1.1-6.1-.4-1.7-2.1-4.9-1.7-4.9.5 0 1.1-.5 2.3-1.1 2.6-.5.4-.9 1.7-.7 3 .1 1.2-.4 3-1.1 3.9-1.1 1.3-1.1 2-.3 2.8.9.9 1.2.9 1.2 0 0-.7 1.1-1.2 2.5-1.2 2 0 2.5-.5 2.5-2.5 0-1.7.6-2.5 1.8-2.5 1.4 0 1.5-.2.2-1s-1.3-1 0-1c.8 0 3.1 1.6 5.2 3.7 3.1 3 4 3.4 5.3 2.3 2-1.7 6.2 1 7.1 4.6.5 2 1.1 2.4 2.8 2 1.1-.3 2.9-.6 3.8-.6 2.5 0 1.7-3.8-1.3-6.1-2-1.5-2.1-1.9-.6-1.9.9 0 1.8-.6 1.9-1.3 0-.6.2-1.7.2-2.2.1-.6.4-1.5.8-2 .8-1.3.4-6.3-.6-7.2-.3-.4-4-.7-8.2-.7-6.7-.1-7.7.1-8.9 2.1zM223.437 626.258c0 .5.9 1.1 1.9 1.4 1.4.3 1.8.1 1.4-.9-.6-1.5-3.3-1.9-3.3-.5zM224.537 630.058c.7 1.2 1.5 2 1.8 1.7.3-.2-.3-1.2-1.3-2.2-1.7-1.6-1.8-1.6-.5.5zM223.737 637.558c-.2 1.6.1 1.8 1 .9.7-.7.8-1.4.1-2.1-.6-.6-1-.2-1.1 1.2z"/></g></svg>