<?xml version="1.0" standalone="no"?>
<!DOCTYPE svg PUBLIC "-//W3C//DTD SVG 20010904//EN"
 "http://www.w3.org/TR/2001/REC-SVG-20010904/DTD/svg10.dtd">
<svg version="1.0" xmlns="http://www.w3.org/2000/svg"
 width="429.657497pt" height="372.251871pt" viewBox="0 0 429.657497 372.251871"
 preserveAspectRatio="xMidYMid meet">
<metadata>
Created by potrace 1.15, written by Peter Selinger 2001-2017
</metadata>
<g transform="translate(-769.342503,1171.161960) scale(0.100000,-0.100000)"
fill="#222222" stroke="none">
<path d="M11378 11687 c-34 -19 -58 -39 -58 -48 0 -21 -35 -44 -87 -58 -23 -6
-44 -18 -47 -27 -5 -12 -10 -14 -19 -5 -17 13 -44 -5 -49 -34 -2 -11 -12 -21
-23 -24 -24 -4 -35 -19 -35 -47 0 -11 -9 -29 -20 -39 -11 -10 -20 -24 -20 -31
0 -7 -9 -16 -20 -19 -11 -3 -23 -17 -26 -31 -4 -15 -12 -23 -22 -22 -9 2 -21
-6 -27 -18 -8 -17 -15 -19 -38 -11 -16 5 -29 7 -30 6 -33 -63 -36 -72 -28 -88
5 -9 6 -23 1 -31 -4 -7 -6 -19 -3 -27 7 -17 -6 -85 -15 -79 -7 4 -10 -20 -13
-117 -2 -54 -5 -60 -36 -84 -45 -34 -62 -78 -68 -174 -3 -44 -9 -109 -14 -145
-6 -36 -8 -71 -5 -77 7 -19 -80 -107 -105 -107 -14 0 -21 -5 -18 -12 2 -7 10
-37 18 -66 12 -48 12 -55 -3 -63 -20 -11 -61 -79 -48 -79 6 0 10 -7 10 -15 0
-8 -9 -15 -21 -15 -14 0 -18 -4 -12 -12 4 -7 8 -23 8 -35 1 -17 -2 -20 -12
-11 -9 7 -17 7 -27 -1 -8 -7 -27 -8 -47 -4 -30 6 -33 5 -21 -10 22 -26 -12
-37 -71 -21 -42 11 -53 11 -72 -2 -12 -8 -30 -12 -39 -8 -26 10 -66 -4 -66
-25 0 -28 -9 -30 -60 -15 -41 12 -52 12 -81 0 -37 -15 -107 -9 -147 13 -22 12
-23 11 -13 -7 9 -17 7 -21 -12 -27 -47 -15 -69 -13 -88 6 -18 18 -19 18 -19 1
0 -11 -11 -24 -24 -30 -20 -9 -27 -7 -42 9 -9 10 -22 19 -28 19 -6 0 -33 23
-60 50 -27 27 -53 47 -58 44 -4 -3 -8 2 -8 10 0 9 -5 16 -11 16 -16 0 -109 96
-109 113 0 20 -29 43 -51 39 -10 -2 -30 4 -44 14 -24 15 -25 15 -26 -2 -3 -52
-5 -59 -17 -56 -10 2 -9 -6 4 -27 15 -25 16 -35 6 -56 -10 -21 -16 -24 -37
-19 -21 5 -25 3 -25 -15 0 -12 -4 -21 -10 -21 -5 0 -10 -7 -10 -15 0 -9 -7
-18 -16 -22 -8 -3 -13 -12 -10 -19 3 -8 -1 -14 -9 -14 -8 0 -12 -6 -9 -14 3
-8 -3 -19 -15 -25 -11 -7 -32 -23 -45 -36 -14 -14 -32 -25 -41 -25 -10 0 -15
-9 -15 -28 0 -19 -11 -38 -35 -61 -41 -38 -43 -47 -12 -55 33 -9 37 -8 30 10
-5 13 -3 15 13 6 16 -8 24 -6 42 13 12 12 22 30 22 39 0 9 7 16 16 16 13 0 15
-7 11 -29 -3 -16 -3 -32 1 -35 7 -7 3 -86 -5 -99 -2 -4 -13 -2 -24 3 -15 8
-19 7 -19 -4 0 -8 -9 -18 -20 -21 -11 -3 -20 -13 -20 -21 0 -17 -5 -17 -31 -4
-10 6 -19 21 -19 34 0 28 -19 38 -77 41 -43 2 -43 2 -43 -31 0 -40 -3 -41 -30
-14 -21 21 -46 28 -34 8 4 -6 -1 -17 -11 -25 -18 -12 -18 -13 2 -13 12 0 24
-4 27 -9 7 -10 -17 -21 -45 -21 -12 0 -19 -7 -19 -18 0 -20 -57 -46 -81 -37
-18 6 -32 -4 -46 -36 -11 -26 -57 -44 -77 -32 -5 4 -28 8 -52 10 -23 2 -55 10
-71 18 -36 19 -53 19 -53 0 0 -8 -7 -15 -15 -15 -9 0 -12 -6 -9 -15 4 -8 4
-15 1 -15 -14 0 -57 24 -57 32 0 4 -7 8 -15 8 -9 0 -25 9 -36 19 -34 31 -126
72 -214 93 -22 5 -60 16 -85 24 -25 8 -57 14 -72 14 -15 0 -30 5 -33 10 -9 14
-25 12 -22 -2 1 -8 -10 -14 -26 -16 -19 -2 -31 -11 -37 -27 -5 -13 -19 -29
-30 -35 -21 -11 -21 -12 -3 -33 33 -40 46 -71 57 -137 l11 -65 36 -3 c30 -2
37 1 42 17 3 12 13 21 24 21 22 0 63 39 63 59 0 10 11 12 39 8 22 -2 43 -1 48
3 4 4 27 10 51 12 34 3 43 0 48 -14 3 -10 10 -18 15 -18 5 0 9 -9 9 -20 0 -18
6 -20 40 -18 29 2 40 7 40 19 0 27 25 42 40 24 10 -12 10 -18 -1 -31 -7 -8
-14 -25 -15 -37 -1 -12 -4 -29 -6 -37 -1 -8 5 -50 15 -92 15 -63 22 -78 37
-78 12 0 21 -10 25 -30 4 -19 19 -37 41 -50 22 -14 34 -29 34 -44 0 -16 12
-28 44 -43 24 -12 47 -31 51 -42 3 -12 13 -21 21 -21 23 0 67 -76 60 -103 -4
-19 0 -27 19 -37 18 -10 24 -19 19 -32 -3 -11 1 -27 9 -36 20 -24 30 -70 14
-69 -44 1 -67 -5 -67 -17 0 -19 -20 -32 -29 -19 -3 5 -17 6 -31 3 l-25 -7 27
-13 c15 -7 25 -17 22 -22 -3 -5 -1 -15 6 -22 8 -11 5 -20 -13 -40 -13 -14 -31
-26 -38 -26 -10 -1 -9 -4 4 -11 9 -5 17 -15 17 -22 0 -7 10 -17 23 -22 16 -7
24 -21 28 -50 3 -22 9 -50 13 -62 5 -16 3 -23 -6 -23 -9 0 -10 -2 -1 -8 6 -4
13 -14 15 -22 4 -19 54 -97 81 -127 11 -13 32 -23 45 -23 21 0 23 -2 12 -16
-8 -8 -9 -14 -4 -13 31 6 55 -2 53 -18 -4 -46 12 -55 50 -31 15 9 17 16 11 29
-7 12 -5 21 5 29 12 10 7 19 -35 56 -41 39 -48 50 -45 77 5 50 9 62 24 68 11
4 10 8 -3 21 -9 9 -12 19 -8 22 9 5 72 8 102 5 8 -1 22 2 31 5 12 5 27 -3 48
-23 18 -17 34 -31 37 -31 15 0 53 59 54 84 0 27 1 28 43 24 35 -4 45 -1 63 20
l20 24 37 -34 c21 -20 37 -29 37 -22 0 8 7 14 15 14 8 0 15 5 15 10 0 6 7 10
16 10 11 0 15 8 12 28 -3 24 0 27 32 30 19 1 47 7 61 13 20 8 35 7 62 -5 43
-18 102 -6 109 22 4 15 17 19 66 20 34 1 73 -3 87 -8 14 -5 25 -6 25 -1 0 5
22 26 50 47 42 32 49 41 44 63 -6 24 -4 23 20 -8 14 -19 26 -41 26 -48 0 -7 5
-13 10 -13 6 0 8 11 4 25 -6 25 9 35 21 15 4 -6 11 -8 16 -4 5 3 6 10 3 16 -4
6 1 8 13 4 35 -11 56 25 51 88 -4 46 -2 55 13 59 10 3 27 23 38 46 17 33 27
41 49 41 20 0 33 9 49 34 12 19 32 36 44 38 16 2 27 19 46 68 45 120 47 130
26 146 -16 13 -12 14 42 11 33 -2 68 -7 78 -11 12 -6 17 -4 17 9 0 11 6 15 18
11 13 -5 24 5 42 39 18 33 31 45 47 45 13 0 23 4 23 8 0 4 12 22 28 40 25 31
29 32 59 22 27 -10 37 -9 63 6 17 10 28 24 26 31 -3 7 0 13 7 13 7 0 3 7 -7
15 -19 14 -18 15 11 15 23 0 33 6 38 20 3 11 12 20 19 20 8 0 16 13 19 28 5
26 9 28 37 24 32 -5 75 22 64 39 -8 14 10 10 32 -6 10 -8 22 -15 26 -15 9 0
27 90 21 106 -4 11 1 12 25 3 17 -6 36 -17 43 -25 13 -16 29 -10 29 12 0 8 -4
12 -10 9 -5 -3 -10 -1 -10 4 0 6 -9 20 -19 30 -19 19 -19 20 2 47 12 15 33 39
47 52 16 15 24 32 22 47 -2 16 3 25 17 30 12 4 21 15 21 26 0 15 4 18 16 11
27 -15 64 8 64 40 0 15 4 29 9 33 13 7 41 64 41 82 0 7 7 13 15 13 16 0 18 14
6 44 -6 16 0 24 33 40 49 26 67 71 36 93 -16 12 -19 21 -13 61 4 31 14 54 28
67 28 25 38 54 26 69 -6 7 -13 42 -17 78 -7 66 -6 66 23 81 31 17 46 59 59
170 4 37 12 61 21 64 8 3 12 12 9 20 -6 15 -4 18 39 67 15 18 22 33 16 40 -16
21 -21 112 -6 133 13 18 12 23 -10 43 -17 16 -23 30 -19 42 4 13 -5 28 -30 50
-40 35 -46 58 -16 58 14 0 22 11 29 38 6 20 11 43 11 50 0 6 4 12 9 12 15 0
-1 44 -21 58 -18 13 -18 15 9 40 15 15 30 27 33 27 3 1 14 4 26 8 13 5 37 0
65 -12 32 -15 45 -17 51 -8 17 26 7 37 -43 43 -45 6 -53 11 -64 38 -9 20 -21
32 -34 33 -23 2 -95 53 -86 61 2 3 0 11 -6 18 -12 15 -2 57 12 49 16 -11 9 21
-8 38 -17 14 -23 13 -75 -16z m-768 -1768 c0 -6 7 -9 15 -5 8 3 15 1 15 -4 0
-6 -11 -10 -25 -10 -16 0 -25 6 -25 15 0 8 5 15 10 15 6 0 10 -5 10 -11z"/>
<path d="M11930 11620 c0 -5 5 -10 10 -10 6 0 10 5 10 10 0 6 -4 10 -10 10 -5
0 -10 -4 -10 -10z"/>
<path d="M11951 11603 c-10 -22 -10 -24 1 -16 7 6 18 12 25 14 8 3 8 7 -2 16
-10 9 -15 6 -24 -14z"/>
<path d="M11870 11566 c0 -14 5 -26 10 -26 6 0 10 7 10 15 0 8 0 18 1 22 0 4
-4 9 -10 11 -6 2 -11 -8 -11 -22z"/>
<path d="M11927 11562 c3 -15 -2 -21 -22 -26 -20 -5 -25 -11 -20 -25 3 -11 1
-22 -5 -26 -8 -5 -8 -11 1 -21 15 -19 29 -18 29 2 0 11 6 15 20 11 13 -3 25 2
33 14 8 10 17 16 20 12 4 -3 7 -3 7 1 0 4 -15 23 -34 42 -25 26 -33 30 -29 16z"/>
<path d="M11840 11515 c-20 -24 -6 -28 15 -5 10 11 13 20 8 20 -6 0 -16 -7
-23 -15z"/>
<path d="M11740 11476 c0 -28 19 -38 37 -20 17 17 16 31 -3 38 -27 10 -34 7
-34 -18z"/>
<path d="M11705 11460 c3 -5 10 -10 16 -10 5 0 9 5 9 10 0 6 -7 10 -16 10 -8
0 -12 -4 -9 -10z"/>
<path d="M8984 9675 c26 -19 42 -19 26 0 -7 8 -20 15 -29 15 -13 -1 -13 -3 3
-15z"/>
<path d="M8663 8059 c-16 -16 -17 -49 -3 -49 13 0 23 24 18 45 -2 13 -5 14
-15 4z"/>
</g>
</svg>
