<svg version="1" xmlns="http://www.w3.org/2000/svg" width="990.2" height="985.81" viewBox="0 0 742.65 739.358"><g fill="#222"><path d="M76.45 2.066c.4 2.3.3 2.4-2.4 1.4-3.7-1.4-7.9-.4-9.7 2.4-1.3 1.9-1.3 2.7-.1 5.5 1.7 4.1 1.7 4.1-.1 4.1-.8 0-1.5.4-1.5 1 0 .5-1.6 1.2-3.5 1.6-1.9.3-3.7 1-4 1.3-.7 1.2-13.8-.9-15.5-2.4-.8-.7-3.3-1.5-5.5-1.7-3.7-.3-4-.1-4.3 2.4-.2 1.6-.9 2.8-1.6 2.8-.8 0-1.6 1.4-2 3.1-.5 2.6-.9 2.9-2.7 2.4-2.8-.9-4 1.1-3.3 5.2.5 2.6.3 3.3-1 3.3-.9 0-1.6.8-1.6 2 0 1.8-.3 1.9-2.1 1-1.1-.6-2.5-1-3-.8-1.3.4-2.1 15.6-.8 16.4.5.3.7 1.4.4 2.4-.4 1.2.1 1.9 1.5 2.3 1.9.5 2.9 3.7 1.2 3.7-1.1 0-4.2 6.6-4.2 9 0 1.1-.5 2-1 2-.6 0-.8 1.1-.4 2.5.7 2.6-1.1 5.9-2.7 4.9-.5-.3-.9 0-.9.5 0 .6-.6 1.1-1.4 1.1-1.5 0-2.6 2.1-2.6 5.1 0 1-.5 1.9-1.1 1.9-.5 0-.7.5-.4 1.1.5.7 1.4.5 2.9-.5 2.1-1.3 2.5-1.2 5 1.5 1.7 1.7 3.9 2.9 5.4 3 1.5 0 3.6.4 4.7.9 1.8.7 1.9.8.3 1.5-2.9 1.2-2 2.1 1.6 1.7 2.3-.3 3.8-1.2 4.6-2.8 1.5-2.8 3.4-1.8 4.4 2.2 1 3.7 3.1 2.3 3.1-2 0-4.4-2.6-6.6-5.1-4.5-1.3 1-1.7 1-2.5-.2-.5-.8-.9-1-.9-.4 0 .5-.5.2-1.1-.7-.6-1.2-.6-2.4 0-3.6.6-1.1.6-2.4 0-3.5-.7-1.1-.6-1.7.1-1.7.5 0 1-.6 1-1.3 0-.8 1.1-1.9 2.5-2.5 2-.9 2.5-1.9 2.5-4.7 0-3.3.2-3.6 2.7-3.3 2.2.3 2.8-.2 3.4-2.6.5-1.7.4-3.5 0-4-1-1.2.2-5.1 1.9-6.1.8-.5.8-1.1-.1-2.1-.9-1.1-.8-1.4.5-1.4 1 0 1.6.8 1.6 2.2 0 2.1 0 2.1 2.3-.3 1.6-1.6 2-2.8 1.4-3.7-.7-.9-1.3-.9-2.4-.1-1.7 1.5-2.1 1.1-2.3-2.6-.4-5.1-.2-5.2 5.7-5.2 4.6 0 5.3.2 4 1.2-.9.7-1.4 1.5-1 1.8.9 1-1.2.9-3.9-.2-2-.7-2.4-.6-2.5.9-.2 2.8 2.8 3.3 5.9 1 1.5-1.1 3.2-2 3.8-2 1.7 0 1.1 1.7-1.2 3.4s-2.3 1.7.9 1.2c2-.3 3.5 0 4.3.9.9 1.1 1.7 1.2 3 .5 2.6-1.4 2.8-1.3 2.8 1.4 0 2-.5 2.3-2.6 2.1-1.4-.1-3.1-1.1-3.9-2.1-1.8-2.5-1.6 0 .3 3.7 2.2 4.4 1.5 9.3-1.4 9.7-1.9.3-2.3.9-2 3 .2 2.1.8 2.6 2.5 2.5 1.5-.2 2.5.7 3.7 3.2 1 1.9 1.9 3.5 2.2 3.5 1.9 0 4.4-2.4 4.4-4.3 0-1.3 1.3-3.3 3-4.7 1.7-1.4 3-3 3-3.7 0-.8 1.3-1.3 3.2-1.3h3.2l-2.4 1.7c-1.4.9-2.7 1.8-2.9 2-.2.1.2 1.1 1 2 .9 1 2.1 3.1 2.8 4.8 1.9 4.7 6.2 10.5 7.7 10.5.7 0 1.9 1 2.5 2.2.7 1.3 1.8 2.9 2.6 3.7.9.9 1.2 2.4.8 4.2-.5 2.4-.1 3.5 2.3 5.9 1.7 1.6 3.3 3.5 3.5 4.2.3.8.6.6.6-.5.1-2.3 1.8-2.2 3.1.2.6 1.2.7 2.9.1 4.3-.5 1.4-.5 3.1 0 4 1.3 2.4 6.3.9 6.7-2.1.2-1.5.9-2.1 1.8-1.7.8.3 1.4.1 1.4-.5 0-.5 1.1-1.4 2.5-1.9 2.8-1.1 3.2-3.1 1-5-2.2-1.8-2-4.4.3-3.5.9.4 3.1 1.3 4.7 2 9.5 3.9 9.3 3.7 9.1 6.9-.1 2.6.5 3.4 3.9 5.2 2.2 1.2 5.2 2.3 6.7 2.3 1.5.1 3 .6 3.3 1.1.4.6 1.1.8 1.6.5.5-.4 2 .5 3.4 1.9 3 3 4.3 3.2 5.1 1.1.4-.8 1.2-1.5 2-1.5s1.4-.7 1.4-1.6c0-2.2 4.2-6 6.2-5.6.8.2 2.4 1.8 3.4 3.7 1 1.9 2.8 3.6 4 3.9 2.7.7 6.3 5.8 4.5 6.4-.8.3-.1 1.7 2 3.8 1.8 1.9 3 3.4 2.6 3.4-.4 0-.3.8.2 1.8 1.1 2.1.5 3.2-2.8 5-3 1.7-3.9.7-4.3-4.8-.3-4.4-.4-4.5-4.3-5.1-5-.6-8.5-2.5-8.5-4.4 0-.8-.7-1.5-1.5-1.5-1.4 0-1.3.3.1 2.5 1.1 1.7 1.2 2.5.4 2.5-.7 0-.9.8-.5 2 .4 1.1 0 2.9-.9 4.2-.9 1.2-1.6 3-1.6 3.9 0 .9-.7 2.2-1.5 2.9-1.2 1-1.7.6-2.9-2.2-.7-1.8-1.8-5.3-2.4-7.8-.9-3.7-.8-4.6.6-5.6s1.5-1.5.4-2.6-1.4-1-2.1.1c-.5.8-1.6 1.1-2.4.8-1.9-.7-3 .3-1.8 1.7 2.8 3.6 1.6 9.6-1.9 9.6-1.8 0-1.8.1-.2 3 .9 1.6 2.2 3 2.9 3 .7 0 1.4 2.3 1.8 5.5.5 3.7 1.2 5.5 2.1 5.5.8 0 1.4.7 1.4 1.5 0 1.8-3 2-3 .2 0-.6-.9-.1-2 1.3-1.2 1.6-1.5 2.9-.9 3.5 1.4 1.4 1.1 2.3-1.1 3-1.2.4-2 1.5-2 2.9 0 1.3-.6 2.8-1.2 3.3-2.3 1.8-6.9 2.4-8.4 1.2-1.7-1.4-1.7-.9-.4 2.5.8 2.1.5 2.8-1.7 4.6-1.4 1.1-2.2 2-1.8 2 .5 0 0 .8-.9 1.9-1.5 1.6-1.5 1.9-.1 2.4 1.8.8 2 5.7.3 5.7-.9 0-.8.3.2 1 .8.5 1.5 2.6 1.7 4.6.2 3.1-.4 4.2-3.1 6.8-3.5 3.3-5.5 8.9-3.6 10.1.6.4 1.7.1 2.5-.5.8-.7 2.4-1 3.5-.7 1.5.4 2.2-.2 3-2.8.8-2.4 1.8-3.4 3.9-3.8 2.5-.5 2.8-1 2.9-5.1.2-5.2 1.7-9.6 3.2-9.6.5 0 1-.6 1-1.4 0-.7.6-1.9 1.4-2.5 1-.8 1.2-2.8.9-7.5-.6-6.6.7-9.3 2.7-5.7.6 1.2 1.6 1.8 2.5 1.5 1.8-.7 1.9.2.4 4.4-.8 2.3-.7 3.6.2 5.3.9 1.7.9 2.4 0 2.7-1.8.6-1.3 2.7 1.5 5.3 2.9 2.7 4.4 5.1 4.9 8.1.3 1.2 1.3 3.1 2.3 4.2 1 1.2 2.4 4.1 3.1 6.6.8 2.5 1.8 5.7 2.3 7.2.6 1.5.7 3.2.3 3.7-.3.6 0 1.4.8 1.7 2 .7 1.8 7.2-.3 10.4-1 1.4-1.5 3.1-1.3 3.7.3.7-.1 1.3-.7 1.3-.9 0-1 .4-.2 1.3.7.9 3 1.2 6.5 1 4.6-.2 5.8.1 7.7 2.2 1.2 1.3 2 3 1.8 3.7-.8 2 .9 5.8 2.6 5.8.7 0 1.6 1 1.9 2.1.5 2 .7 2 2.1.6.9-.9 1.6-2 1.6-2.6 0-3.5 7.9 2.5 9.8 7.4.9 2.2 1.9 4.3 2.4 4.6.5.3.6 1.3.3 2.1s.1 2.2.9 3.1c.9.8 1.5 2.6 1.5 3.9-.1 1.3.4 4.5 1.2 7.1 1 3.6 1.1 5.2.2 6.6-.9 1.4-.7 2 .8 3 1.1.6 2.5.9 3 .5.6-.3 2.4.8 3.9 2.5 1.6 1.7 3.4 3.1 3.9 3.1.6 0 1.1.4 1.1 1 0 .5-.4 1-.9 1-2.1 0-2 3.3.1 4.8 1.3.9 4 3.3 6.1 5.4 2.9 2.8 3.7 4.2 3.2 5.8-.5 1.6-.2 2 1.4 2 1.2 0 2.1-.4 2.1-.9 0-.6 1.7-.9 3.8-.9 4.4.2 9.7-2.1 9.7-4.2 0-2.5 3.5-3.9 6.7-2.8 2.5.9 3.2 1.9 2.9 4 0 .3 1.3 1.1 2.9 1.7 2.4.8 3 .7 3-.5 0-2.3 1.6-1.6 4.4 2.1 2.1 2.7 3.4 3.5 5.9 3.5 1.8 0 4.4.6 5.9 1.4 2.3 1.2 2.6 1.2 2.1 0-.6-1.7.1-1.8 2.8-.4 1.4.8 1.9.7 1.9-.1 0-.7.8-.5 2 .6 1.6 1.5 2.2 1.6 3.5.5 1.3-1 1.9-1 3.3.4 1 .9 2.2 1.6 2.7 1.6s2 1.1 3.4 2.4c1.5 1.4 4.9 3.3 7.6 4.3 3.6 1.4 4.9 2.4 4.7 3.6-.2 1.2.4 1.7 2.3 1.7 3.1 0 8.5 5.4 8.5 8.4 0 1.1 1.2 3.7 2.7 5.8 2.8 4.1 2.8 4.1-.9 11.1-.7 1.4-.3 2.8 1.5 5.6 1.8 2.7 2.2 4.2 1.6 5.9-.5 1.2-.6 2.9-.3 3.7.4.9.1 1.5-.7 1.5-.8 0-.4.9.9 2.3 1.2 1.3 2.2 2.9 2.2 3.5 0 .7.7 1.2 1.6 1.2.9 0 2.8.9 4.2 2 2.1 1.7 2.7 1.8 3.4.7.6-1.2 2.2-1.4 6.1-.8.5 0 .6.5.3 1-.6.9 15.1 12.6 17 12.6 1.7 0 7.8 7.9 6.5 8.3-.6.2-1.1 1.4-1.1 2.7 0 1.3-.4 2.6-1 3-1.5.9 0 3.5 2.1 3.5 1 0 1.9-.5 1.9-1 0-.6.7-1 1.5-1 1 0 1.5 1 1.5 2.9 0 1.7.5 3.3 1 3.6.6.3 1 1.5 1 2.5 0 2.7 3 7.5 5.4 8.6 2.6 1.2 5.1 9.1 3.7 11.6-1.5 2.4-.4 4.5 2.5 5.2 1.3.4 3.1 2 4 3.8 1.2 2.3 1.8 2.8 2.4 1.7.6-.8.4-1.6-.3-2.1-.9-.6-.9-.8.1-.8.6 0 1.2-.9 1.2-1.9 0-1 .7-2.1 1.5-2.5.9-.3 1.5 0 1.5 1 0 .8.5 1.2 1 .9 1.6-1 1.2-4.1-1.1-8.4-2-3.9-1.9-6.8.3-5.5.7.5.9-.3.5-2.2-.4-2.2.1-3.6 2.4-6.2 1.6-1.8 2.9-4.4 2.9-5.7 0-2.1.6-2.5 4.5-3.1 4.1-.6 4.5-.9 4.5-3.4 0-1.5.7-3.3 1.6-4.1 1-.8 1.3-2.1.9-3.6-.4-1.6-.1-2.3 1-2.3s1.3-.5.6-2.3c-.5-1.2-1.5-4.1-2.1-6.4-.7-2.3-1.8-4.4-2.5-4.7-1.1-.4-3-6-2.6-7.9.1-.4-.6-2.2-1.5-3.9-1.1-2.2-1.3-3.3-.5-3.6.8-.3.8-.9 0-2.3-.5-1.1-1.4-1.7-1.9-1.4-1 .6-2.4-1.3-2.5-3.6-.1-1 .4-1.5 1.1-1.2.6.2 1.5 0 1.9-.6.3-.6-.1-1.1-.9-1.1-1 0-1.6-.9-1.6-2.1 0-1.7-.4-2-2.4-1.5-1.6.4-2.9 0-4.1-1.4-1.8-1.9-1.7-2 .3-2 1.1 0 2.4.5 2.7 1 .8 1.2 6.4-2.9 6.4-4.8.1-.6.6-1.2 1.1-1.2.6 0 1.6-1.1 2.2-2.5.8-1.8 1.7-2.3 3.2-1.9 1.6.4 2.5-.3 4-3 1.6-3.1 2.3-3.5 4.5-2.9 1.4.3 3.2 1.3 4 2.1 1.3 1.3 1.6 1.2 2.1-.3.3-.9.9-1.6 1.3-1.6 3 .3 3.7-.1 3.7-2.5 0-1.4.4-2.3 1-1.9.6.3 1.6.3 2.3-.2.6-.4 2.1-.8 3.2-.8 1.4 0 2-.6 1.9-2.3 0-1.2.5-2.2 1.3-2.2.7 0 1.3-1.1 1.3-2.5s-.5-2.5-1.1-2.5c-.5 0-1.6-1.5-2.4-3.3-.7-1.7-2.8-4.1-4.5-5.2-1.7-1.1-3.6-2.8-4.2-3.8-.8-1.7-.7-1.8 1.3-1.2 1.7.6 2.1.4 1.6-.8-.3-.8 0-1.8.7-2 .9-.4 1.2-1.5.8-3.2-.5-2.6-.3-2.7 2.7-2 2.8.6 3.2.4 3-1.2-.2-1 0-2.3.4-3 1.3-2.1-.4-4.4-3.2-4.1-2.3.3-2.6 0-2.4-2.7.2-2.7.1-2.8-1.1-1.3-.7 1-1.6 1.8-2.1 1.8-.4 0-1.8.9-3.2 2-3.2 2.5-7.3 2.7-7.3.2-.1-2.2-2.3-5.2-3.9-5.2-1.5 0-5-4-5.1-5.6 0-.7-.7-1.4-1.5-1.8-.8-.3-1.5-1.5-1.5-2.6s-.4-2-1-2c-2 0-7-6.3-7.6-9.6-.3-1.9-1-3.4-1.5-3.4s-.9-.6-.9-1.4c0-.7-.6-1.9-1.4-2.6-.8-.6-1.2-1.8-.9-2.6.3-.8 0-2.1-.7-2.9-.6-.8-.9-1.8-.6-2.3.3-.5-.3-2.1-1.5-3.6-1.1-1.4-2.1-3.5-2.2-4.6-.1-1.4-.8-2-2.4-2-2.9 0-6.7-2.3-11.1-6.7-1.8-1.8-3.6-3.2-4-3.2-2.2.4-3.4-.4-4.2-2.7-.8-1.9-1.6-2.5-3-2.1-1.6.4-2.1-.1-2.6-2.9-.3-1.8-1.2-3.8-2-4.5-1.7-1.4-1.9-5.9-.3-5.9.7 0 0-.9-1.5-2.1-2.4-1.9-2.5-2.2-1.1-4.8.8-1.6 1.1-3.1.8-3.4-.3-.4 0-1.4.7-2.3 1-1.1 1.1-1.7.2-2.3-.7-.4-.8-1.2-.2-2.1.5-.9.3-2.5-.7-4.3-.8-1.6-1.5-5.3-1.5-8.3 0-3.5-.5-5.5-1.4-5.8-2-.8-1.7-2.6.4-2.6 2.7 0 5.3-7.1 4-11.3-.8-2.5-.6-4.1.5-6.9 1.4-3.3 1.4-3.8-.1-5.1-1-.8-2.5-1.7-3.5-2-1.1-.4-1.8-1.6-1.7-2.9.4-4.3.1-5-1.7-4.4-1 .4-1.4.4-1.1 0 1.2-1.2-1.6-2.9-4.7-2.9-1.6 0-3.9.6-4.9 1.2-1.2.6-3 .8-4.8.3-2.2-.7-2.8-.5-2.8.7 0 1.1-.6 1.4-2.4.9-2.3-.6-4.2 1.4-3.8 3.6.3 1.1-.6 1-2.9-.2-1.6-.9-1.9-.7-1.9 1.4 0 1.8-.9 2.8-3.7 4.1-2.1 1-4.6 2.4-5.5 3.2-2.5 2.2-4 .7-3.2-3.3.4-2.2.2-3.4-.5-3.4-.6 0-1.9-1.5-2.7-3.3-1.6-3.1-13-12.5-14.7-11.9-.4.1-1.8-.4-3-1.3-3.4-2.4-5.2-2-3.3.7 2.1 3 2.1 3.1-1.3 4.6-2.8 1.2-3.1 1.1-6.4-2.3-3.4-3.5-6-4.4-7.2-2.5-.4.7-1.1.8-1.8.2-.7-.5-2.7-1.3-4.4-1.7-2.5-.5-3.3-1.2-3.3-2.9 0-1.2-.5-2.7-1.2-3.4-.9-.9-.8-1.2.7-1.2 1.7 0 1.7-.1.2-1.8-2.2-2.4-2.2-5.8 0-7.1 1.7-.9 1.7-1 0-2.8-.9-1.1-1.7-2.6-1.7-3.4 0-1-.2-1.1-.8-.2-1.2 1.8-7.4-2.1-6.6-4.2.4-.9-.1-1.7-1-2.1-.9-.4-2.3-2.1-3.1-3.9-.7-1.9-2.5-4.1-3.9-5-1.4-1-2.6-2.1-2.6-2.6s-1.8-2.7-3.9-5l-4-4-3.2 1.6c-2.2 1.2-3.4 1.4-3.8.6-.8-1.2-5.8-1-7.9.3-1.2.7-6.1-1.9-7.5-4-.4-.7-2-1.5-3.6-1.9-1.6-.3-3.5-1.2-4.1-2-1.4-1.7-4-.8-4 1.4 0 .9-.8 2.4-1.9 3.3-1 .8-2.1 2.2-2.3 2.9-.4 1.1-.9 1-2.5-.4-1.1-.9-2.2-1.4-2.6-1.1-.3.3-1.5.3-2.8-.1-1.6-.5-1.8-.9-.8-1.5 1.1-.7.9-1.3-.6-3-1.1-1.2-1.5-2.1-1-2 3.7.8 4.2 0 3.2-3.9-.6-2.2-1.4-3.8-1.7-3.6-.4.2-2-.9-3.5-2.5-1.6-1.7-2.4-3-1.9-3 .6 0 1.4.3 1.8.7 2.9 2.9 9.1-2.2 6.5-5.3-.9-1.1-.8-1.4.5-1.4.9 0 1.6-.6 1.6-1.4 0-.9.7-1.2 2-.9 2.2.6 2.5-.4 1-2.7-.6-1-1-1.1-1-.3 0 .7-.4 1.3-.9 1.3-1.3 0-2-4.9-.8-5.3.6-.2.7-.8.3-1.5-.3-.6-1.3-.9-2.1-.6-1.1.5-1.2 1-.4 2.6 1.3 2.4-.2 3.8-4.1 3.8-1.9 0-2.9-.8-3.9-3.3-2.5-5.6-5.3-8.8-6.7-7.6-.7.6-1.1 1.6-.8 2.2.2.7-1 2.1-2.8 3.2l-3.3 1.9 3 .7c1.7.4 2.4.7 1.6.8-.8.1-1.1.8-.8 2.1.3 1.1.1 2-.4 2s-.9-.5-.9-1.1c0-.5-.4-.7-1-.4-.5.3-1 .1-1-.5s-1-.8-2.5-.4c-2.7.7-6.4-2.5-9.7-8.1-1-1.7-2.5-4.1-3.5-5.4-1.7-2.3-1.7-2.4.5-1.7 2.5.8 2.8-.1.8-2.9-.7-1.1-1.7-3.5-2.1-5.3-.4-1.8-.9-3.1-1.2-2.8-.3.3-1.4.1-2.5-.5-1.4-.7-2.2-.6-3.4.6-2.3 2.2-5.2 1.9-5.7-.8l-.4-2.2-.2 2.3c-.2 3.3-2.1 1.7-2.1-1.8 0-1.6-.7-3-1.6-3.4-1-.4-1.3-1.3-.9-2.5.4-1.5.1-2-1.7-2.3-1.2-.2-3.2-1.7-4.3-3.5-1.1-1.8-2.6-3-3.2-2.8-.7.2-2.8-.2-4.8-1-2.5-1.1-4.5-1.3-7.4-.6-3.1.7-4.3.5-5.6-.8-1.6-1.5-1.7-1.4-1 .6.4 1.6.2 2.3-.7 2.3-.8 0-1.5-1.2-1.6-2.6-.3-3.5-1.4-4.8-6.4-7.4l-4.1-2.1-2.7 2c-2.9 2.1-7 1.9-7-.5 0-.7-.4-1.5-.9-1.8-.4-.3-.6.6-.3 2zm1.2 5.3c0 .9-2.4 2.1-4.2 2.1-.6 0-.6-.6.2-1.5 1.4-1.6 4-2 4-.6zm23 8c0 1.1.6 2.1 1.3 2.4.6.2.9.8.4 1.2-.4.5-1.2.4-1.8-.2-1.4-1.4-3.9-.6-3.9 1.3 0 .8-.5 1.4-1.1 1.4-.5 0-.7-.5-.4-1 .4-.6.2-1.6-.4-2.3-1.5-1.9.3-4.1 2.8-3.4 1.2.3 1.9.1 1.5-.4-.3-.5 0-.9.5-.9.6 0 1.1.9 1.1 1.9zm-29 .1c0 .5-.2 1-.4 1-.3 0-.8-.5-1.1-1-.3-.6-.1-1 .4-1 .6 0 1.1.4 1.1 1zm14.9 17.4c.8 1 .9 1.6.1 2.1-1.8 1.1-1.1 5.2 1 5.8 1.2.3 2 1.4 2 2.6 0 2.2 1.4 2.8 2.5 1.1.3-.6 1.2-1 1.8-.9.9 0 .9.2 0 .6-1 .3-1 .9 0 2.5.9 1.6.9 2.2 0 2.5-.7.3-1.3 1.4-1.3 2.5 0 1.3-.5 1.8-1.4 1.5-.8-.3-2 .1-2.6.9-1.6 1.8-3 1.8-3-.1 0-.8-.6-1.5-1.4-1.5-.7 0-1.9-.7-2.6-1.5-.7-.9-1.9-1.4-2.6-1.1-.8.3-2.1-.3-3-1.2-1-.9-2.2-1.7-2.8-1.7-.6 0-1.2-1-1.4-2.3-.3-1.7.2-2.5 1.6-2.9 1.1-.3 2.2-1.3 2.5-2.3.3-1.3 1.1-1.7 2.6-1.3 1.5.4 2.1.1 2.1-1.1 0-2.2 2.2-5.6 3.6-5.6.6 0 1.7.6 2.3 1.4zm44.6-.5c1 1.7-1.2 2.1-2.5.6-1-1.2-1-1.5.3-1.5.9 0 1.8.4 2.2.9zm-75.7 2c.5 1.4 5.4 1.5 6.8.1.5-.5 1.5-.6 2.3 0 1.2.7 1.2 1.1.2 2.4-1.1 1.2-1.7 1.4-2.7.5-1.3-1.1-1.8-.6-1.5 1.3.2 1.2-1.7.9-2.5-.3-.4-.7-2.2-.9-4.5-.6-2.7.4-3.9.1-4.3-1-.3-.8-1-1.1-1.6-.8-.5.3-1 .1-1-.5s-.4-.8-1-.5c-.5.3-1.6.3-2.2-.1-1.9-1.2 2.9-2.3 7.7-1.9 2.1.1 4.1.8 4.3 1.4zm38.9 1.3c-.3.7-.5.2-.5-1.2s.2-1.9.5-1.3c.2.7.2 1.9 0 2.5zm-41.4 8.3c-.6 1.7-2.5 1.5-3.1-.3-.2-.7.5-1.2 1.7-1.2 1.4 0 1.9.5 1.4 1.5zm111.5 23c.7.6-2.9 7.3-4.2 7.8-1.2.5-1.3 1.2-.7 2.9.7 1.9-1 10.2-2.4 11.6-.2.2-1.7 0-3.2-.6-2.8-.9-2.9-.9-2.5 2.6.4 3.3.3 3.4-2.1 2.8-1.9-.4-2.9-.1-3.6 1.1-1.1 2-3.1.8-3.5-2-.1-.8-.7-2.1-1.3-2.8-1.7-2.1-2-5.4-.5-5.2 1 .3 1.7-1.9 1-3-.1-.1.4-1.2 1-2.4 1-1.8 1.7-2.1 3.5-1.4 3 1.2 5.2-.5 8-6.1 1.6-3.1 2.7-4.2 4.1-4 1.4.3 1.7-.1 1.3-1.2-.5-1.3-.1-1.5 2.1-1 1.5.4 2.8.8 3 .9zm21.5 21.9c1.2-.4 1.7-.1 1.7 1.1 0 1-.5 1.3-1.2.9-.8-.5-.9-.2-.5 1.1.6 1.4.3 1.6-1.4 1.2-3-.8-5.9.9-5.9 3.3 0 1.1-.6 2-1.4 2-.8 0-1.8.9-2.1 2-.3 1.1-1.1 2-1.6 2-1.2 0-4.3 2.9-5.6 5.3-.9 1.7-1 1.7-3.4-.2-2-1.6-2.8-1.7-4.2-.6-.9.7-1.7 1.8-1.7 2.5 0 1.9-1.3.3-1.7-2-.2-1.2.3-2 1.1-2s1.6-.7 1.8-1.5c.3-1.3.6-1.3 3-.1 3.7 2 7.1 1 6.6-1.9-.3-1.6 0-2.2 1.1-2.1 1.2.1 1.6-.7 1.5-2.9-.3-4.3-.2-4.2-2.4-4.8-1.1-.3-2-1-2-1.7s.8-.9 2.3-.4c1.2.4 3.1.8 4.2.8 1.1.1 2.6.5 3.3.9.8.6 2 0 3.4-1.8 1.3-1.7 2.3-2.3 2.8-1.6.3.7 1.4.9 2.3.5zm-87.3 6.6c0 .5-.2 1-.4 1-.3 0-.8-.5-1.1-1-.3-.6-.1-1 .4-1 .6 0 1.1.4 1.1 1zm186 44.4c0 .3-.4.8-1 1.1-.5.3-1 .1-1-.4 0-.6.5-1.1 1-1.1.6 0 1 .2 1 .4zm-8 4.6c0 .5-.5 1-1.1 1-.5 0-.7-.5-.4-1 .3-.6.8-1 1.1-1 .2 0 .4.4.4 1zm102.8 117.5c-.3.3-.9-.2-1.2-1.2-.6-1.4-.5-1.5.5-.6.7.7 1 1.5.7 1.8zm-26.8 15.5c-.8.5-2.3.7-3.2.4-1-.3-1.8-.1-1.8.5s.5 1.1 1.1 1.1c.6 0 .8.9.4 2-.5 1.4-.2 2 .9 2 1 0 1.6.9 1.6 2.2 0 1.3.3 3.3.6 4.5.5 1.7.2 2.3-1.1 2.3-1.4 0-1.1.8 1.4 4.2 1.7 2.3 3.1 4.8 3.1 5.5 0 1.1 3.2 1.9 4.3 1 .2-.1 1.2.5 2.1 1.3 1.7 1.3 1.7 1.4-.1 2.1-2.6 1.1-6.5 1.1-5.8 0 .6-1-4.3-9-8.1-13.1-1.3-1.4-2.5-3.5-2.7-4.7-.2-1.2-1.1-3.1-2-4.1-2.3-2.5-2.1-3.9.5-4.8 1.3-.4 2.7-1.3 3.3-2 1-1.2 5.5-2.4 6.5-1.6.2.2-.2.7-1 1.2zm-12 33.9c0 .5.7 1.7 1.6 2.6 1.5 1.5 1.5 1.7-.4 2.2-1.2.3-2.2 1.2-2.4 2.2-.3 1.3-.6 1.1-1.7-.8-1.1-1.9-1.1-2.8 0-4.7 1.2-2.4 2.9-3.2 2.9-1.5zm19 1.6c0 .8-.7 1.5-1.6 1.5-1.4 0-1.4-.3-.4-1.5.7-.8 1.4-1.5 1.6-1.5.2 0 .4.7.4 1.5zm58.7 2.2c2.2 2 3.6 6 2.3 6.8-1.9 1.2-6.8-.8-7.9-3.1-1.6-3.6-1.4-4.7.9-4.1 1.1.3 1.8.1 1.4-.4-.9-1.5 1.2-1 3.3.8z"/><path d="M84.15 34.466c.4.6 1.1.8 1.6.5 1.4-.9 1.1-1.5-.7-1.5-.8 0-1.2.5-.9 1zM82.05 41.366c.3.5 0 1.4-.8 2-1.6 1.3-1 5.7.9 6.5.7.2 1.6-.2 1.9-1 .3-.8 1.2-1.4 2-1.4 1 0 1.3.6.9 1.7-.6 1.5-.5 1.6.9.3 1.1-1.1 1.2-1.7.4-2.2-.6-.4-.7-.8-.3-.8 1 0-4.8-6-5.8-6-.3 0-.4.4-.1.9zM161.45 43.266c-1.9.4-2.6 3.2-.8 3.2.5 0 .7.6.4 1.4-.8 2 2.1 2.7 4.4 1 2.2-1.5 2-4.4-.3-4.4-.7 0-1.5-.4-1.7-.8-.1-.4-1.1-.6-2-.4zM182.65 44.166c0 .5.5 1.5 1 2.3.8 1.2 1 1.1 1-.8 0-1.2-.4-2.2-1-2.2-.5 0-1 .3-1 .7zM47.95 80.366c-.7 2.9-6.1 3.6-8.8 1.1-1.2-1.1-2.5-2-3.1-2-.5 0-.2.5.6 1 1.3.9 1.2 1.2-.4 2.5-1.1.8-2.1 2.4-2.3 3.5-.4 3 1.5 7.3 3.1 6.7.7-.3 1.9 0 2.5.6.8.8 1.1.7 1.1-.6 0-1 .8-1.7 2-1.7 1.1 0 2-.5 2-1.1 0-1.7 4.3-4.8 6.8-4.9 3.3 0 3.8-2.6 1.1-5-3-2.5-4-2.5-4.6-.1zM22.25 103.366c-1.6 1.7-1.5 1.8 1.9.7 3.9-1.2 4.5-2.1 1.6-2.3-1.1-.1-2.6.6-3.5 1.6zM109.25 214.266c-.2.9-.7 3.3-1.1 5.2l-.6 3.5 3.4-3.8c1.8-2.2 3.4-4.4 3.4-5.1 0-1.9-4.5-1.8-5.1.2zM106.65 224.166c0 .8-1.3 1.3-2.9 1.3-1.7 0-3.1.6-3.5 1.6-.4 1.1-1.4 1.4-3.4.9-2.1-.4-3.3-.1-4.7 1.5-1.1 1.2-2.5 1.8-3.6 1.5-1.7-.6-4.5.6-7.9 3.1-2.1 1.6-8 2.3-8 1 0-.6-.4-.5-.9.3-.6.9-1.8 1.2-3.2.8l-2.4-.6 2.4 2c1.3 1 3.7 1.9 5.5 1.9 3.7 0 11.5 3.8 20.9 10 5.2 3.4 6.7 5 6.7 6.9 0 2.2.3 2.3 3.6 1.8 2.5-.4 4.5 0 6.9 1.3 1.8 1 4.3 1.6 5.4 1.3 1.2-.3 3.6.1 5.4.8 1.7.8 4 1.2 4.9 1.1 1-.2 2.7.3 3.9 1.2 1.7 1.2 2.5 1.2 4.1.3 1.5-1 2.1-.9 2.8.3.8 1.3 1 1.3 1-.1 0-2.3-2.6-4.4-3.3-2.7-.4 1-.9.9-1.7-.4-.6-1-3.1-2.9-5.5-4.4-2.5-1.4-4.5-3-4.5-3.5s-1.2-1.2-2.6-1.5c-1.6-.4-2.1-.9-1.5-1.4.8-.4-.3-1.7-2.9-3.5-2.2-1.5-4-2.9-4-3.1 0-.1.4-1.4.9-2.7.8-2.1.6-2.6-1.5-3.6-1.8-.8-2.4-1.9-2.4-4.3-.1-3.1-3.9-11.8-4-9.1zM55.15 227.466c-.9 1.4-.7 1.6 2.5 2.4 1.7.5 2.1.4 1.1-.2-.7-.5-1.7-1.5-2.1-2.2-.6-.9-.9-.9-1.5 0zM61.55 227.966c-.1.3-.2.8-.3 1.2-.1.5-.5 1.3-.9 2-.4.6-.2 1.5.4 1.9.8.4.9.3.5-.5-.4-.6 0-1.4.8-1.7 1.8-.7 2.2-3.4.6-3.4-.5 0-1.1.2-1.1.5zM137.65 268.466c0 .5.7 1 1.5 1s1.5-.5 1.5-1c0-.6-.7-1-1.5-1s-1.5.4-1.5 1zM194.15 273.466c-.4.6-1.1.8-1.6.5-.5-.4-.9-.2-.9.3s.9 1.2 1.9 1.5c1.5.3 1.9 0 1.8-1.4-.1-2.2-.3-2.3-1.2-.9zM429.65 286.766c0 .8-.8 1.4-1.7 1.3-1 0-1.8.5-1.8 1.1 0 .7.5 1.3 1 1.4.6 0 1.5 1 2.2 2.2.7 1.2 1.2 1.8 1.3 1.3 0-.5 1-.1 2.2 1 1.6 1.3 1.9 1.4 1 .2-1-1.2-1-1.8-.1-2.3.8-.6.7-1-.5-1.7-.9-.5-1.6-1.8-1.6-2.8 0-1-.4-2.2-1-2.5-.5-.3-1 0-1 .8zM434.95 300.466c-.3 1.1-.9 1.7-1.4 1.4-.5-.3-.9.4-.9 1.5 0 1.4.6 2.1 2 2.1 1.5 0 1.9-.5 1.6-2.3-.2-1.2.1-2.8.6-3.5.7-.8.7-1.2-.2-1.2-.6 0-1.4.9-1.7 2zM281.85 403.466c0 1.4.2 1.9.5 1.2.2-.6.2-1.8 0-2.5-.3-.6-.5-.1-.5 1.3zM281.95 411.966c-1.2.8-2.9 1.2-3.9.8-1.2-.4-1.5-.3-1 .5.4.8 0 1.2-1.1 1.2-2.6.1-6.3 3.5-6.3 5.9 0 1.3-1.1 2.6-2.9 3.5-2.8 1.5-2.9 1.7-1.8 5.8.9 3.8.8 4.3-1.1 5.6-1.2.8-2.2 1.8-2.2 2.2 0 .4-1.6 2.5-3.5 4.6-1.9 2.1-3.5 4.3-3.5 5 0 .7-.9 1.6-2 1.9-1.1.3-2 1.2-2 2 0 .7-.7 1.5-1.5 1.9-.8.3-1.5 1.4-1.5 2.5 0 1.4-.5 1.8-1.9 1.4-2.5-.6-10.9 3.1-11.8 5.2-.3 1 0 2.1.7 2.5.8.5 1.4 2.8 1.5 5.2.1 2.4.5 5.1 1 6.2.7 1.6.9 1.5 2-1 .9-2.1.9-3.1.1-3.6s-.7-.8.2-.8c.7 0 1.5.7 1.8 1.5.7 1.7 6.9 2.1 7.9.4.4-.6 1.3-.8 2-.5.7.2 1.6-.2 1.9-1 .3-.8 1.5-1.4 2.6-1.4s2-.5 2-1c0-.6.9-1 2.1-1 2.8 0 7.7-4.3 10-8.7 1.8-3.5 1.8-3.7-.1-7.9-2.4-5.3-2.4-5.8.3-11.4 1.5-3 2.9-4.6 4.5-4.8 1.2-.2 2.2-.9 2.2-1.5 0-.7.4-.6 1 .3.6 1 1 1.1 1 .2 0-.6.7-1.2 1.5-1.2 1.7 0 1.9-1.1.6-2.6-.4-.5-1.1-2.3-1.4-4.1-.5-2.6-.3-3.3 1.3-3.8 1.1-.4 1.7-1.2 1.3-2.1-.3-.7 0-1.4.6-1.4s1.1-.7 1.1-1.6c0-.9.7-2.2 1.6-2.8 1.3-1 1.4-1.4.2-2.4-1.1-.9-1.9-.8-3.5.3zM493.85 414.666c.2 1.3.5 2.1.8 1.9.3-.2 1.5.1 2.8.8 1.6.8 2.2.9 2.2 0 0-1.2-4-4.8-5.3-4.9-.5 0-.7 1-.5 2.2zM500.55 421.266c-.1.4-.3 2.6-.3 4.9-.2 2.9-1 5.1-2.4 6.6-1.6 1.7-2.2 3.4-2 5.8.2 2.3-.1 3.3-.9 3.1-1.5-.2-1.8 6.4-.4 7.2.4.3.5 2.5.1 4.8-.5 2.4-.4 4.5.1 4.8 1.8 1.2 2.1 6.6.4 8.3-.9 1-1.3 2.2-.9 2.9.5.8.1.8-1-.2-1.6-1.2-2-1.1-3.6 1-1 1.3-2.1 3.7-2.4 5.2-.5 2.4-1 2.8-4 2.8-1.8 0-3.9.7-4.6 1.5-.7.9-2.1 1.3-3 1-1.1-.3-2 .1-2.4 1-.3.9-1.1 1.3-1.6 1-.6-.4-1.7-.2-2.4.4-1.1.9-2.2 0-5.2-3.9-4.2-5.5-5.2-5.9-7.9-3-1 1.1-2.5 2-3.3 2-1 0-1.2.7-.8 2.4.4 1.6-.1 3.2-1.4 4.9-1.1 1.4-2 3.2-2 4 0 1.8-3 3-5.3 2.2-.8-.4-1.8-.2-2.2.4-.4.8-1.2.8-2.6.1-1.5-.9-1.9-.7-1.9.5s-.4 1.4-1.9.5c-1.1-.5-3.5-1-5.4-1-2.6 0-4.3-.9-7.8-4.3-2.4-2.4-5.6-4.7-7.1-5.1-1.6-.3-2.8-1.3-2.8-2 0-1.4-2.1-2.6-4.6-2.6-.9 0-1.2.4-.9 1 .3.5.1 1-.4 1-.6 0-1.1 1.9-1.1 4.1 0 3.6-.3 4.1-1.9 3.6-1.3-.3-2.1.1-2.4 1.4-.3 1.1-1.1 1.7-1.9 1.4-.8-.3-2.5-.2-3.9.3l-2.4.9 3 .7c1.7.4 4.3 1.7 5.9 2.9 2.7 2.2 2.8 2.5 1.7 6-.7 2.1-1.7 3.5-2.1 3.2-.5-.3-.4.8.2 2.5.8 2.5 1.5 3 3.2 2.6 1.4-.3 2.5.1 3.3 1.3.8 1.3 1.9 1.7 3.7 1.4 1.8-.4 2.6-.1 2.6.8.1 2.3 3.8 6 6.7 6.8 2.1.6 2.8 1.4 2.8 3.4.1 1.4.9 3.5 1.8 4.5 1 1.1 1.9 3.3 2 5.1.2 3.7 1.7 4.2 1.7.6 0-2.3.2-2.4 2.1-1.5 1.1.7 1.8 1.4 1.5 1.7-.3.3.4 1.7 1.4 3.1 1.1 1.3 2 3.5 2 4.8 0 1.5.6 2.4 1.5 2.4.8 0 2.4.9 3.5 2s2.7 2 3.5 2c2.1 0 3.1 3 1.4 4-2.2 1.4-.3 2.3 3.1 1.5 3.5-.8 3.6-1.7.9-8.1-1.1-2.8-1-3.5 1-6.3 1.2-1.7 2.9-3.1 3.7-3.1.7 0 2-1.6 2.9-3.6.8-1.9 1.9-3.3 2.5-2.9 1.1.7-.6-4-2.3-6.2-.5-.7-.5-1.8-.1-2.4.4-.7.3-.9-.3-.6-.6.4-1.3-.2-1.6-1.3-.4-1.4.2-2.1 2.4-2.9 2.5-.9 3.1-.6 5.4 2 1.4 1.7 2.5 4 2.5 5.2 0 1.2.7 3.5 1.5 5s1.1 3.4.8 4.3c-.4 1 .2 1.7 1.6 2.1 1.2.3 2 1.1 1.8 1.7-.5 1.5-3.8 2.1-4.6.8-.4-.6-1.2-.8-1.9-.3-.9.5-.7 1.2.7 2.8 1.2 1.3 1.6 2.4 1 3-.6.6.4 2.7 2.7 5.6 2.9 3.7 3.4 5 2.5 6.1-.9 1.1-.6 1.8 1.9 3.6 1.6 1.2 3 2.9 3 3.9 0 3.8 4.5 5.5 16.2 6.1.9.1 2.1 1.4 2.8 3 .8 1.9 2.1 3 4.2 3.4 2 .4 2.8 1 2.5 2-.4.9.5 1.8 2.3 2.6 1.6.7 3.1 2.2 3.4 3.6.4 1.4 1.4 2.8 2.4 3.1.9.4 3.4 2.4 5.4 4.6 2.7 2.9 4.3 3.8 5.8 3.4 1.1-.3 2-.1 2 .4s.9.9 2 .9c1 0 2.4.8 2.9 1.7.7 1.1 1.1 1.3 1.1.5 0-.9 1-1.2 2.8-1 2.2.2 2.7.7 2.5 2.8l-.3 2.5 1.5-2.5c2-3.4 1.9-3.9-1-5-1.4-.5-2.5-1.4-2.5-1.9s-1.5-1.2-3.2-1.6c-6.2-1.2-7-1.7-8.4-5.2-1.1-2.4-1.2-3.8-.5-4.7.6-.7.8-1.5.5-1.9-1-1 .7-4.7 2.2-4.7.8 0 1.4-.8 1.4-1.8 0-1.4.8-1.8 3.8-1.7 2 0 4.2.4 4.8.8.7.4 1.7 0 2.4-.8.9-1.1.8-2-.8-4.2-1.4-2-1.7-3.4-1.1-4.5.6-1.1.2-2.3-1.6-4.2-2.8-3.1-3.4-5.6-.8-3.5.9.8 1.4.9 1 .2-.4-.6-.4-1.8-.1-2.7.5-1.3 1.4-1.5 4-1 2.8.5 3.4.3 3.4-1.2 0-1.4.3-1.5 1.2-.6 1.6 1.6 2.3 1.5 4.2-.4 1.5-1.4 1.7-1.3 2.5.8.6 1.3 1 1.8 1 1.1.1-.7.8-1 1.7-.6 1.3.5 1.2.9-.7 2.9-1.6 1.7-1.8 2.4-.8 2.4.8 0 2 .9 2.7 2 1.8 2.9 5.2 2.7 4.5-.3-.3-1.2-1-2.7-1.4-3.2-.4-.6-.2-2.2.5-3.5.9-1.8 1.9-2.4 3.8-2.2 1.9.2 2.7-.3 3.1-1.9.5-1.8.9-1.9 2.7-.9 1.6.9 2.5.8 3.6-.1.8-.6 2.9-1.5 4.7-1.8 2.6-.5 3.3-1.2 3.5-3.5.3-2.6.4-2.7 1.8-.9.9 1 1.3 1.2.9.5-.4-.8.1-1.2 1.5-1.2 1.3 0 2.8-1.2 3.8-3 .9-1.6 2.3-3 2.9-3 .7 0 2-1.1 2.9-2.5 1-1.5 2.6-2.5 4-2.5s2.4-.6 2.4-1.4c0-.8 1.1-2.7 2.5-4.2 2.4-2.6 2.4-2.8.9-4.6-1-1-1.4-1.8-1-1.8.4 0 .2-.9-.4-2-.9-1.6-.8-1.8.5-1.4.8.4 1.5 1 1.5 1.6 0 .5.7.3 1.5-.6.8-.8 1.5-2.3 1.5-3.4s-.7-2.5-1.5-3.2c-.8-.7-1.5-2-1.5-3s-1-2-2.2-2.3c-1.2-.4-1.9-.9-1.5-1.3.3-.3-.3-2.4-1.4-4.5-1.9-3.9-2-3.9-4.4-2.3-1.4.9-2.5 1.2-2.5.6s-1.4-2.5-3.2-4.2c-2.9-3-3-3.3-1.5-4.5.9-.7 1.7-2 1.7-2.9 0-.9.6-1.6 1.4-1.6 2.1 0 2.9-5.9 1-8.7-.8-1.3-2.1-2.6-2.8-2.9-.8-.3-1.1-1.6-.8-3.4.4-2.8.2-3-2.7-3-1.9 0-3-.4-2.6-1 .3-.6-.4-1-1.8-1s-3-.6-3.6-1.4c-.6-.7-2.1-1.4-3.4-1.4-1.2-.1-2.9-.2-3.7-.3-3.9-.5-7.1.2-7.7 1.8-.4.9-.2 1.8.5 2.1.7.2.3 1.6-1 3.8-1.5 2.5-2.5 3.3-3.7 2.8-.9-.4-2.8-.6-4.2-.5-1.5 0-3.2-.6-3.9-1.4-1-1.2-.9-1.5.6-1.5 1.7 0 1.7 0 0-1.3-1.6-1.1-2.5-1-6.1.6-2.4 1.1-4.5 2.8-4.8 3.7-.4 1.5-1.2 1.6-5.1 1-4.3-.6-4.7-.5-5.2 1.6-.3 1.3-1.2 2.8-1.9 3.4-.7.6-1.1 2-.8 3 .3 1.2 0 2-.6 2-.7 0-.9-.5-.6-1 .3-.6.1-1-.4-1-.6 0-1.1-.6-1.1-1.3 0-.7-1.3-2.1-2.9-3-2.8-1.6-3-1.6-3.9-.1-1.2 2.2-3.5.8-2.7-1.7.4-1 .2-1.9-.2-1.9-.5 0-1.4-1.2-1.9-2.8-.9-2.4-.7-2.8 2-4.2 1.8-.9 3-2.3 3-3.3-.1-.9.4-1.7 1.2-1.7.8 0 1.3-.3 1.2-.8-.1-.4.2-1.7.6-3 .9-2.8-.1-4.3-1.4-2.2-.7 1.2-1.3 1.3-2.7.3-1-.6-1.6-1.7-1.4-2.5.4-1.7.9-5.9 1.6-13.2.3-3.2.6-6.1.7-6.5.1-.3-.5-1.8-1.2-3.4-1.3-2.7-3-3.6-3-1.6 0 .8-.4.8-1.2.2-1.9-1.5-7.8-3.3-7.9-2.5zm-27.9 66.7c0 .8-.2 1.5-.4 1.5s-.6-.7-1-1.5c-.3-.8-.1-1.5.4-1.5.6 0 1 .7 1 1.5zm-12.5 11.5c-.3.5-.1 1 .4 1 .6 0 1.1.7 1.1 1.5s-.4 1.5-1 1.5c-.5 0-1-.4-1-.9s-.3-1.6-.6-2.5c-.3-.9-.1-1.6.6-1.6.6 0 .8.4.5 1zM284.25 427.866c.3 1.4.2 2.6-.2 2.6-.5 0-.7 2.2-.6 5 .3 3.5 0 5-.8 5-1.7 0-3.9 3-4 5.2 0 1.4.9 1.8 3.5 1.9 1.9.1 4.1.2 4.8.3.6.1 1.9-1.8 2.7-4.1 1.3-3.9 1.3-4.6-.4-7.4-1.1-1.8-1.5-3.4-.9-3.8.5-.3.9-2 .9-3.6-.1-2.5-.5-3.1-2.9-3.3-2.5-.3-2.7-.1-2.1 2.2zM300.95 433.166c-2.2.4-2.2.5 1 3.6 1.9 1.8 3.6 3.8 3.8 4.5.3 1 1.1 1.1 3.3.2 2.1-.8 2.7-1.5 2.3-3-.4-1.5 0-2 1.6-2 2.2-.1 2.2-.1.2-1.2-1.1-.7-3-1.3-4.2-1.4-1.3-.2-3.1-.5-4-.7-1-.2-2.8-.2-4 0z"/><path d="M313.15 444.466c1 2 1.2 3 .4 3-.6 0-.9.9-.6 2 .6 2.2-.3 2.6-2.1.8-.9-.9-1.7-.7-3.4.8-3.9 3.4-7.7 5.4-8.3 4.4-.3-.5-1.2-.7-2-.4-.7.3-1.8-.4-2.5-1.5-1.3-2.5-4.2-2.7-6-.6-.7.8-1 1.5-.6 1.5.3 0 .1 1.1-.4 2.5-.7 1.9-.5 2.7 1 3.8 2.2 1.5 3.8 6.7 2.1 6.7-.6 0-1.1-.5-1.1-1 0-.6-1.1-1-2.4-1-2.8 0-4.9-2.2-4-4.3.3-1-.2-2-1.5-2.7-1.7-.9-1.9-1.4-1-2.9.9-1.4.8-2.3-.5-4.4-1.5-2.3-2.1-2.4-4.2-1.5-2.8 1.3-2.8 1.5-.9 4.8 1.6 2.7 2 8.4.6 7.6-.5-.3-1.1.4-1.4 1.5-.3 1.2-1 1.8-1.6 1.4-.6-.3-1.1 0-1.1.9 0 .8-.6 1.7-1.2 1.9-1.3.5 1.6 1.1 3.9.8.7-.1 1.9 1.1 2.7 2.7.8 1.5 2.6 3.3 4 4 3.2 1.4 3.3 3.1.5 6.1-1.8 1.9-2 2.7-1 4.7.6 1.4 1.1 3.8 1.1 5.3 0 1.6.7 3.4 1.6 4.2.9.7 1.4 2.2 1.1 3.5-.3 1.9.1 2.3 2.7 2.6 2.3.2 3.2.9 3.4 2.4.3 2.4 3.4 3.6 6.9 2.8 1.3-.4 4.1.3 6.7 1.6 3.8 1.8 4.8 1.9 6.5.8 1.5-.9 2.3-1 3.2-.1 1.4 1.4.2 3.6-1.7 2.9-1.2-.4-1.1 0 .2 2.5 1.1 2.2 1.2 3.4.4 4.4-.8.9-.6 1.4.6 1.9 2.8 1.1 3.6.7 3.1-1.4-.5-2.1.7-2.7 1.9-.9.3.6 1.6.8 2.8.5 1.6-.4 3.1.5 6.4 4.2 2.7 2.9 4.5 4.2 4.8 3.4.8-1.8 3.9-1.5 8.5.8 2.3 1.2 4.8 1.8 6 1.5 1.2-.4 1.9-.2 1.9.7 0 1 .2 1.1.8 0 .5-.7 2.6-1.5 4.8-1.9 4.6-.7 6.7-2.1 6-4-.3-.7-.1-1.3.4-1.3.6 0 1 .7 1 1.5s.5 1.5 1 1.5c2.5 0 10-5.9 10-7.9 0-1.4 1.7-1.5 2.5-.1.3.5 2 1 3.6 1 1.7 0 3.9.5 5 1 1.2.7 1.9.7 1.9.1s1.5-.7 3.5-.4c2.7.4 3.5.2 3.5-.9 0-1 1-1.5 2.8-1.5 1.5 0 3.5-.3 4.5-.8 2.5-1.1 5 .2 4.4 2.4-.2 1-.1 2.5.4 3.4.6 1 .4 1.7-.7 2.1-1.5.6-1.5.8 0 2.5.9.9 1.3 2.1.9 2.4-.3.4.1.7 1 .7s1.9-.5 2.3-1.2c.4-.6.3-.9-.2-.6-.5.4-.9-.4-.9-1.7 0-1.7.3-2.1 1.2-1.3.7.6 1.1 1.4.8 1.8-.3.4 1 2.2 2.9 3.8 2.1 1.8 3.6 4.1 3.8 5.9.3 2.5.7 2.8 3.3 2.5 3.7-.4 4.2-.9 2.7-2.4-1.6-1.6-1.5-2.8.2-2.8 2.1 0 2.5-3.4.6-5.7-1.6-2-1.8-2-3.3-.6-1.5 1.5-1.7 1.5-2.3 0-.3-.9-1.1-1.7-1.7-1.7-1.3 0-12.1-11.1-11.9-12.2.1-.3-1.4-1.8-3.3-3.2-2.3-1.8-3.5-2.2-3.8-1.3-.3.6-.6.2-.6-1.1-.1-1.2-.8-2.5-1.6-2.9-.9-.3-2.2-1.8-3-3.3-1.2-2.4-1.2-2.8.6-4.3 2.2-2 2.4-3.3.6-4-2.5-1 .1-8.7 2.9-8.7.7 0 1.1-1.3 1-3-.2-3.1-.2-3.1 4.1-2.4 4.2.6 4.3.6 5.8-3 .8-1.9 1.5-4.5 1.5-5.6 0-1.1.5-2 1-2 1.5 0 5-3.8 5-5.5 0-1.9-2-5.6-3.9-7.1-.8-.6-2.9-.8-5-.4-3.9.7-8.1-1.2-8.1-3.6 0-1.9.6-1.8 3 .6s4.4 1.7 3.5-1.1c-.4-1.3-.2-1.9.9-1.9.9 0 1.6.7 1.6 1.5 0 2.1.9 1.9 2.9-.7 1.7-2.1 1.7-5.8.1-5.8-.5 0-1.5-.3-2.4-.6-1.1-.4-1.6-.1-1.6 1 0 1.9-1.1 2.1-2.7.5-.9-.9-1.1-.5-.8 1.8.3 2.8.2 2.9-3.5 2.8-3.4-.1-3.8.1-3 1.6.7 1.3.5 1.8-1 2.2-1.1.3-2.4 1.5-2.8 2.8-1 2.6.6 9.1 2 8.3 1.1-.7 1 3.7-.1 5.5-1.2 1.8-6.8.5-7.5-1.7-.3-.9-.4-2.9-.2-4.5.2-1.5-.1-3-.6-3.3-.5-.4-.7-1.7-.4-3 .4-1.3.2-2.4-.3-2.4-1.2 0-5.1 6.2-5.1 8.1 0 .8-1.3 2.3-2.9 3.3-1.8 1.2-3.1 3.1-3.4 5-.3 1.7-.8 3.9-1.2 4.8-.5 1.3.2 2.7 2.4 4.7 2.1 2 2.8 3.2 2 3.7-.7.4 1.3 3 5.5 7 3.6 3.4 6.6 7 6.6 7.8 0 .9.4 1.6 1 1.6.5 0 .7.7.4 1.5-.4.8-1.3 1.5-2.1 1.5-1.2 0-1.1.5.4 3 1.6 2.9 1.6 3-.2 4.3-1.4 1.1-2.5 1.2-4.9.3-3.6-1.3-4.6-2.3-4.6-5.1 0-1.8-5.3-6-11-9-1.2-.6-1.3-.5-.2.6 1.6 1.7 1.5 3.9-.1 3.9-.8 0-1.9-2.2-2.7-5-.7-2.8-1.6-5-2-5-.3 0-1.6.8-3 1.7-1.7 1.2-2.5 1.3-2.8.5-.2-.7-1-1.2-1.8-1.2s-1.4-.6-1.4-1.4c0-1-1.3-1.4-5.2-1.3-3.3.1-5.3-.2-5.5-1.1-.3-.6-1.6-1.2-2.9-1.2-2.9 0-3.2-.5-4.3-9.5-.5-4.5-.5-7.2.2-7.6.5-.4-.9-2.5-3.3-4.9-3.4-3.3-4.1-4.6-3.6-6.6.4-1.3.2-2.4-.3-2.4-1.4 0-2.2-6.1-1-7.6.7-.9.7-1.9-.1-3.4-.6-1.1-.8-2.5-.5-3 .3-.6.1-1-.4-1-.6 0-1.1.4-1.1 1 0 1.5-5.2 1.1-7.4-.5-1.1-.8-2.8-1.5-3.8-1.5-1.7 0-1.8.2-.3 3zm96.2 13.5c-.6 1.7-3.7 1.8-3.7.1 0-.9.8-1.4 2-1.3 1.1.1 1.9.6 1.7 1.2zm-24.7 14.2c0 .7-.8 1.3-1.8 1.3-1.4 0-1.9-.8-2-3.1-.1-3 0-3 1.9-1.3 1 .9 1.9 2.3 1.9 3.1zm16.9 1.7c-1.1.9-5.9 1.5-5.9.7 0-.5 1.2-1.1 2.8-1.3 2.7-.3 3.9-.1 3.1.6zm-9.9 2.5c-.6 1.3-1.7 1.7-3 1.4-3.2-.8-2.4-3.3 1-3.3 2.7 0 2.9.2 2 1.9zm-5.2 3.5c-.7.8-1.7 1.2-2.2.9-.4-.3-.2-.9.5-1.4 2.2-1.3 3.1-1.1 1.7.5zm1.5 10c2.2 1.7 2.2 2.2-.3 2.9-1.8.5-4-1.6-4-3.7 0-1 2.5-.6 4.3.8z"/><path d="M386.25 450.966c-.3.8-.1 1.5.3 1.5.5 0 1.1-.7 1.5-1.5.3-.8.1-1.5-.3-1.5-.5 0-1.1.7-1.5 1.5zM389.65 449.966c0 .5.5 1.7 1 2.5s1 1 1 .5c0-.6-.5-1.7-1-2.5s-1-1.1-1-.5zM547.45 454.266c-1.9.2-2.5.8-2.1 1.8.3.8-.1 2.2-.8 3.1-.8.9-.9 1.4-.3 1 1.2-.7 5.4 2.7 5.4 4.3 0 .6.9 1 2.1 1 1.1 0 1.8-.4 1.4-1-.3-.5.5-1.6 1.9-2.5 2.6-1.7 2.5-4.5-.1-4.5-.8 0-2.2-.8-3.1-1.8-1.1-1.1-2.7-1.7-4.4-1.4zM229.65 462.566c0 .8-2.1 1-6.9.7-5.6-.3-6.8-.1-5.9.9.8 1 .4 1.3-1.6 1.3-2.1 0-2.6.5-2.6 2.5 0 1.9-1.2 3.4-4.5 5.7-2.5 1.8-4.5 3.6-4.5 4 0 .5.9 2.6 2 4.8 1.1 2.1 1.9 4.9 1.7 6.2-.2 2.1.3 2.3 5.6 2.8 4.8.4 5.6.3 5.1-1-1.2-2.9-1.2-5.9 0-5.4s3.6-4.8 3.6-7.9c0-.9 1.4-2.4 3.1-3.2 2.8-1.5 3-1.9 2.4-5.6-.6-3.7-.5-3.9 1.9-3.9 2.6 0 3.5-1.3 1.6-2.5-.5-.3-1-.1-1 .6zM416.15 462.466c.3.5.8 1 1.1 1 .2 0 .4-.5.4-1 0-.6-.5-1-1.1-1-.5 0-.7.4-.4 1zM238.85 482.066c-.7.8-1 1.9-.7 2.4.3.6-.3 1-1.3 1-2.6 0-5 5.4-3.3 7.4 1.2 1.5-.3 6.3-2.4 7.8-.5.4.4.8 2 .8 3.4 0 6.2-2 9.3-6.7 2.8-3.9 2.7-5.1-.1-10.1-1.8-3.3-2.4-3.7-3.5-2.6zM364.75 489.166c-.7.8-1 1.7-.7 2 .9.9 2.9-1.3 2.5-2.5-.2-.6-1-.3-1.8.5zM205.35 493.566c-.8 2.9.4 4.2 2 2.4.9-1 .9-1.7-.1-3-1.2-1.7-1.3-1.6-1.9.6zM205.65 501.866c.6.8 1.8 1.2 2.7.9 1.2-.5 1.2-.7.1-1.4-.7-.5-1.9-.9-2.7-.9-1.1 0-1.1.3-.1 1.4zM209.65 506.466c0 .5.5 1 1.1 1 .5 0 .7-.5.4-1-.3-.6-.8-1-1.1-1-.2 0-.4.4-.4 1zM602.25 517.066c-.4 1.1 1.2 3.4 2.4 3.4.4 0 1.2-1.1 1.8-2.4 1-2.2.8-2.4-1.4-2.2-1.3 0-2.6.6-2.8 1.2zM395.05 521.866c2.3 1.8 4.6 2.1 4.6.5 0-.5-.4-.7-1-.4-.5.3-2 .1-3.2-.5-2.2-1.1-2.2-1-.4.4zM607.45 537.666c-.3.7-2 1.3-3.9 1.3-8.3.3-8.9.5-8.9 2.4s-1.8 3.1-4.9 3.1c-1.7 0-2 1-2.4 6.4-.2 3.3 1.5 4.4 3.4 2.3.9-.9 2.8-1.2 6.2-.9 5.5.5 6.7-.4 6.7-5.4 0-3.2 2.1-6 3.4-4.7.4.4.4 0 0-1-.4-1.1 0-1.9 1-2.3.9-.3 1.6-1 1.6-1.5 0-1.3-1.8-1.1-2.2.3zM581.65 547.866c0 .9.7 1.9 1.5 2.3 2.5.9 2.7-.2.5-2.2-1.8-1.7-2-1.7-2-.1zM460.65 551.966c0 .8.7 1.5 1.6 1.5 1.4 0 1.4-.3.4-1.5-.7-.8-1.4-1.5-1.6-1.5-.2 0-.4.7-.4 1.5zM580.25 559.366c-.4.7-.5 1.5-.2 1.8.9.9 1.9-.4 1.4-1.8-.4-1.1-.6-1.1-1.2 0zM578.95 563.166c-.7.3-1.3 1.3-1.3 2.4 0 1.1-.7 1.9-1.6 1.9-1.4 0-1.4.3-.4 1.5 1.1 1.3 1.5 1.3 2.1.3.7-1 .9-1 .9.2.1.8.8.3 1.6-1.3 1.6-2.9.8-5.7-1.3-5zM556.95 566.266c-.1.9-.5 3.1-.8 4.8-.6 2.6-.3 3.2 2 4.2 1.4.7 2.4 1.6 2.1 2-.7 1.1 3.1 7.2 4.4 7.2.7 0 .7-.6 0-2-.7-1.3-.7-2-.1-2s.8-.7.4-1.5c-.3-.9.2-2.2 1.2-2.9 1.7-1.2 1.7-1.4.1-3.8-1.2-1.8-2.3-2.4-3.6-2.1-1.3.4-2 0-2-.9 0-.8-.8-2.2-1.8-3.1-1.6-1.5-1.8-1.5-1.9.1zM738.15 567.466c-.4.6.5 1 1.9 1s2.6-.5 2.6-1c0-.6-.9-1-1.9-1-1.1 0-2.3.4-2.6 1zM732.05 570.766c-.4 1.9-1.3 2.7-2.8 2.7-1.3.1-3.1 1.6-4.8 4-1.5 2.2-3.5 4-4.3 4-.8 0-1.5.5-1.5 1.1 0 .7.7.8 1.8.4.9-.5 3.8-.7 6.5-.7 3.3.1 4.7-.2 4.7-1.1 0-.7.9-3.3 2.1-5.6 1.9-3.9 1.9-4.5.5-5.9-1.3-1.4-1.6-1.2-2.2 1.1z"/><path d="M573.85 570.666c-.7.7-1.2 1.9-1.2 2.8 0 .8-1 2-2.2 2.5-1.9.8-2.3 1.7-2.1 5.1.1 3.4-.3 4.4-2.1 5.3-1.7 1-2.8.9-5.1-.3-3.5-1.8-3.8-1.6-2.6 1.7.7 1.7.7 2.7 0 2.9-.5.2.4 1.9 2.1 3.8 2.7 3 3.3 3.3 5 2.2 2.7-1.6 3-1.5 3 .8 0 1.1.6 2 1.4 2 1.8 0 2.7 3.7 1.2 4.8-.6.5-2.4 1.2-3.9 1.6-2.3.6-2.7.9-1.7 2.1.6.8.9 1.9.5 2.6-1.1 1.7 3.7 0 5.3-1.9 1.1-1.4 1.3-1.4 2.7.4.8 1 1.2 2.7.9 3.7-1.5 4.8.5 8.6 9.5 18.2 1.9 2.1 2 5.7.2 6.3-.6.2-1.1 1.4-1.1 2.6 0 1.6-1 2.7-3.2 3.7-2.5 1-3.3 2-3.3 3.9 0 1.4.6 2.6 1.3 2.6.6.1 1.5.3 2 .4.4.1 1 .2 1.5.1.4-.1 1.2 1 1.7 2.3.5 1.3 1.4 2.7 2 3.1.6.4 1.5 1.8 2 3.1.6 1.5 1.5 2.2 2.5 1.8.9-.4 1.5-.1 1.5.7 0 1 .3 1 1.2.1.6-.6 1.8-.8 2.7-.3.9.5 3.3 1.1 5.4 1.5 3 .6 4.5 1.7 7.2 5.4 1.9 2.6 3.5 5.6 3.5 6.7.1 2.5 3.6 6.9 4.9 6.1.5-.4 1.3-.1 1.7.5.3.6.1 1.5-.6 1.9-1.3.8-.8 1.3 3.5 3.5 1.1.6 2.6 2.3 3.3 3.8 1.6 3.4 2.8 3.4 4.5.1.9-1.7 1.7-2.3 2.1-1.6.4.6 2.7 2 5.1 3.1 2.6 1.1 4.5 2.7 4.5 3.5 0 1.1.9 1.6 3 1.6 1.6 0 3.9.4 5.2.9 8.3 3.2 10.8 4.6 11.3 6.2.7 2.1 4.1 2.6 4.9.6.3-.8.9-.7 2 .7 1.4 1.7 1.6 1.7 3.1.2.9-.9 1.3-1.6.9-1.6-.3 0-.1-.7.6-1.5s2.1-1.5 3.1-1.5c2.5 0 4.6-3.9 2.8-5.1-.9-.6-1-.9-.2-.9 1.5 0 1-4.7-.6-6.3-1-.9-1.1-.8-.5.8.6 1.8.5 1.8-1.6-.3l-2.2-2.4 1.9-2.6 2-2.7-4.4-.2c-5.4-.2-5.6-.4-5.7-4.8-.1-2.3-.5-3.4-1.3-3-1.7.6-4.2-3.2-3.6-5.5.3-1.2-.4-2.4-2.4-3.6-1.5-1-3.5-2.6-4.3-3.6-.8-1-3-2-4.8-2.2-1.8-.2-4.5-1.5-6-2.9-1.9-1.8-3.4-2.5-4.9-2.1-1.4.4-3.3-.2-5.2-1.5-1.6-1.2-3.3-2.1-3.8-2.1-1.6 0-3.3-5.2-2.2-7.1 1-1.9.8-2.1-2.1-2.3-.8-.1-1.7-1.6-2.1-3.6-.8-3.9-9-12-12.1-12-1 0-1.8-.5-1.8-1 0-1.7-2.8-1.1-3.3.7-.3 1.5-.6 1.3-1.7-.9-1.4-3-3-2.8-3 .4 0 1.4-.5 1.8-1.6 1.4-.9-.3-1.9-.6-2.2-.6-1.1 0-1.3-11.8-.2-12.5 1.3-.8 1.3-5.2-.1-6-.6-.4-.8-1.3-.5-2 .5-1.5-2.7-4.9-3.7-3.9-1.1 1.2-3.7-1.7-3.7-4.1 0-1.2.7-2.8 1.5-3.5 1.4-1.1 1.3-1.4-.1-2.5-1.2-.8-1.4-1.4-.6-1.9 1.9-1.1 1.4-4.6-.5-4.7-1 0-3.1-.2-4.8-.2-2.2-.2-3-.7-3-2.1 0-1-1.3-2.9-2.9-4.1-1.7-1.4-3.1-3.6-3.4-5.2-.4-3.4-.5-3.6-2-2.1zM706.05 587.966c-.8 2.1-7.2 5.8-8.9 5.2-.7-.3-1.9.1-2.5.9-.7.8-2 1.4-3 1.4s-2 .7-2.4 1.5c-.3.9-1.9 1.5-4.1 1.5-2 0-4.6.7-5.9 1.5-2.1 1.4-2.4 1.4-3.6 0-.7-.8-2.7-1.5-4.4-1.5-1.7 0-4-.7-5-1.5-1.7-1.3-2.2-1.2-4.8 1-1.6 1.4-4 2.5-5.4 2.5-1.3 0-2.4.5-2.4 1.1 0 .7-1.1 2.2-2.5 3.5-3.5 3.3-3.2 5 1.3 5.9 5.9 1.2 12.2 1.5 12.2.5 0-.5.7-.7 1.6-.3.8.3 2.5.1 3.7-.4 6.1-2.8 12.3-4.1 11.2-2.3-.3.5-.1 1.8.4 2.7.9 1.6 1 1.4 1.1-1 0-2 .5-2.7 2-2.7 1.2 0 2-.7 2-1.6 0-.9.6-1.4 1.3-1.1.6.3 3.1-1.4 5.4-3.6 4-3.8 4.3-4 6.1-2.4 2.3 2.1 5.6 2.2 7.2.2.7-.8 2.4-1.5 3.7-1.5 2.7 0 2.7.3.1-7.3-1.3-3.8-3.4-4.9-4.4-2.2z"/><path d="M612.85 600.466c-1.2 2-6.2 3.3-7.6 2-.4-.5-1.9.4-3.1 1.8-2.6 3-1.8 4.2 2.7 4.2 2.2 0 3.1.9 5.2 5.2 1.4 2.9 2.6 4.6 2.6 3.8 0-1 .4-.9 1.8.3 1 1 2.6 1.7 3.4 1.7 1.9 0 4.2 2.6 3.4 3.9-1.2 1.8 1.2 2.1 4.8.6 3.2-1.4 3.7-1.4 4.2-.1.3.8.3 1.9 0 2.4-.5.9 3.5 3.2 5.6 3.2.6 0 1.6.8 2.3 1.7 1.2 1.5 1.4 1.2 2.6-2.7.7-2.5 1.2-5.1 1-5.8-.1-.6.3-1.2.9-1.2.5 0 1-.9 1-1.9 0-1 .7-2.1 1.5-2.5.8-.3 1.2-1.2.9-2.1-.4-.8-.1-2.2.6-3 1-1.2 1-1.5-.1-1.6-.8 0-2.7-.2-4.4-.3-1.6-.2-3.8.1-4.9.7-2.5 1.3-7.8 1.6-9.6.5-.8-.4-2.8-1.3-4.4-1.8-2.1-.8-2.5-1.4-1.8-2.3 1.3-1.5-1.1-5.2-2.7-4.2-.6.3-1.1 0-1.1-.7s-.8-1.8-1.8-2.5c-1.5-.9-2.1-.7-3 .7zM697.65 663.966c0 .9 5 3.4 5.4 2.7.3-.5-.8-1.3-2.5-1.9-1.6-.6-2.9-1-2.9-.8zM691.65 666.566c0 .5.9.9 2 .9s2-.2 2-.4-.9-.6-2-.9c-1.1-.3-2-.1-2 .4zM663.15 668.566c-1 1.5.3 2.5 1.6 1.2.7-.7.7-1.3.1-1.7-.6-.3-1.4-.1-1.7.5zM680.05 670.966c-.4 2.5-1.1 3.5-2.5 3.5-1.3 0-1.9.7-1.9 2.4 0 2.7.3 3 4.1 4 2.5.5 2.7.3 3.1-2.9.2-1.9 0-3.9-.6-4.5-.6-.6 0-.9 1.5-.8 4.9.3 8.1-.2 7.7-1.3-.2-.6-.6-1-.8-.9-.3.1-2.2-.5-4.4-1.4-5.2-2.2-5.4-2.1-6.2 1.9zM668.25 671.966c-.3.9 0 1.5.9 1.5.8 0 1.5-.7 1.5-1.5s-.4-1.5-.9-1.5-1.1.7-1.5 1.5zM680.35 693.766c-.3.7.4 1.9 1.5 2.6 1.7 1.1 1.9 1 1.6-1-.4-2.6-2.3-3.6-3.1-1.6zM681.45 704.966c-1 2.2-2 2.9-3.9 2.7-1.3-.2-1.9 4.9-.9 6.8.8 1.5.6 2.1-.7 2.9-2.2 1.2-1.2 2.4 1.2 1.5 1.3-.5 1.5-1.4 1.1-3.6-.3-1.8-.2-2.7.4-2.3.6.4 1.8-.8 2.8-2.6.9-1.8 2.5-4 3.5-5.1 2.2-2.3 2.2-2.8-.3-2.8-1.2 0-2.5 1-3.2 2.5zM668.15 721.366c-1.1.3-2.1 1.3-2.2 2.1-.1.8-.5 2.5-.8 3.6-.5 1.7.3 3.2 3.2 6.4 2.1 2.4 3.7 4.6 3.5 4.9-.4.9 4.7 1.3 7.4.7 2-.5 2.4-1.3 2.4-4.1s-.4-3.5-1.9-3.5c-1.1 0-3.2-1.1-4.7-2.5-1.4-1.3-2.9-2.4-3.3-2.3-1.7.2-2.5-.3-1.4-1 1.5-.9 2.1-4.4.8-4.7-.5-.2-1.9 0-3 .4z"/></g></svg>