<?xml version="1.0" standalone="no"?>
<!DOCTYPE svg PUBLIC "-//W3C//DTD SVG 20010904//EN"
 "http://www.w3.org/TR/2001/REC-SVG-20010904/DTD/svg10.dtd">
<svg version="1.0" xmlns="http://www.w3.org/2000/svg"
 width="824.183446pt" height="449.490655pt" viewBox="0 0 824.183446 449.490655"
 preserveAspectRatio="xMidYMid meet">
<metadata>
Created by potrace 1.15, written by Peter Selinger 2001-2017
</metadata>
<g transform="translate(-601.799658,1126.089624) scale(0.100000,-0.100000)"
fill="#222222" stroke="none">
<path d="M10774 11246 c-9 -24 6 -89 23 -102 9 -6 17 -22 19 -35 1 -13 3 -26
3 -28 1 -2 7 2 15 8 17 14 24 5 24 -30 0 -18 -9 -31 -24 -40 -20 -10 -24 -20
-24 -56 0 -49 5 -52 37 -21 25 23 43 30 81 30 17 0 29 12 48 50 25 50 26 50
69 46 24 -1 41 0 37 4 -4 4 -27 9 -52 11 -44 4 -45 5 -48 41 -2 25 -11 41 -28
52 -13 9 -31 32 -40 50 -15 31 -34 46 -34 26 0 -11 -71 -10 -88 1 -7 5 -14 2
-18 -7z m136 -126 c0 -5 -2 -10 -4 -10 -3 0 -8 5 -11 10 -3 6 -1 10 4 10 6 0
11 -4 11 -10z"/>
<path d="M11321 11184 c0 -11 3 -14 6 -6 3 7 2 16 -1 19 -3 4 -6 -2 -5 -13z"/>
<path d="M9675 11180 c-3 -5 4 -14 15 -20 22 -12 27 -30 7 -30 -12 0 -52 -63
-52 -84 0 -6 -10 -10 -22 -9 -16 2 -20 -2 -16 -17 4 -15 1 -19 -10 -15 -20 8
-29 -41 -10 -56 7 -7 11 -14 8 -17 -9 -9 16 -31 30 -26 19 8 28 -13 30 -69 1
-33 -2 -50 -12 -54 -7 -3 -13 -20 -13 -39 0 -22 -5 -34 -14 -34 -18 0 -57 -75
-50 -95 4 -8 -1 -26 -10 -40 -13 -20 -22 -24 -44 -19 -15 4 -24 4 -20 0 9 -11
-27 -44 -57 -52 -19 -5 -25 -13 -25 -35 0 -22 5 -29 20 -29 14 0 20 -7 20 -23
0 -13 3 -27 7 -31 4 -3 7 -25 8 -49 l2 -42 -51 0 c-34 0 -61 6 -79 19 -34 23
-87 29 -87 10 0 -22 -22 -28 -35 -10 -12 15 -15 14 -39 -15 -18 -21 -23 -35
-17 -43 6 -7 4 -16 -5 -24 -8 -7 -14 -8 -14 -3 0 6 -17 1 -37 -11 -21 -12 -48
-21 -60 -20 -13 1 -23 -3 -23 -9 0 -7 -12 -9 -35 -5 -33 7 -36 5 -41 -24 -4
-16 -12 -30 -20 -30 -7 0 -17 -8 -22 -17 -9 -14 -14 -15 -41 -3 -27 11 -34 10
-50 -4 -9 -9 -25 -16 -34 -16 -9 0 -17 -4 -17 -8 0 -13 -76 -36 -95 -28 -9 3
-15 14 -13 23 2 11 -5 19 -17 21 -28 6 -65 42 -65 64 0 20 -16 24 -23 6 -3 -9
-11 -5 -22 10 l-17 23 -20 -23 c-16 -19 -28 -23 -69 -21 -27 1 -49 -2 -49 -7
0 -25 -30 -38 -69 -29 -49 11 -130 54 -153 81 -10 11 -18 17 -18 13 0 -5 -9 0
-19 9 -19 17 -19 17 -14 -3 3 -12 11 -21 18 -21 12 0 30 -32 61 -110 10 -25
24 -52 31 -61 7 -8 13 -21 13 -27 0 -6 9 -16 20 -22 11 -6 20 -17 20 -25 0 -8
4 -15 9 -15 21 0 31 -96 13 -125 -3 -5 -5 -23 -3 -39 2 -21 -1 -27 -11 -23
-10 3 -22 -17 -41 -72 -17 -45 -40 -88 -57 -105 -17 -16 -30 -39 -30 -52 0
-12 -7 -24 -15 -28 -8 -3 -19 -16 -24 -29 -8 -20 -15 -23 -40 -19 -28 4 -33 1
-42 -27 -6 -18 -18 -31 -27 -31 -10 0 -34 -16 -55 -35 -51 -47 -71 -57 -85
-43 -9 9 -16 7 -31 -6 -10 -9 -28 -18 -40 -19 -13 -1 -24 -10 -27 -24 -6 -24
-44 -33 -44 -10 0 7 -9 18 -20 25 -11 7 -20 8 -20 3 0 -5 -19 -12 -42 -16 -24
-4 -51 -11 -61 -17 -17 -9 -17 -9 -43 62 -5 13 -7 12 -18 -2 -15 -21 -35 -23
-71 -6 -22 10 -28 9 -36 -3 -13 -20 -11 -29 4 -23 8 3 20 -2 27 -11 7 -8 19
-15 26 -15 8 0 14 -5 14 -11 0 -5 -5 -7 -12 -3 -7 5 -8 3 -3 -7 23 -37 14
-129 -13 -129 -11 0 5 -20 43 -54 33 -30 62 -53 64 -50 2 2 11 -2 20 -10 9 -8
25 -16 36 -18 17 -3 20 -11 20 -50 0 -33 6 -52 22 -70 12 -12 25 -35 28 -51 7
-27 42 -60 55 -52 3 2 17 -17 29 -43 56 -112 77 -150 107 -192 17 -25 39 -61
48 -80 9 -19 24 -47 33 -62 15 -23 15 -30 3 -55 -15 -31 -14 -81 3 -101 6 -8
11 -37 12 -67 0 -29 7 -60 14 -69 12 -14 10 -19 -14 -39 -16 -12 -38 -27 -49
-34 -21 -12 -21 -12 2 -13 12 0 22 -6 22 -14 0 -8 3 -21 6 -30 4 -10 -1 -19
-12 -23 -19 -8 -22 -14 -28 -62 -2 -16 -6 -33 -10 -39 -3 -6 -2 -13 3 -16 5
-3 7 -15 4 -25 -4 -15 1 -20 23 -23 19 -2 35 -14 49 -35 16 -26 25 -30 45 -26
14 3 29 12 33 20 4 7 14 13 21 13 7 0 19 15 28 33 14 30 14 36 -1 64 -9 18
-16 51 -16 75 0 29 -6 47 -17 56 -22 16 -24 76 -3 146 30 107 32 138 10 181
-11 22 -24 42 -29 44 -16 6 -99 94 -123 129 -27 39 -32 87 -8 78 9 -3 23 3 32
14 10 11 23 20 31 20 7 0 11 4 8 8 -11 18 114 48 142 33 10 -5 41 -13 68 -16
45 -6 50 -5 59 17 7 16 17 22 33 21 13 -2 34 4 47 13 16 10 34 14 50 10 21 -5
27 -2 36 21 6 16 8 41 5 56 l-6 29 35 -21 c23 -13 37 -16 41 -9 4 7 13 3 24
-12 15 -19 26 -22 109 -24 66 -2 95 1 103 11 9 11 14 11 29 -2 16 -15 20 -15
50 0 20 11 44 15 65 12 21 -4 37 -1 44 8 6 8 21 15 33 17 12 2 23 11 25 21 10
51 99 80 121 40 12 -24 117 -49 136 -33 9 8 15 8 20 0 12 -20 57 24 60 58 3
30 -18 62 -32 49 -3 -3 -20 1 -37 10 -17 10 -35 16 -41 15 -5 -1 -3 3 6 10 9
7 21 30 28 51 7 20 17 37 21 37 5 0 7 7 4 15 -10 24 12 17 30 -10 9 -14 21
-25 27 -25 7 0 9 10 5 25 -4 16 -2 25 6 25 6 0 1 11 -12 25 -12 13 -27 22 -31
19 -5 -3 -9 4 -9 15 0 12 -5 21 -10 21 -6 0 5 16 25 35 38 39 44 68 19 104
-15 21 -15 25 5 52 11 15 21 40 21 54 0 30 -3 30 51 6 l42 -19 36 23 c20 12
56 26 81 30 24 4 61 20 83 36 22 16 46 29 53 29 28 0 63 24 69 47 4 16 11 23
20 19 8 -3 17 -1 20 4 3 4 -1 11 -7 13 -8 3 -6 6 5 6 12 1 17 9 17 32 0 16 4
28 9 24 6 -3 13 11 17 30 5 26 11 35 21 31 8 -3 19 -6 24 -6 5 0 9 -9 9 -19 0
-11 3 -21 8 -23 4 -1 20 -19 36 -38 23 -28 28 -30 24 -13 -5 19 3 27 56 54 33
17 68 38 77 45 8 8 29 14 46 14 21 0 35 7 46 24 11 17 29 26 61 30 43 7 46 9
46 37 0 16 5 29 13 29 8 0 7 4 -3 10 -12 7 -12 10 -1 10 9 0 11 8 7 26 -6 24
-6 25 13 12 12 -8 33 -13 49 -10 24 3 28 8 24 28 -4 22 -2 23 28 14 18 -5 38
-15 46 -21 11 -9 20 -9 38 1 13 7 29 9 35 6 6 -4 11 -2 11 4 0 6 4 9 9 6 11
-7 102 84 96 94 -3 5 3 6 13 3 10 -2 24 3 31 11 8 9 20 16 28 16 8 0 40 12 70
26 36 16 65 23 81 19 15 -4 21 -2 17 5 -9 14 18 13 33 -2 9 -9 15 -9 24 0 7 7
24 12 39 12 15 0 30 4 34 9 7 13 62 -6 69 -24 4 -11 17 -13 54 -8 44 5 52 3
84 -26 21 -18 42 -29 51 -25 9 3 26 0 39 -7 26 -14 81 -13 109 1 22 13 129
-14 145 -35 6 -8 17 -15 24 -15 6 0 23 -9 37 -20 36 -28 43 -25 43 20 0 30 -3
38 -14 34 -8 -3 -21 -2 -30 3 -20 11 -66 80 -66 99 0 8 -7 17 -15 21 -22 8
-47 60 -40 83 3 10 -3 33 -15 52 -11 18 -20 43 -20 56 0 27 -26 30 -33 3 -4
-15 -13 -18 -50 -17 -27 1 -53 8 -64 19 -13 11 -31 16 -54 13 -32 -4 -92 18
-130 47 -9 7 -27 30 -41 52 -30 48 -113 135 -128 135 -6 0 -8 5 -5 10 3 6 -5
10 -19 10 -13 0 -37 6 -53 14 -15 7 -45 22 -65 31 -21 10 -38 24 -38 32 0 7
-5 13 -11 13 -7 0 -10 12 -7 30 2 16 0 31 -5 33 -5 1 -11 14 -12 27 -2 14 -6
37 -10 52 -6 23 -4 26 13 21 11 -2 23 0 26 6 4 6 16 11 27 11 24 0 24 6 -4 55
-16 28 -31 41 -53 46 -17 3 -47 18 -66 32 -39 30 -79 35 -98 12 -16 -19 -39
-19 -64 0 -25 19 -37 19 -30 1 3 -9 -3 -20 -15 -28 -12 -7 -21 -18 -21 -25 0
-16 -15 -16 -41 0 -18 10 -23 9 -40 -12 -12 -15 -25 -21 -35 -17 -9 4 -22 2
-28 -3 -6 -5 -22 -10 -36 -10 -54 -2 -68 -6 -63 -18 3 -8 -3 -13 -16 -13 -12
0 -21 5 -21 11 0 7 -14 9 -42 4 -24 -3 -60 -6 -80 -7 -21 0 -38 -4 -38 -9 0
-12 -47 -11 -71 2 -11 6 -29 19 -40 30 -10 10 -23 19 -29 19 -5 0 -10 7 -10
15 0 9 -11 21 -25 27 -14 6 -25 18 -25 26 0 9 -7 13 -20 9 -22 -6 -21 -7 -24
43 -3 44 -11 59 -42 70 -13 5 -24 13 -23 17 1 5 1 19 0 33 -1 26 -36 57 -46
40z m-1265 -1100 c0 -13 -11 -13 -30 0 -12 8 -11 10 8 10 12 0 22 -4 22 -10z
m337 -733 c3 -4 0 -13 -7 -22 -10 -13 -10 -19 2 -33 9 -9 18 -28 21 -42 3 -14
13 -34 21 -45 15 -20 15 -20 16 4 0 23 2 23 64 18 58 -5 63 -4 59 12 -6 25 28
37 43 17 17 -24 44 -20 44 6 0 16 3 19 11 11 6 -6 18 -9 25 -6 8 3 14 -1 14
-9 0 -8 9 -23 19 -32 11 -10 17 -24 14 -32 -6 -17 18 -42 35 -36 7 2 12 -6 12
-22 0 -14 -4 -26 -10 -26 -5 0 -7 -7 -4 -15 4 -10 0 -15 -15 -15 -27 0 -27
-18 1 -47 20 -21 20 -24 5 -41 -10 -10 -17 -28 -17 -40 0 -26 -15 -38 -55 -41
-9 0 -15 -8 -13 -17 2 -12 -6 -17 -36 -19 -41 -2 -57 7 -107 59 -15 15 -32 25
-38 22 -15 -10 -34 41 -22 61 22 40 -28 90 -73 73 -22 -8 -25 -6 -28 18 -3 25
-6 27 -40 24 -29 -3 -37 0 -33 10 3 7 -1 22 -9 33 -15 20 -15 20 -16 0 -1 -30
-24 -55 -52 -55 -34 0 -41 11 -18 27 32 22 51 81 47 139 -4 49 -3 51 27 61 32
10 102 10 113 0z m73 -1 c0 -11 -19 -15 -25 -6 -3 5 1 10 9 10 9 0 16 -2 16
-4z m396 -11 c12 -9 14 -14 6 -15 -7 0 -20 7 -28 15 -20 19 -4 20 22 0z m-401
-25 c3 -5 1 -10 -4 -10 -6 0 -11 5 -11 10 0 6 2 10 4 10 3 0 8 -4 11 -10z m82
-12 c-3 -8 -6 -5 -6 6 -1 11 2 17 5 13 3 -3 4 -12 1 -19z m253 3 c0 -5 -7 -11
-14 -14 -10 -4 -13 -1 -9 9 6 15 23 19 23 5z m25 -11 c3 -5 1 -10 -4 -10 -6 0
-11 5 -11 10 0 6 2 10 4 10 3 0 8 -4 11 -10z m51 -64 c-4 -15 -1 -26 7 -29 6
-2 9 -7 6 -11 -3 -3 -15 3 -27 14 -23 21 -20 50 5 50 11 0 13 -7 9 -24z
m-1606 -41 c0 -8 -5 -15 -12 -15 -6 0 -3 -9 7 -20 10 -11 24 -20 32 -20 8 0
11 -4 8 -10 -6 -10 -25 -9 -55 3 -8 3 -27 8 -41 11 -24 5 -46 32 -35 43 2 2
18 5 35 5 18 1 34 5 37 10 9 13 24 9 24 -7z m1100 -109 c0 -3 -4 -8 -10 -11
-5 -3 -10 -1 -10 4 0 6 5 11 10 11 6 0 10 -2 10 -4z"/>
<path d="M8936 9226 c3 -8 -2 -16 -13 -19 -12 -3 -9 -5 9 -6 31 -1 47 17 27
30 -20 13 -29 11 -23 -5z"/>
<path d="M8937 9153 c-4 -3 -7 -11 -7 -17 0 -6 5 -5 12 2 6 6 9 14 7 17 -3 3
-9 2 -12 -2z"/>
<path d="M11260 11100 c20 -13 33 -13 25 0 -3 6 -14 10 -23 10 -15 0 -15 -2
-2 -10z"/>
<path d="M11312 11075 c-6 -14 -8 -25 -4 -25 4 0 12 11 19 25 6 14 8 25 4 25
-4 0 -13 -11 -19 -25z"/>
<path d="M11576 11084 c-3 -8 -10 -12 -16 -9 -5 3 -10 -1 -10 -9 0 -18 57 -31
89 -21 23 7 28 33 9 39 -48 15 -66 15 -72 0z"/>
<path d="M11134 11045 c24 -18 36 -19 36 -2 0 7 -12 14 -27 15 -27 1 -27 1 -9
-13z"/>
<path d="M11670 11039 c0 -5 5 -7 10 -4 6 3 10 8 10 11 0 2 -4 4 -10 4 -5 0
-10 -5 -10 -11z"/>
<path d="M14090 11017 c0 -26 6 -36 25 -45 24 -11 25 -11 15 9 -7 11 -9 26 -7
33 3 7 -4 18 -14 24 -17 11 -19 9 -19 -21z"/>
<path d="M6041 10992 c5 -29 -3 -72 -11 -67 -9 6 -15 -17 -10 -40 5 -23 11
-61 13 -77 1 -10 5 -18 8 -18 4 0 10 -9 14 -19 3 -10 19 -24 35 -31 16 -7 36
-23 45 -36 8 -13 22 -24 29 -24 8 0 16 -7 20 -15 3 -8 12 -15 19 -15 19 0 39
-77 27 -101 -7 -12 -6 -19 4 -22 8 -3 12 -21 11 -51 -1 -29 3 -50 11 -57 8 -6
14 -17 14 -25 0 -7 6 -19 13 -26 6 -7 17 -26 22 -43 6 -17 19 -31 30 -33 11
-2 37 -22 59 -44 27 -28 41 -37 49 -29 20 20 29 12 22 -19 -6 -26 -3 -32 23
-47 27 -16 29 -19 20 -52 -6 -19 -18 -41 -27 -48 -15 -11 -15 -12 2 -13 11 0
17 -8 17 -25 0 -14 6 -28 14 -31 8 -3 12 -12 10 -19 -3 -8 -13 -11 -22 -8 -12
5 -14 2 -9 -11 4 -10 7 -24 7 -31 0 -7 19 -20 43 -28 23 -8 41 -20 39 -26 -1
-7 2 -10 8 -6 5 3 10 -2 11 -12 0 -12 2 -14 6 -5 3 8 -4 27 -16 43 -25 34 -26
45 -4 133 17 69 16 70 -14 153 -3 8 3 11 16 8 12 -2 21 1 21 7 0 6 2 9 5 6 9
-9 61 45 67 69 4 13 2 26 -4 29 -5 3 -7 13 -4 21 10 26 -13 53 -45 53 -18 0
-28 -4 -24 -10 10 -16 -11 -12 -25 5 -8 9 -10 29 -7 49 4 28 1 40 -21 63 -45
47 -72 111 -66 157 5 36 2 47 -28 84 -34 42 -46 86 -28 97 6 3 10 12 10 18 0
7 -7 4 -14 -6 -8 -10 -25 -19 -38 -20 -12 0 -26 -6 -30 -11 -5 -7 -13 -3 -22
9 -12 16 -26 20 -73 20 -64 0 -71 6 -72 62 -1 17 -6 35 -11 38 -6 4 -7 11 -4
17 4 6 -4 19 -17 29 -13 10 -18 19 -11 19 18 0 15 20 -4 20 -12 0 -15 -7 -12
-25 6 -27 -16 -36 -25 -11 -6 14 -67 40 -66 28z"/>
<path d="M14150 10941 c0 -18 -4 -30 -9 -26 -17 10 -61 -18 -67 -42 -8 -30
-19 -29 -40 2 -20 30 -35 32 -52 5 -7 -11 -19 -20 -27 -20 -26 0 -111 -73
-107 -92 2 -13 -3 -18 -17 -18 -16 0 -21 -6 -21 -25 0 -26 -32 -51 -51 -39 -8
4 -8 1 -1 -12 34 -65 19 -164 -24 -164 -15 0 -24 -8 -28 -26 -4 -15 -16 -34
-28 -43 -18 -15 -19 -21 -9 -56 9 -32 8 -42 -5 -56 -12 -13 -13 -18 -2 -22 10
-3 9 -6 -3 -11 -13 -6 -14 -13 -6 -46 9 -33 8 -42 -6 -58 -16 -17 -16 -20 8
-40 24 -21 29 -33 26 -59 -1 -6 3 -14 9 -18 14 -8 13 -52 -1 -61 -7 -4 2 -12
22 -21 28 -11 38 -12 58 -1 34 18 75 86 62 102 -6 7 -9 15 -6 17 2 3 -2 27
-10 54 -12 39 -13 50 -3 57 7 4 9 8 4 8 -5 0 3 11 18 25 14 13 26 29 26 35 0
5 9 10 20 10 11 0 20 7 20 15 0 8 5 15 10 15 7 0 7 6 0 19 -7 15 -6 23 6 35 8
9 19 16 22 16 12 0 32 77 32 120 0 28 4 40 14 40 25 0 86 44 92 67 4 16 18 26
45 33 44 12 74 49 84 103 4 20 18 47 31 60 13 12 24 32 24 45 0 19 -4 22 -21
17 -20 -7 -58 21 -59 42 0 4 -7 17 -15 27 -14 19 -15 18 -15 -13z"/>
<path d="M12930 10799 c0 -5 5 -7 10 -4 6 3 10 8 10 11 0 2 -4 4 -10 4 -5 0
-10 -5 -10 -11z"/>
<path d="M12785 10782 c-12 -13 -4 -52 11 -52 12 0 10 -7 -10 -31 -14 -17 -26
-37 -26 -44 0 -8 -7 -18 -15 -23 -13 -7 -14 -14 -6 -35 13 -33 -3 -64 -34 -69
-18 -3 -15 -8 21 -43 37 -36 74 -94 74 -117 0 -4 -7 -8 -15 -8 -8 0 -15 -8
-15 -17 0 -10 -9 -29 -20 -43 -16 -22 -22 -23 -39 -13 -18 12 -21 10 -27 -23
-5 -30 -2 -40 20 -63 15 -16 26 -32 25 -37 -1 -5 4 -22 11 -37 10 -20 19 -27
33 -23 21 5 67 -12 67 -26 0 -16 33 -7 62 18 17 14 37 23 45 20 8 -4 19 -6 24
-6 14 0 -19 -60 -37 -67 -9 -3 -12 -13 -9 -23 4 -13 -1 -19 -20 -24 -20 -5
-25 -11 -20 -26 4 -12 2 -20 -5 -20 -6 0 -8 -10 -4 -25 7 -29 -6 -32 -41 -9
-18 12 -28 13 -44 4 -12 -6 -21 -7 -21 -3 -2 23 -30 -77 -29 -102 1 -46 12
-66 45 -80 37 -15 64 -3 64 30 0 29 34 52 54 36 8 -7 16 -7 22 -1 10 10 54 2
54 -10 0 -14 -29 -32 -41 -25 -6 4 -15 1 -20 -6 -5 -9 1 -23 18 -41 36 -38 39
-62 7 -55 -17 3 -33 -4 -54 -25 -28 -26 -29 -30 -16 -51 7 -12 16 -41 19 -64
5 -38 3 -43 -15 -43 -18 0 -19 -4 -14 -34 7 -38 -5 -54 -24 -31 -11 13 -15 11
-33 -11 -14 -18 -27 -24 -43 -21 -29 5 -30 -3 -3 -34 12 -14 16 -25 9 -27 -7
-3 -4 -10 7 -18 16 -13 14 -14 -22 -9 l-40 6 32 -15 c34 -16 44 -38 31 -75 -5
-15 -5 -27 1 -30 6 -4 5 -24 -2 -54 -8 -38 -14 -47 -28 -44 -12 3 -16 0 -12
-9 3 -8 10 -14 15 -14 5 0 22 -9 36 -20 l26 -21 21 27 c14 17 28 25 37 21 9
-3 19 -2 24 2 5 5 21 11 37 15 21 5 27 3 27 -10 0 -14 3 -14 15 -4 12 10 21
10 38 2 80 -41 127 -43 164 -6 13 13 32 24 41 24 10 0 22 4 27 9 6 5 21 11 35
13 16 2 26 11 31 28 5 21 7 22 14 8 9 -22 25 -14 25 11 0 14 11 20 45 26 43 6
129 33 112 34 -4 1 -2 7 5 15 7 7 18 11 25 9 10 -4 10 2 1 28 -9 25 -9 34 1
37 7 2 22 15 35 29 20 21 23 34 21 91 -1 58 2 70 23 91 15 16 21 32 18 45 -4
16 2 24 21 34 15 6 33 12 40 12 7 0 13 7 13 15 0 8 9 19 20 25 24 13 26 30 4
30 -8 0 -25 5 -37 12 -28 15 -109 16 -122 1 -5 -6 -29 -14 -53 -18 l-42 -7 12
29 c6 15 16 34 21 40 6 8 4 21 -6 36 -9 13 -19 41 -23 62 -7 37 -6 38 21 31
l28 -7 -5 46 c-4 29 -1 57 8 74 7 14 20 51 27 81 11 43 19 56 37 60 21 5 20 7
-18 33 -22 16 -48 30 -58 31 -10 2 -20 8 -22 14 -2 7 3 10 12 6 19 -7 22 16 4
34 -9 9 -7 13 8 18 93 32 116 54 89 84 -8 9 -12 19 -9 23 3 3 10 22 14 43 10
44 -1 64 -31 57 -25 -7 -116 34 -124 55 -8 22 3 28 25 14 23 -14 70 -16 70 -3
0 16 -27 31 -46 25 -13 -4 -15 -3 -7 3 10 7 10 13 -3 29 -13 15 -15 16 -10 2
4 -15 2 -16 -19 -6 -19 8 -27 7 -40 -6 -9 -9 -14 -20 -11 -24 6 -11 -29 -29
-67 -35 -22 -3 -33 3 -57 32 -17 20 -44 50 -60 68 -17 18 -30 37 -30 43 0 16
-43 29 -62 18 -10 -5 -18 -5 -18 -1 0 4 -11 8 -25 8 -14 0 -25 -3 -25 -7 0 -5
-9 -8 -19 -8 -11 0 -23 -5 -26 -10 -5 -8 -12 -7 -22 2 -9 7 -18 12 -20 11 -1
-2 -9 -3 -17 -3 -17 0 -28 38 -13 43 6 2 -6 21 -26 42 -31 32 -40 37 -47 25
-6 -8 -10 -18 -10 -22 0 -14 -40 -8 -40 6 0 13 -45 28 -55 18z m385 -308 c0
-8 -4 -14 -10 -14 -5 0 -10 2 -10 4 0 2 -3 12 -6 20 -5 12 -2 15 10 10 9 -3
16 -12 16 -20z m100 6 c0 -5 -7 -10 -15 -10 -8 0 -15 5 -15 10 0 6 7 10 15 10
8 0 15 -4 15 -10z m274 -135 c-5 -12 -10 -13 -20 -4 -19 15 -18 19 6 19 13 0
18 -5 14 -15z m39 -32 c-4 -10 -9 -11 -19 -2 -18 15 -18 15 5 15 11 0 17 -5
14 -13z m-565 -501 c2 -7 -3 -12 -12 -12 -9 0 -16 7 -16 16 0 17 22 14 28 -4z
m691 -149 c2 -2 -3 -3 -11 -3 -9 0 -19 7 -22 16 -6 15 -4 15 11 3 10 -7 20
-15 22 -16z m-564 -303 c-3 -5 -10 -10 -16 -10 -5 0 -9 5 -9 10 0 6 7 10 16
10 8 0 12 -4 9 -10z m-80 -240 c8 -13 -5 -13 -25 0 -13 8 -13 10 2 10 9 0 20
-4 23 -10z"/>
<path d="M6450 10740 c0 -5 5 -10 11 -10 5 0 7 5 4 10 -3 6 -8 10 -11 10 -2 0
-4 -4 -4 -10z"/>
<path d="M8070 10370 c0 -5 5 -10 11 -10 5 0 8 -4 4 -9 -3 -5 0 -13 6 -16 6
-5 8 -20 5 -40 -8 -42 10 -59 44 -40 20 12 21 14 7 15 -15 0 -17 5 -13 28 5
21 0 33 -23 55 -31 29 -41 33 -41 17z"/>
<path d="M8037 10339 c6 -23 9 -24 16 -5 3 8 0 17 -7 19 -10 4 -12 -1 -9 -14z"/>
<path d="M8025 10290 c3 -5 13 -10 21 -10 8 0 12 5 9 10 -3 6 -13 10 -21 10
-8 0 -12 -4 -9 -10z"/>
<path d="M12580 10244 c0 -16 -31 -19 -46 -3 -8 7 -23 -1 -50 -25 -21 -20 -54
-49 -72 -65 -18 -17 -42 -29 -55 -28 -26 2 -87 58 -87 80 0 23 -32 31 -46 12
-10 -13 -17 -14 -33 -5 -14 7 -21 7 -21 0 0 -5 -9 -10 -19 -10 -11 0 -23 -4
-26 -10 -3 -5 -17 -10 -31 -10 -22 0 -31 -17 -25 -52 0 -5 -3 -8 -7 -8 -5 0
-8 -10 -8 -22 1 -17 -5 -23 -19 -23 -11 0 -26 -4 -34 -9 -8 -5 -27 -9 -43 -8
-19 0 -32 -5 -36 -17 -4 -10 -24 -32 -44 -50 -28 -25 -42 -30 -62 -25 -17 4
-26 2 -26 -6 0 -7 -7 -10 -14 -7 -10 4 -13 1 -10 -7 7 -17 -54 -69 -72 -62
-21 8 -17 -3 16 -41 17 -18 30 -38 30 -43 0 -5 10 -12 23 -16 12 -4 25 -12 29
-18 5 -7 8 -6 8 3 0 11 3 11 13 -3 9 -12 29 -18 67 -20 48 -2 57 -6 70 -30 12
-21 20 -25 39 -21 30 8 81 -12 81 -31 0 -10 13 -14 43 -14 43 0 92 -24 82 -40
-3 -5 3 -14 14 -19 13 -8 20 -8 23 0 4 12 61 -38 77 -68 6 -13 18 -23 26 -23
7 0 16 -6 18 -12 3 -7 6 -1 6 13 1 26 17 39 47 39 10 0 14 -12 14 -39 0 -22 5
-43 10 -46 6 -4 7 -11 4 -17 -5 -8 9 -9 45 -5 48 6 52 5 61 -18 5 -14 15 -25
22 -25 9 0 9 -3 -2 -10 -15 -9 -16 -9 35 -25 22 -7 18 5 -10 27 -23 18 -24 21
-9 43 9 15 11 25 5 29 -19 12 0 36 23 30 19 -4 22 -1 21 23 -1 15 3 33 8 40 5
7 6 17 2 23 -4 6 1 20 11 31 17 19 17 20 -4 40 -22 20 -31 46 -12 34 6 -4 23
-4 39 0 22 5 30 14 36 38 13 54 11 61 -23 91 -24 21 -45 29 -82 32 -28 2 -50
-1 -50 -6 0 -6 -4 -10 -9 -10 -6 0 -9 8 -9 18 1 9 -10 35 -24 57 -29 47 -45
105 -29 105 6 0 11 7 11 15 0 8 10 23 21 34 14 13 20 27 16 40 -4 16 1 21 22
23 15 2 30 12 36 26 5 12 16 22 23 22 9 0 11 7 7 20 -5 14 -2 20 9 20 9 0 16
5 16 10 0 6 7 10 15 10 18 0 20 20 3 21 -15 1 -31 5 -38 8 -20 10 -40 7 -40
-5z m-419 -531 c13 -16 12 -17 -3 -4 -10 7 -18 15 -18 17 0 8 8 3 21 -13z"/>
<path d="M13550 10225 c-11 -13 -10 -14 4 -9 9 3 16 10 16 15 0 13 -6 11 -20
-6z"/>
<path d="M8685 10090 c-8 -13 15 -24 27 -12 6 6 4 11 -6 15 -8 3 -18 2 -21 -3z"/>
<path d="M13850 10015 c13 -23 15 -35 8 -35 -9 0 -9 -3 0 -12 17 -17 27 -1 15
25 -6 12 -14 30 -17 40 -3 9 -10 17 -16 17 -5 0 -1 -16 10 -35z"/>
<path d="M13850 9933 c0 -5 5 -15 10 -23 8 -13 10 -13 10 2 0 11 5 15 15 12 8
-4 15 -1 15 5 0 6 -11 11 -25 11 -14 0 -25 -3 -25 -7z"/>
<path d="M6617 9794 c4 -12 3 -15 -6 -10 -9 6 -11 -1 -5 -29 5 -26 3 -40 -7
-45 -11 -7 -10 -13 5 -29 20 -22 14 -61 -9 -61 -9 0 -12 -6 -9 -15 3 -8 1 -30
-6 -49 -10 -31 -15 -34 -58 -38 -48 -5 -78 6 -49 18 27 10 20 39 -12 51 -28
10 -29 10 -21 -12 7 -17 4 -26 -8 -37 -32 -25 -61 -38 -67 -29 -5 8 -71 25
-103 26 -8 0 -19 10 -26 23 -18 35 -24 18 -14 -45 11 -70 11 -69 3 -113 -4
-19 -8 -44 -9 -55 -1 -11 -5 -30 -10 -43 -5 -14 -3 -28 4 -37 17 -20 34 -19
26 1 -4 9 -1 23 5 30 9 11 8 18 -2 30 -12 14 -9 15 25 10 22 -4 49 -9 62 -12
19 -5 22 -3 17 14 -4 17 -1 20 17 15 12 -3 24 -12 27 -19 3 -8 15 -14 28 -14
25 0 51 -25 56 -54 4 -19 8 -20 94 -28 17 -2 35 -9 41 -17 6 -8 16 -11 23 -7
6 4 19 2 27 -5 13 -10 17 -10 24 0 5 9 9 10 14 2 4 -6 12 -9 17 -6 5 4 9 0 9
-7 1 -8 4 -7 10 4 11 19 1 49 -29 88 -24 30 -40 87 -22 75 8 -4 12 -2 10 6 -3
27 1 37 21 42 14 4 20 14 20 35 0 25 3 29 24 25 16 -3 31 2 46 17 20 20 23 21
46 5 24 -16 26 -15 31 4 8 31 46 27 61 -6 7 -16 19 -39 26 -53 8 -14 17 -44
21 -67 6 -39 5 -41 -15 -36 -22 6 -22 6 -5 -21 10 -15 24 -25 32 -22 7 3 19
-3 25 -14 7 -11 22 -20 34 -20 12 0 27 -7 34 -15 14 -16 50 -17 61 -1 4 5 15
5 25 1 11 -5 22 -7 27 -7 4 1 7 -2 7 -7 0 -5 10 -12 23 -16 l22 -8 -22 -4
c-13 -2 -23 -11 -23 -19 0 -8 -4 -14 -10 -14 -14 0 -60 -49 -60 -65 0 -8 5
-17 10 -20 29 -18 -76 -81 -117 -70 -18 4 -37 -3 -71 -25 -26 -17 -57 -33 -69
-36 -13 -4 -23 -13 -23 -22 0 -9 -10 -26 -21 -39 -16 -16 -19 -26 -12 -35 6
-7 16 -29 22 -49 13 -42 36 -52 94 -42 28 4 41 12 47 28 8 22 64 44 77 31 8
-7 88 49 111 79 11 14 27 25 36 25 10 0 16 9 16 25 0 18 5 25 19 25 20 0 31
17 24 38 -3 6 -11 12 -18 12 -31 0 -21 17 10 18 21 1 35 -3 35 -10 0 -9 3 -9
12 0 7 7 29 12 49 12 30 0 38 4 43 23 4 15 -1 27 -14 37 -17 13 -19 23 -14 67
6 50 7 51 32 42 13 -5 27 -8 29 -5 6 6 -70 66 -84 66 -7 0 -10 6 -7 13 3 8 -2
20 -11 27 -23 19 -18 32 12 28 35 -4 41 20 13 53 -11 13 -18 17 -15 9 3 -8 0
-22 -5 -30 -8 -12 -18 -6 -57 36 -26 28 -55 61 -63 73 -8 12 -25 23 -36 25
-32 6 -102 44 -135 73 -27 25 -84 39 -94 23 -2 -4 -16 -5 -30 -2 -14 2 -32 -1
-40 -8 -8 -6 -19 -9 -25 -5 -5 3 -13 -1 -16 -9 -8 -20 -24 -21 -24 -1 0 8 -5
15 -12 15 -6 0 -25 11 -42 24 -17 12 -46 31 -63 40 -18 9 -33 23 -33 31 0 7
-11 22 -25 33 -15 12 -25 30 -25 45 0 14 -4 29 -10 32 -6 4 -7 -1 -3 -11z"/>
<path d="M12691 9596 c-10 -12 -8 -17 8 -26 19 -9 21 -8 21 15 0 28 -12 32
-29 11z"/>
<path d="M9770 9500 c0 -5 5 -10 11 -10 5 0 7 5 4 10 -3 6 -8 10 -11 10 -2 0
-4 -4 -4 -10z"/>
<path d="M12278 9399 c-10 -10 -18 -24 -18 -30 0 -7 -9 -27 -21 -46 -12 -18
-17 -33 -13 -32 21 3 35 -2 29 -11 -3 -5 -1 -10 4 -10 6 0 11 12 11 28 l1 27
20 -24 c14 -17 23 -21 30 -14 7 7 22 8 46 1 40 -11 51 -5 34 16 -7 8 -10 20
-6 26 5 7 0 10 -11 9 -11 -2 -25 0 -33 5 -10 6 -12 5 -7 -2 4 -7 2 -12 -3 -12
-15 0 -14 27 2 34 9 3 7 9 -5 19 -10 8 -18 19 -18 26 0 17 -23 12 -42 -10z"/>
<path d="M12695 9401 c-3 -5 -1 -12 5 -16 5 -3 10 1 10 9 0 18 -6 21 -15 7z"/>
<path d="M12625 9390 c3 -5 8 -10 11 -10 2 0 4 5 4 10 0 6 -5 10 -11 10 -5 0
-7 -4 -4 -10z"/>
<path d="M12420 9317 c0 -17 5 -27 15 -27 19 0 19 9 0 34 -14 19 -15 19 -15
-7z"/>
<path d="M7130 9211 c0 -11 31 -24 39 -16 3 3 -1 10 -9 15 -19 12 -30 12 -30
1z"/>
<path d="M7125 9170 c-3 -5 -1 -10 4 -10 6 0 11 5 11 10 0 6 -2 10 -4 10 -3 0
-8 -4 -11 -10z"/>
<path d="M9300 9122 c0 -5 9 -12 21 -15 13 -3 19 -1 16 6 -5 15 -37 22 -37 9z"/>
<path d="M9355 9100 c-3 -6 1 -13 10 -16 19 -8 30 0 20 15 -8 14 -22 14 -30 1z"/>
<path d="M9380 9061 c0 -12 26 -32 33 -25 3 4 0 13 -8 20 -16 16 -25 18 -25 5z"/>
<path d="M6706 8910 c-14 -4 -16 -9 -8 -14 7 -4 10 -12 6 -17 -3 -5 -1 -16 5
-23 18 -21 3 -47 -24 -40 -19 5 -23 1 -28 -23 -7 -37 2 -43 20 -15 9 12 20 22
25 22 16 0 68 57 68 74 0 9 7 16 16 16 8 0 13 4 10 9 -3 5 -15 7 -26 4 -11 -3
-26 -1 -33 5 -6 5 -21 6 -31 2z"/>
<path d="M6629 8699 c-17 -34 -18 -43 -7 -50 7 -5 16 -9 19 -9 4 0 3 -18 -1
-40 -6 -32 -4 -46 11 -64 22 -28 24 -57 7 -74 -9 -9 -8 -12 5 -12 9 0 22 7 29
16 7 8 20 24 30 34 26 29 32 59 13 66 -21 9 -40 48 -55 117 -7 31 -17 57 -21
57 -5 0 -18 -19 -30 -41z"/>
<path d="M6643 8425 c-3 -9 -3 -18 -1 -21 3 -3 8 4 11 16 6 23 -1 27 -10 5z"/>
<path d="M6563 8411 c-3 -11 -15 -21 -27 -23 -19 -3 -18 -4 5 -9 22 -5 28 -1
37 23 7 18 7 28 0 28 -5 0 -12 -9 -15 -19z"/>
<path d="M6446 8375 c4 -8 16 -15 28 -15 21 1 21 1 2 15 -25 19 -37 19 -30 0z"/>
<path d="M7983 7648 c3 -9 1 -19 -6 -22 -7 -2 -2 -5 11 -5 26 -1 29 11 5 30
-15 12 -16 12 -10 -3z"/>
<path d="M7931 7559 c-14 -6 -21 -15 -17 -24 3 -8 -2 -18 -11 -23 -11 -6 -12
-11 -4 -16 16 -10 14 -36 -4 -36 -8 0 -17 -10 -20 -23 -5 -19 -11 -22 -45 -19
-35 4 -38 2 -33 -17 4 -15 -1 -23 -21 -32 -14 -7 -26 -20 -26 -31 0 -11 -14
-25 -35 -35 -28 -13 -32 -19 -23 -31 13 -15 -4 -32 -33 -32 -14 0 -16 -12 -16
-66 0 -64 -4 -73 -38 -88 -5 -3 1 -14 14 -25 12 -12 27 -18 32 -15 6 3 16 0
24 -6 8 -7 15 -10 15 -7 0 3 23 -1 51 -9 51 -15 52 -15 75 9 31 34 39 70 20
90 -14 13 -14 16 -1 27 11 9 12 16 4 26 -7 9 -7 19 2 36 7 13 12 31 10 41 -2
18 15 22 44 11 15 -6 14 -8 -1 -25 -16 -18 -15 -19 7 -28 22 -8 25 -5 37 28 7
20 11 49 9 64 -3 26 -1 28 27 26 17 -2 36 0 42 4 13 8 6 159 -8 168 -5 3 -6
13 -2 22 4 13 1 17 -15 17 -12 0 -21 6 -21 15 0 17 -5 18 -39 4z"/>
<path d="M7870 7181 c0 -5 7 -11 15 -15 8 -3 15 -1 15 3 0 5 -7 11 -15 15 -8
3 -15 1 -15 -3z"/>
<path d="M7720 7004 c0 -8 5 -12 10 -9 6 4 8 11 5 16 -9 14 -15 11 -15 -7z"/>
<path d="M7595 6969 c-7 -20 -12 -21 -67 -16 -49 4 -58 3 -54 -9 3 -8 -1 -14
-8 -14 -13 0 -36 -40 -36 -64 0 -8 -13 -16 -29 -19 -16 -3 -41 -17 -57 -30
l-28 -24 26 -17 c31 -20 69 -9 94 29 9 14 23 25 32 25 8 0 20 7 26 15 6 8 22
16 36 18 19 3 26 11 28 31 2 18 8 26 17 22 7 -2 16 2 19 10 3 8 20 20 37 26
32 11 29 21 -8 32 -16 5 -23 2 -28 -15z"/>
</g>
</svg>
