<?xml version="1.0" standalone="no"?>
<!DOCTYPE svg PUBLIC "-//W3C//DTD SVG 20010904//EN"
 "http://www.w3.org/TR/2001/REC-SVG-20010904/DTD/svg10.dtd">
<svg version="1.0" xmlns="http://www.w3.org/2000/svg"
 width="518.348345pt" height="869.956094pt" viewBox="0 0 518.348345 869.956094"
 preserveAspectRatio="xMidYMid meet">
<metadata>
Created by potrace 1.15, written by Peter Selinger 2001-2017
</metadata>
<g transform="translate(-752.416790,1455.956094) scale(0.100000,-0.100000)"
fill="#222222" stroke="none">
<path d="M10620 14546 c0 -15 -6 -17 -33 -14 -30 3 -33 1 -29 -18 3 -15 -3
-26 -18 -34 -17 -9 -19 -14 -9 -26 6 -8 9 -15 5 -15 -3 -1 -10 -2 -14 -3 -5 0
-16 -9 -26 -19 -15 -15 -21 -15 -35 -5 -13 10 -13 9 2 -8 19 -23 23 -64 6 -81
-8 -8 -8 -13 0 -17 6 -4 11 -20 11 -37 0 -16 4 -29 8 -29 11 0 9 -54 -3 -62
-5 -4 3 -12 18 -17 15 -6 32 -22 37 -35 5 -13 32 -48 59 -77 30 -32 51 -63 51
-76 0 -22 31 -48 43 -36 3 3 13 -2 22 -11 15 -15 14 -16 -9 -16 -14 0 -26 -2
-26 -5 0 -15 29 -64 52 -89 15 -17 28 -34 28 -39 0 -16 28 -38 35 -27 15 24
24 -3 10 -29 -14 -27 -13 -30 20 -60 19 -17 35 -36 35 -41 0 -5 15 -14 34 -21
36 -13 69 -58 71 -96 1 -27 -3 -28 -26 -7 -21 19 -68 26 -70 10 -1 -6 -3 -20
-4 -31 -3 -29 -40 -97 -63 -116 -11 -9 -21 -22 -24 -29 -2 -6 -22 -14 -45 -17
-40 -5 -41 -6 -41 -45 -1 -22 -6 -46 -13 -54 -9 -11 -9 -18 3 -32 9 -9 18 -26
22 -37 8 -27 64 -59 81 -45 9 7 25 3 58 -16 26 -14 51 -23 56 -20 5 4 13 2 16
-4 4 -6 24 -10 46 -8 21 1 44 -3 51 -10 7 -7 8 -12 4 -12 -5 0 -3 -7 4 -15 15
-19 7 -19 -28 -1 -16 8 -35 10 -47 6 -13 -5 -27 -2 -39 9 -11 9 -16 10 -12 4
4 -8 1 -13 -9 -13 -9 0 -15 -7 -13 -17 4 -19 -51 -38 -66 -23 -6 6 -25 10 -43
10 -27 0 -42 -9 -74 -44 -23 -25 -60 -51 -85 -61 -24 -9 -44 -21 -44 -26 0 -5
-11 -14 -25 -19 -29 -11 -34 -29 -7 -28 24 2 87 -38 107 -68 15 -23 31 -164
19 -164 -3 0 -11 6 -19 13 -19 19 -93 14 -133 -9 -25 -15 -31 -24 -26 -39 3
-11 6 -27 7 -36 1 -19 26 -13 43 10 10 13 14 10 27 -20 8 -20 18 -45 21 -56 4
-12 13 -24 21 -27 8 -3 15 -15 15 -26 0 -11 6 -20 14 -20 8 0 16 -6 19 -12 3
-10 7 -10 19 -1 12 11 19 8 42 -17 20 -23 32 -29 49 -25 16 4 38 -4 74 -28 60
-41 113 -55 113 -31 0 12 3 14 13 6 8 -7 29 -6 65 1 48 10 52 13 52 39 0 28 1
29 39 23 37 -5 40 -4 43 22 2 17 12 32 28 40 14 7 24 17 23 22 -6 25 82 23
121 -3 14 -9 27 -14 27 -11 1 3 2 11 3 18 0 6 11 13 24 15 22 3 22 4 5 35 -10
18 -24 36 -30 40 -17 11 -16 27 1 27 15 0 8 59 -12 97 -17 32 -15 49 13 92 26
38 26 39 8 75 -15 32 -15 38 -3 47 8 5 26 7 40 4 14 -3 31 -1 39 4 10 7 9 11
-8 23 -26 19 -40 76 -20 88 18 12 1 61 -27 75 -15 7 -20 21 -21 53 -1 40 0 42
26 42 15 0 36 9 46 20 18 20 18 21 0 34 -17 12 -17 15 4 81 11 38 21 74 21 82
0 7 5 13 10 13 6 0 16 12 23 28 6 15 16 30 21 34 6 4 5 21 -2 45 -9 30 -8 53
5 120 11 52 22 83 30 83 18 0 16 28 -7 78 -10 23 -15 42 -10 42 5 0 7 6 4 14
-3 8 -1 17 4 20 6 3 8 16 5 29 -4 17 -3 19 6 7 7 -11 13 -12 21 -4 8 8 7 14
-5 24 -17 14 -20 40 -5 40 13 0 13 47 0 55 -13 8 -3 46 17 62 10 8 12 16 5 30
-5 10 -16 31 -23 47 -10 21 -15 24 -17 13 -3 -13 -10 -15 -30 -11 -15 4 -32
13 -38 20 -13 16 -34 19 -34 4 0 -5 -7 -10 -16 -10 -8 0 -13 -4 -10 -9 10 -16
-106 -3 -125 15 -10 9 -39 19 -64 22 -46 5 -47 6 -76 68 -17 35 -35 64 -40 64
-5 0 -9 8 -9 18 0 19 -26 47 -72 75 -34 21 -38 21 -38 1 0 -11 -6 -14 -22 -9
-32 11 -102 8 -106 -4 -5 -14 -49 -14 -57 0 -4 5 -12 8 -18 6 -7 -2 -24 2 -39
10 -21 10 -28 21 -28 42 0 16 3 31 8 34 4 2 1 2 -5 1 -7 -2 -13 4 -13 12 0 9
-5 12 -12 8 -7 -4 -5 2 5 13 25 28 21 34 -18 31 -25 -1 -39 4 -50 17 -14 19
-14 19 -15 1z"/>
<path d="M11823 13406 c4 -10 -2 -16 -21 -19 -27 -3 -27 -3 -4 -13 22 -10 22
-10 -12 -44 -20 -19 -36 -40 -36 -47 0 -6 -8 -9 -19 -6 -12 3 -17 11 -14 23 3
10 1 26 -5 35 -8 15 -10 12 -15 -13 -9 -44 -66 -132 -85 -132 -23 0 -82 -49
-62 -51 48 -6 110 -3 110 6 0 12 65 37 103 39 15 0 27 7 27 14 0 15 16 16 25
2 4 -7 18 -4 39 8 21 12 38 16 51 11 11 -4 30 -8 43 -8 28 -1 52 -23 52 -47 0
-16 1 -16 20 1 15 13 29 16 57 12 28 -5 34 -4 21 4 -22 12 -23 29 -3 29 10 0
15 10 15 30 0 17 -7 47 -15 67 -18 43 -18 43 -1 43 8 0 17 7 20 16 8 20 9 20
-31 27 -23 5 -38 1 -58 -15 -24 -18 -30 -19 -48 -8 -17 10 -22 10 -31 -2 -13
-18 -33 -13 -66 17 -33 29 -64 41 -57 21z"/>
<path d="M10585 13180 c-18 -7 -19 -8 -2 -15 21 -9 50 1 42 15 -7 12 -13 12
-40 0z"/>
<path d="M12128 13170 c19 -22 15 -28 -15 -22 -23 4 -26 2 -15 -9 6 -7 12 -22
12 -33 1 -30 79 -104 117 -112 l33 -6 -11 31 c-6 17 -9 38 -5 46 3 9 -7 23
-27 36 -18 12 -48 36 -67 53 -19 17 -29 24 -22 16z"/>
<path d="M11474 13155 c11 -8 26 -15 33 -15 22 0 14 8 -19 19 -30 10 -31 9
-14 -4z"/>
<path d="M10496 13145 c-3 -8 2 -19 10 -26 12 -10 18 -9 29 2 12 12 11 16 -10
25 -18 9 -25 9 -29 -1z"/>
<path d="M10440 13061 c0 -11 -5 -21 -12 -23 -9 -3 -9 -6 0 -11 7 -5 17 4 27
23 14 27 14 30 0 30 -8 0 -15 -9 -15 -19z"/>
<path d="M12090 13051 c0 -10 26 -9 36 2 4 4 -2 7 -14 7 -12 0 -22 -4 -22 -9z"/>
<path d="M12512 12952 c-16 -16 -32 -20 -74 -18 -29 1 -59 4 -67 7 -8 2 -15
-5 -17 -19 -3 -18 3 -26 34 -38 20 -9 43 -19 51 -23 7 -4 15 -23 17 -44 2 -21
6 -42 9 -47 15 -24 85 -2 85 26 0 8 5 12 10 9 6 -4 10 5 10 19 0 15 6 26 14
26 7 0 19 14 26 30 7 17 16 30 20 30 5 0 6 10 3 23 -5 20 -4 21 11 6 19 -18
69 -14 63 5 -2 6 -17 15 -35 20 -25 7 -36 4 -62 -14 l-31 -22 -24 22 -23 22
-20 -20z"/>
<path d="M10350 12850 c8 -14 8 -20 0 -20 -6 0 -15 -12 -21 -26 -7 -21 -6 -31
6 -44 8 -9 15 -22 15 -29 0 -9 9 -12 25 -9 14 3 30 -1 37 -9 6 -8 17 -12 24
-9 7 3 16 1 20 -5 3 -6 12 -8 19 -5 8 3 15 -9 19 -35 3 -21 10 -39 16 -39 14
0 40 42 33 53 -3 6 -1 7 6 3 6 -4 9 -11 6 -16 -3 -5 3 -14 13 -19 17 -9 19 -7
16 17 -1 15 -13 35 -24 44 -19 15 -20 19 -6 24 17 7 22 34 6 34 -5 0 -10 -4
-10 -10 0 -5 -7 -10 -15 -10 -23 0 -18 17 8 25 21 8 21 8 -5 12 -16 2 -28 9
-28 14 0 6 -4 8 -9 5 -5 -3 -19 5 -33 18 -17 18 -28 22 -38 15 -25 -15 -40
-10 -52 16 -6 14 -17 25 -25 25 -11 0 -11 -5 -3 -20z"/>
<path d="M10255 12777 c-4 -18 -9 -37 -10 -44 -2 -6 6 -20 17 -30 20 -18 20
-18 16 25 -3 39 1 47 25 43 14 -2 -3 18 -22 29 -16 8 -20 5 -26 -23z"/>
<path d="M10352 12469 c-7 -11 -10 -24 -7 -29 3 -5 -2 -13 -11 -18 -20 -11
-21 -47 -3 -89 11 -28 11 -34 -4 -51 -11 -11 -15 -26 -11 -36 8 -20 -35 -66
-61 -66 -9 0 -18 -6 -21 -14 -3 -8 -15 -11 -31 -8 -18 3 -24 1 -19 -7 9 -14
-17 -41 -38 -41 -13 0 -14 -4 -4 -25 18 -40 -2 -52 -47 -31 -36 17 -37 17 -55
-2 -11 -11 -17 -28 -14 -40 4 -14 0 -21 -16 -25 -13 -3 -19 -10 -15 -17 4 -6
17 -9 30 -6 24 6 71 -13 87 -36 7 -10 11 -10 14 -1 3 7 12 9 20 6 19 -7 18
-23 -2 -23 -12 0 -14 -9 -12 -37 3 -42 30 -61 98 -70 l37 -5 12 48 c7 26 21
58 32 72 12 16 19 40 19 69 0 29 7 53 21 73 17 23 21 38 17 74 -3 25 -2 43 3
40 5 -3 9 -1 9 4 0 5 -11 14 -25 20 -30 14 -32 37 -5 54 11 7 20 23 20 35 0
13 4 23 8 23 5 0 14 11 20 25 6 14 19 25 27 25 9 0 20 11 25 25 5 14 13 25 18
25 10 0 8 57 -2 68 -4 4 -17 -4 -28 -18 -19 -23 -20 -23 -14 -3 7 22 -8 41
-19 23 -4 -6 -12 -7 -24 -1 -13 7 -20 5 -29 -10z"/>
<path d="M10206 11747 c-17 -13 -17 -15 -1 -46 9 -19 13 -40 9 -49 -7 -17 -8
-29 -12 -84 -2 -20 -9 -29 -27 -34 -23 -6 -25 -10 -25 -71 0 -55 -3 -66 -19
-70 -10 -3 -27 -21 -37 -41 -11 -21 -22 -39 -27 -40 -4 -2 -5 -8 -1 -13 3 -5
-2 -12 -10 -15 -12 -5 -13 -10 -5 -26 8 -15 8 -19 0 -14 -7 4 -11 -1 -11 -13
0 -30 -11 -51 -25 -51 -26 0 -83 -45 -99 -77 -15 -31 -15 -33 7 -47 40 -26 77
-30 91 -11 12 17 13 17 19 1 4 -10 15 -16 30 -14 18 2 34 -10 68 -52 65 -81
75 -105 62 -141 -7 -16 -10 -56 -9 -87 3 -63 -7 -92 -31 -92 -11 0 -14 -7 -11
-25 4 -21 1 -25 -18 -25 -12 0 -29 -6 -36 -13 -7 -8 -20 -16 -27 -18 -8 -3
-15 -16 -16 -30 -1 -13 -5 -34 -9 -46 -6 -19 -4 -22 11 -16 15 6 16 5 3 -8
-12 -13 -21 -14 -55 -4 -22 7 -47 10 -55 8 -10 -3 -9 0 3 7 14 9 16 19 11 46
-5 28 -3 34 10 34 10 0 14 5 11 10 -4 6 -11 8 -16 4 -6 -3 -17 2 -24 12 -14
18 -14 18 -15 -1 0 -14 -3 -16 -12 -7 -9 9 -5 17 16 33 19 15 24 25 17 32 -8
8 -15 5 -25 -9 -14 -19 -15 -19 -46 0 -26 15 -34 16 -40 5 -7 -10 -14 -10 -33
-2 -22 10 -24 9 -20 -7 3 -10 -3 -32 -12 -50 -10 -20 -15 -44 -11 -61 l5 -28
-34 16 c-38 18 -45 37 -18 51 15 9 14 12 -9 33 -13 13 -30 33 -36 44 -9 16
-10 12 -6 -23 4 -37 2 -46 -20 -63 -14 -11 -28 -28 -31 -39 -4 -11 -12 -20
-18 -20 -7 0 -25 -12 -41 -26 -29 -26 -29 -26 -13 -58 9 -17 16 -47 15 -66 0
-20 7 -48 16 -62 11 -17 13 -28 7 -33 -6 -3 -11 0 -11 9 0 17 -64 41 -86 32
-9 -3 -25 -1 -36 5 -17 9 -25 6 -48 -16 -16 -15 -35 -25 -43 -22 -11 4 -13 0
-10 -14 4 -16 0 -19 -26 -19 -22 0 -31 -5 -31 -16 0 -13 -7 -15 -35 -11 -25 4
-35 2 -35 -7 0 -18 -47 -59 -59 -52 -5 4 -12 2 -16 -4 -3 -5 -15 -10 -26 -10
-10 0 -19 -7 -19 -15 0 -8 -6 -15 -13 -15 -8 0 -19 -12 -26 -27 -9 -20 -14
-24 -21 -13 -4 7 -25 14 -47 16 -21 1 -39 3 -40 4 -2 1 -8 3 -14 4 -6 0 -16 8
-23 16 -17 22 -56 42 -56 29 0 -5 -4 -7 -10 -4 -5 3 -10 -1 -10 -9 0 -9 -7
-16 -15 -16 -10 0 -14 9 -11 29 2 22 0 28 -11 24 -8 -3 -12 -12 -9 -19 8 -21
-12 -27 -23 -7 -12 21 -14 13 -11 -55 1 -25 -5 -53 -14 -67 -21 -32 -20 -37 8
-68 16 -18 31 -25 43 -21 15 5 16 4 3 -5 -13 -10 -13 -12 0 -20 8 -5 17 -8 20
-6 4 2 20 -9 35 -25 16 -17 35 -30 42 -30 7 0 13 -4 13 -8 0 -5 23 -15 50 -24
28 -9 48 -12 45 -7 -6 9 70 -23 82 -34 10 -10 9 -147 -1 -147 -5 0 -14 -7 -20
-15 -6 -9 -24 -17 -40 -19 -15 -2 -32 -9 -37 -17 -11 -19 -56 -21 -63 -3 -3 8
-27 24 -52 36 l-47 20 -22 -25 -23 -24 21 -32 c12 -17 28 -31 35 -31 15 0 16
-22 2 -36 -8 -8 -6 -15 5 -24 8 -7 15 -21 15 -31 0 -16 8 -19 49 -19 27 0 57
-3 67 -7 13 -5 16 -3 11 10 -5 13 -1 17 17 17 12 0 31 8 40 19 9 10 30 21 47
25 23 4 31 12 35 36 4 16 13 30 20 30 8 0 14 5 14 10 0 6 7 10 15 10 8 0 15 7
15 15 0 9 9 15 25 15 20 0 25 6 31 35 5 31 9 34 30 29 17 -4 24 -2 24 9 0 20
42 30 59 13 17 -17 71 -2 71 20 0 8 8 14 18 14 15 0 18 6 14 29 -3 23 2 33 30
55 19 14 40 26 46 26 6 0 17 8 24 18 7 10 30 31 51 47 21 15 45 41 53 56 19
37 50 55 70 39 14 -12 46 -7 42 7 0 4 4 20 10 36 9 22 17 27 37 23 18 -3 33 2
46 15 25 25 29 21 39 -31 5 -29 4 -43 -7 -51 -18 -15 -7 -77 18 -105 11 -11
19 -24 19 -29 0 -4 7 -13 15 -19 24 -17 21 -166 -4 -166 -10 0 -12 -12 -8 -47
13 -109 12 -124 -5 -140 -10 -8 -25 -13 -33 -9 -11 4 -15 2 -13 -6 3 -7 13
-15 24 -16 10 -2 24 -9 29 -14 7 -7 2 -8 -15 -3 -14 4 -22 4 -18 0 11 -11 -20
-65 -38 -65 -8 0 -12 -4 -9 -10 3 -5 -3 -10 -14 -10 -26 0 -26 -9 -3 -56 13
-28 14 -38 5 -41 -8 -3 -13 -21 -13 -44 0 -29 4 -39 16 -39 11 0 14 -5 10 -16
-4 -10 1 -25 10 -36 10 -10 14 -21 11 -24 -3 -4 -1 -16 4 -27 8 -14 8 -22 -1
-27 -8 -5 -1 -17 21 -39 22 -23 35 -29 42 -22 18 18 56 12 67 -9 7 -14 21 -20
44 -20 21 0 40 -8 52 -21 30 -33 69 -49 119 -49 33 0 45 4 45 15 0 16 36 21
128 16 35 -2 61 2 77 13 30 20 55 21 55 2 0 -8 7 -16 15 -20 8 -3 15 -14 15
-24 0 -10 9 -27 21 -38 34 -30 49 -69 49 -124 0 -47 2 -50 25 -50 14 0 25 5
25 10 0 17 29 11 39 -9 10 -18 51 -36 51 -22 0 15 69 32 89 22 11 -6 32 -11
47 -11 21 0 25 -3 16 -12 -8 -8 -6 -18 9 -40 11 -15 15 -28 9 -28 -6 0 -8 -4
-5 -10 8 -14 45 -13 45 1 0 7 10 5 25 -5 23 -15 28 -15 77 9 58 28 81 31 95
13 15 -20 23 -61 14 -72 -12 -16 -21 -96 -11 -96 5 0 12 5 15 11 4 6 13 8 19
6 15 -6 17 23 4 40 -6 8 1 11 24 10 31 -2 33 0 30 26 -2 15 2 34 8 42 8 10 8
19 1 34 -19 35 -14 59 14 59 37 -1 40 7 16 47 -25 43 -27 63 -6 71 20 8 19 39
-4 99 -12 32 -29 56 -47 67 -27 17 -42 39 -43 66 -1 9 4 10 18 2 16 -8 21 -6
27 13 4 12 7 31 6 42 -1 14 9 25 34 37 19 9 33 14 30 11 -3 -3 -1 -14 5 -24
11 -21 37 -24 72 -8 24 11 24 12 8 50 -10 24 -25 40 -39 44 -17 4 -21 9 -14
18 5 7 12 27 14 45 4 29 1 35 -24 48 -18 9 -28 23 -28 37 0 39 -11 61 -37 81
-20 14 -27 16 -33 6 -4 -7 -15 -10 -23 -7 -8 3 -18 2 -23 -3 -5 -5 -10 13 -12
42 -2 36 3 59 17 83 16 28 17 34 5 39 -8 3 -14 14 -14 25 0 11 -14 36 -31 56
-25 28 -28 35 -13 35 16 0 16 1 1 18 -9 10 -20 33 -23 50 -4 18 -19 45 -35 60
-15 15 -34 45 -41 67 -11 32 -18 41 -41 43 -16 2 -36 15 -49 33 -12 16 -30 29
-40 29 -10 0 -18 5 -18 11 0 6 -14 31 -30 56 -17 24 -28 48 -25 53 2 4 -10 13
-28 20 -65 24 -98 44 -122 76 -21 28 -24 37 -15 55 9 15 8 24 -2 36 -10 13
-10 17 0 20 6 3 12 13 12 22 0 10 7 18 18 18 61 -1 69 3 65 26 -3 13 0 48 5
78 6 32 7 58 2 63 -6 6 0 14 13 21 17 8 22 19 21 48 0 38 5 44 22 28 5 -6 18
3 34 25 17 23 31 33 43 30 26 -6 31 16 13 57 -14 34 -16 35 -51 27 -47 -11
-52 -16 -37 -40 15 -25 15 -30 -2 -30 -8 0 -16 -7 -20 -15 -3 -8 -12 -12 -21
-9 -10 4 -15 0 -15 -11 0 -9 -11 -26 -24 -36 -14 -11 -28 -34 -32 -52 -9 -36
-9 -34 1 -64 5 -18 2 -23 -10 -23 -14 0 -16 -7 -10 -39 8 -49 -7 -81 -39 -81
-19 0 -22 -4 -18 -25 4 -25 4 -25 -50 -19 -43 5 -58 3 -70 -10 -25 -24 -50
-21 -46 7 2 17 11 23 38 27 25 4 30 7 18 12 -22 9 -19 49 5 69 17 13 18 17 4
30 -8 8 -18 34 -22 57 -4 26 -12 42 -21 42 -8 0 -14 9 -14 20 0 24 -9 26 -25
3 -11 -14 -13 -13 -19 12 -5 21 -2 33 13 49 21 22 29 52 12 41 -6 -3 -13 1
-18 9 -4 8 -12 14 -17 13 -5 -1 -10 8 -11 21 -1 15 3 21 12 18 7 -3 13 1 13 8
0 10 7 12 21 9 14 -4 26 0 34 11 15 20 65 12 65 -10 0 -8 4 -14 8 -14 12 0 52
44 52 57 0 16 45 32 61 22 8 -5 10 -9 5 -9 -5 0 9 -14 32 -32 23 -18 42 -38
42 -45 0 -7 5 -13 10 -13 6 0 10 7 10 15 0 9 9 15 21 15 18 0 20 4 14 28 -4
15 -8 54 -9 87 -1 48 3 63 18 76 18 15 18 16 -5 38 -21 20 -22 24 -9 34 8 7
21 24 27 40 7 15 17 27 23 27 5 0 10 7 10 16 0 9 9 32 21 51 20 32 20 37 8 91
-9 37 -19 57 -29 58 -8 1 -33 2 -55 3 -27 1 -35 4 -26 10 9 6 10 11 2 15 -10
7 -61 98 -61 110 0 2 11 7 25 10 20 5 25 13 25 39 0 17 3 42 6 54 5 18 1 23
-22 29 -16 4 -36 12 -44 19 -19 15 -60 17 -60 3 0 -5 -7 -8 -15 -5 -8 4 -17 2
-20 -4 -4 -5 -22 -7 -41 -3 -21 4 -34 2 -34 -4 0 -8 -9 -8 -30 -1 -16 6 -30
17 -30 23 0 23 -46 36 -81 24 -30 -10 -34 -9 -58 19 -14 16 -31 38 -38 49 -10
16 -14 16 -21 5 -8 -11 -13 -8 -27 13 -13 19 -15 29 -6 39 8 11 4 20 -19 40
-35 31 -31 31 -54 14z m-416 -1418 c0 -24 -20 -35 -31 -18 -16 26 -11 48 11
42 11 -3 20 -14 20 -24z m-47 -165 c-14 -22 -19 -24 -21 -12 -5 25 18 62 30
50 7 -7 4 -19 -9 -38z m140 -73 c3 -15 -1 -18 -19 -17 -27 1 -29 7 -12 24 17
17 25 15 31 -7z m-53 -40 c0 -6 -4 -13 -10 -16 -5 -3 -10 1 -10 9 0 9 5 16 10
16 6 0 10 -4 10 -9z"/>
<path d="M11456 10636 c3 -9 -2 -17 -15 -21 -12 -3 -21 -13 -21 -21 0 -12 -4
-13 -22 -3 -17 9 -23 9 -26 0 -2 -6 -9 -8 -15 -4 -6 4 -8 0 -4 -11 6 -14 4
-15 -14 -5 -12 6 -30 9 -40 6 -12 -3 -25 4 -38 21 -18 26 -18 26 -25 4 -7 -22
-46 -32 -46 -11 0 17 -60 36 -136 43 -68 6 -74 5 -103 -21 -21 -19 -31 -37
-31 -55 0 -22 -7 -31 -27 -39 -20 -7 -23 -13 -15 -21 9 -9 15 -7 26 7 12 17
14 17 22 2 8 -15 13 -15 37 -2 25 13 28 12 44 -16 10 -16 24 -29 33 -29 22 -1
50 -25 50 -43 0 -9 4 -18 8 -21 5 -3 7 -28 6 -56 -4 -55 19 -98 41 -80 8 7 18
3 30 -10 10 -11 26 -20 35 -20 10 0 20 -7 24 -15 7 -20 36 -19 36 2 0 14 2 14
20 -2 12 -10 26 -30 33 -44 8 -16 20 -25 30 -23 9 2 26 -2 37 -8 21 -11 27 -1
10 16 -16 16 8 74 31 74 13 0 19 7 20 23 1 12 3 33 4 47 4 37 -4 50 -30 50
-13 0 -27 5 -30 11 -4 5 -18 15 -32 20 -25 9 -25 10 -8 29 10 11 26 22 36 25
12 4 20 20 24 50 5 27 16 52 31 66 25 23 34 82 14 94 -5 3 -7 0 -4 -9z"/>
<path d="M9735 10580 c-3 -5 -1 -10 4 -10 6 0 11 5 11 10 0 6 -2 10 -4 10 -3
0 -8 -4 -11 -10z"/>
<path d="M8500 9767 c0 -13 15 -22 73 -46 27 -10 32 -6 22 21 -4 10 -16 13
-35 10 -21 -3 -32 1 -36 12 -7 19 -24 21 -24 3z"/>
<path d="M8250 9759 c0 -5 -16 -9 -35 -9 -22 0 -35 -5 -35 -13 0 -18 -23 -67
-32 -67 -4 0 -13 8 -20 18 -7 9 -23 18 -35 19 -20 2 -21 0 -12 -24 16 -42 28
-52 61 -51 18 1 36 -6 43 -15 7 -10 21 -17 33 -17 20 0 37 -25 26 -41 -3 -5 0
-9 5 -9 6 0 11 -8 11 -18 0 -10 5 -23 11 -29 14 -14 -3 -48 -32 -63 -11 -6
-17 -15 -14 -20 3 -5 -3 -14 -14 -20 -22 -11 -18 -42 4 -34 7 3 16 1 19 -5 4
-6 20 -8 36 -4 29 5 38 -2 44 -39 1 -7 5 -19 10 -27 6 -9 3 -18 -7 -26 -23
-17 -21 -22 11 -30 64 -17 78 -15 118 20 40 36 64 44 64 23 0 -6 2 -9 5 -6 12
12 -9 38 -40 48 -30 10 -35 16 -41 56 -7 51 -39 88 -90 104 -28 9 -43 31 -44
62 0 10 43 -3 62 -20 11 -9 26 -12 43 -8 26 7 26 8 11 31 -16 24 -15 26 19 56
25 23 34 37 30 50 -5 15 -1 19 19 19 29 0 30 4 15 49 -11 32 -23 39 -34 21 -4
-6 -10 -8 -15 -5 -5 3 -21 -2 -35 -11 -25 -16 -28 -16 -95 14 -39 17 -70 27
-70 21z"/>
<path d="M8715 9357 c17 -26 14 -47 -8 -47 -17 0 -60 -48 -53 -59 4 -6 -7 -8
-29 -4 -39 6 -43 -4 -25 -51 6 -17 6 -26 -1 -26 -21 0 13 -41 51 -60 22 -11
40 -25 40 -31 0 -5 16 -17 35 -25 20 -8 41 -27 51 -46 27 -52 68 -98 87 -98 9
0 17 -7 17 -15 0 -8 -4 -15 -9 -15 -5 0 -8 -15 -7 -32 2 -18 4 -42 5 -53 1
-27 51 -34 51 -7 0 12 5 10 18 -10 9 -16 24 -28 32 -28 9 0 21 -5 28 -12 8 -8
22 -7 54 5 51 20 80 17 133 -10 30 -16 45 -19 59 -11 10 5 33 8 52 6 25 -3 34
0 34 11 0 12 3 12 12 3 7 -7 21 -12 31 -12 13 0 17 -5 13 -15 -6 -16 12 -65
24 -65 4 0 11 -15 14 -34 6 -32 10 -35 51 -42 45 -6 50 -12 60 -65 3 -12 9
-25 15 -29 6 -4 8 -14 4 -23 -6 -16 29 -84 50 -99 6 -4 18 -5 27 -3 9 3 21 -4
29 -20 16 -30 45 -33 60 -5 7 14 7 20 0 20 -19 0 -10 16 19 33 15 9 31 13 35
10 4 -4 9 3 13 16 4 15 11 20 22 16 18 -7 21 -8 39 -6 6 0 12 8 12 16 0 16
-23 18 -55 6 -45 -18 -75 68 -38 107 10 11 6 20 -23 50 -19 20 -31 38 -25 40
14 5 14 65 0 79 -7 7 -6 15 5 25 18 19 8 63 -14 63 -9 0 -14 8 -13 20 1 11 -7
44 -18 74 -12 34 -17 65 -13 85 8 48 -13 62 -60 39 -34 -16 -38 -16 -65 0 -40
23 -49 21 -43 -9 3 -18 1 -25 -6 -20 -5 3 -24 -2 -40 -11 -29 -17 -31 -17 -53
2 -16 14 -23 16 -26 8 -3 -7 -18 -13 -34 -13 -20 0 -29 -5 -29 -16 0 -8 -4
-12 -10 -9 -5 3 -10 -1 -10 -9 0 -23 -17 -20 -46 9 -14 14 -29 25 -34 25 -6 0
-10 7 -10 15 0 10 -11 15 -35 15 -25 0 -35 -4 -35 -16 0 -13 -8 -15 -37 -12
-21 3 -46 8 -55 12 -13 6 -18 4 -18 -9 0 -14 -6 -16 -32 -11 -41 8 -45 13 -23
29 13 10 20 34 25 88 8 80 6 89 -15 89 -23 0 -55 51 -55 89 0 25 -10 47 -29
71 -27 32 -31 34 -54 21 -25 -13 -65 -9 -121 14 -18 8 -18 7 -1 -18z m85 -47
c21 -17 23 -21 10 -30 -24 -16 -36 -12 -48 15 -7 14 -12 28 -12 30 0 11 27 3
50 -15z"/>
<path d="M8550 9216 c0 -8 5 -18 10 -21 6 -3 10 1 10 9 0 8 -4 18 -10 21 -5 3
-10 -1 -10 -9z"/>
<path d="M9970 8860 c0 -5 4 -10 9 -10 6 0 13 5 16 10 3 6 -1 10 -9 10 -9 0
-16 -4 -16 -10z"/>
<path d="M9770 8821 c0 -13 -7 -29 -16 -36 -15 -10 -14 -14 13 -33 26 -18 34
-19 74 -10 24 6 53 10 64 10 18 -1 18 1 -4 19 -14 11 -34 19 -45 18 -41 -3
-52 1 -68 29 -17 27 -17 27 -18 3z"/>
<path d="M9930 8824 c-29 -15 -33 -36 -8 -40 10 -1 15 3 12 11 -3 7 4 15 15
18 12 3 21 10 21 16 0 14 -8 13 -40 -5z"/>
<path d="M8221 8743 c-19 -13 -28 -14 -42 -5 -15 10 -20 8 -29 -8 -13 -23 -38
-26 -46 -5 -5 11 -11 12 -25 5 -18 -10 -79 -7 -98 4 -5 3 -11 0 -14 -8 -4 -10
-18 -12 -51 -9 -38 5 -47 3 -53 -13 -11 -30 -35 -43 -75 -44 -27 0 -38 -4 -38
-15 0 -8 -9 -15 -20 -15 -11 0 -20 -5 -20 -11 0 -5 -4 -7 -10 -4 -5 3 -10 -2
-10 -12 -1 -17 -2 -17 -15 1 -14 19 -15 19 -34 2 -11 -10 -20 -21 -19 -25 4
-32 -4 -51 -22 -51 -19 0 -21 -5 -24 -52 -1 -10 -14 -29 -29 -42 -28 -24 -28
-25 -11 -58 9 -18 25 -43 36 -55 16 -17 21 -37 22 -86 0 -37 5 -63 10 -59 5 3
7 -2 3 -10 -7 -19 11 -38 36 -38 14 0 18 5 14 20 -6 23 11 27 19 5 4 -8 11
-15 17 -15 7 0 7 4 -1 12 -17 17 -16 128 1 128 19 0 60 46 53 59 -4 5 3 12 14
16 23 7 26 22 6 44 -7 9 -16 40 -19 69 -5 41 -3 52 8 52 8 0 15 8 15 18 0 26
45 45 71 31 16 -8 28 -6 56 11 20 12 41 19 48 16 8 -3 10 4 8 18 -4 21 -1 22
53 22 49 -1 58 -4 60 -21 2 -11 8 -21 13 -23 6 -2 11 -9 11 -17 0 -8 16 -13
46 -13 36 -1 50 3 65 21 10 12 18 28 19 35 0 6 5 11 12 10 8 -2 11 8 10 29 -2
17 2 34 8 38 5 3 7 11 4 17 -5 7 -1 9 9 5 17 -6 42 24 30 37 -12 11 -48 6 -72
-11z"/>
<path d="M8875 8720 c5 -15 3 -18 -9 -14 -10 4 -16 1 -16 -9 0 -19 -20 -33
-29 -20 -9 14 -65 10 -74 -5 -6 -9 -12 -10 -21 -2 -10 7 -24 6 -51 -6 -42 -17
-40 -26 8 -30 53 -4 82 -20 107 -58 14 -19 42 -43 62 -52 21 -9 38 -22 38 -28
1 -23 30 -48 56 -50 19 -1 33 -10 46 -32 13 -23 24 -31 38 -27 12 3 23 -3 32
-16 7 -12 23 -21 35 -21 13 0 23 -4 23 -9 0 -5 9 -13 20 -16 11 -3 20 -13 20
-21 0 -8 4 -14 10 -14 5 0 14 -9 20 -21 9 -16 8 -25 -5 -39 -10 -11 -15 -26
-12 -34 9 -24 -11 -29 -38 -12 -23 15 -25 15 -25 0 0 -21 28 -43 55 -44 11 0
36 -18 55 -39 26 -30 44 -41 70 -43 29 -2 34 0 32 15 -2 9 2 17 8 17 6 0 7 6
1 18 -30 60 -51 115 -46 122 3 5 1 11 -4 14 -5 3 -7 15 -4 26 8 30 -16 72 -59
103 -46 33 -78 36 -78 7 0 -13 -7 -20 -19 -20 -31 0 -36 21 -10 41 18 14 20
19 8 19 -20 0 -49 31 -49 53 0 9 -9 21 -20 27 -25 13 -74 96 -67 113 3 7 -3
24 -13 37 -12 15 -15 29 -10 35 14 17 0 58 -14 45 -8 -6 -24 -6 -45 0 -29 8
-31 7 -26 -10z"/>
<path d="M8353 8683 c0 -22 26 -55 38 -47 5 3 12 -1 15 -10 3 -8 12 -12 20 -9
8 3 23 -2 33 -11 11 -10 25 -14 36 -10 9 4 20 2 24 -4 11 -19 58 -18 80 2 l21
19 -52 33 c-55 36 -73 41 -83 23 -5 -7 -15 -5 -31 6 -13 8 -24 11 -24 5 0 -6
-12 -4 -30 5 -38 19 -47 19 -47 -2z"/>
<path d="M8298 8683 c-40 -6 -34 -23 7 -23 24 0 35 5 35 15 0 8 -3 14 -7 14
-5 -1 -20 -4 -35 -6z"/>
<path d="M8262 8623 c-18 -7 25 -53 50 -53 22 0 23 23 2 44 -16 16 -29 19 -52
9z"/>
<path d="M9950 8265 c1 -6 7 -21 16 -35 l15 -25 -7 25 c-7 26 -24 52 -24 35z"/>
<path d="M9773 8179 c-11 -12 -32 -22 -45 -22 -16 -1 -24 -7 -21 -14 3 -8 -3
-13 -15 -13 -23 0 -55 -38 -45 -53 3 -5 10 -3 15 4 8 11 9 11 5 -1 -2 -8 -13
-16 -25 -18 -18 -3 -21 3 -27 45 -10 71 -16 83 -27 51 -9 -26 -10 -26 -86 -21
l-77 4 27 -24 c36 -34 29 -69 -12 -60 -16 3 -42 -1 -58 -8 l-30 -13 21 -43
c12 -24 27 -43 34 -43 7 0 31 -18 53 -40 31 -31 40 -48 40 -73 0 -19 -3 -37
-7 -41 -5 -4 -8 -19 -8 -33 l-1 -25 23 27 c26 29 22 30 88 -19 20 -15 45 1 57
35 9 26 14 30 35 24 19 -4 29 -1 40 15 8 11 23 20 35 20 15 0 18 4 13 18 -17
40 -17 52 -2 52 8 0 17 10 21 22 5 20 7 21 18 8 7 -9 12 -13 11 -11 -2 2 7 9
20 15 21 11 30 39 18 61 -5 10 -7 18 -14 51 -2 8 -9 19 -16 23 -10 6 -9 10 3
14 9 4 16 16 16 28 0 17 3 19 14 10 11 -9 16 -9 23 2 4 7 22 13 38 13 26 -1
30 3 30 24 0 24 -2 25 -55 22 -30 -2 -59 -7 -64 -12 -6 -6 -16 -4 -26 5 -14
13 -18 12 -37 -6z"/>
<path d="M9805 7900 c3 -5 8 -10 11 -10 2 0 4 5 4 10 0 6 -5 10 -11 10 -5 0
-7 -4 -4 -10z"/>
<path d="M9281 7880 c-19 -5 -40 -6 -47 -3 -12 5 -124 -98 -124 -115 0 -4 -37
-7 -82 -7 -74 0 -85 -2 -101 -22 -10 -13 -23 -23 -29 -23 -11 0 -88 -78 -88
-90 0 -5 -26 -14 -57 -21 -32 -6 -73 -20 -90 -30 -29 -16 -33 -17 -41 -2 -8
14 -13 14 -43 -3 -19 -11 -35 -22 -37 -26 -2 -5 -17 -8 -34 -8 -24 0 -28 -3
-19 -13 6 -8 7 -17 3 -21 -6 -7 30 -1 65 9 7 2 20 -9 30 -26 10 -16 23 -27 29
-25 6 2 20 -1 30 -9 17 -12 22 -8 49 36 17 27 38 49 47 49 9 0 18 5 20 12 2 6
10 8 16 4 16 -10 15 -63 0 -69 -8 -4 -5 -8 9 -12 22 -7 33 -31 33 -79 0 -18
10 -38 25 -52 26 -24 35 -77 15 -89 -27 -17 14 -85 51 -85 8 0 20 -5 27 -12 8
-8 15 -8 27 2 12 10 21 10 39 2 17 -8 36 -8 61 -1 20 6 43 8 51 5 8 -3 14 1
14 10 0 11 9 14 33 12 28 -3 32 -7 35 -35 2 -18 -3 -42 -12 -54 -11 -16 -12
-28 -4 -50 6 -17 8 -43 5 -58 -4 -21 -1 -34 13 -46 23 -21 25 -31 8 -33 -22
-2 -63 -9 -78 -15 -8 -2 -39 -10 -69 -16 -45 -10 -57 -9 -71 4 -24 22 -49 18
-59 -8 -13 -33 -17 -90 -7 -105 4 -6 4 -12 0 -12 -3 0 -1 -7 6 -16 12 -13 3
-25 -57 -87 -91 -93 -99 -108 -82 -160 l13 -39 -43 -37 -43 -37 31 -52 c35
-59 38 -72 16 -72 -8 0 -15 -4 -15 -10 0 -5 4 -10 8 -10 11 0 9 -73 -2 -82 -5
-3 5 -20 22 -38 18 -17 32 -42 32 -55 0 -14 12 -32 33 -47 34 -27 85 -108 68
-108 -7 0 -7 -7 1 -20 7 -11 17 -20 22 -20 5 0 7 3 3 6 -8 9 14 30 41 38 16 5
22 15 22 37 0 16 6 32 14 35 11 4 12 13 5 37 -6 21 -5 33 3 38 9 6 8 25 -2 78
-7 39 -11 72 -9 74 2 1 18 10 34 19 17 9 32 27 33 40 5 31 20 48 44 48 16 0
17 3 8 20 -10 18 -8 20 26 20 29 0 34 -3 26 -13 -8 -9 -7 -21 3 -40 17 -32 5
-77 -20 -77 -20 0 -19 -26 1 -34 14 -5 15 -4 4 9 -11 13 -8 15 18 15 17 0 42
-4 56 -10 20 -7 27 -6 34 7 9 14 11 14 21 -5 15 -29 40 -28 78 4 28 22 30 29
21 49 -8 19 -7 28 8 48 11 13 24 22 31 20 14 -5 63 76 63 105 0 12 4 22 9 22
5 0 12 11 15 25 4 15 11 23 17 19 19 -12 86 87 72 108 -3 7 -1 8 6 4 17 -11
41 13 41 41 0 13 -8 38 -17 56 -9 18 -17 34 -18 37 -3 20 -28 40 -77 59 -55
22 -78 51 -40 51 15 1 14 3 -5 19 l-22 19 34 23 c26 18 31 27 23 37 -9 10 -6
14 10 19 24 6 28 24 12 53 -10 18 -8 19 22 14 18 -3 43 -10 55 -16 17 -8 30
-7 56 5 32 15 36 15 71 -2 l37 -19 25 25 c13 13 21 29 18 35 -5 7 -1 9 9 5 10
-3 17 -2 17 3 0 5 -8 11 -19 15 -10 3 -26 14 -36 25 -18 20 -62 29 -50 10 3
-6 -5 -10 -19 -10 -14 0 -30 8 -35 19 -7 12 -19 17 -37 15 -39 -4 -40 -11 -9
-44 16 -16 26 -32 24 -35 -11 -11 -103 -8 -107 3 -2 7 -17 12 -33 12 -16 0
-29 5 -29 11 0 7 -10 9 -26 5 -21 -6 -25 -4 -22 11 2 11 12 18 26 18 13 0 30
8 37 19 8 10 19 15 25 11 6 -3 23 7 39 24 16 17 34 31 39 31 6 0 20 14 32 30
33 46 19 108 -22 101 -5 0 -8 3 -8 9 0 6 5 10 10 10 18 0 -9 40 -35 52 -26 12
-61 79 -52 102 3 8 -3 22 -14 32 -11 10 -18 23 -15 30 2 6 -2 21 -10 33 -9 12
-16 40 -16 64 0 26 -3 35 -7 24 -6 -17 -8 -17 -20 -3 -11 13 -11 16 0 16 20 0
-26 38 -55 46 -29 7 -32 14 -14 32 8 8 5 14 -16 22 -21 8 -27 15 -23 30 4 15
-2 24 -23 35 -16 8 -30 15 -32 14 -2 -1 -18 -5 -37 -9z m-521 -310 c0 -5 -2
-10 -4 -10 -3 0 -8 5 -11 10 -3 6 -1 10 4 10 6 0 11 -4 11 -10z m460 -281
c-10 -17 -30 -27 -30 -13 0 15 22 44 31 39 5 -4 5 -13 -1 -26z m170 -95 c0
-17 -22 -14 -28 4 -2 7 3 12 12 12 9 0 16 -7 16 -16z m24 -75 c-3 -6 4 -7 20
-3 16 4 26 2 26 -5 0 -6 -5 -11 -10 -11 -6 0 -10 -8 -8 -17 2 -11 -2 -17 -10
-15 -8 1 -11 -1 -8 -6 2 -4 0 -14 -5 -22 -8 -13 -10 -13 -18 0 -9 12 -15 12
-46 1 -20 -7 -39 -10 -42 -7 -3 3 -12 -2 -19 -12 -12 -15 -13 -14 -11 13 2 34
47 69 76 60 12 -3 22 3 31 20 7 13 17 22 22 19 4 -3 6 -10 2 -15z m-194 -169
c0 -5 -2 -10 -4 -10 -3 0 -8 5 -11 10 -3 6 -1 10 4 10 6 0 11 -4 11 -10z m60
-511 c0 -14 -26 -11 -39 5 -9 11 -6 12 14 8 14 -2 25 -8 25 -13z m84 -8 c3 -5
15 -7 25 -4 10 3 22 -1 27 -8 5 -8 2 -11 -8 -6 -9 3 -27 -1 -41 -8 -21 -11
-28 -11 -36 -1 -7 9 -7 16 1 24 14 14 25 15 32 3z"/>
<path d="M9853 7883 c-7 -2 -13 -15 -13 -28 0 -22 3 -23 46 -20 39 3 50 0 65
-18 10 -12 18 -28 19 -35 0 -8 5 -12 11 -10 6 2 10 7 10 11 -1 4 -1 14 -1 22
0 8 -6 15 -13 15 -19 0 -59 45 -50 55 5 4 3 5 -4 1 -6 -3 -14 -2 -18 4 -6 10
-31 12 -52 3z"/>
<path d="M9750 7006 c0 -3 9 -10 20 -16 11 -6 20 -8 20 -6 0 3 -9 10 -20 16
-11 6 -20 8 -20 6z"/>
<path d="M8892 6910 c13 -21 38 -27 38 -10 0 9 -31 30 -44 30 -4 0 -1 -9 6
-20z"/>
<path d="M9192 6128 c-18 -18 -15 -41 4 -34 9 3 18 6 21 6 3 0 0 7 -7 15 -11
13 -10 14 5 9 13 -5 16 -4 11 4 -9 15 -19 15 -34 0z"/>
<path d="M9115 6100 c3 -5 8 -10 11 -10 2 0 4 5 4 10 0 6 -5 10 -11 10 -5 0
-7 -4 -4 -10z"/>
</g>
</svg>
