<svg version="1" xmlns="http://www.w3.org/2000/svg" width="875.444" height="638.042" viewBox="0 0 656.583 478.531"><g fill="#222"><path d="M173.362 1.6c-.9 2.4-.7 2.7.9 1 1.7-1.7 1.9-2.6.6-2.6-.5 0-1.2.7-1.5 1.6zM164.162 5.6c.3.9.6 2.1.6 2.7 0 .7.5.4 1.1-.6 1.1-1.8.5-3.7-1.3-3.7-.5 0-.7.7-.4 1.6zM317.962 8.5c.1 1.4.8 2.5 1.5 2.5 1.4 0 1.6-1 .7-3.4-1-2.5-2.4-1.9-2.2.9zM161.162 13.9c-1.4 2.2-3.2 4.2-4 4.5-1.4.5-9.4-.7-12.6-1.9-1.5-.6-1.8-.2-1.8 2.4 0 2.1-.5 3.1-1.5 3.1-1.3 0-1.3.3-.3 2 1 1.6 1 2.4 0 4-.6 1.1-1.2 2.6-1.2 3.4 0 2.5-3.8 2.9-7.5.7-1.9-1.1-3.5-1.5-3.5-1 0 .7-1.3.9-3.6.5-2.5-.5-4.3-.2-6 .9-1.7 1.1-2.9 1.3-4.2.6-1.2-.7-2.2-.6-3.2.3-.8.8-3.4 1.6-5.8 1.9-3.2.4-4.4.1-5.2-1.1-.7-1.2-.9-1.3-1-.3 0 1.9-3-.6-3-2.5 0-1.8-5.8-4.7-8.1-4.1-1.2.3-3.1-.5-4.9-1.9-1.5-1.4-4.3-2.9-6-3.5-2.7-1-3.4-.8-5.3.9-1.8 1.7-3 1.9-6.8 1.3-2.5-.4-6.1-1.8-7.9-3.1-2.3-1.6-3.2-1.9-2.8-.9.3.8-.1 2.5-1.1 3.6-2 2.7-10.9 3.5-13.7 1.2-1.1-.9-1.5-.9-1-.2.4.7.2 1.3-.3 1.3-2.1 0-1.1 1.9 1.2 2.2 2.4.3 3.9 4.8 1.6 4.8-.7 0-.9.3-.6.6.3.4.1 1.6-.5 2.8-.7 1.1-1.3 2.3-1.3 2.6-.7 4.2-2.8 6.2-3.8 3.7-.3-.6-.6 0-.6 1.5-.1 1.6.7 3.2 2 4.1 1.3.9 1.6 1.7 1 2.2-.6.3-1.1 1.5-1.1 2.6 0 1.4-.7 1.9-3 1.9-1.6 0-3 .4-3 1 0 1.2 3.3 3 5.6 3 1.3 0 1.4-.3.5-1.4-.9-1-.8-1.5.3-1.9.9-.4 1.8-.2 2.1.2.3.5 1.8 1.4 3.4 1.9l2.9 1-1.1-3.6c-.6-2.1-1.9-4.7-3-5.9-2.1-2.4-2.6-8.5-.8-9.1.6-.2 1.3-1.9 1.7-3.8.7-4 1-4.1 3.5-1.2 1.3 1.6 2.1 1.9 2.6 1.2.6-.8 1.8-.4 4 1.5 2.5 2.1 3.2 3.5 3.4 6.6.3 4.6-.8 8.5-2.2 8.5-.6 0-.8.4-.5.8.3.4-1.1 2.5-3 4.6-1.9 2-3.1 4.2-2.8 4.8.4.7.2.8-.4.4-.7-.4-1.2-.3-1.2.1 0 .5-1.4 1.4-3 2-2.1.8-2.8 1.6-2.4 2.7.3.9.1 2.2-.4 2.9-.7.8-.7 1.8-.2 2.7 1.3 2 1.3 4.3 0 3.5-.5-.3-1-.1-1 .5s-.4.9-.9.6c-.4-.3-2.3-.1-4.1.4-2 .6-3.9.6-5 0-1.7-.9-1.7-.7-.7 2.1 1 2.4.9 3.2-.2 3.9-1.1.6-1.2 1.2-.4 2.2.6.7 1.3 2.9 1.5 4.8.3 3.2.1 3.5-2.2 3.5-3.9 0-4 3.9-.1 5.5 2.5 1 3.1 1.8 3.1 4.4 0 5.1-3.3 7.5-4.4 3.2-.5-2-1.2-2.4-3.6-2.4-1.6.1-2.7.5-2.3 1.1.3.5-.6.7-2.3.3-3.2-.7-6.4.7-4.5 1.8.6.4 1.1.1 1.1-.6s1.1 0 2.5 1.7c1.3 1.6 2.4 2.6 2.5 2.2 0-.5 2.1 1 4.6 3.2 2.6 2.3 5.5 4.1 6.5 4.1.9 0 1.9.5 2.1 1.1.3.8 1 .5 2.1-.6 2-1.9 1.9-2 3.7 1.5.9 1.7 1 2.5.2 2.8-1.5.5 1.1 5.7 3.3 6.6.9.3 1.4 1 1 1.5-.5.8 2.3 3.1 3.8 3.1.2 0 .7-2.3.9-5 .3-2.8 1.2-5.6 2-6.3.8-.7 1.9-2.3 2.5-3.7.9-2.1.7-3-.8-4.9-1.1-1.3-1.9-3.3-2-4.5 0-1.1-.3-1.5-.6-.9-.3 1-.8.9-2-.2-.8-.8-1.9-1.5-2.4-1.5-1.3 0-1.1 1.8.3 2.2.8.3.2 1.5-1.7 3.5-3.2 3.1-7.3 3.9-8.8 1.5-.4-.6-1.5-1.2-2.4-1.2-.9 0-1.3-.3-1-.6.3-.4.2-1.4-.3-2.4-.8-1.4-.2-1.9 3.1-2.9 2.2-.7 3.7-1.6 3.4-2-.2-.5 1.4-1.2 3.7-1.5 3.2-.5 4.4-.3 5 .8.8 1.4 2.8 2.5 9.9 5.4 1.4.5 3.6.8 5 .5 1.7-.3 3.6.5 6.3 2.6 4.3 3.4 5.2 3.7 5.9 1.8.3-.9 1-.7 2.5.7 1.2 1 2.8 1.6 3.7 1.2 1-.4 1.9.3 2.7 1.9.6 1.4 2.2 3.2 3.5 4.1 2 1.3 2.7 1.3 4 .2 1.3-1 1.7-1 2 0 .3.7 1.3 1.7 2.3 2.2 1.6.9 1.8.6 1.5-2.8-.2-2-.8-5.2-1.3-7-.9-2.5-.8-3.2.3-3.2.8 0 1.9-.8 2.4-1.8.9-1.5 1.2-1.5 2-.2.6.8 1.3 1.1 1.7.8.4-.4 1.5-.3 2.5.3 1.5.7 1.7.6 1.3-.5-.4-1.1 0-1.3 1.5-.9 3.9 1 7.3-2.8 7.3-8.3 0-2.2 0-2.2 3.6.2 1.9 1.4 3.8 2.1 4.1 1.6.3-.4 1.5-.9 2.6-1 1.1-.1 3.4-.4 5.1-.8 3.6-.7 5.1 1.4 3.4 4.7-1.7 3-.2 6.9 2.9 7.5 1.8.4 2.7 1.2 2.7 2.5 0 1.4-.5 1.8-1.6 1.3-4.6-1.9-4.9-1.8-4 2.2.5 2 1.8 4.9 2.9 6.4 1.4 1.9 1.7 3 .9 3.8-.8.8-.5 2.1.9 4.5 1.8 2.9 1.9 3.7.7 5.8-.7 1.3-1.3 2-1.4 1.4 0-.5-.9.8-1.9 2.9-1.5 2.8-1.7 4.1-.9 5 .9 1 1.6.8 3-.6.9-.9 2.3-1.6 3-1.3 1.4.4 6.8-9.8 6.8-12.8 0-1.6.4-1.6 4 .5 3 1.7 4.2 2 4.8 1.1.6-.9 1.7-.6 4.4 1.2 2.1 1.4 4.2 2.5 4.9 2.5.6 0 1.7.7 2.3 1.5.6.8 3 1.7 5.3 1.9 2.4.2 4.9.8 5.6 1.4.9.8 2.5.7 5.7-.3 9.3-2.9 10.5-3 13.7-2 1.8.5 3.3 1.3 3.3 1.7 0 .5 1.1.8 2.5.8 1.8 0 2.5-.5 2.5-1.9 0-1 .7-2.1 1.5-2.5 1.9-.7 2-3.6.1-3.6-.7 0-1.9-.7-2.6-1.5-1-1.3-.9-1.5.9-1.5 1.1 0 2.1-.5 2.1-1 0-.6-.7-1-1.5-1s-1.5-.4-1.5-1c0-.5-.6-.7-1.4-.4-.9.3-1.6-.7-2.3-3.3-1.2-5-.6-7.6 1.5-6.8 1.2.4 1.4.3.6-.4-.5-.6-3.8-1.2-7.2-1.4-6.5-.2-8-1.4-6.6-5 .4-1.2-.2-2-2-2.6-1.4-.6-3.4-1.9-4.6-3.1-1.1-1.1-2.2-2-2.5-2h-1.4c-1.9 0-2-4.4-.1-5.7 1.1-.8 2-2 2-2.8 0-2-2.1-3-3-1.5-1 1.6-3-1.8-3-4.9 0-1.1-.8-2.5-1.7-3-1.6-.9-1.4-1 .8-1.1 3.3 0 4.9-4.3 2.5-6.9-1-1.1-1.4-3.4-1.3-7.3.2-4.6.8-6.3 2.8-8.5 2.3-2.5 2.5-3.5 2.4-10.1-.2-5.9-.6-7.7-2.4-9.6-1.1-1.2-2.1-3-2.1-3.9 0-1-.7-2-1.5-2.4-1.8-.6-4.8-7.1-3.9-8.4.3-.5-.7-2-2.1-3.5-2.3-2.3-2.5-2.9-1.6-6.2.6-2 .7-3.9.3-4.2-1.1-.6-.9-5.1.1-6.8.5-.7.4-1.2-.2-1.2-.6 0-2.2 1.8-3.7 3.9zm-106.8 44.6c-.8.8-1.8 1.5-2.2 1.5-.3 0-.1-.7.6-1.5s1.7-1.5 2.2-1.5c.5 0 .3.7-.6 1.5zm-.6 10.5c0 1.1-.1 2.1-.2 2.2-.2.2.5 1.4 1.5 2.8.9 1.3 1.7 3.7 1.7 5.1 0 2.2-.4 2.6-2 2.2-3.7-1-6.1-8.2-4.4-12.7.9-2.3 3.4-2 3.4.4zm82 17c0 1.6-.4 3-1 3-.5 0-1-1.4-1-3 0-1.7.5-3 1-3 .6 0 1 1.3 1 3zm-94.1 3.9c.9.6 1 1.1.2 1.5-1.3.8-3.1-.1-3.1-1.5 0-1.1 1.1-1.1 2.9 0zm94.1 3.2c0 .5-.1 1-.2 1.1-.1.2.4 1.4 1.1 2.7 1.2 2.1 1.1 2.3-.3 1.8-.8-.3-1.8-.2-2.1.3-1.2 1.9-2.1.9-2.3-2.5-.2-2 0-4 .3-4.5.7-1.1 3.5-.2 3.5 1.1zm-97.7 1.3c.6-.6 4.7 1.7 4.7 2.7 0 1.1-4.8 2.8-6.8 2.2-1.1-.2-3 0-4.2.7-1.9 1-2.1.9-1.8-.7.2-1 1-1.7 1.6-1.6.7.2 1.2-.5 1.2-1.5s.6-2.4 1.2-3c1-1 1.5-1 2.4.2.6.9 1.3 1.3 1.7 1zM314.362 12.8c-.3.5.1 1.5.9 2.2 1.6 1.4 2 .3.6-1.9-.5-.8-1.1-.9-1.5-.3zM308.762 15.2c0 .4.4.8.9.8.6 0 1.2-.4 1.5-.8.3-.5-.1-.9-.9-.9s-1.5.4-1.5.9zM318.262 17c-1 1.7 1.6 5.8 3.5 5.3 1-.3 2.7 0 3.9.7 1.4.7 2.7.8 3.9.1 1.6-.9 1.6-1-.3-1.7-1.1-.4-2.2-1.1-2.5-1.5-1-1.3-8-3.8-8.5-2.9zM30.862 19.9c-.9.6-1 1.1-.2 1.5 1.3.8 3.1-.1 3.1-1.5 0-1.1-1.1-1.1-2.9 0z"/><path d="M42.862 21.6c0 1.1.3 1.4.6.6.3-.7.2-1.6-.1-1.9-.3-.4-.6.2-.5 1.3zM332.262 24c.4.6.2 1.7-.4 2.4-2.4 2.8 4.4 15.6 7.3 13.9.8-.5.8-.3 0 .8-2.2 2.8-2.3 5.9-.3 7.2 1 .6 1.9 1.7 1.9 2.3 0 1.1 5.1 2.7 5.9 1.8.2-.2.5-1.4.6-2.7.2-1.9.7-2.2 4.3-2.2 3.8 0 4.2-.3 4.2-2.4 0-1.9-.3-2.1-1.4-1.2-1.1 1-1.6.9-2.4-.5-.8-1.5-.9-1.5-1.5 0-.5 1.3-1.1 1.5-2.6.6-1.3-.6-1.8-1.6-1.4-2.6.7-2-1.8-3.8-2.9-2.1-.6.8-1 .5-1.4-1-.3-1.2-1.7-2.9-3-3.8-1.4-.9-2.2-2-1.8-2.6.6-1-4-8.9-5.2-8.9-.3 0-.2.5.1 1zM332.062 43.7c-.7.2-.9 1.1-.6 1.9 1 2.6-.6 6.4-2.7 6.4-1.5 0-1.9.6-1.7 2.2.2 1.8-.4 2.4-2.6 2.6-1.8.2-2.5.7-2 1.5.4.7.8 1.6.8 2.1 0 1.7 6 1.6 7.3-.2.7-.9 2-1.7 3-1.7 2.4 0 2.6-9.1.3-10.5-1.4-.8-1.4-.9.2-1 .9 0 1.7-.4 1.7-.9 0-1.3-2.4-2.9-3.7-2.4zM352.562 54.7c-1 .3-1.8.9-1.8 1.5 0 .5.6.8 1.4.5.8-.3 1.6-.1 1.9.6.2.6.6.4 1-.6.7-1.9-.1-2.5-2.5-2zM361.962 56.1c.2.7 1 1.5 1.7 1.7.8.3 1.2-.1.9-.9-.2-.7-1-1.5-1.7-1.7-.8-.3-1.2.1-.9.9zM369.462 58.1c.7.7 1.5 1 1.8.7.3-.3-.2-.9-1.2-1.2-1.4-.6-1.5-.5-.6.5zM355.362 65.5c-.3.8-1.3 1.5-2.2 1.5-1 0-2.6.8-3.7 1.7-1.8 1.7-1.9 1.7-3.2-.1-.8-1-2-1.6-2.8-1.3-.8.3-2 .1-2.8-.4-.8-.5-2.2-.3-3.5.6-1.2.8-3.1 1.1-4.3.8-1.4-.4-2.1-.1-2.1.9 0 .8-1.6 2-3.5 2.7-3.1 1.1-3.9 1-6.1-.4-2.4-1.6-2.6-1.5-4 .2-.7 1-1.4 2.3-1.4 3 0 1.7-4.9 5.3-7.2 5.3-1.6 0-1.7.3-.8 2.1.9 1.5.9 2.8 0 4.8-.8 1.9-.8 3.5-.1 5.4.6 1.5.8 2.7.5 2.7-.4 0-.1.7.6 1.5s2.1 1.5 3.1 1.5c1.1 0 1.9-.7 1.9-1.5 0-.9.9-1.5 2.2-1.5 1.2 0 1.8.3 1.5.7-.4.3-.2 1.2.4 2 .6.7.8 1.3.4 1.3s-.1.8.6 1.7c1.2 1.6 1.2 1.7-.2.5-1.3-1-2.2-1-4.8.1-2.8 1.2-3 1.5-1.6 2.7 2.2 1.9 6.5 10.8 6.5 13.6 0 2.6 1.8 4.6 8.4 9.9 10.5 8.4 10 7.7 10.1 14.5.1 5.7.3 6.3 2.8 7.6 1.5.8 2.7 2.3 2.7 3.4 0 1 .5 2.2 1 2.5.6.4.8 1.1.5 1.6-1 1.6-4.1 1-6-1.1-2.1-2.3-3.5-2.6-3.5-.7 0 2.6-7.3 8-11.2 8.3-3.8.4-5.2-1.1-2.3-2.2 2-.8 1.9-2.4-.4-5.3-1-1.4-1.7-3-1.4-3.7.2-.6-1.1-2.4-2.9-3.9-1.8-1.5-3.3-3.3-3.3-3.9 0-.6-1-1.2-2.2-1.4-1.3-.2-2.3-.8-2.3-1.3 0-.6-.7-.6-1.9.1-2.8 1.5-6.7 1.2-8.1-.5-.7-.8-.9-1.5-.4-1.5 1.6-.1-3.8-4-5.4-4-.8 0-3.1-1.7-5.1-3.7-3.5-3.7-3.6-3.7-3.9-1.3-.2 1.3-1 2.9-1.7 3.5-.8.5-1.5 2.1-1.7 3.5-.2 1.7-1.3 3-3.5 3.9-2.2 1-3.3 2.1-3.3 3.6 0 3.2-2 4.5-6.9 4.5-2.4 0-4.2.3-3.8.6 1.1 1.2-5.3 5.6-7.3 5.1-1.1-.3-1.8-.1-1.5.4.9 1.4-4.4 2.3-5.9 1-1.2-1-1.9-.1-4.1 4.4-1.4 3.1-3.5 6.5-4.6 7.6-1 1-1.9 2.3-1.9 2.9 0 .5-1.1 1-2.5 1s-2.5.4-2.5.9-3.5 1.2-7.7 1.6c-8 .7-13.8 3.4-14.9 6.8-.4 1.3-1.1 1.6-2.6 1.1-1.7-.5-2-.3-1.5 1 .5 1.2 0 1.6-2.3 1.6-1.7 0-3-.5-3-1.1 0-.5-.4-.7-1-.4-.5.3-2.1-.2-3.5-1.1-1.5-1-2.5-1.2-2.5-.5s-2.1 1.1-5.5 1.1c-4.4 0-5.6.4-6.5 2-.6 1.1-2.1 2-3.5 2-1.3 0-2.7.4-3 1-.3.5-1.4 1-2.5 1-1 0-2 .6-2.3 1.4-.7 1.8-10 1.1-14.3-1.1-2.5-1.3-3-2-2.6-4.2.3-1.4 1-2.9 1.6-3.3.8-.6.7-.8-.1-.8-.6 0-1.5.5-1.8 1-.4.7-1.6.1-3.2-1.4-2.1-2.1-2.9-2.3-5.1-1.5-1.5.5-3.2 1.7-3.9 2.6-1.1 1.4-1.7 1.4-4.5.3-1.8-.7-4-1.9-4.8-2.6-1-.9-2-1-3-.4-.8.5-1.1 1-.6 1 .6 0 .2.6-.9 1.4-1.2.8-1.6 2-1.3 3.4.7 2.6-3.4 5.1-7.5 4.6-1.5-.1-2.8.3-3.1 1.2-.3.8-1.5 1.4-2.6 1.4s-2.3.7-2.6 1.5c-.5 1.1-1.6 1.4-4.3 1.1-2-.3-2.7-.3-1.6 0 2.9.9 4.7 2.5 4.1 3.9-.2.7.2 2.2 1.1 3.4 1.2 1.7 1.2 2.5.3 3.6-1 1.2-.9 1.6.4 2.1.9.3 1.4.9 1.1 1.4-.2.4.2 1.6 1 2.6.9 1.2 1.4 1.4 1.5.6 0-.7.5-1 1.1-.6.8.5.6 1-.5 1.6-2.4 1.3-4.8 6.6-4.1 8.8.4 1.4.2 2-.8 2-.9 0-1.3.8-1.1 2.2 1.3 9.6 1.2 10.8-.7 10.8-1.6 0-1.7.3-.7 1.9.9 1.5.9 2.3-.1 3.5-1.5 1.8-.6 3.6 1.8 3.6 3.1 0 4.2 2.3 3 5.8-.6 1.7-1.6 2.9-2.3 2.6-.8-.3-1 .7-.8 3.6.2 2.2-.1 4.7-.7 5.4-.8.9-.8 1.6-.2 2 .7.5.6 1.5-.1 3.2-.9 1.9-1.7 2.4-3.4 2-1.6-.4-2.6-.1-3.3 1.3-1.4 2.5-4.2 3.5-5.3 1.9-.6-1-.8-.9-.8.4 0 3.5-3 5.1-8.2 4.4-4.8-.7-6 .1-3.4 2.3 2 1.7 4 10.1 2.7 11.4-1.6 1.6 1.8 3.6 6 3.7 3.1 0 4 .6 6.1 3.7 1.4 2.1 2.8 5.1 3.2 6.6.8 3.2 6.7 9.1 10.6 10.6 1.4.5 4.2 1.2 6.2 1.6 2.4.4 5.1 1.9 7.5 4.3 6.2 6.1 12.1 13.6 12.8 16.5.5 1.9 1.8 3.1 4.8 4.2 6.2 2.4 9.7 5.9 10.1 9.9.1 1.4 5.8 4.4 8.2 4.5 1.2.1 2.7.8 3.4 1.6 1 1.2 1.6 1.3 2.6.4 1.1-.9 1.8-.8 3 .2s2.2 1 5 0c2-.7 3.8-1.1 4-.8.7.7-.7 3.7-1.8 3.7-.5 0-.6.4-.3 1 .3.5-.1 1-.9 1-2 0-2.1 1.6-.1 2.4.8.3 1.5 1.2 1.5 2.1 0 .8.4 2.3.9 3.3 2.3 4.4 3.3 9.9 2.2 12-1.5 2.9-1.4 3.2 1.4 3.2 1.4 0 2.5.4 2.5 1s1.1.5 2.6-.2c2.3-1.1 2.9-1 4.6 1.2 1.2 1.5 1.7 3.2 1.4 4.6-.5 1.8-.1 2.3 2.4 2.8 2.3.4 3 1.1 3 2.9 0 2.4 2.5 6.7 3.9 6.7.5 0 .8-.6.7-1.3 0-.6.4-1.3.9-1.4.6-.1 1.3-2.2 1.6-4.5.5-3.9.3-4.7-2.9-8.3-1.9-2.2-3.6-5.4-3.8-7-.2-1.6-1-3.4-1.8-4-1-.8-1.1-1.6-.4-2.9.8-1.4.4-2.4-1.6-4.5-3.1-3.2-4.4-8.5-2.6-10.6.8-1 .9-1.5.2-1.5-2.3 0-4-5.1-2.9-9.1.9-3.9 2.2-5 3-2.7.3 1 .7 1 2-.1.9-.7 1.5-1.7 1.2-2.1-.2-.4.7-.5 2-.2 2.1.4 2.5 0 2.5-1.9 0-3.3 1.5-5.3 3.1-4.3.7.4 4.6.8 8.6.8 6.3.1 7.3-.1 7.3-1.7 0-2.2 3.2-2.3 6.5-.1l2.4 1.6-1-3.4c-.5-1.8-.7-4.6-.3-6.1.5-2.6.9-2.8 3.2-2.1 4.3 1.3 9.3.7 10.7-1.2 1.1-1.6 1.4-1.6 3.9.9 1.5 1.5 3.4 2.7 4.2 2.7.9 0 2.9 1.3 4.5 2.9 1.6 1.6 3.2 2.5 3.5 1.9.3-.5 1.1-.7 1.8-.5 1.6.6 1.4-4.6-.3-6.7-1.3-1.5-1.2-1.6 1.5-.6 2.3.9 3.1.8 4.1-.6.7-.9 2-1.4 3.1-1.2 1.1.3 2.6.1 3.5-.3.9-.6 2.7-.5 4.3.1 2.3.9 3.1.7 5-1.1l2.2-2.1 2.1 2.1c1.3 1.3 1.9 2.7 1.4 3.4-.4.8-.1.7 1-.2 1.6-1.2 1.5-1.5-.4-4.2-2.3-3.3-1.8-6.4 1.1-7.2 1.3-.3 2-1.4 2-2.9 0-1.3.5-2.9 1.2-3.6.9-.9.7-1.3-.8-1.8-5.8-1.8-7.4-2.8-7.4-4.3 0-.9-.3-2.5-.6-3.7-.6-2.4 1.6-4.8 7.2-8 2.2-1.3 3-4.9 1.5-6.8-1.3-1.6.5-2.6 4.4-2.6 1.4 0 4-1.4 5.8-3 1.9-1.7 4.2-3 5-3 2.6 0 4.7-1.2 4.7-2.6 0-.8.9-2.2 2-3.1 1.3-1.2 2-3 2-5.5v-3.7l4.1 1.4c5.3 1.9 5.6 1.9 6.4-.5.4-1.3 1.8-2.3 3.6-2.7 1.8-.3 3.6-1.8 5-3.9 1.2-2 2.9-3.4 4-3.4s3.3-.7 4.8-1.4c1.5-.8 3.8-1.2 4.9-.9 1.6.4 2.2.1 2.2-1.2 0-1.5.7-1.7 4.9-1.2 3.8.4 5.1.2 5.5-.9.3-.8 1.4-1.4 2.4-1.4 1.1 0 2.5-.7 3.3-1.6.7-.9 2.1-1.3 3.3-1 1.9.5 2.1 0 2.4-4.2.5-8.7 1.1-10.4 3.7-9.8 2.4.6 4.3-1.8 2.4-2.9-1.3-.9 3.2-6.4 5.3-6.4.9-.1 2-.6 2.3-1.1.3-.6 1.3-1 2.1-1 .9 0 2.2-.6 3-1.4 1.6-1.6 5.5-1 4.8.7-.8 2.4 1.3 3.8 5.2 3.5 3.3-.3 4.2-.9 6.1-4.3 1.2-2.1 1.9-4.3 1.6-4.8-.3-.6-.6-2.3-.5-3.9 0-1.7-.8-3.8-1.9-4.9-1.8-1.8-1.9-2-.2-4.6 1.1-1.7 1.4-2.8.7-3-.6-.2-2-1-3-1.8-1.8-1.3-1.8-1.4-.1-1.5.9 0 2.5.9 3.4 2 1 1.1 2.7 2 3.8 2 1.2 0 2.7.6 3.4 1.2.7.7 1.2.8 1.1.3-.5-2.5.2-3.5 2.3-3.5 2.7 0 4.1 1 5 3.3.4 1 1.5 1.7 2.4 1.5 2.2-.4 6.9-5.8 6.5-7.5-.5-2.4 1.6-1.3 2.2 1.1.8 3.2 1.9 3.5 9.6 2.5 3.6-.4 6.7-.5 6.9-.3.3.2 1.4-1.6 2.6-4.1 1.2-2.4 2.4-4.2 2.7-3.9.3.2 2.3.2 4.6-.2 3.4-.5 4.3-1.2 5.8-4.5 2.4-4.8 4.8-5.7 14.8-5.3 8.6.3 9.7-.1 12.1-4.9 1.9-3.7 1.9-4.7.1-4.7-.8 0-1.6-.7-2-1.5-.3-.8-1.4-1.5-2.4-1.5s-2.3-.5-3-1.2c-.9-.9-1.6-.7-3.1.6-1.3 1.2-2.7 1.6-4.3 1.1-3.1-1-14.8-8.6-14.8-9.6 0-.5-.7-.9-1.5-.9s-1.5.6-1.5 1.4c0 .8-.7 1.6-1.5 2-.8.3-1.4 1.1-1.3 1.7.4 1.8-6 3.3-7.8 1.8-1.1-.9-1.5-.8-2 .4-.6 1.5-4.4 1.2-4.4-.4 0-1.8-4.4-5.9-5.1-4.8-.4.6-1.2.8-1.8.4-.7-.4-.8-1.1-.3-1.8s.9-2.6 1-4.4c.2-2.7-.3-3.5-3.7-5.4-2.2-1.2-3.8-2.6-3.6-3 .6-.9-2.9-1.8-10.5-2.6-3.3-.3-6.3-1-6.6-1.4-.3-.5 0-.9.5-.9 2.4 0 .9-2.8-1.6-3.3-1.6-.3-4.5-1.7-6.7-3.2-2.7-1.9-4.2-2.3-5.1-1.5-.6.5-2.6.7-4.4.4-4.3-.9-11.3-8.9-10.8-12.3.6-3.3-4.4-10.3-9.8-13.8-5.3-3.3-5.8-5.1-1.2-4.4.4 0 1.6-.8 2.6-1.8 1.7-1.7 1.8-2.1.4-4.1-.8-1.2-1.3-3-1-4.1.4-1.4-.8-2.8-5.1-5.9-3.2-2.2-6.5-4-7.4-4-.9 0-2.3-.7-3.2-1.5-1.2-1.3-1.3-1.9-.1-4.2 1.5-3.2 1.3-7.9-.4-7.6-.6.2-1.1-.6-1.1-1.7 0-2.3-1.5-2.7-2.4-.5zm-32.1 8.5c.3.5.1 1-.4 1-.6 0-1.1-.5-1.1-1 0-.6.2-1 .4-1 .3 0 .8.4 1.1 1zm4 0c-.3.5-1.1 1-1.6 1-.6 0-.7-.5-.4-1 .3-.6 1.1-1 1.6-1 .6 0 .7.4.4 1zm30.5 83c0 .5-.4 1-1 1-.5 0-1-.5-1-1 0-.6.5-1 1-1 .6 0 1 .4 1 1zm-17 14.2c0 1.3-3.2.6-3.7-.9-.3-.7.3-.9 1.6-.6 1.2.3 2.1 1 2.1 1.5zm-67 123.8c0 .5-.2 1-.4 1-.3 0-.8-.5-1.1-1-.3-.6-.1-1 .4-1 .6 0 1.1.4 1.1 1z"/><path d="M316.762 66.4c0 .9.7 1.2 2 .9 1.1-.3 2-.1 2 .5 0 1.6 5.8 2.1 6.4.5.4-.9-.3-1.3-2-1.3-1.4 0-2.2-.4-1.9-1 .4-.6-.8-1-2.9-1-2.4 0-3.6.5-3.6 1.4zM21.262 102c-.3.5-.1 1 .4 1 .6 0 1.1-.5 1.1-1 0-.6-.2-1-.4-1-.3 0-.8.4-1.1 1zM177.762 104.4c0 .9.5 1.6 1 1.6.6 0 1-.4 1-.9 0-.6-.4-1.3-1-1.6-.5-.3-1 .1-1 .9zM33.262 112.9c-.6 1.1.9 2.3 1.9 1.4.9-.9.7-2.3-.3-2.3-.6 0-1.2.4-1.6.9zM8.862 116.5c1.5 2.5 1.7 3.5.8 3.5-.8 0-.3.7.9 1.6 2.8 1.9 2.8 2.8-.3 5.6-3.7 3.4-1.9 5.3 2.5 2.6 1.9-1.2 3-2.3 2.3-2.5-.8-.3-.9-1.2-.4-2.7.5-1.2.7-4.3.4-6.9-.6-4.7-.6-4.7-4.4-4.7h-3.8l2 3.5zM208.462 121.1c-1 .6-2.7.9-3.8.6-2.6-.7-2.3.4.6 2.5 2.3 1.8 2.4 1.7 4.5-1.2 2.2-3.1 1.8-3.7-1.3-1.9zM12.062 134.5c0 .8.4 1.2.9.9.4-.3.8-.9.8-1.5 0-.5-.4-.9-.8-.9-.5 0-.9.7-.9 1.5zM50.362 137.3c.3 1 .9 1.5 1.2 1.2.3-.3 0-1.1-.7-1.8-1-.9-1.1-.8-.5.6zM51.462 142.4c.8 1.5.6 2.4-1 4.2-1.1 1.3-2.7 2.4-3.5 2.4-1.2 0-1.2.3-.2 1.5s.8 2.1-1 5c-1.2 1.9-1.9 3.9-1.5 4.5.7 1.2-2.9 6.2-3.8 5.3-.4-.3-2.2.6-4.2 2.1-2.7 2.1-3.5 2.3-3.5 1.2 0-.9-.4-1.6-1-1.6-.5 0-1 .7-1 1.5s-.6 1.2-1.4.9c-1.2-.4-1.3 0-.7 2.3.6 2.2 1.7 3.1 5.5 4.4 2.7.9 4.2 1.9 3.5 2.1-1.1.4-1.1.8-.2 1.9 1.8 2.2-2 5.4-4.7 3.9-1.1-.6-2.1-.6-2.4-.1-.3.5.8 1.4 2.6 2 2.6.9 3.5.8 5-.6s2.3-1.5 3.7-.6c1.3.8 2.2.8 2.9.1.7-.7 1.7-.5 3.3.6 1.3.9 3.2 1.3 4.6 1 2.5-.7 6.3 1.4 10.1 5.3 2.5 2.7 2.8 3.9 1 4.5-1.4.5 1.9 2.6 6.7 4.4 2.6.9 3.2.8 4.9-1.3 1-1.3 2.5-2.2 3.2-1.9.9.3 2-.7 3-2.7 1-1.8 2.6-3.8 3.7-4.6 1.8-1.3 1.5-1.5-3.9-3.4-3.3-1.1-7-2.8-8.3-3.8-2.9-2.3-5.1-2.4-5.1-.4 0 1.9-1 1.9-3.8-.1-1.5-1-2.2-1.1-2.2-.3 0 .9-.3.9-1.4 0-.7-.6-2-.9-2.8-.6-2.2.9-6.3-2.8-5.2-4.6 1.3-2.2.4-6.1-2.2-9.2-1.3-1.6-2.4-3.3-2.4-3.8 0-2.1.2-2.4 1.7-2.1 1.1.2 1.3-.2.9-1.6-.7-2.1 1.2-7.2 2.6-7.2 1.4 0 .9-2.7-.8-4.1-1.4-1.1-1.4-1.3 0-2.1 2.1-1.2 2-3.2-.1-4.9-1.5-1.3-1.5-1.2-.6.5zM507.462 160c.3 1.2-.1 2.8-1 3.8-.8.9-1.7 2.6-1.9 3.7-.2 1.1-1.2 2.1-2.3 2.3-1.1.2-3 .8-4.1 1.4-2.1 1-2 1.2 2.3 5.5 2.8 2.8 4.3 5 3.9 5.9-1.3 3.5 3 7.1 12.6 10.8 4.8 1.8 6.4 4 5.3 7.5-.3 1.1-.2 2.2.4 2.5 1.1.7.3 4.6-1 4.6-.5 0-1.8-.5-2.9-1.2-1.6-1-2.3-.9-4 .7-1.1 1-1.9 2.4-1.6 3.1.3.7 0 1.5-.7 1.7-.9.3-.8.8.2 2 1.8 2.2 2.8 2.1 3.6-.4.6-1.9.8-1.9 3.2-.4 1.3.9 3.1 1.4 3.9 1.1 1.8-.7 1.8 2.3-.1 4.8-1 1.3-1.1 2.4-.5 3.7.8 1.4.6 1.9-1.1 2.4-1.5.5-1.8 1.2-1.3 2.3 1.2 2.6.8 7.3-.7 8.2-1 .7-.6 1.2 1.4 2.1 1.5.7 2.7 2 2.7 2.9 0 1 1.3 2.3 3 3 2.2.9 3.3 2.2 4 5.2 1.5 5.3.3 17.8-1.7 17.8-1 0-1.1.4-.3 1.9.8 1.6.6 2.1-1 2.6-1.1.4-1.7 1.1-1.4 1.7.4.6-.1 1.7-1.1 2.5-1.1.7-1.3 1.3-.7 1.3.7 0 1.2.4 1.2 1 0 .5-1.1 1-2.5 1-1.7 0-2.5.6-2.5 1.7 0 1.5-.1 1.5-1.8 0-2.8-2.6-4.2-2.1-3.6 1.2.5 2.5.2 3-3.5 4.4-2.9 1.2-4.1 2.3-4.1 3.7 0 1.1-.5 2-1.1 2-.6 0-3 1.6-5.3 3.5-2.6 2.1-5.4 3.5-7 3.5-2.5 0-2.7.2-2.1 3 .6 2.6.4 3-1.3 3-4.5 0-5.2.9-4.5 5.8.3 2.6 1.4 6.2 2.4 8.1 1.5 2.4 1.7 3.7.9 4.6-.8.9-.8 1.5 0 2 .6.3 1.7 2.2 2.5 4.2 1.4 3.3 1.4 3.7-.2 4.9-1.7 1.3-1.7 1.4.5 2 1.3.4 2.3 1.5 2.4 2.8 0 1.1.2 2.7.2 3.4.1.7.6 1.6 1.2 2 .6.4 1.4 1.7 1.8 3 .4 1.2 1.1 2 1.5 1.7.5-.2 1.7.2 2.7 1 1.8 1.4 1.8 1.4-.1.9-1.8-.5-2 0-2 5.3 0 5.4 1.2 8.3 3.2 8.3.4-.1 1.8-.9 3.1-2 1.7-1.4 2.2-2.7 1.9-5.2-.5-4.1-2.7-8.9-3.8-8.2-.5.3-.6-.2-.3-1 .3-.9 1-1.3 1.6-1 1.6 1 13.9-1.7 13.5-3-.2-.6.2-1.7 1-2.4.7-.8 1.1-1.8.8-2.3-.4-.5.1-.9.9-.9.9 0 2.3-1.1 3.2-2.5.9-1.4 2.7-2.8 3.9-3.1 1.6-.4 2.2-1.2 2-2.4-.3-1.3.1-1.7 1.2-1.3 1.1.4 1.4 0 1.1-1.7-.4-2.7 1.9-3.4 4.6-1.4 1.2.8 1.7 2.1 1.3 3.4-.6 2.4-.3 2.5 1.8.4 1.4-1.5 1.7-1.5 3.3-.1 1.9 1.7 3.7 1.1 3.8-1.3.1-.8.9-3.3 1.8-5.4 1.7-3.8 1.7-4-.3-6.6-1.7-2.4-1.8-3-.6-4.7 1.2-1.7 1.2-2.4 0-4.6-1.2-2.3-1.2-2.7.1-2.7.8 0 1.4-1 1.4-2.6 0-1.9.4-2.5 1.5-2 .9.3 1.5 0 1.5-.9 0-.8.9-1.5 2-1.5 1.7 0 1.9.5 1.4 2.5-.7 2.7 1.2 3.6 2.2 1 .8-2.1 2.1-1.9 2.9.4.9 3 3.7 3.5 5.5 1.1 1.6-2.1 1.7-2.1 3.2 1.9 1.4 3.6 2 4.1 4.7 4.1 1.7 0 3.1.4 3.1.9s1.1.8 2.5.8c2.2 0 2.5-.4 2.5-3.4 0-2.9.4-3.4 2.8-3.9 3.7-.7 7.9-6.9 6.1-9-1-1.2-1-2.2 0-5 .7-1.8.9-3.8.6-4.4-.9-1.5-3.2-1.2-3.9.5-.6 1.7-5.6 2.1-5.6.5 0-.6-.9-1-2-1s-2.2-.6-2.4-1.3c-.5-1.6-1.7-5.1-1.9-5.6-.1-.3-1.5-1.9-3.1-3.7-2.5-2.9-3-3.1-4.3-1.8-2.3 2.2-5.8 1.7-7.9-1.2-1-1.5-3.2-4.2-4.7-6-1.6-1.8-2.6-3.8-2.2-4.4.4-.6 0-1.9-.9-2.9-1.4-1.6-1.4-1.9.5-3.5 2.9-2.4 1.8-7.5-3.2-15-2.1-3.3-3.9-6.5-3.9-7.2 0-2.2 2.3-6.4 3.4-6.4.7 0 1.8-1.5 2.6-3.3.7-1.7 1.6-3.6 1.8-4.1.3-.5-.5-.7-1.7-.3-1.1.3-2.1.1-2.1-.3 0-1.8-3.9.4-4.2 2.4-.3 2.3-2.4 2.4-2.2 0 .2-1.6-.5-1.8-2.6-.4-1.2.8-1.2 1 .3 1.6.9.3 1.7 1.5 1.7 2.6 0 1.4-.5 1.8-1.6 1.4-.9-.3-1.8-.6-2-.6-.2 0-.4-.7-.4-1.5s-.7-1.5-1.5-1.5c-.9 0-1.8-.6-2.1-1.4-.3-.8-3-2.6-6-4s-5.4-2.8-5.4-3.1c0-.3.7-1.6 1.6-2.9 1-1.6 1.2-2.6.5-3.1-1.7-1-1.3-2.5.8-2.5 2.4 0 3.7-1.7 4.6-5.8.5-2.2 1.2-3.2 2.6-3.2 1.6 0 1.9-.7 1.9-5 0-3.6.4-5 1.3-4.8 2 .5 5.7-4 5.7-6.8 0-1.4.5-3.4 1-4.4 1.3-2.4-.3-3.5-2.9-2-1.7.9-2.3.6-3.7-1.5-1-1.5-2.9-2.7-5.2-3.1-2.3-.4-4.8-1.9-6.5-3.8-1.6-1.7-2.5-2.5-2.1-1.7.5 1 .1 1.1-1.7.6-1.3-.5-3.8-.9-5.5-1.1-1.7-.1-4.6-1.1-6.5-2.3-4.2-2.6-4.8-2.6-4.2-.1zm18.7 49.5c-.4.8-1.1 1.2-1.6.9-.6-.4-.5-1 .3-1.5 1.9-1.2 1.9-1.1 1.3.6zm53.6 78.9c0 .3-.4.8-1 1.1-.5.3-1 .1-1-.4 0-.6.5-1.1 1-1.1.6 0 1 .2 1 .4zm-42 1.6c0 .6-1.4 1.3-3.1 1.7-2.1.4-2.8 1-2.4 2.1.6 1.6-1.2 8.2-2.3 8.2-.4 0-1.4-.4-2.2-1-.9-.5-1.9-.5-2.7.2-.9.7-1.3.7-1.3-.1 0-1.9 2-5.1 3.1-5.1.6 0 2-1.2 3.1-2.6 2.7-3.4 7.8-5.6 7.8-3.4zm-15 10c0 .5-.4 1-1 1-.5 0-1-.5-1-1 0-.6.5-1 1-1 .6 0 1 .4 1 1zm.6 12.4c.1.9-.2 1.6-.8 1.4-.6-.2-1.2-1.2-1.4-2.2-.1-.9.2-1.6.8-1.4.6.2 1.2 1.2 1.4 2.2zm.4 3.6c0 .5-.7 1-1.6 1-.8 0-1.2-.5-.9-1 .3-.6 1-1 1.6-1 .5 0 .9.4.9 1zm4 12.8c0 1.5-.2 1.5-1 .2-1.3-2-1.3-3.3 0-2.5.6.3 1 1.4 1 2.3zM.262 183c-.9 1.4.5 8 1.7 8 1.3 0 4.7 4.1 4.8 5.7 0 .7.9 1.3 2 1.3 1 0 2.4.8 2.9 1.9 1.2 2.1 4.8 3.4 4.8 1.7-.1-3.5.5-4.7 2.1-4.5 3.9.4 5.4-.1 4.8-1.6-.3-.8-.1-1.5.4-1.5 1.2 0 5-3.7 5-4.8 0-1-3-.9-4.8.2-2.2 1.3-7.2-.5-8.9-3.2-2.4-3.8-2.3-3.8-3.2-2.4-.6 1-1.7 1-5.2-.2-5.2-1.9-5.6-1.9-6.4-.6zM90.062 187.5c-1.9 2 .5 4.5 4.2 4.5 4.3 0 4.4-.9.2-3.6-2.5-1.5-3.6-1.8-4.4-.9zM99.962 194c.7 1 1.4 1.8 1.5 1.6.6-.6-.9-3.6-1.8-3.6-.5 0-.4.9.3 2zM419.762 202.8c0 1.1.9 2.7 2 3.7 1.9 1.7 2 1.7 2 .1 0-.9.5-1.4 1-1.1.6.3 1 .1 1-.5 0-.7-.6-1-1.4-.7-1.6.6-4-1.6-2.9-2.6.3-.4.1-.7-.5-.7-.7 0-1.2.8-1.2 1.8zM14.262 207c1 1.1 2 2 2.2 2 .2 0-.1-.9-.7-2s-1.6-2-2.2-2c-.6 0-.3.9.7 2zM630.562 217.8c-3.3 3.8-3.1 7.4.4 9.3 1.4.7 2.3.7 3.3-.1.7-.6 1.9-1 2.7-.9 2.6.3 3.8-.1 4.8-2.1 1.3-2.4-2-8.6-3.7-6.9-.6.6-1.8.6-3.5 0-2.1-.8-2.9-.6-4 .7zM16.862 219.6c0 1.1.3 1.4.6.6.3-.7.2-1.6-.1-1.9-.3-.4-.6.2-.5 1.3z"/><path d="M557.362 222.6c-.8 2.2-.4 2.5 1.1.9.7-.8.9-1.6.4-1.9-.5-.3-1.2.1-1.5 1zM391.762 224.6c-1.2 1.3-1.1 1.7.1 2.5 2.1 1.3 2.6 1.1 2.4-1.1-.2-2.8-1-3.3-2.5-1.4zM647.462 223.9c-1.7.6-1.7.8-.3 2 .9.7 1.6 2.2 1.6 3.2 0 1.1.5 1.9 1.1 1.9.6 0 .8-.9.4-2.1-.5-1.6-.4-1.9.6-1.4.9.6 1.1.3.6-.9-.4-1-.7-2.2-.7-2.7 0-1-.8-1.1-3.3 0zM624.862 225.4c-.8.9-2.7 1.4-5.2 1.3-3.2-.2-3.7 0-2.5.9.9.6 1.6 1.3 1.6 1.6 0 .9-3.5.5-4.3-.6-.6-.7-.7-.6-.5.4.6 1.9-2.2 5-3.8 4.3-1-.4-1.4.4-1.4 2.6 0 1.9-.5 3.1-1.3 3.1s-1.3 1.3-1.3 3.6c0 1.9-.6 3.9-1.3 4.4-.8.4-1 1.3-.7 1.9.4.6-.4 1.5-1.9 2.1-2.1.8-2.5 1.5-2 2.8.5.9.8 2.5.9 3.4 0 1 .4 1.8.9 1.8s.6.7.3 1.6c-.7 1.9.3 6.4 1.5 6.4.5 0 .6-.7.2-1.5-.7-1.9 2.3-4.4 5.5-4.5 1.2 0 2.2-.5 2.2-1.1 0-.6.7-.8 1.6-.5 2.3.9 7.6-3.8 6.1-5.3-.8-.8-.7-1.1.5-1.1 2.2 0 3-5 1.2-7.7-1.9-3.1-1.8-3.4 1.1-2.3 2.1.8 2.5.7 2.5-1 0-1.1.5-2 1-2 .6 0 1-.9 1-2s.4-2 .9-2c1.2 0 .6-9.9-.7-11.2-.5-.5-1.4-.3-2.1.6zM654.562 228.7c.7.3 1.6.2 1.9-.1.4-.3-.2-.6-1.3-.5-1.1 0-1.4.3-.6.6zM75.362 268.5c.4.8 1.1 1.5 1.6 1.5.6 0 .5-.6-.2-1.5-.7-.8-1.4-1.5-1.6-1.5-.2 0-.1.7.2 1.5zM604.162 268.8c-.6.4-1.4 1.7-1.8 2.9-.6 1.9-.3 2.3 1.2 2.3 1.4 0 2.1-.8 2.4-3 .5-3.1.1-3.5-1.8-2.2zM78.762 270.6c0 .9.8 2.6 1.8 3.9 1.8 2.3 1.9 2.3 3.1.3 1-1.7.9-2.3-.5-3.9-2.1-2.3-4.4-2.5-4.4-.3zM594.762 283.6c0 .8.5 1.2 1 .9.6-.3 1-1 1-1.6 0-.5-.4-.9-1-.9-.5 0-1 .7-1 1.6zM554.462 304.8c-1 .2-1.6.9-1.4 1.5.6 1.8 2.4 1.9 3.1.1.8-2 .6-2.1-1.7-1.6zM551.262 314.1c-.8 2.4.8 4.5 2.5 3.4.8-.5.8-1.1.2-1.7-.6-.6-.8-1.7-.5-2.4.3-.8 0-1.4-.5-1.4-.6 0-1.4.9-1.7 2.1zM558.262 317.8c-4.3.7-4.5 1-3 3.9 1.1 2.1 2.3 2.8 4.6 2.9 1.7.1 2.6-.1 2-.5-.6-.4-.9-1.5-.6-2.4.9-2.3-.7-4.4-3-3.9zM571.262 323c-.3.5.1 1 .9 1 .9 0 1.6-.5 1.6-1 0-.6-.4-1-.9-1-.6 0-1.3.4-1.6 1zM578.062 328c1.1.7 2.6 1.3 3.5 1.4 1 .2 2.4 2.2 3.4 4.9 4.2 11.1 4.8 12.3 6 10.4.7-1.4.6-2.3-.7-3.8-1.7-1.7-1.7-1.9-.1-2.5 1.5-.6 1.5-.8-.4-2.1-1.1-.8-2-2-2.1-2.6 0-1.8-5.1-5.5-8.5-6.2-2.5-.5-2.6-.5-1.1.5zM534.762 332c0 .5.5 1 1 1 .6 0 1-.5 1-1 0-.6-.4-1-1-1-.5 0-1 .4-1 1zM527.462 338.7c-1 .3-2.2 1.6-2.8 2.9-.5 1.4-1.3 2.3-1.8 2-.5-.3-1.1.5-1.3 1.9-.4 1.7-.1 2.5.8 2.5.8 0 1.4-.7 1.4-1.5s.8-2.3 1.8-3.3c2.1-2.2 4.6-5.2 4.1-5.1-.2.1-1.2.3-2.2.6zM515.262 349c-.3.5 0 1.3.8 1.6 1.2.4 1.3 1.3.7 3.5-.5 1.7-.5 2.9 0 2.9 1.4 0 3.2-3.9 2.8-6.3-.3-2.3-3.2-3.5-4.3-1.7zM591.462 350.7c-.4.3-.7 1.1-.7 1.7 0 .6.5.5 1.2-.2.6-.6.9-1.4.7-1.7-.3-.3-.9-.2-1.2.2zM588.862 355.6c-1.8.8-4.4 1.4-5.8 1.4-1.3 0-2.1.4-1.8 1 .3.5-.3 1-1.4 1-1.4 0-1.9.5-1.5 1.5.5 1.3.2 1.4-2 .5-2.9-1.1-3.2-.4-1.2 2.5 1.7 2.6 1 14.6-.9 13.9-2.3-.9-2.5 2.6-.4 6.2l2 3.7-2.1 2.2c-1.9 2-1.9 2.3-.5 3.5 1.2 1 1.3 1.5.4 2.1-1 .6-1 1.3-.1 3.4.7 1.4 1.2 3.4 1.2 4.5 0 1 .6 2.1 1.3 2.3.7.4.3.8-1 1.2-1.7.5-2.3 1.5-2.3 3.5 0 1.6-.5 3-1.2 3.2-.7.3.3 2 2.4 4.4 2 2.1 3.7 4.8 3.9 5.9.3 1.2 1.4 2.1 2.7 2.3 1.2.2 2.7 1.2 3.2 2.2.6 1.1 2.1 3.1 3.4 4.5 1.3 1.4 2.6 4.3 3 6.5.3 2.2 1.2 4.1 1.9 4.1.6.1 2.4.2 4 .3 1.9.1 4.1 1.7 7.3 5.1 4.5 5 5.3 5.1 6.7 1 .5-1.3 6.4 5 5.9 6.3-.5 1.5 5.5 7.9 6.4 6.9.5-.4.2-1.2-.5-1.6-.7-.5-1.1-1.4-.7-1.9.4-.6.2-1.9-.4-2.9-.5-1-1.4-3-2-4.6-.7-1.9-1.6-2.7-3.2-2.7-1.3 0-4-1.1-6-2.5-2.4-1.6-3.8-2.1-4-1.3-.3.8-1.6.5-4-1-2.8-1.7-3.4-2.7-3.1-4.6.6-2.7-5.4-10.1-6.4-7.8-.8 2-2.3.3-2.3-2.6 0-1.5-.7-3.6-1.5-4.6-2.8-3.7-1.7-10.6 1.7-10.6 1.3 0 1.8.5 1.5 1.4-.4 1-.1 1.3.9.9.8-.3 1.4.1 1.4.9s1.3 2.4 3 3.6c2.8 2.1 3 2.1 3.9.3.8-1.4.7-2.2-.4-3.1-.7-.6-1.3-2.5-1.3-4.1.1-1.6-.1-3.2-.4-3.5-.3-.2 0-2.1.7-4.1 1-3 1-4.2-.1-6.9-1.2-2.9-1.2-3.4.1-4.2 1.4-.7 1.4-1.3.1-4.9-1.7-4.9-.5-11.5 2.8-15.1 1.2-1.4 2-3.4 1.8-4.7-.2-1.3.4-3.8 1.3-5.5 1.7-3.3 1.2-5.5-1.2-4.6-2.1.8-8.3-1.5-8.3-3.1 0-2.4-3.3-3.2-6.9-1.7zm-3.7 66.4c-.6.6-1.9.7-3 .3-1.7-.6-1.7-.8.6-1.3 2.9-.8 3.8-.4 2.4 1zM494.462 363.7c-.4.3-.7 1.1-.7 1.7 0 .7.3.7.8 0 .4-.7 1.6-1.4 2.7-1.7 1.9-.5 1.9-.5-.1-.6-1.1 0-2.4.2-2.7.6zM486.762 366.4c0 .2.7.6 1.5 1 .8.3 1.5.1 1.5-.4 0-.6-.7-1-1.5-1s-1.5.2-1.5.4zM207.162 407.6c-.3 1.1-1 2.9-1.5 4.2-.5 1.3-.9 3.1-.9 4.2 0 1-1.2 3.3-2.6 5-2 2.3-2.4 3.4-1.6 4.2 1.4 1.4 9.3-2.1 8.5-3.7-.3-.5 0-.4.8.2.7.7 1.8 1.3 2.5 1.3 1.1 0 1.1-1.7.2-10.4-.1-1.1-1.2-3.1-2.5-4.4-2.1-2.3-2.3-2.3-2.9-.6z"/><path d="M604.262 419c-.3.5-.1 1 .4 1 .6 0 1.1-.5 1.1-1 0-.6-.2-1-.4-1-.3 0-.8.4-1.1 1zM607.762 420.9c0 2.5.6 2.7 1.3.6.4-.8.2-1.7-.3-2-.6-.4-1 .3-1 1.4zM198.262 429c-.3.5-.1 1 .4 1 .6 0 1.1-.5 1.1-1 0-.6-.2-1-.4-1-.3 0-.8.4-1.1 1zM197.262 434c-.3.5.1 1 .9 1 .9 0 1.6-.5 1.6-1 0-.6-.4-1-.9-1-.6 0-1.3.4-1.6 1zM193.362 438c-1.6.5-1.7.8-.4 1.2 1.6.7 4.5-.7 3.2-1.4-.5-.3-1.8-.2-2.8.2zM622.162 470.1c-.3.6-.2 1.5.2 1.9 1.2 1.2 3.8-.5 3-1.9-.9-1.4-2.3-1.4-3.2 0zM617.762 473c0 .6.7 1 1.5 1s1.5-.2 1.5-.4-.7-.6-1.5-1c-.8-.3-1.5-.1-1.5.4zM620.862 475.9c-.7 1.2-.7 2.2-.2 2.6.5.3 1.3-.4 1.6-1.6.9-2.8-.1-3.6-1.4-1z"/></g></svg>