<svg version="1" xmlns="http://www.w3.org/2000/svg" width="986.987" height="1059.63" viewBox="0 0 740.24 794.723"><g fill="#222"><path d="M229.785 1.14c-2 .6-4.3 1.7-5 2.4-.6.6-2 1.2-2.9 1.2-1.3 0-1.9 1-2.1 3.2-.3 2.9-.7 3.3-2.9 3.1-2.6-.1-2.6 0-2.2 5.3.3 4.1 0 5.6-1.1 6-1.2.5-1.2 1 .2 3.5 1.7 3 1.7 3-1.8 5.9-1.9 1.6-3.9 3-4.4 3-.5 0-1.8.8-2.8 1.7-1.6 1.4-2.3 1.5-3.8.5-1.1-.7-2.7-1.2-3.5-1.2-.8 0-1.5-.5-1.5-1 0-.6-1.8-.9-4-.8-2.2.2-4 .6-4 1 0 .5-1.7.8-3.9.8-3.4 0-4-.4-5.1-3-1.1-2.6-3.6-5-5.2-5-.2 0-.2 1.7 0 3.7.4 2.8 1.7 4.9 5.9 9.1 6.8 6.8 10.3 12.3 10.3 16.1 0 1.6.5 3.3 1 3.6.6.3 1 .1 1-.4 0-.6.7-1.1 1.5-1.1s1.5-.4 1.5-.9.7-1.6 1.5-2.4c1-1.1 1.2-2.3.6-4.5-.5-1.7-.7-3.3-.3-3.6 1-1.1 3.5-.6 5.3 1 1.3 1.2 2.2 1.3 3.7.5 1.6-.9 2.1-.7 2.7 1.2l.8 2.2.4-2.3c.3-1.5 1-2.2 1.8-1.8.7.2 1.9-.2 2.6-1 .7-.8 1.9-1.2 2.8-.9.9.3.3-.6-1.3-1.9l-3-2.5 2.7-.6c1.6-.5 3.3-.2 4.2.5 2.6 2.1 3.9.5 5-6.3 1-6.2 1-6.7-.8-7.3-1.4-.4-1.6-.9-.8-1.7.6-.6 1.1-3.3 1.1-5.9 0-3.4.4-4.8 1.4-4.8 2.2 0 6.8 4.1 6.2 5.6-.3.8-.2 1.4.2 1.5 6.4.9 8 .7 8.5-1.2.3-1.2-.2-2.4-1.5-3.3-1.1-.8-1.7-1.9-1.4-2.5.4-.6.2-1.9-.3-3-.8-1.4-.7-2 .3-2.4 1.4-.6 2.9-4.7 1.6-4.7-.4 0-1.3-1.4-2-3-1.4-3.3-1.7-3.3-7.2-1.6zM483.485 50.84c-.4.6-.5 1.2-.2 1.5.2.3.7-.2 1-1.1.7-1.7.1-2-.8-.4z"/><path d="M208.185 54.74c-.8 1.3-.9 2.7-.4 3.8.5.9.7 2.3.5 2.9-.3.7 0 1.3.6 1.3s2 1.8 3.1 4l2.1 4-2.1 2.3c-1.2 1.2-2.4 3.4-2.7 4.9-.3 1.6-.9 2.8-1.4 2.8-1.5 0-1 2.3 1 4.9 1.2 1.6 3.8 2.9 7.2 3.8 6.6 1.6 9.9 5 9.9 9.9 0 2.5 1 4.9 3.5 8.1 2 2.6 3.8 6.4 4.2 8.6.4 2.9 1.3 4.4 3.7 5.8 1.7 1 3.7 1.7 4.4 1.4.7-.2 1.5.2 1.8 1 .4.8 1.1 1.5 1.8 1.5 1.4 0 4.6 5.1 4.6 7.3 0 2.4 6.7 7.7 9.8 7.7 2 .1 3.6 1.2 6.1 4.5 1.8 2.5 4.4 4.8 5.7 5.1 1.2.3 2.5 1.2 2.8 2 .3.8 1.5 1.4 2.6 1.4s2 .7 2 1.5c0 2.8 2.3 6.5 4.1 6.5 1 0 2.3.8 2.8 1.7.8 1.3 1.3 1.5 1.9.6.5-.8 1.5 0 3.1 2.5 1.3 2 3.2 4.9 4.3 6.4 1 1.5 1.8 3.9 1.8 5.3 0 3.2 4.6 12 5.5 10.5.3-.6.3-2.4 0-4.2-.7-2.9-.6-3 2-2.4 2.2.6 2.8.3 3.2-1.4.3-1.1.9-2 1.4-2 .5 0 .9-.8.9-1.7 0-3.3 1.8.2 3.7 7.4l2 7.2-2.1 1.9c-1.2 1.1-2.7 1.7-3.3 1.5-1.7-.6-1.6.2.3 3.8.8 1.6 1.2 3.8.9 4.9-.9 2.8 3.4 6.9 6.7 6.3 2-.4 2.8 0 3.2 1.5.8 2.3 4.6 1.9 4.6-.4 0-2.2 1.6-1.6 3.4 1.1 1.3 2 2.2 2.4 4.6 2 2.2-.4 3.6.1 5.6 2 1.5 1.4 3.7 2.5 4.9 2.5 1.2 0 3.1 1.3 4.3 3 1.7 2.2 3.1 3 5.4 3 1.9 0 4.1.9 5.5 2.2 2 1.9 2.6 2 3.3.8.5-.8 1.2-1.1 1.7-.7.4.4.2 1.7-.5 2.7-.7 1.2-.8 2-.2 2 .5 0 1-.3 1-.8.1-3 5-3.8 5-.7 0 .6 1.1 2.4 2.5 3.9s2.5 3.1 2.5 3.6.9 1.2 2 1.5c1.1.4 1.8 1 1.5 1.5-.3.4.7 1.8 2.2 2.9 2.6 2 2.7 2.2 1 3.5-1.3 1-1.4 1.5-.6 1.8 1.9.6-2.7 7.7-4.9 7.5-3.1-.2-10.2 3.6-10.2 5.4 0 1-.4 2.1-1 2.4-.5.3-1 2.1-1 4 0 3.4-1.7 4.9-4.5 3.9-.8-.3-2.7.3-4.3 1.5l-2.9 2-2.1-2.4c-1.3-1.5-3.3-2.5-4.9-2.5-2.1 0-3.5-1-5.5-3.9-2-2.8-3.7-4.1-6.2-4.5-2.5-.5-3.4-1.1-2.9-2.1.3-.9-.1-1.5-1.1-1.5-.9 0-1.6-.7-1.6-1.5 0-1.1.8-1.5 2.8-1.3 2.5.3 2.7 0 3-3.9.2-3.2-.2-4.7-1.7-6.2-1.2-1.2-2.1-2.5-2.1-3 0-1.5-4.1-6.1-5-5.6-1.6 1-2.9-2.2-3.3-7.8-.5-6.5-2.2-9.1-7.3-10.7-2.4-.8-3.6-1.9-4.1-3.8-.3-1.5-1.7-5.1-3-8-1.3-2.9-2.3-6.5-2.3-8.1 0-1.6-.9-4-2.1-5.5-2.4-3.1-8.8-6.6-12-6.6-1.8 0-2.1.5-1.7 2.8.4 2.6 0 3-3.9 4.2-2.4.6-4.3 1.6-4.3 2.1s-1.1.9-2.5.9c-2 0-2.5.5-2.5 2.6 0 1.9-.7 2.8-3 3.5-1.6.6-3 1.6-3 2.2-.1 1.8-3.8 5.9-4.9 5.3-.5-.3-1.4.1-2.1.9-.7.8-2.2 1.5-3.4 1.5-2.6 0-4.1 1-4.9 3.3-1 2.6-3.5 3.2-5.7 1.2-2.5-2.3-15-2.9-15-.8 0 1.6-2.2 1.7-3.6.3s-9.3-1.7-10.2-.5c-.4.6-2.6 1.1-4.9 1.2-8.5.5-10.3.8-10.3 2 0 .6-.8.9-1.9.6-2.1-.5-3.7-4.6-2.1-5.1.6-.2 1-1.9 1-3.8 0-2.9-.5-3.6-2.7-4.5-1.6-.5-3.5-1.3-4.3-1.6-2.4-1.1-14.9-1.2-15.6-.2-.3.5-1 .7-1.5.4-.5-.4-.9-.1-.9.4 0 2.3-3.8 1.1-4.4-1.4-.4-1.4-1-2.5-1.5-2.5s-1.6-.6-2.3-1.3c-.8-.6-2.4-2.1-3.6-3.1-2.2-1.9-2.2-1.9-2 .3.2 1.5-.5 2.8-1.9 3.8-2.1 1.4-2.3 1.4-3.3-1.1-.5-1.4-1.4-2.6-2-2.6-.6 0-.9-.4-.5-.9.3-.6-.3-1.4-1.2-2-1.7-1-1.7-1 .1-1.1 1.7 0 1.8-.5 1.1-4.8-.4-2.6-.8-6.1-.9-7.9-.1-1.7-.5-3.5-.9-3.9-.4-.4-.7-1.5-.7-2.5 0-1.4.8-1.6 4.8-1.5 2.6.2 5.1.1 5.5-.2.9-.5-1.9-5.1-4.2-6.9-1.3-1-1.3-1.4-.3-2.1 1-.7 1-1.1-.3-2.2-.9-.7-1.3-2.1-1-3.1.4-1.2.1-2.1-.9-2.5-.9-.3-1.6-1.3-1.6-2.1 0-1 .6-1.3 1.6-.9 1.5.6 1.5.4.3-1.1-.8-1-1.8-2.4-2.4-3.1-.5-.7-1.7-2.1-2.5-3-1.3-1.5-1.3-1.9.3-3.5.9-.9 2.1-1.7 2.7-1.7 1.2 0 .2-5.8-1.6-8.6-1-1.8-1-2.4.2-3.5 1-1.1 1.2-2.3.4-4.7-.8-3-.6-3.4 1.6-4.4 1.3-.6 2.4-1.6 2.4-2.1s.7-.4 1.5.3c1.6 1.3 1.9.8 1.5-2.4-.1-1 .1-3 .5-4.4.5-1.9.9-2.2 1.8-1.3.6.6 1.7 1.1 2.5 1.1s2.1.8 2.8 1.7c1.1 1.6 1.2 1.3 1-1.8-.2-2-.7-4.2-1.2-5-.5-.8-.9-2-1.1-2.8-.2-1.8-2.3-3.9-2.3-2.4 0 .6-.6 1-1.2.9-2.4-.3-3.9-1.8-3.4-3.2.3-.7.1-1.6-.4-1.9-.6-.4-1-1.4-1-2.4s-.9-3-2-4.3c-1-1.4-1.6-2.8-1.3-3.2.3-.3-.2-.6-1.2-.6s-2.3.6-2.9 1.4c-.6.7-2.3 1.6-3.8 2-2.1.5-3 .1-4.2-1.6-.9-1.2-1.6-1.7-1.6-1.1 0 1.1-.6 1.2-8.3 1.3-4.5.1-4.7 2.2-.3 3 1.6.3 3.3 1.6 4.1 3 1.2 2.2 1.1 2.6-.8 4.2-1.1 1-2.4 1.8-2.9 1.8-1.1 0-1-2.7.2-5.1 1-1.7.7-1.9-2.4-1.9-1.9 0-3.8-.5-4.1-1-1.2-1.9-4.5-1.1-4.5 1 0 1.1-.4 2-.8 2-.8 0-4.3 7-5.6 11.4-.4 1.1-1.2 1.6-2.2 1.2-2.3-.9-6.4.4-6.4 2 0 1.8 5.7 4.8 6.2 3.2.2-.6 1.5.6 2.8 2.7 1.6 2.6 2 4 1.2 4.3-.7.2-1.2 1-1.2 1.8 0 .9-1.1 1.4-3.4 1.4-2.9 0-3.6.5-4.5 3-1.1 3.4-1 3.4-4.7 2-2-.8-2.9-.7-3.8.4-1.2 1.5-5.7 2.8-9.8 2.7-3.5 0-4.4 1.5-2.3 3.9 2 2.2 1.1 4.5-1.4 3.5-.9-.4-3.5-.9-5.8-1-3.6-.3-4.3-.1-4.3 1.5 0 1-.4 2.1-.9 2.5-.5.3-.7 2.1-.4 4 .3 1.9 0 4.7-.6 6.3-1 2.3-1.7 2.8-4 2.4-2.3-.3-3 .1-3.8 2.5-1.7 4.4-2.4 6.8-2.3 7.2.1.2-1.2 1-2.9 1.7-3.3 1.4-4 3.9-2.1 7.5.7 1.3.7 1.9 0 1.9-1.8 0-1.1 1.7 3 6.3 2.9 3.2 4 5.4 4 7.7 0 3.6 1.9 12 3.1 13.6.5.5.2 3.2-.6 5.8-.8 2.7-1.3 5.2-1 5.6.3.4-.2 1.3-1 2-1.4 1.1-1.3 1.7.5 4.7 1.1 1.9 2 4.2 2 5.2 0 .9.7 2.6 1.5 3.7 2 2.6 1.9 6-.3 8.2-1.6 1.6-1.7 2.2-.5 5 .7 1.8 2 3.5 2.8 3.8.8.4 1.5 1.1 1.5 1.8.1 1.5 11.2 6.6 14.6 6.6 1.7 0 3.7 1.2 5.8 3.3 3.8 4.1 5.9 5 10.9 4.8 3.4-.2 3.7 0 3.7 2.3 0 2.1.7 2.7 4 3.7 2.9.9 4.7.9 6.3.2 1.7-.8 2.8-.7 4.2.4 1.1.7 2 1.7 2.1 2.1 0 .4.4 1.5.9 2.6s.3 2.1-.5 2.6c-1 .6-.9 1 .2 1.6 1.7 1 3.2 9.4 1.7 9.4-.5 0-.9 1.4-.9 3.1 0 1.9.4 2.8 1.1 2.3.6-.3.8-1.5.6-2.6-.4-1.5-.2-1.7.8-.8.7.6 1.9.8 2.7.5.9-.4 2.6.7 4.4 2.7 3.3 3.7 10.1 8.1 11.4 7.3.5-.3 1.1-.1 1.5.5.9 1.4 6.7-4.9 6.1-6.6-.3-.8.1-1.4 1-1.4.8 0 1.8-.9 2.2-1.9.7-1.9 1-2.1 3-2.1.4 0-.4-.6-1.7-1.3-3.3-1.6-3.8-3.6-.9-3 1.8.3 3-.5 5.3-3.6 1.7-2.2 3.8-4.3 4.8-4.7 1.2-.4 1.6-1.2 1.2-2.5-.5-1.5-.1-1.9 1.9-1.9 1.6 0 3.2-1 4.6-3 1.8-2.6 2-3.5 1.1-6.3-.8-2.6-.8-2.8.2-1.3 1.9 3 4.6 5.6 5.8 5.6.6 0 1.3-.9 1.6-2 .3-1.1.9-1.7 1.4-1.4.5.3.9 0 .9-.6s.4-.9.9-.6c.5.4.7-.4.4-1.6-.3-1.7-.2-1.9.5-.9.8 1.1 1.4.9 3.2-.9 2-2 2.3-2.1 4-.5 1.8 1.6 1.9 1.6 2.6-.9.3-1.4 1.2-2.6 2-2.6 1.7 0 1.9 4.1.2 5.8-.9.9-.9 1.7 0 3.4.6 1.3 1.1 3 1 3.8-.4 4.4.2 5.2 2.9 4.7 1.8-.3 3.6.1 5.2 1.4 1.3 1 3.3 1.9 4.3 1.9 2.5 0 7.8 3.7 7.8 5.5 0 .7.7 1.6 1.6 1.9 2.2.9 2.4.8 2.4-.9 0-1 1-1.5 2.8-1.5 3.2 0 5.7 1.6 7.5 4.6.7 1.2 2 3.3 3 4.7 1 1.4 2.1 4.1 2.4 6.1.5 3.1.3 3.6-1.5 3.6-1.1 0-2.2.7-2.6 1.5-.3 1 .1 1.5 1.3 1.5 1.1 0 2.1-.6 2.3-1.2.4-1 1-1 3.2 0 3.7 1.7 5.7 1.5 8.6-.8 1.6-1.2 3.4-1.7 5.1-1.3 1.6.3 3.7-.2 5.1-1.1 2-1.3 3.1-1.4 5.7-.5 2.7.9 3.5.9 4.2-.2.7-1.1.9-1.1.9.2 0 2.2 3.4 5.1 5.2 4.4 1.1-.5 1.4.1 1 2.5-.4 2.5 0 3.2 1.5 3.6 1.7.5 1.9 1.4 1.8 7.5-.1 3.8-.7 7.5-1.3 8.1-.7.7-1.2 2-1.2 3 0 3.3 6.5 12.1 13.9 18.8 5.3 4.8 7.1 7.2 7.1 9.1 0 1.4 1.1 3.6 2.5 4.9 1.4 1.3 2.5 2.8 2.5 3.4 0 1.2 6.4 6.6 7.8 6.6 1.2 0 4.2 6.6 4.2 9.3 0 1.2-1.3 3.3-3 4.7-2.9 2.4-3 2.7-1.8 5 1.9 3.4 3.4 3.5 7 .5 1.6-1.4 3.4-2.3 3.9-1.9.5.3.9.1.9-.5 0-.7 4.4.2 6.8 1.5.9.5-2.3 4.1-3.2 3.8-1.5-.6-3.9 5.1-3.1 7.5.5 1.8-1.2 3.3-4 3.6-.5 0-2.5 1.6-4.4 3.5-4 4-5.8 9-3.7 10.2.9.5 1.2 2.2 1 5.3-.1 2.4.2 4.7.7 5.1.5.3.9 3.1.8 6.2-.2 4.5.3 6.5 2.2 9.4 1.4 2.2 3.2 3.7 4.4 3.7 3.5.1 6.5-1.1 6.5-2.5 0-.8.7-1.4 1.5-1.4s1.5-.4 1.5-.8c0-.5 2.5.3 5.5 1.7 3.5 1.7 5.5 3.2 5.5 4.3 0 1.1 1.1 2 2.8 2.4 1.5.4 3.8 1.6 5.2 2.8 4.5 3.9 7.9 5.2 10.1 3.8 1.5-1 2.4-1 4.2 0 2.1 1.2 2.7 1.4 5.4 1.7.7 0 2.5 1.8 4 3.9 1.8 2.4 3.4 3.6 4.6 3.4.9-.2 1.7-.8 1.7-1.3 0-.6.9-.5 2.1.2 1.4.7 4.3.9 8.1.5 4.6-.6 6.5-.4 8.3.8 1.3.9 3.1 1.3 4 1 1.7-.7 5.5 2.2 5.5 4.2 0 .6 2 1.9 4.4 2.7 4.2 1.4 4.6 1.4 6.2-.4.9-1 2.8-1.9 4.1-1.9 1.2 0 2.3-.3 2.2-.8-.3-1.8 1.5-5.2 2.6-5.2.8 0 2.1-.3 3-.7 1.4-.5 1.6-.2 1.1 1.5-.5 1.5-.2 2.2 1.4 2.7 2.3.7 4.4 4 3.5 5.5-.3.6 0 1 .8 1s2.2.9 3.1 1.9c1.6 1.8 1.6 2.1-.3 5.9-1.1 2.2-2.7 4.2-3.6 4.5-.8.4-1.5 1.5-1.5 2.4 0 1-.7 2.9-1.6 4.1-.9 1.4-1.3 3.1-.9 4.4 1.1 3.1-1.4 9.8-3.6 9.8-1.2 0-1.6.5-1.3 1.4.3.8.1 1.7-.5 2.1-.8.4-.6 1.1.4 2.1.8.9 1.3 1.9 1 2.4-.3.4.2 1.3 1 2s1.5 2.1 1.5 3.1c0 4.7 5.9 12.5 8.7 11.5.8-.3 1.9-.6 2.4-.6s.9-.7.9-1.5c0-2.1.5-1.9 3.4 1 1.4 1.4 3.1 2.5 3.8 2.5.7 0 2.2 1.2 3.3 2.6 1.1 1.4 3.1 3.8 4.5 5.3s2.4 3.6 2.3 4.7c-.2 1.6-.1 1.6.3.1.7-2.2 1.3-2.2 4.1.5l2.3 2.1.2-2.9c.1-1.6.1-3.9 0-5.2 0-1.2.3-2.2.9-2.2.5 0 .9-.4.9-.9 0-.6 1-2.6 2.1-4.6 1.7-2.8 2.4-3.3 3.5-2.4 1.2.9 1.4.4 1.4-3.4 0-2.5.5-4.9 1-5.2.6-.4.8-1.5.5-2.6-.7-2.1-.2-2.3 2.5-.9 1.3.7 1.9.6 2.4-.5.3-.8 1.6-1.5 3-1.5s2.8-.5 3.1-1c.4-.7 1.4-.6 2.8.1 1.2.7 3.3 1.3 4.8 1.3 1.5.1 4 1.5 6 3.4 1.8 1.8 4.3 3.5 5.5 3.8 1.3.3 2.9 2.2 3.9 4.4.9 2.1 3 4.8 4.7 6 2.2 1.6 2.7 2.5 1.8 3.4-.5.8-.8 2-.4 2.9.6 1.7-2.4 3.1-4.7 2.2-1-.4-1.5.1-1.5 1.5 0 1.1.4 2 .9 2s.7.9.4 2.1c-.4 1.5-.2 1.8.7 1 .7-.6 1.6-.7 2.1-.3.4.4.6-.3.3-1.5-.6-2.3 1.3-4.9 2.6-3.6.4.4 2.4.9 4.6 1 4 .3 6.2-1.9 4-4.1-1.6-1.6-1.2-3.6.9-3.6 3.6 0 14.2 3.1 17.9 5.3 2 1.1 4.7 3.2 6 4.5 1.3 1.4 2.9 2.1 3.8 1.8 1.8-.7 5.5 1 6.7 3.1.6 1 1.7 1.3 3.3.9 1.6-.4 2.6-.2 3 .7.3.8 1.7 1.2 3.9.9 2.1-.3 3.5 0 3.5.7 0 .6.9 1.1 2 1.1 1.3 0 2 .7 2 1.9 0 1.1.5 2.3 1 2.6.6.4.8 1.1.5 1.6-.4.5-.2.9.3.9.6 0 1.2-.7 1.6-1.5.7-1.9 3-1.9 4.6 0 .9 1.1 2.7 1.5 6.4 1.2 6.2-.4 10.8-2.7 12.4-6.1.8-1.8 1.9-2.6 3.6-2.6 1.4 0 2.7-.4 3.1-.9.3-.6 1.3-.9 2.3-.8 2.9.2 9.2-4.2 9.2-6.4 0-1.2.7-1.9 2-1.9s2.6-1.3 3.9-3.9c2.5-4.7 4.1-5.4 9.4-4 2.6.7 4.3.7 4.5.1.4-1.4 8.2 2.8 8.2 4.5 0 2.4 3 7.7 5.8 10 2.2 1.8 2.3 2.3 1 2.3-2.1 0-2.3 1.1-.7 2.7.8.8.7 2.3-.4 5.6l-1.5 4.5 3.1 1.3c1.8.7 3.8 1.9 4.5 2.7 1 1.4 1.2 1.3 1.2-.7 0-2.2 0-2.2 3.5.5 3.8 2.9 4.6 4.9 1.6 4.1-3.4-.9-10.1 8.3-8.7 11.8.4 1 1.2 1.5 2.1 1.1 2.1-.8 11.9 3.5 10.3 4.5-.8.5-.2 1.6 1.8 3.6 1.7 1.5 3.9 4 4.8 5.5 2 3 4.6 3.7 4.6 1.3 0-1.8 1.2-1.9 2.7-.4.8.8 1.4.2 2.4-2 .8-1.7 1.9-3.1 2.5-3.1 2.9 0 5.2-5.1 2.6-5.6-3.2-.7-5.2-1.9-4.8-2.9.2-.7-.2-2.2-1-3.3-1.1-1.7-1.2-2.5-.1-5.1 1-2.4 1.6-2.8 2.5-1.9.7.7 1.3.9 1.3.5.8-4.1 2.1-6.6 3.7-7.1 1.4-.5 1.8-1.9 1.9-6.8.3-9.1-2.8-11.7-7.9-6.6-2.3 2.3-4.8 2.3-4.8-.1 0-1-.7-2.1-1.5-2.5-.8-.3-1.5-1.2-1.5-2s-1.5-2.7-3.4-4.1c-2.3-1.7-3.6-3.7-4-6-.5-2.5-1.2-3.5-2.6-3.5-1.3 0-2.2-1.2-3-3.8-1.8-5.5-3.8-8.2-6.1-8.2-1.2 0-2.3-.8-2.6-1.8-.2-1-2.6-2.8-5.3-4.1-3.4-1.6-5.9-3.9-8.4-7.4-3.4-4.8-3.5-5.2-1.8-6.2 2.3-1.2 1.7-3.5-.9-3.5-1.9 0-6.8-2.6-8-4.3-.4-.5-1.7-1.4-2.9-2-2.3-1.2-3.4-2.7-4.4-6-.7-2.2-8.6-2.5-8.6-.3 0 .8-.4 1.7-.9 2.1-1.1.6-15.2-7.6-14.6-8.6.5-.8-5.4-6.9-6.7-6.9-.5 0-.8-.5-.6-1.2.5-1.5-4.6-6-6.4-5.6-.8.2-1.4-.9-1.6-2.7-.2-1.7-1.1-3.8-1.9-4.7-.8-.9-1.6-2.8-1.7-4.2-.1-1.8-1.2-3.1-3.9-4.6-3.1-1.8-3.5-2.4-2.7-4 1.4-2.6 1.3-3-1-3-2.6 0-2.6-2.6.1-3.3 1.7-.5 1.9-.9 1-2.5-.9-1.6-.7-2.1.8-2.5 2.1-.5 4.9-4.7 3.1-4.7-.6 0-.8-1-.4-2.5.9-3.5-.2-6.1-2-4.6-2.1 1.7-7.2-.6-9.4-4.2-1.8-3.2-1.8-3.2.5-6.9 2.2-3.2 2.3-3.9 1.1-6-.7-1.2-1.9-2.7-2.5-3.1-.7-.4-1.3-1.4-1.3-2.2 0-.8-.9-1.3-2-1.2-1.1.1-2 .5-2 1 0 .4-.4.5-1 .2-1.7-1.1-1.1-4.2 1-4.8 1.1-.3 2-1 2-1.6 0-1.4-4.7-1.4-5.6 0-.4.8-.9.7-1.6-.2-.6-1-.7-.7-.3.8 1 3.5-2.5 2.6-3.8-.9-.9-2.5-5.3-3.4-7.2-1.4-1.9 1.8-3.1 2-4 .6-.3-.6-1.3-1-2.1-1s-1.2.4-.9 1c1.1 1.8-2.2 1-4-1-1-1.1-2.5-2-3.4-2-.9 0-2.7-.7-3.9-1.6-1.3-.9-2.9-1.4-3.5-1.1-.7.3-2.1-.1-3.2-.9-2.2-1.6-5.9-1.9-5-.4 1.3 2.1-4.7.9-6.8-1.3-2.6-2.8-9.2-6.1-10.5-5.3-.6.3-1.5-.1-2.2-.9-.7-.8-2.2-1.5-3.3-1.5-1.9 0-1.9-.1-.4-1.8 1-1 1.7-2.4 1.7-3 0-.7.7-1.2 1.5-1.2.9 0 1.2-.6.9-1.5-.4-1 0-1.5 1.1-1.5.9 0 1.3-.4 1-1-.9-1.4 2.7-7.1 4.2-6.6 2.4.9 2.3-1.2-.3-5.8-1.7-3-2.5-5.7-2.3-8 .4-3.7-2.2-7.6-4.9-7.6-2.3 0-12.3-7-12-8.4.2-.7-.5-2.8-1.4-4.7-.9-1.9-2-4.7-2.3-6.2-.3-1.7-1.5-3.1-2.9-3.7-2.6-.9-4.4-6-3-8.2 1.2-1.9 1.4-4.1.5-5.3-.5-.5-1.1-2.2-1.3-3.7-.4-2.2-.1-2.8 1.6-3.1 2.1-.4 2.1-.4-.1-.6-1.9-.1-2-.4-1-2.6.7-1.4 1.5-2.5 2-2.5 1.4 0 .7-7.1-1-9.8l-1.7-2.7 3 2.6c1.6 1.5 5.6 3.8 8.9 5.3 3.3 1.5 7 3.9 8.2 5.3 2.1 2.6 2.2 2.6 4.8.9 2.2-1.4 3.2-1.6 5.1-.7 2.2 1 2.4.8 2.4-1.4 0-1.4.5-2.5 1.1-2.5.8 0 .7-.6-.2-1.7-1.2-1.5-1.2-1.6.4-1 1 .4 2.3.7 2.9.7.6 0 .4.8-.5 1.8-2.1 2.4-.7 5.2 1.7 3.3.9-.7 1.3-1.7 1-2.3-.3-.5 0-1.5.6-2.3 1-1.2.9-1.5-.3-1.5-2.7 0-3-3.3-.5-5.2l2.3-1.9-2.6.6c-1.8.5-3.8-.2-6.8-2.2-2.4-1.5-4.7-2.9-5.2-2.9-.5-.1-1.3-.2-1.9-.3-.5 0-1-1-1-2.1 0-1.2-1-2.5-2.5-3.2-1.8-.8-2.5-1.9-2.5-3.8 0-1.5-.9-3.5-2-4.5s-2-2.3-2-3c0-.7-.9-2-2-3-2.2-2-2.9-8.2-.7-6.8.7.4.5-.4-.4-1.8-1.2-1.8-1.9-5.7-2.2-13.8-.4-6.8-1.1-11.9-1.8-12.8-.7-.8-1.4-2.2-1.5-3-.2-.8-1.1-2.4-2.1-3.5-1.8-2-2.7-10.8-1.1-10.8.4 0 .8-.6.8-1.4 0-.8.5-1.6 1.2-1.8.6-.2 1.2-1.5 1.3-2.9.1-1.7.8-2.5 2.4-2.7 1.3-.2 2.6-1.2 2.8-2.3.3-1 1.4-1.9 2.5-1.9 1.8 0 1.9-.5 1.4-5.6-.4-3.7-.3-5.3.4-4.9.5.3 1 .1 1-.5 0-.7-.9-1.4-1.9-1.7-2.7-.7-4.7-5.8-3.1-7.8 1.2-1.4 1-3.5-.6-9.3-.6-2.1-.4-2.2 2.1-1.6 3.2.8 4.5-.6 4.5-4.9 0-1.5.7-3 1.5-3.3.8-.4 1.3-1 1-1.4-.8-1.4 1.6-5.9 3.4-6.2 1.3-.3 1.1-.9-1.1-3.1-3.3-3.3-3.3-3.4-1-4 1.6-.4 1.6-.5 0-.6-1 0-1.8-.9-1.8-1.9 0-1-.5-2.3-1.2-3-.9-.9-.9-1.2.1-1.2 1.1 0 1.1-.3 0-1.7-1.1-1.3-1.1-1.7-.1-2.1 1-.3 1-.7.1-1.9-1-1.1-1-1.6 0-2.3.8-.4 1-1.3.7-1.9-.5-.7.4-1.1 2.3-1.1 2.9 0 3.1-.2 3.1-3.8 0-2.1.6-4.6 1.4-5.7 2.3-3.4 2.5-8.3.4-10.2-1-.9-1.8-2.7-1.8-4 0-2.6-1.5-3.1-2.4-.8-.4 1.2-1 1.3-2.4.6-1.4-.8-2-.4-3.1 2-1.5 3.3-4.6 4.1-3.6.9.3-1.1.2-2-.4-2-.5 0-1.3.9-1.6 2-.3 1.1-1.4 2-2.3 2-1.5 0-1.5-.2-.2-1s1.3-1-.2-1c-.9 0-2.3.7-3.2 1.5-.8.8-1.8 1.5-2.2 1.5-.4 0-1.6.7-2.6 1.7-1.6 1.4-2.3 1.5-5.7.3-3.4-1.1-3.9-1.7-3.9-4.1.1-2.4.3-2.6 1.9-1.6 1.4.9 2.2.7 3.7-.6 2-1.9 6.7-2.3 7.7-.7.3.5 1.4.9 2.3.9 1.4-.1 1.4-.2-.1-.6-1.4-.4-1.7-1.1-1.3-2.8.3-1.3.2-2.7-.4-3-1.6-1-1.2-2.8.5-2.1 2.3.8 3-2 1.1-4.8-1.3-2.1-1.3-2.6-.1-3.6s1.2-1.6.4-2.6c-.6-.7-.9-1.9-.6-2.6.2-.7-.4-2.4-1.4-3.7-1.1-1.3-1.9-3-1.9-3.7 0-1.7-1.7-1.9-2.2-.2-.3.7-1.3.5-3.2-.7-1.6-1.1-4.2-1.8-5.8-1.7-2.2.2-3-.3-3.8-2.3-.5-1.4-2.1-3-3.4-3.5-1.3-.5-2.7-1.4-3.1-1.9-1-1.7-3.5 1.4-3.5 4.3 0 1.5-.6 2.6-1.4 2.6-.7 0-2.6 1-4.1 2.1-2.2 1.8-2.6 2.7-2.1 5.1.6 3.1-.3 4.6-4.3 6.7-1.2.7-2.9 2.8-3.7 4.8-1.1 2.5-1.9 3.3-3.1 2.9-.9-.4-3.3.4-5.4 1.9-2.1 1.4-4.8 2.5-5.9 2.5-1.1 0-2.9.5-3.9 1.2-1.5.9-2.2.8-3.6-.6-1.5-1.4-2.8-1.6-6.9-1.1-2.8.4-5.8 1.3-6.6 2-.8.8-2.8 1.7-4.5 2.1-1.6.3-4.5 1.6-6.4 2.7-1.9 1.2-4.6 2-6.1 1.9-1.7-.1-2.8.5-3.5 2-.9 1.9-1.9 2.7-6.5 4.8-.8.4-1.8 2.6-2.1 4.9-.6 4.4-2 6.1-5.1 6.1-1 0-1.8.5-1.8 1.1 0 .6-.7.9-1.5.6-.8-.4-1.7-.2-2 .3-1 1.7-3.3 1.1-4-1-.8-2.6-2.2-2.6-3 0-.6 1.8-1.2 1.9-6 1.4-5-.6-5.5-.5-8.2 2.3-3.2 3.5-7.9 5.3-11.6 4.6-2.1-.4-2.9 0-3.9 2.2-1.1 2.4-1.6 2.7-4.9 2.2-3.7-.5-3.7-.5-2.9 2.5.5 1.6.6 3.6.3 4.4-.7 1.9-3.3 1.8-3.3-.1 0-.8-.4-1.5-1-1.5-.5 0-1-.9-1-2s.7-2 1.6-2c3.3 0 .3-1.6-3.5-1.8-2.9-.2-4.1.1-4.1 1.1 0 1.5-6.1 4.7-9 4.7-1.1 0-2 .6-2 1.4 0 .8-.3 2.2-.6 3.1-.4.9-.3 1.5.2 1.4 1.8-.3 3.4.1 3.2.8-.3 1.6 1.5 4.3 2.7 4.3.8 0 1.7.4 2 1 .3.5 0 .7-.8.4-.8-.3-1.8-.1-2.1.4-.3.5.3 1.2 1.4 1.5 2.3.6 2.7 2.7.5 2.7-.8 0-1.5.5-1.5 1.1 0 .6.8.9 1.8.7 1.4-.4 1.8 0 1.8 1.6-.1 1.1-.4 2.5-.8 3.1-.3.5-.4 3.4-.3 6.2.2 2.9 0 5.3-.5 5.3-1.2 0-1.9-3.9-.9-4.6.5-.3 0-2.1-1.2-4-1.8-3-1.9-3.7-.7-5.2 1.1-1.5 1.1-1.6-.3-.4-1.2.9-2.4 1-4 .3-1.3-.5-3.7-1.2-5.2-1.6-1.9-.4-2.7-1.1-2.4-1.9.3-.8.1-1.8-.5-2.4-.8-.8-.2-1.8 1.8-3.6 1.6-1.4 3.5-2.6 4.2-2.6 2.2 0 1.3-1.8-1.3-2.4-2-.5-2.5-1.3-2.5-3.9 0-3.7-3.4-7.7-6.6-7.7-1.1 0-4.3-2.9-7.9-7.2-3.3-3.9-7.1-8.2-8.4-9.5-2.7-2.6-3.8-9.1-2.2-12.1.7-1.3.7-2.2-.1-3-.9-.9-.7-1.7.6-3.1 1.4-1.5 1.5-2.4.7-4-.6-1.1-1.1-2.7-1.1-3.6 0-1.6-10-12.5-11.5-12.5-1.4 0-7.5-5.3-7.5-6.6 0-.8-.7-1.4-1.5-1.4-.9 0-2.7-.7-4-1.6-2.4-1.6-2.5-1.5-2.5.5 0 2.6-.8 2.6-4 .1-1.4-1.1-3.5-2-4.7-2-2.1 0-3.6-1.4-3.9-3.5 0-.6-.2-1.7-.2-2.5-.3-2.6-5.3-4.7-9.9-4.2-3.7.4-4.3.7-4.3 2.8 0 1.3-.4 2.4-.9 2.4-2 0-4.1-1.3-4.1-2.5 0-.7-.6-1.5-1.4-1.8-.9-.4-1.2-1.4-.9-2.6.7-2.7.1-2.7-1.5-.1zm247.8 48.2c2.2.1 3.2.8 4.1 3.1 1.1 2.6 1 3.1-.6 4.3-2.5 1.8-3.5 1.8-3.5-.2 0-1.3-.7-1.5-3.2-1.1-3.3.5-3.3.5-3.6-4-.3-4.2-.2-4.4 1.8-3.3 1.2.6 3.4 1.2 5 1.2zm-370.7 40.9c-2.3.8-2.7.4-1.9-1.7.5-1.4.9-1.4 2.2-.3 1.4 1.2 1.4 1.4-.3 2zm303.3 108c.3.6.3 1.4-.2 1.8-.5.3-.9 1.5-1 2.7 0 1.6.5 2 2.3 1.6 1.3-.2 2.3-.8 2.3-1.2 0-.4 1.1-.8 2.5-.8 2.4 0 2.5.2 1 1.8-1.7 1.9-2 5-.5 5 .5 0 .7.7.3 1.6-.3.9-.1 1.9.5 2.3.7.4.8 1.2.2 2-.6 1.1-1.2.7-2.4-1.6-.8-1.7-1.3-3.3-1-3.5.3-.3-.2-.8-1.1-1.1-.8-.4-1.5-.2-1.5.3 0 1.9-3-.3-5.1-3.7-1.7-2.7-1.9-3.7-.9-4.3.7-.5 1.1-1.9.8-3.4-.4-2.2-.3-2.4 1.3-1.6 1 .6 2.1 1.5 2.5 2.1zm68.4 235.3c0 1.8-.6 4-1.3 5.1-1.3 1.7-1.5 1.6-2.5-1.5-1.7-4.6-1.5-6.8.6-7.3 2.6-.6 3.2.1 3.2 3.7zm61.5 24.6c.3.5.1 1-.4 1-.6 0-1.1-.5-1.1-1 0-.6.2-1 .4-1 .3 0 .8.4 1.1 1zm-37.5 4c0 1.2-2.2.9-3.2-.5-1.4-1.9-.8-2.6 1.2-1.5 1.1.6 2 1.5 2 2zm13-2c0 1.3-1.1 1.3-3 0-1.2-.8-1.1-1 .8-1 1.2 0 2.2.4 2.2 1zm-9.7 2.5c.4.8.2 1.7-.3 2-.6.4-1-.3-1-1.4 0-2.5.6-2.7 1.3-.6zm42.7 22.5c0 .5-.7 1-1.5 1s-1.5-.5-1.5-1c0-.6.7-1 1.5-1s1.5.4 1.5 1zM483.585 57.74c.7 3.9 2.3 7.4 2.4 5.2 0-.7.4-1.1.9-.7.5.3 1.2.1 1.6-.5.3-.5 0-1-.8-1-.7 0-2.1-1.5-3-3.3l-1.7-3.2.6 3.5z"/><path d="M104.785 112.44c.7.3 1.6.2 1.9-.1.4-.3-.2-.6-1.3-.5-1.1 0-1.4.3-.6.6zM312.985 122.14c0 .2.7.9 1.5 1.6.9.7 1.5.8 1.5.2 0-.5-.7-1.2-1.5-1.6-.8-.3-1.5-.4-1.5-.2zM48.585 153.04c.4 1-.6 1.6-3.5 2.1-2.2.3-4.7.3-5.7-.1-1.3-.5-1.5-.3-.9.8.7 1.1.5 1.1-1-.1-1.7-1.4-1.8-1.3-1.2 3 .3 2.5.4 3.9.1 3.2-.8-1.8-4.2-1.5-7.2.7-2.7 1.8-6.6 2.9-13.2 3.5-1.9.1-4.2.6-5.2 1-1.2.5-1.8.1-2.3-1.6-.4-1.3-1.4-3.1-2.3-4.1-1.4-1.6-1.6-1.6-3 .4-1.1 1.7-1.6 1.8-2.3.8-.6-1-.9-1.1-.9-.2 0 .7.9 1.8 2 2.5 1.2.8 2 2.4 2 3.9 0 2.6 2.5 5.8 3.6 4.6.3-.3 2.2-.1 4.2.5 3 .8 3.8.7 4.9-.7 1.1-1.7 1.4-1.7 3.7-.1 3.2 2.1 6.5 2.1 8.1-.1 1.2-1.6 4-.9 3 .8-.4.5.4.9 1.5.9 1.7 0 2.1.4 1.5 1.7-.5 1.5-.4 1.6.6.5.7-.6 2.1-1.2 3.1-1.2s3.5-1.6 5.5-3.6c2.1-2 5-4.1 6.5-4.6 1.6-.5 2.5-1.4 2.2-2-.4-.7.5-.8 2.6-.3l3.2.7-1.7-3.1c-.9-1.8-1.3-3.6-1-4.1.3-.5.1-1.1-.5-1.5-.6-.4-.7-1.1-.4-1.7.4-.6.2-.8-.3-.5-.6.4-2.2-.3-3.7-1.4-1.7-1.3-2.4-1.5-2-.6zm3.2 7.2c-.3.3-.9-.2-1.2-1.2-.6-1.4-.5-1.5.5-.6.7.7 1 1.5.7 1.8zM30.385 178.44c.3.6 0 1.3-.6 1.6-.7.2-1 .8-.5 1.2.4.5 1.3.3 1.9-.3.9-.9.9-1.5-.1-2.5-.9-.8-1.2-.8-.7 0zM324.485 230.74c-.3.5-.2 1 .4 1 .5 0 1.3-.5 1.6-1 .3-.6.2-1-.4-1-.5 0-1.3.4-1.6 1zM524.085 283.34c0 1.1.3 1.4.6.6.3-.7.2-1.6-.1-1.9-.3-.4-.6.2-.5 1.3zM234.985 284.64c0 .5.5 1.3 1 1.6.6.3 1 .2 1-.4 0-.5-.4-1.3-1-1.6-.5-.3-1-.2-1 .4zM120.985 296.24c0 .8.9 1.5 2 1.5s2-.7 2-1.5-.9-1.5-2-1.5-2 .7-2 1.5zM514.985 298.74c0 .5.5 1 1.1 1 .5 0 .7-.5.4-1-.3-.6-.8-1-1.1-1-.2 0-.4.4-.4 1zM599.185 433.94c.3.7 1.3 1.5 2.4 1.7 1.6.3 1.7.1.5-1.3-1.6-1.9-3.4-2.1-2.9-.4zM599.685 440.04c-1.3 2-1.5 3.2-.7 5.2.7 1.7.7 2.4 0 2-1.4-.9-1.2.1.6 3.7 1.1 2.2 1.3 3.3.5 3.8-.7.4-.2 1.1 1.4 1.8 1.4.6 2.5 1.9 2.5 2.8 0 1.3.6 1.5 3.3 1 1.7-.4 3.4-1.1 3.5-1.6.2-.6 1.8-.9 3.5-.9 1.9.1 2.4.3 1.4.6-1.4.4-1.7 1.1-1.3 2.9.5 1.7.2 2.4-.8 2.4-1.8 0-3.1 5.1-1.6 6 .7.4 1.1 1 1.1 1.4-.3 2 0 2.6.9 2.1.6-.4.8-1.1.5-1.6-.4-.5.3-.5 1.7 0 1.3.5 2.2 1.4 2.1 2-.2.6.4 1.1 1.2 1.1.9 0 1.6 1 1.6 2.5.2 3.7.2 3.7 2.7 7.2 1.2 1.7 2.2 3.6 2.2 4.2 0 2.4 2.9.9 3.8-1.9.9-2.6.8-3.1-.9-4-1-.6-1.9-1.6-1.9-2.3-.1-.7-1.4-2.8-3-4.7-3-3.5-4-8.3-1.9-9.5.6-.4 1.4-1.7 1.9-2.9.7-2 .8-2 2 .6 1.7 3.6 4.5 3.8 3.6.3-.5-2-.3-2.5 1.3-2.5 1.1 0 2.3.5 2.6 1.1 1.1 1.6 4.8-2.9 4.2-5.1-.3-1.1 0-2.1.6-2.3.6-.2.1-1.3-1.2-2.6-1.4-1.4-2.9-2-4.2-1.6-1 .4-1.9.3-1.9-.2 0-1.2-7.4-4.5-10.7-4.7-3.9-.4-5.3-1.3-4.6-3.1.6-1.8-.8-2-2.5-.3-.9.9-1.5.9-2.4 0-.7-.7-2.4-1.2-3.9-1.2-1.6 0-3.2-.8-4.1-2.1l-1.4-2.2-1.7 2.6zm4.3 3.9c0 1.1-2.8 1-3.5-.1-.3-.6.4-.9 1.5-.8 1.1.1 2 .5 2 .9zM315.385 441.24c-.4 1.7-1.6 2.8-3.8 3.3-3.3.9-4.7 3.9-2.4 5.3 1.9 1.3 2.5 1.1 5-1.4 1.4-1.3 2.4-3.6 2.6-6 .3-4.2-.5-4.9-1.4-1.2zM307.985 452.34c0 .8.5 1.2 1 .9.6-.3 1-1 1-1.6 0-.5-.4-.9-1-.9-.5 0-1 .7-1 1.6zM640.985 459.74c0 .5.5 1.2 1.1 1.5.6.4.8 1.3.5 2-.3.8.4 1.3 1.7 1.3 3.3.1 6.1.7 7.5 1.6.7.4 1.2.1 1.2-.8 0-1.1.9-1.6 2.9-1.6 3.7 0 4.9-1.5 1.5-1.8-1.4-.1-3.5-.7-4.7-1.4-2.7-1.5-11.7-2.1-11.7-.8zM423.485 499.64c-.3.5-.2 1.2.3 1.5.5.3.9-.1.9-.9 0-1.7-.3-1.9-1.2-.6zM425.085 506.04c-.7 1-1.9 1.7-2.6 1.7-.8 0-1.4 2.4-1.7 7.1-.3 3.9-1.1 7.6-1.7 8.2-1.5 1.5-1.3 5.6.4 8.7.9 1.6 1 2.9.4 3.7-.7.8-.3 1.6 1.3 2.7 1.9 1.4 2.1 1.8.8 2.6-1.1.7-.7 1.2 2.3 2.5 3.8 1.6 4.7 3 2.5 3.8-.7.2 0 .4 1.7.4 4 .1 5.6-2.2 3.9-5.5-1.1-2.1-1.1-2.7.1-3.6.7-.6 1.5-2.2 1.7-3.6.2-1.9-.2-2.6-1.7-2.8-1.2-.2-2.6-1.2-3.3-2.2-1-1.7-1-2 .5-2.1 1 0 1.3-.3.6-.5-1.8-.8-3.9-7.7-2.4-8.2.6-.2 1.1-1 1.1-1.8s.5-1.4 1.2-1.4c.6 0 .3-.6-.7-1.4-1.1-.7-2.1-3.1-2.4-5.6-.5-3.8-.8-4.1-2-2.7zm4.7 37.5c.6 1.8-1.5 1.4-2.2-.4-.4-1-.1-1.4.6-1.2.6.2 1.4 1 1.6 1.6zM473.985 538.74c0 .5.7 1 1.5 1s1.5-.5 1.5-1c0-.6-.7-1-1.5-1s-1.5.4-1.5 1zM497.985 547.84c-1.2 2.1-6.4 2.7-7.6.8-.5-.8-1-.7-1.6.4-.4.9-2.1 2.5-3.6 3.6l-2.8 1.9-4.9-2.4c-5.2-2.7-7.1-2-6 2.1.2 1.1.5 2.8.5 3.7 0 1 .7 1.8 1.5 1.8s1.5.7 1.5 1.5 1.5 3 3.4 5c2.9 3 4.1 3.5 7.9 3.5h4.4l.2-4.7c0-2.5.6-5.2 1.2-5.9.6-.7.7-1.8.3-2.5-.5-.9 0-1 1.8-.6 1.8.5 2.8.2 3.2-.8.3-.8 1.5-1.5 2.6-1.5 1.3 0 1.9-.4 1.4-1.1-.4-.8.3-.9 2.4-.4 1.8.3 3.3.2 3.7-.4.3-.7-.3-1.1-1.5-1.1-1.1 0-3.2-1.1-4.5-2.4-2.4-2.4-2.5-2.4-3.5-.5zM579.485 569.44c0 1.6.6 3.2 1.3 3.6.7.5 1 1.2.7 1.6-.9 1.5 1.9 2.8 7.2 3.3l5.1.5-2-2.7c-1.1-1.5-3.1-3.4-4.5-4.1-1.3-.7-2.9-2.1-3.4-3.1-1.6-2.9-4.5-2.3-4.4.9zM597.985 584.14c0 .2.7.9 1.5 1.6.9.7 1.5.8 1.5.2 0-.5-.7-1.2-1.5-1.6-.8-.3-1.5-.4-1.5-.2zM698.985 585.74c0 .5.9 1.4 2.1 2 1.9 1.1 2 1 .9-.9-1.1-2.2-3-2.9-3-1.1zM601.985 587.94c0 1 .5 1.8 1 1.8.6 0 1 .6 1 1.4 0 .7.7 1.9 1.5 2.6 1.3 1.1 1.5.8 1.5-1.4 0-1.6-.6-2.6-1.5-2.6-.7 0-1.9-.8-2.4-1.8-1-1.6-1-1.6-1.1 0zM702.985 591.84c0 1.1 1 2.9 2.3 4 3.5 2.9 4.4 2.2 1.3-1-1.6-1.6-2.5-3.4-2.2-4 .4-.6.2-1.1-.3-1.1-.6 0-1.1.9-1.1 2.1z"/><path d="M711.485 592.74c-.3.5-.3 2.7 0 4.9.3 2.3.1 4.2-.5 4.6-.5.3-1-.1-1-1 0-1.4-.3-1.4-2.5.2-1.5 1.1-2.2 2.4-1.9 3.5.5 1.8-.8 2.3-5 1.8-1.6-.1-1.7.3-1.2 2.6.6 2.4.5 2.6-.8 1.5-1-.9-1.6-1-1.6-.2 0 .6 1.4 1.7 3 2.6 3.3 1.7 4 3.5 1.4 3.5-1.4 0-1.5.6-.9 3.2.5 1.8.7 5.3.6 7.7-.1 2.4.4 5 1.1 5.9 1.1 1.2 1.1 1.6 0 2-1 .3-1 .6.1 1.6.8.6 1.8 2.1 2.2 3.3.6 2.1.3 2.3-2.7 2.3-2.2 0-3.7-.7-4.6-2-1.3-2.1-4.2-2.7-4.2-.9 0 .8-.4.8-1.3.1-1-.8-2.1-.7-4.2.4-1.9 1-3.2 1.1-3.9.4-.7-.7-.5-1 .7-1 1 0 1.7-.8 1.7-1.9 0-1.1.5-2.3 1-2.6 1.6-1 1.2-2.2-2-5.7-3.5-3.8-3.8-5.4-1-6.1 1.5-.4 2-1.4 2-3.8v-3.2l-2.2 1.9c-1.2 1-1.8 1.3-1.4.6.5-.8 0-1.2-1.3-1.2-2.2 0-3.8-1.9-2.4-2.9.5-.3 1.2-1.4 1.6-2.4.5-1.4.2-1.6-1.8-1.1-1.4.3-2.5.2-2.5-.4 0-.5-.7-1.3-1.6-1.6-1.3-.5-1.4-.1-.9 2.3.4 1.7.2 3.2-.5 3.6-.6.4-.8 1.6-.4 2.7.5 1.6.3 2-.8 1.6-.9-.4-2 .7-3.1 3.3-.9 2.1-2.2 3.9-2.8 3.9-.6 0-.1 1.3 1 2.9 2.6 3.7 2.6 4.4 0 3.6-1.6-.5-2-.3-1.7.6.3.9 1.6 1.3 3.5 1.1 2-.2 3.2.2 3.6 1.2.4.9 1.3 1.6 2.2 1.6.8 0 1.6.4 1.6 1 .1.5.2 1.5.3 2.2 0 .6.7 1.3 1.4 1.6.7.2 1-.2.6-1.1-.3-.9.3-1.6 1.5-2 1.2-.3 2.1-.1 2.1.4s-.5.9-1.2.9c-.9 0-.9.3 0 1.2 1.6 1.6 1.5 4.1-.1 3.5-2.4-.9-4 1-3.9 4.5.1 1.8-.7 5-1.6 7.1-1.5 3.3-2 3.7-4.4 3.3-2.7-.5-2.8-.4-2.8 3.9 0 2.4-.5 4.7-1 5-1.3.8-7.6-4.3-8.5-6.7-.4-1-2.1-2-4.3-2.3-6.3-1.1-9.4-2.7-10.4-5.5-.5-1.5-2-3.2-3.3-3.8-1.9-.9-2.4-.8-2.8.9-.5 2-2.7 2.7-2.7.8 0-.6-.7-1.7-1.5-2.6-.9-.8-1.3-2.3-1-3.3.3-.9-.1-2.3-1-3-1.2-1-1.5-1-1.5.1 0 .7-1 2.3-2.2 3.6-1.2 1.3-1.6 2.4-1 2.4.7.1 1.7.2 2.2.3 1.4.1 3 2.8 2.4 3.8-.3.4.3.8 1.4.8 1.7 0 3.2 2 4.6 6.2.3 1 1.2 1.8 2 1.8 2 0 4.6 4.4 4 6.8-.3 1.1.2 3.5 1.2 5.3 1.9 3.7 2.8 11.9 1.3 11.9-1.6 0 2 5.8 4 6.5 1.5.4 2.2 1.8 2.6 5.3 1 7.6 1.5 9.2 2.7 8.9.6-.1 1.4.9 1.8 2.3.3 1.4 1.8 3.1 3.4 3.8 2.6 1.3 2.8 1.8 2.4 6-.3 4.1 0 4.9 2.7 7.3 1.6 1.5 2.7 3.1 2.3 3.5-1.3 1.2-5.8-1.4-5.8-3.5 0-1.9-1.7-3.1-3.6-2.4-.6.2-.8 1.7-.6 3.4.4 2.6.8 3 2.7 2.6 3-.5 5.8 3.9 3.5 5.3-.9.5-1.9.5-2.7-.1-.9-.8-1.6.3-2.8 4.6-1.8 6.1-1.5 8.8 1 7.9.8-.3 1.5-.1 1.5.4 0 .6.9 1.4 2 1.7 1.1.4 2.7 2.2 3.5 4.1.8 1.9 2 3.4 2.8 3.4.7 0 2.4 1.1 3.7 2.5 2.6 2.8 8 5.8 8.8 5 .3-.3 0-.5-.6-.5-1.5 0-1.6-2.7-.1-3.5.5-.4 2.3-.2 3.8.4 3.4 1.5 9.6-.3 7.1-2-1.1-.8-1.2-1.2-.3-1.5.7-.3.9-1.2.6-2.1-.4-1.1-.2-1.4.8-1.1.8.3 1.4 1.1 1.4 1.9 0 .8 1.1 2.1 2.5 2.9 1.4.8 4.1 2.6 5.9 4 3 2.3 3.3 2.9 2.8 6.7-.3 2.6 0 4.4.7 4.7.6.2.4.5-.5.5-2.6.1-3 2.8-.8 5.3 1.1 1.3 1.8 1.8 1.5 1.2-.3-.7.8-1.7 2.4-2.4 2.9-1.2 3-1.4 1.5-3.6-1-1.6-1.1-2.4-.4-2.4.8 0 .8-.4.2-1.3-1.3-1.6-.9-8.2.5-10 .9-1 .7-2.2-.8-5.2-1.1-2.2-2-4.5-2-5.2 0-1.1-.5-1.1-2.1-.2-1.8.9-2.5.7-4.8-1.5-2-2-2.2-2.6-.9-2.6 1 0 1.9-1.2 2.4-3.2.3-1.8 1.5-3.9 2.5-4.6 1.1-.7 1.9-1.9 1.9-2.7 0-1.5-3.5-3-5-2-1 .6-1.7-1.7-2.4-8.3-.2-2.4-1-5-1.7-5.8-1-1.3-1.4-1.3-2.8 0-2 1.8-5.1.4-5.1-2.4 0-4.7 8.6-3 16.9 3.2 2.9 2.2 3.7 1.7 2.1-1.1-.9-1.7-.8-2.1.5-2.1.8 0 1.5-.8 1.5-1.8.1-1 1-.2 2.5 2.2 2.7 4.5 4.1 5.6 7.2 5.6 3 0 6.2 5.6 5.2 9.3-1 3.9 2.7 8.3 6 7.2 1.9-.6 2.2-1.2 1.7-3.5-.3-2-.1-3 1-3.4.9-.3 1.4-1.2 1.1-1.9-.2-.6.2-1.9 1-2.8 1.2-1.4.9-1.9-2.1-4.2-2.5-2-3.6-3.7-4.1-6.6-.5-3.3-1.2-4.1-3.8-5-3.9-1.4-6.7-3.9-6.7-6.1 0-.9-.9-2.5-2.1-3.6-1.6-1.4-1.9-2.6-1.4-5.2.5-2.5.2-3.9-1.2-5.4-1.4-1.6-1.8-3.8-1.8-11.6-.1-11.4-1.4-16.6-4.9-19.9-1.4-1.3-2.6-3-2.6-3.7 0-.8-1-2-2.2-2.9-2.2-1.5-2.2-1.5 1.4-.7 2.9.6 3.5.5 3.1-.6-.3-.8.1-1.4 1.1-1.4 2.1 0 3.6-3.1 3.6-7.4 0-1.9.5-3.8 1-4.1 1.4-.9 1.2-4.7-.5-6.9-1.4-1.9-1.5-1.8-2.4.5-.5 1.3-1 1.9-1 1.3-.1-1.9 2.7-8 4.2-9.2.8-.7 1.7-.9 2.1-.5.4.4.4-.1 0-1.2-.6-1.4-.4-1.7.9-1.2 1.2.4 1.5.2 1.1-1.1-1.3-3.8-2.7-6.1-4.3-6.5-1.4-.3-1.6.2-1.3 2.4.4 2.4.1 2.9-1.7 2.9-1.3 0-2.6-1-3.3-2.6-1-2.2-.8-3.2 1.2-7.1 1.9-3.5 2.6-4.2 3.5-3.1.6.7 1.9 1.8 3 2.4 1.1.6 2 2 2.1 3 .2 3.6.4 3.8 1.8 1.8 1.1-1.5 1.2-2.2.3-3.3-1-1.2-.9-1.4.5-.9 1.3.6 1.8-.2 2.3-4.3.5-3.2 1.2-4.9 2.1-4.9 2.2 0 1.6-3.7-1.1-6.6-1.9-2-2.5-2.3-2.5-1 0 .9-.8 1.6-2 1.6-1.1 0-2-.4-2-.9 0-1.4-4.8-4.2-5.5-3.1zm-3.8 28.7c.5 1.3-1.2 3.3-2.7 3.3-1.6 0-2.8-1.9-2.4-3.7.6-2.4 4.2-2.1 5.1.4zm.3 17.4c0 .6-.4.7-1 .4-.5-.3-1-1.1-1-1.6 0-.6.5-.7 1-.4.6.3 1 1.1 1 1.6zm23.6 95.4c.8 2.1-.6 4.1-1.7 2.4-1.2-1.9-1.1-3.9.1-3.9.6 0 1.3.7 1.6 1.5zM611.985 600.44c0 .6.5 1.5 1.1 1.9.8.4.8.9 0 1.7-1.9 1.9-1.2 3.2 3.5 6 3.7 2.2 4.5 3.2 4.1 4.8-.3 1.2.4 3.9 1.5 6 1.6 3.2 2.3 3.7 3.4 2.8 1.1-.9 1.4-.8 1.4.7.1 1.8.1 1.8 1.1.1.5-.9 1.9-1.7 2.9-1.7 1.1 0 2-.6 2-1.4 0-1.6-13.3-15.6-14.8-15.6-.6 0-2.2-1.5-3.6-3.3-1.4-1.7-2.6-2.7-2.6-2zM681.085 603.34c0 1.1.3 1.4.6.6.3-.7.2-1.6-.1-1.9-.3-.4-.6.2-.5 1.3z"/><path d="M691.885 611.84c-1 .6-.7.9 1.4.9 2.9 0 3.5-.5 1.4-1.3-.8-.3-2-.1-2.8.4zM688.985 632.24c.7.9 1.5 1.3 1.7 1.1.7-.7-.7-2.6-1.9-2.6-.6 0-.6.6.2 1.5zM624.985 634.64c0 .6.4 1.3 1 1.6.6.3.7-.1.4-.9-.7-1.8-1.4-2.1-1.4-.7zM722.985 710.54c0 .5.7.9 1.5.9s1.2-.4.9-.9c-.3-.4-.9-.8-1.5-.8-.5 0-.9.4-.9.8zM718.185 735.74c-1.1 1.9-1.4 1.9-4.1.5l-2.9-1.4 1 4.2c.8 3.8.7 4.4-1.4 6.2-1.7 1.5-2.2 2.9-2 5.2.3 2.9.6 3.2 3.2 2.8 6.9-.8 9-3.5 9-11.2 0-3.3.4-4.3 1.7-4.3 1.4 0 1.4-.2-.2-2-2.3-2.5-2.7-2.5-4.3 0zM665.985 759.14c0 .8-.9 2.1-2.1 2.9-1.2.9-1.6 1.7-1 2.1 1.1.7 5.1-2.7 5.1-4.3 0-.6-.4-1.3-1-1.6-.5-.3-1 .1-1 .9zM722.985 780.74c0 .5-.9 1-2 1-1.4 0-2.1.9-2.5 3.4-.7 3.3-3.8 5.5-5.1 3.5-.3-.5-1.6-.9-2.9-.9-1.3 0-2.7-.5-3-1-1.4-2.2-2.3.2-1.2 3.3 1.6 4.4 2.8 5 5 2.6 1.6-1.7 2.6-1.9 5.6-1.3 5.4 1.2 13.4.5 15.1-1.2 1.3-1.3 1.2-1.7-.8-3.2-1.4-1.1-2.1-2.4-1.7-3.4.7-1.8.2-2.2-3.7-3.2-1.7-.4-2.8-.2-2.8.4zM735.385 790.74c-1 .4-2.2.6-2.6.3-1-.5-1 0-.2 2.1.6 1.7 5 2.1 7.1.8 2-1.2-1.9-4-4.3-3.2z"/></g></svg>