<?xml version="1.0" standalone="no"?>
<!DOCTYPE svg PUBLIC "-//W3C//DTD SVG 20010904//EN"
 "http://www.w3.org/TR/2001/REC-SVG-20010904/DTD/svg10.dtd">
<svg version="1.0" xmlns="http://www.w3.org/2000/svg"
 width="821.970925pt" height="900.000000pt" viewBox="0 0 821.970925 900.000000"
 preserveAspectRatio="xMidYMid meet">
<metadata>
Created by potrace 1.15, written by Peter Selinger 2001-2017
</metadata>
<g transform="translate(-565.595722,1397.000000) scale(0.100000,-0.100000)"
fill="#222222" stroke="none">
<path d="M6757 13963 c-10 -9 -9 -53 1 -53 9 0 33 25 46 48 5 8 0 12 -17 12
-13 0 -27 -3 -30 -7z"/>
<path d="M6717 13873 c-8 -12 3 -53 13 -53 4 0 10 6 13 14 7 17 -17 53 -26 39z"/>
<path d="M6480 13837 c0 -10 -6 -17 -12 -17 -10 0 -10 -3 0 -9 12 -7 12 -11 0
-21 -12 -11 -10 -17 10 -37 13 -13 22 -30 19 -37 -3 -8 6 -19 20 -27 22 -12
27 -11 37 3 11 15 15 13 45 -13 39 -33 48 -36 53 -12 3 16 4 16 20 0 15 -15
18 -16 32 -1 18 18 21 40 6 49 -7 4 -8 24 -4 51 l6 44 -32 0 c-17 0 -38 -7
-46 -15 -9 -8 -26 -15 -39 -15 -12 0 -25 7 -29 15 -3 8 -12 15 -21 15 -8 0
-15 5 -15 12 0 6 -3 8 -7 5 -3 -4 -15 0 -25 10 -17 15 -18 15 -18 0z"/>
<path d="M7843 13724 c-3 -8 -11 -14 -19 -14 -8 0 -14 -4 -14 -10 0 -5 -7 -10
-15 -10 -8 0 -15 5 -15 10 0 16 -47 12 -54 -5 -3 -8 -17 -15 -31 -15 -17 0
-24 -4 -19 -12 5 -8 0 -9 -14 -6 -13 4 -20 2 -16 -4 3 -5 -3 -12 -15 -15 -12
-3 -21 -10 -21 -15 0 -6 -7 -8 -15 -4 -8 3 -15 2 -15 -3 0 -13 -77 -8 -90 5
-13 13 -70 -35 -70 -60 0 -9 -7 -16 -15 -16 -8 0 -24 -11 -37 -24 -13 -13 -36
-26 -51 -30 -17 -4 -35 -19 -45 -36 -9 -17 -22 -30 -28 -30 -7 0 -15 -7 -18
-16 -6 -15 -9 -15 -29 3 -12 11 -37 25 -55 31 l-34 12 7 -39 c5 -33 4 -40 -13
-45 -31 -10 -56 -43 -45 -58 5 -7 13 -21 16 -31 6 -15 3 -17 -14 -12 -22 7
-41 -10 -59 -53 -9 -20 -16 -22 -75 -20 -51 1 -68 6 -75 19 -7 12 -5 19 7 23
14 6 14 8 -1 24 -9 10 -16 22 -16 26 0 14 -93 96 -109 96 -9 0 -29 7 -44 15
l-29 15 5 -48 c9 -74 11 -84 36 -133 19 -38 21 -50 11 -68 l-11 -22 -25 26
c-24 26 -26 26 -39 9 -13 -18 -15 -18 -55 5 -23 13 -60 24 -81 25 -29 0 -39 5
-43 20 -3 11 0 23 6 27 6 4 8 11 4 17 -8 14 -106 64 -106 55 0 -5 -7 1 -16 12
-8 11 -18 20 -22 20 -4 1 -17 6 -28 13 -12 6 -23 10 -25 8 -2 -2 -16 -6 -31
-10 -21 -5 -28 -3 -28 8 0 15 -46 52 -71 58 -10 2 -14 -6 -14 -27 0 -27 -3
-30 -27 -27 -21 3 -27 -1 -30 -20 -2 -15 -11 -24 -25 -26 -13 -2 -23 -10 -23
-18 0 -19 -17 -18 -48 5 -43 29 -76 33 -90 11 -6 -10 -27 -22 -47 -26 -24 -4
-35 -12 -35 -24 0 -10 -14 -24 -34 -34 -20 -9 -36 -26 -40 -40 -3 -13 -15 -26
-26 -29 -29 -7 -26 -37 4 -37 29 0 40 -24 21 -44 -8 -8 -15 -20 -15 -27 0 -7
-7 -20 -16 -30 -8 -9 -16 -29 -18 -44 -2 -15 -9 -31 -17 -36 -9 -6 3 -9 36 -7
43 3 52 7 63 31 10 20 20 27 41 27 16 0 31 7 35 15 3 8 14 15 23 15 10 0 29 7
42 17 19 13 28 14 43 4 10 -6 24 -9 29 -5 16 10 60 -18 70 -43 9 -24 52 -33
64 -13 4 7 13 7 25 0 25 -13 80 -20 80 -10 0 5 9 6 20 3 11 -3 18 -9 15 -13
-2 -4 1 -19 8 -33 8 -18 22 -27 47 -30 70 -9 160 -55 160 -82 0 -15 34 -30 49
-21 4 3 16 -15 26 -40 9 -24 28 -58 41 -74 14 -16 20 -31 15 -35 -12 -7 7 -55
21 -55 13 0 9 -28 -4 -33 -7 -3 2 -11 20 -18 17 -8 32 -19 32 -26 0 -8 14 -13
40 -13 29 0 40 4 40 15 0 17 9 19 29 6 11 -7 9 -10 -8 -16 -28 -9 -29 -45 -1
-38 15 4 20 0 20 -16 0 -11 -5 -21 -11 -21 -6 0 -8 -8 -4 -19 4 -12 0 -21 -12
-25 -13 -5 -3 -13 38 -34 53 -26 56 -31 61 -87 1 -11 8 -29 15 -40 17 -25 17
-64 1 -69 -7 -3 -26 -7 -42 -11 -23 -5 -27 -10 -22 -27 3 -12 0 -28 -5 -35 -8
-9 -6 -21 4 -43 13 -25 13 -30 1 -30 -8 0 -14 -7 -14 -16 0 -15 -2 -15 -25 0
-28 18 -45 21 -45 6 0 -5 7 -7 15 -4 9 4 15 0 15 -8 0 -8 13 -35 29 -60 17
-26 25 -48 20 -50 -5 -2 -12 -19 -15 -38 -4 -28 -1 -37 15 -47 17 -11 19 -10
15 2 -11 29 14 44 73 42 42 -1 58 3 68 16 14 19 45 23 45 5 0 -6 11 -2 23 11
20 18 28 20 51 11 32 -12 30 -35 -3 -34 -15 0 -18 -3 -11 -10 14 -14 13 -22
-6 -40 -12 -12 -12 -16 -2 -17 61 -7 88 -19 88 -38 0 -13 2 -13 9 -2 5 8 16
11 30 6 13 -4 21 -2 21 5 0 8 6 8 21 -1 12 -6 30 -8 41 -6 33 9 100 -28 117
-64 17 -34 71 -63 79 -40 5 14 39 15 47 1 4 -6 15 -8 26 -5 11 4 19 2 19 -4 0
-6 7 -11 15 -11 16 0 93 -50 79 -51 -5 0 2 -5 16 -10 19 -8 27 -6 37 7 11 15
15 14 55 -9 80 -47 94 -61 81 -89 -15 -33 5 -77 46 -103 17 -11 31 -27 31 -36
0 -9 11 -24 25 -33 21 -14 29 -14 64 -2 39 13 41 13 56 -11 9 -14 30 -29 46
-35 16 -5 29 -17 29 -25 0 -34 44 -93 74 -101 24 -6 32 -15 34 -36 2 -18 8
-26 17 -22 16 6 25 -14 25 -54 0 -16 4 -31 9 -34 5 -3 7 -23 4 -45 -5 -38 -5
-38 36 -45 32 -5 41 -10 41 -27 0 -14 13 -26 44 -40 24 -10 52 -31 61 -46 10
-16 29 -40 44 -54 l26 -27 17 29 c10 16 26 29 36 29 26 0 45 45 31 72 -11 20
0 37 24 38 12 0 8 18 -9 34 -14 15 -12 16 24 16 28 0 45 7 62 25 13 14 29 25
37 25 7 0 13 5 13 10 0 7 6 7 18 1 10 -5 37 -11 60 -14 46 -4 63 -14 44 -26
-9 -5 -10 -15 -3 -32 8 -22 14 -24 55 -22 36 2 56 -3 85 -23 21 -14 57 -27 78
-29 38 -4 40 -3 35 20 -3 18 0 25 11 25 9 0 21 9 27 20 6 11 21 22 34 26 22 5
23 7 10 44 -9 25 -11 47 -5 62 6 15 4 31 -5 48 -20 37 -66 172 -65 194 0 11
-9 30 -20 44 l-19 25 2 -24 c2 -15 -3 -24 -14 -27 -13 -2 -18 3 -18 20 0 33
-18 50 -42 37 -10 -5 -34 -7 -54 -3 -32 6 -35 9 -29 32 4 18 0 31 -16 48 -16
17 -19 27 -12 36 18 22 31 82 22 106 -6 16 -5 22 6 22 8 0 20 10 26 23 6 12
20 31 30 42 17 19 17 24 4 69 -19 62 -19 67 3 59 15 -6 15 -5 4 10 -8 9 -22
19 -33 22 -11 4 -26 19 -34 35 -10 19 -20 27 -30 24 -10 -4 -15 0 -15 16 0 13
-4 19 -12 14 -6 -4 -8 -3 -5 3 10 16 60 23 76 10 12 -9 13 -9 7 1 -4 7 -2 12
5 12 34 0 56 101 24 114 -8 3 -15 17 -15 32 0 15 -9 33 -22 44 -19 15 -20 20
-9 33 8 10 10 27 6 47 -5 25 -4 29 9 24 9 -3 16 -1 16 5 0 13 -35 33 -43 24
-4 -3 -24 12 -47 33 -31 29 -40 46 -40 71 0 21 -4 31 -12 29 -70 -22 -95 -11
-63 25 14 15 14 20 -3 50 -11 19 -26 33 -34 31 -9 -1 -21 5 -28 13 -16 19 -30
19 -30 1 0 -18 -43 -46 -70 -46 -12 0 -18 -4 -15 -10 3 -5 0 -7 -7 -5 -21 8
-43 48 -30 53 8 2 7 13 -4 33 -26 52 -94 65 -94 19 0 -11 -8 -28 -19 -39 -13
-13 -16 -23 -9 -35 15 -27 -11 -19 -43 13 -16 16 -29 36 -29 45 0 24 22 66 31
60 5 -3 9 -1 9 5 0 15 -18 23 -22 10 -3 -9 -11 -8 -28 1 -15 8 -20 15 -13 17
17 6 -1 40 -25 47 -13 4 -18 15 -16 35 2 25 -3 32 -29 40 -40 15 -43 14 -65
-9 -17 -18 -20 -19 -32 -5 -7 8 -23 15 -37 15 -32 0 -60 16 -102 56 -22 21
-47 34 -75 38 -34 5 -44 12 -53 36 -7 18 -21 32 -37 36 -19 4 -26 13 -26 30 0
17 4 22 15 18 8 -4 15 -1 15 5 0 6 7 11 16 11 12 0 15 6 10 26 -4 15 -2 32 5
40 9 11 8 18 -4 32 -21 24 -45 84 -62 159 -8 35 -15 66 -15 69 0 2 13 4 29 4
16 0 34 7 41 15 7 8 20 15 30 15 25 0 51 33 61 81 10 44 35 72 57 64 7 -3 28
6 46 20 18 14 37 22 42 17 5 -4 -2 6 -16 21 -13 15 -25 38 -25 50 0 15 -16 32
-49 54 -28 18 -52 30 -54 28 -3 -2 -17 2 -32 10 -15 8 -31 10 -36 5 -5 -5 -25
-1 -47 10 -32 16 -39 17 -44 4z m-59 -730 c5 -12 2 -15 -10 -10 -9 4 -23 1
-30 -5 -13 -11 -34 -5 -34 11 0 9 22 17 51 19 9 0 20 -6 23 -15z m6 -70 c0
-14 -3 -14 -15 -4 -8 7 -15 14 -15 16 0 2 7 4 15 4 8 0 15 -7 15 -16z m80 -17
c0 -13 5 -28 12 -35 9 -9 8 -12 -5 -12 -9 0 -24 12 -33 26 -15 22 -15 27 -3
35 22 14 29 11 29 -14z m0 -162 c0 -8 -9 -15 -20 -15 -13 0 -18 5 -14 15 4 8
12 15 20 15 8 0 14 -7 14 -15z m-600 -126 c0 -12 -37 -12 -45 0 -3 5 3 11 12
13 21 5 33 0 33 -13z m-60 -49 c0 -5 -5 -10 -11 -10 -5 0 -7 5 -4 10 3 6 8 10
11 10 2 0 4 -4 4 -10z m-106 -116 c18 -7 22 -44 5 -44 -6 0 -8 7 -5 16 3 8 2
13 -3 10 -5 -3 -11 1 -15 9 -6 17 -4 18 18 9z m-204 -24 c0 -5 -5 -10 -11 -10
-5 0 -7 5 -4 10 3 6 8 10 11 10 2 0 4 -4 4 -10z m1860 -45 c0 -15 -38 -27 -46
-14 -7 13 18 37 33 32 7 -3 13 -11 13 -18z m-106 -16 c22 -20 -5 -19 -31 1
-28 22 -28 22 -3 15 14 -4 29 -11 34 -16z m166 0 c0 -6 -4 -7 -10 -4 -5 3 -10
11 -10 16 0 6 5 7 10 4 6 -3 10 -11 10 -16z m-410 -49 c0 -5 -5 -10 -11 -10
-5 0 -7 5 -4 10 3 6 8 10 11 10 2 0 4 -4 4 -10z m-62 -23 c2 -10 8 -15 13 -12
5 4 9 1 9 -4 0 -8 6 -7 19 1 17 10 24 7 52 -20 18 -18 40 -32 48 -32 11 -1 9
-5 -7 -13 -18 -10 -20 -15 -10 -26 10 -10 10 -15 1 -18 -7 -2 -9 -11 -6 -19 3
-8 0 -14 -7 -14 -24 0 -48 20 -55 47 -4 18 -9 23 -14 15 -13 -21 -65 4 -56 26
12 30 10 37 -7 36 -10 -1 -14 4 -11 12 3 8 0 20 -6 27 -8 11 -6 13 12 12 12
-1 23 -9 25 -18z m336 -406 c3 -5 -3 -11 -14 -14 -13 -3 -20 0 -20 9 0 15 26
19 34 5z m23 -48 c-8 -7 -37 9 -31 19 3 5 12 4 20 -3 8 -6 13 -14 11 -16z
m179 -818 c14 -13 12 -15 -14 -15 -17 0 -32 6 -36 15 -4 10 1 15 15 15 11 0
27 -7 35 -15z"/>
<path d="M8400 12270 c0 -5 5 -10 10 -10 6 0 10 5 10 10 0 6 -4 10 -10 10 -5
0 -10 -4 -10 -10z"/>
<path d="M8190 13697 c0 -10 -7 -25 -15 -33 -8 -9 -15 -24 -15 -35 0 -10 -4
-19 -10 -19 -16 0 -11 -27 6 -34 66 -25 137 16 132 77 -1 20 -5 34 -9 31 -4
-2 -10 0 -14 6 -12 20 -27 10 -23 -15 7 -34 -6 -31 -31 8 -15 23 -21 27 -21
14z"/>
<path d="M6675 13570 c3 -5 8 -10 11 -10 2 0 4 5 4 10 0 6 -5 10 -11 10 -5 0
-7 -4 -4 -10z"/>
<path d="M6656 13505 c-9 -24 4 -65 20 -65 17 0 17 -4 0 43 -10 29 -15 35 -20
22z"/>
<path d="M9127 11623 c-12 -12 -7 -21 14 -26 20 -5 20 -6 3 -32 -15 -23 -15
-28 -3 -36 11 -6 15 -2 17 21 2 17 7 30 13 30 12 0 7 21 -8 37 -13 14 -26 17
-36 6z"/>
<path d="M9095 11529 c-4 -6 -16 -9 -26 -6 -16 4 -18 1 -12 -21 3 -15 11 -30
17 -34 6 -4 0 -11 -14 -17 -17 -7 -19 -10 -8 -10 10 -1 26 -11 38 -23 25 -27
35 -18 22 21 -7 19 -7 42 -2 61 8 30 -2 51 -15 29z"/>
<path d="M9060 11399 c0 -5 5 -7 10 -4 6 3 10 8 10 11 0 2 -4 4 -10 4 -5 0
-10 -5 -10 -11z"/>
<path d="M10580 11404 c0 -16 -36 -24 -48 -12 -6 6 -17 2 -30 -12 -17 -18 -19
-26 -9 -41 9 -15 9 -24 -1 -39 -16 -26 -15 -47 2 -53 15 -6 28 -70 19 -93 -3
-8 -12 -13 -19 -10 -8 3 -14 2 -14 -2 0 -4 20 -16 45 -27 25 -11 45 -23 45
-26 0 -3 -11 -11 -24 -17 -24 -11 -26 -21 -12 -54 12 -26 -2 -42 -22 -26 -13
11 -14 11 -8 -1 10 -15 -9 -31 -38 -31 -19 0 -19 1 2 20 12 12 22 22 22 25 0
8 -93 -4 -102 -13 -19 -19 0 -42 33 -42 l31 0 -22 -18 c-21 -17 -21 -19 -5
-32 16 -14 17 -13 11 10 -5 16 -4 20 2 12 5 -7 15 -12 22 -10 8 2 16 -6 18
-17 4 -17 3 -18 -14 -5 -16 14 -17 13 -11 -2 3 -10 2 -18 -3 -18 -11 0 -9 -28
4 -49 5 -8 3 -16 -5 -22 -20 -13 -33 -6 -40 22 -6 23 -7 23 -14 -9 -7 -28 -10
-31 -23 -20 -13 11 -15 10 -9 -4 5 -13 1 -18 -13 -18 -10 0 -22 -9 -25 -20 -3
-11 -11 -20 -16 -20 -12 0 -11 31 0 49 7 11 3 21 -15 38 -29 27 -31 43 -4 43
11 0 20 5 20 10 0 6 -15 4 -35 -4 -24 -10 -43 -12 -58 -7 -44 17 -102 30 -127
28 -19 -2 -28 5 -40 30 -8 17 -24 40 -34 50 -19 18 -20 18 -42 -4 -30 -30 -53
-29 -94 6 l-34 28 -31 -18 c-16 -11 -38 -19 -47 -19 -9 0 -21 -7 -26 -16 -7
-12 -24 -16 -63 -16 -72 0 -89 -6 -89 -29 0 -10 -7 -19 -15 -19 -8 0 -15 -4
-15 -10 0 -5 -9 -10 -21 -10 -12 0 -34 -11 -51 -25 -16 -14 -38 -25 -48 -25
-11 0 -23 -8 -28 -17 -9 -16 -11 -16 -27 0 -9 9 -26 17 -38 17 -12 0 -34 7
-49 14 -26 14 -29 13 -39 -7 -7 -12 -17 -25 -23 -30 -7 -5 -5 -11 7 -18 10 -6
14 -15 10 -22 -4 -7 2 -5 12 3 10 8 16 11 14 5 -2 -5 -10 -26 -18 -46 -8 -20
-22 -41 -32 -47 -20 -13 -82 -16 -120 -7 -22 6 -27 3 -32 -17 -4 -12 -5 -24
-4 -26 1 -1 -11 -11 -28 -21 -26 -16 -32 -17 -46 -4 -14 12 -17 11 -21 -5 -3
-10 1 -30 8 -43 25 -44 18 -59 -25 -59 -36 0 -40 -3 -43 -27 -3 -25 -9 -29
-60 -42 -32 -7 -58 -17 -58 -22 0 -19 -20 -8 -34 20 -10 18 -12 31 -5 38 18
18 -2 43 -33 43 -17 0 -27 -4 -23 -10 3 -5 1 -10 -5 -10 -8 0 -8 -6 0 -20 6
-11 7 -20 2 -20 -5 0 -15 11 -22 25 -7 14 -18 24 -24 23 -24 -6 -66 39 -66 70
0 16 -7 35 -15 42 -8 7 -15 20 -15 30 0 9 -5 31 -11 49 l-11 31 -19 -24 c-10
-13 -19 -33 -19 -44 0 -32 -16 -35 -64 -13 -39 17 -46 25 -56 62 -7 23 -23 59
-36 78 -13 20 -24 44 -24 53 0 28 -33 98 -47 98 -22 0 -82 41 -88 61 -4 10
-12 19 -20 19 -7 0 -31 18 -53 39 -49 48 -131 86 -168 77 -16 -4 -24 -12 -21
-21 4 -10 -1 -12 -21 -8 -31 7 -45 6 -89 -3 -26 -5 -31 -9 -24 -23 6 -10 4
-28 -5 -49 -7 -18 -14 -36 -15 -40 -1 -4 -15 -13 -32 -20 l-30 -12 27 -25 c14
-13 26 -31 26 -39 0 -8 14 -24 30 -36 25 -18 30 -28 30 -61 0 -21 5 -39 10
-39 6 0 10 -6 10 -14 0 -7 9 -25 20 -39 11 -14 20 -30 20 -36 0 -6 14 -24 30
-39 32 -31 42 -69 15 -58 -10 3 -15 -1 -15 -14 0 -10 -4 -22 -10 -25 -16 -10
-12 -34 13 -67 16 -23 19 -32 9 -35 -10 -4 -10 -9 3 -23 15 -16 19 -17 46 -3
17 8 41 13 55 10 16 -3 24 0 24 10 0 12 8 13 43 7 99 -18 177 4 169 49 -3 12
3 17 22 17 14 0 41 14 61 31 34 31 36 31 50 13 19 -25 20 -84 1 -84 -8 0 -21
-14 -30 -30 -15 -30 -14 -31 22 -53 43 -27 76 -31 92 -12 9 10 8 19 0 35 -10
18 -8 24 7 36 25 19 33 17 33 -6 0 -11 4 -20 8 -20 5 0 15 -18 22 -40 17 -50
58 -57 52 -9 -1 4 6 6 16 5 9 0 16 4 15 11 -3 13 53 73 68 73 5 0 9 -11 9 -24
0 -28 19 -44 30 -26 5 8 10 9 14 2 4 -6 -2 -16 -12 -21 -14 -8 -18 -18 -14
-38 3 -15 9 -31 14 -34 14 -9 -60 -22 -74 -13 -7 5 -9 -4 -4 -29 5 -24 2 -39
-8 -49 -10 -10 -11 -19 -4 -32 7 -13 7 -20 -1 -25 -7 -5 -5 -19 9 -45 15 -31
17 -47 11 -82 -5 -24 -14 -51 -21 -59 -9 -11 -10 -18 -1 -29 9 -10 8 -15 -4
-20 -9 -3 -15 -18 -15 -40 0 -28 -4 -35 -25 -40 -19 -5 -25 -13 -25 -35 0 -16
-6 -34 -14 -41 -8 -6 -13 -17 -10 -24 2 -6 -11 -27 -31 -46 -23 -22 -35 -43
-35 -61 0 -15 -8 -32 -20 -40 -18 -13 -19 -17 -7 -39 8 -14 11 -35 7 -45 -8
-22 20 -48 55 -52 11 -1 31 -4 45 -5 18 -2 28 3 35 20 10 23 25 30 25 12 0 -5
7 -10 15 -10 8 0 15 7 15 17 0 15 1 15 18 0 10 -10 26 -17 34 -17 14 0 37 -23
89 -87 14 -18 40 -16 33 2 -17 42 85 -26 124 -84 18 -26 42 -51 54 -56 16 -7
22 -17 20 -31 -2 -14 10 -33 33 -55 20 -19 50 -55 67 -81 17 -27 37 -48 45
-48 7 0 13 -11 13 -24 0 -21 6 -24 43 -28 23 -3 44 -1 47 2 6 9 41 7 58 -4 6
-4 12 -2 12 3 0 16 54 13 101 -6 38 -15 42 -15 51 0 7 14 12 15 28 4 25 -15
26 -37 3 -37 -17 -1 -17 -1 0 -14 21 -16 22 -36 2 -36 -8 0 -15 -7 -15 -16 0
-11 -5 -14 -16 -10 -10 4 -18 0 -21 -13 -3 -11 -19 -25 -37 -31 l-31 -12 87
-32 c47 -17 94 -38 105 -47 10 -9 31 -19 46 -23 21 -5 27 -11 23 -23 -10 -25
12 -79 39 -93 13 -7 29 -26 34 -41 6 -17 17 -29 27 -29 9 0 23 -8 30 -17 12
-17 14 -15 26 13 13 31 14 31 48 20 24 -7 36 -18 38 -33 3 -23 34 -41 40 -24
2 6 17 11 33 11 30 0 36 13 19 40 -8 13 -11 12 -22 -3 -13 -18 -14 -17 -32 2
-17 19 -17 21 -3 21 21 0 21 3 2 40 -14 28 -14 29 15 35 17 4 30 13 30 21 0
21 37 17 60 -8 11 -12 20 -25 20 -30 0 -4 9 -8 20 -8 11 0 40 -18 64 -40 23
-22 46 -37 49 -34 26 27 161 -85 150 -126 -3 -11 3 -26 16 -36 12 -10 21 -25
21 -34 0 -8 5 -22 11 -30 9 -13 10 -12 5 3 -4 14 -1 16 18 11 16 -4 25 -1 29
10 4 11 19 16 43 16 39 0 63 20 64 53 0 9 4 17 10 17 5 0 7 7 4 15 -9 22 52
20 71 -2 54 -62 65 -77 65 -89 0 -8 -10 -14 -21 -14 -18 0 -19 -3 -9 -15 6 -8
9 -18 6 -23 -3 -6 1 -15 9 -22 8 -7 15 -20 15 -30 0 -18 43 -70 58 -70 15 0
53 -113 42 -124 -6 -6 -10 -25 -10 -44 0 -29 -3 -33 -21 -27 -19 6 -20 5 -9
-15 7 -14 8 -25 2 -33 -16 -19 -17 -68 -3 -109 9 -28 9 -42 1 -58 -9 -16 -8
-25 1 -36 9 -11 9 -17 -1 -29 -7 -8 -9 -15 -4 -15 4 0 3 -5 -4 -12 -7 -7 -12
-22 -12 -34 0 -12 -6 -24 -14 -27 -8 -3 -19 -21 -26 -41 -6 -19 -20 -38 -31
-41 -11 -4 -19 -15 -19 -30 0 -16 -7 -25 -25 -29 -14 -4 -25 -13 -25 -20 0 -8
-7 -17 -16 -20 -10 -4 -13 -13 -9 -27 6 -18 4 -20 -14 -14 -17 5 -21 2 -21
-17 0 -13 5 -29 12 -36 9 -9 8 -13 -4 -17 -10 -4 -14 -14 -10 -27 3 -14 1 -19
-6 -15 -16 11 -42 -3 -42 -23 0 -9 9 -25 20 -35 11 -10 20 -13 20 -7 0 7 6 12
13 12 15 1 77 56 77 70 0 16 47 12 82 -8 35 -20 59 -17 110 10 15 8 24 19 20
24 -4 4 0 3 9 -4 9 -7 19 -26 23 -42 5 -26 10 -30 37 -30 23 0 30 -4 26 -14
-6 -15 22 -46 41 -46 17 0 26 -21 12 -30 -9 -5 -9 -9 -1 -14 6 -4 11 -3 11 3
0 5 15 13 33 16 17 4 42 16 54 27 16 15 25 17 41 9 12 -6 22 -7 29 0 13 13 83
15 91 2 4 -6 16 -12 27 -14 29 -6 19 -69 -11 -69 -8 0 -14 -7 -14 -16 0 -12
-6 -15 -24 -10 -16 4 -32 -1 -47 -14 -15 -12 -19 -19 -10 -20 10 0 11 -3 2
-14 -9 -11 -9 -15 1 -18 7 -3 12 -23 13 -46 1 -31 -2 -41 -12 -38 -8 3 -23 -9
-36 -29 -12 -19 -27 -35 -34 -35 -6 0 -15 -5 -18 -10 -4 -7 3 -9 22 -5 52 12
57 15 45 27 -17 17 -2 38 27 38 22 0 27 5 27 22 -1 15 8 27 27 36 15 7 27 17
27 23 0 5 9 9 20 9 29 0 59 31 75 77 10 28 19 38 34 37 11 0 19 4 18 9 -1 5 5
12 13 16 8 4 30 15 49 25 36 18 51 11 51 -26 0 -9 5 -20 10 -23 7 -4 7 -12 0
-25 -7 -13 -6 -21 5 -30 21 -17 19 -50 -2 -50 -20 0 -43 -42 -43 -76 0 -13 -7
-27 -15 -32 -9 -4 -17 -25 -19 -45 -2 -21 -6 -40 -10 -44 -3 -3 -6 -18 -6 -33
0 -14 -6 -35 -14 -45 -12 -17 -18 -18 -71 -6 -31 7 -59 10 -63 7 -3 -4 -7 -35
-8 -69 -2 -57 -11 -93 -35 -139 -13 -26 -11 -54 6 -68 8 -7 15 -19 15 -27 0
-7 7 -16 15 -19 9 -4 15 -19 15 -39 0 -21 11 -46 31 -71 30 -37 30 -39 10 -42
-31 -5 -29 -50 4 -62 14 -5 25 -16 25 -24 0 -8 11 -27 24 -41 14 -15 22 -33
20 -40 -6 -15 32 -45 58 -45 10 0 18 -7 18 -15 0 -8 -6 -15 -13 -15 -7 0 -28
-14 -47 -31 -33 -31 -34 -31 -13 -48 21 -16 33 -51 36 -106 2 -25 6 -29 25
-27 15 2 22 -2 22 -12 0 -9 4 -16 9 -16 5 0 11 -9 14 -19 3 -13 -1 -21 -14
-24 -15 -4 -19 -14 -19 -49 0 -37 -5 -49 -32 -75 -18 -17 -45 -33 -59 -37 -23
-5 -27 -12 -32 -58 -4 -29 -13 -58 -21 -64 -13 -9 -13 -13 -1 -32 34 -48 -15
-60 -93 -22 -26 13 -41 15 -49 8 -9 -7 -13 -7 -13 1 0 6 -6 11 -13 11 -9 0
-12 -10 -9 -30 3 -25 1 -30 -15 -30 -16 0 -19 -5 -15 -25 3 -20 7 -23 18 -14
18 15 42 -4 60 -48 11 -25 19 -31 39 -29 14 2 25 0 25 -3 0 -3 11 -6 25 -6 20
0 27 7 36 35 7 19 15 40 19 45 4 6 15 33 24 62 13 39 23 53 39 55 15 2 26 16
37 43 8 22 21 40 28 41 6 1 24 2 39 3 21 1 24 4 15 13 -19 19 -14 38 8 38 18
0 19 3 10 20 -8 16 -8 20 3 20 14 0 27 40 27 83 0 11 -11 35 -25 53 -31 41
-31 43 1 77 24 26 25 29 10 46 -21 23 -32 86 -17 95 6 4 11 16 11 26 0 11 9
24 20 30 14 8 20 21 20 45 0 19 4 35 9 35 4 0 11 16 14 36 6 38 41 84 63 84 7
0 19 10 25 23 7 12 20 28 31 35 13 9 16 20 12 37 -6 23 -4 24 33 19 21 -3 46
-7 56 -9 10 -2 22 5 28 17 6 11 17 17 25 14 8 -3 14 1 14 9 0 8 5 15 11 15 5
0 8 4 5 9 -3 5 9 11 27 15 19 4 27 10 20 14 -6 4 -9 19 -6 34 3 15 9 25 14 22
5 -3 9 6 9 20 0 16 6 26 15 26 8 0 15 6 15 14 0 8 14 17 30 21 17 4 30 13 30
21 0 8 4 14 9 14 11 0 30 18 60 55 19 25 20 26 57 10 21 -9 45 -22 54 -29 8
-7 36 -13 63 -12 38 1 52 7 66 25 16 21 18 21 31 6 10 -12 22 -15 42 -11 15 3
41 9 58 12 16 3 35 12 41 20 9 11 15 10 31 -11 11 -14 28 -25 39 -25 19 0 28
4 76 28 13 7 31 12 41 12 9 0 27 7 39 15 15 11 28 12 45 6 27 -10 58 7 58 30
0 8 7 24 15 37 11 15 13 27 7 39 -5 10 -7 24 -5 31 9 25 -8 121 -20 116 -7 -2
-21 10 -32 26 -11 17 -31 33 -45 37 -14 3 -36 17 -49 31 -22 24 -22 26 -6 38
12 9 15 20 10 36 -4 16 -3 19 3 9 7 -9 12 -10 16 -2 8 12 -2 14 -49 11 -16 -1
-27 1 -23 5 4 4 3 15 -2 25 -7 13 -4 22 9 34 18 17 20 16 26 -3 3 -12 4 -25 1
-29 -3 -5 6 -7 21 -4 14 3 28 13 30 23 5 20 33 27 33 9 0 -18 17 -10 27 13 7
15 7 29 1 40 -7 13 -4 19 14 26 13 5 36 21 52 35 16 14 35 26 41 26 7 0 15 7
19 15 3 8 0 15 -7 15 -8 0 -8 3 2 9 9 6 10 10 2 16 -7 3 -23 24 -36 46 -17 25
-30 36 -40 33 -11 -5 -15 1 -15 19 0 14 5 29 10 32 6 3 10 16 10 27 0 20 1 20
18 5 42 -38 57 -6 22 44 -12 15 -27 26 -34 23 -7 -3 -19 2 -26 11 -7 8 -21 15
-32 15 -10 0 -17 4 -14 9 3 5 -2 12 -11 15 -9 4 -20 2 -23 -5 -5 -8 -15 -6
-34 6 -14 10 -26 20 -26 24 0 13 -100 41 -124 35 -27 -6 -90 32 -80 48 3 5 -2
18 -11 28 -9 10 -15 26 -13 37 3 15 -3 18 -34 15 -22 -2 -68 7 -112 22 -41 14
-80 26 -88 26 -7 0 -43 -15 -79 -34 -52 -25 -71 -31 -85 -23 -13 7 -19 7 -22
-1 -2 -7 -12 -12 -23 -12 -25 0 -25 -32 1 -55 11 -10 20 -24 20 -31 0 -7 9
-18 20 -24 20 -11 28 -40 11 -40 -5 0 -15 -16 -22 -34 -14 -38 -29 -38 -29 -1
0 18 -7 26 -24 31 -43 10 -74 54 -85 120 -6 34 -9 68 -5 77 7 18 -28 57 -52
57 -8 0 -13 3 -11 8 3 4 1 30 -4 58 -7 39 -6 61 6 93 9 27 13 58 9 81 -6 37
-5 38 17 33 19 -5 22 -3 12 7 -7 7 -25 14 -40 15 -15 1 -36 3 -45 3 -28 3 -19
73 15 117 45 59 56 86 45 110 -9 20 -8 29 4 42 8 10 15 28 16 41 0 12 10 34
21 48 14 18 21 41 21 72 0 38 2 43 15 32 19 -16 35 -4 35 26 0 20 5 24 30 24
19 0 33 6 37 16 4 10 17 15 42 13 68 -3 99 22 75 59 -9 13 -14 25 -12 26 44
31 81 45 99 36 13 -8 19 -7 19 0 0 6 12 15 27 21 l27 10 -32 20 c-28 18 -30
23 -21 42 10 17 8 24 -9 38 -12 9 -19 19 -16 21 2 3 0 17 -6 32 -6 18 -6 25 0
21 6 -3 10 -13 10 -20 0 -8 15 -18 33 -23 19 -5 32 -15 32 -24 0 -9 11 -25 25
-37 14 -11 19 -20 13 -21 -7 0 -13 -7 -13 -15 0 -13 6 -13 38 4 20 11 45 23
56 26 11 3 16 11 12 20 -3 9 0 15 10 15 8 0 12 -5 8 -11 -10 -17 16 -57 42
-62 34 -6 31 18 -7 55 -17 18 -26 34 -20 37 6 4 6 12 2 20 -7 10 -10 10 -16 1
-6 -9 -10 -9 -16 1 -13 21 -11 29 9 23 15 -5 15 -4 1 8 -8 7 -18 21 -22 31 -3
9 -18 22 -32 29 -14 6 -25 20 -25 30 0 14 -5 18 -19 13 -19 -6 -38 10 -39 35
-1 8 -4 34 -8 57 -6 41 2 61 31 74 6 2 8 9 6 14 -7 19 -2 49 15 81 16 30 16
34 0 67 -11 24 -22 34 -31 31 -18 -7 -75 26 -75 44 0 8 -14 27 -31 43 -24 22
-30 35 -27 61 2 28 -1 34 -19 36 -15 2 -25 13 -29 28 -4 14 -17 30 -31 35 -13
5 -23 15 -21 21 1 7 -3 23 -10 35 -10 19 -10 22 2 17 33 -13 86 35 86 77 0 16
5 29 11 29 6 0 9 9 6 20 -3 11 -1 20 4 20 15 0 28 44 17 58 -7 8 -7 16 0 25
13 15 6 50 -21 94 -18 32 -18 33 2 61 l20 29 -37 32 c-33 29 -35 33 -19 42 17
10 16 12 -3 36 -11 14 -20 32 -20 39 0 14 -30 34 -51 34 -8 0 -8 -4 1 -15 11
-13 8 -17 -18 -26 -16 -6 -32 -19 -35 -30 -8 -32 -36 -35 -60 -6 -12 14 -32
28 -44 32 -12 3 -20 11 -18 18 7 17 -6 32 -42 51 -18 9 -33 21 -33 26 0 6 -5
10 -12 10 -6 0 -34 18 -60 41 -27 22 -55 38 -62 36 -8 -3 -22 1 -33 8 -10 8
-15 15 -10 15 4 0 0 8 -8 18 -56 62 -68 84 -54 92 16 11 5 24 -20 25 -19 0
-117 105 -126 136 -4 11 -11 19 -16 19 -5 0 -14 11 -19 25 -5 14 -17 25 -28
25 -19 0 -51 28 -50 43 0 4 -5 21 -12 38 -9 21 -18 28 -30 24 -9 -3 -29 4 -43
16 -15 11 -27 16 -27 11 0 -5 -8 -13 -17 -16 -17 -6 -34 -16 -72 -40 -23 -15
-64 -14 -89 1 -12 8 -26 11 -31 9 -5 -3 -47 -1 -94 5 -74 10 -87 15 -93 33
-10 32 -57 96 -71 96 -7 0 -13 4 -13 10 0 5 -6 7 -14 4 -8 -3 -24 -1 -35 6
-14 7 -21 7 -21 0 0 -19 -19 -10 -35 18 -17 28 -46 36 -73 18 -9 -5 -20 -2
-30 8 -14 14 -15 18 -3 25 7 5 10 14 7 20 -4 6 -11 9 -16 6 -4 -3 -10 2 -14
10 -3 8 -1 17 4 20 6 4 2 17 -8 33 -16 25 -16 26 1 19 10 -4 17 -2 17 6 0 15
-20 46 -20 31z m-17 -150 c-3 -16 -30 -16 -36 0 -5 12 -1 15 16 12 12 -1 21
-7 20 -12z m-1253 -550 c0 -14 4 -23 9 -20 9 6 42 -8 76 -34 22 -16 33 -66 12
-53 -7 4 -5 -1 3 -12 14 -17 13 -17 -10 -12 -14 4 -19 4 -12 1 6 -3 12 -12 12
-20 0 -12 -4 -12 -20 -2 -13 8 -18 19 -14 34 3 12 1 25 -5 28 -6 4 -11 16 -11
27 0 11 -4 18 -9 15 -4 -3 -17 4 -27 15 -20 22 -29 59 -14 59 6 0 10 -12 10
-26z m-10 -59 c0 -8 -4 -15 -8 -15 -5 0 -9 7 -9 15 0 8 4 15 9 15 4 0 8 -7 8
-15z m-179 -351 c12 -15 11 -16 -9 -10 -13 5 -22 3 -22 -3 0 -6 8 -11 18 -12
15 0 14 -1 -3 -8 -13 -5 -31 -1 -52 12 -18 10 -33 21 -33 23 0 2 16 2 35 -1
19 -2 35 0 35 5 0 15 16 12 31 -6z m3317 -1308 c3 -12 -1 -17 -10 -14 -7 3
-15 13 -16 22 -3 12 1 17 10 14 7 -3 15 -13 16 -22z m-2493 -276 c3 -11 13
-27 21 -35 14 -13 13 -15 -7 -15 -12 0 -30 7 -39 15 -9 8 -34 19 -56 24 l-39
9 35 1 c19 1 42 6 50 11 22 14 28 12 35 -10z m1919 -512 c20 -28 20 -38 2 -38
-8 0 -16 -5 -18 -11 -5 -15 -63 14 -71 35 -5 11 3 18 26 25 45 13 44 13 61
-11z m-109 2 c3 -5 -1 -10 -9 -10 -19 0 -21 -16 -3 -23 6 -3 2 -6 -9 -6 -12
-1 -28 7 -35 16 -12 15 -12 16 3 10 10 -3 17 -3 17 1 -4 23 24 32 36 12z m180
-759 c3 -5 1 -12 -5 -16 -5 -3 -10 1 -10 9 0 18 6 21 15 7z m-681 -226 c3 -8
1 -15 -4 -15 -6 0 -10 7 -10 15 0 8 2 15 4 15 2 0 6 -7 10 -15z m234 -60 c-3
-3 -9 2 -12 12 -6 14 -5 15 5 6 7 -7 10 -15 7 -18z m1142 -160 c7 -9 10 -18 7
-22 -8 -7 -37 15 -37 28 0 14 16 11 30 -6z"/>
<path d="M10426 11121 c-7 -11 12 -26 43 -34 l23 -6 -23 25 c-24 26 -35 29
-43 15z"/>
<path d="M10500 11050 c0 -5 5 -10 11 -10 5 0 7 5 4 10 -3 6 -8 10 -11 10 -2
0 -4 -4 -4 -10z"/>
<path d="M10352 10883 c2 -26 8 -38 18 -38 20 0 25 42 6 60 -23 23 -27 18 -24
-22z"/>
<path d="M9177 10843 c-38 -4 -38 -5 -22 -23 10 -11 15 -28 12 -40 -7 -25 13
-26 41 -1 20 17 32 73 15 69 -5 -1 -25 -3 -46 -5z"/>
<path d="M8650 10290 c0 -5 5 -10 11 -10 5 0 7 5 4 10 -3 6 -8 10 -11 10 -2 0
-4 -4 -4 -10z"/>
<path d="M8533 10251 c-9 -35 -9 -41 5 -41 8 0 12 -3 9 -7 -4 -3 -2 -12 4 -20
9 -10 7 -13 -10 -13 -18 0 -20 -4 -14 -32 6 -31 6 -31 -26 -25 -20 4 -30 3
-26 -3 3 -6 -2 -10 -12 -10 -10 0 -14 -4 -8 -8 6 -4 15 -16 21 -27 15 -28 50
-31 57 -6 4 18 0 21 -26 21 -35 0 -31 9 8 16 15 3 33 0 40 -6 9 -8 19 -2 38
23 28 36 21 58 -21 71 -21 7 -21 8 -4 31 9 14 22 25 29 25 6 0 15 5 19 12 4 7
3 8 -4 4 -7 -4 -12 -3 -12 3 0 6 -7 8 -15 4 -9 -3 -22 2 -29 12 -12 16 -14 14
-23 -24z"/>
<path d="M8490 10139 c0 -5 5 -7 10 -4 6 3 10 8 10 11 0 2 -4 4 -10 4 -5 0
-10 -5 -10 -11z"/>
<path d="M8432 10074 c10 -10 20 -15 24 -12 3 4 -5 12 -18 18 -22 12 -22 12
-6 -6z"/>
<path d="M9275 8930 c10 -16 -73 -62 -92 -51 -17 9 -83 -15 -83 -31 0 -4 -8
-8 -19 -8 -14 0 -17 -6 -13 -25 4 -25 -11 -35 -23 -15 -9 15 -28 12 -22 -3 2
-7 -4 -24 -15 -37 -18 -22 -21 -23 -32 -8 -10 13 -15 14 -29 3 -28 -20 -21
-38 11 -30 25 7 146 24 148 21 0 0 11 -18 23 -38 30 -51 72 -71 108 -53 14 8
29 17 32 22 3 5 20 13 36 18 19 7 31 18 33 33 2 12 7 22 12 22 4 0 10 9 13 21
4 16 11 19 27 14 21 -7 21 -6 6 23 -14 27 -41 47 -58 44 -5 -1 -8 8 -8 21 0
13 -10 33 -23 45 -24 22 -43 30 -32 12z"/>
<path d="M12664 8882 c3 -6 2 -13 -4 -17 -5 -3 -10 -22 -10 -41 0 -19 -7 -46
-16 -59 -17 -26 -10 -32 16 -15 9 6 17 5 21 -2 12 -19 39 -17 52 3 12 19 12
18 29 -3 l18 -23 0 24 c0 20 2 21 15 11 12 -10 21 -8 47 9 24 15 28 21 15 21
-10 0 -27 -4 -37 -10 -15 -8 -19 -5 -24 16 -5 18 -12 25 -24 21 -9 -2 -24 -6
-32 -8 -9 -3 -18 8 -25 30 -7 18 -20 38 -30 43 -12 7 -16 7 -11 0z"/>
<path d="M8931 8862 c-6 -11 -8 -22 -5 -25 3 -3 3 -11 -1 -17 -5 -8 -11 -7
-22 2 -13 10 -15 9 -12 -7 3 -16 13 -19 61 -20 42 -1 59 2 63 13 7 18 -4 32
-44 55 -29 17 -30 17 -40 -1z"/>
<path d="M8877 8771 c-3 -12 2 -26 10 -33 14 -11 15 -10 9 10 -6 18 -4 21 11
15 19 -7 18 -5 -8 15 -14 10 -17 9 -22 -7z"/>
<path d="M12885 8770 c3 -5 8 -10 11 -10 2 0 4 5 4 10 0 6 -5 10 -11 10 -5 0
-7 -4 -4 -10z"/>
<path d="M9375 8710 c-3 -6 1 -13 10 -16 19 -8 30 0 20 15 -8 14 -22 14 -30 1z"/>
<path d="M12986 7489 c3 -6 9 -8 12 -5 3 4 18 -6 34 -20 15 -15 40 -29 54 -30
38 -4 56 -24 21 -24 -29 0 -47 -23 -40 -51 3 -12 14 -19 29 -19 40 0 75 -21
72 -44 -4 -26 -28 -33 -28 -8 0 13 -11 22 -40 31 -49 15 -55 11 -58 -31 -2
-33 20 -69 50 -81 9 -4 10 -8 2 -14 -6 -4 -14 -18 -18 -30 -4 -13 -11 -23 -16
-23 -5 0 -8 -15 -7 -32 2 -31 21 -56 60 -79 25 -15 23 21 -4 50 -30 32 -19 64
30 86 42 19 61 14 61 -14 0 -9 6 -25 13 -36 13 -17 15 -17 35 3 l21 21 27 -29
c16 -16 31 -27 36 -24 4 3 15 -2 24 -11 15 -15 19 -28 23 -77 0 -10 6 -18 11
-18 7 0 9 16 6 42 -3 31 0 48 12 63 l17 20 -23 -20 c-24 -20 -24 -20 -38 0 -8
11 -12 30 -9 43 3 12 1 22 -5 22 -21 0 -9 30 15 36 14 3 35 20 46 36 18 24 19
34 10 51 -16 32 -10 67 11 67 10 0 18 5 18 10 0 6 -3 9 -7 8 -5 -1 -23 6 -42
16 -29 15 -36 16 -45 5 -21 -26 -81 -48 -129 -47 -55 1 -70 14 -33 28 14 5 26
14 26 19 0 5 3 17 7 27 5 14 3 15 -12 7 -25 -14 -49 -6 -60 20 -7 15 -19 22
-40 22 -16 0 -41 8 -55 17 -29 20 -84 32 -74 17z m154 -129 c0 -5 -4 -10 -10
-10 -5 0 -10 5 -10 10 0 6 5 10 10 10 6 0 10 -4 10 -10z"/>
<path d="M13196 7071 c-9 -14 5 -41 21 -41 9 0 13 6 9 15 -3 8 -1 15 4 15 6 0
10 5 10 10 0 12 -37 13 -44 1z"/>
<path d="M13401 6924 c0 -11 3 -14 6 -6 3 7 2 16 -1 19 -3 4 -6 -2 -5 -13z"/>
<path d="M13643 6892 c-12 -4 -37 -21 -56 -39 -30 -27 -41 -31 -71 -26 -26 4
-36 11 -36 24 0 17 -11 24 -34 20 -4 -1 -14 3 -20 9 -10 7 -16 3 -24 -16 -7
-14 -12 -32 -12 -41 0 -9 -8 -22 -17 -29 -15 -11 -16 -16 -5 -33 18 -30 15
-40 -13 -51 -24 -9 -25 -11 -11 -32 10 -16 12 -28 6 -38 -5 -8 -10 -27 -10
-41 0 -18 -6 -28 -20 -32 -17 -4 -19 -12 -16 -51 2 -27 -1 -47 -8 -50 -7 -3
-7 -5 2 -5 7 -1 4 -9 -8 -21 -19 -19 -19 -22 -5 -44 20 -31 11 -76 -16 -76
-11 0 -19 -7 -19 -17 0 -21 20 -55 20 -35 0 7 13 12 31 12 24 0 30 3 25 16 -5
13 -1 14 22 9 20 -4 36 0 53 13 14 11 38 18 57 16 18 -1 35 3 38 8 9 14 66 -1
90 -23 19 -18 22 -18 34 -4 12 14 15 14 38 -1 13 -9 22 -12 18 -6 -9 15 4 42
20 42 8 0 19 -12 25 -27 13 -36 30 -18 31 34 0 35 3 40 19 36 15 -4 19 0 19
21 0 16 5 26 15 26 8 0 29 13 46 30 26 24 29 32 19 44 -6 9 -21 18 -31 21 -11
4 -19 12 -18 18 1 7 -3 25 -10 41 -10 25 -9 31 4 38 18 11 20 39 3 36 -11 -3
-28 59 -29 105 0 10 -9 23 -20 30 -10 6 -19 20 -19 29 0 40 -61 74 -107 60z"/>
<path d="M11207 5184 c-15 -8 -31 -13 -36 -10 -4 3 -18 -6 -29 -19 -12 -14
-26 -25 -32 -25 -5 0 -10 -7 -10 -15 0 -9 -8 -14 -22 -12 -20 2 -23 -2 -20
-25 1 -16 -1 -28 -7 -28 -5 0 -7 -9 -4 -19 3 -13 12 -18 26 -15 11 2 26 -1 34
-7 18 -15 41 4 51 45 6 20 14 30 24 28 24 -4 70 17 63 29 -4 5 -4 21 -1 33 5
19 11 22 32 18 20 -4 25 -1 22 9 -3 8 -12 13 -22 11 -9 -2 -16 2 -16 8 0 14
-20 12 -53 -6z"/>
<path d="M11095 4980 c3 -5 8 -10 11 -10 2 0 4 5 4 10 0 6 -5 10 -11 10 -5 0
-7 -4 -4 -10z"/>
</g>
</svg>
