<svg version="1" xmlns="http://www.w3.org/2000/svg" width="693.761" height="924.182" viewBox="0 0 520.321 693.137"><g fill="#222"><path d="M221.5 1.02c0 .5-1.3.7-3 .3-1.7-.3-3-.1-3 .4 0 2.5 2.3 7.3 3.5 7.3.8 0 1.8.7 2.2 1.5.7 1.3 1.2 1.3 3.8-.1 2.6-1.3 3-1.3 3.7 0 .5.9 2.4 2.3 4.3 3.2 2.9 1.3 3.4 2 2.9 3.9-.4 1.7-.1 2.5 1.4 2.9 1.9.6 4.2 4.5 4.2 7.1 0 .8.8 1.8 1.8 2.4 1.6.9 1.9 2 2.1 10.4.1 2.6.8 4.3 2.6 5.9 2.8 2.4 3.2 4.6 1 5.4-2 .8-.3 3.8 3.5 6.1 1.7.9 3 2 3 2.4 0 1.3-5.4 8.9-6.3 8.9-.5 0-.7.9-.4 2.1.5 1.8.2 2-2 1.4-2.4-.6-2.5-.4-2.1 2.7.3 2.1-.1 4.5-1.2 6.5-1.6 3-1.6 3.6-.2 8 .9 2.7 2 5.1 2.5 5.4.5.4.5.9-.1 1.3s-.9 1.3-.5 2.1c.3.9-.1 1.5-1 1.5-3 0-3.7 5.1-1.1 8 1.7 2 .8 5.8-1.7 6.5-1 .4-1.9 1.2-1.9 2 0 1.4-5.3 3-6.8 2.1-.5-.3-.7 1.7-.4 4.4.4 4 .1 5.1-1.2 5.5-.9.3-2.4.8-3.3 1.2-2.2.8-3.2 1-6 1.2-1.7.1-2.3.7-2.3 2.5 0 1.7-.7 2.6-2.5 3-1.4.4-2.5 1.3-2.5 2.1 0 .9-1.6 2.3-3.6 3.2-3 1.5-3.5 2.2-3.1 4.3.6 2.8-1.1 6.6-4.1 9.3-1.2 1.1-1.8 2.5-1.5 3.4.5 1.3.1 1.5-2.1.9-2.1-.5-2.6-.4-1.9.6.4.7.8 3.3.9 5.8 0 2.5.4 5.3.8 6.2.6 1.3.4 1.8-.7 1.8-.9 0-1.7 1-1.9 2.2-.2 1.5-1.1 2.4-2.5 2.6-2.6.4-2 3.2.7 3.2 2.5 0 3.3 3.8.9 4.5-1 .4-1.9 1.3-1.9 2.1s-.4 1.3-.9.9c-1.5-.8-4.8 3.3-5.3 6.5-.6 4 .7 5.8 3.5 5.3 2.6-.5 6.2 2.7 3.9 3.4-.6.3-1 .9-.6 1.4 1 1.7 2.4.9 2.4-1.5 0-1.4.5-2.8 1-3.1.6-.3 1-1.5 1-2.5 0-1.2.8-2 2.3-2.2 1.3-.2 2.7-1.5 3.6-3.4 1-2.5 2-3.1 4.4-3.2 4.6-.1 8-4.1 8.1-9.5.1-2.4.7-5.1 1.5-6 .7-.9 1.1-2.6.8-3.7-.5-1.8-.2-2 1.6-1.4 1.2.4 3.3.8 4.6 1 1.3.1 3.6 1.5 5 3 2.2 2.4 2.6 2.6 2.9 1.1.2-.9.7-1.7 1.2-1.7.4 0 .6.9.3 2-.3 1.2.2 2.9 1.1 3.9.9 1 2.1 4.3 2.7 7.5 1.1 6.2.5 8-3.2 9.1-1.7.6-1.8.8-.4 3.5.8 1.6 1.5 4.3 1.5 5.9 0 2.1.7 3.5 2.4 4.6 2 1.3 2.4 2.4 2.3 6.4-.1 3.6.5 5.4 2.1 7.1 1.2 1.3 2.2 2.9 2.2 3.6 0 1.9 2 2.8 5.3 2.6 2.2-.2 2.8.1 2.4 1.2-.3.8-.3 1.7.1 2.1.4.4.7 1.1.7 1.5 0 .5.8 1.5 1.8 2.3 1.8 1.2 1.8 1.4-.1 3.7-1.5 1.8-1.8 3.4-1.4 6.3.5 4.1-1.4 9.1-3.1 8-.6-.3-.7-.1-.3.6.4.6 1.2.9 1.7.6.5-.4 1.3.5 1.8 1.8 1.1 2.7 6.9 4.6 8.2 2.6 1.1-1.9 6.8 5.1 7 8.6.2 4.8-.2 6.9-1.7 8.6-.8.8-1.4 2.5-1.4 3.6s-.7 2.6-1.5 3.3c-2.1 1.7-1.9 4.6.6 6.9 1.7 1.6 2 2.8 1.7 7-.3 2.8-.1 5.1.3 5.1 1.7 0 3.9 3.3 3.9 5.9 0 2.7 3.1 6.7 4.2 5.6.3-.4 1 .8 1.6 2.4 1 2.8 1.5 3.1 5.1 3.1 4.5 0 4.6.2 2.9 2.9-.9 1.5-2 1.7-5.5 1.3-3.6-.4-4.7-.1-6.2 1.7-1 1.1-2.5 2.1-3.4 2.1-.8 0-2.7 2-4.1 4.5-1.7 2.8-3.4 4.5-4.6 4.5-1 0-2 .5-2.2 1.2-.3.8-1.6.7-4.7-.5-2.3-1-4.7-1.5-5.2-1.2-1.6 1.1-1 3.4 1.4 4.6 1.2.7 2.8 2.1 3.5 3.1.7 1 3.9 3.1 7 4.6 6 3 9.8 3.2 8.8.5-.9-2.2 3.9-.9 6.7 1.8 1.2 1.2 3.7 3.2 5.5 4.6 2.8 2.2 3.4 2.4 4.9 1.2.9-.8 3.7-1.4 6.3-1.4 3.1 0 5.2-.6 6.4-1.8 1-.9 2.2-1.7 2.7-1.7.6 0 .8-.9.4-1.9-.5-1.7.1-2.1 4-2.6 5.1-.8 7.6-3.5 5.4-6.1-.6-.8-1-1.4-.7-1.4.8 0 7.9 3.9 9.4 5.1.9.7 2.5 1.4 3.7 1.6 5.7.8 9.3.9 9.8 0 .4-.5 2.1-.1 4 .8 2.5 1.4 3.7 1.5 5.1.6 1.1-.7 3.4-.9 5.8-.5 2.6.4 4 .3 4-.4 0-.8.8-.9 2.6-.2 7 2.7 15.9-1.1 15.9-6.9 0-1.8.6-2.7 2-2.9 2.3-.5 4.5-2.1 4.5-3.3 0-.5-.7-.6-1.5-.3-1.1.5-1.5-.1-1.5-1.9 0-2 .4-2.4 2.1-2 1.7.5 2 1.2 1.8 5.2-.2 2.6 0 5.1.3 5.7.8 1.5.2 6.2-1 7.6-.8 1-.6 2 .8 3.8 2 2.6 2.7 9.4 1.2 11.8-.5.7-1.5 1-2.4.7-2.2-.9-3.8 3.7-4.4 12.4-.5 6.3-1 7.9-3 9.8-1.7 1.5-2.4 3.3-2.4 5.8 0 2.9-.5 3.8-2.7 4.8-1.6.6-3.2 1.7-3.6 2.4-.7 1.1-1.2 1-3-.2-3.2-2.2-4-1.9-3.4 1.4.4 2.1 0 3.7-1.4 5.5-1.1 1.4-1.8 2.6-1.5 2.6.3 0-.1 1.2-.9 2.6-.7 1.5-1.1 3.3-.8 4 .3 1-.3 1.4-1.9 1.4-1.4 0-2.7.2-3 .5-.8.8 1.6 9.3 3 10.7.7.7 1.2 2 1.2 2.9 0 .9.7 3.3 1.5 5.3s1.5 3.8 1.5 4.1c-.1 1.2 1.6 3.2 3.3 3.8.9.3 1.7 1.3 1.7 2 0 .8 1.5 1.8 3.3 2.3 1.7.6 3.2 1.5 3.2 2.2 0 .7.3 1.2.8 1.2h1.7c.6 0 .8-1 .5-2.3-.6-2.2-.3-2.4 2.9-2.3 2.1.1 4.5 1 5.8 2.3 2.6 2.4 5.4 3 8.2 1.8 1.1-.5 2.6-.4 3.7.3s2 .8 2.4.2c1-1.5-.5-3.2-2.2-2.5-.9.3-2.4-.2-3.5-1.1-1.7-1.6-1.7-1.9-.2-3.5.9-1 2.2-1.5 2.9-1.3 1 .4 1.4-.4 1.5-2.8.2-8.9 0-13-.9-14.5-1.1-2 1.5-7.3 3.6-7.3.7 0 1.3-.5 1.3-1.2 0-.6.7-1.9 1.5-2.8.8-.9 1.8-3.9 2.1-6.6.4-2.7 1.3-5.7 2.1-6.6 1.3-1.4 1.2-1.9-.5-3.5-1-1-3.3-2.6-5-3.5-4.3-2.3-4.2-4.8.1-4.8 4 0 5.1-.8 3.6-2.7-.9-1-.7-1.3.6-1.3 1.3 0 1.6-.6 1.1-2.3-.4-1.8.4-3.3 3.9-6.7 2.5-2.4 4.5-5 4.5-5.7 0-1.9 5.2-4.2 8.1-3.6 1.9.3 2.8-.1 3.9-2.2.9-1.7 2-2.5 3.2-2.2.9.3 1.9 0 2.1-.7.3-.6 2.2.5 4.4 2.7 3.4 3.2 4.8 3.9 8.8 4.1 6.1.3 10.5-1.7 9.8-4.4-.4-1.6-.2-1.9 1.1-1.4.9.3 2.3.1 3.1-.6 1.3-1.1 2-.9 4.3 1.2 3.6 3.2 7.8 5.8 9.6 5.8 1.1 0 1.3 1.3 1 6.2-.2 3.5-.8 6.4-1.4 6.6-2.2.8-.8 2.1 2.8 2.7 2 .3 4.4 1 5.2 1.4 1 .5 2.3.3 3.5-.5 1-.8 2.3-1.4 2.8-1.4 1 0 .5 4.2-.8 7.2-.5 1.2-.3 1.8.6 1.8 1.8 0 7-9.8 5.7-10.6-.6-.4-1.4 0-1.9.7-.8 1.2-1.1 1.2-1.9-.1-1.2-1.9 1.7-3.2 4.2-1.9.9.5 2.4.6 3.2.3 1.9-.7 5.6-6.5 5.6-8.7 0-.9.9-2.1 2.1-2.7 1.1-.7 1.8-1.8 1.5-2.5-.3-.9 0-1.2.8-.9.8.3 1.2 1.3.9 2.2-1.3 5.1 4.8 10.9 8.8 8.4 1-.7 2.6-1.2 3.4-1.2 1.9 0 2-5.1.3-11.5-1.1-4-1.6-4.6-5.4-5.9-2.4-.8-5.2-1.2-6.3-.9-2.6.7-8.1-4.9-8.1-8.3 0-1.3-1.4-3.9-3.1-5.9-1.7-1.9-2.8-3.5-2.3-3.5.4 0-.1-.9-1.1-2s-2.4-2-3.1-2c-2.6 0-4.5-6.7-2.9-10.4 1-2.3-3.9-12.8-5.8-12.4-2.9.6-10.7-5.4-10.7-8.2 0-3.2-4.1-7.2-6.7-6.7-1.8.3-2.7-.2-4-2.3-.9-1.6-2.2-2.6-3-2.3-2 .8-1.6-1.4.7-3.7 1.1-1.1 2.1-1.8 2.1-1.5.1.3.2.9.3 1.4.2 1.6 1.3 2.2 5.1 3.1 3.1.7 3.6.6 3-.7-.3-.9.2-2.4 1.1-3.4 1.4-1.6 1.5-2.4.6-4.4-1-2.1-.9-2.5.4-2.5.8 0 1.3-.4 1-.9-.3-.5-1.5-.7-2.6-.4-1.2.3-2.9-.2-4.2-1.3-1.8-1.6-2.1-1.7-1.5-.2.9 2.4-1.7 4.2-3.3 2.3-.8-1-1.7-1.2-2.4-.6s-2.7.7-4.8.2l-3.7-.9-2.6 5.5c-2.1 4.3-3.3 5.5-5.6 6-1.9.3-2.9 1.2-2.9 2.3 0 2.5-8.6 3.6-11 1.5-2.6-2.4-6.7-.9-9.4 3.4-1.3 2-3.1 4.2-4 5-.9.8-1.6 2.8-1.6 4.7 0 2.8-.4 3.4-2.2 3.4-1.3 0-3.1.7-4.1 1.4-1 .8-2.6 1.2-3.6.9-1.2-.3-2 .2-2.4 1.6-.3 1.4-1.3 2.1-2.9 2.1-1.3 0-2.9.5-3.6 1.2-.9.9-1.6.8-2.9-.5-1.4-1.4-1.5-2.1-.6-3.6 1-1.5.9-2-.2-2.5-.8-.3-1.5-1.6-1.5-2.8 0-1.3-1.2-3.1-2.5-4.1-1.4-1-2.5-1.3-2.5-.7 0 .5-.4 1-1 1-.5 0-1-.9-1-1.9 0-1.1-.4-2.2-.9-2.5-.4-.3-.6-1.8-.3-3.3.5-2.5.3-2.6-1.1-1.5-1.4 1.2-2.1.9-4.9-2-1.9-1.8-4.6-4.2-6.1-5.2-1.6-1.1-2.7-2.8-2.7-4.2 0-1.3-.8-2.9-1.9-3.6-1.2-.9-1.7-2.2-1.5-4.3.2-1.6-.1-3.4-.6-4-.5-.6-.5-1.7 0-2.5.6-.8 1-2.9 1-4.5 0-2.4-.7-3.5-3.2-4.9-1.8-1.1-4.2-2.7-5.3-3.7-1.1-1-2.4-1.8-3-1.8-.5 0-2.4-.2-4.2-.6-3.4-.6-7.3 1.9-6.5 4.3.2.7-.1 1.2-.7 1.2s-1.1-.5-1.1-1.1c0-.5-.6-.7-1.2-.3-2.2 1.4-4.4 1.1-4.4-.5 0-.9-.4-2.6-.8-3.9-.6-1.8-.4-2.2 1.2-2.2 3.6 0 6.3-10.8 3.7-15-.5-.8-.1-1.8 1-2.7 1.8-1.2 1.8-1.5.2-6.1-2.3-6.3-2.2-8.9.4-9.7 1.1-.4 1.8-1.3 1.5-2-.2-.7.2-1.6 1-1.9 2-.8 1.8-3.6-.3-3.7-1 0-3.1-.2-4.8-.3-4.5-.4-11.5 2.2-10.8 4 .4 1.2 0 1.3-2.2.4-2.3-.9-2.6-.8-2.2.5 1.1 2.8-1.6 1-7.3-4.6-3.2-3.3-5.6-6.6-5.7-8-.3-3.1-4.1-6.2-7-5.6-1.3.2-2.6 0-2.9-.5-.3-.5-1.1-.3-1.7.5-1.5 1.9-7.7 1.1-7.7-.9 0-.9-1.1-1.4-2.8-1.4-2.9 0-3.1-.3-3.5-5.9-.1-2.1-1.9-4.5-6.6-9-3.6-3.3-6.6-6.8-6.7-7.7-.1-.8-.9-2.3-1.7-3.2-1.5-1.8-1.6-5.5-.2-8.5.4-1.1.3-2.9-.4-4.3-1.1-2.5-1-2.5 1.9-1.9 2.5.6 2.9.4 2.4-1-.8-2.1 1.4-3.7 4-2.9 1.2.4 1.6.2 1.2-.5-.4-.6-.2-1.1.3-1.1.6 0 1.1-.9 1.1-1.9 0-1 .8-2.2 1.7-2.5 1.4-.6 1.5-.9.4-1.6-2.4-1.4.3-10 3-10 .5 0 .9.6.9 1.4 0 .7.7 1.9 1.5 2.6.9.7 1.4 1.9 1.1 2.7-.3.7-.2 1.3.2 1.3.8 0 5.2 6.2 5.2 7.4 0 .4-.5.4-1.1.1-.5-.4-1.8 0-2.8.9-1.8 1.6-1.7 1.8.2 6.1 1.2 2.6 2.8 4.5 3.7 4.5.9 0 2.1.5 2.8 1.2.7.7 2.7 1.2 4.4 1.3 2.6 0 3.3.5 3.8 2.5.6 2.3 1.1 2.5 6.6 2.7 3.2.1 6.8.3 7.9.3 1.1.1 3.3-.2 4.8-.6 2.1-.5 3.6-.1 5.8 1.5 1.6 1.2 3.3 1.9 3.8 1.6.5-.3 1.7.2 2.5 1.1 1.5 1.4 1.6 1.4 1.6-.2 0-1.2.3-1.4 1.3-.6 1.7 1.5 9.7 2.7 9.7 1.5 0-.5-.6-1.5-1.2-2.2-1.1-1.1-1-1.3.5-.8.9.4 1.7.2 1.7-.4 0-.6.9-2.4 2.1-4 1.6-2.3 1.8-3.3 1-4.3-.6-.7-.9-2-.5-2.9.3-.8 0-2.5-.6-3.7-1.4-2.6-.1-4 3.8-4 2.1 0 2.3-.4 1.9-3.9-.4-3.7-.2-4 2.2-4.3 1.5-.2 3.2.4 4.1 1.4.8.9 2.8 2 4.3 2.4 2.3.5 2.9.3 3.4-1.5.5-1.9.8-1.9 3.1-.7 2.2 1.1 2.7 1.1 4.2-.4 1-1 2.1-2.7 2.5-3.9.4-1.4 1.5-2.1 3.1-2.1 1.4 0 4.1-.7 6.1-1.5 3.2-1.3 3.8-1.4 5.2-.1 2.7 2.5 8.6 4.5 11.1 3.9 1.5-.4 2.7-.1 3.5 1.1 1.2 1.5 1.3 1.5 1.8-.6.5-2 1.4-2.3 5.8-2.6 4.2-.2 5.6.1 7.5 1.9 1.3 1.2 2.1 2.5 1.9 3-.6.9 1.5 5.9 2.5 5.9.4 0 1.1 1.6 1.4 3.6.4 2 1.4 3.7 2.4 4 .9.3 2.5 1 3.4 1.5 1 .5 2.4.9 3.3.9.8 0 3.5.7 6.1 1.6 3.9 1.3 4.7 1.3 5.7.1.7-.8 2.3-2.1 3.6-3 2.2-1.5 2.6-1.5 4.6.1 1.2.9 2.2 2.1 2.2 2.6.1.5.7 1.3 1.5 1.7 2.5 1.6 3.8.9 3.8-2.1 0-2.1-.8-3.5-2.5-4.6-1.4-.9-2.3-1.9-2.1-2.2.5-.5-2.7-5.5-5.2-8.1-1.8-1.9-1.1-2.2 2.6-1.1 2 .5 3 .5 2.7-.1-.4-.5-1.3-.9-2.1-.9s-1.4-.5-1.4-1c0-.6-1.3-2.4-3-4.2-3.5-3.6-3.7-5.3-1-7 1.1-.7 2-1.8 2-2.5 0-1.7 1.5-1.6 3 .2 2 2.4 2.7 1.8 2.4-2-.3-3.8-1-5.5-2.5-5.5-.6 0-.7.5-.4 1.1.4.6-.2 1.9-1.3 3-2.5 2.2-8.4 1.7-7.5-.7.3-.8-.5-1.7-2-2.3-1.4-.6-2.8-1.9-3.2-3-.3-1.2-1-2.1-1.5-2.1s-2.5-1.4-4.5-3.1c-1.9-1.7-3.5-2.6-3.5-2.1 0 2.4-4.2 2.2-9.7-.4-3.2-1.5-8-2.8-10.7-3-4.6-.3-8.2-2.7-7-4.6.3-.5.1-.8-.5-.8-.5 0-.8-2-.6-4.6.2-2.7-.2-5.8-.9-7.3-1.4-2.7-1.4-5.3-.1-8.5.5-1.2.3-2.1-.6-2.7-.9-.6-1.5-.4-1.7.6-.3 1.2-2 1.5-7.7 1.5h-7.4l.2-2.7c.2-2.2-.3-2.9-2.1-3.1-1.2-.2-2-.8-1.7-1.3.4-.5-.6-1-2.2-1-4.4-.2-5.7.1-7.9 2.2-2.4 2.2-3.6 2.5-2.8.6.3-.8-.8-2.8-2.4-4.5l-3-3.1-2.3 1.9c-1.3 1.1-3 2.4-3.6 3-.7.6-1.3 1.9-1.3 2.9 0 1.6.7 1.9 4 1.7 2.1-.1 4.2-.5 4.6-.9 1.5-1.5 2-.6 1.6 2.9-.3 2.5.1 3.9 1.2 4.7 2 1.4 1.1 4.8-2.6 9.9-1.9 2.7-1.9 3.4-.8 7.1.7 2.3 1.9 4.7 2.8 5.3 1.3 1 1.4 1.5.4 2.7-1 1.1-.9 1.7.2 2.6 1 .9 1.5.9 1.8.1.2-.6 1.3.7 2.5 2.9 2.1 3.9 2.1 4 .2 4.6-1 .4-1.9 1.3-1.9 2.1s-.4 1.4-1 1.4c-.5 0-1-.5-1-1.2 0-.6-.3-.8-.7-.4-.4.4-1.5-.8-2.5-2.6-.9-1.8-1.7-2.8-1.8-2.2 0 .7-1 1.4-2.3 1.8-1.3.3-3.2 2.1-4.3 4.1-1.7 3.2-2.3 3.5-6.1 3.5-2.3 0-4.5-.5-4.8-1-.9-1.5-2.1-1.2-5.2 1.3-2.7 2.2-6.6 2.8-8.1 1.2-.4-.4-.1-1 .6-1.2 1.7-.7 1.5-3-.4-3.7-2.2-.8-2.6-.8-1.9.5.8 1.2-4 8.5-6.1 9.3-1.8.7-5.9-.9-8.5-3.3l-2.1-1.9 2.2-1.2c1.3-.7 1.9-1.7 1.6-2.6-.4-1.1 0-1.3 1.9-.8 2.1.5 2.5.3 2.5-1.6 0-1.8.3-2 1.4-1.1 1.2 1 1.7.8 2.5-.8.9-1.6.8-2.2-.6-3-1.7-1-1.7-1 0-1.1 3 0 1.2-3.3-3.2-5.8-1.9-1.1-2.8-1-6.1.7-2.3 1.2-4.2 1.6-4.5 1.1-.4-.6-1.4-.6-2.7.1-1.5.8-1.7 1.4-.9 2.2.6.6 1.1 1.9 1.1 2.8 0 1 .6 1.9 1.3 2.2.6.2.9.7.6 1.1-.3.3-1.5-.3-2.7-1.5-1.3-1.1-3-1.8-4-1.5-.9.3-2.3.2-3-.2-.9-.6-.5-1.2 1.3-2.2 1.4-.7 3.7-2.9 5.1-4.7 2.1-2.8 2.3-3.7 1.3-4.9-2.1-2.5.6-3.3 7.1-1.9 2 .5 3.2.4 2.7-.1s-1.3-1-1.8-1c-.5-.1-1.1-.2-1.4-.3-.3 0 .3-1 1.2-2.1 1.6-1.8 1.9-1.8 4-.4 1.3.8 2.8 1.2 3.3.9.5-.3 1.1-.1 1.5.5 1 1.6 2.5 1.2 2.5-.6 0-.9 1-2.7 2.3-3.9 1.2-1.3 2.8-3.1 3.6-4 .7-.9 2-1.4 2.8-1 1.3.4 1.4.3.3-1-.7-.8-2-1.5-3-1.5-.9 0-2.3-1.1-3-2.5-.7-1.4-1.7-2.5-2.2-2.5-.5 0-.6-.5-.3-1 .3-.6 1.5-1 2.7-1 1.7 0 1.8-.2.8-1.5-.7-.8-1.9-1.5-2.6-1.5-.8 0-1.4-.5-1.4-1.1 0-.6.8-.8 1.8-.5 2 .7 3.3-.1 4.9-3.1.8-1.4.9-2.4.3-2.8-.6-.3-1-1.7-1-3 0-1.4-.9-2.9-2-3.5-1.5-.8-1.9-1.7-1.5-3.1.4-1.3.2-1.9-.9-1.9-.8 0-2.4-1.2-3.6-2.7-1.2-1.5-3.1-2.8-4.3-2.8-6.5-.3-6.2-.1-5.8-5.6.3-4.3 0-5.3-1.9-6.6-1.6-1.1-2-2.1-1.5-4.2.5-2.2-.3-3.4-5.1-8.1-5.2-5.1-5.6-5.3-5.2-2.8.3 1.6.1 2.8-.4 2.8-1.4 0 0 5.3 1.7 6.5 2.3 1.8 2.4 7.5 0 7.5s-6.5-2.2-6.5-3.5c0-.7-.6-1.8-1.3-2.4-.9-.7-1.2-2.7-.9-6.3.3-4.7.1-5.6-2.2-7.7l-2.6-2.4v3.6c0 3-.4 3.7-2 3.7-1.1 0-2-.5-2-1.2 0-.9-.3-.9-1.1-.1-1.5 1.5-6.9-1-6.9-3.2 0-2.4-1.6-2.6-4.2-.5-1.4 1.1-2.9 1.6-3.4 1.2-.5-.4-.3 0 .3.8.7.9.9 2.1.5 2.7-1 1.5-7.3-2.7-9.2-6.3-1.3-2.3-2.5-3-5.3-3.2-2.6-.2-3.7-.8-3.7-1.9 0-2.8-5-6.5-7.9-6-3.2.7-5.8-1.1-6.3-4.3-.2-1.6-1-2.6-2.4-2.8-1.2-.2-3.2-1.4-4.5-2.8-2.2-2.4-5.9-3.3-5.9-1.4zm52.8 98.4c1.6.6 2.2.3 2.2-.8 0-1.3.4-1.4 2.4-.4 3.1 1.3 3.9 3.3 2.5 5.9-.8 1.6-1.3 1.8-2.5.8-2.3-1.9-2.8-.3-1.4 4.1.7 2.2 1 4.3.7 4.7-.4.3-.7-.1-.7-1.1s-1.2-2.1-2.7-2.7c-2.2-.7-2.9-1.6-3-4-.1-1.7-.9-4.4-1.8-6.1-1.9-4-1.9-4.5.3-2.6.9.9 2.7 1.9 4 2.2zm-2.4 16c-.1.9.6 1.6 1.7 1.6 2.2 0 3.3 1.6 1.8 2.6-.6.3-1.6 0-2.1-.7-.8-1.2-.9-1.1-.5.1.2.8 1.2 1.7 2.2 1.9 2.2.4 4.6 2.6 3.8 3.5-.3.3.2 1.5 1.2 2.6 2.3 2.6 1.7 3.2-2.3 2.1-2.8-.8-3.2-.7-3.2.9 0 1-.6 2-1.2 2.3-1.7.6-3.9-.3-3.3-1.3.3-.5-.4-.6-1.5-.3-2.8.7-5-1.4-5-4.8 0-1.5-.4-3.9-1-5.3-1.3-3.6 1.3-3.5 4.5.1 2.3 2.7 2.4 2.7 2.5.6 0-1.2.5-2.5 1.1-2.9.8-.4.8-.9 0-1.7-1.5-1.5-1.4-4 .2-3.4.6.2 1.1 1.2 1.1 2.1zm37.1 16.5c1 1.7-1.2 2.1-2.5.6-1-1.2-1-1.5.3-1.5.9 0 1.8.4 2.2.9zm-43 10.1c.3.5-.1 1-.9 1-.9 0-1.6-.5-1.6-1 0-.6.4-1 .9-1 .6 0 1.3.4 1.6 1zm-35.5 9c0 .5-.5 1-1.1 1-.8 0-.7.6.2 1.7 1.3 1.5 1.2 1.5-1.1.2-1.4-.8-2.7-1.5-2.9-1.6-.1-.1 0-.6.4-1.2.8-1.4 4.5-1.4 4.5-.1zm2 16c0 .5-.2 1-.4 1-.3 0-.8-.5-1.1-1-.3-.6-.1-1 .4-1 .6 0 1.1.4 1.1 1zm24.9 16.6c-1 1.2-1.4 1.2-2 .2-1.7-2.6-1.1-4 1.2-2.8 1.6.9 1.8 1.4.8 2.6zm-.1 4.2c.5 1.7-1.3 1.5-2.7-.2-1-1.2-.9-1.4.5-1.2 1 .2 2 .8 2.2 1.4zm149.2 139.8c0 .8-.4 1.2-1 .9-.5-.3-1-1-1-1.6 0-.5.5-.9 1-.9.6 0 1 .7 1 1.6zM210.3 4.22c.5.5 1.6.8 2.3.6.8-.3.3-.7-1-1.1-1.7-.4-2.1-.3-1.3.5zM370.5 31.52c-1 1.2-1 1.8 0 3 .7.8 1.8 1.5 2.6 1.5.7 0 1.7.6 2.1 1.4 1.1 2.1 2.5 2.1 3.6 0 .8-1.4.4-2.3-2.4-4.6-3.8-3.2-4.2-3.3-5.9-1.3z"/><path d="M296.4 41.02c-1.9 1.3-.8 1.8 2.1 1 1.9-.4 2.1-.7.9-1.2-.9-.3-2.2-.2-3 .2zM380.4 45.32c-.4 1.1-.5 4.6-.1 4.2.3-.2 1.3 0 2.3.6 2.6 1.4 2.5-1.1-.1-3.4-1.1-.9-2-1.6-2.1-1.4zM373.5 55.22c0 .4-.7.8-1.6.8-.8 0-1.3.4-.9.9.3.5.1 1.2-.4 1.6-.6.3-1.3 2.6-1.7 5-.3 2.5-1 4.8-1.5 5.1-1.5.9-1 2.2 1.1 2.9 1.1.4 1.8.9 1.6 1.3-.2.4 1.4.7 3.5.7 2.6.1 3.9-.3 3.9-1.3 0-.7.5-1 1-.7 1.6 1 1.1-2.2-.6-3.9-2.3-2.3-3.8-8.6-2.5-9.9 1.6-1.6 1.3-3.4-.4-3.4-.8 0-1.5.4-1.5.9zM347.5 82.82c0 .5.7 1.6 1.6 2.3 1.4 1.2 1.6 1.1 1.3-.5-.4-2-2.9-3.5-2.9-1.8zM342.5 89.12c0 .5.5.7 1 .4.6-.3 1-.8 1-1.1 0-.2-.4-.4-1-.4-.5 0-1 .5-1 1.1zM273.5 141.02c0 .5.7 1 1.5 1s1.5-.5 1.5-1c0-.6-.7-1-1.5-1s-1.5.4-1.5 1zM273.6 150.22c-.1 1.6.4 2.8.9 2.8 1.2 0 1.2-.8 0-3.5-.8-1.8-.9-1.7-.9.7zM268.9 156.12c-.4.7 4.1 2.9 6.1 2.9.8 0 1.1-.7.8-1.9-.3-1.3-1.3-1.8-3.5-1.7-1.6.1-3.2.4-3.4.7zM192.3 210.02c-1.3 2.2-1.3 2.8-.3 2.3.8-.2 1.7-1.4 2.1-2.5.9-3.1 0-3-1.8.2zM181.9 211.62c.4.9.1 2.3-.5 3-1.3 1.5-1.4 1.5 5.7 1.8 3 .1 4-.3 3.7-1.2-.3-.6-1.3-1.2-2.2-1.2-.9 0-2.2-.9-2.9-2-1.5-2.5-4.7-2.8-3.8-.4zM382.9 254.52c-.4.8-1 1.2-1.5.9-.5-.3-.9.2-.9 1 0 .9-.9 1.6-2 1.6s-2-.5-2-1.2c0-.6-.3-.8-.6-.5-.4.4.1 1.9 1.1 3.4 1.9 2.8 2.9 8.6 1.3 7.7-.4-.3-.8.2-.8 1s-.6 1.4-1.2 1.2c-.7-.3-2.9-.7-4.8-1-3.2-.6-3.3-.5-1.5.9 2 1.5 2 1.5.1 3-1.6 1.2-2.2 1.2-3.4.2-1.3-1-1.3-.8 0 1.3 2.1 3.4 3 7.7 1.8 8.5-2.2 1.3 1.2 3.6 4.9 3.4 4.3-.3 6.2.6 8.6 4.3 1.8 3 4 3.6 4.8 1.5.3-.9.7-.9 1.9.1 2.9 2.4 4.1-1 3.5-9.9l-.5-8.1 2.7 2.6c2.8 2.7 5.1 3.4 5.1 1.6 0-.6.7-1 1.5-1s1.5-.4 1.5-.9c0-1.6-2-2.3-3.4-1.2-1.8 1.5-4.5-1.7-5.1-5.9-.2-1.8-1-3.7-1.6-4.1-.9-.5-1-1.1-.2-2.1 1.5-1.8-.4-5.3-4.3-7.9-3.5-2.3-4.3-2.4-5-.4zM389.3 301.72c.4 3 .2 3.5-1.1 3-1.1-.4-1.4-.2-1 .9.7 2 1.3 1.8 5.1-1.4 3.9-3.3 3.5-6.2-.7-6.2-2.5 0-2.7.2-2.3 3.7zM193.5 304.42c0 .9.5 1.6 1 1.6.6 0 1-.4 1-.9 0-.6-.4-1.3-1-1.6-.5-.3-1 .1-1 .9zM190.1 309.62c-.3.7.2 1.5 1 1.8.8.3 1.4 0 1.4-.6s.9-.3 2.1.8c1.7 1.6 2.2 1.6 2.9.4 1.5-2.3 1.2-2.9-1.2-3.4-3.6-.7-5.7-.4-6.2 1zM177.5 309.72c0 1.2 13.5 15.3 14.6 15.3.5 0 1 1.2 1.1 2.7 0 1.5.6 2.9 1.2 3.1.6.2 1.1 1 1.1 1.8s.6 1.4 1.4 1.4c.7 0 1.9.6 2.5 1.4 1.4 1.7 5.4 2.9 4.5 1.4-.5-.7.2-.9 2-.4 2.1.5 2.6.4 2-.6-.5-.8-.1-.8 1.1.2 1.7 1.4 1.8 1.3 1.1-1.5-1.4-6-1.4-7.4 0-7.9.7-.3 1.6-.1 1.9.4.4.6 1.5 1 2.6 1 1.8 0 1.9-.1.3-2.5-.9-1.4-2-2.3-2.4-2-.4.3-2.5-.3-4.6-1.2-2.2-.9-5.2-1.8-6.9-2-1.6-.2-3.3-.7-3.8-1.2-.6-.6-1.9-.6-3.5 0-3 1.2-5.2.5-5.2-1.4 0-.8-.7-2-1.5-2.7-.9-.7-1.3-2.1-1-3.1.5-1.5.1-1.9-1.7-1.9-1.3 0-3.3-.3-4.5-.6-1.3-.4-2.3-.2-2.3.3zm22 22.4c0 .5-.7.9-1.5.9-1.5 0-2-1.2-.9-2.3.8-.8 2.4.1 2.4 1.4zM386.5 310.52c0 .8-.5 1.5-1.1 1.5-.8 0-.8.4.1 1.5.6.8.9 2.3.5 3.5-.3 1.1-.2 2 .4 2 .5 0 .9-2.2.9-5-.1-2.8-.3-5-.5-5s-.3.7-.3 1.5zM220.5 329.42c0 .8 1.4 1.6 3.3 1.9 4.3.6 4.5.2.6-1.7s-3.9-1.9-3.9-.2zM226.5 334.02c0 1.3 1.2 1.9 2.6 1.3 2.1-.8 1.7-2.2-.6-2-1.1.1-2 .4-2 .7zM233 335.02c-.6.9.6 1.3 7.3 2.4 3 .5 4.7-1 2-1.8-3.4-1.1-8.8-1.4-9.3-.6zM306.5 350.02c0 .5.5 1 1.1 1 .5 0 .7-.5.4-1-.3-.6-.8-1-1.1-1-.2 0-.4.4-.4 1zM514 382.02c-.3.5-.1 1 .4 1 .6 0 1.1-.5 1.1-1 0-.6-.2-1-.4-1-.3 0-.8.4-1.1 1zM511.5 385.42c0 .9-.7 1.6-1.5 1.6-.9 0-1.5 1-1.6 2.2 0 1.3-.2 3.3-.3 4.6-.2 2.1-.1 2.1 1.5.6 2-1.8 3.9-1.1 4 1.4 0 .9 1.3 2.7 3 4 3.3 2.7 3.6 2.3 1.2-1.4-1.5-2.4-1.5-2.5.5-3.1 3.2-.8 2.7-2.3-2.3-7.1-2.9-2.9-4.5-3.8-4.5-2.8zM473.7 396.22c.2 1.6 1.2 2.4 3.8 2.9 4.8 1 5.6.2 2.5-2.7-3.4-3.1-6.8-3.2-6.3-.2zM350.5 407.02c0 .5.5 1 1.1 1 .5 0 .7-.5.4-1-.3-.6-.8-1-1.1-1-.2 0-.4.4-.4 1zM394.8 431.42c-1.3.6-2.3 1.3-2.3 1.6.1.9 9 4.7 9 3.9 0-1.5 2.8-1 3.4.6.3.8 1.4 1.5 2.4 1.5 1.5 0 1.8.6 1.5 2.7-.4 2.2-.2 2.5.6 1.3.6-.8 1.1-1.2 1.1-.8 0 .5.8 0 1.8-1 1.9-1.7 1.8-4.7-.1-3.5-.5.3-1.5-.1-2.1-.9-1.4-1.9-5.6-4.1-5.6-3 0 .5-1.3.9-3 .9-2.2 0-3-.5-3-1.8 0-2.4-1-2.7-3.7-1.5zM340.8 437.12c.9.5 1.7 1.6 1.7 2.3 0 .7.9 2.1 2 3.1 1.7 1.5 2.4 1.6 4.5.7 3.5-1.6 3.2-2.5-2-5-4.7-2.3-9.8-3.2-6.2-1.1zM350.1 444.72c-.3.3-.6 1.7-.6 3.1 0 2.5 0 2.5-4.7.5-2.1-.8-1.6 5.4.6 7.6 2.1 2.1 3.6 7.1 2.1 7.1-.5 0-1 .6-1 1.3 0 .8-.9 2.2-2 3.2s-2 2.4-2 3.2c0 .8-.9 2.6-1.9 4.1-1.1 1.5-2.2 3.6-2.5 4.7-.5 1.7-.1 2 2.4 2.2 7.9.5 9 .7 9 1.5 0 .4.7.8 1.5.8s1.5-.7 1.5-1.5c0-2.7 4.2-1.3 8.2 2.7l2 2 1.8-3c1-1.6 2.3-3.3 2.8-3.6 1.8-1.1 4.1.5 3.9 2.7-.1 1.4.3 2.1 1.2 1.9.8-.2 1.8.3 2.3 1 .6 1.1 1 1.1 1.6 0 .5-.7 1.6-1 2.6-.6 1.1.4 2.2 0 3.2-1.5.9-1.2 2.6-2.1 4-2.1 1.7 0 2.4-.5 2.4-1.9 0-1.1 1.2-4.2 2.6-6.8 1.4-2.6 2.3-5.8 2.1-7.1-.5-2.5-.3-2.6 2.4-1.1 1.8.9 1.9.9 1-.9-.8-1.5-.8-2.1.1-2.4.6-.2.9-1.2.5-2.1-.5-1.5-1-1.5-2.6-.5-1.5.9-2.3.9-3.6-.2-1.1-.9-1.3-1.5-.5-2 .7-.5.4-.9-.9-1.3-1.3-.3-1.9-.1-1.4.5.4.8-.5.9-2.8.4-1.9-.5-4.5-1.1-5.8-1.4-1.3-.2-2.1-.1-1.8.4.3.5-2.7.9-6.7.8-5.8 0-7.9-.5-10.4-2.3-1.7-1.2-2.9-2.8-2.6-3.5.3-.9-.6-1.5-2.5-1.9-1.8-.4-3.1-1.3-3.1-2.1 0-1.7-1.4-2.8-2.4-1.9zM401.1 449.12c-2.7 1-5.3 1.6-5.8 1.3-1.4-.9-.9 1.4.8 3 .8.9 1.2 2 .9 2.6-.3.5-.2 1 .4 1 .5 0 1.2-.9 1.6-1.9.3-1.2 1.9-2.1 3.9-2.5 3.5-.7 5-2.4 3.8-4.3-.5-.8-2.3-.5-5.6.8zM393.1 455.42c.3.9 1.1 1.6 1.6 1.6 1.3 0 .5-2.3-1-2.8-.7-.2-1 .2-.6 1.2zM180.8 485.72c-1 .4-1 1 .2 2.6 1.7 2.4 2 7.7.5 7.7-.5 0-1 .9-1 2 0 1.3-.9 2.2-2.5 2.6-2.9.7-3.1 1.6-1 3.4 1.7 1.4.3 5-2 5-.8 0-1.5.5-1.5 1 0 .6-1.3.4-3-.5-3.3-1.7-4.4-1.9-3.6-.6 1 1.6-.5 4.1-2.5 4.1-1 0-1.9.5-1.9 1.2 0 .9-.3.9-1.2 0-.7-.7-2.1-1.2-3.3-1.2-1.2 0-2.7-.6-3.4-1.3-1-1-1.5-.9-2.5.5-.7 1-3.8 2.7-7 3.9-3.3 1.3-6.9 3.6-8.5 5.5-1.6 1.8-3.1 3-3.4 2.8-.2-.3-2.1.5-4 1.6-4.1 2.4-9.1 2.1-14.2-.8-2.3-1.4-3.6-1.6-5.7-.8-1.6.5-2.8 1.6-2.8 2.3 0 2.1-2.8.3-3.4-2.3-.7-2.7-3.1-3.1-5.5-.9-7.4 6.8-8.5 7.4-12.4 6-3.6-1.2-3.7-1.2-3.1 1.1.4 1.5.2 2.4-.5 2.4-.6 0-1.1 1.1-1.1 2.5 0 1.6-.6 2.5-1.5 2.5-2.1 0-5.5 7.5-5.5 12.2 0 3.1-.4 3.8-2 3.8-1.1 0-2 .7-2 1.5 0 .9-.9 1.5-2.5 1.5-2.4 0-2.5.1-1.2 2.7 1.7 3.6 1.1 6.9-1.5 8.7-1.4 1-1.8 2-1.3 3.5.5 1.6-.4 2.6-4.4 5.3-4.2 2.9-4.8 3.6-3.9 5.3.9 1.5.6 2.3-1.6 4.1-2.9 2.5-3.4 5.9-1.1 6.8 1 .3 1.5-.1 1.5-1.2 0-1 .7-2.7 1.5-3.8.8-1 1.5-2.7 1.5-3.7s.8-1.7 2-1.7 2-.7 2.1-1.8c0-1.3.3-1.2 1.1.5.8 1.6 2 2.3 3.8 2.3 1.5 0 3.3.7 4 1.5.8 1 2.5 1.5 4.4 1.3 2.8-.3 3.1 0 3.1 2.7 0 1.7 1 4.4 2.1 6 1.1 1.7 2.8 4.6 3.7 6.5 3.8 7.4 4.9 9 6.8 10 1.1.6 1.7 1.5 1.4 2-.5.8 3.2 4 4.7 4 .5 0 .8-1.9.8-4.3s.5-4.8 1.2-5.5c.9-.9.8-1.6-.4-2.9-2.3-2.8-2.8-5.1-1.7-7.7.8-1.6 1.7-2.2 3-1.9 1 .3 1.7.9 1.4 1.3-.3.5-.1 1.1.5 1.5.6.4 1-.5 1-1.9 0-1.7.6-2.6 1.5-2.6s1.8-.7 2.2-1.6c.4-1.1 1.3-1.3 3.6-.8 2.6.5 2.9.4 2.3-1.1-.5-1.4-.3-1.6 1.1-1 1 .5 2.7.9 3.8 1 3.3.3 6.2 2.3 8.5 6 1.2 1.9 2.6 3.5 3.2 3.5.6 0 .6-.6-.2-1.5-1.5-1.7-.7-1.9 2.1-.5 2.3 1.3 2.5.4.4-1.6-2.2-2.2-1.9-3.7.6-2.4 3.5 1.9 4.7 7.9 1.3 6.6-2.4-.9-1.5.8 1 2 2.1 1 2.5.8 3.6-1.4.9-2 .8-2.7-.2-3.3-1.8-1.1.5-3.3 3.3-3.4 1.4 0 2.8-1.2 4-3.5 1.7-3.1 1.7-3.6.3-5.9-1.6-2.3-1.6-2.4.7-1.7 7.4 2.1 7.6 2 8.9-1.8.6-2 1.8-3.6 2.5-3.6 2.1 0 3.4 3 2.5 6.1-.7 2.4-.5 2.9 2.2 4 4.4 1.8 19.1 2.9 20.5 1.5.3-.3.1-1.1-.5-1.9-1.7-2 2.2-4.1 4.6-2.6 1.5 1 2.3.7 4.5-1.5 2.3-2.3 2.4-2.6.7-2.6-1.3 0-2.2-.9-2.5-2.8-.4-1.5-1.1-3.5-1.6-4.6-1.5-2.7.5-4.5 3.1-2.8 2.7 1.7 4 1.5 4-.5 0-.9.3-1.3.7-1 .3.4 1.2.2 2-.4.9-.9 1.7-.8 2.8.1.8.6 2.2.9 3.2.6 2.2-.7 4.8.8 3.9 2.2-.3.6-.2 1.2.3 1.4.5.1-.2 2.2-1.6 4.6-1.5 2.6-2.9 3.9-3.3 3.2-.4-.6-1.4-.8-2.3-.4-1.2.4-1.4 1.1-.7 2.3.6 1.1.5 2.2-.1 2.8-.6.6.2 2.1 2.1 4.3 1.6 1.8 3 3 3 2.5 0-.4.9 0 1.9.9 1.3 1.2 2.1 1.4 2.6.6.4-.6 1.3-.9 2-.6.8.3 3.3-.4 5.6-1.6 2.4-1.1 6-2.1 8.1-2.2 2.1 0 3.8-.6 3.8-1.1 0-.6.9-1.6 2-2.3 1.1-.7 2-2.3 2-3.6 0-2.8.3-3 4.3-4 2.2-.5 2.7-.3 2.7 1.2 0 2.7 2.1 5 5.3 5.8 2.3.5 2.7.3 2.7-1.5 0-1.2.6-2.1 1.5-2.1 1 0 1.5-1 1.5-2.6 0-2.3.3-2.6 2.9-2.2 2.6.4 2.9.2 2-1.3-1.3-2.5-1.1-3.2.6-2.5 1.2.4 1.4 0 .9-1.9-.4-1.7-.2-2.5.7-2.5 1.1 0 1.1-.3-.1-1-1.2-.8-1.2-1-.1-1 .9 0 1.1-.7.8-2.1-.4-1.5 0-2.3 1.2-2.6 1.3-.3 1.6-1.2 1.3-3.3-.3-2.1.1-3.1 1.8-4 1.6-.9 2.1-1.8 1.7-3.6-.2-1.3 0-2.4.4-2.4.5 0 .9.5.9 1.1 0 .8.4.8 1.5-.1 1.2-1 1.7-.8 2.6 1.3.8 1.7 1.7 2.3 3 2 1-.3 3.5.5 5.6 1.7 3.2 1.9 3.8 1.9 4.5.6 1.2-2.2 3.2-1.1 6.4 3.6 2.4 3.5 3.2 3.9 5.7 3.4 1.7-.3 4 0 5.8.9 2.2 1.2 3.3 1.3 4.7.4 2.1-1.3 7.6-.4 6.7 1.1-.3.5-.1 1.1.5 1.5.5.3 1.1 1.6 1.1 2.8.1 1.7.2 1.8.6.4.3-1.1 1.4-1.7 3.2-1.7 2.2 0 3.7-1.1 6.5-4.7l3.6-4.7-3-2.7c-1.8-1.7-3-3.8-3-5.3 0-1.4-.4-2.6-1-2.6-1.8 0-6 2.3-6 3.3 0 .6-.8.3-1.7-.5-1-.8-3.9-2.5-6.5-3.7-2.7-1.3-5-2.7-5.4-3.2-.3-.5-2.1-.9-4-.9-2.4 0-4.4-.9-7.1-3.3-2.1-1.8-5.4-4-7.3-4.7-1.9-.8-3.9-2-4.3-2.7-.4-.7-1.5-1.3-2.2-1.3-1.8 0-2-1.7-.2-2.3.8-.3.7-1-.7-2.6-2.1-2.3-4.1-2.3-4.1 0 0 .7-1.3 1.7-3 2.2-1.6.5-4.2 1.2-5.7 1.7-2.1.6-3.4.4-5.1-1l-2.4-1.9.2 3c.2 3.3-.9 3.8-2.4 1-1.5-2.7-6.5-4.3-9.8-3-2.8 1-4.6-.2-3.6-2.7.2-.6 0-1.5-.6-1.9-.6-.3-1.1-1.3-1.1-2 0-1.7-8.1-10.5-9.6-10.5-2.1 0-6.5-5.6-5.8-7.4.7-1.8-3-6.6-5.1-6.6-.6 0-2.8-.9-5-2s-4.6-2-5.4-2c-.8 0-2.5-1-3.8-2.2-1.6-1.5-3.9-2.2-7.5-2.5-2.8-.1-5.9-1-6.8-1.8-1.6-1.5-4.3-1.8-6.7-.8zm.7 20.7c0 .3-.4.8-1 1.1-.5.3-1 .1-1-.4 0-.6.5-1.1 1-1.1.6 0 1 .2 1 .4zm-80.5 79.5c.3.5.1 1.2-.5 1.6-.5.3-.7 1.9-.4 3.4.4 1.8.1 3.2-.7 3.6-.7.5-1 .4-.6-.2.4-.6 0-1.7-.9-2.4-.8-.7-2.2-2.5-3-4.1l-1.5-2.8h3.5c1.9 0 3.7.4 4.1.9zM370.5 489.82c0 1.1-1.1 2.4-2.5 3-2.9 1.3-3.2 4.3-1.1 8.4.8 1.6 1.1 2.8.6 2.8-.5 0-1.7 1.5-2.6 3.2-.9 1.8-2 3.5-2.3 3.8-2 1.7-3.1 5.2-2.1 7 .9 1.7.5 2.4-2.9 4.7-2.2 1.6-4 3.4-4.1 4 0 .8-1.4 1.3-3.5 1.3-3.4 0-4.6 1.2-2.5 2.5 1.6 1 1.2 2.3-.9 3-2.8.9-3.3 4.4-1 7.3 2.6 3.3 2.5 7.2-.1 7.2-1.1 0-2-.5-2-1 0-.6-.7-1-1.5-1s-1.5.7-1.5 1.5-.7 1.5-1.5 1.5-1.5.4-1.5.8-1.5 1.2-3.2 1.7c-3.5 1.1-5.5 5.5-2.4 5.5.8 0 2 .8 2.5 1.9.6 1 2.3 2.1 3.8 2.4 1.5.3 3.7.9 4.7 1.3 1.4.5 1.7.4 1.2-.4-.4-.7-.3-1.2.2-1.2.6 0 1.3.7 1.6 1.6.5 1.2 1.4 1.5 4 1 2-.4 3.7-.2 4.1.4.9 1.5 3.4 1.2 5.2-.5 1.9-1.9 3.8-1.4 3.8 1 0 1 1.1 2.2 2.5 2.7 3.5 1.3 12.7-.8 14.3-3.3 1.5-2.5 2.7-2.4 2.7.1 0 1.3.7 2 1.9 2 2.1 0 3.6-2.6 2.1-3.5-1.8-1.1-1-3.6 2-6.1 1.9-1.6 2.7-3.1 2.3-4.1-.4-1.1-.2-1.4.5-.9.7.4 1.8-.7 2.8-2.6.9-1.8 2.6-4.5 3.7-6 1.1-1.4 1.6-3.1 1.3-3.7-.4-.6 0-1.1 1.1-1.2 1 0 1.3-.3.6-.6-.7-.2-1.3-1.2-1.3-2 0-1 .6-1.3 1.6-.9 2.4.9 4.3-2.2 4.4-7.2 0-4 .1-4.2 2-3.2 1.7.9 2.4.7 4-1.2 2.3-2.7 2.4-6.8.5-12.2-.8-2.2-1.2-4.3-1-4.6.2-.4-.4-1.6-1.3-2.6-2-2.1-2.2-2.6-2.2-5 0-.8-.4-1.3-.9-1-.4.3-1.3-.6-1.9-1.9-1-2.2-1.7-2.5-5.9-2.3-3.1.2-5.3.9-6 2-.8 1-2.1 1.4-3.3 1.1-1.2-.3-2 0-2 .7 0 .9-.4 1-1.3.2-.7-.6-2.3-.9-3.4-.6-1.6.4-3-.3-5.2-2.8-1.7-1.8-2.9-3.9-2.6-4.6.3-.7-.5-1.2-2-1.2-1.8 0-2.5.6-2.5 1.8z"/><path d="M397.5 546.02c0 1-.8 2.4-1.7 2.9-1.5.8-1.3 1 1.2.8 3.3-.2 5.5-3.4 3.3-4.9-2-1.2-2.8-.9-2.8 1.2zM313.5 581.32c0 4.1.5 5.8 2 7.2 1.1 1 1.9 2.7 1.8 3.9-.1 3.2 1.9 7.3 4.2 8.6 1.3.7 2 2 1.9 3.3-.2 2.6.8 7.5 2.2 10 1.2 2.2-.3 5.3-2.9 6.1-3.7 1.2-6.3 5.2-7.2 11.2-.4 3.3-1.1 6.7-1.5 7.7-.4 1 0 2.8 1 4.4 2.3 3.5 2.9 8.3 1.1 8.3-.8 0-2.6 1.3-3.9 3-1.4 1.6-3.2 3-4 3-1.6 0-2.9 5.7-1.5 6.6.4.3.4 1.3-.1 2.2-.6 1.1-.4 2 .7 2.9 1.4 1 1.5 1.2.2 1.3-1.3 0-1.3.1 0 1 1.7 1 4-.5 4-2.7 0-.8.4-1.2.8-.9.4.2 1.4.1 2.2-.4 1.1-.7 1.1-1.1.1-2.4-1-1.1-1-2-.1-3.7.8-1.5 1.4-1.8 1.9-1 .6.8 1.5.9 3.4.2 2.9-1.1 3.4-3 1.5-4.9-2-2 .1-2.6 2.2-.7 1.9 1.7 2 1.7 2 0s.1-1.7 1.9-.1c1 1 2.5 1.6 3.3 1.5 2.7-.3 4 .1 3.5 1.3-.2.7 0 2.1.5 3 1.3 2.7-.2 6.8-2.9 7.9-1.3.5-2.1 1.4-1.8 1.9.4.6.1 1.7-.5 2.5-.7.8-1.3 2.8-1.4 4.5-.2 2.4.3 3.2 2.5 4.2 1.7.7 3.1 2.4 3.6 4.3.8 2.8 1.3 3 6.8 3.6 3.7.4 6.3 1.3 6.9 2.2.8 1.3 1.2 1.1 2.3-1 1.1-2.1 1-3.1-.8-7-1.5-3.3-1.8-4.8-1-5.6.6-.6 1.1-2.3 1.1-3.7 0-1.7 1.3-4 3.4-6.2 2.7-2.8 4-3.4 6.4-3 2.5.3 3.5-.2 6.2-3.7 1.9-2.3 4.2-4.1 5.2-4.1 2 0 2 .1.9-5.8-.6-2.9-.5-4.2.3-4.1 3.9.4 8.6-4.2 8.6-8.5 0-.8.7-1.9 1.6-2.4 1.5-.9 1.5-1.4-.4-7l-2-6 2.3-.6c1.5-.4 2.4-1.5 2.7-3.3.6-4.7-.1-6-4.1-7-3.8-1-3.8-1-3.8 2.1 0 1.7.5 3.5 1.1 3.9.6.4-.2.5-1.9.1-1.6-.4-3.5-1.1-4.2-1.6-1.3-1-1.5-6.8-.1-6.8 1.2 0 1-3.4-.4-4.8-.7-.7-1.4-2.3-1.5-3.5-.4-4.6-1.6-8.2-3.1-9.5-2.1-1.6-4.3-1.5-3.6.2.9 2.5-2.7 3.6-6.9 2.1-4.7-1.6-5.5-2.4-3.8-3.4 1.1-.7.8-1.3-1.2-2.5-1.4-.9-2.7-2.5-3-3.5-.3-1.3-1.3-1.7-3.8-1.6-1.9.1-4.2-.2-5.3-.7-1.3-.7-1.6-.7-1.1.1.4.7.1 1.8-.5 2.6-.7.8-1 2.2-.6 3 .7 2-.2 1.9-4.2-.5-1.8-1.1-3.9-2-4.8-2-.8 0-2.6-1.1-4-2.5s-2.9-2.5-3.3-2.5c-.5 0-1.4-1.4-2-3-.7-2-1.7-3-3-3-1.9 0-2.1.6-2.1 5.3zm45.1 28.4c1.3 1.5 1.2 1.5-.8.4-2.4-1.2-2.9-2.1-1.4-2.1.5 0 1.5.7 2.2 1.7zM195 582.02c.3.5.8 1 1.1 1 .2 0 .4-.5.4-1 0-.6-.5-1-1.1-1-.5 0-.7.4-.4 1zM190.4 584.62c-.1.5-.1 1.2 0 1.6 0 .5-.8.8-1.8.8-1.1 0-2.3.5-2.6 1.1-.6.8-4.3 2.8-6.5 3.4-.3 0-1.5.5-2.8.9-1.4.5-2.8.3-3.8-.5-1.2-1-1.7-.8-2.8.7-.8 1-1.2 2.3-.9 2.9.7 1.9-2.6 4-3.9 2.7-.7-.7-1.7-1.2-2.2-1.2-.6 0-.5.4.3.9 2.1 1.4.7 2.6-4.8 4.1-3.2.9-5.1 2-5.4 3.2-.5 1.9-4.2 2.5-5.2.8s-2.5-1.1-2.5 1c0 1.1-.4 2-.9 2-1.1 0-2.5 4.8-2.2 7.3.2 1.1-.7 2.6-1.8 3.4-1.2.8-2.1 2.3-2.1 3.5 0 1.5-.5 1.9-2 1.5-2.2-.6-8 1.9-8 3.4 0 .5-1.5.9-3.4.9s-3.8.5-4.2 1.1c-.4.8-3 1-7.6.7-7.4-.6-9.1-1.3-6.8-2.9 1.2-.9 1.1-1-.4-.5-1 .4-2.5.1-3.4-.6-1.2-1.1-1.6-1.1-2 0-.3 1-.7 1-1.8.1-.8-.6-1.1-1.5-.8-2 .3-.5.2-1.4-.2-2-.5-.8-.8-.8-1.3 0-.9 1.3-6.1-.8-6.1-2.5 0-.6-2.2-1.4-5-1.7-4.1-.5-5.5-1.2-8.1-4.2-1.8-2.1-4-3.5-5.4-3.5-1.2 0-3.4-.9-4.8-2-3-2.4-5.7-2.6-5.7-.5 0 2-.9 1.9-3.2-.2-1.4-1.2-2.1-1.4-2.6-.6-.4.7-1.9 1.6-3.2 2.2l-2.5 1h2.7c3.3.1 3.6.5 4.2 7 .3 2.8.8 5.6 1.1 6.1.3.5 0 2.8-.6 5.3-.9 3-2.1 4.8-4.1 6-1.5.9-2.8 2.3-2.8 3.2 0 .8-.6 1.5-1.4 1.5-.8 0-1.6.7-2 1.5-.3.8-1.2 1.5-2.1 1.5-2.6 0-1.6 1.5 1.8 2.8 1.8.7 4.3 2.5 5.5 4.1 1.2 1.7 3.5 3.2 5.4 3.6 4.9 1.1 9.2 4.4 7.8 6-1.4 1.6 1.4 3.4 4.5 2.9 1.1-.2 3 .7 4.3 1.8 1.2 1.2 3.2 2.3 4.5 2.5 1.2.2 2.7 1 3.3 1.8.6.8 1.5 1.5 1.9 1.5.5 0 1.6.7 2.5 1.5.9.8 3.7 1.6 6.2 1.7 4 .2 5-.2 7.6-3 1.7-1.8 5.2-4.2 7.8-5.3 4.5-2 4.8-2.1 6-.4 1.2 1.7 1.6 1.6 5.6-1.4 2.4-1.7 5.9-4.2 7.8-5.4 4.2-2.7 14.5-6.1 16-5.2.5.3 2-1.4 3.2-4 1.6-3.2 2.7-4.4 3.8-4 1.1.4 2-.5 2.9-3 .7-1.9 2.2-4 3.4-4.6 1.2-.6 3.2-2.3 4.4-3.7 1.8-2.2 2.9-2.6 6.6-2.3 3 .1 4.8-.3 5.6-1.3.8-.9 2-1.6 2.7-1.6.8 0 1.4-.9 1.4-2.1 0-1.6.4-1.9 2.2-1.4 1.7.6 2 .4 1.5-.9-.5-1.2 0-1.6 1.8-1.6 2.2 0 2.5-.4 2.5-3.5 0-3.2.2-3.4 1.9-2.3 1.6 1 2.3.9 4-.6 1.1-1 2.5-1.5 3.2-1 .7.4 1.8-.1 2.6-1.2 1.3-1.8 1.5-1.8 4.3-.2 1.6.9 3.2 1.3 3.5.8.3-.5.1-1.1-.5-1.5-.6-.4-.7-1.2-.1-2.4.7-1.3.4-2-1.2-3.1-1.2-.8-2.5-1.3-2.9-1.2-.5.1-.8-.5-.8-1.3s.4-1.5.9-1.5c.4 0 .9-2.3 1-5 0-4.4-.2-5-1.9-5-1.1 0-2-.4-2-.9 0-1.2-7-8.7-7.1-7.5zM38.5 593.02c-.8.5-1.1 1.2-.7 1.6.4.4.2 1.3-.4 2-2 2.5-.2 4.4 4 4.4 2.9 0 4.4-.6 5.5-2.1.9-1.3 1.9-1.8 2.7-1.3.9.5 1 .2.6-1-.4-1-.7-2-.7-2.2 0-.2-.9-.4-1.9-.4-1.1 0-2.3-.5-2.6-1-.8-1.3-4.5-1.3-6.5 0z"/><path d="M164.2 594.42c-.4 1-.1 1.3.9.9 1.5-.6 1.9-2.3.5-2.3-.5 0-1.1.7-1.4 1.4zM25.3 598.72c-1.4 1.4-2 1.4-3.3.3-1.3-1.1-1.5-1-1 .3.4.8.2 1.8-.4 2.1-1.3.8.7 5.6 2.4 5.6.6 0 2-.7 3.1-1.5 2.5-1.9 4.3-1.9 6.5.1 1.4 1.3 2 1.3 3.8.2 2.5-1.5 2.2-3.2-.5-3.7-1-.1-3.3-1.4-5.1-2.7-3.8-2.9-3.5-2.8-5.5-.7zM9.4 601.92c.6 1 .8 2.1.5 2.3-1 1 4.5 3.8 6.2 3.1 1.2-.4 1.5-.3 1 .5-.4.7-.2 1.2.3 1.2.6 0 1.1-1.1 1.1-2.5 0-2.5-3.2-5.1-5-4-.6.3-1-.1-1-.9 0-.9-.9-1.6-2-1.6-1.7 0-1.9.3-1.1 1.9zM121.6 606.72c-3.1 2.5-4.1 2.7-10.4 2.4-5.9-.2-12.7 1.1-12.7 2.6s7.6 14.1 8.3 13.6c.4-.2.2-1.2-.5-2.1-1.1-1.4-1-1.5.5-.9 1 .4 2.1.7 2.3.7.2 0 .4.6.4 1.4 0 1.5 1 2 6.6 3.1 2.2.4 3.6.1 4.7-.9.9-.9 2.3-1.3 3.2-1 1.9.8 5.7-2.4 4.8-3.9-.4-.6 0-.8 1-.4 1 .3 1.7.2 1.7-.3 0-.6.7-1 1.5-1s1.5-.4 1.5-.9 1.5-1.4 3.3-2.1l3.2-1.1-2.8-1.5c-2-1.1-2.7-2.1-2.4-3.4.6-2.5-4.4-7-8-7-1.5 0-4.3 1.2-6.2 2.7zM13.5 613.02c0 2.7-5.8 8.3-7.8 7.5-1.1-.4-1.3 0-.8 1.9.5 2 .1 2.6-2.2 3.4l-2.7 1 2.6 1c2.5 1 5.6 6.8 4.4 8-.6.7 1.5 3.2 2.7 3.2.5 0 .8-.6.7-1.3-.3-2.6.2-3.7 1.6-3.7 1.7 0 2 1.7.4 2.2-1.4.5 0 3.8 1.6 3.8.7 0 2-1.1 2.9-2.5.9-1.4 2.1-2.3 2.7-1.9.5.3 1.6 0 2.4-.6.8-.6 1.9-.9 2.5-.5.5.3 1-.1 1-.9 0-.9.9-1.6 2-1.6 2.4 0 2.5-.8.5-3.7-.8-1.2-1.2-2.8-.9-3.6.7-2-2.3-3-3.4-1.1-.8 1.4-1 1.4-2.1 0-1.2-1.4-1-1.6.9-1.6 1.6 0 2-.4 1.6-1.5-.3-.8 0-1.5.7-1.5 1-.1-.8-1.9-5.9-5.9-.6-.5-2-1.2-3.2-1.5-1.8-.6-2.2-.3-2.2 1.4zM10 643.02c.3.5.8 1 1.1 1 .2 0 .4-.5.4-1 0-.6-.5-1-1.1-1-.5 0-.7.4-.4 1zM18.8 645.82c1 1 1.7 2.5 1.7 3.2 0 1.1.3 1.1 1.2.2.9-.9.7-1.6-.7-3.2-1-1.1-2.3-2-2.8-2-.6 0-.3.8.6 1.8z"/></g></svg>