<?xml version="1.0" standalone="no"?>
<!DOCTYPE svg PUBLIC "-//W3C//DTD SVG 20010904//EN"
 "http://www.w3.org/TR/2001/REC-SVG-20010904/DTD/svg10.dtd">
<svg version="1.0" xmlns="http://www.w3.org/2000/svg"
 width="439.497992pt" height="895.595327pt" viewBox="0 0 439.497992 895.595327"
 preserveAspectRatio="xMidYMid meet">
<metadata>
Created by potrace 1.15, written by Peter Selinger 2001-2017
</metadata>
<g transform="translate(-808.502008,1468.000000) scale(0.100000,-0.100000)"
fill="#222222" stroke="none">
<path d="M11030 14669 c0 -5 5 -7 10 -4 6 3 10 8 10 11 0 2 -4 4 -10 4 -5 0
-10 -5 -10 -11z"/>
<path d="M11026 14577 c3 -10 9 -15 12 -12 3 3 0 11 -7 18 -10 9 -11 8 -5 -6z"/>
<path d="M11019 14509 c-12 -7 -11 -9 3 -9 12 0 15 -6 10 -22 -8 -33 -44 -68
-69 -68 -13 0 -23 -6 -23 -15 0 -8 -11 -25 -25 -38 l-26 -23 27 -29 c16 -17
22 -31 15 -33 -16 -5 -14 -57 4 -72 10 -8 15 -9 15 -2 0 6 7 9 15 6 10 -4 15
0 15 11 0 9 6 15 12 13 13 -5 29 -63 30 -110 1 -34 3 -34 45 -5 22 14 33 29
31 42 -3 28 12 68 30 81 10 7 12 16 6 25 -10 17 -11 20 -13 58 0 16 -7 36 -14
43 -7 7 -17 29 -23 49 -9 28 -8 38 2 45 7 5 16 23 20 39 7 29 6 30 -13 13 -17
-15 -22 -16 -39 -4 -13 10 -25 11 -35 5z"/>
<path d="M10856 14185 c-3 -9 3 -19 14 -25 24 -13 28 4 6 25 -12 12 -15 12
-20 0z"/>
<path d="M10930 14125 c0 -20 5 -25 25 -25 28 0 29 3 15 31 -15 28 -40 24 -40
-6z"/>
<path d="M10991 14096 c-7 -8 -8 -17 -3 -20 6 -3 12 3 15 14 6 24 4 25 -12 6z"/>
<path d="M10988 14053 c7 -3 16 -2 19 1 4 3 -2 6 -13 5 -11 0 -14 -3 -6 -6z"/>
<path d="M11020 14040 c0 -5 4 -10 8 -10 16 0 31 -47 19 -59 -8 -8 -6 -11 9
-11 11 0 25 -5 30 -10 13 -13 46 -2 38 12 -3 5 -17 13 -30 18 -13 5 -24 15
-24 22 -1 16 -50 53 -50 38z"/>
<path d="M11168 13943 c-2 -10 -12 -18 -23 -18 -23 0 -48 -45 -39 -69 5 -12
10 -13 25 -5 15 7 19 6 19 -6 0 -17 18 -19 54 -6 15 6 37 6 55 1 36 -10 40 2
20 59 -9 27 -15 32 -34 27 -15 -4 -28 1 -40 14 -22 25 -33 25 -37 3z"/>
<path d="M11439 13889 c-9 -9 -19 -23 -21 -30 -3 -8 -11 -14 -19 -14 -35 -2
-66 -20 -94 -54 -20 -25 -36 -36 -47 -33 -10 2 -18 -1 -18 -7 0 -6 -9 -11 -20
-11 -12 0 -26 -12 -36 -32 -22 -43 -21 -43 -39 -28 -8 7 -15 25 -15 41 0 15
-5 31 -11 35 -6 4 -8 20 -5 39 6 28 3 35 -14 40 -11 4 -28 21 -37 38 -9 18
-18 26 -20 19 -3 -6 -9 -9 -14 -6 -14 8 -50 -26 -42 -40 4 -6 8 -31 9 -56 1
-26 9 -60 17 -77 14 -27 15 -32 2 -37 -17 -6 -20 -47 -4 -63 16 -16 -6 -26
-31 -13 -15 8 -19 17 -14 34 6 27 -24 46 -38 24 -12 -20 -10 -26 22 -60 17
-17 30 -37 30 -44 0 -8 5 -14 10 -14 6 0 10 5 10 11 0 7 10 9 25 7 14 -3 25
-1 25 4 0 5 4 7 9 4 5 -4 11 0 14 6 3 9 10 6 22 -9 9 -13 22 -23 30 -23 20 0
34 -31 28 -61 -6 -35 12 -69 37 -69 11 0 20 -4 20 -10 0 -5 -4 -10 -10 -10 -5
0 -10 -7 -10 -15 0 -8 5 -15 11 -15 6 0 8 -8 4 -19 -4 -14 0 -20 19 -25 14 -3
27 -15 31 -25 3 -10 13 -18 23 -17 13 1 16 -6 14 -26 -2 -16 0 -28 5 -28 13 0
46 67 39 78 -4 6 -2 13 4 17 6 4 8 10 5 15 -3 4 1 10 9 13 8 3 17 -1 20 -9 7
-18 22 -18 29 0 3 7 -5 24 -17 37 -27 29 -34 99 -11 99 16 0 39 36 30 49 -3 5
1 11 7 14 10 3 10 10 -2 31 -13 26 -13 29 10 46 22 17 23 19 7 25 -21 9 -22
28 -2 59 9 13 15 28 14 32 -5 29 2 64 12 58 7 -4 9 0 5 14 -5 14 0 28 13 41
12 12 21 29 21 40 0 25 -31 31 -51 10z m-404 -309 c3 -5 -1 -10 -10 -10 -9 0
-13 5 -10 10 3 6 8 10 10 10 2 0 7 -4 10 -10z"/>
<path d="M11550 13900 c0 -5 5 -10 11 -10 5 0 7 5 4 10 -3 6 -8 10 -11 10 -2
0 -4 -4 -4 -10z"/>
<path d="M11500 13884 c0 -10 60 -33 65 -25 3 5 0 13 -6 17 -13 8 -59 14 -59
8z"/>
<path d="M10829 13677 c-1 -7 -1 -24 -1 -39 -1 -15 -7 -29 -14 -32 -8 -3 -14
-11 -14 -17 0 -8 6 -7 18 3 9 8 29 18 43 22 16 3 29 15 32 28 7 27 8 26 -32
38 -22 6 -31 5 -32 -3z"/>
<path d="M10936 13545 c4 -8 8 -15 10 -15 2 0 4 7 4 15 0 8 -4 15 -10 15 -5 0
-7 -7 -4 -15z"/>
<path d="M10946 13493 c11 -54 15 -60 25 -35 6 15 5 31 -1 43 -16 28 -31 23
-24 -8z"/>
<path d="M11957 13440 c-8 -30 33 -129 56 -136 24 -8 37 -44 24 -68 -5 -11
-11 -37 -13 -58 -2 -30 1 -38 14 -38 15 0 15 -2 2 -10 -13 -8 -12 -10 3 -10
10 0 20 -7 23 -15 4 -8 11 -15 17 -15 6 0 20 -8 31 -19 23 -20 91 -38 81 -21
-4 6 1 17 9 26 18 18 20 30 6 39 -15 9 -12 25 4 25 8 0 16 5 18 11 5 14 72
-26 102 -60 12 -13 26 -19 36 -16 12 4 19 -1 23 -15 3 -11 2 -20 -1 -20 -4 0
-16 -14 -27 -30 -14 -21 -28 -30 -47 -30 -16 0 -28 -5 -28 -10 0 -24 -32 -21
-56 5 -14 15 -28 24 -32 20 -4 -4 3 -15 15 -24 14 -12 20 -25 17 -39 -3 -11 0
-30 6 -42 9 -16 9 -25 1 -33 -6 -6 -11 -20 -11 -32 0 -12 -5 -26 -12 -33 -9
-9 -7 -13 5 -18 9 -3 14 -11 11 -16 -4 -6 5 -8 22 -6 25 2 29 0 27 -18 -2 -17
2 -21 17 -17 10 3 26 14 36 24 9 10 25 19 36 19 10 0 18 5 18 11 0 8 4 8 13 1
19 -16 32 -1 33 40 1 28 -3 39 -17 43 -20 7 -26 25 -9 25 6 0 4 12 -4 29 -15
28 -15 28 11 25 35 -4 63 12 63 35 0 25 -11 33 -27 20 -10 -9 -13 -8 -13 4 0
8 7 18 16 21 15 6 15 9 -3 29 -33 36 -35 45 -48 170 -11 107 -15 122 -36 138
-24 18 -24 18 -32 -13 -6 -22 -5 -34 5 -40 9 -7 8 -8 -5 -4 -11 3 -20 0 -23
-9 -9 -21 -31 -19 -44 5 -6 11 -19 20 -30 20 -10 0 -22 5 -26 11 -5 8 -10 6
-16 -5 -12 -21 -90 -15 -113 8 -9 9 -23 16 -30 16 -8 0 -18 6 -22 14 -4 8 -17
15 -28 17 -13 3 -20 13 -22 31 -1 15 -6 35 -11 44 -8 14 -10 13 -15 -6z"/>
<path d="M10860 13402 c0 -16 -42 -22 -64 -10 -19 10 -20 10 -6 -6 13 -16 12
-20 -5 -32 -25 -18 -71 -18 -79 1 -3 8 -18 15 -33 15 -15 0 -37 7 -47 15 -25
19 -66 21 -48 3 7 -7 12 -20 12 -29 0 -9 7 -20 16 -23 8 -3 12 -11 9 -16 -9
-14 15 -42 31 -36 7 2 20 -4 30 -15 9 -10 14 -19 9 -19 -4 0 -2 -7 5 -15 8
-10 27 -15 49 -13 21 1 42 -1 48 -5 6 -4 24 0 39 8 37 19 58 19 94 0 27 -14
30 -14 30 0 0 19 16 20 24 0 8 -23 28 -18 21 5 -4 12 -2 20 5 20 6 0 8 5 5 10
-3 6 1 13 9 16 11 4 14 14 10 30 -5 18 -2 24 9 24 9 0 19 -4 22 -10 3 -5 13
-10 21 -10 11 0 12 4 4 19 -5 11 -10 29 -10 40 0 25 -17 36 -34 22 -10 -8 -17
-7 -26 4 -15 18 -40 20 -40 4 0 -7 -11 -9 -30 -5 -17 3 -30 1 -30 -4 0 -15
-17 -12 -34 6 -9 8 -16 11 -16 6z"/>
<path d="M11749 13373 c-2 -7 -28 -18 -56 -25 -40 -10 -53 -17 -53 -31 0 -13
-5 -16 -24 -11 -13 3 -27 1 -30 -5 -9 -14 -46 -14 -46 0 0 6 -8 8 -20 4 -10
-3 -27 -2 -37 3 -10 5 -31 12 -47 16 -24 6 -27 4 -22 -9 4 -13 1 -15 -13 -10
-17 5 -18 2 -11 -28 4 -19 10 -40 14 -46 4 -6 0 -11 -10 -11 -14 0 -15 -3 -6
-12 21 -21 15 -69 -9 -75 -21 -6 -21 -6 2 -18 24 -13 51 -5 74 22 22 26 48 18
76 -22 16 -22 33 -39 40 -37 6 1 17 -5 25 -15 7 -10 14 -14 14 -9 0 5 6 3 14
-3 19 -16 45 -3 52 25 7 27 8 28 34 14 11 -6 17 -16 15 -23 -6 -18 27 -53 55
-59 14 -3 32 -8 41 -12 12 -5 21 2 33 26 25 51 42 69 59 62 8 -3 18 0 22 6 5
7 11 8 19 1 7 -6 22 -8 35 -4 21 5 21 6 -11 25 -25 16 -36 18 -50 9 -16 -10
-26 -4 -68 38 -36 36 -50 58 -50 77 0 15 -7 35 -15 44 -9 9 -21 37 -28 61 -7
24 -15 38 -18 32z"/>
<path d="M11240 13216 c0 -7 -7 -19 -15 -26 -8 -7 -15 -20 -15 -29 0 -16 -94
-66 -117 -62 -16 2 -17 -11 -3 -25 15 -15 1 -44 -21 -44 -20 0 -26 -15 -9 -25
18 -11 11 -27 -10 -22 -11 3 -18 1 -15 -3 3 -5 0 -12 -5 -15 -8 -5 -6 -13 6
-26 9 -10 14 -19 10 -19 -4 0 -2 -8 3 -19 9 -16 3 -23 -48 -50 -48 -25 -58
-35 -54 -51 6 -22 0 -25 -26 -11 -26 14 -80 -15 -74 -40 4 -13 -2 -21 -20 -28
-14 -5 -28 -15 -32 -20 -3 -6 -17 -8 -29 -5 -21 5 -25 -1 -46 -58 -13 -35 -27
-65 -31 -68 -14 -10 -19 -48 -10 -72 5 -14 5 -31 0 -40 -6 -11 -4 -18 6 -21 8
-4 16 1 19 11 7 21 58 45 80 36 9 -3 16 -14 16 -24 0 -11 5 -22 11 -26 8 -5 6
-10 -5 -16 -11 -6 -22 -6 -30 1 -10 8 -16 5 -24 -12 -19 -38 -18 -61 6 -85 25
-25 47 -29 38 -7 -4 12 0 14 22 9 37 -9 38 -12 17 -28 -18 -13 -18 -13 1 -24
16 -9 17 -15 8 -40 -12 -31 -1 -67 17 -57 5 4 12 -1 15 -10 8 -21 59 -46 77
-39 8 3 18 0 22 -6 5 -8 11 -8 21 1 25 20 17 -48 -8 -73 -21 -21 -22 -22 -1
-31 17 -7 20 -18 19 -68 -1 -38 -5 -59 -13 -59 -6 0 -13 8 -16 18 -3 12 -6 10
-12 -11 -5 -21 -12 -27 -26 -24 -19 5 -54 -25 -42 -36 3 -4 1 -7 -5 -7 -16 0
-24 18 -10 22 6 2 -6 13 -28 25 -34 18 -39 24 -36 52 2 31 -19 44 -34 20 -3
-6 -15 -8 -26 -5 -14 3 -27 -3 -38 -16 -14 -18 -19 -19 -39 -8 -15 8 -21 8
-17 1 4 -6 1 -14 -8 -17 -11 -4 -13 -15 -9 -42 3 -20 9 -41 13 -47 12 -16 -1
-75 -16 -75 -10 0 -13 -7 -8 -24 4 -16 1 -25 -11 -30 -14 -5 -15 -9 -5 -21 7
-8 10 -31 7 -56 -4 -38 -3 -42 24 -51 16 -6 34 -19 40 -29 8 -15 13 -17 28 -7
15 9 17 17 10 36 -12 31 15 66 55 69 26 2 27 1 12 -16 -9 -10 -16 -23 -16 -29
0 -7 -6 -21 -12 -32 -18 -28 3 -45 54 -43 31 2 47 8 59 25 15 19 19 20 33 9
16 -13 17 -12 20 9 0 6 8 15 16 20 9 6 10 10 3 10 -7 0 -17 10 -24 21 -10 20
-9 21 10 16 19 -5 18 -1 -10 31 -29 33 -30 36 -14 48 16 12 16 17 5 44 -13 32
-2 80 19 80 18 0 48 -84 44 -125 -4 -38 -3 -42 35 -63 42 -23 72 -60 72 -88 0
-18 27 -43 46 -44 7 0 15 11 18 25 4 17 11 22 22 18 13 -5 15 -2 9 15 -5 19
-2 22 21 22 25 0 26 2 21 35 l-6 35 32 -17 c33 -18 63 -18 84 -1 9 7 20 2 38
-16 44 -44 114 -25 115 32 0 12 6 22 14 22 17 0 21 5 30 43 5 22 3 27 -12 27
-10 0 -22 3 -26 8 -4 4 -12 8 -17 8 -5 1 -13 2 -19 3 -5 0 -29 22 -54 48 -34
35 -48 44 -58 36 -7 -6 -28 -10 -47 -8 -36 2 -61 26 -61 57 0 10 -5 27 -12 38
-10 16 -9 24 10 49 19 26 20 34 10 57 -10 21 -9 27 2 35 46 27 46 26 27 59
-14 22 -15 30 -5 30 23 0 37 33 24 57 -19 33 -82 83 -115 89 -28 6 -44 24 -21
24 5 0 1 24 -11 53 -11 28 -23 61 -26 72 -3 11 -13 29 -22 39 -12 14 -13 20
-3 23 7 3 19 18 27 34 14 26 14 31 -2 55 -17 27 -17 27 5 15 12 -7 26 -9 31
-6 5 3 11 0 13 -7 6 -17 28 0 28 21 0 9 -5 22 -12 29 -8 8 -8 15 1 26 6 7 10
20 9 27 -2 8 3 13 10 11 17 -3 9 9 -36 64 -19 23 -45 47 -58 53 -13 6 -24 15
-24 21 0 6 -8 28 -19 50 l-18 39 24 -10 c31 -12 36 -11 28 1 -4 6 6 10 23 10
36 0 51 17 59 64 3 21 11 36 19 36 13 0 18 15 17 48 -1 6 4 12 9 12 6 0 8 14
5 34 -4 28 -3 34 9 29 8 -3 14 0 14 7 0 6 5 8 12 4 8 -5 9 -2 5 10 -4 10 -7
22 -7 27 0 5 -7 9 -15 9 -8 0 -15 -6 -15 -14z m-190 -1205 c0 -12 -20 -25 -27
-18 -7 7 6 27 18 27 5 0 9 -4 9 -9z m-255 -140 c3 -5 1 -12 -4 -15 -5 -3 -11
1 -15 9 -6 16 9 21 19 6z m45 -232 c0 -14 -17 -10 -23 5 -4 10 -1 13 9 9 7 -3
14 -9 14 -14z"/>
<path d="M10640 12420 c0 -5 5 -10 10 -10 6 0 10 5 10 10 0 6 -4 10 -10 10 -5
0 -10 -4 -10 -10z"/>
<path d="M10556 12385 c-3 -9 -17 -14 -38 -13 -32 1 -130 -41 -143 -62 -3 -5
7 -15 22 -22 15 -7 34 -21 41 -30 16 -21 71 -52 79 -44 4 3 12 -2 19 -12 12
-15 13 -15 14 9 0 29 -17 50 -35 43 -15 -6 -27 20 -19 40 4 12 12 13 31 5 31
-12 35 -9 37 30 1 16 5 33 9 37 10 10 9 34 -2 34 -5 0 -11 -7 -15 -15z"/>
<path d="M11381 12176 c-8 -9 -20 -16 -28 -16 -8 0 -12 -4 -9 -9 5 -8 72 -8
70 0 0 2 -5 12 -10 22 -9 16 -12 17 -23 3z"/>
<path d="M11286 12152 c-3 -6 1 -13 10 -16 23 -9 28 -2 10 13 -8 7 -17 8 -20
3z"/>
<path d="M10600 12089 c0 -5 5 -7 10 -4 6 3 10 8 10 11 0 2 -4 4 -10 4 -5 0
-10 -5 -10 -11z"/>
<path d="M10601 12052 c-10 -10 -11 -20 -3 -38 8 -17 8 -25 0 -30 -8 -5 40
-34 57 -34 2 0 8 15 14 32 10 28 9 35 -6 46 -10 7 -25 18 -34 25 -12 11 -17
11 -28 -1z"/>
<path d="M10943 11956 c4 -9 -1 -29 -10 -44 -16 -27 -16 -26 11 2 27 31 29 47
6 54 -9 3 -11 -1 -7 -12z"/>
<path d="M11240 11960 c0 -5 5 -10 11 -10 5 0 7 5 4 10 -3 6 -8 10 -11 10 -2
0 -4 -4 -4 -10z"/>
<path d="M10870 11911 c0 -10 19 -25 25 -20 1 2 -3 10 -11 17 -8 7 -14 8 -14
3z"/>
<path d="M10782 11493 c-10 -4 -10 -8 -1 -19 15 -18 29 -18 29 0 0 18 -11 25
-28 19z"/>
<path d="M11133 11473 c3 -5 1 -33 -3 -63 -8 -59 -3 -93 11 -84 5 3 19 -5 31
-18 13 -13 30 -29 40 -36 21 -17 68 -5 68 17 0 12 8 16 33 16 18 -1 38 -4 43
-8 6 -3 30 0 55 7 41 12 42 14 19 21 -14 5 -40 7 -58 6 -18 -1 -40 3 -49 10
-8 7 -25 18 -37 24 -11 6 -25 20 -31 33 -10 22 -35 31 -35 11 0 -19 -20 2 -35
37 -10 23 -20 34 -35 34 -12 0 -19 -3 -17 -7z"/>
<path d="M10826 11410 c20 -33 26 -34 18 -3 -3 12 -12 24 -20 27 -12 5 -11 0
2 -24z"/>
<path d="M10850 11356 c0 -8 4 -17 9 -20 5 -4 7 3 4 14 -6 23 -13 26 -13 6z"/>
<path d="M11470 11304 c0 -11 9 -27 20 -37 25 -21 26 -56 3 -59 -10 0 2 -4 27
-7 31 -4 48 -2 53 7 14 22 -3 50 -33 57 -17 4 -39 18 -50 32 -17 22 -20 23
-20 7z"/>
<path d="M10880 11259 c0 -19 24 -48 41 -49 14 0 15 59 1 65 -27 10 -42 5 -42
-16z"/>
<path d="M9326 11176 c3 -8 12 -17 20 -20 10 -4 14 -18 13 -43 -1 -21 2 -46 6
-55 9 -21 -14 -25 -33 -6 -10 10 -15 10 -21 -1 -7 -11 -10 -10 -18 3 -6 10
-16 14 -26 10 -13 -5 -14 -10 -6 -26 8 -15 17 -18 36 -13 21 5 24 3 18 -15 -5
-14 -2 -20 9 -20 9 0 16 5 16 10 0 6 5 10 11 10 6 0 7 -5 2 -12 -13 -22 -12
-38 3 -38 8 0 14 7 14 15 0 8 8 15 18 15 15 1 16 2 1 13 -14 10 -14 14 -3 25
7 6 18 12 25 12 7 0 8 4 2 13 -5 6 -15 30 -22 52 -15 46 -27 62 -52 76 -15 7
-17 6 -13 -5z"/>
<path d="M10903 11177 c-4 -8 -18 -20 -31 -26 -17 -9 -21 -18 -17 -32 5 -15 1
-22 -15 -26 -14 -4 -20 -12 -18 -27 2 -14 -5 -24 -19 -31 -13 -5 -23 -15 -23
-22 0 -7 -18 -29 -40 -49 -30 -27 -38 -40 -31 -52 7 -13 2 -24 -19 -42 -15
-14 -34 -24 -40 -22 -10 4 -11 -4 -7 -27 7 -34 -9 -81 -28 -81 -8 0 -10 -10
-7 -27 4 -23 2 -25 -14 -19 -40 16 -64 14 -64 -5 0 -12 -7 -19 -20 -19 -11 0
-20 -4 -20 -10 0 -5 -9 -19 -20 -30 -11 -11 -24 -20 -30 -20 -14 0 -13 -5 10
-50 11 -22 20 -41 20 -44 0 -11 -34 -15 -53 -5 -20 11 -20 12 -2 25 18 13 18
14 0 34 -12 14 -22 17 -34 11 -10 -6 -24 -5 -34 0 -14 8 -17 6 -17 -11 0 -11
-5 -20 -12 -20 -6 0 -8 -3 -5 -7 4 -3 15 2 26 11 20 18 35 8 25 -17 -6 -16
-74 -22 -74 -7 0 4 -13 10 -30 12 -20 3 -30 0 -30 -9 0 -7 -5 -13 -11 -13 -18
0 -3 -53 26 -96 17 -25 22 -41 16 -47 -7 -7 -4 -14 9 -21 10 -6 43 -28 74 -48
30 -21 60 -38 68 -38 21 0 41 -39 28 -55 -13 -16 15 -49 36 -41 8 3 20 -6 28
-21 l14 -27 7 35 c7 32 8 33 16 11 5 -13 18 -26 29 -29 11 -3 20 -12 20 -21 0
-12 3 -13 12 -4 14 14 42 17 34 4 -3 -5 12 -22 34 -38 45 -34 65 -76 49 -106
-12 -23 5 -50 27 -41 8 3 14 0 14 -6 0 -6 7 -11 15 -11 9 0 15 -10 15 -26 0
-23 -3 -25 -25 -20 -14 4 -25 2 -25 -3 0 -17 -32 -42 -46 -37 -11 4 -13 -1 -8
-18 3 -13 1 -27 -6 -31 -6 -4 -8 -16 -5 -26 4 -11 1 -26 -5 -34 -6 -8 -9 -19
-5 -25 3 -5 1 -10 -4 -10 -6 0 -11 5 -11 10 0 6 -4 10 -9 10 -13 0 -21 -53
-10 -67 7 -7 6 -14 -2 -18 -6 -4 -15 -2 -20 6 -5 9 -7 2 -7 -18 1 -26 6 -32
29 -37 16 -3 29 -11 29 -19 0 -16 36 -47 55 -47 7 0 17 -4 20 -10 10 -16 45
-12 45 6 0 15 2 15 23 2 22 -15 52 -13 42 2 -2 4 9 10 26 14 19 4 33 13 36 26
5 18 7 18 34 5 19 -10 30 -12 35 -4 4 7 24 8 55 4 42 -6 49 -4 49 10 0 11 7
16 23 15 35 -3 42 -1 66 21 17 16 25 18 36 9 11 -9 23 -6 57 14 l43 25 29 -24
c16 -13 34 -21 41 -19 8 3 9 -11 5 -50 -3 -30 -3 -53 1 -50 4 2 12 -3 19 -11
18 -21 33 -18 27 5 -3 11 -2 20 1 20 15 -1 52 -39 52 -54 0 -8 14 -23 30 -31
17 -9 28 -20 24 -26 -3 -6 2 -20 13 -31 13 -15 15 -22 6 -25 -9 -3 -10 -10 -3
-23 6 -12 16 -17 26 -13 13 5 15 2 10 -15 -5 -16 2 -27 39 -53 25 -18 44 -38
41 -44 -2 -6 2 -22 10 -36 16 -29 18 -103 4 -130 -6 -10 -18 -19 -28 -19 -13
0 -10 -6 12 -25 l30 -25 28 27 c15 15 28 34 28 44 0 9 7 19 15 23 17 6 21 56
5 56 -5 0 -10 5 -10 11 0 7 7 8 18 4 9 -4 30 -10 47 -14 16 -4 34 -16 40 -27
5 -10 20 -29 33 -42 12 -12 22 -28 22 -35 0 -19 44 -40 68 -33 11 4 23 2 27
-4 5 -8 11 -8 21 1 7 6 34 9 58 7 35 -2 46 0 48 12 5 27 84 6 92 -24 8 -31 54
-61 90 -57 38 4 77 41 44 41 -16 0 -88 68 -88 82 0 7 -10 22 -22 35 -15 16
-23 39 -25 75 -3 44 -9 59 -45 102 -27 32 -38 51 -30 54 8 2 -3 18 -28 39 -23
20 -39 41 -37 47 11 28 -121 110 -167 105 -32 -4 -68 11 -101 41 -16 15 -44
32 -62 39 -35 14 -83 79 -83 111 0 13 -12 28 -29 37 -21 13 -31 29 -40 66 -6
27 -11 59 -11 72 0 15 -11 32 -30 45 -16 12 -30 26 -30 31 0 6 -19 35 -42 65
-40 50 -79 74 -125 74 -16 0 -73 49 -73 62 0 6 -12 26 -26 45 -14 18 -31 60
-38 93 -6 33 -18 66 -26 74 -69 65 -89 91 -80 100 7 7 14 6 22 -2 7 -7 26 -12
43 -12 24 0 33 6 41 28 15 35 11 116 -5 136 -9 11 -10 16 -2 16 15 0 -19 32
-55 50 -16 9 -31 24 -33 35 -2 11 -12 26 -22 33 -11 7 -19 19 -19 26 0 23 -31
76 -51 86 -12 7 -19 21 -19 41 0 21 -6 32 -18 36 -21 5 -42 55 -42 97 0 14 -7
38 -16 51 -9 14 -13 32 -9 45 8 26 -29 78 -42 57z"/>
<path d="M9190 11095 c-17 -20 -8 -27 19 -17 19 7 21 10 8 20 -11 10 -17 9
-27 -3z"/>
<path d="M9395 10966 c-3 -9 -7 -23 -10 -32 -3 -9 -11 -14 -19 -11 -8 3 -16
-2 -19 -14 -3 -10 -1 -19 4 -19 5 0 9 -7 9 -15 0 -13 -4 -14 -20 -5 -14 7 -20
7 -20 0 0 -5 4 -10 10 -10 5 0 17 -15 26 -32 9 -18 32 -47 50 -64 26 -25 34
-40 34 -67 0 -23 6 -39 17 -45 11 -7 16 -24 17 -58 1 -43 6 -54 39 -86 20 -20
40 -50 43 -66 3 -17 17 -41 30 -53 13 -12 24 -31 24 -41 0 -10 4 -18 9 -18 6
0 21 -10 34 -22 19 -18 23 -30 20 -55 -3 -19 -11 -33 -19 -33 -8 0 -14 -7 -14
-15 0 -18 -1 -18 -34 -5 -20 7 -26 6 -26 -4 0 -9 -9 -12 -27 -9 -23 3 -25 2
-11 -6 18 -12 14 -51 -5 -51 -6 0 -1 -7 11 -16 12 -8 22 -21 22 -29 0 -7 16
-31 35 -53 26 -29 44 -39 67 -40 37 -1 88 -51 88 -87 0 -31 -10 -56 -20 -50
-4 2 -10 -17 -14 -45 -7 -53 15 -105 44 -105 8 0 16 -8 18 -17 2 -12 -1 -16
-11 -12 -18 7 -47 -22 -47 -47 0 -10 -6 -19 -13 -19 -7 0 -29 -11 -49 -25 -40
-27 -68 -31 -86 -13 -6 6 -17 13 -24 14 -7 2 -25 6 -41 9 -19 4 -26 2 -25 -7
2 -9 -12 -14 -40 -16 -26 -2 -45 -9 -49 -18 -3 -8 -11 -14 -19 -14 -8 0 -11
-6 -7 -16 5 -14 3 -15 -16 -4 -20 10 -23 9 -28 -9 -6 -23 -32 -28 -52 -8 -11
10 -14 10 -18 0 -7 -18 -54 -16 -82 4 -24 16 -24 16 -17 -10 4 -17 2 -27 -4
-27 -6 0 -18 -16 -26 -35 -8 -19 -19 -35 -24 -35 -5 0 -16 -15 -24 -34 -13
-31 -18 -34 -74 -40 -59 -7 -107 -36 -83 -50 13 -8 -8 -46 -26 -46 -6 0 -15
-9 -18 -20 -3 -11 -11 -20 -16 -20 -5 0 -9 -9 -9 -19 0 -13 -11 -24 -35 -32
-23 -9 -35 -19 -35 -31 0 -10 -12 -36 -26 -58 -27 -41 -60 -52 -94 -30 -9 6
-17 5 -22 -3 -6 -9 -8 -9 -8 1 0 7 -4 10 -10 7 -14 -9 -77 11 -96 30 -10 9
-23 13 -33 9 -41 -17 -49 -16 -54 8 -4 20 -4 20 -6 -5 -1 -20 -7 -31 -21 -34
-10 -3 -26 -16 -34 -29 -19 -29 -9 -62 28 -92 15 -12 26 -30 26 -44 0 -28 -41
-78 -63 -78 -14 0 -67 -57 -67 -72 0 -4 -9 -8 -21 -8 -29 0 -59 -18 -59 -36 0
-11 -5 -14 -16 -10 -21 8 -84 -14 -84 -29 0 -15 42 -38 61 -34 18 4 104 -35
114 -50 5 -8 11 -9 19 -2 9 8 19 5 34 -10 12 -11 22 -24 22 -29 0 -6 10 -10
23 -10 12 0 33 -7 46 -17 19 -12 28 -14 42 -5 10 7 24 9 32 6 7 -2 22 4 32 16
10 11 27 20 37 20 10 0 21 7 24 15 8 20 57 19 97 -2 60 -31 98 -34 143 -12 55
26 82 55 66 71 -17 17 -15 31 3 24 10 -3 17 3 21 19 7 30 20 32 36 5 7 -11 20
-20 29 -20 9 0 28 -9 42 -20 33 -26 67 -25 102 2 26 20 29 20 40 5 16 -22 33
-22 37 -1 2 14 8 12 36 -10 17 -15 32 -26 32 -24 0 2 -4 18 -9 35 -5 18 -6 32
-3 32 28 -4 42 3 42 23 0 20 1 21 20 3 25 -23 25 -31 1 -52 -11 -9 -18 -20
-15 -25 3 -4 -2 -11 -10 -14 -17 -6 -22 -34 -7 -34 5 0 11 -9 14 -20 3 -11 1
-20 -4 -20 -5 0 -9 5 -9 10 0 20 -31 9 -41 -14 -11 -24 -68 -46 -118 -46 -12
0 -21 -4 -21 -10 0 -5 -4 -10 -10 -10 -5 0 -10 5 -10 11 0 23 -33 38 -55 26
-11 -6 -24 -11 -30 -12 -5 0 -14 -14 -20 -30 -5 -17 -20 -44 -33 -60 -22 -28
-22 -30 -6 -42 10 -7 25 -13 33 -13 9 0 27 -16 40 -35 13 -20 32 -35 43 -35
10 0 33 -7 50 -16 16 -9 27 -11 24 -5 -4 6 -2 11 4 11 6 0 13 -7 16 -15 10
-24 21 -18 82 44 46 47 61 57 75 50 23 -14 21 -32 -2 -24 -15 5 -24 -1 -35
-24 -9 -16 -25 -33 -37 -36 -12 -4 -30 -14 -40 -23 -11 -9 -27 -17 -37 -17
-11 0 -16 -7 -15 -22 2 -18 -4 -22 -48 -28 -48 -7 -50 -9 -44 -32 4 -19 1 -26
-14 -30 -18 -4 -31 -30 -31 -61 0 -8 9 -12 23 -10 15 2 21 9 19 21 -3 16 1 18
26 12 17 -3 33 -2 36 3 7 12 43 4 69 -13 16 -11 16 -13 -1 -29 -11 -9 -42 -22
-70 -28 -32 -8 -52 -18 -52 -26 0 -10 -7 -12 -25 -8 -14 4 -25 4 -25 1 0 -8
60 -36 73 -34 31 4 75 -15 86 -37 6 -13 15 -24 20 -24 17 0 23 20 10 36 -16
20 -5 28 39 28 20 0 42 6 47 13 9 11 15 9 34 -11 14 -15 28 -26 33 -26 15 0
88 -35 88 -42 0 -5 14 -8 30 -8 25 0 30 4 30 25 0 22 3 25 27 19 14 -4 37 -7
49 -8 14 -1 32 -14 46 -36 13 -19 28 -34 33 -33 13 2 55 -37 65 -62 8 -19 9
-18 9 3 1 15 8 26 20 29 16 4 19 13 16 61 -2 54 -3 57 -33 64 -34 9 -48 23
-32 33 5 3 -3 28 -20 59 -16 30 -27 56 -25 58 2 2 0 29 -4 61 -6 46 -5 57 6
57 8 0 11 -4 8 -10 -3 -5 2 -10 11 -10 10 0 14 3 11 6 -3 4 -2 14 3 24 7 13 4
16 -13 16 -15 -1 -22 5 -22 18 0 11 -6 21 -13 24 -17 5 -15 19 8 42 17 17 18
23 8 40 -11 16 -9 23 14 47 14 15 25 38 23 50 -1 16 4 21 19 20 76 -3 105 3
112 26 4 12 15 29 25 38 11 9 19 21 19 26 0 15 -45 53 -62 53 -19 0 -42 26
-34 39 10 15 -15 25 -57 22 -24 -1 -50 5 -71 19 -18 11 -43 20 -56 20 -12 0
-36 12 -52 26 -22 18 -34 22 -41 15 -14 -14 -40 -14 -32 -1 3 6 1 10 -5 10 -6
0 -13 -7 -16 -15 -7 -17 -34 -21 -34 -5 0 6 -11 23 -25 38 -18 19 -25 38 -25
65 0 34 2 37 19 27 11 -5 27 -7 37 -3 13 5 16 3 12 -9 -4 -9 -2 -20 4 -26 7
-7 6 -17 -2 -32 -6 -12 -9 -24 -6 -28 3 -3 6 0 6 6 0 7 7 12 15 12 9 0 15 9
15 25 0 14 5 25 10 25 13 0 3 46 -16 76 -7 12 -10 31 -8 42 3 11 1 23 -5 26
-6 4 -11 17 -11 29 0 12 -12 32 -27 45 -18 15 -21 22 -10 18 19 -6 24 9 6 20
-7 4 -2 11 12 18 29 14 35 32 13 40 -12 4 -15 2 -10 -9 8 -22 -10 -18 -33 6
-23 24 -36 118 -23 164 6 21 16 31 33 33 13 2 28 7 33 12 13 13 56 -11 56 -32
0 -15 3 -17 19 -8 11 5 33 10 49 10 16 0 35 7 42 15 7 8 10 15 6 15 -4 0 3 18
14 39 16 32 23 38 42 34 13 -3 30 -12 39 -19 12 -11 31 -12 93 -4 55 7 84 7
98 -1 40 -22 82 -29 89 -17 11 18 -26 83 -55 96 -14 6 -26 18 -26 27 0 10 -10
15 -29 15 -24 0 -28 -3 -24 -20 4 -14 0 -20 -10 -20 -26 0 -67 22 -67 37 0 7
-4 13 -9 13 -5 0 -11 9 -14 20 -3 12 -14 20 -26 20 -12 0 -21 6 -21 15 0 8 -6
15 -12 15 -7 0 1 13 19 30 29 27 35 29 82 23 42 -5 51 -3 51 10 0 9 -4 19 -10
22 -5 3 -10 11 -10 17 0 7 5 6 14 -1 12 -10 16 -5 26 25 7 22 38 63 74 98 33
34 70 78 81 99 15 27 26 37 45 37 28 1 70 31 71 52 0 7 4 4 9 -7 5 -11 9 -14
9 -7 1 8 8 11 19 8 13 -5 22 1 30 18 9 21 7 28 -15 50 l-26 26 29 10 c23 8 29
17 31 40 2 21 -1 28 -9 24 -7 -4 -8 -3 -4 4 9 15 -21 72 -38 72 -8 0 -21 11
-29 24 -14 21 -14 26 -2 36 21 17 19 44 -5 65 -13 12 -18 25 -14 37 3 11 -2
31 -11 45 -13 19 -16 38 -12 72 5 46 -13 95 -28 72 -11 -19 -21 -12 -49 29
-14 22 -32 37 -38 35 -7 -3 -38 20 -68 51 -30 31 -76 65 -102 76 -27 11 -48
27 -48 35 0 8 -13 20 -29 26 -16 6 -35 22 -43 35 -7 13 -30 33 -53 44 -22 11
-54 33 -71 50 -28 27 -32 28 -38 11 -7 -17 -8 -17 -20 -1 -10 13 -20 15 -56 8
-28 -5 -50 -4 -57 2 -9 7 -14 6 -18 -6z m-45 -1735 c-6 -13 -7 -20 0 -23 6 -2
1 -11 -10 -20 -19 -17 -20 -17 -20 15 0 37 6 47 27 47 10 0 11 -5 3 -19z m26
-174 c1 -7 5 -21 9 -32 7 -20 6 -20 -9 -1 -9 11 -16 29 -16 40 0 20 12 15 16
-7z m98 -383 c9 -3 16 -12 16 -20 0 -10 7 -13 24 -8 13 3 34 1 45 -6 15 -7 27
-8 40 -1 14 8 25 6 45 -10 14 -11 26 -28 26 -37 0 -13 2 -14 9 -3 12 18 25 -4
16 -27 -5 -13 -8 -14 -14 -3 -7 10 -10 9 -16 -8 -4 -14 -15 -21 -31 -21 -18 0
-24 -5 -24 -21 0 -14 -10 -24 -29 -32 -19 -7 -36 -24 -47 -49 -9 -21 -24 -39
-33 -40 -9 0 -23 -1 -31 -2 -8 -1 -16 -10 -18 -22 -2 -17 -9 -20 -45 -18 -23
1 -36 -1 -29 -3 20 -8 14 -33 -8 -33 -19 0 -20 4 -14 50 4 34 3 55 -6 65 -14
17 -4 111 14 125 6 6 26 22 44 36 18 15 31 32 29 38 -5 11 9 56 17 56 2 0 11
-3 20 -6z m-162 -616 c-6 -6 -19 -8 -28 -4 -16 6 -16 8 6 20 26 13 40 2 22
-16z"/>
<path d="M9395 8410 c3 -5 8 -10 11 -10 2 0 4 5 4 10 0 6 -5 10 -11 10 -5 0
-7 -4 -4 -10z"/>
<path d="M9255 10961 c-4 -7 -13 -10 -21 -7 -10 4 -14 -3 -14 -25 0 -24 -4
-30 -15 -25 -8 3 -15 1 -15 -4 0 -6 6 -10 14 -10 8 0 23 -3 33 -6 10 -3 14 -2
8 3 -12 10 -15 53 -3 53 4 0 17 -9 28 -20 23 -23 26 -7 6 29 -9 16 -15 20 -21
12z"/>
<path d="M11252 10640 c0 -14 2 -19 5 -12 2 6 2 18 0 25 -3 6 -5 1 -5 -13z"/>
<path d="M10312 10189 c-12 -5 -22 -13 -22 -19 0 -6 -10 -14 -22 -19 -21 -7
-20 -9 14 -20 20 -7 50 -26 68 -42 24 -23 37 -29 53 -24 12 4 30 7 40 8 9 1
17 5 17 10 0 4 10 7 22 5 15 -2 24 3 26 15 2 9 -2 17 -8 17 -7 0 -25 9 -41 21
-16 11 -36 19 -43 16 -8 -3 -22 3 -31 13 -21 23 -45 29 -73 19z"/>
<path d="M10500 9830 c-9 -6 -10 -10 -3 -10 6 0 15 5 18 10 8 12 4 12 -15 0z"/>
<path d="M10503 9803 c-9 -3 -8 -11 4 -31 22 -36 56 -63 64 -51 3 6 15 6 31 0
38 -14 53 1 42 41 -8 27 -16 35 -48 42 -29 8 -39 7 -46 -4 -6 -10 -12 -11 -22
-3 -7 6 -19 8 -25 6z"/>
<path d="M10407 9398 c-7 -48 9 -70 17 -23 4 21 3 42 -2 47 -6 6 -11 -3 -15
-24z"/>
<path d="M10334 9359 c12 -8 25 -8 40 -1 18 9 16 11 -19 11 -33 0 -37 -1 -21
-10z"/>
<path d="M10283 9353 c-7 -3 -13 -13 -13 -23 0 -22 -16 -35 -25 -20 -3 5 -14
10 -23 10 -13 0 -14 -2 -3 -9 8 -5 9 -11 3 -15 -6 -4 -15 2 -21 11 -5 10 -20
19 -33 20 -98 10 -161 13 -157 8 12 -11 68 -23 71 -15 4 12 101 -11 111 -27 4
-7 24 -13 43 -13 21 0 33 -4 29 -10 -3 -5 -3 -10 2 -10 4 0 14 13 21 29 8 17
23 31 35 34 21 3 21 4 2 12 -11 5 -22 12 -25 15 -3 4 -11 5 -17 3z"/>
<path d="M11635 8946 c-12 -21 -24 -32 -33 -29 -9 4 -13 0 -12 -13 4 -37 0
-46 -17 -40 -15 5 -14 3 2 -9 18 -14 20 -14 27 5 4 11 16 20 26 20 13 0 22 12
30 39 21 70 8 85 -23 27z"/>
<path d="M11603 8802 c-3 -12 -13 -22 -23 -22 -13 0 -17 -6 -13 -18 3 -13 -7
-27 -32 -46 -29 -23 -35 -33 -31 -52 5 -19 3 -22 -11 -17 -16 6 -16 4 1 -15
11 -12 30 -22 43 -22 21 0 36 -11 70 -53 6 -8 29 -18 50 -22 21 -3 46 -14 56
-22 15 -15 17 -15 17 0 0 10 8 17 20 17 12 0 20 7 20 16 0 11 6 15 20 11 24
-6 25 -5 2 21 -10 11 -31 22 -47 24 -22 2 -31 10 -35 28 -4 15 -14 26 -26 28
-14 2 -25 16 -34 42 -7 22 -21 47 -31 56 -14 13 -16 21 -8 36 6 11 8 23 4 26
-3 3 -8 -4 -12 -16z"/>
<path d="M11775 8630 c4 -6 11 -8 16 -5 14 9 11 15 -7 15 -8 0 -12 -5 -9 -10z"/>
<path d="M9990 8504 c-14 -7 -20 -14 -13 -14 6 0 15 -17 20 -37 6 -28 14 -39
31 -41 21 -3 23 -8 27 -64 1 -23 15 -36 15 -14 0 14 4 15 20 6 14 -7 20 -7 20
0 0 5 -4 10 -10 10 -16 0 -12 40 5 46 8 4 15 12 15 20 0 23 -23 64 -35 64 -7
0 -20 9 -30 20 -21 23 -30 23 -65 4z"/>
<path d="M9933 8476 c7 -15 16 -21 21 -16 12 12 0 40 -18 40 -11 0 -12 -5 -3
-24z"/>
<path d="M8990 8464 c0 -14 3 -14 15 -4 8 7 15 14 15 16 0 2 -7 4 -15 4 -8 0
-15 -7 -15 -16z"/>
<path d="M9962 8381 c-3 -67 -5 -82 -15 -97 -9 -15 19 -38 38 -30 8 3 15 12
15 20 0 7 7 16 15 20 18 7 20 27 3 24 -7 -2 -13 5 -13 14 0 9 -4 20 -8 24 -4
4 -2 13 3 19 13 15 5 37 -18 51 -15 10 -17 5 -20 -45z"/>
<path d="M9740 8396 c0 -9 5 -16 10 -16 6 0 10 4 10 9 0 6 -4 13 -10 16 -5 3
-10 -1 -10 -9z"/>
<path d="M9767 8363 c-14 -13 -6 -31 15 -36 29 -8 32 -3 18 22 -11 22 -22 26
-33 14z"/>
<path d="M9836 8335 c-4 -10 1 -15 14 -15 13 0 18 5 14 15 -4 8 -10 15 -14 15
-4 0 -10 -7 -14 -15z"/>
<path d="M9880 8309 c0 -5 -4 -7 -10 -4 -5 3 -10 2 -10 -3 0 -12 26 -23 34
-15 10 10 7 33 -4 33 -5 0 -10 -5 -10 -11z"/>
<path d="M9750 8296 c0 -9 5 -16 10 -16 6 0 10 4 10 9 0 6 -4 13 -10 16 -5 3
-10 -1 -10 -9z"/>
<path d="M9920 8289 c0 -5 5 -7 10 -4 6 3 10 8 10 11 0 2 -4 4 -10 4 -5 0 -10
-5 -10 -11z"/>
<path d="M10027 8284 c-11 -11 3 -24 24 -24 18 0 19 2 5 15 -16 17 -20 18 -29
9z"/>
<path d="M10103 8262 c-12 -7 -11 -61 1 -80 4 -7 1 -12 -8 -12 -9 0 -16 -5
-16 -11 0 -5 -14 -15 -30 -21 -17 -5 -35 -19 -41 -29 -6 -11 -21 -19 -37 -19
-19 0 -23 -3 -14 -9 12 -7 12 -12 1 -30 -8 -11 -20 -21 -27 -21 -7 0 -10 5 -7
10 3 6 -1 10 -11 10 -12 0 -15 -5 -9 -22 11 -32 9 -66 -4 -118 -14 -52 -7
-105 19 -144 18 -28 18 -30 -2 -75 l-19 -46 21 -17 c12 -10 19 -22 16 -27 -4
-5 -1 -13 6 -17 8 -5 6 -10 -8 -15 -14 -6 -15 -8 -3 -8 9 -1 24 -10 34 -21 10
-11 25 -20 34 -20 14 0 14 -2 1 -10 -12 -7 -12 -12 -2 -22 6 -6 12 -20 12 -29
0 -9 7 -22 16 -30 13 -10 17 -10 24 1 4 7 14 11 22 8 19 -8 42 66 29 90 -7 12
-2 23 19 43 15 15 26 30 23 33 -3 3 2 8 11 12 10 4 14 13 11 24 -4 12 1 19 13
22 21 6 37 81 23 106 -5 9 -1 22 11 34 15 15 16 23 8 38 -6 11 -7 26 -3 33 12
19 3 59 -20 92 -22 30 -32 85 -16 85 4 0 5 15 2 33 -4 24 0 37 16 51 13 12 21
31 21 51 0 38 -24 65 -42 47 -9 -9 -18 -6 -38 13 -14 13 -30 21 -37 17z"/>
<path d="M9746 8224 c-8 -21 -8 -21 7 -27 7 -3 13 5 13 19 2 27 -11 32 -20 8z"/>
<path d="M8966 8111 c-4 -6 -17 -11 -29 -11 -20 -1 -21 -1 -4 -11 14 -8 16
-14 7 -24 -7 -8 -9 -23 -5 -35 5 -14 2 -20 -9 -20 -9 0 -16 -5 -16 -11 0 -5 4
-8 9 -5 5 3 11 -1 15 -9 7 -20 -12 -29 -30 -14 -12 10 -13 9 -8 -4 7 -19 34
-31 34 -16 0 6 9 9 19 6 23 -6 34 15 18 33 -9 10 -9 14 1 17 6 3 12 12 13 21
0 11 2 12 6 4 2 -7 12 -16 22 -21 15 -8 16 -5 13 27 -5 39 -45 92 -56 73z"/>
<path d="M9549 7734 c-11 -13 -10 -20 4 -42 9 -15 22 -39 29 -54 7 -16 18 -28
25 -28 7 0 13 -4 13 -10 0 -5 5 -10 11 -10 5 0 8 4 5 8 -3 5 1 9 9 9 22 0 18
-28 -5 -34 -11 -3 -20 -9 -20 -14 0 -26 87 19 93 47 2 13 1 23 -2 22 -19 -2
-22 4 -11 17 18 22 1 36 -46 38 -39 2 -73 27 -74 55 0 17 -15 15 -31 -4z"/>
<path d="M9757 7704 c-3 -4 -2 -14 3 -24 5 -10 6 -20 3 -24 -3 -3 -2 -6 4 -6
16 0 23 38 9 50 -7 5 -16 7 -19 4z"/>
<path d="M9490 7670 c-13 -8 -12 -10 3 -10 9 0 17 5 17 10 0 12 -1 12 -20 0z"/>
<path d="M9746 7611 c-3 -5 1 -11 9 -14 9 -4 12 -1 8 9 -6 16 -10 17 -17 5z"/>
<path d="M9521 7587 c-12 -15 -7 -55 9 -71 6 -6 10 -7 10 0 0 6 -6 16 -12 23
-11 10 -10 11 5 6 18 -7 24 9 7 20 -5 3 -7 12 -3 20 7 19 -1 19 -16 2z"/>
<path d="M9580 7555 c-10 -12 -10 -15 3 -15 19 0 31 16 18 24 -5 3 -14 -1 -21
-9z"/>
<path d="M9453 7523 c-12 -2 -25 -12 -28 -21 -3 -10 -18 -25 -34 -35 -34 -20
-48 -52 -31 -71 6 -8 9 -19 8 -26 -2 -7 3 -15 10 -17 8 -3 12 8 12 36 0 35 3
41 21 41 17 0 19 3 10 14 -16 19 34 69 61 61 12 -4 18 -1 18 9 0 16 -6 17 -47
9z"/>
<path d="M9284 7399 c-3 -5 0 -18 7 -31 11 -20 13 -20 24 -5 6 9 15 14 18 10
4 -3 7 1 7 9 0 17 -47 31 -56 17z"/>
<path d="M9983 7396 c-27 -13 -28 -19 -8 -36 19 -16 2 -40 -27 -40 -17 0 -18
-3 -8 -15 18 -21 40 -19 40 5 0 10 6 23 13 27 15 8 32 74 19 72 -4 -1 -17 -6
-29 -13z"/>
<path d="M8160 7265 c-8 -9 -8 -15 -2 -15 12 0 26 19 19 26 -2 2 -10 -2 -17
-11z"/>
<path d="M8141 7219 c-1 -9 6 -19 14 -23 9 -3 15 0 15 10 0 8 -4 13 -9 10 -5
-4 -12 0 -14 6 -4 8 -6 7 -6 -3z"/>
<path d="M9905 7210 c-4 -6 -20 -8 -41 -4 -37 7 -40 3 -24 -27 14 -25 -11 -53
-39 -44 -16 5 -18 0 -17 -35 1 -35 4 -40 23 -40 13 0 23 4 23 9 0 5 11 12 24
15 18 4 24 14 29 47 3 22 13 49 23 60 9 10 15 22 12 25 -3 3 -9 0 -13 -6z"/>
<path d="M8148 7120 c-8 -12 -24 -20 -43 -21 -16 0 -24 -3 -17 -6 6 -2 12 -15
12 -28 0 -19 4 -22 22 -17 16 4 29 -3 49 -28 16 -18 26 -37 23 -41 -7 -12 23
-79 35 -79 20 0 12 -85 -9 -113 -17 -21 -18 -26 -5 -31 10 -4 15 1 15 14 0 14
7 20 24 20 33 0 57 -10 50 -21 -3 -5 2 -9 11 -9 8 0 20 -10 26 -22 9 -22 40
-68 74 -113 19 -25 19 -45 -1 -45 -9 0 -14 -6 -11 -12 2 -7 11 -12 20 -12 8 1
21 -9 27 -22 17 -31 60 -41 78 -17 12 17 14 17 43 0 17 -9 43 -17 59 -17 41 0
85 -42 101 -94 14 -48 49 -75 68 -53 6 8 6 18 1 27 -13 20 -12 30 1 30 19 0
89 61 89 77 0 11 5 13 18 8 9 -5 31 -9 47 -10 17 -1 40 -7 53 -14 18 -10 22
-9 22 4 0 8 -8 15 -17 15 -9 0 -38 18 -65 41 -60 51 -95 51 -90 1 4 -40 -16
-50 -61 -29 -17 8 -47 21 -64 28 -34 14 -40 23 -23 34 7 4 6 13 -1 26 -13 25
-5 49 15 49 25 0 26 15 6 57 -19 39 -43 59 -60 48 -5 -3 -11 -1 -14 4 -4 5
-19 3 -36 -6 -17 -8 -28 -19 -25 -24 4 -5 -1 -6 -9 -3 -11 4 -14 14 -10 33 3
15 2 21 -3 14 -12 -17 -36 0 -40 28 -5 31 -9 34 -35 22 -17 -7 -29 -6 -45 5
-14 9 -23 10 -23 4 0 -6 -22 -22 -50 -35 -47 -23 -50 -23 -50 -6 0 11 -4 19
-10 19 -5 0 -10 18 -10 39 0 23 -9 56 -21 76 -20 34 -20 36 -4 61 12 19 14 29
6 37 -6 6 -11 18 -11 27 0 9 -15 21 -35 29 -27 9 -37 20 -42 42 -7 34 -36 39
-55 9z"/>
<path d="M9794 7032 c-15 -10 -24 -52 -12 -52 12 0 38 26 38 39 0 14 -14 21
-26 13z"/>
<path d="M9733 6983 c-7 -15 -13 -33 -13 -41 0 -8 -9 -12 -22 -10 -16 2 -33
-8 -57 -34 -24 -27 -42 -38 -62 -38 -18 0 -29 -5 -29 -14 0 -17 -42 -26 -65
-13 -18 10 -41 -6 -47 -33 -2 -8 -11 -23 -20 -34 -24 -26 -23 -32 8 -52 22
-15 27 -15 35 -3 7 11 9 10 9 -4 0 -12 6 -17 18 -15 9 2 16 11 16 21 -2 20 0
21 26 5 17 -11 22 -10 29 1 6 9 11 10 15 2 11 -17 64 28 71 61 5 22 11 27 25
23 10 -3 21 -1 25 5 3 5 17 10 31 10 19 0 24 -5 24 -25 0 -14 -3 -24 -7 -24
-20 3 -24 -2 -13 -17 18 -21 30 -105 19 -126 -6 -10 -17 -18 -27 -18 -12 0
-11 -4 8 -17 26 -18 130 -26 130 -10 0 5 5 5 12 1 8 -5 9 -2 5 10 -6 14 -3 17
9 12 8 -3 18 -6 20 -6 3 0 2 -4 -1 -10 -3 -5 -1 -10 4 -10 6 0 11 4 11 9 0 5
3 16 6 24 3 9 -3 16 -16 20 -11 3 -20 9 -18 14 3 10 -71 125 -86 135 -49 30
-50 32 -23 64 23 27 24 33 14 67 -7 20 -15 37 -19 37 -5 0 -8 6 -8 13 0 7 -6
21 -12 30 -12 15 -14 14 -25 -10z"/>
<path d="M8728 6844 c13 -24 40 -49 47 -42 3 2 -9 18 -26 34 -24 22 -29 24
-21 8z"/>
<path d="M8725 6740 c4 -6 11 -8 16 -5 14 9 11 15 -7 15 -8 0 -12 -5 -9 -10z"/>
<path d="M9401 6671 c19 -30 39 -38 39 -17 0 9 8 16 17 16 13 0 14 3 5 12 -8
8 -15 8 -27 -2 -12 -10 -18 -10 -32 1 -17 13 -17 13 -2 -10z"/>
<path d="M9375 6620 c-4 -6 -12 -7 -18 -4 -7 4 -9 4 -5 -1 14 -15 -46 -110
-63 -99 -5 3 -9 -1 -9 -10 0 -8 -16 -20 -35 -26 -24 -8 -35 -18 -35 -31 0 -23
-22 -24 -55 -3 -23 15 -25 15 -31 0 -7 -20 -72 -49 -91 -42 -7 3 -13 2 -13 -2
0 -4 -13 -16 -30 -25 -31 -19 -39 -49 -19 -77 9 -13 10 -12 5 3 -6 20 -6 20
54 6 70 -15 74 -17 61 -33 -8 -10 -8 -16 2 -25 18 -14 74 -4 81 15 3 8 15 14
27 14 21 0 21 1 5 19 -17 18 -17 19 0 23 17 3 17 5 -2 23 -12 11 -23 27 -26
35 -3 8 -13 15 -23 15 -10 0 -20 6 -22 13 -9 24 20 11 59 -28 27 -26 39 -46
36 -58 -4 -15 -1 -18 18 -14 17 3 23 -1 26 -19 2 -14 11 -25 22 -27 11 -3 16
0 12 7 -4 6 -3 11 3 11 5 0 12 -6 14 -12 3 -8 6 -6 6 5 1 9 6 26 13 36 9 15 7
25 -11 55 l-23 36 27 0 c14 0 40 -7 57 -16 16 -9 27 -11 24 -5 -4 6 0 11 8 11
23 0 24 9 15 93 -6 54 -6 85 2 99 7 13 7 18 1 14 -6 -3 -13 -2 -17 4 -11 18
-43 31 -50 20z"/>
<path d="M9435 6620 c3 -5 8 -10 11 -10 2 0 4 5 4 10 0 6 -5 10 -11 10 -5 0
-7 -4 -4 -10z"/>
<path d="M9050 6567 c0 -14 -4 -27 -9 -29 -4 -1 -5 -12 0 -23 7 -19 8 -19 8 3
1 12 5 22 10 22 16 0 20 28 5 40 -11 10 -14 8 -14 -13z"/>
<path d="M9056 6475 c4 -8 11 -15 16 -15 6 0 5 6 -2 15 -7 8 -14 15 -16 15 -2
0 -1 -7 2 -15z"/>
<path d="M8763 6291 c-15 -13 -23 -30 -23 -50 0 -24 -6 -34 -23 -40 -26 -10
-137 -26 -151 -22 -6 1 -21 -1 -34 -4 -22 -5 -24 -10 -18 -45 5 -29 3 -40 -7
-40 -21 0 -12 -52 13 -72 13 -11 31 -16 41 -13 39 13 73 -61 49 -105 -9 -16
-18 -21 -36 -17 -13 2 -24 1 -24 -2 0 -4 -17 -8 -37 -9 -47 -4 -50 -7 -25 -28
11 -9 18 -22 16 -28 -3 -7 7 -23 21 -36 14 -13 25 -33 26 -44 0 -12 3 -15 6
-8 2 6 10 12 16 12 16 1 67 46 67 60 0 5 11 10 24 10 13 0 29 7 36 15 10 12
10 15 0 15 -9 0 -7 7 6 21 14 15 16 24 7 37 -13 21 -5 84 10 79 7 -2 22 2 35
9 19 9 29 9 52 -3 24 -11 37 -12 72 -3 24 7 48 15 53 20 6 4 56 19 112 33 94
23 104 24 144 11 23 -8 51 -21 61 -28 19 -14 19 -14 1 -25 -14 -8 -14 -10 -3
-11 8 0 28 -11 44 -25 33 -29 100 -36 90 -10 -4 10 0 15 13 15 10 0 24 9 31
20 13 21 61 27 78 10 6 -6 17 -4 32 6 22 15 23 23 5 72 -3 6 2 12 11 12 46 0
-19 42 -69 45 -28 1 -77 16 -100 30 -35 22 -72 26 -85 10 -10 -12 -10 -18 0
-30 14 -17 21 -16 -88 -19 -41 -1 -76 2 -79 7 -3 5 -21 7 -42 5 -35 -3 -37 -1
-61 49 -21 44 -29 52 -52 53 -20 0 -28 -5 -28 -18 0 -14 -8 -17 -41 -15 -42 2
-88 35 -89 63 -1 14 -23 50 -31 50 -2 -1 -14 -9 -26 -19z m-213 -501 c0 -5 -4
-10 -9 -10 -6 0 -13 5 -16 10 -3 6 1 10 9 10 9 0 16 -4 16 -10z"/>
</g>
</svg>
