<svg version="1" xmlns="http://www.w3.org/2000/svg" width="746.427" height="503.724" viewBox="0 0 559.82 377.793"><g fill="#222"><path d="M102 .943c-.8.5-2.3 1.1-3.4 1.4-1.3.5-1.7 1.2-1.3 2.7.6 2.2-.7 4.1-3.3 5.2-.8.3.1.6 2 .7 3.8.1 8.4 2.9 6.3 3.7-.7.3-1.3 1.5-1.3 2.8 0 1.3-.4 2.7-1 3-.5.3-1 2.2-1 4.2v3.5l-6.7-.7c-3.8-.4-7.6-1.1-8.5-1.6-.9-.5-3.2-.9-5-.9-1.9 0-4.3-.7-5.4-1.5-1-.8-2.7-1.5-3.6-1.5-1 0-1.8-.6-1.8-1.3 0-2-3-4.4-6.4-5.3-2.1-.5-2.7-.4-2.2.5.9 1.4-.6 1.5-2.1 0-.8-.8-1.7-.5-3.2 1-1.2 1.2-1.9 2.5-1.7 3 .8 1.2-4.6 4.8-9.5 6.2-2.4.7-5 2.1-5.6 3-.8 1.1-3.4 2-7.5 2.4-3.5.4-6.6 1.2-7 1.8-.5.8-1.5.4-3.1-1.1-2.9-2.7-6.1-3-5.3-.5 1.4 4.9 1.6 11 .5 13.8-.7 1.6-1.3 3.6-1.3 4.3-.1.8-1.2 1.9-2.5 2.6-1.3.7-2 1.6-1.5 1.8 5.6 3.4 8.9 4.6 14.4 5.1 4.9.5 6.8 1.2 7.9 2.7.8 1.2 2.5 2 4.2 2 1.6 0 2.9.4 2.9.9 0 1.5 6.5-5.3 7.8-8.3 1.2-2.6 1.4-2.7 3.5-1.3 1.2.8 2.1 2.2 1.9 3.1-.3 1.6 2.4 6.5 4.3 7.8.5.4.8 2 .7 3.7-.2 1.6.1 3.2.7 3.6 1.3.8 1.5 4.5.2 4.5-.5 0-1.1.7-1.5 1.5-.8 2.1 2.9 3.9 5.3 2.5 2.9-1.5 4.6-.4 7.1 5 2 4.2 2.1 5.3 1.1 7.8-.7 1.5-1.1 5.2-.9 8 .3 4.5.6 5.2 2.4 5.2 1.2 0 2.7.7 3.4 1.5.7.8.9 1.5.5 1.5s1 1.4 3.1 3.1c5 3.9 7.7 8.3 7.6 12 0 1.9.4 2.9 1.4 2.9.8 0 1.4.4 1.4 1 0 .5 1.2 1.3 2.8 1.6 3.3.9 4.2 2 4.2 6 0 2.2.7 3.4 2.5 4.4 1.4.7 2.5 1.9 2.5 2.5 0 1.8 7.4 7.4 10.3 7.7 3.4.5 5.4 2.3 6.1 5.8.4 2 1.1 3 2.4 3 1 0 3.1 1.3 4.6 2.9 2.6 2.7 2.7 3.2 2 9-.6 5.6-.9 6.1-3 6.1-2.4 0-3.3 2.3-1.4 3.5.6.4.7 1.1.4 1.7-1.4 2.2-1.1 8.3.4 10 .8 1 1.5 3.1 1.4 4.8-.1 2.7.3 3 2.8 3s2.8-.3 2.4-2.5c-.3-1.8 0-2.5 1.1-2.5.9 0 1.5.7 1.3 1.7-.2 1.2 1.1 2.2 4.7 3.5 6 2.2 5.5 2.1 5.5.3 0-.9.9-1.5 2.3-1.5 2.8 0 6.7-3.8 6.7-6.5 0-1.7.1-1.7 2 0 2 1.8 2 1.7 2-1.3 0-2.2.5-3.2 1.5-3.2 1.7 0 1.9.3 3.4 6.5.9 3.4 1.6 4.2 4.3 5 2.9.9 3.3 1.4 3.3 4.6 0 2 .8 4.5 1.7 5.5.9 1.1 1.8 2.6 2 3.4.2.8 1.2 2.2 2.3 3.1 2 1.7 2 1.7.1 3.8-1.1 1.2-1.6 2.4-1.3 2.7 1.1 1.2-1.3 4.3-2.8 3.8-.8-.4-1.5-.2-1.6.2-.1.5-.3 2.7-.5 4.9-.2 2.1-1.2 5-2.2 6.4-1.6 2.1-2.6 2.5-5.8 2.3-2.1-.2-4.9-1-6.1-1.8-3.5-2.2-5-1.7-5.7 1.8-.6 3-.2 3.7 3.5 7 2.2 2.1 3.8 3.8 3.4 3.8-.4 0-.2.6.4 1.3 1.3 1.6-1.7 8.2-4.7 10.3-1.2.8-1.8 2.2-1.6 3.6.5 2.9-3.8 8-6 7.2-1.2-.5-1.6.1-1.6 2.4 0 2.1-.8 3.5-2.6 4.7-2.2 1.4-2.4 1.9-1.2 3.3 1.2 1.5 1.1 1.6-.5.3-.9-.8-1.9-1.2-2-1-.1.2-.9 1.6-1.7 3.1-.7 1.6-2 2.8-2.8 2.8-1 0-1.2.6-.8 2 .3 1.1.9 2.9 1.2 4 .5 1.5.2 2-1.1 2-1.2 0-1.5.5-1 1.7.4 1 1.3 3.4 2 5.3 2 5.3 10.1 14 13.2 14 1.4 0 4.2 1.3 6.3 3 2 1.6 4 2.7 4.3 2.4.3-.3.8.4 1.2 1.5.7 2.2 4 4.5 5.3 3.7 1-.6 4.7 2.2 3.9 3-.3.4 0 1.3.8 2.1.9.8 1.5 3.3 1.5 6 0 3.8-.3 4.5-1.7 4.1-2.1-.5-5.1 2.2-4.5 4 .2.7-.6 1.2-1.8 1.2-1.6 0-2 .4-1.6 1.5.5 1.5-1.9 2.1-7.1 1.6-1.3-.1-2.3.3-2.3.9 0 .5-.7 1-1.5 1-1.3 0-1.4.4-.5 2 1 1.8.9 1.9-1.7.9-2.7-1-2.7-1-.9 1 1.7 1.9 2 1.9 6 .4 2.2-.9 4.6-2.3 5.3-3.1 1-1.3 1.5-1.3 2.8-.2 1.3 1.1 2.4 1.1 4.8.3 6.3-2.2 9.2-2.4 11.2-.9 1.3 1 4.4 1.5 9.2 1.6 6.6 0 7.4-.2 8.8-2.4 2.1-3.2 6.7-5 11-4.3 3.1.5 3.5.3 3.5-1.6 0-1.2.5-2.9 1-3.7.9-1.5 1.1-1.3 1.4 1.2.1 1.1 5.6 3.2 6.3 2.4.5-.5-4-8.6-4.8-8.6-.4 0-1-.8-1.3-1.7-.6-1.6-.6-1.6 1.2 0 1 .9 2.2 1.7 2.5 1.7 1.3 0 .7-3.8-.8-5-1.3-1.1-1.1-1.6 1.2-4 1.4-1.6 4.1-3.1 5.9-3.4 3.9-.8 6.1-3.1 4.6-4.9-.7-.8-.6-1.7.3-3 1-1.5 1.7-1.6 3.8-.6 3 1.4 6.9-.3 6.5-2.9-.4-2.2 6-3.1 7.3-1 .7 1.1 1.2 1.1 2.9 0 1.4-.9 2.6-.9 3.9-.3 2.4 1.3 10.6.8 12.5-.8 1-.8 2.3-1 3.3-.5 3 1.3 6.3 1.1 6.3-.4 0-.8.6-1.2 1.4-.9.9.4 1.7-.2 2.1-1.4.4-1 1.5-1.9 2.6-1.9s3.1-.8 4.6-1.7l2.6-1.7-.5 3.2c-.2 1.8-.1 3.2.4 3.2.4 0 .8 1 .9 2.2 0 1.3.3 1.7.6 1 .4-1 1-1 2.9.3 2.2 1.4 2.4 1.4 3-1 .4-1.6 1.6-2.8 3.1-3.1 1.3-.4 2.9-1.7 3.3-3 .7-1.8 1.7-2.4 3.9-2.4 2.6 0 3.2-.5 4.2-4 .9-3.1.9-4.3 0-5.4-.9-1.1-1-2-.1-3.5.8-1.6.8-2.1-.1-2.1-.8 0-.8-.4.1-1.5 1.1-1.3 1-1.8-.6-3-1-.8-2.2-1.5-2.6-1.5-.5 0-.8-.9-.8-2s-.7-2-1.5-2c-1.8 0-3.9-3.6-2.5-4.5.6-.4.5-1.6-.1-3.3-.6-1.5-1.3-4.3-1.6-6.2-.8-6.1-4.2-11.8-8.9-15.1-3-2-4.4-3.7-4.4-5.2 0-2.5-6.8-6.7-10.8-6.7-1.5 0-2.6-.8-3.2-2.4-1.4-3.8-2.6-3.9-7.4-.5-3.6 2.6-4.8 3-5.9 2-.8-.6-2.1-.9-3-.5-.8.3-1.8.1-2.2-.5-.8-1.4-6.5-1.4-6.5-.1 0 1.5-4-.8-4.7-2.7-.3-.8 0-1.9.8-2.4.9-.5 1-.9.2-.9-2.1 0-4.3-3.1-4.3-6 0-2.8 3.4-9.8 5.3-11.1.6-.4-.9-1.9-3.2-3.4-3.6-2.2-4.2-3-3.7-5.1.5-2 .1-2.8-2.3-4.2-1.7-.9-3.6-2.7-4.3-4-.7-1.3-2.5-2.6-4-2.9-5-1-7.6-9-3.1-9.3 6.5-.4 9.5-.1 10.9 1.1 1.9 1.5 4.4 2.1 4.4.9 0-.4-1-2-2.1-3.5-1.7-2-1.9-2.9-.9-3.5.9-.6.9-1.2 0-3-.7-1.3-.9-3.6-.5-5.6.4-2.6.3-3.4-.9-3.4-1.4 0-2.4-2.6-4.1-10.8-.6-3.1-.6-3.2 1.8-2.3 2.9 1.1 5.3-.8 4.4-3.4-.4-.8.1-1.9 1.1-2.4 1.5-.9 1.4-1-.7-1.1-2 0-2.2-.3-1.3-1.2.7-.7 1.2-2.9 1.2-4.9 0-2.1.5-4.1 1-4.4.6-.3 1.5-2.6 2.1-5.1.6-2.4 1.5-4.4 1.9-4.4.5 0 .5-1.4 0-3.1-1.2-4.2-.6-4.9 3.3-4.3l3.2.6-2.5-2.1c-1.4-1.2-3.8-2.9-5.5-3.8-4.1-2.1-4-2-2.1-4.2 1.6-1.8 1.6-2-.1-3.6-1.1-1.1-1.8-1.4-2.1-.6-.2.6-1 1.1-1.7 1.1s-1.5.9-1.8 2.1c-.4 1.4-1 1.8-1.8 1.3-.9-.5-1-.2-.6.9.7 1.8-1.1 2.7-5.4 2.7-2.6 0-3.4-.9-3-3.3 0-.4-.6-.7-1.4-.7-1.8 0-1.8.1-.6 3.2.8 2.2.6 2.4-2.1 2.6-1.8.2-3.9-.5-4.9-1.4-1.8-1.6-2-1.6-4 .7s-2.1 2.4-3.5.5-1.4-1.9-1.4.3c0 1.2.4 2 .9 1.6 1.4-.8 2.5 1.5 1.3 2.7-.5.5-.8 1.7-.5 2.7.5 1.9 4.3 4.7 4.3 3.1 0-1.4 3.3-1.3 5.3.2.9.7 1.9 2.4 2.2 3.8.8 3.5-3.6 6.6-12.8 8.9-3.9 1-6.5 2-5.7 2.3.8.3 1.2.9.8 1.3-.7.7-2-.2-8.8-6.5-2.8-2.6-7.4-3.8-8.4-2.2-.3.5-3.1.1-6.2-.9-3-1-5.9-1.8-6.2-1.8-4.4.6-8.4-6.9-8.6-16.1l-.1-5.5-4.2-.3c-2.7-.2-5.1.3-6.7 1.3-1.5 1-3.3 1.4-4.6 1-2.8-.9-8.9-7.5-9-9.7 0-.9-1.8-3.2-4-5.1-3.6-3.1-4-3.8-4-8.1 0-3.9.4-4.8 2.3-5.7 3.5-1.6 4.8-4.2 3.7-7.8-.7-2.5-.5-3.1 1.1-3.6 1.8-.6 1.7-.8-.6-4.6-2.5-3.8-2.5-3.9-.5-3.9 1.2 0 3.5.7 5.2 1.6 1.6.9 2.7 1.1 2.4.6-.4-.6-.2-1.3.2-1.6 1.5-.9.1-5.6-1.9-6.7-2.3-1.2-2.4-3.7-.3-6 .9-1.1 1.3-2.3.8-3.1-.4-.7-.9-2.1-.9-3.1-.1-1-1.2-2.5-2.4-3.4-1.8-1.2-2.2-2.2-1.7-4.4.5-2.8.4-2.9-3.2-2.9-2 0-4.2-.4-4.9-.8-1.5-.9-6.3-8-6.3-9.2 0-.5-.8-1.3-1.7-1.8-1.2-.7-1.8-2.7-2.1-7.6-.3-5.1-.9-6.9-2.3-7.6-.9-.6-2.1-2-2.4-3.2-.7-2.3-4.4-6.8-5.4-6.7-.3 0-1.3.4-2.1.9zm146.9 245.9c-1.5.5-4.1-2.8-3.2-4.2.4-.6 1.4 0 2.5 1.4 1.4 1.7 1.6 2.5.7 2.8zm-9.9-.8c0 .5-.9.9-2 .9s-2-.6-2-1.4c0-.9.7-1.2 2-.9 1.1.3 2 .9 2 1.4zm-79.4 1.7c.1.7.2 1.7.3 2.3 0 .5.6.7 1.1.4.6-.3 1 .3 1 1.5 0 1.7-.5 2.1-2.7 1.8-2.9-.3-4.1-3.2-2.9-6.5.7-1.6 3-1.3 3.2.5zm78.1 7c2.6 2.7 3.8 3.3 5.8 2.8 2.2-.6 2.5-.3 2.5 2.2 0 2.1.7 3.2 2.4 4 1.9.8 2.3 1.6 1.8 3.4-.5 2.1-.4 2.2 1.3.8 1.7-1.4 1.7-1.4.2 1.6-2.5 4.9-4 5.6-10.2 5.1-4.9-.4-5.7-.3-6.4 1.4-.6 1.9-.8 1.8-3.1-.6-1.8-2-2.1-2.8-1.2-3.4 1-.6.8-1.7-.9-4.9-1.3-2.3-2.8-4.2-3.5-4.2-.7 0-1.5-1.3-1.9-2.9-.3-1.6-1.3-3.5-2.2-4.3-1.4-1.1-1.3-1.3.8-1.8 1.5-.4 2.3-1.2 2.1-2.3-.2-1.1.7-1.7 3-1.9 3.8-.4 5 .3 9.5 5zm-69.3-3.5c1.3 1.3 3 6.7 2.1 6.7-.2 0-1.4-1.8-2.5-4-2.1-4-1.9-5.1.4-2.7zm16 8.8c-.6 1.1-2.4.2-2.4-1.1 0-.5.7-.7 1.5-.4.8.4 1.2 1 .9 1.5zm1.6 59.3c0 .3-.4.8-1 1.1-.5.3-1 .1-1-.4 0-.6.5-1.1 1-1.1.6 0 1 .2 1 .4zM402.3 53.643c-1.3.9-2.3 2.4-2.3 3.6 0 1.7-.5 1.9-4 1.4-2.2-.3-4.3-.1-4.6.5-.3.5-1.6.7-2.8.4-1.5-.4-3.2.5-5.9 2.9l-3.8 3.5 2.6 4.9c1.4 2.8 2.5 5.6 2.5 6.4 0 .7 1.1 2.4 2.6 3.7 1.8 1.8 2.3 3.1 1.9 4.7-.3 1.3.1 3.3.9 4.6.8 1.2 1.6 4.2 1.7 6.7.1 2.5.8 5.5 1.6 6.8.8 1.2 1.2 2.6.9 3.1-.3.4-.1 2.2.4 4 .7 2.4.4 4.2-1.2 7.9-1.1 2.6-2.5 4.8-2.9 5-.5.2-.6 1.5-.3 2.8.4 1.6.2 2.4-.6 2.4-1.9 0-.7 6.7 2.5 13.5 3.8 8 5 19.9 2.2 22-.9.7-1.7 1.7-1.7 2.3 0 1.8 2.9 2.2 3.9.5.7-1.4 1.2-1.5 2.5-.4.8.7 2.4 1 3.6.6 1.3-.4 2.2-.1 2.6.9.8 2 5.3 3.4 9.3 2.8 2.6-.3 3.6-1.1 4.5-3.3.6-1.6 1.6-2.9 2.4-2.9.7 0 1.5-.6 1.8-1.4.4-1.1 1.2-1.2 2.7-.7 1.2.5 4.6 1.2 7.5 1.6 3.6.5 5.5 1.3 6.3 2.6.5 1 1.7 1.9 2.5 1.9s1.2.4.9 1c-.3.5 0 .7.8.4.8-.3 1.8-.1 2.2.5.3.6.1 1.1-.4 1.1-.6 0-1.1 1-1.1 2.2 0 1.5.3 1.9.8 1.1.6-.9 1.3-.4 2.6 1.7 1 1.8 2.6 3 3.7 3s2.8.8 3.7 1.7c1.6 1.6 1.7 1.5 2-1.2.3-2-.3-3.3-1.7-4.4l-2.1-1.6 2-1.8c2.5-2.1 3.4-2.2 2.7-.3-.3.8.1 1.7.9 2 1 .4 1.2.2.8-.6-.5-.7 0-.9 1.3-.6 1.8.5 2.2 0 2.7-3.4.8-4.9 2.6-7.8 4.9-7.8 1.5 0 1.6-.3.7-2-.9-1.7-.7-2.2 1.3-3.1 1.4-.6 3.3-2.8 4.4-4.8 1.4-2.6 2.5-3.6 4.3-3.6 2.8 0 4.2-2.2 2.9-4.6-1-2-.2-2.9 2.5-2.9 1.9-.1 1.9-.2.4-1.1-2.1-1.2-7.8 1.4-7.8 3.6 0 2-3.9 4-5.2 2.7-.6-.6-1.7-.8-2.4-.5-.8.3-1.4-.1-1.4-1 0-.8.7-1.7 1.5-2.1.9-.3 1.5-1.9 1.5-4.1 0-3.1.3-3.5 2.5-3.5 2.9 0 3.4-2.4.8-3.9-1.7-1-1.7-1 0-1.1.9 0 1.7-.5 1.7-1 0-.6.7-1 1.5-1s1.5-.7 1.5-1.5.5-1.5 1-1.5c1.7 0 1.1 2.9-1 5-2.8 2.8-2.7 5.4.3 4.6 1.6-.4 3.2.3 5.6 2.6 2.9 2.7 4 3.1 7.9 2.9 2.7-.2 4.2.1 3.8.7-.9 1.5.4 4.2 2 4.2.8 0 3.3.9 5.4 2 3.6 1.8 4 1.9 4 .4s.2-1.5 2.1.2c1.2 1 2.4 1.8 2.8 1.6.3-.1.6.8.6 2 0 1.8-.8 2.5-3.7 3.2-4.6 1.2-6 3.6-2 3.6 3.2 0 5.2 1.6 5.2 4.2 0 1 .9 2.3 2 3 1.2.8 2 2.4 2 4 0 2.1.7 2.9 3.5 3.8 1.9.6 3.5 1.6 3.5 2.2 0 2.7 4.1 6.6 7.5 7 3.3.4 7.5-1.9 7.5-4 0-1.1-1.7-3.4-2.4-3.3-.3.1-.5-.2-.3-.7.1-.4 2.3-.7 4.8-.7 3 0 5.3-.6 6.6-1.8 1.1-.9 2.5-1.7 3.1-1.7.7 0 1.2-.9 1.2-2s.5-2 1.1-2c.5 0 .7-.5.4-1-.3-.6.1-1 .9-1 1.6 0 3.3-4.3 2.7-6.9-.1-.7.2-1 .8-.6 1.3.8 1.4-3.4.2-5.4-.6-.9-.4-2.3.7-3.8 1.4-2.3 1.4-2.7-.2-5.4-.9-1.6-1.6-3.7-1.5-4.7.4-2.9-1.2-5.2-3.6-5.2-1.2 0-2.9-1-3.7-2.2-1.3-2-1.7-2.1-4.6-.9-1.9.8-3.2 2.1-3.2 3.2 0 2.5-1.5 3.2-3 1.4-.7-.8-.9-1.5-.4-1.5.4 0-.2-1-1.3-2.3-1.2-1.2-2.4-3.7-2.8-5.5-.5-2.5-1.2-3.2-3-3.2-1.2 0-3.9-.7-6-1.5-2-.9-4.6-1.3-5.7-.9-1.4.4-2.4 0-3.4-1.5-.9-1.2-2.2-2.1-3-2.1-.8 0-1.4-1-1.4-2.4 0-3-4.4-11.9-5.3-10.9-1.1 1-13.6-5.7-14.8-7.9-.7-1.2-1.4-1.6-1.8-1.1-.9 1.6-11.1.4-11.1-1.3 0-.8-.4-1.4-1-1.4-.5 0-.7.6-.4 1.4.3.7-.2 1.6-1.1 2-1.4.5-1.3.9.6 3.5 1.1 1.6 2.2 4.3 2.4 6 .1 1.6.7 3.6 1.2 4.3.6.7 1.8 2.7 2.7 4.5 1.3 2.7 1.3 3.2.1 3.7-.8.3-1.7.1-2-.4-1-1.6-4.5 1.3-4 3.2.4 1.1-.1 1.9-1.4 2.3-2.6.8-4.1-.1-4.1-2.5 0-2.5-1.7-3.5-2.3-1.3-.4 1.7-.5 1.7-.6 0-.1-1.1-.9-1.7-2.3-1.6-1.3 0-1.7.3-1 .6.6.2 1.2 1.2 1.2 2 0 1.4-.2 1.4-1.8 0-1-1-3.3-1.7-5.2-1.7-1.9 0-3.8-.7-4.5-1.7-1.1-1.5-1.4-1.3-2.4 2.2-.6 2.2-1.1 4.8-1.1 5.7 0 .9-.4 1.9-.8 2.2-.5.3-.7 1.9-.4 3.5.3 2.1 1 3.1 2.6 3.3 2.9.4 2.7 2-.5 3.5-2.5 1.2-3.9 4.3-4.3 9.5 0 .9-1.7 2.7-3.7 4.1-3.9 2.7-9.7 2.6-11.3-.1-.7-1.2-1-1.2-1.7-.1-.7 1.1-.9 1.1-.9.1 0-1.6-2.4-4.2-3.9-4.2-.7 0-.9-1-.5-2.5.4-1.7.2-2.5-.7-2.5-.7 0-1-.2-.7-.5.3-.3 2.3.2 4.3 1.2 2.9 1.4 3.9 1.5 4.2.5.3-.6 1.1-1.2 1.8-1.2.8 0 1.7-.9 2-2 .3-1.1 1.1-2 1.6-2s.7-1.5.5-3.3c-.3-1.7-.5-3.5-.5-3.9-.1-.4-.9-.7-1.8-.6-4.2.3-6.4-.3-6.9-2-.3-.9-1-2.5-1.6-3.6-.6-1.2-.6-2.1 0-2.5.5-.3 1.2-2.2 1.6-4.1.6-3.3.3-3.8-4.4-7.9-2.8-2.4-5-4.9-5-5.5 0-.7-1.3-2.7-3-4.6-1.6-2-2.9-4.7-3-6.3 0-3-2.4-5.8-6.9-8.1-2.1-1.2-3.2-2.6-3.6-5-.5-2.3-1.4-3.6-2.7-3.9-2.2-.6-1.9-3.4.2-2.9 1.1.3 1.1 0 0-1.2-1.4-1.8-2.4-2.1-1.4-.5.4.7.1 1-.7.7-.8-.3-1.4-1.3-1.4-2.4 0-1-.4-2.5-.9-3.2-.8-1.3 2.4-5 6-7 .9-.5 1.4-1.8 1.2-2.9-.3-1.9-.5-2-2.5-.6zm78.7 67.8c0 .8.5 1.5 1 1.5.6 0 1 .5 1 1 0 .7-.6.7-2 0-2.1-1.1-2.8-4-1-4 .6 0 1 .7 1 1.5zm-28.1 44.4c.8.5 1.5 1.9 1.6 3 .1 1.5-.4 2.1-2.1 2.1-2.4 0-3.7-2.1-2.8-4.5.7-1.7 1.3-1.8 3.3-.6z"/><path d="M450.6 168.243c.3 1 .9 1.5 1.2 1.2.3-.3 0-1.1-.7-1.8-1-.9-1.1-.8-.5.6zM4.5 53.943c-.3.5.3 1 1.4 1 1.2 0 2.1-.5 2.1-1 0-.6-.6-1-1.4-1-.8 0-1.8.4-2.1 1zM0 56.443c0 2.7.1 2.8 2.4 1.9 2.2-.8 2-2.1-.4-3.4-1.8-.9-2-.8-2 1.5zM1 61.843c0 .5.5 1.3 1 1.6.6.3 1 .2 1-.4 0-.5-.4-1.3-1-1.6-.5-.3-1-.2-1 .4zM221 83.343c0 .2.8 1 1.8 1.7 1.5 1.3 1.6 1.2.3-.4s-2.1-2.1-2.1-1.3zM472 90.843c0 .6.5 1.3 1 1.6.6.3 1-.1 1-.9 0-.9-.4-1.6-1-1.6-.5 0-1 .4-1 .9zM219 92.943c-.7.5-.6 1.1.5 2 .8.7 1.5 1.9 1.5 2.7 0 1.1.4 1.1 2 .3 2.8-1.5 2.6-4.7-.4-5.2-1.4-.3-3-.2-3.6.2zM225.5 99.943c.3.5-.1 1-.9 1s-2.7 1.1-4.2 2.5-3.8 2.8-5 3.1c-1.3.3-3 1.7-3.8 3-1.9 2.8-2 3.7-.3 3.1.6-.2 1.2-1 1.2-1.8 0-.9 1-1.4 2.5-1.3 1.5.1 3.5-1 5.2-2.7 2.6-2.7 5.8-3.2 8.6-1.5.8.5 1.2-.3 1.2-2.2 0-1.8-.6-3.2-1.6-3.6-2.3-.9-3.6-.7-2.9.4zM498.1 159.743c1.2 1.9 4.9 1.9 4.9 0 0-.5-.6-.8-1.2-.5-.7.2-2.1 0-3.1-.5-1.6-.8-1.6-.7-.6 1zM385.5 166.143c-1.7 1.7-2.1 1.7-3.1.3-1.9-2.6-4.2-1.7-5.4 2.2-.7 2.1-2.4 5-3.8 6.5-2.1 2.3-2.8 2.5-4 1.5-1.3-1-1.4-.8-.8 1 .4 1.3.1 3.4-.8 5-1 2.1-1.1 3.4-.4 4.7.5 1 .8 2.6.5 3.5-.2 1 .9 3.5 2.4 5.6 3.2 4.3 3.7 7.3 1.4 8.2-1.2.4-1.5 1.6-1.2 4.4.2 2.2.6 4.2.9 4.5 1 .9 5-5.6 4.5-7-.3-.8-.3-1.7 0-2 .4-.3.7-3 .7-5.9.1-3.4.9-6.7 2.4-9.5 2-3.8 2.7-4.3 4.8-3.8 1.8.5 2.4.2 2.4-.9 0-.9.9-1.9 2-2.3 1.8-.7 1.8-1 .6-3.4-1.6-3-1-7.7 1-8.5 2-.8 1.7-5-.3-5.5-1-.3-2.7.4-3.8 1.4zM439 175.943c0 .6.7 1 1.5 1s1.5-.2 1.5-.4-.7-.6-1.5-1c-.8-.3-1.5-.1-1.5.4zM544.8 178.243c-3.2 1.9-3.7 2.7-3.6 5.4.2 4.4 3.6 4.6 6.2.2 1.3-2.3 2.1-2.7 3.1-1.9.9.8 1.4.7 1.8-.4.4-.9.2-1.8-.3-2.1-.5-.3-.7-1.2-.3-2 .8-2.1-2.4-1.7-6.9.8zM353.2 218.643c-1.3 1.4-2.9 2.2-3.8 1.9-.9-.4-1.8.3-2.4 1.9-1.1 2.8-1 2.8-4.3 1.6-1.8-.7-2.6-.5-3.5 1-.7 1.1-2.3 1.9-4.1 1.9-1.5 0-3.6.9-4.6 2-1.4 1.5-2.7 1.9-4.9 1.6-1.7-.2-3.1-.5-3.1-.6 0-.1-.8-.3-1.8-.5s-2.7-1.1-3.7-2c-2.2-1.9-6.2-1.2-5.4 1 .4 1-.4 1.5-2.8 1.7-1.8.2-3.3.7-3.3 1.3-.1 2.4-2.4 4.7-6.1 6-2.1.8-3.5 1.4-3 1.5.5 0 .4.6-.2 1.2-.6.7-.8 2.5-.5 3.9.4 2.3.8 2.6 3.1 2 3.4-.9 5.9-5.5 4.2-7.7-.9-.9-.9-1.4-.2-1.4 1.4 0 3.4 3.5 2.5 4.3-.3.4 0 1.3.7 2.2 1.7 2.1 7.2 1.9 10.2-.4 1.3-1.1 3.5-1.9 4.8-1.8 1.4 0 6.4-.3 11.1-.7 6-.5 8.9-.4 9.4.3.4.8 1.5.5 3.2-.9 1.4-1.1 3.6-2 4.9-2 1.4 0 2.5-.8 2.9-2 .3-1.1 1.5-2 2.6-2 1.6 0 1.8-.5 1.3-2.4-.5-2.1-.3-2.4 1.6-1.9 1.4.4 2 .1 1.8-.8-.2-.7.3-1.4 1-1.5.6-.1 1.6-.2 2.1-.3.5 0 .8-2.5.7-5.4l-.3-5.2-3.9-.2c-3-.1-4.4.4-6.2 2.4zM368.7 218.043c.4 1.3.8 1.8 1.1 1 .2-.7-.1-1.8-.6-2.3-.8-.8-.9-.4-.5 1.3zM268 217.943c1.9 1.3 3 1.3 3 0 0-.6-1-1-2.2-1-1.9 0-2 .2-.8 1zM257.4 220.043c1.4 1.1 2.6 2.7 2.6 3.4 0 .8 1.3 2.9 2.8 4.7 1.6 1.8 3.5 4.6 4.3 6.3 1.1 2.3 2 2.9 3.9 2.7 1.4-.2 3.7-.4 5.3-.4 1.6-.1 2.7-.6 2.7-1.4 0-.8.2-1.4.5-1.4 1.3 0 6.2 3 7.4 4.4 1 1.1 1.8 1.3 3.1.6 1-.6 2.6-.7 3.4-.4.9.3 1.6.2 1.6-.3 0-1.6-3.6-4.4-4.5-3.6-.4.5-.4-.2-.1-1.5 1.1-3.3-.2-6.2-2.7-6.2-1.7 0-1.9-.2-.8-.9 1.1-.7.9-1.1-.8-2.1-1.9-.9-2.6-.9-4.1.5-1 .9-2.1 1.2-2.4.7-.3-.5-1.5-1.2-2.7-1.5-1.5-.4-1.9-.2-1.5.9.8 2-2.8 1.8-4.5-.2-.7-.9-2.2-1.4-3.6-1.1-1.7.3-2.3 0-2.3-1.5s-.5-1.7-2.9-1.3c-2 .3-3.1 0-3.5-1-.3-.8-1.3-1.5-2.2-1.5-1.2 0-1 .5 1 2.1zM372.2 222.943c0 1.4.2 1.9.5 1.2.2-.6.2-1.8 0-2.5-.3-.6-.5-.1-.5 1.3zM302 247.243c0 1.5 3.5 3.8 4.4 3 1.1-1.2.6-2-1.9-3.1-1.9-.9-2.5-.9-2.5.1zM273.6 318.443c-.9 2.5.1 3.4 3.5 3.3 1.7-.1 2.5-.4 1.8-.8-.6-.4-.8-1.3-.5-1.9.4-.6.3-1.1-.3-1.1-.5 0-1.6-.3-2.4-.6-.8-.3-1.7.2-2.1 1.1zM143.4 367.943c.5 2.6.3 3-1.7 3-2.1.1-2 .2.8 2.5 1.7 1.4 3.8 2.5 4.8 2.5.9 0 2.6.5 3.6 1.2 1 .6 2.6.8 3.5.5 1.4-.5 1.3-.9-.7-3-1.2-1.3-3-2.6-4-3-.9-.4-2-2-2.3-3.7-.5-2.1-1.2-3-2.6-3-1.7 0-2 .5-1.4 3zM136 371.943c0 2.1 2.6 5.7 3.5 4.8.2-.2.1-1.7-.3-3.3-1-3.5-3.2-4.5-3.2-1.5zM133 377.043c0 .5.5.7 1 .4.6-.3 1-.8 1-1.1 0-.2-.4-.4-1-.4-.5 0-1 .5-1 1.1z"/></g></svg>