<?xml version="1.0" standalone="no"?>
<!DOCTYPE svg PUBLIC "-//W3C//DTD SVG 20010904//EN"
 "http://www.w3.org/TR/2001/REC-SVG-20010904/DTD/svg10.dtd">
<svg version="1.0" xmlns="http://www.w3.org/2000/svg"
 width="941.428026pt" height="589.984720pt" viewBox="0 0 941.428026 589.984720"
 preserveAspectRatio="xMidYMid meet">
<metadata>
Created by potrace 1.15, written by Peter Selinger 2001-2017
</metadata>
<g transform="translate(-530.210193,1320.984720) scale(0.100000,-0.100000)"
fill="#222222" stroke="none">
<path d="M5370 13174 c-19 -30 -27 -35 -48 -29 -24 6 -25 5 -10 -17 9 -13 25
-23 36 -22 16 0 25 -12 42 -58 18 -49 25 -58 46 -58 15 0 24 6 24 15 0 21 23
19 37 -4 10 -17 21 -18 88 -14 47 3 81 1 89 -6 10 -9 19 -3 37 24 13 19 30 33
37 30 7 -3 12 4 12 18 0 18 2 19 11 7 8 -12 9 -10 7 10 -2 17 -9 25 -23 25
-11 0 -26 4 -34 9 -9 6 -18 4 -26 -7 -20 -28 -101 -11 -149 30 -28 23 -50 33
-73 33 -23 0 -36 6 -40 18 -7 17 -22 32 -35 32 -3 0 -16 -16 -28 -36z"/>
<path d="M5800 13100 c-10 -6 -11 -10 -2 -10 6 0 12 -12 13 -27 0 -16 3 -22 6
-15 2 6 11 12 19 12 15 0 17 9 8 34 -7 18 -22 20 -44 6z"/>
<path d="M5796 12975 c-4 -19 -12 -35 -19 -35 -7 -1 -2 -6 11 -14 21 -11 22
-14 8 -26 -19 -15 -8 -33 32 -53 15 -6 32 -23 38 -35 6 -13 17 -29 23 -35 18
-18 12 -28 -10 -17 -19 11 -20 9 -18 -17 3 -37 -10 -65 -27 -59 -9 4 -14 -2
-14 -17 0 -12 -11 -34 -25 -49 l-25 -27 29 -23 c17 -13 36 -43 44 -66 14 -40
14 -45 -3 -62 -29 -29 -59 -34 -82 -14 -11 11 -34 20 -51 21 -72 5 -92 9 -99
18 -5 6 -8 5 -8 -2 0 -20 -27 -15 -33 6 -3 14 -11 17 -29 14 -32 -6 -31 -26 2
-83 l26 -45 82 -1 c91 -1 113 -12 110 -54 -2 -29 25 -80 43 -80 6 0 23 -12 38
-27 44 -45 94 -83 108 -83 7 0 13 -6 13 -12 1 -11 105 -67 127 -68 4 -1 23
-21 41 -46 18 -24 51 -56 72 -69 22 -14 40 -29 40 -34 0 -5 19 -29 43 -54 23
-24 57 -60 75 -80 19 -20 45 -37 60 -39 15 -2 31 -12 37 -24 25 -52 87 -106
138 -122 39 -13 55 -24 66 -47 l15 -30 7 25 c12 42 10 53 -7 46 -10 -4 -21 4
-32 24 -9 16 -25 30 -34 30 -10 0 -18 4 -18 10 0 5 -7 7 -15 4 -10 -4 -15 0
-15 14 0 12 -5 24 -11 28 -8 5 -8 8 0 13 8 5 5 22 -10 56 -17 38 -19 52 -10
67 9 14 8 18 -3 18 -8 0 -13 10 -13 25 0 13 3 22 8 20 4 -3 9 4 11 15 2 12 7
19 13 18 5 -2 9 -5 8 -8 0 -3 5 -11 13 -18 17 -16 18 -11 2 23 -6 14 -18 25
-27 25 -12 0 -13 2 -3 8 7 5 16 26 19 48 8 50 40 104 58 98 10 -4 12 0 8 15
-4 15 -1 21 11 21 9 0 16 7 16 15 0 9 9 15 25 15 16 0 25 6 25 15 0 9 6 18 14
21 12 5 13 23 7 96 0 11 -7 15 -15 12 -8 -3 -19 3 -25 14 -9 17 -8 19 9 15 13
-4 20 0 20 9 0 9 8 26 18 39 11 13 22 36 25 50 8 30 46 46 62 25 13 -17 36 -9
28 10 -3 8 3 24 13 35 17 19 17 20 -2 13 -10 -4 -32 -16 -49 -26 -16 -10 -33
-18 -37 -18 -14 0 -9 19 10 37 9 10 16 25 16 33 -1 8 -2 22 -3 30 -1 17 -49
42 -63 34 -5 -3 -15 0 -23 6 -13 10 -15 8 -15 -14 0 -33 -13 -33 -38 1 -20 27
-20 27 -73 14 -30 -7 -64 -20 -77 -28 -15 -9 -57 -16 -110 -18 -70 -3 -93 0
-117 14 -38 22 -95 34 -95 20 0 -6 -12 -1 -26 10 -15 12 -35 21 -45 21 -25 0
-49 38 -49 78 0 38 -17 75 -30 67 -5 -3 -15 4 -23 15 -7 11 -28 25 -45 31 -27
9 -32 16 -32 44 0 53 -12 95 -26 95 -8 0 -14 5 -14 10 0 18 -48 60 -68 60 -15
0 -22 -9 -26 -35z m844 -413 c0 -15 -2 -15 -10 -2 -13 20 -13 33 0 25 6 -3 10
-14 10 -23z m107 -24 c-3 -8 -6 -5 -6 6 -1 11 2 17 5 13 3 -3 4 -12 1 -19z"/>
<path d="M5441 12967 c-7 -10 -22 -17 -32 -17 -11 0 -19 -5 -19 -10 0 -7 19
-10 45 -9 25 2 45 6 45 11 0 4 -4 8 -9 8 -5 0 -11 7 -13 17 -3 15 -4 15 -17 0z"/>
<path d="M6629 12896 c12 -14 12 -19 2 -25 -18 -11 8 -87 37 -107 21 -14 21
-14 7 12 -7 15 -11 33 -8 40 6 16 -22 80 -40 90 -7 5 -6 0 2 -10z"/>
<path d="M6671 12721 c-11 -7 -11 -13 3 -32 l16 -23 0 32 c0 36 0 35 -19 23z"/>
<path d="M6784 12625 c-7 -30 -3 -38 18 -30 10 4 13 15 10 31 -6 31 -20 31
-28 -1z"/>
<path d="M6826 12584 c-9 -23 -8 -24 13 -24 11 0 23 -4 26 -10 3 -5 14 -9 23
-9 15 1 15 2 -1 6 -9 2 -14 9 -11 14 3 6 -2 17 -12 24 -25 19 -31 18 -38 -1z"/>
<path d="M6696 11488 c3 -4 18 -8 34 -8 30 0 53 -21 31 -28 -15 -5 5 -32 23
-32 15 0 56 -54 56 -73 0 -7 16 -19 35 -26 27 -9 35 -18 35 -36 0 -27 -15 -41
-24 -23 -3 7 -3 3 0 -9 3 -13 1 -23 -5 -23 -5 0 -13 -9 -16 -20 -4 -13 -18
-23 -36 -27 -28 -5 -29 -8 -29 -58 0 -52 -1 -53 -28 -50 -16 1 -35 6 -43 10
-12 8 -12 6 0 -9 8 -9 20 -15 26 -12 15 5 8 -31 -9 -53 -7 -10 -6 -16 4 -25 8
-6 15 -24 15 -41 0 -16 4 -33 10 -37 6 -5 5 -12 -3 -20 -14 -14 -16 -54 -2
-63 6 -3 10 -15 10 -26 0 -10 3 -18 8 -18 29 5 42 -3 42 -25 0 -25 16 -36 55
-36 31 0 39 -14 23 -40 -15 -24 0 -57 25 -52 9 1 24 -14 38 -37 12 -22 32 -42
43 -45 12 -3 29 -20 38 -38 11 -25 22 -33 43 -35 17 0 36 -11 47 -25 10 -12
17 -17 16 -9 -4 18 48 33 90 26 25 -5 32 -3 32 11 0 12 6 15 25 11 14 -2 23
-2 21 1 -12 12 15 40 34 35 11 -3 26 -1 33 5 6 5 26 13 44 16 39 9 57 29 50
56 -4 14 0 20 11 20 12 0 13 3 5 11 -9 9 -9 16 0 29 8 14 8 22 -2 34 -24 28 8
18 33 -10 20 -24 26 -26 52 -17 19 7 28 16 26 27 -5 29 52 19 99 -16 61 -47
69 -64 41 -83 -14 -11 -22 -26 -22 -46 0 -24 4 -29 24 -29 13 0 27 -7 30 -16
8 -22 -22 -82 -45 -89 -16 -5 -19 -16 -19 -65 0 -52 3 -62 25 -76 21 -14 24
-21 19 -54 -5 -27 0 -51 20 -93 l26 -57 -26 -26 c-24 -27 -25 -27 -59 -11
l-35 17 16 -25 c26 -39 48 -47 81 -30 46 24 82 19 95 -12 6 -16 11 -31 10 -35
-5 -20 49 -6 64 16 9 15 21 22 30 19 8 -3 14 0 14 7 0 6 10 10 24 8 13 -1 30
3 39 11 9 7 22 11 29 8 7 -2 20 2 30 10 13 12 20 12 37 1 21 -13 29 -38 12
-38 -5 0 -11 -18 -15 -40 -5 -32 -11 -41 -31 -46 -19 -5 -23 -9 -15 -19 15
-18 8 -105 -8 -105 -10 0 -10 -4 0 -20 7 -11 23 -20 35 -20 12 0 23 -5 25 -11
4 -12 65 17 85 41 7 8 13 11 13 6 0 -5 7 -3 15 4 12 10 13 15 4 21 -23 14 62
43 122 41 52 -1 58 1 63 22 6 24 31 36 77 36 32 0 53 23 46 49 -3 11 0 22 7
24 6 2 -15 12 -46 21 -45 14 -58 22 -58 37 0 24 -58 99 -77 99 -15 0 -55 21
-64 34 -4 4 -10 3 -13 -3 -5 -7 -14 -6 -30 4 -21 14 -25 14 -36 0 -16 -19 -30
-19 -30 0 0 8 5 15 10 15 7 0 7 7 0 21 -11 19 -13 20 -30 4 -17 -15 -19 -15
-25 4 -5 17 -10 18 -36 9 -25 -8 -33 -7 -50 8 -13 12 -16 21 -9 28 14 14 -17
46 -44 46 -12 0 -39 17 -62 38 -38 35 -52 64 -57 117 -1 11 -7 23 -14 28 -6 4
-18 21 -27 37 -14 30 -14 30 15 30 32 0 36 10 17 40 -10 15 -10 27 0 54 13 35
13 35 -46 96 -32 33 -66 60 -74 60 -18 0 -71 54 -61 63 3 4 -5 8 -18 8 -13 1
-17 3 -9 5 8 3 20 16 27 30 11 23 9 29 -14 50 -14 13 -38 24 -54 24 -15 0 -40
10 -56 23 -15 13 -41 31 -58 41 -16 10 -41 29 -55 41 -17 16 -42 24 -78 27
-73 7 -104 38 -106 105 -1 45 -3 48 -26 45 -13 -1 -42 5 -65 14 -22 9 -55 16
-74 15 -41 -2 -104 36 -130 80 -10 16 -36 39 -57 50 -22 12 -52 29 -69 37 -16
9 -51 17 -77 17 -28 0 -48 5 -48 11 0 6 -19 11 -44 10 -25 0 -42 -4 -40 -8z
m1534 -1404 c0 -10 -33 -33 -47 -34 -7 0 -13 5 -13 10 0 6 9 10 20 10 11 0 20
5 20 10 0 6 5 10 10 10 6 0 10 -3 10 -6z m27 -31 c-4 -3 -2 -12 4 -20 8 -9 8
-13 1 -13 -6 0 -16 9 -22 20 -9 16 -8 20 6 20 10 0 14 -3 11 -7z m-47 -18 c0
-9 -6 -12 -16 -8 -13 5 -13 7 -2 14 17 11 18 11 18 -6z"/>
<path d="M8950 10536 c0 -5 7 -17 16 -27 12 -13 13 -25 6 -50 -6 -25 -5 -40 6
-56 12 -19 12 -23 0 -23 -13 0 -35 -20 -53 -49 -5 -9 -4 -12 3 -7 6 3 13 2 17
-4 3 -5 0 -10 -8 -10 -21 0 -10 -37 16 -55 12 -8 21 -28 23 -49 3 -40 39 -94
69 -106 31 -13 -47 -12 -81 0 -30 12 -84 -6 -84 -27 0 -16 -69 -5 -92 14 -15
13 -19 12 -35 -6 -9 -12 -25 -21 -35 -21 -11 0 -18 -8 -18 -20 0 -14 -7 -20
-23 -20 -24 0 -65 -60 -53 -78 4 -6 2 -13 -4 -17 -5 -3 -10 -16 -10 -27 0 -12
3 -18 6 -15 4 3 15 2 24 -3 13 -7 20 -5 24 6 5 13 14 15 41 10 31 -6 37 -4 52
21 12 19 24 27 37 25 14 -3 16 -6 6 -12 -18 -11 45 -43 69 -35 9 3 26 -1 36
-9 16 -12 22 -12 41 0 18 13 23 12 33 0 7 -8 34 -20 62 -27 60 -15 89 -40 82
-69 -3 -11 -10 -20 -15 -20 -6 0 -7 -7 -4 -15 5 -14 -9 -52 -25 -65 -3 -3 -7
-12 -7 -20 -4 -39 -9 -60 -15 -66 -11 -11 -8 -52 3 -59 6 -3 10 -21 10 -38 0
-18 4 -38 9 -46 6 -10 4 -25 -6 -45 -13 -24 -13 -36 -4 -62 6 -17 9 -38 5 -47
-3 -9 0 -15 8 -14 30 1 45 -4 46 -15 0 -7 7 -33 14 -57 10 -33 10 -45 2 -48
-9 -3 -9 -10 0 -28 6 -14 17 -23 24 -20 7 3 10 0 7 -5 -3 -6 -2 -10 3 -10 15
0 55 -62 44 -69 -7 -4 -8 -12 -2 -21 8 -12 10 -13 10 -1 0 11 4 11 18 -2 26
-24 51 -21 61 6 8 19 10 20 16 5 4 -9 21 -20 38 -24 46 -9 69 -32 56 -55 -10
-19 9 -70 30 -84 6 -3 0 -24 -14 -50 -25 -48 -23 -81 5 -90 13 -4 18 -14 17
-32 -1 -16 5 -29 18 -37 11 -6 22 -12 25 -14 3 -2 -4 -10 -15 -18 -18 -13 -18
-15 -3 -31 16 -15 17 -14 24 10 7 32 15 33 39 7 10 -11 15 -20 10 -20 -4 0 -2
-6 4 -14 7 -8 9 -25 5 -41 -6 -26 -5 -27 23 -21 22 5 34 2 50 -16 12 -13 23
-32 25 -43 2 -15 21 -26 68 -42 36 -13 72 -23 81 -23 29 0 48 -84 28 -122 -9
-16 -7 -20 10 -25 12 -3 21 -12 21 -19 0 -8 5 -14 10 -14 6 0 10 5 10 10 0 19
19 10 26 -12 10 -31 13 -78 5 -79 -91 -10 -92 -10 -87 -71 3 -29 12 -73 20
-97 9 -24 16 -50 16 -59 0 -8 7 -24 17 -34 15 -17 15 -18 0 -18 -11 0 -17 -8
-17 -25 0 -20 -8 -28 -40 -41 -43 -17 -56 -48 -17 -42 13 2 30 -5 40 -17 11
-12 20 -16 23 -9 8 18 54 3 71 -23 15 -22 14 -25 -3 -42 -11 -9 -26 -15 -33
-13 -8 3 -20 -3 -28 -14 -7 -10 -26 -18 -45 -18 -24 -1 -35 -8 -48 -31 -16
-28 -16 -31 2 -43 11 -9 17 -21 13 -31 -3 -10 1 -24 10 -31 8 -7 15 -21 15
-31 0 -13 5 -17 18 -12 30 11 52 35 52 60 0 16 6 23 20 23 11 0 20 4 20 10 0
5 9 14 20 20 15 8 28 7 52 -6 25 -13 36 -14 50 -5 10 6 23 9 29 5 5 -3 15 -1
22 4 23 18 74 1 121 -42 25 -24 46 -41 46 -38 0 2 10 -2 23 -10 29 -18 57 -12
57 14 0 15 4 18 18 13 37 -16 52 -17 52 -5 0 9 6 8 18 -3 24 -22 41 -22 36 1
-2 10 6 24 22 35 22 17 27 17 42 5 25 -21 79 -41 91 -33 8 4 8 12 1 26 -10 18
-9 19 17 13 15 -4 30 -11 31 -16 8 -18 38 -7 39 15 4 46 14 67 32 67 10 0 24
7 31 15 7 8 18 15 24 15 6 0 17 14 25 32 l14 31 26 -30 c36 -41 76 -57 101
-41 11 7 20 18 20 25 0 7 8 13 19 13 10 0 21 9 24 20 5 19 36 27 77 21 8 -2
28 -3 43 -2 31 0 52 -34 40 -66 -3 -10 -3 -15 2 -11 14 13 82 -30 104 -65 20
-32 25 -34 77 -36 58 -1 99 -15 89 -31 -9 -14 57 -39 72 -28 8 6 20 -1 39 -21
l27 -31 35 21 c19 11 41 18 48 15 8 -3 14 -1 14 5 0 6 5 7 10 4 6 -3 10 -2 10
4 0 5 19 12 43 16 65 10 97 25 97 46 0 11 11 29 24 40 20 17 23 28 19 56 l-6
35 33 -17 c24 -12 45 -15 76 -10 30 4 52 1 73 -9 16 -9 36 -13 44 -10 8 3 18
1 21 -5 9 -14 66 -2 95 21 13 10 29 18 36 18 7 0 16 11 19 25 5 21 12 25 46
25 21 0 62 5 90 11 40 9 51 15 56 35 5 20 12 24 48 24 22 0 50 7 60 15 11 8
32 15 46 15 14 0 31 5 37 11 7 7 17 8 30 1 12 -7 24 -7 37 0 25 14 143 38 188
38 20 0 40 5 44 11 3 6 17 8 30 5 26 -7 95 31 112 60 8 15 11 15 40 0 37 -19
59 -20 90 -2 21 11 22 14 8 25 -9 8 -16 20 -16 27 0 8 -16 20 -35 28 -19 8
-35 22 -35 30 0 14 -36 46 -52 46 -5 0 -8 -7 -8 -15 0 -19 -10 -19 -46 0 -16
8 -41 15 -56 15 -23 0 -28 5 -34 35 -6 33 -26 46 -39 25 -3 -5 -14 -10 -23
-10 -9 0 -32 -16 -51 -35 -38 -40 -56 -41 -57 -3 -1 14 -4 30 -8 36 -4 6 6 5
21 -3 36 -19 49 -19 33 0 -7 8 -19 15 -26 15 -8 0 -14 5 -14 11 0 5 -4 7 -10
4 -18 -11 -32 5 -19 21 9 11 6 19 -15 39 -14 13 -26 35 -26 48 0 30 -17 38
-64 30 -34 -5 -36 -4 -42 26 -4 17 -20 43 -36 56 -34 29 -50 32 -41 9 5 -13 0
-14 -33 -9 -57 10 -99 31 -118 60 -9 14 -26 25 -38 25 -15 0 -19 3 -12 10 7 7
7 33 2 77 -5 37 -7 82 -3 100 5 30 8 32 27 22 20 -11 21 -10 15 35 l-7 46 40
0 c45 0 49 10 25 56 -8 16 -11 30 -6 32 17 6 -2 44 -26 53 -44 17 -79 11 -93
-16 -12 -23 -45 -42 -63 -37 -5 2 -24 -3 -43 -10 -26 -9 -37 -9 -46 0 -14 14
-57 15 -78 2 -8 -5 -10 -10 -5 -10 6 -1 -1 -6 -15 -11 -22 -9 -29 -5 -65 33
-22 24 -44 43 -50 43 -5 0 -8 13 -7 29 4 33 -20 62 -90 107 l-48 31 -34 -21
c-18 -12 -33 -29 -32 -38 0 -9 -5 -18 -12 -20 -7 -3 -10 1 -6 10 3 9 -14 34
-45 65 -28 28 -51 55 -51 60 0 18 -28 21 -125 16 -80 -4 -95 -2 -95 11 0 8
-18 27 -40 41 -22 15 -38 29 -35 32 9 9 -37 52 -56 52 -10 0 -30 -11 -45 -25
-18 -16 -35 -23 -50 -21 -13 3 -24 0 -24 -6 0 -6 -13 -8 -32 -6 -31 5 -31 5
-11 -11 11 -9 29 -21 39 -27 18 -11 18 -13 -5 -33 -39 -34 -60 -29 -98 26 -25
35 -32 71 -8 39 16 -21 35 -14 35 14 0 14 7 18 27 17 21 -2 28 4 34 28 12 39
4 62 -15 46 -14 -12 -17 -10 -54 34 -15 17 -32 20 -32 4 0 -5 -5 -7 -10 -4 -6
3 -7 18 -4 33 4 15 3 24 -1 20 -14 -13 -37 13 -25 27 8 9 8 15 0 20 -5 3 -10
-1 -10 -9 0 -20 -14 -20 -30 -1 -14 17 -41 20 -38 4 2 -6 -9 -20 -24 -32 -23
-17 -32 -19 -50 -10 -31 15 -79 27 -100 24 -9 -1 -19 3 -23 9 -3 5 -17 10 -30
10 -28 0 -41 33 -31 74 3 13 -1 41 -10 61 -11 26 -12 41 -5 48 7 7 4 14 -12
21 -29 15 -87 8 -87 -10 0 -8 -6 -14 -14 -14 -8 0 -21 -2 -28 -5 -8 -3 -31 10
-51 30 -36 35 -36 37 -23 64 14 26 13 29 -16 55 -29 25 -30 28 -14 45 15 16
15 20 2 30 -8 7 -20 10 -26 6 -5 -3 -10 -2 -10 3 0 4 -14 19 -32 32 -26 19
-42 23 -98 21 -63 -2 -120 12 -120 30 0 4 -13 10 -29 14 -32 7 -81 62 -81 92
0 26 -110 89 -137 79 -7 -3 -35 6 -63 20 -41 20 -59 24 -94 19 -59 -9 -114 9
-127 42 -9 25 -10 25 -29 8 -11 -10 -20 -26 -20 -37 0 -10 -2 -18 -5 -18 -12
0 -55 24 -55 32 0 4 -11 8 -24 8 -14 0 -28 5 -31 10 -12 20 -75 39 -109 33
-31 -5 -35 -9 -41 -47 -3 -22 -7 -56 -7 -73 -1 -19 -7 -33 -14 -33 -9 0 -11
-10 -7 -35 5 -30 2 -36 -21 -45 -14 -5 -26 -15 -26 -21 0 -6 -6 -9 -14 -6 -8
3 -16 -2 -19 -14 -3 -11 -14 -23 -25 -26 -11 -3 -23 -14 -26 -26 -4 -17 -7
-18 -21 -7 -18 15 -19 110 -1 110 24 0 38 18 31 39 -3 12 -11 19 -16 16 -5 -4
-9 5 -9 19 0 19 -5 26 -19 26 -28 0 -37 21 -15 34 19 10 24 12 44 15 6 0 10
10 10 21 0 27 45 27 60 1 10 -19 11 -19 49 2 l40 22 -20 21 c-12 13 -22 39
-24 62 -1 27 -14 56 -34 83 -17 24 -31 54 -31 68 0 28 -41 85 -73 102 -12 7
-35 14 -51 16 -17 2 -33 9 -38 16 -8 14 -68 17 -68 3z m1980 -1196 c0 -5 -5
-10 -11 -10 -5 0 -7 5 -4 10 3 6 8 10 11 10 2 0 4 -4 4 -10z m-372 -18 c3 -9
-2 -13 -14 -10 -9 1 -19 9 -22 16 -3 9 2 13 14 10 9 -1 19 -9 22 -16z m-112
-80 c-4 -3 -14 2 -24 12 -16 18 -16 18 6 6 13 -6 21 -14 18 -18z m634 -142 c0
-5 -4 -10 -9 -10 -6 0 -13 5 -16 10 -3 6 1 10 9 10 9 0 16 -4 16 -10z m783
-107 c4 -3 2 -12 -4 -20 -9 -10 -15 -10 -25 -2 -8 6 -14 15 -14 20 0 10 34 12
43 2z"/>
<path d="M8918 10426 c-3 -15 0 -27 8 -30 18 -7 27 25 11 42 -12 12 -15 10
-19 -12z"/>
<path d="M8785 10380 c-9 -15 -1 -23 21 -18 15 3 16 4 1 16 -11 9 -17 10 -22
2z"/>
<path d="M8841 10364 c0 -11 3 -14 6 -6 3 7 2 16 -1 19 -3 4 -6 -2 -5 -13z"/>
<path d="M8290 10203 c8 -3 18 -11 22 -17 9 -14 22 -1 13 13 -3 6 -16 11 -28
10 -15 0 -17 -2 -7 -6z"/>
<path d="M8351 10201 c-8 -5 -9 -11 -3 -15 5 -3 12 1 16 9 6 17 6 18 -13 6z"/>
<path d="M9115 9929 c-6 -19 1 -39 13 -39 4 0 15 11 24 24 17 23 17 24 -7 28
-18 4 -26 0 -30 -13z"/>
<path d="M12617 9350 c-4 -17 -11 -29 -16 -25 -10 5 -11 -2 -13 -62 -1 -19 -6
-33 -13 -33 -18 0 -27 -28 -16 -48 10 -19 -26 -42 -65 -42 -16 0 -24 -6 -24
-18 0 -10 -5 -23 -11 -29 -8 -8 -3 -22 22 -53 27 -33 31 -44 22 -59 -8 -13 -7
-22 3 -36 12 -16 12 -21 -2 -36 -11 -12 -12 -19 -4 -24 7 -4 8 -11 2 -18 -14
-17 -27 -101 -15 -94 9 6 36 -18 102 -86 21 -22 27 -24 60 -15 20 6 44 17 53
25 10 9 25 12 36 8 11 -3 23 -1 27 4 3 6 18 -2 33 -19 19 -21 37 -30 62 -32
19 -1 47 -8 63 -15 24 -12 28 -12 33 2 6 14 8 14 19 -1 7 -10 19 -15 29 -11
12 5 16 1 16 -16 0 -29 14 -50 35 -53 10 -1 27 -11 39 -22 11 -11 32 -22 46
-24 16 -2 31 -14 40 -33 9 -16 20 -37 25 -45 5 -8 8 -25 7 -37 -2 -12 4 -33
14 -47 9 -14 12 -26 7 -26 -23 0 -6 -29 24 -41 20 -8 33 -20 33 -30 0 -10 7
-25 17 -34 14 -14 14 -18 2 -26 -8 -5 -17 -9 -20 -9 -13 0 -31 29 -24 40 5 8
-17 15 -27 8 -2 -1 -14 4 -28 12 l-25 13 23 -26 c13 -13 19 -26 13 -28 -21 -8
6 -28 54 -41 28 -7 55 -19 61 -27 9 -12 12 -11 17 3 4 9 13 16 22 16 8 0 24 5
34 12 16 10 25 7 57 -17 20 -16 44 -29 53 -31 9 -1 31 -7 49 -14 25 -9 30 -15
21 -21 -11 -6 -11 -11 -1 -21 18 -18 15 -23 -15 -25 -112 -9 -124 -14 -156
-59 -19 -27 -40 -45 -59 -49 -48 -11 -31 -25 29 -24 35 1 59 -3 61 -10 7 -20
50 -13 57 10 7 20 8 20 24 5 14 -15 14 -18 1 -26 -12 -8 -12 -10 3 -16 9 -3
17 -12 17 -20 0 -8 5 -14 10 -14 6 0 10 -7 8 -16 -2 -10 2 -19 9 -21 7 -3 9 3
6 16 -3 14 -1 21 8 21 7 0 4 7 -9 16 -30 21 -28 31 8 39 35 8 41 39 13 61 -17
12 -16 13 4 14 23 0 48 -31 35 -45 -4 -5 -1 -5 6 -1 7 4 38 -6 70 -22 44 -22
63 -26 79 -19 16 7 33 3 73 -19 38 -21 53 -25 59 -16 6 9 26 2 74 -28 37 -22
75 -40 84 -40 10 -1 29 -7 43 -15 40 -23 53 -19 47 13 -14 69 -26 102 -40 102
-14 1 -47 63 -47 90 0 11 -4 20 -9 20 -5 0 -12 8 -15 18 -3 10 -32 31 -64 47
-54 27 -112 75 -92 75 16 0 11 57 -5 64 -8 3 -15 12 -15 20 0 8 -8 19 -17 24
-15 9 -13 13 13 36 l29 25 -32 26 c-18 15 -33 30 -33 35 0 14 59 40 66 29 13
-22 29 -1 26 34 -3 27 1 39 12 43 9 3 16 15 16 25 0 10 6 19 13 19 7 0 14 14
15 31 2 23 -2 32 -17 36 -18 5 -41 42 -41 68 0 22 -144 130 -160 120 -15 -9
-60 25 -60 45 0 21 -30 36 -40 19 -6 -8 -13 -8 -27 0 -11 5 -23 7 -27 4 -3 -3
-6 1 -6 10 0 10 -7 17 -15 17 -8 0 -15 5 -15 11 0 11 -29 45 -99 116 -30 31
-46 41 -51 33 -6 -9 -13 -9 -29 -1 -12 7 -25 9 -30 6 -10 -6 -61 14 -61 25 0
3 -6 14 -13 24 -12 16 -15 15 -57 -7 -25 -12 -54 -21 -65 -19 -32 6 -66 44
-63 69 2 12 0 22 -4 23 -35 2 -39 -1 -33 -20 8 -24 -12 -46 -49 -56 -19 -4
-26 -2 -26 8 0 28 -50 86 -79 93 -39 8 -75 48 -66 74 4 14 0 24 -14 33 -12 7
-21 19 -21 26 0 7 -11 17 -24 22 -14 5 -30 18 -36 29 -9 17 -20 20 -58 19 -26
-1 -56 2 -68 6 -18 6 -22 3 -27 -24z m1113 -590 c0 -5 -4 -10 -10 -10 -5 0
-10 5 -10 10 0 6 5 10 10 10 6 0 10 -4 10 -10z m-30 -15 c0 -8 -2 -15 -4 -15
-2 0 -6 7 -10 15 -3 8 -1 15 4 15 6 0 10 -7 10 -15z m-269 -808 c-13 -13 -26
-3 -16 12 3 6 11 8 17 5 6 -4 6 -10 -1 -17z"/>
<path d="M11170 9309 c0 -5 5 -7 10 -4 6 3 10 8 10 11 0 2 -4 4 -10 4 -5 0
-10 -5 -10 -11z"/>
<path d="M14170 7859 c0 -5 5 -7 10 -4 6 3 10 8 10 11 0 2 -4 4 -10 4 -5 0
-10 -5 -10 -11z"/>
<path d="M9646 7771 c16 -33 44 -60 44 -43 0 6 -5 14 -11 17 -6 4 -8 13 -5 21
3 7 -3 18 -14 24 -28 15 -30 13 -14 -19z"/>
<path d="M14204 7743 c-15 -5 12 -58 51 -100 24 -25 36 -30 58 -26 23 5 26 8
15 21 -7 8 -11 18 -8 21 3 3 -16 17 -42 31 -26 13 -51 32 -55 41 -4 9 -13 14
-19 12z"/>
<path d="M9735 7730 c-4 -6 -11 -8 -16 -5 -5 4 -9 1 -9 -4 0 -6 11 -11 25 -11
14 0 28 -1 32 -2 4 -2 9 5 11 15 4 19 -32 25 -43 7z"/>
<path d="M14463 7533 c2 -10 8 -27 15 -39 8 -15 8 -24 0 -32 -13 -13 6 -42 28
-42 8 0 14 -7 14 -15 0 -8 6 -15 14 -15 8 0 23 -10 33 -23 16 -20 79 -57 98
-57 3 0 5 10 3 23 -2 14 -11 23 -24 25 -26 4 -36 31 -21 58 7 15 5 14 -12 -4
-24 -24 -41 -21 -41 7 0 10 -11 28 -25 41 -13 12 -22 26 -20 30 3 4 -11 20
-30 34 -29 23 -35 24 -32 9z"/>
<path d="M14705 7389 c-4 -6 -5 -12 -2 -15 2 -3 7 2 10 11 7 17 1 20 -8 4z"/>
</g>
</svg>
