<svg version="1" xmlns="http://www.w3.org/2000/svg" width="1114.467" height="928.2" viewBox="0 0 835.85 696.15"><g fill="#222"><path d="M402.05 2.291c.4 2 0 3.1-1.3 3.9-1.2.7-1.9 2.3-1.9 4.1 0 2.4-.3 2.7-2.1 2.3-2.8-.8-3.4 1.6-1.3 4.8 1.6 2.4 1.6 2.9.3 3.9-.8.6-1.8 1.9-2.2 2.8-.3 1-1.3 1.8-2.2 1.8-1.9 0-1 4.9 1.3 6.6.8.6 1.6 2.1 1.7 3.3.1 1.1 1 2.8 2.1 3.6 1.8 1.3 1.8 1.4-.5.8-1.8-.4-2.2-.2-1.9.8.3.8 1.4 1.3 2.4 1.2 1.8-.2 7.4 6.3 7.4 8.5 0 1.4-2.9 4.2-4.3 4.2-.8 0-.8-.3-.2-.8.6-.4 1-2.2 1-4 0-3-.2-3.2-3.2-3.2-2.2 0-3.3.5-3.3 1.5 0 .8-2.2 3.6-4.9 6.4l-4.8 4.9-2.2-2.1-2.1-2.1-.6 3.1c-.4 2.1-1.1 3-2 2.6-1.5-.6-1.9 1.7-.5 3.3.4.5 1.1 2.5 1.4 4.6.5 3.2.3 3.7-1.9 4.2-3.2.9-2.6 2.7 1.4 4.5 1.8.8 3.7 2.7 4.4 4.2.7 1.5 2.1 3 3.3 3.3 1.5.5 1.7.8.7 1.4-.7.5-1 1.6-.6 2.5.5 1.3 0 1.7-2 1.7-2.3 0-2.5.3-1.7 1.7.7 1.3.5 2.3-.5 3.5-1.4 1.4-1.4 2-.1 4.4 1.3 2.5 1.3 3.1-.1 5.4-1.1 1.7-1.2 2.1-.2 1.2.8-.6 2.2-1.2 3.1-1.2 1 0 1.9-.6 2.2-1.3.4-1 .7-1 1.8 0 1.8 1.7 3.9 1.6 3.9-.1 0-2 1.8-3 3.3-1.9.7.5 3.6.8 6.6.6 2.9-.1 6.1.2 7.1.7 1.9 1 9.7-2.3 11.3-4.7.4-.7 1.4-1 2.2-.7.8.4 1.8-.1 2.1-1 .3-.9 1.2-1.6 1.9-1.6s1.6-.7 1.9-1.6c.7-1.8-3.2-7.3-5.2-7.3-2.7-.2-5.4-2.2-4.3-3.4.6-.8.6-3 0-6.2-.5-2.7-.7-5.5-.5-6.2.6-1.4-1.9-2.4-4.1-1.6-1.2.5-1.5.2-1-1 .3-.9 0-2.9-.8-4.4-1-2-1.1-2.9-.3-3.4.7-.5.1-1.6-1.7-3.3-1.5-1.4-2.6-2.9-2.2-3.2.3-.3-.6-3-1.9-6-1.3-3-2-5.3-1.6-5.1.8.2 1.2-.7 1.2-2.6 0-.8-.4-.7-1 .3-.7 1.2-1 .8-1-1.4 0-3 3.4-11.1 5.1-12.2.5-.3.9-1.7.9-3.1 0-1.8.4-2.4 1.5-1.9 1.4.5 1.4.2 0-2.4-.8-1.6-1.9-3.2-2.5-3.5-.5-.3-1-1.8-1-3.3 0-1.5-.8-3.9-1.7-5.2-.9-1.3-1.7-3.5-1.8-4.9 0-1.3-.6-2.6-1.4-2.9-1-.3-1.3.2-.9 2.2z"/><path d="M467.85 46.391c.7.9.6 1.6-.5 2.5-.8.7-1.5 1.9-1.5 2.6 0 .8-.9 1.4-2 1.4-2.5 0-2.5 1-.2 5.2 1 1.8 1.7 3.9 1.6 4.5-.1.7-.2 1.8-.3 2.5-.1.9-.4.9-1.3 0-1.7-1.7-3.3-1.5-1.9.2.6.8 1.1 1.8 1 2.2-.1.5 0 1.1.1 1.4.1.3.4 1.8.6 3.5.3 1.6 1.2 3.7 2 4.6.8.8 1.4 2.2 1.4 3 0 .8.5 2 1.2 2.7.9.9.7 1.2-1 1.2-1.5 0-2.2.6-2.2 2 0 1.5-.7 2-2.5 2-1.4 0-2.9.8-3.5 2-.6 1.1-1.6 1.8-2.2 1.4-1.2-.7-.7 5.7 1 11.9.6 2.3.6 3.9.1 4.3-.6.3-.7 1.4-.4 2.5.5 1.5.1 1.9-1.4 1.9-1.9 0-2.1.4-1.5 4.2.4 2.4 1.2 4.6 1.8 5 .7.5.7.8-.2.8-.9 0-1.1.7-.7 2.1.5 1.4.3 1.9-.4 1.5-.6-.4-1.3.4-1.7 1.9-.3 1.4-1.3 2.5-2.3 2.5-3.5.1-5.3 2.6-4.5 6.5.6 3.5.6 3.7-1.4 2.6-1.7-.9-2.2-.8-2.7 1-.4 1.2-1.2 1.8-2.1 1.5-1.2-.5-1.2-.1.1 2.4.8 1.6 1.5 3.8 1.5 5 0 1.1.5 2 1 2 .6 0 1 .5 1 1.1 0 .5-.4.8-.9.5-.5-.4-1.1-.1-1.3.6-.4 1-1 1-3.2 0-1.5-.7-3.2-1-3.7-.6-.6.3-1.6 0-2.4-.6-.8-.7-4.8-1.3-8.7-1.4-5.2-.1-8.1-.7-10.1-2-1.8-1.2-2.7-1.4-2.5-.6.2.7-.3 1.5-.9 1.7-.7.3-1.3 0-1.3-.7 0-.6-.4-.9-.9-.5-1.1.6-6.1-6.2-6.1-8.3 0-.7.7-1.5 1.5-1.8 2.7-1.1-1.1-6.3-6.1-8.5-2.4-1.1-4.4-2.4-4.4-2.8 0-.5-1.1-1.2-2.4-1.5-3.1-.8-6.9-6.5-5.5-8.3.8-.9.4-1.4-1.4-1.8-1.4-.4-3.3-1.5-4.1-2.4-2-2.2-7.5-1.6-8.3.8-1.1 2.9-3.6 5.1-5.8 5.1-2.1 0-2.2.3-1.5 3.5.7 3.1.4 3.8-3 7.5-2 2.2-4.5 4-5.5 4-1.2 0-1.5.5-1.1 1.6.4 1.1-.1 2.2-1.4 3.1-1.1.8-2 1.9-2 2.4 0 .6-.9 2.2-2 3.6s-2 3.5-2 4.7c0 1.7-.6 2.1-3.7 2.2-4.2.1-8 3.7-9 8.5-.7 3.8-1.3 4.1-5.4 2.9-2.5-.7-3.7-.7-4.7.3-1.5 1.5-2 9.3-.8 11.9.6 1.4-.1 2.2-3.7 3.9-2.5 1.2-4.3 2.7-4.1 3.4.5 1.2-4.9 8.6-6.3 8.6-2-.1-4.4 1.2-4 2.2.5 1.7-2.9 5-4.3 4.2-.7-.4-1.6-.2-2 .6-.7 1-1.7.9-5.1-.6-4.7-2.2-8.8-2.1-13.7.1-2.5 1.2-3.1 1.9-2.2 2.8 1.8 2.2.2 4.1-4.6 5.4-3.6 1-4.9 1-6.1 0-1.2-.9-1.9-.6-3.8 1.7-1.2 1.6-2 3.5-1.8 4.2.3.7-.2 1.3-1.1 1.3-.9 0-1.6.7-1.6 1.6 0 1.2-.6 1.5-2.5 1-2.3-.6-2.4-.5-1.5 2 1.3 3.4 1.3 3.9-.5 2.4-1.2-1-1.4-.5-1 3.7.6 5.6-.6 8.3-2.8 6.5-1.1-1-1.6-.5-2.7 2.7-.7 2.1-.9 4.8-.5 6 .5 1.5.2 2.1-.9 2.1-.9 0-1.6.7-1.6 1.5 0 .9-.7 1.8-1.5 2.1-1.1.5-1.2 1.1-.4 2.5.8 1.6.6 1.9-1.5 1.9-1.4 0-2.8.5-3.2 1.1-.5.8-.9.8-1.4-.1-.5-.8-1.6-.9-3-.5l-2.3.7 2.4 1.9c2.6 1.9 2.7 2.8 3 15.7.1 7.3-.1 8.6-2 10.6-1.8 1.9-2.1 3-1.5 6.4.4 2.7.2 4.7-.5 5.6-1 1.2-.9 2.7.5 7.1 1.7 5.3 1.9 5.5 4.5 5 2.5-.6 3-.1 6 5.4 2.1 3.8 4 6.1 5.1 6.1 2.3 0 4.5 3.9 2.8 5-.6.4-1.1 1.6-1 2.6.4 3.7 0 5.4-1.4 5.4-1.5 0-3 2.7-2.7 4.7.3 2.1-3.7 1.5-4.9-.7-.6-1.1-1.6-1.7-2.5-1.4-.9.4-1.5 0-1.5-.7 0-1.1-.2-1.1-.9 0-.5.8-2.1 1.5-3.4 1.5-2 .1-2.7-.4-3.1-2.8-.7-3.2-3.1-5.5-5.8-5.6-1 0-1.8-.5-1.8-1.1 0-.6-.6-.9-1.2-.6-.7.2-1.3 1.1-1.3 2 0 .9-.8 2.5-1.7 3.6-.9 1.1-1.3 2.2-1 2.6.4.4-.3.4-1.6 0-1.4-.4-2.9-.2-3.8.6-1.3 1-1.7 1-2.4 0-.6-1.1-1.3-1.1-3.9 0-1.7.8-3.1 1.7-3.1 2 0 .3-1.1.4-2.5.1-1.4-.2-2.5-.8-2.5-1.2 0-.5-1.3-1.3-3-1.8-1.6-.6-3.6-1.7-4.3-2.4-1.2-1-1.1-1.5.7-3 1.9-1.6 2-1.7.2-1.8-1.1 0-1.6-.5-1.3-1.4.3-.7-.1-2.4-1-3.6-1.1-1.6-2.2-2-3.9-1.6-1.3.4-3.7 0-5.2-.8-2.5-1.3-3-1.2-5.2.5-4.8 3.7-8.7 5.1-10.9 4-1.1-.6-2.2-1.1-2.5-1.1-1 0-.6 5.9.4 6.5.6.3 1 1.9 1 3.4 0 2.2-.7 3.1-3 4.1-1.6.7-3 1.8-3 2.5 0 1.7-2.9 1.3-4.1-.6-.7-1.1-.9-.9-.9.7 0 1.2-.9 3.2-2.1 4.5l-2.1 2.4.5-2.3c.3-1.2.1-1.9-.4-1.6-.5.3-1.2-.2-1.5-1-.4-1.1-1.4-1.3-3.4-1-2.1.5-2.9.2-3.4-1.2-.4-1.3-1.7-2-3.7-2.1-1.7-.1-3.8-.8-4.6-1.5-.9-.7-2.5-1.2-3.7-1.3-1.1 0-2.1-.6-2.2-1.3-.1-.6-.2-1.6-.3-2.2-.2-1.7-4.2-4.8-7-5.3-1.6-.3-4.2-1.7-5.8-3.1-2.2-1.9-4.6-2.7-8.9-3-7.6-.7-13.6-2.9-14.5-5.3-.6-1.7-4.9-5.3-6.4-5.3-.9 0-.5 2.2 1.1 5.7 1.2 2.5 1.4 3.7.6 4.5-.8.8-.4 1.9 1.3 4 1.4 1.6 2.5 3.6 2.5 4.4 0 .9.4 1.3.9 1 1.1-.7 3 3.6 2.7 6-.4 2.5-2 2.1-2.4-.6-.2-1.4-1.1-2-2.9-2-2 0-2.4-.4-2-2 .3-1.1 0-2-.5-2-.6 0-.5-.6.2-1.5 1.8-2.2 0-4-6-5.9-6.5-2.1-8.7-2-9.3.4-.3 1.2-1.4 2-2.5 2-3.3 0-5.1-1.1-4.5-2.6.4-1-.2-1.4-2-1.4-1.4 0-2.9-.5-3.3-1.1-.3-.6-.9-.7-1.3-.2-.3.5-2.3 1.4-4.4 2-3.4 1-4 .9-5.5-.8-.9-1-2.5-1.9-3.5-1.9-.9 0-2-.7-2.3-1.5-.5-1.2-1-1.3-1.9-.5-1.7 1.4-6.7.9-8-.7-1.9-2.3-10.9-6.5-11.3-5.3-.2.6-1.5 1.5-2.9 2.1-1.3.5-2.2 1.3-1.9 1.8.4.5-.8 1.3-2.6 1.6-3.4.8-5.7 3-5.8 5.4 0 .7-1.1 2.4-2.5 3.7-3.1 2.9-3.1 3.8-.1 5.7 2.9 2 5.7 7.2 4.9 9.3-.8 2.1-3.8 1.3-3.8-1.1 0-1.1-.8-2.1-1.7-2.3-1.6-.3-1.6.1.2 5.4 1.1 3.2 3 6.6 4.1 7.7 1.6 1.5 1.8 2.1.8 2.8-1.1.6-1 .9.4 1.5.9.3 1.7 1.2 1.7 2 0 1.7 1.7 1.8 2.2.2.3-.8.9-.4 1.7 1 1.3 2.4.6 4.6-1.1 3.6-.6-.4-.6.2.1 1.5.7 1.1.8 2.1.4 2.1s0 .6.9 1.2c3.2 2.5 3.1 5.5-.1 7.9l-3 2.2 1.9 2.5c2.1 2.5 2.6 4.8 1.3 5.4-.5.1-1.9 2.4-3.2 5-2.3 4.6-2.3 4.9-.7 8.8.9 2.2 1.6 5.6 1.6 7.4 0 2.2.6 3.6 1.6 4 1.2.5 1.5 1.7 1.2 5.6-.2 4.2 0 5 1.5 5s2.2 1.8 1.8 4.4c-.1.5.5.6 1.3.3.9-.4 2.2.3 3.1 1.6.9 1.3 1.1 2.3.5 2.5-1.3.5-1.3 3.2 0 3.2.6 0 1 .7 1 1.5s-.4 1.5-1 1.5c-.5 0-1 .9-1 2 0 2.2-3.4 4.4-5.6 3.6-1-.4-1.3-.2-.7.7 1 1.6 1 11.7.1 11.7-.5 0-.8 1.9-.8 4.2 0 3-.7 4.9-2.4 6.7-2 2.2-2.2 3.1-1.4 5.9.5 1.8 1.3 3 1.8 2.7.4-.3 1-.2 1.2.2.1.5 2 2.1 4.1 3.7 2.1 1.5 3.6 3.4 3.3 4.1-.6 1.6 2.5 4.5 4.8 4.5.9 0 1.9.6 2.2 1.4.3.8 1.2 1.2 2 .9.8-.3 1.4.1 1.4.8.1 1 .4.9 1.4-.3 1.5-2 2.6-1.4 2.6 1.4 0 1.4.8 1.8 3.8 1.8 2 0 4.4.5 5.2 1 1.3.9 1.2 1.3-.6 2.8-1.4 1.1-2 2.7-1.9 4.7.1 1.6-.4 4.5-1.2 6.4-1 2.6-1 3.6-.2 4.2.8.4.6 1-.6 1.6-1.5.9-1.3 1.4 1.9 4.7 1.9 2.1 3.9 3.5 4.5 3.2.5-.4 1.2-.2 1.6.4.4.6 1 .8 1.5.5.5-.3 2.9 2.1 5.4 5.2 7.5 9.7 10.5 12.5 12.7 12 1.6-.4 1.9 0 1.9 2.9 0 1.9.5 3.4 1 3.4.6 0 1.1 1.2 1.1 2.7.1 1.6.3 2.1.6 1.1.4-1.8 3.1-1.4 4.5.6 1.2 1.7.9 5.4-.3 5.8-1.8.6 3.1 3.3 8.1 4.6 2.8.7 4.6.8 4.8.2.2-.6 1.4-1 2.7-1 2.4 0 3.5 1.7 4.1 6.4.4 2.8.3 2.9-1.6 1.1-1.7-1.6-2-1.6-2.6-.2-.3.9-.3 2 0 2.5.3.6-.1 1.5-.9 2.2-1.6 1.3-2 4.6-.7 5.3 1.2.8 5.2-1.2 5.2-2.5 0-.9 1.4-1.4 4-1.4 2.3-.1 4.9-.9 5.9-1.8 1.3-1.2 2.7-1.5 4.5-1 1.6.4 2.6.2 2.6-.5 0-.6.7-1.1 1.6-1.1.8 0 1.2-.5.9-1-.4-.6-1.1-.8-1.6-.5-.5.4-.9.1-.9-.5 0-2 5.4-7 8.7-8.1 1.8-.5 3.5-1.9 3.8-3 .5-1.5 1.6-1.9 5.3-1.9 2.6 0 5.5-.7 6.6-1.5 1.4-1.1 2.4-1.2 3.9-.3 1.6.8 2.3.7 3.2-.6.7-.9 2.2-1.6 3.4-1.6 1.3 0 2.6-1 3.3-2.5.6-1.4 1.9-2.5 3-2.5 1 0 1.8-.7 1.8-1.7 0-1.5.2-1.5 1.9.1 2.1 1.9 4.1 1.4 4.1-1 0-1.2.8-.9 3.1 1 3.3 2.8 5.5 3.3 6.1 1.4.2-.6 2.2.7 4.4 2.9 4.9 5 10.9 7.1 13.5 4.7.9-.8 3.7-1.6 6.3-1.7 2.5-.1 4.6-.4 4.6-.7 0-.3 2-1.2 4.5-1.9s4.5-1.7 4.5-2.2c0-1.5 5.7-1 7 .6 1.5 1.8 3.1 1 2.3-1-.4-1.1-.1-1.3 1.1-.9 2.1.8 2.1-1 0-4.2-1.1-1.7-2.2-2.3-3.5-1.9-1.2.4-2.2-.1-3.1-1.6-.7-1.2-3.5-3.2-6.3-4.5-2.7-1.3-4.5-2.4-3.9-2.4 1.4 0 2.6-3.8 1.4-4.5-1.8-1.1-2-7.1-.3-10.2 1-1.8 2.1-3.3 2.5-3.3.5 0 .8-.9.8-2.1 0-1.1.5-1.7 1-1.4.6.3 1-.1 1-.9 0-1.6 2.5-2.1 7.8-1.8 1.2 0 2.2-.4 2.2-.9 0-.6.9-.7 2-.4 1.2.4 2 .2 2-.4 0-.8.7-.7 2 .1 2.3 1.4 2.6 3.4.8 4.2-.7.3-.3.3 1 0 1.8-.4 2.5-.1 2.9 1.4.3 1.3 1.1 1.8 1.9 1.5.9-.3 1.4.1 1.4 1.2 0 .9.9 1.9 2 2.2 1.9.5 1.9.7.4 1.8-1.3.9-1.4 1.6-.5 3.3.6 1.1.8 2.7.5 3.6-.8 2.1-4.8.2-6.3-3.1-.9-2-1.4-2.3-2.6-1.3-.9.7-3.3 1-6 .7-2.5-.2-4.8 0-5.1.4-.3.5-1.5.9-2.6.9h-2.2l2.2 2c1.2 1.2 2.2 2.5 2.2 3.1 0 .6.4.8.9.4.5-.3 2.2 1 3.7 3 1.4 1.9 3.5 3.5 4.5 3.5 1.1 0 1.9.4 1.9 1 0 .5 1.6 2.5 3.5 4.4 2.2 2.2 3.3 4.1 2.9 5.1-.5 1.2-1 1.1-2.5-.9-2.4-3-5.3-2.4-7.3 1.5-1.2 2.3-1.2 3-.1 3.9.8.6 1.1 1.9.8 2.8-.3.9-.3 1.4.2 1 .4-.4 1.9.2 3.3 1.2 2.3 1.9 2.6 1.9 3.7.3 1-1.3 1-2.1.1-3.5-.9-1.5-.8-2.1.4-2.8 2.1-1.4 3-1.2 3 .5 0 2 1.7 1.9 2.9-.2.8-1.6 1.1-1.4 2.2 1 1 2.2 1 3.6.2 5.8-.7 1.8-.8 3.1-.1 3.5.5.3.7 1.2.4 1.9-.3.8.2 1.9 1 2.6.8.7 2.4 3.3 3.6 5.8 1.1 2.5 2.5 4.9 3 5.2.5.3-.4 2-2.1 3.7-3.1 3.1-3.9 5.6-2.1 6.7.6.3 1 1.5 1 2.6 0 1.8-1 2.3-3.7 2-1.7-.2-1.6.7.2 2.5.8.9 1.5 2.5 1.5 3.7 0 1.2.9 3.3 2 4.7 1.1 1.4 2 3.6 2 5s.7 3.3 1.5 4.4c.8 1.1 1.2 3 .9 4.6-.4 1.7.2 4.3 1.5 7 1.9 4.1 2 4.4.3 5.6-.9.8-2.6 1.6-3.8 2-3.1.8-4.3 5.2-2.9 10.7.7 2.6.8 5 .4 5.3-.5.3-.9 1.5-.9 2.6 0 1.2-.7 3-1.6 3.9-1.5 1.7-1.5 2 0 4.4.9 1.4 1.2 2.5.7 2.5s-1.2 1.5-1.5 3.2c-.4 2.2-1.6 3.9-3.6 5-1.8 1-3 2.5-3 3.8 0 1.1-.4 2-1 2-1.3 0-5 4.1-6.1 6.7-.5 1.3-1.7 2.3-2.8 2.3-2.9 0-3.1 2.2-.4 4.7 1.2 1.2 2.3 3.4 2.3 4.8s.5 2.5 1.2 2.5c.6 0 3.4 2.3 6.1 5.1 2.8 2.9 4.7 4.5 4.4 3.6-.3-.8.2-2.2 1.2-3.1 2.4-2.2 2.5-6.9.1-9.1-2.4-2.2-2.9-9.5-.6-9.5.8 0 1.6-1.6 2-4 .3-2.1 1.2-4.3 1.9-4.7.8-.4 1.6-1.6 2-2.6.8-2.2 9.3-2.3 12.1-.2 1.1.8 2.9 1.5 4.1 1.5 1.2 0 2.6.5 3.2 1.1 1.7 1.7 3.3.2 3.3-3.1 0-1.6.7-3 1.6-3.4 1-.4 1.3-1.3.9-2.7-.5-1.3-.1-2.5.9-3.2.9-.7 2.3-3.9 3.1-7.2.9-3.2 1.7-6.1 1.9-6.2.4-.4 6.4 2.3 9 4 3.8 2.4 5.5 4.1 5 4.9-.3.4 0 .8.5.8.6 0 1.1-.7 1.1-1.5 0-1.8 2-2 2-.3.1 2.2 3-2.5 3-4.7 0-1.2.6-2.7 1.3-3.4 1-1 .8-1.4-.6-2.2-.9-.6-1.5-1.4-1.2-1.8.2-.5-.2-1.4-1-2.1-2-1.6-1.8-4 .4-6.7 2.1-2.6 5.7-2.1 6.6.8.8 2.5 3.7 4 5.6 2.8.7-.5 3-.9 5-.9 2.6 0 3.8-.5 4.1-1.8.3-.9 1.7-2.4 3.2-3.1 2.4-1.3 3.1-1.3 6 .3 3.2 1.7 3.5 1.7 7.1 0 3.7-1.7 3.7-1.7 5.8.9 3.6 4.2 6.3 4.4 8.7.5 1.1-1.8 1.8-3.9 1.5-4.7-.4-.9.1-1.2 1.5-.8 1.6.4 2.4-.1 3.3-2 1-2.3 1.2-2.4 2.4-.7.7 1 1.3 1.3 1.3.7 0-.7-.4-1.5-1-1.8-.5-.3-1-1.5-1-2.6 0-1.8.1-1.8 3.5.3 2 1.3 3.3 2.9 3 3.6-.3.8-.5 2-.5 2.8 0 .9-.4 1.3-.9.9-2.3-1.3-2 1.8.5 5.5s2.6 4.3 1.3 6.6c-1.3 2.4-1.2 2.8 1.4 4.9 1.6 1.2 2.9 2.8 3.1 3.6.1.8.8 3.3 1.5 5.7.7 2.4 1 4.9.8 5.5-.2.7 0 1.9.4 2.9.7 1.3.5 1.5-1 1.1-2.5-.6-3.5 1.2-1.6 3 .8.9 1.2 2.2.9 3-.6 1.7 4 9.7 5.6 9.7.6 0 1 .6 1 1.2 0 .7.9 2.4 1.9 3.7 1.4 1.8 1.7 3.2 1.1 5.1-.7 2.3-.2 3.3 3 6.4 2.2 2.1 4 5 4.4 6.9.5 2.9 1.1 3.4 5.3 4.3 4.6 1.1 4.8 1.1 7.9-2.2 1.7-1.9 3.8-3.4 4.6-3.4 2.1 0 3.8-2.1 3.8-4.7s1.5-3 2.8-.8c.7 1.3 1.4 1.4 3.5.6 1.5-.6 3-1.7 3.3-2.6.3-.8 1-1.3 1.5-1 .4.3.7-1.1.6-3.2-.2-3.2.2-3.9 2.6-5.1 1.5-.7 2.7-1.8 2.7-2.4 0-.5.7-.8 1.5-.4.8.3 1.5.1 1.5-.4 0-.6.7-1 1.6-1 .9 0 1.2.5.8 1.2-.4.7-.3.8.4.4s1.2-1.3 1.2-2.1c0-1.9-3-2.8-3.6-1-1.1 2.8-6.3-1.1-6.4-4.8 0-1-1-2.1-2.3-2.6-1.3-.5-3.1-2.1-4.1-3.5-.9-1.5-2.1-2.4-2.5-2.2-.5.3-1.6-.3-2.5-1.3-1.3-1.5-1.4-2-.4-2.4.7-.3.3-.6-.9-.6-2.7-.1-6.6-4.9-6-7.3.3-1.1 0-1.8-.8-1.8s-2.6-1.8-4.2-4c-3-4.3-4.4-4.8-6.3-2.5-1 1.2-1.5 1.1-3.3-.6l-2.2-2 2.3-1.8c2.1-1.5 2.2-1.9.8-3-4.3-3.6.5-8 6.3-5.8 2.3.8 3.6.9 4.9.1 1-.7 2.6-.8 4-.3 2.4.9 2.8 1.9 1.1 3.6-1.9 1.9.7 2.4 4 .7 1.9-.9 3.1-2.3 3.1-3.5 0-1.2.4-1.7 1.1-1.3.6.3 1.5 0 2-.7.7-1.1 1.5-.8 3.5 1.5 1.4 1.5 2.8 2.5 3.2 2.1.4-.4.1-1-.6-1.2-.7-.3-1.7-1.3-2.2-2.4-1.4-2.4 1.1-2.7 3.4-.3.9.8 2.2 1.4 2.9 1.1.6-.2 2.5.2 4 1 2.1 1.1 3.6 1.2 5.7.5 2.4-.9 3.1-.7 4.8 1.1 1 1.2 2.2 3 2.5 3.9.3 1 1.7 2 3.1 2.4 1.9.4 2.7 1.5 3.2 4 .9 4.9 4 8.4 7.4 8.4 1.5 0 3.3.6 3.9 1.4.6.7 2.2 1.1 3.5.9 1.3-.3 3.6.3 5 1.2 2.4 1.6 2.8 1.6 4.4.2.9-.8 3.5-1.9 5.7-2.3 2.2-.4 4.3-1.2 4.7-1.8.4-.7 1.3-.5 2.5.6 2.8 2.5 7.2 3.3 7.9 1.5.4-1.2 1.1-1.4 3.1-.6 3.7 1.4 4.9 1.1 6.1-1.5.8-1.9 1.8-2.4 4.1-2.4 1.7.1 3.1.5 3.1 1 0 .4.9.8 2 .8s2-.6 2-1.4c0-.8.7-1.6 1.5-2 .8-.3 1.5-1.2 1.5-2 0-.9 1.4-2.9 3-4.6 2.9-3 3-3.3 1.8-6.6-.6-1.9-1.6-3.4-2-3.4-1.3 0-.9-5.8.5-6.3.7-.3.5-.6-.5-.6-1.2-.1-1.8-.9-1.8-2.5 0-1.4-.5-2.8-1.1-3.2-.6-.3-.9-1.9-.7-3.4l.4-2.7-4.4 1.3c-2.4.8-4.8 1.2-5.2.9-.4-.2-.5.7-.2 2.2.4 2.3.3 2.5-1.4 1.8-1-.5-3.7-1-5.9-1.1-6.2-.2-6.3-.3-2.1-2.5 2.8-1.5 3.5-2.4 2.7-3.2-1.6-1.6-1.4-2.7.5-2.7 1.3 0 1.5-.7 1-3.3-.4-2.6-.1-3.7 1.9-5.6 2.6-2.4 3.1-4.6 1.6-6.9-.4-.7-.3-2.8.3-4.7.9-2.8 1.3-3.2 2.8-2.4 1 .5 1.8 1.7 1.8 2.6 0 2.1 1.3.9 1.6-1.5.1-.9.5-3.3.9-5.2.4-1.9.7-4.3.8-5.3.1-.9.8-1.7 1.6-1.7 1.2 0 1.2-.3-.1-1.8-2.4-2.8-3-4.2-1.6-3.7.7.2 2.1-.2 3.1-.9 1.5-1.2 1.6-1.8.8-3.5-1.5-2.7-1.4-3.4.5-2.7 1.2.5 1.4.1.8-1.6-.5-1.7-.3-2 1-1.5 2.2.9 2.1-.9-.1-2.2-1.6-.9-1.6-1.2-.3-2 .8-.6 1.9-.6 2.3-.2 1.1 1.1 5.7-1.1 5.7-2.7 0-.8-1-2.2-2.2-3.3-2-1.6-2-1.8-.5-1.9 2 0 2.4-3.9.5-5.8-.9-.9-.9-1.2 0-1.2 1.8 0 1.4-5.9-.7-10.7l-2-4.2 2.4 1.1c1.9.9 3 .7 4.9-.6 2.1-1.3 3.6-1.5 8.1-.8 4.8.8 5.5.7 5-.6-.6-1.5 3.3-5.9 4.7-5.5.5.2.8-.9.8-2.3 0-2.1.4-2.5 1.9-2.1 2.5.6 3.2-1.1 2.1-5.9-.5-2.1-.7-4-.6-4.2.2-.1 2.3 1.3 4.6 3.3 3.3 2.7 4.9 3.5 6.9 3.1 1.5-.3 3.4 0 4.4.8 1.5 1.2 1.7 1.8.7 3.5-.6 1.2-1.4 1.9-1.8 1.7-.5-.3-1.4-.1-2.1.3-.9.6-.6 1.7 1.3 4.5 2.4 3.6 4.3 3.4 3.1-.4-.4-1.4-.1-2.2 1-2.6 2.4-.9 3.7-5.1 2.4-7.5-.9-1.8-.8-1.9 1.6-1.3 2.1.5 2.7.2 3.1-1.4.4-1.3 1.2-1.8 2.4-1.5 1.2.3 2-.2 2.5-1.7.6-1.7 1.2-2 3.6-1.5 4.7 1 10.6-5.1 7.7-8-.4-.4-.4-1.3-.2-2 .3-.8-.6-1.4-2.6-1.7-2.1-.3-2.9-.1-2.6.7.8 2.2-1.2 3-6.3 2.7-5.6-.4-7.2-2.3-4.5-5.4 1-1 1.7-3.3 1.6-5.3-.1-1.9.3-3.7.7-4 1.4-.8-.8-7.5-3.5-11.2-1.3-1.7-2.4-3.6-2.4-4.2 0-.6-.9-1.1-2.1-1.1-2.7 0-6.1-1.9-5.4-3 .3-.4 0-3.1-.6-5.9-.7-3.5-1.6-5.1-2.6-5.1-1.4 0-1.4-.2 0-1.8 1.3-1.5 1.4-2.1.4-3.2-.6-.8-.3-.7.9.3 1.1.9 2.6 1.7 3.4 1.7.7 0 1.9.8 2.7 1.7 1 1.3 1.6 1.4 1.9.6.6-1.4 4.9-.1 7.8 2.5 1.4 1.3 2 1.4 2.3.4.3-.6 1.1-1.2 1.8-1.2.8 0 1.1-.7.8-2-.8-2.9 3.2-2.6 5.2.4 1.8 2.7 1 5.6-1.5 5.6-1.3 0-1.7.5-1.3 2 .3 1-.5 3.5-1.7 5.5l-2.2 3.5h2.6c1.9 0 3.1 1 5.2 4.5 1.4 2.5 2.3 5.2 2 6.1-.3.8-.2 1.2.4.9.5-.3 1.4 1.4 2 3.7.6 2.4 1.2 4.7 1.4 5.3.2.5-.3 1.7-1.1 2.6-1.3 1.5-1 1.9 1.9 4 2.1 1.5 4.8 2.4 7.3 2.5 2.2 0 4.9.3 6.1.7 1.5.5 2.8 0 4.7-1.9 1.5-1.5 2.4-3.1 2-3.8-.3-.6 1 .4 2.9 2.2 3.1 3 3.9 3.2 5.8 2.2 1.8-.9 2.5-.8 4.1.6 1 .9 1.9 2.4 1.9 3.3-.1 2.5-3.6 6.1-6 6.1-1.3 0-2.4.8-2.7 2-.3 1.1-1.2 2-2 2-1.2 0-1.4.8-1 3.6.7 4.1 0 6.4-1.8 6.4-.7 0-1.8.7-2.5 1.5-1.1 1.3-1 1.8.4 2.8 1.3 1 1.4 1.8.7 4.4-1.1 3.7-.5 6.9 1.9 10 1.5 1.9 2 2 3.5.9 1.3-.9 1.6-2 1.1-3.9-.3-1.4-.2-2.8.4-3.2 1-.6.2-3.6-1.4-4.7-.7-.5-.6-.8.3-.8 1.7 0 14.1 10 14.1 11.4 0 .6.7.3 1.4-.7 1.3-1.7 1.7-1.7 5.1-.3 2 .9 4.1 1.3 4.6 1 .5-.3.9.2.9 1 0 .9.3 1.7.8 1.7 3.3.6 5.3.5 5.8-.3.3-.4 1-.6 1.5-.3.5.4.9.1.9-.4 0-.6.7-1.1 1.5-1.1s1.5-.8 1.5-1.8c.1-1.5.3-1.4 1.9.5 2.7 3.2 3.9 1.5 3.6-4.9-.3-4.2 0-5.8 1.1-6.2.8-.3 1.4-1.3 1.4-2.3.1-2.2 2.3-5.3 3.9-5.3.6 0 1.1-1.3 1.1-3 0-2 .8-3.5 2.5-4.6 2.1-1.4 2.5-2.4 2.5-6.5 0-4.3.3-5.1 2.5-6.1 1.4-.6 3.4-3.1 4.6-5.6 2-3.9 2-4.6.7-5.6-.9-.6-1.7-3.3-2-6.4-.4-4.6-.3-5.2 1.1-4.6.9.3 2.3.7 3.1.8 1.4.1 1.5-.4.3-4.7-.4-1.3-.1-1.6 1.3-1 1.1.3 2.2 1.1 2.5 1.6 1.2 1.7 5.9-.2 5.9-2.4 0-1.7.3-1.8 2-.9 2.8 1.5 2.5.1-.6-3.1l-2.6-2.7-5.5 2.9c-3 1.6-6.3 2.9-7.2 2.9-.9 0-2.8.5-4.2 1.2-2.5 1.2-2.6 1.5-2.4 10.1.1 8.7.1 8.9-2.4 9.8-1.4.6-3.5.8-4.7.5-1.4-.4-2.4-.1-2.8.9-.3.8-1.2 1.5-1.9 1.5-.8 0-2 .7-2.8 1.6-.7.9-2.2 1.4-3.5 1.1-1.4-.2-2.5.2-2.8.9-.8 2.2-5.8 1.6-8.5-1-1.6-1.4-4.4-2.6-7.1-2.9-4-.5-4.7-.3-5.5 1.6-.6 1.2-1.9 2.2-3 2.2-1.7 0-1.9-.6-1.7-3.8.2-2.1-.2-4.4-.8-5.2-.7-.8-1-3-.7-5.2.4-2.6.1-4-1-4.8-1.3-1-1.3-1.5.1-4.8l1.5-3.7-2.9 1.5c-2.7 1.4-3.1 1.4-4.9-.4-1.1-1.1-3.1-2.7-4.5-3.6-2-1.3-2.4-2.3-2-4.4.5-2.4.1-2.9-4.5-5.1-3-1.3-4.7-2.7-4-3 .7-.5.6-1.2-.6-2.1-.9-.8-2.7-2.4-4-3.7-1.4-1.3-2.6-1.9-2.9-1.3-.8 1.2-3.4.4-5.7-1.6-1.5-1.2-1.6-1.1-1.1 1.4.3 2.2.2 2.6-.8 1.6-.7-.6-1.8-.9-2.6-.6-.9.3-.7-.7.7-3.3 2.3-4.6 2.3-5.1.4-8.8-1.9-3.7-1.9-10 0-11.6.8-.7 1.5-1.8 1.5-2.5 0-1.4-6.5-7.5-8-7.5-1.6 0-1.1-3.2.6-4.5 2.5-1.7 1.1-14.5-1.6-15.2-2.3-.6-4.8-10.2-2.9-11.4.6-.4.9-1.1.5-1.7-.3-.6.2-1.7 1.2-2.4 1.1-.7 2.2-2.3 2.6-3.6.7-2.2.9-2.2 2.9-.7 5 3.6 14.7 7 13.3 4.6-.3-.5 1.2-1.6 3.4-2.5 2.5-1 4-2.2 4-3.3 0-1.5.2-1.6 1-.3.6 1 1 1.1 1 .3 0-.7 1.1-1.5 2.5-1.9 1.4-.3 2.3-1 2-1.4-.3-.5.4-1.1 1.5-1.5 1.1-.4 1.8-1.1 1.4-1.6-.3-.6.1-2.1 1-3.4.9-1.3 1.6-3.6 1.6-5.1 0-2 .4-2.5 1.6-2 2.6 1 3.7-.4 1.8-2.5-1.6-1.8-1.6-1.9 1.9-1.9 1.9 0 3.8-.6 4-1.3.5-1.1 1.1 1.7.8 3.6-.2 1.1 2.5 3.7 3.2 3.1.3-.3 1.5-.1 2.6.6 1.6.8 2.1.8 2.1-.1 0-.8.4-.8 1.5.1.9.7 1.8 1 2.2.6.4-.3-.3-1.3-1.5-2.2-3-2.1-2.8-3.6.2-2.4 2.9 1.1 3.6.5 3.6-3.1 0-2.6.2-2.8 2.5-1.9 2 .8 3 .5 5.1-1.3 1.5-1.2 3.9-2.2 5.7-2.2 2.2 0 3.4-.6 4.2-2.2l1.1-2.1 2.3 2.4c2.7 2.8 7.1 3.3 7.1.8 0-.9.6-1.4 1.3-1.1.8.3 2.2-.6 3.2-1.9 1-1.3 2.8-2.4 4.1-2.4 1.3 0 2.4-.6 2.4-1.3 0-.7.9-2 2-3 1.1-.9 2-2.4 2-3.2 0-1.7 5.5-2.1 6.5-.5.3.5 2.2 1 4.1 1 2 0 4.4.5 5.5 1 2.6 1.4 9.9-.7 9.9-2.9.1-2.1 7.4-5.4 10.6-4.8 1.9.3 2.9-.2 4.1-1.9.8-1.3 2.2-2.4 2.9-2.4.8 0 1.7-.7 2-1.5.4-.8 2.4-1.8 4.5-2.1 3.3-.6 3.9-1 3.9-3.1 0-1.3.4-2.2.9-1.9.5.3 1.6-.6 2.5-1.9 1-1.5 2.2-2.3 2.9-1.9.9.5.9.4 0-.6-.9-.9-.9-1.7 0-3.1.9-1.4.9-2.1-.1-3.1-2.1-2.1-1.3-3.2.9-1.2 2 1.8 2.1 1.8 3.4.1.9-1.3 2.3-1.8 4.6-1.5 3.1.3 3.5 0 4.5-3.2.6-1.9 1.6-3.6 2.3-3.8.6-.2 1.1-1.7 1.1-3.3 0-1.7.6-4 1.2-5.2 1.3-2.2 1.4-2.6 1.7-8 0-1.5.7-2.7 1.4-2.7s2-.9 3-2c1.3-1.5 1.4-2.6.7-4.6-1.3-3.2-1.2-3.7 0-2.9.6.3 1 1.5 1 2.6 0 1 .5 1.9 1.1 1.9.5 0 .8-.4.5-.9-.4-.5.2-.8 1.1-.7 1.2.2 1.8 1.3 1.9 3.2.1 1.6.3 3.6.5 4.4.2.8-.2 1.4-.9 1.2-.8-.1-.2 1.2 1.2 3.1 1.4 1.9 2.6 3.9 2.6 4.5 0 1.7 2 1.5 2.6-.3.4-.8 1.7-1.5 2.9-1.5 1.5 0 2.6-.8 3-2 .6-1.8 2.3-2.5 4.8-2.1 1.4.2.3-6.4-1.5-8.8-1-1.3-1.8-3.9-1.8-5.8 0-3.3.2-3.5 2.6-2.9 1.4.4 3.4.4 4.4.1 1.6-.5 1.7-1 1-3.1-.6-1.4-1-3.6-1-5 0-1.3-.5-2.4-1.1-2.4-.7 0-.9 1-.7 2.5.4 1.9.1 2.5-1.3 2.5-1.2 0-1.9.7-1.9 1.9 0 1.1-.9 2.2-1.9 2.6-1 .3-2.1 1.5-2.4 2.7-.4 1.6-1.1 1.9-2.8 1.5-1.2-.3-3-.2-4 .4-2.3 1.2-3.5-.6-1.8-2.8 1.2-1.3.9-2-2-4.3-1.8-1.6-3-3.3-2.7-3.8.3-.6-.2-1.3-1.2-1.6-2.1-.7-2.7-5.2-1.1-7.3 1.4-1.7.5-10.9-1.3-13.2-2.3-2.8-4-6.3-3.4-6.9.4-.3 1.3.3 2.2 1.4 1.1 1.3 1.7 1.5 2 .6.3-.6 1.3-1.2 2.2-1.2 1.5-.1 1.5-.2 0-1.4-1-.7-1.8-1.5-1.8-1.7 0-1 6.5-.7 7.1.3.6.9 1.1.9 2.2 0 .7-.6 3.1-1.6 5.3-2.1 3.9-.9 3.9-.9.7-1-3.7-.1-4.6-2.6-1.3-3.6 1.1-.3 2-1.1 2-1.6 0-.6.9-.7 2-.4 1.5.5 2.8-.2 5-2.5 1.7-1.8 2.8-3.6 2.5-4-.3-.5.2-1.3 1.1-1.8 1.2-.6 1.6-2.6 1.7-7.3.2-5.4-.1-6.4-1.4-6.1-1.8.2-3.6-4.1-1.9-4.6.5-.2.6-1 .3-1.8s.1-1.4 1-1.4c.8 0 1.8-.7 2.1-1.6.3-.8 1-1.3 1.5-.9.6.3 2.2.3 3.6-.1 2.5-.6 2.5-.7.9-2.5-1.5-1.7-1.5-1.9-.2-1.9 1.5 0 2.5-1.3 2.6-3.5 0-.6-.6-.9-1.3-.7-.8.1-1.9-.7-2.5-1.9-.7-1.3-.8-1.9-.2-1.5.6.3 1.4.2 1.7-.4.4-.6 1.6-.8 2.7-.4 1.2.4 1.8.2 1.4-.4-.3-.5.4-1.8 1.5-2.8 1.6-1.4 1.9-2.6 1.4-5.3-.6-3-.4-3.3 1.4-2.8 1.3.3 3-.4 4.6-1.9 1.4-1.3 3.7-2.7 5-3 1.4-.3 2.2-1 2-1.5-.3-.5.2-2 1.1-3.4 1.6-2.4 1.6-2.7-.2-4-1-.8-2.3-1.5-2.8-1.5-.4 0-.6-.7-.2-1.5.3-.8.2-1.4-.2-1.2-1.1.3-5.7-3.6-6.5-5.6-.7-2-6.2-4.6-11.3-5.4-2.7-.4-3.7 0-6.1 2.7-2.7 3-3.5 3.3-9.4 3.5-8.2.2-11.9-1.4-11.9-5.4 0-3.3-2.5-5.3-8.5-7-2.1-.6-5.6-2.4-7.7-4.2-2.5-2-4.6-2.9-5.9-2.6-2 .6-4.4-2.4-3.6-4.6.7-2.1-3.5-10.1-6.7-12.9-1.7-1.5-2.5-2.8-1.7-2.8 1.1 0 1-.5-.3-2.4-1.4-2.2-1.4-2.7.1-5.6 1.4-3 1.4-3.3-.3-4.9-1.1-1-3.1-2.3-4.6-2.9-2.5-1-2.8-.9-2.8.7 0 1 .7 2.4 1.5 3.1.8.7 1.5 1.8 1.5 2.5 0 .8.8 1.5 1.7 1.7 1.4.2 1.1.7-1.1 2.1-2.7 1.8-2.8 1.8-4.3 0-1.4-1.7-1.4-1.7-.9 0 .4 1.2-.4 2.8-2.3 4.8-2.5 2.4-3.7 2.9-8.1 2.9-3 0-4.9.4-4.5 1 .3.5-.5 1.2-1.8 1.5-1.4.4-2.4 1.2-2.4 1.8.1 3.8-.5 5.7-1.7 5.7-1.9 0-3.3-2.3-1.8-2.8.6-.2.8-1 .5-1.8-1.1-2.9.6-6.2 3.7-6.9 2.5-.5 2.8-.9 1.8-2.4-1.5-2.4-5.8-1.6-5.1.9.3 1.2-.3 2.2-1.6 2.9-1.2.7-2.1 2.2-2.1 3.4 0 1.2-.3 3.2-.6 4.4-.5 1.8-1 2.1-2.4 1.3-1.3-.7-2-.6-2.4.5-.3.9-1.7 1.5-3.3 1.4-2.5 0-2.6-.1-.8-.9 1.1-.5 1.5-.9.8-.9-.6-.1-1.9-.4-2.7-.7-1.2-.5-1.5-.2-1 1 1.3 3.3-2.1 1.3-6.3-3.8-.7-.8-1.3-2.1-1.3-2.8 0-.8-.5-.6-1.1.4-2 3.5-5.3 2-8.7-4-.8-1.5-.9-2.2-.1-2.2.6 0 1.3.9 1.6 2 .6 2.2 2.3 2.8 2.3.7 0-1.8-3.6-3.8-5.5-3-1.1.4-1.5 1.3-1.1 2.8.4 1.5-.2 3.1-1.8 4.8-1.5 1.6-2 3-1.5 3.9 1.3 2 1.1 4.5-.6 6.2-1.2 1.2-1.3 2-.4 4.3 1.8 4.4 3.7 16.7 3.2 19.6-.3 1.5-1 2.7-1.7 2.7-.6 0-1.7.9-2.4 2-.7 1.3-2.3 2-4.1 2-2.3 0-3.1.6-3.9 3-.9 2.4-2 3.2-5.6 4.2-2.5.7-4.1 1.5-3.5 1.9 1.3.8 1.9 8.8.7 9.5-.4.3-.8.8-.8 1.2 0 1.2 5.5 7.2 6.7 7.2 1.4 0 2.3 2.4 2.3 6.3 0 4.1-.9 5.3-4 5.1-1.4-.1-3 .2-3.7.8-.7.6-1.4.5-1.8-.2-.3-.6-1-.8-1.5-.5-.5.3-1.9.1-3.1-.5l-2.1-1.2 2.2-2.3c2.1-2.2 2.1-2.3.3-5.7-2.5-4.8-6-6.3-10.1-4.3-2.6 1.3-3.4 1.4-5.1.3-1.2-.7-2.1-1.8-2.1-2.5s-.5-1.3-1.2-1.3c-.9 0-.9-.3 0-1.2.7-.7 1.2-2.2 1.2-3.3 0-2.5-3.4-6-4.9-5.1-.5.3-1.9-.7-3.1-2.4-1.6-2.2-2.7-2.9-4.1-2.5-1.5.5-2.2 0-3-2.5-.8-2.1-2.3-3.6-4.8-4.7-3.7-1.6-4.2-1.7-12-2.7-2.4-.2-5.2-1.3-6.2-2.3-3.3-3.3-4.8-4.3-6.2-4.3-.8 0-2-.7-2.7-1.5-1.6-1.9-4-1.9-4 0 0 1.2-.9 1.5-3.4 1.3-2-.1-4.3.5-5.3 1.4-1.6 1.3-2.2 1.4-5.1.1-1.8-.7-3.5-2-3.8-2.8-.4-.9-1.2-1.1-2.7-.6-1.5.6-3.6 0-7-1.8-2.7-1.4-4.4-2.7-3.8-2.9.6-.2 1.1-1.2 1.1-2.2 0-1.4-1-2.1-3.3-2.5-1.9-.4-4-.6-4.8-.5-2.9.4-4.1 0-3.6-1.4.3-.8-.5-3-1.8-4.8-1.4-1.8-3-4.5-3.6-6-1.2-2.9-3.9-4.5-4.9-2.8-1 1.6-4 0-4-2.1 0-1.2.9-2.1 2.5-2.5 1.4-.3 2.5-1.2 2.5-1.9s.3-2 .6-2.8c.3-1-.2-1.8-1.6-2.2-2.7-.9-4.5-5.2-2.9-7.1.9-1.1 1.7-.6 4 3.1 2.8 4.4 4.7 6 3.6 3-.4-.8-.2-1.7.3-2 .6-.4.7-1.7.4-3.1-.5-2-.2-2.4 1.5-2.4 3.2 0 2.8-4.3-.5-5.9-3.3-1.4-4.7-.5-4 2.5.6 2.1.3 2.4-2.3 2.4-1.7 0-3.1-.6-3.5-1.5-.5-1.4-.8-1.4-2.8-.1-2.5 1.6-5.5.9-7.7-1.8-.7-.9-2.3-1.6-3.4-1.6-1.9 0-3.6-1.2-7.5-5.3-.9-1-3.2-2.5-4.9-3.2-2.7-1.1-3.4-2.1-3.9-5.5-.7-4.1-.6-4.1-7.6-5.5-1-.2-1.8.1-1.8.5 0 .5-1.8-.1-4-1.1-2.3-1.1-4.4-1.8-4.9-1.5-.4.3-3.1.2-5.9-.3-4.1-.6-5-.5-4.2.4zm49 31.5c0 .5-.4 1-1 1-.5 0-1-.5-1-1 0-.6.5-1 1-1 .6 0 1 .4 1 1zm-45.6 7.6c.3.8.2 1.2-.4.9-.6-.3-1-1-1-1.6 0-1.4.7-1.1 1.4.7zm45.6 4c0 1.4-.3 1.4-1.5.4-.8-.7-1.5-1.4-1.5-1.6 0-.2.7-.4 1.5-.4s1.5.7 1.5 1.6zm151.4 78.1c.8 1.9-1.4 3.7-2.8 2.3-1-1-.1-4 1.3-4 .5 0 1.2.8 1.5 1.7zm-204.6 5.8c.3 4.1-3.8 2.9-4.4-1.3-.1-.6.8-1.2 2-1.2 1.6 0 2.2.7 2.4 2.5zm316.2 83.5c0 .5-.2 1-.4 1-.3 0-.8-.5-1.1-1-.3-.6-.1-1 .4-1 .6 0 1.1.4 1.1 1zm-693 78c0 1.4-2.8.1-3.4-1.6-.4-1.2-.2-1.2 1.4-.4 1.1.6 2 1.5 2 2zm-30 65.7c0 1.3.8 1.5 4.1 1 5.7-.7 10.9.2 10.2 1.8-.2.8 0 2.3.7 3.4 1.1 2.2 3.6 2.8 4.2 1 .4-1.3 11.8 3.6 11.8 5.1 0 .6.7 1 1.5 1s1.5.7 1.5 1.5.5 1.5 1.1 1.5c.6 0 .9-.6.6-1.4-.3-.7-.1-1.8.5-2.4.7-.7.6-1.6-.1-3-1.7-3.2-1.3-3.5 1.9-1.5 1.7.9 3 2.4 3 3.1 0 .8.9 1.6 2 1.9 2.3.6 2.7 2.3.5 2.3-.8 0-1.5-.4-1.5-.9s-.9-1.1-2-1.4c-1.1-.3-1.8-.1-1.4.4.3.5.1.9-.5.9-.7 0-.7.8-.2 2.2.5 1.3 1.6 2.3 2.5 2.3.9 0 2.1.7 2.6 1.5s1 1 1 .5c0-.6.5-.3 1 .5.6 1 1 1.1 1 .2 0-1.4 3.6-5.2 5-5.2.6 0 1 .5 1 1.2 0 .9.3.9 1.1.1s.8-1.7 0-3.1c-1.5-2.7-1.4-3.2.5-3.2 1 0 1.4.6 1 1.5-.3.9 0 1.5 1 1.5 1.6 0 3.4 3.9 3.4 7.3 0 1.2-1.1 3.5-2.4 5.2-1.8 2.3-2.7 2.7-3.7 1.9-1.8-1.4-8-1.4-7.2-.1.4.7-.1.7-1.3.2-2-.8-9.2-.8-10.5.1-.5.2-.6 1.1-.2 1.9.3 1.1.1 1.3-1 .9-.8-.3-1.8-.1-2.1.5-.4.6-2.6.8-5.2.4-4-.5-4.6-.3-5.1 1.5-.8 3.3-3 3.4-3.6.2-.9-4.2-4.8-8.2-8.3-8.4-1.7-.2-4.2-1-5.5-1.9-1.3-.9-3.9-2-5.9-2.3-8.7-1.4-12.5-4.3-16-12.2-2.4-5.3-2.4-5.2-.1-5.2 1.1 0 2.2-.4 2.5-.9.7-1 4.4-.3 6.3 1.2 1.9 1.4 6.6-.1 5.9-1.9-.4-1 .1-1.8 1.3-2.1 1.3-.3 1.8-1 1.4-2.1-.4-1-.2-1.3.5-.8.7.4 1.2 1.4 1.2 2.3zm81 2.3c0 .5-.7.7-1.5.4-.8-.4-1.5-.8-1.5-1 0-.2.7-.4 1.5-.4s1.5.4 1.5 1zm-28.1 5.4c.8.9.8 1.6.2 2-.6.4-1.5-.3-2.1-1.4-1.2-2.3.2-2.7 1.9-.6zm-7.9 9.6c.8.5 1.1 1.2.8 1.6-1 .9-3.8-.3-3.8-1.6 0-1.2 1-1.3 3 0zm470 71c-.6 1.2-1.4 1.9-1.7 1.7-.2-.3.1-1.5.7-2.7.6-1.2 1.4-1.9 1.7-1.7.2.3-.1 1.5-.7 2.7zm4-2.6c0 .3-.4.8-1 1.1-.5.3-1 .1-1-.4 0-.6.5-1.1 1-1.1.6 0 1 .2 1 .4zm-320 85.6c1.2 0 1.5 1.3 1.5 5.8 0 5.9-.9 8.7-2.6 7.7-.5-.4-.9-1.4-.9-2.3 0-1-.9-2.3-2-3-1.1-.7-2-2.3-2-3.7 0-1.4-.5-2.5-1.1-2.5-.8 0-.7-.5.2-1.6.7-.9 2.1-1.3 3.3-1 1.2.3 2.8.6 3.6.6zm253 3.1c0 .5-.4.9-1 .9-.5 0-1-.7-1-1.6 0-.8.5-1.2 1-.9.6.3 1 1 1 1.6zm-240.6 18.5c1.8.7 1.2 2.4-1 2.4-.8 0-1.4-.7-1.4-1.5 0-1.7.2-1.8 2.4-.9zm13.6 27.9c0 1.4-3.9 3.7-5 3-1.3-.8-1.3-3.8.1-5.2 1.3-1.3 4.9.4 4.9 2.2zm-6 3.5c0 .5-.4 1-1 1-.5 0-1-.5-1-1 0-.6.5-1 1-1 .6 0 1 .4 1 1zm17.7 13.3c-.5 1.5-2.9 1.6-3.4.2-.2-.6.6-1.1 1.8-1.2 1.2-.1 1.9.3 1.6 1z"/><path d="M531.75 55.191c-2 .7-2.8 1.9-3.3 4.6-.3 2-.9 5.1-1.2 6.8-.8 4 .1 4.1 4.3.4 2.3-2 3.2-3.6 3.1-5.4-.1-1.6-.7-2.3-1.5-2-.7.3-1.3 0-1.3-.6s.7-1.1 1.5-1.1 1.5-.9 1.5-2-.1-2-.2-1.9c-.2.1-1.5.6-2.9 1.2zM436.35 88.891c.3.5.8 1 1.1 1 .2 0 .4-.5.4-1 0-.6-.5-1-1.1-1-.5 0-.7.4-.4 1zM433.75 88.991c0 .2-.2 2.3-.5 4.6-.2 2.4-.5 4.6-.6 5-.2 1.2 3 8.1 4.1 8.8.6.3 2-.8 3.2-2.5 1.3-1.6 3.1-3 4.1-3 1.1 0 2-1 2.4-2.5.8-3.4-.2-4.4-2.1-1.9-1.4 1.8-1.4 1.8-1.5-.4 0-1.2-.4-2.2-1-2.2-.5 0-2.5-1.4-4.5-3.1-1.9-1.7-3.5-2.9-3.6-2.8zM448.05 101.491c.4 2.1 2.2 2.3 2.6.1.2-1-.3-1.7-1.3-1.7s-1.5.6-1.3 1.6zM830.75 134.291c1.3 1.6 5.1 2.8 5.1 1.7 0-.7-4.4-3.1-5.7-3.1-.3 0 0 .6.6 1.4zM790.85 206.391c0 .8.2 1.5.4 1.5s.6-.7 1-1.5c.3-.8.1-1.5-.4-1.5-.6 0-1 .7-1 1.5zM774.85 216.891c0 1.1.4 2 .9 2 1.1 0 2.2-2.6 1.4-3.4-1.2-1.2-2.3-.5-2.3 1.4zM797.85 237.991c0 .5.5.7 1 .4.6-.3 1-.8 1-1.1 0-.2-.4-.4-1-.4-.5 0-1 .5-1 1.1zM776.65 274.991c-.6 1.8 2.5 7.8 4 7.9 1.9 0 5.2-1.9 5.2-3 0-.5-1.6-1.2-3.5-1.6-2.5-.4-3.5-1.1-3.5-2.5 0-2.1-1.6-2.6-2.2-.8zM768.85 279.491c0 1.4.3 1.4 1.5.4.8-.7 1.5-1.4 1.5-1.6 0-.2-.7-.4-1.5-.4s-1.5.7-1.5 1.6zM790.45 283.591c1.8 1.3 1.8 1.5.1 2.4-1.3.8-1.5 1.4-.7 2.8.5 1 .7 2.1.4 2.4-.3.3.2.3 1.3.1 2.3-.7 5.6-5.1 4.8-6.4-.3-.6-1.5-1-2.6-1-1 0-1.9-.4-1.9-.8 0-.5-.7-.9-1.6-.9-1.4 0-1.4.2.2 1.4zM9.35 302.891c.3.5 1.1 1 1.6 1 .6 0 .7-.5.4-1-.3-.6-1.1-1-1.6-1-.6 0-.7.4-.4 1zM79.85 306.991c0 .5.5.7 1 .4.6-.3 1-.8 1-1.1 0-.2-.4-.4-1-.4-.5 0-1 .5-1 1.1zM242.85 327.291c0 .2.7.7 1.6 1 .8.3 1.2.2.9-.4-.6-1-2.5-1.4-2.5-.6zM702.95 442.491c0 1.1.3 1.4.6.6.3-.7.2-1.6-.1-1.9-.3-.4-.6.2-.5 1.3zM694.75 448.091c.6 1.6 1.8 2.4 4 2.6 2.8.3 3.1 0 3.1-2.3s-.2-2.4-2-1.5c-1.4.8-2.6.8-4 0-1.8-.9-1.9-.8-1.1 1.2zM8.85 466.291c0 .2.7.7 1.6 1 .8.3 1.2.2.9-.4-.6-1-2.5-1.4-2.5-.6zM559.35 516.791l-5 .6 2.3 2.2c2.3 2.4 5.2 3.1 5.2 1.2 0-.6.7-.9 1.5-.5.8.3 2.5.1 3.7-.4 1.3-.5 1.7-.9 1.1-.9-.7-.1-1.3-.8-1.3-1.6s-.6-1.4-1.2-1.3c-.7 0-3.5.4-6.3.7zM569.85 520.391c0 .9.5 1.5 1.1 1.3.6-.2 1.1-.8 1.1-1.3s-.5-1.1-1.1-1.3c-.6-.2-1.1.4-1.1 1.3zM625.85 527.891c-1.9.4-3 .8-2.5.9.6.1 1.6.5 2.4 1 1.2.7 1.2 1.3.3 2.4-1 1.1-.7 1.6 1.3 2.5 2 .9 2.5.9 2.5-.3 0-.8.6-1.8 1.4-2.2.7-.4 1.7-1.8 2-3.1.8-2.4-.5-2.7-7.4-1.2zM229.85 548.191c.1 1.2.7 3.3 1.4 4.6.8 1.4 1.2 3.1.9 3.8-.3.7-.1 1.3.5 1.3.5 0 1.3 1.1 1.6 2.4.3 1.3 1.2 2.6 2 2.9 1 .4 1.3.1.9-.9-.3-.7 0-1.4.5-1.4.7 0 .6-1.3-.3-3.9-.7-2.1-1.2-4.6-1.2-5.6.1-1.1-1.1-2.5-3-3.6-3.3-1.9-3.3-1.9-3.3.4zM86.15 553.591c-1.9.7-1.6 1.9.6 1.9 1.1 0 1.7-.5 1.4-1.3-.3-.7-.6-1.3-.7-1.2 0 0-.7.3-1.3.6zM77.65 563.391c.6 3.2 3.8 5.5 7.5 5.5 4.1 0 3-2-3-5.2l-5-2.8.5 2.5zM511.75 575.591c-.1 1-.1 2.1 0 2.5.2 1.3-3.1 4.6-4.3 4.4-.6-.2-.8-.1-.3.1.4.3.7 1.1.7 1.8 0 1.5 3.8 3.1 4.8 2.1.9-.9.9-12.6 0-12.6-.5 0-.9.8-.9 1.7zM514.85 598.191c0 1.7.5 2.7 1.5 2.7 1.9 0 1.9-.9 0-3.4-1.4-1.9-1.5-1.9-1.5.7zM353.85 618.991c0 .5.5.7 1 .4.6-.3 1-.8 1-1.1 0-.2-.4-.4-1-.4-.5 0-1 .5-1 1.1zM210.45 667.591c-.3.4-.6 1.3-.6 2.1 0 .9.3 1.3.6.9.4-.3 1.3 0 2.1.8s2.2 1.5 3.1 1.4c1.2 0 1-.3-.7-1-1.4-.5-2.1-1.5-1.8-2.3.6-1.5-1.6-2.9-2.7-1.9z"/></g></svg>