<?xml version="1.0" standalone="no"?>
<!DOCTYPE svg PUBLIC "-//W3C//DTD SVG 20010904//EN"
 "http://www.w3.org/TR/2001/REC-SVG-20010904/DTD/svg10.dtd">
<svg version="1.0" xmlns="http://www.w3.org/2000/svg"
 width="598.433152pt" height="540.799320pt" viewBox="0 0 598.433152 540.799320"
 preserveAspectRatio="xMidYMid meet">
<metadata>
Created by potrace 1.15, written by Peter Selinger 2001-2017
</metadata>
<g transform="translate(-708.289221,1263.947403) scale(0.100000,-0.100000)"
fill="#222222" stroke="none">
<path d="M7770 12631 c-9 -9 -25 -32 -37 -51 -30 -49 -56 -68 -107 -81 -29 -7
-46 -17 -49 -30 -3 -10 -14 -19 -24 -19 -19 0 -33 -9 -97 -60 -17 -14 -59 -39
-93 -55 -51 -24 -60 -32 -52 -46 10 -19 -13 -45 -31 -34 -17 11 -31 -43 -21
-82 11 -39 -3 -83 -26 -83 -7 0 -13 -8 -13 -19 0 -11 -12 -23 -30 -31 -58 -24
-25 -73 34 -51 27 11 34 3 15 -16 -16 -16 -2 -33 29 -33 15 0 36 -7 46 -15 27
-20 48 -19 73 4 21 20 35 19 27 -3 -5 -13 33 -54 44 -48 4 2 8 -1 10 -7 2 -6
-2 -11 -8 -11 -7 0 -10 -7 -6 -15 3 -8 -1 -21 -9 -29 -13 -13 -13 -15 5 -21
28 -9 41 -37 24 -53 -7 -7 -17 -13 -21 -13 -5 -1 -19 -10 -32 -20 -18 -15 -20
-19 -7 -19 9 0 16 -5 16 -11 0 -7 8 -9 23 -4 22 7 53 11 96 14 16 1 21 5 18
16 -4 8 -2 17 4 21 6 3 8 12 5 20 -3 8 -2 14 2 14 14 0 32 53 22 64 -5 7 -5
17 0 26 6 8 10 25 10 38 0 30 28 83 51 100 11 7 19 22 19 32 0 10 9 22 20 25
11 3 20 11 20 16 0 5 7 9 16 9 9 0 22 8 29 17 17 23 51 23 94 2 29 -14 37 -15
39 -4 4 18 32 8 32 -11 0 -8 6 -14 13 -14 7 0 28 -11 46 -25 28 -20 37 -22 55
-13 12 7 45 13 75 15 30 2 57 6 60 8 2 3 -4 14 -13 24 -14 15 -15 24 -7 40 15
27 14 50 -4 67 -16 17 -21 54 -6 54 15 0 19 47 6 70 -16 29 -8 58 16 65 25 8
24 25 -1 25 -13 0 -20 7 -20 20 0 25 -44 54 -71 47 -13 -4 -36 4 -59 18 -27
17 -40 21 -44 12 -3 -9 -7 -8 -15 3 -6 8 -11 11 -11 6 0 -5 -20 10 -45 33 -24
22 -51 41 -59 41 -14 0 -40 34 -41 52 -1 19 -21 24 -35 9z"/>
<path d="M7215 12300 c3 -5 11 -10 16 -10 6 0 7 5 4 10 -3 6 -11 10 -16 10 -6
0 -7 -4 -4 -10z"/>
<path d="M7270 12290 c0 -5 5 -10 10 -10 6 0 10 5 10 10 0 6 -4 10 -10 10 -5
0 -10 -4 -10 -10z"/>
<path d="M8220 12000 c0 -12 28 -25 36 -17 3 3 -4 10 -15 17 -15 7 -21 7 -21
0z"/>
<path d="M7116 11993 c-3 -4 -6 -14 -6 -24 0 -10 -7 -22 -16 -27 -15 -8 -15
-11 1 -36 10 -14 26 -26 36 -26 24 0 24 8 2 33 -13 15 -15 21 -5 24 6 3 12 12
12 20 0 13 3 13 15 3 13 -11 18 -11 28 0 10 10 9 12 -4 7 -9 -3 -26 3 -37 13
-11 10 -23 16 -26 13z"/>
<path d="M8240 11949 c0 -16 -51 -31 -107 -31 -13 0 -23 -6 -23 -15 0 -8 -4
-11 -10 -8 -5 3 -19 1 -31 -5 -14 -8 -29 -8 -49 -2 -24 9 -29 7 -38 -13 -6
-13 -21 -25 -33 -27 -22 -3 -29 -22 -29 -85 0 -13 -5 -23 -11 -23 -6 0 -9 -18
-8 -43 2 -27 -4 -59 -15 -82 -10 -21 -20 -51 -21 -67 -1 -16 -7 -34 -14 -41
-6 -6 -11 -21 -11 -34 0 -13 -4 -23 -9 -23 -5 0 -11 -12 -13 -27 -3 -25 -7
-28 -39 -27 -31 1 -36 -2 -31 -19 4 -16 1 -18 -15 -13 -15 5 -25 0 -37 -19
-10 -15 -26 -25 -41 -25 -14 0 -30 -8 -37 -19 -9 -16 -17 -17 -46 -9 -18 5
-36 7 -39 4 -8 -8 17 -36 33 -36 7 0 18 -9 24 -19 5 -11 20 -21 32 -23 23 -3
44 -50 52 -116 3 -21 5 -37 6 -37 1 0 4 -22 7 -48 2 -27 17 -75 33 -109 20
-43 26 -66 21 -82 -16 -41 -22 -114 -11 -121 12 -7 3 -72 -12 -92 -5 -7 -7
-21 -3 -33 4 -11 2 -20 -4 -20 -6 0 -11 -7 -11 -16 0 -11 -6 -14 -22 -8 -21 6
-21 5 5 -39 19 -32 24 -48 16 -53 -7 -4 -18 1 -26 11 -12 18 -13 17 -13 -8 0
-15 -5 -27 -11 -27 -6 0 -8 -7 -5 -16 3 -8 3 -27 0 -40 -5 -19 -11 -23 -27
-18 -17 5 -19 3 -13 -17 17 -62 18 -78 2 -100 -9 -13 -16 -32 -16 -42 0 -36
115 -138 139 -123 13 9 51 -24 51 -45 0 -10 5 -19 10 -19 6 0 10 -5 10 -11 0
-5 13 -24 30 -42 16 -18 30 -35 30 -39 0 -4 9 -9 20 -13 17 -5 18 -9 7 -26 -7
-12 -19 -18 -29 -15 -10 2 -18 0 -18 -5 0 -6 -9 -5 -21 1 -18 10 -20 9 -17 -6
4 -22 20 -29 92 -43 61 -11 90 -3 80 22 -5 13 5 15 106 21 43 3 74 -1 92 -10
15 -8 38 -14 53 -14 14 0 25 -6 25 -12 0 -7 14 -26 30 -42 16 -16 27 -33 24
-37 -3 -5 10 -6 28 -2 18 3 37 12 41 20 5 7 12 11 17 8 5 -3 12 4 15 16 5 14
13 19 25 16 26 -7 34 30 9 44 -18 9 -18 11 -4 25 12 13 19 14 30 4 12 -10 18
-10 30 0 11 9 22 9 46 1 47 -16 78 -14 116 10 24 15 37 18 46 11 16 -14 33 -3
39 23 2 11 9 19 15 18 6 -1 18 6 28 17 16 17 16 20 0 44 -22 33 -14 69 26 113
16 19 29 38 29 43 0 6 5 10 10 10 6 0 20 9 32 19 19 18 22 19 45 4 26 -18 42
-11 24 10 -6 8 -9 21 -5 30 3 10 -4 20 -23 29 -25 12 -28 18 -27 63 1 32 -4
53 -13 58 -22 13 -15 24 18 24 33 0 49 15 49 49 0 22 -24 39 -41 28 -5 -3 -14
8 -21 23 -7 15 -13 29 -14 31 -1 1 -19 5 -40 7 -21 3 -50 13 -64 23 -14 9 -34
21 -45 27 -14 7 -21 22 -23 50 -1 22 -6 49 -11 60 -25 61 -34 95 -38 135 -4
58 -3 131 2 150 6 20 -14 50 -22 33 -7 -20 -40 -15 -94 12 -39 19 -49 21 -49
9 0 -11 -4 -13 -16 -6 -9 5 -26 7 -36 4 -13 -3 -29 6 -50 29 -31 34 -47 89
-27 89 10 0 9 20 -4 75 -2 8 -16 28 -32 45 l-29 30 27 0 c32 0 34 13 8 39 -13
13 -16 22 -8 30 7 7 6 15 -3 26 -16 19 -7 82 14 99 8 6 16 20 18 31 2 11 8 19
14 18 5 -1 9 31 9 71 0 64 3 77 28 109 28 37 29 57 2 57 -7 0 -16 11 -19 24
-3 15 -16 26 -31 30 -14 4 -23 11 -19 17 7 12 -44 89 -59 89 -5 0 -16 8 -23
18 -12 15 -13 15 -14 1z"/>
<path d="M7358 11603 c7 -3 16 -2 19 1 4 3 -2 6 -13 5 -11 0 -14 -3 -6 -6z"/>
<path d="M11715 10480 c-5 -15 -13 -19 -31 -16 -13 3 -28 7 -33 10 -5 4 -12
-3 -16 -14 -3 -11 -17 -23 -31 -26 -14 -4 -24 -13 -24 -23 0 -10 -11 -24 -25
-31 -14 -7 -25 -19 -25 -27 0 -9 -15 -13 -50 -13 -49 0 -49 0 -40 -26 9 -21 7
-29 -7 -40 -11 -8 -22 -9 -27 -3 -16 15 -29 10 -16 -6 10 -12 9 -16 -4 -21
-10 -4 -15 -12 -13 -18 7 -17 -20 -76 -34 -76 -21 0 -67 -59 -62 -80 4 -13 0
-20 -10 -20 -16 0 -30 -24 -31 -55 -1 -13 -19 -31 -48 -50 -38 -24 -47 -34
-43 -51 3 -14 -1 -24 -10 -28 -8 -3 -15 -11 -15 -19 0 -7 -13 -20 -29 -30 -22
-13 -28 -22 -23 -39 5 -20 3 -21 -44 -15 -27 4 -59 9 -72 13 -18 5 -24 2 -29
-15 -4 -16 -13 -21 -39 -21 -22 0 -37 -6 -43 -18 -5 -10 -34 -34 -64 -55 -30
-21 -57 -46 -60 -56 -5 -21 -71 -32 -106 -19 -16 5 -19 3 -14 -9 5 -13 1 -15
-30 -9 -21 4 -37 3 -37 -2 0 -17 -38 -21 -44 -5 -3 8 -11 11 -16 8 -6 -4 -16
-2 -23 3 -7 5 -26 13 -44 16 -17 4 -37 14 -44 22 -8 10 -21 13 -41 9 -20 -5
-35 -2 -46 9 -10 8 -26 14 -37 14 -24 -2 -75 30 -75 46 0 7 -11 23 -24 35 -23
21 -25 22 -61 7 -21 -9 -49 -16 -63 -16 -31 0 -92 37 -92 56 0 22 -28 28 -56
14 -19 -11 -29 -11 -51 -1 -22 10 -28 10 -36 -4 -6 -12 -17 -14 -37 -10 -19 4
-35 1 -47 -10 -59 -52 -78 -62 -100 -54 -17 6 -23 5 -23 -5 0 -9 -8 -12 -24
-9 -13 3 -27 0 -30 -6 -4 -5 -13 -8 -22 -4 -12 4 -14 0 -9 -20 10 -37 -8 -60
-55 -75 -31 -9 -46 -10 -56 -1 -20 17 -76 1 -72 -20 4 -22 -19 -51 -39 -51 -8
0 -12 -4 -9 -9 3 -5 -3 -11 -13 -14 -14 -3 -17 -11 -14 -31 3 -14 1 -26 -4
-26 -17 0 -78 33 -86 47 -5 7 -14 10 -20 6 -14 -9 -64 -12 -90 -6 -18 5 -18 6
1 26 22 24 39 87 24 87 -5 0 -14 11 -20 25 -10 21 -9 27 3 32 10 3 13 12 10
24 -4 11 -2 19 5 19 6 0 8 10 4 24 -5 21 -3 24 15 19 16 -4 23 1 31 22 5 14
10 37 10 51 0 14 10 38 22 54 26 36 18 48 -24 32 -30 -11 -35 -9 -77 23 -59
46 -85 52 -142 32 -26 -10 -56 -17 -67 -17 -31 0 -43 -24 -46 -87 -1 -32 -7
-68 -14 -80 -6 -11 -13 -43 -16 -69 -2 -28 -10 -52 -20 -59 -9 -7 -16 -17 -16
-22 0 -16 47 -43 63 -37 8 3 18 1 22 -5 4 -7 18 -6 42 4 20 8 38 13 41 10 12
-11 42 30 42 57 0 15 5 28 11 28 6 0 7 6 2 13 -4 6 7 1 24 -13 46 -36 49 -50
10 -50 -25 0 -39 -7 -55 -29 -14 -19 -18 -32 -11 -36 17 -11 30 -56 20 -69
-14 -16 13 -48 51 -61 27 -8 32 -15 33 -40 0 -26 3 -30 25 -27 23 2 23 1 8
-11 -16 -13 -16 -15 -1 -37 13 -18 14 -27 5 -41 -7 -10 -12 -28 -12 -39 0 -13
-5 -18 -15 -13 -9 3 -22 -2 -29 -12 -8 -11 -18 -15 -26 -10 -9 6 -11 -2 -5
-33 4 -25 2 -42 -4 -47 -33 -20 17 -143 81 -203 22 -21 53 -52 71 -69 17 -18
39 -33 49 -33 25 0 69 -23 92 -49 10 -11 22 -18 26 -16 11 7 21 -22 14 -39 -3
-9 3 -17 15 -21 12 -3 21 -10 21 -15 0 -4 21 -2 47 6 45 14 103 11 103 -4 0
-4 16 -24 35 -45 19 -21 38 -49 41 -62 5 -19 13 -25 35 -25 33 0 59 -31 59
-73 0 -16 7 -30 15 -34 31 -11 74 -121 53 -134 -7 -5 9 -27 47 -63 32 -31 62
-56 67 -56 14 0 81 -45 102 -69 11 -11 25 -21 32 -21 8 0 21 -14 29 -31 12
-22 20 -28 28 -20 8 6 18 6 27 1 8 -5 17 -7 21 -4 13 8 39 -46 34 -69 -4 -15
-1 -28 10 -37 9 -7 22 -28 30 -46 10 -26 18 -31 34 -27 15 4 21 1 21 -11 0
-10 9 -16 24 -16 37 0 76 -18 76 -35 0 -8 5 -15 10 -15 6 0 10 -8 10 -19 0
-28 36 -105 60 -126 11 -10 20 -15 20 -10 0 4 7 1 17 -6 9 -8 24 -13 34 -11
24 4 34 -15 17 -35 -7 -9 -8 -14 -2 -10 7 4 17 1 23 -7 9 -11 9 -15 0 -18 -9
-3 -9 -9 -1 -25 12 -21 32 -26 147 -39 49 -6 79 -20 71 -33 -3 -4 4 -12 15
-19 14 -9 19 -9 19 0 0 6 3 8 7 5 3 -4 11 1 18 9 19 27 65 2 162 -87 12 -11
27 -18 33 -14 12 8 80 -16 80 -28 0 -5 13 -6 29 -2 20 4 38 1 55 -10 23 -16
25 -15 36 5 8 16 15 19 24 11 9 -7 28 -8 57 -2 89 17 114 36 103 78 -7 25 29
57 55 50 12 -3 22 1 25 10 7 17 72 8 97 -13 8 -8 22 -14 30 -14 20 1 49 25 49
40 0 10 4 9 18 -2 9 -8 25 -18 35 -21 9 -4 17 -11 17 -17 0 -12 28 -40 58 -57
18 -11 20 -10 16 1 -3 8 -1 17 5 20 6 4 8 13 4 21 -3 9 1 15 11 15 9 0 16 4
16 10 0 5 15 20 34 33 33 22 34 24 16 35 -11 7 -29 12 -39 12 -11 0 -23 5 -27
11 -3 6 -14 9 -25 6 -23 -6 -53 25 -38 40 8 8 6 20 -5 41 -15 29 -15 31 5 37
13 4 18 12 15 22 -3 8 -6 24 -6 35 0 16 -5 19 -24 14 -19 -5 -33 2 -62 29 -20
19 -39 35 -41 35 -15 0 -64 67 -73 99 -5 20 -16 45 -24 56 -18 24 -20 35 -6
35 6 0 20 8 31 18 19 19 19 19 -6 30 -19 9 -25 19 -25 42 0 35 8 37 36 11 17
-15 24 -16 37 -6 12 9 14 14 5 23 -18 18 -2 14 51 -13 27 -13 51 -22 53 -19 3
2 13 -5 23 -17 13 -13 15 -23 9 -27 -6 -4 -16 -17 -23 -29 -12 -24 -13 -24 44
-27 11 -1 26 3 33 8 16 11 48 -17 57 -51 6 -24 7 -25 20 -7 13 18 16 17 54
-23 22 -23 49 -44 61 -48 11 -3 20 -10 20 -15 0 -4 12 -11 26 -14 14 -4 44
-26 67 -49 48 -48 87 -53 87 -12 0 18 4 22 19 18 12 -3 17 -11 14 -19 -3 -8 2
-17 11 -20 9 -3 16 -12 16 -20 0 -8 5 -14 10 -14 18 0 11 -29 -7 -29 -45 -2
-63 -6 -63 -13 0 -4 -18 -8 -40 -8 -22 0 -40 -4 -40 -9 0 -14 29 -22 56 -15
17 4 24 2 24 -8 0 -18 58 -68 79 -68 9 0 22 -5 29 -12 9 -9 11 -6 7 10 -2 12
0 22 4 22 5 0 11 10 14 21 4 15 11 20 23 15 9 -3 22 -1 30 5 9 7 18 7 33 -1
18 -9 20 -8 14 7 -4 10 -13 28 -20 39 -11 18 -11 22 -1 21 34 -1 48 4 48 18 0
8 4 15 9 15 5 0 11 -7 15 -15 3 -10 19 -15 42 -15 26 0 47 -9 78 -35 24 -19
48 -35 54 -35 11 0 93 -42 116 -58 12 -9 22 -9 52 1 15 5 20 16 21 42 1 19 -3
38 -8 41 -18 11 -10 44 11 44 11 0 20 6 20 14 0 16 34 31 50 21 6 -4 10 5 10
20 0 15 4 24 10 20 6 -3 10 -1 10 4 0 6 11 11 24 11 13 0 26 6 29 13 3 9 7 9
19 0 13 -11 18 -7 33 27 10 22 22 40 27 40 4 0 8 11 8 25 0 14 5 25 11 25 5 0
7 5 4 10 -4 6 -11 8 -16 5 -5 -4 -9 -2 -9 4 0 5 7 14 17 19 10 6 14 16 10 27
-6 15 -8 15 -23 1 -21 -22 -40 -20 -57 5 -14 20 -16 20 -26 2 -10 -17 -12 -17
-28 3 -10 12 -30 24 -45 28 -19 4 -28 13 -28 26 0 11 5 20 11 20 6 0 9 8 7 17
-2 13 -14 18 -43 20 -94 4 -118 9 -131 28 -8 11 -12 25 -10 31 3 7 -2 18 -9
24 -8 7 -12 16 -9 21 3 5 -4 9 -15 9 -13 0 -21 6 -21 18 0 10 -9 25 -20 35
-29 25 -25 60 10 87 21 16 30 31 28 46 -2 13 5 29 14 36 24 18 25 76 2 123
-10 22 -22 42 -26 43 -5 2 -8 9 -8 17 0 7 -7 18 -15 25 -9 8 -13 21 -9 36 5
19 1 24 -19 29 -29 8 -43 31 -60 100 -12 49 -13 50 -55 56 -28 3 -48 13 -58
27 -17 25 -34 29 -34 9 0 -21 -71 -52 -110 -48 -19 2 -44 10 -55 18 -19 15
-19 15 8 9 26 -6 38 6 17 19 -19 12 -10 52 15 69 14 9 25 23 25 31 0 8 9 15
20 15 28 0 25 8 -15 47 -24 24 -33 39 -27 46 5 7 6 21 1 32 -13 34 -10 53 11
60 11 3 20 12 20 19 0 7 11 19 25 26 14 7 25 21 25 31 0 10 4 21 10 24 5 3 -4
27 -20 54 -30 49 -40 101 -18 101 6 0 2 10 -10 23 -12 13 -22 30 -22 38 0 8
-16 31 -36 50 -22 21 -33 41 -30 51 2 10 0 21 -5 24 -5 3 -9 19 -9 35 0 53
-36 117 -79 138 -38 20 -51 37 -51 70 0 23 -128 154 -166 169 -33 14 -43 48
-16 55 14 4 13 6 -5 12 -18 6 -22 12 -17 32 5 17 1 28 -12 38 -17 12 -18 17
-7 45 10 27 9 38 -7 74 -11 23 -32 77 -48 120 -28 82 -45 102 -57 66z m-185
-2139 c5 -11 7 -33 4 -50 -6 -28 -4 -31 19 -31 16 0 39 -12 57 -30 17 -16 34
-30 39 -30 4 0 8 -6 9 -12 0 -7 4 -23 7 -35 9 -29 -22 -45 -37 -19 -6 11 -16
15 -28 11 -23 -7 -40 20 -40 64 0 37 -17 49 -35 25 -13 -18 -16 -17 -47 14
-24 24 -28 32 -16 32 15 0 16 4 8 26 -6 14 -10 39 -10 55 l0 30 30 -16 c16 -8
34 -24 40 -34z m1110 -182 c0 -15 -4 -19 -16 -15 -9 3 -23 6 -32 6 -15 1 -14
3 2 15 28 21 46 19 46 -6z"/>
<path d="M8975 10360 c3 -5 8 -10 11 -10 2 0 4 5 4 10 0 6 -5 10 -11 10 -5 0
-7 -4 -4 -10z"/>
<path d="M7533 9949 c3 -18 43 -59 56 -59 8 0 10 8 6 20 -4 13 -2 20 7 20 10
0 9 3 -2 10 -9 5 -17 5 -21 -1 -3 -6 -11 -4 -19 6 -15 18 -31 20 -27 4z"/>
<path d="M7641 9929 c5 -11 15 -17 21 -13 5 4 13 3 17 -2 3 -5 20 -14 38 -20
47 -17 32 6 -20 31 -58 27 -69 28 -56 4z"/>
<path d="M9183 9896 c0 -18 3 -24 9 -18 7 7 7 16 0 28 -8 14 -9 13 -9 -10z"/>
<path d="M8574 9663 c-7 -2 -10 -12 -7 -22 3 -10 0 -22 -6 -25 -6 -4 -11 -15
-11 -25 0 -24 -82 -64 -120 -59 -19 3 -31 -1 -35 -10 -3 -10 -13 -12 -30 -8
-22 6 -25 3 -25 -20 0 -50 51 -69 63 -23 3 11 14 19 27 19 24 0 80 30 80 42 0
4 14 8 30 8 25 0 30 4 30 25 0 17 8 29 25 37 14 6 25 15 25 20 0 15 -34 45
-46 41z"/>
<path d="M8675 9640 c-3 -6 1 -7 9 -4 18 7 21 14 7 14 -6 0 -13 -4 -16 -10z"/>
<path d="M12263 9176 c-20 -20 -21 -25 -8 -42 8 -10 15 -15 15 -10 0 5 7 2 17
-5 15 -13 15 -12 5 7 -8 16 -8 26 3 41 8 11 11 23 8 27 -9 9 -16 6 -40 -18z"/>
<path d="M12965 8183 c3 -21 13 -43 21 -49 7 -6 21 -26 29 -45 19 -44 43 -74
51 -66 4 4 -3 15 -16 25 -22 18 -22 19 -6 45 17 25 17 26 -3 37 -12 6 -21 17
-21 25 0 13 -45 65 -57 65 -3 0 -2 -17 2 -37z"/>
<path d="M13020 8011 c0 -6 4 -13 10 -16 6 -3 7 1 4 9 -7 18 -14 21 -14 7z"/>
<path d="M11650 7880 c0 -11 4 -20 9 -20 11 0 22 26 14 34 -12 12 -23 5 -23
-14z"/>
<path d="M12790 7596 c0 -2 7 -6 15 -10 8 -3 15 -1 15 4 0 6 -7 10 -15 10 -8
0 -15 -2 -15 -4z"/>
<path d="M12255 7510 c3 -5 8 -10 11 -10 2 0 4 5 4 10 0 6 -5 10 -11 10 -5 0
-7 -4 -4 -10z"/>
<path d="M11877 7492 c-14 -6 -10 -12 25 -35 23 -15 43 -25 45 -23 7 6 -32 66
-42 65 -5 0 -18 -4 -28 -7z"/>
<path d="M11672 7363 c-6 -2 -9 -9 -6 -14 3 -6 -6 -19 -20 -30 -13 -11 -28
-28 -31 -39 -4 -11 -10 -18 -14 -15 -5 2 -16 -4 -26 -15 -25 -27 -15 -25 56
12 55 29 60 34 57 60 -3 15 -1 28 4 28 4 0 8 5 8 10 0 11 -7 12 -28 3z"/>
</g>
</svg>
