<?xml version="1.0" standalone="no"?>
<!DOCTYPE svg PUBLIC "-//W3C//DTD SVG 20010904//EN"
 "http://www.w3.org/TR/2001/REC-SVG-20010904/DTD/svg10.dtd">
<svg version="1.0" xmlns="http://www.w3.org/2000/svg"
 width="421.878700pt" height="818.310087pt" viewBox="0 0 421.878700 818.310087"
 preserveAspectRatio="xMidYMid meet">
<metadata>
Created by potrace 1.15, written by Peter Selinger 2001-2017
</metadata>
<g transform="translate(-776.118403,1411.844592) scale(0.100000,-0.100000)"
fill="#222222" stroke="none">
<path d="M10126 14088 c-13 -18 -27 -45 -31 -60 -5 -19 -15 -29 -37 -33 -26
-6 -28 -10 -23 -35 5 -22 2 -28 -15 -33 -12 -3 -24 -15 -27 -26 -3 -12 -9 -21
-14 -21 -5 0 -3 -13 5 -29 14 -26 14 -30 0 -35 -13 -5 -14 -9 -4 -21 10 -12 9
-16 -3 -21 -10 -3 -13 -13 -9 -27 5 -19 -1 -16 -37 16 -35 31 -45 36 -61 27
-11 -6 -20 -17 -20 -25 0 -9 -6 -12 -15 -8 -9 3 -14 10 -12 17 2 6 -5 19 -15
30 -13 15 -15 23 -6 33 8 10 8 17 0 25 -9 9 -12 7 -12 -10 0 -30 -37 -29 -72
2 -31 26 -35 36 -14 36 9 0 13 10 12 25 0 14 -5 25 -9 25 -4 0 -12 10 -17 23
-7 17 -9 18 -9 5 -1 -18 -21 -26 -21 -9 0 18 -46 17 -65 -2 -11 -10 -15 -18
-10 -17 25 5 35 -2 35 -27 0 -26 1 -26 15 -7 14 18 14 17 15 -12 0 -20 6 -34
16 -38 9 -4 14 -9 11 -12 -3 -3 -12 -2 -19 2 -22 14 -49 12 -43 -3 3 -10 -1
-13 -13 -11 -9 2 -18 9 -18 16 -1 6 -2 17 -3 23 -1 8 -6 8 -16 -1 -11 -9 -18
-10 -28 -1 -8 6 -17 8 -20 4 -4 -3 -7 -1 -7 5 0 7 -9 12 -19 12 -14 0 -21 -8
-23 -27 -2 -16 -8 -27 -15 -26 -7 2 -10 -4 -7 -12 4 -8 17 -15 30 -15 19 0 24
-5 24 -26 0 -14 5 -35 11 -46 9 -17 8 -23 -5 -30 -9 -5 -16 -15 -16 -23 0 -7
-9 -17 -20 -20 -11 -3 -20 -13 -20 -21 0 -8 -7 -28 -15 -43 -18 -36 -79 -49
-108 -23 -18 16 -20 16 -33 -3 -8 -10 -14 -25 -14 -32 0 -18 -47 -16 -54 2 -5
13 -9 13 -26 3 -23 -15 -27 -33 -5 -25 8 4 17 2 20 -3 4 -6 -3 -10 -13 -10
-15 0 -19 -5 -15 -20 4 -16 11 -19 27 -14 11 3 26 13 33 21 12 15 29 1 18 -16
-3 -5 -1 -12 5 -16 5 -3 10 -11 10 -16 0 -6 -5 -7 -12 -3 -7 5 -8 3 -4 -5 5
-7 14 -10 21 -7 8 3 16 -6 20 -21 5 -20 -1 -37 -22 -66 -15 -22 -34 -42 -41
-45 -8 -2 -35 19 -61 47 -26 28 -52 51 -58 51 -7 0 -13 10 -15 23 -2 15 -10
22 -24 22 -11 0 -28 6 -37 14 -11 9 -17 10 -17 2 0 -8 -5 -8 -17 -2 -37 20
-91 42 -99 40 -5 -1 -16 0 -24 4 -62 23 -77 25 -87 8 -7 -11 -7 -21 1 -34 8
-12 8 -22 -1 -37 -7 -10 -10 -26 -7 -34 3 -8 1 -17 -5 -21 -15 -8 -14 -25 1
-25 16 0 98 -87 98 -104 0 -8 7 -22 15 -30 13 -12 14 -20 4 -37 -9 -19 -7 -25
16 -45 27 -23 37 -25 137 -25 14 0 32 -6 38 -14 7 -8 25 -15 41 -15 22 0 29 5
29 19 0 11 10 31 23 43 17 19 29 23 52 18 17 -3 41 0 55 7 20 10 27 10 40 -2
9 -8 20 -12 24 -8 4 4 4 -1 0 -11 -5 -12 -14 -16 -30 -13 -20 3 -22 2 -13 -15
8 -15 4 -24 -20 -46 -17 -14 -31 -30 -31 -35 0 -4 -6 -14 -12 -21 -11 -11 -22
-9 -64 14 -31 16 -67 27 -91 27 -34 0 -41 -4 -50 -27 -15 -39 -5 -80 26 -106
22 -19 24 -25 15 -50 -8 -22 -7 -34 4 -52 15 -22 14 -23 -11 -16 -28 6 -35 -4
-16 -23 7 -7 9 -22 4 -40 -5 -15 -7 -33 -6 -40 1 -6 -3 -14 -9 -18 -17 -10
-11 -35 8 -35 17 0 19 -11 21 -102 2 -80 -1 -108 -13 -123 -32 -42 -13 -140
34 -185 15 -14 29 -31 31 -39 9 -26 31 0 27 31 -3 21 -1 27 9 24 7 -3 18 4 23
15 8 14 17 18 31 14 15 -5 19 -1 21 17 0 13 2 28 2 35 1 6 11 22 24 35 12 14
22 28 22 33 0 5 6 16 14 24 10 11 12 29 7 61 -5 29 -2 57 7 79 11 29 11 36 -1
48 -15 15 -11 63 5 63 5 0 5 7 -1 17 -6 12 -5 26 5 45 8 16 21 41 29 57 9 17
14 33 13 38 -5 13 6 16 30 9 12 -4 22 -14 22 -22 0 -8 7 -14 15 -14 8 0 15 7
15 16 0 18 45 64 62 64 23 0 88 -36 93 -51 3 -9 21 -33 40 -52 25 -26 35 -45
35 -67 0 -18 9 -45 20 -60 21 -29 18 -56 -7 -75 -7 -5 -14 -28 -16 -50 -1 -22
-6 -46 -11 -54 -6 -10 -3 -19 11 -31 12 -9 23 -34 28 -61 3 -24 9 -52 11 -61
4 -12 0 -18 -10 -18 -17 0 -20 -19 -10 -57 8 -28 24 -30 24 -4 0 28 26 47 44
32 12 -10 20 -5 43 24 22 28 33 34 53 30 19 -4 34 3 63 28 40 37 46 50 21 45
-22 -4 -30 20 -9 28 9 4 21 -1 29 -11 10 -14 17 -15 34 -6 25 13 69 15 76 2 3
-5 -7 -14 -23 -21 -16 -6 -32 -21 -36 -33 -9 -26 -9 -27 1 -51 5 -14 4 -17 -4
-12 -8 5 -12 -2 -12 -23 0 -16 -6 -36 -13 -43 -16 -16 -11 -38 9 -38 7 0 16
-11 20 -25 4 -16 13 -25 26 -25 10 0 16 5 13 10 -3 6 1 10 9 10 15 0 21 -12
17 -33 -1 -5 3 -5 9 -2 13 8 52 -24 45 -35 -7 -11 48 -20 59 -10 5 5 28 7 50
4 31 -5 45 -2 55 10 9 10 22 13 42 9 21 -4 30 -1 35 11 3 9 12 16 20 16 8 0
14 7 14 15 0 8 7 15 15 15 15 0 20 28 15 93 -1 19 3 27 14 27 22 0 22 65 1 74
-8 3 -15 10 -15 15 0 6 7 8 15 5 8 -3 34 3 57 14 24 11 62 20 86 21 24 0 50 5
58 12 7 6 21 8 31 5 11 -5 29 6 57 33 23 21 49 41 60 43 13 2 19 13 21 36 2
20 -1 32 -8 29 -6 -2 -19 5 -29 15 -22 22 -38 23 -38 4 0 -20 -38 -9 -50 15
-9 16 -13 16 -38 3 -15 -7 -32 -14 -37 -14 -17 0 -86 61 -80 71 4 5 0 6 -8 3
-14 -5 -16 16 -6 81 1 6 -2 18 -6 28 -4 11 -3 17 5 17 9 0 9 4 -1 17 -10 11
-10 14 -1 9 6 -4 12 -3 12 3 0 6 -13 8 -32 5 -30 -6 -31 -5 -15 8 18 13 17 14
-3 33 -11 10 -16 21 -11 24 5 4 13 19 17 35 5 21 4 27 -5 22 -7 -5 -11 1 -11
17 0 14 -7 28 -16 31 -12 5 -14 10 -5 20 6 7 8 16 4 19 -3 4 -1 13 6 20 12 15
4 77 -10 77 -12 0 -12 117 0 125 16 9 -6 64 -43 110 -46 56 -60 92 -41 102 12
7 11 13 -6 38 -11 17 -31 51 -45 78 -13 26 -29 47 -35 47 -5 0 -7 -4 -4 -10 3
-5 1 -10 -4 -10 -6 0 -11 7 -11 15 0 8 6 15 13 15 14 0 37 45 28 57 -3 5 -19
17 -36 27 -17 11 -24 21 -17 24 19 6 14 27 -13 56 -14 15 -25 31 -25 36 0 5
-8 13 -17 19 -14 7 -15 13 -6 22 9 9 8 20 -5 46 -15 32 -15 35 -1 44 23 12 16
86 -10 110 -28 26 -36 24 -65 -13z"/>
<path d="M8753 13783 c-13 -2 -23 -8 -23 -13 0 -4 -15 -8 -33 -7 -18 0 -47 -6
-65 -15 -17 -9 -32 -13 -32 -9 0 5 -10 6 -23 4 -23 -5 -34 -37 -16 -48 5 -4 9
-11 9 -16 0 -6 -5 -7 -11 -3 -7 4 -5 -5 3 -22 9 -16 23 -46 32 -67 13 -30 20
-37 35 -32 13 4 24 -1 33 -14 14 -19 39 -22 124 -12 18 2 84 71 84 87 0 11 6
13 20 9 27 -9 25 1 -7 31 -20 19 -35 24 -54 20 -23 -4 -28 -1 -33 20 -4 13 -2
34 5 45 6 11 8 27 5 35 -5 14 -12 15 -53 7z"/>
<path d="M10860 12545 c-10 -13 -9 -15 9 -15 11 0 21 4 21 9 0 18 -18 21 -30
6z"/>
<path d="M9961 12317 c2 -1 12 -9 22 -16 14 -12 17 -11 17 3 0 10 -8 16 -22
16 -12 0 -19 -1 -17 -3z"/>
<path d="M9031 12256 c2 -2 18 -6 34 -10 22 -5 26 -4 15 4 -14 9 -59 15 -49 6z"/>
<path d="M9107 12209 c-7 -28 -6 -31 12 -20 9 6 10 14 4 26 -9 15 -11 15 -16
-6z"/>
<path d="M9660 12206 c0 -14 -4 -28 -10 -31 -5 -3 -10 -10 -10 -16 0 -16 25
-10 43 11 9 11 14 20 11 20 -4 0 -1 6 5 14 9 11 8 15 -5 20 -27 10 -34 7 -34
-18z"/>
<path d="M9776 12195 c-3 -8 -12 -15 -21 -15 -8 0 -15 -5 -15 -11 0 -7 12 -8
33 -4 39 9 41 10 34 30 -8 19 -23 19 -31 0z"/>
<path d="M9200 12185 c10 -12 7 -13 -21 -5 -39 12 -44 8 -29 -20 15 -27 6 -50
-18 -50 -10 0 -27 -9 -37 -20 -12 -13 -25 -18 -38 -14 -16 5 -18 2 -12 -15 4
-15 1 -23 -10 -27 -13 -5 -16 -18 -14 -55 2 -27 -3 -54 -10 -63 -7 -8 -10 -24
-6 -36 5 -14 2 -20 -10 -20 -11 0 -14 -6 -10 -23 5 -17 -1 -28 -27 -47 -18
-14 -36 -24 -40 -22 -4 1 -24 -9 -44 -23 -20 -14 -47 -25 -59 -25 -16 0 -25
-8 -29 -25 -4 -14 -23 -43 -44 -64 -21 -22 -47 -66 -61 -102 -14 -35 -35 -75
-48 -90 -13 -14 -23 -35 -23 -46 0 -12 -4 -25 -10 -28 -5 -3 -10 -14 -10 -23
0 -10 -12 -22 -27 -28 -19 -7 -37 -29 -57 -69 -17 -32 -38 -60 -48 -63 -16 -4
-16 -7 -3 -32 14 -27 13 -30 -11 -49 -15 -12 -32 -21 -39 -21 -7 0 -15 -7 -19
-15 -3 -8 -14 -15 -24 -15 -11 0 -25 -7 -32 -15 -7 -8 -19 -15 -27 -15 -11 0
-13 -3 -5 -12 5 -7 13 -33 17 -58 6 -41 3 -49 -26 -87 -19 -24 -39 -43 -45
-43 -32 0 -65 -100 -67 -205 -2 -63 -4 -70 -27 -82 -17 -8 -24 -19 -22 -33 2
-13 -2 -20 -13 -20 -12 0 -15 -6 -10 -19 8 -28 -15 -61 -43 -61 -18 0 -23 -4
-18 -16 5 -13 2 -15 -11 -9 -43 18 -61 16 -86 -9 -31 -30 -47 -33 -54 -8 -6
23 -83 29 -83 6 0 -7 -5 -14 -10 -14 -6 0 -8 -11 -6 -25 3 -14 0 -25 -6 -25
-6 0 -5 -6 2 -16 11 -13 10 -16 -8 -21 -30 -8 -27 -18 9 -33 44 -19 91 -18
113 3 15 13 37 17 88 17 65 0 74 4 69 33 -1 5 18 7 41 5 41 -3 43 -5 40 -31
-2 -16 3 -36 11 -45 30 -36 28 -51 -9 -58 -37 -7 -39 -14 -18 -68 5 -12 2 -15
-10 -10 -36 14 -45 -96 -11 -130 20 -20 19 -32 -5 -56 -22 -22 -19 -40 6 -40
8 0 14 10 14 24 0 13 7 29 15 36 8 7 15 10 15 7 0 -4 10 -3 22 2 19 7 22 14
20 49 -2 22 2 50 8 62 14 26 3 80 -16 80 -8 0 -14 10 -14 22 0 12 3 18 7 15 3
-4 17 0 31 9 13 9 21 11 17 4 -4 -7 -1 -16 6 -21 20 -13 29 -11 29 5 0 15 91
33 110 21 5 -3 10 -2 10 4 0 15 110 26 131 13 20 -13 29 2 29 49 0 20 5 29 16
29 15 0 71 -41 126 -92 15 -14 28 -22 28 -17 0 21 19 7 29 -21 6 -20 17 -30
30 -30 10 0 21 -5 23 -10 2 -7 10 -6 21 2 14 10 16 19 9 37 -6 18 -4 29 12 46
38 41 46 54 46 70 0 9 9 15 25 15 22 0 25 3 19 25 -7 27 4 33 24 13 10 -10 15
-10 22 2 8 12 10 10 10 -7 0 -17 -6 -23 -21 -23 -18 0 -19 -2 -9 -15 10 -12
10 -18 0 -30 -6 -8 -9 -23 -5 -36 6 -18 13 -20 40 -16 36 6 63 -12 50 -33 -5
-8 1 -10 16 -8 19 2 26 -4 36 -32 6 -19 12 -31 12 -26 1 5 7 3 14 -3 8 -6 17
-8 20 -5 3 3 12 2 19 -2 23 -15 78 -10 83 6 7 22 60 41 74 27 8 -8 11 -8 11 1
0 14 42 16 68 3 39 -19 111 -38 119 -30 13 12 153 15 140 3 -3 -4 0 -13 8 -21
8 -8 15 -23 15 -32 0 -10 6 -23 13 -28 16 -13 97 -24 97 -13 0 15 46 3 77 -19
36 -27 103 -45 103 -27 1 6 6 1 13 -12 7 -12 16 -20 19 -17 3 3 13 -15 23 -40
12 -32 14 -49 7 -58 -8 -9 -5 -20 8 -37 11 -14 20 -28 20 -32 0 -11 76 -89
127 -131 29 -24 49 -33 63 -30 12 3 22 -1 26 -11 3 -9 15 -16 25 -16 11 0 22
-7 25 -15 4 -8 10 -13 14 -10 4 3 14 -3 21 -12 8 -9 10 -18 4 -20 -5 -1 -10
-32 -10 -68 1 -45 -3 -65 -12 -65 -6 0 -12 -8 -12 -17 -2 -45 -6 -61 -13 -57
-4 3 -8 -5 -8 -18 0 -13 -4 -29 -9 -37 -15 -23 10 -65 54 -93 50 -33 57 -34
48 -11 -5 14 -1 13 24 -5 17 -12 38 -22 46 -22 23 0 107 -98 107 -126 0 -30
28 -44 45 -21 11 15 14 15 34 0 16 -11 21 -22 17 -38 -4 -17 -1 -24 17 -30 32
-10 50 -6 66 16 16 22 46 24 81 4 32 -18 58 -19 75 -1 10 10 11 16 2 25 -8 8
-8 11 2 11 7 0 9 5 6 10 -3 6 -3 20 0 31 5 16 9 18 15 9 6 -9 17 0 39 30 35
49 37 57 16 88 -13 17 -13 26 -5 43 7 12 10 30 7 40 -4 14 1 21 19 25 18 5 23
11 19 25 -4 10 -3 24 2 31 24 38 30 76 15 103 -13 25 -12 29 1 37 9 5 14 14
12 21 -3 7 13 20 35 30 24 11 37 23 33 30 -4 6 -1 8 8 5 18 -7 56 22 60 47 2
11 14 22 27 25 27 6 55 56 46 83 -5 16 -3 19 14 15 16 -5 18 -2 14 16 -3 11
-10 24 -16 28 -8 5 -7 17 2 40 10 28 9 34 -8 53 -24 26 -24 29 -4 49 22 22 22
105 0 138 l-18 27 31 -4 c61 -7 30 36 -38 55 l-26 6 22 19 c12 10 20 22 17 27
-3 4 0 8 5 8 6 0 11 6 11 14 0 9 12 16 32 18 32 3 33 4 30 48 -3 34 -1 42 8
34 16 -15 67 10 75 36 4 11 13 20 21 20 20 0 84 49 84 64 0 6 19 12 46 12 25
1 63 10 85 19 39 18 39 18 33 65 -6 42 -3 49 25 77 17 17 31 38 31 46 0 7 11
19 24 25 19 8 22 16 18 38 -4 23 -2 26 13 20 11 -4 22 -1 27 6 6 10 11 9 19
-5 6 -9 14 -15 19 -12 4 3 11 -2 14 -10 4 -13 10 -14 26 -5 11 6 19 14 18 18
-1 4 4 20 10 35 7 16 12 32 12 37 0 5 8 13 18 19 16 9 16 10 0 16 -10 4 -18
13 -18 21 0 21 -31 34 -52 21 -32 -20 -42 5 -18 46 13 23 17 38 10 42 -5 3
-10 16 -10 28 0 19 3 17 21 -12 19 -32 21 -32 39 -16 10 9 23 15 27 12 12 -8
14 33 3 54 -8 13 -6 19 8 22 16 4 16 5 0 6 -10 0 -18 6 -18 12 0 6 -11 24 -25
41 -14 16 -25 24 -25 18 0 -10 -4 -9 -15 0 -12 10 -15 10 -15 -2 0 -8 -14 -30
-31 -49 -17 -19 -33 -47 -36 -62 -4 -18 -12 -27 -22 -26 -9 1 -18 0 -21 -1
-23 -8 -170 -9 -175 0 -3 5 -14 10 -23 10 -12 0 -13 -3 -4 -12 7 -7 12 -20 12
-29 0 -42 -92 -33 -116 12 -8 16 -18 29 -22 29 -4 0 -31 21 -60 46 -40 35 -50
49 -40 55 10 7 10 9 -2 9 -10 0 -11 3 -4 8 37 23 5 126 -36 115 -16 -4 -32 5
-61 33 -30 30 -42 35 -51 26 -17 -17 -53 -15 -69 4 -7 8 -26 22 -42 30 -24 13
-28 20 -24 43 4 17 -1 35 -13 51 -11 14 -20 21 -20 17 0 -14 -60 34 -60 48 0
15 -13 20 -75 31 -22 4 -46 12 -54 18 -7 6 -19 11 -25 11 -13 1 -40 11 -81 30
-63 29 -106 44 -100 35 8 -12 -5 -13 -24 -1 -15 10 -61 -6 -61 -21 0 -18 -25
-6 -60 30 -21 20 -50 47 -66 59 l-29 22 32 7 c18 3 32 9 31 13 -1 3 2 18 6 33
5 15 3 35 -4 48 -10 18 -9 22 9 27 34 9 29 76 -9 120 -16 18 -30 40 -30 47 0
19 -28 28 -50 16 -25 -14 -60 -12 -90 3 -23 11 -53 13 -145 8 -26 -1 -28 -3
-12 -12 14 -8 16 -14 6 -25 -10 -12 -18 -9 -54 20 -23 20 -45 33 -48 29 -4 -3
-9 2 -13 11 -3 9 -13 16 -20 16 -8 0 -26 7 -39 16 -22 14 -25 14 -25 1 0 -15
-20 -27 -46 -27 -8 0 -29 16 -46 36 -22 25 -37 34 -51 30 -11 -2 -31 3 -45 12
-15 10 -23 12 -18 4 4 -7 1 -15 -10 -19 -11 -4 -19 -2 -22 6 -3 8 -8 7 -16 -5
-7 -9 -25 -16 -39 -16 -15 0 -27 -5 -27 -10 0 -18 -52 -77 -64 -72 -7 3 -17
-6 -23 -19 -15 -32 -77 -46 -102 -23 -10 9 -25 16 -33 16 -21 0 -46 30 -27 31
8 0 0 6 -17 12 -16 7 -44 22 -61 35 -17 12 -37 22 -43 22 -8 0 -11 11 -8 30 3
17 -1 35 -7 40 -17 14 -7 63 11 56 8 -3 14 -3 14 0 0 11 -33 54 -42 54 -6 0
-5 -6 2 -15z m8 -195 c-9 -13 -16 -16 -23 -9 -7 7 -5 13 5 19 24 15 31 11 18
-10z m2199 -1412 c-3 -8 -6 -5 -6 6 -1 11 2 17 5 13 3 -3 4 -12 1 -19z m13
-128 c0 -5 -4 -10 -10 -10 -5 0 -10 5 -10 10 0 6 5 10 10 10 6 0 10 -4 10 -10z"/>
<path d="M10041 12133 c-1 -13 -5 -23 -11 -23 -5 0 -10 -7 -10 -16 0 -8 4 -13
9 -9 5 3 17 -2 26 -12 16 -16 18 -15 35 8 18 23 18 24 -1 42 -10 10 -23 16
-28 12 -5 -3 -12 1 -14 7 -3 7 -6 3 -6 -9z"/>
<path d="M9237 12100 c4 -16 8 -18 19 -9 16 13 10 29 -11 29 -8 0 -11 -7 -8
-20z"/>
<path d="M7770 10382 c6 -13 14 -21 18 -18 3 4 -2 14 -12 24 -18 16 -18 16 -6
-6z"/>
<path d="M9660 9960 c0 -5 5 -10 10 -10 6 0 10 5 10 10 0 6 -4 10 -10 10 -5 0
-10 -4 -10 -10z"/>
<path d="M9766 9934 c-5 -13 -14 -15 -41 -10 -31 6 -35 4 -35 -14 0 -19 64
-99 103 -129 10 -7 16 -19 13 -27 -3 -7 4 -19 15 -24 14 -8 18 -17 14 -31 -4
-13 -2 -19 9 -19 18 0 60 -56 51 -69 -3 -5 -1 -12 5 -16 6 -4 10 5 10 21 0 28
-59 164 -71 164 -4 0 -5 20 -2 45 3 30 1 45 -7 45 -7 0 -9 7 -6 17 4 10 -2 25
-15 40 -26 27 -35 29 -43 7z"/>
<path d="M9580 9920 c0 -6 -13 -10 -29 -10 -38 0 -41 -7 -25 -47 21 -49 55
-45 78 7 10 23 24 40 33 40 24 0 12 6 -24 13 -19 4 -33 2 -33 -3z"/>
<path d="M9900 9491 c0 -16 5 -33 10 -36 6 -4 10 6 10 24 0 16 -4 33 -10 36
-6 4 -10 -6 -10 -24z"/>
<path d="M9914 9386 c6 -25 -1 -31 -55 -41 -12 -2 -24 -7 -27 -9 -8 -9 48 -18
73 -12 21 5 25 12 25 46 0 23 -5 40 -11 40 -7 0 -9 -10 -5 -24z"/>
<path d="M9870 9280 c0 -12 48 -25 58 -16 8 9 -18 26 -40 26 -10 0 -18 -4 -18
-10z"/>
<path d="M9916 9165 c3 -22 8 -47 11 -55 4 -8 5 -20 4 -27 -2 -13 68 -73 86
-73 6 0 15 -5 19 -12 5 -8 0 -9 -15 -5 -19 5 -20 3 -9 -10 10 -13 10 -17 1
-20 -7 -3 -13 -12 -13 -22 0 -9 -5 -22 -11 -28 -15 -15 29 -76 49 -68 7 3 20
5 27 5 8 0 17 10 21 23 3 12 14 30 22 40 10 11 12 21 7 25 -6 4 -10 24 -11 45
0 21 -5 42 -11 45 -6 4 -13 18 -14 31 -4 27 -39 70 -51 64 -5 -2 -18 7 -30 20
-13 13 -34 28 -48 32 -14 4 -28 13 -32 19 -4 6 -5 -7 -2 -29z"/>
<path d="M10080 9110 c0 -5 14 -10 32 -10 36 0 35 4 -4 14 -17 4 -28 2 -28 -4z"/>
<path d="M9860 9022 c0 -5 15 -19 33 -33 39 -29 85 -33 93 -6 7 23 0 32 -18
21 -20 -13 -31 -12 -64 8 -35 20 -44 22 -44 10z"/>
<path d="M10544 8901 c1 -32 -3 -52 -11 -56 -7 -2 -13 -14 -13 -25 0 -11 -4
-20 -8 -20 -4 0 -9 -17 -9 -37 -3 -86 -5 -110 -10 -145 -4 -34 -7 -37 -25 -27
-14 8 -23 8 -31 0 -6 -6 -19 -11 -29 -11 -15 0 -16 -4 -7 -27 5 -14 8 -32 5
-40 -3 -7 1 -13 8 -13 7 0 21 -9 30 -19 13 -15 14 -20 4 -24 -7 -3 5 -6 27 -7
22 -1 34 -4 27 -7 -10 -4 -10 -8 -2 -18 8 -9 8 -20 2 -32 -7 -12 -7 -25 0 -37
6 -10 11 -30 13 -45 1 -14 5 -38 10 -53 5 -19 3 -28 -4 -28 -25 0 -9 -36 22
-49 17 -8 44 -25 59 -38 18 -17 32 -23 47 -18 16 5 22 1 28 -22 4 -15 7 -36 7
-45 1 -10 6 -18 11 -19 6 0 15 -5 22 -11 13 -10 -9 -39 -40 -51 -14 -5 -15 -9
-2 -33 8 -15 12 -31 9 -36 -8 -13 15 -48 32 -48 10 0 14 -6 11 -14 -3 -8 -2
-29 3 -46 6 -21 5 -38 -2 -49 -8 -14 -5 -23 15 -45 20 -22 26 -24 29 -11 5 28
37 -6 40 -42 2 -29 5 -31 32 -28 31 4 49 22 41 43 -5 15 11 16 21 1 6 -11 35
-8 82 6 20 7 22 4 22 -31 0 -22 7 -47 14 -57 8 -10 12 -26 9 -36 -3 -10 0 -22
6 -25 6 -4 11 -2 11 3 0 6 5 11 10 11 6 0 10 -9 10 -19 0 -11 4 -22 10 -26 14
-9 61 6 57 19 -6 17 16 33 43 32 22 -1 25 3 23 29 -1 16 -6 36 -9 45 -4 8 -8
18 -8 22 -2 15 -48 68 -59 68 -7 0 -13 16 -14 37 -2 39 -20 58 -40 42 -19 -16
-50 6 -63 47 -8 25 -9 39 -2 46 7 7 7 19 2 34 -5 13 -7 37 -5 54 2 17 -3 42
-10 57 -10 19 -11 31 -4 39 7 9 5 16 -10 24 -28 14 -28 50 0 50 11 0 17 5 14
10 -3 6 -1 10 4 10 6 0 11 5 11 11 0 7 -10 9 -25 7 -21 -4 -26 0 -38 36 -9 27
-20 41 -31 41 -25 0 -36 24 -24 51 20 44 -24 121 -63 111 -25 -7 -89 81 -69
93 10 6 7 14 -12 32 -32 30 -43 58 -22 58 8 0 12 4 9 10 -3 5 1 20 9 31 16 24
8 59 -23 94 -23 27 -55 103 -54 126 1 11 -2 19 -7 19 -5 0 -12 9 -15 21 -5 16
-12 19 -30 15 -13 -3 -27 -1 -30 4 -4 6 -10 8 -15 5 -5 -3 -13 2 -18 11 -6 11
-8 0 -8 -35z"/>
<path d="M9717 7509 c7 -7 15 -10 18 -7 3 3 -2 9 -12 12 -14 6 -15 5 -6 -5z"/>
<path d="M11036 7475 c-16 -17 -22 -55 -8 -55 4 0 8 -17 10 -37 2 -27 -3 -42
-20 -57 -12 -12 -25 -20 -28 -18 -3 2 -7 -5 -10 -16 -8 -29 -74 -82 -103 -82
-14 0 -27 -4 -29 -10 -5 -16 -53 -17 -53 0 -1 8 -6 24 -13 35 -11 19 -11 19
-12 -3 0 -13 -5 -32 -11 -43 -8 -16 -5 -27 19 -57 39 -50 52 -76 52 -107 0
-26 3 -29 53 -39 18 -4 27 -13 27 -26 0 -11 7 -20 15 -20 8 0 15 -7 15 -15 0
-17 -4 -18 -28 -6 -9 5 -43 15 -74 22 -40 8 -62 19 -72 34 -14 21 -57 45 -135
76 -27 10 -36 10 -39 1 -2 -7 -9 -12 -17 -12 -19 0 -39 -27 -25 -35 6 -4 4
-14 -7 -30 -10 -12 -22 -20 -27 -17 -5 3 -6 -3 -2 -13 4 -12 0 -22 -14 -32
-11 -8 -20 -22 -20 -32 0 -10 -11 -23 -25 -29 -13 -6 -31 -27 -39 -46 -8 -18
-27 -42 -43 -51 -17 -10 -38 -32 -48 -51 -10 -18 -22 -31 -27 -28 -4 3 -6 10
-3 15 4 5 2 9 -4 9 -5 0 -23 12 -40 26 -28 23 -30 29 -24 69 4 35 1 49 -15 69
-11 15 -18 35 -15 46 4 14 -2 22 -21 30 -25 9 -37 40 -15 40 6 0 1 13 -10 29
-12 16 -21 34 -21 39 0 6 -17 14 -37 19 -37 9 -38 9 -39 58 0 28 -6 60 -12 72
-16 30 -15 33 11 33 12 0 27 4 33 8 18 12 -2 51 -31 58 -14 3 -25 11 -25 18
-1 21 -37 59 -59 61 -33 2 -83 43 -77 63 4 11 -2 21 -18 28 -20 9 -24 7 -36
-20 -21 -47 -60 -65 -60 -27 0 11 -4 23 -10 26 -18 11 -11 -26 10 -52 11 -14
20 -21 20 -14 0 6 5 11 10 11 14 0 13 -43 -1 -57 -18 -18 -2 -63 21 -63 11 0
26 -12 34 -27 27 -52 97 -100 136 -94 12 2 13 0 3 -10 -21 -21 -15 -49 17 -86
37 -42 39 -63 5 -63 -14 0 -32 -8 -41 -19 -10 -12 -24 -17 -37 -13 -20 5 -20
5 2 -26 12 -18 27 -30 32 -26 5 3 12 -2 15 -10 3 -9 10 -14 14 -11 15 9 43
-34 38 -60 -3 -14 -1 -28 3 -31 24 -15 5 -45 -52 -83 -54 -36 -62 -39 -76 -26
-17 17 -27 20 -18 5 3 -5 -1 -10 -10 -10 -9 0 -14 4 -11 8 3 5 -2 18 -10 30
-11 17 -20 20 -32 13 -11 -6 -26 -5 -42 4 -21 11 -29 10 -62 -8 -21 -12 -39
-29 -39 -37 -1 -8 -2 -22 -3 -32 -1 -9 -4 -20 -8 -24 -19 -19 -6 -65 32 -113
45 -57 48 -65 21 -56 -16 5 -18 2 -14 -17 4 -23 4 -23 -14 -3 -10 11 -29 22
-42 23 -13 2 -33 14 -43 25 -19 22 -19 22 -4 -8 8 -16 33 -48 56 -69 36 -34
48 -39 96 -41 30 -2 58 -6 62 -10 17 -17 39 -108 32 -133 -7 -26 -4 -36 36
-112 15 -30 15 -31 -15 -47 -18 -11 -31 -28 -33 -43 -4 -24 -1 -26 30 -26 32
0 33 2 28 29 l-6 29 36 -32 c28 -24 39 -29 45 -19 4 8 10 11 11 9 2 -3 12 -18
21 -33 10 -15 22 -25 27 -22 5 3 11 -4 15 -15 6 -18 9 -19 33 -6 15 7 43 16
62 20 41 7 63 36 54 71 -4 16 -2 25 6 25 7 0 9 8 5 21 -5 15 -4 19 4 15 6 -4
11 -1 11 7 0 22 42 40 70 29 34 -13 68 2 76 32 5 21 9 24 30 16 16 -7 24 -6
24 1 0 8 4 8 13 1 8 -7 24 -8 42 -4 19 5 25 11 17 16 -7 4 -12 12 -12 17 0 6
6 7 13 2 16 -10 50 -4 59 10 5 8 12 6 25 -4 10 -9 28 -19 41 -22 19 -4 22 -1
22 24 0 21 7 32 27 42 20 11 27 22 28 48 1 19 -5 42 -13 52 -10 11 -11 17 -4
17 7 0 12 -6 12 -12 0 -9 3 -9 9 1 5 8 23 14 40 14 28 0 31 3 31 32 0 69 12
124 26 118 18 -7 19 45 3 81 -8 17 -9 30 -2 38 5 7 8 29 6 48 -5 63 -3 93 8
106 7 9 7 19 -1 33 -12 23 -1 28 18 9 9 -9 12 -8 12 5 0 9 9 21 20 27 11 6 18
16 14 22 -4 7 4 8 24 3 24 -5 31 -3 34 12 4 15 7 14 18 -9 8 -17 23 -28 44
-32 17 -4 42 -18 55 -31 13 -14 30 -25 39 -25 9 0 26 -10 38 -21 18 -17 30
-20 58 -15 35 7 40 14 37 46 -2 12 0 13 7 1 6 -7 14 -11 20 -7 6 3 18 -1 26
-10 9 -8 16 -11 16 -5 0 6 9 11 20 11 15 0 20 7 20 26 0 21 3 25 18 18 9 -4
28 -6 42 -5 14 1 35 3 48 4 12 0 22 4 22 8 0 4 11 10 24 13 13 3 29 18 35 34
7 15 26 36 43 46 29 18 30 21 24 67 -5 39 -4 51 9 55 8 3 15 15 15 26 0 10 11
30 25 44 23 23 33 25 83 22 57 -3 57 -3 57 26 0 42 -27 56 -66 34 -17 -10 -40
-18 -50 -18 -15 0 -19 -5 -14 -19 4 -14 -1 -20 -22 -26 -15 -5 -32 -7 -38 -6
-5 2 -27 5 -48 8 -21 2 -49 8 -62 13 -32 12 -55 -10 -49 -45 4 -23 2 -25 -20
-19 -18 4 -27 1 -36 -15 -6 -12 -8 -26 -5 -31 3 -5 1 -19 -5 -30 -8 -15 -21
-20 -50 -20 -41 0 -74 29 -86 77 -4 12 -12 23 -20 23 -17 0 -59 78 -55 103 1
9 -5 20 -14 23 -11 5 -13 10 -5 19 8 9 1 27 -26 66 -28 42 -34 57 -26 70 8 13
7 16 -6 15 -12 -1 -17 7 -17 28 -1 35 -16 43 -39 21z"/>
<path d="M9698 7332 c9 -10 19 -17 21 -15 2 1 11 -3 20 -9 9 -7 5 0 -8 15 -14
15 -30 27 -38 27 -9 0 -8 -5 5 -18z"/>
<path d="M10560 7311 c0 -5 5 -13 10 -16 6 -3 10 -2 10 4 0 5 -4 13 -10 16 -5
3 -10 2 -10 -4z"/>
<path d="M10113 7293 c-18 -7 -16 -23 2 -23 8 0 15 7 15 15 0 8 -1 15 -2 14
-2 0 -9 -3 -15 -6z"/>
<path d="M11938 7286 c-26 -19 -22 -27 7 -14 14 6 25 15 25 20 0 12 -12 9 -32
-6z"/>
<path d="M10600 7259 c0 -5 -4 -7 -10 -4 -6 4 -10 -8 -10 -29 0 -19 -5 -47
-10 -62 -9 -24 -8 -31 15 -51 14 -13 25 -20 25 -16 0 4 5 1 10 -7 8 -13 13
-13 37 3 15 10 35 21 44 23 9 3 21 22 27 41 9 30 8 40 -6 59 -9 13 -22 24 -29
24 -7 0 -17 8 -22 18 -9 15 -10 15 -11 -5 0 -13 -6 -23 -12 -23 -22 0 -41 17
-34 29 4 6 2 11 -3 11 -6 0 -11 -5 -11 -11z"/>
<path d="M11890 7245 c0 -8 7 -15 15 -15 8 0 15 4 15 9 0 5 -7 11 -15 15 -9 3
-15 0 -15 -9z"/>
<path d="M11863 7213 c-21 -3 -33 -10 -33 -20 0 -10 5 -13 18 -8 9 4 25 10 35
12 9 3 17 9 17 14 0 5 -1 8 -2 7 -2 0 -18 -3 -35 -5z"/>
<path d="M9422 6753 c-19 -18 -38 -33 -43 -33 -4 0 -6 -6 -3 -13 3 -8 -2 -14
-11 -14 -8 0 -15 4 -15 9 0 4 -7 8 -16 8 -8 0 -12 -4 -9 -10 3 -5 -3 -10 -15
-10 -18 0 -19 -3 -10 -20 6 -11 9 -24 6 -28 -14 -23 83 -116 110 -105 16 6 19
59 4 68 -17 10 -11 27 8 23 12 -2 20 6 27 27 7 20 16 29 28 27 10 -2 17 3 17
13 0 8 5 15 10 15 6 0 10 13 10 28 0 24 -6 30 -32 38 -30 9 -36 7 -66 -23z"/>
<path d="M9530 6726 c0 -2 7 -6 15 -10 8 -3 15 -1 15 4 0 6 -7 10 -15 10 -8 0
-15 -2 -15 -4z"/>
<path d="M9570 6710 c0 -5 5 -10 10 -10 6 0 10 5 10 10 0 6 -4 10 -10 10 -5 0
-10 -4 -10 -10z"/>
<path d="M9530 6686 c0 -8 8 -22 17 -32 12 -12 14 -19 6 -21 -31 -11 17 -62
57 -63 42 0 51 13 48 64 -3 48 -3 48 -35 43 -21 -4 -36 -1 -44 9 -15 18 -49
18 -49 0z"/>
<path d="M9370 6456 c0 -8 5 -18 10 -21 6 -4 8 -11 5 -16 -4 -5 -2 -9 2 -9 13
0 34 40 28 50 -10 15 -45 12 -45 -4z"/>
<path d="M10815 6431 c3 -5 0 -13 -6 -16 -7 -5 -2 -16 14 -34 14 -14 28 -36
32 -49 4 -15 13 -22 23 -20 13 3 16 13 14 41 -2 30 2 42 20 57 l23 19 -47 -4
c-26 -3 -50 0 -53 5 -3 6 -11 10 -16 10 -6 0 -8 -4 -4 -9z"/>
</g>
</svg>
