<?xml version="1.0" standalone="no"?>
<!DOCTYPE svg PUBLIC "-//W3C//DTD SVG 20010904//EN"
 "http://www.w3.org/TR/2001/REC-SVG-20010904/DTD/svg10.dtd">
<svg version="1.0" xmlns="http://www.w3.org/2000/svg"
 width="851.659532pt" height="433.692276pt" viewBox="0 0 851.659532 433.692276"
 preserveAspectRatio="xMidYMid meet">
<metadata>
Created by potrace 1.15, written by Peter Selinger 2001-2017
</metadata>
<g transform="translate(-557.140538,1191.706814) scale(0.100000,-0.100000)"
fill="#222222" stroke="none">
<path d="M11586 11895 c-18 -28 -16 -76 4 -100 10 -13 6 -14 -28 -11 -25 2
-42 0 -45 -7 -3 -9 -8 -8 -20 2 -10 8 -24 10 -34 6 -10 -4 -25 -9 -33 -10 -36
-4 -80 -18 -80 -26 0 -16 -38 -9 -96 16 -53 24 -57 24 -70 8 -7 -10 -16 -15
-20 -11 -12 12 -34 -13 -34 -38 0 -30 -39 -34 -47 -5 -3 12 -11 17 -19 14 -8
-3 -24 3 -35 13 -19 17 -23 17 -48 3 -24 -14 -31 -14 -54 -2 -16 8 -27 10 -27
3 0 -5 -7 -10 -16 -10 -11 0 -15 -6 -11 -20 3 -11 2 -20 -3 -20 -4 0 -11 -11
-14 -25 -5 -20 -13 -25 -36 -25 -17 0 -30 -4 -30 -9 0 -17 -94 -66 -130 -68
-68 -4 -115 -16 -132 -34 -17 -17 -20 -17 -86 2 -63 18 -72 18 -98 4 -27 -14
-30 -13 -46 7 -9 13 -19 21 -21 18 -6 -7 -19 -86 -20 -131 -2 -45 -21 -69 -49
-61 -17 4 -20 2 -15 -11 3 -9 1 -17 -5 -19 -8 -3 -7 -12 4 -27 20 -28 13 -51
-13 -51 -10 0 -19 -7 -19 -15 0 -8 -7 -15 -16 -15 -8 0 -12 -5 -9 -10 3 -6 -2
-13 -12 -16 -10 -3 -32 -12 -50 -20 -41 -18 -40 -18 -69 14 -13 15 -24 23 -23
17 4 -29 -2 -34 -21 -15 -11 11 -24 20 -30 20 -5 0 -10 7 -10 15 0 9 -17 23
-37 32 -21 10 -51 28 -67 41 -23 18 -38 23 -63 19 -28 -5 -38 -1 -55 19 -12
13 -28 24 -36 24 -10 0 -12 8 -7 30 10 44 -19 29 -39 -21 -9 -21 -21 -39 -27
-39 -6 0 -17 -7 -25 -15 -11 -11 -20 -12 -34 -5 -24 13 -92 18 -116 9 -11 -3
-27 -2 -36 3 -13 6 -22 3 -33 -10 -14 -16 -22 -17 -65 -8 -41 8 -51 15 -70 48
-22 39 -40 50 -40 24 0 -8 -9 -17 -20 -21 -16 -5 -17 -10 -10 -31 7 -18 6 -24
-5 -24 -7 0 -15 -10 -17 -22 -3 -20 -9 -23 -53 -23 -27 0 -56 -6 -63 -12 -7
-7 -20 -13 -27 -13 -8 0 -19 -8 -24 -18 -11 -21 -72 -23 -109 -3 -11 6 -44 11
-72 11 -43 0 -52 -3 -61 -24 -6 -13 -30 -32 -53 -42 -32 -15 -41 -25 -42 -44
0 -32 -42 -90 -60 -83 -7 2 -46 -7 -88 -21 -41 -14 -82 -26 -90 -26 -9 0 -21
-11 -27 -24 -13 -27 -48 -46 -84 -46 -18 0 -23 -4 -19 -15 4 -8 1 -15 -4 -15
-6 0 -19 -13 -28 -30 -22 -36 -65 -54 -121 -51 -30 2 -51 -3 -73 -19 -20 -14
-39 -20 -53 -16 -16 4 -26 -1 -35 -14 -10 -17 -21 -19 -101 -16 -74 3 -89 2
-84 -10 4 -10 -3 -14 -23 -15 -44 -2 -85 -7 -102 -14 -8 -3 -32 0 -54 7 -27 8
-42 8 -46 1 -10 -15 -76 -25 -102 -15 -36 13 -80 2 -90 -23 -5 -12 -15 -25
-23 -28 -10 -4 -13 -13 -10 -25 3 -15 -2 -22 -19 -27 -28 -9 -67 -37 -68 -48
0 -4 -17 -25 -39 -47 -44 -45 -67 -45 -113 2 -21 21 -37 29 -57 26 -33 -3
-124 50 -117 68 3 7 -6 22 -20 35 -16 15 -21 26 -14 33 19 19 -42 62 -111 75
-88 17 -107 26 -115 55 -6 23 -36 36 -87 36 -17 0 -19 -5 -13 -31 5 -24 3 -30
-8 -26 -8 3 -20 0 -26 -8 -9 -11 -5 -18 17 -34 15 -12 32 -20 36 -19 13 4 41
-54 29 -61 -5 -3 -13 -30 -17 -58 -6 -43 -11 -53 -26 -53 -12 0 -19 -7 -19
-20 0 -11 -7 -20 -16 -20 -8 0 -12 -5 -9 -10 8 -13 -34 -49 -58 -50 -11 0 -25
-16 -37 -42 -10 -24 -23 -43 -27 -43 -4 -1 -17 -6 -28 -12 -11 -6 -39 -14 -62
-18 -23 -3 -47 -12 -53 -20 -12 -15 -50 -8 -50 9 0 6 -5 4 -10 -4 -5 -8 -15
-15 -22 -15 -7 0 -13 -10 -12 -23 0 -18 -5 -22 -30 -24 -17 0 -38 0 -46 1 -8
1 -24 3 -35 4 -11 1 -26 6 -32 10 -7 5 -13 4 -13 -1 0 -5 -12 -14 -26 -21 -22
-10 -30 -9 -44 4 -14 13 -22 14 -44 4 -14 -7 -26 -17 -26 -22 0 -5 -7 -4 -14
3 -13 10 -14 4 -12 -37 2 -27 13 -67 23 -89 11 -21 21 -57 21 -79 2 -41 33
-78 58 -68 7 2 15 0 19 -6 3 -6 14 -11 25 -11 21 0 35 -29 20 -44 -21 -21 0
-47 42 -51 3 0 9 -3 13 -7 15 -15 35 20 29 51 -6 29 9 46 18 19 3 -7 32 -11
80 -11 68 -1 79 2 96 22 16 21 21 22 41 12 12 -7 30 -10 38 -6 10 3 31 -6 54
-25 40 -31 59 -38 59 -19 0 7 8 6 23 -3 19 -13 27 -13 65 4 28 12 42 25 42 37
0 15 9 20 46 23 25 2 52 -1 61 -6 9 -5 33 -13 52 -17 36 -8 131 -84 131 -105
0 -17 25 -64 34 -64 5 0 3 -7 -4 -16 -11 -13 -10 -19 8 -37 12 -11 41 -28 64
-37 35 -13 44 -21 48 -45 5 -28 10 -31 67 -41 57 -10 62 -9 66 8 4 12 14 18
34 18 16 0 34 5 40 11 8 8 17 8 32 0 12 -7 21 -9 21 -6 0 3 13 -1 29 -11 33
-19 96 -13 105 11 5 13 11 12 43 -5 45 -24 82 -26 97 -4 9 11 18 13 36 6 18
-7 33 -4 58 10 28 16 37 17 50 6 15 -13 35 -16 147 -22 71 -4 94 -12 118 -42
15 -20 56 -33 122 -40 27 -2 53 -12 97 -34 44 -24 46 -24 50 -5 5 24 48 -10
48 -39 0 -29 51 -67 101 -73 25 -4 43 -13 54 -29 23 -36 57 -64 77 -64 10 0
18 -4 18 -10 0 -5 12 -13 28 -16 15 -4 32 -10 37 -14 19 -15 73 -21 80 -10 4
6 15 8 25 5 13 -4 26 2 41 19 22 25 62 35 73 17 14 -21 147 22 160 52 3 8 10
6 23 -8 10 -12 38 -29 63 -39 25 -10 53 -25 63 -33 9 -9 17 -12 17 -6 0 19 71
-11 111 -48 34 -30 51 -38 100 -43 47 -6 66 -13 90 -37 24 -23 34 -27 44 -19
11 9 19 6 36 -14 26 -30 86 -37 96 -10 4 11 13 13 34 9 23 -5 29 -3 29 10 0
12 6 16 20 12 11 -3 20 -1 20 5 0 6 13 8 33 4 35 -6 50 0 60 27 4 10 17 17 32
17 18 0 25 5 25 20 0 10 6 23 14 27 8 4 15 17 18 28 2 14 11 20 29 20 14 0 33
8 43 18 10 9 22 17 27 17 5 0 9 7 9 15 0 21 58 49 75 35 8 -7 21 -7 38 -1 17
7 35 6 56 -2 26 -9 36 -9 59 5 15 9 28 26 30 37 3 16 9 19 37 14 23 -4 49 2
87 19 29 14 81 38 115 53 59 27 62 29 45 46 -9 9 -20 15 -24 12 -11 -6 -28 34
-22 51 4 10 1 16 -7 16 -10 0 -10 3 -2 11 6 6 9 18 6 25 -8 22 14 16 31 -7 8
-12 25 -27 38 -33 13 -6 23 -17 23 -23 0 -6 3 -14 6 -17 3 -4 4 -25 2 -48 -4
-34 -2 -40 9 -30 13 10 117 18 161 11 10 -1 20 -13 23 -28 8 -36 50 -67 70
-50 8 6 16 10 17 8 1 -2 25 -30 52 -63 27 -32 50 -66 52 -75 2 -9 7 -41 11
-71 5 -35 12 -54 19 -53 7 2 15 -8 18 -20 7 -27 79 -77 111 -77 12 0 27 -7 34
-15 7 -9 19 -14 25 -11 7 2 17 0 23 -6 8 -8 15 -3 23 15 13 29 17 31 38 18 10
-6 22 -5 35 5 28 19 63 18 75 -3 6 -10 11 -13 11 -8 1 17 29 -39 30 -58 0 -16
6 -18 43 -12 52 8 70 29 61 70 -6 28 -6 29 12 14 11 -8 42 -16 70 -17 49 -3
52 -2 62 28 6 16 17 30 25 30 14 0 27 20 27 40 0 4 -9 6 -19 3 -15 -4 -20 0
-18 15 1 22 16 23 70 8 32 -10 32 -11 8 -37 -19 -21 -19 -21 2 -45 12 -14 30
-23 42 -22 15 2 22 -5 30 -29 5 -18 13 -33 18 -33 4 0 16 -18 26 -41 14 -30
16 -50 10 -77 -5 -25 -4 -41 4 -51 9 -11 9 -15 0 -18 -16 -6 6 -43 24 -43 7 0
13 -4 13 -10 0 -5 7 -10 16 -10 8 0 30 -11 48 -25 18 -14 35 -22 38 -19 3 3
15 -7 27 -22 11 -15 21 -23 21 -19 0 4 7 2 15 -5 8 -7 24 -10 34 -7 18 4 19 0
17 -48 -2 -29 -6 -58 -10 -63 -3 -5 0 -22 8 -36 11 -22 11 -38 1 -94 -7 -36
-10 -72 -8 -79 3 -7 -2 -16 -11 -19 -11 -4 -16 -19 -16 -48 0 -33 5 -43 22
-51 28 -13 47 -43 33 -53 -5 -4 -11 -28 -12 -54 -1 -56 7 -61 109 -62 48 -1
68 3 68 12 0 21 16 13 28 -13 8 -17 20 -25 37 -25 17 0 25 -5 25 -17 0 -10 9
-31 20 -48 26 -40 25 -44 -11 -57 -20 -7 -28 -15 -25 -25 3 -8 6 -25 6 -39 0
-17 9 -27 33 -37 25 -11 34 -23 43 -55 6 -23 7 -42 3 -42 -5 0 -9 -5 -9 -10 0
-9 31 -26 53 -29 9 -1 54 -48 61 -64 3 -9 7 -9 13 -1 4 6 19 11 32 10 20 -1
26 6 33 32 5 18 12 30 17 28 4 -3 13 5 19 18 8 18 16 22 34 19 29 -6 88 39 88
66 0 10 9 26 21 37 15 13 19 26 15 46 -4 21 -2 28 9 28 8 0 15 5 15 10 0 6
-11 10 -25 10 -14 0 -25 4 -25 10 0 5 6 7 13 5 15 -6 20 90 5 118 -7 14 -7 17
1 13 14 -9 43 37 36 56 -4 9 1 18 9 21 19 7 21 38 4 55 -9 9 -8 12 5 12 10 0
17 8 17 19 0 11 13 28 30 38 20 11 30 25 30 41 0 21 4 24 25 19 18 -3 29 1 36
14 7 15 21 19 59 19 29 0 52 5 57 13 8 14 90 42 110 38 7 -1 15 14 18 33 4 19
13 37 21 40 8 3 14 14 14 25 0 10 7 21 15 25 8 3 15 12 15 21 0 8 6 15 13 15
6 0 17 11 23 25 10 21 9 25 -8 31 -16 5 -18 8 -7 15 8 5 26 9 41 9 42 0 58 10
58 36 0 13 18 51 40 85 43 66 46 74 30 84 -5 3 -10 12 -10 20 0 18 49 29 66
14 11 -9 14 -8 14 5 0 9 6 16 13 16 8 0 22 18 32 40 12 27 23 39 33 35 8 -3
16 3 19 15 3 10 14 22 24 25 10 4 19 13 19 21 0 8 9 23 20 34 11 11 20 26 20
34 0 19 33 29 70 21 28 -6 30 -5 30 23 0 16 7 35 15 42 11 9 14 22 9 43 -7 34
6 47 49 47 16 0 27 5 27 13 0 8 9 22 19 31 30 27 41 68 25 91 -12 16 -12 21 2
36 13 15 13 17 -1 22 -8 4 -15 13 -15 22 0 22 -36 19 -60 -5 -18 -18 -31 -20
-87 -17 -40 2 -68 8 -71 15 -2 7 2 12 9 12 8 0 6 7 -6 20 -10 11 -25 20 -33
20 -9 0 -12 3 -9 7 4 3 -1 12 -11 19 -16 12 -16 13 0 14 9 0 18 5 20 12 8 23
-37 87 -77 109 -58 32 -86 62 -74 79 16 26 10 49 -21 77 -36 32 -37 37 -6 51
21 9 24 16 22 66 -2 56 9 72 42 67 23 -4 25 29 3 53 -20 21 -30 73 -12 62 5
-3 14 1 20 8 8 10 9 16 1 21 -18 11 -11 35 11 35 13 0 23 10 30 30 6 17 17 30
25 30 19 0 17 17 -6 50 -11 15 -16 30 -13 34 4 3 -2 13 -13 22 -13 11 -15 17
-6 20 6 3 12 12 12 21 0 19 -31 86 -43 94 -6 4 -7 14 -4 22 4 10 -1 18 -14 22
-23 8 -26 25 -4 25 13 0 14 4 4 23 -7 12 -17 25 -23 29 -8 5 -7 11 3 20 11 10
14 10 18 1 3 -7 9 -13 15 -13 6 0 5 6 -2 15 -10 13 -9 19 8 33 19 17 20 20 6
40 -8 12 -23 22 -33 22 -11 0 -25 13 -33 31 -9 17 -19 29 -23 27 -12 -5 -12
64 -1 84 8 13 5 23 -12 41 -12 13 -22 29 -22 36 0 9 -14 11 -54 6 -35 -5 -56
-3 -60 4 -4 6 -1 11 6 11 23 0 -15 20 -38 20 -12 0 -24 7 -28 15 -3 8 -12 12
-20 9 -8 -3 -20 4 -28 15 -8 12 -18 18 -21 15 -3 -4 -22 3 -42 14 l-35 21 -46
-25 c-39 -22 -50 -24 -72 -15 -13 7 -27 9 -30 6 -3 -3 0 -5 7 -5 13 0 41 -58
41 -85 0 -8 -7 -15 -15 -15 -9 0 -12 -6 -9 -15 5 -11 -1 -15 -25 -15 -26 0
-31 4 -31 25 0 16 6 25 15 25 9 0 20 12 25 26 13 34 13 34 -11 34 -11 0 -18
-4 -15 -9 3 -5 -14 -8 -38 -7 -41 1 -46 4 -78 51 -29 42 -39 50 -61 47 -15 -1
-27 1 -27 6 0 5 -11 14 -24 20 -13 6 -27 23 -31 39 -8 34 -24 55 -37 47 -5 -3
-15 0 -23 6 -11 9 -21 8 -46 -7 -25 -14 -33 -15 -36 -5 -3 7 -12 18 -20 25 -9
7 -27 24 -42 38 -14 14 -38 29 -53 32 -15 4 -48 32 -75 62 -38 44 -55 57 -86
62 -25 4 -44 14 -54 29 -8 13 -21 24 -28 24 -7 0 -18 6 -24 14 -8 10 -21 12
-46 6 -27 -6 -37 -4 -51 11 -9 11 -27 19 -38 19 -12 1 -32 7 -46 15 -14 8 -37
14 -52 15 -19 0 -37 12 -64 45 -20 25 -44 45 -54 45 -21 0 -72 38 -66 49 8 13
-24 50 -57 67 -18 9 -53 36 -78 59 -63 59 -87 71 -96 48 -6 -15 -8 -14 -13 7
-8 34 -34 36 -54 5z m34 -149 c0 -22 -19 -30 -35 -16 -22 18 -18 30 10 30 15
0 25 -6 25 -14z m1878 -892 c25 -2 30 -4 35 -17 4 -10 -2 -13 -21 -9 -34 6
-54 21 -46 34 4 6 9 6 13 2 3 -5 12 -9 19 -10z m67 -84 c3 -5 1 -10 -4 -10 -6
0 -11 5 -11 10 0 6 2 10 4 10 3 0 8 -4 11 -10z m-7015 -26 c0 -8 -5 -12 -10
-9 -6 4 -8 11 -5 16 9 14 15 11 15 -7z m7500 -1304 c0 -5 -10 -10 -22 -10 -19
0 -20 2 -8 10 19 13 30 13 30 0z"/>
<path d="M6487 10826 c10 -13 19 -23 21 -21 7 6 -19 45 -29 45 -5 0 -2 -11 8
-24z"/>
<path d="M5751 10435 c-2 -30 -19 -78 -21 -60 0 6 -7 2 -15 -8 -13 -18 -14
-18 -34 2 -11 11 -33 23 -48 27 l-28 6 24 -20 c19 -15 24 -28 23 -58 -1 -20
-6 -40 -11 -43 -5 -3 -10 -15 -12 -26 -2 -10 -15 -22 -28 -25 -14 -3 -26 -12
-29 -20 -2 -9 0 -11 5 -5 15 18 111 19 129 0 9 -9 19 -13 23 -10 3 4 -2 11
-12 16 -9 6 -17 17 -17 24 0 17 35 20 45 5 9 -15 35 0 35 21 0 13 5 17 18 12
11 -4 8 3 -10 22 -25 25 -30 54 -7 40 5 -4 9 -2 9 4 0 6 6 8 13 5 7 -2 17 8
24 25 8 23 8 28 -2 25 -7 -3 -16 -1 -20 5 -3 6 -15 11 -25 11 -13 0 -20 9 -23
28 l-4 27 -2 -30z"/>
<path d="M5800 10318 c0 -9 5 -20 10 -23 13 -8 13 5 0 25 -8 13 -10 13 -10 -2z"/>
<path d="M13916 9783 c4 -16 11 -32 15 -37 14 -15 10 -29 -6 -23 -33 13 -23
-17 19 -56 25 -23 52 -58 60 -77 8 -19 32 -51 52 -70 21 -19 35 -30 31 -24
-12 20 -17 74 -7 74 11 0 -5 34 -27 58 -7 7 -13 23 -13 35 0 13 -9 30 -20 40
-19 16 -24 33 -21 70 3 21 -28 35 -38 18 -6 -9 -11 -8 -21 4 -20 24 -31 18
-24 -12z"/>
</g>
</svg>
