<?xml version="1.0" standalone="no"?>
<!DOCTYPE svg PUBLIC "-//W3C//DTD SVG 20010904//EN"
 "http://www.w3.org/TR/2001/REC-SVG-20010904/DTD/svg10.dtd">
<svg version="1.0" xmlns="http://www.w3.org/2000/svg"
 width="834.219248pt" height="479.287049pt" viewBox="0 0 834.219248 479.287049"
 preserveAspectRatio="xMidYMid meet">
<metadata>
Created by potrace 1.15, written by Peter Selinger 2001-2017
</metadata>
<g transform="translate(-618.000000,1241.370547) scale(0.100000,-0.100000)"
fill="#222222" stroke="none">
<path d="M10870 12396 c-7 -13 -9 -29 -6 -35 10 -15 -10 -49 -34 -56 -15 -5
-17 -9 -8 -18 13 -15 123 -23 114 -8 -14 22 13 19 30 -4 20 -27 48 -33 60 -13
4 7 11 32 14 56 6 34 4 42 -7 38 -8 -3 -13 2 -13 14 0 25 -12 31 -68 34 -27 1
-53 5 -59 9 -5 3 -16 -4 -23 -17z m35 -25 c3 -5 1 -12 -5 -16 -5 -3 -10 1 -10
9 0 18 6 21 15 7z"/>
<path d="M10457 12362 c4 -33 1 -44 -27 -76 -23 -26 -38 -35 -51 -31 -14 5
-19 1 -19 -14 0 -13 -6 -21 -16 -21 -9 0 -18 -9 -21 -20 -6 -22 -18 -26 -28
-10 -10 16 -87 12 -106 -6 -14 -12 -27 -15 -56 -9 -21 4 -59 8 -85 9 -45 1
-50 -2 -47 -30 0 -6 -71 -64 -80 -64 -4 0 -17 7 -29 16 -31 21 -34 15 -15 -24
13 -27 13 -37 3 -63 -10 -24 -18 -29 -35 -25 -16 4 -25 -2 -39 -26 -11 -17
-14 -28 -8 -24 17 10 25 -13 11 -30 -24 -29 -115 -2 -103 30 6 14 -73 51 -100
47 -25 -4 -44 -23 -38 -39 2 -6 -2 -12 -9 -12 -6 0 -17 -7 -23 -15 -10 -14
-14 -14 -42 0 -18 8 -39 12 -48 9 -15 -6 -15 -8 -1 -24 15 -16 14 -17 -10 -15
-20 3 -25 -1 -25 -20 0 -16 -8 -26 -22 -31 -28 -8 -38 -22 -37 -49 1 -16 2
-15 8 5 l7 25 27 -29 c15 -16 27 -36 27 -45 0 -24 70 -90 89 -84 13 4 13 3 2
-5 -15 -11 -7 -32 14 -32 7 0 16 -11 19 -25 4 -14 11 -25 16 -25 6 0 10 -4 10
-10 0 -5 -7 -10 -15 -10 -12 0 -13 -4 -5 -19 16 -30 12 -48 -11 -54 -26 -7
-20 -32 7 -32 12 0 20 8 22 23 3 17 8 22 19 18 9 -4 21 1 27 9 9 13 15 13 38
3 16 -7 28 -20 28 -28 1 -24 37 -61 53 -54 8 3 19 -1 23 -8 10 -15 34 -103 37
-134 1 -11 7 -27 13 -35 20 -25 26 -69 11 -83 -11 -11 -17 -10 -36 5 -18 15
-25 16 -36 6 -7 -7 -11 -16 -8 -20 3 -4 -1 -14 -7 -22 -9 -11 -9 -15 -1 -15 6
0 11 -6 11 -14 0 -8 8 -17 18 -19 9 -3 -3 -5 -28 -5 -25 -1 -54 4 -65 11 -21
13 -33 47 -15 47 5 0 10 14 10 30 0 26 -3 29 -17 22 -10 -5 -23 -7 -30 -5 -6
2 -14 -1 -18 -7 -4 -7 -11 -5 -21 5 -30 29 -51 18 -75 -40 -12 -30 -29 -55
-36 -55 -7 0 -16 -12 -19 -26 -5 -19 -10 -23 -23 -17 -9 4 -54 7 -100 5 -69
-2 -88 -6 -103 -22 -15 -16 -17 -24 -7 -41 7 -14 8 -24 1 -28 -5 -3 -11 -15
-13 -26 -3 -15 -14 -21 -39 -23 -19 -2 -39 -8 -44 -13 -6 -5 -18 -9 -27 -9 -9
0 -19 -11 -23 -24 -4 -17 -19 -29 -50 -41 l-45 -17 -33 37 c-18 21 -36 47 -39
59 -4 17 -13 21 -42 20 -20 -1 -37 3 -37 7 0 5 4 9 10 9 5 0 6 7 3 17 -5 11
-3 14 6 8 10 -6 11 -3 2 13 -17 32 -13 52 9 52 21 0 28 24 10 35 -16 10 -11
41 10 60 13 12 20 31 20 57 0 21 5 38 11 38 5 0 8 4 5 9 -3 5 0 9 7 8 35 -1
43 5 45 34 1 17 -3 37 -9 45 -6 7 -8 26 -4 42 5 24 2 30 -14 35 -12 3 -21 12
-21 20 0 19 -29 26 -52 13 -18 -11 -71 12 -94 40 -6 7 -34 25 -63 39 -34 18
-51 32 -49 42 4 20 -56 63 -87 63 -12 0 -36 -5 -53 -11 -28 -10 -31 -14 -25
-37 3 -15 10 -30 16 -33 6 -4 1 -14 -11 -25 -12 -10 -19 -21 -16 -26 3 -4 -8
-11 -24 -14 -36 -7 -50 -42 -25 -61 16 -12 16 -13 0 -13 -10 0 -17 -8 -17 -20
0 -11 -4 -20 -10 -20 -5 0 -10 -7 -10 -17 0 -9 -3 -13 -7 -10 -3 4 -12 2 -19
-4 -7 -6 -14 -6 -18 0 -7 10 -39 5 -74 -12 -18 -8 -28 -8 -44 2 -17 10 -22 10
-32 -5 -12 -15 -15 -15 -44 0 -36 19 -69 21 -74 4 -3 -7 -13 -5 -33 8 -16 10
-40 17 -54 15 -18 -2 -32 6 -53 29 -24 29 -28 30 -28 12 0 -35 -10 -50 -31
-45 -10 3 -26 0 -34 -7 -11 -9 -22 -9 -46 -1 -39 14 -50 14 -26 0 24 -14 21
-23 -13 -36 -23 -9 -32 -8 -41 3 -14 17 -5 44 15 44 21 0 25 21 10 52 -11 21
-22 27 -51 30 -25 2 -42 -2 -50 -12 -10 -13 -14 -12 -35 8 -14 12 -30 22 -36
22 -7 0 -12 5 -12 12 0 6 -9 3 -20 -7 -13 -12 -17 -22 -11 -28 15 -15 -7 -50
-26 -43 -12 5 -14 1 -10 -15 6 -21 -5 -47 -30 -80 -7 -8 -12 -28 -12 -45 0
-16 -1 -44 -3 -63 l-3 -34 -64 -4 c-41 -2 -69 1 -79 9 -13 11 -14 10 -8 -10 8
-25 -1 -27 -50 -13 -23 6 -35 4 -52 -9 -20 -16 -20 -19 -4 -25 12 -5 13 -9 4
-12 -6 -3 -9 -9 -6 -15 4 -6 -3 -5 -15 2 -12 6 -19 15 -16 20 3 4 -3 6 -13 3
-11 -2 -27 3 -37 13 -11 12 -38 19 -78 22 l-60 5 21 -35 c27 -44 28 -52 2 -36
-15 10 -22 10 -32 0 -18 -18 -24 -15 -46 19 -18 29 -18 33 -4 62 17 33 19 29
-53 80 -21 15 -24 22 -14 33 12 15 10 16 -36 18 -14 1 -20 8 -19 24 0 12 -3
22 -7 22 -5 0 -18 19 -29 42 -22 46 -27 94 -9 82 9 -5 10 2 5 22 -3 16 -8 39
-10 52 -4 24 -16 43 -16 24 0 -6 -7 -9 -15 -6 -8 4 -15 10 -15 16 0 5 5 6 12
2 8 -5 9 -2 5 9 -4 10 -10 23 -13 31 -3 9 3 17 15 21 16 5 21 15 21 40 0 19 4
36 10 40 5 3 7 12 3 20 -4 11 -1 13 12 9 15 -6 16 -4 7 13 -6 11 -9 23 -5 26
3 3 2 14 -2 24 -6 16 -8 16 -16 -4 -6 -16 -13 -21 -26 -16 -17 6 -17 5 -1 -13
37 -42 -37 -75 -98 -43 -21 10 -51 17 -68 16 -25 -2 -34 -11 -53 -48 -22 -41
-27 -45 -55 -41 -27 4 -29 2 -24 -15 5 -16 1 -22 -18 -25 -14 -3 -23 -1 -20 3
3 5 -2 9 -10 9 -8 0 -18 -5 -21 -10 -4 -6 -11 -8 -16 -5 -5 4 -9 -1 -9 -9 0
-9 -4 -16 -9 -16 -4 0 -21 -12 -36 -26 -15 -14 -31 -22 -34 -17 -5 6 -61 13
-61 7 0 0 13 -25 29 -54 26 -47 28 -56 16 -74 -20 -31 -27 -116 -10 -123 8 -2
17 -18 20 -35 5 -19 12 -28 21 -24 8 3 23 -8 36 -27 12 -18 28 -36 35 -40 14
-9 17 -45 5 -63 -4 -6 -18 -15 -32 -19 -14 -4 -36 -17 -49 -29 -17 -15 -25
-17 -28 -8 -3 6 -9 12 -13 12 -12 0 16 -65 42 -101 11 -15 28 -29 38 -32 9 -2
26 -24 38 -48 19 -38 20 -44 7 -47 -12 -3 -9 -12 15 -45 24 -33 30 -51 30 -94
0 -29 5 -73 12 -98 13 -46 9 -55 -25 -68 -13 -4 11 -57 26 -57 9 0 14 -12 14
-32 0 -18 5 -48 11 -67 10 -30 9 -34 -9 -38 -18 -5 -20 -11 -15 -46 4 -22 13
-49 21 -59 10 -15 11 -27 4 -45 -5 -13 -6 -36 -3 -49 5 -18 0 -32 -15 -48
l-21 -22 22 -21 c13 -11 35 -23 51 -27 15 -3 27 -12 27 -19 0 -8 11 -24 24
-36 24 -23 34 -54 41 -126 2 -22 7 -61 11 -87 4 -32 3 -53 -6 -62 -9 -12 -6
-27 16 -75 15 -34 31 -61 36 -61 5 0 7 -4 4 -9 -4 -5 11 -12 33 -16 24 -4 41
-13 44 -23 3 -9 14 -30 24 -45 16 -24 16 -29 3 -37 -13 -8 -13 -10 2 -10 9 0
19 4 23 10 3 5 12 7 21 3 12 -4 13 -1 4 21 -5 14 -6 26 -2 26 4 0 6 15 4 33
-3 29 0 34 32 50 20 9 41 28 46 42 6 15 17 25 29 25 26 0 71 21 71 33 0 6 5 6
13 0 19 -14 73 -15 84 -1 6 7 13 26 17 42 l7 29 24 -23 c14 -13 22 -26 20 -30
-5 -9 26 -21 68 -26 22 -3 27 0 27 16 0 14 7 20 24 20 17 0 31 11 47 38 13 20
27 39 31 40 4 2 11 21 14 43 4 24 14 44 26 50 18 10 18 11 1 42 -10 18 -24 40
-32 50 -8 9 -12 18 -10 20 2 2 17 11 32 21 27 17 28 19 21 74 -4 36 -14 65
-27 80 l-20 22 26 0 c19 0 25 4 21 15 -4 10 0 15 14 15 26 0 52 41 45 70 -5
20 -2 22 28 20 19 -2 42 1 52 5 9 4 33 5 52 3 32 -4 40 2 36 25 -2 11 27 8 31
-4 6 -18 36 1 31 20 -3 12 2 20 16 24 12 3 21 12 21 21 0 9 7 16 15 16 8 0 20
9 27 20 7 11 20 20 29 20 12 0 19 13 24 45 5 38 9 45 24 40 29 -9 51 5 51 32
0 23 3 25 31 19 18 -3 37 -2 43 3 13 11 39 -6 44 -28 2 -8 -6 -23 -16 -35 -13
-14 -17 -28 -13 -40 7 -18 8 -18 25 0 17 16 19 17 28 1 5 -10 13 -15 19 -12 5
4 9 2 9 -4 0 -5 -5 -13 -11 -17 -8 -5 -6 -10 5 -16 13 -7 14 -13 6 -23 -19
-23 -8 -70 15 -70 23 0 55 -30 82 -75 9 -17 22 -29 28 -27 5 3 19 1 30 -3 12
-4 25 -1 34 8 13 13 17 12 33 -8 16 -19 16 -25 3 -50 -8 -15 -22 -30 -31 -34
-11 -4 -14 -13 -10 -31 4 -14 2 -25 -4 -25 -15 0 -28 -62 -19 -94 9 -31 -3
-56 -27 -56 -13 0 -16 -4 -18 -32 -2 -24 -20 -36 -38 -27 -12 6 -25 6 -37 -1
-11 -5 -31 -10 -45 -10 -14 0 -29 -7 -34 -17 -8 -14 -16 -14 -51 -6 -45 12
-44 12 -41 -44 1 -28 -2 -33 -22 -33 -20 0 -23 -5 -25 -47 -5 -107 -9 -126
-20 -130 -20 -7 -15 -30 6 -36 11 -3 34 5 54 18 23 16 38 20 48 14 12 -7 12
-13 -3 -38 -13 -24 -13 -29 -2 -24 9 3 14 -1 14 -11 0 -14 4 -15 20 -6 11 6
17 17 14 25 -4 10 6 17 34 25 38 10 44 8 106 -31 44 -27 71 -39 85 -34 10 3
22 1 25 -4 4 -5 22 -7 40 -4 27 4 36 1 45 -14 5 -11 24 -26 41 -33 16 -7 30
-17 30 -22 0 -6 7 -8 15 -4 16 6 105 -72 105 -92 0 -6 14 -25 31 -43 22 -22
29 -38 25 -53 -7 -30 21 -52 62 -48 20 2 38 -3 48 -13 24 -24 2 -43 -47 -41
-34 2 -38 0 -25 -9 17 -13 23 -30 6 -20 -5 3 -10 2 -10 -4 0 -6 -8 -7 -17 -4
-12 5 -15 2 -10 -10 3 -9 2 -17 -3 -17 -11 0 -40 29 -40 41 0 5 -4 9 -9 9 -5
0 -7 -15 -5 -32 2 -18 4 -41 5 -50 0 -10 4 -18 10 -18 5 0 9 -6 9 -14 0 -15
46 -11 56 5 3 5 16 9 30 9 25 0 54 13 89 41 11 8 27 15 35 14 8 -1 34 -3 57
-3 37 -2 44 -6 70 -47 15 -25 33 -45 38 -45 6 0 18 -7 29 -15 18 -13 18 -15
-3 -43 -29 -41 -27 -46 16 -39 28 5 39 2 49 -11 10 -13 15 -14 25 -5 27 27 79
-17 79 -68 0 -36 3 -39 46 -59 26 -11 51 -20 57 -20 16 0 36 -33 37 -62 0 -15
5 -30 11 -34 6 -3 9 -17 6 -29 -5 -28 20 -37 76 -28 27 4 37 10 37 24 0 22 4
23 29 9 30 -15 71 9 71 43 0 21 5 27 21 27 11 0 17 5 14 10 -3 6 2 10 12 10
11 0 25 6 32 13 10 10 15 8 26 -7 19 -25 71 -31 79 -10 3 8 10 13 16 9 5 -3
27 -1 49 6 30 9 37 15 34 30 -3 11 0 19 6 19 6 0 11 7 11 15 0 9 6 12 15 9 8
-4 15 -2 15 4 0 10 65 28 90 24 8 -2 45 -4 83 -5 48 -1 67 2 67 11 0 7 13 12
33 12 17 0 39 5 47 10 10 6 22 4 37 -6 13 -8 23 -10 23 -4 0 5 9 10 20 10 10
0 24 9 30 19 9 18 12 18 40 4 17 -8 38 -16 46 -17 9 -1 28 -14 44 -29 15 -15
37 -27 48 -27 11 0 25 -7 32 -15 14 -17 100 -21 100 -5 0 6 9 10 21 10 29 0
59 18 59 35 0 8 7 15 15 15 8 0 15 -4 15 -8 0 -16 52 -34 64 -22 16 16 34 12
41 -10 4 -11 10 -18 15 -15 5 3 12 -1 17 -9 4 -8 24 -26 44 -39 33 -23 42 -24
85 -15 74 14 79 17 66 30 -23 23 -12 29 16 9 21 -14 32 -17 40 -9 7 7 16 4 28
-11 10 -11 26 -21 35 -21 10 0 19 -11 22 -29 14 -66 97 -65 140 1 22 34 24 44
14 56 -10 12 -9 14 8 9 23 -7 61 20 67 49 4 23 59 45 65 27 6 -18 53 -16 53 2
0 11 5 12 26 5 14 -6 30 -8 34 -5 15 9 59 -6 62 -22 2 -8 21 -21 43 -29 51
-18 100 -3 91 28 -3 14 0 18 10 14 8 -3 14 -1 14 5 0 6 7 9 15 5 8 -3 14 -2
14 2 -3 20 3 32 16 32 8 0 15 7 15 15 0 9 7 18 15 21 8 4 13 10 10 14 -3 5 -1
11 5 15 6 4 7 12 4 18 -7 12 50 -38 93 -81 12 -12 26 -22 30 -21 18 3 30 -2
51 -21 12 -12 22 -17 22 -13 0 11 49 10 73 -1 9 -5 31 -6 47 -4 17 3 30 0 30
-6 0 -5 6 -2 13 8 7 9 21 18 32 18 18 2 20 9 20 100 0 87 -2 98 -17 98 -10 0
-18 -7 -18 -15 0 -8 4 -15 10 -15 5 0 2 -16 -7 -35 -14 -29 -15 -42 -6 -65 9
-24 9 -30 -2 -30 -7 0 -18 -6 -24 -14 -10 -12 -16 -12 -42 1 -16 8 -37 12 -46
9 -12 -5 -14 -1 -10 15 5 18 2 20 -18 15 -20 -5 -35 7 -35 29 0 2 17 2 37 0
41 -4 113 29 113 50 0 7 14 38 30 69 33 61 33 91 -1 122 -10 9 -19 21 -19 27
0 14 -41 69 -48 63 -3 -3 -10 -1 -17 4 -6 5 -22 11 -36 13 -24 4 -41 37 -19
37 8 0 8 6 0 20 -13 23 2 27 20 5 7 -9 20 -13 29 -10 9 2 23 0 31 -5 13 -8 12
-10 -2 -10 -10 0 -18 -6 -18 -13 0 -17 20 -37 37 -37 8 0 37 -18 65 -40 28
-23 54 -37 58 -33 4 4 10 24 13 44 6 39 -6 59 -35 59 -10 0 -18 6 -18 14 0 7
-7 19 -15 26 -12 10 -16 8 -23 -11 -8 -22 -9 -21 -15 8 -6 33 -32 49 -52 33
-8 -7 -17 -4 -31 12 l-19 21 29 -7 c24 -6 27 -4 22 9 -3 9 -6 23 -6 32 0 9 -6
13 -15 9 -18 -7 -21 24 -3 42 16 16 2 29 -55 57 -23 11 -42 25 -42 32 0 6 -10
22 -23 35 -38 39 -89 102 -101 125 -9 17 -8 25 4 37 19 18 19 25 0 46 -17 19
-9 54 10 46 14 -5 25 14 25 41 0 27 31 46 76 46 27 0 45 5 48 14 3 7 15 13 27
13 18 0 20 4 15 27 l-7 26 27 -18 c24 -15 31 -16 66 -4 34 11 39 16 35 36 -3
17 -1 21 8 13 17 -14 75 16 75 39 0 14 11 20 40 25 31 5 40 11 40 26 0 21 15
27 25 10 3 -5 21 -8 39 -6 39 5 61 -6 53 -28 -5 -11 -1 -16 14 -16 11 0 24
-11 31 -25 6 -14 15 -25 20 -25 13 0 9 17 -7 34 -8 8 -15 19 -15 25 0 6 7 11
15 11 8 0 15 -6 15 -14 0 -17 100 -27 101 -11 0 6 5 -2 10 -16 6 -15 18 -29
29 -32 12 -3 17 0 14 8 -4 10 8 12 56 8 40 -4 69 -2 84 7 18 9 29 9 44 1 29
-15 57 -14 72 4 13 15 47 14 106 -3 36 -11 66 1 58 23 -4 8 -2 15 3 15 14 0
37 -46 29 -58 -3 -6 -1 -12 5 -14 7 -2 13 -16 15 -31 1 -15 21 -49 44 -76 34
-40 48 -49 82 -54 22 -3 51 -1 64 5 21 10 24 18 24 66 0 45 3 53 16 48 9 -3
20 -6 25 -6 6 0 7 -5 3 -11 -4 -7 13 -1 37 12 24 13 45 27 47 32 2 4 12 7 23
7 11 0 19 7 19 18 0 9 9 36 20 59 14 32 23 41 35 36 14 -5 16 0 13 33 l-3 39
38 -3 c32 -2 37 0 37 18 0 11 4 20 9 20 5 0 11 14 13 32 4 24 -1 38 -21 60
-31 35 -82 68 -106 68 -10 0 -33 11 -51 25 -18 14 -39 25 -46 25 -8 0 -24 7
-37 16 -18 13 -25 14 -31 4 -4 -7 -16 -9 -28 -6 -11 4 -23 3 -26 -2 -12 -20
-142 35 -187 79 -30 29 -49 37 -49 20 0 -17 -65 -6 -87 14 -12 11 -29 26 -38
33 -21 18 -15 36 13 40 26 4 26 1 7 45 -8 19 -12 37 -9 40 3 3 -4 8 -15 12
-12 3 -24 18 -27 33 -12 57 -16 63 -30 58 -9 -4 -18 4 -24 20 -12 30 -13 74
-2 74 11 0 7 46 -5 62 -18 22 -21 68 -7 83 8 7 11 21 8 29 -4 9 -1 16 6 16 9
0 8 6 -3 18 -10 10 -17 26 -17 34 0 9 -7 21 -15 28 -8 7 -15 9 -15 6 0 -4 -10
-2 -21 5 -12 6 -19 7 -16 2 6 -10 -194 -9 -239 1 -25 6 -33 3 -38 -10 -5 -13
-10 -14 -18 -6 -8 8 -16 5 -28 -11 l-18 -22 -7 37 c-5 24 -13 38 -26 41 -12 3
-19 14 -19 30 0 14 -5 27 -11 29 -12 4 -49 93 -49 116 0 18 -23 39 -37 35 -22
-8 -47 35 -48 82 0 38 -5 49 -35 74 -26 22 -30 30 -18 31 14 0 16 5 9 23 -5
13 -5 30 0 39 7 12 4 15 -9 14 -11 -1 -16 5 -14 16 3 17 -12 24 -68 30 -20 2
-24 8 -22 27 2 19 -1 22 -15 16 -10 -5 -33 -10 -51 -13 -26 -3 -31 -1 -26 12
4 11 1 16 -11 16 -9 0 -13 5 -9 11 4 8 0 9 -15 4 -14 -4 -30 0 -47 14 -36 28
-48 26 -77 -9 -14 -16 -35 -30 -46 -30 -14 0 -21 -6 -21 -20 0 -20 -7 -23 -81
-35 -21 -3 -43 -12 -50 -21 -7 -9 -15 -11 -19 -5 -12 21 -152 11 -177 -11 -13
-12 -40 -19 -79 -21 -48 -3 -63 0 -83 17 -21 18 -23 18 -18 4 4 -12 1 -18 -8
-18 -8 0 -15 5 -15 11 0 5 -4 8 -9 4 -18 -11 -20 12 -3 31 27 29 32 50 16 72
-8 12 -11 28 -7 38 6 16 5 17 -9 4 -9 -8 -15 -17 -13 -20 6 -10 -50 -4 -93 10
-43 14 -92 62 -92 91 0 8 -13 22 -30 31 -37 21 -51 69 -34 118 14 40 6 99 -18
127 -7 9 -8 14 -2 10 7 -4 14 0 18 8 3 9 0 15 -9 15 -25 0 -95 24 -95 33 0 5
-5 5 -10 2 -12 -8 -80 16 -80 28 0 4 -9 5 -20 2 -28 -9 -80 16 -80 37 0 10 -6
18 -14 18 -8 0 -27 11 -43 24 -36 30 -93 44 -93 22 0 -27 -21 -28 -49 -2 -25
24 -77 46 -107 46 -8 0 -10 -13 -7 -38z m-803 -729 c4 -9 2 -19 -4 -23 -6 -4
-7 -15 -3 -26 7 -18 6 -18 -17 -3 -13 9 -27 27 -31 40 -5 22 -3 25 21 27 18 1
30 -4 34 -15z m56 -123 c0 -5 -2 -10 -4 -10 -3 0 -8 5 -11 10 -3 6 -1 10 4 10
6 0 11 -4 11 -10z m-85 -420 c-3 -5 -11 -10 -16 -10 -6 0 -7 5 -4 10 3 6 11
10 16 10 6 0 7 -4 4 -10z m-821 -195 c-4 -8 -12 -15 -20 -15 -8 0 -14 7 -14
15 0 8 9 15 20 15 13 0 18 -5 14 -15z m3133 -949 c4 -8 17 -15 28 -18 20 -3
35 -38 16 -38 -6 0 -8 7 -5 15 5 11 -1 15 -20 15 -17 0 -26 -5 -26 -15 0 -9
-7 -18 -15 -21 -9 -4 -14 -14 -13 -23 2 -12 -5 -16 -35 -16 -53 -1 -65 18 -22
34 29 10 35 17 35 40 0 15 3 31 7 34 11 12 42 8 50 -7z m88 -756 c3 -5 -1 -10
-10 -10 -9 0 -13 5 -10 10 3 6 8 10 10 10 2 0 7 -4 10 -10z m75 -10 c0 -5 -2
-10 -4 -10 -3 0 -8 5 -11 10 -3 6 -1 10 4 10 6 0 11 -4 11 -10z m-55 -20 c3
-5 2 -10 -4 -10 -5 0 -13 5 -16 10 -3 6 -2 10 4 10 5 0 13 -4 16 -10z"/>
<path d="M7116 12281 c-18 -20 -15 -51 7 -80 6 -7 16 -22 22 -34 5 -11 21 -22
34 -24 20 -3 22 0 18 19 -3 13 -11 49 -18 81 -13 62 -31 73 -63 38z"/>
<path d="M6337 12233 c-6 -11 7 -45 16 -41 10 4 39 -53 34 -66 -3 -6 5 -21 15
-33 l20 -22 27 20 c26 19 29 19 66 3 35 -14 40 -14 50 0 11 14 15 14 49 -3 20
-11 43 -24 50 -30 24 -20 46 -3 39 32 -3 18 -10 38 -16 45 -14 18 -84 15 -95
-4 -6 -11 -16 -14 -31 -9 -17 5 -19 10 -11 19 7 10 6 24 -6 51 -15 37 -16 37
-30 16 -20 -28 -50 -27 -70 4 -13 20 -24 25 -60 25 -23 0 -45 -3 -47 -7z"/>
<path d="M7021 12227 c-9 -12 -8 -16 6 -20 10 -2 26 -8 36 -12 13 -5 17 -2 17
14 0 12 -4 21 -9 21 -5 0 -16 2 -24 5 -7 3 -19 0 -26 -8z"/>
<path d="M6951 12191 c-8 -5 -9 -11 -3 -15 5 -3 12 1 16 9 6 17 6 18 -13 6z"/>
<path d="M6839 12173 c-1 -5 -2 -17 -3 -28 -1 -15 -9 -21 -36 -23 -64 -5 -68
-10 -31 -43 19 -16 39 -29 46 -29 7 0 15 -7 19 -15 9 -24 19 -18 42 24 17 32
19 41 8 45 -22 8 -17 24 9 28 14 2 23 11 25 26 3 20 -1 22 -37 22 -23 0 -42
-3 -42 -7z"/>
<path d="M6737 12034 c4 -12 1 -15 -13 -12 -10 2 -27 -5 -37 -15 -16 -16 -17
-23 -8 -44 18 -38 14 -55 -11 -51 -23 3 -58 -37 -58 -66 0 -8 -8 -12 -22 -9
-16 3 -27 -3 -36 -18 -12 -19 -12 -21 3 -15 24 9 61 -12 46 -27 -14 -14 -15
-57 -1 -57 6 0 10 5 10 11 0 7 13 10 34 7 30 -3 34 -1 31 19 -1 13 -10 32 -20
43 -12 13 -14 23 -7 36 8 15 13 13 42 -15 31 -29 58 -42 46 -22 -3 4 3 16 14
26 11 10 17 22 14 26 -3 5 2 9 11 9 12 0 13 4 7 18 -5 9 -7 22 -5 29 2 6 -5
14 -16 18 -17 5 -21 15 -21 50 0 35 3 43 15 39 22 -9 18 9 -5 23 -16 11 -18
10 -13 -3z"/>
<path d="M6453 11843 c4 -3 2 -12 -4 -20 -9 -10 -8 -13 5 -13 9 0 16 8 16 20
0 11 -5 20 -12 20 -6 0 -8 -3 -5 -7z"/>
<path d="M12075 11830 c-10 -17 12 -37 25 -24 8 8 6 15 -4 23 -10 9 -16 9 -21
1z"/>
<path d="M6500 11820 c20 -13 33 -13 25 0 -3 6 -14 10 -23 10 -15 0 -15 -2 -2
-10z"/>
<path d="M9323 11763 c-13 -2 -23 -7 -23 -11 1 -28 15 -51 35 -54 20 -4 22 -1
22 34 0 21 -2 37 -6 37 -3 -1 -16 -4 -28 -6z"/>
<path d="M7817 11725 c-33 -29 -37 -36 -28 -54 14 -25 0 -66 -29 -81 -17 -9
-18 -14 -9 -31 14 -27 -12 -57 -55 -61 -30 -4 -30 -4 24 -29 40 -19 60 -24 73
-17 13 7 31 5 56 -5 33 -14 39 -14 57 1 27 22 57 72 44 72 -5 0 -10 9 -10 20
0 14 9 21 36 26 25 5 34 11 30 21 -3 8 -6 19 -6 24 0 5 -8 9 -18 9 -10 0 -27
7 -38 15 -16 12 -16 14 -3 15 15 0 15 4 4 37 -10 30 -20 39 -44 44 -17 4 -31
4 -32 0 0 -3 -3 1 -7 10 -6 15 -13 12 -45 -16z"/>
<path d="M6935 11070 c-3 -5 -1 -10 4 -10 6 0 11 5 11 10 0 6 -2 10 -4 10 -3
0 -8 -4 -11 -10z"/>
<path d="M14130 10610 c0 -5 -9 -10 -19 -10 -11 0 -26 -3 -35 -6 -13 -5 -13
-9 5 -23 19 -15 20 -19 7 -32 -16 -16 -11 -43 14 -78 16 -23 18 -23 51 -8 33
16 34 18 30 69 -3 29 -6 58 -8 65 -5 16 -45 37 -45 23z"/>
<path d="M13915 10423 c-11 -3 -27 -11 -35 -18 -8 -7 -27 -15 -42 -19 -19 -4
-28 -13 -28 -26 0 -13 -9 -22 -27 -26 -38 -10 -60 -44 -29 -44 8 0 37 -15 65
-34 43 -29 56 -33 80 -26 16 4 32 6 35 2 3 -3 6 2 6 11 0 19 15 23 26 6 7 -13
64 38 64 58 0 21 28 15 41 -8 7 -15 14 -18 21 -11 6 6 17 8 24 5 29 -11 13 27
-18 44 -25 13 -29 18 -15 21 19 4 22 17 6 27 -6 4 -8 14 -4 24 5 13 4 14 -6 4
-18 -18 -34 -16 -19 2 8 9 9 15 2 15 -6 0 -14 -4 -17 -10 -3 -5 -20 -7 -38 -4
-63 10 -72 11 -92 7z"/>
<path d="M14240 10370 c0 -3 9 -18 20 -35 26 -39 25 -47 -3 -40 -20 6 -23 3
-22 -29 1 -19 9 -44 19 -55 10 -11 16 -29 14 -39 -4 -15 0 -19 21 -18 31 1 41
12 41 49 0 23 4 27 28 27 20 0 33 -7 42 -24 7 -14 18 -22 25 -20 7 3 16 0 20
-6 5 -8 15 -4 31 11 17 16 24 18 24 8 0 -12 2 -12 9 1 6 8 8 17 5 21 -2 4 0
10 5 13 11 7 -8 88 -23 99 -6 4 -40 6 -76 5 -60 -3 -65 -1 -68 18 -3 19 -9 21
-58 20 -29 0 -54 -3 -54 -6z"/>
<path d="M14171 10285 c0 -18 26 -58 32 -49 3 5 -3 21 -14 34 -10 14 -18 21
-18 15z"/>
<path d="M14210 10180 c0 -13 5 -18 15 -14 12 5 13 10 4 20 -15 19 -19 18 -19
-6z"/>
<path d="M8050 9964 c0 -23 30 -50 39 -35 4 6 15 9 24 5 14 -5 16 -2 10 12 -9
24 -23 34 -50 34 -14 0 -23 -6 -23 -16z"/>
<path d="M7970 9865 c0 -13 4 -14 23 -4 33 17 33 19 4 19 -18 0 -27 -5 -27
-15z"/>
<path d="M13464 9806 c-5 -6 -10 -25 -10 -41 1 -24 -3 -30 -19 -30 -27 0 -63
-38 -78 -82 -13 -39 -19 -43 -87 -64 -37 -12 -46 -19 -48 -41 -3 -25 -5 -27
-46 -22 -43 6 -43 6 -43 -28 -1 -18 -4 -48 -8 -65 -6 -27 -4 -33 9 -33 9 0 20
-8 23 -17 4 -9 15 -25 25 -35 15 -15 23 -17 33 -8 9 8 19 8 32 1 10 -5 30 -12
45 -15 21 -5 26 -10 21 -24 -6 -14 -4 -15 9 -4 11 8 18 9 23 3 9 -15 55 -7 94
17 19 12 39 18 44 15 6 -3 7 -1 3 5 -3 6 7 20 23 31 35 25 33 71 -3 71 -24 0
-63 60 -51 80 4 6 1 17 -5 25 -18 21 8 20 31 -1 13 -12 22 -13 36 -6 13 8 22
7 35 -5 17 -15 18 -14 18 15 0 50 33 38 45 -15 3 -18 13 -33 20 -33 8 0 26 -5
41 -10 21 -8 24 -14 16 -22 -7 -7 -12 -21 -12 -33 0 -12 -5 -26 -11 -32 -8 -8
-4 -18 12 -37 19 -22 29 -26 54 -20 37 8 87 53 80 73 -5 11 -3 12 10 1 25 -20
29 -4 6 21 -12 13 -27 38 -33 56 -14 37 -34 46 -90 40 -31 -3 -40 0 -53 19
-20 30 -20 74 0 74 8 0 15 4 15 8 0 12 -34 42 -48 42 -6 0 -15 8 -21 17 -5 11
-22 17 -43 18 -46 0 -72 27 -65 65 7 30 -10 46 -29 26z"/>
<path d="M11850 8820 c0 -5 5 -10 11 -10 5 0 7 5 4 10 -3 6 -8 10 -11 10 -2 0
-4 -4 -4 -10z"/>
<path d="M11980 8703 c-14 -8 -44 -12 -67 -11 -24 2 -43 0 -43 -4 0 -9 41 -48
50 -48 13 0 31 -81 24 -103 -4 -12 -7 -30 -5 -40 1 -10 -5 -28 -15 -38 -29
-32 -25 -49 14 -72 20 -12 39 -22 42 -22 3 0 11 -4 18 -8 7 -5 12 -4 12 2 0 6
11 11 25 11 23 0 25 4 25 45 0 37 3 43 17 38 13 -5 15 -2 10 11 -4 10 -7 22
-7 28 0 6 -9 8 -20 5 -10 -3 -25 2 -31 9 -7 8 -19 14 -28 13 -42 -4 -44 1 -16
31 25 26 28 34 17 50 -6 11 -9 26 -6 35 4 9 1 15 -7 15 -10 1 -8 5 4 15 10 7
17 22 15 32 -3 17 -6 17 -28 6z"/>
<path d="M9066 8504 c-23 -13 -36 -14 -73 -5 -39 10 -48 9 -82 -11 -21 -13
-36 -28 -34 -34 2 -6 -3 -17 -12 -24 -32 -26 -11 -86 40 -116 11 -7 19 -19 17
-29 -2 -9 5 -26 15 -37 10 -11 17 -30 15 -43 -3 -19 4 -24 38 -33 28 -7 51 -7
70 0 24 8 34 6 59 -13 17 -13 31 -26 31 -31 0 -4 12 -8 26 -8 14 0 35 -5 46
-11 16 -9 26 -7 49 10 24 18 29 19 36 6 19 -32 83 23 83 71 0 8 4 13 9 10 24
-15 38 6 39 60 1 48 -1 55 -16 51 -18 -4 -71 18 -73 31 -1 4 -2 23 -3 43 -3
45 -30 78 -44 54 -11 -20 -63 -25 -70 -6 -3 10 2 13 21 9 23 -5 25 -3 16 20
-16 41 -20 44 -45 28 -30 -20 -58 -21 -51 -2 11 27 -63 33 -107 10z"/>
<path d="M12120 8445 c0 -8 5 -15 10 -15 6 0 10 7 10 15 0 8 -4 15 -10 15 -5
0 -10 -7 -10 -15z"/>
<path d="M12090 8421 c-13 -26 -13 -31 5 -31 9 0 15 9 15 25 0 30 -6 32 -20 6z"/>
<path d="M8776 8385 c4 -8 12 -15 20 -15 20 0 17 7 -6 20 -16 9 -18 8 -14 -5z"/>
<path d="M12019 8334 c-9 -11 -15 -12 -26 -3 -7 7 -16 9 -19 6 -10 -10 7 -27
27 -27 11 0 22 -7 26 -16 3 -8 11 -13 19 -10 7 3 15 0 18 -7 4 -7 4 -1 0 13
-3 14 -6 30 -6 37 -2 19 -25 23 -39 7z"/>
<path d="M9465 8239 c-11 -17 -2 -18 19 -3 17 12 17 14 4 14 -9 0 -20 -5 -23
-11z"/>
<path d="M8441 8151 c-12 -9 -18 -20 -14 -25 10 -10 11 -106 1 -106 -4 0 -4
-10 1 -22 4 -13 6 -29 3 -36 -3 -10 4 -13 24 -10 24 2 29 8 29 29 -1 18 4 25
12 22 7 -3 13 0 13 6 0 20 19 11 33 -15 11 -21 23 -27 55 -30 23 -2 42 0 42 4
0 5 -13 21 -30 37 -18 17 -30 39 -30 54 -1 33 -32 71 -59 71 -12 0 -29 8 -40
19 -17 17 -20 17 -40 2z"/>
<path d="M9085 8160 c3 -5 8 -10 11 -10 2 0 4 5 4 10 0 6 -5 10 -11 10 -5 0
-7 -4 -4 -10z"/>
<path d="M8907 7976 c-4 -9 -17 -16 -31 -16 -15 0 -27 -7 -30 -18 -5 -14 -14
-17 -36 -14 -22 3 -30 0 -30 -11 0 -8 7 -17 15 -21 8 -3 15 -12 15 -21 0 -8 7
-15 15 -15 8 0 21 -13 30 -30 10 -19 20 -27 30 -24 8 4 15 10 15 14 0 5 12 10
28 12 24 3 27 7 26 38 -2 45 -39 128 -47 106z"/>
<path d="M8660 7971 c0 -5 11 -16 25 -25 25 -16 30 -11 19 18 -6 17 -44 23
-44 7z"/>
<path d="M8361 7914 c25 -27 45 -30 62 -11 24 25 16 34 -35 35 l-50 1 23 -25z"/>
<path d="M8960 7710 c0 -5 12 -12 28 -15 15 -4 35 -10 45 -16 20 -11 23 4 5
18 -19 15 -78 24 -78 13z"/>
<path d="M9110 7659 c0 -6 -4 -8 -9 -5 -5 3 -14 -1 -21 -9 -9 -10 -9 -15 -1
-15 6 0 11 4 11 9 0 5 21 3 47 -5 59 -18 73 -18 73 1 0 8 -9 15 -20 15 -26 0
-31 1 -57 11 -15 5 -23 5 -23 -2z"/>
</g>
</svg>
