<?xml version="1.0" standalone="no"?>
<!DOCTYPE svg PUBLIC "-//W3C//DTD SVG 20010904//EN"
 "http://www.w3.org/TR/2001/REC-SVG-20010904/DTD/svg10.dtd">
<svg version="1.0" xmlns="http://www.w3.org/2000/svg"
 width="399.515922pt" height="796.571420pt" viewBox="0 0 399.515922 796.571420"
 preserveAspectRatio="xMidYMid meet">
<metadata>
Created by potrace 1.15, written by Peter Selinger 2001-2017
</metadata>
<g transform="translate(-771.581969,1394.604131) scale(0.100000,-0.100000)"
fill="#222222" stroke="none">
<path d="M9635 13928 c16 -58 27 -77 42 -71 10 4 11 8 3 13 -6 4 -10 11 -9 16
4 24 -3 40 -22 52 -19 12 -20 11 -14 -10z"/>
<path d="M9666 13796 c3 -9 13 -16 22 -16 8 0 13 1 11 3 -2 1 -12 9 -22 16
-15 12 -17 12 -11 -3z"/>
<path d="M9636 13772 c5 -26 3 -31 -17 -35 -23 -4 -23 -4 2 -6 30 -1 54 -24
46 -45 -3 -8 4 -18 18 -24 36 -17 42 14 10 48 -14 15 -29 40 -34 55 -10 40
-33 46 -25 7z"/>
<path d="M9730 13658 c0 -9 5 -20 10 -23 13 -8 13 5 0 25 -8 13 -10 13 -10 -2z"/>
<path d="M9716 13511 c-4 -7 -5 -15 -2 -18 9 -9 19 4 14 18 -4 11 -6 11 -12 0z"/>
<path d="M9673 13452 c-30 -23 -26 -89 5 -106 15 -8 19 -15 12 -26 -5 -8 -6
-18 -3 -24 3 -5 1 -6 -5 -2 -7 4 -12 1 -12 -8 0 -8 -4 -16 -10 -18 -5 -2 -6
-18 -1 -40 8 -32 6 -39 -13 -51 -15 -10 -28 -12 -45 -5 -42 15 -49 5 -47 -61
2 -33 -1 -62 -6 -63 -17 -6 3 -58 22 -58 38 0 34 -19 -16 -88 -1 -2 -12 1 -23
8 -17 9 -21 8 -21 -5 0 -12 -6 -15 -21 -10 -20 7 -21 5 -14 -31 8 -43 9 -110
4 -191 -3 -48 -5 -53 -27 -53 -21 0 -23 -3 -17 -31 6 -25 2 -36 -21 -60 -15
-16 -34 -29 -41 -29 -8 0 -11 -4 -8 -10 3 -5 1 -10 -4 -10 -6 0 -11 -6 -11
-13 0 -8 -9 -24 -20 -37 -11 -13 -20 -26 -20 -30 0 -4 -12 -5 -26 -2 -17 3
-31 -2 -46 -18 -18 -19 -22 -20 -35 -7 -12 12 -25 9 -98 -20 -53 -21 -102 -33
-131 -33 -38 0 -45 -3 -40 -16 3 -8 2 -12 -4 -9 -6 3 -10 1 -10 -4 0 -6 -9
-11 -19 -11 -15 0 -19 -6 -18 -27 1 -17 -3 -27 -10 -26 -9 2 -10 -11 -6 -47 5
-46 4 -50 -18 -59 -13 -5 -20 -10 -15 -10 5 -1 2 -9 -5 -18 -10 -11 -10 -14
-1 -9 19 11 14 -9 -7 -28 -17 -16 -21 -16 -54 4 -20 12 -39 30 -42 41 -4 10
-10 19 -15 19 -4 0 -10 9 -13 19 -3 12 -18 23 -38 29 -32 8 -35 7 -46 -22 -6
-17 -12 -45 -12 -63 -1 -17 -5 -33 -11 -35 -16 -5 20 -141 42 -157 15 -10 19
-22 15 -50 -4 -34 15 -91 31 -91 4 0 13 -9 20 -20 11 -17 10 -26 -4 -49 -11
-18 -14 -36 -9 -47 17 -41 15 -64 -7 -64 -16 0 -19 -5 -14 -24 7 -29 -11 -50
-60 -71 -28 -12 -34 -19 -34 -44 0 -19 5 -31 13 -31 24 0 50 -38 52 -75 1 -27
-2 -35 -12 -31 -16 6 -17 -8 -2 -32 17 -28 -5 -72 -36 -72 -29 0 -30 -2 -10
-39 13 -26 13 -30 -3 -44 -9 -8 -27 -20 -39 -26 -13 -6 -23 -21 -23 -32 0 -11
-7 -22 -15 -25 -8 -3 -23 -21 -34 -40 l-20 -34 27 -6 c55 -12 62 -16 78 -44
10 -16 23 -26 31 -23 10 4 12 -11 10 -68 -2 -68 0 -75 21 -84 22 -10 32 -55
12 -55 -13 0 -1 -30 21 -55 18 -20 19 -23 19 -50 0 -8 13 -28 29 -44 16 -17
33 -40 37 -53 4 -13 15 -29 25 -36 11 -7 19 -21 19 -31 0 -9 6 -23 12 -29 10
-10 10 -15 -2 -22 -8 -5 -23 -10 -33 -10 -10 0 -29 -7 -42 -16 -17 -11 -25
-12 -25 -4 0 7 -6 6 -16 -4 -8 -9 -25 -16 -36 -16 -14 0 -18 -5 -14 -15 3 -10
-1 -15 -11 -15 -15 0 -16 -2 -3 -15 22 -21 94 -54 100 -45 7 10 50 -7 50 -20
0 -5 9 -10 19 -10 11 0 23 -5 27 -11 3 -6 17 -9 31 -6 28 5 53 -27 34 -46 -6
-6 -11 -21 -11 -34 0 -15 -9 -27 -23 -34 -13 -6 -27 -20 -32 -32 -7 -15 -17
-21 -32 -19 -13 2 -23 -2 -23 -7 0 -6 7 -11 15 -11 9 0 20 -12 25 -26 13 -34
13 -34 -10 -34 -14 0 -20 6 -18 18 2 11 -5 18 -21 20 -18 3 -22 0 -18 -12 8
-20 -6 -21 -22 -2 -10 12 -16 10 -36 -10 -13 -13 -29 -24 -35 -24 -6 0 -8 -10
-4 -24 4 -18 0 -28 -14 -37 -19 -12 -19 -14 -4 -25 24 -17 10 -26 -42 -28 -34
-1 -42 -4 -34 -14 6 -7 8 -15 4 -19 -3 -3 3 -13 15 -21 20 -14 20 -15 2 -27
-11 -7 -37 -17 -59 -20 -46 -9 -81 -37 -101 -83 -14 -34 -33 -35 -33 -1 0 16
-33 39 -54 39 -4 0 -17 -35 -25 -70 -5 -22 -12 -25 -54 -28 -39 -3 -50 -7 -59
-27 -6 -13 -22 -26 -35 -30 -20 -5 -24 -10 -19 -29 5 -20 -1 -27 -47 -51 -28
-15 -63 -29 -77 -31 -32 -6 -60 -39 -60 -71 0 -13 -11 -39 -24 -56 -18 -24
-23 -40 -19 -62 4 -24 3 -28 -7 -18 -17 16 -41 -6 -30 -27 4 -8 8 -46 8 -83 0
-69 0 -69 -34 -83 -18 -8 -40 -11 -48 -8 -11 4 -13 0 -9 -16 4 -15 -1 -26 -17
-37 -22 -16 -22 -16 29 -47 28 -18 49 -35 45 -39 -4 -3 -1 -20 5 -36 19 -45
22 -151 5 -158 -25 -9 -15 -32 21 -49 40 -19 71 -70 54 -90 -6 -7 -16 -11 -22
-8 -7 2 -20 -10 -29 -27 -11 -18 -22 -27 -29 -23 -8 5 -9 3 -5 -5 5 -7 14 -10
22 -7 8 3 14 -1 14 -9 0 -8 -4 -15 -9 -15 -5 0 -13 -9 -16 -20 -7 -23 -50 -28
-58 -6 -7 17 -43 10 -51 -9 -2 -7 5 -31 16 -54 15 -30 26 -41 43 -41 12 0 45
-15 71 -33 40 -27 56 -33 87 -29 20 2 43 0 50 -6 6 -6 24 -8 40 -5 20 4 27 11
27 29 0 22 3 23 63 21 34 -2 71 -8 82 -14 16 -9 24 -7 48 13 16 13 34 24 41
24 10 0 12 13 9 47 l-4 47 24 -22 c30 -28 33 -28 52 7 8 16 28 35 45 43 16 7
30 16 30 20 0 5 7 8 16 8 9 0 25 10 36 22 12 14 22 18 26 12 4 -6 23 -16 42
-23 19 -6 48 -25 64 -41 22 -24 31 -28 42 -19 8 7 15 10 17 8 1 -2 7 -13 13
-24 6 -11 26 -25 45 -31 26 -9 34 -17 34 -37 1 -14 6 -31 12 -39 7 -7 13 -36
16 -63 2 -28 11 -64 20 -82 10 -18 17 -41 17 -51 0 -21 18 -32 52 -32 11 0 22
-8 25 -19 2 -10 23 -27 46 -37 30 -14 43 -26 45 -44 4 -25 19 -39 82 -76 38
-22 60 -21 60 2 0 17 11 18 32 2 20 -15 25 -73 10 -108 -9 -22 -6 -29 19 -53
27 -26 41 -55 20 -42 -25 15 37 -93 63 -110 16 -11 34 -29 40 -40 14 -26 37
-44 56 -45 8 0 21 -9 28 -20 7 -12 18 -17 27 -13 19 7 65 -33 65 -56 0 -8 14
-26 31 -41 25 -20 34 -39 46 -95 8 -39 17 -91 20 -118 4 -42 3 -46 -13 -40
-16 6 -16 3 3 -28 16 -25 23 -59 29 -132 8 -121 31 -164 82 -159 18 1 31 -1
31 -5 -3 -21 2 -33 15 -33 23 0 40 -28 27 -43 -8 -11 -5 -19 14 -37 28 -26 35
-63 10 -54 -9 4 -15 0 -15 -8 0 -18 49 -18 96 1 37 14 59 52 41 71 -9 10 -9
14 0 17 8 3 9 12 4 26 -8 21 -6 22 28 23 21 1 48 7 62 15 13 7 28 12 33 11 5
-2 12 2 16 9 6 8 9 8 14 0 4 -6 3 -11 -2 -11 -6 0 -8 -9 -5 -20 4 -14 0 -20
-11 -20 -34 0 -12 -34 28 -44 25 -6 28 -10 24 -39 -7 -41 -1 -57 18 -50 8 3
22 -1 32 -9 22 -19 50 -29 54 -19 2 4 26 5 53 2 l50 -6 -24 -17 c-21 -15 -27
-16 -40 -4 -14 12 -19 10 -38 -14 l-22 -27 40 -79 c21 -43 37 -84 35 -91 -5
-11 36 -63 49 -63 3 0 3 15 -1 34 -5 31 -4 34 14 30 14 -4 21 1 27 18 4 13 6
29 6 36 -1 6 8 12 20 12 18 0 20 2 8 16 -10 13 -10 17 1 24 8 5 19 5 26 -1 8
-7 13 -2 16 16 4 21 2 25 -19 25 -27 0 -62 35 -63 63 0 15 3 16 20 7 11 -6 20
-7 20 -3 -1 19 -18 33 -43 35 -25 2 -40 28 -17 28 27 0 -3 69 -49 111 -37 33
-32 59 10 59 22 0 29 5 29 19 0 11 -4 22 -10 26 -5 3 -6 13 -3 22 4 9 -1 21
-12 29 -11 8 -14 14 -6 14 7 0 1 13 -14 32 -15 18 -22 34 -17 36 13 4 5 60
-12 81 -8 10 -4 19 17 37 15 13 27 28 27 34 0 5 12 10 26 10 19 0 24 4 22 18
-6 23 49 132 65 132 7 0 28 16 47 35 19 19 40 35 47 35 7 0 10 7 7 15 -4 10 0
15 10 15 9 0 19 7 22 15 4 8 13 15 21 15 30 0 48 32 47 87 0 29 4 53 8 53 14
0 9 37 -7 50 -11 9 -12 17 -4 31 7 13 6 19 -1 19 -22 0 -6 45 18 48 16 3 22
10 22 28 0 15 6 24 15 24 8 0 15 6 15 14 0 15 54 38 66 28 3 -4 1 4 -6 17 -6
13 -10 36 -8 52 3 17 -1 34 -9 40 -7 6 -13 24 -13 39 0 15 -7 33 -15 40 -9 7
-14 18 -12 23 2 6 -15 20 -37 31 -36 19 -41 25 -41 56 0 21 -7 40 -16 47 -18
13 -28 49 -35 128 -3 28 -16 73 -29 100 -13 28 -26 58 -29 68 -3 9 -12 17 -21
17 -8 0 -23 7 -32 16 -32 28 -165 124 -172 124 -5 0 -3 18 3 40 8 31 7 46 -2
60 -16 26 -15 41 2 34 11 -4 13 0 9 15 -3 12 -9 24 -14 27 -5 3 -9 18 -9 35 0
17 -5 29 -13 29 -22 0 -49 57 -38 79 6 11 7 30 2 49 -12 39 2 98 28 126 14 15
17 26 11 36 -16 25 -12 27 53 34 38 4 66 12 73 21 8 11 20 14 38 9 17 -4 26
-2 26 6 0 6 5 8 10 5 6 -3 10 -1 10 6 0 7 10 9 25 7 31 -6 45 10 47 55 1 20 7
38 15 41 7 3 13 15 13 26 0 11 8 23 18 26 9 3 29 12 44 20 14 8 33 11 42 8 9
-3 28 -3 42 0 19 5 24 11 19 25 -3 11 -1 22 5 26 15 9 12 41 -5 55 -12 10 -15
9 -15 -6 0 -30 -24 1 -26 35 -1 15 -7 38 -13 49 -14 27 5 76 27 67 10 -3 12 0
8 10 -3 8 -1 15 5 15 6 0 13 -9 16 -20 3 -11 12 -20 20 -20 19 0 63 45 63 65
0 22 22 19 61 -10 61 -45 119 -66 119 -45 0 6 11 22 25 35 29 30 109 36 119 9
4 -9 11 -12 18 -8 7 5 5 -4 -5 -19 -18 -28 -18 -28 7 -48 14 -11 26 -30 26
-43 0 -17 6 -22 31 -24 27 -2 31 0 26 17 -3 15 2 20 24 25 22 4 29 11 29 30 0
33 37 42 65 16 25 -24 55 -26 55 -4 0 8 5 12 10 9 6 -3 10 -1 10 5 0 8 -9 10
-25 6 -15 -4 -25 -2 -25 4 0 7 -8 9 -20 5 -19 -6 -20 -3 -14 22 10 40 14 45
31 39 13 -5 14 0 9 29 -4 22 -3 35 4 35 5 0 10 5 10 10 0 6 9 19 21 31 22 22
17 34 -16 41 -12 3 -18 10 -16 19 3 8 4 44 4 81 -1 52 2 68 14 72 14 6 14 9
-1 25 -10 11 -31 25 -47 31 -23 10 -33 23 -41 56 -7 26 -19 44 -30 47 -20 6
-42 53 -34 74 3 7 0 13 -7 13 -7 1 1 6 16 13 16 7 28 15 28 20 -2 19 1 19 25
-4 14 -13 39 -24 55 -25 16 -1 38 -9 48 -18 23 -21 43 -20 74 4 14 11 30 20
36 20 5 0 22 5 36 12 22 10 26 17 21 38 -4 24 -2 27 25 28 16 0 29 -4 29 -9 0
-5 11 -9 25 -9 14 0 25 5 25 12 0 6 7 19 15 28 14 15 8 22 -69 74 -83 56 -84
57 -90 107 -5 33 -3 56 4 65 9 10 6 15 -17 20 -46 12 -83 45 -83 74 0 14 -9
33 -20 43 -29 25 -25 47 11 54 20 4 26 8 18 14 -10 6 -10 11 1 24 12 15 12 19
-3 30 -9 7 -17 17 -17 23 0 6 -13 27 -30 45 -16 19 -30 40 -30 45 0 17 -35 32
-72 32 -26 0 -39 7 -56 30 -19 25 -20 30 -6 30 11 0 14 5 10 16 -3 9 -6 18 -6
20 0 2 -5 4 -11 4 -7 0 -17 7 -23 16 -6 8 -18 16 -26 17 -8 2 -27 15 -41 29
-19 19 -33 25 -50 21 -18 -5 -21 -3 -16 11 5 13 2 15 -18 10 -15 -4 -25 -2
-26 5 -1 6 -2 17 -3 24 -1 17 -40 21 -67 7 -17 -10 -23 -9 -30 1 -6 10 -9 10
-9 2 0 -6 8 -18 18 -25 17 -13 25 -78 10 -78 -12 1 -41 11 -60 20 -11 6 -20 4
-29 -6 -7 -8 -20 -12 -31 -8 -17 5 -19 2 -17 -30 4 -46 -9 -60 -46 -46 -15 6
-42 9 -61 8 -36 -2 -63 21 -88 77 -7 17 -27 43 -44 59 -25 23 -34 27 -46 17
-11 -10 -17 -8 -29 10 -9 11 -20 18 -26 15 -5 -4 -24 11 -41 33 -36 44 -70 57
-99 39 -15 -9 -23 -9 -35 1 -8 7 -19 10 -24 7 -13 -8 -75 19 -92 40 -12 14
-12 18 3 29 9 7 17 17 17 24 0 6 7 14 15 17 8 4 15 13 15 21 0 8 5 11 10 8 20
-13 39 15 33 47 -5 23 -3 29 6 24 7 -5 10 -14 7 -21 -3 -8 2 -19 10 -25 11
-10 18 -10 30 1 14 11 18 11 28 -4 13 -16 13 -9 7 71 -1 7 -5 11 -10 8 -15
-10 -91 89 -91 118 0 14 5 26 11 26 7 0 9 12 5 34 -7 38 -55 96 -79 96 -15 0
-46 30 -31 30 5 1 -2 10 -15 20 -13 11 -19 20 -14 20 5 0 10 13 10 30 0 16 -4
27 -7 25 -8 -5 -84 47 -95 65 -4 6 -18 15 -31 20 -23 9 -34 30 -15 30 6 0 3
16 -5 35 -13 32 -13 36 5 51 11 10 17 23 14 30 -3 7 7 25 21 39 31 31 32 39 5
66 -13 13 -18 27 -14 39 3 11 1 29 -5 41 -9 17 -9 23 1 29 21 13 13 105 -11
146 -12 19 -19 41 -16 49 3 10 -3 17 -19 21 -14 3 -25 10 -25 14 0 16 30 38
64 50 33 10 34 13 25 43 -5 17 -9 45 -9 60 0 16 -9 40 -20 54 -11 14 -20 35
-20 47 0 12 -10 37 -23 56 -13 19 -24 48 -25 65 -1 16 -14 41 -27 55 -42 41
-90 102 -90 114 0 6 -7 25 -16 41 -9 17 -17 45 -17 64 0 20 -8 38 -19 46 -57
40 -66 52 -67 90 -2 45 -12 51 -43 27z m137 -2212 c0 -5 -2 -10 -4 -10 -3 0
-8 5 -11 10 -3 6 -1 10 4 10 6 0 11 -4 11 -10z m6 -221 c3 -5 0 -9 -6 -9 -6 0
-22 -12 -35 -26 -19 -21 -22 -30 -14 -45 6 -13 6 -19 -1 -19 -5 0 -10 7 -10
15 0 7 -8 19 -17 24 -17 10 -17 10 0 11 22 0 23 37 2 67 l-15 22 45 -15 c25
-9 47 -20 51 -25z m34 -74 c0 -8 -7 -15 -15 -15 -16 0 -20 12 -8 23 11 12 23
8 23 -8z m1470 -625 c0 -5 -5 -10 -11 -10 -5 0 -7 5 -4 10 3 6 8 10 11 10 2 0
4 -4 4 -10z m-570 -510 c0 -5 -5 -10 -11 -10 -5 0 -7 5 -4 10 3 6 8 10 11 10
2 0 4 -4 4 -10z m20 -30 c0 -5 -2 -10 -4 -10 -3 0 -8 5 -11 10 -3 6 -1 10 4
10 6 0 11 -4 11 -10z m-2257 -842 c4 -10 8 -10 15 1 6 8 15 10 22 6 10 -6 9
-11 -5 -21 -13 -10 -16 -21 -12 -43 6 -27 4 -29 -20 -27 -16 2 -30 11 -34 25
-9 23 0 28 18 10 9 -9 10 -6 6 10 -3 12 -9 24 -14 27 -5 3 -9 9 -9 15 0 14 28
11 33 -3z m-10 -175 c20 -23 34 -133 17 -133 -7 0 -10 -7 -6 -17 4 -11 -4 -7
-19 10 -14 15 -25 38 -25 50 0 13 -9 26 -22 32 -29 13 -35 35 -9 35 14 0 21 6
21 20 0 25 22 26 43 3z m-749 -438 c3 -8 1 -15 -3 -15 -5 0 -11 7 -15 15 -3 8
-1 15 3 15 5 0 11 -7 15 -15z"/>
<path d="M8351 10462 c-10 -19 -9 -22 9 -22 11 0 23 0 27 -1 4 0 9 4 11 10 2
6 -3 11 -11 11 -9 0 -17 6 -19 12 -3 8 -9 4 -17 -10z"/>
<path d="M8410 10358 c0 -10 51 -31 58 -24 3 3 -1 12 -7 20 -13 15 -51 18 -51
4z"/>
<path d="M8510 10320 c0 -7 -7 -9 -17 -6 -15 6 -15 4 2 -14 10 -11 28 -20 40
-20 11 0 26 -5 33 -12 7 -7 12 -8 12 -2 0 11 -34 45 -57 58 -7 4 -13 2 -13 -4z"/>
<path d="M10319 6212 c6 -12 17 -25 24 -29 7 -4 18 -19 24 -33 l12 -25 0 25
c1 17 -10 34 -35 54 -30 23 -34 25 -25 8z"/>
<path d="M10351 6096 c2 -19 -2 -41 -9 -48 -6 -6 -12 -16 -12 -21 0 -12 42
-46 58 -47 15 0 16 22 1 37 -7 7 -7 13 -1 17 7 4 6 16 -4 34 -7 15 -14 32 -14
39 0 6 -5 15 -11 19 -7 4 -10 -6 -8 -30z"/>
</g>
</svg>
