<svg version="1" xmlns="http://www.w3.org/2000/svg" width="726.522" height="482.631" viewBox="0 0 544.892 361.973"><g fill="#222"><path d="M311.227 1c0 .5.5 1 1.1 1 .5 0 .7-.5.4-1-.3-.6-.8-1-1.1-1-.2 0-.4.4-.4 1zM303.427 4.1c.2.8 1.4 1.5 2.6 1.7 1.7.3 2.2 1 2.2 3.3 0 2.2.5 2.9 1.9 2.9 1.1 0 2.6.3 3.5.6 2.6 1 3-2.3.6-5.3-1.1-1.5-2.6-2.8-3.3-2.9-.7-.1-2.7-.6-4.6-1-2.7-.6-3.3-.4-2.9.7zM304.027 12.1c-.1 1.3-.3 3.3-.4 4.4-.1 1.1-.2 2.5-.3 3.1-.1.6-1.2 2.3-2.7 3.9-1.4 1.5-2.4 2.9-2.2 3.1.2.2 2.1-.4 4.1-1.4l3.7-1.6-.4-6.4c-.4-6.5-1.5-9.4-1.8-5.1zM323.627 17.7c-.5 1.7-.3 2.8.4 3.1 1.7.5 1.5 2.2-.3 2.2-.8 0-1.5-.7-1.5-1.5 0-.9-1.4-2.2-3.2-2.9-3.6-1.5-6.4-.5-7.4 2.7-.3 1-1.2 1.6-1.9 1.3-1.8-.6-4.5 2.5-4.5 5.2 0 2-1.5 2.8-4.4 2.3-.5-.1-.6.5-.3 1.4.4.8 0 2-.7 2.7-1.3 1.3-1 4.4.6 6.4.5.8.2 1.3-1.1 1.7-1.6.4-1.9 1.3-1.7 5.5.1 2.8-.1 4.9-.4 4.7-1-.6-4.7 6.5-5.5 10.5-.4 1.9-1.7 4.3-2.8 5.2-1.8 1.4-1.9 1.8-.6 1.8 1.1 0 1.7.8 1.7 2.2 0 1.3.2 4 .4 6 .3 2.2 0 3.5-.5 3.1-.6-.4-.8.3-.5 1.5.5 1.8.2 2.2-1.5 2.2-4 0-6.6 1.2-7.2 3.1-.4 1-1.5 1.9-2.5 1.9-1.7 0-1.8.3-.8 2.4.9 2 .7 2.8-.6 4.2-.9.9-2 1.4-2.3 1-.4-.3-1.5.2-2.6 1.1-1.5 1.3-2.1 1.5-2.4.5-.7-1.9-2.3-1.4-2.3.8 0 2.5 2.5 7.7 4 8.2.6.2 1 1.2 1 2.3-.1 1.1-.1 5.3-.1 9.3.1 6-.3 7.6-1.9 9.2-1.9 1.9-2 2.3-.6 7.5 1.3 5 1.3 5.6-.2 6.4-2.8 1.6.1 3.7 3.1 2.4 2.1-1 2.9-.5 7.7 4.4 3.9 3.9 5.5 6.4 5.9 9.1.5 2.8 1.1 3.8 2.9 4 1.2.2 2.2 1 2.2 1.8s.7 2.9 1.6 4.5c1.4 2.8 1.4 3.2-.2 5-.9 1.1-2.4 1.8-3.2 1.7-1.1-.2-1.8.9-2.4 3.7-1.6 8.2-1.8 8.5-3.9 8.5-1.6 0-2 .5-1.6 2 .4 1.5 0 2-1.3 2-1.1 0-2.2.5-2.5 1-.4.6-1.2.7-2.2.1-2.3-1.2-4.7 1.3-3.9 4.2.4 1.6-.3 2.9-2.5 4.9-1.7 1.6-2.5 2.8-1.9 2.8.6 0 2.1-1.1 3.4-2.5 1.3-1.4 3.4-2.5 4.8-2.5 1.3 0 2.9-.5 3.5-1.1.8-.8 2-.6 4.3.6 3.6 1.8 10.1 1.3 9.7-.8-.1-.7.7-1.1 2.2-.9 2.9.4 7.3-3.5 6.6-5.9-.5-1.4.3-1.8 4.7-2.1 3.3-.3 6.4.1 8.2 1 2.1 1 4.9 1.2 11.5.7 9.6-.8 11.7-1.6 12.6-4.5.4-1.4 1.5-2 3.5-2 1.6 0 3.2-.5 3.5-1 1-1.6 8.2-.6 10.4 1.4 1.6 1.4 2.6 1.6 4.8.8 1.8-.6 2.7-1.5 2.5-2.5-.2-1.4.3-1.6 3-1 1.8.3 4.1 1.2 5 2.1 1 .8 2.4 1.2 3.2.9.8-.3 2.2.3 3.1 1.3 1 1.1 2.2 1.7 2.7 1.4.5-.3 1.6 0 2.4.7 1.2 1 1.3.9.8-.5-.3-.9-.1-1.6.4-1.6.6 0 1.4-.9 1.7-2 .4-1.3 1.5-2 3.2-2 2.3 0 2.5-.3 2-3-.5-2.2-.3-3 .8-3 .9 0 1.2-.6.9-1.5-.4-1 0-1.5 1.5-1.5 1.2 0 2.1-.4 2.1-.9s1.5-1.1 3.2-1.5c1.8-.4 5.8-2.4 8.8-4.5 4-2.8 6-3.6 7.5-3.1 1.1.4 2.7.5 3.5.2 2.3-.8 6.1-5.2 5.5-6.3-.4-.5.4-.9 1.6-.9 1.7 0 2-.5 1.7-2.4-.3-1.7 0-2.6 1.1-2.9 2.5-.6 6.1 1 6.1 2.8 0 .8.4 1.5 1 1.5.5 0 .7-.7.4-1.5-.4-.9 0-1.5 1-1.5.9 0 1.6-.8 1.6-2 0-1 .9-2.4 2-3 3-1.6 3.6-7.2 1.3-11.9-2.2-4.4-1.5-7.1 1.7-7.1 1.1 0 2-.6 2-1.4 0-.8.8-2.2 1.7-3.2 1.6-1.6 1.6-1.8-.6-3.5-1.3-1-2.7-1.6-3.2-1.3-.5.3-.9-.2-.9-1.1 0-.9-.9-2.6-2.1-3.8-1.7-1.9-1.8-2.3-.5-2.5 2.2-.5 2-3.2-.1-3.2s-8.1-7-6.1-7c.8-.1.6-.6-.6-1.5-1-.7-1.9-2.5-2-3.9 0-1.4-.7-2.6-1.3-2.6-.7 0-1.9-1.3-2.7-2.8-.8-1.6-2.2-3.4-3.1-4.2-1.2-1-1.3-1.5-.4-2.1 1-.6 1-1.7-.1-5.1-.8-2.4-1.4-4.9-1.3-5.7.3-3-2.6-5.4-6.9-5.8-2.3-.3-4.8-.9-5.5-1.5-.7-.5-2.1-.7-3.2-.3-1.2.3-3.2-.1-4.8-1.1-7.4-4.6-9.3-6-9.3-7.2 0-.6-.5-1.2-1.1-1.2-.6 0-.8-.8-.4-1.9.4-1.4-.2-2.1-2.7-3.1-1.8-.7-4.7-1.9-6.5-2.6-1.7-.8-4.7-1.4-6.7-1.4-3 0-3.7-.4-4.2-2.5-.3-1.4-1-2.5-1.4-2.5-1.3 0-2.8-5.6-3.1-11.3 0-.9-.4-1.7-.9-1.7-1.2 0-2.3 3.7-1.4 5.1.4.8.1.8-1.2.1-1.1-.5-2.4-.7-3.1-.5-.6.2-1.4-.1-1.8-.6-.4-.8-1.2-.8-2.6 0-1.5.7-2.4.7-3.5-.1-.7-.7-2.1-.9-3-.6-.9.3-3.7-.4-6.2-1.7-2.6-1.3-5.3-2.2-6-1.9-.6.2-1.2-.1-1.2-.7s-.9-1.1-1.9-1.1c-1.1 0-2.3-.5-2.6-1-.4-.6-1-.8-1.5-.5-1.2.8-6.1-8.1-5.4-9.9.3-.9.3-1.6 0-1.6s-.9 1.2-1.2 2.7zM538.627 20.5c-.3 1.4-1.4 3.1-2.4 3.8-1.3.9-1.6 1.8-1 2.7.5.8 1.2 1.1 1.6.7.5-.4 1.4.3 2.1 1.5l1.3 2.3.6-2.3c.4-1.4 1.2-2.1 2-1.8 2.1.8 2.9-1.6 1-3-1.1-.7-1.5-1.8-1-2.5.5-.8.2-1.1-.8-.6-1.2.4-1.4.1-1.1-1.4.3-1 0-1.9-.6-1.9s-1.3 1.1-1.7 2.5zM517.827 23.5c-2 1.9-3.2 2.3-3.9 1.6-.6-.6-1.5-1.1-2.1-1.1-.5 0-.6.3-.3.7.4.3 0 1.4-.9 2.4-1.5 1.6-1.5 2-.1 3.4.9.8 2 1.5 2.6 1.5 1.6 0 4.2 4.5 3.6 6.2-.7 1.6 2 3.2 3.6 2.2.6-.3 1.6-.1 2.4.6 1.1.9 1.6.7 2.5-.9.6-1.2 1.9-2.1 2.9-2.1 1.8 0 5.1-3 5.1-4.6-.1-1.4-3.7-5.4-5-5.4-.6 0-2.6-1.6-4.4-3.5l-3.2-3.6-2.8 2.6zM294.227 27.2c0 1 .9 2.2 2.1 2.8 2.9 1.6 3 .9.3-2-1.9-2-2.4-2.1-2.4-.8zM535.527 29.7c-1.8.6-1.6 2.3.1 2.3 1.7 0 3-1.6 1.9-2.3-.5-.2-1.4-.2-2 0zM521.527 44.1c-.7.7-2.9 1.5-5 1.8-3.2.5-3.9 1.1-4.3 3.5-.4 2.1-1.9 3.8-5.1 6-3.8 2.5-4.8 3.8-5.3 6.9-.5 2.8-1.1 3.7-2 3.4-1.1-.4-1.6.9-2.1 5.4-.5 4-1.1 5.9-2.1 5.9-.7 0-1.8.9-2.4 1.9-.5 1.1-1.9 2.3-3 2.6-1.5.5-1.9 1.2-1.4 3.1.5 1.8.2 2.4-1 2.4-1.7 0-7.3 5.7-7.5 7.5-.1 1.5 4.7 2.5 5.3 1.2.3-.8 1.2-.3 2.2 1 .9 1.3 2.2 2.3 2.9 2.3.7 0 1.6.7 1.9 1.6.8 2.1.8 3.4-.1 3.3-3-.5-3.5.3-1.4 1.7 2.2 1.6 2.4 1.6 3.3 0 .7-1.3 1.3-1.4 2.3-.6 1.1.9 1.7.7 2.7-.9.9-1.5 1.6-1.7 2.5-.9 2.2 1.8 4.4.2 3.7-2.8-.4-1.7-.3-2.5.3-2.1.6.4 1.6-.4 2.3-1.7 1-2 .9-2.8-.5-5-1-1.4-1.3-2.6-.7-2.6.8 0 3.5-5.9 5.6-12.3.5-1.7.8-1.6 3.5.4 2.4 1.7 3.2 1.9 5 .9 1.2-.6 1.9-1.5 1.6-2.1-.4-.5.3-.9 1.4-.9 1.2 0 2 .3 1.9.7-.2.5.2.9.7 1 1.4.2.7-2.8-1.1-4.8-2.1-2.4-1.8-5.9.6-5.9 1.8 0 1.9-.5 1.3-4.7-.5-3.8-.4-4.5.8-3.8 1.2.8 1.2.6 0-.8-.7-.9-2.5-1.7-3.9-1.7h-2.5l2.2-2.4c1.5-1.6 2-2.9 1.5-3.8-.5-.7-.9-1.8-1-2.3 0-.6-.2-1.6-.2-2.3-.2-1.5-1.4-1.6-2.9-.1zM529.227 76c0 .5.5 1 1.1 1 .5 0 .7-.5.4-1-.3-.6-.8-1-1.1-1-.2 0-.4.4-.4 1zM475.027 94.7c.7.3 1.6.2 1.9-.1.4-.3-.2-.6-1.3-.5-1.1 0-1.4.3-.6.6zM469.227 98.6c-.7.8-2.1 1.4-3.1 1.4-2 0-6.9 4.1-6.9 5.9 0 .6-1.3 1.1-2.9 1.1-1.7 0-3.3.5-3.6 1-.4.6-1.1.8-1.6.4-.5-.3-2.3-.3-3.9.1-2.9.6-2.9.7-1.4 3.1.9 1.3 1.3 2.4 1 2.4-1.3 0 2.9 3.8 4.9 4.4 3.5 1 4 .3 3.7-5-.4-5-.3-5.1 2.8-5.7 1.7-.4 2.9-1.1 2.5-1.7-.3-.5.2-1 1.3-1 1 0 2.8-.9 4-2.1 1.2-1.1 2.7-1.7 3.3-1.4 1 .7 3.9-1.2 3.9-2.5 0-1.5-2.9-1.8-4-.4zM450.427 123.1c.2.6.8 1 1.3 1s1.1-.4 1.3-1c.2-.6-.4-1.1-1.3-1.1s-1.5.5-1.3 1.1zM64.827 136.9c-1.1 1.2-1.7 2.3-1.5 2.5.8.8 4.1-2.3 3.7-3.4-.2-.7-1.1-.3-2.2.9zM220.127 139.9c-.8.2-1.9 1.1-2.5 1.9-.6.8-1.6 1.2-2.2.8-.5-.3-2.4 1.2-4.2 3.4l-3.1 4 2.3 1c1.8.9 2.4 1.9 2.3 4.3 0 3.2-.1 3.2-5 3.2-3.7 0-5 .4-5 1.5-.2 2.8 1.8 6 4 6.6 1.2.3 2.9 1.8 3.8 3.4 1.7 2.7 1.6 2.9-.3 3.5-1.1.3-2.5.3-3.1 0-.7-.5-1 .3-.7 2.4.2 2-.3 3.5-1.2 4.1-.8.5-1.1 1.2-.7 1.6.4.4-.5 2-2 3.6-2 2-3.2 2.6-5 2.2-1.6-.4-3.1 0-4.3 1.1-1.8 1.6-2 1.6-2 .2 0-.9-1-2.5-2.2-3.7-1.9-1.8-2.3-1.8-3.8-.5-.9.8-3 1.5-4.7 1.5-2.7 0-3.2.4-3.8 3.6-.5 3-1.3 3.9-4.6 5.3-2.1.9-3.9 2.2-3.9 2.8 0 .7-.5 1.3-1.1 1.3-1.4 0-5.9-4.7-5.9-6.1 0-.5-2.4-.9-5.2-.8-2.9 0-6 0-6.8-.1-.8 0-3.3.1-5.5.2-2.9.3-5-.3-7.7-2.1-2.1-1.3-3.8-3-3.8-3.6 0-.6-1.1-1.8-2.5-2.5s-2.5-2.1-2.5-3.1c0-2-2-3-4.7-2.3-2.3.6-14.3-6.4-14.3-8.3 0-.8-.4-1.2-.9-.8-.6.3-1.4-.2-1.9-1.1-1.1-2-10.1-2.2-11.3-.2-.7 1-1.4.7-3.1-1.3-1.3-1.5-3.1-2.9-4.1-3.3-1-.3-1.6-1-1.3-1.5.4-.5.4-1.5.1-2.3-.4-1-3.2-1.4-12-1.4-8.4 0-11.8-.3-12.7-1.3-1.1-1.1-1-1.2.2-.6s1.3.5.3-.6c-1.8-1.9-1.6-2.9.6-2.9 2.8 0 5.2-1.1 4.5-2.1-.3-.5-.1-.9.5-.9.5 0-.2-1.2-1.7-2.8-2.8-2.8-4.2-2.4-4.2 1.5 0 3.2-2.9 6.2-6.7 6.9-1.8.3-3.3 1-3.3 1.5 0 2-2.8.7-4-1.9-.7-1.5-1.4-2.3-1.6-1.7-.2.5-2.4 1-4.9.9-4.7-.1-5.7 1-2.7 3.2 1.4 1.1 1.4 1.3.2 1.4-2.3 0-7.1 9.1-5.9 11.3 1.4 2.4.2 3.8-2.6 3.1-1.2-.3-2.6-.1-3 .5-.9 1.5-2.5.4-2.5-1.6 0-2.3-2.9-5.3-4.6-4.6-.8.3-1.4-.1-1.4-1.1 0-.9-.7-1.6-1.6-1.6-1.1 0-1.5-.6-1.1-2 .6-2.2 0-2.5-2.2-1.1-.8.5-1.1 1.6-.8 2.6.5 1.2-.1 1.9-2.4 2.7-1.8.6-2.8 1.6-2.5 2.3.3.8-.9 1.5-3.6 1.9l-4 .7 2.6 2.4c1.4 1.3 2.6 3.1 2.6 4 0 .9 1.4 2.1 3 2.7 1.7.5 3.5 1.8 4 2.8.6 1 3 2.9 5.5 4.1 2.5 1.2 4.5 2.6 4.5 3.1 0 .4.4.8.9.8.4 0 .6-1.1.3-2.5-.6-3.2 1.4-3.3 4.8-.2 3.1 2.8 3.8 10.7.9 10.7-1.2 0-1.6.6-1.2 1.9.3 1.4-.3 2.3-2.3 3.3-2.7 1.2-2.8 1.6-3 9.3-.1 5.6.3 8.6 1.3 10.2.8 1.2 1.2 2.7.8 3.3-1.2 1.9.6 4.8 3.5 5.9 3.3 1.1 4 3.1 1.2 3.1-2.5 0-7.5 5.3-6.2 6.6.5.5 1.2 2.5 1.4 4.2.2 1.8.5 3.4.7 3.5.2.2 1.6 1 3 1.9 3 1.9 4.6 7.8 2.1 7.8-1 0-.8.8.8 3.5 1.2 2 2.1 4.9 2 6.7-.3 5-.1 5.8 1.3 5.8.8 0 1.9 1.2 2.6 2.7 1.5 3.2 2.4 4.7 5.1 8.8 2.5 3.6 1.9 7.1-1.6 10.2-2 1.9-2.3 2.6-1.4 4.2.5 1.1 1 2.8 1 3.7 0 1 .8 2.7 1.9 3.8 1 1.2 2.2 3.8 2.5 5.8.6 3.1.4 3.8-.9 3.8-1.5 0-1.5.2-.1 2.2.9 1.2 1.6 3 1.6 3.8 0 2.7 2 4 4.1 2.7 1.4-.9 2.6-.8 5.1.2 1.8.8 4.3 1.4 5.6 1.5 2.6.1 2.7.4.8 2.5-1.3 1.5-1.1 1.9 2.2 4.1 2 1.4 4.3 3.3 5 4.2.7 1 1.8 1.8 2.4 1.8.5 0 1.9 1.1 2.9 2.5 1.2 1.4 2.6 2.2 3.4 1.8.9-.3 1.5.1 1.5.8 0 .8 1.4 2 3.1 2.8 1.9.8 3.6 2.6 4.3 4.2.7 2.1 1.7 2.9 3.4 2.9 1.3 0 2.1.4 1.7.9-.9 1.5 3.4 2.4 5.1 1 1.1-.9 1.8-.8 3.2.5 2.6 2.3 4.5 2.1 3.7-.4-.5-1.5-.3-1.8.9-1.4.9.3 1.6.1 1.6-.5 0-.7 1.4-1.7 3-2.2 1.8-.7 3-1.8 3-2.9 0-1 .7-2.3 1.5-3 2.2-1.8 1.8-4-1-7-2.2-2.3-2.4-3.1-1.5-5.4.5-1.5 1.5-2.4 2-2.1 1.6 1 5.8-2.1 7.6-5.7.9-1.7 3.2-4.7 5-6.6 2.4-2.4 3.1-3.9 2.4-4.6-.5-.5-1-1.5-1-2.1 0-1.4 4.3-3.5 6.9-3.5 1 0 2.1-.9 2.4-2 .3-1.2 1.4-2 2.5-2 1.2 0 2.4-.5 2.7-1 .5-.8 1.1-.7 2 0 .8.7 1.8.9 2.3.6.6-.3 1.7.5 2.6 1.9 2.4 3.6 3.8 3.2 3.1-.9-.5-2.7-.2-4.1 1.6-6.5 1.2-1.7 2.9-3.1 3.6-3.1 1.7 0 1.6-3.2-.4-10.3-1.3-4.8-1.4-6.6-.5-9 .7-1.9.8-3.5.2-4.2-1.5-1.8 0-5.7 2.1-5.2 1.3.4 1.6.1 1.1-1.2-.5-1.4-.3-1.4 1-.3 1.5 1.2 1.6.7 1.2-4.7l-.5-6.1h3.1c1.8 0 3.3-.6 3.6-1.5.4-.8 1.3-1.5 2.1-1.5s1.1-.5.8-1c-.9-1.5.4-5 2-5 .7 0 2.1-.7 2.9-1.6.9-.8 2-1.3 2.6-.9.5.3 2.2-.6 3.7-2 2-1.8 3.5-2.4 5.2-2 1.5.4 3 0 4.3-1.2 1.4-1.2 3.9-1.9 7.7-2 3.1-.1 6.1-.2 6.7-.3.7 0 1.5-1.2 1.8-2.6.5-1.8 1.2-2.4 2.4-2 5.9 1.8 7.2 1.8 7.2.2 0-1.8 1.5-2.2 2.5-.6 1 1.7 7.5 1.2 7.5-.5 0-.9-.9-1.5-2.5-1.5-1.4 0-4.1-.6-6-1.4-3.1-1.3-3.5-1.3-4 .3-.3 1.2-1.6 1.8-3.7 1.9-4 .1-5.2-.6-3.8-2.3.9-1.1.6-1.7-1.4-3-2.6-1.7-3.7-4-4.2-8.5-.2-1.4-.6-4.2-1-6.2-.6-3.4-.4-3.6 1.5-3.1 1.2.3 2.7 0 3.5-.6.9-.7 1.7-.8 2-.2.7 1.1 4.6.2 4.6-1.1 0-.6.7-.7 1.6-.4 2.5 1 4.4-1.2 4.4-5 0-1.9.4-3.4.9-3.4.6 0 1-.8 1-1.8 0-2.9 1.6-8.7 2.4-8.5 1.8.7 1.9.1.2-1.7-1.8-1.9-1.7-2 1.3-2.6 3.2-.6 3.1-.5 4.8-10.9.3-2.2 1.1-4.5 1.6-5.2.6-.7.6-2.6.2-4.5-.5-1.8-.9-3.8-.9-4.3-.2-2-3-10.5-3.5-10.5-.8 0-.7-5.4.1-6 1.2-.8-3.7-4.6-5.2-4.1zM60.227 159c0 .5-.2 1-.4 1-.3 0-.8-.5-1.1-1-.3-.6-.1-1 .4-1 .6 0 1.1.4 1.1 1z"/><path d="M25.727 166c.3.5 1.3 1 2.1 1s1.2-.5.9-1c-.3-.6-1.3-1-2.1-1s-1.2.4-.9 1zM257.927 209.7c-1.4 1.6-3.2 3.4-3.9 4.1-.7.7-3 3-5.1 5.2-4.3 4.4-4.3 4.4-7.5 2.7-1.2-.7-3.8-1.1-5.7-.9-3.1.4-3.5.7-3.5 3.4 0 3.2-2.3 8.4-4.1 9-.7.2-.1 1.9 1.5 4.3 2.3 3.3 3.3 4 6.4 4.1 2.4.1 4.4-.5 5.8-1.8 1.7-1.5 2.3-1.6 3.1-.6 1.4 1.9 2.4 5 1.4 4.4-1.6-1-7.3.6-6.2 1.7.5.5.7 1.6.4 2.3-.3.8.1 1.4 1.1 1.4.9 0 1.6-.5 1.6-1.2 0-1.7 1.7.3 2.3 2.7.4 1.5.5 1.3.6-.8.1-1.7.7-2.7 1.7-2.7.8 0 2.2-.6 3-1.4 1.2-1.3 1.1-1.5-.6-2.1-1.1-.4-1.8-1.1-1.4-1.6.3-.5.9-.7 1.4-.4.4.3 1.1-.6 1.4-2 .4-1.4 1-2.5 1.5-2.5s.8-1.1.6-2.5c-.2-1.9.2-2.5 1.6-2.5 2.5 0 3.9-3 3.9-8.5 0-4 .3-4.7 2.5-5.5 2.2-.8 2.4-1.3 1.5-3.1-.8-1.4-.8-2.4-.1-3.3 1.3-1.6.4-4.6-1.3-4.6-.7 0-2.4 1.2-3.9 2.7zM268.827 236.7c-.9.9-3.1 1.4-8.8 2-3.8.4-4.8.9-4.8 2.3 0 2.2 6.1 5.1 6.8 3.2.2-.7 1-1.8 1.7-2.6.8-.7 1.1-1.6.8-2-.4-.3.1-.6.9-.6.9 0 2.1.7 2.8 1.5.7.8 1.7 1.5 2.2 1.5.6 0 .5-.7-.2-1.5-1-1.2-1-1.5.3-1.5.8 0 1.7-.7 2.1-1.5.6-1.5-2.4-2.2-3.8-.8zM259.227 247c-.8.5-1.8.6-2.2.4-1-.6-3.4 1.7-3.4 3.1 0 .5-1.3 1.3-3 1.6-1.6.4-2.3.7-1.6.8.7 0 1.7 1.3 2.2 2.7.6 1.4 1.6 2.4 2.3 2.1.6-.2 2.1-.1 3.1.3 2.6.9 6.6-2.6 6.6-5.7 0-1.7.4-2.2 1.3-1.7.6.4.5.1-.3-.7-.8-.8-2-1.9-2.6-2.6-.6-.7-1.6-.8-2.4-.3zM232.227 249c0 .5.7 1 1.6 1 .8 0 1.2-.5.9-1-.3-.6-1-1-1.6-1-.5 0-.9.4-.9 1z"/></g></svg>