<svg version="1" xmlns="http://www.w3.org/2000/svg" width="1042.587" height="660.043" viewBox="0 0 781.94 495.032"><g fill="#222"><path d="M679.313 3.932c-1 4-1.4 4.4-3.4 3.8-6.3-2.2-11 .3-8.7 4.5.5 1.1 1 2.9 1 4 0 1.2.5 2.1 1 2.1.6 0 1-.4 1-.9s2.4-2.1 5.4-3.5c2.9-1.4 5.6-3.3 6-4.1.4-1.1 1.3-1.4 2.6-1 1.2.4 2 .2 2-.5 0-.6.4-.9.9-.5.5.3.2-1.2-.7-3.4-.9-2.2-1.9-3.8-2.1-3.6-.2.3-1.2 0-2.1-.5-1.5-.8-1.9-.3-2.9 3.6zM694.713 4.432c-.4 1.1-2.2 2.7-4 3.6-6.4 3-4.7 5.6 3.7 5.6 2.1 0 3.7.2 3.4.4-.2.2.7 1.5 2 2.8 2.8 2.8 3 3.8.8 5.9-.8.9-1.4 1.6-1.2 1.7 4.3 1 6-.9 3.9-4.3-1.1-1.7-.9-2.4.8-4.2 1.9-2 2-2.6.9-5.2-.7-1.6-2-3-2.8-3.2-.8-.2-2.3-1.4-3.3-2.8-2.3-2.9-3.4-3-4.2-.3zM638.213 14.632c0 .8-.7 1.8-1.5 2.1-1.1.4-1.5 1.7-1.3 4.2.2 3.2-.3 4.1-3.7 7-2.2 1.9-4.6 3.4-5.4 3.4-.7 0-3.1 1-5.2 2.2-3.2 1.8-4.3 1.9-6.3 1-1.9-.8-2.5-.8-3 .3-.3.8-2.3 1.9-4.5 2.6-2.2.7-3.8 1.6-3.5 2 .2.4-.5 1.3-1.6 1.9-2.4 1.3-2.6 3.3-.5 5 1.2 1 1.3 1.6.4 2.6-.9 1.1-.8 1.4.2 1.4.9.1.7.6-.6 1.6-1.2.9-3.2 1.4-5 1.1-1.7-.2-3.5.2-4.4 1.1-1.3 1.3-1.2 1.7.8 3.3 2.8 2.2 7.7 2.5 8.8.5.7-1.3 1.2-1.2 3.3.4 2.2 1.7 2.3 2.2 1.3 3.9-.7 1.2-1.3 3.3-1.3 4.9 0 1.5.6 3.4 1.3 4.1 1 1 .7 1.1-1.4.6-1.6-.4-3-.2-3.4.4-.4.8-1.2.8-2.7 0-1.9-1-2.5-.8-4.3 1.5-1.3 1.7-3.1 2.6-4.8 2.6-1.9 0-2.6.4-2.1 1.2.5.8.2.9-.9.5-1.4-.5-1.6-.2-1.1 1.8.4 1.7.2 2.5-.6 2.5-.9 0-.8.6.4 1.9 1.8 2 1.2 5.1-1 5.1-1 0-1.1.6-.5 2.2.6 1.6.4 2.6-.7 3.4-.9.6-1.5 2.5-1.4 4.4 0 2.2-.8 4.4-2.4 6.3-1.8 2.2-2.4 3.7-1.9 5.5.5 2.1.3 2.3-1.2 1.7-4.4-1.7-4.9-1.4-4.5 2.2.4 3.5.4 3.5-2.8 2.8-2.9-.6-3.1-.5-2.5 1.4.8 2.5-1.9 3-2.9.6-.3-.8-1.2-1.5-2-1.5-.9 0-2-.9-2.6-2-1-1.8-.8-2 2-2 2.4 0 3.3-.6 4.1-2.7.6-1.5.8-3.6.5-4.7-.3-1.1.1-2.8 1-3.7 1.3-1.4 1.3-1.8-.1-2.9-2.3-1.9-1.8-2.7 1.6-2.2 3.5.5 4.9-.8 4.9-5 0-1.4.6-2.8 1.3-3.1.9-.3.9-.9-.1-2.7-1.2-2-1.2-2.2.1-1.7.9.3 1.7-.2 2-1.4.3-1 1.2-1.9 2-1.9s1.8-1.1 2.1-2.4c.3-1.4 1.6-2.6 3-3 1.9-.5 2.5-1.4 3.1-5.3.4-3 .3-4.9-.4-5.1-.6-.2-.8-1.6-.4-3.3.6-3.1-.7-3.8-2.6-1.5-.7.8-2.7 1.4-4.4 1.4-3.4-.1-7.2-1.6-6.3-2.5.3-.3.1-1.4-.4-2.4-.7-1.2-.6-2.6.1-4.3 1-2.1.9-3-.6-5.2-1.3-2-1.9-2.3-2.5-1.4-1.4 2.2-4 2.1-4-.2 0-1.5-.6-1.9-2.7-1.6-1.8.2-2.7-.2-2.6-.9.2-.7-.8-1.5-2.1-1.9-2.5-.6-5.3-5.5-4.2-7.2.3-.5-.3-1.7-1.4-2.7-1.1-1-2-1.5-2-1 0 .4-.7.2-1.5-.5-1.2-1-1.8-1-2.9 0-2.7 2.1-6 .8-7.2-2.9-1.7-5.2-6.4-7.8-6.4-3.5 0 .9-.6 2.1-1.3 2.9-.8.8-1.3 3.4-1.3 6.4.1 4.4-.1 5.1-2.2 5.6-1.2.3-2 1-1.7 1.6.4.6-.3.7-1.9.3-1.3-.3-3.1-.2-3.8.2-2.7 1.7-7 1.3-7.5-.7-.4-1.4-.9-1.7-1.8-.9-1.4 1.1-4.1.5-6.5-1.6-1.3-1.1-1.5-.9-1.7 1.4 0 1.5-1.1 3.3-2.2 4.1-2.9 1.9-2.6 5.1.9 9.7 1.6 2.1 3 4.4 3 5 0 .6.9 1.9 2 2.9s2 2.8 2 3.9c0 1.2.6 3 1.4 4.1.7 1.1 1.6 4 2 6.5 1 7.2 1.2 8.4 1.9 10 1.7 3.8-.7 18.2-3.1 19.1-.5.2-1.5 1.7-2.3 3.4-1.8 3.7-8.6 5.8-10.1 3.1-.5-.9-1.3-1.6-1.8-1.6-.8 0 .4 4.9 2.2 8.3.7 1.4.5 2.4-.7 3.7-1.4 1.6-1.6 3.2-1.5 14 .1 1.4-.3 4.7-.7 7.5-.7 4.5-1.1 5.1-4.1 6-2.9.8-3.2 1.3-2.7 3.6.4 1.9.1 2.8-.9 3.2-.9.4-1.6 1.4-1.6 2.3 0 .9-.6 1.4-1.3 1.1-.8-.3-2.1.7-3.1 2.4-1.5 2.6-1.5 2.9-.1 2.9 1.2 0 1.3.3.4 1.9-.9 1.4-.8 2.5.4 5 1.6 3.1 1.5 3.2-.9 4.3-1.5.7-2.4 2-2.4 3.4 0 1.2-.7 2.5-1.6 2.8-1 .4-1.3 1.3-1 2.4 1.3 4.1-7.8 16.5-12.4 16.8-.8.1-3.6.2-6.2.3l-4.7.1 1.4 4.1c1.1 3 1.2 4.6.4 6.1-.6 1.1-.9 2.5-.6 3.1.2.7.1 2.1-.3 3.2s-.3 3 .3 4.2c1.3 2.9-1.5 6.3-5 6.3-3 0-3.9 2.3-2.6 7.2.8 3 .8 3.8-.3 3.8-.8 0-1.4.4-1.4.8 0 .5-.9 1.9-2 3.2-1.1 1.3-2 2-2 1.5 0-.4-.9.4-2 1.8-1.3 1.6-2.7 2.3-3.8 2-1.3-.3-2.4.6-3.7 3.1-1.1 2-2.7 3.6-3.6 3.6-2.1 0-4.9 3.2-4.9 5.5 0 1 .8 2.7 1.7 3.7 1.3 1.4 1.4 2.1.5 3-.7.7-1.2 2.2-1.2 3.5 0 1.3-1 2.9-2.4 3.8-1.7 1.1-2.2 2.2-1.8 3.7.4 1.7.2 1.9-1.7 1.3-1.5-.4-2.1-.2-2.1.9 0 1-1.8 1.8-5.7 2.6-3.2.7-6.7 1.7-7.8 2.3-1.1.6-3.4 1.9-5.2 2.8-1.8.9-3 1.9-2.7 2.2.8.8-1.9 4.7-3.4 4.7-2.3 0-2.4 2.8 0 5.2 3.1 3.1 6.8 3.2 6.8.1 0-1.6.6-2.3 1.9-2.3 1.1 0 2.3-.5 2.6-1 .3-.6 1.9-1.7 3.4-2.5 2.2-1.1 3.6-1.2 6.4-.3 3.1.9 4 .9 5.5-.5 1-1 2.6-1.7 3.5-1.7 2.1 0 4.1-6.8 2.5-8.7-.8-1-.7-1.3.6-1.3 1.8 0 2.3-4.5.6-5.5-1.5-.9-.2-2.5 1.4-1.9.8.3 2.6-.6 4.2-2.1 1.5-1.4 3.8-2.8 5.1-3.1 1.3-.4 2.3-1 2.3-1.5 0-.6.7-.6 1.8-.1 2.2 1.2 12.2-1.7 12.2-3.5 0-.7 1.1-1.3 2.4-1.3 1.3 0 3.5-.9 5-2.1 3-2.4 7.5-3.2 9.4-1.7.8.7 1.2.7 1.2-.1 0-.7 1-1.1 2.3-1 1.2.1 3-.1 4-.6.9-.4 2.6-.5 3.7-.2s2 .2 2-.3c0-.4 1.3-2.4 2.9-4.4 1.6-2.1 3.1-4.2 3.3-4.8.3-.7 1.8-.7 5.1 0 2.9.6 4.7.6 4.7 0 0-.5.8-.8 1.8-.6 2.9.7 11.2-3.9 11.2-6.2 0-1.2 1-2.5 2.5-3.2 1.4-.6 2.5-1.7 2.5-2.5 0-.7.7-1.6 1.6-2 1.2-.5 1.4-1.9 1-7.8-.4-7.3-.4-7.3 2.5-8.5 2-.9 2.9-2 2.9-3.5 0-1.8.4-2.1 2.4-1.8 2.7.6 6.5-3.5 4.5-4.8-1.6-.9 0-3.2 1.7-2.5 1.8.7 1.8-.2-.1-2-1.8-1.9-2-3.5-.2-3.3 3.8.5 5.8-.2 5.5-1.9-.2-1.1.4-1.8 1.8-2 2.8-.4 4.9-6.7 4-11.7-.6-3.2-.5-3.6 1.1-3.1 1 .3 3.7.6 6.1.8 2.4.1 4.7.8 5.3 1.4.6.7 1.7 1 2.4.8.7-.3 2.3 0 3.5.6 1.5.8 2.5.8 3.4.1.9-.7 1.9-.6 3.6.6 1.3.9 2 1.1 1.6.5-.4-.7-.1-1.2.8-1.2s1.6.8 1.6 1.7c.1 2.6 4.1 5.1 8.6 5.5 3.2.2 3.9 0 4.2-1.7.7-3.3 1.6-3.6 5.9-1.5 4.1 1.9 4.7 2 8.8.4 1.1-.4 2.2-.8 2.5-.9 7.3-2.8 7.1-2.6 6.4-5.9-.5-1.7-.7-4.8-.6-6.8.2-2.5-.3-4-1.4-4.6-1.1-.6-1.3-1.1-.5-1.6.7-.5.6-1.5-.6-3.4-1.7-2.7-1.7-2.7 1.5.3 1.7 1.6 3.2 3.5 3.2 4.1 0 .6.9 1.9 2 2.9s2 2.4 2 3.1c0 .6 1.4 1.7 3 2.3 1.8.6 3 .6 3 0 0-.5.9-.9 2-.9 1.7 0 1.9.3 1.1 1.8-1.1 2 2.8 7.2 5.5 7.2 1.6 0 5.3 3.5 10.8 10.4 3.1 3.8 5.3 4.6 6.3 2.1.3-.9 1.3-1.5 2.2-1.4.9.1 2.3 0 3.1-.4 4.7-1.7 5.2-1.6 8 1.1 1.9 2 2.5 3.3 2 4.3-1.4 2.5.3 3.8 5.9 4.3 3 .3 6.2.8 7.2 1.1.9.3 2 .1 2.4-.5.3-.6 1-.8 1.5-.5.5.3 1.5-.3 2.2-1.5.7-1.1 1.7-2 2.3-2 .6 0 1.6-.9 2.3-2.1.8-1.2 1.9-1.8 2.8-1.5.8.3 1.4.2 1.4-.3 0-1.3-3.6-4.1-5.3-4.1-.9 0-1.7-.7-1.7-1.5s-1.4-2.8-3.1-4.3c-1.6-1.5-3.1-3.4-3.3-4.2-.4-2-11.8-14-13.4-14-.7 0-1.2.4-1.2.9s-1.3.8-2.9.6c-1.9-.3-3.9.3-5.5 1.6-2.5 2-6.6 1.9-6.6-.2 0-.5-.9-.9-2-.9s-2 .5-2 1c0 .7-.7.7-2.1 0-1.1-.7-1.8-1.4-1.5-1.7.3-.3-.6-1.9-1.9-3.5-2.5-2.9-3.5-6.5-1.4-5.3 1.9 1.2 4.9-2.6 4.9-6.2 0-1.8.4-3.3.9-3.3s1.6-.7 2.4-1.5c1.4-1.3 1.2-2.1-1-6.6-1.3-2.9-3.1-5.8-3.9-6.6-.8-.8-1.4-1.9-1.4-2.4s-1.6-.9-3.5-.9-3.5-.4-3.5-1c0-.5-2-3.2-4.5-6s-4.5-5.5-4.5-6c0-.4-.2-1.4-.5-2.2-.4-1 .4-1.3 3.2-1 3.7.3 3.9.1 6.1-4.7 1.2-2.8 2.2-7 2.2-9.5 0-5.2 2.1-8 5.7-7.3 1.3.2 2.6 0 2.9-.5.3-.5 1.2-.7 2-.4.9.3 1.1 0 .7-1.1-.4-1.1-.2-1.4.5-.9.7.4 1.2.1 1.2-.8s.6-1.6 1.4-1.6c.8 0 1.7-1.1 2-2.4.3-1.3 1.5-2.6 2.6-2.9 2.4-.6 2.6-3.4.4-6.5-.8-1.2-1.4-3.2-1.2-4.5.3-2-.1-2.2-3.4-2.1-3.7.1-3.8 0-3.8-3.2 0-3.3-2.8-6.2-4.5-4.6-.4.4-.1-.5.6-2 1-2.4 1-3.1-.6-4.8-1.8-2-1.7-2 1.3-2 1.8 0 3.2.4 3.2 1 0 1.9 2.9 1 3.6-1.2.6-1.9.7-1.9 1.6-.5.5 1 1.7 1.7 2.7 1.7 2.2 0 3.7 3 2.1 4-.7.4-.6 1.6.5 3.6.9 1.7 1.1 3 .5 3.2-.6.2-1 .8-1 1.3 0 1.6 1.9 1 3.7-1.1 1-1.1 2.1-2 2.5-2 1.4 0 4.8 4.4 4.4 5.7-.3.7-.1 1.5.5 1.9.6.3.3 1.1-.8 1.9-1 .7-2.1 1.1-2.5.9-.4-.2-.3.9.2 2.5.5 1.7.6 3.9.3 5.1-.4 1.6-.2 1.9 1.1 1.4.9-.3 1.6-1.7 1.6-3 0-1.4.6-2.4 1.4-2.4 2.1 0 3.2-7.1 1.3-8.5-.9-.6-1.7-2.4-1.9-4-.2-2-1.3-3.6-3.3-4.9-3.6-2.4-8.6-8-8.9-10-.1-.8-.8-2.1-1.5-3-1.1-1.3-1.1-1.9-.1-3.1 1-1.2 1-1.8-.1-3.1-.8-.9-1.2-2.7-1.1-4 .5-3.4-.6-4.8-2.5-3.2-1.3 1-1.8.9-3.2-.7-.9-1.1-2.5-1.9-3.7-1.7-1.3.2-2.4-.4-2.8-1.4-.9-2.3-.2-2.8 2.2-1.5 2.9 1.5 5.8 1.4 7.6-.4.8-.8 1.9-1.5 2.5-1.5.6 0 1.1-.9 1.1-2 0-1.2-.5-1.7-1.3-1.4-1.7.6-5.7-3.2-5.7-5.5 0-1-.9-2.6-1.9-3.5-1.1-1-2.1-2.7-2.3-3.9-.3-2.4-2.8-3.6-2.8-1.4zm-27.7 25.1c.4 1 0 1.2-1.4.9-1-.3-1.6-.9-1.3-1.4.8-1.3 2.1-1.1 2.7.5zm22 3.3c-1.1 1.5-1.9 3.2-1.7 3.8.6 1.6-4.1 3.3-6.1 2.2-1.2-.6-1.6-.6-1.1.1.4.7-.5.9-2.8.5-3.2-.5-3.4-.4-2.9 1.6.3 1.2.1 2.1-.6 2.1-.6 0-1.1.8-1.1 1.9 0 2.6-2.9 4.9-3.9 3.2-.5-.8.1-2.3 1.5-3.8s2.2-2.8 1.9-3.1c-.3-.3-1.1.3-1.8 1.2-1.2 1.6-1.7 1.7-3.8.6-4.6-2.4-5.9-4.1-4.8-6.1.5-1 2.2-2.5 3.8-3.3 2.5-1.4 2.9-1.3 4.5.5 1.3 1.6 2.4 1.9 5.4 1.3 2-.4 4.3-1.2 5.1-1.8 1.6-1.2 9.4-4.4 10-4 .2.2-.6 1.5-1.6 3.1zm4.2 20.4c1.1 1.7-.1 2.1-1.5.4-.8-.9-.8-1.5-.2-1.5.6 0 1.4.5 1.7 1.1zm-57.5 1.3c0 .3-.4.8-1 1.1-.5.3-1 .1-1-.4 0-.6.5-1.1 1-1.1.6 0 1 .2 1 .4zM652.213 21.232c0 1.4 1.8 2.3 3.1 1.5.8-.4.7-.9-.2-1.5-1.8-1.1-2.9-1.1-2.9 0zM667.213 22.832c0 .8.5 1.5 1 1.5.6 0 1-.4 1-1 0-.5.8-.7 1.8-.4 1.4.5 1.5.4.2-.5-2.1-1.5-4-1.3-4 .4zM704.413 25.332c-3.2 3-3.2 3-1.5 5.8 2.2 3.3 3.3 4.2 4.9 3.5 1.7-.6 2.4-3.9 1.1-5.2-.8-.8-.5-1.1.9-1.1 1.7 0 2-.5 1.6-3-.6-3.9-2.7-3.8-7 0zM715.013 25.832c.3 1.6 1.1 2.5 2.3 2.5 1.3 0 1.7-.5 1.2-1.8-.6-1.7-2.2-3.2-3.4-3.2-.3 0-.4 1.1-.1 2.5zM760.513 27.032c.4 3.1.2 4.3-.8 4.3-.7 0-1.5.6-1.8 1.4-.3.8.1 1.3 1.1 1.2 2.7-.2 2.7 3.8 0 5.1-5.9 2.6-8.9 3.2-9.5 1.7-.7-1.8-2.8-1.8-4.6 0-2.6 2.6-6 2.3-11.3-1-2.8-1.7-6-3.5-7.1-3.8-1.2-.4-2.7-1.3-3.4-2.2-1-1.2-.9-1.7.6-2.8 1.6-1.2 1.6-1.3.2-1.9-1.1-.4-2.1.1-2.8 1.4-1 1.9-1.2 1.9-2.8.5-1.6-1.5-2-1.5-3.1-.1-1.3 1.5-3.5 1.1-2.5-.6.4-.5.2-.9-.4-.9-1.5 0-2.6 5-1.4 6.8.5.9 1.6 1.9 2.4 2.2l4.6 2.3c2.3 1.1 3.3 1.2 3.7.4.3-.8.5-.8.5.1.1.9.6 1 2 .3 1.4-.8 2.2-.7 3.1.4 1.1 1.4 7.8 4.1 9.2 3.7.4-.1 1.2.7 1.8 1.8.9 1.7 2 2 6.8 1.9 3.1-.1 6.1-.4 6.7-.7.5-.4 1.9-.6 3-.7 1.6 0 2-.7 2-3.3 0-3 .2-3.2 3.7-3.2 2.1 0 3.8-.5 3.8-1 0-.6.9-1 2-1 2.9 0 2.9-7.4 0-9-1.1-.6-1.8-1.5-1.6-1.9.3-.4-.6-1.9-2.1-3.2l-2.6-2.4.6 4.2zM654.813 25.832c-.2.7.1 1.6.9 1.9.7.2 1.6-.1 1.9-.9.2-.7-.1-1.6-.9-1.9-.7-.2-1.6.1-1.9.9zM675.913 27.032c1 1.6 2.3 3.3 2.9 4 .6.6.9 2.3.7 3.7-.6 3.1 0 3.3 2.8.5 2.3-2.3 1.8-3.3-2.3-5.3-1.2-.6-2.4-2.2-2.6-3.4-.2-1.2-1-2.2-1.8-2.2-1.2 0-1.1.5.3 2.7zM702.813 36.832c-.6 1.7.9 2.9 2.4 2 1.4-.9 1.2-2.2-.4-2.8-.8-.3-1.7.1-2 .8z"/><path d="M756.413 36.732c.7.8 1.5 1.2 1.7 1.1.5-.6-1-2.5-2-2.5-.5 0-.4.6.3 1.4zM774.613 39.732c-.9 2.4 1.4 4.6 4.8 4.6 3.7 0 3.3-1.8-1-4.3-2.9-1.7-3.3-1.7-3.8-.3zM585.213 55.732c.7.7 1.3.7 2 0 .6-.6.3-1-1-1s-1.6.4-1 1zM649.713 73.332c.3.5.8 1 1.1 1 .2 0 .4-.5.4-1 0-.6-.5-1-1.1-1-.5 0-.7.4-.4 1zM491.213 128.332c0 .5.5 1 1 1 .6 0 1-.5 1-1 0-.6-.4-1-1-1-.5 0-1 .4-1 1zM689.213 203.332c0 1.6 2.7 2.3 5.7 1.5 2.1-.5 2.4-.8 1.2-1.6-1.9-1.2-6.9-1.1-6.9.1zM65.213 247.132c0 .4-2 1.4-4.5 2.1-3.7 1.1-4.5 1.8-4.5 3.7 0 3-.6 3.2-6.9 3.5-4.9.2-5.5.5-6.6 3.3-.7 1.7-1.1 3.5-.8 3.9 1 1.7 1 9.2-.1 9.9-.9.6.2 1.2 6.2 3.3.9.3 1.1 1.3.6 2.7-1 3.2-2.7 4.1-4.1 2.1-2-2.6-1.6.2.7 5.3 1.1 2.4 2.5 4.4 3 4.4.6 0 1 .6 1 1.4 0 .7.9 2.5 2 3.9 1.4 1.7 1.6 2.7.8 2.9-.8.3-.7 1.1.5 2.8.9 1.4 1.7 3.1 1.7 4 .1 2.4 3.8 6.3 6.3 6.4 1.9.1 2.2.6 1.9 3.6-.3 3.3 0 3.7 3.5 4.9 4.1 1.5 5.6 3 7.7 7.6.7 1.6 2 3.6 2.8 4.3 1.3 1 1.5.9 1-1.3-.2-1.4-.8-2.5-1.3-2.5s-.9-.5-.9-1c0-.6.6-1 1.3-1 1.5.1 5 4.7 4.3 5.9-.3.4.6 1.4 2 2.2 3 1.6 8.4 8.1 8.4 10.1 0 .7 1.2 1.9 2.8 2.6 5 2.3 7.2 3.7 7.2 4.4 0 .5.5.8 1.1.8.6 0 .9-.7.5-1.5-.8-2.1 1.1-1.9 3.1.4 1.3 1.5 2 1.7 3.4.8 1.4-.9 2.2-.7 3.8.7 2.3 2.1 2.7 1.5 1.1-1.5-.9-1.6-.7-1.9 1.3-1.9s2.3-.4 1.9-2.5c-.4-2.1-.1-2.4 1.3-1.9 1.3.5 1.6.2 1.3-1.2-.2-1.2-1.3-2-2.8-2.2-1.4-.2-3.4-.7-4.5-1.2s-2.9-1-4-1.2c-1.2-.2-2.8-1.9-3.9-4.3-1.9-4.2-3.7-6-7.3-7.5-2.2-.9-2.2-1-.5-4 1.5-2.7 1.5-3.2.2-4-1.2-.8-1.3-1.2-.2-1.9 1.2-.7 1.1-1.3-.1-3.7-.8-1.6-2.4-3.8-3.6-4.8-1.2-1.1-2.1-3.1-2.1-4.8 0-3.6-1.6-6.8-3.4-6.8-1.3 0-4-4.3-4.1-6.4-.1-2.6-3.7-7.5-7.5-10s-4-2.9-2.7-4.4c1.4-1.7 3.4-6.2 2.1-4.9-.4.4-1.3.2-2-.4-1.8-1.5 0-4.9 2.6-4.9 1.1 0 2-.6 2-1.3 0-2.2-3.6-10.8-4.3-10.1-1 1-3.7-2.3-3.7-4.5 0-1.2-.4-2.1-1-2.1-.5 0-1-.7-1-1.5s-.7-1.5-1.5-1.5-1.5.4-1.5.8z"/><path d="M71.713 252.332c-.3.5.1 1 1 1s1.3-.5 1-1c-.3-.6-.8-1-1-1-.2 0-.7.4-1 1zM236.213 261.532c1.1 2.9 2 5.4 2 5.6 0 .1-2.1 1.2-4.6 2.2-3.3 1.5-4.4 2.4-4 3.5.3.8-.6 3.6-2 6.2-2 3.5-2.3 4.5-1 4 1.2-.5 1.6 0 1.6 1.8 0 1.9-.5 2.5-2 2.5-1.2 0-2 .6-1.9 1.2.4 2.6-1.4 4.8-3.8 4.8-2.8 0-5.9 2.5-4.3 3.5 1.7 1 1.1 3.9-1 5.3-1.6 1-1.8 1.6-1 3.2.6 1.1.8 3 .5 4.2-.3 1.3-.2 4.4.3 7 .9 4.6-.1 7.9-3 9.9-.5.3.3 1.1 1.7 1.9 2.3 1.2 2.6 1.1 4.6-1.3 1.1-1.5 2.7-2.7 3.5-2.7.8 0 1.4-.6 1.4-1.4 0-.8 1-1.6 2.3-1.8 1.6-.2 2.3-1.1 2.5-3 .3-2.6.4-2.7 2.6-1.3 2 1.4 2.5 1.3 5.6-1 2-1.4 4.7-2.5 6.6-2.5 3.6 0 8.4-4.6 8.4-8.1 0-1.2.7-1.9 2-1.9 2.3 0 3.9-2.6 3.3-5.1-.3-1.1 0-1.9.6-1.9s1.1-1.1 1.1-2.4c0-4.1 3.2-8.3 8.2-10.8 2.6-1.2 4.8-3 4.8-3.8 0-1.1 1.3-1.5 5.3-1.6 3.2-.1 6.5-.8 8-1.9 2.2-1.4 3.1-1.5 6-.4 3.1 1.1 3.8 1 6.5-1 2.9-2.1 3-2.2 1.5-5.1-1.6-3.3-2.4-3.6-5.3-1.8-1.6 1-2.5.9-4.9-.5-2-1.2-3.2-1.4-3.6-.7-.9 1.4-3.5-.6-3.5-2.6 0-.8-.9-2.3-2-3.4l-2.1-2.1-2.2 2.6c-1.2 1.4-4 3.1-6.2 3.8-2.7.9-4.1 2.1-4.3 3.4-.3 1.8-1 2-5.6 1.8-2.8-.1-5.7-.5-6.4-.9-.7-.4-1.2-.2-1.2.3 0 .6-1.7 1.1-3.8 1.1-4.7 0-7.7-2.8-8.6-8.3-.4-2.1-1.1-3.5-1.7-3.2-.5.4-.9-.1-.9-.9 0-.9-.4-1.6-1-1.6-.5 0-.1 2.4 1 5.2zM321.213 261.532c0 .8.5 1.9 1.1 2.5.8.8.8 1.3 0 1.8-.6.3-1.8-.1-2.7-.9-2.5-2.6-2.8-2.4-6.2 4.6-.2.5.8.8 2.2.8 3.6 0 11.9 2.9 13.2 4.6 1 1.3 1.2 1.3 1.8-.1.4-1.1 1.3-1.4 3.1-.9 1.6.4 3.4 0 5-1 3.3-2.2 4.4-2 5.7.9.7 1.6 1.9 2.5 3.4 2.5 1.2 0 2.4.7 2.8 1.5.6 1.8 4.5 3.5 6.4 2.8 2.1-.9 1.3-2.9-2.9-7.7-4.5-5-4.6-6.9-.3-4.1 2.2 1.4 2.8 1.5 3.5.4.5-.8.9-1.8.9-2.2 0-.5.5-.5 1-.2.6.3 1 .1 1-.4 0-1.7-1.8-1.3-2.8.6-.9 1.5-1.1 1.4-2-.4-.6-1.1-2-2.3-3.1-2.6-2.7-.7-4.6 1.6-3.3 3.9.7 1.2.6 2.2-.3 3-1.7 1.8-5.5.6-5.5-1.7 0-1.1-.7-2.2-1.5-2.5-.8-.4-1.5-1.4-1.5-2.3 0-.9-.5-2.3-1-3.1-.8-1.3-1.1-1.2-2.4.5-.8 1.1-1.2 2.3-1 2.7.7 1.1-1.6 5-2.7 4.6-.6-.2-1-.7-1-1.1.1-.4-.6-2.1-1.4-3.7-1.1-2.1-2.3-3-3.9-3-1.4 0-3.1-.3-4-.6-1-.4-1.6-.1-1.6.8zM302.213 272.332c.8.5 2.2 1 3 1 1.3 0 1.3-.1 0-1-.8-.5-2.2-1-3-1-1.3 0-1.3.1 0 1zM307.213 273.332c0 .5 1.1 1 2.5 1s2.5-.5 2.5-1c0-.6-1.1-1-2.5-1s-2.5.4-2.5 1zM362.213 281.032c0 1 1.2 2.9 2.6 4.2l2.5 2.4-.7-2.9c-1.1-4.8-4.4-7.5-4.4-3.7zM363.913 289.732c-.7 1.9.1 2.6 3 2.6 3.2 0 6.3 1.7 6.3 3.4 0 1.4 8.6 3.3 9.8 2.2.3-.3-.1-.6-.9-.6-.9 0-2.8-1.4-4.4-3-2.3-2.4-3.7-3-7.2-3-3.4 0-4.1-.3-3.7-1.5.4-.9 0-1.5-.9-1.5-.8 0-1.7.6-2 1.4zM170.413 325.932c-3.2 2.8-9.8 5.4-14 5.4-1.2 0-4.1-.9-6.2-2-2.9-1.5-4-1.7-4-.8-.1 1.7-3.5 5.8-5 5.8-.6 0-.8.4-.5 1 .3.5.1 1-.5 1-.7 0-.9-.8-.5-2.1.6-1.8.4-1.9-1.2-1.1-1 .6-3.9 1.3-6.5 1.7-2.7.4-4.8 1.1-4.8 1.7 0 .5-.9 2.1-2 3.6-2.3 3.1-1.8 6.5.7 5.5 1.1-.4 1.4-.2 1.1.8-.2.8-1.4 1.5-2.6 1.7-1.1.2-2.6 1-3.2 1.8-.7.8-1.8 1.4-2.5 1.4-.6 0-1.7 1.2-2.3 2.6-.7 1.4-1.5 2.3-2 2-.4-.2-1.6.2-2.7 1-1 .8-1.6 1.4-1.3 1.4.4 0 .1 1.2-.7 2.6-1.2 2.4-1.1 2.8 1.2 5 1.6 1.5 3.8 2.4 5.7 2.4 5.2 0 6 1.1 4 5.6-.9 2.1-1.6 4.3-1.5 4.8.3 1.5-3.4 3.6-5.6 3.1-1.9-.5-2.3-.1-2.3 2 0 1.4.7 3.9 1.5 5.5 1 2 1.2 3.1.4 3.6-.7.4-.9 3.9-.6 10.4.5 8.1.3 10.2-1.1 12.1-.9 1.3-1.7 2.9-1.7 3.4 0 1.7-4.2 6.5-5.6 6.5-.8 0-3.6-.8-6.2-1.7-3.7-1.3-5.2-1.5-6.6-.6-1.4.9-2.2.8-3.6-.5-1.6-1.6-1.7-1.6-1.1.9.5 2.2-.1 3-3.9 5.8-2.5 1.8-4.5 4-4.5 5 0 1.6-3.7 4.1-6 4.1-.5 0-2.8 1.8-5.2 4-5.1 4.8-8 5.8-11.1 3.7-2.1-1.4-2.3-1.3-3.7 1.7-1.3 2.7-2.2 3.2-7 3.8-8.4 1.2-10.2 1-13-1.6-1.4-1.3-3.6-2.7-4.9-3.1-2.1-.6-2.3-.5-1.8 1.4.3 1.2 0 2.1-.6 2.1-.8 0-.7.4.1 1.2 1.6 1.6 1.5 2.8-.3 2.8-.9 0-2.5 1.6-3.6 3.5-1.7 2.8-2.9 3.6-6 4.1-2.1.4-4.6 1.5-5.5 2.5-.9 1-2.1 1.6-2.5 1.3-.5-.3-.9 0-.9.6s-1.6 2.7-3.6 4.6c-4 4.1-3.5 5.9 2.2 7 3.4.6 13.1 8.3 10.6 8.4-1 0-1 .5-.2 2 .6 1 1 2.3.9 2.7-.3 2 .2 3.4 1 2.9.5-.4 1.1-.1 1.3.5.6 1.7 4.8-.7 4.8-2.8 0-1.2.3-1.3 1.5-.3 1.7 1.4 3.5.5 3.5-1.7 0-1 .6-1.4 1.9-1 1.3.3 2.1-.1 2.3-1 .2-1.2.8-1.1 3.1.7 2.3 1.9 2.8 1.9 3.3.6.3-.9 1.5-1.6 2.6-1.6s3.3-.8 4.8-1.7c2.4-1.4 3.5-1.5 6.4-.6 2.8.9 3.6.8 3.6-.1 0-.7.6-2.1 1.4-3.2 1.4-1.9 1.5-1.9 3.4.4 2.5 2.8 2.9 2.8 9.9-.8 3.2-1.6 7.5-3.6 9.6-4.4 2.6-1.1 4.2-2.6 5.2-4.8.8-1.8 2.6-4.6 3.9-6.2 2.3-2.7 2.7-2.9 5.1-1.8 3.1 1.4 8.5.1 12.1-3 1.1-1 3-1.8 4.2-1.8 3.8 0 7.2-2.2 7.2-4.6 0-1.5.8-2.4 2.5-2.8 1.8-.5 2.5-1.3 2.5-3 0-3.2 1-3.9 3.2-1.9 1.8 1.6 2 1.5 4.8-1.5 3.9-4.3 5.7-4.1 5.1.5-.1.7.3 1.3.9 1.3.5 0 1-.9 1-2.1 0-1.6.6-2 2.8-1.9 5.5.4 6.2.1 6.2-2.6 0-1.9.4-2.5 1.5-2.1 1.1.5 1.2.1.4-2-.5-1.4-.8-2.8-.5-3 .9-.9 8.6 1.9 9.5 3.5.9 1.4 1 1.5 1.1.1 0-.8 1.1-2.6 2.4-3.8 1.5-1.4 2.2-2.9 1.9-3.9-.4-.9-.2-1.3.5-.8 1.5.9 2.5-3 1.3-5.3-.7-1.3-.8-2.2-.1-2.6.5-.3 1-1.5 1-2.6 0-1 .4-1.9.9-1.9s1.2-1.1 1.5-2.5c.3-1.3 1.5-2.9 2.6-3.5 3.7-2 2.1-9.3-2.4-10.4-1.3-.3-2.7-1.3-3-2.2-.4-1.2-.2-1.5.9-1.1.8.4 1.7.2 2-.3.4-.6 0-1-.7-1-1 0-1-.2.1-.9.8-.5 1.4-2.7 1.5-5.5.1-4 .3-4.5 2.1-4 1.1.2 2.7 0 3.5-.6 1.3-.9 1.1-1.3-1-3.1-2.2-1.9-2.3-2.2-.7-3 2.2-1.3 2.1-3.1-.4-8.1-1.6-3.2-1.8-4-.6-3.5 1.6.6 2.7-1.2 2.7-4.4 0-1.2.7-1.9 1.9-1.9 1.1 0 2.3-.5 2.6-1.1.4-.5 1.8-1.4 3.2-2 2-.7 2.8-.5 4.4 1.3 1.3 1.6 1.9 1.8 1.8.8-.4-4.3.2-6.9 1.5-6.4.7.3 1.6-.2 1.9-1 .4-.9 1.3-1.6 2.1-1.6.7 0 1.6-1 1.9-2.1.4-1.3 1.1-2 2-1.6.7.3 1.9-.4 2.5-1.4.9-1.3.9-1.9.1-1.9-.6 0-.9-.5-.7-1.2.5-1.3-5.3-6.8-7.1-6.8-.7 0-.9-.5-.5-1.1.3-.6 1.6-.8 2.9-.5 1.4.4 2.7 0 3.5-.8.9-1.2.7-1.7-1-2.6-3.3-1.8-8 .5-8 3.8 0 2.3-.1 2.4-1.7 1-1-.8-4.2-2.8-7.1-4.4-2.9-1.5-5.9-3.9-6.6-5.2l-1.2-2.3-3.2 2.7z"/><path d="M142.313 328.932c0 1.1.3 1.4.6.6.3-.7.2-1.6-.1-1.9-.3-.4-.6.2-.5 1.3zM105.113 354.832c-.1.3-.2 1.1-.3 1.7-.1.8-1.5 1.2-3.8 1.1-4-.2-4.7.7-2.3 2.7.8.7 1.5 1.8 1.5 2.5 0 .6 1.1 1.7 2.5 2.3 2.2 1 2.5.9 2.5-.8 0-1.2.7-2 1.7-2 .9 0 1.3-.3 1-.7-.4-.3-.2-1.2.4-1.9.7-.9.4-1.6-1-2.6-1.2-.8-1.8-1.8-1.4-2.1.3-.4.3-.7 0-.7-.4 0-.8.2-.8.5z"/></g></svg>