<?xml version="1.0" standalone="no"?>
<!DOCTYPE svg PUBLIC "-//W3C//DTD SVG 20010904//EN"
 "http://www.w3.org/TR/2001/REC-SVG-20010904/DTD/svg10.dtd">
<svg version="1.0" xmlns="http://www.w3.org/2000/svg"
 width="584.986721pt" height="514.071746pt" viewBox="0 0 584.986721 514.071746"
 preserveAspectRatio="xMidYMid meet">
<metadata>
Created by potrace 1.15, written by Peter Selinger 2001-2017
</metadata>
<g transform="translate(-686.388919,1244.107154) scale(0.100000,-0.100000)"
fill="#222222" stroke="none">
<path d="M10484 12423 c2 -24 -2 -32 -13 -30 -8 1 -17 -6 -19 -16 -3 -16 -1
-17 18 -7 12 6 29 9 38 5 15 -5 15 -4 0 12 -9 10 -18 29 -21 43 -3 17 -4 14
-3 -7z"/>
<path d="M10700 12365 c0 -8 8 -15 17 -15 16 0 16 -1 0 -17 -12 -12 -34 -18
-70 -18 l-52 0 0 -35 c0 -19 -4 -41 -8 -47 -10 -15 47 -53 80 -53 29 0 39 33
19 62 -27 38 -21 49 27 44 23 -3 54 -8 69 -11 23 -6 27 -4 25 12 -1 20 -10 23
-56 24 -18 1 -21 3 -10 10 12 7 12 9 0 9 -8 0 -11 3 -8 6 8 9 -11 44 -23 44
-6 0 -10 -7 -10 -15z"/>
<path d="M10530 12346 c0 -2 7 -7 16 -10 8 -3 12 -2 9 4 -6 10 -25 14 -25 6z"/>
<path d="M11755 12301 c-3 -6 -11 -8 -17 -5 -6 4 -9 1 -6 -6 7 -21 25 -23 32
-4 8 20 1 30 -9 15z"/>
<path d="M11730 12253 c-8 -3 -23 -14 -34 -25 -11 -10 -25 -19 -30 -20 -26 -3
-32 -5 -53 -12 -13 -4 -23 -11 -23 -16 0 -5 -16 -12 -35 -16 -21 -4 -37 -13
-40 -25 -5 -16 -10 -17 -27 -8 -15 8 -24 7 -37 -5 -10 -9 -32 -16 -49 -16 -18
0 -32 -4 -32 -8 0 -5 -11 -22 -25 -38 -22 -25 -27 -27 -45 -16 -11 6 -29 12
-39 12 -41 0 -130 29 -151 50 -21 21 -21 21 -45 2 -14 -11 -40 -23 -59 -26
-26 -5 -34 -11 -29 -22 4 -12 -2 -14 -33 -9 -34 6 -40 4 -49 -17 -12 -28 -49
-47 -104 -51 -33 -3 -44 1 -52 15 -7 13 -6 18 3 18 8 1 5 7 -7 15 -11 8 -29
23 -40 34 -30 27 -97 16 -105 -19 -4 -19 -15 -26 -45 -32 -26 -6 -41 -5 -43 2
-3 7 -9 7 -20 -2 -8 -7 -17 -12 -19 -10 -1 1 -8 2 -15 2 -7 0 3 -16 22 -35 19
-19 28 -35 22 -35 -22 0 29 -58 60 -69 23 -8 30 -7 35 4 8 23 20 18 46 -20 13
-19 27 -32 32 -27 4 4 4 -2 0 -13 -5 -11 -10 -56 -12 -101 -3 -78 -3 -81 22
-92 14 -6 25 -16 25 -22 0 -6 5 -8 11 -4 6 3 23 -5 37 -19 15 -13 44 -30 64
-38 20 -7 39 -21 41 -31 3 -11 11 -16 20 -12 10 3 22 -4 33 -21 17 -26 17 -28
1 -40 -9 -7 -17 -17 -17 -23 0 -5 -7 -12 -15 -16 -10 -3 -15 -19 -15 -48 0
-35 -6 -48 -30 -71 -24 -23 -30 -37 -30 -72 0 -40 -16 -68 -36 -64 -30 5 -41
-2 -36 -26 5 -29 -20 -98 -53 -141 -13 -17 -25 -48 -27 -70 -3 -27 -10 -42
-25 -49 l-21 -11 24 -27 c13 -16 24 -38 24 -50 0 -12 3 -32 6 -45 5 -18 2 -24
-15 -29 -26 -7 -26 -14 -2 -45 11 -13 19 -31 19 -39 -2 -34 3 -49 16 -49 8 0
16 -7 20 -15 6 -18 43 -20 48 -3 3 8 24 11 60 9 43 -2 57 1 61 13 4 9 15 16
26 16 11 0 26 9 34 20 11 16 16 18 20 7 3 -9 15 -13 31 -10 15 3 23 10 19 18
-3 9 3 14 14 15 10 1 36 2 58 4 22 1 49 7 59 13 10 6 27 8 36 6 23 -6 35 14
20 32 -9 11 -7 16 9 24 11 6 29 11 39 11 25 0 72 -53 101 -114 20 -40 26 -46
45 -40 11 4 25 13 29 20 17 29 57 11 102 -46 16 -19 16 -22 3 -11 -16 12 -18
11 -18 -8 0 -12 -4 -20 -8 -17 -4 2 -13 -8 -20 -24 -11 -23 -19 -28 -48 -28
-32 0 -135 -34 -160 -54 -7 -5 -28 -8 -49 -6 -21 1 -40 -3 -44 -11 -11 -17
-78 -4 -110 20 -17 14 -41 19 -87 19 -56 0 -67 4 -107 34 -34 26 -48 31 -61
24 -12 -7 -22 -6 -29 1 -6 6 -21 11 -33 11 -13 0 -26 5 -29 11 -5 7 -13 4 -26
-7 -15 -13 -24 -15 -46 -6 -16 6 -39 11 -53 11 -38 0 -90 12 -90 22 0 4 -30 7
-67 5 -71 -2 -93 1 -93 14 0 9 -55 70 -64 70 -3 0 -6 -7 -6 -15 0 -8 -11 -22
-25 -31 -14 -9 -28 -27 -31 -40 -3 -13 -12 -24 -20 -24 -8 0 -14 -4 -14 -10 0
-5 -7 -10 -16 -10 -8 0 -12 -4 -9 -10 3 -5 1 -10 -4 -10 -10 0 -6 64 5 81 2 3
-3 14 -10 24 -16 22 -9 55 11 55 8 0 23 -5 34 -10 10 -6 19 -7 19 -3 0 15 -40
73 -50 73 -5 0 -15 11 -23 25 l-13 26 -25 -20 c-17 -13 -30 -17 -40 -10 -8 4
-21 6 -30 4 -9 -3 -27 6 -42 19 -14 13 -28 22 -30 19 -10 -9 -67 -12 -67 -3 0
6 -9 10 -19 10 -20 0 -73 74 -86 120 -10 33 -24 50 -42 50 -9 0 -12 -6 -8 -19
7 -22 -15 -34 -36 -20 -22 14 -33 11 -19 -6 10 -12 10 -15 -4 -15 -9 0 -16 -4
-16 -9 0 -13 -67 -19 -87 -7 -25 14 -56 15 -70 4 -16 -13 -33 -1 -33 23 0 10
-7 19 -15 19 -9 0 -20 11 -25 25 -5 14 -14 25 -19 25 -5 0 -16 3 -25 6 -11 4
-16 1 -16 -10 0 -9 -7 -16 -15 -16 -9 0 -21 -11 -27 -25 l-12 -26 -43 50 c-39
44 -47 50 -73 44 -19 -3 -30 -1 -30 6 0 6 -11 11 -25 11 -22 0 -25 3 -19 24 3
14 1 27 -6 31 -9 6 -9 10 1 16 11 6 11 13 3 26 -16 26 -43 40 -52 27 -4 -6
-13 -13 -21 -15 -11 -4 -11 -8 3 -21 9 -9 16 -21 16 -26 0 -14 -61 -21 -87
-11 -18 7 -29 2 -53 -21 -17 -17 -37 -30 -45 -30 -12 0 -13 -4 -4 -19 18 -28
4 -55 -24 -46 -12 4 -34 8 -50 10 -15 1 -30 5 -33 8 -4 3 -15 -4 -24 -16 -27
-34 -92 -34 -136 -1 -18 14 -38 23 -44 19 -5 -3 -12 0 -15 7 -4 9 -24 13 -64
13 -33 0 -57 -3 -55 -7 2 -3 -1 -10 -7 -13 -21 -14 -51 -99 -45 -132 5 -37 -6
-50 -23 -29 -10 11 -19 12 -42 4 -16 -5 -29 -14 -29 -19 0 -20 -45 -27 -72
-11 -21 12 -31 13 -39 5 -9 -9 -4 -23 22 -57 36 -48 49 -56 49 -30 0 13 3 14
14 4 8 -6 12 -18 9 -26 -3 -8 1 -14 11 -14 9 0 16 -4 16 -10 0 -5 -8 -7 -17
-3 -15 5 -16 3 -6 -8 15 -15 17 -49 4 -49 -6 0 -13 5 -16 11 -4 6 -13 8 -21 5
-7 -3 -16 -1 -19 4 -4 6 -1 10 6 10 7 0 10 2 8 5 -9 8 -69 -19 -69 -31 0 -6
-9 -23 -20 -37 -24 -31 -25 -36 -2 -45 65 -28 111 -70 136 -126 15 -32 25 -65
22 -73 -3 -7 1 -16 8 -19 8 -3 12 -14 9 -25 -3 -10 0 -25 6 -33 12 -15 4 -64
-26 -159 -9 -27 -13 -63 -10 -83 7 -42 0 -64 -19 -64 -11 0 -10 -8 6 -40 11
-21 20 -42 20 -44 0 -3 -15 -3 -32 1 l-33 6 26 -29 c26 -28 26 -31 14 -71 -9
-31 -10 -45 -1 -54 8 -9 8 -10 -2 -4 -8 4 -23 -2 -38 -16 -13 -12 -24 -18 -24
-13 0 5 -5 1 -11 -8 -5 -10 -16 -18 -23 -18 -8 0 -19 -7 -26 -15 -7 -9 -19
-14 -27 -11 -8 3 -16 -1 -20 -10 -3 -9 -13 -14 -24 -11 -14 4 -25 -7 -44 -40
-14 -25 -25 -54 -25 -64 0 -11 -6 -19 -13 -19 -20 0 -26 -112 -7 -135 19 -22
30 -75 17 -76 -7 0 11 -9 38 -18 45 -16 52 -17 67 -3 16 13 18 12 29 -11 7
-17 21 -27 38 -29 14 -2 25 -9 24 -15 -2 -7 4 -13 12 -13 8 0 15 -6 15 -14 0
-13 53 -33 72 -28 13 3 21 -47 15 -94 -2 -25 0 -44 5 -44 5 0 8 -5 6 -11 -4
-13 36 -58 75 -84 l28 -18 -25 -26 c-24 -25 -25 -28 -10 -50 14 -19 15 -30 6
-58 -12 -39 -7 -63 14 -63 9 0 14 -11 14 -29 0 -21 8 -35 28 -49 15 -11 32
-20 37 -21 6 0 11 -12 13 -25 2 -14 12 -28 23 -31 10 -4 19 -15 19 -26 0 -18
-15 -24 -47 -20 -6 1 -14 -3 -18 -9 -3 -5 0 -10 8 -10 18 0 31 -30 14 -31 -7
-1 -20 0 -30 1 -15 1 -17 -3 -12 -19 5 -16 2 -21 -12 -22 -15 0 -15 -2 3 -9
12 -4 24 -15 27 -23 7 -19 68 -30 100 -18 14 6 28 19 32 30 6 20 8 20 31 4 14
-9 23 -22 20 -29 -3 -7 2 -18 10 -25 14 -12 14 -14 -2 -26 -17 -12 -17 -13 2
-14 17 0 17 -1 -3 -11 -28 -14 -30 -44 -3 -58 13 -7 22 -26 26 -51 7 -42 9
-44 61 -53 27 -4 34 -1 55 29 12 19 28 35 34 35 16 0 25 25 13 37 -14 14 85
37 109 24 10 -5 28 -7 40 -4 13 3 22 1 22 -6 0 -26 33 -7 58 34 18 30 34 44
48 45 22 0 34 31 34 91 0 15 7 35 16 43 9 10 13 24 9 36 -5 16 -2 20 15 20 20
0 20 1 4 31 -17 33 -12 45 21 51 12 2 29 23 45 55 21 43 30 52 52 52 21 1 34
11 53 39 14 21 45 52 70 70 30 21 43 36 39 47 -7 18 16 21 33 4 8 -8 13 -8 17
0 4 6 21 11 38 11 32 0 57 22 58 51 0 20 41 33 51 17 12 -20 41 0 34 23 -6 18
-5 19 14 10 27 -15 101 -3 109 18 13 30 67 100 78 101 7 0 14 10 17 22 5 18 9
19 21 9 8 -7 20 -10 26 -6 6 4 16 2 23 -3 18 -15 61 23 54 48 -3 13 0 20 9 20
14 0 18 33 14 110 -2 30 0 32 14 21 21 -18 21 -3 -1 21 -15 17 -15 18 1 18 9
0 26 -8 37 -19 11 -10 29 -17 39 -14 10 3 21 0 25 -6 4 -8 13 -3 25 12 17 21
17 28 5 62 -7 22 -18 41 -24 43 -21 7 0 22 30 22 28 0 29 1 29 51 0 58 30 112
56 102 9 -3 19 0 24 7 11 18 43 -2 67 -42 22 -38 87 -61 145 -52 32 6 37 3 49
-25 12 -27 18 -31 39 -26 19 4 21 3 10 -5 -12 -7 -8 -10 17 -10 17 0 38 -7 46
-15 8 -8 17 -12 20 -9 7 8 -4 44 -14 44 -5 0 -9 4 -9 10 0 11 32 1 41 -13 11
-15 216 -29 225 -15 3 4 16 8 29 8 18 0 26 7 31 26 6 22 11 25 35 22 23 -4 29
-1 29 13 0 15 6 17 29 13 16 -3 31 -1 35 4 4 7 18 7 39 2 17 -5 61 -10 97 -12
59 -3 65 -1 67 17 8 61 17 85 30 85 10 0 14 7 10 20 -7 26 28 37 52 16 10 -9
23 -16 29 -16 7 0 21 -14 32 -32 18 -31 22 -32 85 -33 61 0 65 1 65 22 0 15 7
23 23 25 19 3 22 10 25 51 3 38 7 47 22 47 13 0 17 5 13 20 -4 15 0 20 16 20
11 0 21 5 21 10 0 6 23 10 50 10 45 0 52 3 60 25 5 14 16 25 24 25 9 0 29 14
46 30 17 16 28 30 25 30 -3 0 -1 9 5 20 6 10 28 25 50 31 22 7 40 17 40 22 0
6 -3 7 -7 4 -11 -12 -31 13 -26 33 6 24 16 25 37 5 23 -23 44 -18 81 19 39 39
130 75 148 57 17 -17 35 -13 42 10 5 14 13 19 25 16 11 -3 27 1 36 8 16 11 15
14 -5 34 -18 18 -21 31 -19 74 3 52 3 52 36 49 30 -2 32 0 32 29 0 33 19 59
45 59 15 0 15 2 1 22 -17 24 -22 53 -7 44 10 -7 71 16 71 26 0 14 -59 126 -70
133 -19 11 -11 43 11 47 27 4 59 61 59 105 0 29 3 33 28 33 20 1 33 10 50 36
12 20 20 40 16 45 -3 5 0 9 7 9 7 0 9 10 6 30 -5 22 -3 30 7 30 21 0 28 62 9
77 -11 8 -13 20 -9 38 5 19 0 38 -14 62 -24 41 -25 47 -4 39 12 -4 14 -1 9 14
-9 27 4 63 20 57 10 -4 11 3 4 31 -4 20 -6 39 -3 43 2 4 -4 12 -13 18 -10 6
-12 11 -5 11 8 0 1 23 -21 66 -25 50 -42 71 -72 87 -30 17 -48 39 -73 87 -50
97 -60 110 -85 110 -13 0 -34 11 -46 24 -19 20 -21 27 -10 44 7 12 19 17 31
14 10 -2 25 1 33 8 14 11 13 14 -5 27 -26 18 -26 33 1 33 27 0 49 29 38 50 -4
8 -10 27 -14 43 -3 16 -12 27 -23 27 -22 1 -58 28 -49 37 4 3 -3 17 -14 29
-20 21 -20 24 -5 30 14 5 12 11 -11 41 -16 19 -43 50 -60 70 -18 19 -33 38
-33 42 0 4 -7 17 -16 29 -13 19 -19 20 -36 11 -17 -9 -24 -8 -34 5 -7 10 -11
28 -9 42 3 28 -3 30 -20 8 -10 -14 -14 -14 -26 -3 -22 21 -35 20 -54 -1 -22
-24 -77 -26 -96 -4 -7 8 -21 13 -32 10 -10 -2 -30 -1 -43 4 -26 10 -31 1 -12
-18 17 -17 -8 -34 -37 -27 -11 2 -30 5 -42 5 -15 0 -28 10 -38 30 -16 31 -19
33 -45 23z m-1630 -1625 c0 -18 -17 -7 -29 19 -13 28 -13 28 8 9 12 -11 21
-23 21 -28z m-1695 -6 c-3 -3 -11 0 -18 7 -9 10 -8 11 6 5 10 -3 15 -9 12 -12z
m60 -32 c3 -5 1 -18 -4 -29 -13 -24 -51 -17 -51 9 0 26 42 41 55 20z m1863
-132 c10 -10 17 -10 33 0 12 8 18 9 15 3 -4 -5 -2 -12 4 -16 19 -12 11 -37 -9
-30 -12 3 -21 0 -25 -10 -3 -9 -10 -13 -16 -10 -6 3 -24 -3 -40 -15 -22 -15
-30 -30 -30 -51 0 -19 -5 -29 -15 -29 -11 0 -14 7 -9 25 4 17 1 32 -9 43 -22
26 -32 83 -16 93 21 13 103 11 117 -3z m-1688 -1912 c0 -3 -4 -8 -10 -11 -5
-3 -10 -1 -10 4 0 6 5 11 10 11 6 0 10 -2 10 -4z m294 -282 c4 -10 1 -14 -6
-12 -15 5 -23 28 -10 28 5 0 13 -7 16 -16z"/>
<path d="M10670 12127 c0 -14 12 -32 32 -48 35 -26 70 -48 78 -49 8 0 5 49 -3
57 -4 3 -7 15 -7 25 0 13 -8 18 -31 18 -17 0 -39 5 -50 10 -16 9 -19 7 -19
-13z"/>
<path d="M10569 11714 c4 -15 12 -29 19 -32 19 -6 14 23 -7 42 -19 18 -20 17
-12 -10z"/>
<path d="M10600 11665 c0 -2 10 -10 23 -16 20 -11 21 -11 8 4 -13 16 -31 23
-31 12z"/>
<path d="M10599 11587 c15 -19 41 -23 41 -7 0 6 -4 10 -9 10 -5 0 -18 3 -28 7
-16 6 -16 5 -4 -10z"/>
<path d="M10556 11561 c-3 -5 1 -14 8 -20 12 -10 13 -8 9 8 -6 23 -9 25 -17
12z"/>
<path d="M10530 11516 c0 -2 7 -6 15 -10 8 -3 15 -1 15 4 0 6 -7 10 -15 10 -8
0 -15 -2 -15 -4z"/>
<path d="M10150 10595 c0 -8 4 -15 10 -15 5 0 7 7 4 15 -4 8 -8 15 -10 15 -2
0 -4 -7 -4 -15z"/>
<path d="M10196 10575 c4 -8 8 -15 10 -15 2 0 4 7 4 15 0 8 -4 15 -10 15 -5 0
-7 -7 -4 -15z"/>
<path d="M10603 9376 c1 -13 -3 -20 -11 -18 -10 2 -10 -2 -2 -17 17 -32 30
-34 55 -11 23 21 26 48 4 35 -5 -4 -9 0 -9 8 0 8 -9 17 -20 20 -15 4 -19 0
-17 -17z"/>
<path d="M10578 9293 c-36 -6 -36 -17 0 -20 19 -1 29 3 29 13 0 7 -1 13 -1 13
-1 -1 -13 -4 -28 -6z"/>
<path d="M10090 9190 c0 -5 5 -10 10 -10 6 0 10 5 10 10 0 6 -4 10 -10 10 -5
0 -10 -4 -10 -10z"/>
<path d="M7650 8537 c0 -10 -7 -20 -15 -23 -8 -4 -15 -14 -15 -23 0 -12 -2
-13 -9 -3 -4 8 -12 13 -17 12 -4 -1 -11 7 -15 17 -5 16 -7 15 -18 -5 -7 -13
-9 -32 -6 -42 4 -12 2 -20 -4 -20 -6 0 -11 -9 -11 -20 0 -24 -25 -37 -43 -22
-26 21 -52 17 -75 -10 -13 -16 -29 -25 -37 -21 -8 3 -15 0 -15 -7 0 -7 -10
-23 -22 -35 -45 -45 -88 -117 -88 -146 0 -12 -7 -19 -18 -19 -11 0 -27 -9 -37
-20 -10 -11 -31 -20 -46 -20 -15 0 -31 -4 -34 -10 -3 -5 -14 -10 -23 -10 -14
0 -17 -7 -14 -41 4 -40 3 -41 -19 -36 -15 4 -32 0 -45 -11 -37 -29 -58 -88
-25 -67 6 3 9 11 6 16 -4 5 5 9 19 9 19 0 26 -5 26 -18 0 -10 3 -22 8 -26 4
-4 7 -19 7 -32 1 -19 -3 -23 -17 -18 -22 7 -22 3 -3 -43 8 -19 15 -37 15 -39
0 -9 -62 -34 -70 -29 -6 3 -7 -1 -4 -10 4 -9 13 -14 21 -11 8 3 28 6 44 6 18
0 29 5 29 14 0 21 26 38 62 41 27 2 35 7 43 34 11 37 34 40 55 9 8 -13 15 -25
15 -28 0 -3 4 -11 8 -17 5 -8 4 -13 -2 -13 -6 0 -11 -7 -11 -15 0 -8 -6 -15
-12 -16 -7 0 7 -8 32 -17 29 -12 46 -24 48 -37 5 -30 34 -87 59 -115 31 -36
55 -104 40 -119 -8 -8 -8 -20 2 -46 7 -20 11 -52 10 -73 -2 -21 0 -43 5 -50
11 -19 50 -14 70 9 13 16 25 20 47 15 22 -4 29 -2 29 10 0 11 9 15 33 13 18
-2 38 0 44 4 6 4 15 3 18 -3 4 -6 15 -8 25 -5 9 3 29 1 43 -4 22 -9 27 -7 32
10 5 16 9 18 21 8 11 -9 21 -9 37 -2 16 7 29 8 41 1 26 -15 65 -17 73 -4 4 6
9 20 10 30 5 32 13 32 37 1 15 -18 28 -26 39 -22 9 3 18 1 21 -6 5 -9 7 -9 12
1 3 7 26 12 56 12 41 0 48 3 40 13 -8 9 -8 24 -2 49 9 30 14 35 31 31 17 -5
20 -2 17 13 -2 12 -12 19 -26 18 -21 -1 -30 11 -14 18 17 6 21 76 6 89 -8 6
-14 18 -14 26 0 8 -4 11 -10 8 -5 -3 -10 3 -10 14 0 11 -9 25 -20 31 -10 6
-24 29 -30 51 -7 26 -16 39 -24 36 -7 -3 -28 -2 -47 2 -27 5 -34 12 -36 31 -2
29 22 51 45 43 15 -4 15 -3 2 6 -13 10 -13 13 3 22 9 5 17 17 17 25 0 8 6 25
14 37 17 28 29 90 16 82 -6 -3 -10 -2 -10 4 0 14 22 26 44 22 11 -1 16 2 11 8
-6 11 13 31 60 66 17 13 18 16 5 25 -12 8 -11 10 7 10 12 0 25 5 28 10 3 6 11
10 16 10 6 0 7 -5 3 -11 -3 -6 8 -3 25 5 17 9 31 23 31 30 0 8 13 17 30 21 24
5 32 14 40 46 6 21 17 44 24 51 11 10 9 16 -10 30 -28 23 -112 25 -120 3 -8
-20 -31 -19 -43 2 -9 17 -11 17 -30 -1 -11 -10 -17 -24 -15 -31 3 -7 -11 -29
-30 -49 -19 -21 -35 -39 -35 -42 -1 -2 -1 -7 -1 -10 0 -4 -11 1 -25 10 -13 9
-27 16 -30 16 -8 0 5 -83 15 -95 4 -5 11 -23 14 -40 5 -24 2 -33 -14 -42 -21
-14 -16 -19 -74 77 -12 19 -27 47 -33 61 -15 35 -72 99 -87 99 -7 0 -21 -9
-32 -21 l-19 -21 -6 24 c-8 31 8 63 38 77 13 6 23 16 21 23 -4 12 -87 40 -99
32 -15 -9 -59 40 -65 73 -4 22 -12 33 -23 33 -9 0 -22 5 -29 12 -9 9 -12 8
-12 -5z m390 -557 c-7 -14 -7 -20 0 -20 5 0 10 -4 10 -10 0 -15 -45 6 -48 23
-2 10 6 17 20 20 13 2 24 5 26 6 1 0 -2 -8 -8 -19z m-96 -92 c14 -19 14 -23 1
-30 -16 -9 -62 -1 -71 13 -3 5 2 6 10 3 14 -6 21 5 17 29 -2 16 29 6 43 -15z"/>
<path d="M8136 8304 c-5 -14 -4 -15 9 -4 17 14 19 20 6 20 -5 0 -12 -7 -15
-16z"/>
<path d="M8325 8180 c-8 -13 20 -24 41 -16 20 8 9 26 -16 26 -10 0 -22 -5 -25
-10z"/>
<path d="M8640 8159 c0 -5 5 -7 10 -4 6 3 10 8 10 11 0 2 -4 4 -10 4 -5 0 -10
-5 -10 -11z"/>
<path d="M6885 8020 c-7 -12 2 -12 30 0 19 8 19 9 -2 9 -12 1 -25 -3 -28 -9z"/>
<path d="M6952 8004 c10 -10 20 -16 22 -13 3 3 -5 11 -17 18 -21 13 -21 12 -5
-5z"/>
<path d="M8098 7976 c-3 -30 -1 -33 24 -34 31 -1 36 9 13 28 -9 7 -14 19 -11
27 3 7 -1 13 -8 13 -8 0 -15 -14 -18 -34z"/>
<path d="M6865 7970 c4 -6 11 -8 16 -5 14 9 11 15 -7 15 -8 0 -12 -5 -9 -10z"/>
<path d="M7285 7720 c-3 -5 -1 -10 4 -10 6 0 11 5 11 10 0 6 -2 10 -4 10 -3 0
-8 -4 -11 -10z"/>
</g>
</svg>
