<?xml version="1.0" standalone="no"?>
<!DOCTYPE svg PUBLIC "-//W3C//DTD SVG 20010904//EN"
 "http://www.w3.org/TR/2001/REC-SVG-20010904/DTD/svg10.dtd">
<svg version="1.0" xmlns="http://www.w3.org/2000/svg"
 width="360.995855pt" height="927.617552pt" viewBox="0 0 360.995855 927.617552"
 preserveAspectRatio="xMidYMid meet">
<metadata>
Created by potrace 1.15, written by Peter Selinger 2001-2017
</metadata>
<g transform="translate(-790.325435,1409.695766) scale(0.100000,-0.100000)"
fill="#222222" stroke="none">
<path d="M8952 14084 c-9 -16 -15 -17 -48 -6 -29 9 -40 9 -45 0 -4 -7 -5 -16
-2 -21 3 -4 -1 -7 -8 -6 -8 1 -27 -1 -42 -6 -21 -5 -26 -12 -21 -24 16 -40 15
-49 -5 -56 -12 -3 -21 -12 -21 -19 0 -7 -11 -19 -25 -26 -19 -10 -22 -17 -15
-31 14 -24 13 -52 -1 -43 -8 5 -9 -6 -4 -36 5 -28 4 -40 -3 -36 -18 11 -42 -6
-42 -30 0 -21 -5 -24 -35 -24 -25 0 -35 -4 -35 -16 0 -10 6 -14 15 -10 8 3 15
1 15 -4 0 -13 -16 -13 -41 0 -15 9 -21 7 -26 -7 -9 -24 -23 -33 -54 -33 -15 0
-32 -7 -40 -16 -10 -13 -24 -14 -68 -9 -46 6 -53 5 -44 -7 10 -11 5 -22 -22
-51 -19 -20 -30 -37 -24 -37 5 0 14 -12 19 -26 8 -21 15 -25 36 -21 16 3 28
-1 33 -12 11 -19 3 -71 -10 -71 -5 0 -9 -7 -9 -16 0 -10 6 -14 15 -10 17 6 21
-19 5 -29 -6 -4 0 -18 15 -37 14 -16 25 -34 25 -39 0 -6 4 -7 10 -4 5 3 24 -1
42 -9 18 -8 39 -16 46 -18 30 -8 150 -104 156 -124 12 -44 66 -33 66 13 0 7 7
13 15 13 11 0 12 5 5 26 -14 35 -9 82 10 119 9 18 15 51 14 82 -1 34 3 57 12
64 8 6 14 22 14 35 0 18 5 24 23 24 13 0 34 12 48 26 13 14 34 30 47 35 16 6
22 17 22 38 0 16 -4 33 -10 36 -15 9 -12 35 3 29 7 -2 22 4 32 16 10 11 15 20
10 20 -4 0 -2 6 4 14 9 10 7 16 -5 26 -14 12 -13 15 5 24 20 11 19 12 -9 31
-32 21 -41 55 -15 55 12 0 14 6 8 28 -12 45 -7 102 12 122 11 12 14 26 10 39
-5 17 -2 21 17 21 29 0 54 15 40 24 -6 3 -14 1 -18 -5 -5 -9 -10 -8 -18 3 -6
9 -25 18 -43 22 -24 6 -34 3 -41 -10z m8 -290 c0 -9 -5 -14 -12 -12 -18 6 -21
28 -4 28 9 0 16 -7 16 -16z"/>
<path d="M9120 13199 c0 -5 5 -7 10 -4 6 3 10 8 10 11 0 2 -4 4 -10 4 -5 0
-10 -5 -10 -11z"/>
<path d="M9152 13188 c5 -13 38 -20 38 -8 0 4 -7 11 -16 14 -22 9 -26 8 -22
-6z"/>
<path d="M9156 13137 c3 -10 9 -15 12 -12 3 3 0 11 -7 18 -10 9 -11 8 -5 -6z"/>
<path d="M9233 13143 c-7 -2 -13 -9 -13 -14 0 -6 5 -7 10 -4 6 3 10 2 10 -3 0
-12 -47 -25 -60 -17 -6 4 -10 3 -11 -2 -6 -46 -7 -82 -3 -102 4 -21 9 -23 42
-18 20 3 46 9 58 12 16 5 27 -4 56 -49 23 -36 34 -63 31 -76 -4 -14 0 -20 10
-20 24 0 28 13 33 99 4 75 3 80 -21 99 -14 11 -25 25 -25 31 0 6 -9 11 -19 11
-12 0 -21 9 -25 26 -6 21 -9 24 -21 14 -12 -10 -16 -9 -21 4 -6 17 -10 18 -31
9z"/>
<path d="M8760 13079 c-36 -14 -87 -73 -95 -110 -12 -53 -78 -106 -96 -78 -7
11 -16 7 -39 -18 -16 -18 -37 -33 -45 -33 -8 0 -15 -9 -15 -21 0 -29 -18 -59
-35 -59 -8 0 -15 -6 -15 -14 0 -8 -7 -16 -15 -20 -11 -4 -14 -13 -9 -31 4 -17
2 -25 -7 -25 -7 0 -5 -6 7 -14 18 -14 18 -16 -15 -45 -19 -17 -38 -31 -42 -31
-4 0 -5 -9 -2 -19 5 -21 -28 -38 -49 -25 -8 5 -9 2 -5 -10 8 -21 -26 -91 -50
-105 -10 -6 -13 -11 -8 -11 6 0 0 -6 -13 -14 l-23 -12 29 -32 c28 -29 62 -77
62 -85 0 -2 -16 -2 -35 0 -24 2 -37 -1 -41 -11 -6 -15 -20 -16 -41 -3 -8 5
-13 3 -13 -6 0 -8 -6 -20 -14 -26 -11 -10 -19 -8 -35 5 -15 13 -17 20 -8 26 8
5 7 8 -6 8 -14 0 -17 -7 -14 -37 2 -21 12 -43 24 -52 11 -9 18 -21 16 -27 -4
-13 105 -134 121 -134 14 -1 66 -46 66 -58 0 -11 36 -21 66 -18 11 1 33 12 49
24 15 12 36 22 46 22 23 0 89 98 89 132 0 33 22 50 53 43 18 -5 29 -1 39 14
14 20 17 20 64 6 35 -10 50 -11 55 -3 5 8 15 7 33 -6 25 -16 26 -16 26 2 0 29
11 34 33 15 14 -13 37 -18 88 -19 39 0 75 -6 81 -12 18 -18 38 -14 38 8 0 17
7 20 41 20 26 0 50 7 66 20 14 11 35 20 47 20 37 0 66 12 66 26 0 8 5 14 10
14 14 0 13 -23 -2 -38 -9 -9 -9 -12 -1 -12 7 0 15 5 19 11 4 6 19 8 37 5 46
-9 81 11 99 58 27 67 30 84 18 106 -9 16 -8 25 2 37 21 25 7 99 -20 107 -15 5
-18 16 -17 74 2 82 -8 116 -40 130 -27 12 -33 37 -12 45 7 4 6 6 -4 6 -9 1
-20 12 -23 26 -5 20 -13 25 -36 25 -34 0 -34 1 -20 -34 13 -35 -13 -36 -35 -2
-12 17 -28 25 -66 30 -29 4 -58 15 -69 26 -11 11 -32 22 -47 26 -16 3 -35 8
-43 12 -8 3 -29 6 -45 6 -22 1 -43 13 -70 40 -22 21 -50 42 -62 47 -13 5 -23
16 -23 25 0 17 -31 74 -40 73 -3 0 -16 -5 -30 -10z m566 -270 c3 -6 2 -15 -4
-21 -6 -6 -11 -2 -15 11 -5 22 7 29 19 10z m-56 -53 c0 -2 -7 -7 -16 -10 -8
-3 -12 -2 -9 4 6 10 25 14 25 6z m-903 -748 c-3 -8 -6 -5 -6 6 -1 11 2 17 5
13 3 -3 4 -12 1 -19z"/>
<path d="M9750 13000 c0 -5 -10 -10 -22 -10 -22 -1 -23 -1 -4 -15 27 -20 31
-19 34 10 1 14 0 25 -3 25 -3 0 -5 -4 -5 -10z"/>
<path d="M9787 12993 c-4 -3 -7 -10 -7 -14 0 -11 29 -19 35 -10 6 11 -20 33
-28 24z"/>
<path d="M9600 12965 c12 -15 3 -21 -24 -16 -5 1 -6 -12 -2 -29 3 -19 2 -29
-4 -25 -6 3 -15 3 -21 -1 -35 -21 70 -32 108 -11 21 12 21 12 -18 55 -37 39
-66 60 -39 27z"/>
<path d="M9460 12907 c0 -29 12 -47 31 -47 14 0 19 7 19 25 0 14 -4 25 -9 25
-5 0 -16 3 -25 6 -10 4 -16 1 -16 -9z"/>
<path d="M9445 12848 c-4 -10 -13 -18 -21 -18 -17 0 -17 -2 -3 -34 9 -19 9
-29 0 -40 -10 -11 -6 -13 21 -12 36 2 37 7 19 86 -6 28 -10 31 -16 18z"/>
<path d="M9528 12797 c12 -14 -11 -53 -26 -43 -6 3 -8 -2 -5 -14 3 -11 13 -20
23 -20 22 0 44 -25 37 -44 -3 -8 4 -18 18 -24 32 -15 65 -64 47 -70 -10 -3
-10 -7 -1 -18 8 -9 8 -18 2 -26 -6 -7 -9 -43 -9 -81 l2 -67 57 -55 c32 -31 62
-53 68 -49 17 10 39 -28 28 -48 -7 -12 -5 -25 6 -41 14 -22 14 -24 -11 -36
-29 -13 -31 -10 35 -84 19 -21 22 -30 13 -39 -7 -7 -12 -22 -12 -35 0 -12 -9
-27 -20 -33 -48 -26 -10 -120 50 -120 16 0 31 -9 41 -25 l15 -25 28 29 c24 25
27 33 17 45 -10 12 -8 18 13 31 33 22 33 37 -4 110 -31 63 -37 95 -19 95 7 0
8 11 4 31 -7 29 -13 102 -15 159 -1 37 -20 92 -39 113 -20 23 -20 43 -3 87 8
19 15 60 16 90 1 30 6 63 10 73 11 24 -10 22 -31 -3 -10 -11 -25 -20 -34 -20
-10 0 -19 -5 -21 -11 -6 -17 -64 16 -70 39 -4 15 -12 19 -32 15 -18 -4 -28 0
-32 11 -5 12 -10 14 -20 5 -10 -8 -16 -6 -26 10 -7 12 -19 21 -26 21 -10 0
-12 7 -8 24 5 20 0 26 -28 40 -41 19 -52 20 -38 3z"/>
<path d="M8037 11960 c3 -13 0 -20 -8 -20 -7 0 2 -13 21 -30 25 -20 46 -29 72
-30 20 0 38 -6 40 -12 3 -9 10 -8 22 5 20 20 33 14 72 -31 12 -13 40 -32 62
-42 40 -18 40 -18 47 3 4 12 6 30 5 40 -1 9 5 17 14 17 11 0 12 6 7 28 -5 16
-14 25 -22 23 -8 -2 -56 -6 -107 -10 l-93 -6 -21 31 c-33 47 -122 75 -111 34z"/>
<path d="M7961 11866 c-15 -8 -19 -16 -13 -20 6 -4 9 -13 6 -20 -3 -8 10 -31
29 -51 28 -29 36 -33 41 -20 3 9 0 18 -9 21 -8 4 -15 17 -15 31 0 22 -2 24
-15 13 -9 -7 -19 -10 -23 -6 -4 4 5 17 21 28 45 33 29 52 -22 24z"/>
<path d="M7905 11800 c3 -5 11 -10 16 -10 6 0 7 5 4 10 -3 6 -11 10 -16 10 -6
0 -7 -4 -4 -10z"/>
<path d="M8337 11756 c-24 -18 -22 -57 4 -63 13 -4 18 -11 14 -21 -9 -23 4
-52 24 -52 17 0 51 29 51 43 0 5 -51 76 -74 104 0 1 -9 -4 -19 -11z"/>
<path d="M9868 11673 c-21 -5 -24 -23 -4 -23 8 0 16 7 20 15 3 8 4 14 3 14 -1
-1 -10 -3 -19 -6z"/>
<path d="M9840 11603 c0 -16 -9 -23 -37 -30 -28 -6 -38 -14 -38 -28 0 -15 -6
-19 -24 -17 -19 3 -22 0 -17 -13 3 -9 6 -24 6 -32 0 -9 3 -14 6 -10 3 3 18 1
32 -4 17 -7 29 -6 36 1 5 5 19 11 31 11 16 1 17 2 3 6 -24 6 -23 13 7 57 23
34 24 39 10 59 l-15 21 0 -21z"/>
<path d="M9680 11470 c0 -5 5 -10 11 -10 5 0 7 5 4 10 -3 6 -8 10 -11 10 -2 0
-4 -4 -4 -10z"/>
<path d="M9650 11450 c-8 -5 -27 -10 -42 -10 -15 0 -30 -5 -33 -10 -5 -8 -11
-7 -21 1 -22 18 -62 -14 -70 -56 -4 -24 -12 -35 -23 -35 -14 0 -17 -7 -13 -30
4 -28 2 -30 -27 -30 -30 0 -31 -1 -27 -37 3 -20 12 -43 20 -51 15 -15 14 -18
-18 -80 -10 -17 -14 -37 -11 -42 3 -6 0 -10 -7 -10 -7 -1 -4 -6 7 -13 11 -7
21 -25 23 -41 3 -27 1 -28 -30 -24 -28 3 -34 0 -35 -15 -2 -15 1 -16 13 -7 11
10 17 10 30 -1 13 -10 17 -10 24 0 6 11 13 10 34 -5 20 -14 25 -25 22 -45 -3
-14 0 -31 7 -38 8 -8 8 -11 -1 -11 -20 0 -13 -32 8 -37 11 -3 20 -10 20 -15 0
-5 6 -8 14 -6 8 2 21 -6 29 -16 17 -23 42 -13 28 12 -12 21 15 62 40 62 16 0
19 8 21 48 1 26 2 59 1 75 -1 35 8 34 45 -4 17 -17 35 -28 41 -24 6 3 9 10 6
15 -3 4 16 10 41 12 27 2 48 -1 50 -7 3 -6 13 -11 23 -12 17 -1 18 2 10 29 -9
34 -2 78 12 78 5 0 5 7 0 18 -5 9 -12 25 -15 35 -3 9 -15 17 -26 17 -11 0 -29
9 -40 20 -11 11 -28 20 -38 20 -20 0 -66 43 -57 52 3 3 -7 13 -22 23 -18 12
-28 14 -31 7 -10 -32 -74 2 -87 46 -5 17 -2 22 12 22 13 1 11 5 -9 16 -31 16
-38 30 -10 19 14 -5 15 -4 5 6 -22 22 -15 25 54 27 76 2 102 17 81 45 -9 12
-17 14 -28 7z"/>
<path d="M9641 10833 c3 -20 -2 -33 -14 -33 -8 0 -20 -11 -27 -25 -7 -14 -17
-25 -22 -25 -15 0 4 -114 24 -147 11 -18 17 -37 13 -43 -3 -5 5 -12 19 -16 14
-3 28 -15 31 -25 7 -20 25 -26 25 -8 0 5 5 7 11 4 5 -4 19 1 30 11 22 20 27
84 6 84 -38 0 -66 110 -32 124 22 8 18 26 -5 26 -13 0 -20 7 -20 20 0 11 5 20
10 20 6 0 10 5 10 10 0 6 -7 10 -15 10 -8 0 -15 5 -15 10 0 6 -7 10 -15 10 -8
0 -14 -3 -14 -7z"/>
<path d="M9643 10457 c-30 -17 -34 -17 -49 -3 -23 23 -25 20 -23 -27 3 -50 -5
-69 -26 -60 -10 3 -15 -2 -15 -16 0 -12 -6 -21 -14 -21 -9 0 -16 -12 -18 -27
-2 -19 -10 -29 -23 -31 -28 -5 -46 -31 -39 -57 5 -20 2 -22 -23 -17 -15 2 -34
10 -42 16 -11 8 -15 8 -18 -2 -3 -6 -10 -9 -16 -5 -7 3 -4 -3 7 -15 10 -12 22
-19 26 -17 9 6 20 -19 20 -45 0 -11 11 -31 25 -46 13 -14 22 -31 19 -36 -3 -5
0 -15 6 -23 9 -11 7 -19 -12 -38 -15 -15 -21 -29 -17 -38 4 -8 10 -21 12 -30
3 -10 21 -19 44 -22 69 -11 75 -13 84 -30 5 -9 26 -19 47 -23 20 -4 42 -11 49
-16 17 -14 83 12 83 32 0 28 11 30 41 10 31 -23 89 -37 89 -23 0 15 33 12 52
-4 21 -19 53 -12 52 10 -3 33 14 17 21 -20 6 -33 3 -40 -19 -60 -14 -12 -26
-28 -26 -36 0 -22 -45 -58 -63 -51 -13 5 -17 0 -17 -19 0 -14 5 -29 10 -32 6
-4 8 -15 5 -25 -4 -13 0 -20 13 -24 31 -10 57 -46 57 -79 0 -28 6 -34 52 -57
55 -27 65 -44 66 -112 1 -30 9 -45 39 -75 l38 -37 35 37 c19 20 35 43 35 50 0
18 22 28 40 17 9 -6 9 -10 -4 -17 -15 -8 -15 -13 -5 -37 10 -22 10 -29 0 -35
-7 -5 -12 -11 -12 -15 2 -17 0 -20 -7 -8 -5 7 -16 10 -25 6 -9 -3 -14 -10 -11
-15 5 -9 -9 -13 -35 -9 -9 1 -5 -9 10 -28 13 -16 28 -27 32 -25 4 3 15 -1 24
-8 19 -16 77 -13 120 7 29 13 35 13 56 -1 22 -14 26 -14 37 0 7 8 16 13 20 10
5 -3 13 7 18 22 6 16 11 22 11 16 1 -7 8 -13 16 -13 12 0 13 4 3 25 -9 20 -8
28 3 38 20 16 36 57 32 78 -2 9 -15 21 -28 27 -20 9 -23 9 -18 -3 6 -16 -2
-18 -32 -5 -14 5 -26 2 -38 -9 -18 -15 -20 -14 -37 7 -15 18 -20 20 -27 9 -15
-26 -48 -29 -68 -7 -18 20 -18 21 13 53 18 18 32 38 32 45 0 7 10 12 23 12 24
1 69 36 80 62 3 9 14 15 24 13 10 -2 18 -4 18 -5 0 -1 11 -3 25 -4 14 -1 35
-6 48 -10 25 -8 31 11 10 33 -9 9 -2 8 19 -3 41 -21 41 -21 35 9 -4 24 -22 36
-22 14 0 -6 -6 -9 -12 -7 -7 3 -13 11 -13 19 0 8 -16 29 -35 47 l-35 31 27 1
c14 0 29 -6 32 -12 3 -7 4 -4 2 7 -3 11 -8 52 -11 90 -7 73 -21 124 -36 126
-5 1 -13 3 -19 4 -5 1 -15 3 -21 4 -5 0 -7 6 -4 11 3 6 5 10 3 11 -2 0 -23 3
-48 5 -25 3 -46 10 -48 15 -2 5 -17 9 -34 9 -20 0 -31 6 -34 18 -7 23 -46 40
-70 31 -54 -21 -98 3 -134 74 -8 16 -21 27 -34 27 -12 0 -32 7 -45 16 -22 16
-24 16 -33 0 -11 -20 -25 -20 -59 -2 -15 7 -38 12 -52 9 -31 -6 -107 58 -107
91 0 11 -7 30 -15 40 -8 10 -12 22 -10 26 3 5 -2 10 -10 14 -18 6 -20 47 -4
63 13 13 -4 65 -38 120 l-18 29 -32 -19z"/>
<path d="M9640 9794 c0 -8 5 -12 10 -9 6 4 8 11 5 16 -9 14 -15 11 -15 -7z"/>
<path d="M9645 9757 c-16 -16 -17 -19 -3 -14 9 3 19 0 22 -9 8 -20 26 -17 26
5 0 32 -23 41 -45 18z"/>
<path d="M9585 9750 c3 -5 1 -10 -4 -10 -6 0 -11 -4 -11 -10 0 -5 7 -7 15 -4
17 7 21 34 4 34 -5 0 -7 -4 -4 -10z"/>
<path d="M10570 9695 c0 -8 4 -15 10 -15 5 0 7 7 4 15 -4 8 -8 15 -10 15 -2 0
-4 -7 -4 -15z"/>
<path d="M10570 9616 c0 -21 21 -31 30 -15 5 7 6 17 4 21 -9 14 -34 9 -34 -6z"/>
<path d="M9887 9261 c3 -13 18 -20 50 -25 52 -7 58 -4 49 20 -5 12 -14 15 -37
10 -17 -3 -39 -1 -49 4 -15 8 -17 6 -13 -9z"/>
<path d="M10046 9226 l-29 -13 31 -11 c17 -6 40 -8 51 -5 17 4 18 8 8 24 -14
22 -21 22 -61 5z"/>
<path d="M10441 9110 c-11 -32 4 -54 20 -29 14 24 17 5 7 -50 -10 -58 -6 -83
14 -79 18 4 11 -81 -8 -100 -9 -8 -13 -20 -10 -28 3 -7 0 -14 -6 -16 -25 -9
-28 -145 -5 -179 10 -13 17 -29 17 -36 0 -6 5 -24 11 -40 6 -15 10 -30 9 -32
-1 -2 4 -7 11 -11 9 -6 6 -14 -9 -30 -19 -21 -21 -21 -46 -5 -21 14 -29 15
-40 5 -11 -9 -20 -9 -37 0 -21 12 -22 11 -16 -19 4 -17 3 -31 -1 -31 -5 0 -6
-15 -4 -32 2 -25 -3 -40 -23 -60 -30 -32 -34 -33 -78 -15 -36 15 -67 12 -67
-7 0 -21 -42 -33 -80 -24 -19 5 -51 10 -71 12 -20 2 -41 6 -48 10 -7 4 -11 0
-11 -12 0 -26 -9 -32 -34 -23 -38 15 -85 1 -92 -25 -3 -13 -12 -24 -20 -24
-22 0 51 -124 75 -128 23 -4 37 -32 20 -43 -6 -4 -13 -19 -14 -33 -2 -15 -11
-39 -20 -53 -11 -16 -15 -36 -11 -53 3 -17 1 -30 -6 -32 -8 -3 -8 -9 -1 -23 6
-11 9 -42 6 -72 -4 -39 -1 -59 11 -77 9 -14 16 -41 16 -61 0 -20 12 -58 26
-86 14 -28 23 -57 20 -64 -3 -8 -1 -27 4 -44 7 -25 5 -31 -11 -36 -11 -4 -17
-10 -14 -15 3 -5 -4 -15 -16 -24 -14 -10 -20 -21 -16 -35 3 -11 -1 -25 -8 -31
-14 -12 -10 -110 6 -142 6 -11 3 -27 -9 -47 -18 -33 -32 -37 -61 -21 -16 8
-18 6 -16 -18 2 -26 6 -39 26 -89 10 -27 -5 -32 -19 -7 -11 20 -34 10 -25 -11
3 -10 -1 -15 -11 -15 -14 0 -15 -4 -6 -20 8 -15 6 -29 -10 -59 -11 -22 -20
-52 -20 -66 0 -14 -6 -41 -14 -60 -15 -35 -19 -61 -17 -107 1 -30 43 -51 82
-41 15 4 20 2 15 -5 -3 -6 -2 -13 3 -16 11 -7 4 -77 -8 -89 -4 -4 -6 -30 -3
-56 3 -31 0 -51 -8 -56 -8 -5 -6 -13 9 -29 19 -20 19 -23 4 -54 -12 -25 -21
-32 -42 -30 -36 3 -51 -8 -51 -38 0 -33 -31 -66 -50 -54 -22 14 -33 12 -27 -4
3 -8 -4 -21 -17 -30 -17 -11 -22 -21 -19 -39 6 -32 -27 -68 -56 -60 -16 4 -21
1 -21 -15 0 -12 -9 -22 -22 -26 -15 -3 -30 -22 -43 -51 -13 -30 -26 -45 -38
-45 -10 0 -32 -8 -50 -17 -18 -9 -35 -16 -39 -15 -4 1 -5 -5 -2 -13 4 -10 0
-15 -11 -15 -14 0 -16 -6 -11 -35 5 -25 3 -35 -6 -35 -7 0 -3 -7 9 -15 16 -11
22 -25 21 -48 -2 -57 33 -94 81 -87 19 2 51 -35 51 -59 0 -20 30 -54 63 -72
19 -11 23 1 5 19 -9 9 -9 12 0 12 7 0 22 -10 33 -21 20 -20 20 -23 5 -31 -9
-5 -16 -22 -16 -41 0 -25 -3 -29 -11 -17 -9 13 -10 13 -6 0 4 -18 47 -26 47
-9 0 6 9 0 20 -14 11 -14 29 -28 39 -32 10 -3 23 -16 29 -29 13 -28 60 -41 64
-17 2 12 12 7 39 -19 20 -19 39 -43 43 -54 5 -15 9 -16 21 -6 29 24 129 -2
186 -48 9 -7 23 -12 30 -10 9 2 14 -6 14 -22 0 -33 12 -50 30 -43 10 3 15 -1
15 -14 0 -24 36 -89 48 -86 5 1 20 -9 32 -22 13 -14 32 -25 42 -25 10 0 27 -5
38 -12 15 -10 27 -10 55 0 19 8 39 10 45 7 5 -3 10 -1 10 6 0 7 10 9 26 6 21
-4 25 -1 21 13 -7 27 45 74 72 65 14 -4 21 -2 21 6 0 8 7 6 19 -5 24 -22 65
-13 79 17 l11 22 0 -22 c1 -30 19 -38 41 -18 12 11 26 14 39 10 12 -4 21 -2
21 4 0 6 3 10 8 9 4 0 15 2 25 7 21 9 22 8 31 -27 4 -17 1 -32 -9 -42 -8 -8
-15 -26 -15 -40 0 -14 -6 -26 -12 -26 -8 0 -9 -3 -3 -8 6 -4 10 -22 10 -41 0
-29 4 -36 27 -42 15 -4 39 -17 54 -28 31 -25 52 -27 60 -6 4 8 15 15 25 15 26
0 24 28 -3 50 l-23 19 44 -2 c38 -2 45 1 50 20 5 19 9 20 35 9 24 -10 36 -9
63 3 18 8 35 23 38 32 3 9 18 19 34 22 32 7 64 34 56 48 -4 5 3 9 14 9 11 0
24 -7 29 -16 8 -15 10 -15 15 0 4 9 12 16 19 17 7 0 24 14 37 31 25 31 32 78
17 110 -5 11 -2 18 12 22 27 9 35 45 16 73 -10 17 -12 28 -5 42 7 12 7 21 0
28 -21 21 1 60 42 73 33 11 39 18 39 41 0 15 6 34 14 41 7 8 20 28 29 44 14
28 14 33 -4 73 -21 48 -24 77 -9 86 6 4 -3 19 -20 36 -32 32 -39 52 -16 43 24
-9 9 58 -20 86 -20 20 -24 21 -18 6 5 -13 4 -17 -4 -12 -7 4 -12 3 -12 -3 0
-6 -17 -9 -37 -7 -36 4 -38 6 -38 37 0 19 4 39 8 46 6 8 -6 21 -33 38 -32 20
-52 26 -84 23 -22 -2 -41 0 -41 3 0 4 -7 15 -16 25 -9 11 -26 40 -37 67 -14
32 -27 47 -39 47 -31 0 -26 37 8 52 17 8 29 21 29 32 0 11 5 16 14 13 11 -5
46 24 46 39 0 3 -15 18 -32 35 -30 27 -31 29 -10 29 14 0 30 13 46 38 13 20
31 44 40 51 10 9 13 17 7 21 -6 3 9 46 39 108 28 56 50 106 50 112 0 5 7 10
16 10 11 0 14 6 9 20 -4 13 -2 20 7 20 7 1 3 9 -10 20 -21 17 -22 23 -12 59
14 52 -1 87 -28 70 -33 -21 -64 -81 -59 -113 3 -20 -1 -38 -11 -48 -9 -11 -11
-18 -4 -18 25 0 10 -19 -24 -30 -32 -11 -35 -14 -29 -41 6 -25 4 -29 -14 -29
-12 0 -22 -6 -22 -12 -3 -30 4 -54 17 -61 18 -10 18 -31 -1 -47 -13 -11 -18
-10 -28 4 -10 14 -21 16 -53 11 -21 -4 -47 -8 -57 -9 -10 -1 -25 -9 -33 -18
-12 -11 -27 -14 -56 -11 -32 5 -42 2 -54 -16 -16 -22 -68 -30 -79 -11 -3 6
-15 10 -25 10 -10 0 -22 9 -25 20 -8 27 -16 25 -44 -9 l-24 -29 -35 20 c-26
14 -37 16 -42 7 -4 -6 -12 -9 -18 -5 -5 3 -15 -1 -22 -9 -7 -8 -18 -15 -25
-15 -7 0 -18 -7 -25 -15 -8 -9 -29 -15 -56 -15 -35 0 -44 4 -50 22 -6 20 -8
20 -19 5 -13 -18 -55 -23 -55 -7 0 6 -3 9 -7 8 -19 -4 -63 24 -91 57 -28 34
-30 36 -37 17 -9 -31 -45 -39 -65 -14 -15 18 -19 18 -43 5 -19 -9 -50 -12
-100 -10 -84 5 -104 12 -112 38 -3 10 -18 28 -32 39 -14 11 -20 20 -13 20 8 0
21 7 30 15 9 8 25 16 36 18 31 4 43 16 52 50 7 25 14 31 30 30 12 -2 22 2 22
8 0 6 9 8 20 4 18 -6 20 -2 20 38 0 46 18 66 43 50 33 -21 46 -13 49 30 l3 42
52 -3 c28 -1 54 2 58 8 3 5 14 10 23 10 18 0 42 42 42 74 0 19 1 19 23 -2 28
-26 35 -27 86 -6 37 15 39 18 28 37 -7 12 -20 31 -29 42 -15 18 -22 95 -8 95
10 -1 40 -27 40 -36 0 -5 12 -17 25 -27 24 -17 25 -17 25 0 0 10 5 25 10 33 8
13 11 13 26 -2 16 -15 18 -15 42 7 14 13 27 34 29 47 2 13 10 28 18 34 8 6 15
15 15 20 0 5 28 9 63 8 76 0 134 26 149 68 5 15 17 28 25 28 8 0 12 4 9 9 -3
5 1 14 9 21 8 7 15 19 15 26 0 9 12 14 34 14 21 0 36 6 40 15 3 8 17 20 31 25
14 5 25 16 25 24 0 7 6 16 14 19 8 3 17 19 21 36 5 22 12 31 27 31 17 0 19 4
14 25 -4 14 -2 25 4 25 5 0 10 11 10 25 0 14 7 42 15 61 14 34 14 36 -5 41
-11 3 -20 8 -21 12 0 3 -2 28 -4 55 -3 27 -11 53 -19 60 -9 6 -18 31 -22 56
-7 41 -6 44 9 32 21 -18 40 -6 32 19 -4 11 -8 40 -10 65 -3 42 -1 44 19 38 30
-9 31 -12 13 -32 -19 -21 -13 -32 15 -32 10 0 18 -5 18 -11 0 -5 4 -7 10 -4 5
3 7 19 4 34 -5 22 -2 32 14 40 31 16 34 47 6 60 -13 6 -24 16 -24 22 0 8 5 8
16 -1 21 -18 50 10 39 37 -15 35 -14 45 3 37 42 -17 60 -16 71 5 7 12 18 21
26 21 8 0 15 8 15 18 0 11 -20 27 -60 46 -48 22 -58 31 -50 41 14 16 -2 28
-25 19 -13 -5 -16 -2 -13 16 3 20 -2 22 -57 26 -68 5 -115 21 -115 38 0 16
-42 56 -58 56 -7 0 -12 -6 -12 -12 0 -7 -37 25 -83 72 -45 47 -97 96 -115 110
-33 25 -33 25 -18 61 26 63 27 87 3 93 -22 5 -51 61 -41 78 9 14 -7 68 -20 68
-20 0 -46 34 -57 74 -5 20 -16 36 -23 36 -7 0 -23 11 -36 25 -13 14 -29 25
-36 25 -8 0 -29 9 -48 19 l-34 20 -11 -29z m86 -236 c-9 -9 -28 6 -21 18 4 6
10 6 17 -1 6 -6 8 -13 4 -17z m283 -2469 c0 -13 -4 -14 -20 -5 -11 6 -20 13
-20 15 0 3 9 5 20 5 11 0 20 -7 20 -15z m80 -37 c16 -11 27 -25 24 -29 -3 -5
3 -20 13 -35 17 -27 17 -27 -5 -15 -12 6 -22 16 -22 21 0 6 -6 10 -14 10 -24
0 -48 30 -36 44 5 7 7 16 3 19 -15 16 10 5 37 -15z m129 -87 c8 -5 9 -11 3
-15 -5 -3 -15 1 -22 9 -14 16 -3 20 19 6z m24 -118 c8 -8 -25 -33 -35 -27 -5
3 -8 12 -8 20 0 14 31 20 43 7z m-536 -1085 c-3 -8 -6 -5 -6 6 -1 11 2 17 5
13 3 -3 4 -12 1 -19z"/>
<path d="M10400 9030 c-8 -5 -11 -12 -7 -16 4 -4 13 -2 19 4 15 15 7 24 -12
12z"/>
<path d="M10385 8990 c-3 -5 -1 -10 4 -10 6 0 11 5 11 10 0 6 -2 10 -4 10 -3
0 -8 -4 -11 -10z"/>
<path d="M10309 8914 c-8 -9 -21 -13 -35 -10 -18 5 -22 3 -18 -9 7 -17 -11
-21 -21 -5 -7 12 -25 4 -25 -12 0 -7 15 -9 42 -5 23 3 50 1 61 -4 29 -16 48 5
33 36 -13 29 -19 31 -37 9z"/>
<path d="M10136 8904 c-4 -12 -13 -14 -36 -9 -16 4 -44 4 -60 0 -25 -5 -30
-11 -25 -26 7 -21 -6 -24 -36 -9 -16 9 -19 7 -19 -9 0 -11 9 -25 20 -31 13 -7
20 -21 20 -40 0 -20 5 -30 15 -30 9 0 15 9 15 22 0 20 1 21 13 4 12 -16 16
-17 49 -3 49 21 78 55 78 93 0 37 -24 64 -34 38z"/>
<path d="M11155 7910 c-4 -13 -12 -19 -20 -16 -20 7 -7 -22 14 -34 23 -12 38
0 36 28 -3 35 -22 49 -30 22z"/>
<path d="M11180 7841 c0 -6 4 -13 10 -16 6 -3 7 1 4 9 -7 18 -14 21 -14 7z"/>
<path d="M10457 7046 c-6 -16 17 -40 32 -34 5 1 1 13 -9 25 -14 18 -19 19 -23
9z"/>
<path d="M10540 7050 c0 -5 5 -10 10 -10 6 0 10 5 10 10 0 6 -4 10 -10 10 -5
0 -10 -4 -10 -10z"/>
<path d="M9205 5998 c-11 -6 -24 -17 -28 -25 -4 -7 -17 -13 -27 -13 -11 0 -30
-10 -42 -22 -13 -13 -27 -22 -33 -20 -5 2 2 -9 18 -25 15 -16 27 -34 27 -39 0
-13 39 -49 61 -57 12 -4 15 1 14 22 -1 15 -5 33 -9 39 -4 7 -2 12 3 12 6 0 11
7 11 17 0 15 1 15 18 0 23 -21 65 -22 82 -2 7 8 21 15 31 15 23 0 24 8 3 31
-9 10 -17 29 -18 41 -1 17 -7 23 -23 23 -11 0 -25 3 -29 8 -11 10 -36 8 -59
-5z"/>
</g>
</svg>
