<svg version="1" xmlns="http://www.w3.org/2000/svg" width="1006.027" height="848.634" viewBox="0 0 754.52 636.475"><g fill="#222"><path d="M145.3.916c-.7 1.8 2 10.4 4 12.8.8.9 1.2 2.1.9 2.7-.4.5.2 1.6 1.2 2.3 2.7 1.9 2.8 8.4.2 9.1-4.4 1.1-4.7 7.1-.9 16.4 1.2 3 1.1 3.3-1.4 5.3-1.5 1.2-2.7 2.8-2.7 3.6 0 .9-1.1 1.4-2.9 1.4-2.3 0-3 .5-3.3 2.2-.2 1.7-1.5 2.7-4.5 3.8-5.2 1.8-5.4 3.3-1.8 13.5 1.4 3.8 2.5 7.5 2.5 8.2 0 .6-1.4 1.4-3 1.8-1.7.4-2.7 1.1-2.4 1.6 1.2 2-.6 7.9-2.4 7.9-2.5.1-6.9 4-8.3 7.5-.9 2.3-1.3 2.6-1.6 1.2-.3-.9-.9-1.7-1.5-1.7-2.1 0-8.8 2.3-8.8 3.1 0 1.3-5.5 6.6-8.7 8.2-1.7.9-3.9 1.4-4.8 1.1-1-.4-2.2.1-3.1 1.5-.8 1.1-2.4 2.1-3.5 2.1-1.2 0-1.9.7-1.9 1.9 0 1.1-1 2.7-2.2 3.5l-2.2 1.5 2.9 2.7c2.5 2.3 2.7 2.7 1.2 3.6-.9.5-1.7 1.6-1.7 2.3 0 1.8-1.2 1.9-2.9.2-1-.8-1.2-.9-.7 0 .4.7-.2 1.7-1.4 2.3-1.1.6-2 1.5-2 2 0 1.7-4 5.1-5.2 4.4-.7-.5-.9.3-.6 2.4.2 1.7 0 3.3-.6 3.5-1.6.5-6.7-2.3-6.1-3.4.9-1.4-1.8-1-4 .7-1.4 1-1.9 2.4-1.6 4.9.2 3.2 0 3.5-2.3 3.5-1.9 0-2.6.5-2.6 1.9 0 2.4-5.6 4.9-7.8 3.5-1.6-1.1-2.7-2.7-3.6-5.7-.5-1.6-3.8-3.5-9.2-5.1-1.8-.5-2.1-.2-2.1 2.6 0 1.7-.5 3.4-1.1 3.6-.7.2-1.2 1-1.2 1.7s-.5 1.5-1.2 1.7c-.8.3-.5 1.6 1 4.2 2.1 3.5 3 6.7 1.5 5.3-.3-.4-1.7 1.1-3 3.3-2.3 3.8-4.3 4.5-4.3 1.5 0-.8-.5-1.7-1.2-2.1-.8-.5-1 .3-.5 2.8.6 3.8-.5 6.4-2.2 5.4-.6-.4-2-.2-3.1.4-1.6.8-2.2.8-2.6-.3-.9-2.5-4.2-.9-3.6 1.8.4 2.3-2 5.6-4.9 6.8-1.1.4-.8 1.1.9 2.6 2.2 1.9 2.2 2.1.7 4.5-.9 1.4-1.5 3.8-1.4 5.3.2 1.5-.2 3.8-.9 4.9-1.3 2.4-.7 3.5 1.5 2.7.8-.3 2.7.3 4.1 1.4 1.5 1.1 4.2 2.2 6 2.5 2.8.4 3.1.2 2.6-1.4-.8-2.6 1.3-2.2 3.2.7 1.5 2.3 1.4 2.5-2 6-1.9 1.9-4.1 3.5-4.9 3.5-.7 0-1.8.5-2.5 1.2s-1.2.9-1.2.5-1.1.3-2.5 1.5-2.3 2.8-2 3.6c.7 1.8-3.5.6-5.2-1.5-.7-.9-1.3-1.1-1.8-.4-.3.6.1 1.8.9 2.7.9.8 1.6 1.9 1.6 2.4s.6.7 1.4.4c1.5-.6 3.8 2.6 4.3 6.1.2 1.1 1.5 3.1 2.8 4.5l2.5 2.4 3.2-3.1c3.6-3.5 4.5-3.5 13.6-1 6.3 1.7 6.9 2.2 5.2 4.2-.9 1.1-1 1.9-.3 2.6 1.3 1.3-1.5 6.9-3.4 6.9-2 0-1.5 1.4.8 2.8 1.5 1 2.4 1.1 3.2.3 1.6-1.6 4-1.4 3.4.4-.4.8-.3 1.6.1 1.9.4.2.8 3 1 6.3.2 4.4.8 6.2 2.3 7.5 1.1 1 2.2 2.4 2.3 3.2.4 2.6 9.7 12.6 11.7 12.6 2.6 0 6.9 4.4 6.9 7 0 1.1 1.1 3 2.5 4.2 2.2 1.9 2.5 3 2.5 8.5 0 6.1.1 6.3 2.5 6.3 1.4 0 2.5.5 2.5 1.2 0 .9.3.9 1.1.1 1.3-1.3 4.6.4 8.8 4.6l2.4 2.3-3.1-.7c-3.6-.7-10.2 1.9-10.2 4.1 0 1.7-3.6 5.5-4.4 4.6-.6-.5.1 4.9 1 7.7.3.8.7 4.7 1 8.5.3 3.9 1 7.2 1.5 7.4 1.3.5 1.1 3-.3 3.5-.8.3-.1.9 1.5 1.6 1.6.6 2.7 1.8 2.7 2.9 0 1 1.1 2.4 2.5 3 1.9.9 2.5 1.9 2.5 4.2 0 1.6.5 3 1.1 3 .7 0 .9 1.3.5 3.7-.8 5.3-.8 5.5 0 8.2.5 1.9.4 2.2-.6 1.6-1.3-.8-1.3-.8.5 3.8.4.8-.9 2.4-2.9 3.8-2.4 1.6-3.6 3.2-3.6 4.7 0 1.3-.5 3.3-1.1 4.4-.9 1.7-.7 2.4 1.7 4.3 1.6 1.3 3.4 2 4.1 1.8.7-.3 1.3.2 1.3 1.2 0 .9 1.2 3.2 2.7 5.1 1.6 2.2 2.3 3.8 1.7 4.2-1.3.9-3.4 9-3 11.7.1 1.1.7 2.9 1.3 4 .6 1.1 1.2 7 1.2 13 .1 6.1.7 13.3 1.5 16.1 1.1 4.2 1.1 5.5 0 7.5-.7 1.3-1.3 3.3-1.4 4.4 0 1.1-.6 2.9-1.4 4-.7 1.1-1.6 4-2 6.5-.4 2.5-2.7 8.2-5.1 12.6-3.2 6.1-4.1 8.4-3.2 9.3.8.8.5 1.1-1.1 1.1-1.5 0-2.2.6-2.2 2 0 1.1-.4 2-1 2-1.7 0-1.1 5.7.9 8.1 1.7 2.2 1.7 2.4 0 7.1-1.2 3.4-1.5 5.7-.9 7.7.5 1.9.4 3.3-.3 4-.9.9-.8 1.7.1 3.1 1.5 2.4 1.6 6.6.2 7.5-1.6 1-1.2 5.5.5 5.5 1.9 0 3.1 2.4 3.9 7.9.8 5.2 2.3 8.4 3.7 7.6 1.9-1.2.8 2.8-1.3 5-3.8 3.9-4.7 5.2-3.9 6.1.5.5 1.1 2.8 1.5 5.1.5 3.8.4 4.3-1.3 4.3-1.7 0-1.8.4-.9 3.4 1.3 4.2.5 6.6-2.2 6.6-2 0-2 .1-.5 3.1 1.1 1.9 1.3 3.5.7 4.2-2 2.5.6 7.7 3.7 7.7 1 0 2.4-1.4 3.2-3.3 1.2-2.8 1.8-3.2 5.2-3.1 3 .1 3.7-.2 3.7-1.8s.3-1.7 2.3-.7c1.2.7 3.5 2.3 5.1 3.6 1.8 1.5 3.5 2.2 4.5 1.7.9-.3 3.6-1.2 6-1.8 3.1-.8 4.5-1.8 4.7-3.1.2-1.1.6-3.4 1-5.1.5-2.5.2-3.5-1.4-4.5-1.5-1.1-1.9-2.5-1.8-5.7.1-4 .2-4.2 3-4.2 1.6 0 4.4 1.1 6.1 2.5 3.1 2.3 6 2.8 13 2.2 1.7-.1 3.3-.6 3.7-1.2.5-.6 1.2-.5 2 .3.9.9 1.4.6 2.4-1.7 1.1-2.7 1.6-2.9 5.8-2.7 3.9.2 4.6 0 4.6-1.6 0-1.1-.5-2.8-1-3.9-1.6-2.9 1.7-2.5 4.1.4 1.6 2.1 2.5 2.3 7.1 1.9 4.4-.3 6.1.1 10 2.2 2.5 1.5 4.9 3.3 5.2 4.1.3.8 2.6 1.7 5.5 2.1 3.7.5 5.2 1.2 5.6 2.5.7 2.1 2.5 2.5 4.2.8.9-.9 2.5 0 6.2 3.2 3.9 3.4 6 4.4 8.9 4.5 6.7.3 10.2 1.9 9.9 4.7-.1 1.1 1.6 3.4 4.2 5.5 3.1 2.6 4 3 3 1.5-1.2-2-1.1-2.4.9-4.2 1.3-1 3.2-2.5 4.3-3.3 1.7-1.1 1.8-1.8 1-4.7-.6-2-.7-4-.1-5 .5-1 .5-2.3-.1-3.2-1.4-2.3-1.1-2.8 2.6-4.3 1.9-.8 3.8-2.2 4.1-3.1.4-.8 2.6-2 5-2.6 2.5-.7 4.4-1.7 4.4-2.5s.5-1.4 1-1.4c.6 0 1 .3 1 .8 0 .4 1 1.8 2.3 3.2 2.7 2.9 4.1 6 2.7 6-2 0 .2 2.7 3.3 4.1 3.3 1.6 7.2 1.4 6.2-.2-.4-.5.4-.9 1.5-.9 1.6 0 2-.4 1.6-1.6-.3-.8-.2-1.3.2-1 .4.2 1.3-.7 2-2.2 1.6-3.5 13.5-7.7 15.4-5.5.6.7 1.3 1.1 1.6.8.3-.3 2.1.9 3.9 2.7 1.8 1.7 3.9 3.3 4.5 3.4.7.1 1.8.3 2.3.4 2.7.6 3.5-.1 2.9-2.6-.6-2.3-.4-2.5 1.5-1.9 1.5.4 2.1.2 2.1-.9 0-.8.8-2 1.8-2.5.9-.6 1.3-1.1.8-1.1s-.3-.6.3-1.4c.8-1 2.4-1.2 5.2-.9 2.8.4 4.5.1 5.7-1 .9-.8 3.1-1.9 4.7-2.3 1.7-.4 3.3-1.1 3.6-1.7.4-.6 2-.5 4.2.2 3 1 4.1.9 6.7-.4 2-1 3.6-1.3 4.3-.7 2.3 1.8 7.6 3.1 7.9 2 .3-.8 1.1-.7 2.7.1 2.1 1.2 2.7.9 5.9-2.1 2-1.8 3.9-3.6 4.2-4 .3-.4 2.6-.9 5-1.2 5.1-.6 14-2.1 15.5-2.7 2-.7 5.5 2.2 8.1 6.6 1.4 2.5 3.3 4.5 4.3 4.5.9 0 3.3 1.2 5.4 2.6 2.8 1.8 4.5 2.4 6.6 1.9 3.1-.7 5 1 7 6.2.7 1.7 1.9 3.4 2.7 3.7.8.3 1.4 1.3 1.4 2.2 0 1 .3 1.4.7 1.1.3-.4 1.1-.1 1.7.7 1.3 1.6 6.6 3 6.6 1.7 0-.9 3.1-1.3 9.9-1.2 4.7 0 8.1 2.5 8.1 5.8 0 1.3.3 1.4.8.6.6-.9 2.5.4 6.5 4.5l5.8 5.7 7.2-.6c6.5-.5 7.6-.4 10.8 1.8 3 2 4 2.2 6.4 1.3 1.5-.6 2.9-.9 3-.8.1.2.7 2.2 1.4 4.5.7 2.6 1.8 4.3 2.6 4.3s1.5.6 1.5 1.4c0 .8 1.1 1.7 2.4 2 1.7.4 3.2 2.2 4.8 5.6 1.3 2.7 2.6 4.9 3.1 5 .4 0 1-1.4 1.4-3 .5-2.5.9-2.9 2.7-2.4 1.1.3 3.1 1.2 4.4 2 1.2.8 2.2 1 2.2.5s.8-.8 1.8-.7c1.2.1 1.7-.6 1.6-2.2 0-1.8.5-2.2 2.7-2.2 2.1 0 2.9-.7 3.8-3.1.7-2.1.7-3.7 0-5-.9-1.7-.6-1.9 2.6-1.9 2.1 0 4.3-.8 5.4-1.9 1.2-1.2 2.8-1.7 3.9-1.4 1.1.2 2.3 0 2.6-.6.4-.6 2-1.1 3.6-1.1 1.5 0 3-.6 3.2-1.2.5-1.5 7.7-1.2 9.3.3.5.5 2 .9 3.3.9 1.3 0 2.1.4 1.7.9-1.7 2.8 8.5 2.2 11.7-.6 1.5-1.3 1.8-1.3 2.2-.2 1.5 4.8 1.6 5 4.3 4.7 2.1-.2 2.8-.8 2.7-2.5 0-1.2.3-2 .8-1.7.4.3.8 0 .8-.5 0-1.8 2.4-1.2 6 1.4 3.5 2.5 7 3.3 7 1.5 0-1.7 3.3-1.1 8 1.4 3.9 2 5.3 2.2 10 1.6 12.1-1.7 18-3.2 18-4.7 0-1 .6-1.2 2-.8 1.5.5 1.8.3 1.4-.8-.4-1.2.3-1.5 3.3-1.3 2.1.1 4.4.5 5.1 1 .7.4 2.1.4 3.2.1 1.1-.4 2-.2 2 .4 0 .6.5 1.1 1.1 1.1.6 0 .9-.6.6-1.4-.3-.8-.3-1.7 0-2 1-1 7.5 2.3 9.5 4.9 1.6 2 2.3 2.3 3.4 1.4.8-.6 2.1-.8 3-.5.9.4 2.3.1 3-.5.8-.6 2-.9 2.8-.6.9.4 1.7-.1 2-1.1.3-.9 1.7-2.9 3-4.3s2.6-3.7 2.9-5c.4-2.2.4-2.2.6.3 0 1.8.7 2.8 1.6 2.8.8 0 1.5.6 1.5 1.3 0 .8 1.1 1.9 2.5 2.5 1.4.6 2.5 1.8 2.5 2.6 0 1.9 8.4 2 10 .1 1.5-1.8 4-2 4-.3 0 .6 1.1.1 2.4-1.1 1.5-1.4 2.2-3 1.9-4.2-.4-1.5-.2-1.8 1.3-1.3 1.6.6 1.7.5.7-.7-2.3-2.3-1.4-3.8 3-5 5.2-1.4 7.7-3.5 7.7-6.7 0-1.7.4-2.2 1.4-1.9 1.6.6 2.8-3.5 2.7-9.1-.1-4.3 1.5-7.2 3.9-7.2 1.1 0 2-.5 2-1.1 0-.6.7-.9 1.5-.5 1 .4 1.5-.1 1.5-1.5 0-1.6.4-1.9 1.8-1.4 3.4 1.5 6.2 1.7 6.2.6 0-.6.7-1.1 1.5-1.1s1.5-.9 1.5-2 .7-2 1.5-2c2.1 0 8.5-5.9 8.5-7.9 0-.9.7-2.7 1.6-3.9.9-1.3 1.4-2.4 1.3-2.6-.2-.1-2.1-1.4-4.2-3-3.6-2.7-3.7-2.9-2.1-4.7 1.1-1.2 1.4-2.5.9-3.6-.5-1-.9-4.9-1.1-8.6-.2-5.7-.7-7.1-2.6-8.7-1.3-1.1-1.7-1.9-1-2 2 0 5.2-3.9 5.9-7 .3-1.7 1.4-3.2 2.4-3.5 1.6-.5 1.8-1.3 1.3-4.1-.4-2.3-.2-3.4.5-3.4 1.8 0 2.9-4.2 2-7.4-.6-2.1-.5-3.2.3-3.7 1.5-.9 3.9-8.9 3.1-10.2-.4-.6-.1-.7.6-.2.9.5 1.2.2.9-1.1-.2-1.1-1-1.9-1.8-1.9-1.8-.1-1.4-2.3.7-4.8 1-1 1.2-1.7.5-1.7s-1.2.4-1.2 1c0 2-2.1.9-3-1.5-.5-1.4-1.6-2.5-2.5-2.5-1.9 0-2-2.4-.1-4 1.1-.8 1.3-2.4.9-6.1-.4-3-.2-4.9.4-4.9.6 0 1.3-1.4 1.7-3.2.5-2.4.2-3.4-1.4-4.5-1.1-.8-2-2.5-2-3.9s-.6-2.4-1.5-2.4c-.8 0-2-1.1-2.7-2.4-1.6-2.8-7.8-8.2-7.8-6.7 0 1.5-1.2 1.4-3.4-.2-1.1-.8-1.9-3-2.1-6.6-.3-2.9-.8-5.8-1.2-6.4-.8-1.4-1.3-6.2-1.6-16-.2-6.4.1-8.1 1.5-9.1.9-.7 2-2.5 2.4-4.2.4-1.6 1.4-3.4 2.3-4 1.3-1 .6-1.8-4.2-4.8-5.2-3.4-7.8-6.3-4.2-5 1 .4 1.5 0 1.5-1.5s.6-2.1 2.1-2.1c1.2 0 2.3-.8 2.6-2 .3-1.1.9-2 1.3-2 1.2 0-.2-5.4-1.8-6.6-.8-.6-1.3-1.5-1-2 1.1-1.9-1.1-5.4-3.4-5.4-3.9 0-4.8-1.4-4.9-6.9-.2-4.7-.6-5.7-3.5-8.4-1.9-1.6-3.4-3.8-3.4-4.8s-.9-2.3-2.1-2.9c-1.2-.7-1.8-1.8-1.5-2.6 1.5-3.8-2.2-5.8-5.4-2.9-1.5 1.4-2.2 1.4-6.2-.4-2.4-1-5.1-2.5-5.9-3.2-.8-.8-2.5-2-3.8-2.7-1.9-1.1-2.5-1.1-3.5.3-.9 1.3-1.6 1.4-4.6.4-4.4-1.5-5.2-2.6-4.5-6.5.5-2.8.1-3.4-2.7-5.1-4.7-2.9-12.8-10.2-12.8-11.7 0-2.7-10.7-8.7-16-9.1-1.5-.1-1.6-.8-.5-3.7.4-1.1-.2-2.2-1.9-3.3-1.4-1-2.6-2.6-2.6-3.7 0-1-.4-1.7-.9-1.3-.6.3-1.5-.3-2.1-1.4-.6-1.1-1.6-1.8-2.4-1.5-1.3.5-13.1-8.7-13.8-10.8-.3-.7-1-.7-2.5.2-1.7 1.1-2.6 1-5.4-.6-2.7-1.6-3.5-2.7-3.7-5.6-.2-2.7-.7-3.5-1.7-3.1-.9.3-1.9-.5-2.6-2-.8-1.7-1.7-2.3-3-2-1 .3-3-.2-4.3-1-4.2-2.8-11.4-9.8-14.2-13.8-1.9-2.8-3.8-4.2-6.6-4.9-2.1-.6-4.2-.8-4.7-.6-.5.3-1.4-.1-2.1-1-.7-.8-1.9-1.3-2.6-1-.7.3-3.1-.2-5.3-1.1-3.4-1.3-4.3-2.3-5.3-5.5-.7-2.5-2.5-5-5-6.9-2.1-1.7-3.6-3.4-3.4-3.7.2-.4-.9-1.7-2.5-3-2.7-2.2-2.8-2.2-3.4-.2-.4 1.1-1.5 2-2.6 2s-2.8.7-3.6 1.6c-1 1-2.3 1.3-3.7.9-1.2-.4-3.2-.9-4.6-1-5.4-.5-10.6-1.8-12-3-1.9-1.6-9-2.7-9-1.4 0 .5-.5.9-1.1.9-.6 0-1.7.7-2.5 1.5-1.3 1.3-4.2 2-6.6 1.6-.5 0-.8 1-.8 2.4 0 1.8-.5 2.5-1.8 2.5-1.1 0-2.7.9-3.8 2.1-1.3 1.4-2.6 1.9-4.4 1.6-2.5-.5-8 3-8 5.2 0 .5-.9 1.3-2.1 1.6-1.1.4-1.8 1.3-1.6 2 .9 2.1-3.7 3.9-7.1 2.7-2.6-.9-3.1-.8-3.5.7-.6 2.6-7.2 3.5-10.4 1.4-1.7-1.1-2.7-1.3-3.4-.6-1.9 1.9-11.8-4.6-16.8-11-4-5.2-4.9-5.8-7.3-5.3-1.5.3-3 0-3.4-.5-.4-.7-2.8-.9-6.1-.7-4 .4-5.6.1-6-.9-.3-.7-.9-1.1-1.3-.8-.5.3-2.6-1.5-4.7-3.9-4.2-4.9-13.2-10.6-16.6-10.6-3.5 0-8.4-3.6-10.2-7.3-2.6-5.5-5-7.1-10-6.8-4.2.2-4.8-.1-10.2-5.3-3.2-3.1-6.4-5.6-7.2-5.6-2.5 0-11-5.4-11.5-7.3-.3-1.3-1-1.7-2-1.4-.9.4-2.8.2-4.2-.3-1.8-.7-3.1-.7-3.9 0-1.4 1.1-4.3-.2-11.9-5.4-3.7-2.5-4-2.5-5.2-.8-1.8 2.7-13.2 2.2-15.5-.6-.8-1.1-2.5-2.3-3.7-2.6-1.2-.4-2.9-2-3.8-3.6-1.9-3.1-5.2-5-8.9-5-1.3 0-3.7-.8-5.4-1.8-2.8-1.5-3.8-4.1-3.3-8.3.1-.4-1.1-.9-2.6-1.3-2.8-.6-11.8-7.8-9.2-7.4 1.1.2 1.4-.5 1.2-2.7-.3-3.8-.3-5.5 0-7.9.2-1.4-.5-2.1-2.6-2.7-3.4-.9-4.2-2-5.6-7.2-.6-2-1.7-3.7-2.4-3.7-1.7 0-5.1-3.8-4.3-4.7.4-.3 0-1.4-.9-2.4-1.2-1.3-1.5-2.8-1-5.1.4-1.8.7-4.3.6-5.6 0-1.5.6-2.2 1.9-2.2 2 0 3.5-2.5 2.5-4.1-.3-.5 0-.8.8-.7.8.2 1.4-.8 1.6-2.5.2-1.5.8-2.7 1.3-2.7s.9-.6.9-1.3c0-.7 1.3-3.1 3-5.3 4.1-5.5 3.9-8.5-.9-12.3-2.1-1.7-4.4-3.1-5.1-3.1-.6 0-1.1-1-1-2.3.4-4.3.1-4.7-2.9-4.1-2.1.4-3.7 0-5.9-1.6-1.8-1.4-3.9-2.1-5.1-1.7-1.1.3-2.6-.1-3.2-.9-.7-.8-1.9-1.2-2.7-.9-.9.3-1.8.2-2.1-.3-.3-.5-2.7-1.2-5.3-1.5-3.6-.5-4.8-.3-4.8.7 0 .7-.8 2-1.8 2.9-1.8 1.6-3.1 1.6-14.7-.2-5.3-.8-6.2-.7-8.1 1-1.1 1-2.7 1.9-3.5 1.9-.8 0-2 .5-2.6 1.1-.9.9-2.4.4-5.9-2-2.6-1.7-5.1-3.1-5.4-3.1-1.4 0 .3-5.5 2.1-6.8 1.6-1.1 1.6-1.6-1.2-7-1.6-3.1-2.9-6.1-2.9-6.6s-.8-1.4-1.7-2.1c-1.4-1-1.5-1.6-.5-2.8 1-1.1.9-1.7-.2-2.6-.8-.6-1.2-2.2-1-3.4.4-2.1.4-2.1-.6.2-.7 1.7-1.5 2.1-2.8 1.5-.9-.4-4.2-.8-7.2-.9-5.3-.2-5.6-.3-8.2-4.5-3.7-5.8-4.4-6.4-5.1-4.6zm-103.7 236.5c0 1.1-3.1 2.4-3.9 1.6-.3-.3.1-1 .9-1.5 1.9-1.2 3-1.2 3-.1z"/><path d="M23 144.716c-.4.7-.3.8.4.4.6-.4 1.8.6 2.6 2.2s2.2 3.2 3.1 3.5c2.1.9 1.9-.1-.7-4-2.4-3.4-4.2-4.1-5.4-2.1zM85.4 611.616c-1 1-1.5 2.5-1.2 3.4.7 1.8.8 1.8-3.4.6-2.8-.8-3.2-.7-3 .7.3 1.9 7.4 5.5 8.9 4.6.6-.3 1.6 0 2.4.6.8.6 2.4 1 3.7.8 1.9-.2 2.3-.9 2.4-4.3.2-4.4-2.3-8.6-3.7-6.3-.6.9-1 .8-1.5-.5-.8-2.2-2.4-2-4.6.4zM226.6 619.516c0 .7 2.4 2 3.6 2 1.3 0 .1-1.9-1.6-2.3-1.1-.3-2-.2-2 .3zM76.3 622.716c-.2 1.8-.1 4 .4 4.8.7 1.3.9 1.3 1 0 .1-.8.3-2 .4-2.5.2-.6.3-1.4.4-1.9 0-.5.8-.3 1.6.4 2.2 1.8 1.8.3-.5-2-2.6-2.6-2.7-2.6-3.3 1.2z"/></g></svg>