<?xml version="1.0" standalone="no"?>
<!DOCTYPE svg PUBLIC "-//W3C//DTD SVG 20010904//EN"
 "http://www.w3.org/TR/2001/REC-SVG-20010904/DTD/svg10.dtd">
<svg version="1.0" xmlns="http://www.w3.org/2000/svg"
 width="717.394692pt" height="690.694924pt" viewBox="0 0 717.394692 690.694924"
 preserveAspectRatio="xMidYMid meet">
<metadata>
Created by potrace 1.15, written by Peter Selinger 2001-2017
</metadata>
<g transform="translate(-625.605308,1310.883057) scale(0.100000,-0.100000)"
fill="#222222" stroke="none">
<path d="M7053 13094 c-18 -9 -31 -20 -28 -24 9 -14 -7 -41 -29 -50 -12 -4
-27 -18 -33 -31 -74 -156 -80 -164 -101 -161 -12 2 -22 -2 -22 -9 0 -7 -10 -9
-30 -6 -16 4 -32 2 -36 -4 -4 -6 -15 -4 -31 7 -21 13 -27 14 -34 3 -5 -8 -9
-18 -9 -24 0 -5 -7 -2 -15 8 -13 18 -14 18 -25 -3 -8 -15 -8 -25 -1 -34 13
-15 4 -49 -10 -40 -5 3 -9 -11 -9 -30 0 -24 -10 -50 -30 -78 -16 -22 -30 -49
-30 -59 0 -10 -4 -20 -9 -23 -5 -3 -7 -14 -5 -24 5 -17 -5 -25 -68 -54 -16 -7
-28 -16 -28 -21 0 -4 -15 -5 -34 -2 -30 6 -34 4 -41 -22 -12 -45 -15 -96 -6
-107 13 -17 6 -82 -11 -108 -18 -27 -13 -41 15 -51 10 -4 27 -26 37 -50 17
-37 18 -49 8 -75 -9 -24 -10 -39 -1 -62 10 -27 9 -30 -7 -30 -26 0 -51 -11
-45 -20 3 -4 -2 -21 -10 -36 -8 -16 -15 -44 -15 -63 0 -48 -43 -88 -80 -74
-24 9 -26 8 -22 -13 5 -28 36 -37 77 -20 22 9 37 11 49 4 12 -7 21 -7 29 1 8
8 19 4 39 -16 22 -21 31 -24 40 -15 16 16 31 15 25 0 -4 -12 20 -37 36 -38 4
0 5 11 1 25 -3 14 -2 25 4 25 5 0 20 20 33 44 23 44 23 45 5 65 -11 12 -14 21
-8 21 20 0 14 65 -8 85 -11 10 -22 26 -25 35 -3 10 -15 20 -27 23 -17 5 -19 9
-10 20 7 8 9 17 5 20 -3 4 10 7 29 7 24 0 38 5 42 16 5 13 9 14 20 5 28 -23
75 -31 91 -15 9 9 23 13 35 9 11 -4 20 -2 20 4 0 6 7 11 15 11 9 0 21 11 27
25 11 24 13 24 35 10 16 -11 35 -13 63 -9 36 6 45 14 41 37 -1 5 8 6 19 2 13
-4 22 -1 26 8 3 9 19 14 42 14 20 0 54 7 75 16 32 14 36 19 28 34 -12 24 9 53
38 53 12 0 21 6 21 15 0 10 7 15 18 13 13 -2 18 5 20 32 5 50 17 61 53 48 16
-5 29 -14 29 -20 0 -5 5 -6 11 -3 6 4 21 -3 34 -15 l23 -21 48 37 c31 23 48
43 46 54 -4 27 94 44 127 23 18 -11 26 -13 29 -5 2 7 12 12 22 12 23 0 120 58
138 83 7 9 26 24 42 32 27 14 28 17 18 41 -8 18 -9 27 -1 32 7 4 8 22 4 47 -6
36 -10 41 -55 56 -61 22 -76 37 -115 107 -17 31 -39 67 -47 80 -23 31 0 30 49
-4 24 -16 45 -23 57 -19 12 4 20 2 20 -4 0 -17 30 -13 37 5 4 11 13 14 29 10
13 -4 24 -3 23 1 -2 14 13 53 21 53 4 0 15 16 26 35 10 20 26 35 36 35 29 0
21 13 -23 39 -23 13 -46 35 -52 50 -8 21 -17 28 -38 28 -22 0 -29 -6 -36 -31
-8 -28 -12 -31 -54 -32 -69 -2 -91 -12 -83 -36 5 -17 3 -20 -11 -15 -9 4 -19
7 -21 7 -2 0 -4 6 -4 14 0 8 -10 16 -22 18 -28 4 -68 -13 -68 -28 0 -13 -99
-6 -117 8 -7 5 -17 7 -22 3 -22 -13 -78 7 -90 32 -6 13 -9 28 -6 33 5 8 -3 9
-64 10 -13 0 -30 5 -38 11 -11 10 -12 8 -3 -15 15 -40 12 -44 -10 -17 -13 15
-27 22 -39 18 -12 -3 -22 1 -25 9 -7 18 -13 17 -53 -2z m-368 -325 c11 -17 -1
-21 -15 -4 -8 9 -8 15 -2 15 6 0 14 -5 17 -11z"/>
<path d="M7852 12851 c-8 -5 -12 -21 -10 -37 l3 -29 13 23 c16 29 12 55 -6 43z"/>
<path d="M10275 12720 c-8 -14 9 -34 23 -29 7 3 6 11 -3 22 -9 13 -15 15 -20
7z"/>
<path d="M8467 12699 c-9 -6 -26 -8 -36 -4 -11 3 -48 -4 -82 -15 -35 -12 -73
-20 -86 -17 -14 2 -29 -3 -39 -14 -11 -12 -25 -17 -39 -13 -13 3 -26 1 -29 -5
-4 -6 -16 -11 -28 -11 -15 0 -19 -5 -15 -19 4 -16 -2 -20 -32 -23 -20 -3 -46
-1 -58 5 -16 7 -27 5 -44 -7 -13 -9 -34 -16 -46 -16 -13 0 -28 -9 -35 -20 -7
-11 -19 -20 -26 -20 -9 0 -10 -5 -3 -19 11 -20 70 -54 114 -65 15 -3 27 -11
27 -16 0 -6 4 -10 9 -10 18 0 91 -54 91 -67 0 -7 11 -13 25 -13 14 0 25 -5 25
-11 0 -7 7 -17 16 -23 24 -18 35 -81 16 -99 -13 -14 -11 -21 27 -66 23 -27 50
-52 59 -55 18 -6 76 -99 78 -126 1 -8 2 -21 3 -27 1 -7 7 -13 15 -13 8 0 20
-17 27 -37 16 -50 27 -63 55 -63 55 0 67 -54 29 -134 -9 -19 -15 -43 -14 -53
2 -10 0 -23 -3 -29 -7 -11 22 -78 41 -97 5 -5 7 -16 4 -23 -3 -8 0 -14 6 -14
6 0 11 -9 11 -20 0 -19 46 -48 57 -36 3 2 13 -3 23 -12 14 -11 16 -20 10 -33
-7 -12 -5 -21 5 -29 8 -7 15 -20 15 -29 0 -16 72 -61 98 -61 6 0 12 -7 12 -15
0 -8 4 -15 10 -15 15 0 38 -64 33 -92 -4 -19 0 -26 16 -31 19 -5 20 -8 10 -31
-7 -14 -16 -26 -21 -26 -5 0 -15 -6 -22 -12 -7 -7 -24 -22 -39 -32 -14 -11
-24 -23 -21 -27 2 -5 -5 -13 -16 -19 -11 -6 -20 -16 -20 -22 0 -6 -8 -29 -17
-50 -16 -33 -22 -38 -45 -35 -18 2 -28 -1 -28 -9 0 -8 -6 -11 -14 -8 -20 8
-29 -12 -17 -35 8 -13 7 -30 -3 -58 -11 -33 -19 -39 -54 -48 -22 -6 -44 -13
-48 -18 -4 -4 -16 -7 -26 -7 -14 0 -19 -6 -17 -22 3 -33 -11 -60 -28 -54 -18
7 -145 -33 -159 -51 -6 -7 -20 -13 -30 -13 -10 0 -44 -25 -74 -55 -48 -48 -59
-54 -86 -49 -25 5 -36 0 -62 -27 -18 -18 -32 -39 -32 -47 0 -10 -7 -13 -22 -9
-29 8 -109 -3 -102 -14 2 -5 -7 -22 -22 -38 -20 -23 -33 -29 -59 -26 -25 2
-38 -3 -54 -21 -12 -13 -24 -24 -28 -24 -18 1 -55 41 -62 67 -4 15 -12 28 -18
30 -15 5 -28 -94 -15 -110 7 -8 6 -20 -3 -37 -8 -14 -14 -37 -15 -51 0 -20 -8
-30 -30 -39 -21 -9 -30 -19 -30 -35 0 -13 -6 -25 -14 -28 -9 -3 -12 -15 -9
-31 4 -19 1 -26 -11 -26 -9 0 -19 -7 -23 -16 -3 -8 -16 -19 -28 -24 -25 -10
-40 -71 -24 -101 7 -14 5 -21 -8 -28 -38 -22 -44 -29 -62 -79 -16 -44 -17 -51
-4 -57 11 -4 14 -14 10 -34 -7 -33 16 -66 48 -72 14 -3 21 -14 23 -37 3 -26 8
-32 27 -32 13 0 27 -5 30 -10 5 -8 11 -8 19 -1 7 6 22 8 35 4 18 -5 22 -11 19
-42 -2 -27 -7 -35 -20 -33 -12 2 -19 -7 -24 -33 -3 -19 -13 -39 -22 -44 -13
-7 -10 -11 14 -24 17 -10 23 -16 13 -17 -11 0 -15 -7 -12 -23 3 -14 -3 -29
-16 -41 -24 -22 -28 -71 -6 -80 8 -3 15 -15 15 -26 0 -33 19 -60 41 -60 14 0
24 -10 32 -29 9 -26 13 -28 40 -20 16 5 34 6 40 2 7 -4 8 1 3 12 -5 15 -4 16
9 5 14 -12 14 -15 0 -30 -20 -22 -10 -47 26 -66 16 -8 29 -19 29 -24 0 -13
-34 -21 -68 -15 -26 4 -31 1 -36 -21 -9 -36 28 -78 74 -82 19 -2 37 -6 39 -8
10 -10 9 -39 -1 -45 -7 -4 -7 -13 1 -27 6 -12 7 -22 1 -24 -5 -2 -1 -14 9 -27
12 -16 24 -22 35 -18 22 9 20 24 -3 32 -15 5 -19 15 -18 51 0 34 4 44 14 40 8
-3 12 -2 9 3 -3 5 4 11 17 15 15 4 27 -1 37 -14 9 -12 32 -23 52 -26 26 -5 38
-12 42 -28 7 -30 79 -49 131 -35 35 10 40 9 57 -13 9 -12 18 -29 18 -37 0 -8
17 -33 38 -57 80 -94 101 -120 121 -160 21 -40 84 -104 102 -104 5 0 23 -15
39 -33 28 -32 32 -33 97 -33 37 1 73 4 79 8 19 12 92 -16 114 -45 12 -15 31
-27 43 -27 12 0 40 -9 62 -18 39 -18 40 -18 56 1 13 17 18 18 40 7 28 -15 88
-80 89 -96 0 -6 7 -17 16 -25 8 -7 26 -34 39 -60 26 -49 100 -113 123 -104 7
2 36 -11 65 -30 28 -19 58 -35 66 -35 8 0 11 -7 8 -20 -3 -10 2 -25 9 -31 8
-7 13 -18 10 -26 -3 -7 -2 -13 2 -13 6 0 54 -38 104 -84 30 -27 97 -66 114
-66 9 0 22 -17 31 -40 9 -22 22 -40 30 -40 7 0 13 -5 13 -11 0 -6 7 -9 15 -5
23 8 45 -4 45 -25 0 -10 4 -19 9 -19 5 0 22 -18 38 -40 26 -36 45 -51 42 -32
-5 30 2 44 21 39 10 -3 20 -1 22 4 2 5 13 6 26 3 15 -4 21 -12 18 -23 -3 -9
-2 -22 3 -29 6 -10 10 -10 21 3 18 22 26 19 49 -21 23 -38 28 -84 10 -84 -6 0
5 -18 24 -39 44 -49 69 -95 61 -114 -4 -10 13 -24 57 -46 73 -37 85 -38 94
-10 l7 21 23 -22 c13 -12 27 -20 32 -17 16 10 115 -23 138 -46 18 -17 32 -22
62 -20 78 7 227 1 243 -9 14 -9 25 -6 51 10 19 12 53 31 77 41 29 14 42 26 42
41 0 23 -1 23 37 10 16 -6 36 -23 45 -38 9 -15 28 -38 43 -52 22 -21 28 -22
35 -10 7 10 10 11 10 3 0 -7 8 -13 18 -13 19 0 62 -39 62 -56 0 -5 18 -17 39
-27 31 -14 44 -29 62 -70 16 -36 39 -64 73 -92 62 -48 96 -67 112 -61 6 2 35
-7 65 -21 52 -25 53 -25 100 -9 55 20 165 27 194 12 27 -13 48 -17 126 -20 36
-2 75 -8 86 -14 11 -6 31 -8 44 -5 13 3 21 2 16 -2 -8 -9 21 -45 36 -45 22 0
86 36 87 48 0 21 20 13 30 -13 5 -14 16 -28 24 -31 7 -3 22 -23 32 -44 18 -38
37 -50 48 -31 7 11 33 8 69 -7 26 -11 27 -14 21 -61 -6 -50 8 -88 46 -118 24
-19 45 -16 25 3 -17 18 -17 60 0 83 7 11 7 13 -1 8 -6 -4 -19 2 -29 13 -17 19
-17 19 19 18 40 -1 72 -28 62 -53 -4 -13 -2 -14 12 -6 12 7 22 5 32 -4 8 -8
27 -16 42 -19 22 -4 31 2 54 35 14 21 35 39 44 39 28 0 43 25 25 40 -23 19
-20 53 4 45 14 -4 20 0 24 21 2 14 0 27 -7 30 -6 2 -11 22 -11 43 0 35 1 38
18 29 14 -7 17 -7 13 1 -8 13 3 61 15 61 22 0 54 48 52 78 -2 18 1 31 5 31 27
-4 44 3 38 16 -7 19 -1 19 27 1 12 -8 36 -17 52 -20 l30 -7 -3 48 c-3 41 0 52
21 72 14 13 23 29 20 37 -3 8 0 14 6 14 6 0 11 13 11 30 0 16 6 33 14 37 7 4
18 18 25 31 7 13 21 22 35 22 17 0 27 9 36 30 10 25 18 30 49 31 l36 1 -34 9
c-18 6 -36 8 -38 5 -3 -3 -15 11 -25 32 -11 20 -29 47 -40 59 -16 17 -20 31
-15 63 3 22 1 43 -4 46 -6 3 -9 13 -8 22 5 33 -13 81 -35 96 -17 11 -22 22
-19 39 4 20 -1 26 -28 36 -18 6 -29 14 -26 18 4 3 0 14 -9 24 -9 10 -14 25
-11 33 7 18 -24 39 -51 34 -20 -3 -42 9 -42 23 0 6 9 7 20 4 11 -4 20 -2 20 4
0 6 -4 11 -10 11 -5 0 -10 9 -10 20 0 11 4 20 9 20 20 0 41 -13 41 -25 0 -21
17 -27 39 -13 17 11 23 10 38 -5 16 -16 16 -19 3 -28 -13 -9 -13 -10 0 -6 24
6 18 89 -10 124 -12 15 -25 28 -29 28 -3 0 -17 10 -31 23 -13 12 -28 22 -32
22 -5 0 -15 15 -23 34 -8 19 -23 41 -34 48 -10 7 -19 18 -21 23 -13 49 -24 56
-76 48 -33 -4 -42 -2 -48 12 -5 13 -2 16 11 11 10 -4 4 7 -15 26 -25 25 -35
30 -41 20 -6 -10 -11 -6 -19 17 -6 17 -18 34 -27 37 -8 3 -15 14 -15 25 0 10
-8 23 -17 28 -10 6 -12 11 -6 11 23 0 1 90 -22 90 -22 0 -39 57 -28 94 9 28 7
36 -14 60 -31 36 -21 46 17 18 38 -29 48 -28 56 6 4 15 11 32 16 38 5 8 1 25
-12 47 -21 35 -37 124 -28 149 3 7 6 18 7 23 2 6 10 18 19 28 9 10 12 17 7 16
-18 -5 -60 14 -73 32 -7 11 -22 19 -33 19 -11 0 -18 4 -15 8 3 5 -4 23 -15 41
-15 24 -24 31 -39 26 -14 -4 -20 -2 -20 8 0 8 -9 22 -20 32 -11 10 -20 24 -20
31 0 16 -93 94 -113 94 -20 0 -31 48 -15 67 10 12 9 18 -7 29 -17 13 -17 14
-1 14 9 0 14 5 11 10 -3 6 -1 10 4 10 19 0 12 19 -10 31 -18 9 -24 8 -30 -3
-7 -13 -15 -13 -60 -2 -29 8 -62 24 -73 36 -17 19 -21 20 -24 6 -4 -21 -104
-24 -122 -3 -9 11 -7 12 9 8 14 -3 23 0 27 11 3 9 12 16 20 16 17 0 20 115 4
125 -6 4 -10 16 -8 28 2 17 -3 23 -27 27 -16 3 -29 7 -28 10 8 22 13 44 22
100 25 160 37 194 69 204 18 6 45 51 57 95 5 16 4 21 -4 17 -6 -4 -11 -3 -11
2 0 5 9 12 20 15 11 3 20 12 20 20 0 9 6 17 14 19 12 3 12 6 -1 23 -13 16 -15
17 -10 3 4 -10 2 -18 -3 -18 -6 0 -10 4 -10 8 0 4 -16 25 -35 45 -19 20 -35
40 -35 45 0 15 47 29 70 20 33 -12 80 11 80 39 0 13 0 26 1 31 1 11 28 24 39
17 5 -3 13 13 16 35 4 23 15 49 24 58 10 10 20 28 23 42 3 14 10 42 15 62 7
26 6 38 -2 41 -12 4 28 104 49 122 7 6 10 20 9 33 -4 20 -2 21 17 12 15 -8 24
-8 34 0 10 8 23 5 53 -10 32 -17 45 -19 61 -11 12 6 30 16 41 21 11 6 27 10
35 10 18 0 35 40 38 90 2 31 5 35 28 32 37 -3 64 29 49 58 -6 11 -8 30 -5 40
4 13 -2 28 -19 45 -27 27 -33 45 -17 45 6 0 12 -4 16 -10 10 -16 37 1 30 19
-4 9 -8 26 -10 39 -3 24 -23 47 -68 76 -21 14 -27 15 -27 5 0 -11 -3 -11 -11
1 -8 11 -9 7 -6 -18 2 -22 -1 -37 -12 -45 -9 -7 -22 -24 -30 -38 -11 -22 -17
-26 -40 -19 -14 4 -35 3 -46 -2 -15 -7 -34 -3 -67 11 -35 15 -46 16 -42 6 4
-9 0 -12 -14 -8 -11 2 -23 0 -26 -6 -12 -18 -44 -12 -51 9 -3 11 -11 20 -16
20 -6 0 -8 4 -4 9 3 5 -7 11 -22 13 -19 2 -29 10 -31 23 -2 11 -14 28 -25 38
-22 18 -22 18 10 12 l32 -6 -9 32 c-5 18 -7 35 -5 38 3 2 -3 13 -12 24 -10 11
-12 17 -5 13 12 -7 12 -4 1 15 -7 13 -12 27 -11 31 1 5 -14 29 -34 54 -19 26
-33 53 -30 60 3 9 -2 14 -15 14 -16 0 -18 5 -13 25 7 27 -9 55 -32 55 -16 0
-104 58 -104 70 0 7 -26 18 -55 24 -22 4 -69 28 -97 47 -22 16 -32 19 -41 10
-6 -6 -16 -11 -23 -11 -16 0 -65 66 -67 90 -1 11 -8 22 -15 25 -12 4 -12 8 -1
22 8 10 9 14 2 10 -6 -4 -15 -2 -19 4 -4 7 -24 9 -59 4 -39 -4 -62 -2 -83 9
-16 8 -32 13 -35 9 -13 -12 -58 9 -69 32 -8 18 -15 22 -27 16 -9 -5 -20 -7
-26 -6 -5 2 -21 6 -35 9 -30 6 -99 70 -119 109 -8 15 -20 27 -27 27 -8 0 -16
10 -19 23 -4 14 -24 31 -57 47 -33 16 -59 39 -75 64 -24 38 -26 38 -74 34 -42
-4 -49 -2 -49 12 0 10 -7 20 -15 24 -8 3 -15 16 -15 29 0 13 -9 32 -20 42 -12
10 -20 31 -20 49 -1 37 -32 79 -57 74 -31 -5 -43 12 -43 57 0 24 -5 45 -11 47
-6 2 -12 21 -13 42 -2 27 -11 45 -27 57 -13 10 -18 19 -11 19 6 0 12 5 12 11
0 6 -7 8 -16 5 -8 -3 -28 4 -44 15 -15 12 -33 19 -38 15 -6 -3 -14 -1 -18 5
-5 9 -11 7 -19 -5 -13 -17 -48 -18 -73 -3 -19 12 -5 26 20 19 13 -3 19 -1 15
5 -4 6 0 14 9 17 24 9 5 28 -23 21 -16 -4 -22 -2 -18 5 10 16 -20 41 -33 28
-9 -9 -17 -7 -32 7 -21 19 -27 45 -10 45 22 0 8 30 -20 45 -40 21 -43 19 -38
-14 3 -22 0 -31 -12 -34 -11 -3 -19 -19 -24 -46 -6 -37 -9 -41 -36 -41 -17 0
-30 -5 -30 -10 0 -6 -10 -4 -22 4 -13 8 -42 14 -65 14 -24 -1 -49 4 -56 10 -7
6 -36 13 -65 16 -41 4 -52 2 -52 -9 0 -19 -30 -8 -48 17 -8 10 -26 18 -43 18
-19 0 -29 5 -30 15 -1 8 -2 21 -3 28 0 6 -8 13 -16 13 -8 1 -18 3 -22 4 -5 1
-13 3 -18 4 -6 0 -14 6 -18 13 -5 8 -24 4 -66 -13 -52 -21 -61 -22 -75 -10
-12 11 -21 12 -35 4 -13 -7 -25 -7 -42 1 -22 10 -26 8 -34 -15 -6 -14 -8 -29
-5 -34 9 -14 -40 -39 -58 -29 -15 9 -53 -4 -67 -23 -3 -4 -16 -6 -28 -3 -14 2
-25 -2 -29 -10 -3 -9 -19 -15 -38 -15 -18 0 -35 -5 -37 -11 -5 -16 -74 -38
-90 -28 -7 5 -23 9 -36 9 -12 0 -50 9 -82 20 -57 19 -62 19 -92 4 -23 -12 -33
-13 -36 -5 -2 7 -11 17 -19 24 -29 23 -78 74 -97 101 -16 24 -22 27 -55 21
-29 -5 -41 -2 -54 13 -20 22 -90 28 -120 11z m-1001 -3197 c6 -4 4 -13 -8 -24
-17 -17 -18 -17 -16 7 2 26 6 29 24 17z m4929 -3092 c3 -5 -1 -10 -9 -10 -8 0
-18 5 -21 10 -3 6 1 10 9 10 8 0 18 -4 21 -10z"/>
<path d="M6505 11580 c3 -5 10 -10 16 -10 5 0 9 5 9 10 0 6 -7 10 -16 10 -8 0
-12 -4 -9 -10z"/>
<path d="M12500 11000 c19 -13 30 -13 30 0 0 6 -10 10 -22 10 -19 0 -20 -2 -8
-10z"/>
<path d="M12051 9994 c0 -11 3 -14 6 -6 3 7 2 16 -1 19 -3 4 -6 -2 -5 -13z"/>
<path d="M12540 8730 c0 -11 6 -20 14 -20 8 0 16 -7 20 -15 7 -19 36 -20 36
-2 0 16 -42 57 -58 57 -7 0 -12 -9 -12 -20z m55 -30 c3 -5 1 -10 -4 -10 -6 0
-11 5 -11 10 0 6 2 10 4 10 3 0 8 -4 11 -10z"/>
<path d="M12485 8360 c-3 -5 1 -10 9 -10 9 0 16 5 16 10 0 6 -4 10 -9 10 -6 0
-13 -4 -16 -10z"/>
<path d="M13350 7376 c0 -8 -13 -30 -30 -48 -16 -18 -30 -38 -30 -45 0 -23 36
-14 63 17 15 17 35 30 45 30 33 0 32 13 -3 37 -40 27 -45 28 -45 9z"/>
<path d="M13410 7381 c0 -6 5 -13 10 -16 6 -3 10 1 10 9 0 9 -4 16 -10 16 -5
0 -10 -4 -10 -9z"/>
<path d="M13270 7281 c0 -5 -10 -11 -21 -14 -17 -5 -20 -11 -15 -29 3 -13 6
-33 6 -45 0 -13 5 -23 10 -23 6 0 10 6 10 14 0 7 7 19 15 26 10 9 12 16 6 24
-6 7 -8 22 -4 34 3 12 3 22 -1 22 -3 0 -6 -4 -6 -9z"/>
<path d="M13170 7161 c0 -13 8 -18 30 -18 37 0 34 18 -3 28 -22 6 -27 4 -27
-10z"/>
<path d="M12837 6487 c-4 -11 0 -20 13 -27 26 -14 39 -12 19 3 -9 7 -18 19
-21 26 -3 12 -6 12 -11 -2z"/>
<path d="M12732 6465 l-52 -24 17 -36 c10 -22 24 -35 35 -35 11 0 16 -4 13
-10 -10 -16 21 -12 35 5 10 12 9 16 -4 21 -19 7 -20 14 -4 51 11 27 18 53 15
53 -1 0 -26 -11 -55 -25z m25 -26 c2 -16 -1 -19 -9 -11 -5 5 -7 15 -4 21 10
15 12 14 13 -10z"/>
<path d="M12811 6474 c0 -11 3 -14 6 -6 3 7 2 16 -1 19 -3 4 -6 -2 -5 -13z"/>
<path d="M12455 6264 c-3 -19 -12 -34 -19 -34 -7 0 -13 -7 -13 -15 0 -22 30
-14 33 9 1 10 12 28 24 41 21 22 21 23 1 28 -15 4 -20 -2 -26 -29z"/>
</g>
</svg>
