<?xml version="1.0" standalone="no"?>
<!DOCTYPE svg PUBLIC "-//W3C//DTD SVG 20010904//EN"
 "http://www.w3.org/TR/2001/REC-SVG-20010904/DTD/svg10.dtd">
<svg version="1.0" xmlns="http://www.w3.org/2000/svg"
 width="437.809386pt" height="607.904200pt" viewBox="0 0 437.809386 607.904200"
 preserveAspectRatio="xMidYMid meet">
<metadata>
Created by potrace 1.15, written by Peter Selinger 2001-2017
</metadata>
<g transform="translate(-765.013968,1348.904200) scale(0.100000,-0.100000)"
fill="#222222" stroke="none">
<path d="M9245 13455 c-27 -18 -58 -40 -68 -49 -10 -9 -22 -14 -27 -11 -6 4
-10 -5 -10 -19 0 -19 -6 -25 -27 -28 -22 -2 -29 -10 -34 -35 -3 -18 -12 -40
-19 -48 -10 -13 -10 -21 -1 -43 7 -15 10 -24 6 -20 -4 4 -17 -12 -29 -35 -17
-31 -31 -44 -57 -51 -19 -6 -40 -18 -47 -28 -21 -29 -114 -94 -145 -102 -19
-4 -27 -12 -24 -21 8 -20 -40 -48 -70 -40 -20 5 -33 -1 -59 -27 -65 -65 -146
-128 -164 -128 -6 0 -8 -10 -4 -24 4 -18 -1 -28 -25 -45 -33 -24 -51 -21 -51
9 0 10 -5 22 -12 26 -8 5 -9 2 -5 -9 8 -21 -18 -73 -28 -57 -5 8 -12 6 -22 -7
-10 -13 -16 -15 -19 -5 -9 21 -43 14 -49 -11 -4 -14 -21 -28 -51 -41 -38 -16
-42 -20 -29 -30 12 -8 31 -9 70 -2 48 9 54 13 59 39 3 16 10 26 16 22 6 -4 8
-11 4 -16 -3 -6 4 -20 16 -31 25 -24 76 -18 66 8 -3 9 -1 12 4 9 9 -5 12 1 9
21 -2 13 23 21 59 20 29 -1 38 -6 40 -23 3 -17 -1 -20 -21 -16 -19 4 -26 0
-31 -19 -7 -22 -7 -22 -16 -3 -5 11 -9 14 -9 7 -1 -7 -5 -11 -10 -8 -5 4 -8
-1 -7 -10 4 -27 37 -44 83 -44 54 0 96 -25 88 -51 -4 -12 -1 -19 8 -19 37 0
116 -32 122 -50 5 -16 47 -44 142 -96 33 -18 100 -73 147 -120 23 -22 58 -53
78 -67 20 -15 40 -36 43 -47 3 -11 11 -20 17 -20 6 0 25 -13 43 -29 18 -16 37
-30 42 -32 17 -7 53 -67 53 -88 0 -31 21 -70 42 -76 10 -4 18 -16 18 -28 0
-27 35 -86 55 -94 9 -3 13 -12 10 -22 -5 -18 39 -51 51 -38 4 3 16 0 28 -8 11
-8 29 -15 39 -15 10 0 36 -10 57 -22 l39 -23 31 24 c30 22 32 22 51 5 10 -9
19 -22 19 -29 0 -7 9 -20 20 -30 20 -18 20 -17 20 12 0 17 -6 46 -14 64 -8 19
-12 46 -9 62 3 15 1 27 -5 27 -14 0 -58 71 -67 108 -3 18 -13 45 -20 60 -7 15
-16 48 -20 73 -6 38 -4 49 10 56 15 9 16 13 2 39 -24 47 -30 93 -15 111 7 9
17 30 23 47 5 17 17 31 25 31 22 0 32 35 19 66 -9 23 -8 32 5 51 9 12 16 31
16 41 0 10 9 31 19 45 15 21 18 43 17 103 -1 48 -6 82 -15 93 -10 12 -10 16
-1 16 7 0 10 8 7 20 -3 11 -1 23 5 26 5 3 13 17 18 30 5 13 16 24 25 24 8 0
15 4 15 9 0 5 3 16 6 25 4 11 -11 32 -47 65 -45 42 -51 51 -36 57 13 5 15 10
6 20 -6 7 -8 22 -4 33 4 12 0 30 -9 42 -19 28 -10 49 20 49 13 0 24 5 24 10 0
6 11 8 25 4 16 -4 25 -2 25 5 0 7 9 9 25 5 18 -4 25 -2 25 8 0 22 -11 28 -30
18 -13 -7 -22 -4 -35 10 -9 10 -22 17 -29 14 -6 -2 -31 12 -54 32 -30 25 -42
31 -42 20 0 -20 -5 -20 -35 0 -14 9 -22 20 -19 26 3 5 -1 19 -9 31 -8 12 -13
38 -12 57 4 48 -5 80 -21 80 -8 0 -14 4 -14 8 0 5 -7 17 -16 28 -12 15 -14 15
-11 3 4 -13 -2 -18 -29 -21 -24 -3 -35 0 -39 12 -3 8 -18 23 -34 32 -27 15
-29 15 -24 0 5 -12 2 -14 -12 -8 -11 4 -22 2 -27 -6 -6 -10 -17 -3 -41 25 -17
20 -34 37 -37 36 -3 -1 -27 -16 -55 -34z"/>
<path d="M7665 13272 c19 -9 19 -9 0 -20 -17 -10 -18 -13 -5 -21 11 -8 18 -5
25 10 11 19 12 19 35 -6 16 -17 21 -29 14 -33 -14 -9 -34 -68 -34 -102 0 -16
-10 -35 -25 -48 l-25 -22 19 -31 c13 -21 18 -42 14 -63 -4 -25 1 -37 29 -66
18 -19 33 -37 33 -40 0 -3 10 -19 23 -35 26 -32 67 -40 92 -16 10 9 15 10 18
2 2 -6 8 -11 13 -11 12 0 11 67 -1 90 -6 11 -11 40 -12 65 -1 25 -6 45 -10 45
-4 0 -8 6 -8 14 0 8 -6 21 -14 28 -19 20 -60 99 -62 121 -1 10 2 20 7 23 22
13 -43 112 -73 112 -13 0 -34 3 -48 6 -19 5 -20 4 -5 -2z"/>
<path d="M9980 13150 c0 -5 -8 -10 -19 -10 -11 0 -21 -9 -24 -21 -4 -15 -11
-20 -21 -16 -19 7 -19 6 -6 -27 5 -14 6 -26 2 -26 -10 0 -10 -71 1 -87 4 -6 5
-18 1 -26 -5 -15 21 -31 37 -21 5 3 9 -7 9 -21 0 -20 4 -26 18 -23 11 2 16 11
14 26 -4 26 5 28 36 6 31 -21 28 -5 -9 44 -17 23 -28 42 -24 42 4 0 1 7 -6 16
-7 9 -14 30 -15 46 -2 17 -8 35 -16 39 -20 13 -2 22 44 22 53 -1 83 12 53 22
-11 4 -28 11 -37 16 -23 12 -38 12 -38 -1z"/>
<path d="M7920 12750 c0 -11 7 -20 15 -20 9 0 18 -7 21 -15 3 -8 26 -28 52
-45 25 -16 39 -30 31 -31 -8 0 -1 -5 15 -11 16 -6 40 -23 52 -37 l23 -26 1 37
c0 38 -21 60 -48 51 -9 -4 -11 2 -6 21 8 35 -8 52 -55 60 -21 3 -44 13 -51 21
-18 22 -50 19 -50 -5z"/>
<path d="M7818 12732 c-9 -2 -15 -9 -12 -17 3 -7 -3 -15 -13 -18 -17 -5 -17
-5 0 -6 20 -1 51 24 45 37 -2 4 -11 6 -20 4z"/>
<path d="M7833 12684 c-4 -10 1 -22 12 -30 23 -17 28 -13 19 20 -7 29 -22 34
-31 10z"/>
<path d="M8315 12559 c-4 -5 -22 -7 -41 -3 -21 4 -40 2 -48 -6 -11 -8 -25 -9
-49 -2 -33 9 -36 8 -41 -14 -4 -13 -13 -24 -21 -24 -19 0 -19 -19 0 -26 8 -4
15 -14 15 -23 0 -26 30 -63 47 -57 9 4 19 -6 29 -29 16 -39 45 -60 62 -43 15
15 77 -8 96 -38 10 -14 26 -24 41 -24 13 0 26 -4 30 -9 8 -14 93 17 109 40 8
13 19 17 30 13 15 -6 17 -2 10 31 -5 30 -3 41 10 50 26 20 5 65 -31 65 -16 0
-41 9 -57 19 -17 11 -33 18 -38 15 -4 -3 -13 7 -20 21 -7 16 -17 24 -26 20 -8
-3 -24 3 -35 12 -11 10 -17 12 -13 6 4 -8 1 -13 -8 -13 -9 0 -16 4 -16 9 0 13
-28 22 -35 10z"/>
<path d="M8530 12257 c0 -10 8 -17 18 -17 9 0 13 4 7 8 -5 4 -13 11 -17 16 -5
5 -8 2 -8 -7z"/>
<path d="M8475 12235 c-16 -8 -38 -12 -47 -9 -22 7 -39 -24 -26 -46 9 -14 15
-15 34 -6 13 6 24 17 24 25 0 10 9 12 36 8 29 -5 35 -3 30 9 -3 9 -6 20 -6 25
0 12 -8 10 -45 -6z"/>
<path d="M8375 12140 c3 -5 8 -10 11 -10 2 0 4 5 4 10 0 6 -5 10 -11 10 -5 0
-7 -4 -4 -10z"/>
<path d="M9754 11519 c-3 -6 -2 -14 3 -18 37 -24 39 -95 3 -106 -11 -3 -20
-15 -20 -25 0 -21 -29 -92 -30 -72 0 7 -5 10 -10 7 -6 -4 -18 -1 -27 7 -15 11
-16 11 -10 -4 4 -12 1 -18 -9 -18 -11 0 -12 -4 -4 -19 8 -16 5 -23 -18 -40
-15 -11 -35 -28 -45 -38 -10 -10 -26 -18 -35 -18 -9 0 -18 -9 -20 -20 -3 -11
-9 -23 -15 -26 -6 -4 4 -22 25 -43 33 -34 50 -61 62 -99 4 -14 10 -16 24 -8
13 7 24 4 42 -11 14 -11 20 -21 15 -24 -6 -2 -9 -20 -7 -40 3 -23 -1 -41 -12
-53 -11 -12 -15 -27 -11 -44 5 -18 2 -28 -10 -35 -12 -6 -19 -25 -22 -57 -2
-27 -8 -55 -12 -64 -6 -9 -4 -23 5 -36 15 -22 9 -89 -6 -80 -14 9 -39 -6 -34
-20 9 -22 -26 -65 -52 -65 -26 0 -54 -34 -54 -67 0 -17 -6 -23 -22 -23 -21 0
-20 -2 10 -33 32 -33 41 -57 21 -57 -6 0 -4 -7 5 -15 9 -9 15 -34 15 -63 0
-26 1 -56 3 -67 2 -14 -2 -20 -14 -19 -10 1 -18 -2 -18 -6 0 -5 -12 -10 -27
-12 -22 -2 -28 -8 -29 -28 -1 -43 -4 -51 -14 -45 -18 11 -65 -38 -62 -63 3
-19 -1 -23 -20 -22 -43 4 -58 0 -58 -15 0 -8 -6 -12 -13 -9 -8 3 -20 -2 -27
-11 -16 -20 -59 -19 -88 1 -13 9 -29 13 -36 11 -8 -3 -18 5 -25 19 -6 13 -18
24 -27 24 -14 0 -13 -5 5 -36 12 -19 21 -50 21 -67 0 -37 38 -64 61 -43 9 8
10 8 5 -1 -4 -7 -2 -13 3 -13 6 0 23 -13 37 -29 23 -27 29 -28 53 -18 14 6 29
16 33 22 4 5 10 2 14 -8 13 -34 40 -18 35 20 -2 10 4 10 23 2 20 -10 31 -8 61
11 27 17 35 28 32 42 -6 23 4 21 63 -17 50 -31 66 -67 51 -111 -6 -17 -11 -42
-11 -57 0 -24 2 -25 38 -20 20 3 39 10 40 15 2 4 28 8 57 8 55 0 72 11 67 41
-3 20 47 33 66 17 6 -6 12 -7 12 -3 0 4 6 2 14 -4 17 -14 84 11 108 42 l16 21
13 -28 c7 -15 31 -37 52 -48 33 -16 44 -18 62 -8 17 9 35 9 70 2 34 -7 53 -7
66 1 13 8 23 7 43 -6 16 -11 26 -13 26 -6 0 7 13 9 39 4 34 -6 41 -3 61 22 12
15 19 20 16 11 -8 -28 28 -136 57 -169 15 -17 27 -39 27 -48 0 -22 25 -56 41
-56 8 0 18 -9 24 -20 6 -12 17 -19 28 -17 10 2 25 -5 35 -16 9 -11 31 -22 49
-25 27 -5 32 -3 37 18 12 47 29 28 23 -25 -5 -44 -4 -50 13 -50 20 0 36 -16
21 -22 -5 -1 3 -22 19 -45 27 -40 28 -42 9 -48 -10 -4 -19 -15 -19 -25 0 -11
-10 -20 -25 -24 -29 -7 -45 -66 -25 -91 18 -21 32 -18 25 5 -4 12 -2 20 5 20
6 0 18 7 26 15 9 8 24 15 35 15 10 0 19 4 19 10 0 5 9 14 21 20 23 13 40 -2
59 -49 8 -19 15 -22 36 -17 17 5 35 1 50 -9 22 -14 24 -14 40 10 21 32 41 32
56 0 l12 -26 23 26 c13 14 33 25 43 25 14 0 20 7 20 23 0 21 55 67 79 67 15 0
19 23 9 49 -6 18 -5 22 6 18 13 -5 63 50 58 66 -1 4 9 18 23 31 20 19 24 30
19 50 -4 19 -2 26 8 26 9 0 20 17 27 39 6 22 27 63 46 91 19 29 35 57 35 64 0
6 5 4 10 -4 8 -13 10 -12 10 3 0 9 -4 17 -10 17 -5 0 -10 9 -10 19 0 25 -30
32 -52 13 -16 -13 -18 -13 -24 2 -3 9 -17 16 -33 16 -18 0 -43 16 -79 50 -28
27 -52 54 -52 59 0 5 -9 16 -21 24 -11 8 -21 21 -22 28 -2 8 -15 37 -31 64
-34 62 -47 151 -22 161 26 10 22 90 -8 128 -46 61 -54 87 -50 163 3 42 0 74
-6 78 -5 3 -10 14 -10 24 0 10 -7 24 -15 31 -13 11 -13 15 -3 21 17 11 -2 43
-28 47 -10 2 -24 10 -30 18 -17 22 -25 -6 -14 -46 6 -20 5 -28 -1 -24 -7 4 -9
-14 -6 -50 5 -51 3 -59 -20 -82 -14 -14 -31 -23 -39 -20 -8 3 -14 1 -14 -4 0
-6 -12 -10 -27 -10 -33 -1 -61 -20 -56 -37 3 -8 -4 -13 -16 -13 -12 0 -21 -4
-21 -10 0 -11 -59 -2 -78 13 -7 5 -15 7 -18 4 -9 -9 6 -28 17 -22 5 4 9 -1 9
-9 0 -9 -4 -16 -9 -16 -5 0 -23 -11 -39 -25 -19 -15 -33 -21 -37 -15 -3 5 1
10 10 10 12 0 15 5 10 18 -3 9 -12 37 -18 60 -7 28 -22 51 -39 63 -17 12 -30
33 -34 54 -3 18 -14 41 -24 50 -10 9 -16 23 -13 31 3 8 2 22 -2 32 -4 9 -8 35
-9 56 -1 35 -7 43 -49 72 -73 50 -79 59 -90 140 -9 60 -14 74 -28 74 -10 0
-25 10 -33 22 -9 12 -16 19 -16 14 0 -5 -10 -2 -22 6 -13 8 -36 18 -51 22 -15
3 -25 11 -22 16 3 5 -5 12 -17 16 -13 4 -35 16 -51 28 -26 19 -28 25 -23 66 3
25 1 52 -4 60 -7 11 -10 11 -10 2 0 -7 -4 -11 -9 -8 -5 3 -9 23 -9 45 -1 42
-19 81 -38 81 -19 0 -57 36 -60 56 -11 74 -30 103 -67 104 -18 0 -50 29 -107
99 -27 32 -44 38 -56 20z m1138 -1236 c4 -2 2 -17 -4 -34 l-11 -31 -13 32 c-8
18 -14 36 -14 41 0 7 21 4 42 -8z m-212 -103 c0 -5 -2 -10 -4 -10 -3 0 -8 5
-11 10 -3 6 -1 10 4 10 6 0 11 -4 11 -10z m223 -66 c21 -14 42 -37 47 -50 6
-14 14 -22 20 -19 5 3 10 1 10 -4 0 -18 -16 -12 -44 16 -21 21 -29 24 -35 14
-11 -18 -51 21 -51 49 0 26 8 25 53 -6z m-1759 -245 c-6 -11 -24 -2 -24 11 0
5 7 7 15 4 8 -4 12 -10 9 -15z m1560 -11 c18 -36 20 -58 6 -58 -6 0 -20 -15
-31 -34 -11 -19 -28 -36 -38 -39 -12 -3 -22 -18 -26 -38 -12 -53 -55 -103 -55
-64 0 8 -5 15 -11 15 -5 0 -8 4 -5 8 3 5 -6 25 -19 45 -27 40 -32 59 -12 56
23 -4 45 12 40 30 -3 14 3 20 26 24 18 4 31 13 31 21 0 8 10 16 23 18 14 2 23
11 25 26 5 32 28 27 46 -10z m-109 -8 c3 -5 2 -10 -4 -10 -5 0 -13 5 -16 10
-3 6 -2 10 4 10 5 0 13 -4 16 -10z m205 -715 c0 -9 -6 -12 -15 -9 -8 4 -15 10
-15 15 0 5 7 9 15 9 8 0 15 -7 15 -15z"/>
<path d="M10820 10371 c0 -13 6 -18 18 -16 9 2 25 4 35 4 16 1 17 3 3 16 -21
22 -56 19 -56 -4z"/>
<path d="M9026 9844 c-3 -9 -13 -14 -20 -11 -10 4 -14 -1 -13 -14 2 -33 52
-21 59 15 4 24 -17 33 -26 10z"/>
<path d="M11108 9008 c-3 -18 -8 -41 -13 -50 -6 -14 2 -22 38 -37 47 -20 57
-35 57 -83 0 -16 9 -41 20 -55 11 -14 20 -31 20 -37 0 -7 15 -27 34 -45 35
-34 36 -39 11 -96 -7 -16 -18 -42 -24 -57 -7 -20 -18 -28 -34 -28 -20 0 -23
-4 -19 -30 3 -20 0 -30 -9 -30 -7 0 4 -16 25 -35 27 -25 37 -41 33 -55 -6 -22
13 -42 46 -45 53 -7 72 -22 91 -74 10 -28 22 -51 27 -51 5 0 9 -8 9 -19 0 -10
9 -30 21 -45 11 -15 22 -32 23 -39 3 -22 36 -24 36 -2 0 8 -4 15 -8 15 -5 0
-14 12 -21 28 l-12 27 26 -27 c24 -26 36 -32 51 -25 12 5 32 -48 25 -68 -10
-27 -2 -58 13 -52 7 3 18 -4 24 -14 7 -10 20 -19 31 -19 10 0 23 -10 29 -22
l11 -23 0 22 c1 12 -3 25 -9 28 -16 10 -12 73 6 83 14 8 13 12 -9 35 -13 15
-32 48 -42 74 -10 27 -22 54 -28 61 -11 14 5 38 33 47 20 6 34 85 17 96 -12 9
-17 78 -5 85 4 3 -1 18 -11 33 -15 21 -19 37 -14 64 4 27 -1 45 -21 79 -14 23
-26 39 -26 34 0 -5 -7 -3 -15 4 -11 9 -12 17 -4 32 6 11 7 27 3 36 -4 9 -9 27
-10 40 -2 13 -23 42 -48 65 -31 30 -46 54 -51 81 -7 32 -14 40 -49 56 -40 17
-43 17 -93 -3 l-53 -20 -50 47 c-59 55 -76 58 -82 14z"/>
<path d="M10733 8990 c-1 -11 2 -18 8 -15 11 7 12 35 1 35 -4 0 -8 -9 -9 -20z"/>
<path d="M11048 8356 c-9 -8 -27 -18 -42 -22 -32 -8 -41 -21 -27 -38 15 -17
79 -26 109 -15 20 8 21 11 10 31 -7 13 -12 26 -13 30 0 4 -5 12 -11 18 -8 8
-15 7 -26 -4z"/>
<path d="M11054 8215 c-3 -19 -11 -35 -18 -35 -6 -1 -1 -9 12 -19 12 -11 22
-24 22 -29 0 -6 9 -14 20 -17 11 -3 20 -11 20 -16 0 -6 4 -8 9 -5 5 4 19 -14
31 -39 18 -37 20 -50 11 -76 -7 -22 -7 -35 1 -48 14 -23 70 -53 103 -57 27 -3
92 -52 88 -66 -2 -4 1 -8 7 -8 6 0 10 5 10 10 0 6 7 10 15 10 8 0 15 6 15 13
0 9 18 11 72 7 64 -4 74 -8 83 -28 6 -12 16 -20 23 -17 8 3 25 5 38 5 13 0 24
6 24 13 0 7 6 19 12 25 10 10 18 6 40 -20 14 -18 30 -30 34 -26 4 4 1 14 -6
23 -7 9 -10 18 -7 22 4 3 9 -2 13 -11 3 -9 12 -16 20 -16 10 0 11 6 4 25 -6
15 -6 26 0 30 15 9 12 28 -4 22 -7 -3 -18 -1 -23 4 -5 5 -26 11 -46 12 -21 2
-47 13 -60 25 -13 12 -28 22 -34 22 -6 0 -17 14 -25 30 -11 27 -55 60 -79 60
-4 0 -9 -15 -11 -32 -2 -24 -9 -34 -23 -37 -11 -2 -23 -8 -27 -14 -4 -7 -16
-1 -33 17 -20 21 -29 26 -35 16 -13 -20 -21 6 -11 33 8 20 6 27 -5 31 -8 3
-12 10 -9 16 3 5 0 19 -9 31 -13 20 -14 20 -19 2 -4 -14 -5 -15 -6 -2 -1 21
-31 34 -31 14 0 -8 -9 -15 -20 -15 -11 0 -28 -5 -38 -11 -32 -20 -68 5 -97 64
-14 30 -25 64 -25 75 0 35 -18 25 -26 -13z"/>
<path d="M11528 8071 c-12 -4 -15 -10 -9 -20 8 -12 12 -12 25 2 18 18 10 28
-16 18z"/>
<path d="M11676 7743 c-6 -14 -5 -15 5 -6 7 7 10 15 7 18 -3 3 -9 -2 -12 -12z"/>
<path d="M11703 7689 c3 -11 -2 -33 -11 -49 -16 -27 -15 -30 2 -49 11 -12 25
-21 31 -21 7 0 18 -7 25 -15 7 -8 19 -15 27 -15 8 0 28 -10 45 -21 33 -24 50
-14 41 22 -3 10 0 19 6 19 5 0 8 7 5 15 -4 10 -13 13 -25 10 -12 -4 -21 -1
-25 9 -3 9 -14 16 -23 16 -25 0 -77 58 -73 81 2 12 -3 19 -14 19 -12 0 -15 -6
-11 -21z"/>
<path d="M11894 7489 c-3 -6 -18 -9 -31 -6 l-25 5 26 -25 c14 -13 26 -28 26
-32 0 -5 11 -6 25 -3 27 5 31 21 15 53 -12 21 -25 25 -36 8z"/>
<path d="M11983 7441 c-12 -19 -8 -31 9 -31 5 0 7 4 4 9 -3 5 4 11 17 15 18 5
20 8 7 16 -21 13 -24 13 -37 -9z"/>
</g>
</svg>
