<?xml version="1.0" standalone="no"?>
<!DOCTYPE svg PUBLIC "-//W3C//DTD SVG 20010904//EN"
 "http://www.w3.org/TR/2001/REC-SVG-20010904/DTD/svg10.dtd">
<svg version="1.0" xmlns="http://www.w3.org/2000/svg"
 width="649.982607pt" height="883.435807pt" viewBox="0 0 649.982607 883.435807"
 preserveAspectRatio="xMidYMid meet">
<metadata>
Created by potrace 1.15, written by Peter Selinger 2001-2017
</metadata>
<g transform="translate(-651.367108,1383.000000) scale(0.100000,-0.100000)"
fill="#222222" stroke="none">
<path d="M11397 13814 c3 -8 12 -14 20 -14 13 0 13 -3 3 -15 -7 -9 -10 -19 -6
-22 4 -4 11 -1 16 7 7 10 10 11 10 3 0 -7 5 -13 11 -13 6 0 8 9 4 21 -6 18 -4
20 13 15 16 -5 19 -3 16 11 -4 14 -16 18 -49 19 -33 1 -42 -2 -38 -12z"/>
<path d="M11495 13820 c3 -5 11 -10 16 -10 6 0 7 5 4 10 -3 6 -11 10 -16 10
-6 0 -7 -4 -4 -10z"/>
<path d="M11500 13764 c-18 -19 -31 -23 -49 -19 -35 9 -57 -27 -23 -39 9 -3
24 -9 32 -14 42 -25 60 -31 60 -23 0 6 -4 13 -10 16 -19 12 -11 33 10 28 15
-4 19 -1 15 9 -3 7 3 23 14 35 17 18 18 22 5 27 -24 9 -29 8 -54 -20z"/>
<path d="M11360 13703 c0 -25 0 -26 20 -8 11 10 20 22 20 27 0 4 -9 8 -20 8
-15 0 -20 -7 -20 -27z"/>
<path d="M11560 13685 c0 -14 5 -25 10 -25 6 0 10 2 10 4 0 2 3 11 6 19 3 8
-2 17 -10 20 -12 5 -16 0 -16 -18z"/>
<path d="M11610 13641 c0 -11 4 -22 9 -26 15 -9 8 -46 -11 -56 -10 -5 -15 -16
-11 -25 8 -21 -17 -65 -36 -62 -20 4 -26 -28 -10 -49 31 -36 65 -35 118 4 3 2
-4 9 -14 17 -18 13 -18 14 3 25 25 13 30 67 10 104 -7 12 -12 36 -13 52 0 23
-6 31 -23 33 -16 3 -22 -2 -22 -17z"/>
<path d="M11940 13508 c0 -32 -23 -105 -37 -119 -9 -9 -16 -9 -28 1 -13 10
-15 9 -15 -9 0 -11 4 -21 10 -21 10 0 6 -58 -11 -144 -8 -44 -7 -52 15 -81 13
-17 27 -45 29 -61 3 -16 3 -3 2 29 -2 31 1 57 6 57 6 0 15 14 21 31 7 20 15
28 25 25 7 -3 16 1 20 10 3 8 12 13 19 10 16 -6 19 10 4 19 -13 8 -13 35 1 35
18 0 46 33 31 38 -6 2 -12 16 -12 31 0 16 -12 45 -26 66 l-25 38 28 -6 28 -5
-23 18 c-12 10 -22 23 -22 29 0 6 -9 15 -20 21 -17 9 -20 8 -20 -12z"/>
<path d="M11505 13440 c3 -5 11 -10 16 -10 6 0 7 5 4 10 -3 6 -11 10 -16 10
-6 0 -7 -4 -4 -10z"/>
<path d="M11571 13361 c-12 -12 -26 -33 -32 -47 -8 -22 -13 -25 -37 -19 -15 4
-31 13 -35 21 -7 12 -15 9 -43 -16 -40 -35 -35 -33 -70 -20 -18 7 -30 7 -40 0
-9 -8 -19 -8 -35 0 -17 9 -23 9 -29 0 -8 -13 -40 41 -40 67 0 10 -12 13 -47 9
-82 -7 -111 -17 -117 -38 -3 -13 -10 -18 -19 -15 -10 4 -13 0 -10 -13 3 -10
15 -21 26 -24 14 -4 18 -9 11 -13 -6 -5 -16 -18 -23 -30 -9 -19 -8 -28 5 -48
9 -14 14 -32 10 -40 -8 -22 32 -141 68 -199 34 -56 46 -136 20 -136 -7 0 -14
-9 -14 -19 0 -10 -7 -21 -15 -25 -20 -7 -19 -23 6 -57 12 -17 19 -39 16 -50
-3 -10 -1 -17 3 -14 17 11 21 -16 4 -32 -16 -16 -15 -18 5 -31 16 -11 21 -25
21 -57 0 -60 -11 -106 -23 -98 -7 4 -8 -11 -3 -43 5 -40 3 -52 -11 -65 -10 -9
-25 -26 -33 -38 -8 -12 -20 -19 -27 -17 -7 3 -18 -5 -24 -17 -7 -12 -18 -26
-25 -30 -8 -4 -14 -16 -14 -25 0 -9 -7 -26 -15 -36 -8 -11 -15 -28 -15 -38 0
-10 -7 -30 -16 -43 -9 -14 -14 -34 -11 -44 3 -12 -1 -22 -11 -26 -12 -4 -13
-8 -4 -17 20 -20 15 -66 -7 -73 -19 -6 -19 -7 5 -42 14 -21 22 -43 18 -52 -3
-9 -9 -24 -11 -33 -3 -11 -15 -18 -28 -18 -19 0 -24 -7 -29 -37 -13 -73 -13
-118 0 -144 7 -15 10 -42 7 -67 -5 -35 -3 -42 11 -42 13 0 16 -5 11 -22 -4
-13 -8 -25 -8 -28 -1 -3 9 -24 21 -47 26 -50 26 -53 7 -53 -12 0 -13 -3 -3
-19 7 -11 16 -17 20 -15 4 3 8 -1 8 -9 0 -10 12 -14 39 -14 22 0 46 -7 54 -14
16 -17 14 -48 -4 -59 -6 -5 -9 -15 -6 -24 4 -9 1 -16 -5 -16 -6 0 -3 -9 8 -21
10 -11 26 -18 35 -16 10 3 26 -3 36 -13 55 -55 84 -92 80 -103 -2 -7 3 -17 12
-24 14 -10 14 -14 -5 -35 -12 -13 -32 -42 -45 -66 -16 -30 -32 -45 -53 -50
-24 -6 -32 -15 -34 -36 -2 -17 -12 -31 -27 -38 -14 -6 -22 -15 -19 -20 4 -6 1
-21 -6 -34 -10 -18 -17 -21 -31 -13 -19 10 -24 3 -20 -28 1 -7 -3 -13 -8 -13
-5 0 -13 -9 -16 -20 -3 -11 -13 -20 -22 -20 -11 0 -14 -6 -10 -22 5 -18 0 -26
-20 -35 -15 -7 -32 -13 -39 -13 -6 0 -14 -14 -18 -32 -5 -24 -9 -29 -18 -20
-18 18 -35 15 -41 -7 -3 -14 -11 -17 -31 -14 -16 3 -26 1 -26 -7 0 -20 -23 -5
-40 25 -9 16 -29 33 -45 38 -25 9 -31 6 -49 -16 -30 -37 -61 -45 -143 -40
l-72 6 -7 -52 c-3 -28 -12 -55 -18 -59 -6 -5 -38 -18 -71 -28 -64 -19 -85 -34
-85 -57 0 -8 -9 -17 -20 -20 -11 -3 -20 -14 -20 -25 0 -25 -23 -44 -44 -36
-11 4 -16 1 -16 -10 0 -9 -8 -16 -17 -16 -10 -1 -27 -15 -38 -33 -33 -53 -79
-77 -131 -70 -44 6 -44 5 -35 -19 6 -15 5 -31 -1 -42 -7 -12 -7 -26 1 -42 9
-20 8 -24 -5 -24 -12 0 -14 -7 -8 -35 5 -27 3 -36 -10 -41 -10 -4 -16 -18 -16
-39 0 -19 -5 -37 -10 -40 -7 -4 -7 -12 0 -25 8 -15 3 -30 -20 -71 -17 -28 -29
-58 -25 -67 3 -8 0 -21 -7 -29 -7 -8 -11 -29 -10 -45 2 -26 0 -30 -18 -25 -16
4 -19 1 -14 -17 7 -30 -36 -54 -68 -39 -13 6 -38 14 -57 17 -27 5 -32 3 -27
-10 3 -9 6 -20 6 -24 0 -5 12 -3 26 5 25 13 29 12 55 -15 33 -32 35 -40 13
-40 -8 0 -12 -4 -9 -10 6 -10 -56 -40 -84 -40 -9 0 -29 -7 -44 -15 -16 -8 -40
-16 -55 -17 -24 -3 -26 0 -27 34 0 24 5 38 12 38 19 0 27 48 12 66 -11 13 -11
15 2 14 7 -1 28 -2 44 -1 28 2 29 2 10 13 -26 16 -58 21 -50 8 3 -5 -1 -10
-10 -10 -9 0 -14 4 -11 9 3 5 -1 14 -9 21 -8 7 -15 23 -15 36 0 13 -5 24 -11
24 -7 0 -9 12 -5 33 6 33 -7 67 -21 53 -4 -4 -8 -18 -8 -29 0 -17 -7 -23 -28
-25 -16 -2 -31 -10 -33 -17 -3 -8 -12 -11 -20 -8 -10 4 -14 -3 -14 -26 0 -24
-4 -31 -20 -31 -11 0 -23 -7 -26 -15 -4 -8 -14 -15 -24 -15 -9 0 -25 -9 -35
-20 -10 -11 -28 -20 -41 -20 -12 0 -25 -6 -28 -12 -3 -9 -8 -8 -16 5 -11 18
-13 18 -32 -3 -16 -17 -27 -20 -61 -15 -41 6 -42 6 -70 -40 -15 -26 -25 -50
-22 -55 9 -14 -31 -18 -50 -4 -13 10 -21 11 -25 3 -5 -6 -18 -1 -37 15 -17 14
-41 26 -54 27 -13 0 -33 4 -44 8 -11 4 -35 4 -54 -1 -28 -8 -36 -7 -43 6 -5 9
-18 16 -29 16 -11 0 -43 12 -71 26 -57 29 -88 37 -88 23 0 -16 -30 -10 -47 10
-21 25 -35 17 -27 -13 4 -16 0 -25 -10 -29 -9 -4 -16 -15 -16 -26 0 -11 -5
-23 -10 -26 -6 -4 -7 -11 -4 -17 4 -6 2 -13 -4 -17 -6 -4 -7 -21 -2 -46 4 -22
8 -36 9 -32 0 5 11 1 23 -7 12 -9 32 -16 43 -16 24 0 128 -108 121 -126 -3 -7
5 -34 18 -59 19 -41 29 -50 71 -64 45 -16 48 -18 50 -56 1 -22 5 -49 7 -59 5
-22 28 -34 28 -16 0 10 3 10 15 0 8 -7 13 -16 10 -20 -2 -4 4 -15 15 -25 23
-21 75 -13 66 10 -4 11 2 15 20 15 28 0 56 -22 52 -41 -2 -6 3 -14 10 -16 6
-3 12 0 12 7 0 8 6 8 20 0 23 -12 26 -33 6 -49 -8 -7 -12 -21 -8 -33 4 -16 2
-20 -10 -15 -19 7 -44 -43 -34 -68 3 -8 1 -15 -4 -15 -5 0 -10 -10 -12 -22 -2
-19 -10 -24 -45 -26 -32 -2 -41 -7 -36 -18 3 -7 1 -14 -5 -14 -5 0 -12 7 -16
15 -3 8 -15 15 -26 15 -14 0 -19 4 -14 12 4 7 3 8 -5 4 -8 -5 -6 -15 9 -36 11
-15 20 -35 20 -44 0 -9 8 -16 18 -17 10 0 6 -5 -11 -11 -26 -9 -28 -14 -23
-44 5 -26 2 -38 -15 -55 -13 -13 -19 -28 -16 -40 4 -15 -1 -23 -19 -30 -38
-14 -93 -11 -110 6 -9 8 -23 15 -33 15 -10 0 -26 9 -36 20 -20 22 -80 45 -94
36 -5 -4 -12 -2 -16 4 -9 15 -25 12 -25 -5 0 -18 -13 -19 -56 -3 -26 9 -39 9
-56 0 -13 -6 -31 -11 -41 -9 -14 1 -22 -8 -30 -33 -8 -24 -24 -41 -51 -57 -23
-12 -48 -37 -58 -58 -11 -19 -23 -33 -28 -30 -6 4 -10 -3 -10 -13 0 -19 -39
-76 -40 -59 0 12 -36 -26 -44 -47 -6 -17 -14 -18 -86 -13 -73 6 -81 5 -100
-15 -11 -12 -20 -25 -20 -30 0 -4 -16 -14 -35 -22 -25 -11 -37 -23 -41 -43 -4
-20 -17 -34 -48 -49 -40 -19 -44 -19 -72 -4 -43 25 -76 31 -92 17 -11 -9 -18
-7 -31 9 -9 11 -21 19 -27 17 -5 -2 -18 19 -28 46 -9 27 -32 65 -50 86 l-34
37 -21 -21 c-19 -19 -25 -34 -22 -54 1 -7 -30 -3 -67 9 -7 2 -23 -2 -37 -8
-18 -8 -32 -8 -57 3 -18 8 -36 13 -40 11 -4 -1 -19 3 -33 8 -29 11 -30 8 -11
-28 24 -44 37 -94 27 -106 -5 -6 -7 -19 -5 -29 2 -15 -2 -18 -18 -14 -14 4
-22 0 -25 -14 -6 -22 -42 -26 -62 -7 -10 9 -12 9 -7 1 4 -7 -13 -32 -39 -58
-38 -40 -49 -46 -71 -41 -37 10 -94 -11 -94 -33 0 -10 -8 -29 -18 -42 -34 -46
-43 -80 -36 -136 5 -45 4 -53 -10 -53 -15 0 -15 -2 0 -25 9 -13 14 -30 11 -37
-2 -7 0 -21 5 -31 7 -13 4 -19 -15 -26 -19 -7 -23 -15 -20 -34 3 -14 0 -28 -6
-31 -18 -12 -12 -58 10 -82 13 -14 19 -29 15 -41 -5 -15 -14 -18 -53 -15 -45
3 -47 2 -29 -13 19 -14 19 -16 2 -28 -16 -12 -14 -14 21 -26 21 -7 43 -11 48
-10 6 2 25 -10 44 -26 103 -89 121 -109 121 -130 0 -22 57 -102 96 -136 22
-19 82 -30 87 -16 4 12 67 -1 67 -13 0 -5 -4 -12 -10 -15 -5 -3 -10 -15 -10
-26 0 -10 -6 -19 -14 -19 -21 0 -27 -50 -7 -57 14 -4 61 -24 70 -30 1 -1 -9
-17 -23 -36 -18 -24 -23 -36 -15 -44 8 -8 8 -13 0 -17 -8 -5 -6 -16 4 -35 14
-28 13 -29 -20 -47 -20 -10 -38 -27 -41 -36 -3 -10 -10 -18 -15 -18 -16 0 -10
-25 13 -49 38 -42 34 -135 -8 -145 -14 -4 -21 -11 -18 -20 3 -7 -2 -16 -10
-19 -9 -4 -16 -16 -16 -28 0 -12 -8 -28 -17 -35 -17 -12 -17 -14 1 -27 22 -16
29 -55 14 -74 -6 -7 -8 -18 -5 -26 3 -9 -6 -11 -36 -8 -36 3 -40 2 -29 -12 10
-11 21 -13 50 -6 32 7 40 6 55 -13 15 -18 20 -20 28 -7 5 7 9 19 9 25 0 27 63
73 113 84 98 20 159 17 194 -8 18 -13 46 -25 62 -27 35 -4 80 -34 81 -54 0
-19 51 -5 68 18 11 16 19 17 50 10 52 -12 62 -11 56 6 -4 10 0 15 15 15 24 0
45 34 38 61 -3 10 -4 19 -4 19 1 0 23 -11 50 -24 62 -32 103 -67 111 -97 4
-13 31 -45 59 -71 48 -44 51 -49 36 -64 -15 -15 -14 -18 19 -48 33 -31 34 -35
24 -64 -11 -32 3 -48 14 -17 5 13 9 13 35 0 25 -14 28 -14 23 0 -8 19 5 19 31
1 11 -7 23 -14 28 -14 4 0 22 -4 39 -7 24 -6 35 -3 44 10 13 17 14 17 20 1 4
-11 2 -21 -6 -26 -7 -4 -9 -13 -5 -20 4 -7 -1 -13 -14 -17 -11 -3 -18 -9 -15
-14 3 -5 0 -9 -7 -9 -8 0 -6 -7 5 -19 14 -16 15 -20 2 -30 -11 -10 -12 -19 -4
-42 5 -16 14 -29 18 -29 5 0 6 -16 3 -35 -5 -32 -4 -35 13 -28 11 3 22 11 27
17 4 7 9 2 13 -11 4 -13 10 -23 16 -23 5 0 4 9 -2 20 -9 16 -8 20 5 20 8 0 15
-5 15 -11 0 -6 6 -9 14 -6 15 6 56 -19 56 -34 0 -5 -9 -9 -21 -9 -12 0 -19 -5
-16 -12 3 -9 23 -12 65 -10 62 2 62 2 61 -25 l0 -28 -15 22 c-18 25 -44 20
-44 -8 0 -12 7 -19 18 -19 24 0 42 -19 42 -46 0 -13 8 -24 20 -27 11 -3 20 -1
20 4 0 5 18 9 40 9 39 0 40 -1 40 -35 0 -19 5 -35 10 -35 6 0 10 -9 10 -21 0
-11 4 -17 10 -14 6 4 17 1 25 -5 8 -7 22 -9 31 -6 10 4 26 -5 44 -24 15 -16
33 -30 39 -30 6 0 11 -8 11 -19 0 -10 9 -21 20 -24 15 -4 20 0 20 14 0 16 3
17 24 8 19 -9 29 -7 50 6 14 10 25 25 24 34 -2 12 4 15 29 13 23 -2 35 3 47
20 13 18 16 19 16 6 0 -24 36 -43 44 -23 7 18 91 21 133 3 15 -6 32 -10 36 -9
5 1 21 -8 37 -19 29 -21 30 -21 46 -1 14 15 22 17 45 9 33 -11 79 13 79 43 0
11 5 19 11 19 5 0 7 5 4 10 -4 6 9 26 29 45 20 18 36 37 36 42 0 5 9 16 20 26
11 9 20 28 20 42 0 24 12 30 48 26 7 -1 28 3 45 8 32 11 32 12 31 73 -1 35 -5
71 -9 82 -7 16 -5 17 12 8 38 -21 133 14 133 49 0 16 4 19 20 14 12 -4 20 -2
20 5 0 6 6 10 13 7 20 -7 78 29 93 58 10 20 11 31 2 50 -6 14 -15 25 -20 25
-16 0 -8 17 15 29 18 10 22 19 19 42 -2 16 1 35 7 43 7 9 9 29 5 55 -6 40 16
111 35 111 4 0 13 11 19 25 6 14 17 25 25 25 13 0 47 34 47 48 0 5 6 16 13 27
13 17 15 17 35 -3 28 -28 42 -28 42 -1 0 11 11 35 25 53 14 18 25 36 25 39 0
12 -28 7 -33 -5 -3 -7 -6 -2 -7 12 l-1 25 -24 -28 -25 -28 0 30 c0 28 19 85
42 121 4 8 11 23 14 33 4 9 11 17 16 17 6 0 8 11 6 25 -3 14 -1 25 4 25 6 0 0
8 -12 18 -13 10 -24 28 -25 40 -1 12 -10 31 -21 43 l-19 22 30 -8 c66 -17 93
-12 117 20 13 16 28 42 35 57 6 14 20 29 32 33 17 5 19 10 11 31 -9 21 -7 24
15 24 18 0 25 5 25 19 0 10 11 26 25 35 14 9 25 25 25 36 0 11 6 20 14 20 16
0 26 30 26 86 0 49 31 94 65 94 14 0 25 7 28 20 3 11 12 20 21 20 23 0 100 81
97 103 -2 12 5 17 21 17 33 0 83 48 98 93 7 21 9 41 6 44 -3 3 1 21 9 40 14
32 11 63 -5 63 -14 0 -18 53 -5 66 8 9 12 32 9 68 -2 31 0 58 6 61 16 10 1 45
-32 78 -22 22 -26 32 -18 42 7 8 8 28 4 50 -6 33 -3 40 21 59 24 19 26 25 16
43 -16 31 -14 66 7 84 50 45 90 114 84 147 -2 12 -16 29 -33 37 -16 9 -29 24
-29 34 0 9 -12 28 -26 42 -22 20 -25 30 -21 66 3 28 0 46 -9 54 -7 6 -10 17
-7 25 7 18 -16 73 -31 76 -13 1 -18 2 -65 13 -24 6 -36 16 -43 37 -13 37 -83
76 -92 52 -4 -10 -14 -14 -26 -11 -11 3 -20 1 -20 -3 0 -5 -16 -6 -34 -3 -25
4 -40 1 -51 -11 -9 -9 -23 -16 -30 -16 -20 0 -49 46 -39 62 22 35 -11 98 -52
98 -13 0 -26 5 -29 10 -3 6 -15 10 -25 10 -10 0 -26 10 -35 23 -14 20 -14 22
0 25 17 4 20 23 5 38 -7 7 -4 16 10 29 12 11 20 13 20 6 0 -7 4 -10 9 -6 5 3
12 1 16 -4 3 -6 12 -8 20 -5 11 5 12 10 2 25 -6 10 -18 19 -25 19 -14 0 -8 34
10 57 13 16 1 51 -20 56 -9 2 -27 0 -39 -4 -15 -6 -23 -3 -28 8 -8 24 44 64
67 52 20 -11 31 2 22 25 -3 9 -1 23 6 31 10 12 10 21 1 41 -10 23 -9 26 9 31
11 3 20 14 20 24 0 26 35 81 45 71 5 -4 -1 6 -13 22 -29 38 -28 46 7 46 16 0
31 6 35 15 3 8 14 15 24 15 38 0 92 29 92 50 0 13 7 20 19 20 11 0 23 9 26 20
3 11 13 20 21 20 8 0 14 9 14 19 0 11 4 21 10 23 5 2 11 15 12 31 1 15 8 27
15 27 22 0 93 24 93 32 0 4 -4 18 -10 32 -8 21 -6 25 13 28 15 2 25 14 32 38
5 20 29 56 53 80 23 24 42 48 42 53 0 6 10 -1 23 -15 18 -20 30 -23 63 -20 33
3 44 9 53 29 8 18 17 24 31 20 14 -4 20 0 20 11 0 11 14 21 37 29 36 11 39 10
64 -20 15 -18 25 -35 23 -39 -2 -3 6 -3 18 0 19 5 20 7 6 10 -11 2 -19 14 -20
30 -1 15 -2 35 -3 44 0 9 -4 20 -7 23 -4 4 -4 13 -1 20 3 9 -6 17 -27 22 -32
8 -33 11 -35 63 -1 30 5 66 12 80 7 14 13 33 13 43 0 9 7 17 16 17 8 0 13 4 9
9 -7 13 34 81 49 81 6 0 28 11 48 25 21 14 41 25 45 24 27 -4 33 2 23 21 -9
18 -8 20 14 20 35 0 78 21 72 36 -2 6 4 21 14 31 13 14 15 24 8 36 -11 21 20
37 32 17 5 -8 17 -10 34 -6 21 5 24 3 19 -11 -4 -10 -13 -28 -20 -40 -14 -21
-13 -21 34 -21 48 0 72 -17 102 -69 8 -14 12 -15 25 -4 9 8 16 19 15 25 -4 34
1 38 41 31 32 -5 41 -3 46 9 4 10 18 16 39 16 47 0 65 9 65 32 0 21 4 20 78
-5 30 -10 35 -9 51 12 10 13 23 21 28 18 5 -3 23 7 40 22 25 22 35 26 49 17
11 -5 30 -10 44 -10 19 -1 26 -8 31 -34 8 -42 11 -44 42 -37 17 5 23 12 20 24
-3 12 2 21 14 25 45 15 78 44 81 69 3 24 7 26 30 21 15 -4 35 -11 45 -16 19
-10 79 12 93 33 3 6 17 8 30 5 20 -5 24 -3 24 17 0 13 -4 27 -9 33 -5 5 -12
19 -16 32 -5 17 -2 22 12 22 22 0 52 -42 34 -48 -17 -6 -14 -16 13 -45 13 -14
45 -52 71 -83 44 -55 85 -79 85 -51 0 8 3 7 9 -2 6 -9 6 -22 1 -32 -7 -12 -4
-22 11 -35 15 -14 20 -15 17 -4 -2 10 4 14 19 12 20 -3 21 -1 11 25 -9 24 -7
36 12 73 20 40 21 45 6 55 -9 7 -16 18 -16 26 0 20 -51 69 -73 69 -15 0 -17 3
-9 13 6 7 9 23 5 35 -4 18 -1 22 20 22 22 0 27 5 32 38 16 106 27 140 50 160
14 12 25 29 25 37 0 8 9 24 20 35 27 27 50 85 43 110 -4 13 0 26 8 31 22 14
49 10 49 -7 0 -8 5 -12 10 -9 6 4 8 10 5 14 -2 5 3 8 13 8 9 0 22 1 27 2 14 1
16 53 3 68 -12 15 -2 67 11 59 5 -3 11 6 14 19 5 31 -16 45 -70 45 -22 0 -44
5 -51 12 -8 8 -15 8 -27 -2 -24 -20 -63 -18 -85 2 -11 10 -28 18 -39 18 -24 0
-56 41 -40 51 7 4 5 8 -4 12 -8 3 -17 23 -21 44 -10 63 -11 66 -42 117 -60
101 -138 146 -255 146 -54 0 -71 4 -100 25 -22 17 -42 24 -56 20 -34 -8 -87
26 -94 61 -5 24 -7 26 -13 12 -12 -28 -26 -21 -26 13 0 16 -4 28 -9 25 -4 -3
-16 3 -26 14 -10 11 -22 17 -26 14 -11 -6 -12 10 -2 20 4 3 8 26 9 51 1 38 -4
51 -33 84 -19 22 -33 46 -31 53 2 7 -10 40 -26 72 -23 48 -27 62 -17 77 6 10
11 29 11 41 0 13 9 43 20 67 23 50 27 121 7 121 -7 0 -23 11 -35 25 -12 14
-26 25 -32 25 -5 0 -10 7 -10 15 0 8 -7 15 -15 15 -9 0 -18 7 -21 15 -4 8 -14
15 -24 15 -10 0 -25 11 -34 25 -14 22 -15 25 -1 25 8 0 15 5 15 12 0 6 9 21
20 33 17 18 19 27 10 49 -14 38 -13 43 10 49 12 3 20 14 20 25 0 12 5 24 11
28 6 4 8 20 4 40 -4 24 -2 34 7 34 8 1 5 6 -6 15 -21 16 -25 57 -11 113 5 22
4 32 -4 32 -6 0 -11 -11 -11 -25 0 -16 -6 -25 -15 -25 -8 0 -15 -4 -15 -10 0
-5 -9 -10 -19 -10 -11 0 -21 -4 -23 -10 -1 -5 -13 -1 -25 8 -16 12 -21 23 -17
39 4 13 10 20 15 17 5 -3 9 2 9 10 0 24 -22 31 -37 11 -7 -11 -13 -13 -13 -7
0 7 -4 12 -10 12 -5 0 -10 -7 -10 -15 0 -8 5 -15 10 -15 6 0 10 -4 10 -10 0
-14 -28 -12 -32 2 -4 10 -9 9 -21 -3 -12 -12 -13 -19 -4 -28 8 -8 3 -11 -21
-11 -26 0 -37 6 -50 30 -17 29 -45 39 -57 20 -7 -12 -33 -8 -60 9 -19 12 -19
12 3 7 17 -3 22 -1 19 9 -4 8 5 15 22 18 20 4 31 17 45 49 10 24 24 49 30 57
6 8 9 24 8 37 -2 17 2 24 12 24 9 0 16 7 16 15 0 11 7 14 25 9 15 -4 25 -2 25
5 0 6 8 11 19 11 13 0 23 14 36 55 10 32 23 55 31 55 8 0 14 5 14 10 0 6 -13
10 -30 10 -23 0 -32 -7 -45 -35 -16 -33 -18 -34 -41 -18 -13 8 -24 11 -24 7 0
-5 -11 4 -23 20 l-24 29 -22 -22z m-281 -501 c13 -8 13 -10 -2 -10 -9 0 -20 5
-23 10 -8 13 5 13 25 0z m440 -49 c0 -17 -18 -21 -24 -6 -3 9 0 15 9 15 8 0
15 -4 15 -9z m-243 -77 c-3 -3 -12 -4 -19 -1 -8 3 -5 6 6 6 11 1 17 -2 13 -5z
m-136 -2202 c7 -20 18 -43 26 -50 22 -23 -2 -44 -35 -31 -14 6 -37 8 -49 4
-20 -5 -23 -2 -23 23 0 16 -7 44 -16 62 -21 41 -8 51 47 38 32 -9 40 -16 50
-46z m-3984 -2648 c-3 -3 -12 -4 -19 -1 -8 3 -5 6 6 6 11 1 17 -2 13 -5z
m-429 -1074 c17 -11 32 -21 32 -23 0 -12 -68 -3 -82 10 -40 36 -4 46 50 13z"/>
<path d="M11790 13026 c0 -2 7 -9 15 -16 9 -7 15 -8 15 -2 0 5 -7 12 -15 16
-8 3 -15 4 -15 2z"/>
<path d="M11149 9827 c12 -13 26 -17 40 -12 33 10 25 23 -19 27 -39 3 -40 3
-21 -15z"/>
<path d="M9385 9800 c-8 -13 -1 -24 14 -19 6 3 7 10 2 18 -6 10 -10 10 -16 1z"/>
<path d="M9400 9712 c0 -31 11 -52 26 -52 21 0 17 34 -6 55 -19 18 -20 17 -20
-3z"/>
<path d="M10340 8515 c-10 -12 -9 -16 5 -21 23 -9 40 10 22 25 -11 9 -17 8
-27 -4z"/>
<path d="M8094 5485 c3 -21 16 -31 16 -12 0 9 -4 18 -9 21 -5 4 -8 -1 -7 -9z"/>
<path d="M8422 5138 c2 -6 10 -14 16 -16 7 -2 10 2 6 12 -7 18 -28 22 -22 4z"/>
</g>
</svg>
