<?xml version="1.0" standalone="no"?>
<!DOCTYPE svg PUBLIC "-//W3C//DTD SVG 20010904//EN"
 "http://www.w3.org/TR/2001/REC-SVG-20010904/DTD/svg10.dtd">
<svg version="1.0" xmlns="http://www.w3.org/2000/svg"
 width="1262.916461pt" height="923.255873pt" viewBox="0 0 1262.916461 923.255873"
 preserveAspectRatio="xMidYMid meet">
<metadata>
Created by potrace 1.15, written by Peter Selinger 2001-2017
</metadata>
<g transform="translate(-364.083539,1460.000000) scale(0.100000,-0.100000)"
fill="#222222" stroke="none">
<path d="M7510 14580 c6 -11 13 -20 16 -20 2 0 0 9 -6 20 -6 11 -13 20 -16 20
-2 0 0 -9 6 -20z"/>
<path d="M7514 14519 c-8 -14 14 -29 33 -22 10 4 11 9 2 19 -14 17 -25 18 -35
3z"/>
<path d="M7567 14480 c-6 -22 -13 -22 -64 -3 -9 4 -13 -5 -13 -23 -1 -23 -8
-32 -34 -44 -23 -11 -38 -13 -49 -6 -12 7 -21 6 -35 -7 -10 -9 -24 -17 -30
-17 -6 0 -14 -9 -17 -20 -4 -11 -29 -32 -56 -45 -27 -14 -49 -30 -49 -36 0 -7
-9 -9 -21 -6 -14 4 -23 -1 -29 -16 -5 -12 -9 -18 -9 -13 -1 5 -7 3 -15 -3 -11
-9 -19 -6 -37 14 -13 14 -39 33 -56 41 -18 9 -33 23 -33 31 0 12 -3 13 -14 4
-10 -9 -16 -8 -26 4 -13 16 -50 21 -50 6 0 -5 -23 -11 -52 -13 -29 -3 -54 -11
-56 -17 -2 -6 -14 -8 -27 -5 -13 3 -32 1 -43 -5 -10 -6 -34 -13 -51 -16 -18
-3 -58 -18 -89 -34 -32 -16 -87 -39 -124 -51 -62 -21 -70 -21 -91 -7 -20 13
-27 13 -48 1 -13 -7 -32 -13 -42 -14 -10 0 -20 -7 -23 -15 -4 -8 -18 -15 -34
-15 -19 0 -29 -6 -33 -20 -3 -12 -14 -20 -25 -20 -12 0 -24 -4 -27 -10 -3 -5
-27 -10 -53 -10 -56 0 -67 -6 -76 -42 -3 -16 -11 -28 -16 -28 -5 0 -31 -15
-57 -32 -26 -18 -56 -31 -65 -30 -13 2 -18 -4 -19 -20 -2 -29 -5 -60 -7 -74
-1 -6 -13 -24 -27 -40 -14 -16 -24 -33 -22 -38 3 -9 60 -16 135 -15 45 0 51
-11 33 -56 -5 -11 -4 -25 1 -32 7 -9 6 -13 -3 -13 -11 0 -11 -2 0 -12 10 -11
18 -6 41 20 26 32 30 33 73 27 28 -4 47 -3 51 4 4 6 15 11 25 11 14 0 17 6 13
25 -4 24 -3 25 24 14 54 -22 104 -28 104 -13 0 8 9 14 20 14 11 0 20 5 20 10
0 6 8 14 18 17 9 4 22 13 28 21 15 20 109 28 140 12 13 -8 27 -10 31 -7 3 4
12 2 19 -4 8 -6 29 -11 49 -11 22 0 39 -6 44 -16 10 -18 24 -22 98 -28 30 -3
54 -1 58 5 10 18 26 12 23 -7 -4 -25 21 -70 43 -77 18 -6 55 -55 42 -55 -5 0
0 -5 10 -11 14 -8 24 -7 43 5 13 9 24 14 24 10 0 -4 7 -1 16 7 10 8 14 23 11
43 -5 35 9 80 22 72 12 -8 21 18 14 43 -8 32 21 27 50 -9 31 -36 37 -37 37 -7
l0 22 18 -22 c17 -23 17 -23 19 17 1 21 -4 50 -11 65 -11 22 -15 23 -25 11 -7
-8 -10 -24 -7 -34 5 -15 2 -19 -16 -18 -35 2 -37 52 -5 82 14 13 27 28 29 35
2 7 11 10 21 6 11 -4 14 -12 10 -23 -4 -12 -2 -15 8 -12 8 2 18 19 24 36 5 18
15 32 21 32 19 0 8 70 -15 94 -12 12 -21 33 -21 46 0 22 1 22 20 5 17 -15 25
-16 69 -5 l50 12 -5 46 -4 47 19 -24 c10 -13 23 -21 28 -18 6 4 13 -5 16 -19
4 -20 0 -28 -15 -32 -15 -4 -18 -10 -13 -31 4 -14 14 -30 22 -35 25 -13 85
-15 79 -2 -18 45 -18 46 3 46 17 0 21 6 21 29 0 16 6 31 13 34 6 2 -7 12 -31
22 -24 10 -41 20 -38 22 2 3 13 0 24 -6 17 -9 20 -6 25 26 4 24 2 40 -5 44
-22 14 -9 100 20 135 15 18 33 33 41 33 7 1 11 7 7 16 -3 9 0 15 10 15 9 0 14
5 12 12 -7 21 -25 19 -31 -2z m-527 -195 c0 -9 -6 -12 -16 -8 -13 5 -13 7 -2
14 17 11 18 11 18 -6z m-20 -51 c0 -8 -4 -14 -10 -14 -5 0 -10 9 -10 21 0 11
5 17 10 14 6 -3 10 -13 10 -21z"/>
<path d="M5511 13882 c-13 -2 -26 -12 -28 -23 -5 -18 -7 -18 -22 -5 -11 9 -37
14 -81 13 -62 -2 -65 -3 -67 -27 -2 -14 -5 -50 -8 -82 -8 -90 -17 -104 -69
-112 -43 -7 -60 -18 -61 -41 0 -5 -15 -9 -34 -8 -30 1 -32 -1 -27 -22 6 -22 4
-23 -25 -15 -17 5 -37 14 -45 21 -8 7 -14 7 -14 1 0 -15 -29 -23 -48 -13 -12
6 -24 5 -36 -4 -15 -12 -17 -19 -8 -44 7 -19 7 -31 1 -31 -5 0 -9 -8 -9 -18 0
-14 -6 -17 -33 -14 -28 3 -35 0 -45 -22 -15 -33 -35 -33 -60 -1 -18 23 -20 23
-34 7 -28 -32 -30 -43 -12 -57 16 -12 12 -14 -39 -20 -40 -5 -62 -4 -72 5 -12
10 -15 9 -15 -4 0 -21 1 -21 -54 10 -25 14 -46 31 -46 38 0 8 -9 12 -24 9 -16
-3 -29 3 -44 21 -11 14 -24 26 -30 26 -17 0 -62 52 -62 72 0 21 -34 37 -95 45
-22 3 -46 11 -54 16 -10 8 -16 7 -26 -6 -7 -9 -22 -17 -33 -17 -26 0 -39 -18
-18 -26 25 -10 67 -83 64 -112 -2 -20 2 -28 17 -30 23 -5 45 -21 45 -33 0 -5
-6 -9 -12 -9 -8 0 -14 -15 -15 -36 -1 -21 -13 -53 -27 -73 l-26 -36 25 -13
c14 -7 25 -17 25 -22 0 -6 9 -10 21 -10 11 0 18 -4 15 -8 -9 -15 77 -46 121
-43 39 2 43 0 68 -38 16 -26 33 -41 46 -41 29 0 74 -25 97 -55 11 -14 27 -25
35 -25 9 0 20 -7 24 -15 13 -22 170 1 184 27 9 16 13 17 37 4 23 -12 31 -12
52 0 14 7 34 13 45 14 27 0 73 -32 68 -47 -7 -19 34 -16 41 2 3 8 25 25 50 37
28 13 42 26 39 35 -3 7 1 13 8 13 8 1 1 7 -16 14 -16 7 -39 24 -50 36 l-20 23
20 -8 c11 -5 32 -9 46 -10 14 -1 31 -5 38 -9 15 -10 63 2 73 17 4 7 8 22 8 34
0 15 7 23 23 25 14 2 23 11 25 26 3 20 8 22 37 16 26 -5 36 -2 48 16 9 12 13
29 10 36 -3 8 1 14 10 14 8 0 14 8 13 18 0 10 5 16 14 13 8 -2 26 -6 40 -9 14
-3 41 -16 60 -28 25 -17 36 -20 41 -12 6 9 13 8 27 -5 10 -9 25 -17 33 -17 12
0 11 2 -1 11 -12 8 -10 9 10 7 19 -2 25 -9 25 -28 0 -14 3 -30 8 -37 4 -6 2
-15 -4 -19 -8 -4 -7 -9 2 -15 21 -13 27 -11 34 12 6 18 12 20 56 14 35 -5 49
-3 49 5 0 7 6 10 13 7 8 -3 20 -1 28 4 11 7 12 12 2 29 -20 32 -16 57 11 64
13 3 26 15 29 26 3 12 13 20 27 20 18 0 20 3 11 14 -6 7 -9 20 -6 29 4 8 -1
31 -9 52 -18 43 -21 69 -6 60 6 -4 8 -10 5 -15 -3 -5 -1 -11 5 -15 13 -8 40
19 40 39 0 10 9 16 24 16 24 0 36 16 36 50 0 14 12 7 51 -30 43 -42 50 -52 39
-65 -18 -21 -6 -45 20 -38 30 8 34 22 14 44 -17 18 -16 19 11 19 25 0 27 2 21
30 -4 21 -1 32 8 36 20 8 15 68 -7 72 -9 2 -15 8 -12 13 4 5 1 9 -4 9 -6 0
-11 -7 -11 -16 0 -14 -3 -14 -16 -3 -12 10 -17 10 -23 0 -4 -6 -30 -19 -56
-27 -42 -12 -51 -12 -70 0 -19 13 -23 12 -33 -5 -7 -10 -21 -19 -31 -19 -12 0
-21 -9 -25 -25 -4 -14 -14 -26 -24 -27 -9 0 -21 -2 -27 -3 -5 -2 -16 -3 -22
-4 -7 0 -13 -8 -13 -16 0 -18 -5 -18 -31 -4 -11 5 -17 15 -13 20 7 12 -53 69
-73 69 -8 0 -13 12 -13 31 0 27 2 30 15 19 10 -9 15 -9 15 -1 0 6 6 11 14 11
8 0 17 6 19 13 3 6 6 2 6 -10 1 -30 21 -30 21 0 0 12 9 40 21 61 23 43 21 49
-18 48 -15 0 -39 9 -52 19 -13 10 -27 17 -31 14 -7 -4 -22 25 -34 70 -7 24
-38 29 -99 15 -23 -5 -44 -6 -47 -2 -3 4 -16 6 -29 4z m-11 -176 c0 -8 -4 -18
-10 -21 -5 -3 -10 3 -10 14 0 12 5 21 10 21 6 0 10 -6 10 -14z m124 -91 c11
-8 27 -15 35 -15 9 0 26 -18 39 -40 20 -35 21 -43 9 -60 -14 -19 -14 -19 -35
1 -12 11 -22 24 -22 29 0 6 -11 10 -25 10 -15 0 -25 6 -25 15 0 7 -8 19 -17
24 -11 7 -13 11 -5 11 9 0 11 7 7 20 -8 24 11 26 39 5z m156 -95 c0 -5 -10
-10 -22 -10 -19 0 -20 2 -8 10 19 13 30 13 30 0z"/>
<path d="M3675 13790 c3 -5 8 -10 11 -10 2 0 4 5 4 10 0 6 -5 10 -11 10 -5 0
-7 -4 -4 -10z"/>
<path d="M7113 13764 c0 -8 6 -14 14 -14 7 0 13 4 13 9 0 5 -6 11 -13 14 -8 3
-14 -1 -14 -9z"/>
<path d="M3738 13755 c-10 -10 2 -35 17 -35 7 0 16 -14 20 -31 6 -28 10 -31
36 -25 16 3 29 1 29 -4 0 -5 7 -7 15 -4 8 4 15 1 15 -5 0 -14 33 -14 47 0 8 8
13 8 17 0 4 -6 17 -11 29 -11 18 0 22 6 21 27 -2 64 -16 78 -71 76 -7 -1 -13
3 -13 8 0 6 -10 5 -21 -2 -20 -10 -52 -9 -109 6 -14 4 -28 3 -32 0z"/>
<path d="M8555 13710 c12 -48 12 -70 1 -69 -25 3 -32 -2 -50 -36 -12 -21 -27
-35 -38 -35 -11 0 -16 -4 -13 -10 4 -6 -13 -10 -44 -10 -43 0 -53 -4 -67 -25
-11 -17 -25 -25 -44 -25 -19 0 -29 -6 -33 -20 -3 -11 -13 -20 -22 -20 -20 0
-75 -31 -75 -43 0 -12 -66 -77 -79 -77 -6 0 -11 -7 -11 -15 0 -8 -16 -23 -35
-33 -35 -18 -35 -18 -16 -39 11 -11 23 -37 26 -56 4 -19 18 -45 31 -58 13 -12
21 -26 17 -32 -3 -5 5 -18 18 -28 20 -16 22 -20 9 -29 -8 -5 -29 -10 -47 -10
-26 0 -33 -5 -42 -31 -6 -18 -11 -44 -11 -58 0 -21 -10 -33 -45 -55 -25 -16
-45 -37 -45 -46 0 -9 -11 -33 -23 -52 -34 -49 -38 -76 -22 -138 14 -52 13 -56
-6 -76 -15 -16 -17 -23 -7 -27 7 -2 9 -8 5 -13 -5 -5 -18 2 -30 17 -12 14 -39
36 -59 48 l-37 22 -3 -28 c-2 -17 -11 -32 -25 -38 -13 -5 -23 -15 -23 -21 0
-6 -22 -14 -49 -18 -27 -4 -51 -12 -53 -18 -3 -8 -10 -7 -27 1 -13 7 -32 10
-43 8 -15 -4 -23 2 -34 28 -7 19 -19 37 -25 40 -5 4 -8 13 -5 21 4 9 -3 18
-18 24 -13 4 -26 16 -29 24 -4 9 -12 16 -18 16 -6 0 -29 15 -49 33 -21 17 -53
41 -72 52 -18 12 -33 29 -34 40 -2 27 -15 65 -23 65 -4 0 -16 -7 -28 -15 -21
-15 -53 -11 -53 6 0 5 -6 9 -14 9 -8 0 -17 7 -20 16 -4 9 -13 13 -24 10 -13
-4 -25 3 -40 24 -24 33 -44 36 -102 19 -30 -9 -43 -8 -68 5 -35 18 -78 23 -52
6 13 -8 13 -11 1 -19 -11 -7 -10 -11 6 -20 11 -5 24 -7 28 -3 5 4 6 0 2 -10
-3 -9 2 -23 14 -34 20 -18 26 -50 10 -56 -21 -7 -22 -69 -2 -102 22 -35 19
-76 -5 -76 -8 0 -19 10 -24 23 -5 12 -9 16 -9 9 -1 -10 -14 -12 -51 -9 -43 5
-50 3 -50 -12 0 -14 -6 -17 -27 -13 -16 2 -34 9 -41 15 -10 8 -16 8 -20 0 -4
-6 -36 -13 -72 -15 -36 -3 -59 -3 -53 -1 9 3 10 10 3 24 -6 10 -7 19 -3 19 4
0 2 4 -6 9 -18 12 -5 32 16 24 12 -5 14 -3 8 7 -4 7 -8 25 -9 39 -1 28 -36 45
-36 17 0 -10 -6 -13 -16 -9 -11 4 -22 -1 -30 -12 -8 -10 -14 -15 -14 -11 0 5
-6 4 -13 -2 -8 -7 -19 -7 -36 2 -20 11 -21 14 -7 19 12 5 14 11 7 24 -9 18
-20 46 -21 61 -1 4 -7 14 -14 22 -14 16 -18 110 -5 110 3 0 14 -11 23 -25 18
-27 49 -24 44 4 -1 9 1 22 6 29 5 8 1 20 -9 32 -20 22 -11 43 16 35 13 -5 19
-2 19 10 0 9 -4 14 -8 11 -5 -3 -16 13 -26 35 -15 33 -24 41 -62 50 -24 6 -42
15 -39 19 2 4 -4 18 -15 30 -24 28 -24 29 -2 53 16 19 16 20 -10 15 -17 -3
-32 0 -40 9 -6 8 -17 12 -24 9 -7 -3 -32 13 -57 34 l-44 39 1 -37 c1 -20 -3
-37 -9 -38 -25 -2 -45 -18 -45 -35 0 -10 -7 -19 -15 -19 -8 0 -15 -5 -15 -11
0 -7 -12 -10 -29 -7 -24 3 -30 0 -39 -24 -13 -36 1 -84 30 -99 15 -8 19 -18
15 -42 -2 -18 4 -50 14 -74 14 -33 24 -43 42 -43 28 0 64 -34 48 -45 -6 -3
-11 1 -11 9 0 22 -22 20 -41 -3 -11 -12 -14 -23 -7 -35 5 -9 6 -21 3 -26 -3
-6 -1 -10 4 -10 6 0 28 -16 50 -35 21 -19 48 -35 60 -35 26 0 37 -22 23 -46
-8 -14 -6 -21 6 -31 12 -9 13 -12 4 -13 -10 0 -9 -4 3 -16 9 -9 14 -23 10 -31
-3 -9 14 -42 38 -77 53 -74 60 -93 41 -100 -19 -7 -18 -26 1 -26 9 0 18 -7 21
-15 4 -8 10 -13 15 -10 4 3 11 -10 15 -30 5 -27 9 -33 19 -25 7 6 38 11 69 13
31 1 56 5 56 10 0 11 75 8 87 -4 8 -8 11 -6 10 7 -2 15 6 19 33 21 74 3 112
-8 123 -37 6 -16 28 -36 54 -50 24 -12 53 -38 64 -57 17 -27 26 -33 44 -29 13
3 27 0 34 -8 8 -9 26 -12 59 -9 59 6 98 23 140 62 33 31 52 39 52 22 0 -15 57
-71 73 -71 8 0 37 -20 65 -45 27 -25 59 -45 71 -45 14 0 21 -6 21 -18 0 -10
16 -35 35 -56 25 -27 35 -48 35 -70 0 -23 9 -41 29 -60 20 -20 31 -41 33 -65
3 -30 9 -39 40 -56 21 -11 38 -25 38 -31 0 -16 34 -44 53 -44 10 0 17 -8 17
-20 0 -22 28 -40 64 -40 14 0 28 -5 31 -11 8 -12 67 -2 76 14 4 6 17 0 32 -15
15 -15 35 -25 49 -23 12 1 34 -5 47 -13 22 -13 24 -13 19 5 -4 15 1 19 20 21
32 3 57 -31 54 -73 -5 -69 70 -141 119 -115 12 7 20 6 25 -2 4 -6 2 -14 -4
-16 -7 -2 -12 -10 -12 -17 0 -8 -10 -15 -22 -17 -18 -2 -22 -9 -20 -28 1 -14
9 -30 18 -37 12 -9 13 -16 4 -32 -6 -13 -16 -19 -23 -15 -7 4 -4 -2 6 -14 11
-11 16 -26 12 -32 -4 -6 1 -20 11 -31 19 -21 47 -92 33 -83 -13 7 12 -59 29
-79 24 -27 22 -67 -3 -67 -20 -1 -20 -1 -1 -15 11 -8 28 -13 38 -9 12 4 18 0
18 -11 0 -8 11 -20 25 -25 27 -10 38 -41 33 -91 -2 -27 0 -33 13 -31 10 1 20
-7 24 -20 7 -20 9 -18 12 15 4 37 14 43 63 39 30 -3 60 9 60 23 0 9 9 15 21
15 13 0 19 5 16 13 -8 22 47 38 72 20 24 -16 43 -9 39 15 -2 13 5 16 37 16 71
-1 154 -16 166 -30 9 -11 8 -14 -5 -14 -14 0 -12 -6 9 -35 15 -19 24 -39 20
-45 -4 -6 9 -26 28 -43 38 -37 61 -73 53 -86 -3 -5 1 -11 9 -15 16 -6 21 -36
6 -36 -16 0 -19 -39 -5 -57 13 -17 14 -17 8 0 -5 13 -2 16 10 11 9 -3 13 -11
9 -17 -4 -7 0 -8 11 -4 22 9 43 -2 25 -13 -9 -6 -8 -12 5 -25 12 -13 14 -21 7
-28 -16 -16 -13 -63 4 -77 11 -9 14 -22 10 -41 -4 -16 0 -39 9 -57 8 -16 13
-40 10 -53 -16 -65 -16 -89 0 -95 9 -3 16 -13 16 -21 0 -10 -6 -13 -16 -9 -11
4 -18 -1 -21 -14 -5 -20 -23 -28 -23 -11 0 5 -9 11 -20 14 -24 6 -25 -1 -3
-25 15 -17 15 -19 -2 -38 -18 -20 -18 -21 38 -74 63 -59 67 -83 14 -93 -17 -4
-32 -14 -34 -25 -4 -12 -14 -18 -33 -18 -15 0 -33 -7 -41 -16 -7 -9 -22 -14
-35 -11 -19 3 -24 -1 -29 -24 -4 -16 -11 -29 -16 -29 -5 0 -9 -11 -9 -25 0
-18 -5 -25 -19 -25 -21 0 -37 -32 -26 -50 4 -6 21 -8 38 -5 18 3 52 7 77 9 25
2 53 7 63 11 11 5 25 1 37 -10 14 -12 28 -16 50 -12 26 6 36 1 72 -36 22 -23
46 -41 53 -39 6 1 20 -7 30 -18 13 -15 31 -20 65 -20 33 0 52 -6 64 -18 17
-20 72 -27 95 -12 10 5 31 0 65 -17 45 -23 53 -24 89 -13 28 8 43 8 50 1 16
-16 27 -14 27 4 0 9 -7 18 -15 21 -34 13 2 103 42 104 10 0 10 6 1 25 -10 23
-8 29 20 54 17 16 34 42 37 58 12 51 14 54 62 75 27 11 50 25 51 29 2 5 12 9
23 9 24 0 24 16 0 63 -18 36 -18 37 -1 37 10 0 22 9 25 20 3 11 13 20 21 20
10 0 15 8 14 23 -4 47 1 67 22 87 19 17 20 24 11 39 -9 14 -9 29 -2 53 6 21 6
51 -1 83 -12 63 -14 167 -5 221 12 68 -41 136 -81 103 -25 -21 -42 6 -19 31
18 20 18 21 -1 35 -18 14 -18 14 6 15 14 0 20 4 15 8 -6 4 -25 26 -43 49 -18
23 -42 45 -52 48 -11 4 -20 13 -20 21 0 8 -4 14 -9 14 -4 0 -20 11 -35 25 -15
14 -31 23 -36 20 -16 -10 -32 23 -21 43 8 15 7 21 -4 26 -19 7 -20 36 -1 36
12 0 13 6 4 30 -8 23 -7 34 3 47 8 9 13 24 11 35 -4 20 13 25 22 6 3 -7 3 -2
0 12 -12 53 -25 69 -50 60 -18 -7 -27 -5 -41 13 -10 13 -26 21 -35 19 -9 -2
-25 5 -35 15 -10 10 -29 17 -43 15 -65 -7 -88 8 -91 58 -1 25 -1 25 -7 2 l-7
-23 -17 21 c-24 27 -23 40 8 86 21 30 24 42 15 56 -17 27 -14 29 34 24 31 -3
50 1 60 10 7 8 19 12 27 9 7 -3 19 4 26 15 11 18 10 20 -10 21 -13 1 -26 1
-30 0 -5 0 -8 7 -8 16 0 26 -45 78 -66 78 -13 0 -20 9 -22 27 -2 16 -11 30
-23 33 -10 4 -19 13 -19 21 0 8 -5 14 -11 14 -6 0 -8 -9 -4 -20 5 -14 2 -20
-10 -20 -9 0 -25 -9 -37 -20 -17 -16 -19 -22 -9 -34 7 -8 10 -19 7 -24 -3 -6
0 -15 8 -21 11 -9 12 -18 3 -41 -6 -17 -15 -30 -19 -30 -26 0 -178 131 -178
155 0 7 -8 16 -17 19 -12 5 -13 10 -5 18 15 15 -1 44 -52 90 -33 29 -39 39
-29 49 10 10 9 17 -6 33 -23 26 -35 72 -21 81 8 5 7 11 0 20 -7 8 -9 23 -5 35
4 12 2 27 -4 34 -9 10 -8 15 5 20 14 5 14 9 3 23 -10 11 -11 17 -3 20 7 2 10
12 7 22 -3 10 0 22 6 25 6 4 11 16 11 27 0 10 4 19 10 19 20 0 30 37 18 68
-11 29 -10 34 16 61 26 27 29 36 28 96 -1 36 -4 70 -7 76 -4 5 -1 16 5 25 10
11 7 22 -16 55 -28 41 -38 88 -28 141 l6 28 32 -25 c29 -22 35 -23 67 -12 21
7 34 17 31 25 -3 9 4 12 23 10 19 -2 31 3 39 17 6 11 15 23 21 27 6 5 5 19 -4
40 -7 18 -15 43 -18 56 -3 12 -10 22 -15 22 -6 0 -7 7 -4 16 4 9 -1 28 -9 41
-9 13 -15 38 -13 56 2 26 -2 34 -24 44 -14 7 -43 36 -63 64 -36 50 -36 51 -22
92 8 23 20 41 26 39 6 -1 19 10 29 25 13 22 23 27 45 25 21 -3 27 1 27 17 0
11 4 22 10 26 5 3 7 12 4 19 -3 7 4 28 15 47 19 33 19 37 4 96 -15 62 -15 62
-47 56 -17 -3 -36 -10 -43 -15 -7 -5 -17 -7 -23 -3 -6 4 -35 7 -63 6 -29 0
-62 6 -74 14 -13 9 -24 11 -28 5 -3 -6 -15 -6 -30 0 -27 10 -85 -12 -85 -33 0
-7 -7 -20 -15 -30 -13 -18 -15 -18 -44 4 -24 17 -28 26 -20 36 13 15 14 14
-41 19 -56 4 -62 5 -90 2 -22 -3 -25 1 -25 27 -1 20 -6 31 -18 33 -9 2 -17 9
-17 15 0 8 -4 7 -12 -1 -19 -19 -37 -14 -50 13 -6 14 -18 25 -26 25 -10 0 -13
8 -10 25 3 14 1 28 -3 31 -5 3 -9 -1 -9 -8 0 -10 -3 -9 -11 2 -8 12 -9 9 -4
-10z m-1631 -1116 c10 -25 7 -34 -9 -28 -8 4 -15 15 -15 25 0 23 16 25 24 3z
m81 -35 c4 -6 19 -7 36 -4 24 6 29 3 29 -13 0 -11 -3 -27 -6 -36 -6 -14 -9
-14 -34 1 -28 16 -58 63 -40 63 5 0 12 -5 15 -11z m982 -259 c3 -11 8 -18 12
-16 4 3 8 -11 8 -30 2 -58 -58 -72 -62 -14 -1 11 3 20 8 20 5 0 7 11 3 24 -3
12 -3 26 1 30 12 12 25 6 30 -14z m-42 -110 c3 -5 1 -10 -4 -10 -6 0 -11 5
-11 10 0 6 2 10 4 10 3 0 8 -4 11 -10z m1625 -630 c0 -5 -2 -10 -4 -10 -3 0
-8 5 -11 10 -3 6 -1 10 4 10 6 0 11 -4 11 -10z"/>
<path d="M3657 13641 c-19 -33 -21 -49 -7 -71 8 -13 11 -12 24 5 13 17 18 18
35 8 29 -18 32 -16 20 14 -10 27 0 42 29 43 6 0 12 5 12 10 0 6 -12 10 -27 10
-16 0 -37 3 -48 6 -15 4 -25 -3 -38 -25z"/>
<path d="M3960 13600 c6 -10 9 -23 8 -27 -4 -16 23 -53 39 -53 13 0 13 -2 2
-16 -12 -14 -11 -16 6 -13 13 3 21 14 23 32 2 15 7 27 12 27 8 0 24 50 17 56
-2 2 -19 -1 -37 -7 -28 -10 -34 -9 -42 5 -5 9 -16 16 -24 16 -12 0 -12 -4 -4
-20z"/>
<path d="M4100 13579 c0 -11 5 -17 10 -14 6 3 10 13 10 21 0 8 -4 14 -10 14
-5 0 -10 -9 -10 -21z"/>
<path d="M5876 13162 c-3 -6 1 -13 10 -16 23 -9 28 -2 10 13 -8 7 -17 8 -20 3z"/>
<path d="M5296 13095 c5 -20 3 -24 -9 -19 -17 6 -57 -32 -57 -56 0 -9 -5 -21
-12 -28 -14 -14 -42 -16 -33 -2 3 6 4 10 0 10 -15 0 -22 -46 -9 -65 8 -11 14
-32 14 -47 0 -21 5 -28 18 -28 22 0 52 -30 52 -51 0 -8 7 -25 16 -37 13 -19
13 -22 1 -22 -20 0 -30 -29 -16 -47 23 -27 17 -76 -13 -109 -18 -20 -26 -37
-22 -47 7 -20 24 -23 24 -5 0 9 3 9 12 0 8 -8 8 -15 -1 -26 -7 -9 -11 -21 -8
-28 4 -8 8 -5 12 9 4 12 13 24 21 27 19 7 62 -13 69 -33 10 -34 175 -44 175
-11 0 11 91 4 99 -8 3 -5 17 -12 31 -15 80 -18 113 -29 150 -48 22 -12 40 -25
40 -30 0 -6 12 -21 26 -34 27 -26 68 -33 79 -15 9 15 36 12 55 -5 13 -12 20
-12 42 -1 25 13 28 12 45 -10 10 -14 34 -37 53 -51 25 -19 30 -21 17 -6 -9 11
-15 27 -12 35 4 9 -4 21 -19 32 -18 11 -26 25 -26 46 0 23 -13 42 -62 89 -35
32 -78 71 -95 86 -18 14 -32 29 -31 33 3 16 -15 42 -29 42 -20 0 -62 51 -63
77 0 12 -5 25 -11 29 -8 5 -5 12 9 23 15 12 18 21 12 38 -11 26 -46 48 -55 33
-9 -15 -61 -12 -75 5 -10 12 -26 14 -70 9 -59 -6 -90 8 -90 42 0 8 -9 13 -22
11 -12 -1 -23 3 -23 10 0 6 -3 15 -7 19 -5 4 -8 21 -8 39 0 36 -15 55 -45 55
-26 0 -121 69 -128 93 -8 28 -28 20 -21 -8z"/>
<path d="M6740 13031 c-24 -10 -19 -46 7 -58 23 -11 23 -10 17 25 -8 44 -6 41
-24 33z"/>
<path d="M6667 12984 c-3 -3 -3 -13 0 -22 6 -15 4 -15 -14 1 -11 9 -23 14 -27
10 -6 -6 -36 -11 -97 -14 -27 -2 -27 -2 -8 -23 16 -16 19 -29 14 -61 -4 -22
-13 -45 -22 -52 -10 -7 -11 -13 -3 -18 6 -4 17 -1 25 5 8 6 24 9 36 5 11 -4
45 -10 74 -14 47 -7 53 -6 46 8 -5 9 -6 22 -4 29 3 7 -1 19 -7 27 -10 12 -9
16 4 21 10 4 15 12 12 19 -3 8 2 16 10 19 19 7 18 46 -1 46 -8 0 -15 5 -15 10
0 11 -13 13 -23 4z"/>
<path d="M6358 12293 c-10 -2 -18 -9 -18 -15 0 -6 -8 -7 -17 -3 -15 5 -16 4
-5 -6 17 -18 15 -26 -9 -32 -11 -3 -23 -15 -26 -26 -7 -28 -21 -26 -33 4 -12
30 -50 35 -50 6 0 -33 11 -51 42 -67 36 -18 76 -11 96 17 15 22 32 17 32 -9 0
-10 9 -23 20 -30 11 -7 20 -8 20 -4 0 13 67 7 85 -8 12 -10 15 -10 15 3 0 8 6
17 13 20 9 4 9 7 0 17 -8 9 -16 10 -25 3 -21 -16 -78 4 -78 27 0 11 -4 20 -9
20 -20 0 -39 31 -37 60 1 16 2 29 2 29 -1 -1 -9 -3 -18 -6z m-18 -89 c0 -14
-3 -14 -15 -4 -8 7 -15 14 -15 16 0 2 7 4 15 4 8 0 15 -7 15 -16z"/>
<path d="M6500 12079 c0 -5 9 -9 20 -9 11 0 20 2 20 4 0 2 -9 6 -20 9 -11 3
-20 1 -20 -4z"/>
<path d="M8360 10790 c0 -5 -11 -10 -25 -10 -18 0 -25 -5 -25 -20 0 -18 -3
-19 -20 -10 -12 6 -20 7 -20 1 0 -5 -15 -30 -34 -54 -19 -25 -32 -48 -28 -51
3 -4 -3 -9 -15 -12 -35 -9 -34 -30 2 -47 33 -16 34 -15 37 6 2 12 9 21 15 20
7 -2 21 9 32 23 18 23 23 25 37 13 56 -46 97 21 71 116 -3 11 -6 23 -6 28 -1
11 -21 8 -21 -3z"/>
<path d="M10236 9802 c-2 -4 -1 -14 4 -22 7 -11 9 -9 7 8 -1 24 -3 26 -11 14z"/>
<path d="M10242 9744 c-16 -17 -22 -75 -9 -92 8 -9 17 -7 41 12 17 13 40 26
51 29 13 3 8 5 -13 6 -26 1 -35 7 -45 30 -10 23 -14 26 -25 15z"/>
<path d="M10338 9733 c6 -2 12 -10 12 -16 0 -7 9 -18 20 -25 24 -15 25 -25 5
-46 -9 -8 -15 -19 -14 -23 5 -30 -3 -53 -18 -53 -13 0 -14 -3 -5 -12 9 -9 8
-16 -5 -30 -15 -17 -18 -17 -34 -2 -16 14 -23 15 -50 4 -25 -11 -32 -11 -39
-1 -5 9 -10 9 -14 3 -3 -6 -2 -12 4 -14 6 -2 12 -20 15 -41 5 -35 4 -37 -25
-37 -27 0 -29 -2 -24 -30 7 -30 -13 -73 -44 -96 -17 -13 0 -30 19 -19 16 10
68 -53 71 -88 2 -17 11 -35 23 -41 11 -6 25 -17 31 -25 7 -9 20 -12 36 -8 23
6 56 -12 44 -24 -3 -2 14 -5 37 -5 23 -1 43 -7 45 -13 2 -6 12 -11 23 -11 26
0 25 -40 -1 -63 -19 -16 -19 -18 -3 -35 49 -52 73 -86 73 -104 0 -10 12 -35
26 -53 19 -26 24 -41 20 -63 -5 -21 -2 -33 14 -47 20 -18 20 -18 0 -32 -26
-18 -25 -35 1 -59 28 -25 43 -65 29 -74 -21 -13 12 -62 56 -80 30 -13 44 -27
52 -50 9 -25 9 -32 -3 -36 -11 -5 -12 -11 -4 -25 5 -11 7 -29 4 -40 -5 -14 0
-27 14 -40 12 -11 22 -24 22 -29 3 -20 5 -25 13 -39 5 -8 4 -16 -3 -20 -8 -6
-9 -15 -2 -34 6 -14 11 -57 13 -96 2 -47 7 -72 16 -76 7 -3 10 -10 7 -16 -4
-6 0 -29 8 -52 8 -23 18 -54 21 -69 4 -19 13 -28 25 -28 29 0 52 -11 45 -21
-3 -6 11 -7 34 -3 47 7 90 -19 70 -43 -8 -10 -5 -20 13 -39 22 -24 23 -26 6
-35 -9 -6 -17 -15 -17 -21 0 -7 14 1 30 17 18 18 29 37 28 50 -2 15 3 21 21
23 18 3 22 0 18 -11 -3 -8 0 -20 6 -26 8 -8 8 -11 -1 -11 -7 0 -12 -14 -12
-33 0 -18 -5 -38 -12 -45 -9 -9 -8 -12 5 -12 11 0 17 -8 17 -21 0 -16 4 -19
20 -14 11 4 20 2 20 -4 0 -14 -43 -14 -56 -1 -7 7 -11 5 -11 -7 0 -10 4 -21 9
-24 15 -10 -46 -66 -79 -73 -21 -5 -34 -2 -43 9 -14 16 -36 20 -44 7 -3 -5 0
-24 6 -43 12 -41 98 -112 122 -103 9 4 25 -1 35 -10 10 -9 21 -13 24 -10 4 4
14 1 22 -6 9 -7 15 -9 14 -4 -1 5 -1 17 0 28 1 15 4 16 16 6 19 -16 20 -74 1
-93 -23 -22 -22 -51 2 -81 12 -16 22 -41 22 -55 0 -15 6 -33 13 -40 10 -11 9
-15 -4 -23 -14 -9 -14 -18 -4 -63 7 -28 18 -62 24 -74 7 -13 10 -25 7 -28 -3
-4 -1 -12 5 -19 7 -8 7 -14 -1 -19 -5 -3 -10 -15 -10 -26 0 -20 16 -29 88 -48
24 -7 43 -18 43 -26 3 -28 4 -33 12 -41 4 -4 7 -1 7 6 0 7 3 10 7 7 10 -11 33
13 33 34 0 13 7 19 23 19 26 0 47 44 47 98 0 26 -7 36 -32 52 -18 11 -47 20
-65 20 -35 0 -49 27 -24 46 13 10 13 16 -1 50 -9 22 -19 47 -22 57 -5 16 -27
22 -68 19 -14 -1 -18 6 -18 28 0 18 5 29 12 28 6 -2 16 6 22 18 9 16 16 19 33
13 14 -5 20 -14 17 -26 -6 -27 8 -43 42 -45 16 -1 44 -15 62 -30 37 -31 57
-35 66 -13 4 12 10 13 32 3 22 -10 28 -10 32 0 2 6 12 12 23 12 12 0 16 5 13
15 -4 10 0 15 12 15 19 0 44 56 44 100 0 12 12 26 32 36 30 16 68 15 140 -2
21 -5 33 0 53 20 14 14 35 26 45 26 11 0 20 5 20 11 0 6 11 24 25 40 13 16 22
36 19 43 -4 10 11 15 58 20 52 6 65 11 73 29 7 14 17 21 30 19 62 -11 122 18
109 52 -3 8 -1 17 5 21 6 3 11 16 11 28 0 20 3 19 31 -11 22 -24 34 -30 39
-22 4 7 13 9 19 6 18 -11 13 -26 -9 -26 -29 0 -25 -9 25 -63 31 -32 51 -46 63
-43 60 18 72 17 101 -3 24 -17 38 -20 81 -15 49 5 53 4 86 -30 36 -38 47 -83
17 -72 -14 6 -14 4 2 -14 11 -12 15 -20 10 -19 -24 8 -76 -27 -83 -56 -6 -21
-16 -32 -33 -35 -33 -7 -79 -39 -79 -55 0 -8 -9 -16 -19 -20 -11 -3 -22 -12
-25 -20 -3 -9 -19 -15 -40 -15 -19 0 -57 -5 -84 -12 -47 -10 -53 -9 -96 16
-25 15 -46 23 -46 19 0 -15 31 -53 39 -48 5 2 17 -2 27 -9 11 -9 25 -11 34 -6
10 5 26 -1 49 -20 30 -26 34 -33 33 -79 -1 -28 1 -51 4 -51 2 0 16 8 30 17 24
15 27 15 55 -1 16 -9 29 -13 29 -8 0 24 81 29 129 10 14 -6 36 -12 49 -13 12
-1 34 -13 48 -26 14 -13 34 -23 45 -21 15 3 19 -3 19 -24 0 -27 0 -27 57 -20
32 4 60 12 64 18 6 9 12 8 25 -3 12 -10 18 -11 21 -2 5 13 131 -71 140 -93 2
-7 17 -15 31 -19 27 -6 90 -78 84 -96 -1 -5 10 -15 25 -21 38 -16 63 -48 63
-81 0 -33 21 -32 30 1 l5 21 49 -24 c27 -13 63 -23 80 -23 29 1 68 -10 123
-35 20 -9 45 -11 83 -6 46 6 92 -3 110 -21 11 -11 26 -20 33 -20 6 0 20 -11
29 -24 14 -19 15 -31 8 -57 -6 -19 -10 -35 -10 -36 0 -7 60 -31 91 -37 27 -5
40 -2 56 13 11 11 23 17 27 14 14 -15 17 30 2 46 -18 20 -20 31 -7 31 5 0 11
-8 14 -17 3 -15 6 -13 14 7 6 14 7 26 2 28 -5 2 -2 16 6 32 8 16 15 35 15 43
0 8 10 13 23 13 13 -1 21 4 19 12 -2 10 5 12 26 7 22 -4 34 0 55 19 15 14 27
29 27 33 0 4 7 20 14 36 8 15 11 27 7 27 -13 0 -18 55 -9 81 14 36 -10 107
-40 123 l-24 13 35 35 c19 19 38 45 42 57 5 16 13 21 26 18 12 -3 19 0 19 9 0
17 12 18 28 2 9 -9 12 -9 12 0 0 22 -5 26 -40 29 -43 5 -47 12 -49 77 -2 100
-6 124 -24 144 -10 11 -17 25 -15 32 2 7 -3 15 -9 17 -7 3 -13 -2 -13 -11 0
-18 -35 -22 -45 -6 -3 6 -22 10 -40 10 -28 0 -36 5 -41 24 -3 13 -1 34 6 45 9
17 8 22 -5 27 -9 4 -14 13 -11 21 4 9 1 13 -6 10 -23 -8 -49 13 -46 36 2 17
-2 21 -15 19 -21 -4 -49 13 -97 57 -27 24 -31 33 -21 44 8 11 9 22 1 42 -13
34 -5 46 23 36 15 -6 25 -4 32 5 10 14 160 38 175 29 4 -2 17 6 30 19 16 18
20 32 16 53 -8 40 7 62 33 46 11 -7 27 -10 36 -7 19 8 19 0 0 -30 -17 -26 -10
-63 9 -47 6 5 26 12 44 16 28 6 36 3 48 -14 15 -21 36 -19 66 7 10 8 28 12 44
9 20 -3 28 0 31 14 3 11 9 19 13 19 4 0 11 7 14 16 4 12 1 14 -14 9 -15 -5
-18 -3 -14 10 4 9 -2 25 -14 38 -12 12 -28 40 -37 61 -9 21 -25 47 -35 59 -14
14 -17 24 -10 32 7 9 5 16 -5 25 -8 7 -15 17 -15 23 0 26 -45 97 -61 97 -10 0
-21 5 -24 10 -3 6 -22 10 -42 10 -20 0 -33 3 -30 6 3 4 -5 15 -19 26 -34 27
-55 70 -43 90 6 11 4 18 -6 22 -8 3 -15 15 -15 26 0 29 -16 25 -31 -9 -10 -23
-17 -27 -26 -19 -7 5 -19 8 -28 4 -9 -3 -19 3 -25 14 -8 15 -17 18 -38 14 -21
-4 -37 2 -66 25 -21 17 -45 31 -52 31 -25 0 -57 48 -59 88 -1 21 -7 46 -12 56
-11 19 3 86 18 86 12 0 -2 44 -19 58 -9 6 -26 12 -38 12 -16 0 -29 12 -45 39
-14 26 -27 37 -38 34 -14 -3 -16 6 -14 74 1 43 5 120 10 172 7 86 7 94 -11
107 -20 13 -19 15 9 44 l29 30 -22 23 c-12 13 -22 28 -22 34 0 18 -27 36 -35
22 -6 -8 -10 -7 -16 2 -7 11 -12 12 -28 2 -18 -11 -22 -10 -32 10 -7 12 -14
17 -16 11 -2 -6 -17 -8 -33 -6 -22 3 -30 0 -30 -11 0 -9 8 -21 18 -26 27 -16
-3 -13 -34 4 -16 8 -37 15 -47 15 -10 0 -20 7 -24 16 -4 11 -14 14 -32 11 -20
-4 -30 0 -39 14 -10 16 -15 17 -32 7 -15 -9 -27 -10 -48 -2 -27 10 -28 10 -24
-12 4 -22 2 -23 -26 -14 -26 7 -32 5 -37 -10 -4 -12 2 -27 16 -41 16 -16 18
-23 9 -29 -9 -6 -9 -13 -1 -28 12 -23 -7 -46 -31 -37 -11 4 -18 -2 -22 -19 -3
-14 -22 -40 -42 -58 -26 -25 -37 -45 -41 -76 -3 -23 -10 -42 -14 -42 -5 0 -19
-11 -30 -24 -13 -15 -42 -29 -73 -37 -28 -6 -58 -18 -66 -25 -8 -7 -25 -22
-37 -33 -12 -11 -31 -24 -42 -31 -12 -6 -21 -17 -21 -24 0 -7 -11 -23 -25 -36
-23 -21 -28 -23 -47 -11 -19 12 -20 11 -14 -13 3 -14 2 -26 -3 -26 -13 0 -33
28 -27 38 7 11 -57 26 -96 23 -42 -4 -99 19 -138 55 -41 38 -110 57 -110 30 0
-9 -6 -16 -13 -16 -8 0 -24 -9 -37 -20 -16 -14 -21 -26 -16 -44 l6 -24 -56 20
c-30 11 -64 18 -74 15 -19 -5 -72 24 -70 39 0 5 -8 10 -18 12 -14 2 -21 14
-26 44 -5 28 -12 42 -26 45 -11 3 -20 9 -20 14 0 5 -9 9 -20 9 -14 0 -20 7
-21 25 -3 52 -10 61 -55 70 -23 4 -54 23 -84 51 -26 24 -56 44 -66 44 -11 0
-25 9 -32 20 -10 17 -10 20 4 20 9 0 14 5 12 12 -2 6 6 22 19 36 12 13 20 29
17 34 -4 6 -9 5 -14 -2 -5 -8 -13 -9 -21 -4 -8 5 -22 7 -31 6 -14 -3 -18 4
-18 27 0 23 7 33 28 43 37 18 40 55 6 93 -39 45 -56 83 -50 113 4 15 2 42 -3
60 -6 21 -6 32 0 32 6 0 7 6 4 13 -4 6 4 0 17 -15 26 -30 68 -38 68 -13 0 9
11 21 25 27 26 12 58 2 97 -30 23 -19 52 -8 45 18 -6 22 8 28 16 8 3 -8 6 -6
6 5 1 9 6 17 13 17 7 0 6 6 -4 18 -28 32 -33 46 -15 39 10 -3 17 -2 17 2 0 12
-26 21 -61 21 -23 0 -29 4 -29 22 0 12 -10 32 -21 44 -18 19 -25 21 -42 12
-16 -8 -23 -7 -33 7 -10 13 -16 14 -33 5 -15 -8 -27 -8 -41 0 -16 9 -22 8 -26
-5 -3 -8 -13 -15 -21 -15 -9 0 -21 -7 -27 -15 -15 -21 -84 -22 -122 -2 -24 12
-34 13 -43 4 -8 -8 -19 -8 -42 0 -24 9 -28 9 -20 0 12 -16 22 -117 10 -117 -5
0 -6 -6 -3 -14 6 -17 -25 -29 -50 -20 -10 4 -16 1 -16 -9 0 -8 -19 -22 -43
-31 -53 -20 -61 -20 -77 -1 -7 8 -23 15 -35 15 -12 0 -28 7 -35 15 -9 10 -16
12 -25 5 -8 -6 -16 -5 -25 3 -8 8 -11 8 -6 0 8 -16 -3 -42 -17 -39 -45 10 -77
22 -109 44 -23 15 -44 21 -56 18 -13 -5 -24 0 -34 16 -28 42 -103 108 -117
103 -7 -3 -33 6 -57 19 l-43 24 -26 -20 c-28 -21 -65 -17 -65 8 0 12 -7 14
-30 9 -20 -4 -37 -1 -52 9 -12 9 -34 16 -48 15 -14 0 -19 -3 -12 -6z m392
-364 c0 -5 -4 -9 -10 -9 -5 0 -10 7 -10 16 0 8 5 12 10 9 6 -3 10 -10 10 -16z
m4 -27 c2 -4 1 -14 -4 -22 -5 -9 -5 -19 1 -26 7 -8 6 -15 -2 -20 -6 -4 -16 0
-21 10 -5 9 -16 16 -23 16 -18 0 -20 36 -2 43 19 8 45 8 51 -1z m135 -86 c9
-11 8 -18 -4 -30 -22 -22 -25 -20 -25 14 0 32 11 38 29 16z m-47 -58 c-7 -7
-12 -8 -12 -2 0 14 12 26 19 19 2 -3 -1 -11 -7 -17z m-334 -8 c7 -11 8 -20 2
-20 -5 0 -14 9 -20 20 -6 11 -7 20 -3 20 5 0 14 -9 21 -20z m483 -12 c11 -21
11 -22 -4 -9 -10 7 -17 17 -17 22 0 15 9 10 21 -13z m2744 -878 c3 -5 2 -10
-4 -10 -5 0 -13 5 -16 10 -3 6 -2 10 4 10 5 0 13 -4 16 -10z m-15 -29 c0 -5
-9 -11 -20 -14 -22 -6 -28 8 -7 16 19 8 27 8 27 -2z m-920 -991 c0 -5 -7 -10
-15 -10 -8 0 -15 5 -15 10 0 6 7 10 15 10 8 0 15 -4 15 -10z m137 -205 c17
-12 22 -12 26 -1 7 19 56 9 85 -18 18 -16 23 -28 19 -52 -6 -38 15 -74 44 -74
21 0 27 -26 7 -27 -7 0 -21 -4 -30 -8 -10 -4 -18 -3 -18 3 0 12 -50 62 -62 62
-5 0 -4 -9 2 -21 17 -31 -10 -56 -60 -56 -36 0 -40 3 -52 36 -22 63 -15 169
12 171 3 0 15 -7 27 -15z m1220 -140 c45 13 63 12 73 0 12 -15 -2 -29 -52 -49
-38 -16 -48 -13 -48 16 0 10 -4 18 -9 18 -5 0 -12 7 -15 16 -5 14 -4 15 9 4 9
-8 25 -10 42 -5z m-1107 -77 c0 -5 -4 -8 -10 -8 -5 0 -10 10 -10 23 0 18 2 19
10 7 5 -8 10 -18 10 -22z m985 -528 c3 -5 2 -10 -4 -10 -5 0 -13 5 -16 10 -3
6 -2 10 4 10 5 0 13 -4 16 -10z"/>
<path d="M11280 9725 c0 -8 4 -15 10 -15 5 0 7 7 4 15 -4 8 -8 15 -10 15 -2 0
-4 -7 -4 -15z"/>
<path d="M8741 9711 c-7 -5 -16 -32 -19 -60 -4 -41 -2 -51 11 -51 22 0 27 -23
8 -38 -14 -11 -12 -11 7 -2 19 9 28 8 49 -5 31 -20 43 -11 49 39 3 27 1 36
-11 36 -8 0 -15 6 -15 13 0 9 -55 77 -63 77 -1 0 -8 -4 -16 -9z"/>
<path d="M9750 9451 c0 -6 -7 -11 -15 -11 -8 0 -15 -9 -15 -19 0 -11 -13 -28
-29 -37 -17 -10 -27 -22 -24 -27 3 -5 -11 -7 -32 -4 -36 5 -38 4 -53 -35 -15
-37 -18 -40 -51 -36 -28 4 -40 0 -54 -18 -9 -13 -27 -26 -38 -29 -19 -7 -20
-7 -2 -20 10 -7 19 -18 19 -24 1 -6 3 -12 4 -13 1 -2 4 -23 6 -47 3 -35 1 -42
-11 -37 -8 3 -17 1 -20 -5 -4 -5 -10 -7 -15 -4 -21 13 -26 -57 -5 -75 19 -15
20 -44 2 -37 -8 3 -21 -9 -32 -30 -11 -19 -29 -46 -41 -61 -13 -14 -21 -29
-18 -34 3 -4 1 -8 -5 -8 -7 0 -7 -8 1 -25 10 -23 27 -31 53 -25 5 1 22 2 37 2
15 1 28 5 28 10 0 5 10 3 22 -3 18 -10 19 -13 7 -23 -18 -14 -40 -62 -32 -70
4 -3 21 -4 39 0 19 3 34 1 39 -5 3 -6 12 -8 18 -4 7 5 30 13 52 18 33 8 40 14
41 35 0 37 43 90 71 90 13 0 26 8 30 18 10 26 23 32 76 32 26 0 47 4 47 10 0
14 72 81 97 91 19 7 21 12 12 41 -11 41 -12 38 6 38 18 0 19 9 5 46 -9 22 -8
29 5 36 8 5 15 18 15 29 0 11 5 17 10 14 6 -3 10 1 10 9 0 8 8 21 18 28 10 7
27 25 36 40 18 27 18 28 -13 67 -26 33 -40 41 -77 47 -25 3 -51 12 -57 19 -6
6 -20 10 -30 7 -10 -2 -25 2 -35 10 -9 9 -28 18 -42 20 -14 3 -33 9 -42 13
-11 4 -18 3 -18 -4z"/>
<path d="M13972 9285 c9 -14 -14 -42 -37 -47 -11 -2 -19 -10 -17 -18 4 -16
-21 -84 -59 -162 -16 -32 1 -76 32 -87 19 -6 31 -6 35 0 3 5 14 7 25 4 15 -5
19 -1 19 19 0 20 7 27 38 35 20 6 46 11 56 11 10 0 37 9 60 19 23 11 53 22 68
25 16 4 35 20 48 42 13 20 28 33 35 30 8 -3 18 1 24 8 17 20 -12 40 -41 30
-13 -4 -26 -7 -30 -6 -5 1 -8 -3 -8 -9 0 -6 -9 -9 -19 -6 -13 3 -21 -2 -25
-15 -4 -16 -11 -19 -32 -15 -18 3 -32 -1 -45 -14 -20 -20 -49 -16 -49 6 0 20
-19 28 -34 16 -17 -14 -26 -4 -26 30 0 19 6 30 21 34 15 5 19 14 17 33 -2 16
-8 26 -17 24 -7 -1 -20 3 -29 10 -9 7 -13 8 -10 3z"/>
<path d="M13102 9234 c-11 -12 -9 -14 8 -14 11 0 20 4 20 9 0 17 -15 19 -28 5z"/>
<path d="M14333 9168 c-13 -6 -23 -20 -23 -30 0 -11 -8 -22 -17 -24 -19 -5
-29 -59 -13 -69 13 -8 61 13 59 27 -3 27 2 35 24 34 12 -1 22 5 21 12 -1 6 -2
23 -2 37 -2 27 -14 30 -49 13z"/>
<path d="M12072 9049 c-18 -17 -32 -33 -32 -37 1 -24 14 -52 25 -52 7 0 16 -7
19 -16 9 -24 7 -29 -6 -16 -17 17 -24 15 -25 -10 -1 -13 -16 -35 -32 -49 -17
-14 -31 -31 -31 -38 0 -8 -7 -10 -20 -6 -11 3 -20 2 -20 -3 0 -5 9 -12 20 -15
11 -3 20 -1 20 4 0 15 50 10 56 -6 5 -13 8 -13 27 0 12 8 29 15 39 15 10 0 20
10 24 25 3 14 12 25 19 25 7 0 15 9 18 20 3 14 14 20 31 20 23 0 25 3 16 19
-5 11 -7 26 -4 34 9 24 -24 28 -40 6 -9 -14 -16 -17 -21 -9 -5 8 -10 8 -20 0
-10 -8 -19 -8 -34 0 -34 18 -55 70 -28 70 16 0 49 38 39 44 -5 3 -22 -9 -40
-25z"/>
<path d="M13817 8926 c-3 -8 -2 -18 3 -21 13 -8 20 9 11 24 -6 10 -10 9 -14
-3z"/>
<path d="M13800 8888 c0 -8 -7 -21 -15 -28 -8 -7 -15 -21 -15 -32 0 -10 -7
-21 -15 -24 -8 -4 -13 -10 -10 -15 3 -4 13 -5 22 -2 13 5 15 2 10 -11 -4 -10
-7 -27 -7 -38 0 -16 -5 -19 -21 -15 -14 4 -18 2 -11 -6 5 -7 19 -38 31 -70 27
-73 45 -94 67 -76 8 6 13 17 11 23 -2 6 2 22 10 36 12 23 11 26 -11 33 -31 10
-63 74 -48 97 6 10 7 22 1 31 -12 19 -11 32 0 24 15 -8 26 64 12 78 -8 8 -11
7 -11 -5z"/>
<path d="M12211 8754 c6 -8 18 -14 26 -14 20 0 8 16 -17 23 -17 4 -19 3 -9 -9z"/>
<path d="M13821 8546 c-10 -11 -8 -16 7 -20 10 -4 25 -19 32 -34 12 -25 13
-26 20 -7 5 13 1 29 -12 48 -22 31 -31 33 -47 13z"/>
<path d="M13880 8362 c0 -9 10 -23 22 -31 21 -13 21 -14 3 -27 -16 -12 -16
-14 -2 -20 9 -3 21 -3 27 1 5 3 10 1 10 -4 0 -14 27 -14 36 0 3 6 1 16 -5 22
-6 6 -11 19 -11 29 0 11 -7 18 -20 18 -11 0 -20 7 -20 15 0 8 -9 15 -20 15
-12 0 -20 -7 -20 -18z"/>
<path d="M14643 7539 c-7 -7 -34 -13 -60 -14 -26 0 -56 -5 -66 -9 -9 -5 -26
-6 -37 -3 -13 3 -20 0 -20 -9 0 -16 -5 -17 -29 -5 -26 14 -47 -2 -27 -21 8 -9
12 -18 9 -22 -4 -3 1 -6 9 -6 9 0 19 -11 22 -25 7 -25 26 -35 26 -13 0 13 71
-57 107 -107 12 -16 23 -25 23 -18 0 14 60 -6 60 -20 0 -5 -6 -7 -13 -4 -8 3
-20 1 -28 -3 -10 -7 -7 -14 16 -32 37 -29 63 -40 70 -28 4 6 20 10 36 10 17 0
32 6 35 15 9 22 74 9 96 -19 15 -18 18 -19 18 -3 0 23 10 22 40 -5 14 -13 41
-24 62 -26 32 -2 36 0 31 17 -5 19 -2 19 28 11 23 -7 35 -6 40 1 4 7 11 9 17
5 17 -10 25 13 10 31 -11 14 -10 16 8 11 20 -5 20 -3 11 22 -11 28 -70 65 -88
55 -5 -4 -9 -2 -9 4 0 18 -76 91 -96 91 -10 0 -28 7 -38 15 -13 10 -32 13 -56
9 -22 -4 -40 -2 -44 4 -4 7 -17 7 -38 1 -37 -10 -68 -4 -68 14 0 7 -10 29 -23
50 -17 28 -25 35 -34 26z m-37 -110 c9 -18 13 -41 10 -55 -7 -28 -26 -32 -26
-6 0 10 -5 23 -11 29 -10 10 -5 63 6 63 2 0 12 -14 21 -31z"/>
<path d="M15862 7523 c-18 -3 -36 -11 -39 -19 -3 -8 -11 -14 -18 -14 -7 0 -24
-9 -38 -20 -19 -15 -33 -18 -57 -13 -25 4 -35 2 -42 -10 -5 -10 -15 -17 -23
-17 -8 0 -19 -9 -25 -20 -7 -12 -21 -20 -38 -20 -27 0 -98 -37 -89 -46 6 -6
48 16 58 30 4 5 12 0 18 -11 6 -13 26 -23 48 -28 21 -4 46 -14 56 -23 16 -15
20 -14 46 1 16 9 39 17 51 17 12 0 30 5 41 11 16 8 25 7 37 -4 30 -26 57 -29
77 -7 10 11 24 20 32 20 7 0 16 7 19 15 4 8 14 15 24 15 10 0 20 9 23 20 4 17
14 20 71 20 60 0 66 2 66 20 0 17 5 19 25 14 21 -5 25 -3 25 16 0 18 4 21 24
18 21 -4 36 7 36 25 0 9 -67 -1 -73 -11 -14 -21 -89 -53 -102 -42 -7 6 -15 6
-22 -1 -12 -12 -43 0 -76 29 -17 15 -86 43 -97 40 -3 -1 -20 -3 -38 -5z"/>
<path d="M14474 7343 c4 -15 14 -33 22 -39 7 -6 14 -20 14 -30 0 -11 7 -30 16
-42 10 -15 13 -32 9 -53 -6 -25 -3 -34 16 -47 41 -30 59 -33 59 -12 0 10 -4
22 -10 25 -16 10 -12 23 8 27 14 3 12 9 -15 35 -21 19 -33 41 -33 57 0 16 -9
31 -24 42 -14 8 -26 25 -28 37 -2 12 -11 23 -22 25 -16 3 -18 0 -12 -25z"/>
<path d="M15360 7316 c0 -10 -9 -16 -25 -16 -21 0 -25 -5 -25 -31 0 -25 3 -29
19 -24 11 3 22 2 25 -4 10 -16 45 -1 39 17 -5 11 -2 14 10 9 30 -11 14 21 -25
52 -16 12 -18 11 -18 -3z"/>
<path d="M15270 7279 c0 -5 5 -7 10 -4 6 3 10 8 10 11 0 2 -4 4 -10 4 -5 0
-10 -5 -10 -11z"/>
<path d="M14322 7103 c12 -13 15 -35 12 -80 -3 -58 -1 -63 18 -63 17 0 20 5
15 28 -5 27 -4 28 24 24 17 -3 33 -12 37 -21 9 -23 54 -71 66 -71 7 0 17 -14
23 -31 12 -32 36 -32 31 0 -1 9 7 26 20 39 25 25 54 30 46 7 -4 -9 0 -15 10
-15 19 0 21 -11 4 -29 -11 -11 -9 -11 7 -1 15 8 21 24 22 56 2 48 1 49 -27 34
-10 -5 -26 -7 -34 -4 -14 5 -14 7 0 21 9 9 13 24 11 34 -3 10 0 20 7 23 7 3 4
11 -9 21 -15 13 -30 15 -65 9 -84 -14 -113 -11 -154 13 -23 12 -50 23 -60 23
-17 0 -18 -2 -4 -17z"/>
<path d="M14660 7059 c0 -5 -9 -13 -21 -17 -19 -7 -17 -10 18 -39 41 -33 90
-48 111 -35 21 14 4 69 -25 76 -13 4 -28 4 -33 1 -6 -4 -10 -2 -10 3 0 5 -9
12 -20 15 -11 3 -20 1 -20 -4z"/>
<path d="M14547 6844 c-3 -3 -2 -17 3 -29 6 -16 5 -25 -2 -27 -8 -3 -4 -16 11
-37 l24 -33 -24 -31 c-14 -20 -16 -27 -5 -18 12 10 20 11 28 3 6 -6 16 -8 23
-5 7 2 15 -4 18 -14 3 -14 6 -12 12 10 5 18 3 37 -4 50 -7 12 -13 36 -15 52
-2 22 -10 33 -30 40 -15 5 -24 15 -22 22 6 13 -8 26 -17 17z"/>
<path d="M11414 6703 c-5 -9 -19 -17 -30 -17 -10 -1 -25 -5 -32 -10 -17 -10
-15 -46 2 -46 8 0 16 -7 20 -15 6 -17 42 -20 51 -5 4 7 13 7 26 0 11 -6 17
-15 14 -20 -6 -10 42 -90 62 -103 7 -4 13 -13 13 -20 0 -7 -4 -6 -10 3 -8 12
-10 12 -10 1 0 -7 12 -25 27 -38 19 -18 34 -24 56 -20 22 3 31 0 34 -14 5 -18
43 -34 43 -18 0 5 4 9 10 9 6 0 6 -9 1 -23 -17 -43 41 -85 97 -70 24 6 32 53
9 53 -14 0 -47 31 -47 43 0 4 7 7 15 7 19 0 19 13 0 50 -10 20 -12 31 -4 36 6
3 9 17 6 30 -3 15 1 28 10 33 13 7 13 12 -1 38 -22 44 -66 93 -82 93 -7 0 -18
9 -24 21 -10 19 -13 19 -28 6 -28 -25 -86 -31 -115 -12 -17 10 -27 13 -32 6
-9 -16 -53 -13 -62 4 -7 12 -10 12 -19 -2z"/>
<path d="M11315 6670 c3 -5 8 -10 11 -10 2 0 4 5 4 10 0 6 -5 10 -11 10 -5 0
-7 -4 -4 -10z"/>
<path d="M11308 6632 c-4 -12 1 -18 13 -18 14 0 15 4 8 18 -5 10 -11 18 -13
18 -2 0 -6 -8 -8 -18z"/>
<path d="M11270 6621 c0 -5 7 -15 17 -22 15 -13 15 -12 4 9 -12 23 -21 28 -21
13z"/>
<path d="M13321 6431 c-12 -11 -21 -23 -20 -27 5 -28 -2 -43 -17 -37 -15 5
-16 0 -12 -43 l5 -50 -31 4 c-17 2 -40 12 -51 22 -11 10 -38 27 -61 38 l-40
21 -18 -24 c-15 -20 -22 -22 -47 -15 -33 10 -79 -2 -79 -20 0 -27 20 -48 41
-43 15 4 20 2 15 -5 -3 -6 3 -16 14 -22 11 -6 18 -16 14 -21 -3 -6 8 -15 25
-22 29 -11 42 -27 22 -27 -12 0 11 -83 28 -96 8 -6 11 -16 7 -22 -4 -7 -2 -12
3 -12 6 0 11 -7 11 -15 0 -18 5 -18 31 -5 12 7 25 7 36 1 13 -7 22 -4 35 12
10 11 21 17 25 14 3 -4 11 -3 17 3 17 14 34 -1 37 -35 3 -21 0 -29 -10 -27 -7
1 -11 -3 -9 -10 3 -7 13 -13 24 -13 10 0 20 -8 22 -18 2 -9 -2 -17 -8 -17 -6
0 -9 -8 -6 -17 7 -23 -8 -48 -23 -39 -6 4 -11 3 -11 -2 0 -5 -9 -12 -21 -15
-19 -5 -19 -7 -5 -35 8 -16 12 -39 9 -50 -3 -15 0 -24 11 -28 9 -3 23 -29 31
-57 14 -48 14 -52 -6 -73 -13 -14 -17 -24 -10 -29 6 -3 8 -17 5 -31 -5 -21 -2
-25 26 -30 17 -4 34 -13 37 -20 3 -8 9 -11 14 -8 5 2 18 0 30 -6 24 -13 36 -6
22 12 -5 7 -16 54 -23 103 -7 50 -19 99 -27 110 -18 27 -17 75 2 75 12 0 13 5
5 26 -7 17 -7 31 -1 38 6 7 4 30 -4 63 -10 37 -11 62 -4 88 15 55 0 149 -24
146 -33 -5 -47 1 -47 19 0 10 7 23 16 28 15 8 15 11 -1 36 -17 26 -17 27 1 42
14 11 15 17 7 20 -17 7 -16 24 1 24 24 0 40 28 29 53 -7 16 -6 28 4 44 13 19
12 23 -5 32 -15 8 -24 6 -41 -8z"/>
<path d="M12904 6296 c-10 -22 -9 -25 13 -29 20 -4 23 -1 20 21 -5 34 -19 38
-33 8z"/>
<path d="M13469 5431 c27 -38 41 -48 76 -56 l30 -8 -35 25 c-19 13 -35 30 -35
38 0 7 -12 17 -28 21 l-27 7 19 -27z"/>
</g>
</svg>
