<?xml version="1.0" standalone="no"?>
<!DOCTYPE svg PUBLIC "-//W3C//DTD SVG 20010904//EN"
 "http://www.w3.org/TR/2001/REC-SVG-20010904/DTD/svg10.dtd">
<svg version="1.0" xmlns="http://www.w3.org/2000/svg"
 width="294.126798pt" height="551.752454pt" viewBox="0 0 294.126798 551.752454"
 preserveAspectRatio="xMidYMid meet">
<metadata>
Created by potrace 1.15, written by Peter Selinger 2001-2017
</metadata>
<g transform="translate(-887.420624,1214.961573) scale(0.100000,-0.100000)"
fill="#222222" stroke="none">
<path d="M10670 12140 c0 -5 -13 -10 -29 -10 -34 0 -44 -17 -26 -50 11 -20 10
-28 -1 -46 -13 -19 -13 -22 0 -27 8 -3 17 -21 21 -39 4 -18 11 -37 15 -43 4
-5 12 -29 17 -52 9 -34 8 -45 -4 -55 -9 -7 -13 -23 -11 -40 3 -16 1 -31 -4
-34 -12 -8 -10 -58 5 -73 10 -11 8 -12 -9 -7 -18 5 -22 1 -28 -25 -4 -23 -2
-35 11 -44 14 -10 15 -19 7 -46 -5 -19 -19 -38 -30 -44 -20 -10 -20 -12 -4
-59 12 -36 24 -53 48 -65 17 -9 46 -36 63 -59 19 -25 37 -41 45 -38 9 3 17 -8
24 -34 6 -22 15 -40 20 -40 6 0 10 -9 10 -21 0 -12 -4 -17 -11 -13 -8 5 -8 1
0 -13 6 -11 8 -23 5 -26 -3 -3 -1 -14 5 -25 13 -24 -8 -49 -26 -31 -7 7 -15 5
-26 -5 -32 -33 -47 -13 -28 38 10 26 3 37 -33 50 -14 5 -17 2 -12 -9 3 -9 0
-15 -10 -15 -8 0 -12 5 -9 10 7 11 -67 14 -78 3 -4 -3 -2 -12 4 -20 9 -10 6
-13 -15 -11 -15 1 -32 8 -38 15 -17 20 -48 16 -48 -7 0 -26 -31 -41 -68 -34
-24 5 -33 2 -44 -15 -7 -12 -20 -21 -28 -21 -9 0 -20 -4 -26 -10 -14 -14 -56
0 -50 17 4 8 -9 32 -28 55 -19 22 -38 53 -41 69 -8 34 -10 34 -87 13 -58 -17
-59 -17 -74 5 -14 20 -41 21 -29 0 4 -5 -1 -12 -9 -15 -19 -7 -21 -40 -3 -47
6 -2 9 -8 4 -12 -4 -5 -21 1 -37 13 -16 12 -36 22 -45 22 -9 0 -14 4 -11 8 2
4 -4 13 -15 20 -16 10 -19 9 -19 -3 0 -13 -10 -14 -55 -9 -48 6 -55 5 -55 -11
0 -13 -6 -16 -24 -11 -15 4 -28 0 -36 -9 -7 -8 -16 -13 -20 -10 -13 8 -40 -6
-40 -20 0 -8 -9 -16 -19 -20 -10 -3 -22 -17 -25 -31 -4 -14 -11 -22 -17 -19
-5 4 -18 -4 -28 -16 -16 -20 -21 -21 -35 -10 -14 12 -23 11 -59 -5 -23 -10
-45 -23 -49 -29 -10 -14 -70 -6 -90 12 -16 14 -18 13 -24 -11 -4 -19 -16 -28
-43 -36 -57 -16 -66 -25 -63 -65 2 -22 -1 -35 -8 -35 -8 0 -7 -8 4 -25 9 -13
16 -33 16 -45 0 -24 8 -25 32 -3 17 15 18 15 18 -12 0 -16 8 -37 18 -48 12
-13 17 -35 16 -69 0 -46 2 -52 33 -72 22 -14 35 -32 39 -54 3 -18 10 -35 15
-38 19 -11 8 -32 -26 -48 -40 -19 -41 -23 -20 -62 8 -16 15 -36 15 -45 0 -9 9
-24 20 -34 11 -10 17 -22 14 -26 -3 -5 2 -12 11 -15 12 -5 16 -17 13 -48 l-3
-41 48 -5 c26 -3 47 -2 47 3 0 23 37 -3 56 -38 11 -22 27 -40 35 -40 8 0 28
-10 43 -23 16 -12 36 -22 45 -23 11 0 12 -2 3 -6 -10 -4 -8 -9 7 -20 12 -8 21
-22 21 -32 0 -10 17 -29 38 -42 20 -13 44 -38 52 -56 8 -18 27 -37 43 -44 15
-6 27 -16 27 -21 0 -10 22 -39 88 -117 17 -21 32 -44 32 -50 0 -19 17 -12 34
14 9 14 23 25 30 25 14 0 26 42 26 95 0 19 8 39 21 50 l20 19 -22 17 c-19 14
-21 20 -10 33 15 18 0 76 -24 96 -10 8 -11 18 -4 36 5 14 9 44 9 67 l0 41 20
-22 c12 -12 25 -22 30 -22 14 0 23 40 11 53 -11 14 0 39 15 36 24 -6 44 14 38
38 -6 23 -5 24 29 18 27 -5 37 -3 44 9 8 15 12 14 38 -6 16 -13 32 -23 35 -23
3 0 4 -4 2 -8 -1 -5 2 -6 8 -2 14 9 12 24 -5 41 -17 18 -20 34 -5 34 6 0 3 14
-6 33 -27 52 -65 99 -78 94 -19 -8 -38 30 -27 52 6 10 7 22 3 26 -4 4 4 5 18
2 19 -4 32 1 53 23 18 17 24 31 18 35 -15 9 -14 72 2 82 6 4 19 21 27 37 15
28 50 44 145 62 20 4 37 16 47 35 11 19 25 29 40 29 28 0 51 34 43 61 -6 17
-3 19 22 13 15 -3 33 -11 38 -18 19 -21 45 -14 61 15 8 17 23 29 34 29 14 0
20 7 20 23 0 13 14 33 36 51 25 20 34 34 31 48 -4 15 -1 18 13 13 22 -7 54 21
65 55 5 14 10 19 17 12 15 -15 43 -4 53 21 7 16 24 25 60 33 34 7 51 16 53 27
2 9 10 17 18 17 8 0 14 5 14 10 0 6 9 10 20 10 23 0 70 20 70 31 0 4 9 5 20 2
12 -3 20 0 20 7 0 7 6 10 14 7 8 -3 17 0 19 7 3 8 17 11 36 8 28 -4 31 -2 31
23 0 24 2 26 30 20 33 -7 90 25 90 51 0 18 14 18 30 -1 10 -13 15 -13 21 -3 9
14 12 7 23 -43 4 -18 14 -28 31 -31 14 -3 25 -1 25 3 0 5 9 9 20 9 19 0 20 7
20 89 0 54 -4 93 -11 97 -6 3 -9 15 -6 25 4 13 -7 28 -34 50 -21 17 -39 26
-39 19 0 -6 -5 -8 -10 -5 -6 4 -9 12 -8 18 2 7 -8 27 -20 45 -18 25 -20 32 -8
32 8 0 20 16 26 35 10 29 14 34 26 24 8 -6 14 -17 14 -24 0 -7 12 -12 30 -11
16 1 30 4 30 9 0 4 6 7 13 7 19 0 14 54 -6 58 -8 2 -32 19 -53 39 -34 31 -39
33 -44 17 -6 -17 -7 -17 -17 1 -12 21 -13 20 -96 -21 -16 -8 -38 -14 -49 -14
-11 0 -28 -10 -38 -22 l-18 -23 -24 22 c-22 20 -68 43 -89 43 -15 0 -10 -37 6
-44 8 -3 15 -12 15 -19 0 -17 -44 -42 -59 -33 -7 5 -11 -1 -11 -14 0 -17 -4
-20 -17 -15 -10 4 -24 8 -31 8 -8 0 -10 6 -5 16 4 9 7 31 7 49 0 28 2 31 20
26 21 -7 21 -7 1 15 -12 14 -14 21 -6 19 7 -2 16 3 18 10 3 6 -2 12 -11 12 -9
0 -16 5 -16 10 0 6 4 10 9 10 4 0 6 11 3 25 -2 14 -11 25 -21 25 -9 0 -36 12
-61 26 -42 24 -45 24 -58 7 -13 -17 -14 -17 -27 1 -9 11 -11 25 -6 35 8 17
-31 86 -42 74 -4 -3 -9 1 -13 10 -3 9 -11 14 -18 11 -7 -3 -19 2 -26 11 -7 8
-23 15 -36 15 -13 0 -35 5 -49 12 -22 10 -28 9 -35 -2 -8 -13 -13 -12 -39 3
-32 19 -61 22 -61 7z"/>
<path d="M11673 11301 c-12 -10 -25 -31 -29 -47 -4 -16 -12 -35 -18 -43 -9
-12 -7 -13 14 -8 14 4 42 10 63 13 35 6 37 9 37 42 0 21 -7 40 -17 48 -23 17
-24 17 -50 -5z"/>
<path d="M11759 11299 c-9 -17 -8 -23 2 -30 9 -5 17 -3 22 7 5 8 12 12 17 9 5
-3 11 -1 15 4 3 6 -3 15 -14 20 -27 15 -29 14 -42 -10z"/>
<path d="M10026 11255 c4 -8 7 -15 9 -15 2 0 5 7 9 15 3 9 0 15 -9 15 -9 0
-12 -6 -9 -15z"/>
<path d="M9935 11190 c3 -5 12 -10 20 -10 8 0 17 5 20 10 4 6 -5 10 -20 10
-15 0 -24 -4 -20 -10z"/>
<path d="M11564 11134 c3 -9 6 -18 6 -20 0 -2 5 -4 12 -4 6 0 8 3 5 7 -4 3 -2
12 4 20 9 10 7 13 -11 13 -16 0 -20 -4 -16 -16z"/>
<path d="M11525 11120 c-3 -5 -2 -10 4 -10 5 0 13 5 16 10 3 6 2 10 -4 10 -5
0 -13 -4 -16 -10z"/>
<path d="M11451 11086 c-7 -8 -8 -17 -3 -20 6 -3 12 3 15 14 6 24 4 25 -12 6z"/>
<path d="M9093 10975 c4 -9 7 -20 7 -24 0 -4 11 -13 24 -19 22 -10 24 -9 21
14 -3 29 -3 29 -34 39 -20 6 -23 4 -18 -10z"/>
<path d="M9060 10954 c0 -8 5 -12 10 -9 6 4 8 11 5 16 -9 14 -15 11 -15 -7z"/>
<path d="M9052 10922 c-24 -7 -31 -24 -13 -30 6 -2 11 1 11 8 0 7 6 8 19 1 20
-11 31 -5 31 16 0 14 -11 15 -48 5z"/>
<path d="M9990 9623 c0 -11 -12 -42 -26 -68 -20 -39 -23 -53 -15 -71 7 -17 6
-24 -5 -28 -8 -3 -14 -19 -14 -40 0 -28 -4 -35 -25 -40 -22 -6 -23 -9 -13 -25
6 -11 31 -29 54 -40 40 -20 66 -51 42 -51 -7 0 -7 -4 1 -14 9 -10 8 -15 -3
-19 -8 -3 -17 -21 -21 -39 -10 -53 -26 -78 -51 -78 -16 0 -24 -8 -29 -27 -9
-37 -23 -53 -46 -53 -19 0 -25 -17 -11 -35 13 -19 117 -65 145 -65 15 0 27 -5
27 -11 0 -8 5 -8 15 1 13 11 15 6 15 -31 0 -35 7 -53 31 -82 18 -22 25 -37 17
-37 -17 -1 -58 -35 -58 -49 0 -6 -11 -11 -25 -11 -27 0 -33 18 -13 38 9 9 7
12 -9 12 -14 0 -27 10 -35 28 -10 21 -19 26 -40 24 -15 -2 -35 1 -46 7 -13 7
-22 7 -30 -1 -9 -9 -15 -9 -24 0 -9 9 -18 4 -39 -21 -24 -28 -30 -30 -46 -19
-42 29 -64 36 -72 24 -10 -17 -91 -43 -113 -36 -10 3 -18 1 -18 -5 0 -7 -16
-8 -42 -5 -50 7 -98 -9 -98 -31 0 -16 -28 -65 -43 -76 -5 -4 -6 -20 -3 -36 5
-21 2 -34 -9 -43 -8 -7 -15 -17 -15 -22 0 -20 -25 -35 -45 -27 -42 16 -52 10
-59 -32 -6 -40 -7 -41 -39 -35 -25 5 -47 0 -99 -26 -37 -18 -67 -37 -66 -43 4
-25 -16 -131 -26 -137 -6 -4 -23 -8 -37 -8 -38 0 -41 -10 -14 -46 30 -39 32
-68 5 -91 -11 -10 -20 -23 -20 -30 0 -6 -7 -19 -16 -27 -14 -15 -14 -16 5 -16
11 0 22 -4 25 -8 7 -11 86 -2 86 10 0 6 9 8 20 5 14 -3 20 0 20 10 0 11 8 14
30 11 26 -4 31 -1 40 27 10 31 12 32 56 27 40 -4 44 -3 38 14 -6 16 -3 15 19
-5 33 -30 33 -30 5 -40 l-22 -8 28 -26 c15 -14 25 -31 21 -37 -7 -12 73 -9 93
4 21 13 62 -5 68 -30 4 -13 16 -32 29 -42 12 -9 26 -31 32 -47 7 -22 17 -31
36 -33 15 -2 28 -10 28 -18 1 -8 3 -18 4 -24 1 -5 3 -14 4 -19 0 -4 10 -20 22
-35 15 -20 24 -24 34 -16 16 13 41 -15 43 -48 1 -23 6 -29 65 -73 25 -19 27
-19 27 -2 1 15 4 15 21 -6 19 -24 20 -35 5 -71 -4 -10 5 -29 24 -50 16 -18 30
-39 30 -46 0 -18 41 -40 74 -39 17 1 39 -9 56 -25 l28 -26 -20 -27 c-11 -15
-27 -27 -36 -27 -13 0 -14 -2 -3 -9 10 -6 10 -10 1 -16 -8 -5 -7 -12 6 -26 9
-10 14 -25 11 -34 -4 -9 -1 -15 8 -15 17 0 20 -16 5 -25 -16 -10 -11 -30 15
-61 15 -17 22 -35 19 -44 -16 -37 -12 -61 12 -77 19 -12 22 -18 12 -25 -10 -7
-9 -11 5 -19 20 -12 24 -88 5 -107 -9 -9 -7 -13 5 -18 32 -12 10 -99 -30 -123
-15 -9 -14 -10 10 -11 15 0 27 -4 27 -9 0 -16 31 -21 45 -8 9 9 10 19 3 30
-12 23 0 21 47 -8 22 -14 47 -25 56 -25 9 0 28 -9 43 -21 14 -11 31 -17 36
-14 6 4 18 1 27 -7 9 -7 14 -8 10 -2 -3 6 5 22 19 34 l24 24 15 -21 c8 -11 26
-23 40 -25 21 -5 25 -2 20 13 -5 15 -3 17 11 12 14 -5 15 -3 5 15 -8 15 -8 23
0 27 6 4 8 13 5 21 -3 9 1 14 14 14 16 0 17 4 10 30 -5 17 -5 30 0 30 14 0 21
32 9 47 -9 11 -8 16 4 26 9 7 21 24 26 40 10 25 9 27 -14 27 -13 0 -28 -8 -34
-17 -9 -17 -11 -17 -26 -2 -14 14 -15 20 -3 38 17 27 0 57 -31 53 -27 -4 -43
34 -45 106 -1 44 2 52 17 52 15 0 18 6 15 31 -2 26 2 34 36 54 44 27 77 75 81
121 3 29 1 31 -11 19 -8 -7 -14 -22 -14 -33 0 -27 -25 -45 -55 -40 -20 4 -25
1 -25 -14 0 -24 -23 -33 -49 -18 -14 7 -21 7 -21 0 0 -5 -9 -10 -20 -10 -14 0
-18 5 -13 16 4 11 -1 23 -13 32 -12 9 -15 16 -8 19 7 2 10 13 7 23 -4 15 0 20
16 20 14 0 19 5 14 15 -3 9 2 24 12 35 9 10 14 24 10 29 -3 7 2 11 14 11 22 0
24 4 21 63 -1 20 3 37 8 37 12 0 46 76 38 88 -3 5 1 15 9 22 7 6 11 18 8 26
-3 8 -1 14 5 14 17 0 23 44 6 53 -8 4 -11 14 -8 20 4 7 4 9 -1 5 -12 -11 -35
11 -35 33 0 10 6 22 13 26 6 4 18 18 25 31 11 19 11 29 0 53 -7 16 -16 29 -20
29 -8 0 -73 118 -80 147 -4 13 -2 26 3 29 20 12 7 50 -23 69 -36 23 -52 53
-22 41 10 -4 15 -4 12 0 -4 3 5 16 20 29 22 19 24 25 14 38 -10 12 -10 16 0
20 8 4 7 6 -4 6 -20 1 -24 16 -8 26 6 4 10 14 9 23 -1 10 1 25 5 34 4 9 2 34
-5 55 -7 23 -8 38 -2 40 15 5 -26 144 -50 170 -24 27 -18 38 15 27 29 -9 33
-8 34 14 1 9 2 27 3 40 1 15 7 22 22 22 12 0 23 8 26 20 3 11 14 20 24 20 12
0 19 7 19 19 0 11 4 23 10 26 6 4 4 15 -6 30 -13 19 -13 27 -3 44 11 17 10 23
-6 41 -13 14 -18 33 -16 56 2 32 -4 39 -31 35 -4 0 -15 13 -25 29 -10 18 -26
30 -38 30 -22 0 -49 35 -40 50 12 19 -6 48 -34 58 -31 11 -48 54 -36 91 3 12
-1 31 -11 46 -9 14 -13 25 -10 25 4 0 0 10 -8 22 -9 12 -16 32 -16 43 0 25
-39 65 -63 65 -10 0 -20 7 -23 15 -4 8 -11 15 -17 15 -6 0 -21 10 -34 22 -23
21 -23 21 -23 1z m315 -2462 c3 -5 1 -12 -4 -15 -5 -3 -11 1 -15 9 -6 16 9 21
19 6z"/>
<path d="M9856 7371 c-3 -5 1 -11 9 -14 9 -4 12 -1 8 9 -6 16 -10 17 -17 5z"/>
</g>
</svg>
