<svg version="1" xmlns="http://www.w3.org/2000/svg" width="937.806" height="1447.43" viewBox="0 0 703.355 1085.573"><g fill="#222"><path d="M50.53.4c0 .9 3 1.4 3.5.6.4-.6-.3-1-1.4-1-1.2 0-2.1.2-2.1.4zM55.23 6.4c-.9 2.3 1.8 3.9 3.4 2 1.1-1.3 1-1.7-.2-2.5-2-1.2-2.6-1.1-3.2.5zM58.73 13.9c-1 .6-1 1 .3 2.1.9.7 1.4 1.9 1.1 2.7-.3.7-.2 1.3.3 1.3s1.1-1 1.5-2.2c.6-2.7-1.3-5.1-3.2-3.9zM60.43 22.5c-.1.5-.3 2.1-.4 3.4-.1 1.4-1.4 3.5-2.8 4.7-1.8 1.6-2.2 2.5-1.4 3.3 1.4 1.4 3.7-.4 3.7-3 0-1.2.5-1.6 1.5-1.3 1.1.5 1.5-.1 1.5-2.2 0-2.8-1.8-6.9-2.1-4.9zM153.93 33.8c.3.5-.4 2.3-1.5 4.1-1.5 2.4-2.4 3.1-3.9 2.6-1.2-.4-2-.2-2 .5s-.7 1-1.5.6c-.8-.3-3 .3-4.8 1.4l-3.3 2-4.2-3.1-4.2-3.1v2.7c0 2-.4 2.6-1.5 2.1-.8-.3-1.5 0-1.5.6 0 .7-.5.6-1.5-.2-.8-.6-1.9-.9-2.5-.5-.6.4-2.9.8-5.1.9-3.9.3-6.9-1.2-13.1-6.8-2-1.8-4.3-2.1-3.3-.5.9 1.3-3.1 4.2-6.3 4.5-1.4.2-3.4-.2-4.5-.8-3.6-1.9-8.7-2.1-10-.4-1 1.3-2 1.4-5.5.5-2.4-.5-4.8-.7-5.4-.3-.5.3-2.1 0-3.5-.7-2.2-1.2-2.7-1.1-3.8.4-.7 1-1.9 1.5-2.7 1.2-.9-.4-2 .7-3.1 3.3-.9 2.1-1.7 4.4-1.7 5 0 .7-.6 1.2-1.4 1.2-.8 0-2.2 1-3 2.1-1.4 2.1-1.9 2.1-9.5 1.3l-8-1 .5 2.3c.4 1.5.2 2.3-.6 2.3-.9 0-1.1 1-.6 3.1.3 1.9 0 4.2-1 6-.8 1.7-1.2 3.8-.9 4.8.3 1-.1 2.4-1 3.1-.9.8-1.2 1.7-.7 2.4.5.6.7 2.8.5 4.8-.4 2.9-1 3.8-2.4 3.8-1.1 0-2 .9-2.3 2.2-.3 1.3-.8 3.6-1.1 5.3-.3 1.6-.8 4.6-.9 6.6-.5 4.8-2.2 7.9-4.6 7.9-2.1 0-2.8 1.7-3.2 7.6-.1 3.4-.7 4.5-3 5.9-2.8 1.6-3.5 3.4-2 4.9.4.4.7 1.3.7 1.9 0 .5.6 1.2 1.3 1.4.6.3 1.2 0 1.2-.6 0-1.3 5.1.5 6.2 2.2 1.2 1.9.9 2.7-.7 2.1-1.2-.5-1.3-.1-.3 2.6.8 2.4.8 3.4-.1 3.9-.6.4-.9 1.5-.5 2.4.5 1.3 0 1.7-2 1.7-2.7 0-3.5 1.4-1.3 2.4.9.3.7.9-.5 1.9-1 .8-1.8 1.9-1.8 2.6 0 1.4-1.3 1.4-2.7 0-1.7-1.7-3.4-.1-2.7 2.7.5 2.1.2 2.5-2.4 3-4.1.8-3.5 3.3 1.1 4.9l3.7 1.3 1.7-3.9c.9-2.2 2.2-3.8 2.7-3.8 3.6.4 6.6-.3 6.6-1.5 0-.7.6-2.6 1.4-4 1-2 1.5-2.3 1.9-1.2.5 1.2 1 1.2 3.1.3 1.9-.9 2.2-1.6 1.5-2.9-1.3-2.4-1.2-2.5 2.2-3.7 2.8-1 3-1.3 1.8-2.8-.7-1 .8.3 3.3 3 4.4 4.6 7.5 10.2 7.9 14.2.4 3.3-1.3 13.9-2.3 15.2-.7.9-.2 1.4 1.7 1.9 1.5.4 3 1.7 3.6 3.1.7 1.8 1.4 2.3 2.8 1.8 1.1-.3 2.2-.1 2.6.5 1.1 1.8 1.4 8 .3 8-.6 0-.5.6.2 1.5s1.3 2.5 1.4 3.7c.1 2.9 6.8 6.8 11.7 6.8 3.5 0 3.7.2 4.3 3.9.4 2.9 1.2 4.2 2.9 4.7 1.2.4 2.9 1.5 3.8 2.5 2.3 2.6 6.7 3.5 7.5 1.5.3-.9 1.5-1.6 2.7-1.6 1.1 0 1.7.3 1.4.7-.4.4.5 1.9 2 3.5 2.3 2.4 3.4 2.8 8.2 2.8 3 0 5.1.3 4.8.7-.4.3-.2 1.2.4 1.9.8 1 1.5 1 2.9.2 1.4-.9 1.6-1.7.9-3.5-1.3-3.6-1.1-6.3.5-6.3 1.7 0 1.6-3.3-.3-7.2-1.1-2.2-1.1-3.1.1-5.6 1.3-2.5 1.3-3.3.2-5.3-.7-1.3-1.3-2.9-1.4-3.5 0-1.6 5-2.8 6.3-1.5.6.6 2.8 1.1 4.8 1.1 2.9 0 3.8-.4 4.2-2.2.5-1.7.9-1.9 2-1 2 1.7 2.6.5 2-3.4-.3-2.1-.2-3.4.4-3.2.6.2 2.4-1.2 4-3 1.7-1.7 3.6-3.2 4.2-3.2 1.5 0 1.4-1.2-.5-3.8-1.6-2.3-.9-2.8 1.6-1.2.8.5 1.5 1.5 1.5 2.2 0 2.1 3.2 2.1 3.8-.1.4-1.6 1-1.8 3.8-1.3 1.9.4 4.9.6 6.7.4 2.9-.3 3.2-.6 2.6-3-.3-1.5-.2-2.2.3-1.6 1.3 1.8 5.3 2.7 5.3 1.2.1-.8.6-.6 1.5.6 1.3 1.7 1.8 1.7 4.5.6 1.6-.7 3-1.6 3-2.1 0-.4 1.2-.9 2.8-1.1 2.2-.2 3.2-1.3 5.3-5.7 2.2-4.6 2.7-5.2 3.6-3.7.7 1.3 1.4 1.5 3.5.7 2.5-.9 2.5-.9 1.8 2.6-.5 1.9-1.1 3.7-1.3 4-.3.2.3 1.3 1.4 2.4 2.3 2.3 2.5 6.2.4 7.9-.8.7-1.5 2.1-1.5 3.1s-.5 2.1-1.1 2.4c-.6.4-.8 1.3-.5 2.1.3.7-.3 1.8-1.2 2.3-1.5.9-1.3 1.3 1.7 3.8 2.2 1.9 3.2 3.5 2.9 4.8-.2 1.1.3 2.5 1.1 3.1 1.2.9 1.2 1.5-.5 3.6-1 1.4-3.3 3.6-5.1 4.9-2.5 1.9-2.9 2.6-1.9 3.4 1.8 1.4 3 5.5 1.6 5.5-.7 0-.5.8.4 2.2.9 1.2 1.6 4 1.6 6 0 3.1.5 4 2.3 4.7 1.2.5 3.1 1.8 4.1 3 1.1 1.1 2.7 2.1 3.6 2.1 2.1 0 6 4.1 6 6.3 0 1.9 1.9 3.3 4.1 2.9 2.3-.4 8.9 3.7 8.9 5.5 0 1 .6 1.4 2 1 1-.3 2.4.1 3.1.9 1.5 1.8 3.1 1.8 7.5-.4 2.8-1.3 3.8-1.4 4.1-.5.3.7 2 1.3 3.9 1.3 2 0 4.4.4 5.4 1 2.9 1.6 10.7.1 11.3-2.1.8-2.9 5.7-2.4 10.3 1.1 4.4 3.3 5.9 3.7 6.8 1.5.6-1.6 4.6-2.1 4.6-.7 0 3.8-2.7 13.8-5.1 18.9-2.4 5.1-3.3 6-5 5.6-1.5-.4-2.2 0-2.6 1.6-.4 1.8-.8 1.9-2 .9-1.3-1-1.8-.8-3.3.9l-1.7 2.2-2.7-3c-2.2-2.4-3-2.8-4.6-1.9-2.7 1.4-5 5-5 7.7 0 1.6-.4 2.1-1.5 1.7-.9-.4-1.5 0-1.5.7-.1 1-.4.9-1.3-.3-.7-.9-2.5-2-4-2.3-2.6-.7-2.7-.6-1.7 2 .7 2 .7 3.1-.1 4.1-.6.8-.9 2.1-.5 2.9.4 1.1-.1 1.5-1.7 1.5-2 .1-2 .2-.4 1.1 2.1 1.2 2.2 5.2.2 7.3-1.8 1.8-1.9 3.8-.2 5.5 1 1 .7 1.1-1.6.6-1.5-.4-2.7-.3-2.6.1.4 2.2-.3 3.2-2.4 3.8-2 .5-2.3 1.2-2.3 5.6 0 3.3.4 5 1.2 5 .7 0 1.9.3 2.8.6 1.1.4 1.9-.2 2.6-2 1.3-3.4 3.5-3.3 7.2.4 1.6 1.6 3.9 3 5.1 3 1.3 0 4.1 2.1 7 5.2 2.7 2.9 4.6 4.7 4.2 4-.9-1.7 2.6-1.5 5.2.3 2.5 1.8 2 5.5-.7 5.5-1.3 0-1.7.6-1.3 1.9.7 2.9-7.3 3.7-10.9 1.1-1.8-1.4-2.8-1.6-3.1-.7-.2.8-1.1.7-3-.6-1.5-1-2.7-1.3-2.7-.7 0 .5-1.1 1.2-2.5 1.6-1.4.3-3.1 1.4-3.8 2.4-2.1 2.9-8.4 3.2-16 .8-6.6-2.1-7-2.1-11.6-.4-2.6.9-5.5 1.4-6.4 1-1.4-.5-1.7 0-1.7 3.1 0 2.4-.6 4.2-1.7 5-1.4 1.1-1.5 1.7-.6 3.8.7 1.4.9 4.2.6 6.1-.4 2.4 0 4.4 1.1 6 1.8 2.9 1.3 5.3-1.5 6.1-1.5.5-1.9 1.6-1.9 5.6 0 4-.3 4.9-1.7 5-1.2 0-.8.4 1 1.1 3 1.1 3.7 3 1 2.7-4-.4-5.9.2-7.1 2.1-1.1 1.8-.9 2.5 1 5.3 3 4.1 6.9 13.4 7.3 17.2.6 5.5 2.3 8.1 9.5 14.8 6.6 6.1 7.3 6.5 9.6 5.5 1.8-.9 2.7-.9 3.6 0 .7.7 2 1.2 3 1.2s2.4 1.2 3.1 2.7c1.5 3.6 2.7 4.4 5.2 3.9 1.6-.4 2.9.9 6.2 5.7 2.3 3.4 4.5 7.4 4.9 9 .3 1.5 1.9 3.7 3.5 5 15.2 11.7 15.9 12.4 15.9 15.5 0 1.6.8 3.2 2 4 1.2.7 1.7 1.8 1.3 2.9-.5 1.2-.2 1.5.9 1 1.8-.6 2.8 1.1 2.8 4.9 0 1.3.4 2.4.9 2.4s1.8 1.6 3 3.6c1.2 1.9 2.5 3.3 3 3 .4-.3 1.8.5 3.1 1.9 2.8 3 3.8 9.6 1.7 11.4-1.5 1.2-1.2 5.5.3 4.6.4-.3 1 .5 1.4 1.8.4 1.6.8 1.9 1.4.9 1.1-1.7 4-.5 4.7 1.9.4 1 1.1 1.9 1.6 1.9 1.4 0 1.1 2.7-.7 4.4-.8.9-1.2 2-.9 2.6.3.6 0 1.3-.8 1.6-.8.3-1.5 1.5-1.5 2.7 0 1.2-.2 4.2-.4 6.6-.2 2.8.1 4.5.9 4.8.7.3 1 1.7.8 3.6-.2 1.7 0 3.6.4 4.2 1.4 1.7 1.9 6.4.7 6.8-.7.3-.6 1 .5 2.1 1.2 1.3 2.1 1.4 4.5.6 2.2-.8 3.9-.8 5.8 0 2.4.9 2.7.8 2.2-.5-.4-1.3-.2-1.4 1.4-.5 1.1.6 2 2 1.9 3.3 0 1.2-.3 1.7-.5 1-.4-.8-1-.8-2.3.4-1.7 1.4-1.7 1.6 0 5 1 2 1.6 4 1.3 4.4-.6 1 4.2 5.6 6.8 6.4 2.6.9 3 3.9 1.2 8.4-.9 2.4-1.4 5.4-1.1 7 .5 2.2 0 3.4-1.8 5.1-1.9 1.7-2.2 2.7-1.5 4.1.8 1.3.6 1.9-.8 2.2-1.4.4-1.4.6.6 1.2 2.4.8 2.6 1.3 1.3 3.4-.6 1-1.3 1.1-2.9.2-1.5-.8-2.3-.8-2.8 0s-.9.8-1.4-.1c-1-1.6-.1-5 1.3-5 .5 0 .3-.8-.6-1.8-1-1-1.7-3.6-1.7-5.8-.1-3.4-.7-4.4-5-8.2-2.8-2.5-5-3.8-5-3 0 .8.6 2 1.3 2.7.7.9.8 1.2 0 .7-.7-.4-.9.1-.6 1.5.5 1.7.2 2-1.8 1.9-1.3-.1-2.8-.1-3.4 0-.5.2-1.7.4-2.5.4-.8.1-1.4.9-1.4 1.9.2 2 0 2-4.5.7-2.6-.7-4.2-.6-6.3.4-3.1 1.6-4.7.4-2.8-1.9.9-1.1.5-1.7-2.2-3.1-1.8-.9-4.3-2.6-5.6-3.7-1.6-1.5-3.4-2-6.2-1.9-4.7.3-11-2.1-11-4.2 0-1-.9-1.6-2.3-1.6-1.3 0-2.9-.6-3.6-1.3-.9-.7-1.1-.7-.8-.1.4.7 0 1.4-.8 1.8-1.8.7-2 6.2-.2 7.3 4 2.6 5 10.5 1.5 12.4-1.3.7-2.7 1.8-3.1 2.5-.4.8-1.4 1.4-2.1 1.4-.7 0-2.5.9-4 2.1-2.1 1.7-2.4 2.4-1.5 3.5.9 1.1.8 2.2-.5 4.8-.9 1.9-1.6 3.8-1.7 4.3 0 .4-1 2.3-2.2 4.2-1.9 2.8-2.9 3.4-6.5 3.6-3.4.3-5.1 1.1-8.4 4.4-2.2 2.3-4.6 4.1-5.3 4.1-.7 0-1.8.7-2.5 1.5-1.6 1.9-5 1.9-7.8-.1-2.1-1.4-2.3-1.4-3.2 1.1-.6 1.4-1 3.1-1 3.7 0 1.5-3.1 3.7-5.2 3.8-1.1 0-1.5.6-1.1 1.9.3 1.3-.2 2.1-1.6 2.6-1.2.3-2.1 1.3-2.1 2 0 .8-1.4 2.7-3.2 4.4-2.9 2.7-3 3-1.5 4.6 2.1 2 2.1 2.9.2 4.5-.9.8-1.3 2.1-.9 3.6s.2 2.4-.5 2.4c-.6 0-1.1 1.1-1.1 2.4 0 3.5-5.1 8.9-7.5 8-1.3-.5-1.6-.4-1.1.5.5.7 0 2.1-1.2 3.4-1.9 2.1-2.8 4.7-3.9 11.5-.3 1.8-1.4 3.7-2.4 4.3-1.1.5-1.9 1.9-1.9 3 0 1.2-.8 2.3-2 2.6-1.1.3-2 1.3-2 2.3 0 1-.6 2.1-1.2 2.4-1 .3-.8.8.4 1.5 1.5 1 1.5 1.4.1 4.1-.8 1.7-1.9 3-2.4 3s-.9.9-.9 2c0 1.2-.9 4.9-2 8.3-1.1 3.4-1.9 8.2-1.8 10.7.1 2.5-.2 5.4-.6 6.6-.5 1.4-.2 2.6.8 3.7.9.8 1.6 2 1.6 2.6 0 .6 1.1 2.1 2.5 3.3 1.4 1.2 2.5 2.8 2.5 3.5 0 .7.6 1.3 1.3 1.3.7 0 1.8.5 2.5 1.2.9.9.8 1.6-.5 3-1.6 1.8-1.5 2 1 4.5 2.4 2.4 2.8 2.6 5.1 1.3 1.4-.7 2.3-1.7 1.9-2.3-1.1-1.8 3.3 1.2 7.7 5.4 2.8 2.6 6.2 4.6 8.9 5.3 4.9 1.3 6.7 3.6 2.9 3.6-2 .1-2.1.2-.7 1.3 2.3 1.7 4.9 7.2 4.9 10.2 0 1.8.6 2.9 1.9 3.2 1.1.3 2.1 1.7 2.4 3.3.4 1.5 1.4 3 2.5 3.2 1.4.4 1.8 1.2 1.5 3.4-.4 2.7 1.7 6.1 6.9 10.9 6.9 6.4 8.9 9.1 10.1 13.3.9 3.1 2.2 5.1 3.8 5.9 2 1 2.5 1 2.7-.2.3-1.1 1.8-1.5 5.8-1.5 3.7 0 5.6-.4 6-1.4.3-.8 1.5-1.1 2.9-.8 3.4.6 7.5-.6 7.5-2.2 0-.7.7-1.9 1.5-2.6.9-.7 1.4-1.9 1.1-2.7-.3-.7-.1-1.3.4-1.3 1.3 0 4-5.4 4-8 0-1.8.4-2 2.3-1.4 1.2.5 3.2.8 4.5.9 1.2 0 2.2.3 2.2.7 0 .5.6.8 1.4.8 1 0 1.4-.9 1.3-2.7-.2-2.6.1-2.8 4.8-3.4 3.6-.5 5.5-.2 6.7.8.9.8 1.9 1 2.2.5.3-.5 1.9-.7 3.6-.4 2.3.3 3 .1 3-1.3 0-.9.7-2.3 1.6-3.2 1.2-1.2 2-1.3 4-.5 1.3.7 2.4.8 2.4.3s.9-.7 2-.4c1.3.4 2 0 2-1 0-2.4 5.2-2.9 6.8-.5 1.3 1.8 1.5 1.9 3.3.2 1.9-1.7 2.1-1.7 4.5 1 1.7 1.8 3.2 2.5 4.3 2.1.9-.4 2.2-.9 2.9-1.2.6-.3 1.2.1 1.2.8 0 1 .3 1.1.8.3 1.2-2 7.4.7 9.2 4.1.9 1.6 4.5 4.9 8.1 7.2 4.9 3.3 7.3 4.3 10.6 4.3s4.8.6 7.2 3.1c1.7 1.7 3.1 3.9 3.1 4.9 0 1 .5 2.2 1 2.5.6.3 1 1.4 1 2.4 0 2.5 3.2 5.1 6.3 5.1 3.4 0 4.3 1.7 2.2 4-2.1 2.3-1.6 5.4 1 5.9 1.1.2 2.2.6 2.5 1 1.2 1.5 7.1 4.2 8 3.6 1.8-1.1 1.1 3.2-1 5.8-1.1 1.4-2 3.4-2 4.5 0 1-.8 3-1.9 4.3-1 1.3-2.1 4.4-2.4 6.9-.3 2.4-1.1 4.6-1.8 4.9-.7.2-2.3 1.5-3.5 2.8-1.3 1.4-2.7 2.2-3.3 1.9-.5-.4-1.2.3-1.6 1.4-.4 1.1-1.5 2-2.7 2-1.4 0-1.8.5-1.5 1.5.4.8.2 1.7-.3 2-.6.4-.7 1.8-.4 3.2.6 2.4.5 2.5-2 2.1-2.1-.4-2.6-.1-2.6 1.4 0 1-.7 2.1-1.5 2.4-.8.4-1.3 1-1 1.4.3.4-.4 1-1.4 1.3-1.2.3-2.1 1.7-2.5 4-.4 2.1-1.6 4.1-3.1 5.1-2.8 1.9-3.2 5-1.3 10.3 1 2.8 1 3.6-.1 4.3-.8.4-1.4 2.1-1.3 3.7.1 2.9-.1 2.9-4.8 2.9-3.2-.1-5.7-.7-7-1.8-2.8-2.4-3.7-2.3-1.5.2 1.8 2 .8 2.9-1.2.9-.7-.7-1.2-.5-1.5.9-.4 1.5-.1 1.8 1.3 1.5 2.3-.6 2.4.5.3 3.2-1.1 1.4-1.8 1.6-2.1.7-.5-1.3-4.9-1.7-5.7-.4-.2.4-.1 1.4.5 2.2.6 1 .9 1.1.9.2 0-.6.5-1.2 1.1-1.2.6 0 .9.7.6 1.5-.4.8-.2 1.7.4 2.1.6.3.2 1.3-1 2.3-1.1 1-1.8 2.1-1.5 2.4.3.3.1 1.4-.4 2.4-.9 1.4-.5 2.4 1.6 4.6 1.5 1.5 3.6 5.6 4.8 9 1.9 5.6 2.4 6.2 4.7 5.9 3.3-.3 4.2 1.2 2.3 4-2.1 3.4-2.3 9-.3 11.8.9 1.3 1.7 3 1.7 3.6 0 .7.4 1.4 1 1.6.5.1 1.1 1.8 1.3 3.6.4 3.8.7 4.1 3.8 4.7 1.3.3 2.9 1 3.4 1.8.6.7 2.3 1.8 3.8 2.5 1.6.7 2.5 1.7 2.2 2.3-.4.6-.9.8-1.3.5-.3-.3-1 .2-1.7 1.1-.7.9-1.7 1.3-2.3.9-1.8-1.1-1.4-2.6.6-2 1.3.5 1.4.4.3-.4-1.7-1.2-5.1.5-5.1 2.5 0 .7-.7 1.3-1.5 1.3-.9 0-1.2.6-.8 1.7.5 1.3.2 1.5-1.2.9-1.1-.4-2.5 0-3.6 1-1 .9-2.2 1.3-2.8 1-.5-.4-1.2-.2-1.6.4-1 1.7-2.5 1.1-3.5-1.2-.8-2.2-.9-2.2-.9.4-.1 2-.5 2.5-1.9 2.1-1.4-.3-1.9.1-1.8 1.9.1 1.4-.5 2.3-1.4 2.4-.8 0-2.8.6-4.3 1.2-1.6.7-3.9 1.2-5.2 1.2-1.8 0-2.2.4-1.8 2.1.4 1.4.1 2-.8 1.8-.8-.2-2.4.3-3.7 1-2.1 1.1-2.6 1-4.7-1.3-1.3-1.4-3.3-2.6-4.3-2.6-2 0-5.5 4.5-8.7 11.3-.9 2-2.4 3.7-3.1 3.7-.8 0-1.4.7-1.4 1.5s-.7 1.5-1.5 1.5-1.5.4-1.5 1c0 .5.7 1 1.5 1s1.5.3 1.5.8c0 .4 1 1.2 2.3 1.7 1.2.6 2.2 1.5 2.2 2.2 0 .6 1.2 2.3 2.7 3.6 1.8 1.7 2.6 3.2 2.1 4.2-.3 1 0 2.1.8 2.6 2 1.3 2.9 1.1 2.9-.6 0-1.9 1.4-1.9 2.9-.1 2 2.4 16.4 3.7 18.5 1.6.6-.6 1.9-1 3-1 2.6 0 7.6-4.8 6.9-6.6-.4-1.1.9-1.3 5.7-1.3 5.3.1 6.3.4 6.7 2 .4 1.5.8 1.7 1.9.8 1.4-1.1 1.5-1 1.8 1.1.2 1.5 2.7 3 5.3 3 1.2 0 3.5 1.1 5.1 2.5 2.9 2.4 4.5 2.5 3.6.1-.5-1.2 3.1-5.6 4.5-5.6.5 0 1.4-1.4 2.1-3 .7-1.6 1.6-3 2.1-3 2 0 5.9-4.9 5.9-7.4 0-1.9.4-2.5 1.3-1.9.6.4 2.4.8 3.9.9 2.6.1 2.6 0 1.3-2-2.1-3-1.8-3.9.9-3.2 2 .5 2.5.2 2.8-1.6.4-3.1 2.9-3.3 8.5-.7 2.7 1.3 6.3 2.1 8.1 2 1.8-.1 3.2.2 3.2.8 0 .6 1.3 1.1 2.9 1.1 3.6 0 5 2.8 2.4 4.9-1.7 1.3-1.7 1.3 0 .8 2.2-.8 2.2.1-.3 3.8-2.3 3.4-2.7 6.1-.8 4.8.7-.4 2.9-.8 4.8-.8 2.8 0 3.8-.6 5.5-3.2 1.7-2.8 2.4-3.2 5-2.6 9.1 1.8 14.5 1.9 16 .3.8-.9 1.5-2.2 1.5-2.8 0-.8.9-1 2.5-.6 1.9.5 2.5.2 2.5-1s1-1.6 3.9-1.6c2.1 0 5.1-.5 6.8-1 2-.7 3.8-.7 5.5-.1 2.1.8 2.9.6 4.4-1 .9-1 2.3-1.9 3-1.9.8 0 1.6-1.1 2-2.5.6-2.4.7-2.4 2-.8.9 1.3 1.3 1.4 1.4.4 0-1 1-1.2 4-.7 3.6.6 4 .4 4-1.4 0-1.5.7-2 2.6-2 2.5 0 2.6-.2 2.1-3.6-.5-2.8-.3-3.5.8-3 .8.3 1.8-.2 2.3-1 .6-1.1 1.1-.7 2.1 1.9 1.3 3.3 1.5 3.4 6.7 3.3 4.5-.1 5.4-.4 5.8-2.2.7-2.5 3.9-6.4 5.5-6.4.6 0 1.9-1.3 2.9-2.8 1-1.6 2.4-2.6 3.4-2.4 1.2.2 1.5-.2 1.2-1.5-.4-1.5.2-1.8 3.8-2 3.4-.1 5.1.4 7.8 2.6 4.3 3.4 10 4.8 10 2.5 0-1.2.6-1.5 2.5-1 1.8.5 2.5.2 2.5-.9 0-1 1-1.5 3-1.5 2.4 0 2.8-.3 2.3-1.8-.5-1.4-.4-1.5.8-.6 2.5 1.9 5.9 2.4 5.9.7 0-.8.4-1.2.9-.9 2.3 1.5 3.9-.6 3.4-4.2-.6-3.3-.5-3.6 1-2.4.9.8 1.3 2 1 2.8-.3.8.1 1.4 1.1 1.4 1.1 0 1.6.9 1.6 2.7.1 2.5 2.9 9.1 3 6.9 0-.5.7-.3 1.5.4.8.6 2.3.9 3.5.5 1.4-.4 2.8-.1 3.9.9 1.6 1.5 1.9 1.5 3.1.1.7-.8 2-1.5 2.9-1.5 1.4-.1 1.4-.2-.1-1.1-2.7-1.5-2.2-3.2.8-2.5 3.9 1 9.6-.4 10.1-2.5.6-2.3 4.7-3.3 7.3-1.7 1.1.7 2 1.6 2 2 0 .5 1.4.8 3 .8 2 0 3-.5 3-1.5 0-1.1 1.1-1.5 4.1-1.5 3.5 0 4.7-.6 7.5-3.6 2.1-2.4 3.8-3.4 4.8-3.1 1.1.4 1.6.1 1.6-1.2 0-2.4 5.9-3.3 9.2-1.5 1.6.9 2.7.9 3.5.2.9-.7 2.3-.6 4.7.6 1.9.9 3.9 1.6 4.5 1.6.6 0 1.1.4 1.1 1 0 .5-.6 1-1.3 1-.8 0-2.2.9-3.2 2-1.9 2.1-7.9 2.8-9 1-.4-.6-1.5-.8-2.5-.5-1.1.3-2.9.1-4-.5-1.9-1-2.1-.8-2 2.2.1 6.8-1.1 9.9-5 12.7-3.2 2.2-3.7 3.1-3.5 5.8.2 3.3-.6 5.5-2.1 5.4-3.2-.3-5.3 2.2-3.3 3.9 1.3 1 2 8 .9 8-.7 0-.9.8-.5 2 .5 1.4.2 2-1 2-.8 0-1.8.6-2.1 1.4-.3.8-2.5 2.5-5 3.7-2.6 1.4-4.4 3.1-4.4 4.1 0 .9-.7 2.1-1.6 2.6-1.3.7-1.4 1.3-.5 3.1.7 1.1 1.8 2.1 2.5 2.1s2.5.9 3.9 2c3 2.4 4.7 2.6 4.7.5 0-.8.9-1.9 1.9-2.5 1.1-.5 2.8-2.3 3.7-3.9 1.9-3.2 6-5.6 6.9-4.1.7 1.2 2.6 1.3 2.4.2-.3-1.8.2-3.2 1.2-3.2.5 0 .7.5.4 1-.4.6 1.5.9 5.1.7 4.2-.3 6.1-.9 7.4-2.4 1.2-1.5 2.1-1.8 3.8-1.2 1.3.5 2.2.4 2.2-.1s1.3-.7 2.9-.4c2.3.5 3.2.2 4.1-1.6.8-1.5.8-2.5.1-3.4-.7-.9-.7-1.6 0-2.3.8-.8.7-1.8-.2-3.4-.9-1.7-.9-2.4 0-2.7.6-.2 1.1-1 1.1-1.8s.5-1.4 1.1-1.4c.5 0 .7-.5.4-1.1-1.2-1.8 2.9-.5 4.6 1.5 1.4 1.7 1.4 2.6.3 7.5-.9 3.6-1 5.9-.3 6.7 1.5 1.8 0 4.3-3.2 5.1-2.9.8-4.1 3.1-1.4 2.5.8-.1 1.7.8 2.1 2.2.3 1.3 1.3 2.7 2.1 3 1.3.5 1.2 1-.7 2.6-2.4 2.1-5 2.6-5 1.1 0-1.8-6.4-7.1-7.1-5.9-.4.6-1.9.8-3.6.5-2.5-.5-3.2-.1-4.6 2.3-1 1.6-3.2 3.3-5.2 4-1.9.6-3.5 1.5-3.5 1.8.1 1.9 2 3 6.3 3.5 2.7.4 6.1 1.6 7.7 2.7 1.5 1.1 3.7 2 4.8 2 1.1 0 3.3.7 4.8 1.5 1.6.8 3.6 1.2 4.5 1 .9-.3 3.3.2 5.3 1 3.7 1.6 3.8 1.5 6.2-1 1.3-1.4 2.4-3 2.4-3.5s.6-.7 1.3-.5c.7.3 1.8-.8 2.5-2.5 1.5-3.3 3.3-3.8 5.7-1.4 1.2 1.3 1.9 1.3 3 .4.8-.6 3.3-1.3 5.7-1.5 6-.4 5.8-.3 5.8-2.5 0-1.1.5-2 1-2 .6 0 1-1 1-2.1 0-1.7.5-2 2-1.6 1.7.4 2 .2 1.4-1.5-.5-1.7-.3-1.8 1.4-.9 1.1.6 2.2.8 2.5.4.4-.3 1.2-.1 2 .5 1.5 1.3 4.3-.1 3.3-1.6-.3-.6-.2-1.3.3-1.6.5-.4 2.2 1 3.7 2.9 3 4 4.6 4.1 5.4.4.4-1.8 1.4-2.5 3.5-2.7 1.7-.2 3.5-.8 4-1.3.7-.7.3-.8-1-.3-1.8.7-1.8.6-.6-.9 1.2-1.5 1.1-1.7-.3-1.7-.9 0-1.6.4-1.6 1 0 .5-.9.6-2.2.1-2.5-.9-6.2-6.7-5.3-8.2.4-.5-.1-.9-.9-.9-.9 0-1.6-.5-1.6-1 0-.6.4-1 .9-1 1.4 0 1.9-7.1.7-10.2-1.3-3.5-4.6-4.5-4.6-1.5-.1 2.5-2.2 5.7-3.7 5.7-.6 0-1.6-.7-2.3-1.5-1-1.2-.7-1.9 1.7-3.9 2.3-2 2.6-2.7 1.5-3.8-1.1-1.1-1.2-1-.7.3.4 1.2-.1 1.8-1.9 2.3-1.9.5-2.4 1.2-2.2 3 .2 1.4-.3 2.7-1 3-1.6.6-2.9-1-1.5-1.8.5-.4.8-1.7.6-3.1-.1-1.4.2-2.8.7-3.1.5-.3.2-1.6-.6-3-2-3-2-3.4.2-3.4 1.1 0 2.6-.8 3.5-1.8 1.3-1.5 1.4-1.9.1-3.6-1.7-2.4-1.8-3.9-.1-3.1.6.4.5.1-.4-.7-.9-.7-2-2.4-2.4-3.7-.6-2.1-.5-2.3 1.4-1.8 2.3.6 2.9-1 .7-1.9-1.9-.7-5.8 1.4-5 2.8.4.6-.1.8-1.2.5-1.1-.4-3.1-.9-4.6-1.2-1.5-.4-2.9-1.4-3.3-2.2-.5-1.4-.7-1.4-1.9.2-.7 1-1.1 2.8-.8 4.1.3 1.9 0 2.4-1.6 2.4-1.1 0-2.3-.6-2.5-1.3-.4-.7-.8-.3-1.3 1.1-.3 1.2-1.1 2.2-1.8 2.1-3.3-.4-4.8.5-6.4 3.8-1.6 3.4-2.2 3.8-5.1 3.6-1.9-.1-3.8-.7-4.3-1.5-.7-.9-1.1-1-1.4-.2-.7 1.6-4.1.6-4.9-1.4-.4-1-.9-4.3-1.2-7.5-.4-5.1-.2-6.2 1.8-8.3 1.8-1.9 2-2.7 1.1-3.6-.7-.7-1.2-.8-1.2-.2 0 1.7-3.6 1-5.6-1-1.7-1.7-1.7-1.9-.1-3.1.9-.7 1.7-1.7 1.7-2.4 0-.6.5-1 1.2-.9.7.2 1.3-.4 1.4-1.2.4-4.5.4-4.4 1.6-3.2 3 3 5.8-.5 3.3-4.1-2-2.9-2-5.8 0-5 .9.3 2.2-.2 2.9-1.2.8-1.1 2-1.6 3-1.2.9.4 1.6.2 1.6-.4 0-.6.5-.7 1-.4.6.3 1-.2 1-1.2 0-1.6.3-1.5 1.8.5 1.2 1.6 2.3 2.1 3.6 1.6 1.3-.5 2.8.4 5.7 3.6 2.1 2.3 3.9 4.6 3.9 5.1s.6.9 1.4.9c.7 0 1.9.7 2.6 1.5 2 2.4 2.9.8 1.9-3-.6-1.9-.7-4.1-.3-4.7.5-.7.9-3.2 1-5.6.1-2.4.6-4.8 1.2-5.4 2.1-2.1-8.1-13.1-11.4-12.5-1.7.3-2.6-.4-3.7-2.9-.9-1.8-1.4-4.3-1.2-5.5.2-1.2.2-1.9-.2-1.6-.3.3-1.2 0-2-.8-1.7-1.8-3.3-1.9-3.3-.3 0 .7-.6.5-1.7-.4-2.5-2.2-6.3-3.2-6.3-1.8 0 .8-.8 1-2.2.7-1.2-.4-2.9 0-3.8.7-1.1 1-3.5 1.1-9.4.6-6.7-.6-8.1-1.1-9.7-3.1-1-1.3-1.7-2.9-1.5-3.4.2-.6-.5-1.9-1.6-3.1-1.7-1.9-1.7-2.2-.3-3.4 1.3-1.1 1.3-1.5-.2-4-.9-1.6-2.7-3.3-4-3.9-1.3-.6-2.8-2.2-3.4-3.5-.7-1.4-2.4-3-3.8-3.6-2.9-1.1-6.6-6.4-5.7-7.9.3-.5-.2-1.2-1.1-1.5-1.5-.6-1.5-.8-.3-1.6s1.3-1.3.2-2.7c-.7-1-1.5-2.6-1.8-3.6-.4-.9-1.4-1.7-2.4-1.7-3 0-5-1.1-5-2.9-.1-4.1-6.3-8.1-9.8-6.2-1.4.7-2.5.6-4-.4-1.6-1.2-2.1-1.2-2.5-.2-.6 1.8-3.7-1.1-5.4-5.1-1.6-3.9-5.1-5.6-7.3-3.7-.8.7-3.4 1.2-5.7 1.1-3.6-.2-4.3.1-4.3 1.6 0 1-.7 1.8-1.7 1.8-1.4 0-1.8-.8-1.8-3.3 0-1.7.4-3.8.9-4.5.5-.8.1-2.1-1-3.3-1.8-2-1.8-2.1.6-3.9 2.1-1.6 2.5-2.7 2.4-6.9 0-4.6.2-5.1 2.2-5.1 2.9 0 5.1-4.9 3.5-7.8-1.6-3-1.4-3.3 1.4-2.6 1.4.3 2.5.2 2.5-.4 0-.6.8-.8 1.9-.5 1.5.4 1.8 0 1.4-2.1-.8-3.9 3.1-3.4 7 .9 1.7 1.9 3.7 3.5 4.4 3.5.9 0 1.1.8.8 2.3-.8 2.9 1.1 4.6 5.8 5.4 2.9.4 3.6.2 4-1.3.4-1.7.5-1.7.6-.2.1 2.1 3.6 2.4 4.4.4 1-2.5 5.6-2.8 9.3-.6 1.9 1.2 3.4 1.7 3.4 1.1 0-.7 2.2-1.1 5.5-1.1 3 0 5.5.4 5.5.9 0 1.3-3 2.2-4.3 1.4-.6-.4-.1.7 1.1 2.4 1.2 1.8 1.8 3.4 1.3 3.7-.5.3-.8 2.4-.7 4.6.2 4.5 2.5 6.9 6.6 7 2.4 0 4.5 2.4 7.7 9 1.1 2.2 1.2 1.7.6-3.5-.3-3.3-1-6.9-1.6-7.9-.7-1.5-.6-2.2.7-3.1 1.5-1.1 1.4-1.5-.5-3.9-1.2-1.5-1.8-3.3-1.5-4.4.4-1-.1-3.2-.9-4.9-1.3-2.7-2.2-3.1-7.1-3.7-6.8-.8-11.4-3-11.4-5.5s-4.2-5.1-8-5.1c-1.9 0-3-.5-2.9-1.3.1-.6.1-1.8 0-2.4-.1-1.8-5.9-4.5-7.4-3.6-.7.4-3.3.8-5.9 1-2.6.1-5.4.6-6.4 1.1-2.3 1.3-11.2-1.7-12-4.1-.3-1-1.8-2.3-3.2-2.9-7.4-3-9.2-4-9.2-5.2 0-4.4-16.1-11.3-19.7-8.4-1.7 1.3-6.9-1-8.2-3.7-1.1-2-1.1-2-.8 0 .1 1.4-.5 2.1-2 2.3-1.4.2-2.3-.2-2.4-1-.1-2.4-5.7-5.9-10.1-6.2-2.4-.2-6.2-1.2-8.5-2.1-3.3-1.4-4.3-2.3-4.3-4.2 0-1.4.6-2.3 1.5-2.3 1.1 0 1.2-.6.6-2.3-.4-1.2-.6-2.8-.4-3.5.3-.6 0-1.2-.5-1.2s-1.7-1.9-2.8-4.3c-1.9-4.4-3.5-5.9-6.9-6.4-10.1-1.4-9.2-.8-16.5-11.1-3.2-4.6-7.8-8.4-10.7-8.8-.7-.1-2.5-1-4-2.1-1.5-1-4.5-2.7-6.5-3.7-2.1-1.1-3.8-2.5-3.8-3.3 0-.7-2.2-4.4-5-8.1-3.4-4.8-6.1-7.4-9-8.7-4.1-1.8-8.1-5.2-4.6-3.9 1.6.6 1.6.4.4-2.7-.8-2-1.2-6.3-1-10.6.2-6.2.6-7.3 2.3-7.8 1.3-.5 1.9-1.4 1.7-2.8-.2-1.8.1-2.1 2-1.9 1.7.3 2.2-.2 2.2-1.7 0-1.2.4-2.1.8-2.1 1.2 0 3.2-4.6 3.2-7.1 0-1.2 1-2.3 2.5-2.9 3.2-1.2 4.1-5.1 2.5-10.1-.7-2.1-1-4.2-.7-4.6.4-.3 0-1.5-1-2.5-.9-1.1-1.1-1.8-.5-1.8 3.2 0 .2-4.3-4.9-7-1.7-1-1.9-1.4-.8-2.1 2.6-1.6 8.5-1 10.4 1.1 1 1.1 2.3 2 2.9 2 .6 0 .1-.8-1.1-1.8-3.3-2.6-3.3-5.4 0-6.3 2-.5 2.7-.4 2.7.6 0 .7-.5 1.6-1 1.8-.6.3-.5.4.2.3.8-.2 1.3-1.7 1.2-4-.1-2.3.3-3.6 1.1-3.6.7 0 1.8-.7 2.5-1.5 1-1.2 1-1.8 0-3-.8-.9-1.2-4.2-1.1-8.5l.1-6.9-4-2.1c-2.2-1.1-4-2.5-4-3 0-.6-.7-1-1.5-1s-1.5.3-1.5.7c0 .5-2.2.8-5 .8-4.5 0-5.1-.2-5.9-2.7-.7-2.1-.6-3.1.5-4.2 2.9-3 .7-7.4-3.4-6.7-.7.1-3.3-1.8-5.7-4.3-2.4-2.6-4.9-4.6-5.5-4.6-.6 0-.9-.8-.6-1.8.4-1.3-.5-3-2.9-5.4-3.3-3.3-3.4-3.6-1.5-4.1 1.4-.4 2-1.3 2-3.2 0-2.2.4-2.6 2-2.2 1 .3 2.1 0 2.2-.5.2-.6 1-.3 1.7.6.9 1.1 1 1.6.2 1.6-.6 0-1.1.5-1.1 1.2 0 .9.3.9 1.2 0 1.7-1.7 3.9-1.5 3.2.3-.4.8-.1 1.5.5 1.5.7 0 1.7-1.4 2.2-3 .6-1.7 1.7-3 2.4-3 .8 0 1.1-.8.8-2-.3-1.1 0-2 .6-2 1.7 0 1.3-3.6-.6-5.1-1-.7-1.5-.9-1.1-.5 1.7 2-5.1 9-7 7.2-.7-.8 1.1-7.8 2.4-9 .7-.8 1-1.7.6-2.1-.4-.4.5-.6 2-.3s2.5.2 2.3-.2c-.3-.4.4-1 1.5-1.3 1.7-.4 2 0 2.1 2.6 0 1.8.3 2.6.6 1.9.9-2.3 5.1-1.2 10.4 2.8 4.8 3.6 5.3 3.8 6.5 2.2.7-.9 1.6-1.4 2-.9.4.4 1.5.1 2.3-.7 1.4-1.3 2-1.1 4.9 1.4 1.8 1.6 3.7 3 4.1 3.2.5.2 1.2 1.3 1.6 2.6.5 1.9.3 2.5-1.4 2.9-2.8.7-1.7 2.1 1.3 1.6 1.7-.4 2.8.2 4 1.8 2 2.9 2.1 8.8.2 9.5-1.2.4-1.1 1 .1 3.6 1.4 2.7 1.4 3.1-.1 4.6-1 1.1-1.6 1.2-1.6.4 0-1.3-2.7-.1-6.2 2.7-1.2 1-1.8 1-1.8.3s-.4-1.2-1-1.2c-.5 0-.1 2.4 1 5.2 2.3 6.2 6.3 10.2 9.3 9.4 1.2-.3 2.7 0 3.4.6 1.4 1.1 4.7.3 4-1-.3-.4.1-1.6.9-2.7.8-1 1.4-1.5 1.4-.9 0 .5.4.2 1-.6.8-1.2 1.1-1.2 2.8.3 1 .9 2.6 1.7 3.6 1.7.9 0 3.4 1.8 5.6 4 2.2 2.2 4.9 4 6 4 1.2 0 3 .5 4.1 1 1.5.9 2.1.7 2.5-.5.9-2.3 2.2-1.8 4 1.7.9 1.8 3.2 4.6 5 6.1 1.8 1.5 3.1 3.3 2.8 4-.8 2.1 3.4 5.7 6.7 5.7 1.6 0 4.4-1 6.3-2.2l3.3-2.2-2.5-2.8c-1.4-1.5-3.3-2.8-4.2-2.8-2.2 0-4.6-2.8-4.2-5 .1-.9-.4-2.3-1.3-3-.8-.7-1.5-2.2-1.5-3.4 0-1.9-1.9-6.1-2-4.3 0 1.3-4.5-2.2-4.5-3.5 0-1-8.1-7.2-10.6-8-1.5-.5 0-7.8 1.6-7.8.7 0 1.5.5 1.7 1.1.2.6 1-.1 1.8-1.6 1.1-2.1 1.2-3 .2-4.6-1.1-1.7-1-2.3 1-3.9 1.3-1.1 3.7-1.9 5.4-2 2.7 0 3.2-.4 3.2-2.5 0-1.3-.4-2.2-.9-1.9-.5.3-.9-.1-.9-.9 0-.7-1.1-2-2.5-2.7-1.3-.7-2.7-2.1-3.1-3.2-.3-1-1-1.8-1.6-1.8-.5 0-.8-.6-.5-1.4.3-.7 0-1.9-.6-2.6-1-1-.7-1.2 1-.7 2.6.6 3.8-1.6 1.8-3.3-1.1-.9-1.2-1.7-.5-3 1.4-2.6 1.3-3-.9-3-1.4 0-1.7-.6-1.3-2.5.2-1.4.8-2.5 1.3-2.5s.9-.8.9-1.7c0-.9.7-2.4 1.4-3.2 1.9-2.1.5-9-2.1-10.8-4-2.6-6.3-4.9-6.3-5.9 0-.7-.7-1.4-1.4-1.7-1.1-.5-1.3-1.6-.9-4.4.3-2.1 1-4.1 1.6-4.4.5-.4.5-.9-.2-1.3-.6-.4-2-2.8-3.1-5.3-1.7-3.9-1.8-4.8-.7-6.2 1.7-1.9 1.7-9.2.1-11.2-2.2-2.7-2.3-5.7-.3-6.2 1.6-.4 1.8-.9.9-3.1-.5-1.4-.7-3.9-.4-5.6.5-2.5.2-3.1-2-4.1-2.8-1.3-5.1-6.7-4.1-9.8.3-1.1 0-3.3-.8-4.8s-1.8-3.9-2.2-5.2c-.6-2-.4-2.3.9-1.8 1 .4 1.6.1 1.6-.8 0-.8-.8-1.5-1.7-1.5-1.5 0-1.4-.4.5-1.8 1.7-1.3 2.4-2.9 2.5-5.5.1-4.5-.5-5.2-3.1-3.6-1.7 1-2.3 1-3.6 0-.9-.8-1.6-2.1-1.6-3 0-1-1.6-3.6-3.5-5.8-2.2-2.6-3.3-4.7-2.9-5.7.4-1-.1-2.5-1-3.5-1.2-1.3-1.4-2.1-.7-2.6.7-.4.9-2.2.4-4.7-.5-3.2-.3-3.9.6-3.3 1 .6 1.1.3.2-1.4-1.3-2.4-.7-4.1 1.5-4.1 1 0 1.3-.7.8-2.5-.4-1.6-.2-2.5.6-2.5.6 0 .8-.5.4-1.2-.5-.7-.9-3.1-.9-5.4-.2-4.1-.2-4.2 2.7-3.3 2.3.6 3 .4 3.5-.9.4-.9 2.1-3.5 3.9-5.7 2.3-2.9 3.2-4.9 3-7.2-.1-1.7.2-2.9.6-2.7.5.3.6-.6.3-1.9-.5-2-.1-2.9 1.8-4.1 1.8-1.2 2.3-2.3 1.9-4.1-.5-3.1-3.2-5.6-3.2-3.1 0 1.4-.3 1.5-2.2.5-1.3-.7-3.6-1.2-5.2-1.1-2.4.2-4-.8-8-4.7-5.9-5.7-9.1-6.6-12.4-3.4-2.1 2.1-5.2 2.2-5.2.2 0-.5-.5-.9-1-.9-.7 0-.7.7.1 2.1.9 1.7.8 2.3-.2 3-.8.5-1.7.9-2.1.9-.9 0-2.9 6.1-2.2 7.1.3.5-.7.9-2.1.9-2.3 0-2.6-.3-2.2-2.3.4-1.2.2-2.9-.3-3.7-.7-1.1-1-1.2-1-.2 0 1.5-2.5 1.1-2.5-.4 0-.5-.4-1.5-.8-2.2-.5-.8-.3-1.2.7-1.2s1.5-.8 1.3-2.3c-.1-1.6.3-2.2 1.8-2.2 2.7 0 3.2-.9 3-5.3-.2-3.4-.5-3.7-3.4-3.8-3.6-.1-3.6-.1-4.5-3.2-.5-1.3-.3-2.2.3-2.2s1.1-1.1 1.1-2.4c0-1.7.7-2.6 2.5-3 1.8-.5 2.5-1.3 2.5-3.2 0-1.3.7-2.7 1.5-3 2.3-.9 1.8-3.4-.8-3.4s-5.4-3.5-3.4-4.3c.9-.4.9-.6 0-.6-2.1-.1-1.5-2.5 1.9-7.5 2.6-4 2.9-5.1 2-6.7-2.2-3.5-1.4-5.6 3.7-8.8 2.7-1.8 5.1-4.1 5.4-5.1.3-1.1 1.1-2 1.9-2 1.8 0 3.5-2.9 4.3-7.3.5-2.8.3-3.7-1.3-4.8-2.4-1.8-4.5-5.6-3.7-6.9.3-.6 0-1-.8-1s-1.7-.7-2.1-1.5c-.3-.8-1.2-1.5-2-1.5-1.1 0-1.3-.9-.9-3.8.3-2 1.1-4.4 1.8-5.2 2.5-3 2.8-7.8.6-10.6-1.1-1.4-2.3-4.2-2.7-6.3-.4-2-1.3-4.3-2.1-5.2-.7-.9-1.3-2-1.2-2.5.2-.5-.3-2.8-1.1-5.2-1.4-4.5-4-6.7-7-5.9-1.2.3-2.1-.3-2.8-1.7-.5-1.3-2.5-2.7-4.3-3.2-1.9-.5-3.4-1.5-3.4-2.2 0-.7-.6-1.7-1.4-2.1-.7-.5-1-1.4-.7-2 .4-.6 0-2.5-.8-4.2-.9-1.7-1.3-3.6-1-4.1.4-.6-.4-.8-2.2-.4-1.6.3-3.5.2-4.3-.3-.8-.5-2.9 0-5.7 1.6-2.5 1.4-5.1 2.3-5.9 2-.7-.3-1.6-.1-1.8.6-.6 1.4-3.8-2.3-3.3-3.8.3-1-6.4-7-8.5-7.7-.9-.3-.9-.9 0-2.5 1.1-2.2.8-3.2-3.2-12.1-1.1-2.2-.5-3.3 2.5-4.4.3-.2.2-2.4-.4-5-.9-4-.8-5.1.6-7.3 1.4-2.1 1.5-2.9.5-4.1-.6-.8-.9-1.7-.6-2.1.4-.3-.5-2-2-3.7-2.2-2.6-2.3-3.2-.9-3.4 2-.4 2.1-1.6.2-3.2-.8-.6-1.6-2.6-1.8-4.3-.2-2.5-.8-3.3-2.7-3.5-1.5-.3-2.1 0-1.6.8.9 1.4-3.1.9-6.2-.8-2.9-1.6-5.2-1.5-5.9.3-.4.9-1.9 1.5-3.8 1.5-1.8 0-3.6.4-4.2.9-.5.5-2.7 1.1-4.8 1.3-3.3.3-4.1.8-4.9 3.2-.9 2.8-.4 3.8 2.8 4.9.6.2.4 1.1-.4 2.1-1.2 1.5-1.6 1.5-3.1.1-2.2-2-2.3-2-6.3 2-1.9 1.9-4.4 3.5-5.5 3.5-1.1 0-3.4 1.4-5.1 3.1-2.6 2.6-3.4 2.9-4.7 1.8-1.1-.9-1.8-.9-2.6-.1-1.6 1.6-2.8 1.5-2.8-.3 0-.9-1.2-2.1-2.7-2.8-1.6-.6-3.1-1.6-3.4-2-.4-.5-1.6 0-2.8 1.2-2.5 2.5-3 2.5-5.6.5-1.9-1.4-1.9-1.6-.3-2.8 1-.7 1.5-1.5 1.2-1.9-.3-.3-.7-1.3-.8-2.4-.4-2.3-5.6-3.2-5.6-.9 0 .9-.6 1.6-1.3 1.6-1.6 0-1.6 3.3.1 5.3.7.7.9 1.7.5 2-.3.4-.1.7.7.7 1 0 1 .3 0 1.5-.8.9-2.8 1.4-5.4 1.3-2.2 0-4.9.2-5.8.6-.9.4-2.2.4-2.9 0-.6-.4-2.8-.8-4.7-.9-2.6-.2-4.2-1-6.1-3.4-2.1-2.5-2.9-2.9-3.8-2-2.3 2.3-6.3 1.6-9-1.6-2.2-2.5-2.3-3.1-1-3.3 1.3-.3 1.5-.8.7-2.2-.6-1-1-3.4-1-5.2.1-7.5-.8-12.5-3.1-16.8-1.3-2.5-2.4-5-2.5-5.5 0-.6-.6-2.3-1.3-3.9-.6-1.6-1-3-.9-3.2.8-.7 8.7 4.1 11.8 7.1 2 1.9 4.1 3.5 4.8 3.5.6 0 1.9 1.2 2.9 2.7 2.1 3.3 3.4 4.4 4.5 3.7.5-.3 2.4.4 4.3 1.6 2.8 1.7 3.3 2.5 2.5 3.9-.7 1.5-.4 2.1 1.6 3 1.4.6 2.4 1.9 2.3 2.9-.3 3.2.1 4.3 1.2 3.6.6-.3 1.5 0 2 .7.7 1.1 1 .9 1.5-.8.7-2.4 3-2.2 5.1.5 1 1.2 1.3.9 2-1.8.8-2.9 1-3.1 2.2-1.6.9 1 1 1.6.2 1.6-.6 0-1.1.5-1.1 1.1 0 .6 1.2.9 2.8.8 1.5-.2 3.3.1 4.1.6 1.1.6 1 .2-.2-1.6-2.2-3.1-2.1-4.2.1-3.5 1.4.5 1.8.1 1.8-1.6-.1-1.7.6-2.4 2.9-2.8 2.3-.4 3-1.1 2.9-2.8 0-1.2.3-2.2.8-2.2s.6-.5.3-1c-.4-.6.5-1 1.9-1 2.2 0 2.5.4 2.2 2.8-.3 3.3 1.7 6.7 3.4 5.7 1.8-1.1 5.7.3 6.2 2.3.4 1.3 1.5 1.9 3.7 2 1.8 0 3.8.5 4.5 1.1 1.8 1.5 2.6.3 1.6-2.5-1-2.6-.1-3.1 1.8-1.2.9.9 1.7.6 3.7-1.2 1.4-1.3 2.5-2.7 2.5-3.1 0-1.1-6.4-1.8-7.4-.8-1.6 1.4-5.3 1-6-.6-.3-.8-1.2-1.5-2.1-1.5-.8 0-1.5-.4-1.5-.9 0-1.2-5.9-7.1-7.1-7.1-.6 0-.9-.6-.8-1.3.1-.6-.1-2-.5-2.9-.5-1-.6-2.3-.3-3 .5-1.6-4.1-4.8-7-4.8-1.3 0-2.3-.5-2.3-1.1 0-.6-.8-.9-1.9-.6-2.3.6-5.8-3-4.3-4.5.7-.7.4-2.1-.9-4.3-2.7-4.5-5-6.4-8.8-7.1-3.1-.7-3.3-.6-2.6 1.6.6 1.9.4 2.2-1 1.7-.9-.4-2.1-.7-2.6-.7-.6 0-.8-.4-.5-.9.4-.5 0-1.1-.6-1.4-.9-.3-.6-1.2 1-2.9l2.3-2.6-2.3-1.8c-1.3-1.1-3-3.2-3.8-4.8-1.1-2.1-1.6-2.5-1.8-1.3-.2 1-1.2 1.7-2.3 1.7-1.1 0-1.8-.4-1.5-.8.3-.5-.4-1.9-1.6-3.2l-2.2-2.3 2.7.7c2.3.5 2.7.3 2.7-1.4 0-1.1-.3-2-.7-2-.5 0-.8-3.2-.8-7.1 0-6.7-.2-7.2-3-9.5-2.6-2-2.8-2.6-1.8-4.3 1-1.5.9-2-.2-2.4-.7-.3-1.6-1.9-2-3.6-.8-3.7-2.2-4.9-6.8-5.6-3.2-.5-3.7-.4-3.7 1.3 0 1-.9 2.7-2 3.7s-2 2.5-2 3.3c0 1-.7 1.2-2.4.8-2-.5-2.6 0-3.7 2.7-.8 1.7-1.2 3.8-1.1 4.4.2.7-.6 1.3-1.7 1.3-2.5 0-3.1 1-3.5 5.5-.4 4.7-1.9 6.3-4.2 4.4-1.5-1.2-1.6-1.2-1.1.6.5 1.6 0 2.3-2.3 3.3-1.7.8-3.3 2.4-3.6 3.8-.3 1.3-1.3 2.4-2.1 2.4-1.2 0-1.3.3-.4 1.3.6.8.8 1.6.6 1.9-.3.3.5.3 1.9.1 1.7-.4 2.3-1 1.9-2-.5-1.3-.2-1.3 1.5-.4 2.4 1.3 2.8 2.6 1.1 3.6-.7.5-.5 1.3.6 2.5s1.4 2.6 1 3.9c-.4 1.4.1 2.8 1.4 4.2 1.7 1.8 1.8 2.5.8 3.7-2.3 2.8-.1 8.2 3.4 8.2 1.1 0 1.9.7 1.9 1.5 0 .7.7 1.8 1.6 2.3 1.2.7.6 1.4-3.1 3.3l-4.5 2.4-5-5c-3-3.1-5.2-6.3-5.6-8.3-.3-1.8-1.5-3.7-2.5-4.3-1.1-.5-1.9-1.8-1.9-2.9 0-1-.5-2-1-2.2-.6-.2-1.8-3.6-2.6-7.6-1.2-5.7-1.2-7.7-.3-8.8.7-.9.8-1.9.2-2.7-1-1.4-.9-8.9.1-10.6.4-.6.4-1.6.1-2.2-.4-.6 1.1-2.6 3.4-4.5 2.7-2.3 4.1-4.4 4.1-5.9 0-1.3.4-2.6.9-2.9 1.6-1 1.9-6 .5-8.6-2.9-5.4-6.3-7.5-12.8-7.8-10.9-.4-13.1-.2-16.3 1.5-3.2 1.7-3.3 1.7-6.5-1.3-3.3-3.1-9.3-5.8-10.8-4.9-.4.3-1.1-.5-1.4-1.8-.3-1.2-2.2-3.2-4.2-4.5-3.2-2.1-3.7-2.2-4.8-.7-1 1.4-1.7 1.3-7.1-1-4.8-2.2-6.3-2.5-7.8-1.5-1.5.9-2.9.6-7.2-1.5-5.7-2.7-6.9-3-6.1-1.7zm124.3 37.4c-.3.8-.6.5-.6-.6-.1-1.1.2-1.7.5-1.3.3.3.4 1.2.1 1.9zm-3.8 8.2c-.9.8-1 .7-.5-.7.3-1 .7-2.4.7-3 .1-.7.3-.4.6.7.3 1-.1 2.3-.8 3zm-104.9 40.7c0 .5.5.7 1 .4.6-.3 1-.1 1 .6s1.8 3.4 4 6c3.9 4.7 5.2 9.1 2.9 10.4-1.5 1-5.9-3.4-5.2-5.1.3-.8-.1-1.4-1-1.4s-1.9-1.7-2.7-4.7c-.6-2.6-1.6-5.3-2.2-6-.8-1-.6-1.3.6-1.3.9 0 1.6.5 1.6 1.1zm12.9 25.1c-1.6 2.9-2.4 2.1-2.4-2.2 0-4 0-4 1.6-1.8 1.3 1.6 1.5 2.7.8 4zm82.1 45.8c.8.5 1.1 1.2.7 1.6-.4.4-1.5 0-2.4-.9-1.8-1.8-.8-2.3 1.7-.7zm-1 4.6c0 .8-.4 1.2-1 .9-.5-.3-1-1.3-1-2.1s.5-1.2 1-.9c.6.3 1 1.3 1 2.1zm33.5 25.1c.1 1 1.1 3.4 2.3 5.3 2.6 4.2 2.7 5 .7 5-1.1 0-1.4.7-1 2.3.5 1.8.1 2.6-1.9 3.5-1.9.8-2.4 1.6-1.9 2.9.4 1 .9 2 1.3 2.3 1.4 1.1 3.7 6.8 3.1 7.7-.3.5-2.2.9-4.1.9-3.2-.1-3.5-.3-3.3-3.1.1-1.6-.5-3.7-1.3-4.6-1-1.1-1.2-1.9-.5-2.3.6-.4.3-1.4-.9-2.6-1.9-1.9-1.8-5.1.2-4.7.6.1 1.5-1.4 2-3.3s1.6-4 2.4-4.7c1.3-1 1.3-1.2-.5-1.8-2.5-.7-2.7-2-.6-2.9.8-.3 1.5-1.3 1.5-2.3 0-2.3 2.3-.1 2.5 2.4zm-15.7 18.6c.3 1.3-.3 1.7-2.8 1.7-2.7 0-3 .3-2.5 2.1.6 1.8.5 2-1.4 1-2.7-1.5-2.6-1.7.6-4.7 3-2.7 5.6-2.8 6.1-.1zm23.2 25.4c0 .7-.7 1-1.5.7-.8-.4-1.5-1-1.5-1.5s-.7-.9-1.5-.9-1.5-.7-1.5-1.6c0-1.3.4-1.3 3 .3 1.7.9 3 2.3 3 3zm10.3 8.3c2.1 1.2 3.5 2.5 3.2 3-.3.4.2 1.5 1 2.3 1.5 1.6 2.1 4.7.8 4.7-.4 0-2.8-2.3-5.4-5.1-4-4.3-5.1-5-7.8-4.7-2 .2-3.5-.3-4.1-1.2-1.5-2.3-1.2-3.4.6-1.9 1.3 1.1 1.7 1 2.6-.5.9-1.6 1.2-1.6 3.1-.2 1.2.9 3.9 2.5 6 3.6zm12.7 22.6c0 .8-.4 1.2-1 .9-.5-.3-1-1.3-1-2.1s.5-1.2 1-.9c.6.3 1 1.3 1 2.1zm-131.7 84.9c-.3.9-.8 1.4-1 1.1-.3-.3-.2-.9.2-1.5.9-1.6 1.5-1.3.8.4zm7.3 5.7c.9-.2 3.1.6 5.1 1.8 1.9 1.1 4.3 1.8 5.3 1.5 1.9-.6 5 1.8 5 4 0 .7.7 1.5 1.5 1.9 2.2.8 1.9 7.2-.5 10.6-1.6 2.3-1.8 3.6-1.2 7.1 1.1 6.4.9 7.4-1.6 7.7-2.9.4-6.2-3.1-5.5-5.8.3-1.1 1-2 1.5-2 .6 0 .5-.6-.2-1.5-.6-.8-1.7-1.3-2.2-1.2-.6.1-1.2-.3-1.5-.9-.4-1.2 2.7-2.4 6.4-2.4 3 0 6.2-6.4 4.4-8.9-.6-.9-1.4-2.4-1.7-3.4-.4-.9-1.4-1.7-2.4-1.7s-2-.5-2.2-1.1c-.2-.7-1.2-.7-3.1 0-3.3 1.3-7.7 1.4-7.7.3 0-.4.5-1.3 1.2-2 .9-.9.7-1.2-1.1-1.2-1.4 0-2 .4-1.5 1.1.4.7.7 2.4.6 3.8 0 2.5.2 2.6 3.3 2.3 1.8-.2 3.6.1 3.9.7.4.6 0 1.1-.8 1.1-.9 0-1.6.8-1.6 1.8 0 1.1-1 2.4-2.2 3-1.9.9-2 1.1-.5 1.1 1.3.1 1.6.7 1.1 2.5-.4 1.9-.1 2.6 1.5 3.1 1.2.3 2.1 1.1 2.1 1.6 0 1.2-1.7 1.2-2.4 0-.3-.5-1.5-.7-2.7-.4-1.4.4-2 .1-1.8-.8.2-.8-.3-2.5-1-3.8-.8-1.4-.9-2.1-.2-1.7 2.1 1.3 1.1-2.5-1.6-6.1-2.8-3.6-4.4-9.1-2.3-7.8 1.1.7.8-3.5-.4-5.4-1.1-1.7 2.8-1.8 4.2-.2.7.9 2 1.5 2.8 1.3zm207.8 201.9c1.7 1.7 1.8 1.9.2 2.5-2.5 1-7.6-1.5-7.6-3.7 0-1.6.5-1.8 2.7-1.3 1.5.4 3.6 1.5 4.7 2.5zM303.03 809c.3.5-.1 1-.9 1-.9 0-1.6-.5-1.6-1 0-.6.4-1 .9-1 .6 0 1.3.4 1.6 1zm250.1 28c.1.8.3 2.1.5 2.9.2.8-.4 1.6-1.3 1.9-2 .4-4.1-3-3.2-5.3.8-1.9 3.6-1.6 4 .5zm-190.6 17.4c-1.3 2.1-2 2.5-2 1.4 0-.9.5-2 1-2.3.6-.4 1-1.2.9-1.8-.1-.7-.1-2.1 0-3.2.2-1.8.3-1.8 1.2.4.7 1.8.5 3.1-1.1 5.5zm-53 90.6c-1.9 1.3-3 1.3-3 0 0-.6 1-1 2.3-1 1.8 0 1.9.2.7 1zm161 79c0 .5-.6 1-1.4 1-.8 0-1.8-.5-2.1-1-.3-.6.3-1 1.4-1 1.2 0 2.1.4 2.1 1zm209.5 21.8c-.3.3-1.1 0-1.8-.7-.9-1-.8-1.1.6-.5 1 .3 1.5.9 1.2 1.2zm-41.2 27.6c-1 .5-1.8.4-2.4-.5-.5-.9-.3-1.6.9-2 2.2-.8 3.6 1.3 1.5 2.5zm6.5 1.4c.6 1.8-1.5 1.4-2.2-.4-.4-1-.1-1.4.6-1.2.6.2 1.4 1 1.6 1.6z"/><path d="M198.63 392.4c-.8 1-.9 1.6-.1 2.1.5.3 1.3-.1 1.6-1 .9-2.2-.1-2.9-1.5-1.1zM7.53 131c0 .5.5 1 1.1 1 .5 0 .7-.5.4-1-.3-.6-.8-1-1.1-1-.2 0-.4.4-.4 1zM176.43 267.7c-1.5.4-1.6.7-.2 3.4 1.4 2.8 1.4 3.1-.3 4.5-1.4 1.1-1.5 1.7-.6 2 1.8.8 1.5 2.3-.5 2.2-1-.1-3 .2-4.5.5-2.2.6-2.8.4-2.8-.8 0-.8-.4-1.5-1-1.5-.5 0-.9.3-.8.7 0 .5-.2 1.5-.6 2.4-.5 1.1.1 2.5 1.8 4.2 1.4 1.5 2.6 3.7 2.6 5.1 0 1.4.5 2.8 1 3.1 1.1.7-2.5 4.5-4.2 4.5-.4 0-.8 1.1-.8 2.5s-.7 2.8-1.5 3.1c-.8.3-2 2.3-2.6 4.5-.7 2.1-1.6 3.6-2 3.3-.7-.4-3.5 3.6-3.1 4.3.8 1.2-.1 3.3-1.4 3.3-1.4 0-1.4.2 0 2.2 1.6 2.2 2.2 4.8.9 3.5-.3-.4-1.4 0-2.4.9-1.1 1-2.8 1.5-4.5 1.1-2.4-.4-2.5-.2-1.9 2.2.3 1.4.7 3.5.8 4.6.1 1.1 1.5 3.3 3.1 4.8 2.8 2.8 2.8 2.8.8 4.7-2.6 2.4-5.8 1.6-9.4-2.4-1.5-1.7-2.8-2.5-2.8-1.8 0 2.3 2.1 5.3 4.3 6.1 1.3.6 3.6 3.7 5.7 7.9 1.9 3.9 4.1 7.2 4.9 7.4.8.2 1.5 1.8 1.7 3.7.3 1.9.9 4 1.5 4.7.6.7.8 1.8.4 2.4-.3.5.1 1 1 1 1.2 0 1.5-.5 1.1-1.8-.3-.9.3-.5 1.5 1 1.1 1.6 2.6 2.8 3.2 2.8.7 0 .6-.4-.3-1-1.1-.7-1.2-1.2-.3-1.8.9-.6.9-1.8.1-4.7-.5-2.2-1-5.1-1-6.5 0-1.3-.7-3-1.6-3.7-2.2-1.6-6.2-1.7-6.2-.1 0 .9-.3.9-1.2 0-.8-.8-.8-1.5 0-2.4.7-.9.7-1.9.2-2.8-1.3-2.1-1.2-6.7.2-7.6.8-.5 1 .3.6 2.7-.7 4.2.7 6.3 4.6 6.7 2.2.3 3.5-.3 5.2-2.4 1.3-1.5 2.4-2.4 2.4-2.1 0 .4.8-.1 1.8-1.1 1.3-1.2 1.6-2.2 1-3.5-.6-1.2-.5-1.7.6-1.7.8 0 1.8.4 2.1 1 .3.5 1.3 1 2.2 1 .9 0 2.5.8 3.5 1.7 1.8 1.6 1.9 1.6 2.5-.6.4-1.5 1.1-2 2.1-1.6 1.3.5 1.3.3-.1-1.3-2.4-2.6-2.1-3.3.9-2.6 2.5.6 2.5.5 1.4-1.6-1-1.8-.9-2.4.1-3.1.8-.5 1.7-.9 2.2-.9.4 0 .6-1.4.5-3.1-.3-3.5-3.4-6.4-7.9-7.4-3.2-.7-6.5-4.7-5.4-6.5.4-.6-.4-1.9-1.7-3-1.9-1.6-2-1.9-.6-2 1 0 3.5 1.8 5.7 4 4.2 4.3 5.8 4.9 6.7 2.6.7-1.8-1.4-5.8-2.7-5.1-.5.4-.9.4-.9.1 0-.2-.3-1.3-.7-2.3-.5-1.4-.4-1.6.8-.7 1 .8 2 .7 3.7-.1 2.3-1.2 2.3-1.3.5-2.6-1.9-1.5-2.6-7-1-8 .6-.4.7-1.5.3-2.5-.6-1.4-.9-1.6-1.5-.5-.7 1.1-1 1.1-1.7 0-.4-.7-.3-1.4.3-1.6 1.2-.4 1.1-.6-3.5-10.1-1.9-4-1.9-4.2-.2-4.2 1 0 2.6-.7 3.5-1.6 1-1.1 2.4-1.4 4.1-1 1.5.4 3.2.2 4-.5.8-.6 2.2-.9 3.3-.6 1.5.3 1.8 0 1.4-1.7-.4-1.7-.3-1.8.6-.6 1.3 1.9 1.4.5.1-2-.7-1.3-1.7-1.6-3.2-1.2-2.1.5-2.2.4-.9-1.2 1.3-1.5 1.3-1.9.1-2.6-.9-.5-1.9-.5-2.7.1-.8.7-1.8.7-3 .1-1.2-.7-2.5-.7-3.5-.1-1.1.6-1.9.6-2.3-.1-.6-1-.9-1.1-3.6-.3zm-3.9 30.9c0 .8-.5 1.2-1 .9-.6-.4-.8-1.1-.5-1.6.9-1.4 1.5-1.1 1.5.7zM166.93 375.3c.1.7 1.8 3.4 3.9 5.9 2 2.5 3.7 5 3.7 5.7 0 .6.5 1.1 1 1.1 1.8 0 1.1-2.9-1-4.2-1.1-.7-2-2.2-2-3.4 0-1.1-1-3-2.3-4.2-2.7-2.5-3.6-2.8-3.3-.9zM503.43 612.2c-.6 1.9-.6 3.8 0 3.8 1 0 3.1-2.2 3.1-3.2 0-.7-2.9-1.2-3.1-.6zM509.03 617c.4.6 1.1.8 1.6.5 1.4-.9 1.1-1.5-.7-1.5-.8 0-1.2.5-.9 1zM467.03 636c.3.5.8 1 1.1 1 .2 0 .4-.5.4-1 0-.6-.5-1-1.1-1-.5 0-.7.4-.4 1zM554.73 654.2c-.8.8-.8 1.6 0 3.2 2 3.5 1.7 4.2-1.3 3.8-2.2-.3-2.9 0-2.9 1.2 0 .9-.8 1.6-2 1.6-2.1 0-2.7 1.5-1 2.5.6.3 1 0 1-.7.1-.7.7-.2 1.4 1.2.8 1.4 1.2 2.8 1 3.1-.2.4 1.5.7 3.9.7 4.6-.1 9.6 3 9.8 6.1 0 1.2.2 1.2.6.3.4-1 1.3-.6 3.4 1.4 3.2 3.1 3.6 4.4 1.4 4.4-1.7 0-2 1.6-.5 2.5.6.3 1 1 1 1.5 0 1.4-2.5 1.8-6.8 1-3.4-.6-4.4-.4-5.2.9-.5.9-1 1.3-1 .8 0-.4-1 .3-2.1 1.4-2.1 2.1-2.1 2.3-.6 4.8.9 1.4 2.4 3 3.4 3.6 1 .5 2 1.2 2.3 1.5 3.3 3.3 9.2 6.9 10.4 6.4 1.2-.4 1.5-.2 1.1.9-.4.8.1 1.7.9 2 .9.4 1.6 1.5 1.6 2.5 0 2.5 3.1 5.2 5.8 5.2 1.6 0 2.2-.6 2.2-2.4 0-3.8 2.3-5 4.8-2.3 2.3 2.4 4.9 8.2 3.2 7.2-.6-.3-1 .1-1 .9 0 .9-.4 1.6-.9 1.6s-.8 2.4-.7 5.2c.2 4-.2 5.8-1.7 7.5-1.1 1.2-1.7 2.8-1.4 3.6.7 1.9 6 3.3 6.5 1.7.3-.8.8-.8 1.7 0 .9.7 1.6.6 2.5-.5 1-1.2 1.6-1.3 2.6-.4 1.1.9 1.4.7 1.4-1.1 0-1.7.4-2.1 2-1.7 1.5.4 2 0 2-1.3 0-1.1-.4-2.1-1-2.5-.5-.3-.6-1.3-.3-2.2.4-1 .2-1.4-.4-1-.7.4-1 0-.9-1 .2-1 1.5-2.4 3-3.1 2.5-1.3 2.6-1.5 1.2-3.1-1.1-1.2-1.2-2.1-.6-2.7.7-.7.4-1.8-1-3.5-1.6-1.8-2-3.1-1.5-5.7.4-2.1.1-3.9-.7-4.9-1-1.3-.9-1.7.7-2.9 4-2.7 4.7-3.7 4.2-6-.3-1.8 0-2.4 1.4-2.4 1.1 0 1.9-.5 1.9-1 0-.6-.5-1-1.1-1-.8 0-.9-2.1-.4-7 .6-6.1.5-7.2-1.4-9.6-1.2-1.5-2.1-3.3-2.1-4 0-.8-.6-1.4-1.3-1.4-.8 0-2.4-1.1-3.7-2.5-1.3-1.4-3.2-2.5-4.2-2.5s-3.5-1.7-5.6-3.8c-4.6-4.6-8.2-6-8.2-3.1 0 1.4-.7 1.9-2.5 1.9-1.4 0-2.5.4-2.5.9 0 1.7-4-.1-6.3-2.8-1.3-1.6-4.1-3.3-6.7-4-2.5-.7-5.2-1.4-6-1.7-.9-.2-2.1.1-2.8.8z"/><path d="M524.13 654.9c-.8 1.2 2.1 8.7 3.1 8.1.4-.3.7-.8.6-1.3-.7-1.8.9-.4 2.7 2.5 1.1 1.8 2 2.8 2 2.3 0-.6.9.1 1.9 1.4 1.1 1.4 4.1 3.2 6.8 4.2 2.6.9 5.6 1.9 6.5 2.4 1.5.6 1.8.2 1.6-2-.2-1.7-1-3-2-3.3-1-.2-1.8-1.2-1.8-2.1 0-1-1.1-2.7-2.5-3.9-1.4-1.2-2.5-2.6-2.5-3.2 0-.5-.7-.7-1.5-.4-.9.4-1.6-.3-2.1-2-.3-1.4-1.3-2.6-2.1-2.6-1.3 0-1.3.3-.3 1.5 1.3 1.6 0 2.1-1.5.6-1.4-1.3-8.4-3.1-8.9-2.2zM172.13 833.2c.5.7.2.9-.8.6-1.4-.6-4.4 1.7-7.3 5.4-1.2 1.4-.8 4.7.7 6.5.7.9.5 1.7-.5 2.8-1.8 1.7-5.1.9-4.3-1.1.3-.8 0-1.1-.9-.8-1.1.5-1.1 1.1.1 4 1.3 3.1 1.3 3.5-.4 5.2-1.8 1.8-1.8 2-.2 3.9.9 1.2 2.5 2.2 3.5 2.4 2 .4 3.3 4 4.2 11.6.3 3 .1 4.3-.7 4.3-.9 0-1 .4-.2 1.3.6.7.9 2.3.5 3.5-.4 1.8-.1 2.2 1.9 2.2 2.8 0 5.2 2.4 6.2 6 .9 3.7 1.8 4.8 4.7 5.5 2.3.6 2.7.3 3.3-2 .6-2.3 1.1-2.6 3.3-2.2 1.5.3 3.5 0 4.6-.7 1.5-.8 2.1-.8 2.4.1.6 1.5 3.3 1.7 3.3.3 0-.6.7-1 1.6-1 2.9 0 8.4-4 7.7-5.6-.4-1.2-.8-1.3-1.3-.3-.5.6-1.5.9-2.3.6-1.3-.5-1.4-1.2-.7-3.8 1.1-3.6.6-5.1-1.5-4.3-.8.3-3.1-1.2-5.4-3.6-3.9-4-4-4.3-2.6-6.9.8-1.6 1-3.2.6-3.7-.5-.5-1.2-1.9-1.5-3.1-.5-1.6-.2-2.3 1.3-2.8 1.9-.6 2-.8.6-4.1-1.3-3.1-.5-4.9 1-2.4.3.5 1.2 1 2 1 1 0 1.3-1.4 1.2-5.4-.2-4.8-.5-5.5-2.4-5.9-1.3-.2-2.3 0-2.3.4 0 2-2.7-.5-3.6-3.3-1-3.6-5.6-5.8-8.4-4-1.1.7-2.3.6-4.1-.4-3-1.7-4.2-1.8-3.3-.2zM345.03 848c.3.5.8 1 1.1 1 .2 0 .4-.5.4-1 0-.6-.5-1-1.1-1-.5 0-.7.4-.4 1zM630.03 884.1c-.4 1.9-.7 4.4-.6 5.5.2 1.7-.3 2.1-2.4 2.1-1.4 0-2.8-.3-3.1-.8-.3-.5-1.2-.9-1.9-.9-1.1 0-.9 1.1.9 4.5 1.3 2.4 2.7 5 3 5.7.5 1 .7 1 1.2 0 .3-.6.9-1 1.4-.7 1.2.8 4.2-2.6 3.6-4.1-.3-.7.6-2.8 1.9-4.7l2.3-3.5-2.7-3.3-2.8-3.3-.8 3.5z"/><path d="M186.53 894.9c0 .7-.6 1.1-1.4.8-1.4-.6-2.4 1.2-4.3 7-.8 2.4-.8 3.3.2 3.6 1.7.7 4-.8 2.6-1.7-1.9-1.2-1.2-4.6 1.6-7.2 1.4-1.3 2.3-2.7 2-3.1-.4-.3-.7-.1-.7.6zM176.33 906.7c.7.3 1.6.2 1.9-.1.4-.3-.2-.6-1.3-.5-1.1 0-1.4.3-.6.6zM641.23 995.3c-1.1 2.9-.9 4.3.4 3 .6-.6.9-1.9.7-2.9-.3-1.8-.4-1.8-1.1-.1zM674.53 995.4c0 .9.5 1.6 1 1.6.6 0 1-.4 1-.9 0-.6-.4-1.3-1-1.6-.5-.3-1 .1-1 .9zM635.53 995.9c0 .5.5 1.3 1 1.6.6.3 1 .2 1-.4 0-.5-.4-1.3-1-1.6-.5-.3-1-.2-1 .4zM677.53 1002.9c0 2.8 2.2 6.1 4.5 6.7 2.1.5 3.2 2.3 2.3 3.8-.2.3.7 1.6 2 2.9 3 3.2 9.2 4.2 9.2 1.5 0-1-.7-2.1-1.5-2.4-1.7-.7-2-3.1-.4-3.6 2.5-.8-.7-3.7-7.4-6.6-7.8-3.5-8.7-3.7-8.7-2.3zM691.63 1026.6c0 1.1.3 1.4.6.6.3-.7.2-1.6-.1-1.9-.3-.4-.6.2-.5 1.3zM686.53 1028.4c0 .2.7.7 1.6 1 .8.3 1.2.2.9-.4-.6-1-2.5-1.4-2.5-.6zM247.43 1039.8c1.1 2.1 4.1 4.8 4.1 3.8 0-.4-.7-1.8-1.6-3.1-1.9-2.9-4-3.4-2.5-.7zM244.53 1047.1c0 .4.7.9 1.5 1.3.8.3 1.5.9 1.4 1.3-.5 3.1.3 3.5 2.5 1.4 3.2-3 2.4-5-2-4.8-1.9.1-3.4.5-3.4.8zM252.53 1051c0 .5.5 1 1 1 .6 0 1-.5 1-1 0-.6-.4-1-1-1-.5 0-1 .4-1 1zM243.53 1055.4c0 .8.6 1.6 1.3 1.9.8.3 1.3-.3 1.3-1.4 0-1.1-.6-1.9-1.3-1.9-.7 0-1.3.6-1.3 1.4zM246.03 1063c.3.5.8 1 1.1 1 .2 0 .4-.5.4-1 0-.6-.5-1-1.1-1-.5 0-.7.4-.4 1zM598.03 1063.8c-1.7 1.2-1.6 3.2.1 3.9 1.2.4 1.3.7.3 1.4-1.7 1 2.7 2.8 5.3 2.1 2.4-.6 2.3-2.3-.2-2.9-1.1-.3-2-.8-2-1.2 0-1.6-2.6-4-3.5-3.3z"/></g></svg>