<?xml version="1.0" standalone="no"?>
<!DOCTYPE svg PUBLIC "-//W3C//DTD SVG 20010904//EN"
 "http://www.w3.org/TR/2001/REC-SVG-20010904/DTD/svg10.dtd">
<svg version="1.0" xmlns="http://www.w3.org/2000/svg"
 width="620.292885pt" height="415.876224pt" viewBox="0 0 620.292885 415.876224"
 preserveAspectRatio="xMidYMid meet">
<metadata>
Created by potrace 1.15, written by Peter Selinger 2001-2017
</metadata>
<g transform="translate(-631.381680,1229.859526) scale(0.100000,-0.100000)"
fill="#222222" stroke="none">
<path d="M9329 12289 c-15 -6 -29 -19 -32 -29 -5 -18 -8 -19 -44 -6 -21 7 -54
16 -75 20 -32 6 -39 3 -58 -21 -13 -17 -19 -35 -16 -49 4 -13 1 -26 -5 -29 -5
-4 -14 -17 -19 -30 -7 -19 -15 -23 -43 -20 -32 3 -36 0 -52 -35 -17 -37 -17
-38 4 -59 12 -12 21 -28 21 -36 0 -12 -5 -12 -41 0 -48 17 -49 17 -48 8 4 -26
-2 -34 -23 -28 -18 6 -20 4 -14 -11 4 -11 9 -26 11 -34 2 -8 6 -22 10 -31 8
-21 -12 -34 -29 -20 -11 9 -15 5 -20 -21 -4 -18 -8 -41 -9 -50 -1 -10 -4 -18
-7 -18 -3 0 -6 -18 -7 -41 -2 -50 -6 -55 -38 -41 -20 9 -25 9 -25 -2 0 -19
-37 -49 -50 -41 -7 4 -9 16 -6 27 4 19 1 20 -35 14 -25 -4 -52 -1 -75 9 -20 8
-44 15 -53 15 -10 0 -27 11 -39 25 -12 14 -28 25 -34 25 -9 0 -10 2 -2 8 32
20 -52 93 -91 79 -8 -4 -18 1 -23 9 -14 25 -83 26 -102 1 -16 -19 -20 -19 -86
-7 -38 8 -76 19 -85 27 -20 17 -59 17 -85 -1 -13 -10 -25 -11 -35 -5 -25 15
-64 10 -77 -11 -7 -11 -19 -20 -27 -20 -8 0 -15 -5 -15 -12 0 -6 -9 -3 -20 7
-13 12 -20 14 -20 5 0 -8 -10 -11 -30 -8 -16 3 -30 1 -30 -2 0 -4 -13 -10 -29
-13 -18 -4 -32 -14 -36 -27 -3 -11 -15 -20 -25 -20 -11 0 -29 -13 -42 -30 -12
-16 -29 -30 -39 -30 -9 0 -22 -7 -29 -15 -7 -8 -24 -15 -39 -15 -14 0 -35 -7
-45 -15 -11 -8 -31 -15 -46 -15 -14 0 -30 -8 -37 -20 -11 -16 -17 -18 -43 -9
-24 9 -35 8 -55 -5 -36 -23 -120 -21 -152 4 -26 20 -69 28 -58 11 3 -5 1 -12
-5 -16 -5 -3 -10 -14 -10 -24 0 -13 -10 -21 -35 -25 -20 -4 -40 -4 -45 -1 -6
4 -17 -1 -26 -9 -8 -9 -22 -16 -29 -16 -7 0 -24 -14 -37 -30 -22 -28 -27 -30
-52 -20 -23 8 -33 7 -56 -10 -16 -11 -53 -32 -83 -45 -50 -23 -56 -24 -83 -10
-36 19 -39 19 -85 -2 -21 -10 -39 -26 -41 -37 -2 -10 -12 -24 -23 -30 -11 -6
-24 -17 -30 -24 -8 -10 -17 -10 -41 0 -43 16 -84 -9 -80 -48 2 -14 7 -29 12
-32 5 -4 14 -16 20 -27 6 -11 30 -33 54 -50 23 -16 43 -34 43 -40 0 -5 8 -16
18 -23 10 -7 24 -31 30 -52 7 -22 16 -40 21 -40 4 0 8 -7 8 -15 0 -10 10 -15
33 -14 29 0 66 -5 125 -17 12 -2 22 -11 22 -19 0 -8 11 -22 25 -31 27 -18 32
-43 13 -62 -9 -9 -9 -12 4 -12 8 0 40 -13 71 -30 31 -16 63 -27 72 -24 27 11
69 -15 97 -59 22 -36 34 -44 76 -54 28 -6 60 -9 71 -6 12 3 28 -1 37 -8 9 -8
22 -14 28 -14 24 -2 47 -18 42 -31 -3 -8 0 -11 10 -7 8 3 24 -5 37 -21 16 -18
32 -26 55 -26 24 0 35 -6 41 -22 11 -28 87 -98 107 -98 8 0 18 -10 23 -23 5
-13 16 -29 25 -36 9 -7 16 -24 16 -36 0 -27 33 -71 59 -80 11 -3 24 -19 30
-35 5 -17 14 -30 19 -30 5 0 12 -17 14 -38 5 -34 24 -70 75 -142 10 -14 17
-28 16 -31 -1 -4 22 -10 52 -14 53 -6 54 -7 49 -34 -9 -45 9 -68 61 -75 25 -4
45 -11 45 -16 0 -15 61 -80 70 -75 21 13 190 -258 190 -304 0 -6 -12 -11 -26
-11 -24 0 -22 -3 28 -50 56 -53 121 -90 164 -95 24 -2 38 -14 47 -38 1 -4 20
-9 42 -10 46 -2 74 -28 75 -69 0 -25 4 -28 34 -28 25 0 35 5 39 20 3 11 11 18
19 15 7 -2 48 -6 90 -9 60 -3 78 -1 82 11 3 8 11 11 17 7 7 -4 10 -1 7 7 -2 7
4 22 14 33 18 19 20 19 47 3 42 -24 91 -23 98 4 4 14 10 18 22 13 36 -16 71
-16 71 -2 0 8 15 23 34 33 23 13 36 28 40 47 4 19 10 27 17 22 7 -4 18 1 25
11 7 10 35 24 61 30 l48 13 14 -32 c27 -63 24 -61 92 -58 35 1 90 4 121 6 42
3 58 0 62 -10 3 -7 12 -11 21 -8 12 5 15 -3 15 -41 0 -40 3 -46 18 -41 9 3 44
-8 77 -24 33 -16 62 -25 63 -20 2 6 8 8 13 4 5 -3 9 2 9 10 0 10 9 16 23 16
22 0 27 -7 61 -76 20 -41 88 -70 111 -48 8 9 15 20 15 25 0 6 17 -3 37 -20 21
-17 45 -31 55 -31 9 0 19 -9 23 -19 3 -12 12 -18 20 -15 8 3 26 -6 40 -20 14
-14 37 -29 51 -32 14 -4 28 -13 31 -20 3 -7 21 -16 40 -20 37 -7 93 -48 93
-68 0 -13 53 -56 70 -56 5 0 10 -4 10 -10 0 -5 16 -10 35 -10 27 0 33 3 29 15
-5 13 -1 12 25 -2 26 -15 33 -16 40 -4 6 9 11 10 15 2 12 -19 59 -1 94 37 26
27 32 40 27 59 -4 16 0 34 10 49 12 19 13 29 5 44 -8 16 -7 24 4 35 18 19 30
19 23 1 -8 -20 23 -13 35 8 8 14 12 15 26 4 9 -7 13 -8 9 -2 -8 14 14 24 54
24 19 0 29 -5 29 -15 0 -14 29 -20 66 -16 7 1 14 -5 18 -14 3 -8 14 -15 24
-15 10 0 23 -5 29 -11 9 -9 19 -6 39 10 15 11 37 21 50 21 20 0 24 5 24 29 0
16 7 36 15 43 39 35 44 38 51 27 6 -11 84 64 84 81 0 5 6 11 13 13 8 4 4 12
-12 25 -16 13 -21 24 -15 33 5 8 7 22 6 31 -2 12 2 16 11 12 9 -3 30 2 48 12
l33 16 -26 14 c-15 8 -29 23 -33 34 -4 12 -15 20 -29 20 -22 0 -56 27 -56 46
0 5 -14 17 -30 26 -24 14 -30 24 -30 52 0 19 4 37 10 41 16 10 1 31 -40 54
-27 15 -40 29 -42 48 -3 24 -7 26 -43 26 -22 0 -47 5 -55 12 -8 6 -35 13 -60
14 -25 1 -55 9 -67 17 -14 9 -33 12 -48 8 -20 -5 -28 -1 -42 25 -12 21 -24 30
-35 27 -10 -2 -21 0 -24 5 -3 5 -24 9 -47 9 -33 0 -51 -7 -77 -30 -23 -19 -46
-29 -67 -30 -23 0 -33 -5 -33 -15 0 -9 -9 -15 -24 -15 -35 0 -87 21 -84 34 1
6 -9 34 -23 61 -14 28 -29 68 -33 90 -4 22 -14 57 -23 77 -14 33 -14 39 0 52
10 11 13 28 10 61 -4 32 -2 45 7 45 21 0 4 66 -29 113 -23 31 -32 55 -33 90
-1 27 -8 49 -15 51 -7 3 -13 11 -13 17 0 7 -8 18 -17 25 -10 7 -13 14 -7 14 6
0 17 -7 24 -15 10 -12 16 -13 26 -4 11 9 18 8 29 -1 12 -10 15 -9 15 4 0 10 4
15 9 12 10 -7 44 45 56 84 4 14 16 31 26 38 11 7 19 24 19 37 0 23 23 55 40
55 4 0 13 19 19 43 6 24 20 55 31 69 11 15 20 35 20 47 0 11 8 24 17 30 10 5
15 13 11 17 -9 8 40 69 55 69 20 0 32 33 20 57 -7 13 -15 47 -19 77 -5 41 -13
59 -35 80 -28 24 -29 28 -17 59 7 17 18 32 26 32 9 0 11 7 7 20 -5 15 -2 20
14 20 39 0 47 9 43 50 -3 28 -8 37 -18 33 -8 -3 -14 1 -14 10 0 8 -13 17 -30
20 -21 5 -28 11 -24 22 4 10 0 15 -12 15 -18 1 -18 1 -1 14 10 8 17 26 17 45
0 18 5 31 13 31 7 0 18 9 24 19 10 16 10 27 -1 53 -7 18 -11 38 -9 45 2 6 -1
14 -6 18 -6 3 -11 18 -11 33 0 15 -9 47 -20 71 -25 53 -25 55 0 48 22 -6 25 5
10 34 -8 15 -7 19 3 19 8 0 20 7 28 16 10 13 10 17 -2 24 -8 6 -15 6 -17 0 -2
-6 -10 -10 -18 -10 -8 0 -14 -6 -14 -13 0 -7 -13 -24 -30 -39 l-30 -26 -23 28
c-32 38 -66 55 -80 41 -20 -20 -62 -12 -105 20 -28 21 -48 28 -62 24 -14 -5
-31 5 -65 39 l-45 46 -45 -21 c-41 -19 -46 -20 -60 -5 -19 19 -28 19 -74 6
-18 -5 -41 -6 -50 -2 -9 4 -34 5 -56 2 -32 -4 -44 -1 -64 18 -13 12 -29 22
-35 22 -14 1 -82 88 -78 101 1 5 -2 9 -8 9 -5 0 -23 13 -40 30 -26 26 -33 28
-59 19 -23 -8 -36 -7 -60 5 -37 20 -82 28 -138 27 -23 -1 -45 3 -48 9 -7 12
-11 12 -46 -1z m-451 -598 c3 -8 -1 -12 -9 -9 -7 2 -15 10 -17 17 -3 8 1 12 9
9 7 -2 15 -10 17 -17z m1204 -966 c7 -47 4 -66 -9 -61 -8 4 -19 6 -24 6 -5 0
-9 12 -9 26 0 14 -4 34 -10 44 -9 17 -7 17 20 7 17 -6 31 -16 32 -22z m23 -85
c3 -5 -1 -10 -9 -10 -9 0 -16 5 -16 10 0 6 4 10 9 10 6 0 13 -4 16 -10z m-301
-80 c4 0 25 -19 47 -42 30 -33 42 -39 51 -30 13 13 54 16 61 5 3 -5 7 -21 8
-37 3 -22 -1 -30 -19 -37 -19 -7 -25 -4 -34 16 -13 28 -58 36 -58 10 0 -8 -4
-15 -10 -15 -5 0 -10 5 -10 10 0 13 -27 13 -32 0 -2 -6 -20 5 -41 24 -34 31
-37 38 -27 56 6 12 9 28 6 36 -3 8 -3 21 1 30 5 13 9 12 27 -5 12 -12 26 -21
30 -21z m16 -290 c9 -16 8 -22 -6 -27 -18 -7 -35 13 -27 34 7 19 21 16 33 -7z"/>
<path d="M10400 10475 c0 -8 5 -15 10 -15 6 0 10 7 10 15 0 8 -4 15 -10 15 -5
0 -10 -7 -10 -15z"/>
<path d="M10476 10472 c-7 -12 41 -45 54 -37 6 3 10 1 10 -4 0 -6 8 -11 18
-11 10 0 23 -5 30 -12 6 -6 15 -8 19 -4 4 4 0 12 -10 17 -9 6 -17 16 -17 23 0
8 -10 11 -30 8 -20 -3 -37 2 -49 12 -11 10 -22 13 -25 8z"/>
<path d="M10366 10444 c-4 -9 1 -14 14 -14 23 0 27 15 6 23 -8 3 -17 -1 -20
-9z"/>
<path d="M10605 10440 c-3 -5 -2 -10 3 -10 5 0 12 -9 15 -20 3 -11 10 -20 16
-20 8 0 6 10 -4 30 -17 33 -21 35 -30 20z"/>
<path d="M10628 10333 c-14 -29 -14 -34 -1 -29 8 3 21 -1 29 -9 20 -20 45 -20
38 0 -12 29 108 -49 132 -87 25 -40 77 -71 92 -56 5 5 26 10 46 11 21 1 36 7
36 15 0 6 6 12 13 12 16 0 40 -47 31 -61 -9 -15 48 -68 74 -69 19 0 22 4 16
28 -4 15 -12 30 -18 34 -6 4 -7 10 -3 14 4 4 -7 23 -25 41 -30 31 -31 33 -10
33 27 0 29 16 3 30 -24 13 -71 13 -71 1 0 -5 -18 -2 -40 7 -22 9 -38 22 -36
28 3 6 -1 17 -7 23 -8 8 -16 6 -29 -6 -15 -14 -24 -14 -57 -5 -21 7 -49 12
-63 12 -13 0 -35 11 -48 25 -13 14 -33 25 -45 25 -11 0 -25 4 -30 9 -6 6 -16
-4 -27 -26z"/>
<path d="M11202 10041 c-16 -10 -16 -19 3 -48 13 -19 12 -24 -7 -48 -16 -21
-18 -29 -8 -35 7 -4 9 -13 6 -19 -4 -6 4 -33 19 -58 17 -30 27 -65 28 -96 2
-46 6 -53 46 -86 24 -19 60 -41 80 -49 73 -27 70 -28 64 16 -3 21 0 49 6 61
13 23 4 48 -29 86 -10 11 -20 29 -22 39 -1 10 -10 22 -18 26 -52 24 -74 41
-71 52 3 7 4 37 3 66 -2 44 -6 57 -29 77 -30 26 -49 30 -71 16z"/>
<path d="M11444 9548 c11 -16 15 -35 11 -50 -4 -16 -1 -29 10 -38 11 -9 13
-15 4 -20 -17 -11 -1 -50 27 -62 13 -6 24 -17 24 -25 0 -31 41 -93 65 -99 14
-3 25 -11 25 -18 0 -6 12 -13 26 -14 36 -3 44 -10 44 -38 0 -13 5 -24 10 -24
6 0 10 7 10 15 0 22 16 18 33 -8 10 -16 12 -28 6 -40 -7 -12 -4 -22 11 -37 11
-11 20 -26 20 -33 0 -15 61 -47 88 -47 10 0 24 -6 31 -12 11 -10 14 -10 18 0
3 6 13 12 24 12 22 0 26 25 6 33 -8 3 -37 3 -66 1 -51 -5 -52 -5 -45 21 4 18
2 25 -9 25 -25 0 -40 26 -28 48 8 15 7 23 -4 32 -8 7 -12 17 -9 22 3 5 -5 22
-19 36 -14 15 -29 40 -32 55 -5 19 -15 30 -34 34 -15 3 -41 25 -61 49 -19 25
-47 59 -61 77 -14 17 -32 48 -39 69 -10 26 -20 37 -39 41 -14 2 -34 8 -45 12
-18 8 -18 7 -2 -17z"/>
<path d="M12267 9233 c7 -47 5 -46 38 -33 27 10 27 11 9 31 -10 12 -26 25 -36
30 -15 8 -16 5 -11 -28z"/>
<path d="M12495 9220 c3 -5 11 -10 16 -10 6 0 7 5 4 10 -3 6 -11 10 -16 10 -6
0 -7 -4 -4 -10z"/>
<path d="M12285 9172 c12 -9 13 -38 1 -49 -5 -4 -6 -3 -2 4 5 9 2 11 -8 7 -12
-5 -13 -9 -3 -25 7 -11 15 -15 21 -9 6 6 20 0 38 -15 16 -14 36 -25 43 -25 7
0 20 -3 29 -6 11 -4 16 -1 16 10 0 9 6 16 14 16 19 0 29 17 19 33 -4 6 -8 16
-8 21 0 5 -13 13 -28 17 -16 4 -34 13 -41 19 -10 8 -15 7 -19 -4 -5 -13 -9
-14 -34 -1 -29 16 -56 21 -38 7z"/>
<path d="M12179 9144 c-29 -31 -48 -49 -74 -69 -17 -13 -18 -16 -5 -25 25 -16
50 -12 43 7 -6 14 -1 13 22 -5 17 -14 31 -19 33 -13 2 6 8 9 13 6 4 -3 20 2
34 11 24 16 33 38 17 47 -12 8 -62 -5 -56 -14 3 -5 -1 -9 -9 -9 -12 0 -34 30
-25 34 23 9 44 27 46 40 5 24 -13 20 -39 -10z"/>
<path d="M12455 9160 c3 -5 8 -10 11 -10 2 0 4 5 4 10 0 6 -5 10 -11 10 -5 0
-7 -4 -4 -10z"/>
<path d="M9935 9130 c3 -5 11 -10 16 -10 6 0 7 5 4 10 -3 6 -11 10 -16 10 -6
0 -7 -4 -4 -10z"/>
<path d="M12006 9082 c-3 -6 -15 -8 -25 -5 -16 4 -19 1 -14 -16 4 -16 11 -20
37 -17 20 3 30 9 28 17 -5 21 -19 32 -26 21z"/>
<path d="M10800 9042 c0 -6 6 -12 12 -14 9 -3 8 -10 -5 -22 -17 -17 -17 -19
-1 -37 9 -11 12 -19 6 -19 -5 0 -9 -11 -8 -24 5 -40 -52 -88 -111 -93 -26 -2
-49 -6 -52 -9 -7 -7 28 -74 39 -74 5 0 10 -7 10 -15 0 -8 -3 -15 -7 -15 -5 0
-9 -11 -9 -25 -1 -14 2 -23 6 -20 19 12 17 -25 -3 -38 -17 -11 -21 -23 -19
-61 1 -35 -3 -51 -18 -66 -11 -11 -20 -23 -20 -27 0 -3 -7 -15 -17 -25 -18
-20 -17 -23 15 -32 22 -7 31 7 12 19 -17 11 -11 25 11 25 12 0 23 8 26 20 6
23 109 73 135 66 14 -3 18 2 18 21 0 17 4 23 14 20 17 -7 51 28 41 42 -11 19
-28 12 -22 -9 3 -12 0 -20 -8 -20 -9 0 -10 9 -1 40 8 32 12 37 17 23 7 -17 8
-17 8 1 1 14 4 16 15 7 14 -12 46 -5 46 10 0 5 16 27 36 48 30 34 33 42 23 58
-12 19 -4 41 34 96 10 16 8 21 -13 38 -14 10 -29 23 -35 27 -5 4 -18 11 -29
15 -10 4 -16 13 -13 21 5 13 -19 23 -81 31 -13 2 -30 9 -38 16 -9 7 -14 8 -14
1z"/>
<path d="M11990 9020 c-15 -10 -15 -10 25 -10 3 0 5 3 6 7 1 12 -15 13 -31 3z"/>
<path d="M10566 8399 c-14 -11 -31 -17 -38 -13 -7 4 -3 -4 10 -18 23 -26 29
-62 12 -73 -8 -5 -7 -12 2 -23 10 -12 10 -16 1 -19 -7 -3 -13 -11 -13 -18 0
-7 -5 -15 -11 -17 -6 -2 -5 -13 5 -32 26 -50 66 -63 66 -21 0 14 5 25 10 25
17 0 11 36 -10 63 -22 28 -25 37 -10 37 20 0 52 42 47 61 -3 10 0 19 5 19 6 0
-1 11 -16 25 -15 14 -28 25 -30 25 -2 0 -15 -9 -30 -21z"/>
</g>
</svg>
