<?xml version="1.0" standalone="no"?>
<!DOCTYPE svg PUBLIC "-//W3C//DTD SVG 20010904//EN"
 "http://www.w3.org/TR/2001/REC-SVG-20010904/DTD/svg10.dtd">
<svg version="1.0" xmlns="http://www.w3.org/2000/svg"
 width="696.997218pt" height="482.152555pt" viewBox="0 0 696.997218 482.152555"
 preserveAspectRatio="xMidYMid meet">
<metadata>
Created by potrace 1.15, written by Peter Selinger 2001-2017
</metadata>
<g transform="translate(-681.051730,1283.890718) scale(0.100000,-0.100000)"
fill="#222222" stroke="none">
<path d="M8838 12833 c-10 -2 -21 -16 -24 -29 -5 -21 -11 -24 -30 -20 -17 5
-26 1 -34 -13 -6 -13 -7 -22 0 -26 12 -7 7 -64 -7 -73 -5 -4 -9 -18 -9 -32 0
-18 -5 -25 -19 -25 -12 0 -26 -12 -35 -30 -9 -17 -24 -31 -37 -33 -15 -2 -23
-10 -23 -22 0 -13 -5 -17 -18 -13 -32 8 -115 -98 -98 -126 4 -5 -3 -15 -15
-21 -15 -9 -18 -15 -10 -23 18 -18 13 -29 -8 -17 -11 5 -22 6 -25 1 -3 -4 -24
-11 -45 -15 -26 -4 -44 -14 -51 -26 -6 -11 -15 -18 -21 -15 -5 4 -9 -3 -9 -15
0 -12 -16 -37 -35 -57 -29 -30 -37 -34 -50 -23 -21 18 -35 2 -45 -49 -5 -29
-3 -46 7 -61 13 -18 12 -22 -11 -44 -15 -13 -26 -28 -26 -34 0 -7 -11 -19 -25
-28 -14 -9 -25 -23 -25 -30 0 -8 -6 -17 -14 -20 -8 -3 -12 -13 -9 -25 4 -15 0
-19 -21 -19 -49 0 -80 -15 -70 -33 5 -9 3 -8 -7 1 -7 6 -30 12 -50 12 -38 0
-49 -14 -49 -66 0 -17 -14 -25 -89 -47 -49 -15 -96 -24 -104 -22 -10 5 -13 -1
-9 -23 3 -25 -2 -33 -32 -51 -20 -13 -36 -26 -36 -31 0 -12 -90 -32 -120 -25
-20 4 -29 2 -33 -9 -5 -12 -14 -14 -37 -9 -35 7 -63 -19 -54 -50 3 -10 -2 -27
-11 -38 -15 -16 -16 -21 -4 -35 7 -9 12 -31 11 -50 -2 -29 2 -36 23 -44 15 -6
25 -13 23 -18 -15 -31 -28 -63 -39 -99 -7 -24 -16 -43 -20 -43 -15 0 -14 -45
1 -58 12 -10 10 -10 -12 -3 -23 9 -28 7 -34 -12 -4 -12 -15 -33 -25 -46 -11
-13 -19 -32 -19 -42 0 -11 -10 -21 -24 -25 -24 -6 -36 -29 -36 -71 0 -13 -9
-32 -20 -43 -11 -11 -16 -20 -10 -20 6 0 10 -11 10 -25 0 -14 -4 -25 -10 -25
-5 0 -10 -8 -10 -17 0 -11 -15 -24 -40 -35 -43 -18 -64 -52 -49 -80 6 -11 5
-20 -3 -25 -7 -4 -14 -24 -15 -43 -3 -65 -16 -115 -34 -139 -11 -13 -19 -35
-19 -50 -1 -28 -26 -69 -36 -58 -3 3 -23 -15 -44 -41 -20 -26 -33 -49 -29 -52
5 -3 6 -16 2 -29 -5 -19 -11 -22 -35 -17 -19 4 -27 2 -23 -5 4 -5 -2 -18 -14
-28 l-20 -18 24 -13 c14 -7 25 -17 25 -22 0 -4 11 -8 25 -8 17 0 25 -5 25 -18
0 -28 21 -42 62 -42 27 0 38 4 38 15 0 21 33 19 53 -3 21 -23 21 -32 2 -32 -8
0 -15 -3 -15 -8 0 -10 26 -46 55 -78 26 -28 30 -80 8 -89 -19 -7 -16 -33 8
-58 11 -12 18 -30 16 -39 -7 -27 18 -42 50 -30 16 5 39 8 53 7 23 -2 25 -6 25
-49 0 -35 5 -50 18 -58 17 -9 17 -11 1 -29 -10 -12 -15 -28 -11 -46 3 -14 -1
-50 -8 -77 -7 -28 -16 -71 -20 -95 -6 -38 -5 -43 9 -38 11 5 17 -1 22 -21 3
-15 7 -33 10 -39 2 -7 -2 -13 -9 -13 -22 -1 -44 -25 -51 -56 -6 -26 -4 -32 14
-37 33 -9 80 20 80 49 0 27 52 79 79 79 8 0 20 10 27 22 6 13 14 20 17 16 10
-10 47 28 47 49 0 11 7 18 18 18 10 0 18 8 20 20 4 45 6 50 19 50 16 0 17 12
1 28 -9 9 -9 12 3 12 16 0 49 34 49 51 0 6 9 8 20 4 16 -5 20 -2 20 20 0 14 7
28 15 31 20 8 19 31 -2 42 -14 8 -12 12 13 25 l29 16 -25 1 c-15 0 -32 -6 -39
-12 -10 -11 -12 -10 -9 2 2 8 11 21 20 28 14 11 23 10 47 -2 26 -14 30 -14 35
0 3 9 6 25 6 37 0 20 0 20 25 -3 14 -13 25 -29 25 -36 0 -7 8 -19 18 -26 22
-17 57 -67 66 -95 6 -19 2 -22 -51 -33 -90 -18 -93 -20 -35 -42 28 -10 52 -24
52 -29 0 -14 30 -11 30 4 1 8 5 7 13 -4 7 -8 21 -19 32 -24 26 -11 145 -14
145 -3 0 15 29 8 38 -9 6 -9 18 -18 28 -19 11 -1 33 -5 51 -9 29 -7 31 -5 26
14 -6 22 -10 21 104 25 11 1 24 4 28 8 4 3 23 4 42 1 24 -4 34 -3 30 4 -10 16
10 19 81 15 43 -3 62 -8 62 -17 0 -15 97 -36 118 -25 16 8 100 -17 123 -37 8
-7 23 -13 33 -13 9 0 19 -7 22 -15 4 -10 13 -13 26 -9 11 3 27 0 36 -8 47 -40
91 -56 147 -55 32 1 61 -3 66 -9 9 -11 55 -1 86 19 7 4 27 0 45 -9 22 -11 56
-17 103 -17 38 0 75 -4 82 -9 7 -5 17 -7 22 -3 6 3 20 1 32 -6 21 -11 22 -10
16 22 l-7 34 19 -25 20 -25 55 19 c54 19 57 19 97 0 45 -20 129 -97 129 -118
0 -18 112 -57 185 -65 48 -5 69 -13 109 -44 27 -20 55 -37 63 -37 8 0 26 -8
41 -18 98 -66 101 -68 140 -64 29 3 42 9 45 23 5 18 7 18 41 4 19 -8 43 -15
53 -15 34 0 128 -56 148 -88 24 -39 88 -61 119 -42 16 10 21 9 28 -4 6 -10 17
-15 27 -11 11 3 31 -10 60 -41 33 -34 46 -42 52 -32 9 13 10 10 13 -43 1 -9 7
-23 15 -33 8 -9 14 -32 13 -51 -1 -23 3 -35 12 -35 8 0 13 -11 14 -27 0 -47 1
-52 21 -70 30 -29 36 -76 11 -98 -29 -26 -25 -43 14 -59 33 -14 56 -36 38 -36
-6 0 3 -24 19 -54 19 -35 26 -57 19 -61 -22 -14 2 -22 61 -21 51 2 64 5 69 21
5 15 8 15 12 4 7 -18 123 -99 143 -99 7 0 15 9 17 21 3 17 5 18 21 7 10 -7 19
-26 21 -41 3 -28 16 -50 16 -27 0 11 3 11 12 2 10 -10 10 -15 -2 -22 -12 -8
-12 -10 4 -10 11 0 39 -10 64 -21 l44 -22 26 20 c28 22 35 65 20 126 -6 23 -4
28 7 23 27 -10 43 57 22 91 -4 6 0 14 8 17 25 9 35 48 18 68 -8 9 -12 22 -8
28 4 6 -3 22 -16 36 -27 29 -19 42 18 25 23 -11 29 -10 40 5 10 14 15 15 27 5
8 -7 19 -10 24 -7 13 8 28 -14 30 -43 1 -28 25 -48 30 -26 2 7 16 16 31 20 16
3 38 15 49 25 24 23 43 25 60 8 20 -20 33 4 39 68 2 33 9 73 14 91 9 30 12 31
42 22 21 -6 33 -5 35 1 2 5 15 10 28 10 24 0 69 23 89 46 18 21 94 24 132 6
29 -14 35 -14 43 -2 7 12 12 11 31 -5 26 -24 40 -58 27 -66 -7 -4 -6 -13 0
-26 13 -24 4 -40 -31 -48 -15 -4 -27 -11 -27 -15 0 -5 -7 -15 -15 -24 -8 -8
-12 -22 -9 -30 7 -18 39 -21 50 -5 4 7 33 10 73 9 91 -4 101 -2 101 16 0 8 5
12 10 9 6 -4 18 -1 26 6 11 9 20 9 41 0 20 -9 28 -9 34 0 5 8 10 5 18 -10 9
-16 21 -21 51 -21 41 0 62 16 39 31 -11 7 -11 9 -1 9 9 0 11 7 7 19 -4 13 3
27 21 44 26 24 26 25 6 39 -20 13 -20 17 -7 54 7 21 20 40 28 42 19 4 31 66
17 91 -12 24 -13 31 -1 31 5 0 23 14 39 30 31 31 56 38 67 20 4 -6 13 -7 24
-1 22 12 71 7 81 -8 9 -16 60 -3 60 14 0 10 20 12 87 9 93 -5 155 -26 192 -63
15 -15 32 -21 54 -19 18 1 37 -1 42 -4 20 -12 48 20 42 47 -4 22 -1 26 14 22
10 -3 26 1 36 9 10 7 35 14 56 14 29 0 45 7 67 30 35 35 41 85 13 94 -28 8
-93 5 -98 -5 -3 -4 -27 -8 -52 -7 -40 0 -44 2 -30 13 22 16 21 22 -3 28 -16 4
-20 0 -20 -17 0 -12 -6 -31 -14 -41 -12 -17 -17 -18 -39 -6 -13 7 -36 14 -51
14 -14 1 -26 5 -26 8 0 13 -44 18 -57 7 -11 -9 -18 -7 -31 6 -16 16 -16 17 5
22 12 3 22 13 22 22 2 43 6 51 30 57 14 4 27 2 29 -3 4 -12 42 -4 42 9 0 4 -5
11 -11 14 -6 4 -9 21 -8 39 4 41 -6 56 -37 56 -15 0 -23 4 -19 10 13 21 -16
40 -52 35 -29 -4 -36 -1 -40 15 -3 11 -11 20 -18 20 -7 0 -18 6 -25 14 -6 8
-17 13 -24 10 -6 -2 -23 7 -36 21 -18 19 -26 22 -32 13 -5 -9 -8 -6 -8 8 0 12
-8 25 -17 28 -15 6 -15 9 -3 16 12 7 11 12 -4 28 -16 19 -16 21 0 30 16 9 16
11 0 33 -9 13 -16 35 -16 49 0 29 -9 45 -29 52 -17 5 -24 38 -8 38 7 0 -1 11
-17 23 -26 21 -28 28 -23 61 5 32 3 38 -15 45 -13 4 -17 10 -11 14 7 5 7 19
-3 44 -7 21 -13 48 -14 61 0 12 -9 40 -20 62 -25 48 -25 50 0 50 17 0 19 4 14
28 -4 15 -11 35 -15 44 -5 9 -9 30 -9 46 0 21 -7 32 -24 40 -15 7 -30 28 -42
63 -15 40 -25 54 -47 62 -22 7 -25 12 -15 18 7 5 23 9 35 9 16 0 20 5 16 20
-4 13 0 20 10 20 19 0 30 45 17 70 -14 25 -13 30 5 24 11 -5 15 1 15 20 0 14
-4 26 -10 26 -16 0 -11 30 6 37 10 3 14 13 11 25 -4 13 3 27 19 41 19 16 24
30 22 59 -1 25 4 42 14 50 23 19 29 56 11 67 -12 6 -13 12 -4 29 8 15 8 23 0
28 -7 4 -9 21 -5 46 6 35 3 43 -19 64 -14 13 -30 24 -36 24 -11 0 -11 27 0 55
5 11 3 28 -3 38 -8 13 -7 25 6 48 18 31 15 79 -4 79 -5 0 -6 9 -3 20 7 23 -49
95 -94 119 -35 18 -34 17 -22 39 8 14 7 24 -4 38 -17 23 -20 104 -4 104 7 0 9
11 6 29 -5 23 -1 33 16 45 l22 16 -32 28 c-28 24 -66 91 -45 78 5 -3 7 8 4 23
-4 28 -52 65 -52 40 0 -6 -9 -8 -21 -4 -12 4 -51 8 -88 9 -49 2 -69 -2 -77
-13 -17 -22 -112 -25 -136 -4 -10 9 -18 13 -18 8 0 -4 -11 0 -25 9 -23 15 -28
15 -87 -13 -34 -17 -65 -28 -70 -25 -4 3 -8 -2 -8 -11 0 -9 -6 -15 -12 -12 -9
3 -12 20 -10 50 2 25 -2 48 -8 52 -5 3 -10 1 -10 -4 0 -6 -7 -11 -15 -11 -9 0
-18 -7 -21 -15 -4 -8 -17 -15 -30 -15 -13 0 -24 -5 -24 -10 0 -6 -7 -7 -17 -1
-49 24 -111 39 -121 29 -8 -8 -16 -7 -28 3 -9 8 -40 14 -68 15 -28 1 -61 5
-73 9 -18 6 -23 4 -23 -9 0 -9 -7 -16 -15 -16 -8 0 -15 -7 -15 -15 0 -8 -6
-15 -12 -15 -7 0 -26 -7 -43 -16 -34 -18 -89 -13 -137 12 -21 11 -33 12 -42 5
-10 -8 -17 -7 -26 4 -13 16 -40 21 -40 8 0 -13 -58 -7 -75 7 -21 17 -19 43 5
65 11 10 20 25 20 34 0 14 2 14 10 1 8 -12 10 -11 10 8 0 12 -4 22 -9 22 -6 0
-6 12 1 31 12 34 -2 81 -23 77 -7 -2 -15 8 -19 22 -5 20 -13 26 -43 28 -20 2
-37 9 -37 15 0 17 -38 39 -78 44 -28 4 -34 1 -39 -16 -4 -15 -11 -20 -23 -16
-10 3 -21 1 -25 -5 -3 -5 -15 -10 -25 -10 -11 0 -24 -9 -30 -20 -6 -11 -20
-20 -31 -20 -14 0 -19 -5 -16 -14 3 -8 -1 -17 -9 -20 -21 -8 -26 -7 -20 3 6 8
-39 21 -76 22 -10 0 -20 4 -23 9 -3 4 -14 6 -25 3 -11 -3 -17 -9 -14 -14 3 -5
-2 -16 -11 -25 -12 -12 -19 -13 -29 -5 -7 6 -21 9 -30 5 -10 -4 -16 -1 -16 7
0 8 -11 19 -25 26 -14 6 -25 9 -25 6 0 -3 14 -32 30 -65 32 -62 32 -78 0 -78
-13 0 -18 -5 -13 -16 3 -9 -2 -21 -14 -29 -11 -8 -23 -28 -26 -45 -4 -16 -13
-30 -21 -30 -9 0 -12 -7 -9 -18 2 -10 -3 -24 -11 -31 -9 -8 -16 -22 -16 -32 0
-10 -9 -21 -20 -24 -11 -3 -20 -15 -20 -25 0 -21 -66 -64 -82 -54 -7 5 -8 2
-3 -6 6 -10 1 -12 -19 -8 -14 3 -29 1 -32 -4 -10 -16 -107 2 -122 23 -11 16
-16 16 -55 5 -103 -32 -125 -34 -143 -15 -18 20 -80 27 -69 9 10 -16 -21 -23
-46 -9 -20 10 -26 8 -51 -20 -25 -28 -68 -45 -53 -22 7 12 -25 30 -42 24 -7
-3 -25 5 -39 16 -27 21 -95 27 -93 7 3 -26 -2 -36 -20 -36 -11 0 -27 -10 -35
-22 -9 -12 -16 -19 -16 -15 0 4 -11 0 -25 -9 -14 -9 -25 -24 -25 -34 0 -21
-56 -36 -75 -20 -9 8 -14 5 -18 -11 -6 -22 -27 -17 -27 7 0 8 -5 14 -11 14
-19 0 -79 55 -79 72 0 18 -83 62 -110 59 -9 -1 -29 13 -45 30 -28 30 -28 31
-7 26 26 -6 30 14 7 33 -11 9 -12 16 -4 26 13 16 4 32 -42 72 -37 32 -59 40
-59 22 0 -5 -7 -10 -15 -10 -8 0 -15 4 -15 9 0 6 -15 24 -32 40 -25 24 -29 31
-15 31 19 0 23 25 6 35 -6 4 -8 13 -5 21 3 7 0 17 -7 21 -7 5 -19 27 -25 50
-9 29 -17 41 -27 37 -7 -3 -18 4 -25 15 -6 12 -7 21 -3 21 4 0 -3 6 -16 13
-15 7 -31 29 -40 57 -9 25 -25 59 -37 75 -12 17 -19 36 -17 43 3 7 -2 31 -11
53 -21 52 -22 147 -1 155 12 5 13 10 4 20 -9 11 -8 18 2 30 15 19 20 94 5 91
-13 -3 -38 47 -26 51 6 2 4 18 -5 38 -12 30 -12 34 1 34 7 0 14 5 14 10 0 6
13 4 30 -5 25 -13 30 -13 30 -2 0 8 -9 22 -20 32 -11 10 -17 22 -14 26 3 5 0
9 -6 9 -6 0 -8 5 -5 10 3 6 5 9 3 9 -2 -1 -11 -3 -20 -6z m20 -1385 c3 -22 -1
-28 -15 -28 -10 0 -31 -7 -46 -15 -20 -10 -35 -12 -52 -5 -14 5 -25 6 -25 1 0
-10 -31 -24 -37 -17 -7 7 28 41 65 62 17 10 32 22 32 26 0 4 17 6 38 5 32 -2
37 -5 40 -29z m142 22 c24 -15 7 -18 -20 -3 -14 7 -18 13 -10 13 8 0 22 -4 30
-10z m440 -220 c0 -5 -2 -10 -4 -10 -3 0 -8 5 -11 10 -3 6 -1 10 4 10 6 0 11
-4 11 -10z m3513 -1560 c9 0 17 -5 17 -11 0 -6 -12 -9 -27 -7 -16 2 -27 8 -25
16 1 6 -2 12 -8 12 -5 0 -10 5 -10 12 0 6 7 4 18 -5 10 -10 26 -17 35 -17z
m-598 -951 c11 -17 -1 -21 -15 -4 -8 9 -8 15 -2 15 6 0 14 -5 17 -11z m50 -9
c3 -5 1 -10 -4 -10 -6 0 -11 5 -11 10 0 6 2 10 4 10 3 0 8 -4 11 -10z"/>
<path d="M8913 12672 c-14 -2 -20 -8 -16 -18 5 -14 48 -10 66 6 10 9 -21 17
-50 12z"/>
<path d="M10877 12073 c-10 -9 -9 -23 2 -23 5 0 11 7 15 15 5 15 -5 20 -17 8z"/>
<path d="M7216 11586 c3 -9 15 -21 26 -27 16 -9 24 -7 40 9 20 20 20 20 -12
16 -18 -2 -39 1 -47 7 -11 9 -12 8 -7 -5z"/>
<path d="M9490 11506 c0 -9 5 -16 10 -16 6 0 10 4 10 9 0 6 -4 13 -10 16 -5 3
-10 -1 -10 -9z"/>
<path d="M7691 9674 c0 -11 3 -14 6 -6 3 7 2 16 -1 19 -3 4 -6 -2 -5 -13z"/>
<path d="M13100 9662 c0 -5 9 -17 20 -27 20 -18 20 -17 20 8 0 20 -5 27 -20
27 -11 0 -20 -4 -20 -8z"/>
<path d="M7715 9610 c-3 -6 1 -7 9 -4 18 7 21 14 7 14 -6 0 -13 -4 -16 -10z"/>
<path d="M7675 9580 c-3 -5 -1 -10 4 -10 6 0 11 5 11 10 0 6 -2 10 -4 10 -3 0
-8 -4 -11 -10z"/>
<path d="M13147 9583 c-9 -2 -15 -9 -12 -14 9 -14 22 -11 29 6 3 8 4 14 3 14
-1 -1 -10 -3 -20 -6z"/>
<path d="M7200 9200 c0 -5 7 -10 16 -10 8 0 12 5 9 10 -3 6 -10 10 -16 10 -5
0 -9 -4 -9 -10z"/>
<path d="M7286 9199 c3 -6 -8 -24 -25 -39 -33 -31 -40 -50 -16 -50 7 0 19 -8
25 -17 9 -16 10 -15 8 7 -3 35 23 98 41 103 9 3 3 5 -12 6 -18 1 -26 -3 -21
-10z"/>
<path d="M13515 9200 c-3 -5 -13 -6 -23 -3 -14 6 -15 4 -4 -9 7 -8 10 -23 6
-32 -3 -9 -1 -16 5 -16 6 0 11 -7 11 -15 0 -24 36 -17 67 13 45 46 40 92 -6
63 -9 -6 -22 -6 -32 0 -11 6 -20 5 -24 -1z"/>
<path d="M7190 9161 c0 -12 5 -21 10 -21 6 0 10 6 10 14 0 8 -4 18 -10 21 -5
3 -10 -3 -10 -14z"/>
<path d="M12259 8453 c-18 -42 -21 -45 -47 -38 -43 11 -84 7 -101 -10 -15 -14
-16 -33 -10 -142 3 -56 -11 -83 -42 -83 -22 0 -24 -11 -7 -28 14 -14 48 -16
48 -3 0 4 21 11 46 14 26 2 49 9 53 15 3 5 16 12 29 16 30 10 28 23 -8 44
l-30 19 50 23 c31 15 50 30 50 40 0 10 13 23 29 30 20 8 28 17 24 27 -3 8 0
32 7 54 15 45 14 48 -35 59 -36 8 -37 8 -56 -37z"/>
</g>
</svg>
