<svg version="1" xmlns="http://www.w3.org/2000/svg" width="1091.67" height="700.278" viewBox="0 0 818.752 525.209"><g fill="#222"><path d="M299.652.109c-2.5.9 3 5 5.5 4.1 1.7-.6 1.7-.8-1-2.7-1.6-1.1-3.6-1.8-4.5-1.4zM309.952 4.509c-1.2 1.4-.4 6.7 1 6.7 1.3 0 .6 2.1-.7 2.2-.6.1-1.5 1.4-2.2 2.9-.7 1.6-1.7 2.9-2.2 2.9-.6 0-.8 1.2-.5 2.7.4 2.2-.2 3.6-3.2 6.8-2 2.2-4 5-4.5 6.2-.5 1.3-1.5 2.3-2.4 2.3-.9 0-1.5.9-1.5 2.4 0 2.4-2.3 5.6-4.1 5.6-.5 0-.9.5-.9 1.1 0 1.5-7 7.9-8.6 7.9-1.9 0-1.7 3.5.3 6.6 1.5 2.4 1.5 2.5-.4 3-1.3.4-2.5 2-3.2 4.3-1.5 5.2-1.4 6.2.6 5.9 1.2-.2 1.6.4 1.6 2.4-.2 5.6-.4 6.3-2.2 8.7-1.8 2.4-2.1 2.4-6.2 1.2-2.4-.7-5.2-2-6.1-2.9-1.1-.9-1.8-1.1-1.8-.4 0 .7.6 1.2 1.3 1.3.6 0 .2.5-1 1.1-1.3.6-2.3 1.5-2.3 2s-.7 1.6-1.5 2.5c-1.2 1.2-1.3 1.8-.4 2.9.8 1 .8 1.4 0 1.4-.6 0-1.1.6-1.1 1.4 0 .8-.9 1.8-2.1 2.1-1.6.5-1.8.9-.8 2.1.9 1.1.8 1.8-.5 3.2-.9 1-1.6 2.6-1.6 3.6 0 .9-.4 1.5-.9 1.2-1.8-1.1-4.2.6-3.6 2.5.4 1.1.2 1.9-.6 1.9-.9 0-.9.3 0 1.4 1.4 1.6 5 1 5.8-1 .3-.8 1.2-1.4 2-1.4 1.2 0 1.3.3.4 1.4-.8 1-.9 1.6-.1 2.1.5.3 1 1.7 1 3 0 1.4.8 2.9 1.9 3.5 1.6.8 2 .6 2.3-1.3.3-2.1.5-2 4.1 1.5l3.8 3.7 1.1-2.5c1.6-3.4 2.8-3 2.8.8 0 4 .8 5.3 3.7 6.2 1.8.6 2.2.4 1.7-.8-.4-1.1-.1-1.6 1-1.6 1.5 0 2.1 1.2 1.7 3.4-.1.5.2 1.2.6 1.5.5.3 1.4 2.5 2.1 4.7.9 3.1 2 4.5 4.1 5.3 3 1.3 5.4 5.2 4.5 7.5-.5 1.2 4 10.4 5.6 11.6.4.3 1.2 1.5 1.9 2.7.7 1.4 2.5 2.5 4.6 2.9 1.9.3 3.5 1 3.5 1.5s1.1 1.5 2.4 2.4c2.8 1.9 6 1 5.3-1.5-.2-1 .4-2.5 1.5-3.4 1.6-1.4 1.8-2.5 1.3-7.8-.7-7.1-1.7-8.8-5.5-8.8-2.9 0-5.6-2.4-6.2-5.5-.2-1.1-2-3.1-4.1-4.5-3.7-2.3-3.8-2.6-3.6-7.7.2-4.4-.1-5.7-2.3-8.2-1.5-1.6-2.5-3.7-2.5-4.7.2-1.5-.5-1.9-2.8-1.9-2.9 0-3-.1-2.7-4.4.2-3.4-.2-4.9-1.8-6.6-1.2-1.3-2.1-3.1-2-4.1.5-4.4.1-5.7-1.4-4.5-.8.6-1.8 1.1-2.2 1-.5-.1-2.3.2-4 .6-2.7.6-3.3 1.3-3.8 4.6-.4 2.2-1.1 3.7-1.6 3.4-1.3-.8-1.3-8.2 0-9 .6-.3 1-1.7 1-3.1 0-1.4.6-2.4 1.5-2.4.8 0 2.3-2.1 3.5-4.6 1.9-4.4 2.1-4.6 3.8-3 2.3 2 3.6 2.1 2.8.1-.4-1.2-.2-1.3 1.3-.4 1.4.9 2.2.7 4.2-1.2 1.3-1.3 3-3.6 3.7-5.2.6-1.5 1.8-2.7 2.6-2.7.7 0 1.7-.7 2-1.6.3-.8 1.1-1.2 1.7-.8.8.4.8 0 0-1.5-1-1.9-.8-2.5 1.9-4.7 2.4-2.1 3-3.3 3-6.6 0-3.8.2-4 2.5-3.6 2.1.4 2.5.1 2.5-1.7 0-3.7 4.3-6.8 9.7-6.9 2.6-.1 5.2-.7 5.6-1.4.4-.6 1.4-1.2 2.2-1.2 2 0 5.5-4 5.5-6.2 0-1 .7-1.8 1.5-1.8s1.5-.6 1.5-1.4c0-1.6-4.2-4.6-6.4-4.6-.8 0-2.4-1.2-3.6-2.7-1.9-2.4-2.3-2.6-4.2-1.4-1.8 1.1-2.3 1-4-.7-2-2-2-2-.1-2.6 1.1-.4 2.5-1.8 3.2-3.3 1-2.2.9-2.9-.9-4.8-1.1-1.2-2-2.4-2-2.8 0-.4-1.5-2.7-3.4-5.2-2.5-3.3-3.7-4.1-4.4-3.2zm-24.2 70.1c0 .7-.6 1.8-1.2 2.5-.9 1-.9 1.2-.1.7 1.9-1 2.7 1.4 1 3.1-1.9 1.9-3.7.9-3.7-2 0-1.2-.4-2.9-.9-3.7-.6-.8-.8-1.7-.6-2.1.7-1.1 5.5.2 5.5 1.5zM338.752 31.809c-1.7 4.4-1.3 5.6 1.9 5.2 1.6-.1 3.5.3 4.4 1 2 1.7 5.7 2.4 5.7 1 0-.5.7-.7 1.6-.4 1.2.5 1.5.2 1-1-.3-.8-.6-2.4-.6-3.5 0-1-.5-1.9-1-1.9-.6 0-.8 1-.4 2.4.3 1.3.1 2.7-.5 3-1.3.9-5.4-1.8-4.4-2.8.4-.4-.1-.4-1.1 0-1.6.6-1.7.4-.8-1.3.8-1.4.8-2.3 0-3.1-2-2-4.8-1.3-5.8 1.4z"/><path d="M268.952 74.909c-.5 1-.7 2.4-.5 3 .3.7-.2 1.3-1.1 1.3-.9 0-1.6.7-1.6 1.6 0 .9.7 1.4 1.8 1.2 1.1-.2 1.7-1.2 1.7-2.8 0-1.4.9-3.3 2-4.2 1.8-1.5 1.8-1.7.3-1.8-1 0-2.1.8-2.6 1.7zM190.452 87.909c-.4.6-2.5 1.3-4.7 1.7-3.1.5-4 1.1-4 2.6 0 1.1-.4 2-1 2-.5 0 0 1.6 1.1 3.5 1.9 3.2 1.9 3.6.5 5.1-2.2 2.1-2 3.7.3 2.9 1.1-.3 4.4-1 7.5-1.5 3.1-.5 6.1-1.2 6.7-1.5.5-.4 1.7-.1 2.6.7 1.4 1.1 1.6 1.1 1.1-.4-.5-1.1 0-1.8 1.5-2.2 3.4-.9 5.9-.7 5.2.4-.3.5 0 .7.7.5.8-.3 3.4.1 5.8 1 2.9 1 4.6 1.2 4.8.5.2-.5 1.2-1 2.3-1 1 0 1.9-.7 1.9-1.5 0-1-1-1.5-3-1.5-1.6 0-3-.5-3-1 0-.6.5-1 1-1 2.1 0-1-4-3.5-4.6-1.4-.3-2.5-1-2.5-1.5 0-1.8-3.1.5-3.6 2.8-.8 3.2-4.4 2.8-6.1-.7-1.3-2.5-4.1-2.9-5.4-.8-1 1.5-3.1-.1-2.5-1.8.3-.8-.1-1.4-.8-1.4-.8 0-1.6-.5-1.8-1.2-.3-.8-.6-.9-1.1-.1zM284.752 91.109c0 2.2 2.6 3.5 3.3 1.7.6-1.4-1-3.6-2.5-3.6-.4 0-.8.9-.8 1.9zM238.952 93.109c-1.2 1.6-1.9 3.6-1.6 4.4.7 1.9 4.4 2.9 5.9 1.7.8-.6 2.3-.1 4.6 1.6 1.8 1.3 3.5 2 3.7 1.4.2-.5.9-.7 1.5-.3.7.3.2-.5-.9-1.8-2.6-2.9-4-6.9-2.5-6.9.6 0 1.1-.4 1.1-1 0-.5-1.2-.9-2.7-.8-1.6 0-3.7-.3-4.8-.6-1.5-.5-2.6 0-4.3 2.3zm3.5 1.3c-.3.8-.6.5-.6-.6-.1-1.1.2-1.7.5-1.3.3.3.4 1.2.1 1.9zM220.452 94.609c-.3.8.1 2 .9 2.6.8.7 1.4.9 1.4.5s.6-.2 1.4.4c1 .9 1.7.7 2.7-.6.8-.9.9-1.4.3-1-.6.3-1.8-.3-2.7-1.4-2-2.3-3.3-2.4-4-.5zM290.752 97.209c.7 1.2.8 2.5.4 2.9-.5.3-.8 1.3-.8 2.1.1.8.2 2.1.3 2.7 0 .7 1.4 1.3 3.1 1.3 2 0 3 .5 3 1.5 0 .8.7 1.5 1.5 1.5s1.5-.6 1.5-1.4c0-.8.7-2.2 1.6-3 1.2-1.2 1.3-2.3.7-4.3-1.1-3.3-3.3-4.2-3.9-1.6-.8 2.8-4.3 2.7-5.4-.2-.5-1.3-1.4-2.6-2-3-.9-.6-.9-.1 0 1.5zM309.752 99.009c0 .6-.8 1.3-1.7 1.5-1.6.4-1.6.5-.1.6 1.8.1 3.4-1.6 2.4-2.6-.3-.4-.6-.1-.6.5zM225.752 100.209c-.8.5-1 1-.5 1 .6 0 1.7-.5 2.5-1s1.1-1 .5-1c-.5 0-1.7.5-2.5 1zM244.452 106.309c.7.7 1.5 1 1.8.7.3-.3-.2-.9-1.2-1.2-1.4-.6-1.5-.5-.6.5zM174.652 113.109c-3.1 2.3-7.8 3.2-10.3 1.9-1.4-.8-2.1-.8-2.4 0-.2.6-1 .8-1.7.6-1.9-.8-4.3 1.7-3.7 3.8.2 1 .8 1.8 1.3 1.8s.9.9.9 2c0 1.4-.5 1.8-1.6 1.3-1.3-.5-1.5-.2-1 1.5.4 1.1.2 2.3-.4 2.7-.6.3-.8 1-.5 1.5.7 1.1-9.1 4.4-10.5 3.5-.6-.4-.9.9-.7 3.4.2 4.2 1.6 5.2 3.7 2.7.9-1.2 1.7-1.3 3.6-.4 1.8.9 2.1 1.4 1.3 2.5-.6.7-1.9 1.3-2.9 1.3-.9 0-2.8 1.4-4.1 3.2-1.3 1.7-3.2 3.9-4.1 4.7-1.3 1.1-1.5 1.8-.6 2.8.8 1 .6 1.7-.8 2.7-1 .8-2.4 1.2-3.1.9-2.2-.9-1.4 1.1 1.3 3.2 1.4 1.1 3.4 2.8 4.5 3.8 1.5 1.3 2.4 1.5 3.8.7 1.4-.7 2.2-.6 3.1.5 1 1.3.9 1.9-.5 3.5-1 1.1-2.1 1.7-2.5 1.5-.4-.3-1.1.7-1.5 2.2-.4 1.7-.2 2.9.4 3.1.6.2.9.8.5 1.3-.3.5-1.3.5-2.5-.1-1.1-.6-2.3-.9-2.8-.6-.5.3-1.4-.1-2.1-.9-.7-.8-1.8-1.5-2.5-1.5-.8 0-2.7-1.6-4.3-3.6-3.1-3.7-3.2-5.5-.5-8.2 1.8-1.9 1.6-3-.7-4.2-1.1-.6-2-1.5-2-2 0-.6-1.6-3-3.5-5.6-1.9-2.5-3.5-5.3-3.5-6.2 0-.9-.5-2.4-1-3.2-.8-1.2-1.3-1.3-3-.2-1.2.7-2 .8-2 .2 0-.6-1.8-1.7-4-2.6-2.2-.9-4-2.2-4-2.9 0-2-2.1-3-3-1.5-.5.7-1.9 1.1-3.3.8-2.3-.4-2.6-.1-3.2 3.9-.5 3.7-1 4.3-3 4.3-1.7 0-2.6.7-3 2.3-.5 1.9-1.1 2.2-3.9 1.9-4-.5-5.5 1.2-2.6 2.8 1.1.6 1.8 1.6 1.4 2.1-.4.6-1.5.1-2.7-1.2-2.1-2.2-2.2-2.3-2.6-.4-.2 1.1-.7 2.2-1 2.5-.4.3-1.5 2-2.3 3.7-1.3 2.6-1.4 3.4-.4 4 .7.5 2.1 2.5 3.1 4.5.9 2.1 2.2 3.8 2.9 3.9.6 0 2.5.3 4.1.6 1.7.2 4.9.5 7.3.5 4 0 5.3 1 3.2 2.3-.6.4-.8 1.5-.5 2.4.3 1 .3 2.4 0 3.2-.6 1.7-6.4 2.3-8 .9-.9-.8-1.2.2-1 3.7.4 6.5.4 6.3 1.6 6.3.6 0 .9-.8.6-1.9-.3-1.4 0-1.7 1.4-1.4 1.7.5 2.1 1 1.8 2.9-.1.7 2.2 2.4 3.3 2.4.4 0 1-1 1.4-2.2l.7-2.2 1.9 2.4c1.6 2 2.1 2.1 2.8.9.8-1.1 1.3-1.2 2.9-.2 2.6 1.6 3.3-.3 1.8-4.8-1-2.7-1.7-3.4-3.7-3.2-1.4.1-1.8 0-.7-.3 1.2-.4 1.5-1.2 1.1-3-.4-1.4-.1-3.1.6-3.9.9-1 .9-1.5.1-1.5-2.3 0-.9-1.7 2.5-2.9 1.9-.7 3.8-1.9 4-2.6.6-1.4 2.1-1.2 6.1.7 1.6.8 2.6.8 3.6 0 2.1-1.8 7.4 3.3 5.7 5.4-1 1.1-1 1.8.3 3.2 1.2 1.3 1.5 2.8 1 5.5-.4 2.8-.1 4.2 1.2 5.7 2.1 2.4 3.5 2.6 3.5.5 0-2.8 7.8.9 9.3 4.5 1 2.5 1.1 2.5 1.4.3.4-2 .7-2.1 2.4-1.2 1.6.8 1.8 1.3.8 2.5-1.7 2.1-4.8 1.7-9.8-1.1-4.5-2.6-6.6-3.2-5.6-1.6.7 1.2-1.8 1.9-7.5 2.2-3.8.2-5.4-.3-9.2-2.9-4.5-3.1-6.7-3.2-4.7-.2 1.6 2.6 1 5-1.1 5-1.5 0-2 .7-2 2.4 0 2.3-3.3 4.6-4.7 3.3-.4-.5-2.7 1-5.7 3.9-.6.6-2.2 1.6-3.4 2.3-1.8 1-2.1 1.6-1.2 2.6.8 1 .5 1.8-1.5 3.3-2.7 2.1-3.2 4.1-1.4 5.9.9.9.8 1.8-.4 3.7-.9 1.3-1.3 2.6-.9 2.8.4.2.6 2.7.4 5.5-.4 5-2.2 6.6-2.2 2 0-1.7-1.1-2.8-4.2-4.2-3.3-1.6-4.5-2.8-5.5-5.9-1.2-3.7-1.2-3.8.8-3.3 1.9.5 2 .4.4-1.9-1.4-2.2-1.4-2.4.3-2.4 1 0 2.3.5 3 1.2.9.9 1.2.8 1.2-.5 0-1 .7-2 1.4-2.3 1-.4 1.4-1.9 1.3-4.8-.2-4.3-.2-4.3-3.2-3.5-4 1.2-4.5 1.1-4.5-.5 0-.8-.5-1.8-1.1-2.2-.7-.4-.9 0-.5 1.2.7 2.4-4.9 8.8-6.9 8-1-.3-.8.4.5 2.7 1.1 1.8 2 3.6 2 4.2-.1.5-2.2 2-4.7 3.2-4.5 2.1-4.7 2.1-6 .4-1.4-2.1-6.3-1.7-6.3.4 0 1.1-.8 1.1-3.2.4-4.2-1.2-4-1.2-2.9.9.7 1.4.5 2.1-1.1 3.1-1.9 1.2-1.8 1.4 2.1 4.4 2.3 1.7 4.1 3.7 4.1 4.4 0 1.9 5.2 1.2 7.3-.9 1-1.1 1.6-2.6 1.3-3.5-.5-1.2.1-1.1 2.8.5 2.9 1.7 3.4 1.8 2.9.5-.4-.9-.2-1.4.3-1.1.5.4 1.8 0 2.9-.8 1-.8 1.5-1.4 1-1.4s0-.6 1-1.4c1.7-1.2 2.4-1.1 6.3 1.6 5 3.5 5.8 4.8 4.2 7.7-.7 1.4-.7 2.1 0 2.1.5 0 1 .6 1 1.4 0 2.1 2.1 3.1 3.1 1.5.5-.8.7-2.2.5-3.2-.2-.9 0-1.5.5-1.1.5.3.9 1.4.9 2.4 0 2 6.8 8.2 8.2 7.4 1.1-.7 1 0-.3 3-1.2 2.6-4.6 4.1-6.4 2.6-.6-.5-1.7-.5-2.5 0-1.2.8-1.1 1 .6 1 2.5 0 3.7 3.1 2.4 6.3-.5 1.2-.9 1.6-.9.9-.2-2.4-5.1-.1-8.9 4.2-.9 1-2.2 2.4-2.9 3-.8.8-.7 1.5.4 2.8 1.5 1.7 1 7.8-.7 7.8-1.4 0 2.1 6.2 5.4 9.7 1.7 1.8 3.6 3.3 4.2 3.3 1.8 0 2.5 5.3.8 6.6-.8.6-1.4 1.6-1.4 2.3 0 1.6 6.6 1.3 8-.4 1.4-1.7 4.1-2 5.5-.6 1.1.9 8.1-.6 7.1-1.6-1.1-1.2 5.2-4.2 7.5-3.6 1.8.5 2.1.3 1.6-1-.4-1.1.1-1.8 1.6-2.3l2.2-.7-2.3-.8c-1.3-.5-2.3-1.8-2.4-3.1-.2-4.2-.3-4.7-1.1-5.4-1.7-1.7-.7-3.5 1.6-2.8 1.2.4 2.4 1 2.7 1.4.3.4 1.5 1 2.8 1.4 1.5.5 2.2 1.5 2.2 3.2 0 1.3.5 2.4 1.1 2.4.5 0 .9.8.7 1.8-.2 1 .9 3.2 2.3 4.9 2 2.4 3.2 3 5.1 2.6 1.4-.3 3.6 0 4.8.7 1.7.9 2.8.8 5.6-.5 1.9-.9 3.4-2 3.4-2.5 0-.4.9-.6 2-.3 1.5.4 1.8 1.1 1.3 3.6-.4 2.1-.3 2.8.5 2.3.7-.4 1.2-1.4 1.2-2.2 0-.8.8-1.4 1.8-1.4 2.8-.1 6.3-3.6 5.5-5.6-.5-1.4-.3-1.6 1.3-1 4 1.7 5 1.6 8.4-.6 1.9-1.2 4.2-2.2 5-2.3.8-.1 2.2-.2 3-.3.9-.1 1.7-1.3 1.8-2.9.1-1.5.8-3.4 1.6-4.2 1.2-1.2 2-.9 5.8 1.6 3.5 2.3 4.9 2.8 6.8 2.1 1.3-.5 3.4-.9 4.7-1 1.2-.1 2.3-.8 2.3-1.5 0-.9.8-1.1 2.5-.7 1.9.5 2.5.2 2.5-1 0-1.9 1.1-2.1 2.8-.4.9.9 1.2.1 1.2-3.9 0-6.2-1.4-7.7-6.4-6.7-2.6.4-4.3.1-6.2-1.1-1.9-1.2-2.9-1.4-3.7-.6-1.6 1.6-6.7 1.3-7.3-.4-.4-.8-1.7-1.5-3-1.5-2.7 0-4.2-3.7-2.6-6.7.7-1.3.4-2.9-1.2-6-1.1-2.3-2.5-4.2-3.1-4.2-.5 0-1.1-.4-1.3-1-.2-.6.1-1.1.6-1.1s1.2-.8 1.6-1.8c.3-.9 1.1-2.5 1.8-3.4 1-1.4 1-2.2 0-3.8-.8-1.3-.8-2-.1-2 .5 0 .7-.5.4-1.1-.4-.6 0-1.6.9-2.2 1.5-1.1 1.5-1.4.1-3.4-.9-1.3-2.2-2-3-1.7-1 .4-1.8-.3-2.5-2-.5-1.5-1.7-2.9-2.5-3.3-1-.3-1.5-1.5-1.4-3.2.4-4.1-.9-6.7-4.6-9.6-3.6-2.7-4.6-5.5-2-5.5 1.8 0 1.9-1.1.3-2.9-1.1-1.1-1-1.3.5-.8 2.4.9 2.1-.6-.8-3.3-1.3-1.2-2.2-2.6-2-3.1.3-.4-.1-1-.7-1.2-.9-.4-.9-.8-.3-1.4 1.3-1.1 1.8-4.3.7-4.3-.5 0-1.2-1-1.5-2.2-.6-2.2.6-5.2 3-7.6.7-.7 1.3-2 1.3-2.8 0-.8.5-1.4 1.2-1.4.6 0 .8-.3.4-.7-.4-.4-2.4-.6-4.5-.4-4.8.3-5.7-.9-3.1-4.2 1.6-2 1.7-2.7.8-3.3-.9-.6-.5-1 1.2-1.4 1.4-.4 2.4-1.3 2.2-2-.4-1.7 1.8-3.1 4-2.4.9.3 2.1-.2 2.6-1.2.6-1.1 1.7-1.5 3-1.2 2.8.8 4.9-3.1 3.3-6.1-1.4-2.6-3.1-2.7-3.1-.2 0 2.9-4.7 3.4-7.7.8-2.2-2-2.3-2.3-.7-3.4 1.2-.9 1.5-2 1.1-4.3-.6-2.6-.4-3 1.6-3 3 0 5.1-1.5 4.2-3-.4-.6.1-1.7 1.1-2.4 1.2-.9 1.4-1.5.6-2-.7-.4-1.2-1.8-1.2-3.1 0-1.6.7-2.5 2.5-2.9 2.4-.6 2.5-1 2.5-7.6 0-3.9-.2-7-.4-7s-1.4.8-2.7 1.9zm-73.4 49.1c.3.5.1 1-.4 1-.6 0-1.1-.5-1.1-1 0-.6.2-1 .4-1 .3 0 .8.4 1.1 1zm58.7 24.7c-.1 2 .4 4.3 1 5 .6.7.7 1.7.3 2.1-.4.4-1 .1-1.2-.6-.6-1.7-5.2-1.5-5.9.3-.4.8-1.2 1.5-1.9 1.5-1.8 0-.6-4.8 1.6-6.4 1-.7 1.6-1.6 1.2-2-.4-.4.3-.9 1.5-1.3 1.2-.3 2.2-1.2 2.2-2.1 0-.8.3-1.2.7-.9.3.4.6 2.3.5 4.4zm8.1 28.3c-.3 1.1-1.2 2-1.9 2-1.5 0-1.5-2.1.1-3.2 1.7-1.3 2.3-.9 1.8 1.2zm7.7 26.5c1.3 1.6.3 2-2.4.9-.9-.3-1.3-1-1-1.5.8-1.3 2-1.1 3.4.6zM266.852 128.509c-1.3 1.6-.7 5.7.9 5.7 1.5 0 1.9-1.6 1.2-4.4-.7-2.5-.9-2.6-2.1-1.3zM277.752 133.309c0 .5.5.7 1 .4.6-.3 1-.8 1-1.1 0-.2-.4-.4-1-.4-.5 0-1 .5-1 1.1zM266.752 140.209c0 .5.5 1 1.1 1 .5 0 .7-.5.4-1-.3-.6-.8-1-1.1-1-.2 0-.4.4-.4 1zM266.552 144.709c-2.3 3-2.1 9.2.4 12.7 1.9 2.7 1.8 2.8-.1 4.7-3.3 3.3-3.7 6.8-1.1 9.6 1.2 1.3 3.5 2.7 4.9 3 3.5.8 6 5 5.6 9.8-.3 3.9 1.5 6 4.4 4.9 1-.3 1.2 0 .8 1.2-.4 1.1.1 1.8 1.8 2.2 2.9.7 3.9 4.5 2.5 9.4-1.3 4.6-1.3 5 .8 5.1 1 0 1.2.3.5.6-1.9.7-1.6 3.1.7 6 1.1 1.4 2 3.6 2 4.9 0 1.2.5 2.6 1.1 2.9.5.4 1.4 1.8 2 3.1 1.1 3.1-.6 5.2-3.8 4.6-3.6-.7-6.9 2.7-6.5 6.6.3 3 .1 3.3-1.7 2.7-2.4-.7-2.6-.2-1 2.6.8 1.6.7 2.9-.6 5.6-1.3 2.7-1.4 3.7-.5 4.3.7.4.9 1.3.6 1.9-.4.6-.3 1.1.2 1.1s3.6 2 6.8 4.5c3.1 2.5 6.5 4.5 7.4 4.5.9 0 2.5.9 3.5 2 2 2.2 4.5 2.7 4.5.9 0-.6.6-.9 1.4-.6.9.4 1.2 0 .9-1.3-.4-1.5-.1-1.8 1.6-1.3 1.2.3 2.4.9 2.7 1.4.3.5 1.6.9 2.9.9 1.9 0 2.3.4 1.8 1.7-.4 1.1-.3 1.4.6.9.6-.4.9-1.6.6-2.5-.3-1-.3-2.6.1-3.5.5-1.4.8-1.4 1.8-.2 1.3 1.6 7.4 2.7 8.2 1.4.4-.5 1.7 0 2.9 1.2 1.9 1.8 2.2 2.9 1.8 5.9-.3 2.4-.2 3.2.5 2.3.8-1.2 1.9-1.2 6.8-.1 3.3.7 6.6 1.3 7.4 1.4.8 0 3.5 1.5 6 3.3 4.3 3.2 4.5 3.2 5.2 1.2.4-1.1 1.2-2 1.8-2 1.6 0 1.2-2.7-.5-3.4-2-.7-1.8-7.2.3-10.6 1.1-1.8 1.6-5.2 1.6-11.9.1-6.4.5-9.6 1.3-9.8.7-.3.9-1.1.6-1.9-.3-.8.1-1.4.9-1.4 1 0 1.5-1.2 1.6-3.5.1-1.9.9-4.6 1.7-5.9 2-3 .7-4-3.9-3.2-2.3.5-3.7.2-4.6-.9-1-1.3-.9-1.5.7-1.5 4.3 0 5.5-4.3 2.7-9.9-1.5-3-1.7-3.1-3.3-1.7-1 .9-2.7 1.6-3.7 1.6-2.2 0-7.4-4.8-7.4-6.8 0-1.6-4.6-3.8-9.7-4.7-2.4-.4-4.3-1.1-4.3-1.6s-.9-.9-2-.9c-2 0-2.6-1.1-1.2-2.4.4-.4.8-2.8.8-5.2.1-3.7-.3-4.8-2.7-6.9-1.6-1.3-2.9-2.9-2.9-3.5 0-.7-1-2-2.2-3-2.3-1.8-2.3-1.8-2.8.3-.9 3.3-3.3 2.6-5.2-1.6-1.4-2.8-2.4-3.7-4.2-3.7-1.5 0-4-1.5-6.3-3.8-4.7-4.7-11.6-8.8-12.1-7.3-.2.6-1.2 1.1-2.3 1.1-2.5 0-7.9 4.8-7.9 7.1 0 4-4.8-1.8-5.6-6.7-.1-.7-1.1-2.1-2.3-3.3-2.4-2.4-2.5-3.3-1-7.6 1-2.5.8-3.6-.7-6.1l-1.9-3.1-1.7 2.2zm52.7 40.6c-.4 1.7-.2 2.9.3 2.9.6 0 1.3 1.3 1.7 3 .4 1.6 1.1 3 1.6 3s.9.4.9 1c0 .5-.9 1-1.9 1-1.9 0-2.6-1-4.2-6.3-1-3.3-.1-8.9 1.3-8.1.5.3.6 1.9.3 3.5zm2.5 28.9c0 2.8-.1 2.9-2.5 1.8-2.7-1.2-3.6-4.2-1-3.2.8.4 1.5.1 1.5-.5s.5-1.1 1-1.1c.6 0 1 1.3 1 3z"/><path d="M179.152 154.209c.4 3.8 1.6 7 1.6 4.2 0-.7.5-1.2 1-1.2.6 0 1 .9 1 2 0 1.5-.7 2-2.6 2-1.7 0-2.8.6-3.1 2-.4 1.5-1.1 1.8-3.2 1.4-2.1-.4-2.8 0-3.8 2.2-1.4 3.1-1.7 8.4-.5 8.4.4 0 1.3-.5 2-1.2.9-.9 1.2-.7 1.2.9 0 1.2.5 2.5 1 2.8.6.3 1 .1 1-.5 0-.8.6-.8 2.1.1 1.4.7 1.9 1.7 1.6 3-.3 1.2 0 1.9.8 1.9 2.7 0 4.5-1.3 4.5-3.1 0-1 .5-1.9 1-1.9.6 0 1-.7 1-1.5s.5-1.5 1-1.5c.6 0 1-.7 1-1.5s.5-1.5 1.1-1.5c.8 0 .8-.4.1-1.3-.6-.6-1.3-2.9-1.7-5-.8-3.9-.2-4.3 4.8-3.9 1.1.1 1.7-.3 1.5-1-.3-.7-1.7-1.2-3.1-1.2-1.8.1-2.7-.4-2.7-1.4 0-1 .7-1.3 2.1-.9 2.8.7 3.5-1.6 1.4-4.5-1.2-1.6-1.6-1.7-1.1-.5.8 2.4-5.1 6.2-7.1 4.5-.7-.6-1.3-1.6-1.3-2.3 0-.7-.7-1.8-1.5-2.5-1.3-1.1-1.4-.7-1.1 3zM205.752 171.309c0 2.4 2.3 2.1 2.8-.4.2-1-.3-1.7-1.2-1.7-1 0-1.6.9-1.6 2.1zM201.152 172.709c-1.8 1.4-1.8 1.4.9 1.5 1.7 0 2.7-.5 2.7-1.5 0-1.9-1.1-1.9-3.6 0zM191.752 173.009c0 .5.8 1.6 1.8 2.6 1.8 1.5 2 1.5 3.8-.5 1.9-2.2 1.9-2.2-.3-1.7-1.3.4-2.3.2-2.3-.3s-.7-.9-1.5-.9-1.5.4-1.5.8zM316.752 173.209c0 .5.5 1 1.1 1 .5 0 .7-.5.4-1-.3-.6-.8-1-1.1-1-.2 0-.4.4-.4 1zM84.652 187.409c-1.6 1.8-2.9 4-2.9 5s-.5 1.8-1.1 1.8c-.6 0-.9.5-.7 1.1.2.6.7 1 1.2.9.5-.1 1.2.4 1.6 1 .4.6 2.2 1.4 4.1 1.6 6.9.8 8.6 1.1 9.9 1.9 1 .6 1.2.4.7-.8-.9-2.4.2-4.7 2.3-4.7 1 0 2.1-.7 2.4-1.6.5-1.3.1-1.5-1.9-1-3.3.8-7.3 1.4-5.7.9 1.9-.7.3-2.3-2.3-2.3-1.8 0-2.3.4-1.9 1.5.4.8.1 1.5-.5 1.5s-1.1-.6-1.1-1.3c0-.8-.3-.8-.9.2-.6.9-.6 2.2 0 3.3.7 1.3.6 1.8-.3 1.8-4.1-.1-4.7-6-1-10 2.1-2.3 2.8-4 1.6-4-.3 0-1.8 1.5-3.5 3.2zM171.752 187.309c0 .5.5.7 1 .4.6-.3 1-.8 1-1.1 0-.2-.4-.4-1-.4-.5 0-1 .5-1 1.1zM165.252 191.009c-1.3 1.3-.2 1.8 3 1.4 1.9-.2 3.5-.7 3.5-1.1 0-.7-5.7-1-6.5-.3zM360.452 191.509c-.4 1.1-.4 2.3-.1 2.9.4.6-.1.8-1.5.3-1.5-.5-2.1-.2-2.1.9 0 .9.5 1.6 1 1.6.6 0 1 1.2 1 2.6 0 2 .4 2.5 1.6 2 .9-.3 1.7-.6 2-.6.2 0-.2-1.2-.8-2.6-.8-1.7-.8-2.8-.2-3.2.6-.4.8-1.8.4-3.2-.5-2.2-.7-2.3-1.3-.7zM573.752 194.309c-2.1 2.5-3 2.9-5.7 2.4-2-.4-3.3-.1-3.5.7-.3.8-1.2.4-2.8-1.2-2-2-2.4-2.1-3.4-.7-.9 1.1-1.7 1.3-2.9.5-2.2-1.2-10 0-9.1 1.4.7 1.1 5.5 3.2 6.8 2.9.4-.1 1.4.3 2.1.9.7.6 2.4.8 3.8.5 1.4-.4 2.8-.2 3.2.4.3.6 1.2.8 1.8.4.7-.4 2.4-.6 3.9-.4 2.1.2 2.7-.2 3-2.1.2-1.8.9-2.3 3-2.1 2.8.2 4.4-2.8 3-5.4-.6-.9-1.4-.4-3.2 1.8zM50.752 197.209c0 1.6-4.3 5-6.4 5-1.1 0-2.8.8-3.8 1.7-1.8 1.6-2 1.5-4.8-1.5-2.1-2.3-3.8-3.2-6-3.2-1.8 0-2.9.4-2.5 1 .3.5 1.2 1 2 1 2 0 2.8 1.9 1.5 3.5-1.9 2.3-.8 6 1.8 5.9 1.2 0 2.2.3 2.2.8 0 1.5 2.8.8 3.4-.9.5-1.2.9-1.4 1.8-.5.7.7 3.1 1.2 5.5 1.2s4.3.4 4.3 1c0 .5.6 1 1.4 1 .7 0 2.4 1.6 3.7 3.5 3 4.4 3.9 4.4 3.9.1 0-1.9.5-3.8 1.1-4.1.7-.5.4-1.4-.7-2.6-1.6-1.8-1.6-1.9.4-1.9 1.2 0 2.2-.4 2.2-.9 0-2.3-1.4-4.1-3.1-4.1-1.6 0-1.8-.3-.9-1.9 1.4-2.7 1.3-3.8-.6-4.5-1.2-.4-1.5-.2-1 .9.7 1.9-.1 1.9-2 0-1.7-1.7-3.4-2-3.4-.5zM72.752 199.209c-.8.5-2.4 1.1-3.5 1.5-1.4.4-1.6.8-.7 1.4 1.9 1.1 7.2.1 7.2-1.5 0-1.8-1.2-2.3-3-1.4z"/><path d="M609.752 201.709c-3.8 3.9-4.8 4.1-9 2-3.6-1.9-11.5-1-14.2 1.7-2.2 2.2-3.2 2.3-4.8.3-.7-.8-2.1-1.5-3.1-1.5-1.2 0-1.6-.5-1.3-1.4.3-.8-.3-1.9-1.5-2.5-3-1.6-3.4-1.4-2.8 1.7.6 3-1.9 6.2-4.7 6.2-.8 0-1.7 1.3-2.1 3-.9 3.9-1.9 4.4-5 2.4-2.4-1.6-2.6-1.6-3.9.2-.8 1-1.2 2.2-.9 2.7.2.4 0 1.4-.6 2.1-.9 1.1-.8 1.8.5 3 .9.9 1.3 2.3 1 3.1-.3.8-.1 1.5.4 1.5 1.1 0-.9 6.2-2.4 7.2-.6.4-1.1 3.9-1.1 8 0 6.7-.2 7.3-2 7.1-1.6-.1-2 .4-2.1 2.8-.1 2.2.3 2.9 1.8 2.9 1.2 0 1.8.6 1.6 1.7-.2 1.2.3 1.8 1.6 1.8 1 0 2.2.9 2.6 2 .4 1.1 1.7 2.8 2.9 3.9 1.1 1 1.8 2.2 1.6 2.7-.3.4-.1 1 .5 1.4 1.6 1 1.1 3.5-.7 3.5-1.3.1-1 .5.9 1.6 1.7.9 2.5 2 2.2 2.9-1 2.4 2.4 1.8 5.2-1 1.4-1.4 2.9-2.3 3.4-2 1.5.9 2.3 7.1 1.2 9.1-.8 1.6-.4 2.3 2.9 4.3 2.1 1.4 3.6 2.8 3.4 3.2-.3.4.2 1.2 1 1.9s1.5 1.8 1.5 2.6c0 .7 1.5 1.6 3.4 1.9 1.9.4 5.3 2.5 8.1 5.1 2.7 2.4 5 4.2 5.3 4 .8-.9 11.8 5.7 14.8 8.9 2 2.2 4.4 3.6 7 4 2.1.4 4.6 1.5 5.4 2.4 1.8 2 9.6 7.1 10.9 7.1 1.5 0 3.6 3.2 3.3 5-.1.9.4 2.3 1.3 3 1.9 1.6 1.9 5-.1 7.8-1.3 1.8-1.3 2.6-.3 3.8.8 1 .9 1.8.2 2.5-.8.8-1.3.8-1.7 0-1-1.5-4.7 2.5-4 4.4.4.9.1 1.5-.7 1.5-.7 0-.2 1 1.1 2.2 2.2 2.1 2.3 2.3.6 2.6-1 .2-3.1-.5-4.7-1.7-3.4-2.5-3.9-2.6-3.9-.5 0 1.1-.5 1.4-1.6 1-.9-.3-2-.6-2.5-.6s-.9-.7-.9-1.5-1.2-1.7-2.7-2.1c-1.6-.3-4.3-1-6.1-1.4-2.5-.7-3.8-.5-5.2.7-2.7 2.3-7.2 2.3-10 .1-2.3-1.9-2.3-2.1-.7-3.3 1.6-1.2 1.5-1.3-.9-1.8-2.3-.4-2.5-.2-2.1 1.9.2 1.3 0 2.5-.6 2.7-.6.2-.6 1.1.2 2.4 1.5 2.9 1.4 4.3-.3 4.3s-3.1 3.4-2.1 5c.4.6.1 1.7-.5 2.6-1.7 2 1.3 10.1 4.1 10.9 1.9.6 1.9.8.5 2.4-1.9 2.1-2.1 4.7-.3 5.5.8.3.3 1.3-1.5 2.8-1.6 1.3-2.8 3-2.8 3.7 0 .7-.6 1.1-1.4.8-.8-.3-2.2.3-3.2 1.4-1.3 1.4-2 1.6-3.1.8-1-.9-1.3-.7-1.3 1 0 1.4-.6 2.1-2 2.1-1.5 0-1.9.5-1.6 2.2.3 1.3.5 2.3.6 2.3.8 0 .7 4.1-.1 4.6-.6.3-1.3 2.1-1.6 4-.2 1.9-.9 3.5-1.4 3.7-.5.2-.9 1-.9 1.8s-1 1.4-2.5 1.4c-1.8 0-2.9-.8-3.8-2.8-.6-1.5-2-3.6-3-4.7s-1.3-2.1-.7-2.3c1.2-.4.3-2.2-1.1-2.2-.5 0-.9.7-.9 1.6 0 1.2-.6 1.5-2.1 1.1-2.1-.6-4 1.9-2.3 3.2 1.6 1.1 4.4 5.9 4.4 7.6 0 .8-.7 1.5-1.5 1.5s-1.5.4-1.5.9c0 .4-1.1.6-2.5.3-1.7-.3-2.7.1-3.1 1.2-.3.9-1.7 1.6-3.3 1.6h-2.6l3.3 2c4.1 2.5 5.1 2.5 4.5.1-.4-1.8-.1-1.9 3.3-1.1 2.9.7 4.3.5 5.5-.6.8-.7 2.1-1.4 2.7-1.4.7 0 1.2-.6 1.2-1.3 0-.8 1.2-2 2.8-2.8 4.1-2.1 7.9-6.5 7.7-8.8-.1-1.2.4-2.6 1.2-3.2 1.5-1.3 1.8-6.3.4-5.4-.5.3-1.2.1-1.5-.4-.4-.5.7-1.8 2.4-2.7 1.6-1 3-2.2 3-2.6 0-.4.9-1.2 2-1.8 1.5-.8 2.3-.6 3.7.8 2.3 2.4 8.5 3.4 11.7 1.9 1.9-.9 2.6-2 2.6-3.9 0-2.8 2.2-4.1 6.4-3.5 1.3.1 2.2-.8 3-3.1l1.1-3.3 3.4 3.5c3 3 3.1 3.5 1.6 4.4-2.4 1.3-1.1 3.2 1.7 2.5 1.3-.4 2.5 0 3.2.9 2.9 3.9 11.6 4.5 11.6.7 0-1.1 1.3-2.5 3.1-3.5 3-1.5 3.2-1.5 5.5.7 2.5 2.4 2.3 2.5 3.9-2.7.4-1.2 1.2-1.4 3.7-.9 5.8 1.3 8 3.8 9 9.9.2 1.1 2.1 2.9 4.3 4.2 2.4 1.3 4.1 3.1 4.3 4.3.2 1.2 1.7 2.8 3.5 3.7 1.8.9 4.6 3.2 6.3 5 2.8 3 3.6 3.3 6.5 2.8 1.9-.4 4-1.1 4.7-1.7.9-.7 2-.3 3.7 1.3 3.4 3.2 3.2 1.3-.2-2.2-2.6-2.7-2.6-2.8-.7-4.3 1-.8 2.4-1.5 3-1.5.7 0 2.4-1.6 3.8-3.5 1.5-2 3.2-3.3 3.7-3 .5.4.9.1.9-.4 0-.6-.3-1.1-.8-1.1-1 0-3.5-4.1-2.9-4.7.3-.2 1.9.2 3.5 1.1 2.9 1.5 3 1.5 2.5-.4-.4-1.4 0-2 1-2 3.8 0-2-9.6-6.4-10.5-2-.5-2.9-1.4-3.4-3.6-.5-2-1.9-3.7-4.3-5.2-4.9-3-8.3-4.5-10.7-4.9-1.1-.2-2-.9-2-1.5 0-.7-.6-1.8-1.2-2.5-1.4-1.3-1.7-4-.7-5 .3-.4 2 0 3.9.7l3.2 1.4.7-4.2c.5-3.7.2-4.5-2.3-6.9-1.6-1.4-3.4-3.6-4.1-4.7-1.4-2.7-3.3-2.7-2.5-.1.5 1.5 0 2.2-1.9 3-1.4.5-2.6 1.5-2.6 2.3 0 .8-1.4 1.4-3.5 1.5-1.9.2-3.5-.2-3.5-.8 0-.5-.7-1-1.5-1s-1.5-.4-1.5-.9-.3-1.7-.7-2.6c-.5-1.5-.3-1.6 1.5-.6s2.2.9 2.2-.4c0-2 3.8-5.7 5-5 .6.4 1 .2 1-.4 0-.5-.4-1.3-1-1.6-.5-.3-1-1.6-1-2.9 0-1.2-.5-2.7-1.1-3.3-.9-.9-.7-1.6.5-2.8.9-1 1.4-2.5 1.1-3.4-.4-1.5.1-1.8 3.7-1.7 3.9.1 4.2-.1 5-3.2.9-3.4 1.7-3.9 3.6-2 .9.9 1.2.6 1.2-1.5 0-3.1 2.3-4.5 4.4-2.8 1 .9 1.5.8 1.9-.3.3-.8-.1-2-.9-2.6-.8-.7-1.4-2.2-1.4-3.4 0-1.2-.6-2.8-1.2-3.4-.7-.7-1.3-1.8-1.3-2.5-.1-1.7-3.8-7.7-4.8-7.7-.5 0-.6.4-.2.9.3.5 0 1.3-.6 1.7-.9.5-1 0-.6-1.7.4-1.3.7-3.5.7-4.9 0-1.9.3-2.1 1.2-1.2.7.7 2.1 1.2 3.3 1.2 1.7 0 2.3-.9 3.1-4.3.5-2.5 1.4-4.1 2.2-3.9.7.1 1.5-.5 1.8-1.3.4-.8 1.2-1.5 2-1.5s1.4-1 1.4-2.5c0-2.9 1.6-3.2 4.8-.9 1.2.8 2.2 1 2.2.5 0-.6.8-1.1 1.8-1.1.9 0 3.2-.9 5-2 1.8-1.1 3.9-2 4.7-2 .8 0 1.5-.7 1.5-1.5 0-.9.6-1.2 1.5-.9 1.2.5 1.4.2.7-1.7-.5-1.3-.7-3-.5-3.7.3-.7-.3-2.2-1.3-3.3-1.5-1.7-1.6-2.4-.6-3.9 1.5-2.5 1.6-8.4.1-7.4-.6.3-2.3-.6-3.9-2.1-1.5-1.4-4.3-3.4-6.1-4.3-3.2-1.6-3.5-1.6-4.9.1-2 2.4-4.5 1.4-6.2-2.4-.7-1.7-1.8-2.7-2.5-2.4-.7.3-1.9.8-2.7 1.1-1 .4-1.2-.1-.9-2 .4-1.9-.1-2.8-2.3-4-4.6-2.5-7.6-5.4-6.8-6.7.7-1.2.6-1.2-3.7 1-2.3 1.1-3 1.1-5.4-.5-1.5-.9-3.1-2.8-3.6-4.1-.5-1.3-1.6-2.6-2.6-3-.9-.4-2.7-1.8-3.9-3.2-1.6-1.9-3.2-2.5-6.5-2.7-2.4-.1-4.8-.2-5.3-.3-.4-.1-.5-1.3-.1-2.9.4-1.5.7-3.5.7-4.5-.1-2.5-6.2-9.9-7.7-9.3-.7.2-1.7 0-2.3-.6-1.3-1.3-2.5 3.6-1.6 6.5.6 1.9.5 2-.8 1-.8-.7-1.9-.9-2.3-.5-.5.4-.5-.1-.1-1.2.7-2-1.1-4.9-2.6-4-.5.3-1.4.1-2.1-.4-.7-.6-2.5-1.3-4.2-1.6-1.6-.3-5.7-1.4-8.9-2.6-3.3-1.1-6.2-2-6.6-2-.3 0-2.1 1.6-4 3.5zm-41.5 23.5c.3.5.2 1-.4 1-.5 0-1.3-.5-1.6-1-.3-.6-.2-1 .4-1 .5 0 1.3.4 1.6 1zm4.6 12.2c4.5 3.7 10.3 4.7 11.3 2.1.6-1.4.9-1.4 2.4-.2 3.5 2.9 8.3 5 10 4.5 2.1-.7 7.2 3.7 7.2 6.3 0 1 .9 2.6 2 3.6s2 1.4 2 .8c0-.6 1.1-.8 2.5-.6 1.3.3 2.4.8 2.3 1.2-.1.3.2 1.4.7 2.4.4 1 .5 2.1.2 2.4-.7.6 5.2 9.3 6.4 9.3.4 0 .9 1.5 1.2 3.2.3 2.4-.1 3.7-1.4 4.9-1.1.9-1.9 2.2-1.9 2.8 0 .8-.8 1-2 .6s-2-.2-2 .5.9 1.4 2 1.7c2.2.6 2.6 1.8.9 2.9-.8.4-.7.9.2 1.4 1 .7 1 1.1 0 2.4-1.2 1.4-1 1.6.8 1.6 2.5 0 2.8 1.5.4 2.8-1 .6-1.4 1.6-1 2.6.4 1 .1 1.6-.8 1.6s-2 1.9-2.8 4.7c-1.4 4.9-3.5 4.5-2.2-.5 1.3-5.1 1.2-10-.2-9.5-.7.3-1.3 0-1.3-.6s.7-1.1 1.5-1.1c2.3 0 1.8-1.9-.7-2.9-1.3-.5-3.2-1.9-4.3-3.1-3-3.3-6.9-5-11.6-5-3.2 0-4 .3-3.5 1.5.3.8.1 1.5-.4 1.5-1.7 0-4.1-3.3-3.9-5.4.4-2.7-1.5-6.1-6.2-11.3-2.2-2.4-3.9-5.1-3.9-6.2 0-1-.7-2.2-1.6-2.5-1.4-.5-1.2-.9.7-2.6 1.8-1.4 2-2 .9-2.1-.8-.1-1.9-.3-2.5-.3-.5-.1-1.6-.5-2.2-.9-.7-.5-1.7-.6-2.2-.2-.5.3-1.2.1-1.6-.4-.3-.5-1.3-1-2.3-1-1.7 0-3.6-.4-6.2-1.4-.8-.3-2.1-.7-2.9-.9-1.1-.3-1.1-.6.1-1.9 2.3-2.2 4-5.8 3.3-6.9-.3-.6.1-.7.9-.4 1.1.4 1.6 0 1.6-1.4 0-1.5.8-2.2 2.8-2.5 1.5-.2 2.8-.5 3-.6.2 0 2.1 1.4 4.3 3.1zm124.9 12.7c0 .8-.6 1.1-1.6.7-.9-.3-2-.6-2.5-.6s-.9-.4-.9-.9 1.1-.8 2.5-.7c1.4 0 2.5.7 2.5 1.5zm-16 37.4c0 .5-.7.7-1.5.3-.9-.3-1.5 0-1.5.9s-1.1 1.3-3 1.3c-2.4-.1-3-.5-2.9-2.2.1-1.7.2-1.8.6-.3.6 2.2 2.3 1.2 2.3-1.3 0-1.6.3-1.7 3-.7 1.7.6 3 1.5 3 2zm-12.6-1.1c1.4 1.3 1 4.8-.6 4.8-.5 0-.6-.5-.3-1 .3-.6-.2-1-1.2-1-2.6 0-4.7-1.6-3.9-2.9.9-1.5 4.4-1.4 6 .1zm-2.9 5.8c.3.5-.1 1-.9 1-.9 0-1.6-.5-1.6-1 0-.6.4-1 .9-1 .6 0 1.3.4 1.6 1zm11.5 0c0 .5-.4 1-1 1-.5 0-1-.5-1-1 0-.6.5-1 1-1 .6 0 1 .4 1 1zm-32.8 8.9c2.1 2.5 2 2.5-2.5.6-2.5-1-3.5-2-3.1-3 .7-1.7 3-.8 5.6 2.4z"/><path d="M567.352 247.709c-.3.8-.1 1.5.4 1.5.6 0 1-.7 1-1.5s-.2-1.5-.4-1.5-.6.7-1 1.5zM89.752 202.809c0 1.1.9 2.5 2.1 3.2 1.2.8 1.8.9 1.4.3-.3-.7.2-1.1 1.4-1.1 1.3 0 2.1-.7 2.1-1.6 0-1.4-.3-1.4-1.5-.4-1.3 1-1.9 1-3.5-.5-1.9-1.7-2-1.7-2 .1zM90.352 247.609c.3.9 1.1 1.6 1.6 1.6 1.3 0 .5-2.3-1-2.8-.7-.2-1 .2-.6 1.2zM469.752 253.109c0 .6.5 1.1 1 1.1 1.7 0 1.1 2.5-1 3.7-1 .7-2.6 1-3.5.7-2.1-.8-1.9.2.6 3.7l2.1 3-2.8 2.2c-1.5 1.2-3.1 2.4-3.4 2.7-.4.3-1.5 1.9-2.4 3.7-2.1 4.2-5.3 6.3-9.3 6.3-2.4 0-3.1.4-2.7 1.4.3.8.1 2.1-.5 2.8-.6.7-2.3 2.6-3.6 4.3-2.2 2.6-2.7 2.8-4.5 1.7-1.7-1-2-1-2 .3 0 .8-.4 1.5-.9 1.5s-1.2 1.1-1.5 2.5c-.4 1.4-1.1 2.5-1.6 2.5-.6 0-1 .8-1 1.9 0 1.4-.6 1.7-2.7 1.3-1.6-.2-3.6-1.2-4.6-2.1-1.7-1.4-1.9-1.4-2.8.1-.5 1-1.5 1.5-2.2 1.2-.7-.2-3.9.2-7 1-9.1 2.4-16.4.3-18.5-5.2-.6-1.5-1.4-3.6-1.8-4.7-.4-1.1-.6-2.3-.6-2.8.3-1-2.2-.9-3.4.2-1.2 1.2-10.4-.7-10.4-2.1 0-.6-1-.8-2.2-.5-1.3.4-3.5-.2-5.5-1.4-2.3-1.5-4.2-1.9-6.2-1.4-1.9.4-4.1.1-6-.9-2.9-1.6-3-1.5-4.4 1.4-2.1 4.2-1.1 6.6 3.8 9 4.7 2.3 6.3 5.5 4 8-1.3 1.4-1.1 2 1.3 4.8 2.3 2.6 3.5 3.1 7.9 3.4 4.6.3 5 .1 4.2-1.5-1.3-2.3-.2-2.1 4.8.7 3 1.7 4.4 2.1 5.2 1.3.8-.8 1.1-.2 1.1 2.2 0 1.8.4 3 .9 2.7.5-.3 1.4.1 2.1.9 1 1.2 1 1.5 0 1.5-.9 0-1 .4-.2 1.3 1.2 1.4.5 6-.8 5.2-1.3-.8-5.5 3.9-5.4 6.1.1 3.9 1.6 7.5 3 7 1.5-.6 6 5.2 5.6 7.1-.3 1.5 2 1.7 3.4.3 1.6-1.6 5.4 0 5.4 2.3 0 2 .1 2 2 .2 2-1.8 2.1-1.8 1.8 1.5-.2 2.1.2 3.5 1.1 3.8.8.3 1.1 0 .7-.7-.4-.6-.2-.9.6-.6 2.4.9 4.1-1.1 3.4-3.9-.4-1.5-1.1-2.4-1.5-2.1-1.2.7-4.1-.5-4.1-1.7 0-1 2.7-.6 6.5.8 1.3.5 1.6.2 1.5-1.7-.3-3.9-.1-4.9 1.3-4.9.7 0 1.8.5 2.5 1.2.6.6 2.2 1.3 3.4 1.5 1.3.2 3.7 1.8 5.3 3.7 1.7 1.9 4 3.9 5.2 4.5 2.5 1.3 5.3.5 5.3-1.6 0-.8.5-1.1 1-.8.6.3 1 .1 1-.6 0-.9.3-1 1-.3 1.7 1.7 6.9.3 9-2.4 1.1-1.3 2-3.7 2-5.2 0-2.2.8-3 4-4.5 3-1.3 4-2.4 4-4.1 0-2.8 2.7-5.7 4.7-5 2.6 1.1 7.1-6 6.4-10.2-.2-1.5 1.3-1.5 5.5 0 2.8 1 3.6.9 5.2-.5 1.1-1 2.6-1.5 3.6-1.1.9.3 1.6.1 1.6-.5s.9-1.1 2-1.1c2.4 0 2.6-1.3.5-3-.8-.7-1.5-1.9-1.5-2.7 0-.7.7-1.6 1.5-1.9 1.8-.7 2-3.4.3-3.4-1 0-1-.2-.1-.8 1-.6.8-1.7-.7-4.5-2.4-4.4-2.4-4.7-.6-4.7.8 0 1.8-.9 2.1-2 .7-2.2 1.3-2.4 3.4-1.1 1.9 1.2 4.1-1 4.1-4.1 0-2.7-2.1-6-3.5-5.8-4.1.8-4.8.1-4.1-4.7.3-2.6 1.1-5.2 1.6-5.7 3.1-3.1-1.6-5-5.5-2.2-1.8 1.2-2.3 1.2-4.1-.3-1.2-.9-2.6-2.6-3.3-3.8-1.3-2.6-7.1-6.9-7.1-5.4zM540.152 257.309c-.3.6-1.7.8-3 .5-1.3-.4-2.4-.2-2.4.4 0 .5-1.8.8-3.9.6-5.3-.4-10.4 2-9.1 4.4.5.9.6 2.1.1 2.6-.4.5-1.4 2.8-2.1 5.1-.7 2.4-1.9 4.3-2.7 4.3-.8 0-1.2.4-.9.8.2.4.1 1.4-.3 2.1-.7 1-1.2 1-3-.1-2-1.2-2.4-1-4.1 1.2-1.3 1.6-1.8 3.4-1.5 4.8.5 1.8 0 2.5-2.3 3.3-2.4.8-2.8 1.4-2.4 3.9.3 1.8 0 3-.7 3s-.9.9-.5 2.4c.3 1.5.1 2.5-.9 2.9-.8.3-1.7 1.5-2 2.6-.5 1.9-.3 1.9 2.8-.5 1.8-1.4 3.6-3.1 3.8-3.8.3-.7 2.6-1.8 5.2-2.5 3.8-1 4.6-1.5 4-2.9-.4-.9-1-2.5-1.3-3.6-.4-1.6-.2-1.7 1.7-.7 1.8 1 2.5.8 4.6-1.5 1.4-1.5 2.5-3.2 2.5-3.8 0-.6.5-.3 1.1.6 1.2 2.2 3.3 2.4 2.5.3-.7-1.8 2.1-3.2 3.5-1.8 1.4 1.4 7.9.3 7.9-1.3 0-.7.9-1.8 2-2.4 1.2-.6 2-2.1 2-3.6 0-1.4.4-3.4 1-4.4.8-1.6.4-2.1-2.8-3.7-2-1-3.9-2.6-4-3.6-.3-1.6-.1-1.7 1.9-.7 1.9 1.1 2.1 1 1.6-.4-.5-1.2 0-1.6 1.7-1.6 1.3 0 2.6-.6 2.9-1.4.9-2.4-1.5-3.7-2.9-1.5zM309.252 267.209c.3.5.8 1 1.1 1 .2 0 .4-.5.4-1 0-.6-.5-1-1.1-1-.5 0-.7.4-.4 1zM507.952 273.909c-1.8 2-2 2.8-1 3.4.8.5 1.6.2 2.2-.9.5-.9 1.3-1.9 1.7-2.2.4-.3.5-1.1.1-1.7-.5-.8-1.5-.3-3 1.4zM330.752 275.209c0 .5.5 1 1 1 .6 0 1-.5 1-1 0-.6-.4-1-1-1-.5 0-1 .4-1 1zM499.252 277.309c-2.4 1.5-2.6 1.9-1 1.9 2.3-.1 6-2.6 4.8-3.3-.4-.2-2.1.4-3.8 1.4zM778.752 288.409c0 .9.5 2 1 2.3 1.3.8 1.3-.5 0-2.5-.8-1.3-1-1.3-1 .2zM778.752 295.509c0 .9-.5 1.7-1.1 1.7-.5 0-.9.9-.7 1.9.4 2.5-7.3 13.2-9 12.6-1.3-.5-5.8 2.3-9.4 5.7-1 1-2.3 1.8-2.9 1.8-.7 0-.9 1-.5 2.5.5 2 .2 2.7-1.8 3.6-1.3.6-2.7 2.2-3 3.5-.4 1.3-1.2 2.4-1.9 2.4-1.6 0-5.7 4.4-5.7 6.1 0 .7-.3 1-.6.6-.3-.3-1.5.3-2.6 1.3-2.5 2.3-1.9 5.4 1.7 9.2 1.4 1.5 2.5 3.2 2.5 3.8 0 .6.7 1.9 1.6 2.7.8.9 1.4 2.4 1.1 3.3-.3 1.3.1 1.6 1.8 1.2 1.3-.2 2.6.1 2.9.7.4.6 1.3 1.1 2 1.1 1.9 0 7.1-5.2 6.8-6.7-.2-.7.2-1.3.8-1.3 1.8 0 1.1-4.1-1.1-5.9-2.4-1.9-1.9-6.1.7-6.1.8 0 1.2-.5.9-1-.4-.6-1.1-.8-1.6-.5-.5.4-.9.1-.9-.6 0-.8-.4-.8-1.5.1-1.2 1-1.8 1-3.1-.1s-1.1-1.4 1.8-2.3c2.4-.8 3.6-2 4.3-4.3 1.5-4.4 2.4-5.1 4-3 1.4 1.9 5.5 1.6 5.5-.4 0-.6.9-.7 2-.4 1.8.6 2 .3 1.4-1.9-.4-1.8-.2-2.6.7-2.6.8 0 .6-.5-.6-1.3-1.4-1.1-1.5-1.6-.5-2.2.7-.4.8-1 .3-1.4-.6-.3-.8-2.3-.5-4.4.3-3 .7-3.5 1.8-2.6 1.1.9 1.6.6 2.4-1.6.5-1.4 1-3.5 1-4.6 0-1 .3-1.9.8-1.9.4 0 1.2-1.5 1.8-3.4.8-2.6.7-3.8-.3-5.2-1.2-1.6-1.3-1.6-1.3-.1zM147.752 298.609c0 .2.7.9 1.5 1.6 1.3 1.1 1.4 1 .9-.4-.5-1.4-2.4-2.3-2.4-1.2zM141.252 303.709c-2.5 2.8-4 3.6-7.1 3.7-2.1 0-4.6.7-5.6 1.5-1.7 1.5-3.5.2-2.3-1.6.9-1.6-1.5-2.4-3.1-1-1.3 1.1-1.8 1-2.6-.4-.5-1-1.4-1.5-1.9-1.1-.5.3-1.5.1-2.2-.4-.7-.6-3.4-1.3-6-1.7-4.3-.7-4.9-.5-5.4 1.3-.6 2.4-7.1 3.9-10 2.4-1.6-.9-1.8-.7-1.8 1.3.1 1.3.7 3 1.3 3.8.9 1.1 1 2.2.2 4.3-1.4 3.5-.6 5.4 2 5.4 1.1 0 2 .6 2.1 1.2 0 .7.2 3.1.3 5.3.5 7-.2 8.5-3.8 8.5-1.8 0-3.7-.5-4.3-1.1-.7-.7-1.2.2-1.7 3.1-.5 3-.2 4.5.9 5.6.8.9 1.6 1.8 1.6 2.2.8 5 .7 6.3-.7 5.8-.7-.3-2-.9-2.8-1.2-.8-.3-1.5.3-1.9 1.5-.6 2.6 1.3 3.2 8.2 2.7 3.4-.3 5.7-1.1 6.5-2.2.9-1.1 2.2-1.5 3.9-1.2 1.8.3 2.7 0 3-1.1.6-2.3 11.7-4.7 14.6-3.1 1.6.8 2.6.8 3.6 0 .7-.6 2.9-1 4.9-.8 1.9.1 3.8-.1 4.1-.4.3-.3 2.1-.2 4 .2 3.1.7 3.4.6 2.5-1.1-1.3-2.2.3-3.4 2.2-1.6 1.8 1.8 4.8 2.8 4.8 1.6 0-.6.4-.8.9-.5.5.3 1.1-.3 1.4-1.4.4-1.6 0-2-1.8-2-3.1 0-4.1-1.6-1.5-2.3 1.7-.4 2-1.4 2-6.1 0-4 .4-5.7 1.6-6.4 1-.6 1.7-2.4 1.9-4.7.1-2.3.9-4.1 1.9-4.7 2.3-1.3 2-2.7-.9-4-1.5-.7-2.5-2-2.5-3.2 0-1.2-.9-3.2-2-4.6-1.1-1.4-2-3.1-2-3.8 0-2.3-3.2-1.2-6.5 2.3zM488.352 311.609c.3.9 1.1 1.6 1.6 1.6 1.3 0 .5-2.3-1-2.8-.7-.2-1 .2-.6 1.2zM610.552 315.809c-.4.3-.2 1.9.3 3.6.4 1.7.6 3.4.4 3.9-.3.4-.1 1 .5 1.4 1.6 1 1.2 4.3-.6 4.7-1.2.2-1 .8 1.2 2.8 1.6 1.4 2.3 1.8 1.6.9-1-1.3-.8-2.1 1.3-4.3 1.3-1.4 3-2.6 3.7-2.6.9 0 .9-.3-.2-1-1.9-1.3-.8-1.3 2.5 0 1.4.5 2.4.6 2.1.1-.3-.5.1-1.2 1-1.5 2.8-1.1-.4-3.8-4-3.4-2.5.2-3.2-.1-3.4-1.8-.3-2.4-4.9-4.4-6.4-2.8zM783.752 328.509c0 1.8-4.2 2.7-6.5 1.4-1.3-.7-1.6-.6-1.3.4.3.8 1.3 1.6 2.3 1.8 1 .2 2.5.9 3.2 1.7 1.4 1.3 4.3.9 4.3-.7 0-.5 1.3-.9 2.9-.9 2.4 0 2.8-.3 2.4-2-.3-1.1-.8-2-1.2-2.1-.3 0-1.8-.3-3.3-.5-2-.3-2.8 0-2.8.9zM717.752 330.709c0 1.6.6 2.5 1.5 2.5s1.5-.9 1.5-2.5-.6-2.5-1.5-2.5-1.5.9-1.5 2.5zM803.452 329.909c-.4.3-.7 1.1-.7 1.7 0 .6.5.5 1.2-.2.6-.6.9-1.4.7-1.7-.3-.3-.9-.2-1.2.2zM794.252 333.209c1 1.1 2 1.8 2.3 1.5.3-.2 1.4 0 2.6.6 1.4.6 1 .1-.9-1.5-3.7-3.2-6.7-3.6-4-.6zM722.052 335.209c0 1 .7 1.6 1.4 1.3.7-.3 1.8.7 2.4 2.1 1.4 3 4.4 3.4 5.8.7 1.4-2.5-1.7-5.3-6.3-5.6-2.8-.3-3.4 0-3.3 1.5zM85.752 335.609c0 .8.4 1.7.9 2 .5.4.7-.3.4-1.4-.6-2.3-1.3-2.6-1.3-.6zM799.752 337.209c-1.4 1.1-3.1 2-3.7 2-4.2.1 2.9 5 7.2 5 1.2 0 3 .9 4 2 1.5 1.7 1.9 1.7 3.2.4.8-.8 1.3-2.4 1-3.4-.5-2.1 3.3-6 5.9-6 .8 0 1.4-.5 1.4-1.1 0-.7-1-.9-2.7-.4-4.2 1.1-11.3 1.3-11.9.3-.8-1.2-1.6-1-4.4 1.2zM734.452 337.309c.7.7 1.5 1 1.8.7.3-.3-.2-.9-1.2-1.2-1.4-.6-1.5-.5-.6.5zM700.552 341.009c-.4 1.3.3 2.2 2.4 3.1 3.6 1.6 4.2 1.1 2.7-2.3-1.4-3-4.4-3.5-5.1-.8zM688.552 343.309c-2.2 1.2-2.3 2.9-.3 2.9.9 0 1.5 1 1.6 2.2.1 2.1.2 2 1.1-.5.6-1.8 1.7-2.7 3.1-2.7 2.1-.1 2.1-.1-.3-1.5-3-1.7-3-1.7-5.2-.4zM608.252 346.209c.3.5.8 1 1.1 1 .2 0 .4-.5.4-1 0-.6-.5-1-1.1-1-.5 0-.7.4-.4 1zM81.152 353.309c-.3.6-.2 1.5.2 1.9 1.2 1.2 3.8-.5 3-1.9-.9-1.4-2.3-1.4-3.2 0zM725.752 353.009c0 .5-2 1.3-4.5 1.7-2.5.3-4.3 1-4.1 1.4.3.4-1.7 1.3-4.4 2-2.6.7-5.1 1.9-5.4 2.7-.7 1.9-4.6 1.8-4.6-.2 0-.9-.5-1.4-1.2-1.2-2.1.7-1.9 2.4.8 5.1 2 2 2.5 3.3 2 5.1-.3 1.4-.1 2.8.5 3.2.6.3.8 1.5.6 2.6-.7 2.5 5 8.3 6.8 6.8 1.4-1.2 2.5-.3 2.5 2.1 0 1 1.1 2.9 2.5 4.1 1.9 1.8 2.5 3.5 2.7 7.3.3 4.2 0 5-1.7 5.3-3.1.6-3.7 1.6-2.6 4.6 1 2.5 1.4 2.6 6.6 2.4 4-.2 5.9.2 6.5 1.2.9 1.3 1 1.3 1 0s.1-1.3 1 0c.5.8 1.2 1.1 1.6.7.4-.4.2-1.3-.4-1.9-.7-.7-1.2-2.8-1.2-4.7.1-2.9.3-3.3 1.1-1.9.5.9 1.6 1.5 2.3 1.2 1.1-.4 1.2-1.2.4-3.5-.6-1.6-.8-3.9-.5-4.9.3-1.1-.2-2.7-1.1-3.6-1.4-1.4-1.3-1.5.9-1.2 2 .3 2.4-.2 3-3.5.4-2.4.1-4.4-.8-5.7-1.2-1.7-1.1-2 .7-3 1.4-.7 1.9-1.7 1.5-2.9-.8-2.5 3.1-7.1 6.1-7.1 1.3 0 2.4-.4 2.4-.8 0-2-2.7-6-6.1-9-3-2.6-4.1-3.1-6-2.4-1.7.7-3.2.4-5.6-1.1-1.8-1-3.3-1.5-3.3-.9zM76.752 355.209c1.6 3 1.2 4.1-1.3 3.5-1.7-.5-2.4-.2-2.4.9 0 2 1.6 2 4.5 0 2.7-1.9 2.9-5 .2-5.7-1.6-.4-1.8-.2-1 1.3zM69.052 366.209c.1 2.2.3 4 .4 4 .1 0 1.1-1 2.3-2.2 2.8-3 2.6-5.3-.5-5.6-2.3-.2-2.4.1-2.2 3.8zM62.652 371.309c-1.4 2.7-.6 3.4 2 1.7 2.5-1.5 2.6-2.4.6-3.2-.9-.3-1.9.3-2.6 1.5zM61.752 377.309c0 .5.5.7 1 .4.6-.3 1-.8 1-1.1 0-.2-.4-.4-1-.4-.5 0-1 .5-1 1.1zM49.752 380.809c0 3.1-1.7 4.7-8.7 7.9-2.8 1.3-5.6 3.2-6.1 4.1-.7 1.3-1.7 1.5-4 1.1-2-.4-3.2-.2-3.6.6-.3.9-.8.8-1.8-.3-.7-.9-2-1.5-2.8-1.3-2.3.3-12.5-5-12.2-6.5.1-.7-.8-1.2-2-1.1-1.3 0-1.7.3-1.1.6.9.3 1.1 1.4.6 3.1-.7 3.1-2.2 4.4-4.1 3.7-1.5-.5-.8.9 1.7 3.9.9 1.1 1.1 1.6.5 1.3-.7-.4-1.7 0-2.4.8-1 1.2-1 1.5 0 1.5s1 .3 0 1.5c-1.1 1.3-1 1.8.6 3.1 1 .9 1.3 1.3.7.9-1.9-.9-1.6.6.5 2.2.9.8 1.2 1.2.5.9-.6-.4-1.4-.2-1.8.4-.3.5-1.5 1-2.7 1-1.5 0-1.8.4-1.3 1.7 1.5 3.9 1.7 8.3.4 9.9-1.1 1.4-.9 1.5 2.2 1.2 3.1-.3 3.4 0 3.7 2.5.3 2.3.7 2.7 2.5 2.2 1.2-.4 3.8-2.3 5.7-4.3 1.9-2 3.9-3.7 4.3-3.7 1 0 3.7-7.1 3.7-9.6 0-1.6 1.4-2.4 9.3-5 2.4-.9 3.7-1.9 3.7-3.1 0-1.2.7-1.8 2.1-1.8 1.4 0 2.4-1 3.2-3 .9-2.3 1.8-3 3.9-3 1.5 0 3.1-.7 3.7-1.7.5-1 1.3-1.4 1.7-1 .5.4 1.5-.7 2.4-2.5.9-2 2.4-3.4 3.7-3.6 4.7-.7.3-7.1-4.9-7.2-1.3 0-1.8.8-1.8 2.6zM571.452 392.809c-.4.4-.7 1.9-.7 3.4 0 1.4-.5 3.1-1.2 3.8-2.2 2.2-1.7 3.9 1.2 4 3.1.1 6.6-3.8 5-5.4-.4-.5-1-2-1.2-3.3-.3-2.5-1.9-3.7-3.1-2.5zM578.152 406.809c-.2 2 0 2.1 1.2.9 1.7-1.7 1.7-2.2.2-2.8-.8-.3-1.4.5-1.4 1.9zM735.352 405.409c.3.4.9.8 1.5.8.5 0 .9-.4.9-.8 0-.5-.7-.9-1.5-.9s-1.2.4-.9.9zM509.252 412.209c-.3.6-1.9 1-3.5 1-3.5 0-4 .7-4.2 6-.1 2.9-.5 3.9-1.5 3.6-.7-.3-1.3.1-1.3.9 0 2.1-4 4.5-7.5 4.5-2.2 0-4 .9-6 3-1.6 1.6-3.7 3-4.7 3-1.3 0-1.8.8-1.8 2.9 0 1.7.5 3.3 1 3.6 1.3.8-.5 4.2-3.4 6.7-1.6 1.3-3.1 1.6-6.4 1.2l-4.3-.6.5 5.6c.3 3.1.8 6.1 1.1 6.6 1.3 2.2-.6 4.8-4 5.4-2.2.4-3.5 1.3-3.5 2.2 0 .8-1.1 2.6-2.5 4s-2.8 3.6-3.1 5c-.5 1.8-1.3 2.5-2.8 2.3-5-.3-5.3 0-5.9 5.2-.4 2.8-1.2 6.3-2 7.8-1.2 2.5-1.2 3.2.3 6.2 1.7 3.2 1.7 3.6-.2 8.4-1.1 2.7-2.4 5.3-3 5.6-1.1.7 2.1 2.3 4.1 2 .7-.1 1 .2.7.7-.8 1.3 1.3 7.2 2.6 7.2.6 0 .8-.7.4-1.5-.3-.8-.1-1.5.5-1.5.5 0 .7-1.1.3-2.4-.4-1.6-.1-2.5 1-2.9.9-.4 1.6-1.5 1.6-2.6 0-1.2 1.2-2.8 2.6-3.8 3.3-2.1 4.6-5.6 3.4-8.8-.7-2-.6-2.5.5-2.5.8 0 1.5-.6 1.5-1.3 0-.6.5-2.9 1.1-5 .8-3 1.5-3.7 3.4-3.7 1.7 0 2.3-.4 1.9-1.4-.4-1 .2-1.6 1.8-1.8 1.5-.2 2.4-1.1 2.6-2.6.2-1.2-.1-2.2-.7-2.2s-1.1-.7-1.1-1.5c0-2.2 5.2-1.9 7.7.4 1.9 1.8 2.5 1.8 6.4.7 4.2-1.3 4.4-1.4 4.1-5-.3-3.3-.1-3.6 2.3-3.6s2.5-.2 1.9-3.5c-.5-2.8-.3-3.5 1-3.5 2.4 0 3.1-2.8 1.2-4.9-1.2-1.3-1.4-2.7-1-5.2 1-4.8 3.2-8.9 4.9-8.9 1.1 0 1.3-.8.9-3-.5-2.4-.3-3 1-3 2.3 0 6.5-5 6.6-7.7 0-1.5.6-2.2 1.8-2.1 4.3.3 5.3-.2 4.7-2.3-.7-2-.5-2.1 2.9-1.5 2.9.6 3.6.4 3.6-.9 0-1.9 1.6-2 2.3-.1.3.8 2.7 1.9 5.3 2.4 4.4 1 5 .8 7.7-1.4 2.6-2.2 2.7-2.4.7-2.4-4 0-8-2.8-8-5.7 0-2.5-.1-2.5-1.8-1-2.4 2.2-2.9 2.2-9.5-.8-3.3-1.4-5.9-2-6.2-1.5zM544.152 417.209c.2 1.4.8 3.5 1.1 4.7.6 1.9.4 2.3-1.6 2.3-1.8 0-2 .3-1.1 1.2.9.9 1.7.9 3.5-.1 2.2-1.2 3.5-5.1 1.7-5.1-.5 0-1.6-1.2-2.5-2.8-1.6-2.7-1.6-2.7-1.1-.2zM433.752 510.309c0 .5-.4.7-1 .4-1.5-.9-1.2 1.5.4 3.1.8.8 2.1 1.3 2.8 1.2 2.4-.5 2.7-2.2.8-4-2.2-2.1-3-2.3-3-.7z"/><path d="M452.752 512.909c0 1.9 2.1 2.7 3.3 1.3.9-1 .9-1.1-.2-.5-.8.4-1.7.2-2.2-.6-.6-.9-.9-1-.9-.2zM453.852 517.809c0 1.1.3 1.4.6.6.3-.7.2-1.6-.1-1.9-.3-.4-.6.2-.5 1.3zM451.952 522.709c-.7 1.5-.8 2.5-.2 2.5.6 0 1-.4 1-.9s1.4-1.2 3-1.6c3.4-.7 3.1-2.5-.4-2.5-1.5 0-2.7.9-3.4 2.5z"/></g></svg>