<?xml version="1.0" standalone="no"?>
<!DOCTYPE svg PUBLIC "-//W3C//DTD SVG 20010904//EN"
 "http://www.w3.org/TR/2001/REC-SVG-20010904/DTD/svg10.dtd">
<svg version="1.0" xmlns="http://www.w3.org/2000/svg"
 width="189.205213pt" height="315.302780pt" viewBox="0 0 189.205213 315.302780"
 preserveAspectRatio="xMidYMid meet">
<metadata>
Created by potrace 1.15, written by Peter Selinger 2001-2017
</metadata>
<g transform="translate(-904.344916,1182.000000) scale(0.100000,-0.100000)"
fill="#222222" stroke="none">
<path d="M9227 11808 c4 -7 8 -16 9 -20 1 -5 2 -11 3 -14 0 -4 7 -1 15 6 19
15 9 40 -16 40 -13 0 -17 -4 -11 -12z"/>
<path d="M9283 11753 c-18 -7 67 -90 101 -99 15 -3 26 -2 26 4 0 21 -13 42
-25 42 -7 0 -25 14 -38 30 -25 29 -38 34 -64 23z"/>
<path d="M9432 11641 c-23 -6 -23 -7 -5 -22 18 -16 77 -49 88 -49 21 0 -25 73
-48 75 -7 1 -23 -1 -35 -4z"/>
<path d="M9546 11486 c3 -8 12 -17 20 -20 8 -3 14 -14 14 -25 0 -18 20 -42 20
-24 0 4 4 14 9 21 7 12 14 11 38 -2 17 -8 33 -12 37 -9 10 10 -46 43 -74 43
-14 0 -35 7 -48 15 -18 14 -21 14 -16 1z"/>
<path d="M9757 11398 c18 -13 33 -28 33 -34 0 -5 7 -19 15 -30 13 -16 16 -17
25 -4 12 19 13 33 1 25 -5 -3 -16 3 -23 13 -14 18 -62 52 -75 52 -4 0 7 -10
24 -22z"/>
<path d="M9890 11323 c5 -2 10 -11 10 -19 0 -14 -44 -14 -82 1 -10 4 -18 3
-18 -3 0 -5 -9 -12 -20 -15 -11 -3 -20 -12 -20 -21 0 -20 19 -21 27 -1 5 14 8
14 25 -2 14 -13 19 -28 17 -59 -2 -23 3 -49 10 -57 9 -11 9 -17 0 -22 -6 -4
-14 -3 -18 3 -7 12 -61 -31 -61 -49 0 -8 -5 -8 -16 2 -12 9 -17 10 -23 1 -5
-8 -12 -6 -24 8 -21 25 -57 27 -57 2 0 -22 -39 -27 -54 -8 -6 7 -21 16 -33 19
-20 5 -23 1 -23 -29 0 -19 -5 -34 -11 -34 -7 0 -9 -10 -5 -26 6 -23 4 -26 -13
-21 -12 3 -21 1 -21 -4 0 -4 -6 -6 -13 -3 -8 3 -20 -2 -27 -11 -7 -8 -22 -15
-34 -15 -39 0 -65 -12 -71 -31 -7 -23 -25 -25 -25 -4 0 11 -12 15 -49 15 -28
0 -53 5 -56 10 -3 6 -15 10 -26 10 -10 0 -19 4 -19 10 0 5 -6 7 -14 4 -8 -3
-17 -1 -21 5 -3 6 -16 11 -27 11 -17 0 -10 -13 43 -68 35 -38 82 -90 104 -115
22 -26 47 -47 57 -47 25 0 53 -69 38 -93 -6 -10 -8 -26 -5 -36 3 -10 0 -31 -6
-47 -16 -42 -19 -63 -9 -69 4 -3 6 -14 3 -25 -7 -25 64 -93 90 -86 10 2 17 -2
17 -11 0 -8 7 -13 18 -11 9 2 16 12 15 22 -1 12 4 16 14 12 9 -4 21 -2 28 4 7
6 17 10 21 9 5 -1 16 0 24 4 8 3 29 7 47 9 25 4 34 0 42 -19 7 -14 7 -23 1
-23 -6 0 -10 5 -10 10 0 6 -4 10 -8 10 -5 0 -8 -10 -8 -22 1 -20 -5 -23 -37
-26 -30 -3 -37 -7 -33 -18 3 -9 6 -23 6 -31 0 -9 3 -13 7 -10 9 9 53 -33 53
-50 0 -7 7 -13 15 -13 9 0 18 -7 21 -15 4 -8 13 -15 21 -15 8 0 27 -7 43 -15
18 -9 30 -11 30 -5 0 6 11 3 25 -6 16 -10 25 -12 25 -5 0 8 5 9 19 1 17 -9 18
-14 9 -40 -5 -17 -7 -37 -4 -46 3 -8 2 -12 -4 -9 -6 3 -10 -3 -10 -14 0 -12
-4 -21 -10 -21 -5 0 -10 -7 -10 -16 0 -10 -6 -14 -15 -10 -10 3 -15 -1 -15
-14 0 -24 30 -33 65 -20 34 13 51 1 57 -40 4 -25 1 -30 -15 -30 -19 0 -19 -1
-4 -18 18 -19 24 -92 8 -92 -9 0 -28 -162 -22 -190 1 -8 3 -31 3 -51 1 -29 6
-39 25 -48 13 -6 33 -27 44 -46 22 -37 55 -47 65 -20 4 8 17 15 31 15 33 0 63
17 63 37 0 10 6 14 20 10 13 -3 20 0 20 9 0 19 16 18 24 -1 3 -9 12 -12 22 -8
14 5 16 3 11 -11 -12 -30 67 -136 102 -136 18 0 51 -29 51 -45 0 -5 18 -30 41
-57 22 -26 36 -48 31 -48 -14 0 -6 -69 13 -111 17 -37 60 -68 67 -48 2 6 21
-3 42 -20 42 -34 52 -37 58 -19 6 17 77 -29 88 -57 18 -47 125 -37 168 15 15
18 21 19 56 9 53 -15 65 -1 36 45 -12 20 -25 36 -29 36 -4 0 -15 15 -23 34 -9
18 -37 46 -62 62 -51 33 -68 64 -64 116 1 20 -3 42 -9 50 -6 7 -13 31 -15 53
-3 37 -6 40 -55 60 -29 11 -65 30 -80 42 l-28 22 28 24 c15 12 27 30 27 40 0
9 5 17 11 17 5 0 7 5 3 11 -3 6 0 15 7 20 8 5 14 23 14 41 0 27 -4 34 -25 38
-18 4 -26 13 -28 32 -2 19 -11 29 -32 36 -34 12 -54 45 -47 78 3 17 -1 28 -14
35 -11 5 -19 17 -19 25 0 11 -6 13 -20 9 -10 -3 -29 -1 -41 6 l-22 11 20 17
c33 26 38 59 13 86 -18 19 -22 35 -22 92 -1 59 -4 72 -27 98 -15 17 -28 43
-30 59 -2 25 0 28 16 21 25 -11 72 -8 89 6 8 6 14 20 14 31 0 15 5 18 20 13
15 -5 29 2 53 27 60 63 68 77 57 98 -7 12 -7 21 0 25 5 3 10 19 10 36 0 17 5
29 13 29 22 0 37 46 38 113 0 34 4 71 8 82 7 18 8 18 18 1 9 -16 13 -17 36 -5
25 14 25 14 9 51 -12 27 -24 38 -45 42 -35 7 -47 1 -47 -25 0 -13 -7 -19 -22
-19 -44 0 -64 12 -75 41 -8 20 -18 29 -34 29 -13 0 -36 12 -52 27 -18 18 -26
22 -22 11 10 -26 -20 -33 -66 -15 -39 15 -39 15 -45 -9 -6 -23 -7 -23 -19 -7
-7 10 -11 21 -9 25 3 4 -14 12 -36 18 -22 6 -40 15 -40 20 0 13 17 13 25 0 3
-5 10 -10 15 -10 11 0 1 38 -13 47 -6 3 -7 1 -3 -5 4 -7 3 -12 -3 -12 -17 0
-23 20 -11 35 10 12 9 16 -5 22 -12 4 -23 0 -31 -12 -13 -18 -15 -18 -34 3
-12 12 -32 22 -45 22 -18 0 -25 5 -25 20 0 12 -12 26 -31 35 -22 12 -29 22
-27 38 2 16 -10 33 -41 60 -23 21 -53 56 -65 79 -12 23 -27 43 -34 44 -7 1 -8
0 -2 -3z m41 -294 c8 -1 19 -1 25 0 18 2 54 -39 55 -62 1 -12 2 -29 3 -37 2
-26 -26 -39 -68 -33 -36 6 -38 4 -31 -15 5 -17 3 -21 -9 -16 -8 3 -12 12 -9
20 3 8 1 14 -4 14 -16 0 -53 40 -53 57 0 11 3 13 13 5 16 -14 57 -4 57 13 0 7
-7 16 -16 19 -9 3 -12 11 -8 18 6 10 4 11 -7 1 -7 -7 -16 -13 -21 -13 -16 0
-29 42 -22 76 l7 36 37 -41 c21 -23 44 -42 51 -42z"/>
<path d="M9048 10993 c7 -3 16 -2 19 1 4 3 -2 6 -13 5 -11 0 -14 -3 -6 -6z"/>
<path d="M10653 10912 c-8 -5 -7 -11 3 -19 15 -14 27 -3 16 14 -4 7 -13 9 -19
5z"/>
<path d="M9560 10247 c0 -10 39 -47 49 -47 7 0 19 -16 27 -35 8 -19 18 -35 23
-35 5 0 11 -10 14 -21 4 -16 11 -20 23 -15 11 4 27 -3 46 -21 21 -20 28 -23
28 -11 0 9 -6 18 -14 21 -7 3 -24 26 -36 52 -14 28 -27 44 -35 41 -7 -2 -25 9
-40 26 -20 22 -29 27 -35 18 -6 -9 -11 -7 -19 9 -10 17 -31 30 -31 18z"/>
<path d="M9470 9725 c14 -15 34 -32 45 -37 16 -9 16 -6 -5 17 -14 15 -34 32
-45 37 -16 9 -16 6 5 -17z"/>
<path d="M9555 9650 c3 -5 8 -10 11 -10 2 0 4 5 4 10 0 6 -5 10 -11 10 -5 0
-7 -4 -4 -10z"/>
<path d="M9576 9575 c4 -22 2 -35 -4 -35 -7 0 -5 -14 5 -37 10 -26 12 -38 4
-41 -20 -7 -11 -40 16 -60 26 -19 26 -20 17 -91 -6 -39 -8 -73 -6 -76 3 -2 6
-34 7 -69 1 -36 8 -72 15 -81 7 -8 10 -21 7 -29 -3 -8 2 -16 14 -19 14 -4 17
-10 12 -24 -12 -34 -23 -42 -48 -33 -20 7 -22 6 -18 -11 4 -14 0 -19 -16 -19
-11 0 -21 5 -21 10 0 19 -21 10 -49 -21 -33 -36 -74 -59 -106 -59 -19 0 -22
-4 -18 -21 4 -13 8 -16 13 -10 8 13 46 9 61 -6 7 -7 1 -12 -21 -17 -18 -3 -36
-3 -41 0 -18 11 -8 -6 17 -29 21 -20 24 -28 16 -43 -9 -17 -6 -19 31 -22 23
-1 49 -9 57 -17 12 -11 19 -12 27 -4 9 9 21 6 47 -11 20 -12 36 -25 36 -29 0
-4 15 -5 34 -3 23 3 36 10 39 23 6 23 44 25 72 5 29 -21 40 0 40 72 -1 53 2
62 17 62 10 0 23 9 30 20 7 11 17 20 23 20 12 0 13 50 2 68 -5 7 -6 25 -2 41
5 23 10 27 31 23 31 -6 54 13 54 45 0 20 -4 24 -20 20 -24 -6 -36 9 -20 28 8
9 8 15 0 20 -6 4 -8 15 -5 25 3 10 1 21 -5 25 -17 11 -11 25 11 25 16 0 19 4
14 23 -4 12 -16 30 -28 40 -18 16 -19 21 -8 39 17 27 22 70 9 85 -5 7 -7 17
-3 23 11 18 -6 70 -27 81 -19 10 -20 9 -15 -11 4 -16 2 -20 -10 -16 -9 4 -17
-1 -20 -12 -2 -10 -13 -23 -23 -30 -17 -10 -24 -7 -54 23 -21 21 -45 35 -60
35 -14 0 -36 4 -50 10 -20 7 -24 14 -20 37 3 15 11 33 19 39 8 6 15 16 15 21
0 13 -45 33 -76 33 -23 0 -24 -3 -18 -35z m4 -768 c0 -4 -10 -3 -21 4 -17 9
-19 13 -8 20 13 8 28 -5 29 -24z"/>
<path d="M9365 8800 c-3 -5 -2 -10 4 -10 5 0 13 5 16 10 3 6 2 10 -4 10 -5 0
-13 -4 -16 -10z"/>
</g>
</svg>
