<?xml version="1.0" standalone="no"?>
<!DOCTYPE svg PUBLIC "-//W3C//DTD SVG 20010904//EN"
 "http://www.w3.org/TR/2001/REC-SVG-20010904/DTD/svg10.dtd">
<svg version="1.0" xmlns="http://www.w3.org/2000/svg"
 width="791.476548pt" height="586.719583pt" viewBox="0 0 791.476548 586.719583"
 preserveAspectRatio="xMidYMid meet">
<metadata>
Created by potrace 1.15, written by Peter Selinger 2001-2017
</metadata>
<g transform="translate(-657.034271,1317.774537) scale(0.100000,-0.100000)"
fill="#222222" stroke="none">
<path d="M9720 13156 c0 -13 -4 -28 -10 -31 -21 -13 -9 -24 14 -14 18 9 24 18
22 37 -4 34 -26 41 -26 8z"/>
<path d="M9680 13070 c0 -30 -28 -80 -45 -80 -7 0 -15 -10 -17 -22 -2 -17 -13
-24 -42 -30 -22 -5 -54 -18 -73 -29 -27 -17 -36 -19 -48 -9 -12 10 -15 9 -15
-10 0 -17 -4 -21 -20 -17 -11 3 -20 3 -20 1 0 -15 32 -62 45 -67 8 -4 15 -16
15 -27 0 -11 10 -34 21 -49 21 -29 21 -30 3 -60 -16 -27 -17 -33 -4 -41 8 -5
18 -6 22 -3 5 2 15 -1 23 -7 11 -9 15 -9 15 -1 0 14 47 15 55 1 3 -5 1 -10 -5
-10 -6 0 -10 -8 -9 -17 1 -10 1 -37 0 -59 -1 -37 -4 -42 -30 -47 -29 -6 -29
-7 -18 -42 6 -20 19 -41 29 -46 12 -6 17 -17 14 -27 -3 -10 -2 -33 4 -51 9
-32 7 -36 -35 -76 -32 -32 -50 -42 -65 -38 -14 4 -28 -2 -42 -17 -12 -12 -28
-20 -38 -17 -12 3 -20 -2 -23 -14 -3 -11 -1 -19 5 -19 5 0 8 -8 7 -17 -1 -10
-1 -27 0 -37 1 -19 2 -19 14 -2 16 22 45 11 42 -17 0 -12 7 -29 17 -37 26 -22
14 -53 -18 -47 -24 4 -33 -6 -15 -18 13 -7 61 -95 61 -110 0 -7 -7 -18 -15
-25 -14 -12 -13 -16 10 -40 19 -20 26 -41 31 -90 4 -36 11 -67 15 -70 4 -3 -1
-30 -11 -60 -17 -50 -17 -56 -3 -72 11 -12 12 -18 4 -18 -7 0 -11 -8 -10 -17
1 -10 -1 -26 -6 -36 -4 -10 -2 -24 5 -33 16 -19 1 -37 -32 -39 -24 -2 -25 -4
-27 -56 -1 -37 -20 -35 -39 4 -15 31 -24 33 -42 12 -9 -11 -17 -12 -32 -4 -11
6 -29 8 -41 5 -21 -5 -77 18 -77 33 0 11 -47 31 -74 31 -13 0 -35 9 -50 21
-20 16 -30 18 -40 10 -16 -13 -46 -4 -46 13 0 7 -13 24 -29 38 -18 17 -30 40
-35 66 -6 42 -38 73 -51 52 -3 -5 -20 -10 -37 -10 -26 0 -29 2 -18 15 9 11 9
17 -2 27 -26 25 -114 51 -176 53 -38 1 -67 7 -71 14 -5 7 -18 10 -34 6 -28 -7
-67 22 -67 50 0 9 -8 30 -17 48 -17 31 -19 37 -22 55 -2 18 -37 48 -75 65 -41
19 -43 19 -60 -15 -8 -16 -19 -22 -34 -20 -14 2 -25 -3 -29 -13 -3 -10 -17
-29 -30 -43 l-24 -27 -32 19 c-44 26 -95 37 -102 22 -3 -8 -7 -7 -11 2 -7 14
-54 16 -54 2 0 -5 -6 -10 -14 -10 -17 0 -28 -24 -20 -45 4 -10 0 -16 -12 -16
-11 -1 -26 -3 -34 -4 -8 -1 -21 -3 -27 -4 -18 -2 -16 -28 2 -34 8 -4 23 -4 35
-2 14 3 20 -1 20 -14 0 -10 6 -24 14 -30 11 -9 12 -6 8 14 -6 34 2 31 34 -10
27 -36 42 -109 24 -120 -17 -10 -12 -48 5 -42 8 4 17 2 20 -3 9 -14 75 -12 75
1 0 8 4 8 15 -1 8 -6 18 -9 23 -6 6 3 13 -5 16 -18 7 -28 36 -42 48 -24 6 9 8
1 5 -20 -2 -22 1 -37 12 -45 20 -15 44 -57 33 -57 -4 0 -18 7 -31 16 -17 12
-28 14 -45 6 -25 -11 -49 -1 -79 32 -10 12 -16 15 -12 9 3 -7 1 -13 -5 -13 -7
0 -7 -7 2 -22 7 -13 11 -26 10 -30 -1 -4 3 -20 9 -35 9 -25 12 -26 20 -10 13
23 42 22 64 -3 18 -20 18 -20 -12 -14 -18 3 -33 1 -37 -5 -4 -6 0 -11 8 -11 9
0 16 -6 16 -12 0 -7 11 -23 24 -35 39 -37 39 -59 0 -82 -19 -11 -42 -36 -51
-56 -9 -19 -20 -35 -25 -35 -4 0 -5 -6 -2 -14 3 -9 -3 -17 -15 -21 -25 -7 -26
-18 -7 -38 9 -9 11 -19 5 -28 -5 -8 -9 -29 -9 -48 0 -22 -4 -32 -12 -28 -17 6
-50 -6 -48 -18 0 -6 -15 -12 -35 -15 l-35 -5 20 -37 c11 -21 16 -38 10 -38 -5
0 -12 -11 -16 -25 -3 -14 -10 -25 -14 -25 -5 0 -6 -8 -3 -19 3 -14 -5 -22 -37
-35 -23 -9 -45 -14 -51 -11 -5 3 -23 0 -41 -8 -18 -8 -41 -17 -50 -21 -11 -3
-18 -15 -18 -31 0 -27 -20 -55 -39 -55 -6 0 -14 -12 -17 -27 -4 -16 -12 -35
-19 -43 -7 -8 -15 -24 -17 -35 -2 -11 -12 -24 -23 -30 -13 -6 -19 -18 -17 -33
3 -18 8 -21 28 -16 21 5 24 3 24 -23 0 -24 -6 -30 -32 -38 -19 -6 -38 -21 -45
-35 -7 -14 -17 -25 -22 -25 -15 0 -23 -13 -16 -25 6 -9 10 -9 16 1 6 10 11 6
19 -17 8 -23 25 -38 65 -58 31 -16 52 -33 49 -40 -3 -8 10 -13 41 -15 40 -2
62 12 34 21 -14 5 0 38 17 38 19 0 18 10 -3 27 -16 13 -13 13 29 8 39 -5 52
-2 77 16 16 12 35 35 42 50 6 16 15 29 20 29 4 0 11 9 14 20 5 14 12 19 25 15
13 -4 19 1 25 22 5 21 8 24 16 12 12 -20 11 -89 -2 -89 -6 0 -8 -7 -5 -16 3
-8 1 -24 -4 -35 -10 -17 -13 -18 -34 -4 -19 13 -25 13 -34 2 -7 -8 -30 -20
-52 -27 -34 -11 -39 -16 -34 -37 4 -14 2 -23 -5 -23 -6 0 -11 -4 -11 -10 0 -5
12 -10 26 -10 14 0 23 4 19 10 -3 6 -2 10 4 10 6 0 13 -11 17 -24 6 -25 50
-42 57 -23 2 6 16 2 34 -11 17 -12 36 -22 41 -22 6 0 24 -8 41 -17 21 -12 29
-23 25 -35 -2 -9 0 -19 6 -23 6 -4 9 -13 6 -21 -3 -8 1 -14 9 -14 7 0 17 -9
20 -20 3 -11 15 -20 26 -20 10 0 36 -18 58 -40 32 -33 39 -48 44 -92 2 -29 2
-54 -2 -56 -4 -1 -5 -16 -3 -33 3 -20 0 -34 -9 -40 -12 -7 -12 -12 0 -30 11
-19 11 -24 0 -33 -8 -6 -19 -26 -26 -44 -11 -32 -10 -35 26 -71 49 -49 56 -75
24 -92 -13 -7 -22 -20 -21 -29 2 -9 -5 -28 -14 -42 -15 -22 -15 -28 -3 -38 8
-6 11 -19 7 -28 -12 -33 -63 -96 -92 -113 -16 -10 -36 -32 -45 -49 -8 -16 -19
-30 -24 -30 -17 0 -5 -60 15 -75 18 -14 18 -14 0 -15 -14 0 -17 -6 -13 -25 3
-18 -1 -29 -14 -35 -29 -16 -35 -12 -58 43 -15 34 -34 60 -56 74 -19 13 -37
34 -41 48 -3 14 -11 22 -17 18 -6 -4 -8 0 -4 10 11 30 -2 45 -38 43 -30 -1
-34 1 -29 20 3 12 -1 26 -10 33 -14 12 -16 10 -16 -7 0 -13 -9 -22 -25 -26
-14 -4 -25 -11 -25 -17 0 -6 6 -9 13 -6 17 5 36 -23 37 -55 0 -16 8 -31 19
-37 10 -6 24 -25 31 -43 8 -18 19 -40 26 -48 42 -49 58 -61 85 -67 18 -3 37
-17 46 -32 21 -33 84 -90 101 -91 9 0 8 7 -4 25 -16 24 -16 25 9 25 17 0 32
-11 51 -40 14 -22 26 -41 26 -44 0 -10 -40 -12 -49 -3 -8 8 -11 0 -11 -30 0
-52 22 -74 38 -37 7 14 12 31 12 39 0 21 39 29 58 12 27 -23 50 -27 62 -11 14
16 46 19 55 4 7 -11 33 -3 56 17 33 28 96 -2 74 -36 -3 -5 5 -20 18 -34 24
-23 25 -23 47 -5 28 23 61 9 58 -26 -2 -27 40 -85 64 -85 11 -1 18 -13 23 -41
4 -22 15 -50 26 -64 10 -13 19 -29 19 -35 0 -6 7 -11 14 -11 8 0 33 -25 54
-55 22 -30 42 -52 45 -49 7 7 32 -38 29 -50 -5 -15 21 -26 35 -14 9 7 13 7 13
-2 0 -7 8 -10 20 -7 11 3 20 2 20 -3 0 -20 33 -19 50 2 l17 22 12 -22 c7 -14
17 -20 24 -15 7 4 21 6 32 5 13 -2 24 6 30 20 7 17 20 24 48 26 33 3 38 6 34
23 -6 24 1 24 27 1 26 -22 81 -41 135 -47 61 -6 81 -14 81 -34 0 -10 12 -24
28 -32 15 -7 35 -21 45 -31 15 -15 21 -16 39 -5 19 11 32 4 29 -18 -1 -3 8
-14 19 -25 22 -22 50 -27 50 -7 1 7 6 4 15 -7 8 -11 19 -15 27 -10 7 4 10 4 6
-1 -9 -10 21 -34 43 -35 9 0 21 -11 27 -25 16 -35 15 -37 -10 -24 -19 10 -20
9 -13 -7 23 -55 18 -86 -25 -154 -9 -14 -16 -32 -16 -40 1 -17 36 -27 36 -11
0 6 9 11 20 11 11 0 20 7 20 16 0 14 2 14 22 0 16 -11 26 -12 41 -4 16 8 22 7
29 -6 5 -9 15 -16 22 -16 7 0 29 -18 49 -40 35 -40 57 -51 57 -29 0 8 8 6 22
-3 18 -12 27 -12 61 -1 22 8 53 11 68 8 21 -5 29 -3 29 7 0 26 63 68 103 68
14 0 31 9 40 23 15 22 15 22 16 -13 2 -68 5 -80 15 -70 15 15 30 12 17 -4 -9
-10 -7 -17 6 -27 16 -13 17 -12 5 3 -12 15 -9 18 23 24 26 5 41 2 54 -10 12
-11 41 -18 80 -20 71 -5 129 -36 160 -87 19 -31 19 -31 31 -10 6 12 15 19 20
16 5 -3 13 2 18 11 8 15 12 15 38 1 25 -13 32 -25 43 -79 12 -56 14 -60 23
-38 12 33 15 35 32 21 12 -10 19 -9 36 7 22 21 87 34 96 20 8 -13 21 -9 21 7
0 8 -4 15 -9 15 -4 0 -3 9 4 20 7 11 19 18 25 15 8 -3 13 4 13 17 0 17 3 19
12 10 17 -17 63 -15 78 3 9 11 17 12 23 6 14 -14 88 25 94 49 6 23 97 57 116
43 7 -5 21 -9 32 -8 11 0 29 -3 40 -6 17 -6 21 -2 23 16 1 17 -6 26 -27 33
-16 6 -32 7 -36 4 -3 -4 -3 2 1 13 4 11 16 27 27 36 18 15 18 19 6 53 -13 36
-13 36 -59 30 -42 -5 -47 -3 -79 30 -25 26 -32 39 -25 53 10 22 12 93 2 93 -4
0 -8 12 -10 27 -2 20 -10 29 -33 35 -20 5 -35 19 -45 40 -13 28 -21 33 -50 34
-73 1 -129 33 -144 81 -7 22 -46 42 -101 52 -22 5 -37 18 -60 57 -40 69 -114
159 -131 159 -7 0 -31 17 -52 38 -21 20 -47 37 -57 37 -11 1 -31 7 -43 14
l-24 13 27 17 c15 10 33 15 40 12 17 -6 28 34 13 51 -6 7 -7 13 -2 13 4 0 3 5
-4 12 -16 16 -15 31 1 22 9 -6 9 -5 0 7 -10 13 -7 21 17 47 16 18 34 32 39 32
6 0 11 11 11 25 0 15 12 35 29 51 27 23 28 29 19 57 -9 23 -8 32 0 35 9 3 9 9
1 24 -6 11 -9 28 -6 39 3 12 -6 26 -28 43 -36 28 -39 48 -10 69 10 8 15 19 11
25 -3 6 2 17 11 24 13 9 18 28 19 64 1 28 7 61 14 73 9 17 9 26 0 37 -7 7 -10
23 -7 34 3 11 1 22 -3 25 -5 3 -11 -8 -15 -24 -3 -16 -13 -32 -20 -35 -11 -4
-12 -11 -5 -30 12 -31 -5 -45 -20 -16 -6 11 -18 20 -27 20 -13 0 -14 3 -5 12
16 16 15 28 -2 28 -8 0 -16 8 -18 17 -3 15 -17 18 -94 19 -67 1 -97 5 -117 18
-14 10 -31 15 -36 11 -6 -3 -23 12 -38 34 -16 21 -47 48 -71 60 -23 12 -45 28
-49 37 -3 8 -22 26 -42 39 -21 15 -29 25 -19 25 9 0 19 7 22 17 6 14 9 14 26
-5 11 -12 20 -30 20 -42 0 -11 7 -20 16 -20 8 0 40 -12 70 -27 l54 -26 26 24
c17 16 27 20 32 12 5 -7 13 -9 21 -4 11 7 11 10 0 17 -10 6 -7 10 11 14 23 6
25 10 22 61 -2 29 -8 62 -13 71 -7 14 -6 18 6 18 18 0 19 12 3 28 -9 9 -6 12
15 12 17 0 30 7 34 18 4 9 20 31 35 47 15 17 28 39 28 50 1 14 5 11 15 -13 8
-18 21 -35 29 -38 8 -3 18 -14 21 -23 3 -10 16 -24 30 -31 20 -11 27 -11 40 0
16 14 16 40 0 52 -5 4 7 8 28 8 24 0 40 5 43 15 4 8 12 15 19 15 10 0 12 10 8
34 -4 25 1 45 21 79 15 25 34 48 42 51 10 4 13 13 8 31 -3 14 -2 25 2 24 5 -1
19 -1 32 0 19 1 22 5 17 22 -5 15 -4 19 4 14 7 -4 23 -4 36 -1 17 4 22 11 18
26 -3 11 2 31 11 45 14 21 20 24 37 14 16 -8 23 -7 32 4 7 8 37 17 67 21 48 5
64 2 117 -23 34 -16 64 -27 67 -24 7 7 114 -15 140 -29 12 -6 22 -6 29 1 13
13 28 15 25 4 0 -5 1 -15 5 -23 3 -8 8 -22 11 -30 3 -8 3 6 0 32 -5 40 -1 55
27 108 18 34 45 68 61 78 15 9 28 23 28 32 0 9 9 23 19 32 13 11 18 25 15 42
-4 22 -1 26 21 26 14 0 25 5 25 11 0 8 5 7 16 -2 9 -7 42 -14 74 -14 44 -1 66
-7 93 -25 20 -13 35 -27 35 -30 0 -3 3 -15 7 -27 9 -29 92 -38 101 -11 9 28
66 24 92 -7 26 -30 67 -42 87 -25 12 10 15 9 15 -4 0 -11 9 -16 30 -16 21 0
30 5 30 16 0 9 14 36 32 60 30 42 33 43 70 37 34 -5 40 -3 45 15 3 11 17 25
32 30 14 5 41 23 60 41 23 22 40 30 53 25 10 -3 26 0 34 6 8 8 27 10 45 6 19
-3 38 -1 45 5 18 15 18 116 0 148 -15 28 -9 71 10 71 8 0 14 4 14 8 0 5 11 14
25 20 14 6 25 18 25 27 0 8 4 15 9 15 12 0 6 77 -7 93 -11 12 -9 47 4 90 3 10
17 22 31 28 14 5 27 18 30 29 3 11 13 20 22 20 9 0 23 15 32 33 11 23 26 35
55 43 37 11 39 13 36 46 -1 22 3 40 13 48 8 7 15 23 15 36 0 13 9 29 20 36 12
8 20 24 20 40 0 23 5 28 38 34 42 7 102 58 102 86 0 14 5 17 23 13 37 -9 52 8
38 45 -21 61 -15 98 20 119 17 10 40 16 51 13 18 -4 20 -2 15 17 -3 12 1 34 9
49 17 33 18 68 2 76 -7 4 8 4 35 1 27 -3 47 0 47 5 0 5 11 12 25 16 18 4 28
18 40 54 l16 49 32 -11 c18 -6 36 -15 42 -19 20 -19 32 -9 29 23 -5 41 11 58
55 58 39 0 66 26 66 65 0 13 8 21 23 23 19 3 22 9 22 48 0 25 4 43 8 40 4 -2
13 4 20 15 9 15 9 19 0 19 -6 0 0 13 15 28 15 15 27 32 27 38 0 5 -5 2 -10 -6
-8 -13 -10 -12 -10 3 0 9 6 17 13 17 17 0 67 -55 67 -74 0 -23 21 -20 27 4 3
11 16 23 30 26 13 4 37 26 54 50 16 24 35 44 41 44 6 0 4 8 -5 18 -23 25 -21
53 3 59 23 6 23 5 9 37 -7 14 -21 26 -33 28 -11 2 -21 8 -21 13 -2 40 -59 81
-76 54 -6 -11 -11 -11 -21 -1 -6 6 -19 12 -29 12 -9 0 -27 9 -40 19 -14 10
-33 20 -44 22 -24 4 -59 -20 -63 -43 -4 -27 27 -81 44 -74 17 6 36 -27 28 -48
-3 -9 -12 -16 -20 -16 -8 0 -14 -9 -14 -20 0 -14 -7 -20 -24 -20 -13 0 -26 5
-28 12 -4 11 -31 18 -72 19 -10 0 -26 10 -36 22 -13 16 -30 22 -71 24 -30 1
-71 5 -92 9 -37 6 -38 5 -28 -14 9 -17 7 -19 -15 -19 -15 0 -29 -6 -33 -12 -4
-6 -15 -9 -24 -5 -10 3 -17 1 -17 -5 0 -6 -13 -11 -30 -11 -16 0 -30 -4 -30
-10 0 -5 -12 -13 -27 -16 -16 -4 -42 -15 -60 -26 -38 -22 -68 -13 -83 28 -12
30 -50 34 -50 4 0 -27 -44 -38 -65 -16 -22 21 -28 20 -20 -4 3 -10 1 -28 -5
-40 -9 -17 -14 -18 -32 -9 -18 9 -24 8 -35 -7 -10 -14 -16 -15 -25 -6 -7 7
-15 12 -19 12 -7 0 11 -75 26 -112 5 -13 2 -18 -9 -18 -19 0 -20 -5 -5 -32 14
-26 -3 -45 -21 -23 -11 14 -14 14 -24 -1 -11 -15 -14 -15 -29 1 -14 13 -21 14
-32 5 -18 -15 -55 -4 -55 16 0 8 -11 25 -24 38 -19 17 -33 21 -61 18 -36 -4
-36 -5 -31 -45 3 -22 11 -46 17 -53 6 -8 8 -14 3 -14 -5 -1 1 -9 12 -18 31
-26 39 -60 19 -82 -15 -17 -15 -19 4 -25 21 -6 30 -45 11 -45 -5 0 -7 -7 -4
-15 4 -8 11 -15 18 -15 16 0 47 38 49 60 1 10 10 21 21 24 25 6 26 6 28 -30 1
-16 6 -35 12 -42 7 -10 5 -17 -7 -24 -10 -5 -15 -13 -12 -18 3 -5 -8 -11 -25
-15 -34 -8 -34 -6 -18 -39 9 -21 8 -29 -4 -43 -12 -14 -12 -22 -3 -40 9 -17
14 -20 23 -11 9 9 18 4 39 -18 15 -16 28 -33 28 -37 0 -4 6 -12 14 -16 9 -6
10 -14 5 -22 -5 -8 -9 -41 -9 -73 0 -52 -3 -61 -21 -65 -28 -8 -87 -59 -80
-70 3 -5 -5 -25 -19 -45 -14 -20 -25 -41 -25 -47 0 -6 -4 -8 -9 -5 -4 3 -6 -6
-3 -19 6 -33 -12 -32 -61 0 -37 25 -37 25 -37 4 0 -15 -4 -19 -16 -15 -8 3
-26 3 -39 0 -20 -5 -23 -11 -19 -32 5 -27 -5 -37 -57 -57 -8 -4 -19 -20 -25
-37 -7 -24 -19 -34 -56 -48 -33 -13 -48 -14 -52 -6 -3 8 -5 7 -5 -1 -1 -7 8
-17 20 -24 14 -7 19 -17 16 -30 -3 -10 -2 -17 3 -14 4 2 15 -11 25 -29 18 -32
18 -33 -6 -67 -13 -19 -25 -36 -26 -38 -2 -2 -12 4 -22 13 -13 12 -27 15 -41
11 -16 -5 -26 -1 -37 15 -11 16 -22 20 -39 16 -17 -5 -26 -2 -30 9 -5 13 -9
13 -34 0 -16 -8 -38 -15 -49 -15 -11 0 -32 -12 -46 -26 -14 -14 -32 -23 -40
-20 -9 3 -15 -1 -15 -9 0 -9 -9 -23 -19 -32 -11 -9 -18 -20 -15 -25 3 -4 1 -8
-5 -8 -5 0 -12 -13 -16 -28 -7 -34 -119 -150 -152 -158 -13 -4 -23 -12 -23
-19 0 -12 -35 -23 -90 -29 -36 -3 -74 -17 -82 -30 -5 -7 -8 -6 -8 4 0 12 -2
13 -9 1 -7 -11 -13 -10 -32 8 -20 18 -21 23 -9 31 12 8 12 10 -2 15 -9 4 -15
12 -12 18 5 16 -7 35 -26 39 -8 2 -20 12 -27 23 -12 19 -12 18 -13 -8 0 -27
-2 -28 -32 -21 -18 4 -46 8 -63 9 -16 1 -40 7 -52 14 -20 10 -21 14 -11 31 10
15 10 22 0 32 -17 17 -15 28 4 28 16 0 16 21 -3 97 -3 15 1 23 16 28 17 5 21
15 21 52 0 42 -2 45 -22 40 -12 -4 -27 -2 -33 3 -7 6 -26 5 -51 -1 -31 -9 -48
-8 -86 6 -27 9 -55 14 -64 11 -18 -7 -114 39 -114 55 0 5 -4 7 -10 4 -5 -3
-10 -15 -10 -27 0 -14 -5 -18 -15 -14 -8 3 -15 1 -15 -4 0 -6 -12 -10 -27 -10
-31 -1 -63 -21 -63 -39 0 -15 -9 -14 -42 3 -23 12 -27 12 -32 0 -15 -39 -109
13 -120 66 -3 20 -12 30 -23 30 -10 0 -34 13 -53 29 -19 16 -46 38 -60 49 -22
18 -23 23 -12 41 7 12 8 21 3 21 -6 0 -13 -4 -16 -10 -10 -17 -21 -11 -34 16
-11 25 -13 26 -30 10 -17 -16 -21 -16 -55 0 -32 16 -37 16 -53 2 -29 -25 -54
-29 -89 -16 -33 12 -35 11 -78 -31 -36 -36 -52 -44 -86 -45 -22 -1 -43 1 -46
6 -3 4 -14 8 -25 8 -10 0 -19 5 -19 10 0 6 8 10 18 10 18 0 42 41 42 73 0 10
5 15 10 12 6 -3 10 1 10 10 0 8 -11 21 -25 27 -34 15 -32 28 5 28 25 0 31 5
41 38 10 30 21 42 64 63 39 20 56 24 64 16 8 -8 11 -7 11 3 0 8 12 23 26 34
22 16 33 17 77 8 57 -11 77 -7 77 16 0 14 1 14 13 -1 11 -15 15 -14 54 4 39
18 42 21 33 45 -13 33 -13 34 4 28 8 -3 16 -15 19 -26 3 -11 10 -17 16 -13 6
3 9 11 6 16 -11 17 5 30 25 19 16 -9 19 -6 22 22 2 24 8 34 24 36 16 2 20 9
16 31 -2 16 1 32 7 35 6 4 11 15 11 25 0 10 9 28 20 41 11 13 20 27 20 32 0 5
10 4 22 -3 18 -10 20 -9 15 5 -5 12 0 16 22 16 25 0 30 5 41 48 7 26 18 53 23
60 8 10 5 14 -11 18 -11 4 -33 23 -47 45 -15 21 -36 41 -46 44 -10 3 -21 15
-24 25 -3 10 -21 24 -40 30 -24 8 -32 16 -28 26 3 9 -5 27 -19 42 -40 43 -59
77 -58 108 2 80 -8 203 -19 237 -10 29 -10 41 -1 52 9 10 8 19 -1 36 -10 20
-9 25 13 43 32 27 50 60 38 72 -5 5 -11 35 -12 65 -3 43 0 55 9 52 22 -9 14
14 -10 30 -23 15 -24 15 -26 -21 -2 -20 -3 -45 -2 -55 0 -15 -3 -16 -15 -6
-11 9 -20 10 -32 2 -9 -5 -56 -9 -104 -9 -81 1 -88 -1 -97 -21 -6 -13 -19 -24
-28 -25 -44 -4 -58 -4 -63 2 -3 3 -16 14 -30 23 -13 9 -29 34 -35 55 -9 29
-15 37 -33 36 -25 -2 -29 18 -7 36 25 21 3 32 -66 35 -50 2 -67 7 -80 24 -27
33 -38 28 -39 -21 -1 -7 2 -25 6 -40 7 -29 0 -33 -53 -28 -17 1 -21 -3 -17
-14 3 -9 1 -16 -5 -16 -6 0 -11 5 -11 11 0 13 -63 4 -90 -14 -31 -19 -63 5
-98 73 -30 58 -43 130 -24 130 5 0 17 -7 28 -15 25 -19 34 -19 34 1 0 11 5 14
16 10 10 -4 14 -1 12 6 -5 15 -58 30 -58 17 0 -6 -8 -6 -19 1 -27 14 -31 13
-31 -10z m4310 -596 c0 -8 -5 -12 -10 -9 -6 4 -8 11 -5 16 9 14 15 11 15 -7z
m-5837 -711 c-5 -12 -7 -12 -14 -1 -13 20 -11 28 5 22 8 -3 12 -12 9 -21z
m4694 -468 c0 -8 -6 -15 -14 -15 -7 0 -13 9 -13 20 0 12 5 17 13 14 8 -3 14
-11 14 -19z m-2315 -97 c-10 -10 -15 -10 -22 2 -6 9 -5 17 3 22 18 11 33 -10
19 -24z m-451 -18 c-9 -5 -8 -10 4 -20 8 -7 15 -18 15 -25 0 -7 11 -20 25 -29
28 -19 54 -94 35 -106 -6 -4 -8 -14 -4 -24 4 -11 0 -22 -11 -30 -11 -8 -16
-20 -12 -30 5 -12 1 -16 -15 -16 -11 0 -27 -8 -34 -17 -12 -16 -13 -16 -14 -2
0 9 -11 22 -25 29 -21 11 -29 11 -49 0 -20 -10 -28 -10 -47 4 -13 9 -19 16
-14 16 13 0 -28 29 -41 30 -7 0 -26 -13 -43 -29 -26 -24 -30 -34 -25 -60 5
-25 4 -30 -9 -26 -9 4 -22 -5 -36 -23 -22 -32 -27 -52 -12 -52 19 0 72 -63 66
-78 -3 -8 0 -19 7 -23 8 -5 9 -11 1 -21 -8 -10 -7 -23 7 -50 19 -39 16 -48
-24 -62 -12 -4 -16 -12 -11 -24 3 -9 11 -36 18 -59 9 -37 9 -45 -7 -62 -11
-12 -16 -27 -12 -37 4 -10 1 -21 -5 -25 -8 -4 -13 -32 -13 -68 -1 -52 2 -61
17 -61 9 0 17 -4 17 -10 0 -19 3 -25 18 -36 12 -9 12 -12 0 -25 -8 -8 -13 -20
-10 -28 3 -10 -1 -12 -17 -8 -11 3 -24 1 -27 -5 -3 -5 -14 -2 -25 8 -18 16
-19 16 -19 -9 0 -14 -5 -27 -12 -29 -20 -7 -18 -67 2 -78 12 -6 16 -17 13 -35
-3 -14 -9 -25 -14 -25 -5 0 -9 -9 -9 -20 0 -11 -11 -27 -24 -36 -21 -13 -23
-20 -16 -40 10 -24 9 -25 -32 -28 -9 -1 -12 10 -10 33 2 21 -1 37 -10 42 -20
13 -28 11 -28 -10 0 -11 -10 -27 -22 -35 -20 -14 -24 -14 -40 1 -12 10 -18 12
-18 4 0 -7 -5 -9 -11 -5 -6 3 -9 14 -6 24 2 10 -6 31 -19 46 -29 36 -31 58 -4
49 18 -6 20 -2 20 39 0 37 -5 49 -24 61 -13 8 -31 33 -41 55 -17 38 -17 41 -2
53 16 11 15 15 -5 47 -12 19 -22 39 -23 43 0 4 -6 11 -14 16 -10 7 -11 13 -1
31 10 18 8 29 -11 64 l-22 43 22 46 c12 26 20 51 17 56 -7 10 42 46 64 46 11
0 14 9 12 33 -3 26 0 32 16 32 20 0 42 37 42 70 0 28 11 50 25 50 8 0 11 8 8
20 -3 11 0 20 6 20 5 0 8 7 5 15 -4 9 3 16 20 21 19 4 26 13 26 30 0 17 6 24
20 24 14 0 20 7 20 21 0 15 5 19 19 14 24 -7 45 18 38 51 -3 18 1 29 14 37 11
7 19 17 19 23 0 6 7 17 15 24 8 7 15 21 15 31 0 19 33 35 51 23 7 -4 9 0 5 14
-6 18 -2 21 26 24 26 2 34 8 36 27 4 22 6 23 58 17 44 -5 56 -3 61 9 3 9 12
14 19 11 7 -3 16 -1 19 5 4 5 11 6 17 3 7 -4 6 -9 -1 -14z m526 -2 c4 -7 7
-26 8 -42 0 -18 7 -33 20 -40 29 -17 44 -39 36 -55 -5 -7 -6 -33 -3 -57 l5
-44 -47 0 c-25 0 -46 5 -46 10 0 6 5 10 10 10 6 0 15 11 20 25 5 14 14 25 20
25 17 0 -12 38 -33 44 -10 2 -16 9 -13 15 4 5 -5 21 -19 35 -14 14 -25 33 -25
42 0 10 3 14 7 11 3 -4 12 2 20 13 16 23 29 25 40 8z m-1 -325 c-11 -11 -17 4
-9 23 7 18 8 18 11 1 2 -10 1 -21 -2 -24z m2094 -27 c0 -19 -4 -23 -20 -19
-22 6 -22 6 -14 27 10 25 34 19 34 -8z m-4158 -254 c-8 -2 -8 -11 -1 -30 6
-15 7 -23 3 -19 -4 4 -16 0 -26 -10 -10 -9 -21 -13 -25 -10 -3 4 -1 7 6 7 8 0
10 7 6 20 -4 11 -2 20 4 20 6 0 11 9 11 20 0 14 5 18 17 13 10 -4 12 -8 5 -11z
m2956 -63 c15 2 32 -8 51 -28 16 -17 34 -31 39 -31 18 0 22 -33 9 -70 -9 -26
-17 -34 -30 -32 -16 3 -17 1 -8 -15 5 -11 17 -25 25 -33 9 -7 16 -17 16 -23 0
-6 7 -19 17 -29 30 -33 -19 -22 -52 12 -15 16 -31 29 -34 28 -22 -2 -32 4 -30
20 4 27 -10 60 -35 79 -13 10 -28 28 -34 40 -12 22 -7 53 9 53 5 0 9 9 9 21 0
14 4 18 13 12 6 -4 22 -6 35 -4z m-3142 -126 c-4 -10 2 -24 14 -35 25 -24 21
-43 -9 -42 -11 0 -21 -3 -21 -8 0 -4 -4 -8 -9 -8 -5 0 -9 20 -9 45 0 32 4 45
14 45 8 0 14 5 14 10 0 6 3 10 6 10 3 0 3 -7 0 -17z m-236 -2 c0 -20 -13 -41
-25 -41 -10 0 -11 5 -2 25 12 25 27 34 27 16z m1520 -606 c7 -9 8 -15 2 -15
-5 0 -12 7 -16 15 -3 8 -4 15 -2 15 2 0 9 -7 16 -15z m120 -55 c0 -5 -7 -10
-15 -10 -8 0 -15 5 -15 10 0 6 7 10 15 10 8 0 15 -4 15 -10z m-42 -43 c-7 -14
-13 -17 -16 -9 -6 19 6 44 18 37 7 -4 6 -14 -2 -28z m745 -482 c9 -4 17 -11
17 -16 0 -15 -34 -9 -60 11 l-25 19 25 -3 c14 -2 33 -7 43 -11z m-33 -65 c0
-5 -7 -7 -15 -4 -8 4 -15 8 -15 10 0 2 7 4 15 4 8 0 15 -4 15 -10z m154 -115
c-4 -8 -10 -12 -15 -9 -11 6 -2 24 11 24 5 0 7 -7 4 -15z m-316 -11 c8 -14
165 -25 183 -13 18 11 39 0 39 -20 0 -10 11 -23 24 -31 25 -13 26 -18 28 -77
1 -28 12 -42 38 -47 17 -4 27 -19 23 -34 -3 -13 4 -22 24 -31 16 -8 23 -16 16
-18 -7 -3 -13 -16 -13 -29 0 -14 -4 -23 -9 -20 -5 4 -16 4 -24 0 -17 -6 -12
-40 11 -66 14 -16 13 -18 -5 -18 -11 0 -26 6 -32 14 -11 13 -70 14 -103 1 -12
-5 -20 -2 -24 9 -3 9 -14 16 -24 16 -10 0 -24 7 -31 16 -7 9 -24 20 -37 25
-13 5 -26 18 -29 29 -3 11 -20 28 -39 39 -19 11 -34 26 -34 33 0 7 -12 24 -25
37 -26 24 -33 43 -14 39 6 -2 14 3 17 11 3 10 0 12 -11 8 -19 -7 -56 19 -42
30 28 22 36 42 25 62 -8 16 -8 24 2 35 15 16 56 16 66 0z m-1133 -355 c11 -17
-1 -21 -15 -4 -8 9 -8 15 -2 15 6 0 14 -5 17 -11z"/>
<path d="M10680 12846 c0 -8 5 -18 10 -21 6 -3 10 1 10 9 0 8 -4 18 -10 21 -5
3 -10 -1 -10 -9z"/>
<path d="M14197 12433 c-3 -5 -2 -15 2 -22 5 -7 11 -9 14 -4 3 5 2 15 -2 22
-5 7 -11 9 -14 4z"/>
<path d="M12946 12365 c4 -8 11 -15 16 -15 6 0 5 6 -2 15 -7 8 -14 15 -16 15
-2 0 -1 -7 2 -15z"/>
<path d="M14225 12343 c4 -21 12 -54 17 -73 6 -19 12 -41 14 -47 5 -20 28 -15
43 9 13 21 11 25 -23 54 -24 21 -36 40 -36 57 0 14 -5 29 -11 32 -7 5 -8 -5
-4 -32z"/>
<path d="M9390 12297 c0 -19 16 -31 24 -18 3 5 -1 14 -9 21 -12 10 -15 10 -15
-3z"/>
<path d="M9337 12253 c-3 -10 -14 -31 -24 -46 -18 -28 -17 -29 2 -43 18 -13
21 -13 33 3 13 18 16 19 47 22 12 1 13 6 3 29 -12 27 -35 52 -49 52 -4 0 -9
-8 -12 -17z"/>
<path d="M14276 12181 c-3 -5 1 -11 9 -14 9 -4 12 -1 8 9 -6 16 -10 17 -17 5z"/>
<path d="M14330 12149 c0 -11 7 -33 16 -48 13 -22 21 -26 50 -23 28 4 34 1 34
-15 0 -25 33 -27 48 -2 10 15 9 23 0 39 -7 11 -18 20 -24 20 -6 0 -18 9 -25
20 -9 14 -29 22 -56 26 -39 4 -43 3 -43 -17z m135 -49 c3 -5 2 -10 -4 -10 -5
0 -13 5 -16 10 -3 6 -2 10 4 10 5 0 13 -4 16 -10z"/>
<path d="M9306 12123 c-4 -8 4 -17 20 -23 32 -13 29 -13 31 9 2 23 -43 36 -51
14z"/>
<path d="M10870 12046 c0 -9 5 -16 10 -16 6 0 10 4 10 9 0 6 -4 13 -10 16 -5
3 -10 -1 -10 -9z"/>
<path d="M10960 11960 c0 -5 5 -10 11 -10 5 0 7 5 4 10 -3 6 -8 10 -11 10 -2
0 -4 -4 -4 -10z"/>
<path d="M11020 11949 c0 -15 -58 -37 -69 -26 -7 7 -9 -1 -8 -24 3 -40 11 -55
39 -70 17 -9 20 -9 15 3 -3 8 -1 21 4 29 7 11 11 10 23 -6 14 -20 15 -20 29
-1 11 15 15 61 8 96 -2 8 -41 7 -41 -1z"/>
<path d="M7740 11870 c0 -5 7 -10 15 -10 8 0 15 5 15 10 0 6 -7 10 -15 10 -8
0 -15 -4 -15 -10z"/>
<path d="M7789 11853 c-1 -10 0 -22 1 -28 1 -5 2 -22 2 -37 0 -16 5 -28 11
-28 7 0 6 -4 -3 -10 -13 -8 -12 -11 4 -23 29 -21 60 -14 64 14 3 19 1 22 -9
12 -15 -15 -39 -17 -39 -3 0 5 7 7 15 4 8 -4 15 -1 15 5 0 6 -6 11 -14 11 -22
0 -32 41 -12 52 9 5 16 18 16 28 0 27 -49 29 -51 3z"/>
<path d="M9402 11846 c31 -30 38 -32 38 -11 0 8 -3 14 -7 13 -5 -1 -19 4 -33
11 -25 13 -25 13 2 -13z"/>
<path d="M11822 11645 c-7 -8 -25 -15 -40 -15 -15 0 -33 -4 -41 -9 -11 -7 -9
-10 7 -15 21 -7 92 28 92 45 0 12 -3 11 -18 -6z"/>
<path d="M7978 11637 c8 -9 11 -21 7 -27 -4 -6 -8 -25 -9 -41 -1 -17 -8 -34
-16 -39 -7 -4 -10 -15 -7 -24 11 -29 44 -2 49 41 3 21 3 42 -1 48 -3 5 -5 19
-6 29 0 11 -7 21 -15 24 -13 4 -13 3 -2 -11z"/>
<path d="M10740 11640 c0 -5 7 -10 16 -10 8 0 12 5 9 10 -3 6 -10 10 -16 10
-5 0 -9 -4 -9 -10z"/>
<path d="M10784 11620 c4 -14 8 -32 9 -40 1 -8 9 -20 17 -27 8 -6 15 -21 15
-32 0 -11 5 -21 10 -21 6 -1 16 -12 23 -26 7 -13 17 -22 22 -19 11 7 51 -26
44 -37 -3 -4 -1 -8 4 -8 6 0 13 12 16 26 5 20 2 30 -14 41 -24 17 -26 33 -5
33 19 0 19 4 -1 41 -12 24 -13 34 -4 45 10 11 9 15 -5 20 -9 4 -21 2 -28 -5
-18 -18 -59 -13 -85 12 l-25 22 7 -25z"/>
<path d="M11711 11604 c0 -11 3 -14 6 -6 3 7 2 16 -1 19 -3 4 -6 -2 -5 -13z"/>
<path d="M11649 11576 c10 -12 6 -13 -26 -9 -32 4 -45 0 -70 -21 -17 -14 -41
-26 -53 -26 -12 0 -31 -5 -43 -12 -12 -6 -40 -11 -62 -9 -38 2 -41 -1 -75 -53
-20 -32 -49 -62 -67 -71 -18 -9 -32 -19 -30 -23 4 -14 -32 -54 -43 -47 -8 5
-11 0 -8 -16 2 -20 10 -25 40 -27 29 -3 38 1 43 17 8 25 36 35 77 26 30 -7 31
-7 25 24 -6 29 -5 31 18 27 28 -5 55 16 55 42 0 19 147 122 173 122 9 0 17 7
17 16 0 10 8 15 23 14 39 -4 57 0 57 10 0 5 -7 7 -15 4 -8 -4 -15 -2 -15 4 0
5 -7 13 -16 16 -14 5 -15 4 -5 -8z"/>
<path d="M7996 11501 c-6 -10 22 -37 29 -29 8 7 -5 38 -15 38 -5 0 -11 -4 -14
-9z"/>
<path d="M8143 11483 c-18 -6 -16 -43 2 -43 8 0 15 -4 15 -10 0 -5 5 -10 10
-10 6 0 10 13 10 29 0 29 -14 42 -37 34z"/>
<path d="M8051 11447 c2 -1 11 -8 20 -15 14 -10 18 -10 23 3 4 11 -1 15 -21
15 -14 0 -24 -1 -22 -3z"/>
<path d="M10906 11384 c-5 -13 -9 -14 -21 -4 -19 15 -82 3 -66 -13 15 -15 14
-54 -1 -60 -17 -5 45 -37 72 -37 21 0 64 -26 111 -68 l26 -22 18 20 c10 11 24
20 32 20 11 0 11 4 3 20 -6 11 -8 25 -5 30 4 6 0 12 -7 14 -7 1 -28 8 -45 14
-24 7 -33 7 -33 -1 0 -6 -16 4 -35 23 -24 24 -32 37 -25 45 7 9 6 16 -4 24
-11 9 -15 8 -20 -5z"/>
<path d="M11183 11338 c-1 -10 3 -18 8 -18 6 0 7 5 4 10 -3 6 -1 10 4 10 6 0
11 4 11 8 0 17 -26 8 -27 -10z"/>
<path d="M11105 11210 c3 -5 8 -10 11 -10 2 0 4 5 4 10 0 6 -5 10 -11 10 -5 0
-7 -4 -4 -10z"/>
<path d="M12045 10159 c1 -11 8 -26 16 -34 12 -12 17 -10 33 13 11 15 16 24
11 20 -4 -4 -13 -4 -19 1 -25 19 -43 19 -41 0z"/>
<path d="M7580 10159 c0 -5 5 -7 10 -4 6 3 10 8 10 11 0 2 -4 4 -10 4 -5 0
-10 -5 -10 -11z"/>
<path d="M11947 10164 c-4 -4 -7 -20 -7 -36 0 -22 6 -31 26 -39 15 -5 28 -8
29 -7 33 50 45 78 32 78 -8 0 -27 3 -43 6 -16 3 -32 2 -37 -2z m42 -18 c9 -10
8 -15 -3 -19 -8 -3 -20 2 -28 11 -9 11 -10 14 0 8 6 -4 12 -2 12 3 0 15 5 14
19 -3z"/>
<path d="M11837 10117 c-7 -19 -71 -24 -82 -7 -8 12 -51 6 -71 -11 -11 -9 -17
-9 -29 1 -21 17 -35 4 -31 -30 6 -49 -11 -59 -40 -26 -19 22 -22 31 -13 37 7
4 17 5 23 2 5 -3 6 -1 2 5 -8 14 -35 5 -58 -19 -9 -9 -21 -19 -27 -20 -5 -2
-11 -16 -13 -31 -2 -15 -15 -39 -28 -53 -16 -17 -24 -37 -24 -60 0 -30 -3 -34
-18 -29 -16 5 -18 2 -13 -19 5 -17 2 -26 -9 -30 -13 -5 -12 -13 6 -59 13 -36
16 -54 8 -56 -6 -2 8 -22 32 -44 27 -25 38 -42 30 -45 -6 -3 -10 -9 -7 -13 3
-5 -4 -15 -16 -24 -21 -14 -21 -14 7 -18 22 -2 33 -12 46 -38 9 -19 21 -39 25
-45 5 -5 27 -38 48 -72 39 -61 67 -78 79 -48 3 9 12 12 21 8 13 -5 14 -7 3
-14 -9 -6 -7 -9 9 -9 12 0 25 -5 28 -10 4 -6 10 -8 15 -5 5 3 11 1 15 -5 3 -5
11 -10 17 -10 6 0 2 10 -10 23 -12 13 -22 34 -22 46 0 14 -7 25 -20 28 -31 8
-23 23 10 19 26 -3 30 0 30 20 0 26 10 30 28 12 9 -9 13 -4 18 20 4 21 12 32
23 32 30 0 43 21 25 41 -19 22 -12 51 11 43 8 -3 22 -3 31 0 14 5 13 9 -6 24
l-22 17 21 19 c12 11 21 27 21 36 0 27 9 29 54 13 57 -21 80 -13 64 22 -9 19
-14 22 -24 14 -8 -6 -22 -8 -31 -4 -10 4 -36 9 -58 12 -22 2 -46 10 -54 18
-16 15 -23 73 -10 80 4 3 4 17 -1 30 -8 22 -6 24 23 27 23 2 35 11 47 33 8 17
18 32 22 35 3 3 9 26 13 53 6 41 5 47 -11 49 -45 3 -90 22 -96 39 -3 9 -6 8
-11 -4z m-17 -247 c0 -5 -5 -10 -11 -10 -5 0 -7 5 -4 10 3 6 8 10 11 10 2 0 4
-4 4 -10z"/>
<path d="M7182 10029 c-26 -10 -25 -14 25 -75 39 -48 41 -60 12 -67 -16 -4
-20 -11 -16 -26 3 -13 -1 -24 -11 -30 -16 -9 -16 -11 0 -27 16 -16 44 -11 33
7 -4 5 -2 9 3 9 17 0 54 72 46 89 -4 9 -6 22 -5 29 1 6 -5 12 -13 12 -10 0
-13 6 -10 15 7 18 31 20 37 3 2 -7 7 -10 11 -7 10 9 -38 56 -52 51 -7 -2 -15
3 -18 12 -7 18 -10 18 -42 5z"/>
<path d="M7930 10030 c0 -5 5 -10 11 -10 5 0 7 5 4 10 -3 6 -8 10 -11 10 -2 0
-4 -4 -4 -10z"/>
<path d="M7685 9991 c-6 -10 21 -41 35 -41 16 0 17 25 1 37 -19 15 -28 16 -36
4z"/>
<path d="M7785 9990 c-3 -5 -2 -10 4 -10 5 0 13 5 16 10 3 6 2 10 -4 10 -5 0
-13 -4 -16 -10z"/>
<path d="M7194 9769 c19 -62 9 -99 -25 -99 -22 0 -23 -4 -8 -31 8 -15 7 -24
-2 -35 -13 -16 -14 -16 23 -32 15 -6 34 -9 42 -6 10 4 17 -3 21 -19 7 -27 -9
-67 -26 -67 -6 0 -8 -4 -4 -9 3 -6 -1 -13 -8 -18 -7 -4 -16 -16 -20 -25 -5
-13 -14 -16 -41 -11 -29 5 -36 2 -36 -11 0 -9 6 -19 14 -22 8 -3 17 -16 20
-29 7 -27 44 -44 56 -25 5 8 15 10 26 5 14 -5 15 -9 6 -12 -10 -4 -9 -8 5 -18
36 -25 134 -75 147 -75 8 0 24 -9 37 -19 20 -17 22 -23 12 -39 -9 -14 -9 -22
0 -31 19 -19 47 -12 57 14 11 29 12 29 49 11 24 -13 32 -13 54 -1 16 8 29 10
33 4 3 -5 9 -7 14 -4 10 6 31 -20 28 -35 -2 -7 7 -13 19 -15 13 -1 31 -9 41
-18 11 -10 23 -13 31 -8 10 7 7 13 -14 27 -14 11 -52 40 -84 66 -32 26 -61 45
-64 42 -3 -3 -22 -1 -41 6 -31 10 -36 16 -36 42 0 27 2 29 28 24 46 -10 91 48
74 94 -5 14 -8 36 -5 49 2 14 -2 28 -9 33 -19 11 -30 10 -22 -4 5 -7 3 -8 -6
-3 -8 5 -10 20 -7 41 5 29 3 35 -16 38 -48 10 -97 12 -97 3 0 -5 -7 -4 -15 3
-8 7 -15 21 -15 31 0 10 -4 21 -10 24 -5 3 -10 11 -10 16 0 6 4 7 10 4 5 -3
15 5 22 20 9 21 9 28 -4 38 -9 6 -18 23 -22 37 -3 14 -10 31 -15 39 -12 18
-34 4 -28 -18 3 -14 -1 -17 -22 -13 -14 3 -34 11 -43 20 -10 8 -24 12 -33 9
-8 -4 -31 3 -52 15 l-36 22 7 -25z m290 -554 c3 -9 0 -15 -9 -15 -8 0 -15 7
-15 15 0 8 4 15 9 15 5 0 11 -7 15 -15z"/>
<path d="M7435 9700 c3 -5 8 -10 11 -10 2 0 4 5 4 10 0 6 -5 10 -11 10 -5 0
-7 -4 -4 -10z"/>
<path d="M7541 9601 c-9 -6 -11 -14 -4 -26 9 -15 11 -16 16 -1 4 9 13 16 22
16 8 0 15 5 15 10 0 12 -30 13 -49 1z"/>
<path d="M7120 9555 c0 -19 2 -35 4 -35 2 0 12 -3 20 -6 11 -4 15 -2 12 7 -2
8 -7 26 -10 42 -9 39 -26 34 -26 -8z"/>
<path d="M10840 9494 c0 -28 15 -54 31 -54 10 0 -8 61 -21 74 -7 7 -10 0 -10
-20z"/>
<path d="M11620 9301 c0 -5 -9 -12 -19 -16 -19 -6 -19 -7 -3 -24 16 -17 18
-17 33 2 10 12 15 27 12 34 -6 15 -23 18 -23 4z"/>
<path d="M7268 9143 c0 -10 -1 -26 0 -35 1 -10 -3 -18 -8 -18 -6 0 -10 -6 -10
-14 0 -18 -52 -56 -77 -56 -16 -1 -15 -3 6 -20 12 -11 27 -17 32 -14 5 3 12
-1 15 -9 3 -9 19 -21 35 -27 26 -11 32 -10 44 6 8 11 15 25 15 32 0 6 9 12 20
12 11 0 20 3 20 7 0 6 -14 52 -28 93 -3 8 -4 21 -3 29 1 8 -3 18 -11 22 -22
14 -48 10 -50 -8z"/>
<path d="M7370 9151 c0 -12 28 -22 35 -12 3 5 -2 12 -11 15 -21 8 -24 8 -24
-3z"/>
<path d="M7580 8785 c0 -9 7 -18 15 -21 22 -9 13 -40 -18 -64 -15 -12 -27 -31
-27 -44 0 -12 -5 -27 -10 -32 -8 -8 -7 -19 1 -38 10 -20 10 -29 1 -34 -6 -5
-8 -13 -3 -21 5 -8 0 -33 -12 -62 -16 -38 -25 -48 -38 -44 -10 3 -20 1 -24 -5
-4 -6 -15 -8 -26 -5 -22 7 -22 5 -9 -29 6 -17 6 -26 0 -26 -6 0 -10 -13 -10
-30 0 -19 -4 -28 -12 -25 -8 3 -14 -5 -15 -22 0 -16 -4 -41 -8 -58 -3 -16 -8
-41 -11 -53 -3 -14 -10 -22 -17 -19 -7 3 -21 -1 -32 -9 -27 -20 -63 -17 -77 6
-15 24 -28 26 -28 5 0 -8 -7 -15 -15 -15 -8 0 -15 -4 -15 -9 0 -5 -9 -11 -21
-14 -15 -4 -20 -13 -19 -34 4 -54 0 -73 -15 -73 -8 0 -15 -4 -15 -10 0 -5 5
-10 10 -10 6 0 10 -4 10 -9 0 -14 42 -56 64 -64 10 -4 24 -2 32 3 9 8 19 7 38
-5 l25 -16 -21 -21 c-11 -11 -26 -35 -34 -54 -8 -19 -20 -34 -28 -34 -8 0 -16
-6 -19 -13 -3 -9 -16 -12 -36 -9 -33 5 -37 -4 -32 -70 2 -22 -2 -28 -19 -28
-17 0 -19 -4 -14 -27 4 -16 17 -39 29 -53 27 -30 23 -50 -8 -43 -34 9 -55 32
-50 54 3 10 1 19 -5 19 -6 0 -17 6 -24 13 -16 15 -66 41 -82 43 -6 0 -17 2
-23 2 -7 1 -13 15 -13 31 0 31 -30 66 -37 44 -6 -18 -33 -16 -33 1 0 8 5 16
11 18 17 6 13 97 -5 117 -9 10 -16 23 -16 29 0 6 -6 17 -13 24 -8 7 -17 30
-21 51 -6 30 -4 37 9 37 17 0 21 35 5 45 -17 10 -11 44 9 54 10 6 21 23 24 38
7 37 0 42 -12 9 -8 -18 -18 -26 -36 -26 -26 0 -31 -12 -37 -75 -2 -24 -7 -29
-22 -27 -16 3 -18 1 -9 -10 7 -7 15 -37 19 -65 6 -48 5 -52 -20 -68 -15 -10
-29 -15 -33 -11 -3 3 -12 -3 -20 -14 -16 -22 -33 -27 -33 -9 0 13 -29 38 -44
39 -4 0 -6 -7 -2 -15 3 -9 0 -15 -9 -15 -8 0 -15 -4 -15 -9 0 -5 -3 -17 -7
-26 -6 -16 -4 -16 18 -2 29 19 44 12 53 -25 5 -24 3 -28 -19 -34 -19 -5 -23
-9 -15 -19 6 -7 10 -17 8 -21 -1 -5 4 -20 11 -32 7 -13 11 -26 8 -28 -2 -3 11
-20 29 -38 38 -38 41 -48 19 -69 -13 -13 -13 -17 0 -27 8 -7 14 -27 13 -46 -2
-41 1 -45 31 -37 19 5 22 11 18 37 -4 28 -1 33 35 50 34 16 42 16 49 5 5 -8 9
-17 9 -21 0 -9 61 2 76 14 16 12 42 0 49 -23 4 -10 15 -19 26 -19 32 0 71 -30
59 -45 -16 -19 13 -37 44 -29 20 5 25 11 21 25 -4 11 -3 20 2 20 61 9 63 8 65
-19 1 -15 1 -40 0 -55 -1 -16 5 -36 15 -45 16 -16 16 -17 -1 -20 -13 -3 -15
-7 -5 -18 15 -18 43 -18 59 0 8 11 18 12 35 6 28 -11 38 -1 24 20 -8 12 -12
12 -16 3 -7 -19 -20 -16 -26 6 -6 26 40 121 58 121 19 0 19 9 0 30 -16 17 -60
16 -71 -1 -3 -5 -19 0 -35 12 -16 11 -36 18 -44 15 -15 -5 -19 4 -16 36 1 9
-3 19 -9 23 -22 14 -8 20 41 16 45 -3 51 -1 56 19 4 15 10 19 22 14 9 -4 41
-10 71 -12 30 -2 61 -9 68 -14 8 -7 12 -7 12 1 0 7 17 19 38 28 47 19 47 20
33 37 -10 12 -9 14 8 9 12 -3 21 -14 21 -24 0 -12 7 -19 19 -19 11 0 23 -4 26
-10 3 -5 1 -10 -5 -10 -8 0 -10 -9 -6 -25 4 -15 0 -34 -9 -49 -25 -38 -10 -63
37 -65 12 -1 15 4 11 14 -3 9 -2 15 3 14 5 -2 26 5 47 14 22 9 55 22 75 28 47
14 64 27 80 62 12 27 32 29 32 2 0 -22 31 -27 46 -8 12 17 13 17 14 1 0 -11 5
-15 15 -12 8 4 15 1 15 -5 0 -6 5 -11 12 -11 9 0 9 3 0 12 -20 20 -14 27 29
38 38 10 40 13 26 27 -14 14 -17 14 -38 -1 -26 -18 -119 -22 -119 -6 0 6 11
21 25 34 26 25 37 79 12 57 -8 -6 -17 -7 -21 -3 -4 4 -15 7 -24 8 -10 1 -27 2
-40 3 -19 1 -22 5 -17 21 6 17 2 20 -30 20 -28 0 -37 5 -44 22 -6 18 -2 28 22
50 16 16 35 28 41 27 6 -1 18 -1 26 1 11 1 9 4 -5 9 -19 8 -19 8 1 19 18 9 25
8 39 -9 18 -19 18 -20 -13 -31 -20 -8 -32 -19 -32 -31 0 -14 4 -16 16 -9 9 5
25 7 36 4 10 -2 27 3 37 12 18 16 20 16 40 -10 15 -19 22 -23 26 -12 6 15 61
23 69 10 7 -11 48 -8 71 6 11 6 14 12 8 12 -19 0 -16 18 7 47 13 17 17 30 11
37 -10 11 0 81 13 93 3 4 -1 15 -11 25 -14 15 -14 18 -1 18 27 0 51 81 28 95
-5 3 -10 -3 -10 -14 0 -12 -7 -21 -16 -21 -8 0 -12 -5 -9 -10 13 -22 -84 -85
-125 -82 -20 2 -31 -7 -55 -48 -21 -37 -35 -50 -52 -50 -14 0 -23 -6 -23 -15
0 -8 -4 -15 -9 -15 -6 0 -8 10 -6 22 3 12 -1 28 -7 36 -10 11 -8 16 5 23 10 6
17 22 17 38 0 16 7 34 15 41 22 18 18 60 -7 87 -18 19 -19 23 -5 23 19 0 33
38 19 52 -7 7 -18 5 -33 -6 -13 -9 -29 -16 -36 -16 -18 0 -16 29 1 36 8 3 12
12 9 20 -3 8 0 14 6 14 6 0 11 18 11 43 0 46 5 57 35 73 28 15 25 36 -7 52
-15 7 -30 21 -33 32 -4 11 -13 20 -20 20 -14 0 -37 33 -41 58 -1 8 -10 22 -19
32 -9 10 -14 24 -10 30 9 14 -29 56 -68 76 -15 8 -25 19 -21 25 3 6 3 21 0 35
-7 27 -46 35 -46 9z m-206 -917 c23 -5 52 -9 66 -9 19 1 21 -1 11 -8 -12 -8
-13 -12 -1 -26 20 -24 -2 -39 -26 -17 -10 10 -23 20 -29 21 -5 2 -16 6 -23 9
-23 9 -26 -8 -4 -24 32 -22 29 -53 -3 -46 -18 3 -25 11 -25 27 0 13 -4 25 -8
27 -5 2 -12 18 -15 36 -5 24 -3 31 5 26 6 -4 30 -11 52 -16z m286 -62 c0 -8 7
-16 15 -20 21 -8 18 -19 -8 -31 -31 -15 -58 12 -44 43 11 24 37 30 37 8z
m-330 -42 c0 -8 -4 -14 -10 -14 -5 0 -10 9 -10 21 0 11 5 17 10 14 6 -3 10
-13 10 -21z m271 -11 c13 -16 12 -17 -3 -4 -10 7 -18 15 -18 17 0 8 8 3 21
-13z m170 -27 c10 -36 9 -37 -27 -36 -70 0 -74 1 -74 21 0 17 10 23 26 17 3
-2 10 5 16 15 15 28 50 17 59 -17z m34 -46 c3 -5 1 -10 -4 -10 -6 0 -11 5 -11
10 0 6 2 10 4 10 3 0 8 -4 11 -10z m-170 -30 c-3 -5 -10 -10 -16 -10 -5 0 -9
5 -9 10 0 6 7 10 16 10 8 0 12 -4 9 -10z"/>
<path d="M8205 8550 c-3 -5 1 -10 9 -10 9 0 16 5 16 10 0 6 -4 10 -9 10 -6 0
-13 -4 -16 -10z"/>
<path d="M8215 8231 c-6 -6 -23 -16 -38 -24 l-28 -15 25 -4 c14 -3 23 -1 20 3
-3 5 3 9 13 9 12 0 19 7 19 20 0 11 -1 20 -1 20 -1 0 -5 -4 -10 -9z"/>
<path d="M8510 8161 c0 -16 9 -39 21 -52 l20 -24 -4 28 -4 28 19 -21 c10 -11
24 -20 29 -20 6 0 8 -8 5 -17 -6 -15 8 -32 27 -33 17 0 4 24 -38 68 -25 26
-45 50 -45 53 0 4 -7 9 -15 13 -11 4 -15 -2 -15 -23z"/>
<path d="M8840 8149 c0 -5 -3 -8 -7 -7 -5 1 -23 -1 -42 -5 -26 -5 -31 -10 -23
-20 15 -18 11 -57 -6 -57 -11 0 -12 -3 -3 -14 9 -11 8 -15 -5 -20 -9 -3 -20
-4 -24 -1 -5 3 -11 -8 -15 -24 -3 -16 -13 -32 -22 -35 -19 -8 -16 -11 -33 44
-10 32 -15 39 -18 25 -2 -11 -10 -24 -18 -28 -8 -4 -14 -15 -14 -23 0 -15 -39
-76 -52 -82 -5 -2 -8 -10 -8 -17 0 -8 -11 -22 -25 -33 -21 -17 -23 -22 -11
-38 12 -15 11 -20 -8 -35 l-21 -17 21 -18 c11 -11 14 -15 7 -10 -13 8 -33 -28
-33 -59 0 -14 -7 -15 -69 -17 -26 -1 -39 6 -57 29 -32 41 -57 46 -84 18 -15
-15 -32 -23 -49 -21 -33 3 -55 -12 -41 -29 13 -16 70 -7 70 12 0 8 5 11 10 8
6 -3 10 2 10 11 0 15 2 16 18 2 9 -9 27 -19 39 -22 11 -4 27 -13 33 -21 7 -8
28 -15 46 -15 19 0 34 -5 34 -11 0 -7 9 -9 23 -4 63 19 87 22 93 13 4 -5 17
-8 30 -5 14 2 24 -1 24 -8 0 -6 13 -23 28 -38 32 -31 134 -66 140 -48 6 17 30
13 41 -6 9 -16 10 -17 16 -2 4 11 14 15 26 12 23 -6 24 -21 2 -45 -13 -14 -13
-18 -2 -18 8 0 27 18 43 40 20 27 38 40 53 40 16 0 23 6 23 20 0 22 16 27 23
8 4 -10 7 -10 18 0 18 17 65 15 94 -4 28 -18 45 -12 45 18 0 14 5 18 15 14 9
-3 18 0 21 7 3 8 20 20 39 27 20 8 35 21 35 30 0 9 3 20 8 24 12 12 8 50 -6
61 -10 8 -11 17 -3 37 8 21 6 29 -10 44 -11 10 -17 24 -14 32 3 8 -4 21 -16
30 -11 8 -27 29 -35 46 -7 17 -13 25 -14 17 0 -10 -3 -11 -14 -2 -8 7 -17 8
-20 3 -3 -5 -17 -7 -31 -4 -25 4 -43 40 -31 61 13 20 -7 62 -35 77 -17 8 -27
19 -24 23 3 5 -23 14 -58 21 -90 17 -127 20 -127 9z m-33 -563 c12 -12 12 -36
-1 -36 -7 0 -23 11 -35 24 l-23 25 26 -3 c14 -1 29 -6 33 -10z"/>
<path d="M8044 7712 c-6 -4 -13 -20 -16 -36 -5 -27 -4 -28 25 -22 42 8 51 20
38 45 -12 22 -28 26 -47 13z"/>
<path d="M8136 7671 c-4 -7 -5 -15 -2 -18 9 -9 19 4 14 18 -4 11 -6 11 -12 0z"/>
<path d="M11600 7626 c0 -13 7 -29 15 -36 12 -10 15 -9 15 5 0 11 5 15 15 11
10 -3 15 1 15 13 0 19 -18 31 -46 31 -8 0 -14 -10 -14 -24z"/>
<path d="M11685 7590 c-4 -6 -2 -17 5 -24 6 -8 7 -16 3 -18 -4 -3 -2 -3 5 -2
7 2 15 -2 18 -10 3 -7 16 -13 29 -13 l23 0 -24 26 c-13 14 -24 31 -24 38 0 16
-26 17 -35 3z"/>
<path d="M10925 7381 c-3 -5 -1 -12 4 -15 5 -3 11 1 15 9 6 16 -9 21 -19 6z"/>
</g>
</svg>
