<?xml version="1.0" standalone="no"?>
<!DOCTYPE svg PUBLIC "-//W3C//DTD SVG 20010904//EN"
 "http://www.w3.org/TR/2001/REC-SVG-20010904/DTD/svg10.dtd">
<svg version="1.0" xmlns="http://www.w3.org/2000/svg"
 width="220.714811pt" height="550.499092pt" viewBox="0 0 220.714811 550.499092"
 preserveAspectRatio="xMidYMid meet">
<metadata>
Created by potrace 1.15, written by Peter Selinger 2001-2017
</metadata>
<g transform="translate(-911.116226,1278.881005) scale(0.100000,-0.100000)"
fill="#222222" stroke="none">
<path d="M10770 12769 c-14 -11 -38 -31 -54 -45 -15 -13 -32 -24 -36 -24 -5 0
-12 -9 -15 -21 -6 -18 -12 -20 -46 -14 -25 4 -39 3 -39 -4 0 -6 8 -11 18 -11
10 0 23 -5 30 -12 7 -7 12 -8 12 -2 0 18 59 9 73 -11 16 -24 19 -62 7 -85 -5
-9 -5 -22 0 -30 5 -7 2 -30 -6 -53 -18 -50 -18 -47 11 -47 15 0 25 -6 25 -14
0 -7 7 -19 16 -27 24 -19 47 -70 46 -101 0 -22 5 -28 30 -33 23 -5 29 -11 25
-26 -4 -13 6 -27 30 -46 69 -55 112 -103 106 -118 -3 -9 3 -25 13 -36 10 -12
17 -32 16 -45 -3 -24 36 -67 99 -107 19 -12 29 -28 29 -43 0 -13 4 -24 8 -24
5 0 14 -11 20 -25 18 -39 38 -30 67 32 20 44 23 58 13 65 -7 4 -16 8 -19 8 -4
0 -15 12 -24 27 -16 24 -16 27 -2 38 30 21 31 59 3 86 -29 27 -34 57 -11 65
20 8 19 31 -4 55 -16 17 -32 79 -45 170 -2 15 -7 32 -11 39 -4 7 -4 11 1 8 5
-2 24 -10 42 -17 20 -8 32 -20 32 -31 0 -10 7 -25 15 -34 13 -13 18 -12 40 7
l24 22 -26 5 c-22 4 -27 11 -28 35 0 28 2 30 34 27 28 -3 33 -1 27 13 -3 9 -6
21 -6 25 0 5 -14 17 -30 27 -21 12 -34 30 -41 56 -13 50 -7 66 30 73 25 5 31
12 36 45 8 48 -2 67 -21 42 -14 -17 -14 -17 -25 0 -9 15 -13 16 -26 6 -12 -11
-17 -10 -24 4 -12 21 -29 22 -29 2 0 -8 -3 -15 -7 -16 -5 0 -25 -1 -45 -3 -20
-2 -44 -8 -52 -15 -8 -7 -21 -9 -27 -5 -7 4 -41 8 -76 8 -58 1 -68 5 -64 29 1
5 -8 11 -19 14 -12 3 -20 14 -20 27 0 13 -11 28 -30 39 -16 10 -30 25 -30 33
0 19 -10 17 -40 -7z"/>
<path d="M10482 12671 l-2 -38 39 1 c34 0 40 4 37 21 -2 16 -45 51 -66 54 -3
1 -6 -16 -8 -38z"/>
<path d="M10885 12700 c3 -5 8 -10 11 -10 2 0 4 5 4 10 0 6 -5 10 -11 10 -5 0
-7 -4 -4 -10z"/>
<path d="M11207 11685 c-15 -32 -30 -40 -65 -36 -8 1 -24 -9 -37 -23 -13 -14
-31 -26 -40 -26 -8 0 -15 -3 -15 -7 0 -5 -23 -24 -51 -43 -44 -30 -50 -38 -47
-62 3 -19 0 -28 -9 -28 -7 0 -13 -11 -13 -25 0 -14 4 -25 9 -25 5 0 11 -9 14
-19 5 -22 -25 -35 -42 -18 -6 6 -29 12 -51 13 -38 2 -40 1 -33 -25 6 -24 5
-25 -12 -11 -17 14 -17 13 -10 -10 4 -14 12 -30 17 -37 6 -7 5 -19 -2 -33 -6
-11 -10 -28 -8 -38 1 -9 -6 -29 -16 -44 -10 -15 -15 -32 -11 -37 9 -16 -12
-48 -45 -68 -40 -23 -42 -78 -5 -113 15 -14 25 -35 25 -51 0 -15 5 -31 11 -34
7 -5 4 -15 -6 -32 -10 -14 -19 -50 -20 -80 -3 -43 -9 -62 -29 -82 -14 -15 -26
-35 -26 -44 0 -9 -9 -26 -20 -37 -11 -11 -17 -20 -12 -20 4 0 0 -6 -9 -13 -9
-7 -19 -22 -23 -35 -6 -18 -12 -21 -29 -16 -12 3 -19 3 -15 -1 8 -9 -24 -35
-64 -52 -14 -7 -29 -21 -32 -31 -4 -11 -18 -23 -31 -26 -14 -4 -25 -13 -25
-22 0 -8 -6 -17 -14 -20 -8 -3 -17 -28 -20 -57 -4 -28 -12 -55 -18 -58 -8 -5
-6 -15 5 -33 27 -40 21 -71 -18 -103 -38 -31 -75 -98 -75 -134 0 -22 0 -22 15
-3 12 16 14 16 15 3 0 -25 26 -43 34 -24 3 8 17 15 31 15 30 0 34 26 5 35 -15
5 -20 15 -20 41 0 27 4 34 20 34 11 0 20 6 20 14 0 8 5 16 11 18 6 2 11 20 12
41 1 41 9 44 80 28 43 -10 97 5 90 26 -3 7 9 13 29 15 34 3 37 10 24 61 -5 21
-3 24 19 19 14 -2 25 -10 25 -18 0 -11 7 -10 35 3 21 10 35 24 35 35 0 26 43
23 95 -8 29 -16 42 -30 38 -40 -3 -9 1 -14 11 -14 9 0 16 -6 15 -12 -3 -27 2
-38 16 -38 21 0 19 12 -10 66 -29 54 -30 64 -11 64 7 0 16 10 19 21 5 19 11
21 42 16 26 -4 37 -2 41 9 2 7 6 21 9 30 4 12 9 13 18 6 8 -7 18 -6 31 4 11 8
30 14 42 14 15 0 25 8 30 23 3 12 13 30 21 39 9 10 12 22 6 30 -4 7 -13 29
-19 48 -8 28 -7 37 5 46 13 10 13 15 -3 39 -10 14 -15 33 -12 41 3 8 1 14 -3
14 -8 0 -51 64 -51 76 0 2 6 4 14 4 18 0 17 60 -2 82 -6 8 -9 18 -5 22 7 7
-43 56 -57 56 -3 0 -14 16 -23 35 -9 19 -13 35 -8 35 16 0 23 40 11 55 -10 12
-9 16 3 21 12 4 15 14 10 35 -4 22 -2 29 10 29 20 0 9 43 -23 95 -18 28 -19
35 -7 35 9 0 27 15 41 32 23 30 24 34 8 51 -15 17 -14 19 9 40 14 12 34 41 44
64 10 24 26 45 36 48 14 5 17 13 12 36 -5 28 -4 30 20 24 21 -6 32 -1 52 20
14 16 25 33 25 40 0 10 -36 55 -44 55 -1 0 -10 -16 -19 -35z m-792 -1435 c3
-5 1 -10 -4 -10 -6 0 -11 5 -11 10 0 6 2 10 4 10 3 0 8 -4 11 -10z"/>
<path d="M11172 10450 c3 -8 -6 -23 -19 -33 -13 -10 -23 -25 -23 -33 0 -8 -4
-14 -10 -14 -5 0 -10 -18 -10 -40 0 -38 13 -54 23 -27 3 8 12 6 33 -9 23 -16
34 -19 51 -11 29 13 35 31 18 54 -14 17 -14 17 -15 -1 0 -16 -2 -16 -16 -5 -8
7 -13 20 -11 29 2 10 0 25 -5 35 -8 12 -6 20 3 26 11 7 11 12 -5 26 -14 14
-17 14 -14 3z"/>
<path d="M10255 10270 c10 -16 63 -41 69 -32 3 5 -11 16 -30 25 -40 20 -48 21
-39 7z"/>
<path d="M10026 9981 c-15 -38 -17 -40 -41 -29 -30 13 -60 1 -88 -38 -13 -18
-15 -28 -8 -43 8 -14 6 -25 -8 -42 -10 -13 -24 -37 -32 -54 -13 -27 -19 -30
-54 -28 -22 2 -41 7 -43 13 -4 12 -32 14 -32 2 0 -14 -69 -42 -104 -42 -21 0
-36 -6 -40 -15 -5 -13 -10 -14 -28 -5 l-23 11 21 -18 c20 -17 41 -69 24 -58
-5 3 -14 -3 -20 -14 -7 -14 -7 -22 1 -27 7 -4 -1 -17 -21 -35 l-32 -30 51 -61
c38 -47 48 -65 39 -75 -6 -7 -18 -13 -27 -14 -10 0 -11 -2 -3 -6 6 -2 12 -15
12 -28 0 -13 4 -26 9 -29 5 -3 11 -17 13 -31 5 -22 1 -26 -36 -37 -22 -6 -48
-17 -57 -25 -8 -7 -23 -13 -31 -13 -9 0 -18 -7 -22 -15 -3 -8 -14 -15 -25 -15
-10 0 -29 -11 -42 -25 -13 -13 -32 -25 -41 -25 -20 0 -23 -13 -8 -40 15 -28
-8 -60 -42 -60 -18 0 -33 -8 -44 -25 -12 -19 -22 -23 -40 -19 -21 5 -24 3 -24
-20 0 -33 -22 -116 -31 -116 -12 0 -2 -67 14 -92 24 -38 30 -68 14 -68 -8 0
-20 -7 -27 -15 -7 -8 -16 -12 -21 -9 -14 8 -11 -60 4 -74 6 -7 12 -16 13 -20
0 -4 4 -20 8 -35 7 -22 3 -36 -19 -66 -22 -33 -25 -43 -15 -60 7 -14 8 -27 1
-40 -7 -12 -7 -28 2 -50 10 -26 9 -33 -3 -41 -12 -7 -12 -13 0 -37 7 -15 12
-36 11 -45 -1 -9 12 -43 28 -76 24 -49 29 -66 22 -90 -12 -41 34 -123 79 -142
17 -7 36 -20 43 -30 7 -9 22 -22 35 -29 12 -6 22 -18 22 -25 0 -8 6 -16 13
-19 7 -2 19 -29 26 -58 7 -30 26 -78 41 -106 22 -42 25 -53 13 -53 -13 0 -13
-3 -3 -15 8 -9 11 -30 7 -55 -3 -27 -1 -43 9 -51 19 -16 17 -39 -3 -40 -11 0
-13 -3 -5 -6 6 -2 12 -13 12 -24 0 -11 6 -22 13 -25 7 -2 12 -19 12 -39 -1
-31 1 -35 19 -29 34 10 48 26 36 38 -20 20 -10 26 34 20 41 -6 44 -5 59 25 9
18 13 39 10 47 -3 8 1 14 10 14 9 0 17 10 19 22 3 21 28 40 71 52 12 4 17 16
17 45 0 31 4 41 20 46 11 3 20 15 20 25 0 10 8 21 19 25 16 5 19 17 20 89 0
58 -4 88 -14 102 -14 18 -14 18 -15 1 0 -20 -13 -18 -84 14 l-41 18 -31 -36
c-34 -41 -54 -38 -54 8 0 16 -4 29 -9 29 -5 0 -11 8 -15 18 -3 9 -9 23 -12 30
-3 7 2 12 13 12 42 0 71 24 79 65 4 22 6 52 5 68 -3 30 5 32 59 17 45 -13 62
-7 78 30 8 16 20 30 28 30 9 0 12 4 9 10 -3 5 1 23 10 41 9 17 15 44 13 61 -3
33 15 50 25 23 4 -8 2 -15 -3 -15 -5 0 -7 -7 -4 -15 9 -23 26 -18 64 18 19 19
40 32 47 30 15 -5 28 17 15 26 -6 3 -14 19 -17 34 -6 21 -4 27 9 27 10 0 16 9
16 25 0 16 4 23 14 19 7 -3 21 7 30 21 14 21 15 29 5 41 -8 10 -8 18 -1 27 8
9 5 19 -8 37 -11 14 -20 35 -20 47 0 17 -9 25 -38 33 -47 12 -81 47 -79 80 0
14 -2 35 -7 47 -6 19 -3 25 17 32 13 5 40 28 60 51 20 23 40 39 46 35 17 -10
13 5 -14 60 -13 28 -25 55 -25 61 0 6 -7 17 -15 24 -19 15 -20 40 -2 40 23 0
38 69 23 98 -12 24 -11 28 10 44 13 11 21 25 17 33 -3 9 1 15 11 15 9 0 13 6
10 14 -4 9 6 18 30 26 20 6 36 17 36 24 0 7 7 26 15 43 8 16 19 54 25 83 6 30
16 61 23 69 21 25 47 93 48 126 1 17 -4 44 -9 60 -6 17 -16 54 -22 83 -11 50
-11 54 15 88 15 19 33 38 41 41 8 3 14 16 14 30 0 23 -3 25 -30 20 -16 -4 -32
-2 -35 3 -3 5 -18 5 -35 0 -22 -6 -34 -5 -44 6 -8 8 -24 14 -35 14 -11 0 -26
9 -34 20 -14 20 -15 19 -31 -19z"/>
<path d="M10331 9904 c0 -11 3 -14 6 -6 3 7 2 16 -1 19 -3 4 -6 -2 -5 -13z"/>
<path d="M9690 7956 c0 -2 7 -7 16 -10 8 -3 12 -2 9 4 -6 10 -25 14 -25 6z"/>
<path d="M9707 7911 c-3 -14 -1 -18 9 -14 16 6 18 19 5 27 -5 3 -11 -3 -14
-13z"/>
</g>
</svg>
