<svg version="1" xmlns="http://www.w3.org/2000/svg" width="603.638" height="606.667" viewBox="0 0 452.729 455"><g fill="#222"><path d="M234.396 1.5c0 .8.4 1.5 1 1.5.5 0 .7-.7.4-1.5-.4-.8-.8-1.5-1-1.5-.2 0-.4.7-.4 1.5z"/><path d="M226.896 4c-1.9 2.8-7.7 6-10.8 6-1 0-1.7.5-1.7 1 0 1.6-14.9.1-18.3-1.8-2.6-1.6-2.8-1.5-4.3.6-.8 1.2-2.2 2.2-3 2.2-.8 0-1.7.7-2 1.5-.4.9-1.1 1.4-1.8 1.3-.6-.1-2.1.1-3.3.6-1.3.4-3.1.2-4.3-.4-1.9-1-2.1-.9-1.8.7.1 1-.9 3.4-2.4 5.4-1.9 2.3-2.5 4.2-2.1 5.7.3 1.3.1 2.2-.6 2.2-.6 0-2 .9-3.2 2.1-1.4 1.4-3.1 2-5.2 1.8-1.8-.2-3.8 0-4.5.5-.7.4-1.8.3-2.5-.2-1.1-.9-7.3.3-11.7 2.2-1.2.5-2.2-.5-3.9-3.4-1.2-2.2-2.8-4.1-3.4-4.2-.7 0-1.9-.1-2.7-.2-.8-.1-1.7-1.1-2-2.3-.3-1.2-1.8-3.1-3.3-4.3-2.7-2.1-2.9-2.2-4.8-.5-1.4 1.4-2.4 1.6-4.2.8-1.2-.5-4.8-.9-8-.8-4.5.1-6.1.5-6.9 1.9-.6 1-1.4 1.4-2.1.9-.7-.5-1.9-.8-2.7-.7-.8.1-3.4.2-5.7.3-3.6.1-4.3.4-4.3 2.1 0 2.2-1.2 2.5-4.1 1-1.4-.8-1.9-.7-1.9.1 0 .8-.6.7-1.7-.3-2.2-1.8-9.2-1.3-10 .8-.3.8-2 2.1-3.8 3-2.4 1.1-3.2 2-2.8 3.4.5 1.7 0 1.9-4.1 1.8-3 0-4.6-.5-4.6-1.3 0-.7-.7-1.5-1.5-1.9-1.1-.4-1.5.2-1.5 2.8 0 3.6-.4 3.8-10 5.2-4.1.6-8.5-1.9-6.1-3.5 1.1-.7 1-1.1-.7-2-2.8-1.5-3.5-1.4-2.8.4.6 1.7-.9 2.1-1.9.5-1.5-2.4-3.3-.6-4.5 4.6-.8 3.2-2.1 5.9-3.1 6.5-3.6 1.9-6.7 1-9.7-2.7l-3-3.6-.7 3.3-.8 3.3-2.1-2.6c-2-2.4-2.3-2.5-5.4-1.1-3 1.2-3.1 1.5-1.7 2.9.8.8 1.5 2.2 1.5 3 0 .8.9 1.4 1.9 1.4 1.4 0 2 .9 2.4 3.7 1.4 9.5 2 10.9 5.8 14.5 2.2 2.1 4.7 3.8 5.5 3.8.8 0 1.7 1.3 2 2.9.3 1.5 2.9 5.3 5.7 8.4 3.1 3.3 5.1 6.3 4.9 7.4-.1 1 1.2 4 2.9 6.6 2.8 4.3 3 5.1 1.9 7.2-.7 1.3-1.8 2.1-2.6 1.8-1.7-.6-1.7-.3-.4 3.3.8 2 .7 4.1-.1 7.6-1.2 4.6-1.2 4.9 1.4 7.6 4.3 4.4 2.3 8.1-4.1 7.3-.7-.1-2.2.5-3.4 1.3-1.3.9-2.6 1.2-3.2.7-.6-.5-2.1-.5-3.5 0-1.9.7-2.1 1.2-1.1 2.3.8 1.1.8 2 .1 3.4-.6 1.1-.8 2.2-.5 2.5.3.2.7 2.4.9 4.7.3 3-.1 4.9-1.5 6.8-2.2 3-1.8 7.2.7 7.2 1.3 0 1.3.4-.2 2.6-1.3 2.1-1.5 3.2-.7 4.9 1 2.1 1.5 2.2 4.9 1.4 5.1-1.2 5.3-1.1 5.3.7 0 1.4.3 1.4 1.5.4 1.2-1 1.8-1 3 0 .8.7 1.5 1.8 1.5 2.5s.7 1.6 1.6 1.9c.9.4 1.4 1.3 1 2.1-.3.9.1 1.8.9 2.1.7.3 2.1 1.7 3 3 1.5 2.3 1.4 2.8-.5 7-3.3 7.6-3 8.2 4 7.9 3.4-.1 6.3.2 6.6.7.3.4 1.4.8 2.5.8s2.4 1.1 3.1 2.6c.9 2 1.7 2.4 3.5 1.9 1.7-.4 3.2.4 6.3 3.5 2.4 2.4 4.9 4 6.3 4 1.3 0 4.4 1.3 6.8 3 3.7 2.4 4.3 3.4 4.1 5.7-.2 2.2.3 3.1 2.3 4 1.4.6 2.5.7 2.5.2 0-1.4 2-1 4.8 1 1.5 1 4.2 2.2 6 2.6 1.7.3 3.2 1.1 3.2 1.7 0 .6.6.8 1.4.5.8-.3 2 0 2.6.8.6.7 1.9 1.1 3 .8 1.4-.4 2.4.3 3.7 2.5 2.9 5 9.6 7 10.6 3.2.4-1.7 1.2-2 4.3-1.8 2.3.1 3.9-.3 4.2-1 .9-2.9 15.8-.3 20.4 3.5 1.2 1.1 2.1 1.2 3.7.4 1.1-.6 2.9-1.1 4-1.1 1.2 0 2.1-.4 2.1-.9s.8-.7 1.9-.4c1.1.3 2.4-.3 3.2-1.4.8-1.1 2.2-2.2 3.1-2.6 1.8-.6 1.5-3.7-.4-3.7-1.7 0-4.5-4.3-4.1-6.2.3-.9 1.4-2 2.5-2.4 1.5-.4 1.7-.9.9-1.7-.6-.6-1.1-2.2-1.1-3.6.1-2.5.2-2.4 2.3 1.1 4.1 6.6 10.9 10.1 12.3 6.3.5-1.2.9-1.2 2.9.1 2.7 1.8 5.3 1 5.7-1.9.2-1.7 1.1-2.3 3.6-2.5 4.1-.4 4.3-3.1.5-5.4-1.6-1-2.2-1.8-1.5-1.8.6 0 1.2-.9 1.2-2.1 0-1.1.5-1.7 1-1.4 2.1 1.3 5-.6 5-3.3.1-2.7.1-2.6 2 .8 1 1.9 2.2 4.2 2.5 5 .4.8 1.1 2.4 1.7 3.6.5 1.1.8 2.4.6 3-.5 1.8 3.6 7.3 6.5 8.5 1.6.7 3.6 2.3 4.4 3.6 1 1.5 2.2 2.2 3.3 1.8 2.1-.7 7.6 3.6 8.5 6.5.4 1.4 1.5 2 3.6 2 1.7 0 3.9.5 5 1.1 1.5.8 3.2.7 6.4-.5 2.7-.8 4.7-1.1 5-.5.4.5 2.1.9 3.8.9 1.8 0 4.9 1.1 7 2.6 2.1 1.4 5.6 3.1 7.8 3.9 2.2.8 5.4 2.8 7.1 4.5 2.4 2.4 3.3 2.8 4.4 1.9.8-.6 1.4-2 1.4-3s.9-2 1.9-2.4c2.3-.7 3.2-3.6 1.9-5.9-.5-.9-.8-3.1-.6-4.9.4-3.7 3-4.8 5.8-2.2 1.7 1.5 1.9 1.5 2.8 0 .8-1.5 1.3-1.5 3.2-.5 2.1 1.1 2.6 1 4.1-.8 1.4-1.8 2.2-2 5-1.2 1.9.5 4.8 2.6 6.5 4.6 3.4 4 5.4 3.9 4.9-.1-.2-2.1.1-2.4 1.6-2 1.5.5 1.9.1 1.9-1.6 0-1.6.3-1.9 1.3-1.1.8.7 2.4.5 5.2-.9 2.2-1.1 5-1.7 6.2-1.4 1.2.3 4.1-.2 6.4-1.1l4.1-1.7 6.7 3.4c3.6 1.9 6.8 3.7 6.9 4.1.6 1.2 4.7.9 6-.4.9-.9 1.2-.9 1.2.3.1 1.8 3.5 5.7 7.7 8.7l3.2 2.2 2.3-4.9c1.9-4.2 2.7-5.1 5.3-5.3 2.2-.2 3.1-.9 3.3-2.5.3-1.7 1.3-2.4 4.5-3 2.8-.6 4.3-1.5 4.5-2.6.5-2.3 6.8-8.7 8.7-8.7.7 0 1.7.5 2.1 1.2.5.7 1.1.5 2.1-.7.7-1.1 1.3-1.5 1.3-1s.7 0 1.5-1.1c.8-1 1.5-2.9 1.5-4.2 0-1.8.6-2.2 2.9-2.2 1.7 0 3.1.6 3.5 1.6.5 1.3.9 1.4 2.1.4.8-.7 1.5-2 1.5-2.9 0-2.9 2-4.1 4.8-3 3.3 1.3 5.2.5 5.2-2.2 0-1.2.8-2.3 2-2.6 1.2-.3 2-1.4 2-2.5 0-1.8-.5-1.9-3.5-1.4-2.1.4-3.5.3-3.5-.3s.7-.8 1.5-.5c1.1.5 1.4.2.9-1.2-.4-1.1-1.3-2.4-2-3-1.4-1.1-.8-5.4.7-5.4 2 0 .7-3.1-1.6-4-1.4-.5-2.5-1.7-2.6-2.7 0-1.5-.2-1.5-1.6.4-1.9 2.8-5.4 2.9-7.8.3-1.3-1.5-3.1-2-6.7-2-4.5 0-4.9.2-4.3 2 .5 1.7.2 2-2.7 2.1-1.8.1-4 .2-4.9.3-.9.1-2.6.9-3.8 2-1.3 1.2-2.8 1.6-4.3 1.2-1.6-.4-2.8.1-3.9 1.6-1.4 1.8-2 2-4.8 1-2.6-.9-3.3-.9-3.7.3-.5 1.1-1.2 1.1-4.2.1-2.8-1-4.2-2.4-6.5-6.7-1.6-3-4.2-6.8-5.9-8.6-1.8-1.8-2.7-3.6-2.3-4.3.5-.8-.6-2.5-2.9-4.6-4.1-3.8-4.8-7.7-1.6-9.6 1.1-.7 2-1.8 2-2.5s.5-1.3 1.2-1.3c.6 0 .3-.9-.7-2-2.1-2.4-4.1-2.6-4.9-.5-.3.8-1.2 1.5-2 1.5-1.8 0-3.1 4-2.2 6.7.3 1 .5 2.1.3 2.4-.1.3.4 1.3 1.1 2.2 1.5 1.8 1.2 2.1-6.5 4.9-6 2.2-9.9 2.5-14.5 1.3-2.4-.6-2.6-.5-2.1 1.4.6 2.5-1.8 2.9-3.7.6-1.6-1.9-7.4-1.9-9 0-.7.8-1.6 1.2-2.1.9-.5-.3-.9.2-.9 1 0 2-1.4 2.1-3.2.3-1.6-1.7-5.3-3.7-6.7-3.7-.5 0-1.3.9-1.6 2-.3 1.1-1.4 2-2.4 2-1.2 0-1.7.7-1.7 2.2.1 2.1-.4 2.3-4.1 2.2-3.8-.1-4.3.2-4.3 2.2 0 1.3-.5 2.6-1.1 2.9-.6.4-.8 1.4-.5 2.2.3.8.1 1.1-.4.8-.6-.3-1 0-1 .7 0 1-.2 1-.9-.1-.5-.8-.7-2.8-.5-4.4.3-2.4-.5-3.7-4.2-7.3-3.6-3.6-4.1-4.4-2.5-4.4 1.6 0 2-.6 1.9-3.3 0-1.7.1-3.7.2-4.2.1-.6.1-1.2 0-1.5-.1-.3-.4-1.6-.6-3-2.1-15.5-3.4-19.6-6.6-20.6-1-.3-2.6-1.6-3.4-2.9-1.5-2.2-1.5-2.6 0-4 2.2-2.2 2-3-.9-4.9-2.9-1.9-3.3-5.2-.7-5.8 1.9-.5 6.6-9.3 5.8-10.7-.6-.9 6.8-9.1 8.2-9.1 1.3 0 .9-6.5-.6-8.3-.7-.8-1.9-3.7-2.6-6.3-.8-2.7-1.9-6.3-2.7-8-.7-1.9-.9-3.9-.4-5 .8-1.9.7-6.5-.2-7.4-.2-.2-.7.1-1.2.8-.5.9-1.2.8-2.7-.4-1.3-1.1-1.5-1.7-.6-2 2.7-1.2.9-3.7-5.3-7.5l-6.5-4.1 2.8-2.8c5-5 5.5-6 3.5-6.1-1.1 0-1.3-.2-.5-.6 1-.4.9-.8-.5-1.9-1-.7-1.3-1.4-.7-1.4.6 0 1.7-1.4 2.4-3 1.3-3.2 2.1-3.5 4.9-2 1.4.7 2.3.5 3.6-1 1-1.1 2.2-1.7 2.7-1.4.5.3 1.3-.8 1.9-2.5.7-1.9 2.1-3.3 4-4 1.6-.5 2.9-1.5 2.9-2.2 0-.6.7-1.7 1.7-2.4 2.2-1.6.7-3.8-2.2-3.1-1.8.5-2.4.1-2.9-1.7-.7-2.6-7.8-7.6-8.4-5.8-.5 1.4-3.9 1.4-4.8 0-.5-.8-.8-.8-1.4 0-.5.8-1.4.9-3.2.2-2.1-.8-2.8-.7-3.2.5-.5 1.2-1 1.3-2.7.4-1.7-.9-2.3-.8-3.4.6-2 2.8-10.9 2.3-14.1-.7-1.3-1.2-2.4-3-2.4-3.9 0-1-1.5-2.3-3.8-3.2-3.8-1.5-3.9-1.5-5.7 1.2zm-191.9 39.7c-.1.1-1.2 0-2.4-.4-1.8-.4-2-.8-1.1-1.9 1-1.2 1.4-1.1 2.4.3.8 1 1.2 1.9 1.1 2zm-7.1 124.1c-.3.3-1.1 0-1.8-.7-.9-1-.8-1.1.6-.5 1 .3 1.5.9 1.2 1.2zm388.5 29.3c0 .6-.4.7-1 .4-.5-.3-1-1.1-1-1.6 0-.6.5-.7 1-.4.6.3 1 1.1 1 1.6zm-17 18.9c0 .5-.4 1-1 1-.5 0-1-.5-1-1 0-.6.5-1 1-1 .6 0 1 .4 1 1zM439.396 180.1c0 1.5-2.6 3.9-3.4 3.2-.3-.4-.6-.1-.6.5s1 1.4 2.3 1.8c1.2.4 2.4 1 2.7 1.5.3.4 1.7 1 3.2 1.4 2.3.6 2.8.3 3.4-1.9.5-2.2.8-2.3 2.5-1.3 1.6 1 2.1.9 2.9-.3 1.2-1.9-.8-4.6-2.3-3.1-.7.7-1.6.6-2.6-.3-2.1-1.7-8.1-2.9-8.1-1.5z"/><path d="M243.996 251.5c-.4 1.6-1.3 2.5-2.6 2.5-2.3 0-3.4 1.5-2.3 3.2 1.8 3.1 1.2 4-2.2 3.5-2.8-.5-3.5-.2-4 1.4-.4 1.3-1.5 1.9-3.5 1.9-3.1 0-4.6 2.4-3.4 5.5.6 1.4 1.4 1.6 4.8 1.1 2.3-.4 4.6-1.4 5.3-2.2.7-1 1.9-1.3 3.1-1 1.1.4 2.3.2 2.7-.4.4-.6 1.3-.9 2.1-.6.7.3 1.7-.2 2.2-1.1.7-1.2 1.3-1.3 3.1-.4 1.4.8 2.1.8 2.1.1 0-.5.3-.9.8-.9 1.8.3 2-.3 1.2-3.2-.7-2.5-.6-3 .5-2.5.8.3 1.5.3 1.5 0 0-.8-9.1-9.4-10-9.4-.4 0-1.1 1.1-1.4 2.5zM274.896 255.7c.5 1.6 0 1.6-2.4.3-2.5-1.3-6.8.9-7.6 3.7-.3 1.3-1.6 2.5-2.9 2.9-1.4.3-2.7 1.2-3 2.1-.4.9-1.3 1.2-2.4.9-1.5-.5-1.8 0-1.9 2.6-.1 1.8-.3 4.1-.5 5.2-.4 2.4-5.7 7.8-6.9 7-.5-.3-1.2.2-1.5 1-.3.9-1.4 1.6-2.4 1.6-2.8 0-3.7 2.3-4 10.5-.1 1.1-.8 2.8-1.7 3.7-1.6 1.7-1.4 2.1 1.9 5.6 3.6 3.8 5.4 7.8 3.6 8.4-1.6.6.3 3.8 2.2 3.8 2.2 0 4.5 2.6 3.1 3.4-.6.4-.7 1.4-.4 2.2.3.9 0 2-.8 2.6-1.1.8-1 .9.4.4 1.9-.6 2.5 1.8.7 2.9-.8.5-.7 1.2.2 2.2 1 1.3.8 1.9-1.7 3.9-1.7 1.3-3.4 2.4-3.8 2.4-.5 0-1.7 1-2.7 2.2-1.8 2.3-1.8 2.3 2.3 3.5 5.4 1.6 5.7 1.6 5.7-.3 0-1.5.2-1.5 2.4-.1 4.2 2.8 8.9 3.1 13.4.8 4.8-2.5 9-2.7 9.8-.6.4.8 1.1 1.5 1.8 1.5.6 0 1.9 1.4 2.9 3.2 1 1.8 2.1 2.8 2.5 2.2 1.1-1.4 4.2-1.3 4.2.2 0 .8.5 1.4 1 1.4 1.9 0 1 3.9-1 4.5-1.9.6-1.9.8-.5 2.8.8 1.2 1.5 3.1 1.5 4.3 0 1.5 1.2 2.9 3.5 4.3 2.5 1.4 3.5 2.7 3.5 4.5 0 1.8 1 2.8 4.3 4.4 2.4 1.1 4.9 2.7 5.6 3.5.7.9 2.6 1.9 4.2 2.2 1.6.4 3.4 1.5 3.9 2.6.8 1.4 1.7 1.8 3.4 1.3 2.5-.6 9.6 1.9 9.6 3.4 0 .5 1.1 1.4 2.4 2.1 1.3.7 2.9 2.4 3.5 3.7.6 1.3 1.9 2.4 3 2.4 2 0 3.7 3.2 3.2 5.8-.4 2.2 2 8.2 3.2 8.2 2.3.1 5.7 3.8 5.1 5.4-.3.9-1 1.6-1.5 1.6s-.9.4-.9 1c0 .5.6.7 1.3.5 3.3-1.1 8.3-1.3 9.4-.3.7.6 1.3.7 1.3.4 0-.4 1 0 2.1.8 1.2.8 2.7 1.2 3.4 1 .6-.3 1.8.2 2.5 1.1 1.3 1.6.7 3-1.3 3-.7 0-1.2 1.9-1.2 5v5l4.3-.3c3.6-.3 4.2-.1 4.2 1.6 0 1.1 1.6 3.2 3.6 4.7 1.9 1.5 3.3 3.2 3.1 3.8-.3 1.1.6 2.4 5.1 7.3 1.2 1.4 2.2 2.9 2.2 3.5 0 .5.7.9 1.5.9 1.8 0 3.2-6.7 1.6-8.3-2.1-2.1-1.1-6.9 2.5-12.9 4.1-6.7 4.6-11.3 1.9-18.1-.5-1-.3-1.7.5-1.7s1-.8.7-2.1c-.4-1.5 0-2.3 1.4-2.6 3.1-.8 2.5-6.6-.9-10.1-4.1-4.1-4.4-5.6-1.8-8.3 2.1-2.2 2.2-2.7 1.1-5.9-.7-1.9-1-4-.8-4.7.2-.6-.3-2.5-1.1-4.1-1.3-2.5-1.3-2.9-.1-2.8.7 0 1.4-.2 1.4-.7.3-2.8-.3-3.8-3.6-5.7-2.1-1.3-3.2-2.5-2.5-2.7.7-.3 1.2-2.4 1.2-5.4 0-4 .3-4.9 1.8-4.9 1.2 0 1.8-.9 1.9-3 .2-2.4-.6-3.8-3.5-6.5-3.4-3.2-7.1-4.8-5.7-2.5 1 1.5-4.8 1.2-7.1-.4-1.6-1.2-2.2-1.2-4.5.1-1.7 1-3.4 1.3-4.5.8-1.1-.4-2.8-1-3.9-1.2-3.7-.6-11.6-4.4-13.7-6.5l-2.1-2.1-2 2.7c-1.8 2.5-2 2.6-3.3.9-.7-1-1.4-3.5-1.4-5.5 0-3.3-.6-4.2-4.2-6.8-2.2-1.6-3.6-3-3-3 1.7 0 1.5-3-.3-3.6-1.2-.5-1.1-.9.7-2.4 2.1-1.6 2.1-1.8.5-3.5-1-.9-2.4-3.2-3.2-5.1-.8-1.9-2.1-3.4-3.1-3.4-1.2 0-1.5-.6-1.2-2.5.4-1.6-.1-3-1.4-4.2-1.3-1.2-1.7-2.5-1.3-4.1.4-1.7 0-3.1-1.5-4.7-1.2-1.3-2.1-3.1-2-4.1.1-1.1.2-2.4.1-3.1-.2-1.9-7.4-8.3-9.4-8.3-.9 0-2.2-1.1-2.8-2.4-.7-1.4-1.9-2.4-2.8-2.4-7.4.1-17.4-4.4-17.9-8.3-.4-2.8-2.2-5.1-2.2-2.9-.1 1.3-.3 1.3-1.3 0-1.5-1.9-6.9-2.1-6.2-.3zm77.5 154c0 .7.4 1.3.9 1.3s1.1.9 1.4 2c.8 3 .1 2.5-3.3-2.4-3.5-5.1-3.9-6.7-1-4.1 1.1 1 2 2.4 2 3.2zM223.896 272c-.3.5-.1 1 .4 1 .6 0 1.1-.5 1.1-1 0-.6-.2-1-.4-1-.3 0-.8.4-1.1 1z"/><path d="M335.196 316.7c-2 .5-2.2 1.2-1 3.1.6.9 1.2.6 2-1.3.6-1.4 1.1-2.4.9-2.4-.1.1-1 .3-1.9.6zM384.896 336.4c1.1.8 2.3 1.2 2.8.9 1.3-.8-.3-2.3-2.6-2.3-2 0-2 0-.2 1.4zM389.396 343c0 .5.9 1.4 2 2 1.1.6 2 .9 2 .8 0-.2-.9-1.1-2-2.1-1.1-.9-2-1.3-2-.7z"/></g></svg>