<svg version="1" xmlns="http://www.w3.org/2000/svg" width="619.482" height="622.559" viewBox="0 0 464.612 466.919"><g fill="#222"><path d="M90.447 2.41c-1.4 1.6-3.2 2.7-4 2.4-.9-.3-1.4.1-1.4 1.2 0 4.1-2.5 9.8-4.7 10.8-1.3.5-2.3 1.6-2.3 2.4 0 .7-.9 1.3-2 1.3-1.3 0-2 .7-2 1.9 0 1.1-.4 2.3-1 2.6-.5.3-1 1.5-1 2.5 0 1.6-.5 1.8-3.2 1.3-5.4-.9-13.1-.3-14.9 1.2-.8.8-2 1.5-2.5 1.5-.6 0-1.6.6-2.2 1.2-2.3 2.3-9.3 3.5-14.1 2.4-3.7-.8-4.4-.7-5.3.8-.7 1.3-1.3 1.4-2.3.6-1.6-1.3-4.5-.3-4.5 1.7 0 1-.6 1.3-1.6.9-.9-.3-1.8-.6-2-.6-.3 0-.3-.4.1-.9.3-.6-.4-1.5-1.5-2.1-1.8-1-2.2-.8-2.7.9-.3 1.2-1 2.1-1.7 2.1-.6 0-.5.4.3.9 1.1.7 1.4 2.6 1.2 6.8-.1 3.2-.6 6-1 6.3-.5.3-1 1.1-1.3 1.9-.2.9-2.1 1.6-4.4 1.8-5.3.4-6.4.9-6.4 3.1 0 1.1-.6 2.5-1.4 3.1-1.2 1-.8 2 2.4 6.4 2.2 2.9 3.8 5.4 3.7 5.7-.1.3.8 2.1 1.9 4 1.2 1.9 2.2 4.9 2.2 6.7 0 1.7.5 4.1 1.1 5.2.6 1.1 1 2.6.9 3.2-.2.7 1.1 1.9 2.7 2.7 4.6 2.3 7.5 5.3 7.5 8 0 1.4.3 2.2.6 1.9.4-.3 1.5-.2 2.5.4 1.5.8 1.7 1.4.8 3.7-.6 1.5-.8 4.1-.4 5.8.5 2.8 1.1 3.3 5.2 4.3 3.9 1 4.8 1 5.5-.3 1.1-1.9 5.8-.7 7.2 2 .6 1 1.4 2.1 1.7 2.4.4.3.9 1.6 1 2.9.2 1.3 1.1 2.7 1.9 3.1 5.4 2.7 7 3.1 8.8 2.6 1.4-.5 2.7 0 4.1 1.5 1.2 1.3 2.1 2.6 2.1 3 0 .7 3.9 2.2 5.3 2 .4-.1 2.4-.3 4.5-.5 6.1-.7 8.1-1.6 7.5-3.3-.5-1.3-.3-1.3 1.7-.3 1.8 1 2.1 1.8 1.7 4.4-.4 2.5-.1 3.5 1.4 4.4 1.3.8 1.9 2.4 1.9 4.6 0 3.5 3.1 6.6 6.5 6.6 1.2 0 1.3.4.6 1.8-.6 1-.7 2.8-.4 4 .5 2 .2 2.1-2.8 1.6-1.9-.3-2.9-.2-2.3.3.7.4 2 2.4 3.1 4.3 1.9 3.4 3.8 4.3 11.4 5.3 1.5.2 4 1.4 5.7 2.6 1.7 1.1 3.4 2.1 3.9 2.1.4.1 1.7.9 2.9 1.8 1.6 1.4 2.2 3.4 2.7 8.9.5 6.5.4 7.3-1.6 8.6l-2.1 1.4 2.2 3c1.2 1.7 2.2 4.3 2.2 5.7 0 1.4.5 2.6 1.1 2.6.6 0 .9.9.6 1.9-.3 1.1.2 2.9 1 4 .8 1.2 1 2.1.4 2.1-2.3 0 4.8 9.2 9.5 12.3 2.7 1.7 4.9 3.6 4.9 4.2.1 1.9 3.7 9.6 4.3 9.1.3-.3 1.1-.1 1.9.5 2 1.7 1.6 7.3-.7 9.4-1.4 1.3-1.7 2.2-1 2.9.5.5 1 1.8 1 2.8 0 1 .5 1.8 1.1 1.8.5 0 .7.4.4 1-.4.6.6 1 2.4 1 3.7 0 4.3.9 4.7 7.3.4 5.4-.4 6.7-4.3 6.7-1.7 0-2.3.6-2.3 2.4 0 1.3 1 3.6 2.3 5.2 1.2 1.6 2.1 3.1 2 3.4-.3.5.4.5 2.6.1.5 0 1.2-2.1 1.5-4.5.7-4.4.8-4.4 3.5-3.5 1.6.6 3.4 2.1 4.1 3.4.7 1.4 1.9 2.5 2.5 2.5.7 0 1.5 1.9 1.9 4.2.9 5.5 1.5 6.2 3.6 4.3 1.3-1.2 2.3-1.3 4.3-.6 1.6.6 3.7.7 5.4.1 1.5-.5 3.7-.8 4.8-.8 1.1.1 4.1.1 6.7 0 4.2-.2 4.8-.5 5.4-2.8.4-1.5 1.2-2.3 2-2 .7.3 1.6.1 1.9-.5.4-.5 1-.7 1.5-.4.5.3 1.2.1 1.5-.5.4-.6 2.1-.8 4.2-.4 3.1.6 3.5.4 3-1-1.1-2.7 1.9-1.9 6 1.6 2 1.8 3.4 2.7 3 2.1-1.1-1.7 3.2-7.3 5.5-7.3 1 0 1.8-.7 1.8-1.5s.9-2.4 2-3.5c1.9-1.9 1.9-2-.2-3.1-1.1-.6-1.6-1.4-1.1-1.8.7-.4.7-3 .2-7.1-.6-4.9-.5-6.7.5-7.5.7-.6 1.1-1.6.8-2.3-.2-.7.5-2.3 1.6-3.5 1.8-1.9 2-2.8 1.2-6.2-1.3-5.6-1.2-6 .8-4.3 2.5 2.2 5.6 2.7 8.1 1.4l2.2-1.2-2.1-2.7c-1.2-1.5-2.5-2.5-3-2.2-.5.3-1.1.1-1.5-.5-.3-.5 0-1 .7-1 1.1 0 1.1-.2 0-.9-1-.6-.7-1.2 1.1-2.4 1.4-.9 2.8-1.3 3.2-.9.3.4 1.2.7 1.8.7 2.5.1 8.2 1.8 9.4 2.7.9.7 1.5.3 2.2-1.4.9-2.4 6.5-7.8 8.1-7.8.6 0 1.7-2.7 1.9-4.6 0-1.2 8.7-7.4 9.7-7 .6.3 1.7-.1 2.3-.7 1.9-1.9 1.2 1.6-.8 4-1.2 1.5-3 2.3-5 2.3-1.9 0-3.1.5-3.1 1.3 0 .7-.9 2.3-2 3.5-1.1 1.1-1.7 2.8-1.4 3.6.3.8.2 2.1-.2 2.8-.5.7-.7 2.3-.5 3.6.2 2.1 0 2.2-1.7 1.3-1.5-.8-2.1-.7-2.5.4-.3.7-.2 1.5.4 1.7.5.2 1 2.2 1.2 4.4.2 3.5.5 4.1 2.1 3.8 2.6-.5 3.6-2.4 2.9-5.4-.6-2.3-.5-2.4 1.1-1.1 1.3 1.1 1.9 1.2 2.5.3.5-.9 1.2-.8 2.7.2 1.8 1.4 1.8 1.6.2 3.2s-1.5 2 1.2 7.1c3.9 7.1 3.9 8.3-.5 8.3-1.9 0-3.5.4-3.5.9s-.9.7-2 .4c-2.3-.6-5.1 2.3-4.3 4.4.3.8-.2 1.3-1.3 1.3-1.3.1-.4 1 2.4 2.6 2.3 1.4 4.2 3.2 4.2 3.9 0 1.9 3 4.1 3.8 2.8 1.1-1.6 5.5.4 4.8 2.2-.5 1.3-.2 1.3 1.9-.1 2.6-1.7 2.5-3.3-.3-3.5-.9 0-1.2-.3-.5-.5.6-.3 2.7.2 4.6 1 3.1 1.2 3.7 1.3 4.8 0 .6-.7 1.5-1.1 2-.9 1.5 1 5.9-.7 5.9-2.2 0-.7.6-1.3 1.3-1.2 3.1.4 3.8-.1 2.7-2-1.4-2.7-1.3-3.1 1-3.1 2.2 0 2.5-1.2.9-4.1-.9-1.7-.7-2 .8-1.7 1.2.2 1.9-.4 2.1-2 .2-1.4-.2-2.2-1.2-2.2-.8 0-1.7-.9-2.1-2-.3-1.1-.9-1.9-1.3-1.7-1.2.4-8.2-4.2-8.8-5.7-.7-1.9-6.1.1-6.7 2.6-.6 2.3-3.5 3.4-5 1.9-.9-1-.8-1.5.6-2.2.9-.6 1.7-1.7 1.7-2.4 0-.8.7-1.5 1.5-1.5 1.7 0 1.9-1.3.6-5.8-.9-3-.8-3.2 1.3-2.6 2.2.5 2.3.3 2.1-3.3-.2-4.2-2-8.3-3.6-8.3-.6 0-.7-.5-.4-1 .3-.6 1.4-1 2.4-1 1.1 0 2.6-2 4.3-5.4l2.6-5.3-2-1.8c-1.7-1.4-2.2-1.5-2.9-.4-.5.8-.9.9-.9.4 0-.6-.7-.1-1.5.9-1.3 1.7-1.5 1.8-2.1.2-.7-1.9 1.2-4.6 3.2-4.6.8 0 1.9-1.1 2.4-2.5 1-2.6 3-3.4 3-1.3 0 .7.8.3 1.8-1 1.2-1.5 2.4-2.1 3.5-1.6 1.2.4 1.7.1 1.7-1 0-2.3 2.6-2 4.4.6 2.1 3 2 4.1-.4 3.5-2.7-.7-2.5.5.5 3.3 1.5 1.4 3.1 2.1 4.5 1.7 2.5-.6 3.3.7 3.2 4.9-.1 2.1.4 3.4 1.4 3.8 1.3.5 1.4.9.5 2-1.1 1.4-.5 4.6 1.1 5.7.5.3.3 2.4-.4 4.7-1 3.2-1.7 4.1-3 3.6-1.1-.3-1.9.2-2.3 1.6-.3 1.1-1.3 2-2.1 2s-1.4.4-1.4.9-.9 1.3-2.1 1.6c-2.1.7-2.1.7.2 2.8l2.4 2.2-2.3.3c-3.1.5-2.9 3.8.4 4.6 1.7.5 2.4 1.2 2 2.1-.3.8-.1 1.4.4 1.2.5-.1 1.5.6 2.3 1.7.7 1 2.5 1.8 4 1.8 2.5 0 3.1.8 5.1 7 .3 1 .1 1.8-.4 1.8s-1.2.9-1.5 2.1c-.4 1.2-1.3 1.8-2 1.5-2.1-.8-3.8 4.9-1.9 6.5 1.5 1.2 1.3 2.7-.8 8.2-.6 1.6-1.6 2.6-2.4 2.3-.7-.3-2.1 1-3.2 2.8-2.6 4.3-7.6 7-9.3 5-.6-.8-1.5-1.2-1.9-.9-.5.3-1.1.1-1.5-.5-1.2-2-2.5-1-2.5 2 0 2.7-.3 3-2.8 2.7-1.6-.2-4.4-1.4-6.3-2.7-2.1-1.5-2.9-1.8-2-.7 1.2 1.5.8 2.3-3.8 6.7-2.8 2.8-5.8 5-6.6 5-1.5 0-7.1 6.7-6.3 7.5.2.3 1.7.6 3.2.7 2.1.2 2.9.9 3.3 3.1.3 1.6 1.2 3.1 1.8 3.4.7.2 1.6 1.9 1.9 3.7.4 1.8 1.6 4.2 2.8 5.2 2.1 1.9 2.1 1.9 1.6-.3-.5-1.8-.1-2.3 2.3-2.8 4.7-1.1 6.7 1.2 2.7 3-2.9 1.2-3.5 5.1-1.3 7.5 1.1 1.2 1.3 2 .6 2.5-.6.3-1.1 1.5-1.1 2.6 0 1.6-.7 1.9-4 1.9-6.1 0-5.2 2.5 1 2.6 4.8.1 5 0 6.1-3.3.9-2.7 1.4-3.2 2.5-2.2.7.6 1.2 1.5.9 1.9-.3.4.2 1.1 1.1 1.4.9.3 1.2 1.1.8 1.8-.6.9-.3.9.9 0 1.3-1.1 2.3-1.2 5.4-.1 5.3 1.8 8.9 1.3 15.6-2.2 3.2-1.7 6.4-2.8 7.2-2.5.7.2 1.5 0 1.8-.7.3-.9 1.1-.9 3.2.1 2.6 1.2 3 1.1 4.7-1 1-1.3 2.3-3.5 3-4.9 1.1-2.5 1.3-2.6 3.5-1.2 1.5 1 2.3 1.1 2.3.4 0-.6 1.1-1.1 2.5-1.1s2.5-.6 2.5-1.4c0-.7 1.1-2.5 2.5-4 2.4-2.6 2.4-2.6 6-.9 3.2 1.5 3.6 2.1 3.2 4.6-.3 2.3.2 3.1 2.3 4.2 1.4.7 3.2 2.1 3.9 2.9.7.9 1.7 1.3 2.2 1.1 1.4-.9 5.9.7 5.9 2.1 0 2.2 3.6 3.6 5 1.9 1.8-2.2 2.9-1.8 4.2 1.2 2.1 4.9 4.8 7.7 8.6 9 2.8.9 3.8.9 4.4 0 1-1.6 9.1 2.6 13.6 7 3.4 3.4 5.2 4.1 5.2 2.2 0-.8 1.1-.9 3.3-.5 1.7.4 4.2.9 5.4 1 1.3.2 2.9.9 3.8 1.6 1.3 1.1 1.5.8 1.5-1.9 0-3.3.2-3.4 7.3-1.4 1.2.3 1.7-.1 1.7-1.6 0-1.2.6-2.1 1.3-2.1.8 0 2.4-1.1 3.6-2.4 2.2-2.3 2.2-2.5.6-4.9-1.1-1.8-1.3-2.7-.5-3.2.6-.4.9-1.3.6-2-.3-.8.4-1.7 1.5-2 1.9-.6 1.9-.7-.1-3.2-2.2-2.8-1.9-4.3.4-2.4 1.2 1 1.7.9 2.8-.8.7-1.2 1.8-2.1 2.4-2.1 1.3 0 4.4-7 4.4-10 0-1.1.5-2 1-2 .6 0 1-1.1 1-2.5s.5-2.5 1-2.5c.6 0 1-.9 1-2 0-1.3.7-2 1.9-2 1.4 0 2.2-1 2.7-3.3.3-1.7 1.7-4.2 3-5.4 2.8-2.6 3-3.6.9-5.3-.8-.7-1.5-2.9-1.5-4.9 0-3.7 3.9-13.3 5.9-14.6.8-.4.9-1.1.2-1.9-.5-.6-1.1-2.9-1.3-5.1l-.3-4-4.2.3c-3.8.3-4.3.1-4.3-1.8 0-1.1-.7-2.3-1.5-2.6-.8-.4-1.5-1.2-1.5-2 0-1.8-3.2-1.8-7.7.1-3.3 1.4-3.8 1.4-7-.6-2.8-1.8-3.2-2.4-2-3 .9-.6 1.3-1.7 1-2.9-.7-2.6-7.5-8-10-8-1.1 0-2.3-.3-2.7-.7-.4-.4-1.4-.8-2.3-.8-.8 0-2.4-2-3.6-4.5-2.2-4.4-2.2-4.5-6.9-4.2-2.5.2-5.5-.2-6.6-.9-1.6-1-2.4-1-3.5-.1-1.2 1-1.8.8-3.1-1.3-.9-1.4-2.1-2.3-2.6-2-.6.4-1-.1-1-.9 0-2-3.1-2.6-5.1-.9-1.3 1-2.1.8-5.3-1.3-2.4-1.7-4.7-2.4-6.2-2.1-1.9.3-2.6-.1-3-2-.4-1.4-.2-3.5.4-4.8 1-2.1.7-2.4-2.9-3.8-2.3-.9-4.3-2.5-4.8-3.9-1-2.5-.9-4.4 0-4.1 1.4.5 1.6-3.7.4-5.4-1.1-1.4-1.6-1.6-2.6-.6-.7.7-1.8 1.3-2.3 1.3-1.5 0-7.6-5.5-7.6-6.9 0-.7-2.2-1.1-5.8-1.1-5.2 0-5.8-.2-5.8-2 .1-2.7-1.8-2.6-2.2.2-.2 1.3-1 2.8-1.9 3.5-.9.7-1.2 1.9-.8 3.2.3 1.2.3 2.1-.2 2.1-1.3 0-4.4 8.5-3.7 10.3.9 2.4-2.8 2.2-4.9-.1-2.2-2.4-2.1-3.2.4-3.2 1.1 0 1.9-.3 1.7-.8-.2-.4-1.6-3.1-3.1-6-2.3-4.5-3.1-5.2-5.7-5.2-3.4 0-4.5-1.3-2.5-3 2.1-1.7 1.9-2.7-.6-3.3-1.2-.3-1.8-1-1.4-1.7.4-.6-.1-1.7-1.1-2.5-1.5-1.1-1.6-1.5-.5-2.9.7-.9 1.1-2.2.8-3.1-.4-.8.1-1.8.9-2.3 1.3-.7.9-1.4-2-3.5-1.9-1.5-3.9-2.7-4.5-2.7-.6 0-1.1-1.2-1.1-2.6 0-2.9-3.4-6.3-6.4-6.4-1 0-4.1-1.2-6.9-2.6-3.4-1.7-5.9-2.3-7.6-1.9-1.9.5-3-.1-5.3-2.5-1.8-2-3.4-3-4.4-2.6-1.2.5-1.5 0-1.2-2.4.2-2.4-.2-3.3-2.2-4.3-1.4-.7-2.6-2.3-2.8-3.5-.2-1.3-1.6-2.9-3.5-3.8-1.8-.9-4-2.4-5-3.3-2.2-1.9-7.6-1.6-9.2.6-.6.8-3 1.7-5.3 2-3.7.5-4 .7-3.1 2.5 1.2 2.2-.3 4.8-2.7 4.8-.8 0-1.4 1-1.4 2.4 0 2.7-.8 3.4-6 5.4-4.8 1.9-11.2 1.6-12.8-.6-.7-.9-1.8-1.6-2.3-1.4-.5.1-.8-.3-.7-1 .5-1.9-4.5-2.7-6.5-.9-2.5 2.1-8.7 2.4-10.9.5-.9-.9-2.1-1.3-2.7-1-1.4.9-6.1-2.2-6.1-4 0-.7.9-2.8 2-4.8l2.1-3.4-4-3.2c-2.2-1.8-4.4-4.5-5-6.1-.5-1.6-1.7-2.9-2.5-2.9-.9 0-1.6-.5-1.6-1.1 0-.6-.9-.9-2-.6-2.5.6-3.6-.9-1.9-2.9 1.3-1.6 1.4-1.6-2.3-3.2-1.7-.7-2.8-.8-2.8-.2 0 1.7-5.6 1.1-7.3-.8-1.5-1.6-1.5-1.9.3-2.9 1.8-1.2 1.8-1.3-.1-6.3-1-2.7-1.5-5-1-5s1.2-1.6 1.5-3.6c.5-2.6.1-4.7-1.5-8.1-1.6-3.3-1.9-5-1.2-6.2 1.4-2.3-.3-7.8-2.6-8.6-1.1-.3-2.5-1.3-3.2-2.1-1-1.3-1-1.7.2-2.5.8-.5 2-.7 2.7-.4.6.2 1.2 0 1.2-.6 0-1 5.9-3.9 8-3.9.5 0 1 .9 1 2 0 1.8-1 2.5-3.2 2.1-1.2-.2-1 1.7.2 2.4.6.3 1 .1 1-.6s1-.9 2.9-.6c3 .6 3 .7 5-5.6.8-2.2.6-2.9-1.1-3.8-1.9-1-1.9-1.1-.1-2.4 1.7-1.3 1.7-1.6.3-4.2-1.5-2.7-1.9-2.8-9.3-2.9-7.4-.1-8-.3-10.9-3.3-1.7-1.7-4.1-3.4-5.4-3.7-1.3-.3-2.4-1-2.4-1.5 0-.4-1.4-1.6-3.1-2.6-1.9-1.2-2.9-2.4-2.6-3.5.6-2.1-1.4-3.8-7.5-6.7-2.5-1.2-4.9-2.9-5.2-3.7-.3-.8-1.7-1.9-3.2-2.4-2.1-.8-3.1-.7-4.5.6-1.5 1.4-2.1 1.4-3.4.4-.8-.7-1.5-1.7-1.5-2.2 0-.5-1.1-2.4-2.4-4.1-1.4-1.8-2.7-4.5-3-6.1-.7-3.9-1.3-4.3-3.4-2.3-1.2 1.3-1.4 2-.5 2.5.6.4 1.5 2.1 1.9 3.7.7 3 .7 3-1.3 1.2-1.4-1.2-2.2-1.4-2.5-.7-.2.8-1.6.7-4.5-.5-3.2-1.3-4.2-2.3-4.8-4.8-.4-1.8-.9-2.6-1.2-2-.6 1.5-2.2 1.6-4.3.3-1.3-.8-1.3-1.1-.1-1.9 1.1-.7 1.1-1.2-.2-3.2-1.2-1.6-1.3-2.6-.6-3.5.7-.8.7-1.4 0-1.8-.6-.4-2.2.7-3.7 2.3zm9.3 149.3c-.3.8-.6.5-.6-.6-.1-1.1.2-1.7.5-1.3.3.3.4 1.2.1 1.9zm207.3 41.3c.5-.3 1-.2 1 .3 0 1-6 2.5-6.8 1.7-.3-.2.1-1.1.8-2 .9-1.1 1.6-1.2 2.6-.4.7.6 1.8.8 2.4.4zm-20.6 7.1c.4.9.5 1.9.3 2.1-.8.8-3.7-1-3.7-2.3 0-1.9 2.6-1.8 3.4.2zm-.1 12.1c.4.3-.2 1.3-1.3 2-1.7 1.2-2.2 1.2-3.5-.1-1.1-1.1-1.2-1.6-.2-1.9 1.8-.8 4.3-.8 5 0zm-126.2 64.4l2.4 2.1-3-.4c-3.1-.3-4.7-1.6-3.9-3 .8-1.3 1.9-1 4.5 1.3z"/><path d="M350.047 188.61c0 .5.5.7 1 .4.6-.3 1-.8 1-1.1 0-.2-.4-.4-1-.4-.5 0-1 .5-1 1.1zM295.047 200.61c0 .5.5.7 1 .4.6-.3 1-.8 1-1.1 0-.2-.4-.4-1-.4-.5 0-1 .5-1 1.1zM368.547 207.51c.3.5.8 1 1.1 1 .2 0 .4-.5.4-1 0-.6-.5-1-1.1-1-.5 0-.7.4-.4 1zM241.747 234.51c-.3 1.1-.1 1.8.3 1.5.5-.3 1.1-.1 1.5.5.9 1.5 2.5 1.2 2.5-.5 0-.8-.9-1.9-1.9-2.4-1.5-.9-2-.7-2.4.9zM252.547 237.51c-1.7 3.3-1.5 4.7.4 3.5.6-.3.9-1.1.6-1.6-.4-.5.3-.9 1.4-.9 2.4 0 2.7-1.3.7-2.9-1.2-1-1.8-.7-3.1 1.9zM215.647 292.01c-.3.8-1.2 1.5-2 1.5s-1.9 1.3-2.5 3c-.7 2.2-1.6 3-3.3 3-1.3 0-2.8-.4-3.3-.9-.6-.6-1.5-.4-2.3.5-.7.8-1 1.4-.6 1.4s-.1.9-1.1 2c-1.6 1.7-1.6 2.4-.5 4.8 1.2 2.7 3.5 11.3 4.8 18.6.5 2.9 1.3 4.1 3.6 5l2.9 1.1-2.7 3.1c-1.7 2.1-3.8 3.3-6.4 3.8-4.2.6-7.1 4.3-5 6.4.6.6.2 1.6-1.2 3-1.4 1.3-2 2.7-1.6 3.7.7 2-3.1 7.4-6.2 8.6l-2.4.9 2.6 4.4c1.4 2.5 2.6 5.9 2.6 7.6 0 1.7.5 4 1 5.1.9 1.6.6 2.4-1.6 4.4-2.2 2-2.4 2.7-1.4 4 1.6 1.9-.8 7.5-5.1 12.1l-2.9 3 2.6 5.4c1.4 3 4.2 6.9 6.2 8.7 2 1.8 3 3.3 2.4 3.3-.8 0-.4 1.2 1 3 1.2 1.7 2.8 2.8 3.4 2.6.7-.3 2.7.9 4.4 2.7 2.9 3 3 3.2 1 3.9-2.8 1-2.5 2.4 1.1 4 2.6 1.1 3 1.7 2.5 4-.6 3 1 4.9 2 2.4.4-1 1.9-1.6 4-1.6 3 0 3.5-.4 4.1-3 .5-2.5 1-3 3.2-2.8 2 .2 2.6-.1 2.6-1.7 0-1.2.6-2 1.6-1.9 1.1.1 1.5-.5 1.2-1.6-.3-1.3.3-1.9 2.4-2.4 3.6-1 9-5 9.8-7.5.3-1 1.5-2.1 2.7-2.4 1.8-.5 2-1.1 1.4-4.6-.5-3.4-.4-3.9.9-3.5.8.4 1.5 1 1.5 1.5 0 .4.7.6 1.5.3.8-.4 1.5-.1 1.5.6 0 .9 1.2 1.1 3.9.7 2.7-.3 4.1-.1 4.4.8.7 1.8 6.4 2.7 9 1.3 1.2-.6 2.9-1.4 3.7-1.8.8-.4 1.6-1.7 1.8-2.9.4-2.3 1.7-2.8 2.5-.9.5 1.6 7.1 1.5 8.9 0 .7-.5 2.4-1.2 3.8-1.4 1.7-.2 2.8-1.2 3.5-3.3 1-2.9 1.2-3 5-2.3 5.6 1 12.7.9 14.4-.1.8-.5 1.1-1.6.8-2.4-.4-1.2.1-1.5 2.1-1.4 2.3.2 2.8-.4 4.1-4.3.8-2.5 1.7-4.7 2-5 3.1-2.6 2.8-8.5-.5-10.3-.9-.5-1.3-1.6-.9-2.8.5-1.5-.2-2.3-3.8-3.8-4.9-2.1-7.4-6.3-6.3-10.6.6-2.4-1.1-11.5-2.2-11.5-.3 0-1.3.7-2.2 1.5-1.5 1.3-1.9 1.3-3.8-.5-2.4-2.2-4.3-2.5-5.9-.9-.8.8-1.7.8-3.1 0-1.5-.8-2.1-.7-2.5.2-.3.9-3 1.4-8.1 1.5-7.4.3-7.7.2-6.6-1.7.5-1.1 2-2.7 3.3-3.6l2.2-1.6-3 .1c-5 .1-9.5-1.1-9.5-2.6 0-.8-.7-1.7-1.5-2-.8-.4-1.3-.9-1-1.4.2-.4-.4-3-1.5-5.9-1-2.8-1.9-5.4-2-5.6 0-.3-.3-1.2-.7-2-.3-.9.2-2.1 1.1-2.8 1.6-1.2 1.6-1.5.2-4.2-1.7-3.2-2.1-6.7-.9-7.9 1.1-1.1 1.1-5.1-.1-5.8-.6-.4-1.4-.2-1.8.5-.5.9-1 .9-1.9 0-.8-.8-1.8-.9-3-.3-2.3 1.3-3.2-.1-2.3-3.5.4-1.5.2-2.5-.5-2.5-.6 0-1.1.9-1.1 1.9 0 2.7-1.9 3.1-5.5 1.3-3.5-1.8-10.5-2.4-12.1-1.1-.7.6-2.2.5-3.9-.3-2.2-1-2.6-1.7-2.1-4 .3-1.5.3-3.5 0-4.3-.8-2-6-2-6.8 0zm58.4 70.5c-.9 2.2-1.5 2.8-2.1 1.8-.5-.7-.6-2.3-.3-3.4.4-1.5 0-2.5-1.2-3.2-1-.5-1.4-1.4-.9-2.2.5-.9 1.4-.5 3.3 1.3 2.3 2.4 2.4 2.8 1.2 5.7zm-69 72c0 .5-.4 1-1 1-.5 0-1-.5-1-1 0-.6.5-1 1-1 .6 0 1 .4 1 1z"/><path d="M258.047 315.61c0 .5.5.7 1 .4.6-.3 1-.8 1-1.1 0-.2-.4-.4-1-.4-.5 0-1 .5-1 1.1zM348.547 390.51c.3.5 1.1 1 1.6 1 .6 0 .7-.5.4-1-.3-.6-1.1-1-1.6-1-.6 0-.7.4-.4 1zM337.047 392.61c0 .5.5.7 1 .4.6-.3 1-.8 1-1.1 0-.2-.4-.4-1-.4-.5 0-1 .5-1 1.1z"/><path d="M334.047 395.71c0 1.6-1.1 2.8-3.6 4-4.6 2.4-5.9 2.3-8.7-.7-2-2.2-2.7-2.4-4.9-1.6-3.1 1.2-10.8 8.3-10.8 10 0 .6-.4 1.9-.9 2.9-2.3 4.7-2.9 8.1-1.5 9.3.8.6 1.4 2 1.4 3.1 0 1.5.4 1.7 1.8.9 1.3-.7 2.4-.4 4.2 1l2.5 2-2.6-.7c-2-.4-3 0-4 1.4-.8 1-2 2.1-2.6 2.3-1 .3-1 1 .1 3.1 1.3 2.4 1.2 2.7-.7 3.2s-1.9.6 1 3.6c3.5 3.6 6.3 3.2 6.3-.8 0-2.5.1-2.5 2.7 1.3 1.4 2.2 3.1 4.3 3.7 4.7.6.4.7.8.2.8-.5 0-.3.6.3 1.4 1.1 1.3 1.8 1.1 5.1-1.2 2.1-1.5 4.1-3.5 4.4-4.6.2-1 .9-1.5 1.5-1.2.5.4 1.3.1 1.6-.5.4-.5 1.3-.8 2.1-.5.8.3 1.4.1 1.4-.4s1.8-3 4-5.5 4.1-5.4 4.1-6.3c.1-.9.2-3.7.3-6.2l.1-4.5 4.3.1c3.2.1 4.2-.3 4.2-1.5 0-3.9 6.5-8.2 12.9-8.5.8-.1 2.3-1.5 3.3-3.2l1.8-3-3.3-3c-1.7-1.6-2.4-2-1.5-1 1.3 1.5 1.4 2.4.6 4.2l-1.1 2.3-2.9-3.1c-2.3-2.4-3.1-2.9-3.8-1.8-.7 1.1-1.1 1.1-2.2-.1-.8-.8-1.7-2.1-1.9-2.8-.4-1.1-.7-1.1-1.9.1-2.7 2.6-5.1 2.9-7.7.8-3.2-2.5-4.5-2.6-3.6-.3.7 1.7.6 1.7-2 0-3.4-2.2-3.7-2.2-3.7.5zm-20 27.8c0 .5-.2 1-.4 1-.3 0-.8-.5-1.1-1-.3-.6-.1-1 .4-1 .6 0 1.1.4 1.1 1zM312.047 451.01c1.4 3.8 1.3 5-.4 3.6-1.9-1.6-3.2.4-1.6 2.4.7.9.8 1.5 0 2-1.8 1.1-1.1 5.9 1 7.3 1.2.7 2 .8 2 .2 0-.6 1-.8 2.3-.5 1.2.3 2.7.2 3.3-.2 1.8-1.2 2.1-4.8.5-6.6-.7-1-.9-1.7-.4-1.7 1.6 0 3.5-5.2 2.3-6.4-.5-.5-1-.7-1-.4 0 .6-3.6-.2-7.3-1.7-1.5-.6-1.6-.4-.7 2z"/></g></svg>