<?xml version="1.0" standalone="no"?>
<!DOCTYPE svg PUBLIC "-//W3C//DTD SVG 20010904//EN"
 "http://www.w3.org/TR/2001/REC-SVG-20010904/DTD/svg10.dtd">
<svg version="1.0" xmlns="http://www.w3.org/2000/svg"
 width="987.693960pt" height="528.459590pt" viewBox="0 0 987.693960 528.459590"
 preserveAspectRatio="xMidYMid meet">
<metadata>
Created by potrace 1.15, written by Peter Selinger 2001-2017
</metadata>
<g transform="translate(-467.729962,1259.549036) scale(0.100000,-0.100000)"
fill="#222222" stroke="none">
<path d="M9196 12584 c-4 -10 -1 -21 5 -25 6 -4 8 -12 4 -19 -5 -9 -4 -11 3
-6 14 8 15 35 3 54 -6 11 -10 10 -15 -4z"/>
<path d="M9240 12535 c0 -8 -10 -25 -22 -37 -21 -21 -21 -21 -2 -35 10 -8 18
-18 17 -23 -4 -14 55 -33 82 -26 15 4 25 2 25 -4 0 -6 11 -15 25 -20 14 -5 25
-14 25 -20 0 -5 13 -10 28 -10 16 0 39 -9 51 -19 26 -23 51 -17 51 11 0 26 19
60 30 53 5 -3 24 10 42 28 28 28 32 37 24 53 -21 36 -65 49 -62 17 2 -24 -68
-40 -91 -22 -23 20 -106 37 -131 28 -12 -5 -24 -4 -27 1 -4 6 -15 10 -26 10
-10 0 -19 7 -19 15 0 8 -4 15 -10 15 -5 0 -10 -7 -10 -15z"/>
<path d="M10040 12524 c0 -9 -9 -18 -20 -21 -11 -3 -17 -9 -14 -15 3 -5 -5 -6
-19 -3 -20 5 -27 2 -32 -13 -9 -29 -43 -23 -68 12 -18 26 -21 27 -27 11 -4
-10 -22 -24 -41 -30 -25 -9 -34 -18 -35 -36 -3 -53 -23 -84 -39 -59 -8 13 -75
13 -75 1 0 -5 -12 -14 -27 -19 -16 -6 -22 -11 -15 -11 6 -1 12 -8 12 -17 0 -9
-5 -12 -12 -8 -16 10 -68 14 -100 8 -20 -4 -25 -10 -21 -22 6 -15 5 -15 -11
-2 -16 12 -19 12 -27 -3 -6 -9 -15 -17 -22 -17 -23 0 -97 -45 -97 -59 0 -10
-9 -12 -35 -7 -30 6 -35 4 -35 -12 0 -11 -10 -26 -22 -34 l-22 -15 22 -12 c30
-16 28 -33 -6 -52 -27 -15 -30 -15 -41 0 -6 9 -9 10 -6 4 9 -18 -3 -16 -33 6
-15 10 -51 21 -79 25 -48 6 -53 5 -53 -13 0 -11 -5 -23 -11 -27 -8 -5 -8 -9 1
-14 9 -5 6 -10 -10 -15 -17 -5 -28 0 -51 24 -15 17 -36 31 -46 31 -10 0 -31 9
-47 19 -32 21 -59 18 -30 -3 12 -9 14 -15 6 -20 -7 -4 -12 -3 -12 2 0 6 -7 13
-15 16 -11 4 -19 -3 -25 -19 -5 -14 -18 -25 -28 -25 -12 0 -24 -16 -37 -50
-20 -51 -46 -70 -69 -51 -14 12 -58 3 -50 -11 3 -5 -2 -15 -12 -23 -18 -13
-18 -14 1 -35 11 -13 20 -38 22 -66 2 -52 19 -80 37 -65 19 16 59 -10 68 -44
5 -16 11 -43 13 -58 4 -24 1 -28 -12 -23 -16 6 -16 5 -1 -11 28 -30 39 -70 27
-96 -8 -17 -8 -35 0 -62 8 -31 7 -42 -7 -61 -9 -13 -24 -24 -32 -24 -11 0 -16
-10 -16 -35 0 -19 5 -35 11 -35 20 0 -20 -20 -42 -20 -12 0 -23 -5 -25 -11 -2
-7 -16 -1 -32 15 -31 28 -41 31 -51 16 -3 -5 -12 -7 -20 -4 -8 4 -12 11 -9 16
4 6 1 14 -7 18 -11 7 -11 13 0 34 11 21 12 28 1 41 -18 21 -39 19 -33 -4 3
-12 0 -19 -9 -18 -43 2 -48 -2 -36 -28 9 -19 7 -29 -6 -50 -10 -15 -15 -33
-12 -40 3 -8 1 -17 -5 -21 -6 -3 -7 -23 -4 -48 6 -39 5 -44 -16 -49 -15 -4
-26 -1 -32 8 -11 20 -27 19 -51 -4 -20 -19 -23 -19 -55 -3 -26 12 -36 13 -39
4 -2 -6 -23 -21 -48 -31 -35 -16 -44 -25 -44 -44 0 -14 7 -27 15 -31 23 -8 19
-18 -20 -49 l-35 -28 -9 23 c-9 21 -10 22 -10 3 -1 -12 -6 -26 -13 -33 -8 -8
-8 -15 2 -27 10 -12 10 -15 -4 -15 -13 0 -14 -4 -3 -27 9 -21 9 -27 -1 -31 -6
-2 -12 -14 -12 -28 0 -17 4 -22 15 -18 8 4 15 2 15 -4 0 -11 -124 -5 -155 8
-11 4 -27 11 -35 14 -8 3 -25 13 -37 22 -22 16 -23 15 -32 -7 -5 -13 -5 -29 0
-35 9 -11 1 -54 -10 -54 -4 0 -12 5 -19 12 -16 16 -38 -13 -47 -61 -7 -37 -49
-86 -66 -76 -6 4 -13 -3 -16 -14 -4 -16 -9 -19 -19 -10 -7 6 -10 17 -7 25 3 8
1 14 -5 14 -6 0 -12 -4 -14 -10 -1 -5 -27 -11 -55 -12 -29 -1 -53 -6 -53 -9 0
-10 -62 8 -69 19 -12 17 -41 22 -41 7 0 -8 -7 -18 -16 -23 -15 -8 -14 -13 7
-43 13 -19 27 -35 32 -37 15 -7 6 -21 -9 -15 -13 5 -15 3 -6 -13 7 -14 6 -24
-3 -38 -13 -17 -15 -17 -42 8 -27 25 -27 26 -6 26 15 0 21 5 17 14 -3 8 -19
13 -42 12 -28 -1 -39 4 -46 19 -9 20 -48 45 -71 45 -6 0 -24 14 -40 30 -16 17
-26 30 -22 30 4 0 0 11 -9 25 -22 34 -30 25 -26 -29 3 -31 9 -46 18 -46 8 0
19 -12 25 -27 5 -14 21 -37 34 -49 14 -13 25 -25 25 -27 0 -2 -22 -14 -50 -27
-45 -21 -51 -22 -67 -8 -25 22 -65 29 -101 19 -23 -7 -34 -6 -43 5 -6 8 -15
14 -20 14 -5 0 -30 14 -56 30 -51 32 -73 38 -73 17 0 -20 -60 -77 -82 -77 -10
0 -17 4 -14 9 3 4 -6 13 -19 19 -15 7 -25 8 -25 2 0 -18 -22 -10 -27 10 -3 11
-9 20 -13 20 -5 0 -15 3 -24 6 -11 4 -16 1 -16 -10 0 -9 -8 -16 -18 -16 -10 0
-23 -5 -29 -11 -13 -13 -70 10 -97 40 -11 11 -27 21 -36 21 -22 0 -70 37 -70
54 0 7 -11 23 -25 36 -14 13 -25 18 -25 11 0 -9 -5 -9 -20 -1 -14 8 -19 17
-15 30 4 13 -1 23 -14 32 -12 7 -21 18 -21 25 0 7 -11 13 -25 13 -18 0 -25 -5
-25 -20 0 -14 -7 -20 -21 -20 -11 0 -18 -4 -14 -10 6 -10 -49 -7 -76 4 -13 6
-16 2 -12 -19 4 -20 2 -24 -11 -19 -22 8 -22 64 0 64 10 0 14 6 11 14 -3 8 -1
28 5 44 6 16 8 38 4 48 -8 18 -9 18 -19 -3 -5 -13 -16 -23 -23 -23 -7 0 -16
-9 -19 -20 -3 -11 -15 -25 -26 -31 -11 -5 -17 -14 -14 -20 4 -5 2 -9 -4 -9 -9
0 -28 -125 -22 -145 9 -28 4 -40 -17 -41 -13 -1 -29 7 -35 17 -20 32 -35 21
-41 -28 -4 -27 -8 -59 -10 -73 -6 -53 -27 -94 -51 -98 -24 -5 -37 18 -19 35
18 19 18 28 -3 44 -11 10 -17 10 -20 3 -2 -7 -17 -9 -44 -4 -37 7 -40 6 -37
-14 1 -11 -1 -27 -6 -34 -4 -7 -2 -19 4 -27 10 -12 9 -15 -6 -15 -18 -1 -18
-1 -1 -11 25 -14 86 -82 87 -94 0 -16 -51 -10 -64 6 -13 19 -46 32 -46 19 0
-5 5 -12 10 -15 6 -4 8 -11 4 -16 -3 -6 1 -16 9 -22 8 -7 17 -20 20 -29 5 -14
1 -18 -18 -18 -22 0 -25 -4 -25 -34 0 -19 -4 -38 -10 -41 -5 -3 -10 -15 -10
-25 0 -12 -14 -25 -40 -36 -22 -10 -40 -20 -40 -23 0 -3 16 -16 35 -29 32 -20
48 -52 26 -52 -6 0 -5 -15 1 -36 5 -20 6 -43 2 -52 -20 -47 7 -83 65 -85 24
-1 41 -7 41 -14 0 -6 9 -15 20 -18 11 -3 20 -10 20 -15 0 -4 7 -10 15 -14 12
-4 14 0 11 19 -5 28 -3 29 25 14 14 -7 29 -7 50 0 22 8 32 7 44 -5 19 -20 40
-59 27 -50 -5 3 -12 -3 -15 -14 -4 -15 0 -20 14 -20 11 0 22 7 26 17 5 14 8
13 14 -5 6 -14 17 -22 33 -22 13 0 26 -5 28 -11 2 -5 25 -12 51 -14 27 -2 54
-9 61 -14 9 -7 16 -7 23 0 8 8 13 7 19 -2 4 -7 3 -14 -4 -17 -19 -6 -14 -30 8
-37 11 -3 20 -15 20 -24 0 -15 8 -19 42 -19 22 -1 45 -6 49 -13 14 -23 59 6
59 37 0 21 4 25 20 21 22 -6 23 -2 20 57 -2 38 -1 38 21 23 12 -9 29 -27 38
-41 11 -16 21 -22 30 -17 7 5 12 11 12 15 -1 3 1 6 5 6 3 -1 13 9 23 21 20 25
17 71 -5 62 -15 -5 -30 39 -19 56 3 6 2 11 -4 11 -13 0 -41 29 -41 42 0 7 7 5
18 -4 26 -22 55 -12 48 18 -5 19 -2 24 13 24 14 0 18 5 14 19 -5 21 24 61 45
61 10 0 6 11 -12 34 -14 19 -26 45 -26 58 l0 23 21 -25 c11 -14 18 -19 14 -12
-12 23 23 12 56 -18 18 -16 37 -26 42 -23 6 4 2 10 -9 14 -11 4 -25 13 -30 20
-17 21 -25 67 -14 74 18 11 10 35 -15 45 -31 12 -42 35 -25 55 10 11 9 18 -4
30 -16 16 -21 35 -10 35 3 0 18 -6 32 -13 156 -78 192 -90 192 -64 0 6 9 -3
20 -20 11 -18 23 -33 28 -33 4 0 15 -13 25 -29 19 -32 97 -79 97 -58 1 7 5 6
13 -4 20 -26 84 -41 101 -23 8 8 19 14 24 14 14 0 42 -35 42 -54 0 -9 10 -21
23 -26 17 -6 26 -4 39 11 17 19 29 25 26 12 -1 -5 5 -21 12 -36 10 -20 19 -27
32 -24 10 3 24 -2 31 -12 18 -26 31 -31 89 -37 52 -6 113 -38 103 -54 -3 -4 1
-10 9 -13 8 -3 17 1 20 9 6 16 37 19 52 5 5 -5 27 -11 48 -13 37 -3 40 -6 54
-45 9 -30 19 -43 32 -43 19 0 45 -20 53 -42 3 -9 9 -7 21 7 14 18 17 18 29 4
6 -9 18 -14 25 -11 10 3 10 7 1 18 -8 9 -8 14 -1 14 6 0 13 -4 17 -9 7 -13 93
-5 111 10 8 6 14 8 14 4 0 -4 7 -1 16 6 14 11 18 10 30 -6 8 -10 14 -15 15 -9
1 5 2 20 2 34 2 17 7 24 17 21 8 -2 31 -6 50 -9 45 -6 92 -49 85 -78 -3 -16 2
-27 21 -39 14 -9 23 -19 20 -22 -3 -4 3 -13 15 -21 15 -10 19 -21 14 -42 -6
-25 -4 -27 19 -23 17 4 26 12 26 24 0 17 3 18 22 7 11 -7 33 -25 48 -40 33
-34 34 -34 60 -6 l20 22 0 -33 c0 -64 26 -86 84 -70 31 9 40 7 62 -10 29 -23
70 -20 91 7 10 13 19 8 57 -32 25 -25 50 -47 56 -47 19 -3 25 -5 57 -24 29
-18 31 -23 31 -79 0 -47 -4 -63 -18 -73 -12 -9 -20 -32 -25 -78 -6 -57 -4 -68
15 -95 12 -16 28 -30 36 -30 8 0 17 -7 20 -15 4 -8 12 -15 18 -15 7 0 18 -11
24 -25 6 -14 8 -25 4 -25 -4 0 -12 -12 -19 -26 -9 -20 -9 -34 2 -65 8 -22 17
-44 20 -49 9 -15 34 0 38 23 3 17 5 16 6 -7 1 -21 5 -27 16 -22 10 3 15 -1 15
-14 0 -10 4 -21 10 -25 5 -3 7 -12 4 -19 -4 -10 13 -15 66 -20 52 -5 77 -13
91 -27 13 -13 27 -18 37 -14 40 17 47 15 60 -13 7 -17 22 -32 33 -35 18 -5 19
-9 9 -27 -9 -16 -9 -25 0 -35 11 -13 5 -54 -9 -65 -4 -3 2 -21 11 -40 14 -27
18 -30 18 -14 0 34 25 49 58 35 22 -9 34 -8 67 9 21 11 48 20 58 20 10 0 26 4
36 10 12 6 32 5 57 -1 28 -8 39 -8 42 0 2 6 12 11 23 11 27 0 62 38 56 61 -3
10 -1 19 4 19 5 0 9 15 9 34 0 35 -21 63 -40 51 -10 -6 -11 -5 -15 32 -1 13
-8 30 -15 38 -16 19 -5 32 29 37 29 4 36 41 12 66 -9 8 -14 25 -13 37 2 16 -7
26 -41 43 -53 26 -57 27 -57 7 0 -13 -10 -15 -51 -11 -44 3 -83 16 -51 16 7 0
12 9 12 20 0 11 4 20 10 20 5 0 7 7 4 15 -7 18 18 20 47 5 16 -9 19 -7 19 11
0 17 3 19 14 10 11 -9 21 -3 49 29 29 34 39 40 60 35 14 -4 28 -2 32 5 5 8 10
8 20 0 10 -8 15 -8 20 0 4 7 19 9 36 5 25 -6 29 -4 29 15 0 22 1 22 26 5 14
-9 32 -14 39 -11 8 3 23 -7 35 -24 16 -22 38 -35 90 -50 39 -12 70 -25 70 -31
0 -18 31 -21 49 -5 18 16 22 13 84 -61 37 -43 80 -87 97 -98 17 -11 34 -33 38
-50 6 -21 15 -31 32 -33 13 -2 32 -14 42 -27 11 -14 32 -25 55 -28 46 -6 139
9 175 29 33 18 87 18 112 -1 14 -11 22 -11 37 -2 10 6 19 17 19 24 0 7 7 10
15 6 9 -3 24 2 34 11 18 16 56 12 45 -5 -8 -13 10 -11 24 3 9 9 12 8 12 -5 0
-9 -5 -17 -11 -17 -5 0 -7 -4 -4 -10 3 -5 15 -10 26 -10 10 0 19 -2 19 -5 0
-2 -20 -24 -44 -48 -46 -46 -46 -46 -128 -31 -32 6 -38 4 -38 -11 0 -13 -3
-15 -13 -7 -10 9 -18 6 -31 -9 -11 -13 -25 -19 -37 -16 -17 5 -24 -4 -20 -26
1 -5 -7 -6 -18 -2 -14 4 -20 0 -23 -19 -3 -16 0 -26 8 -28 10 -2 10 -7 -1 -21
-12 -16 -28 -24 -59 -26 -4 -1 -5 -9 -1 -18 4 -10 8 -26 9 -36 0 -10 6 -21 11
-25 6 -4 18 -19 28 -34 13 -21 25 -28 50 -28 41 0 62 13 54 34 -4 10 -1 16 6
16 19 0 77 63 77 83 0 20 21 22 38 5 9 -9 12 -9 12 0 0 7 15 12 36 12 32 0 35
2 24 15 -7 9 -11 17 -9 18 18 11 83 37 94 37 8 0 19 9 26 21 8 17 17 20 40 15
32 -6 47 8 29 29 -8 10 -8 19 2 34 7 12 16 21 20 21 5 0 8 10 8 23 0 24 33 60
46 49 4 -4 4 -1 0 6 -5 9 -1 15 13 19 16 4 19 9 11 23 -13 25 -13 30 5 30 8 0
15 -5 15 -11 0 -8 5 -8 15 1 8 7 15 18 15 25 0 7 11 16 25 19 14 4 25 11 25
16 0 23 42 49 96 60 63 13 94 28 94 46 0 7 8 10 19 7 12 -3 20 2 24 16 3 13
13 21 27 21 11 0 32 11 46 25 13 13 30 22 38 19 8 -3 16 3 19 15 2 11 15 21
28 23 13 1 28 12 34 23 16 33 91 105 109 105 8 0 22 12 30 28 8 15 25 35 37
46 19 16 24 16 33 5 12 -16 93 -38 168 -46 37 -4 49 -1 54 10 4 12 12 14 28 7
30 -11 110 24 124 55 12 26 78 50 119 42 15 -3 23 1 23 9 0 9 11 14 28 14 35
0 72 37 72 72 0 14 7 31 14 38 10 8 12 19 7 33 -9 26 -3 108 10 122 5 5 9 21
9 36 0 15 5 31 10 34 6 3 10 26 10 49 0 27 6 48 16 57 9 7 14 25 13 43 -2 17
1 37 5 44 13 22 -31 60 -69 60 -19 0 -38 3 -43 6 -6 3 -13 -1 -16 -10 -3 -8
-2 -12 4 -9 6 3 10 1 10 -4 0 -6 -4 -11 -8 -11 -14 0 -42 35 -42 53 0 8 -8 18
-19 22 -43 13 -74 78 -43 90 9 3 13 15 10 35 -4 26 -2 29 14 24 21 -6 23 10 7
53 -7 19 -7 29 0 31 23 8 10 34 -23 47 -38 16 -55 62 -31 81 9 7 10 15 4 25
-15 23 -10 39 11 39 18 0 19 5 15 45 -6 43 -5 45 17 40 13 -3 29 -1 37 4 12 8
12 12 -2 26 -24 23 -22 72 3 80 32 10 83 94 76 126 -3 18 0 29 9 33 12 4 13
11 5 31 -16 41 -12 66 16 102 20 26 22 33 10 34 -31 3 -35 4 -47 16 -9 9 -5
18 19 38 31 26 31 27 15 51 -12 20 -22 24 -40 19 -19 -4 -26 -1 -30 15 -3 11
-9 20 -13 20 -5 0 -12 9 -15 21 -5 15 -10 18 -20 9 -21 -17 -154 -14 -174 4
-31 28 -67 36 -91 19 -16 -12 -27 -13 -43 -5 -45 21 -58 21 -78 1 -13 -13 -27
-18 -39 -14 -15 5 -18 2 -14 -8 6 -17 -18 -25 -53 -19 -14 3 -20 9 -16 18 3 9
-2 14 -15 14 -12 0 -24 5 -27 10 -5 7 -11 8 -19 1 -8 -7 -22 1 -46 25 -19 20
-36 31 -38 25 -2 -6 -8 -11 -14 -11 -6 0 -8 6 -5 14 6 16 -13 26 -49 26 -17 0
-22 -4 -17 -16 5 -13 2 -15 -15 -10 -16 5 -19 3 -16 -11 3 -11 -3 -23 -17 -31
-19 -12 -21 -12 -16 0 3 10 -8 18 -38 27 -49 14 -79 5 -90 -28 -3 -11 -12 -18
-18 -15 -7 2 -18 -9 -24 -27 -11 -27 -16 -31 -39 -25 -16 4 -32 2 -42 -6 -12
-10 -16 -10 -19 0 -6 16 -33 16 -33 -1 0 -8 -11 -19 -24 -25 -25 -11 -42 -62
-24 -73 12 -8 2 -29 -13 -29 -6 0 -7 4 -4 10 3 6 -1 7 -9 4 -9 -3 -16 -11 -16
-18 0 -8 -3 -8 -8 0 -4 6 -15 13 -25 17 -10 4 -16 11 -13 16 4 5 0 12 -6 14
-10 4 -10 6 0 6 6 1 12 6 12 12 0 5 -4 8 -9 4 -5 -3 -12 4 -16 15 -8 24 -50
37 -69 21 -10 -9 -16 -7 -26 4 -7 9 -20 13 -27 10 -8 -2 -24 1 -36 7 -17 10
-85 37 -94 38 -1 0 -3 -10 -5 -22 -2 -17 -9 -22 -23 -19 -11 1 -41 4 -66 6
-59 3 -91 14 -106 35 -13 18 -67 17 -90 -2 -7 -5 -16 -7 -22 -4 -5 3 -7 -3 -4
-14 3 -11 1 -20 -5 -20 -6 0 -17 -6 -24 -12 -42 -40 -47 -41 -66 -18 -16 20
-21 21 -41 11 -18 -10 -26 -10 -39 0 -9 8 -19 15 -21 16 -2 1 2 9 8 17 10 12
10 20 -3 38 -9 12 -16 34 -16 49 0 15 -7 32 -15 39 -8 7 -15 23 -15 35 0 16
-11 30 -35 44 -19 11 -40 33 -47 48 -6 15 -21 38 -31 50 -11 12 -17 28 -14 36
6 15 -26 57 -43 57 -6 0 -10 8 -10 18 0 14 -8 19 -28 19 -29 0 -92 35 -74 41
6 2 8 10 5 18 -3 7 -9 11 -14 8 -5 -3 -9 4 -9 15 0 12 4 21 9 21 12 0 -5 55
-26 85 -15 23 -17 39 -3 30 18 -11 57 24 53 48 -2 12 1 29 6 37 9 12 14 13 31
3 24 -16 33 -17 25 -3 -3 6 -1 10 5 10 6 0 10 16 9 38 0 20 1 46 4 57 3 11 6
23 6 28 1 4 7 7 15 7 18 0 68 74 61 91 -4 10 3 15 22 17 31 2 72 27 80 48 6
16 -15 46 -27 39 -9 -6 -21 25 -26 65 -7 60 -17 101 -25 106 -5 3 -9 10 -9 15
0 6 4 8 9 5 7 -5 21 14 21 27 0 1 -13 2 -30 2 -16 1 -29 -4 -28 -10 1 -5 -2
-22 -6 -37 -7 -23 -11 -26 -27 -17 -12 6 -19 20 -19 40 0 17 -4 28 -10 24 -5
-3 -20 0 -32 7 -13 7 -29 11 -36 9 -8 -1 -22 5 -32 14 -10 9 -23 14 -29 11 -5
-4 -25 2 -43 12 -24 14 -32 25 -30 40 2 12 -2 22 -7 22 -6 0 -10 3 -10 8 3 18
-2 30 -16 36 -9 3 -15 0 -15 -10z m16 -101 c-10 -10 -19 5 -10 18 6 11 8 11
12 0 2 -7 1 -15 -2 -18z m6 -38 c0 -5 -5 -11 -11 -13 -6 -2 -11 4 -11 13 0 9
5 15 11 13 6 -2 11 -8 11 -13z m-262 -88 c0 -21 -12 -28 -27 -16 -19 16 -16
29 7 29 11 0 20 -6 20 -13z m-250 -201 c0 -3 -4 -8 -10 -11 -5 -3 -10 -1 -10
4 0 6 5 11 10 11 6 0 10 -2 10 -4z m565 -85 c-10 -16 -25 -3 -25 22 0 20 1 20
16 5 9 -9 13 -21 9 -27z m66 -32 c-5 -13 -10 -18 -10 -11 -1 7 -5 11 -10 7
-16 -10 -21 12 -6 25 8 7 12 17 8 24 -3 6 2 4 11 -5 13 -12 14 -21 7 -40z
m-424 -621 c-3 -8 -6 -5 -6 6 -1 11 2 17 5 13 3 -3 4 -12 1 -19z m208 -18 c3
-5 1 -10 -4 -10 -6 0 -11 5 -11 10 0 6 2 10 4 10 3 0 8 -4 11 -10z m1875 -158
c0 -13 -12 -22 -22 -16 -10 6 -1 24 13 24 5 0 9 -4 9 -8z m-3852 -400 c11 -14
13 -14 25 2 12 17 14 17 20 3 4 -10 2 -16 -6 -14 -7 1 -11 -4 -9 -12 2 -8 -1
-17 -6 -20 -18 -12 -23 -48 -7 -61 17 -14 21 -50 5 -50 -5 0 -7 -7 -4 -15 4
-9 0 -15 -10 -15 -9 0 -16 -4 -16 -10 0 -5 -12 -20 -27 -34 -25 -23 -29 -24
-44 -10 -11 10 -26 13 -38 9 -21 -6 -66 16 -55 28 3 3 2 12 -2 19 -16 24 -10
67 9 72 13 3 17 0 13 -11 -11 -27 18 -8 34 23 8 16 32 46 52 66 28 27 34 38
25 47 -9 9 -7 11 8 5 11 -4 26 -14 33 -22z m-560 -147 c-3 -3 -9 2 -12 12 -6
14 -5 15 5 6 7 -7 10 -15 7 -18z m272 -36 c0 -5 -7 -9 -15 -9 -9 0 -12 6 -9
15 6 15 24 11 24 -6z m4765 -79 c3 -5 2 -10 -4 -10 -5 0 -13 5 -16 10 -3 6 -2
10 4 10 5 0 13 -4 16 -10z m-5050 -40 c-3 -5 -12 -10 -18 -10 -7 0 -6 4 3 10
19 12 23 12 15 0z m1701 -541 c8 -13 -13 -29 -40 -29 -19 0 -19 0 0 19 22 23
30 25 40 10z m-1100 -26 c-10 -10 -19 5 -10 18 6 11 8 11 12 0 2 -7 1 -15 -2
-18z m1021 -19 c-3 -3 -12 -4 -19 -1 -8 3 -5 6 6 6 11 1 17 -2 13 -5z m-1035
-39 c-4 -21 -1 -24 14 -19 16 5 17 4 4 -6 -11 -9 -12 -13 -2 -17 17 -7 15 -33
-3 -33 -9 0 -18 12 -21 30 -8 37 -18 39 -20 4 -2 -32 -11 -41 -26 -26 -8 8 -8
15 2 27 8 10 9 15 1 15 -6 0 -11 8 -11 19 0 14 6 17 25 13 15 -2 25 0 25 7 0
6 4 11 9 11 4 0 6 -11 3 -25z m1074 -42 c-7 -7 -26 7 -26 19 0 6 6 6 15 -2 9
-7 13 -15 11 -17z m-3346 -23 c0 -5 -4 -10 -10 -10 -5 0 -10 5 -10 10 0 6 5
10 10 10 6 0 10 -4 10 -10z m715 -11 c4 -6 5 -12 2 -15 -7 -7 -37 7 -37 17 0
13 27 11 35 -2z m1565 -50 c0 -6 -4 -7 -10 -4 -5 3 -10 11 -10 16 0 6 5 7 10
4 6 -3 10 -11 10 -16z m972 -944 c0 -5 -5 -11 -11 -13 -6 -2 -11 4 -11 13 0 9
5 15 11 13 6 -2 11 -8 11 -13z m2293 5 c3 -5 1 -10 -4 -10 -6 0 -11 5 -11 10
0 6 2 10 4 10 3 0 8 -4 11 -10z m-110 -230 c3 -5 -1 -10 -9 -10 -9 0 -16 5
-16 10 0 6 4 10 9 10 6 0 13 -4 16 -10z m-220 -100 c3 -5 2 -10 -4 -10 -5 0
-13 5 -16 10 -3 6 -2 10 4 10 5 0 13 -4 16 -10z"/>
<path d="M10480 12152 c0 -12 41 -54 47 -48 8 7 -25 56 -37 56 -6 0 -10 -4
-10 -8z"/>
<path d="M11693 11543 c4 -6 0 -16 -8 -21 -13 -7 -14 -13 -4 -38 9 -21 13 -25
16 -12 3 13 15 16 51 15 50 -2 76 -21 62 -47 -5 -8 -2 -26 6 -42 11 -20 11
-28 3 -28 -7 0 -9 -3 -6 -6 3 -4 2 -15 -4 -25 -8 -15 -6 -19 7 -19 11 0 15 -6
11 -19 -3 -15 -1 -18 11 -14 8 4 13 2 10 -3 -8 -12 18 -74 32 -74 14 0 13 7
-6 36 -9 13 -14 27 -11 30 8 8 56 -26 68 -47 5 -11 21 -19 35 -19 29 0 76 -28
68 -41 -3 -5 4 -9 15 -9 12 0 21 -5 21 -11 0 -5 5 -7 10 -4 6 3 10 24 10 45 0
29 -5 40 -19 45 -28 9 -16 55 15 55 21 0 23 4 18 33 -2 17 -5 38 -6 45 -1 7
-13 19 -27 27 -14 7 -57 34 -96 59 -38 25 -81 46 -95 46 -14 0 -33 11 -46 27
-20 25 -22 26 -44 10 -25 -17 -62 -14 -89 7 -11 8 -13 8 -8 -1z m171 -208 c-4
-8 -8 -15 -10 -15 -2 0 -4 7 -4 15 0 8 4 15 10 15 5 0 7 -7 4 -15z"/>
<path d="M12265 11383 c-11 -3 -32 -14 -46 -24 -20 -14 -29 -16 -39 -6 -30 28
-2 -14 37 -56 50 -54 79 -73 85 -55 3 8 12 4 24 -11 46 -56 48 -57 55 -25 3
16 10 38 16 49 6 11 8 25 6 31 -5 14 24 27 32 14 3 -5 12 -7 20 -4 7 3 25 -2
39 -11 28 -18 36 -6 11 15 -8 7 -15 19 -15 26 0 8 -10 14 -24 14 -14 0 -28 4
-31 10 -4 6 -18 1 -36 -12 -29 -22 -29 -22 -55 -2 -14 10 -25 23 -24 28 2 9
-20 27 -30 25 -3 -1 -14 -4 -25 -6z"/>
<path d="M12570 11261 c0 -6 4 -13 10 -16 6 -3 7 1 4 9 -7 18 -14 21 -14 7z"/>
<path d="M12922 11253 c-17 -3 -21 -9 -17 -24 8 -24 -22 -26 -51 -4 -22 16
-90 20 -99 5 -4 -6 -11 -8 -16 -5 -5 4 -9 -1 -9 -9 0 -19 -13 -20 -41 -5 -15
7 -28 7 -49 -3 -17 -7 -30 -15 -30 -19 0 -3 24 -10 52 -15 l53 -9 -3 -50 c-2
-29 -9 -55 -18 -61 -15 -12 -9 -44 7 -44 5 0 9 -10 10 -22 0 -17 2 -19 7 -8 4
8 20 17 37 18 16 2 35 11 41 20 10 13 15 14 27 4 12 -10 16 -10 19 -1 2 7 26
14 54 16 91 6 108 10 112 21 2 7 9 12 16 12 8 0 25 9 40 21 31 24 56 16 32
-10 -15 -16 -15 -22 -1 -61 8 -24 20 -49 25 -55 5 -7 7 -15 4 -18 -3 -3 1 -16
10 -29 9 -12 16 -32 16 -45 0 -12 4 -24 10 -28 10 -6 2 -36 -13 -46 -5 -4 -5
-15 2 -27 8 -15 8 -29 0 -49 -9 -25 -7 -31 22 -55 18 -15 29 -33 26 -41 -8
-22 30 -38 84 -36 40 2 49 6 49 21 0 20 36 38 75 38 13 0 26 6 28 13 4 9 7 9
14 0 14 -20 31 -1 22 25 -10 26 -29 30 -29 5 0 -9 -3 -13 -7 -10 -3 4 -5 34
-4 67 2 49 0 60 -13 60 -9 0 -16 4 -16 9 0 5 -14 12 -30 16 -17 4 -38 18 -47
31 -11 18 -19 22 -26 15 -20 -20 -52 -12 -69 19 -18 31 -8 39 22 21 19 -13 34
-2 20 14 -7 8 -9 19 -5 25 4 6 -8 17 -28 25 -21 9 -39 25 -47 45 -7 16 -24 36
-39 43 -29 14 -41 47 -17 47 15 0 22 30 10 42 -3 3 -18 1 -34 -5 -24 -9 -32
-7 -61 17 -19 16 -42 41 -52 57 -19 28 -28 31 -75 22z"/>
<path d="M8163 11185 c0 -8 4 -15 9 -15 4 0 8 4 8 9 0 6 -4 12 -8 15 -5 3 -9
-1 -9 -9z"/>
<path d="M8125 11169 c-4 -6 -5 -12 -2 -15 2 -3 7 2 10 11 7 17 1 20 -8 4z"/>
<path d="M7043 11124 c-3 -11 -19 -34 -35 -52 -24 -28 -27 -36 -16 -55 12 -23
37 -46 51 -47 5 0 5 5 2 10 -3 6 1 13 10 16 14 6 14 9 2 23 -20 23 -32 45 -21
39 11 -6 38 22 42 44 1 8 -4 21 -13 28 -12 10 -16 9 -22 -6z"/>
<path d="M8020 11116 c0 -9 5 -16 10 -16 6 0 10 5 10 10 0 13 37 13 43 0 3 -6
4 -5 3 2 -4 20 -66 23 -66 4z"/>
<path d="M8046 11075 c4 -8 8 -15 10 -15 2 0 4 7 4 15 0 8 -4 15 -10 15 -5 0
-7 -7 -4 -15z"/>
<path d="M7228 10988 c17 -17 15 -26 -9 -39 -16 -8 -31 -7 -63 5 -54 21 -105
17 -122 -9 -12 -18 -7 -27 44 -87 32 -40 60 -64 65 -59 5 5 4 17 -2 29 -16 30
-14 55 4 48 8 -3 29 7 47 22 18 15 41 34 50 42 22 18 23 46 2 54 -24 9 -29 7
-16 -6z"/>
<path d="M6040 10964 c0 -8 5 -12 10 -9 6 4 8 11 5 16 -9 14 -15 11 -15 -7z"/>
<path d="M12705 10950 c-3 -5 -1 -10 4 -10 6 0 11 5 11 10 0 6 -2 10 -4 10 -3
0 -8 -4 -11 -10z"/>
<path d="M6035 10920 c-3 -5 -1 -10 4 -10 6 0 11 5 11 10 0 6 -2 10 -4 10 -3
0 -8 -4 -11 -10z"/>
<path d="M12952 10675 c-20 -20 -21 -26 -11 -43 7 -11 10 -26 6 -34 -7 -19
-59 -30 -69 -15 -5 8 -8 5 -8 -7 0 -12 -5 -16 -16 -12 -9 4 -26 -5 -42 -22
-15 -15 -39 -34 -54 -42 -20 -9 -25 -17 -18 -25 8 -9 4 -11 -14 -8 -17 4 -27
-1 -35 -15 -6 -11 -7 -23 -3 -27 4 -5 0 -6 -9 -3 -9 4 -20 -1 -26 -11 -14 -22
16 -61 46 -61 12 0 21 -4 21 -9 0 -5 3 -16 6 -25 4 -10 1 -16 -9 -16 -8 0 -17
-6 -19 -12 -3 -7 -13 -13 -24 -13 -16 0 -19 -6 -16 -42 3 -31 -1 -44 -14 -51
-15 -8 -13 -13 19 -33 40 -26 47 -39 21 -39 -12 0 -14 -5 -9 -17 4 -10 11 -34
14 -53 8 -44 32 -50 52 -13 8 15 19 33 26 38 6 6 16 36 23 67 6 32 16 61 22
64 6 4 23 34 38 68 16 34 48 80 74 106 40 38 46 49 46 86 0 33 5 45 25 58 14
9 25 23 25 30 0 8 9 16 20 19 12 3 20 14 20 27 0 16 5 20 18 16 12 -4 26 5 45
29 l28 35 -24 0 c-14 0 -30 7 -38 16 -11 13 -15 13 -23 2 -15 -18 -52 -20 -66
-3 -16 19 -20 18 -48 -10z"/>
<path d="M12694 10678 c-4 -6 -3 -8 4 -4 5 3 13 0 15 -6 3 -8 6 -6 6 5 1 19
-14 23 -25 5z"/>
<path d="M13510 10676 c0 -8 -5 -16 -10 -18 -6 -2 0 -19 13 -38 13 -19 22 -42
20 -50 -8 -31 26 -17 53 21 17 26 31 36 42 32 9 -4 13 -2 9 4 -4 6 -19 14 -34
18 -16 4 -36 15 -46 26 -21 22 -47 25 -47 5z"/>
<path d="M12878 10664 c-3 -5 -3 -17 1 -27 5 -14 9 -15 21 -5 9 7 13 12 11 11
-2 -2 -9 5 -16 14 -7 9 -14 12 -17 7z"/>
<path d="M13664 10656 c-10 -8 -16 -17 -13 -20 3 -3 14 1 25 8 10 8 16 17 13
20 -3 3 -14 -1 -25 -8z"/>
<path d="M12665 10642 c-20 -10 -30 -11 -33 -3 -5 16 -22 14 -22 -3 0 -7 15
-19 33 -26 17 -7 41 -21 52 -31 17 -15 24 -16 43 -5 l23 12 -21 19 c-11 10
-20 24 -20 30 0 21 -24 24 -55 7z"/>
<path d="M12800 10596 c0 -2 9 -6 20 -9 11 -3 20 -1 20 4 0 5 -9 9 -20 9 -11
0 -20 -2 -20 -4z"/>
<path d="M13340 10591 c0 -10 19 -25 25 -20 1 2 -3 10 -11 17 -8 7 -14 8 -14
3z"/>
<path d="M12772 10571 c-22 -6 -22 -6 -2 -19 17 -10 21 -10 26 3 8 20 4 23
-24 16z"/>
<path d="M12607 10563 c-4 -3 -3 -11 2 -17 4 -6 11 -21 14 -33 4 -19 2 -22
-16 -18 -12 3 -28 1 -36 -4 -12 -8 -13 -12 -1 -26 9 -11 16 -13 24 -5 7 7 16
4 29 -12 13 -16 17 -18 13 -6 -4 14 4 20 34 28 29 8 40 16 40 30 0 16 -7 20
-30 20 -29 0 -74 32 -62 44 3 3 3 6 0 6 -2 0 -8 -3 -11 -7z"/>
<path d="M7375 10520 c3 -5 10 -10 16 -10 5 0 9 5 9 10 0 6 -7 10 -16 10 -8 0
-12 -4 -9 -10z"/>
<path d="M13514 10502 c-16 -2 -24 -13 -29 -38 -8 -44 -25 -84 -37 -84 -12 0
-10 -34 5 -49 10 -10 9 -15 -4 -24 -9 -7 -20 -27 -24 -46 -4 -18 -16 -42 -26
-52 -10 -10 -17 -19 -14 -19 2 0 -7 -17 -21 -37 -17 -26 -37 -42 -62 -49 -34
-10 -37 -13 -34 -45 2 -19 8 -35 13 -37 13 -5 11 -36 -3 -51 -11 -10 -7 -10
16 -1 26 10 28 9 23 -11 -7 -27 1 -49 20 -49 8 0 12 -4 9 -9 -3 -5 1 -28 9
-50 13 -39 13 -42 -5 -49 -16 -6 -17 -9 -5 -26 9 -12 21 -17 35 -13 25 6 25 2
1 -24 -12 -13 -25 -18 -32 -14 -8 5 -10 4 -5 -3 5 -8 -2 -12 -18 -12 -14 0
-25 -3 -25 -7 3 -21 -2 -33 -16 -33 -8 0 -15 -5 -15 -12 0 -9 -3 -9 -12 0 -19
19 -28 14 -28 -12 0 -14 -7 -31 -15 -39 -8 -8 -12 -16 -10 -19 2 -2 -9 -30
-25 -62 -33 -65 -38 -96 -15 -96 8 0 15 4 15 10 0 5 11 12 24 16 13 3 33 22
45 45 12 21 26 39 32 39 12 0 12 47 -1 55 -5 3 -10 10 -10 16 0 12 43 12 56 0
5 -6 21 -11 36 -13 26 -4 68 -45 68 -67 0 -6 13 -20 30 -33 16 -12 32 -29 35
-38 10 -31 74 -92 90 -86 17 6 21 -19 5 -29 -5 -3 -10 -14 -10 -24 0 -10 -9
-26 -20 -36 -27 -24 -25 -38 3 -31 14 3 33 -1 46 -11 23 -15 31 -12 43 19 2 4
17 8 33 10 32 3 72 43 67 66 -2 7 1 19 6 25 21 27 23 66 4 79 -11 7 -26 27
-36 45 -20 40 -66 87 -85 88 -8 0 -23 12 -34 27 -21 28 -21 28 -1 43 10 8 29
15 40 15 12 0 24 7 28 15 3 9 0 15 -9 15 -8 0 -15 9 -15 20 0 38 29 22 36 -20
4 -22 11 -40 16 -40 5 0 7 4 4 9 -9 14 25 22 41 10 11 -10 15 -8 20 10 4 18
11 21 32 17 34 -7 91 42 91 78 0 21 -4 24 -34 22 -18 -2 -38 -6 -43 -9 -6 -4
-16 0 -23 8 -7 9 -21 13 -30 10 -10 -3 -36 1 -58 8 -37 13 -41 13 -45 -4 -3
-11 -1 -19 4 -19 13 0 11 -19 -3 -33 -12 -11 -24 -14 -80 -20 -10 0 -18 -7
-18 -13 0 -7 -7 -14 -15 -18 -8 -3 -15 -13 -15 -22 0 -13 -3 -14 -14 -5 -12
10 -15 8 -18 -10 -3 -26 -48 -43 -88 -33 l-25 6 23 17 23 17 -20 19 c-25 22
-27 35 -5 35 8 0 13 4 10 9 -3 5 1 11 9 15 8 3 15 0 15 -6 0 -7 5 -6 15 2 8 7
15 21 15 30 0 24 58 39 71 19 7 -11 11 -12 17 -1 5 7 16 10 26 6 13 -5 20 3
33 35 9 23 23 41 32 42 10 0 8 3 -6 9 -13 5 -23 14 -23 19 0 5 -7 11 -15 14
-11 5 -12 1 -4 -19 7 -21 5 -29 -13 -45 -27 -22 -38 -24 -38 -6 0 8 -3 7 -10
-3 -8 -12 -10 -12 -16 3 -3 9 -3 24 0 33 4 9 -1 29 -11 43 -22 32 -25 74 -5
66 10 -4 12 0 7 12 -4 10 -13 34 -20 53 -7 19 -18 36 -24 38 -6 2 -9 -3 -5
-11 9 -24 -14 -30 -26 -6 -8 14 -8 25 -2 31 6 6 6 20 -2 39 -12 33 0 49 40 49
23 0 37 40 28 77 -3 11 1 25 10 32 9 8 16 22 16 32 0 10 9 23 21 29 11 7 27
27 35 46 13 30 12 37 -1 58 -17 26 -37 34 -71 28z"/>
<path d="M12551 10447 c-2 -23 20 -45 41 -40 22 4 23 4 4 -11 -16 -13 -17 -16
-4 -16 19 0 30 24 21 46 -4 10 -14 14 -29 11 -13 -2 -25 1 -28 7 -2 6 -5 7 -5
3z"/>
<path d="M5015 10009 c-6 -17 -14 -20 -63 -18 -58 3 -102 -6 -102 -20 0 -10
-66 -8 -76 2 -13 13 -34 7 -34 -9 0 -10 -6 -14 -15 -10 -9 3 -15 0 -15 -9 0
-8 -6 -15 -14 -15 -9 0 -15 -14 -18 -40 -2 -28 0 -40 10 -40 7 0 15 7 19 16 4
11 13 14 29 10 16 -4 34 1 53 15 16 12 34 18 40 15 6 -4 41 -9 78 -11 53 -3
71 -9 92 -29 22 -21 29 -23 44 -12 9 7 17 17 17 22 0 18 87 10 109 -10 11 -10
27 -16 36 -12 8 3 27 0 41 -6 19 -9 24 -18 21 -34 -4 -22 9 -34 36 -34 7 0 25
16 40 35 22 28 26 39 17 50 -9 10 -3 14 30 20 31 5 41 12 46 31 4 13 18 33 32
44 14 11 22 23 19 27 -10 10 -77 12 -77 2 0 -14 -28 -11 -33 4 -3 9 -7 9 -17
0 -10 -9 -18 -9 -33 -1 -16 8 -19 8 -14 -5 6 -17 -49 -62 -58 -47 -3 6 -4 14
0 19 3 6 -11 13 -32 16 -21 4 -45 9 -55 11 -9 3 -19 0 -23 -6 -5 -8 -14 -6
-30 4 -13 9 -31 13 -39 10 -8 -3 -24 4 -35 15 -20 20 -20 20 -26 0z"/>
<path d="M5512 9990 c0 -14 2 -19 5 -12 2 6 2 18 0 25 -3 6 -5 1 -5 -13z"/>
<path d="M12673 9982 c-18 -11 -1 -31 33 -38 25 -5 30 -3 30 15 0 13 -5 20
-13 17 -7 -3 -13 -1 -13 4 0 12 -20 13 -37 2z"/>
<path d="M8002 9628 c-7 -7 -12 -18 -12 -25 0 -7 -11 -20 -25 -29 -14 -9 -23
-20 -20 -24 6 -10 -39 -40 -61 -40 -12 0 -15 -6 -10 -26 4 -14 2 -32 -4 -39
-8 -9 -5 -14 10 -18 13 -3 20 -13 20 -31 0 -18 -4 -24 -15 -20 -12 5 -13 2 -6
-17 4 -13 18 -25 30 -27 11 -2 21 -9 21 -16 0 -18 24 -66 33 -66 4 0 7 -5 7
-11 0 -5 -4 -8 -8 -5 -4 2 -6 -11 -4 -30 5 -39 2 -40 -41 -18 l-31 17 29 24
30 25 -28 -6 c-26 -6 -75 10 -64 21 3 2 15 -1 27 -7 20 -11 21 -10 10 9 -6 12
-15 21 -20 21 -6 0 -10 8 -10 18 0 17 -39 75 -40 58 0 -5 -11 1 -25 14 -20 19
-25 20 -25 7 0 -21 -47 -34 -72 -18 -11 7 -18 7 -18 1 0 -5 -13 -10 -29 -10
-42 0 -93 -20 -87 -35 3 -8 -5 -16 -20 -19 -18 -5 -39 3 -80 30 -47 31 -57 34
-71 23 -9 -8 -28 -14 -42 -14 -22 0 -26 -4 -23 -24 1 -13 -4 -34 -13 -47 -8
-13 -12 -29 -9 -37 3 -8 -11 -24 -36 -41 -43 -28 -49 -40 -25 -50 8 -3 13 -11
11 -18 -1 -7 -1 -10 1 -7 5 8 53 -13 53 -24 0 -11 -50 -28 -61 -21 -5 3 -9 0
-9 -5 0 -6 5 -11 10 -11 6 0 10 -6 8 -12 -1 -7 3 -23 10 -36 7 -12 10 -27 7
-33 -10 -15 13 -37 45 -44 26 -6 48 -36 42 -58 -3 -11 45 -27 61 -21 8 3 19
-2 26 -10 7 -8 19 -12 27 -9 20 8 17 24 -3 16 -14 -5 -16 -3 -6 7 9 10 8 16
-3 28 -11 10 -12 18 -5 25 6 6 11 19 11 30 0 14 7 18 28 16 60 -5 92 1 92 16
0 21 17 19 30 -5 15 -28 47 -43 99 -45 33 -1 48 -7 59 -23 18 -28 35 -29 27
-2 -10 31 8 24 69 -25 30 -25 70 -48 88 -52 18 -3 41 -12 50 -20 9 -8 22 -12
27 -8 6 3 14 -1 18 -11 6 -16 7 -16 19 0 7 10 16 18 21 19 4 1 7 13 5 26 -3
22 -2 23 15 10 10 -8 21 -17 24 -22 3 -4 15 7 28 23 26 35 32 33 56 -16 16
-35 17 -35 31 -15 9 12 12 26 9 31 -3 6 1 10 9 10 31 0 15 28 -44 79 -57 50
-70 78 -29 68 30 -8 32 9 4 40 -19 22 -24 24 -25 11 0 -26 -40 -24 -40 1 0 11
6 21 13 24 6 2 -6 7 -28 11 -32 6 -43 13 -54 37 -16 36 -8 48 16 27 10 -8 26
-18 36 -21 9 -4 17 -11 17 -17 0 -5 7 -10 16 -10 11 0 14 6 8 23 l-6 22 23
-21 c55 -50 149 -57 149 -12 0 12 8 48 17 80 13 42 22 58 35 58 10 0 25 11 34
25 9 14 19 23 22 20 5 -5 32 41 32 56 0 4 -9 17 -21 28 -12 11 -18 24 -15 30
4 5 2 12 -4 16 -6 4 -8 11 -5 16 4 5 0 9 -8 9 -8 0 -20 7 -27 15 -7 8 -29 15
-49 15 -20 0 -42 4 -50 9 -8 5 -24 3 -40 -5 -14 -8 -34 -14 -43 -14 -10 0 -18
-4 -18 -10 0 -18 -18 -11 -25 10 -3 11 -19 27 -35 37 -16 9 -26 21 -23 25 3 5
-2 17 -11 27 -9 10 -14 25 -11 33 4 11 -4 21 -26 32 -38 19 -42 19 -57 4z
m-652 -519 c0 -4 -7 -6 -15 -3 -8 4 -15 10 -15 15 0 4 7 6 15 3 8 -4 15 -10
15 -15z m628 15 l23 -7 -22 -20 c-21 -20 -22 -20 -35 -2 -25 34 -15 42 34 29z"/>
<path d="M7548 9598 c-10 -10 -18 -25 -18 -33 0 -8 -4 -15 -9 -15 -17 0 -86
-72 -83 -87 3 -12 -6 -14 -61 -8 -64 7 -114 -5 -102 -25 3 -4 -1 -10 -7 -13
-8 -2 -1 -10 15 -17 20 -10 30 -11 39 -2 8 8 20 7 46 -4 42 -17 49 -13 34 21
-11 24 -10 25 23 25 18 0 36 4 39 9 3 5 19 7 35 5 29 -3 30 -3 19 27 -10 28
-8 34 27 69 26 27 35 42 29 52 -8 12 -12 11 -26 -4z"/>
<path d="M7148 9473 c7 -3 16 -2 19 1 4 3 -2 6 -13 5 -11 0 -14 -3 -6 -6z"/>
<path d="M7155 9440 c-3 -5 -15 -10 -25 -10 -10 0 -22 -5 -26 -12 -4 -6 -3 -8
4 -4 6 3 14 1 17 -4 10 -16 -26 -52 -47 -47 -9 3 -22 -1 -29 -9 -9 -11 -6 -18
11 -32 14 -11 23 -30 24 -48 1 -16 7 -29 14 -29 7 0 17 -7 22 -15 5 -9 25 -15
48 -16 34 -1 39 2 34 18 -2 10 -12 23 -22 28 -21 11 -34 66 -20 88 8 15 9 15
10 1 0 -9 11 -21 25 -27 20 -9 27 -8 40 5 22 21 16 58 -10 58 -13 0 -25 12
-35 32 -16 34 -25 40 -35 23z"/>
<path d="M13125 9400 c-3 -5 -1 -10 4 -10 6 0 11 5 11 10 0 6 -2 10 -4 10 -3
0 -8 -4 -11 -10z"/>
<path d="M7250 9390 c0 -5 7 -10 16 -10 8 0 12 5 9 10 -3 6 -10 10 -16 10 -5
0 -9 -4 -9 -10z"/>
<path d="M13096 9363 c5 -26 1 -30 -45 -51 -28 -13 -51 -29 -51 -35 0 -23 -71
-86 -116 -103 -99 -38 -10 -39 108 -1 37 11 64 25 62 29 -7 11 18 68 29 68 4
0 3 8 -2 18 -8 14 -4 20 20 31 32 14 41 54 13 65 -23 9 -24 8 -18 -21z"/>
<path d="M13795 9330 c-4 -6 -11 -8 -16 -5 -13 9 -11 -2 5 -28 15 -23 20 -97
7 -97 -14 0 -5 -39 12 -58 9 -10 17 -23 17 -29 0 -5 11 -15 24 -22 13 -8 36
-32 51 -54 21 -33 26 -53 26 -101 0 -34 5 -73 11 -88 7 -20 6 -32 -5 -50 -9
-12 -20 -49 -26 -80 -10 -58 -33 -112 -50 -123 -13 -7 -2 -37 19 -52 22 -16
53 -98 48 -127 -4 -19 -1 -22 15 -18 12 3 18 1 14 -5 -4 -6 2 -18 13 -28 19
-17 20 -17 20 1 0 16 4 14 24 -11 13 -16 27 -27 31 -23 4 4 19 2 34 -4 14 -6
33 -11 41 -12 36 -5 70 -27 74 -48 13 -63 13 -79 1 -75 -6 3 -18 2 -25 -3 -9
-6 -5 -13 15 -26 20 -13 29 -14 34 -6 9 15 47 -26 45 -48 -1 -8 -2 -23 -3 -32
0 -10 -9 -18 -19 -18 -31 0 -64 -43 -56 -74 4 -17 2 -26 -6 -26 -9 0 -9 -4 -2
-12 5 -7 13 -27 16 -44 6 -26 2 -37 -18 -58 -14 -14 -26 -30 -26 -36 0 -5 -6
-10 -14 -10 -7 0 -21 -12 -31 -26 -16 -24 -16 -26 3 -31 20 -5 20 -5 0 -39
-17 -29 -23 -32 -40 -23 -11 6 -30 8 -43 5 -14 -4 -27 0 -35 9 -19 23 -25 19
-37 -26 -11 -42 -2 -96 20 -110 11 -8 13 -48 3 -71 -7 -15 -3 -18 17 -18 21 0
28 -7 37 -37 7 -21 20 -46 28 -56 15 -16 14 -18 -5 -23 -20 -6 -39 -32 -29
-41 9 -9 71 14 72 28 1 8 2 19 3 24 0 6 15 19 31 28 36 22 38 41 5 63 -20 13
-24 24 -23 58 0 23 -3 61 -7 85 l-7 44 31 -5 c24 -4 35 0 42 14 10 19 11 19
23 2 15 -20 51 -12 43 10 -6 14 38 78 69 100 11 9 13 18 6 36 -11 29 4 83 21
73 5 -3 25 -6 43 -5 19 1 40 -6 50 -15 13 -14 17 -14 25 -2 5 8 9 18 9 22 0 5
18 6 40 2 35 -6 40 -4 40 12 0 11 -5 24 -11 30 -16 16 -3 43 20 43 17 0 19 4
10 33 -5 17 -14 34 -19 35 -18 6 -40 33 -40 48 0 8 9 14 20 14 11 0 23 7 26
15 7 16 -20 80 -37 90 -5 4 -7 14 -5 23 3 10 2 23 -3 31 -6 8 -4 28 3 50 14
38 11 65 -5 55 -5 -3 -10 7 -11 23 -3 64 -5 80 -12 113 -5 19 -15 43 -23 52
-8 9 -13 23 -10 30 2 7 -2 21 -10 30 -9 10 -15 42 -16 86 -2 67 -3 70 -44 108
-23 21 -66 59 -97 84 -50 40 -61 57 -57 83 2 13 -41 108 -47 103 -8 -9 -42 14
-42 29 0 8 -8 18 -17 24 -9 5 -22 26 -28 48 -6 21 -17 38 -25 38 -8 1 -30 8
-49 18 -19 9 -42 17 -52 17 -29 0 -87 43 -98 73 -10 27 -43 38 -56 17z m463
-1402 c18 -18 14 -38 -7 -38 -17 0 -31 18 -31 41 0 13 24 11 38 -3z m2 -58 c0
-5 -8 -10 -17 -10 -15 0 -16 2 -3 10 19 12 20 12 20 0z"/>
<path d="M7190 9270 c0 -5 7 -10 16 -10 8 0 12 5 9 10 -3 6 -10 10 -16 10 -5
0 -9 -4 -9 -10z"/>
<path d="M12815 9120 l-30 -8 27 -1 c15 0 30 4 33 9 3 6 5 9 3 9 -2 -1 -16 -5
-33 -9z"/>
<path d="M10960 8691 c0 -5 5 -13 10 -16 6 -3 10 -2 10 4 0 5 -4 13 -10 16 -5
3 -10 2 -10 -4z"/>
<path d="M9108 8576 c-20 -14 -14 -26 13 -26 17 0 32 23 22 34 -9 9 -16 7 -35
-8z"/>
<path d="M9032 8523 c2 -9 8 -18 15 -20 7 -3 9 3 6 16 -6 25 -26 28 -21 4z"/>
<path d="M9090 8525 c-10 -12 -10 -15 4 -15 9 0 16 7 16 15 0 8 -2 15 -4 15
-2 0 -9 -7 -16 -15z"/>
<path d="M9025 8480 c3 -5 10 -10 16 -10 5 0 9 5 9 10 0 6 -7 10 -16 10 -8 0
-12 -4 -9 -10z"/>
<path d="M9072 8478 c2 -6 10 -14 16 -16 7 -2 10 2 6 12 -7 18 -28 22 -22 4z"/>
<path d="M9287 8336 l-27 -12 25 -24 c25 -23 25 -23 25 -2 0 15 4 20 16 15 15
-5 33 11 34 30 0 11 -41 7 -73 -7z"/>
<path d="M13927 7479 c7 -7 15 -10 18 -7 3 3 -2 9 -12 12 -14 6 -15 5 -6 -5z"/>
</g>
</svg>
