<?xml version="1.0" standalone="no"?>
<!DOCTYPE svg PUBLIC "-//W3C//DTD SVG 20010904//EN"
 "http://www.w3.org/TR/2001/REC-SVG-20010904/DTD/svg10.dtd">
<svg version="1.0" xmlns="http://www.w3.org/2000/svg"
 width="924.548095pt" height="643.674565pt" viewBox="0 0 924.548095 643.674565"
 preserveAspectRatio="xMidYMid meet">
<metadata>
Created by potrace 1.15, written by Peter Selinger 2001-2017
</metadata>
<g transform="translate(-535.451905,1333.674565) scale(0.100000,-0.100000)"
fill="#222222" stroke="none">
<path d="M11910 13331 c0 -5 5 -13 10 -16 6 -3 10 -2 10 4 0 5 -4 13 -10 16
-5 3 -10 2 -10 -4z"/>
<path d="M11882 13312 c-15 -10 32 -57 65 -65 20 -4 21 -3 12 14 -5 10 -16 19
-23 19 -8 0 -20 9 -27 20 -9 12 -19 17 -27 12z"/>
<path d="M12432 13169 c-1 -33 3 -36 17 -11 6 11 5 21 -4 28 -9 9 -12 6 -13
-17z"/>
<path d="M12066 13181 c-3 -4 1 -16 8 -26 12 -17 13 -17 18 3 6 21 -16 40 -26
23z"/>
<path d="M10270 13122 c0 -7 4 -22 10 -32 8 -15 2 -27 -33 -63 -45 -48 -79
-62 -109 -46 -14 7 -18 6 -18 -5 0 -8 -9 -18 -21 -21 -29 -9 -20 -14 36 -20
26 -2 56 -12 65 -20 14 -13 19 -13 22 -3 8 23 37 -10 36 -41 -1 -33 8 -51 26
-51 14 0 29 -38 20 -52 -3 -4 -12 -8 -19 -8 -8 0 -12 -6 -9 -14 3 -9 -3 -17
-16 -21 -16 -5 -20 -13 -17 -27 4 -14 1 -18 -8 -14 -21 8 -29 -27 -9 -41 10
-7 12 -13 6 -13 -7 0 -12 -11 -12 -24 0 -20 -6 -24 -42 -30 -58 -9 -60 -9 -80
-1 -13 5 -18 2 -18 -9 0 -19 -26 -21 -45 -3 -8 6 -20 17 -28 23 -16 14 -97 17
-97 4 0 -6 -31 -7 -72 -4 -68 5 -75 4 -99 -20 -15 -14 -29 -31 -31 -37 -3 -10
-11 -10 -37 0 -28 12 -37 11 -74 -5 -52 -23 -97 -69 -97 -99 0 -13 -7 -25 -15
-29 -8 -3 -15 -12 -15 -21 0 -11 -6 -14 -25 -9 -20 5 -24 3 -19 -10 5 -13 -1
-16 -35 -16 -29 0 -41 4 -41 14 0 9 -7 12 -20 9 -11 -3 -20 -12 -20 -19 0 -20
-21 -17 -82 11 -29 14 -62 25 -74 25 -11 0 -38 15 -60 34 -22 19 -59 39 -82
45 -27 8 -50 23 -64 41 -30 41 -58 40 -58 -2 0 -65 -13 -111 -31 -115 -17 -5
-17 -7 2 -39 23 -42 27 -144 6 -144 -14 0 -37 -40 -37 -65 0 -8 -7 -15 -15
-15 -8 0 -17 -11 -21 -25 -3 -14 -10 -25 -16 -25 -5 0 -8 -10 -6 -22 2 -13 9
-22 16 -20 6 1 12 -4 13 -10 2 -35 11 -63 29 -88 11 -16 20 -39 20 -52 0 -24
16 -48 32 -48 4 0 8 7 8 15 0 8 5 15 10 15 6 0 10 -8 8 -17 -4 -21 41 -32 52
-13 5 8 18 10 32 7 21 -6 24 -11 22 -54 l-2 -48 -112 -57 c-62 -32 -118 -64
-124 -72 -6 -8 -27 -18 -48 -21 -31 -6 -37 -4 -43 14 -6 20 -15 24 -32 19 -5
-2 -7 -6 -6 -10 2 -4 4 -42 6 -85 4 -62 8 -78 20 -78 8 0 24 -12 36 -26 16
-21 18 -32 12 -62 -5 -20 -7 -38 -5 -39 2 -2 -8 -5 -22 -6 -14 -1 -23 2 -20 6
2 4 -1 15 -8 24 -11 15 -15 15 -40 2 -38 -19 -45 -18 -100 11 -26 14 -54 25
-62 25 -8 0 -23 5 -33 12 -15 9 -17 15 -8 29 9 15 4 24 -28 53 -24 22 -49 36
-65 36 -45 0 -92 21 -158 72 -35 26 -70 48 -79 48 -21 0 -82 66 -99 106 -7 17
-29 44 -49 60 -38 30 -41 63 -6 65 11 0 9 3 -6 9 -13 5 -23 14 -23 19 0 6 -10
6 -29 0 -24 -8 -35 -7 -57 8 -45 29 -95 43 -115 32 -29 -15 -91 -11 -111 8
-14 12 -21 14 -26 6 -4 -7 -28 -13 -52 -14 -25 -1 -49 -4 -54 -7 -4 -2 -26 -6
-49 -8 -22 -1 -43 -6 -46 -11 -3 -5 -31 -24 -61 -43 -30 -19 -60 -41 -66 -48
-8 -12 -12 -11 -22 1 -7 8 -22 12 -37 9 -16 -3 -33 2 -44 12 -16 14 -20 15
-30 2 -20 -24 -71 27 -71 71 0 23 -6 36 -17 40 -10 3 -27 14 -38 23 -27 24
-85 36 -85 18 0 -7 -10 2 -21 20 -14 21 -29 32 -44 32 -17 0 -24 7 -29 31 l-6
30 -25 -18 c-13 -10 -25 -28 -25 -41 0 -26 -64 -97 -78 -88 -6 3 -13 -1 -16
-10 -4 -10 -14 -14 -26 -11 -13 3 -24 -3 -35 -19 -14 -21 -22 -24 -60 -20 -30
3 -48 -1 -56 -10 -14 -18 -29 -18 -29 -1 0 18 -43 57 -63 57 -26 0 -29 -17 -4
-25 19 -6 20 -8 4 -12 -13 -3 -16 -10 -11 -21 11 -25 14 -151 3 -158 -15 -9
-10 -34 7 -34 13 0 14 -3 5 -14 -8 -10 -9 -16 -1 -21 5 -3 10 -11 10 -16 0 -6
-4 -8 -9 -4 -6 3 -15 -4 -21 -15 -6 -11 -20 -20 -30 -20 -11 0 -20 -6 -20 -13
0 -7 -8 -20 -17 -29 -10 -9 -23 -22 -29 -28 -50 -50 -58 -54 -116 -53 -32 0
-58 -4 -58 -8 0 -5 18 -20 39 -35 22 -14 42 -32 45 -40 3 -8 16 -14 30 -14 14
0 28 -4 31 -10 3 -5 23 -10 45 -10 32 0 39 -4 44 -25 4 -14 24 -37 46 -51 24
-16 41 -36 45 -54 5 -21 11 -27 25 -23 12 3 34 -11 68 -45 43 -43 56 -50 103
-55 51 -6 76 4 63 25 -3 4 1 8 9 8 8 0 17 -6 20 -13 6 -16 80 -15 100 1 14 12
107 4 107 -9 0 -5 21 -9 46 -9 25 0 53 -4 63 -9 10 -6 40 -13 68 -17 49 -6 51
-5 55 17 3 21 8 24 50 23 38 0 45 2 36 13 -8 10 -5 13 15 13 19 0 25 4 21 15
-4 11 -2 13 9 9 8 -3 18 -1 21 4 3 6 -1 12 -9 16 -15 5 -22 36 -8 36 3 0 16
-8 27 -17 17 -15 18 -15 8 -2 -9 11 -10 34 -6 72 6 53 7 54 30 42 13 -6 50
-38 83 -69 57 -56 58 -59 45 -84 -13 -25 -12 -28 14 -49 26 -21 26 -23 12 -50
-12 -21 -13 -35 -6 -55 12 -34 5 -41 -34 -40 l-31 1 26 -30 c25 -30 30 -63 19
-107 -5 -15 -12 -21 -22 -17 -8 3 -21 0 -28 -6 -8 -6 -21 -9 -29 -5 -10 3 -15
-1 -15 -13 0 -23 -25 -45 -40 -36 -7 4 -4 -7 5 -24 13 -26 14 -39 5 -72 -6
-22 -20 -47 -30 -56 -10 -9 -17 -20 -14 -24 2 -4 -7 -16 -21 -27 -14 -11 -25
-26 -25 -34 0 -8 -9 -23 -20 -33 -11 -10 -17 -23 -12 -29 4 -6 14 -28 21 -49
10 -31 10 -41 -1 -54 -27 -32 -66 -128 -55 -135 7 -4 5 -15 -6 -32 -11 -16
-15 -35 -11 -51 4 -15 2 -25 -5 -25 -6 0 -11 -7 -11 -16 0 -11 -6 -13 -19 -9
-11 3 -22 1 -25 -4 -4 -6 -13 -8 -21 -5 -8 3 -20 -4 -27 -15 -7 -12 -19 -21
-26 -21 -6 0 -20 -9 -29 -20 -10 -11 -28 -20 -40 -20 -14 0 -23 -6 -23 -15 0
-11 -7 -14 -23 -10 -15 4 -32 -1 -48 -14 -14 -11 -37 -23 -52 -26 -14 -4 -31
-13 -38 -21 -8 -9 -16 -11 -29 -4 -9 5 -20 7 -23 3 -4 -3 -9 2 -13 11 -6 17
-44 23 -44 7 0 -9 -45 -5 -62 5 -4 3 -11 -2 -14 -10 -5 -14 -10 -14 -39 -1
-28 11 -36 11 -45 0 -16 -20 -64 -4 -68 23 -3 21 -19 29 -66 36 -10 1 -21 8
-26 15 -6 11 -8 11 -12 0 -4 -11 -8 -12 -20 -1 -9 7 -38 19 -66 27 -28 9 -69
26 -93 39 -34 20 -47 22 -70 14 -23 -8 -35 -6 -55 7 -25 16 -27 16 -50 -6 -22
-20 -26 -21 -69 -9 -25 7 -52 22 -60 34 l-15 20 0 -21 c0 -11 -7 -26 -14 -33
-8 -6 -20 -27 -26 -46 -9 -27 -21 -39 -51 -51 -45 -18 -51 -45 -19 -85 19 -25
19 -26 0 -43 -11 -10 -20 -23 -20 -28 0 -14 -32 -36 -54 -37 -17 0 -17 -2 -4
-22 24 -37 30 -87 13 -105 -8 -8 -15 -23 -15 -34 0 -11 -6 -28 -12 -39 -11
-17 -10 -22 0 -29 23 -14 4 -61 -24 -61 -17 0 -22 -4 -18 -15 4 -9 -1 -18 -12
-22 -11 -4 -25 -15 -33 -26 -9 -13 -20 -17 -36 -13 -20 5 -22 3 -17 -16 5 -22
5 -22 -18 -7 -23 15 -24 14 -49 -34 -14 -28 -35 -55 -46 -61 -28 -15 -39 -36
-40 -71 -2 -40 12 -65 35 -65 10 0 22 -4 25 -10 3 -5 2 -10 -3 -10 -6 0 -10
-6 -9 -12 1 -42 -5 -68 -15 -68 -28 0 -7 -96 23 -105 10 -4 19 -15 19 -26 0
-13 7 -19 23 -19 26 0 42 -10 43 -27 3 -33 5 -35 22 -16 13 15 25 19 50 16 37
-6 86 15 121 52 28 30 31 30 64 5 27 -21 57 -27 57 -10 0 6 6 10 14 10 9 0 12
7 9 20 -4 14 0 20 11 20 9 0 16 3 16 8 0 4 10 12 23 17 19 9 26 6 52 -24 34
-37 95 -54 95 -26 0 8 -5 15 -12 15 -9 0 -9 3 1 13 10 10 14 9 21 -4 9 -15 14
-15 52 -2 60 20 71 32 64 65 -3 18 -2 27 4 23 6 -3 10 -15 10 -26 0 -14 7 -19
30 -19 17 0 30 5 30 13 1 6 7 1 15 -13 8 -14 14 -19 15 -11 0 10 3 11 14 2 8
-7 25 -9 38 -6 13 3 36 1 51 -4 16 -6 27 -7 27 -1 0 5 13 7 28 4 19 -4 32 -1
41 10 17 21 31 20 31 0 0 -10 6 -14 15 -11 8 4 17 2 20 -3 10 -16 81 -11 106
8 13 9 33 22 44 28 11 6 25 21 31 32 6 12 14 19 17 15 4 -3 7 -2 7 4 0 12 49
5 67 -9 15 -12 105 1 115 16 5 7 8 5 8 -6 0 -9 -6 -18 -12 -21 -9 -2 -5 -12
12 -30 14 -15 28 -27 33 -27 14 0 7 48 -8 54 -13 5 -13 9 -3 26 7 11 18 20 25
20 18 0 26 19 14 34 -12 14 4 36 26 36 7 0 22 10 33 23 20 20 22 21 31 5 14
-24 26 -22 32 5 4 12 13 31 20 42 12 16 17 17 30 6 13 -10 23 -10 54 1 21 7
42 19 46 26 7 11 12 11 26 -2 17 -16 61 -12 61 6 0 5 16 -7 35 -27 22 -24 40
-35 50 -31 9 3 15 0 15 -9 0 -12 11 -10 58 7 31 12 60 27 64 34 5 7 17 10 27
7 22 -6 35 24 32 74 -2 32 -1 32 31 22 59 -19 88 -20 94 -4 4 8 12 15 19 15 8
0 17 9 20 21 6 16 13 20 35 17 16 -2 27 -1 24 4 -3 4 2 8 10 8 10 0 16 9 16
23 1 20 2 20 13 5 7 -9 24 -18 37 -20 19 -2 28 -14 41 -50 14 -40 15 -48 3
-48 -8 0 -14 -7 -14 -16 0 -8 4 -13 8 -10 4 2 8 -4 9 -14 3 -32 34 -90 49 -90
8 0 14 -9 14 -20 0 -11 -6 -20 -14 -20 -11 0 -10 -9 7 -39 l22 -39 -28 -26
c-16 -15 -27 -36 -27 -51 0 -17 -7 -28 -22 -34 -13 -5 -22 -10 -20 -12 7 -9
-19 -60 -33 -65 -9 -4 -15 -18 -15 -35 0 -16 -5 -29 -11 -29 -7 0 -9 -10 -7
-24 7 -37 -20 -42 -54 -9 l-30 28 7 -26 c6 -23 3 -27 -26 -33 -17 -3 -47 -6
-65 -6 -32 0 -34 2 -34 33 l0 34 -77 10 c-128 18 -153 17 -174 -8 -10 -12 -19
-28 -19 -36 0 -11 -8 -13 -32 -8 -18 4 -37 10 -41 14 -11 11 3 41 20 41 8 0
11 5 8 10 -3 6 3 10 14 10 12 0 21 4 21 8 0 4 -22 8 -49 8 -27 -1 -47 -4 -45
-8 3 -4 -11 -4 -29 -1 -29 4 -39 0 -61 -23 -27 -30 -32 -49 -16 -74 8 -13 10
-12 15 1 4 11 15 14 35 11 18 -2 30 0 30 7 0 7 7 7 25 -1 25 -11 34 -28 15
-28 -5 0 -9 -3 -9 -7 4 -27 -3 -35 -26 -31 -14 3 -28 1 -31 -3 -3 -5 -14 -9
-25 -9 -16 0 -19 -5 -14 -20 5 -15 3 -18 -8 -14 -13 4 -14 -1 -7 -31 15 -65
81 -132 118 -118 21 9 65 -49 84 -111 10 -33 15 -62 10 -65 -14 -10 -25 -44
-23 -70 2 -20 -1 -23 -23 -19 -22 4 -26 2 -26 -18 0 -13 8 -25 18 -28 21 -7
68 -81 64 -102 -2 -9 2 -21 8 -28 7 -10 6 -17 -5 -26 -20 -16 -19 -27 3 -34
26 -8 125 -110 112 -114 -7 -3 -3 -10 9 -19 12 -8 21 -23 21 -33 0 -10 9 -22
20 -25 20 -6 28 -25 11 -25 -4 0 -8 -13 -7 -30 1 -27 16 -45 16 -19 0 8 5 7
15 -1 12 -10 13 -15 4 -21 -7 -4 -9 -16 -6 -28 3 -14 0 -21 -9 -21 -16 0 -19
-16 -3 -25 6 -5 4 -12 -8 -20 -14 -11 -16 -16 -5 -26 6 -7 12 -9 12 -4 0 5 11
-2 26 -15 19 -19 27 -21 33 -12 11 18 27 -4 29 -38 1 -26 64 -89 70 -70 2 5
21 10 42 10 21 0 42 5 45 10 4 6 10 8 14 5 5 -2 11 9 15 26 4 23 10 30 21 25
9 -3 13 -2 10 4 -3 6 1 10 9 10 20 0 21 16 1 24 -9 3 -15 0 -15 -9 0 -8 -7
-15 -15 -15 -19 0 -19 38 -1 63 11 14 15 15 19 4 8 -22 55 -27 62 -8 6 15 7
15 15 0 13 -22 0 -89 -16 -89 -7 0 -16 -9 -19 -21 -5 -15 -10 -18 -18 -10 -18
18 -25 13 -32 -20 -5 -24 -11 -30 -26 -26 -15 4 -17 2 -9 -13 10 -19 -2 -36
-19 -26 -4 3 -17 -1 -27 -9 -16 -12 -17 -17 -6 -35 10 -17 10 -21 -3 -26 -14
-6 -14 -8 1 -25 14 -16 15 -25 7 -53 -9 -31 -8 -35 13 -46 26 -14 41 -43 25
-48 -18 -6 -12 -48 8 -66 15 -14 24 -15 40 -6 12 6 21 17 21 24 0 9 8 12 25 8
24 -4 36 -22 15 -22 -15 0 -12 -16 6 -35 11 -11 13 -19 6 -28 -6 -7 -12 -26
-14 -42 -2 -17 -9 -35 -16 -41 -8 -5 -12 -21 -10 -35 3 -22 8 -24 53 -25 28 0
67 -8 89 -17 21 -9 58 -17 81 -17 40 0 44 2 50 29 3 16 13 32 21 35 19 7 18
36 -2 36 -8 0 -13 4 -10 9 3 5 16 7 29 3 20 -5 21 -4 8 11 -12 15 -11 17 12
17 34 0 52 23 32 40 -14 12 -12 15 15 26 17 7 38 27 48 44 14 25 22 29 41 25
27 -7 61 19 61 47 0 12 7 18 23 18 25 0 97 71 97 95 0 12 4 13 19 4 37 -24
172 28 186 71 3 10 19 22 35 25 38 8 46 22 26 44 -9 10 -16 24 -16 32 0 22 80
139 96 139 11 0 11 5 1 27 -9 21 -9 27 1 31 21 7 13 26 -17 43 -15 9 -30 26
-34 38 -4 18 -2 20 19 15 14 -4 24 -2 24 5 0 6 7 8 15 5 21 -8 19 -2 -10 32
-14 16 -25 34 -25 39 0 6 -15 16 -32 24 l-33 13 29 10 c21 8 34 8 49 -1 10 -7
22 -10 25 -7 3 3 1 6 -4 6 -5 0 -10 19 -11 43 -1 23 1 36 3 29 3 -6 9 -10 14
-7 5 3 11 -3 15 -14 3 -11 13 -22 22 -25 12 -5 13 -3 6 6 -8 11 -10 70 -3 88
1 3 3 12 4 20 1 10 10 14 29 12 16 -2 35 2 42 8 16 14 35 5 35 -16 0 -8 7 -14
16 -14 11 0 14 -5 10 -16 -5 -14 -4 -15 8 -5 8 7 20 10 25 6 7 -4 8 0 4 11 -5
14 -3 15 15 5 31 -16 48 -15 33 3 -10 12 -9 14 7 9 27 -7 37 24 12 37 -11 6
-20 17 -20 25 0 8 -8 15 -18 15 -18 0 -52 29 -52 43 0 4 9 7 20 7 11 0 20 5
20 10 0 6 12 15 26 20 32 13 27 32 -12 44 -74 22 -79 28 -81 108 -1 40 -7 94
-14 120 -12 46 -11 49 14 72 25 23 32 45 28 89 -1 9 5 20 13 23 18 7 22 49 6
59 -6 4 -10 22 -8 40 1 18 -2 39 -8 47 -5 7 -11 26 -13 41 -1 15 -8 46 -14 69
-10 34 -17 41 -41 44 -16 2 -35 5 -42 8 -18 7 -19 77 -1 95 10 11 10 14 0 18
-7 3 -13 15 -13 29 0 17 4 22 16 17 13 -5 15 -2 10 15 -8 26 -12 44 -21 110
-6 48 -5 52 14 52 25 0 28 28 5 37 -9 3 -25 1 -36 -6 -11 -7 -28 -9 -39 -6
-14 5 -25 1 -34 -11 -13 -18 -14 -18 -33 -1 -11 10 -26 17 -34 15 -7 -1 -28 8
-46 20 -19 14 -32 19 -32 11 0 -8 -7 -5 -20 6 -22 20 -27 64 -9 82 13 13 4 33
-16 33 -8 0 -19 9 -25 20 -6 11 -17 20 -24 20 -8 0 -13 11 -12 30 1 19 5 28
13 26 29 -12 19 74 -14 115 -19 23 -18 24 39 24 43 0 53 3 52 16 -1 14 4 15
25 9 14 -4 32 -5 39 -3 7 3 28 -5 48 -16 19 -12 41 -21 49 -21 19 0 30 -21 15
-30 -7 -4 -8 -10 -3 -13 6 -4 16 6 24 21 24 48 29 52 55 41 16 -6 23 -5 19 1
-3 5 4 19 16 31 l22 22 39 -41 c21 -23 39 -52 39 -67 2 -37 3 -43 11 -50 8 -8
-12 -55 -24 -55 -18 0 -6 -34 32 -85 22 -30 40 -59 40 -65 0 -6 17 -37 38 -68
42 -62 86 -176 78 -199 -3 -8 -2 -22 4 -32 6 -13 4 -24 -6 -40 -13 -19 -14
-27 -4 -52 7 -17 18 -28 25 -25 6 2 18 0 26 -5 11 -7 11 -9 -3 -9 -31 0 -19
-33 27 -80 25 -25 45 -50 45 -57 0 -6 14 -24 31 -40 17 -15 43 -41 58 -57 25
-27 29 -28 94 -23 59 4 69 2 78 -14 10 -20 54 -26 64 -9 4 6 17 4 35 -5 16 -8
35 -12 43 -9 8 3 26 -8 42 -28 15 -17 34 -33 43 -35 9 -1 18 -7 20 -12 2 -6
16 -11 30 -11 19 0 34 -10 50 -34 13 -19 44 -44 70 -57 49 -25 64 -41 69 -74
2 -10 12 -28 21 -40 10 -11 26 -33 36 -48 9 -15 28 -33 40 -39 21 -9 23 -15
19 -49 -5 -35 -2 -43 26 -68 30 -27 31 -29 17 -61 -7 -18 -11 -41 -9 -51 7
-27 50 -25 58 2 6 17 13 20 41 17 19 -2 34 0 34 5 0 4 13 -1 29 -12 32 -23 48
-26 53 -11 2 7 16 5 40 -5 21 -8 61 -15 90 -15 29 -1 71 -7 93 -15 47 -17 67
-6 63 34 -2 18 2 26 12 26 19 0 26 -35 9 -46 -9 -5 -5 -10 14 -14 14 -4 29
-16 32 -26 4 -11 11 -17 16 -14 5 4 5 14 -1 25 -7 13 -7 21 0 25 17 10 11 23
-11 27 -18 3 -19 5 -6 22 13 18 15 18 40 1 15 -9 34 -15 42 -11 9 3 13 2 10
-4 -3 -6 0 -10 8 -10 8 0 17 7 21 15 3 8 12 12 21 9 11 -5 14 -2 9 10 -5 12
-2 15 11 9 15 -5 17 -2 13 15 -7 27 -2 27 40 2 17 -11 32 -17 32 -14 0 11 41
-24 69 -60 63 -80 92 -91 223 -87 49 1 79 -2 83 -10 6 -8 9 -8 15 1 10 17 38
1 53 -31 7 -13 22 -25 34 -27 12 -2 27 -9 33 -17 6 -8 18 -11 26 -8 8 3 15 -1
15 -8 1 -8 3 -21 4 -29 0 -8 5 -23 9 -33 11 -22 36 -4 36 25 0 15 4 18 18 13
9 -4 31 -9 48 -12 26 -4 33 -1 38 15 4 11 17 23 30 26 37 9 42 62 15 148 -21
68 -21 72 -4 84 15 11 16 18 7 36 -6 13 -11 17 -11 9 -1 -11 -6 -10 -21 4 -11
10 -20 24 -20 30 0 7 -7 18 -15 25 -8 7 -13 16 -10 20 3 4 -2 24 -10 44 -14
33 -14 37 5 56 20 20 28 56 10 45 -5 -3 -10 3 -10 14 0 14 6 21 20 21 28 0 60
35 60 64 0 14 9 41 21 60 16 27 18 39 10 54 -9 18 -8 19 11 14 18 -4 20 -2 16
21 -6 29 2 33 30 16 14 -9 25 -8 50 5 30 16 72 22 59 9 -4 -3 -2 -12 4 -20 6
-7 9 -21 7 -31 -5 -17 -2 -18 19 -8 14 6 27 23 30 39 6 31 33 36 54 11 23 -28
60 -37 74 -18 11 15 14 15 39 -1 20 -14 25 -14 21 -3 -5 11 2 14 30 12 20 -2
40 -6 45 -9 6 -3 10 -2 10 4 0 5 -5 11 -12 13 -10 4 -9 14 2 47 13 39 12 44
-3 53 -25 13 -22 42 3 35 11 -3 20 -1 20 5 0 6 11 8 25 4 18 -5 23 -3 19 7 -5
14 33 61 56 69 9 3 11 10 5 24 -23 54 -2 111 31 83 10 -8 14 -8 14 0 0 6 5 11
10 11 6 0 10 -9 10 -20 0 -10 8 -24 18 -30 16 -10 16 -10 0 -20 -25 -15 -22
-28 5 -32 24 -3 55 -57 64 -110 6 -38 33 -76 51 -70 9 3 10 -3 3 -20 -6 -16
-16 -23 -36 -23 -35 -1 -50 -35 -36 -77 6 -17 6 -30 0 -33 -18 -12 -9 -64 17
-94 14 -17 24 -38 20 -46 -3 -8 -1 -17 4 -20 6 -4 10 -12 10 -18 -1 -7 -9 -3
-18 8 -10 11 -28 26 -41 33 -23 13 -23 13 -19 -12 5 -26 -2 -31 -42 -28 -8 0
2 -15 23 -34 42 -39 70 -41 75 -6 3 19 6 21 18 11 10 -8 11 -15 4 -24 -6 -7
-12 -29 -14 -49 -2 -20 -6 -39 -10 -43 -11 -11 -6 -30 14 -53 24 -27 25 -34 6
-50 -8 -6 -12 -18 -9 -25 4 -13 -29 -71 -48 -85 -4 -3 -5 -17 -2 -33 4 -18 12
-27 24 -27 11 0 19 5 19 11 0 5 5 7 10 4 8 -5 8 -11 1 -19 -20 -24 7 -36 45
-20 21 9 34 10 34 4 0 -13 26 0 58 30 21 19 22 27 16 81 -5 44 -3 59 6 59 10
0 10 3 0 15 -7 8 -10 15 -7 15 3 0 2 13 -3 29 -7 25 -5 32 13 44 17 11 19 17
10 28 -6 8 -14 31 -18 52 -7 36 -10 39 -35 33 -22 -4 -29 -1 -33 14 -4 17 -1
19 18 14 18 -4 24 -1 29 21 4 14 4 30 1 34 -3 5 11 9 30 8 23 -1 37 -7 40 -17
3 -9 17 -23 32 -31 23 -13 27 -12 37 5 36 61 54 81 74 84 20 3 22 7 16 35 -3
18 -10 37 -14 42 -13 18 -19 60 -10 75 5 8 23 14 44 13 35 -1 47 9 26 22 -8 5
-8 11 0 20 6 7 7 21 3 31 -6 16 -5 17 9 6 26 -21 34 6 11 36 -27 38 -34 59
-25 83 7 19 9 19 22 4 11 -14 11 -18 0 -25 -7 -4 -10 -15 -7 -24 8 -20 45 -15
63 8 7 10 17 15 22 12 16 -10 25 45 9 58 -24 20 -47 65 -41 80 4 10 -9 30 -37
56 -23 22 -41 41 -38 44 2 2 19 11 37 20 28 14 32 21 32 56 0 22 4 40 9 40 5
0 9 6 8 13 -1 36 4 57 14 57 7 0 27 15 45 33 33 31 42 52 27 59 -18 7 -63 109
-63 140 0 19 -5 39 -11 45 -6 6 -10 30 -7 52 2 23 -1 41 -6 41 -5 0 -6 3 -3 6
4 4 13 1 22 -6 13 -11 15 -9 15 13 0 14 -7 28 -16 31 -14 5 -14 7 0 22 9 8 21
12 27 8 7 -4 9 0 5 12 -5 16 0 19 29 20 19 0 38 3 41 7 4 3 -2 24 -13 46 -11
22 -23 38 -26 35 -8 -9 -42 4 -67 26 -13 11 -28 20 -34 20 -6 0 -3 -7 7 -14
23 -18 22 -39 -2 -31 -20 6 -37 -9 -42 -39 -3 -17 -14 -10 -64 41 -33 33 -65
58 -72 56 -14 -5 -47 42 -39 55 7 12 -18 35 -27 25 -4 -3 -7 -1 -7 5 0 7 -9
12 -19 12 -11 0 -23 5 -27 11 -3 6 -22 17 -41 25 -18 8 -36 21 -40 29 -3 8
-11 15 -18 15 -8 0 -11 8 -8 20 3 11 12 20 19 20 8 0 14 4 14 9 0 5 8 12 19
16 10 3 35 21 55 41 31 31 36 32 36 14 0 -16 6 -20 35 -20 46 0 50 2 48 23 -2
9 4 17 12 17 8 0 15 9 15 19 0 24 26 34 51 20 24 -13 59 -3 59 17 0 12 4 12
34 0 22 -9 37 -11 44 -4 6 6 14 -1 23 -21 8 -17 21 -31 30 -31 9 0 19 -9 22
-21 4 -15 2 -19 -9 -15 -12 5 -12 1 1 -25 9 -16 20 -27 25 -24 6 4 10 -3 10
-15 0 -14 5 -20 13 -16 6 3 19 9 28 12 21 7 34 65 17 75 -9 6 -9 11 0 22 14
17 14 165 0 183 -16 22 35 25 57 4 25 -24 39 -26 31 -5 -3 8 2 18 10 23 22 12
8 58 -26 82 -16 11 -32 20 -36 20 -5 0 -18 12 -29 27 -12 14 -30 27 -41 28
-10 1 -30 7 -43 14 -18 10 -25 10 -31 1 -5 -8 -24 5 -60 38 -52 49 -58 72 -19
72 16 0 18 5 13 26 -6 24 -5 25 15 12 26 -16 26 -23 -1 -50 -17 -17 -18 -20
-4 -15 10 4 21 7 26 7 5 0 12 9 15 20 8 25 32 25 70 0 38 -25 59 -25 95 1 16
13 35 19 45 15 29 -11 65 4 65 28 1 18 2 19 13 5 25 -33 87 -25 87 11 0 5 16
10 36 10 40 0 39 -2 20 108 -3 19 -1 41 4 50 5 9 13 36 18 60 9 38 8 44 -11
57 l-21 15 22 16 c18 12 23 24 20 48 -3 27 0 31 20 28 15 -2 22 2 22 13 0 9 8
29 19 43 24 35 36 73 25 81 -5 3 -17 23 -26 43 -14 31 -23 37 -53 40 l-35 3
67 45 c38 25 79 62 92 83 13 20 29 37 36 37 17 0 72 61 84 93 6 16 18 27 30
27 11 0 21 9 24 21 3 12 10 18 15 15 5 -3 7 6 4 21 -3 18 -1 24 6 19 16 -9 92
53 92 75 0 14 7 16 42 12 36 -5 40 -4 35 10 -4 11 -1 17 9 17 9 0 33 12 54 28
30 21 40 35 45 67 4 34 11 43 35 52 22 8 30 18 30 35 0 13 9 29 20 36 11 7 20
19 20 27 0 8 4 15 10 15 5 0 7 7 3 16 -5 13 -2 15 13 10 44 -13 53 15 41 126
-3 34 -1 46 7 41 6 -4 19 -9 29 -10 20 -3 23 23 8 75 -8 25 -7 34 4 38 7 3 16
12 19 19 4 11 0 12 -20 5 -17 -7 -32 -6 -45 1 -12 6 -28 8 -36 5 -9 -4 -21 -2
-27 2 -6 5 -25 12 -42 15 -24 5 -36 1 -50 -14 -30 -34 -51 -41 -89 -30 -26 7
-37 6 -46 -5 -6 -8 -20 -14 -30 -14 -10 0 -21 -4 -24 -10 -3 -5 -17 -10 -31
-10 -20 0 -24 -5 -24 -29 0 -31 -30 -61 -60 -61 -11 0 -16 -9 -15 -27 0 -25
-5 -29 -46 -39 -25 -7 -55 -17 -67 -23 -27 -14 -32 -14 -27 2 3 7 -4 13 -17
14 -90 9 -117 20 -124 47 -7 28 -104 85 -104 62 0 -17 -67 -39 -84 -28 -6 3
-15 7 -21 7 -18 0 -40 20 -51 45 l-11 25 -13 -38 c-8 -20 -19 -37 -25 -37 -6
0 -21 -9 -33 -20 -12 -11 -28 -20 -37 -20 -13 0 -13 -3 -3 -19 10 -16 9 -23
-5 -39 -9 -10 -17 -26 -17 -35 0 -12 -9 -17 -32 -17 -29 -1 -31 -2 -17 -13 15
-12 15 -14 -1 -35 -10 -12 -31 -27 -46 -33 -27 -10 -28 -12 -11 -23 21 -16 22
-26 3 -26 -8 0 -16 7 -20 15 -3 8 -15 15 -26 15 -12 0 -20 7 -20 18 -1 10 -7
3 -15 -15 -12 -27 -20 -33 -45 -33 -17 0 -40 -4 -50 -10 -13 -7 -21 -6 -30 5
-14 17 -35 21 -25 5 3 -6 -2 -13 -12 -17 -10 -4 -25 -16 -35 -28 -16 -19 -17
-20 -62 -3 -45 16 -46 16 -46 -2 0 -11 -11 -30 -24 -43 -18 -18 -27 -21 -44
-14 -17 8 -29 4 -57 -17 -27 -21 -39 -25 -53 -17 -35 19 -115 -5 -144 -42 -10
-12 -18 -16 -18 -9 0 19 -31 14 -37 -7 -3 -11 -14 -18 -31 -19 -15 0 -44 -2
-65 -4 -36 -3 -40 -1 -57 32 -10 19 -28 41 -39 48 -12 7 -21 19 -21 27 0 9
-12 21 -26 27 -19 9 -24 17 -19 32 4 12 7 27 7 34 2 14 18 17 18 2 0 -5 5 -10
10 -10 6 0 10 7 10 15 0 8 6 15 13 15 9 0 9 2 -1 9 -28 17 -6 41 39 41 28 0
41 18 44 58 1 18 -4 22 -26 22 -16 0 -30 -4 -33 -9 -10 -15 5 -41 23 -41 14 0
14 -2 1 -10 -10 -6 -20 -4 -32 7 -17 15 -18 15 -18 -5 0 -28 -33 -28 -75 -1
-16 10 -40 23 -52 28 -11 5 -24 15 -28 20 -3 6 -17 11 -31 11 -15 0 -49 21
-90 55 -52 45 -69 54 -89 49 -14 -3 -31 -1 -39 5 -10 8 -17 6 -31 -9 -10 -12
-24 -19 -31 -16 -7 3 -15 0 -17 -7 -3 -9 -9 -8 -21 3 -10 8 -33 13 -51 11 -31
-2 -33 -1 -39 41 -5 32 -13 46 -29 53 -12 6 -26 20 -32 33 -5 12 -13 22 -18
22 -4 0 -5 5 -2 10 3 6 -1 13 -9 16 -9 3 -13 10 -10 15 3 5 -2 9 -10 9 -15 0
-21 16 -18 52 1 10 -6 22 -16 27 -31 16 -145 42 -162 36 -10 -3 -23 1 -30 10
-9 11 -17 12 -32 4 -11 -6 -31 -8 -44 -5 -13 4 -41 1 -63 -6 -31 -10 -42 -19
-47 -40 -6 -31 -23 -38 -25 -10 -2 23 -2 24 6 44 10 25 -29 58 -68 58 -18 0
-37 4 -42 9 -6 5 -22 7 -37 4 -19 -4 -25 -10 -21 -21 5 -11 3 -13 -8 -6 -31
19 -54 14 -75 -19 -18 -27 -28 -33 -58 -33 -20 0 -36 3 -36 7 0 6 -22 12 -81
22 -8 2 -34 13 -57 25 -24 12 -55 22 -71 22 -29 0 -81 33 -81 52 0 5 -11 19
-25 30 -14 11 -25 26 -25 33 0 19 -43 42 -48 26 -2 -6 -10 -18 -19 -26 -8 -8
-11 -19 -8 -25 10 -16 -11 -43 -33 -45 -14 -1 -25 8 -33 27 -6 16 -9 31 -7 34
9 9 39 -27 32 -38 -4 -6 -3 -8 2 -5 17 10 16 83 -1 97 -19 15 -20 44 -2 37 8
-3 14 1 14 9 0 8 -9 14 -19 14 -14 0 -18 8 -18 35 0 34 14 48 22 23 6 -17 54
20 71 56 l15 28 16 -28 c8 -16 18 -37 22 -46 3 -10 10 -18 15 -18 13 0 11 -54
-2 -67 -7 -7 -3 -19 16 -39 22 -24 29 -26 45 -16 11 6 26 9 35 6 9 -4 15 -1
15 9 0 8 7 20 16 27 10 9 14 26 12 49 -2 28 -11 41 -38 60 -19 13 -36 27 -38
32 -2 5 -24 19 -50 31 -26 13 -49 26 -52 29 -3 3 -15 11 -27 18 -17 9 -21 17
-17 44 5 28 1 35 -30 55 -19 13 -38 23 -42 22 -4 -1 -11 4 -15 12 -7 10 -9 10
-9 -2 0 -13 -1 -13 -10 0 -7 11 -10 11 -10 2z m650 -1143 c0 -15 -22 -21 -33
-10 -9 9 -8 14 2 20 7 5 10 15 7 22 -4 8 0 5 8 -5 9 -11 16 -23 16 -27z m2432
-22 c-2 -23 1 -37 8 -37 6 0 8 -5 4 -12 -5 -8 -10 -7 -18 4 -6 8 -21 20 -34
27 -23 12 -27 46 -5 46 6 0 15 3 19 8 16 16 29 -1 26 -36z m-2342 13 c0 -5 -4
-10 -10 -10 -5 0 -10 5 -10 10 0 6 5 10 10 10 6 0 10 -4 10 -10z m-140 -10 c0
-5 -7 -7 -15 -4 -8 4 -15 8 -15 10 0 2 7 4 15 4 8 0 15 -4 15 -10z m1415 -270
c3 -5 2 -10 -4 -10 -5 0 -13 5 -16 10 -3 6 -2 10 4 10 5 0 13 -4 16 -10z m100
-79 c3 -5 1 -12 -5 -16 -5 -3 -10 1 -10 9 0 18 6 21 15 7z m20 -50 c3 -5 1
-12 -5 -16 -5 -3 -10 1 -10 9 0 18 6 21 15 7z m-5 -66 c0 -8 12 -21 28 -29 18
-10 21 -15 10 -16 -14 0 -15 -5 -5 -35 9 -31 8 -38 -10 -57 -23 -22 -43 -17
-43 11 0 10 -3 21 -7 24 -11 11 -12 57 -2 57 6 0 8 9 4 20 -7 21 0 40 16 40 5
0 9 -7 9 -15z m-4019 -182 c-9 -7 -19 -13 -23 -13 -12 0 -10 28 3 52 l12 21
12 -23 c11 -21 11 -26 -4 -37z m3999 -1083 c0 -5 -4 -10 -10 -10 -5 0 -10 5
-10 10 0 6 5 10 10 10 6 0 10 -4 10 -10z m-5297 -428 c16 -7 14 -12 -15 -45
-19 -20 -39 -37 -45 -37 -6 0 -19 14 -27 32 -20 38 -7 60 23 41 15 -10 20 -9
25 2 6 16 12 17 39 7z m-103 -70 c-7 -3 -16 2 -21 9 -16 25 -9 32 12 13 13
-12 16 -20 9 -22z m1285 7 c0 -7 -8 -15 -17 -17 -18 -3 -25 18 -11 32 10 10
28 1 28 -15z m-31 -54 c4 -14 4 -30 1 -36 -4 -5 3 -24 14 -43 12 -18 21 -40
21 -47 0 -21 -39 -51 -69 -53 -14 0 -29 -5 -32 -9 -4 -5 -17 -4 -29 3 -16 8
-19 14 -11 20 7 4 11 20 9 36 -2 19 1 28 9 27 7 -2 15 13 19 32 3 19 10 37 14
40 4 2 5 16 2 30 -4 21 -1 25 21 25 18 0 26 -7 31 -25z m-1253 -17 c11 -21 11
-22 -4 -9 -10 7 -17 17 -17 22 0 15 9 10 21 -13z m419 -73 c0 -16 -27 -32 -36
-22 -7 6 17 36 29 37 4 0 7 -7 7 -15z m-400 -25 c0 -5 -6 -10 -14 -10 -8 0
-18 5 -21 10 -3 6 3 10 14 10 12 0 21 -4 21 -10z m-43 -37 c2 -6 -2 -13 -10
-16 -8 -3 -13 3 -14 15 -2 20 18 21 24 1z m-62 -293 c3 -5 2 -10 -4 -10 -5 0
-13 5 -16 10 -3 6 -2 10 4 10 5 0 13 -4 16 -10z m50 -40 c-3 -5 -10 -10 -16
-10 -5 0 -9 5 -9 10 0 6 7 10 16 10 8 0 12 -4 9 -10z m-958 -186 c-2 -2 -12
-2 -21 2 -15 6 -15 7 1 20 15 11 19 10 21 -2 2 -9 2 -18 -1 -20z m1533 -214
c0 -5 -2 -10 -4 -10 -3 0 -8 5 -11 10 -3 6 -1 10 4 10 6 0 11 -4 11 -10z m80
-41 c0 -5 -9 -9 -20 -9 -19 0 -44 32 -34 43 8 7 54 -22 54 -34z m101 -36 c0
-5 2 -16 4 -26 3 -18 3 -18 -16 -2 -10 10 -16 22 -13 26 6 11 24 12 25 2z
m-41 -68 c0 -8 -4 -15 -10 -15 -5 0 -10 7 -10 15 0 8 5 15 10 15 6 0 10 -7 10
-15z m5127 -322 c-3 -3 -16 -2 -28 2 l-22 7 24 14 c20 11 25 10 27 -2 2 -9 1
-18 -1 -21z m-3796 -143 c14 -8 19 -7 19 1 0 8 6 7 18 -4 9 -8 21 -16 27 -16
5 0 11 -4 13 -10 2 -6 -1 -11 -6 -11 -5 0 -13 -11 -16 -25 -7 -29 -18 -32 -36
-10 -7 8 -19 15 -27 15 -7 0 -16 6 -19 14 -3 8 -14 12 -27 9 -21 -5 -21 -5 3
20 30 31 27 30 51 17z m-68 -371 c-7 -7 -16 -3 -32 16 -28 37 -15 54 17 21 19
-18 23 -29 15 -37z"/>
<path d="M12050 13120 c0 -5 4 -10 9 -10 6 0 13 5 16 10 3 6 -1 10 -9 10 -9 0
-16 -4 -16 -10z"/>
<path d="M12100 13119 c0 -5 -6 -9 -14 -9 -8 0 -20 -16 -26 -35 -6 -19 -16
-35 -22 -35 -7 0 -7 -4 -1 -12 20 -25 20 -55 2 -93 -11 -22 -17 -47 -14 -56 7
-21 -23 -72 -36 -63 -11 6 -12 -30 -1 -40 4 -4 8 -20 10 -34 5 -48 9 -82 12
-87 5 -10 11 -72 13 -131 1 -33 8 -68 14 -76 7 -8 15 -37 17 -63 3 -41 9 -54
37 -77 19 -16 35 -24 37 -18 3 7 10 7 22 0 11 -6 25 -9 32 -8 6 2 12 -1 13 -7
1 -21 17 -35 42 -35 31 0 84 -36 77 -54 -6 -16 35 -68 48 -60 6 4 14 0 19 -7
6 -10 9 -11 9 -1 0 15 24 16 49 0 28 -17 54 -3 47 26 -6 23 -3 25 31 28 31 2
39 7 41 27 2 14 0 21 -7 17 -6 -4 -13 4 -17 18 -3 13 -12 27 -19 30 -17 6 2
66 32 98 29 31 39 84 19 91 -26 10 -18 27 12 27 21 0 27 5 27 23 0 19 -4 22
-26 19 -32 -5 -129 43 -129 63 0 9 -11 20 -24 26 -26 12 -39 52 -23 68 17 17
-2 79 -34 111 -17 16 -26 30 -21 30 10 0 26 37 36 83 4 15 2 27 -3 27 -5 0
-12 18 -16 40 -7 39 -35 58 -35 24 0 -14 -3 -14 -16 -3 -8 7 -14 22 -12 34 4
18 1 21 -19 17 -14 -3 -35 1 -48 8 -20 11 -27 11 -40 0 -12 -10 -15 -10 -15 4
0 9 5 16 10 16 6 0 5 12 -4 28 -12 22 -22 28 -50 29 -20 1 -36 -3 -36 -8z"/>
<path d="M12428 13107 c-4 -18 -1 -24 9 -20 15 6 16 13 4 31 -6 10 -10 7 -13
-11z"/>
<path d="M12385 13060 c3 -5 8 -10 11 -10 2 0 4 5 4 10 0 6 -5 10 -11 10 -5 0
-7 -4 -4 -10z"/>
<path d="M10040 12950 c0 -5 5 -10 11 -10 5 0 7 5 4 10 -3 6 -8 10 -11 10 -2
0 -4 -4 -4 -10z"/>
<path d="M6650 12780 c0 -11 -8 -25 -18 -31 -12 -8 -17 -20 -14 -35 2 -14 -1
-24 -7 -24 -6 0 -18 -11 -27 -25 -15 -24 -15 -29 -1 -63 23 -56 29 -90 15 -94
-7 -3 -13 -20 -14 -40 -2 -27 3 -41 22 -59 13 -12 24 -31 24 -41 0 -20 45 -46
57 -34 4 4 -1 22 -11 39 -10 18 -13 33 -8 35 7 2 5 20 -5 48 -8 24 -19 41 -24
38 -5 -3 -9 4 -9 15 0 12 5 21 11 21 6 0 -1 14 -16 32 -15 18 -23 34 -17 36
12 4 47 75 55 112 4 14 9 37 12 51 5 19 2 28 -9 32 -11 5 -16 1 -16 -13z"/>
<path d="M11144 12554 c3 -9 6 -19 6 -24 0 -5 9 -8 20 -7 19 1 19 2 -2 24 -25
27 -32 29 -24 7z"/>
<path d="M14580 12429 c0 -5 5 -7 10 -4 6 3 10 8 10 11 0 2 -4 4 -10 4 -5 0
-10 -5 -10 -11z"/>
<path d="M6380 11970 c0 -19 3 -21 12 -12 9 9 9 15 0 24 -9 9 -12 7 -12 -12z"/>
<path d="M8773 11923 c-7 -3 -13 -11 -13 -19 0 -8 -7 -17 -15 -20 -23 -9 -18
-20 15 -34 17 -7 30 -18 30 -24 0 -8 2 -8 8 0 4 6 14 14 22 17 12 4 11 6 -3 6
-11 1 -17 8 -16 19 3 26 -14 60 -28 55z"/>
<path d="M8700 11860 c-8 -5 -24 -11 -34 -15 -14 -4 -16 -9 -8 -17 8 -8 18 -7
36 6 15 9 26 21 26 26 0 12 0 12 -20 0z"/>
<path d="M8575 11350 c-3 -5 3 -10 14 -10 12 0 21 5 21 10 0 6 -6 10 -14 10
-8 0 -18 -4 -21 -10z"/>
<path d="M13485 10339 c-4 -6 -5 -12 -2 -15 7 -7 37 7 37 17 0 13 -27 11 -35
-2z"/>
<path d="M13005 9900 c3 -5 8 -10 11 -10 2 0 4 5 4 10 0 6 -5 10 -11 10 -5 0
-7 -4 -4 -10z"/>
<path d="M13305 9840 c-3 -5 1 -10 9 -10 9 0 16 5 16 10 0 6 -4 10 -9 10 -6 0
-13 -4 -16 -10z"/>
<path d="M13340 9746 c0 -2 7 -9 15 -16 12 -10 15 -10 15 4 0 9 -7 16 -15 16
-8 0 -15 -2 -15 -4z"/>
<path d="M9090 9599 c0 -5 9 -9 20 -9 11 0 20 2 20 4 0 2 -9 6 -20 9 -11 3
-20 1 -20 -4z"/>
<path d="M7919 9317 c-13 -8 -14 -15 -5 -33 13 -27 26 -27 36 2 10 25 -10 44
-31 31z"/>
<path d="M9080 9315 c0 -2 8 -9 18 -14 14 -8 19 -6 19 5 0 7 -9 14 -19 14 -10
0 -18 -2 -18 -5z"/>
<path d="M7372 8921 c2 -7 7 -12 11 -12 12 1 9 15 -3 20 -7 2 -11 -2 -8 -8z"/>
<path d="M5528 8853 c7 -3 16 -2 19 1 4 3 -2 6 -13 5 -11 0 -14 -3 -6 -6z"/>
<path d="M7375 8830 c-3 -5 1 -10 10 -10 9 0 13 5 10 10 -3 6 -8 10 -10 10 -2
0 -7 -4 -10 -10z"/>
<path d="M11994 8622 c-6 -4 -14 -21 -17 -37 -6 -30 -5 -31 29 -27 19 2 31 8
28 14 -4 6 0 6 12 0 14 -7 24 -7 36 2 15 11 15 14 -2 36 -16 21 -22 23 -38 13
-11 -7 -23 -8 -28 -3 -5 5 -14 6 -20 2z"/>
<path d="M12520 8441 c0 -5 5 -13 10 -16 6 -3 10 -2 10 4 0 5 -4 13 -10 16 -5
3 -10 2 -10 -4z"/>
<path d="M10941 8094 c0 -11 3 -14 6 -6 3 7 2 16 -1 19 -3 4 -6 -2 -5 -13z"/>
<path d="M10935 8050 c-3 -5 -1 -10 4 -10 6 0 11 5 11 10 0 6 -2 10 -4 10 -3
0 -8 -4 -11 -10z"/>
<path d="M10901 7988 c-12 -19 -11 -23 6 -37 11 -9 18 -26 17 -39 -1 -18 1
-20 13 -10 11 9 19 9 33 0 19 -11 30 -7 30 13 0 10 -74 95 -82 95 -2 0 -9 -10
-17 -22z"/>
<path d="M12586 7995 c-3 -9 -12 -12 -21 -9 -9 4 -23 0 -33 -8 -9 -9 -33 -20
-52 -27 -29 -10 -37 -9 -46 4 -7 10 -15 12 -18 6 -4 -6 -27 -8 -56 -4 -46 5
-50 4 -50 -16 0 -25 -25 -28 -76 -6 -30 12 -34 18 -29 36 6 17 4 21 -8 16 -8
-3 -19 -1 -25 5 -7 7 -18 2 -37 -16 -14 -14 -34 -26 -44 -26 -10 0 -21 -8 -23
-18 -3 -10 -28 -30 -55 -45 -42 -22 -52 -24 -64 -12 -8 8 -27 17 -44 20 -30 7
-30 7 -7 -10 12 -9 26 -14 30 -11 10 6 66 -53 75 -79 8 -19 36 -20 43 0 7 18
53 17 76 -2 10 -9 18 -11 22 -4 8 13 74 7 89 -8 16 -16 34 -14 41 5 5 13 9 14
21 4 9 -7 18 -10 22 -6 3 3 13 0 22 -8 27 -23 63 -27 77 -8 11 14 16 15 34 4
17 -10 25 -9 46 5 21 13 30 14 45 5 30 -19 68 11 75 59 6 33 10 39 26 33 17
-5 19 -1 17 39 -2 37 -8 49 -35 71 -26 20 -33 22 -38 11z"/>
<path d="M9149 7994 c-1 -2 -2 -9 -3 -14 0 -6 -8 -15 -16 -21 -13 -8 -12 -12
5 -27 30 -26 11 -62 -32 -62 -18 0 -33 4 -33 10 0 5 -7 7 -15 4 -8 -4 -15 -13
-15 -20 0 -16 -29 -65 -45 -76 -5 -4 -10 -18 -10 -32 -1 -20 5 -25 32 -28 21
-3 33 0 33 8 0 10 26 24 55 28 6 1 8 12 7 25 -3 20 0 23 17 18 16 -4 21 0 21
13 0 10 6 25 13 32 8 7 12 19 9 27 -3 10 0 12 12 8 12 -5 19 1 26 18 5 14 14
25 20 25 5 0 9 11 8 24 -1 14 -6 22 -11 19 -4 -2 -13 0 -20 5 -14 10 -56 22
-58 16z"/>
<path d="M10986 7865 c4 -8 10 -15 15 -15 4 0 6 7 3 15 -4 8 -10 15 -15 15 -4
0 -6 -7 -3 -15z"/>
<path d="M10980 7826 c0 -8 4 -17 9 -20 5 -4 7 3 4 14 -6 23 -13 26 -13 6z"/>
</g>
</svg>
