<?xml version="1.0" standalone="no"?>
<!DOCTYPE svg PUBLIC "-//W3C//DTD SVG 20010904//EN"
 "http://www.w3.org/TR/2001/REC-SVG-20010904/DTD/svg10.dtd">
<svg version="1.0" xmlns="http://www.w3.org/2000/svg"
 width="723.644056pt" height="466.238999pt" viewBox="0 0 723.644056 466.238999"
 preserveAspectRatio="xMidYMid meet">
<metadata>
Created by potrace 1.15, written by Peter Selinger 2001-2017
</metadata>
<g transform="translate(-650.134502,1217.291503) scale(0.100000,-0.100000)"
fill="#222222" stroke="none">
<path d="M8920 12167 c0 -10 7 -34 15 -53 8 -20 13 -40 10 -44 -3 -4 19 -24
48 -44 28 -20 64 -45 80 -57 l27 -21 1 24 c0 18 4 14 14 -15 8 -21 28 -57 45
-80 17 -23 30 -53 30 -69 0 -34 20 -76 49 -102 12 -11 21 -26 21 -34 0 -9 7
-24 17 -34 9 -11 11 -18 5 -18 -7 0 -12 -7 -12 -15 0 -19 -24 -30 -42 -19 -7
5 -17 9 -23 10 -5 1 -18 5 -27 9 -15 6 -17 3 -12 -21 l5 -29 -53 0 c-34 0 -64
6 -80 17 -30 20 -80 15 -99 -8 -9 -11 -15 -11 -25 -3 -8 6 -14 16 -14 22 0 6
-7 18 -16 28 -15 17 -17 16 -35 -2 -10 -10 -28 -19 -39 -19 -11 0 -20 -7 -20
-15 0 -22 -43 -19 -64 4 -9 10 -37 22 -62 26 -24 3 -44 10 -44 15 0 12 -47 5
-65 -10 -12 -10 -18 -10 -30 0 -10 9 -19 9 -27 2 -19 -14 -56 3 -69 32 -6 13
-17 22 -24 20 -7 -3 -16 0 -20 7 -5 8 -15 0 -29 -23 -12 -19 -24 -35 -29 -36
-28 -2 -75 -16 -90 -27 -13 -9 -30 -10 -67 -2 -41 8 -50 14 -59 39 -9 25 -14
28 -38 22 -41 -10 -133 -56 -133 -67 0 -5 9 -16 20 -25 20 -16 20 -19 5 -49
-9 -18 -20 -33 -25 -33 -18 0 -19 -33 -2 -78 10 -26 17 -54 15 -64 -2 -9 1
-19 6 -23 6 -3 11 -14 11 -23 0 -12 -3 -13 -11 -5 -9 9 -19 8 -41 -3 -25 -13
-32 -13 -41 -2 -17 20 -52 45 -44 32 3 -6 0 -20 -8 -31 -12 -17 -30 -21 -110
-27 -73 -5 -101 -3 -123 8 -20 10 -33 11 -46 4 -12 -7 -21 -7 -29 1 -15 15
-38 14 -35 -1 2 -7 -4 -11 -12 -10 -61 14 -120 13 -141 -2 -13 -9 -32 -16 -43
-16 -37 0 -84 -23 -95 -47 -7 -16 -19 -23 -39 -23 -15 0 -38 -7 -50 -16 -18
-12 -29 -13 -52 -5 -29 9 -30 9 -30 -18 0 -18 -11 -41 -30 -61 -16 -18 -30
-36 -30 -42 0 -5 -8 -7 -19 -3 -24 7 -51 -4 -51 -22 0 -19 -61 -93 -77 -93 -7
0 -17 -9 -23 -20 -6 -11 -19 -20 -28 -20 -11 0 -18 -8 -19 -22 -2 -20 -14 -33
-38 -41 -6 -2 -4 -11 4 -20 9 -11 10 -17 2 -17 -6 0 -11 -7 -11 -15 0 -8 -11
-17 -24 -21 -16 -4 -27 -15 -31 -33 -7 -31 -58 -56 -113 -54 -28 0 -33 -3 -30
-20 2 -12 17 -28 33 -37 17 -8 32 -18 35 -21 7 -8 63 -23 75 -20 15 4 116 -30
152 -51 26 -16 36 -17 54 -7 14 7 46 10 86 6 34 -2 63 -1 63 4 0 16 89 -14
150 -50 8 -5 38 -19 66 -30 47 -19 56 -19 90 -7 31 10 38 18 36 35 -4 27 9 27
63 -4 25 -14 47 -20 50 -15 4 6 15 10 25 10 10 0 22 9 25 21 4 12 12 18 21 15
8 -3 14 1 14 8 0 8 19 22 43 32 41 17 42 19 39 56 -4 38 -3 39 24 36 24 -3 29
1 38 32 5 19 15 38 20 42 7 5 4 13 -9 22 -19 14 -18 15 20 13 35 -2 40 1 38
18 -5 40 7 66 26 60 10 -3 24 1 31 10 14 17 61 20 76 5 7 -7 19 -2 39 16 24
22 31 24 53 15 20 -9 28 -9 42 4 11 10 37 15 77 15 59 0 62 1 81 34 16 27 25
33 45 29 15 -3 36 2 49 11 12 9 18 16 13 17 -27 2 36 18 73 18 38 1 42 3 33
19 -8 14 -5 18 11 19 12 1 24 7 28 14 4 6 13 8 19 4 7 -4 18 -1 26 5 8 7 22 9
31 6 13 -5 15 -2 11 14 -4 16 0 20 21 20 15 0 45 -7 67 -14 22 -8 49 -16 60
-18 11 -1 26 -10 32 -18 11 -13 14 -13 22 -1 8 12 12 12 25 2 13 -11 19 -11
31 -1 11 10 24 9 62 -4 56 -19 53 -19 53 -2 0 9 18 16 50 20 42 6 53 11 60 31
10 26 24 32 35 14 5 -6 11 -4 19 7 8 11 21 15 34 12 13 -4 31 1 45 13 24 18
24 18 37 -5 13 -26 56 -50 71 -40 6 3 18 -1 28 -10 10 -9 22 -16 27 -15 20 5
65 -26 70 -48 4 -13 10 -23 15 -23 14 0 21 -67 9 -90 -8 -15 -8 -25 -1 -34 13
-16 5 -26 -23 -27 -20 -1 -1 -7 90 -27 49 -11 66 -20 59 -33 -4 -5 6 -14 21
-19 36 -14 77 2 92 36 19 40 55 31 83 -21 9 -16 20 -29 25 -29 5 1 23 5 41 9
28 5 31 4 26 -13 -3 -13 1 -21 15 -24 14 -4 22 -18 27 -46 4 -23 4 -45 1 -50
-3 -5 7 -19 21 -32 24 -21 25 -24 9 -30 -16 -5 -16 -7 1 -23 12 -10 20 -33 21
-57 2 -33 -1 -40 -15 -40 -16 -1 -16 -2 2 -12 11 -6 29 -20 40 -30 10 -10 33
-22 50 -27 24 -7 33 -5 43 10 10 13 19 16 36 9 12 -4 48 -11 79 -15 41 -5 58
-12 62 -25 6 -20 35 -35 35 -19 0 6 18 -7 40 -29 38 -37 40 -43 32 -74 -5 -22
-15 -34 -29 -36 -14 -2 -19 -9 -16 -21 2 -10 -1 -24 -9 -32 -7 -8 -13 -23 -12
-34 1 -25 36 -105 46 -105 5 0 8 -9 8 -20 0 -10 9 -24 19 -30 13 -6 17 -17 14
-30 -3 -11 -1 -20 5 -20 14 0 33 25 25 33 -10 10 6 8 28 -3 10 -6 19 -7 19 -2
0 4 9 18 21 31 11 12 18 29 15 37 -3 8 0 34 6 58 9 35 15 42 30 38 16 -4 18
-1 12 23 -6 24 -5 26 12 18 23 -11 85 -9 105 3 8 5 25 22 37 38 18 24 63 56
78 56 2 0 4 -10 4 -23 0 -12 10 -31 22 -42 21 -17 34 -22 76 -27 8 -1 21 -16
30 -34 13 -29 14 -37 2 -61 -8 -16 -14 -37 -15 -48 0 -14 -7 -20 -22 -19 -25
1 -25 2 -28 -41 -2 -30 19 -65 39 -65 15 0 76 -103 76 -129 0 -12 -6 -21 -12
-21 -7 0 6 -9 29 -19 22 -11 52 -33 64 -51 21 -28 28 -31 69 -28 25 2 51 7 58
11 8 6 15 -1 22 -20 31 -86 75 -133 122 -133 30 0 44 -10 104 -72 39 -40 80
-90 93 -110 12 -21 29 -38 38 -38 14 0 35 -15 100 -69 12 -11 45 -25 73 -32
40 -10 50 -17 50 -33 0 -12 7 -34 15 -50 8 -15 12 -32 9 -38 -12 -19 6 -77 27
-83 11 -4 18 -9 15 -12 -3 -3 4 -19 15 -35 11 -15 19 -34 17 -40 -3 -7 8 -23
23 -36 15 -12 30 -31 33 -40 4 -10 33 -30 66 -45 33 -16 70 -41 82 -57 11 -16
25 -27 30 -24 14 9 22 -28 7 -37 -11 -8 -9 -13 11 -30 14 -11 32 -26 41 -34 9
-7 25 -16 35 -19 11 -3 43 -29 72 -56 41 -38 52 -54 47 -69 -5 -16 3 -25 42
-45 28 -14 54 -35 61 -50 6 -14 20 -26 29 -26 10 0 42 -13 70 -29 29 -16 55
-25 59 -20 8 14 68 11 108 -6 34 -14 38 -14 54 1 9 10 18 21 18 26 1 4 2 13 3
18 0 6 8 10 16 10 8 0 19 9 25 21 10 17 8 21 -9 26 -12 3 -25 19 -31 39 -6 18
-14 33 -18 33 -26 -4 -42 4 -42 19 0 10 -8 28 -17 41 l-16 24 -9 -24 c-5 -13
-12 -19 -16 -14 -4 6 -23 10 -42 10 -31 0 -36 4 -41 30 -4 17 -7 26 -8 20 0
-5 -18 7 -38 26 -55 52 -84 69 -116 69 -51 0 -137 86 -137 137 0 19 -82 94
-110 101 -8 2 -39 7 -68 11 -42 5 -55 11 -65 30 -7 13 -19 27 -27 31 -8 4 -32
15 -53 25 -32 16 -42 17 -59 6 -17 -11 -22 -10 -29 1 -12 18 -11 24 5 38 19
15 14 80 -8 95 -9 7 -16 17 -16 24 0 6 -9 20 -21 32 -15 15 -20 29 -16 48 3
15 -1 34 -9 45 -8 11 -14 31 -14 45 0 35 -35 89 -64 100 -23 9 -66 68 -76 106
-3 11 -25 30 -50 42 -28 15 -54 39 -72 68 -15 24 -41 51 -57 59 -32 17 -54 66
-45 101 4 16 -1 28 -20 43 -36 28 -70 106 -57 131 6 10 9 20 7 22 -2 2 -6 17
-10 33 -7 28 -6 29 25 22 l32 -6 -7 40 c-5 31 -3 42 9 46 13 5 13 8 0 27 -19
27 -19 61 -1 76 8 7 16 30 18 52 3 31 0 43 -14 50 -13 7 -18 6 -18 -3 0 -7 -8
-5 -20 8 -22 21 -37 134 -18 134 5 0 8 12 6 28 -3 25 -7 27 -51 30 -42 3 -51
7 -65 33 -9 16 -22 29 -28 29 -19 0 -25 69 -8 95 12 19 13 28 4 45 -6 11 -12
38 -13 58 -1 33 -8 43 -58 82 -60 48 -103 103 -143 185 -13 28 -40 68 -60 90
-21 22 -42 59 -49 82 -8 29 -17 43 -33 47 -29 8 -84 -12 -84 -30 0 -25 -39
-15 -61 15 -12 16 -33 32 -46 36 -14 3 -34 14 -45 24 -10 10 -40 25 -65 31
-26 8 -59 27 -78 47 -17 18 -36 33 -42 33 -14 0 -44 35 -36 43 3 4 -1 7 -10 7
-29 0 -66 22 -60 36 4 10 -4 14 -23 15 -16 1 -40 3 -54 5 -14 3 -29 5 -35 6
-5 1 -20 -2 -32 -6 -14 -5 -23 -3 -23 3 0 6 -3 10 -7 9 -5 -2 -19 5 -33 14
-18 14 -21 21 -13 29 9 9 16 9 25 2 7 -6 25 -13 40 -15 35 -7 46 19 19 46 -19
19 -21 19 -58 2 -48 -21 -98 -16 -126 13 -21 23 -21 23 -1 17 11 -3 29 0 40 9
15 11 16 14 4 15 -11 0 -16 12 -17 41 -2 46 -18 71 -42 67 -9 -2 -20 7 -26 19
-7 17 -15 21 -30 17 -29 -9 -29 -9 -11 -53 9 -25 13 -53 9 -71 -6 -35 13 -80
34 -80 7 0 13 -6 13 -14 0 -7 7 -19 15 -26 21 -18 19 -29 -5 -23 -14 4 -20 0
-20 -13 0 -9 -3 -15 -6 -12 -8 8 -52 -38 -56 -59 -2 -12 -12 -18 -31 -18 -22
1 -26 -3 -21 -18 3 -11 7 -35 8 -53 1 -32 -1 -34 -34 -36 -53 -2 -55 -2 -82
-20 -38 -25 -57 -7 -29 27 28 36 27 44 -8 43 -20 -1 -39 10 -65 35 -20 20 -36
40 -36 45 0 11 -62 57 -80 58 -8 1 -22 5 -30 8 -11 5 -19 -3 -27 -24 -6 -16
-18 -30 -27 -30 -9 0 -16 -4 -16 -10 0 -5 -6 -10 -14 -10 -18 0 -31 77 -15 97
9 10 9 17 1 25 -18 18 -14 28 9 28 19 0 21 4 16 33 -6 38 2 56 23 55 55 -3 68
2 75 35 4 17 7 43 5 55 -1 20 2 23 21 17 18 -6 21 -4 16 9 -4 10 -3 15 3 11
23 -14 28 8 10 41 -20 35 -20 35 0 24 11 -6 20 -17 20 -25 0 -18 7 -18 50 -3
29 9 35 9 46 -7 13 -18 14 -18 35 1 12 10 24 18 28 16 3 -1 7 6 9 17 2 12 -5
24 -19 32 -20 10 -21 13 -7 23 15 11 14 16 -9 45 -24 31 -27 32 -39 16 -9 -13
-20 -16 -39 -11 -20 5 -25 4 -19 -5 5 -9 2 -10 -9 -6 -10 4 -24 10 -32 13 -9
4 -15 1 -15 -7 -1 -36 -14 -41 -86 -28 -80 13 -94 22 -94 56 0 20 4 24 17 19
10 -4 15 -5 13 -3 -3 2 -29 25 -58 51 -53 46 -54 47 -79 30 -15 -9 -36 -28
-49 -43 l-22 -26 -26 28 c-14 15 -26 32 -26 36 0 5 -20 14 -45 20 -24 6 -49
17 -54 24 -50 62 -70 81 -71 64z m370 -645 c0 -7 -5 -10 -11 -7 -13 9 -38 -25
-32 -42 6 -16 -2 -16 -27 -1 -19 12 -18 13 7 38 27 27 63 34 63 12z m850 -61
c0 -5 -7 -11 -15 -15 -9 -3 -15 0 -15 9 0 8 7 15 15 15 8 0 15 -4 15 -9z
m-262 -44 c2 -10 -3 -17 -12 -17 -10 0 -16 9 -16 21 0 24 23 21 28 -4z"/>
<path d="M9670 11361 c0 -12 5 -21 10 -21 6 0 10 6 10 14 0 8 -4 18 -10 21 -5
3 -10 -3 -10 -14z"/>
<path d="M10799 11286 c-15 -10 -15 -15 -3 -36 7 -14 14 -20 14 -15 0 6 9 0
19 -12 25 -30 35 -17 12 16 -10 14 -20 34 -22 43 -3 14 -7 14 -20 4z"/>
<path d="M10928 11217 c-83 -15 -78 -28 12 -31 20 -1 26 -8 33 -39 7 -30 17
-42 47 -57 29 -15 39 -27 42 -47 2 -17 8 -27 17 -25 16 3 43 -17 36 -28 -3 -5
4 -6 15 -3 11 3 26 0 34 -6 7 -6 20 -9 29 -5 22 8 31 37 15 49 -7 5 -12 22
-10 38 2 19 -5 35 -25 55 -27 27 -33 52 -20 85 8 21 -33 30 -54 11 -14 -13
-18 -13 -29 1 -14 17 -55 17 -142 2z"/>
<path d="M11254 11003 c16 -18 32 -31 34 -28 3 3 3 6 1 8 -2 1 -17 13 -34 27
l-30 25 29 -32z"/>
<path d="M11271 10941 c-10 -7 -8 -10 8 -16 27 -8 36 -2 18 13 -7 6 -18 7 -26
3z"/>
<path d="M11320 10901 c0 -5 7 -12 16 -15 14 -5 15 -4 4 9 -14 17 -20 19 -20
6z"/>
<path d="M11360 10860 c0 -16 42 -80 52 -80 5 0 8 17 6 37 -3 30 -9 38 -31 44
-15 4 -27 3 -27 -1z"/>
<path d="M10215 9898 c-8 -35 0 -49 10 -18 5 15 12 19 25 15 22 -7 33 6 16 20
-23 20 -45 13 -51 -17z"/>
<path d="M12845 8250 c-55 -14 -145 -48 -174 -67 -2 -2 3 -11 12 -20 11 -13
13 -23 6 -35 -7 -13 -5 -19 8 -27 24 -12 73 -2 73 15 0 18 9 18 29 -1 9 -7 38
-16 64 -18 26 -2 50 -7 54 -11 3 -3 13 -6 20 -6 8 0 44 -18 80 -40 46 -27 69
-36 74 -29 9 15 79 5 91 -13 7 -12 12 -4 9 14 -1 12 72 58 91 58 12 0 18 8 18
21 0 17 4 20 24 15 14 -3 28 -2 31 4 3 5 -1 10 -9 10 -9 0 -24 8 -34 18 -22
22 -62 35 -62 20 0 -6 -7 -8 -15 -4 -8 3 -15 1 -15 -4 0 -19 -28 -10 -44 15
-9 14 -29 28 -44 31 -15 4 -33 11 -39 17 -9 6 -13 6 -13 -3 0 -20 -52 -2 -85
31 -35 33 -51 34 -150 9z"/>
<path d="M13360 8133 c1 -19 16 -31 29 -24 7 5 10 14 7 20 -8 12 -36 15 -36 4z"/>
<path d="M13420 8070 c4 -22 12 -45 17 -52 6 -7 13 -32 16 -55 4 -36 2 -44
-19 -58 -19 -12 -29 -13 -46 -4 -18 10 -20 9 -15 -5 4 -9 -1 -19 -10 -25 -15
-8 -15 -10 0 -26 23 -22 21 -45 -3 -45 -16 0 -19 -6 -18 -35 1 -23 5 -32 11
-26 22 22 77 -30 77 -73 0 -8 7 -16 15 -20 8 -3 15 -12 15 -21 0 -8 5 -15 11
-15 7 0 9 -10 5 -25 -9 -36 12 -67 37 -53 10 5 28 7 40 4 12 -3 30 3 45 14 31
25 63 12 55 -21 -5 -19 -3 -21 18 -16 13 4 30 7 36 7 9 0 11 10 7 30 -5 24 -3
30 11 30 14 0 16 5 9 23 -4 12 -8 47 -8 78 -1 32 -7 63 -15 72 -12 15 -11 17
3 17 10 0 15 4 12 9 -4 5 -7 28 -8 50 -1 34 -5 42 -25 47 -12 4 -23 10 -23 16
0 5 -4 6 -10 3 -15 -9 -110 36 -110 52 0 22 -51 79 -67 75 -7 -2 -13 5 -13 15
-1 16 -42 73 -53 73 -2 0 -1 -18 3 -40z"/>
</g>
</svg>
