<?xml version="1.0" standalone="no"?>
<!DOCTYPE svg PUBLIC "-//W3C//DTD SVG 20010904//EN"
 "http://www.w3.org/TR/2001/REC-SVG-20010904/DTD/svg10.dtd">
<svg version="1.0" xmlns="http://www.w3.org/2000/svg"
 width="937.609928pt" height="918.874982pt" viewBox="0 0 937.609928 918.874982"
 preserveAspectRatio="xMidYMid meet">
<metadata>
Created by potrace 1.15, written by Peter Selinger 2001-2017
</metadata>
<g transform="translate(-439.343731,1481.342148) scale(0.100000,-0.100000)"
fill="#222222" stroke="none">
<path d="M8470 14810 c0 -5 -11 -12 -25 -16 -15 -4 -28 -16 -31 -30 -3 -13
-10 -24 -15 -24 -6 0 -5 -8 1 -19 8 -16 5 -25 -14 -45 -27 -30 -66 -36 -60 -8
7 30 -12 46 -55 47 -48 1 -50 -4 -16 -29 18 -13 25 -28 25 -52 0 -27 6 -36 30
-49 16 -8 40 -15 54 -15 13 0 27 -6 29 -12 4 -10 6 -10 6 -1 1 7 7 10 15 7 7
-3 16 2 20 11 5 14 9 14 34 1 26 -13 32 -13 53 1 13 9 26 20 29 25 3 4 23 -4
43 -18 37 -24 37 -25 37 -3 0 15 4 19 16 15 9 -3 20 -6 25 -6 5 0 9 -10 9 -22
1 -21 2 -21 11 -5 6 10 8 25 5 33 -8 21 4 65 15 58 5 -3 9 0 9 6 0 7 -7 9 -16
6 -10 -4 -29 5 -50 24 -19 16 -39 30 -44 30 -6 0 -10 8 -10 18 -1 23 -24 52
-42 52 -9 0 -32 7 -52 15 -20 9 -36 11 -36 5z"/>
<path d="M8801 14783 c11 -29 3 -133 -10 -133 -3 0 -6 -12 -5 -27 1 -16 -1
-32 -5 -38 -3 -5 -5 -19 -6 -31 0 -39 -24 -56 -69 -48 -23 3 -38 3 -34 -1 4
-5 3 -14 -4 -22 -8 -11 -7 -12 6 -7 12 5 16 0 16 -19 0 -14 -6 -29 -12 -34 -8
-5 4 -10 32 -14 25 -3 46 -3 48 1 1 4 14 5 27 2 15 -2 25 0 25 7 0 6 5 10 11
9 7 -2 16 12 21 30 6 21 15 32 27 32 41 0 43 25 5 73 -20 25 -34 52 -32 58 2
7 -4 21 -14 31 -22 22 -24 48 -4 48 22 0 29 37 12 61 -8 12 -12 28 -9 35 3 9
-2 14 -16 14 -18 0 -19 -3 -10 -27z"/>
<path d="M9043 14663 c3 -16 7 -33 8 -39 6 -34 -3 -64 -19 -64 -11 0 -23 -13
-31 -35 -10 -29 -17 -35 -42 -35 -16 0 -29 -4 -29 -10 0 -5 5 -10 10 -10 6 0
10 -7 10 -16 0 -8 -4 -12 -10 -9 -5 3 -10 -1 -10 -9 0 -12 -7 -14 -30 -9 -18
3 -30 1 -30 -5 0 -5 -9 -8 -20 -5 -12 3 -22 -1 -26 -11 -3 -9 -17 -16 -30 -16
-17 0 -24 -6 -24 -19 0 -11 -9 -23 -21 -26 -14 -5 -19 -13 -16 -26 3 -11 0
-19 -7 -19 -8 0 -11 -13 -9 -37 6 -60 13 -84 23 -78 5 3 14 -4 20 -15 6 -11
15 -18 21 -14 5 3 16 1 23 -5 7 -6 20 -9 29 -5 8 3 18 1 21 -5 4 -6 12 -8 19
-5 15 5 60 -30 50 -40 -10 -9 3 -7 32 6 14 6 25 16 25 22 0 7 8 19 18 27 16
14 23 14 44 3 22 -12 28 -11 49 9 13 12 27 21 31 20 4 -2 3 8 -2 22 -6 15 -6
26 0 30 6 4 10 19 10 35 0 17 7 30 17 34 14 6 15 9 4 16 -8 4 -11 15 -7 25 3
9 1 25 -4 36 -8 14 -7 19 2 19 6 0 3 7 -8 15 -13 11 -14 14 -4 13 28 -5 24 47
-5 70 -22 18 -26 29 -28 84 -3 69 -8 83 -39 99 -19 10 -21 9 -15 -18z m-123
-378 c0 -8 -4 -15 -10 -15 -5 0 -7 7 -4 15 4 8 8 15 10 15 2 0 4 -7 4 -15z"/>
<path d="M7730 14585 c-7 -14 -21 -25 -31 -25 -9 0 -24 -2 -31 -5 -8 -3 -24 4
-36 15 l-22 21 0 -26 c0 -15 -6 -25 -14 -25 -7 0 -20 -7 -27 -16 -19 -24 -59
-36 -74 -24 -9 7 -20 6 -36 -2 -20 -11 -23 -19 -21 -50 3 -41 -14 -52 -38 -23
-15 18 -70 16 -77 -3 -3 -7 -13 -10 -24 -7 -11 4 -19 2 -19 -5 0 -7 -6 -8 -19
0 -16 8 -23 6 -35 -12 -9 -12 -16 -34 -16 -49 0 -26 -20 -38 -107 -65 -16 -4
-17 -38 -3 -64 7 -12 7 -21 0 -25 -6 -4 -5 -13 3 -26 10 -17 9 -22 -7 -34 -22
-17 -13 -35 14 -28 14 4 20 0 20 -11 0 -9 -7 -16 -15 -16 -11 0 -14 -7 -11
-24 7 -38 -5 -39 -41 -1 -35 36 -73 46 -73 20 0 -30 -74 -9 -85 24 -3 12 -17
24 -31 27 -13 3 -24 12 -24 20 0 8 -4 14 -10 14 -5 0 -10 -6 -10 -14 0 -21
-19 -30 -60 -28 -27 2 -41 -3 -56 -20 -30 -33 -64 -93 -64 -111 0 -24 -69 -67
-107 -67 -21 0 -33 -5 -33 -13 0 -10 -13 -12 -55 -7 -59 6 -85 -7 -85 -43 0
-12 -9 -17 -27 -17 -23 0 -31 -8 -48 -45 -11 -25 -25 -45 -31 -45 -6 0 -14 -8
-18 -17 -3 -10 -14 -31 -24 -48 -16 -26 -17 -33 -6 -49 9 -13 10 -24 4 -31 -6
-7 -10 -46 -11 -89 -1 -71 -3 -77 -25 -82 -16 -4 -23 -13 -22 -28 0 -11 0 -25
-2 -31 -7 -28 1 -54 15 -49 8 4 15 2 15 -4 0 -6 3 -18 6 -27 6 -14 -1 -16 -50
-13 -32 2 -58 8 -60 15 -3 7 -11 10 -19 8 -7 -3 -26 8 -42 25 -16 16 -36 30
-45 30 -9 0 -25 9 -35 20 -10 11 -26 22 -36 25 -11 4 -19 13 -19 21 0 18 -49
9 -67 -13 -7 -9 -21 -13 -33 -10 -22 6 -80 -12 -80 -25 0 -4 -19 -8 -43 -8
-23 0 -67 -6 -96 -14 -38 -10 -62 -11 -81 -4 -24 8 -32 5 -58 -22 -39 -39 -48
-66 -31 -97 12 -23 11 -27 -19 -54 -17 -16 -32 -36 -32 -46 0 -12 -3 -14 -11
-6 -7 7 -21 5 -47 -7 -20 -9 -63 -20 -94 -23 -48 -5 -58 -3 -58 10 0 9 -6 13
-15 9 -14 -5 -19 4 -16 30 1 11 -23 27 -44 29 -5 0 -14 3 -20 6 -5 3 -19 1
-30 -5 -19 -11 -20 -12 -3 -28 10 -10 18 -16 18 -13 0 3 9 1 19 -5 16 -8 19
-19 16 -54 -2 -34 1 -46 14 -50 9 -3 26 -12 37 -21 20 -15 23 -14 45 9 13 13
28 21 34 18 5 -4 12 -7 15 -8 54 -10 62 -17 56 -47 -8 -38 -12 -43 -29 -28
-18 14 -48 4 -41 -14 3 -7 -3 -19 -13 -26 -10 -8 -18 -22 -19 -31 -2 -51 -5
-58 -23 -58 -12 0 -23 -11 -30 -32 -13 -38 -49 -78 -69 -78 -8 0 -12 -6 -8
-15 9 -24 -13 -70 -45 -94 -16 -12 -34 -19 -39 -16 -5 3 -11 1 -14 -4 -3 -5
-22 -12 -41 -15 -29 -6 -39 -15 -59 -54 -18 -36 -21 -53 -15 -71 11 -28 5 -50
-22 -85 -19 -24 -20 -25 -38 -7 -16 16 -24 17 -54 8 l-35 -11 34 -38 c31 -35
34 -43 34 -103 0 -36 -4 -65 -9 -65 -4 0 -11 -19 -14 -41 -3 -23 -9 -45 -14
-48 -4 -3 -8 -17 -8 -31 0 -19 -4 -24 -20 -22 -11 2 -23 9 -27 15 -4 7 -8 8
-8 3 0 -5 -7 -3 -15 4 -18 15 -98 4 -92 -13 6 -18 -24 -36 -60 -37 -31 0 -31
-1 -22 -32 13 -48 12 -52 -14 -35 -14 9 -29 12 -36 7 -9 -5 -10 -10 -2 -14 6
-4 11 -4 11 1 0 9 23 -28 45 -74 8 -18 20 -33 25 -33 6 0 10 -9 10 -21 0 -29
18 -60 52 -89 31 -27 46 -84 27 -106 -7 -9 -4 -17 13 -28 28 -20 58 -21 58 -2
0 21 62 28 78 8 8 -11 12 -12 12 -3 0 8 7 11 19 8 13 -3 18 0 15 8 -3 7 6 24
20 38 22 22 24 30 16 51 -5 15 -6 26 -1 26 10 0 11 32 1 45 -9 11 22 55 39 55
6 0 11 5 11 11 0 7 9 0 21 -15 21 -27 49 -35 49 -14 0 6 11 1 26 -12 21 -21
27 -22 34 -10 5 8 7 22 4 31 -3 12 4 20 26 27 25 9 30 16 30 42 0 17 7 39 16
47 10 11 14 26 10 45 -3 16 -1 28 5 28 6 0 7 5 3 11 -5 8 -9 8 -14 -1 -6 -9
-9 -9 -16 1 -4 8 -3 14 5 17 8 3 9 8 2 16 -8 10 -3 11 20 8 21 -3 40 2 59 17
16 11 33 21 38 21 20 0 62 26 62 39 0 10 3 11 14 2 10 -9 16 -8 26 4 12 14 15
13 36 -6 20 -18 27 -20 54 -11 29 11 33 8 78 -34 26 -25 58 -50 72 -56 18 -7
21 -11 11 -17 -7 -5 -11 -11 -9 -15 1 -4 -8 -14 -22 -21 -14 -8 -21 -14 -16
-15 5 0 3 -7 -4 -15 -7 -8 -17 -12 -22 -8 -6 3 -9 0 -7 -6 3 -7 8 -12 12 -12
4 1 14 1 22 1 9 0 12 6 9 15 -4 10 0 15 10 15 9 0 26 8 37 19 11 10 38 21 60
25 29 5 39 11 39 25 0 10 9 29 19 42 17 21 17 27 6 50 -13 25 -13 26 20 36 19
6 37 8 40 5 23 -24 47 -2 71 64 9 26 8 33 -5 42 -14 8 -12 11 12 17 33 9 34
18 4 42 -18 15 -22 27 -22 68 1 28 5 56 9 63 4 7 1 15 -8 18 -9 3 -16 10 -16
15 0 11 66 39 91 39 15 0 19 7 19 35 0 24 5 35 15 35 9 0 15 9 15 21 0 20 4
21 50 16 34 -4 54 -2 62 7 7 7 22 17 33 24 11 6 14 12 8 12 -7 0 -13 11 -13
24 0 22 4 24 48 23 42 -2 47 0 50 21 2 13 10 22 22 22 10 0 20 7 24 15 3 8 15
15 27 15 16 0 20 5 16 20 -6 22 18 29 26 8 3 -7 6 -3 6 10 1 13 -3 21 -7 18
-4 -3 -9 11 -9 30 -1 24 5 39 18 47 10 6 19 23 19 37 l0 25 19 -24 c10 -13 16
-32 14 -42 -4 -15 0 -19 25 -19 17 0 33 -6 35 -12 3 -7 6 -4 6 8 1 11 10 29
20 38 11 10 22 29 25 42 l7 25 55 -40 c31 -22 64 -55 73 -73 17 -33 21 -35 54
-23 12 5 17 2 17 -10 0 -11 -5 -15 -14 -12 -10 4 -16 -5 -20 -29 -4 -19 -12
-34 -19 -34 -17 0 -45 -58 -49 -102 -4 -35 -1 -39 27 -48 16 -5 62 -8 101 -7
66 2 71 3 62 20 -12 23 -3 34 16 18 12 -10 16 -8 21 8 5 15 15 21 37 21 29 0
81 28 105 58 11 13 15 13 38 -2 14 -9 34 -16 43 -15 30 5 76 -12 90 -33 9 -13
18 -16 24 -10 6 6 22 7 37 2 16 -4 35 -3 45 2 10 6 26 8 37 5 12 -3 19 0 19
10 0 8 4 12 9 8 5 -3 23 -7 41 -9 17 -2 37 -12 45 -22 14 -19 21 -43 9 -31 -4
3 -19 0 -34 -8 -22 -11 -29 -12 -33 -2 -2 6 -8 9 -12 5 -12 -12 4 -42 34 -63
16 -10 27 -23 25 -27 -3 -4 2 -8 10 -8 8 0 20 -8 25 -17 9 -15 12 -16 20 -3 5
8 7 27 4 43 -6 28 -4 30 20 25 16 -3 31 0 38 8 16 19 32 18 78 -6 35 -19 62
-58 67 -95 0 -5 2 -16 2 -23 1 -9 14 -13 37 -11 43 4 75 -20 75 -58 0 -16 7
-36 15 -47 8 -10 17 -38 21 -62 3 -25 11 -47 16 -50 5 -4 5 -11 -1 -18 -7 -8
-7 -24 1 -48 13 -43 -4 -68 -45 -68 l-25 0 24 -45 c13 -25 21 -45 17 -45 -3 0
0 -6 6 -14 6 -7 9 -21 5 -30 -3 -9 0 -26 9 -39 11 -17 13 -34 6 -72 -6 -42 -5
-53 10 -65 28 -25 34 -51 14 -66 -17 -12 -17 -13 0 -19 21 -9 23 -53 3 -61
-11 -4 -13 -12 -6 -30 12 -30 -1 -53 -41 -76 -19 -11 -27 -22 -23 -32 5 -12 0
-16 -20 -16 -17 0 -26 -5 -26 -15 0 -12 -4 -13 -19 -5 -33 17 -61 12 -61 -10
0 -13 -7 -20 -20 -20 -11 0 -20 -4 -20 -10 0 -5 -13 -10 -28 -10 -20 0 -39 11
-61 35 -17 19 -36 35 -41 35 -6 0 -10 7 -10 15 0 8 -7 23 -16 34 -56 64 -96
101 -104 96 -6 -4 -10 -1 -10 5 0 7 -7 9 -16 6 -8 -3 -31 1 -51 9 -45 19 -58
19 -77 0 -13 -13 -19 -14 -36 -3 -17 11 -22 11 -29 -1 -5 -8 -16 -11 -25 -8
-9 4 -16 2 -16 -4 0 -6 -4 -7 -10 -4 -5 3 -10 15 -10 26 0 10 -4 19 -10 19 -5
0 -17 8 -27 19 -22 22 -69 35 -78 21 -3 -6 -16 -8 -29 -4 -14 3 -27 -1 -35
-10 -8 -9 -21 -16 -30 -16 -11 -1 -8 -7 13 -24 27 -23 23 -42 -7 -30 -8 3 -18
1 -21 -4 -3 -6 -16 -8 -27 -5 -20 6 -21 3 -15 -30 4 -21 3 -37 -1 -37 -5 0
-24 -14 -43 -31 l-34 -31 28 -15 c24 -12 27 -19 21 -41 -6 -23 -12 -70 -14
-120 -1 -7 -15 -18 -31 -24 -25 -8 -31 -17 -36 -49 -4 -22 -11 -42 -15 -45
-14 -8 -10 -34 5 -34 18 0 56 -64 56 -95 0 -13 -5 -36 -11 -52 -7 -15 -11 -38
-10 -50 0 -14 -5 -23 -13 -23 -8 0 -22 -12 -31 -27 -10 -15 -34 -41 -53 -59
l-35 -32 37 -4 c20 -2 37 1 40 7 7 19 41 -11 44 -39 2 -18 -1 -26 -13 -26 -13
0 -14 -4 -5 -21 9 -17 8 -23 -7 -35 -10 -7 -26 -16 -36 -20 -15 -4 -17 -15
-15 -52 3 -43 6 -48 41 -65 20 -9 37 -21 37 -26 0 -5 12 -13 28 -19 15 -6 36
-14 47 -18 11 -4 24 -8 28 -8 4 -1 11 -5 15 -11 4 -5 14 -11 22 -11 8 -1 22
-3 30 -5 9 -3 16 5 18 19 5 30 12 28 42 -12 20 -28 26 -31 38 -20 17 18 27 18
42 -1 7 -8 18 -15 25 -15 16 0 26 -25 19 -45 -8 -19 13 -45 30 -39 8 3 16 -2
20 -11 4 -11 12 -15 22 -11 13 5 15 1 10 -18 -7 -28 11 -46 20 -21 6 14 8 14
31 0 27 -18 63 -12 63 11 0 8 5 14 10 14 7 0 7 -6 1 -19 -6 -10 -7 -21 -4 -25
4 -4 8 -34 9 -66 1 -54 -1 -60 -19 -60 -11 0 -25 -8 -32 -17 -11 -15 -15 -16
-31 -3 -11 9 -15 10 -10 3 4 -7 3 -13 -3 -13 -5 0 -13 5 -16 10 -3 6 -11 10
-16 10 -11 0 26 -76 42 -86 7 -4 28 -9 48 -11 50 -5 98 -29 118 -59 9 -14 27
-30 40 -35 13 -5 28 -20 33 -33 l9 -25 52 17 c42 14 53 14 57 4 2 -7 15 -23
29 -36 23 -21 30 -39 32 -76 1 -21 50 -42 70 -31 11 7 24 1 47 -19 18 -15 38
-30 44 -32 10 -3 10 -12 0 -43 -7 -22 -13 -53 -14 -70 -1 -22 -6 -30 -18 -29
-17 2 -17 0 0 -30 23 -42 27 -44 73 -36 22 4 42 3 45 -1 3 -5 10 -7 16 -3 5 3
23 -6 39 -22 33 -32 43 -27 43 22 0 26 4 33 14 29 10 -3 12 0 8 10 -6 18 5 20
21 4 7 -7 28 -13 47 -15 20 -2 46 -10 58 -19 13 -8 32 -15 44 -15 12 0 34 -10
49 -21 22 -18 26 -28 23 -60 -3 -30 0 -40 14 -45 9 -3 15 -11 12 -18 -3 -8 4
-16 15 -19 12 -3 21 -13 21 -24 0 -10 5 -24 12 -31 8 -8 8 -12 1 -12 -6 0 -9
-18 -8 -42 2 -24 -2 -46 -7 -49 -16 -10 3 -60 28 -69 21 -8 24 -16 24 -58 0
-45 16 -81 46 -107 6 -5 14 -22 18 -37 5 -21 2 -31 -14 -40 -11 -7 -20 -16
-20 -21 0 -12 63 -47 87 -47 31 0 69 -56 77 -112 4 -26 11 -50 17 -53 5 -4 9
-16 10 -28 0 -12 15 -49 32 -82 28 -52 36 -60 61 -60 16 -1 31 -6 34 -13 2 -7
11 -12 20 -12 8 0 24 -8 34 -17 10 -9 37 -18 61 -19 65 -4 120 -10 142 -17 11
-4 26 -3 34 2 10 6 20 2 32 -12 11 -13 18 -17 19 -9 0 7 13 17 28 23 19 7 36
25 51 57 13 26 20 44 16 40 -4 -4 -14 0 -23 8 -11 11 -17 12 -22 4 -5 -9 -13
-6 -26 8 -11 11 -30 22 -43 24 -13 1 -29 12 -35 23 -6 10 -21 28 -34 38 -27
22 -23 34 6 18 11 -6 36 -13 57 -15 36 -5 36 -4 30 26 -6 27 -5 29 13 19 11
-6 22 -17 25 -26 4 -8 13 -12 22 -9 17 7 55 -22 55 -42 0 -19 42 -4 48 18 3
11 10 17 18 14 8 -3 14 1 14 9 0 8 7 18 16 23 11 6 13 16 9 35 -4 15 -10 27
-14 27 -3 0 -12 10 -20 23 -13 21 -13 21 5 6 28 -24 76 -30 99 -13 19 15 19
16 2 29 -17 12 -16 15 18 30 44 21 65 50 65 88 0 26 3 28 25 23 20 -5 26 -2
30 17 4 12 1 35 -4 50 -9 22 -8 27 5 27 8 0 12 5 9 10 -3 6 1 10 9 10 16 0 20
17 16 75 l-2 30 35 -35 c18 -19 41 -47 51 -62 11 -17 41 -36 84 -53 37 -15 73
-30 81 -34 21 -11 60 11 63 34 3 17 11 20 64 20 44 0 65 -5 78 -18 20 -19 51
-23 62 -6 4 7 23 9 50 5 26 -3 44 -2 44 4 0 19 19 10 25 -12 4 -13 25 -42 47
-64 31 -33 39 -48 37 -71 -4 -33 24 -83 45 -83 21 0 88 -99 91 -134 2 -17 8
-30 13 -29 20 5 82 -27 82 -42 0 -8 8 -15 18 -15 27 0 55 -35 48 -58 -5 -15
-1 -21 16 -25 35 -9 68 3 68 24 0 20 15 26 25 9 11 -18 35 -11 28 8 -5 14 -3
15 8 5 21 -20 49 -16 49 7 0 15 7 20 30 21 39 2 42 3 58 13 8 5 18 4 24 -2 8
-8 15 -6 25 4 22 22 51 17 69 -12 12 -18 23 -24 37 -20 22 6 77 -19 77 -35 0
-5 12 -21 26 -34 15 -14 28 -37 30 -53 1 -15 5 -46 7 -69 5 -39 3 -42 -24 -48
-16 -4 -34 -3 -40 1 -8 4 -9 3 -5 -4 4 -7 14 -12 22 -12 8 0 14 -6 14 -14 0
-10 10 -14 35 -11 42 4 57 -25 29 -56 -17 -18 -17 -20 0 -32 14 -10 17 -21 11
-45 -4 -18 -13 -32 -21 -32 -11 0 -13 -8 -9 -33 6 -29 3 -36 -20 -51 -23 -15
-26 -23 -21 -47 3 -17 2 -28 -3 -25 -11 7 -31 -35 -29 -61 2 -17 7 -22 20 -17
13 4 22 -4 35 -30 9 -19 20 -33 25 -30 4 3 5 -1 2 -9 -9 -23 31 -31 134 -28
14 1 22 7 22 19 1 16 1 16 11 0 5 -10 20 -18 33 -18 32 0 47 -21 43 -59 -4
-29 -17 -57 -17 -34 0 6 -11 11 -25 11 -21 0 -25 -5 -25 -28 0 -15 9 -38 19
-51 18 -22 18 -26 3 -51 -14 -25 -14 -30 2 -67 10 -21 15 -44 12 -50 -4 -6 -4
-17 1 -23 13 -21 11 -62 -4 -79 -12 -14 -11 -22 3 -53 14 -29 23 -36 43 -34
21 3 26 -1 27 -22 1 -14 2 -32 3 -41 1 -18 45 -41 64 -33 16 6 77 -59 77 -82
0 -9 18 -32 39 -52 22 -20 43 -50 47 -67 4 -16 11 -36 16 -42 6 -7 7 -20 4
-29 -3 -8 -3 -40 0 -70 7 -55 18 -68 75 -89 23 -9 60 -90 47 -103 -7 -7 -4
-19 11 -40 11 -17 21 -36 21 -42 0 -9 10 -11 31 -6 36 7 79 -17 79 -45 0 -22
11 -24 28 -7 18 18 40 -6 24 -25 -20 -24 9 -51 44 -43 16 4 40 9 54 10 14 2
28 4 31 5 11 2 63 86 60 96 -2 6 -3 25 -2 44 0 18 -4 41 -9 51 -8 15 -6 20 10
25 15 5 20 15 20 41 0 21 4 33 10 29 6 -3 10 4 10 16 0 19 4 21 34 15 36 -7
46 3 46 45 0 11 10 33 22 49 20 28 20 31 5 48 -9 10 -17 28 -17 40 0 18 -4 20
-34 15 -35 -5 -42 2 -52 55 -7 33 27 29 54 -8 22 -30 52 -40 52 -19 0 8 4 8
13 1 10 -8 13 -6 14 10 3 34 -50 71 -61 42 -14 -37 -39 -2 -28 41 l7 26 30
-23 c16 -12 42 -24 58 -24 16 -1 41 -14 58 -30 16 -15 35 -29 42 -30 6 -1 17
-3 22 -4 23 -5 55 1 55 10 0 14 -37 50 -44 43 -3 -3 -12 0 -21 7 -8 7 -26 10
-39 8 -15 -3 -27 0 -30 8 -3 8 -16 14 -30 14 -14 0 -32 8 -42 18 -17 16 -17
17 9 20 25 3 40 32 17 32 -5 0 -10 -4 -10 -10 0 -15 -26 -12 -40 5 -9 10 -9
15 -1 15 6 0 11 7 11 15 0 11 12 15 45 15 38 0 45 3 45 20 0 14 7 20 24 20 13
0 26 -6 29 -14 3 -7 19 -16 36 -18 25 -4 31 -1 31 13 0 15 4 17 24 9 21 -8 25
-6 28 13 2 13 14 25 30 31 24 8 32 6 57 -18 27 -26 31 -27 51 -13 12 8 30 13
41 10 10 -3 19 -1 19 5 0 13 82 23 96 11 14 -11 74 -8 74 4 0 4 13 13 29 18
16 6 41 28 56 49 15 22 35 42 45 45 16 5 15 13 -16 91 l-33 86 30 11 c25 10
29 16 24 37 -4 20 0 28 25 42 17 10 30 13 30 6 0 -7 5 -6 15 2 8 7 13 16 10
20 -2 4 8 13 23 21 15 7 29 15 31 16 2 2 -3 11 -13 22 -15 16 -15 19 -1 31 8
7 15 19 15 26 0 8 4 14 9 14 17 0 72 62 67 75 -3 8 3 17 15 20 10 4 19 10 19
15 0 4 9 10 21 13 15 4 19 11 14 25 -7 23 12 39 27 24 8 -8 15 -6 26 5 15 14
13 18 -16 44 -18 16 -28 29 -22 29 5 0 10 6 10 14 0 24 26 38 40 21 11 -13 14
-13 27 0 8 8 20 15 27 15 7 0 18 11 24 24 6 14 23 27 39 30 15 4 51 26 78 51
46 40 49 45 37 65 -11 18 -10 23 10 40 13 11 33 19 44 20 26 0 39 27 23 46
-14 17 -5 44 16 44 13 0 11 6 -8 33 -18 25 -23 43 -21 78 3 53 -18 80 -71 94
l-30 8 35 8 c19 4 42 3 52 -2 14 -7 20 -6 24 6 4 10 13 13 25 10 11 -4 19 -2
19 4 0 5 -9 12 -19 16 -21 6 -42 52 -46 98 -3 30 25 53 50 43 8 -3 28 8 44 24
16 17 37 30 45 30 9 0 16 7 16 16 0 8 5 12 10 9 14 -9 12 8 -5 41 -8 16 -15
47 -15 69 0 43 -63 194 -113 272 -15 24 -27 53 -27 65 0 37 -66 126 -105 142
-20 9 -44 31 -60 55 -14 23 -29 41 -34 41 -4 0 -19 21 -32 48 -13 26 -30 51
-36 55 -7 4 -13 13 -13 20 0 7 -10 17 -22 22 -13 6 -22 14 -20 18 2 5 -7 23
-21 40 -13 18 -29 48 -36 68 -15 46 -46 76 -63 62 -7 -6 -35 -11 -61 -11 -43
0 -49 3 -58 26 -7 18 -6 28 3 34 8 4 8 8 2 8 -6 0 -16 12 -23 28 -16 32 -24
152 -12 167 5 5 14 27 19 49 9 31 8 43 -5 62 -11 18 -13 27 -4 38 8 10 6 17
-9 31 -11 10 -20 29 -20 43 0 24 -1 24 -19 8 -11 -10 -25 -15 -30 -11 -7 3
-11 -2 -11 -14 0 -19 -5 -21 -50 -18 -27 1 -50 5 -50 10 0 10 -34 9 -45 -2
-24 -22 -54 -22 -75 1 -16 16 -24 19 -27 11 -3 -7 -11 -13 -19 -13 -8 0 -17
-6 -20 -14 -3 -9 -12 -12 -21 -9 -13 5 -15 2 -11 -15 8 -28 -17 -30 -32 -2 -8
14 -8 20 0 20 7 0 8 6 0 19 -15 29 -12 48 11 70 12 11 16 21 10 25 -5 4 -8 13
-5 21 7 16 -16 75 -29 75 -4 0 -18 10 -30 23 -13 12 -29 22 -37 22 -8 0 -14 5
-13 12 2 6 -4 30 -12 52 -9 27 -10 41 -3 41 6 0 8 10 4 25 -5 19 -3 25 10 25
16 0 16 2 0 19 -10 11 -15 24 -12 29 3 5 -6 7 -19 4 -14 -2 -32 1 -39 7 -8 7
-21 11 -29 9 -16 -3 -57 37 -57 56 0 6 -5 5 -12 -2 -7 -7 -20 -12 -29 -12 -10
0 -20 -6 -22 -12 -4 -10 -7 -10 -14 -1 -14 19 -64 35 -77 24 -19 -16 -82 -4
-125 25 -23 15 -44 24 -47 21 -10 -10 -82 31 -94 52 -15 30 -12 47 15 79 15
19 21 33 15 37 -17 11 -11 23 15 29 21 5 24 11 19 30 -3 14 -1 27 6 31 8 5 9
10 2 14 -7 4 -8 20 -2 44 8 37 7 38 -31 55 -22 9 -42 25 -45 34 -4 14 -10 16
-23 8 -10 -5 -21 -6 -25 -3 -3 3 -6 -7 -6 -24 0 -24 -5 -32 -24 -37 -13 -3
-26 -16 -30 -28 -3 -14 -22 -31 -46 -42 -33 -16 -39 -23 -34 -40 3 -12 10 -25
14 -29 4 -5 1 -22 -7 -38 -11 -22 -21 -29 -44 -29 -26 0 -29 -3 -23 -25 5 -21
3 -25 -14 -25 -11 0 -22 -5 -24 -11 -4 -12 -38 -1 -38 12 0 5 4 9 9 9 14 0 5
64 -9 68 -20 7 -106 94 -113 115 -4 9 -16 17 -28 17 -13 0 -30 7 -39 15 -15
14 -18 9 -30 -50 -13 -63 -15 -65 -44 -65 -29 -1 -30 -2 -13 -14 18 -14 18
-14 -2 -21 -12 -4 -18 -12 -14 -21 4 -10 -3 -14 -29 -14 -19 0 -39 -5 -46 -12
-8 -8 -15 -8 -26 1 -10 8 -27 10 -46 6 -21 -5 -37 -2 -48 7 -17 15 -87 38
-115 38 -14 0 -33 -47 -23 -57 4 -4 20 -7 78 -12 7 -1 -24 -100 -44 -138 -8
-16 -20 -23 -41 -23 -16 0 -35 -7 -42 -16 -7 -11 -28 -17 -58 -18 -42 -1 -45
-3 -41 -22 5 -17 0 -22 -26 -27 -27 -6 -30 -10 -25 -28 6 -18 4 -21 -9 -16
-11 4 -15 3 -10 -4 3 -6 7 -30 9 -52 1 -22 7 -43 13 -45 24 -8 11 -21 -25 -28
-21 -4 -43 -11 -50 -16 -7 -5 -16 -7 -22 -4 -5 4 -16 -1 -24 -9 -24 -24 -61
-18 -92 15 -16 17 -35 28 -41 26 -7 -3 -20 4 -30 15 -10 12 -21 16 -28 10 -23
-19 -72 -22 -102 -6 -36 19 -44 19 -44 0 0 -18 -53 -46 -83 -43 -12 1 -48 -2
-79 -6 -45 -6 -58 -12 -58 -25 0 -29 -43 -61 -81 -61 -34 0 -45 -11 -65 -62
-3 -10 -15 -18 -25 -18 -11 0 -19 -4 -19 -8 0 -10 -65 -42 -86 -42 -8 0 -22
-16 -31 -35 -17 -36 -27 -43 -38 -26 -3 6 4 18 15 29 15 14 19 26 14 50 -6 29
-34 47 -34 22 0 -5 -4 -10 -9 -10 -8 0 -20 32 -20 53 0 4 -7 15 -16 24 -12 11
-13 19 -6 26 8 8 15 7 23 -1 18 -18 28 -15 28 8 0 11 -7 20 -15 20 -8 0 -15 5
-15 11 0 6 9 9 19 6 23 -6 35 15 18 32 -22 22 10 11 54 -18 24 -17 46 -26 49
-22 9 14 60 22 78 12 14 -8 23 -5 36 10 16 20 16 21 -9 41 -19 15 -23 23 -15
28 10 6 10 15 -1 39 -8 17 -17 31 -20 31 -4 0 -18 15 -33 34 -24 32 -25 36
-11 63 11 23 12 37 4 67 -9 34 -8 41 12 62 12 13 31 24 40 24 12 0 16 5 13 15
-5 11 1 15 19 15 20 0 27 6 32 29 7 33 20 47 50 53 15 2 19 10 17 30 -2 14 2
29 7 33 6 3 11 17 11 29 0 13 7 29 15 36 9 7 13 21 9 34 -4 16 7 32 41 66 25
24 45 52 45 62 0 10 9 27 20 38 11 11 20 33 20 49 0 17 11 51 25 77 14 26 25
55 25 64 0 10 10 20 21 23 19 5 21 11 16 42 -4 27 -2 38 9 42 23 9 36 51 23
74 -8 15 -6 25 10 45 17 21 18 30 9 52 -7 15 -17 33 -22 41 -9 12 -7 13 7 8 9
-3 17 -2 17 4 0 6 9 8 21 4 15 -5 19 -4 15 4 -5 7 2 11 18 11 16 0 27 7 31 20
3 11 17 23 30 26 17 4 23 12 22 32 -1 15 0 53 1 84 2 47 5 58 22 63 17 5 20
15 20 63 0 31 -5 64 -10 72 -14 23 21 31 44 11 14 -12 20 -13 23 -3 3 7 24 12
58 12 51 0 53 1 57 30 3 17 1 33 -3 36 -5 2 -4 15 1 29 6 16 5 25 -3 28 -8 2
-12 26 -12 65 0 55 -3 65 -28 88 -21 19 -27 32 -23 49 4 15 -2 32 -15 49 l-21
26 24 19 c21 18 22 20 7 38 -9 10 -22 35 -28 55 -10 30 -16 36 -38 35 -19 -2
-26 3 -29 21 -2 12 1 22 7 22 5 0 2 11 -8 24 -10 13 -21 22 -25 20 -4 -3 -17
0 -28 6 -17 9 -20 8 -20 -9 0 -11 -9 -25 -21 -31 -31 -17 -59 -48 -59 -66 0
-34 -19 -52 -52 -50 -22 1 -37 -4 -46 -16 -8 -10 -21 -17 -30 -16 -10 2 -21
-7 -27 -19 -10 -24 -25 -31 -25 -12 0 5 -5 7 -11 3 -7 -4 -10 5 -7 27 3 30 0
35 -29 44 -17 6 -42 19 -54 30 -12 11 -19 14 -14 6 5 -9 3 -12 -6 -9 -21 7
-18 43 4 42 9 -1 17 4 17 11 0 7 6 16 13 18 14 6 -16 10 -50 7 -13 -1 -33 10
-46 24 -14 14 -31 26 -40 26 -24 0 -30 15 -36 81 0 9 -13 22 -28 29 -16 7 -23
15 -15 17 6 3 12 9 12 14 0 5 -12 4 -26 -2 -21 -7 -31 -6 -44 6 -16 14 -25 15
-73 4 -31 -7 -53 -17 -51 -21 4 -7 -21 -5 -79 7 -10 2 -33 -2 -50 -10 -69 -28
-74 -28 -82 2 -3 15 -17 37 -31 50 -13 12 -24 26 -24 31 0 5 -9 17 -20 27 -11
10 -20 26 -20 35 0 10 -7 23 -16 31 -9 7 -13 21 -10 34 4 16 -2 27 -24 44 -27
19 -44 51 -20 36 13 -8 13 24 -1 62 -7 23 -18 32 -41 37 -17 3 -36 13 -42 21
-13 17 -94 37 -101 24 -7 -11 -55 11 -55 25 0 24 -46 66 -75 70 -40 5 -65 16
-65 29 0 6 -8 19 -17 29 -10 11 -18 35 -20 53 -2 35 -14 54 -78 119 -81 84
-96 104 -77 108 15 3 14 6 -5 23 -12 10 -32 42 -43 71 -13 30 -29 54 -40 57
-13 3 -17 0 -13 -9 3 -8 0 -14 -7 -14 -7 0 -10 -7 -6 -15 3 -8 2 -15 -3 -15
-9 0 -21 -31 -29 -73 -1 -4 -11 -3 -23 3 -11 7 -18 18 -15 25 3 8 1 17 -4 20
-17 11 -11 23 15 29 16 4 25 13 25 26 0 11 5 20 10 20 18 0 11 26 -8 27 -9 1
-24 3 -32 5 -9 2 -16 -6 -18 -19 -3 -21 -13 -28 -34 -24 -5 0 -7 -4 -5 -11 1
-6 -6 -14 -16 -16 -10 -2 -17 0 -16 5 1 4 -1 16 -6 26 -9 20 20 48 42 40 7 -3
13 0 13 7 0 6 -4 9 -9 6 -5 -3 -21 4 -35 15 -16 13 -33 18 -44 14 -10 -4 -5 6
12 24 17 17 24 31 17 31 -7 0 -10 4 -7 9 3 5 -5 16 -19 25 -35 23 -27 56 24
105 23 22 36 41 30 43 -8 3 -6 15 4 39 13 33 13 37 -5 62 -29 40 -17 54 20 22
22 -18 38 -24 52 -20 31 10 23 32 -18 54 -12 7 -20 16 -16 22 19 31 -61 54
-86 24 -8 -9 -17 -12 -24 -7 -17 14 -66 24 -66 14 0 -5 20 -20 45 -34 l46 -24
-22 -20 c-17 -14 -23 -16 -27 -6 -2 7 -15 17 -28 22 -13 5 -24 17 -24 26 0 13
-3 14 -14 5 -8 -7 -40 -11 -73 -10 -32 0 -85 -4 -118 -10 -64 -11 -109 -2
-119 25 -3 8 -17 14 -32 14 -14 0 -37 9 -51 20 -14 11 -34 20 -43 20 -10 0
-21 7 -24 16 -3 9 -12 14 -20 11 -15 -6 -111 6 -137 17 -10 5 -20 -1 -29 -19z
m790 -180 c10 -12 10 -15 -3 -15 -8 0 -17 7 -21 15 -3 8 -2 15 3 15 5 0 14 -7
21 -15z m-25 -95 c3 -5 1 -10 -4 -10 -6 0 -11 5 -11 10 0 6 2 10 4 10 3 0 8
-4 11 -10z m-3385 -1214 c0 -11 -19 -15 -25 -6 -3 5 1 10 9 10 9 0 16 -2 16
-4z m6065 -2156 c3 -5 1 -10 -4 -10 -6 0 -11 5 -11 10 0 6 2 10 4 10 3 0 8 -4
11 -10z m-1332 -215 c15 -11 13 -12 -15 -11 -30 1 -47 11 -48 28 0 9 41 -2 63
-17z m588 -2238 c-10 -9 -11 -8 -5 6 3 10 9 15 12 12 3 -3 0 -11 -7 -18z
m2829 -477 c8 -5 11 -12 7 -16 -4 -4 -15 0 -24 9 -18 18 -8 23 17 7z m-1195
-992 c-8 -5 -13 -14 -9 -20 4 -6 -2 -6 -15 1 -26 14 -26 20 -4 37 13 9 21 9
31 1 11 -8 10 -12 -3 -19z m-45 -71 c0 15 42 24 56 12 7 -6 10 -17 7 -25 -4
-11 -9 -12 -19 -3 -7 6 -26 8 -42 4 -24 -5 -30 -2 -35 15 -5 21 -5 21 14 4 10
-9 19 -12 19 -7z"/>
<path d="M8370 14530 c0 -5 5 -10 10 -10 6 0 10 5 10 10 0 6 -4 10 -10 10 -5
0 -10 -4 -10 -10z"/>
<path d="M8635 14450 c3 -5 10 -10 16 -10 5 0 9 5 9 10 0 6 -7 10 -16 10 -8 0
-12 -4 -9 -10z"/>
<path d="M8567 14376 c-4 -9 7 -22 29 -35 19 -11 34 -27 34 -34 0 -18 44 -28
62 -15 10 8 10 9 -2 5 -9 -3 -25 2 -35 10 -20 15 -20 15 2 10 17 -4 20 -1 15
12 -4 9 -14 26 -22 37 -18 24 -75 31 -83 10z"/>
<path d="M8692 14333 c5 -25 28 -28 28 -4 0 12 -6 21 -16 21 -9 0 -14 -7 -12
-17z"/>
<path d="M8645 14240 c3 -5 8 -10 11 -10 2 0 4 5 4 10 0 6 -5 10 -11 10 -5 0
-7 -4 -4 -10z"/>
<path d="M8559 14193 c-13 -16 -12 -17 4 -4 16 13 21 21 13 21 -2 0 -10 -8
-17 -17z"/>
<path d="M8541 14144 c0 -11 3 -14 6 -6 3 7 2 16 -1 19 -3 4 -6 -2 -5 -13z"/>
<path d="M8886 14091 c-3 -5 1 -11 9 -15 8 -3 15 -1 15 4 0 13 -18 22 -24 11z"/>
<path d="M10490 13140 c-13 -8 -13 -10 2 -10 10 0 24 -13 33 -30 9 -17 27 -33
41 -36 19 -5 22 -9 13 -15 -7 -4 -10 -11 -6 -16 11 -10 27 17 20 34 -3 7 -13
13 -23 13 -11 0 -20 12 -26 32 -10 35 -29 44 -54 28z"/>
<path d="M10497 13073 c-14 -13 -6 -23 19 -23 22 0 25 2 14 15 -14 16 -23 19
-33 8z"/>
<path d="M10554 12989 c-3 -5 -2 -13 1 -19 3 -5 -1 -10 -9 -10 -15 0 -20 -14
-19 -47 1 -7 -4 -13 -9 -13 -6 0 -6 -6 1 -14 9 -10 26 -13 59 -9 62 6 70 15
49 58 -9 20 -17 41 -17 48 0 14 -47 19 -56 6z"/>
<path d="M6343 12644 c3 -5 -5 -23 -19 -39 -29 -34 -31 -49 -4 -42 11 3 23 1
26 -5 4 -6 10 -5 15 3 8 12 11 11 19 -1 6 -8 8 -23 6 -32 -8 -34 22 -18 43 22
17 33 18 40 6 40 -8 0 -14 -6 -12 -12 5 -27 -27 -11 -44 21 -10 19 -24 39 -30
45 -8 7 -10 7 -6 0z"/>
<path d="M6507 12576 c-6 -16 2 -28 14 -20 12 7 11 34 0 34 -5 0 -11 -6 -14
-14z"/>
<path d="M6265 12549 c-4 -6 -5 -13 -2 -16 7 -7 27 6 27 18 0 12 -17 12 -25
-2z"/>
<path d="M6220 12540 c0 -5 5 -10 10 -10 6 0 10 5 10 10 0 6 -4 10 -10 10 -5
0 -10 -4 -10 -10z"/>
<path d="M7690 11598 c0 -9 5 -20 10 -23 13 -8 13 5 0 25 -8 13 -10 13 -10 -2z"/>
<path d="M11269 11575 c0 -5 -2 -20 -3 -33 -2 -18 1 -22 15 -19 10 3 23 -1 29
-8 7 -8 35 -19 64 -26 46 -10 56 -9 79 6 28 18 28 39 0 28 -13 -5 -15 -2 -9
21 5 22 2 28 -19 36 -33 12 -155 9 -156 -5z"/>
<path d="M11480 11571 c0 -5 5 -13 10 -16 6 -3 10 -2 10 4 0 5 -4 13 -10 16
-5 3 -10 2 -10 -4z"/>
<path d="M11294 11482 c-6 -4 -16 -17 -23 -30 -7 -12 -16 -20 -21 -17 -5 3
-11 -4 -15 -15 -4 -11 -15 -20 -26 -20 -19 0 -19 -1 -5 -22 9 -12 16 -33 16
-45 0 -27 7 -29 32 -6 17 15 21 15 29 3 5 -8 7 -23 5 -32 -7 -30 15 -36 79
-23 33 7 65 10 70 7 6 -4 21 -8 35 -10 33 -4 50 -20 67 -59 7 -18 19 -33 26
-34 91 -7 97 -6 97 6 0 7 14 16 30 20 34 7 86 76 76 101 -6 15 35 31 52 20 5
-3 2 14 -6 38 -14 37 -20 43 -46 44 -17 0 -36 -4 -42 -9 -8 -7 -14 -6 -19 1
-8 13 -125 13 -125 0 0 -5 5 -10 10 -10 6 0 10 -8 10 -18 0 -10 5 -23 12 -30
9 -9 6 -12 -16 -12 -34 0 -66 16 -66 34 0 8 -10 16 -22 20 -13 3 -35 17 -50
31 -15 14 -37 25 -50 25 -43 0 -68 12 -68 31 0 19 -25 25 -46 11z"/>
<path d="M11731 11474 c0 -11 3 -14 6 -6 3 7 2 16 -1 19 -3 4 -6 -2 -5 -13z"/>
<path d="M12200 11443 c0 -13 -6 -23 -14 -23 -7 0 -39 -12 -70 -26 -31 -14
-68 -27 -82 -29 -13 -1 -27 -5 -31 -9 -3 -3 -12 -1 -20 6 -11 9 -15 7 -20 -10
-6 -25 -65 -57 -87 -49 -20 8 -27 -3 -15 -24 10 -20 69 -28 69 -9 0 18 55 65
80 68 30 4 160 -15 213 -30 37 -11 51 -38 27 -53 -6 -4 -8 -15 -5 -26 4 -13 2
-19 -8 -19 -8 0 -22 -9 -32 -20 -10 -11 -25 -20 -34 -20 -12 -1 -11 -5 7 -19
12 -11 22 -26 22 -34 0 -9 6 -17 12 -19 8 -3 13 -25 13 -58 l0 -54 48 -12 c58
-15 73 -26 89 -70 7 -20 19 -34 32 -36 12 -2 31 -24 50 -60 17 -32 34 -58 38
-58 4 0 12 18 18 41 6 22 19 43 28 46 9 3 25 13 34 20 9 8 22 12 27 8 6 -3 11
1 11 11 0 13 3 14 14 5 11 -9 15 -5 19 19 4 16 4 36 1 44 -3 7 1 16 9 19 13 5
13 11 0 49 -8 24 -24 53 -35 66 -18 19 -19 22 -5 22 13 0 15 5 7 24 -5 13 -6
26 -3 29 3 3 -10 20 -29 37 -18 17 -26 30 -18 29 35 -3 61 2 55 11 -3 6 1 10
9 10 9 0 16 7 16 15 0 8 -5 15 -11 15 -5 0 -7 -5 -3 -11 4 -8 -1 -9 -15 -4
-15 4 -29 1 -40 -9 -17 -16 -20 -14 -50 20 -27 30 -32 43 -29 78 2 39 1 41
-25 42 -15 1 -36 9 -46 18 -16 15 -22 15 -39 5 -17 -11 -25 -9 -54 12 -31 23
-35 24 -62 11 -27 -14 -30 -13 -47 9 l-19 24 0 -22z"/>
<path d="M12145 11200 c3 -5 13 -10 21 -10 8 0 14 5 14 10 0 6 -9 10 -21 10
-11 0 -17 -4 -14 -10z"/>
<path d="M10001 10554 c0 -11 3 -14 6 -6 3 7 2 16 -1 19 -3 4 -6 -2 -5 -13z"/>
<path d="M10006 10498 c-6 -25 0 -38 17 -38 15 0 16 48 0 54 -6 3 -14 -5 -17
-16z"/>
<path d="M9101 8514 c-7 -9 -19 -13 -27 -10 -8 3 -14 3 -14 0 0 -3 14 -10 30
-15 17 -6 30 -15 30 -20 0 -14 17 -11 23 4 3 7 -2 23 -12 34 -14 19 -18 20
-30 7z"/>
<path d="M9167 8446 c-34 -12 -32 -36 6 -54 30 -14 34 -27 13 -39 -11 -7 -11
-17 4 -63 l18 -55 -2 44 c-1 36 3 47 19 55 11 6 19 19 17 28 -2 9 1 26 7 36 7
14 7 24 -3 37 -16 22 -40 25 -79 11z"/>
<path d="M8891 8337 c-6 -8 -8 -17 -4 -20 3 -4 1 -7 -6 -7 -7 0 -11 -11 -9
-27 3 -24 -1 -28 -25 -31 -19 -2 -31 -11 -37 -28 -6 -13 -16 -27 -24 -30 -11
-4 -12 -13 -5 -37 7 -25 6 -35 -6 -43 -11 -8 -12 -13 -3 -22 9 -9 9 -12 0 -12
-18 0 -36 -40 -23 -53 6 -6 7 -16 1 -27 -14 -26 -1 -60 21 -57 11 2 24 8 31
15 8 8 18 7 39 -3 19 -10 30 -12 34 -4 5 7 12 6 23 -4 25 -21 65 -29 58 -11
-3 8 1 14 10 14 11 0 14 5 9 18 -14 35 -11 47 15 47 14 0 28 5 33 10 4 6 19
-4 35 -24 l29 -34 21 28 c12 15 22 32 22 37 0 6 7 8 15 4 8 -3 21 1 28 9 14
13 33 11 103 -10 15 -5 23 -2 28 10 3 9 11 13 17 10 6 -4 4 7 -5 23 -12 23
-26 33 -51 38 -30 5 -35 11 -41 43 -9 55 -12 61 -33 61 -20 0 -84 -54 -75 -63
2 -2 -2 -10 -11 -17 -12 -10 -18 -10 -30 0 -18 15 -20 31 -3 28 12 -3 29 57
22 77 -4 9 7 11 35 8 25 -2 41 0 41 7 0 6 -6 12 -12 14 -7 2 -29 9 -48 15 -19
7 -47 14 -62 15 -14 2 -38 10 -52 19 -14 9 -31 14 -39 11 -8 -3 -18 -1 -22 5
-9 15 -30 14 -44 -2z m-7 -332 c-4 -8 -10 -15 -15 -15 -5 0 -9 7 -9 15 0 8 7
15 15 15 9 0 12 -6 9 -15z m-94 -25 c13 -8 13 -10 -2 -10 -9 0 -20 5 -23 10
-8 13 5 13 25 0z"/>
<path d="M8470 8098 c-21 -47 -18 -58 11 -58 13 0 24 -10 30 -29 6 -16 17 -32
25 -35 8 -3 14 -12 14 -21 0 -8 9 -15 20 -15 11 0 20 5 20 11 0 6 9 8 20 4 11
-4 29 0 41 9 12 8 27 12 34 9 8 -2 23 5 34 16 l20 20 -30 18 c-36 21 -76 89
-56 96 6 3 -3 6 -21 6 -26 1 -35 -4 -39 -20 -3 -11 -11 -18 -18 -15 -7 2 -17
0 -23 -6 -7 -7 -16 0 -28 21 -10 17 -22 31 -27 31 -4 0 -16 -19 -27 -42z"/>
<path d="M9364 8014 c3 -9 6 -22 6 -30 0 -8 7 -14 15 -14 20 0 20 46 -1 54
-24 9 -27 8 -20 -10z"/>
<path d="M13553 7811 c-3 -11 -12 -21 -19 -21 -8 0 -14 -9 -14 -20 0 -34 -37
-62 -72 -55 -24 6 -33 3 -45 -15 -13 -19 -17 -20 -37 -7 -18 12 -23 12 -34 1
-6 -7 -12 -20 -12 -29 0 -10 -9 -15 -26 -15 -21 0 -24 -3 -15 -13 8 -10 7 -17
-1 -25 -16 -16 -28 -15 -28 3 0 8 -7 15 -16 15 -8 0 -13 -4 -9 -9 3 -5 -4 -16
-16 -24 -13 -9 -16 -17 -10 -22 6 -3 11 -16 11 -28 0 -12 7 -40 15 -62 8 -22
14 -75 15 -117 0 -66 -3 -78 -17 -78 -14 0 -14 -2 2 -20 29 -32 29 -75 0 -94
-13 -9 -31 -13 -39 -10 -9 4 -18 0 -22 -9 -6 -16 -54 -21 -54 -5 0 5 -10 2
-22 -6 -19 -14 -23 -14 -34 2 -10 14 -14 14 -28 3 -15 -12 -20 -11 -44 11 -15
14 -42 29 -59 33 -29 6 -33 4 -33 -15 0 -17 -4 -20 -20 -15 -11 4 -20 2 -20
-4 0 -6 5 -11 10 -11 6 0 10 -9 10 -21 0 -11 5 -30 12 -42 22 -41 18 -62 -14
-76 -27 -12 -29 -17 -22 -45 4 -17 8 -47 9 -66 3 -55 4 -57 23 -64 15 -6 34
-16 70 -39 11 -7 10 -11 -3 -21 -15 -11 -15 -15 5 -54 23 -43 22 -77 -5 -128
-11 -22 -10 -28 18 -59 17 -19 36 -35 42 -35 13 0 14 -80 0 -80 -5 0 -2 -7 8
-14 10 -8 27 -11 38 -9 16 5 19 11 14 30 -7 29 2 63 16 63 6 0 8 -9 4 -20 -7
-22 50 -86 81 -91 30 -5 44 9 35 34 -4 12 -11 34 -14 48 -6 24 -4 26 24 27 35
1 62 19 55 37 -5 14 28 45 48 45 29 0 76 23 76 37 0 10 10 13 38 11 36 -3 37
-4 42 -50 3 -26 8 -49 10 -51 3 -2 26 -2 53 1 44 4 47 6 47 32 0 23 -12 39
-59 77 -56 45 -89 89 -76 101 3 3 -2 14 -12 24 -9 10 -14 18 -11 18 3 0 2 19
-2 42 -6 31 -4 48 6 62 19 27 18 46 -3 61 -17 13 -17 14 0 32 21 24 22 66 2
83 -8 7 -12 16 -9 22 3 5 0 15 -6 23 -10 12 -9 15 9 15 23 0 24 4 21 88 -1 37
2 52 12 53 7 1 18 2 23 4 6 1 18 3 27 3 10 1 20 13 24 27 3 14 11 25 18 25 22
0 38 41 31 80 -4 22 -2 47 5 59 8 16 7 28 -5 50 -19 38 -19 51 0 51 20 0 20
58 0 81 -15 15 -13 17 20 23 31 6 35 10 35 37 0 17 -9 44 -21 60 -11 16 -17
29 -12 29 5 0 9 9 10 20 1 11 -2 20 -7 20 -5 0 -16 3 -25 6 -11 5 -18 0 -22
-15z"/>
<path d="M13065 7560 c3 -5 8 -10 11 -10 2 0 4 5 4 10 0 6 -5 10 -11 10 -5 0
-7 -4 -4 -10z"/>
<path d="M10780 6925 c-7 -8 -23 -15 -36 -15 -18 0 -26 -8 -35 -40 -9 -29 -17
-39 -28 -36 -134 38 -171 51 -198 66 -28 16 -33 17 -44 4 -7 -8 -26 -13 -45
-12 -26 2 -42 -5 -66 -28 -32 -29 -35 -30 -92 -22 -34 4 -64 4 -70 -1 -13 -11
-146 -2 -146 9 0 4 -12 15 -26 25 -25 16 -26 16 -19 -4 4 -12 2 -21 -4 -21
-12 0 -9 -69 3 -89 12 -18 -1 -26 -19 -11 -12 10 -15 10 -15 -3 0 -11 -5 -14
-17 -10 -11 4 -14 3 -9 -5 4 -8 0 -12 -11 -13 -14 0 -13 -2 6 -10 23 -9 22
-10 -29 -58 -54 -51 -112 -73 -133 -52 -17 17 -27 13 -27 -8 0 -28 -18 -36
-39 -17 -10 9 -30 16 -45 16 -21 0 -27 4 -22 15 3 8 -4 24 -16 35 -23 21 -48
81 -48 118 0 13 -6 22 -16 22 -25 0 -9 -88 21 -118 25 -25 31 -54 38 -197 2
-51 0 -95 -6 -102 -6 -9 -5 -13 4 -13 8 0 20 13 27 29 12 28 14 29 40 15 24
-12 27 -12 34 7 6 16 11 18 28 9 15 -8 24 -8 35 2 36 33 45 37 60 32 9 -4 15
-3 14 2 -5 28 3 24 21 -8 11 -21 17 -45 13 -55 -5 -14 -3 -16 7 -6 10 9 21 5
51 -19 36 -29 39 -36 39 -80 0 -37 4 -48 16 -48 11 0 14 -5 10 -16 -4 -9 0
-24 9 -34 13 -15 13 -18 -3 -36 -18 -19 -18 -20 22 -42 l40 -23 27 21 c34 24
39 25 39 5 0 -16 25 -21 34 -6 8 12 42 3 56 -14 7 -8 24 -11 49 -8 33 5 41 2
58 -23 11 -16 18 -35 16 -42 -3 -7 3 -16 14 -18 10 -3 23 -15 28 -26 14 -31
33 -33 44 -5 5 13 21 33 35 45 14 11 26 27 26 36 0 10 9 16 23 16 29 0 47 35
36 72 -8 31 -4 38 24 38 16 0 17 3 7 15 -7 8 -9 15 -6 15 4 0 0 7 -8 16 -12
12 -14 20 -5 36 10 18 12 18 27 4 71 -65 100 -85 119 -80 17 5 20 2 16 -18 -4
-19 2 -27 24 -37 15 -8 41 -16 57 -18 36 -4 57 -20 50 -37 -3 -8 5 -16 20 -20
14 -3 26 -11 26 -16 0 -6 9 -10 20 -10 13 0 17 -5 14 -14 -4 -11 6 -16 40 -21
26 -4 49 -11 52 -16 9 -15 24 -10 24 7 0 13 3 14 14 5 11 -9 24 -8 56 5 29 12
44 14 52 6 6 -6 17 -8 24 -5 8 3 14 0 14 -5 0 -6 8 -13 18 -16 10 -3 26 -20
36 -36 13 -23 21 -28 30 -21 14 11 53 -24 75 -66 6 -12 36 -38 65 -58 53 -35
56 -36 85 -20 18 9 31 11 31 5 0 -11 49 -14 74 -4 9 3 13 11 9 17 -4 6 0 8 10
4 22 -8 47 2 47 19 0 17 12 18 27 3 16 -16 28 8 13 26 -10 12 -9 15 3 15 21 0
37 31 37 72 0 18 1 46 1 62 1 16 -5 32 -12 37 -7 4 -14 15 -15 24 -1 9 -11 26
-21 37 -17 19 -17 20 0 33 16 11 14 15 -18 39 -33 26 -47 56 -25 56 16 0 11
56 -6 71 -10 8 -14 22 -10 40 3 18 -1 32 -13 44 -18 16 -18 18 15 68 l34 52
-30 10 c-32 11 -52 33 -44 47 3 4 1 8 -3 8 -5 0 -15 21 -22 48 -10 32 -28 61
-58 90 -24 23 -39 42 -34 42 16 0 22 33 8 48 -13 12 -17 11 -36 -9 -11 -13
-21 -26 -21 -31 0 -14 -57 -9 -70 7 -10 12 -14 12 -26 1 -20 -20 -72 -6 -87
23 -8 18 -26 28 -62 37 -27 7 -57 21 -65 32 -21 26 -47 34 -54 16 -3 -8 -10
-14 -16 -14 -6 0 -8 5 -5 10 3 6 -1 10 -10 10 -8 0 -18 7 -21 15 -4 8 -15 15
-27 15 -11 0 -29 7 -39 17 -12 10 -39 17 -77 19 -33 1 -68 5 -79 8 -11 4 -24
0 -32 -9z"/>
<path d="M12261 6907 c-12 -15 -7 -22 28 -42 10 -6 12 -4 5 6 -4 8 -9 20 -10
27 -4 21 -10 24 -23 9z"/>
<path d="M12494 6911 c9 -14 -16 -20 -37 -9 -15 8 -17 6 -11 -17 3 -14 1 -31
-4 -38 -14 -16 33 -79 57 -76 35 3 52 -2 67 -20 15 -17 18 -17 33 -2 9 9 29
26 45 39 27 20 28 24 14 38 -8 8 -21 16 -29 18 -8 1 -40 18 -72 39 -59 38 -72
44 -63 28z"/>
<path d="M12684 6825 c3 -10 2 -23 -4 -30 -8 -9 -8 -15 0 -20 6 -3 17 -22 25
-40 7 -19 29 -44 46 -54 31 -19 35 -19 51 -4 10 9 18 12 18 6 0 -20 42 -54 60
-48 11 4 20 -1 24 -12 4 -10 2 -19 -3 -21 -16 -5 -13 -22 4 -22 10 0 15 10 15
30 0 17 -4 30 -10 30 -5 0 -10 5 -10 11 0 6 -15 42 -32 80 -35 73 -56 89 -114
89 -19 0 -45 5 -56 11 -18 10 -20 9 -14 -6z"/>
<path d="M12093 6379 c-18 -19 -24 -20 -38 -9 -17 14 -17 14 -33 -15 -8 -16
-6 -24 15 -43 14 -13 32 -21 39 -18 8 3 14 1 14 -5 0 -6 5 -7 10 -4 6 4 10 14
9 23 -1 10 1 25 5 34 4 9 6 26 4 38 l-3 21 -22 -22z"/>
<path d="M12937 6389 c-17 -10 -16 -12 8 -30 14 -11 25 -26 25 -32 0 -6 12
-24 27 -39 15 -15 21 -28 14 -28 -6 0 -11 -6 -10 -12 5 -45 -14 -50 -43 -13
-21 27 -62 33 -75 12 -14 -24 -43 -27 -71 -10 l-27 17 19 -22 c10 -11 16 -28
13 -36 -4 -9 2 -16 15 -19 15 -4 19 -10 13 -24 -19 -45 -16 -58 22 -85 l38
-26 23 26 c12 15 22 37 22 50 0 25 3 26 32 11 14 -8 22 -8 27 0 11 17 50 1 53
-23 2 -13 9 -20 19 -18 9 1 19 -5 23 -13 3 -9 11 -13 17 -9 6 3 28 6 49 6 46
-1 66 18 51 46 -9 18 -6 19 62 17 89 -2 87 -2 87 -19 0 -21 37 -26 53 -7 8 9
18 27 22 41 4 14 13 28 19 32 6 4 11 14 11 22 0 9 3 16 8 16 4 0 12 0 17 0 15
0 12 -31 -6 -51 -14 -16 -13 -17 10 -15 17 0 26 7 26 18 0 9 13 21 30 27 17 5
30 17 30 25 0 9 5 16 11 16 7 0 9 9 6 21 -4 14 -1 19 7 16 7 -3 17 8 23 24 9
23 9 29 -3 29 -7 0 -18 -8 -23 -19 -8 -13 -27 -21 -68 -26 -32 -4 -61 -12 -64
-17 -4 -6 -19 -1 -37 12 -23 17 -35 20 -44 13 -7 -6 -27 -14 -44 -17 -23 -5
-34 -2 -49 14 -11 12 -31 20 -51 20 -22 0 -38 7 -46 19 -10 16 -14 17 -25 5
-8 -8 -23 -14 -34 -14 -16 0 -18 -3 -9 -19 15 -29 13 -31 -25 -31 -19 0 -35 3
-35 8 0 4 -10 12 -22 17 -13 6 -26 24 -31 45 -5 19 -13 41 -19 48 -13 15 -46
15 -71 1z m133 -139 c-8 -5 -24 -9 -35 -9 -16 1 -16 2 5 9 35 11 48 11 30 0z"/>
<path d="M12009 6258 c-7 -13 -18 -18 -30 -15 -10 3 -19 1 -19 -4 0 -5 -9 -9
-21 -9 -15 0 -19 -5 -15 -15 3 -8 1 -15 -4 -15 -15 0 -4 -127 14 -154 20 -31
20 -40 1 -32 -10 3 -15 -1 -15 -11 0 -9 -7 -24 -16 -34 -15 -16 -14 -19 5 -31
12 -7 21 -21 21 -31 0 -28 26 -72 54 -91 21 -13 26 -25 26 -57 0 -26 5 -42 15
-45 8 -4 15 -15 15 -25 0 -14 7 -19 28 -19 35 0 45 9 31 27 -9 10 -8 13 1 13
7 0 10 7 6 16 -4 12 -1 14 14 9 11 -4 20 -2 20 4 0 6 9 11 20 11 12 0 20 -7
20 -16 0 -25 24 -43 43 -33 12 7 28 3 56 -15 22 -14 42 -30 46 -36 12 -20 54
-30 100 -23 25 3 45 9 45 14 0 18 -35 40 -57 36 -31 -6 -36 5 -37 82 -1 61 -3
66 -22 63 -12 -1 -27 4 -34 13 -9 11 -16 12 -26 4 -10 -8 -19 -4 -38 18 -14
15 -26 35 -26 44 0 10 -17 32 -37 50 -21 18 -37 39 -35 47 2 8 -6 25 -19 38
-18 20 -21 31 -17 83 3 45 1 62 -9 66 -8 2 -13 10 -12 17 2 7 -6 27 -16 44
-22 37 -60 42 -76 12z"/>
<path d="M10450 5924 c-23 -12 -23 -13 -5 -19 11 -3 38 -15 59 -26 27 -13 43
-16 50 -9 7 7 4 10 -8 10 -9 0 -29 13 -44 28 -24 26 -29 28 -52 16z"/>
<path d="M10595 5810 c3 -5 8 -10 11 -10 2 0 4 5 4 10 0 6 -5 10 -11 10 -5 0
-7 -4 -4 -10z"/>
</g>
</svg>
