<svg version="1" xmlns="http://www.w3.org/2000/svg" width="1293.32" height="984.474" viewBox="0 0 969.99 738.355"><g fill="#222"><path d="M260.46 2.955c-.9 2.5-1.8 3.4-3.6 3.4-1.2 0-2.6.7-2.9 1.5-.4 1.3-1 1.4-2.6.5-2.6-1.4-12.6-.2-11.1 1.3 2 2 1.1 2.5-2.6 1.5-2.1-.5-5-1.2-6.5-1.5-1.6-.3-2.8-1-2.8-1.5 0-.6-.6-.8-1.4-.5-.8.3-4-.3-7.2-1.4-6-2.1-11.4-1.8-11.4.7 0 .9-1.1 1.4-3.5 1.4-1.9 0-3.5.4-3.5.9s-1.5 1.1-3.2 1.4c-1.8.4-4.8.9-6.7 1.3-2.7.5-3.2.4-2.6-.7.6-1.1.5-1.1-.5-.2-1.1 1-1 1.6.2 3.6.9 1.3 1.4 3.5 1.1 4.9-.3 1.4 0 2.9.6 3.2.6.4 1.1 1.3 1.1 2.1 0 .7 1.8 4.1 4 7.4 2.2 3.3 4 7.2 4 8.6 0 1.4.7 2.8 1.6 3.2.8.3 1.3 1.1 1 1.8-.2.7.4 2.1 1.5 3.1 2 1.8 6 9.6 5.8 11.1-.3 2 .3 3.4 2.6 5.9 1.4 1.5 2.5 3 2.5 3.4 0 .4-1.5 1.5-3.2 2.4-1.8.8-2.6 1.6-1.7 1.6 2.9 0 4.1 6.6 1.4 7.6-.8.4-1.3 1-1 1.5.3.4-.4 1.3-1.5 1.9-1.9 1-2.9 5-1.2 5 1.1 0 3 6.9 2.5 9.1-.3 1-1 1.9-1.5 1.9s.9 1.8 3.2 4c2.3 2.2 4.7 4 5.3 4 .6 0 2.5 1.6 4.4 3.6 3.5 3.9 6.7 9.4 5.3 9.4-.4 0 .1 1.7 1.1 3.7 2 4 1.4 5.3-2.7 5.3-1.1 0-2.9.9-3.9 2-2.2 2.5-3.2 2.5-3.9.2-.2-.9-.4.2-.3 2.5.1 2.3-.2 4.5-.6 4.9-1.5 1.5-.6 3.7 2.7 7 2.5 2.5 3.5 3 3.9 2 .3-.8-.1-2-1-2.8-1.4-1.1-1-1.4 2.7-2.3 3.6-.9 4.4-1.5 5.5-4.9.8-2.2 1.4-4.2 1.3-4.5-.3-3 .5-4.9 2.2-5.4 1.3-.3 1.8-1 1.4-2.1-.4-.9-.1-1.6.6-1.6 2.1 0 4-3.3 2.8-4.7-.7-.9-.6-1.4.5-1.9 1.3-.5 1.3-1.2-.3-5.7-2-5.6-1.8-6.7 1-6.7 1.2 0 2.1-1 2.5-2.9.3-1.6 1.3-3.5 2.1-4.2.8-.6 1.4-1.8 1.4-2.6 0-1.2.7-1.4 2.9-1 2.4.5 3.4 0 6.2-3.1 4.6-5.2 6.5-8.5 5-9-1.9-.6-1.3-5.3.8-5.9 1.3-.3 1.7-1.1 1.4-2.4-.4-1.3 0-1.9 1.1-1.9.9 0 1.6-.5 1.6-1.2s.7-.5 1.8.5c3.4 3.1 7.6-2.8 5.2-7.4-1-1.7-.9-2 .7-1.7 1.4.2 1.8-.3 1.8-2.5 0-1.6.8-3.4 1.8-4.1.9-.7 1.7-2 1.7-2.7 0-.8.8-2.2 1.9-3.1 1.1-1 1.7-2.6 1.6-4.2-.2-1.7.2-2.9 1.1-3.3.8-.3 1.1-.9.8-1.4-.3-.5.2-1.2 1-1.5 1-.4 1.4-1.4 1.1-2.8-.3-1.1-.7-3.7-.9-5.8-.2-2-.6-4.1-1-4.6-.3-.6 0-1.3.6-1.5.8-.3.6-.6-.5-.6-1-.1-1.5-.6-1.2-1.2.4-.6 1.3-.8 2.1-.5 2.3.9 1.2-4.2-1.3-5.9-1.8-1.3-2.2-1.3-2.7 0-.7 1.9-2.6 1.9-2.6.1 0-3.1-4.2-8.4-8-10.1-2.9-1.3-3.7-2.1-3-3 1.1-1.3-.5-3.9-3.1-4.8-1.1-.4-1.9.5-2.8 2.9zM186.36 23.355c0 .5.5 1 1.1 1 .5 0 .7-.5.4-1-.3-.6-.8-1-1.1-1-.2 0-.4.4-.4 1zM179.06 24.055c-1.3 1.2-.7 6.1.9 7.4 1.4 1.2 1.6 1 1.2-1.6-.2-2.5.1-3.1 2-3.3 2.6-.4 2.9-1.7.6-2.6-2-.8-3.9-.8-4.7.1zM193.56 100.355c-1.4 2.3 1 3.6 2.8 1.4.7-.8 2.2-1.4 3.3-1.4 2.7 0 1.9-.6-1.9-1.3-2.3-.4-3.3-.1-4.2 1.3zM204.06 99.055c-1.1 1.1-.8 2 .7 2 .8 0 1.2-.6.9-1.4-.6-1.5-.7-1.5-1.6-.6zM764.36 134.755c0 1.2-.9 1.6-3.4 1.6-1.9 0-3.8.5-4.1 1.1-.4.6-1.4.8-2.3.4-.8-.3-1.8-.1-2.2.5-.4.7-1.7.5-3.9-.6-2.4-1.2-3.5-1.3-4.5-.5-.9.7-3 .9-5.5.5-3.2-.5-4.2-.3-4.7 1-.3.9-1 1.6-1.6 1.6-.5 0-.7-.4-.4-.8.3-.5-.1-.9-.9-.9s-1.2.4-.9.9c.3.4-.4.8-1.6.8-1.1 0-2.3.7-2.6 1.5-.6 1.5-6 1.5-8.4 0-.5-.3-1.3.1-1.6.9-.5 1.2-1 1.3-2.6.5-1.1-.6-2.6-.8-3.4-.5-1.5.6-2.6-.1-6.7-4-1.2-1.2-3.4-2.4-4.9-2.8-2.3-.5-2.8-.3-2.8 1.3 0 1.4-.8 2.1-2.7 2.3-2 .2-3.2 1.2-4.2 3.4-1.3 3.1-1.4 3.1-9 3-5.4-.1-8-.5-8.9-1.6-1.1-1.3-1.2-1.2-.7.7.6 2.2.4 2.3-4.9 2.3-3 0-5.8.4-6.1 1-.3.5-1.7 1-2.9 1-1.3 0-3.5.9-5 2.1-1.5 1.2-3.3 1.8-4.5 1.4-1.3-.4-2 0-2.4 1.4-.3 1.4-1.1 1.8-2.6 1.4-1.2-.3-2.1-.1-2.1.6 0 .6-.9 1.1-2.1 1.1-1.6 0-1.9.4-1.4 2s.2 2-1.4 2c-2 0-2.3.4-2.5 3.2-.1 1.8-2.8 3.7-4.3 3.1-.7-.3-2 0-2.7.6-.8.7-4.6 1.5-8.5 1.8-5.7.5-7.5.3-8.9-1-.9-.8-2.9-1.9-4.4-2.2-1.6-.4-2.8-1.4-2.8-2.2 0-.8-.4-1.2-.9-.9-.4.3-1.8-.5-3-1.7-2.3-2.5-2.8-10-.8-12.5.9-1.1.2-1.3-3.4-1.2-6.7.3-6.6.3-9.9-4.5-3.5-5.1-5.5-5.6-7.2-1.9-.9 1.9-.9 3 0 4.4.6 1.1.8 2.1.3 2.4-2.1 1.4-1.9 6.1.5 8.9 2 2.3 2.3 3.5 1.8 6.8-.5 3.1-.3 4 1.1 4.5 1.7.7 1.7.8 0 2-1.5 1.1-1.6 1.6-.5 2.9.7.8 1 2.1.7 2.9-1.1 2.8 1.5 7.5 4.5 8.2 2.6.5 2.8.9 2.2 3.9-.6 3.3.9 7.5 2.6 7.5.6 0 1-.9 1-1.9 0-1.4.5-1.8 2-1.4 1.9.5 1.9.7.5 2.3-.8.9-1.5 3.2-1.5 5.1 0 3-.9 4.4-6.5 9.6-5.7 5.3-6.5 6.5-5.9 8.7.3 1.5.2 2.6-.3 2.6s-1.6 1.2-2.4 2.7c-.8 1.6-2.4 3.6-3.6 4.6-1.8 1.5-2.1 2.5-1.7 6.7.3 3.3-.1 6-1.1 8-.8 1.6-1.5 3.8-1.5 5 0 1.1-.4 2-.9 2-1.3 0-2 11.1-.9 14 1.9 5.1-1.4 7.7-11.1 8.6-2.5.2-4.8.9-5.2 1.6-1.1 1.8-5.9 1.6-6.9-.3-1.1-1.9-5.8-3.1-6.6-1.7-.4.6-1 .5-1.5-.3-.9-1.6-2.4 3.4-1.6 5.5.3.8-.1 1.7-.9 2-.8.3-1.4 1.7-1.4 3 0 1.4-1 3.6-2.3 5-2 2.1-2.5 2.2-4.1 1.1-2.5-1.9-4.9-.8-4.3 2.1.2 1.3-.1 3.2-.8 4.1-.9 1.3-1 2.3-.2 4 1.7 3.7-.3 4.4-5.1 1.8-3.1-1.6-3.8-2.4-2.7-2.9 1.4-.5 1.3-1-.6-3.6-1.9-2.5-3-3-6.6-3-2.5 0-5.6.8-7.5 2-4 2.4-6.1 2.5-9.4.4-1.8-1.2-2.8-1.4-3.6-.6-.6.6-2.3.8-3.9.5-2-.4-2.8-.1-3.1 1.1-.3 1.7-1.5 1.1-8.7-4.1l-2.4-1.8.6 3.3c.5 2.3.3 3.2-.6 3-.6-.1-2.2.4-3.5 1.1-1.9 1-3.1 1-6.8-.3-3.8-1.3-4.4-1.3-4.4 0 0 .8-.9 3.1-2 5.1-1.1 2.1-2 4.3-2 5 0 .7-.4 1.3-1 1.3-.5 0-1 .7-1 1.5s-.7 1.5-1.5 1.5-1.9.8-2.4 1.8c-.6 1.1-2.6 3.1-4.5 4.6-2.8 2.1-4 2.5-5.5 1.7-1.4-.8-2-.7-2.5.4-.3 1-1.4 1.3-3.3.9-1.5-.3-5-.1-7.8.5-4.1.8-5.3.7-6.7-.6-1.4-1.3-2.5-1.4-5.9-.5-3.4.9-4.6.8-6.5-.5-1.3-.8-2.4-1.1-2.4-.5 0 .5-3.1 1.2-6.9 1.6-7.4.8-9.4 2.1-10.6 6.9-.6 2.2-1.1 2.6-2.4 2-.9-.4-5-.8-9.1-.9-4.1-.1-8.8-.6-10.3-1.2-2.2-1-3.3-.9-5.1.3-3.1 2.1-11.6 1.6-13.6-.8-.9-1-3-1.8-5.3-1.9-2.5-.1-4.3-.8-5.1-2-.7-1-1.6-1.5-1.9-1.2-.4.4-1.3.1-2.2-.6-.8-.7-1.5-.9-1.5-.5s-.7.2-1.5-.5c-.9-.7-1.3-2.1-1-3.1.5-1.4.1-1.9-1.2-1.9-1.8 0-12.8-4.2-14-5.3-.3-.4-1.1.1-1.8 1-1.4 1.9-4.2 1.2-5.2-1.4-1.1-3-4.2-6.6-7.4-8.5-2.9-1.8-3-1.8-1.9.2.6 1.1 1.5 2 2 2 .6 0 1 .9 1 2s-.4 2-1 2-.6.9 0 2.6c1.4 3.5 1.3 3.9-.5 2.4-1.3-1.1-1.4-1-.9.5.6 1.5.3 1.7-2.4 1.3-2.4-.3-3.3 0-4.2 1.8-1.4 2.6-5 2.1-5-.7 0-1.6-.4-1.7-2.5-.9-2 .7-3.2.6-5-.6-1.4-.9-2.5-2-2.5-2.5s-1.2-1.4-2.6-2c-2-.7-3.2-.6-5 .6-2.8 1.8-5.7 1.9-8.5.2-1.7-1-2.3-1-2.6 0-.3.7-1.3 1.3-2.3 1.3-1.3 0-1.7.5-1.3 2 .4 1.4 0 2-1 2-.9 0-2.1-.9-2.7-2-.6-1.1-1.8-2-2.8-2-2-.1-5.2-2.3-5.2-3.7 0-.6-.7-1.6-1.5-2.3-.8-.7-1.5-2.8-1.5-4.8 0-1.9-.9-4.9-2-6.7-2.7-4.3-1.8-6.7 2.3-6 2.7.5 2.9.4 1.7-1-.7-.9-1.5-3.4-1.7-5.5-.3-3.3-.1-3.9 1.2-3.4.8.3 1.5.1 1.5-.5s.7-1.1 1.6-1.1c1.2 0 1.5-.7 1.2-2.5-.5-2.6.9-3.5 1.8-1.1.4 1.1 1.1 1.1 3.3.3 2.1-.8 2.7-1.6 2.5-3.4-.1-1.4.3-2.3 1.2-2.3.8 0 1.1-.6.8-1.5-1.1-2.7.5-1.6 2.2 1.6 1.5 2.9 1.7 3 3.2 1.5 1.4-1.4 1.5-1.8.3-2.5-.7-.5-1.1-1.5-.9-2.2.3-.8-.1-2.7-1-4.4-1-1.9-1.1-3-.4-3.3.8-.2.8-1.1.1-2.9-.7-2-.5-3.1 1.3-5.6 1.3-1.8 2.3-3.7 2.3-4.2.1-.6.6-.9 1.3-.8.7.2 1.2-.6 1.2-1.7s.5-1.7 1.3-1.5c1.8.7 3.8-4 2.3-5.5-.8-.9.3-1 5-.5 5.8.6 6.1.5 7.8-2 1.1-1.7 2.4-2.5 3.9-2.3 2.8.4 7.1-5.7 6.1-8.7-.4-1.1-.7-3.2-.7-4.7 0-1.9-.6-2.8-2.1-3.2-1.2-.3-3.2-2.1-4.5-4-1.3-2-3.2-3.8-4.4-4.2-1.9-.6-1.9-.8-.4-1.8 1.4-1.1 1.4-1.5.1-4-1.8-3.6-1.8-5.2.1-6 2.3-.8 1.8-4-.7-5.1-1.3-.6-3.4-3.3-4.7-6.3-1.9-3.9-2.9-5.1-4.2-4.7-1 .3-1.9-.1-2.3-1-.3-.8-.2-1.5.3-1.5.4 0 .6-1.1.3-2.5-.3-2-.7-2.3-2.3-1.5-1.2.7-2 .7-2.4 0-1-1.7-3.5-1.1-3.5.8 0 1-.2 2.1-.5 2.4-1 .9-5.5-.4-5.5-1.6 0-.7-1-1.2-2.1-1.2-2.5.1-3.5-3-1.3-3.8 1.2-.4 1-1-.6-2.6-1.1-1.1-2-2.6-2-3.3 0-.6-1.5-1.8-3.2-2.6-1.8-.7-5.1-2.2-7.3-3.2l-4-1.9-.3 3c-.3 2.4-1.1 3.5-3.8 4.7-3.2 1.6-3.3 1.8-1.8 3.4.9 1 1.4 2.5 1 3.4-.3.9.2 2 1.4 2.7 2.5 1.6 2.5 1.9 0 4.8-1.1 1.2-2.2 3.8-2.6 5.7-.3 1.8-1.5 3.8-2.5 4.4-1.4.7-1.7 1.4-1 2.7 2.3 4.3-3.5 12.2-8.8 12.2-2.2 0-6.1 3.6-6.1 5.7 0 .7-.4 1.3-1 1.3-.5 0-1 1.1-1 2.4 0 1.5-1.4 3.7-3.9 5.9-2.1 1.9-4.4 5.2-5.1 7.2-.7 2.1-2 4-3.1 4.2-1.2.3-1.9 1.4-1.9 2.9 0 1.7-.6 2.4-2 2.4-1.3 0-2 .7-2 1.9 0 1.6-.9 2.1-4.7 2.6-2.7.3-5.7 1-6.8 1.4-1.1.5-2.9.5-3.9.1-2.4-.8-8 4.4-7.2 6.6.3.8 0 1.4-.5 1.4-.6 0-.9-.9-.6-2 .6-2.3-2.1-6.2-2.9-4.3-.8 2-2.4 1.5-2.4-.6 0-2.8-1.1-5.2-2.1-4.5-.5.3-.9 1.6-.9 2.9 0 2.6-3.3 5.5-6.3 5.5-1.9 0-3.1.8-7.9 5.2-1.8 1.7-4.1 2.8-5.9 2.8-1.6 0-2.9.5-2.9 1.1 0 .6-.9.8-2 .4-2-.6-2.3-.1-2.3 4.7 0 2.4-1 2.3-4.6-.8-3.4-2.8-3.8-2.7-9.3 2.4-4.2 4-5.2 6.7-3.2 8.6.9 1 1.2 2.5.8 4.6-.5 2.4-1.1 3-2.8 2.8-1.3-.2-2-1-2-2 .1-1.4-.2-1.5-1.6-.8-1.1.6-2.8 1-3.9 1-1.2 0-2.1.5-2.1 1.1 0 1.3-2.5 3.9-3.8 3.9-.5 0-.8 1-.8 2.2.1 1.6-.5 2.4-2.1 2.6-1.2.2-2.7 1-3.3 1.8-1.8 2.1-6.3 1.7-8.9-.7-3-2.8-9.1-4.5-10.2-2.8-.9 1.5-7.1 1.7-7.6.2-.3-.7-2.3-.9-5.4-.6-3 .3-5.5 0-6.4-.7-.7-.6-2-1-2.7-.8-.8.2-3.3-.6-5.7-1.6-3.2-1.5-4.7-1.7-6-.9-1 .6-2.9.9-4.3.6-1.5-.3-3.4-.1-4.4.5-1.2.7-2.9.6-5.6-.4l-3.8-1.3v2.8c0 1.5.8 3.5 1.8 4.3 2.2 2 8.8 4.8 11.3 4.8 1.6 0 1.7.3.7 1.9-.9 1.5-.9 2.5 0 4.5.7 1.6.8 2.6.2 2.6-2.2 0-.7 1.7 3.4 4 2.5 1.3 4.9 3.4 5.5 4.7.8 1.8 1.5 2.1 2.8 1.4 2.6-1.4 5.7-2.4 6.6-2.3.4.1.7-.2.7-.7 0-.5 2.1-.6 4.8-.3 2.6.2 4.4.1 4-.3-.3-.3.1-1.5 1-2.5 1.5-1.8 1.7-1.8 6.1.7 2.5 1.4 5.3 3.3 6.1 4.2 2.2 2.5 5.5 2.3 8.5-.5 3.8-3.5 6.3-2.4 9 4.1.9 1.9 2 3.5 2.5 3.5.6 0 1 .9 1 2s-.5 2-1.1 2c-.5 0-.7.4-.4 1 .3.5 1.4 1 2.5 1s2.3 1.3 3.3 3.7c.8 2.1 3.1 5.4 5.1 7.2 3.6 3.5 7.9 10.5 7 11.4-.3.2.9 1.7 2.6 3.3 1.6 1.6 3 3.5 3 4.2 0 .8.9 2.1 2.1 3.1 1.7 1.4 2 2.3 1.4 5.5-.6 3.1-1.1 3.7-2.7 3.3-1.6-.5-1.9-.2-1.4 1.7.3 1.2-.1 3.4-.9 5-1.1 2.1-1.2 3.3-.4 4.7 1.2 2.4.4 15.8-1.1 17.3-.6.6-1 2-1 3.3 0 1.4-.6 2.3-1.5 2.3-2.2 0-1.8 2.7.5 3.3 1.5.4 2 1.4 2 4.1v3.6l-5.7-.4c-3.2-.2-6.5 0-7.5.5-2.2 1.2-8.6 1.5-12.5.5-3.6-.8-4.8-2.9-3.2-5.8.8-1.5.8-2.3-.2-3.2-.9-.8-1.1-.7-.6.6.8 2.2.8 2.2-3.1.3-1.7-.9-2.9-2.1-2.7-2.8.3-.7.1-1.8-.4-2.6-.8-1.2-1.1-1.2-2.5.1-2.1 2.1-6.8 1.6-10.2-1.1-3.9-3.1-9.3-1.6-9.4 2.6 0 1.4-12.5 1.7-15.1.2-1.7-.9-1.8-.7-.8 1.7 1.5 4.1-.3 5.1-4.6 2.5-4.2-2.5-6.8-2.7-8.5-.6-.9 1.1-.8 1.8.9 3.6 1.5 1.7 1.7 2.5.9 3.9-.8 1.3-.7 2.7.5 5.8 1.4 3.5 1.4 4.1.2 4.6-.9.3-1.2 1.2-.8 2.2.5 1.3.3 1.6-1 1.1-2.9-1.1-2 2.9 1.3 6.3 2.6 2.7 3.5 4.7 3.1 7.2 0 .3 1.6.5 3.6.3 2.1-.2 4.5.1 5.5.6 1.3.7 1.8.6 1.8-.3 0-.6 1.3.1 2.9 1.6 1.5 1.5 5 3.5 7.7 4.5l4.9 1.7v5c0 5.6.9 7.6 3 6.7.9-.3 1.5.1 1.5 1.1 0 1.3.5 1.4 2.7.5 3.2-1.2 5.9-.4 4.6 1.4-1.3 1.6-1 6.2.5 8 .7.8 1.3 2.7 1.5 4.4.2 1.7 1.3 4.3 2.5 5.8s2.7 4.6 3.3 6.8c.6 2.2 1.5 5.1 2 6.5l1 2.6 1.2-2.4c.7-1.4 1.9-2.5 2.7-2.5.8 0 2.1-.6 2.8-1.3 1.6-1.5 3.2-1.6 3.2-.2 0 .5-.8 1-1.7 1-.9 0-1.3.3-.9.7 1 1 4.6 1.1 4.6.1 0-.4.6-.8 1.4-.8 2.8 0 2.7 2-.2 5-2.7 2.6-2.8 3-1.3 4.3 1 .9 3 1.3 5.4 1 4-.6 4.5-1.3 2.2-3.7-.8-.8-1.5-2.8-1.5-4.5 0-1.7-.4-3.1-1-3.1-.5 0-1-.8-1-1.9 0-1.4.6-1.7 2.5-1.3 1.8.3 2.5 1.1 2.5 2.7 0 2.7 2.1 3.9 7 4 1.9.1 5.4.6 7.8 1.2 3.4.9 4.2.8 4.2-.3 0-.8 1-1.4 2.2-1.4 2 0 2 .1.3 1.9-1.6 1.9-1.6 2.1.3 4.8 3.2 4.4 8.9 9.6 10 8.9.5-.3 1.8.1 2.8.9 1 .8 2.7 1.5 3.7 1.5s2 .8 2.4 1.7c.3 1 2.7 4.3 5.3 7.3 2.5 3 4.9 6.3 5.3 7.2.3 1 1.5 1.8 2.5 1.8 1.1 0 3.1.9 4.4 2 1.4 1 2.9 1.6 3.2 1.2.4-.4 1.3.1 2 1 1.1 1.4 1.9 1.6 4.7.8 4.9-1.4 5.5-1.3 8.4 1.7 2.1 2.3 2.7 2.5 3.5 1.3 1-1.5 1.6-1.2 8.8 5.5 1.8 1.6 4.1 3 5 3 1 0 2.1 1.3 2.8 3.3.5 1.8 1.8 4.2 2.7 5.3.9 1 1.7 2.3 1.7 2.9 0 .5 1.2 2.1 2.7 3.5 1.5 1.4 2.4 2.5 1.9 2.5s-.3.7.4 1.5c.9 1 .9 1.5.1 1.5-.6 0-1.1 1.8-1.1 4.5 0 3.8.3 4.5 2 4.5 1.1 0 2 .7 2 1.5 0 2.1 4.9 9 6.5 9 1.8 0 14.5 8.3 14.5 9.5 0 .6-.1 1.3-.2 1.6-.5.9 3.1 2.6 4.2 1.9.5-.3 3.4 0 6.4.6 5.3 1.3 5.3 1.4 6.6 6.1.8 3.2 2.1 5.5 3.7 6.5 2.1 1.4 8.5 12.9 8.8 15.8.4 4.1 1.9 12.4 2.6 14.4.9 2.3-.1 7.1-2.3 11.4-1 2.1.5 4.7 2.8 4.7 2.2 0 1.7 4.3-.7 6.4-1.6 1.4-2 2.5-1.5 4.8.3 1.7.6 3.9.6 4.9 0 .9.8 2.5 1.8 3.5.9 1 1.7 3.1 1.7 4.8 0 3.5 2.9 4.8 4.9 2.1.9-1.3 1.7-1.4 3.8-.6 2 .8 2.9.7 3.8-.5.7-.7 2.5-1.4 4.1-1.4 2.2 0 2.9-.5 2.9-2 0-1.1.7-2 1.5-2 1.6 0 5.9-4 7.5-7 1-1.8 1.3-1.9 3.8-.6 2.1 1 3.1 1.1 4.6.2 3.2-1.9 6.7-5.7 6.1-6.7-.4-.5.1-.9.9-.9 1.2 0 1.5-.9 1.2-4l-.3-3.9 4.4.6c4.4.6 4.4.6 3.7-2.1-.5-2.1-.1-3.3 1.7-5.2 1.2-1.3 2.8-2.4 3.5-2.4 2 0 8.2-5.8 9-8.3.3-1.2 1.8-3.4 3.1-4.9 2-2 2.4-3.5 2.1-6.1-.3-2.9.1-3.8 2.4-5.3 1.5-1.1 2.8-2.3 2.8-2.8s.7-.3 1.5.4c1.2 1 1.5 1 1.5-.4 0-.9.8-1.6 2-1.6 1.1 0 2-.5 2-1.1 0-.8.4-.8 1.4 0 1.9 1.6 3.6-1.3 3.6-5.9 0-3 .1-3.1 3.5-2.4 3.1.5 3.5.4 3.5-1.4 0-1.1.8-2.3 1.7-2.6 1.5-.6 1.5-.8.1-2.2-1.4-1.5-1.3-1.9 2-5 2-1.9 4.3-3.4 5.1-3.4 1.1 0 1.1-.3-.3-1.9-.9-1-1.4-2.5-1-3.4.3-.9-.2-1.9-1.4-2.6-1.1-.6-2.5-2.4-3.2-4.1-.7-1.6-1.9-3-2.8-3-.8 0-2.1-.8-2.8-1.8-1.7-2.2-1.8-5.6-.1-4.9 1 .4 1.1-.7.6-4.7-.4-2.8-1-6.2-1.5-7.6l-.7-2.4 2.9 2.2c7.4 5.7 7.3 5.7 9.4 3.4 1.3-1.3 3.8-2.2 7.9-2.7 3.3-.4 5.9-1 5.8-1.4-.1-.3.4-1.3 1.1-2.1.7-.8 2.1-2.7 3.2-4.2 2.2-2.9 3.9-2.9 7.5.2 1.1.9 2.8 2 3.8 2.3.9.4 1.7 1.3 1.7 2.2 0 .8.5 1.5 1 1.5.8 0 .8-.6.1-1.7-.8-1.5-.4-2 2.7-2.9 2-.6 4.4-.7 5.3-.3.8.4 2.7.9 4.1 1.1 1.4.2 3.3 1 4.2 1.7 1.1 1 2.3 1.1 4.4.3 3.1-1.1 6.2 0 6.2 2.2 0 .8.6 1.6 1.4 1.9.7.3 2.7 3.5 4.5 7.1 2.7 5.7 3.8 6.8 8.1 9 2.8 1.4 5 2.2 5 1.7 0-1.6 6.9-.3 9.6 1.8 1.4 1.1 3.3 2.1 4 2.1.7 0 1.8.9 2.4 2 .7 1.2 1.6 1.8 2.3 1.3.7-.4 2.4-.6 3.9-.4 1.4.1 2.9-.3 3.3-.9.3-.5 1.1-.8 1.6-.5 1.7 1.1.9 3.6-2.1 6.2-2.8 2.3-3 2.8-2.4 7.4.5 4 .4 5-1 5.5-2.4.9-2.1 2.9 1.1 8.3.2.2 1.1-.3 2.2-1.3 2.9-2.6 8.8-3.2 11.1-1.1 1.9 1.7 1.9 1.7 1.7-1.3-.1-2-.8-3.3-1.9-3.6-1-.2-1.8-1.1-1.8-1.9 0-.9-.8-1.8-1.7-2-1.5-.4-1.5-.5.2-.6 1.1 0 2.6-1 3.3-2.1.7-1.1 1.8-2 2.5-2s1.7-1 2.2-2.3c.6-1.2 1.9-2.3 3-2.5 1.1-.2 3.2-2.2 4.7-4.6 3.7-5.8 4.2-7.4 2.8-9.1-1.5-1.8-.5-3.5 2.1-3.5 1 0 1.9-.5 1.9-1 0-.6-.4-1-.9-1s-1.2-2.3-1.6-5.1c-.6-4.5-.5-5.3 1.8-7.7 1.4-1.5 2.8-3.7 3.2-5 .3-1.2 1-2.2 1.5-2.2.4 0 1.3-1.4 1.9-3 .5-1.7 1.5-3 2.1-3 .6 0 .8-1 .4-2.6-.6-2.4-.5-2.5 1.4-1.5 1.1.6 2.9 1.1 4 1.1 1 0 3.7 1.3 5.8 2.8 4.5 3.3 9 4.7 9.9 3.1.5-.7 1.5-.3 2.9 1 1.7 1.6 3.1 2 6.6 1.6 4.8-.4 6.6-2.2 4.5-4.5-1.2-1.3-.9-2 2.1-5.3 3.4-3.7 5.4-4.7 5.4-2.7 0 .6.8 2.3 1.7 3.7 1 1.5 1.6 3.7 1.5 5-.3 1.9.1 2.3 2.3 2.3 1.4 0 3.5.5 4.6 1.1 1.5.7 2.4.7 3.4-.1 1-.8 2.1-.7 4.4.5 1.7.8 3.1 2 3.1 2.5 0 .6.3.9.8.8 1.9-.5 5 1.7 8.2 5.7 1.9 2.5 4.1 4.5 4.9 4.5.8 0 1.1.7.8 2-.3 1.1-.1 2.3.4 2.6.5.3.9 0 .9-.5 0-1.3 7.8-1.2 10.3.1 1.3.7 2.6.4 4.4-.7 1.4-.9 3.4-1.5 4.4-1.2 1.1.3 4.2-.2 7.1-1.1 4.1-1.4 5.4-2.3 6.4-4.9.8-1.7 1.8-3.4 2.4-3.8.5-.3 1-1.5 1-2.6 0-4.4 7.2-9.1 8.6-5.5.3.8 1.5 1.3 2.6 1.1 3.4-.7 7.7.7 8.3 2.6.4 1.1 1.1 1.7 1.6 1.3.5-.3.7-1.4.4-2.5-.6-1.7-.4-1.8 1.9-.7 2.3 1 2.8.9 4.1-.8.8-1 1.5-2.9 1.5-4.2 0-1.2.5-2.2 1-2.2.6 0 1-1.1 1-2.4 0-1.4.5-2.8 1-3.1.6-.3 1-1.5 1-2.6s1-2.4 2.3-2.9c1.8-.7 1.9-.9.4-.9-1.3-.1-1.8-.8-1.6-2.4.2-1.2-.2-3.2-.9-4.3-.6-1.2-.8-2.4-.5-2.8.7-.6 3.4 3.7 4.9 7.5.5 1.4 1.1 1.5 3.5.6 2.2-.9 2.9-1.8 2.9-3.8 0-1.5-.4-2.9-1-3.1-.5-.2-.6-.9-.1-1.6.6-1 2.9.1 9.1 4.3 4.6 3.1 8.6 5.2 8.9 4.7.3-.5 2.1-.3 3.9.5 2.6 1 3.2 1.8 2.7 3.1-2.5 6.2-2.7 7.3-1.4 8.9 1.1 1.3 1.1 1.7.2 2-.7.3-1.3 1-1.3 1.6 0 .5.3.7.6.4.4-.3 1.6-.2 2.7.4 1.4.8 1.8.8 1.3 0-1.2-1.9 1-1.2 2.9.9 1.3 1.5 3.1 2 6.7 2 4.1 0 4.8-.3 4.8-2 0-1.1.7-2 1.5-2s1.5-.6 1.5-1.4c0-1.9 1.8-2.4 5.8-1.8 2.3.3 3.2.1 3.2-1 0-1.9-3.7-9.5-5-10.3-.6-.4-.8-1-.5-1.5.3-.4-.2-1.1-1.1-1.4-1-.4-1.4-1.4-1.1-2.6.3-1.3 0-2-.8-2-.7 0-1.6-.6-1.8-1.3-.3-.7-.6-.5-.6.5-.1 1.1-.9 1.8-2.2 1.8-1.5 0-1.9-.5-1.5-1.5.3-1-.1-1.5-1.2-1.6-1 0-1.2-.3-.4-.6 1.7-.7 1.5-2.3-.3-2.3-.8 0-1.5-.5-1.5-1 0-.6.7-1 1.5-1 1.6 0 1.9-1.9 1.6-8.1-.2-2 .2-4 .8-4.4 1.7-1 1.3-2.8-.4-2.1-.9.3-1.5 0-1.5-.8 0-.7-1.5-2.1-3.4-3.1-3-1.7-3.2-2-1.8-3.6.8-.9 2.2-1.5 3-1.1 1.1.4 1.4.1.9-1.2-.9-2.2 1.9-3.3 4.5-1.7 1.1.7 1.8.8 1.4.3-.3-.5.5-1.4 1.8-2 1.7-.7 2.5-2.1 2.8-4.6.2-2 .1-3.6-.2-3.6-.4 0-1.2-1.1-1.8-2.5-.6-1.4-1.9-2.5-2.8-2.5-2.7 0-1-2.3 2.6-3.5 1.9-.6 3.6-1.7 3.8-2.3.2-.7.8-1 1.2-.7.5.3.8-.3.7-1.3-.1-2.3-2.6-2.5-4.9-.5-1.5 1.4-1.9 1.3-4-.9-1.3-1.4-3.1-2.8-4.2-3.1-1.7-.7-1.7-.8.5-2.6 1.3-1 2.9-1.6 3.6-1.4.7.3 1.3-.2 1.3-1s.9-1.7 2.1-2c1.8-.5 2-1.1 1.4-3.6-.6-2.7-.4-3.1 1.7-3.3 4.4-.3 5.3-.5 9.7-1.8 4.5-1.4 7.7-5 6.7-7.5-.6-1.8-.2-1.9 2.5-.5 1.6.9 2.5.6 5-2 1.7-1.7 3.6-2.9 4.3-2.7.6.2 2.7-.2 4.6-.9 1.9-.7 6.1-1.5 9.4-1.8 6.9-.6 8.8-2 12.2-9.3 2.3-4.9 2.8-5.3 5.9-5.3 1.9 0 3.6-.4 3.9-.9.3-.4 1.9-1.1 3.6-1.4 1.7-.4 3-1.3 3-2.1 0-.9 1.3-2.2 2.9-3.1 3.2-1.6 5.6-7 4.5-9.9-.4-.9 0-2.4.8-3.4.9-.9 1.8-2.9 2.1-4.3.4-1.4 1.6-3 2.8-3.5 2.2-1 4.9-7.1 4.9-11.2 0-1.2.4-2.2.9-2.2.4 0 .6-1.1.3-2.5-.2-1.4 0-3.1.5-3.8.6-.6 1.6-4 2.4-7.4.9-4.3 1.9-6.5 3.1-6.8.9-.4 2-1.5 2.3-2.6.4-1 1.1-1.9 1.6-1.9.6 0 .5-.8-.1-2.1-.7-1.1-.8-2.8-.4-3.7.9-2.1.5-6.1-.7-8.5-.8-1.4-.5-1.7 1.4-1.7 3.5 0 6-3.2 5.3-6.7-.4-1.5-.7-5.4-.7-8.5-.2-6.5 1.7-9.4 5.2-8.3 2 .7 2.1.5 1.5-2.1-2.5-10.2-1.3-21.4 2.1-21.4 1.5 0 1.3-1.5-1.2-7.6-1.3-3.1-1.2-3.2 1.4-3.7 1.6-.3 5.4-.3 8.6 0 4.7.5 5.9.3 6.7-1 .5-1 1.8-1.7 2.8-1.7 1.3 0 2-.7 2-2 0-2.9 4.4-7 7.4-7 1.4 0 2.8-.5 3.1-1 .3-.6 1.5-1 2.6-1 1.4 0 1.9-.7 1.9-2.5s.8-2.9 2.6-3.7c2.4-1.1 2.5-1.3.8-2.5-2.3-1.7-2.7-4.5-1-5.8 2.3-1.8-.6-8.1-6.2-13.6-2.8-2.7-6-6.9-7.2-9.4-1.2-2.5-2.8-4.5-3.5-4.5-.7 0-1.8-.7-2.5-1.5s-1.9-1.5-2.8-1.5c-.8 0-3.3-1.6-5.5-3.6s-4.2-3.2-4.6-2.6c-.3.5-2.1 1.3-4 1.7-2.6.5-3.2.4-2.9-.6.7-2-3.3-4.7-8-5.5-3.3-.5-4.6-1.3-6.2-4.1l-2.1-3.5 3.6 2.1c3.9 2.2 6.5 2.7 6.5 1.1 0-2.4-4.6-3.9-11.7-3.6-7 .3-7.3.2-7.3-1.9 0-2-2.7-5.5-4.4-5.5-1.2 0-11.6-9.3-11.6-10.3 0-.5.6-.4 1.4.2 1.2 1 1.5.6 2.1-1.9.4-1.6 1.1-3 1.7-3 .5 0 .1-1.6-1.1-3.6-2.2-3.7-2.8-7.4-1.1-7.4.6 0 1-.9 1-2 0-1.9-.6-2.8-6.1-9.4-3.4-4-6.7-10.7-6.2-12.4.3-.7-.4-1.2-1.5-1.2s-2.7-.3-3.6-.6c-1.1-.4-1.6-.1-1.6 1zm59 133.6c0 .5-.2 1-.4 1-.3 0-.8-.5-1.1-1-.3-.6-.1-1 .4-1 .6 0 1.1.4 1.1 1zm-300.5 21c.3.5.1 1-.4 1-.6 0-1.1-.5-1.1-1 0-.6.2-1 .4-1 .3 0 .8.4 1.1 1zm-497 139c.3.5.1 1-.4 1-.6 0-1.1-.5-1.1-1 0-.6.2-1 .4-1 .3 0 .8.4 1.1 1zm57.2 9.6c-.3.3-1.2.4-1.9.1-.8-.3-.5-.6.6-.6 1.1-.1 1.7.2 1.3.5zm-12.4 27.5c5.3 2.8 11.3 12.9 7.7 12.9-.5 0-1 1-1 2.2 0 2-.1 2-1.8.5-1-1-2.1-1.5-2.4-1.2-.2.3-.5-1.5-.5-4 0-2.4.4-4.2.9-3.9 2.3 1.5.3-1.5-2.9-4.3-3.9-3.3-3.9-4.2 0-2.2zm16.4 1.5c-.3.3-1.2.4-1.9.1-.8-.3-.5-.6.6-.6 1.1-.1 1.7.2 1.3.5zm-16.2 13.4c.3.5.1 1-.4 1-.6 0-1.1-.5-1.1-1 0-.6.2-1 .4-1 .3 0 .8.4 1.1 1zm635.2 46.2c-.3.7-.5.2-.5-1.2s.2-1.9.5-1.3c.2.7.2 1.9 0 2.5zm-163.7-.2c0 .5-.2 1-.4 1-.3 0-.8-.5-1.1-1-.3-.6-.1-1 .4-1 .6 0 1.1.4 1.1 1z"/><path d="M786.36 171.855c0 .9.6 1.2 1.5.9.8-.4 1.2-1 .9-1.5-.8-1.4-2.4-1-2.4.6zM825.96 197.855c.4.8 1.1 1.5 1.6 1.5.6 0 .5-.6-.2-1.5-.7-.8-1.4-1.5-1.6-1.5-.2 0-.1.7.2 1.5zM819.36 200.455c0 1.8 4 3.9 6.4 3.3 3.2-.8 3.4-3.2.4-3.8-3.1-.6-6.8-.3-6.8.5zM149.96 228.855c-.3.8-.1 1.5.4 1.5.6 0 1-.7 1-1.5s-.2-1.5-.4-1.5-.6.7-1 1.5zM873.46 236.255c-.7.5-1.1 1.3-.8 1.8.7 1.1-7 5-8.9 4.5-1.3-.3-2.7 2.5-1.9 3.8.3.5 1.2.7 2 .4 1.6-.6 9.5 6.9 9.5 8.9 0 2.3-1.7 3.8-3.4 3.1-1.4-.6-1.6-.2-1 2.1.6 2.5.5 2.7-1.6 2-1.9-.6-2.1-.4-1.6 1.3.4 1.1.2 3.2-.4 4.7-.8 2-.7 2.6.2 2.2.7-.2 2.7.2 4.5 1 4.3 1.7 7.8 1.7 9.3-.2 1.2-1.4 1.6-1.3 3.9.7 3.5 3.1 6.9 4.9 7.4 4 .2-.4.7-1.9 1.1-3.5.5-2 1.2-2.7 3.1-2.7 2.3 0 2.5-.4 2.5-4.4 0-4.6 1.5-6.1 4.7-4.9 1.1.4 1.4.3.9-.5-.4-.7-.2-1.2.3-1.2 1.9 0 1.2-2.7-1.6-5.6-2.7-2.8-4.1-7.4-2.3-7.4.4 0 .7-1.1.6-2.5-.1-2.8-1.3-3.1-5-1.4-2 .9-2.9.9-4.1-.1-2.3-1.9-2.9-.5-1.2 2.9 1.4 2.8 1.4 3.1-.1 3.1-1.9.1-5.4 2.4-4.7 3.1.2.3-1.1.3-3 .1-1.9-.2-3.5-.8-3.5-1.3s.5-.9 1-.9c1.7 0 1.1-3.5-1-5.8-1.2-1.2-2.5-2.2-3-2.2-.6 0-.5-.9.2-2 1.5-2.3 0-4.4-2.1-3.1zm6.6 23.3c-.3.7-.5.2-.5-1.2s.2-1.9.5-1.3c.2.7.2 1.9 0 2.5zM906.66 261.355c-1.1 1.6-1 2.1.6 3 3.3 1.7 4 1.2 2.8-2-1.3-3.5-1.8-3.7-3.4-1zM918.06 266.055c-.4.3-.7 1.1-.7 1.7 0 .6.5.5 1.2-.2.6-.6.9-1.4.7-1.7-.3-.3-.9-.2-1.2.2zM273.06 270.755c2.1 2.8 2.4 2.8 1.6-.2-.3-1.2-1.2-2.2-2-2.2-1.1 0-1 .5.4 2.4zM276.16 279.255c3.6 3.3 4.2 4.5 4.2 7.8 0 5.5 4.9 10.2 10.3 9.9 2-.2 4-.6 4.4-1 .9-.8-6.6-7.5-8.4-7.6-.8 0-1.3-1.3-1.3-3 0-2.4-.8-3.5-4.2-5.7-2.4-1.6-4.4-3.1-4.6-3.6-.2-.4-1.3-.7-2.5-.7-1.9 0-1.6.5 2.1 3.9zM78.86 320.055c.2.7-.1 1.3-.8 1.3-.8 0-.7.4.3.9 1.6 1.1 2.6.7 3.9-1.7.7-1.4.4-1.7-1.5-1.7-1.5 0-2.2.5-1.9 1.2zM866.46 380.055c-.1 2.7-2.8 3.4-5.8 1.5-1.4-.8-2.3-1-2.3-.4s-.7 1.8-1.5 2.6c-1.9 1.8-.8 4.5 3.4 8.8 1.4 1.4 3.2 3.3 3.9 4.3.8.9 2.1 1.5 3 1.3 1.7-.4 1.7-1 .5-7.1-.3-1.5-.1-2.7.5-2.7 1 0 1-3.1-.1-6-.3-.8-.8-2.2-1-3-.4-1-.6-.7-.6.7zM870.36 404.755c0 .2.7.7 1.6 1 .8.3 1.2.2.9-.4-.6-1-2.5-1.4-2.5-.6zM874.46 407.255c-1.2.8-.8 1.5 1.8 4 1.8 1.7 3.7 3.1 4.2 3.1s.9.5.9 1.1c0 .5-.5.7-1.1.3-1.2-.7-2.9 1.2-2.9 3.4 0 .7.8 1.2 1.8 1 2.1-.4 1.8 3.1-.4 4.8-.8.6-1.4 1.7-1.4 2.4 0 .8-.8 1-2.4.6-1.6-.4-2.6-.1-3 .9-.3.8-.1 1.5.5 1.5s.7.5.4 1c-.4.6-1.4.8-2.3.6-2.1-.7-4.7.8-3.8 2.2 1.5 2.4-3 2.1-6.7-.5-4.5-3.3-9.3-5.9-12.3-6.7-1.7-.5-2.2-.3-2 1 .1 1.1-1.3 2.1-4.4 3-2.5.8-5 1.2-5.7.9-.6-.2-1.3.1-1.5.7-.2.6-2.3 1.1-4.6 1.2-3 0-4.6-.5-6.2-2.1-1.6-1.8-10-6.3-11.7-6.3-.3 0-.2 1.1.1 2.4.4 1.6-.1 3.2-1.4 4.9-1.1 1.4-2 3-2 3.7 0 .7-.8.9-1.9.5-1.1-.3-2.2-.1-2.6.4-.4.7-1.4.7-3.1.1-1.6-.6-4-.6-6.7 0-2.4.5-5.3.7-6.6.3-1.6-.4-2.7 0-3.7 1.6-.8 1.1-2.1 2.1-2.8 2.1-.8 0-1.6.9-1.9 2.1-.4 1.6-1.1 1.9-2.6 1.4-1.6-.5-2.1-.2-2.1 1.1 0 .9-.6 2.2-1.3 2.8-1 .8-1.2 3.3-.7 10.3.5 7.6 1 9.6 2.8 11.6 1.2 1.3 2.2 2.9 2.2 3.5 0 .7.5 1.2 1 1.2.6 0 1 3 1 7 0 7.2-.3 7.7-4.7 7.1-.8-.1-1.3 1-1.3 3 0 3 .2 3.1 2.9 2.6 1.6-.4 3.1-.2 3.3.3.3.9 10.7-3.8 13.5-6.1.9-.9 1.7-.8 2.7 0 1.1.9 1.5.9 1.8-.1.7-2 4 1.1 3.4 3.1-.8 2.5.9 8.6 2.3 8.3.6-.1 1.4.5 1.7 1.3.4.8 1.2 1.5 2 1.5 1.3 0 3.4 5.7 3.4 9.3 0 1-.7 2-1.5 2.3-2.1.8-1.9 3.2.5 4.6 1.4.9 2 2.4 2 5 0 4 3 7.8 6.1 7.8 2.6 0 3 1.3 1.5 4.2-1.3 2.4-1.1 2.9 2.8 7.2 3.6 3.9 4.6 4.5 7.1 4 1.6-.3 3.2-.9 3.5-1.3 1.1-1.8 7.1-2.3 8.8-.8 1.6 1.5 1.9 1.2 3.6-2.9 1.5-3.7 2.2-4.4 4.5-4.4 1.5 0 3.2.5 3.8 1.1 1.6 1.6 4.5-1.3 3.7-3.8-.4-1.3.1-1.1 1.8.8 3.2 3.5 7.6 6.1 9 5.3.7-.4 2.3-1.7 3.6-2.8 1.3-1.2 3.3-2.3 4.5-2.6 1.2-.3 2.8-1.8 3.5-3.3.7-1.5 2.2-2.8 3.3-2.8 3.4-.2 3.7-.4 5.6-2.5 1.4-1.6 2.6-2 5.7-1.6 3.6.4 3.9.3 3.3-1.7-.3-1.1-.1-2.1.4-2.1s.9-.9.9-2 .5-2 1-2c.6 0 1-.9 1-2.1 0-1.7-.4-2-2.4-1.5-1.6.4-2.9 0-4.1-1.4-1-1.1-1.4-2-.9-2 .5 0 .9-1.1.9-2.4 0-2-.3-2.2-1.8-1.5-1.3.7-1.9.6-2.3-.6-.5-1.1-1.7-1.5-4-1.3-1.8.1-3.6-.1-4.1-.5-1.1-1.1-1.4-7.9-.3-7.2.5.3 1.2 0 1.5-.6.9-1.4 10.4-.2 12.5 1.6 1.6 1.4 8 .9 8-.6 0-.5.9-.9 1.9-.9 1.4 0 1.8.5 1.4 2-.5 1.7 0 2 2.7 2 2.3 0 4 .9 6.2 3.2 1.7 1.8 2.6 3.4 2 3.6-.5.1-.7 1.3-.5 2.7.5 2.2 1.8 3 7.6 4.9.9.3 1.7 1.5 1.7 2.6s.6 2 1.4 2c.7 0 2.5.9 3.9 2 2.2 1.7 2.6 1.8 3.7.5 1.5-1.8 4.3-1.8 9.2-.1 3.2 1.2 3.8 1.1 4.3-.2.4-1.2 1.1-1 3.5 1.3 1.7 1.6 3 3.7 3 4.6 0 1 .5 2.1 1.1 2.5.7.4.9 2.1.6 4-.3 1.9-.1 3.6.5 4 .7.5.6 1.1-.4 1.8-.8.6-1.7 2.1-2 3.3-.5 1.8-.2 2.3 1.4 2.3 1.4 0 1.8-.5 1.3-1.9-.4-1.4.2-2.1 2.4-3.1 1.7-.7 3.3-2 3.6-3 .3-.9 1.7-2.2 3-2.8 1.4-.6 2.5-1.7 2.6-2.4 0-.7.2-4.3.4-8.1.3-3.7.1-6.7-.4-6.7s-.8-1.6-.7-3.5c.1-3.1-.1-3.5-2.3-3.5-2.6 0-10.1-4.6-10.1-6.2 0-1.8-4.6-3.1-6.9-1.9-1.7 1-2.1.9-2.1-.3 0-.9-1.1-1.8-2.5-2.2-1.4-.3-3.1-1.4-3.8-2.3-.6-.9-2-2.3-3-3-1.7-1.4-1.8-1.3-1.5.5.3 2.1-3 3.1-6 1.8-3.4-1.4-4.2-1.2-4.2 1.1 0 2.1-.3 2.3-3 1.5-2.4-.7-3-.6-3 .7 0 1-.5 1.3-1.7.8-1-.4-3-.8-4.4-.9-1.5-.1-4.3-1.6-6.3-3.4-2-1.7-4.8-3.5-6.1-3.8-1.4-.3-2.5-1.3-2.5-2.2 0-.9-1-2.6-2.1-3.8-1.9-2-2.1-3-1.4-7.9.5-4.4.9-5.4 2-4.5.7.6 2.1.7 3.1.3 1.8-.6 1.8-.6 0 1.5-2.2 2.5-2.1 2.8 1.4 3.6 3.1.8 4.5-.2 5.4-3.7.5-2 .3-2.7-.9-2.7-.8 0-1.5.5-1.5 1 0 .6-2-.1-4.3-1.5-5-2.9-6.2-3-10-1-2.9 1.5-5.7 1.1-5.7-.8 0-.6-.7-1.9-1.7-2.9-1.2-1.4-1.4-2.3-.6-4 1.1-2.4 0-5-3.9-9.3-1.7-2-1.7-2.2.7-5.7 1.6-2.4 2.1-3.8 1.4-4.5-.8-.8-.7-1.3 0-1.7.5-.4.8-1.3.4-2.1-.4-1.1-.1-1.3 1.1-.9 1 .4 1.6.1 1.6-.9 0-.8 1.2-1.8 2.6-2.1 2.2-.6 2.5-1.1 2-3.2-.6-2.4-.4-2.5 2.6-2.4 5.5.4 9.7-1.1 12.4-4.3 1.9-2.3 3.4-3 6.2-3.1 3.5 0 3.8-.3 3.4-2.7-.5-3.3-4.4-5.4-7.2-3.9-1.4.7-2.1.7-2.7-.3-.9-1.6-8-3-8.8-1.8-1.7 2.9-10.5 1.1-11.9-2.4-.3-.9-1.3-1.5-2.3-1.3-1.1.2-1.9-.7-2.5-3-.9-3.4-1.4-3.7-3.7-2.3zm-53.6 24.1c.3.5.1 1-.4 1-.6 0-1.1-.5-1.1-1 0-.6.2-1 .4-1 .3 0 .8.4 1.1 1zM15.76 432.855c.6 1.6-2.7 3.9-4.6 3.3-.6-.2-2.4.7-3.9 2.1l-2.8 2.6 2 6c1.1 3.3 1.7 6.5 1.5 7.1-.2.6 1.2.3 3.4-.7 2.2-1.1 4.5-1.9 5.2-1.9 1.9 0 4.7-6.5 3.7-8.2-1.6-2.4-1-4.1 1.1-3.5 1.1.3 2 .3 2 .1 0-.7-4.4-6.8-5.5-7.6-1.7-1.3-2.7-.9-2.1.7zM5.36 451.355c0 .5.5 1 1.1 1 .5 0 .7-.5.4-1-.3-.6-.8-1-1.1-1-.2 0-.4.4-.4 1zM1.56 454.755c-2.2 1.2-2 2.6.4 2.6 1.1 0 2.9-2.9 2.2-3.6-.2-.1-1.3.3-2.6 1zM748.06 498.455c-.9 2.2-2.2 3.9-3.1 3.9-.9 0-1.6.7-1.6 1.5 0 1.9-1.3 1.9-5.2-.1-2.4-1.3-3.6-1.4-4.9-.5-2.2 1.3-4.6.5-5.4-1.9-.3-1-1.2-2.4-2.1-3.1-1.3-1-1.3-.8-.4 1.5.9 2.5.8 2.7-.9 2.1-1.5-.5-1.8-.2-1.4 1.3.4 1.6-.8 2.4-6.4 4.8-3.7 1.6-7.1 2.9-7.5 2.9-1.8 0-1.9 1.7-.2 2.9 1.5 1.2 1.7 1.8.8 3.4-1.5 2.4-.2 4.8 3.1 5.6 1.4.4 2.5 1.1 2.5 1.7 0 .6.5.7 1.2.3.6-.4.8-.3.4.4-.3.6-.2 1.3.4 1.7 1.6 1 1.2 2.3-1.1 3-2.4.8-1.8 1.8 1.1 2 1.1.1 2-.4 2-1.1 0-1 .7-1.1 3.1-.2 2.6.9 3.3.7 5.3-1.1 2.7-2.5 4.9-2.7 7.1-.5 1.2 1.3 1.9 1.3 3 .4.8-.6 1.9-.9 2.5-.5 1.5.9 5-2.9 5-5.4 0-1.1.5-2.3 1-2.6.6-.3 1-1.5 1-2.6 0-1.6.3-1.8 1.9-1 2.5 1.4 4.5-.9 3.6-4-.6-1.9-.4-2.1 1.8-1.5 2 .5 2.7.2 3.2-1.4.5-1.5 1.2-1.9 2.5-1.5 1 .3 2.1.1 2.4-.4.4-.6 1.3-.8 2.1-.4 1.1.4 1.3.1.9-1-.7-1.8 4.8-7.7 7.1-7.7 1.7 0 2-1.6.4-2.5-.6-.4-1.7.2-2.5 1.4-1.8 2.5-5.9 2.8-6.8.5-.3-.9-1.2-1.4-2-1.1-.8.3-2.2 0-3.2-.7-1.1-.7-3.5-1.6-5.5-1.9-3.5-.5-3.7-.4-5.2 3.4zM661.86 524.355c.3.5.8 1 1.1 1 .2 0 .4-.5.4-1 0-.6-.5-1-1.1-1-.5 0-.7.4-.4 1zM952.46 550.455c-1.2 1.1-2.1 1.7-2.1 1.4 0-.3-1.1.6-2.5 2.1-1.7 1.8-2.3 3.4-1.9 4.7.4 1.3.2 1.7-.5 1.3-.6-.4-.9-.1-.7.6.3.7.7 2.5 1 4 .4 1.9 1.1 2.6 2.1 2.2.9-.4 2.3.4 3.5 1.7l2 2.4 1.9-2.5c1.1-1.4 2.3-2.1 2.7-1.7 1.3 1.2 3.2-1.3 2.6-3.5-.3-1.3-.1-1.9.5-1.5.8.5.8-.5.2-3-.4-2.1-1.2-3.9-1.7-4.1-.6-.2-.8-1.1-.5-2.1.9-3.5-3.6-4.8-6.6-2zM838.86 550.355c.4.6 1.1.8 1.6.5 1.4-.9 1.1-1.5-.7-1.5-.8 0-1.2.5-.9 1zM509.96 591.755c.3.7-.8 2.4-2.4 3.8-3 2.5-3.1 5.9-.1 6.4.8.1 2.2.5 3.2.9 1.2.5 1.7.2 1.7-.9 0-2.2 2.4-3 4.8-1.7 1.6.8 2.5.6 4.6-1.4 2.6-2.4 2.6-3.2.3-6.3-.7-.9-1.3-.9-2.3-.1-.9.7-1.9.7-3.3-.1-1.2-.6-2.1-.8-2.1-.6 0 .3-1.1.1-2.5-.4-1.8-.7-2.3-.6-1.9.4zM486.66 593.155c0 2.8 1.4 3.8 5.1 3.4 3.5-.4 3.5-.4 1.9-2.9-1.1-1.6-1.8-2-2.3-1.3-.5.9-1.3.9-2.7.2-1.6-.9-2-.8-2 .6zM486.76 599.455c-.3.6-1.7.8-3 .5-1.9-.5-2.4-.2-2.4 1.4 0 1.1-.7 2-1.5 2-1 0-1.5 1-1.5 2.8 0 3.7 2.5 3.8 5.2.1 1.1-1.5 2.7-2.5 3.4-2.2 1 .3 1.3-.4 1.1-2.6-.2-3.4-.3-3.6-1.3-2zM472.36 610.355c1.3 2.3 2.3 2.5 3.9.7 1.4-1.7.4-2.7-2.6-2.7-2.1 0-2.2.3-1.3 2zM477.36 613.355c0 .5.7 1 1.5 1s1.5-.5 1.5-1c0-.6-.7-1-1.5-1s-1.5.4-1.5 1zM303.36 654.755c0 .2.7.7 1.6 1 .8.3 1.2.2.9-.4-.6-1-2.5-1.4-2.5-.6zM246.86 685.355c-.3.5.3 1 1.4 1 1.1 0 2.3-.5 2.6-1 .3-.6-.3-1-1.4-1-1.1 0-2.3.4-2.6 1zM236.56 693.355c-1.8 2.9-5.3 4-9.6 3-2-.4-3.3-.4-3.1.1.3.5-.6 1.1-2 1.5-1.3.3-2.2 1-1.9 1.6.3.5-.1 2-1 3.3-1.1 1.6-1.2 2.6-.5 3.1.8.4.8.9 0 1.7-1.6 1.6-1.4 4.7.3 4.7.8 0 1.7-.9 2.1-1.9.3-1.1 1.8-2.7 3.2-3.6 3-2 12.2-4.7 13.5-3.9.4.3.8-.4.8-1.4 0-1.1.7-3.6 1.5-5.5 1.9-4.6 1.9-4.7-.3-4.7-.9 0-2.3.9-3 2zM206.36 715.955c-1 2.6-.1 4.3 2.2 4.4.3 0 1.1 1.3 1.7 3 .5 1.6 1.5 3 2.2 3 .6 0 .9-.7.5-1.5-.4-1 .1-1.5 1.5-1.5 1.5 0 1.9-.5 1.5-1.6-1.7-4.5-1.8-6.4-.2-6.4.9 0 1.6-.5 1.6-1 0-.9-4.7-.4-5.9.6-.2.2-1.2-.1-2.2-.7-1.6-.8-2.1-.5-2.9 1.7zM200.36 725.255c0 .6.5 1.3 1 1.6.6.3 1-.1 1-.9 0-.9-.4-1.6-1-1.6-.5 0-1 .4-1 .9zM200.96 732.255c-1.7 1.8-1.7 1.9.3 2.6 1.2.3 2.1 1.3 2.1 2.1s.7 1.4 1.5 1.4c1.8 0 1.9-1.1.3-2.9-1-1.1-1-1.3 0-.7 1.9 1.1 1.4-.9-.6-2.8-1.8-1.5-2-1.5-3.6.3zM196.36 735.755c0 .2.9.6 2 .9 1.1.3 2 .1 2-.4s-.9-.9-2-.9-2 .2-2 .4z"/></g></svg>