<svg version="1" xmlns="http://www.w3.org/2000/svg" width="952.899" height="539.695" viewBox="0 0 714.674 404.771"><g fill="#222"><path d="M104.274.437c-2.2.5-4.1 1.1-4.3 1.3-.7.7 1 3.6 2.1 3.6 1.7.1 7.3 5.5 9 8.9 1.2 2.1 1.3 3.7.7 5.4-.6 1.6-.6 2.8.1 3.5.8.8.6 1.6-.7 2.8-1 1-1.5 2.7-1.2 4.1.3 1.7 0 2.3-1.4 2.3-1.5 0-1.7.7-1.3 6.1.2 3.4.9 6.9 1.4 7.9.8 1.5.6 2-.9 2.5-2.3.7-3.5 3.5-2.1 4.9 1.6 1.6 1.2 2.1-2 2.3-6.5.5-8 .8-8 1.5 0 .5-1 .8-2.3.8-1.3 0-3.4 1.1-4.6 2.4-1.3 1.4-3 2.2-3.8 1.9-.8-.3-1.9 0-2.3.7-.4.7-2.1 1.3-3.8 1.4-3.4.1-3.3 1.6.2 1.6 1.7 0 2.8 1.2 4.7 5 2.2 4.5 2.6 4.9 5.5 4.5 2.5-.3 3.8.3 5.9 2.6 1.6 1.6 2.5 3.2 2 3.6-.4.5-1 .2-1.2-.5-.3-.6-.9-1.2-1.4-1.2-.6 0-.7.5-.3 1.2.5.8.2.9-.9.5-.9-.3-1.9-.2-2.2.3-.7 1.2-2.6 1.3-2.3.2.2-.4-.5-1.8-1.6-3.2-1.7-2.4-1.8-2.4-1.1-.3.7 2.5-.9 3.2-2.2.9-1.6-2.6-5-3.7-7.7-2.4-1.4.6-2.6 1.5-2.6 1.9 0 .9 5.6 5 6.1 4.4.2-.2 1.5.4 2.8 1.4l2.4 1.8-3.9 3.6c-2.1 2-4.9 3.7-6.1 3.7-2.5 0-2.3 1.8.9 5.9l1.8 2.3 1-2.6c1.2-3.1 1.4-3.2 3.9-.5 1.9 2.1 2.1 2.1 5.4.5 3-1.3 4.7-3.3 4.7-5.2 0-.3-1-.9-2.2-1.4-2.3-.9-2.3-.9.3-.9 1.4-.1 3 .4 3.7 1.1.9.9 1.2.7 1.2-.9 0-2.5 1.5-3.9 2.5-2.3.4.6 1.1.8 1.6.5.5-.4.3-1.3-.6-2.1-.8-.9-1.5-1.9-1.5-2.3 0-1.6 3.9-.6 5.4 1.4 1.2 1.6 1.7 1.7 2.4.7.7-1.1 1.2-1 2.6.3 1.8 1.9 2.1 5.1.5 6.1-.6.3-1.5 0-2-.7-.6-.9-.9-.2-.9 2.4 0 3.1-.4 3.9-2.6 4.7-2.2.9-2.5 1.4-1.9 3.8.9 3.8 2.1 4.9 6.1 5.7 3.3.6 3.5.8 2.9 3.5-.5 2.1-.1 3.3 1.6 4.9 2 1.8 2.1 2.4 1 4.5-.8 1.3-1 2.9-.7 3.5.4.7-.1 1.1-1.3 1.1-2.3 0-3.2 2.9-1.6 5 .6.8 1.7 3.5 2.4 5.9.7 2.3 3.2 6.7 5.7 9.7 4.7 5.9 5 6.4 3.4 8-.8.8.5 1.8 4.2 3.4 2.9 1.3 5.9 2.2 6.5 2.1 2.5-.4 5.2 2 5.8 5.1.4 1.8 1.2 3.8 1.7 4.5.5.7.7 1.7.4 2.2-.4.6.3 1.5 1.4 2.1 2.6 1.4 2.6 3.4-.1 2.7-1.6-.4-1.9-.2-1.5 1 .4.9.1 2.2-.5 3-1.5 1.8.4 6.5 2.5 6.1.8-.2 1.6.1 1.8.7.2.5-.7 1.1-1.9 1.3-1.4.2-2.3-.3-2.7-1.6-.8-2.5-5.4-3.8-7-1.9-.6.7-2.8 2.4-4.8 3.8-2.7 1.7-3.6 2.9-3.2 4.1.3 1.2 0 1.8-1 1.8-1.7 0-6.6 4.5-6.6 6 0 .6-.3.9-.7.8-.5 0-2.5.7-4.6 1.6-2.9 1.3-4.2 1.4-5.2.6-1-.8-1.9-.8-3.5.2-1.8 1.1-2.3 1.1-3.2-.6-1-1.7-1.2-1.6-2.4 1.3-1.6 3.8-4 4-8.9.8-2.3-1.4-3.5-3-3.5-4.5 0-1.2-.6-2.2-1.2-2.3-.7-.1-2-.2-2.9-.3-1 0-3.1-1.3-4.8-2.9-2.7-2.4-3-3-2-4.9.9-1.6.8-2.2-.2-2.9-2.1-1.3-2.4 3.7-.4 6.7.8 1.3 1.5 3.9 1.4 5.7-.1 1.7.5 4.7 1.4 6.6 1.4 3.2 1.8 3.5 6.7 3.8 6.8.4 13.4 3.9 13.8 7.3.2 1.4.8 2.9 1.3 3.4.5.6.9 1.6.9 2.3 0 1-.5 1.1-1.9.3-2.8-1.5-3.3-1.3-2.2.9 1.5 2.8-1.1 3.4-6.2 1.5-6.8-2.5-7.7-2.7-7.7-1.6 0 2.2 1.2 4 2.4 3.6 1.6-.6 7.8 4.4 7.1 5.6-.3.5-1.2.7-2 .4-.9-.4-1.3.1-1.2 1.4.1 1.7.5 1.8 3.4.9 2.2-.7 3.3-1.7 3.3-2.9 0-2.2.8-2.3 5-.1 1.8.9 4.8 1.8 6.7 2 3.3.3 3.8-.2 3.3-3.6-.1-1.2.1-1.3 1.3-.3 1.6 1.3 4.3 1.2 6.7-.3.8-.6 2.4-1.5 3.5-2 1-.6 2.2-2.1 2.5-3.5.5-1.9 1.2-2.4 3.1-2.2 3.1.3 6.5-4.9 6-9.1-.2-2.5 0-2.8 1.8-2.2 1.4.4 2.1.2 2.1-.6 0-.7 1.2-2.6 2.7-4.2l2.8-2.8-2.3-1.7c-1.8-1.4-2.1-2.3-1.4-4.1.7-2 .9-2.1 2.1-.7.8.9 2.1 1.6 3 1.6 1.4-.1 1.4-.2-.1-1.1-2.1-1.2-2.5-5.4-.5-4.6.7.3 2.2-.2 3.2-1 1.9-1.5 1.9-1.5-.7-.9-1.6.4-2.8.2-2.8-.3 0-1.3 2.6-3.2 3.3-2.4.4.3.7-.1.7-1 0-1 .8-1.7 2-1.7 1.1 0 2-.5 2-1 0-1.3 4.7-1.3 5.4-.1.4.5-.4 2.2-1.7 3.8-1.3 1.5-2.9 4.8-3.6 7.1-1 3.6-1.6 4.3-3.2 3.9-1-.3-1.9-.1-1.9.4s-.7.9-1.5.9-1.5.5-1.5 1.1c0 .5.5.7 1 .4 1.2-.7 4.9 3.3 5 5.3 0 .7-.7 2-1.5 2.8-.8.9-1.5 2.1-1.5 2.7 0 .7.9.1 2-1.3l2-2.5 3 3.5c1.6 1.9 3 4 3 4.6 0 .7.6 1.4 1.3 1.7.7.2 1.8 2.5 2.4 5 1 3.6 2 5 4.5 6.3 1.8.9 4.1 2.3 5.1 3.2 1 .9 1.7 1.1 1.7.4 0-1.5 6.1-3.1 9.3-2.5 1.9.4 2.7 0 3.2-1.6.3-1.2 1.5-2.1 2.6-2.1 1 0 1.9-.5 1.9-1 0-1.8 2.9-1 3.5 1 .4 1.1 1 1.8 1.5 1.5 1.2-.8 5 8.1 5 11.8v3l5.3-4.9c2.8-2.7 5.4-5.6 5.6-6.4.2-.8.7-2 1.2-2.5.4-.6.4-1.7 0-2.4-1.7-2.7 1.1-7 6.1-9.1 4.1-1.8 4.8-2.5 4.8-4.9 0-2.3.5-3 2.8-3.4 1.5-.3 4-1 5.5-1.6l2.8-1.1-2-2.9c-2.5-3.5-2.5-3.8-.6-5.8 1.4-1.4 1.4-1.7 0-3.2-1.6-1.9-2.1-3.6-.6-2.7 1.4.9 5.2-3.9 4.5-5.7-.8-2.1 0-2.1 3.1-.1 2.4 1.6 6.5 1.2 6.5-.7 0-1.6 8.6-1 10 .6.7.9 1.5 1.3 1.8 1 .3-.3 1.4.2 2.4 1.2 1.7 1.5 1.8 1.5 1.8 0 0-1 .8-1.7 2-1.7 1.1 0 2-.5 2-1 0-.6.6-1 1.3-1.1.6 0 2.3-1.4 3.6-3 2.2-2.8 2.3-3.3 1.1-7-1-3-1.1-4.2-.2-5.1.7-.7 1.2-2 1.2-2.9 0-1 1.4-2.6 3-3.6 3.3-1.9 6-6.3 6-9.5 0-1.5.5-1.8 2-1.3 1.1.4 2 .2 2-.4 0-.6.7-1.1 1.7-1.1 1.4 0 1.5-.2.1-1.8-2.2-2.4-2.9-5.4-1.8-7.1.5-.9.5-2.2-.1-3.3-.5-1-.6-1.7-.2-1.6 1.3.3 5.6-1.4 7-2.8.7-.7 1.3-2.3 1.3-3.6 0-1.9-.6-2.3-3.1-2.4-2.9-.1-9.9-5.4-7.1-5.4.6 0 1.2-.5 1.2-1.2 0-1.9-3.1-4.7-4.5-4.2-.7.3-2.3-.8-3.6-2.5-1.2-1.7-2.6-2.8-3-2.5-.4.2-1 0-1.4-.6-1-1.6-2.3-1.2-3 .9-.6 1.9-1.1 2-6.9 1.2-.5 0-.3-.8.4-1.6 1-1.3 1-1.9-.4-3.4-1.5-1.7-1.5-2.2-.2-6.1.8-2.3 1.2-4.8 1-5.4-.7-1.8-6.2-3.8-8.5-3.1-1.9.6-2.1.4-1.5-1.9.5-2.1.1-2.8-2.5-4.1-3.7-2-3.5-2.3 1.5-2.7 2.1-.1 4.1-.8 4.3-1.6.3-.7 1.2-1.1 1.9-.8 1.9.7 1.9-4.8-.1-6.4-1.1-.9-1.2-1.7-.5-3.1.6-1 .8-3 .4-4.4-.4-1.7-.2-2.7.9-3.1.9-.3 1.3-1.3 1-2.5-.6-2.1 0-2.3 2.5-1 .9.4 2.9 1.1 4.4 1.5 2.1.5 2.6.3 2.2-.8-.4-1 .2-1.2 2.1-.9 2.4.5 2.5.4 1.5-2.3-1.3-3.3-.7-5.4 1.5-5.4.9 0 1.3-.5 1-1-1-1.7-4.5-1.2-3.9.5.5 1.3 0 1.5-2.9 1.1-1.9-.2-4.7-1.2-6.1-2.1-1.4-.9-4-1.8-5.8-1.9-1.8-.2-4.1-.4-5-.5-1 0-1.8-.8-1.8-1.6 0-.9-1.7-2.3-3.7-3.2-2.1-1-5-2.8-6.5-4.2-1.6-1.4-2.8-2-2.8-1.4 0 .6-.9.9-2 .6-1.3-.4-2 0-2 .9 0 2.2-5.7 1.1-6.3-1.3-.3-1-1.4-1.9-2.4-1.9s-2.5-.6-3.2-1.3c-1-1-1.4-.9-2.2.5-1.4 2.4-5.6 2.3-6.9-.2-.6-1.1-1-3.7-.8-5.8.3-3.4.1-3.7-2.2-3.4-1.4.2-3.9 1.1-5.7 1.9-3.1 1.5-7.3 1-7.3-.8 0-1.3-3.4-1.1-4.7.2-.7.7-1.7.8-2.9.2-1.2-.6-3.6-.6-6.2-.1-4.3.9-4.4 1-3.8 4.4.4 2.1.3 3.4-.4 3.4-.5 0-1 .7-1 1.5 0 1.8-2.1 2-3.7.4-.9-.9-1.2-.7-1 1 .1 1.1.5 2.1 1 2.1s.2.7-.7 1.5c-.8.8-2.1 1.5-2.9 1.5-.8 0-1.7-.7-2.1-1.5-.3-.8-1-1.5-1.6-1.5-.6 0-.8.4-.5 1 .9 1.4-.8 1.3-2.3-.2-.9-.9-1.2-.9-1.2 0 0 .7-.4 1.2-1 1.2-.5 0-1-1.1-1-2.5s.6-2.5 1.4-2.5c.9 0 1.2-.8.8-2.5-.5-2.7.7-3.2 3.9-1.5 1.9 1 1.9.9.6-2.2-.7-1.8-2.2-3.5-3.3-3.7-3.4-.6-4.5-2.2-3.9-5.5.4-1.9.3-2.6-.3-1.8-1.3 1.9-3.9.4-4.7-2.6-.8-3.3-8.4-11.2-10-10.5-.7.2-2.4-1-3.8-2.6-1.4-1.7-3.3-3.1-4.3-3.1-1.3 0-1.1.6 1.1 2.6 3.4 3.1 4.4 9 1.3 7.3-1.3-.7-1.8-.6-1.8.3 0 .9-.3.9-1-.2-.5-.8-1-1.1-1-.6 0 .5-.7.3-1.5-.4-.9-.7-1.4-1.9-1.1-2.6.3-.7-.6-2.2-1.9-3.3-1.4-1-2.5-2.5-2.5-3.3 0-2.2-6.6-8.2-7.5-6.8-.5.7-1 .8-1.4.3-1-1.6-5.3-2.1-9.5-1.2zm11.7 81.7c.9.2 1.7-.3 1.7-1 0-.8.5-.7 1.6.4 2.4 2.4.2 6.2-3.2 5.4-1.7-.5-2.4-.2-2.4.8 0 .8-.7 1.6-1.5 2-2.1.8-1.9-.8.5-2.9 1.4-1.3 1.7-2.2 1-2.9-.5-.5-1-1.7-1-2.6 0-.9.3-1.1.8-.5.4.5 1.5 1.1 2.5 1.3z"/><path d="M160.874 44.237c.2.7.7 1.2 1.1 1.2 1.2-.1.9-1.5-.3-2-.7-.2-1.1.2-.8.8zM5.774 47.637c-.1 1.1-.5 1.5-1.3 1.1-.8-.5-.9-.2-.5.9.7 1.9-1.3 2.3-3 .6-.8-.8-1.1-.4-1 1.4.1 1.4.5 2.3 1 2 .4-.2.7.3.7 1.1 0 1.9 2.1 2.1 3.9.3 1.1-1 1.3-.6.8 2-.8 3.8 1.2 4.7 5.8 2.5l2.9-1.5-2.9-2.3c-2.4-1.9-2.7-2.5-1.6-3.8 1.2-1.4 1.1-1.6-.6-1.6-1.1 0-2.5-1-3.1-2.3-.9-1.8-1.1-1.9-1.1-.4zM60.674 51.837c-1 1.2-1 1.8-.1 2.9 1.5 1.8-.1 3-2.9 2.1-1.6-.5-2-.2-2 1.7.1 6.2 2 8.1 5.9 5.6 1.1-.6 2.6-.8 3.7-.3 3.2 1.3 5.6 1.2 6.1-.2.3-.8 1.2-1.2 1.9-.9.9.3 1.4-.2 1.4-1.4 0-1.1-.4-2-.9-2s-1.1-1-1.4-2.2c-.4-1.2-.9-1.9-1.3-1.5-.9.9-6-1.9-6.7-3.8-.8-1.9-2.1-1.9-3.7 0zM28.674 52.137c0 .3.7 1.4 1.6 2.3 1.6 1.7 1.5 1.9-1 2.8-1.4.6-2.6 1.5-2.6 2 0 1.8 3.5 1.6 5.3-.2 1.6-1.6 1.7-2.3.7-4.6-.6-1.5-1.8-2.8-2.6-2.8-.7 0-1.4.3-1.4.5zM39.674 53.937c-1.1 1.2-1.1 1.8.2 3.1 2 2 3.8.9 3.8-2.3 0-2.7-2.1-3.2-4-.8zM50.274 53.837c-.3.8-1.6 1.9-3 2.5-1.8.7-2.3 1.4-1.9 2.9.4 1.6.1 2.1-1.5 2.1-1.1 0-2.3.7-2.6 1.6-.4.9-.5 1.7-.4 1.8.2.1 1.2.6 2.3 1.2 2.9 1.6 4.7.7 3.4-1.7-1.3-2.5-.4-3.9 2.5-3.9 1.2 0 3-.6 4-1.3 1.5-1.1 1.6-1.7.5-4-1.4-3-2.4-3.4-3.3-1.2zM74.374 55.937c-.9 1 .4 3.4 1.9 3.4 1.6 0 1.6-.2.8-2.4-.6-1.7-1.6-2-2.7-1zM23.174 60.437c-.4.6-.5 1.2-.2 1.5.2.3.7-.2 1-1.1.7-1.7.1-2-.8-.4zM74.474 108.737c-1 .7-1.8 1.7-1.8 2.3 0 .5-.5 1.4-1.2 2.1-2 2-3.6 8-2.5 9.1 1.3 1.3 1.8 7.1.6 7.1-.5 0-.8.3-.7.7.5 1.6-3.4 6.2-4.8 5.6-.8-.3-1.4 0-1.4.6 0 .7-2.2 1.1-5.7 1.1-3.1 0-5.3.3-4.9.7.4.4 1.5.8 2.3.8.9 0 1.7.7 1.9 1.5.1.8.5 2.3.9 3.2.5 1.2.1 2-1.1 2.4-1.1.4-2.7 1.4-3.7 2.3-1.7 1.4-2 1.4-2.9-.3-.6-1-1.9-2.7-2.9-3.7-1.1-1.1-1.9-2.5-1.9-3.2-.1-2.4-2.6-5.8-5.4-7.2-3.2-1.7-7.6-2-7.6-.5 0 .5-.7.7-1.5.4-.8-.4-2.1-.1-2.9.5-.7.6-1.6.8-1.9.5-.4-.4-2.4-.8-4.6-.9l-3.9-.2 1 2.9c.8 2.4 1.5 2.8 3.2 2.4 1.1-.3 2.4-.6 2.9-.6.4 0 .7-.7.7-1.6 0-1.3.4-1.3 3 .3 2.4 1.4 3 2.3 2.5 4-.3 1.2 0 2.5.6 2.8.6.4.8 1.3.5 2.1-.3.8.4 2.3 1.6 3.4l2.2 2 2.3-2.1 2.2-2.2 1 2.7c1.1 2.7 3 3.6 3.2 1.3 0-.6.5-.2 1.1 1 .9 1.8 1.9 2.3 5.1 2.3 3.9 0 3.9-.1 3.4-3-.7-3.3-.5-3.5 2.4-2 1.6.9 1.9.7 1.9-1 0-2.3.1-2.4 3.4-.9 2 1 3 .9 5.1-.5 2.4-1.6 2.7-1.6 5.4.3 1.6 1.2 3.6 1.8 4.9 1.5 1.3-.4 2.7.1 3.8 1.4 1.3 1.6 2.1 1.8 3.8 1.1 2-.9 2.1-1.7 1.8-8.2-.3-5.7-.9-8-2.9-10.9-1.4-2.1-2.3-4.4-2-5.2.4-.9.2-1.8-.2-2.1-.5-.3-.7-1.4-.4-2.5.4-1.3 0-2-.9-2-.8 0-2-1.1-2.6-2.5-1.5-3.3-1.5-3.5.2-3.5.8 0 1.2-.9 1-2.6-.4-3.6-1.5-4.5-3.6-3zM335.874 127.337c-1.8 2.3-1.9 3-.8 3 .8 0 1.9.7 2.4 1.6.5.9 1.4 1.4 2.1 1 1.4-.9 1.4-4.6 0-4.6-.6 0-.9-.9-.6-2 .7-2.9-.6-2.5-3.1 1zM328.174 132.137c.9 1.8-.4 5.2-2.1 5.2-1.7 0-1.8 1.2-.2 2.8.9.9.8 1.2-.8 1.2-1.1 0-2.5.5-3.2 1.2-.8.8-1.5.8-2.6-.1-1.2-1-1.5-.7-2.1 2-.6 2.8-1 3.1-3.6 2.5-2.4-.4-2.9-.2-2.9 1.4 0 1-.5 2.2-1 2.5-.6.4-.8 1.1-.5 1.6.4.5.2.9-.3.9s-2.1 1.1-3.6 2.4c-2.4 2-2.6 2.7-1.7 4.4.9 1.8.8 2.5-.9 4.2-1.1 1.1-1.5 2-1 2 .6 0 1 .7 1 1.6 0 1.1-.5 1.4-1.6 1-1.3-.5-1.5-.2-1.1 1.4.3 1.1.1 2.3-.4 2.6-.5.3-.9 1.8-.9 3.5 0 1.6-.4 2.9-.9 2.9-1.5 0-9.1 7.5-9.1 8.9 0 .7-.6 1.1-1.4.8-1.1-.4-1.6.4-1.8 3-.3 3.7-1.2 4.2-8.3 4.6-1.1 0-2.2.4-2.5.8-.7 1-7.1-1.1-9.3-2.9-2.4-2.1-6.9-1-10.6 2.5-1.8 1.8-4.2 3.3-5.2 3.3s-2.4.9-3.1 2c-.9 1.4-2.4 2-4.8 2-1.9 0-4.5.3-5.8.6-2.5.7-4.1 4.9-2.4 6.6.8.8.8 1.7.1 3-.7 1.2-.6 2.5.2 4 .9 1.7.9 2.3 0 2.6-.9.3-.7 1.2.6 3 2.2 3.5 2.4 10 .3 10.7-2.5.8-4.3 7.1-3.5 12.2.6 4.4.6 4.4-1.6 3.2-1.7-.9-2.4-.9-2.7 0-.2.6-.8 1.1-1.4 1.1-1.2 0-4.8 3.9-4.8 5.2 0 .5-.4.7-.9.4-.5-.3-1.1.3-1.4 1.4-.3 1.3-1 1.8-2.1 1.4-2.5-1-1.9 1.9.9 4.6 2.7 2.5 3.7 6.2 1.1 4.1-1.1-.9-1.6-.3-2.7 3.4-.7 2.5-1.7 4.5-2.2 4.5-.4 0-.5.6 0 1.2.4.7.6 2.3.4 3.5-.2 1.7.3 2.3 1.6 2.3 3 0 6.6-3.9 6-6.6-.5-2.7.6-3.8 4.4-4.8 3.5-.8 5.1 1.2 4.3 5.3-.4 1.7-1.1 3.4-1.5 3.7-.5.3-.9 1-.9 1.5 0 .6.5.7 1 .4.6-.3 1 .2 1 1.3s.9 3.1 2 4.5 2 3.4 2 4.5c0 1.2.9 2.2 2.1 2.5 1.2.3 1.8 1 1.5 1.5-.3.5.1 1.5.9 2.2 1 .8 1.3 2.1.9 3.3-.4 1.4-.3 1.7.6 1.2.9-.6.9-.3.1 1.3-.9 1.7-.8 2.3.6 3 3.7 1.9 7.8 2.3 9.8.8 1.7-1.2 1.8-1.7.5-4.2-.7-1.6-1.2-3.8-1.1-4.9.1-1.2-.7-2.4-2-3-1.3-.6-2.5-1.6-2.7-2.4-.6-1.7 5.5-.6 7.9 1.5.9.8 3.7 1.4 6.6 1.4 4.2 0 5.6.5 8.4 3 1.9 1.6 4.3 3.3 5.4 3.6 1.1.4 2.8 1.5 3.8 2.6 1.1 1.1 2.6 1.7 3.7 1.3 1.2-.4 1.9.1 2.3 1.5.3 1.1 0 2-.6 2-.7 0 .1.7 1.7 1.5 3.5 1.8 5.5 2 3.8.3-1.7-1.7-1.5-4.8.3-4.8 1.7 0 2-1.6.4-2.5-.6-.4-.8-1.3-.5-2.1.3-.9-.6-1.5-2.9-2-3.2-.6-5.4-3.1-3.8-4.3.4-.3 1.4-1.7 2.1-3 1.1-1.9 1.1-2.5.1-3.2-1.6-.9-1.9-11.9-.4-11.9 1.7 0 1.2-9.3-.8-12.3-1-1.5-1.5-3.3-1.1-3.9.4-.7.8-2.3.9-3.6 0-1.3.9-2.8 1.9-3.4 1.7-.9 1.6-1.1-.5-3.4-1.7-1.8-1.9-2.4-.7-2.4.8 0 2.3-.9 3.3-2 1.6-1.8 7.3-4.8 11.8-6.3 1-.4 1.7-1.7 1.7-3.2 0-1.5.5-2.5 1.3-2.4 3.7.5 5.7-.2 5.7-2 0-2 2.5-3.1 7.4-3.1 1.6 0 3.4-.7 4-1.6.9-1.2 1.7-1.3 3.7-.6 3.3 1.3 5.4-.4 5.4-4.3 0-2.2.8-3.5 3.1-5 3.1-2 7.9-9.5 7.9-12.4 0-.8 1.5-1.8 3.4-2.4 4.2-1 6.3-3.4 5.6-6.4-.5-2-.2-2.2 2.3-1.7 2.1.4 3.1.2 3.5-1 .4-1 1.9-1.6 4.1-1.6 2.5 0 3.8-.6 4.6-2 .7-1.3 2.1-2 4.1-2 2.2 0 3.2-.6 3.9-2.5.6-1.7 1.7-2.5 3.2-2.5 2.7 0 10.1-5.7 9.2-7.1-.3-.5-.9-.7-1.3-.4-.5.2-2.4-1.9-4.3-4.8-2-2.9-5.1-6.1-7.2-7.2-2-1.1-3.6-2.3-3.6-2.6 0-.4-1.9-1.8-4.2-3.2-3.4-1.9-5.5-2.4-10.4-2.2-3.4.1-6.6.5-7.2.9-.8.4-1 .2-.6-.7.3-.8.1-1.8-.5-2.2-.6-.3-1.1-1.1-1.1-1.6 0-.6.4-.8.9-.5 1.3.8 1.9-1.6 1.1-3.9-.5-1.1-.6-3-.3-4.1.2-1.2 0-2.5-.6-2.8-.5-.4-.8-1.3-.5-2 .3-.8-.7-2.2-2.3-3.3-4.6-3.2-5.4-3.5-5.1-2.1.3 1.4-3.5 1.3-4-.1-.1-.5-1-1.7-1.8-2.7-.9-1-1.3-1.3-.9-.6zm9.1 29.7c-1.5 1.5-1.6 1.5-1.6-.3 0-2.4 1.1-3.5 2.3-2.3.6.6.4 1.6-.7 2.6zm-5.6 13.6c0 .4-.7.6-1.5.3-.8-.4-1.5-1-1.5-1.5 0-.4.7-.6 1.5-.3.8.4 1.5 1 1.5 1.5zm-43 53.4c0 .8-.4 1.5-1 1.5-.5 0-1-.7-1-1.5s.5-1.5 1-1.5c.6 0 1 .7 1 1.5zm-32 11.2c-.1 2.3-2.2 3.7-5.4 3.6-3.7-.1-4.2.3-2.7 2.6.5.8 1.6 1.1 3 .6 1.9-.6 2-.4 1.2 1.8-.6 1.4-.7 2.8-.3 3.3.4.4-.1.4-1 .1-1.3-.5-1.8-.1-1.8 1.3 0 1-.4 2.2-1 2.5-1.5.9-1.2 3.6.6 5.7 2 2.2.7 4.3-3.3 5.3-2 .5-3.2 0-5.2-1.9-1.5-1.5-3.5-2.6-4.4-2.6-1.9 0-2.1-.8-.7-3 .8-1.2 1-1.2 1.6.3.6 1.6.8 1.6 2.3.2.9-.8 2.8-2.5 4.3-3.6s2.7-2.8 2.6-3.7c-.4-5.1.4-10.2 1.8-11.6 1.5-1.6 8.4-2.3 8.4-.9zm-24.2 17.6c.2 1-.3 1.7-1.3 1.7-.9 0-1.3-.5-1-1 .3-.6.1-1-.5-1s-.8-.5-.5-1.1c.9-1.4 2.9-.6 3.3 1.4zm-.3 8.7c.3.5.1 1-.4 1-.6 0-1.1-.5-1.1-1 0-.6.2-1 .4-1 .3 0 .8.4 1.1 1zm20 4.6c2.1 3.3 1.8 3.6-2.4 1.8-2.8-1.2-3.1-1.6-2.1-2.9 1.7-2.1 2.5-1.9 4.5 1.1zM2.374 135.037c.3.7.9 1.3 1.4 1.3 1.4 0 9.9 6.1 9.9 7.1 0 .5 1 .8 2.3.7 1.9-.2 2.2-.7 1.9-3.5-.3-2.6-.9-3.3-2.6-3.3-1.2 0-2.7-.5-3.4-1.2-.6-.6-3.1-1.4-5.6-1.8-3.4-.5-4.3-.4-3.9.7zM495.774 136.437c-.1 1.4-1 3.4-2 4.3-1.1 1-2.9 3.8-4 6.2-1.8 3.7-2.6 4.4-5 4.4-1.6 0-3.1.4-3.3.8-.1.4-2 1.8-4 3-3 1.9-4.1 2.1-5.8 1.2-1.6-.9-2-.8-2 .4 0 1-.6 1.3-1.5 1-.8-.4-1.5-.1-1.5.5 0 1.6-3.6 1.3-5.4-.5-1.9-1.8-3.4-1.1-4.7 2.3-.7 1.8-1.4 2.3-2.8 1.8-1.6-.5-1.8-.2-1.4 1.4.4 1.8.2 1.9-3.3 1.1-2.1-.5-4.1-.7-4.5-.4-.4.2-1 0-1.4-.6-.3-.5-1.5-1-2.6-1-1 0-1.9-.7-1.9-1.5s.9-1.5 2-1.5c1.5 0 2-.7 2-2.4 0-3.2-2-4.4-2.7-1.7-.5 1.9-.7 1.9-2.6.6-2.6-1.8-3.7-1.9-3.7-.3 0 1.3-6.8 7.8-8.2 7.8-.4 0-.8.7-.8 1.6 0 1.1-.6 1.3-2 .9-2.9-.9-10 1.5-10 3.4 0 .9-.9 2.2-2.1 2.9-1.8 1.1-2.6 1-6.3-1.2l-4.2-2.5-3.1 3.5c-2.3 2.6-3.8 3.4-6.5 3.4-2.1 0-4.1.7-5.2 1.9-1.6 1.8-1.5 2 1.3 4.8 2 2.1 5 3.5 9.8 4.7 3.7.9 9 2.6 11.7 3.6 4.5 1.8 5 1.8 6.1.3 1.1-1.4 1.6-1.5 4.4-.3 2 .8 5 1.1 8.2.7 4.5-.6 5.1-.4 6.1 1.7 1.1 2.5 6.4 4 10.3 3 1.1-.3 3.1-.1 4.5.4 1.7.7 3.3.6 5.1-.4 1.4-.7 3.8-1.1 5.3-1 2 .3 2.6 0 2.2-1.1-.8-1.9 3.4-.8 5.1 1.4.9 1.2 1.3 1.1 2.5-.6.8-1.2 1.8-1.8 2.1-1.5 1 1 3.8-1.8 3.3-3.2-.3-.7.4-1.6 1.5-1.9 1-.4 1.9-1.1 1.9-1.6 0-1.6 3.8 1.4 4.9 3.8.6 1.3 1.9 2.3 3 2.3s2.3.5 2.6 1.1c.4.6 1.3.8 2 .5.9-.3 1.6.8 2 3.6.5 2.9 1 3.7 1.8 2.9.6-.6 1.5-1.1 1.9-1.1 1.2 0 1 3.8-.2 4.5-.5.3-1 4.4-1 9 0 8.7-.2 9.2-5.7 12-.9.5-1 8.1-.2 9.2.8.9.8 1.7.1 2.6-.6.7-.9 2.2-.6 3.4.3 1.1.1 2.3-.4 2.7-1 .6.2 7.3 2.1 11.4 1.2 2.5 6 5.6 7.1 4.5 1.1-1.1 4.7 3.1 4.3 4.9-.3 1-.1 2.1.4 2.4 1.8 1.1 4 6.6 3.3 8.2-.4 1-.7 2.6-.8 3.7-.1 1.6-.7 1.9-3.2 1.7-2.9-.3-3.1-.1-2.7 2.2.3 1.5 1 2.3 1.9 1.9 2.3-.9 3.7.7 2.1 2.5-.8 1-1.5 3.6-1.6 5.8-.1 3.7.2 4.2 2.4 4.6 1.4.3 3.6-.1 5-.8 3.7-1.9 5.8-.8 5.2 2.9-.3 2.3 0 3.1 1.4 3.4 1.1.3 1.7.9 1.4 1.3-.3.4.2 1.3 1 2 2.2 1.8 1.8 3.2-.5 2-1.6-.9-2-.8-2 .5 0 .8.4 1.5.8 1.5.5 0 1.5 2.5 2.2 5.5.7 3 1.5 5.5 1.8 5.5 1.1 0 6.2-3.5 6.2-4.3 0-.4-.4-.6-.9-.3s-1.1-.1-1.5-.9c-.6-1.8-.1-1.9 2.4-.5 1.1.6 1.6 1.7 1.3 2.9-.3 1 0 2.2.6 2.5.6.4 1.1.1 1.1-.6 0-.9.3-.9 1 .2.5.8.7 4.1.5 7.4-.4 4.4-1 6.3-2.6 7.7-1.2 1.1-1.7 1.9-1.1 1.9.6 0 1.4-.5 1.8-1.2.5-.7 1.1-.5 2.1.7 1.8 2.5 1.6 3.5-.5 3.5-2.7 0-4.2 2-4.2 5.6 0 2.1-.6 3.4-1.7 3.8-2.2.7-9 4.6-8.1 4.6.4 0 .1 1.2-.7 2.7-.9 1.7-1.1 3.1-.5 3.8.7.8.2 1.9-1.5 3.5-1.5 1.4-2.5 3.5-2.5 5.2 0 1.5-.4 2.8-.9 2.8-.4 0-1.6 2-2.5 4.5-2.2 5.8-3.2 6.2-5.1 2.6-1.9-3.7-1.9-4.1.1-4.1.8 0 1.2-.4.9-1-.3-.5-.2-2.5.4-4.4.7-2.9.6-3.8-1-5.2-2.7-2.5-7.9-2.8-9.4-.7-.7.9-1.1 2.3-.8 3 .3.7 0 1.3-.6 1.3s-1.1 1.1-1.1 2.4c0 1.4-1 3-2.5 4-1.4.9-2.3 2.1-2 2.5.2.5-.5 1.2-1.8 1.5-2.1.7-2.1.7-.3 1.9 1 .7 2.9 2.2 4.2 3.4 2.7 2.7 3.9 2.9 3 .8-.8-2.2 1.7-1.9 4.4.5 1.3 1.2 2.9 1.9 3.5 1.6.7-.2 1.8 0 2.6.5 1 .6 1.1.9.1.9-.8 0-1 .8-.6 2.5.5 2 .2 2.5-2.1 3.1-2.7.7-3.3 3.9-.7 3.9 1.6 0 4.3 3.5 3.7 4.5-.3.4.1 1.2.8 1.7 1.6 1.3 5.8 2.3 5.2 1.3-.6-1 3.9-2.2 5.7-1.5 1.3.5 4.3-4.4 3.3-5.3-.3-.3-.5 0-.5.6 0 1.9-1.7 1.4-2.2-.6-.7-2.4-7.3-5.5-9.8-4.7-2.2.7-2.5-.2-1-3.9.8-2.1 1.6-2.6 4.3-2.6 4.3 0 9.4 2.5 10.2 5 .4 1.1 1.5 2 2.6 2s2.2.7 2.5 1.5c.7 1.8 3.4 2 3.4.2 0-.7.3-.8.8-.2.4.6 1.8 1.5 3.1 2.1 2.8 1.2 7.1-.2 7.1-2.3 0-.7.7-1 1.5-.7.8.4 1.7-.1 2.1-1 .5-1.3.9-1.3 2.7-.1 1.3.7 4.4 1.3 7.2 1.2 4.1-.2 5-.5 5.3-2.2.3-1.1 1-2.4 1.8-2.8.8-.4 2.3-2.8 3.4-5.1 2.5-5.5 8.8-12.6 11.2-12.6 1.2 0 1.8-.7 1.8-2.1 0-1.5.5-1.9 1.5-1.5.9.3 1.8-.1 2.2-1 .4-1 1.3-1.4 2.8-1 1.5.4 2.5.1 2.9-.9.3-.8 1.4-1.5 2.4-1.5 2.4 0 3.8-5.5 2-7.7-1-1.2-.9-1.7.5-2.4.9-.6 1.7-1.6 1.7-2.4 0-1.1.9-1.4 3.5-1 2.7.3 3.8 0 4.8-1.5 1.5-2.5 2.7-2.6 2.7-.2 0 1.1.9 2.7 1.9 3.6 1.6 1.4 2.3 1.5 4.1.6 1.2-.6 2.8-.9 3.6-.6.8.3 1.4.1 1.4-.5s.5-.7 1-.4c.6.4.8 1.1.5 1.6-.4.5-.2.9.3.9 1.1 0 3.2 4.5 3.2 7 0 1 1.1 2.7 2.5 3.8 1.4 1.1 2.5 2.7 2.5 3.5 0 2.2 2.4 2.7 5.9 1.4 2.3-.8 3.1-1.8 3.1-3.5 0-2 .4-2.3 2.1-1.9 2 .5 2 .5.3-1.4-1.6-1.8-1.6-1.9 0-1.9 1 0 3 1.3 4.5 2.9l2.7 2.9 1.4-2.1c.8-1.2 1.3-2.5 1.2-2.9-.1-.4.7-1 1.8-1.3 1.1-.4 2-1.4 2-2.3 0-1.2-.3-1.3-1.2-.4-1.6 1.6-3.6 1.5-5.5-.4-1-1-1.8-1.2-2.2-.5-1.1 1.6-11.7-4-13.6-7.2-1.4-2.3-2.3-2.8-4.9-2.6-1.7.2-3.6 0-4.2-.3-.5-.4-1.6-.3-2.4.2-1.7 1-5.8-.5-8.7-3.2-1.2-1.1-3-1.8-4-1.6-1 .3-2.4-.1-3.1-.8-1-1.1-1.7-1.1-3.1-.2-1.5.9-2.4.8-4.3-.4-2.7-1.8-9.8-3.3-9.8-2 0 .4.5 1.3 1.2 2 1.3 1.3-.6 4.2-2.8 4.2-.8 0-1.4 1-1.4 2.5 0 1.8-.7 2.8-2.4 3.5-1.3.5-2.5 1.3-2.7 1.8-.8 2-4.5 2.2-6.5.3-1.2-1-3.5-2.6-5.2-3.5-2.9-1.5-5.2-3.8-3.5-3.5.4.1 1.2.1 1.8 0 1.6-.2-6.8-4.1-9-4.1-2.2-.1-6.3-3.4-8.3-6.8-1-1.9-1-2.2.3-2.2 1 0 1.5-1 1.5-3.5 0-4.2-1.9-8.5-3.7-8.5-.7 0-1.3-.7-1.3-1.5s.5-1.5 1.1-1.5c.5 0 .7.5.3 1.2-.5.8-.2.9.9.5 1.5-.6 2.2.3 1.8 2.5-.2 1.2 2.7 1 3.4-.2.3-.6 1.5-1 2.6-1 1.2 0 1.9-.7 1.9-2 0-1.1.5-2 1.1-2 .6 0 .9-.8.7-1.8-.2-.9.5-2.2 1.6-2.8 2.3-1.4 2.8-4.3 2.3-13.3-.2-4.1 0-4.5 2.9-5.7 3.4-1.4 4.9-5.8 3.1-9-.7-1.3-.5-2.1.8-3 1-.8 1.5-2 1.2-2.9-.4-.8-.2-2.7.3-4.1.8-2.1.6-3.2-1.1-5.6l-2.1-2.9 2.8-3c1.5-1.6 2.4-3.2 2-3.6-.4-.4-1.2-.1-1.7.7-.8 1.3-1.2 1.1-2.6-.8-.8-1.2-2.1-2.2-2.7-2.2-.7 0-2.1-.7-3.2-1.6-1-.8-1.3-1.3-.6-.9 2.2 1.1 1.2-1.9-1.4-4.5-2.1-1.9-2.3-2.5-1.1-3 .9-.3 2.5-1.7 3.7-3.2 1.3-1.7 2.7-2.5 3.6-2.1 1.1.4 1.4 0 1-1.8-.3-1.3-.8-4.6-1.1-7.2-.4-2.9-1.2-5-2.1-5.4-.8-.3-1.3-1.2-1-2 .3-.8.1-1.1-.4-.8-.6.4-1-.6-1-2.3 0-2.9-1.9-5.5-3.6-5.1-1.9.5-6-2-7.3-4.3-.9-1.8-1.9-2.4-3.5-2.1-1.7.4-2.5-.3-3.9-3.1-1-2.1-2.4-3.6-3.4-3.6s-2.6-.7-3.6-1.5c-1.1-.7-2.5-1.1-3.3-.8-.8.3-1.4 0-1.4-.6s.6-1.1 1.2-1.1c.7 0 .3-.7-.9-1.5s-2.4-2.9-2.8-4.6c-.4-1.7-1.3-3.3-2-3.5-1-.4-1-1.3-.2-4 .7-2.2 1.5-3.3 2.4-3 .7.3 1.3.1 1.3-.4 0-.6-.4-1-1-1-.5 0-1-.8-1-1.7 0-.9-1.7-3.4-3.7-5.5-2.1-2.1-3.8-4.6-3.8-5.5 0-1-1.7-2.1-4.8-3-3.5-1-5.3-2.2-6.5-4.3-.9-1.7-2.3-3-3-3-1.1 0-1.2-1.4-.8-6.1.4-3.4 1.1-7 1.6-8 .7-1.3.6-2-.4-2.6-.8-.4-2.1-2.4-2.9-4.3-1.4-3.3-1.5-3.3-1.6-.9zm18.9 133.9c0 2.3-.5 4-1.1 4-.6 0-.9-.9-.6-2 .3-1.1 0-2-.6-2.1-.8 0-.8-.2.1-.6.6-.2 1.2-1.1 1.2-1.9 0-.8.2-1.4.5-1.4s.5 1.8.5 4zm9 35.5c0 .8-.4 1.5-.9 1.5-1.3 0-2.2-1.6-1.4-2.4 1.1-1.1 2.3-.6 2.3.9zm3.3 4.5c2 2.4 2.1 3 .4 3-2.2 0-5.1-2.6-4.3-3.8 1-1.7 1.9-1.5 3.9.8zm3.9 6.4c.7-.4.8-.2.4.5-.9 1.4-3.6-.3-3.6-2.3 0-.6.5-.3 1.1.7.6.9 1.5 1.4 2.1 1.1zm60.9 26.3c4.1 2.4 3.8 4.3-.7 3.9-2.3-.2-4.5-1.3-6-3l-2.5-2.6h3.2c1.7 0 4.4.8 6 1.7z"/><path d="M448.474 162.037c.7.3 1.6.2 1.9-.1.4-.3-.2-.6-1.3-.5-1.1 0-1.4.3-.6.6zM625.674 189.337c0 .7-.8.9-1.9.5-1.1-.3-2.2-.1-2.6.5-.3.5-1.7.7-3 .4-2-.5-2.3-.3-1.8 1.5.3 1.2 1.7 3 3.2 4 2.4 1.8 3.2 2.1 4.7 2.1.4 0 .1.7-.6 1.5-1 1.2-1 1.8.1 3.1.9 1.2 1 1.7.1 2.3-.8.5-.9 1.7-.3 3.9.8 2.5.7 3.2-.4 3.2-2.2 0-2.8 2-1.5 4.5 1.5 2.9.7 5.5-1.9 6.2-1.1.3-1.7 1.1-1.5 1.8.4.8-.4 1.5-1.8 1.8-2.3.4-2.3.4-.1.6 1.5.1 2.1.6 1.7 1.5-.3.8 0 1.7.6 2.1.8.5.3 1.6-1.5 3.5l-2.6 2.7 5.6 2.7c3.7 1.7 6.4 2.4 8 2 1.6-.4 2.5-.2 2.5.6 0 .6.5.8 1 .5.6-.4 1.8-.1 2.6.6 1.1.9 1.8.9 2.6.1.9-.9 1.8-.7 3.5 1 1.3 1.2 2.3 2.9 2.3 3.7 0 1.3.2 1.4.9.2 1.1-1.8 4.1-.7 4.1 1.5 0 1.5.2 1.5 2.1-.2 2-1.8 2.1-1.8 3.5.1 1 1.3 2.7 1.9 6 2 5.2.2 6.1-.6 3.4-3-1.1-1-1.7-2.1-1.5-2.5.3-.5 0-2.1-.5-3.6-.8-2.1-.7-3.2.5-5.1.9-1.3 1.3-2.9.9-3.5-.4-.7-.3-.8.4-.4 1.9 1.1 5-1.2 6.8-4.9.9-2 1.5-3.7 1.3-3.8-3.9-2.2-7.3-3.7-8.3-3.7-1.6 0-3.9-4.7-2.6-5.5 1.5-.9 0-3.3-1.9-2.8-.9.2-2.9-.6-4.5-1.8-1.6-1.2-4-2.3-5.5-2.5-4.4-.3-6.5-1-6.9-2.2-.8-2.4-5-1.3-6.8 1.7-1.3 2.2-2.4 2.9-4.3 2.7-1.4-.2-2.7-.9-2.9-1.6-.3-.9.4-1.1 2.7-.8 1.7.2 3.1.1 3.1-.3s.3-1.4.6-2.2c.3-1-.2-1.8-1.4-2.1-1.4-.5-1.8-1.3-1.4-3.1.2-1.4.8-2.5 1.3-2.5 1.7 0 .9-2.9-1-3.5-1.2-.3-2.1-1.7-2.3-3.2-.3-2.6-2.8-4.6-2.8-2.3zM146.674 191.437c0 .5.5.7 1 .4.6-.3 1-.8 1-1.1 0-.2-.4-.4-1-.4-.5 0-1 .5-1 1.1zM142.374 219.737c-.6 1.4 0 2.6 1.4 2.6.3 0 .9-.9 1.2-2 .6-2.3-1.8-2.8-2.6-.6zM674.074 220.537c-.3.4.2.8 1 .8s1.7-.4 2-.8c.3-.5-.2-.9-1-.9s-1.7.4-2 .9zM74.374 233.337c-1.7 2.8-1.7 2.9.3 4 1.6.9 1.8.8 1.4-.5-.4-.8-.2-1.5.2-1.5.5 0 1-1.1 1-2.5.2-3.3-.8-3.2-2.9.5zM69.374 238.437c-1 .6-2.7.7-3.8.4-1.8-.6-1.9-.5-1 1.4.7 1.2 2 2.1 2.9 2.1 1 0 2.3.5 2.9 1.1.8.8 1.3.8 1.7 0 .4-.6.2-1.1-.4-1.1-.7 0-.8-.6 0-1.9 1.2-2.4.1-3.3-2.3-2zM582.674 239.637c-2.5 1.2-4.6 2.5-4.8 2.9-.6 1.3-2.2.9-2.2-.6 0-2.3-3.5-.8-6 2.6-1.2 1.6-1.9 3.2-1.6 3.5.3.3.8-.1 1.2-1 .5-1.3 1-1.4 2.6-.6 1.1.6 2.9.8 4.1.5 1.3-.3 3.3.5 5.8 2.4 2.7 2.2 4.8 3 7.7 3 2.3 0 4.3.4 4.6.9.3.5 1.7 1.1 3.1 1.3 2.1.4 2.5.1 2.5-1.8 0-1.9.5-2.4 2.7-2.4 3.5 0 9.3 2.1 9.3 3.5 0 .5.9-.1 2-1.5 1.7-2.3 1.7-2.6.3-4.2-1.5-1.6-1.5-1.8 0-1.8.9 0 1.9-.5 2.2-1.1.4-.6-.2-.9-1.7-.8-5.1.5-6.8-.1-6.8-2.1 0-1.5-.7-2-3-2.2-5.1-.2-5.5-.3-6.2-1.2-1.4-2-11.2-1.5-15.8.7zM667.674 247.037c0 .4.5 1.5 1 2.3.8 1.3 1 1.3 1-.2 0-.9-.4-2-1-2.3-.5-.3-1-.3-1 .2zM561.974 250.037c-1.3 1.3-2.3 2.8-2.3 3.2 0 1.3 4.9-1.2 5.5-2.8 1-2.6-1-2.8-3.2-.4zM212.074 249.837c-1.2.8-2.5 1.1-2.9.7-.5-.4-.5-.1-.1.5 1 1.9 2.9 1.6 4.9-.7 2-2.3 1-2.6-1.9-.5zM201.874 250.437c.2.6.7 1 1.1 1 .4-.1 1.5-.1 2.5-.1 1.4 0 1.5-.2.2-1-2-1.3-4.3-1.3-3.8.1zM212.274 256.837c.4.8 1 1.5 1.5 1.5.4 0 .6-.7.3-1.5-.4-.8-1-1.5-1.5-1.5-.4 0-.6.7-.3 1.5zM189.174 276.337c-.4.6-1.5.8-2.5.5-1.4-.5-1.6-.1-1.2 2.1.3 1.7.7 2.2 1.2 1.4.5-.8 1.3-.9 2.1-.4s2.4.7 3.7.5c1.4-.1 2.2.3 2.2 1.2 0 .7 1.2 2 2.6 2.7 1.7.9 2.4 2 2.1 3.2-.6 2.2.2 2.3 1.7.2.9-1.2 1.7-1.3 4-.4 3 1.1 5.6 0 5.6-2.5 0-2.2-5.9-7.8-7.5-7.1-.8.3-1.5.2-1.5-.3s-.9-1.1-2-1.4c-1.1-.3-2-.1-2 .5s-.8.8-1.7.5c-1-.3-2.8-.9-3.9-1.2-1.2-.4-2.5-.2-2.9.5zM251.374 301.037c-.4.3-.7 1.1-.7 1.7 0 .6.5.5 1.2-.2.6-.6.9-1.4.7-1.7-.3-.3-.9-.2-1.2.2zM568.274 303.937c.4 1 1.4 2.9 2.2 4.1.8 1.3 1.1 2.3.7 2.3-.4 0 1.8 2.4 4.9 5.4 3.9 3.7 5.4 5.8 5 7-.9 2.4 2.3 2 3.6-.4.8-1.5.8-2-.2-2-.6 0-.4-.6.7-1.3 1.3-1 1.5-1.6.6-2.1-.6-.4-1.8-.3-2.4.3-1.6 1.3-5.4.4-6.1-1.4-.2-.7.4-2.1 1.5-3.1 1.9-1.7 2.8-6 1-4.9-.5.3-1.2.1-1.5-.4-.3-.4-2-1.1-3.8-1.5-1.7-.3-4-1.4-5-2.3-1.8-1.6-1.8-1.6-1.2.3zM713.074 310.437c-.3.6-.1 1.6.5 2.2.8.8 1.1.5 1.1-1.1 0-2.4-.5-2.8-1.6-1.1zM290.374 313.837c.3.8.9 1.2 1.4.9 1.2-.7 1.1-1.1-.5-1.7-1-.4-1.3-.1-.9.8zM589.374 313.037c-1.3 1.3-.7 2.1 1.3 1.6 1.1-.3 1.7-.9 1.4-1.4-.6-1.1-1.8-1.2-2.7-.2zM672.674 322.237c0 .6-.5 1.1-1.1 1.1-.6 0-2.2.9-3.6 2s-3.6 2-4.9 2c-1.7 0-2.4.6-2.4 2 0 1.2-1 2.5-2.4 3.2-2.4 1-2.4 1.1-.8 3.7.9 1.4 2 2.9 2.5 3.2.5.3.2.9-.7 1.2-1.8.7-2.2 5.2-.6 6.2.6.3 1-.1 1-1 0-1.2.9-1.4 4.5-1.1 2.4.3 4.9.7 5.5 1.1.6.4 1-.4 1-1.8 0-1.6 1-3.1 2.7-4.3 1.5-.9 3.7-2.6 4.8-3.6 2-1.9 1.5-2.9-1.8-4-1.1-.4 1.6-5.7 3.1-6 1.1-.2 1.1-.6 0-2-1.6-2.1-6.8-3.5-6.8-1.9zM708.674 322.737c0 .9.5 1.6 1 1.6.6 0 1-.4 1-.9 0-.6-.4-1.3-1-1.6-.5-.3-1 .1-1 .9zM514.274 323.537c-1 .5-2.7.8-3.8.5-1.5-.4-1.8-.2-1.2 1.1.8 1.9.9 4.3.2 8.7-.7 4.7-1.6 5.7-4.9 5-2.7-.6-2.8-.6-1.6 1.7.6 1.3 2.2 3.7 3.5 5.5 1.2 1.7 2.2 3.6 2.2 4.2 0 .6 1.2 1.1 2.6 1.1 2.3 0 2.5-.3 2-2.5-.5-1.9-.3-2.3.9-1.9.8.4 1.5.1 1.5-.6 0-.6 1-1 2.3-.8 2 .3 2.2 0 1.9-4.5-.3-4-.1-4.7 1.5-4.7 1.7-.1 1.7-.2-.2-1.8-1.1-1-2-3-2.1-4.8-.1-4.5-2.5-7.5-4.8-6.2zM705.774 328.637c-.6.8-.8 1.7-.4 2 .3.4-.1.7-1 .7s-1.7.7-1.7 1.6c0 1-.6 1.4-1.4 1.1-.9-.4-1.6.3-1.9 1.5-.6 2-1.1 2.1-8.9 1.6-5.1-.4-7.4-.3-6 .3 1.2.4 2.2 1.5 2.2 2.3 0 1.5 3.7 2.9 4.5 1.6.3-.5 2.1-.4 4 .1 2.7.8 4 .7 5.7-.5 1.6-1.1 2.6-1.2 4-.5 2.5 1.3 3.1.7 3.2-3.3.1-2 .6-3.2 1.3-3.1 1.5.3 3.6-3.4 2.8-4.7-.4-.6-1.1-.8-1.6-.5-.5.4-.9.1-.9-.4 0-1.5-2.5-1.4-3.9.2zM564.674 329.737c0 .2.7.7 1.6 1 .8.3 1.2.2.9-.4-.6-1-2.5-1.4-2.5-.6zM575.674 331.837c0 1.7.4 2.3 1.4 1.9.8-.3 1.2-1.3.9-2.5-.7-2.7-2.3-2.4-2.3.6zM573.274 335.137c-.6 1 .2 6 1.1 7.5.3.5 1.3-.4 2.2-2 2.7-4.3 3.1-6 1.5-6-.7 0-1.1.4-.8.9.3.4 0 .8-.5.8-.6 0-1.1-.5-1.1-1 0-1.2-1.7-1.3-2.4-.2zM640.174 341.937c-1.1.8-2.5 1.2-3.2 1-.7-.3-1.5 0-1.9.6-.4.7-.3.8.4.4s1.2-.1 1.2.7c0 1.5 6.4 7.7 7.9 7.7 1.3 0 3.4-4.8 2.8-6.4-.4-.9-.2-1.6.4-1.6.6 0 .7-.5.4-1-.3-.6-1.5-1-2.6-1-1 0-1.9-.5-1.9-1 0-1.4-1.1-1.2-3.5.6zM564.974 343.737c.4 1 .2 2.5-.4 3.3-.7.7-.9 1.7-.5 2 .4.4 1.1.2 1.5-.5.4-.7 1.8-1.1 3.1-1 1.2.2 2.5-.3 2.7-1 .3-.6-.3-1.2-1.3-1.2s-2.6-.8-3.7-1.8c-2-1.6-2-1.6-1.4.2zM670.874 348.837c-.7.8-1.2 1.7-1.2 2 .1.4-1 1.5-2.5 2.6-2.5 2.1-2.6 3.9 0 3.9.7 0 1.6-.8 1.8-1.8.4-1.6.5-1.6.6 0 .1 1.9 1 2.2 3.5 1.2.9-.3 1.3-1 1-1.5-.8-1.4.6-5 1.8-4.3.6.4.8-.1.6-1.2-.4-2.3-3.9-2.9-5.6-.9zM654.874 349.537c-1.6 1.6-1.5 2.5.2 3.1 1 .4 1.3-.2 1.2-1.9 0-1.3-.1-2.4-.1-2.4-.1 0-.6.5-1.3 1.2zM648.374 351.837c-.7 1.5.1 2.5 2 2.5.7 0 1.3-.6 1.3-1.4 0-1.9-2.7-2.8-3.3-1.1zM500.174 359.337c-.8 1.3.5 1.3 2.5 0 1.3-.8 1.3-1-.2-1-.9 0-2 .4-2.3 1zM670.874 359.937c-1 1.8-.8 2.3 1.3 3.2 2 1 2.5.9 2.5-.3 0-.8-.4-1.5-.9-1.5s-1.1-.8-1.3-1.8c-.3-1.5-.5-1.5-1.6.4zM483.674 386.437c0 .5.5.7 1 .4.6-.3 1-.8 1-1.1 0-.2-.4-.4-1-.4-.5 0-1 .5-1 1.1z"/></g></svg>