<?xml version="1.0" standalone="no"?>
<!DOCTYPE svg PUBLIC "-//W3C//DTD SVG 20010904//EN"
 "http://www.w3.org/TR/2001/REC-SVG-20010904/DTD/svg10.dtd">
<svg version="1.0" xmlns="http://www.w3.org/2000/svg"
 width="768.464739pt" height="356.024362pt" viewBox="0 0 768.464739 356.024362"
 preserveAspectRatio="xMidYMid meet">
<metadata>
Created by potrace 1.15, written by Peter Selinger 2001-2017
</metadata>
<g transform="translate(-679.344916,1152.926196) scale(0.100000,-0.100000)"
fill="#222222" stroke="none">
<path d="M6798 11523 c7 -3 16 -2 19 1 4 3 -2 6 -13 5 -11 0 -14 -3 -6 -6z"/>
<path d="M6830 11501 c0 -6 -8 -11 -17 -11 -15 0 -16 -2 -3 -10 9 -5 19 -5 24
0 4 4 15 6 24 3 10 -4 13 -1 10 8 -6 17 -38 25 -38 10z"/>
<path d="M6840 11433 c0 -5 7 -18 15 -29 12 -16 14 -16 15 -3 0 9 -7 22 -15
29 -8 7 -15 8 -15 3z"/>
<path d="M6893 11345 c0 -8 8 -21 16 -29 22 -20 44 -6 34 20 -10 23 -50 30
-50 9z"/>
<path d="M10223 11326 c-13 -13 -27 -35 -32 -50 -6 -14 -17 -26 -26 -26 -21 0
-19 -10 15 -63 36 -58 37 -72 5 -119 -14 -20 -22 -44 -19 -52 4 -11 1 -16 -10
-16 -9 0 -16 -8 -16 -20 0 -16 -4 -18 -22 -11 -23 8 -41 2 -87 -31 -13 -10
-35 -18 -50 -18 -20 0 -30 -8 -40 -31 -11 -26 -18 -30 -43 -27 -16 3 -31 1
-34 -4 -3 -5 -12 -4 -20 3 -11 9 -15 8 -20 -5 -3 -9 -12 -16 -20 -16 -14 0
-68 -47 -70 -61 -1 -5 -2 -18 -3 -29 -1 -14 -11 -21 -38 -26 -21 -4 -45 -10
-54 -15 -11 -6 -31 1 -63 21 -55 35 -56 35 -56 12 0 -10 -5 -23 -11 -29 -8 -8
-9 -20 -1 -43 6 -17 7 -28 2 -25 -12 7 -35 -35 -31 -58 1 -9 -5 -20 -14 -23
-9 -4 -14 -12 -11 -19 7 -18 -63 -45 -99 -39 -114 20 -138 10 -116 -52 7 -18
9 -38 6 -44 -9 -14 27 -59 47 -60 9 0 20 -5 23 -10 4 -6 21 -8 41 -4 22 4 34
2 34 -5 0 -6 7 -11 16 -11 8 0 12 -4 9 -10 -9 -14 69 -13 118 2 28 8 46 22 59
44 19 32 19 33 39 13 26 -26 25 -31 -16 -72 -36 -36 -45 -73 -23 -95 8 -8 8
-15 -1 -26 -10 -12 -9 -14 6 -10 21 6 76 -19 66 -29 -3 -4 0 -7 9 -7 8 0 21
11 28 25 7 14 19 25 27 25 16 0 17 -17 2 -22 -6 -2 7 -12 29 -22 26 -12 43
-27 46 -42 5 -17 13 -24 29 -24 28 0 47 -17 47 -42 0 -10 5 -18 10 -18 6 0 10
-13 10 -30 0 -36 18 -46 88 -48 63 -2 142 28 142 53 0 12 6 15 19 10 11 -3 22
-1 26 5 9 15 52 12 58 -4 3 -8 27 -18 54 -22 26 -3 54 -12 62 -18 11 -8 15 -8
18 2 3 6 13 12 24 12 21 0 53 16 83 43 24 21 42 22 50 2 3 -8 0 -15 -6 -15 -9
0 -9 -3 0 -12 7 -7 12 -16 12 -22 0 -5 -3 -7 -6 -3 -4 3 -13 -1 -22 -10 -14
-14 -17 -13 -34 7 l-18 22 0 -25 c0 -14 5 -29 11 -32 5 -4 9 -17 7 -28 -1 -12
1 -27 5 -34 4 -7 -1 -20 -13 -31 -17 -16 -18 -22 -8 -49 10 -26 9 -38 -6 -72
-10 -22 -16 -47 -13 -55 3 -8 -1 -20 -8 -26 -8 -7 -12 -16 -9 -21 3 -5 -2 -9
-12 -9 -11 0 -15 -6 -11 -19 3 -11 -1 -22 -8 -25 -8 -3 -15 -15 -17 -28 -3
-23 -9 -25 -39 -13 -13 5 -18 -3 -23 -35 -4 -23 -2 -49 4 -61 6 -11 8 -29 5
-39 -4 -13 -1 -22 9 -26 9 -3 16 -16 16 -28 1 -11 14 -36 30 -55 22 -26 38
-34 71 -37 25 -2 58 -15 80 -30 38 -26 57 -54 38 -54 -6 0 -7 -4 -4 -10 3 -5
-1 -10 -9 -10 -8 0 -18 5 -22 11 -5 8 -10 6 -16 -5 -5 -9 -6 -21 -3 -26 9 -14
105 -62 105 -53 1 18 50 -74 50 -93 0 -12 7 -27 16 -35 14 -11 14 -13 -1 -22
-15 -8 -15 -10 1 -28 15 -17 15 -19 1 -25 -19 -7 -12 -27 25 -75 25 -30 28
-32 28 -12 0 22 -24 53 -41 53 -5 0 -9 7 -9 15 0 17 16 20 25 5 3 -5 12 -10
19 -10 16 0 28 61 15 74 -5 6 -9 15 -9 20 1 6 10 0 20 -13 11 -13 20 -18 20
-13 0 6 -5 14 -10 17 -6 4 -8 10 -5 15 3 5 1 20 -4 33 -11 28 5 42 30 26 21
-13 39 -11 39 4 0 8 26 40 58 73 32 33 61 64 63 69 15 36 53 85 69 90 12 4 20
17 22 38 2 24 8 33 24 35 12 2 29 11 38 21 22 25 23 48 2 109 -9 27 -30 24
-34 -5 -2 -16 -11 -20 -44 -21 -23 -1 -44 -4 -46 -7 -3 -3 -16 2 -29 10 -13 9
-27 13 -32 10 -5 -2 -12 7 -16 22 -3 14 -17 35 -31 45 -16 13 -24 30 -24 49 0
18 4 28 10 24 6 -3 10 -1 10 5 0 6 -7 13 -15 16 -12 5 -10 10 10 26 19 15 29
17 45 8 13 -7 20 -7 20 -1 0 6 6 8 13 6 8 -4 12 7 12 35 1 24 8 47 18 57 15
15 17 14 28 -13 10 -24 13 -46 18 -116 1 -5 10 -8 21 -8 11 0 20 -4 20 -10 0
-5 6 -10 14 -10 23 0 97 -91 91 -110 -3 -10 3 -28 13 -40 17 -21 17 -26 5 -51
-8 -16 -14 -36 -14 -46 1 -43 7 -69 19 -81 6 -7 12 -20 12 -27 0 -8 19 -23 43
-34 25 -11 48 -31 55 -45 8 -18 19 -26 36 -26 13 0 38 -11 54 -25 20 -17 41
-25 64 -24 18 1 73 -4 121 -12 73 -11 90 -11 97 0 4 8 12 11 18 7 21 -13 73 7
87 33 10 19 14 21 15 9 0 -22 30 -24 30 -3 0 16 27 20 47 7 21 -13 18 -40 -8
-64 -26 -24 -26 -24 -50 -5 -17 14 -25 15 -28 6 -2 -7 1 -15 8 -17 7 -2 1 -14
-15 -29 -29 -27 -27 -40 5 -23 12 6 27 8 33 4 7 -5 9 -2 5 8 -11 31 31 28 56
-4 13 -16 30 -31 38 -32 8 -2 28 -9 44 -16 33 -14 87 -13 96 1 3 5 14 6 24 3
14 -6 17 -4 13 8 -7 18 26 50 39 37 10 -10 83 0 83 12 0 5 8 17 18 27 11 11
22 40 25 66 7 45 5 50 -27 82 -38 38 -57 44 -49 14 6 -21 -5 -24 -44 -14 -13
4 -23 11 -23 18 0 14 -75 50 -88 42 -5 -3 -15 0 -21 8 -7 8 -20 12 -31 9 -10
-3 -45 5 -77 17 -31 12 -59 17 -60 13 -2 -5 -29 3 -61 19 -31 15 -69 28 -83
28 -35 0 -75 33 -99 81 -13 24 -28 39 -39 39 -10 0 -21 3 -25 7 -7 8 -24 12
-74 20 -41 7 -62 44 -65 113 -2 41 -6 51 -29 65 -15 9 -25 21 -22 29 3 7 -6
21 -20 30 -15 9 -26 21 -26 26 0 17 50 11 57 -6 4 -11 8 -12 13 -4 6 9 13 9
30 0 17 -9 30 -8 62 5 23 9 55 15 72 13 25 -2 31 1 37 22 4 14 7 21 8 17 1 -5
8 -2 16 7 22 22 5 57 -45 90 -23 15 -40 23 -36 18 6 -9 -15 -22 -35 -22 -17 0
-28 44 -14 60 7 8 18 32 24 52 7 20 19 42 27 48 20 18 17 57 -7 91 -17 25 -19
34 -10 62 6 18 25 48 42 67 30 32 32 33 45 15 8 -10 17 -15 21 -11 5 4 0 13
-10 20 -9 7 -17 18 -17 25 0 10 -6 13 -39 15 -8 1 -19 10 -25 20 -6 11 -22 30
-36 42 -14 14 -19 24 -12 24 19 0 4 20 -15 20 -9 0 -21 -7 -28 -17 -15 -20
-45 -11 -45 13 0 10 -7 26 -16 36 -14 14 -14 20 -4 33 7 8 10 29 8 46 -4 25 0
33 19 42 18 8 23 18 23 49 0 21 -5 38 -11 38 -6 0 -9 17 -7 42 2 33 -1 43 -12
43 -48 1 -121 77 -135 141 -3 17 -21 45 -39 63 -25 25 -32 38 -28 58 4 21 2
25 -11 20 -10 -4 -20 1 -26 11 -9 16 -11 16 -24 -2 -9 -12 -20 -17 -31 -13
-11 4 -16 1 -16 -9 0 -12 -6 -15 -26 -10 -14 4 -32 2 -39 -4 -10 -8 -22 -2
-49 23 -20 19 -36 40 -36 46 0 15 -54 71 -68 71 -5 0 -15 7 -22 15 -7 9 -18
14 -24 12 -13 -5 -38 35 -56 87 -8 25 -15 35 -22 28 -6 -6 -17 -8 -26 -4 -11
4 -14 1 -9 -11 5 -13 -2 -18 -29 -23 -27 -5 -34 -10 -29 -23 4 -9 8 -28 10
-43 3 -22 0 -28 -15 -28 -11 0 -20 -4 -20 -10 0 -18 -29 -10 -40 11 -8 14 -15
17 -24 10 -11 -9 -79 7 -110 27 -6 3 -15 7 -21 8 -5 0 -15 2 -21 2 -7 1 -24
27 -40 58 -22 43 -32 54 -46 50 -14 -3 -20 3 -25 25 -8 39 -14 42 -40 15z
m447 -194 c0 -13 -12 -22 -22 -16 -10 6 -1 24 13 24 5 0 9 -4 9 -8z m-772
-645 c2 -9 -2 -17 -8 -17 -6 0 -8 5 -5 10 3 6 1 10 -4 10 -6 0 -11 5 -11 11 0
17 25 4 28 -14z m162 -246 c0 -4 -9 -20 -21 -35 -19 -24 -20 -29 -7 -44 35
-40 23 -85 -14 -58 -17 12 -23 51 -20 114 2 29 5 32 32 32 17 0 30 -4 30 -9z
m500 -191 c0 -5 -6 -10 -14 -10 -8 0 -18 5 -21 10 -3 6 3 10 14 10 12 0 21 -4
21 -10z m211 -237 c13 -16 12 -17 -3 -4 -10 7 -18 15 -18 17 0 8 8 3 21 -13z
m362 -169 c9 -3 13 -13 10 -24 -6 -24 -33 -15 -33 11 0 21 1 22 23 13z m-418
-764 c3 -5 2 -10 -4 -10 -5 0 -13 5 -16 10 -3 6 -2 10 4 10 5 0 13 -4 16 -10z"/>
<path d="M10657 11300 c-6 -24 -1 -29 24 -23 24 7 24 15 0 30 -16 10 -20 9
-24 -7z"/>
<path d="M6981 11255 c0 -15 58 -80 65 -73 8 9 -14 48 -28 48 -6 0 -17 8 -24
18 -7 9 -13 13 -13 7z"/>
<path d="M7148 11178 c-33 -11 -35 -19 -9 -42 26 -24 61 -13 61 19 0 28 -16
35 -52 23z"/>
<path d="M7170 11041 c0 -16 12 -41 20 -41 4 0 5 11 2 25 -4 23 -22 36 -22 16z"/>
<path d="M7220 11001 c0 -5 6 -14 14 -20 8 -7 12 -26 10 -54 -5 -59 21 -99 77
-117 24 -8 49 -20 56 -26 22 -21 25 -62 8 -113 -15 -46 -15 -52 0 -82 19 -36
12 -49 -31 -52 -16 -1 -34 -8 -40 -16 -8 -10 -15 -11 -31 -3 -14 8 -23 8 -30
1 -7 -7 -18 -3 -34 13 -13 13 -33 31 -43 39 -18 13 -19 12 -14 -13 3 -16 2
-28 -2 -28 -4 0 -10 -9 -13 -19 -2 -11 -14 -21 -25 -23 l-21 -3 20 -43 c13
-28 17 -51 13 -65 -5 -12 -7 -27 -6 -33 1 -6 -5 -17 -13 -24 -18 -15 -20 -41
-4 -57 9 -9 4 -21 -19 -48 l-30 -37 16 -49 c13 -42 14 -52 3 -59 -10 -6 -9 -9
8 -15 11 -3 21 -15 21 -25 0 -10 4 -21 10 -25 5 -3 7 -11 5 -18 -3 -7 0 -19 5
-27 9 -13 14 -10 35 15 25 30 25 30 31 8 4 -13 10 -23 14 -23 4 0 10 -9 13
-20 7 -29 24 -25 42 10 20 38 52 51 127 52 42 1 58 5 58 14 0 19 35 18 54 -1
22 -22 69 -9 63 16 -5 19 7 26 17 10 11 -18 60 -8 79 15 22 29 43 31 56 5 9
-16 23 -22 89 -36 7 -2 24 -10 37 -19 33 -22 71 -20 111 5 19 11 38 18 43 15
5 -3 12 1 15 9 8 22 41 3 43 -24 2 -18 -1 -19 -18 -11 -16 9 -19 7 -19 -11 0
-18 -2 -20 -16 -8 -13 11 -14 9 -9 -14 5 -18 3 -27 -5 -27 -6 0 -8 -4 -5 -10
9 -15 25 -12 25 5 0 9 9 15 21 15 25 0 47 20 41 38 -2 6 3 12 12 12 8 0 19 7
24 16 7 13 11 12 26 -11 15 -23 23 -26 67 -24 27 2 49 7 49 12 0 6 9 2 20 -8
11 -10 20 -25 20 -33 0 -8 6 -12 15 -8 9 3 15 0 15 -10 0 -8 5 -12 10 -9 6 3
13 -2 17 -12 3 -10 14 -25 24 -33 16 -14 16 -18 2 -52 -17 -44 -21 -44 -73
-19 -38 18 -38 18 -27 0 7 -11 15 -19 20 -19 14 0 77 -45 77 -55 0 -6 10 -15
22 -20 12 -6 35 -35 50 -65 15 -30 33 -62 40 -70 7 -8 14 -18 14 -22 1 -5 2
-11 3 -15 0 -3 9 2 20 11 16 15 19 15 24 1 7 -17 37 -21 37 -5 0 17 14 11 28
-11 8 -12 9 -18 3 -14 -7 3 -11 -2 -11 -13 0 -13 9 -22 26 -26 20 -5 25 -12
21 -27 -4 -13 0 -22 11 -25 9 -3 25 -10 35 -15 22 -12 24 13 1 35 -11 12 -14
32 -12 77 2 51 0 63 -17 74 -66 46 -74 76 -29 107 19 13 34 29 34 35 0 7 9 18
20 25 13 9 20 24 20 45 0 36 13 41 44 18 19 -14 66 -21 66 -10 0 3 -12 17 -27
30 -17 15 -22 24 -14 25 8 0 19 7 26 16 9 13 16 14 31 6 10 -6 15 -12 9 -12
-5 0 -3 -4 5 -10 12 -7 12 -12 -4 -29 -20 -22 -15 -51 9 -51 8 0 14 -3 13 -7
-2 -5 1 -8 7 -8 9 0 21 -44 29 -105 2 -14 4 -28 5 -32 0 -5 10 -8 21 -8 25 0
27 -20 3 -21 -11 0 -13 -3 -5 -6 6 -2 12 -11 12 -19 0 -17 -20 -19 -20 -1 -1
20 -30 -25 -30 -47 -1 -24 -22 -56 -38 -56 -7 0 -15 -12 -18 -27 -9 -36 -20
-43 -70 -43 -24 0 -47 -6 -54 -15 -7 -8 -16 -12 -21 -9 -5 2 -11 -6 -15 -20
-6 -25 -29 -40 -45 -30 -5 3 -9 0 -9 -5 0 -6 -9 -11 -20 -11 -11 0 -20 -7 -20
-15 0 -34 -21 -50 -60 -47 -31 3 -39 0 -45 -17 -3 -11 -17 -29 -30 -39 -13
-11 -22 -22 -19 -25 11 -11 -17 -46 -38 -49 -18 -2 -23 -9 -21 -29 1 -21 -5
-28 -35 -40 -21 -7 -50 -12 -66 -10 -27 3 -29 1 -16 -14 13 -15 12 -19 -8 -35
-27 -22 -29 -33 -4 -26 36 12 98 -85 85 -132 -4 -17 2 -21 38 -27 35 -6 40
-10 28 -19 -29 -21 -38 -48 -24 -70 7 -12 17 -52 21 -90 6 -62 5 -69 -10 -63
-14 5 -15 3 -6 -12 7 -14 6 -20 -5 -25 -8 -3 -15 -11 -15 -19 0 -7 -14 -24
-31 -36 -22 -16 -28 -26 -19 -31 7 -4 9 -16 6 -27 -9 -30 19 -48 67 -44 23 2
50 7 60 12 11 6 24 6 35 0 12 -7 22 -5 34 6 22 20 48 10 48 -19 0 -13 9 -29
19 -35 17 -11 20 -8 26 24 l6 35 47 -6 c37 -5 54 -2 80 14 22 13 32 26 28 35
-7 19 39 66 52 53 11 -11 52 23 52 42 0 6 11 10 25 10 14 0 25 5 25 12 0 6 10
31 21 55 19 38 25 44 49 41 32 -3 70 26 70 53 0 14 10 20 40 25 31 5 44 13 56
35 13 27 19 29 70 29 47 0 54 2 45 14 -9 11 -7 15 11 20 17 6 19 9 8 12 -8 3
-22 8 -30 11 -8 4 -20 5 -26 4 -6 0 -16 4 -21 11 -12 14 -22 88 -13 88 3 0 11
4 18 9 12 7 11 18 -4 65 -12 37 -15 60 -8 64 6 4 11 16 12 27 4 48 15 95 22
95 5 0 18 21 30 46 13 25 32 50 44 55 43 20 70 38 78 54 6 10 17 14 28 10 18
-6 50 18 50 37 0 6 -7 19 -15 29 -16 16 -12 69 5 69 4 0 12 26 19 57 6 31 21
77 33 102 l21 44 -26 21 c-15 12 -27 32 -27 44 0 27 -34 31 -44 5 -6 -14 -13
-10 -46 22 -22 22 -40 45 -40 53 0 8 -5 10 -12 6 -9 -5 -9 -2 1 9 12 15 11 17
-4 17 -9 0 -15 6 -12 13 2 6 9 12 16 12 6 0 16 7 22 15 8 13 11 13 22 -2 10
-13 21 -15 55 -8 28 5 47 3 58 -5 9 -6 27 -10 39 -7 13 2 33 -2 46 -9 13 -8
31 -15 39 -16 8 -1 26 -4 38 -7 21 -5 23 -3 18 20 -5 18 -3 25 5 22 17 -6 55
32 41 41 -19 11 -34 63 -22 71 20 12 -16 38 -47 33 -61 -9 -112 -26 -107 -35
10 -17 -6 -76 -23 -82 -15 -6 -53 13 -81 41 -22 21 -33 15 -26 -14 7 -27 6
-27 -12 -11 -10 9 -23 18 -29 20 -5 2 -9 13 -7 26 1 12 -2 22 -8 22 -5 0 -10
-8 -10 -18 0 -14 -8 -17 -37 -16 -43 2 -83 -20 -83 -47 0 -11 -8 -22 -17 -25
-10 -3 -28 -11 -40 -16 -12 -6 -30 -8 -39 -4 -10 4 -39 1 -66 -5 -45 -12 -49
-11 -73 11 -22 21 -25 21 -25 6 0 -13 -6 -17 -19 -13 -11 3 -25 -4 -36 -19
-17 -22 -53 -35 -40 -15 3 5 -3 16 -13 23 -11 7 -22 22 -26 34 -9 29 -49 21
-101 -21 -38 -30 -47 -32 -85 -18 -8 3 -23 5 -32 4 -27 -3 -56 17 -60 41 -2
19 -8 22 -35 20 -17 -2 -34 1 -38 7 -3 6 -20 11 -37 11 -25 0 -28 2 -18 15 17
20 -7 82 -34 89 -19 5 -19 7 9 21 38 21 37 18 26 48 -9 23 -8 26 17 29 24 3
27 7 27 43 0 38 2 40 33 43 26 3 32 0 32 -16 0 -10 8 -26 18 -35 21 -19 42
-23 24 -5 -7 7 -12 27 -12 45 0 18 -5 33 -11 33 -7 0 -9 12 -7 31 4 27 1 32
-24 41 -23 8 -28 16 -28 43 0 19 5 37 10 40 17 11 11 33 -19 68 -27 30 -30 39
-28 100 1 52 -2 70 -16 84 -10 11 -17 13 -17 5 0 -16 -62 -16 -79 1 -8 7 -7 1
3 -14 8 -14 29 -35 45 -47 38 -28 40 -78 4 -116 -14 -15 -30 -25 -36 -23 -5 1
-17 25 -24 53 -9 28 -25 57 -39 67 -13 10 -24 24 -24 30 0 7 -11 17 -24 23
-19 9 -28 8 -46 -6 -13 -10 -20 -22 -16 -29 4 -6 1 -11 -7 -11 -7 0 -23 -11
-35 -25 -24 -28 -52 -33 -52 -10 0 7 -6 18 -14 22 -20 12 -24 37 -8 49 15 11
24 85 13 102 -3 5 -14 9 -24 9 -16 0 -16 -2 -1 -18 15 -17 15 -19 1 -25 -9 -3
-21 -3 -27 1 -5 3 -20 -1 -32 -9 -22 -16 -67 -12 -79 6 -4 6 -15 4 -27 -3 -19
-12 -26 -11 -53 5 -26 15 -33 16 -40 5 -5 -8 -7 -20 -4 -27 3 -8 5 -20 5 -28
0 -8 6 -14 13 -14 12 0 47 -114 47 -151 0 -9 6 -22 14 -28 8 -6 16 -27 18 -46
4 -32 1 -35 -22 -37 -14 0 -34 0 -45 0 -16 2 -17 0 -5 -7 18 -12 6 -26 -15
-17 -12 4 -15 13 -10 34 4 20 1 33 -10 42 -8 7 -15 20 -15 29 0 9 -5 22 -11
28 -8 8 -8 13 0 17 17 11 13 29 -4 22 -9 -3 -24 3 -35 14 -11 11 -24 20 -29
20 -15 0 -24 39 -17 74 6 29 2 35 -29 57 -19 14 -55 44 -79 67 -25 23 -54 43
-65 45 -11 2 -24 7 -28 11 -5 4 -3 7 2 6 22 -5 35 1 35 15 0 8 7 15 16 15 12
0 15 6 10 25 -5 19 -3 23 9 19 8 -4 15 -2 15 3 0 5 -20 10 -45 10 -40 0 -45
-3 -45 -23 0 -29 -38 -44 -55 -21 -7 10 -20 14 -33 10 -13 -3 -22 -1 -22 6 0
6 -7 11 -15 11 -8 0 -15 7 -15 15 0 8 -6 15 -13 15 -7 0 -28 11 -47 25 -36 26
-50 31 -50 16z m890 -435 c0 -17 -14 -29 -23 -20 -8 8 3 34 14 34 5 0 9 -6 9
-14z m-500 -81 c0 -7 6 -16 13 -18 8 -4 9 -8 1 -14 -6 -4 -16 -17 -23 -28 -7
-11 -10 -13 -8 -5 2 8 -2 25 -9 38 -10 19 -10 27 -1 37 14 15 27 10 27 -10z
m-37 -110 c4 -8 2 -17 -2 -20 -5 -2 -11 4 -14 15 -6 23 8 27 16 5z m277 -105
c8 -5 11 -10 5 -10 -5 0 -17 5 -25 10 -8 5 -10 10 -5 10 6 0 17 -5 25 -10z
m-70 -36 c0 -2 -7 -4 -15 -4 -8 0 -15 4 -15 10 0 5 7 7 15 4 8 -4 15 -8 15
-10z m78 -39 c2 -2 1 -8 -2 -14 -8 -12 -56 7 -56 22 0 8 49 1 58 -8z m-136
-77 c-7 -7 -12 -8 -12 -2 0 14 12 26 19 19 2 -3 -1 -11 -7 -17z m648 -94 c0
-2 -9 -4 -21 -4 -11 0 -18 4 -14 10 5 8 35 3 35 -6z m313 -169 c-3 -14 -38
-24 -54 -14 -12 8 -12 10 1 19 18 12 56 9 53 -5z"/>
<path d="M8079 10981 c-21 -20 -18 -81 5 -115 9 -14 16 -29 16 -34 0 -11 57
-62 70 -62 5 0 15 -10 21 -22 8 -14 14 -18 17 -10 2 6 10 12 17 12 11 0 11 6
2 32 -9 24 -9 32 1 35 6 3 12 10 12 17 0 14 -36 47 -43 39 -3 -3 -11 14 -18
37 -11 36 -33 60 -74 82 -5 3 -17 -2 -26 -11z"/>
<path d="M7602 10950 c-12 -26 -11 -33 5 -54 22 -31 34 -32 51 -6 11 17 10 21
-5 27 -24 9 -34 25 -27 46 9 29 -10 19 -24 -13z"/>
<path d="M14130 10930 c-6 -11 -16 -20 -23 -20 -7 0 -30 -20 -50 -45 -27 -32
-45 -45 -64 -45 -14 0 -42 -12 -62 -27 -20 -16 -38 -28 -41 -29 -19 -3 -40
-18 -40 -28 0 -12 -148 -5 -183 9 -19 8 -128 -35 -161 -64 -24 -21 -116 -22
-132 -1 -10 12 -15 12 -27 1 -11 -8 -21 -9 -34 -3 -18 9 -40 4 -158 -41 -36
-14 -42 -14 -57 0 -9 8 -33 18 -52 23 -31 7 -36 5 -36 -9 0 -10 -11 -28 -25
-41 -14 -13 -25 -29 -25 -37 0 -7 -6 -13 -14 -13 -8 0 -16 -5 -18 -11 -3 -9
-10 -9 -26 0 -15 8 -22 8 -22 1 0 -6 -4 -9 -9 -5 -6 3 -15 -4 -21 -15 -6 -11
-17 -20 -25 -20 -8 0 -15 -7 -15 -15 0 -9 -9 -15 -25 -15 -23 0 -24 -2 -15
-20 8 -16 7 -26 -5 -42 -9 -13 -15 -44 -15 -75 0 -45 -2 -51 -17 -46 -17 7
-13 -5 12 -37 28 -36 5 -100 -36 -100 -21 0 -54 -62 -45 -86 4 -12 1 -14 -13
-9 -18 5 -19 2 -15 -39 3 -26 1 -47 -6 -51 -8 -5 -8 -11 -1 -19 8 -9 6 -18 -8
-30 -18 -17 -21 -17 -45 -1 -14 10 -26 21 -26 26 0 14 -30 10 -30 -3 -1 -7
-10 -2 -21 12 l-21 24 21 10 c38 17 5 86 -41 86 -22 0 -40 -40 -27 -56 6 -7
11 -28 13 -48 2 -30 0 -36 -13 -30 -49 20 -84 25 -91 14 -6 -9 -13 -9 -28 -1
-44 23 -63 2 -36 -40 4 -8 0 -9 -15 -4 -15 4 -21 2 -21 -8 0 -22 -46 -38 -76
-27 -34 13 -44 13 -44 -3 0 -7 -13 -23 -29 -34 -23 -18 -29 -31 -33 -74 -5
-43 -11 -58 -35 -79 -16 -14 -33 -33 -36 -42 -4 -10 -13 -18 -21 -18 -10 0
-13 -6 -10 -15 8 -20 -13 -19 -24 1 -6 12 -11 13 -16 5 -5 -8 -15 -5 -33 9
-14 11 -33 20 -42 19 -12 0 -11 -2 4 -9 12 -4 27 -15 35 -25 24 -29 91 -57
135 -57 30 0 49 -6 61 -19 9 -10 30 -19 46 -19 16 0 31 -6 34 -15 4 -8 14 -15
24 -15 9 0 21 -10 27 -22 11 -25 35 -31 117 -29 36 1 65 -4 75 -12 9 -7 35
-19 59 -27 27 -8 42 -19 42 -30 0 -9 5 -21 12 -28 13 -13 32 -16 24 -4 -2 4
-1 13 3 20 6 9 19 6 54 -14 26 -14 47 -30 47 -35 0 -6 7 -6 19 0 14 8 20 25
23 73 3 35 3 68 1 74 -2 6 -28 10 -61 10 -56 -1 -57 0 -54 26 1 14 -2 29 -8
33 -17 10 -11 25 9 25 33 0 33 17 1 28 -24 9 -31 8 -39 -6 -9 -16 -10 -16 -17
1 -6 17 -7 17 -27 0 -20 -18 -20 -17 -13 9 5 23 0 32 -34 59 -28 23 -40 40
-40 58 0 41 13 53 46 45 24 -5 27 -4 17 7 -15 15 -18 89 -4 89 16 0 24 -21 12
-33 -15 -15 -14 -27 3 -27 21 0 31 -21 15 -31 -11 -6 1 -23 50 -69 67 -62 81
-70 81 -45 0 25 16 17 41 -20 35 -51 65 -58 127 -29 1 1 0 9 -4 18 -3 9 -10
13 -15 10 -5 -3 -9 3 -9 13 0 14 -2 15 -9 4 -11 -17 -45 0 -62 31 -9 17 -8 23
4 29 9 5 13 18 9 34 -2 14 0 31 6 38 13 15 -5 58 -27 65 -10 3 -11 0 -5 -9 5
-9 0 -8 -18 3 -21 14 -29 15 -35 5 -11 -18 -4 -60 14 -74 12 -10 13 -18 3 -47
-10 -32 -14 -35 -32 -25 -11 6 -26 8 -33 5 -7 -2 -16 2 -19 11 -4 11 -2 14 9
9 12 -4 14 0 8 21 -7 31 -42 64 -60 58 -7 -2 -15 0 -19 6 -11 19 4 21 35 5 39
-20 58 -21 42 -2 -13 16 -6 42 15 50 8 3 14 12 14 20 0 21 23 26 51 10 28 -15
59 -18 59 -5 0 5 14 8 31 7 25 -1 35 -10 59 -51 30 -51 61 -65 88 -38 7 7 26
13 42 13 16 0 32 5 35 10 4 7 12 7 25 0 14 -8 21 -5 34 15 9 13 16 29 16 35 0
7 6 7 21 0 16 -9 30 -8 62 6 69 28 116 33 171 19 43 -11 52 -11 59 1 4 8 16
14 26 14 25 0 43 23 35 45 -6 14 -3 16 14 10 13 -4 22 -2 22 4 0 6 14 10 31 9
28 -3 32 0 36 26 2 16 0 32 -5 35 -4 3 -13 36 -18 73 -8 54 -7 68 3 72 9 4 11
14 7 31 -5 19 -2 25 10 25 22 0 21 45 -1 68 -23 22 -29 84 -8 75 8 -3 15 -11
15 -18 0 -7 15 -19 33 -26 17 -7 49 -32 70 -56 26 -28 47 -43 63 -43 13 0 24
-4 24 -10 0 -5 7 -7 15 -4 9 4 19 -4 27 -23 6 -15 20 -38 31 -49 12 -14 15
-24 8 -29 -6 -3 -11 -11 -11 -16 0 -10 50 18 61 34 4 5 15 6 26 3 10 -3 28 0
38 8 13 10 25 11 37 5 10 -6 19 -5 23 1 10 16 37 -1 32 -21 -3 -12 0 -19 9
-19 8 0 14 4 14 10 0 12 29 2 54 -19 18 -15 19 -15 13 1 -4 12 -2 15 9 11 8
-3 13 -11 11 -17 -2 -6 16 -21 41 -34 35 -18 47 -20 59 -11 16 14 2 34 -24 34
-27 0 -39 30 -26 64 8 22 8 33 -1 41 -8 10 -5 11 17 8 15 -3 30 -1 33 4 3 5
14 6 25 3 14 -5 19 -2 19 12 0 10 16 40 35 67 23 33 35 61 35 83 0 18 4 33 9
33 5 0 11 9 14 21 3 12 10 18 17 14 6 -4 18 -4 26 -1 11 4 6 16 -22 56 -42 58
-55 128 -29 154 8 8 15 19 15 25 0 5 14 18 30 28 17 9 30 24 30 33 0 9 7 25
15 37 19 27 13 43 -28 68 -51 31 -70 38 -99 36 -22 -2 -28 2 -28 18 0 13 -6
21 -18 21 -10 0 -25 9 -35 20 -10 12 -29 20 -47 20 -19 0 -33 -7 -40 -20z"/>
<path d="M7730 10913 c-54 -7 -56 -19 -6 -32 34 -8 49 -19 60 -39 18 -35 126
-78 147 -58 9 8 10 8 6 0 -12 -22 24 -24 50 -4 14 11 29 17 34 14 5 -3 9 6 9
20 0 16 -6 26 -15 26 -8 0 -15 6 -15 14 0 8 -11 28 -25 43 -19 21 -27 25 -33
15 -7 -10 -15 -10 -36 -2 -35 13 -36 13 -36 -5 0 -13 -4 -14 -20 -5 -11 6 -20
7 -20 3 0 -4 -5 -2 -12 5 -12 12 -22 12 -88 5z"/>
<path d="M9840 10903 c0 -5 5 -15 10 -23 9 -13 11 -13 19 0 5 8 7 18 5 22 -6
10 -34 11 -34 1z"/>
<path d="M8010 10871 c0 -6 4 -13 10 -16 6 -3 7 1 4 9 -7 18 -14 21 -14 7z"/>
<path d="M9240 10550 c20 -13 33 -13 25 0 -3 6 -14 10 -23 10 -15 0 -15 -2 -2
-10z"/>
<path d="M14447 10494 c-13 -13 -7 -24 14 -24 11 0 19 5 17 12 -5 14 -22 21
-31 12z"/>
<path d="M13558 10293 c-23 -6 -23 -15 2 -31 18 -11 20 -10 20 13 0 14 -1 24
-2 24 -2 -1 -11 -3 -20 -6z"/>
<path d="M8632 10196 c20 -6 46 -24 58 -39 14 -18 29 -27 40 -24 18 5 39 -21
46 -56 2 -12 11 -25 19 -30 8 -4 13 -12 10 -17 -6 -9 19 -21 53 -25 34 -5 26
37 -8 45 -16 4 -28 16 -35 35 -12 36 -52 71 -76 67 -11 -2 -24 9 -35 28 -16
27 -23 30 -64 29 l-45 -1 37 -12z"/>
<path d="M7005 10180 c-3 -5 1 -10 9 -10 8 0 18 5 21 10 3 6 -1 10 -9 10 -8 0
-18 -4 -21 -10z"/>
<path d="M7040 10160 c0 -5 5 -10 11 -10 5 0 7 5 4 10 -3 6 -8 10 -11 10 -2 0
-4 -4 -4 -10z"/>
<path d="M9670 10100 c0 -5 5 -10 10 -10 6 0 10 5 10 10 0 6 -4 10 -10 10 -5
0 -10 -4 -10 -10z"/>
<path d="M13538 10053 c7 -3 16 -2 19 1 4 3 -2 6 -13 5 -11 0 -14 -3 -6 -6z"/>
<path d="M14208 10023 c-4 -14 1 -18 23 -18 18 0 30 6 33 18 3 13 -2 17 -24
17 -18 0 -29 -6 -32 -17z"/>
<path d="M8190 9954 c0 -10 -13 -14 -45 -14 -25 0 -45 -3 -45 -7 1 -27 83 -85
106 -76 8 3 14 12 14 20 0 9 6 13 14 10 8 -3 20 1 27 9 11 13 9 14 -16 8 -27
-7 -28 -6 -21 27 5 30 3 35 -14 36 -11 1 -20 -4 -20 -13z"/>
<path d="M11595 9749 c6 -17 64 -45 83 -41 7 2 30 -7 50 -19 37 -21 37 -21 18
0 -11 12 -25 21 -32 21 -7 0 -15 9 -19 19 -3 11 -15 19 -28 19 -12 0 -34 4
-50 7 -21 6 -26 4 -22 -6z"/>
<path d="M12616 9591 c-4 -7 -5 -15 -2 -18 9 -9 19 4 14 18 -4 11 -6 11 -12 0z"/>
<path d="M11102 9485 c-11 -12 -10 -15 3 -15 8 0 15 7 15 15 0 18 -2 18 -18 0z"/>
<path d="M12690 9490 c0 -5 5 -10 10 -10 6 0 10 5 10 10 0 6 -4 10 -10 10 -5
0 -10 -4 -10 -10z"/>
<path d="M12570 9315 c0 -8 -14 -22 -30 -32 -27 -16 -28 -18 -11 -25 18 -6 18
-8 3 -42 -10 -20 -23 -33 -29 -31 -8 2 -13 -4 -13 -15 0 -10 -6 -25 -13 -32
-8 -7 -12 -19 -9 -27 3 -8 0 -11 -7 -7 -7 5 -9 1 -5 -8 4 -10 -1 -19 -12 -23
-10 -4 -25 -13 -34 -20 -8 -7 -24 -19 -35 -27 -20 -14 -20 -15 3 -45 12 -17
22 -35 22 -41 0 -24 64 -102 93 -114 18 -8 49 -21 69 -29 20 -9 44 -28 54 -42
9 -13 21 -22 27 -18 6 4 8 -3 3 -20 -5 -20 -1 -29 21 -45 18 -13 23 -23 17
-33 -5 -8 -9 -23 -9 -34 0 -13 -6 -20 -17 -19 -20 2 -23 -7 -7 -23 6 -6 12
-23 13 -37 2 -15 13 -37 25 -50 14 -15 21 -35 21 -60 0 -34 2 -38 21 -33 27 7
69 -19 69 -43 0 -9 13 -35 29 -57 16 -23 27 -44 24 -47 -4 -3 12 -6 35 -6 33
0 42 -4 42 -17 0 -9 3 -13 6 -10 4 4 19 -2 34 -13 29 -21 100 -28 100 -10 0
20 64 10 89 -14 15 -13 36 -27 49 -31 20 -6 22 -3 22 35 0 33 4 43 20 47 22 6
27 52 11 96 -8 19 -15 23 -39 19 -22 -3 -36 2 -52 18 -12 12 -19 24 -16 27 3
4 0 13 -7 21 -10 13 -8 14 11 8 18 -6 22 -3 22 12 0 11 -7 25 -15 32 -8 7 -15
18 -15 25 0 7 7 18 15 25 18 15 20 32 3 29 -7 -2 -30 13 -50 31 l-36 34 20 36
21 36 -27 57 c-16 31 -26 62 -23 69 2 7 -5 26 -16 42 -14 20 -16 30 -8 35 8 5
7 16 -5 40 -18 36 -64 61 -112 61 -17 0 -38 10 -52 25 -27 29 -40 32 -40 9 0
-13 -7 -15 -37 -9 -58 11 -74 22 -67 49 4 18 -1 27 -26 43 -26 17 -33 28 -35
60 -2 23 -15 58 -33 84 -16 24 -32 54 -36 66 -8 25 -36 39 -36 18z"/>
<path d="M8169 8983 c-1 -5 -2 -21 -3 -38 -1 -25 -6 -31 -27 -33 -32 -4 -46
-38 -21 -51 34 -18 92 61 72 98 -5 10 -6 21 -3 25 3 3 1 6 -5 6 -7 0 -13 -3
-13 -7z"/>
<path d="M8018 8927 c-6 -15 29 -50 37 -37 4 6 1 10 -4 10 -6 0 -11 6 -11 14
0 19 -17 29 -22 13z"/>
<path d="M9297 8837 c-10 -10 -16 -22 -12 -25 3 -4 10 0 16 8 8 13 10 13 19 0
9 -13 10 -13 10 0 0 29 -14 37 -33 17z"/>
<path d="M10706 8698 c-7 -53 -5 -77 6 -84 6 -4 14 0 19 7 6 10 9 11 9 2 0 -7
7 -13 15 -13 19 0 19 2 -5 45 -11 20 -20 44 -20 55 0 33 -19 23 -24 -12z"/>
<path d="M10834 8615 c-5 -20 -10 -23 -34 -19 -20 5 -29 1 -34 -12 -8 -20 9
-34 34 -27 10 3 21 0 24 -6 16 -25 36 -11 36 24 0 34 12 46 25 25 4 -6 11 -7
17 -4 12 8 -29 43 -49 44 -7 0 -15 -11 -19 -25z"/>
<path d="M10940 8580 c19 -13 30 -13 30 0 0 6 -10 10 -22 10 -19 0 -20 -2 -8
-10z"/>
<path d="M13722 8233 c5 -25 28 -28 28 -4 0 12 -6 21 -16 21 -9 0 -14 -7 -12
-17z"/>
<path d="M13700 8201 c0 -5 5 -13 10 -16 6 -3 10 -2 10 4 0 5 -4 13 -10 16 -5
3 -10 2 -10 -4z"/>
<path d="M13272 8147 c-13 -15 -7 -47 9 -47 5 0 9 7 9 16 0 24 28 -1 32 -29 2
-18 10 -22 40 -22 21 0 38 3 38 8 0 4 9 2 20 -5 11 -7 18 -19 15 -27 -4 -9 0
-11 11 -7 8 3 20 6 25 6 5 0 9 7 9 16 0 13 6 15 28 9 88 -24 92 -24 103 -3 11
20 11 20 26 -2 12 -17 17 -19 24 -9 13 21 12 23 -35 53 -25 15 -47 34 -49 41
-3 8 -29 13 -70 14 -55 1 -66 -1 -72 -16 -3 -10 -14 -28 -24 -41 -18 -20 -22
-21 -47 -10 -16 7 -40 26 -54 42 -22 24 -27 26 -38 13z"/>
<path d="M13687 8141 c-3 -14 0 -17 14 -14 10 3 15 11 12 19 -7 20 -20 17 -26
-5z"/>
<path d="M13236 8095 c-9 -26 -7 -32 5 -12 6 10 9 21 6 23 -2 3 -7 -2 -11 -11z"/>
<path d="M13200 8060 c0 -6 -12 -16 -27 -22 l-28 -12 34 -4 c41 -4 76 22 51
38 -20 13 -30 12 -30 0z"/>
<path d="M13294 8035 c4 -11 -2 -13 -27 -8 -31 6 -32 6 -14 -14 9 -11 17 -25
17 -31 0 -7 15 -12 36 -12 29 0 35 3 30 16 -3 9 -6 24 -6 34 0 10 -9 20 -21
23 -15 4 -19 2 -15 -8z"/>
<path d="M13602 8008 c-10 -36 -6 -50 7 -29 5 7 13 11 19 7 7 -4 10 5 10 24
-1 40 -25 39 -36 -2z"/>
<path d="M13660 8008 c-12 -22 -12 -22 6 -6 10 10 15 20 12 24 -4 3 -12 -5
-18 -18z"/>
</g>
</svg>
