<?xml version="1.0" standalone="no"?>
<!DOCTYPE svg PUBLIC "-//W3C//DTD SVG 20010904//EN"
 "http://www.w3.org/TR/2001/REC-SVG-20010904/DTD/svg10.dtd">
<svg version="1.0" xmlns="http://www.w3.org/2000/svg"
 width="680.694766pt" height="533.723241pt" viewBox="0 0 680.694766 533.723241"
 preserveAspectRatio="xMidYMid meet">
<metadata>
Created by potrace 1.15, written by Peter Selinger 2001-2017
</metadata>
<g transform="translate(-630.346878,1258.000000) scale(0.100000,-0.100000)"
fill="#222222" stroke="none">
<path d="M12747 12562 c-10 -10 -17 -24 -17 -30 0 -7 -11 -12 -24 -12 -13 0
-29 -7 -36 -15 -7 -8 -19 -15 -27 -15 -8 0 -11 -5 -8 -10 4 -6 -6 -23 -22 -38
-50 -47 -63 -76 -53 -112 10 -34 4 -60 -13 -60 -7 0 -7 -4 1 -12 17 -17 15
-83 -3 -98 -18 -15 -20 -40 -2 -40 26 0 40 18 35 44 -3 15 0 31 8 37 8 6 14
19 14 29 0 9 11 22 24 28 25 11 44 67 33 96 -3 7 1 23 9 34 8 11 11 28 8 37
-5 11 0 18 15 22 14 3 21 13 21 29 0 20 4 23 23 19 19 -5 25 1 43 40 19 41 19
45 4 45 -9 0 -24 -8 -33 -18z"/>
<path d="M12814 12554 c3 -9 6 -18 6 -20 0 -2 7 -4 15 -4 20 0 19 26 -1 34
-24 9 -27 8 -20 -10z"/>
<path d="M12390 12148 c0 -2 7 -25 15 -51 11 -39 12 -52 2 -68 -10 -16 -9 -21
2 -28 9 -6 10 -11 2 -15 -6 -4 -11 -1 -11 6 0 8 -5 7 -16 -4 -15 -15 -14 -18
5 -37 27 -27 19 -43 -16 -35 -22 6 -25 4 -20 -9 3 -9 0 -32 -8 -50 -15 -37 -8
-55 27 -73 14 -8 13 -13 -13 -42 -16 -18 -33 -31 -37 -28 -10 6 -9 -76 1 -91
4 -7 5 -23 2 -36 -5 -18 0 -28 19 -40 14 -10 27 -17 28 -17 7 0 2 69 -5 76 -4
4 -7 12 -7 17 0 5 16 -3 36 -18 36 -27 37 -28 50 -9 7 10 18 24 24 31 5 7 10
21 10 32 0 11 5 23 10 26 7 4 7 12 0 25 -13 25 -13 30 4 30 8 0 16 10 18 23 2
12 9 23 16 23 6 1 17 2 23 3 5 0 8 5 4 10 -3 5 0 13 6 16 6 4 8 18 4 32 -4 16
-2 22 5 18 16 -10 12 15 -6 32 -20 20 -15 58 9 57 9 -1 17 2 17 7 0 5 7 9 15
9 19 0 40 49 26 63 -5 5 -17 5 -30 -2 -16 -9 -21 -9 -21 0 0 17 -63 73 -78 70
-8 -1 -20 3 -28 10 -8 6 -14 8 -14 5 0 -4 -13 2 -29 13 -26 19 -41 26 -41 19z
m185 -157 c3 -5 1 -12 -4 -15 -5 -3 -11 1 -15 9 -6 16 9 21 19 6z"/>
<path d="M11997 11963 c-4 -3 -7 -13 -7 -22 1 -13 3 -13 11 2 11 19 8 33 -4
20z"/>
<path d="M12270 11955 c-7 -8 -23 -15 -36 -15 -12 0 -26 -4 -29 -10 -3 -5 -15
-10 -26 -10 -28 0 -25 -42 6 -68 30 -26 51 -28 59 -6 3 8 10 13 15 10 5 -3 11
3 14 14 3 12 0 20 -8 20 -11 0 -25 20 -25 36 0 3 12 -2 26 -9 24 -13 29 -12
46 5 14 14 29 19 48 16 16 -2 27 -1 24 4 -3 4 -12 8 -20 8 -8 0 -14 5 -14 10
0 6 -7 10 -15 10 -8 0 -15 -5 -15 -12 0 -9 -3 -9 -12 0 -16 16 -23 15 -38 -3z"/>
<path d="M11846 11895 c-7 -20 25 -51 60 -59 23 -4 37 1 62 23 l33 29 -43 -5
c-24 -2 -51 -6 -62 -8 -12 -2 -20 3 -23 16 -6 23 -19 25 -27 4z"/>
<path d="M12010 11870 l-23 -20 23 -18 c27 -22 21 -64 -8 -56 -9 2 -7 -1 6 -7
18 -10 25 -9 40 4 10 10 24 17 30 17 7 0 12 5 12 10 0 6 3 10 8 10 4 0 8 -18
9 -40 1 -46 17 -70 44 -70 23 0 25 23 4 40 -14 11 -13 14 5 27 31 22 27 69 -9
87 -16 9 -31 12 -34 9 -4 -3 -12 -1 -19 4 -28 22 -65 23 -88 3z m50 -35 c0 -8
-6 -15 -14 -15 -17 0 -28 14 -19 24 12 12 33 6 33 -9z"/>
<path d="M12710 11816 c0 -20 -87 -78 -94 -63 -2 7 -5 4 -5 -5 -1 -10 -5 -18
-10 -18 -5 0 -12 -11 -15 -25 -4 -14 -12 -25 -19 -25 -12 -1 -57 -64 -57 -81
0 -5 -16 -26 -36 -45 -26 -27 -42 -35 -60 -31 -13 2 -24 -1 -25 -7 0 -6 -2
-24 -3 -41 -2 -32 17 -54 46 -55 9 0 19 -9 23 -19 4 -12 12 -17 23 -14 19 5
47 -40 37 -58 -4 -5 7 -21 22 -36 18 -18 28 -38 28 -58 0 -28 2 -30 32 -27 22
2 40 -3 55 -17 26 -25 40 -27 32 -6 -3 8 3 30 15 48 12 19 21 44 21 56 0 21 1
21 22 7 29 -21 48 -20 48 2 0 9 6 24 13 33 15 20 97 60 108 53 5 -3 9 8 9 24
0 17 -11 41 -30 62 -16 18 -30 41 -30 51 0 9 -8 20 -17 23 -44 17 -64 33 -70
56 -3 14 -10 30 -15 37 -7 8 -3 21 11 39 25 31 27 50 7 57 -8 3 -24 26 -35 51
-20 47 -31 58 -31 32z m110 -305 c0 -12 -29 -23 -41 -15 -18 10 -9 24 16 24
14 0 25 -4 25 -9z"/>
<path d="M11943 11746 c-10 -11 -9 -16 5 -21 9 -3 13 -3 9 1 -4 4 -2 13 4 21
15 17 -2 16 -18 -1z"/>
<path d="M11986 11731 c-13 -24 -20 -27 -53 -25 -21 1 -40 3 -43 4 -3 1 -9 2
-15 0 -5 -1 -15 6 -21 15 -11 14 -14 13 -32 -9 -10 -14 -22 -23 -24 -20 -3 3
-8 -4 -11 -16 -3 -11 0 -20 6 -20 20 -1 -34 -40 -54 -40 -10 0 -22 -6 -26 -13
-4 -7 -25 -21 -45 -32 -21 -11 -38 -23 -38 -27 0 -5 -7 -8 -15 -8 -8 0 -15 -5
-15 -11 0 -6 -6 -9 -12 -6 -7 2 -13 12 -13 22 0 22 -58 65 -86 65 -10 0 -24
12 -32 26 -9 18 -30 32 -67 44 l-53 18 -38 -39 c-36 -37 -37 -40 -24 -66 8
-16 15 -43 15 -60 0 -18 5 -33 11 -33 29 0 51 -51 28 -65 -10 -7 55 -75 71
-75 4 0 20 -17 36 -37 15 -21 24 -35 19 -31 -4 4 -14 3 -21 -3 -15 -12 -37 -3
-29 12 7 11 7 11 -31 0 -32 -9 -79 12 -59 27 6 4 16 15 24 25 12 15 11 17 -9
17 -13 0 -24 -8 -27 -20 -3 -11 -10 -20 -16 -20 -6 0 -1 -9 11 -20 30 -28 28
-50 -3 -50 -14 0 -28 -7 -31 -15 -4 -8 -13 -15 -22 -15 -13 0 -12 3 3 20 10
11 13 20 7 20 -6 0 -13 8 -17 19 -4 13 -12 17 -31 13 -19 -3 -23 -9 -19 -23 4
-11 2 -19 -5 -19 -7 0 -8 -6 -2 -17 5 -10 7 -24 5 -30 -7 -18 -33 -16 -33 2 0
8 -4 15 -10 15 -14 0 -12 -11 5 -34 10 -14 11 -24 4 -38 -8 -14 -6 -20 8 -25
57 -22 63 -79 17 -161 -13 -24 -22 -48 -18 -53 3 -5 1 -15 -4 -22 -21 -27 -22
-75 -2 -99 l20 -23 -7 34 -6 33 32 -16 c26 -14 31 -14 31 -2 0 16 43 30 48 16
2 -6 9 -16 16 -23 27 -27 26 -46 -3 -61 -22 -12 -31 -12 -42 -3 -11 10 -11 9
-2 -3 7 -9 9 -20 5 -25 -10 -14 -79 -18 -87 -5 -3 5 1 10 9 10 9 0 16 9 16 20
0 11 -6 20 -14 20 -23 0 -84 43 -89 63 -3 9 -12 17 -19 17 -19 0 -44 53 -29
58 6 2 11 15 11 28 0 14 6 24 15 24 9 0 12 6 9 15 -4 8 -10 13 -14 10 -13 -8
-19 21 -13 59 4 24 2 36 -6 36 -6 0 -11 -6 -11 -12 0 -7 -18 6 -39 29 -38 40
-41 41 -75 32 -35 -10 -39 -8 -84 32 -26 23 -46 45 -45 50 2 4 -7 11 -20 15
-31 10 -37 22 -37 85 0 41 -4 58 -15 63 -10 3 -15 -1 -15 -13 0 -27 -45 -65
-71 -58 -12 3 -29 2 -38 -3 -9 -5 -30 -14 -48 -21 -25 -11 -30 -17 -22 -30 5
-10 9 -20 9 -23 0 -11 -56 -6 -68 6 -8 8 -15 8 -26 -1 -10 -8 -16 -9 -21 -1
-3 6 -11 8 -16 4 -5 -3 -16 -1 -23 5 -10 8 -17 7 -26 -4 -15 -18 -26 -12 -50
27 -17 29 -17 31 1 49 26 26 24 34 -17 58 -31 19 -34 24 -23 37 11 14 10 18
-4 29 -9 7 -17 19 -17 28 0 10 -11 17 -32 19 -17 2 -33 9 -36 16 -2 7 2 10 12
6 8 -3 23 -1 33 5 16 9 16 10 1 11 -25 0 -26 31 -1 58 22 24 23 42 2 42 -5 0
-9 -7 -7 -16 2 -10 -15 -30 -44 -50 l-48 -34 -15 24 c-11 17 -28 25 -63 29
-63 7 -102 -1 -95 -20 4 -9 -2 -16 -16 -20 -11 -3 -21 -9 -21 -14 0 -5 -4 -9
-10 -9 -14 0 -12 27 3 33 6 3 2 6 -10 6 -29 1 -31 21 -3 21 20 0 38 25 27 36
-9 9 -48 -7 -42 -17 4 -5 -1 -9 -10 -9 -11 0 -15 -5 -11 -15 3 -10 -1 -18 -12
-21 -9 -3 -27 -10 -39 -16 -11 -6 -26 -8 -31 -4 -14 9 -33 -19 -26 -38 7 -19
-1 -20 -76 -4 -47 9 -60 17 -78 45 -20 30 -49 42 -65 26 -4 -3 -2 -12 4 -19 7
-8 7 -14 -1 -19 -5 -3 -10 0 -10 8 0 19 -31 31 -40 17 -4 -6 -18 -8 -31 -5
-24 6 -69 -24 -69 -45 0 -6 -9 -10 -21 -10 -22 0 -49 -22 -49 -39 0 -6 -12 -8
-29 -5 -16 4 -32 1 -35 -5 -4 -6 -12 -9 -17 -6 -5 4 -24 -5 -41 -18 -18 -14
-42 -27 -53 -31 -11 -3 -26 -19 -32 -36 -8 -22 -18 -30 -36 -30 -13 0 -30 -7
-37 -15 -7 -8 -19 -15 -26 -15 -18 0 -18 -14 1 -30 8 -7 15 -25 15 -41 0 -26
-3 -29 -24 -23 -18 4 -27 1 -35 -15 -7 -12 -17 -18 -26 -15 -9 4 -15 0 -15 -9
0 -9 -16 -28 -35 -43 -21 -16 -35 -35 -35 -48 0 -12 -5 -27 -11 -33 -7 -7 -2
-27 20 -67 24 -45 28 -62 21 -81 -5 -14 -5 -37 0 -56 5 -17 7 -35 5 -40 -3 -4
-2 -14 1 -23 7 -18 39 -22 49 -5 4 6 19 7 36 4 28 -6 35 0 30 28 -1 4 6 10 14
13 8 4 15 15 15 25 0 12 7 19 19 19 11 0 23 4 26 10 4 6 17 4 35 -5 16 -8 38
-15 49 -15 11 0 22 -4 25 -8 6 -10 -8 -34 -20 -31 -23 4 -23 -4 2 -37 19 -24
33 -34 46 -31 22 6 80 -47 66 -61 -5 -5 -3 -14 7 -22 17 -14 21 -35 4 -24 -7
4 -7 -1 1 -15 10 -19 8 -25 -11 -42 -12 -10 -19 -22 -16 -25 13 -13 -27 -64
-50 -64 -13 0 -23 -4 -23 -10 0 -5 -6 -10 -14 -10 -20 0 -15 -59 6 -71 22 -12
48 -1 48 22 0 10 7 19 15 19 8 0 15 6 15 13 0 9 12 14 30 15 51 1 71 12 68 35
-2 15 3 23 17 25 11 2 26 11 33 20 14 19 16 72 2 72 -5 0 -10 9 -10 20 0 13 7
20 20 20 18 0 20 4 14 41 -7 39 -6 41 14 30 11 -6 35 -11 52 -11 27 0 31 3 25
18 -5 14 -4 15 7 4 11 -11 10 -15 -2 -25 -12 -9 -15 -25 -12 -60 3 -40 2 -46
-12 -41 -14 6 -14 3 -1 -29 15 -37 11 -67 -9 -67 -7 0 -27 -15 -44 -33 -28
-29 -31 -36 -18 -46 22 -18 14 -77 -13 -103 -16 -14 -41 -23 -75 -26 -28 -3
-55 -11 -59 -18 -4 -8 -16 -14 -26 -14 -19 0 -45 23 -36 32 3 3 -17 8 -45 12
-28 4 -57 9 -65 12 -11 5 -13 2 -9 -10 5 -14 2 -16 -20 -10 -15 3 -26 2 -25
-2 5 -27 -3 -64 -16 -77 -11 -11 -12 -16 -3 -19 15 -5 12 -61 -3 -90 -8 -15
-7 -24 6 -39 10 -10 15 -27 12 -38 -3 -11 1 -25 9 -32 8 -6 11 -16 7 -23 -4
-6 -1 -6 9 2 12 10 17 10 26 -1 14 -17 4 -57 -14 -57 -10 0 -14 -14 -14 -49 0
-41 4 -51 20 -56 11 -3 20 -11 20 -16 0 -19 -24 -8 -56 26 -19 18 -42 38 -51
44 -17 9 -16 11 1 30 11 12 16 24 13 27 -3 4 -2 15 4 26 12 22 -8 58 -21 38
-5 -8 -11 -7 -22 3 -7 8 -24 18 -36 21 -14 5 -22 15 -22 29 0 14 -11 28 -32
40 l-31 18 29 15 c16 8 34 21 40 29 5 7 22 17 37 20 27 7 27 9 21 59 -4 28 -8
52 -9 54 -2 2 -22 -6 -45 -18 -24 -12 -58 -21 -78 -20 -63 3 -65 2 -59 -28 7
-34 -1 -47 -33 -57 -14 -4 -33 -14 -43 -23 -15 -13 -23 -14 -51 -4 -58 21 -89
16 -110 -21 -11 -17 -18 -36 -17 -42 1 -5 -6 -15 -16 -23 -17 -13 -17 -14 0
-26 15 -12 15 -15 2 -26 -8 -7 -15 -21 -15 -31 0 -11 -13 -32 -28 -48 -24 -26
-34 -29 -73 -27 -24 2 -38 1 -31 -1 6 -3 10 -9 6 -14 -3 -5 0 -9 5 -9 6 0 11
-4 11 -10 0 -5 -9 -10 -19 -10 -10 0 -27 -8 -38 -17 -10 -10 -17 -17 -15 -16
3 1 13 -8 23 -20 10 -12 18 -18 19 -13 0 17 40 -27 40 -44 0 -10 7 -23 15 -30
9 -7 13 -20 10 -28 -3 -8 0 -21 6 -28 6 -8 9 -20 6 -27 -3 -7 4 -24 14 -38 10
-13 19 -34 19 -47 0 -32 -19 -65 -34 -59 -7 3 -21 -8 -32 -25 -10 -16 -31 -32
-45 -35 -28 -5 -49 -38 -49 -76 0 -12 -3 -32 -6 -43 -5 -20 -9 -21 -47 -13
-23 5 -54 14 -70 20 -16 7 -32 8 -40 2 -6 -5 -24 -10 -39 -11 -21 -3 -27 2
-31 20 -4 20 -4 20 -6 -4 -1 -21 -6 -28 -20 -28 -11 0 -23 4 -26 10 -3 5 -26
9 -50 8 -36 -2 -45 -6 -47 -23 -4 -28 -32 -30 -46 -3 -11 23 -11 23 -11 -4 -1
-29 -33 -54 -53 -42 -7 4 -8 3 -4 -4 4 -7 4 -32 1 -55 -6 -38 -11 -45 -41 -56
-29 -10 -33 -15 -24 -31 13 -25 13 -51 -1 -27 -12 21 -32 22 -49 3 -8 -10 -8
-20 -2 -32 6 -11 6 -28 1 -43 -11 -32 3 -87 21 -83 8 2 11 -4 7 -20 -4 -12 -1
-29 6 -37 16 -19 15 -62 -2 -83 -24 -28 -20 -57 11 -83 19 -16 28 -33 28 -53
0 -18 6 -32 15 -36 9 -3 15 -14 13 -23 -2 -12 4 -19 17 -21 14 -2 26 -16 35
-44 16 -44 40 -63 40 -31 0 15 2 16 10 3 12 -19 50 -22 50 -3 0 9 5 11 13 6 6
-4 23 -8 37 -8 14 0 25 -5 25 -12 0 -22 13 -25 39 -8 16 11 23 22 19 33 -6 15
-5 15 10 3 11 -9 15 -22 12 -40 -5 -23 -4 -23 6 4 16 42 28 55 45 48 8 -3 24
4 35 16 11 11 23 21 27 21 4 0 13 13 19 28 10 21 21 28 45 30 43 3 124 87 106
109 -9 11 -9 16 2 23 8 5 11 12 7 16 -4 4 0 15 9 25 9 10 14 25 11 34 -4 9 -1
15 7 15 15 0 32 37 42 93 6 36 17 47 29 27 12 -20 25 -9 19 15 -5 22 -3 25 20
25 16 0 26 6 26 15 0 8 4 15 8 15 4 0 9 16 10 35 2 24 -4 41 -18 55 -11 11
-20 24 -20 28 0 4 26 9 58 10 91 2 112 6 112 20 0 6 6 12 13 12 24 0 117 98
117 124 0 9 7 12 20 9 14 -4 20 0 20 10 0 9 10 32 22 52 18 31 25 36 50 33 16
-3 33 1 39 9 6 7 18 13 25 13 17 0 18 32 2 48 -8 8 -9 12 -1 12 18 0 53 65 51
91 -2 18 2 24 17 24 11 0 25 6 30 13 6 8 26 17 45 21 l33 6 -31 32 c-33 33
-39 52 -22 69 6 6 6 21 -2 42 -10 25 -10 37 -1 51 10 15 9 22 -2 31 -26 22
-18 48 19 60 44 14 86 47 86 67 0 23 31 43 51 33 9 -5 32 -4 55 3 33 10 38 16
36 35 -3 20 0 23 17 17 13 -4 27 -1 37 9 8 9 25 16 36 16 11 0 33 11 50 25 16
14 36 25 44 25 7 0 21 11 30 25 9 14 22 25 29 25 7 0 18 6 24 14 6 8 33 17 58
21 26 4 56 13 67 21 11 8 35 14 52 14 28 0 32 4 38 35 8 39 13 43 31 19 10
-15 13 -15 28 1 10 9 25 14 34 11 24 -10 63 21 63 49 0 21 5 25 28 25 16 0 37
9 47 20 10 11 24 20 32 20 7 0 13 8 13 18 0 24 45 66 63 59 8 -3 19 -1 25 5
15 15 32 1 32 -26 0 -19 5 -23 28 -22 15 0 44 -3 64 -7 35 -7 38 -6 44 18 5
22 12 26 43 26 66 -1 78 2 74 19 -6 22 22 43 88 67 38 14 60 18 67 11 14 -14
21 46 7 63 -5 8 -28 23 -50 34 -41 21 -49 41 -15 39 11 0 20 3 20 8 0 4 15 8
33 8 21 0 39 8 51 22 17 19 19 19 28 5 5 -10 16 -17 23 -17 18 0 20 16 4 26
-15 9 10 24 28 17 12 -5 12 -7 2 -14 -9 -5 -3 -16 22 -38 29 -26 35 -37 31
-62 -4 -25 -7 -28 -20 -17 -8 7 -17 12 -19 11 -10 -8 -23 -1 -23 12 0 8 -9 15
-20 15 -21 0 -26 -10 -11 -25 9 -10 40 -94 47 -129 7 -35 54 -50 54 -18 1 16
1 16 14 -1 8 -10 16 -13 17 -8 3 7 9 7 19 1 13 -9 13 -11 0 -20 -14 -9 -36 -8
-82 6 -12 4 -18 0 -18 -10 0 -9 -5 -16 -10 -16 -13 0 -30 -42 -22 -55 4 -5 8
-19 9 -29 4 -23 21 -46 35 -46 6 0 7 11 3 27 -5 23 -4 25 9 14 31 -26 79 31
62 75 -4 11 1 18 14 21 11 3 20 12 20 19 0 8 5 14 10 14 6 0 10 6 10 14 0 22
37 26 56 5 9 -10 22 -15 28 -11 6 4 22 7 36 7 15 0 28 8 35 22 9 17 14 19 30
10 14 -7 20 -7 23 1 5 17 22 15 22 -3 0 -8 5 -15 11 -15 13 0 39 25 39 38 0 5
11 7 24 5 30 -6 43 23 21 47 -15 16 -14 21 10 55 15 24 25 52 25 74 0 21 5 42
12 49 9 9 7 21 -11 52 -12 22 -20 40 -16 40 3 0 -1 10 -9 23 -7 12 -16 39 -19
60 -5 34 -4 37 19 37 26 0 28 8 15 75 -6 34 -4 43 17 63 15 15 21 29 17 41 -4
13 2 27 16 40 28 26 35 26 42 1 3 -11 13 -23 24 -26 41 -13 66 -30 73 -50 8
-19 45 -59 105 -111 24 -21 36 -61 15 -48 -16 10 -12 -11 5 -25 8 -7 15 -22
15 -34 1 -18 2 -19 10 -5 15 25 109 63 125 49 14 -11 58 1 69 19 4 6 40 34 81
62 48 34 78 62 84 81 6 15 19 32 30 36 18 6 19 10 8 32 -10 20 -10 30 0 50 7
14 18 39 25 57 9 23 16 29 28 24 8 -5 20 -6 27 -4 6 2 17 -5 23 -16 15 -29 43
-26 58 6 6 15 12 32 12 37 0 6 12 19 26 31 30 24 67 124 52 143 -6 6 -21 12
-34 12 -12 0 -39 15 -58 34 -32 30 -94 57 -80 35 8 -13 -9 -10 -28 4 -9 7 -20
24 -23 38 -4 14 -21 31 -41 41 l-34 17 -14 -28z m70 -112 c4 -6 19 -9 36 -5
26 5 31 2 43 -27 16 -39 27 -117 17 -117 -4 0 -17 7 -28 15 -12 8 -24 12 -26
9 -3 -3 -20 3 -39 14 -35 20 -60 69 -40 81 6 4 9 15 5 24 -7 19 20 24 32 6z
m-982 -978 c10 -11 13 -22 8 -25 -6 -3 -17 5 -26 19 -19 29 -7 33 18 6z
m-2048 -999 c-4 -3 -14 2 -24 12 -16 18 -16 18 6 6 13 -6 21 -14 18 -18z
m-1002 -373 c-6 -11 -24 -2 -24 11 0 5 7 7 15 4 8 -4 12 -10 9 -15z m-284
-324 c10 -12 10 -15 -4 -15 -9 0 -16 7 -16 15 0 8 2 15 4 15 2 0 9 -7 16 -15z
m47 -81 c-3 -3 -12 -4 -19 -1 -8 3 -5 6 6 6 11 1 17 -2 13 -5z m263 -266 c0
-9 -49 0 -69 13 -13 8 -12 9 7 6 12 -3 22 -1 22 4 0 5 9 4 20 -3 11 -7 20 -16
20 -20z m95 -38 c3 -5 1 -10 -4 -10 -6 0 -11 5 -11 10 0 6 2 10 4 10 3 0 8 -4
11 -10z m-10 -50 c3 -5 1 -10 -4 -10 -6 0 -11 5 -11 10 0 6 2 10 4 10 3 0 8
-4 11 -10z"/>
<path d="M11888 11733 c7 -3 16 -2 19 1 4 3 -2 6 -13 5 -11 0 -14 -3 -6 -6z"/>
<path d="M11623 11703 c2 -10 8 -25 11 -33 4 -9 -2 -25 -13 -37 -11 -11 -17
-23 -14 -27 3 -3 0 -13 -7 -22 -12 -13 -11 -17 1 -24 8 -6 15 -6 17 0 2 6 10
10 17 10 17 0 28 31 15 44 -17 17 -12 24 28 37 66 21 74 27 61 50 -10 19 -11
19 -23 4 -12 -16 -15 -16 -44 -1 -40 21 -56 20 -49 -1z"/>
<path d="M9851 11657 c18 -14 24 -15 30 -5 13 20 11 23 -22 23 l-30 0 22 -18z"/>
<path d="M12333 11453 c-20 -8 -15 -23 7 -23 11 0 20 7 20 15 0 15 -6 17 -27
8z"/>
<path d="M12272 11397 c0 -17 5 -39 13 -50 16 -23 8 -34 -42 -59 -28 -14 -33
-14 -47 0 -14 15 -17 15 -28 0 -16 -20 -78 -35 -78 -19 0 6 -4 11 -10 11 -16
0 -12 -26 6 -41 12 -10 20 -10 35 -1 16 10 19 9 19 -6 0 -14 14 -23 51 -35 66
-22 76 -21 84 4 4 12 12 18 21 15 8 -3 14 -1 14 4 0 6 8 10 18 11 14 0 14 2
-3 9 -17 8 -18 9 -2 9 15 1 17 8 13 59 -6 78 -14 98 -40 110 -21 9 -23 8 -24
-21z"/>
<path d="M13080 11370 c11 -7 8 -11 -15 -21 l-30 -13 27 -4 c35 -4 61 17 42
35 -7 7 -19 13 -26 13 -10 0 -9 -3 2 -10z"/>
<path d="M12968 11343 c7 -3 16 -2 19 1 4 3 -2 6 -13 5 -11 0 -14 -3 -6 -6z"/>
<path d="M12252 10973 c-2 -28 -6 -33 -27 -33 -15 0 -25 -6 -25 -15 0 -20 -37
-38 -66 -31 -14 4 -37 0 -54 -9 -24 -12 -30 -13 -37 -2 -4 8 -22 17 -40 20
-31 6 -32 6 -26 -23 5 -26 2 -30 -15 -30 -11 0 -22 -8 -24 -17 -3 -15 -4 -15
-21 1 -11 11 -27 16 -42 14 -16 -3 -31 2 -41 13 -10 11 -23 19 -31 19 -7 0
-40 13 -73 29 -66 31 -110 31 -110 0 0 -10 -14 -31 -31 -46 -26 -23 -30 -32
-24 -58 4 -16 9 -49 12 -71 l4 -41 -40 -7 c-22 -3 -47 -3 -55 0 -12 5 -16 0
-16 -21 0 -18 -6 -29 -20 -32 -24 -6 -25 -13 -5 -39 8 -10 15 -27 15 -37 0
-14 -5 -16 -25 -11 -15 4 -25 2 -25 -5 0 -6 -14 -2 -32 9 l-32 19 -28 -26
c-15 -15 -28 -32 -28 -37 -1 -14 -70 -46 -99 -46 -18 0 -21 -4 -16 -22 4 -13
16 -36 27 -51 11 -16 33 -49 50 -73 17 -25 41 -49 53 -54 13 -5 25 -14 27 -21
3 -8 13 -10 32 -5 20 5 26 11 22 22 -4 9 11 42 36 80 44 67 53 71 103 39 15
-9 35 -10 80 -2 33 5 86 9 118 8 44 -1 58 1 55 11 -3 7 14 24 36 39 23 14 54
38 70 53 26 25 31 27 54 15 13 -8 26 -18 28 -24 3 -6 22 -9 43 -7 29 3 41 9
44 24 5 19 6 19 27 -2 16 -16 25 -19 35 -10 9 8 15 8 20 0 3 -5 17 -10 31 -10
19 0 24 5 24 25 0 28 21 33 40 11 6 -8 19 -12 27 -9 9 4 14 2 11 -3 -4 -5 3
-25 14 -44 13 -24 18 -28 14 -12 -5 26 10 29 36 5 20 -18 37 -11 21 9 -6 7
-13 25 -17 41 -6 25 -4 27 23 27 35 0 48 15 31 35 -7 8 -10 21 -7 29 3 7 1 18
-5 24 -14 14 -1 32 19 25 13 -5 15 -1 10 23 -3 16 -9 38 -13 48 -5 12 -4 17 3
13 5 -4 15 5 22 19 10 22 8 28 -21 55 -18 16 -36 29 -40 29 -5 0 -8 5 -8 10 0
6 7 10 17 10 15 0 15 2 -1 19 -10 11 -24 17 -32 14 -8 -3 -14 1 -14 10 0 9
-13 25 -29 37 -20 13 -31 31 -34 53 l-4 32 -1 -32z m-538 -122 c8 -12 -3 -41
-15 -41 -5 0 -9 11 -9 25 0 25 14 34 24 16z m71 -201 c3 -6 -1 -7 -9 -4 -18 7
-21 14 -7 14 6 0 13 -4 16 -10z m545 -160 c0 -5 -4 -10 -9 -10 -6 0 -13 5 -16
10 -3 6 1 10 9 10 9 0 16 -4 16 -10z"/>
<path d="M8796 10755 c7 -18 0 -19 -27 -2 -17 10 -23 9 -26 -1 -3 -6 -9 -10
-14 -6 -5 3 -9 2 -8 -3 1 -4 -1 -16 -6 -26 -7 -17 -2 -33 26 -89 5 -11 3 -18
-6 -22 -21 -8 -18 -33 5 -46 11 -6 19 -16 17 -22 -3 -14 59 -51 73 -43 6 4 5
18 -5 41 -13 32 -13 37 0 51 9 8 15 33 15 60 0 29 6 53 17 65 9 11 11 18 5 18
-7 0 -21 9 -32 20 -24 24 -42 26 -34 5z"/>
<path d="M11178 10553 c-30 -7 -20 -23 12 -21 17 1 30 8 30 15 0 13 -10 15
-42 6z"/>
<path d="M11099 10527 c-1 -6 -1 -17 0 -23 1 -6 -5 -11 -12 -11 -7 0 -25 -8
-40 -17 -27 -18 -36 -36 -17 -36 6 0 10 5 10 10 0 6 3 9 8 8 8 -1 38 9 62 21
8 5 26 4 38 0 21 -8 23 -6 16 14 -3 12 -7 22 -8 22 0 1 -13 6 -28 13 -22 9
-28 9 -29 -1z"/>
<path d="M8874 10485 c-3 -8 -3 -19 1 -25 3 -5 1 -10 -6 -10 -7 0 -9 -3 -6 -7
4 -3 -1 -12 -11 -19 -15 -12 -15 -13 8 -13 25 0 95 27 74 28 -7 1 -15 12 -18
25 -7 28 -34 42 -42 21z"/>
<path d="M10935 10490 c-3 -5 -1 -10 4 -10 6 0 11 5 11 10 0 6 -2 10 -4 10 -3
0 -8 -4 -11 -10z"/>
<path d="M10918 10432 c-31 -39 -34 -51 -15 -74 15 -20 61 -32 54 -14 -3 8 5
11 27 8 31 -4 32 -2 34 36 2 25 -3 44 -13 52 -8 7 -15 9 -15 4 0 -5 -4 -3 -9
5 -16 25 -35 20 -63 -17z"/>
<path d="M8957 10356 c-3 -8 1 -20 9 -26 8 -7 14 -18 14 -25 0 -12 50 -28 59
-19 2 2 -14 22 -36 45 -31 30 -42 37 -46 25z"/>
<path d="M7579 8590 c-18 -16 -24 -32 -25 -63 0 -23 -3 -52 -7 -63 -6 -17 -3
-23 13 -27 11 -3 24 -15 28 -28 5 -14 18 -23 35 -25 31 -3 28 17 -6 31 -26 12
-46 90 -19 80 11 -4 13 0 8 20 -4 15 -2 25 4 25 7 0 8 6 0 19 -15 28 -13 33
11 26 15 -5 20 -3 17 6 -7 22 -32 21 -59 -1z"/>
<path d="M8210 8475 c6 -7 20 -11 30 -8 31 8 24 22 -10 21 -23 -1 -27 -4 -20
-13z"/>
<path d="M8155 8471 c-3 -5 -1 -12 5 -16 5 -3 10 1 10 9 0 18 -6 21 -15 7z"/>
<path d="M7885 8429 c-4 -6 -5 -13 -2 -16 7 -7 27 6 27 18 0 12 -17 12 -25 -2z"/>
<path d="M8096 8383 c-4 -9 -2 -21 4 -27 7 -7 10 -2 10 17 0 31 -5 34 -14 10z"/>
<path d="M7737 8340 c-14 -11 -30 -20 -35 -20 -17 0 -21 -28 -6 -41 9 -7 13
-20 11 -30 -3 -11 16 -38 54 -78 33 -33 59 -68 59 -77 0 -9 9 -18 20 -21 12
-3 20 -14 20 -27 0 -12 8 -33 17 -46 18 -25 19 -86 2 -107 -7 -7 -6 -14 1 -18
8 -5 6 -14 -4 -31 -18 -26 -21 -81 -6 -104 5 -8 10 -10 10 -4 0 9 11 9 40 2
37 -10 42 -8 65 16 14 15 25 31 25 36 0 4 6 10 13 13 9 3 6 17 -12 51 -13 25
-28 46 -32 46 -16 0 -10 87 5 93 8 3 16 16 18 29 2 13 9 22 17 20 19 -4 6 43
-19 68 -19 19 -19 21 -2 38 11 13 22 16 33 11 25 -13 52 22 43 55 -6 25 -9 27
-44 21 -30 -5 -39 -3 -44 10 -5 14 -9 15 -20 5 -11 -8 -20 -8 -35 -1 -11 6
-29 11 -40 11 -13 0 -26 12 -36 30 -9 17 -21 30 -29 30 -7 0 -21 9 -31 20 -10
11 -21 20 -25 20 -4 0 -19 -9 -33 -20z"/>
<path d="M8103 8320 c-18 -27 -16 -50 3 -50 8 0 12 4 9 10 -3 5 0 7 8 4 23 -9
29 12 9 35 -17 22 -17 22 -29 1z"/>
<path d="M7018 8159 c-10 -5 -18 -21 -18 -34 0 -29 -30 -35 -30 -7 -1 10 -6 6
-14 -13 -7 -16 -11 -33 -9 -38 2 -4 -3 -10 -11 -13 -9 -3 -16 -12 -16 -18 0
-15 -48 -39 -61 -31 -5 4 -9 12 -9 19 0 19 -34 13 -60 -12 -13 -12 -27 -22
-32 -22 -4 0 -7 -3 -7 -7 4 -26 -3 -34 -28 -31 -24 3 -28 -1 -36 -34 -7 -28
-14 -38 -28 -38 -10 0 -19 -4 -19 -10 0 -22 -29 -8 -64 32 -24 27 -40 37 -45
30 -4 -6 -21 -12 -39 -14 -35 -2 -46 -28 -12 -28 13 0 20 -7 20 -20 0 -11 -1
-21 -2 -22 -2 -2 6 -16 18 -33 40 -58 41 -97 1 -87 -20 4 -20 3 4 -16 15 -12
30 -34 34 -49 7 -32 42 -73 61 -73 15 0 36 -34 28 -43 -4 -3 3 -18 15 -33 11
-15 21 -33 21 -41 0 -8 5 -11 11 -7 8 5 10 -3 7 -25 -3 -19 1 -36 9 -42 7 -6
13 -17 13 -24 0 -7 14 -12 32 -13 20 0 39 -9 49 -20 12 -15 31 -21 77 -24 34
-1 62 0 62 5 0 4 7 7 15 7 8 0 15 4 15 9 0 15 30 21 51 11 10 -6 19 -7 19 -3
0 4 12 17 27 27 23 17 26 18 35 2 6 -10 22 -16 46 -16 21 0 43 -5 49 -11 8 -8
13 -8 17 0 15 23 25 9 28 -36 2 -34 7 -48 18 -48 8 -1 26 -7 39 -14 19 -11 31
-11 62 -1 34 12 38 16 32 38 -5 23 -4 24 31 20 29 -3 36 -1 36 13 0 10 5 19
11 21 5 2 7 11 4 21 -4 9 -11 14 -16 11 -5 -3 -9 1 -9 10 0 25 12 46 26 46 20
0 17 27 -6 50 -11 11 -20 24 -20 29 0 15 29 21 37 7 5 -8 23 -17 41 -21 27 -5
32 -4 32 12 0 15 2 16 10 3 5 -8 7 -22 5 -31 -6 -19 13 -38 44 -44 12 -2 26
-7 32 -11 6 -3 15 -1 19 7 7 10 12 10 23 1 16 -14 27 -6 27 19 0 23 42 88 57
89 7 0 11 11 8 30 -2 16 1 32 6 36 6 3 9 18 7 32 -2 18 2 26 10 24 7 -1 17 9
22 23 5 14 14 25 20 25 5 0 10 6 10 14 0 16 -39 25 -126 30 -33 2 -69 8 -78
13 -12 6 -36 7 -67 1 -43 -8 -55 -6 -85 12 -36 23 -54 48 -54 75 0 9 -6 23
-14 31 -8 7 -16 19 -18 26 -6 17 -39 2 -45 -21 -7 -28 -79 -34 -115 -9 -25 17
-58 16 -58 -3 0 -12 -28 3 -58 31 -20 18 -22 28 -17 71 3 30 2 49 -5 49 -5 0
-21 18 -36 39 -20 31 -23 43 -15 59 17 33 -15 53 -51 31z"/>
<path d="M8193 8138 c9 -21 22 -34 42 -39 28 -8 28 -8 -10 31 -22 22 -40 40
-42 40 -2 0 3 -14 10 -32z"/>
<path d="M8267 8033 c-4 -3 1 -12 11 -19 15 -11 14 -13 -12 -24 -27 -10 -28
-11 -10 -24 11 -8 19 -28 20 -47 1 -19 2 -42 3 -52 1 -9 12 -23 26 -29 21 -9
25 -18 23 -45 -1 -19 -9 -38 -18 -44 -12 -7 -11 -10 8 -15 14 -4 21 -12 18
-20 -3 -7 -1 -16 3 -19 5 -2 11 4 14 15 5 18 11 20 45 14 38 -6 40 -5 47 24 4
19 1 38 -7 51 -13 21 -33 28 -41 14 -2 -5 -3 -3 -1 3 1 7 -17 30 -42 52 -41
36 -61 86 -33 80 22 -5 19 17 -3 27 -13 6 -22 17 -20 26 3 18 -21 43 -31 32z
m57 -178 c3 -8 1 -15 -4 -15 -6 0 -10 7 -10 15 0 8 2 15 4 15 2 0 6 -7 10 -15z
m100 -101 c3 -8 2 -12 -4 -9 -6 3 -10 10 -10 16 0 14 7 11 14 -7z"/>
<path d="M8035 8020 c-3 -5 -1 -10 4 -10 6 0 11 5 11 10 0 6 -2 10 -4 10 -3 0
-8 -4 -11 -10z"/>
<path d="M7130 7960 c0 -5 5 -10 11 -10 5 0 7 5 4 10 -3 6 -8 10 -11 10 -2 0
-4 -4 -4 -10z"/>
<path d="M6304 7905 c-1 -26 4 -49 12 -56 21 -17 33 -2 24 31 l-8 29 50 -2
c35 -1 52 2 56 11 3 10 -6 13 -34 11 -22 -1 -52 3 -67 10 -16 6 -29 11 -30 11
-1 0 -3 -20 -3 -45z"/>
<path d="M8452 7723 c-2 -27 35 -83 55 -83 8 0 13 13 13 35 0 19 -4 35 -10 35
-5 0 -9 5 -7 11 1 7 -9 15 -23 19 -22 6 -26 4 -28 -17z"/>
<path d="M8270 7713 c0 -4 5 -15 10 -23 8 -13 10 -13 10 2 0 9 -4 20 -10 23
-5 3 -10 3 -10 -2z"/>
<path d="M8520 7626 c0 -3 9 -10 20 -16 11 -6 20 -8 20 -6 0 3 -9 10 -20 16
-11 6 -20 8 -20 6z"/>
<path d="M6560 7590 c0 -5 5 -10 10 -10 6 0 10 5 10 10 0 6 -4 10 -10 10 -5 0
-10 -4 -10 -10z"/>
<path d="M8570 7562 c0 -4 9 -13 21 -20 12 -8 18 -9 14 -3 -3 6 0 11 7 11 9 0
9 3 -2 10 -18 12 -40 13 -40 2z"/>
</g>
</svg>
