<?xml version="1.0" standalone="no"?>
<!DOCTYPE svg PUBLIC "-//W3C//DTD SVG 20010904//EN"
 "http://www.w3.org/TR/2001/REC-SVG-20010904/DTD/svg10.dtd">
<svg version="1.0" xmlns="http://www.w3.org/2000/svg"
 width="633.277769pt" height="653.175035pt" viewBox="0 0 633.277769 653.175035"
 preserveAspectRatio="xMidYMid meet">
<metadata>
Created by potrace 1.15, written by Peter Selinger 2001-2017
</metadata>
<g transform="translate(-669.325435,1364.637880) scale(0.100000,-0.100000)"
fill="#222222" stroke="none">
<path d="M10891 13643 c0 -6 -6 -24 -12 -40 -6 -15 -10 -30 -9 -32 1 -2 -12
-12 -28 -21 -17 -10 -36 -31 -44 -47 -7 -15 -27 -37 -44 -48 -17 -11 -38 -32
-47 -47 -8 -14 -26 -28 -39 -31 -22 -4 -22 -4 -1 -6 22 -1 53 -35 53 -57 0 -7
-16 -22 -36 -33 -33 -20 -35 -23 -22 -39 20 -22 29 -60 16 -64 -6 -2 17 -32
51 -66 61 -64 83 -103 62 -110 -6 -2 -11 -10 -11 -18 0 -26 30 -73 43 -69 7 3
24 -14 38 -38 20 -33 35 -46 59 -51 19 -3 49 -23 74 -48 22 -23 44 -41 49 -40
4 1 17 -17 28 -40 20 -43 21 -43 72 -41 35 1 44 0 28 -5 -13 -4 -33 -19 -43
-33 -19 -25 -19 -26 4 -72 26 -53 39 -57 75 -23 15 14 33 22 42 19 11 -4 10
-1 -4 10 -11 9 -15 17 -7 17 7 0 12 15 12 40 0 37 -2 40 -27 40 l-28 1 24 19
c22 19 23 21 7 45 -16 24 -15 25 3 25 11 0 21 5 23 12 7 20 38 17 50 -5 6 -12
17 -50 24 -84 14 -65 61 -153 79 -147 6 2 16 -5 23 -17 10 -16 10 -24 1 -35
-7 -9 -8 -19 -2 -26 15 -20 9 -43 -9 -40 -13 2 -16 -4 -14 -25 4 -40 -11 -53
-60 -53 -23 0 -45 -4 -48 -9 -3 -5 -16 -7 -27 -4 -16 4 -20 2 -17 -8 3 -8 10
-14 16 -14 6 0 18 -10 27 -21 16 -23 65 -38 65 -20 0 6 9 -2 20 -19 14 -21 16
-33 8 -42 -8 -10 -6 -13 8 -13 25 1 54 23 54 43 0 8 16 25 36 36 20 12 34 24
31 27 -10 10 70 74 86 68 11 -4 19 8 32 48 10 29 23 56 29 60 6 4 37 10 68 14
51 6 58 9 67 34 5 16 19 33 30 40 14 7 21 21 21 38 0 16 5 33 11 39 8 8 3 15
-18 25 -15 7 -28 20 -28 28 0 8 -8 21 -18 28 -9 7 -14 19 -10 25 4 7 0 7 -10
-1 -24 -20 -37 -7 -27 29 9 30 -4 69 -22 69 -15 0 -29 40 -19 58 10 19 -12 61
-23 44 -3 -5 -17 -9 -31 -9 -18 0 -25 5 -25 18 0 20 -25 26 -35 8 -8 -12 -64
-2 -82 15 -12 11 -19 46 -28 131 -1 17 -6 38 -10 47 -5 13 -2 15 14 11 24 -6
28 15 11 48 -9 15 -7 19 7 19 13 0 7 9 -20 35 -20 19 -37 41 -37 49 0 19 -30
44 -30 25 -1 -8 -11 -3 -25 14 -13 15 -28 27 -32 27 -4 0 -18 11 -31 25 -20
20 -31 24 -69 21 -29 -2 -49 -9 -55 -20 -5 -9 -19 -16 -30 -16 -17 0 -19 3
-10 12 8 8 8 17 1 30 -8 15 -17 18 -40 13 -21 -5 -31 -2 -35 9 -3 9 -9 14 -14
11 -4 -2 -12 7 -18 20 -7 14 -17 25 -24 26 -45 3 -59 8 -82 30 -14 13 -26 31
-26 39 0 9 -6 24 -14 35 -7 11 -16 29 -19 40 -2 11 -5 15 -6 8z"/>
<path d="M12863 13491 c-19 -30 -112 -72 -134 -61 -26 14 -36 12 -42 -9 -6
-24 -66 -39 -78 -20 -7 11 -9 11 -9 -2 0 -9 -9 -24 -20 -34 -11 -10 -20 -24
-20 -31 0 -17 -69 -56 -94 -52 -12 1 -27 -1 -34 -6 -8 -5 -20 -2 -31 8 -20 18
-46 22 -35 5 5 -8 -3 -10 -27 -5 -71 13 -84 11 -110 -16 -15 -14 -29 -32 -31
-39 -3 -10 -11 -10 -39 1 -19 8 -40 13 -47 12 -7 -2 -22 4 -34 13 -13 8 -35
15 -50 15 -20 0 -32 7 -39 24 -13 28 -42 25 -64 -7 -9 -12 -20 -17 -31 -13
-13 5 -15 2 -9 -16 4 -13 8 -39 9 -58 1 -30 5 -35 26 -38 18 -2 29 -12 37 -33
7 -19 22 -33 42 -40 17 -6 31 -15 31 -21 0 -6 12 -19 26 -30 37 -30 49 -67 27
-84 -17 -13 -17 -13 0 -14 23 0 22 -32 -1 -49 -24 -17 -18 -61 8 -61 10 0 20
-7 24 -15 3 -9 0 -15 -9 -15 -8 0 -15 -9 -15 -19 0 -11 -8 -22 -17 -24 -11 -2
-9 -3 4 -2 14 1 25 -6 32 -22 8 -17 19 -23 45 -23 25 0 38 -6 51 -26 9 -14 14
-32 11 -40 -3 -8 1 -17 9 -21 12 -4 13 -9 4 -19 -6 -7 -7 -19 -3 -26 4 -7 -2
-5 -13 5 -21 18 -43 23 -43 9 0 -5 11 -14 24 -22 26 -14 61 -7 51 10 -3 5 -1
10 5 10 7 0 10 7 7 15 -5 12 -2 12 19 3 19 -9 24 -17 20 -34 -4 -13 -1 -26 5
-30 8 -4 7 -9 -2 -14 -10 -7 -10 -11 1 -24 15 -19 48 -13 68 12 11 15 14 15
22 2 6 -9 10 -11 10 -3 0 7 7 10 15 7 19 -8 19 -2 -3 38 -10 18 -21 43 -24 55
-6 21 -3 23 28 19 39 -5 45 8 12 25 l-23 12 30 14 c17 7 62 12 100 12 39 -1
78 2 87 6 9 4 27 -1 42 -10 14 -9 35 -16 48 -15 39 4 48 1 42 -14 -6 -16 65
-29 80 -15 6 5 19 9 29 9 15 0 18 5 15 25 -7 34 26 69 58 61 21 -6 24 -3 24
19 0 14 6 36 14 48 18 29 28 85 16 92 -6 3 -10 21 -10 40 0 26 -5 34 -23 39
-30 7 -59 56 -46 79 6 10 7 26 4 37 -4 11 -2 20 4 20 6 0 11 11 11 25 0 16 6
25 16 25 16 0 16 14 0 123 -3 19 0 27 11 27 11 0 14 7 11 24 -3 15 0 27 8 30
8 3 14 15 14 26 0 11 4 20 10 20 5 0 14 9 20 21 9 16 8 26 -4 43 -12 19 -22
23 -55 20 -22 -1 -45 -5 -50 -8 -5 -4 -12 -2 -16 4 -9 15 -19 12 -32 -9z
m-528 -779 c20 -5 35 -20 35 -34 0 -5 -16 -8 -35 -8 -24 0 -37 6 -45 19 -15
30 -13 44 8 36 9 -4 26 -10 37 -13z"/>
<path d="M10490 13452 c0 -12 -3 -22 -7 -22 -5 0 -9 -17 -11 -37 -1 -20 -7
-40 -13 -44 -19 -11 9 -52 29 -43 9 4 37 7 61 6 43 -2 76 12 65 29 -3 5 2 9
10 9 9 0 16 4 16 9 0 9 -47 44 -52 39 -5 -4 -72 43 -85 60 -11 14 -13 13 -13
-6z"/>
<path d="M10392 13431 c-10 -6 -9 -10 7 -14 14 -3 21 0 21 9 0 16 -9 18 -28 5z"/>
<path d="M10670 13356 c0 -2 8 -10 18 -17 15 -13 16 -12 3 4 -13 16 -21 21
-21 13z"/>
<path d="M12138 12531 c-14 -17 -14 -22 -2 -46 8 -15 12 -31 9 -35 -3 -5 3 -6
12 -4 23 5 35 -4 50 -38 8 -18 20 -28 33 -28 17 0 19 3 10 19 -5 11 -14 23
-20 26 -20 12 -71 98 -66 111 8 20 -7 17 -26 -5z"/>
<path d="M11942 12499 c-15 -19 -33 -29 -50 -29 -14 0 -36 -10 -49 -22 -21
-20 -25 -20 -39 -6 -15 14 -18 14 -34 -2 -10 -10 -23 -19 -29 -21 -9 -3 -9
-11 0 -34 15 -35 18 -75 7 -75 -4 0 -8 -7 -8 -15 0 -8 -7 -15 -16 -15 -10 0
-14 -6 -10 -15 3 -8 0 -15 -6 -15 -6 0 -3 -9 6 -19 17 -19 17 -20 -3 -31 -12
-6 -21 -17 -21 -24 0 -7 -7 -13 -15 -13 -8 0 -15 3 -15 7 0 4 -15 11 -34 17
-38 12 -56 2 -56 -30 0 -22 -37 -56 -62 -57 -11 0 -18 -8 -18 -20 0 -11 -6
-20 -12 -20 -10 0 -9 -3 1 -9 11 -7 11 -9 0 -13 -12 -4 -12 -8 -1 -20 9 -11
10 -18 2 -23 -5 -3 -10 -17 -10 -31 0 -19 5 -24 25 -24 34 0 38 -1 57 -11 13
-7 18 -4 23 11 6 20 39 28 49 11 10 -15 66 -21 86 -9 14 9 25 9 44 0 20 -9 26
-9 26 1 0 7 7 4 15 -7 13 -18 16 -18 40 -2 14 9 25 13 25 9 0 -5 26 -9 59 -10
57 -1 58 -1 67 30 15 49 3 101 -22 105 -16 2 -20 8 -17 23 3 10 0 19 -6 19
-12 0 -121 108 -121 121 0 4 5 11 11 14 7 5 4 13 -7 26 -16 17 -16 19 0 25 10
4 16 15 14 28 -1 11 2 27 6 35 6 10 5 12 -2 7 -7 -4 -18 -4 -24 1 -18 11 103
22 125 11 11 -6 17 -5 17 4 0 7 4 6 13 -4 6 -8 26 -20 44 -26 26 -9 33 -8 38
5 4 12 9 13 17 5 7 -7 17 -7 34 0 40 18 29 34 -21 30 -41 -4 -45 -2 -45 18 0
16 -4 20 -15 16 -11 -4 -19 3 -26 22 -6 15 -16 39 -23 53 l-11 27 -23 -29z
m-144 -501 c14 -14 16 -28 2 -28 -5 0 -14 9 -20 20 -12 22 -1 27 18 8z"/>
<path d="M11150 12476 c0 -9 5 -16 10 -16 6 0 10 4 10 9 0 6 -4 13 -10 16 -5
3 -10 -1 -10 -9z"/>
<path d="M12270 12355 c0 -9 6 -12 15 -9 8 4 15 7 15 9 0 2 -7 5 -15 9 -9 3
-15 0 -15 -9z"/>
<path d="M12220 12010 c-8 -5 -30 -10 -47 -10 -18 0 -33 -5 -33 -11 0 -6 -7
-9 -15 -6 -17 7 -30 -9 -15 -18 6 -4 6 -14 -2 -28 -25 -50 -28 -58 -23 -66 2
-5 -7 -12 -21 -15 -25 -7 -38 -3 -40 12 -6 38 -19 74 -27 79 -7 4 -8 0 -3 -12
4 -11 2 -22 -6 -26 -8 -5 -12 -36 -13 -92 0 -71 3 -88 20 -107 26 -28 21 -56
-18 -100 -27 -31 -106 -79 -132 -80 -17 0 -36 -61 -24 -76 6 -7 8 -18 4 -24
-3 -5 -1 -10 4 -10 6 0 11 5 11 12 0 29 24 -14 27 -49 2 -21 4 -46 5 -55 1 -9
13 -19 25 -23 14 -3 23 -13 23 -25 0 -13 -5 -18 -15 -14 -8 4 -15 1 -15 -6 0
-7 -7 -10 -17 -6 -22 9 -33 -12 -23 -40 6 -15 5 -24 -3 -28 -7 -3 -6 -5 4 -5
8 -1 26 9 38 20 l23 22 -7 -22 c-6 -20 -5 -21 14 -9 12 7 21 18 21 25 0 6 14
18 31 27 27 13 34 13 53 1 12 -8 40 -21 62 -29 37 -13 43 -13 57 1 14 15 19
13 52 -15 37 -33 54 -39 71 -23 5 5 26 11 47 13 20 2 38 8 38 13 0 6 6 13 14
17 7 4 16 20 20 35 11 44 65 105 88 99 21 -5 54 10 74 34 7 8 13 11 13 5 1 -5
7 6 15 25 11 29 10 39 -1 57 -11 18 -11 22 1 27 22 8 18 41 -6 57 -15 10 -22
29 -26 72 -3 32 -9 60 -13 62 -5 3 -6 14 -3 25 3 11 9 17 14 14 5 -3 12 3 16
13 4 10 10 21 15 24 10 6 -11 59 -22 59 -4 0 -10 9 -13 20 -3 11 -14 20 -25
20 -11 0 -25 7 -32 15 -12 14 -15 14 -30 0 -15 -14 -22 -14 -38 -4 -12 7 -23
22 -26 32 -2 11 -9 16 -16 12 -6 -4 -22 1 -36 10 -14 9 -33 14 -42 10 -21 -8
-32 13 -25 47 4 23 2 28 -13 28 -11 0 -26 -5 -34 -10z m-285 -618 c-3 -3 -11
0 -18 7 -9 10 -8 11 6 5 10 -3 15 -9 12 -12z"/>
<path d="M10063 11863 c-13 -9 -23 -21 -23 -27 -1 -15 -39 -60 -46 -53 -3 3
-16 -6 -29 -21 -21 -24 -25 -25 -59 -15 -41 13 -42 11 -20 -22 10 -15 26 -25
41 -25 21 0 24 -4 23 -27 -4 -51 0 -61 33 -105 36 -47 55 -103 32 -94 -8 3
-15 -6 -17 -25 -3 -16 -1 -29 4 -29 4 0 8 -5 8 -11 0 -5 -4 -8 -9 -4 -6 3 -14
-2 -19 -11 -5 -9 -23 -23 -41 -30 -28 -12 -32 -11 -42 8 -9 17 -13 18 -21 7
-7 -10 -8 -8 -3 7 3 13 0 26 -9 33 -12 10 -16 7 -21 -22 -4 -20 -4 -44 -1 -55
10 -30 83 -100 103 -98 27 2 41 -86 19 -119 -10 -16 -12 -26 -5 -30 7 -5 5
-13 -5 -24 -9 -10 -13 -21 -9 -24 3 -4 -1 -7 -10 -7 -10 0 -17 -8 -17 -20 0
-21 -33 -29 -45 -10 -4 6 -18 4 -37 -6 -21 -11 -27 -19 -20 -26 8 -8 7 -19 -3
-38 -8 -15 -12 -30 -9 -33 3 -3 -4 -10 -15 -17 -20 -10 -20 -12 -5 -35 15 -23
14 -26 -8 -48 -20 -20 -23 -28 -15 -52 7 -19 7 -30 0 -32 -6 -2 -25 -15 -43
-28 l-33 -24 24 -9 c14 -6 26 -6 30 -1 3 5 14 0 24 -11 16 -18 16 -20 1 -26
-9 -3 -16 -16 -16 -29 0 -13 -7 -25 -18 -27 -10 -3 -18 -16 -20 -31 -1 -22 3
-27 21 -28 12 -1 29 -2 37 -3 8 0 18 3 21 8 4 4 16 3 28 -3 14 -8 27 -9 40 -2
14 8 22 7 31 -4 18 -21 64 -18 85 5 25 27 30 26 91 -20 29 -22 57 -40 62 -40
11 0 52 -43 52 -55 0 -5 10 -19 22 -32 l21 -23 -24 -9 c-13 -5 -27 -7 -31 -4
-4 2 -5 -3 -2 -11 3 -9 1 -16 -5 -16 -7 0 -14 -7 -18 -15 -12 -32 -58 -75 -80
-75 -12 0 -27 -9 -33 -21 -10 -18 -20 -20 -77 -18 -52 2 -67 -1 -74 -14 -6 -9
-25 -24 -44 -33 -26 -12 -35 -23 -35 -41 0 -16 -7 -27 -20 -30 -11 -3 -20 -12
-20 -19 0 -8 -9 -14 -19 -14 -12 0 -23 -9 -27 -22 -3 -13 -20 -37 -37 -55 -24
-24 -35 -29 -48 -22 -25 13 -25 13 -38 -31 -8 -28 -17 -40 -30 -40 -20 0 -61
-67 -61 -99 0 -28 -20 -39 -88 -47 -35 -4 -80 -15 -100 -25 -20 -11 -47 -19
-59 -19 -14 0 -23 -6 -23 -15 0 -8 -4 -15 -9 -15 -5 0 -14 -13 -20 -30 -6 -20
-17 -30 -30 -30 -10 0 -43 -12 -73 -27 -29 -15 -72 -32 -95 -38 -35 -10 -45
-9 -65 7 -16 12 -33 16 -56 12 -18 -4 -38 -2 -45 4 -14 12 -67 4 -67 -9 0 -5
-4 -9 -10 -9 -5 0 -10 6 -10 13 0 6 -16 22 -35 35 -29 18 -39 20 -56 11 -12
-6 -30 -8 -41 -6 -14 4 -18 2 -14 -9 3 -8 2 -13 -3 -10 -11 7 -63 -19 -54 -27
3 -4 -2 -9 -11 -13 -9 -3 -16 -12 -16 -19 0 -21 -73 -76 -92 -71 -11 2 -18 -1
-18 -9 0 -8 -9 -17 -20 -20 -11 -3 -20 -15 -20 -25 0 -17 -4 -18 -25 -10 -20
7 -25 6 -25 -5 0 -17 -9 -19 -29 -6 -18 12 -87 -42 -95 -74 -3 -12 -14 -25
-23 -29 -10 -3 -23 -8 -29 -11 -6 -3 -27 6 -48 20 -28 19 -34 21 -27 7 7 -13
4 -23 -14 -40 -12 -12 -28 -22 -34 -22 -14 0 -14 -16 0 -41 5 -11 14 -17 20
-14 5 4 14 3 21 -1 8 -5 6 -10 -8 -15 -17 -7 -17 -8 -1 -8 10 -1 27 -10 39
-21 17 -16 19 -24 12 -42 -6 -13 -11 -41 -13 -63 -1 -22 -6 -42 -12 -46 -7 -4
-6 -15 2 -32 15 -32 -4 -65 -26 -47 -9 8 -15 8 -20 0 -3 -5 -19 -10 -36 -10
-19 0 -29 -5 -29 -15 0 -13 -4 -14 -20 -5 -14 7 -20 7 -20 0 0 -19 -69 -11
-80 9 -6 12 -26 22 -51 26 -31 5 -43 13 -52 33 -6 15 -23 37 -37 49 -20 18
-22 22 -7 23 23 0 22 9 -5 37 -20 21 -20 24 -5 41 10 10 17 26 17 34 0 9 6 19
13 21 6 3 2 6 -10 6 -12 1 -30 10 -40 20 -24 26 -70 44 -79 30 -4 -6 -13 -4
-25 7 -13 12 -29 15 -58 11 -34 -4 -40 -2 -50 19 -5 13 -23 27 -38 30 -15 4
-36 18 -46 31 -10 13 -24 23 -31 23 -7 0 -21 18 -31 40 -12 26 -34 50 -62 68
-24 15 -46 38 -50 52 -3 13 -15 33 -26 45 -16 16 -19 17 -14 3 3 -10 2 -20 -3
-23 -16 -10 -11 -34 10 -55 12 -12 18 -26 14 -32 -4 -6 -7 -24 -6 -39 0 -16
-4 -29 -9 -29 -5 0 -9 -7 -9 -16 0 -11 -6 -14 -22 -9 -17 6 -20 4 -15 -9 5
-11 1 -16 -13 -16 -11 0 -20 -3 -20 -6 0 -17 45 -84 56 -84 7 0 17 -6 21 -12
4 -7 17 -18 28 -24 14 -8 20 -22 21 -49 1 -24 7 -41 18 -47 20 -11 21 -34 0
-42 -8 -3 -13 -10 -9 -15 3 -5 -17 -33 -44 -61 -28 -29 -49 -57 -48 -63 1 -6
-17 -20 -40 -32 -24 -11 -43 -26 -43 -34 0 -9 -8 -12 -24 -9 -23 5 -23 3 -13
-21 6 -14 15 -32 20 -38 14 -19 -1 -66 -18 -59 -8 3 -15 0 -15 -7 0 -7 -24
-28 -54 -47 -56 -36 -62 -50 -21 -50 21 0 35 -16 35 -41 0 -5 -11 -4 -25 1
-17 7 -25 6 -25 -1 0 -8 -4 -8 -14 0 -17 14 -26 -6 -24 -56 1 -18 -4 -39 -11
-46 -11 -15 -58 -20 -76 -9 -16 10 -55 11 -55 2 0 -26 22 -60 39 -60 10 0 43
-16 72 -36 40 -27 60 -34 80 -30 23 4 31 0 47 -27 10 -18 33 -40 50 -50 28
-16 32 -16 46 -1 15 14 16 14 16 0 0 -25 13 -19 55 24 44 45 74 51 107 20 12
-11 35 -20 50 -20 21 0 31 -6 38 -26 6 -16 14 -22 22 -18 7 4 42 9 79 10 50 1
69 -2 73 -12 3 -8 16 -14 30 -14 23 0 64 -45 52 -57 -3 -3 1 -15 9 -27 8 -11
15 -28 15 -37 0 -9 9 -24 20 -34 11 -10 20 -24 20 -30 0 -7 10 -19 22 -27 l22
-15 -29 -16 c-17 -9 -26 -16 -21 -17 5 0 3 -7 -4 -15 -7 -8 -10 -21 -7 -28 2
-7 -4 -23 -14 -36 -11 -13 -19 -19 -19 -15 0 5 -5 1 -11 -9 -6 -9 -14 -15 -20
-12 -5 4 -9 -3 -9 -14 0 -12 -6 -21 -14 -21 -7 0 -21 -11 -30 -25 -9 -14 -23
-25 -31 -25 -8 0 -15 -4 -15 -9 0 -5 -3 -16 -6 -25 -5 -12 1 -14 30 -9 31 5
36 3 36 -14 0 -12 7 -26 15 -33 12 -10 16 -8 25 15 5 14 14 24 19 21 5 -3 14
1 21 9 18 22 32 19 75 -18 30 -26 44 -32 71 -29 26 3 36 10 40 28 5 20 39 48
96 79 12 6 17 17 14 28 -2 10 1 20 8 23 15 6 20 63 7 89 -5 11 -12 28 -15 37
-3 11 -11 15 -21 12 -12 -5 -21 7 -13 19 1 1 -4 12 -11 25 -18 34 10 29 32 -5
l18 -28 -7 48 c-4 30 -2 52 6 61 9 11 9 20 0 36 -6 12 -10 22 -8 23 32 16 44
28 46 47 4 26 -20 50 -51 50 -20 0 -56 37 -57 58 0 6 -4 12 -10 12 -5 0 -10 7
-10 15 0 7 -6 18 -13 22 -11 7 -37 55 -37 68 0 3 7 5 16 5 15 0 15 2 -1 26
-19 30 -19 31 15 36 20 2 26 -2 28 -19 2 -13 -2 -23 -8 -23 -7 0 -6 -8 4 -22
21 -30 65 -31 72 -1 4 13 13 22 23 21 39 -3 51 3 51 24 0 12 3 18 6 15 4 -3
18 3 32 13 13 11 35 20 48 20 13 0 29 9 36 20 7 11 19 20 26 20 7 0 15 6 18
14 10 26 61 30 93 7 l28 -21 6 33 c5 34 53 97 73 97 6 0 19 9 29 20 10 11 22
17 27 14 10 -6 78 33 94 55 10 12 15 13 27 3 9 -8 26 -10 42 -6 27 7 28 6 21
-28 -5 -25 -2 -39 9 -48 13 -10 13 -16 0 -46 -9 -21 -12 -48 -8 -67 6 -31 6
-32 -14 -15 -24 22 -33 23 -33 4 0 -7 -7 -19 -15 -26 -8 -7 -15 -23 -15 -36 0
-16 -8 -28 -25 -36 -17 -8 -25 -19 -25 -38 0 -14 -5 -31 -11 -37 -8 -8 -8 -17
1 -33 10 -18 9 -24 -6 -34 -15 -11 -16 -20 -7 -64 9 -46 8 -51 -9 -55 -10 -3
-23 -19 -29 -36 -8 -23 -19 -32 -44 -37 l-33 -6 16 -39 c14 -36 14 -42 -3 -73
-11 -19 -23 -33 -27 -30 -4 3 -8 1 -8 -5 0 -5 5 -13 10 -16 16 -10 11 -25 -8
-25 -11 0 -27 -9 -36 -19 -17 -19 -44 -18 -57 1 -3 5 -18 4 -33 -2 -15 -5 -38
-7 -52 -4 -35 9 -30 -10 11 -42 19 -14 35 -34 35 -43 0 -18 63 -48 68 -33 1 5
14 7 27 4 15 -2 25 0 25 7 0 6 10 10 23 8 16 -1 22 3 20 17 -1 16 4 17 37 12
38 -6 39 -5 55 38 10 25 14 49 10 55 -3 6 1 11 9 11 9 0 16 5 16 12 0 8 3 9
10 2 6 -6 24 -9 40 -6 21 3 31 12 39 32 5 16 7 31 4 34 -4 3 1 6 10 6 10 0 17
7 17 16 0 12 -6 15 -24 10 -15 -4 -28 0 -36 9 -10 12 -10 15 2 15 8 0 19 10
25 23 8 18 7 28 -8 46 -25 30 -24 41 4 42 14 0 35 17 60 50 24 32 44 49 53 45
8 -3 14 -1 14 4 0 6 -4 10 -10 10 -16 0 -11 20 7 27 9 4 26 16 37 27 20 20 21
20 24 2 2 -10 -1 -21 -6 -25 -16 -10 -9 -73 10 -93 13 -13 26 -16 49 -11 27 5
31 3 26 -9 -3 -9 0 -21 6 -27 8 -8 6 -11 -9 -11 -11 0 -15 -3 -8 -8 24 -16 20
-37 -9 -49 -16 -7 -38 -13 -48 -13 -17 0 -17 -3 -7 -20 10 -16 9 -23 -11 -44
-18 -19 -30 -24 -52 -19 -26 5 -29 3 -29 -21 0 -23 4 -26 36 -26 25 0 41 -7
54 -22 l19 -23 -6 23 c-4 19 -1 22 21 22 16 0 26 6 26 15 0 8 10 20 22 26 19
10 20 13 6 23 -18 14 -19 27 -1 45 11 10 17 11 26 2 9 -9 16 -6 29 11 l17 23
13 -32 c14 -37 28 -43 28 -13 0 12 7 20 18 20 30 0 47 17 34 32 -13 17 -5 59
12 56 18 -3 56 12 56 23 0 5 8 19 19 30 11 12 17 29 14 40 -7 26 5 71 18 63 6
-3 8 -12 5 -19 -8 -23 37 -14 66 13 22 21 25 27 14 36 -8 6 -17 22 -21 34 -6
22 -5 23 17 11 12 -6 26 -17 30 -23 4 -6 10 -7 14 -3 4 3 1 13 -5 21 -13 15
-14 15 69 -12 35 -12 49 -11 60 3 7 8 21 15 31 15 13 0 19 7 19 24 0 15 7 27
19 31 23 7 34 54 15 62 -20 8 -17 22 4 17 28 -7 90 57 97 102 9 56 22 84 40
84 10 0 15 10 15 30 0 33 25 54 76 65 18 3 40 15 50 26 9 10 26 19 36 19 15 0
18 5 13 21 -6 19 -4 21 13 17 16 -4 27 3 46 31 14 20 26 40 26 45 0 13 55 76
67 76 6 0 19 14 27 31 12 24 13 36 5 51 -11 20 1 37 24 38 5 0 6 4 3 9 -3 4 6
13 19 19 14 7 25 18 25 26 0 7 7 19 16 27 8 7 13 21 11 31 -4 15 -1 18 13 13
10 -3 21 -1 25 5 3 6 11 8 16 4 5 -3 7 -10 3 -15 -3 -6 3 -5 15 3 12 7 21 23
21 35 0 19 5 23 33 23 21 0 41 8 52 20 17 19 19 19 31 2 12 -15 12 -13 5 14
-5 17 -13 40 -19 50 -7 13 -7 26 -1 37 13 22 1 22 -24 0 -18 -17 -19 -17 -16
2 2 11 0 26 -4 33 -5 8 -2 12 9 12 17 0 16 10 -2 69 -6 21 -5 22 14 12 17 -9
21 -7 26 12 3 12 3 33 -1 45 -6 26 19 51 51 52 11 0 34 5 53 12 27 10 31 16
27 35 -4 13 0 28 9 38 21 20 34 19 47 -5 6 -11 18 -20 28 -20 9 0 32 -9 51
-21 18 -11 40 -18 48 -15 8 4 27 -3 43 -14 19 -14 44 -20 80 -20 46 0 55 4 84
35 19 19 38 35 45 35 6 0 11 9 11 19 0 17 4 18 32 11 20 -6 36 -6 44 1 8 7 14
7 19 -1 8 -12 52 -13 59 -1 9 13 55 -11 62 -32 3 -11 12 -16 21 -13 8 3 18 6
23 6 4 0 6 8 3 18 -5 21 41 82 61 82 7 0 25 -11 40 -25 15 -14 30 -26 34 -26
4 -1 18 -3 32 -5 79 -11 102 -18 107 -30 3 -8 9 -11 14 -9 5 3 20 -2 34 -11
14 -9 34 -14 46 -11 12 3 22 0 25 -8 3 -7 12 -16 20 -19 8 -3 13 -2 10 2 -2 4
6 12 19 18 22 11 25 9 39 -27 11 -27 20 -37 30 -33 20 8 31 -37 17 -64 -8 -16
-7 -21 5 -26 9 -3 20 -4 24 -1 5 3 12 1 15 -5 10 -17 34 7 28 29 -3 12 7 26
31 45 20 15 39 38 42 51 4 18 15 25 45 30 33 6 38 9 28 21 -7 8 -10 15 -8 17
36 21 51 27 63 27 8 0 22 10 30 21 14 21 16 21 40 5 19 -12 26 -13 26 -4 0 7
6 4 12 -7 15 -27 31 -36 42 -25 6 6 19 10 31 10 15 0 25 10 34 35 7 19 17 35
22 35 6 0 7 -4 4 -10 -3 -5 -1 -10 4 -10 6 0 11 5 11 10 0 7 6 7 19 0 44 -23
58 4 31 60 -26 53 -32 90 -19 106 9 11 9 21 0 40 -15 33 -14 39 4 24 8 -7 13
-16 10 -20 -3 -5 -1 -11 5 -15 5 -3 10 1 10 11 0 13 7 16 35 11 37 -6 43 0 23
23 -11 12 -10 12 3 2 9 -6 19 -9 22 -5 4 3 15 -2 26 -11 18 -16 19 -16 32 13
7 16 22 32 32 35 17 4 17 6 2 36 -9 18 -14 34 -11 37 3 3 -6 17 -20 31 -25 28
-33 52 -11 33 8 -6 17 -8 20 -4 4 3 13 0 22 -7 21 -17 21 9 -1 36 -11 14 -17
16 -21 6 -4 -10 -9 -9 -24 4 -15 13 -22 15 -31 6 -19 -19 -62 -14 -76 8 -7 12
-8 20 -2 20 5 0 10 5 10 10 0 6 -11 10 -24 10 -27 0 -49 28 -67 88 -14 47 -17
49 -60 27 -16 -9 -35 -13 -41 -9 -22 14 -59 13 -65 -2 -6 -17 -41 -18 -80 -3
l-28 11 24 9 c33 13 51 40 44 67 -3 12 -1 22 3 22 5 0 10 26 11 58 3 54 1 60
-22 72 -14 7 -25 17 -25 21 0 4 -9 5 -20 2 -11 -3 -20 -13 -20 -21 0 -15 -2
-15 -17 0 -11 11 -17 38 -19 82 -1 36 0 66 2 66 3 0 14 -5 24 -10 15 -8 21 -6
29 9 12 22 7 28 -36 46 -27 11 -33 19 -31 42 1 15 12 45 25 66 22 35 22 39 9
72 -8 19 -12 35 -8 35 10 0 32 50 32 72 0 20 -26 25 -33 6 -3 -10 -7 -10 -19
-1 -8 7 -18 10 -22 6 -10 -10 -26 17 -26 45 0 15 -6 22 -19 22 -11 0 -23 5
-26 10 -3 6 -17 7 -31 4 -18 -5 -24 -2 -24 10 0 9 -4 16 -9 16 -5 0 -8 11 -8
25 0 30 -25 69 -58 91 -14 9 -25 25 -25 35 0 12 -10 23 -25 29 -18 7 -25 17
-25 35 0 17 -5 25 -18 25 -25 0 -42 20 -42 49 0 13 -7 31 -15 40 -50 53 -67
82 -61 106 4 16 13 25 25 25 28 0 15 37 -18 54 -32 17 -92 12 -107 -9 -6 -8
-16 -15 -21 -15 -5 0 -16 -12 -23 -27 -12 -26 -13 -27 -20 -8 -7 17 -9 18 -14
4 -6 -13 -21 -16 -79 -15 -56 1 -75 -3 -87 -16 -13 -15 -49 -23 -86 -19 -14 1
-36 49 -29 62 10 14 -19 11 -56 -8 -38 -19 -130 -29 -156 -17 -19 8 -29 10
-83 20 -21 4 -47 19 -67 40 -33 35 -47 41 -57 25 -3 -5 -23 0 -43 10 -49 25
-68 24 -80 -3 -8 -18 -18 -23 -47 -23 -21 1 -41 7 -45 14 -7 11 -16 11 -45 1
-36 -12 -39 -11 -84 27 -63 53 -64 53 -89 36z m1277 -523 c0 -5 -4 -10 -9 -10
-6 0 -13 5 -16 10 -3 6 1 10 9 10 9 0 16 -4 16 -10z m887 -1086 c-3 -3 -12 -4
-19 -1 -8 3 -5 6 6 6 11 1 17 -2 13 -5z m-4092 -1084 c3 -5 1 -10 -4 -10 -6 0
-11 5 -11 10 0 6 2 10 4 10 3 0 8 -4 11 -10z m-310 -670 c3 -11 16 -25 27 -31
17 -9 18 -13 7 -20 -23 -15 -37 -10 -44 14 -4 12 -9 30 -11 40 -7 24 13 22 21
-3z m1105 -370 c0 -13 -52 -22 -63 -11 -8 8 -5 11 10 11 12 0 25 5 28 10 7 11
25 4 25 -10z m-88 -42 c-7 -7 -12 -8 -12 -2 0 14 12 26 19 19 2 -3 -1 -11 -7
-17z"/>
<path d="M11580 11550 c0 -7 11 -28 25 -46 21 -27 25 -42 21 -74 -5 -40 7 -63
18 -35 8 22 46 -3 46 -31 0 -13 10 -25 25 -32 14 -7 28 -19 31 -27 4 -8 10
-15 16 -15 5 0 5 6 0 16 -8 15 -3 58 13 111 9 29 -26 40 -57 19 -22 -16 -69
-22 -80 -10 -3 3 3 23 14 45 21 43 17 59 -13 59 -10 0 -19 5 -19 12 0 6 -3 8
-7 5 -3 -4 -12 -2 -20 4 -10 9 -13 8 -13 -1z"/>
<path d="M7673 10536 c4 -11 1 -16 -11 -16 -16 -1 -16 -1 1 -11 19 -11 23 -39
5 -39 -6 0 -3 -7 8 -15 18 -13 18 -14 1 -15 -10 0 -27 9 -39 20 -26 24 -58 26
-58 5 0 -8 -7 -15 -16 -15 -9 0 -27 -9 -41 -20 -14 -11 -32 -20 -39 -20 -8 0
-14 -5 -14 -11 0 -6 -7 -9 -15 -5 -18 6 -30 -32 -20 -63 3 -12 2 -21 -3 -21
-15 0 -82 -68 -82 -83 0 -8 -7 -20 -15 -27 -8 -7 -15 -23 -15 -36 0 -16 -6
-24 -17 -24 -21 -1 -68 -93 -59 -115 3 -8 1 -15 -5 -15 -6 0 -8 -4 -4 -9 3 -6
-2 -14 -12 -19 -15 -9 -15 -12 -3 -28 8 -10 11 -16 5 -13 -5 3 -23 -8 -38 -23
l-28 -27 20 -20 c16 -16 21 -38 25 -112 3 -51 8 -94 10 -97 3 -2 12 -2 21 1
10 4 15 19 15 45 0 45 14 62 52 62 15 0 27 3 26 8 -4 21 24 62 47 68 14 3 25
12 25 18 0 7 11 18 25 24 21 10 24 17 21 49 -2 21 -7 46 -11 55 -5 12 -2 20 9
24 9 4 16 18 16 34 0 16 5 32 10 35 6 3 10 17 10 31 0 24 14 32 25 14 7 -12
85 25 85 40 0 6 14 10 30 10 17 0 30 -5 30 -11 0 -13 85 -51 108 -48 9 1 28
-3 42 -8 24 -10 36 -1 39 28 2 12 -36 48 -44 41 -4 -4 -4 4 0 18 7 24 7 24
-11 8 -16 -14 -27 -15 -63 -7 -24 5 -46 7 -49 4 -9 -9 -42 27 -42 45 0 9 -9
25 -20 35 -27 24 -25 31 10 44 17 5 30 17 30 26 0 8 11 19 23 24 22 9 24 14
23 87 -1 57 -5 79 -15 82 -10 3 -12 0 -8 -12z"/>
<path d="M7825 10080 c-3 -5 -1 -10 4 -10 6 0 11 5 11 10 0 6 -2 10 -4 10 -3
0 -8 -4 -11 -10z"/>
<path d="M12195 10000 c-3 -5 -1 -10 4 -10 6 0 11 5 11 10 0 6 -2 10 -4 10 -3
0 -8 -4 -11 -10z"/>
<path d="M7173 9598 c-6 -7 -13 -28 -17 -47 -5 -28 -4 -32 8 -21 8 6 12 18 10
25 -3 7 -1 23 6 34 12 23 8 28 -7 9z"/>
<path d="M6695 8400 c-3 -5 -2 -10 4 -10 5 0 13 5 16 10 3 6 2 10 -4 10 -5 0
-13 -4 -16 -10z"/>
<path d="M9307 8296 c-4 -9 1 -20 12 -26 12 -6 21 -25 25 -52 9 -68 11 -75 25
-92 8 -9 22 -16 32 -16 16 0 17 3 8 18 -10 16 -6 24 25 54 20 19 33 38 29 41
-3 4 1 7 11 7 14 0 15 4 6 20 -10 18 -13 19 -26 5 -21 -20 -31 -19 -44 5 -6
11 -15 18 -21 15 -5 -4 -9 -1 -9 5 0 6 -4 8 -10 5 -5 -3 -20 1 -34 10 -21 14
-24 14 -29 1z"/>
<path d="M7045 8170 c3 -5 11 -10 16 -10 6 0 7 5 4 10 -3 6 -11 10 -16 10 -6
0 -7 -4 -4 -10z"/>
<path d="M9339 8103 c-11 -3 -14 -12 -11 -33 2 -17 8 -30 12 -30 7 0 30 45 30
60 0 10 -4 11 -31 3z"/>
<path d="M8860 7977 c0 -4 -4 -6 -8 -3 -4 2 -13 -3 -19 -13 -9 -14 -7 -21 9
-35 13 -12 24 -14 30 -8 6 6 6 12 -1 16 -18 12 -12 23 14 30 14 4 23 11 20 16
-7 11 -45 9 -45 -3z"/>
<path d="M9195 7970 c-3 -5 -12 -7 -20 -3 -9 3 -21 0 -28 -5 -8 -7 -26 -8 -52
-2 -56 13 -55 14 -55 -27 0 -20 -7 -44 -15 -54 -14 -15 -14 -20 2 -49 10 -18
29 -40 41 -48 21 -14 22 -13 28 16 5 26 12 31 38 34 27 3 31 7 31 31 -1 26 2
28 27 23 17 -3 33 0 43 10 8 8 19 13 24 10 5 -3 11 0 14 7 5 15 -70 70 -78 57z"/>
<path d="M8556 7961 c-3 -5 0 -13 7 -19 15 -13 42 1 33 17 -9 13 -33 15 -40 2z"/>
<path d="M9330 7933 c0 -6 -9 -9 -20 -6 -16 4 -19 2 -14 -11 3 -9 1 -16 -6
-16 -6 0 -8 -4 -5 -10 12 -20 43 -10 49 16 4 15 5 29 1 32 -3 3 -5 1 -5 -5z"/>
<path d="M7975 7920 c-3 -5 -13 -6 -23 -3 -16 6 -16 6 0 -10 9 -9 21 -17 27
-17 6 0 11 -4 11 -10 0 -5 5 -10 10 -10 6 0 10 14 10 30 0 29 -21 42 -35 20z"/>
<path d="M9121 7693 c13 -79 11 -89 -18 -102 l-27 -13 21 -16 c12 -9 26 -36
32 -59 10 -38 14 -41 34 -34 15 6 21 16 20 30 -2 18 2 16 27 -13 17 -18 30
-39 30 -45 0 -6 9 -11 19 -11 10 0 21 -7 25 -15 3 -8 22 -22 43 -32 21 -10 43
-28 49 -41 13 -25 43 -51 61 -52 6 0 14 14 18 30 4 17 10 30 15 30 13 0 19
-52 7 -70 -15 -24 -1 -68 25 -76 25 -8 50 -29 47 -41 -2 -9 40 -33 59 -33 6 0
12 5 12 11 0 8 5 7 15 -1 14 -11 14 -10 5 14 -13 34 -13 39 1 30 6 -3 3 6 -7
21 -20 31 -28 115 -10 115 25 0 -64 38 -116 50 -41 9 -58 18 -61 32 -4 14 -1
18 9 14 11 -4 12 -2 4 14 -5 10 -19 21 -29 25 -12 3 -17 12 -14 23 5 21 -15
48 -43 56 -14 4 -29 -3 -52 -25 -17 -17 -36 -28 -42 -24 -13 8 -13 75 1 75 5
0 7 5 3 11 -3 6 -2 14 3 18 6 3 14 17 18 31 7 24 6 24 -7 6 -9 -11 -20 -16
-27 -12 -6 4 -19 2 -27 -5 -13 -11 -15 -10 -12 2 5 22 -39 89 -59 89 -9 0 -26
9 -38 20 l-22 21 8 -48z"/>
<path d="M9507 7125 c3 -8 9 -12 14 -9 12 7 11 11 -5 17 -10 4 -13 1 -9 -8z"/>
</g>
</svg>
