<?xml version="1.0" standalone="no"?>
<!DOCTYPE svg PUBLIC "-//W3C//DTD SVG 20010904//EN"
 "http://www.w3.org/TR/2001/REC-SVG-20010904/DTD/svg10.dtd">
<svg version="1.0" xmlns="http://www.w3.org/2000/svg"
 width="905.588026pt" height="1021.393360pt" viewBox="0 0 905.588026 1021.393360"
 preserveAspectRatio="xMidYMid meet">
<metadata>
Created by potrace 1.15, written by Peter Selinger 2001-2017
</metadata>
<g transform="translate(-541.000000,1482.968357) scale(0.100000,-0.100000)"
fill="#222222" stroke="none">
<path d="M6531 14795 c-10 -29 -17 -35 -42 -35 -27 0 -29 -2 -23 -27 4 -16 16
-43 27 -62 11 -18 21 -43 23 -55 1 -11 5 -28 8 -36 5 -11 -3 -19 -26 -28 -24
-9 -29 -15 -20 -21 14 -9 -4 -18 -60 -30 l-28 -6 25 -41 24 -41 58 8 c40 6 60
4 65 -4 11 -18 78 -14 93 6 15 20 27 21 43 5 7 -7 32 -18 55 -23 34 -9 43 -16
45 -36 2 -14 -4 -31 -12 -39 -24 -19 -20 -37 14 -68 25 -22 31 -37 34 -77 2
-27 7 -62 11 -76 4 -18 1 -30 -10 -39 -14 -12 -13 -16 15 -41 34 -31 38 -54
13 -81 -12 -14 -14 -21 -5 -30 9 -9 16 -7 31 6 44 40 142 -11 127 -66 -5 -19
-2 -20 47 -13 67 9 126 10 157 0 14 -4 38 -9 54 -12 16 -3 31 -13 33 -24 3
-10 9 -17 13 -14 14 9 41 -7 36 -20 -5 -15 29 -75 44 -75 5 0 10 -7 10 -15 0
-8 7 -15 15 -15 8 0 15 -9 15 -19 0 -12 11 -23 30 -30 29 -10 42 -31 19 -31
-6 0 -9 -9 -6 -20 4 -15 -2 -25 -19 -37 -17 -11 -23 -21 -19 -34 4 -11 3 -19
-2 -19 -16 1 -43 28 -43 44 0 9 -8 16 -20 16 -11 0 -20 -4 -20 -10 0 -5 -6 -7
-14 -4 -19 7 -56 -13 -56 -31 0 -8 -6 -14 -12 -12 -12 2 -13 -3 -9 -36 0 -8
11 -13 23 -13 17 1 24 -6 28 -29 4 -23 11 -31 30 -32 l25 -3 -23 10 c-13 6
-20 15 -17 21 5 8 10 8 18 0 20 -20 56 -12 70 15 l13 25 12 -25 c6 -14 18 -26
27 -26 8 0 15 -6 15 -12 0 -10 3 -9 9 1 6 9 11 10 15 2 4 -6 12 -11 18 -11 6
0 6 6 -2 15 -20 24 -8 26 46 10 61 -18 64 -18 64 0 0 8 9 15 20 15 10 0 31 5
44 12 21 9 29 8 45 -6 10 -9 25 -14 35 -10 9 4 16 1 16 -6 0 -9 10 -11 30 -6
25 4 30 2 30 -13 0 -25 39 -73 55 -67 7 2 17 0 22 -5 13 -13 195 -37 250 -34
56 4 63 10 63 56 0 32 -4 41 -25 51 -15 6 -25 20 -25 31 0 11 -8 29 -17 39
-21 23 -29 166 -13 213 9 24 8 32 -6 42 -13 10 -19 9 -31 -3 -8 -7 -19 -14
-25 -14 -5 0 -8 -7 -4 -15 9 -24 -41 -31 -64 -10 -11 10 -17 21 -14 26 2 5 -7
11 -21 15 -14 3 -25 10 -25 15 0 5 -7 6 -16 2 -14 -5 -14 -3 -3 15 8 12 27 26
43 32 47 16 66 38 56 65 -8 20 -4 24 29 34 21 6 48 11 60 11 14 0 21 6 21 20
0 16 7 20 30 20 19 0 33 6 37 16 3 8 12 13 19 10 8 -3 14 1 14 10 0 12 7 15
25 12 14 -3 25 -1 25 4 0 5 10 4 21 -3 15 -8 19 -8 15 0 -4 6 -2 11 3 11 6 0
11 11 11 24 0 13 7 29 16 37 8 7 13 21 11 31 -3 10 0 24 7 31 21 20 23 40 9
67 -17 33 -2 37 42 10 19 -12 35 -19 35 -16 0 3 14 0 30 -5 17 -6 30 -17 30
-24 0 -13 29 -13 50 0 17 10 11 -27 -7 -47 -22 -24 -3 -23 48 2 23 12 48 18
60 15 11 -4 19 -2 19 4 0 14 55 14 80 1 15 -8 21 -6 28 6 6 10 16 15 26 11 21
-8 20 -1 -3 31 -20 29 -22 95 -2 115 6 6 11 19 11 29 0 20 11 23 26 8 8 -8 20
-7 40 2 39 17 46 28 39 62 -4 21 -2 27 9 23 17 -7 29 43 14 61 -8 9 -3 12 21
12 17 0 31 5 31 10 0 6 7 10 16 10 8 0 12 5 9 10 -3 6 3 10 15 10 20 0 19 3
-12 39 -38 45 -83 121 -71 121 4 0 9 17 10 37 1 26 -1 33 -7 23 -8 -12 -10
-12 -10 3 0 13 -6 17 -22 15 -29 -4 -34 -24 -8 -31 23 -6 27 -27 5 -27 -8 0
-15 5 -15 11 0 5 -9 9 -19 7 -10 -2 -28 6 -40 16 -26 24 -58 28 -66 9 -3 -9
-12 -12 -24 -8 -16 5 -18 2 -14 -15 5 -18 3 -19 -19 -11 -35 13 -104 2 -124
-20 -9 -11 -25 -19 -35 -19 -10 0 -34 -8 -54 -17 -26 -14 -34 -23 -31 -37 6
-22 -19 -45 -46 -46 -10 0 -18 -7 -18 -15 0 -8 -10 -19 -21 -26 -18 -9 -24 -8
-31 5 -5 9 -15 16 -23 16 -7 0 -16 6 -19 13 -3 6 -4 -6 -3 -27 3 -31 0 -40
-15 -44 -26 -6 -22 -32 12 -72 29 -34 37 -51 23 -49 -23 4 -31 -5 -37 -42 -5
-29 -12 -43 -26 -46 -11 -3 -17 -10 -13 -16 17 -28 -45 28 -68 61 -16 23 -32
36 -43 34 -10 -2 -25 3 -33 10 -9 7 -35 14 -57 16 -23 1 -63 4 -89 5 -27 2
-55 11 -64 20 -14 14 -21 13 -74 -15 l-59 -31 -47 17 c-27 10 -60 24 -76 32
-16 9 -48 14 -80 13 -28 -1 -64 1 -79 5 -21 6 -29 4 -34 -8 -3 -9 -17 -16 -30
-16 -16 0 -22 -4 -18 -14 4 -11 0 -13 -17 -9 -18 5 -21 3 -16 -11 6 -15 3 -17
-26 -11 -36 8 -59 23 -52 35 3 4 -7 8 -23 9 -15 0 -37 0 -49 1 -12 0 -43 22
-72 52 -41 41 -52 48 -57 35 -8 -23 -63 -13 -84 14 -13 17 -23 19 -59 13 -24
-4 -53 -16 -63 -26 -18 -18 -20 -18 -61 2 -95 46 -141 78 -142 99 -1 11 -8 29
-16 38 -8 10 -21 29 -27 43 -26 51 -40 72 -61 86 -11 8 -21 22 -21 31 0 18
-28 42 -50 43 -9 0 -21 -15 -29 -35z m2289 -160 c-7 -8 -16 -15 -21 -15 -15 0
-10 22 9 43 15 17 17 17 20 3 2 -9 -2 -23 -8 -31z m-1470 -275 c0 -5 -5 -10
-11 -10 -5 0 -7 5 -4 10 3 6 8 10 11 10 2 0 4 -4 4 -10z m1010 -140 c0 -5 -2
-10 -4 -10 -3 0 -8 5 -11 10 -3 6 -1 10 4 10 6 0 11 -4 11 -10z m-1012 -252
c4 2 8 -1 10 -7 8 -23 -42 -3 -50 19 -9 24 -9 24 13 4 11 -10 24 -18 27 -16z
m188 -18 c10 -16 25 -31 33 -32 9 -2 16 -14 16 -28 0 -17 7 -26 25 -30 l25 -6
-25 -14 c-17 -9 -25 -10 -28 -1 -2 6 -10 11 -19 11 -21 0 -73 39 -73 54 0 8
-7 19 -15 26 -11 9 -12 16 -2 31 17 28 43 23 63 -11z"/>
<path d="M9062 14775 c-13 -15 -28 -22 -37 -19 -11 4 -13 2 -9 -9 3 -8 16 -17
30 -20 19 -3 24 0 24 15 0 11 9 22 20 25 22 6 28 33 7 33 -7 0 -23 -11 -35
-25z"/>
<path d="M8830 14776 c0 -9 5 -16 10 -16 6 0 10 4 10 9 0 6 -4 13 -10 16 -5 3
-10 -1 -10 -9z"/>
<path d="M8935 14770 c-3 -5 -1 -10 4 -10 6 0 11 5 11 10 0 6 -2 10 -4 10 -3
0 -8 -4 -11 -10z"/>
<path d="M8790 14760 c20 -13 33 -13 25 0 -3 6 -14 10 -23 10 -15 0 -15 -2 -2
-10z"/>
<path d="M6373 14369 c-1 -16 2 -29 7 -29 6 0 10 7 10 15 0 9 6 12 15 9 24
-10 17 12 -7 23 -21 9 -23 7 -25 -18z"/>
<path d="M6356 14304 c-4 -10 -1 -14 6 -12 15 5 23 28 10 28 -5 0 -13 -7 -16
-16z"/>
<path d="M6290 14259 c0 -22 -4 -38 -9 -34 -13 8 -22 -10 -15 -29 8 -20 34
-21 34 -1 0 8 7 15 15 15 13 0 14 4 5 20 -9 16 -7 24 5 36 18 19 11 34 -16 34
-16 0 -19 -7 -19 -41z"/>
<path d="M6145 14240 c-12 -5 -15 -9 -5 -9 10 -1 11 -4 3 -12 -6 -6 -9 -18 -6
-27 4 -8 -2 -21 -12 -28 -16 -12 -17 -17 -6 -41 9 -19 9 -29 2 -31 -6 -2 -11
-12 -11 -23 0 -11 -7 -19 -17 -19 -14 0 -18 -9 -18 -39 0 -22 6 -46 13 -53 10
-10 12 -9 11 7 -4 39 1 53 22 58 17 5 20 11 16 29 -7 24 25 68 50 68 7 0 13 8
13 19 0 10 12 30 26 44 29 29 25 54 -6 37 -16 -8 -22 -6 -32 10 -14 22 -15 22
-43 10z"/>
<path d="M8446 14122 c4 -15 11 -37 15 -49 5 -13 6 -29 3 -36 -6 -16 21 -41
35 -33 5 4 13 -4 16 -16 11 -36 34 -56 56 -51 13 4 30 -4 48 -21 17 -16 34
-24 44 -21 14 6 14 8 -2 23 -28 27 -59 42 -85 42 -32 0 -45 24 -39 72 4 25 2
38 -6 38 -6 0 -11 4 -11 9 0 15 -49 65 -65 67 -11 2 -13 -4 -9 -24z"/>
<path d="M5485 14043 c-11 -3 -24 -9 -29 -14 -6 -5 -16 -3 -24 4 -13 10 -14 9
-3 -10 6 -13 15 -23 20 -23 5 0 24 -12 43 -28 23 -18 34 -35 33 -50 -1 -12 6
-29 16 -38 16 -14 18 -13 33 7 13 20 17 21 33 8 39 -31 45 -50 45 -149 0 -13
7 -29 16 -36 13 -9 14 -15 4 -26 -9 -12 -7 -19 13 -38 26 -24 33 -50 14 -50
-5 0 -7 -4 -4 -10 3 -5 15 -10 26 -10 10 0 19 -6 19 -12 0 -7 3 -23 6 -35 5
-17 1 -22 -18 -25 -15 -2 -23 -10 -23 -23 0 -15 -6 -19 -23 -18 -13 2 -39 -4
-59 -12 -30 -13 -34 -18 -29 -39 3 -14 1 -28 -4 -31 -6 -4 -8 -11 -4 -16 7
-13 -24 -49 -43 -49 -7 0 -13 9 -13 20 0 17 -7 20 -46 20 -48 0 -48 0 -10 -52
11 -16 29 -28 42 -28 12 0 27 -7 34 -15 7 -8 18 -15 26 -15 7 0 18 -9 24 -19
7 -13 23 -21 48 -23 35 -3 37 -5 38 -38 1 -31 15 -96 31 -136 3 -9 -1 -14 -12
-14 -11 0 -15 -5 -11 -15 3 -9 -1 -18 -10 -22 -12 -4 -8 -9 15 -21 17 -8 29
-18 26 -22 -2 -4 9 -20 25 -35 25 -24 30 -26 36 -12 3 9 3 21 -1 26 -3 6 5 13
18 16 17 5 28 17 34 38 7 26 14 33 41 35 28 3 32 7 32 34 l0 31 41 -44 c22
-24 39 -38 36 -30 -2 8 5 23 15 33 22 22 23 47 3 54 -22 9 -18 24 5 24 11 0
20 4 20 9 0 5 15 12 34 15 36 7 51 27 34 44 -6 6 -7 15 -4 21 9 15 97 -50 91
-67 -3 -7 0 -10 6 -7 6 4 16 0 22 -8 16 -21 64 -11 70 14 3 10 1 21 -4 24 -5
4 6 21 25 39 70 71 93 125 64 154 -8 8 -8 15 1 25 16 20 4 44 -41 85 -26 23
-35 38 -27 42 6 4 8 16 5 28 -4 11 -2 23 4 27 5 3 7 18 4 32 -5 18 -3 24 4 19
8 -4 10 -2 6 8 -3 8 -12 17 -20 20 -9 3 -13 10 -9 15 3 6 -17 20 -45 33 -44
20 -67 48 -40 48 16 0 12 37 -5 44 -8 3 -15 12 -15 20 0 19 -79 96 -98 96 -7
0 -27 -15 -43 -33 -26 -29 -34 -32 -79 -31 -48 3 -50 2 -44 -22 6 -23 4 -24
-42 -24 -26 0 -44 3 -41 6 4 4 -7 24 -23 44 -17 21 -30 47 -30 58 0 11 -7 22
-15 26 -8 3 -15 12 -15 19 0 8 7 20 15 27 8 7 15 16 15 20 0 12 -37 19 -48 8
-6 -6 -17 -6 -30 1 -11 6 -31 11 -43 11 -13 0 -41 9 -63 20 -45 21 -90 30
-121 23z m142 -779 c-3 -3 -12 -4 -19 -1 -8 3 -5 6 6 6 11 1 17 -2 13 -5z"/>
<path d="M5550 13455 c0 -8 5 -15 10 -15 6 0 10 7 10 15 0 8 -4 15 -10 15 -5
0 -10 -7 -10 -15z"/>
<path d="M5410 13401 c0 -5 5 -13 10 -16 6 -3 10 -2 10 4 0 5 -4 13 -10 16 -5
3 -10 2 -10 -4z"/>
<path d="M8257 13298 c-4 -15 -15 -29 -25 -32 -24 -8 -46 -57 -30 -68 16 -9
11 -69 -6 -83 -18 -14 -14 -76 7 -108 23 -35 21 -52 -5 -77 -20 -18 -20 -20
-4 -14 12 5 17 4 13 -3 -10 -15 16 -63 34 -63 8 0 22 -15 30 -32 9 -21 22 -34
37 -36 26 -4 28 -19 6 -43 -14 -15 -13 -18 13 -36 38 -27 73 -35 73 -17 0 8 6
14 13 14 16 -1 97 -74 97 -88 0 -16 41 -52 58 -52 11 0 12 3 3 14 -13 15 1 32
18 21 5 -3 12 -1 16 5 4 6 11 7 17 4 5 -4 2 5 -7 20 -22 33 -16 40 20 26 35
-13 83 -4 87 17 2 9 19 22 38 28 22 7 41 23 50 41 8 16 18 31 23 32 4 2 7 18
7 37 0 18 6 38 14 44 26 22 26 51 0 63 -27 13 -31 33 -8 42 24 9 46 7 39 -4
-3 -5 -1 -10 4 -10 21 0 10 33 -23 70 -32 35 -36 37 -99 37 -37 0 -73 6 -81
12 -8 7 -33 15 -54 17 -35 4 -43 1 -70 -31 -19 -21 -37 -33 -46 -29 -12 5 -14
-1 -9 -31 6 -36 6 -36 -21 -24 -26 12 -33 33 -17 57 13 20 -18 102 -39 102 -9
0 -25 9 -35 20 -10 11 -15 20 -11 20 4 0 0 10 -8 22 -9 12 -16 32 -16 43 0 25
-53 67 -74 59 -10 -4 -16 2 -18 18 -3 22 -4 22 -11 -4z"/>
<path d="M7538 13224 c5 -42 39 -54 53 -18 14 38 12 41 -24 46 -31 3 -32 2
-29 -28z"/>
<path d="M7451 13211 c-13 -11 -19 -25 -15 -35 4 -12 2 -15 -9 -11 -8 4 -17 0
-20 -8 -3 -9 -14 -13 -30 -10 -20 4 -28 -1 -39 -24 -9 -19 -12 -37 -7 -51 6
-16 5 -22 -6 -22 -8 0 -15 -7 -15 -15 0 -8 5 -15 11 -15 5 0 -13 -23 -40 -51
-41 -42 -54 -49 -65 -40 -10 9 -16 9 -21 1 -4 -6 -16 -8 -28 -5 -20 6 -20 5 3
-14 14 -11 21 -21 15 -21 -5 0 8 -11 30 -24 22 -13 50 -38 63 -55 12 -17 38
-37 57 -45 23 -10 35 -22 35 -34 0 -27 21 -32 43 -10 9 10 14 18 10 18 -4 0
-2 5 4 11 6 6 9 18 6 25 -3 8 0 21 6 28 10 11 8 16 -9 21 -12 4 -19 9 -16 12
3 3 -6 25 -19 48 -30 51 -31 55 -5 55 11 0 25 9 32 20 7 11 23 20 35 20 18 0
23 6 23 25 0 14 8 29 20 35 14 8 20 21 20 45 0 21 5 35 13 35 9 0 9 2 -1 9
-10 6 -10 10 2 20 14 12 12 17 -10 47 -30 39 -42 41 -73 15z"/>
<path d="M7616 13173 c-4 -9 -2 -21 4 -27 7 -7 10 -2 10 17 0 31 -5 34 -14 10z"/>
<path d="M6120 13159 c0 -5 5 -7 10 -4 6 3 10 8 10 11 0 2 -4 4 -10 4 -5 0
-10 -5 -10 -11z"/>
<path d="M8956 12991 c-4 -5 3 -7 14 -4 23 6 26 13 6 13 -8 0 -17 -4 -20 -9z"/>
<path d="M7122 12950 c-12 -20 -6 -26 13 -12 12 9 18 32 7 32 -4 0 -13 -9 -20
-20z"/>
<path d="M7151 12874 c0 -11 3 -14 6 -6 3 7 2 16 -1 19 -3 4 -6 -2 -5 -13z"/>
<path d="M8012 12688 c-20 -12 -31 -26 -28 -34 6 -17 -6 -18 -21 -3 -8 8 -14
5 -23 -10 -9 -18 -8 -23 12 -30 29 -11 48 -4 48 18 0 12 10 16 45 17 25 0 45
-3 45 -8 0 -4 11 -8 25 -8 l25 0 -20 40 c-24 47 -53 52 -108 18z"/>
<path d="M8190 12666 c0 -2 7 -9 15 -16 12 -10 15 -10 15 4 0 9 -7 16 -15 16
-8 0 -15 -2 -15 -4z"/>
<path d="M8155 12641 c-7 -12 12 -24 25 -16 6 3 10 1 10 -6 0 -7 3 -9 6 -6 8
7 -14 37 -27 37 -4 0 -10 -4 -14 -9z"/>
<path d="M7380 12623 c0 -15 47 -70 54 -62 3 3 -8 21 -24 40 -16 19 -29 29
-30 22z"/>
<path d="M7610 12588 c0 -19 35 -42 53 -34 8 3 8 5 -1 5 -8 1 -22 11 -33 24
-15 18 -18 19 -19 5z"/>
<path d="M8196 12584 c-8 -21 -8 -24 3 -24 12 0 22 28 12 35 -5 3 -12 -2 -15
-11z"/>
<path d="M7850 12540 c0 -31 -1 -32 -32 -26 -103 18 -115 18 -155 -1 -46 -22
-73 -13 -73 26 0 26 -26 28 -39 2 -12 -21 -61 -34 -75 -20 -6 5 -18 9 -27 9
-15 0 -16 -4 -8 -27 11 -31 71 -83 76 -67 2 6 30 8 69 6 65 -4 66 -4 55 17
-17 32 11 38 55 12 37 -22 57 -20 47 4 -8 21 17 19 41 -4 21 -19 92 -31 111
-19 6 3 27 9 48 13 47 9 56 22 23 34 -13 6 -30 23 -38 38 -10 21 -22 29 -46
31 -30 3 -32 1 -32 -28z m-230 -60 c0 -5 -4 -10 -9 -10 -6 0 -13 5 -16 10 -3
6 1 10 9 10 9 0 16 -4 16 -10z"/>
<path d="M8003 12545 c-21 -23 -16 -38 10 -31 12 3 28 6 36 6 11 0 10 5 -4 20
-21 23 -26 24 -42 5z"/>
<path d="M8590 12540 c0 -5 7 -10 15 -10 15 0 20 -26 9 -54 -3 -9 -12 -16 -20
-16 -10 0 -14 -12 -14 -38 0 -41 -15 -63 -36 -55 -8 3 -14 -1 -14 -11 0 -9 -8
-20 -17 -23 -10 -4 -21 -11 -24 -16 -4 -5 -15 -5 -27 2 -16 8 -21 7 -26 -5 -5
-13 -14 -15 -41 -10 -28 6 -35 4 -35 -9 0 -9 -9 -15 -22 -15 -13 -1 -34 -7
-48 -15 -14 -8 -46 -14 -72 -15 -27 0 -48 -5 -48 -10 0 -6 -11 -15 -25 -20
-14 -5 -30 -21 -37 -35 -7 -16 -17 -24 -26 -20 -7 3 -20 -2 -28 -10 -21 -21
-40 -19 -64 7 -11 12 -33 23 -48 24 -24 1 -27 5 -29 39 -2 37 -2 37 28 31 19
-3 28 -2 24 4 -3 6 -12 10 -19 10 -15 0 -39 33 -51 70 -4 14 -15 31 -24 38
-27 21 -101 55 -108 48 -3 -3 -12 -1 -18 4 -15 12 -80 -12 -68 -24 5 -5 -2 -5
-14 -2 -19 6 -25 2 -33 -18 -11 -30 -10 -29 -44 -16 -21 8 -24 7 -19 -7 5 -14
0 -15 -35 -9 -35 5 -42 4 -42 -11 0 -9 -9 -26 -19 -37 -23 -25 -34 -101 -19
-130 6 -11 12 -38 13 -58 1 -21 11 -48 21 -59 11 -13 19 -36 19 -62 0 -23 6
-52 13 -65 7 -12 10 -27 7 -32 -3 -6 1 -10 9 -10 25 0 29 -19 15 -81 -10 -45
-17 -59 -31 -59 -22 0 -23 5 7 -54 15 -29 23 -58 19 -69 -5 -15 -2 -18 13 -13
13 4 25 -6 46 -35 29 -43 34 -74 15 -114 -11 -24 -9 -29 11 -44 13 -10 21 -24
19 -32 -3 -8 6 -26 19 -40 18 -20 25 -39 26 -75 1 -27 6 -55 10 -61 5 -8 3
-13 -5 -13 -20 0 46 -55 94 -78 39 -19 44 -27 55 -73 7 -29 9 -58 4 -66 -5
-10 1 -33 18 -67 17 -34 26 -69 27 -106 1 -48 7 -78 29 -150 3 -8 10 -36 17
-62 6 -27 15 -48 20 -48 4 0 10 0 13 0 3 0 15 -9 27 -19 11 -11 26 -18 32 -15
6 3 3 -1 -6 -9 -21 -16 -24 -53 -5 -60 17 -6 80 4 94 15 9 7 16 2 24 -16 7
-14 19 -27 28 -27 68 -7 82 -6 87 2 3 5 17 9 32 9 15 0 47 9 71 20 44 21 116
27 125 11 8 -12 55 -20 61 -11 3 5 -1 11 -7 13 -10 4 -10 8 1 15 8 6 11 17 8
26 -4 9 -3 16 2 16 15 0 32 -27 26 -42 -3 -8 6 -30 20 -49 13 -18 29 -45 35
-59 7 -18 32 -35 85 -58 40 -19 78 -31 84 -28 5 4 38 -1 71 -11 50 -15 67 -25
89 -55 14 -21 33 -36 41 -35 8 2 30 -5 48 -16 27 -16 38 -17 58 -9 13 7 39 9
56 5 18 -3 30 -2 26 2 -4 4 4 19 17 33 l23 25 32 -24 c17 -13 46 -36 64 -51
19 -16 38 -28 44 -28 9 0 25 -36 23 -52 -2 -12 27 -9 34 2 5 8 11 7 21 -1 11
-9 14 -9 14 0 0 16 39 4 66 -20 11 -11 29 -19 40 -19 10 0 26 -4 34 -10 9 -6
17 -5 21 1 4 7 24 1 55 -15 27 -14 53 -26 58 -26 5 0 15 -8 22 -17 7 -10 14
-14 14 -10 0 5 -13 21 -29 36 -30 29 -53 101 -32 101 6 0 11 9 11 20 0 24 -41
53 -75 53 -29 0 -58 27 -37 35 10 3 8 10 -8 26 l-20 23 19 43 c18 40 18 47 5
78 -8 19 -14 56 -14 82 0 52 -16 74 -63 86 -16 3 -31 12 -33 19 -3 7 -14 10
-26 7 -18 -4 -20 -2 -16 16 4 13 -1 27 -12 37 -29 27 -80 226 -62 247 7 9 6
19 -4 32 -20 28 -17 57 6 63 11 3 20 9 20 14 0 5 7 9 15 9 9 0 15 9 15 24 0
18 8 27 31 35 23 8 30 15 25 27 -3 8 -6 20 -6 25 0 5 -7 9 -15 9 -8 0 -15 -6
-15 -14 0 -8 -7 -22 -16 -30 -14 -14 -19 -13 -54 9 -39 25 -87 34 -75 15 8
-13 0 -13 -28 2 -12 6 -29 14 -37 18 -8 4 -15 16 -16 26 -2 38 -5 42 -34 54
-16 7 -30 19 -30 27 0 7 -9 42 -20 76 -33 106 -34 134 -5 153 15 10 25 26 25
41 0 15 5 23 13 21 6 -3 12 -10 12 -16 0 -5 3 -14 8 -18 4 -4 7 -3 7 3 0 19
69 13 83 -7 7 -11 28 -19 52 -21 37 -4 40 -2 43 24 2 15 7 27 11 27 5 0 6 12
3 26 -3 15 -1 25 4 22 10 -6 36 17 28 25 -3 2 7 8 21 11 14 4 23 11 20 16 -3
5 -1 11 5 15 15 9 12 35 -4 35 -7 0 -21 10 -29 23 -13 17 -18 19 -25 9 -7 -11
-10 -10 -16 3 -3 10 -11 13 -18 9 -10 -6 -10 -5 -1 7 8 9 9 20 3 29 -6 8 -10
23 -10 32 0 9 -11 29 -24 44 -50 55 -54 63 -49 83 3 12 -3 31 -16 47 -26 33
-27 64 -3 64 26 1 68 35 53 45 -9 5 -4 12 14 21 15 8 31 11 36 8 6 -3 7 5 3
21 -5 21 -3 27 15 32 12 3 21 14 22 27 2 27 2 28 -6 49 -5 12 -2 17 9 17 8 0
24 18 35 40 l19 39 -23 31 c-18 25 -22 39 -17 72 4 31 2 39 -7 33 -7 -4 -22 2
-37 16 l-24 22 0 -22 c0 -12 -4 -20 -9 -17 -5 4 -4 -5 2 -19 7 -14 15 -25 18
-25 3 0 2 -20 -4 -45 -7 -31 -15 -44 -23 -41 -8 3 -16 1 -19 -5 -4 -5 -11 -6
-17 -3 -8 5 -9 1 -4 -11 9 -26 -40 -69 -69 -60 -41 14 -83 17 -89 6 -4 -6 -20
-11 -35 -11 -40 0 -91 -20 -91 -35 0 -7 -7 -18 -15 -25 -13 -11 -20 -9 -40 10
-16 15 -22 27 -16 33 6 6 -1 18 -17 32 -22 19 -24 25 -13 38 15 19 -1 57 -25
57 -9 0 -41 26 -72 58 -31 32 -65 64 -75 71 -15 12 -17 12 -11 -3 5 -12 0 -16
-19 -16 -34 0 -54 25 -37 45 11 13 8 20 -20 45 -32 29 -80 41 -80 20z m323
-516 c-3 -8 0 -14 6 -14 6 0 8 -7 5 -15 -9 -22 -19 -18 -32 10 -6 14 -18 25
-27 25 -24 0 -18 18 8 22 28 5 48 -9 40 -28z m227 -14 c0 -5 -4 -10 -9 -10 -6
0 -13 5 -16 10 -3 6 1 10 9 10 9 0 16 -4 16 -10z m-270 -15 c9 -11 10 -19 2
-27 -14 -14 -32 -1 -32 23 0 23 13 25 30 4z m15 -75 c20 -23 17 -24 -19 -10
-14 5 -26 14 -26 20 0 17 26 11 45 -10z m225 -475 c0 -8 -2 -15 -4 -15 -2 0
-6 7 -10 15 -3 8 -1 15 4 15 6 0 10 -7 10 -15z"/>
<path d="M7400 12420 c-8 -5 -26 -6 -39 -3 -16 4 -22 2 -20 -6 3 -7 8 -12 12
-12 4 1 15 1 25 1 10 0 27 7 38 15 21 16 8 20 -16 5z"/>
<path d="M9360 11410 c0 -5 5 -10 10 -10 6 0 10 5 10 10 0 6 -4 10 -10 10 -5
0 -10 -4 -10 -10z"/>
<path d="M11575 10120 c-4 -6 -13 -9 -21 -6 -18 7 -19 -30 -1 -41 16 -11 19
-46 4 -55 -8 -5 -6 -8 5 -8 14 0 16 -6 12 -28 -6 -28 -4 -29 33 -28 34 0 38 3
38 27 0 14 -6 33 -13 41 -10 13 -10 19 2 31 17 17 2 39 -20 30 -8 -3 -15 0
-15 6 -3 26 -4 30 -10 36 -4 3 -10 1 -14 -5z"/>
<path d="M11370 10063 c0 -7 -7 -13 -15 -13 -11 0 -15 -11 -15 -42 0 -62 19
-92 60 -99 19 -4 31 -7 26 -8 -5 0 -3 -7 3 -15 15 -18 6 -23 -39 -22 -29 1
-37 -4 -47 -27 -7 -16 -17 -26 -22 -22 -6 3 -15 -5 -22 -17 -6 -13 -13 -24
-14 -26 -4 -5 -70 22 -77 32 -5 7 -8 4 -8 -7 0 -15 -5 -17 -22 -11 -49 16
-126 11 -98 -6 18 -11 1 -33 -21 -27 -14 4 -19 0 -19 -15 0 -13 5 -18 14 -15
8 3 17 -1 20 -9 3 -8 -1 -14 -9 -14 -9 0 -15 -9 -15 -21 0 -17 -5 -20 -26 -16
-23 4 -25 2 -19 -24 7 -31 -5 -38 -25 -14 -7 8 -17 15 -23 15 -6 0 -20 9 -32
20 -21 20 -21 20 -63 0 -22 -11 -52 -20 -65 -20 -18 0 -27 -7 -31 -24 -10 -39
-36 -41 -64 -6 -52 66 -132 140 -154 142 -13 0 -35 0 -49 -1 -18 -1 -33 6 -45
21 -11 13 -35 34 -55 46 -36 22 -37 22 -42 2 -3 -13 -11 -18 -20 -14 -8 3 -17
-2 -20 -10 -9 -24 -66 -20 -111 8 -33 19 -45 22 -68 14 -37 -13 -70 -4 -110
31 -18 15 -48 36 -67 46 l-34 17 -26 -31 -27 -31 -24 27 c-13 16 -23 29 -22
31 5 6 -27 32 -39 32 -7 0 -5 -8 7 -21 10 -12 18 -29 16 -39 -3 -20 33 -50 60
-50 24 0 68 -21 68 -33 0 -14 32 -36 52 -37 9 0 26 -13 38 -30 12 -16 30 -30
40 -30 11 0 23 -6 27 -14 10 -16 53 -40 60 -32 3 3 14 1 25 -5 30 -16 120 -38
134 -32 13 5 174 -146 174 -164 0 -6 11 -18 25 -27 14 -9 25 -25 25 -35 0 -12
15 -26 45 -40 47 -22 52 -30 33 -49 -8 -8 -8 -15 -1 -24 6 -7 11 -35 11 -61 0
-45 14 -77 33 -77 5 0 6 7 3 15 -5 12 3 15 37 16 24 0 53 4 64 8 11 5 28 5 37
0 27 -15 49 0 42 27 l-6 25 35 -21 c33 -19 36 -20 52 -4 14 14 22 15 56 5 31
-9 43 -20 59 -53 11 -23 20 -51 21 -62 0 -12 3 -15 6 -8 2 6 9 12 15 12 15 0
47 -43 48 -63 0 -10 5 -27 11 -38 8 -16 7 -25 -5 -38 -11 -12 -14 -28 -10 -52
6 -33 10 -37 56 -49 27 -8 51 -18 54 -22 9 -14 24 -9 24 8 0 11 8 14 33 12 46
-4 49 -45 8 -95 -17 -21 -31 -48 -31 -60 0 -27 -18 -39 -33 -24 -9 9 -8 16 1
31 16 27 15 49 -3 56 -11 5 -14 16 -11 43 3 20 3 28 0 19 -4 -13 -13 -15 -39
-11 -30 5 -36 2 -44 -20 -6 -14 -18 -28 -29 -31 -19 -6 -42 -45 -42 -71 0 -8
-5 -15 -11 -15 -6 0 -17 -7 -25 -15 -14 -13 -14 -16 0 -21 9 -3 24 -3 34 2 9
4 23 6 30 5 6 -1 12 6 13 16 0 11 3 13 6 6 2 -7 14 -13 24 -13 24 0 79 -27 79
-39 0 -5 -7 -14 -15 -21 -11 -9 -12 -17 -4 -32 8 -15 7 -24 -4 -36 -8 -9 -17
-25 -20 -34 -5 -15 -11 -16 -32 -8 -33 13 -32 13 -39 -6 -3 -8 -1 -24 4 -35
12 -21 40 -26 40 -7 0 7 7 2 16 -11 13 -18 14 -25 4 -31 -10 -6 -11 -17 -2
-50 9 -36 8 -41 -6 -38 -11 2 -16 11 -14 26 3 23 3 23 -28 7 -24 -12 -29 -20
-21 -28 15 -15 14 -36 -5 -54 -14 -14 -16 -14 -27 1 -16 22 -51 11 -41 -13 14
-35 21 -81 13 -86 -4 -3 -6 -12 -3 -20 4 -10 -6 -15 -43 -17 l-48 -3 -1 -38
c-1 -53 -17 -66 -53 -44 -31 18 -117 24 -106 7 8 -13 -43 -24 -58 -12 -21 17
-75 24 -96 12 -13 -6 -21 -21 -21 -35 0 -18 -5 -25 -19 -25 -11 0 -22 -6 -24
-12 -4 -9 -12 -5 -25 12 -11 13 -29 25 -39 26 -51 2 -53 4 -53 37 0 17 -7 41
-16 52 -12 16 -18 18 -34 7 -11 -6 -25 -12 -31 -12 -19 0 -55 35 -51 51 1 8
-6 23 -16 32 -17 15 -26 16 -71 6 -39 -8 -55 -8 -66 1 -8 6 -19 9 -26 5 -8 -5
-9 -1 -4 14 8 26 -1 27 -15 2 -14 -28 4 -71 30 -71 11 0 20 5 20 12 0 6 12 1
26 -13 18 -16 28 -20 31 -11 3 6 11 12 19 12 8 0 14 8 14 17 0 9 3 14 6 10 11
-11 -7 -45 -26 -50 -12 -3 -28 -24 -40 -51 -10 -25 -24 -46 -31 -46 -6 0 -9
-6 -6 -14 3 -8 -5 -18 -19 -25 -20 -9 -30 -8 -47 4 -12 8 -25 15 -28 15 -12 0
3 -42 27 -78 13 -18 26 -43 29 -55 12 -43 29 -67 47 -67 12 0 18 -7 18 -24 0
-25 45 -66 72 -66 21 0 48 -33 48 -58 0 -12 5 -22 10 -22 13 0 13 -46 0 -71
-6 -10 -20 -19 -31 -19 -30 0 -35 -29 -9 -47 18 -13 21 -22 17 -50 -5 -29 -1
-40 30 -74 19 -21 30 -39 23 -39 -9 0 -11 -16 -8 -56 l5 -56 -28 6 c-18 3 -32
0 -40 -10 -7 -8 -18 -13 -26 -10 -11 4 -11 1 -3 -15 6 -11 19 -22 28 -25 9 -3
24 -10 32 -15 8 -5 21 -12 29 -16 8 -3 23 -15 34 -26 17 -17 20 -17 36 -3 11
10 36 16 64 16 43 0 47 2 47 25 0 23 2 24 20 13 17 -11 22 -11 29 0 6 10 10
10 21 -3 7 -8 19 -15 26 -15 7 0 23 -13 35 -29 25 -34 51 -43 134 -48 117 -6
185 -15 185 -24 0 -5 7 -9 16 -9 13 0 15 7 10 33 l-6 34 47 -12 c31 -8 51 -19
58 -33 11 -25 89 -36 120 -17 16 10 24 9 47 -8 l28 -21 33 32 c37 36 49 39 68
16 11 -14 14 -13 26 10 12 22 20 26 59 26 25 0 54 -4 64 -10 13 -7 21 -5 31 6
10 12 24 14 68 8 31 -3 65 -12 76 -19 11 -6 37 -15 57 -19 22 -4 38 -13 41
-24 4 -15 5 -15 6 -1 1 11 9 16 26 15 31 -1 31 -6 1 -39 -13 -14 -21 -28 -18
-31 3 -3 -3 -15 -13 -26 -14 -15 -15 -20 -4 -20 11 0 11 -2 2 -8 -9 -6 2 -19
35 -43 36 -28 50 -46 60 -81 11 -36 19 -47 38 -51 14 -2 24 1 24 7 0 6 7 2 15
-8 8 -10 12 -22 10 -26 -3 -5 2 -10 10 -14 8 -3 15 -17 15 -30 0 -20 -4 -24
-17 -19 -13 5 -15 2 -10 -12 5 -12 1 -22 -12 -31 -22 -16 -18 -59 5 -50 17 7
103 -79 116 -115 5 -16 16 -29 24 -29 13 0 15 -4 14 -27 -1 -5 16 -10 37 -13
27 -4 41 -12 48 -27 12 -29 48 -30 74 -4 17 17 24 18 45 8 14 -7 24 -18 21
-24 -2 -7 -1 -12 3 -11 4 1 27 -8 51 -21 24 -12 51 -21 61 -18 9 2 24 0 33 -5
11 -6 29 -2 57 12 31 16 49 19 82 13 41 -7 42 -7 13 -13 -23 -4 -30 -11 -29
-28 0 -14 -5 -22 -17 -22 -18 0 -36 -49 -21 -59 5 -3 14 -16 21 -28 14 -28 26
-29 48 -4 9 11 20 18 25 15 4 -3 8 0 8 7 0 10 3 10 11 2 15 -15 39 7 39 36 0
12 5 21 11 21 6 0 8 9 4 20 -4 14 -2 20 9 20 21 0 10 27 -17 42 -16 8 -22 8
-25 -1 -8 -24 -27 -9 -29 24 -1 28 2 35 17 35 13 0 17 -5 14 -14 -4 -11 6 -16
40 -21 55 -9 76 -2 76 23 0 19 45 50 56 39 4 -3 8 -18 10 -32 1 -14 8 -33 15
-42 11 -12 11 -17 -2 -27 -8 -6 -25 -31 -38 -55 -22 -43 -22 -46 -5 -58 24
-17 36 -12 52 21 7 15 21 32 31 38 14 8 16 21 13 64 -4 50 -2 54 22 64 14 5
31 21 38 35 6 14 15 25 19 25 5 0 15 15 22 33 8 17 21 38 30 45 12 10 15 25
10 60 -3 31 0 60 10 83 15 37 13 84 -6 107 -7 9 -3 12 17 12 14 0 26 5 26 10
0 6 7 10 15 10 9 0 18 7 21 15 4 8 16 15 28 15 24 1 59 24 49 33 -3 4 25 7 63
7 68 1 69 1 92 36 12 20 22 41 22 49 0 7 7 26 15 41 8 16 15 48 15 71 0 29 10
58 31 94 20 35 28 60 25 75 -4 13 -1 24 7 27 9 3 9 7 -1 19 -10 12 -9 18 3 28
8 7 24 27 35 46 16 25 19 38 11 52 -7 13 -7 22 0 29 7 7 1 16 -16 27 -19 12
-24 23 -20 36 4 11 3 25 -1 31 -10 17 -13 129 -3 129 5 0 9 8 9 19 0 10 9 21
20 24 24 6 25 20 4 41 -20 20 -35 21 -28 1 4 -8 2 -15 -4 -15 -6 0 -12 5 -14
11 -3 8 -10 5 -22 -6 -15 -15 -23 -16 -53 -7 -29 9 -42 8 -67 -6 -65 -34 -128
-20 -146 32 -6 20 -16 36 -22 36 -6 0 -7 7 -4 16 3 8 2 12 -4 9 -6 -3 -10 -2
-10 3 0 6 -27 13 -60 17 -51 6 -64 12 -81 35 -15 20 -33 29 -62 34 -23 3 -53
9 -66 12 -22 7 -23 5 -18 -22 6 -33 -7 -64 -28 -64 -8 0 -15 -7 -15 -16 0 -13
-3 -14 -15 -4 -8 7 -21 10 -30 7 -8 -4 -17 -1 -21 5 -4 7 -10 5 -16 -5 -6 -12
-20 -15 -47 -13 -28 2 -38 0 -35 -9 9 -23 -73 -12 -96 12 -24 26 -25 33 -5 33
8 0 15 6 15 13 0 7 7 4 15 -7 13 -17 15 -18 15 -3 0 9 -9 26 -20 37 -11 11
-20 25 -20 31 0 7 -8 17 -17 24 -16 12 -16 14 5 32 26 20 36 80 13 75 -7 -1
-18 4 -25 13 -10 15 -15 14 -50 0 -47 -20 -70 -7 -61 36 5 24 2 30 -24 44 -17
8 -31 20 -31 25 0 6 -6 10 -14 10 -8 0 -16 16 -20 40 -3 22 -11 40 -16 40 -6
0 -10 8 -10 18 0 10 -9 34 -19 55 -11 21 -14 37 -8 37 6 0 7 3 4 6 -6 6 8 26
62 89 5 6 2 22 -6 38 -7 15 -12 31 -9 36 9 14 -20 44 -54 55 -26 9 -36 21 -51
60 -10 26 -17 67 -16 89 2 39 1 41 -33 48 -36 8 -70 40 -70 66 0 11 -7 13 -24
9 -20 -5 -26 0 -40 29 -16 33 -25 39 -53 36 -6 -1 -14 3 -18 9 -8 14 -48 13
-81 -2 -22 -11 -28 -10 -40 6 -11 15 -21 18 -58 13 -26 -4 -48 -2 -51 3 -3 6
-15 10 -26 10 -24 0 -36 27 -20 43 7 7 24 12 39 12 20 0 27 5 25 18 -1 12 4
17 14 13 9 -4 13 -1 11 6 -3 7 -22 18 -43 24 -21 6 -41 17 -43 25 -3 8 -11 22
-19 31 -8 9 -12 22 -8 27 3 6 1 11 -6 11 -7 0 -21 8 -31 17 -18 16 -18 17 4
40 17 18 18 23 6 23 -9 0 -21 7 -28 15 -18 22 -30 18 -30 -9 0 -19 -4 -23 -19
-19 -20 5 -48 53 -31 53 10 0 11 89 0 105 -3 6 -12 34 -19 64 -12 47 -12 55 2
62 13 8 13 13 -4 46 -10 20 -19 44 -19 53 0 9 -4 20 -8 26 -14 16 -33 84 -27
94 3 5 -1 23 -11 38 -15 27 -15 30 1 56 36 55 34 126 -3 126 -5 0 -22 16 -36
35 -18 23 -35 35 -51 35 -14 0 -32 11 -44 28 -11 15 -21 21 -21 15z m23 -970
c-5 -12 -8 -13 -11 -4 -3 9 -9 8 -23 -5 -21 -19 -26 -5 -9 27 9 15 15 17 30 9
13 -7 17 -16 13 -27z m-265 -855 c-3 -7 -13 -15 -24 -17 -16 -3 -17 -1 -5 13
16 19 34 21 29 4z m1386 -339 c-8 -14 -24 -10 -24 6 0 9 6 12 15 9 8 -4 12
-10 9 -15z m-7 -25 c-3 -3 -12 -4 -19 -1 -8 3 -5 6 6 6 11 1 17 -2 13 -5z
m-293 -29 c-4 -8 -1 -15 4 -15 6 0 14 -9 17 -20 3 -11 14 -20 22 -20 9 0 24
-7 34 -16 10 -9 38 -18 64 -20 38 -3 45 -1 45 14 0 22 83 47 124 36 28 -7 38
-44 11 -44 -7 0 -18 -8 -24 -17 -5 -10 -13 -15 -17 -11 -3 4 -15 3 -26 -3 -15
-8 -24 -7 -38 6 -17 16 -20 15 -48 -5 -26 -19 -35 -21 -61 -12 -19 7 -31 7
-31 1 0 -5 4 -9 9 -9 5 0 7 -9 4 -20 -3 -11 -9 -20 -14 -20 -5 0 -9 -9 -9 -19
0 -19 -5 -19 -79 0 -8 2 -21 -8 -28 -23 -14 -28 -23 -31 -80 -28 -38 2 -38 1
-17 -48 31 -70 15 -116 -55 -164 -20 -13 -22 -18 -9 -18 9 0 20 5 23 10 3 6
17 10 31 10 19 0 24 -5 24 -25 0 -18 -4 -23 -15 -19 -11 5 -15 -1 -15 -21 0
-22 -3 -26 -17 -20 -44 18 -51 16 -69 -14 -10 -16 -21 -28 -26 -25 -4 3 -16 1
-25 -4 -11 -5 -31 -4 -52 3 -24 9 -29 14 -18 18 10 4 15 17 15 36 -1 26 -5 31
-25 31 -16 0 -23 6 -23 20 0 16 7 20 30 20 22 0 28 4 24 15 -4 8 -1 21 5 29 6
7 7 16 3 20 -4 4 -7 22 -8 39 0 18 -2 38 -5 46 -2 8 5 17 16 20 11 3 32 14 48
25 15 10 36 16 47 13 18 -5 25 7 21 35 0 4 10 19 23 33 15 16 22 33 19 49 -4
19 0 25 22 30 15 4 25 10 22 13 -15 14 16 41 53 47 23 3 38 11 35 16 -7 12 15
39 32 40 7 0 10 -7 7 -15z m263 -12 c-9 -9 -19 -14 -23 -11 -10 10 6 28 24 28
15 0 15 -1 -1 -17z"/>
<path d="M11310 10039 c0 -5 5 -7 10 -4 6 3 10 8 10 11 0 2 -4 4 -10 4 -5 0
-10 -5 -10 -11z"/>
<path d="M11647 9943 c-22 -11 -31 -12 -43 -3 -11 10 -14 9 -14 -4 0 -21 30
-33 40 -16 5 8 15 10 26 6 10 -4 15 -4 11 0 -4 4 -2 13 4 21 13 15 12 15 -24
-4z"/>
<path d="M11112 8626 c-6 -11 -11 -15 -11 -8 -1 6 -7 12 -14 12 -19 0 -16 -46
4 -58 14 -9 16 -8 12 7 -8 31 24 33 47 3 l22 -27 -8 29 c-4 16 -15 37 -24 46
-17 17 -18 17 -28 -4z"/>
<path d="M10965 8620 l-30 -8 27 -1 c15 0 30 4 33 9 3 6 5 9 3 9 -2 -1 -16 -5
-33 -9z"/>
<path d="M11030 8622 c0 -5 7 -9 15 -9 8 0 12 4 9 9 -3 4 -9 8 -15 8 -5 0 -9
-4 -9 -8z"/>
<path d="M10971 8487 c-1 -39 27 -133 44 -147 13 -10 15 -8 15 14 0 14 5 26
10 26 6 0 15 11 20 25 5 14 15 25 21 25 25 0 -11 26 -55 39 -25 7 -47 20 -49
29 -3 10 -5 4 -6 -11z"/>
<path d="M10988 8319 c-10 -7 -10 -11 4 -25 14 -14 19 -15 36 -2 20 13 20 14
-3 24 -13 6 -29 8 -37 3z"/>
<path d="M12680 8110 c0 -6 -4 -8 -10 -5 -5 3 -10 0 -10 -8 0 -9 10 -14 30
-13 21 1 30 6 28 16 -4 17 -38 27 -38 10z"/>
<path d="M12560 8086 c0 -7 47 -28 71 -31 9 -1 16 5 16 12 0 7 -6 13 -12 13
-7 0 -27 3 -44 6 -17 4 -31 4 -31 0z"/>
<path d="M9987 8068 c7 -8 9 -19 5 -23 -4 -5 -2 -5 5 -2 6 4 13 2 15 -5 2 -6
10 -8 16 -4 17 10 15 23 -5 30 -10 3 -25 9 -33 13 -12 5 -13 4 -3 -9z"/>
<path d="M10047 8037 c-3 -8 1 -14 8 -14 7 0 11 6 8 14 -3 7 -6 13 -8 13 -2 0
-5 -6 -8 -13z"/>
<path d="M13610 7661 c0 -14 5 -19 15 -14 17 6 15 25 -3 31 -7 2 -12 -5 -12
-17z"/>
<path d="M10300 7134 c0 -8 5 -12 10 -9 6 4 8 11 5 16 -9 14 -15 11 -15 -7z"/>
<path d="M12825 6138 c4 -18 -3 -28 -32 -46 -20 -13 -45 -21 -54 -19 -17 4
-16 3 2 -22 19 -26 19 -27 -1 -68 -11 -23 -20 -51 -20 -63 0 -11 -6 -20 -12
-21 -58 -4 -96 -13 -110 -27 -8 -8 -15 -9 -25 -1 -9 9 -17 8 -28 -1 -12 -10
-21 -10 -41 -1 -20 9 -28 8 -40 -3 -8 -8 -14 -17 -14 -20 0 -2 -5 -17 -10 -32
-10 -24 -12 -25 -28 -12 -9 9 -35 21 -57 28 -22 7 -49 17 -60 23 -13 7 -20 6
-23 -2 -4 -13 -38 -15 -46 -2 -3 5 -16 7 -28 3 -13 -3 -19 -1 -15 5 4 6 -4 11
-18 11 -29 0 -28 1 -13 -35 7 -15 13 -32 13 -38 4 -22 18 -45 25 -40 11 7 21
-22 13 -41 -3 -8 -11 -13 -18 -11 -15 6 -13 -27 4 -46 8 -10 8 -17 2 -21 -15
-10 -1 -37 18 -35 9 1 28 -1 42 -5 14 -4 33 -8 42 -10 9 -1 20 -5 23 -9 9 -8
44 22 44 37 0 6 9 17 19 23 15 10 22 9 31 -2 6 -8 9 -19 5 -25 -4 -7 2 -14 14
-17 18 -5 21 -13 21 -58 0 -50 1 -53 35 -69 20 -10 33 -21 30 -27 -4 -5 0 -9
8 -9 14 0 45 -28 47 -42 0 -4 2 -13 4 -20 2 -7 12 -48 21 -90 10 -47 22 -78
30 -78 7 0 18 -7 25 -15 8 -9 18 -12 27 -6 11 6 24 -2 47 -26 l31 -34 37 19
c31 16 39 17 49 6 6 -7 23 -13 37 -13 64 -1 87 -7 97 -26 8 -16 20 -20 55 -19
25 0 55 4 67 8 17 5 29 1 48 -19 15 -14 31 -23 36 -19 5 3 19 -6 30 -20 25
-31 36 -33 44 -6 9 27 20 25 52 -10 14 -16 32 -30 39 -30 6 0 14 -7 18 -15 3
-8 0 -15 -6 -15 -7 0 -3 -6 7 -14 10 -7 26 -11 36 -9 21 6 59 -14 59 -30 0
-21 63 -39 94 -27 14 5 26 14 26 20 0 19 39 10 45 -10 3 -11 10 -20 14 -20 12
0 36 30 25 30 -5 0 -1 5 8 11 13 7 36 4 84 -11 36 -11 79 -20 95 -20 24 0 29
4 29 25 0 32 4 31 49 -4 65 -51 93 -61 175 -62 10 0 31 -10 47 -21 16 -12 32
-19 35 -15 8 8 -43 77 -57 77 -21 0 -7 18 18 25 27 6 27 7 9 20 -10 8 -27 33
-38 57 l-19 42 22 -20 c16 -13 23 -15 26 -7 4 10 8 9 20 -3 21 -21 38 -12 38
20 1 37 -56 82 -85 66 -11 -6 -20 -15 -20 -20 0 -6 -18 -10 -40 -10 -22 0 -40
-5 -40 -10 0 -35 -124 -33 -133 2 -4 15 -9 17 -19 9 -44 -38 -91 -62 -102 -51
-7 7 -7 16 2 30 6 10 9 26 6 35 -4 9 -1 15 8 15 21 0 15 49 -9 76 l-21 23 22
14 c20 14 20 16 4 44 -17 30 -17 30 7 41 14 7 25 18 25 26 0 7 14 19 30 26 17
7 30 19 30 28 0 8 8 21 18 29 12 10 14 16 5 19 -15 7 -17 44 -3 44 6 0 10 14
10 30 0 27 -3 30 -23 25 -17 -5 -28 1 -45 24 -12 17 -31 31 -42 31 -11 0 -20
6 -20 13 0 6 -11 17 -25 24 -16 7 -25 7 -25 1 0 -6 -12 -2 -27 7 -16 11 -28
14 -30 8 -4 -12 -62 5 -86 25 -8 7 -19 12 -23 11 -5 -2 -22 4 -37 11 -20 10
-27 19 -24 32 3 11 0 18 -9 18 -8 0 -14 -7 -14 -16 0 -11 -5 -14 -16 -10 -9 3
-17 6 -20 6 -2 0 -1 6 2 14 6 17 -12 31 -21 16 -4 -7 -13 -6 -27 1 -15 8 -22
8 -28 0 -4 -7 -15 -9 -26 -5 -16 6 -17 5 -6 -7 19 -21 15 -59 -7 -59 -12 0
-20 -9 -24 -29 -6 -27 -22 -39 -63 -45 -22 -3 -28 -15 -11 -22 13 -5 12 -11
-9 -41 l-24 -35 32 -30 c24 -22 28 -32 19 -38 -23 -13 -2 -47 42 -69 40 -20
43 -21 57 -3 20 23 41 18 64 -17 12 -18 26 -27 35 -24 13 4 13 3 2 -5 -16 -11
-7 -32 15 -32 8 0 14 -4 14 -10 0 -5 7 -10 16 -10 30 0 -3 -27 -56 -46 -30
-11 -46 -22 -43 -30 3 -7 -8 -15 -26 -19 -17 -4 -31 -11 -31 -16 0 -5 -11 -7
-25 -3 -15 4 -25 2 -25 -5 0 -6 8 -11 17 -11 13 0 14 -3 6 -11 -6 -6 -10 -17
-9 -23 2 -6 1 -8 -1 -4 -3 5 -13 3 -24 -2 -24 -13 -70 -2 -67 16 2 8 -8 20
-22 27 -28 14 -43 54 -16 44 8 -3 18 -2 22 4 4 7 13 4 24 -6 10 -9 25 -13 36
-9 39 12 63 27 58 36 -3 4 11 8 30 8 20 0 36 4 36 8 0 5 -20 27 -45 50 -25 22
-45 37 -45 32 0 -16 -41 3 -64 31 -14 16 -29 29 -35 29 -6 0 -8 12 -4 31 3 17
0 40 -7 55 -11 19 -21 24 -55 24 -31 0 -49 7 -69 25 -15 14 -31 25 -36 25 -5
0 -26 16 -47 36 -25 24 -34 38 -25 41 7 3 22 15 33 27 l20 21 -21 3 c-14 2
-20 9 -16 18 3 8 -3 20 -14 26 -11 7 -20 22 -20 34 0 26 -26 50 -63 60 -20 4
-25 9 -16 14 9 6 4 16 -18 37 -35 32 -69 93 -53 93 6 0 13 -7 16 -15 7 -18 41
-20 47 -2 2 6 -5 27 -15 45 -23 41 -22 42 2 42 11 0 19 3 18 8 -3 16 15 42 31
42 26 0 42 15 35 33 -3 9 -10 14 -15 11 -9 -5 -13 8 -9 39 2 24 -18 47 -41 47
-15 0 -18 -5 -14 -22z m-48 -500 c-3 -8 -6 -5 -6 6 -1 11 2 17 5 13 3 -3 4
-12 1 -19z m957 -659 c-8 -14 -24 -10 -24 6 0 9 6 12 15 9 8 -4 12 -10 9 -15z"/>
<path d="M12025 5759 c-4 -11 -10 -17 -15 -14 -17 11 -22 -17 -6 -34 9 -10 16
-25 14 -32 -2 -9 8 -15 30 -17 28 -3 32 0 32 21 0 19 4 24 18 20 10 -2 24 3
31 11 11 13 9 17 -15 26 -16 5 -41 16 -56 24 -25 13 -28 13 -33 -5z"/>
<path d="M12160 5730 c-13 -8 -12 -10 3 -10 9 0 17 5 17 10 0 12 -1 12 -20 0z"/>
<path d="M12425 5450 c3 -5 12 -7 20 -3 21 7 19 13 -6 13 -11 0 -18 -4 -14
-10z"/>
<path d="M14325 4990 c3 -5 8 -10 11 -10 2 0 4 5 4 10 0 6 -5 10 -11 10 -5 0
-7 -4 -4 -10z"/>
<path d="M13250 4982 c0 -5 9 -12 21 -15 13 -3 19 -1 16 6 -5 15 -37 22 -37 9z"/>
<path d="M13320 4953 c0 -4 5 -15 10 -23 8 -13 10 -13 10 2 0 9 -4 20 -10 23
-5 3 -10 3 -10 -2z"/>
<path d="M14185 4940 c-3 -5 -1 -10 4 -10 6 0 11 5 11 10 0 6 -2 10 -4 10 -3
0 -8 -4 -11 -10z"/>
<path d="M14304 4913 c-1 -10 -4 -25 -8 -34 -4 -9 2 -26 14 -42 23 -29 50 -36
50 -13 0 8 7 17 16 20 16 6 16 8 0 24 -9 10 -16 24 -16 30 0 7 -6 12 -12 12
-9 0 -8 4 2 10 12 7 8 10 -15 10 -22 0 -31 -5 -31 -17z"/>
<path d="M13326 4897 c3 -8 -2 -20 -11 -27 -8 -7 -15 -19 -15 -26 0 -26 15
-14 32 26 14 33 14 40 3 40 -8 0 -12 -6 -9 -13z"/>
<path d="M14238 4818 c-15 -18 -15 -24 -3 -41 21 -30 9 -47 -31 -41 -55 9 -61
-7 -13 -30 26 -12 46 -29 48 -41 4 -21 26 -41 53 -48 10 -3 15 0 12 7 -3 7 5
17 16 22 21 9 21 10 -4 37 -14 16 -26 37 -26 47 0 15 7 19 40 18 47 0 65 10
32 19 -12 3 -20 9 -17 13 6 10 -14 26 -56 44 -32 13 -36 13 -51 -6z"/>
<path d="M13280 4820 c0 -15 21 -23 32 -12 6 6 2 11 -11 15 -12 3 -21 1 -21
-3z"/>
<path d="M14435 4700 c-3 -5 3 -10 15 -10 12 0 18 5 15 10 -3 6 -10 10 -15 10
-5 0 -12 -4 -15 -10z"/>
<path d="M14350 4679 c0 -5 5 -7 10 -4 6 3 10 8 10 11 0 2 -4 4 -10 4 -5 0
-10 -5 -10 -11z"/>
</g>
</svg>
