<?xml version="1.0" standalone="no"?>
<!DOCTYPE svg PUBLIC "-//W3C//DTD SVG 20010904//EN"
 "http://www.w3.org/TR/2001/REC-SVG-20010904/DTD/svg10.dtd">
<svg version="1.0" xmlns="http://www.w3.org/2000/svg"
 width="984.109230pt" height="528.948157pt" viewBox="0 0 984.109230 528.948157"
 preserveAspectRatio="xMidYMid meet">
<metadata>
Created by potrace 1.15, written by Peter Selinger 2001-2017
</metadata>
<g transform="translate(-559.503334,1256.050160) scale(0.100000,-0.100000)"
fill="#222222" stroke="none">
<path d="M13087 12546 c-3 -7 -26 -16 -52 -18 -25 -3 -54 -13 -64 -22 -10 -9
-29 -16 -43 -16 -45 0 -59 -9 -47 -31 16 -31 -10 -23 -60 16 -32 25 -47 32
-52 23 -6 -9 -11 -8 -24 2 -15 12 -19 12 -29 -1 -20 -28 -89 -57 -113 -48 -14
5 -25 4 -29 -2 -3 -6 -11 -8 -18 -6 -22 9 -48 -20 -44 -50 4 -37 -54 -102 -76
-84 -11 9 -15 6 -20 -15 -4 -14 -17 -36 -29 -48 -12 -12 -22 -28 -22 -36 0 -8
-10 -16 -22 -18 -13 -2 -23 -10 -23 -18 0 -21 -14 -17 -40 11 -12 13 -32 23
-44 22 -16 -2 -22 4 -24 27 -2 16 2 32 10 37 10 7 9 9 -4 9 -12 0 -18 8 -19
23 0 12 -3 16 -6 10 -2 -7 -14 -13 -26 -13 -16 0 -18 3 -9 12 15 15 16 32 2
23 -6 -4 -18 -1 -26 6 -12 10 -13 9 -9 -3 9 -24 -20 -40 -64 -35 -31 3 -38 1
-34 -10 3 -8 0 -18 -6 -23 -16 -9 11 -77 34 -86 8 -3 15 -11 15 -16 0 -6 -7
-8 -15 -4 -8 3 -15 2 -15 -3 0 -16 -49 -19 -62 -4 -6 8 -20 12 -30 10 -12 -4
-30 6 -52 27 -48 48 -63 55 -101 43 -30 -9 -36 -7 -64 22 -22 23 -42 32 -72
35 -22 2 -51 13 -62 24 -12 11 -42 22 -66 26 -35 5 -46 3 -60 -12 -9 -10 -24
-21 -33 -25 -10 -3 -18 -17 -18 -29 0 -28 -8 -39 -42 -60 -15 -10 -29 -31 -33
-48 -4 -17 -13 -34 -21 -37 -10 -4 -11 -10 -3 -24 5 -11 7 -29 4 -40 -4 -11
-2 -25 3 -32 19 -24 24 -73 7 -87 -8 -7 -15 -21 -15 -31 0 -11 -7 -19 -16 -19
-8 0 -12 -4 -9 -10 3 -5 1 -10 -5 -10 -6 0 -16 -12 -22 -26 -9 -19 -18 -24
-35 -21 -13 2 -28 -2 -34 -9 -6 -8 -18 -14 -25 -14 -8 0 -11 -6 -8 -15 4 -9 1
-15 -8 -15 -23 0 -7 -156 18 -176 10 -8 13 -13 7 -9 -16 7 -17 -7 -3 -21 14
-14 1 -47 -15 -40 -7 2 -16 1 -21 -3 -5 -5 -22 -12 -38 -15 -24 -6 -27 -5 -18
6 8 11 7 14 -9 14 -11 0 -17 -6 -15 -12 2 -6 -1 -17 -7 -23 -16 -16 8 -31 51
-31 26 0 35 5 39 20 3 11 11 20 18 20 23 0 45 -12 39 -21 -3 -5 0 -9 5 -9 6 0
11 6 11 13 0 14 55 -53 55 -68 1 -18 28 -79 43 -97 13 -16 13 -18 -2 -24 -11
-4 -15 -13 -11 -23 6 -14 11 -43 17 -91 1 -8 -1 -31 -6 -51 -5 -24 -4 -45 4
-58 9 -17 8 -22 -5 -27 -8 -3 -15 -15 -15 -25 0 -10 -4 -19 -10 -19 -5 0 -16
-13 -24 -28 -13 -26 -13 -28 5 -29 11 -1 23 5 26 13 5 13 41 11 68 -4 17 -10
55 -11 55 -1 0 11 40 3 92 -19 30 -12 38 -23 48 -58 16 -55 28 -65 91 -75 29
-5 57 -16 64 -25 6 -9 17 -14 23 -10 6 3 16 -3 22 -14 9 -16 8 -20 -5 -20 -30
0 -7 -95 26 -105 10 -4 19 -11 19 -17 0 -6 -6 -6 -15 2 -13 11 -14 10 -9 -4 4
-12 0 -16 -15 -16 -12 0 -21 -4 -21 -8 0 -11 41 -46 62 -54 8 -4 19 -23 22
-43 4 -21 16 -46 26 -57 19 -20 19 -20 13 1 -8 31 20 27 59 -10 22 -20 29 -32
21 -36 -22 -8 -14 -30 16 -43 27 -11 42 -42 46 -95 1 -20 17 -36 31 -31 8 3
14 1 14 -4 0 -5 6 -7 13 -4 8 3 18 -6 25 -21 10 -21 16 -24 39 -19 16 4 31 11
34 17 17 25 96 -35 102 -78 3 -28 5 -29 50 -26 28 1 47 -2 47 -8 0 -18 40 -34
54 -22 10 8 17 7 26 -4 9 -11 16 -12 25 -5 26 21 59 -66 36 -94 -10 -11 -7
-18 11 -30 20 -15 23 -15 26 -1 2 8 8 13 13 9 5 -3 7 -10 3 -15 -3 -6 4 -21
17 -35 12 -13 17 -24 10 -24 -7 0 -9 -4 -6 -10 3 -5 13 -10 21 -10 10 0 13 7
8 24 -5 20 -1 24 26 30 18 3 37 3 44 -1 6 -3 4 2 -5 13 -28 33 -29 51 -4 64
13 7 28 9 34 6 7 -4 11 1 11 12 0 30 61 23 72 -8 14 -37 68 -77 68 -50 0 5 6
7 14 4 8 -3 19 3 25 14 7 13 19 19 35 18 18 -2 22 1 18 16 -2 10 1 18 7 18 7
0 9 4 6 10 -3 5 -2 18 3 27 6 11 6 26 1 41 -7 19 -6 29 7 43 21 23 14 53 -13
57 -12 2 -27 9 -33 17 -15 18 -20 64 -9 90 8 20 8 20 15 -2 3 -13 10 -20 15
-17 27 16 81 -63 61 -90 -5 -6 -9 -22 -10 -35 -1 -21 0 -21 11 -7 11 15 17 13
57 -23 42 -38 67 -48 41 -17 -15 18 5 26 64 26 56 0 75 -8 75 -30 0 -10 5 -20
11 -22 7 -2 13 -32 14 -72 2 -62 5 -71 35 -100 32 -31 32 -31 27 -6 -8 32 2
70 17 70 14 0 36 34 46 71 7 25 6 27 -16 23 -22 -4 -24 -2 -18 20 7 31 -13 54
-54 62 -25 5 -28 9 -24 36 4 25 8 29 28 24 12 -3 26 -2 29 4 11 18 37 11 63
-17 23 -26 26 -26 32 -8 6 17 7 17 13 1 12 -31 8 -46 -13 -46 -22 0 -25 -7
-10 -30 13 -21 23 -7 63 86 23 54 32 86 26 95 -5 8 -9 30 -9 50 0 28 6 41 26
54 24 16 26 16 31 -4 3 -12 11 -17 19 -14 10 4 13 17 10 45 -3 22 -6 41 -8 42
-25 11 -44 27 -46 40 -3 15 -1 15 16 5 16 -10 23 -10 36 0 9 8 16 20 16 27 0
8 9 14 19 14 30 0 141 54 141 68 0 7 5 10 10 7 6 -3 10 -2 10 3 0 5 19 12 41
16 45 7 89 -12 89 -38 0 -8 7 -17 16 -20 9 -3 14 -13 11 -20 -3 -8 9 -29 26
-47 18 -18 39 -44 47 -57 12 -19 25 -25 62 -27 39 -2 55 3 94 29 67 44 72 67
28 115 -19 22 -31 42 -25 45 5 3 12 28 16 54 6 44 3 53 -30 103 -20 29 -52 62
-71 72 -41 21 -68 59 -60 85 8 25 -25 54 -94 85 -30 13 -61 31 -68 40 -8 9
-20 13 -28 10 -8 -3 -21 -2 -30 1 -13 5 -14 9 -5 20 14 17 10 89 -7 109 -19
23 -42 84 -42 113 0 15 8 33 18 40 16 13 16 13 -3 14 -19 1 -19 1 -2 14 18 14
23 36 8 36 -12 0 -33 59 -25 71 3 5 14 4 26 -2 14 -8 19 -18 15 -35 -2 -13 0
-21 4 -18 5 3 9 11 9 19 0 7 13 16 29 20 31 7 46 29 34 48 -4 7 1 6 10 -2 26
-21 20 -4 -14 44 -29 41 -30 45 -15 60 23 23 20 33 -9 27 -20 -3 -24 -1 -19
12 3 9 15 16 26 16 10 0 16 5 13 10 -3 6 -2 10 3 10 5 0 20 -16 33 -35 21 -31
25 -33 36 -18 10 12 15 13 27 4 21 -18 26 -69 7 -73 -11 -3 -12 -6 -4 -11 6
-4 18 0 26 8 14 13 16 12 22 -15 7 -30 20 -40 27 -20 2 7 16 5 40 -5 21 -8 49
-15 63 -15 33 0 130 -69 116 -83 -7 -7 -5 -14 7 -23 23 -18 32 -17 32 1 0 13
4 14 21 5 15 -9 34 -8 72 0 69 16 79 22 97 56 8 16 16 31 17 33 1 2 16 -2 34
-8 22 -8 36 -8 45 0 9 7 15 6 21 -6 8 -13 14 -14 39 -4 16 7 40 12 53 13 25 1
43 25 19 27 -7 0 0 5 16 9 37 12 70 -4 63 -31 -4 -15 0 -19 23 -19 20 0 29 6
33 21 4 14 11 20 21 16 10 -4 13 -1 9 9 -4 10 2 17 16 21 14 4 20 11 17 20 -3
8 -6 17 -6 19 0 3 -12 9 -26 14 -16 7 -24 16 -21 24 3 8 3 16 -1 18 -4 2 -18
17 -30 35 -13 19 -28 30 -36 27 -9 -3 -17 3 -21 15 -4 13 -15 21 -28 21 -23 0
-53 45 -37 55 5 3 10 1 12 -5 5 -14 46 -1 53 18 3 8 -2 25 -12 36 -24 28 -47
70 -34 62 25 -16 17 15 -13 47 -19 21 -31 37 -29 37 3 0 -11 17 -31 37 -29 30
-34 40 -23 48 15 11 16 71 2 68 -6 -1 -26 -7 -45 -14 -19 -7 -41 -14 -49 -16
-7 -2 -11 -10 -7 -18 4 -12 2 -13 -13 -3 -10 6 -27 8 -37 4 -25 -9 -30 -8 -26
9 1 7 -2 16 -8 20 -5 3 -10 -3 -10 -13 0 -26 -19 -32 -78 -25 -44 5 -49 3 -60
-21 -9 -20 -19 -26 -41 -26 -23 0 -29 -4 -25 -15 7 -18 -12 -20 -22 -3 -5 7
-10 3 -16 -13 -7 -18 -5 -27 8 -36 20 -15 20 -15 -21 -36 -56 -30 -60 -34 -47
-50 18 -21 -1 -67 -28 -67 -11 0 -20 -4 -20 -9 0 -10 -85 -7 -112 4 -12 5 -18
2 -18 -7 0 -55 -95 -57 -228 -7 -13 5 -28 7 -33 4 -5 -4 -13 5 -19 20 -8 21
-14 24 -35 19 -20 -5 -32 0 -55 22 -16 16 -30 32 -30 36 0 3 -12 25 -27 47
-18 28 -34 41 -49 41 -27 0 -41 30 -20 42 26 15 39 47 26 63 -7 8 -9 19 -5 25
3 5 -1 13 -9 16 -9 3 -16 12 -16 18 0 12 -25 28 -62 40 -10 3 -18 14 -18 25 0
11 -14 29 -30 41 -17 12 -28 26 -25 31 4 5 -9 24 -28 41 -23 22 -37 45 -40 68
-4 30 -44 146 -54 160 -2 2 -8 -2 -12 -9 -7 -11 -15 -11 -41 -2 -42 14 -47 14
-53 -3z m-903 -262 c20 -8 21 -34 2 -34 -7 0 -16 9 -19 20 -6 22 -5 23 17 14z
m2326 -204 c0 -5 -4 -10 -10 -10 -5 0 -10 5 -10 10 0 6 5 10 10 10 6 0 10 -4
10 -10z m-55 -10 c3 -5 -1 -10 -9 -10 -9 0 -16 5 -16 10 0 6 4 10 9 10 6 0 13
-4 16 -10z m-3195 -323 c0 -5 -5 -5 -12 -1 -8 5 -9 2 -5 -9 9 -23 -6 -21 -28
3 -17 19 -12 26 18 21 4 0 7 5 7 12 0 13 20 -12 20 -26z m2549 -236 c2 -1 -2
-8 -9 -16 -10 -12 -16 -13 -26 -4 -29 24 -17 30 35 20z m-2429 -511 c0 -5 -2
-10 -4 -10 -3 0 -8 5 -11 10 -3 6 -1 10 4 10 6 0 11 -4 11 -10z m1480 -730 c0
-13 -5 -18 -14 -14 -8 3 -12 12 -9 20 8 21 23 17 23 -6z"/>
<path d="M11050 12285 c0 -8 7 -15 16 -15 14 0 14 3 4 15 -7 8 -14 15 -16 15
-2 0 -4 -7 -4 -15z"/>
<path d="M12266 12292 c-3 -6 1 -15 8 -21 8 -7 17 -8 20 -3 3 6 -1 15 -8 21
-8 7 -17 8 -20 3z"/>
<path d="M11267 12250 c-3 -11 -1 -18 3 -15 5 3 11 1 15 -4 8 -13 35 -2 35 14
0 12 -21 25 -40 25 -4 0 -10 -9 -13 -20z"/>
<path d="M12288 12238 c-17 -17 -17 -18 1 -18 11 0 26 -3 35 -6 11 -4 16 -1
16 10 0 9 -6 16 -14 16 -8 0 -16 4 -18 8 -1 4 -11 0 -20 -10z"/>
<path d="M10923 12237 c-3 -5 -16 -6 -29 -3 -17 5 -24 2 -24 -8 0 -9 -9 -20
-20 -26 -11 -6 -20 -20 -20 -31 0 -11 -7 -22 -16 -26 -10 -4 -14 -13 -10 -29
5 -17 1 -26 -14 -34 -10 -6 -23 -9 -28 -8 -14 4 -82 -68 -82 -87 0 -9 -7 -18
-15 -21 -8 -4 -15 -13 -15 -21 0 -9 -6 -13 -14 -10 -22 9 -38 -17 -30 -48 6
-24 11 -26 40 -23 23 3 34 0 34 -9 0 -26 24 -63 42 -63 10 0 18 -7 18 -15 0
-8 7 -15 15 -15 11 0 12 5 5 26 -6 14 -8 29 -5 34 3 5 1 11 -5 15 -21 13 -9
26 18 21 15 -3 43 -8 62 -11 19 -3 54 -9 76 -13 25 -6 49 -5 59 1 10 5 26 6
39 0 29 -12 66 -5 66 13 0 18 9 18 32 -3 17 -15 18 -14 18 21 0 22 4 35 10 31
6 -3 10 -1 10 4 0 6 7 11 15 11 19 0 19 20 1 45 -10 13 -11 25 -5 37 10 18 -4
34 -21 23 -14 -9 -93 56 -81 68 5 5 23 2 43 -6 l35 -15 16 50 c11 35 13 57 7
74 -12 30 -24 32 -17 3 5 -17 2 -20 -14 -16 -10 3 -19 1 -19 -4 0 -5 5 -9 10
-9 21 0 9 -41 -16 -52 -30 -14 -47 3 -37 39 9 37 -4 69 -34 83 -32 15 -92 19
-100 7z"/>
<path d="M11075 12239 c-11 -17 1 -21 15 -4 8 9 8 15 2 15 -6 0 -14 -5 -17
-11z"/>
<path d="M11261 12190 c-8 -14 -19 -29 -25 -33 -6 -5 0 -5 14 -1 32 9 32 8 28
36 l-3 23 -14 -25z"/>
<path d="M14677 12121 c4 -22 2 -36 -7 -41 -15 -9 -7 -40 10 -40 6 0 8 5 5 10
-3 6 0 12 7 15 20 8 19 37 -3 65 l-19 25 7 -34z"/>
<path d="M14777 12006 c-4 -9 -16 -16 -28 -16 -19 0 -21 -4 -14 -32 4 -18 8
-40 8 -49 2 -22 27 -12 27 11 0 9 7 31 16 49 11 22 13 36 6 43 -6 6 -11 4 -15
-6z"/>
<path d="M14999 11812 c14 -26 14 -35 1 -27 -5 3 -10 -1 -10 -9 0 -21 -43 -31
-70 -16 -18 9 -24 9 -30 0 -7 -12 -17 -11 -76 3 -7 2 -19 8 -27 15 -12 10 -16
9 -21 -4 -8 -20 6 -37 31 -40 22 -3 63 -24 85 -42 12 -10 16 -23 12 -41 -3
-15 -2 -21 3 -15 16 21 51 23 56 3 4 -14 14 -19 42 -19 21 0 34 4 30 10 -3 6
0 10 8 10 8 0 20 7 27 15 18 21 57 19 70 -5 13 -24 26 -26 34 -4 11 27 -2 50
-44 79 -22 15 -40 34 -40 41 0 8 -9 14 -20 14 -11 0 -20 3 -20 8 0 4 -12 15
-26 26 -26 18 -26 18 -15 -2z"/>
<path d="M15244 11614 c-9 -23 -10 -24 -38 -9 -15 8 -32 15 -37 15 -15 0 -10
-30 6 -36 8 -4 15 -17 15 -30 0 -17 6 -24 18 -24 10 0 41 -11 69 -25 28 -13
63 -27 77 -31 15 -3 31 -15 37 -25 16 -31 27 -22 31 29 5 51 -17 107 -32 81
-7 -10 -19 -4 -52 23 -70 57 -83 61 -94 32z"/>
<path d="M5685 11570 c-4 -6 -15 -10 -26 -10 -10 0 -19 -7 -19 -15 0 -9 -9
-15 -25 -15 -17 0 -23 -4 -19 -15 4 -8 9 -13 13 -10 4 2 30 -18 56 -45 27 -28
57 -50 67 -50 10 0 31 -21 50 -49 24 -37 41 -52 66 -58 18 -4 33 -12 34 -18 1
-27 20 -45 42 -39 17 4 28 -1 42 -19 25 -32 63 -40 118 -25 39 10 48 10 64 -5
23 -21 27 -21 52 0 27 23 25 29 -10 42 -21 7 -30 17 -30 32 0 16 -5 20 -20 16
-14 -4 -24 4 -39 28 -12 21 -34 38 -63 49 -25 10 -48 27 -53 39 -6 12 -13 20
-16 17 -3 -3 -13 1 -22 9 -9 7 -23 11 -31 8 -7 -3 -28 9 -46 28 -18 18 -39 31
-46 28 -8 -3 -14 0 -14 6 0 6 -11 11 -25 11 -24 0 -65 31 -65 49 0 13 -28 22
-35 11z"/>
<path d="M13895 11530 c3 -5 8 -10 11 -10 2 0 4 5 4 10 0 6 -5 10 -11 10 -5 0
-7 -4 -4 -10z"/>
<path d="M15416 11411 c-4 -5 -2 -12 3 -15 5 -4 12 -2 15 3 4 5 2 12 -3 15 -5
4 -12 2 -15 -3z"/>
<path d="M6250 11241 c0 -5 7 -16 15 -25 9 -8 15 -18 15 -21 -1 -9 46 -45 58
-45 17 0 34 -27 22 -35 -14 -8 -3 -25 13 -20 23 9 38 -11 31 -38 -3 -15 -11
-27 -16 -27 -6 0 -5 -7 2 -15 7 -9 18 -14 25 -11 6 2 30 -8 53 -24 31 -20 54
-28 94 -29 83 -2 98 -5 107 -19 5 -8 11 -13 15 -13 19 3 28 -2 58 -28 36 -32
96 -52 128 -44 11 3 20 0 20 -6 0 -6 9 -11 20 -11 11 0 20 -4 20 -10 0 -15 26
-12 40 5 7 9 19 14 27 11 20 -8 82 25 89 46 3 10 15 28 27 39 l21 20 -28 22
c-18 15 -27 30 -24 44 1 12 -7 34 -19 50 -21 30 -22 30 -106 26 l-86 -5 -44
41 c-29 27 -47 37 -54 30 -6 -6 -18 -2 -33 11 -21 18 -26 19 -35 6 -6 -8 -22
-17 -36 -21 -14 -3 -29 -16 -34 -28 -13 -29 -58 -24 -98 9 -16 13 -41 27 -55
30 -15 3 -45 13 -67 22 -21 9 -43 17 -47 17 -4 0 -13 6 -19 13 -7 6 -19 12
-26 12 -8 0 -27 7 -43 15 -17 9 -30 11 -30 6z"/>
<path d="M6670 11205 c0 -8 4 -15 10 -15 5 0 7 7 4 15 -4 8 -8 15 -10 15 -2 0
-4 -7 -4 -15z"/>
<path d="M6060 11170 c0 -5 7 -10 16 -10 12 0 15 -7 12 -24 -4 -21 -2 -23 16
-17 30 12 29 25 -3 44 -33 20 -41 21 -41 7z"/>
<path d="M7725 11158 c-6 -13 -24 -27 -42 -32 -18 -5 -33 -15 -33 -23 0 -10
-6 -12 -20 -8 -14 4 -18 2 -15 -7 3 -7 -4 -24 -15 -38 -17 -22 -22 -23 -39
-12 -27 16 -31 15 -31 -3 0 -21 -16 -19 -33 5 -11 16 -23 19 -76 16 -48 -2
-66 -7 -73 -20 -8 -15 -18 -17 -52 -12 -38 6 -42 4 -58 -24 -9 -16 -29 -35
-43 -42 -14 -6 -25 -17 -25 -24 0 -7 -9 -16 -20 -19 -11 -3 -20 -12 -20 -20 0
-17 25 -26 38 -13 13 13 47 -36 37 -52 -4 -6 -1 -17 5 -25 9 -11 8 -19 -3 -35
-13 -18 -13 -26 -2 -48 9 -18 11 -40 6 -68 -6 -29 -4 -47 5 -59 12 -16 11 -20
-8 -34 -12 -8 -39 -16 -60 -17 -31 -2 -38 2 -38 16 0 16 -38 50 -56 50 -6 0
-1 -65 7 -100 3 -9 -5 -16 -18 -18 -13 -2 -23 -10 -23 -18 0 -7 -11 -16 -25
-20 -29 -7 -30 -12 -9 -42 15 -22 14 -24 -8 -45 -26 -24 -26 -38 3 -76 26 -33
24 -59 -10 -91 -31 -30 -40 -57 -48 -138 -4 -38 0 -59 11 -77 15 -22 15 -28
-1 -67 -9 -24 -25 -55 -35 -70 -10 -14 -18 -40 -18 -56 0 -17 -4 -33 -9 -36
-5 -3 -7 -24 -4 -45 4 -32 2 -41 -14 -49 -14 -8 -19 -19 -16 -39 4 -22 -3 -36
-31 -65 -20 -20 -36 -42 -36 -48 0 -7 -13 -25 -30 -40 -37 -35 -39 -65 -5 -74
41 -10 108 6 145 35 28 22 50 29 108 34 70 7 74 9 84 36 7 21 17 29 33 29 14
0 34 13 49 31 27 32 33 32 94 14 19 -6 21 -5 15 11 -4 12 5 7 26 -13 32 -32
42 -37 69 -34 7 1 15 -11 18 -28 8 -39 72 -69 104 -49 16 11 28 10 65 -3 43
-16 47 -16 69 2 23 18 24 18 56 -11 39 -35 50 -37 50 -11 0 10 9 21 20 24 11
3 20 1 20 -5 0 -10 -70 -79 -70 -69 -1 3 -10 -11 -21 -32 -11 -21 -17 -42 -14
-47 3 -6 -1 -10 -9 -10 -9 0 -16 -4 -16 -9 0 -6 -25 -29 -55 -53 -33 -25 -53
-48 -50 -56 9 -25 -6 -62 -26 -62 -15 0 -19 -7 -19 -35 0 -28 -4 -35 -20 -35
-14 0 -18 -5 -13 -17 5 -13 2 -15 -15 -11 -12 4 -22 2 -22 -4 0 -5 -9 -6 -20
-3 -11 3 -20 2 -20 -3 0 -13 -63 -30 -80 -21 -8 4 -30 14 -47 21 -18 7 -33 19
-33 25 0 21 -48 15 -60 -6 -7 -14 -7 -22 0 -26 6 -4 9 -14 6 -23 -2 -10 -7
-31 -11 -47 l-6 -30 77 -2 c42 -1 81 -6 86 -11 12 -12 -36 -47 -52 -37 -6 3
-10 -3 -10 -15 0 -16 -4 -20 -15 -16 -10 3 -15 1 -13 -7 1 -6 -5 -31 -15 -54
-12 -31 -23 -43 -37 -43 -11 0 -20 -6 -20 -14 0 -7 -25 -40 -55 -72 -31 -33
-59 -72 -62 -87 -4 -21 -13 -30 -33 -34 -16 -3 -30 -13 -33 -24 -4 -16 -11
-18 -31 -13 -21 5 -28 1 -37 -20 -9 -19 -20 -26 -41 -26 -26 0 -28 -2 -28 -44
0 -39 -3 -45 -29 -56 -17 -7 -28 -17 -25 -25 3 -8 -6 -15 -23 -19 -41 -11 -73
-34 -73 -54 0 -16 -34 -46 -53 -47 -21 -1 -24 -30 -6 -57 28 -39 22 -72 -13
-76 -18 -2 -28 1 -28 9 0 9 -4 7 -12 -3 -20 -25 -74 -33 -86 -12 -9 16 -11 15
-22 -5 -8 -16 -18 -22 -34 -19 -20 4 -25 -1 -35 -44 -10 -37 -17 -48 -32 -48
-16 0 -18 -3 -9 -19 8 -16 6 -21 -9 -26 -19 -6 -51 -81 -43 -103 5 -17 30 -15
40 4 10 19 32 11 32 -12 0 -8 9 -14 20 -14 11 0 20 7 20 16 0 8 4 13 9 10 15
-10 71 15 71 31 0 13 3 13 25 -1 14 -9 25 -14 25 -11 0 3 8 1 18 -4 13 -7 23
-6 31 2 10 9 15 8 26 -6 7 -10 16 -14 19 -9 3 6 14 8 24 5 21 -5 48 -43 31
-43 -6 0 -8 -8 -4 -20 4 -14 2 -20 -8 -20 -21 0 -16 -53 7 -79 10 -11 27 -23
37 -26 11 -4 19 -15 19 -26 0 -10 3 -19 8 -20 4 0 15 -2 25 -4 9 -2 17 1 17 6
0 6 16 -2 35 -16 22 -18 47 -27 70 -27 19 0 33 -4 30 -8 -3 -5 18 -10 47 -12
56 -3 91 15 108 57 8 18 9 18 9 2 1 -10 6 -15 12 -12 18 12 59 -4 53 -20 -6
-16 54 -95 73 -95 6 0 15 -9 18 -20 4 -14 15 -20 34 -20 15 0 33 -6 40 -12 11
-11 13 -9 8 10 -5 19 -2 23 12 19 10 -2 25 -1 33 4 11 6 24 2 42 -12 l27 -21
23 21 c23 22 56 28 56 12 0 -6 -9 -25 -20 -45 -14 -23 -17 -36 -10 -41 6 -4
15 7 21 24 7 20 18 31 31 31 10 0 16 -4 13 -10 -3 -5 -1 -10 4 -10 6 0 11 -5
11 -10 0 -7 -6 -7 -19 -1 -15 8 -20 7 -25 -5 -8 -22 -9 -21 24 -33 17 -5 30
-17 30 -25 0 -19 2 -19 54 -4 22 7 46 19 52 27 7 9 20 12 37 7 16 -4 27 -2 27
4 0 5 -9 10 -19 10 -25 0 -36 16 -17 23 8 3 16 2 18 -3 2 -5 14 -1 27 9 l24
18 -30 13 c-40 18 -72 68 -63 100 4 14 5 42 4 63 -2 26 1 37 11 37 8 0 17 5
20 10 8 13 -3 50 -15 50 -5 0 -7 -7 -3 -16 9 -24 -31 -9 -63 23 -21 21 -28 23
-35 12 -7 -12 -13 -11 -36 3 -15 9 -28 25 -29 35 -2 38 -4 43 -19 43 -8 0 -19
9 -25 20 -6 11 -16 17 -25 14 -24 -10 -46 15 -35 36 15 28 12 36 -6 14 -11
-13 -17 -15 -20 -6 -3 6 -13 12 -21 12 -23 0 -7 13 20 16 12 1 24 3 26 3 5 1
-88 51 -94 51 -3 0 -2 -7 1 -15 4 -8 4 -15 1 -15 -14 0 -83 46 -95 63 -13 17
-15 17 -26 1 -10 -13 -21 -15 -51 -10 -37 7 -37 7 -31 -18 3 -14 2 -26 -2 -26
-5 0 -7 -12 -4 -26 4 -20 1 -25 -9 -22 -8 3 -14 10 -14 15 0 6 -4 15 -8 20 -5
4 -7 -3 -5 -17 2 -21 -1 -25 -21 -22 -14 1 -33 10 -42 18 -17 15 -19 14 -25
-11 -6 -26 -8 -27 -20 -11 -7 10 -10 24 -8 31 3 7 -5 15 -18 19 -22 6 -22 7
-5 20 12 9 14 16 8 21 -6 3 -11 15 -11 25 0 10 -9 21 -20 25 -20 6 -22 28 -6
53 6 10 11 10 22 1 9 -7 14 -8 14 -1 0 7 13 9 35 5 20 -3 41 -1 49 6 11 9 17
8 29 -4 22 -21 32 -19 51 10 9 14 23 25 31 25 7 0 22 11 33 25 23 29 37 31 52
8 9 -15 10 -14 4 7 -6 21 -5 23 7 13 12 -10 18 -8 29 10 8 12 13 26 12 31 -2
5 3 4 10 -2 23 -19 55 -3 62 30 3 17 1 37 -5 44 -7 9 -7 19 2 36 17 34 41 58
50 52 14 -8 10 -24 -5 -24 -10 0 -15 -16 -18 -52 -2 -29 -1 -55 2 -58 4 -3 7
-14 7 -25 3 -49 14 -95 37 -157 15 -40 21 -70 16 -73 -6 -3 -10 -11 -10 -18 0
-8 3 -8 12 1 7 7 20 12 30 12 15 0 17 3 8 20 -9 16 -6 22 18 34 16 8 34 21 41
29 10 13 16 13 43 0 23 -12 32 -13 38 -3 6 9 12 9 29 1 17 -10 25 -9 37 4 8 8
21 15 28 15 7 0 22 14 34 30 13 17 29 30 36 30 17 0 72 71 68 88 -2 6 2 12 8
12 7 0 7 7 -1 22 -10 18 -9 20 5 15 11 -4 16 -1 16 9 0 12 7 15 30 12 23 -4
27 -2 19 8 -17 20 0 36 35 33 44 -4 104 19 111 42 5 14 16 19 46 19 32 0 39 3
39 20 0 16 7 20 36 20 27 0 37 5 41 20 3 11 11 20 19 20 7 0 11 6 8 14 -6 16
42 46 74 46 24 0 39 17 44 50 4 34 56 42 119 18 l46 -17 -4 23 c-7 33 21 52
54 37 20 -9 28 -9 33 0 4 6 13 8 19 5 7 -5 11 1 11 13 0 12 5 21 10 21 6 0 10
7 10 16 0 14 3 14 15 4 13 -10 15 -9 15 9 0 13 6 21 18 21 9 0 23 9 30 20 6
11 17 17 24 15 8 -3 26 17 43 46 17 28 40 55 53 60 17 7 22 14 17 29 -5 14 -2
20 9 20 9 0 15 3 15 8 -3 18 2 26 10 14 9 -16 88 -35 102 -26 6 3 8 12 5 20
-3 8 1 14 8 14 9 0 12 7 9 20 -4 14 0 20 11 20 9 0 16 4 16 9 0 5 12 11 26 14
19 3 29 -2 41 -20 9 -14 19 -20 23 -14 10 18 52 -18 45 -39 -3 -10 -1 -21 5
-25 6 -3 8 -11 5 -16 -4 -5 5 -9 18 -9 27 0 37 16 37 57 0 16 7 27 20 30 11 3
20 14 20 24 0 14 7 19 28 19 16 0 37 8 48 18 10 9 26 17 34 17 10 0 17 15 21
47 9 56 15 68 37 68 14 0 14 2 3 9 -17 11 -17 67 0 87 10 12 8 16 -9 21 -16 4
-22 13 -22 34 0 15 -4 31 -10 34 -11 7 -1 67 14 77 6 4 8 10 4 13 -3 3 5 18
17 31 19 21 27 24 44 15 28 -15 51 -14 51 4 0 9 9 15 23 15 14 0 33 15 52 41
16 22 36 38 45 37 8 -2 24 5 35 15 11 10 29 17 40 15 11 -1 34 6 52 15 41 22
56 22 46 0 -10 -22 -10 -54 0 -71 5 -6 5 -16 2 -22 -3 -5 -1 -10 4 -10 6 0 11
-10 11 -23 0 -14 6 -24 15 -25 8 -1 23 -3 32 -4 19 -2 62 -47 63 -66 0 -7 10
-31 23 -53 17 -30 19 -41 10 -47 -10 -6 -7 -16 11 -41 19 -25 23 -40 19 -70
-5 -35 -1 -43 37 -81 38 -38 41 -45 35 -77 -6 -36 10 -103 29 -115 8 -5 7 -8
-1 -8 -27 0 -13 -38 20 -50 17 -7 42 -22 53 -32 12 -11 28 -18 35 -17 26 4 48
-13 54 -41 7 -31 34 -48 46 -29 4 8 13 0 24 -22 20 -39 34 -51 49 -41 18 11
116 13 135 3 22 -12 17 -61 -5 -61 -8 0 -14 -10 -14 -25 0 -20 -6 -27 -30 -32
-29 -5 -30 -7 -17 -27 13 -19 12 -25 -9 -56 -13 -19 -24 -31 -24 -26 0 5 -7 3
-15 -4 -8 -7 -15 -28 -15 -46 0 -20 -5 -34 -12 -34 -9 0 -9 -3 0 -12 18 -18
15 -28 -10 -28 -12 0 -35 -12 -50 -27 -22 -21 -37 -27 -63 -25 -27 3 -33 0
-31 -15 2 -15 12 -18 50 -17 39 0 46 -2 41 -15 -18 -46 -18 -74 0 -88 11 -7
13 -13 7 -13 -7 0 -12 -4 -12 -10 0 -5 7 -7 15 -4 10 4 13 16 9 44 -5 36 -4
37 20 33 17 -4 26 -12 26 -25 0 -15 4 -17 18 -10 20 11 42 5 58 -14 6 -7 22
-14 37 -16 14 -2 35 -12 46 -22 12 -11 21 -17 22 -15 6 49 6 79 -1 79 -6 0
-10 3 -10 8 0 4 20 6 44 4 42 -4 46 -2 68 35 47 76 56 125 28 158 -12 14 -12
18 0 25 15 10 21 88 7 97 -16 10 -29 56 -17 63 7 4 6 16 -5 36 -22 44 -19 54
14 48 23 -5 34 0 55 22 14 16 26 32 26 36 0 5 11 8 25 8 21 0 25 4 20 23 -9
36 6 48 45 37 26 -8 37 -6 51 6 13 12 30 13 82 8 64 -6 67 -6 78 19 6 14 25
31 41 38 15 6 32 17 36 23 11 17 59 46 77 46 8 0 15 7 15 16 0 9 7 14 19 12
22 -4 111 75 111 100 0 9 7 26 15 36 8 11 15 37 15 59 0 34 2 38 21 32 14 -5
27 0 40 14 11 12 26 21 34 21 7 0 15 6 18 13 2 6 21 13 43 14 67 3 78 6 99 26
11 10 30 26 43 34 14 10 22 25 22 44 0 15 5 31 10 34 6 3 10 14 10 24 0 20 46
56 54 43 8 -14 66 -1 66 14 0 8 4 14 9 14 12 0 21 50 11 69 -4 9 -15 31 -24
49 -9 17 -14 32 -11 32 3 0 1 9 -5 20 -6 11 -20 20 -32 20 -11 0 -27 8 -34 18
-16 20 -18 52 -4 52 6 0 10 9 10 19 0 14 -5 18 -19 14 -19 -5 -36 21 -25 38 3
5 -4 22 -16 37 -17 21 -19 28 -8 30 10 2 13 12 10 32 -2 17 0 30 5 30 13 0 3
62 -13 80 -7 9 -22 36 -34 62 -11 25 -26 48 -33 51 -15 5 -41 83 -33 96 3 4
-6 19 -19 31 -14 13 -25 33 -25 46 0 28 -25 51 -34 29 -8 -23 -26 -18 -26 8 0
23 -17 47 -33 47 -5 0 -7 -7 -3 -15 4 -13 2 -14 -14 -5 -11 6 -20 15 -20 20 0
6 -7 10 -15 10 -8 0 -15 4 -15 10 0 5 7 7 15 4 9 -4 15 0 15 9 0 16 31 18 43
2 4 -5 6 6 5 25 -2 27 -9 38 -30 47 -27 12 -38 33 -18 33 6 0 10 4 10 10 0 5
-7 7 -15 4 -8 -4 -15 -15 -15 -25 0 -13 -5 -17 -17 -12 -11 4 -14 3 -9 -6 6
-9 1 -10 -18 -5 -21 5 -26 2 -27 -12 -1 -11 -2 -28 -3 -39 -2 -28 -17 -78 -28
-91 -10 -13 48 -68 62 -59 9 5 4 -41 -6 -57 -3 -4 -14 -8 -25 -8 -11 0 -17 -4
-14 -10 10 -16 -2 -12 -67 20 -65 32 -72 35 -64 21 3 -5 3 -23 0 -41 -5 -25
-11 -31 -25 -27 -11 3 -17 1 -13 -4 3 -5 -4 -9 -15 -9 -11 0 -30 14 -43 30
-14 20 -30 30 -47 30 -52 -1 -74 7 -82 28 -5 12 -15 22 -24 22 -14 0 -14 2 0
24 13 20 14 25 1 35 -9 7 -17 8 -20 2 -4 -6 -18 -3 -37 6 -25 13 -33 13 -39 2
-7 -10 -11 -10 -24 0 -13 11 -19 11 -31 1 -16 -13 -68 -5 -83 13 -14 18 -23
77 -11 77 5 0 -6 25 -26 56 -29 45 -35 61 -29 89 5 31 4 33 -25 40 -17 3 -35
4 -40 1 -5 -3 -26 12 -47 34 -27 28 -42 36 -50 29 -8 -7 -13 -6 -16 1 -2 8
-11 8 -31 1 -33 -13 -56 -5 -67 23 -6 17 -17 22 -56 24 -26 1 -56 4 -66 8 -12
3 -18 0 -18 -10 0 -9 -6 -13 -14 -10 -18 7 -10 -33 11 -58 13 -14 12 -17 -3
-26 -15 -9 -16 -13 -5 -26 9 -11 10 -16 2 -16 -6 0 -11 -9 -11 -19 0 -28 -31
-60 -63 -63 -30 -3 -45 16 -63 77 -8 24 -16 31 -51 38 -32 6 -47 16 -60 38 -9
16 -24 29 -33 29 -9 0 -21 5 -27 11 -6 6 -17 11 -24 13 -69 12 -119 32 -119
47 0 30 -56 61 -116 64 -30 2 -61 8 -67 13 -7 5 -26 13 -43 16 -26 6 -32 3
-42 -19 -7 -15 -10 -30 -7 -35 3 -4 -2 -13 -9 -19 -11 -9 -16 -9 -21 0 -5 7
-10 8 -14 1 -9 -15 -82 -18 -105 -5 -24 13 -78 -11 -69 -32 5 -14 -25 -21 -65
-16 -8 1 -22 -5 -32 -14 -14 -13 -22 -14 -44 -4 -19 9 -23 15 -14 20 9 6 8 9
-5 13 -9 4 -25 9 -34 13 -10 3 -21 5 -25 5 -10 -2 -10 -3 1 34 8 28 7 31 -10
27 -10 -3 -19 -12 -19 -19 0 -8 -3 -14 -7 -14 -16 0 -73 25 -73 32 0 4 -14 15
-31 24 -27 13 -36 14 -56 3 -17 -9 -26 -10 -31 -2 -4 6 -22 8 -39 6 -20 -3
-30 -9 -26 -16 4 -6 0 -8 -11 -4 -10 4 -19 1 -22 -8 -4 -8 -25 -20 -47 -26
-34 -9 -46 -8 -69 6 -15 9 -28 14 -28 10 0 -3 -11 2 -25 11 -14 9 -25 22 -25
30 0 19 -17 26 -37 15 -14 -7 -25 -3 -47 20 -16 16 -35 29 -43 29 -7 0 -13 5
-13 11 0 5 -5 7 -11 3 -12 -7 -54 12 -83 39 -11 9 -30 17 -43 17 -13 0 -26 7
-29 15 -9 21 -51 19 -63 -4 -11 -19 -53 -19 -78 1 -8 6 -15 3 -22 -11 -7 -12
-17 -18 -26 -15 -8 4 -31 3 -51 -1 -25 -4 -34 -10 -30 -21 7 -17 4 -17 -39 0
-18 8 -36 12 -38 9 -8 -8 -67 78 -67 97 0 27 -12 31 -38 14 -24 -16 -25 -16
-17 2 4 11 10 28 13 39 2 11 9 25 14 32 7 8 -1 14 -29 19 -21 3 -52 15 -69 25
-39 23 -37 24 -49 -3z m359 -262 c-7 -17 -34 -23 -34 -6 0 9 32 31 38 26 1 -2
0 -11 -4 -20z m2164 -448 c18 -18 15 -27 -8 -21 -11 3 -20 12 -20 19 0 17 12
18 28 2z m-1995 -506 c13 -6 -34 -52 -47 -46 -6 3 1 -6 16 -20 16 -14 23 -28
18 -31 -6 -3 -10 -15 -10 -26 0 -10 -5 -19 -11 -19 -5 0 -15 -14 -21 -31 -10
-29 -12 -30 -52 -24 -53 9 -58 13 -47 33 11 20 -4 52 -24 52 -26 0 -16 17 18
29 54 20 80 35 78 46 -1 5 6 12 16 16 17 7 17 8 1 8 -26 1 -22 19 5 23 21 4
42 0 60 -10z m-162 -219 c1 -10 1 -22 0 -26 -1 -4 8 -3 18 3 24 12 38 -4 21
-25 -6 -8 -9 -23 -5 -34 4 -15 2 -18 -12 -15 -10 3 -37 -2 -61 -10 l-43 -16
-16 37 c-14 34 -14 38 4 50 10 7 25 19 34 27 16 13 37 24 52 25 4 1 8 -7 8
-16z m-264 -195 c-3 -7 -5 -2 -5 12 0 14 2 19 5 13 2 -7 2 -19 0 -25z m-607
-1068 c5 0 10 -10 12 -22 2 -13 18 -29 41 -41 45 -23 77 -74 52 -83 -8 -3 -15
-15 -15 -25 0 -11 -7 -22 -15 -25 -20 -8 -45 13 -38 31 2 8 -8 26 -24 39 -15
14 -22 26 -15 26 9 0 6 9 -7 28 -25 34 -27 48 -16 92 9 34 9 34 13 8 2 -16 7
-28 12 -28z m170 -941 c0 -21 -16 -33 -34 -26 -11 4 -11 13 -2 41 10 32 12 34
24 19 6 -9 12 -25 12 -34z m-38 -101 c-7 -7 -12 -8 -12 -2 0 14 12 26 19 19 2
-3 -1 -11 -7 -17z m-67 -8 c3 -5 1 -10 -4 -10 -6 0 -11 5 -11 10 0 6 2 10 4
10 3 0 8 -4 11 -10z m385 -86 c0 -14 -27 -19 -54 -8 -24 9 -11 21 24 22 20 0
30 -4 30 -14z"/>
<path d="M6315 11100 c3 -5 8 -10 11 -10 2 0 4 5 4 10 0 6 -5 10 -11 10 -5 0
-7 -4 -4 -10z"/>
<path d="M8395 11049 c-4 -5 -11 -7 -16 -4 -5 4 -9 1 -9 -5 0 -6 8 -9 18 -6
13 5 21 -1 29 -21 l11 -28 -1 32 c-1 32 -21 51 -32 32z"/>
<path d="M8430 10952 c0 -5 7 -15 15 -22 8 -7 15 -8 15 -2 0 5 -7 15 -15 22
-8 7 -15 8 -15 2z"/>
<path d="M11380 10913 c0 -10 4 -14 8 -8 4 6 11 13 16 18 5 4 2 7 -7 7 -10 0
-17 -8 -17 -17z"/>
<path d="M11616 10574 c-4 -15 -26 -45 -49 -67 -23 -22 -35 -37 -26 -34 9 3
21 1 27 -5 8 -8 19 -6 37 6 18 12 36 15 56 11 26 -6 29 -4 29 18 0 14 7 27 15
31 8 3 15 13 15 21 0 9 -4 14 -8 11 -5 -3 -23 4 -40 15 -42 25 -49 24 -56 -7z"/>
<path d="M13276 9815 c-15 -25 -31 -45 -37 -45 -5 0 -9 -6 -8 -12 3 -29 -2
-39 -26 -48 -14 -5 -25 -14 -25 -19 0 -5 -13 -14 -30 -20 -16 -5 -30 -17 -30
-25 0 -8 -6 -16 -12 -19 -9 -3 -6 -12 10 -28 19 -20 22 -21 16 -5 -6 15 -4 17
6 11 10 -6 12 -3 8 12 -5 17 0 22 25 27 19 4 33 2 38 -5 12 -20 38 -3 32 20
-4 15 -1 21 10 21 23 0 65 79 68 129 5 60 -13 62 -45 6z"/>
<path d="M13155 9560 c3 -5 11 -10 16 -10 6 0 7 5 4 10 -3 6 -11 10 -16 10 -6
0 -7 -4 -4 -10z"/>
<path d="M13250 9545 c0 -18 -12 -19 -27 -4 -7 7 -13 7 -17 0 -4 -5 -13 -8
-21 -4 -10 3 -13 1 -10 -9 3 -8 -1 -21 -10 -28 -37 -31 -1 -120 49 -120 15 0
17 -5 12 -26 -5 -18 -2 -32 10 -45 23 -25 40 -24 66 6 l22 25 27 -26 c15 -14
40 -27 56 -28 23 -1 28 2 28 20 -1 11 -11 32 -24 45 -17 18 -19 25 -8 29 18 6
4 50 -16 50 -8 0 -27 12 -43 27 -16 15 -32 27 -35 26 -6 -2 -23 28 -33 60 -7
21 -26 23 -26 2z"/>
<path d="M9827 9481 c-3 -12 -1 -21 3 -21 15 0 23 21 12 32 -6 6 -11 2 -15
-11z"/>
<path d="M9750 9474 c-31 -11 -32 -13 -10 -13 34 -1 70 10 70 20 0 12 -17 10
-60 -7z"/>
<path d="M6367 9463 c-21 -3 -27 -9 -23 -20 9 -23 -11 -42 -37 -35 -19 5 -20
3 -10 -10 7 -8 10 -18 6 -21 -3 -4 -1 -7 5 -7 7 0 5 -10 -4 -29 -13 -27 -18
-29 -55 -24 l-41 6 15 -29 c12 -24 13 -31 1 -41 -7 -7 -18 -13 -24 -13 -9 0
-15 -30 -11 -54 4 -20 -45 -96 -61 -96 -10 0 -18 -6 -18 -13 0 -7 -12 -20 -27
-29 -21 -13 -24 -18 -10 -18 16 0 43 -44 39 -62 -1 -5 7 -8 18 -8 11 0 20 5
20 11 0 6 8 9 18 6 37 -8 87 35 81 69 -1 5 -1 21 0 37 1 26 3 27 60 27 54 0
62 3 84 30 14 17 30 30 36 30 6 0 8 7 4 16 -9 24 61 -24 73 -50 5 -11 17 -21
27 -22 10 -1 27 -10 36 -18 10 -9 26 -16 36 -16 15 0 14 4 -9 26 -30 30 -33
44 -11 44 9 0 30 7 46 16 35 18 73 91 57 111 -13 16 -3 43 16 43 12 0 13 7 4
38 -14 52 -24 59 -46 32 -16 -20 -21 -21 -40 -9 -12 8 -22 20 -22 27 0 9 -7
11 -20 7 -12 -4 -26 -2 -33 3 -7 5 -31 13 -54 17 -23 3 -47 13 -54 21 -11 14
-19 15 -72 7z"/>
<path d="M7450 9104 c0 -8 5 -12 10 -9 6 3 10 10 10 16 0 5 -4 9 -10 9 -5 0
-10 -7 -10 -16z"/>
<path d="M6142 8921 c-9 -6 -8 -12 8 -26 20 -18 24 -13 12 17 -4 11 -12 14
-20 9z"/>
<path d="M7105 8860 c3 -5 11 -10 16 -10 6 0 7 5 4 10 -3 6 -11 10 -16 10 -6
0 -7 -4 -4 -10z"/>
<path d="M7126 8756 c4 -22 14 -35 14 -18 0 7 6 12 14 12 7 0 19 6 25 13 9 11
4 14 -23 13 -28 -1 -33 -4 -30 -20z"/>
<path d="M10130 8441 c6 -12 15 -21 20 -21 18 0 11 19 -11 30 -19 11 -20 10
-9 -9z"/>
<path d="M10105 8381 c5 -25 2 -30 -24 -39 -17 -6 -31 -18 -31 -26 0 -18 -43
-32 -62 -20 -7 4 5 -13 27 -38 45 -51 64 -63 78 -49 7 7 22 0 46 -20 l36 -30
28 32 c31 34 34 34 41 -2 2 -13 5 -26 5 -28 1 -2 8 2 16 9 8 7 15 26 15 43 0
29 -1 30 -15 11 -14 -18 -14 -17 -15 14 0 25 -5 35 -25 42 -14 5 -25 15 -26
22 0 7 -10 33 -22 58 -18 36 -28 45 -50 47 -26 2 -28 0 -22 -26z"/>
<path d="M9918 8361 c22 -20 32 -37 28 -47 -5 -13 -2 -14 11 -9 10 4 26 7 36
7 9 0 17 3 17 7 0 12 -35 41 -49 41 -6 0 -26 7 -44 16 l-32 16 33 -31z"/>
<path d="M7585 7990 c-3 -5 1 -10 10 -10 9 0 13 5 10 10 -3 6 -8 10 -10 10 -2
0 -7 -4 -10 -10z"/>
<path d="M7078 7893 c7 -3 16 -2 19 1 4 3 -2 6 -13 5 -11 0 -14 -3 -6 -6z"/>
</g>
</svg>
