<svg version="1" xmlns="http://www.w3.org/2000/svg" width="1006.72" height="440.525" viewBox="0 0 755.04 330.394"><g fill="#222"><path d="M85.619 3.567c-1.3 3-2.2 3.7-4 3.5-1.2-.2-2.2.1-2.2.6 0 2-5.5 2.1-8.8.1-1.8-1-3.5-1.9-3.8-1.9-.2 0-.4 1.6-.4 3.5 0 3.8 0 3.8-7.2 3.5-2.7-.1-4.8.3-4.8.8 0 1.4 4.4 3.4 7.1 3.1 1.3-.1 3.8.4 5.6 1.1 2.6 1.1 3.2 2.1 3.8 5.6.3 2.3 1.3 4.8 2 5.4.8.7 1.5 2 1.5 2.9 0 .9.5 2.2 1.2 2.9.7.7.9 1.2.4 1.2-.4 0 .7 1.2 2.6 2.7 1.8 1.5 3.7 3.3 4.1 4 .4.7 2.1 2 3.7 2.8 2.6 1.3 3 2.1 3 5.5 0 2.5-.5 4-1.2 4-.9 0-.8.4.2 1 .8.5 2.9 1 4.7 1 1.7 0 3.5.4 3.8 1 1.1 1.7 4.7 1.1 5.2-.9.6-2.4 5.6-4.6 8-3.6 2.1.9 5.3.7 6.8-.5.6-.4 1.8-.4 2.9-.1 1.4.5 2.8-.2 5.1-2.6 1.7-1.8 3.4-3.1 3.7-2.8.3.3 1.1-.2 1.8-1 1.1-1.3 1-1.9-.4-3.3-1.6-1.6-1.8-1.6-3.1.2-1 1.3-2 1.6-3.2 1.1-1-.5-2.1-.9-2.5-.9-1.4-.2-2.1-1.7-2.5-5.6-.2-2.2 0-4 .6-4 1.6 0 2.4-5.9 1.1-7.5-.7-.8-1.6-1.2-2.1-.9-1.3.7-9.6-3.3-10.2-5-.5-1.2 0-1.4 2.1-1l2.8.6-.6-6.4c-.6-7.8-2.9-11.1-5.9-8.4-2.2 2-5 2-7.5.1-1.4-1.1-2.2-1.2-2.7-.4-.9 1.5-4.5-.4-5.9-3.1-1.6-2.9-2.8-2.5-4.8 1.7zM130.019 32.767c-.3.5.1 1.4.8 2 1.2 1 1.3.8.9-.8-.6-2.3-.9-2.5-1.7-1.2zM133.319 40.567c2.1 4 5.8 6.4 9.2 6.1 2.2-.2 3.5-.9 3.7-2 .3-1.3-.3-1.5-3.5-1.1-3.2.4-4.2.1-6.2-2.1-2.8-3-4.6-3.5-3.2-.9zM753.419 44.367c-.7.8-1.9 1.5-2.7 1.5-.8 0-2.2 1.3-3.1 2.9-.9 1.7-2.7 3.5-3.9 4-1.3.6-2.3 1.9-2.3 3.1 0 1.3-.7 2-2 2-1 0-2.3.7-2.8 1.6-.7 1.2-1.4 1.4-2.8.6-2.4-1.2-4.4-.5-4.4 1.5 0 1.1-.6 1.4-2.2 1-2.6-.7-4.8.8-4.8 3.3 0 1-.7 2.1-1.6 2.4-.8.3-1.3 1-1 1.5 1.2 1.9-1.7 5.9-4.8 6.8-3.1.9-3.5 2.1-2.1 5.5.6 1.5.2 1.8-1.9 1.8-2.2 0-2.5.3-1.8 1.7.6 1 .8 4.6.7 8-.2 5.2-.7 6.6-2.6 8.2l-2.4 1.9 2.8-.5c1.5-.3 2.7-1.2 2.7-1.9 0-2.3 2.5-1.6 7.2 2 4.5 3.4 4.6 3.5 6.5 1.6 1.5-1.4 2.3-1.6 3.2-.7.8.8 1.1.7 1.1-.6 0-.9.4-1.7.9-1.7s1.8-1.6 3-3.5c1.1-1.9 3.2-4 4.6-4.7 1.4-.6 2.5-1.7 2.5-2.3 0-.7.9-1.5 2-1.8 1.2-.3 2-1.4 2-2.6 0-1.2.5-2.1 1-2.1.6 0 1-1.1 1-2.4 0-1.4-.4-2.8-1-3.1-1.8-1.1-1.1-3.2 1.2-3.8 1.2-.4 1.9-.9 1.5-1.3-.4-.4 0-1.6 1-2.6.9-1.1 1.1-1.8.5-1.8-.7 0-1.2-.6-1.2-1.4 0-.8-1.1-2.8-2.5-4.4-2.6-3.1-3.2-5.2-1.5-5.2.6 0 1-.7 1-1.5 0-1.8.5-1.8 3.1-.5 1.3.7 1.9.7 1.9 0 0-.5 1.4-1 3-1 2.7 0 2.9-.2 2.1-1.9-.6-1-.8-2.1-.5-2.4.5-.5 1.4-8.7.9-8.7-.1 0-.8.7-1.5 1.5zM128.819 54.567c0 2.3-.8 4.2-2 5.2s-1.8 2.6-1.6 4.3c.2 1.9-.3 3-1.7 3.8-1.2.6-2.1 2-2.1 3.1s-.7 2.7-1.5 3.5c-.9 1-1.5 3.4-1.5 6.5 0 3.7-.4 4.9-1.5 4.9-2.2 0-5.1 3.3-4.7 5.4.3 1.6 0 1.8-2.2 1.2-2.7-.7-2.7-.7-1 1.9 1.6 2.5 1.6 2.7-.2 4.4-1.1.9-2.5 1.6-3.2 1.3-.8-.2-1.2.7-1.2 2.7 0 1.6-.4 3.3-1 3.6-.6.4-.4 1.5.5 2.9 1.4 2.1 1.4 2.4.1 2.9-1.1.4-1.3 1.3-.7 3.4.9 3.3-1.2 7.3-3.9 7.3-1.2 0-2 .9-2.2 2.2-.2 1.3-1.4 2.8-2.8 3.5-1.4.6-4.9 3.7-7.8 6.7-2.9 3.1-5.9 5.6-6.8 5.6-.8 0-1.2.4-.9 1 .3.5-.1 1-.9 1-2.3 0-2.9 1.9-1.4 4.3 1.9 2.9.2 6.3-2.9 6.1-1.4-.1-2.3.5-2.3 1.3 0 .7-1.1 1.9-2.5 2.5-1.6.7-2.5 1.9-2.5 3.5 0 1.7-.6 2.3-2.3 2.3-1.4 0-3.5 1.3-5 3-1.5 1.6-3.4 3-4.3 3-.8 0-1.9 1.2-2.5 2.8-1.1 3.3-3.9 5.1-9.9 6.7-3.2.8-4.6 1.7-4.8 3.1-.2 1.4-1.6 2.4-4.8 3.2-2.4.7-5.3 1.2-6.3 1.2-1.6 0-1.7.6-1.3 5 .4 4.5.2 5.2-2.2 7.1-1.4 1.1-2.5 2.3-2.5 2.7.4 2.4-.4 4.1-2 4.7-1 .3-2.1 1.5-2.4 2.5-.3 1.2-1.4 2-2.5 2-1.2 0-3.7 1-5.7 2.1-1.9 1.2-4.6 1.9-5.9 1.7-2.2-.4-2.3-.3-1.8 4.6.4 4 1.1 5.5 3.6 7.5 1.6 1.4 4.1 3.8 5.5 5.3 1.3 1.6 2.9 2.8 3.5 2.8.6 0 2.8 1.1 4.9 2.5 2.9 2 3.7 2.2 3.7 1 0-2.3 4.1-1.9 4.7.5.5 1.8.7 1.8 3.9.5 2.2-.9 3.4-1 3.4-.3s.5.6 1.5-.2c.8-.7 2.8-1 4.5-.8 2 .3 3 0 3-.9 0-1.5 2.6-1.8 3.5-.3.5.8 1.1.7 2.1-.1 1.1-.9 2.1-.9 3.8-.1 1.7.7 2.7.7 3.4 0 .8-.8 3-.1 7.6 2.1 3.5 1.7 6.9 3.1 7.4 3.1s2.1 1.1 3.6 2.5 3.1 2.5 3.5 2.5c.5 0 1.1.9 1.4 2 .7 2.6 5.4 4.4 8.2 3.2 2.5-1.2 8.9 3 10.5 7 .7 1.4 2.2 3.6 3.6 4.9 1.3 1.2 2.4 2.8 2.4 3.6 0 .7.3 1.2.8 1.1.4-.1 1.7.3 2.9 1 3.5 1.9 16.9 2.7 19.8 1.2 3.1-1.6 7.4 0 8.2 3 .3 1.1 1.1 2 1.8 2s2.4.9 3.8 2 4 2 5.9 2c1.8 0 4.2.7 5.2 1.5 1.1.8 2.7 1.5 3.6 1.5.9 0 2.6 1.1 3.9 2.4 1.9 2 2.7 2.2 6.4 1.5 6.2-1.2 6.7-1.1 7.7 1.6.5 1.4 2.5 3.1 4.5 3.9 1.9.8 3.5 2.1 3.5 2.8 0 .7.7 2.5 1.4 4 1 1.9 1.1 3 .4 3.4-.8.5-.7 1.1.3 1.8 2.8 2.3 4.1 5.6 2.8 7.3-1.1 1.2-1 1.4.2 1.2.7-.1 2.6.1 4.1.5 3.1.9 4.3 0 7.2-5.6 1.7-3.4 1.7-3.8.2-5.3-2.6-2.6-1.9-3.3 3.1-2.7 4.3.5 4.6.4 4-1.7-.4-1.5-.1-2.1 1.1-2.1 1.4 0 1.4-.2.3-.9-.8-.5-1.1-1.6-.8-2.5.8-2.1 4-3.3 4.5-1.8.2.7 1 1.2 1.7 1.2 1.6 0 2.5 3.4 2.1 8.2-.4 4.2 2 7.2 6.8 8.4 3.1.7 4.6-.6 4.6-4.3 0-1.5.5-2.1 1.4-1.7 1.6.6 3-3.7 1.5-4.7-.6-.3-.2-.9.9-1.2 1.4-.3 2.3-1.6 2.7-4.1.4-2 1.1-3.3 1.6-3 .5.3.9 0 .9-.6s1.1-.5 3 .5c1.7.9 3 2 3 2.5 0 .6.5 1 1 1 .6 0 1-.9 1-2 0-1.3 1-2.4 2.5-3 1.4-.5 2.5-1.4 2.5-1.9 0-1.3 6.3-2 7.7-.9 1.3 1 8.3-2.5 8.3-4.2 0-.8 5.1-1.9 10.3-2.3 1.6-.1 3-.9 3.3-2 .4-1.2 1.2-1.5 2.7-1.2 1.7.5 3.4-.7 7.7-5 3-3 6.1-5.5 6.9-5.5.8 0 2.2-.6 3-1.4 2.7-2.3 8.2-3.7 9.7-2.5.7.6 1.8.8 2.4.4.6-.4 1.6-.2 2.3.4.7.6 1.8.6 2.6.1.8-.4 2-.6 2.8-.3.8.3 2.7-.7 4.3-2.2 1.6-1.5 3.3-2.4 3.8-2.1.5.3 1.5 0 2.1-.8.8-1 3.3-1.2 9.5-1 6.8.3 9.6 1 15 3.5 3.6 1.7 6.6 3.5 6.6 4.1 0 .6.6.8 1.4.5.7-.3 2.3.1 3.4.9 1.1.7 4.3 1.4 7.1 1.5 2.8.1 5.1.6 5.1 1s1.3 1 3 1.4c1.6.4 3.2 1.1 3.5 1.6.4.5 2.4.9 4.6.9 2.8 0 3.9-.4 3.9-1.5 0-2.3.9-1.9 6.2 3.1 3 2.8 5.5 4.4 6.4 4 .8-.3 1.7.1 2 .9.4.8 1 1.2 1.5.9.5-.3.9.2.9 1.1 0 1.1.5 1.5 1.5 1.1.8-.3 2.8 0 4.3.6s3.2 1 3.8 1c1.4-.3 5.4 3.6 5.4 5.3 0 1.3 9.5 5.5 12.6 5.5.8 0 2.3.6 3.5 1.2 1.8 1.2 2.4.9 4.9-1.9 2.2-2.5 3.9-3.3 7-3.5 2.2-.2 4-.7 4-1.2s2-.6 4.4-.4c3.3.4 4.6.2 5-.9.3-.8 1.1-1.1 1.6-.8.6.4 1.7.2 2.5-.5 1-.9 1.9-.9 3.5 0 1.2.7 3.2.9 4.4.6 1.3-.3 2.6-.3 3 .1.4.4 2.6.8 4.9.9 5.3.2 12.1 2 15.3 4.1 2.2 1.4 3 1.4 6.6.2 2.2-.7 4.6-1.8 5.2-2.4 2.2-2.2 6.4-2.6 7.5-.8.7 1.4 1.2 1.5 2.3.5 1.2-.9 1.9-.7 3.8 1.3 1.3 1.4 2.8 2.5 3.5 2.5.6 0 3.5 1.6 6.5 3.5 4.5 2.9 6.1 3.5 8.9 3 2.3-.4 3.8-.2 5 .9 2.8 2.6 11.6 6.7 11.9 5.6.2-.6 1.5-.4 3.2.5 2 1 3 1.1 3.2.3.3-.7 1.2-.5 2.6.8 2.6 2.2 2.9 3.6.5 2.7-1.3-.4-1.5-.3-.8.5.8.8 2.1.9 4.8.1 3.6-1 4.5-2 6.1-7.2.5-1.5.9-1.6 2.8-.6 1.3.7 2.8 1.9 3.5 2.8 1 1.4 1.2 1.4 1.8-.1.4-1 1.2-1.5 1.7-1.2.5.4 2.2-.3 3.7-1.4 2.3-1.7 4.4-2 8.4-1.3.4 0 .2.9-.4 2-1.7 2.6 1.7 9.6 5.4 11.2 1.5.6 3.2 1.9 3.7 2.8.8 1.4 1.2 1.4 3 .3 3.1-1.9 9.4.2 8.7 2.9-.3 1 .1 2.3.9 3 .8.6 1.1 2.1.8 3.3-.4 1.7-.1 2.2 1.5 2.2 1.2 0 2.1-.4 2.1-.8s1.5-.8 3.4-.8 4.6-.4 6.1-1c2-.7 3.4-.6 5.6.5 3.2 1.7 4.6 1.3 10.7-3.3 2.8-2.1 3.6-2.3 5.7-1.4 2.2 1 2.5.9 2.5-.7 0-1.3.9-2 3.3-2.4 2.8-.5 8.2-.2 8.2.4 0 .1 3.7.3 8.3.3 7.3.2 8.2 0 8.2-1.6 0-1 .7-1.8 1.5-1.8 1.8 0 1.9-1.4.3-3.2-.7-.7-1.9-2.4-2.6-3.9-1.7-3.3-6.8-5.4-8-3.2-.8 1.3-1 1.3-2.3-.1-3-3.3-3.9-4.5-3.9-5.4 0-.5-1-.7-2.3-.5-1.7.3-2.6-.2-3.5-2.1-1-2.2-.8-2.6.8-3.1 1.1-.4 2.4-.3 3 0 1.3.8 1.3.2-.1-2.9-1.1-2.3-.7-2.9 4.2-8 7-7.1 8.9-9.4 8.9-10.6 0-1.6.9-1.2 3.4 1.5s6.6 3 6.6.4c0-.9-.7-2.2-1.5-2.9-1.1-.9-1.2-1.5-.5-2 .7-.4.6-1.8-.5-4.4-.9-2-1.3-4.1-1.1-4.5.3-.4-.1-1.7-.9-2.7-.8-1-1.5-2.5-1.5-3.3 0-.8-.7-2.2-1.6-3.2-1.3-1.4-1.4-2.4-.7-4.6.6-1.6.6-4.1.1-5.8-.4-1.7-.6-3.6-.3-4.3.7-2-2.4-2.6-4.3-.9-2.8 2.5-4.3.3-4.4-6 0-1.3-.8-2.5-1.9-2.8-2.1-.7-5.4-5.7-6.4-9.8-.4-1.5-1.6-3.2-2.6-3.8-1.1-.5-1.9-1.6-1.9-2.4 0-.8-.9-2-2-2.7-1.4-.9-2-2.4-2-4.8 0-1.9-.7-4.4-1.5-5.4-2.1-2.8-1.9-4.2.3-2.3 2.4 2.2 4.7 2.1 10.1-.3l4.4-2 2.4 2.2c1.2 1.2 2.3 1.6 2.3 1 0-.6-.4-1.3-.9-1.6-.5-.4-.5-1.8.2-3.6 1-2.6.8-3.2-1.2-5.4l-2.3-2.4 2.4-.7c4.1-1.3 5.9-3.6 5.3-6.6-.5-2.2-.2-2.9 1.4-3.4 1.9-.6 1.9-.8.6-2.1-1.9-1.9-1.9-3.3 0-4 .8-.4 1.5-1.8 1.5-3.3 0-1.4.9-3.9 1.9-5.5 1.5-2.2 1.7-3.4 1-4.9-.8-1.3-.6-2.8.5-5.2.9-1.8 1.6-4 1.6-4.8 0-.8.7-2 1.5-2.7 1.2-1 1.3-1.6.4-2.6-.9-1.1-.8-2.2.1-4.4.7-1.6 1-3.9.7-5-.4-1.4.3-2.9 2-4.6 2.2-2.2 2.5-3.2 2-7.7-.3-4-.1-5.5 1.4-7.1 3-3.1 2.3-3.6-3.8-3.1-9 .9-12.7.6-15.2-.9-.6-.4-2.3-.1-3.6.8-2.9 1.9-5.7 2-7.3.4-1-1-1.4-1-2.1 0-.6.9-2.2 1.1-5.7.7-3.3-.4-6.3-.1-9.2.9-3.2 1.1-4.9 1.3-7 .5-1.5-.6-4.2-.7-6.1-.4-2.8.5-3.8.2-6.2-2.1-2.3-2.2-3.8-2.8-6.7-2.6-7.8.3-9.9.7-9.6 1.7.3.6-.8 1.2-2.3 1.3-1.5.1-3.1.9-3.6 1.7-1.1 2-3.1 1.9-2.3 0 .5-1.4-.4-1.9-3.1-1.6-.6.1-1.4-.3-1.8-.9-.5-.8-1.1-.8-2.1 0-1 .9-2.5.8-6.1-.3-7.9-2.5-9.2-2.6-12.4-1-1.6.8-3.6 1.2-4.4.9-1-.4-1.5.1-1.5 1.5 0 1.1-.5 2.9-1.1 4.1-1 1.9-1.3 1.8-4.9-2-2.9-3-5-4.2-8.2-4.7-2.4-.4-5.1-1.2-6.1-1.7-1.6-.8-1.8-.7-1.2 1.2.5 1.5.4 2-.4 1.6-.6-.4-2-.2-3.2.4-1.5.9-2.4.9-3.2.1-.6-.6-1.9-1.1-2.9-1.1s-2.1-.7-2.4-1.5c-.4-.9-1.9-1.5-4-1.5-2.4 0-3.4-.5-3.4-1.6 0-.8-.5-1.2-1-.9-1.8 1.1.9 4.7 3 4 2.3-.7 3.6 1.1 2 3-.9 1.1-1.6 1.2-3 .2-1.1-.6-2.3-.8-2.7-.4-.4.5-.1 1.2.6 1.7.9.5 1.1 1.4.6 2.6-.5 1.1-.7 2.2-.7 2.6.1.5-.5.8-1.3.8-1.1 0-1.5-1.1-1.5-4 0-3-.5-4.2-2.1-5-1.1-.7-2.3-.9-2.6-.6-1 1-3.3-1.6-4.9-5.2-1-2.5-1.8-3.2-2.5-2.5-.7.7-2.6.3-6.2-1.7-2.9-1.5-5.8-2.5-6.5-2.2-.7.2-2.4-.6-3.7-1.8-2.6-2.5-3.1-2.1-3.7 3-.2 1.6-.9 2.5-2 2.4-1.4-.1-1.5.2-.5 1.7.7 1.1 1.6 1.9 2 1.9.5 0 .6 1.2.3 2.7-.4 1.4-.2 3.9.4 5.4.7 1.6.8 3.4.3 4.2-.9 1.7-13.8 8.7-15.9 8.7-.8 0-1.4.9-1.4 2 0 2.3-6.4 6.7-11 7.7-1.7.3-3 1.2-3 1.9 0 1.6-5.8 6-7.4 5.6-4.3-1.4-13.9-2-16.1-1.2-1.8.7-3.3.7-4.6 0-1.5-.8-1.9-.7-1.9.5 0 2-7.8 2.1-10.5.2-1.5-1.2-2.1-1.1-3.7.5-1.3 1.3-2.5 1.7-3.6 1.2-.9-.4-3.9-.9-6.7-1.2-4-.3-5.5-1-7.5-3.3-2.5-2.8-9.1-5.5-7.6-3 .4.6.3 1.1-.3 1.1-.5 0-1.3-.5-1.6-1-.4-.6-1.1-.7-1.7-.4-.5.4-2.1.1-3.4-.7-2-1-2.8-1-4.9.1-2 1.1-2.7 1.1-4 0-1.3-1.1-1.9-1.1-3.2.2-1.2 1.3-2.2 1.4-4.5.6-1.6-.6-3.2-.8-3.5-.4-.3.3-2.2-.4-4.1-1.6-1.9-1.1-4.6-2.2-6.1-2.3-4.7-.3-5.1-.5-5.1-1.8 0-.7-.9-1.8-1.9-2.4-1.6-1-3-.9-7.5.6-5.9 1.9-7.6 1.4-7.6-2.3 0-1-2.1-4.3-4.7-7.1-2.7-2.9-5.4-6-6.1-6.9-1.4-1.8-3.2-2.1-3.2-.6s-2.1 1.2-5.5-.6c-8.5-4.7-12.6-6.3-17.8-6.9l-5.7-.7v3c0 2.9-.4 3.2-5.2 4.7-3.6 1-5.5 1.2-6.4.4-.9-.7-1.9-.7-3.5.1-1.1.7-3.5 1-5.3.7-1.8-.2-4 .2-5.3 1-1.3.9-4.2 1.6-6.5 1.7-9.8.5-9.1.2-8.4 4.6.6 3.7.5 4-1.8 4-1.3 0-2.6.7-3 1.5-.4 1-1.4 1.3-3.6.9-1.9-.4-3-.2-3 .5 0 1.5-4.9 1.4-8.1-.3-4.7-2.4-9.8-2.9-12.6-1.1-1.3.9-2.7 1.4-3.1 1.1-.3-.3-1.3.1-2.3 1-1.5 1.4-2 1.3-5.5-.5-2.1-1.2-4.7-1.8-5.7-1.5-1 .3-2.5 0-3.3-.7-1.2-1-2-.6-4.4 2.1-2.3 2.6-2.7 3.6-1.9 4.7.9.9.8 1.3 0 1.3-.6 0-2.4 1.3-3.9 2.9-1.6 1.7-4.1 3.1-6.2 3.4-1.9.3-2.9.3-2.2 0 1.4-.6 1.7-7.3.2-7.3-1.1 0-.1-3.2 1.4-4.2 1.4-.9-.8-3.2-3.2-3.4-5.9-.3-6.4-.5-5.9-1.8.3-.7-.3-2.7-1.3-4.4-1.4-2.2-1.6-3.2-.7-3.6 1.1-.4-2.6-1-4.9-.7-1.7.2-2.9-1.9-4.3-6.9s-1.7-10.7-.8-11.7c.4-.3.2-1.3-.5-2-.6-.8-1.1-3.6-.9-6.3.3-5.4-1-8.6-3.7-9.4-1-.4-1.9-1.2-2-1.9 0-.6-.4-3.2-.8-5.6-.7-4.2-.6-4.4 1.4-3.9 1.6.5 2.2.2 2.2-1.1 0-1.4-1-1.7-5.7-1.6-4.3.1-6.3-.3-7.5-1.6-.9-.9-3.7-2.5-6.2-3.4-4.2-1.6-4.8-1.6-7-.2-2.1 1.4-2.6 1.4-3.6.2-2.1-2.5-3.5-1.7-3.6 2.2zm-122 162.5c-.6 2-.5 2.1 1 .9 1.4-1.2 1.6-1.2 1 .3-.8 2-1.8 2-3.4.1-1.2-1.5-.6-3.5 1.1-3.5.6 0 .7.9.3 2.2zm208.5 63c1.3.8 1.6 1.6 1.1 2.7-.5.9-1.2 2.9-1.7 4.6-.7 3-.7 3-1.1-1-.2-2.2-.8-4.4-1.3-5-2.3-2.4-.2-3.3 3-1.3z"/><path d="M494.419 91.267c0 .2.8 1 1.8 1.7 1.5 1.3 1.6 1.2.3-.4s-2.1-2.1-2.1-1.3zM103.419 93.467c0 .8.5 1.2 1 .9.6-.4.8-1.1.5-1.6-.9-1.4-1.5-1.1-1.5.7zM696.219 276.267c-2.2 1.6-2.4 3.8-.3 3 .8-.3 1.3-1.1 1.2-1.7-.1-.7.4-1.1 1.1-.9.8.1 1.1-.2.7-.8-.8-1.2-.6-1.2-2.7.4zM210.119 304.567c-1.6 1.5-.6 3.3 1.8 3.3 2.3 0 2.4-.2 1.5-2-1.1-2.1-2.2-2.5-3.3-1.3zM566.419 313.467c0 .8.5 1.2 1 .9.6-.4.8-1.1.5-1.6-.9-1.4-1.5-1.1-1.5.7zM629.019 329.367c.4.8 1 1.2 1.5.9 1.1-.6.2-2.4-1.1-2.4-.5 0-.7.7-.4 1.5z"/></g></svg>