<?xml version="1.0" standalone="no"?>
<!DOCTYPE svg PUBLIC "-//W3C//DTD SVG 20010904//EN"
 "http://www.w3.org/TR/2001/REC-SVG-20010904/DTD/svg10.dtd">
<svg version="1.0" xmlns="http://www.w3.org/2000/svg"
 width="277.392543pt" height="439.066994pt" viewBox="0 0 277.392543 439.066994"
 preserveAspectRatio="xMidYMid meet">
<metadata>
Created by potrace 1.15, written by Peter Selinger 2001-2017
</metadata>
<g transform="translate(-926.107457,1234.385554) scale(0.100000,-0.100000)"
fill="#222222" stroke="none">
<path d="M11063 12323 c-9 -13 -25 -23 -38 -23 -13 0 -25 -7 -29 -15 -4 -12
-16 -14 -47 -10 -22 3 -45 7 -49 10 -5 3 -12 0 -15 -6 -4 -5 -13 -8 -21 -5 -8
3 -14 -1 -14 -10 0 -11 -4 -12 -19 -5 -14 8 -20 7 -24 -2 -3 -9 -19 -12 -45
-10 -32 2 -42 -1 -46 -15 -5 -14 -21 -17 -103 -19 -123 -3 -169 -13 -165 -36
4 -23 -33 -74 -58 -82 -11 -4 -20 -15 -20 -26 0 -21 -10 -26 -105 -54 -33 -10
-64 -22 -69 -26 -5 -4 -15 -5 -22 -2 -8 3 -14 0 -14 -5 0 -6 -13 -19 -29 -28
-17 -10 -28 -21 -25 -26 8 -13 -15 -46 -36 -53 -11 -3 -20 -13 -20 -21 0 -8
-6 -14 -12 -13 -39 5 -67 -2 -62 -15 11 -29 -15 -25 -28 4 -16 38 -32 34 -36
-9 -2 -23 -10 -35 -24 -39 -17 -4 -20 -11 -15 -47 5 -47 -8 -65 -59 -82 -37
-12 -56 -66 -31 -90 15 -15 18 -15 35 0 24 22 60 24 42 2 -7 -8 -10 -21 -7
-29 3 -7 1 -18 -5 -24 -6 -6 -6 -12 2 -17 8 -5 0 -14 -20 -27 -30 -18 -32 -22
-26 -57 5 -32 2 -43 -18 -62 -13 -14 -45 -30 -70 -37 -29 -7 -46 -18 -46 -27
0 -15 -88 -65 -115 -65 -8 0 -30 -8 -49 -18 -24 -13 -32 -23 -26 -32 13 -21 0
-40 -27 -40 -17 0 -23 -4 -20 -14 4 -10 -6 -16 -34 -20 -35 -6 -39 -9 -33 -30
4 -19 0 -25 -26 -36 -37 -15 -45 -27 -31 -44 8 -9 5 -18 -10 -34 -11 -12 -25
-22 -31 -22 -9 0 -9 -3 -1 -11 7 -7 8 -20 3 -34 -10 -26 4 -45 32 -45 23 0 43
-37 29 -54 -5 -6 -13 -41 -17 -77 -5 -54 -3 -68 11 -82 9 -9 23 -17 31 -17 8
0 14 -10 14 -26 0 -22 2 -24 15 -14 12 10 25 5 74 -27 36 -23 64 -49 70 -65 5
-16 15 -28 21 -28 6 0 8 -4 5 -10 -8 -14 5 -80 17 -80 5 0 27 -19 48 -42 40
-41 52 -82 30 -104 -15 -15 11 -65 31 -59 8 3 24 -1 34 -9 17 -12 17 -16 6
-30 -19 -22 1 -45 22 -27 8 6 22 9 31 5 13 -5 15 -2 9 12 -6 18 -6 18 14 2 11
-10 27 -18 37 -18 28 0 73 -28 94 -57 l20 -28 120 1 c111 1 122 0 140 -20 34
-37 83 -226 59 -226 -5 0 -7 -15 -4 -35 9 -57 -2 -99 -33 -120 -25 -17 -27
-22 -18 -52 10 -37 5 -53 -18 -53 -8 0 -14 -4 -14 -10 0 -5 -14 -10 -31 -10
-24 0 -30 -3 -25 -16 7 -19 -27 -71 -54 -79 -11 -3 -30 1 -45 11 -25 16 -25
16 -25 -9 0 -31 -6 -35 -54 -39 -39 -2 -54 -12 -36 -23 5 -3 10 -17 10 -31 0
-28 -23 -32 -46 -9 -21 20 -34 19 -34 -3 0 -11 -9 -27 -20 -37 -11 -10 -20
-26 -20 -37 0 -21 -4 -22 -33 -7 -12 7 -19 8 -15 4 4 -4 2 -17 -4 -29 -6 -11
-12 -52 -12 -91 -1 -62 -3 -70 -21 -73 -55 -8 -65 -13 -65 -32 0 -11 5 -20 10
-20 6 0 10 -5 10 -11 0 -5 -4 -8 -9 -4 -5 3 -12 -4 -16 -15 -5 -15 -12 -19
-29 -14 -24 6 -33 -7 -57 -78 -10 -30 -10 -41 -1 -50 16 -16 15 -29 0 -25 -10
1 -12 -17 -11 -71 2 -60 6 -76 23 -90 15 -12 21 -30 23 -67 l2 -50 43 2 c38 2
42 0 42 -22 0 -13 4 -26 9 -29 5 -3 7 -16 3 -28 -3 -13 -1 -19 5 -15 11 7 50
-85 51 -120 0 -14 -5 -23 -14 -23 -12 0 -12 -4 -4 -20 8 -16 8 -20 -3 -20 -8
0 -17 -8 -20 -17 -4 -10 -14 -28 -23 -40 -16 -22 -16 -22 20 -21 19 1 37 7 40
15 13 32 23 10 15 -32 -11 -57 3 -99 31 -92 10 3 27 -1 37 -8 10 -7 37 -16 60
-20 34 -5 44 -4 49 9 3 8 19 18 35 21 16 4 31 11 34 16 4 5 16 9 29 9 24 0 66
38 66 59 0 10 3 11 13 3 10 -8 13 -6 14 9 1 14 -3 19 -12 15 -8 -3 -25 8 -39
27 -24 30 -24 33 -8 50 10 11 25 17 39 14 13 -2 23 0 23 5 0 6 8 7 17 4 9 -4
20 -1 24 6 6 9 11 9 23 -1 9 -8 23 -10 33 -6 10 5 21 7 25 7 4 -1 10 9 14 23
6 25 28 33 39 15 11 -17 24 -11 31 14 4 17 14 26 32 28 20 2 28 11 34 36 7 27
12 31 23 22 18 -15 68 -5 88 18 9 9 19 29 22 45 5 20 13 27 31 27 23 0 28 11
27 58 -1 6 5 12 13 12 19 0 18 10 -3 25 -11 8 -17 25 -16 51 1 20 -6 48 -14
60 -8 13 -12 27 -9 33 4 5 1 31 -6 56 -11 41 -11 48 4 59 11 8 14 17 7 27 -5
8 -9 21 -9 29 1 13 2 13 13 -1 7 -9 24 -18 40 -21 22 -4 27 -2 27 13 0 23 8
24 47 4 38 -19 113 -26 152 -15 21 6 33 4 41 -5 16 -19 58 -25 64 -9 7 18 34
7 41 -17 4 -11 11 -16 17 -13 6 4 8 2 4 -4 -6 -11 -59 -9 -87 2 -10 5 -19 1
-22 -8 -4 -9 -13 -16 -21 -16 -25 0 -58 -69 -55 -118 3 -39 0 -46 -24 -58 -29
-16 -31 -21 -18 -43 13 -20 2 -41 -20 -41 -14 0 -19 -7 -19 -30 0 -19 -5 -30
-14 -30 -8 0 -18 -5 -22 -12 -4 -6 -3 -8 3 -5 6 4 16 0 23 -8 13 -16 0 -35
-32 -48 -26 -9 -22 -36 7 -43 21 -5 23 -9 14 -26 -6 -11 -9 -22 -6 -24 8 -9
37 8 37 22 0 8 8 14 18 14 18 1 55 24 48 31 -2 2 12 5 31 6 19 1 44 10 55 20
11 10 28 17 37 15 9 -1 27 7 39 19 13 11 26 18 30 15 3 -4 11 3 18 15 9 18 22
23 58 25 26 1 49 4 53 7 7 8 25 140 27 200 1 40 4 47 21 47 12 0 37 -9 58 -19
27 -14 37 -15 37 -6 0 15 27 28 41 19 5 -3 9 2 9 10 0 12 11 16 48 16 50 1 82
17 82 42 0 9 9 18 21 21 19 5 20 10 14 58 -5 36 -4 50 4 45 6 -4 21 -1 33 6
13 7 26 11 31 10 4 -1 7 7 7 17 0 11 5 23 10 26 15 9 40 -14 40 -36 0 -14 7
-19 30 -19 22 0 30 5 30 18 0 10 -5 23 -12 30 -18 18 0 28 23 13 24 -14 39 -7
21 11 -18 18 -15 85 3 92 10 3 15 19 15 46 0 26 5 43 14 46 16 6 11 30 -7 37
-7 2 0 3 15 1 23 -3 30 3 48 41 12 25 28 45 36 45 8 0 14 8 14 18 0 10 7 28
16 41 14 20 22 22 55 17 36 -6 39 -4 45 20 4 15 21 39 38 55 l31 28 -30 31
c-38 40 -81 63 -105 55 -17 -5 -19 -1 -16 55 2 33 6 63 9 66 6 6 -21 50 -56
91 -18 21 -18 41 -1 104 2 9 -6 27 -18 41 -13 14 -28 34 -34 44 -6 10 -21 21
-35 24 -28 8 -99 76 -99 95 0 8 4 16 10 20 5 3 -2 22 -15 42 -14 20 -26 48
-26 62 -1 14 -3 38 -5 54 -3 26 -1 27 42 27 24 0 44 5 44 10 0 6 9 10 20 10
25 0 37 25 34 72 -1 22 4 42 12 49 19 16 18 38 -6 84 -13 24 -19 51 -16 67 5
26 5 26 -50 24 -55 -2 -55 -2 -100 51 -32 37 -53 53 -70 53 -14 0 -27 7 -31
18 -10 25 -34 41 -64 42 -15 0 -30 7 -33 16 -9 24 -25 7 -21 -24 2 -15 -1 -48
-6 -73 -10 -47 -35 -69 -78 -69 -9 0 -26 -6 -36 -14 -16 -12 -17 -16 -6 -30
17 -21 6 -90 -13 -83 -9 4 -12 0 -9 -11 2 -9 -3 -26 -11 -37 -15 -20 -15 -19
-16 6 0 42 -34 77 -71 75 -20 -2 -47 8 -76 27 -32 19 -53 27 -69 23 -18 -5
-24 -2 -24 9 0 11 -4 13 -12 8 -27 -16 -77 -10 -105 13 -15 13 -23 23 -17 24
8 0 9 11 5 33 -5 23 -3 36 8 45 9 8 10 11 4 7 -7 -3 -22 -1 -33 5 -20 11 -30
-3 -10 -15 6 -4 8 -10 5 -15 -3 -5 -1 -19 6 -31 8 -16 8 -23 -1 -29 -8 -5 -9
-17 -2 -41 8 -32 7 -34 -15 -35 -13 -1 -30 -10 -37 -19 -9 -13 -15 -15 -20 -6
-4 6 -12 9 -17 6 -5 -4 -9 11 -9 32 0 21 -7 49 -16 61 -17 25 -49 31 -40 7 3
-8 3 -15 0 -15 -3 0 -12 7 -20 15 -14 13 -14 17 0 31 9 8 14 20 11 25 -4 5 -1
9 4 9 6 0 11 9 11 20 0 34 42 85 68 82 17 -3 22 2 22 17 0 12 6 21 14 21 23 0
46 83 39 142 l-6 51 33 -6 c26 -6 36 -3 47 12 10 14 30 22 72 27 55 6 59 8 65
36 6 31 20 34 69 13 12 -5 17 -2 17 9 0 14 4 15 20 6 14 -8 29 -7 56 5 20 8
47 15 61 15 l24 0 -21 30 c-20 29 -16 42 7 19 16 -16 63 0 63 22 0 12 7 19 19
19 11 0 23 5 27 12 5 8 2 9 -9 5 -11 -4 -17 -1 -17 8 0 19 -23 19 -60 0 -53
-27 -176 1 -154 36 2 4 -5 13 -16 19 -29 15 -25 27 10 27 18 0 40 9 56 24 25
24 57 27 81 8 7 -6 12 -6 15 1 5 16 48 -18 48 -39 0 -21 66 -56 99 -53 28 4
71 30 89 54 12 16 15 16 42 -12 16 -17 31 -30 32 -30 2 0 3 17 2 37 -2 24 4
41 14 50 14 10 14 12 3 13 -12 0 -12 3 -3 12 7 7 12 21 12 31 0 13 5 17 15 13
11 -4 15 1 15 19 0 18 4 23 15 19 9 -4 30 7 50 25 38 33 55 39 56 19 0 -7 5
-3 11 10 9 17 8 26 -1 35 -9 9 -13 9 -19 0 -14 -22 -82 -45 -97 -33 -10 8 -23
4 -51 -15 -21 -14 -46 -24 -55 -22 -11 3 -19 -2 -22 -14 -4 -16 -9 -17 -37 -8
-17 7 -34 18 -37 25 -3 8 -13 14 -24 14 -10 0 -23 9 -29 20 -6 11 -15 18 -20
15 -5 -3 -20 -1 -32 6 -13 6 -20 8 -16 5 6 -8 -13 -36 -44 -65 -10 -8 -18 -21
-18 -28 0 -17 -15 -17 -29 0 -8 11 -6 18 9 32 18 16 19 20 5 27 -8 5 -15 15
-15 23 0 7 -9 16 -19 20 -11 3 -22 14 -25 23 -3 9 -22 28 -41 41 -32 22 -48
61 -25 61 16 0 12 43 -9 83 -10 20 -15 37 -10 37 5 0 9 17 9 39 0 29 -6 42
-22 54 -20 13 -21 18 -10 34 7 10 15 26 18 36 4 9 11 17 16 17 6 0 8 7 4 15
-3 9 0 15 9 15 17 0 28 31 19 54 -6 16 -8 16 -25 0 -11 -10 -22 -15 -25 -11
-8 8 35 49 46 42 5 -3 10 5 12 17 2 19 10 23 38 24 65 2 70 4 80 29 5 13 20
27 34 31 13 3 32 14 42 25 9 10 23 19 31 19 7 0 13 7 13 15 0 14 -10 15 -61 9
-53 -6 -64 -4 -89 15 -22 16 -47 22 -96 24 -60 3 -68 0 -81 -20z m14 -900 c9
-21 19 -41 21 -45 6 -12 -11 -9 -31 6 -21 16 -34 76 -18 76 6 0 18 -17 28 -37z
m-327 -938 c0 -8 -9 -15 -19 -15 -14 0 -18 7 -17 24 1 20 4 22 19 15 9 -5 17
-16 17 -24z m40 -36 c0 -6 -4 -7 -10 -4 -5 3 -10 11 -10 16 0 6 5 7 10 4 6 -3
10 -11 10 -16z m-750 -2259 c0 -5 -4 -10 -10 -10 -5 0 -10 5 -10 10 0 6 5 10
10 10 6 0 10 -4 10 -10z"/>
<path d="M11160 11320 c-9 -16 -8 -20 5 -20 8 0 15 9 15 20 0 11 -2 20 -5 20
-2 0 -9 -9 -15 -20z"/>
<path d="M11390 11057 c0 -10 8 -17 18 -17 9 0 13 4 7 8 -5 4 -13 11 -17 16
-5 5 -8 2 -8 -7z"/>
<path d="M11348 10999 c-25 -14 -22 -26 12 -44 37 -19 62 -19 36 0 -12 9 -17
22 -13 35 6 22 -7 26 -35 9z"/>
<path d="M11360 10929 c0 -5 5 -7 10 -4 6 3 10 8 10 11 0 2 -4 4 -10 4 -5 0
-10 -5 -10 -11z"/>
<path d="M11027 10913 c-11 -10 -8 -43 3 -43 6 0 10 4 10 9 0 5 3 16 6 25 6
16 -7 22 -19 9z"/>
<path d="M11312 10899 c-15 -12 -21 -23 -16 -31 9 -13 14 -33 16 -56 1 -7 8
-10 15 -7 8 3 17 5 19 5 7 0 4 84 -4 97 -5 8 -14 6 -30 -8z"/>
<path d="M11104 10886 c36 -32 38 -32 27 -3 -5 13 -18 23 -32 25 -24 3 -23 3
5 -22z"/>
<path d="M11176 10893 c-3 -3 1 -11 7 -18 12 -13 37 -9 37 5 0 9 -37 20 -44
13z"/>
<path d="M10750 10749 c0 -6 -9 -9 -20 -6 -24 6 -26 -6 -4 -28 15 -15 17 -14
30 11 17 31 17 34 4 34 -5 0 -10 -5 -10 -11z"/>
<path d="M10626 8537 c-12 -9 -17 -20 -13 -31 4 -9 2 -16 -4 -16 -6 0 -7 -4
-4 -10 3 -5 -5 -15 -19 -22 -14 -6 -26 -17 -26 -24 0 -22 -64 -78 -93 -81 -39
-4 -62 -18 -87 -53 -12 -16 -27 -30 -33 -30 -15 0 -49 -75 -45 -98 2 -10 -4
-17 -12 -17 -8 0 -21 -8 -28 -17 -7 -10 -22 -18 -33 -18 -10 0 -19 -5 -19 -11
0 -7 -12 -10 -30 -7 -27 4 -35 -2 -31 -24 0 -5 -4 -8 -9 -8 -6 0 -5 -9 2 -21
10 -17 10 -23 1 -26 -7 -3 -13 -11 -13 -19 0 -8 -7 -14 -17 -14 -25 0 -12 -7
29 -14 31 -6 37 -4 43 13 3 10 11 18 18 17 23 -4 75 -36 80 -48 3 -8 6 -6 6 5
1 10 6 15 11 12 14 -9 12 8 -2 24 -11 11 -9 12 7 3 27 -14 58 8 48 33 -4 11
-3 16 4 12 6 -4 8 11 5 43 -4 48 9 69 22 35 3 -8 10 -15 17 -15 14 0 48 -41
49 -57 0 -7 7 -13 16 -13 11 0 14 6 9 20 -4 11 -2 20 4 20 6 0 19 10 31 22 18
20 19 23 4 39 -9 10 -13 26 -10 37 4 13 1 22 -9 26 -8 3 -15 14 -15 24 0 10
-5 23 -12 30 -9 9 -7 12 11 12 13 0 35 9 49 21 15 11 49 36 76 55 27 19 44 34
37 34 -7 0 -9 5 -6 10 4 6 10 8 15 5 5 -3 17 6 26 20 13 20 14 28 4 40 -10 12
-9 15 4 15 16 0 16 2 2 15 -8 8 -20 15 -26 15 -6 0 -9 3 -7 8 3 4 2 15 -2 25
-6 15 -9 16 -25 4z"/>
</g>
</svg>
