<?xml version="1.0" standalone="no"?>
<!DOCTYPE svg PUBLIC "-//W3C//DTD SVG 20010904//EN"
 "http://www.w3.org/TR/2001/REC-SVG-20010904/DTD/svg10.dtd">
<svg version="1.0" xmlns="http://www.w3.org/2000/svg"
 width="1065.498680pt" height="435.913208pt" viewBox="0 0 1065.498680 435.913208"
 preserveAspectRatio="xMidYMid meet">
<metadata>
Created by potrace 1.15, written by Peter Selinger 2001-2017
</metadata>
<g transform="translate(-529.283158,1216.900272) scale(0.100000,-0.100000)"
fill="#222222" stroke="none">
<path d="M5511 12159 c-18 -7 -21 -12 -12 -23 8 -10 6 -19 -9 -39 -18 -22 -18
-27 -6 -34 29 -16 20 -126 -11 -137 -12 -5 -13 -9 -3 -21 9 -11 10 -39 5 -104
-6 -74 -10 -91 -25 -96 -10 -3 -22 -4 -27 -3 -5 2 -22 -8 -38 -22 -41 -35 -45
-98 -9 -182 14 -33 23 -66 20 -73 -2 -7 0 -17 5 -22 10 -10 -16 -87 -38 -114
-7 -9 -11 -23 -7 -32 8 -22 68 -41 90 -29 21 12 54 4 48 -11 -2 -7 14 -31 35
-55 39 -42 41 -43 67 -29 33 18 74 4 74 -24 0 -10 5 -21 10 -24 6 -3 10 -2 10
4 0 5 12 9 28 8 15 -1 27 -8 27 -14 0 -6 3 -15 7 -18 4 -4 5 4 2 18 -2 14 0
29 6 32 5 3 10 20 10 36 0 29 0 29 -25 13 -14 -9 -28 -14 -32 -10 -3 3 -1 6 6
6 7 0 9 5 6 10 -4 6 -10 8 -14 6 -4 -3 -8 2 -8 10 0 9 6 13 15 9 9 -3 19 0 24
7 13 22 9 29 -11 16 -27 -17 -51 5 -51 46 0 35 -15 56 -41 56 -9 0 -22 7 -30
16 -7 8 -21 13 -31 11 -13 -4 -18 0 -18 13 0 11 5 22 10 25 7 4 7 13 0 26 -6
10 -8 19 -4 19 3 0 1 7 -6 15 -7 9 -10 19 -6 22 4 4 10 3 14 -3 12 -17 42 -25
42 -10 0 20 37 49 55 43 10 -4 15 -1 15 11 0 20 50 45 74 36 14 -5 16 2 16 51
0 42 -5 61 -16 70 -18 12 -28 65 -13 65 23 0 3 107 -21 115 -25 8 -55 74 -41
88 15 15 14 54 -3 60 -7 3 -19 0 -25 -6 -8 -8 -16 -6 -29 6 -10 9 -24 17 -31
17 -7 0 -11 6 -8 15 4 8 2 17 -4 20 -5 4 -7 27 -3 57 9 64 -9 80 -65 57z m24
-100 c11 -17 -1 -21 -15 -4 -8 9 -8 15 -2 15 6 0 14 -5 17 -11z"/>
<path d="M5322 12119 c4 -13 62 -33 79 -27 19 7 -10 29 -46 35 -29 5 -37 3
-33 -8z"/>
<path d="M7797 11681 c4 -16 -1 -21 -34 -26 -21 -4 -41 -7 -46 -8 -4 -1 0 -13
9 -26 23 -32 26 -98 7 -135 -9 -17 -12 -28 -7 -23 13 12 72 -52 67 -73 -7 -27
28 -42 78 -34 41 7 41 7 35 43 -3 20 -10 37 -15 39 -6 2 -7 10 -4 18 3 8 -3
24 -13 36 -11 12 -14 18 -8 15 7 -4 14 0 18 8 3 8 1 15 -4 15 -6 0 -10 9 -10
21 0 14 -5 19 -14 16 -19 -7 -33 32 -16 43 13 8 -7 57 -34 79 -12 10 -14 9 -9
-8z"/>
<path d="M7887 11579 c-3 -12 -3 -27 1 -33 3 -6 7 -27 7 -46 1 -28 10 -44 40
-74 32 -30 35 -36 17 -31 -32 9 -42 -23 -14 -45 l21 -17 -26 -12 c-18 -8 -29
-9 -38 -1 -19 16 -27 -3 -15 -34 8 -23 7 -26 -10 -26 -26 0 -26 -16 0 -23 11
-3 20 -10 20 -16 0 -6 -7 -8 -15 -5 -11 5 -15 -1 -15 -23 0 -16 5 -34 10 -39
8 -8 6 -15 -6 -25 -10 -8 -15 -9 -11 -2 4 6 3 14 -3 18 -16 10 -11 -21 9 -57
19 -33 16 -68 -9 -83 -7 -4 -3 -13 11 -24 19 -15 20 -22 12 -61 -8 -41 -11
-45 -41 -48 -23 -2 -32 1 -32 11 0 12 -4 13 -24 4 -13 -6 -22 -17 -19 -23 2
-7 0 -15 -5 -18 -5 -3 -8 -18 -6 -33 1 -15 -2 -33 -7 -40 -16 -19 -1 -50 26
-57 14 -4 25 -11 25 -17 0 -6 -7 -9 -15 -5 -10 4 -15 -1 -15 -15 0 -12 4 -17
11 -14 6 4 17 -3 26 -14 10 -15 18 -19 27 -12 19 16 96 -23 96 -49 0 -11 7
-23 15 -26 8 -4 15 -17 15 -29 0 -13 5 -27 11 -30 6 -4 8 -14 5 -22 -3 -8 -1
-23 5 -34 5 -11 7 -29 4 -39 -5 -16 -10 -18 -25 -10 -15 8 -18 6 -16 -8 2 -12
13 -17 37 -18 19 -1 41 -4 49 -8 11 -4 16 0 17 14 1 11 -3 20 -8 20 -5 0 -13
10 -18 23 -6 16 -4 24 8 29 29 12 81 8 106 -8 22 -15 25 -15 31 -1 3 9 3 21
-1 27 -3 5 -2 10 4 10 5 0 13 -4 16 -10 12 -19 23 -10 30 23 12 55 23 69 45
57 17 -9 23 -6 38 20 10 16 22 27 26 23 3 -4 13 3 22 15 13 18 25 22 74 22 50
0 58 2 53 16 -7 19 8 30 60 44 20 6 37 15 37 20 0 18 35 11 53 -10 16 -19 16
-21 -3 -40 -25 -25 -25 -32 0 -55 16 -14 18 -26 13 -61 -5 -42 -5 -44 20 -44
18 0 26 -7 31 -24 4 -16 19 -29 44 -39 21 -8 44 -22 51 -31 16 -19 67 -22 73
-4 2 6 15 -1 31 -18 28 -30 35 -22 15 20 -10 23 -8 29 15 50 15 14 27 30 27
36 0 6 5 8 12 3 7 -4 30 -8 50 -9 42 -2 58 -10 58 -28 0 -19 45 -37 59 -23 7
7 11 7 11 1 0 -7 14 -9 38 -5 28 5 38 11 40 29 2 12 7 22 12 22 10 0 24 -39
16 -47 -7 -8 22 -63 34 -63 15 0 50 -38 50 -55 0 -8 -7 -15 -15 -15 -11 0 -14
-11 -13 -40 1 -29 5 -39 14 -36 7 3 16 0 20 -5 3 -6 17 -8 30 -5 13 4 24 2 24
-3 0 -5 9 -13 21 -16 15 -5 19 -13 16 -27 -3 -11 0 -21 9 -25 8 -3 13 -10 12
-17 -4 -20 41 -94 70 -114 19 -14 33 -18 44 -11 13 7 18 3 27 -21 5 -17 17
-33 25 -36 8 -3 12 -12 9 -20 -3 -9 10 -28 36 -50 23 -20 38 -40 35 -45 -3 -6
0 -16 6 -24 10 -12 9 -15 -4 -15 -27 0 -19 -38 12 -54 22 -11 27 -21 27 -52 0
-28 -4 -39 -15 -39 -9 0 -16 -11 -18 -29 -3 -23 0 -28 13 -22 9 3 21 6 26 6 5
0 8 3 8 8 -5 31 2 38 37 34 25 -3 39 -11 46 -28 9 -19 14 -21 25 -12 10 8 19
6 38 -12 14 -13 25 -28 25 -34 1 -15 144 -166 158 -166 15 0 26 -60 13 -73 -8
-8 2 -24 40 -59 29 -26 60 -48 69 -48 10 0 29 -9 43 -20 14 -11 32 -20 41 -20
9 0 16 -5 16 -10 0 -6 11 -15 25 -20 14 -5 25 -17 26 -27 6 -123 9 -134 37
-126 10 2 26 -5 36 -16 11 -12 29 -21 40 -21 12 0 26 -4 31 -8 17 -12 45 -60
45 -77 0 -9 9 -15 23 -15 28 0 39 -8 57 -45 16 -31 37 -33 33 -2 -2 9 2 17 7
17 6 0 10 11 10 25 0 16 -6 25 -15 25 -8 0 -15 8 -15 18 0 24 -34 89 -61 118
l-22 24 36 15 c20 8 46 15 57 15 13 0 20 7 20 19 0 10 7 22 15 25 13 5 14 10
4 27 -8 16 -8 23 1 29 8 5 9 16 5 30 -5 16 -4 20 5 15 9 -5 10 -2 6 13 -5 13
-1 22 10 26 13 5 15 9 6 18 -7 7 -12 25 -12 40 0 15 -4 28 -10 28 -5 0 -10 11
-10 24 0 14 -5 37 -11 52 -15 40 -22 191 -9 199 6 3 7 11 4 17 -11 17 -8 92 4
115 7 12 9 35 5 53 -6 32 -5 32 25 25 28 -6 32 -3 38 19 3 13 12 27 20 30 12
5 11 12 -6 46 -20 39 -20 40 -2 58 10 10 26 21 35 25 10 4 17 17 17 32 0 24 3
26 29 20 29 -6 69 7 82 27 4 6 13 6 25 0 11 -5 31 -15 47 -21 17 -7 27 -18 27
-31 0 -11 6 -21 13 -22 6 0 17 -2 22 -2 6 -1 16 -6 24 -10 10 -6 20 -2 33 14
16 20 21 21 29 9 5 -7 7 -28 5 -46 -3 -26 3 -37 31 -62 21 -19 33 -37 30 -46
-4 -9 -1 -12 7 -9 25 10 2 -81 -32 -121 -29 -36 -30 -40 -16 -66 16 -32 19
-69 4 -69 -5 0 -10 -15 -10 -34 0 -19 -5 -38 -11 -42 -6 -3 -8 -17 -5 -29 3
-13 2 -27 -4 -30 -5 -3 -10 -20 -10 -37 0 -17 -7 -39 -15 -48 -12 -13 -13 -23
-5 -44 5 -15 8 -31 5 -36 -3 -4 2 -13 10 -20 14 -11 14 -15 1 -29 -18 -20 -14
-72 8 -106 15 -23 20 -24 33 -13 13 10 17 10 20 1 3 -7 17 -13 32 -13 14 0 36
-7 48 -15 11 -8 39 -17 62 -21 22 -4 41 -9 42 -13 0 -3 2 -17 3 -30 2 -13 11
-30 22 -38 10 -8 18 -21 16 -29 -2 -8 2 -14 9 -14 6 0 24 -9 39 -20 19 -14 30
-16 32 -8 5 13 49 -30 47 -46 -3 -28 15 -57 32 -53 11 3 19 -2 22 -14 9 -35
117 -15 117 22 0 17 3 18 23 7 12 -6 32 -11 43 -9 12 1 24 -5 28 -14 8 -22 46
-1 46 26 0 16 5 19 23 14 19 -5 20 -5 4 5 -10 7 -16 18 -13 28 3 9 -1 30 -9
46 -20 38 -19 43 5 21 19 -17 21 -17 38 -2 17 16 20 15 52 -18 19 -19 39 -35
46 -35 19 0 53 -48 47 -68 -3 -12 2 -18 16 -19 11 -1 23 2 26 8 4 5 14 9 23 9
12 0 18 9 20 27 3 33 19 53 30 36 7 -10 32 -17 59 -14 17 1 6 30 -24 63 -27
28 -33 80 -15 115 7 13 7 25 -1 38 -10 19 -10 19 15 3 20 -13 28 -14 31 -5 3
6 4 2 4 -10 -1 -13 -7 -23 -14 -23 -9 0 -11 -8 -7 -27 10 -43 13 -45 54 -38
23 4 41 2 44 -4 11 -17 86 -33 123 -26 18 3 31 10 28 16 -4 5 5 9 18 9 21 0
24 -4 19 -26 -3 -18 -1 -25 6 -20 6 4 14 23 18 44 4 20 12 40 18 44 8 5 5 18
-9 43 -34 65 -27 85 15 40 17 -18 27 -22 36 -14 7 6 18 8 23 4 7 -4 8 2 2 17
-7 19 -15 23 -44 21 -25 -2 -40 4 -56 21 -20 21 -21 28 -12 63 7 26 20 44 37
53 16 9 24 20 21 32 -3 9 0 19 7 21 6 3 -9 2 -34 0 -36 -4 -43 -3 -33 7 9 10
9 17 0 34 -21 38 -47 69 -47 57 0 -7 -5 -9 -10 -6 -6 4 -1 14 12 24 21 18 21
19 5 44 -10 16 -13 28 -7 32 6 4 7 11 4 17 -4 6 2 6 15 -1 11 -7 21 -16 21
-21 0 -14 24 -12 56 5 16 8 39 15 51 15 12 0 25 5 28 10 3 6 15 10 26 10 13 0
19 7 19 21 0 17 5 20 25 17 28 -6 33 10 13 42 -9 15 -9 24 1 43 9 18 10 30 3
43 -7 13 -6 21 4 31 7 8 15 12 18 11 2 -2 13 5 25 16 15 14 18 23 11 37 -18
33 -12 42 25 36 19 -3 37 -1 41 4 3 6 20 9 37 7 29 -3 32 0 35 25 2 16 10 31
17 34 8 3 17 21 21 41 11 66 15 74 59 93 29 13 47 29 54 47 9 27 10 27 16 5 4
-13 14 -23 21 -23 18 0 9 49 -12 66 -7 5 -16 23 -20 40 -9 37 -32 64 -56 64
-22 0 -23 -19 -3 -46 31 -41 5 -94 -46 -94 -18 0 -25 -6 -26 -20 -1 -11 4 -20
13 -20 26 0 15 -20 -45 -81 -56 -57 -62 -60 -95 -54 -40 8 -53 20 -58 55 -2
20 2 26 20 28 17 3 22 10 22 33 0 17 -5 39 -10 50 -7 12 -7 19 -1 19 6 0 8 6
5 14 -8 21 15 59 32 52 11 -4 13 1 8 22 -11 50 -14 55 -27 45 -6 -5 -17 -9
-23 -9 -15 1 -88 39 -96 51 -14 19 -8 28 9 14 15 -12 16 -12 10 4 -5 12 -1 19
11 23 9 3 25 10 34 15 10 5 24 9 33 9 11 0 13 8 8 33 -3 17 -10 36 -14 41 -13
14 -11 28 2 20 11 -6 11 1 -5 106 -2 14 -4 30 -5 37 0 7 -15 26 -31 43 -27 27
-31 29 -36 13 -15 -49 -26 -64 -61 -86 -37 -23 -71 -56 -65 -64 1 -1 2 -12 2
-23 0 -16 -7 -20 -30 -20 -20 0 -30 -5 -30 -15 0 -13 -30 -14 -76 0 -6 2 -17
-5 -24 -15 -11 -15 -18 -17 -34 -8 -16 9 -23 7 -38 -11 -9 -13 -22 -20 -27
-16 -6 3 -24 -1 -41 -10 -24 -13 -29 -20 -24 -39 5 -20 1 -24 -26 -28 -20 -3
-34 0 -39 9 -4 8 -17 20 -28 26 -11 7 -33 21 -48 31 -20 15 -29 16 -34 7 -5
-7 -16 -11 -27 -9 -12 2 -20 -4 -22 -17 -7 -33 -21 -44 -49 -36 -27 7 -47 34
-21 29 8 -2 14 8 16 24 2 20 -5 32 -31 52 -41 31 -48 32 -65 5 -12 -18 -20
-20 -53 -15 -27 4 -49 1 -71 -10 -22 -11 -43 -14 -74 -9 -31 4 -45 2 -51 -8
-15 -26 -47 -37 -63 -22 -13 11 -19 11 -38 -5 -15 -12 -19 -21 -11 -26 7 -4 2
-15 -16 -30 -16 -13 -32 -24 -36 -24 -4 0 -12 -15 -18 -33 -10 -30 -15 -33
-48 -32 -27 1 -37 -4 -41 -17 -5 -21 -7 -22 -35 -6 -12 6 -33 12 -47 14 -14 1
-29 3 -35 3 -5 1 1 10 15 20 24 19 24 20 7 39 -18 19 -57 20 -57 1 0 -5 -10
-9 -22 -9 -16 0 -28 -11 -39 -33 -13 -25 -22 -32 -43 -30 -17 1 -26 -3 -26
-13 0 -19 -49 -18 -77 1 -14 10 -24 12 -28 5 -10 -15 -28 -12 -22 4 3 8 1 31
-4 50 -7 26 -16 36 -29 36 -11 0 -20 7 -20 15 0 8 -4 15 -9 15 -5 0 -11 10
-13 22 -5 34 -72 66 -132 63 -40 -2 -57 2 -82 21 l-31 24 13 -50 c7 -27 20
-60 28 -72 9 -12 16 -30 16 -40 0 -10 5 -18 10 -18 6 0 15 -12 20 -27 24 -66
46 -103 65 -109 11 -3 27 -15 36 -26 13 -17 20 -18 36 -10 11 6 23 8 27 5 17
-17 1 -31 -48 -43 -50 -12 -57 -11 -89 9 -37 22 -89 29 -85 10 6 -23 -21 -19
-38 5 -18 28 -39 34 -48 14 -5 -10 -7 -10 -12 0 -3 6 -12 12 -19 12 -8 0 -29
16 -48 35 -19 19 -40 35 -47 35 -9 0 -10 3 -1 14 9 10 8 16 -4 26 -20 17 -19
37 5 62 24 26 26 61 4 79 -10 8 -13 21 -9 36 6 25 5 26 -67 27 -35 1 -44 -2
-36 -11 7 -8 5 -19 -5 -33 l-15 -21 -15 21 c-9 12 -20 19 -26 15 -6 -3 -11 -2
-11 4 0 5 5 13 10 16 15 9 12 25 -5 25 -13 0 -19 11 -17 31 1 4 -10 10 -23 13
-14 4 -25 11 -25 17 0 7 -11 8 -30 4 -16 -4 -30 -2 -30 3 0 17 -95 106 -117
108 -48 5 -64 17 -88 64 -13 26 -21 50 -18 54 4 3 -10 6 -30 6 -32 0 -37 3
-37 24 0 13 -7 29 -15 36 -27 22 -64 112 -68 165 -7 78 -16 96 -38 84 -10 -5
-19 -16 -19 -24 0 -8 -8 -16 -17 -17 -56 -5 -73 -4 -73 1 0 3 -7 15 -15 25
-12 15 -17 17 -29 7 -8 -7 -20 -10 -27 -6 -6 4 -21 2 -34 -5 -20 -11 -30 -10
-67 8 -35 16 -43 25 -45 48 -1 30 -43 74 -68 74 -8 0 -31 9 -52 19 -51 26
-148 38 -169 20 -12 -10 -17 -10 -23 0 -6 9 -13 9 -34 0 -15 -7 -27 -17 -27
-23 0 -6 -5 -5 -12 2 -7 7 -27 12 -44 12 -27 0 -41 9 -76 50 -26 31 -54 52
-72 56 -17 4 -47 17 -67 30 -42 26 -79 23 -79 -7 0 -25 -26 -35 -45 -19 -13
11 -15 9 -13 -11 4 -34 -38 -46 -101 -30 -26 7 -83 13 -125 13 -56 1 -76 5
-76 15 0 7 -7 13 -15 13 -8 0 -15 -6 -15 -12 0 -7 -11 0 -25 15 -14 15 -35 27
-47 27 -17 0 -18 2 -8 15 7 9 19 14 26 11 13 -5 64 47 64 65 0 5 -7 12 -15 15
-8 4 -13 10 -10 14 7 12 -6 41 -15 35 -4 -3 -21 2 -36 10 -41 21 -64 19 -64
-5 0 -19 -1 -19 -44 2 -24 12 -50 32 -57 44 -9 18 -18 22 -36 18 -23 -6 -83
12 -94 29 -3 5 -9 -1 -12 -14z m4533 -1189 c0 -5 -2 -10 -4 -10 -3 0 -8 5 -11
10 -3 6 -1 10 4 10 6 0 11 -4 11 -10z m-2086 -512 c-1 -13 -3 -25 -3 -27 -1
-3 -7 4 -15 15 -11 14 -11 21 -3 26 19 12 24 9 21 -14z m51 -60 c11 -33 10
-39 -6 -54 -18 -16 -19 -16 -18 7 1 13 -2 39 -6 58 -11 47 13 38 30 -11z m55
-79 c0 -5 -7 -9 -15 -9 -8 0 -15 7 -15 15 0 9 6 12 15 9 8 -4 15 -10 15 -15z
m-150 -93 c0 -3 -4 -8 -10 -11 -5 -3 -10 -1 -10 4 0 6 5 11 10 11 6 0 10 -2
10 -4z m1970 -548 c0 -6 -3 -8 -7 -5 -3 4 -12 -1 -19 -11 -12 -16 -13 -15 -14
6 0 15 6 22 20 22 11 0 20 -5 20 -12z m45 -26 c-6 -7 -35 18 -35 31 0 5 9 2
20 -8 11 -10 18 -20 15 -23z m-495 -7 c10 -12 10 -15 -4 -15 -9 0 -16 7 -16
15 0 8 2 15 4 15 2 0 9 -7 16 -15z m0 -35 c0 -5 10 -18 22 -30 l22 -20 -27 0
c-19 0 -30 7 -36 23 -5 12 -7 25 -4 30 6 10 23 9 23 -3z"/>
<path d="M5730 11489 c0 -6 -9 -9 -20 -6 -15 4 -20 0 -20 -14 0 -12 7 -19 20
-19 11 0 23 -7 26 -15 4 -8 16 -15 28 -15 12 0 32 -9 44 -20 28 -26 35 -25 26
2 -6 19 -5 21 8 11 12 -11 14 -8 10 17 -2 16 -8 27 -13 25 -11 -7 -49 17 -49
30 0 6 -13 12 -30 13 -17 1 -30 -3 -30 -9z"/>
<path d="M5670 11425 c0 -10 7 -15 18 -13 21 4 19 22 -2 26 -10 2 -16 -3 -16
-13z"/>
<path d="M8294 11389 c-3 -5 10 -15 28 -22 33 -14 50 -5 29 16 -13 13 -50 17
-57 6z"/>
<path d="M7536 11355 c4 -9 0 -15 -8 -15 -8 0 -23 -9 -33 -20 -10 -11 -27 -20
-37 -20 -10 0 -21 -7 -25 -16 -3 -8 -12 -13 -19 -10 -7 3 -16 -4 -19 -15 -5
-16 -12 -19 -28 -14 -12 4 -35 9 -52 12 l-30 6 22 -24 21 -24 -21 -52 c-12
-29 -28 -53 -34 -53 -7 0 -13 -7 -13 -15 0 -8 -12 -18 -27 -21 -39 -10 -64
-36 -53 -54 15 -24 12 -29 -22 -32 -29 -4 -30 -5 -13 -13 11 -5 22 -11 25 -14
3 -4 17 -12 32 -18 19 -8 31 -25 39 -53 7 -22 18 -40 24 -40 7 0 29 11 50 26
l37 25 15 -21 c8 -12 21 -19 29 -16 7 3 16 1 19 -4 4 -6 15 -10 26 -10 10 0
19 -4 19 -10 0 -8 20 -19 92 -48 15 -6 34 -9 42 -6 8 3 22 -3 32 -14 9 -11 23
-18 29 -15 7 2 21 -9 31 -26 10 -17 22 -31 25 -31 4 0 9 -12 11 -27 l3 -27 14
28 c14 25 13 28 -17 56 -28 25 -31 32 -22 55 6 14 10 41 10 60 0 29 4 34 30
40 28 6 52 25 32 25 -5 0 -9 7 -9 15 0 20 7 19 32 -5 l22 -21 1 68 c2 51 -1
64 -9 51 -5 -10 -16 -18 -24 -18 -8 0 -19 -9 -25 -20 -7 -13 -21 -20 -40 -20
-15 0 -30 -5 -32 -11 -5 -15 -78 -19 -80 -5 0 6 -2 17 -2 24 -1 8 -17 27 -36
44 -34 29 -34 29 -8 24 22 -5 27 -2 30 16 2 16 11 24 28 26 21 3 22 2 11 -12
-9 -11 -10 -16 -2 -16 6 0 11 -7 11 -16 0 -11 5 -14 16 -10 9 3 21 3 27 -1 6
-4 35 -7 64 -7 44 -1 52 2 48 15 -3 9 2 22 12 30 9 8 14 9 10 2 -4 -6 -3 -14
2 -18 6 -3 8 4 5 17 -10 43 -11 68 -5 68 11 0 7 46 -5 61 -6 8 -11 35 -10 61
1 30 -4 50 -11 53 -8 3 -13 -5 -13 -20 0 -14 -5 -25 -10 -25 -6 0 -10 8 -8 18
2 10 -3 17 -14 17 -10 0 -23 6 -30 13 -6 6 -25 12 -40 12 -17 0 -28 5 -28 14
0 18 -19 25 -58 20 -17 -2 -34 1 -37 6 -10 16 -25 12 -19 -5z"/>
<path d="M5786 11282 c-13 -25 -15 -40 -7 -60 5 -15 10 -21 10 -13 1 8 8 22
17 32 12 14 14 24 7 46 l-10 28 -17 -33z"/>
<path d="M6910 11240 c0 -5 5 -10 11 -10 5 0 7 5 4 10 -3 6 -8 10 -11 10 -2 0
-4 -4 -4 -10z"/>
<path d="M5313 11233 c4 -3 -1 -11 -9 -18 -14 -10 -15 -14 -3 -33 15 -25 31
-30 23 -8 -3 8 3 19 15 26 30 16 27 40 -6 40 -14 0 -23 -3 -20 -7z"/>
<path d="M6699 11200 c13 -11 28 -20 35 -20 6 0 0 9 -14 20 -33 26 -52 25 -21
0z"/>
<path d="M6930 11190 c0 -5 9 -18 21 -29 12 -11 18 -24 15 -29 -3 -5 1 -15 9
-22 12 -10 18 -10 30 0 8 7 15 18 15 26 0 20 -21 28 -31 13 -6 -11 -12 -6 -21
19 -11 29 -38 45 -38 22z"/>
<path d="M7166 11174 c-5 -12 -15 -14 -44 -9 -30 5 -43 2 -62 -15 -14 -12 -24
-28 -22 -36 2 -8 -3 -14 -10 -14 -7 -1 -2 -10 12 -21 21 -18 25 -19 28 -6 3
12 11 15 34 10 23 -5 34 -2 44 12 13 18 15 18 33 1 19 -17 20 -17 30 3 14 26
4 69 -19 81 -13 7 -20 6 -24 -6z"/>
<path d="M6756 11172 c-3 -5 5 -20 17 -33 12 -13 21 -27 20 -31 -2 -5 4 -8 12
-8 8 0 15 8 14 18 0 20 -55 67 -63 54z"/>
<path d="M7220 11150 c0 -6 7 -10 15 -10 8 0 15 2 15 4 0 2 -7 6 -15 10 -8 3
-15 1 -15 -4z"/>
<path d="M6400 11121 c0 -16 -7 -18 -45 -16 -25 2 -47 -1 -51 -6 -11 -18 30
-64 56 -64 20 0 26 -5 28 -30 5 -55 22 -84 58 -95 32 -11 51 -40 39 -60 -3 -6
0 -7 9 -4 14 5 14 1 2 -32 -14 -41 -45 -56 -70 -35 -11 9 -14 0 -18 -46 -5
-51 -2 -61 18 -82 13 -13 21 -28 17 -35 -3 -6 -3 -8 1 -4 13 11 51 -35 47 -57
-5 -34 -17 -38 -64 -17 -39 17 -48 18 -58 6 -6 -7 -9 -21 -5 -29 8 -21 -50
-51 -69 -35 -10 8 -19 8 -33 1 -15 -8 -23 -7 -31 3 -13 16 -61 27 -61 15 0
-15 -61 -10 -90 7 -30 18 -63 13 -54 -9 3 -8 -6 -18 -23 -26 -15 -7 -22 -15
-16 -19 16 -11 25 -49 13 -57 -7 -4 -4 -18 10 -41 12 -19 18 -39 14 -46 -6
-10 -5 -10 7 -1 10 8 28 9 59 3 70 -14 93 -12 86 5 -11 30 27 15 65 -25 21
-22 40 -40 43 -40 2 0 6 10 8 22 4 29 24 34 31 8 6 -22 35 -18 50 7 6 10 13
10 28 3 21 -12 26 -36 8 -42 -7 -2 -1 -16 15 -34 30 -37 25 -47 -13 -28 -23
11 -34 12 -64 1 -43 -15 -46 -19 -28 -41 9 -11 24 -16 38 -13 13 2 23 -1 23
-7 -1 -18 -37 -56 -53 -56 -8 0 -17 -6 -20 -13 -6 -16 16 -47 33 -47 10 0 10
-3 0 -15 -17 -20 -2 -38 26 -31 14 4 24 2 24 -4 0 -6 -4 -8 -10 -5 -13 8 -13
2 2 -30 10 -21 16 -25 39 -20 15 4 30 1 34 -5 4 -6 16 -8 27 -4 13 4 27 -1 41
-15 32 -29 77 -18 77 20 0 33 31 17 36 -19 4 -23 26 -42 50 -42 13 0 24 5 24
12 0 9 3 9 12 0 16 -16 41 -16 32 1 -6 10 -4 10 7 0 7 -7 25 -13 40 -13 32 0
39 -16 34 -72 -3 -36 -2 -37 53 -64 33 -16 77 -29 105 -30 34 -2 56 -9 72 -24
12 -11 26 -20 31 -18 5 2 27 -11 48 -27 35 -27 48 -30 125 -33 69 -3 90 -8
108 -24 12 -11 27 -17 33 -13 6 4 17 1 25 -5 18 -15 38 -3 31 17 -5 11 -1 14
13 10 11 -3 26 2 32 9 15 18 59 11 107 -17 43 -24 62 -24 62 1 0 25 32 27 83
5 33 -14 35 -13 40 5 3 11 -1 27 -10 35 -8 8 -12 19 -8 24 3 5 1 12 -5 16 -15
9 -12 25 3 19 8 -3 28 8 44 24 19 17 41 28 58 27 16 0 30 6 32 13 3 6 -3 12
-11 12 -9 0 -22 12 -28 26 -10 22 -16 25 -43 20 -25 -5 -40 0 -71 22 -51 37
-66 42 -82 25 -7 -7 -20 -13 -29 -13 -12 0 -13 3 -3 15 10 11 9 18 -4 30 -9 9
-16 21 -16 26 0 14 36 11 50 -5 15 -20 39 -9 35 15 -2 12 2 19 11 19 8 0 14 7
14 15 0 22 80 58 97 44 10 -9 13 -8 13 1 0 8 19 11 64 9 52 -3 68 0 85 15 16
15 24 16 35 7 23 -19 42 -3 43 39 1 21 10 51 19 65 l17 26 -29 -3 c-23 -2 -28
1 -26 15 4 20 -14 47 -31 47 -8 0 -8 -3 0 -11 5 -5 8 -21 5 -35 -3 -19 -9 -24
-23 -21 -12 3 -19 0 -19 -9 0 -24 -15 -15 -30 19 -13 29 -15 30 -18 10 -4 -27
-10 -28 -36 -8 -17 13 -17 15 -3 21 21 7 21 32 2 57 -7 11 -11 25 -9 32 3 7 1
16 -5 20 -16 9 -13 22 10 44 16 14 18 24 11 38 -5 10 -6 27 -1 38 11 28 11 75
0 75 -5 0 -12 -7 -15 -16 -3 -8 -14 -14 -23 -12 -10 1 -24 -1 -31 -5 -11 -8
-32 27 -32 54 0 6 -5 7 -11 3 -6 -3 -15 0 -20 7 -6 10 -11 11 -20 2 -6 -6 -8
-17 -4 -24 5 -7 9 -25 10 -41 2 -23 -1 -28 -12 -23 -12 4 -14 0 -10 -15 6 -22
-19 -54 -34 -45 -5 4 -9 1 -9 -5 0 -7 -8 -9 -20 -5 -11 4 -20 2 -20 -4 0 -6
-6 -11 -13 -11 -7 0 -12 -14 -13 -35 0 -21 4 -35 12 -35 6 0 14 -11 16 -25 4
-18 1 -25 -11 -25 -12 0 -16 -10 -15 -43 1 -23 2 -46 4 -52 1 -5 2 -14 1 -19
-1 -5 9 -2 23 7 24 16 25 16 36 -17 6 -19 17 -40 25 -46 11 -9 10 -15 -7 -36
-12 -13 -27 -24 -33 -24 -7 0 -20 -9 -30 -20 -10 -11 -22 -20 -26 -20 -14 0
-20 39 -10 59 14 25 4 52 -16 44 -19 -7 -37 18 -20 29 6 4 18 1 26 -5 12 -9
13 -9 7 1 -4 6 -3 12 3 12 10 0 9 25 -2 36 -4 4 -7 16 -7 26 0 10 -8 22 -17
25 -10 4 -37 26 -61 50 -47 48 -51 49 -92 28 -32 -17 -73 -8 -83 19 -3 8 -16
20 -28 26 -15 8 -19 9 -15 1 11 -16 -13 -13 -30 4 -17 17 -44 20 -44 5 0 -6
-30 -10 -71 -10 -51 0 -75 -4 -83 -14 -8 -11 -21 -13 -53 -7 -30 6 -43 5 -43
-3 0 -24 -92 -57 -104 -38 -11 19 -46 1 -46 -23 0 -18 -4 -22 -20 -18 -11 3
-20 0 -20 -6 0 -6 -16 -11 -36 -11 -19 0 -43 -4 -53 -9 -9 -5 -23 -6 -30 -2
-7 5 -29 5 -50 0 -21 -5 -40 -4 -45 1 -7 7 -1 10 15 10 13 0 37 7 53 15 16 9
38 13 48 9 12 -4 27 1 38 13 11 10 26 24 35 31 8 7 15 21 15 31 0 39 36 51
158 52 23 0 42 4 42 10 0 6 8 6 21 -1 15 -9 24 -8 35 0 7 7 21 10 29 6 8 -3
15 -1 15 4 0 5 10 10 22 12 31 4 48 62 26 85 -14 14 -14 19 -1 52 8 20 21 40
29 44 19 11 18 24 -7 58 -16 23 -18 33 -9 44 12 14 5 55 -10 55 -4 0 -10 9
-13 21 -4 15 -12 20 -29 17 -17 -2 -24 2 -26 20 -2 12 -7 22 -11 22 -4 0 -16
9 -28 19 -11 10 -33 26 -50 34 -16 9 -38 28 -48 43 -9 14 -12 24 -7 20 6 -4
15 1 19 9 8 14 12 13 28 -5 35 -38 50 -12 19 35 -9 13 -13 28 -10 33 8 14 -21
35 -39 29 -8 -4 -27 6 -44 23 -35 36 -44 36 -116 9 -44 -16 -59 -18 -70 -9 -8
7 -15 9 -15 5 0 -4 -6 -2 -14 4 -11 9 -20 9 -35 2 -11 -6 -27 -11 -37 -11 -9
0 -27 -11 -40 -25 -28 -30 -30 -31 -37 -4 -3 11 -15 23 -26 26 -29 7 -26 30 5
37 14 4 24 11 22 17 -4 13 -24 11 -20 -2 1 -5 -3 -9 -9 -9 -6 0 -8 9 -4 20 3
11 2 20 -4 20 -5 0 -18 14 -28 30 -21 36 -73 44 -73 11z m95 -891 c3 -5 2 -10
-4 -10 -5 0 -13 5 -16 10 -3 6 -2 10 4 10 5 0 13 -4 16 -10z m1160 -320 c-3
-5 -10 -10 -16 -10 -5 0 -9 5 -9 10 0 6 7 10 16 10 8 0 12 -4 9 -10z"/>
<path d="M6906 11124 c-3 -8 -10 -12 -16 -9 -6 3 -20 3 -31 0 l-21 -7 21 -15
c12 -8 19 -19 16 -24 -4 -5 10 -9 30 -9 26 0 43 -7 59 -25 25 -27 42 -32 48
-13 8 22 -16 68 -34 68 -9 0 -23 8 -30 18 -20 28 -35 34 -42 16z"/>
<path d="M6740 11099 c0 -5 5 -7 10 -4 6 3 10 8 10 11 0 2 -4 4 -10 4 -5 0
-10 -5 -10 -11z"/>
<path d="M5775 11070 c-7 -11 2 -30 13 -30 4 0 13 9 20 20 11 17 10 20 -7 20
-11 0 -23 -4 -26 -10z"/>
<path d="M5760 10993 c0 -6 -3 -18 -6 -27 -11 -29 32 -18 45 11 10 22 10 25
-2 15 -10 -9 -16 -9 -25 0 -9 9 -12 9 -12 1z"/>
<path d="M7040 10986 c0 -2 7 -6 15 -10 8 -3 15 -1 15 4 0 6 -7 10 -15 10 -8
0 -15 -2 -15 -4z"/>
<path d="M5743 10901 c1 -19 6 -26 11 -21 15 15 14 50 0 50 -8 0 -12 -11 -11
-29z"/>
<path d="M12773 10783 c-28 -19 -29 -33 -4 -33 12 0 20 9 23 25 3 14 5 25 4
24 0 0 -11 -7 -23 -16z"/>
<path d="M5725 10780 c-4 -6 -11 -8 -16 -5 -12 8 -11 2 5 -30 16 -31 11 -64
-7 -46 -6 6 -20 11 -31 11 -16 0 -13 -6 18 -35 43 -39 51 -43 42 -19 -8 20 20
74 39 74 22 0 18 20 -7 41 -24 21 -34 23 -43 9z"/>
<path d="M5617 10729 c3 -10 12 -19 19 -19 20 0 17 13 -5 27 -16 10 -18 9 -14
-8z"/>
<path d="M12721 10743 c-1 -6 -4 -20 -7 -30 -5 -17 -5 -17 6 0 6 10 9 23 6 30
-3 9 -5 9 -5 0z"/>
<path d="M7750 10642 c0 -8 36 -42 45 -42 14 0 2 20 -20 34 -14 9 -25 13 -25
8z"/>
<path d="M7715 10607 c-4 -10 -5 -21 -1 -24 10 -10 18 4 13 24 -4 17 -4 17
-12 0z"/>
<path d="M5720 10600 c0 -5 5 -10 11 -10 5 0 7 5 4 10 -3 6 -8 10 -11 10 -2 0
-4 -4 -4 -10z"/>
<path d="M7741 10571 c-9 -6 -11 -16 -6 -27 7 -18 7 -18 14 0 7 18 8 18 25 -5
11 -14 20 -19 23 -13 2 7 13 10 23 7 24 -6 26 9 5 27 -13 11 -14 10 -9 -4 5
-12 2 -15 -10 -10 -9 3 -16 12 -16 20 0 16 -28 18 -49 5z"/>
<path d="M5777 10559 c7 -7 15 -10 18 -7 3 3 -2 9 -12 12 -14 6 -15 5 -6 -5z"/>
<path d="M7690 10549 c0 -11 5 -17 10 -14 6 3 10 13 10 21 0 8 -4 14 -10 14
-5 0 -10 -9 -10 -21z"/>
<path d="M7916 10532 c-3 -5 1 -9 9 -9 8 0 12 4 9 9 -3 4 -7 8 -9 8 -2 0 -6
-4 -9 -8z"/>
<path d="M7890 10507 c0 -21 17 -40 29 -33 18 11 13 33 -9 39 -12 3 -20 0 -20
-6z"/>
<path d="M7700 10502 c-39 -5 -52 -11 -45 -22 4 -7 12 -7 24 0 12 6 22 5 29
-2 8 -8 15 -9 22 -2 15 15 -2 30 -30 26z"/>
<path d="M5895 10480 c3 -5 11 -10 16 -10 6 0 7 5 4 10 -3 6 -11 10 -16 10 -6
0 -7 -4 -4 -10z"/>
<path d="M5847 10465 c12 -20 67 -31 60 -12 -2 7 -12 12 -23 12 -10 1 -25 5
-33 9 -11 7 -11 5 -4 -9z"/>
<path d="M7627 10459 c7 -7 15 -10 18 -7 3 3 -2 9 -12 12 -14 6 -15 5 -6 -5z"/>
<path d="M12932 10433 c-26 -53 -26 -57 -10 -51 9 4 20 2 26 -4 13 -13 20 0
24 47 4 39 -23 44 -40 8z"/>
<path d="M12983 10338 c0 -20 5 -23 44 -25 37 -2 44 1 39 13 -3 9 -6 17 -6 20
0 2 -6 1 -14 -2 -8 -3 -17 -1 -21 5 -12 21 -43 12 -42 -11z"/>
<path d="M8025 10318 c2 -13 8 -35 14 -50 6 -15 8 -34 5 -42 -8 -22 24 -28 36
-6 13 24 4 47 -21 55 -11 4 -17 11 -13 16 7 12 -5 49 -15 49 -5 0 -7 -10 -6
-22z"/>
<path d="M13030 10290 c0 -5 5 -10 10 -10 6 0 10 5 10 10 0 6 -4 10 -10 10 -5
0 -10 -4 -10 -10z"/>
<path d="M13076 10257 c3 -10 9 -15 12 -12 3 3 0 11 -7 18 -10 9 -11 8 -5 -6z"/>
<path d="M6232 10228 c7 -21 36 -34 49 -21 6 6 8 16 5 22 -10 15 -59 14 -54
-1z"/>
<path d="M8113 10215 c-7 -8 -9 -16 -4 -19 5 -3 12 1 15 10 8 22 4 25 -11 9z"/>
<path d="M7954 10207 c-3 -9 -10 -14 -15 -11 -5 3 -9 1 -9 -4 0 -10 62 -44 68
-38 2 2 -6 19 -17 37 -16 27 -21 30 -27 16z"/>
<path d="M13086 10185 c4 -8 8 -15 10 -15 2 0 4 7 4 15 0 8 -4 15 -10 15 -5 0
-7 -7 -4 -15z"/>
<path d="M13120 10099 c-12 -8 -11 -9 5 -7 11 2 24 -4 30 -14 7 -12 15 -14 24
-8 12 7 12 11 2 24 -15 18 -39 20 -61 5z"/>
<path d="M13174 10036 c-8 -9 -9 -18 -2 -31 8 -13 7 -20 -6 -27 -9 -5 -16 -16
-16 -24 0 -12 6 -11 30 6 24 17 29 27 26 53 -4 34 -15 43 -32 23z"/>
<path d="M13265 10020 c3 -5 10 -10 16 -10 5 0 9 5 9 10 0 6 -7 10 -16 10 -8
0 -12 -4 -9 -10z"/>
<path d="M13260 9983 c0 -32 15 -36 36 -10 10 12 12 17 5 10 -11 -10 -17 -9
-27 5 -12 16 -13 15 -14 -5z"/>
<path d="M13300 9930 c0 -16 -5 -30 -10 -30 -6 0 -1 -13 11 -30 21 -28 21 -31
6 -48 -19 -21 -22 -32 -8 -32 18 0 32 55 22 83 -8 21 -8 27 3 27 21 0 27 28
10 45 -23 23 -34 18 -34 -15z"/>
<path d="M11020 9897 c0 -27 43 -72 59 -63 5 4 15 -3 21 -14 12 -23 40 -27 40
-5 0 9 6 12 18 9 16 -5 16 -5 0 6 -9 6 -15 16 -12 23 2 7 -7 19 -21 27 -21 11
-30 12 -45 2 -24 -15 -33 -15 -25 -2 3 6 1 10 -4 10 -6 0 -11 7 -11 15 0 8 -4
15 -10 15 -5 0 -10 -10 -10 -23z"/>
<path d="M13180 9911 c0 -10 42 -23 49 -15 7 6 -20 24 -36 24 -7 0 -13 -4 -13
-9z"/>
<path d="M13023 9891 c-6 -10 -9 -22 -6 -25 15 -15 107 -1 97 15 -3 5 -10 7
-15 4 -5 -4 -9 -2 -9 3 0 5 -6 9 -12 9 -7 0 -20 3 -28 7 -9 4 -20 -1 -27 -13z"/>
<path d="M10880 9881 c-8 -6 -18 -7 -24 -4 -6 4 -6 -1 -2 -13 8 -19 36 -121
36 -129 0 -3 5 -5 10 -5 6 0 10 10 10 23 0 15 11 27 32 38 18 8 35 26 38 38 3
12 10 22 15 21 6 -1 11 6 13 14 2 11 -5 13 -36 9 -24 -3 -42 -1 -46 6 -9 13
-26 14 -46 2z"/>
<path d="M12970 9862 c0 -18 -66 -45 -106 -43 -40 2 -43 0 -63 -42 -12 -24
-21 -51 -21 -60 0 -9 -4 -17 -9 -17 -5 0 -12 -11 -15 -24 -3 -14 -16 -41 -29
-60 -17 -28 -27 -35 -45 -32 -20 3 -23 0 -19 -20 3 -15 -5 -36 -19 -56 -15
-20 -24 -46 -24 -70 0 -32 -5 -40 -30 -53 -20 -10 -30 -23 -30 -38 0 -13 -5
-28 -11 -34 -21 -21 1 -35 27 -18 18 12 29 13 44 5 11 -6 20 -14 20 -19 0 -13
99 -7 105 7 2 6 -2 12 -9 12 -16 0 -76 50 -76 63 0 5 7 7 15 3 10 -4 15 1 15
16 0 12 3 18 7 15 7 -8 32 23 33 41 0 7 -7 20 -15 28 -26 26 -17 33 37 27 42
-5 50 -4 46 8 -8 21 9 59 24 54 7 -3 28 4 46 15 27 16 31 24 26 45 -4 17 -2
27 9 31 8 3 13 13 10 23 -7 26 24 82 41 75 21 -8 28 12 17 51 -9 33 -8 35 15
35 27 0 33 24 8 34 -20 8 -24 8 -24 -2z"/>
<path d="M7931 9772 c0 -4 4 -16 8 -26 7 -19 8 -19 13 1 4 14 0 24 -8 27 -8 3
-14 2 -13 -2z"/>
<path d="M13305 9775 c-5 -2 -22 -6 -37 -9 -25 -6 -26 -9 -18 -32 6 -14 10
-36 10 -50 0 -29 15 -31 30 -5 7 13 7 22 0 26 -5 3 -10 15 -10 26 0 21 34 27
46 8 3 -6 14 -9 24 -6 26 7 36 -24 14 -40 -10 -7 -24 -13 -32 -13 -12 0 -12
-3 -2 -15 9 -10 9 -15 1 -15 -6 0 -11 -6 -11 -13 0 -7 -15 -27 -32 -43 -28
-25 -41 -30 -80 -29 -43 0 -47 -2 -42 -18 5 -15 2 -18 -13 -13 -12 4 -30 -1
-46 -14 -16 -12 -28 -16 -32 -10 -10 16 -25 12 -25 -7 -1 -26 -35 -63 -59 -63
-11 0 -24 -6 -28 -13 -12 -22 -56 -28 -77 -11 -28 20 -46 17 -46 -8 0 -64 -7
-83 -29 -86 -13 -2 -26 -14 -32 -29 -5 -14 -18 -27 -29 -30 -24 -6 -24 -6 -5
-43 8 -16 14 -44 13 -62 -3 -30 -1 -33 29 -33 17 0 29 3 27 6 -8 14 28 70 42
65 7 -3 20 4 27 15 12 16 21 19 54 13 29 -4 42 -2 52 10 9 11 18 13 30 7 9 -5
18 -9 21 -9 21 0 74 -44 92 -77 24 -44 108 -116 162 -139 32 -13 35 -13 39 4
4 18 8 18 53 4 63 -19 94 -40 94 -64 0 -16 4 -17 29 -10 16 4 31 7 33 5 2 -2
4 4 5 15 1 10 -4 21 -12 23 -9 4 -11 -1 -8 -16 5 -21 5 -21 -13 -4 -18 18 -18
19 -1 32 14 10 19 29 21 69 1 31 -2 56 -7 56 -5 0 -7 9 -4 20 4 14 -2 25 -19
36 -13 9 -24 24 -24 34 0 10 -7 24 -17 31 -47 39 -59 159 -23 229 11 22 20 48
20 60 0 11 5 29 12 39 9 15 8 22 -5 36 -9 9 -17 27 -17 40 0 13 -10 35 -22 48
-13 14 -31 36 -41 51 -17 24 -48 32 -82 21z"/>
<path d="M8184 9705 c-10 -19 -26 -35 -35 -35 -19 0 -44 -26 -32 -33 12 -7 84
48 75 58 -4 4 5 5 21 3 32 -6 38 16 8 31 -15 9 -21 5 -37 -24z"/>
<path d="M7956 9721 c-3 -5 1 -11 9 -14 9 -4 12 -1 8 9 -6 16 -10 17 -17 5z"/>
<path d="M8020 9679 c0 -12 46 -15 57 -4 8 8 2 11 -23 11 -19 -1 -34 -4 -34
-7z"/>
<path d="M8245 9680 c-3 -5 1 -10 9 -10 9 0 16 5 16 10 0 6 -4 10 -9 10 -6 0
-13 -4 -16 -10z"/>
<path d="M12554 9254 c17 -17 19 -24 16 -66 -1 -19 5 -28 20 -33 26 -8 28 -6
36 31 5 27 1 33 -33 57 -43 30 -63 36 -39 11z"/>
<path d="M15760 9184 c0 -14 5 -34 10 -45 9 -15 7 -21 -5 -25 -10 -4 -15 -19
-15 -45 0 -22 -5 -39 -11 -39 -6 0 -9 -7 -5 -15 3 -8 1 -15 -5 -15 -7 0 -9
-10 -5 -24 3 -14 2 -28 -4 -31 -5 -3 -15 -15 -21 -27 -10 -18 -9 -19 19 -13
18 3 33 2 37 -4 9 -16 50 -14 64 3 6 7 9 21 5 30 -4 10 0 18 10 22 8 3 18 21
22 40 3 19 12 34 20 34 8 0 14 7 14 16 0 8 4 13 9 10 14 -9 39 18 46 52 6 27
4 32 -13 32 -20 0 -46 24 -54 50 -3 10 -21 15 -61 17 -55 2 -57 1 -57 -23z"/>
<path d="M13561 9151 c-23 -15 4 -51 39 -51 23 0 31 -5 36 -26 4 -17 11 -23
21 -20 8 3 17 6 19 6 22 0 -22 54 -68 83 -32 20 -29 19 -47 8z"/>
<path d="M12690 9144 c0 -2 9 -8 20 -14 11 -6 20 -7 20 -2 0 6 -9 12 -20 15
-11 3 -20 3 -20 1z"/>
<path d="M13650 9011 c0 -7 -9 -9 -25 -5 -15 4 -25 2 -25 -4 0 -6 -3 -17 -6
-26 -5 -12 2 -15 36 -13 30 1 44 -3 51 -16 13 -23 35 -21 53 5 15 21 16 21 36
3 17 -15 20 -16 20 -3 0 23 -23 39 -40 28 -23 -15 -70 -12 -70 4 0 7 -7 19
-15 26 -11 9 -15 9 -15 1z"/>
<path d="M13813 8953 c-23 -9 -14 -32 15 -38 15 -3 41 -10 57 -16 52 -19 70
-17 69 9 -1 28 0 28 41 -4 30 -22 33 -30 30 -64 -2 -22 0 -42 5 -45 11 -7 -36
-58 -62 -67 -9 -4 -15 -14 -14 -22 3 -20 36 -56 51 -56 14 0 25 -22 25 -51 0
-11 -5 -16 -13 -13 -8 3 -26 0 -41 -5 -23 -9 -25 -14 -16 -31 9 -17 7 -20 -15
-26 -18 -4 -24 -11 -20 -21 4 -11 1 -13 -12 -8 -31 12 -38 10 -38 -7 0 -30
-22 -42 -89 -47 -5 -1 -3 -8 5 -17 10 -13 10 -17 -2 -25 -8 -5 -10 -9 -5 -9 5
0 3 -7 -4 -15 -9 -11 -17 -12 -30 -5 -27 15 -34 12 -47 -16 -8 -18 -9 -33 -2
-52 7 -18 7 -28 0 -30 -18 -6 -12 -30 8 -37 13 -4 22 -19 26 -46 4 -22 4 -43
1 -46 -3 -4 1 -17 9 -30 16 -23 15 -48 -3 -93 -7 -19 -6 -31 4 -45 8 -10 14
-27 14 -36 0 -20 58 -82 69 -74 5 2 13 -6 19 -19 8 -18 21 -25 58 -30 83 -11
92 -9 86 19 l-4 25 36 -15 c48 -20 73 -19 86 5 6 11 17 20 25 20 8 0 15 6 15
13 0 6 9 23 19 36 10 13 16 32 14 42 -6 20 24 33 52 23 16 -6 16 -5 2 23 -10
18 -12 34 -7 43 7 12 10 11 16 -3 8 -21 24 -22 24 -2 0 8 8 15 19 15 11 0 23
12 31 30 10 24 19 30 42 30 26 0 28 2 18 20 -9 17 -8 20 10 20 11 0 23 6 26
14 3 8 12 12 20 9 8 -3 14 0 14 6 0 6 7 8 15 5 8 -3 28 1 46 10 34 17 74 12
83 -10 3 -8 14 -14 24 -14 20 0 56 33 46 43 -3 3 4 10 15 17 12 6 21 20 21 30
0 12 7 20 16 20 26 0 13 52 -16 67 -21 10 -26 10 -28 -2 -2 -8 -8 -15 -13 -15
-16 0 -48 38 -55 65 -3 14 -10 25 -14 25 -5 0 -14 16 -20 35 -6 19 -16 35 -21
35 -5 0 -9 6 -9 14 0 24 -30 27 -60 5 -17 -13 -35 -19 -45 -15 -15 5 -17 1
-11 -39 8 -48 5 -51 -59 -46 -15 1 -26 -9 -38 -34 -9 -19 -21 -35 -27 -35 -5
0 -7 -6 -4 -14 3 -8 0 -17 -6 -21 -6 -4 -8 -14 -5 -24 4 -13 -7 -20 -58 -33
-61 -16 -93 -14 -66 3 11 7 9 10 -7 15 -16 4 -19 11 -16 37 5 36 20 59 35 54
19 -6 74 67 81 108 4 22 14 47 23 57 30 33 2 118 -39 118 -10 0 -25 11 -34 25
-9 14 -23 25 -31 25 -8 0 -12 4 -9 9 4 5 0 12 -6 15 -7 3 0 4 15 2 21 -2 27 0
23 10 -4 10 3 14 24 14 28 0 30 3 30 37 0 20 3 33 7 30 3 -4 12 -2 20 5 9 7
17 8 24 1 17 -17 58 -2 89 34 l30 34 25 -28 c28 -32 30 -44 13 -61 -9 -9 -4
-12 24 -12 28 0 37 -5 43 -22 4 -13 7 -26 7 -29 -1 -7 5 -7 71 -10 26 -1 53 3
58 8 14 14 -34 91 -64 102 -13 5 -28 16 -35 24 -7 8 -21 13 -32 10 -10 -3 -34
3 -52 12 -60 32 -68 35 -87 35 -11 0 -24 7 -28 14 -13 23 -111 31 -133 11 -17
-15 -23 -15 -71 -1 -68 21 -79 20 -79 -4 0 -24 -25 -26 -91 -6 -41 13 -48 12
-62 -1 -14 -14 -18 -14 -43 6 -26 20 -46 25 -71 14z m273 -410 c-10 -18 -15
-22 -16 -11 0 9 -6 19 -12 21 -7 3 -3 6 10 6 12 1 22 6 22 13 0 6 3 9 6 6 3
-4 -1 -19 -10 -35z m94 -403 c0 -5 -2 -10 -4 -10 -3 0 -8 5 -11 10 -3 6 -1 10
4 10 6 0 11 -4 11 -10z m-381 -71 c-20 -12 -30 0 -18 23 11 20 12 20 21 3 8
-12 7 -20 -3 -26z m235 -124 c3 -9 0 -15 -9 -15 -8 0 -15 7 -15 15 0 8 4 15 9
15 5 0 11 -7 15 -15z"/>
<path d="M12270 8940 c0 -5 9 -10 21 -10 11 0 17 5 14 10 -3 6 -13 10 -21 10
-8 0 -14 -4 -14 -10z"/>
<path d="M12233 8910 c2 -11 9 -26 17 -33 10 -10 12 -9 6 6 -3 10 -6 25 -6 33
0 8 -4 14 -10 14 -5 0 -8 -9 -7 -20z"/>
<path d="M13554 8898 c3 -12 0 -18 -9 -18 -22 0 -18 -17 5 -23 23 -6 27 17 9
43 -9 13 -10 12 -5 -2z"/>
<path d="M15471 8861 c-14 -19 -63 -36 -91 -31 -12 2 -12 -2 3 -17 9 -11 17
-29 17 -41 0 -11 7 -27 15 -36 18 -17 20 -36 4 -36 -16 0 -38 -31 -39 -52 0
-9 -8 -22 -17 -27 -10 -6 -12 -11 -6 -11 7 0 20 11 29 25 17 26 37 26 27 0 -6
-17 12 -21 22 -5 4 7 13 7 26 0 13 -7 19 -7 19 0 0 5 7 10 15 10 8 0 15 -7 15
-16 0 -10 6 -14 14 -11 10 4 15 -4 18 -29 2 -19 -1 -34 -7 -35 -5 0 -1 -4 9
-8 27 -10 64 26 59 58 -2 13 -8 32 -13 41 -6 11 -5 21 1 27 8 8 5 13 -10 18
-12 3 -21 11 -21 16 0 13 14 11 29 -3 11 -11 11 -9 2 10 -7 12 -16 20 -22 17
-5 -4 -9 1 -9 9 0 22 14 26 41 13 24 -13 59 -12 59 1 0 4 -9 20 -19 36 -13 20
-18 39 -14 58 3 17 1 28 -6 28 -6 0 -11 -5 -11 -10 0 -6 -11 -8 -25 -4 -14 3
-25 2 -25 -2 0 -14 17 -36 26 -35 5 1 10 -8 10 -19 1 -19 0 -19 -16 -5 -11 10
-27 14 -42 10 -16 -4 -29 -1 -38 10 -12 15 -12 19 5 31 17 13 18 16 5 24 -21
13 -24 13 -39 -9z m23 -196 c3 -8 1 -15 -4 -15 -6 0 -10 7 -10 15 0 8 2 15 4
15 2 0 6 -7 10 -15z"/>
<path d="M12193 8808 c1 -52 3 -56 17 -43 19 17 30 10 30 -17 0 -23 -37 -24
-62 -1 -17 15 -18 15 -18 -2 0 -10 -8 -24 -17 -31 -15 -10 -21 -10 -34 2 -15
13 -17 12 -21 -14 -4 -30 29 -82 52 -82 5 0 10 -4 10 -10 0 -5 9 -10 20 -10
14 0 18 5 13 17 -4 10 -2 14 4 10 6 -4 23 17 38 48 16 30 35 55 42 55 8 0 11
5 8 10 -4 6 -11 8 -16 4 -6 -3 -10 0 -8 7 5 44 -1 59 -27 59 -14 0 -22 4 -19
10 3 5 2 18 -4 27 -7 13 -9 3 -8 -39z"/>
<path d="M14890 8830 c0 -5 -9 -10 -20 -10 -14 0 -27 -15 -45 -50 -14 -27 -27
-50 -30 -50 -2 0 -27 9 -55 20 -61 24 -60 24 -60 5 0 -8 9 -15 19 -15 11 0 23
-5 27 -12 5 -8 2 -9 -9 -5 -12 5 -17 1 -17 -13 0 -11 -6 -20 -12 -20 -7 0 -36
-12 -65 -27 -42 -23 -53 -33 -58 -60 -3 -18 -10 -33 -15 -33 -22 0 -7 -27 28
-49 20 -13 31 -17 25 -9 -11 12 -10 21 2 45 29 59 64 71 105 37 16 -14 45 -27
65 -29 23 -2 50 -16 81 -44 46 -40 95 -54 120 -33 12 12 191 35 203 27 6 -3
31 14 56 39 24 25 40 48 35 51 -5 3 -9 17 -8 30 3 27 26 33 47 13 10 -11 11
-10 6 5 -4 9 -2 17 4 17 6 0 8 7 4 16 -4 10 1 20 11 26 16 9 15 12 -10 24 -21
11 -29 12 -35 3 -4 -7 -14 -9 -22 -6 -10 4 -17 -2 -21 -19 -6 -21 -12 -24 -51
-24 -48 0 -98 18 -89 32 3 5 -6 6 -21 2 -21 -5 -27 -3 -32 14 -3 15 -12 21
-27 19 -16 -2 -22 4 -24 26 -2 15 -9 27 -15 28 -30 2 -50 9 -66 23 -20 18 -31
20 -31 6z m-120 -171 c0 -5 -7 -9 -15 -9 -9 0 -12 6 -9 15 6 15 24 11 24 -6z"/>
<path d="M11968 8823 c-29 -7 -20 -23 13 -23 27 0 30 2 19 15 -7 8 -13 14 -14
14 0 -1 -9 -3 -18 -6z"/>
<path d="M11891 8801 c-9 -6 -10 -14 -4 -25 8 -14 11 -14 31 0 12 8 22 19 22
25 0 11 -30 12 -49 0z"/>
<path d="M12010 8765 c0 -8 4 -15 10 -15 5 0 7 7 4 15 -4 8 -8 15 -10 15 -2 0
-4 -7 -4 -15z"/>
<path d="M10640 8745 c-19 -23 3 -43 24 -22 13 12 13 17 2 26 -10 8 -17 7 -26
-4z"/>
<path d="M10710 8701 c0 -11 5 -23 10 -26 6 -3 10 1 10 9 0 9 5 16 11 16 5 0
7 5 4 10 -11 17 -35 11 -35 -9z"/>
<path d="M14490 8674 c-9 -3 -20 -15 -25 -27 -7 -16 -18 -21 -38 -20 -15 1
-27 -3 -27 -8 0 -6 -6 -7 -12 -3 -7 4 -10 3 -5 -1 11 -13 136 -13 153 0 12 8
13 16 5 38 -10 26 -19 29 -51 21z"/>
<path d="M14360 8600 c0 -11 4 -20 9 -20 5 0 7 9 4 20 -3 11 -7 20 -9 20 -2 0
-4 -9 -4 -20z"/>
<path d="M14450 8590 c0 -5 4 -10 9 -10 6 0 13 5 16 10 3 6 -1 10 -9 10 -9 0
-16 -4 -16 -10z"/>
<path d="M15500 8580 c0 -5 5 -10 10 -10 6 0 10 5 10 10 0 6 -4 10 -10 10 -5
0 -10 -4 -10 -10z"/>
<path d="M15610 8535 c0 -8 7 -15 15 -15 8 0 15 7 15 15 0 8 -7 15 -15 15 -8
0 -15 -7 -15 -15z"/>
<path d="M14750 8290 c-21 -13 1 -33 30 -28 22 3 22 3 3 20 -12 11 -23 14 -33
8z"/>
<path d="M14310 7956 c47 -23 75 -24 43 -1 -10 7 -21 11 -25 9 -4 -2 -9 0 -13
6 -3 5 -16 10 -28 9 -16 0 -10 -6 23 -23z"/>
<path d="M13733 7916 c4 -10 1 -16 -8 -16 -8 0 -12 -6 -9 -15 5 -11 9 -12 25
-2 22 13 22 38 0 45 -10 3 -12 0 -8 -12z"/>
<path d="M13680 7890 c-8 -5 -12 -12 -9 -15 4 -3 12 1 19 10 14 17 11 19 -10
5z"/>
</g>
</svg>
