<?xml version="1.0" standalone="no"?>
<!DOCTYPE svg PUBLIC "-//W3C//DTD SVG 20010904//EN"
 "http://www.w3.org/TR/2001/REC-SVG-20010904/DTD/svg10.dtd">
<svg version="1.0" xmlns="http://www.w3.org/2000/svg"
 width="1102.450435pt" height="1007.822465pt" viewBox="0 0 1102.450435 1007.822465"
 preserveAspectRatio="xMidYMid meet">
<metadata>
Created by potrace 1.15, written by Peter Selinger 2001-2017
</metadata>
<g transform="translate(-439.177836,1525.822465) scale(0.100000,-0.100000)"
fill="#222222" stroke="none">
<path d="M4471 15235 c-33 -37 -62 -56 -73 -49 -7 5 -8 2 -2 -7 4 -8 9 -30 11
-49 5 -84 11 -123 19 -129 5 -3 22 -25 38 -48 15 -23 36 -45 46 -48 10 -3 21
-17 24 -30 10 -39 36 -32 36 9 0 19 5 38 10 41 6 4 7 12 3 18 -16 25 -10 36
33 59 24 12 44 28 44 35 0 6 8 18 18 25 24 17 34 45 19 52 -9 5 -9 7 1 12 23
11 13 43 -15 50 -38 9 -47 15 -35 23 6 4 7 12 3 20 -7 11 -19 10 -67 -5 -63
-19 -85 -19 -96 -1 -5 8 2 16 17 21 14 6 25 13 25 17 0 15 -41 4 -59 -16z"/>
<path d="M4571 14816 c-11 -13 -17 -14 -28 -5 -7 7 -16 9 -20 5 -3 -3 0 -6 8
-6 11 0 11 -2 -1 -10 -12 -8 -12 -10 5 -10 30 -1 59 -27 63 -58 2 -15 10 -34
18 -43 8 -8 14 -25 14 -37 0 -11 5 -24 12 -28 8 -5 9 -2 5 9 -3 9 -1 19 4 23
7 4 7 10 0 17 -6 6 -11 19 -11 28 0 9 -7 22 -15 29 -8 7 -15 25 -15 39 0 15
-6 35 -13 45 -12 16 -14 16 -26 2z"/>
<path d="M4473 14719 c-13 -33 -8 -59 11 -59 6 0 11 18 11 45 1 53 -6 57 -22
14z"/>
<path d="M4656 14533 c3 -32 11 -63 16 -70 5 -7 5 -14 -1 -18 -10 -5 68 -95
83 -95 3 0 10 9 16 21 9 16 8 24 -3 37 -9 10 -15 34 -14 60 1 25 -3 48 -10 54
-10 8 -13 6 -13 -6 0 -10 -4 -14 -10 -11 -5 3 -10 15 -10 25 0 10 -9 22 -20
25 -11 3 -20 13 -20 21 0 8 -5 14 -11 14 -7 0 -8 -19 -3 -57z"/>
<path d="M8271 14557 c-6 -6 -11 -17 -11 -24 0 -7 -6 -13 -14 -13 -8 0 -14
-10 -15 -22 -1 -63 -5 -88 -12 -88 -5 0 -6 -7 -3 -15 12 -30 -6 -66 -37 -77
-22 -8 -27 -13 -19 -23 8 -9 6 -17 -5 -29 -19 -18 -31 -20 -40 -6 -3 5 -15 6
-28 1 -24 -9 -34 -56 -16 -77 11 -13 -5 -29 -20 -20 -4 3 -7 -5 -7 -17 1 -12
-2 -28 -7 -35 -7 -8 -6 -21 1 -37 13 -28 32 -33 32 -10 0 25 17 17 30 -15 7
-16 18 -30 24 -30 6 0 4 -6 -5 -13 -9 -7 -14 -18 -11 -25 2 -7 -1 -18 -6 -25
-7 -8 -7 -18 -2 -27 6 -9 3 -18 -6 -25 -13 -9 -11 -15 15 -40 32 -32 39 -47
19 -44 -14 2 -42 -7 -71 -22 -10 -5 -22 -7 -27 -4 -6 4 -15 -6 -20 -21 -8 -21
-7 -31 6 -45 16 -18 16 -19 1 -19 -10 0 -17 -3 -18 -7 -3 -34 -11 -59 -20 -61
-6 -3 -6 -8 1 -17 8 -9 6 -14 -5 -19 -23 -8 -18 -42 10 -64 15 -12 23 -26 19
-35 -3 -10 3 -21 15 -29 12 -7 21 -17 21 -22 0 -4 -6 -4 -12 2 -13 10 -19 12
-38 12 -5 0 -10 8 -10 18 0 10 -3 13 -8 6 -15 -23 -40 -22 -61 2 -11 13 -30
24 -40 24 -11 0 -23 5 -26 10 -3 6 -1 10 4 10 20 0 11 18 -11 23 -14 4 -29 0
-40 -10 -17 -16 -22 -15 -63 5 -25 12 -64 25 -88 29 -23 3 -62 17 -87 29 -41
21 -46 22 -57 7 -11 -14 -15 -13 -40 14 -19 20 -36 29 -53 27 -14 -1 -30 -3
-35 -3 -6 -1 -16 -15 -24 -32 -19 -44 -49 -52 -81 -22 -14 13 -26 19 -28 13
-4 -12 -22 -3 -22 11 0 5 8 9 18 10 10 0 12 3 5 6 -7 2 -13 11 -13 18 0 8 -9
13 -20 12 -11 -1 -20 -5 -20 -10 0 -5 -8 -6 -17 -2 -10 4 -29 7 -43 6 -35 -2
-85 17 -105 39 -22 24 -48 26 -65 5 -10 -12 -10 -15 4 -15 9 0 16 -5 16 -11 0
-12 75 -89 88 -89 15 -1 39 -26 46 -47 9 -30 -18 -34 -68 -10 -21 10 -42 15
-47 10 -13 -13 -13 -126 0 -151 8 -14 8 -22 1 -22 -5 0 -10 -20 -10 -44 0 -35
-4 -46 -19 -51 -14 -4 -21 -19 -26 -58 -9 -60 -40 -97 -84 -97 -37 0 -79 -21
-85 -43 -2 -9 -10 -15 -18 -12 -7 2 -22 -10 -33 -27 -12 -20 -32 -35 -53 -40
-29 -8 -31 -11 -21 -30 10 -18 8 -24 -10 -39 -11 -9 -21 -22 -21 -28 0 -6 -11
-11 -24 -11 -18 0 -23 -5 -23 -25 0 -13 6 -30 13 -36 8 -6 14 -24 14 -39 0
-29 22 -55 48 -55 8 0 17 -5 19 -11 2 -7 -4 -11 -14 -10 -12 0 -17 -5 -16 -17
1 -18 -52 -76 -71 -77 -13 0 -35 -32 -36 -51 0 -16 -51 -59 -70 -59 -5 0 -10
-4 -10 -10 0 -5 5 -10 10 -10 6 0 10 -5 10 -11 0 -5 -4 -8 -9 -5 -4 3 -13 -6
-19 -19 -7 -14 -23 -27 -39 -30 -15 -3 -43 -10 -61 -16 -35 -11 -62 0 -62 27
0 8 -4 14 -10 14 -5 0 -10 6 -10 14 0 19 -31 30 -41 14 -6 -9 -11 -9 -22 0 -8
7 -21 10 -30 7 -9 -4 -21 3 -31 16 -8 13 -18 20 -21 17 -3 -3 4 -17 16 -31 30
-39 41 -83 23 -98 -8 -6 -14 -17 -14 -25 0 -7 -9 -16 -21 -19 -11 -4 -18 -9
-15 -12 3 -4 1 -12 -5 -19 -11 -13 4 -88 22 -110 16 -20 21 -98 6 -124 -12
-22 -10 -31 15 -79 30 -57 35 -81 17 -81 -8 0 -8 -4 0 -14 10 -12 9 -20 -4
-40 -10 -14 -24 -26 -32 -26 -8 0 -11 -4 -8 -10 3 -5 -1 -10 -9 -10 -9 0 -16
-8 -16 -19 0 -11 -9 -23 -20 -26 -11 -4 -18 -11 -15 -16 4 -5 -1 -9 -9 -9 -9
0 -16 -6 -16 -13 0 -12 -67 -57 -85 -57 -3 0 -6 10 -5 23 3 38 0 57 -9 57 -5
0 -6 -20 -3 -45 4 -36 1 -51 -15 -68 -18 -21 -35 -54 -47 -89 -3 -10 -15 -18
-26 -18 -16 0 -20 -4 -15 -19 3 -11 1 -22 -5 -26 -6 -4 -8 -15 -5 -26 4 -13 2
-19 -9 -19 -8 0 -29 -8 -48 -17 -64 -32 -69 -34 -78 -28 -5 3 -20 0 -34 -6
-31 -14 -60 4 -51 32 8 23 -11 34 -23 13 -8 -15 -12 -15 -41 1 -18 9 -30 22
-28 29 6 14 -56 15 -86 2 -16 -8 -16 -10 -2 -32 12 -18 13 -29 5 -44 -7 -14
-7 -26 -1 -39 6 -10 7 -22 3 -26 -4 -4 -7 -19 -7 -33 0 -21 10 -33 43 -54 23
-15 46 -38 51 -50 18 -44 24 -63 23 -68 0 -3 19 -16 43 -29 25 -13 47 -31 50
-40 3 -10 29 -27 58 -39 62 -26 81 -28 73 -7 -3 8 -2 15 3 15 14 0 33 -28 26
-39 -9 -16 13 -51 29 -45 8 3 33 -11 55 -31 23 -21 41 -32 41 -26 0 7 20 11
50 11 40 0 51 4 61 21 l11 21 26 -25 c22 -20 37 -25 84 -25 56 0 58 1 66 30 6
23 17 33 47 44 22 8 53 11 68 8 16 -3 34 0 43 6 11 10 18 10 32 -2 27 -24 72
-32 72 -13 0 18 16 20 26 3 5 -8 10 -5 15 9 7 19 12 20 48 12 54 -12 91 2 91
35 0 19 4 23 20 19 15 -4 20 0 20 16 0 12 6 21 15 21 8 0 17 14 21 36 4 20 20
52 36 70 17 20 28 40 24 49 -3 9 0 15 9 15 8 0 18 8 23 18 13 24 9 129 -6 144
-21 21 -13 31 12 14 16 -10 27 -12 31 -6 3 6 -1 13 -10 16 -14 6 -14 8 1 25
16 17 15 22 -7 76 -12 31 -35 70 -50 87 -18 22 -24 37 -19 50 6 18 12 15 57
-27 55 -51 77 -54 94 -10 5 13 13 22 18 18 5 -3 13 -1 16 5 5 8 11 7 21 -1 12
-9 14 -6 14 23 0 19 -5 39 -12 46 -8 8 -5 19 14 45 20 25 24 37 16 51 -5 10
-8 26 -5 37 3 10 1 19 -4 19 -5 0 -9 5 -9 10 0 6 7 10 15 10 8 0 15 4 15 9 0
4 21 14 48 21 26 7 53 17 60 23 6 5 12 6 12 1 0 -5 4 -4 8 2 4 5 30 18 57 28
48 18 94 58 95 82 0 6 22 27 50 45 29 20 50 42 50 52 0 11 9 21 20 24 11 3 17
10 13 16 -4 6 0 8 10 4 11 -4 17 -1 17 8 0 20 46 19 84 0 24 -13 31 -13 38 -3
6 10 8 10 8 1 0 -7 4 -13 9 -13 16 0 61 46 61 62 0 22 19 34 62 41 41 6 53 0
37 -19 -7 -8 -7 -14 1 -19 5 -3 10 0 10 9 0 21 23 25 38 7 11 -14 11 -14 6 2
-4 12 -1 17 11 17 12 0 15 5 11 16 -3 9 -6 20 -6 26 0 6 -6 8 -14 5 -8 -3 -20
0 -26 8 -6 8 -18 11 -25 9 -19 -8 -37 29 -22 45 9 10 8 16 -8 27 -17 13 -18
16 -5 24 8 5 18 10 21 10 4 0 10 8 14 18 5 14 4 15 -6 5 -7 -7 -18 -13 -24
-13 -19 1 -47 29 -40 40 5 8 11 7 23 -2 12 -10 16 -10 19 0 3 6 10 12 18 12 7
0 18 7 25 15 7 9 19 14 27 11 15 -6 18 10 2 19 -7 5 -5 13 5 24 9 10 13 28 10
47 -5 31 -4 31 46 37 63 8 70 12 70 44 0 29 35 79 45 63 4 -6 12 -7 23 -1 11
6 26 4 46 -6 53 -28 84 -33 97 -16 9 10 23 13 41 9 36 -7 88 3 88 18 0 17 52
39 61 25 5 -8 8 -8 13 0 4 6 18 8 33 5 22 -6 25 -4 20 10 -7 19 -3 20 23 6 30
-16 47 13 26 45 -21 31 -6 33 46 5 31 -16 37 -17 42 -4 5 13 9 13 31 -2 23
-15 25 -15 25 0 0 15 3 15 29 2 15 -8 33 -28 40 -43 15 -37 56 -57 76 -37 12
12 18 12 35 2 11 -7 22 -20 25 -28 4 -12 133 -65 141 -57 7 7 -56 83 -81 97
-17 10 -39 36 -52 62 -12 26 -27 49 -32 53 -6 3 -11 15 -11 26 0 10 -4 19 -9
19 -5 0 -14 13 -21 29 -6 16 -25 35 -41 41 -15 7 -28 15 -27 19 5 15 -33 69
-52 74 -26 7 -36 35 -22 58 16 25 15 46 -1 56 -8 4 -17 16 -20 26 -4 10 -11
15 -17 12 -5 -3 -10 0 -10 8 0 8 -7 17 -15 21 -18 6 -20 57 -3 74 9 9 8 17 -2
37 -7 14 -18 25 -25 25 -14 0 -85 95 -85 114 0 8 4 16 10 18 11 4 -25 89 -37
86 -12 -2 -63 24 -63 33 0 4 -12 22 -27 40 -18 21 -24 34 -15 37 6 2 12 9 12
16 0 19 -44 56 -66 56 -23 1 -57 28 -67 53 -6 16 -2 18 22 16 27 -3 61 19 61
39 0 16 53 92 63 92 6 0 3 8 -5 18 -26 29 -45 75 -46 112 -2 60 18 140 39 153
15 9 19 23 19 70 0 39 5 64 15 73 21 22 19 44 -5 44 -11 0 -20 4 -20 9 0 15
-27 20 -39 8z m-596 -2047 c3 -5 1 -10 -4 -10 -6 0 -11 5 -11 10 0 6 2 10 4
10 3 0 8 -4 11 -10z m-760 -580 c3 -5 1 -10 -4 -10 -6 0 -11 5 -11 10 0 6 2
10 4 10 3 0 8 -4 11 -10z m-971 -386 c3 -9 6 -17 6 -18 0 -8 -51 -3 -56 6 -5
8 0 9 15 5 17 -4 21 -2 17 9 -3 8 -1 14 3 14 5 0 12 -7 15 -16z"/>
<path d="M4739 14319 c-1 -8 -1 -30 0 -50 2 -22 -6 -54 -20 -80 -13 -24 -25
-62 -28 -84 -6 -38 -8 -40 -43 -43 -41 -3 -51 -20 -18 -29 23 -6 27 -43 5 -43
-17 0 -20 -23 -5 -50 8 -15 6 -20 -10 -25 -17 -5 -20 -13 -16 -43 7 -58 16
-74 71 -127 29 -27 55 -63 59 -79 9 -39 45 -67 69 -54 15 8 20 4 29 -20 6 -16
24 -34 40 -41 18 -8 27 -19 24 -27 -3 -7 -1 -16 4 -19 14 -9 12 -27 -2 -23
-15 5 -42 -19 -52 -46 -5 -14 -13 -17 -37 -12 -17 3 -38 0 -50 -7 -17 -10 -22
-9 -30 6 -6 9 -18 17 -27 17 -13 0 -11 -6 10 -27 26 -25 28 -26 52 -10 30 20
36 21 36 4 0 -17 43 -43 48 -28 2 7 18 9 44 4 30 -4 39 -3 34 5 -5 8 -1 10 9
6 11 -5 15 -14 11 -30 -5 -17 -1 -26 15 -34 12 -7 18 -17 15 -27 -4 -8 5 -28
19 -45 28 -33 32 -63 10 -72 -17 -6 -20 -48 -5 -76 7 -13 6 -19 -6 -24 -8 -3
-12 -10 -9 -16 11 -18 -10 -10 -28 11 -15 17 -25 19 -60 14 -23 -4 -54 -2 -69
4 -57 21 -44 -39 13 -65 42 -18 139 -115 163 -162 8 -15 35 -38 60 -52 27 -14
44 -30 42 -37 -3 -7 5 -25 17 -40 13 -16 31 -40 40 -55 10 -16 23 -25 31 -22
16 6 54 -39 63 -75 3 -14 13 -34 21 -43 10 -12 11 -18 3 -18 -8 0 -8 -5 1 -19
9 -16 9 -25 -1 -44 -11 -21 -10 -33 9 -88 12 -35 26 -72 31 -81 5 -10 4 -18
-2 -20 -6 -2 -17 -20 -24 -40 -13 -39 -4 -61 22 -51 7 3 34 0 60 -7 41 -12 47
-11 58 3 7 9 18 17 25 17 18 0 39 31 40 58 0 24 14 33 53 36 19 1 22 5 19 30
-4 26 -3 27 16 17 25 -14 66 -14 106 -1 17 5 52 14 79 21 35 9 47 16 47 30 0
11 6 18 12 17 7 -2 20 11 28 29 15 32 65 63 100 63 11 0 20 4 20 9 0 6 12 6
29 1 32 -9 41 1 41 43 l0 20 23 -21 c27 -26 55 -16 39 14 -7 13 -7 25 0 37 5
10 7 25 4 32 -3 8 -1 17 4 20 5 3 -7 30 -26 60 -31 47 -36 63 -40 126 -2 40
-8 75 -14 79 -6 4 -11 24 -10 46 1 43 -4 80 -15 106 -8 20 34 77 52 71 6 -2
15 2 19 9 4 7 4 10 -1 6 -4 -4 -28 11 -53 32 -25 22 -49 40 -54 40 -5 0 -6 5
-2 12 5 8 2 9 -12 3 -34 -15 -81 -17 -103 -6 -11 7 -21 8 -21 3 0 -5 -8 -18
-17 -28 -19 -20 -46 -21 -73 -1 -8 6 -12 7 -8 3 4 -5 3 -15 -3 -23 -10 -11
-15 -11 -27 -1 -8 7 -18 12 -21 11 -3 -1 -5 11 -4 26 2 16 -4 34 -12 41 -7 6
-12 17 -9 25 3 7 1 16 -5 20 -6 3 -11 0 -12 -7 0 -7 -13 -23 -28 -35 -28 -22
-29 -22 -46 -3 -15 16 -15 22 -5 35 10 12 10 21 0 45 -16 39 -27 45 -46 26
-19 -20 -34 -20 -34 -1 0 23 -50 50 -95 52 -22 0 -60 7 -84 14 -42 12 -46 11
-59 -9 -8 -12 -21 -22 -28 -22 -8 0 -14 -4 -14 -10 0 -5 -14 -8 -31 -6 -17 2
-43 -1 -59 -7 -23 -9 -34 -7 -64 11 -41 24 -50 27 -41 13 3 -5 1 -12 -5 -16
-5 -3 -10 2 -10 13 0 10 -7 19 -15 19 -8 0 -15 -9 -15 -19 0 -17 -1 -17 -18 0
-22 21 -10 32 34 32 24 0 33 5 38 23 6 21 7 21 20 5 14 -19 32 -25 21 -8 -3 6
-2 10 3 10 6 0 13 -8 17 -17 6 -17 7 -17 16 -1 5 9 17 14 28 11 17 -4 19 1 18
42 -2 46 -1 46 25 41 15 -3 30 -1 33 4 3 6 19 10 36 10 24 0 29 4 29 25 0 18
7 26 24 31 15 3 26 14 28 27 2 17 9 22 31 20 17 -1 27 3 27 12 0 8 11 22 25
31 14 9 25 22 25 29 0 12 57 45 77 45 5 0 19 14 32 31 17 22 26 28 35 20 42
-35 69 116 28 157 -9 9 -16 25 -14 35 5 27 -21 77 -40 77 -10 0 -22 9 -28 21
-9 16 -8 24 4 38 17 19 12 31 -12 31 -9 0 -24 7 -34 17 -17 15 -18 15 -18 0 0
-30 -94 -55 -128 -33 -6 4 -19 -2 -28 -13 -13 -14 -22 -17 -34 -11 -10 5 -34
10 -55 12 -20 1 -39 8 -42 15 -3 7 -17 13 -33 13 -27 0 -60 26 -60 48 0 14
-24 6 -70 -25 -45 -30 -47 -29 -42 8 4 28 3 31 -17 24 -25 -8 -53 19 -44 42 7
17 -29 17 -45 1 -9 -9 -15 -9 -24 0 -17 17 -29 15 -22 -3 5 -11 -2 -14 -26
-12 -24 2 -30 6 -27 19 3 10 -1 22 -9 29 -11 9 -14 8 -15 -2z m266 -849 c3 -5
2 -10 -4 -10 -5 0 -13 5 -16 10 -3 6 -2 10 4 10 5 0 13 -4 16 -10z"/>
<path d="M5670 14249 c-107 -17 -120 -20 -120 -29 0 -5 12 -12 28 -16 15 -4
32 -12 37 -19 36 -44 122 -54 112 -14 -4 16 -2 19 16 13 12 -3 27 -12 33 -20
17 -21 35 -17 26 5 -9 24 -62 91 -71 90 -3 -1 -31 -5 -61 -10z"/>
<path d="M7970 13805 c0 -8 4 -15 10 -15 5 0 7 7 4 15 -4 8 -8 15 -10 15 -2 0
-4 -7 -4 -15z"/>
<path d="M4556 13527 c3 -10 9 -15 12 -12 3 3 0 11 -7 18 -10 9 -11 8 -5 -6z"/>
<path d="M5770 13526 c0 -7 12 -25 26 -40 15 -14 23 -26 18 -26 -4 0 1 -6 11
-14 19 -14 14 -53 -5 -41 -5 3 -10 1 -10 -5 0 -7 14 -17 30 -23 21 -8 30 -18
30 -33 0 -12 6 -24 12 -26 7 -3 13 -14 13 -26 0 -12 3 -21 6 -19 3 1 13 -4 22
-11 19 -16 41 -6 33 14 -3 7 1 25 8 39 12 22 15 23 26 10 14 -17 55 -21 44 -4
-4 8 1 9 17 4 31 -10 46 -13 37 -8 -5 3 -8 11 -8 19 0 7 -14 21 -31 29 -24 13
-33 14 -45 4 -12 -10 -21 -9 -47 6 -17 10 -46 18 -63 17 -18 -2 -35 2 -39 8
-3 5 -1 10 4 10 24 0 8 31 -39 79 -27 28 -50 45 -50 37z"/>
<path d="M5778 13463 c7 -3 16 -2 19 1 4 3 -2 6 -13 5 -11 0 -14 -3 -6 -6z"/>
<path d="M6120 13276 c0 -11 9 -16 26 -16 31 0 28 23 -4 28 -15 2 -22 -2 -22
-12z"/>
<path d="M9022 12684 c10 -10 20 -15 24 -12 3 4 -5 12 -18 18 -22 12 -22 12
-6 -6z"/>
<path d="M9108 12664 c-12 -11 -9 -46 6 -73 12 -21 11 -29 -7 -59 -19 -32 -19
-35 -3 -63 18 -31 13 -54 -10 -45 -12 4 -14 -3 -12 -32 3 -34 1 -37 -22 -34
-31 3 -41 -4 -60 -43 -18 -33 -53 -40 -82 -16 -22 18 -24 8 -2 -13 10 -10 33
-16 63 -16 l48 0 9 -47 c8 -45 11 -48 39 -48 17 0 42 -9 57 -19 31 -21 57 -15
65 13 3 13 10 18 21 14 10 -4 13 -2 8 6 -4 6 -2 18 4 26 6 8 9 19 5 25 -4 6
-2 17 5 25 9 10 9 19 0 36 -9 16 -9 20 -1 14 38 -23 50 65 13 95 -22 18 -36
50 -21 50 5 0 12 -7 15 -15 4 -8 18 -15 33 -15 20 0 23 2 11 10 -12 8 -12 10
-1 10 14 0 12 24 -5 65 -7 18 -6 18 9 6 14 -11 18 -11 23 4 4 10 2 25 -4 34
-6 9 -19 31 -28 49 -18 35 -59 67 -47 36 5 -13 2 -15 -15 -10 -12 4 -30 2 -41
-4 -23 -12 -58 4 -63 28 -2 8 -6 10 -10 6z"/>
<path d="M7751 12461 c-10 -6 -10 -10 -1 -16 13 -8 24 -1 19 14 -3 6 -10 7
-18 2z"/>
<path d="M5239 12298 c11 -15 41 -15 41 -1 0 3 -6 3 -14 0 -7 -3 -20 0 -27 6
-11 10 -11 9 0 -5z"/>
<path d="M7780 12260 c0 -5 5 -10 11 -10 5 0 7 5 4 10 -3 6 -8 10 -11 10 -2 0
-4 -4 -4 -10z"/>
<path d="M8940 12193 c0 -5 9 -23 21 -42 11 -19 17 -37 12 -40 -4 -3 -13 -21
-20 -39 -11 -30 -9 -36 23 -77 19 -25 34 -49 34 -54 0 -4 9 -16 20 -26 11 -10
20 -28 20 -39 1 -29 35 -67 53 -60 13 5 14 10 1 39 -20 49 -18 64 7 58 26 -7
43 16 27 35 -9 10 -8 16 1 22 9 5 10 10 2 14 -6 4 -11 20 -11 37 0 26 -3 29
-30 29 -16 0 -30 4 -30 10 0 5 -13 25 -30 43 -16 19 -27 37 -23 40 3 4 -5 11
-19 16 -14 5 -28 17 -31 25 -6 16 -27 22 -27 9z"/>
<path d="M9128 12108 c-2 -13 3 -38 12 -55 15 -29 17 -30 28 -12 8 12 8 20 2
24 -6 4 -8 10 -6 13 2 4 -4 18 -13 31 l-18 24 -5 -25z"/>
<path d="M9185 12030 c-21 -23 -17 -31 11 -24 11 3 20 14 21 25 2 24 -9 24
-32 -1z"/>
<path d="M9046 11754 c-9 -8 -21 -24 -26 -35 -6 -11 -21 -19 -35 -19 -18 0
-25 -5 -25 -20 0 -15 -7 -20 -25 -20 -35 0 -67 -37 -54 -63 9 -15 8 -18 -2
-12 -9 6 -11 3 -6 -9 4 -10 4 -29 1 -42 -5 -19 -11 -23 -26 -18 -28 9 -72 -40
-58 -66 8 -15 6 -19 -12 -22 -15 -2 -31 -19 -47 -51 -14 -26 -34 -50 -43 -53
-10 -3 -18 -12 -18 -19 0 -8 -17 -22 -37 -31 -49 -22 -48 -21 -35 -37 16 -19
4 -56 -17 -50 -19 5 -29 -5 -58 -57 -14 -24 -18 -42 -12 -57 5 -15 3 -25 -7
-33 -18 -15 -18 -42 0 -102 13 -40 13 -48 0 -59 -8 -6 -14 -24 -14 -40 0 -25
-4 -29 -29 -29 -21 0 -30 6 -34 21 -5 18 -8 19 -27 9 -12 -7 -33 -10 -46 -7
-16 3 -24 0 -24 -10 0 -10 -6 -12 -20 -8 -40 13 -40 -7 1 -37 l41 -30 22 21
c26 24 46 27 46 7 0 -7 12 -34 26 -59 19 -35 23 -51 15 -64 -7 -14 -4 -24 15
-42 13 -13 24 -29 24 -35 0 -9 22 -12 69 -12 51 0 73 -5 86 -17 21 -22 35 -22
35 0 0 9 3 13 7 9 4 -4 6 -22 5 -40 -3 -29 0 -34 23 -40 14 -4 30 -4 35 -1 6
4 10 -3 10 -14 0 -11 11 -28 25 -39 14 -11 25 -25 25 -30 0 -6 9 -13 20 -17
10 -3 24 -20 31 -38 14 -37 73 -80 99 -72 13 4 20 -1 25 -15 4 -11 10 -18 15
-15 5 3 11 -9 15 -27 4 -18 14 -41 22 -50 9 -10 13 -26 10 -38 -3 -11 -2 -20
3 -20 4 0 15 -12 25 -26 13 -20 14 -28 4 -40 -17 -20 -18 -73 -3 -105 10 -19
11 -36 4 -60 -14 -49 -12 -67 10 -89 11 -11 20 -24 20 -29 0 -13 -25 -20 -49
-14 -12 3 -21 1 -21 -6 0 -17 -37 -13 -44 4 -3 9 -18 15 -39 15 -24 0 -43 8
-61 26 -34 34 -34 23 0 -22 21 -27 23 -33 9 -28 -29 11 -11 -84 21 -113 13
-12 24 -27 24 -33 0 -5 3 -10 8 -10 4 0 12 -10 17 -22 6 -13 24 -30 42 -38 38
-18 62 -47 63 -75 0 -13 15 -30 40 -45 49 -30 57 -55 42 -130 -18 -85 -15
-109 13 -132 21 -16 25 -28 25 -72 0 -40 5 -57 20 -71 24 -22 26 -62 4 -87
-14 -15 -15 -20 -3 -34 9 -11 14 -44 15 -91 1 -62 -2 -73 -15 -72 -31 3 -35
-1 -16 -15 16 -12 17 -16 6 -30 -12 -14 -11 -19 4 -36 19 -21 8 -29 -12 -9
-15 15 -28 -6 -14 -23 6 -7 22 -28 37 -46 14 -17 30 -30 34 -27 28 18 55 -36
30 -61 -11 -11 23 -48 62 -68 13 -7 23 -21 23 -31 0 -11 7 -20 15 -20 9 0 16
-11 18 -30 2 -27 -3 -33 -43 -54 -39 -21 -48 -22 -56 -10 -7 12 -9 12 -9 -1 0
-9 6 -22 12 -28 10 -10 10 -15 -1 -22 -12 -7 -12 -11 -2 -24 11 -13 10 -18 -3
-32 -10 -9 -14 -24 -11 -35 4 -11 2 -19 -4 -19 -7 0 -7 -7 1 -20 11 -17 10
-22 -1 -29 -7 -5 -11 -13 -7 -19 3 -5 0 -14 -7 -20 -7 -7 -12 -35 -11 -76 1
-61 0 -67 -22 -72 -13 -3 -27 -18 -33 -35 -5 -16 -17 -29 -25 -29 -9 0 -16 -4
-16 -9 0 -5 -12 -11 -26 -14 -19 -3 -29 2 -41 20 -12 19 -18 21 -25 11 -7 -9
-8 -4 -4 14 6 26 4 27 -26 23 -18 -2 -46 -7 -61 -11 -21 -5 -32 -2 -43 12 -9
11 -12 13 -8 5 6 -11 3 -13 -12 -7 -10 4 -15 4 -12 0 13 -13 -11 -42 -30 -37
-14 3 -18 -1 -17 -16 1 -11 4 -23 8 -27 9 -9 -34 -64 -50 -64 -9 0 -13 -14
-13 -43 0 -29 -8 -54 -25 -79 -14 -20 -25 -46 -25 -57 0 -12 -6 -21 -14 -21
-8 0 -18 -10 -21 -21 -6 -18 -13 -20 -40 -16 -29 5 -33 3 -28 -11 3 -9 10 -23
16 -29 6 -9 6 -13 -2 -13 -6 0 -11 -8 -11 -19 0 -10 -11 -35 -25 -55 -14 -21
-25 -51 -25 -71 0 -46 -9 -65 -31 -65 -17 0 -24 -11 -20 -32 0 -4 -18 -6 -40
-4 -23 3 -52 0 -65 -6 -17 -8 -27 -8 -38 1 -12 10 -19 8 -35 -8 -12 -12 -30
-21 -41 -21 -25 0 -26 -12 -2 -32 23 -21 72 -32 72 -17 0 7 8 5 20 -6 11 -10
20 -24 20 -30 0 -7 7 -16 16 -19 8 -3 12 -2 9 4 -3 6 0 19 8 30 12 18 16 18
26 6 10 -12 8 -15 -9 -18 l-22 -3 24 -25 c13 -14 36 -35 51 -47 16 -13 27 -33
27 -47 0 -13 16 -53 35 -88 l34 -65 -35 -14 -36 -14 33 -27 c28 -24 33 -34 31
-65 -2 -21 -7 -40 -13 -43 -5 -4 -1 -14 11 -25 11 -10 20 -25 20 -34 0 -14 2
-14 10 -1 8 13 11 12 16 -7 3 -11 14 -23 24 -26 13 -3 17 -1 13 10 -4 11 0 14
13 11 13 -2 20 -13 22 -36 2 -18 10 -36 17 -39 11 -4 12 -10 4 -24 -15 -28 -3
-39 41 -39 21 0 45 -6 52 -14 12 -12 17 -9 34 16 16 25 24 29 57 26 l37 -4 0
48 c0 52 4 56 32 31 10 -9 28 -21 39 -27 12 -6 21 -15 19 -20 -3 -15 28 -27
54 -20 16 4 23 11 19 20 -3 8 0 14 7 14 6 0 9 4 6 9 -4 5 -1 11 6 13 10 4 10
11 -1 34 -8 16 -14 32 -13 37 1 4 3 25 4 47 1 26 6 40 15 40 27 0 9 34 -23 44
-12 4 -29 15 -39 26 -18 20 -17 20 16 22 19 0 39 1 46 1 8 0 11 21 10 69 -2
58 1 71 17 80 16 9 17 18 11 66 -7 59 -20 97 -43 124 -12 15 -10 16 28 11 36
-5 42 -3 47 16 3 11 9 21 14 21 5 0 4 11 -1 24 -8 22 -6 24 43 36 29 7 70 13
92 14 22 1 54 5 72 10 19 4 40 3 52 -4 18 -9 21 -8 21 9 0 26 38 61 67 61 12
0 27 9 33 20 10 19 11 19 67 -2 41 -16 58 -19 61 -10 5 15 29 16 34 2 2 -6 28
-17 58 -25 30 -7 65 -17 78 -20 16 -6 22 -3 22 9 0 9 4 16 9 16 5 0 20 21 34
48 23 43 28 47 63 47 22 1 45 -3 52 -8 7 -6 17 -5 27 3 9 7 28 10 48 6 22 -4
40 -1 52 9 11 8 27 15 35 15 8 0 25 24 38 54 16 36 31 56 45 60 41 11 94 6
107 -9 11 -13 15 -14 29 -1 9 7 39 25 67 39 27 14 56 33 63 41 8 9 26 16 41
16 23 0 29 5 34 30 4 21 16 36 38 48 17 9 42 27 55 39 23 22 23 22 36 3 15
-25 21 -25 82 5 28 13 60 25 73 25 13 0 22 6 22 16 0 11 5 14 16 10 15 -6 15
-4 3 11 -12 15 -12 16 4 10 10 -4 21 -7 23 -7 9 0 4 -39 -6 -45 -13 -8 -13
-55 0 -75 9 -13 10 -13 10 0 1 12 3 11 11 -3 15 -26 4 -47 -26 -47 -26 0 -29
-4 -39 -51 -7 -33 -51 -63 -91 -64 -25 0 -30 -4 -31 -25 0 -14 3 -31 7 -39 4
-8 2 -23 -4 -33 -8 -12 -9 -26 -1 -45 13 -37 7 -60 -17 -66 -11 -3 -20 -5 -22
-4 -1 1 -16 -8 -34 -21 -17 -12 -36 -22 -42 -22 -6 0 -10 -3 -10 -7 3 -19 -3
-22 -26 -13 -14 5 -31 7 -39 4 -19 -7 -36 -48 -29 -73 4 -16 2 -20 -10 -15
-12 4 -14 1 -10 -15 3 -13 1 -21 -6 -21 -7 0 -9 -5 -6 -11 4 -6 14 -8 22 -5
12 5 14 1 11 -17 -3 -15 0 -24 8 -24 7 0 10 7 7 16 -5 13 -3 14 7 4 12 -11 9
-19 -16 -45 -16 -18 -32 -34 -36 -36 -5 -2 -8 -14 -8 -27 0 -19 -7 -23 -39
-28 -21 -2 -52 -15 -69 -27 -21 -16 -39 -21 -58 -17 -35 6 -88 -19 -105 -50
-9 -17 -18 -22 -32 -17 -22 7 -37 -10 -37 -41 0 -20 -8 -26 -89 -65 -41 -19
-45 -19 -62 -4 -18 16 -39 12 -39 -9 0 -7 7 -25 15 -40 13 -25 13 -29 -6 -48
-11 -11 -25 -17 -32 -12 -7 4 -14 8 -17 9 -3 0 -13 4 -23 8 -24 11 -65 -1 -90
-27 -26 -27 -61 -25 -54 3 4 15 -2 19 -34 22 -22 2 -39 0 -39 -4 0 -5 5 -8 11
-8 6 0 20 -11 30 -24 16 -20 68 -41 91 -38 11 2 46 -51 53 -81 4 -15 13 -27
19 -27 12 0 18 -10 46 -72 6 -13 9 -41 8 -63 -3 -35 0 -41 27 -55 40 -20 46
-30 40 -60 -3 -14 -2 -20 2 -14 15 21 51 23 68 4 9 -10 22 -17 28 -16 7 2 9 1
5 -1 -9 -5 5 -35 27 -57 11 -10 26 -13 45 -9 27 5 30 3 30 -21 0 -15 -7 -38
-16 -51 -20 -30 -16 -31 35 -4 29 15 49 19 71 14 19 -4 36 -2 45 5 8 7 22 10
30 6 9 -3 15 0 15 10 0 11 4 12 19 4 11 -5 29 -9 41 -7 12 1 27 -6 33 -15 9
-14 8 -20 -8 -32 -18 -13 -19 -15 -3 -21 13 -5 15 -11 8 -25 -14 -26 27 -66
81 -80 24 -6 49 -13 56 -15 7 -2 15 1 19 6 3 6 17 8 30 5 18 -5 24 -2 25 11 0
14 3 12 10 -5 5 -13 7 -28 4 -32 -8 -13 11 -21 29 -14 14 5 14 9 4 22 -11 13
-9 15 20 9 19 -4 32 -2 32 4 0 6 6 6 18 0 21 -11 62 10 62 32 0 7 4 18 9 26 8
12 13 12 36 -3 24 -16 30 -16 70 -2 25 8 50 19 57 25 7 6 32 25 55 41 32 22
40 34 36 49 -5 21 4 27 22 13 19 -13 58 -76 58 -91 0 -29 30 -41 95 -38 59 2
66 0 86 -25 12 -16 29 -28 38 -28 9 0 32 -9 51 -20 20 -12 42 -18 51 -14 22 9
76 -42 76 -72 0 -20 62 -84 82 -84 4 0 8 -6 8 -14 0 -8 7 -17 16 -20 13 -5 15
-14 9 -42 -7 -40 6 -64 36 -64 11 0 19 -6 20 -12 1 -19 6 -41 14 -61 7 -16 4
-17 -21 -12 -26 6 -27 5 -11 -8 9 -8 17 -19 17 -24 0 -6 6 -16 14 -22 8 -7 17
-30 21 -52 4 -25 14 -43 28 -51 29 -16 47 -18 47 -7 0 5 9 9 19 9 11 0 27 10
35 21 11 16 22 20 42 16 21 -4 32 1 47 19 10 13 21 24 25 24 4 0 17 -16 30
-35 12 -19 29 -35 37 -35 19 0 19 9 -1 49 -12 24 -13 35 -5 45 9 10 8 15 -4
20 -10 3 -15 -1 -16 -12 0 -10 -5 -6 -11 11 -9 26 -11 27 -23 10 -15 -20 -19
-18 -30 15 -6 20 -4 23 12 19 10 -3 36 -9 57 -13 38 -7 39 -6 32 19 -6 25 -5
26 23 21 27 -6 31 -3 38 22 4 16 6 35 5 42 -2 9 8 11 35 8 63 -8 112 -33 119
-61 11 -43 31 -51 59 -25 14 13 25 29 25 36 0 7 6 17 14 21 8 4 16 17 18 28 3
15 11 20 36 20 24 0 32 4 32 17 0 16 18 24 45 18 5 -1 15 6 22 16 8 11 21 15
38 12 30 -6 40 6 36 47 -1 22 5 37 22 53 18 17 23 31 21 55 -5 48 8 64 41 49
23 -11 32 -10 59 6 17 10 32 28 34 39 2 13 8 20 16 17 8 -3 16 4 19 17 4 14
11 20 21 16 8 -3 18 -1 22 5 4 7 10 5 15 -5 9 -16 49 -12 49 5 0 5 4 7 9 3 5
-3 31 6 56 20 l47 25 19 -23 c11 -13 18 -17 19 -9 0 19 23 39 38 34 6 -2 12 1
12 7 0 6 3 10 8 9 4 0 15 2 24 6 13 6 15 13 7 33 -6 16 -5 31 2 45 9 17 7 24
-9 41 -17 16 -18 23 -9 38 8 13 9 25 2 37 -6 9 -9 34 -7 56 l3 38 57 -5 c170
-18 277 -55 270 -93 -2 -8 10 -23 25 -32 27 -16 29 -16 38 1 6 9 20 17 33 17
18 0 29 12 50 52 23 45 25 53 11 60 -22 13 -19 55 6 69 15 8 19 8 15 0 -9 -14
-3 -14 31 1 41 18 54 33 41 46 -7 7 -16 7 -28 0 -15 -9 -23 -5 -50 25 -18 20
-38 37 -45 37 -7 0 -23 8 -36 19 l-22 18 22 37 23 37 -23 27 c-13 15 -28 30
-32 33 -5 3 -3 9 5 11 8 4 31 -16 58 -50 51 -63 110 -93 139 -69 20 16 44 15
65 -2 9 -7 16 -9 16 -3 0 5 15 17 33 26 17 8 26 16 20 16 -7 0 -13 9 -13 21 0
12 4 17 11 14 5 -4 19 1 30 11 17 15 19 15 19 1 0 -22 40 -44 50 -27 5 8 24
11 52 9 39 -4 44 -2 40 14 -2 9 -8 17 -12 17 -4 0 0 16 8 35 16 34 18 35 69
34 59 -2 82 -18 60 -41 -8 -8 -18 -29 -22 -47 -5 -25 -3 -35 10 -45 25 -18 65
2 65 31 0 23 0 23 33 4 17 -10 50 -21 72 -25 21 -4 52 -14 67 -22 17 -9 29
-10 33 -4 10 17 61 11 85 -10 26 -22 36 -25 45 -10 8 13 62 13 70 0 9 -15 25
-12 25 5 0 8 6 15 14 15 9 0 13 10 12 30 -2 26 1 29 28 32 22 2 30 8 28 19 -1
9 5 22 13 29 21 18 19 47 -5 55 -17 5 -25 28 -21 57 0 4 -15 17 -35 29 -25 15
-32 25 -25 32 22 22 12 45 -21 52 -18 4 -52 14 -75 22 -29 9 -49 11 -61 4 -11
-6 -24 -6 -35 0 -12 7 -17 6 -17 -2 0 -7 -13 -1 -28 14 -26 25 -29 26 -51 11
-20 -14 -26 -15 -48 -3 -14 8 -31 14 -37 14 -18 1 -66 28 -66 37 0 5 -21 18
-47 29 -26 11 -56 29 -67 39 -70 65 -92 83 -105 85 -10 1 -15 10 -13 21 2 11
7 39 12 64 9 50 8 52 -18 56 -52 6 -85 19 -101 40 -10 13 -21 20 -25 17 -3 -3
-6 5 -6 19 0 21 -4 25 -19 21 -33 -8 -185 75 -178 97 6 17 -35 52 -65 55 -118
12 -126 15 -163 67 -20 27 -46 53 -58 59 -16 7 -30 29 -42 65 -11 34 -23 53
-31 50 -15 -6 -56 23 -49 35 4 5 0 9 -8 9 -17 0 -27 21 -27 55 0 42 -12 55
-71 85 -43 22 -66 28 -88 24 -17 -4 -31 -10 -31 -15 0 -5 -13 -9 -28 -9 -41 0
-42 -45 -2 -83 17 -16 30 -33 30 -39 0 -6 7 -5 16 3 14 11 19 10 35 -9 29 -36
-1 -91 -35 -66 -22 16 -73 8 -101 -16 -24 -20 -55 -33 -55 -21 0 8 -44 31 -60
31 -6 0 -10 -11 -10 -25 0 -14 -7 -28 -15 -31 -8 -4 -15 -10 -15 -16 0 -18
-28 -38 -45 -32 -10 4 -15 2 -13 -6 3 -13 -71 -40 -109 -40 -13 0 -23 -6 -23
-14 0 -7 -9 -16 -20 -19 -30 -8 -90 11 -90 28 0 8 -4 15 -10 15 -5 0 -10 -7
-10 -15 0 -8 -7 -15 -15 -15 -8 0 -24 -5 -35 -12 -15 -10 -26 -10 -53 0 -51
19 -56 16 -50 -27 5 -37 3 -41 -21 -47 -19 -4 -26 -13 -26 -30 0 -19 -5 -24
-24 -24 -13 0 -26 -6 -29 -14 -7 -18 1 -26 25 -26 10 0 18 -4 18 -9 0 -16 -30
-21 -50 -9 -22 14 -34 38 -19 38 6 0 7 5 3 11 -3 6 -17 8 -29 5 -19 -5 -26 0
-37 24 -13 29 -22 33 -98 43 -18 3 -37 41 -41 82 -2 17 -11 41 -21 54 -10 13
-18 34 -18 47 0 15 -6 24 -16 24 -8 0 -13 3 -10 8 2 4 -9 26 -25 50 -16 23
-29 47 -29 52 0 5 -9 14 -20 20 -17 9 -18 14 -9 32 9 16 8 22 -2 29 -20 13
-29 11 -29 -6 0 -19 -3 -19 -49 5 -21 10 -41 16 -45 13 -3 -3 -12 -1 -20 6
-11 9 -23 8 -56 -3 -46 -16 -48 -15 -52 47 -3 35 -7 40 -39 51 -19 7 -40 11
-47 8 -7 -2 -15 3 -18 12 -4 10 -14 14 -28 11 -14 -4 -31 4 -54 25 -18 16 -40
30 -48 30 -10 0 -14 8 -12 21 2 14 -4 24 -18 29 -17 7 -20 4 -20 -13 1 -17 -5
-22 -24 -22 -18 0 -26 -6 -28 -22 -2 -15 -11 -23 -30 -25 -18 -2 -28 -10 -30
-23 -3 -11 -9 -26 -15 -33 -14 -17 -27 2 -27 40 0 18 -7 29 -19 33 -12 3 -18
12 -15 20 4 8 -10 22 -35 37 -23 13 -41 26 -41 30 0 4 -12 20 -26 35 -47 50
-76 92 -70 101 3 5 -18 9 -47 9 -92 1 -118 8 -144 42 -13 17 -22 31 -18 31 3
0 -9 14 -27 30 -18 17 -27 30 -20 30 19 0 14 59 -8 87 -15 19 -18 34 -14 63 5
32 3 38 -15 43 -17 4 -21 13 -21 45 0 23 5 44 10 47 14 9 13 68 -2 83 -9 9 -8
16 6 30 22 25 46 105 47 155 0 9 4 17 9 17 4 0 8 6 7 13 0 6 1 29 1 50 2 32 5
37 27 37 20 0 25 5 25 24 0 14 -5 28 -10 31 -6 3 -17 20 -26 36 -15 30 -15 30
5 19 17 -9 21 -8 21 5 0 8 7 15 16 15 8 0 12 5 8 11 -9 16 15 56 38 62 11 3
22 15 25 26 6 24 8 25 33 11 28 -15 62 3 84 45 14 25 29 38 48 42 15 3 28 12
28 19 0 8 9 14 20 14 11 0 20 5 20 11 0 7 11 9 28 6 31 -6 102 13 102 28 0 5
5 3 10 -5 8 -13 10 -12 10 3 0 11 8 17 23 17 41 0 82 -28 132 -90 26 -33 53
-61 59 -62 26 -3 32 -5 55 -12 15 -5 32 -3 48 5 20 11 26 11 33 -1 5 -8 6 -18
4 -22 -3 -4 -1 -8 5 -8 5 0 13 5 16 10 11 17 23 11 29 -16 7 -25 8 -25 26 -9
10 9 23 14 28 11 15 -9 23 21 9 33 -7 5 -14 22 -15 37 -2 21 2 25 16 22 18 -5
42 19 42 43 0 5 14 22 30 36 17 13 30 33 30 43 0 10 9 22 20 25 21 7 27 30 9
40 -6 5 -4 12 7 20 27 19 24 127 -5 183 -12 23 -17 42 -11 42 15 0 12 53 -5
77 -8 12 -13 28 -10 35 3 8 -5 31 -19 51 -40 59 -49 79 -38 86 5 3 12 15 14
26 2 13 -5 22 -25 29 -25 9 -31 7 -61 -27 -18 -20 -50 -43 -72 -50 -32 -12
-40 -20 -47 -50 -7 -30 -15 -38 -45 -47 -21 -6 -43 -13 -50 -16 -10 -3 -10 -9
-2 -24 9 -16 8 -20 -5 -20 -9 0 -15 9 -15 21 0 18 -3 19 -15 9 -19 -16 -53 -4
-57 22 -3 22 -13 29 -65 46 -25 8 -33 7 -37 -4 -7 -18 -39 -13 -64 9 -10 9
-27 17 -36 17 -10 0 -31 9 -47 21 -16 11 -29 15 -29 9 0 -18 -42 9 -47 31 -5
18 -7 19 -29 4 -29 -19 -44 -19 -44 -1 0 7 -7 19 -15 26 -9 7 -14 15 -12 17 3
2 -9 18 -26 36 -19 20 -32 27 -34 20 -6 -16 -33 -17 -33 -3 0 6 -6 10 -12 8
-7 -1 -32 5 -54 14 -40 16 -60 40 -48 59 3 5 -8 17 -25 27 -30 16 -58 72 -47
90 8 14 -12 78 -29 92 -13 11 -14 10 -8 -5 5 -15 3 -17 -11 -12 -10 4 -31 7
-47 7 -22 0 -32 6 -39 25 -5 14 -26 35 -45 46 -19 12 -35 25 -35 31 0 5 -8 7
-19 3 -10 -3 -23 1 -30 9 -11 13 -20 12 -68 -5 -53 -18 -58 -18 -75 -2 -10 9
-18 12 -18 7 0 -6 -19 -11 -42 -13 -24 -1 -47 -6 -52 -12 -6 -5 -13 -9 -18 -9
-10 0 -38 62 -43 96 -2 16 -5 31 -6 34 -1 3 -3 10 -3 15 -1 6 -11 20 -24 33
-22 22 -31 82 -12 82 21 0 -51 89 -72 90 -5 0 -8 -7 -8 -15 0 -25 -30 -17 -40
11 -7 17 -6 32 1 46 9 16 7 24 -6 37 -15 15 -16 15 -9 -1 4 -13 1 -18 -10 -18
-9 0 -16 5 -16 10 0 19 -2 25 -11 37 -12 14 37 117 51 108 23 -14 7 19 -21 46
l-31 28 28 26 c21 19 24 28 15 39 -6 7 -9 21 -5 30 3 9 0 31 -7 48 -10 24 -10
33 -1 36 14 4 16 42 2 42 -5 0 -10 10 -10 22 l0 22 -15 -21 c-10 -14 -21 -20
-32 -16 -12 5 -14 3 -8 -7 5 -9 4 -11 -4 -6 -6 4 -17 3 -24 -2 -21 -17 -99
-12 -128 9 -15 10 -32 19 -38 19 -6 0 -11 9 -11 20 0 11 -7 20 -15 20 -8 0
-15 -7 -15 -15 0 -8 -4 -15 -10 -15 -5 0 -17 -14 -25 -30 -19 -37 -46 -70 -57
-70 -5 0 -17 14 -27 31 -15 25 -19 27 -25 13 -5 -14 -9 -15 -19 -4 -9 10 -9
13 1 17 20 7 14 23 -9 23 -17 0 -20 5 -17 25 6 31 -10 32 -47 3 -23 -18 -31
-19 -47 -9 -22 14 -21 14 -37 -16 -6 -13 -19 -23 -27 -23 -8 0 -13 -4 -9 -9 3
-6 -3 -15 -14 -21 -12 -6 -18 -17 -15 -24 4 -11 0 -13 -16 -9 -15 4 -26 0 -32
-11 -13 -24 -42 -21 -35 4 4 15 -7 31 -43 61 -30 25 -51 53 -55 70 -4 16 -11
31 -16 34 -5 4 -9 17 -9 30 0 13 -6 28 -12 32 -7 4 -24 31 -38 58 -27 54 -97
135 -116 135 -7 0 -20 -7 -28 -16z m-126 -1124 c0 -5 -2 -10 -4 -10 -3 0 -8 5
-11 10 -3 6 -1 10 4 10 6 0 11 -4 11 -10z m-136 -36 c6 -17 1 -18 -25 -3 -11
5 -17 14 -14 19 7 12 32 2 39 -16z m2401 -463 c3 -5 1 -12 -4 -15 -5 -3 -11 1
-15 9 -6 16 9 21 19 6z m2145 -2239 c0 -8 -6 -12 -15 -8 -10 3 -15 -1 -15 -11
0 -14 -2 -14 -20 2 -18 16 -18 19 -3 41 15 23 17 24 34 8 11 -10 19 -24 19
-32z m582 -625 c-12 -6 -25 -7 -29 -3 -11 10 18 25 35 18 13 -4 11 -8 -6 -15z
m194 -38 c8 -14 -22 -16 -51 -3 l-30 14 38 -2 c21 -1 40 -5 43 -9z m395 -326
c13 -16 12 -17 -3 -4 -17 13 -22 21 -14 21 2 0 10 -8 17 -17z m-731 -43 c0 -5
-5 -10 -11 -10 -5 0 -7 5 -4 10 3 6 8 10 11 10 2 0 4 -4 4 -10z m-10 -49 c0
-20 59 -74 74 -68 18 7 31 -8 16 -18 -5 -3 -10 -13 -10 -21 0 -8 5 -12 10 -9
6 3 10 -3 10 -13 0 -42 -65 -33 -101 13 -11 13 -28 27 -39 30 -27 9 -27 51 0
58 11 3 20 12 20 21 0 9 5 16 10 16 6 0 10 -4 10 -9z m1090 -111 c0 -5 -4 -10
-10 -10 -5 0 -10 5 -10 10 0 6 5 10 10 10 6 0 10 -4 10 -10z m-4674 -157 c-3
-8 -6 -17 -6 -19 0 -3 -4 -2 -10 1 -17 11 -12 45 6 38 8 -3 13 -12 10 -20z
m-6 -48 c0 -8 -4 -15 -10 -15 -5 0 -10 7 -10 15 0 8 5 15 10 15 6 0 10 -7 10
-15z m2452 -170 c0 -5 -5 -11 -11 -13 -6 -2 -11 4 -11 13 0 9 5 15 11 13 6 -2
11 -8 11 -13z m460 -45 c4 -29 2 -35 -12 -36 -35 -2 -40 -5 -40 -18 0 -8 -4
-18 -10 -21 -6 -4 -10 7 -10 27 0 25 6 36 23 44 29 15 47 16 49 4z m38 -91 c0
-5 -4 -9 -10 -9 -5 0 -10 7 -10 16 0 8 5 12 10 9 6 -3 10 -10 10 -16z m-900
-586 c0 -14 -20 -39 -20 -25 0 6 -8 12 -17 13 -15 0 -15 2 2 9 26 11 35 12 35
3z m-243 -219 c-3 -3 -12 -4 -19 -1 -8 3 -5 6 6 6 11 1 17 -2 13 -5z"/>
<path d="M5123 11542 c-13 -2 -23 -10 -23 -18 0 -16 -14 -18 -39 -5 -13 8 -19
3 -30 -20 -7 -17 -10 -33 -7 -37 4 -3 33 -5 65 -4 69 3 102 -17 79 -47 -7 -9
-9 -13 -4 -9 5 4 17 3 28 -3 14 -7 23 -7 34 2 24 20 12 51 -31 80 -22 15 -42
36 -45 46 -3 12 -12 17 -27 15z"/>
<path d="M5310 11475 c0 -8 -6 -15 -14 -15 -8 0 -17 -3 -19 -7 -4 -7 8 -8 71
-4 10 1 10 5 0 21 -15 23 -38 27 -38 5z"/>
<path d="M5370 11471 c0 -5 5 -13 10 -16 6 -3 10 -2 10 4 0 5 -4 13 -10 16 -5
3 -10 2 -10 -4z"/>
<path d="M5115 11420 c-3 -5 1 -13 10 -16 22 -9 29 1 11 15 -10 8 -16 9 -21 1z"/>
<path d="M11900 10204 c0 -24 4 -34 13 -32 19 7 21 54 3 61 -13 5 -16 -1 -16
-29z"/>
<path d="M11966 10195 c4 -8 11 -15 16 -15 6 0 5 6 -2 15 -7 8 -14 15 -16 15
-2 0 -1 -7 2 -15z"/>
<path d="M8800 9798 c1 -17 25 -48 37 -48 6 0 13 9 16 19 3 13 -3 22 -20 30
-30 14 -33 14 -33 -1z"/>
<path d="M9150 8625 c10 -13 9 -15 -11 -15 -22 -1 -22 -2 -6 -11 12 -7 22 -8
28 -2 11 11 1 43 -13 43 -6 0 -5 -6 2 -15z"/>
<path d="M13068 8073 c-25 -13 -33 -24 -29 -45 2 -12 -14 -9 -28 5 -10 10 -11
9 -7 -3 3 -10 -20 -35 -67 -72 -71 -55 -72 -56 -92 -38 -23 21 -86 23 -93 3
-2 -7 1 -13 7 -13 6 0 11 -7 11 -16 0 -13 3 -14 15 -4 12 10 16 9 21 -4 3 -9
12 -16 20 -16 9 0 14 -11 14 -30 0 -28 2 -29 24 -19 13 6 29 22 35 36 7 16 17
23 29 19 9 -2 27 -7 40 -11 16 -5 22 -2 22 10 0 12 5 15 22 10 17 -6 20 -4 15
9 -8 20 2 20 31 0 12 -8 22 -10 22 -5 0 6 12 11 27 11 15 0 41 10 59 22 46 32
58 88 18 88 -13 0 -18 12 -15 33 0 4 -3 7 -9 7 -5 0 -19 9 -30 20 -23 23 -25
23 -62 3z"/>
<path d="M12739 7890 c-1 -3 -3 -31 -4 -63 -3 -54 -2 -58 19 -55 30 4 34 63 6
98 -11 14 -20 23 -21 20z"/>
<path d="M13260 7780 c0 -5 5 -10 10 -10 6 0 10 5 10 10 0 6 -4 10 -10 10 -5
0 -10 -4 -10 -10z"/>
<path d="M12725 7740 c-3 -5 1 -10 10 -10 9 0 13 5 10 10 -3 6 -8 10 -10 10
-2 0 -7 -4 -10 -10z"/>
<path d="M14921 7268 c1 -56 -11 -117 -23 -125 -6 -3 -1 -13 13 -24 22 -16 22
-19 7 -36 -12 -13 -14 -23 -7 -36 6 -9 6 -17 2 -17 -4 0 5 -7 21 -15 15 -8 30
-15 32 -15 8 0 4 36 -5 46 -5 5 -11 23 -13 39 -2 25 1 31 20 33 12 2 22 9 23
15 0 7 2 24 3 39 1 19 -5 30 -20 37 -14 6 -25 25 -33 55 -6 25 -14 46 -16 46
-3 0 -5 -19 -4 -42z"/>
<path d="M14991 7008 c-1 -9 -10 -23 -22 -31 -23 -16 -45 -89 -25 -81 6 2 53
1 104 -4 51 -4 95 -6 97 -4 8 9 -72 82 -107 96 -20 9 -38 21 -41 28 -4 8 -6 7
-6 -4z"/>
<path d="M14635 6970 c3 -5 8 -10 11 -10 2 0 4 5 4 10 0 6 -5 10 -11 10 -5 0
-7 -4 -4 -10z"/>
<path d="M15361 6966 c-7 -8 -23 -17 -36 -20 -13 -3 -26 -15 -30 -25 -3 -11
-19 -24 -35 -30 -17 -5 -30 -14 -30 -20 0 -17 24 -18 59 0 24 12 41 14 53 8
30 -16 47 -11 40 13 -4 17 -2 20 11 15 9 -3 19 -2 22 3 4 6 -1 10 -10 10 -10
0 -15 6 -12 13 3 7 -1 21 -8 30 -11 15 -14 15 -24 3z"/>
<path d="M15006 6747 c3 -10 9 -15 12 -12 3 3 0 11 -7 18 -10 9 -11 8 -5 -6z"/>
<path d="M14320 6585 c-7 -9 -8 -15 -2 -15 6 0 13 6 15 13 4 7 8 3 12 -10 7
-23 35 -33 35 -13 0 6 -4 10 -10 10 -5 0 -9 5 -7 12 3 18 -28 21 -43 3z"/>
<path d="M14302 6520 c-13 -11 -30 -16 -37 -13 -8 3 -15 0 -15 -6 0 -6 -8 -8
-17 -5 -10 3 -7 -1 6 -9 29 -17 48 -13 78 19 28 28 16 39 -15 14z"/>
<path d="M8655 6500 c-3 -5 -1 -10 4 -10 6 0 11 5 11 10 0 6 -2 10 -4 10 -3 0
-8 -4 -11 -10z"/>
<path d="M14296 6244 c-9 -23 -2 -28 13 -10 7 8 8 17 3 20 -6 3 -13 -1 -16
-10z"/>
<path d="M13939 6227 c25 -27 23 -57 -4 -57 -8 0 -15 -6 -15 -14 0 -8 -7 -16
-15 -20 -12 -4 -13 -10 -3 -31 20 -45 98 -25 98 26 0 13 7 19 21 19 19 0 19 1
5 16 -9 8 -14 19 -11 24 3 4 -2 10 -10 14 -8 3 -15 12 -15 20 0 9 -6 13 -14
10 -8 -3 -25 0 -38 7 l-23 12 24 -26z"/>
<path d="M14214 6126 c-5 -6 -16 -25 -24 -42 -13 -30 -15 -30 -69 -26 -30 3
-62 11 -69 19 -8 8 -21 12 -29 9 -8 -3 -17 -6 -19 -6 -2 0 -4 -16 -4 -36 0
-27 7 -41 26 -56 15 -12 23 -26 19 -35 -3 -9 -1 -21 5 -28 8 -9 6 -17 -5 -28
-8 -9 -15 -22 -15 -30 0 -25 11 -47 21 -41 5 3 9 -6 9 -20 0 -33 33 -52 54
-31 8 8 19 15 25 15 6 0 11 6 11 13 0 13 44 37 67 37 11 0 11 5 3 20 -10 18
-8 19 22 14 18 -3 39 -8 46 -10 7 -2 -3 17 -23 43 -19 25 -35 52 -35 59 0 23
12 44 25 44 10 0 8 12 -6 51 -11 28 -15 48 -9 44 5 -3 10 0 10 8 0 19 -22 28
-36 13z"/>
<path d="M14010 6115 c0 -2 9 -9 20 -15 16 -9 20 -8 20 5 0 8 -9 15 -20 15
-11 0 -20 -2 -20 -5z"/>
<path d="M14265 5840 c-3 -5 1 -10 10 -10 9 0 13 5 10 10 -3 6 -8 10 -10 10
-2 0 -7 -4 -10 -10z"/>
<path d="M12371 5468 c0 -10 -8 -18 -16 -18 -9 0 -19 -10 -24 -22 -9 -24 -6
-38 9 -38 14 0 42 59 37 78 -4 15 -5 15 -6 0z"/>
<path d="M12400 5356 c0 -2 7 -7 16 -10 8 -3 12 -2 9 4 -6 10 -25 14 -25 6z"/>
<path d="M12474 5333 c2 -25 -42 -30 -60 -6 -12 15 -13 15 -8 1 11 -32 -11
-55 -50 -50 -20 2 -36 0 -36 -5 0 -21 33 -53 55 -53 13 0 39 -9 58 -20 30 -18
36 -19 47 -5 7 8 21 15 31 15 9 0 24 7 33 15 8 8 19 15 25 15 19 0 12 17 -9
23 -13 3 -20 0 -20 -9 0 -8 -5 -14 -11 -14 -5 0 -7 -6 -3 -12 4 -7 -3 -4 -15
7 -20 17 -22 27 -18 68 5 35 3 47 -7 47 -8 0 -13 -8 -12 -17z"/>
<path d="M12620 5200 c6 -11 15 -20 20 -20 16 0 11 27 -6 34 -24 9 -26 8 -14
-14z"/>
</g>
</svg>
