<svg version="1" xmlns="http://www.w3.org/2000/svg" width="1398.15" height="1211.299" viewBox="0 0 1048.612 908.474"><g fill="#222"><path d="M207.928.874c-.6.8-2 1.2-3 .9-1.3-.3-2.1.2-2.6 1.6-.4 1.2-1.2 1.8-2.1 1.4-1.8-.7-8.6.6-8 1.5.3.4-1.1.6-3 .4-1.9-.2-3.4 0-3.4.6 0 .9-5.8.2-9.2-1.2-1.1-.5-1.8-.2-2.1 1.1-.4 1.4-.7 1.2-1.7-1.3-.8-1.7-2-3.6-2.9-4.1-1.3-.8-1.6-.5-1.7 1.3-.1 1.3.2 2.4.7 2.4.5 0 .9.7.9 1.5s-.4 1.5-1 1.5c-.5 0-.7.7-.4 1.5.5 1.1-.1 1.3-3 .8-2.4-.4-3.6-.2-3.6.6 0 .7.4 1 .9.6.5-.3 1.2-.1 1.6.5.3.5.1 1-.6 1-.8 0-.9.3 0 1.3.6.8 1 1.6.8 1.8-.1.2.3-.1.8-.7.6-.6 3.3-1.2 6.2-1.3 4.9-.1 6.7.8 6.8 3.3 0 1 .6 1.1 11.9 2 5 .4 7.7 1.2 10 2.9 2.5 1.9 3.7 2.2 6.1 1.5 1.7-.4 3.5-.6 4.2-.4.6.3 1.7-.2 2.3-1 .7-.8 1.9-1.4 2.6-1.4.8 0 2.6-1.3 4-3 1.5-1.6 3.1-2.7 3.7-2.3.6.4.8 0 .4-1.1-.6-1.5-.3-1.4 2.3.4 1.6 1.1 2.7 2.7 2.4 3.4-.6 1.5 5.6 6.6 8 6.6.8 0 1.8.4 2.1 1 .9 1.5 2.5 1.2 2.5-.5 0-1.3.4-1.4 2.1-.5 1.5.9 1.9 1.8 1.5 3.5-.5 1.8.2 3.1 2.4 5.4 3.7 3.7 6.9 3 6.1-1.3-.1-.4.4-1.4 1-2.2.7-.8.7-1.4.2-1.4-.6 0-2.3-1.9-3.9-4.2-2.1-2.9-2.9-5.4-2.9-8.4-.1-5.1-.9-6.2-3-4-1.5 1.4-1.9 1.4-4.6.1-3.1-1.6-5.9-5.3-6.3-8.2-.4-2.3-2.3-2.3-6-.1-2.7 1.5-3.1 1.6-4.1.1-.9-1.2-1.6-1.3-2.9-.6-1.8 1-6.6-.8-10-3.6-1-.8-1.6-.8-2.5.3zM151.128 22.174c-2 .8-1.5 2.3.7 2.3 1.1 0 2-.7 2-1.5 0-1.5-.6-1.7-2.7-.8zM260.828 37.274c0 .5.7 2.6 1.5 4.5 1.4 3.5 1.2 6.7-.6 6.7-.5 0-.9.9-.9 2s-.7 2.3-1.6 2.7c-1.2.4-1.4 1.4-1 3.8.6 3 .4 3.2-3.3 4.4-2.4.7-4.2 1.9-4.6 3.1-.4 1.1-1.1 2-1.6 2s-.9 1.3-.9 2.9c0 2 .8 3.6 2.8 5 2.1 1.6 2.3 2 1 2.1-2.3 0-2.2.4.3 5.7 1.7 3.5 2.8 4.5 6 5.3 2.1.6 3.9 1.5 3.9 2.1 0 .6-.5.7-1.1.4-.7-.5-.8.5-.4 2.9.5 2.3.3 3.6-.3 3.6s-2.5 1.3-4.2 2.8l-3 2.8 2.2 2.1c2.8 2.4 5.8 3.6 5.8 2.2 0-.5 1.8 0 4 1.1s4 2.5 4 3c0 .6 1 1 2.3 1 1.3 0 2.8.5 3.5 1.2 1.6 1.6-.3 4.8-2.8 4.8-1.6 0-2 .7-2 3 0 1.8-.5 3-1.3 3s-1.9 1.1-2.5 2.5c-.6 1.4-1.5 2.4-1.9 2.3-1.4-.4-5.3 1.3-5.3 2.2 0 1.4-6.3 0-7.6-1.6-.6-.8-1.7-1.4-2.3-1.4-.7 0-1.1-.6-1-1.3.3-2.7-.2-3.5-2.5-3.9-3.1-.6-4.2 1.7-2 3.9 1 1.1 1.4 2.6 1 4.3-.2 1.5 0 3.2.7 3.9.9.9.8 1.4-.3 2.1-.9.6-1.9.5-2.4 0-1.7-1.7-3.4-1.1-3.8 1.2-.2 1.8-1.5 2.7-5.2 3.9-2.8.9-5.2 2.4-5.5 3.3-.4 1.1-1 1.3-2.1.6-.8-.5-3-1-4.7-1-2.6 0-3.3.4-3.3 2 0 1.1-.4 2-.9 2s-1.9 1.1-3.2 2.5c-1.5 1.5-3.5 2.5-5.3 2.5-2.8 0-2.8.1-1.3 1.8 1 1 1.4 2.2 1 2.6-.4.3-.7 2.7-.8 5.3 0 3.6.3 4.7 1.7 5.1 1 .2 1.8 1.3 1.8 2.3 0 1 .5 2.1 1 2.4 1.6 1 1.2 8.2-.5 8.9-.9.3-1.5 1.8-1.5 3.5 0 2.4-.6 3.1-3.1 4-3.4 1.2-3.4 1-.6 8.6 1.3 3.4 1.3 4.1.2 4.8-.8.4-1.2 1.4-.8 2.2.7 2.1-1.3 4.3-4.8 5l-2.9.7 1.6 3.6c2.7 6.2 3.4 10.2 1.8 10.2-.8 0-1.4.7-1.4 1.5 0 .9-1.1 2-2.5 2.5s-2.5 1.4-2.5 2c0 .5-.4 1-1 1-.5 0-1-.7-1-1.5 0-1.1-.9-1.5-3-1.3-2.1.2-3 .7-3 2 0 .9-1 2.5-2.3 3.4l-2.3 1.8 2.2 2.3c1.2 1.3 2.6 2.3 3.1 2.3s1.8.9 2.8 2c1.2 1.3 2.2 1.7 2.9 1 .8-.6 2.9-.3 5.9.8 3.6 1.3 4.6 2.1 4.1 3.4-.3.9 0 3.5.7 5.8 1 3.2 1.7 4 3.6 4 1.6 0 3 1.1 4.3 3.2 1.1 1.8 1.5 3.4 1 3.6-1.3.5-.2 5.2 1.6 7.3.8.8 1.4 2 1.4 2.6 0 .6.6 1.3 1.3 1.6.6.2 2 2.7 3 5.5s2.5 5.6 3.3 6.2c1.1 1 1.1 1.4-.1 2.6-.7.8-2 1.4-2.8 1.4-1.7 0-2.9 2.4-2.1 4.3.3.8-.2 2-1.1 2.7-1.3 1.1-1.4 1.5-.1 2.9.7.9 1.7 3.1 2.1 4.9.6 3 .5 3.3-2.4 3.8-1.7.4-3.1 1.3-3.1 2 0 1.8-3.6 1.8-4.3 0-.3-.8-.1-1.6.5-1.8.6-.2.4-1.1-.6-2.1-1-.9-1.4-2.2-1-2.9.4-.7.3-1-.1-.5-.5.4-1.6 0-2.6-.9-1.3-1.2-3.6-1.6-8.3-1.5-6.1.1-6.6-.1-8.6-2.9-1.6-2.2-1.9-3.4-1.1-4.8.8-1.6.6-2.2-1.5-3.2-1.6-.9-2.2-1.9-1.9-3.1.5-1.5-1.3-3.1-4-3.3-.5-.1-1.1-1-1.3-2.1-.6-3.1-4.2-6.4-7.8-7.1-2.4-.4-3.5-1.3-4.3-3.4-1.1-3.3-.6-4 2.7-4 2.1 0 2.4-.4 2-2.9-.3-2.2-.1-2.8 1.1-2.3.9.3 1.2.1.7-.6-.4-.7-1.9-.9-3.6-.5-2.5.4-3.1.1-4.1-2-.6-1.4-2.1-2.7-3.1-2.9-2.3-.4-5.3-7.6-3.8-9.3.8-1-1-8.4-2.1-8.7-.2-.1-1.4.5-2.6 1.2-1.7 1.1-1.9 1.7-1.1 2.8 2 2.3-1.2 3.3-4.3 1.5-2.3-1.4-3-1.4-4.4-.3-.8.7-3.3 1.3-5.5 1.3s-3.7.4-3.4.8c.3.5 0 1.8-.6 2.9-.8 1.5-1.7 1.9-3.1 1.5-1-.4-1.9-.2-1.9.3s-1.3.7-2.9.4c-2.5-.3-2.9 0-3.4 2.5-.3 1.5-.8 3.7-1.2 4.8-.4 1.5.2 2.9 1.9 4.8 1.4 1.6 2.6 3.5 2.6 4.3 0 .9.5 2.4 1.1 3.5 1 2 .9 2-2 .5-1.6-.9-4-1.8-5.2-1.9-2.6-.4-3.6-2.2-1.8-3.2.7-.5 1.6-.1 2.1.9.8 1.4 1.3 1.5 2.4.5 2.2-1.8 1.7-2.6-2.1-3.1-1.9-.2-3.5 0-3.5.4 0 1.7-2.1.7-3-1.5l-.9-2.2-.7 2.2c-.3 1.2-1.6 2.3-2.7 2.5-2.6.4-3.5 3.7-1.5 5.2.7.6 1.8 3 2.4 5.3l1.1 4.3h-2.8c-1.6 0-2.9.2-2.9.5 0 1.9 3.2 6.3 5 6.8 1.1.3 2 1.3 2 2.4 0 1 .5 2.4 1.1 3 .8.8.8 1.3 0 1.7-.6.4-1.1 1.8-1.1 3.2 0 1.7.6 2.4 1.9 2.4 1.1 0 2.2.6 2.5 1.2.5 1 .7 1 1.2 0 .9-2 2.9-1.4 5.8 1.9 2.1 2.3 3.4 3 5.2 2.6 2.9-.5 3.1.7.4 2.6-1.1.8-1.7 1.6-1.4 1.9.3.3.2 2.2-.1 4.2-.5 2.6-1.2 3.6-2.6 3.6-1.3 0-1.9.7-1.9 2.1 0 1.3-.4 1.8-1.2 1.4-.7-.4-.6-.1.3.7 1.7 1.4 1.4 3.8-.4 3.8-.7 0-1.8-.9-2.5-2s-1.7-2-2.3-2c-.5 0-.7.5-.3 1.1.4.7-.1.7-1.6-.1-1.3-.7-3.8-1-6-.6-2.9.5-4.1.2-5.5-1.4-2.2-2.4-3.5-1.2-3.5 3.2 0 1.6-.4 2.8-.9 2.8s-.7.9-.4 2c.6 2.2-.7 2.6-2.5.8-.9-.9-1.3-.5-1.8 2-.7 3.3-4.6 6.7-6.9 5.9-1.8-.7-3.5 1.2-3.5 4 0 1.2-.8 2.7-1.7 3.2-1 .5-2.6 3.2-3.6 6-1.6 4.5-2 5-3.7 4.1-2.6-1.4-3-1.3-3 1 0 1.1-.6 2-1.4 2-.7 0-1.9.7-2.6 1.5-.9 1.1-2.2 1.4-4.2 1-2.1-.5-2.8-.3-2.8.9 0 .9-.6 1.6-1.3 1.6-.7 0-1.8.9-2.5 2s-1.9 2-2.7 2c-.8 0-1.5.4-1.5.9 0 1.5-6.4 1.9-9.2.5l-2.6-1.4 1 3.6c1.3 4.9.1 9.3-3.8 13.7-3.3 3.6-3.4 3.8-1.9 6.6 1.3 2.6 1.3 3 0 3.5-1.8.7-2 4.7-.3 6.4.9.9.8 1.2-.8 1.2-1.1 0-3.6 1.4-5.7 3.1-2.9 2.4-3.7 3.7-3.7 6.4 0 2.5-.5 3.5-2 4-1.1.3-2.5 1.7-3.2 2.9-.7 1.3-2.3 4.2-3.6 6.6-2 3.5-2.8 4.1-4.8 3.7-2.2-.4-2.4-.1-2.4 4 0 3.3-.4 4.5-1.7 5-1 .3-3 1.7-4.5 3.1-1.7 1.5-3.3 2.2-4.3 1.8-1.1-.4-1.5-.2-1.2.6.2.9 2.5 1.3 6.6 1.3 5.2 0 6.4.3 7.4 2 .6 1.1 1.2 2.3 1.3 2.7.1.5.2 1.1.3 1.5.1.5.5.2 1-.6.7-1.1 1.1-1 2 .7 3 5.5 7.1 6.2 11.8 2 1.4-1.3 2.8-1.8 4.1-1.4 1.6.6 2.1.1 2.7-2.2.5-2.4 1.1-2.9 3.1-2.6 1.5.1 2.8-.4 3.4-1.6 1-1.8 1.2-1.8 4.8-.3 2 .8 4.3 2 5.1 2.7 2.6 2.1 10.3 1.6 9.8-.7-.2-1.5 4.2-1 6.2.6 1 .9 1.8.5 3.3-1.6 1.1-1.5 2.6-2.7 3.3-2.7.7 0 1.5-.5 1.7-1.2.3-.8 1.8-.6 5.1 1 5.6 2.6 7.9 2.7 11.2.6 1.9-1.2 2.9-1.3 3.8-.5 2.1 1.7 12 .9 13.5-1.1.7-1 2.8-2.5 4.8-3.4 2.6-1.3 3.3-2.1 2.9-3.5-.5-1.5-.1-1.9 1.7-1.9 1.3 0 2.9-.5 3.5-1.1 1.4-1.4 5.3.5 5.3 2.6 0 1.7 2.6 2 3.6.4.7-1.2 7.4 4.8 7.4 6.7 0 1.6 2.8 2.5 6.6 2.3 1.6-.1 3.6.1 4.5.5 3.5 1.5 11.9-8.8 11.9-14.6.1-2.2.1-2.2 1.5-.4 1.4 1.9 1.5 1.9 1.5-.8 0-2.3.4-2.7 2.3-2.4 1.4.2 2.3 1.1 2.5 2.5.5 3.1 3.9 3 5.4-.2 1.2-2.6-.2-5.5-2.7-5.5-.7 0-1.6-.7-1.9-1.6-.9-2.4-.8-2.6 1.7-1.2 1.2.6 5 1.3 8.3 1.4 7 .2 8.4.7 8.4 3.3 0 2.2 4.6 5.5 6.1 4.5.6-.3.8-1.5.6-2.6-.4-1.2.2-2.9 1.4-4.1 2.1-2.3 2.4-3.7.8-3.7-.6 0-.8-.8-.4-1.9.3-1.1.1-2.2-.5-2.6-.7-.4-.8-1.9-.4-3.8.4-1.8.7-4.3.6-5.7-.1-1.7.5-2.8 2.1-3.6 1.2-.5 2.1-1.4 2-2-.1-.5-.5-2.3-.9-3.9l-.7-3 2.9 2.6c4.1 3.7 9.8 6.9 12.1 6.9 1.2 0 2.6.7 3.3 1.5.9 1.1 2.2 1.4 4.1 1 3.2-.7 6.1.6 10.4 4.5 1.7 1.5 5.8 3.9 9.1 5.2 5.2 2.1 6.4 2.3 8 1.1 2.7-2 5-1.6 9.5 1.7 3.4 2.4 4.5 2.7 6.1 1.9 1.6-.9 2.4-.6 4.2 1 2.6 2.4 2.9 2.5 11.3 1 6.1-1.1 6.3-1.2 6.3-4.1 0-2.8.2-3 2.9-2.5 3.4.7 7.3-.2 6.5-1.4-.3-.5.3-1.2 1.2-1.6 1.9-.7 5.4-3.9 5.4-4.9 0-1.5 5.2-5.3 6.5-4.8 1.3.5 4.7-.6 10.5-3.4 1.8-.9 12.2-.8 13.7.1.6.4 1.8.5 2.6.1.8-.3 1.7.2 2 1 .8 2 2.7 2.1 2.7.1 0-2.8 3-1.5 4.7 2 1.2 2.5 2.3 3.5 4 3.5 2.4 0 3.1 1.4 1.3 2.5-.5.3-1 1.7-1 3.1 0 1.4-.6 2.4-1.4 2.4-.8 0-2.1.8-2.8 1.8-.9 1.1-2.6 1.7-5.3 1.7-3 0-4.3.5-5 2-.6 1.1-2.2 2-3.5 2.1-1.4.1-3.1.2-3.7.3-1.5.1-1.8 3.1-.3 3.1.6 0 2 1.1 3.2 2.5 2.6 3 3.5 3.1 4.1.7.5-2 1.1-.8 2.2 4.2.3 1.6 1.4 3 2.5 3.3 2.1.6 2.8 2.3.9 2.3-.5 0-.7.4-.4 1 .3.5-.1 1-.9 1-1.1 0-1.7 1-1.8 3.2-.3 5.7.4 12.3 1.3 13.4.6.7.6 2.8 0 5.3-.7 3.1-.6 4.3.5 5.2 1.6 1.3 1.9 3.9.4 3.9s-1.2 6.1.4 9.2c.8 1.6 1.1 3 .6 3.3-1.4.8 1.2 4.5 3 4.5 2.3 0 4 2 4 4.7 0 1.6-.6 2.3-1.9 2.3-1.9 0-3.6 2.5-3.2 4.7.1.7-.5 1.3-1.4 1.3-1.2 0-1.3.4-.7 1.7 1 1.9.9 4.8-.3 7.5-.4 1-.4 2.5-.1 3.3.5 1.3 0 1.5-2.7 1-4-.6-7.2 1.5-6.4 4.5.3 1.2-.1 2.3-1.1 2.9-1.3.7-1.4 1.4-.5 3.3.9 2 .7 2.8-1.3 5.1-1.3 1.6-2.4 3.7-2.4 4.8 0 1.6-.5 1.8-2.6 1.3-1.6-.4-2.5-.3-2.1.3.3.5.2 1.5-.3 2.3-1.5 2.5 2.9 8.3 5.6 7.3 1.5-.6 4.4 3.5 4.4 6.2 0 1.2.5 2.6 1 3.1.8.8.7 1.9 0 3.9s-.8 3.1 0 3.9c2.8 2.8-1.7 9.6-8.7 12.9-1.3.5-2.3 1.8-2.3 2.9 0 1-.5 1.8-1.1 1.8-.6 0 .2 1.7 1.8 3.7 2.9 3.7 2.9 3.9 1.4 7.5-1 2.3-2.3 3.8-3.3 3.8s-1.8.7-1.8 1.5-.9 1.5-1.9 1.5c-1.3 0-1.8.5-1.5 1.7.4 1.4-.7 2.3-4.1 3.7-4.5 1.8-4.6 1.8-6 0-1.2-1.7-1.3-1.6-.8.9.4 2.1 1.4 2.9 4.4 3.8 2.1.7 4.6 2 5.5 3.1 1 1 2.3 1.8 2.9 1.8.7 0 1.8.7 2.5 1.5s2.1 1.5 3.1 1.5c1.1 0 1.9-.7 1.9-1.5s.7-1.5 1.6-1.5c.9 0 1.8-.8 2.1-1.8.5-2 5.9-4.8 8.4-4.4.9.2 2.2-.4 2.9-1.3.7-.8 1.9-1.5 2.7-1.5.8 0 1.3-.6 1-1.3-.9-2.3 2-5 4.6-4.3 2.3.5 2.5.2 2.9-3.2.4-2.8 0-4-1.3-5-1.6-1.1-1.7-1.6-.6-3.2.9-1.6.9-2.4 0-3.9-.6-1-.9-2.8-.6-4 .5-1.9 1.1-2.1 5.3-1.1.3 0-.5.6-1.8 1.3l-2.3 1.3 2.7 2.4 2.6 2.5-.4-4.8c-.3-4 0-4.8 1.7-5.3 1.1-.4 2.3-1.2 2.7-1.7 1-1.6 8.3-1.1 11.1.8 2 1.3 2.6 1.3 3.6.2.6-.8.8-1.7.4-2-.3-.4-.1-.7.6-.7 1.2 0 7.9 4.6 9.1 6.2.9 1.1 8 3.9 8.8 3.5.4-.3 2.1.4 3.7 1.4 1.7 1.1 4.5 2.6 6.3 3.4 1.7.8 3.2 1.9 3.2 2.4s1.4 2.3 3 4.1l3.1 3.3-2.1 3.9-2 3.9 2 3c1.4 1.9 3 2.9 4.6 2.9 1.4 0 3.6 1.1 5 2.5s3.2 2.5 4 2.5c1 0 1.3.6.9 1.9-.4 1.4 1.3 3.5 6.7 8.4 10 9.1 10.2 9.2 11 9 .5-.2.8.8.8 2.1 0 2.4-2.2 5.1-3.3 4-1-1-2 4.4-1.3 7.2.9 3.4-.9 5.6-4 4.8-1.3-.4-3.1-.1-3.9.6-1 .8-2.3.9-4.2.3-4.8-1.6-5.8-1.1-5.5 2.5.2 1.8 1 4.5 1.8 6 1.6 3.1 1.8 5.2.5 5.2-1.6 0-5 11.5-5.4 18.3-.3 4-1 7.4-1.9 8.5-.9.9-1.8 3.6-2.1 5.9-.4 3.4-.2 4.2 1.4 4.6 1 .3 2.4 1.7 3 3.1 1 2.2.9 2.9-.5 4.5-.9 1-1.9 3.6-2.1 5.7-.1 2.2-.7 5.6-1.3 7.6-.6 2.2-.6 4-.1 4.5 1.4 1.4 2.1 8.3.8 8.3-.5 0-.7.5-.3 1.1.4.6 1.9.9 3.5.5 2.2-.4 3.4 0 4.6 1.4 1 1.1 2.3 2 3 2 .7 0 1.3.8 1.3 1.8s.4 2.2 1 2.8c.5.5 1 2.4 1.2 4.2.1 2.1.7 3.2 1.8 3.2 2.4 0 15.1 6.9 17 9.2 2.7 3.3 5.4 1.7 4.7-2.7-.3-1.9-.2-3.5.2-3.5 1.3 0 3.2 2.6 2.4 3.3-1 1.1 2.8 4.7 5 4.7 1.4 0 1.8.5 1.4 1.9-.3 1.1.2 2.6 1.2 3.4 1.8 1.6 7.4 2 6.5.5-.3-.5.3-1.2 1.4-1.5 1.2-.3 2.2-1.1 2.4-1.8.2-.9 1.4-.4 3.7 1.7 2.9 2.6 3.2 3.3 2.3 4.9-.8 1.3-.8 2-.1 2.5.8.4.7.9-.2 1.5-1.1.7-.9 1.3 1.1 2.9 2.3 1.9 2.4 2.1.8 3.1-1.1.6-1.8 2.2-1.8 4.3 0 2.2-.8 3.9-2.5 5.4-1.4 1.2-2.5 2.5-2.5 3 0 .4-2.2 1.6-4.9 2.7l-5 1.9 2 2.8c1.1 1.5 1.7 2.8 1.4 2.8-.4 0 0 .6.8 1.4 2 2.1.9 6.5-1.8 7.8-2.7 1.2-3.6 3.5-3.8 9.5-.1 2.3-.5 4.4-.9 4.8-2 2 5.6 13.3 10.9 16.3 1.7.9 2.3 2.1 2.3 4.6 0 1.9-.6 3.7-1.2 3.9-1 .4-1 .6-.1.6.6.1 1.9-.9 2.7-2.1 1.1-1.6 2.5-2.2 4.6-2 3 .2 3.5-.4 2.4-3.2-.8-2.1-2.5-1-1.8 1.2.5 1.4.4 1.5-.5.2-.6-.8-1.1-1.8-1.1-2.1 0-.7 6.8-3.7 9.5-4.1 1.3-.2 2.1-1.2 2.3-3.1.4-3.1.5-3.1 3.5-1.5 6 3.2 20.3 3.9 22.4 1.1.7-.9 1.4-2.1 1.7-2.7.3-.7.8-.6 1.5.4.9 1.2 1.4 1.1 4-.8 3.8-2.7 4.9-2.8 7.8 0 1.2 1.2 3.5 2.3 5 2.4 4.3.5 12-2.4 12.6-4.7.5-1.8.8-1.8 5.6 1.2 4.9 3.1 5.1 3.1 11.3 2 3.5-.6 7.3-.8 8.5-.5 1.6.4 2.5.1 2.9-1 .3-.9 1.5-1.6 2.5-1.6 1.2 0 1.9-.7 1.9-2 0-1.1.7-2 1.5-2s2.1-1.6 3-3.6c.8-2 1.9-3.3 2.5-2.9.6.4 1.7.1 2.5-.5s1.9-.9 2.5-.5c.6.4 1.9-.4 3-1.7 1.8-2.3 1.8-2.3-.1-4.4-2.1-2.2-2.6-6.8-.7-6.2.6.2 2.2-.6 3.5-1.8 2.5-2.3 3.1-7.1 1.2-10.6-.8-1.6-.8-2.2.2-2.9 1-.6 1-1.5.2-4.3l-1.1-3.6h3.8c2.1 0 4.3-.7 5-1.5.7-.8 2-1.5 2.9-1.5 2.3 0 4.2-3.6 3.5-6.5-.5-1.9-.2-2.5 1-2.5.9 0 1.6-.7 1.6-1.6 0-.9.8-2.3 1.8-3 1.6-1.3 1.6-1.5-.7-3.4-1.3-1.1-2.2-2.2-2-2.5.2-.2 2.4-.5 4.9-.8 3.5-.3 4.6-.8 4.8-2.3.9-5.7 1.2-6.3 3.8-6.1 1.8.1 3.2-.6 4.6-2.3 2-2.8 1.6-6-.8-6-1.7 0-1.7-.5-.4-3.1.7-1.2 2.1-1.9 3.8-1.9 1.5 0 3.9-1.1 5.4-2.5 1.5-1.4 3.6-2.5 4.6-2.5 2 0 3.2-2.5 3.2-6.6 0-2.5 5.3-8.4 7.5-8.4.8 0 1.5-.6 1.5-1.3 0-.7 1.2-1.4 2.7-1.5 1.5-.1 3-.7 3.4-1.3.4-.8 1.5-.6 3.5.4 3.9 2 8.3 1.2 7.7-1.4-.4-1.6 0-1.9 2.6-1.9 1.8 0 3.4.6 3.7 1.5.5 1.1 1 1.2 2.7.2 1.2-.7 2.5-1.6 2.8-2.1.4-.5 1.2-.6 1.7-.2.6.4 2.7-.9 4.6-2.9 1.9-1.9 3.3-3.5 3.1-3.5-.3 0 .4-1.5 1.4-3.3 1.3-2.4 1.6-3.9.9-5-.7-1.3-.5-1.7.7-1.7.8 0 1.5-.7 1.5-1.6 0-.9 1.5-3.1 3.4-5l3.3-3.3 2 2.2c1.2 1.2 2.4 3.3 2.8 4.7 1.2 3.8 3.8 6.9 5.8 7 1 0 2.5.7 3.3 1.5.9.8 3 1.5 4.7 1.5 1.8 0 4.2.7 5.4 1.5 1.6 1.2 2.7 1.2 5.2.4 1.7-.6 3.1-1.5 3.1-2s2.1-.8 4.8-.7c3.4.1 5.9 1 9 3.1 2.4 1.6 4.6 2.7 4.9 2.4.3-.3 1.7-.1 3.1.4 1.7.7 3.4.6 5.3-.1 2.1-.9 3.3-.8 5.6.4 2.8 1.4 3.3 1.3 7.9-1 6.3-3.1 9-4.7 11.1-6.5 1.9-1.6 7.4-1.7 16.9-.5 4.6.6 5.2.4 5.7-1.3.5-2 1.5-2.4 9.1-3.6 2.3-.4 4.8-1.7 6.3-3.3 1.4-1.5 3.5-2.6 5.1-2.7 2.2 0 2.8-.6 3.2-3l.5-3 2.3 3.2c1.2 1.7 2.2 3.6 2.2 4.2 0 .6.7 1.1 1.5 1.1s2.4.9 3.5 2c2.9 2.9 7.7 2.7 9.2-.5 1.4-3 2.8-3.2 3.5-.5.4 1.5.9 1.8 1.8 1 1.4-1.2 3.9 1.2 5 4.9.6 2 .4 2.3-.9 1.8-2.7-1.1-4.3.2-3.8 2.9.3 1.9 0 2.4-1.6 2.4-1.5 0-2 .5-1.7 2 .2 1.1-.1 2-.7 2-.7 0-.7.4.1 1.4.9 1.1.7 1.3-1.1 1.1-1.3-.2-3.1-.6-4-1-1.4-.5-1.8-.2-1.8 1.3 0 1.2.5 2.4 1 2.7 1.9 1.2 1.1 4.5-1 4.5-1.3 0-2 .7-2 2 0 1-.9 2.4-2 3-1.1.6-2 2-2 3 0 1.1-.6 2-1.4 2-1.9 0-2.6 2.1-1.4 4.2.5 1.2.5 1.8-.2 1.8-.5 0-1 .8-1 1.8s-.4 2.2-.9 2.8c-1.4 1.3 3.3 12.2 6.3 14.5 1.4 1.1 2.5 2.3 2.4 2.7-.1.4.4 1.7 1.1 3 1 1.9 1 2.6 0 3.9-1.1 1.3-1 1.7.5 2.8 1 .8 1.5 1.8 1.2 2.3-.3.6.1 1.3.9 1.6 1.1.4 1.4 1.3.9 2.9-.5 2.1-.1 2.5 2.2 3 3.7.7 12.2-2.1 12.9-4.3.3-1 1.4-2.5 2.5-3.5 1.6-1.4 2.3-1.5 3.4-.6 1.8 1.5 5 .6 7.5-2.1 1.5-1.5 2.5-1.8 4.3-1.2 4.2 1.4 5.1.7 7.1-5.6.5-1.7 6.2-2.2 6.2-.5 0 .5-.3.9-.6.8-.3-.1.4 2.6 1.5 5.9 1.1 3.4 2.2 5.6 2.4 5 .2-.7.8-1 1.3-.6 1.8 1.1-.3 2.4-2.9 1.8-2.5-.5-2.5-.4-.9.9 2.3 1.9 2.2 3-.1 1.6-1.4-.9-2.6-.8-5.1.6-2.1 1.1-3 2-2.4 2.6 1.2 1.2 9.3 1.7 9.9.7 1.2-1.9 2.3.6 2 4.6-.4 4.4-3.2 10.6-4.9 10.6-.5 0-.7 1-.3 2.3.6 2.5-2.3 5.1-4.8 4.1-1-.4-1.5.2-1.8 1.8-.2 1.7-.8 2.2-2.3 2-6.4-1.1-9.5-1.3-9.5-.6 0 .4 1.3 3.1 3 6 2.5 4.5 2.7 5.3 1.3 5.8-1.2.5-1.3 1-.5 1.8.7.7.7 1.9.1 3.6-.7 1.9-.6 2.9.6 4.2 1 1.2 1.4 2.6 1 4.3-.4 1.4-.2 3.4.4 4.5.8 1.5.6 2.3-.8 3.6-.9.9-2.5 1.6-3.3 1.6-1.1 0-1.5 1-1.4 3.9 0 3-.5 4.4-2.4 5.9-2.1 1.7-2.3 2.2-1.1 3.6 1.3 1.5 1.6 1.5 3.1.1s1.8-1.4 3 0c1.8 2.1 6.6 4.6 7.4 3.8.3-.4.6.3.6 1.4 0 3.1 7.3 5.8 8.3 3 .3-.9.9-.8 2.3.4 2.5 2.1 5.7 2.9 7.7 1.7 1.1-.5 2.4-.5 3.7.2 1.3.7 2 .7 2 0 0-.5 2.2-1 5-1 3.9 0 5.2-.4 6-1.9.9-1.9 1.3-1.9 4.5-.5 5 2.1 6.5 1.8 6.5-1.2 0-1.7-.6-2.8-2-3.1-1.1-.3-2-1.4-2-2.4 0-2.1-1.6-3.4-2.5-1.9-.3.5-1.2 1-2 1-1 0-1.2-.7-.5-2.9.4-1.6.5-3.3.2-3.7-.4-.5 0-.3 1 .4 1.1.9 1.8 1 2.3.2.4-.7 1.2-.7 2.6 0 2.2 1.2 2.4.7.8-1.8-1.1-1.8.5-8.1 1.8-6.9.9 1 4.3-6 4.3-8.8 0-1.4.4-2.5.9-2.5s2.3-1.3 4.1-3c2.7-2.5 3.1-3.4 2.5-6-.6-2.6-.3-3.1 1.9-4 1.4-.5 2.6-1.6 2.6-2.5 0-.8.4-1.5.9-1.5s1.2-.8 1.5-1.8c1.1-3 3.5-6.6 5.2-7.9 1.1-.8 1.5-2.1 1.2-3.8-.4-2-.1-2.6 1.9-3.1 1.3-.4 3-1.9 3.9-3.5.8-1.6 2.1-2.9 2.9-2.9 1.1 0 1.5-1.2 1.5-4.5 0-2.5.5-4.5 1.1-4.5.6 0 3.1-.9 5.7-2.1 5.2-2.2 9.4-7.5 8.5-10.8-.3-1.2.1-2 1.1-2.3 1.7-.3 1.8 0-2.4-7.8-.7-1.4-1.7-3.3-2.2-4.2-1.3-2.8-.9-11.3.7-14.4 1.3-2.5 1.3-2.9 0-3.7-.8-.4-1.5-1.4-1.5-2.1 0-.7-1-2.5-2.1-4-1.9-2.5-2-2.8-.5-3.9.9-.7 2-2.6 2.5-4.2.6-2.4.3-3.5-1.6-5.8-1.2-1.6-2.3-3.4-2.3-4 0-.8.3-.8.8.1.6.9 2.3-.1 6-3.7 4.7-4.5 5.1-5.3 4-7-1.7-2.7-.3-3.8 2.1-1.7 1.1 1 2.2 1.3 2.5.8.3-.6 1.6-.8 2.7-.5 1.9.5 2 .4 1-1.6-1.7-3.1.1-2.7 6.1 1.4 5.7 4 7.4 4 7 .1-.2-2 .2-2.6 1.7-2.6 1.3 0 2.3-.9 2.7-2.4.4-1.8 2.1-3 6.7-4.9 3.4-1.4 7.9-2.8 10-3.2 2-.3 3.7-1 3.7-1.5s.9-1.2 2-1.5c1.4-.4 2-1.5 2-3.4 0-1.6.7-3.4 1.5-4.1 1.1-.9 1.2-1.7.5-3-1.3-2.4-1.3-3.3.1-2.4.8.4.9-.1.4-1.7-.4-1.3-1.4-2.8-2.1-3.2-.8-.4-1.4-1.6-1.4-2.7 0-2.3-10.7-11-13.6-11-1.2 0-2.4.6-2.7 1.4-.4 1-1.8 1.2-5.1.9-2.5-.3-4.6-.3-4.6 0 0 2.1 2.8 6 5.4 7.7 1.7 1 4.6 3.4 6.4 5.3 3.4 3.5 3.4 3.5 1.5 5.4-1.1 1.1-2.2 2.7-2.6 3.6-.8 2.1-2.7 2.2-2.7.2 0-1.9-.9-1.9-3.2.1-1.6 1.6-1.8 1.5-2.4-.2-1.5-4.7-2.5-6.4-3.8-6.4-.7 0-1.9-.6-2.5-1.4-.9-1.1-.8-1.5.5-2 1.2-.4 1.4-1.3.9-3.6-.4-1.9-.3-3 .4-3 1.9 0-1.4-5.3-5.1-8-1.8-1.4-4.6-3-6.3-3.5-1.6-.6-2.9-1.6-2.7-2.3.3-1.8-1.9-1.5-3.3.4-.9 1.4-1.6 1.4-3.4.5-1.2-.7-3-.9-4.1-.6-1.3.4-2 0-2.5-1.5-.5-1.6-1-1.8-2.4-1-1.4.7-2.3.5-3.5-.9-.9-1-1.3-2.1-.9-2.4.3-.4 0-.7-.8-.8-13.1-.5-13.9-.4-13.4 1.1.5 1.1.3 1.2-.5.4-1.4-1.4-8 .5-8 2.3 0 .7-.9 1.3-2 1.3-1 0-2.9.4-4.2.9-1.3.5-3.5 1.2-5 1.5-2.1.5-2.8 1.2-2.8 2.9 0 3.1-2.2 7.7-3.7 7.7-.7 0-2.1.9-3.2 2.1-1.8 1.9-2.3 2-5.8.8-2.1-.7-4.8-1.2-6-1-1.1.1-2.4-.2-2.7-.8-.4-.6-1.3-.8-2.1-.4-.9.3-1.5-.1-1.5-.8 0-.9 1.3-1.4 3.5-1.5 7.7-.3 7.5-.2 7.5-3.5 0-1.8.7-3.7 1.5-4.3 2.2-1.6 4.6-11.8 3.1-13.1-1.2-1.1-4.6-6.1-4.6-6.9 0-.2 1.3-.7 2.9-1.1 3.3-.7 3.8-1.6 3.5-6-.5-8.3-3.6-13.7-8-14-3.7-.3-12.3-6.3-12.3-8.7-.2-4.7-4.1-7-4.1-2.4 0 1.6-2 4.1-6.5 8.1-3.6 3.2-6.5 6.3-6.5 6.8s.9 1.1 2 1.4c1.1.3 2 .9 2 1.4 0 .5 1.1 1.4 2.4 2 1.8.9 2.5 2.1 2.8 5.4.3 2.4 1.4 5.1 2.6 6.3 2.1 2.1 2.1 5.2-.1 8-.8 1-1.3 1-2.6-.1-1.9-1.7-6.1-2.8-6.1-1.7 0 .4-.9.6-2.1.3-2.1-.6-2.2-2.3-.5-6.4.5-1.1-.1-2.1-1.8-3.3-2.3-1.4-2.6-1.4-2.6-.1 0 .8-.9 1.5-2 1.5-1 0-2.5.6-3.2 1.4-.9 1-2.1 1.1-4.7.4-1.8-.5-4.1-.8-5.1-.5-2.5.6-5-1.1-5-3.4 0-3.7-4.4-6.9-9.4-6.9-3.6 0-5-.6-7.5-3.1-1.7-1.7-3.7-2.9-4.4-2.6-.6.2-2-.2-2.9-1.1-1-.8-1.8-1.1-1.8-.5 0 2.2-6.5 1-9.5-1.7-1.6-1.5-4.1-3.1-5.3-3.5-2.2-.6-2.3-.5-1.7 1.7.6 1.9.5 2.1-.6 1-1.9-1.8-4.2-1.5-5.6.7-1.1 1.8-.9 2 2 2.6 4.2.9 7.7 4.2 7.7 7.3 0 2.2-.2 2.3-4.2 1.7-5.6-.9-6.9-1.7-10.8-6.2-1.8-2.1-4.7-4.3-6.4-4.9-1.9-.7-3.3-2-3.9-4-.5-1.6-2.1-4.1-3.4-5.5-1.5-1.6-2-2.8-1.3-3.1 1.5-.5.2-3.8-1.5-3.8-1.5 0-2.8-2.7-1.9-4.1.3-.5.1-.9-.5-.9-.5 0-1.3-.9-1.6-2-.4-1.1-1.1-1.8-1.6-1.5-1.2.8-7.9-5.8-7.9-7.8 0-.9-.4-1.9-1-2.2-.5-.3-1 0-1 .7 0 1-.3.9-1-.2-.6-.9-.5-1.7.3-2.2.7-.4.8-.8.3-.8s-.3-.7.4-1.5c.6-.8.9-2.3.5-3.4-.4-1.4 0-2.3 1.4-3 1.1-.6 2.5-2.7 3.2-4.6.7-1.9 1.8-3.5 2.5-3.5 1.5 0 2.6-2.8 1.4-3.5-1.7-1-1.1-4.3.8-4.8 1.4-.4 1.4-.5-.3-.6-1.1 0-3-.8-4.1-1.6-1.2-.8-2.5-1.1-2.9-.7-1.1 1.1-5.9 1-6.7-.2-.5-.7-.8-.4-.8.7 0 1.5-.3 1.6-3.2.4-1.8-.7-3.3-2-3.3-2.8-.1-.8-.6-1.3-1.2-1.2-1.6.3-2.1-8.5-.6-9.2.7-.2 1.3-.9 1.3-1.4 0-1.4-5.9-4.1-8.8-4.1h-2.5l2.3-2c2.3-2 3.1-2.1 12.3-.4 2.2.5 2.7.2 2.7-1.3 0-1.1-.5-2.4-1-2.9-.8-.8-.5-2 .7-4.2 1.7-2.9 1.7-3.1 0-5-1.2-1.3-1.5-2.8-1.1-5 .5-2.2.1-3.9-1.5-6-2.5-3.6-2.6-4.2-.5-4.2 1.1 0 1.4-.5 1-1.6-.3-.8.8-4.3 2.4-7.6 3.1-6.1 3.8-10.2 2-11.3-.5-.3-1-1.1-1-1.7 0-.7.5-.7 1.4.1 1.1.9 1.8.5 3.5-2.2 1.1-1.8 2.9-4.2 4-5.2 1.2-1 2.3-3.3 2.7-5.1.3-1.9 1-3.4 1.5-3.4 1.3 0 15.3-13 15.7-14.6.2-.7 1.5-1.4 3-1.6 2.3-.3 2.7-.7 2.4-3-.2-1.5.1-3.5.6-4.5.7-1.2.6-2.6-.3-4.4-1.5-2.9-1.1-4.1 1.1-3.2 1 .4 1.2 0 .8-1.1-.4-1.1.1-2.2 1.2-3.1 1.6-1.2 1.7-1.7.6-3.4-1-1.8-1-2.1.6-2.1 2.4 0 4.9-5.3 5.6-11.9.3-2.9 1-5.8 1.5-6.5.8-1 1.5-4.6 1.2-7.3-.1-.6-1-1.5-2.1-1.8-1.1-.3-2-1.2-2-1.9 0-.8-.7-1.9-1.6-2.7-.9-.7-1.4-2.5-1.3-4.4.2-2-.5-4.3-2-6.3l-2.2-3.2 2.1-3c1.9-2.6 2-3.5 1.1-5.8-1.7-4.3-2.9-11.9-2-13.4.5-.8 0-2.1-1.3-3.5-1.6-1.7-2.4-2-2.9-1.1-.9 1.4-1.6.8-11.4-9.2l-6-6.1-4.9 1.3c-4.3 1.1-4.9 1.1-6.1-.5-1.3-1.8-3.5-2.3-3.5-.7 0 .5-1.3.7-3 .3-2.6-.5-3-.3-3 1.6 0 1.9.5 2.3 2.6 2 1.3-.2 2.1 2.3 1.6 4.7-.3 1.7-.9 2.3-2 1.9-.8-.3-2.1 0-2.9.6-.9.8-1.7.9-2.4.2-.6-.6-2.6-.7-5-.3-2.1.4-5.8.6-8.2.4-3.1-.3-4.5 0-5.5 1.4-1.2 1.6-1.4 1.6-2.6 0-1.5-2.1-5.3-1.4-6.1 1.2-.4 1.2-1.2 1.6-2.6 1.3-1.1-.3-1.8-1.1-1.5-1.8.2-.6-.6-2.5-2-4.1-2.8-3.4-3-4.4-.8-4.4 1.1 0 .9-.8-1.2-3.5-1.5-2-2.4-4.1-2-5.1.3-.9-.3-2.7-1.4-4.1-1.1-1.4-2-3.4-2-4.5s-.4-1.7-.9-1.3c-.5.3-1.2.1-1.5-.4-.4-.5-.2-1.3.4-1.6 1.6-1 .2-4.6-3.3-8.3-2.9-3-3-3.2-.9-3.2 1.2 0 2.2.5 2.2 1.2 0 .6.3.8.6.5.4-.4.1-1.3-.5-2.1-.9-1-.9-1.6-.1-2.1s.7-1.1-.2-2.3c-1-1.2-1-1.6 0-1.9.6-.3 1.2-1.6 1.2-3 0-2.8 4.1-12.3 5.3-12.3.4 0 .3-.8-.2-1.9-.6-1-.7-2.1-.4-2.5.3-.3-.1-.6-1-.6s-2-.7-2.5-1.6c-.5-.9-2.4-1.7-4.3-1.9-1.9-.2-4.7-1-6.4-1.9-4.4-2.3-5.8-2.1-5.3.9.3 1.4.1 2.8-.4 3.1-.4.3-.6 1-.3 1.5.4.5-.7.9-2.2.9-2.2 0-3.8-1.1-6.6-4.5l-3.8-4.4-2.1 2.1-2.1 2.1-1.8-2.2c-1-1.2-2.1-3.8-2.5-5.7-.3-1.9-1.1-3.4-1.6-3.4-.9 0-5.2-1.7-10.5-4.3-1.4-.6-2.3-1.9-2.3-3.2 0-1.2-1.1-3.2-2.5-4.5-1.7-1.6-2.3-3-1.9-4.3.5-1.5.3-1.7-.7-1.1-.8.5-2.4.7-3.6.6-1.2-.2-3.1.2-4.3.8-1.6.9-2.5.8-3.6-.1s-1.4-.9-1.4.2c0 .9-.3 1-1 .3-1.5-1.5-2.2-6.4-1.2-7.8.6-.7.6-2.1 0-3.6s-1.2-2-1.5-1.3c-.3.7-.9 1.3-1.4 1.3-1.1 0-3.9-6.5-3.9-9 0-2-5.2-7.4-7.3-7.6-.6-.1-2-.2-3-.3-1 0-4-2.2-6.7-4.7s-5.3-4.3-5.8-4c-.8.5-4.2-5-4.2-6.8 0-1.2-3.9-4.5-4.2-3.5-.2.5-1.6.2-3.2-.6-3.8-2-4.5-1.9-3.9.5.3 1.1 0 2-.6 2s-1.1-.4-1.1-1c0-.5-.7-.7-1.6-.3-.9.3-2.3-.3-3.5-1.6-2.2-2.3-3.5-2.6-4.4-1.1-.4.6-1.1.8-1.6.4-.5-.3-.7-.9-.4-1.4.3-.5.1-1.1-.5-1.5-.5-.3-1-1.5-1-2.6 0-2.7-2.7-2.4-5.5.7-1.7 1.8-3.1 2.5-4.6 2.1-1.6-.4-1.9-.2-1.5 1 .9 2.3-2.7 5.3-6.3 5.3-1.6 0-3.1.5-3.3 1.1-.4 1.1-7.6-2.5-8.9-4.4-.4-.6-1.9-.7-3.3-.5-2.7.5-4.6-.9-3-2.1.5-.3 1-2 1.1-3.6.5-10.3.8-11.5 2.4-11.5 1.2 0 1.6-.6 1.2-1.9-.3-1 0-2.1.5-2.5.7-.4.6-1.9 0-4.5-1.4-5.5-4.7-6.2-10.2-2.3-2.3 1.6-4.9 3.1-5.8 3.5-1 .3-2 1.7-2.4 3.1-.6 2.4-2.9 3.6-7.1 3.6-1.6 0-2.3.6-2.3 2 0 1-.9 2.4-2 3-1.1.6-2.2 2.1-2.6 3.4-.3 1.3-1.5 2.7-2.6 3-1.8.4-1.9.7-.8 2 1.4 1.7 3.5 2.2 2.5.6-.4-.6.5-1 1.9-1s2.6.4 2.6 1c0 .5.7 1 1.5 1s1.5.8 1.5 1.8.7 2.7 1.5 3.9c1.6 2.3 1.2 4.8-1.1 5.7-1.1.4-1.2 1-.5 2.4.8 1.5.6 2.2-1.4 3.2-1.3.7-4.5 3.5-7 6.1-4.9 5.1-5.9 5.6-7.1 3.8-.4-.8-.8-.8-1.3 0-1.5 2.3-4.9-.1-6.6-4.7-1-2.6-2.3-5.3-2.8-6-.8-1-.7-1.6.1-2.1.9-.5.4-1.1-1.3-1.9-3.5-1.6-5.2-1.5-6.3.4-1.1 2-7.7.9-9.5-1.6-.6-.9-2.7-2.1-4.4-2.4-5.1-1.2-5.8-3.7-1-4.1 1.6-.1 2.2-.8 2.1-2.5 0-1.3 1.5-3.9 3.8-6.3 4.3-4.5 4.4-4.9 2.3-6.7-.8-.7-1.7-2.7-2.1-4.6-.5-2.9-.9-3.2-2.1-2.3-1.8 1.6-7 2.2-7.8.9-.3-.6.5-1 1.9-1 5 0 1.6-6-5.1-9-3.6-1.6-4.3-2.3-3.4-3.3.8-1.1.6-1.8-.9-3.2-1.1-1-2-1.5-2-1.1 0 .4-.9.2-2.1-.4-1.6-.9-1.8-1.4-.8-2.6.6-.8 1.9-1.4 2.9-1.4s2.1-.7 2.4-1.6c.3-.8.2-1.2-.4-.9-.6.3-1.3 0-1.6-.8-.5-1.5-3.8-1.3-6 .4-1.4 1.1-2.4.1-1.7-1.7.7-1.9-1.5-4.4-4-4.4-1.1 0-2.9-.7-3.9-1.7-1-.9-1.8-1.1-1.8-.5 0 1.6-4.2.2-7.1-2.5-2.8-2.6-2.9-6.3-.2-6.3.8 0 1.1-.5.8-1-.3-.6.1-1 1-1 1.3 0 1.5-1 1.2-5.8-.3-5.5-.9-6.5-3.4-5.5-.6.3-2 0-3.2-.6-2.7-1.5-3-1.4-2.4.8.2 1-.5 3.7-1.7 6-1.7 3.4-2.5 4.1-4 3.6-1.5-.5-2.2 0-3 2-1.5 3.8-3.9 4.3-6.4 1.2-1.2-1.5-3-2.7-3.9-2.7-3.2 0-11.7-3.2-11.7-4.4 0-1.8-4-4.8-5.6-4.2-2.1.8-9.6-6.5-9.8-9.5-.1-1.8-.6-2.3-2.2-2.1-1.2.1-2.7-.4-3.3-1.2-1.1-1.4-1.9-1.2-6.1.9-4 2-5.4 2.3-7.5 1.5-1.5-.6-3.9-1-5.5-1s-3.6-.8-4.5-1.7c-1-.9-3.4-1.8-5.4-2-2-.2-4.2-.5-4.8-.8-.8-.3-1.3.4-1.3 1.5 0 1.8-.7 2-6.9 2-6.1 0-7 .3-7.6 2-.4 1.1-1 1.8-1.5 1.5-.5-.3-1.2 0-1.5.5-.4.6-1.9 1-3.3.8-2.1-.2-2.8.2-3 1.9-.2 1.2-1.4 2.9-2.8 3.8-2 1.3-2.3 1.9-1.4 3 .8 1 .6 1.6-.8 2.7-1 .7-2.7 2.8-3.7 4.6-1.1 1.7-2.7 3.5-3.7 3.8-1 .3-1.8 1.5-1.8 2.6 0 1.6-.5 1.9-2.5 1.6-1.8-.4-2.6 0-3 1.3-.7 2.1-2.9 1.6-6.4-1.5-1.7-1.5-2.5-1.7-2.8-.9-.3.7-1.3 1.3-2.3 1.3-1 0-2 .6-2.3 1.4-.4.9-1.4 1.2-2.6.9-1.2-.3-2.1-.1-2.1.6 0 .6-1.7 1.1-4 1.1-3.9 0-3.9-.1-7.4-7.2-2.6-5.3-3.2-7.6-2.4-8.5 1.2-1.5-.6-4.3-2.7-4.3-.7 0-1.5-.7-1.9-1.5-.3-.8-1.7-2-3.2-2.5-1.4-.6-2.8-1.9-3.1-2.9-.3-1.1-1.2-2.2-1.9-2.5-1.2-.5-6.4-10.3-6.4-12.1 0-.3.7-.5 1.6-.5.9 0 1.4-.7 1.2-1.8-.2-.9-1.2-1.7-2.2-1.7-1 0-2.5-1-3.4-2.3-.8-1.3-1-2.2-.4-2.2 2.6 0 5.9-11.5 3.6-12.4-2-.8-1.7-3.6.4-3.6 1.9 0 4.5-4.7 3.1-5.6-.5-.3-.7-.9-.4-1.4.3-.4-.2-1.1-1-1.4-1-.4-1.5-1.6-1.3-3.3.2-2.1-.3-3-2.5-4.1-1.5-.7-3.4-2.6-4.2-4.3-.9-1.6-2-2.9-2.7-2.9-1.4 0-.2-5.9 1.7-8 .8-.9 1.2-2 .8-2.3-.3-.4.6-.7 2-.7 2.5 0 2.6-.2 1.5-2.5-.6-1.4-1.8-2.5-2.7-2.5-.9 0-2.6-.3-3.8-.6-1.3-.4-2.3-.2-2.3.4zm170.4 95.5c.7 1.1.7 2 0 2.7-1.5 1.5-4.9-1.3-4.1-3.4.8-2 2.6-1.7 4.1.7zm-174.9 4.7c1.6 1.9 1.6 2.2.3 1.1-1.6-1.2-1.8-1.1-1.8.6 0 1.6-.5 1.9-2.5 1.5-1.4-.2-2.5 0-2.5.7 0 1.4-2.7.3-3.4-1.4-.3-.9 0-1.2.8-.9.8.3 2.6-.6 4.2-2 1.6-1.3 2.9-2.4 2.9-2.3 0 .1.9 1.3 2 2.7zm229.5 58c0 .5-.2 1-.4 1-.3 0-.8-.5-1.1-1-.3-.6-.1-1 .4-1 .6 0 1.1.4 1.1 1zm119.5 3c.3.6-.1.7-.9.4-1.8-.7-2.1-1.4-.7-1.4.6 0 1.3.4 1.6 1zm-149.7 2.7c.8.8 1.2 1.6.9 1.9-.2.3-1.2-.2-2-1.1-.9-.8-2.3-1.5-3.1-1.5-.9 0-1.6-.5-1.6-1.1 0-1.3 3.9-.1 5.8 1.8zm148.8 4.9c-.4 1-1.3 1.3-2.7.9-1.8-.6-2-.4-1.4 1.5.5 1.5.4 2-.4 1.6-.6-.4-1.1-.3-1.1.3 0 .5.5 1.3 1.1 1.7.8.4.8.9 0 1.7-1.3 1.3-4.3-2.2-3.3-3.8.7-1 .8-1.5 1-4.8.1-1.1 1-1.7 2.7-1.7 1.4 0 2.5-.6 2.5-1.3 0-.6.5-.4 1.1.6.6 1 .8 2.5.5 3.3zm5.4-1.5c0 .5-.4.9-1 .9-.5 0-1-.7-1-1.6 0-.8.5-1.2 1-.9.6.3 1 1 1 1.6zm-148-.1c1.2.8 1.2 1-.3 1.6-.9.3-1.7 1.3-1.7 2.1s-.4 1.1-1 .8c-1.4-.9-1.2-5.5.3-5.5.6 0 1.9.4 2.7 1zm29-.1c0 .6-.4 1.3-1 1.6-.5.3-1-.1-1-.9 0-.9.5-1.6 1-1.6.6 0 1 .4 1 .9zm131 5.2c3.2 3.3 3.4 4.7.3 3.4-1-.5-2.1-.9-2.5-.9-1.2-.2-2.2-1.6-2.3-3.6-.2-2.8.8-2.5 4.5 1.1zm5.5-1.1c.3.5-.1 1-.9 1-.9 0-1.6-.5-1.6-1 0-.6.4-1 .9-1 .6 0 1.3.4 1.6 1zm1.5 8.6c0 .8-.4 1.2-1 .9-.5-.3-1-1-1-1.6 0-.5.5-.9 1-.9.6 0 1 .7 1 1.6zm-509.7 54.1c.3.5-.1 1.4-.9 2.1-1.2 1.1-1.4.9-1.4-.8 0-2 1.4-2.7 2.3-1.3zm19.2 20.3c.3.5.1 1-.4 1-.6 0-1.1-.5-1.1-1 0-.6.2-1 .4-1 .3 0 .8.4 1.1 1zm10.4 20.4c.9 1.1.7 1.5-1.1 1.9-2.7.7-3 .5-2.2-1.7.8-2 1.8-2 3.3-.2zm47.5 93.2c1.7.7 2.2 3.4.6 3.4-.5 0-1-.6-1-1.3 0-.8-.3-.7-1 .3-1.1 1.8-2.3.8-1.4-1.4.7-1.8.7-1.8 2.8-1zm160.6 5.4c0 .5-.4 1-1 1-.5 0-1-.5-1-1 0-.6.5-1 1-1 .6 0 1 .4 1 1zm58.4 5.6c2.3.9 2 2.4-.4 2.4-1.1 0-2-.7-2-1.5 0-1.7.2-1.8 2.4-.9zm-18.4 17.1c-.1 1.8-1.8 3.5-2.4 2.4-.4-.6-.4-1.6-.1-2.1.7-1.2 2.5-1.3 2.5-.3zm3 10.3c0 .5-.7 1-1.5 1s-1.5-.5-1.5-1c0-.6.7-1 1.5-1s1.5.4 1.5 1zm-53.1 131.9c.9 1.6.6 2-1.5 2.4-1.7.3-2.8-.1-3.5-1.4-.7-1.5-.6-1.7.6-1.3.8.4 1.5.1 1.5-.5 0-1.8 1.8-1.3 2.9.8zm7.1 1.1c0 .5-.2 1-.4 1-.3 0-.8-.5-1.1-1-.3-.6-.1-1 .4-1 .6 0 1.1.4 1.1 1zm294.6 141.5c-.3.8.2 1.9 1.2 2.4.9.5 1.4 1.2 1.1 1.6-1.1 1-3.9-2.5-3.3-4 .4-.8.8-1.5 1.1-1.5.3 0 .3.7-.1 1.5zm-128.6 4.1c0 1.7-1.2 1.8-2.8.2-1.8-1.8-1.5-2.7.8-2.1 1.1.3 2 1.2 2 1.9zm141-.6c0 .5-.2 1-.4 1-.3 0-.8-.5-1.1-1-.3-.6-.1-1 .4-1 .6 0 1.1.4 1.1 1zm-9 8.4c0 .9-3 1.4-3.5.6-.4-.6.3-1 1.4-1 1.2 0 2.1.2 2.1.4zM582.828 106.874c0 .2.8 1 1.8 1.7 1.5 1.3 1.6 1.2.3-.4s-2.1-2.1-2.1-1.3zM587.728 116.574c-.1 1.3 0 3.2.1 4.2.2 2.7-2 5-3.5 3.7-.9-.8-1.5-.8-2 0-.3.5-.1 1 .4 1 1.3 0 1.4 3.2.2 4.5-1.5 1.6-2.5 7.9-1.2 7 .7-.4 1.8-.1 2.6.5 1.2 1 1.6.9 2.1-.4.3-.9 1.5-1.6 2.5-1.6 1.4 0 1.9-.7 1.9-2.7 0-2.6 0-2.6 2-.8 1.5 1.4 2.3 1.6 3.2.7.8-.8 1.8-.7 3.9.4 3.2 1.6 3.2 1.9-.5-6.7-.8-2-1.2-3.9-.9-4.3.3-.3-.1-1.4-1-2.4-1-1-1.4-2.2-1-2.5.7-.7-1-1.1-4-.7-1 .1-2.5-.4-3.3-1-1.1-1-1.4-.8-1.5 1.1zM603.528 132.574c.7.7 1.5 1 1.8.7.3-.3-.2-.9-1.2-1.2-1.4-.6-1.5-.5-.6.5zM607.828 136.674c.7 1.3 2.8 3.7 4.8 5.5 3 2.6 3.4 3.4 2.3 4.6-1 1.3-.8 2.4.9 6.2 1.1 2.5 1.8 5 1.5 5.5-.3.5.3 2.7 1.5 5 1.9 3.7 1.9 4.2.5 7.6-1.7 4.2-1.9 8.7-.5 11.4.8 1.4.6 2.1-.5 2.7-1.3.7-.9 1.5 1.9 4.6 1.8 2 4.2 3.7 5.1 3.7 1.3 0 1.5-.3.7-1.3-.7-.8-.9-2.9-.5-5 .5-3.6.7-3.7 3.9-3.1 2.2.4 3.4.2 3.4-.5 0-.6-.5-1-1.1-.9-.6.2-1.4-.3-1.7-1.1-.2-.8 0-1.1.6-.7.5.3 2.5-.1 4.3-.9 1.9-.8 2.8-1.4 2.2-1.5-.7 0-1.3-.6-1.3-1.4 0-.7-.6-1.9-1.3-2.5-.8-.6-1.3-2.7-1.2-4.8.1-3.2-.5-4.4-3.7-7.5-2.1-2.1-3.8-4.7-3.8-5.8 0-1.1-.4-2-1-2-.5 0-1-.4-1-1 0-1.2-8.1-12-9-12-.4 0-1-.9-1.3-1.9-.2-1.1-1.9-2.7-3.7-3.6l-3.1-1.6 1.1 2.3z"/><path d="M471.228 137.574c-.3.5 0 1.8.6 2.8 1.2 2.3 3.6 1.8 4.3-.9.3-1.3-.2-1.9-1.9-2.3-1.4-.2-2.7-.1-3 .4zM567.828 149.274c0 1.2.7 2.5 1.5 2.9 2.5.9 2.7-.2.6-2.8l-2-2.4-.1 2.3zM572.228 154.174c-.4 1.6-1.3 3.4-2.2 4-.9.7-1.2 1.6-.8 2 .4.5 1.4-.1 2.1-1.2.8-1.1 1.9-2.5 2.5-3.2 1.3-1.5 1.3-4.3 0-4.3-.5 0-1.2 1.2-1.6 2.7zM572.028 162.474c-.7 1.2-1 2.5-.7 3 1.1 1.8 2.1 1 2.3-2 .3-3.5.1-3.7-1.6-1zM137.828 187.074c0 .8 3.2 3.3 4.3 3.4.5 0 .5-.4.2-1-.8-1.3-4.5-3.3-4.5-2.4zM152.428 187.974c.5 1.2.4 1.6-.3 1.2-.6-.4-2.4 0-3.9.8-1.6.8-3.5 1.5-4.1 1.5-1.8 0 2.4 7.8 4.8 9.1 1.1.5 1.9 2 1.9 3.5 0 1.4 1.1 3.6 2.5 5s2.3 3 2 3.5c-.4.5.3.9 1.3.9 1.1 0 2.4.6 2.9 1.2 1.4 1.7 2.2 6.8 1.2 6.8-.5 0-1.1 2.3-1.5 5-.6 4.2-1 5-2.4 4.5-1.4-.4-1.7 0-1.7 2 0 1.4.4 2.8 1 3.2.6.4.8 0 .4-1-.3-1-.2-1.7.4-1.7.6 0 1.7-.6 2.5-1.4.8-.8 2.3-1.2 3.5-.9 1.4.4 2.6 0 3.4-1 1.1-1.5 1.3-1.4 2.4.9 1 2.3 1.6 2.5 4.5 2 2.4-.5 3.9-.2 5 .9 1.5 1.5 1.6 1.3 1.7-2.2.1-2.1.1-4.2 0-4.6-.2-1.3 2.6-3.7 4.3-3.7.9 0 1.6.5 1.6 1.1 0 .7 1.1.9 2.6.6 1.6-.3 2.8 0 3.1.9.3.8 1.2 1.4 2 1.4s1.2-.4.8-.9c-.3-.6.2-1.4 1.1-1.9 1.3-.7 1.4-1.3.5-3-1.7-3.2-1.4-4.7.5-3.1 1.5 1.2 1.6.9.9-3.1-.6-4.2-2.1-6.3-4.9-7.3-1.5-.6-.6-1.4 1.9-1.9 2.4-.4 4-4.8 2.2-6.1-.9-.7-.9-1 .1-1.4 3.4-1.4-.8-6.4-5.2-6-2.3.2-3.2-.4-4.5-2.7-1.5-2.6-2.4-3-7-3.4-3.7-.2-5.1 0-4.7.7.5.7-.3 1.1-2.1 1.1-1.6 0-3.4.5-4.1 1.2-.9.9-1.2.8-1.2-.4 0-2.2-3.7-2.9-8.7-1.6-3.3.8-4.7.7-5.8-.2-1.3-1.1-1.4-1-.9.5zM634.828 202.174c0 .5.7 1.7 1.5 2.7 1.4 1.8 1.5 1.8 2.1.2.4-1.1.1-2.2-.7-2.7-1.7-1.1-2.9-1.1-2.9-.2zM633.528 204.574c.7.7 1.5 1 1.8.7.3-.3-.2-.9-1.2-1.2-1.4-.6-1.5-.5-.6.5zM119.828 310.474c-1.2.8-1 1 .8 1 1.3 0 2-.4 1.7-1-.7-1.2-.6-1.2-2.5 0zM328.728 404.174c-2.6.6-3 4-.6 4.7 2.6.7 3.7 0 3.7-2.4 0-2.2-.8-2.8-3.1-2.3zM325.228 412.074c.4 3.3 2.5 4.7 4.4 2.8 1.2-1.3 1.2-1.7-.3-3.4-2.6-2.8-4.4-2.5-4.1.6zM311.828 412.574c0 .7-.9.9-2.2.6-2.2-.6-2.2-.5.2 1.4 1.4 1.1 3.6 2.8 4.8 3.9 2.8 2.4 3.3 2.5 2.6.6-.4-1 .2-1.2 2-.9 1.9.4 2.6.1 2.6-1.1 0-.9.5-1.6 1-1.6.6 0 1-.4 1-1 0-.5-.6-.7-1.4-.4-.8.3-1.7.1-2-.4-.3-.6-1.5-.8-2.5-.5-1 .3-2.8 0-4-.6-1.6-.9-2.1-.9-2.1 0zM333.628 416.174c.7.3 1.6.2 1.9-.1.4-.3-.2-.6-1.3-.5-1.1 0-1.4.3-.6.6zM310.128 420.174c.9.2 2.3.2 3 0 .6-.3-.1-.5-1.8-.5-1.6 0-2.2.2-1.2.5zM312.828 423.074c0 1.6 6.5 2.2 10.3 1.1 4.7-1.5 2.9-2.7-3.8-2.5-4.5.1-6.5.6-6.5 1.4zM199.828 434.974c0 1.6 3.2 6.3 6.1 9l3.2 3-2.1-3.2c-1.2-1.7-2.2-3.7-2.2-4.5-.1-1.2-5-5.5-5-4.3zM137.528 447.474c-.3 1.3 0 2 .8 2 2.1 0 2.7-1.6 1.1-2.9-1.1-.9-1.5-.7-1.9.9zM207.528 449.874c-.6 1.4 2 4.1 5.9 6.3 3.7 2 3.5.2-.4-3.8-4.1-4.3-4.7-4.6-5.5-2.5zM216.428 458.274c-.3.6-.1 1.4.5 1.7 1.4.9 2 .2 1-1.4-.6-.8-1.1-.9-1.5-.3zM951.828 514.874c-.8 2.4-1.6 3.3-2.6 2.9-1-.4-1.2 0-.8 1.2.5 1.2 0 2.3-1.6 3.5-1.3 1-2 2.2-1.6 2.9.9 1.3 3.6 1.5 3.6.2s5.9-1.1 6.7.2c.3.5 0 .8-.8.5-.7-.2-2.2.3-3.2 1.3-1.7 1.5-1.8 2.1-.6 5.3.7 2 1.5 3.6 1.9 3.6.3 0 .6 1.7.7 3.7.2 3.7 1.8 5.6 4.1 4.8.7-.2 1.2.4 1.2 1.5 0 1 .5 2.2 1 2.5 1.6 1 1.2 4.5-.4 3.9-1-.4-1.4.3-1.2 2.5.1 1.7-.1 3.1-.6 3.1-1.1 0-1 6.8.2 7.5 1.8 1.1 5.2-1.5 4.7-3.6-.5-1.7.1-1.9 4.8-1.9h5.4l.3-4.8c.2-2.6-.4-6.8-1.4-9.5-.9-2.6-1.2-4.7-.7-4.7s.9-1 .9-2.3c0-1.5-.7-2.3-2-2.5-5.1-.6-6.7-.6-9.7.1-2.8.5-3.3.4-3.3-1.3 0-1-.4-2.2-1-2.5-.6-.4-.3-1.6.8-3.3 1.8-2.8 4.2-8.9 4.2-10.9 0-.7-1-1.7-2.1-2.4-1.5-.7-1.9-.8-1.5 0 .5.7.1.9-.8.5-.9-.3-1.6-1.4-1.6-2.4 0-3.4-1.8-3.1-3 .4zM332.328 513.474c.3.5 1 1 1.6 1 .5 0 .9-.5.9-1 0-.6-.7-1-1.6-1-.8 0-1.2.4-.9 1zM918.428 515.674c.5.7.1.9-1.3.6-1.5-.4-2.2.2-3 2.3-1.1 2.7-1 2.8.9 1.8 1.4-.8 1.8-.8 1.4 0-.4.5.5 1.8 1.9 2.7 2.2 1.4 3.8 6.3 1.6 5-1.3-.8-2.2 2.2-1.5 4.9.6 2.2.3 2.4-2.6 2-1.8-.2-3.8-.9-4.3-1.4-1.9-1.9-2.2-1.2-2.2 6.1v7.3l-2.7-.2c-1.6-.1-2.8 0-2.8.3 0 .9 3.3 6.9 5.2 9.5 2.4 3.1 2.7 9.2.8 13.6-1.2 2.8-1.2 3.9.5 9 1.1 3.2 2.1 6.3 2.3 7 .2.6-.6 1.3-1.7 1.5-2.1.3-2.1.3.2 3 3.1 3.7 6.7 4.6 7.4 1.9.5-2 .6-2 1.8-.4 1.2 1.6 1.7 1.7 4.7.4 1.8-.7 4.1-1.4 5.1-1.4 1.1-.1 1.7-.9 1.7-2.4 0-1.3.6-2.6 1.4-2.9.8-.3 1.2-1.2.9-2-.3-.8 0-1.4.6-1.4s1.1-.7 1.1-1.5.6-1.5 1.3-1.5c.6 0 .4-.5-.5-1.1-2.3-1.3-2.4-3.1-.2-2.2 1.3.5 1.5.2.9-1.7s-.4-2.2.9-1.7c1.2.5 1.6 0 1.6-1.6 0-1.3.5-2.8 1.2-3.5.9-.9.9-1.2 0-1.2-.7 0-1.2-1.1-1.2-2.5s-.5-2.5-1-2.5c-.6 0-2-2-3.2-4.5-1.9-3.9-2-4.8-.9-6.9.8-1.4 1.1-3.3.7-4.2-.4-1 0-3.2 1-5 2.1-3.8 1.3-6.4-1.9-6.4-1.5 0-2.9-1-4-2.9-.9-1.6-3.2-4.2-5-5.7-1.7-1.5-3.2-3.2-3.2-3.8-.1-2-2.7-7.6-3.7-7.6-.5 0-.6.5-.2 1.2zM943.428 527.974c-.9 2.6-.7 3.2.5 1.2.6-1 .9-2.1.6-2.3-.2-.3-.7.2-1.1 1.1zM303.628 598.174c.7.3 1.6.2 1.9-.1.4-.3-.2-.6-1.3-.5-1.1 0-1.4.3-.6.6zM293.228 602.974c.3.8.1 1.5-.4 1.5-1.5 0-1.2 4.7.3 5.3.7.3 2.4-.1 3.8-.9 1.3-.7 3.6-1.3 5.1-1.4 2.1 0 2.6-.4 2.1-1.6-.3-.9-.9-1.1-1.2-.6-.3.5-2.3.9-4.5 1-3.6.1-3.8 0-3.2-2.3.5-1.9.2-2.5-1-2.5-1 0-1.4.5-1 1.5zM1014.328 709.374c-.3.5-.1 1.2.5 1.6.5.3 1-.1 1-.9 0-1.8-.6-2.1-1.5-.7zM758.128 766.174c-1.3.5-1.9 4.3-.7 4.3 1.8 0 4.2-2.2 3.8-3.5-.6-1.6-1.1-1.7-3.1-.8zM746.828 770.474c0 .5.5 1 1.1 1 .5 0 .7-.5.4-1-.3-.6-.8-1-1.1-1-.2 0-.4.4-.4 1zM899.828 770.374c0 .5.5 1.3 1 1.6.6.3 1 .2 1-.4 0-.5-.4-1.3-1-1.6-.5-.3-1-.2-1 .4zM734.928 776.674c-.6 1-1.1 2.4-1.1 3.2 0 .8-.6 1.7-1.2 1.9-2 .8 7.4 0 10-.8 1.2-.4 2.2-1.1 2.2-1.6s-.6-.6-1.3-.3c-1.5.5-4.2-2-3.4-3.3.3-.4-.5-.8-1.8-.8s-2.8.8-3.4 1.7zM699.428 782.974c-.3.9-1.1 1.5-1.8 1.4-.7-.1-3 .1-5 .5-2.5.6-3.5 1.2-3.1 2.2.3.8-.1 1.4-1.1 1.4-.9 0-1.6.5-1.6 1.1 0 .7-1 .9-2.5.7-1.4-.3-3.2.2-4.3 1.1-2.3 2-4.2 2.4-4.2.9 0-.6-1-.2-2.3 1-1.6 1.5-3 1.9-4.6 1.5-1.7-.4-2.8 0-4 1.6-.9 1.1-3.9 2.9-6.6 4-2.9 1.1-5.4 2.7-6 4-.7 1.5-1.9 2.1-4.4 2.1-3.3 0-3.4.1-2.8 3.6l.6 3.6-3.4-.4c-2.7-.3-3.5 0-3.5 1.1s-.8.8-2.5-1.1c-1.4-1.5-2.5-3.1-2.5-3.5 0-.7-2.6-2.2-6.7-4-.7-.3-1.4.9-1.8 3.1-.5 2.3-1.4 3.8-2.7 4.2-1.9.6-1.9.7-.4 2.2 1.3 1.3 2 1.4 3.4.6 1.4-.9 2.3-.6 5 1.7 2.9 2.6 4 2.9 10.2 2.9 4.5 0 7 .4 7.3 1.2.4 1 .6 1 .6.1.1-.9.8-1 2.4-.4 1.2.4 2.7.6 3.4.4.6-.2 1.4.1 1.8.6.3.6 1.3 1.1 2.1 1.1s1.2-.4.9-1c-.3-.5.2-1.9 1.2-2.9 1.8-2 1.9-2 4.6 1.4 3.5 4.4 11.4 9.8 12.9 8.9 3.6-2.3 12.8.9 12.8 4.4 0 1 .5 2.3 1.2 3 .8.8.8 1.5-.1 2.6-1 1.2-.8 1.6.9 2.1 2.3.7 7.1-2.8 6.7-4.9-.1-.6.8-1.2 2.1-1.4 1.7-.3 2.2-1 2.2-3.3 0-1.9.5-2.9 1.5-2.9.9 0 2-1 2.6-2.3 1.1-2.4 6.1-5.1 8.1-4.5 2 .7 3.8-1.8 3.8-4.9 0-2.1-1.3-4.3-4.5-7.7-2.5-2.6-4.5-5.2-4.4-5.9.4-2.3-1.3-4.7-3.5-4.7-1.7 0-1.8-.2-.6-1 1-.6 2.6-.2 5.2 1.2 2.1 1.2 4.1 1.9 4.5 1.5.3-.4 0-.7-.8-.7s-.4-.6.9-1.6c3.4-2.3.8-4.3-4.7-3.7-3.8.5-4.2.3-3.8-1.3 1.8-6.2 1.7-8-.3-10.2-2.4-2.6-7.5-3-8.4-.7zM728.828 784.474c0 .5.5 1 1 1 .6 0 1-.5 1-1 0-.6-.4-1-1-1-.5 0-1 .4-1 1zM720.728 794.074c-1.6 3.9-1.8 5.3-.8 8.1 1.1 3.5 3.1 3.8 2.2.3-.4-1.4.3-2.4 2.6-3.7 1.7-1 3.1-2.5 3.1-3.3-.1-7.3-4.2-8.1-7.1-1.4zM616.828 816.674c-1.4.6-4 1.7-5.7 2.5-1.8.7-3.2 1.9-3 2.6.2 1.1-.4 1.1-4.5 0-3.3-.9-1.9 2.2 3 7 2.6 2.6 5.3 4.7 5.9 4.7.6 0 1.4 1.3 1.8 3 .5 2.1 1.3 3 2.7 3 2.8 0 5.1-2.6 4.3-5-.5-1.4-.2-2 1-2s1.4-.6.9-2.7c-.6-2.2-.4-2.5.9-2 1.9.7 2.7-.3 3.7-4.9.8-3.5.2-4.2-1.8-2.2-1.4 1.4-2.8.3-3.4-2.7-.4-2.3-2.4-2.8-5.8-1.3zM607.828 839.474c0 .5.4 1 .9 1s1.6.3 2.4.6c.8.3 1.7-.1 2-.8.3-1-.4-1.5-2.4-1.6-1.6-.1-2.9.2-2.9.8zM971.128 849.174c-.7.2-1.3 1.3-1.3 2.3 0 2.2-3.6 5-6.2 5-2.3 0-8.8 4.1-8.8 5.5 0 1.5-5.2 4.3-6.7 3.8-.7-.3-1.3 0-1.3.6s-.6 1.1-1.4 1.1c-.7 0-2.1 1.6-3 3.5-1.4 2.9-2 3.4-3.5 2.5-2-1-4.2.7-5.4 4.2-.4 1.1-1.2 1.5-2.2 1.2-.8-.4-1.5-.1-1.5.6 0 1-.4.9-1.6-.1-1.3-1-1.7-1-2.4.1-.4.7-.4 2 0 2.9.5.9 1.1 2.3 1.3 3.2 1 3.3 8.2 3 9-.3.4-1.4 1.2-1.9 2.4-1.6 1.3.4 1.9-.1 2-1.3.3-3.2 3.4-5.8 5.8-4.9 2.7 1 4.8-.1 3.9-2.3-.4-1.2-.1-1.7 1-1.7.9 0 1.6-.5 1.6-1.1 0-.7.8-.6 2.3.4 1.2.8 2.1 2.1 1.9 2.8-.2.7.1 1.5.5 1.8.4.3 1.5 1.9 2.3 3.5.8 1.6 2 3.1 2.5 3.2 1.6.5 8.5-9.1 8.5-11.8 0-1.2.9-3.4 2-4.8s2-3.1 2-3.8c0-.6.6-1.2 1.4-1.2 1.3 0 1.3-.6.4-10-.4-3.5-2.3-4.7-5.5-3.3zM871.428 854.774c.5 1.3.1 1.7-1.6 1.7-1.3 0-1.9.4-1.4 1.1.3.6 0 1.5-.7 2-1.1.6-1.1 1.1-.1 2.1.9.9 2 .7 4.9-1.1 2.1-1.2 4.6-2.5 5.6-2.8.9-.3 1.7-.9 1.7-1.3 0-1.3-3.9-1.9-4.3-.6-.3.7-1.2.4-2.6-.8-1.8-1.7-2.1-1.7-1.5-.3zM463.128 861.974c-3.5 3.5-4.2 5.5-1.9 5.5.7 0 1.9.7 2.6 1.5 1.3 1.5 5.1 2.1 4.9.7-.4-2.6.5-4.1 3.1-5.2 1.7-.7 3-1.6 3-2 0-.6-7.3-4.1-8.3-4-.1.1-1.7 1.6-3.4 3.5zM867.828 865.474c0 .5.7.7 1.5.4.8-.4 1.5-.8 1.5-1 0-.2-.7-.4-1.5-.4s-1.5.4-1.5 1zM452.228 866.374c.7 1-4.2 3.3-5.5 2.6-.5-.4-.9.7-.9 2.2 0 1.6-.5 3.4-1.1 4-.8.8 0 1.4 2.8 2.3 2.1.7 4.2 1.6 4.8 2.1 1.3 1.2 4.5 1.1 4.5-.2 0-.5.6-.7 1.3-.4.6.4.5.1-.4-.7-.9-.7-1.9-3-2.3-5-.5-2.9-.3-3.9 1.1-4.7 1.6-.9 1.6-1.2.3-2.1-1.8-1.2-5.3-1.3-4.6-.1zM973.228 875.674c-.5 1.3-.8 2.6-.9 3 0 .3-.3 1-.7 1.4-1.2 1.1-1 3.6.2 2.9.6-.3 1-.1 1 .6s-1.1 1-3 .7c-3.4-.5-3.9.6-1.1 2.3 1.2.8 1.6 1.9 1.3 3.2-.3 1.4-.1 1.8.6 1.3.7-.4 1.2-.3 1.2.2 0 .6-.7 1.2-1.5 1.6-2.2.8-1.8 3.6.4 3.6 1.1 0 2.9 1.2 4 2.7 1.1 1.6 2.1 2.2 2.1 1.5 0-1 .4-1 2.1 0 1.7 1.1 2.2 1 3.3-.4 1-1.4 1.9-1.6 4.5-.8 1.9.5 2.9.5 2.6-.1-.4-.5-1.2-.9-1.8-.9-.7 0-1.8-.9-2.4-1.9-1-1.5-.9-2.2 0-3 1.5-1.1 1-8.1-.4-8.1-.5 0-1.5-1.2-2.1-2.8-1.2-2.8-6.7-9.2-7.9-9.2-.4 0-1.1 1-1.5 2.2zM994.528 899.774c-.9 1.2-1.6 2.8-1.6 3.7.1 1.1.2 1.1.6-.3.5-1.8 4.8-2.4 5.8-.7.9 1.4 2.8 1.2 2.2-.3-.2-.6-1-1.1-1.6-1-.6.2-1.1-.3-1.1-1.1 0-2.3-2.5-2.5-4.3-.3zM1002.828 907.474c0 .5.5 1 1.1 1 .5 0 .7-.5.4-1-.3-.6-.8-1-1.1-1-.2 0-.4.4-.4 1z"/></g></svg>