<svg version="1" xmlns="http://www.w3.org/2000/svg" width="1327.851" height="1187.054" viewBox="0 0 995.888 890.291"><g fill="#222"><path d="M178.304 2.09c-.9 1.2-2.8 2.2-4.2 2.2-1.4.1-3.2.6-3.9 1.2-.7.6-2.7 1.8-4.5 2.7-2.1 1.1-3 2.1-2.7 3.1.4.9 0 1.5-1 1.5-.9 0-1.6.6-1.6 1.3 0 1.8 2.1 3.7 4 3.7 1.7 0 4.5 3.8 3.5 4.8-.3.4-1 0-1.5-.7-.4-.8-1.7-1.2-2.8-.9-1.6.5-2.2.1-2.4-1.6-.2-1.3-1.1-2.2-2.5-2.4-1.9-.3-2.3.1-2.3 2.5 0 1.6-.6 3.5-1.2 4.2-1.1 1.1-.6 1.2 2.7.9 5.2-.6 7.3 1.6 7 7.2-.2 3.2.2 4.3 2.1 5.5 1.5.9 2.4 2.5 2.4 4 0 1.4.6 2.5 1.3 2.5 2.1 0 5 2.5 5.2 4.6.4 3.4 1.7 5.4 3.6 5.4 1 0 2.4 1.2 3.1 2.7 1.5 3.2 4.3 3.6 9.8 1.5 3.4-1.3 3.6-1.2 6.2 2 1.5 1.8 3.9 4.6 5.3 6.2 1.4 1.6 2.5 3.7 2.5 4.7 0 2.7.1 2.9 2.7 8.2 2.2 4.3 3.2 5.1 11.8 9.3 5.1 2.5 9.9 5.2 10.5 6 .7.7 1.6 1.2 2 .9.9-.5 5.2 3.9 4.9 5.1-.4 2.1.2 3.5 1.1 2.9.6-.4.8-1 .5-1.5-.9-1.5 2.7-2.1 3.9-.5.6.8 2.7 2.3 4.7 3.3 3.6 1.8 3.8 1.8 6 .1 3.2-2.5 9-2.4 12.3.2 1.4 1.1 2.6 1.6 2.6 1 0-1.3 6.3 2.5 10.1 6.1 2.4 2.1 2.9 3.4 2.7 6.7-.1 4.3-1.2 5-4.8 3.1-1.3-.7-2.1-.7-2.5 0-.4.6-1 .8-1.5.5-.4-.3-1 1.1-1.2 3-.2 1.9 0 3.5.4 3.5 1.4 0 .9 3.4-.8 5.9-1.3 1.8-2.2 2.1-4.3 1.6-2.5-.6-2.5-.6-.6.9 1.1.9 1.4 1.6.8 1.6-.7 0-1.3.6-1.3 1.4 0 .8-.7 1.6-1.5 2-.8.3-1.5 1.5-1.5 2.6s-.5 2-1.1 2c-.5 0-.7.5-.4 1 .4.6-.5 2.4-1.9 4.1-1.4 1.7-2.6 3.7-2.6 4.5 0 1.1-.6 1.3-2 .9-1.6-.5-1.9-.3-1.3 1.1.5 1.4.2 1.6-2.1 1.2-1.4-.3-2.9-.1-3.2.4-.3.5-1.2.7-2 .4-.8-.3-1.4.1-1.4.9s-1.4 1.8-3.2 2.3c-2.4.6-3.7 1.9-5.3 5-1.4 3-2.5 4.1-3.7 3.8-1-.2-2.1 0-2.4.5-.3.5-1.4.9-2.6.9-1.1 0-2.2.8-2.5 1.9-.4 1.6-1.1 1.8-3.9 1.4-3.2-.5-3.4-.4-3.4 2.5 0 2.3-.5 3.1-2.4 3.6-3 .7-10.9 9.5-10.2 11.3.3.7.1 1.5-.4 1.8-.5.3-.2 2.1.6 4 .8 2.1 1 3.5.4 3.5-.5 0-1 .9-1 1.9 0 1.1-.5 2.1-1.2 2.3-.6.2.3 1 2 1.7 3.2 1.3 4.6 5.1 2 5.1-1.9.1 4.4 3.3 6.6 3.5 2.7.2 4.6 3.3 2.7 4.4-1 .7-.4 1.8 2.9 4.7 2.4 2.2 5.1 4.5 6.1 5.2 1.5 1 5.9 8.4 5.9 9.8 0 1-6-.2-6.4-1.3-.3-.7-1.7-1.3-3.1-1.3-1.4 0-2.8-.6-3.1-1.4-.3-.8-1.2-1.2-2-.9-.8.3-1.4.1-1.4-.4 0-1.3-10.9.4-12.8 2-1.1.9-1.7.7-2.8-.7-.7-1.1-1.1-2.3-.8-2.7.3-.5-.8-.9-2.5-.9-1.6 0-3.3-.5-3.6-1-.4-.6-1-.8-1.4-.5-.5.2-1.6-.4-2.6-1.5-1.4-1.5-1.5-2.3-.6-3.4s.8-1.7-.3-2.8c-.8-.8-1.1-2-.6-2.7 1.3-2.1.9-15.5-.4-17.1-1.7-1.9-3.6-7.6-3.6-10.6 0-1.6-1-2.8-2.8-3.8-1.6-.8-3.4-2.2-4.1-3-1.9-2.2-4.8-2-5.4.4-.5 2-.7 2-4.2.5-2.1-.8-4.4-1.5-5.1-1.5-.8 0-2.3-.9-3.4-2s-2.9-2-4-2-2-.5-2-1c0-.6-.7-1-1.5-1-.9 0-2-1.1-2.7-2.4-.6-1.4-2.4-3-4-3.7-1.7-.7-3.9-2.6-4.9-4.3-1.9-3-1.9-3-2.5-.9-.4 1.6-1.7 2.4-4 2.9-1.9.3-3.6 1-3.9 1.4-.2.4-1.7.5-3.2.3-2.1-.3-2.4-.2-1.3.6.8.5 1.7.8 2.1.6.3-.3 1.1.7 1.7 2 1.2 2.7 5.2 3.5 5.2 1.1 0-.7 1-1.6 2.1-1.9 1.5-.4 2-1.1 1.5-2.2-.4-1.1-.2-1.5.6-1.2.7.2 1.3 1.5 1.4 2.8.2 5.4.4 6.1 1.9 5.6 2.3-1 2.5.7.5 4.1l-1.9 3.1 3.4 2.9c1.8 1.6 3.5 3.8 3.7 4.8.2 1.1.9 1.8 1.6 1.7 2.3-.5 3.4 3.5 1.7 6.6-1.7 3.5-2 6.7-.5 7.6.8.5.7 1.1-.1 2.1-.6.8-.9 2.3-.6 3.4.3 1.1.1 2-.4 2-1.2 0-1.1 3.7.1 4.5 1.5.9 1.2 5.5-.4 6.1-2.1.8 1.2 6.1 4.1 6.9 2.4.6 2.6 1.3 2.4 9-.1 2.2-.1 5.6-.1 7.6s-.7 4.2-1.5 4.9c-1.6 1.3-.9 4.4.8 3.3.7-.4.8 0 .2 1.3-.4 1-.8 2.6-.9 3.4-.1.9-.5 2.1-1 2.8-.4.8 0 2.4 1.1 4 2.6 3.9 3.2 5.6 2.2 6.8-.6.7-.5 2.2.1 3.9.6 1.5.8 3 .5 3.5-.3.5-.1 2 .5 3.4.5 1.4.6 2.6.2 2.6-.4 0-1.3.9-2 2-1 1.6-.9 2.7.4 5.9 1.6 4.1 5 6.3 6.3 4.2.5-.8 1.2-.6 2.3.6 2.1 2.3 1.3 11.3-.9 11.3-1.2 0-1.2.4.1 2.2 1.8 2.5 2.2 6.3.6 5.3-.6-.3-1 .5-1 1.8 0 1.4.8 2.8 1.8 3.2 1.5.6 1.4.8-.5 1.6-1.5.5-2.3 1.7-2.3 3.3 0 1.7-1 3-3.4 4.4-3.2 1.9-3.4 2.3-2.7 5.4.4 1.8 1.3 4.3 2 5.6.6 1.2.9 2.2.5 2.2s.2 1 1.3 2.2c1.1 1.3 2.3 3.1 2.6 4 .3.9 2.3 2.2 4.5 2.7 4.4 1.2 7.5 4.1 6.7 6.3-.4.9.4 2.1 1.9 3.2 1.5.9 2.6 2.5 2.6 3.6s.9 2.4 2 3c1.6.9 1.8 1.5 1 3-.7 1.3-.7 2.1 0 2.5 2.6 1.6 3.6 7.1 2.9 15.5-.4 4.7-.8 9.1-.8 9.8-.1.7-.5 1-1.1.7-.5-.3-1 .1-1 .9 0 .9-.7 1.6-1.5 1.6-.9 0-2.7.7-4.1 1.6-2.3 1.6-2.4 1.8-.8 3.5 1.4 1.6 1.5 2.4.6 4.4-.6 1.4-1.6 2.5-2.2 2.5-.6 0-.8.4-.5 1 .3.5-.1 1-.9 1-.9 0-1.6.4-1.6 1 0 .5-.7 1-1.6 1-1.4 0-1.4.3-.4 1.5 1.9 2.3.5 2.9-2.4 1-2.4-1.6-2.8-1.6-5.2 0-1.4.9-3.5 1.5-4.5 1.2-1-.3-2.2-.1-2.5.4-.3.5-1.4.9-2.5.9s-2.3.8-2.6 1.7c-1 2.8-2.2 3.1-6.1 1.8-3.8-1.3-5.5-3.5-2.8-3.5 1.3 0 1.4-.4.4-2.4-1.5-3.5-3.4-3.9-6.3-1.3-1.9 1.7-2.8 3.8-3.6 8.7-.6 3.6-1.4 6.6-2 6.8-.5.2-.9 1-.9 1.8s-.5 1.4-1 1.4c-.7 0-.7.6 0 1.9 1.3 2.6 1.3 2.8-.9 3.4-1.4.3-1.8 1.1-1.4 2.6.4 1.5.1 2.1-1.1 2.1-.9 0-1.6-.6-1.7-1.3-.1-.6-.5.6-1 2.8-.9 3.5-.7 4.2 1.5 6.3 1.3 1.4 3.7 2.5 5.2 2.6 3.5.1 5.6 3.6 5.2 8.8-.3 2.9 0 3.8 1.2 3.8.8 0 2.3 1.5 3.3 3.3 1.8 3.3 7.2 6.3 8.3 4.6.3-.5.9-.7 1.4-.4.4.3 1-.2 1.4-1 .3-.8 1.3-1.5 2.2-1.5 1.2 0 1.5-.6 1-2.5-.4-1.4-.5-2.5-.3-2.5 1.6 0 8 2.9 11.7 5.2 4.5 2.9 8.6 3.1 10.2.5.8-1.3 3.9 1 3.6 2.7-.1.6.1 2.1.5 3.2.7 2 1.3 2.1 8.1 1.7 6.6-.5 7.7-.3 10.5 1.8 1.7 1.2 3.1 3.1 3.1 4.1 0 1.2.7 1.8 2.4 1.8 2.5 0 4.3 2.5 2.6 3.5-1.7 1-1.1 2.5 1.3 3.6 2.9 1.3 5.6 8.7 5.3 14.4-.2 2.2.4 5.5 1.1 7.4 1.2 2.8 1.2 3.5.1 4.2-.7.5-1.6.9-2 .9-.5 0-.8 1.1-.8 2.5 0 2-.6 2.5-3.5 3.1-2.7.5-3.3.9-2.5 1.9.6.7.7 2.1.3 3-.4 1.3-.3 1.6.5 1.1.7-.4 1.5-.1 1.8.7.3.9 1.3 1.3 2.7 1 1.6-.4 1.9-.3 1.2.5-.6.6-1.9 1.3-3 1.5-3.1.5-5.4 2.1-5.2 3.7.3 3.2-1.6 10.2-2.9 10.7-1.8.7-1.8 4.7.1 6.3.8.7 1.2 1.6.9 2.1-.3.5 0 .9.7.9s2.6 1 4.3 2.3c1.7 1.3 3.9 2.6 4.9 3 .9.3 1.7 1.3 1.7 2.1 0 2.2 2.5 6.4 5.4 9.1 1.6 1.5 2.4 3 2 3.7-.5.7-.7 2.4-.6 3.9.1 1.5-.4 2.9-1.1 3.2-.8.3-1.4 1.9-1.5 3.7-.1 2.6.2 3 1.8 2.5 1.2-.4 2.6.1 3.7 1.2 1 1 2.6 1.7 3.6 1.5 4.3-.8 9.7 6.3 9.7 12.7 0 2.9.3 3.1 3.5 3.1 1.9 0 3.5.4 3.5 1 0 .5 1.1 1 2.4 1 2.8 0 3.8 1.2 5.5 6.6 1.4 4.2 3.6 6.1 8 6.6 1.7.2 2.7 1.3 3.5 3.8 1 3.3 1.3 3.4 5.1 3.2 4.6-.4 9.5 1.2 9.5 2.9 0 3.4 6.3 4.8 13.2 2.9 3.4-1 4.2-.8 7.5 1.5 4.3 2.9 5.8 3.1 6.7 1 .3-.8 1.3-1.5 2.1-1.5 1.1 0 1.6-.8 1.5-2.3-.1-1.2-.2-2.7-.1-3.4.1-1.5 6.1-1.4 8 0 1.6 1.4 4.3-1.7 3.4-3.9-.3-.8 0-1.4.7-1.4.6 0 .9.4.5.9-.3.5-.1 1.2.5 1.6 1.7 1 1.1-1.7-.7-3.8-1.7-1.9-1.7-2 .8-1.4 2.1.5 2.8.2 4-2.1.7-1.5 1.5-2.9 1.6-3.1.2-.2 1.2.4 2.3 1.4 1.7 1.5 2.4 1.6 4.5.7 1.4-.6 2.5-1.9 2.5-2.8 0-2.7 2.4-.9 3.2 2.4.6 2.3 1.4 3.2 2.9 3.2 2 0 4.2 3.9 4.1 7.2 0 .9.8 2 1.9 2.3 2.4.8 5.9-.3 5.9-1.8 0-.7.4-.6 1 .3.8 1.3 1.3 1.3 3 .2 1.4-.9 2.6-1 3.8-.3.9.6 1.3 1.1.9 1.1s.3 1.5 1.6 3.2c3.2 4.3 4 6.8 2.7 8.3-.8.9-.5 1.2 1.2 1 3.2-.3 3.2-.3 1.8-2-1.1-1.3-.8-1.5 1.8-1.5 4.2 0 8 1.6 10.3 4.3 1 1.2 1.8 1.9 1.9 1.5.1-2.2-2.3-10.8-3-10.8-.5 0-2.3-1.8-4-4-2.8-3.5-3.6-5.7-4.2-10.8-.1-.7-1.9-1.7-4-2.4-4.9-1.5-7.5-4.2-5.9-6.2 1-1.2.8-1.9-1.1-3.8-2-2-2.1-2.3-.5-2.6 1.3-.3 1.5-.9 1-3-.4-1.5-.7-6.5-.8-11.1 0-7.9.1-8.4 2.2-8.6 1.4-.1 1.9.3 1.6 1.2-.3.7-.1 1.3.4 1.3.6 0 3 2.7 5.6 5.9 4.4 5.7 4.8 6 10.1 6.6 3.1.4 5.6 1.2 5.6 1.7s.4.7.9.3c.5-.3 1.6.2 2.4 1 .9.8 2.1 1.5 2.7 1.5.9 0 1 1.1.6 3.6-.9 4.7 1.1 9.1 4.4 9.7 3.2.7 3.4.4 3.4-3.9 0-2.9.3-3.4 1.8-3.1 1 .3 1.8.1 1.8-.4 0-1.4 2.7-1 4.4.7.9.8 2 1.2 2.6.9 1.3-.8 1.3-3.8-.1-5.2-.8-.8-.8-1.3 0-1.7 1.6-1 3.1.2 2.4 1.9-.4 1.1-.1 1.3 1.1.9 1.2-.5 1.5-.2 1 1-1.1 2.9 1.6 7.7 4.7 8.3 1.8.3 3.4 1.6 4.2 3.2 1.1 2.3 1.8 2.6 6.6 2.6 4.3 0 5.6.4 6.5 1.9.6 1.1 2.6 3.3 4.4 4.9 1.8 1.7 3.2 3.9 3.2 5.2 0 1.3 1.4 3.7 3 5.3 1.7 1.7 3 3.7 3 4.5 0 .8.7 1.8 1.6 2.1.8.3 1.2 1 .9 1.6-.6.9 3.9 3.4 7.6 4.2 2 .4 6.2 6.7 5.6 8.3-.6 1.5 3 2.8 4.7 1.7 1.8-1.2 8-3.2 9.8-3.2.9 0 2.2-.8 2.7-1.8 1-1.6 1.2-1.6 2.4-.1.9 1.2 1.8 1.4 3.7.7 1.8-.7 2.7-.5 3.6.6.6.9 1.6 1.6 2.2 1.6.6 0 1.8 1.5 2.7 3.4 1.3 2.7 1.4 3.9.5 5.5-.9 1.7-.8 2.2.6 2.8.9.3 2 0 2.4-.7.6-1 2.5-.6 8.4 2 4.2 1.9 7.9 3.1 8.2 2.7.4-.4 2.2.7 4.1 2.3 2.5 2.2 4.4 3 7.2 3 5 0 13.1 3.7 20.3 9.1 3.2 2.4 6.9 5.2 8.2 6.1 3.9 2.8 8.7 10.7 9.2 15.2.7 6.9 1.3 8.4 3.1 8.2.9 0 1.9.8 2.2 1.9 1.2 4 4.4 7.6 10.2 11.1 3.2 1.9 6.9 3.6 8.3 3.7 1.3.1 4.7 2.3 7.6 4.9 2.8 2.6 6.4 5.1 7.8 5.6 1.5.5 2.8 1.7 3 2.8.2 1 .9 3.2 1.7 4.9.7 1.6 1.9 4.4 2.5 6.2.7 1.7 1.8 3.4 2.5 3.7 1 .3 1 1.3.2 4.4-.9 3.4-.8 4.3 1 6.8 1.9 2.6 2 3.2.7 5.4-1.9 3.6-1.7 4.4 1.5 5.7 2.5.9 2.9.8 2.4-.4-.5-1.2-.1-1.4 1.4-.9 3.7 1.2 4.9-.1 4.9-5.4-.1-5.3.6-6.6 2.6-5.4 2.2 1.4 3.8 1.3 3.8-.1 0-1.1 1.5-1.3 6-1.1 3.3.1 6-.1 6-.6 0-.4.9-.8 2-.8s2 .4 2 .8.9.8 2 .8 2-.6 2-1.2c0-.7.9-1.6 2-1.9 1.7-.5 2.5-2.2 2.1-4.7 0-.4.8-1 1.9-1.3 2.2-.7 2.6-2 1-3-1.7-1.1-1.1-2.5 1.1-2.5 1.8 0 2-.4 1.4-4.4-.6-3.4-.4-4.4.9-4.9.9-.4 1.6-1.6 1.6-2.7s.5-2 1-2c.9 0 1.4 1.7 1.3 4.8-.1.7 1.1 1.5 2.6 1.8 1.4.3 3 .7 3.6.8 1.5.4 4.5-2.7 4.5-4.6 0-1 .3-1.7.8-1.6.4.1 1.7-.4 3-1.1 1.7-.9 2.1-1.6 1.3-2.5-1.5-1.8-.3-2.6 4.2-2.6 3 0 4-.4 4.4-2 .4-1.5 1.1-1.8 3.4-1.3 2.5.5 2.9.3 2.9-1.8 0-2.2.1-2.2 1.7-.7 1.4 1.4 1.4 2.2.5 4.3-.9 2-.8 3 .8 5.8 1.6 2.6 1.8 4 1.1 6.5-.6 1.8-.6 3.4-.1 3.7 1.1.7-2.6 7.1-4.4 7.8-1.9.8-2.7 5.7-1 6.4.9.3 1.4 2 1.4 4.3 0 3-.5 4-2 4.5-1.4.5-2 1.6-2.1 3.8 0 1.8-.1 5-.3 7.2-.1 2.2.4 5 1.2 6.2 1.2 1.9 1.1 2.2-1 2.9-3.5 1.1-5 3.5-3.2 5.5.8.9 1.2 2.2.9 3-.6 1.6 5.4 4.7 10 5.1 4.6.4 17.6-1.3 17-2.2-.7-1.2 2-1.9 3.5-1 .8.5 1.9.2 2.8-.7.9-.8 2.4-1.2 3.8-.9 1.7.5 2.8-.1 4.3-2.1 1.2-1.4 2.4-2.3 2.8-2 .3.4 0 1.3-.7 2.2-.9 1-.9 1.5-.1 1.5.7 0 .9.9.5 2.4-.6 2.6 1.9 9.6 3.5 9.6.6 0 1.1.7 1.1 1.5s-.5 1.5-1 1.5c-.7 0-.7.6-.2 1.7.5 1 .7 2.4.5 3-.3.8.5 1.3 2.1 1.3 1.4 0 2.6-.5 2.6-1 0-1.5 5-1.2 5.1.2 0 .7.2 2.2.3 3.3.2 1.8-.2 2-3.1 1.7-4.1-.5-4.3 1.2-.4 3.2 3.6 1.9 3.7 2.2 3.6 12.3 0 8.1.3 8.8 3.4 8.3 1.1-.1 1.2.2.4 1.2-2.2 2.7-.4 7.8 2.8 7.8 1 0 1.9.4 1.9 1 0 .5.9 1 1.9 1 2.1 0 3.5 1.6 3.6 4 0 .9 1 1.5 2.5 1.5 2.3 0 2.5-.4 2.4-4.3 0-2.3.3-4.2.8-4.2s.6-.5.3-1c-.3-.6-.3-2 .1-3.2.6-1.9.8-2 1.8-.6 1.5 2 2.7 2.2 3.7.7.6-1 1.1-.7 1.8 1.1.5 1.4 1 2.1 1 1.6.1-.5.7-.3 1.5.3 1.6 1.4 2.2.7 2.4-3.2.1-2.1-.3-2.7-1.8-2.7-2.6 0-2.5-.8.2-3 1.3-1 2.3-2.8 2.3-4.1 0-2.1.4-2.3 4.1-2.1 4 .3 4.3.2 5.4-3.2.6-2 .9-4 .6-4.5-.4-.5-.2-1.2.4-1.6.5-.3 1-1.6 1-2.9 0-1.4.9-2.7 2.4-3.4 1.9-.8 2.6-2 2.8-4.8.3-3.8 1.4-4.9 6-5.8 1.5-.4 3-1.5 3.3-2.6.5-1.6 1-1.8 2.4-1 2.4 1.2 3.1.4 3.1-3.7 0-3.5.8-4.2 5.4-4.7 1.4-.1 2.9-.5 3.2-.9.3-.3 1.2-.3 2 0 2.6 1 6.4-.6 6.4-2.7 0-1.3.9-2.2 2.7-2.6 2.8-.7 7.4-4.3 5.7-4.5-.5-.1.2-.4 1.6-.8 1.4-.4 2.9-1.7 3.5-2.9 1.1-2.5 5.2-3 6.1-.7.5 1.1 1.4.9 4.7-1.3 3.5-2.3 5-2.7 10.9-2.6 6 .1 6.8-.1 6.8-1.8 0-2.7 5.2-2.3 10 .8 2.1 1.4 4.3 2.3 4.9 2 .5-.4 1.3 0 1.8.7.4.7 1.5 1.6 2.5 2 1.3.4 1.5 1.4 1.1 4.5-.3 2.2-.1 4.8.5 5.8.9 1.6 8.4 4.3 12.6 4.4 1 0 2.4.7 3 1.4.6.8 2.4 1.8 4 2.2 2.5.6 2.8.4 2.3-1-.6-1.5-.1-1.6 4.3-1 4 .5 5.6.3 8.6-1.5s3.5-1.9 3-.6c-.3.9-.6 1.9-.6 2.1 0 .2-.9.4-1.9.4-2.1 0-3.1 1.9-3.1 5.5 0 3.3-6.1 6.7-11.4 6.4-7.4-.4-9-.1-7.6 1.6.7.8 1 2.6.8 3.9l-.5 2.4 6.6-2c8.5-2.5 11.5-2.3 15.7.8 1.9 1.5 3.4 2.2 3.4 1.6 0-.7 1-.5 2.8.4 3.4 1.8 4.2 1.8 4.2-.1 0-.8.4-1.5 1-1.5 1.1 0 2 2.9 2.3 7.5.2 2.5-.2 3-2 2.9-1.3 0-2.3.3-2.3.7 0 1.5 5.3 4.9 7.5 4.9 1.4 0 2.5.7 2.8 2 .3 1.1 1.3 2 2.2 2 .9 0 1.3.4 1 1-.3.6-.2 1 .3 1 .6 0 1.3-.7 1.6-1.6.4-1.2 1.6-1.5 4-1.2 3.3.4 3.4.3 4-4 .4-3.1.1-5-1-6.8-.9-1.3-1.4-2.7-1-3.1.3-.3.1-1.2-.5-2-.9-1-.7-1.3 1-1.3 1.6 0 2.1-.6 2.1-2.6 0-1.4.4-2.3 1-1.9.6.3 1 1.5 1 2.6 0 1.7.3 1.8 2 .7 2.1-1.3 2.1-5.9 0-6.6-1.8-.6-5-4.4-4.4-5.4.3-.4.1-.8-.4-.8-1.8 0-5.2-4.2-5.2-6.6 0-1.8-.9-2.9-3.4-4.1-1.9-.8-4-2.8-4.7-4.2-1.2-2.5-1.3-2.5-1.6-.5-.4 2.4-4.9 3.9-5.7 2-.3-.7-.5-.7-.5.1-.1.9-.8 1-2.8.2-2.7-1-2.7-1-.8 1.1 2.1 2.3 1 4.4-2.1 3.8-1.5-.3-1.9-1.3-1.9-4.3-.1-2.2-.9-5.5-1.8-7.3-1.7-3.1-1.7-3.3.3-5.4 2.3-2.5 2.4-3.2 1-5.8-.7-1.3-.7-2.1 0-2.5.5-.3 1-2.1 1-4s.5-4.5 1.1-5.9c.9-2 .9-2.9-.1-4.1-.8-.9-.8-1.5-.2-1.5.7 0 .9-1.3.5-3.4-.3-1.9-.1-3.6.6-4 1.7-1.1 1.3-4.5-1-7.7-1.1-1.6-1.6-2.9-1-2.9.6 0 .5-1.6-.3-4.5l-1.4-4.4 3.1.6c2.7.6 2.9.4 2.2-1.3-.5-1-.9-4.2-1-7-.1-2.8-.5-5.6-.9-6.2-1-1.7.2-3.2 2.5-3.2 1.7 0 1.9-.7 1.9-6.1 0-5.1.2-6 1.4-5 1.1.9 1.5.7 1.8-.7.4-1.3 1.8-2.2 4.1-2.6 2.3-.4 3.7-1.3 4-2.6.3-1.1 1.3-2.3 2.4-2.6 1-.3 2.6-1 3.5-1.4 1.1-.6 2.9-.4 5.2.5l3.5 1.5 1.1-3.5c1-3.1 1.4-3.4 4.1-2.8 1.9.3 3.8-.1 5.6-1.2 1.7-1.2 2.8-1.4 3.1-.7.2.8 1 .8 2.8 0 2-.9 2.7-.8 3.7.5 1 1.4 1.8 1.5 5 .6 3.8-1 3.8-1.1 2.1-3-1-1.1-1.2-1.9-.5-1.9.8 0 .7-1-.5-3.1-.8-1.7-1.1-2.8-.5-2.5.5.4 1.7-.7 2.6-2.3 1.5-2.9 1.4-3.1-.9-4.6-2.7-1.8-3.9-4.8-2.3-6.4.7-.7.3-2.4-1.2-5.5-1.9-4.1-3-5.1-5.3-4.7-.9.1-1.1-1-.8-6.2.1-2.1-.3-3.7-.9-3.7-.6 0-1.1.4-1.1 1 0 .5-.9 1-2 1s-2 .7-2 1.5c0 1-.9 1.4-2.6 1.3-2.4-.2-2.5-.5-1.8-4.3.3-2.2 1.3-4.4 2-4.8 1.3-.8 1.1-4.5-.5-7.2-.3-.6-.4-2-.2-3.3.1-1.3-.9-4.1-2.4-6.3-1.5-2.1-2.5-4.5-2.2-5.3.7-1.6-3.5-6.6-5.5-6.6-.7.1-3 .7-5 1.4-3.9 1.4-4.8 1-2.6-1.2.9-.9.8-1.2-.4-1.2-.9 0-2 .5-2.3 1.1-.5.7-1.5.5-3-.5s-2.6-1.2-3-.6c-.3.6-2.9 1-5.7 1-4.3 0-4.9-.2-3.8-1.5 1.5-1.8.4-5.6-1.4-4.9-.7.3-1.6-.2-2-1.1-.4-1.1-1.2-1.4-2.6-1-2 .6-2.8-.9-1-2 .6-.3.7-1.8.3-3.3-.3-1.5-.6-3.3-.6-4.2.1-2.2-2.7-4.9-4.3-4.3-1.1.4-1.2.9-.3 1.9.9 1.1.6 1.4-2 1.4-2.8 0-3.1-.3-3.1-3 0-2.5.4-3 2.5-3 3.2 0 4.3-2.3 3.7-7.6-.4-4.3-.4-4.4 2.4-4.5 1.6-.1 3.4-.1 4.1 0 .9.1 2.4-3.6 2.7-6.9.2-1.2 4.7-5 6-5 2.8 0 6.3-4.6 8.2-10.8 1.4-4.7 2.3-6.2 3.5-5.9.9.2 2.1-.4 2.8-1.4.6-1.1 1.7-1.9 2.4-1.9s1.3-1 1.3-2.3c.1-9 .4-10.5 2.5-11 1.8-.5 2.1-1.1 1.5-3.7-.5-2.6-.2-3.3 1.4-3.7 1.9-.5 2.9-3.3 1.2-3.3-.4 0-1.4-1.5-2.2-3.3-2.4-5.5-1.7-18.9 1-17.2 1.4.9.6-4.5-1.1-7.3-.8-1.2-2.4-2.2-3.6-2.2-1.9 0-2.6-1.1-4.7-8-1.5-5-3.3-8.8-4.8-10-1.3-1.1-1.7-1.9-1-2 .9 0 1-.4 0-1.9-.9-1.5-.9-2.3 0-3.4 1.7-2 0-6.1-3.3-8.3-1.4-.9-2.5-2.2-2.5-3 0-.8-1.6-1.6-4-2-2.8-.5-4.6-1.5-6-3.4-2.4-3.4-2.5-4-.5-4 1.7 0 2.1-3.5.5-4.5-.5-.3-1-1.9-1-3.4s-.5-3.2-1.2-3.9c-.7-.7-.8-1.2-.2-1.2.6 0 1.7 1.1 2.4 2.5 1.7 3.2 3.7 3.5 8.3 1.3 4.4-2.2 4.4-3.9-.1-5.3-1.8-.5-3.1-1.4-3-2 .5-2.6-1.5-5.5-4.4-6.3-2-.5-3.2-1.5-3.4-2.7-.6-4-2.4-11.7-3-12.6-.3-.6.4-2.1 1.6-3.4 1.7-1.8 2-3 1.5-5.9-.6-2.9-.4-3.6.9-3.6 2 0 2.1-1.6.1-2.4-.8-.3-1.5-.1-1.5.4s-1.1 1.2-2.4 1.6c-1.4.3-2.5 1.3-2.5 2.2-.1 4-1.4 8.2-2.5 8.2-2.3 0-2.5-1.3-.7-4.9 1.2-2.4 1.6-4.3 1-5.6-.4-1.1-.8-4-.8-6.4-.1-3.7-.3-4.2-1.6-3.1-.8.7-1.5 2.1-1.5 3.1 0 1.4-.7 1.9-2.5 1.9-2.6 0-2.9-.4-3.9-5.3-.4-1.5-1.3-2.7-2.1-2.7-1 0-1.5-1-1.5-3 0-3 2.4-4.3 3.2-1.8.3.7.7.3 1-.9.5-1.8.1-2.2-2.7-2.5-1.9-.2-3.1 0-2.8.5.6 1-1.7 3.8-2.7 3.2-.4-.3-1.3.2-2 1s-2.1 1.5-3.1 1.5c-2.2 0-2.3.4-.9 3 1.5 2.8-1.4 4.8-3.9 2.6-1.8-1.6-1.9-1.6-1.7.1.1 1.3-.6 1.8-2.6 1.8-1.6-.1-2.8.3-2.8.7 0 .4-.8.8-1.7.8-1 0-2.6.7-3.6 1.4-1.6 1.3-2.5 1.1-7-1-6.3-2.9-8.7-3-12.7-.5-2.9 1.7-3.4 1.7-7.5.2-3.4-1.2-4.5-2.1-4.9-4.2-.4-2-1.5-3.1-4.1-4-3-1.1-3.5-1.7-3-3.4 2-5.8 1.6-8.2-1.9-14.8-1.9-3.7-3.1-6.9-2.5-7.2.5-.4.9-1.7.9-3.1 0-1.4.7-2.7 1.5-3 2-.8 1.9-6.1-.1-7.2-1.3-.7-1.4-1.3-.5-3 .6-1.1.8-2.8.5-3.6-.3-.9-.2-1.6.4-1.6 2 0 2.1-3.3.2-5.7-1.1-1.4-2-3.1-2-3.8 0-.7-1.9-3.1-4.1-5.4-3-2.9-4.7-4-6-3.6-1.4.5-1.7.2-1.3-.8.3-.8 2.1-1.8 4-2.1 1.9-.4 3.4-1 3.5-1.4.1-.4.2-2.1.4-3.7.1-1.7.6-3.8 1-4.9.5-1.1.3-2.1-.5-2.6-.7-.4-1-1.4-.8-2.1.3-.8.1-2.3-.5-3.3-.7-1.5-.5-2.2.7-3.2.9-.6 1.5-1.8 1.4-2.5-.2-.9.7-1.2 3-1 2.4.2 3.2-.1 3.2-1.4 0-.8.7-1.8 1.5-2.1 1.7-.7 2-5 .4-5.9-.6-.4-.8-1.3-.5-2 .2-.7-.4-2.5-1.3-4.1-1-1.6-2.1-4.6-2.5-6.7-.6-3.4-.5-3.7 1.6-3.4 2.1.2 2.3-.2 2.1-4.7-.1-2.9-.6-5.2-1.5-5.7-.7-.4-3.1-2.4-5.2-4.4-3.5-3.2-4-4.1-4.1-8.6-.2-4-.8-5.6-3.2-8.2-1.6-1.8-4-4.6-5.2-6.4-2-3-2-3.2-.4-4.5 2-1.4 2.4-8.5.6-9.7-1.9-1.2-5.6-9.5-4.4-9.9.6-.2 1.1-.9 1.1-1.5 0-.7.6-2.4 1.4-3.8 1.4-2.8.5-5-2.6-6.2-1-.3-1.8-1.2-1.8-1.8 0-.7.3-.9.7-.6.3.4 1.5 0 2.5-1 1.1-1 3.3-1.6 5.7-1.5 3.4.2 4-.2 4.5-2.4.7-2.5.7-2.5 3.6-.7 2.4 1.4 3.2 1.5 4.2.4 1.1-1 1-1.4-.4-2.2-1.1-.6-1.8-2.2-1.8-4 0-2.5.3-2.9 1.9-2.4 1.5.4 2-.1 2.4-2.7.6-4-1.1-5.3-6.5-5.3-3 0-3.8.4-3.8 1.7 0 1-.6 1.8-1.4 1.8-.8 0-1.8.9-2.1 2-.3 1.1-1.3 2-2.1 2s-1.4.6-1.4 1.4c0 .9-.7 1.2-2 .9-1.3-.4-2 0-2 1 0 .8-1.5 2.2-3.4 3.1-4.1 1.9-5 2-6.5.3-1.3-1.7-7.3-1-8.4.9-.4.8-1.7 1.4-2.9 1.4-1.7 0-1.8.3-.8 1.5 1.4 1.7 1 1.9-4.7 2.9-2.6.4-3.5.1-4.8-1.7-.8-1.2-1.5-1.5-1.5-.8s-1.1 2.2-2.5 3.3c-1.4 1.1-2.3 2.4-1.9 2.9.3.6-.4.8-1.8.4-1.2-.3-4.5-.7-7.2-.9-4.4-.3-5-.7-6.2-3.5-2.1-5.1-2.4-3.5-.3 2.1 1.8 5.1 1.8 5.2-.1 6.5-1 .7-2.5 1.9-3.2 2.6-.7.6-3.2 1.2-5.6 1.3-4.4 0-6.6 1.7-5.7 4.1.2.7-.1 1.3-.6 1.3-.6 0-.9.8-.7 1.8.3 1.2-.2 2.4-1.4 3.1-1.6 1-2.3.9-3.7-.3-2.2-2-3.5-2-5.4-.1-1.4 1.3-1.9 1.1-4.7-1.5-1.8-1.7-3.6-3-4.2-3-.5 0-.2-.7.6-1.6.9-.8 2-1.3 2.5-.9.6.3.8-1.3.6-4-.3-3.9-.1-4.5 1.1-3.5 2 1.7 5 .5 3.5-1.4-1.3-1.6-1.1-15.6.2-15.6 1.8 0-3-5.4-6-6.6-1.8-.8-4.2-2.7-5.4-4.3-1.9-2.6-2.5-2.8-4.5-1.9-1.3.6-2.4 1.6-2.4 2.1 0 2-2.9-1.6-3.5-4.4-.4-1.6-1.1-3.1-1.6-3.4-.5-.4-.6.1-.3.9.3.9.1 1.6-.5 1.6-.7 0-1.4-.7-1.7-1.5-.9-2.3-4.3-1.8-6.8 1.2-1.2 1.4-3.2 2.7-4.3 2.8-3 .2-5.2 2.3-4.6 4.4.3 1 0 2.2-.5 2.5-.6.3-.8 1.5-.5 2.6.4 1.4 0 2-1.1 2-.9 0-1.6-.8-1.6-2 0-1.4-.7-2-2.2-2h-2.1l2.1 2.3c3.2 3.3 2.7 8.2-.5 5.5-1.9-1.6-2.7-.4-1.3 2.2 1.3 2.4-.2 5.2-2.4 4.4-1.7-.6-4 2.2-3.3 4 .3.7-.4 1.9-1.6 2.5-1.2.7-3.5 3-5 5.2-1.6 2.1-4.2 4.6-5.8 5.4-1.7.9-2.9 2.4-2.9 3.6 0 1.1-.8 2.3-1.7 2.6-1 .4-3.1 2-4.6 3.5-1.6 1.5-3.2 2.6-3.7 2.3-.4-.3-.6.3-.3 1.4.7 2.6-2.4 8.1-4.6 8.1-1.4 0-1.7.6-1.3 3 .3 2.1 0 3.2-1.3 3.6-.9.4-2.1 1.8-2.6 3.1s-2.2 2.9-3.9 3.4c-1.6.6-2.7 1.5-2.4 2 .3.5-.6 2.3-2 4-2.4 2.9-3.1 4.4-3.8 9.4-.3 1.9-1.6 2.4-9 4-1.6.3-2.8 1.2-2.8 2.1 0 2.1-2.7 2.9-4.6 1.3-1.4-1.2-1.4-1.4.1-2.5s1.5-1.5.4-2.7c-.8-.7-1.9-1.2-2.5-1-2.5.8-5-3.5-4.5-7.5.1-.8-.3-2-.9-2.7-1.5-1.8-.3-10.4 1.7-12.7 1.9-2.1 1.1-4.5-2.7-8.6-1.6-1.8-3.3-4.4-3.6-5.8-.4-1.6-1.3-2.4-2.8-2.4-1.1 0-3.1-.3-4.3-.6-1.5-.4-2.3 0-2.7 1.4-.9 2.7-4 3.3-6.7 1.4-2-1.4-2.3-1.3-3.8.5-2.4 3-4.9 3.5-8.2 1.7-2.2-1.1-2.9-2.1-2.7-3.7.2-1.4-.2-2.2-1.3-2.2-2.3 0-5-3.1-4.3-4.9.5-1.3-.1-1.6-2.9-1.6-2 0-3.9-.5-4.2-1-.4-.6-1-.8-1.5-.5-.4.3-1.5.2-2.4-.1-2.3-.9-2-6.1.5-10.8 1.1-2.1 1.9-3.9 1.7-4-3-1.4-4.4-2.8-4.9-5.4-.3-1.7-2-4.4-3.7-6-2.3-2.2-2.9-3.5-2.5-5.2.4-1.5.1-2.7-.9-3.4-.9-.7-2.3-2.8-3.1-4.9-1-2.3-2.1-3.5-2.9-3.2-.8.3-2.4-.5-3.7-1.9-1.4-1.5-2.9-2.2-4.2-1.9-1 .3-2.6-.1-3.5-.8-.9-.7-2.9-1.2-4.4-1.1-1.6.2-3.1-.1-3.4-.7-.4-.6-2-.8-3.6-.4-2.5.5-3.2.1-4.7-2.5-1-1.7-2.7-3.3-3.9-3.6-3.1-.8-5-5.9-3.5-9.3 1-2.2.9-2.8-.9-4.5-1.9-1.8-2.3-1.8-3.8-.5-.9.8-2.3 1.2-2.9 1-.7-.3-1.3 0-1.3.6s-1.3 1.1-2.8 1.1c-1.5 0-3.3.5-4 1.2-.9.9-1.5.8-2.4-.5-.7-.9-2.3-1.8-3.6-2-1.2-.2-2.8-.9-3.4-1.5-.7-.7-1.8-1.2-2.4-1.2-.7 0-2.5-1.1-4.1-2.4-1.5-1.3-5.2-3.4-8.1-4.6-3.9-1.7-5.1-2.7-4.7-3.9.8-2.8-1.8-6.5-5.2-7.2l-3.2-.6-.3 4.6c-.3 4-.6 4.6-2.3 4.3-1.2-.1-3.1.8-4.5 2.3-1.3 1.4-2.9 2.5-3.7 2.5-.7 0-1.3.9-1.3 2.1 0 1.3-1 2.3-3.1 3.1-1.9.6-2.8 1.5-2.5 2.4.3.7-.4 1.6-1.5 1.9-1 .4-1.9 1-1.9 1.5s-1.5.4-3.2-.1c-2.7-.7-3.7-.5-5.8 1.1-3.4 2.7-6.9 4.2-10.5 4.4-1.6.1-3.5.5-4.2.9-.6.4-1.4.3-1.8-.3-.3-.5-.1-1 .5-1s.8-.5.5-1c-.7-1.2-2.6-1.4-2.4-.3.3 2-.2 4.6-.8 4-.3-.4-1.5 0-2.4.9-1.7 1.5-1.9 1.5-2.5.1-.3-.9-.3-2 0-2.6.4-.5.2-1.3-.4-1.6-.6-.4-.8-1.5-.5-2.4.3-1-.1-2.4-.9-3-1-.8-1.3-2.3-1-4.1.5-2.2.2-2.9-1.5-3.5-1.1-.3-2.5-.4-3.1 0-1.2.7-2.4-3.9-1.6-6.1.4-.9.1-4.3-.5-7.5-1.4-7.3-.8-9.5 2.2-7.8 2 1 2.1.9 1.5-1.7-1.1-4.3-1.7-8.5-1.9-11.9-.2-2.1-.9-3.3-2.7-4.2-2.2-1-2.5-1.7-2.2-5.2.3-3.3 1.4-4.9 6.3-9.6 5.3-5.1 6.3-5.7 11.4-6.2l5.5-.6-.6-8.6c-.7-8.7-1.8-11.9-3-8.7-.4 1.1-1.3 1.5-2.5 1.1-1-.3-2.7-.1-3.9.5-1.6.8-2.1.8-2.6-.3-.3-1-1.9-1.4-4.7-1.2-6.1.3-11.7 1.6-11.7 2.6 0 .5-.9.9-1.9.9-1.1 0-3.2 1.1-4.7 2.5s-3.3 2.5-4 2.5c-1 0-1.1.6-.4 2.5.7 2 .6 2.5-.5 2.5-.9 0-1.5 1-1.5 2.4 0 1.8-.8 2.7-3.1 3.5-2.8 1-3.1 1.4-2.8 4.8.4 5.3-.9 8.9-3.4 10-2.9 1.3-4.5.7-6.2-2.7-1.1-2.2-2-2.7-3.6-2.3-1.9.5-2 .4-1.1-1.3.8-1.5.7-2.3-.6-3.7-1.6-1.8-1.5-1.8 1.1-1.2 1.6.4 2.7.3 2.7-.3s.7-1.2 1.5-1.4c1.2-.2 1.1-1-.5-4.7-1.8-3.8-2.3-4.2-4.5-3.7-3.3.8-8.5-1.8-8.5-4.4 0-2.7-1.6-3.3-3.6-1.3-1.2 1.2-1.9 1.4-2.1.6-.3-.7-2.1-1.7-4-2.4-3.2-1-3.5-1.3-2-2.4 2.1-1.5 2.2-2.5.3-2.5-1.5 0-2.6-2.1-2.6-5.1 0-2-3.2-5.3-5.3-5.5-3.5-.3-3.9-.5-3.4-1.8.3-.8-.1-2.2-.8-3.3-1.7-2.1-1.9-3.7-.5-2.8.6.4 1.3-.7 1.6-2.4.5-2.5.9-2.9 2-2 1.3 1 1.8.6 1.5-1.4 0-.4.9-.7 2.2-.7 3.4 0 6.9-2.8 6.2-5-.3-1.1 0-2 1-2.4.9-.3 1.3-1.1 1-1.6-.4-.6-.4-2.2-.1-3.5.5-1.8 1.2-2.3 3.1-2.1 1.4.2 3 .7 3.6 1.3.7.7 1.8.7 3.5-.1 1.9-.8 2.4-1.7 2.1-3.5-.3-1.6.3-3.2 1.9-4.8 2.9-2.9 2.9-2.9.4-6-2.6-3.3-2.7-6.8-.2-5.8 1.1.4 1.4.3.7-.4-.6-.6-2.4-.7-4.8-.1-2.2.5-5.2.4-7-.1-2.1-.6-3.3-.5-3.8.2-.4.7-1.2.8-1.8.5-.6-.4-1.1-.2-1.1.4 0 .7-.6.8-1.9.1-1-.6-2.1-.8-2.4-.5-.2.3-2-.4-3.8-1.5-4.2-2.6-4.9-2.6-4.9-.1 0 2.4-2.2 2.6-4.4.5-2.2-2.3-4.9-2-4.1.5.5 1.5.3 1.8-.9 1.4-.9-.3-1.6-1-1.6-1.6 0-.5-1-.8-2.2-.7-2.6.4-8.8-2.9-8.8-4.6 0-1.4-7.9-3.5-8.6-2.4-.5.9-1.5 1-9.6.9-2.6 0-3.8.4-4.2 1.7-.9 2.9-9.2 11.7-10 10.5-.4-.7-1.7-.7-4-.1-1.8.5-4.9.9-6.7.9-1.9 0-5.9-.1-8.9-.1-4.5 0-6-.5-8.2-2.6-1.4-1.4-3.1-2.2-3.8-1.8-.6.4-1.8.1-2.7-.7-.9-.7-3.7-1.3-6.2-1.4-2.8-.1-6.6-1.1-9.8-2.7-6.4-3.3-6.6-3.3-8.3-.2-1 1.9-2 2.4-4.9 2.3-2.1 0-4.4-.9-5.4-1.9-2.2-2.3-3.7-2.4-3.7-.3 0 .9-.6 1.4-1.2 1.1-.7-.2-1.2-1-1-1.7.1-.7-.3-1.9-.9-2.6-.9-1.1-.9-1.8-.1-2.6s.6-2.1-.8-4.8c-1.9-3.7-2-3.8-7.7-3.8-4.7 0-6.1.4-7.4 2.1zm173.1 17.7c0 .5-.5 1-1.1 1-.5 0-.7-.5-.4-1 .3-.6.8-1 1.1-1 .2 0 .4.4.4 1zm16 124c0 1 .8 2.4 1.8 2.9 1.5.9 1.5 1.2.2 2.1-.8.5-2.2.8-3 .5-.9-.3-.7.1.4 1 1.1.8 2.6 1.5 3.4 1.5.7 0 1.2.6.9 1.2-.2.7.3 1.8 1.1 2.4 1.1.8 1.2 1.3.4 1.8-.7.4-1.2.3-1.2-.3 0-.5-1.5-1.2-3.2-1.6-8.9-1.8-9.2-2.9-3.8-11.3 1.8-2.7 3-2.8 3-.2zm38.5 21c.3.5.1 1-.4 1-.6 0-1.1-.5-1.1-1 0-.6.2-1 .4-1 .3 0 .8.4 1.1 1zm125.5 15c0 .5-.2 1-.4 1-.3 0-.8-.5-1.1-1-.3-.6-.1-1 .4-1 .6 0 1.1.4 1.1 1zm180.4 28.1c-.8 1.3-2.4.1-2.4-1.8 0-1.3.3-1.3 1.5-.3.8.7 1.2 1.6.9 2.1zm-142.7 29.2c1.4 1-.4 5.3-3.2 7.7-1.5 1.2-1.9 1.2-3.1-.5-.9-1.2-1.1-2.1-.4-2.3.5-.2.8-.8.4-1.3-.3-.5 0-.9.5-.9.6 0 1.1-.8 1.1-1.8 0-3.3 1.3-3.6 4.7-.9zm-335.7 9.9c0 .8-2 2.2-2.4 1.7-.2-.2-.7-1.4-1.1-2.7-.6-2.2-.5-2.2 1.4-1 1.2.7 2.1 1.6 2.1 2zm386.8 33c5.2 1.5 3.5 4.7-2.2 4-2.9-.3-3.5-.8-3.8-3.3-.4-2.4-.2-2.9 1.1-2.3.9.3 3.1 1 4.9 1.6zm223.7 3.7c.3.5.1 1.2-.4 1.5-.5.3-1.1-.1-1.5-.9-.6-1.6.9-2.1 1.9-.6zm-14.5 50.2c0 .6-.4.7-1 .4-.5-.3-1-1.1-1-1.6 0-.6.5-.7 1-.4.6.3 1 1.1 1 1.6zm1.4 3.4c.3.8.1 1.5-.4 1.5-.6 0-1-.7-1-1.5s.2-1.5.4-1.5.6.7 1 1.5zm41.2 125.1c-1.1 1.8-2.7 3.1-3.4 2.9-.8-.3-2.1-.5-2.9-.5-1.3 0-1.3-.3-.3-1.5.9-1.1 1.6-1.2 2.5-.5.9.8 1.5.6 2-.7.5-1 .7-2.3.6-3-.1-.6.6-.9 1.8-.6 1.8.5 1.8.6-.3 3.9zm-12.6 11.4c0 .5-.7 1-1.5 1s-1.5-.5-1.5-1c0-.6.7-1 1.5-1s1.5.4 1.5 1zm-8.5 3.8c-.3.3-1.1 0-1.8-.7-.9-1-.8-1.1.6-.5 1 .3 1.5.9 1.2 1.2zm-495.1 55.8c.3.8 1.3 1.4 2.1 1.4 1 0 1.3.4.8 1.2-.4.7-.6 2.4-.4 3.7.2 1.9-.1 2.2-1.4 1.7-1.5-.6-1.7-.1-1.2 3.3.5 4.3-1.2 7.9-3.1 6.7-.8-.5-1 .2-.6 2.4.6 2.8.5 3-2.4 3-3.4 0-4.8 2.9-3 6.3.9 1.7.8 1.9-.6 1.4-1.1-.5-1.6-.1-1.6 1.2 0 2.9-1.1 5.1-2.5 5.1-.8 0-1 .9-.7 2.6.3 1.9.1 2.5-.7 2-.6-.4-1.1 0-1.2 1.1 0 1-.2 2.7-.4 3.8-.5 2.3 1.1 4.4 4.1 5.5 2.4 1 3.8 5.6 1.8 6.4-1.5.6-4.4-2.5-4.4-4.7 0-.9-1.1-2.4-2.5-3.3-1.4-.9-2.3-1.9-2.1-2.2.3-.2-.3-1.7-1.3-3.1-1-1.4-1.8-4.3-1.8-6.4-.1-2.1-.7-4.4-1.3-5.2-.7-.9-1.6-3.3-2-5.4-.7-3.8-.6-4 3.3-6.1 3.5-2 3.8-2.6 3.3-5.1-.5-2.8.6-4 1.9-1.9.3.5 1.1 1 1.6 1 .6 0 .7-.5.4-1-.3-.6.2-1 1.1-1 1 0 2.6-.7 3.5-1.6 1.4-1.3 1.6-2.1.8-3.6-.9-1.6-.6-2.3 1.3-3.6 1.2-.9 2.7-1.5 3.3-1.4.5.2.1-.6-.9-1.7-1.9-2.1-1.9-2.1.7-2.1 1.7 0 2.7-.5 2.7-1.5 0-1.8 2.6-.9 3.4 1.1zm-4.4 75.8c0 .5-.7.3-1.5-.4s-1.2-1.7-.9-2.2c.7-1 2.4.9 2.4 2.6zm-36 39.6c0 .5-.4 1-1 1-.5 0-1-.5-1-1 0-.6.5-1 1-1 .6 0 1 .4 1 1zm355.4 67c1.4 0 3.5.9 4.5 1.9 2.1 2.1 10 3.4 11.7 2 .6-.5 2.5-.6 4.3-.3 2.6.5 3.1 1.1 3.1 3.5 0 1.5.5 4 1.1 5.6.8 2.2.7 3-.7 4-.9.7-1.4 1.9-1.1 2.8.5 1.2-.2 1.5-4.2 1.5-4.1 0-4.9-.3-5.9-2.5-1.2-2.7-2.8-3.2-3.5-1.3-.3 1-.7 1-1.7.1-.7-.6-1.8-.9-2.5-.6-.8.2-2.3-.1-3.6-.7-1.7-1-1.9-1.4-.8-2.1.9-.6 1-.9.2-.9-.6 0-1.8-.6-2.5-1.3-.8-.6-2.3-1.7-3.3-2.3-2.1-1.2-3-5.2-2.1-9 .5-2 1-2.3 2.6-1.4 1 .5 3 1 4.4 1zm62.7 35.2c.3.6.9.9 1.3.9 4.9-.7 7.4.1 9.5 3l2.4 3.2-3.1-.5-3.1-.4.3 7.6.3 7.5h-3.8c-2 0-3.6.2-3.4.5.2.3 0 1.2-.5 2-.7 1.2-1.2 1.2-2.8-.3-1-.9-3.3-1.7-5-1.7-3.1 0-7.2-3.7-7.2-6.6 0-.7-1.6-2.5-3.5-4-2.6-1.9-3.5-3.4-3.5-5.5 0-3.4 1.2-3.6 4.7-1 1.3 1.1 3 1.8 3.7 1.5 1.7-.7 3.6 3.8 2.5 5.8-1.2 2.2.2 2.9 4 2.2 2.2-.5 3.3-1.4 3.7-3.1.6-2.2.8-2.3 2.4-.8 1.6 1.5 1.8 1.4 2.4 0 1.2-3.2.6-4.2-3.9-6.4-3-1.5-4.5-2.9-4.5-4.1 0-1.7.5-1.9 3.3-1.3 1.7.3 3.5 1 3.8 1.5zm5.4 70.8c.3.5.1 1-.4 1-.6 0-1.1-.5-1.1-1 0-.6.2-1 .4-1 .3 0 .8.4 1.1 1zm208.8 22.1l-2.1 2.1-.7-3.1c-.9-4.4.3-5.8 2.8-3.2l2.1 2.1-2.1 2.1zm-8.3-1c0 .5-.4.9-1 .9-.5 0-1-.7-1-1.6 0-.8.5-1.2 1-.9.6.3 1 1 1 1.6z"/><path d="M424.404 12.89c0 .6-.7.8-1.6.5-1.9-.7-9.4 1.3-9.4 2.6 0 .5.4.7.9.4 1.7-1.1 4.1.6 4.1 2.9 0 2.2-3.1 5.9-4.3 5-.4-.3-.5-.2-.2.2.7.9-2.5 4.3-4.1 4.3-.7 0-1.1.6-.8 1.4.3.7-.2 1.6-1.1 2-1.3.5-1.4 1-.5 2.6.8 1.6.8 2.5 0 3.4-.8 1-.5 1.5 1.1 1.9 1.2.3 1.8 1 1.4 1.6-.3.6-1.1.9-1.6.5-1.1-.6 2.7 5.1 5.6 8.3 1.1 1.3 2.5 2.3 3.3 2.3.7 0 1.1.4.8.9-.4.5 0 1.2.6 1.4 1 .4 1 .6.1.6-.7.1-1.3 1.2-1.3 2.7 0 1.9.8 2.8 3.4 3.9 2.6 1.1 3.5 2.2 4 4.9.8 4 2.6 5.8 2.6 2.7 0-1.2.5-2.1 1.2-2.1.6 0 .4-.7-.5-1.8-1.9-2.1-2.2-4.2-.7-4.2.6 0 1 .7 1 1.5 0 1.7 1.8 1.9 4 .5 1.2-.7.9-1.3-1.4-3.5-2.3-2.1-2.7-3.3-2.5-6.8.4-6-1-11.5-3.3-13.1-1.8-1.3-1.7-1.4 1.4-1.9 1.8-.2 3.9 0 4.6.5.8.7 1.2.7 1.2 0 0-.6.8-1.2 1.7-1.4 1.5-.3 1.5-.6-.5-2.4-1.8-1.6-2.1-2.8-1.6-4.8.3-1.4 1-2.6 1.5-2.6 1.5 0 3-4.9 2.3-7.5-.3-1.4-1.5-2.7-2.7-3.1-1.2-.4-3-1.7-4-3-1.9-2.5-4.7-3.2-4.7-1.3z"/><path d="M421.404 65.99c0 1.9.2 2 1 .8 1.3-1.9 1.3-3 0-3-.5 0-1 1-1 2.2zM418.404 71.79c0 .6.7 1 1.5 1s1.5-.2 1.5-.4-.7-.6-1.5-1c-.8-.3-1.5-.1-1.5.4zM267.104 111.29c.3.8-.2 1.8-1.1 2.1-1.1.4-1.5 1.3-1 2.6.3 1 .1 2.5-.6 3.3-.8.9-.8 1.5 0 2 1.8 1.1 5-.5 5-2.6 0-1.1.5-1.7 1-1.4 1.2.7 1.3-3.5.2-5.1-1.2-1.8-4.2-2.5-3.5-.9zM880.404 142.89c0 .6-.7.9-1.5.5-1.2-.4-1.5.1-1.3 2.4.1 2-.6 3.8-2.2 5.5-1.4 1.5-2.3 2.9-2 3.3.3.3-1 1-2.8 1.4-2.8.8-3.2 1.1-2.2 2.3.9 1.1.9 1.5.1 1.5-.6 0-1.1.4-1.1.9 0 1 3.4.5 6.7-1.1 1.9-.9 2.1-1.4 1-2.6-1-1.3-.9-1.5.7-.9 1.4.6 1.7.4 1.2-.8-.3-.8 0-1.5.7-1.5 1.6 0 5.8-8.7 5-10.5-.6-1.7-2.3-2-2.3-.4zM22.104 150.59c-.3.4 1 2 2.9 3.5 1.9 1.6 3.4 3.5 3.4 4.4 0 1.3-.2 1.4-1.7.2-1.8-1.5-9.3-1.9-9.3-.5 0 .5-.9.1-1.9-.8-2.3-2.1-4.6-1.3-3.3 1.1 1.3 2.2.2 6.5-1.4 5.9-.8-.3-1.4.1-1.4 1 0 .8.7 1.7 1.5 2 .8.4 1.2 1 .9 1.6-.3.5.4 2 1.7 3.4 1.2 1.3 1.9 2.7 1.6 3.1-.4.3.1 1.5 1 2.5 1.7 1.9 1.6 2.1-2.2 5.3-2.2 1.9-4.5 3.3-5.1 3.1-1.4-.5-.6 4.2 1.2 6.9 1.9 2.7 1.7 3.8-.3 2.6-1.4-.8-2.1-.3-3.5 2.7-1 2-1.7 4.5-1.8 5.4 0 1.4-.4 1.6-2.4.8-2.4-.9-2.4-.8-1.3 1.8.7 1.5 2.1 4.3 3.1 6.2 2.3 4.1 2.2 9 0 10.7-2.5 1.8 0 5.7 3.1 4.9 1.9-.5 2.3-.2 2.2 1.4-.1 1.1-.5 2-.9 2s-.8.9-.8 2-.4 2-1 2c-.5 0-1 1.1-1 2.5s-.4 2.5-.9 2.5c-2.6 0 .5 7.9 4.6 11.7 2.5 2.3 6.3 3.1 6.3 1.3 0-.6 1.2-1 2.6-1 1.4 0 3.4-.4 4.4-1 1.3-.7 2.1-.5 3.1.7 1.2 1.4 1.2 1.6 0 .8-.9-.5-1.2-.4-.7.3.4.6 2.3 1.4 4.3 1.8 2.7.5 3.8.3 4.5-1 .5-.9 1.8-1.6 2.8-1.6 1.1 0 1.9-.6 1.7-1.3-.1-.6.5-1.1 1.3-.9 1.2.3 1.3.1.3-.9-2-2-1.6-2.9 1.2-2.9 2.4 0 2.5-.1 1.9-6.5-.5-5.7-.3-6.6 1.3-7.2 4.4-1.6 4.4-5.9-.1-9.5-2.2-1.8-3.6-3.9-4-6.3-.8-4.3.9-10.5 3-10.5.8 0 1.4-.7 1.4-1.5 0-1.2.4-1.4 1.7-.6 1.2.6 2.7.5 4.8-.6 3.6-1.9 9.4-7.3 7.7-7.3-.6 0-1.3.4-1.7 1-.9 1.5-3.1.1-3.1-2 0-1.1.4-2 .8-2 .9 0 .5-2.5-.7-5.3-.4-1-.5-2-.2-2.3.3-.3-.3-1.4-1.4-2.5-2-2-2.6-4.9-1-4.9.5 0 1.1-.9 1.4-2 .3-1.3.1-1.9-.7-1.8-1.8.4-6.6-5.1-6.6-7.6-.1-1.2-.9-3.7-1.8-5.6-1.3-2.5-2.3-3.4-3.8-3.2-2.2.3-10.1-5.4-9.6-7 .2-.6-.8-.8-2.4-.4-1.4.4-3.2.2-3.9-.4-.7-.6-1.6-.7-1.8-.2zM853.404 151.59c0 1.2 1.9 2.6 2.6 1.9.2-.2-.2-1-1.1-1.7-.9-.8-1.5-.8-1.5-.2zM857.804 154.49c-1.5 2.4.3 6.3 2.8 6.3 1.7 0 1.7-.2.5-2.8-.8-1.5-1.6-3.3-1.8-4-.3-.8-.7-.7-1.5.5zM865.404 163.69c0 .6.4 1.3 1 1.6.6.3.7-.1.4-.9-.7-1.8-1.4-2.1-1.4-.7zM69.604 165.79c-2.1 2-2.6 3.2-2.3 5.7.1.7-.5 1.3-1.4 1.3-.8 0-1.5.5-1.5 1.1 0 .6-.7.9-1.5.5-.8-.3-1.5-.1-1.5.5s-.6.9-1.3.6c-.7-.3-2.4.1-3.7.8l-2.4 1.3 3.4 1.4c3 1.3 3.5 1.3 3.8 0 .3-.9 1.1-1.2 2.5-.8 1.2.3 2.5.6 2.8.6.4 0 1 1.1 1.3 2.4.5 2.2 3.1 3.9 6.1 4.1.6 0 1 .5 1 1.2 0 1.5.5 1.9 3.6 2.6 2.2.6 2.8.3 3.2-1.4.4-1.6 1-2 2.4-1.4 6.7 2.8 7.6 3 8 1.8.2-.7 1.1-.9 2-.6.9.4 1.9-.1 2.4-1s3-1.8 6.1-2.2c6-.8 14.3-4.6 15.1-7 .4-.8 1.3-1.5 2.2-1.5 1.2 0 1.4-.6.9-2.8-1.6-6.5-2.1-7-6.8-7.3-2.6-.3-4.4 0-4.3.6.1.5-.7.9-1.9.7-1.1-.1-4.2.6-6.8 1.8-2.6 1.1-5.6 2-6.6 2-.9 0-2.3.7-3 1.5-1 1.2-1.5 1.2-3.3 0-1.2-.7-3.5-1.5-5.2-1.7-1.6-.2-3.7-1-4.5-1.9-.8-1-2.7-2.4-4.1-3.3-2.4-1.5-2.7-1.5-4.7.4zM869.104 169.29c-1.2.8-1.4 1.5-.8 2 .6.3 1.1 1.5 1.1 2.5 0 1.1.9 2.4 1.9 3 2.2 1.1 4.2 1.4 2.5.2-.7-.4-1.6-2.6-2-4.9-.8-3.8-1.1-4-2.7-2.8zM717.804 173.69c2.1 2.3 2.6 2.6 2.6 1.1 0-.5-1-1.5-2.2-2.1-2.3-1.2-2.3-1.2-.4 1zM860.004 177.49c-.8.8.9 7.5 2 8 2.2.8 6.3-2.9 6.4-5.8 0-2.4-.3-2.6-4.1-2.5-2.2 0-4.1.2-4.3.3zM848.404 191.79c0 .5.5 1 1 1 .6 0 1-.5 1-1 0-.6-.4-1-1-1-.5 0-1 .4-1 1zM853.104 193.79c.8 2.9 1.9 3.3 3.8 1.4s1.8-1.9-1.7-2.8c-2.3-.5-2.5-.3-2.1 1.4zM198.904 231.89c-1.1 1.7-.2 1.8 1.9.3 1.7-1.2 1.7-1.4.4-1.4-.9 0-2 .5-2.3 1.1zM147.404 333.29c-.6.8-.9 1.9-.5 2.5.3.5-.2 1-1.4 1-1.1 0-3.3 1.2-4.8 2.6-1.5 1.4-2.2 2.3-1.6 1.9.7-.3 2.6.8 4.3 2.5 1.6 1.6 3.6 3 4.4 3 .8 0 1.6.5 1.8 1.1.3.9 1 .8 2.8-.1l2.4-1.3-2.3-1.8c-2.1-1.7-2.2-2.2-1.2-6.9.6-2.8 1.1-5.3 1.1-5.5 0-1.1-3.9-.4-5 1zM140.004 350.69c-.4.5-.3 1.7 0 2.5.4.9 0 2.4-.9 3.4-.8.9-1.9 3.3-2.5 5.3-1.3 4.8-4.8 8.5-6.7 6.9-1-.9-1.7-.4-3.1 1.9-2 3.5-3 3.7-5.8 1.6-1.1-.8-3.4-1.5-5.2-1.5-2.9 0-3.2.3-3.7 4.1-.3 2.2-1.3 4.7-2.4 5.4-1.7 1.4-1.7 1.5 1.1 3.8 1.7 1.4 3.8 2.2 5 2 1.3-.3 2.9.4 4 1.6 1.7 1.8 2 1.9 3 .5 1.5-2 4.6-.8 4.6 1.7 0 1 1.6 3.7 3.6 5.9 2.9 3.2 3.9 3.8 5.1 2.9 1.3-1.1 1.2-2.3-.5-6.9-.5-1.3-.4-1.3 1.2-.1 1.5 1.3 1.9 1.3 2.6.1.5-.8.5-1.7.1-2-1-.6-5.4-9-5.7-10.8-.1-.6.8-1.2 2.1-1.2 1.2 0 2.8-.7 3.5-1.5.7-.9 1.5-1.3 1.8-1.1.2.3 1.9-2.2 3.6-5.5l3.1-6.1-2.1-1.7c-2.9-2.3-4.7-5.8-3.4-6.6.6-.4.8-1.1.4-1.6-.3-.5 0-1.6.6-2.4 1-1.2.9-1.5-.8-1.5-1.2 0-2.3.4-2.6.9zm-8.6 31c0 1-3.7 2.1-4.4 1.3-.8-.7 2.7-3.1 3.6-2.6.5.3.8.9.8 1.3zM107.404 378.69c0 .9-.9 1.2-2.7.8-2.6-.5-2.6-.4-.8.9 1 .8 2.3 1.4 2.7 1.4 1.1 0 2.2-2.9 1.4-3.7-.3-.4-.6-.1-.6.6zM104.704 390.59c-2.4.4-3 1.7-1.3 2.7.6.4.1 1.4-1.2 2.5-1.9 1.5-2 2-.9 3.4 1.6 2 4.1.4 4.1-2.5 0-1.1.6-1.9 1.4-1.9 1.1 0 2.6-2 2.6-3.5 0-.7-2.6-1.1-4.7-.7zM916.404 393.99c0 .7.4 1.9.9 2.6.7 1.1 1 1 1.5-.3.3-.9.4-2.1 0-2.6-.8-1.3-2.4-1.1-2.4.3zM922.204 401.79c.5 1.3 1.4 2.6 2 2.8 1.9.6 1.4-1.3-.8-3.3-2-1.8-2.1-1.8-1.2.5zM186.104 497.79c.3 1.1 1 1.8 1.7 1.7.6-.1 1 .6 1 1.5-.1 1 .2 1.5.7 1.2 1.6-.9.9-2.8-1.5-4.6-2.3-1.7-2.4-1.7-1.9.2zM324.404 646.69c0 .5 1.5 1.6 3.3 2.4 2.9 1.5 3.2 1.5 3.5 0 .2-.8-.2-1.9-1-2.4-1.7-1.1-5.8-1.1-5.8 0zM982.404 655.19c0 .2.7.7 1.6 1 .8.3 1.2.2.9-.4-.6-1-2.5-1.4-2.5-.6zM991.404 655.79c0 .6.7 1 1.5 1s1.5-.2 1.5-.4-.7-.6-1.5-1c-.8-.3-1.5-.1-1.5.4zM977.104 658.79c-.6 2.4 1.7 5.2 3.7 4.4 1.8-.7 2.1-2.9.6-3.9-.6-.4-.8-1-.5-1.5.3-.5-.3-.8-1.4-.7-1.1 0-2.2.8-2.4 1.7zM991.304 664.79c-1.4 4.5-1 5.5 2 4.5 1.6-.5 2.1-1.5 2.1-4 0-5-2.7-5.4-4.1-.5zM387.304 667.49c-.9.2-1.9 1.7-2.3 3.4-.5 2.5.1 3.6 3.5 7 2.2 2.2 4.4 5.1 4.9 6.4 1.1 3 4.1 3.5 3.3.5-.4-1.4.1-2.1 2.1-2.6 2.2-.5 2.5-1 2-2.8-.9-3-2.4-4.7-5.2-5.7-1.2-.5-3.1-2.2-4-3.9-.9-1.6-1.9-2.9-2.2-2.9-.3.1-1.2.3-2.1.6zM982.904 668.79c.3.5 1.1 1 1.6 1 .6 0 .7-.5.4-1-.3-.6-1.1-1-1.6-1-.6 0-.7.4-.4 1zM992.404 673.29c0 .8-.4 1.5-.8 1.5-.5 0-1.5 1.1-2.2 2.5-.7 1.4-2 2.5-2.7 2.5-.8 0-1.1.4-.8 1 1.1 1.7 2.5 1.1 3.7-1.5.6-1.4 1.5-2.5 2-2.5 1.2 0 4.7-3.8 4.1-4.4-1.2-1.2-3.3-.6-3.3.9zM988.404 720.29c.7.9 1.5 1.3 1.7 1.1.7-.7-.7-2.6-1.9-2.6-.6 0-.6.6.2 1.5zM955.304 808.39c0 1-.3 1.3-.6.6-.5-1.3-6.9-1.7-7.6-.4-.7 1 2.4 4.6 4.5 5.5 1.1.4 2.7-.2 4.3-1.6 2.2-2 2.3-2.4 1-4.1-1.5-2-1.5-2-1.6 0zM897.004 848.29c-.7 2 9.1 11.8 11 11.1 1.2-.5 1.2-1-.2-3.1-1-1.5-1.2-2.5-.5-2.5.6 0 1.1-1 1-2.3 0-1.2-.3-1.6-.6-1-.6 1.6-3.3 1.7-3.3.2 0-.5-.4-.8-.8-.5-.5.3-1.6-.4-2.5-1.5-2-2.3-3.3-2.4-4.1-.4zM910.604 858.99c.5 1.5 2.8 2.3 2.8 1 0-.5-.7-1.3-1.6-1.6-1-.4-1.4-.1-1.2.6zM902.404 860.79c0 .5.5 1 1.1 1 .5 0 .7-.5.4-1-.3-.6-.8-1-1.1-1-.2 0-.4.4-.4 1z"/></g></svg>