<svg version="1" xmlns="http://www.w3.org/2000/svg" width="692.299" height="1383.65" viewBox="0 0 519.224 1037.738"><g fill="#222"><path d="M341.324 4.4c.2 2.9-.4 5.3-1.8 7.2-1.1 1.6-2.3 4.1-2.7 5.6-.4 1.9-1.1 2.6-2.1 2.2-.8-.4-1.5-.2-1.5.4 0 .6.4 1.2 1 1.4.5.2.6.9.1 1.7-.7 1-1.3 1.1-3 .2-1.7-1-2.1-.9-2.1.4 0 1-1 1.5-3.4 1.5-3 0-3.5.4-5.1 4.5-1.3 3.7-1.4 4.9-.5 6.1 1 1.2.9 1.8-.5 3.4-1.4 1.5-1.5 2.4-.7 4.7.6 1.5 1.1 2.2 1.1 1.5.2-2.7 11.1-.8 11.1 1.9 0 .6.9 2.2 2 3.6s2 3.9 2 5.4c0 3.2-.3 3.4-3 1.9-2.5-1.3-5-.2-5 2.2 0 1.8-.4 1.9-4.2 1.2-2.4-.4-4.9-.6-5.5-.5-3.7.6-12.3-.1-13.9-1.2-.7-.4-1.7 0-2.4.9-.7.8-1.9 1.3-2.7 1-.7-.3-1.3-.2-1.3.3 0 1.5 3.6 4.1 5.8 4.1 2.6 0 5.5 2.8 4.8 4.6-.8 2.2 1.5 6.4 3.5 6.4 1 0 2.3.9 2.9 2 .6 1.1 1.8 2 2.7 2 .9 0 2.5.7 3.5 1.7 1.6 1.5 1.8 1.5 1.8 0 0-.9.9-2.1 2.1-2.8 1.6-.8 2-1.8 1.7-4.4-.2-1.9-.1-3.3.2-3.3 2 .2 3-.4 3-1.7 0-.8-.4-1.5-1-1.5-1.3 0-1.3-3.3 0-4.6.5-.5 1.1-2.2 1.2-3.7.2-2.8 1.2-3.5 2.4-1.6.3.6.2 1.4-.3 1.8-.7.4-.4 1.9.8 4l1.8 3.5 1.4-3.3c.8-1.8 1.7-3.2 2-3.2.4.1 1 .1 1.5.1.4 0 .7-2.4.7-5.3 0-4.4-.3-5.3-2.2-6.2-1.3-.5-2.3-1.3-2.3-1.6 0-.9 3-2 3.9-1.4.5.2.6-.7.3-2-.4-2.2-.1-2.5 2.2-2.5 3.1 0 5-3.6 4-7.6-.5-2-.3-2.3 1.1-1.8 1.5.6 1.6.4.6-1.4-1.5-2.8-1.4-3.5.3-2.9 1.6.6 2.8-1.6 2-3.7-.3-.7.2-1.6 1.1-2 .9-.3 1.4-1 1-1.5-.3-.5-.1-1.2.3-1.5 1.1-.7.3-5.4-1-6.2-.5-.3-.4-1.1.2-1.9.9-1.1.4-2-1.9-4.1-1.7-1.5-3.1-3.3-3.1-3.9 0-1.2-3.2-4.5-4.3-4.5-.4 0-.6 2-.6 4.4zM393.224 42.4c-.7 1.4-1.8 2.6-2.4 2.6-.6 0-1.7 1-2.4 2.1-1.2 1.9-2 2.1-6.3 1.5l-4.9-.7v3c0 2.2-.8 3.6-3.1 5.3-1.7 1.3-3.6 2.2-4.1 2-.5-.1-2.2.5-3.7 1.4-2.3 1.3-3 2.6-3.4 5.9-.5 5.3-5 11.5-8.2 11.5-1.6 0-2.5.9-3.4 3.7-.7 2.1-1.1 4.9-.9 6.3.2 1.8-.4 2.8-2.7 4-2.9 1.5-4.8 6-2.5 6 .6 0 .8.4.5 1-.3.5-1.4 1-2.4 1s-2.6 1.1-3.5 2.5c-.9 1.4-1.2 2.5-.6 2.5.5 0 1 .8 1 1.9 0 1 .7 2.4 1.5 3.1.8.7 1.3 1.6 1 2-.3.4.4 1 1.5 1.3 1.5.4 2.5-.3 3.7-2.4 1-1.6 2.3-2.7 2.9-2.5.7.3 1.5-.3 1.9-1.2.3-.9.1-1.8-.4-2-.6-.2-1.1-1-1.1-1.7s-.4-1.5-1-1.7c-.5-.2-1.4-1.7-1.9-3.5-.7-2.4-.6-3.3.5-3.7.8-.3 1.4.1 1.4.8 0 .7.9 2.1 2 3.1s1.7 2.1 1.5 2.5c-.3.5.8 1.2 2.3 1.8 2.2.7 3.6.5 6.3-.9 3.5-1.8 7.7-1.6 9.1.5.7 1 .9.6 2.2-3.8.3-.8 1.4-1.2 2.9-.9 2.1.4 2.5 0 3-3.1.7-4.1 2.7-6.6 5.4-6.6 1 0 2.5-1.3 3.4-2.8 1.3-2.4 1.4-3.4.3-7-1-3.4-.9-4.2.1-4.2 1.7 0 2.5-2.3 2.5-7.6 0-4 .2-4.4 1.8-3.5 2.5 1.3 3.8.2 4.4-3.5.3-2.2 0-3-.8-2.7-1.6.6-2.6-2.5-1.4-4.7 1.1-2.1 1.2-6.6.1-9.3-.6-1.7-.8-1.6-2.1.7zm-32.8 41.6c.3 1.6.1 3-.4 3-.4 0-.8-1.4-.8-3 0-1.7.2-3 .4-3s.6 1.3.8 3zm-2.2.1c0 .5-.4.9-1 .9-.5 0-1-.7-1-1.6 0-.8.5-1.2 1-.9.6.3 1 1 1 1.6zm11 .3c0 .3-.4.8-1 1.1-.5.3-1 .1-1-.4 0-.6.5-1.1 1-1.1.6 0 1 .2 1 .4zm-13.2 7.6c.3.8 0 1-.8.5-1-.6-1.2-.3-.7 1.1.7 1.9.7 1.9-.8 0-1.5-2-1.1-4 .8-3.3.6.2 1.3.9 1.5 1.7zm3.2 6c0 1.9-.1 1.9-2 .3-1.4-1.2-1.6-1.9-.8-2.4 1.7-1 2.8-.1 2.8 2.1zm-9.4 5.7c-.8.8-3.6-.5-3.6-1.7 0-.7.6-.7 2.1 0 1.1.7 1.8 1.4 1.5 1.7z"/><path d="M344.224 47c0 .5-.6 1-1.4 1-2.5 0-2.8 1.9-.7 4.6 1.9 2.5 1.9 2.6.1 8-1.1 3-1.5 5.2-1 4.9.5-.3 1.5.4 2.4 1.6.8 1.2 2.9 3 4.8 4.1 3 1.9 3.2 1.9 1.7.2-.9-1.1-2-2.6-2.4-3.4-.6-1.2-.5-1.3.6-.3.7.7 2 1.3 2.8 1.2 1.1 0 1.2-.2.4-.6-.7-.2-1.3-.9-1.3-1.5s1.1-.3 2.5.6c3 2 4.5 2 4.5.1 0-.8.5-1.5 1-1.5 1.8 0 1-3.9-1.1-5.4-1.4-1-1.9-2.1-1.5-3.2.8-2.1-2-5.4-4.5-5.4-1 0-2.1-.9-2.4-2-.7-2.2-4.5-4.8-4.5-3zM288.724 65c.4.6 1.1.8 1.6.5 1.4-.9 1.1-1.5-.7-1.5-.8 0-1.2.5-.9 1zM297.224 77.5c-1 1.2-2.4 1.4-6 .9-4.3-.6-4.9-.4-5.4 1.4-.7 2.2-6.3 5.5-7.7 4.6-.5-.3-1.6.2-2.5 1-.8.9-2.2 1.6-2.9 1.6-.7 0-2.6 1.1-4.2 2.4-1.5 1.3-5.2 2.9-8.2 3.6-4.3 1-5.5 1.8-6.5 4.1-.9 2.1-1.5 2.6-2.3 1.8-1.5-1.5-9.3 1-11.9 3.8-1.3 1.5-2.6 2.1-3.7 1.8-2.4-1-4.1.3-2.7 2 .7.8.9 3 .5 5.5-.5 3.2-.2 4.6 1.4 6.7 2.6 3.2 2.6 4.3.2 4.3-2.1 0-3.1 1.8-3.1 5.8 0 1.5-.4 3.1-.8 3.7-.9 1.2-11.2 1.3-13 .2-.7-.5-3.1-.6-5.2-.2-3.6.6-4 .5-4-1.4 0-2.5-1.7-2.8-2.4-.4-.8 2.9-.2 8.1 1.2 9.5 1.9 1.9 1.4 5.9-1.3 10.7-1.4 2.3-2.5 4.7-2.5 5.2 0 .6-1.1 2.1-2.5 3.5-1.6 1.6-2.5 3.6-2.5 5.6 0 2.8.2 3 2.8 2.5 2.3-.5 3.3 0 5.5 2.8 3.3 4.2 3.4 5.5.3 5.5-1.4 0-2.8.4-3.1 1-1.1 1.8-5.4 1.1-6.5-1-.6-1.1-.8-2.5-.5-3 .3-.5.1-1.1-.5-1.5-.5-.3-1-1.6-1-2.9 0-1.2-.3-2.6-.6-2.9-.9-.9-4.4 5.8-4.4 8.2 0 1.1-.4 2.3-1 2.6-.5.3-1 1.5-1 2.6 0 1.6-.5 1.9-2 1.4-1.4-.5-2-.2-2 .9 0 .9.4 1.6.9 1.6 1.1 0 .7 4.8-.6 6.1-.5.5-2.5 1-4.6 1.1-2 .2-3.7.4-3.7.6 0 .2 1.1 2.4 2.5 5 2.5 4.7 2.5 4.7.5 6.2s-2 1.5 0 4.7c1.1 1.8 3.1 3.5 4.7 3.9 7 1.8 8 3.7 4.1 7.8-2 2.2-2.3 3.6-.8 3.6.6 0 1 .9 1 1.9 0 1.1.5 2.3 1 2.6 1.2.7.3 4.6-1.3 5.6-.5.4-.1 1.5 1 2.6 2.2 2.2 2.3 6.7.4 11.8-.6 1.6-1.4 3.6-1.6 4.2-.2.7-.9 1.3-1.4 1.3-.5 0-1.2 1.1-1.5 2.5-.9 3.5-4.7 4.8-10.7 3.7l-4.9-.9v4.3c0 4.1-.2 4.4-2.7 4.5-1.6.1-3.4.1-4.2 0-.8-.2-1 .2-.5 1.1.6 1.1.5 1.1-.8 0-1-.8-2.6-1-4.1-.7-3.6.9-6.7-.3-6.7-2.5 0-1.1-1-2.5-2.2-3.1-1.9-1-2.4-.9-3.3.6-.5 1-2 2.9-3.1 4.4-2 2.3-2.4 2.4-4.8 1.3-1.5-.7-3.9-.9-5.4-.6-3.3.8-11.4 5.4-12.4 7-.5.7-1.8 1-2.9.7-1.4-.4-2.5 0-3.1 1.1-.9 1.6-1.9 1.7-8 1.1l-7-.7.6 3c.6 2.4.3 3-1.2 3.4-2.5.7-5.6 7-4.7 9.7.5 1.7.2 2.1-1.4 2.1-1.2 0-3 .9-4.1 2-1 1-2.2 1.5-2.5 1-.3-.5-2 .7-3.9 2.6-1.8 1.9-4 3.4-4.8 3.4-.9 0-2.1.7-2.8 1.5-.7.8-2.1 1.5-3.1 1.5-2.7 0-2.3 2.7.8 5.6 3.2 3 2.6 3.7-3.3 3.9-2.7 0-4.9.7-5.4 1.5-.7 1.2-1 1.2-1.6-.3-.3-.9-1.2-1.7-2-1.7s-1.1.6-.7 1.7c.7 2 4.3 6.9 4.3 5.9 0-.4 1.2.1 2.7 1.1 1.8 1.2 2.8 1.4 3 .6.3-.7 1.1-.9 1.9-.6 1.3.5 1.2.8-.3 2.5-1 1.1-1.6 2.3-1.5 2.7.2.3.8 1.4 1.3 2.3.6 1.1 2.1 1.8 3.9 1.8 3.9 0 3.9 2.1 0 3.9-2.3 1-2.8 1.6-2 2.6.7.9.6 1.6-.5 2.5-.8.7-1.5 1.9-1.5 2.6 0 .8-.5 1.4-1.1 1.4-.5 0-.8.4-.4.9.3.5.1 1.2-.4 1.5-.5.3-.7 1.4-.4 2.4.7 2.8-1.9 4.4-5.2 3.2-1.5-.6-2.9-.9-3.2-.7-.6.6 1.8 11.1 2.9 12.4 1.4 1.7-1.2 5.3-4.4 6-1.8.3-2.8 1.2-2.8 2.3 0 1.6-3.9 6-5.4 6-.4 0-1.4-.7-2.2-1.5-.9-.8-2-1.5-2.5-1.5-1.2 0-1.2 3.7.1 4.5.6.3 1 1.3 1 2.2 0 1.1-.6 1.4-2.1 1-2.4-.6-5.4 1.7-4.4 3.3.3.5 1.4 1 2.4 1s2.5.8 3.3 1.7c1.3 1.6 1.3 2.2.2 5-.8 1.8-2.3 3.7-3.5 4.3-1.5.8-1.9 1.8-1.5 3.4.4 1.5-.1 2.6-1.3 3.5-2.4 1.7-1.7 4.2 1.7 6.5 2.6 1.7 4.1 6.6 2 6.6-.5 0-.2 1 .6 2.2 2.2 3.1 2 5.8-.3 5.8-2.7 0-3.3 1.3-1.7 3.6.8 1 1.2 2.4.9 3.1-.3.7 0 1.3.7 1.3.6 0 .8-.5.5-1-1.5-2.3 1.7-.7 4.8 2.5 2.1 2.1 4.4 3.5 5.9 3.5 3 0 4.8 1.7 4.8 4.6 0 1.3.5 2.6 1 2.9.6.3 1 1.7 1 3.1 0 1.4.4 2.2 1 1.9.5-.3 3.4.1 6.4.9 5 1.3 5.6 1.2 7-.3.9-1 1.6-2.3 1.6-2.9 0-1.5 1.7-1.6 2.5-.2 1.2 1.9 2.7-.2 2-2.8-.4-1.6-.1-2.8.7-3.4 1-.7.9-1.2-.6-2.3-1.9-1.4-1.9-1.5 0-3.6 1.8-2 1.8-2.1 0-1.8-1 .2-2.1-.2-2.3-.9-.3-.7.4-1.2 1.7-1.2 1.8 0 1.9-.3 1-2-1.2-2.3-.1-2.6 3.1-.9 2 1 2 1.1.2 2.4-1.2 1-1.4 1.4-.4 1.5 1.1 0 1.1.3.1 1.5s-1 1.9-.2 2.7c1.6 1.6 4.2-.8 3.9-3.5-.1-1.6.4-2.2 1.8-2.2 1.1-.1 2.3.4 2.7 1 .5.6 1.2.3 2.1-.9.8-1.1 1.9-1.6 2.5-1.2.7.4 1.2.3 1.2-.3 0-.5.3-1.6.6-2.5.4-1.1.1-1.6-1-1.6s-1.6-.9-1.6-3c0-2-.5-3-1.5-3-1.1 0-1.2-.5-.5-2.4.5-1.3.7-5.2.4-8.6-.5-6.6 1.2-10.5 4.1-9.4.7.3 1.5-.4 1.8-1.5.3-1.2 1.1-2.1 1.7-2.1.8 0 .9.6.4 1.7-.4 1-.7 5.5-.6 10.1.1 4.6-.3 9.5-.9 10.9-.6 1.7-.6 3 .1 3.8.6.7.8 1.9.5 2.7-.3.8.1 2.1 1 2.8.8.7 1.5 2.1 1.5 3.1s.9 2 1.9 2.4c1.3.4 1.8 1.2 1.4 2.1-.3.8-1.2 1.3-2 .9-1.2-.4-1.4.2-.9 3.2 1.6 9.7 1.4 14.5-.8 17.9-1.1 1.8-3 3.6-4.1 4-2.8.9-3.4 2.1-4.1 8.6-.4 3.2-1.1 5.8-1.5 5.8-.5 0-.9.9-.9 1.9 0 1.1-.4 2.3-1 2.6-.5.3-1 1.6-1 2.9 0 1.2-.5 2.7-1 3.2-.8.8-.7 1.9.1 3.7 1 2.3.9 3.2-1.5 6.7-1.4 2.2-2.6 4.8-2.6 5.7 0 1-.9 2.4-2 3.1-1.2.7-1.8 1.7-1.4 2.3.3.6-.2 1.9-1.1 2.9-.9 1-1.8 3-1.9 4.3 0 1.4-.4 2.3-.8 2-.5-.2-.8 1.4-.8 3.6 0 3 .4 4.1 1.5 4.1.8 0 1.5.9 1.5 1.9 0 1.1.6 2.1 1.3 2.3.8.3 1.2 3.2 1.3 9.6 0 8-.2 9.2-1.7 9.2-.9 0-2.7.8-4 1.9l-2.3 1.9 1.9 3.7c1.1 2.1 4.2 5.4 6.8 7.3 2.6 1.9 4.6 4 4.4 4.6-.6 1.6 2.5 5.3 4.9 5.8 2.4.4 4.7 7.1 4 11.5-.2 1.8-.1 3.3.4 3.3 1.2 0 1.8 9.3.6 10.9-1.2 1.5 1.6 4.1 4.5 4.1 2 0 3.5 1.7 4.1 4.5.2 1.3 1.1 2 2.8 2.1 2.7 0 9.7 3.1 10.6 4.6.3.5 0 1.5-.6 2.3-.7.8-1 2.6-.8 4 .3 1.6.1 2.5-.7 2.5-1.4 0-2.5 2.2-2.5 5 0 1-.9 2.5-2 3.3-1.1.8-1.7 1.7-1.3 2 .3.4-.1 3-1 5.9-.9 2.9-1.5 6.2-1.4 7.3.3 3.2-2.8 2.8-6.6-.8-2.7-2.5-3.8-3-4.2-1.9-.3.7-.3 1.8.1 2.3.3.5 0 .9-.6.9s-1.4-.8-1.7-1.8c-1.3-3.3-4.3-4.3-4.3-1.3 0 1.1-.9 2.2-1.9 2.6-1.2.4-2 1.7-2.3 4-.2 1.9-.1 3.5.4 3.5.4 0 .5.6.2 1.4-.3.8-.1 2.3.4 3.3 1.2 2.2-.3 4.6-3.1 5.1-1.5.3-1.7-.1-1.2-1.7.5-1.8.4-1.8-1.8-.8-1.5.7-2.3 1.7-1.9 2.6.4 1 .1 1.3-1.1.8-.9-.3-1.7-.2-1.7.3 0 .6-.7 1-1.5 1-.9 0-1.8.6-2.1 1.4-.6 1.6-4.2 1.8-6.1.3-.9-.7-.9-1.3 0-2.8 1-1.6.8-2.3-1.7-4.4-2-1.7-3.2-2.2-3.6-1.4-.4.6-1 1-1.4 1-1.9-.3-2.5.1-3.1 2.1-.6 1.6-.1 2.6 1.6 3.9 2.2 1.7 2.3 1.8.6 3.7-2.1 2.3-2.1 3.9-.2 7.5 1.1 2.2 1.2 3.4.4 4.9-.6 1.1-1.4 1.7-1.8 1.2-.3-.5-2.3-1-4.4-1.1-3.2-.1-4 .3-4.9 2.3-1.3 2.8-3 3.1-5.3.7-4.1-4-12.5-1.1-12.5 4.3 0 2.1.3 2.2 2.6 1.4 2.2-.9 2.5-.8 2 .6-.3.8-.6 1.7-.6 2 0 .2-.6.1-1.4-.2-.8-.3-1.9.3-2.5 1.4-1.3 2.5-5.2 3.5-8.7 2.2-1.8-.7-3-.7-4 .1-.7.6-2.1.8-3.1.5-1.3-.4-2.5.5-4.3 3-4.1 5.9-6.1 7.4-8.6 6.8-1.9-.5-2.4-.1-3 2-.3 1.4-1.1 2.4-1.8 2.3-1-.2-1.1 4.1-.1 5.2.3.2 2.2-.1 4.2-.7s4.2-.8 4.7-.3c.6.4 2.1 1.1 3.3 1.3 1.7.5 2.4 0 3.2-2.3.5-1.6 1.4-2.9 1.9-2.9 1.5 0 2.1-3.7.9-4.9-.8-.8-.5-1.1 1.1-1.1 1.2 0 2.2.4 2.2 1 0 .5.9 1 2 1 1.3 0 1.8-.5 1.4-1.5-.4-.8-.1-1.5.5-1.5s.8-.6.5-1.4c-.3-.9.6-1.7 2.5-2.4 3.8-1.3 4.1.1.6 2.4-1.4.9-2.4 2.1-2.2 2.7.4 1.3 8.7 3.8 8.7 2.6 0-1.5 2.2-1 4.2.8 1.7 1.5 2 1.5 2.8.3.8-1.3 1.2-1.2 2.5.5 1.2 1.4 1.8 1.6 2.1.7.3-.6 2.3-1.2 4.3-1.2 4.8 0 7 2.4 7.7 8 .4 3.6.3 4.2-1.1 3.6-2.8-1.1-.7 1.6 8.7 11.2 2.4 2.3 5.5 4.5 7.1 4.9 3.3.7 4.2 1.9 4.2 5.8 0 2.7.4 3 3 3 1.7 0 3.3-.4 3.6-.9 1.9-2.5 12.9 17.5 11.5 21-.5 1.4 9.8 8.4 12.4 8.4 1.1 0 1.5 1.1 1.5 4 .1 4.1 2.6 7.3 5.2 6.3.9-.3 1 .5.6 3.1-.5 3-.3 3.6 1.3 3.8 1.1 0 2.4.2 2.9.3.6.2 1.6.3 2.4.4 1 .1 1.1.4.2 1.5-.8 1-.8 1.6.1 2.4 1.7 1.3 5.8-.3 5.8-2.3 0-.9.4-1.3 1-1 .5.3 2.6.2 4.5-.4 2.8-.7 3.5-.7 3.5.4 0 1.9 3.4 3.7 5.4 2.9 2-.8 3.4 2.5 1.6 3.6-.9.5-.6 1.1.9 2.2 2.1 1.5 5.5 11.4 4.4 13.1-.2.4 0 1.3.5 2s1.2 3 1.5 5.1c.7 4.2-.9 6.5-4.6 6.6-1 0-3 1.3-4.4 3-1.3 1.7-3.3 3-4.3 3s-2 .7-2.4 1.5c-.3.8-1.1 1.5-1.8 1.5-1.7 0-7.8 5.5-7.8 7.1 0 .7-.9.9-2.3.5-1.7-.4-2.5 0-3.2 1.7-.6 1.3-2.9 2.9-6 4-2.7 1-6.4 2.4-8.2 3.2-4 1.9-6.2 1.9-6.9 0-.5-1.1-1.1-1.2-2.4-.5-1.2.7-2.8.7-4.5 0-4-1.5-4.5-1.3-4.5 2.2 0 4.7-1.9 11-3.1 10.2-1.3-.7-3.8 2.5-3.9 4.8 0 1.1-.8 1.8-1.9 1.8-1.1 0-3.4 1.4-5.1 3.1-3.6 3.7-3.4 6.4.5 5.6 1.4-.2 2.8 0 3.1.5.3.4 1.7-.5 3.2-2.2 2.4-2.7 2.7-2.8 4.4-1.4 2.4 2.3 6.8 1.1 6.8-1.8 0-2 .1-2 1.8-.5 1 1 2.2 1.7 2.7 1.7s1.6.7 2.6 1.6c1.3 1.2 2.2 1.3 3.7.5 1.6-.9 2.6-.2 6.7 4.5 3.6 4.2 5.3 5.4 6.7 5 1.1-.2 2.8-.1 3.7.3 4.2 2.1 11.6 3.9 12.6 3.1 2.1-1.7 7.3-1.5 9.4.4 1.2 1.1 2.1 1.4 2.1.8 0-.8.7-.9 2.6-.2 1.4.6 3.6 1 5 1 2.4 0 2.9.4 8.5 7.2 1.7 2.1 3.5 3.5 4 3.3.5-.3 2.2.4 3.8 1.6 2 1.5 3.5 1.9 4.8 1.4 1-.5 2.2-.7 2.7-.6.4.1 1.3-.5 2-1.3 1.3-1.7 5.3-.5 6.2 1.9.4.8 1.4 1.5 2.3 1.5 1.3 0 1.6-.9 1.4-5.2-.3-4.6-.1-5 .9-3 1.3 2.6 3.2 2.4 3.4-.4.1-1 .3-2.4.4-2.9.1-.6.2-1.3.1-1.8 0-.4.6-.7 1.4-.7.9 0 1.5-.9 1.5-2.5 0-1.8.4-2.3 1.5-1.9.8.4 1.5.1 1.5-.6 0-.9 1-1 3.3-.5 1.7.3 3.7.8 4.4.9 2.1.4 2.7 1.5 3.3 7l.6 5.4-4-.6-4-.5 1.7 2.6c2.2 3.4 2.2 7.6 0 9.4-1.7 1.3-1.6 1.4.4.8 1.9-.5 2.2-.3 1.6 1.1-.4 1.2-.3 1.5.5 1 .7-.4 1.2-.1 1.2.7 0 .8-.7 1.8-1.5 2.1-1.3.5-1.4 1-.5 2.6.9 1.6.8 2.5-.1 3.6s-.9 1.7.1 2.9c.6.8 1.7 1.3 2.3 1.2.7-.1 1.9 1.3 2.7 3 2.2 4.8 5.2 4.3 11.2-1.7 4.9-4.9 8.8-6.5 8.8-3.5 0 .9-.6 1.2-1.7.8-1.5-.5-1.6-.3-.5.8 1.7 1.8 1.5 2.7-.8 3.4-1.7.5-2 1.4-1.8 4.3.2 3-.1 3.7-1.7 4-1.1.2-2.4 1-2.8 1.8-.4.8-1.5 1.4-2.4 1.4-.9 0-1.3.6-.9 1.5.4 1-.1 1.5-1.4 1.5-1.1 0-2 .4-2 1v1.7c0 1.4 5.6.8 7.9-.9 1.3-1 2.9-1.8 3.7-1.8.7 0 1.5-.6 1.7-1.3.3-.6.6-.2.6 1 .1 2.6 4.1 5.9 5.2 4.2.3-.6.9-1.1 1.2-1.1 2 0 4.6-1.2 4.2-1.9-.3-.4 1-.5 2.9-.2 3.2.5 3.4.4 2.9-1.6-.7-2.7 1.3-2.7 2.7 0 1.1 1.9 1.3 1.9 2.9.5 1-.9 2.1-1.3 2.5-.9.4.4 1.1.1 1.6-.7.7-1.1 1.1-1.1 2.4-.1 1.3 1.1 1.7 1.1 2.2-.2.3-.8 1.6-1.8 3-2.1 1.3-.4 4.3-2.5 6.5-4.7s4.9-4.1 5.9-4.2c2-.1 3.4-3.6 2.4-6.1-.3-.9-.3-2.4.1-3.4 1.9-4.3 1.5-7.4-1-9.4-1.4-1.1-2.5-2.6-2.5-3.4 0-.8-1.6-3.8-3.5-6.6-3.7-5.6-3.7-7.3.3-6.5 1.4.3 3.3 0 4.3-.6 1.2-.8 2.5-.5 5.1 1.1 2 1.2 4.7 2.2 6.2 2.2 1.4 0 2.6.5 2.6 1.1 0 1.7 8 8.9 9.9 8.9.9 0 2.2.5 2.9 1.2.9.9 1.7.9 3.5-.1 2-1.1 2.9-1 5.4.2 1.9 1 3.4 1.2 4.4.6.8-.5 3.4-.9 5.9-.9 2.5 0 5.6-.7 6.8-1.6 1.2-.8 2.2-1.2 2.2-.8 0 .3.7.1 1.4-.6.8-.6 2.8-1 4.3-.9 3.5.4 5.4-.7 4.6-2.6-.7-1.9 2.3-6.5 4.2-6.5.9 0 1.5-1 1.5-2.5 0-1.8-.5-2.5-1.9-2.5-2.9 0-7-3.8-7.9-7.3-.7-2.8-1.3-3.2-4.3-3.3-7.2-.3-7.9-.4-7.9-1.7 0-.8-1.1-1.9-2.5-2.5-2.1-1-2.5-1.8-2.5-5.3 0-2.5-.7-5-1.6-6-1.5-1.7-1.5-2 .1-4.5 1.1-1.7 1.5-3.6 1.1-5.6-.4-2.3-.2-2.8 1-2.6.9.2 2-.7 2.5-1.9.6-1.7.4-2.3-1.2-2.8-2.3-.8-2.4-1.5-.4-4.1 1.4-1.8 1.4-1.8 1.5.7 0 1.4.3 2.9.7 3.2.9.9 1.3 12.7.5 12.7-.4 0-1.3.9-2 2-1.5 2.5 0 6.2 2.2 5.4.8-.3 1.7-.1 2 .5.4.6 1.3.8 2.1.5.8-.4 1.8.1 2.1 1 .3.9 1.5 1.6 2.6 1.6 2.7 0 5.8 1.8 5.8 3.5 0 .7.9 1.7 2 2 1.1.3 2 1.2 2 1.9 0 .8.6 1.9 1.4 2.5 1.1.9 1.7.8 2.9-.4 1.4-1.3 1.9-1.3 4.9.3 1.8.9 3.5 2 3.6 2.4.2.5 1.2.8 2.3.8 1 0 1.9.7 1.9 1.5s.5 1.5 1.1 1.5c.8 0 .7.5-.1 1.5-1.5 1.9-.1 3.9 2.1 3 1.8-.7 3.9-5.2 3.3-7-.7-1.8 2.3-6.3 4.7-7 2.7-.9 1.5-5-2.8-9.8-2.1-2.4-3.3-4.6-3.1-6 .2-1.3-.8-3.3-2.4-5.1-1.5-1.6-2.8-4.3-3-6-.2-2.4-.8-3.2-2.8-3.4-1.4-.2-3.6-1.4-5-2.6-3.3-2.8-8.2-5.4-9.5-5-.6.3-1.6-1.6-2.3-4.1-1.6-5.9-1.5-6.3.7-7 1-.3 2.2-1.6 2.6-2.8.6-2 .7-2.1 1.4-.4.6 1.7.8 1.7 2 .3 1.1-1.3 1.1-2-.4-4.3-1.7-2.6-1.8-2.6-3.1-.7-3.1 4.3-5.3 6.4-5.9 5.4-.3-.5-.3-1.5 0-2 .8-1.2-1.5-1.3-3.4-.1-1.6 1-6.6-1.6-9.8-5.1-2.3-2.6-2.7-6.2-.6-5.4 2.4 1 1.4-2.3-1.3-4.1-2.5-1.6-2.7-1.6-4 .2-.8 1-1.4 2.7-1.4 3.6 0 1.1-.9 1.9-2.2 2.1-1.5.2-2.4 1.1-2.6 2.5-.4 2.9-1.7 2.9-3.6.1-2.2-3.1-2.1-3.3 2.1-3.5 3.9-.2 5.4-1.6 5-4.7-.1-1.4.6-2.2 2.3-2.6 2.1-.5 2.6-1.4 3.2-5.5.4-2.7.3-5.6-.3-6.7-.7-1.3-.6-1.8.3-1.8 1.8 0 3.3 1.3 3.5 3 .1.8.6 3.1 1.1 5 .6 2.6.5 3.9-.4 4.7-1.3 1.3-.8 4.9.9 6 .7.4.8 0 .4-1.2-.6-1.4-.3-1.6 1.2-1.2 1.1.3 2.2 0 2.3-.5.3-.8 1.1-.7 2.5 0 1.7.9 2.4.7 4.3-1.3 2.5-2.7 4-2.5 4 .6 0 1.1 1.4 3.4 3.1 5.1 1.6 1.7 3.3 4.3 3.6 5.9.5 2.6.7 2.7 2.2 1.2 1.5-1.5 1.7-1.4 2.6 2.1.6 2 1.7 4.1 2.5 4.6 1 .7 1.1 1 .3 1-.7 0-1.3.6-1.3 1.2 0 2.4 1.7 3.9 5.2 4.7 2.9.7 3.8.5 4.9-1 .7-1.1 2.1-1.9 3.1-1.9s1.8-.7 1.8-1.5c0-.9.6-1.2 1.7-.8 1.3.5 1.5.2 1-1.1-.4-1-.7-2-.7-2.2 0-.2-.7-.4-1.6-.4-.8 0-1.2-.4-.9-1 .3-.5.3-2.5-.1-4.4-.4-2.6-1.3-3.7-3.4-4.5-1.6-.5-3.4-1.9-4-3.1-.6-1.2-1.7-1.9-2.5-1.6-1.4.5-4.1-2.1-7-6.6-2.2-3.6-1.2-6.4 3.1-8 2.5-.9 3.9-2.3 5.1-5.1 1.4-3.1 2.2-3.8 4-3.4 1.9.3 2.3 0 2.3-2 0-1.6.7-2.7 2-3 1.3-.4 2-1.4 2-2.9 0-1.4.7-2.7 1.5-3 .8-.4 1.5-1.3 1.5-2.2 0-2.5 3.3-12.2 4.1-12.2.5 0 1.2.7 1.7 1.6.8 1.5 1.1 1.5 2.9-.3 1.4-1.4 2.6-1.7 4-1.2 2.8 1 3.8-2.4 1.7-5.6-1-1.6-1.2-2.5-.4-3 .7-.4.3-1.6-1-3.5-1.8-2.6-1.9-3-.5-3.8 1.5-.8 1.5-1 .1-2.1-1.8-1.5-.6-4.6 2.5-6.9 1-.7 1.6-1.9 1.3-2.7-.7-1.8 0-1.9 2.7-.5 2.5 1.4 5.7-.3 6.9-3.6.8-2 1.6-2.4 5.2-2.4 4.6-.1 7.8-1.8 7.8-4.2 0-.9 1.9-3.2 4.1-5.3 3.3-3 4.7-3.6 6.9-3.1 1.9.3 3 .1 3.4-.9.3-.8 1.2-1.5 2.1-1.5.8 0 1.5-.7 1.5-1.5 0-.9.6-1.2 1.5-.9 2.3.9 6.5-.5 6.5-2.1 0-.9.9-1.5 2.4-1.5 2 0 2.5-.6 2.8-3.8.3-2.2-.1-4.6-1-6-1.3-2.1-1.3-2.2 1.1-2.2 3.8 0 7-4.5 6.2-9-.3-2.2 0-4.5.9-6.2.8-1.5 1.1-3 .6-3.3-1.3-.8 0-3.5 1.6-3.5 1.5 0 1.8-3.2.5-6.4-.6-1.5.2-2.9 3.1-5.9 2.1-2.2 3.8-4.6 3.8-5.4 0-.9.6-1.3 1.4-1 2 .8 3.7-3.6 2.6-7.2-.7-2.6-.5-3.1 1.3-3.7 1.2-.4 2.5-1.2 2.9-1.8 1.4-2.1.8-6.3-1.3-9-1.6-2-1.7-2.6-.6-2.6 1 0 1.3-.7 1-2-.3-1.3 0-2 .8-2s2-.9 2.7-2c.7-1.1 1.9-2 2.6-2 2.2 0 2.8-1.7 1.6-4-.9-1.6-.8-2 .5-2 .8 0 1.5-.6 1.5-1.3 0-.8.9-2.2 2-3.2s2-2.8 2-4.1c0-1.2.5-2.4 1.1-2.6.8-.3.6-1.4-.5-3.6-.9-1.8-2.1-3-2.6-2.7-.4.3-1.1-.1-1.3-.7-.4-1-.6-1-.6-.1-.1.7-.5 1.3-1 1.3-1.5 0-1.8-3.3-.4-6 1.1-2.1 1-2.7-1-4.8-1.2-1.4-4.5-4.1-7.2-6.2-6.8-5-8.2-10-6.1-21 .6-3.2.4-3.7-2.4-5.2-1.9-1.1-3.9-3.5-5-6.2-2.5-5.5-4.6-6.5-5.5-2.6l-.7 3-8.5-.1c-4.6 0-8.7.2-9 .5-.4.3-1.2.1-2-.6-1.1-.9-1.7-.6-2.9 1-1.8 2.6-7 3.1-6 .7.9-2.5-.3-4.3-2.7-3.7-1.2.3-1.9.1-1.5-.3.4-.5.3-1.4-.3-2.2-.6-.7-.8-1.3-.3-1.3s.3-.4-.5-.9-1.4-2.3-1.3-4c.1-3.9-3-11.5-3.6-8.9-.4 2.1-1 2.2-3.7.5-4.6-2.7-8.5-6.2-8.5-7.5 0-1.6-2.5-4.3-3.3-3.6-1.2 1.2-4.7-1.8-4.7-4 0-1.3-.9-3.1-2-4.1-2.4-2.1-2.6-4-.5-3.1.8.3 1.5 0 1.5-.7 0-.8.4-.7 1 .3.6.9.5 1.7-.2 2.1-.6.4-.7.9 0 1.3.5.3 1.5-.1 2.2-.9.6-.7 1.8-1.1 2.6-.8.8.3.2-.8-1.3-2.5-5.6-6-5.6-5.9-2.3-8.2 2.6-1.9 3-2.7 3-7 0-2.7.8-6.9 1.7-9.2 1.2-2.9 1.3-4.3.5-4.6-.6-.2-.8-1.1-.5-2 .4-1.3.3-1.4-.5-.3-1.3 1.8-3.3.5-2.5-1.6.4-1 .2-1.4-.4-1-1 .6-4.1-2.2-5.8-5.2-.6-1 0-1.2 2.6-.7 3 .5 3.2.5 1.2-.6-1.3-.6-2.3-2-2.3-3.1 0-3.1-3.9-8.6-6.5-9.3-1.3-.3-3.1-1.7-4-3-.8-1.3-2.5-2.4-3.6-2.4-1.7 0-2-.5-1.7-2.5.4-2.1.3-2.3-1.3-1.4-1.1.5-1.9 1.5-1.9 2.1 0 .6-.6.5-1.6-.3-.9-.7-2.9-1.2-4.4-1.1-2 .2-3.4-.5-5.4-2.8-1.4-1.7-2.6-4-2.6-5 0-.9-.7-2.3-1.6-3-1.2-1.1-4.4-7.2-4.4-8.5 0-.1 1 0 2.3.2 1.6.3 2.6-.2 3.6-1.9 1.1-2.1 1-2.9-.9-6.1-1.2-2-2.6-3.7-3.1-3.7s-.9-.5-.9-1.1c0-.5.4-.7 1-.4.5.3 2.8.1 5-.5 3-.8 4-1.6 3.8-2.8-.2-.9-1.3-1.8-2.6-2-1.2-.2-2.7-1.2-3.2-2.3-.6-1-3.2-3.1-5.9-4.6-4.9-2.9-5.7-5.3-1.6-5.3 3 0 3.5-.8 3.7-6.1l.1-4.2 2.9 3.2c1.6 1.8 2.7 3.9 2.4 4.6-.7 1.8 1.8 2.5 7.6 2.3 3.2-.2 5.3.3 6.6 1.5 2.2 2 3.2 2.2 3.2.4 0-2.7 2.5-6.7 3.9-6.2.9.4 1.1 0 .5-1.2-.4-1-.9-3.5-1.2-5.6-.3-3.1-.1-3.7 1.4-3.8 1.1 0 3-1.4 4.3-3l2.3-3-2.6.7c-2.3.5-2.6.3-2.4-1.7.2-1.4-.2-2.3-.9-2.2-.7.2-3.5-1.9-6.4-4.5-4.6-4.3-5.1-5-4-6.9 1.4-2.7 1.4-7 .1-7.8-1.6-1-1.2-2.3 1-3 1.1-.3 2-1.5 2-2.6 0-2.1.8-2.3 2.9-1 2 1.3 4.1.2 4.1-1.9 0-1 .6-2 1.4-2.3 2.2-.9 2.9-7.2 1.2-10.6-.9-1.6-1.8-4.6-2.1-6.7-.5-3.4-.2-4.1 2.1-5.8 2.2-1.5 2.8-1.6 3.5-.5.6 1 1.1 1.1 2 .2.8-.8.8-2 0-4.6-.7-2-.9-5.2-.6-7.1.7-3.6-1.7-9.3-2.8-6.4-.7 1.8-8.2-2.5-8.1-4.6.1-.9-.2-1.6-.6-1.6-1.3 0-7-5.1-7-6.2 0-.6.7-.8 1.5-.5 2.4 1 2.7-1.1.8-4.5-1-1.8-2.1-3.5-2.4-3.8-2-1.7-2.6-4.5-1.6-7.6.9-2.9.6-4.2-2.9-11.1-2.1-4.3-3.9-8.3-3.9-9 0-.7-.6-1.8-1.3-2.5-1.4-1.4-1.6-3.8-.3-3.8.5 0 2.8.8 5.2 1.9 5.8 2.5 14.6 3.6 16.5 2 .8-.6 2.4-.9 3.6-.6 2.3.6 6.7-2.1 6.1-3.9-.2-.5.6-2 1.7-3.2 2.3-2.4 7.8-3 9.8-1 1 1 1.6.7 2.8-1 .8-1.2 2.3-2.2 3.2-2.2 2.5-.1 5.2-2.4 5.2-4.6.1-2.1 3.3-6.4 4.8-6.4.5 0 1.2.7 1.6 1.5.3.8 1.2 1.5 2.1 1.5.8 0 1.5.9 1.5 2s-.6 1.9-1.2 1.8c-.7-.2-1.3.6-1.3 1.8 0 1.1-.6 2.8-1.3 3.7-1.1 1.3-1 1.6.7 2.2 1.2.3 2.1 1.3 2.1 2.1 0 2.6 6-2.4 6.6-5.5.4-2 1.2-2.7 2.7-2.7 1.8.1 2.3-.6 2.7-3.9.4-3 .7-3.5 1.3-2.2.4 1 .7 2.9.7 4.2 0 1.2.7 2.8 1.5 3.5 2.3 1.9 1.5 5.4-1.3 5.8-1.7.3-2.2.8-1.8 1.9.7 1.8-1.4 8.3-2.6 8.3-.4 0-.8.7-.8 1.5s-.4 1.5-.9 1.5-3.2 2.5-6.2 5.5c-2.9 3-6.1 5.5-7.1 5.5-2.1 0-3 1.3-2.2 3.4.7 1.8 7.7 4.2 11.2 3.8 1.2-.2 2.2.2 2.2.8 0 .5.9 1 2 1s2-.5 2-1.1c0-.5 1.6.2 3.6 1.7 2.5 2 3.2 2.9 2.2 3.5-1 .6-1 1.1-.1 2 .9.9 1.8.8 3.7-.4 2.7-1.8 4.1-.9 4.1 2.8 0 1.1 1.7 3 4.2 4.8 3.6 2.3 4.6 2.6 6.4 1.7 1.3-.8 3.9-.9 6.6-.5 3.1.4 4.3.3 3.8-.4-.3-.6-1.4-1.1-2.4-1.1-1.9 0-3.8-1.8-5.6-5.4-.6-1.1-1.8-2-2.7-1.8-1.9.3-4.3-2.4-2.9-3.2.5-.3 2.1-.2 3.6.4 3.9 1.5 5.5 1.2 5.5-1 0-1.5.7-2 2.5-2 2.2 0 2.4-.3 1.9-3-.8-3.6 1.3-4.1 4.1-1 1.6 1.8 2 1.8 3.4.6 1.4-1.3 2.1-1 5.9 2.5 4.5 4 6.6 5.2 4 2.1-1.3-1.5-1.3-2.1-.2-5 .9-2 2.1-3.2 3.3-3.2 2.9 0 3.8-4 1.5-6-2.2-1.9-5.4-7.5-5.4-9.6 0-.8 1.2-2 2.7-2.7 2.2-1 2.8-.9 3.7.7 2.2 3.6 4.8 6.6 5.8 6.6.5 0 .7-.7.4-1.6-.4-1.2-.1-1.4 1.4-.9 1.1.4 2 .2 2-.4 0-.6-1.2-1.1-2.6-1.1-1.4 0-2.3-.4-1.9-1 .3-.6 2.2-1 4.1-1 2.7 0 3.4-.4 3.4-2 0-1.1.5-2 1-2 .6 0 1 .5 1 1.1 0 .5.5.7 1.1.3.7-.4.9.1.7 1.2-.2 1.1-1.1 1.8-1.8 1.6-1.1-.3-1 .1.3 1.6.9 1 1.5 2.1 1.2 2.3-.2.3.9 2.1 2.6 4 4.8 5.6 5 5.9 4.4 6.9-.4.6.8 1.8 2.4 2.8 1.7.9 3.4 2.5 3.7 3.6.9 2.8 2.4.4 1.6-2.6-.4-1.5-2.2-3.9-4.1-5.3-2.1-1.5-2.9-2.5-1.9-2.5 1.8 0 2.8-3.7 2-7.5-.2-1.5-1.1-2.5-2.2-2.5-1 0-2.3-1.3-3-3-.7-1.6-2.7-3.8-4.6-4.9-1.9-1.1-3.4-2.4-3.4-3 0-1.5-6.6-4.1-10.3-4.1-2 0-3.8-.4-4.2-1-.3-.5-1.4-.2-2.5.7-1.3 1.1-1.6 1.9-.9 2.4.7.4.9 1.2.5 1.8-.4.6-.3 1.9.3 2.9.5 1 .6 2.3.3 3-.5.6-1.9-1-3.6-4.1-3.3-5.8-6.6-10.4-6.6-9.1 0 .5-.7-.2-1.6-1.4-.8-1.2-2.3-2.2-3.3-2.2s-2.4-.6-3-1.3c-1.6-2-8.1-18.5-8.1-20.8 0-1-.6-2.8-1.2-3.9-1-1.6-1-2.4 0-4.1 1.1-1.7 1.1-2.4-.1-3.7-.8-1-2.1-3.6-2.7-5.9-.7-2.3-1.6-4-2-3.8-.4.3-1.5-.6-2.4-2-.9-1.4-1.4-2.5-1.1-2.5.3 0 .1-.9-.5-2.1-.7-1.1-1.4-1.8-1.7-1.6-.7.8-4-2.8-4.8-5.2-.4-1.2-1.8-3.3-3.2-4.7-2.1-2.1-2.4-3.2-2-6 .3-1.9.2-3.4-.3-3.4-1.3 0-2.8-5.4-2.3-8.1.5-2.6.5-2.6-6.2-3.1-2-.2-3.3-1-4-2.6-.5-1.2-1.4-2.2-2-2.2-.5-.1.1-.7 1.5-1.5l2.5-1.3-2.7-1.1c-2.9-1.1-9.1 0-7 1.3 1.7 1 1.6 5-.2 4.3-.7-.3-3.1-.2-5.2.3s-4.3.6-4.8.2c-2.3-1.5-7.5-2.9-8.3-2.3-1.9 1.6-8.7 3.3-9.1 2.3-.1-.5-1.2-.7-2.4-.4-1.8.4-2 .2-1.3-2.6.7-3.6-.2-7.5-1.6-6.7-.5.4-.9 1.7-.9 3 0 3.6-1 5.5-2.9 5.5-1.6 0-4.9 2.9-6.5 5.7-.5.9-.2 1.1 1.1.6 1-.3 1.5-.3 1.1.2-.4.4.2 2.4 1.3 4.3 2.3 4.4 2.4 6.2.3 6.2-.8 0-1.3.4-1 .9.4.5 0 1.2-.6 1.4-.9.4-.7.6.3.6 1.6.1 4.9 3.1 4.9 4.6 0 .4-.7.2-1.5-.5-1.3-1.1-1.9-.9-3.8.7-3.2 2.9-7.2 1.7-7.3-2.2 0-1.7.4-4.2 1-5.7 1.2-3.2-.6-7.4-3.5-8.1-1-.3-2.6-2.1-3.5-4-1-2-2.2-3.3-2.9-3.1-.7.3-2.2-.7-3.4-2.2-1.1-1.5-3.2-2.8-4.5-2.9-1.4-.2-3-.6-3.6-1-.7-.4-3 .1-5.2 1.1-3.4 1.5-4.1 1.6-4.9.3-1.1-1.7-1.2-3.2-.1-2.6.4.3.7-.8.8-2.4.1-1.6 1.1-4 2.3-5.3 1.4-1.5 1.9-2.6 1.2-3.1-.6-.3-1.6-1.5-2.1-2.5-.8-1.5-.7-1.8.3-1.4 2.4.9 2.8-3.6.7-7.5-1-2-2-5.8-2.3-8.3-.3-2.6-.8-5.1-1.1-5.7-.4-.6-.9-2.1-1.1-3.3-.9-4.8-8.5-8.8-9.9-5.2-.5 1.4-.9 1.3-3.1-.5-1.4-1.1-3.9-2.2-5.5-2.6-2.2-.5-3.6-2-6-6.1-1.7-3-2.8-5.9-2.5-6.4.3-.5.1-1.1-.5-1.5-1.7-1-1.1-2.5.7-1.8 1.2.5 1.5.2 1-1-.4-1-.1-1.7.6-1.8 1.4 0-7.2-2.9-8.9-2.9-.6 0-1.7.7-2.4 1.5zm-77.7 57.1c1.2 1.3-.6 3.4-2.4 2.9-1.4-.5-1.9-.1-1.9 1.1 0 1.3-.3 1.5-1.1.7s-.8-1.7 0-3.2c1.1-2 4.1-2.8 5.4-1.5zm168.4 22c1.9 1.8 1.7 4.8-.3 4-.9-.3-2-.6-2.5-.6-.4 0-.6-.7-.3-1.5.4-1 0-1.5-1.4-1.5-1.2 0-2.3-.4-2.7-.9-.8-1.4 5.8-1 7.2.5zm44 106.6c-.3.8-.6.5-.6-.6-.1-1.1.2-1.7.5-1.3.3.3.4 1.2.1 1.9zm-.5 3.3c.9 1.5.8 1.7-.6 1.2-.9-.4-1.6-.2-1.6.3 0 .6-.9 1-2 1s-2-.4-2-.9-.2-1.6-.5-2.3c-.9-2.3 5.5-1.6 6.7.7zm-333.8 54.4c.3.4 0 2-.7 3.5-.9 2-1.7 2.5-3.2 2.1-1.1-.2-2.6-.5-3.2-.5-.7 0-1.3-.5-1.3-1.1 0-.6.6-.9 1.3-.6 1.8.6 4.7-1.1 4.7-2.8 0-1.6 1.6-2 2.4-.6zm237.6 82.3c0 .5-.7.8-1.5.8-1.7 0-1.8-.2-.9-2.5.5-1.3.8-1.4 1.5-.3.5.7.9 1.6.9 2zM137.024 656c.3.8.1 1.2-.3.7-.5-.4-1.9 0-3.2.8-1.4.9-3.3 1.3-4.8.9-3-.7-3.3-2.4-.4-2.4 1.2 0 1.7-.4 1.4-1.1-.5-.7.6-.9 3.1-.7 2.2.2 3.9.9 4.2 1.8zm-14 4.6c-.4.3-1.2-.5-1.8-1.8-1.2-2.2-1.2-2.2.6-.6 1 1 1.5 2 1.2 2.4zm1.2 5.4c0 1.1-.2 2-.5 2-.2 0-.9-.9-1.5-2-.9-1.6-.8-2 .5-2 .8 0 1.5.9 1.5 2zm-14.5 1.1c.4 1.2 1.2 1.8 2.1 1.5.8-.3 1.4-.1 1.4.4 0 .6.9.5 2-.2s1.8-1.9 1.5-2.5c-.2-.7 0-1.3.6-1.3 1.2 0 7.4 4.9 7.4 5.9.1.3 1.1 2.5 2.4 4.9 1.9 3.7 2 4.6.9 6-1.1 1.4-1 1.5.7.8 3.2-1.2 3.9-1.2 4.1.1.1.7.3 1.6.4 2 .6 1.9.5 3.9-.3 5.6-.5 1.1-.4 2.4.4 3.3.9 1.1.8 1.4-.4 1.4-1.3 0-1.1.9 1 4.5 1.4 2.5 2.3 5.2 2 5.9-.3.8.1 1.7 1 2.1 1.3.4 1.4.8.5 1.7-.9.9-1.9.8-4.1-.5l-2.9-1.7-3.6 4.2-3.7 4.2-4.3-2.4c-2.4-1.3-5.1-2-6-1.7-.9.4-1.6.2-1.6-.3 0-.6-.8-1-1.7-1.1-1.4 0-1.3-.2.5-.9 1.2-.5 2.9-.7 3.7-.4 1.9.8 2-1.6.1-4.1-1.1-1.6-1.6-1.7-2.9-.7-.9.7-2.1 1.2-2.9 1.1-.7-.1-2.6.1-4.2.6-2.3.6-3.2.4-4.2-1-1.2-1.6-1.4-1.5-2 .9-.3 1.4-1 2.3-1.5 2-.5-.3-.9.4-.9 1.5 0 3-1.1 5.1-2.7 5.1-1 0-1.1.5-.5 1.6.6 1 .5 2.5-.2 4-1.8 4-9.6 2.3-9.6-2 0-.3 1.1-.1 2.5.4 2 .8 2.7.6 3.5-1 .6-1.1.6-2.1.1-2.4-1.1-.7 1.6-6.6 3-6.6.5 0 .9-.6.9-1.3 0-.8 1.1-2.4 2.5-3.7 2.1-1.9 2.4-3 1.9-5.3-.4-2.1-.3-2.7.6-2.2.6.4 2-.2 3.1-1.4s2.3-2.1 2.7-2.1c.4 0 1.3-2.3 2-5.2 1-4.2.9-5.4 0-5.9-4.1-2.4-5.3-3.8-4.1-5 .7-.7.9-2.4.6-3.9-.4-2.5-.2-2.9 2.6-3.5 1.7-.4 3.1-1.3 3.1-2.1 0-2.1 1.8-1.7 2.5.7zm-72.1 32.4c-.4.8-1.1 1.5-1.6 1.5-.6 0-.5-.6.2-1.5.7-.8 1.4-1.5 1.6-1.5.2 0 .1.7-.2 1.5zm290.9 45.4c-.3 1.2-1.6 2.1-3.4 2.3-3.5.5-3.7-.4-.5-2.1 1.7-.9 2.2-1.9 1.9-3.5-.4-2-.4-2 1-.3.8 1 1.3 2.6 1 3.6zm-8.2 3c-1.3.8-.8 5.8.7 7.3s1.6 3.2.2 2.3c-.5-.3-1 .3-1 1.4 0 1-.3 2.7-.6 3.6-.6 1.4-.8 1.4-2.5-.1-2.1-1.8-2.6-6.4-.8-6.4.6 0 .9-.6.6-1.4-.3-.7 0-1.9.6-2.5.9-1 .9-1.2-.2-.9-1.3.3-2.4-2.8-1.6-4.3.3-.3 1.6-.4 3.1-.1 1.4.2 2.1.8 1.5 1.1zm10.9-.9c0 .5-.4 1-1 1-.5 0-1-.5-1-1 0-.6.5-1 1-1 .6 0 1 .4 1 1zm3.5 4c.3.5.1 1-.4 1-.6 0-1.1-.5-1.1-1 0-.6.2-1 .4-1 .3 0 .8.4 1.1 1zm-14.9 23.7c.2 1.5-.1 3.2-.6 3.8-.5.6-.5 1.7 0 2.5 1.2 1.8 1.3 3 .2 3-1.4 0-4.3-5.8-3.2-6.5.5-.3 1-1.6 1-2.9 0-4.5 2.1-4.4 2.6.1zm16.9-.7c1.8 1.7 2.7 1.9 4.9 1.1 2.2-.9 3-.7 4.6.9 1.1 1.1 3.2 2 4.6 2 3.2 0 6.7 3.9 5.2 5.8-.6.7-.8 2.9-.3 5.5 1.2 7.3 1.1 9.2-.5 9.2-2.9 0-7 3.7-7 6.2 0 2.3-.3 2.4-3.2 1.7-5.7-1.2-9.9-5.3-9-8.7.4-1.5-1.9-4.7-3.4-4.7-.8 0-1.3-.4-1-.9.3-.5-.5-1.2-1.9-1.5-1.4-.4-2.5-1.1-2.5-1.6s-.8-1.7-1.8-2.7c-1-1-2.3-3-3-4.6-1-2.4-1-2.7.8-2.7 1.1 0 2-.5 2-1 0-.6.8-1.4 1.8-1.7.9-.4 2.8-1.5 4.1-2.5 2.9-2.2 3-2.2 5.6.2zm-13.5 16.1c0 .5-.4.9-1 .9-.5 0-1-.7-1-1.6 0-.8.5-1.2 1-.9.6.3 1 1 1 1.6zm25 20.9c0 .5-.9 1-2.1 1-1.1 0-1.7-.5-1.4-1 .3-.6 1.3-1 2.1-1s1.4.4 1.4 1zm-36.9 18.2c.2 3 .8 4.8 3.4 8.6 1.5 2.3 3.1 3.9 3.6 3.6.5-.3 1.2.3 1.6 1.3.3 1 1.3 2.6 2.1 3.5 1.4 1.6 1.3 1.8-.9 1.8-3.2 0-7.6-3-5.9-4 .8-.5 0-1.2-2.3-2.1-3.7-1.3-5.2-4-3.4-5.8.7-.7.7-1.4-.1-2.3-.7-.8-.7-1.9-.2-2.8.5-.8.6-1.8.4-2.2-.3-.4 0-.8.5-.8.6 0 1.1.6 1.2 1.2zm-134.5 6.2c1 .8 1.7 1.7 1.4 1.9-.3.3-1.6-.3-3-1.3-2.9-2.2-1.4-2.7 1.6-.6zm-17.1 1.6c.3.5.1 1-.4 1-.6 0-1.1-.5-1.1-1 0-.6.2-1 .4-1 .3 0 .8.4 1.1 1zm41.3 17.5c1.6 3.5 1.5 3.7-.8 2.5-1.1-.6-2-2-2-3 0-2.8 1.5-2.5 2.8.5zm-10.8 15c.7.8 1.8 1.5 2.6 1.5 1.4 0 1.9 1.3 3 7.2.3 2.2 1.2 3.8 2 3.8 2.7 0 2.1 1.5-.7 1.7-1.8.1-2.9-.3-2.9-1.1 0-.9-.9-1.2-2.5-.8-1.4.2-2.5 1.1-2.5 1.8 0 2-1.9 1.7-2.7-.4-.4-.9-1.3-2.1-2.1-2.6-1.3-.8-1.3-1.1.3-2.2 1.4-1 1.7-2.2 1.2-5.3-.5-3.7 0-4.7 2.4-5 .4-.1 1.2.6 1.9 1.4zm9.1 5.8c-.1.4-.1 1.5-.1 2.4-.1 1.7-.2 1.6-1.5-.1-.8-1-1.2-2.3-.9-2.8.7-1 2.6-.6 2.5.5zm14.5 37.2c1.9 1.5 1.9 1.5-.2 3.3-1.1.9-1.9 2.3-1.6 3 .7 2.3-.8 1.2-1.8-1.2-.9-2.4-.3-6.6.9-6.6.4 0 1.6.7 2.7 1.5z"/><path d="M380.824 104.2c-1.7 7.6-1.7 7.5 9.4 12.9 5 2.4 9.9 7.4 10 10.1 0 1.1.8 1.8 2 1.8 2.2 0 2.2.1 2.4 7.2.2 5.8 1.7 7.8 4.6 6 1.1-.7 3.1-1 4.4-.6 1.6.4 2.5.1 2.9-1 .4-.9 1.5-1.6 2.6-1.6 1 0 2.1-.7 2.4-1.4.7-1.8-5.4-5.9-8-5.4-1.3.2-1.9-.4-2.1-2.2-.2-1.9-1.5-3.2-5-5-2.6-1.4-4.9-2.8-5.2-3.1-.3-.3-1.5-1.1-2.7-1.8-1.3-.6-2.3-1.8-2.3-2.5 0-1.5-6.4-7.6-8-7.6-.5 0-1-1.2-1-2.6 0-1.9-.4-2.5-1.5-2-1.1.4-1.5 0-1.3-1.1.5-2.8-3-2.8-3.6-.1zM375.024 103.7c.6.2 1.8.2 2.5 0 .6-.3.1-.5-1.3-.5-1.4 0-1.9.2-1.2.5zM229.024 104.7c.7.3 1.6.2 1.9-.1.4-.3-.2-.6-1.3-.5-1.1 0-1.4.3-.6.6zM361.824 106.5c-.6 1.7-5.6 1.7-6.8 0-.5-.6-.8-.6-.8.2 0 .6 1.3 2 2.9 2.9 1.6 1 3.7 3.6 4.7 5.8 1 2.3 2.6 4.9 3.7 6 1 1 1.7 2.7 1.4 3.7-.6 2.1 7.6 10.3 9.6 9.6 2.1-.6 2.1-6.7 0-8.2-1-.7-1.5-1.7-1-2.1.4-.4 0-1.8-.9-3.2-1.3-2-1.4-2.6-.3-3.3 1.1-.6 1-1.2-.5-2.7-1-1.2-1.3-2.3-.8-2.6 1.1-.6 1-1.7-.2-5.4-.7-2.1-.9-2.2-2-.7-1 1.5-1.4 1.5-4.1.1-3.7-2-4.1-2-4.9-.1zM431.224 151.9c0 .6.4 1.3 1 1.6.6.3.7-.1.4-.9-.7-1.8-1.4-2.1-1.4-.7zM478.824 241.5c.4.8 1.2 1.5 2 1.5 1.9 0 1.8-1.6-.2-2.4-2.2-.9-2.4-.8-1.8.9zM490.124 266.6c-1.8 2.2-2 4.4-.4 4.4.8 0 2.3 1.2 3.5 2.7 2.2 2.9 11.5 5.9 12.6 4.2.3-.5-.6-.9-2-.9-2.6 0-6.2-3-7.1-6.1-.3-.9-1.2-2-2-2.3-.8-.3-1.5-1.2-1.5-2.1 0-2-1.4-1.9-3.1.1zM517.724 277c.3.5.8 1 1.1 1 .2 0 .4-.5.4-1 0-.6-.5-1-1.1-1-.5 0-.7.4-.4 1zM507.724 278c-.9 1.4.4 5 1.7 5 .6 0 .6-.6-.2-1.5-.7-.8-1-2.2-.6-3 .6-1.7 0-2-.9-.5zM482.224 282.7c0 .6.8 1.7 1.8 2.4 1.6 1.3 1.6 1.3.2-.6-.8-1.1-1.6-2.2-1.7-2.4-.2-.2-.3 0-.3.6zM515.724 282.9c-.3.5-.1 1.2.5 1.6.5.3 1-.1 1-.9 0-1.8-.6-2.1-1.5-.7zM459.224 287c0 .5.5 1 1.1 1 .5 0 .7-.5.4-1-.3-.6-.8-1-1.1-1-.2 0-.4.4-.4 1zM474.224 292c0 1.8-4.4 5-6.2 4.4-1-.3-1.8 0-1.8.6s-.4.9-.8.6c-.4-.2-.9.4-.9 1.5-.1 1.4.5 1.9 2.6 1.9 5.2 0 7.7-2 7.8-6.2.1-2.1 0-3.8-.3-3.8-.2 0-.4.4-.4 1zM66.724 329.9c-.3.5-.1 1.2.5 1.6.5.3 1-.1 1-.9 0-1.8-.6-2.1-1.5-.7zM360.224 421.6c.8 3.7 2.3 5.4 4.8 5.4 1.4 0 1.6-1.6.2-2.5-.5-.3-1-1.1-1-1.7 0-.7.7-.5 1.8.4 3.3 2.8 4.7 3.1 2.3.4-2-2.1-7.3-5.6-8.6-5.6-.2 0 .1 1.6.5 3.6zM37.424 436.4c-1 2.3-2.2 3.1-4.4 2.7-.5 0-.8.3-.8.9 0 .5-1.2 1-2.7 1-1.4 0-2.3.3-2 .6.3.4.2 1.5-.4 2.6-1.3 2.5-.3 6 1.1 3.8.7-1.2 1-1.2 1.6.3.3 1 .5 1.9.3 2-.2.1-2.3 1.2-4.6 2.3l-4.2 2.1 3.4 1.6c3.2 1.5 3.5 1.5 3.5.1s.2-1.4 1.6-.3c1.4 1.1 1.9.9 3.4-1.1 2-2.6 3-2.4 3.4.7.2 1 .7 1.7 1.2 1.5 3.2-.9 4.1-1.6 5.5-4.7.9-1.9 1.3-3.5.8-3.5s-.8-.5-.6-1.2c.1-.6-1.4-1.9-3.3-2.9-4.5-2.2-4.7-4.5-.2-4.1 3.8.4 4-.7.9-4.4l-2.3-2.6-1.2 2.6zM39.224 460.9c0 .6.4 1.3 1 1.6.6.3.7-.1.4-.9-.7-1.8-1.4-2.1-1.4-.7zM83.524 656.7c-1 .3-1 .8.1 1.9 2 1.9 2.6 1.8 2.6-.6 0-2-.5-2.3-2.7-1.3zM71.224 658.7c0 .5.7 1.6 1.4 2.6 1.2 1.5 1.8 1.6 4 .5l2.7-1.2-2.3-1.3c-2.6-1.4-5.8-1.7-5.8-.6zM78.024 664.7c.7.3 1.6.2 1.9-.1.4-.3-.2-.6-1.3-.5-1.1 0-1.4.3-.6.6zM373.824 826.5c.4.8 1.1 1.5 1.6 1.5.6 0 .5-.6-.2-1.5-.7-.8-1.4-1.5-1.6-1.5-.2 0-.1.7.2 1.5zM372.524 836.2c-.8 2.9-.7 4 .2 4.8.9.8 1.4.7 1.8-.2.3-.9.9-.7 2.1.7.8 1.1 1.6 1.5 1.6.8 0-.6-.4-1.4-.9-1.8-1.5-.8-.9-4.6.6-4.1.7.3 1.7-.4 2.3-1.4.8-1.5.8-2-.2-2.1-.7 0-2.5-.2-3.9-.3-2.2-.1-2.8.4-3.6 3.6z"/><path d="M373.524 844c-.3 1.1-1.4 2-2.4 2-1.9 0-3.2 1.3-2.2 2.4.3.3 1.1.2 1.8-.4.7-.6 2.1-.4 3.9.5 3.8 2 4.9 1.9 4.3-.6-.4-1.6-.3-1.8.9-.8.8.6 1.4.9 1.4.5s1.1.1 2.4.9c2.4 1.6 2.4 1.6 1.9-.7-1-4.8-1.1-5-3.4-3.8-1.6.9-2.6.8-4.4-.4-3.1-2.1-3.6-2-4.2.4zM351.824 897.6c-1 2.7-.7 4.4.9 4.4.8 0 1.5.5 1.5 1.1 0 .5.4.8.9.5.9-.6-1-7.6-2-7.6-.4 0-1 .7-1.3 1.6zM196.724 899.1c-.4.6-.5 1.3-.2 1.6.7.7 2.7-.6 2.7-1.8 0-1.2-1.7-1.2-2.5.2zM356.224 899.5c0 .3.7 1.4 1.6 2.3 1.5 1.4 1.6 1.4 1.3-.3-.4-1.7-2.9-3.5-2.9-2zM347.524 901.5c0 .8.4 1.5.9 1.5.4 0 .8-.7.8-1.5s-.4-1.5-.8-1.5c-.5 0-.9.7-.9 1.5zM351.224 907.2c0 1.7.3 2.8.8 2.4 1-1 1-5.6 0-5.6-.4 0-.8 1.4-.8 3.2zM195.224 906c0 .5.5 1 1 1 .6 0 1-.5 1-1 0-.6-.4-1-1-1-.5 0-1 .4-1 1zM160.824 910.5c.4.8.8 1.5 1 1.5.2 0 .4-.7.4-1.5s-.4-1.5-1-1.5c-.5 0-.7.7-.4 1.5zM163.724 911c-.4.6.1 1 1.1 1 1.3 0 1.4.3.4 1.5-1 1.2-1 1.5.4 1.5 2 0 2.1-3.6.1-4.3-.8-.4-1.7-.2-2 .3zM340.624 913.1c-1.3 1.5-2.5 1.8-4.6 1.4-1.5-.4-2.8-.4-2.8 0 0 1.3 8.8 4.3 11.3 3.8s2.6-.6 1.2-3.3c-2-3.9-2.9-4.3-5.1-1.9zM348.824 912.5c-2 1.5-1.2 6.5 1 6.5 3.2 0 9.4 3.3 9.4 5 0 1.7 1.5 2.9 7.8 6.6l2.7 1.6-2.8-2.5c-2.2-1.8-2.5-2.5-1.4-3 1.6-.6 3.1-9.7 1.8-11-.4-.4-3.2-1-6.1-1.2-2.9-.3-6.5-1.1-8-1.8-2.2-1.1-3-1.1-4.4-.2zM172.224 914.1c0 .6-.9.8-2.2.3-2-.6-2.1-.5-.9.9.7.9 1.1 2.4.7 3.2-.7 1.8.5 2 2.3.2 1.1-1 1.2-.9.6.3-.8 1.3-.6 1.3.8.1.9-.7 1.4-1.7 1.1-2.2-.3-.5 0-.9.7-.9.8 0 .8-.4-.1-1.5-1.4-1.7-3-2-3-.4z"/><path d="M189.024 916.2c-.3 2-.9 2.3-4.5 2.3-3.8 0-4.4.3-5.2 2.8-.6 1.5-1.7 3-2.6 3.3-.8.3-1.5 1.5-1.5 2.6 0 1.4-.5 1.8-1.6 1.4-.8-.3-2.6.1-4 1-1.5 1-2.4 1.2-2.4.5 0-.6-.9-.2-2 .9-3 3-5.9 2.4-7.3-1.4-.4-1-1-1.7-1.3-1.4-.2.3 0 1.7.6 3.2.7 2.1.6 3.4-.5 5.6-.8 1.6-1.5 3.6-1.5 4.5 0 .8-.5 1.5-1.1 1.5-.5 0-2.7 1.1-4.7 2.5s-4.3 2.5-5.1 2.5c-.7 0-2.8 1.3-4.7 2.9-2.2 2-4 2.8-5.3 2.4-1.6-.4-2.1-.1-2.1 1.3 0 1.3-.3 1.5-1.1.7-.9-.9-1.7-.9-3.1 0-1.6 1-2.2.8-3.8-1.3-1-1.4-1.9-3-2.1-3.5-.3-1.2-4.4-4.5-5.5-4.5-.5 0-2.5-1.8-4.4-4l-3.6-4-3.3 1.6c-3.2 1.6-3.4 1.5-9.9-1.7-3.7-1.8-7.9-4.4-9.5-5.8-1.7-1.5-3.1-2.1-3.6-1.5-1.4 1.4.7 11.3 3 13.7 1 1.1 1.9 2.7 1.9 3.4 0 1.6.5 1.6 3.2.2 3.2-1.7 9.7.6 13.5 4.8 2.4 2.5 3.7 3.3 5.2 2.8 2.6-.8 7.5 2.3 6.2 3.9-.6.7-.8 2.1-.6 3.2.4 1.6 1.1 7.1 1.7 12.3.1.8.9 1.6 1.8 1.8 1.1.3 1.7 1.4 1.6 3.4-.1 3.3-.8 3.6-2.6 1.4-.7-.9-2-1.5-2.9-1.3-.9.1-2.6-.3-3.8-1-1.9-1.1-2.2-1-1.7.2.3.9 1.1 1.4 1.7 1.3.6-.1 1.7 1.1 2.5 2.6 1.2 2.5 1.2 3.1-.3 4.7-1.5 1.7-1.4 1.9 1 3.8 3.9 3.1 6.4 3.6 8.4 1.8 1-.9 2.7-1.6 3.8-1.6 2.5 0 7.7 2.5 9.3 4.5.7.8 1.8 1.5 2.5 1.5s1.8.6 2.4 1.4c.6.7 2.5 1.6 4.1 1.9 3.1.7 7.4 6.7 5.1 7.5-1.8.6-1.2 3.9 1.2 6.6 2 2.1 2.9 2.4 6.5 1.9 3.8-.5 4.2-.4 4.2 1.6 0 1.6-.6 2.1-2.5 2.1-1.4 0-2.5.5-2.5 1.2 0 .6-.3.9-.6.5-1.4-1.4-6.5 2.4-7.1 5.3-.5 2.5-1 3-3.7 3.1-1.7.1-4.2.5-5.6.9l-2.5.8 2.3.7c1.3.4 2.2 1.6 2.3 2.9.1 1.7.2 1.7.6.3.5-1.9 1.2-2.1 3.3-.7.9.5 1.9.5 2.7-.2.7-.6 2.2-.8 3.3-.5 1.5.4 2.2-.1 2.6-1.9.5-1.9 1.3-2.4 4-2.4 3.2 0 3.4-.2 2.8-2.5-.5-2-.3-2.5 1.4-2.5 1.5 0 1.9-.5 1.5-2-.3-1.2 0-2 .6-2 .7 0 .9-.5.6-1-.3-.6-.1-1 .6-1s.9-1.1.5-3.5c-.4-2.2-.3-3.5.4-3.5.5 0 1 .6 1 1.2 0 .8 1.7 1.4 4.2 1.6 2.8.2 4.9 1.1 6.6 2.7 3.2 3.2 3.7 3.1 3.8-.4.1-1.5 1.4-4.5 3-6.5 2.3-2.9 3.5-3.6 5.6-3.3 2 .2 2.8-.2 3.2-1.7.9-3.5.7-4.8-.6-3.9-.7.4-2.8.9-4.7 1-1.9.1-3.8.8-4.2 1.5-1 1.5-4.4-.1-4.4-2 0-.6-.6-1.7-1.2-2.3-1-1-1.6-.9-2.7.7-1.9 2.5-2.8 1.5-3.1-3.8-.2-2.4-.6-5.5-1-7s-.3-3.3.1-4c1.2-1.8.5-5.1-1.2-6.1-1.8-1-1.8-2.8 0-2.1 2.3.9 2.8-1.3 1.1-4.6-1.7-3.2-3.5-3.2-3.5.1 0 1.1-.7 1.9-1.6 1.9-.9 0-1.4-.6-1.1-1.3.7-1.9-.6-3.8-2.9-4.1-2.3-.4-2.3-5 .1-7.6.9-1 2-3.4 2.6-5.4.8-2.9.6-4.1-.8-6.3l-1.8-2.8 2.9 1.8c2.7 1.8 3 1.8 6.7.1 2.4-1 3.9-2.4 3.9-3.5 0-3.6 1.1-4.9 3.7-4.2 3.5.8 6.7-3.1 4.9-5.9-.9-1.5-.8-2.2.5-3.1.9-.7 1.4-1.8 1.2-2.5-.3-.6 0-1.2.6-1.2s1.1-.9 1.1-2c0-2.3 4.9-5.2 7-4.1.9.5 2.2.1 3.3-1.1 1.7-1.8.9-2.6-.9-.8-.7.7-2.1-.4-4.3-3.5-1.8-2.5-3.4-4.5-3.6-4.5-.2 0-.5 1-.7 2.2zm-49.8 77.9c0 .3-.9.9-1.9 1.2-2 .5-4.7-3.6-3.5-5.5.6-.9 5.4 2.8 5.4 4.3zm9-2.7c1.1 0 2 .4 2 .8v1.8c0 1.1-4.8-.8-6.7-2.6-1.6-1.6-.4-2.7 1.4-1.3.7.7 2.2 1.2 3.3 1.3z"/><path d="M154.924 924.4c-.4 1-.5 2.1-.2 2.4.9.9 1.7-.6 1.3-2.5-.3-1.7-.4-1.7-1.1.1zM157.224 926c0 .5.5 1 1.1 1 .5 0 .7-.5.4-1-.3-.6-.8-1-1.1-1-.2 0-.4.4-.4 1zM151.924 926.6c-.9 1 .4 3.4 1.9 3.4.8 0 1.4-.4 1.4-.9 0-1.2-2.6-3.2-3.3-2.5zM189.924 940.1c-.9 1.7-2 4.8-2.3 7-.7 4.5-1.8 4.8-5.1 1.7-2.3-2.1-2.3-2.1-3.8-.2-.8 1-1.2 2.5-1 3.1.2.7-.2 1.3-1 1.3-1 0-1.5 1-1.5 3.1 0 2.3-.4 3-1.4 2.6-3.2-1.2-5.8 4.9-3.6 8.3.8 1.3 1 1.2 1-.3 0-2 4.5-4.1 7.3-3.3 2.2.5 5-3.4 4.1-5.8-.8-2 .9-2.1 2.5-.2 1.7 2 6.1 2.7 6.1 1 0-.8.9-1.4 2-1.4s2 .4 2 1c0 .5.9 1 2 1s2-.6 2-1.4c0-2-1.7-2.9-2.3-1.4-.6 1.8-1.4.8-2.3-2.6-.6-2.5-.5-2.8 1.3-2.2 1.5.5 2.2.1 2.6-1.4.6-2.5 2.7-2.7 2.7-.3.1 1.4.6 1.2 2.5-1 1.3-1.5 2.7-2.7 3-2.7 3.3.1 3.5 0 2.3-2.6-1-2.1-.9-2.7.2-3.4 1.2-.7 1.2-1.2.3-2.1-1-1-1.8-1-3.5-.1-2.2 1.1-5.5 1.1-11.6-.2-2.3-.5-3-.1-4.5 2.5zm-12.2 18.9c.3.5.1 1-.4 1-.6 0-1.1-.5-1.1-1 0-.6.2-1 .4-1 .3 0 .8.4 1.1 1zM212.424 948.7c.2 1 1 1.8 1.8 1.8s1.6-.8 1.8-1.8c.2-1.2-.3-1.7-1.8-1.7s-2 .5-1.8 1.7zM142.224 1004.8c0 .5.7.9 1.5.9s1.2-.4.9-.9c-.3-.4-.9-.8-1.5-.8-.5 0-.9.4-.9.8zM144.224 1009c0 .5.5 1 1 1 .6 0 1-.5 1-1 0-.6-.4-1-1-1-.5 0-1 .4-1 1zM193.224 1009.9c-7.5 2.7-10 5.2-10 10 0 1.2-.6 2.1-1.4 2.1-1.5 0-3 4.5-2 6.1.3.6-.3.5-1.4-.2-1.6-1-2.3-1-3.6 0-1.6 1.4-4 .6-3-1 .7-1.1-4.3-6.5-5.2-5.6-.4.3.3 2.1 1.5 4 1.1 1.9 2.1 4.2 2.1 5.1 0 3.1 2.9 7.5 4.9 7.3 1.1 0 1.7-.6 1.4-1.4-.3-.7 0-1.3.6-1.3.7 0 1.5-.8 1.8-1.8 1.1-2.9 3-4.2 6-4.2 3.1 0 6.3-4.3 6.3-8.5 0-2.9 2.5-5.6 4.5-4.9.8.4 1.5.1 1.5-.5 0-.8.5-.9 1.9-.2 1.6.9 2 .6 2.5-1.5.4-1.3 1.1-2.2 1.6-1.9.6.3 1 .2 1-.3s-.8-1.2-1.7-1.5c-1-.2-2.5-.7-3.3-1-.8-.2-3.5.3-6 1.2z"/></g></svg>