<?xml version="1.0" standalone="no"?>
<!DOCTYPE svg PUBLIC "-//W3C//DTD SVG 20010904//EN"
 "http://www.w3.org/TR/2001/REC-SVG-20010904/DTD/svg10.dtd">
<svg version="1.0" xmlns="http://www.w3.org/2000/svg"
 width="519.223925pt" height="1037.737504pt" viewBox="0 0 519.223925 1037.737504"
 preserveAspectRatio="xMidYMid meet">
<metadata>
Created by potrace 1.15, written by Peter Selinger 2001-2017
</metadata>
<g transform="translate(-766.776075,1527.000000) scale(0.100000,-0.100000)"
fill="#222222" stroke="none">
<path d="M11081 15226 c2 -29 -4 -53 -18 -72 -11 -16 -23 -41 -27 -56 -4 -19
-11 -26 -21 -22 -8 4 -15 2 -15 -4 0 -6 4 -12 10 -14 5 -2 6 -9 1 -17 -7 -10
-13 -11 -30 -2 -17 10 -21 9 -21 -4 0 -10 -10 -15 -34 -15 -30 0 -35 -4 -51
-45 -13 -37 -14 -49 -5 -61 10 -12 9 -18 -5 -34 -14 -15 -15 -24 -7 -47 6 -15
11 -22 11 -15 2 27 111 8 111 -19 0 -6 9 -22 20 -36 11 -14 20 -39 20 -54 0
-32 -3 -34 -30 -19 -25 13 -50 2 -50 -22 0 -18 -4 -19 -42 -12 -24 4 -49 6
-55 5 -37 -6 -123 1 -139 12 -7 4 -17 0 -24 -9 -7 -8 -19 -13 -27 -10 -7 3
-13 2 -13 -3 0 -15 36 -41 58 -41 26 0 55 -28 48 -46 -8 -22 15 -64 35 -64 10
0 23 -9 29 -20 6 -11 18 -20 27 -20 9 0 25 -7 35 -17 16 -15 18 -15 18 0 0 9
9 21 21 28 16 8 20 18 17 44 -2 19 -1 33 2 33 20 -2 30 4 30 17 0 8 -4 15 -10
15 -13 0 -13 33 0 46 5 5 11 22 12 37 2 28 12 35 24 16 3 -6 2 -14 -3 -18 -7
-4 -4 -19 8 -40 l18 -35 14 33 c8 18 17 32 20 32 4 -1 10 -1 15 -1 4 0 7 24 7
53 0 44 -3 53 -22 62 -13 5 -23 13 -23 16 0 9 30 20 39 14 5 -2 6 7 3 20 -4
22 -1 25 22 25 31 0 50 36 40 76 -5 20 -3 23 11 18 15 -6 16 -4 6 14 -15 28
-14 35 3 29 16 -6 28 16 20 37 -3 7 2 16 11 20 9 3 14 10 10 15 -3 5 -1 12 3
15 11 7 3 54 -10 62 -5 3 -4 11 2 19 9 11 4 20 -19 41 -17 15 -31 33 -31 39 0
12 -32 45 -43 45 -4 0 -6 -20 -6 -44z"/>
<path d="M11600 14846 c-7 -14 -18 -26 -24 -26 -6 0 -17 -10 -24 -21 -12 -19
-20 -21 -63 -15 l-49 7 0 -30 c0 -22 -8 -36 -31 -53 -17 -13 -36 -22 -41 -20
-5 1 -22 -5 -37 -14 -23 -13 -30 -26 -34 -59 -5 -53 -50 -115 -82 -115 -16 0
-25 -9 -34 -37 -7 -21 -11 -49 -9 -63 2 -18 -4 -28 -27 -40 -29 -15 -48 -60
-25 -60 6 0 8 -4 5 -10 -3 -5 -14 -10 -24 -10 -10 0 -26 -11 -35 -25 -9 -14
-12 -25 -6 -25 5 0 10 -8 10 -19 0 -10 7 -24 15 -31 8 -7 13 -16 10 -20 -3 -4
4 -10 15 -13 15 -4 25 3 37 24 10 16 23 27 29 25 7 -3 15 3 19 12 3 9 1 18 -4
20 -6 2 -11 10 -11 17 0 7 -4 15 -10 17 -5 2 -14 17 -19 35 -7 24 -6 33 5 37
8 3 14 -1 14 -8 0 -7 9 -21 20 -31 11 -10 17 -21 15 -25 -3 -5 8 -12 23 -18
22 -7 36 -5 63 9 35 18 77 16 91 -5 7 -10 9 -6 22 38 3 8 14 12 29 9 21 -4 25
0 30 31 7 41 27 66 54 66 10 0 25 13 34 28 13 24 14 34 3 70 -10 34 -9 42 1
42 17 0 25 23 25 76 0 40 2 44 18 35 25 -13 38 -2 44 35 3 22 0 30 -8 27 -16
-6 -26 25 -14 47 11 21 12 66 1 93 -6 17 -8 16 -21 -7z m-328 -416 c3 -16 1
-30 -4 -30 -4 0 -8 14 -8 30 0 17 2 30 4 30 2 0 6 -13 8 -30z m-22 -1 c0 -5
-4 -9 -10 -9 -5 0 -10 7 -10 16 0 8 5 12 10 9 6 -3 10 -10 10 -16z m110 -3 c0
-3 -4 -8 -10 -11 -5 -3 -10 -1 -10 4 0 6 5 11 10 11 6 0 10 -2 10 -4z m-132
-76 c3 -8 0 -10 -8 -5 -10 6 -12 3 -7 -11 7 -19 7 -19 -8 0 -15 20 -11 40 8
33 6 -2 13 -9 15 -17z m32 -60 c0 -19 -1 -19 -20 -3 -14 12 -16 19 -8 24 17
10 28 1 28 -21z m-94 -57 c-8 -8 -36 5 -36 17 0 7 6 7 21 0 11 -7 18 -14 15
-17z"/>
<path d="M11110 14800 c0 -5 -6 -10 -14 -10 -25 0 -28 -19 -7 -46 19 -25 19
-26 1 -80 -11 -30 -15 -52 -10 -49 5 3 15 -4 24 -16 8 -12 29 -30 48 -41 30
-19 32 -19 17 -2 -9 11 -20 26 -24 34 -6 12 -5 13 6 3 7 -7 20 -13 28 -12 11
0 12 2 4 6 -7 2 -13 9 -13 15 0 6 11 3 25 -6 30 -20 45 -20 45 -1 0 8 5 15 10
15 18 0 10 39 -11 54 -14 10 -19 21 -15 32 8 21 -20 54 -45 54 -10 0 -21 9
-24 20 -7 22 -45 48 -45 30z"/>
<path d="M10555 14620 c4 -6 11 -8 16 -5 14 9 11 15 -7 15 -8 0 -12 -5 -9 -10z"/>
<path d="M10640 14495 c-10 -12 -24 -14 -60 -9 -43 6 -49 4 -54 -14 -7 -22
-63 -55 -77 -46 -5 3 -16 -2 -25 -10 -8 -9 -22 -16 -29 -16 -7 0 -26 -11 -42
-24 -15 -13 -52 -29 -82 -36 -43 -10 -55 -18 -65 -41 -9 -21 -15 -26 -23 -18
-15 15 -93 -10 -119 -38 -13 -15 -26 -21 -37 -18 -24 10 -41 -3 -27 -20 7 -8
9 -30 5 -55 -5 -32 -2 -46 14 -67 26 -32 26 -43 2 -43 -21 0 -31 -18 -31 -58
0 -15 -4 -31 -8 -37 -9 -12 -112 -13 -130 -2 -7 5 -31 6 -52 2 -36 -6 -40 -5
-40 14 0 25 -17 28 -24 4 -8 -29 -2 -81 12 -95 19 -19 14 -59 -13 -107 -14
-23 -25 -47 -25 -52 0 -6 -11 -21 -25 -35 -16 -16 -25 -36 -25 -56 0 -28 2
-30 28 -25 23 5 33 0 55 -28 33 -42 34 -55 3 -55 -14 0 -28 -4 -31 -10 -11
-18 -54 -11 -65 10 -6 11 -8 25 -5 30 3 5 1 11 -5 15 -5 3 -10 16 -10 29 0 12
-3 26 -6 29 -9 9 -44 -58 -44 -82 0 -11 -4 -23 -10 -26 -5 -3 -10 -15 -10 -26
0 -16 -5 -19 -20 -14 -14 5 -20 2 -20 -9 0 -9 4 -16 9 -16 11 0 7 -48 -6 -61
-5 -5 -25 -10 -46 -11 -20 -2 -37 -4 -37 -6 0 -2 11 -24 25 -50 25 -47 25 -47
5 -62 -20 -15 -20 -15 0 -47 11 -18 31 -35 47 -39 70 -18 80 -37 41 -78 -20
-22 -23 -36 -8 -36 6 0 10 -9 10 -19 0 -11 5 -23 10 -26 12 -7 3 -46 -13 -56
-5 -4 -1 -15 10 -26 22 -22 23 -67 4 -118 -6 -16 -14 -36 -16 -42 -2 -7 -9
-13 -14 -13 -5 0 -12 -11 -15 -25 -9 -35 -47 -48 -107 -37 l-49 9 0 -43 c0
-41 -2 -44 -27 -45 -16 -1 -34 -1 -42 0 -8 2 -10 -2 -5 -11 6 -11 5 -11 -8 0
-10 8 -26 10 -41 7 -36 -9 -67 3 -67 25 0 11 -10 25 -22 31 -19 10 -24 9 -33
-6 -5 -10 -20 -29 -31 -44 -20 -23 -24 -24 -48 -13 -15 7 -39 9 -54 6 -33 -8
-114 -54 -124 -70 -5 -7 -18 -10 -29 -7 -14 4 -25 0 -31 -11 -9 -16 -19 -17
-80 -11 l-70 7 6 -30 c6 -24 3 -30 -12 -34 -25 -7 -56 -70 -47 -97 5 -17 2
-21 -14 -21 -12 0 -30 -9 -41 -20 -10 -10 -22 -15 -25 -10 -3 5 -20 -7 -39
-26 -18 -19 -40 -34 -48 -34 -9 0 -21 -7 -28 -15 -7 -8 -21 -15 -31 -15 -27 0
-23 -27 8 -56 32 -30 26 -37 -33 -39 -27 0 -49 -7 -54 -15 -7 -12 -10 -12 -16
3 -3 9 -12 17 -20 17 -8 0 -11 -6 -7 -17 7 -20 43 -69 43 -59 0 4 12 -1 27
-11 18 -12 28 -14 30 -6 3 7 11 9 19 6 13 -5 12 -8 -3 -25 -10 -11 -16 -23
-15 -27 2 -3 8 -14 13 -23 6 -11 21 -18 39 -18 39 0 39 -21 0 -39 -23 -10 -28
-16 -20 -26 7 -9 6 -16 -5 -25 -8 -7 -15 -19 -15 -26 0 -8 -5 -14 -11 -14 -5
0 -8 -4 -4 -9 3 -5 1 -12 -4 -15 -5 -3 -7 -14 -4 -24 7 -28 -19 -44 -52 -32
-15 6 -29 9 -32 7 -6 -6 18 -111 29 -124 14 -17 -12 -53 -44 -60 -18 -3 -28
-12 -28 -23 0 -16 -39 -60 -54 -60 -4 0 -14 7 -22 15 -9 8 -20 15 -25 15 -12
0 -12 -37 1 -45 6 -3 10 -13 10 -22 0 -11 -6 -14 -21 -10 -24 6 -54 -17 -44
-33 3 -5 14 -10 24 -10 10 0 25 -8 33 -17 13 -16 13 -22 2 -50 -8 -18 -23 -37
-35 -43 -15 -8 -19 -18 -15 -34 4 -15 -1 -26 -13 -35 -24 -17 -17 -42 17 -65
26 -17 41 -66 20 -66 -5 0 -2 -10 6 -22 22 -31 20 -58 -3 -58 -27 0 -33 -13
-17 -36 8 -10 12 -24 9 -31 -3 -7 0 -13 7 -13 6 0 8 5 5 10 -15 23 17 7 48
-25 21 -21 44 -35 59 -35 30 0 48 -17 48 -46 0 -13 5 -26 10 -29 6 -3 10 -17
10 -31 0 -14 4 -22 10 -19 5 3 34 -1 64 -9 50 -13 56 -12 70 3 9 10 16 23 16
29 0 15 17 16 25 2 12 -19 27 2 20 28 -4 16 -1 28 7 34 10 7 9 12 -6 23 -19
14 -19 15 0 36 18 20 18 21 0 18 -10 -2 -21 2 -23 9 -3 7 4 12 17 12 18 0 19
3 10 20 -12 23 -1 26 31 9 20 -10 20 -11 2 -24 -12 -10 -14 -14 -4 -15 11 0
11 -3 1 -15 -10 -12 -10 -19 -2 -27 16 -16 42 8 39 35 -1 16 4 22 18 22 11 1
23 -4 27 -10 5 -6 12 -3 21 9 8 11 19 16 25 12 7 -4 12 -3 12 3 0 5 3 16 6 25
4 11 1 16 -10 16 -11 0 -16 9 -16 30 0 20 -5 30 -15 30 -11 0 -12 5 -5 24 5
13 7 52 4 86 -5 66 12 105 41 94 7 -3 15 4 18 15 3 12 11 21 17 21 8 0 9 -6 4
-17 -4 -10 -7 -55 -6 -101 1 -46 -3 -95 -9 -109 -6 -17 -6 -30 1 -38 6 -7 8
-19 5 -27 -3 -8 1 -21 10 -28 8 -7 15 -21 15 -31 0 -10 9 -20 19 -24 13 -4 18
-12 14 -21 -3 -8 -12 -13 -20 -9 -12 4 -14 -2 -9 -32 16 -97 14 -145 -8 -179
-11 -18 -30 -36 -41 -40 -28 -9 -34 -21 -41 -86 -4 -32 -11 -58 -15 -58 -5 0
-9 -9 -9 -19 0 -11 -4 -23 -10 -26 -5 -3 -10 -16 -10 -29 0 -12 -5 -27 -10
-32 -8 -8 -7 -19 1 -37 10 -23 9 -32 -15 -67 -14 -22 -26 -48 -26 -57 0 -10
-9 -24 -20 -31 -12 -7 -18 -17 -14 -23 3 -6 -2 -19 -11 -29 -9 -10 -18 -30
-19 -43 0 -14 -4 -23 -8 -20 -5 2 -8 -14 -8 -36 0 -30 4 -41 15 -41 8 0 15 -9
15 -19 0 -11 6 -21 13 -23 8 -3 12 -32 13 -96 0 -80 -2 -92 -17 -92 -9 0 -27
-8 -40 -19 l-23 -19 19 -37 c11 -21 42 -54 68 -73 26 -19 46 -40 44 -46 -6
-16 25 -53 49 -58 24 -4 47 -71 40 -115 -2 -18 -1 -33 4 -33 12 0 18 -93 6
-109 -12 -15 16 -41 45 -41 20 0 35 -17 41 -45 2 -13 11 -20 28 -21 27 0 97
-31 106 -46 3 -5 0 -15 -6 -23 -7 -8 -10 -26 -8 -40 3 -16 1 -25 -7 -25 -14 0
-25 -22 -25 -50 0 -10 -9 -25 -20 -33 -11 -8 -17 -17 -13 -20 3 -4 -1 -30 -10
-59 -9 -29 -15 -62 -14 -73 3 -32 -28 -28 -66 8 -27 25 -38 30 -42 19 -3 -7
-3 -18 1 -23 3 -5 0 -9 -6 -9 -6 0 -14 8 -17 18 -13 33 -43 43 -43 13 0 -11
-9 -22 -19 -26 -12 -4 -20 -17 -23 -40 -2 -19 -1 -35 4 -35 4 0 5 -6 2 -14 -3
-8 -1 -23 4 -33 12 -22 -3 -46 -31 -51 -15 -3 -17 1 -12 17 5 18 4 18 -18 8
-15 -7 -23 -17 -19 -26 4 -10 1 -13 -11 -8 -9 3 -17 2 -17 -3 0 -6 -7 -10 -15
-10 -9 0 -18 -6 -21 -14 -6 -16 -42 -18 -61 -3 -9 7 -9 13 0 28 10 16 8 23
-17 44 -20 17 -32 22 -36 14 -4 -6 -10 -10 -14 -10 -19 3 -25 -1 -31 -21 -6
-16 -1 -26 16 -39 22 -17 23 -18 6 -37 -21 -23 -21 -39 -2 -75 11 -22 12 -34
4 -49 -6 -11 -14 -17 -18 -12 -3 5 -23 10 -44 11 -32 1 -40 -3 -49 -23 -13
-28 -30 -31 -53 -7 -41 40 -125 11 -125 -43 0 -21 3 -22 26 -14 22 9 25 8 20
-6 -3 -8 -6 -17 -6 -20 0 -2 -6 -1 -14 2 -8 3 -19 -3 -25 -14 -13 -25 -52 -35
-87 -22 -18 7 -30 7 -40 -1 -7 -6 -21 -8 -31 -5 -13 4 -25 -5 -43 -30 -41 -59
-61 -74 -86 -68 -19 5 -24 1 -30 -20 -3 -14 -11 -24 -18 -23 -10 2 -11 -41 -1
-52 3 -2 22 1 42 7 20 6 42 8 47 3 6 -4 21 -11 33 -13 17 -5 24 0 32 23 5 16
14 29 19 29 15 0 21 37 9 49 -8 8 -5 11 11 11 12 0 22 -4 22 -10 0 -5 9 -10
20 -10 13 0 18 5 14 15 -4 8 -1 15 5 15 6 0 8 6 5 14 -3 9 6 17 25 24 38 13
41 -1 6 -24 -14 -9 -24 -21 -22 -27 4 -13 87 -38 87 -26 0 15 22 10 42 -8 17
-15 20 -15 28 -3 8 13 12 12 25 -5 12 -14 18 -16 21 -7 3 6 23 12 43 12 48 0
70 -24 77 -80 4 -36 3 -42 -11 -36 -28 11 -7 -16 87 -112 24 -23 55 -45 71
-49 33 -7 42 -19 42 -58 0 -27 4 -30 30 -30 17 0 33 4 36 9 19 25 129 -175
115 -210 -5 -14 98 -84 124 -84 11 0 15 -11 15 -40 1 -41 26 -73 52 -63 9 3
10 -5 6 -31 -5 -30 -3 -36 13 -38 11 0 24 -2 29 -3 6 -2 16 -3 24 -4 10 -1 11
-4 2 -15 -8 -10 -8 -16 1 -24 17 -13 58 3 58 23 0 9 4 13 10 10 5 -3 26 -2 45
4 28 7 35 7 35 -4 0 -19 34 -37 54 -29 20 8 34 -25 16 -36 -9 -5 -6 -11 9 -22
21 -15 55 -114 44 -131 -2 -4 0 -13 5 -20 5 -7 12 -30 15 -51 7 -42 -9 -65
-46 -66 -10 0 -30 -13 -44 -30 -13 -17 -33 -30 -43 -30 -10 0 -20 -7 -24 -15
-3 -8 -11 -15 -18 -15 -17 0 -78 -55 -78 -71 0 -7 -9 -9 -23 -5 -17 4 -25 0
-32 -17 -6 -13 -29 -29 -60 -40 -27 -10 -64 -24 -82 -32 -40 -19 -62 -19 -69
0 -5 11 -11 12 -24 5 -12 -7 -28 -7 -45 0 -40 15 -45 13 -45 -22 0 -47 -19
-110 -31 -102 -13 7 -38 -25 -39 -48 0 -11 -8 -18 -19 -18 -11 0 -34 -14 -51
-31 -36 -37 -34 -64 5 -56 14 2 28 0 31 -5 3 -4 17 5 32 22 24 27 27 28 44 14
24 -23 68 -11 68 18 0 20 1 20 18 5 10 -10 22 -17 27 -17 5 0 16 -7 26 -16 13
-12 22 -13 37 -5 16 9 26 2 67 -45 36 -42 53 -54 67 -50 11 2 28 1 37 -3 42
-21 116 -39 126 -31 21 17 73 15 94 -4 12 -11 21 -14 21 -8 0 8 7 9 26 2 14
-6 36 -10 50 -10 24 0 29 -4 85 -72 17 -21 35 -35 40 -33 5 3 22 -4 38 -16 20
-15 35 -19 48 -14 10 5 22 7 27 6 4 -1 13 5 20 13 13 17 53 5 62 -19 4 -8 14
-15 23 -15 13 0 16 9 14 52 -3 46 -1 50 9 30 13 -26 32 -24 34 4 1 10 3 24 4
29 1 6 2 13 1 18 0 4 6 7 14 7 9 0 15 9 15 25 0 18 4 23 15 19 8 -4 15 -1 15
6 0 9 10 10 33 5 17 -3 37 -8 44 -9 21 -4 27 -15 33 -70 l6 -54 -40 6 -40 5
17 -26 c22 -34 22 -76 0 -94 -17 -13 -16 -14 4 -8 19 5 22 3 16 -11 -4 -12 -3
-15 5 -10 7 4 12 1 12 -7 0 -8 -7 -18 -15 -21 -13 -5 -14 -10 -5 -26 9 -16 8
-25 -1 -36 -9 -11 -9 -17 1 -29 6 -8 17 -13 23 -12 7 1 19 -13 27 -30 22 -48
52 -43 112 17 49 49 88 65 88 35 0 -9 -6 -12 -17 -8 -15 5 -16 3 -5 -8 17 -18
15 -27 -8 -34 -17 -5 -20 -14 -18 -43 2 -30 -1 -37 -17 -40 -11 -2 -24 -10
-28 -18 -4 -8 -15 -14 -24 -14 -9 0 -13 -6 -9 -15 4 -10 -1 -15 -14 -15 -11 0
-20 -4 -20 -10 0 -5 0 -13 0 -17 0 -14 56 -8 79 9 13 10 29 18 37 18 7 0 15 6
17 13 3 6 6 2 6 -10 1 -26 41 -59 52 -42 3 6 9 11 12 11 20 0 46 12 42 19 -3
4 10 5 29 2 32 -5 34 -4 29 16 -7 27 13 27 27 0 11 -19 13 -19 29 -5 10 9 21
13 25 9 4 -4 11 -1 16 7 7 11 11 11 24 1 13 -11 17 -11 22 2 3 8 16 18 30 21
13 4 43 25 65 47 22 22 49 41 59 42 20 1 34 36 24 61 -3 9 -3 24 1 34 19 43
15 74 -10 94 -14 11 -25 26 -25 34 0 8 -16 38 -35 66 -37 56 -37 73 3 65 14
-3 33 0 43 6 12 8 25 5 51 -11 20 -12 47 -22 62 -22 14 0 26 -5 26 -11 0 -17
80 -89 99 -89 9 0 22 -5 29 -12 9 -9 17 -9 35 1 20 11 29 10 54 -2 19 -10 34
-12 44 -6 8 5 34 9 59 9 25 0 56 7 68 16 12 8 22 12 22 8 0 -3 7 -1 14 6 8 6
28 10 43 9 35 -4 54 7 46 26 -7 19 23 65 42 65 9 0 15 10 15 25 0 18 -5 25
-19 25 -29 0 -70 38 -79 73 -7 28 -13 32 -43 33 -72 3 -79 4 -79 17 0 8 -11
19 -25 25 -21 10 -25 18 -25 53 0 25 -7 50 -16 60 -15 17 -15 20 1 45 11 17
15 36 11 56 -4 23 -2 28 10 26 9 -2 20 7 25 19 6 17 4 23 -12 28 -23 8 -24 15
-4 41 14 18 14 18 15 -7 0 -14 3 -29 7 -32 9 -9 13 -127 5 -127 -4 0 -13 -9
-20 -20 -15 -25 0 -62 22 -54 8 3 17 1 20 -5 4 -6 13 -8 21 -5 8 4 18 -1 21
-10 3 -9 15 -16 26 -16 27 0 58 -18 58 -35 0 -7 9 -17 20 -20 11 -3 20 -12 20
-19 0 -8 6 -19 14 -25 11 -9 17 -8 29 4 14 13 19 13 49 -3 18 -9 35 -20 36
-24 2 -5 12 -8 23 -8 10 0 19 -7 19 -15 0 -8 5 -15 11 -15 8 0 7 -5 -1 -15
-15 -19 -1 -39 21 -30 18 7 39 52 33 70 -7 18 23 63 47 70 27 9 15 50 -28 98
-21 24 -33 46 -31 60 2 13 -8 33 -24 51 -15 16 -28 43 -30 60 -2 24 -8 32 -28
34 -14 2 -36 14 -50 26 -33 28 -82 54 -95 50 -6 -3 -16 16 -23 41 -16 59 -15
63 7 70 10 3 22 16 26 28 6 20 7 21 14 4 6 -17 8 -17 20 -3 11 13 11 20 -4 43
-17 26 -18 26 -31 7 -31 -43 -53 -64 -59 -54 -3 5 -3 15 0 20 8 12 -15 13 -34
1 -16 -10 -66 16 -98 51 -23 26 -27 62 -6 54 24 -10 14 23 -13 41 -25 16 -27
16 -40 -2 -8 -10 -14 -27 -14 -36 0 -11 -9 -19 -22 -21 -15 -2 -24 -11 -26
-25 -4 -29 -17 -29 -36 -1 -22 31 -21 33 21 35 39 2 54 16 50 47 -1 14 6 22
23 26 21 5 26 14 32 55 4 27 3 56 -3 67 -7 13 -6 18 3 18 18 0 33 -13 35 -30
1 -8 6 -31 11 -50 6 -26 5 -39 -4 -47 -13 -13 -8 -49 9 -60 7 -4 8 0 4 12 -6
14 -3 16 12 12 11 -3 22 0 23 5 3 8 11 7 25 0 17 -9 24 -7 43 13 25 27 40 25
40 -6 0 -11 14 -34 31 -51 16 -17 33 -43 36 -59 5 -26 7 -27 22 -12 15 15 17
14 26 -21 6 -20 17 -41 25 -46 10 -7 11 -10 3 -10 -7 0 -13 -6 -13 -12 0 -24
17 -39 52 -47 29 -7 38 -5 49 10 7 11 21 19 31 19 10 0 18 7 18 15 0 9 6 12
17 8 13 -5 15 -2 10 11 -4 10 -7 20 -7 22 0 2 -7 4 -16 4 -8 0 -12 4 -9 10 3
5 3 25 -1 44 -4 26 -13 37 -34 45 -16 5 -34 19 -40 31 -6 12 -17 19 -25 16
-14 -5 -41 21 -70 66 -22 36 -12 64 31 80 25 9 39 23 51 51 14 31 22 38 40 34
19 -3 23 0 23 20 0 16 7 27 20 30 13 4 20 14 20 29 0 14 7 27 15 30 8 4 15 13
15 22 0 25 33 122 41 122 5 0 12 -7 17 -16 8 -15 11 -15 29 3 14 14 26 17 40
12 28 -10 38 24 17 56 -10 16 -12 25 -4 30 7 4 3 16 -10 35 -18 26 -19 30 -5
38 15 8 15 10 1 21 -18 15 -6 46 25 69 10 7 16 19 13 27 -7 18 0 19 27 5 25
-14 57 3 69 36 8 20 16 24 52 24 46 1 78 18 78 42 0 9 19 32 41 53 33 30 47
36 69 31 19 -3 30 -1 34 9 3 8 12 15 21 15 8 0 15 7 15 15 0 9 6 12 15 9 23
-9 65 5 65 21 0 9 9 15 24 15 20 0 25 6 28 38 3 22 -1 46 -10 60 -13 21 -13
22 11 22 38 0 70 45 62 90 -3 22 0 45 9 62 8 15 11 30 6 33 -13 8 0 35 16 35
15 0 18 32 5 64 -6 15 2 29 31 59 21 22 38 46 38 54 0 9 6 13 14 10 20 -8 37
36 26 72 -7 26 -5 31 13 37 12 4 25 12 29 18 14 21 8 63 -13 90 -16 20 -17 26
-6 26 10 0 13 7 10 20 -3 13 0 20 8 20 8 0 20 9 27 20 7 11 19 20 26 20 22 0
28 17 16 40 -9 16 -8 20 5 20 8 0 15 6 15 13 0 8 9 22 20 32 11 10 20 28 20
41 0 12 5 24 11 26 8 3 6 14 -5 36 -9 18 -21 30 -26 27 -4 -3 -11 1 -13 7 -4
10 -6 10 -6 1 -1 -7 -5 -13 -10 -13 -15 0 -18 33 -4 60 11 21 10 27 -10 48
-12 14 -45 41 -72 62 -68 50 -82 100 -61 210 6 32 4 37 -24 52 -19 11 -39 35
-50 62 -25 55 -46 65 -55 26 l-7 -30 -85 1 c-46 0 -87 -2 -90 -5 -4 -3 -12 -1
-20 6 -11 9 -17 6 -29 -10 -18 -26 -70 -31 -60 -7 9 25 -3 43 -27 37 -12 -3
-19 -1 -15 3 4 5 3 14 -3 22 -6 7 -8 13 -3 13 5 0 3 4 -5 9 -8 5 -14 23 -13
40 1 39 -30 115 -36 89 -4 -21 -10 -22 -37 -5 -46 27 -85 62 -85 75 0 16 -25
43 -33 36 -12 -12 -47 18 -47 40 0 13 -9 31 -20 41 -24 21 -26 40 -5 31 8 -3
15 0 15 7 0 8 4 7 10 -3 6 -9 5 -17 -2 -21 -6 -4 -7 -9 0 -13 5 -3 15 1 22 9
6 7 18 11 26 8 8 -3 2 8 -13 25 -56 60 -56 59 -23 82 26 19 30 27 30 70 0 27
8 69 17 92 12 29 13 43 5 46 -6 2 -8 11 -5 20 4 13 3 14 -5 3 -13 -18 -33 -5
-25 16 4 10 2 14 -4 10 -10 -6 -41 22 -58 52 -6 10 0 12 26 7 30 -5 32 -5 12
6 -13 6 -23 20 -23 31 0 31 -39 86 -65 93 -13 3 -31 17 -40 30 -8 13 -25 24
-36 24 -17 0 -20 5 -17 25 4 21 3 23 -13 14 -11 -5 -19 -15 -19 -21 0 -6 -6
-5 -16 3 -9 7 -29 12 -44 11 -20 -2 -34 5 -54 28 -14 17 -26 40 -26 50 0 9 -7
23 -16 30 -12 11 -44 72 -44 85 0 1 10 0 23 -2 16 -3 26 2 36 19 11 21 10 29
-9 61 -12 20 -26 37 -31 37 -5 0 -9 5 -9 11 0 5 4 7 10 4 5 -3 28 -1 50 5 30
8 40 16 38 28 -2 9 -13 18 -26 20 -12 2 -27 12 -32 23 -6 10 -32 31 -59 46
-49 29 -57 53 -16 53 30 0 35 8 37 61 l1 42 29 -32 c16 -18 27 -39 24 -46 -7
-18 18 -25 76 -23 32 2 53 -3 66 -15 22 -20 32 -22 32 -4 0 27 25 67 39 62 9
-4 11 0 5 12 -4 10 -9 35 -12 56 -3 31 -1 37 14 38 11 0 30 14 43 30 l23 30
-26 -7 c-23 -5 -26 -3 -24 17 2 14 -2 23 -9 22 -7 -2 -35 19 -64 45 -46 43
-51 50 -40 69 14 27 14 70 1 78 -16 10 -12 23 10 30 11 3 20 15 20 26 0 21 8
23 29 10 20 -13 41 -2 41 19 0 10 6 20 14 23 22 9 29 72 12 106 -9 16 -18 46
-21 67 -5 34 -2 41 21 58 22 15 28 16 35 5 6 -10 11 -11 20 -2 8 8 8 20 0 46
-7 20 -9 52 -6 71 7 36 -17 93 -28 64 -7 -18 -82 25 -81 46 1 9 -2 16 -6 16
-13 0 -70 51 -70 62 0 6 7 8 15 5 24 -10 27 11 8 45 -10 18 -21 35 -24 38 -20
17 -26 45 -16 76 9 29 6 42 -29 111 -21 43 -39 83 -39 90 0 7 -6 18 -13 25
-14 14 -16 38 -3 38 5 0 28 -8 52 -19 58 -25 146 -36 165 -20 8 6 24 9 36 6
23 -6 67 21 61 39 -2 5 6 20 17 32 23 24 78 30 98 10 10 -10 16 -7 28 10 8 12
23 22 32 22 25 1 52 24 52 46 1 21 33 64 48 64 5 0 12 -7 16 -15 3 -8 12 -15
21 -15 8 0 15 -9 15 -20 0 -11 -6 -19 -12 -18 -7 2 -13 -6 -13 -18 0 -11 -6
-28 -13 -37 -11 -13 -10 -16 7 -22 12 -3 21 -13 21 -21 0 -26 60 24 66 55 4
20 12 27 27 27 18 -1 23 6 27 39 4 30 7 35 13 22 4 -10 7 -29 7 -42 0 -12 7
-28 15 -35 23 -19 15 -54 -13 -58 -17 -3 -22 -8 -18 -19 7 -18 -14 -83 -26
-83 -4 0 -8 -7 -8 -15 0 -8 -4 -15 -9 -15 -5 0 -32 -25 -62 -55 -29 -30 -61
-55 -71 -55 -21 0 -30 -13 -22 -34 7 -18 77 -42 112 -38 12 2 22 -2 22 -8 0
-5 9 -10 20 -10 11 0 20 5 20 11 0 5 16 -2 36 -17 25 -20 32 -29 22 -35 -10
-6 -10 -11 -1 -20 9 -9 18 -8 37 4 27 18 41 9 41 -28 0 -11 17 -30 42 -48 36
-23 46 -26 64 -17 13 8 39 9 66 5 31 -4 43 -3 38 4 -3 6 -14 11 -24 11 -19 0
-38 18 -56 54 -6 11 -18 20 -27 18 -19 -3 -43 24 -29 32 5 3 21 2 36 -4 39
-15 55 -12 55 10 0 15 7 20 25 20 22 0 24 3 19 30 -8 36 13 41 41 10 16 -18
20 -18 34 -6 14 13 21 10 59 -25 45 -40 66 -52 40 -21 -13 15 -13 21 -2 50 9
20 21 32 33 32 29 0 38 40 15 60 -22 19 -54 75 -54 96 0 8 12 20 27 27 22 10
28 9 37 -7 22 -36 48 -66 58 -66 5 0 7 7 4 16 -4 12 -1 14 14 9 11 -4 20 -2
20 4 0 6 -12 11 -26 11 -14 0 -23 4 -19 10 3 6 22 10 41 10 27 0 34 4 34 20 0
11 5 20 10 20 6 0 10 -5 10 -11 0 -5 5 -7 11 -3 7 4 9 -1 7 -12 -2 -11 -11
-18 -18 -16 -11 3 -10 -1 3 -16 9 -10 15 -21 12 -23 -2 -3 9 -21 26 -40 48
-56 50 -59 44 -69 -4 -6 8 -18 24 -28 17 -9 34 -25 37 -36 9 -28 24 -4 16 26
-4 15 -22 39 -41 53 -21 15 -29 25 -19 25 18 0 28 37 20 75 -2 15 -11 25 -22
25 -10 0 -23 13 -30 30 -7 16 -27 38 -46 49 -19 11 -34 24 -34 30 0 15 -66 41
-103 41 -20 0 -38 4 -42 10 -3 5 -14 2 -25 -7 -13 -11 -16 -19 -9 -24 7 -4 9
-12 5 -18 -4 -6 -3 -19 3 -29 5 -10 6 -23 3 -30 -5 -6 -19 10 -36 41 -33 58
-66 104 -66 91 0 -5 -7 2 -16 14 -8 12 -23 22 -33 22 -10 0 -24 6 -30 13 -16
20 -81 185 -81 208 0 10 -6 28 -12 39 -10 16 -10 24 0 41 11 17 11 24 -1 37
-8 10 -21 36 -27 59 -7 23 -16 40 -20 38 -4 -3 -15 6 -24 20 -9 14 -14 25 -11
25 3 0 1 9 -5 21 -7 11 -14 18 -17 16 -7 -8 -40 28 -48 52 -4 12 -18 33 -32
47 -21 21 -24 32 -20 60 3 19 2 34 -3 34 -13 0 -28 54 -23 81 5 26 5 26 -62
31 -20 2 -33 10 -40 26 -5 12 -14 22 -20 22 -5 1 1 7 15 15 l25 13 -27 11
c-29 11 -91 0 -70 -13 17 -10 16 -50 -2 -43 -7 3 -31 2 -52 -3 -21 -5 -43 -6
-48 -2 -23 15 -75 29 -83 23 -19 -16 -87 -33 -91 -23 -1 5 -12 7 -24 4 -18 -4
-20 -2 -13 26 7 36 -2 75 -16 67 -5 -4 -9 -17 -9 -30 0 -36 -10 -55 -29 -55
-16 0 -49 -29 -65 -57 -5 -9 -2 -11 11 -6 10 3 15 3 11 -2 -4 -4 2 -24 13 -43
23 -44 24 -62 3 -62 -8 0 -13 -4 -10 -9 4 -5 0 -12 -6 -14 -9 -4 -7 -6 3 -6
16 -1 49 -31 49 -46 0 -4 -7 -2 -15 5 -13 11 -19 9 -38 -7 -32 -29 -72 -17
-73 22 0 17 4 42 10 57 12 32 -6 74 -35 81 -10 3 -26 21 -35 40 -10 20 -22 33
-29 31 -7 -3 -22 7 -34 22 -11 15 -32 28 -45 29 -14 2 -30 6 -36 10 -7 4 -30
-1 -52 -11 -34 -15 -41 -16 -49 -3 -11 17 -12 32 -1 26 4 -3 7 8 8 24 1 16 11
40 23 53 14 15 19 26 12 31 -6 3 -16 15 -21 25 -8 15 -7 18 3 14 24 -9 28 36
7 75 -10 20 -20 58 -23 83 -3 26 -8 51 -11 57 -4 6 -9 21 -11 33 -9 48 -85 88
-99 52 -5 -14 -9 -13 -31 5 -14 11 -39 22 -55 26 -22 5 -36 20 -60 61 -17 30
-28 59 -25 64 3 5 1 11 -5 15 -17 10 -11 25 7 18 12 -5 15 -2 10 10 -4 10 -1
17 6 18 14 0 -72 29 -89 29 -6 0 -17 -7 -24 -15z m-777 -571 c12 -13 -6 -34
-24 -29 -14 5 -19 1 -19 -11 0 -13 -3 -15 -11 -7 -8 8 -8 17 0 32 11 20 41 28
54 15z m1684 -220 c19 -18 17 -48 -3 -40 -9 3 -20 6 -25 6 -4 0 -6 7 -3 15 4
10 0 15 -14 15 -12 0 -23 4 -27 9 -8 14 58 10 72 -5z m440 -1066 c-3 -8 -6 -5
-6 6 -1 11 2 17 5 13 3 -3 4 -12 1 -19z m-5 -33 c9 -15 8 -17 -6 -12 -9 4 -16
2 -16 -3 0 -6 -9 -10 -20 -10 -11 0 -20 4 -20 9 0 5 -2 16 -5 23 -9 23 55 16
67 -7z m-3338 -544 c3 -4 0 -20 -7 -35 -9 -20 -17 -25 -32 -21 -11 2 -26 5
-32 5 -7 0 -13 5 -13 11 0 6 6 9 13 6 18 -6 47 11 47 28 0 16 16 20 24 6z
m2376 -823 c0 -5 -7 -8 -15 -8 -17 0 -18 2 -9 25 5 13 8 14 15 3 5 -7 9 -16 9
-20z m-1982 -2528 c3 -8 1 -12 -3 -7 -5 4 -19 0 -32 -8 -14 -9 -33 -13 -48 -9
-30 7 -33 24 -4 24 12 0 17 4 14 11 -5 7 6 9 31 7 22 -2 39 -9 42 -18z m-140
-46 c-4 -3 -12 5 -18 18 -12 22 -12 22 6 6 10 -10 15 -20 12 -24z m12 -54 c0
-11 -2 -20 -5 -20 -2 0 -9 9 -15 20 -9 16 -8 20 5 20 8 0 15 -9 15 -20z m-145
-11 c4 -12 12 -18 21 -15 8 3 14 1 14 -4 0 -6 9 -5 20 2 11 7 18 19 15 25 -2
7 0 13 6 13 12 0 74 -49 74 -59 1 -3 11 -25 24 -49 19 -37 20 -46 9 -60 -11
-14 -10 -15 7 -8 32 12 39 12 41 -1 1 -7 3 -16 4 -20 6 -19 5 -39 -3 -56 -5
-11 -4 -24 4 -33 9 -11 8 -14 -4 -14 -13 0 -11 -9 10 -45 14 -25 23 -52 20
-59 -3 -8 1 -17 10 -21 13 -4 14 -8 5 -17 -9 -9 -19 -8 -41 5 l-29 17 -36 -42
-37 -42 -43 24 c-24 13 -51 20 -60 17 -9 -4 -16 -2 -16 3 0 6 -8 10 -17 11
-14 0 -13 2 5 9 12 5 29 7 37 4 19 -8 20 16 1 41 -11 16 -16 17 -29 7 -9 -7
-21 -12 -29 -11 -7 1 -26 -1 -42 -6 -23 -6 -32 -4 -42 10 -12 16 -14 15 -20
-9 -3 -14 -10 -23 -15 -20 -5 3 -9 -4 -9 -15 0 -30 -11 -51 -27 -51 -10 0 -11
-5 -5 -16 6 -10 5 -25 -2 -40 -18 -40 -96 -23 -96 20 0 3 11 1 25 -4 20 -8 27
-6 35 10 6 11 6 21 1 24 -11 7 16 66 30 66 5 0 9 6 9 13 0 8 11 24 25 37 21
19 24 30 19 53 -4 21 -3 27 6 22 6 -4 20 2 31 14 11 12 23 21 27 21 4 0 13 23
20 52 10 42 9 54 0 59 -41 24 -53 38 -41 50 7 7 9 24 6 39 -4 25 -2 29 26 35
17 4 31 13 31 21 0 21 18 17 25 -7z m-721 -324 c-4 -8 -11 -15 -16 -15 -6 0
-5 6 2 15 7 8 14 15 16 15 2 0 1 -7 -2 -15z m2909 -454 c-3 -12 -16 -21 -34
-23 -35 -5 -37 4 -5 21 17 9 22 19 19 35 -4 20 -4 20 10 3 8 -10 13 -26 10
-36z m-82 -30 c-13 -8 -8 -58 7 -73 15 -15 16 -32 2 -23 -5 3 -10 -3 -10 -14
0 -10 -3 -27 -6 -36 -6 -14 -8 -14 -25 1 -21 18 -26 64 -8 64 6 0 9 6 6 14 -3
7 0 19 6 25 9 10 9 12 -2 9 -13 -3 -24 28 -16 43 3 3 16 4 31 1 14 -2 21 -8
15 -11z m109 9 c0 -5 -4 -10 -10 -10 -5 0 -10 5 -10 10 0 6 5 10 10 10 6 0 10
-4 10 -10z m35 -40 c3 -5 1 -10 -4 -10 -6 0 -11 5 -11 10 0 6 2 10 4 10 3 0 8
-4 11 -10z m-149 -237 c2 -15 -1 -32 -6 -38 -5 -6 -5 -17 0 -25 12 -18 13 -30
2 -30 -14 0 -43 58 -32 65 5 3 10 16 10 29 0 45 21 44 26 -1z m169 7 c18 -17
27 -19 49 -11 22 9 30 7 46 -9 11 -11 32 -20 46 -20 32 0 67 -39 52 -58 -6 -7
-8 -29 -3 -55 12 -73 11 -92 -5 -92 -29 0 -70 -37 -70 -62 0 -23 -3 -24 -32
-17 -57 12 -99 53 -90 87 4 15 -19 47 -34 47 -8 0 -13 4 -10 9 3 5 -5 12 -19
15 -14 4 -25 11 -25 16 0 5 -8 17 -18 27 -10 10 -23 30 -30 46 -10 24 -10 27
8 27 11 0 20 5 20 10 0 6 8 14 18 17 9 4 28 15 41 25 29 22 30 22 56 -2z
m-135 -161 c0 -5 -4 -9 -10 -9 -5 0 -10 7 -10 16 0 8 5 12 10 9 6 -3 10 -10
10 -16z m250 -209 c0 -5 -9 -10 -21 -10 -11 0 -17 5 -14 10 3 6 13 10 21 10 8
0 14 -4 14 -10z m-369 -182 c2 -30 8 -48 34 -86 15 -23 31 -39 36 -36 5 3 12
-3 16 -13 3 -10 13 -26 21 -35 14 -16 13 -18 -9 -18 -32 0 -76 30 -59 40 8 5
0 12 -23 21 -37 13 -52 40 -34 58 7 7 7 14 -1 23 -7 8 -7 19 -2 28 5 8 6 18 4
22 -3 4 0 8 5 8 6 0 11 -6 12 -12z m-1345 -62 c10 -8 17 -17 14 -19 -3 -3 -16
3 -30 13 -29 22 -14 27 16 6z m-171 -16 c3 -5 1 -10 -4 -10 -6 0 -11 5 -11 10
0 6 2 10 4 10 3 0 8 -4 11 -10z m413 -175 c16 -35 15 -37 -8 -25 -11 6 -20 20
-20 30 0 28 15 25 28 -5z m-108 -150 c7 -8 18 -15 26 -15 14 0 19 -13 30 -72
3 -22 12 -38 20 -38 27 0 21 -15 -7 -17 -18 -1 -29 3 -29 11 0 9 -9 12 -25 8
-14 -2 -25 -11 -25 -18 0 -20 -19 -17 -27 4 -4 9 -13 21 -21 26 -13 8 -13 11
3 22 14 10 17 22 12 53 -5 37 0 47 24 50 4 1 12 -6 19 -14z m91 -58 c-1 -4 -1
-15 -1 -24 -1 -17 -2 -16 -15 1 -8 10 -12 23 -9 28 7 10 26 6 25 -5z m145
-372 c19 -15 19 -15 -2 -33 -11 -9 -19 -23 -16 -30 7 -23 -8 -12 -18 12 -9 24
-3 66 9 66 4 0 16 -7 27 -15z"/>
<path d="M11476 14228 c-17 -76 -17 -75 94 -129 50 -24 99 -74 100 -101 0 -11
8 -18 20 -18 22 0 22 -1 24 -72 2 -58 17 -78 46 -60 11 7 31 10 44 6 16 -4 25
-1 29 10 4 9 15 16 26 16 10 0 21 7 24 14 7 18 -54 59 -80 54 -13 -2 -19 4
-21 22 -2 19 -15 32 -50 50 -26 14 -49 28 -52 31 -3 3 -15 11 -27 18 -13 6
-23 18 -23 25 0 15 -64 76 -80 76 -5 0 -10 12 -10 26 0 19 -4 25 -15 20 -11
-4 -15 0 -13 11 5 28 -30 28 -36 1z"/>
<path d="M11418 14233 c6 -2 18 -2 25 0 6 3 1 5 -13 5 -14 0 -19 -2 -12 -5z"/>
<path d="M9958 14223 c7 -3 16 -2 19 1 4 3 -2 6 -13 5 -11 0 -14 -3 -6 -6z"/>
<path d="M11286 14205 c-6 -17 -56 -17 -68 0 -5 6 -8 6 -8 -2 0 -6 13 -20 29
-29 16 -10 37 -36 47 -58 10 -23 26 -49 37 -60 10 -10 17 -27 14 -37 -6 -21
76 -103 96 -96 21 6 21 67 0 82 -10 7 -15 17 -10 21 4 4 0 18 -9 32 -13 20
-14 26 -3 33 11 6 10 12 -5 27 -10 12 -13 23 -8 26 11 6 10 17 -2 54 -7 21 -9
22 -20 7 -10 -15 -14 -15 -41 -1 -37 20 -41 20 -49 1z"/>
<path d="M11980 13751 c0 -6 4 -13 10 -16 6 -3 7 1 4 9 -7 18 -14 21 -14 7z"/>
<path d="M12456 12855 c4 -8 12 -15 20 -15 19 0 18 16 -2 24 -22 9 -24 8 -18
-9z"/>
<path d="M12569 12604 c-18 -22 -20 -44 -4 -44 8 0 23 -12 35 -27 22 -29 115
-59 126 -42 3 5 -6 9 -20 9 -26 0 -62 30 -71 61 -3 9 -12 20 -20 23 -8 3 -15
12 -15 21 0 20 -14 19 -31 -1z"/>
<path d="M12845 12500 c3 -5 8 -10 11 -10 2 0 4 5 4 10 0 6 -5 10 -11 10 -5 0
-7 -4 -4 -10z"/>
<path d="M12745 12490 c-9 -14 4 -50 17 -50 6 0 6 6 -2 15 -7 8 -10 22 -6 30
6 17 0 20 -9 5z"/>
<path d="M12490 12443 c0 -6 8 -17 18 -24 16 -13 16 -13 2 6 -8 11 -16 22 -17
24 -2 2 -3 0 -3 -6z"/>
<path d="M12825 12441 c-3 -5 -1 -12 5 -16 5 -3 10 1 10 9 0 18 -6 21 -15 7z"/>
<path d="M12260 12400 c0 -5 5 -10 11 -10 5 0 7 5 4 10 -3 6 -8 10 -11 10 -2
0 -4 -4 -4 -10z"/>
<path d="M12410 12350 c0 -18 -44 -50 -62 -44 -10 3 -18 0 -18 -6 0 -6 -4 -9
-8 -6 -4 2 -9 -4 -9 -15 -1 -14 5 -19 26 -19 52 0 77 20 78 62 1 21 0 38 -3
38 -2 0 -4 -4 -4 -10z"/>
<path d="M8335 11971 c-3 -5 -1 -12 5 -16 5 -3 10 1 10 9 0 18 -6 21 -15 7z"/>
<path d="M11270 11054 c8 -37 23 -54 48 -54 14 0 16 16 2 25 -5 3 -10 11 -10
17 0 7 7 5 18 -4 33 -28 47 -31 23 -4 -20 21 -73 56 -86 56 -2 0 1 -16 5 -36z"/>
<path d="M8042 10906 c-10 -23 -22 -31 -44 -27 -5 0 -8 -3 -8 -9 0 -5 -12 -10
-27 -10 -14 0 -23 -3 -20 -6 3 -4 2 -15 -4 -26 -13 -25 -3 -60 11 -38 7 12 10
12 16 -3 3 -10 5 -19 3 -20 -2 -1 -23 -12 -46 -23 l-42 -21 34 -16 c32 -15 35
-15 35 -1 0 14 2 14 16 3 14 -11 19 -9 34 11 20 26 30 24 34 -7 2 -10 7 -17
12 -15 32 9 41 16 55 47 9 19 13 35 8 35 -5 0 -8 5 -6 12 1 6 -14 19 -33 29
-45 22 -47 45 -2 41 38 -4 40 7 9 44 l-23 26 -12 -26z"/>
<path d="M8060 10661 c0 -6 4 -13 10 -16 6 -3 7 1 4 9 -7 18 -14 21 -14 7z"/>
<path d="M8503 8703 c-10 -3 -10 -8 1 -19 20 -19 26 -18 26 6 0 20 -5 23 -27
13z"/>
<path d="M8380 8683 c0 -5 7 -16 14 -26 12 -15 18 -16 40 -5 l27 12 -23 13
c-26 14 -58 17 -58 6z"/>
<path d="M8448 8623 c7 -3 16 -2 19 1 4 3 -2 6 -13 5 -11 0 -14 -3 -6 -6z"/>
<path d="M11406 7005 c4 -8 11 -15 16 -15 6 0 5 6 -2 15 -7 8 -14 15 -16 15
-2 0 -1 -7 2 -15z"/>
<path d="M11393 6908 c-8 -29 -7 -40 2 -48 9 -8 14 -7 18 2 3 9 9 7 21 -7 8
-11 16 -15 16 -8 0 6 -4 14 -9 18 -15 8 -9 46 6 41 7 -3 17 4 23 14 8 15 8 20
-2 21 -7 0 -25 2 -39 3 -22 1 -28 -4 -36 -36z"/>
<path d="M11403 6830 c-3 -11 -14 -20 -24 -20 -19 0 -32 -13 -22 -24 3 -3 11
-2 18 4 7 6 21 4 39 -5 38 -20 49 -19 43 6 -4 16 -3 18 9 8 8 -6 14 -9 14 -5
0 4 11 -1 24 -9 24 -16 24 -16 19 7 -10 48 -11 50 -34 38 -16 -9 -26 -8 -44 4
-31 21 -36 20 -42 -4z"/>
<path d="M11186 6294 c-10 -27 -7 -44 9 -44 8 0 15 -5 15 -11 0 -5 4 -8 9 -5
9 6 -10 76 -20 76 -4 0 -10 -7 -13 -16z"/>
<path d="M9635 6279 c-4 -6 -5 -13 -2 -16 7 -7 27 6 27 18 0 12 -17 12 -25 -2z"/>
<path d="M11230 6275 c0 -3 7 -14 16 -23 15 -14 16 -14 13 3 -4 17 -29 35 -29
20z"/>
<path d="M11143 6255 c0 -8 4 -15 9 -15 4 0 8 7 8 15 0 8 -4 15 -8 15 -5 0 -9
-7 -9 -15z"/>
<path d="M11180 6198 c0 -17 3 -28 8 -24 10 10 10 56 0 56 -4 0 -8 -14 -8 -32z"/>
<path d="M9620 6210 c0 -5 5 -10 10 -10 6 0 10 5 10 10 0 6 -4 10 -10 10 -5 0
-10 -4 -10 -10z"/>
<path d="M9276 6165 c4 -8 8 -15 10 -15 2 0 4 7 4 15 0 8 -4 15 -10 15 -5 0
-7 -7 -4 -15z"/>
<path d="M9305 6160 c-4 -6 1 -10 11 -10 13 0 14 -3 4 -15 -10 -12 -10 -15 4
-15 20 0 21 36 1 43 -8 4 -17 2 -20 -3z"/>
<path d="M11074 6139 c-13 -15 -25 -18 -46 -14 -15 4 -28 4 -28 0 0 -13 88
-43 113 -38 25 5 26 6 12 33 -20 39 -29 43 -51 19z"/>
<path d="M11156 6145 c-20 -15 -12 -65 10 -65 32 0 94 -33 94 -50 0 -17 15
-29 78 -66 l27 -16 -28 25 c-22 18 -25 25 -14 30 16 6 31 97 18 110 -4 4 -32
10 -61 12 -29 3 -65 11 -80 18 -22 11 -30 11 -44 2z"/>
<path d="M9390 6129 c0 -6 -9 -8 -22 -3 -20 6 -21 5 -9 -9 7 -9 11 -24 7 -32
-7 -18 5 -20 23 -2 11 10 12 9 6 -3 -8 -13 -6 -13 8 -1 9 7 14 17 11 22 -3 5
0 9 7 9 8 0 8 4 -1 15 -14 17 -30 20 -30 4z"/>
<path d="M9558 6108 c-3 -20 -9 -23 -45 -23 -38 0 -44 -3 -52 -28 -6 -15 -17
-30 -26 -33 -8 -3 -15 -15 -15 -26 0 -14 -5 -18 -16 -14 -8 3 -26 -1 -40 -10
-15 -10 -24 -12 -24 -5 0 6 -9 2 -20 -9 -30 -30 -59 -24 -73 14 -4 10 -10 17
-13 14 -2 -3 0 -17 6 -32 7 -21 6 -34 -5 -56 -8 -16 -15 -36 -15 -45 0 -8 -5
-15 -11 -15 -5 0 -27 -11 -47 -25 -20 -14 -43 -25 -51 -25 -7 0 -28 -13 -47
-29 -22 -20 -40 -28 -53 -24 -16 4 -21 1 -21 -13 0 -13 -3 -15 -11 -7 -9 9
-17 9 -31 0 -16 -10 -22 -8 -38 13 -10 14 -19 30 -21 35 -3 12 -44 45 -55 45
-5 0 -25 18 -44 40 l-36 40 -33 -16 c-32 -16 -34 -15 -99 17 -37 18 -79 44
-95 58 -17 15 -31 21 -36 15 -14 -14 7 -113 30 -137 10 -11 19 -27 19 -34 0
-16 5 -16 32 -2 32 17 97 -6 135 -48 24 -25 37 -33 52 -28 26 8 75 -23 62 -39
-6 -7 -8 -21 -6 -32 4 -16 11 -71 17 -123 1 -8 9 -16 18 -18 11 -3 17 -14 16
-34 -1 -33 -8 -36 -26 -14 -7 9 -20 15 -29 13 -9 -1 -26 3 -38 10 -19 11 -22
10 -17 -2 3 -9 11 -14 17 -13 6 1 17 -11 25 -26 12 -25 12 -31 -3 -47 -15 -17
-14 -19 10 -38 39 -31 64 -36 84 -18 10 9 27 16 38 16 25 0 77 -25 93 -45 7
-8 18 -15 25 -15 7 0 18 -6 24 -14 6 -7 25 -16 41 -19 31 -7 74 -67 51 -75
-18 -6 -12 -39 12 -66 20 -21 29 -24 65 -19 38 5 42 4 42 -16 0 -16 -6 -21
-25 -21 -14 0 -25 -5 -25 -12 0 -6 -3 -9 -6 -5 -14 14 -65 -24 -71 -53 -5 -25
-10 -30 -37 -31 -17 -1 -42 -5 -56 -9 l-25 -8 23 -7 c13 -4 22 -16 23 -29 1
-17 2 -17 6 -3 5 19 12 21 33 7 9 -5 19 -5 27 2 7 6 22 8 33 5 15 -4 22 1 26
19 5 19 13 24 40 24 32 0 34 2 28 25 -5 20 -3 25 14 25 15 0 19 5 15 20 -3 12
0 20 6 20 7 0 9 5 6 10 -3 6 -1 10 6 10 7 0 9 11 5 35 -4 22 -3 35 4 35 5 0
10 -6 10 -12 0 -8 17 -14 42 -16 28 -2 49 -11 66 -27 32 -32 37 -31 38 4 1 15
14 45 30 65 23 29 35 36 56 33 20 -2 28 2 32 17 9 35 7 48 -6 39 -7 -4 -28 -9
-47 -10 -19 -1 -38 -8 -42 -15 -10 -15 -44 1 -44 20 0 6 -6 17 -12 23 -10 10
-16 9 -27 -7 -19 -25 -28 -15 -31 38 -2 24 -6 55 -10 70 -4 15 -3 33 1 40 12
18 5 51 -12 61 -18 10 -18 28 0 21 23 -9 28 13 11 46 -17 32 -35 32 -35 -1 0
-11 -7 -19 -16 -19 -9 0 -14 6 -11 13 7 19 -6 38 -29 41 -23 4 -23 50 1 76 9
10 20 34 26 54 8 29 6 41 -8 63 l-18 28 29 -18 c27 -18 30 -18 67 -1 24 10 39
24 39 35 0 36 11 49 37 42 35 -8 67 31 49 59 -9 15 -8 22 5 31 9 7 14 18 12
25 -3 6 0 12 6 12 6 0 11 9 11 20 0 23 49 52 70 41 9 -5 22 -1 33 11 17 18 9
26 -9 8 -7 -7 -21 4 -43 35 -18 25 -34 45 -36 45 -2 0 -5 -10 -7 -22z m-498
-779 c0 -3 -9 -9 -19 -12 -20 -5 -47 36 -35 55 6 9 54 -28 54 -43z m90 27 c11
0 20 -4 20 -8 0 -5 0 -12 0 -18 0 -11 -48 8 -67 26 -16 16 -4 27 14 13 7 -7
22 -12 33 -13z"/>
<path d="M9217 6026 c-4 -10 -5 -21 -2 -24 9 -9 17 6 13 25 -3 17 -4 17 -11
-1z"/>
<path d="M9240 6010 c0 -5 5 -10 11 -10 5 0 7 5 4 10 -3 6 -8 10 -11 10 -2 0
-4 -4 -4 -10z"/>
<path d="M9187 6004 c-9 -10 4 -34 19 -34 8 0 14 4 14 9 0 12 -26 32 -33 25z"/>
<path d="M9567 5869 c-9 -17 -20 -48 -23 -70 -7 -45 -18 -48 -51 -17 -23 21
-23 21 -38 2 -8 -10 -12 -25 -10 -31 2 -7 -2 -13 -10 -13 -10 0 -15 -10 -15
-31 0 -23 -4 -30 -14 -26 -32 12 -58 -49 -36 -83 8 -13 10 -12 10 3 0 20 45
41 73 33 22 -5 50 34 41 58 -8 20 9 21 25 2 17 -20 61 -27 61 -10 0 8 9 14 20
14 11 0 20 -4 20 -10 0 -5 9 -10 20 -10 11 0 20 6 20 14 0 20 -17 29 -23 14
-6 -18 -14 -8 -23 26 -6 25 -5 28 13 22 15 -5 22 -1 26 14 6 25 27 27 27 3 1
-14 6 -12 25 10 13 15 27 27 30 27 33 -1 35 0 23 26 -10 21 -9 27 2 34 12 7
12 12 3 21 -10 10 -18 10 -35 1 -22 -11 -55 -11 -116 2 -23 5 -30 1 -45 -25z
m-122 -189 c3 -5 1 -10 -4 -10 -6 0 -11 5 -11 10 0 6 2 10 4 10 3 0 8 -4 11
-10z"/>
<path d="M9792 5783 c2 -10 10 -18 18 -18 8 0 16 8 18 18 2 12 -3 17 -18 17
-15 0 -20 -5 -18 -17z"/>
<path d="M9090 5222 c0 -5 7 -9 15 -9 8 0 12 4 9 9 -3 4 -9 8 -15 8 -5 0 -9
-4 -9 -8z"/>
<path d="M9110 5180 c0 -5 5 -10 10 -10 6 0 10 5 10 10 0 6 -4 10 -10 10 -5 0
-10 -4 -10 -10z"/>
<path d="M9600 5171 c-75 -27 -100 -52 -100 -100 0 -12 -6 -21 -14 -21 -15 0
-30 -45 -20 -61 3 -6 -3 -5 -14 2 -16 10 -23 10 -36 0 -16 -14 -40 -6 -30 10
7 11 -43 65 -52 56 -4 -3 3 -21 15 -40 11 -19 21 -42 21 -51 0 -31 29 -75 49
-73 11 0 17 6 14 14 -3 7 0 13 6 13 7 0 15 8 18 18 11 29 30 42 60 42 31 0 63
43 63 85 0 29 25 56 45 49 8 -4 15 -1 15 5 0 8 5 9 19 2 16 -9 20 -6 25 15 4
13 11 22 16 19 6 -3 10 -2 10 3 0 5 -8 12 -17 15 -10 2 -25 7 -33 10 -8 2 -35
-3 -60 -12z"/>
</g>
</svg>
