<?xml version="1.0" standalone="no"?>
<!DOCTYPE svg PUBLIC "-//W3C//DTD SVG 20010904//EN"
 "http://www.w3.org/TR/2001/REC-SVG-20010904/DTD/svg10.dtd">
<svg version="1.0" xmlns="http://www.w3.org/2000/svg"
 width="724.957195pt" height="359.520645pt" viewBox="0 0 724.957195 359.520645"
 preserveAspectRatio="xMidYMid meet">
<metadata>
Created by potrace 1.15, written by Peter Selinger 2001-2017
</metadata>
<g transform="translate(-587.042805,1174.305122) scale(0.100000,-0.100000)"
fill="#222222" stroke="none">
<path d="M8426 11725 c-5 -18 -13 -25 -30 -25 -19 0 -22 -4 -19 -22 4 -20 0
-23 -26 -22 -17 1 -32 2 -33 3 -2 1 -21 3 -43 5 -35 2 -40 -1 -41 -20 -1 -14
5 -25 15 -27 13 -4 13 -5 -3 -6 -15 -1 -17 -6 -13 -30 5 -25 2 -30 -18 -35
-14 -4 -25 -12 -25 -20 0 -7 -7 -19 -16 -27 -14 -11 -14 -13 0 -21 18 -10 86
38 86 60 0 15 6 15 31 2 11 -6 19 -7 19 -2 0 6 10 12 22 15 18 5 19 8 8 21
-10 13 -10 16 1 16 32 0 59 -13 64 -31 5 -14 14 -19 33 -17 23 3 27 -1 25 -19
-2 -15 3 -23 13 -23 11 0 15 6 11 20 -6 24 1 25 31 4 46 -32 69 -118 37 -144
-8 -7 -15 -25 -15 -40 0 -17 -7 -30 -17 -34 -14 -6 -10 -12 22 -30 36 -20 43
-21 67 -9 36 17 53 16 74 -4 10 -10 21 -19 26 -19 4 -1 11 -2 15 -3 4 0 2 -6
-5 -13 -18 -18 -14 -38 7 -38 11 0 22 -4 25 -8 3 -5 19 -7 36 -4 31 4 150 -34
150 -48 0 -12 52 -22 59 -12 3 5 15 12 26 14 18 4 17 6 -6 16 -35 14 -59 49
-59 85 0 26 -3 29 -25 23 -14 -4 -25 -2 -25 3 0 5 -9 11 -20 14 -13 3 -18 11
-14 20 4 11 -2 16 -18 19 -18 2 -24 10 -26 36 -2 17 -8 32 -13 32 -6 0 -9 10
-8 23 1 12 -3 40 -10 63 -11 34 -21 45 -57 63 -25 11 -49 31 -55 44 -10 21
-16 23 -64 19 -52 -4 -55 -3 -99 39 -28 27 -46 53 -46 67 0 12 -4 22 -9 22 -5
0 -16 7 -24 15 -13 13 -16 11 -21 -10z"/>
<path d="M6020 11725 c0 -9 5 -15 11 -13 6 2 11 8 11 13 0 5 -5 11 -11 13 -6
2 -11 -4 -11 -13z"/>
<path d="M6075 11730 c-3 -5 1 -10 9 -10 8 0 19 -8 25 -17 5 -10 13 -15 17
-10 8 7 -23 47 -37 47 -4 0 -11 -4 -14 -10z"/>
<path d="M5980 11710 c0 -5 -7 -10 -15 -10 -22 0 -18 -21 5 -27 10 -3 26 -16
35 -30 13 -20 19 -22 31 -12 12 10 12 14 2 20 -11 7 -11 12 0 29 11 17 10 20
-7 20 -11 0 -23 5 -26 10 -3 6 -10 10 -16 10 -5 0 -9 -4 -9 -10z"/>
<path d="M6081 11604 c12 -15 11 -16 -9 -10 -18 6 -22 3 -22 -12 0 -11 9 -22
20 -25 11 -3 20 0 20 5 0 6 9 3 20 -7 15 -14 17 -21 9 -31 -18 -22 -5 -36 47
-50 59 -15 101 -9 83 12 -7 8 -19 12 -28 10 -19 -6 -111 74 -111 97 0 8 -7 18
-16 21 -25 9 -27 7 -13 -10z"/>
<path d="M8366 11551 c1 -14 3 -27 3 -29 1 -1 7 3 15 10 15 14 11 34 -8 41 -7
3 -11 -5 -10 -22z"/>
<path d="M6285 11405 c0 -30 -3 -55 -7 -55 -4 0 -5 -6 -2 -13 5 -14 -19 -68
-31 -68 -4 -1 -11 3 -14 8 -3 4 -16 14 -29 21 -19 10 -23 10 -28 -3 -4 -8 -3
-26 0 -39 3 -14 1 -28 -5 -31 -6 -4 -8 -13 -5 -20 2 -7 -2 -16 -10 -19 -8 -3
-14 -13 -14 -23 0 -20 -51 -53 -80 -53 -10 0 -21 -7 -24 -16 -3 -8 -10 -13
-14 -10 -5 3 -8 -14 -7 -37 0 -27 -6 -52 -18 -69 -11 -14 -16 -31 -13 -37 4
-6 0 -11 -9 -11 -8 0 -18 -8 -22 -17 -8 -23 -52 -63 -70 -63 -19 0 -16 -18 5
-28 23 -12 54 -7 68 12 6 9 19 16 28 16 9 0 30 7 46 15 21 11 27 20 23 35 -5
20 11 28 22 10 4 -6 12 -6 23 -1 9 5 24 12 34 15 12 4 15 14 12 46 -2 23 0 39
5 35 5 -3 16 -2 25 1 12 5 13 11 6 24 -15 28 -13 31 15 24 15 -4 25 -2 25 5 0
24 36 9 53 -22 14 -25 16 -39 8 -58 -8 -22 -14 -25 -43 -22 -33 4 -33 4 -13
-14 12 -10 33 -37 49 -60 22 -33 35 -42 64 -46 60 -9 129 -31 149 -49 19 -17
21 -18 53 -18 11 0 42 -22 69 -49 58 -57 87 -76 96 -61 4 7 13 6 26 -1 14 -7
24 -7 33 0 10 8 18 6 31 -9 24 -26 38 -25 71 5 15 14 34 25 44 25 20 0 60 41
60 61 0 9 -16 23 -35 32 -20 9 -45 32 -56 51 -13 22 -33 39 -55 46 -41 14 -84
72 -84 115 -1 36 -83 130 -123 140 -22 6 -24 11 -20 44 4 28 0 42 -13 56 -11
10 -20 26 -21 34 -14 85 -30 120 -63 131 -22 6 -82 4 -106 -4 -18 -6 -23 -3
-28 19 -5 18 -12 25 -21 21 -9 -3 -19 3 -25 14 -20 38 -36 23 -35 -35z"/>
<path d="M6176 11344 c-9 -23 -2 -28 13 -10 7 8 8 17 3 20 -6 3 -13 -1 -16
-10z"/>
<path d="M6999 11265 c0 -18 -1 -19 -8 -2 -6 18 -7 18 -24 0 -14 -17 -15 -22
-2 -45 15 -30 9 -71 -9 -65 -13 4 -35 -22 -36 -41 0 -8 -9 -27 -21 -44 -16
-22 -28 -28 -48 -26 -21 2 -26 -1 -28 -22 -3 -30 41 -84 62 -76 9 3 12 12 8
22 -3 9 23 -5 58 -33 37 -29 64 -57 64 -68 0 -12 10 -21 29 -26 16 -5 33 -14
38 -21 6 -9 7 -6 3 9 -4 16 -1 23 13 27 21 7 37 71 25 102 -5 13 -3 16 10 11
41 -16 76 38 57 87 -14 38 -13 39 15 20 16 -10 25 -12 26 -5 3 44 0 80 -10
104 -13 34 -14 57 -2 57 14 0 0 48 -15 54 -11 4 -12 1 -6 -12 11 -21 5 -42
-12 -42 -7 0 -28 11 -46 25 -19 14 -41 25 -50 24 -8 -1 -18 0 -22 1 -5 1 -21
3 -38 4 -24 1 -30 -3 -31 -19z"/>
<path d="M9130 11181 c0 -7 -8 -11 -17 -9 -23 3 -43 -9 -43 -27 0 -9 10 -14
28 -13 15 1 36 -2 46 -7 16 -7 18 -5 13 8 -3 8 -1 17 4 19 6 2 1 12 -10 22
-13 12 -21 14 -21 7z"/>
<path d="M8314 11153 c4 -16 9 -36 12 -46 3 -10 2 -17 -3 -16 -13 3 -43 -12
-43 -23 0 -19 -27 -37 -38 -26 -7 7 -6 22 3 49 12 33 12 37 -1 32 -8 -3 -14 1
-14 11 0 18 -16 21 -26 5 -4 -8 -9 -7 -15 2 -4 8 -19 14 -31 15 -13 0 -38 4
-55 8 -25 6 -33 4 -33 -6 0 -7 -12 -26 -26 -41 -19 -21 -29 -26 -37 -18 -6 6
-19 11 -28 11 -15 0 -17 -6 -12 -34 4 -27 1 -36 -18 -49 -12 -9 -26 -14 -31
-11 -4 3 -8 -2 -8 -11 0 -12 -6 -15 -20 -10 -10 3 -29 1 -40 -5 -18 -10 -21
-9 -18 7 2 12 -4 18 -17 19 -11 1 -30 4 -41 8 -15 5 -24 2 -28 -10 -5 -13 -14
-15 -40 -11 -25 4 -36 1 -40 -9 -3 -8 -14 -14 -25 -14 -11 0 -23 -5 -26 -11
-5 -7 -13 -5 -24 5 -14 13 -24 14 -49 5 -59 -20 -105 -48 -116 -71 -6 -13 -21
-27 -33 -32 -14 -7 -22 -22 -26 -49 -3 -21 -12 -46 -21 -56 -14 -15 -13 -18 4
-29 14 -9 20 -9 20 -1 0 8 4 8 15 -1 11 -9 12 -16 3 -30 -7 -10 -16 -16 -22
-13 -5 4 -7 0 -4 -9 4 -8 -2 -22 -13 -32 -11 -9 -22 -30 -26 -46 -3 -17 -12
-30 -20 -30 -10 0 -11 -4 -3 -19 14 -28 13 -33 -9 -26 -11 3 -22 1 -26 -5 -5
-8 -11 -6 -19 5 -11 15 -13 15 -25 1 -10 -12 -18 -13 -32 -5 -11 5 -17 14 -14
20 4 5 1 9 -4 9 -16 0 -13 -36 3 -50 15 -12 10 -44 -5 -34 -5 3 -9 0 -9 -7 0
-10 -3 -10 -12 -1 -18 18 -36 15 -34 -5 0 -10 -6 -18 -14 -19 -8 0 -27 -4 -42
-8 -23 -7 -27 -14 -30 -49 -2 -35 -7 -43 -26 -45 -12 -2 -20 -8 -16 -13 3 -6
1 -16 -5 -23 -17 -20 -8 -55 30 -107 30 -43 38 -48 73 -49 22 0 36 -3 33 -7
-11 -10 13 -33 35 -33 10 0 16 5 13 10 -3 6 -2 10 2 10 13 0 34 -40 28 -51 -4
-5 3 -26 14 -45 12 -19 15 -32 9 -28 -7 4 -4 -2 6 -15 11 -12 26 -19 33 -16 8
2 25 -7 38 -21 13 -13 25 -20 27 -14 6 18 77 -23 78 -45 1 -18 2 -17 11 4 7
17 5 30 -6 47 -8 13 -15 37 -15 54 0 16 -4 30 -9 30 -5 0 -14 14 -20 30 -5 17
-17 30 -25 30 -9 0 -16 5 -16 10 0 6 -9 10 -20 10 -11 0 -20 -4 -20 -9 0 -20
-39 -17 -66 5 -26 20 -27 22 -6 17 14 -3 22 -1 22 7 0 9 11 10 36 6 31 -6 36
-4 41 13 6 25 25 27 43 6 7 -8 18 -15 25 -15 6 0 33 -11 58 -25 27 -14 49 -20
52 -15 4 6 17 10 31 10 14 0 34 5 45 11 15 7 24 7 35 -2 11 -9 14 -9 14 1 0 8
9 11 29 7 19 -4 32 -2 35 6 4 7 4 2 2 -10 -3 -15 1 -23 10 -23 8 0 11 6 8 15
-4 8 -1 22 5 29 9 11 9 15 -1 19 -7 2 -10 8 -6 12 4 4 15 2 23 -5 14 -11 17
-10 22 8 6 24 35 25 86 4 33 -14 35 -28 5 -35 -20 -6 -21 -7 -6 -24 17 -19 14
-72 -5 -84 -5 -4 -5 -15 3 -29 9 -16 17 -20 36 -16 20 5 24 3 25 -16 0 -13 3
-17 6 -10 3 8 9 10 16 3 8 -6 17 -4 25 5 7 8 9 14 3 14 -5 0 -5 12 2 30 6 17
14 30 18 30 10 0 20 -30 14 -40 -8 -13 23 -20 33 -7 6 7 13 24 17 39 6 23 9
25 25 16 10 -7 23 -21 28 -33 8 -17 6 -24 -9 -33 -10 -7 -24 -12 -30 -12 -38
0 -124 -110 -98 -126 5 -3 9 -16 9 -29 0 -15 11 -32 32 -46 17 -13 26 -25 20
-27 -7 -2 -12 -12 -12 -23 0 -10 -7 -19 -15 -19 -8 0 -15 -7 -15 -15 0 -24
-37 -58 -54 -52 -9 4 -16 3 -16 -2 0 -12 45 -51 59 -51 8 0 11 -7 9 -18 -3
-10 1 -27 8 -37 10 -13 11 -22 3 -31 -18 -22 0 -36 37 -29 25 4 34 2 34 -7 -1
-24 -35 -53 -63 -54 -30 -2 -59 -31 -52 -51 2 -7 -2 -13 -10 -13 -9 0 -12 -6
-8 -15 3 -9 2 -15 -3 -13 -10 3 -51 -18 -70 -36 -9 -9 -9 -14 1 -26 12 -13 12
-24 -1 -69 -12 -39 -13 -56 -5 -64 6 -6 11 -20 11 -32 0 -12 5 -26 10 -31 8
-8 6 -15 -4 -23 -11 -10 -13 -18 -6 -31 7 -13 7 -21 -1 -25 -7 -5 -2 -16 12
-31 13 -13 30 -53 39 -89 14 -56 14 -66 2 -79 -12 -12 -12 -15 5 -20 16 -5 19
-15 18 -50 -1 -24 -5 -48 -9 -54 -9 -14 43 -74 57 -65 6 4 8 -2 5 -15 -4 -15
-2 -22 8 -22 14 0 10 24 -10 49 -7 10 -6 16 7 26 9 7 17 19 17 28 0 14 5 15
27 6 25 -9 42 0 43 23 0 4 6 5 13 3 17 -6 58 30 52 47 -3 8 8 17 32 25 31 10
42 9 61 -3 12 -8 22 -10 22 -5 0 4 20 6 45 3 30 -3 45 -1 45 7 0 19 44 12 58
-9 15 -24 42 -26 42 -4 0 14 3 14 15 4 8 -7 15 -18 15 -26 0 -7 5 -16 12 -20
7 -4 8 -3 4 4 -4 6 -1 20 6 32 13 21 43 27 53 10 9 -14 45 11 45 32 0 10 7 18
15 18 20 0 43 49 28 58 -6 4 -13 17 -17 30 -4 12 -13 22 -20 22 -8 0 -19 7
-26 15 -10 13 -9 15 10 15 16 0 20 4 16 15 -4 11 1 15 19 15 30 0 36 10 37 59
0 24 -9 55 -26 84 -15 25 -23 47 -19 50 14 9 63 -5 63 -17 0 -6 9 -12 21 -13
33 -3 50 -23 47 -58 -1 -18 4 -40 11 -49 8 -10 11 -28 8 -46 -5 -24 4 -49 44
-122 27 -51 53 -112 56 -135 4 -34 11 -44 34 -54 30 -12 129 -118 129 -137 0
-20 75 -36 108 -24 24 8 32 7 36 -4 3 -8 19 -14 39 -14 21 0 41 -8 52 -20 21
-24 39 -16 25 11 -6 11 -7 19 -1 19 5 0 8 8 7 18 0 9 4 16 11 15 15 -3 36 24
28 37 -3 5 -25 10 -47 10 -23 0 -38 3 -35 7 4 3 0 14 -9 24 -17 19 -11 39 12
39 22 0 16 36 -12 69 -20 24 -22 31 -10 31 9 0 16 7 16 15 0 19 19 19 44 0 10
-8 22 -12 27 -10 23 15 75 11 97 -5 27 -22 43 -18 58 13 11 25 8 50 -6 42 -5
-3 -11 -1 -15 5 -3 5 -1 10 5 10 6 0 8 5 5 10 -3 6 1 10 9 10 19 0 19 3 4 85
-11 56 -16 66 -40 76 -25 10 -26 13 -12 24 15 11 15 14 -1 45 -9 18 -15 43
-12 56 2 13 1 21 -3 19 -4 -2 -27 10 -51 28 -31 22 -43 38 -41 52 1 11 -5 29
-13 40 -14 17 -16 17 -11 3 3 -10 1 -28 -3 -40 -8 -20 -10 -21 -16 -5 -4 9
-13 17 -21 17 -15 0 -60 57 -56 71 1 5 -5 9 -13 9 -8 0 -15 6 -16 13 0 6 -5 2
-11 -9 -6 -14 -19 -21 -36 -21 -16 0 -32 -9 -40 -22 -18 -26 -43 -27 -59 -2
-6 10 -26 21 -43 25 -29 5 -32 9 -28 36 3 22 0 31 -13 35 -10 3 -21 14 -24 24
-6 19 -59 36 -76 25 -14 -8 -11 40 3 54 10 10 10 15 -1 21 -15 10 -8 15 32 25
32 8 37 41 7 49 -11 3 -20 12 -20 21 0 15 17 21 49 17 7 -2 10 2 7 8 -4 5 -4
20 -1 33 5 18 13 23 38 23 29 0 32 3 35 31 3 29 6 32 37 31 19 0 31 -5 29 -9
-9 -14 43 -72 66 -73 24 -2 74 41 59 50 -5 4 -7 11 -4 16 3 5 0 6 -8 3 -8 -3
-18 0 -22 6 -10 17 13 39 35 33 17 -4 20 0 20 25 0 16 7 35 15 42 12 10 15 10
15 -3 0 -10 13 -16 40 -19 43 -4 62 6 53 28 -3 8 -1 14 3 14 11 0 34 -48 34
-69 0 -12 11 -16 40 -16 22 0 40 3 40 7 0 4 6 5 14 2 14 -5 66 49 66 70 0 17
60 8 67 -10 9 -23 23 -16 23 11 0 29 15 33 29 8 8 -14 10 -1 11 49 0 70 15 99
26 51 11 -53 14 -57 26 -45 8 8 19 6 40 -9 36 -26 89 -19 81 12 -3 10 -13 20
-22 21 -9 0 -22 2 -30 2 -8 1 -18 11 -22 24 -8 20 -6 22 16 16 13 -3 31 -1 41
4 13 7 25 6 41 -6 18 -11 27 -12 36 -3 6 6 8 11 3 11 -4 0 0 7 9 16 14 14 18
15 39 0 21 -13 25 -13 30 -1 3 8 15 15 26 15 15 0 20 7 20 28 0 25 19 69 20
47 1 -5 8 2 16 18 9 18 23 27 38 27 13 0 26 7 30 15 3 9 18 15 39 15 41 0 49
7 36 31 -7 15 -6 21 5 25 8 3 12 12 9 20 -3 8 0 14 7 14 7 0 9 8 4 23 -6 21
-6 21 13 5 11 -10 25 -18 32 -18 9 0 11 -8 6 -27 -8 -34 -24 -55 -36 -47 -12
7 -11 -6 2 -45 9 -26 8 -35 -5 -50 -18 -20 -5 -41 25 -41 11 0 20 -15 29 -47
7 -27 17 -53 22 -60 6 -7 7 -17 3 -23 -4 -6 4 -10 20 -10 15 0 24 -4 20 -10
-3 -5 1 -10 9 -10 9 0 21 -9 28 -19 6 -10 18 -17 25 -14 7 3 13 -1 13 -7 0 -9
7 -7 20 5 12 11 29 16 44 13 15 -3 27 0 30 8 3 9 17 12 36 10 28 -3 47 8 49
29 1 6 16 10 34 11 48 1 49 2 36 27 -11 19 -10 20 2 10 19 -16 59 -6 52 13 -3
8 1 14 8 14 8 0 4 9 -9 23 -24 25 -29 43 -9 30 6 -4 20 -6 29 -5 10 2 25 -1
35 -7 12 -6 25 -6 36 0 13 8 28 3 62 -20 27 -18 52 -28 62 -24 14 6 15 0 9
-44 -5 -43 -4 -51 10 -49 26 2 53 -45 56 -96 1 -39 5 -48 20 -48 10 0 18 6 18
14 0 9 9 14 23 14 62 -4 72 1 92 47 11 25 23 45 27 45 5 0 8 10 8 23 0 18 2
19 10 7 9 -13 13 -12 28 8 14 18 20 20 30 10 13 -13 16 -41 6 -51 -4 -3 -15
-2 -25 4 -13 6 -19 6 -19 0 0 -6 10 -16 23 -22 12 -6 32 -21 45 -32 16 -15 22
-17 23 -6 3 36 -4 65 -19 83 -14 15 -11 15 21 -4 20 -12 37 -28 37 -36 0 -8 9
-14 20 -14 24 0 70 20 70 31 0 5 12 15 26 22 17 9 23 17 16 21 -7 4 -22 1 -34
-6 -13 -7 -27 -11 -33 -9 -5 2 -22 3 -37 3 -16 0 -28 4 -28 9 0 5 -13 9 -29 9
-39 0 -44 10 -29 56 12 35 16 38 52 40 24 0 44 7 52 18 10 15 16 16 34 6 16
-8 20 -9 16 -1 -4 6 2 26 13 44 18 30 23 32 66 29 32 -3 48 -10 56 -23 6 -13
6 -19 -1 -19 -5 0 -10 -8 -10 -18 0 -15 6 -18 31 -14 29 4 30 3 20 -16 -9 -17
-17 -19 -51 -15 -38 5 -40 4 -40 -21 0 -14 -4 -26 -10 -26 -5 0 -10 -11 -10
-25 0 -32 17 -32 54 0 35 30 36 30 36 4 0 -11 -4 -17 -10 -14 -14 9 -12 -7 5
-29 15 -20 35 -14 35 11 0 13 3 13 16 3 8 -8 19 -21 24 -30 6 -12 4 -16 -12
-17 -24 -2 -29 -6 -32 -27 -1 -9 -9 -22 -18 -28 -9 -7 -23 -33 -32 -58 -13
-39 -16 -42 -22 -22 -8 27 -6 26 -43 4 -30 -18 -30 -19 -11 -35 20 -17 29 -64
10 -52 -6 3 -17 -1 -26 -9 -8 -9 -11 -16 -5 -16 6 0 8 -7 5 -15 -4 -9 0 -15 9
-15 9 0 22 -6 29 -13 7 -7 25 -21 41 -31 16 -11 27 -27 27 -40 0 -15 15 -33
46 -55 28 -19 44 -37 40 -46 -2 -7 2 -19 10 -26 8 -6 13 -18 12 -25 -2 -7 22
-30 52 -51 48 -34 61 -39 102 -36 41 2 45 1 41 -17 -3 -11 -9 -20 -14 -20 -5
0 -9 -6 -9 -14 0 -8 -5 -16 -12 -18 -22 -8 3 -28 32 -26 26 2 29 5 23 26 -5
20 -3 23 13 19 11 -4 31 -9 47 -13 15 -3 27 -10 27 -15 0 -5 7 -9 15 -9 15 0
21 31 8 44 -5 4 -8 19 -8 32 -1 27 25 33 47 11 7 -7 26 -22 42 -32 28 -18 28
-18 24 1 -2 11 -10 18 -21 16 -29 -5 -30 23 -3 63 30 43 31 51 14 92 -17 38
-39 32 -31 -8 7 -34 -16 -42 -24 -8 -5 18 -11 20 -40 16 -29 -5 -33 -3 -29 11
4 11 -2 22 -14 30 -20 12 -27 10 -80 -20 -55 -31 -62 -32 -88 -17 -15 8 -33
27 -40 42 -7 15 -18 27 -25 27 -7 0 -21 7 -32 16 -17 12 -18 16 -5 24 11 7 9
13 -13 36 -15 14 -24 31 -21 36 3 5 -2 21 -12 35 -11 17 -13 28 -6 31 7 2 5
15 -5 40 -12 29 -13 44 -4 73 6 20 11 46 11 57 0 42 28 11 34 -37 4 -27 13
-63 22 -80 10 -19 13 -42 9 -60 -6 -27 -4 -29 35 -35 22 -3 40 -11 40 -16 0
-16 44 -55 57 -52 7 2 23 -6 35 -18 12 -11 27 -20 34 -20 7 0 14 -6 16 -12 4
-10 10 -10 30 -1 22 10 27 9 34 -5 4 -9 6 -22 6 -27 -1 -6 7 -16 18 -23 16
-10 18 -9 14 3 -4 8 -2 15 3 15 5 0 8 14 5 30 -3 22 0 30 11 30 34 0 29 85 -8
138 -15 20 -15 22 1 22 14 0 15 2 3 18 -7 9 -9 14 -4 9 4 -4 17 5 27 20 l18
28 0 -42 c0 -30 -4 -43 -14 -43 -9 0 -12 -8 -8 -25 2 -14 10 -25 17 -25 16 0
28 -42 14 -51 -18 -10 7 -20 33 -14 18 5 29 -1 45 -23 12 -17 25 -42 29 -56 5
-21 10 -25 30 -20 17 4 26 1 30 -10 3 -9 17 -16 30 -16 18 0 24 -6 24 -21 0
-13 8 -23 20 -26 11 -3 19 -10 18 -17 -4 -22 13 -55 31 -61 11 -3 21 -15 24
-25 3 -14 10 -18 21 -14 12 4 15 2 11 -8 -6 -16 34 -40 88 -54 47 -11 90 -109
57 -129 -6 -3 -7 -17 -4 -31 4 -14 2 -24 -5 -24 -6 0 -11 6 -12 13 0 6 -5 2
-11 -10 -14 -30 -41 -29 -58 2 -11 20 -11 27 0 40 11 14 10 17 -7 21 -11 3
-26 20 -34 37 -11 25 -21 33 -46 35 -31 3 -33 2 -24 -22 12 -31 -11 -58 -27
-30 -6 11 -11 13 -16 5 -4 -6 0 -14 8 -17 18 -7 23 -84 6 -84 -13 0 -13 -33 1
-64 7 -15 9 -45 5 -80 -6 -46 -11 -56 -27 -56 -23 0 -26 -32 -4 -50 18 -15 20
-46 3 -54 -9 -3 -8 -8 5 -16 9 -6 17 -17 17 -24 0 -19 26 -27 58 -20 40 10 41
11 27 51 -15 46 -9 113 11 113 8 0 14 4 14 8 0 5 13 29 30 53 17 25 30 57 30
75 0 32 14 44 51 44 10 0 19 7 19 15 0 8 15 28 34 46 19 17 37 41 40 53 3 12
21 29 41 39 22 10 35 24 35 36 0 10 9 25 20 32 15 10 22 30 27 67 5 45 9 52
28 52 28 0 55 30 55 61 0 32 -36 90 -60 96 -27 7 -37 43 -16 55 11 6 15 16 11
29 -11 33 5 119 21 119 8 0 14 7 14 15 0 8 5 15 11 15 5 0 7 5 3 11 -5 8 -8 8
-13 0 -5 -7 -19 1 -40 23 l-32 33 35 7 c35 7 46 19 26 31 -5 3 -10 14 -10 23
0 9 -11 24 -23 33 -29 21 -87 34 -87 20 0 -18 -20 -12 -52 14 -16 14 -38 25
-48 25 -10 0 -24 10 -32 23 -9 12 -34 27 -58 34 -38 10 -43 9 -47 -8 -3 -11
-14 -19 -27 -19 -12 0 -27 -5 -32 -10 -7 -7 -20 -4 -39 12 -16 12 -35 23 -44
25 -21 3 -53 -16 -46 -28 4 -5 -1 -9 -9 -9 -9 0 -16 8 -17 18 0 9 -6 1 -13
-18 -8 -22 -20 -36 -33 -38 -12 -2 -25 -17 -33 -37 -11 -29 -19 -35 -42 -35
-28 0 -28 -1 -13 -24 10 -15 30 -27 52 -31 21 -4 43 -14 50 -23 10 -15 11 -14
6 7 -4 18 -2 22 8 19 9 -3 14 -18 13 -42 -1 -20 3 -36 7 -36 5 0 9 -4 9 -10 0
-5 -6 -9 -12 -7 -7 1 -12 -4 -11 -10 4 -16 -2 -16 -29 -2 -15 8 -19 8 -14 0 4
-7 -1 -11 -12 -11 -19 0 -82 61 -82 80 0 5 8 11 18 14 9 3 -3 3 -28 0 -43 -5
-44 -4 -22 11 24 17 29 44 11 62 -8 8 -7 13 2 18 8 6 10 4 4 -5 -6 -9 -4 -11
4 -5 9 5 10 10 2 18 -6 6 -11 24 -11 39 0 23 -4 28 -24 28 -19 0 -22 -4 -18
-25 2 -14 8 -28 13 -31 5 -3 9 -13 9 -22 0 -15 -2 -15 -10 -2 -5 8 -10 11 -10
6 0 -20 -49 38 -55 66 -6 26 -9 28 -41 22 -22 -4 -34 -2 -34 5 0 6 -9 20 -20
31 -25 25 -27 62 -4 53 11 -4 15 -2 12 7 -2 8 -20 18 -39 23 -19 5 -37 12 -41
16 -10 9 -78 1 -78 -10 0 -4 -17 -11 -37 -14 -21 -4 -48 -11 -60 -17 -21 -10
-21 -12 -5 -24 16 -13 16 -13 -1 -14 -22 0 -36 32 -17 38 8 3 25 16 39 31 18
17 35 24 54 22 15 -1 27 2 27 8 0 6 9 11 20 11 14 0 22 11 31 43 6 23 18 54
27 69 9 15 12 31 8 35 -4 4 -12 0 -17 -10 -7 -12 -17 -16 -30 -12 -14 5 -19 2
-19 -10 0 -13 -6 -16 -27 -12 -20 4 -39 -3 -70 -26 -42 -30 -44 -30 -58 -11
-8 10 -15 23 -15 28 0 5 -6 4 -12 -1 -18 -13 -28 -11 -68 15 -23 15 -43 21
-60 17 -14 -3 -31 -6 -37 -7 -7 -1 -13 -5 -13 -9 0 -34 -121 -102 -150 -84 -6
4 -20 -1 -32 -12 -13 -12 -35 -18 -64 -18 -33 0 -46 -4 -50 -17 -3 -12 -16
-18 -35 -18 -22 0 -39 -10 -64 -37 -31 -34 -32 -38 -17 -50 23 -17 43 -16 36
2 -5 11 1 15 21 15 14 0 35 5 46 10 23 13 83 -18 113 -58 19 -25 19 -25 -2
-20 -12 3 -22 2 -24 -4 -2 -5 -16 -6 -31 -3 -22 6 -26 11 -21 28 5 15 3 19
-10 14 -9 -4 -19 1 -24 10 -12 21 -40 10 -51 -20 -8 -20 -29 -37 -47 -37 -10
0 -3 29 9 33 7 3 5 7 -8 12 -11 4 -29 11 -40 15 -11 5 -29 11 -40 13 -12 3 -7
5 13 6 17 0 32 6 32 12 0 7 -9 9 -22 5 -13 -3 -32 -8 -43 -11 -16 -4 -29 9
-67 65 -26 38 -43 72 -38 75 6 4 10 11 10 16 0 6 -7 4 -15 -5 -8 -8 -12 -22
-9 -30 4 -11 1 -16 -10 -16 -9 0 -16 -4 -16 -10 0 -5 -9 -10 -19 -10 -11 0
-23 -5 -26 -10 -10 -16 -141 -8 -137 8 1 7 -10 20 -25 30 -16 10 -47 35 -70
56 -28 27 -51 39 -75 41 -39 2 -88 31 -88 51 0 8 -6 14 -14 14 -8 0 -23 12
-33 26 -17 23 -22 24 -44 14 -22 -10 -31 -8 -72 20 -26 17 -47 38 -47 46 0 8
-9 14 -19 14 -21 0 -71 -53 -71 -76 0 -9 -4 -13 -9 -9 -17 10 -91 -7 -91 -21
0 -9 -11 -14 -29 -14 -17 0 -32 -4 -35 -9 -8 -13 -104 -4 -129 12 -15 9 -31
11 -51 6 -22 -6 -39 -3 -67 13 -35 19 -37 23 -32 57 3 20 9 41 14 46 12 16
-18 75 -39 75 -23 0 -42 19 -42 41 0 9 -7 20 -15 23 -16 6 -27 -14 -41 -69 -6
-24 -19 -30 -56 -27 -10 1 -18 -5 -18 -13 0 -8 -7 -15 -15 -15 -7 0 -18 -8
-24 -17 -9 -17 -10 -17 -16 0 -4 9 -13 17 -19 17 -18 0 -39 43 -40 82 -1 39
-25 78 -47 78 -9 0 -24 9 -34 20 -10 11 -26 20 -34 18 -28 -4 -72 12 -69 25 3
13 -35 64 -111 149 -19 21 -31 41 -27 45 3 3 1 12 -5 20 -6 7 -8 13 -4 13 4 0
2 7 -5 15 -7 9 -21 13 -31 10 -11 -4 -26 4 -43 22 -28 30 -32 43 -14 43 6 0 4
7 -5 18 -10 10 -17 23 -17 29 0 17 -33 40 -69 47 -27 5 -32 3 -27 -9 9 -23
-17 -28 -58 -11 -20 8 -43 13 -50 10 -8 -3 -24 -1 -35 5 -13 7 -22 8 -26 1 -8
-13 -52 -13 -60 0 -4 6 -10 8 -14 6 -4 -3 -13 0 -21 5 -13 8 -13 10 0 19 12 8
11 10 -6 10 -14 0 -21 6 -20 17 1 12 -7 17 -29 18 -17 0 -41 8 -55 18 -34 24
-43 21 -36 -10z m-849 -563 c11 -18 -26 -23 -43 -6 -15 15 -14 16 10 16 15 0
30 -5 33 -10z m310 -118 c0 -10 44 -52 54 -52 12 0 12 -68 0 -76 -5 -3 -5 -14
2 -25 13 -24 2 -82 -14 -76 -7 2 -15 19 -18 38 -3 19 -11 46 -17 60 -6 15 -9
43 -7 63 2 20 -1 39 -6 42 -5 3 -9 15 -9 26 0 12 3 18 8 14 4 -4 7 -11 7 -14z
m1265 -44 c0 -6 -6 -5 -15 2 -8 7 -15 14 -15 16 0 2 7 1 15 -2 8 -4 15 -11 15
-16z m-40 -172 c0 -8 -7 -19 -15 -26 -10 -9 -15 -9 -15 -1 0 6 5 11 11 11 6 0
8 9 4 21 -5 15 -4 19 4 15 6 -4 11 -13 11 -20z m-85 -96 c3 -5 1 -10 -4 -10
-6 0 -11 5 -11 10 0 6 2 10 4 10 3 0 8 -4 11 -10z m2665 -30 c0 -5 -4 -10 -10
-10 -5 0 -10 5 -10 10 0 6 5 10 10 10 6 0 10 -4 10 -10z m-3475 -30 c3 -5 1
-10 -4 -10 -6 0 -11 5 -11 10 0 6 2 10 4 10 3 0 8 -4 11 -10z m30 -50 c3 -5
-1 -10 -10 -10 -9 0 -13 5 -10 10 3 6 8 10 10 10 2 0 7 -4 10 -10z m1210 -200
c3 -5 2 -10 -4 -10 -5 0 -13 5 -16 10 -3 6 -2 10 4 10 5 0 13 -4 16 -10z
m3105 -40 c0 -10 -26 -20 -34 -13 -11 12 -6 19 14 20 11 1 20 -2 20 -7z m-135
-51 c10 -15 2 -19 -23 -12 -12 3 -19 9 -16 14 7 12 31 11 39 -2z m105 -25 c0
-2 -7 -4 -15 -4 -8 0 -15 4 -15 10 0 5 7 7 15 4 8 -4 15 -8 15 -10z m-60 -4
c0 -5 -4 -10 -10 -10 -5 0 -10 5 -10 10 0 6 5 10 10 10 6 0 10 -4 10 -10z
m-193 -61 c7 -7 32 -12 57 -13 24 -1 47 -4 51 -8 4 -4 13 -4 20 -1 8 2 33 -7
57 -21 24 -14 39 -26 34 -26 -6 0 0 -9 12 -20 12 -12 22 -25 22 -29 0 -13 -25
-20 -49 -14 -21 5 -25 -2 -22 -39 2 -12 -5 -18 -18 -18 -12 0 -21 4 -21 9 0
18 -32 41 -56 41 -22 0 -29 10 -25 34 3 15 -29 56 -44 56 -8 0 -14 4 -12 9 1
4 -9 18 -23 29 -18 15 -21 21 -9 22 8 0 20 -5 26 -11z m-173 -45 c9 -8 14 -20
11 -25 -8 -11 -45 12 -45 28 0 18 15 16 34 -3z m754 -112 c2 -7 -2 -10 -12 -6
-9 3 -16 11 -16 16 0 13 23 5 28 -10z m-38 -122 c0 -5 -7 -7 -15 -4 -8 4 -12
10 -9 15 6 11 24 2 24 -11z m-3824 -212 c16 2 23 -4 28 -22 3 -13 9 -31 12
-40 5 -12 0 -16 -22 -16 -23 0 -33 8 -46 36 -21 41 -23 58 -5 47 6 -4 22 -6
33 -5z m314 -394 c0 -8 -4 -14 -10 -14 -5 0 -10 4 -10 9 0 5 -3 18 -7 28 -6
16 -5 16 10 4 9 -7 17 -20 17 -27z"/>
<path d="M9210 11109 c0 -6 -8 -9 -18 -7 -29 8 -24 -26 8 -57 15 -15 36 -25
47 -23 25 5 25 45 0 74 -22 26 -37 31 -37 13z"/>
<path d="M9229 10970 c-16 -17 -17 -31 -4 -61 3 -10 2 -20 -4 -24 -18 -11 -12
-30 12 -40 14 -6 22 -19 23 -35 2 -63 46 -110 83 -90 15 7 20 6 25 -7 4 -9 9
-13 13 -10 3 3 18 0 33 -8 21 -11 26 -20 23 -37 -3 -16 5 -32 26 -53 29 -27
32 -28 48 -13 14 15 14 19 2 34 -13 16 -12 17 10 11 17 -4 29 1 46 19 12 13
27 24 32 24 6 0 16 7 23 15 10 12 10 15 0 15 -9 0 -11 11 -7 35 7 40 5 41 -27
20 -20 -13 -25 -13 -35 -1 -9 11 -8 15 5 20 15 6 14 9 -6 31 -14 15 -18 25
-11 25 8 0 11 6 7 15 -3 8 -1 15 4 15 15 0 5 53 -15 83 -20 31 -31 28 -40 -13
-7 -34 -22 -37 -65 -15 -17 9 -32 15 -35 15 -21 -1 -25 2 -25 14 0 31 -115 44
-141 16z"/>
<path d="M12258 10973 c-16 -4 -16 -7 -3 -33 20 -38 19 -60 -2 -61 -12 0 -13
-2 -5 -6 20 -8 -5 -32 -28 -26 -14 4 -21 -2 -26 -22 -4 -17 -11 -24 -20 -21
-9 3 -14 -2 -14 -14 0 -20 -20 -26 -79 -22 -23 1 -23 -1 12 -36 21 -21 37 -45
37 -53 0 -10 11 -14 40 -14 32 0 40 3 40 17 0 12 8 18 24 18 33 0 45 36 19 55
-10 8 -13 15 -7 15 6 0 14 -3 17 -7 13 -13 62 -10 79 5 13 11 15 19 8 33 -13
24 -13 30 3 28 26 -3 37 2 37 16 0 8 5 15 11 15 5 0 7 5 4 10 -8 14 -65 13
-65 -1 0 -8 -4 -8 -14 0 -11 10 -16 8 -24 -6 -16 -28 -24 -10 -26 56 0 34 -1
60 -1 60 0 -1 -8 -3 -17 -6z"/>
<path d="M7047 10780 c-9 -11 -24 -20 -32 -20 -23 0 -18 -18 15 -59 19 -25 27
-45 24 -58 -5 -17 0 -21 35 -27 23 -3 49 -15 58 -26 12 -14 20 -16 29 -9 8 6
14 7 18 0 4 -6 18 -6 37 -1 43 13 46 17 16 31 -13 6 -30 22 -36 35 -5 13 -23
26 -38 30 -32 8 -73 41 -73 60 0 17 -22 64 -29 64 -4 0 -14 -9 -24 -20z"/>
<path d="M12060 10696 c0 -3 4 -16 10 -30 13 -35 28 -33 22 4 -2 17 -10 30
-18 30 -8 0 -14 -2 -14 -4z"/>
<path d="M6790 10597 c0 -13 8 -32 19 -41 20 -18 25 -63 9 -83 -6 -8 -5 -19 2
-32 13 -25 2 -49 -34 -76 -19 -15 -23 -22 -14 -33 9 -10 13 -10 19 -1 14 24
39 1 41 -38 0 -21 1 -45 2 -53 1 -20 59 -25 77 -7 8 7 23 18 34 25 16 9 17 11
4 12 -20 0 -29 20 -29 65 0 18 -6 38 -14 44 -15 13 -27 55 -32 120 -2 25 -9
48 -17 53 -8 4 -20 21 -27 38 -15 36 -40 40 -40 7z"/>
<path d="M12120 10590 c0 -5 5 -10 10 -10 6 0 10 5 10 10 0 6 -4 10 -10 10 -5
0 -10 -4 -10 -10z"/>
<path d="M12121 10554 c13 -16 29 -19 29 -5 0 5 -9 11 -21 14 -16 4 -18 3 -8
-9z"/>
<path d="M12040 10530 c5 -18 11 -35 14 -37 8 -8 23 6 29 27 3 11 1 17 -5 14
-5 -3 -18 2 -28 11 -19 17 -19 16 -10 -15z"/>
<path d="M9315 10500 c-8 -13 15 -24 27 -12 6 6 4 11 -6 15 -8 3 -18 2 -21 -3z"/>
<path d="M12085 10450 c6 -44 11 -57 20 -49 2 3 -3 25 -11 49 l-14 45 5 -45z"/>
<path d="M12001 10461 c-8 -5 -11 -16 -7 -26 6 -15 1 -17 -33 -12 -34 4 -41 2
-46 -14 -4 -10 -11 -19 -18 -19 -8 0 -8 -3 1 -12 9 -9 6 -17 -11 -34 -12 -12
-28 -30 -36 -40 -14 -16 -12 -17 18 -11 21 4 43 1 61 -8 27 -14 29 -14 32 8 2
18 9 22 38 22 19 0 38 5 42 10 4 6 8 -2 8 -17 0 -15 5 -30 10 -33 16 -10 12
-93 -4 -102 -8 -4 -16 -19 -18 -33 -2 -19 -9 -25 -28 -25 -32 0 -74 -30 -67
-47 8 -22 115 -48 143 -36 31 15 57 3 49 -21 -4 -13 1 -27 15 -41 20 -20 21
-20 45 -3 20 15 22 20 9 29 -20 16 -18 23 6 17 11 -3 31 -3 44 1 21 5 25 13
28 58 2 29 1 58 -3 63 -4 6 -16 27 -28 48 -16 29 -17 37 -7 37 20 0 56 -48 49
-66 -3 -8 0 -14 6 -14 18 0 13 76 -6 91 -11 10 -14 10 -9 2 17 -29 -26 -10
-64 28 -29 29 -45 39 -59 34 -11 -3 -28 -2 -38 3 -10 5 -31 16 -48 25 -16 8
-33 14 -37 14 -3 -1 -10 1 -14 6 -4 4 -2 7 4 7 15 0 16 46 2 55 -15 9 -12 25
5 25 8 0 15 9 15 20 0 21 -24 27 -49 11z"/>
<path d="M11995 10300 c-3 -5 -1 -10 4 -10 6 0 11 5 11 10 0 6 -2 10 -4 10 -3
0 -8 -4 -11 -10z"/>
<path d="M12331 10186 c-14 -17 -8 -21 39 -31 l35 -7 -24 26 c-28 30 -34 31
-50 12z"/>
<path d="M12919 10175 c-13 -13 -21 -14 -44 -5 -28 11 -28 10 -12 -8 22 -24
21 -49 -3 -100 -11 -22 -20 -48 -20 -55 0 -8 -11 -18 -25 -21 -14 -4 -25 -11
-25 -17 0 -6 5 -7 10 -4 6 3 10 -1 10 -10 0 -9 -5 -13 -11 -9 -6 3 -4 -5 5
-19 10 -14 29 -28 43 -32 l26 -6 -22 -23 -22 -23 30 -25 c35 -30 39 -44 21
-81 -12 -25 -11 -30 15 -57 16 -17 38 -29 49 -29 44 4 55 -1 58 -28 2 -14 9
-29 17 -31 9 -3 11 0 5 9 -16 26 -11 49 12 55 37 10 53 36 71 122 14 69 15 84
4 94 -9 9 -12 9 -7 1 3 -6 1 -15 -5 -18 -5 -4 -8 -13 -5 -21 3 -7 1 -16 -4
-19 -5 -3 -6 -13 -3 -21 5 -13 1 -15 -18 -9 -13 4 -29 12 -36 19 -15 15 -30
91 -15 83 5 -4 13 0 16 9 4 10 13 13 27 9 18 -6 19 -5 10 13 -6 11 -26 32 -43
46 -20 16 -27 26 -18 26 8 1 0 7 -18 15 -18 8 -38 12 -45 9 -8 -3 -16 12 -23
41 -10 45 -7 54 13 34 7 -7 12 3 17 35 10 63 -3 82 -35 51z m151 -430 c0 -8
-4 -15 -10 -15 -5 0 -10 7 -10 15 0 8 5 15 10 15 6 0 10 -7 10 -15z"/>
<path d="M7750 10169 c0 -5 5 -7 10 -4 6 3 10 8 10 11 0 2 -4 4 -10 4 -5 0
-10 -5 -10 -11z"/>
<path d="M7721 10049 c-23 -9 -24 -10 -5 -24 25 -19 31 -19 37 5 7 25 -2 30
-32 19z"/>
<path d="M11115 10021 c-3 -5 -1 -12 5 -16 5 -3 10 1 10 9 0 18 -6 21 -15 7z"/>
<path d="M13038 10023 c6 -2 18 -2 25 0 6 3 1 5 -13 5 -14 0 -19 -2 -12 -5z"/>
<path d="M13096 10021 c-3 -5 1 -14 9 -21 12 -10 15 -10 15 3 0 19 -16 31 -24
18z"/>
<path d="M7824 9965 c-7 -18 12 -45 32 -45 21 0 17 38 -6 50 -16 9 -22 8 -26
-5z"/>
<path d="M13102 9943 c-6 -11 -7 -25 -3 -32 6 -9 10 -4 14 16 6 34 2 41 -11
16z"/>
<path d="M7439 9879 c-12 -8 -12 -10 1 -19 8 -5 11 -10 5 -10 -15 -1 37 -29
54 -30 11 0 11 4 -2 18 -10 10 -17 23 -17 29 0 16 -24 23 -41 12z"/>
<path d="M9835 9880 c-3 -5 -1 -10 4 -10 6 0 11 5 11 10 0 6 -2 10 -4 10 -3 0
-8 -4 -11 -10z"/>
<path d="M10775 9829 c6 -19 4 -21 -14 -16 -12 3 -19 1 -16 -4 3 -4 -3 -17
-15 -29 -11 -11 -17 -20 -13 -20 3 0 -1 -8 -11 -19 -9 -10 -14 -25 -10 -35 3
-9 -1 -27 -10 -41 -16 -25 -16 -25 12 -25 21 0 37 10 61 40 40 50 76 131 52
116 -5 -3 -14 8 -20 24 -11 34 -26 42 -16 9z"/>
<path d="M11301 9791 c-7 -5 -10 -14 -7 -20 11 -18 25 -13 23 9 -1 11 -1 20
-2 20 0 0 -6 -4 -14 -9z"/>
<path d="M10846 9771 c-3 -5 1 -12 10 -15 27 -10 36 -7 20 9 -17 17 -23 18
-30 6z"/>
<path d="M10900 9763 c0 -13 -5 -23 -11 -23 -6 0 -7 -5 -2 -12 4 -7 8 -17 8
-23 0 -5 12 -11 27 -13 31 -4 30 6 -4 63 -16 27 -18 28 -18 8z"/>
<path d="M10870 9701 c0 -10 7 -21 15 -25 17 -6 21 9 5 19 -6 4 -8 11 -5 16 4
5 1 9 -4 9 -6 0 -11 -9 -11 -19z"/>
<path d="M10488 9618 c-32 -11 -39 -39 -8 -31 11 3 20 9 20 13 0 5 10 10 23
12 16 2 18 5 7 9 -8 3 -27 2 -42 -3z"/>
<path d="M10607 9624 c-13 -13 -7 -34 9 -34 9 0 12 5 8 12 -5 8 -2 9 10 5 12
-5 16 -3 14 5 -5 15 -31 22 -41 12z"/>
<path d="M12961 9609 c8 -15 8 -23 0 -28 -7 -5 -7 -17 -2 -36 5 -17 10 -22 10
-12 1 9 8 17 17 17 32 0 3 79 -29 80 -4 0 -3 -10 4 -21z"/>
<path d="M13019 9558 c-7 -25 -3 -48 8 -48 15 0 18 36 3 45 -5 3 -10 5 -11 3z"/>
<path d="M13000 9492 c0 -7 -10 -11 -22 -9 -17 1 -23 -3 -24 -18 -1 -35 -27
-84 -47 -89 -18 -5 -18 -5 2 -27 27 -29 48 -13 45 36 -3 29 1 36 20 41 15 3
23 12 21 22 -1 9 2 23 8 30 5 7 7 15 3 19 -3 3 -6 1 -6 -5z"/>
<path d="M12081 9474 c0 -11 3 -14 6 -6 3 7 2 16 -1 19 -3 4 -6 -2 -5 -13z"/>
<path d="M9215 9330 c-4 -6 3 -10 14 -10 25 0 27 6 6 13 -8 4 -17 2 -20 -3z"/>
<path d="M12937 9305 c3 -8 9 -12 14 -9 12 7 11 11 -5 17 -10 4 -13 1 -9 -8z"/>
<path d="M12165 9230 c-3 -5 -2 -10 4 -10 5 0 13 5 16 10 3 6 2 10 -4 10 -5 0
-13 -4 -16 -10z"/>
<path d="M12249 9200 c30 -26 46 -26 24 0 -10 11 -24 20 -33 20 -11 -1 -8 -6
9 -20z"/>
<path d="M12290 8624 c0 -19 -5 -22 -30 -19 -17 2 -35 7 -40 10 -6 3 -10 0
-10 -7 0 -7 -16 -26 -35 -41 -19 -15 -35 -36 -35 -45 0 -9 -8 -48 -17 -87 -12
-51 -24 -76 -45 -93 -15 -13 -28 -29 -28 -36 0 -14 -40 -36 -68 -37 -29 -1
-75 -34 -78 -55 -4 -25 19 -47 61 -61 24 -8 37 -7 65 7 19 10 42 21 50 25 30
12 65 35 55 35 -5 0 -2 5 8 11 13 8 15 14 7 29 -7 13 -7 21 1 25 6 4 9 25 8
46 -4 53 12 68 50 46 28 -16 47 -10 50 16 1 4 2 6 4 5 1 -2 9 3 18 11 11 11
14 29 11 67 -4 48 -2 52 20 57 22 6 24 11 24 61 -1 51 -3 55 -23 53 -16 -1
-23 -8 -23 -23z"/>
<path d="M7890 8525 c0 -8 -6 -15 -14 -15 -7 0 -26 -10 -41 -22 l-28 -22 -39
21 c-21 12 -36 17 -33 12 4 -5 -1 -9 -9 -9 -17 0 -22 -25 -6 -35 15 -10 0 -33
-26 -39 -17 -5 -24 -12 -22 -24 4 -19 40 -28 66 -16 9 4 19 8 22 8 3 1 10 4
16 8 18 12 44 3 60 -20 8 -12 21 -22 27 -22 9 0 9 2 0 8 -9 6 -7 13 9 27 15
13 23 15 26 6 2 -7 14 2 28 20 19 26 21 35 12 47 -10 11 -8 18 8 31 l21 17
-23 17 c-28 21 -54 22 -54 2z"/>
<path d="M8010 8524 c0 -8 5 -12 10 -9 6 4 8 11 5 16 -9 14 -15 11 -15 -7z"/>
<path d="M12275 8360 c-3 -5 -1 -10 4 -10 6 0 11 5 11 10 0 6 -2 10 -4 10 -3
0 -8 -4 -11 -10z"/>
</g>
</svg>
