<?xml version="1.0" standalone="no"?>
<!DOCTYPE svg PUBLIC "-//W3C//DTD SVG 20010904//EN"
 "http://www.w3.org/TR/2001/REC-SVG-20010904/DTD/svg10.dtd">
<svg version="1.0" xmlns="http://www.w3.org/2000/svg"
 width="603.589252pt" height="884.970082pt" viewBox="0 0 603.589252 884.970082"
 preserveAspectRatio="xMidYMid meet">
<metadata>
Created by potrace 1.15, written by Peter Selinger 2001-2017
</metadata>
<g transform="translate(-720.610727,1384.000000) scale(0.100000,-0.100000)"
fill="#222222" stroke="none">
<path d="M11720 13817 c0 -16 9 -28 25 -35 23 -11 24 -10 15 13 -6 16 -6 25 0
25 6 0 10 5 10 10 0 6 -11 10 -25 10 -20 0 -25 -5 -25 -23z"/>
<path d="M11672 13779 c-16 -26 0 -49 29 -42 15 4 19 12 17 32 -4 32 -29 38
-46 10z"/>
<path d="M11705 13698 c5 -19 -1 -26 -32 -41 -21 -9 -49 -18 -63 -20 -20 -2
-26 -9 -30 -37 -4 -26 -11 -36 -30 -41 l-25 -6 26 -11 c15 -6 37 -8 49 -5 17
5 20 11 15 31 -6 25 -5 25 23 -6 17 -18 37 -32 46 -32 9 0 16 -8 16 -17 1 -24
30 -64 30 -41 0 8 7 21 15 28 8 7 13 16 10 20 -3 4 2 10 10 14 8 3 15 13 15
21 0 9 4 14 9 10 5 -3 13 0 17 6 3 6 1 15 -6 19 -7 4 -16 25 -19 45 -5 30 -14
43 -44 62 l-38 24 6 -23z"/>
<path d="M11777 13454 c-8 -8 1 -24 13 -24 4 0 10 7 14 15 5 15 -14 21 -27 9z"/>
<path d="M11750 13422 c0 -23 -19 -42 -35 -35 -7 2 -16 -4 -19 -14 -3 -11 -22
-25 -41 -32 -19 -7 -35 -17 -35 -22 0 -6 4 -8 9 -4 6 3 13 0 18 -7 4 -7 18
-18 29 -25 20 -11 24 -7 48 38 21 38 33 49 52 49 29 0 33 29 6 53 -24 22 -32
21 -32 -1z"/>
<path d="M11660 13251 c9 -17 8 -21 -5 -21 -8 0 -21 -11 -27 -25 -6 -14 -17
-25 -25 -25 -7 0 -13 -7 -13 -16 0 -26 -29 -47 -71 -51 -29 -3 -41 0 -45 11
-3 9 -10 13 -15 10 -10 -6 -1 -53 14 -71 5 -7 6 -13 2 -13 -4 0 3 -9 16 -19
17 -14 26 -16 31 -8 6 9 11 8 18 -3 7 -11 5 -16 -5 -18 -8 -2 -15 -8 -15 -13
0 -5 -6 -8 -12 -6 -7 1 -13 -7 -13 -18 0 -16 -15 -25 -77 -45 -67 -22 -79 -29
-88 -54 -7 -22 -7 -32 1 -37 20 -12 40 2 34 22 -4 13 -1 19 9 19 9 0 16 7 16
15 0 18 14 19 41 5 27 -15 65 5 48 26 -9 11 -8 14 5 14 9 0 16 5 16 11 0 6 22
9 60 6 43 -3 60 0 64 9 3 8 11 11 19 8 8 -3 20 2 27 11 11 13 11 21 2 36 -16
24 -15 29 3 29 8 0 15 7 15 15 0 8 5 15 11 15 7 0 9 10 4 28 -4 15 -8 59 -9
97 -2 64 -4 70 -25 73 -20 3 -21 1 -11 -17z"/>
<path d="M10020 13160 c0 -8 5 -22 10 -30 9 -13 10 -13 10 0 0 8 -5 22 -10 30
-9 13 -10 13 -10 0z"/>
<path d="M10060 13093 c0 -11 25 -25 49 -27 8 -1 17 -8 22 -16 22 -42 39 -85
39 -100 0 -9 11 -22 25 -28 20 -9 26 -8 34 6 9 15 11 14 19 -8 7 -19 5 -31
-11 -51 -14 -20 -18 -38 -15 -71 3 -29 0 -46 -9 -53 -8 -6 -15 -32 -16 -63 -1
-28 -4 -52 -7 -52 -3 0 -14 -16 -24 -35 -10 -19 -27 -37 -36 -40 -12 -4 -16
-13 -12 -30 2 -14 -1 -32 -8 -40 -7 -9 -10 -18 -7 -21 3 -3 -4 -15 -15 -26
-17 -17 -19 -28 -14 -69 5 -38 3 -53 -9 -65 -12 -12 -19 -13 -29 -5 -9 8 -16
8 -20 2 -4 -6 -12 -8 -19 -6 -27 10 -36 -9 -24 -58 11 -48 4 -74 -13 -47 -7
10 -9 0 -8 -32 2 -46 4 -48 35 -54 39 -7 39 -8 13 -34 -11 -11 -20 -31 -20
-45 0 -14 -7 -28 -15 -31 -8 -4 -15 -11 -15 -18 -1 -24 -40 -58 -60 -53 -11 3
-18 1 -14 -4 3 -5 12 -9 20 -9 20 0 8 -76 -18 -113 -19 -28 -19 -39 -2 -81 7
-18 4 -19 -53 -13 l-61 6 -6 -34 c-7 -37 -15 -42 -34 -23 -9 9 -12 8 -12 -4 0
-9 5 -20 11 -24 8 -4 9 -25 5 -61 -4 -36 -3 -52 4 -48 19 12 31 -5 19 -28 -18
-33 -31 -38 -53 -19 -18 16 -19 16 -13 -16 5 -24 1 -45 -14 -74 l-21 -42 26
-19 c26 -19 36 -57 14 -57 -6 0 -8 -3 -5 -7 4 -3 2 -12 -3 -18 -7 -9 -6 -16 5
-25 8 -7 15 -24 15 -39 0 -20 2 -23 10 -11 8 13 12 12 28 -5 17 -19 52 -88 36
-73 -4 5 -14 -1 -21 -12 -10 -14 -21 -19 -34 -15 -15 5 -19 1 -19 -16 0 -18
-3 -20 -12 -11 -7 7 -22 12 -34 12 -11 0 -35 14 -52 30 -18 17 -37 30 -44 30
-7 0 -37 12 -66 28 -50 25 -54 26 -66 10 -7 -10 -15 -16 -17 -13 -8 7 -89 15
-89 9 0 -3 11 -19 25 -36 20 -24 23 -33 14 -50 -6 -11 -8 -22 -5 -25 3 -4 1
-12 -5 -19 -17 -20 -1 -51 31 -63 17 -5 30 -16 30 -24 0 -18 -24 -29 -45 -21
-8 4 -15 1 -15 -6 0 -8 -9 -10 -24 -6 -15 4 -28 0 -37 -10 -23 -28 -57 -35
-89 -19 -18 9 -31 11 -35 5 -3 -6 -18 -7 -33 -4 -15 4 -24 3 -20 -1 4 -5 3
-14 -3 -22 -9 -9 -7 -19 4 -36 15 -23 13 -117 -3 -117 -4 0 -17 -9 -30 -20
-25 -22 -45 -26 -55 -10 -11 17 -37 11 -33 -7 3 -18 -31 -61 -90 -113 -24 -21
-73 -22 -89 -2 -12 15 -13 12 -11 -18 3 -31 1 -35 -20 -32 -40 4 -124 -50
-115 -74 7 -18 -2 -18 -21 2 -18 17 -22 49 -5 39 6 -4 0 9 -13 28 -16 25 -26
33 -34 26 -15 -12 -64 8 -83 35 -12 17 -15 17 -23 2 -5 -9 -19 -16 -31 -16
-13 0 -28 -5 -35 -12 -22 -22 -80 -25 -140 -7 -37 12 -45 11 -53 -1 -7 -10
-12 -11 -15 -4 -7 16 -64 -5 -64 -23 0 -7 -9 -13 -20 -13 -11 0 -23 -7 -27
-16 -4 -12 -14 -14 -39 -9 -32 6 -34 4 -34 -23 0 -34 -16 -52 -48 -52 -16 0
-21 -4 -16 -12 6 -10 4 -10 -8 0 -14 11 -18 10 -26 -4 -6 -11 -17 -15 -31 -11
-18 4 -19 2 -11 -13 6 -10 10 -20 10 -22 0 -2 -27 -3 -60 -3 -56 1 -60 -1 -58
-19 2 -16 -3 -22 -22 -25 -14 -1 -28 -8 -31 -13 -11 -17 -28 0 -22 21 3 11 17
21 35 25 23 4 29 10 24 22 -4 9 -2 22 4 29 14 17 -33 58 -49 42 -6 -6 -11 -19
-11 -29 0 -10 -4 -18 -10 -18 -5 0 -10 -7 -10 -15 0 -17 -16 -20 -25 -5 -4 6
-10 8 -15 5 -5 -3 -24 4 -42 15 -50 31 -109 45 -119 28 -6 -8 -9 -9 -9 -1 0 6
-9 9 -21 6 -12 -4 -18 -11 -15 -20 3 -8 6 -16 6 -18 0 -2 22 -1 48 2 39 4 50
2 55 -11 4 -10 -1 -20 -13 -26 -31 -16 -24 -27 34 -53 47 -22 54 -29 60 -62 5
-26 3 -44 -8 -60 -9 -14 -16 -31 -16 -39 0 -9 -9 -20 -21 -26 -19 -11 -19 -13
-5 -29 9 -10 13 -21 9 -24 -3 -4 2 -16 12 -27 14 -16 16 -23 7 -32 -16 -16
-15 -38 2 -57 7 -9 16 -32 19 -52 5 -32 3 -36 -13 -32 -13 4 -19 -1 -22 -19
-2 -12 -13 -27 -25 -33 -27 -12 -36 -31 -24 -53 9 -19 4 -45 -9 -37 -4 3 -26
-13 -48 -34 -35 -34 -39 -41 -26 -52 9 -7 14 -23 11 -36 -2 -13 0 -23 5 -23 5
0 7 -4 3 -9 -7 -12 32 -34 45 -26 6 3 10 1 10 -5 0 -6 5 -8 11 -5 6 4 8 13 5
21 -7 19 1 18 33 -5 22 -16 33 -18 71 -9 103 22 104 22 123 -11 19 -33 69 -65
82 -53 3 4 13 -2 21 -13 8 -11 18 -20 22 -20 4 -1 21 -9 39 -18 18 -9 38 -17
46 -17 16 0 61 -49 53 -58 -4 -3 11 -15 31 -26 36 -20 37 -23 34 -72 -2 -44 2
-55 26 -81 32 -34 73 -52 73 -32 0 7 3 9 7 6 3 -4 12 -2 20 5 12 10 13 7 7
-18 -6 -26 -5 -27 8 -11 13 18 15 18 38 0 14 -10 37 -24 52 -30 23 -10 26 -10
21 2 -6 17 5 19 26 6 7 -5 11 -13 8 -18 -10 -16 59 -46 95 -40 89 14 102 17
109 28 3 6 16 8 27 5 11 -4 23 -2 27 4 9 15 36 12 57 -7 11 -9 18 -11 18 -5 0
7 -5 12 -11 12 -5 0 -9 8 -8 18 4 27 -11 62 -27 62 -23 0 -17 17 21 59 24 27
35 48 35 70 0 25 4 31 22 31 12 0 37 17 59 41 30 32 42 39 59 34 16 -5 21 -3
18 6 -6 18 39 41 64 34 12 -4 18 -1 18 9 0 22 13 20 35 -4 10 -11 24 -20 32
-20 7 0 13 -6 13 -13 0 -6 19 -33 43 -58 23 -26 51 -59 62 -74 16 -21 30 -28
57 -29 20 -1 45 -9 56 -19 10 -9 23 -17 29 -17 20 0 34 -28 43 -86 8 -48 7
-59 -7 -69 -11 -8 -13 -14 -5 -19 7 -4 12 -19 12 -33 0 -70 81 -115 201 -111
60 2 77 7 91 23 16 19 16 19 37 1 12 -11 21 -14 21 -8 0 7 17 23 39 36 37 24
42 24 110 14 57 -8 78 -8 97 2 13 8 27 11 30 7 4 -3 15 -2 26 4 14 7 23 7 34
-1 7 -7 21 -9 30 -6 9 4 28 -4 46 -19 16 -14 33 -25 38 -25 4 0 11 -16 14 -35
4 -19 10 -35 14 -35 4 0 20 -11 36 -24 l30 -23 -22 -30 c-16 -23 -18 -33 -10
-41 7 -7 8 -12 2 -12 -16 0 -14 -40 2 -47 7 -3 11 -9 8 -15 -3 -5 3 -19 14
-31 24 -26 45 -75 36 -88 -3 -5 2 -19 10 -31 9 -12 16 -32 16 -44 0 -12 7 -27
15 -34 18 -15 20 -50 2 -50 -14 0 -47 -60 -47 -85 0 -8 -4 -15 -10 -15 -5 0
-10 -9 -10 -20 0 -11 -7 -20 -15 -20 -8 0 -15 -4 -15 -9 0 -5 -14 -11 -31 -15
-28 -5 -30 -9 -24 -35 4 -19 1 -33 -9 -44 -9 -9 -16 -26 -16 -39 0 -13 -7 -33
-15 -45 -8 -12 -12 -29 -8 -39 4 -11 0 -22 -12 -30 -10 -8 -19 -31 -22 -58 -4
-28 -11 -46 -18 -46 -7 0 -16 -7 -19 -16 -3 -8 -10 -13 -15 -10 -16 10 -41 -5
-41 -25 0 -10 -7 -19 -15 -19 -8 0 -15 -7 -15 -16 0 -13 -7 -15 -35 -10 l-35
7 18 -31 c14 -25 15 -32 4 -39 -8 -4 -14 -12 -14 -17 -1 -20 -11 -34 -24 -34
-8 0 -14 -9 -14 -20 0 -14 -7 -20 -21 -20 -12 0 -23 -8 -26 -20 -3 -11 -12
-20 -20 -20 -11 0 -13 -3 -5 -13 8 -9 2 -29 -19 -75 -17 -34 -34 -62 -40 -62
-14 0 -11 -41 6 -74 8 -15 13 -32 10 -36 -3 -4 4 -29 16 -55 16 -36 18 -49 9
-60 -7 -8 -9 -19 -5 -25 3 -5 2 -10 -4 -10 -5 0 -12 6 -14 13 -4 9 -6 9 -6 0
-2 -23 -31 -13 -37 12 -3 14 -10 25 -15 25 -13 0 -11 -24 4 -39 10 -10 9 -14
-5 -22 -10 -6 -18 -21 -18 -34 0 -28 -8 -31 -35 -11 -16 12 -24 11 -57 -6 -21
-11 -45 -17 -54 -14 -25 9 -63 -4 -57 -20 6 -16 -33 -69 -41 -55 -6 8 -70 22
-129 26 -16 1 -38 12 -50 24 -16 16 -17 20 -6 16 10 -4 20 -2 23 3 9 15 -26
39 -66 46 -33 6 -38 4 -38 -13 0 -14 -5 -18 -20 -14 -15 4 -19 2 -14 -10 3 -9
11 -14 18 -11 9 3 13 -5 14 -26 0 -16 -3 -30 -8 -30 -4 0 -11 -7 -14 -16 -8
-20 13 -47 31 -40 7 3 13 1 13 -5 0 -5 17 -17 38 -26 57 -24 74 -60 22 -50
l-29 6 16 -35 c16 -32 16 -36 0 -51 -15 -16 -18 -15 -37 2 -11 10 -20 15 -20
10 0 -4 -6 -2 -14 4 -11 9 -18 0 -36 -46 -42 -106 -51 -121 -79 -131 -16 -6
-40 -22 -54 -36 -14 -14 -33 -26 -41 -26 -9 0 -22 -12 -30 -27 -8 -16 -45 -57
-83 -93 -44 -42 -72 -77 -78 -100 -6 -20 -20 -39 -33 -45 -13 -5 -25 -20 -28
-32 -5 -18 -11 -22 -29 -17 -14 3 -24 0 -28 -9 -9 -24 12 -98 33 -116 23 -19
29 -77 12 -108 -7 -13 -9 -23 -5 -23 4 0 1 -5 -7 -11 -12 -9 -12 -10 4 -5 11
4 26 0 37 -10 10 -9 25 -14 33 -11 9 4 36 0 61 -7 25 -8 45 -12 45 -8 0 3 9
-3 20 -13 11 -10 20 -15 20 -11 0 11 63 -25 93 -53 15 -14 27 -31 27 -37 0 -6
6 -16 13 -22 15 -13 42 1 33 17 -4 6 -3 11 2 11 21 0 22 -33 1 -48 -15 -10
-18 -17 -10 -25 6 -6 11 -19 11 -29 0 -32 -37 -94 -64 -106 -20 -9 -24 -17
-21 -41 2 -17 -2 -34 -10 -41 -18 -15 -8 -38 27 -68 19 -16 28 -33 28 -53 0
-18 7 -32 20 -39 11 -6 18 -15 16 -19 -6 -10 24 -39 57 -55 12 -7 22 -19 22
-27 0 -9 12 -31 28 -50 15 -18 27 -45 27 -60 0 -21 11 -37 41 -61 35 -28 38
-34 25 -44 -22 -16 -20 -27 3 -13 15 10 27 8 63 -9 47 -23 88 -29 88 -12 0 6
13 10 30 10 23 0 31 5 36 24 3 14 2 30 -2 37 -5 9 -2 10 9 6 14 -5 15 1 10 44
-5 46 -5 49 18 51 13 0 30 2 36 2 21 2 45 44 38 66 -4 14 -2 20 9 20 9 0 23
11 32 25 14 21 15 31 5 51 -15 33 -14 44 4 44 8 0 19 9 25 19 5 11 19 23 30
26 14 4 20 15 20 36 0 22 5 29 20 29 12 0 24 9 29 23 5 13 16 28 24 35 8 7 13
22 10 32 -4 15 0 20 15 20 29 0 57 56 40 79 -23 30 -63 60 -80 61 -22 0 -23
13 -3 30 11 9 12 16 5 25 -8 10 -6 13 7 11 12 -1 17 5 15 17 -2 10 3 17 12 17
8 0 17 4 21 10 6 10 -13 50 -30 62 -5 4 7 5 28 1 34 -5 37 -4 37 18 0 13 -7
33 -15 43 -8 11 -15 31 -15 45 0 15 -10 34 -26 46 -24 19 -25 24 -14 44 11 21
9 26 -16 47 -23 18 -25 23 -11 24 16 0 21 19 20 68 -1 6 3 12 8 12 6 0 5 9 -1
20 -7 14 -7 20 0 20 5 0 10 9 10 20 0 12 -5 17 -13 14 -8 -3 -13 4 -14 17 -3
29 46 81 69 73 24 -7 55 23 39 39 -6 6 -11 17 -11 23 0 16 86 30 103 17 6 -6
28 -13 48 -16 34 -5 38 -3 55 29 17 32 30 39 62 35 7 -1 15 5 18 14 5 11 10
13 19 5 10 -8 22 -4 47 18 30 27 89 49 112 43 5 -1 6 7 3 19 -6 21 0 25 21 11
9 -6 11 -19 7 -44 -4 -20 -10 -35 -14 -33 -3 2 -7 -25 -8 -60 -2 -57 0 -65 20
-76 12 -6 35 -11 50 -9 15 1 35 -3 43 -9 9 -8 33 -11 66 -8 29 3 65 2 80 -3
23 -6 31 -4 41 12 8 13 23 19 50 19 23 0 40 5 43 14 3 8 12 12 20 9 9 -3 14 2
14 15 0 24 49 47 79 37 13 -4 21 -2 21 5 0 17 39 55 58 55 12 0 17 8 16 30 0
17 2 32 5 35 4 3 14 31 24 62 10 32 22 60 27 63 6 3 7 -1 4 -10 -4 -11 -2 -14
9 -9 8 3 18 1 21 -4 3 -6 -1 -13 -9 -16 -13 -5 -14 -9 -3 -28 7 -13 17 -39 23
-58 9 -31 14 -34 53 -37 30 -2 42 1 42 11 0 18 74 16 93 -3 14 -14 16 -34 4
-42 -18 -13 4 -29 38 -29 23 0 38 6 44 19 8 14 7 20 -2 24 -7 2 -12 22 -12 43
0 37 2 39 35 42 19 2 32 0 28 -3 -15 -15 12 -43 47 -49 20 -4 33 -11 30 -16
-3 -5 -1 -11 4 -14 17 -11 23 15 11 44 -10 25 -10 32 4 46 23 22 48 1 46 -40
-3 -45 -1 -53 9 -37 7 10 29 -7 95 -73 47 -47 86 -91 86 -96 0 -6 19 -10 43
-10 31 0 47 -6 61 -21 14 -17 20 -19 26 -8 10 15 -6 39 -25 39 -6 0 -12 6 -13
13 -1 6 -4 27 -8 44 -5 28 -2 36 25 59 35 29 39 49 14 76 -12 13 -17 38 -19
80 -1 45 -6 65 -18 74 -27 19 -1 27 34 9 16 -8 30 -19 30 -24 0 -16 30 -21 50
-9 15 10 27 10 50 1 16 -6 30 -7 30 -2 0 5 8 9 19 9 10 0 24 6 30 14 9 11 19
12 41 5 24 -9 35 -6 72 17 23 14 52 37 63 50 23 26 86 46 106 34 7 -5 17 -6
23 -3 5 3 15 -2 23 -12 7 -11 13 -14 13 -8 0 6 11 14 25 17 32 8 82 -22 77
-46 -2 -11 3 -18 11 -18 17 0 30 -27 20 -42 -8 -15 16 -1 45 25 15 14 22 32
22 56 0 50 10 83 24 78 6 -2 16 3 22 12 13 17 3 55 -22 82 -23 25 12 94 42 82
10 -4 12 0 8 11 -4 10 -1 16 9 16 8 0 22 11 30 24 14 21 14 25 2 30 -8 3 -15
16 -15 28 0 15 -13 32 -37 48 -20 13 -42 39 -49 56 -15 36 -42 51 -51 28 -5
-13 -9 -11 -26 7 -14 15 -17 24 -9 27 18 6 2 64 -24 85 -13 10 -21 24 -17 32
3 9 0 22 -7 30 -7 8 -10 26 -8 40 3 14 1 25 -6 25 -6 0 -17 4 -25 9 -11 7 -10
17 8 54 18 37 20 51 12 87 -5 23 -12 44 -15 47 -3 3 -1 14 5 25 13 25 -6 79
-26 72 -8 -3 -16 4 -20 16 -7 23 18 60 42 60 7 0 16 7 19 15 4 11 21 15 55 15
39 0 49 3 51 18 0 9 2 24 2 32 1 8 -5 20 -14 27 -10 9 -11 12 -2 13 6 0 12 7
12 16 0 13 -6 15 -32 9 -18 -3 -60 -8 -93 -11 -33 -2 -70 -6 -82 -9 -16 -4
-23 -1 -23 9 0 15 -48 28 -56 14 -8 -13 -24 1 -24 21 0 10 -11 28 -25 41 -16
15 -23 30 -19 42 3 11 0 20 -10 24 -8 3 -22 17 -31 31 -10 14 -12 22 -6 18 6
-3 31 2 54 13 23 11 65 30 94 43 29 13 56 33 62 46 6 13 15 23 21 23 5 0 10
10 10 23 0 15 11 29 31 41 24 14 29 23 25 41 -4 14 0 28 10 36 14 11 48 77 46
89 0 3 -3 12 -6 20 -4 10 4 19 24 28 16 8 30 20 30 27 0 8 16 29 35 47 36 34
50 77 27 85 -9 4 -11 -2 -6 -22 6 -25 5 -26 -13 -17 -28 15 -46 39 -38 51 9
16 -13 124 -28 133 -39 24 -47 35 -47 66 0 20 6 35 15 38 10 4 15 20 15 45 0
29 4 39 16 39 12 0 15 7 12 30 -3 18 0 30 6 30 6 0 17 9 24 20 10 17 9 23 -8
40 -11 11 -20 24 -20 30 0 5 -6 7 -13 4 -7 -2 -22 4 -32 16 -10 11 -26 20 -37
20 -10 0 -18 4 -18 10 0 5 6 9 12 7 7 -1 14 9 16 23 2 14 8 29 13 35 5 5 9 17
9 27 0 10 5 18 12 18 6 0 2 10 -10 23 -27 29 -28 37 -1 37 16 0 19 4 14 19 -5
16 0 20 22 23 17 2 32 12 39 26 9 19 13 20 17 8 4 -11 20 -16 49 -17 24 -1 35
-3 26 -6 -22 -5 -22 -13 -4 -38 13 -18 14 -17 21 13 3 17 10 31 13 30 22 -4
42 17 42 44 0 16 4 27 9 23 5 -3 12 -1 16 5 10 17 24 2 18 -20 -6 -24 24 -29
33 -5 4 9 11 14 18 13 17 -3 56 21 56 36 0 7 -9 25 -21 40 l-20 26 25 10 c29
10 34 35 11 44 -18 7 -20 62 -2 69 9 3 7 9 -5 23 -13 15 -16 30 -11 57 4 26 1
43 -9 55 -19 21 -10 101 21 184 11 32 21 66 21 77 0 11 4 22 9 25 5 3 9 29 9
56 1 28 4 55 7 60 4 6 0 22 -9 35 -18 28 -7 40 35 37 19 -2 25 3 25 15 -1 10
4 19 9 21 6 2 14 10 18 18 4 8 18 14 31 14 16 0 32 12 50 40 14 22 26 44 26
50 0 13 45 24 66 16 8 -3 22 1 30 9 9 8 12 15 9 15 -4 0 0 11 9 25 10 14 14
34 11 45 -3 10 3 33 14 51 29 47 6 58 -36 17 -29 -28 -33 -29 -47 -15 -20 20
-20 27 -1 27 16 0 21 25 7 34 -9 5 -8 128 1 143 8 12 -22 55 -33 48 -12 -7
-23 52 -13 67 4 7 8 17 8 23 0 12 -38 52 -47 48 -3 -2 -14 5 -24 14 -10 10
-20 16 -23 13 -8 -7 -52 61 -45 71 3 5 2 9 -3 10 -59 3 -102 15 -120 32 -13
11 -35 22 -50 23 l-27 3 29 -23 c20 -16 26 -28 22 -40 -4 -10 -1 -24 8 -32 20
-20 19 -32 -2 -30 -10 0 -17 -5 -15 -11 1 -7 -6 -13 -15 -13 -14 0 -13 -4 6
-24 23 -24 23 -41 5 -108 -6 -20 -28 -14 -61 15 -23 20 -24 20 -35 -21 -2 -9
-12 -6 -31 12 -25 23 -38 54 -18 41 5 -3 11 5 13 17 2 15 -6 31 -22 45 l-25
22 42 7 c33 5 44 12 54 35 6 16 19 34 28 39 15 9 14 11 -1 24 -20 15 -24 51
-6 62 7 5 5 12 -8 22 -18 14 -18 14 1 7 74 -28 95 -6 95 101 0 62 -4 76 -30
115 -16 24 -30 55 -30 69 0 31 -36 39 -45 10 -5 -16 -13 -18 -62 -13 -54 6
-56 5 -51 -15 8 -31 -15 -28 -32 3 -7 14 -19 25 -27 25 -7 0 -13 8 -13 18 0
11 -9 27 -20 37 -11 10 -17 21 -15 25 3 4 -5 8 -18 8 -12 1 -38 5 -57 10 l-35
8 26 26 c19 19 23 30 16 37 -17 17 -24 13 -31 -14 -4 -14 -12 -25 -20 -25 -16
0 -36 -63 -25 -81 4 -7 4 -19 -2 -25 -6 -7 -4 -16 6 -24 18 -15 20 -30 4 -30
-7 0 -20 -9 -29 -20 -15 -17 -22 -19 -44 -10 -14 5 -26 14 -26 20 0 5 -7 10
-15 10 -8 0 -15 -4 -15 -9 0 -5 -18 -7 -40 -5 -41 4 -47 -5 -40 -55 1 -9 -5
-12 -19 -8 -12 3 -21 1 -21 -4 0 -18 -29 -9 -35 11 -9 27 -29 25 -49 -5 -14
-21 -20 -23 -36 -15 -16 9 -18 8 -14 -5 4 -9 0 -21 -9 -28 -8 -7 -17 -21 -19
-32 -2 -14 -12 -21 -35 -23 -26 -3 -38 3 -61 28 -25 29 -85 60 -119 62 -7 1
-13 6 -13 12 0 6 -21 35 -48 64 -37 40 -54 52 -77 52 -17 0 -37 6 -46 13 -21
16 -20 47 1 47 14 0 17 9 18 43 1 55 -6 77 -23 77 -8 0 -17 10 -19 23 -18 95
-32 146 -48 172 -24 41 -23 64 2 34 l19 -24 -5 35 c-4 26 -1 40 10 49 9 8 16
29 16 51 0 32 4 39 26 44 38 10 28 40 -15 44 -24 3 -31 0 -25 -9 5 -9 2 -10
-9 -6 -12 4 -17 1 -17 -12 0 -21 -52 -69 -58 -53 -2 6 -9 9 -16 6 -7 -3 -17
11 -26 33 -7 21 -15 32 -17 26 -5 -15 -43 -18 -43 -4 0 5 -16 15 -35 21 -25 8
-41 23 -55 50 -22 43 -43 55 -72 39 -11 -6 -30 -8 -43 -5 -14 4 -25 1 -28 -7
-4 -9 -7 -9 -18 1 -19 18 -50 16 -43 -3 4 -8 1 -22 -6 -30 -11 -13 -16 -12
-41 6 -17 12 -36 18 -44 15 -8 -3 -31 6 -51 19 -20 14 -41 25 -45 25 -5 0 -9
7 -9 15 0 14 -5 17 -40 19 -11 1 -15 14 -15 51 0 45 -2 50 -25 55 -35 7 -36
53 -2 58 15 2 22 -2 22 -12 0 -9 6 -16 14 -16 19 0 10 34 -15 56 -10 9 -19 23
-19 30 0 9 -10 13 -25 12 -14 -1 -25 -8 -25 -15 0 -18 -35 -16 -70 2 -31 16
-37 29 -20 40 6 3 10 13 10 22 0 12 -7 14 -34 10 -19 -3 -39 0 -45 6 -20 20
-12 26 26 20 32 -5 36 -4 30 12 -4 10 -3 23 2 29 13 15 3 57 -13 55 -32 -4
-39 1 -21 15 17 12 18 18 7 40 -6 14 -16 26 -22 26 -5 0 -10 6 -10 13 0 16
-56 46 -90 49 -14 1 -46 -6 -72 -16 -29 -11 -54 -15 -65 -11 -10 5 -24 9 -31
11 -7 1 -24 9 -37 18 -15 10 -40 14 -70 12 -25 -2 -48 1 -51 5 -3 5 -18 9 -33
9 -15 0 -32 5 -39 12 -8 8 -12 8 -12 1z m2735 -2012 c3 -5 1 -12 -5 -16 -5 -3
-10 1 -10 9 0 18 6 21 15 7z m-325 -51 c0 -5 -2 -10 -4 -10 -3 0 -8 5 -11 10
-3 6 -1 10 4 10 6 0 11 -4 11 -10z m189 -24 c31 6 77 -17 73 -37 -1 -9 3 -7
12 4 8 11 12 26 9 34 -3 8 0 19 8 24 21 13 33 11 20 -5 -6 -7 -12 -25 -13 -40
-4 -50 -42 -54 -101 -13 -16 10 -31 17 -34 13 -3 -3 2 -8 11 -12 9 -3 16 -10
16 -16 0 -5 -4 -6 -10 -3 -5 3 -10 1 -10 -4 0 -6 -9 -11 -20 -11 -11 0 -20 -4
-20 -10 0 -19 -30 -10 -46 15 -9 13 -31 30 -50 37 -19 6 -34 15 -34 19 0 13
100 6 111 -8 16 -18 29 -7 30 25 0 26 1 26 11 5 8 -17 17 -21 37 -17z m-767
-100 c-3 -6 -5 -19 -4 -28 2 -13 -3 -18 -20 -18 -25 0 -64 20 -40 20 7 0 20 7
28 15 9 8 11 15 5 15 -15 0 -14 27 2 33 16 6 39 -22 29 -37z m260 -104 c-6 -2
-10 -8 -6 -13 8 -14 -6 -11 -22 5 -20 21 -18 24 14 18 15 -3 21 -7 14 -10z
m-285 -24 c-3 -8 -6 -5 -6 6 -1 11 2 17 5 13 3 -3 4 -12 1 -19z m-4072 -638
c3 -5 -1 -10 -9 -10 -9 0 -16 5 -16 10 0 6 4 10 9 10 6 0 13 -4 16 -10z m-130
-10 c3 -5 1 -10 -4 -10 -6 0 -11 5 -11 10 0 6 2 10 4 10 3 0 8 -4 11 -10z
m1536 -3097 c-12 -20 -14 -14 -5 12 4 9 9 14 11 11 3 -2 0 -13 -6 -23z m560 4
c-1 -12 -15 -9 -19 4 -3 6 1 10 8 8 6 -3 11 -8 11 -12z m1233 -88 c-6 -11 -24
-2 -24 11 0 5 7 7 15 4 8 -4 12 -10 9 -15z m-96 -11 c9 -9 12 -9 12 0 0 7 5
12 10 12 6 0 10 -10 10 -23 0 -13 5 -28 12 -35 9 -9 7 -12 -10 -12 -12 0 -22
5 -22 10 0 6 -6 10 -13 10 -15 0 -48 36 -40 44 10 10 28 7 41 -6z m-1168 -28
c0 -5 -2 -10 -4 -10 -3 0 -8 5 -11 10 -3 6 -1 10 4 10 6 0 11 -4 11 -10z
m-347 -55 c4 8 14 15 24 15 12 0 14 -3 6 -8 -6 -4 -14 -24 -18 -44 -4 -21 -13
-43 -21 -49 -12 -10 -13 -9 -7 6 5 14 3 17 -9 12 -9 -3 -23 2 -32 12 -22 25
-20 40 5 34 19 -5 20 -3 14 18 -7 23 -7 24 12 6 18 -16 21 -16 26 -2z m1621
-15 c30 -11 34 -35 9 -44 -20 -8 -59 27 -49 43 9 13 8 13 40 1z m271 -140 c3
-5 1 -10 -4 -10 -6 0 -11 5 -11 10 0 6 2 10 4 10 3 0 8 -4 11 -10z"/>
<path d="M10879 12813 c-10 -2 -19 -13 -22 -24 -4 -14 1 -21 19 -25 13 -3 24
-11 24 -16 0 -6 -6 -8 -14 -5 -21 8 -26 -15 -8 -36 14 -16 13 -19 -8 -42 -19
-20 -26 -23 -38 -12 -13 10 -14 9 -4 -9 26 -48 73 -56 99 -17 8 13 19 20 24
17 5 -3 9 5 9 18 0 13 5 29 11 35 8 8 5 14 -10 22 -28 16 -27 29 3 24 13 -3
32 -1 41 5 15 8 13 11 -14 20 -18 6 -45 20 -60 32 -16 11 -31 19 -33 19 -1 -1
-10 -3 -19 -6z"/>
<path d="M11256 12802 c-5 -14 -14 -17 -41 -14 -21 3 -35 0 -35 -7 0 -6 19
-11 48 -11 35 0 50 5 59 19 7 10 9 22 6 25 -12 12 -32 6 -37 -12z"/>
<path d="M11068 12763 c7 -3 16 -2 19 1 4 3 -2 6 -13 5 -11 0 -14 -3 -6 -6z"/>
<path d="M10975 12689 c-4 -6 -5 -13 -2 -16 7 -7 27 6 27 18 0 12 -17 12 -25
-2z"/>
<path d="M8450 12460 c14 -27 3 -45 -17 -28 -13 10 -15 8 -13 -17 4 -58 1 -65
-26 -65 -16 0 -24 -5 -21 -12 2 -7 -6 -21 -17 -31 -21 -19 -69 -20 -110 -2
-16 7 -18 5 -13 -8 5 -14 0 -17 -27 -17 -18 0 -39 -7 -46 -15 -15 -18 -47 -11
-73 16 -22 24 -37 24 -31 2 3 -12 -14 -38 -45 -73 -80 -87 -83 -91 -90 -119
-6 -21 -15 -27 -46 -32 -21 -4 -44 -14 -50 -23 -7 -9 -22 -16 -35 -16 -21 0
-22 -1 -6 -22 53 -74 51 -66 29 -106 -20 -36 -21 -49 -9 -143 1 -14 6 -31 10
-37 9 -15 -1 -32 -17 -32 -16 0 -21 -56 -6 -65 11 -7 -18 -34 -35 -31 -8 1
-50 -93 -44 -99 12 -12 108 -43 108 -35 0 6 23 10 55 9 45 -2 60 2 78 19 17
16 36 22 69 22 32 0 56 7 83 26 38 25 39 25 82 9 23 -9 43 -21 43 -26 0 -16
49 -61 60 -54 6 3 10 2 10 -3 0 -6 23 -9 51 -9 47 2 50 4 46 25 -4 22 7 30 18
12 3 -6 17 -7 30 -4 12 3 26 1 30 -5 4 -8 13 -4 24 10 17 21 20 21 48 7 34
-17 60 -10 106 28 20 17 39 24 54 21 19 -3 27 1 33 19 7 18 15 22 40 19 l31
-4 -6 43 c-6 37 -4 47 15 66 20 20 22 20 34 4 11 -14 14 -15 19 -2 8 23 57 10
67 -17 10 -26 49 -57 61 -49 5 3 22 -2 39 -11 17 -9 35 -13 40 -10 22 13 96
11 120 -4 49 -30 110 -84 110 -97 0 -17 57 -58 62 -43 3 8 14 7 38 -3 19 -8
41 -13 48 -10 7 2 26 -1 43 -7 27 -9 32 -8 36 10 5 19 7 19 31 3 14 -9 27 -12
31 -7 3 5 14 12 24 16 10 4 17 17 17 32 0 23 2 24 20 15 17 -9 20 -8 20 12 0
13 -4 29 -9 37 -5 8 -6 24 -1 36 6 15 4 29 -6 44 -10 14 -12 26 -6 38 13 26
23 85 13 79 -11 -7 -51 31 -51 49 0 8 -18 26 -40 40 -38 24 -52 45 -30 45 6 0
10 9 10 19 0 10 7 21 15 25 22 8 19 59 -6 90 -13 17 -18 33 -14 46 4 12 1 27
-5 35 -7 8 -9 26 -5 43 6 27 2 32 -38 55 -46 25 -62 24 -62 -3 0 -10 -13 -16
-42 -18 -52 -4 -82 11 -95 48 -9 28 -30 36 -100 40 -18 0 -25 0 -90 -2 -18 -1
-54 2 -80 7 -41 7 -48 5 -48 -9 0 -34 -53 -30 -159 13 -43 17 -51 19 -41 6 11
-13 10 -18 -6 -29 -16 -12 -22 -11 -43 5 -13 10 -29 19 -36 19 -7 0 -13 6 -12
13 0 6 -1 31 -1 55 l-2 42 -59 -6 -60 -6 -11 40 c-8 33 -17 43 -50 56 -57 23
-74 21 -60 -4z"/>
<path d="M11644 12322 c-17 -12 -25 -42 -9 -36 7 3 15 14 18 25 6 21 6 21 -9
11z"/>
<path d="M12160 11769 c0 -5 5 -7 10 -4 6 3 10 8 10 11 0 2 -4 4 -10 4 -5 0
-10 -5 -10 -11z"/>
<path d="M12141 11740 c-9 -5 -11 -15 -6 -26 6 -17 8 -17 16 5 11 28 9 33 -10
21z"/>
<path d="M12324 11714 c3 -9 6 -17 6 -20 0 -2 7 -1 15 2 23 9 18 34 -6 34 -15
0 -19 -4 -15 -16z"/>
<path d="M7483 11492 c-13 -2 -23 -10 -23 -19 0 -8 -9 -17 -20 -20 -11 -3 -20
-9 -20 -14 0 -5 -12 -9 -26 -9 -14 0 -23 -4 -20 -9 9 -13 -57 -20 -72 -8 -11
8 -13 7 -10 -7 2 -12 -8 -24 -29 -36 -18 -9 -29 -21 -25 -25 4 -4 -2 -5 -14
-1 -18 5 -20 3 -16 -23 2 -18 13 -33 28 -40 14 -6 32 -27 40 -46 9 -21 21 -35
32 -35 11 0 22 -12 29 -31 9 -23 17 -30 29 -25 14 5 16 1 11 -26 -2 -18 0 -42
6 -53 6 -11 12 -24 13 -30 0 -5 2 -15 2 -22 1 -6 11 -9 22 -6 10 3 18 10 17
16 -2 12 77 46 109 46 24 1 36 21 40 65 1 16 8 34 16 40 19 14 68 106 68 128
0 9 4 19 9 23 9 5 5 92 -4 122 -2 7 0 15 5 18 6 4 10 11 10 16 0 6 -15 -1 -32
-14 -52 -39 -84 -42 -104 -12 -20 31 -42 42 -71 37z"/>
<path d="M9675 11120 c3 -5 10 -10 16 -10 5 0 9 5 9 10 0 6 -7 10 -16 10 -8 0
-12 -4 -9 -10z"/>
<path d="M9642 11098 c-14 -14 -16 -38 -3 -38 15 0 30 25 22 38 -5 9 -10 9
-19 0z"/>
<path d="M7367 11016 c-5 -11 -14 -14 -37 -10 -17 4 -36 2 -44 -6 -9 -6 -24
-9 -36 -5 -19 6 -21 5 -11 -13 7 -13 7 -23 1 -27 -5 -3 -7 -12 -3 -21 4 -11 9
-12 18 -4 10 8 15 8 21 -1 5 -9 10 -8 19 4 6 9 24 17 39 19 29 4 59 47 46 68
-5 8 -9 7 -13 -4z"/>
<path d="M7594 10629 c8 -27 27 -55 54 -78 27 -24 42 -46 45 -66 7 -52 15 -61
55 -60 20 1 47 7 59 15 20 13 20 16 8 41 -13 23 -13 28 0 33 9 3 15 0 15 -9 0
-9 10 -15 26 -15 20 0 25 4 20 16 -3 9 -6 19 -6 23 0 5 -11 7 -24 6 -28 -3
-42 20 -25 41 6 7 7 19 3 26 -5 7 -7 22 -5 32 3 18 2 18 -14 3 -9 -10 -25 -17
-35 -17 -13 0 -17 -5 -14 -14 4 -11 0 -13 -14 -9 -11 3 -23 15 -26 28 -5 18
-15 25 -46 30 -21 4 -44 4 -50 0 -6 -4 -17 -2 -25 5 -11 9 -11 4 -1 -31z"/>
<path d="M7890 10470 c0 -5 5 -10 11 -10 5 0 7 5 4 10 -3 6 -8 10 -11 10 -2 0
-4 -4 -4 -10z"/>
<path d="M7502 10415 c0 -16 2 -22 5 -12 2 9 2 23 0 30 -3 6 -5 -1 -5 -18z"/>
<path d="M7809 9217 c-23 -32 -28 -35 -39 -22 -16 19 -40 19 -40 0 0 -9 -9
-15 -23 -15 -16 0 -23 -6 -23 -17 1 -10 -3 -18 -8 -18 -16 0 -27 -47 -14 -62
7 -9 8 -17 2 -21 -5 -4 -16 -16 -24 -26 -14 -18 -13 -19 2 -13 12 4 21 0 28
-13 17 -32 12 -48 -17 -52 l-28 -3 25 -23 c20 -18 22 -25 11 -31 -11 -7 -9
-11 8 -20 17 -9 20 -18 15 -39 -4 -15 -13 -34 -20 -43 -18 -20 -18 -44 1 -59
8 -7 15 -21 15 -31 0 -18 31 -42 47 -37 17 6 101 -57 118 -89 18 -32 53 -43
48 -15 -2 7 1 12 6 12 15 0 5 37 -18 69 -17 24 -18 30 -6 34 10 4 12 16 8 41
-6 39 1 44 30 21 16 -11 21 -11 36 3 10 9 16 20 14 24 -2 4 10 0 26 -8 37 -19
101 -10 101 14 0 12 3 13 12 4 7 -7 19 -12 28 -12 8 0 23 -7 33 -14 14 -11 15
-19 8 -39 -8 -22 -7 -24 10 -20 14 4 17 11 13 29 -4 17 -2 24 8 24 10 0 14 11
14 36 -2 31 -7 38 -35 50 -32 13 -33 15 -28 59 5 35 2 47 -8 52 -8 3 -12 9 -9
14 8 13 -52 46 -97 53 -21 3 -55 15 -74 26 -19 11 -40 19 -46 17 -7 -1 -14 4
-17 12 -2 8 0 11 6 7 18 -11 22 24 7 54 -8 16 -15 35 -15 42 0 7 -13 22 -30
33 -16 11 -31 27 -32 35 -2 10 -12 2 -29 -23z"/>
<path d="M8835 9050 c3 -5 8 -10 11 -10 2 0 4 5 4 10 0 6 -5 10 -11 10 -5 0
-7 -4 -4 -10z"/>
<path d="M8780 9023 c0 -13 5 -23 10 -23 13 0 13 11 0 30 -8 12 -10 11 -10 -7z"/>
<path d="M8844 8990 c6 -63 15 -80 41 -80 12 0 29 -8 39 -19 10 -11 25 -16 41
-14 13 3 40 0 60 -7 27 -9 40 -9 48 -1 18 18 27 13 27 -16 0 -23 2 -25 11 -13
8 12 12 12 16 2 4 -10 9 -9 24 4 10 9 19 23 19 31 0 7 4 13 9 13 5 0 11 18 13
39 2 22 0 37 -4 35 -5 -3 -8 3 -8 13 0 15 -2 14 -16 -5 -9 -13 -21 -21 -27
-19 -7 2 -26 -4 -44 -14 -27 -15 -34 -16 -50 -4 -10 8 -32 15 -49 15 -49 0
-97 21 -127 54 l-28 31 5 -45z"/>
<path d="M8216 8968 c4 -14 1 -16 -11 -11 -13 4 -16 1 -13 -13 2 -10 6 -17 9
-14 3 3 13 -1 23 -9 9 -8 19 -11 23 -7 3 3 15 -1 25 -11 17 -15 18 -15 18 5 0
12 9 27 20 34 33 21 25 41 -13 34 -18 -3 -37 -3 -40 1 -4 4 -16 7 -27 8 -15 1
-19 -3 -14 -17z"/>
<path d="M8265 8870 c-6 -10 -3 -35 12 -84 4 -15 1 -18 -16 -13 -17 4 -25 -1
-33 -19 -15 -32 -9 -35 36 -23 26 7 41 7 50 -1 16 -13 46 -3 46 16 0 7 8 17
18 23 16 9 16 11 -2 28 -18 17 -19 17 -12 0 4 -13 2 -17 -6 -15 -20 7 -21 38
-2 59 21 24 20 26 -37 34 -31 5 -49 3 -54 -5z"/>
<path d="M8103 8676 c-9 -11 -8 -15 8 -19 14 -4 19 0 19 14 0 22 -10 24 -27 5z"/>
<path d="M7874 8529 c-3 -6 -1 -16 5 -22 6 -6 11 -9 12 -6 0 2 2 12 4 22 4 19
-10 23 -21 6z"/>
<path d="M12600 8174 c8 -21 7 -29 -6 -38 -15 -11 -15 -14 1 -29 16 -16 45
-23 45 -11 0 3 -5 14 -10 25 -9 16 -7 19 10 19 11 0 20 7 20 16 0 8 -5 12 -11
9 -6 -4 -17 2 -25 14 -21 30 -36 27 -24 -5z"/>
<path d="M12640 8190 c0 -5 9 -10 21 -10 11 0 17 5 14 10 -3 6 -13 10 -21 10
-8 0 -14 -4 -14 -10z"/>
<path d="M9185 6870 c10 -11 20 -20 23 -20 3 0 -3 9 -13 20 -10 11 -20 20 -23
20 -3 0 3 -9 13 -20z"/>
<path d="M12527 6730 c3 -11 11 -20 18 -20 8 0 11 8 8 20 -3 11 -11 20 -18 20
-8 0 -11 -8 -8 -20z"/>
<path d="M12571 6678 c-16 -16 -18 -25 -10 -35 6 -7 9 -20 5 -28 -10 -26 38
-48 88 -41 l43 7 0 57 c1 31 -1 52 -4 45 -5 -13 -53 -8 -85 9 -12 6 -23 2 -37
-14z"/>
<path d="M11840 6376 c0 -9 5 -16 10 -16 6 0 10 4 10 9 0 6 -4 13 -10 16 -5 3
-10 -1 -10 -9z"/>
<path d="M11895 6370 c-2 -3 0 -12 6 -20 5 -9 9 -10 9 -3 0 6 12 13 28 15 26
3 26 4 -6 9 -18 3 -35 3 -37 -1z"/>
<path d="M9817 6233 c-4 -3 -7 -11 -7 -17 0 -6 5 -5 12 2 6 6 9 14 7 17 -3 3
-9 2 -12 -2z"/>
</g>
</svg>
