<?xml version="1.0" standalone="no"?>
<!DOCTYPE svg PUBLIC "-//W3C//DTD SVG 20010904//EN"
 "http://www.w3.org/TR/2001/REC-SVG-20010904/DTD/svg10.dtd">
<svg version="1.0" xmlns="http://www.w3.org/2000/svg"
 width="921.594073pt" height="709.636037pt" viewBox="0 0 921.594073 709.636037"
 preserveAspectRatio="xMidYMid meet">
<metadata>
Created by potrace 1.15, written by Peter Selinger 2001-2017
</metadata>
<g transform="translate(-531.374001,1414.636037) scale(0.100000,-0.100000)"
fill="#222222" stroke="none">
<path d="M9980 14140 c0 -7 -8 -9 -21 -5 -21 7 -21 6 -5 -16 20 -29 20 -39 1
-39 -8 0 -15 -7 -15 -15 0 -9 -9 -34 -20 -55 -19 -36 -24 -40 -59 -40 -22 0
-41 -3 -43 -7 -10 -24 -71 -53 -111 -53 -35 0 -46 -4 -56 -23 -7 -13 -11 -27
-10 -33 6 -31 -1 -36 -25 -20 -23 15 -25 14 -28 -6 -2 -17 -11 -22 -48 -25
-25 -3 -49 -11 -53 -19 -13 -24 -43 -16 -80 21 -19 19 -43 35 -52 35 -16 0
-16 -2 -1 -25 17 -26 15 -28 -22 -19 -14 4 -21 12 -18 20 3 8 1 14 -4 14 -5 0
-23 15 -41 33 -17 17 -29 27 -25 21 9 -17 -17 -35 -34 -24 -8 6 -30 10 -47 10
-24 0 -37 7 -49 25 -10 15 -26 25 -41 25 -14 0 -22 4 -18 11 4 5 -1 19 -11 30
-15 17 -19 17 -33 5 -25 -22 -101 -23 -134 -1 -31 20 -46 15 -22 -8 19 -20 19
-27 0 -27 -12 0 -14 -8 -9 -42 11 -71 21 -88 66 -108 24 -10 37 -19 31 -19 -7
-1 -13 -8 -13 -16 0 -8 -7 -15 -15 -15 -9 0 -18 -6 -21 -14 -3 -8 -18 -16 -34
-19 -28 -6 -29 -9 -21 -77 1 -3 19 -30 42 -60 22 -30 36 -56 30 -58 -6 -2 -11
-23 -11 -47 0 -38 6 -49 51 -95 28 -28 48 -54 45 -58 -8 -8 24 -42 40 -42 30
0 51 -65 31 -97 -4 -6 -3 -14 3 -18 5 -3 10 -3 10 1 0 4 8 0 18 -8 9 -8 24
-18 33 -21 9 -3 26 -32 36 -64 15 -44 25 -59 41 -61 12 -2 22 -8 22 -14 0 -6
-9 -8 -22 -3 -13 3 -38 10 -56 15 -19 5 -43 18 -54 30 -11 12 -23 19 -26 15
-3 -3 0 -11 6 -17 7 -7 12 -20 12 -30 0 -14 8 -18 39 -16 38 1 48 -4 121 -63
l25 -20 -27 4 c-16 2 -33 -2 -39 -9 -17 -21 -40 -17 -71 13 -25 24 -32 26 -57
16 -18 -6 -34 -7 -45 -1 -12 7 -22 3 -36 -14 -11 -13 -19 -29 -20 -36 0 -17
-46 -6 -83 20 -19 13 -37 18 -53 14 -24 -6 -24 -6 -4 -26 11 -11 20 -26 20
-33 0 -23 -40 -52 -66 -49 -18 3 -26 -3 -34 -22 -6 -15 -17 -26 -29 -26 -22 0
-48 26 -31 32 7 2 3 11 -9 22 -21 19 -21 19 -22 -10 -1 -16 0 -40 1 -53 1 -16
-2 -21 -11 -16 -8 5 -10 4 -5 -4 11 -17 -3 -49 -25 -56 -10 -4 -19 -13 -19
-21 0 -8 -10 -14 -26 -14 -14 0 -37 -9 -51 -20 -14 -11 -20 -20 -14 -20 8 0 9
-5 2 -17 -7 -14 -2 -23 25 -43 32 -24 45 -50 24 -50 -5 0 -10 6 -10 13 0 9 -2
9 -9 -1 -4 -8 -11 -13 -15 -13 -26 4 -36 -2 -36 -19 0 -11 -5 -20 -11 -20 -8
0 -9 -14 -5 -42 6 -41 5 -44 -29 -60 -47 -24 -49 -23 -63 16 -10 26 -17 33
-31 29 -13 -3 -32 8 -59 36 -37 38 -61 54 -47 31 3 -5 2 -10 -3 -10 -5 0 -15
-21 -22 -47 -7 -27 -14 -50 -16 -52 -2 -2 -28 7 -58 20 -52 21 -56 25 -56 57
0 19 -9 47 -20 62 -14 20 -18 37 -14 59 7 32 18 37 72 32 25 -2 29 16 9 43
-11 16 -15 16 -50 1 -20 -8 -36 -19 -35 -23 6 -25 -16 -74 -38 -82 -26 -10
-29 -17 -15 -39 5 -8 5 -23 1 -35 -5 -12 -12 -47 -15 -78 -5 -48 -10 -58 -26
-58 -22 0 -26 -28 -4 -36 15 -6 11 -19 -19 -57 -12 -16 -18 -17 -38 -6 -13 6
-35 26 -49 43 -22 25 -29 28 -41 18 -12 -10 -18 -8 -33 8 -10 11 -22 17 -27
14 -15 -9 -58 5 -58 19 0 7 9 20 20 30 12 10 20 29 20 46 0 16 7 36 15 45 9 8
14 19 13 23 -2 11 24 63 32 63 3 0 11 -5 18 -12 9 -9 18 -9 37 0 14 7 34 12
44 12 19 0 61 41 80 78 10 18 10 27 -1 40 -19 25 -31 32 -53 32 -12 0 -38 9
-60 20 -22 11 -47 20 -57 20 -9 0 -20 5 -23 10 -3 6 -16 10 -28 10 -12 0 -40
9 -62 19 -22 11 -54 25 -70 31 -36 12 -63 49 -45 60 15 10 20 120 5 120 -7 0
-20 9 -30 20 -10 11 -22 17 -26 14 -5 -3 -9 1 -9 8 0 7 -18 32 -40 56 -32 36
-45 43 -72 42 -61 -3 -91 18 -93 66 -1 37 -77 56 -101 25 -8 -10 -15 -11 -32
-2 -31 17 -41 14 -48 -16 -4 -16 -16 -45 -27 -66 -17 -32 -17 -81 0 -64 8 9
72 -74 67 -88 -3 -6 13 -15 36 -21 32 -9 42 -8 51 3 9 10 15 10 25 2 11 -9 14
-8 14 5 0 21 13 20 34 -3 19 -21 14 -41 -10 -41 -12 0 -12 -4 -4 -20 6 -11 15
-18 20 -15 5 3 16 -8 25 -24 9 -19 11 -32 5 -36 -7 -4 -5 -14 4 -26 11 -16 11
-28 3 -54 -5 -19 -13 -32 -18 -30 -4 3 -6 -13 -5 -35 0 -22 4 -40 7 -40 3 0 4
-11 1 -25 -2 -15 0 -25 7 -25 6 0 11 -7 11 -15 0 -8 -5 -15 -11 -15 -6 0 -8
-8 -4 -20 3 -10 1 -29 -5 -41 -9 -15 -9 -24 -1 -32 6 -6 11 -19 11 -28 0 -9 7
-22 15 -29 17 -14 21 -60 5 -60 -20 0 -9 -24 24 -55 28 -25 43 -31 78 -31 40
1 43 -1 46 -26 4 -30 -6 -36 -27 -15 -10 10 -11 8 -5 -7 5 -13 4 -17 -4 -12
-8 5 -10 2 -6 -8 3 -8 18 -19 32 -25 l27 -9 -27 -1 c-31 -1 -33 -7 -16 -62 9
-33 15 -39 40 -39 24 0 28 4 28 30 0 25 4 30 25 30 18 0 26 7 31 25 3 14 12
25 20 25 8 0 14 10 14 22 0 21 0 21 15 2 20 -26 19 -44 -4 -44 -19 0 -37 -42
-26 -60 11 -17 -18 -60 -41 -60 -26 0 -64 -54 -64 -92 0 -14 -9 -37 -20 -51
-11 -14 -20 -35 -20 -46 0 -32 -30 -73 -48 -66 -12 4 -14 -4 -10 -50 3 -39 1
-55 -7 -55 -7 0 -19 -9 -26 -20 -8 -11 -36 -25 -64 -32 -49 -13 -84 -40 -85
-66 0 -8 -7 -11 -19 -7 -18 5 -106 -37 -96 -46 2 -3 -15 -13 -38 -24 -41 -18
-61 -44 -81 -107 -7 -24 -37 -23 -68 2 -41 32 -73 41 -89 25 -18 -18 -93 -22
-112 -7 -7 7 -17 8 -21 4 -4 -4 -22 -8 -39 -9 -18 -1 -46 -5 -63 -8 -26 -6
-31 -11 -26 -28 3 -12 10 -28 16 -36 6 -7 12 -33 13 -57 2 -24 12 -58 23 -76
17 -28 17 -34 4 -60 -8 -15 -19 -28 -24 -28 -6 0 -9 -3 -9 -7 1 -5 1 -23 0
-40 -1 -29 -5 -33 -27 -33 -20 0 -25 -4 -20 -16 4 -12 2 -15 -9 -11 -8 4 -27
0 -42 -8 -19 -10 -31 -11 -40 -3 -10 8 -13 7 -13 -4 0 -8 -12 -26 -28 -39 -42
-38 -53 -43 -63 -28 -6 11 -12 10 -28 -5 -11 -10 -35 -18 -55 -18 -20 0 -39
-4 -42 -9 -9 -15 -47 -10 -80 10 -37 23 -60 74 -40 90 14 12 10 57 -6 67 -5 4
-15 1 -21 -5 -13 -13 -57 -14 -90 -2 -28 11 -38 30 -43 84 -4 45 -12 60 -25
51 -6 -3 -30 1 -55 11 -24 9 -48 14 -53 11 -5 -4 -12 -2 -16 4 -3 5 -14 10
-23 10 -18 0 -92 65 -92 81 0 5 -13 6 -30 3 -22 -5 -31 -2 -36 9 -3 9 -21 21
-40 27 -19 6 -34 18 -34 25 0 8 -9 19 -20 25 -17 9 -20 8 -20 -10 0 -17 -4
-20 -20 -15 -13 4 -20 2 -20 -6 0 -10 -3 -10 -12 -1 -16 16 -28 15 -28 -3 0
-9 -13 -24 -30 -33 -16 -9 -30 -25 -30 -36 0 -13 -5 -16 -16 -12 -15 6 -16 0
-10 -43 4 -34 3 -50 -5 -53 -17 -6 -20 -38 -4 -38 7 0 15 6 18 13 3 8 10 6 21
-8 20 -25 20 -44 1 -51 -8 -4 -15 -19 -15 -34 0 -16 -5 -32 -11 -36 -6 -3 -9
-20 -6 -38 3 -23 -2 -39 -20 -61 -25 -29 -25 -29 -4 -39 15 -7 19 -15 15 -32
-6 -21 -3 -24 24 -24 17 0 35 -6 39 -14 8 -14 76 -46 97 -46 6 0 2 7 -9 16
-17 13 -18 16 -5 24 9 6 16 6 18 0 2 -6 12 -10 23 -10 10 0 19 -6 19 -14 0 -8
7 -17 16 -20 12 -5 14 -9 5 -20 -19 -23 -20 -90 -2 -111 25 -31 66 -48 98 -42
15 4 22 4 16 1 -18 -8 -16 -44 2 -44 8 0 15 5 15 11 0 8 5 7 15 -1 13 -11 13
-15 3 -21 -10 -7 -10 -9 -1 -9 8 0 11 -10 7 -28 -5 -25 -1 -32 27 -49 25 -17
37 -19 55 -11 27 12 67 2 45 -11 -11 -7 -10 -11 5 -19 17 -9 17 -11 0 -37 -18
-28 -15 -36 18 -48 5 -2 7 -8 5 -15 -2 -7 -44 22 -98 68 -53 46 -98 77 -104
73 -7 -4 -27 -6 -46 -4 -30 2 -33 0 -28 -18 3 -12 1 -24 -4 -27 -5 -3 -6 -10
-3 -16 5 -8 1 -9 -10 -5 -14 6 -16 3 -11 -14 4 -12 8 -27 9 -34 1 -7 8 -20 15
-29 7 -8 9 -21 5 -28 -4 -7 -4 -10 0 -6 4 4 21 -9 38 -28 17 -19 38 -34 48
-34 10 0 20 -6 23 -12 3 -10 11 -10 34 -2 24 9 38 8 63 -2 18 -8 40 -14 50
-14 24 0 43 -23 29 -37 -12 -12 13 -42 37 -44 34 -3 54 -15 54 -32 0 -8 -3 -8
-12 1 -19 19 -28 14 -28 -14 0 -17 6 -28 20 -31 22 -6 26 -18 9 -29 -19 -11
12 -23 43 -17 19 4 35 0 47 -11 22 -20 34 -56 19 -56 -5 0 -7 -4 -4 -8 8 -14
87 -7 97 8 14 23 11 33 -10 27 -12 -3 -28 4 -41 18 l-21 22 32 32 c17 18 38
30 45 27 11 -4 11 -2 2 14 -14 22 -12 25 23 34 24 5 29 2 43 -34 9 -22 16 -53
16 -69 0 -17 6 -31 16 -35 8 -3 13 -10 10 -15 -4 -5 -2 -21 4 -36 8 -20 15
-25 29 -20 14 4 23 0 31 -15 6 -12 21 -31 32 -42 16 -16 19 -29 15 -60 -3 -22
-13 -48 -22 -58 -11 -12 -16 -29 -13 -45 3 -14 1 -28 -4 -31 -5 -3 -4 -11 2
-19 14 -17 83 -18 77 -1 -3 7 5 21 17 33 26 25 83 35 90 16 9 -22 65 -15 100
12 40 30 40 30 78 4 23 -17 40 -20 79 -17 33 4 53 1 60 -8 8 -10 19 -9 55 6
42 18 44 18 53 1 7 -13 18 -16 40 -13 22 3 36 -2 56 -22 29 -29 36 -32 32 -13
-1 7 8 12 21 12 13 0 27 7 33 15 8 13 11 13 23 -2 16 -21 54 -24 62 -4 8 20
42 27 48 10 3 -8 19 -14 37 -14 23 0 30 4 26 15 -4 8 -2 17 3 20 6 4 10 0 10
-8 0 -17 59 -29 102 -20 23 5 35 0 59 -23 22 -21 29 -24 29 -11 0 18 29 37 58
37 11 0 23 7 26 16 3 8 10 13 14 10 5 -3 17 1 27 8 42 30 65 -57 35 -129 -4
-11 -11 -28 -14 -37 -3 -10 -14 -18 -25 -18 -10 0 -18 -6 -18 -12 2 -34 -17
-77 -35 -81 -16 -5 -18 -9 -8 -26 6 -12 8 -26 5 -31 -3 -5 0 -18 6 -29 11 -16
8 -23 -19 -50 -17 -18 -33 -27 -37 -21 -10 15 -52 12 -59 -5 -3 -8 -12 -15
-20 -15 -8 0 -23 -16 -35 -36 -12 -20 -34 -40 -51 -45 -16 -6 -30 -15 -30 -20
0 -5 -6 -9 -12 -9 -8 0 -12 -12 -11 -32 1 -18 2 -33 3 -33 1 0 3 -9 4 -21 2
-14 -4 -20 -18 -22 -21 -1 -55 -38 -56 -60 0 -9 -7 -11 -20 -7 -16 5 -20 2
-20 -14 0 -12 -4 -21 -9 -21 -5 0 -27 -17 -49 -37 -47 -45 -69 -101 -52 -134
13 -24 -1 -42 -27 -32 -16 6 -17 -13 -1 -23 6 -4 14 -2 16 5 3 9 7 9 18 0 7
-6 21 -9 29 -5 37 14 172 -89 153 -116 -1 -2 4 -13 11 -25 9 -17 9 -23 0 -23
-7 0 -9 -9 -5 -23 3 -13 2 -38 -3 -55 -7 -23 -6 -34 5 -43 8 -6 14 -20 14 -31
0 -11 9 -33 21 -49 16 -23 19 -40 17 -84 -4 -52 -3 -55 19 -55 14 0 23 5 21
13 -3 17 12 57 21 57 4 0 19 -26 33 -58 17 -40 32 -61 47 -65 11 -3 21 -2 21
2 0 12 51 63 82 84 36 23 52 22 82 -6 31 -29 141 -54 162 -36 8 6 14 18 14 25
0 19 5 18 36 -11 34 -31 69 -41 89 -25 22 19 59 -15 45 -41 -10 -18 1 -33 25
-34 6 0 27 -8 49 -18 21 -9 41 -17 45 -17 3 0 21 15 39 34 28 29 31 37 22 60
-5 14 -7 33 -4 41 4 10 0 15 -10 15 -15 0 -36 36 -36 60 0 5 19 14 41 20 41
11 41 11 37 53 -8 68 31 88 53 29 9 -24 11 -25 20 -9 6 10 22 17 38 17 16 0
31 7 35 15 3 8 15 15 26 15 11 0 20 7 20 16 0 11 6 14 20 9 11 -3 20 -2 20 3
0 18 54 72 73 72 10 0 26 -8 35 -17 16 -16 17 -15 20 0 3 15 6 15 24 3 22 -15
43 -12 70 11 9 8 27 13 40 11 19 -2 24 -10 26 -40 3 -32 7 -38 27 -38 13 0 31
-3 41 -7 13 -5 15 -3 8 8 -23 37 -7 69 35 68 21 0 23 -2 8 -8 -40 -15 10 -33
101 -36 87 -3 132 -15 132 -35 0 -6 9 -10 19 -10 23 0 40 -22 23 -28 -8 -2 -2
-17 15 -40 48 -64 67 -103 53 -112 -9 -5 -9 -13 -2 -26 14 -26 10 -73 -6 -79
-8 -3 -11 -13 -7 -24 3 -11 1 -22 -5 -26 -6 -4 4 -14 25 -25 37 -19 74 -16 88
7 4 7 12 13 17 13 11 0 31 -60 24 -71 -7 -11 12 -46 47 -87 16 -18 29 -39 29
-46 0 -7 11 -18 25 -24 14 -6 25 -18 25 -25 0 -8 9 -24 20 -37 16 -19 32 -24
85 -26 37 -2 74 -9 87 -18 29 -20 78 -10 105 22 l22 26 30 -28 c22 -21 37 -27
55 -24 14 3 26 2 26 -2 0 -4 9 -19 21 -34 l21 -26 41 35 c22 19 51 35 63 35
13 0 28 9 34 21 6 11 16 19 22 17 6 -2 35 20 64 50 30 29 58 50 64 47 5 -3 21
12 36 35 15 22 32 40 39 40 14 0 65 63 65 80 0 6 5 8 10 5 6 -3 10 5 10 19 0
14 -4 28 -10 31 -18 11 -11 23 18 30 19 4 32 17 45 44 9 21 17 42 17 47 0 6
11 33 25 61 20 42 23 61 18 102 -4 35 -2 51 6 51 13 0 57 42 54 51 -1 4 -4 19
-7 34 -4 20 -2 25 10 21 7 -3 14 -1 14 4 0 6 6 10 14 10 16 0 59 54 50 63 -8
8 24 23 66 32 44 10 79 35 80 58 0 24 12 21 40 -8 13 -14 31 -25 40 -25 9 0
21 -5 28 -12 15 -15 26 12 27 64 0 34 2 37 23 31 21 -5 22 -3 16 21 -7 31 8
34 34 9 23 -24 42 -23 72 4 14 14 28 19 33 14 5 -5 16 -7 23 -4 9 3 14 -2 14
-13 0 -14 6 -10 20 14 11 18 24 30 29 27 6 -3 16 4 25 16 15 21 15 21 43 2 15
-11 43 -25 61 -31 18 -6 44 -20 57 -30 24 -19 24 -20 6 -36 -15 -14 -22 -14
-43 -4 -13 8 -23 19 -20 26 2 6 -3 12 -11 12 -16 0 -21 -11 -32 -72 -5 -30 -3
-38 9 -38 9 0 13 -6 10 -13 -3 -8 2 -19 10 -26 8 -7 13 -18 10 -25 -3 -8 3
-16 14 -18 21 -6 28 -63 11 -85 -12 -13 -5 -25 47 -77 34 -34 65 -116 44 -116
-5 0 -10 6 -13 13 -5 13 -46 -30 -47 -49 0 -24 -31 -24 -55 0 -19 19 -25 21
-29 9 -4 -8 -13 -13 -21 -9 -23 8 -19 0 21 -44 21 -23 33 -44 28 -51 -5 -8 -3
-9 5 -5 13 9 35 -14 51 -51 5 -13 15 -20 23 -17 17 6 41 -21 32 -36 -4 -6 -2
-17 4 -24 8 -10 8 -22 1 -40 -8 -22 -6 -30 10 -46 11 -11 20 -25 20 -31 0 -5
4 -8 9 -5 4 3 16 -1 27 -8 10 -8 23 -12 29 -9 18 6 67 -16 60 -27 -8 -13 60
-96 85 -103 11 -3 21 1 24 9 3 8 13 14 22 14 13 0 16 -7 11 -34 -5 -34 11 -64
26 -49 9 9 9 -9 -1 -23 -4 -6 -24 -17 -45 -23 -32 -11 -37 -16 -31 -33 5 -17
3 -20 -10 -15 -10 4 -14 3 -11 -2 3 -5 0 -13 -5 -16 -8 -5 -6 -11 3 -18 8 -7
18 -22 21 -34 6 -18 4 -20 -14 -16 -14 4 -19 11 -15 20 3 11 1 13 -10 9 -9 -3
-15 0 -15 9 0 8 -7 15 -15 15 -8 0 -14 3 -13 8 3 18 -16 42 -34 42 -19 0 -19
-2 5 -45 23 -40 24 -46 9 -54 -14 -8 -14 -10 0 -25 9 -9 23 -16 30 -16 8 0 20
-6 26 -12 7 -7 31 -13 52 -14 33 0 37 2 28 14 -9 10 -8 16 3 23 8 5 10 9 4 10
-5 0 1 4 15 8 14 4 24 13 22 20 -1 7 4 19 13 27 11 11 12 20 5 34 -14 26 -13
40 3 40 7 0 21 6 31 13 16 11 17 17 6 36 -10 19 -9 26 6 42 9 10 22 19 27 19
6 0 19 7 29 16 14 13 21 14 32 5 12 -10 16 -8 21 8 8 26 20 26 42 1 21 -24 32
-25 69 -5 46 24 108 17 97 -11 -3 -8 -2 -14 1 -14 10 0 58 31 84 54 l22 20 15
-21 c8 -12 31 -31 51 -44 33 -20 37 -20 45 -6 5 9 16 23 25 31 8 8 15 18 14
21 -1 24 1 26 16 14 11 -9 14 -22 10 -41 -4 -21 -2 -28 11 -28 12 0 14 7 10
36 -5 30 -4 34 8 24 8 -7 15 -18 15 -26 0 -19 19 -27 35 -14 8 6 18 9 24 6 11
-7 22 19 15 38 -4 9 7 15 34 20 44 7 76 43 65 73 -5 14 -3 16 7 6 21 -20 50 2
45 35 -4 30 -33 119 -46 142 -5 8 -13 25 -19 38 -11 24 -20 28 -37 11 -6 -6
-21 -8 -33 -4 -12 4 -19 9 -16 12 2 3 -4 19 -14 35 -10 17 -16 36 -14 42 3 7
-7 18 -21 26 -37 20 -31 29 13 18 20 -5 45 -11 54 -12 10 -1 21 -5 24 -9 4 -4
22 -7 40 -7 24 0 34 5 39 21 5 14 10 17 19 10 21 -17 56 -1 56 25 0 20 5 24
30 24 19 0 34 7 42 20 7 11 18 20 25 20 12 0 18 26 14 58 -1 6 4 12 11 12 7 1
2 7 -12 15 -16 9 -20 15 -10 16 43 4 70 18 70 35 0 8 10 14 21 14 17 0 20 4
16 22 -3 12 0 49 8 82 15 65 41 96 80 96 18 0 21 4 18 24 -3 13 3 36 12 50 15
22 16 31 6 52 -16 35 -14 44 10 44 12 0 19 5 16 13 -2 6 -10 11 -16 10 -13 -3
-12 -5 -17 65 -2 39 0 51 9 47 7 -4 0 5 -15 19 -17 14 -28 36 -28 50 0 23 3
25 24 16 18 -7 28 -5 37 6 14 17 83 11 108 -10 20 -16 93 -15 86 2 -2 7 6 17
20 22 16 6 25 17 25 30 0 15 5 20 17 18 10 -2 26 5 35 14 18 18 21 36 6 31 -5
-2 -8 1 -8 7 0 9 40 35 43 28 1 -2 8 -13 15 -25 6 -13 12 -34 12 -48 0 -14 5
-25 11 -25 16 0 38 31 39 54 0 12 5 16 16 12 19 -7 44 16 44 43 0 11 9 22 21
26 16 5 20 13 16 31 -6 31 13 31 50 1 43 -36 60 -39 107 -16 46 21 80 27 220
33 86 5 90 6 117 38 16 18 31 43 35 55 6 24 62 45 118 46 19 0 40 11 61 33 42
42 70 56 98 49 18 -5 26 -1 35 19 6 14 20 26 29 26 17 1 17 1 0 11 -10 6 -21
8 -24 5 -6 -5 -53 59 -53 73 0 13 -44 49 -80 66 -47 21 -71 36 -90 59 -14 16
-17 17 -29 2 -7 -9 -10 -16 -6 -16 4 0 2 -7 -5 -15 -17 -21 -27 -19 -34 8 -8
31 -50 49 -82 35 -20 -9 -31 -8 -54 5 -18 11 -38 15 -55 11 -16 -4 -25 -2 -25
6 0 9 -3 10 -14 1 -19 -16 -41 -5 -72 36 -25 33 -26 37 -11 48 17 12 24 51 8
41 -17 -11 -21 25 -6 47 19 27 19 63 1 70 -9 4 -12 14 -9 26 3 11 0 34 -6 52
-8 22 -8 37 0 51 8 16 7 28 -7 54 -10 18 -21 31 -25 28 -4 -2 -13 3 -20 12
-10 13 -10 17 0 24 8 5 9 10 3 14 -6 3 -13 0 -16 -6 -6 -17 -37 19 -30 36 3 7
-7 18 -21 24 -19 9 -25 9 -25 0 0 -7 -7 -5 -17 5 -16 15 -16 19 -3 27 10 6 17
4 23 -5 14 -26 44 -16 78 26 19 22 43 50 53 61 15 17 17 24 8 37 -7 9 -19 28
-27 44 -15 26 -15 27 9 27 25 0 39 20 30 43 -2 7 4 30 15 52 17 36 18 42 4 57
-13 14 -12 17 7 23 21 7 22 11 15 69 -4 41 -13 68 -27 84 l-21 22 21 0 c27 0
28 16 3 30 -29 15 -61 12 -62 -5 -1 -8 -2 -19 -3 -25 0 -5 -10 -16 -22 -24
-18 -13 -23 -12 -51 10 -33 25 -66 80 -58 94 7 11 -51 24 -65 15 -5 -3 -10 1
-10 9 0 9 6 16 14 16 7 0 19 7 26 15 7 8 23 15 36 15 12 0 26 5 29 11 4 6 13
8 21 5 8 -3 14 -1 14 4 0 6 9 10 20 10 11 0 20 5 20 10 0 6 6 10 14 10 9 0 12
7 9 20 -4 14 1 22 18 29 13 5 21 10 18 10 -4 1 -3 17 1 36 6 24 4 38 -6 46
-15 13 -30 57 -39 119 -6 37 -5 43 6 33 18 -18 69 -17 69 2 0 8 6 12 13 10 6
-2 25 7 41 21 20 18 27 31 24 49 -3 15 0 26 9 29 11 5 11 10 3 27 -13 24 -5
69 12 69 7 0 5 5 -4 13 -9 6 -19 22 -22 33 -5 17 -1 23 18 28 17 4 23 11 19
24 -2 10 3 24 11 31 9 8 16 26 16 41 0 33 28 60 63 60 15 0 27 4 27 9 0 6 12
3 27 -4 26 -14 28 -13 36 7 5 14 2 27 -9 40 -10 10 -14 21 -11 24 3 4 0 19 -8
35 -8 15 -15 49 -16 76 -1 27 -8 56 -17 66 -9 10 -15 31 -14 48 1 16 -4 39
-12 52 -8 12 -17 32 -21 45 -5 19 -3 22 18 22 20 0 24 4 20 20 -4 15 0 20 15
20 11 0 22 8 25 20 3 11 12 20 21 20 9 0 16 7 16 15 0 8 6 15 13 15 9 0 9 2
-1 9 -7 4 -12 12 -10 17 3 13 -19 74 -28 74 -4 0 -5 -3 -1 -6 3 -3 -4 -15 -15
-26 -22 -22 -38 -17 -19 6 9 11 8 15 -4 19 -21 9 -8 36 15 30 22 -6 36 32 26
72 -4 14 -3 25 2 25 5 0 8 20 8 45 1 24 -3 42 -8 39 -4 -3 -8 0 -8 5 0 6 7 11
16 11 8 0 12 5 9 10 -15 24 -15 58 0 64 9 3 15 0 15 -8 0 -9 8 -12 25 -8 14 2
25 10 25 17 0 7 16 36 35 64 19 28 35 55 35 60 0 5 6 11 13 14 8 3 6 10 -8 21
-15 12 -17 15 -5 16 12 0 15 9 12 40 -4 44 -18 50 -56 24 -16 -10 -26 -12 -31
-5 -10 18 -25 12 -25 -9 0 -11 -6 -20 -13 -20 -28 0 -51 -94 -25 -102 8 -3 5
-16 -10 -42 -12 -20 -22 -50 -22 -67 0 -32 -2 -34 -32 -18 -19 10 -20 9 -14
-15 5 -20 3 -26 -10 -26 -11 0 -15 -6 -11 -20 6 -25 -5 -33 -25 -17 -22 17
-33 67 -14 67 19 0 27 70 9 77 -8 3 -11 14 -7 29 7 28 -13 57 -34 49 -19 -7
-75 34 -68 51 6 17 -6 18 -21 3 -8 -8 -22 -1 -51 25 -24 22 -43 33 -47 26 -3
-6 -11 -8 -16 -5 -5 4 -9 1 -9 -6 0 -10 -3 -10 -12 -1 -17 17 -38 15 -38 -3 0
-9 -14 -16 -37 -20 -60 -11 -66 -13 -105 -49 -32 -29 -39 -32 -49 -20 -11 13
-16 11 -36 -12 -13 -15 -23 -31 -23 -36 0 -4 -22 -8 -49 -8 -34 0 -51 -5 -55
-15 -3 -8 -15 -14 -28 -12 -19 2 -24 -3 -26 -29 -2 -18 3 -36 12 -43 12 -10
13 -18 5 -33 -7 -14 -7 -23 1 -33 8 -10 6 -17 -11 -28 -13 -10 -19 -22 -16
-31 4 -9 2 -16 -3 -16 -6 0 -10 5 -10 10 0 6 -17 10 -39 10 -41 0 -68 -21 -55
-42 13 -21 4 -82 -14 -98 -10 -8 -28 -33 -42 -55 -13 -22 -28 -43 -33 -46 -5
-4 -4 -9 2 -13 20 -13 13 -38 -8 -31 -17 5 -21 0 -26 -29 -8 -38 -28 -62 -44
-51 -6 3 -20 -3 -32 -14 -12 -11 -27 -17 -35 -14 -8 3 -14 -1 -14 -11 0 -10
-9 -16 -25 -16 -14 0 -25 -5 -25 -11 0 -23 -73 -99 -95 -99 -12 0 -28 -7 -35
-15 -7 -8 -23 -15 -36 -15 -20 0 -24 -5 -24 -30 0 -20 -5 -30 -15 -30 -8 0
-15 -4 -15 -10 0 -5 -7 -10 -16 -10 -12 0 -15 -7 -12 -30 3 -16 1 -30 -4 -30
-4 0 -8 -7 -8 -15 0 -8 -9 -15 -20 -15 -11 0 -23 -6 -26 -14 -8 -20 -34 -8
-34 14 0 10 -10 20 -21 23 -17 5 -20 11 -17 31 3 16 1 26 -7 26 -6 0 -12 13
-12 30 0 36 -49 110 -74 110 -17 0 -49 35 -49 53 0 5 11 6 24 3 19 -5 26 -1
31 13 6 19 -22 90 -37 92 -35 6 -68 2 -68 -7 0 -7 -10 -9 -25 -6 -17 3 -25 0
-25 -10 0 -33 -99 -55 -152 -33 -14 5 -18 2 -18 -14 0 -23 -10 -27 -26 -11 -8
8 -15 6 -23 -4 -12 -14 -55 -10 -46 4 8 12 -35 24 -47 12 -5 -5 -17 -24 -26
-42 -13 -26 -24 -34 -50 -35 -35 -3 -52 15 -52 54 0 12 -4 21 -10 21 -21 0
-68 79 -64 109 5 40 -19 60 -44 37 -21 -18 -48 -21 -57 -6 -3 6 -20 17 -36 26
-24 12 -34 13 -45 4 -11 -10 -15 -9 -18 1 -22 79 -33 103 -53 125 -33 36 -39
53 -38 112 0 42 5 57 21 70 24 19 39 78 23 88 -6 3 -8 16 -5 29 4 15 1 25 -9
29 -8 3 -15 1 -15 -4 0 -15 -85 28 -88 44 -2 9 1 16 6 16 16 0 21 38 6 44 -8
3 -14 -1 -14 -8 0 -8 -7 -17 -16 -20 -21 -8 -24 -8 -24 5 0 5 5 7 10 4 15 -9
12 8 -5 31 -18 24 -19 51 -2 57 15 5 9 13 -21 21 -19 6 -23 3 -28 -23 -4 -17
-9 -31 -13 -31 -11 1 -42 50 -36 59 3 5 0 11 -6 13 -8 3 -6 10 5 21 19 19 36
22 36 7 0 -5 9 -10 20 -10 11 0 20 5 20 10 0 6 14 10 31 10 28 0 30 2 18 17
-24 29 71 7 99 -22 26 -29 23 -28 56 -15 20 7 26 17 26 39 0 21 6 32 20 36 11
3 20 13 20 22 0 14 2 14 18 1 26 -22 79 -22 84 0 4 13 22 23 54 31 27 7 56 19
65 27 14 13 18 12 33 -11 9 -14 23 -25 31 -25 10 0 15 -10 15 -29 0 -17 5 -33
12 -37 8 -5 9 0 6 14 -9 32 10 27 30 -8 18 -32 40 -42 26 -12 -4 9 -8 34 -9
55 0 20 -3 37 -7 37 -4 0 -10 10 -14 22 -3 12 -16 29 -27 39 -21 16 -21 17 -4
60 16 42 16 45 0 57 -25 18 -33 15 -33 -12 0 -30 -45 -64 -54 -41 -4 10 -20
15 -51 15 -33 0 -45 4 -45 15 0 8 -6 15 -14 15 -8 0 -21 8 -28 18 -16 21 -55
26 -103 13 -30 -8 -37 -7 -43 7 -3 9 -14 26 -24 36 -16 18 -18 18 -18 3 0 -11
-9 -18 -27 -19 -56 -3 -75 4 -102 34 -23 26 -30 29 -48 20 -14 -8 -23 -8 -31
0 -13 13 -32 2 -32 -18 0 -9 -6 -14 -12 -11 -21 7 -48 -12 -48 -33 0 -15 -7
-20 -27 -20 -21 0 -33 -8 -45 -31 -13 -22 -23 -29 -36 -25 -14 5 -22 -1 -31
-20 -6 -14 -17 -24 -24 -21 -6 2 -32 1 -57 -2 -37 -5 -45 -10 -50 -31 -5 -20
-14 -26 -48 -31 -24 -3 -51 -14 -62 -26 -10 -12 -33 -24 -51 -28 -19 -4 -33
-15 -36 -26 -6 -23 -16 -24 -33 -4 -18 21 -29 19 -23 -5 4 -16 0 -20 -17 -20
-20 0 -22 -4 -17 -35 3 -19 2 -35 -3 -35 -12 0 28 -92 46 -106 20 -16 17 -24
-7 -24 -18 0 -20 -2 -8 -16 9 -12 10 -17 1 -23 -8 -5 -9 -17 -3 -39 9 -30 -2
-47 -12 -19 -2 6 -8 9 -12 4 -14 -12 8 -102 25 -102 8 0 15 -4 15 -10 0 -5 -7
-9 -15 -7 -11 2 -11 -1 3 -11 25 -20 21 -27 -13 -22 -39 5 -50 12 -50 35 0 26
-29 53 -51 47 -10 -3 -20 0 -22 6 -4 13 -58 19 -105 11 -24 -4 -32 -9 -28 -20
7 -18 -20 -30 -37 -16 -8 7 -18 7 -27 2 -26 -17 -50 -11 -62 15 -6 14 -25 33
-42 43 -29 17 -49 48 -77 117 -11 27 -53 61 -116 94 -13 6 -23 21 -23 32 0 11
-6 21 -12 23 -7 2 -22 7 -33 12 -11 4 -29 6 -41 5 -17 -2 -23 8 -37 56 -10 39
-12 60 -5 64 6 4 7 19 3 38 -6 27 -3 32 18 40 14 6 27 14 30 18 7 11 -31 73
-44 73 -5 0 -9 11 -9 25 0 18 5 25 19 25 11 0 23 5 26 10 4 6 11 7 17 4 7 -4
8 10 3 43 -5 41 -4 51 9 56 12 5 16 21 16 62 0 52 2 56 20 50 16 -5 20 -2 20
15 0 15 -11 25 -35 36 -40 16 -45 30 -15 39 16 5 19 12 14 28 -4 12 -6 36 -6
54 1 18 -3 35 -8 38 -18 11 -11 34 22 71 l32 36 -27 24 c-16 13 -30 32 -32 42
-2 9 -6 24 -9 32 -4 10 2 19 16 25 33 15 32 32 -1 38 -21 5 -29 11 -25 21 3 8
1 17 -5 21 -6 3 -11 1 -11 -5z m-280 -350 c0 -5 -2 -10 -4 -10 -3 0 -8 5 -11
10 -3 6 -1 10 4 10 6 0 11 -4 11 -10z m290 -81 c0 -5 -4 -9 -10 -9 -5 0 -10 7
-10 16 0 8 5 12 10 9 6 -3 10 -10 10 -16z m1758 -408 c3 -8 -1 -12 -9 -9 -7 2
-15 10 -17 17 -3 8 1 12 9 9 7 -2 15 -10 17 -17z m-2508 -345 c0 -3 -4 -8 -10
-11 -5 -3 -10 -1 -10 4 0 6 5 11 10 11 6 0 10 -2 10 -4z m-984 -653 c-3 -3
-13 -3 -22 1 -13 5 -14 9 -3 22 11 14 13 14 22 -1 5 -9 6 -19 3 -22z m-588
-101 l1 -27 -14 25 c-18 31 -19 41 -2 34 7 -2 14 -17 15 -32z m-60 -45 c2 -10
-3 -17 -12 -17 -10 0 -16 9 -16 21 0 24 23 21 28 -4z m-58 -7 c0 -5 -7 -10
-15 -10 -8 0 -15 5 -15 10 0 6 7 10 15 10 8 0 15 -4 15 -10z m6051 -1167 c13
-15 12 -15 -8 -4 -24 12 -29 21 -14 21 5 0 15 -7 22 -17z m-7546 -853 c18 -19
17 -20 -2 -20 -12 0 -31 9 -44 20 l-24 19 26 1 c14 0 34 -9 44 -20z m7247
-742 c-6 -6 -16 -7 -22 -3 -9 6 -9 9 1 16 17 10 34 0 21 -13z m-152 -17 c5
-11 10 -27 10 -36 0 -14 -2 -14 -25 1 -27 18 -34 54 -10 54 8 0 19 -9 25 -19z
m248 -220 c-4 -20 -30 -21 -36 -2 -3 9 0 11 8 6 9 -5 11 -4 6 3 -4 7 -9 22
-11 34 l-4 23 20 -24 c11 -13 18 -31 17 -40z m-1460 -842 c-28 -18 -34 -7 -21
40 l6 24 15 -28 c12 -23 12 -29 0 -36z"/>
<path d="M11880 13054 c0 -11 -8 -14 -27 -12 -32 4 -43 -17 -12 -25 27 -7 41
-1 56 22 10 15 9 20 -2 25 -9 3 -15 -1 -15 -10z"/>
<path d="M11483 13043 c-7 -3 -13 -11 -13 -19 0 -8 -4 -14 -10 -14 -21 0 -9
-19 22 -34 41 -21 39 -22 35 19 -4 39 -15 55 -34 48z"/>
<path d="M11992 12988 c7 -20 48 -23 48 -4 0 11 -9 16 -26 16 -16 0 -24 -5
-22 -12z"/>
<path d="M11435 12961 c-8 -15 3 -31 21 -31 9 0 14 7 12 17 -4 20 -24 28 -33
14z"/>
<path d="M11925 12930 c3 -5 11 -10 16 -10 6 0 7 5 4 10 -3 6 -11 10 -16 10
-6 0 -7 -4 -4 -10z"/>
<path d="M13165 12633 c4 -15 -1 -29 -14 -42 -11 -11 -16 -23 -12 -26 11 -6
41 4 41 15 0 5 2 14 5 22 3 7 -2 22 -10 33 -16 20 -16 20 -10 -2z"/>
<path d="M14210 12629 c0 -5 5 -7 10 -4 6 3 10 8 10 11 0 2 -4 4 -10 4 -5 0
-10 -5 -10 -11z"/>
<path d="M14220 12600 c0 -5 5 -10 11 -10 5 0 7 5 4 10 -3 6 -8 10 -11 10 -2
0 -4 -4 -4 -10z"/>
<path d="M13095 12550 c-3 -5 -1 -10 4 -10 6 0 11 5 11 10 0 6 -2 10 -4 10 -3
0 -8 -4 -11 -10z"/>
<path d="M13053 12530 c-16 -7 -20 -14 -15 -32 5 -18 7 -20 10 -5 2 9 7 17 12
17 4 0 10 7 14 15 3 8 4 15 3 14 -1 0 -12 -4 -24 -9z"/>
<path d="M8217 12480 c3 -11 7 -20 8 -20 1 0 5 9 8 20 3 12 0 20 -8 20 -8 0
-11 -8 -8 -20z"/>
<path d="M7400 11996 c0 -20 2 -36 4 -36 2 0 11 -3 19 -6 12 -4 15 3 14 33 -2
27 -7 39 -19 41 -15 3 -18 -4 -18 -32z"/>
<path d="M7456 11978 c-5 -21 -5 -21 28 -8 33 12 33 25 2 25 -15 0 -27 -7 -30
-17z"/>
<path d="M7396 11924 c-11 -28 -7 -32 18 -21 13 6 21 17 19 24 -7 18 -30 16
-37 -3z"/>
<path d="M7300 11853 c0 -3 8 -15 18 -26 17 -19 16 -20 -13 -14 -16 3 -24 4
-17 1 10 -5 10 -9 1 -20 -14 -17 -3 -18 39 -3 26 9 41 31 42 62 0 4 -16 7 -35
7 -19 0 -35 -3 -35 -7z"/>
<path d="M6416 11076 c6 -15 44 -29 44 -17 0 4 -11 13 -25 19 -19 9 -23 9 -19
-2z"/>
<path d="M6456 11033 c-10 -11 -7 -43 5 -43 6 0 18 -9 28 -21 15 -19 18 -19
30 -5 17 20 4 38 -21 30 -17 -5 -20 -3 -16 14 6 20 -13 37 -26 25z"/>
<path d="M5319 10783 c5 -10 21 -29 35 -42 14 -14 26 -30 26 -38 0 -7 5 -13
11 -13 6 0 8 9 4 21 -6 18 -5 19 14 10 11 -6 18 -17 15 -25 -7 -18 11 -29 36
-21 20 6 28 35 10 35 -5 0 -18 10 -29 21 -13 14 -27 20 -41 16 -15 -4 -29 3
-47 24 -29 32 -49 39 -34 12z"/>
<path d="M5332 10685 c1 -10 23 -34 48 -54 41 -33 43 -34 27 -8 -15 23 -15 27
-2 27 16 0 20 15 6 24 -5 3 -11 -1 -15 -9 -7 -19 -26 -19 -26 0 0 8 -9 19 -21
25 -18 10 -20 9 -17 -5z"/>
<path d="M5435 10650 c3 -5 8 -10 11 -10 2 0 4 5 4 10 0 6 -5 10 -11 10 -5 0
-7 -4 -4 -10z"/>
<path d="M5438 10556 c-4 -21 -3 -23 14 -13 19 12 19 28 1 34 -6 2 -13 -7 -15
-21z"/>
<path d="M5525 10570 c-3 -5 -15 -10 -26 -10 -32 0 -13 -17 20 -18 36 -1 47
11 27 27 -10 8 -16 9 -21 1z"/>
<path d="M5502 10518 c-14 -14 -16 -28 -3 -28 9 0 24 30 18 36 -2 2 -9 -2 -15
-8z"/>
<path d="M5596 10435 c4 -8 1 -22 -6 -30 -10 -13 -9 -15 10 -15 16 0 20 4 16
16 -3 9 -6 22 -6 30 0 8 -4 14 -10 14 -5 0 -7 -7 -4 -15z"/>
<path d="M5548 10373 c7 -3 16 -2 19 1 4 3 -2 6 -13 5 -11 0 -14 -3 -6 -6z"/>
<path d="M6229 9844 c-10 -3 -20 -20 -23 -39 -4 -19 -14 -39 -24 -44 -14 -8
-11 -12 22 -26 35 -15 38 -19 32 -47 -4 -22 0 -38 15 -59 11 -16 17 -29 12
-29 -9 -1 38 -29 50 -30 11 0 8 55 -5 68 -8 8 -8 15 2 27 7 9 8 15 2 15 -6 0
-18 7 -26 16 -14 14 -13 18 14 44 33 33 37 51 15 70 -8 7 -12 16 -9 21 3 5 -1
9 -8 9 -7 0 -22 2 -33 4 -11 2 -27 2 -36 0z"/>
<path d="M13443 9071 c-3 -11 -17 -24 -31 -30 -24 -10 -27 -17 -26 -59 0 -46
1 -47 30 -44 16 1 37 13 47 25 10 12 27 32 37 43 26 29 25 38 -6 63 -33 26
-44 26 -51 2z"/>
<path d="M13590 9047 c-68 -33 -84 -51 -71 -75 17 -32 13 -42 -16 -38 -17 1
-36 -4 -46 -15 -18 -17 -18 -17 3 -24 17 -5 20 -12 15 -32 -3 -14 -1 -31 6
-39 9 -11 8 -18 -3 -32 -20 -22 -28 -70 -17 -99 6 -17 5 -23 -5 -23 -7 0 -19
-7 -26 -15 -9 -11 -17 -12 -31 -4 -15 7 -19 6 -19 -6 0 -8 3 -14 8 -14 22 4
34 -3 29 -15 -7 -17 10 -32 38 -34 29 -1 95 -31 95 -42 0 -6 15 -18 34 -27 32
-15 37 -15 60 1 14 9 26 26 26 37 0 17 5 20 25 17 20 -4 25 -1 26 16 1 11 0
26 -1 31 -1 6 -3 16 -3 23 0 7 -7 10 -15 7 -9 -3 -12 0 -9 9 3 7 0 19 -6 26
-9 10 -7 11 11 5 16 -4 22 -2 22 9 0 8 9 18 20 21 11 4 18 10 15 15 -3 4 2 24
10 44 8 19 15 39 14 43 -6 34 4 76 20 90 19 16 19 17 -6 36 -16 13 -23 26 -20
38 3 11 1 17 -4 13 -5 -3 -9 -12 -9 -20 0 -9 -11 -14 -30 -14 -23 0 -30 4 -30
20 0 14 5 18 18 14 9 -3 -3 13 -28 35 -25 23 -47 41 -50 41 -3 0 -25 -10 -50
-23z m99 -131 c8 -10 9 -16 1 -21 -5 -3 -10 -15 -10 -26 0 -30 -27 -22 -44 13
-20 38 -20 39 -1 32 8 -4 15 -1 15 5 0 16 25 14 39 -3z m-16 -278 c-5 -10 -33
10 -33 23 0 5 9 4 19 -3 11 -7 17 -16 14 -20z"/>
<path d="M13360 8905 c-7 -8 -21 -15 -31 -15 -25 0 -37 -34 -31 -82 3 -30 9
-38 24 -38 16 0 19 5 15 23 -5 19 -2 22 21 22 15 0 28 4 29 10 1 5 8 12 16 15
13 4 13 10 0 43 -17 41 -24 45 -43 22z"/>
<path d="M13360 8792 c0 -5 7 -9 15 -9 8 0 12 4 9 9 -3 4 -9 8 -15 8 -5 0 -9
-4 -9 -8z"/>
<path d="M13276 8708 c-11 -17 -14 -28 -7 -24 6 4 11 2 11 -3 0 -6 5 -11 12
-11 6 0 8 3 5 6 -3 4 -2 16 4 26 19 35 -5 40 -25 6z"/>
<path d="M13340 8670 c0 -27 15 -57 22 -44 6 13 4 27 -9 49 -12 19 -12 19 -13
-5z"/>
<path d="M13354 8529 c-9 -10 -22 -15 -30 -12 -10 3 -16 -5 -20 -26 -5 -25
-10 -30 -25 -26 -16 5 -19 1 -19 -29 0 -26 -5 -36 -20 -41 -22 -7 -74 20 -66
34 3 4 -8 5 -24 3 -16 -2 -32 -12 -35 -22 -4 -12 -13 -16 -30 -12 -14 2 -28 8
-31 13 -3 5 -17 9 -30 9 -19 0 -29 -8 -37 -30 -6 -17 -19 -30 -28 -30 -27 0
-31 -28 -6 -45 12 -8 21 -18 19 -20 -1 -3 14 -19 33 -36 26 -23 35 -27 35 -15
0 9 4 16 9 16 5 0 7 -8 5 -17 -6 -23 92 -90 138 -95 31 -3 33 -1 32 29 l-2 32
30 -15 c24 -13 38 -13 86 -4 31 7 65 19 75 28 15 14 21 14 39 3 19 -12 20 -11
15 11 -4 15 -1 33 8 44 9 13 12 32 8 57 -4 29 -2 37 10 37 9 0 19 -5 22 -10 4
-6 14 -1 25 12 13 15 19 18 20 9 0 -11 4 -10 19 3 11 10 24 15 30 12 6 -4 3 7
-7 23 -9 17 -23 31 -29 31 -7 0 -22 18 -33 40 -14 28 -27 40 -43 41 -12 0 -46
4 -75 8 -43 6 -55 4 -68 -10z"/>
<path d="M11170 8401 c0 -16 30 -40 43 -35 7 2 21 -10 31 -26 10 -17 20 -29
23 -27 6 7 -16 47 -41 74 -21 23 -56 31 -56 14z"/>
<path d="M11302 8295 c6 -14 15 -25 20 -25 12 0 9 12 -6 33 -19 25 -27 21 -14
-8z"/>
<path d="M11380 8290 c8 -5 20 -10 25 -10 6 0 3 5 -5 10 -8 5 -19 10 -25 10
-5 0 -3 -5 5 -10z"/>
<path d="M11345 8250 c3 -5 8 -10 11 -10 2 0 4 5 4 10 0 6 -5 10 -11 10 -5 0
-7 -4 -4 -10z"/>
<path d="M13500 8241 c0 -5 6 -11 13 -14 7 -3 2 -9 -13 -15 -26 -10 -25 -11
24 -26 26 -8 26 32 0 49 -13 8 -24 11 -24 6z"/>
<path d="M8340 8230 c0 -5 -6 -10 -12 -10 -11 0 -21 -17 -56 -90 -4 -8 60 -30
70 -24 4 3 5 11 1 17 -9 13 -11 67 -3 67 3 0 6 11 6 25 1 14 0 25 -2 25 -2 0
-4 -4 -4 -10z"/>
<path d="M13450 8151 c0 -6 4 -13 10 -16 6 -3 7 1 4 9 -7 18 -14 21 -14 7z"/>
<path d="M8357 8104 c-23 -13 -26 -18 -16 -30 6 -8 8 -14 5 -14 -4 0 -2 -9 4
-20 13 -23 45 -28 36 -5 -3 8 -1 15 5 15 6 0 8 9 4 20 -4 12 -2 20 5 20 6 0 9
-4 5 -9 -3 -5 -1 -12 5 -16 17 -11 11 21 -7 38 -16 14 -21 14 -46 1z"/>
<path d="M9770 7573 c0 -13 -3 -13 -15 -3 -12 10 -15 10 -15 -3 0 -11 -6 -15
-17 -11 -15 5 -15 3 1 -10 11 -9 25 -16 32 -16 6 0 14 -7 18 -15 7 -19 75 -21
77 -2 4 41 -5 54 -49 66 -26 8 -32 7 -32 -6z"/>
<path d="M9976 7562 c-6 -17 -17 -24 -54 -32 -4 -1 -15 -8 -24 -17 -9 -8 -22
-12 -27 -8 -6 3 -11 2 -11 -3 0 -10 23 -22 41 -22 5 0 9 9 9 19 0 14 5 18 20
14 11 -3 20 -9 20 -14 0 -13 34 -11 48 3 16 16 15 39 -2 61 -14 18 -14 18 -20
-1z"/>
<path d="M9950 7472 c0 -5 7 -17 15 -28 8 -10 15 -32 15 -48 0 -24 2 -27 15
-16 8 7 15 19 15 28 0 8 7 24 17 34 9 11 11 18 5 18 -7 0 -12 -6 -12 -12 0 -9
-3 -10 -8 -2 -7 11 -45 34 -56 34 -3 0 -6 -4 -6 -8z"/>
<path d="M9736 7423 c-6 -14 -5 -15 5 -6 7 7 10 15 7 18 -3 3 -9 -2 -12 -12z"/>
<path d="M9680 7371 c0 -17 18 -21 24 -6 3 9 0 15 -9 15 -8 0 -15 -4 -15 -9z"/>
<path d="M9974 7351 c-17 -4 -37 -12 -45 -17 -8 -4 -18 -9 -24 -10 -5 0 -16
-2 -24 -2 -11 -2 -11 -5 -1 -17 7 -8 10 -24 7 -35 -3 -11 -1 -20 4 -20 5 0 9
-6 9 -14 0 -7 14 -19 30 -26 17 -7 30 -18 30 -25 0 -17 -36 -25 -50 -11 -9 8
-11 6 -6 -10 4 -12 7 -38 8 -58 1 -35 3 -37 32 -34 23 2 32 9 34 26 2 12 10
22 19 22 12 0 13 6 7 28 -4 15 -8 48 -9 74 -1 26 -7 53 -14 62 -10 12 -9 17 9
26 11 6 18 16 14 22 -4 5 0 14 7 19 16 10 7 10 -37 0z"/>
<path d="M9620 7324 c0 -8 5 -12 10 -9 6 4 8 11 5 16 -9 14 -15 11 -15 -7z"/>
<path d="M10140 7330 c-9 -6 -10 -10 -3 -10 6 0 15 5 18 10 8 12 4 12 -15 0z"/>
<path d="M10090 7321 c0 -6 4 -13 10 -16 6 -3 7 1 4 9 -7 18 -14 21 -14 7z"/>
<path d="M10095 7270 c-3 -5 1 -10 9 -10 9 0 16 5 16 10 0 6 -4 10 -9 10 -6 0
-13 -4 -16 -10z"/>
<path d="M9575 7250 c3 -5 10 -10 16 -10 5 0 9 5 9 10 0 6 -7 10 -16 10 -8 0
-12 -4 -9 -10z"/>
<path d="M9850 7060 c0 -5 11 -10 25 -10 14 0 25 5 25 10 0 6 -11 10 -25 10
-14 0 -25 -4 -25 -10z"/>
</g>
</svg>
