<?xml version="1.0" standalone="no"?>
<!DOCTYPE svg PUBLIC "-//W3C//DTD SVG 20010904//EN"
 "http://www.w3.org/TR/2001/REC-SVG-20010904/DTD/svg10.dtd">
<svg version="1.0" xmlns="http://www.w3.org/2000/svg"
 width="501.938070pt" height="595.601385pt" viewBox="0 0 501.938070 595.601385"
 preserveAspectRatio="xMidYMid meet">
<metadata>
Created by potrace 1.15, written by Peter Selinger 2001-2017
</metadata>
<g transform="translate(-701.507904,1310.148810) scale(0.100000,-0.100000)"
fill="#222222" stroke="none">
<path d="M10787 13093 c-4 -3 -7 -16 -7 -27 0 -22 -24 -96 -41 -128 -5 -10
-19 -18 -29 -18 -14 0 -20 -7 -20 -24 0 -18 -7 -25 -27 -29 -28 -5 -57 9 -48
23 8 13 -35 60 -55 60 -11 0 -30 5 -44 11 -19 9 -29 9 -40 0 -9 -8 -16 -8 -20
-2 -9 14 -36 2 -36 -15 0 -8 5 -14 10 -14 24 0 7 -29 -22 -40 -30 -11 -31 -13
-13 -19 27 -11 26 -33 -4 -53 -19 -13 -27 -14 -33 -5 -12 19 -9 27 6 21 8 -3
17 -1 21 5 4 7 -5 11 -24 11 -17 0 -34 -7 -39 -16 -6 -11 -11 -13 -16 -5 -4 6
-16 11 -27 11 -12 0 -19 7 -19 19 0 30 -22 30 -48 -1 -28 -33 -47 -36 -64 -8
-7 11 -24 21 -38 21 -17 1 -19 3 -7 6 19 5 23 28 7 38 -6 4 -17 1 -25 -5 -12
-10 -15 -9 -15 8 0 12 -9 26 -20 32 -19 10 -23 7 -38 -29 -9 -23 -22 -41 -29
-41 -6 0 -15 -9 -18 -20 -8 -25 -28 -25 -84 0 -56 26 -59 25 -31 -5 26 -27 41
-117 21 -129 -7 -5 -6 -14 5 -32 11 -15 12 -24 5 -24 -15 0 5 -39 28 -57 11
-8 12 -12 4 -13 -18 0 -16 -25 2 -40 8 -7 15 -27 15 -44 0 -17 9 -51 20 -75
11 -24 18 -52 15 -62 -7 -20 13 -63 48 -105 14 -16 28 -43 31 -61 7 -31 23
-46 174 -169 17 -14 32 -32 32 -40 0 -8 11 -19 24 -26 30 -13 41 -37 21 -44
-18 -7 -9 -53 13 -70 8 -6 12 -16 9 -21 -4 -6 0 -16 8 -23 21 -18 19 -33 -10
-64 -14 -15 -25 -33 -25 -41 0 -11 -6 -12 -22 -6 -42 15 -68 -4 -68 -51 0 -24
-4 -28 -29 -28 -17 0 -31 -6 -35 -16 -10 -27 -7 -34 19 -34 19 0 26 -7 34 -37
15 -53 13 -123 -4 -153 -8 -14 -14 -37 -15 -52 0 -23 -5 -28 -24 -28 -20 0
-23 -4 -18 -22 7 -27 42 -68 58 -68 7 0 14 -8 16 -17 3 -16 4 -16 20 0 9 9 25
17 35 17 10 0 24 9 31 21 11 17 11 25 -2 44 -21 32 -20 35 9 35 19 0 25 5 25
21 0 18 4 20 25 15 18 -5 25 -2 25 9 0 8 5 15 10 15 6 0 10 -4 10 -10 0 -5 7
-10 15 -10 8 0 15 7 15 15 0 8 5 15 11 15 8 0 7 6 -2 17 -12 15 -12 16 4 10
11 -4 16 -3 12 3 -3 6 2 13 11 17 10 4 19 2 21 -3 6 -17 153 11 153 28 0 5 5
6 10 3 6 -3 10 -1 10 5 0 6 8 10 17 8 20 -4 37 -59 21 -69 -7 -4 -3 -11 10
-18 16 -8 21 -7 26 5 5 12 10 13 19 5 17 -14 72 1 72 20 0 8 6 18 13 22 6 4
12 12 12 18 0 5 9 28 20 50 18 39 18 42 3 66 -10 14 -19 21 -21 15 -4 -12 -13
-7 -63 40 -31 29 -40 83 -17 106 9 9 7 12 -9 12 -14 0 -20 -6 -19 -17 1 -13
-8 -19 -31 -21 -25 -2 -33 -8 -33 -23 0 -26 -43 -25 -81 2 -36 25 -37 58 -4
89 25 24 33 64 15 75 -5 3 -10 17 -10 31 0 22 4 24 41 24 39 0 41 2 37 25 -4
19 -1 25 14 25 17 0 17 2 2 38 -9 20 -18 43 -21 50 -3 8 3 15 16 19 15 4 21
13 21 32 -1 53 -27 124 -53 147 -15 13 -23 26 -17 29 5 3 6 13 3 21 -5 13 2
15 38 13 35 -3 44 0 47 13 2 9 12 20 23 23 12 4 19 15 19 31 0 21 4 23 24 18
30 -7 70 38 60 69 -5 17 -3 19 16 14 20 -5 22 -3 16 25 -6 32 11 108 28 120 5
4 -3 19 -20 35 -17 15 -36 38 -43 51 -11 20 -10 26 5 36 15 12 14 13 -12 19
-20 4 -32 14 -40 35 -10 27 -10 30 5 25 13 -5 13 -3 -3 15 -17 19 -17 22 -3
22 10 0 17 7 17 15 0 8 8 15 18 15 15 1 15 2 -2 15 -15 11 -22 12 -27 3 -6 -9
-11 -9 -23 1 -22 18 -20 31 4 31 24 0 40 28 31 54 -10 31 -7 51 8 69 20 25
-10 53 -32 30z"/>
<path d="M9520 11994 c0 -9 -6 -11 -17 -7 -15 6 -16 4 -5 -9 7 -9 10 -27 6
-48 -10 -50 17 -34 38 22 16 45 16 46 -3 51 -12 3 -19 0 -19 -9z"/>
<path d="M9200 11949 c7 -11 14 -19 16 -16 7 7 -7 37 -17 37 -6 0 -5 -9 1 -21z"/>
<path d="M9157 11898 c-7 -26 -3 -33 13 -23 6 4 9 14 5 23 -5 13 -2 12 15 -3
11 -10 20 -13 20 -7 0 10 -30 32 -43 32 -3 0 -7 -10 -10 -22z"/>
<path d="M9393 11876 c-37 -38 -26 -65 19 -47 13 5 36 12 51 16 16 3 27 11 24
18 -2 7 -9 11 -15 10 -5 -1 -16 4 -22 12 -17 21 -31 18 -57 -9z"/>
<path d="M9160 11851 c0 -5 7 -12 16 -15 14 -5 15 -4 4 9 -14 17 -20 19 -20 6z"/>
<path d="M9235 11820 c-11 -4 -23 -6 -27 -3 -16 9 -29 -8 -17 -23 6 -7 15 -12
19 -9 11 7 21 -22 14 -39 -3 -8 -12 -12 -20 -9 -18 7 -19 -13 -1 -24 8 -4 17
-16 20 -27 7 -18 8 -18 27 -1 11 10 20 27 20 37 0 11 5 16 10 13 14 -9 42 14
33 28 -4 6 1 8 13 5 10 -2 27 4 36 14 17 17 17 18 0 26 -26 14 -104 21 -127
12z"/>
<path d="M9235 11649 c-4 -6 -1 -15 6 -20 11 -7 7 -15 -18 -35 -21 -16 -33
-34 -33 -49 0 -16 -5 -23 -13 -19 -7 2 -21 -4 -31 -15 -14 -15 -23 -18 -42
-11 -19 7 -24 6 -24 -5 0 -8 -7 -15 -15 -15 -19 0 -51 -32 -60 -59 -3 -12 -15
-21 -26 -21 -12 0 -19 -7 -19 -19 0 -10 -7 -24 -15 -31 -8 -7 -15 -19 -15 -27
0 -8 -4 -11 -10 -8 -5 3 -10 15 -10 26 0 20 -4 23 -54 34 -23 5 -27 3 -22 -10
4 -10 -4 -21 -24 -34 -17 -10 -26 -21 -21 -27 15 -16 20 -92 7 -97 -8 -3 -11
-17 -8 -36 3 -24 11 -33 31 -37 49 -12 70 -44 29 -44 -32 0 -52 15 -43 30 5 8
4 11 -2 7 -6 -4 -18 2 -28 13 -10 11 -24 20 -30 20 -7 0 -15 13 -18 29 -5 22
-17 34 -50 50 -24 11 -46 21 -49 21 -14 0 0 -54 17 -66 9 -7 15 -18 13 -25 -2
-7 -16 -1 -37 17 l-34 28 5 -37 c2 -20 0 -37 -4 -37 -4 0 -7 -6 -5 -12 1 -8
-7 -12 -21 -10 -29 4 -55 -22 -47 -48 5 -14 2 -20 -9 -20 -12 0 -16 -10 -16
-40 0 -31 -4 -40 -17 -42 -54 -5 -70 -1 -90 22 -12 14 -23 19 -23 13 0 -7 -7
-13 -15 -13 -8 0 -15 -5 -15 -12 0 -8 -6 -7 -16 4 -9 9 -16 29 -16 44 0 26 -1
27 -14 9 -8 -10 -14 -15 -14 -9 0 5 -4 4 -8 -1 -15 -21 -63 -36 -78 -24 -8 6
-12 15 -9 19 3 5 -4 10 -16 12 -21 3 -20 4 5 32 24 25 26 30 12 45 -10 11 -12
21 -6 31 16 25 12 80 -5 80 -8 0 -15 -3 -15 -7 0 -5 -27 -6 -60 -5 -55 3 -62
7 -75 32 -11 21 -21 28 -40 25 -14 -1 -28 2 -31 6 -8 13 -52 -1 -92 -28 -31
-21 -37 -22 -52 -8 -14 13 -18 13 -32 -1 -17 -17 -38 -12 -38 10 0 7 -11 18
-25 24 -15 7 -25 8 -25 2 0 -15 -27 -12 -61 5 -37 19 -63 8 -77 -35 -6 -16
-16 -30 -21 -30 -6 0 -27 -14 -47 -32 -37 -32 -68 -38 -128 -24 -19 5 -36 2
-53 -10 -19 -12 -31 -14 -48 -6 -22 10 -22 9 -17 -34 5 -46 -15 -84 -43 -84
-12 0 -12 -8 -6 -77 1 -7 9 -13 20 -13 25 0 71 -44 71 -68 0 -11 7 -25 15 -32
8 -7 15 -21 15 -31 0 -10 9 -21 20 -24 11 -3 20 -12 20 -19 0 -7 9 -21 20 -31
25 -22 43 -79 35 -106 -4 -11 -19 -35 -34 -52 -16 -18 -31 -48 -35 -68 -5 -28
-13 -40 -37 -49 -20 -9 -28 -18 -24 -28 3 -8 8 -42 12 -74 4 -42 3 -58 -6 -58
-8 0 -10 -8 -6 -20 4 -12 0 -26 -10 -36 -19 -19 -13 -27 33 -42 27 -9 34 -9
39 3 7 20 112 20 139 0 10 -8 24 -15 30 -15 6 0 30 -18 54 -40 24 -22 49 -40
56 -40 7 0 20 -10 28 -22 13 -18 18 -19 31 -8 10 9 15 9 15 1 0 -6 -7 -14 -15
-18 -9 -3 -22 -21 -30 -39 -8 -19 -21 -34 -29 -34 -18 0 -50 -64 -43 -84 8
-21 85 -40 112 -28 15 7 29 6 49 -5 16 -9 39 -12 56 -8 17 4 31 2 35 -5 5 -8
17 4 32 29 13 23 28 41 32 41 14 0 33 -28 27 -39 -4 -5 8 -30 25 -55 29 -40
34 -43 55 -34 13 6 24 15 24 20 0 15 21 8 27 -9 4 -10 15 -29 25 -42 11 -15
15 -29 9 -38 -5 -10 0 -23 16 -39 12 -13 23 -29 23 -37 0 -8 14 -17 32 -21 17
-3 28 -9 25 -13 -4 -4 1 -16 12 -27 39 -44 42 -118 5 -151 -19 -17 -25 -45
-10 -45 8 0 21 -3 30 -6 10 -4 16 -1 16 9 0 16 20 27 50 27 10 0 21 7 24 16 5
13 15 15 51 10 37 -6 45 -4 45 8 0 21 18 20 62 -3 24 -12 51 -17 78 -15 22 2
40 0 40 -4 0 -5 6 -16 13 -26 12 -16 16 -16 65 10 54 28 92 65 92 90 0 17 0
17 37 -1 37 -19 66 -10 58 16 -6 17 -1 19 40 19 39 0 48 4 52 20 4 14 11 19
23 15 11 -4 20 3 29 21 9 21 14 24 26 14 11 -9 15 -9 15 -1 0 6 -11 16 -25 23
-13 6 -22 15 -19 19 3 5 1 9 -4 9 -6 0 -13 11 -16 25 -4 14 -14 29 -23 32 -9
4 -25 15 -36 26 -19 19 -21 19 -33 3 -10 -14 -21 -17 -53 -11 -23 4 -41 11
-41 16 0 12 -52 79 -61 79 -14 0 -66 56 -73 78 -7 20 -5 21 26 15 39 -8 58
-24 58 -50 0 -10 14 -27 30 -37 17 -9 39 -26 48 -37 13 -13 34 -20 70 -21 42
-2 52 -6 52 -20 0 -14 6 -16 30 -12 25 6 31 3 39 -20 12 -29 24 -27 105 18 34
19 47 22 56 13 13 -12 12 -5 -7 41 -3 6 0 12 6 12 14 0 15 47 1 55 -5 3 -10
16 -10 28 0 13 -7 33 -16 45 -8 12 -12 26 -9 32 3 5 0 20 -6 32 -7 13 -13 34
-13 48 -1 17 -6 24 -17 22 -10 -1 -19 6 -22 18 -6 24 10 26 40 5 24 -17 57
-13 106 12 16 8 42 15 57 15 16 1 27 5 24 10 -3 4 13 8 35 8 28 0 41 -4 41
-14 0 -8 11 -13 29 -12 22 1 27 4 19 14 -7 8 -7 12 0 12 5 0 15 -7 22 -15 8
-9 16 -12 19 -6 9 14 60 -35 77 -74 13 -31 13 -35 -1 -35 -14 0 -14 -3 1 -25
9 -14 13 -25 9 -25 -4 0 -2 -7 5 -15 8 -10 27 -14 54 -13 22 1 48 -2 58 -6 12
-5 18 -2 23 14 8 26 -10 50 -39 50 -12 0 -16 3 -10 8 19 12 27 68 13 90 -20
32 3 53 40 39 18 -6 27 -16 24 -24 -3 -7 2 -13 11 -13 9 0 16 -4 16 -10 0 -5
-7 -10 -15 -10 -10 0 -15 -10 -15 -26 0 -21 4 -25 20 -21 25 6 26 -8 3 -22
-12 -7 -14 -13 -7 -18 20 -15 64 -80 58 -86 -4 -4 -1 -13 6 -21 10 -13 15 -11
36 13 13 16 24 36 24 44 0 8 10 21 23 30 21 14 21 16 5 33 -23 26 -13 78 13
71 11 -3 19 0 20 6 0 7 4 2 9 -10 5 -12 21 -25 35 -29 16 -4 31 -19 40 -38 8
-17 20 -39 27 -49 11 -15 10 -20 -4 -31 -11 -8 -14 -17 -8 -26 5 -8 7 -17 4
-21 -2 -4 13 -3 34 3 20 5 47 12 59 15 12 3 31 -2 43 -10 12 -8 30 -13 40 -10
10 3 27 -4 37 -14 11 -11 27 -22 36 -26 9 -3 17 -16 17 -27 0 -22 6 -23 85
-22 73 1 115 -21 115 -62 0 -16 -3 -17 -12 -8 -17 17 -28 15 -28 -7 0 -33 -21
-81 -33 -75 -8 4 -7 2 1 -7 20 -22 14 -45 -23 -78 -19 -17 -35 -35 -35 -41 0
-7 -6 -8 -19 -1 -16 9 -20 7 -23 -14 -3 -13 -1 -22 3 -19 5 3 40 -20 77 -50
65 -53 102 -69 102 -46 0 6 0 12 0 15 0 3 -2 4 -4 3 -3 -2 -16 8 -29 21 -14
12 -30 20 -36 16 -6 -3 -11 0 -11 7 0 9 -3 9 -10 -2 -7 -10 -10 -11 -10 -2 0
7 11 18 25 24 14 6 25 19 25 29 0 9 7 20 16 23 9 4 14 13 10 21 -3 9 0 15 9
15 8 0 15 5 15 10 0 6 20 10 45 10 40 0 47 -3 55 -26 13 -33 4 -47 -25 -40
-15 4 -25 1 -28 -8 -7 -19 3 -59 18 -71 15 -13 26 -55 14 -55 -5 0 -9 -10 -9
-22 0 -15 -9 -27 -25 -35 -14 -6 -25 -7 -25 -2 0 15 -19 10 -40 -11 -24 -24
-25 -36 -3 -48 9 -5 18 -26 20 -46 3 -35 -8 -48 -23 -25 -3 6 -17 9 -31 6 -20
-4 -24 -1 -20 14 3 11 1 19 -3 19 -5 0 -6 -31 -3 -68 5 -65 4 -69 -20 -85 -14
-9 -32 -14 -40 -11 -11 4 -13 -1 -10 -20 4 -21 1 -26 -16 -26 -11 0 -21 5 -21
10 0 18 -18 11 -25 -9 -5 -16 -11 -18 -34 -11 -26 7 -28 6 -23 -12 4 -18 1
-20 -32 -16 -29 3 -36 1 -36 -13 0 -12 -12 -18 -46 -23 -25 -3 -53 -2 -62 3
-12 7 -20 0 -35 -30 -18 -36 -58 -61 -74 -46 -3 3 -16 -8 -30 -24 -24 -28 -26
-29 -40 -12 -10 13 -16 15 -19 6 -3 -7 -11 -13 -17 -13 -8 0 -8 3 0 11 8 8 8
20 3 35 -7 16 -5 24 4 26 10 2 11 10 5 26 -11 28 -49 30 -56 2 -3 -11 -11 -20
-18 -20 -7 0 -13 -6 -12 -12 1 -41 -5 -56 -25 -62 -15 -3 -30 1 -43 14 -16 17
-17 20 -4 20 20 0 13 49 -8 57 -20 8 -28 -4 -13 -22 11 -13 10 -14 -4 -9 -18
7 -31 46 -23 69 4 8 2 17 -3 20 -9 5 -15 -15 -11 -37 0 -5 -14 -22 -32 -39
-17 -17 -31 -35 -30 -39 1 -4 -12 -15 -30 -24 -18 -8 -26 -16 -19 -16 7 0 11
-4 8 -9 -9 -14 48 0 67 17 14 13 22 14 35 4 9 -6 32 -18 50 -27 18 -8 31 -19
28 -23 -10 -17 18 -62 39 -62 39 -1 91 -62 79 -93 -3 -10 4 -17 22 -21 14 -4
29 -5 32 -2 10 10 32 -47 26 -66 -4 -14 3 -29 22 -49 25 -26 27 -32 16 -50 -8
-12 -11 -23 -8 -26 3 -3 0 -15 -6 -27 -16 -29 -20 -83 -8 -91 5 -3 10 -21 10
-40 0 -19 5 -37 11 -40 6 -4 8 -13 5 -20 -6 -16 35 -45 64 -45 11 0 20 -6 20
-14 0 -8 10 -14 23 -14 12 0 44 -8 70 -17 42 -15 50 -16 65 -3 24 20 82 23 82
4 0 -9 8 -20 18 -25 14 -8 25 -4 46 16 27 25 29 25 62 10 19 -9 34 -23 34 -32
0 -8 9 -20 21 -27 11 -7 27 -28 34 -45 8 -18 19 -33 26 -33 6 0 22 -11 34 -24
12 -13 28 -25 35 -28 12 -4 12 -9 1 -36 -12 -29 -12 -35 4 -52 25 -27 39 -5
18 27 -15 22 -14 23 9 23 13 0 30 -6 37 -12 11 -10 14 -10 18 0 3 6 13 12 24
12 11 0 19 7 19 18 1 16 1 16 14 0 11 -15 18 -16 47 -6 19 6 40 12 47 14 29 8
9 19 -27 16 -29 -3 -44 1 -59 16 -16 16 -20 17 -28 4 -8 -12 -13 -11 -34 6
l-24 19 22 7 c12 4 34 24 50 44 15 20 35 43 45 51 10 7 16 19 13 26 -3 8 1 19
9 25 10 8 11 18 3 43 -17 50 -25 62 -41 59 -8 -1 -17 4 -20 13 -4 8 -13 12
-22 9 -8 -3 -12 -10 -9 -15 9 -15 -6 -10 -36 11 -27 19 -28 23 -23 80 4 48 10
66 30 86 l25 25 25 -23 c20 -19 25 -20 33 -8 5 8 10 11 10 6 0 -6 9 0 21 13
12 12 18 29 15 38 -4 11 -2 13 9 9 8 -3 22 -9 30 -12 8 -3 15 -2 15 4 0 5 -9
12 -19 15 -11 3 -22 17 -26 36 -3 17 -13 35 -22 39 -16 10 -10 52 8 52 10 0
-13 50 -33 72 -7 7 -20 22 -28 33 -14 18 -14 19 2 7 13 -10 17 -10 21 0 3 8 6
5 7 -7 1 -28 31 -60 61 -68 22 -6 29 -1 50 31 14 21 44 48 72 62 26 14 45 30
43 37 -3 6 1 23 7 38 9 19 18 25 35 22 12 -2 22 -1 22 3 0 15 32 20 53 9 33
-18 80 -13 99 11 10 12 15 26 12 31 -3 5 6 5 20 -1 24 -9 25 -8 21 35 -6 54
10 62 58 29 20 -13 39 -24 42 -24 4 0 14 -7 22 -16 14 -14 17 -14 25 -1 6 12
14 13 43 4 19 -6 35 -16 35 -24 0 -7 5 -13 11 -13 5 0 15 -13 20 -30 6 -16 17
-30 23 -30 7 0 19 -11 26 -25 8 -14 25 -28 39 -31 46 -10 49 -12 44 -36 -4
-20 0 -23 26 -23 17 0 31 4 31 9 0 6 13 -3 29 -18 29 -28 29 -28 49 -8 24 24
58 36 66 23 4 -5 34 -10 67 -10 42 0 67 -5 79 -16 12 -11 20 -13 25 -6 3 6 0
11 -8 11 -15 0 -32 29 -22 38 2 3 11 0 18 -6 8 -7 17 -9 20 -5 15 14 6 53 -14
67 -18 12 -23 28 -26 88 -3 40 0 92 5 115 8 34 7 45 -5 55 -8 6 -23 29 -34 51
-19 36 -19 42 -5 70 13 28 13 34 0 48 -19 21 -18 26 6 32 13 3 20 14 20 30 0
13 -9 32 -20 42 -15 13 -20 31 -20 66 0 39 -4 49 -20 54 -25 8 -56 105 -42
132 11 21 1 53 -21 72 -13 10 -14 17 -5 31 15 24 -1 45 -48 60 -19 6 -34 16
-34 22 0 7 -7 20 -17 30 -15 17 -15 18 0 18 10 0 17 8 17 20 0 21 -15 27 -25
10 -10 -16 -25 -1 -25 23 0 21 -36 54 -54 49 -5 -2 -6 4 -3 12 4 9 -8 27 -31
46 -86 73 -90 78 -82 114 4 19 10 38 14 44 3 6 2 13 -4 17 -5 3 -10 21 -10 39
0 20 -8 40 -20 51 -21 19 -28 41 -9 29 8 -4 9 0 4 15 -5 16 -2 21 10 21 9 0
19 9 22 20 3 11 12 20 19 20 8 0 14 9 14 20 0 12 5 17 14 14 19 -7 32 16 15
28 -10 7 -6 8 12 4 31 -7 39 6 39 64 0 30 4 37 18 36 9 0 24 -10 33 -20 14
-18 19 -18 48 -7 31 13 40 26 22 33 -5 2 -6 24 -1 51 7 48 7 48 -30 69 -28 16
-40 32 -50 65 -7 24 -21 48 -31 54 -11 5 -19 6 -19 2 0 -4 -5 -1 -10 7 -8 12
-10 10 -10 -8 0 -24 -6 -24 -59 -4 -9 4 -12 1 -7 -7 15 -23 -3 -77 -33 -99
-29 -21 -29 -21 -65 -1 l-36 19 6 -26 c5 -20 4 -25 -5 -20 -10 7 -32 51 -33
66 0 3 -4 11 -10 18 -7 8 -7 12 1 12 9 0 9 5 1 21 -7 12 -18 18 -26 15 -7 -3
-18 3 -24 14 -13 24 -34 17 -48 -16 -13 -28 -38 -31 -71 -8 -26 19 -37 10 -47
-38 -4 -15 -15 -30 -25 -33 -11 -4 -19 -11 -19 -16 0 -17 -29 -9 -35 10 -3 11
-15 23 -26 26 -10 4 -19 14 -19 24 0 15 -8 18 -42 17 -37 -1 -43 2 -43 19 0
16 -7 20 -34 20 -21 0 -36 6 -39 14 -3 10 1 12 17 8 11 -3 21 -1 21 4 0 5 -4
9 -10 9 -5 0 -10 7 -10 16 0 8 -19 34 -42 57 -24 23 -51 57 -60 75 -21 40 -53
45 -44 7 4 -15 0 -40 -8 -58 -8 -18 -18 -52 -21 -77 -8 -50 -31 -101 -51 -113
-8 -5 -11 -19 -7 -42 4 -27 2 -35 -10 -35 -23 0 -44 -89 -27 -115 3 -5 7 -23
8 -38 2 -35 10 -49 23 -42 5 4 9 -5 9 -19 0 -13 -6 -26 -12 -29 -9 -2 -14 -29
-15 -78 -1 -41 -4 -91 -6 -112 -2 -21 0 -40 5 -43 4 -3 8 -21 8 -41 0 -27 -3
-34 -15 -29 -10 4 -15 -1 -15 -14 0 -11 -6 -20 -14 -20 -8 0 -16 -5 -18 -12
-2 -6 -29 17 -59 51 -41 47 -64 64 -94 72 -28 7 -45 19 -57 39 -12 22 -27 30
-67 39 -79 17 -141 15 -141 -5 0 -22 -47 -10 -69 18 -15 18 -18 18 -30 4 -10
-12 -16 -13 -32 -3 -17 10 -22 9 -33 -5 -7 -10 -16 -15 -19 -11 -4 3 -7 1 -7
-5 0 -7 -7 -12 -15 -12 -8 0 -15 -4 -15 -10 0 -5 -10 -10 -21 -10 -12 0 -27
-8 -34 -17 -20 -27 -62 -2 -84 50 -10 23 -26 48 -35 56 -14 12 -16 11 -16 -8
0 -11 -4 -21 -10 -21 -5 0 -10 5 -10 11 0 8 -13 9 -39 5 -42 -6 -64 8 -61 41
4 30 0 43 -10 43 -5 0 -10 -7 -10 -15 0 -10 -10 -15 -30 -15 -21 0 -36 8 -52
31 -13 17 -22 36 -20 42 2 5 0 17 -3 25 -4 11 -9 11 -19 3 -7 -6 -16 -8 -19
-4 -4 3 -7 1 -7 -7 0 -10 -3 -10 -15 0 -8 7 -15 20 -15 30 0 11 -10 20 -25 24
-23 6 -25 9 -18 49 4 23 7 73 7 110 l1 69 33 -6 c18 -2 46 -11 62 -19 25 -13
31 -13 49 0 12 8 30 12 42 8 15 -5 22 -2 26 14 6 25 5 25 48 7 40 -17 48 -50
14 -59 -14 -4 -20 -11 -16 -21 3 -8 2 -18 -3 -21 -17 -11 -11 -35 9 -35 33 0
46 -55 24 -97 -24 -46 -13 -76 31 -91 44 -14 55 -9 39 17 -10 15 -7 22 15 41
16 14 20 20 10 17 -14 -5 -18 -1 -18 19 0 14 -5 34 -10 45 -6 11 -7 19 -3 18
22 -4 34 2 27 13 -13 20 -12 48 2 48 6 0 14 -10 17 -22 5 -20 13 -23 59 -23
34 0 62 6 78 18 13 9 29 17 35 17 13 0 48 59 51 88 2 12 -1 22 -7 22 -5 0 -9
5 -9 10 0 6 6 10 13 10 20 0 47 68 37 95 -9 24 -3 66 12 76 5 3 3 26 -4 52
-13 49 -7 67 14 49 10 -8 20 -6 38 8 14 11 31 20 38 20 7 0 12 15 12 39 0 22
5 41 13 44 10 3 10 9 0 26 -17 28 -16 36 2 21 12 -10 15 -10 15 3 0 8 -9 17
-20 20 -13 3 -20 14 -20 29 0 14 -6 25 -12 26 -51 4 -127 20 -147 31 -12 7
-31 11 -42 8 -12 -3 -31 8 -55 31 -23 22 -39 32 -42 24 -6 -18 -43 -14 -80 8
l-32 20 -12 -25 c-6 -14 -18 -25 -25 -25 -8 0 -12 -4 -9 -9 8 -13 -76 -20 -92
-8 -11 9 -13 4 -10 -24 3 -37 -10 -56 -54 -76 -25 -11 -29 -9 -67 33 -36 38
-47 44 -81 44 -31 0 -38 3 -34 15 4 10 0 15 -13 15 -11 0 -37 15 -59 34 -34
29 -38 38 -38 77 1 24 -1 34 -3 22 -3 -13 -16 -26 -35 -32 -25 -9 -29 -8 -24
4 3 8 1 15 -4 15 -9 0 -31 66 -35 103 -2 21 11 22 32 1 9 -8 22 -13 30 -10 8
3 26 3 39 0 19 -5 23 -11 18 -26 -5 -18 -3 -19 28 -13 18 3 43 11 55 17 30 15
39 62 19 93 -21 31 -30 32 -24 1 4 -18 1 -22 -13 -19 -13 4 -16 0 -13 -15 8
-27 -26 -39 -43 -15 -7 10 -17 24 -23 31 -8 9 -4 12 18 12 17 0 37 9 51 24
l23 24 -29 30 c-32 34 -68 49 -78 31z m77 -544 c6 -28 1 -30 -24 -11 -13 10
-15 15 -6 24 18 18 25 15 30 -13z m-631 -5 c22 -12 25 -30 5 -30 -20 0 -31
-21 -16 -30 9 -5 9 -9 1 -14 -10 -7 -41 15 -41 28 0 12 20 56 25 56 4 0 15 -5
26 -10z m-68 -40 c4 -15 0 -20 -14 -20 -21 0 -22 1 -13 24 8 22 21 20 27 -4z
m697 0 c0 -5 -7 -7 -15 -4 -8 4 -15 8 -15 10 0 2 7 4 15 4 8 0 15 -4 15 -10z
m360 -360 c0 -5 -4 -10 -10 -10 -5 0 -10 5 -10 10 0 6 5 10 10 10 6 0 10 -4
10 -10z m-1116 -181 c4 6 11 11 15 11 12 0 20 -37 11 -47 -5 -4 -10 -19 -12
-32 -5 -39 -28 -38 -28 2 0 21 -7 41 -19 51 -11 10 -17 25 -14 33 5 13 9 11
23 -7 11 -15 19 -19 24 -11z m831 -89 c3 -5 2 -10 -4 -10 -5 0 -13 5 -16 10
-3 6 -2 10 4 10 5 0 13 -4 16 -10z m355 -5 c0 -8 -2 -15 -4 -15 -2 0 -6 7 -10
15 -3 8 -1 15 4 15 6 0 10 -7 10 -15z m-315 -233 c-7 -8 -35 7 -35 18 0 6 7 6
20 -2 10 -7 17 -14 15 -16z m493 -91 c3 -8 -1 -12 -9 -9 -7 2 -15 10 -17 17
-3 8 1 12 9 9 7 -2 15 -10 17 -17z m-2224 -77 c3 -8 2 -12 -4 -9 -6 3 -10 10
-10 16 0 14 7 11 14 -7z m732 -6 c4 -5 -4 -8 -17 -6 -12 1 -24 8 -26 15 -5 14
34 6 43 -9z m1382 -7 c2 -6 -4 -11 -12 -11 -9 0 -19 -7 -22 -15 -9 -22 -24 -8
-22 20 2 18 7 23 27 21 14 -2 27 -8 29 -15z m862 -85 c0 -2 -7 -9 -15 -16 -12
-10 -15 -10 -15 4 0 9 7 16 15 16 8 0 15 -2 15 -4z m785 -62 c-9 -9 -18 -14
-21 -11 -9 9 6 27 22 27 13 0 13 -2 -1 -16z m-15 -44 c0 -5 -4 -10 -10 -10 -5
0 -10 5 -10 10 0 6 5 10 10 10 6 0 10 -4 10 -10z m-956 -24 c-21 -15 -30 -14
-19 3 3 6 14 11 23 11 13 0 13 -2 -4 -14z m-1979 -314 c-6 -7 -35 18 -35 31 0
5 9 2 20 -8 11 -10 18 -20 15 -23z m2100 -132 c3 -5 1 -10 -4 -10 -6 0 -11 5
-11 10 0 6 2 10 4 10 3 0 8 -4 11 -10z m1275 -340 c0 -14 -33 -21 -44 -9 -8 9
-7 10 6 6 15 -5 16 -4 5 13 -6 11 -15 20 -19 20 -5 0 -8 5 -8 11 0 6 14 1 30
-11 17 -12 30 -25 30 -30z m46 -23 c-2 -12 1 -28 6 -34 6 -8 -2 -7 -21 3 -42
21 -43 48 -2 51 16 1 20 -3 17 -20z m-406 -16 c0 -5 2 -16 5 -23 6 -16 -40
-42 -56 -32 -12 7 -8 46 6 56 14 11 45 10 45 -1z"/>
<path d="M9370 11622 c0 -11 8 -26 18 -33 15 -13 16 -12 4 3 -8 9 -11 22 -8
27 4 5 2 12 -4 16 -5 3 -10 -3 -10 -13z"/>
<path d="M9340 11606 c0 -2 8 -10 18 -17 15 -13 16 -12 3 4 -13 16 -21 21 -21
13z"/>
<path d="M9267 11391 c-3 -12 -1 -21 3 -21 14 0 19 15 11 29 -6 9 -10 7 -14
-8z"/>
<path d="M7102 11324 c8 -16 13 -37 10 -48 -3 -16 -2 -17 11 -5 13 12 13 18 1
41 -19 37 -39 48 -22 12z"/>
<path d="M7068 11309 c2 -15 11 -34 20 -41 13 -11 15 -10 9 12 -4 14 -7 30 -7
36 0 7 -6 14 -13 17 -10 4 -12 -3 -9 -24z"/>
<path d="M8505 11270 c-4 -7 -29 -9 -62 -6 -42 3 -53 2 -44 -7 6 -6 11 -19 11
-28 0 -10 13 -21 30 -28 28 -9 34 -7 31 11 0 4 14 10 33 13 22 5 37 15 45 31
10 22 8 24 -14 24 -13 0 -27 -5 -30 -10z"/>
<path d="M7085 11240 c3 -5 8 -10 11 -10 2 0 4 5 4 10 0 6 -5 10 -11 10 -5 0
-7 -4 -4 -10z"/>
<path d="M7110 11240 c0 -5 5 -10 10 -10 6 0 10 5 10 10 0 6 -4 10 -10 10 -5
0 -10 -4 -10 -10z"/>
<path d="M7117 11200 c-4 -14 1 -25 14 -33 10 -6 19 -17 19 -23 0 -13 37 -8
57 8 19 15 3 40 -21 34 -13 -3 -28 2 -42 15 l-21 20 -6 -21z"/>
<path d="M7060 11168 c0 -4 4 -8 9 -8 6 0 12 4 15 8 3 5 -1 9 -9 9 -8 0 -15
-4 -15 -9z"/>
<path d="M7016 11152 c-3 -5 1 -17 8 -27 13 -18 14 -18 31 -1 10 9 16 18 14
20 -12 10 -48 16 -53 8z"/>
<path d="M9832 10497 c-29 -21 -34 -45 -15 -79 5 -9 77 3 84 15 9 13 -2 48
-21 69 -15 17 -18 16 -48 -5z"/>
<path d="M9786 10385 c4 -8 8 -15 10 -15 2 0 4 7 4 15 0 8 -4 15 -10 15 -5 0
-7 -7 -4 -15z"/>
<path d="M9827 10238 c-4 -12 -5 -22 -4 -23 1 0 17 -8 35 -19 l34 -18 -27 41
c-15 23 -29 41 -30 41 -2 0 -5 -10 -8 -22z"/>
<path d="M7210 10220 c0 -5 5 -10 11 -10 5 0 7 5 4 10 -3 6 -8 10 -11 10 -2 0
-4 -4 -4 -10z"/>
<path d="M9685 9980 c3 -5 8 -10 11 -10 2 0 4 5 4 10 0 6 -5 10 -11 10 -5 0
-7 -4 -4 -10z"/>
<path d="M9574 9892 c0 -8 -15 -26 -34 -39 -19 -14 -38 -37 -42 -52 -6 -20
-24 -36 -73 -61 -51 -28 -65 -40 -65 -58 0 -15 -7 -26 -20 -29 -11 -3 -20 -12
-20 -19 0 -8 -7 -14 -15 -14 -9 0 -15 -9 -15 -23 0 -13 -5 -28 -12 -35 -9 -9
-9 -12 3 -12 10 -1 10 -3 -3 -11 -10 -5 -18 -17 -18 -26 0 -11 -6 -14 -22 -10
-13 3 -41 -1 -62 -8 -24 -8 -46 -11 -55 -5 -11 6 -18 2 -26 -13 -6 -12 -20
-27 -32 -33 -21 -10 -21 -11 -5 -28 14 -14 14 -17 2 -15 -8 2 -30 -5 -49 -15
-27 -14 -32 -22 -28 -42 2 -13 0 -27 -4 -30 -5 -3 -9 -10 -9 -15 0 -6 4 -8 9
-5 5 3 19 -3 32 -13 22 -18 22 -19 5 -37 -13 -13 -15 -19 -6 -22 7 -3 16 1 20
8 6 10 9 10 15 0 5 -8 1 -16 -9 -22 -9 -5 -16 -16 -16 -25 0 -11 -8 -14 -30
-11 -26 4 -29 2 -24 -14 4 -13 -4 -23 -30 -39 -31 -18 -34 -23 -26 -45 5 -13
7 -30 4 -38 -3 -8 2 -28 10 -45 24 -46 20 -70 -14 -85 l-30 -12 22 -21 c23
-21 60 -29 155 -35 33 -2 49 0 45 7 -3 5 1 5 9 -2 11 -9 26 -8 69 6 49 16 58
16 93 3 30 -12 40 -13 46 -3 6 9 11 8 20 -3 9 -11 18 -13 30 -7 11 6 23 4 36
-5 28 -21 70 -17 100 9 23 20 25 25 15 54 -10 27 -9 34 9 52 27 27 27 39 -1
43 -11 2 -22 10 -23 19 -2 9 -15 28 -30 43 -15 15 -24 33 -21 41 3 8 2 15 -3
15 -5 0 -11 19 -15 43 -3 23 -9 57 -12 75 -9 45 9 41 47 -10 16 -24 37 -43 46
-43 9 0 17 -9 19 -19 6 -45 16 -63 54 -106 22 -24 43 -52 46 -62 3 -10 11 -18
17 -18 7 0 29 -9 50 -20 44 -24 47 -24 47 -5 0 8 5 15 11 15 5 0 7 5 3 11 -4
7 1 7 16 -1 12 -6 24 -9 28 -6 3 3 0 6 -6 6 -6 0 -13 13 -17 29 -4 19 -18 37
-41 50 -20 12 -34 28 -34 40 0 11 -5 23 -10 26 -6 4 -8 10 -5 15 3 4 -2 13 -9
20 -13 10 -12 16 5 45 15 24 18 43 14 67 -6 34 -6 34 29 30 32 -4 36 -1 42 24
4 16 24 44 46 62 21 19 38 37 38 42 0 4 7 24 15 45 13 30 18 35 30 25 13 -10
15 -8 15 12 0 31 -9 41 -26 28 -9 -8 -23 4 -56 47 -39 51 -43 62 -36 88 5 17
6 38 4 48 -2 9 0 17 4 17 17 0 4 92 -15 106 -16 12 -22 11 -40 -6 -12 -11 -28
-18 -37 -15 -8 3 -23 -3 -33 -15 -10 -11 -24 -20 -30 -20 -14 0 -27 37 -15 42
5 2 6 14 3 28 -6 30 -71 70 -69 42z"/>
<path d="M9853 9696 c4 -9 14 -41 23 -71 9 -32 21 -55 29 -55 8 0 19 -16 26
-35 11 -29 17 -34 41 -31 15 2 30 1 34 -3 12 -12 62 -6 57 7 -4 10 0 10 21 1
20 -9 29 -9 41 1 14 11 13 14 -7 24 -12 6 -23 20 -23 31 -1 48 -45 140 -45 94
0 -8 -15 -10 -46 -5 -39 5 -67 16 -148 54 -5 3 -6 -3 -3 -12z"/>
<path d="M8184 9543 c4 -7 2 -13 -3 -13 -6 0 -11 -10 -11 -22 l0 -22 16 23
c13 18 14 25 4 34 -10 9 -11 9 -6 0z"/>
<path d="M10162 9528 c-14 -14 -16 -32 -3 -23 5 3 32 -4 60 -15 54 -21 64 -14
36 24 -9 12 -22 17 -35 13 -11 -3 -23 -1 -26 4 -7 12 -18 11 -32 -3z"/>
<path d="M8135 9470 c-3 -5 -1 -10 4 -10 6 0 11 5 11 10 0 6 -2 10 -4 10 -3 0
-8 -4 -11 -10z"/>
<path d="M8576 9354 c4 -17 3 -25 -3 -21 -6 4 -19 -12 -29 -35 l-18 -40 28
-25 c30 -25 48 -24 27 1 -10 12 -10 25 3 64 16 47 14 82 -5 82 -5 0 -6 -12 -3
-26z"/>
<path d="M8485 9220 c4 -11 2 -20 -4 -20 -6 0 -11 5 -11 10 0 6 -7 10 -15 10
-8 0 -12 -6 -9 -14 7 -19 -84 -9 -108 11 -10 9 -18 11 -22 4 -4 -6 -13 -8 -20
-5 -8 3 -16 -4 -19 -17 -5 -18 -10 -20 -34 -15 -74 19 -77 18 -97 -13 -19 -27
-72 -61 -98 -61 -6 0 -32 -13 -57 -28 -56 -35 -97 -46 -107 -31 -5 8 -10 6
-16 -6 -6 -9 -6 -21 -2 -25 15 -14 84 -29 84 -19 0 6 15 16 34 24 18 8 47 25
62 38 37 30 123 69 136 61 6 -4 14 -1 18 6 6 9 12 9 29 1 14 -8 21 -8 21 -1 0
5 11 10 25 10 13 0 28 6 32 14 4 7 27 16 51 20 34 5 42 3 42 -9 0 -8 5 -15 10
-15 6 0 10 5 10 10 0 6 8 10 18 10 27 0 62 29 62 51 0 10 -5 19 -11 19 -6 0
-8 -9 -4 -20z"/>
<path d="M10435 9210 c-3 -5 -2 -10 4 -10 5 0 13 5 16 10 3 6 2 10 -4 10 -5 0
-13 -4 -16 -10z"/>
<path d="M7738 9133 c7 -3 16 -2 19 1 4 3 -2 6 -13 5 -11 0 -14 -3 -6 -6z"/>
<path d="M7740 9110 c0 -5 -12 -10 -27 -11 -16 0 -23 -3 -17 -5 19 -8 3 -47
-33 -82 -18 -18 -33 -40 -33 -48 0 -11 -6 -13 -20 -9 -24 8 -25 -2 -4 -44 9
-18 17 -50 18 -72 l2 -41 65 -2 c64 -1 84 6 84 34 0 9 16 17 43 23 39 8 43 11
38 30 -3 12 -6 35 -6 50 0 19 -4 26 -12 21 -7 -4 -8 -3 -4 4 15 25 -6 33 -26
10 -19 -21 -20 -22 -17 -3 2 11 0 25 -4 32 -5 8 4 14 28 19 41 7 34 25 -11 30
-32 4 -66 37 -58 58 3 9 3 16 0 16 -3 0 -6 -4 -6 -10z"/>
<path d="M11267 8879 c7 -7 15 -10 18 -7 3 3 -2 9 -12 12 -14 6 -15 5 -6 -5z"/>
<path d="M11412 8821 c-10 -6 -10 -10 3 -21 13 -11 15 -9 15 9 0 24 0 24 -18
12z"/>
<path d="M7593 8763 c-9 -36 -11 -38 -45 -35 -44 3 -56 -12 -32 -39 16 -18 16
-20 -2 -41 -16 -17 -16 -20 -3 -15 9 3 21 1 27 -5 11 -11 62 17 62 33 0 5 7 9
15 9 20 0 19 24 -1 41 -14 12 -14 14 0 25 13 9 14 17 6 38 -13 34 -16 33 -27
-11z"/>
<path d="M7480 8612 c0 -4 6 -14 13 -21 10 -11 9 -12 -1 -6 -19 10 -55 -24
-42 -40 13 -15 57 -8 64 11 6 16 -13 64 -26 64 -4 0 -8 -4 -8 -8z"/>
<path d="M10783 8580 c-22 -17 -22 -18 -3 -35 18 -17 19 -16 26 8 9 39 2 48
-23 27z"/>
<path d="M11246 7933 c-3 -3 -2 -11 3 -17 5 -6 7 -24 4 -39 -5 -24 -9 -28 -29
-23 -13 4 -24 3 -24 -1 0 -5 -21 -30 -45 -57 -25 -27 -45 -55 -45 -62 0 -16
48 -50 57 -41 3 4 28 -14 56 -39 45 -40 51 -43 66 -30 18 17 61 11 61 -8 0
-18 38 -46 66 -48 14 -2 40 -19 60 -40 32 -35 45 -43 66 -39 9 1 42 -67 42
-89 1 -19 62 -50 99 -50 16 0 41 -9 56 -19 15 -11 39 -23 53 -26 15 -4 37 -22
50 -41 26 -39 74 -50 63 -15 -4 13 0 23 10 29 15 8 14 12 -4 43 -12 19 -26 45
-33 59 -29 59 -49 80 -72 74 -16 -4 -33 4 -59 27 -21 18 -46 34 -58 36 -34 5
-57 22 -65 45 -10 34 -54 85 -96 113 -37 25 -98 34 -98 15 0 -13 -56 -13 -81
0 -22 12 -55 70 -39 70 5 0 10 -4 10 -10 0 -17 25 -11 37 9 14 22 6 61 -12 61
-8 0 -16 9 -20 19 -3 11 -17 26 -30 35 -14 9 -25 25 -25 36 0 20 -13 33 -24
23z"/>
<path d="M10827 7882 c-21 -42 -10 -102 19 -102 8 0 14 -4 14 -8 0 -8 25 -12
73 -13 16 0 42 -10 58 -22 26 -18 31 -19 39 -7 11 16 15 11 -113 118 l-76 62
-14 -28z"/>
<path d="M11058 7733 c7 -3 16 -2 19 1 4 3 -2 6 -13 5 -11 0 -14 -3 -6 -6z"/>
<path d="M11960 7218 c0 -7 14 -29 30 -48 33 -38 51 -31 42 16 -6 33 -72 62
-72 32z"/>
</g>
</svg>
