<svg version="1" xmlns="http://www.w3.org/2000/svg" width="1137.862" height="867.995" viewBox="0 0 853.396 650.997"><g fill="#222"><path d="M109.081.319c-.3.5-.1 2.4.4 4.3 1.2 4.2 1.2 3.9-.2 3.4-.7-.2-2.6.7-4.3 2-1.6 1.4-2.4 2.5-1.7 2.5.6 0 1.2.9 1.2 2s-.3 1.9-.7 1.8c-.5-.1-1.8.1-3 .6-1.2.4-3.1.2-4.3-.4-1.6-.9-2-.8-2 .4 0 1-.6 1.3-1.5 1-.8-.4-1.5-.1-1.5.5s-.9 1.1-2.1 1.1c-1.1 0-1.8.4-1.4.9.3.5 0 1.3-.6 1.7-.7.4-.9 2.7-.4 6.9.4 4.1.3 6.5-.4 7-.8.4-.8 1.2-.1 2.4.5 1 .9 5.3.8 9.6-.1 6.4-.5 8.1-2.2 9.7-2.4 2.2-2.9 6.5-.9 7.2 1.5.6 1.8 4.2.4 4.8-.4.1-1.1 1.2-1.5 2.3-.4 1.5.2 2.4 2.4 3.7 1.7.9 3.5 2.9 4 4.3s1.4 2.5 2 2.5c.6 0 .9.4.6.9-.3.5 1.1 2.4 3.2 4.3 3.4 3.1 3.7 3.6 2.8 6.6-1 3.6-2.3 4.1-3.4 1.4-.6-1.5-1.1-1.6-3-.7l-2.2 1.2 2.1 2.6c1.1 1.5 1.7 3.2 1.4 3.7-.4.6-.1 1.7.5 2.5 1.7 2.1.4 8.9-1.6 8.1-1-.4-1.4.2-1.4 1.7 0 2.5-1.7 4.7-3.7 4.7-.7 0-1.3-.7-1.3-1.5s-.4-1.5-1-1.5c-1.8 0-1 4.9 1 6.3 1.1.8 1.7 1.7 1.3 2.1-.4.4 1.2 2.4 3.5 4.5s4.2 4.8 4.2 5.9c0 3.2 3.3 8.2 5.8 8.8 1.2.4 2.7 1.5 3.3 2.5 1 1.9 3.9 2.7 3.9 1 0-1.5 3.2-2.2 4.6-1 3 2.5 10.8-.7 8.5-3.5-.9-1.1-.9-1.6-.1-2.1 1.7-1 7-1.3 7-.3 0 .4.5.8 1.1.8 2.6 0 8.1 3.5 9 5.7 1 2.6 2.9 3.1 2.9.8 0-.9.9-1.5 2.3-1.5 2-.1 1.9-.4-1.5-3.4-2.1-1.8-3.8-3.9-3.8-4.6 0-.8-.6-2.1-1.4-2.9-1.9-2.2-2.8-6.9-1.5-7.3.7-.2.3-1.3-.8-2.7-1.8-2.3-2-2.3-3.7-.5-1.5 1.5-2.1 1.5-3.8.5-1.8-1.1-1.9-1-1.3 1 1 3.1-1 1.5-3-2.4-1-2-1.2-3.3-.5-3.5 1.6-.6 1.2-2-.7-2.5-1.1-.3-.7-.5 1-.6 1.5 0 2.7-.6 2.7-1.2s.9-.9 2-.6c1.1.3 2 0 2-.6 0-.7.6-.1 1.3 1.2.6 1.4 1.8 2.6 2.6 2.9.8.3 1.1 0 .7-.6-.3-.6.3-1.3 1.4-1.7 1.1-.4 1.8-1.1 1.5-1.6-.4-.5.9-.9 2.7-.9 1.9 0 4-.6 4.6-1.2 1-1 1.7-1 3.1-.1 1.4.8 2.1.9 3 0 1.4-1.4 2.7-.1 1.4 1.5-1.2 1.5-2.3 7.8-1.3 7.8.3 0 1.1 1.4 1.7 3.1 1 2.5 1.6 3 3 2.4 4.1-1.6 9.1-1.7 12.2-.1 1.7.9 3.6 1.4 4.2 1 1.3-.8 6.4.5 5.5 1.4-.9.9 12.4 7.2 15.2 7.2 3.3 0 7.3 4.6 6.6 7.7-1 3.6 1.4 8.3 4.2 8.3 2.8 0 4 1.6 2.4 3.5-1.8 2.1 1.8 3.7 4.5 1.9 4.5-3 10.2-2.2 11.8 1.6.4.8.4-.5.1-2.9-.4-3.1-.3-4.1.5-3.7.6.4 1.1.3 1.1-.3 0-.5-.6-1.2-1.2-1.4-.8-.3-.6-.6.4-.6 1.5-.1 1.6-.5.8-2.7-1.3-3.3-1.3-3.4.5-2.8.8.4 1.5.1 1.5-.5s-.4-1.1-1-1.1c-1.8 0-2.5-.4-4.8-3.2-1.3-1.5-3-2.8-3.8-2.8-.8 0-1.4-.5-1.4-1.1 0-.6-.7-.8-1.5-.5-1.3.5-1.5 0-.9-3 .6-3.4.3-3.9-3.7-7.5-2.4-2.2-5-3.7-5.8-3.4-.8.3-2.5-.2-3.8-1-2-1.4-2.2-1.8-.9-3 1.1-1.1 2.2-1.2 5.1-.4 4.4 1.2 4.6 1.1 4.9-3.3.4-4.7.4-4.6 2.7-5.3 1.5-.5 1.7-1 .9-2-1.6-2-.2-6.5 2.1-6.5 2.1 0 2.4-1.2.9-4.1-1.2-2.1-.1-2.5 1.9-.7 1.1 1.1 1.2.7.6-2.1-.6-2.9-.5-3.3.9-2.8 2.4.9 4.6-.3 4.6-2.5 0-1.1-1.6-3.8-3.5-6.1-1.9-2.2-3.5-4.5-3.5-5.1 0-.6-.4-.4-.9.3-.8 1.2-1.2 1-2.2-1.2-.8-1.7-2-2.7-3.4-2.7-1.1 0-2.6-.5-3.3-1.2-.7-.7-1.2-.9-1.2-.5 0 .6-6.2-1.1-10.2-2.8-1.3-.5-1.8-.3-1.8.8 0 2.1-4.1 5-5.4 3.7-.6-.6-.5-1.4.2-2.3.9-1.1.5-1.8-1.8-3.6-1.7-1.2-3.5-1.9-4.1-1.5-.6.3-2.3-.6-3.9-2.1-1.9-1.8-3-2.3-3.5-1.5-.5.8-1.2.7-2.3-.3-1-.8-3.6-1.8-5.9-2.2-2.4-.4-4.3-1-4.3-1.4 0-2.1-8.5-13.1-10-13.1-1 0-2.3-.7-3-1.5-1.1-1.3-.9-1.9.8-3.5 1.2-1.1 1.9-2.7 1.6-3.5-.7-1.8-2.1-2-2.6-.3-.4 1-1 1-3.1.1-2.8-1.3-3.4-3.2-1.7-6.2.7-1.4.5-2.3-1-3.6-1.7-1.5-1.7-1.9-.5-3.2.8-.8 1.5-1.7 1.5-2.1 0-1-6.8-5.2-8.4-5.2-.8 0-1.7-.7-2-1.6-.3-.8-1-1.3-1.6-.9-1.1.7-4.6-1-7.3-3.4-3.5-3.2-6.2-6.3-5.7-6.6.3-.1-.3-1.2-1.4-2.4-1-1.1-2.3-1.8-2.8-1.5-.5.3-1.5.1-2.3-.6-.7-.6-1.6-.7-1.9-.2zm97.5 101.2c1.2.7 1.9 2.1 1.9 3.8 0 2.1-.2 2.4-1 1.2-.8-1.3-1-1.2-1 .3 0 1.6-.2 1.6-2.5.1-2.8-1.8-3.3-3.4-1-3.4.9 0 1.2-.6.9-1.5-.7-1.8 0-1.9 2.7-.5zm-89.4 31.9c.9 1.1 2 1.8 2.5 1.5 1.2-.8 1 1-.4 2.4-1.7 1.7-4.5 1.5-5.7-.6-.6-.9-1.1-1.3-1.1-.7 0 1.1-2-1.5-2-2.7 0-.6 1.9-1.3 4.3-1.7.4 0 1.5.8 2.4 1.8zm11.3-.9c0 .5-.2 1-.4 1-.3 0-.8-.5-1.1-1-.3-.6-.1-1 .4-1 .6 0 1.1.4 1.1 1zM249.081 89.219c-.6 1.4-.5 1.5.5.6.7-.7 1-1.5.7-1.8-.3-.3-.9.2-1.2 1.2zM237.281 92.419c.8.4 1.3 1.2 1.3 1.6-.1.4 1.6.8 3.6.8 5.7-.1 6.3-.2 6.3-1.4 0-.8-1.4-1-4.5-.6-2.5.4-4.7.2-5-.3-.3-.6-1.2-1-1.8-1-.8 0-.8.3.1.9zM231.481 92.919c0 .2.7.6 1.5 1 .8.3 1.5.1 1.5-.4 0-.6-.7-1-1.5-1s-1.5.2-1.5.4z"/><path d="M89.481 110.019c0 .8.8 1.1 2 .8 1.1-.3 2-.7 2-.8 0-.1-.9-.5-2-.8-1.2-.3-2 0-2 .8zM123.481 143.919c0 2.2 1.8 2.9 3.5 1.3 1.6-1.7 1-2.7-1.7-2.7-1 0-1.8.6-1.8 1.4zM90.481 144.919c0 .9.5 1.6 1 1.6.6 0 1-.4 1-.9 0-.6-.4-1.3-1-1.6-.5-.3-1 .1-1 .9zM372.181 146.219c.4 1 .2 1.4-.4 1-.7-.5-1.1.5-1 2.8.1 4 1.6 5 4.5 2.9 1.8-1.2 1.9-1.9 1.1-3.7-1.3-2.8-5.2-5.6-4.2-3zM121.081 147.719c.3.5 1 .6 1.5.3 1.3-.9 1.1-1.2-.6-1.2-.8 0-1.2.4-.9.9zM107.481 149.519c-.6 1.1-.8 2.5-.5 3.1.4.5.1 1.7-.6 2.5-.6.8-1.3 3-1.4 4.8-.3 3.6 1.1 4.8 6.6 6 2.3.5 2.5.3 2.1-2.3-.5-3.4 1.3-7.1 3.4-7.1.8 0 1.2-.5.9-1-.5-.8-1.1-.7-2 0-1.6 1.3-3.9.4-3-1.1.4-.5.1-.9-.6-.9-.6 0-.9-.8-.7-1.8.3-1.1-.2-2.3-1.3-3-1.5-1-2-.8-2.9.8zM20.481 152.519c0 .5.5 1 1.1 1 .5 0 .7-.5.4-1-.3-.6-.8-1-1.1-1-.2 0-.4.4-.4 1zM19.681 156.719c-.7.7-1.2 2.1-1.2 3.1 0 1.5-.5 1.8-2.5 1.3-1.9-.5-2.5-.2-2.5.9s.6 1.4 2.4.9c2.4-.6 4.3 1.7 3.1 3.7-.4.5.4.5 1.7 0 1.7-.6 2.3-1.7 2.5-4.2.3-6.1-1-8.2-3.5-5.7zM194.081 156.319c-.3.6 1 1.9 2.9 3.1 3.2 1.8 3.4 2.2 2.4 4.5-1.5 3.2-.5 5.6 2.3 5.6 4.2 0 7.3.6 9.7 1.9 2 1.1 2.6 1 4-.3 1.5-1.5 1.4-1.7-.7-2.2-1.2-.4-2.2-1.2-2.2-1.8 0-1.5-7.9-7.6-9.7-7.6-.8 0-1.1-.5-.8-1 .4-.6-.6-1-2.2-1s-3.4-.5-4-1.1c-.7-.7-1.3-.7-1.7-.1zM373.581 157.119c0 1.1.3 1.4.6.6.3-.7.2-1.6-.1-1.9-.3-.4-.6.2-.5 1.3zM133.481 157.319c-2.5.9-3.7 2.6-3.2 4.4.3 1.2-.1 1.8-1.2 1.8-.9 0-1.6.8-1.6 2 0 1.1-.5 2-1.1 2-.8 0-.9 1.1-.5 3.1.3 1.8.1 3.8-.5 4.5-.6.8-1 1.4-.8 1.5 4.8.7 7.9.4 7.9-.9 0-1 .7-1.3 2.2-.9 1.2.4 2.8.1 3.6-.6 1.1-.9 1.7-.7 2.8.8 1.3 1.8 1.4 1.8 1.4-.7 0-1.4-.7-2.9-1.6-3.2-1-.4-1.3-1.3-.9-2.5.4-1.4-.2-2.1-2.6-3.1-2.2-1-2.9-1.8-2.6-3.2.3-1 .1-2.1-.5-2.4-.6-.4-.5-1 .3-1.5 1.7-1 .9-1.8-1.1-1.1zM405.981 158.919c-1.1.6-2.1 1.2-2.3 1.2-.2.1 0 1.4.4 2.9.5 2.2 1.1 2.5 3 2.1 1.2-.3 2.6-.2 2.9.4 1.1 1.7 2.2 1.1 2.7-1.5.3-1.4.2-2.5-.3-2.5s-1.6-.8-2.6-1.9c-1.5-1.5-2.2-1.7-3.8-.7zM258.981 162.419c1.8 3.6 2.5 3.9 2.5 1.1 0-1-.9-2.4-2.1-3-2-1.1-2-1.1-.4 1.9zM399.881 161.919c-.3.8-1.3 1.2-2.4.9-1-.3-2.7.4-3.9 1.6-2.1 2.1-1.4 3.5 1.3 2.5.9-.3 1.6-.1 1.6.6 0 .6 1.2.2 3-1 1.7-1.2 3-3 3-4.1 0-2.2-1.8-2.6-2.6-.5z"/><path d="M244.481 166.419c-2.6 2.1-4 2.7-5.5 2.1-2.7-1-6.2.4-7 3-.5 1.7-1 1.9-2.1.9-1.1-.9-1.4-.8-1.4.4 0 2.7-3.4 2.4-6.4-.6l-2.9-2.9-1.9 2.4c-.9 1.2-1.8 3.3-1.8 4.5 0 1.2-.4 2.5-1 2.8-.5.3-1 1.7-1 3.1 0 1.8-.5 2.4-2.1 2.4s-1.9.4-1.4 1.7c.4 1 .8 2.9 1 4.3.3 4.1.4 4.2 2 3.7.8-.4 1.7-.2 2 .2.9 1.5-.7 7.1-2 7.1-2.2 0-5.8-4.8-5.2-7 .4-1.7 0-2-3.1-2-2.1 0-5-.9-6.7-2-1.7-1.1-3.3-1.6-4-1.1-.9.9-4.4 1.5-5.5 1.1-2.3-.8-8-.3-8 .7 0 1.5-1.2 1.7-2.6.4-.5-.6-3.7-1.2-7.2-1.4-5-.3-6.8 0-8.6 1.4-2.2 1.7-2.3 1.7-7.2-1.6-2.7-1.9-5.4-3.4-6.1-3.5-.6 0-1.8-.8-2.5-1.8-.7-.9-2.1-2.4-3.1-3.2-1.7-1.3-1.9-1.2-1.7.5.4 3.8 0 4.6-1.9 4-1.1-.3-2.4.1-3.2 1.1-2.1 2.6-11.2 6.5-12.3 5.4-1.3-1.3-7.6-1.3-7.6-.1 0 .6.4 1.2 1 1.6.5.3.7 1.2.4 1.9-.3.8-.1 1.7.5 2.1 1.7 1 1.3 4.2-.6 4.9-1.4.6-1.1 1.2 1.8 3.6 1.9 1.6 4.4 3.2 5.7 3.6 2.6.7 2.8 1.7.7 3.4-.9.7-1.5.8-1.5.2 0-.5-.9-.8-2-.5-1.1.3-2 0-2-.6 0-2-1.7-1.2-2.9 1.5-1 2.3-.9 2.5.8 1.9 2.5-.8 3.9 1.5 1.7 2.7-.9.5-1.6 1.4-1.6 1.9 0 .6-.7 1.7-1.5 2.5-1.1 1.2-1.8 1.2-3.3.3-1.6-1-2.3-.8-4.1 1-2.5 2.5-8.4 2.9-10.3.5-3.9-4.8-6-6.4-8.2-6.4-1.3 0-3.1-.7-4-1.5-.8-.8-1.9-1.5-2.5-1.5-1.8 0-5.6 4.9-6.1 7.8-.4 2.2-1.1 2.8-3.8 3-2 .2-3.2.8-2.9 1.5.4 1.4-2.1 3.6-4.1 3.7-.9 0-.7-.8.7-2.6 2.7-3.4 1.5-6.6-3.1-7.9-3.4-1-10.8-7.5-10.8-9.5 0-.5-.7-1-1.6-1-.9 0-1.8-.9-2.1-1.9-.3-1.1-3.5-3.3-8.1-5.6-9.7-4.6-10.9-5.1-15.4-6.5-2.7-.8-3.8-1.7-3.8-3.1 0-1-.5-1.9-1.1-1.9-.6 0-.8-.8-.4-1.9.3-1.1-.4-3.7-1.6-6-1.1-2.3-1.9-4.8-1.6-5.5.3-.8-.1-2-.9-2.6-.8-.7-1.4-2-1.5-2.9 0-.9-.8.1-1.7 2.1-1.7 3.8-4.5 5.1-5.5 2.5-.3-.6-.6-.2-.6 1-.1 1.3-.6 2.3-1.2 2.3s-.9.7-.6 1.5c.4.8.2 1.7-.2 2-.5.2-.7 2.5-.6 5 .3 3.7 0 4.7-1.7 5.6-1.1.6-1.7 1.7-1.4 2.5.3.8-.4 2.4-1.5 3.5-2.2 2.2-1.8 3.9 1 3.9.9 0 2.6.7 3.7 1.5 1 .8 2.5 1.5 3.1 1.5 1.6 0 8.2 7.1 8.3 8.7 0 2.1 3.9 3.6 5.6 2.2 2.2-1.8 4.7.7 3.9 4-.5 1.9-.3 2.3.5 1.5 1.3-1.3 6-.6 6 .8 0 .5 2 2.8 4.5 5 2.5 2.3 4.5 4.7 4.5 5.4 0 .7.8 1.5 1.8 1.9 2 .6 4.6 5.1 3.7 6.4-.2.5.4 1.6 1.5 2.6s2 2.4 2 3.2c0 .8 1.3 2.2 3 3.1 3.2 1.8 3.6 2.7 2 3.7-.5.3-1 1.5-1 2.6 0 1.7.6 2 4.8 1.8 2.6-.1 5.7.3 7 1 1.8 1 2.2.9 2.2-.3 0-.8-.6-1.6-1.2-1.9-.7-.2-.9-.8-.5-1.3.4-.4 2 0 3.6.9 1.5.9 3.1 1.3 3.5.9.7-.6 5.8-1.2 10.6-1.2h4.3c2.4 0 2.7.3 2.2 2-.4 1.1-.2 2 .4 2 .6 0 1.1-.9 1.1-2.1 0-1.5.4-1.9 1.6-1.5.9.3 2 .6 2.6.6.6 0 .7.7.4 1.6-.4 1-.1 1.4.6 1.1.7-.2 1.3-1.8 1.3-3.5 0-1.6.3-3.3.7-3.7.4-.4.4-1.4.1-2.2-.5-1.2-.2-1.3 1.3-.5 1 .6 2.7 1.3 3.7 1.6 1.2.4 1.7 1.6 1.7 4 0 2.9.5 3.8 3.1 5.1 1.7.9 3.7 1.4 4.5 1.1 1.4-.5 7.6 2.2 8.2 3.7.2.4.7.5 1.2.2.4-.3.6.4.3 1.5-.4 1.6-.2 1.9 1.1 1.4.9-.3 1.6-1 1.6-1.6 0-.5.5-.6 1-.3.6.4.8 1.6.5 2.6-.4 1.1-.2 2.5.3 3.2.6.7 1.2 1.6 1.3 2.2.2.5.8.9 1.5.7.6-.1 1.1 1 1 2.5-.1 1.6.2 4 .5 5.5.6 2 .3 2.7-1.1 3.1-1.4.3-1.7 1.1-1.3 2.7.4 1.5-.1 2.6-1.6 3.6-1.2.9-1.9 1.9-1.6 2.4.7 1.1-3.1 5.1-3.9 4.3-.3-.3-.4.7-.3 2.3.2 2.4-.4 3.2-3 4.3-4.3 1.9-5.1 6.6-1.6 9.9 2.4 2.2 2.4 2.4.7 3.6-1.6 1.2-1.6 1.6-.4 3.1 1.5 1.8 10.2 6.5 12.1 6.5.6 0 .9-.9.6-2-.7-2.7 5.6-7.8 7.6-6.1.8.6 1.7.8 2 .5.3-.4 2.1-.1 3.8.5 2.2.8 3.6.8 4.3.1 1.3-1.3 8.3-1.3 9.1-.1.3.5 1.8.6 3.3.3 5.7-1.5 15.9-.2 14.7 1.9-.4.5.3.9 1.4.9 1.2 0 2.1.6 2.1 1.4 0 .7.7 1.9 1.5 2.6 1.1.9 1.5.9 1.5.1 0-.7.9-.6 2.4.5 1.4.9 2.2 2.2 1.9 3-.7 1.9 2.4 2.9 4.3 1.3 1.4-1.1 1.9-1 3.5.9 2.3 2.9 9.7 6.9 14.4 7.8 2.1.4 4.7.1 6.5-.6 2.5-1 3.4-1 5.6.5 1.4.9 2.8 1.4 3.1 1.2.2-.3 1.6.1 3.1.9 1.6.8 2.8 1 3 .4.7-1.9 2.2-1 2.2 1.2 0 3 1.2 4.7 4.1 6.2 1.3.6 2.5 2.2 2.7 3.4.2 1.2 1.1 2.2 2 2.2 1.5.1 5.8 5.1 8.9 10.7.7 1.2 3.1 3.2 5.4 4.4 3.3 1.9 3.9 2.7 3.4 4.6-.4 1.6.1 2.5 1.6 3.4 1.5.8 1.9.8 1.5 0-.9-1.4-.1-1.4 2.7.1 1.2.6 2.8 1.4 3.5 1.7.8.3 1.4 1 1.4 1.6 0 1.3 1.8 3.5 2.8 3.5.4 0 1-.9 1.3-1.9.4-1.7 1.2-1.9 4.5-1.6 2.3.2 6.3 1.6 9.1 3 2.7 1.5 6.2 3 7.8 3.4 2.2.6 2.8 1.3 2.6 3.4-.2 3.1 2.5 3.7 5.1 1.2.8-.9 1.9-1.5 2.3-1.4 2.4.4 2.4-.4-.2-3.1-3.5-3.6-2-4 2.1-.5 1.6 1.4 3.4 2.5 4.1 2.5.6 0 1.8.9 2.6 2 1.1 1.6 2.7 2.1 7.5 2.3 5.5.2 6.2.1 6.2-1.6 0-1.3.5-1.7 1.6-1.3.9.3 2 .6 2.5.6.6 0 .7.4.4 1-.4.6.5 1 2 1 1.7 0 2.8.7 3.3 2.1.8 2 .9 2 2.6.4 1.6-1.7 1.8-1.6 3.1.1.8 1.1 1.5 2.6 1.5 3.5 0 .9.9 2.8 2 4.2l2.1 2.6-2.1-.2c-1.1-.1-2-.5-2-.9s-.6-.8-1.4-.8c-.8 0-1.6-.5-1.8-1.2-.5-1.3-2.8-.2-2.8 1.3 0 .6.5.7 1 .4.6-.3 1-.1 1 .4 0 .6.5 1.1 1.1 1.1.6 0 2.4 1.1 4.1 2.5 1.6 1.4 3.9 2.5 5 2.5 1.2 0 4 1 6.3 2.1 3.9 1.9 4.6 2 7.1.7 2.2-1 3.9-1.1 6.9-.4 3.7.9 4 .7 7.1-2.8 3.2-3.7 4.4-4.4 4.4-2.5 0 1 1.5 3 6.1 8.6 1.6 2.1 3.8 1.5 4.5-1.2.5-2 1.1-2.4 2.8-1.9 1.4.3 2.7-.1 3.5-1 1.7-2 3.5-2 5.1-.1 1.4 1.6 8 2.1 8 .6 0-1.6 8.1 3.2 9.8 5.6.8 1.3 2 2.3 2.7 2.3.7 0 1.5 1.4 1.9 3 .3 1.9 1.4 3.4 2.9 3.9 2.5 1 4.1 3.6 3.1 5.2-.6 1 3.2 7.8 5 9.2.6.4 1.9.5 2.9.3.9-.2 1.7 0 1.7.5 0 .4 1.1 1.8 2.4 3.1 1.4 1.3 2.6 3.2 2.8 4.3.3 1.7-.3 2-4.7 2.2-2.7.1-5.1.6-5.3 1.2-.2.5-1.1.7-2.1.4-1-.3-2.2 0-2.5.6-.4.6-1.4 1.1-2.2 1.1-.8 0-1.3-.4-1-.8.3-.5-1.7-.9-4.5-1-4.5-.1-4.9.1-4.4 1.8.8 2.4-4.4 8.5-5.9 7s-2.6-1.2-2.6.6c0 .9-.7 3.1-1.6 5-1.4 2.9-2 3.3-4.1 2.8-1.8-.5-2.8-.1-3.9 1.5-.8 1.2-2.7 2.7-4.2 3.5-2.5 1.3-2.7 1.9-2.6 6.7.2 4.8.5 5.4 2.9 6.2 1.7.6 3.6.5 5.1-.2 2-.9 2.7-.7 4.8 1.4 1.4 1.4 3.1 2.2 3.8 2 2.9-1.1 8.9-1.1 9.6 0 1 1.7 4 2.6 4.7 1.5.4-.6 1.7-1 3.1-1 1.7 0 2.4-.6 2.4-1.9 0-1.1.6-2.1 1.3-2.4.9-.3.8-.8-.3-2.2-1.4-1.7-1.2-1.7 4.7-1.1 5.9.6 6.3.5 8-2 1-1.5 2.8-3.7 4-5 3-3.3 4.8-6.6 4.5-8.4-.2-1.1-.1-1.2.6-.2 1.7 2.5 13.3-3.9 12.4-6.8-.4-1.1-.1-1 1.2.3 1.9 1.9 3.1 2.3 2.1.7-.3-.6-.1-1 .6-1 .8 0 .6-.6-.4-1.8-1.3-1.4-1.4-2.1-.5-3 1.7-1.7 4.1-1.5 3.4.3-.6 1.6.3 1.9 2.8.9 1-.4 1.6-1.8 1.6-3.6 0-2.6.2-2.9 1.5-1.8 1 .8 1.5 3 1.5 6.1 0 5 .1 4.9-4.9 5.3-2.3.2-2.5 2.6-.3 2.6 1.1 0 2.2.6 2.5 1.4.7 1.9 4.7 1.7 6.9-.2 1.6-1.3 2.1-1.1 5.3 1.7 1.9 1.7 4.5 3.3 5.8 3.7 1.4.3 3.1 2.4 4.7 5.6 1.7 3.5 3.3 5.4 5.2 6 1.6.6 2.8 1.7 2.8 2.6 0 1.3-.3 1.2-2-.3-1.9-1.8-2-1.7-2 .3 0 1.1.8 2.7 1.8 3.4 2.8 2 3.3 4.4 1.2 6.3-1.8 1.6-1.7 5.5.1 5.5.5 0 .9.7.9 1.5s-.8 1.5-1.7 1.5c-.9 0-3.6 2.1-6 4.6l-4.4 4.5-3.2-2c-2.2-1.4-5.3-2-9.8-2.2-5.6-.2-7 .1-9 1.9-1.2 1.2-3.1 2.2-4.1 2.2-1.2 0-1.8.8-1.8 2.4 0 1.4-.5 2.8-1 3.1-.8.5-.7 1.1.1 2.1.8 1 .8 1.8.1 2.7-.7.8-.7 1.9.2 3.6 1.6 2.8.6 9.4-1.8 12-1.1 1.2-2.5 1.6-4.1 1.3-2.2-.4-2.5-.1-2.5 2.7 0 3.3-2.3 5.4-7.3 6.7-2.4.5-2.8 1.1-2.3 3 .5 1.7.1 2.4-1.5 2.9-1.3.4-1.8 1.2-1.5 2.2.5 1.1.2 1.3-1 .9-1.1-.4-2.2.1-3.1 1.4-.8 1.1-2.3 2-3.4 2-2 0-2.6 2.4-.9 3.5 1.5.9-.9 3.7-2.7 3.1-.7-.3-1.3.1-1.3.9s-.9 2-2 2.8c-1.3.9-2.2 3-2.6 6-.6 4-.4 4.7 1.1 4.7.9 0 2.9.6 4.3 1.4 1.5.7 4 1.8 5.7 2.2 1.7.6 3.1 1.8 3.3 2.8.3 1.1 1 2.6 1.8 3.3.7.8 1.2 3.3 1.2 6.2-.2 5.9 2.7 10.6 7 11.4 1.7.4 3.1 1.4 3.4 2.5.4 1.5 1.3 1.8 5.1 1.6 3.4-.2 5 .2 6.3 1.7 1.3 1.5 3.1 1.9 7.6 1.9 3.2 0 5.8-.3 5.8-.8 0-.4 2.1-1.2 4.8-1.9 2.6-.6 5.5-1.4 6.5-1.8 1.2-.5 1.7-.2 1.7.9 0 .9.8 1.6 1.9 1.6 3.3 0 7.1-1.9 7.1-3.5 0-2 3.4-1.9 5 0 1 1.2 2.8 1.5 6.4 1.3 5-.3 5.1-.4 5.4-3.6.3-2.6.7-3.2 1.9-2.8 1.4.6 1.4.4.2-1-1.3-1.6-1.1-1.7 1.4-1.2 2.6.5 2.8.3 2.2-1.6-1.1-3.3-2.2-11.6-1.7-12.1 1-.9 4.2-.5 4.2.5 0 .7.7.7 2.1 0 1.6-.9 2.3-.8 3.2.4.7.8 2.4 2 4 2.5 2.7 1 2.7 1 2.2-2.1-.3-1.7-.8-3.5-1.1-4-.3-.4-.1-.8.4-.8.6 0 1.2.7 1.6 1.5.3.8 1.4 1.5 2.4 1.5 2.1 0 7.2 4.3 7.2 6 0 .9-1.7 1.4-4.7 1.3-.8-.1-.5 1 .8 2.8 1.8 2.6 1.9 3.1.5 4.4-.8.8-2.1 1.5-2.9 1.5-3 0-4.5 1.1-4 3.1.4 1.5.9 1.7 1.9.8.7-.6 1.8-.8 2.4-.4.5.3 1 0 1-.8 0-1.8 2.9-4.4 5.4-4.8 2.1-.4 3.5-2.9 1.6-2.9-.6 0-1.8-.7-2.6-1.5-2.1-2-.4-1.9 2.6.2 3.9 2.7 4.6 2.4 4.1-1.9-.2-2.4.1-4.3.8-4.7 1.5-1-1.2-7.7-3.7-9.2-1.2-.8-1.7-2-1.4-3.4.2-1.3-.1-3.2-.7-4.3-1.1-2.1.2-4.2 1.4-2.2.9 1.5 2.5 1.2 2.5-.5 0-.8.7-1.5 1.6-1.5 2.6 0 4.8-3 4.8-6.6.1-3.6 2.5-5.4 4.9-3.7.7.4.4 0-.7-1-1-1-2.6-2.2-3.4-2.6-1.3-.8-1.4-1.5-.2-5.7.8-2.7 2-6 2.6-7.3 1.3-2.6.8-8.1-.9-9.2-1.7-1.2.5-3.1 2.9-2.6 1.4.2 2.7 0 3-.5.3-.5 1.2-.7 1.9-.4.7.2 2.5-.8 4-2.4 1.7-1.8 2.2-2.9 1.4-3.2-.9-.3-.9-1.2 0-4.1.7-2.1 1-4.4.7-5.2-.4-1.2-.2-1.3 1.5-.2 1.1.6 2.3 2.3 2.6 3.7.8 3.1 5.4 9 7.1 9 .7 0 .4-.8-.8-2-1.1-1.1-1.7-2.6-1.4-3.4.3-.8.1-1.7-.5-2.1-.6-.3-.9-1.6-.6-2.8.5-1.7-.1-2.6-2.3-3.9-3.4-2-5.2-7.1-4-11.3.5-1.7.6-4.2.4-5.7-.4-2.1-.2-2.6 1-2.1 2.1.8 5.6-2.6 4.8-4.9-.3-1.1 0-2 1-2.4 1-.4 1.6-1.8 1.6-3.5 0-2 .5-2.9 1.6-2.9.9 0 1.2-.5.8-1.2-1-1.5-.6-9.6.6-11.7.5-1 2.7-2.3 4.9-3 3.4-1 4.1-1.6 4.1-3.6 0-1.4-.9-3.4-2-4.5-2.8-2.8-2.6-5.4.3-4.7 1.2.2 3 .8 4.1 1.2 1.5.7 1.7.5 1.1-1.3-.5-1.6-.2-2.2.9-2.2.9 0 1.6-.5 1.6-1 0-.6-.4-1-.9-1-1.2 0-1-4.3.2-5.1.5-.4.4-1.5-.2-2.7-.6-1.1-.9-2.7-.6-3.4.3-.9-.5-2-2-2.8-1.4-.7-2.5-1.8-2.5-2.4 0-.6-.9-1.7-2-2.4-1.4-.8-2-2.3-2-4.6 0-2.6-.5-3.6-2.1-4.1-1.6-.5-2-1.3-1.6-3.2.3-1.8-.2-2.8-2.1-4.1-1.3-.9-3.1-3.1-3.8-4.9-.8-1.8-2.3-3.7-3.5-4.3-1.9-1.1-1.9-1.3-.5-3.5 2.9-4.5.5-9.6-5.3-11.4-2.2-.6-5.4-2.6-7-4.3-2.4-2.5-3.2-2.9-4.4-2-1.1.9-1.8.8-3.2-.8-1.2-1.3-2.5-1.8-4-1.4-1.5.4-2.4 0-2.8-1-.4-.9-1.5-1.6-2.5-1.6-2.5 0-6.2-4.1-6.2-6.8 0-2.1-1.3-2.7-4.7-2.3-.6.1-1.4-.3-1.8-.9-.3-.5-.2-1 .3-1 .6 0 .8-.9.5-2-.3-1.1 0-2.7.7-3.5.6-.8.8-2 .4-2.6-.4-.7-1.1-3.1-1.5-5.3-.5-3-.3-4.3.8-5.1 2-1.5.1-5.7-4.9-10.9-3.6-3.8-3.6-4-1.8-5.3 1.2-.9 2-2.6 2-4.4 0-2 .5-2.9 1.6-2.9 1.6 0 1.6-1.2-.1-7-.3-1 1-2.4 3.5-4 4-2.4 4.4-3.1 4.1-6-.1-.8 1.4.2 3.4 2.2 1.9 2.1 4 3.8 4.5 3.8.6 0 1 .6 1 1.3 0 1.6 7 3.9 7.1 2.3 0-.6.6.5 1.3 2.4.9 2.6 2.4 4.1 5.7 5.8 2.4 1.2 4.6 2.7 4.7 3.2.2.6 2.2 1 4.4 1 3.5 0 4 .3 3.5 2-.3 1.1.7 3.8 2.4 6.5 1.6 2.6 2.7 5.1 2.3 5.6-.3.6.8 1.5 2.5 2.2 1.8.7 2.9 1.7 2.7 2.4-.8 2 .9 2.4 3 .7 1-.9 1.3-1.2.6-.9-1.2.6-1.2.3-.2-1.6 1.2-2.2 1.3-2.2 2.6-.4 1.3 1.7 1.4 1.7 1.4.1 0-.9.6-1.6 1.3-1.5.6.1 2.4-.1 3.8-.5s3.3-.8 4.2-1c3.2-.4 2.9-1.5-1.7-6-4.2-4-4.5-4.6-3-6 .8-.9 2.4-1.6 3.5-1.6 2 0 2-.7.1-5.8-.3-.9.2-1.2 1.4-1 2.4.4 2.9-2.4 1.2-6.2-1.5-3.4-4.4-4-6.4-1.3-2 2.8-2.8.8-.8-2.2 1-1.5 2-2.2 2.4-1.6.3.6 1.1-.4 1.8-2.2 1.3-3.5 6.1-7 8.9-6.5 1.1.2 1.8-.3 1.8-1.2 0-.8.7-1.8 1.5-2.2.8-.4-.5-.7-3-.5l-4.5.2-.3-3.9c-.2-2.8-.9-4-2.3-4.3-1-.3-1.9-1-1.9-1.5s-1.6-.8-3.5-.6c-2 .2-3.5.7-3.4 1.2.1 1.2-2.2 2.6-4.6 2.6-1.8-.1-1.9-.1-.2-1.1.9-.5 1.7-1.4 1.7-1.8 0-1.2-4.9-2-5.6-.9-.3.4-.9.6-1.4.3-1.9-1.2.4 3.7 2.6 5.4 2.8 2.2 3.2 6.6.7 7.5-1.6.7-3.3-.8-3.3-3 0-3.6-6.3-4.9-12.2-2.6-2.5 1-2.9.8-5.9-2.9-2.5-3.2-3.5-3.8-5.3-3.2-1.1.4-3.2.7-4.6.8-4.1.1-5.1 1.2-3.8 4 2.7 5.9-4 10.4-9.4 6.4-2-1.3-2.6-1.5-2.2-.5.3.8.1 2.3-.4 3.2-.8 1.5-1.4 1.2-4-2.5-1.7-2.3-4.2-5.1-5.6-6.2-1.5-1.2-2.6-2.6-2.5-3.2.3-2.8-.2-4.6-2.2-7.1-1.6-2-2.4-2.4-3.4-1.6-1 .8-1.6.4-2.6-2-.8-1.7-2.1-3-3.2-3-.9 0-3.1-1.4-4.9-3-1.7-1.7-3.5-3-3.9-3-.5 0-1.1-1.1-1.5-2.4-.4-1.7-1.3-2.3-3.2-2.4-7.1-.2-10-1.4-12.8-5.2-1.6-2.2-3.9-4.4-5.2-4.9-2.3-1.1-6.7-.6-8.8 1-1.7 1.3-7.1.5-9.2-1.4-2.3-2.1-5.2-2.2-5.2-.2 0 1.7-1.6 2-2.5.5-.9-1.5-2.5-1.2-2.5.5 0 .8-.5 1.5-1.1 1.5-1.2 0-7.1-3.1-7.9-4.1-.3-.4-1.4-.9-2.6-1.3-1.1-.3-3-2.6-4.2-5.1-1.4-2.9-3-4.7-4.6-5.1-1.5-.3-2.7-1.5-3-3-.4-1.4-1.7-2.9-2.9-3.3-1.3-.5-2.9-1.6-3.6-2.5-.7-.9-2.6-1.6-4.1-1.6-3.1 0-6.5-3.2-5.7-5.5.5-1.1 0-1.5-1.8-1.5-1.4 0-3.3-.8-4.3-1.8-2.1-2.1-8.8-4.6-10.2-3.7-.5.3-1 .1-1-.5 0-.7-.7-1-1.5-.7-.8.4-1.7.2-1.9-.2-.3-.5-2.4-.5-4.6-.1-2.8.5-4.3.3-5-.5-1.6-1.9-5.5-2.6-8.4-1.5-3.8 1.4-5.6.3-5.6-3.5 0-3.9-3.5-6.9-6.3-5.3-1 .5-2.5.7-3.5.4-.9-.3-2.3-.2-3.1.3-1 .7-2 .2-3.3-1.4-1.9-2.5-2.4-5.1-.9-5.7.4-.2 1.2-1.3 1.5-2.6.6-1.8.4-2.2-1.3-2.2-1.2 0-2.1-.5-2.1-1.1 0-.5.5-.7 1-.4.6.3 1 .1 1-.5 0-.7-1.2-.9-3.4-.5-3.3.7-5.7-.7-3.6-2 .5-.3 1-1.7 1-3.1 0-1.3.5-2.4 1-2.4.6 0 1-.7 1-1.5 0-1.1.8-1.3 3-.9 2.4.5 3 .3 3-1 0-1 .5-1.4 1-1.1.6.3 1-.3 1-1.3 0-1.1 1.1-2.7 2.5-3.6 1.6-1 2.5-2.6 2.5-4.2 0-1.3.7-2.7 1.5-3 .8-.4 1.2-1 .9-1.5-.3-.5.2-.9 1.1-.9.9 0 1.3-.5 1-1-.3-.6-.1-1 .4-1 1.7 0 1.3-5.6-.5-7.1-2.2-1.8-4.4-2-4.4-.4 0 .7-.6 1.8-1.4 2.4-.8.7-1.8 2.6-2.1 4.2-.4 1.7-1.3 3.3-2.1 3.6-1.1.4-1.3 1.4-.9 3.5.7 3.1-.9 6.4-5.4 10.9-1.4 1.4-3.3 3.4-4.2 4.6-.9 1.1-2.3 2.3-3 2.5-1.1.4-1.1.8-.3 1.9 1.5 1.8-.7 4.4-2.4 2.7-1.4-1.4-6.1-.2-6.9 1.7-.3.9.5 2.3 1.9 3.5 2.3 1.8 2.4 2.2 1.4 5.5-.7 2.1-1.7 3.5-2.7 3.5-2.7 0-3.1 5.8-.5 7.5 1.1.8 1.6 1.8 1.2 2.2-.4.4-1.2 0-1.7-1-1.2-2.1-3.9-2.3-3.9-.2 0 .8-.5 1.5-1.1 1.5-.7 0-1.7.7-2.3 1.6-1 1.3-1.4 1.2-2.6-1.3-.8-1.5-2.6-4.2-4.1-6l-2.7-3.1-.6 2.9c-.4 2.1-1.1 2.9-2.6 2.9-1.1 0-2 .6-2 1.3 0 .8-1.1 2.3-2.3 3.6-2 1.8-2.9 2-5 1.2-2.3-.9-2.6-1.5-2.2-4.3.5-3.2.5-3.2-.4-.5-.7 2-.5 3.5.5 5.5 1.4 2.7 1.9 6.1.7 4.9-.3-.4-1.2-.2-2 .5-1 .8-1.7.8-2.5 0-.9-.9-.8-1.2.6-1.2 1.2 0 1.6-.5 1.2-1.6-.3-.9-.6-2-.6-2.6 0-.6-.7-.7-1.5-.4-.9.3-1.8 0-2.1-.7-.5-1.4-6.4-1.1-6.4.3 0 .9-4.9 2.4-7 2.1-4.7-.6-5.8-1.2-5.3-2.9.2-1.1-.7-2.8-2.8-4.6-2.9-2.6-3.1-3.1-2.5-7.7.6-4.6.5-4.9-2.3-6.4-2.2-1.1-3.5-2.9-4.8-6.5-1-2.8-2.3-5-2.9-5-.6 0-1.9-.9-2.8-1.9-1.5-1.6-1.5-2.2-.4-4.1 1.1-1.9 1-2.4-1.1-4.1-2.5-2.1-5.6-2.5-6.6-.9-.5.8-1.1.8-1.9.1-.9-.7-1.6-.7-2.3 0-1.6 1.6-3.2.3-2.6-2 .3-1.2-.3-2.6-1.6-3.7-1.9-1.6-1.9-1.9-.5-3.5.9-1 1.3-2.2 1-2.8-.8-1.2 1-5.1 2.3-5.1 1.2 0 7.1-5.6 7.1-6.7 0-1.6-4.2-3.5-5.3-2.4-1.1 1.1-4-.1-6.5-2.6-2.1-2-4.4-1.6-8.2 1.6zm-27 40.6c0 3-1.5 3.3-3 .6-1.4-2.7-1.3-3.1 1-3.1 1.5 0 2 .7 2 2.5zm11.1 10.2c1 .8 1.5 2.3 1.2 3.4-.6 2.2-2.3 2.6-2.3.4 0-1.8-2.1-2-3.7-.4s-4.7-2.3-4.9-5.9l-.1-2.8 4.1 2c2.2 1 4.8 2.6 5.7 3.3zm30.6 19.9c.4 1.1 1.4 1.4 3.3 1 3.2-.6 7 2.8 9.4 8.6.9 2 2.1 3.8 2.8 4 .7.3.9 1.1.4 2.3-.5 1.3-.9 1.6-1.4.8-.4-.6-2-1.5-3.5-1.8-1.5-.4-3.2-1.6-3.7-2.6-.6-1-1.7-1.6-2.4-1.3-.8.3-1.7.1-2-.5-.4-.6-1.3-.8-2.1-.4-.8.3-1.5 0-1.5-.7 0-.6-1.7-2.7-3.7-4.7l-3.8-3.5 3-1.3c4-1.8 4.5-1.8 5.2.1zm48.1 5.2c1.9 1.3.4 6.8-2.3 8.2-1.5.8-2.1 1.8-1.8 2.7.5 1.2.1 1.4-1.5.8-2.6-.8-2.6-.5-.7 4.2.8 2 1.4 3.7 1.3 3.8-1.2 1-8.7 1.5-9.3.6-.3-.6 0-1.3.7-1.6.9-.4 1.2-1.9 1-4.8-.3-3.6.1-4.9 2.4-7.6 2.6-3.1 2.6-3.4 1-4.3-1.5-.8-1.6-1.2-.5-1.9 1.8-1.1 8-1.1 9.7-.1zm-16.3 8.9c1.8 1.4 1.8 1.5.2.9-1-.3-2.3-.6-2.8-.6s-.9-.5-.9-1c0-1.4 1.2-1.2 3.5.7zm304.9 66.2c.3-.8.4.1.3 1.9-.3 2.9-.1 3.3 1.7 3 1.2-.2 2.2-.9 2.2-1.6.2-2.2.4-2.3 1.7-1.2.6.6 2 1.6 3 2.3 2.1 1.4 1.4 4.7-1 4.7-1 0-1.3.6-.9 1.6s-.2 2.4-1.5 3.5c-2.2 1.9-2.2 1.9-4.5-1.3-2.4-3.2-2.8-4.2-2.5-6.6.1-.7-.5-1.5-1.4-1.8-1.8-.7-1.9-2-.2-3.8.7-.9 1.4-1 1.8-.4.4.6.9.5 1.3-.3zm-431.4 4.1c-2 1.3-3.3 1.3-2.5 0 .3-.6 1.4-1 2.3-1 1.5 0 1.5.2.2 1zm436.2 13.5c1.3 1.7.9 2.3-1.9 2.9-3 .8-4.8-1.1-3.1-3.1 1.2-1.5 3.9-1.3 5 .2zm-242.2 18.9c0 .7 1.4 2.8 3 4.6 1.7 1.9 2.9 3.9 2.7 4.4-.6 1.7-5.7 2-5.7.3 0-.7-1.1-2.3-2.5-3.5-2.8-2.4-3.3-4.5-1-3.6 1.1.5 1.5-.1 1.5-2.1 0-1.5.4-2.4 1-2 .6.3 1 1.2 1 1.9zm-21.5 7.6c-.3.5-1.3 1-2.1 1s-1.2-.5-.9-1c.3-.6 1.3-1 2.1-1s1.2.4.9 1zm3.8 34.3c.4-.3.7-.1.7.5 0 1.4-.2 1.4-2.4.6-.9-.3-1.6-1.1-1.6-1.6 0-.7.5-.6 1.3.1.8.6 1.7.8 2 .4zm231.7 137.2c-1.2 1.5-3 1.2-3-.6 0-.5 1-.9 2.1-.9 1.8 0 1.9.2.9 1.5zm-14 73c0 .8-.4 1.5-1 1.5-.5 0-1-.7-1-1.5s.5-1.5 1-1.5c.6 0 1 .7 1 1.5z"/><path d="M386.281 169.019c-.7.9-1.9 2.2-2.7 3.1-1.1 1.3-1.1 1.8.4 3.4 2.7 3 3.8 2.4 3.2-1.5-.4-2.6-.2-3.5.9-3.5.8 0 1.4.6 1.4 1.2 0 1.7 2-1.2 2-3 0-1.7-3.7-1.5-5.2.3zM18.981 170.419c-.9 3 .6 5 1.7 2.1.5-1.4.5-2.7-.1-3.3-.5-.5-1.2-.1-1.6 1.2zM611.481 300.619c0 .5.9.9 2 .9s2-.2 2-.4-.9-.6-2-.9c-1.1-.3-2-.1-2 .4zM623.481 318.119c0 .8.5 1.2 1 .9.6-.3 1-1 1-1.6 0-.5-.4-.9-1-.9-.5 0-1 .7-1 1.6zM621.181 320.019c-.8 2-.4 2.9 1.1 2.4.5-.2.6-1.3.2-2.3-.6-1.9-.7-1.9-1.3-.1zM617.481 322.319c0 1.1.6 2.2 1.4 2.5 1 .4 1.2 0 .9-1.4-.7-2.7-2.3-3.4-2.3-1.1zM613.481 325.219c0 .5.7 1.8 1.5 2.9 1.2 1.6 1.4 1.6 1.5.3 0-.9-.7-2.2-1.5-2.9-.8-.7-1.5-.8-1.5-.3zM617.481 363.819c0 3.9 1.5 5.7 4.7 5.7 1.6 0 2.1.4 1.6 1.6-.5 1.4-.3 1.4 1.6.3 2.3-1.5 2.6-2.5 1.1-3.4-.6-.4-.8-1.4-.5-2.4.4-1.3-.6-2.1-4-3.3l-4.5-1.7v3.2zM340.181 404.919c-.3.8.2 1.6 1.4 1.9 1.7.5 1.8.3.7-1.1-.7-.9-1.3-1.8-1.4-2-.1-.2-.4.4-.7 1.2zM394.581 425.619c-.2 2.7 2.6 7.3 3.4 5.8.5-.7.1-1.7-.7-2.3-.9-.6-1.8-2-2.1-3.1-.3-1.5-.5-1.6-.6-.4zM397.481 434.519c0 .6.5 2 1 3.1.8 1.5.7 1.9-.5 1.9-1.8 0-2 1.6-.2 2.3 1.6.6 3.5-1.5 2.9-3.2-.2-.7.2-1.7.9-2.2 1.6-.9 1.2-1.4-1.8-2.3-1.5-.5-2.3-.3-2.3.4zM611.481 458.019c-.7.9-.9 1.9-.5 2.3.4.4 1 .1 1.2-.6.3-.6.9-1 1.4-.6.5.3.9-.2.9-1 0-2-1.4-2-3-.1zM417.581 460.519c0 .8.4 2.2.9 3 1.2 1.8 1.2.2 0-2.5-.6-1.3-.9-1.5-.9-.5zM698.481 485.519c0 .5-.6.7-1.4.4-.9-.3-1.7.6-2.4 2.5-.7 2-1.8 3.1-2.9 3.1-1.1 0-2.4.5-2.9 1-1.2 1.2-4.7.3-3.9-1 .3-.4-.2-1.3-1-2-1.2-1-1.5-.9-1.5.5 0 .9-.6 1.5-1.2 1.2-.7-.2-1.8.5-2.5 1.7-1.1 2-1.2 1.9-3.3-1.7-2.3-3.9-4-4.8-4-2.1 0 .8-.5 1.2-1.1.8-.8-.4-.9.1-.4 1.5 1.1 3.5 4.9 9 6.3 9.1.6 0 1.2.9 1.2 1.9 0 1.1.3 2.6.6 3.4.3 1-.3 1.7-2 2.1-2.8.7-3.5 3.1-1.1 4 2 .7 1.9 4-.1 5.7-1 .8-1.4 2.3-1.1 4.3.3 2.2-.1 3.8-1.6 5.4-1.6 1.7-1.8 2.5-.9 3.4.7.7 1.2 2.2 1.2 3.3 0 1.2.9 3 2 4 1.3 1.2 1.7 2.5 1.4 4.5-.4 1.5-.1 3.1.5 3.4.6.4 1.1 1.9 1.1 3.3 0 3.4 2.1 10.3 3.2 10.3.4 0 2.8 2 5.2 4.4 4.7 4.6 8.5 6.4 14.9 7.2 3.2.4 3.9.2 4.4-1.4.5-2 3.5-2.1 15.1-.6 2.7.4 4.2.2 4.2-.5 0-.6.7-1.1 1.5-1.1s1.5-.6 1.5-1.4c0-.7 1-2.4 2.3-3.8 1.2-1.4 2.3-3.1 2.5-3.8.5-2.2-4.9-7-7.9-7-1.9 0-3-.6-3.4-2-.3-1.1-1.2-2-1.9-2-1.9 0-3.9-5.4-3.1-8 .6-1.7-.3-3.1-4-6.6-2.6-2.4-5.3-4.4-6-4.4-.7 0-1.9-.7-2.6-1.6-.7-.9-2.3-2-3.6-2.5-1.2-.4-3-2.3-3.9-4.1-.9-1.8-3-4.8-4.6-6.7-1.7-1.8-2.6-3.6-2.1-4 .4-.3.9-1.3 1.1-2.1.6-2.5 3.3-4.9 5-4.4 1.3.4 1.3.3-.1-.6-1.5-.9-2.2-.9-3.5.4-1.4 1.2-2.2 1.3-4.1.3-2.9-1.4-3.9-3.7-1.7-3.7.9 0 1.6-.6 1.6-1.3 0-.8 2.9-2.8 6.5-4.6 3.6-1.7 6.5-3.6 6.5-4.2 0-.6.7-.9 1.5-.5 2 .7 1.9 0-.5-2.4-2.2-2.2-3-2.5-3-1z"/><path d="M697.181 494.919c-1.4 1.4-1.5 2.1-.6 3.2 1.6 1.9 3.2.3 2.7-2.7-.3-2.2-.4-2.2-2.1-.5zM849.481 501.519c-2.4.8-2.4.8-.2.9 1.2.1 2.5.1 2.9.2.4 0 .9-.4 1.1-1 .4-1.2-.2-1.2-3.8-.1zM839.181 510.119c-.9.9.4 3.5 1.4 2.8.5-.3.9-1.2.9-2 0-1.4-1.2-1.9-2.3-.8zM821.481 513.619c0 2.4-3.8 6.9-5.9 6.9-.9 0-2.7.7-4 1.6-2 1.5-2.3 2.2-1.7 6 .4 3.2.2 4.4-.7 4.4-1.6 0-6.9 5.9-6.2 7 .3.5-.3 1.5-1.3 2.2-2.6 1.8-4.5 5.5-3.2 6.3.5.3 1.4.4 1.9 0 .5-.3 1.3-.1 1.6.5.4.6 2.6-.6 5.5-3 2.6-2.2 5.3-4 6-4 .8 0 1-.8.7-2.3-.4-1.2-.2-2.9.3-3.7.5-.8.5-2.1 0-3-.5-.9-.6-2.7-.3-3.9.4-1.8.8-1.9 2-.9.8.7 2.5 1.4 3.6 1.5 1.2.2 2.3.8 2.5 1.3.2.5 1.4.4 2.8-.2 1.7-.8 2.4-1.9 2.4-4 0-2.3.7-3.2 3.3-4.3 4.2-1.8 7.3-5.3 5.8-6.8-.8-.8-1.1-.6-1.1.6 0 1.9-1.5 2.3-2.5.7-.3-.6-1.5-1-2.5-1s-2.3-.8-2.8-1.7c-1.3-2.2-6.2-2.4-6.2-.2zM629.781 530.919c.5 1.3.2 1.5-1.6 1.1-1.2-.4-3.6.1-5.2.9-3.6 1.9-5.7 2-7.2.5-.9-.9-1.9-.8-4 .6-4.2 2.6-7.3 5.7-7.3 7.1 0 1 2.6 2.5 5 2.9 2.8.4 7 3.4 7.5 5.3.6 2.4.7 2.4 2.1.6 1.3-1.8 1.4-1.7 1 1.1-.2 1.6-.5 3.6-.5 4.3-.1.8-1 1.2-2.3 1-1.5-.2-2.3.2-2.3 1.2 0 2.8-2.2 5.3-4 4.7-1.3-.5-1.5-1.4-1-3.6.8-3.9-.7-6.6-4.6-8-1.8-.6-3.3-1.1-3.5-1.1-.8 0 3.3 7.6 5.1 9.5 1.8 1.8 1.8 2 .3 2.3-1.9.4-1.3 3 1 4.8.9.7 1.2 1.6.7 2.4-.6 1-1.1.9-2.2-.5-.9-1.4-1.3-1.5-1.3-.4 0 2 1.1 3.1 4.5 5.1 1.7.9 3.1 2.2 3.1 2.7.1.6.3 1.4.4 1.8.1.5.2 1.1.1 1.5 0 .5 1 .8 2.3.8 1.6 0 2.6-.7 2.9-2.1.3-1.2 1-1.8 1.7-1.4.7.4 1.4-.2 1.7-1.4.7-2.6 3.9-2.7 5.3-.2 1.2 2.4 1.3 3.4.1 2.7-.5-.4-1.7-.3-2.7.1-1.6.6-1.6.7 0 1.9 1.4 1 2.5.9 5.7-.4 2.3-.9 3.8-2 3.5-2.8-.3-.7.6-1.4 1.9-1.6 1.5-.3 2.6 0 2.9.9.4 1 1.1 1.1 2.4.4 1.5-.8 2.2-.4 3.6 2 .9 1.6 2.3 2.9 3.1 2.9.7 0 1.8 1.3 2.4 3 .5 1.6 1.5 3 2.1 3 .7 0 .5.7-.4 1.6-.9.8-1.6 1.8-1.6 2.2 0 .9-4.6 6.2-5.4 6.2-.3 0-.6-.9-.6-2 0-2.2-1-2.6-2.8-.8-.8.8-1.6.5-3.2-1.3l-2.1-2.4.6 3c.3 1.6 1.3 3.4 2.2 4 .9.5 3.8 2.4 6.4 4.2 2.8 1.8 5.1 2.7 5.5 2.2.3-.6 1.2-.8 1.9-.5.8.3 1.1-.2.8-1.5-.6-2 .4-2.3 6.2-1.9 4.2.3 5.7 1.7 4.4 4.2-1.4 2.7-.9 3 3.7 2 3.6-.8 3.9-1.1 3.6-4.1-.2-2.7 0-3.1 1.5-2.3 1 .5 2.3.7 2.9.5.7-.2 1.4.8 1.8 2.2.4 1.4 1.1 2.5 1.6 2.5.6 0 1 .8 1 1.8 0 .9 1.1 2.9 2.5 4.4 2.3 2.5 3.3 4.9 3.4 9 .1 2.6 3 2.2 5.2-.6 2.2-2.8 5.3-2.5 8.1.8 2.2 2.7 2.3 5 .2 4.2-1.3-.5-1.5-.1-1.2 1.8.4 2-.1 2.7-2.3 3.7-2.4 1-2.8 1.5-2.2 3.8.8 3.4.8 3.4 3.3 2.6 1.5-.5 1.9-1.2 1.5-2.6-.5-1.5-.1-1.9 1.9-1.9 1.4 0 2.6-.4 2.6-1 0-.5.9-1.4 2.1-2 1.6-.9 2.4-.8 3.7.3 1.6 1.4 1.7 1.2 1.5-2.6 0-2.3.3-4.5.8-4.8.5-.3 0-1.7-1.1-3.2-2.4-3.1-2.3-8.7.3-11.8 1-1 1.7-2.3 1.7-2.9 0-.5.7-1.3 1.6-1.8 2-1.1.9-3.6-1.2-2.8-.8.3-2.3-.3-3.3-1.3s-3.1-1.9-4.7-2c-7.6-.3-10.1-.7-12.4-2.1-1.4-.7-3.4-1.3-4.5-1.2-1.2.2-3.4-.4-5-1.2-1.7-.9-3.6-1.6-4.3-1.6-.9 0-1.2-1-1.1-2.8.2-1.8-.5-3.9-1.9-5.6-1.9-2.5-2-3-.7-4.3 1-1 1.2-2 .6-3.1-.5-1-.9-3.8-.9-6.4 0-3.6.3-4.5 1.6-4.4 2.3.2 2.7-3.2.5-5.6-1.4-1.5-2.6-1.9-5.6-1.5-2.9.4-4 .1-5.1-1.5-.8-1-2.9-2.7-4.7-3.7-3.5-1.9-6.6-6.1-7.2-9.7-.4-2.6-6.1-8.2-9-8.8-1.2-.3-4-.7-6.2-1-2.2-.2-5.3-.8-6.9-1.2-2.5-.6-2.8-.4-2.3 1zm-19.8 32.6c.3.5.2 1-.4 1-.5 0-1.3-.5-1.6-1-.3-.6-.2-1 .4-1 .5 0 1.3.4 1.6 1zm2.5 2c0 .5-.5 1-1.1 1-.5 0-.7-.5-.4-1 .3-.6.8-1 1.1-1 .2 0 .4.4.4 1zm1 4.6c0 2.1-1.7 1.7-2.3-.5-.3-1.4-.1-1.8.9-1.4.8.3 1.4 1.1 1.4 1.9zm46.2 22.9c0 .5-.5 1.1-1.1 1.3-.6.2-1.1-.4-1.1-1.3s.5-1.5 1.1-1.3c.6.2 1.1.8 1.1 1.3zm47.3 6.6c-.6 1.9-.5 2 1.4.9 2.7-1.4 4.7-.4 3 1.6-.6.8-1.9 1.4-2.8 1.4-1.4 0-1.4.2-.1 1 .8.5 1 1 .4 1-2.3 0-5.8-3.6-5.1-5.4.4-1 1.1-1.4 1.7-1.1.5.3 1 .1 1-.4 0-.6.3-1.1.6-1.1s.2.9-.1 2.1zm-7.1 8c1.7.8 2.4 1.8 2.2 3.5-.3 2.4-2.3 5.4-3.7 5.4-1.6 0-3-4.1-2.4-7.1.8-3.3.6-3.3 3.9-1.8zM600.981 534.519c-.8 2.6-.3 3.3 1.9 2.4 2-.8 2-1.8.2-3.3-1.1-1-1.6-.8-2.1.9zM598.481 540.419c1.3.9 1.3 1.1-.2 1.1s-1.8.9-1.8 4.5c0 3.8.3 4.5 2 4.5 1.8 0 2-.5 1.6-5.2-.2-3.3-.9-5.4-1.8-5.6-.9-.2-.8 0 .2.7zM763.481 543.419c0 2.6-2.1 7.3-3.9 8.7-1.4 1.1-1.2 3.8.4 7.6 1 2.5-1.1 2.3-6.9-.8-3.2-1.7-5.1-2.2-5.5-1.5-.7 1-4.1.8-6.1-.4-1.3-.8-8 3.7-8 5.5 0 .8 1.5 2.1 3.3 2.9 1.7.8 4.8 3 6.7 5 3.7 3.7 7.9 6.1 10.7 6.1 1.3 0 1.4-.9.8-5.6-.6-5-.5-5.6.9-5.1 1 .4 1.6.1 1.6-.9s.6-1.4 1.5-1c.9.3 1.5 0 1.5-1 0-1.1.6-1.5 2-1.1 1.1.3 2 .2 2-.2s1.5-2.2 3.3-4.1c1.7-1.8 2.7-3 2-2.7-.8.5-1.1-.4-.8-3.4.4-4.7-.6-7.3-3.5-8.9-1.7-.9-2-.8-2 .9z"/><path d="M601.481 544.319c0 .4.9 1.3 2 2 1.9 1.2 2 1.1.8-.8-1.3-2-2.8-2.7-2.8-1.2zM794.881 549.519c-2.6 4.2-3.2 5.8-2.1 6.9 1.1 1.1-4.2 6.1-7.7 7.3-1.9.5-1.8.6.5.7 1.4.1 3.4 1 4.3 2 1.6 1.7 1.6 2.2.3 4.6l-1.4 2.7-2.6-3.2c-1.5-1.7-2.7-3.6-2.7-4.1 0-.5-1-.9-2.2-1-2.2 0-2.2-.1-.3-.9 1.1-.5 1.4-.9.7-.9-2-.1-4.7 1.5-8 4.9-1.7 1.6-3.8 3-4.6 3-.9 0-1.5.6-1.3 1.2.2 1.3-.6 1.4-3.4.3-2.6-1-4 4.3-2 7.5 1.5 2.2 1.5 2.4-.2 1.7-1.1-.4-2.4 0-3.6 1.2-1 1-2.5 2.1-3.2 2.3-2.1.7-2 9.7.1 13.4 1.3 2.3 1.5 3.5.7 4.3-.6.6-1.7 3.4-2.4 6.3-1.2 4.5-1.2 5.3.2 6 .8.5 1.5 1.6 1.5 2.3 0 .8.4 1.5 1 1.5.5 0 .7.7.4 1.5-.4.9-1.9 1.5-3.8 1.5-1.8 0-3.7.5-4.2 1-1.8 1.8-3.7-1.7-4-7.5-.3-4.9-.1-5.5 1.6-5.5 2.2 0 2.7-1.6.8-2.3-.9-.4-.8-.6.2-.6 1.2-.1 1.5-2 1.6-9.9l.2-9.7-2.9.1c-1.6 0-3.2.4-3.6.7-.3.4-1.5-.1-2.5-1-1.7-1.5-2-1.5-2.8-.3-.5.8-.7 2.4-.4 3.5.3 1.5-.4 2.4-2.8 3.5-2.6 1.2-3.4 2.2-3.6 4.7-.2 2.1-.9 3.3-1.8 3.3-1.2 0-1.2.3-.2 2.1 1.1 1.7 1 2.2-.5 3.3-1.6 1.3-1.6 1.5.7 3 3.5 2.2 6.7 2.1 5.9-.2-.5-1.3-.3-1.5.7-.5.7.7 1.3 3.2 1.4 5.6.1 2.4.6 5 1.2 5.8.6.8 1.4 2.6 1.8 4.1.5 2.3.3 2.8-1.3 2.8-1.7 0-1.9.4-1 3.2 1 3.8.5 4.6-1.7 2.7-1.4-1.1-1.6-1-1.2 1.1.2 1.7.9 2.4 1.9 2.2.9-.1 1.9.4 2.3 1.3.3.8 1.2 1.5 2.1 1.5.8 0 1.5.4 1.5.8 0 1.6 5.2 3.4 6.4 2.2.5-.5 2-1 3.3-1 1.7 0 2.3-.6 2.3-2.1 0-1.1.4-1.8.9-1.4 1.3.8 6.4-4.2 5.6-5.4-.3-.6-.2-1.8.3-2.8.7-1.2.5-2.4-.7-4.2-1.3-2.1-1.3-2.4-.1-1.6 2.2 1.4 6 1.7 6 .5 0-.5.9-1 2-1s2-.4 2-1c0-1.6 5.8-4.1 8.3-3.5 1.9.5 3.3-.4 7.5-4.9 2.8-3.1 5.6-5.6 6.2-5.6.5 0 1-.5 1-1 0-.6 1.1-1 2.4-1 1.4 0 2.7-.4 3-.9.3-.5 1.5-.7 2.7-.4 1.2.4 2.5 0 2.9-.8.5-.7 1.7-1.4 2.7-1.5 6.5-.3 6.5-.4 6-2.5-.3-1.2 0-2.2.9-2.6.8-.3 1.4-1.1 1.4-1.9 0-.7.8-1.8 1.8-2.3 1.4-.9 1-1.1-1.9-.9-4.4.2-8.6-2.3-9.1-5.4-.2-1.5-1.3-2.4-3.7-3.1-3.3-.8-3.3-.8-1.3-2.5 2.1-1.7 2.1-1.7-1.9-5.2l-4-3.5 1.3-5.1c.8-3.2 1.8-4.9 2.6-4.6.6.2 1.2-.3 1.2-1.2 0-.9-.5-1.6-1.1-1.6-.7 0-.8-1.1-.4-3.2.6-2.6.5-3-.9-2.5-.9.4-1.6.2-1.6-.2 0-.5.4-1.1.9-1.3.5-.2.4-1.6-.3-3.3-1-2.3-1.4-2.6-2.2-1.5zm-61.4 51.6c0 .8-.4 1.2-1 .9-.5-.3-1-1-1-1.6 0-.5.5-.9 1-.9.6 0 1 .7 1 1.6zm14 32c0 .8-.4 1.2-1 .9-.5-.3-1-1.3-1-2.1s.5-1.2 1-.9c.6.3 1 1.3 1 2.1z"/><path d="M774.981 562.519c.3.5.8 1 1.1 1 .2 0 .4-.5.4-1 0-.6-.5-1-1.1-1-.5 0-.7.4-.4 1zM580.481 575.119c0 .8.5 1.2 1 .9.6-.4.8-1.1.5-1.6-.9-1.4-1.5-1.1-1.5.7zM572.481 576.219c.8 1.7.8 2.3 0 2.3-.7 0-1 .5-.8 1.1.4 1.3 2.2.8 2.4-.8.1-.6-.5-2-1.3-3-1.3-1.7-1.3-1.6-.3.4zM576.381 577.719c.4 1.3 1.6 2.4 2.5 2.6 2.3.5 1.9-1-.9-3.1-2.4-1.7-2.4-1.7-1.6.5zM586.881 579.019c-.4.8-1.8 1.5-3.3 1.5-1.5 0-3.6.7-4.7 1.5-1 .8-2.9 1.5-4.2 1.5-1.5 0-2.2.5-1.9 1.2.2.7 1 1.2 1.6 1 1.3-.3 1.5 3.4.1 4.3-.5.3-.6 1.3-.3 2.2.5 1.2.3 1.4-.8.8-1.1-.7-1-.4.2 1.5.9 1.5 1.2 2.9.7 3.5-.4.5-1.7 2.1-2.7 3.5-1.7 2.3-2.2 2.4-5 1.4-2.3-.9-3.2-.9-3.9 0-1.5 2-2.2 4.6-1.1 4.6.6 0 .7.5.3 1.2-.5.8-.2.9 1.1.5.9-.4 2.4-.2 3.1.4 1.1.9 1.5.8 2-.5.5-1.2 1-1.3 2.5-.5 1.1.5 2.3.7 2.8.4.5-.3 1.3.5 1.7 1.7.4 1.3.2 2.4-.4 2.6-.6.2-.9.9-.6 1.5.8 2.3-4 1.7-5.9-.6-1.1-1.5-1.5-1.6-1.1-.5.9 2.5-.4 4.2-2.2 2.7-1.1-.9-1.4-.8-1.4.4 0 2 2.7 4 4.5 3.3.9-.3 1.5 0 1.5 1 0 .8.5 1.2 1 .9.6-.4 2.6.5 4.5 1.9 4.1 3.1 5.9 3.2 9.2.6 1.4-1.1 3.4-2 4.4-2 2.2 0 2.5-2.9.8-6.2-1.5-2.9-.6-3.1 2.5-.7 2.5 2 2.8 2 4.5.5 1-.9 2.1-1.3 2.4-1 1.2 1.2 3.7-1.8 3.7-4.3 0-2 .4-2.4 1.8-1.8.9.4 3 1 4.5 1.3 1.5.2 3.3 1.4 4 2.6.8 1.4 2.2 2.1 4.2 2.1 3 0 3.1.2 3.4 5.2.1 2 .6 2.2 4.4 2 3.6-.3 4.2-.6 4-2.5-.3-2.5.4-2.7 2.6-.9.9.7 3.5 1.9 5.9 2.7 2.3.7 4.2 1.7 4.2 2.2 0 1.7 1.8.7 2.3-1.3.6-2.2-1.2-4.5-5.7-7.4-2.9-1.9-3.6-6.5-1.1-6.5 2.8 0 4.9-8 2.5-9.5-.5-.3-1-.1-1 .4 0 1.6-9.5 1.4-10.9-.2-.6-.8-2.8-2.2-4.8-3.1-2.1-.9-4.7-3.1-5.7-4.9-1.6-2.6-2-2.9-2.4-1.4-.5 2.3-2.6 1.7-3-.9-.4-2.1-8.8-10.4-10.6-10.4-.6 0-2.2-.3-3.5-.7-2-.5-2.2-.3-1.6 1.6.4 1.5.2 2.3-1 2.7-2.4 1-6.6-1.2-5.9-3.1.3-.8.1-1.5-.5-1.5-.7 0-1.4.7-1.7 1.5zm-5.4 29.4c0 1.8-1.7 2-3.6.6-1.8-1.4-1.8-1.4.9-1.5 1.5 0 2.7.4 2.7.9zM751.481 580.419c0 1.2-.4 2.1-1 2.1-.5 0-1 .9-1 2 0 2.5 1.8 2.5 4.9-.1 2-1.6 2.3-2.4 1.4-3.7-1.6-2.6-4.3-2.7-4.3-.3z"/><path d="M570.081 587.019c.4.8 1 1.5 1.5 1.5.4 0 .6-.7.3-1.5-.4-.8-1-1.5-1.5-1.5-.4 0-.6.7-.3 1.5zM711.281 586.219c-1 .2-1.8.5-1.8.6 0 .1.4 1.8 1 3.7.7 2.4.6 3.6-.1 4.1-.7.4-.8 1.2-.4 1.8.5.9 1 .8 1.8-.3 1.3-1.6 6.7-1.2 6.7.5 0 .5.4.9.9.9s.8-1.1.6-2.5c-.2-2.1 0-2.3 1.2-1.4 1.1.9 1.7.9 2.6 0 .9-1 .9-1.2-.3-.9-.8.2-1.4-.3-1.3-.9.2-.7-.8-1.5-2.1-1.9-1.4-.3-3.2-1.4-4.2-2.5-.9-1-2-1.8-2.3-1.8-.3.1-1.4.3-2.3.6zM821.481 588.619c0 .7-1 .9-2.5.5-2-.5-2.5-.3-2.5 1.4 0 1.1.4 2 .9 2s1.5.2 2.3.5c2.1.8 5-1.8 4.2-3.8-.7-1.9-2.4-2.3-2.4-.6zM566.681 596.519c0 1.4.2 1.9.5 1.2.2-.6.2-1.8 0-2.5-.3-.6-.5-.1-.5 1.3zM559.481 615.119c0 .8.5 1.2 1 .9.6-.3 1-1 1-1.6 0-.5-.4-.9-1-.9-.5 0-1 .7-1 1.6zM557.981 620.619c-.4 1.1-.4 2.3-.1 2.6.3.4.6-.2.6-1.1 0-1.2.5-1.6 1.5-1.3.8.4 1.7.2 2-.2.3-.5-.2-1.2-1.1-1.5-2.2-.8-2.2-.8-2.9 1.5zM645.481 622.119c0 .8.5 1.2 1 .9.6-.3 1-1 1-1.6 0-.5-.4-.9-1-.9-.5 0-1 .7-1 1.6zM650.981 622.519c1.8 2 3.5 2.6 3.5 1.2 0-.4-1.2-1.2-2.6-1.9-2.6-1.2-2.6-1.2-.9.7zM541.481 622.719c0 .9-.6 1.9-1.2 2.1-.7.3-.8.6-.3.6.6 0 1.7-.4 2.5-.9 1.2-.7 1.2-1.2.2-2.2-.9-.9-1.2-.9-1.2.4zM636.181 623.619c1.2 1.2 2.4 2.1 2.7 1.8.2-.2-.8-1.3-2.2-2.3l-2.7-1.9 2.2 2.4zM566.481 624.019c.7.8 1.7 1.2 2.2.9.6-.4.5-1-.3-1.5-2.2-1.4-3.3-1-1.9.6zM684.581 625.719c-.1 1.1-.7 1.5-2.1 1.1-1.7-.5-1.9 0-1.7 3.9l.2 4.4 2.7-1.5c3.5-2 3.9-3 2.3-6.6-.8-1.8-1.4-2.3-1.4-1.3z"/><path d="M656.481 627.019c.7.8 1.9 1.5 2.7 1.5 2.3 0 9.3 6.3 8.3 7.5-1.2 1.5 6.4 9.3 9.8 10.2 1.5.3 4 1.7 5.6 3 2.5 2.1 3.1 2.2 3.8.9.5-.8.6-2.7.4-4.1-.4-2.2-.1-2.7 2.5-3.2 3.6-.7 3.7-2.5.4-6.1-2.3-2.5-2.5-2.5-2.5-.6 0 2.9-4.4 6.6-6 5.1-.7-.7-.5 0 .5 1.5.9 1.6 1.3 2.8.7 2.8-.6 0-1.4-.5-1.7-1-.4-.6-1.6-.8-2.8-.5-1.7.5-1.9.4-.7-.4s1.2-1.3.2-2.3c-1.5-1.5-1.6-2.9-.1-2.6.6.2 1.2-1.4 1.3-3.5.2-2 .2-3.7 0-3.7-.1 0-1.4.4-2.7.9-1.9.8-3.2.4-6.1-1.5-2-1.4-4-2.3-4.5-2-.5.3-1.6-.3-2.6-1.4-2.2-2.5-8.5-2.9-6.5-.5zM540.981 628.419c-.3.5-.1 1.2.4 1.5 1.3.8 4.2-.4 3.5-1.5-.7-1.2-3.1-1.2-3.9 0zM547.881 630.319c-.9 1.4-.8 2.2.2 3.7 1.2 1.6 1.4 1.6 1.4.3 0-.9.5-1.8 1.2-2 1.2-.4.4-3.8-.9-3.8-.5 0-1.3.8-1.9 1.8z"/></g></svg>