<?xml version="1.0" standalone="no"?>
<!DOCTYPE svg PUBLIC "-//W3C//DTD SVG 20010904//EN"
 "http://www.w3.org/TR/2001/REC-SVG-20010904/DTD/svg10.dtd">
<svg version="1.0" xmlns="http://www.w3.org/2000/svg"
 width="818.447505pt" height="290.724433pt" viewBox="0 0 818.447505 290.724433"
 preserveAspectRatio="xMidYMid meet">
<metadata>
Created by potrace 1.15, written by Peter Selinger 2001-2017
</metadata>
<g transform="translate(-630.277046,1137.350592) scale(0.100000,-0.100000)"
fill="#222222" stroke="none">
<path d="M12012 11326 c2 -38 -2 -51 -17 -62 -23 -17 -22 -59 2 -86 9 -10 13
-18 8 -18 -4 0 5 -16 19 -35 15 -19 24 -35 20 -35 -4 0 0 -8 9 -18 15 -16 15
-19 -3 -30 -11 -7 -20 -18 -20 -26 0 -15 -21 -26 -51 -26 -16 0 -19 -5 -14
-19 10 -33 -5 -69 -31 -75 -14 -4 -22 -11 -19 -16 3 -6 2 -10 -4 -10 -5 0 -13
5 -16 11 -5 7 -13 4 -26 -7 -16 -14 -21 -15 -35 -3 -16 13 -17 11 -11 -12 4
-15 2 -41 -4 -58 -15 -42 -6 -49 25 -18 20 21 27 23 36 12 6 -8 21 -15 33 -17
12 -2 21 -9 20 -16 -2 -8 14 -12 52 -12 51 0 55 2 61 28 4 15 15 35 25 45 17
16 21 16 48 2 17 -8 45 -15 63 -14 18 0 48 -3 67 -7 19 -4 36 -2 40 4 3 5 35
13 71 16 35 4 68 10 72 14 5 5 -12 23 -37 42 -25 19 -45 37 -45 41 0 3 -10 19
-21 33 -14 18 -24 24 -29 16 -4 -7 -25 3 -61 30 -30 22 -55 36 -57 30 -6 -18
-39 -11 -54 12 -13 19 -18 21 -31 9 -14 -11 -17 -9 -23 16 -4 15 -14 36 -23
46 -14 17 -14 20 0 30 11 9 14 30 13 82 -2 85 1 74 -29 115 l-25 34 2 -48z"/>
<path d="M9959 11014 c-1 -11 -1 -25 0 -31 1 -8 -5 -10 -14 -7 -9 4 -15 1 -15
-7 0 -8 -3 -25 -7 -38 l-6 -25 29 27 c16 15 37 27 47 27 26 0 19 38 -10 58
-21 13 -23 13 -24 -4z"/>
<path d="M12493 10872 c-24 -25 -43 -48 -43 -51 0 -3 8 -31 17 -63 11 -37 24
-60 35 -64 10 -3 18 -10 18 -16 0 -20 34 -37 73 -38 20 0 37 -4 37 -10 0 -5 7
-10 15 -10 8 0 15 -7 15 -15 0 -11 8 -13 33 -8 17 3 34 9 37 13 3 4 26 4 53 0
49 -7 72 4 62 31 -3 8 -1 21 5 29 8 12 13 11 33 -8 15 -14 23 -31 20 -42 -3
-12 5 -27 21 -41 15 -13 24 -29 22 -35 -3 -7 2 -15 10 -18 9 -3 14 -15 12 -25
-2 -11 7 -30 20 -44 12 -13 20 -30 17 -38 -5 -14 -50 -39 -70 -39 -19 0 -51
-53 -58 -94 l-6 -38 33 6 c18 3 36 3 40 -1 4 -5 13 -8 19 -8 7 0 13 -8 15 -17
2 -11 -3 -18 -12 -18 -21 0 -20 -9 2 -38 25 -32 85 -36 89 -7 3 19 3 19 -5 1
-7 -16 -10 -17 -14 -5 -3 8 3 25 13 38 17 21 23 22 45 12 18 -8 31 -8 45 0 11
6 27 8 34 5 8 -3 16 5 19 20 5 17 13 24 30 24 31 0 86 -20 86 -31 0 -9 64 -5
93 6 10 4 17 18 17 33 0 20 3 23 12 14 8 -8 15 -8 24 -1 8 7 14 7 19 -1 3 -5
21 -10 40 -10 24 0 40 -8 58 -29 19 -23 31 -28 58 -27 19 2 40 -2 47 -7 8 -6
12 -6 12 2 0 20 15 12 32 -16 19 -34 23 -147 5 -136 -7 4 -6 -1 2 -10 7 -9 21
-17 30 -17 10 0 21 -15 29 -42 7 -23 21 -48 30 -55 11 -9 13 -16 6 -19 -6 -3
-9 -15 -7 -27 6 -28 -15 -47 -59 -54 -43 -6 -46 -10 -22 -28 27 -20 45 -18 51
6 4 12 11 18 20 15 8 -3 19 -6 25 -6 6 0 8 -6 5 -14 -9 -22 32 -69 54 -63 11
3 19 2 19 -1 0 -4 17 -12 37 -19 32 -10 40 -9 64 9 l27 21 -30 25 c-27 23 -33
24 -62 14 -48 -18 -56 -15 -94 24 -31 32 -33 38 -19 46 10 5 17 19 17 32 0 32
78 96 117 96 42 0 73 11 73 25 0 7 -15 35 -32 62 -23 35 -45 55 -74 67 -57 24
-79 48 -65 75 16 29 14 31 -25 26 -19 -3 -44 -1 -54 5 -13 7 -20 6 -22 -2 -2
-6 -19 4 -39 23 l-34 34 -70 -8 c-60 -6 -71 -5 -87 11 -18 18 -18 19 1 36 13
12 17 23 12 35 -5 9 -15 30 -24 46 -8 17 -21 50 -28 75 -7 26 -14 38 -16 28
-3 -10 -10 -15 -19 -11 -9 3 -14 -1 -14 -11 0 -9 -6 -16 -12 -15 -7 1 -21 -1
-31 -6 -10 -4 -23 -2 -30 4 -11 8 -13 4 -9 -20 4 -25 1 -30 -14 -27 -13 2 -20
-4 -22 -18 -3 -20 -6 -21 -33 -11 -16 6 -29 15 -29 19 0 4 -13 14 -29 22 -24
13 -31 13 -47 1 -13 -9 -23 -10 -31 -3 -20 16 -15 30 7 23 14 -4 20 -2 20 9 0
10 6 13 15 10 10 -4 15 0 15 15 0 15 6 21 21 21 16 0 19 3 11 13 -5 6 -13 26
-16 44 -5 23 -15 34 -37 42 -17 6 -28 15 -25 20 4 5 -5 23 -19 39 -27 32 -32
58 -14 64 6 2 1 14 -13 27 -44 42 -168 71 -154 36 3 -8 8 -21 12 -29 3 -9 -6
-16 -28 -21 -18 -4 -27 -9 -20 -12 6 -2 12 -11 12 -18 0 -20 -21 -30 -31 -14
-7 12 -12 12 -30 1 -20 -13 -21 -12 -16 7 3 15 -1 25 -14 31 -10 6 -19 15 -19
21 0 6 4 8 9 5 4 -3 16 3 25 13 11 13 14 21 7 26 -6 3 -11 13 -11 22 0 13 3
13 15 3 9 -7 18 -10 22 -6 14 13 -11 20 -78 22 -38 1 -75 6 -82 12 -19 15 -65
23 -69 12 -2 -6 -13 -3 -27 7 -14 9 -45 18 -70 19 -43 2 -49 -1 -88 -44z m707
-456 c0 -11 -19 -15 -25 -6 -3 5 1 10 9 10 9 0 16 -2 16 -4z m-172 -173 c6 -9
12 -20 12 -25 0 -18 -23 -6 -63 33 l-42 41 40 -16 c22 -9 46 -24 53 -33z"/>
<path d="M9818 10883 c-3 -24 -7 -28 -32 -25 -18 3 -26 0 -22 -7 4 -6 2 -19
-4 -30 -15 -28 13 -55 41 -40 16 8 18 13 8 25 -9 11 -8 14 7 14 11 0 28 -7 38
-15 10 -8 23 -12 28 -9 12 8 39 -16 32 -27 -3 -5 0 -9 5 -9 15 0 14 12 -5 38
-9 13 -13 26 -10 29 3 3 1 12 -5 19 -7 9 -7 19 0 33 16 30 15 31 -33 31 -41 0
-45 -2 -48 -27z"/>
<path d="M12960 10850 c0 -5 5 -10 11 -10 5 0 7 5 4 10 -3 6 -8 10 -11 10 -2
0 -4 -4 -4 -10z"/>
<path d="M11230 10825 c-1 -11 -4 -15 -7 -8 -6 16 -43 -5 -43 -24 0 -15 16
-17 25 -3 9 15 25 12 25 -5 0 -14 -11 -20 -69 -40 -9 -4 -7 -11 10 -25 13 -11
18 -19 12 -20 -7 0 -13 -7 -13 -15 0 -8 -4 -15 -9 -15 -15 0 -33 29 -25 42 4
7 4 10 -1 6 -4 -4 -16 -3 -26 2 -9 6 -25 7 -34 4 -12 -5 -13 -9 -3 -21 6 -8
12 -37 12 -65 1 -37 6 -53 20 -64 23 -16 92 -19 101 -3 5 7 15 5 32 -6 32 -22
58 -13 43 14 -5 11 -10 28 -10 38 1 13 5 10 17 -11 8 -16 26 -39 39 -51 24
-22 34 -75 14 -75 -5 0 -10 9 -10 20 0 11 -5 20 -11 20 -6 0 -9 -7 -5 -15 3
-8 1 -15 -4 -15 -6 0 -10 4 -10 10 0 5 -11 12 -24 16 -14 3 -32 14 -42 25 -19
21 -40 26 -28 7 5 -8 0 -9 -15 -5 -18 4 -20 3 -11 -8 6 -7 10 -22 8 -32 -2
-12 4 -19 18 -21 37 -5 38 -43 1 -77 -18 -16 -39 -30 -47 -31 -8 -1 -23 -2
-32 -3 -10 0 -18 -8 -18 -17 0 -9 -5 -12 -12 -8 -8 5 -9 -3 -5 -29 5 -32 3
-36 -23 -46 -16 -5 -38 -7 -49 -4 -19 5 -21 1 -21 -35 0 -23 -6 -47 -13 -53
-11 -11 -10 -16 5 -31 25 -25 23 -41 -4 -32 -22 7 -22 6 -4 -21 22 -33 8 -57
-22 -38 -16 9 -20 4 -36 -41 -11 -28 -21 -71 -23 -95 -4 -56 -8 -61 -44 -61
-22 0 -29 -5 -29 -20 0 -25 -35 -40 -91 -40 -35 0 -39 -3 -39 -25 0 -15 -7
-28 -17 -32 -10 -3 -26 -13 -35 -21 -10 -8 -35 -15 -56 -16 -29 -2 -46 -10
-69 -34 -28 -30 -33 -31 -57 -21 -19 9 -23 15 -15 25 8 10 3 17 -19 28 -27 14
-31 14 -36 0 -4 -11 -12 -14 -24 -9 -9 4 -39 13 -67 19 -40 9 -51 16 -53 34
-2 12 0 22 5 21 23 -4 53 15 48 30 -3 12 6 19 36 29 50 15 67 31 61 54 -2 9 3
25 12 33 28 29 20 40 -34 49 -17 2 -24 9 -23 22 1 10 -4 22 -10 26 -9 5 -9 10
1 20 17 17 15 31 -4 24 -8 -3 -12 -2 -9 4 6 9 -22 15 -52 11 -7 -1 -13 2 -13
7 0 5 -11 7 -24 5 -21 -4 -24 -10 -22 -44 0 -21 5 -39 11 -39 21 0 -15 -22
-49 -30 -31 -7 -38 -5 -43 8 -4 10 -13 21 -20 25 -7 5 -11 13 -7 19 4 6 -2 6
-15 -1 -11 -7 -21 -16 -21 -21 0 -6 -6 -10 -14 -10 -27 0 -76 -35 -71 -50 6
-23 -30 -60 -59 -60 -14 0 -26 -4 -26 -10 0 -5 -17 -27 -37 -48 -65 -68 -67
-71 -54 -98 14 -32 14 -34 -3 -34 -7 0 -19 -7 -26 -15 -7 -9 -19 -14 -27 -11
-7 3 -13 1 -13 -5 0 -6 -9 -5 -22 3 -13 7 -27 12 -33 13 -5 0 -18 5 -28 11
-18 10 -18 12 -1 47 11 22 25 37 35 37 15 0 18 9 19 53 2 109 11 167 27 167
11 0 13 5 8 18 -4 9 -10 40 -13 67 -3 33 -13 60 -30 80 -17 20 -20 31 -11 34
7 2 -3 12 -22 22 -19 10 -28 18 -21 19 6 0 12 10 12 23 0 27 -28 70 -41 62 -5
-4 -18 -3 -29 0 -15 5 -19 12 -15 28 4 17 -1 25 -22 35 -36 16 -43 15 -43 -4
0 -14 -3 -14 -16 -3 -13 10 -17 10 -25 -2 -7 -11 -9 -10 -10 6 -4 62 -11 82
-39 109 -24 25 -30 27 -30 13 0 -11 -5 -15 -11 -11 -6 3 -4 -4 4 -17 18 -29
29 -100 18 -118 -10 -16 -37 -1 -65 36 -15 21 -17 30 -8 44 10 15 8 20 -8 29
-18 9 -20 8 -20 -15 0 -14 11 -47 23 -73 19 -37 22 -54 16 -82 -7 -29 -5 -38
11 -52 24 -20 26 -48 4 -48 -12 0 -15 -6 -10 -24 3 -14 9 -76 12 -138 4 -62
13 -128 20 -147 14 -33 13 -35 -15 -60 -23 -21 -28 -32 -24 -61 2 -19 3 -45 3
-57 0 -12 8 -27 18 -32 15 -9 14 -10 -5 -11 -30 0 -31 -41 -3 -77 18 -23 30
-76 13 -60 -4 4 -18 -3 -32 -16 -38 -35 -85 -49 -119 -35 -15 6 -35 13 -45 15
-10 1 -28 10 -41 18 -12 8 -25 13 -28 10 -2 -3 -13 4 -23 15 -10 11 -25 20
-34 20 -9 0 -30 9 -48 19 l-31 20 -17 -25 c-9 -14 -19 -24 -21 -21 -4 4 -10
35 -13 70 -1 4 -9 7 -19 7 -22 0 -47 37 -29 43 6 2 -3 9 -21 15 -21 7 -32 7
-32 1 0 -6 -4 -7 -10 -4 -5 3 -7 0 -4 -8 3 -8 -6 -27 -21 -41 -21 -21 -30 -24
-46 -16 -15 8 -19 7 -19 -4 0 -7 -11 -17 -25 -20 -20 -5 -25 -13 -25 -36 0
-16 -4 -31 -9 -34 -5 -3 -12 -21 -15 -40 -4 -23 -14 -37 -27 -41 -11 -4 -31
-24 -45 -46 -13 -21 -31 -39 -40 -39 -8 0 -12 -4 -9 -10 9 -14 -25 -46 -57
-54 -42 -10 -98 -66 -98 -98 0 -17 -8 -31 -20 -38 -13 -7 -20 -21 -20 -41 0
-33 -27 -49 -80 -49 -19 0 -31 -6 -35 -19 -4 -14 -19 -20 -68 -25 -45 -4 -67
-11 -79 -26 -9 -11 -22 -20 -30 -20 -7 0 -19 -10 -27 -21 -12 -20 -19 -21 -74
-15 -33 3 -62 8 -65 11 -3 2 3 16 12 29 21 33 20 52 -4 76 -11 11 -19 23 -19
27 3 20 -3 22 -29 9 -26 -13 -30 -13 -42 5 -8 10 -23 19 -33 19 -10 0 -27 5
-38 10 -13 8 -19 7 -19 0 0 -15 -25 -7 -26 8 -1 7 -2 22 -3 33 -1 18 -6 20
-28 16 -36 -7 -75 12 -68 33 7 21 -43 50 -85 50 -23 0 -31 4 -27 14 4 9 0 12
-12 9 -11 -3 -21 4 -29 22 -7 15 -10 30 -8 33 2 4 -6 19 -18 35 -20 25 -28 27
-102 30 -44 2 -85 7 -92 11 -7 4 -23 1 -37 -8 -13 -9 -33 -16 -44 -16 -11 0
-23 -5 -26 -11 -4 -6 -13 -8 -20 -5 -15 5 -17 -4 -16 -71 0 -24 -6 -46 -14
-53 -8 -7 -15 -19 -15 -27 0 -8 -8 -13 -17 -11 -29 4 -46 -11 -32 -29 11 -12
9 -13 -14 -8 -21 6 -27 4 -27 -9 0 -12 -9 -16 -34 -16 -42 0 -51 12 -47 63 5
73 -68 170 -99 132 -9 -11 -17 -12 -30 -5 -10 6 -27 10 -38 10 -10 0 -24 11
-30 24 -8 17 -22 26 -52 31 -34 6 -40 10 -35 26 4 13 -6 31 -33 60 l-39 42
-22 -22 c-12 -12 -29 -20 -36 -17 -17 6 -30 -10 -15 -19 6 -4 8 -11 4 -16 -3
-6 -1 -23 5 -40 6 -16 16 -43 22 -59 7 -17 24 -37 40 -45 38 -20 75 -73 60
-88 -18 -18 -13 -25 19 -32 30 -7 34 -13 31 -47 -2 -11 4 -18 14 -18 9 0 15
-6 13 -12 -4 -25 13 -55 37 -66 31 -14 44 -46 38 -92 -4 -33 -3 -34 11 -16 11
14 19 16 28 8 19 -16 99 -41 112 -36 16 6 66 -40 66 -61 0 -10 10 -15 31 -15
28 0 31 -3 25 -24 -5 -20 -1 -25 20 -30 15 -4 32 -2 40 5 7 6 19 9 26 6 7 -2
21 2 30 11 13 10 21 12 30 4 16 -12 68 -13 68 -1 0 5 11 9 24 9 35 0 93 40
105 73 9 26 13 27 46 21 25 -4 42 -1 60 10 13 9 33 16 45 16 11 0 25 9 32 20
16 25 24 25 71 1 20 -10 37 -15 37 -10 0 5 11 9 25 9 14 0 25 5 25 12 0 6 11
1 24 -11 30 -28 123 -41 138 -19 7 10 11 10 22 -5 8 -10 20 -15 29 -11 10 3
20 -2 27 -15 8 -16 8 -21 -1 -21 -8 0 -10 -15 -5 -50 4 -32 3 -50 -4 -50 -5 0
-10 -11 -10 -25 0 -18 7 -26 24 -31 14 -3 27 -12 30 -19 4 -10 20 -13 61 -10
43 4 57 1 61 -10 8 -20 24 -19 39 2 12 16 14 16 41 -2 38 -24 95 -37 111 -23
7 5 42 11 77 12 36 1 69 5 72 9 4 4 7 23 6 43 -1 36 -1 36 18 19 12 -11 20
-31 20 -51 0 -36 23 -51 60 -39 11 3 20 3 20 -2 0 -4 4 -14 8 -21 10 -15 71 3
89 27 9 13 14 14 24 4 7 -7 19 -13 26 -13 7 0 11 6 8 13 -2 6 10 23 27 36 26
21 33 23 51 12 17 -11 19 -11 13 4 -5 15 -4 16 9 5 18 -15 21 -13 30 23 5 19
3 27 -6 27 -8 0 -19 15 -25 33 -6 17 -14 40 -19 50 -6 14 -2 17 19 17 23 0 26
4 26 35 0 26 -3 33 -15 29 -11 -5 -14 0 -13 19 1 14 7 23 12 20 5 -4 22 -7 37
-8 27 -2 28 -1 22 40 -3 26 -1 45 5 49 6 4 9 13 5 22 -3 8 2 21 11 27 15 11
16 17 5 40 -8 19 -15 24 -20 15 -6 -9 -11 -9 -22 0 -12 10 -18 10 -30 -3 -19
-19 -27 -19 -27 0 0 23 38 37 81 30 45 -8 104 8 135 37 14 13 24 16 29 9 9
-16 25 -13 25 4 0 20 24 19 44 -1 9 -8 16 -11 16 -5 0 6 7 11 15 11 8 0 24 9
35 20 19 19 23 19 56 5 30 -13 36 -13 40 0 4 10 14 13 32 8 25 -6 25 -5 19 41
-4 25 -3 46 2 46 4 0 27 18 51 40 29 26 50 38 61 35 9 -3 21 0 25 6 9 15 25
87 25 113 0 13 3 16 11 8 6 -6 21 -7 40 -1 17 4 33 8 37 7 20 -2 30 4 36 22
10 31 42 24 79 -16 31 -34 34 -35 45 -18 11 19 11 19 26 0 13 -18 15 -18 15
-3 0 15 3 16 23 6 12 -6 30 -21 39 -33 10 -12 18 -15 18 -8 0 9 7 9 31 -3 23
-12 34 -13 44 -5 7 6 25 8 39 4 22 -5 26 -3 26 15 0 18 3 20 19 11 11 -5 35
-10 53 -10 19 0 43 -7 54 -15 10 -8 28 -15 38 -15 11 0 39 -12 63 -26 33 -19
42 -30 38 -43 -8 -27 13 -38 92 -44 l71 -6 -5 55 c-4 34 -2 54 4 54 6 0 14 17
18 38 7 34 8 35 16 14 5 -12 6 -29 3 -37 -5 -12 2 -15 30 -15 26 0 39 -5 44
-17 5 -14 20 -18 58 -19 47 -1 51 1 61 27 8 19 18 29 32 29 12 0 21 5 21 11 0
5 10 3 22 -5 32 -23 51 -21 43 4 -5 15 -2 20 13 20 11 0 24 6 31 13 13 16 10
76 -3 74 -6 -1 -11 5 -13 14 -3 10 7 21 27 29 16 7 30 16 30 21 0 5 8 9 19 9
10 0 24 7 31 15 9 10 24 13 56 8 30 -4 44 -2 44 6 0 6 9 11 19 11 11 0 26 9
34 20 8 12 21 18 29 15 9 -4 18 1 21 10 5 11 14 14 34 9 16 -4 32 -11 37 -15
6 -5 27 -9 48 -9 29 0 36 3 32 15 -5 11 1 15 19 15 15 0 26 7 29 18 4 15 13
17 42 14 31 -4 36 -1 36 17 0 15 6 21 21 21 15 0 19 4 15 16 -3 9 -6 17 -6 20
0 2 -6 1 -14 -2 -19 -7 -31 33 -16 51 8 10 8 14 -1 17 -9 3 -9 9 0 26 7 13 9
37 6 55 -5 24 -2 37 9 46 9 8 16 19 16 27 0 7 9 16 21 19 14 5 18 12 13 23
-11 27 -8 58 12 101 18 38 30 46 62 42 20 -3 42 19 35 35 -3 8 6 26 21 41 14
14 26 34 26 44 0 11 9 27 19 36 11 9 18 20 15 24 -8 14 43 59 68 59 22 0 29 9
48 60 12 33 20 67 16 75 -4 10 3 19 19 27 14 6 25 17 25 24 0 30 -103 26 -120
-6 -8 -15 -16 -16 -71 -7 -52 9 -63 8 -70 -5 -12 -22 -49 -12 -76 21 -17 21
-25 24 -40 15 -29 -17 -103 2 -103 27 0 17 -20 23 -67 18 -4 0 -10 8 -14 18
-7 17 -8 17 -9 -2z m-2454 -1384 c21 -16 22 -20 8 -25 -26 -10 -54 3 -54 25 0
24 15 24 46 0z m24 -65 c0 -3 -4 -8 -10 -11 -5 -3 -10 -1 -10 4 0 6 5 11 10
11 6 0 10 -2 10 -4z m-5 -156 c3 -5 1 -10 -4 -10 -6 0 -11 5 -11 10 0 6 2 10
4 10 3 0 8 -4 11 -10z m-81 -156 c14 -36 -9 -51 -43 -27 -21 14 -21 16 -4 29
24 18 40 17 47 -2z"/>
<path d="M11138 10763 c7 -3 16 -2 19 1 4 3 -2 6 -13 5 -11 0 -14 -3 -6 -6z"/>
<path d="M9765 10740 c3 -5 8 -10 11 -10 2 0 4 5 4 10 0 6 -5 10 -11 10 -5 0
-7 -4 -4 -10z"/>
<path d="M9780 10712 c0 -4 4 -22 9 -40 8 -25 7 -34 -3 -38 -17 -7 -8 -54 11
-54 9 0 12 6 8 19 -3 12 0 21 10 25 16 6 21 53 7 72 -9 13 -42 26 -42 16z"/>
<path d="M13516 10681 c-10 -11 -16 -24 -13 -29 3 -4 -1 -28 -9 -51 -8 -24
-12 -46 -8 -50 4 -3 9 0 11 7 3 7 11 19 19 26 8 8 14 21 14 30 0 8 5 27 12 41
16 35 -2 53 -26 26z"/>
<path d="M9486 10575 c3 -6 -4 -20 -16 -30 -11 -10 -20 -30 -20 -45 0 -24 6
-30 49 -44 64 -21 97 -20 105 1 5 12 9 14 18 5 19 -19 58 -15 59 6 0 11 5 7
14 -13 9 -20 14 -24 15 -12 0 15 4 16 20 7 14 -8 25 -7 40 2 26 16 26 55 0 88
-20 25 -20 25 -35 5 -30 -42 -37 -46 -58 -39 -12 4 -30 8 -40 9 -10 1 -30 16
-44 33 -13 18 -29 30 -34 27 -5 -4 -15 -3 -21 2 -19 12 -56 10 -52 -2z"/>
<path d="M12970 10109 c-11 -25 -17 -29 -37 -25 -13 4 -23 2 -23 -4 0 -5 -7
-10 -16 -10 -9 0 -29 -14 -45 -31 -23 -25 -31 -28 -48 -20 -14 8 -22 8 -26 0
-4 -5 -19 -7 -35 -4 -20 4 -29 2 -34 -11 -3 -9 -13 -14 -20 -11 -9 4 -18 -4
-25 -23 l-10 -29 42 3 c30 3 47 11 63 31 19 24 23 26 44 13 18 -10 24 -10 27
0 7 19 53 15 54 -5 0 -10 7 -2 15 18 14 33 18 35 55 33 22 -1 42 -4 46 -7 8
-9 31 16 26 29 -2 6 3 17 12 24 19 16 20 30 1 30 -7 0 -19 7 -26 15 -18 22
-26 19 -40 -16z"/>
<path d="M14465 10101 c-3 -5 -26 -8 -51 -7 -39 2 -48 -1 -68 -25 -16 -18 -27
-24 -33 -18 -7 7 -14 0 -21 -20 -13 -37 -33 -47 -61 -32 -17 10 -26 5 -65 -34
-25 -25 -42 -45 -38 -45 5 0 14 6 21 13 11 10 13 9 8 -4 -3 -9 -1 -22 3 -29
11 -18 -10 -49 -28 -43 -12 5 -12 3 -2 -14 11 -18 8 -25 -33 -66 -25 -26 -51
-47 -57 -47 -6 0 -8 -5 -3 -12 10 -17 15 -38 15 -65 0 -13 4 -23 8 -23 5 0 15
-3 24 -6 24 -9 32 41 10 63 -15 16 -16 18 -2 21 9 2 19 14 22 28 4 13 11 24
17 24 16 0 33 21 58 73 19 40 27 47 52 47 16 0 29 5 29 10 0 6 9 10 20 10 11
0 20 5 20 11 0 5 13 15 30 20 16 6 27 15 24 20 -3 5 0 9 6 9 7 0 10 6 7 14 -3
8 7 27 23 43 16 15 30 34 30 42 0 11 3 11 15 1 19 -15 37 -2 42 30 3 20 -11
28 -22 11z"/>
<path d="M13675 9970 c3 -5 0 -18 -7 -29 -9 -15 -9 -23 1 -35 9 -11 10 -20 1
-35 -12 -24 -14 -25 -41 -10 -11 6 -18 17 -15 24 2 7 -1 20 -7 30 -10 12 -22
15 -54 9 -46 -7 -45 -4 -5 -65 61 -92 76 -109 86 -99 5 5 18 10 28 10 11 0 15
5 12 14 -3 7 2 16 11 20 9 3 13 11 10 17 -4 6 3 18 15 26 22 15 23 33 5 76 -5
12 -2 17 10 17 9 0 13 5 10 10 -4 6 -10 8 -15 5 -4 -3 -10 2 -14 10 -3 8 -13
15 -21 15 -9 0 -14 -4 -10 -10z"/>
<path d="M9310 9680 c0 -5 5 -10 11 -10 5 0 7 5 4 10 -3 6 -8 10 -11 10 -2 0
-4 -4 -4 -10z"/>
<path d="M6360 9525 c0 -8 -7 -15 -15 -15 -8 0 -15 -7 -15 -16 0 -8 -4 -13 -8
-10 -5 3 -9 0 -9 -7 0 -7 -3 -22 -7 -34 -6 -18 -4 -22 8 -17 9 3 16 17 16 30
0 22 4 24 43 24 l42 1 -22 18 c-27 23 -30 33 -6 24 11 -4 14 -3 9 5 -10 17
-36 15 -36 -3z"/>
<path d="M6900 9206 c0 -2 7 -7 16 -10 8 -3 12 -2 9 4 -6 10 -25 14 -25 6z"/>
<path d="M6681 8974 c0 -11 3 -14 6 -6 3 7 2 16 -1 19 -3 4 -6 -2 -5 -13z"/>
<path d="M8855 8740 c-3 -5 -12 -7 -20 -3 -10 3 -15 -1 -15 -11 0 -9 7 -19 15
-22 8 -4 15 -13 15 -20 0 -14 38 -34 66 -34 12 0 13 4 3 22 l-12 21 37 -21
c21 -12 46 -22 56 -22 11 0 32 -16 47 -35 15 -19 34 -35 42 -35 22 0 61 -49
61 -76 0 -24 23 -34 35 -14 4 6 15 8 26 5 14 -5 19 -2 19 14 0 30 -21 71 -37
71 -8 0 -11 5 -8 10 3 6 2 10 -3 10 -5 0 -16 21 -24 48 -14 43 -18 47 -49 50
-24 2 -38 10 -44 25 -8 17 -16 21 -40 17 -46 -7 -107 -6 -137 3 -15 4 -29 3
-33 -3z"/>
<path d="M9247 8503 c-13 -13 -7 -31 12 -36 23 -6 35 15 18 32 -13 13 -21 14
-30 4z"/>
</g>
</svg>
