<?xml version="1.0" standalone="no"?>
<!DOCTYPE svg PUBLIC "-//W3C//DTD SVG 20010904//EN"
 "http://www.w3.org/TR/2001/REC-SVG-20010904/DTD/svg10.dtd">
<svg version="1.0" xmlns="http://www.w3.org/2000/svg"
 width="565.431065pt" height="747.814076pt" viewBox="0 0 565.431065 747.814076"
 preserveAspectRatio="xMidYMid meet">
<metadata>
Created by potrace 1.15, written by Peter Selinger 2001-2017
</metadata>
<g transform="translate(-766.568935,1427.579479) scale(0.100000,-0.100000)"
fill="#222222" stroke="none">
<path d="M11466 14273 c-4 -4 -18 -8 -29 -8 -15 0 -23 -7 -25 -21 -3 -18 1
-20 28 -16 31 4 45 21 38 42 -2 6 -7 8 -12 3z"/>
<path d="M11350 14155 c0 -7 -20 -15 -51 -19 -50 -7 -51 -8 -44 -34 3 -15 9
-42 12 -59 6 -40 23 -34 23 8 0 24 6 33 29 42 16 7 39 24 50 39 21 26 21 26 1
31 -12 3 -20 0 -20 -8z"/>
<path d="M11200 13964 c0 -20 17 -26 24 -8 8 21 8 21 -9 21 -8 0 -15 -6 -15
-13z"/>
<path d="M11145 13950 c-3 -5 -1 -10 4 -10 6 0 11 5 11 10 0 6 -2 10 -4 10 -3
0 -8 -4 -11 -10z"/>
<path d="M11105 13920 c-3 -5 1 -10 9 -10 9 0 16 5 16 10 0 6 -4 10 -9 10 -6
0 -13 -4 -16 -10z"/>
<path d="M10948 13902 l-38 -3 0 -55 c0 -47 -2 -54 -20 -54 -11 0 -20 -7 -20
-15 0 -15 -19 -19 -72 -15 -32 2 -67 -33 -94 -92 -17 -38 -69 -68 -119 -68
-13 0 -34 -4 -47 -9 -13 -5 -27 -9 -31 -9 -5 0 -14 -7 -20 -15 -7 -8 -25 -18
-42 -22 -16 -3 -42 -18 -56 -32 -18 -16 -29 -21 -34 -14 -4 8 -12 5 -23 -9
-13 -14 -32 -20 -72 -22 -53 -3 -80 -15 -80 -37 0 -6 -10 -11 -21 -11 -12 0
-30 -9 -39 -21 l-18 -20 -7 21 c-13 42 -112 79 -130 50 -4 -6 -11 -8 -16 -4
-18 11 -65 -7 -74 -29 -6 -13 -22 -24 -40 -28 -52 -10 -76 -21 -72 -33 3 -6
-2 -26 -9 -45 -8 -18 -14 -50 -14 -70 0 -42 -13 -67 -29 -57 -7 5 -11 -2 -11
-19 0 -18 -6 -29 -20 -32 -25 -7 -29 -70 -5 -79 17 -7 20 -49 5 -59 -5 -3 -10
-22 -10 -42 0 -32 -2 -35 -25 -31 -14 3 -25 2 -25 -2 0 -4 -9 -10 -20 -13 -12
-3 -20 -14 -20 -25 0 -11 -7 -22 -15 -26 -8 -3 -15 -12 -15 -20 0 -11 -13 -14
-61 -11 -34 3 -64 7 -67 9 -10 11 -62 -29 -57 -43 3 -7 -2 -19 -12 -26 -15
-12 -31 -11 -101 0 -14 2 -25 -2 -29 -11 -3 -8 -18 -14 -34 -14 -16 0 -29 -5
-29 -11 0 -15 -46 -3 -87 22 -18 12 -30 26 -27 33 7 18 -61 60 -82 52 -13 -5
-15 -2 -11 15 4 13 -3 38 -16 61 l-22 39 27 23 c23 21 26 29 21 66 -5 36 -3
41 12 38 37 -6 25 25 -26 74 -30 28 -49 48 -44 45 11 -6 12 40 1 65 -4 9 -14
19 -22 22 -10 4 -12 2 -8 -6 5 -8 2 -9 -9 -5 -11 4 -17 1 -17 -8 0 -18 -1 -18
-34 -5 -23 8 -26 7 -26 -11 0 -14 5 -19 14 -16 7 3 24 0 38 -7 13 -7 29 -11
35 -9 7 3 9 -11 5 -43 -4 -38 -2 -48 13 -56 14 -8 15 -12 4 -19 -24 -15 -39
-10 -39 12 0 12 -8 23 -20 26 -11 3 -20 9 -20 14 0 5 -7 9 -15 9 -9 0 -12 6
-9 15 8 21 -22 83 -44 89 -9 3 -44 4 -76 2 -32 -3 -68 1 -80 6 -12 6 -27 14
-35 18 -8 3 -17 12 -19 20 -3 7 0 10 7 6 19 -12 12 10 -9 29 -11 10 -17 22
-14 26 7 12 -5 49 -16 49 -5 0 -7 -9 -5 -19 3 -15 -4 -21 -27 -26 -23 -6 -27
-9 -17 -17 11 -7 10 -8 -5 -6 -10 2 -30 19 -44 38 -15 19 -22 32 -18 28 13
-11 36 11 36 35 0 11 8 26 18 33 16 11 14 13 -13 24 -19 7 -31 8 -33 1 -2 -6
-12 -7 -27 -1 -19 7 -26 5 -39 -15 -16 -24 -20 -25 -86 -19 -61 5 -69 4 -64
-10 4 -9 0 -18 -9 -22 -18 -7 -60 13 -52 25 2 5 -13 20 -35 35 -24 16 -37 31
-34 40 3 8 0 17 -6 21 -8 5 -8 10 0 20 6 7 7 21 3 32 -7 19 -11 17 -38 -18
-16 -21 -38 -41 -48 -44 -10 -4 -17 -12 -14 -18 2 -7 -4 -20 -14 -29 -16 -15
-18 -15 -24 0 -6 14 -8 13 -16 -7 -8 -20 -14 -23 -42 -18 -17 3 -40 8 -49 12
-12 5 -18 2 -18 -8 0 -8 -13 -20 -29 -25 -24 -9 -28 -15 -24 -34 4 -13 11 -26
16 -29 5 -4 6 -12 2 -18 -8 -15 -36 4 -32 22 1 7 -12 13 -30 13 -29 2 -32 0
-22 -17 5 -11 7 -24 4 -29 -3 -6 -1 -10 4 -10 6 0 11 -7 11 -15 0 -7 8 -19 18
-24 16 -10 16 -12 0 -25 -24 -18 -23 -52 2 -59 11 -3 20 0 20 6 0 6 10 1 22
-11 26 -26 15 -44 -27 -44 -23 0 -24 -2 -12 -17 23 -25 48 -81 42 -90 -2 -5 1
-11 9 -14 21 -8 30 -132 11 -160 -21 -31 -20 -37 27 -113 26 -44 42 -83 44
-107 1 -20 8 -45 15 -54 10 -12 11 -17 2 -20 -7 -2 -9 -11 -6 -19 7 -18 43
-18 43 0 0 22 31 28 57 10 23 -15 25 -15 19 3 -8 27 9 50 27 35 8 -7 21 -10
29 -7 8 3 23 -3 33 -15 12 -13 31 -20 57 -20 25 0 41 -5 44 -15 4 -8 11 -15
16 -15 10 0 78 -51 110 -82 31 -31 46 -72 44 -125 -1 -29 2 -53 7 -53 5 0 6
-7 3 -16 -3 -8 3 -32 13 -52 16 -32 18 -45 9 -90 -6 -30 -16 -52 -23 -52 -8 0
-11 -8 -8 -19 3 -11 10 -18 17 -15 15 6 60 -41 53 -53 -3 -5 0 -27 8 -49 18
-50 18 -80 1 -96 -12 -11 -12 -15 0 -29 8 -9 16 -32 17 -50 2 -29 -2 -35 -21
-37 -19 -3 -21 -6 -11 -18 15 -18 5 -18 -31 1 -29 15 -29 15 -46 -20 -15 -33
-17 -34 -42 -21 -24 13 -27 12 -37 -8 -7 -13 -20 -21 -35 -20 -28 1 -39 -11
-74 -79 l-25 -49 34 -52 c25 -39 31 -56 23 -64 -13 -13 6 -42 27 -42 7 0 15
-9 18 -21 6 -22 27 -17 27 6 0 11 8 13 29 9 22 -5 32 -1 44 16 14 21 16 21 47
5 29 -15 33 -15 63 2 55 32 70 36 65 15 -4 -13 3 -22 23 -31 35 -15 45 -48 31
-103 -12 -47 -5 -64 35 -79 27 -10 46 -50 30 -61 -7 -4 -15 -2 -19 5 -6 9 -8
8 -8 -2 0 -7 -6 -11 -14 -8 -8 3 -16 1 -18 -5 -3 -7 -15 -8 -34 -4 l-29 8 22
15 c18 12 21 19 12 34 -5 11 -15 17 -20 13 -6 -3 -26 8 -44 26 -20 20 -40 30
-49 27 -9 -4 -17 1 -21 14 -9 26 -45 25 -45 -1 0 -11 -6 -20 -14 -20 -12 0
-12 -6 -3 -35 8 -26 7 -39 -1 -47 -8 -8 -5 -17 13 -34 30 -28 32 -57 5 -84
-12 -12 -18 -25 -15 -30 4 -6 2 -10 -3 -10 -14 0 -53 -70 -46 -81 9 -15 -58
-39 -74 -27 -14 12 -9 -6 15 -51 10 -21 10 -27 -7 -38 -17 -12 -18 -24 -14
-113 4 -90 2 -100 -15 -110 -11 -5 -31 -10 -45 -10 -33 0 -40 -14 -19 -36 17
-16 18 -16 21 -1 2 9 8 17 13 17 6 0 5 -9 -2 -21 -6 -13 -17 -19 -28 -16 -15
4 -18 -2 -18 -34 0 -22 4 -39 10 -39 6 0 20 -9 31 -19 14 -13 39 -20 75 -23
50 -3 55 -1 60 20 l6 23 29 -30 c16 -17 32 -28 36 -26 4 2 14 -12 23 -31 16
-32 19 -34 33 -19 9 8 13 22 10 30 -3 8 1 21 9 29 8 7 11 16 8 19 -3 4 11 3
31 0 24 -4 36 -2 36 6 0 8 5 8 20 -1 16 -11 23 -9 40 10 11 12 31 22 44 22 21
0 24 -5 23 -35 -1 -19 4 -40 10 -46 16 -16 49 5 57 35 4 17 11 23 21 20 8 -4
15 -1 15 5 0 21 37 32 66 19 25 -12 29 -10 65 31 27 30 44 41 55 37 9 -4 23
-1 30 5 26 22 114 21 151 -1 19 -11 41 -20 49 -20 8 0 14 -4 14 -9 0 -5 12
-11 28 -14 15 -3 38 -9 51 -13 17 -5 22 -4 17 4 -5 8 0 12 12 12 25 0 49 26
30 33 -7 2 -9 8 -5 13 5 5 15 1 22 -10 8 -10 18 -15 23 -12 6 3 12 0 15 -6 3
-9 10 -8 26 6 12 11 19 26 17 33 -3 7 -1 13 5 13 5 0 7 11 3 25 -5 20 -3 24
10 19 9 -4 24 4 39 20 13 14 27 23 31 19 4 -4 29 -9 55 -11 l49 -3 -2 40 c-2
46 3 50 29 21 10 -12 24 -19 31 -16 14 5 75 -21 85 -37 4 -5 23 -7 42 -3 20 4
38 2 42 -3 3 -6 18 -8 34 -5 15 3 43 0 62 -8 40 -16 79 -4 79 24 0 22 -2 22
45 -2 49 -25 62 -25 70 0 5 15 12 19 25 15 16 -5 20 1 26 40 5 39 10 46 25 42
15 -4 19 0 19 18 0 15 8 26 21 30 15 5 18 10 10 18 -6 6 -11 22 -11 36 0 37
19 13 23 -29 3 -23 10 -36 22 -38 10 -3 15 -10 12 -21 -2 -9 2 -22 10 -29 9
-9 13 -9 13 -1 0 6 7 8 16 5 11 -4 14 -1 9 13 -4 13 5 31 29 57 l34 37 -2 -57
c-1 -34 3 -64 11 -76 7 -10 10 -25 7 -34 -3 -9 -1 -16 5 -16 6 0 3 -17 -8 -42
-33 -74 -43 -121 -33 -148 5 -14 8 -55 6 -91 -1 -37 1 -80 5 -95 10 -35 -15
-95 -35 -87 -18 7 -18 -17 0 -42 7 -11 17 -35 21 -52 5 -26 3 -33 -9 -33 -20
0 -24 -36 -10 -88 7 -23 10 -52 6 -65 -6 -25 -47 -79 -54 -71 -3 2 -11 -2 -18
-11 -11 -13 -10 -19 6 -36 11 -12 17 -30 16 -41 -2 -12 1 -24 6 -27 21 -13 18
-61 -3 -61 -19 0 -20 -16 -1 -27 19 -11 38 -81 23 -86 -18 -6 11 -37 34 -37
15 0 17 -4 10 -22 -21 -57 -21 -75 -1 -98 26 -30 36 -68 22 -82 -7 -7 0 -25
24 -60 19 -28 34 -53 35 -57 0 -3 2 -13 5 -21 16 -62 16 -74 0 -86 -13 -9 -16
-20 -11 -42 3 -17 2 -33 -4 -36 -6 -4 -8 -13 -4 -22 3 -8 -5 -24 -20 -37 -17
-14 -28 -37 -33 -64 -4 -24 -11 -43 -16 -43 -5 0 -6 -5 -2 -12 5 -8 -2 -9 -25
-5 -33 7 -36 5 -87 -60 -14 -18 -35 -33 -46 -33 -17 0 -18 -3 -8 -15 10 -12 9
-16 -4 -21 -9 -4 -16 -17 -15 -33 0 -14 3 -21 5 -14 3 7 12 9 19 7 16 -7 64
26 65 43 0 14 96 36 165 38 58 2 85 12 85 31 0 8 10 14 25 14 14 0 25 4 25 8
0 12 118 132 130 132 5 0 10 11 10 24 0 13 6 29 14 35 8 7 17 27 20 45 3 18
20 45 36 61 17 16 30 33 30 38 0 6 16 24 35 41 l35 31 2 102 3 102 40 -4 c22
-2 55 -2 73 2 27 4 33 9 29 24 -3 11 -1 19 3 19 13 0 40 -30 40 -43 0 -8 3 -8
9 1 7 11 10 10 15 -3 7 -19 -9 -45 -46 -75 -17 -13 -29 -16 -33 -10 -4 6 -10
8 -14 6 -13 -8 -6 -43 13 -61 16 -17 16 -18 -2 -35 -11 -10 -29 -20 -40 -22
-15 -2 -19 -7 -13 -17 7 -10 13 -11 29 -2 18 9 23 8 31 -8 10 -17 7 -19 -37
-17 -36 1 -46 -2 -44 -13 2 -8 -3 -18 -9 -22 -7 -4 -14 -20 -15 -36 -1 -15 -5
-36 -9 -45 -5 -13 -2 -18 9 -18 9 0 16 4 16 9 0 5 9 7 20 4 15 -4 20 0 20 14
0 15 12 22 50 32 28 7 50 16 50 21 0 4 21 6 48 5 26 -1 56 2 67 8 18 9 16 13
-25 48 -43 37 -44 39 -19 39 29 0 39 15 39 57 0 21 2 23 15 13 8 -7 12 -17 9
-22 -3 -5 -3 -20 0 -32 4 -18 11 -22 30 -19 29 6 44 -13 17 -22 -12 -4 -18
-12 -14 -21 3 -8 -1 -14 -9 -14 -10 0 -14 -11 -14 -35 1 -19 5 -35 10 -35 4 0
6 -6 3 -14 -11 -28 25 -26 66 4 23 16 51 30 63 30 35 0 74 -21 74 -40 0 -15
20 -28 40 -27 3 1 26 -12 52 -27 26 -15 58 -28 71 -30 22 -2 66 -37 68 -53 0
-5 13 -18 29 -31 l29 -23 7 26 6 26 25 -23 c19 -18 24 -31 21 -59 -3 -33 0
-38 27 -48 16 -6 41 -27 55 -47 13 -20 34 -41 47 -47 17 -8 23 -18 23 -44 0
-18 4 -33 10 -33 5 0 18 -10 29 -21 18 -19 18 -24 5 -44 -11 -17 -12 -29 -4
-49 5 -15 7 -38 4 -51 -3 -13 0 -41 6 -61 13 -37 12 -38 -26 -71 -23 -19 -50
-33 -66 -33 -22 0 -31 -7 -43 -36 -11 -28 -12 -40 -4 -50 9 -11 8 -14 -5 -14
-13 0 -14 -5 -6 -26 6 -14 8 -29 5 -34 -3 -4 2 -13 10 -20 12 -10 10 -18 -11
-55 -13 -24 -21 -50 -18 -59 5 -12 -1 -14 -33 -9 -21 3 -41 10 -44 15 -3 5
-14 -9 -24 -31 -10 -22 -25 -47 -34 -55 -28 -26 -124 -35 -205 -20 -39 8 -73
14 -75 14 -2 0 3 -8 11 -17 8 -10 18 -26 22 -36 3 -11 15 -21 26 -24 24 -6 26
-28 5 -37 -8 -3 -15 -12 -15 -21 0 -8 -7 -15 -16 -15 -8 0 -12 -5 -8 -11 3 -6
3 -14 -2 -18 -18 -12 -34 -51 -34 -80 0 -26 -5 -31 -42 -43 -37 -13 -43 -19
-46 -46 -2 -19 -11 -36 -23 -42 -22 -12 -26 -48 -5 -56 8 -3 16 -18 19 -33 3
-16 20 -58 36 -95 17 -37 31 -77 31 -90 0 -14 6 -27 13 -30 9 -4 9 -7 0 -12
-8 -3 -9 -15 -3 -34 5 -18 4 -41 -3 -60 -9 -24 -8 -35 5 -58 20 -34 13 -72
-13 -72 -15 0 -19 -7 -19 -39 0 -53 23 -72 51 -43 11 12 24 22 29 22 5 0 41
21 80 47 l70 47 0 48 c0 45 2 48 25 48 14 0 28 -6 31 -14 5 -12 11 -13 30 -4
13 6 24 16 24 21 0 5 13 7 30 3 22 -4 32 -1 36 9 4 8 12 15 19 15 7 0 15 7 19
15 3 8 14 15 24 15 10 0 23 5 29 11 19 19 71 21 105 2 44 -23 89 -23 111 2 13
14 20 16 23 8 3 -7 13 -13 21 -13 29 0 83 -71 83 -109 0 -17 -6 -21 -29 -21
-29 0 -29 0 -15 -28 7 -16 23 -37 34 -47 11 -10 20 -29 20 -42 0 -12 5 -23 11
-23 8 0 9 -4 0 -13 -8 -11 -5 -16 14 -25 14 -6 25 -16 25 -22 0 -5 11 -10 24
-10 14 0 27 -4 31 -9 3 -5 18 -8 33 -6 15 2 33 4 40 4 9 1 10 6 3 19 -7 13 -6
23 2 32 10 12 9 12 -5 1 -9 -7 -23 -9 -29 -5 -8 5 -9 3 -4 -5 6 -10 3 -11 -13
-2 -31 16 -35 29 -14 42 16 10 17 16 8 45 -6 19 -20 37 -30 40 -20 6 -20 7 0
21 10 8 18 23 16 33 -2 11 1 35 7 55 10 36 1 55 -31 68 -9 4 -10 8 -2 14 16
12 23 48 12 67 -12 21 25 66 54 66 10 0 18 6 18 14 0 8 9 18 20 21 25 8 27 62
5 105 -14 26 -14 30 -1 30 8 0 17 -4 20 -9 3 -5 23 -11 43 -13 29 -4 42 0 56
15 21 24 21 22 0 58 -15 24 -15 34 -6 60 7 18 9 39 4 48 -13 28 -5 86 12 85
12 -1 13 4 5 28 -6 16 -8 38 -5 50 4 13 -2 31 -14 46 -14 19 -16 28 -8 38 13
16 17 97 6 138 l-8 29 40 -6 c23 -3 41 -2 41 2 0 4 10 7 21 7 16 -1 25 8 33
32 6 18 15 30 19 26 4 -4 7 -4 7 1 0 4 -18 26 -41 48 -37 38 -40 43 -34 81 4
23 13 46 20 51 19 15 6 66 -21 88 -35 27 -20 63 20 51 17 -6 18 -2 13 35 -4
36 -3 40 12 32 12 -7 30 -1 65 22 43 28 47 35 42 60 -5 25 -3 28 12 22 29 -11
37 -11 35 3 -2 6 3 12 10 12 19 0 43 32 39 53 -3 14 4 17 47 17 50 0 51 1 51
30 0 23 5 30 19 30 14 0 21 10 25 35 4 19 11 35 16 35 23 0 -7 33 -42 47 -27
11 -45 26 -54 47 -7 17 -13 24 -14 16 0 -11 -3 -11 -12 -2 -14 14 -20 62 -7
62 5 0 9 5 9 10 0 6 -11 10 -25 10 -18 0 -25 -5 -25 -20 0 -25 -15 -25 -42 0
-15 14 -24 16 -29 9 -4 -6 -12 -8 -18 -5 -7 5 -11 -2 -11 -17 0 -17 -7 -27
-22 -31 -32 -8 -38 -7 -38 5 0 6 7 8 18 4 14 -5 15 -4 5 6 -21 21 -38 -3 -22
-32 7 -13 16 -37 20 -54 4 -16 11 -40 14 -52 6 -19 4 -23 -16 -23 -23 0 -64
-19 -44 -20 14 -1 -37 -29 -53 -30 -7 0 -17 11 -22 25 -10 27 -46 34 -78 14
-12 -7 -25 -7 -45 0 -26 10 -28 15 -25 58 2 49 -13 91 -39 106 -9 6 -14 23
-13 50 3 65 -9 103 -36 116 -13 6 -24 14 -23 18 4 24 -4 24 -30 -1 -28 -27
-30 -27 -60 -12 -17 9 -30 20 -30 24 3 20 -2 33 -11 27 -6 -3 -13 1 -16 9 -6
17 -33 20 -71 10 -16 -4 -23 -14 -23 -31 0 -17 -5 -24 -17 -22 -10 1 -29 1
-42 0 -19 -1 -22 -4 -13 -13 19 -19 -35 -46 -82 -40 -50 6 -78 36 -73 77 3 16
1 37 -3 45 -34 68 -34 68 -14 106 19 35 19 36 -1 50 -11 8 -29 13 -41 10 -16
-4 -24 1 -32 20 -16 35 -15 40 14 69 21 21 25 33 22 68 -3 42 -3 42 32 42 44
0 61 19 46 51 -8 17 -20 24 -41 25 -151 3 -138 -3 -176 84 -7 17 -15 33 -17
38 -2 4 6 7 18 7 16 0 20 4 16 16 -3 9 -6 20 -6 25 0 5 -6 9 -14 9 -7 0 -16
13 -19 28 -4 18 -16 33 -32 40 -17 8 -25 18 -21 27 3 8 -1 18 -7 22 -13 8 -57
75 -57 87 0 3 20 6 44 6 38 0 43 3 39 18 -3 12 4 22 21 30 14 6 26 19 26 28 0
19 -39 53 -61 54 -26 0 -44 29 -40 67 1 19 -2 39 -7 46 -11 14 -4 87 9 87 5 0
9 7 9 16 0 9 5 12 11 8 9 -5 10 1 5 20 -5 22 -3 26 14 26 12 0 24 -9 30 -22 5
-13 9 -18 9 -11 1 17 84 10 115 -10 27 -18 56 -13 56 9 0 8 6 11 16 7 13 -5
15 -2 10 14 -6 18 -1 22 41 29 26 4 59 7 72 5 14 -1 39 6 57 15 32 17 34 17
54 -1 17 -16 25 -17 40 -7 31 19 32 -28 1 -54 -18 -15 -22 -26 -17 -40 7 -18
9 -17 17 6 6 13 11 26 13 28 5 5 61 -51 61 -61 0 -5 11 -16 24 -26 13 -10 31
-32 40 -49 48 -90 63 -111 81 -117 11 -3 20 -10 20 -15 0 -4 12 -10 28 -13 15
-3 51 -11 81 -17 43 -9 56 -9 63 2 7 10 10 10 18 -4 6 -10 17 -15 25 -11 11 4
13 1 9 -11 -3 -9 -10 -16 -15 -16 -5 0 -9 -7 -9 -16 0 -11 5 -14 16 -10 9 3
24 0 35 -8 16 -11 26 -11 56 -1 37 13 63 10 63 -6 0 -5 7 -9 15 -9 8 0 15 8
15 19 0 25 26 47 33 29 3 -8 6 -6 6 6 1 15 4 16 15 7 10 -9 20 -9 33 -2 10 5
25 9 33 9 48 -3 60 2 60 27 0 16 -11 35 -26 49 -23 19 -25 25 -15 44 14 26 27
28 39 6 8 -14 10 -14 24 -1 8 8 30 39 48 67 28 44 32 55 22 71 -7 10 -12 28
-12 38 0 11 -4 23 -10 26 -5 3 -10 15 -10 26 0 22 -10 25 -28 7 -9 -9 -13 -7
-18 8 -3 10 -10 29 -16 41 -6 11 -7 26 -4 32 4 6 -8 20 -28 32 -44 26 -45 33
-6 27 29 -4 29 -3 16 16 -7 12 -21 21 -30 21 -9 0 -16 5 -17 10 0 6 -12 26
-27 45 -14 19 -31 55 -38 80 -8 34 -16 46 -33 48 -11 2 -21 7 -21 12 0 12 -69
44 -77 37 -18 -18 -83 67 -83 109 0 8 -20 34 -44 57 l-45 42 10 55 c6 30 16
65 23 78 11 21 9 27 -16 54 -27 29 -29 30 -54 13 -19 -12 -29 -14 -39 -5 -10
8 -15 8 -20 0 -5 -8 -10 -8 -20 0 -7 6 -24 13 -36 15 -48 9 -78 27 -89 53 -6
15 -28 38 -50 51 -38 24 -59 69 -38 82 6 4 0 15 -13 28 -24 23 -44 27 -54 11
-6 -10 -54 -4 -98 12 -23 9 -31 8 -38 -3 -16 -26 -44 30 -44 88 0 43 -5 57
-28 81 -16 16 -33 47 -38 68 -6 22 -14 54 -19 73 -9 34 -23 55 -41 57 -5 1
-18 2 -29 3 -27 1 -38 46 -16 70 15 17 14 20 -9 55 -14 20 -25 42 -25 47 0 15
-26 39 -43 39 -8 0 -20 7 -27 15 -17 21 -74 29 -130 18 -28 -6 -55 -6 -64 -1
-12 7 -16 4 -16 -11 0 -14 -5 -18 -20 -14 -12 3 -22 -1 -26 -11 -3 -9 -10 -13
-15 -10 -5 3 -9 1 -9 -3 0 -15 -38 -12 -51 3 -16 20 -56 17 -94 -6 -24 -15
-53 -21 -109 -23 -58 -1 -77 -6 -81 -17 -5 -16 -53 -18 -87 -5 -13 5 -18 2
-18 -9 0 -20 -3 -20 -42 4 -41 25 -44 25 -51 -1 -4 -16 -10 -20 -24 -14 -10 4
-37 10 -60 12 -24 3 -43 11 -43 17 0 14 -51 46 -73 46 -18 0 -30 30 -22 51 3
8 -8 40 -23 73 -24 47 -27 62 -19 81 6 12 18 21 27 20 21 -2 70 -27 70 -36 0
-4 16 -3 36 3 38 10 54 1 54 -31 0 -11 3 -12 11 -4 8 8 8 17 -1 32 -9 17 -8
22 5 27 9 4 15 14 14 23 -2 9 1 26 5 38 10 32 -11 139 -40 195 -27 54 -28 54
61 33 37 -9 61 -11 63 -5 2 6 12 10 23 10 11 0 19 7 19 16 0 28 28 47 62 40
31 -6 31 -6 13 14 -17 19 -17 20 -1 20 13 0 16 5 11 20 -5 16 -3 19 12 13 16
-6 16 -5 4 10 -9 12 -17 14 -26 7 -15 -12 -26 -3 -18 16 3 8 19 14 37 15 57 2
71 11 74 49 1 19 10 57 18 83 9 26 13 58 10 70 -4 19 2 26 42 45 26 12 53 22
60 22 13 0 37 47 33 64 -9 38 -9 131 0 142 6 7 8 26 4 43 -3 16 -2 38 4 49 7
13 6 34 -3 68 -7 27 -11 54 -9 61 2 6 -6 17 -18 23 -12 7 -19 8 -15 2 8 -13
-33 -23 -53 -13 -9 5 -22 6 -29 4 -20 -7 -62 25 -62 47 0 17 5 19 26 14 23 -6
25 -4 23 17 -1 13 2 37 6 53 6 23 4 32 -12 45 -26 20 -48 65 -57 115 -6 31 -4
42 14 61 19 21 20 24 5 32 -8 5 -19 20 -23 34 -6 21 -12 24 -44 21z m-2569
-488 c3 -16 1 -17 -13 -5 -19 16 -21 34 -3 29 6 -3 14 -13 16 -24z m379 -254
c13 0 14 -2 3 -12 -10 -11 -16 -8 -32 11 -10 13 -19 28 -19 34 0 6 7 1 16 -11
8 -12 23 -22 32 -22z m-390 -2745 c-26 -25 -49 -17 -41 15 6 22 32 31 51 17
10 -8 8 -15 -10 -32z m3072 -45 c0 -5 -7 -7 -15 -4 -8 4 -15 8 -15 10 0 2 7 4
15 4 8 0 15 -4 15 -10z m1310 -270 c0 -5 -2 -10 -4 -10 -3 0 -8 5 -11 10 -3 6
-1 10 4 10 6 0 11 -4 11 -10z m-1509 -732 c21 -24 29 -42 29 -71 0 -21 5 -48
11 -59 8 -16 8 -22 -2 -29 -9 -5 -19 2 -30 21 -10 15 -23 30 -31 33 -9 4 -7 6
5 6 21 1 22 27 2 47 -8 9 -15 24 -15 35 0 10 -7 19 -15 19 -26 0 -16 22 13 29
2 1 16 -14 33 -31z"/>
<path d="M11078 13893 c-10 -2 -18 -12 -18 -20 0 -14 3 -14 20 2 17 15 26 28
18 24 -2 -1 -11 -3 -20 -6z"/>
<path d="M8555 13678 c-10 -26 -33 -29 -81 -13 -56 19 -68 19 -61 1 4 -10 1
-13 -9 -9 -8 3 -14 -1 -14 -11 0 -9 -4 -16 -10 -16 -5 0 -8 -19 -7 -42 3 -38
6 -43 30 -46 15 -2 27 -8 27 -13 0 -5 12 -9 26 -9 14 0 34 -4 44 -10 13 -7 21
-6 30 5 6 7 18 11 26 8 19 -7 44 15 38 32 -3 7 3 16 15 20 14 4 21 15 21 31 0
20 -5 24 -30 24 -30 0 -41 14 -17 23 9 3 7 9 -5 23 -15 16 -18 16 -23 2z"/>
<path d="M8900 13309 c0 -11 5 -17 10 -14 6 3 10 13 10 21 0 8 -4 14 -10 14
-5 0 -10 -9 -10 -21z"/>
<path d="M7795 12600 c-3 -5 0 -10 9 -10 8 0 23 -3 33 -7 17 -6 17 -6 1 10
-19 19 -34 22 -43 7z"/>
<path d="M10716 12162 c-3 -5 -26 -8 -50 -7 -30 1 -47 -3 -50 -12 -3 -7 -1
-13 5 -13 6 0 7 -4 4 -10 -3 -5 1 -10 9 -10 15 0 21 -12 17 -34 -1 -5 5 -3 14
4 14 11 14 15 1 29 -14 15 -13 18 5 29 15 10 24 10 34 2 9 -8 14 -6 19 6 7 19
1 31 -8 16z"/>
<path d="M8440 10384 c0 -9 7 -14 17 -12 25 5 28 28 4 28 -12 0 -21 -6 -21
-16z"/>
<path d="M11541 10351 c-21 -16 -22 -19 -6 -34 9 -9 23 -17 30 -17 8 0 18 -8
24 -17 5 -10 13 -14 18 -9 4 5 2 11 -4 13 -7 3 -13 14 -13 26 0 12 -6 29 -13
39 -12 15 -15 15 -36 -1z"/>
<path d="M8440 10330 c0 -5 9 -14 20 -20 23 -12 26 -5 6 16 -17 16 -26 18 -26
4z"/>
<path d="M8445 10291 c-3 -5 -1 -12 5 -16 5 -3 10 1 10 9 0 18 -6 21 -15 7z"/>
<path d="M12800 9083 c0 -5 11 -20 25 -33 14 -13 25 -19 25 -13 0 5 -11 20
-25 33 -14 13 -25 19 -25 13z"/>
<path d="M10871 9041 c-12 -22 -5 -27 19 -11 11 7 12 12 3 21 -8 8 -14 6 -22
-10z"/>
<path d="M10870 8992 c0 -7 -9 -12 -20 -12 -11 0 -20 -4 -20 -10 0 -17 37 -11
44 6 4 9 4 19 1 22 -3 3 -5 0 -5 -6z"/>
<path d="M13230 8810 c0 -11 -6 -23 -14 -26 -8 -3 -12 -12 -9 -20 4 -11 7 -11
19 1 8 7 14 18 14 23 0 5 7 9 15 10 8 1 22 3 30 4 21 2 6 14 -27 22 -24 5 -28
3 -28 -14z"/>
<path d="M12645 8810 c-3 -5 -1 -10 4 -10 6 0 11 5 11 10 0 6 -2 10 -4 10 -3
0 -8 -4 -11 -10z"/>
<path d="M13020 8769 c5 -17 5 -40 1 -52 -14 -39 9 -73 38 -58 9 5 23 6 31 4
11 -3 11 -2 3 4 -7 5 -10 18 -7 30 4 15 11 19 26 15 19 -5 19 -3 -3 22 -13 16
-41 36 -61 47 l-37 19 9 -31z"/>
<path d="M13304 8775 c4 -24 16 -30 16 -7 0 12 -4 22 -9 22 -5 0 -8 -7 -7 -15z"/>
<path d="M13125 8690 c-3 -5 3 -10 14 -10 12 0 21 5 21 10 0 6 -6 10 -14 10
-8 0 -18 -4 -21 -10z"/>
<path d="M10130 8575 c-13 -14 -32 -25 -42 -25 -10 0 -18 -4 -18 -9 0 -5 -18
-32 -40 -60 -49 -61 -53 -100 -13 -118 35 -17 43 -16 43 2 0 10 11 13 43 11
23 -2 50 -6 59 -10 18 -8 98 30 98 46 0 4 3 8 8 7 4 -1 17 2 29 6 18 6 20 11
13 31 -7 17 -6 23 2 21 7 -1 14 6 16 15 2 13 -1 16 -11 12 -9 -3 -24 -1 -35 5
-13 7 -22 7 -30 -1 -15 -15 -38 4 -63 54 -11 21 -23 38 -27 38 -5 0 -19 -11
-32 -25z"/>
<path d="M9955 8360 c-3 -5 1 -10 10 -10 9 0 13 5 10 10 -3 6 -8 10 -10 10 -2
0 -7 -4 -10 -10z"/>
<path d="M9907 8343 c-15 -2 -25 -9 -22 -14 4 -5 1 -9 -4 -9 -27 0 -7 -18 24
-22 33 -4 35 -2 35 24 0 15 -1 27 -2 27 -2 -1 -15 -4 -31 -6z"/>
<path d="M9840 8300 c0 -5 -6 -10 -12 -10 -8 0 -13 -13 -14 -30 -1 -17 -12
-42 -24 -55 -23 -25 -23 -25 -2 -25 11 0 24 5 27 10 4 6 11 8 16 4 5 -3 7 -10
4 -15 -4 -5 -2 -9 3 -9 16 0 22 13 11 27 -8 9 -8 17 -2 26 17 20 20 62 6 75
-8 8 -13 9 -13 2z"/>
<path d="M9768 8125 c-8 -8 3 -55 13 -55 5 0 6 12 3 28 -8 32 -9 34 -16 27z"/>
<path d="M9751 8016 c-11 -13 -10 -17 3 -22 22 -8 30 1 19 21 -9 15 -11 15
-22 1z"/>
<path d="M9731 7934 c0 -11 3 -14 6 -6 3 7 2 16 -1 19 -3 4 -6 -2 -5 -13z"/>
<path d="M9695 7850 c-3 -5 -2 -10 4 -10 5 0 13 5 16 10 3 6 2 10 -4 10 -5 0
-13 -4 -16 -10z"/>
<path d="M9599 7800 c-9 -5 -19 -20 -23 -33 -4 -16 -19 -29 -46 -40 -36 -14
-40 -18 -31 -35 6 -11 31 -29 55 -41 50 -23 71 -51 75 -96 0 -8 11 -15 23 -15
29 0 88 -22 88 -33 0 -4 -4 -5 -10 -2 -5 3 -10 2 -10 -4 0 -18 19 -22 39 -9
17 10 24 9 48 -12 15 -14 22 -18 16 -10 -18 20 -16 27 7 33 24 6 26 35 5 63
-8 10 -15 32 -15 47 0 54 -13 64 -78 61 -48 -2 -63 1 -86 20 -24 18 -27 26
-19 42 14 26 9 68 -8 71 -8 2 -21 -2 -30 -7z"/>
<path d="M9820 7666 c0 -9 5 -16 10 -16 6 0 10 4 10 9 0 6 -4 13 -10 16 -5 3
-10 -1 -10 -9z"/>
<path d="M11330 6846 c0 -8 -8 -19 -17 -25 -13 -7 -15 -13 -8 -20 8 -8 16 -2
28 18 11 19 14 32 7 36 -5 3 -10 -1 -10 -9z"/>
</g>
</svg>
