<svg version="1" xmlns="http://www.w3.org/2000/svg" width="904.889" height="1208.515" viewBox="0 0 678.667 906.386"><g fill="#222"><path d="M251 1.586c0 1 .5 2.4 1.1 3 1.3 1.3.4 4.7-1 3.9-1.7-1.1-3.3 2.3-3.4 7.3-.1 2.7-.5 4.7-.8 4.5-1.4-.8-7.8 2.6-7.3 3.9.6 1.6-3.1 5.1-4.5 4.3-.6-.4-2.1-.1-3.3.6-1.3.7-2.9 1.1-3.5 1-.7-.2-1.3.6-1.3 1.6s-1.1 2.4-2.5 3c-1.5.7-2.5.8-2.5.2 0-.6-.6-1-1.2-1-.7-.1-3.1-.9-5.3-2-3.9-1.8-4-1.8-6.1.1-1.1 1-2.7 1.9-3.5 1.9-1 .1-.9.5.5 1.5 1.9 1.5 1.9 1.5-.2 3.8-2.8 2.9-2.8 4.2.1 6.2 1.2.8 2.2 1.9 2.2 2.3.1.4.8 2 1.6 3.7.9 1.6 1.5 3.9 1.4 5-.1 1.1-.2 3.5-.3 5.2-.1 2.2-.7 3.3-1.7 3.3-.9 0-1.9.8-2.2 1.7-.9 2.6-3.9 6.3-4.6 5.7-1.1-1.2-4.7 2.1-4.1 3.8.3 1 0 1.8-.6 1.8s-.9.4-.6.9c.3.5-.1 1.1-.9 1.5-.8.3-1.5 1.5-1.5 2.6 0 2-.4 2.1-7.6 1.7-7.2-.3-7.7-.2-8.7 2-.5 1.3-3 3.4-5.4 4.8-3.6 2.2-4.2 3-3.7 4.9.5 2 .1 2.4-2.2 2.9-1.6.3-3.8.1-5-.3-1.7-.7-2.9-.1-5.8 2.7-2 1.9-3.6 4.3-3.6 5.3 0 .9-.9 2.9-2 4.3-2.5 3.1-2.5 3.7 0 3.7 2.1 0 4.5 3.4 3.4 5.1-.3.6-1.1.8-1.8.6-3-1.2-5.4 16.6-3 21.5.8 1.5 1.4 3.8 1.4 5.1 0 1.4 1.8 5.2 4 8.5s4 6.5 4 7.1c0 .7.4 1 .9.7.5-.3 1.2 1.1 1.6 3.2.4 2 1 4.1 1.4 4.7.4.5 1.2 2.2 1.8 3.6 1 2.3.8 3-.8 4.8-1.8 1.9-1.9 2.5-.7 5.1.7 1.7 1.6 3 2 3 .5 0 .8.8.8 1.8 0 .9.9 2.3 2.1 3 1.2.8 1.8 1.9 1.5 2.8-.3.8-.1 1.4.5 1.4s.9.7.5 1.5c-.8 2.2 3.5 2.9 7.7 1.2l3.6-1.5 1.4 3.6c.8 2 1.2 3.9.8 4.2-1.7 1.2-3.3 8.8-2.3 10.7.7 1.2.8 3.3.2 5.6-.4 2-.5 3.7-.1 3.7.3.1-.5.7-1.9 1.5-2.5 1.4-2.4 1.4 1.8 1.5 3.5 0 4.2-.3 4.2-2 0-1.1.3-1.9.8-1.8.4.1 1.7-.2 3-.6 1.4-.5 2.8-.3 3.7.4 1.7 1.4 2 7 .5 7-2.5 0-.7 3.1 2.6 4.5l3.6 1.5-.7 5.2c-.9 6.8-1.1 7-4.6 6.3-2.5-.6-2.9-.4-2.9 1.5 0 1.4-.4 1.9-1.2 1.5-.7-.4-.4 0 .7.9 7.7 5.8 9.4 7.3 10.4 9.3.5 1.2 1.9 2.4 2.9 2.8 3 .9 3.4 3.2 1 4.9-1.8 1.3-2 1.9-1 4 1.3 2.8.5 6.6-1.3 6.6-2 0-2.8 3.5-2 9.2.7 4.6.9 5 3.2 4.5 1.7-.3 2.8.2 3.7 1.7 1.1 1.7 1.4 6.5.6 8.6-.1.3-.1 1.5 0 2.7.1 1.3-.4 2.3-1 2.3-.7 0-1 .8-.7 2 .4 1.4 0 2-1.2 2-2 0-4.1 3.9-4.1 7.5 0 1.6-.6 2.5-1.5 2.5-1 0-1.5 1-1.5 2.7 0 1.6-.4 3.5-1 4.3-.5.9-.5 1.9.2 2.7.7.9.7 1.7-.1 2.7-.7.8-.8 1.7-.3 2 .5.3 1.2 2 1.6 3.7.5 2.5.1 3.9-1.8 6.4-1.3 1.7-3.1 4.8-4 6.8-.8 2-2.7 4.9-4.3 6.3l-2.8 2.5 2.4 1.8 2.4 1.8-1.8 5.7c-1.6 5.1-2 5.6-4.6 5.6-1.6 0-2.9.4-2.9 1 0 .5.5 1 1 1 1.9 0 4.7 3.4 5.2 6.2.6 3.2-.6 3.7-2.4.9-.6-1-1.6-1.7-2.2-1.6-.6.2-4.4.6-8.4.9l-7.3.5-.6-2.9c-.9-4.7-2.8-5.6-4.3-2-.8 2-2 3-3.3 3-1.1 0-3.1 1-4.4 2.2-1.2 1.2-3.1 2.2-4 2.3-1 .1-3.1.7-4.6 1.4-1.6.6-3.5 1.1-4.3 1.1-.9 0-3 1.1-4.7 2.4-1.8 1.3-4.5 2.6-6.2 2.8l-3 .3 4.3 4.6c2.3 2.6 4.2 5.6 4.2 6.9 0 1.2.8 3.4 1.9 4.8 1 1.5 2.4 3.8 3.1 5.1 1 2 1 2.3-.1 1.9-1.9-.7-1.9 5.3 0 7.6.8 1 .9 1.6.3 1.6-.6 0-.9.7-.6 1.5.4 1.1.2 1.3-.9.9-1.2-.4-1.4-.1-1 1.5.4 1.7.1 2.1-1.6 2.1-1.9 0-2 .3-1 2.2.6 1.3 1.9 3.1 2.7 4.1 1.1 1.2 1.5 3.4 1.3 6.7-.2 4.5 0 5.1 2.2 5.9 1.3.5 2.7 1.7 3 2.5.4.9 1.5 1.6 2.5 1.6s3.3.7 5.1 1.6c3 1.5 3.1 1.7 1.6 3.4-1.8 2-1.3 3.6 1.7 5.8 1 .7 1.8 1.9 1.8 2.6 0 .7 1.8 1.9 4.1 2.6 4.1 1.4 6.9 4.5 4.8 5.2-1.6.5-.1 4.8 1.6 4.8 2.3 0 6.5 2.2 6.5 3.5 0 .7.9 2 2 3s2 2.6 2 3.6.5 2.1 1 2.4c.6.3 1 1.3 1 2.2 0 .8 1.8 3.5 4 6.1 2.4 2.6 3.8 5.2 3.5 6.1-.6 2 1 4.6 2.3 3.7.6-.3 2.7.5 4.8 1.9 2 1.4 4.3 2.5 5.1 2.5.7 0 1.9 1.1 2.5 2.5.6 1.4 1.9 2.5 2.7 2.5 1.9 0 5.7 5.8 5.3 8.1-.2.9.4 2.2 1.3 2.9.8.7 1.5 2.1 1.5 3 0 1 1.6 2.8 3.5 4 1.9 1.2 3.5 2.6 3.5 3.1 0 1.7 8.4 9.5 11.7 10.8 1.7.7 3.6 2.5 4.2 3.9 1 2.4 1.6 2.7 5.5 2.4 3.5-.3 4.8.1 6.4 1.8 1.1 1.2 2.5 1.9 3.1 1.5 1.6-.9 1.3.4-.4 2.1-.8.9-1.5 2.7-1.5 4.2 0 5.1-1.1 7-5.1 8.7-2.5 1.2-3.9 2.5-3.9 3.6 0 1.2-1.5 2.6-4 3.9-4.4 2.3-4.5 2.3-2.9 5.2.9 1.7.8 2.4-.3 3.2-2.4 1.9-5.9 8.8-5.3 10.6.3.9-.1 2.3-.9 2.9-.8.7-1.8 3.7-2.2 6.7-.4 3.8-1.1 5.4-2.1 5.4-1.3 0-1.3.3-.3 1.5s.9 1.5-.4 1.5c-.9 0-1.9.7-2.2 1.5-.4.8-1.7 1.5-3 1.5-1.8 0-2.2.4-1.7 1.6.4 1-.1 2.2-1.1 3-1.6 1.2-1.6 1.4.8 2.9 2.9 1.9 2.5 4-.6 3.2-1.5-.4-1.8-.1-1.6 1.6.3 1.9-.1 2.2-3.2 1.9-3.3-.2-3.8.2-6.4 4.3-2.7 4.2-3.2 4.5-6.1 3.9-2.5-.4-3.8 0-6.4 2.1-2.4 2.1-2.9 3-2.1 4 1.2 1.4.3 6.5-1.1 6.5-.4 0-1.3-.8-1.8-1.8-1-1.6-1-1.6-1.1.1 0 1-.6 1.7-1.2 1.6-2.7-.3-3.8.2-3.8 1.7 0 1-.5 1.4-1.6 1-.9-.3-1.2-.2-.9.4.4.6 2.3 1 4.3.9 3.8-.3 8.2 1.4 8.2 3.2 0 .5 1 1.4 2.3 2 1.2.5 3.2 1.6 4.5 2.3 2.2 1.3 2.2 1.3.2 3.1-2.4 2.2-2.7 7.5-.5 7.5.8 0 1.5.4 1.5.8 0 .5 1.4 1.9 3.1 3.1 2.3 1.7 3.4 2 4.2 1.2 1.3-1.3 4.7-1.5 4.7-.3 0 1 9.9 6.2 11.8 6.2.7 0 1.5.7 1.8 1.5.4.8 1 1.2 1.5.9.5-.3.9.4.9 1.5s.5 2.3 1 2.6c.6.3 1 0 1-.7 0-1 .3-.9.9.2.6.8.7 1.8.5 2.2-.3.4.4.8 1.4.8 1.4 0 2 .7 2 2.5 0 3.4 2.1 5.9 3.7 4.5 1-.8 2.3.1 5.1 3.3 2.2 2.4 5.3 5.1 7 6 2.8 1.5 3.1 1.4 4.3-.5 1-1.6 1.9-1.9 4.2-1.4 2.1.4 3.1.1 3.6-.9.5-1.3.7-1.3 1.9.2.8 1.1 1.3 1.3 1.4.5 0-.6.7-1.2 1.5-1.2s1.7-1.1 2.1-2.5c.7-3 1.1-3 3.6-.8 1.5 1.4 2.1 1.5 2.7.4.6-.9 1.1-1 1.5-.2.4.6 2.2 1.1 3.9 1.1 3.5 0 6.8 2.3 8.6 5.7 1.3 2.5 7.5 5.8 9 4.9.5-.4 2.1.5 3.4 1.8 1.4 1.4 3.7 2.8 5.1 3.2 1.4.3 2.6 1 2.6 1.4 0 .4 1.8 1 4.1 1.4 4.4.7 8.6 3 10.7 5.8.7 1 2.2 1.8 3.3 1.8 2.7 0 4.3 3.8 3 7.3-.6 1.5-1.7 2.7-2.5 2.7-1 0-1.3.6-1 1.5.5 1.1.2 1.3-1 .9-1.2-.5-2 .2-2.9 2.5-.6 1.7-1.4 3.1-1.8 3.1-.3 0-.3 2 .2 4.5 1.3 6.9-.3 13.3-4 16.2-1.7 1.4-3.1 3.3-3.1 4.4 0 1.1-.7 1.9-1.6 1.9-1.3 0-1.2.5.5 2.9 1.2 1.6 2.1 3.3 2.1 3.9 0 .5.9 2.1 2.1 3.6 1.1 1.4 2.2 4.5 2.4 6.8.3 2.4.7 5.5 1.1 7 .6 2.7.5 2.8-3.7 2.9-2.4 0-3.8.3-3.1.6.6.2 1.2 1.3 1.2 2.3 0 2.4 1.3 3.2 5.6 3.2 2.8 0 3.7.5 4.9 2.9.8 1.5 1.5 3.7 1.5 4.8 0 1.1.9 2.2 2 2.6 1.1.3 2 1.3 2 2.1s.7 1.4 1.5 1.4 1.5.6 1.5 1.3c0 .7 1.2 2.5 2.6 4 2.3 2.5 2.4 3.1 1.4 6.2-.7 2.2-.8 4-.2 5.1.8 1.5 1 1.5 1.5 0 .4-1 1.8-1.6 3.6-1.6 2.2 0 3-.5 3.5-2.5.4-1.4 1.1-2.5 1.6-2.5.6 0 1-.7 1-1.7 0-1.5.1-1.5 1.8 0 2.2 2 3.9 2.3 2.4.4-.7-.7-.9-2.9-.6-4.9.4-2.1.2-3.8-.5-4.2-1.7-1.1-1.3-2.5.7-2.1.9.2 2.5.4 3.5.4 1.1.1 3.1 1.4 4.7 3.1 2.2 2.3 2.7 3.7 2.4 6.7-.2 3 .2 4.2 2.1 5.5 2.7 2 2.6 2.1 4-5 1.5-7.3 9.4-9.7 14.2-4.3l2.5 2.8 2.4-2.4c1.3-1.3 2.4-3 2.4-3.8 0-.8 1.1-1.7 2.5-2.1 1.9-.5 2.5-1.3 2.5-3.3 0-2.3.6-3 4-4.1 3.2-1 4-1.8 4-3.7 0-1.3.6-2.3 1.4-2.3.8 0 1.5-1.6 1.9-4.1.6-4.5 4-8.9 6.9-8.9 1.2 0 1.8-.7 1.8-2.4 0-1.3.4-2.6 1-2.8.6-.2.6-1.8 0-4.3-1.6-6.7-1.3-8.5 1.3-8.5 2.9 0 5.2-6.5 3.7-10.5-.6-1.5-.7-3.2-.3-3.8 1.4-2.2.2-7.2-2.3-9.8-1.9-2-2.6-3.8-2.7-7.5-.1-2.7-.6-5.5-1-6.2-.5-.8-.3-1.2.8-1.2.9 0 1.3-.5.9-1.1-.3-.6-1.5-.8-2.7-.5-1.1.3-2.9 0-4.1-.6-1.5-.8-2.1-.8-2.4.1-.7 2-2.4 1.2-6.3-3-2.1-2.3-4.2-3.8-4.7-3.5-.5.3-1.5-.1-2.2-.9-.7-.8-1.8-1.5-2.6-1.5-.7 0-1.4-1-1.6-2.2-.2-1.4-1.4-2.5-3.8-3.3-4.1-1.3-6.7-5.7-7.5-12.5-.6-4.8-2.7-7.2-5.3-6.3-1.5.6-1.4.3.1-1.5 1.1-1.1 1.6-2.5 1.3-3-.3-.5.3-1.7 1.4-2.7 1.1-1 2-2.9 2-4.3 0-1.9.4-2.3 2-1.9 1 .3 3.6-.1 5.7-.8 4.5-1.6 4.9-1.4 5.6 2.3.4 1.9 1.2 2.8 2.6 2.8 1.4 0 1.7-.4 1.1-1-1.5-1.5-1.2-2.9.4-2.3 1.4.6 9.6-6.2 9.6-7.9 0-.6.6-2.2 1.3-3.7.9-2.1 1.7-2.6 3.3-2.2 1.4.3 2.4-.1 2.8-1.1.4-.9 1.3-1.4 2.1-1 1 .4 1.5-.1 1.5-1.4 0-1.3.7-2 1.9-2 1 0 2.2-.7 2.5-1.5.3-.9 1.6-1.5 2.8-1.4 5 .4 5.9 0 4.8-2-1.4-2.6-.2-5.1 2.4-5.1 4.1 0 9.2-2.6 13.4-6.9 4.4-4.5 5-5.9 3.1-7.8-1.3-1.3 1.4-2.4 6.2-2.5 1.7-.1 3.3-.6 3.5-1.3.3-.6 2-1.2 3.8-1.3 2.7-.1 3.5.4 4.5 2.5l1.2 2.6 2-2.2c2.6-2.7 5.2-2.4 5.4.7.1 1.9-.2 2.2-1.8 1.8-1.7-.4-1.7-.3-.4 1.2.9.9 1.7 2.1 1.9 2.7.4 1.2 3.2.7 3.6-.6.2-.5 1.7-.2 3.3.7 1.7.8 3.6 1.3 4.2 1.1.7-.2 2.9.9 5.1 2.5 4.5 3.3 5.3 3.4 5.8 1.1.2-1.3 1.3-.3 3.9 3.2 2 2.8 4.2 6.3 5 7.9 1.3 2.8 1.8 3 8.6 3.4 4.5.2 8-.1 9.5-.9 1.2-.7 4.9-1.3 8.2-1.4 4.7-.1 6.3.3 8.5 2 1.9 1.6 3.2 2 4.6 1.4 1.1-.4 4.6-.5 7.8-.2 5.6.6 5.7.5 5.7-2.1 0-1.9.5-2.6 2-2.6 1.1 0 2-.6 2-1.3 0-1.3 4.5-5.2 6.5-5.6.6-.1 1.4-.9 1.8-1.7.9-1.6 3.7-1.9 3.7-.4 0 .5.7.7 1.6.3 1.6-.6 5.6 1 8.6 3.5 1.4 1.1 1.8 1.1 2.6-.3.8-1.5 1.1-1.4 2.9.9 2.1 2.6 4.3 3.4 4.3 1.6 0-.6.6-1 1.4-1 .7 0 1.9-.6 2.5-1.4.6-.8 2.4-1.6 3.9-1.9 1.5-.3 3.6-.7 4.8-1 3.3-.8 8.4 3.8 8.4 7.5 0 2.9.2 3 3.1 2.4 1.7-.3 3.5-.6 4-.6s.9-.9.9-2.1c0-1.1.5-2.9 1-3.9.7-1.4.6-2.1-.4-2.7-1.5-.9-1.6-5.4-.2-6.4.5-.4-.1-1.2-1.3-1.8-2.6-1.4-2.7-3.7-.2-5.3 1.7-1 1.9-2.1 1.5-9.4-.2-4.5.1-9.5.6-11 .9-2.2.8-3.1-.2-3.9-2.1-1.6-4.8-6.3-4.8-8.3 0-1.1.7-2.5 1.5-3.2.8-.7 1.5-2.3 1.5-3.7 0-1.3 1.1-4.6 2.5-7.3s2.5-5.8 2.5-6.9c0-1.1.5-2.1 1.1-2.3.6-.2.7-1.1.3-2.2-.7-1.7-.8-1.7-1.9.3l-1.1 2.2-1.9-2.1c-1.7-1.9-1.7-2.1-.2-3.8 1-1 1.7-2.4 1.7-3 0-.7.7-1.2 1.5-1.2.9 0 1.2-.6.9-1.5-.4-.8.1-1.7 1-2.1.9-.4 1.6-1.8 1.6-3.4 0-1.6.4-3.1.9-3.5.6-.3.4-1.7-.5-3.3-.7-1.5-1.4-4.3-1.4-6.3s-.6-4.2-1.4-4.8c-.7-.6-1.3-2.3-1.3-3.8s-.5-2.9-1-3c-.6-.2-1.9-1-2.9-1.8-1.8-1.3-1.8-1.4.4-3.7 1.3-1.5 2.2-3.7 2.2-5.6 0-2 .6-3.5 1.5-3.8 1-.4 1.5-1.7 1.3-3.9-.1-2 .6-4.2 2-6 1.8-2.2 2.2-4.1 2.2-9.3 0-4.8.5-7.3 2.1-9.9 3.8-6 1.3-15.7-5.9-23.1-2.3-2.3-5.3-6.7-6.8-9.8-1.4-3-3.8-6.9-5.4-8.6-2.8-3-3.9-6.2-4.4-12.7-.2-1.9-1-3.8-2-4.3-1.3-.7-1.5-2-1.1-6 .4-5-.8-9.3-2.5-8.3-.5.3-1.1.1-1.5-.5-.3-.5.3-1 1.4-1 2.4 0 2.6-.9.8-3.4-1.3-1.8-1.5-1.8-3.5.5-1.8 1.9-2.2 2-2.2.6 0-.9-.5-1.7-1.1-1.7-.5 0-1.6-1.5-2.4-3.3-.7-1.8-2.3-4.1-3.4-5.1-2.1-1.9-2.1-1.9-2.1.9 0 2 .4 2.6 1.5 2.1 1-.4 1.7.3 2.1 2.2.3 1.5.8 3.4 1.1 4.2 1.2 3.3.8 5.9-.9 6.3-1.2.4-1.8-.1-1.8-1.3 0-2.2-2.6-4.6-3.2-2.9-.3.9-1 .9-2.8-.1-2.1-1.1-2.6-1-3.9.7-1.4 1.6-2.2 1.8-6.1 1-2.9-.6-4.5-.6-4.8.1-.5 1.5-3.2.3-3.2-1.5 0-1-.6-1.2-1.9-.8-2 .6-2.7 0-7.4-5.9-2.3-2.8-2.4-2.8-5.4-1.3-2.5 1.4-3.3 1.4-4.9.3-1.1-.8-3.3-1.2-4.9-1.1-1.7.2-3.7-.3-4.7-1.2-1.6-1.4-1.8-1.5-1.8 0 0 2.3-3.9.9-4.5-1.7-1.1-5.4-1.2-7.7-.4-8.2 1.5-.9 1-4.4-.6-4.4-.9 0-1.2-.6-.8-1.6.4-1.1-.2-2.3-1.7-3.4-2.2-1.6-2.2-1.9-.7-4 1.1-1.6 1.3-2.9.6-4.7-1.2-3.3-1.1-4.3.4-3.8.6.3 1.8.1 2.5-.4 1.2-.7 1.1-1.3-.2-3.7-.8-1.6-1.5-2.5-1.6-2 0 .5-.7.3-1.6-.5-1.3-1-1.7-1-2.4.1-.9 1.5-2.4.7-2.6-1.3-.2-2.9-3-7.7-4.5-7.7-1.8 0-4.9-3-4.9-4.8 0-1.6-1.8-2.5-5.6-2.8-1.9-.1-4.7-1.2-6.3-2.3-2.5-1.8-2.9-2.7-2.7-6.3.4-6.8-4.6-15.7-8-14.4-.7.3-1.6.1-2-.5-.6-1-1.5-9-1.6-13.9 0-3.2 1.8-15 2.7-17.2.9-2.3 7.2-4.1 9.6-2.8 2.8 1.5 6.9 1.2 6.9-.5 0-.8.6-1.5 1.4-1.5 2.2 0 4.7-4.5 3.3-5.9-.8-.8-.8-1.9.1-4.4 1.4-4 1.5-7.1.3-9.5-.5-.9-1.3-3.1-1.8-4.7-.6-2.1-1.5-3.1-3.3-3.3-1.4-.2-4.6-1.2-7.1-2.4-4-1.9-4.5-2.4-4.1-4.9.4-3-.6-3.7-2.6-1.7-.6.6-1.4.9-1.8.6-.3-.4.6-1.4 2-2.3 1.4-1 2.6-2.4 2.6-3.1 0-.8.5-1.4 1.1-1.4.6 0 .9-.6.6-1.4-.5-1.3 3.4-3.2 5.6-2.8 1.1.3.9-5.6-.3-6.3-1.4-.9-1.2-4.6.5-7.8.8-1.5 1.2-3.3.9-4-.2-.7.7-2.4 2.1-3.7 1.4-1.3 2.5-2.9 2.5-3.7 0-.7.7-1.3 1.5-1.3 2.2 0 .7-2.8-2.4-4.5-6.1-3.4-7.5-5.3-7.2-10.3.1-2.5.6-5.1 1.1-5.7.6-.7.5-1.6-.2-2.3-.8-.8-.8-1.5 0-2.5.7-.8.8-1.7.4-2.1-.4-.4.2-1.4 1.3-2.2 1.6-1.2 1.7-1.7.6-2.3-1-.7-1-1.3-.2-2.9.6-1.1 1.6-4.4 2.2-7.4.6-2.9 1.5-5.8 2-6.3 1-1.4 2.9-9.5 2-9.2-1.1.4-1.4-1.2-.7-4.3.5-2.8 2.6-4.3 2.6-2 0 .5.7 1 1.5 1 1.8 0 1.9-1.2.3-2.8-.9-.9-.7-1.2.9-1.2 3.3 0 3.8-3.4 1.1-7-1.9-2.6-2.4-2.9-3.4-1.6-.8 1.2-1.3 1.3-2.2.4-1.3-1.3-1.6-2.9-.4-2.6.4 0 1.4-.2 2.3-.6 2.2-1 1.2-5.5-1.6-7.8-1.8-1.4-2.2-2.8-2.2-8.1-.2-7.5-3-13.8-7.4-16.4-1.6-1-2.9-2.1-2.9-2.5 0-.4-.6-.8-1.3-.8-1.9 0-3.8-4.5-2.6-5.7.6-.6 1.5-4.3 2-8.3 1-6.9.9-7.4-1.5-10.9-1.4-2-2.6-4-2.6-4.4 0-.3-1.1-2.2-2.4-4.2-1.4-2-2.7-4.9-3.1-6.4-.5-2.2-1.1-2.8-2.5-2.4-1.3.4-3.4-1-7-4.6-3-3.1-6-5.1-7.3-5.1-1.5 0-2.6-1-3.6-3-2.1-5-5.6-6.7-13.8-6.9-2.6-.1-3.4-.6-3.9-2.6-.3-1.4-1.3-2.5-2-2.5-.8 0-2.8-1-4.4-2.2-2.2-1.6-3-3-3-5.1 0-4.5-4.4-9.7-8.1-9.7-1.6 0-3.2-.6-3.5-1.4-.3-.8-2-2-3.7-2.6-8.4-3.1-10.4-4.3-12.5-7.6-1.6-2.4-2.8-3.4-3.9-3-.8.4-2.2.1-2.9-.5-.8-.6-4.3-1.2-7.9-1.3-3.6 0-6.5-.4-6.5-.9 0-.4-1.3-.7-2.8-.7-1.6 0-3.7-.7-4.8-1.5-2.4-1.8-3.4-1.9-3.4-.2 0 .7-1.3 2.3-2.9 3.7-1.7 1.3-2.7 2.8-2.4 3.3.3.4-.1.8-.8.6-2.7-.3-4 .1-3.4 1.1.3.5.1 1-.5 1-.7 0-.9.8-.5 2s.2 2-.5 2c-.6 0-4.3 3.3-8.1 7.4-5.2 5.4-7.6 7.2-9 6.9-1.3-.4-1.9 0-1.9 1.1 0 .9-.6 1.6-1.2 1.6-1.6 0-2.2 7.6-.8 8.5 1.7 1 1.2 3.8-.5 3.1-.9-.3-1.8.1-2.1.9-.7 1.7-4.9 2-5.9.5-.3-.6-1.3-1-2.1-1-1.9 0-5.6-3.8-5.1-5.3 1.1-3.2-7-8.6-13-8.7-2.4 0-5.8-4.1-6.8-8.2-.7-2.6-5.5-6.8-8.3-7.2-1-.2-2.3-1.6-3-3.2-.7-1.6-1.7-3.6-2.3-4.4-.5-.8-1.4-2.7-2-4.1-1.3-3.3-5.5-5.5-7.5-3.8-1.6 1.3-1.5 1.4-2-2.5-.2-1.7-1.7-4.2-4-6.2-2.8-2.6-3.5-4-3.2-5.9.4-1.9.1-2.5-1.3-2.5-1.1 0-1.9.4-1.9 1 0 1.6-1.8 1.1-4.6-1.3-1.4-1.2-2.9-2.2-3.2-2.2-.4 0-1.2-.4-1.8-.7-.6-.4-3.1-1-5.5-1.3-2.4-.3-6.1-.8-8.1-1.1-3.3-.5-3.8-.4-3.8 1.3zm-58.3 391.5c-.3.8-.6.5-.6-.6-.1-1.1.2-1.7.5-1.3.3.3.4 1.2.1 1.9zm24.4 2.4c1.2 1.4 1.1 1.6-.5 1.3-1.1-.2-2.1-1-2.4-1.7-.5-1.7 1.3-1.5 2.9.4zm-5.9 2.8c.5.7-.1 1.2-1.4 1.4-2 .4-1.9.6 1 1.8 1.8.7 3.8 1.1 4.6.8.7-.3 1.6.2 1.9 1 .7 1.9-.2 2-3.9.6-4-1.6-7.8 1.1-7.2 5.1.3 1.7.1 3.2-.4 3.5-.5.3.1 1.3 1.3 2.3 1.5 1.2 2 2.4 1.5 3.6-.3 1-.9 1.5-1.3 1.1-.3-.3-1.5.1-2.5 1.1-1.7 1.5-1.9 1.5-3.7-.1-1.9-1.7-2-1.7-3.1.3-1.3 2.6-4.7 2.7-5.5.2-.6-2 .8-6.5 2.4-7.5.5-.4.8-2 .6-3.6-.3-2.4 0-3 1.5-3 1.1 0 2.3-.8 2.9-1.7.5-1 1.2-1.5 1.6-1.1.3.3 1.7-.4 3-1.6 1.7-1.6 2.2-2.9 1.8-4.5-.5-2.1-.3-2.2 1.8-1.6 1.3.4 2.7 1.3 3.1 1.9zm16.3 6.6c.3.5-.1 1-.9 1-.9 0-1.6-.5-1.6-1 0-.6.4-1 .9-1 .6 0 1.3.4 1.6 1zm11.5 4.1c2.3 2.3 2.9 3.7 2.4 5.3-.9 3-1.8 3.8-3.8 3-1.3-.5-1.6-1.3-1.1-3.5.4-1.8.2-2.9-.4-2.9-.6 0-.8.7-.5 1.5.5 1.1.2 1.3-1 .9-2-.8-2-1.3.1-3.6 1.6-1.8 1.6-1.8-.3-1.2-1 .4-2.2 1.2-2.6 1.8-.4.6-.9.8-1.2.5-.7-.7 3.1-4.9 4.4-4.9.4 0 2.2 1.4 4 3.1zm-45.5-.1c.3.5.2 1-.4 1-.5 0-1.3-.5-1.6-1-.3-.6-.2-1 .4-1 .5 0 1.3.4 1.6 1zm-31.1 53.3c-.9 2.4-2.3 1.1-1.7-1.4.3-1.2.9-1.7 1.5-1.1.5.5.6 1.6.2 2.5zm231 300.3c2.3.9 2 4.1-.5 4.7-2.2.6-3.5-1.3-2.5-3.8.6-1.7.8-1.7 3-.9zm-2.9 7.4c.3.5.1 1-.4 1-.6 0-1.1-.5-1.1-1 0-.6.2-1 .4-1 .3 0 .8.4 1.1 1zm-22.7 6.8c.2.7-.2 1-1.2.6-.9-.3-1.6-1.1-1.6-1.6 0-1.3 2.3-.5 2.8 1zM71.6 40.386c.3.7 2.1 2.1 4 3 2.5 1.2 3.6 2.5 4.1 4.6.3 1.6 1.2 2.9 2 2.9 2.2 0 3.7 2 5.1 6.7 1.2 3.9 1.1 4.4-.8 6.3-2.8 2.8-2.4 7.5.7 7.5 1.1 0 2.5.4 3 .9s.1.7-.9.3c-1.4-.5-1.7 0-1.5 2.4.2 2.9.2 3 1.9.9.9-1.1 2.3-1.8 3.1-1.4.8.3 1.8.1 2.1-.5.4-.6 1.3-.8 2-.5.8.3 1.7.1 2.1-.5 1.1-1.8 2.3-1.2 2.9 1.5.5 1.7 1.2 2.4 2.1 2 2.1-.8 4.5.3 4.5 2 0 .8.5 1.4 1 1.4.6 0 1 .9 1 2 0 1.3-.5 1.7-1.4 1.4-.8-.3-2.3.3-3.4 1.4-1.6 1.6-1.7 2.1-.5 3.8.7 1 1.2 2.3 1 2.8-.6 1.7 2.7 4.5 4.8 4.2 1.4-.2 2-1.1 1.9-2.7-.1-1.3.5-2.8 1.3-3.2 1.2-.7 1.2-1.2-.1-3.2-.9-1.4-1.6-4-1.6-6 0-2.6-1.1-5-4.1-9-2.3-3-4.7-5.5-5.4-5.5-.7 0-2-1.1-2.9-2.4-.8-1.4-2.8-3.1-4.3-3.8-1.6-.8-2.8-2.2-2.9-3.3-.1-3.7-2.5-9.5-4-9.5-.8 0-1.4.4-1.4 1 0 .5-1.1-.2-2.5-1.5-1.3-1.4-3.3-2.5-4.3-2.5-1.1 0-3.5-1.1-5.5-2.4-2-1.4-3.4-1.9-3.1-1.1zm36.4 48.7c0 .5-.4.8-1 .8-.5 0-1-1-1-2.3 0-1.8.2-1.9 1-.7.5.8 1 1.8 1 2.2zM114.5 100.486c2 1.5 3.7 1.4 4.2-.2.2-.5-1.2-1-3-1.1-3-.2-3.1-.1-1.2 1.3z"/><path d="M125.6 104.786c.2 3.8 1.2 5.3 2.7 4.4.8-.4.8-.2-.1.9-1 1.3-1 1.7.3 2.2 1.1.4 1.4 1.3.9 3-.3 1.3-.1 2.7.5 3 2 1.2-1.1 3.5-3.2 2.4-1-.5-2.3-.7-3-.5-.7.2-2.3-.5-3.7-1.5-2.2-1.7-2.5-1.8-2.8-.4-.4 2-3.6 2.1-5.2.1-.7-.9-1.9-1.4-2.6-1.1-1.9.7-2.8-1.2-1.3-3 1-1.2.9-1.8-.4-3.1s-2.1-1.4-3.9-.6c-4.2 2.1-9 2.1-12.5.1l-3.3-2v3.2c0 1.7.4 2.9.9 2.5 1.7-1 3.3 3.5 2.6 7.1-.3 2-.2 3.4.4 3.4.5 0 1.8 1.3 2.8 3 .9 1.6 2.3 3 3.1 3 .7 0 2.6 1 4.2 2.2 2.7 1.9 2.9 2.6 2.4 5.7-.3 2-1.3 4.1-2.1 4.8-1.3 1-1 1.7 2.1 4.7 2 1.9 5.4 4.1 7.4 4.9 3.6 1.4 3.9 1.4 9.5-1.5 3.1-1.7 5.7-3.2 5.7-3.5 0-.2-.6-.1-1.2.2-.7.4-.4-.1.6-.9 1.1-.9 2.3-1.6 2.7-1.6.4 0 1.1-.9 1.4-2 .4-1.1 1.1-1.7 1.7-1.4 1.4.9 5.7-1.6 5.2-3-.3-.7.6-1.2 2.3-1.1 2.4 0 2.7-.4 2.5-2.4-.3-1.6 0-2.1.9-1.5.9.5 1.1.2.6-.9-.4-1 .3-2.1 1.8-3.1s2.7-3 3.1-5.1c.5-3 .1-4.5-2.5-8.7-3.1-5-3.1-5-1.1-6.8 2.3-2 2.3-2 .9-5.7l-1.2-2.8-.6 2.5c-.8 2.9-4.2 3.8-6.1 1.5-.8-.9-2.9-1.5-5.6-1.5-2.3 0-4.6-.5-4.9-1-1.2-1.9-2.1-1-1.9 1.9zM88 130.986c-2.4 4.7-1.8 6.5 1.1 3 1.7-2 2.7-7.1 1.4-7.1-.2 0-1.4 1.8-2.5 4.1zM81.9 137.886c-.1.3-.1 1.3 0 2.2.2 1.1-.5 1.8-1.5 1.8s-1.4.3-1.1.7c1.3 1.2-3.2 3.4-5.8 2.7-1.4-.3-2.5-.2-2.5.2.1 2.3 2.1 3.7 5.7 3.9 2.3.2 3.8.8 3.8 1.5 0 1.7 2.1 2.4 3 1.1.3-.6 1.5-1.1 2.6-1.1 1 0 1.9-.5 1.9-1 0-.6-.5-1-1-1-1.6 0 .1-5.3 2.2-6.8 3.3-2.4 1.8-4.7-3-4.7-2.3 0-4.3.2-4.3.5zM59.4 144.786l-2.2 2.6-4.8-1.8c-5.2-1.8-13.4-2.3-13.4-.8 0 1.8-4.1 2.3-6.4.8-2.2-1.5-2.3-1.4-1.8.9.4 2 0 2.4-2.1 2.4-1.5 0-2.7.6-2.9 1.5-.3 1.3-.8 1.3-4-.4-3.2-1.6-3.9-1.7-4.9-.4-1.8 2.1-1.7 10.2.1 11.3.8.5 1.2 1 .8 1.1-3.8.7-8.7 3.1-9.2 4.5-.4 1.2-1.4 1.4-3.7.9l-3.1-.7 1.7 3.3c2.1 4 5.5 7 7.3 6.4.7-.3 2.3 0 3.4.6 1.4.8 2.3.8 3.1 0 .6-.6 1.8-1.1 2.7-1.1.8 0 2.4-.9 3.4-2.1 1.4-1.7 2.4-2 5.1-1.5 3.5.7 4.5-.4 4.5-4.5 0-1.6.5-1.9 1.9-1.4 1.4.4 2.1 0 2.6-1.6.7-2.1.8-2.2 2-.5.9 1.2 1.5 1.4 2 .6.6-.9 1-.9 1.5.1.7 1 1.2 1 2.5-.1.9-.7 1.4-1.9 1.1-2.7-.3-.7.1-1.3.8-1.3.8 0 1.6-.9 1.9-2 .4-1.5 1.4-2 4.1-2 2 0 3.6-.5 3.6-1.1 0-.6.6-.9 1.4-.6 1.8.7 3.6-1.2 3.6-3.9 0-1.3.7-2.9 1.5-3.8 2-1.9 1.9-2.9-.2-4.2-1.5-.8-2.2-.6-3.9 1.5zM517.6 164.686c-.3.5 0 1.7.7 2.6 1.2 1.6 1.3 1.6 1.4-.3.2-2.2-1.2-3.7-2.1-2.3zM525.7 168.586c-1.6 1.5-.6 4.4 1.8 5.3 1.5.6 3.2 2.5 4.1 4.5.9 2.1 2.5 4 4 4.6 3.1 1.1 6.9 4 7.3 5.4.1.5 1.2 1.4 2.4 1.8 2.1.8 2 .7-.4-2-1.4-1.5-3.3-4.1-4.3-5.6-.9-1.6-3.7-4.1-6.2-5.6-4.7-3.1-8.7-7.4-7.7-8.5.3-.3.4-.6.1-.6-.2 0-.8.3-1.1.7zM0 169.886c0 .5.5 1 1 1 .6 0 1-.5 1-1 0-.6-.4-1-1-1-.5 0-1 .4-1 1zM520.4 180.486c-1.9.8-.4 5.4 1.8 5.4 1.5 0 1.9-.6 1.6-2.7-.3-2.7-1.4-3.5-3.4-2.7zM523.8 187.486c-.5.4-.8 1.7-.8 2.9 0 2.5-2.3 4.9-3.5 3.7-.4-.4-.5.2-.3 1.3.3 1.6 1 1.9 3.3 1.7 1.7-.2 3.1-.4 3.2-.6.1-.1-.1-2.3-.5-5-.4-2.6-1-4.4-1.4-4zM555.5 196.886c.3.5.8 1 1.1 1 .2 0 .4-.5.4-1 0-.6-.5-1-1.1-1-.5 0-.7.4-.4 1zM559.7 204.586c-1.1 1-.8 6.1.3 6.8.8.5.7 1.1-.1 2.1-.9 1.1-.8 1.4.8 1.4 1.1 0 3.6 1.1 5.5 2.4 2.9 1.9 3.5 2.1 3.4.7 0-.9-.9-1.9-2-2.4-1-.4-1.6-1.3-1.2-2.2.3-.8.1-1.7-.4-2-.6-.4-1-1.5-1-2.6 0-1.2-.5-1.7-1-1.4-1.3.8-4.2-1.4-3.4-2.6.6-1.1 0-1.2-.9-.2zM575 217.586c0 3.5.8 4 3.1 2 .8-.6 1.3-1.1 1-1-.2.1-1.2-.8-2.2-2l-1.8-2.2-.1 3.2zM510.6 283.886c.8 4.3 1.4 5.1 1.4 1.9 0-1.3-.5-3.1-1-3.9-.7-1.1-.8-.5-.4 2zM183.6 642.586c-.6 1.4-.5 1.5.5.6.7-.7 1-1.5.7-1.8-.3-.3-.9.2-1.2 1.2zM181.8 646.586c-.4 1.5.1 2.4 1.8 3.4 2.6 1.3 3 2.4 1.4 3.4-1.5 1-1.2 2.5.6 2.5.9 0 2.8-1.2 4.4-2.7 2.5-2.3 2.7-2.9 1.7-5.1-1-2.1-1.6-2.3-4.8-1.8-2.5.4-3.9.2-4.1-.6-.3-.7-.7-.3-1 .9zM179.2 651.086c-1.2.6-2.1 1.6-1.9 2.2.6 1.9 2.2 1.5 3.4-.9.6-1.4 1-2.5 1-2.4-.1 0-1.2.5-2.5 1.1zM642 663.886c0 1.1.7 2 1.5 2s1.5-.6 1.5-1.4c0-.8-.7-1.6-1.5-2-1-.4-1.5.1-1.5 1.4zM631 668.886c-1.9 1.1-3 1.9-2.5 2 .6 0 .1.7-.9 1.5-1.1.8-1.5 1.5-.8 1.5.6 0 .9.6.6 1.4-.3.7.2 1.6 1 1.9.9.4 1.7-.1 2.1-1.4.6-1.6.9-1.8 2.1-.8 1.2 1 1.6.8 2.1-.9.3-1.2 1.3-2.4 2.3-2.7 1.2-.4 1.6-1.2 1.3-2.5-.7-2.5-2.8-2.5-7.3 0zM646.3 669.286c-1.2 1.4.6 4.7 4.9 9 1.6 1.5 1.6 1.8 0 4.5-1.4 2.5-1.4 3.4-.3 6.8.7 2.1 1.2 4.8 1 5.9-.2 2.1.7 4.7 2.9 8.1l1.4 2.3 2.6-2c4.1-3.3 5.6-5.8 4.2-7.5-.6-.7-1-1.9-1-2.7.4-2.5-1.3-5.8-2.9-5.8-1.1 0-1.7-1-1.9-3.6-.1-2 .2-3.3.7-2.9.6.3 2.2.3 3.7-.1 2.3-.6 2.4-.8 1-1.6-1.1-.6-1.5-1.6-1.1-2.8.4-1.4-.2-2.3-2.4-3.4-1.7-.9-3.9-1.6-5-1.6-1.2 0-2.6-.9-3.3-2-1.5-2.3-2.8-2.5-4.5-.6zM657.5 712.886c.3.5.8 1 1.1 1 .2 0 .4-.5.4-1 0-.6-.5-1-1.1-1-.5 0-.7.4-.4 1zM656.7 719.786c-.3 1.1-.1 2.1.4 2.1s.9.7.9 1.5.5 1.5 1 1.5c1.4 0 1.2-2-.4-4.9-1.3-2.3-1.3-2.3-1.9-.2zM677.4 726.986c-.3.6-1.5.8-2.6.6-1.1-.3-2.1 0-2.5.9-.7 1.8-3.3 1.8-3.3-.1 0-1.1-1.3-1.4-5.5-1.3-4.9.1-5.5.4-5.5 2.2 0 3.4 1.7 5.3 3.2 3.8 1.7-1.7 4.5-1.5 5.6.4 1.3 2.3 5.1.9 6.3-2.2.5-1.4 1.3-2.3 1.8-2 1.4.9 3.8-.3 3.8-1.9 0-1.8-.3-1.9-1.3-.4zM667 736.886c0 .5.5 1 1.1 1 .5 0 .7-.5.4-1-.3-.6-.8-1-1.1-1-.2 0-.4.4-.4 1zM332 855.986c0 .6-.9.9-2 .6-1.1-.3-2-.1-2 .4s.7.9 1.6.9c.8 0 1.3.3 1.1.7-.3.5-.1 3 .3 5.8.5 3.3.4 5.2-.3 5.7-.8.5-.7 1.4.1 3.3 1 2.2.9 2.7-.6 3.2-1.8.7-4.5 3-4 3.5.1.2-.7 1.3-1.7 2.6-1.1 1.2-2 3-2 4s-.7 1.6-1.6 1.4c-2.5-.4-3.4 12.7-1 14.6.9.7 1.5 1.7 1.4 2.2-.1.4.4 1.1 1.2 1.4 1 .3 1.5-.1 1.5-1.2 0-.9.9-2.3 2.1-3 1.6-1.1 1.8-1.6.9-2.8-1.6-1.9.4-1.9 2.3 0 .8.8 2.3 1.6 3.3 1.8 1.6.2 2.1-.6 2.9-5 .6-2.9 1.3-5.1 1.7-4.7 1 1.1 5.8-.7 5.8-2.1 0-.8-.5-1.4-1.2-1.4-.6 0-.8-.3-.5-.7.4-.3.2-1.2-.4-1.9-.7-.9-.2-1.4 2.1-1.9l3.1-.7-2.5-3.2c-1.7-2.3-2.1-3.7-1.5-4.8.6-1 .5-2.7-.1-4.3-.5-1.4-1-3.9-1-5.4 0-1.6-.7-3.4-1.6-4.2-.8-.7-1.3-2.1-1-3.2.3-1.3 0-1.7-1-1.3-.9.3-2.4.1-3.5-.4-1.4-.8-1.9-.7-1.9.1z"/></g></svg>