<svg version="1" xmlns="http://www.w3.org/2000/svg" width="859.582" height="756.224" viewBox="0 0 644.686 567.168"><g fill="#222"><path d="M41 .92c0 2.1 1.6 2.7 2.9 1.1.9-1.1.7-1.5-.9-1.9-1.3-.3-2 0-2 .8zM52.3 8.82c1 1.5 1.3 2.6.7 2.6-.6 0-.8.5-.5 1 .4.6 1.1.8 1.6.5 1.6-1.1.9-4-1.3-5.4-2.2-1.4-2.2-1.4-.5 1.3zM19.7 10.62c-.4 1.2-.4 2.4-.2 2.7.3.2.5 0 .5-.6 0-.5 1.4-.8 3-.5 1.7.2 3 1 3 1.7 0 1.3 6 4.6 10.8 6 1.9.5 2.2.3 2.2-1.9 0-2.1.4-2.5 2.5-2.4 1.4.1 2.5.6 2.5 1.1 0 1.6 3.3.2 3.5-1.4.2-.9.6-2.6 1-3.9.6-2 .5-2.1-1.7-.8-2.9 1.6-17.9 1.8-19.3.2-.5-.7-2.4-1.5-4.1-1.9-2.7-.5-3.2-.3-3.7 1.7zM39 24.02c0 1.7-.6 2.4-1.9 2.4-1.1 0-2.3.5-2.7 1.1-.3.6-1.9.9-3.4.7-1.7-.3-2.6 0-2.4.7.2.5-.4 1.7-1.5 2.4-1.8 1.3-1.8 1.6-.4 3.8.9 1.3 1.1 2.3.5 2.3-.6 0-1.4-.5-1.7-1-.4-.7-1.3-.6-2.7.1-1.6.8-1.9 1.7-1.4 4 .4 2.4.2 2.9-1.4 2.9-1 0-2.2.4-2.5 1-.3.5-1.7 1-3.1 1-1.7 0-2.4.6-2.4 1.9 0 1-.6 2.4-1.4 3.1-.8.6-1.6 2.4-1.8 3.8-.2 2.1-.9 2.8-3 3-2.1.2-2.8.9-2.9 2.5-.3 3.7.2 11.1.8 13.1.4 1.5.1 1.8-1.6 1.3-1.9-.5-2.1-.1-2.1 3.5 0 2.7.4 3.8 1.3 3.5.6-.2 2.6.2 4.3.9 1.7.7 3.4 1.1 3.7.8.3-.3 1.3.9 2.3 2.8.9 1.8 1.9 2.7 2.1 2 .7-2 5.7-1.4 7.1.8.7 1.1 2.1 2 3.2 2s2 .4 2 1c0 .5 1.4 1 3.1 1 2.1 0 3.7.8 5.1 2.6 1.6 2 2.6 2.4 4.8 1.9 2-.4 2.9-.2 3.3.9.4 1 1.9 1.6 4.2 1.6 3.2 0 3.5.2 3 2.3-.4 1.6 0 2.9 1.5 4.2 1.3 1.1 1.8 2.5 1.4 3.7-.3 1 .3 3 1.5 4.7 1.2 1.6 2.1 3.6 2.1 4.3 0 2.3.9 2.7 4 1.8 1.7-.5 3.2-.4 3.8.2.7.7 1.9.4 3.6-.9 1.4-1.1 2.3-2.3 2-2.6-.3-.2-.6-1.8-.8-3.3-.2-2.1-.9-2.9-2.2-2.9-1 0-1.8-.6-1.6-1.3.1-.7-.5-2-1.3-2.9-2.1-2-1.5-3.4 2.3-5.2 3.9-2 5.5-5.2 4.2-8.7-.6-1.4-1-2.7-1-3 0-1.1 3.3-.2 7.4 2.1 3.8 2.1 4.6 2.2 5.6 1 1.3-1.6.6-3.5-1.3-3.5-1.7 0-6.7-4.8-6.7-6.4 0-.7-1.1-1.9-2.5-2.6-1.4-.7-2.5-2.2-2.5-3.2 0-1.9 5.6-7.8 7.3-7.8.5 0 .5-.6 0-1.3-.6-.6-1.8-3.7-2.7-6.7-1-3-3.2-7.2-4.9-9.2-6.9-8.2-8.8-10.7-10.5-14.4-2-4.4-7.1-10.4-8.7-10.4-.7 0-2.2-1.1-3.4-2.4-1.2-1.3-3.3-2.6-4.7-2.9-2-.3-2.4 0-2.4 1.9zm25.5 93.4c.3.5-.1 1-.9 1-.9 0-1.6-.5-1.6-1 0-.6.4-1 .9-1 .6 0 1.3.4 1.6 1zM81 97.12c0 1.2-.4 2.3-1 2.5-.6.2-.6 1.7.1 4.2.8 2.9.8 4.1-.1 4.6-1.7 1.1 7.2 3.9 10.4 3.3 1.4-.3 2.6-.7 2.6-.8 0-2-3.8-8-7.4-11.5-4-3.8-4.6-4.1-4.6-2.3zM99 107.42c0 .5-1.2 1.3-2.6 1.6-2.6.7-2.6.7 1 1.9 5 1.8 8.3 5.6 7.6 9-.1.6.2.6.9 0 .6-.6 1.4-2.5 1.7-4.3.6-2.8.4-3.2-1.6-3.2-1.3 0-2-.5-1.7-1.3.7-2-1.2-4.7-3.3-4.7-1.1 0-2 .4-2 1z"/><path d="M104.6 124.22c.5 2.5-.2 3.6-5.5 8.8-5.5 5.5-5.9 6.2-4.4 7.6 1.4 1.5 1.4 1.9 0 4.6-.8 1.7-1.2 3.3-.9 3.6.9.9 5 .7 5.6-.3.3-.5 2.5.8 4.8 2.9 3 2.8 4.6 3.6 5.7 3.1.9-.5 3.1-.8 4.9-.6 2.7.1 3.1-.1 2.7-1.6-.5-1.4-.1-1.6 1.5-1.2 2.1.6 2.4-.4 2-7.5-.1-1.9.5-3.9 1.3-4.5 1.2-1 1.2-1.6.1-3.7-.8-1.4-1.4-1.9-1.4-1.3 0 2.3-2.3 1.3-6.2-2.7-2.2-2.2-4.6-4-5.3-4-.7 0-1.6-1.4-2-3-.9-4-3.7-4.1-2.9-.2z"/><path d="M68.6 131.92c.4 1.8.1 2.7-1 3.1-.9.3-1.3 1.1-.9 1.6.3.6.6 2.5.5 4.1 0 1.7.7 4.1 1.7 5.4 1 1.2 2.4 5.3 3.1 9 .6 3.8 2 8 3.1 9.5 2.2 3.2 2.6 8.8.5 8.8-1.1 0-1.2.7-.2 3.9.6 2.2 1.5 4.3 1.9 4.7.4.4.7 2.9.7 5.6 0 4.5.2 4.9 4 7.3 2.2 1.4 4 2.9 4 3.4 0 1.2 6.9 5.5 7.6 4.8.3-.3 2.2.6 4.1 1.9 3.9 2.6 5.8 3 6.8 1.4.4-.6 1.2-.7 1.8-.3.7.4 2.1.6 3.2.5 1.5-.2 1.7-.1.7.6-2.5 1.7 1.3 15.8 4.8 18 1.6 1 1.9.8 2.5-1.6.6-2.7-1.6-9.5-3.3-10.6-.5-.3-1.5-2.6-2.2-5.1-.7-2.4-1.6-4.2-2.1-4-1.1.8-3.9-3.6-3.9-6.2 0-1.2-.4-2.4-.9-2.7-.5-.3.1-2.5 1.2-4.8 1.2-2.3 2.3-3.6 2.5-3 .4 1.3 3.2 1.7 3.2.4 0-.4-1.1-2.3-2.5-4.2-2.4-3.3-2.5-3.5-.6-4.1 1-.4 2.6-1.7 3.4-3 1-1.3 2.2-1.9 3.1-1.6 1 .4 1.6.1 1.6-.7 0-1.7 2.2-2.6 4.8-1.9 1.2.3 3.5-.5 5.9-2.2l3.8-2.6-4 .2c-2.3.2-5.4-.5-7.3-1.5-2.8-1.4-3.3-1.5-3.8-.2-.6 1.7-7.2 1.1-8.9-.8-2.8-3-5.4-4.6-6.8-4-.9.3-1.3 1.2-1 2.1.4 1.1.1 1.4-1.2 1.2-3.1-.6-2.7-2.5.9-3.9 3.5-1.3 4.1-4.2.7-3.3-1 .3-2.5-.2-3.2-1-.7-.8-2.1-1.2-3-1-.9.3-2 0-2.3-.6-.4-.7-.1-.8.8-.5.9.3 1.6.1 1.6-.5s-.4-1.1-1-1.1c-.5 0-1-.7-1-1.5s-.6-1.5-1.3-1.5c-.8 0-2-1.1-2.7-2.5-.7-1.4-1.8-2.5-2.3-2.5-2.1 0-15.7-4.5-15.7-5.2 0-.5.6-.8 1.3-.8 1.2 0 4.3-4.9 3.5-5.5-6.1-4.2-7.1-4.4-6.2-1zM164 133.32c0 .5-2.7 1.2-6 1.6-3.3.4-6 1.1-6 1.6 0 1.6-3.4 4.7-6.4 5.9-2.6 1-2.8 1.4-2.3 4.9.2 2.1 0 4.6-.6 5.6-.8 1.5-.7 1.7.6 1.2 1-.4 1.8.1 2.2 1.4.7 2.1 3 2.6 4 .8.5-.7 1.4-.5 2.9.4 2 1.4 2.2 1.3 2.4-.7.7-8.9 1-10 4.1-12.5 5.1-4.2 8.9-11.1 6.1-11.1-.5 0-1 .4-1 .9z"/><path d="M157.3 151.22c.1 1.4.5 1.8 1.1 1.2.7-.7.6-1.4-.1-2.1-.9-.9-1.2-.7-1 .9zM119.1 158.82c-1.9 2.2 1.1 2.6 3.3.5 1.9-1.9 1.9-1.9-.1-1.9-1.1 0-2.6.6-3.2 1.4zM142.8 159.92c-1 1.3-1.8 2.9-1.8 3.4 0 .6-.6 1.1-1.4 1.1-.8 0-2.1.3-3 .6-.9.3-1.6.1-1.6-.6 0-.6.5-.8 1-.5 1.4.9 1.3-.8-.2-2.3-.9-.9-.9-1.2 0-1.2.7 0 1.2-.5 1.2-1 0-.7-.8-.6-2.2.1-1.3.7-2.4 1.2-2.5 1.1-2.7-1.8.4 3.8 3.4 6.2 1.3 1 2.2 2.4 1.9 3.1-.2.7.6 2.3 2 3.6 1.9 1.8 2.4 1.9 2.4.7 0-.9 1.1-3 2.5-4.6 2.7-3.2 3.2-5.2 1.4-5.2-.7 0-.9-1.2-.7-3 .6-3.9-.2-4.4-2.4-1.5zM125.6 160.92c2.5 1.9 3.4 1.9 3.4 0 0-1-1-1.5-2.7-1.5-2.6 0-2.6.1-.7 1.5zM130.5 164.42c.3.5.8 1 1.1 1 .2 0 .4-.5.4-1 0-.6-.5-1-1.1-1-.5 0-.7.4-.4 1zM155.1 176.72c-.6.8-.7 1.7-.3 2.2.4.4-1.3.5-3.7.2l-4.3-.5 2.8 2.9c3.3 3.4 3.9 3.6 2.4.9-1-1.8-.8-2 1.9-2 1.6 0 3.3-.5 3.6-1 .4-.6 1-.8 1.5-.5.5.3 1.2 0 1.6-.6.7-1.2-1.2-2.9-3.2-2.9-.6 0-1.7.6-2.3 1.3zM137 183.52c0 .6-.7.9-1.5.6-.8-.4-1.7-.1-2.1.4-.3.6-1.6.8-2.8.5-1.4-.3-3 .4-4.9 2.4-1.6 1.5-4.2 3.4-5.8 4-2 .9-2.9 1.9-2.9 3.6 0 1.3.5 2.4 1.1 2.4 1.1 0 .9 3-.6 7.7-.7 2.1-.4 2.3 2.4 2.3 2.6 0 3.1-.4 3.1-2.4 0-2.3.3-2.4 5.3-2.3 5.8.1 10-1 9.2-2.3-.3-.5.1-2 1-3.4 1.4-2.1 2.1-8.2 1.4-12.9-.3-1.8-2.9-2.4-2.9-.6zM114.1 189.32c-.7.5-1.1 1.4-.7 2 .5.7 1.2.7 2.6-.1 1-.7 1.6-1.6 1.4-2-.7-1-1.5-1-3.3.1zM117.1 231.02c0 1.1.3 1.4.6.6.3-.7.2-1.6-.1-1.9-.3-.4-.6.2-.5 1.3zM116.7 236.62c-2.5 2-3.8 6.5-3.1 10.9.4 2.6.3 3.9-.5 3.9-.6 0-1.1 1.6-1.1 3.8 0 2.7-.6 4.1-2 5-2.5 1.5-1.7 3.2 1.5 3.2 1.8 0 2.2-.4 1.8-2-.4-1.6 0-2 2-2 1.7 0 2.8-.7 3.2-2 .3-1.1 1-2 1.5-2s-.3-1.3-1.8-3c-3.5-3.7-3.9-8.1-1.2-13.1 2.2-4.3 2.1-4.5-.3-2.7zM518.2 261.02c-1.2.8-2.2 1.1-2.2.5 0-.8-2-.8-4-.1-.3.1-1.2.2-2.1.1-.8-.1-2.2 1-2.9 2.5-2.5 4.6-9.8 7.4-15 5.6-2.6-1-2.6-.9-2.4 3.2.1 2.2.5 4.8.8 5.7.4.9 0 2.2-1 3-1.5 1.3-1.5 1.4.7 1.9 1.5.4 2.5 1.4 2.7 2.9.2 1.5 0 2.1-.7 1.7-.6-.4-1.1 0-1.1.9 0 1-.7 1.5-1.7 1.3-2.2-.4-3.1 3.7-1 4.5.8.3 4.1-.1 7.3-.9 3.3-.7 7.1-1.6 8.6-1.9 2.5-.5 2.7-.8 2.1-3.6-.5-2.7-.3-3 1.3-2.7 1.8.4 18-6.8 20.9-9.2.7-.6 1.9-.8 2.8-.5 1 .5 2.1-.7 3.6-3.8 1.2-2.5 3.1-4.7 4.1-5 1.1-.3 2-1 2-1.5 0-1.2-6.9-2.1-7.6-1-1 1.6-6.3.8-6.9-1-.3-1.1-1.7-2.4-3.1-3-3.1-1.5-2.5-1.5-5.2.4zM367 265.92c-.5 1.4-1.4 2.5-1.9 2.5-1.9 0-.1 2.5 2.9 4.2 1.7.9 3 2.4 3 3.3 0 1.2.6 1.5 2 1 1.5-.5 2-.2 2 1.3s-.5 1.9-2 1.5c-1.1-.3-2.3-.9-2.6-1.4-.8-1.3-4.2-1.1-4.7.3-.3.8-1.2.3-2.6-1.5-2.5-3-5.1-3.6-5.1-1.1 0 1.1-.6 1.4-2.1.9-1.5-.5-1.9-.4-1.5.4.8 1.2-.4 1.4-2.8.5-.9-.3-1.6-1.2-1.6-1.9s-.9-1.5-2-1.8c-1.7-.4-1.8-.2-1 1.3.6 1.1 1.4 2.1 1.9 2.5.6.3 1.6 1.9 2.5 3.5 1.3 2.7 1.3 3.1-.1 3.9-.9.4-2.4.6-3.3.4-1.4-.4-1.7 0-1.3 2.1.3 1.4.2 4.2-.1 6.1-.6 2.8-1.1 3.5-3.1 3.5-1.9 0-2.5.7-3 3.4-.7 3.5.9 8.1 2.5 7.1 2.1-1.3 4 .8 4 4.5 0 4.6 2.4 7.7 4.6 5.9 1.1-.9 1.4-.9 1.4 0 0 .8.5.9 1.7.3 1-.6 2.1-.6 2.7 0 .6.5 3.2 2.2 5.7 3.7 3.6 2.2 4.7 3.5 4.7 5.5s-.5 2.5-2.2 2.3c-1.1-.1-2.6-.9-3.3-1.7-.9-1-1.2-1.1-1.3-.3 0 .7-.3 1.2-.7 1.1-1.6-.3-10.3 2.7-10.3 3.5 0 .5-.7.4-1.5-.3-1-.9-1.5-.9-1.5-.1 0 .6-1.1 1.1-2.4 1.1-1.3 0-2.7.7-3 1.6-.5 1.3-1.9 1.5-7.3 1.2-5.8-.3-6.8-.1-7.1 1.4-.3 1.3-1.3 1.8-4.1 1.8-2 0-4.2-.5-4.8-1.1-1.4-1.4-2-.3-2.4 4.2-.2 2.7.4 4.8 2.4 7.8 1.5 2.2 2.7 4.5 2.7 5.1 0 .5 1.1 1 2.5 1 1.7 0 2.5.6 2.5 1.7.1 1.5.3 1.4 1.3-.5 1-1.8 1.5-2 2.6-1 1.1 1.1 1.3.9.9-.8-.5-2-.3-2.1 2.5-1.3 5.3 1.5 6 4.6 2.5 10.6-3.1 5.4-7 9.2-8.8 8.5-.8-.3-2.3-1.2-3.2-2-1.6-1.3-1.8-1.2-2.8 1.3-.6 1.5-1.3 3.2-1.6 3.6-.2.5.8.8 2.3.8 1.5 0 4.4.3 6.4.7 3 .5 4 .2 6.2-1.9 1.3-1.4 2.8-2.3 3.1-2 .3.4.6.1.6-.6s.9-.9 2.4-.5c2 .5 2.7 0 4-2.5 1.2-2.1 2.1-2.8 3.3-2.4 1.3.5 1.5.2.9-2-.4-1.7-.2-2.7.4-2.7.6 0 .8-.5.5-1-.4-.6.5-1 1.9-1s2.6-.5 2.6-1c0-.6-.3-1-.7-1-.5 0-1.3-1-1.9-2.3-.9-1.9-.7-2.3.8-2.4 1-.1 2 .2 2.3.8.4.5 2.1.9 3.9.9 2.5 0 3.5-.6 4.4-2.5.6-1.4 1.6-2.5 2.2-2.5.6 0 .9-.4.6-.8-.3-.5.8-2.3 2.3-4 1.6-1.7 3.1-3.7 3.3-4.4.4-1.1.8-1 2.1.1 1.5 1.2 1.6.8 1.1-3.7-.5-5.1-.5-5.1 2.3-4.9 1.9.1 2.8-.3 2.8-1.3.1-3.3 2-1.7 2.1 1.8.1 5.8.3 6.2 2.3 6.2 1.2 0 2.1-.9 2.5-2.6.4-1.4 2-3.7 3.7-5.1 2-1.8 2.8-3.1 2.3-4.2-.4-.9-.6-2.4-.6-3.3 0-.9-.8-2-1.8-2.3-2.1-.7-3.1-3.7-1.9-5.6.4-.8.3-2-.4-2.8-1-1.2-.8-1.3 1.3-.8 6.9 1.9 10 2 10.6.3.5-1.3 1-1.4 2-.5 1.1.9 1.6.5 2.6-1.6 1.1-2.5 1.6-2.6 6.7-2.3 5.3.3 5.4.2 5.8-2.6.2-1.5-.3-3.9-1.2-5.2-.9-1.4-1.1-2.4-.5-2.4 2.4 0 2.1-3.1-.3-5.1-1.5-1.1-2.4-2.6-2.1-3.4.4-.9-.2-1.8-1.2-2.2-1.1-.3-3.2-1.5-4.7-2.6-2.2-1.5-3.1-1.6-4.2-.7-1.2 1-1.6.9-2.1-.4-1-2.6-2.3-1.9-2.1 1.1.2 2.5-.2 2.8-3.8 3.4-2.2.3-5.1.9-6.5 1.3-2.1.5-2.8.2-4.2-2.4-1.8-3.1-4.3-3.4-3.1-.3.4 1.1.2 1.4-.8 1.1-1.6-.5-3.1-6.5-3-11.6.1-2-.7-4.4-1.9-5.9-1.1-1.4-2-3.1-2-3.8 0-1.2-3.1-4.5-4.4-4.5-.3 0-1.1 1.1-1.6 2.5zm15 49.4c0 1.1-2.6 2.2-3.4 1.4-1.2-1.2-.5-2.3 1.4-2.3 1.1 0 2 .4 2 .9zm3 10.7c0 .8-.4 1.2-1 .9-.5-.3-1-1-1-1.6 0-.5.5-.9 1-.9.6 0 1 .7 1 1.6zM125.2 270.62c.6 1.8 1.4 4.3 1.9 5.5.5 1.4.4 2.5-.3 2.9-.7.5-.5 1.1.6 2 1 .7 1.7 1.5 1.7 1.8-.4 3.5.1 4.6 2.2 4.6 2.7 0 9 9 8.1 11.5-.7 1.7 4.3 7.8 5.7 6.9.4-.2 2.8 2.4 5.3 5.8 2.6 3.6 6.2 7.3 8.5 8.6 3.4 1.9 3.9 2 3.4.6-.7-1.8.5-1.5 3.7 1.1 2.4 1.9 9.7 3.6 12.4 2.9 1.7-.4 3 0 4.5 1.5 2.8 2.8 4.7 2.6 5.5-.4.4-1.4 1.1-2.5 1.6-2.5 1.8 0 6.6 2.2 8.5 3.9 1.1 1 3.7 2.2 5.7 2.5 2.8.5 3.9 1.3 4.4 3 .9 3.5 6.9 9 9 8.2 1.3-.5 1.5-.9.6-1.8-.7-.7-1.2-2.8-1.2-4.8 0-3.8-3.7-10.2-7-12-1.5-.8-1.8-1.7-1.3-4 .3-1.8 0-3.6-.7-4.5-.7-.8-1-2.4-.7-3.4.3-1.3-.4-2.8-1.9-4.2-1.4-1.3-2.3-2.8-2-3.5.3-.7-.2-2-.9-3.1-1.6-2.1-2-8.8-.5-7.8.6.3 1-.3 1-1.5s-.4-1.8-1-1.5c-.6.4-3.2-.7-5.9-2.4-2.6-1.7-5.2-3.1-5.8-3.1-.5 0-2 1.1-3.3 2.5-3 3.2-3.5 3.1-7.1-.4-1.6-1.6-3.2-2.5-3.5-1.9-.3.5-1.2.7-1.9.4-.8-.3-1.5 0-1.7.5-.2.5-2.8-1.4-5.9-4.4-5.1-5-5.7-5.3-7.6-4-1.9 1.3-2.5 1.2-4.6-.2-2.3-1.5-2.6-1.5-4.2.1-1.2 1.2-1.9 1.4-2.8.5-.6-.6-1.8-1.1-2.7-1.1-.8 0-2.7-1.4-4.2-3-1.8-2.1-3.5-3-5.7-3-1.6 0-3.3-.5-3.6-1-.3-.6-2.1-1-4-1-3.3 0-3.3 0-2.3 3.2zM201.5 284.42c.3.5.8 1 1.1 1 .2 0 .4-.5.4-1 0-.6-.5-1-1.1-1-.5 0-.7.4-.4 1z"/><path d="M480.4 296.92c-1.7.8-4.1 3-5.2 5-1.3 2.2-2.9 3.5-4.2 3.5-1.1 0-2 .5-2 1.1 0 .7-.7 1.7-1.6 2.4-1.3.9-1.4 1.6-.7 3 .8 1.4.5 2.3-1 4.2-1.2 1.3-2.7 2.1-3.4 1.8-.8-.2-3.5.3-6.1 1.2-5.7 1.9-10.2 2.6-10.2 1.4 0-.5-1.4-1.4-3-2.1-1.7-.7-4.7-3.2-6.8-5.5-4.3-4.9-7.2-6.1-10.4-4.4-3 1.6-3.8 2.8-3.8 6.1 0 1.6-.4 2.8-.8 2.8-.5 0-.6 1.9-.3 4.2.9 6.1.3 8.8-1.8 8.8-1 0-2.4-.7-3.1-1.5-.8-1-1.7-1.2-2.4-.6-.6.5-2.9.7-5.1.5-10.6-.9-17 1.7-17 6.9 0 1.5-.6 2.2-1.7 2.1-1-.1-1.8.4-1.8 1.2 0 .8-.4 1.4-.9 1.4-1.7 0-2.1 4.5-.5 6 1.2 1.3 1.6 1.3 2.3.1.5-.7 1.4-1 2-.7.6.4 1.1 0 1.1-1 0-1.6.1-1.6 1.9 0 1.1 1 2.4 1.5 3 1.2.5-.3 2.3.6 4.1 2 2.3 2 3.4 2.4 4.3 1.5 1.5-1.5 6.7-1.4 6.7.2 0 .7 1.1 2.8 2.5 4.7 1.3 1.8 2.2 3.7 1.8 4.3-.3.6.2 1.6 1.1 2.3 1 .7 1.7 1.6 1.7 2.1-.1.4.2 1.6.5 2.6s-.1 2.6-1 3.6c-1.5 1.6-1.5 1.9.4 3.6 1.1 1 2 2.4 2 3.2 0 .7.7 1.6 1.5 2 .9.3 2.3 1.9 3.1 3.5 1.2 2.4 1.8 2.7 3 1.7 1.2-.9 1.4-.6 1.4 2.3 0 1.9-.5 3.9-1 4.4-.8.8-.7 2 0 3.9.6 1.6 1 3.8.9 4.9-.4 2.9 2.8 8.6 6.1 11.3 2.7 2.2 3.8 6.7 1.9 7.9-1.5.9-1 2.4.7 2.4 1.1 0 1.4.5 1 1.6-.3.9-.6 2.9-.6 4.5 0 2.7-.2 2.9-2 1.9-1.9-1-2-.8-2 3.5 0 3.4.4 4.5 1.5 4.5.9 0 1.8-.6 2.1-1.4.4-1 1.4-1.2 3.9-.6 2.6.6 3.5.4 3.9-.7 1-2.4.7-5.8-.6-7.1-.9-.9-.8-2.1.1-5.3l1.3-4.1 3.2 3.1c1.8 1.7 3.6 2.8 4 2.4.4-.4 1-.3 1.4.3 1.2 1.9 4.9 2.6 5.5 1 .4-1 1.6-1.3 4.6-.9 3.6.5 4.2.3 4.9-1.8l.9-2.4.8 2.5c.7 2.3.8 2.3 2.1.5.8-1 1.4-3 1.4-4.4 0-5.7.9-6.8 5.1-6.6 2.1.1 4.5.8 5.4 1.5 1.2 1 1.5 1 1.5 0 0-.8.3-1 .7-.7.3.4 1.3.1 2.1-.5.7-.7 2.3-1.4 3.5-1.5 1.2-.2 2.9-1.1 4-2 1.6-1.5 1.9-1.5 2.8-.3.5.8.7 2 .4 2.7-.2.7 0 1.5.5 1.8.6.4 1 .1 1-.5 0-1.8 2.9-4.2 4.1-3.5 1.2.8 7.8-2.3 9.5-4.4.6-.8 1.8-1.1 2.7-.8.9.3 1.9.2 2.2-.3.4-.6 2.1-.8 4-.6 2.9.4 3.5.1 4.5-2.4.7-1.6 1.8-3.1 2.5-3.4 1.4-.5.9-4.6-.6-4.6-.5 0-.9-1.5-.9-3.3 0-2.3-.8-4.1-2.5-5.7-2.4-2.2-2.4-2.4-.8-5.1 1-1.6 2.3-2.9 2.9-2.9.6 0 1.5-1 1.9-2.3.9-2.6.9-2.7-.1-5.1-.6-1.5-.4-1.7.7-1.1.8.5 2.6.8 4.1.6 1.4-.1 2.9.2 3.3.8 1 1.8 5.5 1.3 8.5-.9l2.9-2 2.2 2.2c2.6 2.8 4.9 7.9 4.2 9.2-.4.5-.1.6.4.3 1.6-1 3.6 4.8 2.8 8.2-.4 2-.3 3.1.4 3.1.6 0 1.1-.9 1.1-2s.4-2 .9-2c1.6 0 2-5.4.5-6.3-.8-.4-1.4-1.7-1.4-2.7 0-1.1-.9-2.4-1.9-3-2.1-1.1-5.5-7-4-7s1-2.7-.8-4.1c-1.2-1-1.7-1.1-2-.2-.5 1.5-3.3.5-3.3-1.2 0-.8-1.1-2.2-2.5-3.3-1.4-1.1-2.5-2.4-2.5-3 0-1.4-3-2.4-3-.9-.1.7-1.1-.1-2.4-1.6-1.8-2.3-3.3-2.9-7.4-3.2-2.8-.3-5.4 0-5.7.6-1.1 1.6-7.8-.2-10.8-2.9-2.3-2.2-3.1-2.4-4.6-1.5-1 .7-2.1.9-2.5.6-.3-.3-2.6-.8-5.2-1-4-.3-10.9-3.3-7.8-3.3 1.5 0 2.5-6.9 1.4-9.1-.6-.9-2.4-2.1-4.2-2.4-4.7-1-5.8-2.3-5.8-6.4-.1-3.8-2.3-8-3.4-6.2-.5.7-1.5.7-3.2.1-3.4-1.3-3.6-1.3-2.9.9.4 1.4-.2 2.1-2.5 3.1-2.6 1.1-2.8 1.5-1.8 3.4 1.1 2 1 2-.8.6-3.3-2.5-4.4-4.3-4.4-7.3 0-2.8.1-2.9 3.5-2.3 3.2.6 3.5.5 3.6-1.6 0-1.3.6-3.8 1.3-5.6l1.2-3.3 2.5 2c2.9 2.2 4.6 1.7 2.6-.7-1-1.3-.9-1.5.5-.9 2.1.8 2.8-1.8 1.4-5.6-1.2-3.1-1-3-5.2-1.2zm-4.4 29.8c3 .4 5.1 2.3 4.5 3.9-.4.9-1.3 1.4-2.1 1.1-.7-.3-1.7.2-2 1.1-.6 1.6-3.6 2.4-3.1.8.1-.4-1-2.1-2.5-3.7-3.1-3.3-2.7-5 1.1-4.1 1.4.4 3.3.8 4.1.9z"/><path d="M464.5 304.42c-.3.5-.2 1 .4 1 .5 0 1.3-.5 1.6-1 .3-.6.2-1-.4-1-.5 0-1.3.4-1.6 1zM221.6 337.12c-1.4 1.4-.4 7.7 1.9 12.3 2.5 4.8 2.5 5 .5 5-2.4 0-2.7 3.2-.5 5 1.2 1 1.3 1.6.4 2.6-.9 1.1-.8 1.4.5 1.4.9 0 1.6-.5 1.6-1 0-.7.6-.8 1.7-.1 1.2.6 2.4.6 3.7-.1 1.6-.9 2.3-.6 3.8 1.2 1 1.3 1.7 3 1.6 3.9-.2.9.7 2.4 1.9 3.4 1.3 1 2.3 2.6 2.3 3.5 0 1.2.3 1.3 1.2.4 1.5-1.5 7.4-1.6 8.3-.2.4.6 1.1.7 1.7.4.6-.4 1.8-.7 2.7-.8 2.7-.2 9.1-5 9.1-6.9 0-2.1-3.5-5.7-5.5-5.7-.9 0-2.8-.8-4.2-1.7-1.4-1-3.9-1.6-5.4-1.5-2.3.3-2.8 0-2.6-1.7.1-1.2.9-2.4 1.9-2.7 1.2-.4 1.5-1 .9-2.2-4.3-8.7-6.9-12.1-8.9-11.4-.6.2-2.1-.3-3.2-1.1-1.4-1-3.6-1.3-6.4-1-2.4.3-5.2 0-6.3-.6-1.1-.5-2.3-.7-2.7-.4zM306 345.32c-1.3 2.5-1.3 5.1 0 5.1.6 0 1.5-1.1 2-2.4.7-1.9 1.4-2.3 3.2-2 2.2.5 2.2.5-.2-1-3.3-2-3.7-2-5 .3zM272.7 350.52c-2.6 2.1-3.4 3.5-3 4.9.3 1.2-.2 2.8-1 3.8-1.5 1.6-1.5 1.9.3 2.9 1.3.9 2 .9 2.2.1.5-1.5 4.8 0 4.8 1.8 0 2.3 6.2 1.7 10.6-1.2 4.2-2.7 9.2-9 8-10.1-.4-.4-1.1-.2-1.5.6-.7 1-1 .9-1.4-.3-.4-.9-1.2-1.6-1.8-1.6-.7 0-2.1-.8-3.2-1.7-1.1-1.1-3.7-1.8-6.2-1.9-3.4-.1-5.1.5-7.8 2.7zM218 357.42c0 .5.5 1 1 1 .6 0 1-.5 1-1 0-.6-.4-1-1-1-.5 0-1 .4-1 1zM316 377.92c0 .8.5 1.5 1 1.5.6 0 1-.7 1-1.5s-.4-1.5-1-1.5c-.5 0-1 .7-1 1.5zM310 379.32c0 1.2 2.3 3.1 3.7 3.1 1.3 0 1.9-2.9.6-3.1-.5 0-1.6-.2-2.5-.4-1-.2-1.8 0-1.8.4zM567.7 386.02c-.8.8.1 2.4 1.3 2.4.4 0 1-.7 1.4-1.5.5-1.5-1.4-2.1-2.7-.9zM558 389.92c.9.9 2.4 1.2 3.8.8 2.9-.7 1-2.3-2.8-2.3-2.1 0-2.3.2-1 1.5zM562.2 395.42c.2 1.9-.3 3.4-1.2 4-1.3.8-1.3 1.3-.2 3.1s1.1 2.3.1 3c-1.4.8-.4 3.3 3.9 10.1 1.4 2.4 1.5 3.1.4 4.9-.7 1.1-1.2 2.2-1 2.4.2.1 1.3.8 2.6 1.4 1.7.9 2.2 2 2.2 5 0 2.5.7 4.4 2 5.6 1.1 1 1.7 2.2 1.4 2.6-.3.5.2.6 1 .3 1.7-.6 13.2 6 14 8.1.8 2.2-3 2.8-5.9.9-2.3-1.5-2.5-1.5-2.5 0 0 1.8-4 3.1-7.3 2.2-1.9-.4-2.6.1-4.1 2.9-1.1 1.9-2.2 3.5-2.5 3.6-.3 0-1.6.2-2.9.3-1.2.2-3.3 1.3-4.6 2.5-1.4 1.3-2.9 2-3.5 1.6-.6-.3-2.6.2-4.4 1.3-4.8 2.8-14.6 1.7-18.1-2.1-2.9-3.2-2.9-3.1-6.5-1.3-2.4 1.3-3.1 1.3-4.9.1-1.8-1.4-2-1.3-1.5.4.4 1.6 0 1.9-2.7 1.8-2.6-.2-3.3.2-3.6 1.8-.2 1.1-.8 2.1-1.3 2.3-.6.2-1.1 1.7-1.1 3.2 0 1.6-.4 3.2-1 3.5-1.2.7-1.3 9.4-.2 11.2 1 1.5 9.3-.3 10.5-2.3.5-1 1.4-1.1 3.3-.4 2.1.8 2.9.6 4.9-1.4 1.3-1.3 2.7-3.5 3-4.9.6-2.2 1.4-2.5 6.7-3.1 3.3-.4 6.5-.3 7.1.2.7.5 3.3 1.3 5.9 1.6 4.1.6 4.9 1.1 6.5 4.4 1.7 3.6 2 3.7 6.3 3.3 2.5-.1 5.1-.8 5.8-1.3.6-.6 1.2-.7 1.2-.4 0 .4.9.2 2-.4 1.1-.6 2-2 2-3 0-1.5.7-2 2.5-2 1.4 0 2.5.6 2.5 1.2 0 .7 1.2 2.6 2.6 4.2 2.4 2.7 2.6 2.8 3.9 1 1.3-1.7 1.6-1.7 2.5-.4.8 1.2 1 1.3 1 .1 0-.8.3-1.2.6-.9.3.4.1 1.5-.5 2.6-.9 1.7-.6 2.3 1.4 3.6 3 2 5.6 2.1 4.9.2-.3-.7.2-1.6 1.1-2 1.1-.4 1.5-1.2 1.1-2.2-1-2.7.4-3.5 3.5-1.8 1.7.8 3.7 1.3 4.4 1 .8-.3 1.9 1.2 3 4 .9 2.4 2.1 4.2 2.5 3.9.5-.3 2.5.1 4.5.9 3.6 1.5 5.8 1.3 8.5-.9.8-.7 2.4-1.5 3.5-1.7 1.1-.2 1.9-1 1.7-1.7-.4-1.9 2.7-5.1 4.9-5.1 4.5 0 9.5-4.4 6.9-6-.7-.4-.8-1.8-.5-3.3.6-2.1.1-3.2-2-5.2-2.6-2.3-2.6-2.5-.7-2.5 1.1 0 2.4-.5 2.7-1 .3-.6 1.4-1 2.3-1 2.4 0 2.5-6.1.1-7.7-.9-.7-2.1-2.8-2.5-4.6-.3-1.7-1.6-4-2.7-4.9-1.8-1.7-2.1-1.7-3.2-.1-.7.9-1.7 1.3-2.3.9-.7-.4-1.2-.3-1.2.2 0 1.7-3.2 2.3-4.9.9-.9-.8-2.3-1.2-3.1-1-1.3.4-1.3.3 0-.6 1.3-1 1.3-1.2 0-2.1-1-.6-1.4-2.4-1.3-5.2.1-3.6-.3-4.6-2.5-6.2-1.4-1.1-2.2-1.4-1.8-.7 1.2 1.8-1.4 4.2-3.7 3.5-1.9-.6-1.9-.6-.1 2.5 2.2 3.8 1 5.5-1.6 2.1-1.1-1.4-2-1.9-2-1.1 0 1.1-.3 1.1-1.5.1-1.8-1.5-2-4-.2-4 .8 0 .8-.3.2-.8-.6-.4-1.2-1.8-1.2-3.1-.2-2.4-1.9-4.9-2.7-4-.2.2.2 2.1.9 4.2 1.6 4.7-.1 4.6-2.4-.1-.9-1.7-2.1-3.2-2.7-3.2-.7 0-1.5-.7-1.8-1.6-.3-.9-1.2-1.4-1.8-1.2-.7.3-2.3-.1-3.7-.8-2.1-1.1-2.6-1-4.2.9l-1.9 2.2-2-2.5c-3-3.5-3.9-6.3-2.8-7.7 1.3-1.7.1-5.1-2.1-5.8-1-.3-2.3-1.6-2.9-2.9-.6-1.4-2.2-2.6-4.1-2.9-3.4-.7-7.1-3.9-7.1-6.2 0-.8-.9-1.9-2.1-2.5-1.9-1.1-2-.9-1.7 2zm65.8 55c0 .5-.7 1-1.6 1-.8 0-1.2-.5-.9-1 .3-.6 1-1 1.6-1 .5 0 .9.4.9 1zm-22.5 23c.3.5.2 1-.4 1-.5 0-1.3-.5-1.6-1-.3-.6-.2-1 .4-1 .5 0 1.3.4 1.6 1zM438 437.92c0 1.9 2.5 3.6 4.4 2.9 2.3-.9 1.5-2.7-1.7-3.5-1.9-.5-2.7-.3-2.7.6zM442.2 442.62c-.7.7-1.2 1.8-1.2 2.5s-.9 1.3-2 1.3c-1.4 0-1.8.5-1.3 1.7.4 1 1.2 2.2 2 2.6.7.4 1.3 1.6 1.3 2.6 0 2.2 4.1 3.6 5.2 1.8.4-.7.8-3.5.8-6.4 0-4.1-.4-5.4-1.8-6.2-1.3-.7-2.3-.6-3 .1zM434 448.82c0 .2.7.9 1.5 1.6.9.7 1.5.8 1.5.2 0-.5-.7-1.2-1.5-1.6-.8-.3-1.5-.4-1.5-.2zM447.6 460.22c.5 3.4.3 4-1.9 5.5-3.3 2.1-5.1 2.5-5.2 1 0-1.1-4.7-5.3-5.9-5.3-1.1 0 2.3 5.8 4.7 8 2 2 2.1 2.2.5 3.4-1 .8-1.4 1.7-.8 2.5.4.8.5 3 .3 5.1-.3 2.1-.1 4 .6 4.4 1.8 1.1 10 3.4 9.8 2.7-.1-.3.8-2.3 2.1-4.3 2.2-3.5 2.2-3.9.8-6.7-1.9-3.5-2-7.4-.5-10.3 1.5-2.8.4-6.2-2.6-8.2l-2.5-1.7.6 3.9zM469 466.92c-.7.8-2.4 1.5-3.8 1.5-2.3 0-2.4.1-.9 1.8 2.6 2.8.9 6.9-2.6 6.3-.4-.1-.3.8.3 1.8 1.5 2.9-2.6 8.7-5.7 8.3-1.6-.2-2.3.2-2.3 1.2 0 .9-.5 1.6-1.1 1.6-.5 0-.7.4-.4 1 .3.5-.1 2-.9 3.2-2.4 3.3-2.1 7.8.4 7.8 1.3 0 2 .7 2 1.8 0 1 1.2 2.2 2.9 2.9 3.2 1.2 3.9 4.4 1.5 7.3-1 1.2-.8 2.4 1.2 6.5 1.3 2.8 2.4 6 2.4 7.2 0 1.6.6 2.3 2 2.3 1.9 0 2.4 1 2.1 3.7-.3 2 1.9 5.4 3 4.8.5-.4 1.2.2 1.6 1.2 1 2.9 3.4 5.2 4.8 4.7 1.7-.7 5.8 8 5.8 12.2 0 3.1.4 3.4 3.6 4 2.3.5 3.6.3 3.9-.5.2-.6 1.1-1.1 2-1.1 1.4 0 1.7-1.2 1.9-6.1.1-3.3.9-7.4 1.8-9.2 1-2 1.3-4.2.9-6.1-.5-2.4-.4-2.8 1-2.3 1 .4 1.9.1 2.2-.8.3-.8 1.4-1.7 2.3-2 1.1-.3 1.8-1.7 1.9-3.8.2-1.7.4-5.5.5-8.4.2-2.9 1-6 1.9-7 2.4-2.8 4.1-9.1 3.2-12.1-.4-1.5-.6-3.1-.6-3.5.1-.4-.2-1.6-.8-2.7-.7-1.2-.7-2.1 0-2.5 1.5-.9 1.2-4.2-.5-5.7-3.8-3.4-5-4.3-5.5-3.8-.3.3-1-1.5-1.6-3.9-.6-2.5-1.7-4.7-2.5-4.9-.8-.2-2-1.2-2.7-2.1-.9-1.1-1.5-1.2-2-.5-1.4 2.2-8 1.5-11.1-1.2-1.7-1.4-3.2-2-3.6-1.5-.7 1.2-5.5-.7-5.5-2.1 0-1.3-1.6-.9-3 .7z"/><path d="M599.6 479.32c-.4.7-.5 1.5-.2 1.8.9.9 1.9-.4 1.4-1.8-.4-1.1-.6-1.1-1.2 0zM603 487.62c0 2.3 1.6 3.9 3.3 3.2.9-.3 1.7-1 1.7-1.5 0-.4.8-.6 1.8-.3 1.4.4 1.4.4.2-.4-2.8-1.7-7-2.3-7-1zM453 510.22c0 .5.7 1.6 1.6 2.3 1.4 1.2 1.6 1.1 1.3-.5-.4-2-2.9-3.5-2.9-1.8zM494 558.82c0 .3 1.4 1.2 3 2.1 2.2 1.1 3 2.3 3 4.3.1 2.4.2 2.5 1.1.9.8-1.3.7-2.2-.2-3.3-1.3-1.6-6.9-4.8-6.9-4z"/></g></svg>