<?xml version="1.0" standalone="no"?>
<!DOCTYPE svg PUBLIC "-//W3C//DTD SVG 20010904//EN"
 "http://www.w3.org/TR/2001/REC-SVG-20010904/DTD/svg10.dtd">
<svg version="1.0" xmlns="http://www.w3.org/2000/svg"
 width="759.210016pt" height="549.000000pt" viewBox="0 0 759.210016 549.000000"
 preserveAspectRatio="xMidYMid meet">
<metadata>
Created by potrace 1.15, written by Peter Selinger 2001-2017
</metadata>
<g transform="translate(-677.851108,1317.000000) scale(0.100000,-0.100000)"
fill="#222222" stroke="none">
<path d="M8114 13153 c-6 -10 -8 -27 -3 -38 13 -34 10 -75 -6 -81 -10 -4 -13
-13 -9 -26 3 -10 0 -26 -7 -34 -17 -21 -19 -71 -3 -85 11 -9 12 -15 3 -25 -7
-8 -12 -33 -12 -57 1 -23 -4 -48 -10 -55 -7 -9 -7 -20 1 -37 9 -20 8 -25 -8
-30 -11 -4 -20 -13 -20 -20 0 -8 -6 -12 -13 -9 -8 3 -26 0 -40 -5 -22 -9 -27
-17 -27 -44 0 -24 -8 -41 -30 -62 -19 -18 -28 -35 -25 -46 7 -22 -4 -49 -21
-49 -16 0 -17 -1 -5 -32 20 -56 22 -78 5 -78 -12 0 -14 -5 -9 -17 5 -10 8 -42
9 -70 0 -64 21 -72 31 -13 l7 40 28 -20 c15 -11 40 -20 54 -20 21 0 26 5 26
25 0 23 3 25 50 25 38 0 52 4 60 19 5 11 23 22 38 26 17 3 35 17 43 31 10 19
19 24 37 21 16 -3 22 -1 18 9 -3 7 4 16 15 19 16 5 18 9 8 21 -15 18 -3 32 13
16 17 -17 33 -15 19 2 -9 10 -9 16 -1 21 8 5 8 10 0 20 -8 10 -8 15 0 20 8 5
4 15 -11 31 -12 12 -19 29 -16 37 3 8 1 41 -4 73 -5 33 -11 70 -13 84 -1 14
-6 35 -10 46 -4 15 -2 23 9 28 9 3 15 18 15 35 0 16 6 36 13 43 6 7 20 28 30
46 l18 32 -28 0 c-16 0 -34 -5 -40 -11 -9 -9 -20 -6 -46 10 -54 33 -60 44 -36
70 23 24 28 76 10 94 -9 9 -14 9 -21 -3 -7 -11 -14 -9 -36 13 -32 32 -36 33
-50 10z"/>
<path d="M8220 13156 c0 -8 7 -16 15 -20 10 -4 15 1 15 14 0 11 -7 20 -15 20
-8 0 -15 -6 -15 -14z"/>
<path d="M8641 13126 c-6 -7 -26 -16 -44 -20 -42 -9 -87 -29 -87 -40 0 -4 -7
-6 -15 -2 -9 3 -20 -3 -27 -14 -7 -11 -20 -20 -29 -20 -9 0 -19 -7 -23 -15 -6
-18 29 -21 40 -4 3 6 17 8 30 5 20 -5 24 -3 25 16 0 13 3 17 6 11 4 -10 9 -10
24 1 11 8 29 12 40 9 14 -4 19 0 19 16 0 14 12 27 36 39 21 11 32 22 27 25 -6
4 -16 1 -22 -7z"/>
<path d="M8370 12974 c0 -14 3 -15 18 -3 9 7 19 15 21 16 2 2 -5 3 -17 3 -14
0 -22 -6 -22 -16z"/>
<path d="M8520 12615 c0 -14 -6 -16 -27 -10 l-27 6 19 -22 c20 -22 20 -22 -1
-15 -15 5 -24 2 -28 -9 -3 -9 -2 -14 3 -10 15 9 41 -6 41 -25 0 -9 9 -25 19
-34 11 -10 17 -24 14 -32 -3 -8 -1 -14 5 -12 10 3 12 -1 12 -21 0 -4 -10 -6
-23 -4 -34 7 -51 -35 -36 -89 8 -31 8 -43 -2 -48 -6 -4 -8 -13 -5 -19 10 -16
26 -13 20 3 -4 9 5 20 24 30 16 8 32 22 35 31 4 8 12 15 19 15 20 0 43 32 46
63 2 16 12 42 22 60 22 35 27 87 9 87 -7 0 -18 8 -25 18 -13 16 -13 16 -14 0
0 -22 1 -22 -43 -3 -46 19 -48 19 -40 -2 5 -14 3 -15 -6 -7 -10 9 -10 17 -2
32 7 14 8 23 1 27 -5 3 -10 -1 -10 -10z"/>
<path d="M8430 12260 c0 -5 10 -10 23 -10 18 0 19 2 7 10 -19 13 -30 13 -30 0z"/>
<path d="M8016 12199 c-14 -17 -26 -34 -26 -39 0 -21 -45 -18 -72 6 -16 13
-36 24 -44 24 -8 0 -13 6 -11 13 1 7 -7 11 -23 9 -39 -4 -50 -10 -50 -29 -1
-35 -37 -88 -60 -88 -18 0 -26 -9 -37 -47 -11 -41 -17 -48 -38 -48 -25 0 -37
-29 -12 -31 6 0 2 -4 -10 -9 -13 -5 -23 -14 -23 -20 0 -5 -7 -10 -15 -10 -28
0 -53 -36 -51 -74 0 -20 4 -36 9 -36 4 0 6 -17 6 -37 -1 -24 -3 -29 -6 -15 -3
14 -12 22 -25 22 -17 0 -20 -4 -14 -30 5 -27 3 -30 -22 -30 -26 -1 -26 -1 -7
-15 53 -38 59 -55 20 -55 -14 0 -25 -5 -25 -10 0 -7 -7 -7 -21 0 -11 7 -22 10
-23 8 -20 -28 -46 -83 -46 -98 0 -11 -9 -24 -19 -30 -17 -8 -18 -14 -8 -39 9
-26 7 -35 -17 -72 -25 -37 -26 -43 -12 -51 9 -5 16 -13 16 -17 0 -12 -49 -20
-56 -10 -7 11 -34 12 -34 1 0 -5 16 -27 36 -50 38 -45 40 -82 3 -82 -11 0 -19
-7 -19 -16 0 -9 -5 -14 -11 -12 -6 2 -25 -9 -42 -25 -19 -17 -38 -27 -49 -24
-11 3 -18 0 -18 -10 0 -9 -6 -12 -19 -8 -14 4 -21 -2 -31 -25 -13 -32 -25 -38
-33 -17 -4 7 -6 6 -6 -4 -1 -9 6 -22 14 -29 8 -7 15 -21 15 -31 0 -11 6 -19
14 -19 7 0 19 -7 26 -15 10 -12 9 -15 -5 -15 -15 0 -15 -2 -4 -16 20 -24 63
-43 96 -42 17 1 35 -2 42 -6 6 -4 11 -2 11 3 0 16 19 13 36 -4 9 -8 23 -15 32
-15 19 0 55 -56 46 -71 -3 -6 1 -21 10 -34 9 -13 16 -26 16 -29 0 -2 -20 -4
-44 -4 -38 0 -49 5 -83 39 -39 40 -80 50 -113 29 -10 -6 -21 -3 -37 12 -17 16
-26 18 -36 10 -10 -9 -19 -7 -35 9 -21 18 -24 19 -38 4 -10 -9 -24 -13 -33
-10 -38 15 -51 13 -71 -15 -17 -24 -18 -29 -4 -34 8 -3 12 -2 9 4 -3 6 1 10 9
10 8 0 17 -8 21 -17 8 -24 83 -75 90 -63 10 16 22 11 28 -11 5 -17 9 -19 26
-9 23 12 39 6 59 -22 7 -10 20 -18 28 -18 9 0 14 -11 14 -34 0 -46 9 -66 29
-66 10 0 28 -11 41 -25 22 -24 23 -26 5 -44 -12 -14 -15 -28 -11 -48 12 -49
28 -83 40 -83 16 0 56 -71 56 -99 0 -26 25 -38 45 -21 23 19 73 -6 89 -45 12
-27 20 -33 57 -38 25 -3 45 -2 47 4 2 5 8 9 14 9 6 0 7 -7 4 -16 -5 -14 -1
-16 25 -10 29 5 31 4 27 -18 -4 -20 0 -25 23 -28 33 -5 60 8 54 25 -5 12 37
37 62 37 7 0 18 -9 25 -19 8 -14 16 -17 24 -10 8 7 19 1 35 -18 13 -15 30 -28
38 -28 8 0 19 -8 24 -17 9 -13 7 -22 -8 -38 -14 -16 -16 -23 -7 -32 16 -16 15
-28 -3 -28 -10 0 0 -13 22 -32 21 -18 40 -35 43 -38 3 -3 18 -11 33 -18 15 -7
26 -16 22 -21 -3 -5 -1 -12 5 -16 5 -3 10 -16 10 -28 1 -45 114 -190 134 -170
3 3 6 -1 6 -10 0 -21 -19 -32 -47 -28 -24 3 -30 -8 -13 -25 6 -6 12 -23 13
-37 1 -17 14 -34 36 -49 36 -24 42 -33 61 -84 9 -25 19 -33 43 -37 31 -4 57
11 57 32 0 17 12 12 50 -19 l34 -30 28 27 c15 14 25 30 22 35 -3 4 0 8 5 8 6
0 11 7 11 15 0 21 13 19 70 -12 44 -24 51 -32 57 -65 4 -28 16 -47 41 -68 31
-26 34 -32 29 -65 -6 -37 -6 -37 15 -19 11 11 33 35 48 55 23 33 28 35 45 23
10 -7 21 -11 25 -9 4 2 21 0 39 -5 23 -6 31 -5 31 4 0 22 28 40 43 28 8 -7 18
-7 27 -2 8 6 25 10 37 10 12 0 23 4 25 10 2 5 24 10 49 11 40 2 46 5 41 21 -3
11 1 18 11 18 8 0 18 7 21 16 4 9 13 14 21 10 8 -3 15 -1 15 4 0 6 15 9 33 8
29 -3 32 -1 30 25 -2 24 0 26 18 17 21 -12 46 -2 68 24 10 12 17 13 31 4 26
-17 159 8 182 34 14 15 21 17 37 8 27 -14 127 -3 160 18 14 9 33 24 41 34 13
16 21 17 43 9 22 -9 33 -7 52 5 16 10 32 13 47 8 38 -12 76 -9 96 10 11 9 37
19 58 22 22 3 53 12 69 20 17 7 46 20 65 29 19 8 42 18 50 23 53 31 63 34 70
22 5 -8 21 -11 41 -7 19 2 42 0 52 -5 24 -12 67 15 67 43 0 17 2 18 23 7 12
-7 26 -11 31 -10 4 2 15 -3 23 -9 11 -10 17 -9 29 3 14 14 14 22 -7 79 -13 35
-26 66 -29 69 -19 14 -32 56 -27 89 5 33 2 39 -33 66 -22 17 -39 39 -40 50 0
24 -33 47 -55 39 -10 -4 -15 0 -15 10 0 10 -9 16 -24 16 -16 0 -45 20 -86 61
-34 33 -82 69 -108 80 -25 11 -52 29 -60 40 -8 11 -20 18 -27 15 -8 -3 -16 0
-19 7 -4 7 -4 2 -2 -10 5 -26 2 -27 -23 -13 -14 7 -26 2 -52 -20 -19 -16 -44
-29 -56 -30 -14 0 -21 -5 -18 -12 8 -23 -12 -40 -54 -48 -31 -5 -41 -4 -41 6
0 7 -8 12 -17 12 -10 -1 -27 2 -39 6 -14 4 -26 1 -34 -9 -16 -19 -33 -19 -72
1 -22 11 -33 13 -41 5 -14 -14 -47 -14 -47 0 0 6 -7 9 -16 7 -9 -2 -32 12 -51
30 -31 29 -37 31 -52 19 -17 -15 -45 -12 -35 4 3 5 1 9 -4 9 -6 0 -13 -7 -16
-17 -6 -14 -11 -12 -37 13 -16 15 -27 34 -25 41 7 17 -26 82 -41 83 -14 0 -43
39 -43 57 0 7 7 13 16 13 11 0 14 5 10 16 -3 9 -6 20 -6 25 0 5 -7 9 -15 9 -8
0 -15 6 -15 14 0 7 -9 25 -20 38 -10 14 -17 28 -13 32 3 3 -1 14 -9 23 -9 10
-24 45 -33 78 -10 33 -21 64 -26 70 -5 5 -9 17 -9 27 0 10 -8 30 -17 45 -10
14 -18 32 -19 40 -2 8 -10 23 -18 32 -9 10 -16 23 -16 29 0 7 -3 12 -7 12 -12
0 -29 43 -25 63 2 9 12 17 24 17 16 0 19 5 15 21 -5 17 -2 20 13 16 21 -5 55
36 45 53 -3 6 -1 10 4 10 6 0 11 7 11 15 0 8 7 15 16 15 14 0 15 7 10 45 -7
41 -5 45 18 51 13 3 27 12 30 20 3 8 17 14 31 14 17 0 24 4 19 11 -4 7 0 9 14
5 19 -6 20 -4 15 31 -3 21 -10 43 -15 50 -5 6 -6 27 -3 46 6 30 4 35 -15 40
-12 3 -19 10 -16 16 4 6 -1 22 -10 36 -9 14 -14 34 -11 45 3 13 -1 24 -14 30
-10 6 -19 8 -19 5 0 -4 -13 3 -30 15 -16 12 -30 27 -30 34 0 7 -16 20 -36 29
l-36 17 7 -30 c6 -28 -6 -42 -19 -21 -3 5 -23 7 -44 4 -34 -5 -42 -1 -65 27
-28 32 -32 46 -21 74 5 13 10 14 20 5 11 -9 11 -5 4 23 -6 18 -10 34 -10 35 0
2 -11 3 -25 3 -14 0 -25 5 -25 10 0 6 -7 10 -15 10 -8 0 -15 -4 -15 -10 0 -15
-28 -12 -37 3 -10 16 -43 30 -43 18 0 -4 -11 -6 -25 -3 -17 3 -27 13 -31 31
-9 34 -23 51 -43 51 -22 0 -65 45 -57 59 10 16 -16 51 -39 51 -11 1 -31 7 -45
15 -14 8 -43 14 -66 15 -31 0 -46 6 -63 26 -18 20 -20 28 -10 40 6 8 9 17 6
20 -3 3 -13 -6 -23 -20 -16 -25 -18 -26 -35 -10 -13 12 -19 13 -19 4 0 -10 -4
-9 -16 1 -40 33 -67 36 -103 12 -37 -25 -51 -29 -51 -12 0 7 -14 8 -39 4 -34
-6 -40 -4 -46 14 -10 31 -49 27 -79 -10z m-320 -606 c-7 -7 -26 7 -26 19 0 6
6 6 15 -2 9 -7 13 -15 11 -17z m-324 -445 c-11 -11 -32 -3 -32 12 0 12 34 18
39 7 2 -5 -1 -13 -7 -19z m174 -346 c-10 -10 -29 15 -21 28 6 9 10 8 17 -4 6
-10 7 -20 4 -24z m154 -626 c0 -3 -4 -8 -10 -11 -5 -3 -10 -1 -10 4 0 6 5 11
10 11 6 0 10 -2 10 -4z"/>
<path d="M7220 11334 c0 -8 5 -12 10 -9 6 3 10 10 10 16 0 5 -4 9 -10 9 -5 0
-10 -7 -10 -16z"/>
<path d="M7050 11193 c9 -50 33 -95 38 -72 2 10 12 19 24 22 19 5 18 8 -13 46
-42 53 -59 54 -49 4z"/>
<path d="M6853 11004 c4 -6 -3 -20 -14 -30 -11 -10 -18 -23 -15 -29 6 -16 -21
-48 -33 -40 -26 15 -8 -6 22 -26 21 -16 27 -17 18 -6 -12 15 -11 17 3 17 9 0
31 -6 49 -13 28 -12 34 -11 48 4 20 20 13 35 -44 93 -22 22 -38 36 -34 30z"/>
<path d="M7316 10832 c-3 -6 3 -12 15 -15 12 -3 19 -1 16 6 -5 15 -24 20 -31
9z"/>
<path d="M11395 10293 c15 -73 13 -92 -6 -98 -10 -4 -19 -12 -19 -20 0 -7 -18
-32 -40 -55 -44 -46 -50 -74 -20 -90 26 -14 25 -26 0 -33 -14 -4 -18 -10 -14
-22 6 -14 3 -16 -15 -10 -22 7 -22 6 -7 -22 18 -36 42 -57 55 -49 16 10 22
-11 11 -39 -11 -29 3 -61 21 -49 5 3 9 0 9 -5 0 -6 -6 -11 -14 -11 -10 0 -13
-7 -11 -20 2 -11 0 -18 -6 -15 -5 4 -9 16 -9 28 0 14 -11 28 -29 39 -20 11
-28 12 -25 4 8 -21 -20 -36 -59 -33 -20 2 -37 0 -37 -5 0 -4 -6 -8 -12 -8 -7
0 -28 -14 -47 -32 -21 -20 -44 -31 -62 -31 -16 0 -29 -5 -29 -10 0 -5 -8 -6
-17 -2 -10 4 -44 9 -75 11 -44 4 -56 2 -53 -8 3 -8 -7 -18 -25 -25 -19 -7 -30
-18 -30 -30 0 -27 -9 -34 -30 -23 -12 6 -16 17 -13 30 6 22 -25 60 -52 64 -7
1 -20 8 -29 15 -13 11 -18 10 -31 -3 -9 -9 -20 -16 -25 -16 -16 0 7 -56 34
-83 21 -21 26 -36 26 -76 0 -70 5 -78 63 -97 65 -21 75 -29 79 -62 3 -24 7
-27 43 -28 71 -3 75 -4 75 -22 0 -37 79 -78 96 -51 3 5 22 9 43 9 31 0 40 -5
49 -25 6 -14 18 -25 26 -25 8 0 26 -13 39 -30 14 -16 35 -30 46 -30 11 0 26
-7 33 -15 7 -8 26 -29 41 -45 19 -21 26 -37 22 -50 -3 -10 -1 -21 5 -25 5 -3
10 -17 10 -31 0 -13 4 -24 9 -24 4 0 6 -11 3 -25 -3 -16 -11 -25 -23 -25 -11
0 -19 -7 -19 -15 0 -14 3 -14 24 0 13 9 37 18 53 19 19 3 27 9 25 19 -1 9 7
18 19 22 16 5 19 12 15 30 -4 15 0 30 10 40 9 8 26 37 39 63 24 50 19 72 -16
72 -19 0 -26 15 -11 24 5 3 7 19 4 36 -3 22 1 35 14 45 12 8 19 26 19 47 0 27
4 34 23 36 12 2 22 10 22 18 0 8 5 14 10 14 17 0 11 28 -7 39 -14 8 -15 11 -3
11 11 0 10 4 -4 15 -11 8 -28 13 -37 10 -21 -7 -27 2 -34 49 -8 47 12 80 81
137 55 45 63 64 43 101 -10 18 -9 20 5 15 11 -4 15 -3 11 4 -4 6 0 18 9 27 8
10 12 22 8 28 -9 14 -45 27 -37 14 14 -22 -8 -8 -36 25 -17 19 -36 33 -42 32
-7 -1 -13 11 -15 26 -3 20 4 35 23 53 14 13 30 22 35 19 5 -3 14 3 19 14 8 15
7 20 -5 25 -8 3 -13 10 -10 15 4 5 0 12 -6 14 -8 3 -6 6 4 6 9 1 28 6 42 13
22 9 25 16 22 45 -3 18 0 33 4 33 5 0 7 7 3 16 -4 10 -13 14 -29 10 -12 -3
-26 -2 -29 4 -3 5 -15 10 -25 10 -20 0 -45 34 -35 50 3 5 1 11 -5 15 -5 3 -10
-1 -10 -10 0 -9 -5 -13 -10 -10 -6 3 -13 -1 -16 -9 -4 -11 -11 -13 -21 -7 -9
5 -24 6 -35 3 -12 -3 -25 3 -34 17 -18 25 -33 28 -29 4z"/>
<path d="M11690 10134 c0 -21 -4 -25 -17 -20 -15 5 -15 4 1 -9 19 -15 109 -18
100 -3 -3 4 -12 8 -20 8 -9 0 -14 7 -12 17 2 10 -2 18 -9 18 -6 0 -15 3 -19 8
-14 14 -24 7 -24 -19z"/>
<path d="M11416 8928 c-8 -12 -13 -25 -10 -30 3 -4 -6 -13 -20 -19 -13 -6 -30
-25 -37 -40 -6 -16 -17 -29 -24 -29 -20 0 -72 -55 -79 -84 -6 -25 -5 -26 38
-26 42 0 65 18 51 40 -3 4 9 13 26 19 25 9 29 14 24 32 -5 15 -3 20 6 17 13
-4 18 -24 22 -95 1 -17 5 -35 9 -38 3 -4 2 -20 -4 -36 -7 -19 -17 -29 -31 -30
-15 0 -17 -2 -7 -6 8 -4 21 -12 28 -20 9 -9 19 -10 31 -4 12 7 24 4 41 -10 14
-10 34 -19 46 -19 11 0 30 -11 42 -25 12 -14 26 -25 32 -25 5 0 10 -6 10 -13
0 -15 37 -40 50 -32 4 3 32 8 61 10 57 6 83 20 75 42 -4 9 2 8 19 -4 30 -22
68 -89 60 -104 -4 -6 11 -26 34 -45 40 -35 69 -99 57 -130 -3 -8 -4 -14 -2
-14 3 0 12 -3 22 -7 12 -4 15 -3 10 5 -14 23 8 12 55 -28 26 -22 55 -40 64
-40 9 0 37 -12 62 -26 33 -18 58 -24 86 -22 31 2 42 -2 46 -16 4 -9 10 -17 14
-17 4 1 21 -6 38 -14 28 -15 33 -15 55 -1 13 9 31 27 40 41 22 34 79 68 102
60 11 -3 24 1 32 10 7 8 23 15 36 15 30 0 32 30 5 74 -11 17 -20 34 -20 39 -1
4 -4 7 -8 8 -18 1 -43 34 -43 56 0 16 -10 30 -33 43 -34 20 -63 61 -54 77 9
16 -12 53 -31 53 -10 0 -27 9 -37 20 -10 11 -23 20 -28 20 -6 0 -20 9 -31 19
-49 46 -215 110 -284 111 -78 0 -97 2 -109 11 -7 7 -13 6 -17 0 -10 -15 -64 8
-71 30 -4 10 -13 19 -21 19 -8 0 -20 11 -26 25 -6 14 -18 25 -27 25 -9 0 -25
7 -35 15 -11 8 -26 15 -34 15 -8 0 -25 10 -37 23 -12 12 -35 30 -51 39 -16 10
-37 23 -46 30 -15 10 -22 10 -38 0 -22 -13 -62 -8 -97 14 -20 12 -24 12 -37
-8z"/>
<path d="M11235 8680 c-3 -5 -1 -10 4 -10 6 0 11 5 11 10 0 6 -2 10 -4 10 -3
0 -8 -4 -11 -10z"/>
<path d="M13020 8575 c0 -13 5 -27 10 -30 18 -11 58 -80 62 -106 3 -21 8 -24
48 -24 43 1 45 2 44 29 0 18 9 38 24 53 25 25 22 43 -8 43 -11 0 -24 9 -30 20
-15 28 -54 35 -82 16 -28 -20 -38 -20 -38 -2 0 8 -7 16 -15 20 -11 4 -15 -1
-15 -19z"/>
<path d="M13310 8519 c0 -5 -5 -7 -10 -4 -6 4 -20 -5 -32 -20 -13 -17 -27 -25
-39 -22 -17 5 -17 3 -2 -19 8 -13 19 -24 23 -24 12 0 40 -29 40 -41 0 -5 -9
-9 -21 -9 -15 0 -19 5 -15 16 5 12 1 14 -17 8 -12 -4 -33 -8 -47 -8 -18 -1
-24 -6 -22 -20 4 -23 -25 -56 -44 -49 -7 3 -28 -7 -45 -21 -17 -14 -39 -26
-48 -26 -14 0 -17 -6 -14 -24 3 -14 11 -23 21 -22 14 1 17 -7 15 -38 -2 -29 3
-42 20 -57 12 -10 28 -16 35 -14 7 3 12 -5 12 -20 0 -14 6 -25 13 -25 8 0 9
-3 1 -8 -20 -13 -21 -37 -3 -61 10 -13 16 -27 13 -32 -3 -5 -1 -17 5 -26 6
-12 5 -26 -4 -44 -16 -30 -9 -68 11 -70 53 -5 74 -2 79 10 4 10 9 10 19 2 15
-13 27 -5 20 14 -3 7 5 15 17 18 16 4 20 9 12 19 -18 23 0 63 30 66 21 3 28
11 37 40 15 57 12 84 -14 117 -19 23 -22 34 -14 49 6 10 7 36 4 56 -5 29 -2
39 10 44 15 6 15 9 -1 32 -9 14 -15 34 -12 45 3 12 -2 20 -14 24 -25 8 -24 25
1 25 12 0 17 5 14 13 -4 10 4 13 28 10 18 -3 38 -6 43 -7 6 -2 14 -4 19 -4 5
0 12 -6 17 -13 5 -8 10 -1 16 22 8 29 6 39 -16 67 -18 22 -27 28 -29 18 -2 -8
-10 -12 -18 -9 -8 3 -14 0 -14 -6 0 -6 -5 -11 -11 -11 -6 0 -9 9 -6 19 3 12
-1 22 -10 25 -24 10 -53 7 -53 -5z m67 -76 c-15 -15 -42 -9 -32 7 3 5 1 11 -5
15 -5 3 -10 13 -10 21 0 12 6 11 31 -7 27 -19 29 -23 16 -36z"/>
<path d="M14340 8261 c0 -8 -8 -11 -19 -8 -11 3 -29 -2 -40 -10 -12 -8 -21
-11 -21 -6 0 4 -5 0 -11 -9 -5 -10 -17 -18 -24 -18 -8 0 -15 -4 -15 -10 0 -5
-11 -12 -24 -16 -39 -9 -46 -85 -12 -123 19 -21 10 -72 -11 -64 -8 3 -21 -4
-29 -16 -9 -13 -26 -21 -42 -21 -19 0 -30 -7 -37 -22 -7 -16 -28 -28 -71 -41
-44 -13 -63 -24 -67 -38 -3 -12 -14 -19 -30 -19 -14 0 -27 -7 -31 -15 -8 -22
-25 -18 -48 10 -26 33 -42 32 -67 -7 -11 -18 -21 -30 -21 -25 0 4 -14 0 -31
-9 -23 -11 -34 -13 -42 -5 -6 6 -27 11 -48 11 -21 0 -47 8 -62 20 -14 11 -34
20 -45 20 -11 0 -25 7 -32 15 -7 8 -21 15 -33 15 -17 0 -19 -5 -15 -38 l6 -38
-43 6 c-24 4 -51 2 -60 -3 -11 -6 -26 -5 -40 1 -18 8 -26 8 -35 -3 -8 -10 -27
-12 -68 -9 l-57 5 30 -26 c26 -23 36 -25 75 -20 59 8 58 8 178 2 83 -4 104 -2
109 9 3 8 15 14 27 14 12 0 27 5 33 11 9 9 18 8 38 -5 14 -9 30 -14 35 -11 5
3 20 -6 34 -20 33 -33 46 -32 46 5 0 30 1 30 41 24 38 -6 41 -5 35 13 -6 19
-3 21 43 18 38 -2 48 1 44 11 -7 18 5 18 23 -1 23 -23 75 -20 81 5 3 11 9 20
14 20 5 0 21 14 36 31 20 22 34 29 50 26 15 -3 23 1 23 9 0 8 4 14 9 14 5 0
13 9 16 20 5 17 12 20 40 14 24 -4 36 -1 46 11 8 9 21 24 30 34 8 9 13 23 11
29 -2 7 6 12 17 12 22 0 28 14 11 25 -5 3 -10 15 -10 26 0 16 4 19 20 14 18
-6 20 -3 15 18 -5 20 -1 26 24 37 31 12 42 42 21 55 -5 3 -10 11 -10 16 0 6 6
7 13 3 7 -5 7 -1 -3 12 -8 10 -16 21 -17 23 -2 2 -3 -1 -3 -8z"/>
<path d="M12980 8245 c0 -10 -10 -15 -30 -15 -18 0 -33 -6 -37 -16 -4 -11 -14
-13 -34 -10 -16 4 -42 9 -59 12 -25 5 -30 2 -30 -14 0 -15 -5 -18 -25 -14 -14
2 -31 -1 -39 -7 -9 -8 -16 -8 -20 -2 -4 6 -15 2 -27 -10 l-21 -21 23 -44 c20
-37 22 -48 12 -73 -9 -24 -8 -33 3 -42 8 -6 14 -17 14 -24 0 -8 18 -11 57 -9
53 3 89 -9 78 -25 -6 -11 64 -42 104 -47 19 -3 40 -9 46 -14 6 -5 32 -18 57
-29 37 -15 46 -17 41 -5 -3 8 0 14 6 14 7 0 8 8 1 25 -6 16 -6 25 0 25 6 0 10
11 10 24 0 14 4 27 9 31 9 5 -2 20 -60 80 -10 12 -19 24 -19 29 0 4 -19 26
-42 48 -24 23 -37 37 -29 33 11 -6 13 -4 8 8 -4 10 -10 23 -13 31 -4 11 0 13
15 9 16 -4 19 -1 14 16 -3 12 -1 21 6 21 5 0 8 7 5 15 -4 8 -10 15 -15 15 -5
0 -9 -7 -9 -15z"/>
<path d="M13000 8160 c0 -6 7 -10 15 -10 8 0 15 2 15 4 0 2 -7 6 -15 10 -8 3
-15 1 -15 -4z"/>
<path d="M14160 7911 c0 -5 5 -13 10 -16 6 -3 10 -2 10 4 0 5 -4 13 -10 16 -5
3 -10 2 -10 -4z"/>
<path d="M13730 7690 c0 -5 5 -10 11 -10 5 0 7 5 4 10 -3 6 -8 10 -11 10 -2 0
-4 -4 -4 -10z"/>
</g>
</svg>
