<?xml version="1.0" standalone="no"?>
<!DOCTYPE svg PUBLIC "-//W3C//DTD SVG 20010904//EN"
 "http://www.w3.org/TR/2001/REC-SVG-20010904/DTD/svg10.dtd">
<svg version="1.0" xmlns="http://www.w3.org/2000/svg"
 width="760.491717pt" height="500.550172pt" viewBox="0 0 760.491717 500.550172"
 preserveAspectRatio="xMidYMid meet">
<metadata>
Created by potrace 1.15, written by Peter Selinger 2001-2017
</metadata>
<g transform="translate(-619.006593,1172.500670) scale(0.100000,-0.100000)"
fill="#222222" stroke="none">
<path d="M7520 11714 c0 -12 -7 -14 -29 -9 -24 5 -30 2 -36 -14 -3 -12 -12
-21 -20 -21 -7 0 -16 -6 -18 -12 -4 -9 -14 -4 -30 14 -14 15 -38 30 -54 34
-15 3 -36 8 -45 11 -12 3 -18 -1 -18 -11 0 -22 -45 -49 -69 -41 -16 5 -20 1
-23 -21 l-3 -27 -34 29 c-31 26 -63 36 -111 34 -8 0 -29 -1 -46 -1 -17 -1 -43
7 -58 16 -25 17 -26 16 -26 -1 0 -11 -11 -27 -24 -36 -30 -22 -107 -49 -118
-42 -5 3 -23 -8 -40 -25 -18 -17 -37 -31 -43 -31 -7 0 -10 -12 -7 -30 3 -22 0
-30 -11 -30 -8 0 -17 5 -19 11 -2 6 -21 13 -43 15 -22 3 -48 6 -57 8 -12 3
-18 -2 -18 -14 0 -11 -12 -31 -26 -45 -16 -16 -24 -33 -21 -45 7 -28 -17 -31
-30 -4 -7 15 -7 22 -1 21 6 -1 13 4 15 12 4 10 0 11 -18 5 -13 -4 -32 -8 -41
-8 -12 0 -18 -8 -18 -23 0 -13 -5 -23 -11 -23 -5 0 -8 -4 -5 -9 9 -14 54 -19
65 -8 17 17 13 -5 -5 -31 -8 -12 -22 -22 -30 -22 -16 0 -16 -3 -14 -78 2 -68
-8 -112 -25 -112 -8 0 -17 -9 -20 -20 -3 -11 -11 -20 -16 -20 -16 0 -9 -25 11
-38 11 -7 20 -19 20 -28 0 -12 7 -15 25 -12 17 4 25 1 25 -8 0 -8 -7 -14 -15
-14 -8 0 -14 -5 -12 -12 1 -6 -6 -14 -17 -16 -10 -2 -16 0 -12 6 4 6 -2 8 -14
5 -13 -3 -20 0 -20 8 0 9 -3 10 -8 3 -12 -17 -42 -25 -36 -10 10 25 -16 28
-46 4 -33 -26 -41 -63 -12 -54 12 4 23 -3 35 -23 15 -26 23 -29 62 -29 25 1
45 5 45 10 0 4 8 8 18 7 9 0 12 -3 6 -5 -16 -7 -5 -44 12 -44 8 0 14 -7 14
-15 0 -8 -5 -15 -12 -15 -7 0 -7 -6 3 -17 22 -27 39 -61 39 -76 0 -8 11 -26
25 -41 14 -15 24 -30 24 -34 -4 -27 3 -42 22 -42 18 0 20 -4 14 -27 -3 -16
-14 -36 -22 -45 -9 -10 -12 -18 -7 -18 5 0 3 -4 -5 -9 -18 -12 -6 -81 14 -81
8 0 15 -5 15 -11 0 -8 5 -7 15 1 12 10 19 10 27 2 15 -15 61 -15 75 -1 8 8 14
5 23 -10 6 -12 8 -26 4 -32 -3 -6 8 -24 25 -39 31 -29 41 -65 20 -72 -19 -6
12 -56 40 -64 20 -5 22 -8 9 -11 -13 -3 -18 -14 -18 -38 0 -19 -4 -37 -10 -40
-15 -9 -8 -54 12 -72 10 -9 18 -26 18 -38 0 -16 9 -26 30 -35 19 -8 40 -30 57
-61 14 -27 30 -49 34 -49 18 0 67 -86 63 -110 -2 -14 2 -47 9 -74 11 -41 18
-51 41 -57 52 -14 76 -49 32 -49 -33 0 -53 -25 -36 -45 7 -8 10 -15 6 -15 -3
0 4 -10 15 -21 l22 -22 -22 -11 c-21 -12 -21 -12 8 -34 21 -15 28 -27 24 -42
-3 -11 -12 -20 -19 -20 -12 0 -12 -4 -2 -20 7 -11 18 -20 24 -20 6 0 17 -6 23
-14 6 -7 32 -16 58 -19 42 -4 66 -20 75 -49 2 -5 28 -15 58 -23 101 -26 205
-65 218 -83 7 -9 21 -27 32 -39 10 -12 23 -31 30 -42 6 -12 15 -21 21 -21 6 0
38 -28 70 -62 33 -35 65 -63 72 -63 7 0 22 -10 35 -22 25 -26 42 -29 42 -9 0
20 21 25 45 13 25 -13 64 -16 90 -6 14 5 31 -1 55 -19 19 -14 37 -30 38 -34 8
-18 32 -7 32 15 l1 22 19 -24 c11 -13 20 -29 20 -37 0 -21 32 -35 45 -18 17
23 48 -6 48 -44 0 -35 23 -51 32 -23 7 23 54 25 63 2 11 -29 26 -36 85 -36 40
0 57 4 57 13 0 7 5 10 10 7 6 -4 8 -11 5 -16 -3 -5 1 -6 10 -3 23 9 45 57 34
75 -12 20 -11 76 2 85 8 4 7 9 -2 16 -11 7 -11 11 -1 15 6 2 12 11 12 19 0 17
-1 17 39 3 17 -6 31 -15 31 -21 0 -5 4 -6 10 -3 5 3 20 -1 34 -10 19 -13 25
-13 29 -3 4 8 8 5 12 -9 14 -46 73 -52 185 -18 30 9 64 18 75 20 11 1 21 4 23
5 6 6 28 6 42 -1 11 -5 26 3 49 27 23 23 38 31 45 25 17 -14 83 10 97 36 7 12
19 22 28 21 40 -3 53 2 47 18 -5 14 1 15 41 11 27 -2 65 -9 85 -15 30 -8 38
-7 40 5 2 11 13 9 51 -11 26 -14 59 -26 73 -26 17 0 28 -7 31 -20 3 -13 23
-26 55 -38 37 -13 48 -21 45 -34 -6 -22 16 -30 48 -18 37 14 77 6 121 -23 45
-31 53 -33 68 -11 14 18 64 10 73 -11 3 -10 13 -11 36 -4 43 12 57 6 90 -41
34 -49 71 -55 81 -14 l7 27 22 -21 c41 -37 60 -36 102 8 39 40 55 43 55 10 0
-13 5 -17 14 -14 23 9 78 -37 72 -60 -7 -26 28 -91 60 -113 15 -10 37 -29 50
-42 18 -18 27 -21 37 -13 11 9 17 4 30 -23 14 -30 21 -34 50 -33 19 1 39 -2
45 -6 6 -3 13 -2 17 3 3 6 12 8 20 4 9 -3 25 1 38 10 37 24 123 32 152 13 13
-9 30 -16 37 -16 7 0 30 -11 50 -25 20 -14 42 -25 48 -25 6 0 35 -11 63 -24
73 -33 85 -37 147 -46 51 -7 58 -5 99 22 34 23 46 26 58 17 7 -7 48 -80 89
-163 81 -164 114 -204 198 -246 46 -22 51 -28 49 -55 -1 -16 -7 -31 -13 -33
-14 -5 -12 -19 3 -19 27 0 65 -35 82 -76 27 -66 44 -92 56 -89 17 4 48 -28 43
-43 -3 -7 0 -16 5 -20 6 -3 9 -10 6 -14 -2 -5 9 -20 25 -35 17 -14 30 -33 30
-41 0 -8 11 -22 24 -30 15 -10 26 -30 31 -53 11 -64 15 -71 66 -103 27 -18 77
-66 111 -107 43 -52 74 -80 105 -93 42 -18 53 -32 33 -44 -15 -10 -12 -45 5
-45 9 0 12 6 9 15 -11 27 13 16 38 -17 29 -38 44 -78 30 -78 -12 0 -3 -84 9
-88 14 -6 10 -29 -6 -36 -21 -8 -19 -22 6 -44 19 -18 19 -20 2 -27 -10 -5 -22
-7 -27 -6 -5 1 -4 -5 4 -13 15 -19 24 -21 14 -4 -4 7 -3 8 5 4 14 -9 5 -26
-14 -26 -22 0 -7 -26 23 -40 51 -25 142 -2 142 35 0 12 7 28 15 35 8 7 15 23
15 36 l0 24 21 -21 c13 -13 28 -19 41 -16 11 3 27 0 34 -8 12 -12 18 -10 39
11 20 20 23 29 15 43 -9 17 -6 18 25 11 26 -6 37 -4 43 6 11 20 67 0 59 -20
-7 -17 57 -69 87 -71 11 -1 25 -10 30 -21 16 -29 28 -35 57 -30 14 3 31 0 36
-5 6 -6 14 -5 23 6 11 14 14 13 27 -2 14 -17 14 -17 9 1 -4 12 1 26 14 38 11
10 20 26 20 34 0 8 21 24 48 36 26 11 56 29 68 39 11 10 42 22 70 25 27 4 54
11 61 16 7 6 20 5 34 -2 21 -12 21 -11 15 25 -5 27 -4 40 6 46 10 7 10 9 -3 9
-9 0 -21 11 -27 25 -10 22 -9 25 7 25 24 0 61 -75 40 -82 -18 -6 2 -36 27 -41
21 -4 23 -1 17 21 -4 16 -2 23 4 19 6 -4 16 0 23 8 10 11 9 18 -4 30 -20 20
-21 29 -2 22 8 -3 17 1 20 9 6 16 42 19 51 4 11 -18 25 0 25 32 0 29 2 30 33
24 26 -5 29 -4 16 7 -8 6 -30 32 -47 56 l-32 45 30 27 c16 15 38 30 49 34 11
3 20 14 20 23 1 9 2 24 2 32 1 8 -1 25 -5 38 -5 16 -3 22 7 22 8 0 17 7 21 15
3 10 -1 15 -14 15 -36 0 -52 29 -45 79 6 44 3 50 -44 114 -29 40 -48 74 -44
83 3 8 -3 24 -12 34 -18 19 -17 20 6 20 22 0 24 3 21 45 -2 24 -10 49 -18 56
-8 6 -14 15 -14 20 0 20 -44 59 -60 54 -23 -7 -55 23 -69 63 -9 30 -9 35 9 39
35 9 18 100 -20 110 -11 3 -20 13 -20 22 0 9 -16 27 -35 41 -19 14 -35 31 -35
38 0 6 -4 12 -8 12 -5 0 -16 25 -26 55 -9 31 -26 61 -37 68 -24 15 -24 23 1
30 18 5 20 11 14 55 -5 43 -3 51 12 54 16 3 16 4 2 19 -15 15 -15 17 3 32 17
15 19 15 28 -1 8 -15 11 -13 21 12 6 16 15 49 21 74 5 25 13 50 17 56 3 6 7
39 9 74 1 40 8 68 18 78 16 17 21 64 6 64 -17 0 -30 58 -21 90 6 20 5 30 -2
30 -5 0 -7 7 -4 16 3 8 2 13 -3 9 -5 -3 -20 8 -33 24 -16 21 -35 32 -64 37
-36 5 -42 3 -57 -20 -19 -28 -45 -34 -53 -12 -3 8 -11 17 -19 19 -10 4 -9 -3
2 -33 9 -23 12 -46 8 -57 -5 -10 -7 -22 -6 -26 1 -5 -4 -7 -11 -5 -8 3 -13 24
-14 57 -1 29 -6 57 -12 63 -14 14 -42 3 -42 -16 0 -10 6 -13 15 -10 12 5 13 1
4 -25 -10 -27 -13 -30 -27 -19 -13 11 -15 9 -9 -24 5 -32 3 -37 -16 -41 -21
-4 -21 -4 1 -6 25 -1 26 -21 2 -29 -7 -3 -10 0 -6 7 5 7 -3 11 -21 11 -27 -1
-27 -1 -9 -15 15 -11 17 -18 8 -27 -8 -8 -20 -2 -49 25 -20 21 -44 37 -53 37
-16 0 -110 86 -110 101 0 5 -9 9 -20 9 -19 0 -24 12 -23 48 1 7 -10 20 -22 28
-13 9 -21 22 -19 29 7 17 -21 71 -41 78 -8 4 -15 11 -15 17 0 14 -46 56 -83
76 l-28 15 31 25 c24 21 29 31 24 52 -8 40 -27 75 -47 91 -10 7 -16 19 -13 26
3 8 -2 19 -10 25 -11 10 -14 10 -14 1 0 -7 -4 -10 -9 -7 -5 3 -8 17 -8 31 0
21 3 24 21 19 11 -4 26 -14 33 -23 11 -14 13 -14 14 -1 1 8 0 23 -1 33 -1 18
0 18 25 1 15 -10 36 -19 47 -19 16 -1 18 3 13 26 -8 36 0 49 26 42 13 -4 17
-9 10 -16 -6 -6 -5 -17 6 -33 8 -13 11 -29 7 -35 -5 -9 6 -11 47 -7 30 3 47 4
38 1 -12 -3 -15 -11 -11 -26 7 -27 34 -50 43 -35 4 6 14 5 27 -3 17 -11 24
-11 34 -1 6 6 23 12 38 12 l25 1 -22 18 c-17 14 -21 27 -18 62 1 24 3 46 5 49
1 3 1 20 0 38 -1 17 3 32 9 32 6 0 11 7 11 15 0 8 -9 15 -20 15 -24 0 -26 16
-3 28 11 7 14 18 10 39 -4 23 -1 31 15 38 25 12 45 41 35 51 -4 4 -13 2 -19
-4 -16 -16 -38 -15 -38 1 0 7 -9 21 -21 30 -17 15 -20 27 -17 61 2 25 -2 48
-9 55 -17 15 -23 14 -23 -5 0 -9 -7 -14 -17 -12 -10 2 -17 11 -17 21 1 9 -3
17 -10 17 -6 0 -22 9 -36 20 -14 11 -38 20 -54 20 -25 0 -28 3 -23 25 3 19 -1
29 -17 37 -11 6 -31 19 -43 30 l-22 20 -23 -26 c-20 -22 -32 -27 -81 -27 -59
-2 -87 -20 -87 -59 0 -8 -11 -25 -24 -37 l-23 -23 -19 21 c-14 16 -15 22 -5
28 18 11 18 15 1 35 -13 17 -14 17 -20 1 -5 -14 -14 -10 -54 29 -27 25 -52 46
-57 46 -5 0 -14 -9 -21 -20 -7 -11 -19 -20 -26 -20 -7 0 -15 -7 -19 -16 -3 -8
-12 -13 -19 -10 -8 3 -14 2 -14 -2 0 -4 -34 -6 -75 -5 -85 2 -165 32 -165 61
0 10 -9 23 -20 30 -11 7 -20 21 -20 32 0 22 -39 44 -53 30 -9 -8 -67 20 -67
33 0 4 -9 7 -20 7 -13 0 -18 5 -14 15 4 10 0 15 -11 15 -9 0 -14 4 -11 8 3 5
-20 18 -51 28 -43 14 -59 25 -66 45 -6 14 -23 31 -39 37 -18 7 -28 17 -28 31
0 12 -4 21 -9 21 -5 0 -36 24 -69 54 -34 30 -70 57 -81 61 -11 3 -21 12 -23
20 -2 11 -14 10 -63 -7 -72 -25 -85 -34 -85 -60 0 -16 -5 -19 -24 -14 -14 3
-28 1 -31 -5 -5 -6 -12 -4 -22 8 -11 14 -16 15 -20 5 -4 -10 -10 -9 -27 6 -26
24 -56 35 -56 21 0 -6 -9 -8 -19 -4 -11 3 -22 1 -26 -5 -4 -6 -14 -9 -22 -6
-9 4 -11 2 -7 -5 4 -7 1 -10 -7 -7 -8 3 -13 11 -12 17 2 6 -10 11 -25 11 -55
0 -137 60 -181 131 -20 33 -75 79 -93 79 -8 0 -20 6 -27 13 -10 10 -11 9 -6
-5 4 -10 2 -19 -4 -19 -6 -1 -17 -2 -23 -3 -7 -1 -24 8 -38 20 -14 12 -35 25
-47 29 -16 4 -23 14 -23 30 0 13 -5 27 -11 31 -7 4 -9 0 -6 -12 8 -26 -59 -60
-81 -41 -8 6 -27 10 -43 9 -44 -5 -71 7 -64 27 8 26 -5 52 -24 49 -9 -1 -26 3
-37 10 -12 6 -24 9 -26 6 -3 -2 -11 2 -18 11 -7 8 -23 15 -37 15 -13 0 -26 7
-30 18 -4 9 -15 23 -25 30 -14 10 -16 17 -8 27 12 15 3 45 -14 45 -6 0 -4 4 4
10 33 21 -17 30 -161 29 -59 0 -79 3 -89 16 -8 10 -23 20 -33 24 -11 4 -27 31
-40 71 -20 56 -26 64 -57 75 -80 28 -76 29 -89 -15 -10 -33 -16 -40 -37 -40
-13 0 -33 -5 -44 -12 -15 -10 -22 -9 -38 5 -10 9 -28 17 -40 17 -15 0 -22 6
-22 19 0 20 -23 45 -33 35 -3 -3 -11 -3 -17 1 -8 5 -6 14 5 31 16 26 8 57 -17
67 -10 4 -9 8 2 16 13 9 13 12 -2 28 -11 10 -18 12 -18 5 0 -8 -7 -9 -22 -3
-52 21 -64 24 -88 22 -14 -2 -29 -7 -34 -12 -17 -15 -49 -11 -42 6 3 9 0 15
-8 15 -8 0 -16 5 -18 12 -2 6 -12 9 -21 5 -12 -5 -15 -14 -11 -35 5 -26 3 -30
-22 -36 -16 -4 -35 -13 -42 -19 -23 -18 -91 -18 -102 1 -7 13 -12 14 -18 4 -6
-9 -19 -3 -49 23 -47 40 -59 43 -66 16 -3 -14 -11 -18 -25 -14 -14 3 -22 -1
-27 -17 -4 -13 -12 -19 -21 -16 -8 3 -14 -1 -14 -9 0 -20 -5 -19 -89 16 -58
24 -79 29 -96 21 -13 -6 -27 -6 -38 0 -11 6 -17 5 -17 -1 0 -18 -64 0 -92 26
-20 19 -30 23 -44 15 -12 -7 -30 -6 -57 4 -53 19 -73 18 -97 -6 -11 -11 -33
-20 -50 -20 -16 0 -30 -3 -30 -8 0 -9 -56 -13 -165 -13 -100 1 -107 2 -122 16
-6 7 -30 15 -51 19 -38 6 -41 9 -47 46 -5 31 -12 41 -30 46 -13 3 -29 3 -34
-1 -6 -3 -11 -2 -11 4 0 17 -41 50 -56 44 -8 -3 -14 -1 -14 4 0 4 -9 14 -20
21 -17 10 -20 10 -20 -4z m90 -64 c0 -5 -10 -10 -22 -10 -19 0 -20 2 -8 10 19
13 30 13 30 0z m-1242 -715 c-3 -3 -9 2 -12 12 -6 14 -5 15 5 6 7 -7 10 -15 7
-18z m6527 -1295 c3 -5 1 -10 -4 -10 -6 0 -11 5 -11 10 0 6 2 10 4 10 3 0 8
-4 11 -10z m291 -692 c-21 -27 -46 -37 -46 -18 0 6 5 10 10 10 6 0 10 9 10 19
0 14 7 18 24 17 l23 -1 -21 -27z"/>
<path d="M6292 11440 c-17 -28 -16 -30 17 -30 21 0 29 4 27 16 -4 27 -30 35
-44 14z"/>
<path d="M11353 11318 c3 -10 2 -20 -2 -23 -5 -3 -12 2 -15 11 -5 13 -12 10
-36 -16 -17 -18 -30 -35 -30 -39 0 -4 -13 -6 -29 -3 -16 2 -32 -1 -35 -7 -9
-15 18 -64 51 -92 15 -13 28 -31 28 -39 0 -11 9 -14 36 -12 23 2 42 -2 52 -12
20 -20 47 -21 47 -1 0 8 4 15 9 15 15 0 -18 58 -42 75 -22 15 -18 19 16 15 16
-1 17 4 11 37 -8 48 -16 63 -45 88 -19 17 -21 17 -16 3z"/>
<path d="M11461 11082 c11 -17 9 -24 -12 -50 -13 -17 -30 -31 -36 -31 -7 -1
-14 -5 -14 -11 -1 -5 -2 -15 -3 -22 0 -7 10 -23 22 -36 19 -18 27 -20 38 -11
18 15 17 39 -1 63 -17 23 -20 40 -5 31 6 -3 10 -2 10 4 0 6 6 8 13 6 6 -3 19
0 27 5 13 8 13 13 0 37 -9 15 -24 29 -33 31 -16 3 -17 1 -6 -16z"/>
<path d="M11223 11059 c14 -8 22 -8 30 0 8 8 3 11 -18 11 -26 -1 -28 -2 -12
-11z"/>
<path d="M11270 11061 c0 -5 9 -11 19 -14 14 -3 18 -1 14 9 -6 15 -33 19 -33
5z"/>
<path d="M11347 11047 c-6 -15 15 -47 31 -47 13 0 4 36 -13 50 -9 8 -14 7 -18
-3z"/>
<path d="M11136 11005 c7 -16 43 -40 50 -33 2 3 -10 14 -26 26 -21 16 -28 18
-24 7z"/>
<path d="M11274 10986 c-3 -9 -17 -16 -30 -16 -13 0 -24 -4 -24 -9 0 -15 80
-62 93 -54 7 4 19 6 28 5 12 -2 15 6 14 40 -1 42 -2 43 -38 46 -27 2 -39 -1
-43 -12z"/>
<path d="M11423 10869 c-14 -5 -21 -14 -18 -24 16 -51 15 -50 31 -27 8 12 14
31 12 41 -2 15 -8 17 -25 10z"/>
<path d="M11274 10824 c3 -9 6 -18 6 -20 0 -2 9 -4 19 -4 26 0 16 35 -10 37
-15 1 -19 -3 -15 -13z"/>
<path d="M11332 10773 c2 -10 12 -19 23 -22 11 -2 22 -7 25 -12 3 -4 11 0 17
10 10 16 9 18 -6 14 -9 -2 -23 3 -30 11 -18 21 -33 20 -29 -1z"/>
<path d="M12647 9570 c6 -22 28 -27 39 -8 4 6 3 8 -3 5 -6 -4 -13 0 -17 8 -8
22 -25 18 -19 -5z"/>
<path d="M8868 8822 c-10 -2 -18 -8 -18 -13 0 -8 47 -3 58 6 7 5 -24 11 -40 7z"/>
<path d="M8529 8744 c-7 -8 -21 -13 -32 -10 -14 3 -17 1 -13 -11 8 -19 -38
-65 -51 -52 -6 6 -15 -1 -23 -15 -12 -23 -10 -27 20 -53 49 -41 80 -54 113
-49 16 2 31 7 35 10 3 3 12 0 20 -7 13 -10 14 -9 7 3 -20 32 -12 102 10 94 9
-4 11 2 7 21 -2 15 -14 30 -27 35 -12 5 -25 18 -28 29 -6 25 -20 27 -38 5z"/>
<path d="M8835 8752 c-13 -9 -18 -42 -8 -42 12 0 34 38 25 44 -4 3 -12 2 -17
-2z"/>
<path d="M8710 8724 c0 -8 -8 -14 -19 -14 -10 0 -23 -6 -29 -12 -7 -10 -1 -17
24 -29 32 -15 34 -15 39 2 4 11 13 19 21 19 25 0 16 37 -11 42 -17 4 -25 1
-25 -8z"/>
<path d="M8810 8689 c0 -5 5 -7 10 -4 6 3 10 8 10 11 0 2 -4 4 -10 4 -5 0 -10
-5 -10 -11z"/>
<path d="M13676 7021 c-3 -5 1 -11 9 -15 8 -3 15 -1 15 4 0 13 -18 22 -24 11z"/>
</g>
</svg>
