<svg version="1" xmlns="http://www.w3.org/2000/svg" width="868.882" height="1079.172" viewBox="0 0 651.662 809.379"><g fill="#222"><path d="M54.262 1.092c.3.8 0 1.8-.6 2.2-.8.5-.8 1 0 2 .6.7.9 1.9.8 2.6-.4 1.8-3.7 4.3-4.6 3.4-.3-.3-.1-1 .6-1.4.9-.5 1-1.4.3-3.2-.6-1.4-1-1.7-1-.8-.1.8-1.7 2.3-3.6 3.2-2.4 1.1-3.5 2.3-3.3 3.5.2 1-.3 1.7-1.2 1.7-.8 0-1.4-.7-1.4-1.6.1-.9-.7-2.1-1.6-2.7-1.5-.9-1.7-.8-1.3.9.3 1.1.9 2.2 1.4 2.5 1.9 1.1.9 2.5-1 1.4-2.5-1.3-3.4-1.3-2.6.1.4.5-.1 1.9-1 2.9-1.5 1.6-1.5 2.2-.5 3.5.8 1 .9 1.5.1 1.5-.6 0-1.7 1.5-2.4 3.2-.8 1.8-2.1 3.9-3 4.7-1 .7-1.7 2.6-1.7 4.1 0 1.6-.6 3-1.2 3.3-1 .3-.9 1.3.5 4.1 2.2 4.8 2.2 10.5 0 12.1-1.3 1-1.7 2.9-1.8 8.4 0 3.9-.3 7.1-.7 7.1-.5 0-.8.9-.8 2 0 1.5.7 2 2.9 2 1.6 0 3.1-.6 3.3-1.2.7-2 8.7 6.1 8.1 8.1-.3 1.1-.1 1.1.7-.3 1.1-1.7 1.3-1.6 3.1 1 2.5 3.8 2.4 4.4-.5 4.4-2.5 0-2.5 0-1 3.6.8 1.9 1.2 4.3.9 5.3-.3 1.1.4 2.6 2 4.1 1.4 1.3 2.5 3.2 2.5 4.3 0 1.6.3 1.7 1.5.7 2-1.6 1.9-2.8-.2-3.3-1.5-.3-1.3-.6.9-1.7 1.5-.7 3-2.2 3.4-3.2.4-1.2 1.1-1.7 2.1-1.4 1.1.4 1.3.2.9-.9-.3-.8-.1-1.5.4-1.5.6 0 1 .4 1 1 0 .5.9 1 2 1 2 0 2.6-2.2 2.1-7.4-.1-1.8 0-1.8 2.1-.2 5.9 4.3 8.2 5.4 11.7 5.4 3.4.1 3.8-.2 3.4-2.2-.3-1.3.2-3 1.2-3.9.9-.9 1.4-2.1 1-2.7-.3-.5.3-2.8 1.5-5.2 1.1-2.3 2-5.3 2-6.7 0-1.4.4-3.3 1-4.1.6-.9.5-1.7-.3-2.2-.9-.5-.7-1.2.6-2.5 1.8-1.7 1.9-1.7 3.4.4.9 1.4 2.6 2.3 4.2 2.3 1.4 0 3.1.4 3.6.8 1.2.9 1.5 5.2.3 5.2-.4 0-.8.8-.8 1.8s-.9 2.8-2 3.9c-1.6 1.8-1.7 2.3-.6 3.3 1.5 1.2 1.1 8.6-.6 10.7-1.6 2-4.8 8.6-4.8 9.9 0 .6-.7 1.7-1.5 2.4s-1.5 1.9-1.5 2.7c0 .7-1.8 3.1-4 5.2-3.6 3.4-5.6 7.2-3 5.6.6-.3 1 .3 1 1.3 0 2.3-2.4 3.6-6 3.3-2-.2-2.2 0-1 .8.8.6 2.5 1.1 3.6 1.1 1.2 0 2.6.6 3.1 1.2 1 1.3 3.5 11.2 4.2 16.2 0 .5.7.4 1.4-.2.9-.8 1.8-.3 3.2 1.9 1.1 1.6 4.3 4.1 7.2 5.5 2.9 1.4 5.7 3.2 6.4 4 .6.8 2.6 1.4 4.5 1.4 1.8 0 3.6.4 3.9 1 .7 1.2 2.5 1.3 2.5.2 0-.4-1.6-2.4-3.5-4.6-4-4.4-4.3-5.1-1.4-3.6 1.7 1 2 .9 1.9-.7-.6-5.6.1-8.3 2.6-9.9 1.8-1.2 2.8-1.4 3.6-.6 1.5 1.5 3.8.3 3.8-2 0-1.7.3-1.8 1.5-.8 1.9 1.6 2 4 .1 4-2 0-3 6.1-1.2 7.9 1.3 1.3 1.3 1.8-.4 4.1-2.9 4.1-.6 5.6 2.9 1.9 1.5-1.6 2.8-2 4.8-1.6 2.3.4 3.1 0 4.8-2.6 2.1-3.3 2.3-3.3 10.9-2.8 2.1.1 4.1 2.9 3.7 5.3-.1.5.8.8 1.9.8 1.1 0 2.8.4 3.8.9 6.1 3.1 9.6 4.1 10.5 3.2.7-.7.5-1.2-.6-1.7-.9-.3-1.7-1.2-1.7-1.8 0-3.7-10.7-13-13.6-11.9-.7.2-1.5-.1-1.9-.6-.3-.6-1.1-.9-1.6-.6-.5.4-.9.1-.9-.4 0-.6.6-1.1 1.2-1.1.7 0 .3-1-1-2.2-2.6-2.6-10.7-4.9-12.1-3.5-1.6 1.6-5.6-1.7-7.9-6.4-1.9-3.8-2-4.5-.7-7 1.3-2.4 1.3-3-.1-4.3-.8-.9-2.4-2.1-3.5-2.7-2.3-1.2-1.6-2.9 1.2-2.9 1 0 1.9-.3 1.9-.8 0-1.5-4.6-9.9-7.3-13.4-1.6-2.1-2.6-4.1-2.3-4.7.3-.5-.1-2.5-.9-4.4-.8-2-1.1-3.8-.7-4.1 1.3-.8 1.3-7.5 0-9.9-.6-1.2-1.1-3.2-.9-4.4.1-1.4-.7-2.8-2.3-3.9-2.9-1.8-3.4-4.9-1.1-5.8.8-.3 1.5-1 1.5-1.5 0-.6-.6-.8-1.3-.5-.7.2-2.1-.4-3.1-1.5-1.5-1.6-1.7-3-1.2-6 .5-3.4.3-4.2-1.4-5.1-1.6-.9-2-.8-2 .5s-.6 1.5-3.2 1c-4.2-.9-6.8-2.3-6.8-3.5 0-.6-.7-1-1.6-1-.8 0-3-1.1-4.9-2.5-1.8-1.4-4.3-2.8-5.5-3-2.2-.4-12-9.8-12-11.5 0-.5-1-1.5-2.2-2.1l-2.3-1.2 2.3-1c1.2-.6 2.3-1.7 2.4-2.6 0-.9.2-2.3.3-3.1.1-.8-.8-2.6-1.9-3.9l-2.1-2.4 2.3.6c1.2.3 2.2.2 2.2-.3 0-.7-2.2-2-4.5-2.6-.5-.1-1.8-.5-2.8-.9-1.3-.5-1.6-.3-1.1.8zm20.8 53.5c-2.8 4.1-4.9 4.8-4.9 1.7 0-1.1-.4-2.6-.8-3.3-.6-.8-.3-2 .8-3.2 1-1.2 1.5-2.8 1.2-4-.4-1.6.2-1.3 2.8 1.5l3.4 3.5-2.5 3.8zm-.9 9.3c1.1 1.7-.1 2.1-1.5.4-.8-.9-.8-1.5-.2-1.5.6 0 1.4.5 1.7 1.1z"/><path d="M63.162 17.792c1 1.1 2 2 2.2 2 .2 0-.1-.9-.7-2s-1.6-2-2.2-2c-.6 0-.3.9.7 2zM19.662 76.792c0 1.3-.5 1.8-1.5 1.4-.8-.4-2.1-.1-2.9.5-.7.6-2 .9-2.8.6-.8-.3-2.5.6-3.8 2-2.2 2.3-2.5 2.4-4.6 1-2.1-1.4-2.4-1.3-3.4.6-1.2 2.2-1.3 2.1 4.8 8.8 1.4 1.5 2.1 3.3 1.8 4.4-.3 1.3 1.2 3.4 5.2 7.2 5.5 5.2 5.9 5.4 10.9 5.3 3.4 0 5-.4 4.6-1.1-.3-.6-.7-2.9-.7-5.1-.1-3.5-.5-4.2-2.3-4.4-1.6-.2-2.3-1-2.3-2.4 0-1.1-.8-2.7-1.7-3.4-1.7-1.3-1.7-1.3 0-1.4 2.1 0 2.1-.9.2-3.4-1.9-2.6-1.9-3.6.1-3.6 1.1 0 1.4-.5 1-1.6-.3-.9-.6-2.9-.6-4.5s-.4-2.9-1-2.9c-.5 0-1 .9-1 2zM31.662 107.592c0 .6.5 1.4 1 1.7.6.3 1 1.1 1 1.6 0 .6-.5.7-1 .4-1.8-1.1-7-1.4-7.1-.5-.2 1.7-.5 2.4-1.9 5.2-1.1 2.3-1.1 3.3-.1 5.5 1.1 2.4 1 2.9-.9 4.5-1.8 1.4-1.9 2.1-1 3.9 1.5 2.7.4 8.8-1.6 9.6-.9.3-1.3 1.2-.9 2.1.3.8 0 1.9-.7 2.3-1 .7-1 1.1 0 2.1.6.6 1.2 2 1.2 2.9 0 1.9 2.5 3.2 4.9 2.4 1.1-.3 2.8.6 4.6 2.5 1.6 1.6 3.7 3 4.7 3 1.1 0 2.3 1.3 3.2 3.5.8 1.9 1.9 3.6 2.3 3.6.4.1 2.1.3 3.7.5 1.5.1 3.1.6 3.4.9.3.3 1.6-.4 2.8-1.6l2.3-2.2 1.2 2.6c.7 1.6 2.3 2.8 4 3.2 3.3.7 4.6 2.2 3.2 3.6-1.5 1.5-.3 5.8 1.8 6.4 1 .3 3.6-.3 5.7-1.4 5.1-2.6 8-1.4 10.7 4.3 1.3 2.6 3.4 4.8 5.7 6.1 2.1 1.1 3.7 2.5 3.5 3.1-.4 2 9.1 10.5 12.3 10.9 1.8.3 2.8 0 2.5-.5-.4-.6-1.5-1-2.6-1-1 0-1.9-.5-1.9-1 0-.6.7-1 1.6-1 .8 0 1.3-.4.9-.9-.3-.5.4-1.2 1.5-1.6 1.1-.3 2-1.1 2-1.6s1.2-.8 2.8-.7c1.7.2 2.6-.1 2.5-.9-.4-2 4.5.5 10.1 5.2 2.8 2.2 5.5 3.9 6.2 3.7.7-.1 1.9.6 2.6 1.7.9 1.3 1.9 1.7 2.7 1.2 1-.6.7-1.2-1-2.5-2-1.4-2.2-1.9-1.2-3.5 1-1.6.9-2.2-.3-3.2-.9-.8-1.1-1.6-.5-2.2.6-.6 0-1.8-1.7-3.3l-2.7-2.3 3.5-.1c2.6 0 3.1-.3 2.2-1.2-1.4-1.4-1.6-4.2-.2-3.3.6.3 1 .1 1-.5s-.8-1-1.7-.8c-2.1.4-8.5-10.7-7.7-13.3.5-1.9-1.8-3.2-5.6-3.3-2.1-.1-2.5-.6-2.5-3.3v-3.2l-3 1.8c-1.6 1-3.6 1.6-4.2 1.4-.8-.3-1.3.4-1.3 1.5s-.7 2.3-1.6 2.6c-.8.3-1.3.2-1-.3.7-1.1-3.7-4.1-5.9-4.1-.9 0-1.8-.7-2.1-1.5-.4-1.1-1.1-1.2-2.3-.6-1.1.7-2.4.3-4.6-1.3-4.1-3-6.3-3.7-8.3-2.6-.9.5-3 1.2-4.6 1.5-1.6.3-3 1.4-3.3 2.5-.3 1.1-1.1 2-1.9 2-.7 0-1.8.9-2.4 2-.6 1.1-1.5 1.8-2 1.5-.5-.3-1.1-.1-1.5.5-1.1 1.7-2.4 1.1-4-2-1.9-3.6-1.9-4 .1-4 1.2 0 1.5-.6 1-2.5-.5-1.8-.2-2.7.9-3.1 2.3-.9 1.8-3.5-1.9-10.6-1.8-3.6-3.7-8.8-4.1-11.7-.6-4.2-1-5.1-2.6-5.1-1.3 0-2.5-1.2-3.4-3.3-.8-1.7-1.4-2.8-1.5-2.2 0 .6-.3.6-.8 0-.4-.6-2-1.8-3.5-2.8-1.5-1-3.3-2.9-3.9-4.3-.6-1.3-1.6-2.4-2.1-2.4-.6 0-1.9-.7-2.9-1.7-1-.9-1.8-1.1-1.8-.5zm67 64.8c0 .8-.4 1.2-1 .9-.5-.3-1-1-1-1.6 0-.5.5-.9 1-.9.6 0 1 .7 1 1.6zm19 5.3c0 .6-.4 1.3-1 1.6-.5.3-1-.1-1-.9 0-.9.5-1.6 1-1.6.6 0 1 .4 1 .9zm4 7.1c0 .5-.4 1-1 1-.5 0-1-.5-1-1 0-.6.5-1 1-1 .6 0 1 .4 1 1zM40.662 108.692c0 .5.5 1.3 1 1.6.6.3 1 .2 1-.4 0-.5-.4-1.3-1-1.6-.5-.3-1-.2-1 .4zM252.862 149.992c-.2 3.1-.9 3.4-3.7 1.4-1.2-.8-2.8-1-4-.6-1.3.5-2.6.2-3.7-.7-1.4-1.3-1.7-1.2-2.3.9-1 3.2-3.4 5.8-5 5.2-.7-.3-1.6-.1-2 .5-.9 1.5-5.8 1.4-7.3-.1-.9-.9-1.2-.8-1.2.5 0 1-.8 1.7-2 1.7-2.8 0-6.3 3.8-5.7 6.1.3 1.2-.2 2.3-1.4 2.9-1 .6-1.9 1.9-1.9 3 0 1-.7 2.3-1.6 2.8-1.1.6-1.3 1.2-.6 1.6.6.4.8 2.1.5 4-.5 2.9-.2 3.5 1.8 4.2 1.3.4 2.9.8 3.4.9.9 0 1 .4.7 4-.1.8-1.3 1.7-2.7 2.1-3.5.9-2.8 3.3 2.3 7.8 2.3 2.1 4.2 4.4 4.2 5.1 0 .8.9 1.6 1.9 2 1.9.6 1.9 3.6-.1 6.2-.6.7-.5 1.9.1 3.2 1.2 2.1 1.5 6.9.5 5.8-.3-.3-1.7.4-3 1.6-2.4 2.3-4.2 10.7-2.2 10.7.5 0 .7.4.4.9-.3.5.6 1.4 2.2 2 1.5.6 3.4 1.5 4.2 2 3.2 1.9 9.9 3.3 13.9 2.8 3.7-.4 4.3-.2 5.8 2.4 1.5 2.5 2.3 2.9 5.3 2.7 3-.3 3.5 0 3.8 2 .2 1.5.9 2.2 1.7 1.8.8-.2 3-.8 4.9-1.2 2-.3 3.6-1 3.6-1.5s1.1-1.4 2.4-2c1.3-.6 2.9-2.2 3.5-3.5 1.3-3 3.3-3.1 4.6-.2.8 1.8 2 2.4 5.2 2.6 3.8.3 4.3.6 5.3 3.8 1.2 3.5 4.2 6 6.1 4.8 2-1.2 7.8.6 8.4 2.6.4 1.1 1.3 2 2.1 2s1.4.8 1.4 1.8c0 2.2 6.9 8.8 9 8.6.8-.1 2.2-.2 3-.3.9 0 2.4-1.7 3.5-3.6l1.9-3.6-3.2-2.9c-2.5-2.2-3.2-3.7-3.2-6.5 0-1.9-.7-5.2-1.5-7.2-.8-1.9-1.5-4.4-1.5-5.5 0-1-.8-2.2-1.7-2.5-3.9-1.5-6.7-7.3-4.3-8.8.6-.3 1-1.9 1-3.6 0-1.6.5-2.9 1-2.9 1.6 0 1.2-4.6-.5-6-2.1-1.7-2-1.9 3-7.5 2.5-2.8 4.5-5.5 4.5-6.1 0-2-2.8-3.6-5.7-3.2-2.4.3-3.2-.3-5.4-4.2-1.5-2.5-3-6-3.4-7.8-.5-2.6-1.1-3.2-2.5-2.7-1.3.4-2.2-.1-3-1.4-.6-1.2-2.9-3-5.2-4.2-3.9-2-4.3-2-7.5-.5-1.9.9-3.9 1.6-4.6 1.6-2.1-.1-6.4-4.4-7.1-7.2-.3-1.4-1.7-4-3.1-5.6-2.4-2.9-5-8-4.7-9.4.3-1.3-3.8-2.9-5.8-2.3-1.5.5-1.9 0-2.3-2.7-.3-2.9-.4-3-.5-.6zM110.162 150.792c-.7 1.1 1.6 5 2.9 5 .4 0 .3-.7-.4-1.5s-1-2.2-.6-3c.6-1.6-.9-2.1-1.9-.5zM161.262 155.692c-.3.5.1 1.1.9 1.5.9.3 1.5 0 1.5-.9 0-1.6-1.6-2-2.4-.6z"/><path d="M263.362 156.892c.7.7 1.5 1 1.8.7.3-.3-.2-.9-1.2-1.2-1.4-.6-1.5-.5-.6.5zM179.262 159.592c.7 3.3-1.6 5.7-4.5 4.9-1.1-.3-2.2 0-2.4.7-.3.8-.8.8-1.7-.1-1-.9-1.9-.5-4.1 2-2.7 3-3.1 3.1-6.8 2.1-3.8-1-4.2-.9-6.7 1.8-1.7 1.7-3.8 2.8-5.4 2.8-1.4 0-3 .4-3.6 1-.6.6-2.1.6-4.2-.2-1.7-.7-3.4-.9-3.7-.6-.7.6 2.2 5.8 3.9 6.9.5.4.6 1.2.2 1.8-.4.5.2 1.6 1.4 2.3 1.1.7 2 1.8 2 2.4 0 .7.7 1.4 1.5 1.8 1.1.4 1.2 1.1.6 2.8-1.1 3.2 1.4 10.3 4.5 12.3 1.3.8 2.4 1.1 2.4.6 0-1.2 6-2 8.4-1.1 1.9.6 1.8.8-.3 2.9-2.1 2.1-2.4 2.1-3.5.6s-1.3-1.5-2.5-.1c-.9 1-2.2 1.4-3.8 1-1.5-.4-3-.1-4.1.9-1 .9-3.6 1.9-5.8 2.3-3.3.5-4.2.3-4.8-1.1-.6-1.5-.8-1.5-3.2.2-2.5 1.9-3.1 1.9-10.3.5-4.2-.7-9.3-2.3-11.3-3.3-2.1-1.1-3.8-1.5-3.8-.9 0 .5.7 1 1.5 1s1.5.7 1.5 1.5.6 1.5 1.4 1.5c1.2 0 2.6 2 2.6 3.7 0 .3-1.1.3-2.4.1-3.5-.7-5 .5-3.8 2.8.5 1.1.7 3.3.5 5.1-.4 2.5 0 3.4 2.1 4.8 1.4 1 2.6 2.3 2.6 3 0 .7.9 2.4 2.1 3.9 1.1 1.4 1.9 3.2 1.6 3.9-.4 1.2 5.2 5.7 7.1 5.7.5 0 2.2 1.9 3.8 4.2 3.3 4.8 11.2 12.8 12.6 12.8.5 0 .9 1 .8 2.2-.4 4.7-.1 5.6 2 5.1 2.3-.6 2.8 1.5.5 2.3-1.4.6-1.4.8 0 1.8 1.6 1.2 1.1 5.1-.6 4.1-.4-.3-1.3 1.2-1.9 3.4-.5 2.1-1.7 4.2-2.5 4.5-.8.3-1.5 1.2-1.5 2.1 0 1.9-.5 1.9-3.8.1-1.5-.8-3.5-1.7-4.4-2-1-.3-1.8-1.4-1.8-2.4 0-2.6-2-4.2-5.2-4.2-4.2 0-7.7 2.7-8.4 6.5-.5 3-1 3.3-4.7 3.7-2.5.3-5-.1-6.1-.8-1.5-1-2.3-1-4 .1-1.1.8-4 1.7-6.4 2.1-2.3.4-4.5 1.1-4.8 1.5-.3.5-1 .7-1.5.3-.9-.5-.4 5.9.7 9.4.2.7-.4 1.6-1.4 1.9-.9.4-2.5 1.6-3.4 2.8-1.6 1.8-1.6 2.1-.1 3.2 1.3 1 1.4 1.5.4 2.7-.7.9-2.1 1.8-3.2 2.1-1 .4-1.9 1.3-1.9 2.1s-.7 2.6-1.6 3.9c-1.5 2.3-1.5 2.5 0 3.1 2 .8 2.1 3.4.1 3.4-.9 0-1.5.9-1.5 2.5 0 1.3-.5 3.5-1.1 4.9-.9 2-.9 2.9 0 4 .7.8 1 2.4.7 3.4-1 3 1.2 6.7 4.7 8 2.4.9 3.3.9 3.9-.1.6-.9 1.2-.7 2.1.8.6 1.1 1.2 2.7 1.3 3.5.1.8.2 2.3.3 3.2.2 3 3.6 4 6.8 2.1 3.4-1.9 8-1.2 9 1.5.4.9 1.8 2.8 3.2 4.1 1.6 1.5 2.1 2.6 1.4 2.8-.8.3-.2 1.3 1.4 2.7l2.6 2.3 2.6-2.9c2.5-2.7 2.8-2.8 6.4-1.6 3 .9 4.3.9 5.8 0 1.1-.7 2.4-1 2.9-.7.6.3.7 0 .4-.8-.3-.8.2-1.7 1.1-2.1 2.2-.8 3.6.1 2.8 1.9-.3.9 0 2.2.7 3 .9 1 .9 1.5.1 1.5-1.4 0-1.5 4.7-.1 5.5 1.9 1.2 1.1 4.5-1 4.5-3.6 0-2.2 2.5 1.5 2.6 2.8 0 3.2-.2 2.4-1.3-.8-.9-.8-1.3-.1-1.3 1.2 0 5.2 5.3 5.2 6.9 0 .6.5 1.1 1 1.1 1.4 0 1.2 2.3-.4 4.5-1.2 1.7-1.6 1.7-3 .6-3.3-2.8-2.9.1.6 3.7 1.9 2 3.8 5.2 4.2 7 .3 1.9 1.5 4.5 2.6 5.9 2.2 2.8 2.7 6.3.8 6.3-.6 0-.1 1.1 1.2 2.5 1.6 1.7 2.7 2.2 3.5 1.5.8-.7 1.8-.4 3 1 1 1.1 2.1 1.8 2.5 1.5.3-.2 2.5 1.6 4.8 4 4.5 4.5 9.6 7.5 13 7.5 1.1 0 3.3 1.1 4.9 2.4 2 1.7 3.4 2.2 4.3 1.6 1.6-1 5.9-.3 7.5 1.1.5.5 1.8.9 2.8.9 1.1 0 3.2 1.1 4.9 2.5 1.9 1.6 4.2 2.5 6.3 2.5 2.1 0 4.4.9 6.2 2.4 2.5 2.1 4.3 2.6 12.8 3.9 1.1.2 2.8.7 3.8 1.2 1 .4 2 .5 2.3.2.3-.3 2-.1 3.6.5 2.6.9 3.3.8 4.4-.7 1-1.3 2.1-1.6 4.8-1.1 2 .4 3.7.2 4.1-.4.3-.5 1.9-1 3.4-1 1.6 0 3.4-.7 4.1-1.5 1.1-1.3 1.6-1.3 4.3.1 2.8 1.5 3.2 1.5 4.2 0 1.1-1.4 1.3-1.3 2.5.9 1.2 2.3 7.4 5.5 10.5 5.5.8 0 1.8-.8 2.4-1.8.9-1.5 1.1-1.5 2 .8.5 1.4 1 2 1 1.5.1-.6 1 .5 2.1 2.3 2 3.2 2 3.2 4.7 1.5 1.6-.9 3.6-2.3 4.5-3.1.9-.8 2.2-1.1 2.7-.7.7.4 1.1-.4 1.1-2.1 0-2.1.4-2.5 2-2.1 1.1.3 2.2.1 2.5-.4.3-.4 2.2-1.3 4.2-1.8 2.9-.8 4.2-.7 6 .4 2.6 1.8 4.9 1.1 5.6-1.6.3-1 1.2-1.9 2.1-1.9 2.1 0 2-1.2-.4-5.5-1.6-2.9-1.7-3.5-.5-3.5 1.8 0 2-2.1.3-3.8-.9-.9-.4-1.2 2.4-1.2 1.9 0 4.1.7 4.8 1.5.7.8 2.3 1.5 3.6 1.5 1.3 0 2.4.5 2.4 1 0 .6 1 1.4 2.3 1.9 3.1 1.2 8.6 12.2 7.5 15.1-.4 1.2-1.2 1.8-1.8 1.5-.6-.4-1 .8-1 2.9 0 2.2-.5 3.6-1.2 3.6s-.1 1.1 1.4 2.4c1.5 1.2 2.5 2.5 2.2 2.8-1 1 .8 5.8 2.2 5.8.8 0 1.4.5 1.4 1.1 0 .8.5.8 1.5-.1 1.2-1 1.8-1 3 0 1 .9 1.5.9 1.5.1 0-.6.5-1.1 1-1.1.6 0 1 .9 1 2.1 0 1.1.7 2.7 1.5 3.5 1.7 1.7 4.1.9 2.7-.9-1.8-2.4-2.2-4.7-.7-4.7.8 0 1.5.7 1.5 1.5 0 .9.9 1.5 2.4 1.5 2.8 0 3.7 1 5.1 6 .6 1.9 1.8 3.6 2.8 3.8 1.4.3 1.7-.5 1.7-4.5 0-5.2-1.2-7.3-4.2-7.3-1 0-1.8-.3-1.9-.8 0-.4-.2-1.7-.5-2.9-.2-1.5.5-2.8 2.1-4.1 1.4-1.1 2.5-2.8 2.5-3.7 0-1 .5-1.5 1.4-1.2.7.3 1.9 0 2.5-.6.8-.8 1.1-.7 1.1.5 0 .9-.6 1.8-1.2 2.1-.7.2-.4.3.6.1 1.1-.2 2.6.2 3.3.8.9.7 1.3.7 1.3-.1 0-.7.5-.9 1-.6 1.8 1.1 4-2.2 4-5.9 0-3.5.1-3.6 4.3-3.8 2.3-.1 5.2-.1 6.4 0 1.9.1 2.4-.6 2.9-3.9.4-2.1 1.2-3.9 1.8-3.9 2.5 0 3.5-2.2 2.2-4.4-.8-1.1-1.7-3.4-2-5-.7-2.7-.6-2.8 2-2.2 2.2.6 2.5.4 2-.9-.3-.9-.6-2.1-.6-2.6s-.6-.9-1.4-.9c-.8 0-1.8-.9-2.1-2-.3-1.1-1.1-2-1.6-2-1.2 0-1.2 2.7.1 3.5 1.7 1-1.5 3.4-3.8 2.8-3-.7-3.2-3.4-.4-6.1 1.8-1.7 2.2-2.9 1.8-4.8-.4-1.5-.2-3.2.5-4 .9-1.1.9-1.8.1-2.6-1.6-1.6-1.5-3.8.2-5.2.7-.6 1.6-2.3 2-3.8.5-2.3.3-2.8-1.8-3.4-1.4-.3-3.4-.3-4.5.1-2.1.6-2.9-.9-1.1-2 1.5-.9 1.2-2.5-.5-2.5-.8 0-1.5-.9-1.5-2.1 0-1.2-.4-1.7-1.1-1.3-.7.4-1-.2-.8-1.7.2-1.3 0-3-.4-3.7-.5-.7-.2-1.4.7-1.8 1.2-.5 1.3-1 .5-2.5-.7-1.3-.6-1.9.1-1.9.6 0 .8-.5.4-1.1-.4-.8-.9-.8-1.7 0-1.7 1.7-3.7 1.3-7.1-1.6-1.7-1.4-5.3-3.6-8.1-4.8-6-2.7-8.8-5.6-9.1-9.3-.3-4.9-.4-5.2-1.9-5.2-.9 0-1.8-1.2-2.1-2.9-.4-2-1.1-2.8-2-2.4-1.5.5-2.3-.9-2.8-4.8-.5-3.7-1.7-6.2-4.4-9.2-2.5-2.6-2.5-2.7-.5-2.7 1.8 0 2.1-.6 1.9-3.5-.1-1.9.6-4.4 1.5-5.7 1.6-2 1.6-2.4.1-4.6-1.2-1.9-1.3-2.8-.4-4.3 1-1.5 1-2.5-.1-4.6-1.1-1.9-1.2-3.7-.5-6.7.5-2.3.7-5.5.5-7.2-.5-2.9-.3-3.2 2.3-3.6 1.5-.2 3.6.2 4.5.9 1 .7 2.2 1 2.8.6.5-.3 1.8.5 2.7 1.7 1 1.3 2.4 2.5 3.1 2.7.8.1 2.8.6 4.4.9 1.7.4 3.7 1.3 4.6 2.1 1.5 1.3 2.1 1.1 4.8-1.6 3.1-3 4.3-5.4 1.7-3.2-2 1.6-5.8-.4-5.4-2.8.3-2.1-7.1-9.7-9-9.3-.8.2-2.2-.4-3.3-1.4-1.7-1.5-1.9-1.5-2.5 0-.9 2.2-4.1 2-5.4-.4-1.2-2.3-3.2-2.7-2.4-.5.4.9 0 1.5-1 1.6-.9.1-2.2.2-2.8.3-.7.1-2.9-.6-4.8-1.5-1.9-1-5.2-2.1-7.3-2.5-2.2-.3-3.4-1-2.8-1.4.6-.3.9-1.7.7-3.1-.3-1.3-.5-2.6-.5-2.9-.1-.3-1.9-.4-4.2-.2-3.2.3-4 .1-3.7-1 .3-1.7-5.7-7.8-7.7-7.8-1.5 0-2.7 5.1-1.5 6.5.5.6.5 1.7 0 2.4-.4.8-.6 2.1-.2 2.9.4 1.2-.1 1.4-2.1 1-1.9-.4-2.7-.1-2.7.8 0 1.9-1.7 1.8-2.8-.2-.6-1.1-1.1-1.3-1.6-.5-.4.6-2 1.1-3.6 1.1-2.2 0-2.8-.4-2.4-1.5.5-1.3-.1-1.7-2.2-1.4-.4 0-1-.5-1.5-1.2-.4-.8-1-1.1-1.4-.8-.3.3.4 1.6 1.5 2.9 1.9 2.2 1.9 2.5.4 3.3-.9.5-3.4.9-5.5.9-2.2-.1-3.9.3-3.9.7 0 .5-1 1.1-2.2 1.5-2.3.6-2.3.6.7 3.1 1.7 1.3 4 2.4 5.3 2.5 2.7 0 3.9-2.4 2.3-4.4-1-1.2-.8-1.3.8-.9 4.9 1.3.7 6.5-5.6 6.9-3.1.3-4.7-.8-4.8-3.1 0-.5-1.3-1.6-3-2.5-4.2-2.1-4.1-2-2.6-2.9 1-.6 1-1 .1-1.6-.6-.4-1.5-1.8-2-3.1-1.1-2.9-3-3.1-3.7-.5-.7 2.8-5.9 6.2-9 5.9-2.2-.2-2.8.2-3.3 2.2-.9 4.6-3.5 7.2-6.4 6.4-2-.5-2.6-.2-2.6 1 0 2-.5 2-6.5-.1l-4.8-1.6-2.4 2.7c-1.4 1.6-3 2.6-3.8 2.2-1.7-.6-2-2.6-.5-2.6.6 0 1-.9 1-2 0-1.2.7-2 1.6-2 1.2 0 1.5-.6 1-2.3-.3-1.2.1-3.5.9-4.9 1.1-2.3 1.1-3.4-.1-7.4-.8-2.6-1.9-5.3-2.6-6.1-.7-.8-1.1-3.1-1-5 .3-3.6-3.1-10.6-6.2-13.3-.9-.7-1.6-2.1-1.6-3.1 0-1.1-.7-1.9-1.6-1.9-.9 0-2.3-1.7-3.2-3.9-.9-2.2-2.7-4.4-3.9-5-1.2-.5-2.4-2.3-2.8-4-.4-2.1-1.3-3.1-2.5-3.1-2.5 0-3.4-1.6-1.4-2.4.9-.3 1.4-1.3 1-2.1-.3-.8.1-1.8.8-2.2 3.4-2 4.8-9.6 2-10.7-3.3-1.3-6.5 5.4-4.5 9.3 1 1.8.6 2.3-4.1 4.7-4.9 2.5-5.3 2.5-7.9 1-1.5-.9-3.4-1.6-4.3-1.6-.9 0-1.6-.6-1.6-1.3 0-.8-.9-2.2-2-3.2-1.2-1.1-1.8-2.5-1.5-3.6.3-.9.1-2-.5-2.4-.5-.3-1-1.7-1-3.1 0-2.8-3.2-6.4-5.7-6.4-.9 0-2.6-.9-3.8-2-1.8-1.7-2.4-1.8-4.7-.6-1.5.8-3.1 1-3.9.5-.8-.4-1.9-.3-2.6.3-1 .8-1.3.6-1.3-.6 0-1.1.9-1.6 3.2-1.6 1.7 0 5-1.1 7.3-2.5 2.3-1.3 4.5-2.1 4.9-1.8.3.3 1.4-.1 2.3-.9 1-.8 3-1.8 4.6-2.2 1.5-.3 2.7-1 2.7-1.5 0-.4 1.1-.6 2.5-.3 2.7.5 3.2 1.6 1.3 2.8-.6.4-1.4.2-1.6-.4-.6-2-2.2-1.3-2.2.9 0 1.5.4 1.9 1.6 1.5.9-.3 1.9-.6 2.4-.6s1.2-.9 1.5-2c.4-1.1 1.8-2.7 3.3-3.5 2.6-1.4 2.6-1.4.5-1.5-2.6 0-2.9-1.6-.8-4.4 1.6-2.1 1.9-3.7.8-3.5-1.9.3-3.3-.2-3.3-1.2 0-.6 1-.8 2.3-.5 1.5.4 1.3.2-.5-.6-2.9-1.2-4-3.5-1.3-2.4 1 .3 1.5-.1 1.5-1.4 0-2 5-3.7 7.1-2.5.8.5.8.2.1-1.2-.6-1-2.2-2.5-3.5-3.2-1.4-.7-3-2.4-3.6-3.7-.6-1.3-1.7-2.4-2.5-2.4-.7 0-1.7-.7-2-1.6-.6-1.5-.8-1.5-2.6.1-1.9 1.7-2.2 1.6-2.4-1.4-.1-.7-1.2-2.1-2.6-3-2.2-1.5-2.4-1.5-1.7.1.4 1.2.2 1.8-.9 1.8-.8 0-1.8-.8-2.1-1.8-1.5-4-5.5-4.4-4.7-.4zm-.1 52c-.3.3-1.1 0-1.8-.7-.9-1-.8-1.1.6-.5 1 .3 1.5.9 1.2 1.2zm57.8 76.9c-.3 2.1-.7 4-.9 4.2-.7.8-5.3-2.2-4.8-3.1.3-.4.9-.6 1.3-.3.5.2 1.3-.7 1.9-2 1.7-3.8 3.2-3 2.5 1.2zm67.1 5c.4.5 1.2.8 1.8.8.6 0 1.2.9 1.4 2 .2 1.1 1.6 3.2 3.2 4.6 4.6 4.1 2 6.7-5.2 5.3-1.7-.4-2.4-.9-1.7-1.3.6-.4.9-1.5.6-2.4-.4-.8-.2-2.5.4-3.6.9-1.7.8-2.4-.9-4.1-1.1-1.1-1.6-2-1.2-2 .5 0 1.2.3 1.6.7zm-160.2 21.4c2.1 1.1 2.1 1.2-.3 2.5-3.1 1.7-4.9 1.7-4.9.1 0-1.2 1.9-3.7 2.8-3.7.2 0 1.3.5 2.4 1.1zm33.1 15.2c-.7 1.1-2.3-1.2-2.3-3.2 0-1.1.4-.9 1.4.4.8 1.1 1.2 2.4.9 2.8zm-1.3 17.7c1 .6 1.2 1.2.4 2-.7.7-1.6.5-2.9-1-1.4-1.5-1.5-2-.4-2 .8 0 2.1.5 2.9 1zm163.5 88c.3.5.1 1-.4 1-.6 0-1.1-.5-1.1-1 0-.6.2-1 .4-1 .3 0 .8.4 1.1 1z"/><path d="M206.162 182.892c-1.3 2-1.7 9.9-.6 9.9.6 0 1.1-.5 1.1-1.1 0-.5.5-.7 1-.4 1.8 1.1 3-4.1 1.7-6.9-1.3-2.8-2.2-3.2-3.2-1.5zM190.662 201.092c0 1 .8 1.7 1.8 1.7.9 0 1.3-.4.7-.8-.5-.4-1.3-1.1-1.7-1.6-.5-.5-.8-.2-.8.7zM145.662 203.792c0 .5.5 1 1 1 .6 0 1-.5 1-1 0-.6-.4-1-1-1-.5 0-1 .4-1 1zM219.662 212.792c0 1.1.2 2 .4 2s.6-.9.9-2c.3-1.1.1-2-.4-2s-.9.9-.9 2zM272.462 250.492c-1.1.3-1.8 1.4-1.8 2.9 0 3.1.2 3 2.8-.6 2.3-3 2.2-3.2-1-2.3zM463.162 260.792c-.4.6-1.3.9-2 .6-.8-.3-1.1.2-.8 1.3.3 1.4-.7 2.4-4 4-2.4 1.2-5.2 3-6.1 4-1.5 1.7-2 1.7-6.2.3-3.7-1.2-4.7-1.3-5.4-.2-.4.7-1.5 1-2.4.7-1.1-.5-1.6-.1-1.6 1.3 0 2.1-1.5 2.7-2.5 1-1.3-2.1-3.6 1.1-3 4.1.4 1.8.2 3-.8 3.6-.8.4-1.6 1.4-1.8 2.2-.7 1.9-8.9 2.1-11.2.2-1.4-1.2-2.2-1.3-3.7-.3-1.1.6-2.7.9-3.7.5-1.4-.4-1.5-.3-.7.6.9 1 .6 1.9-1.1 3.7-1.7 1.9-3.2 2.4-6.9 2.4-2.5 0-4.6.4-4.6.8 0 .5-1.8 2.8-4 5.1s-3.8 4.6-3.5 5.1c.5.8-3.3 2.6-4.7 2.2-.5-.1-.8.2-.8.6 0 1.4 2.3 3.2 4.1 3.2 1 0 1.9 1.1 2.3 3 .3 2 1.2 3 2.3 3 1 0 2.4.9 3.1 2 .7 1.1 1.8 2 2.5 2s2.1 1.3 3 3c1 1.6 2.8 3.5 4 4.2 3.2 1.7 6.7 1.9 6.7.3 0-1.8 2-2.4 4.9-1.3 3 1.1 5.1.4 5.1-1.7 0-.8.8-1.5 1.9-1.5 1 0 2.4-.7 3.1-1.5.7-.8 2.1-1.5 3.1-1.5 1.1 0 1.9-.5 1.9-1 0-.6.7-1 1.5-1 .9 0 1.8-.7 2.1-1.5.4-.8 1.2-1.5 2-1.5.7 0 1.6-1.2 1.9-2.8.3-1.5 1.4-4.7 2.3-7.2 1.6-4.2 1.9-4.4 5.5-4.3 2.1 0 4.1.3 4.4.7.3.3 1.1-.2 1.8-1.1 1.1-1.5 1.4-1.5 4.1.3 3.7 2.6 7 2.8 11.4.7 1.9-.9 5.4-1.5 7.7-1.4 3.5.1 4.3-.2 4.3-1.6.1-1.4.4-1.2 1.5.7.7 1.4 1.2 3.8 1 5.3-.3 1.9.2 3 1.3 3.4.9.4 2.7 1.8 3.9 3.2 2.4 2.7 6 3.6 8 1.9 1.8-1.4 3.7 0 2.3 1.7-.8 1-.8 1.5 0 2 .6.4 1.7-.1 2.5-1.1 1.1-1.6.9-2-1.4-3.1-1.4-.8-3.3-2.2-4.3-3.3-.9-1.1-2.3-2-3.1-2-.9 0-1.9-.9-2.2-2-.4-1.1-1-1.8-1.5-1.5-.4.3-1-.8-1.3-2.3-.3-1.5-.1-2.9.4-3.2 1.4-1-2-5-4.3-5-2.7 0-8.8-3.8-8.8-5.5 0-.8-.8-1.6-1.8-1.9-.9-.3-2.3-1.5-3-2.7-1.7-2.7-2.3-10.2-.9-11.1.6-.4.4-1.3-.8-2.4-1.1-1.2-1.4-1.9-.6-2.2 1.5-.5 1.4-2.7-.3-4.1-1-.9-1.6-.9-2.1-.1zM341.362 277.392c-2.4 2-2.7 2.7-1.7 3.9 1.7 2 3.8 1.9 4.4-.3.2-.9.7-2.7 1.1-4 .8-2.8-.3-2.8-3.8.4z"/><path d="M487.462 293.492c.7.3 1.6.2 1.9-.1.4-.3-.2-.6-1.3-.5-1.1 0-1.4.3-.6.6zM352.162 304.792c.3.5.8 1 1.1 1 .2 0 .4-.5.4-1 0-.6-.5-1-1.1-1-.5 0-.7.4-.4 1zM453.162 387.692c.6 1.1-1.5 6.1-2.7 6.1-.4 0-.8-.4-.8-.9 0-1.4-4.9-2.3-6.8-1.2-.9.6-1.2 1.1-.7 1.1.6 0 .4.4-.4.9s-1.5 2.2-1.6 3.8c-.4 9.7-.5 10.2-2.6 10.8-1.9.6-1.9.8-.4 2.5 1.3 1.5 1.4 2.3.5 3.9-.6 1.2-1.5 2.1-2.1 2.1-.6 0-.7.5-.4 1 .3.6.3 1.9 0 3-.9 2.7-6.8 2.7-9.5 0-2.6-2.6-3.9-2.5-5 .5-.5 1.4-1.4 2.5-1.9 2.5-2.5 0-6.1-2.1-6.1-3.6 0-.9-1.1-2.7-2.4-3.9-1.3-1.2-2.5-2.6-2.7-3.2-.2-.7-1.7-1.5-3.4-1.9-3-.7-3-.7-1.1 1.4 1 1.2 2.2 2 2.5 1.8.3-.3.6 1.1.5 3-.1 2.3.4 3.8 1.7 4.7 1.6 1.2 1.7 2.2 1.2 8.6-.4 5.3-.9 7.1-1.9 6.7-.9-.3-1.1.1-.7 1.2 1.1 3 1.5 3.3 2.9 2.1.9-.7 1.4-.8 1.4-.1 0 .6.7 1.8 1.7 2.7.9 1 1.2 2 .7 2.3-.6.4-1 2.6-.9 4.9 0 4.1-.1 4.3-4.3 5.9-4 1.5-4.2 1.7-2.8 3.3 1.8 2 1.2 3.1-1.6 3.1-2.1 0-2.3 1.3-.4 2.9.9.7 2.2.8 3.7.2 2-.7 3.2-.3 6.9 2.7 2.4 2 4.1 3.2 3.7 2.5-.4-.6.2-1.3 1.4-1.6 1.2-.3 2.2 0 2.5.8 1 2.4-.6 3.5-5 3.5-3.6 0-4.5.4-4.9 2-.4 1.6-1.1 1.9-3 1.5-1.9-.5-2.8-.2-3.7 1.4-.6 1.2-2 2.1-3 2.1-1.1 0-2 .5-2 1.1 0 .6-.7.8-1.5.5-.9-.3-2.3-.2-3.3.3-5.1 2.6-7.1 3.3-8 2.7-.6-.3-1.2 0-1.5.6-.4 1.3.8 4.1 3.1 6.9 2.6 3.3 5.1 9.1 4.5 10.6-.4 1.1-.2 1.4.5.9.7-.4 1.2-.2 1.2.3 0 .6.9 1.1 1.9 1.1 1.1 0 2.3.9 2.6 2 .7 2.3 2.5 2.7 2.5.5 0-2.4 1.8-1.8 4.1 1.5 1.2 1.6 2.6 2.7 3.1 2.4.4-.3.8 0 .8.5 0 1.4-.6 1.4-3.1.1-2.6-1.4-3.6 1.1-2 4.8 1 2 1 2.7.1 3-.7.3-.3 1 .9 1.9 1.2.8 2.1 2.2 2.1 3.2s.9 2.6 2 3.6 2 2.8 2 3.9c0 1.5 1 2.5 3 3.3 2.7 1 3 .9 3-1 0-2 0-2 1.4-.1 1.4 1.7 1.6 1.8 2.8.2.9-1.1 2.3-1.5 4.6-1.1 3.3.5 4.2 2 1.8 2.9-.8.3-1.2 1.2-.9 2 .5 1.3-4.1 6.7-4.9 5.9-.2-.2-2 0-4.1.4-2 .5-3.7.6-3.7.2 0-1 1.7-3.3 2.4-3.2 2.7.4 3.3-.1 2.9-2.3-.4-2-.8-2.2-1.8-1.3-.7.7-1.1 1.6-.8 2.1.3.4-.9.5-2.6.1-2.8-.6-3.1-.4-3.1 1.8 0 1.4.6 2.7 1.3 3 .8.3.5 1.2-1 2.9-3 3.2-2.9 4.6.5 5.4 5.4 1.2 9.2 2.6 9.8 3.6.4.6-.1.8-1.3.4-1.7-.5-1.9-.2-1.5 3.1.3 2.3 0 4-.9 4.7-.8.6-2 2.2-2.7 3.5-1.1 1.9-1.1 2.6.2 4s2.5 1.6 6.1 1.1c2.9-.4 4.6-.3 4.9.4.2.6.5.3.5-.8.1-1.4.4-1.6 1.4-.7 1.7 1.3 3.8-.5 3-2.6-.5-1.1-.1-1.2 2.3-.1 3.4 1.5 5.4 3.2 5.4 4.7 0 .6 1.1 1.1 2.5 1.1 2.5 0 3.5-2.3 1.5-3.5-.5-.3-1-1.1-1-1.7 0-.6 1-.2 2.3 1 1.3 1.2 2.9 2.2 3.5 2.2.7 0 1.2.4 1.2 1 0 .5 1.1 1 2.4 1 2.5 0 11.3 7.6 10.8 9.3-.1.4.2.6.7.3 3-1.9 7.4 4.4 8.5 12 1.6 11.3 3 15.6 6.1 18.2 1.6 1.3 3 3 3.1 3.6 0 .6.2 1.7.2 2.4.1.7 1.6 1.8 3.2 2.3 1.7.6 3 1.6 3 2.1 0 .6.6.6 1.5-.2 1.6-1.3 3.5-.6 3.5 1.4 0 2.4 3.1 4.1 8.4 4.6 4.3.4 5.3.9 6.6 3.4 1.2 2.2 1.2 3 .3 3.3-.7.3-1.3 1.1-1.3 1.9 0 .8-.7 1.4-1.6 1.4-1.6 0-1.7 1.8-.2 8 .1.8-.4 1.5-1.2 1.5-.8 0-1.8.8-2.2 1.7-.4 1-1.3 1.5-2 1.3-.9-.4-1.4.9-1.6 4.7-.2 3.6-.8 5.7-2 6.5-.9.7-2.2 1.7-2.8 2.2-.7.5-1.4.7-1.7.4-.3-.3-.3.4-.1 1.5.4 1.4-.4 2.5-3.1 4.2-3.1 1.9-3.6 2.6-3 4.9l.7 2.6-2.7-2.9c-3-3.2-8.4-4.2-8.6-1.6 0 1-.4.7-1.1-.7-1.4-3-4.5-3.7-4.2-.9.1 1.2.3 2.5.3 2.9.1.5.5.6 1 .3 1.3-.8 4.1 3.9 4.1 7 0 2.2-.3 2.5-2.3 2-1.9-.4-2.4 0-3.3 3-1.1 3.2-1 3.6 1.7 5.1 3.5 2.1 4.1 5.8.8 4.8-2.3-.8-2.3.1-.4 4.7.5 1.3.2 1.8-.9 1.8-1.8 0-2.2 1.5-.6 2.5.6.3 1 2.2 1 4.1 0 1.9-.4 3.4-1 3.4-1.5 0-1.2 4.2.5 6.4 1.5 2 1.1 6-.7 8.3-.5.7-.7 2.6-.3 4.2.5 2.5.2 3.5-1.9 5.4-1.4 1.4-2.6 2.8-2.6 3.3-.1 2.3-4.1 5.5-7.1 5.6l-3.1.1.5 4.8c.5 4.2.3 4.9-1.4 5.4-1.4.5-1.8 1.2-1.4 2.5.9 2.8-1.5 7-4.1 7-1.6 0-2.5.9-3.3 3.2-.6 1.7-1 3.2-.9 3.2 3.7 1.6 7.3 2.4 7.7 1.7 1-1.5 6.5-2.1 8.1-.8 1.7 1.3 4.2 9.7 3 9.7-2.2 0 .6 3.9 3.6 5 3.4 1.4 5.2 4.5 4.1 7.2-.3.8.5 1.4 1.9 1.4 1.3.1 2.4-.2 2.4-.6 0-.5.9-1.1 1.9-1.5 1.3-.4 1.8-1.2 1.5-2.3-.2-.9.1-.7.7.5.7 1.3 1.5 2.3 1.8 2.3.4 0 1.7-2 3.1-4.5 1.9-3.4 3.5-4.9 6.6-6.1 2.3-.9 5.1-1.3 6.3-.9 1.4.4 2.1.2 2.1-.7 0-.7 1-3.4 2.2-6 1.9-4 2.8-4.7 5.1-4.8 2.4 0 2.7-.3 2.2-2-.7-2.2.5-2.6 2.3-.8 1 1 1.7.7 3.5-1.2 1.2-1.4 2.3-3.4 2.5-4.5.2-1.1.5-2.5.7-3.1.4-1.4 9.2-3.7 10.7-2.8.6.4.8-.1.3-1.5-.8-2.7.6-2.7 3.1 0 1.4 1.6 2.6 1.9 4.9 1.4 8.1-1.6 9.1-1.7 10.4-.1.9 1 1.8 1.3 2.5.7.6-.5 3.6-.5 7 0 6.6.9 7.6.6 7.6-2.1 0-1.3.5-1.7 1.9-1.3 2 .5 9.5-2.9 10.7-4.9 1.1-1.7 1.6-5.4 1.6-11.5v-5.2l4.1-1.3c2.3-.8 4.1-1.9 4-2.6-.2-.7.7-1.2 2.1-1.2 1.6 0 2.6-.7 3-2.3.8-3.2.8-3.7-.8-3.7-.7 0-1.6-.8-1.8-1.8-.4-1.5-1.2-1.8-3.5-1.5-3.9.6-9.3-2.1-9.3-4.6 0-1.1-.6-2.1-1.2-2.4-1-.3-1-.7-.1-1.9.9-1 1-2.4.3-4.9-1.2-4.2-1.3-3.9.5-3.9.8 0 2.4-1 3.5-2.2 1.7-1.9 2.4-2.1 4-1 2.8 1.7 3.9 1.5 3.3-.8-.3-1.1 0-2.6.6-3.4.7-.8 1.1-1.8 1-2.2-.1-.5.1-1.7.6-2.7.4-1 .2-2.3-.5-3.2-1-1.2-.9-1.5.3-1.5 1 0 1.4-.6 1.1-1.5-.4-.8-1.3-1.5-2.2-1.5-2.7 0-12.2-5.2-12.2-6.7 0-.7-.7-1.3-1.5-1.3-1.7 0-2.1-5.5-.5-6.5 1.3-.8.1-5.8-1.7-6.8-.7-.4-1.3-1.4-1.3-2.2 0-.8-1.2-2.2-2.7-3.2-1.6-1-3.3-2.4-3.9-3.2-.6-.8-1.8-1.2-2.6-.8-1.8.6-10.8-7.6-10.8-9.9 0-2-4.3-5.5-8.4-7-2.7-.9-5.2-4.7-2.9-4.3 2.2.4 3.3-.3 3.3-2.1 0-1.1.5-2 1-2 .6 0 1-1 1-2.3 0-1.4.3-1.8.8-.9.6.9 1.3.8 2.8-.6 1.1-1 3.2-2.7 4.7-3.6 1.7-1.2 2.7-2.7 2.7-4.3 0-2.1-.3-2.3-1.4-1.3-.8.6-1.2 1.8-.9 2.6.3.8 0 1.4-.6 1.4-.7 0-2.3 1.2-3.6 2.6l-2.4 2.5-1.8-2.8c-2.3-3.7-3.5-4.4-4.9-3.2-.8.7-1.4.6-1.9-.1-.5-.8-1.2-.7-2.4.4-1 .9-2.1 1.3-2.4.9-.4-.3-.7.4-.7 1.6v2.3l-2.9-2.4c-1.6-1.3-3.4-3.2-4-4.3-1-1.8-1.1-1.8-.5.4.4 1.6.3 2.1-.5 1.7-.6-.4-1.1 0-1.1.8 0 .9-.5 1.6-1.1 1.6-.6 0-2.1 1.3-3.5 2.9-2.4 2.9-2.5 3-6.1 1.4-2.4-.9-5.1-1.3-7.5-.9-3 .5-4 .2-5-1.3-.6-1.1-1.8-1.7-2.7-1.4-.9.3-.1-.5 1.8-1.6 1.8-1.2 3.5-3.1 3.8-4.2.3-1.1 1.4-1.9 2.5-1.9 1.6 0 1.9-.5 1.5-2.6-.6-3.1 3-9.3 5.4-9.4 1.5 0 1.5-.4.3-3.8-1.5-4.4-1.8-7.9-.5-8.4.5-.2 1.2-2.8 1.6-5.9.7-5.6.6-5.7-2.4-7.5-1.7-1-3.1-2.6-3.1-3.5 0-.9-.9-2.4-2-3.4-1.2-1.1-1.6-2.1-1-2.5.5-.3-.1-2-1.6-4.1-1.4-2-2.7-4.9-2.9-6.5-.2-1.6-.4-3.1-.4-3.4-.1-.3-2.1-1.4-4.6-2.4-2.5-1.1-4.5-2.1-4.5-2.3 0-.2.9-2.1 2-4.3 2.2-4.2 2.6-6.5 1-5.5-1.3.8-5.6-1.5-4.3-2.4.5-.3 1.9-2.7 3.1-5.4 1.7-3.5 2.8-4.7 4.5-4.7 2 0 2.2-.5 2.5-7.2.2-5.3.7-7.7 2.1-9.3 3.6-3.9 3.2-10.3-.9-15-1-1.1-1.8-2.7-1.8-3.5-.1-.8-.4-2.7-.8-4.2-.5-2.2-.1-3.2 2-5l2.7-2.3-3.6-5.5c-3.7-5.7-4.7-11-2-11 1.3 0 1.7-.6 1.4-2.6 0-.4.5-1 1.2-1.5.9-.5 1.3-3 1.1-8.2-.1-5.5.2-7.8 1.3-8.7.8-.7 1.2-1.6.9-2.2-.3-.5-.1-1.5.6-2.2.8-1.1.5-2-1.3-4.1l-2.3-2.8 2.3-2.3c2.1-2.1 2.2-2.4.8-5.8-.8-1.9-1.5-4.9-1.5-6.5 0-2.1-.6-3.2-2-3.6-1-.3-3.1-2-4.4-3.6-1.4-1.7-3-2.8-3.5-2.5-.5.4-1.2-.8-1.6-2.5-.4-1.7-1.2-3.2-1.8-3.3-5.3-1.3-9.5-3.2-11-4.7-1.9-2-4.2-2.5-5.1-1-.7 1.1-5.8-1.2-7.6-3.4-.7-.8-1.9-1.5-2.6-1.5-.8 0-2-1.1-2.6-2.5-.8-1.8-1.9-2.5-4-2.5-1.6 0-2.7.4-2.3.9zm2.4 84.1c.6 0 1.4-.7 1.7-1.5.8-2 3.4-1.9 5 .2.9 1.3 1.3 1.4 1.4.4 0-.8.9-.5 2.5 1 2.9 2.8 3.2 4.3.6 3.4-1-.3-2.3.1-2.9.8-.9 1.1-.6 1.9 1.3 3.7 1.4 1.3 2.5 3.1 2.5 4.1 0 1 .5 2.1 1 2.4 2.3 1.4.9 2.7-2.2 2.1-4.2-.8-11.9-5.8-11.4-7.3.3-.7-1.4-2.8-3.7-4.7-2.9-2.5-3.7-3.6-2.4-3.6 1.1 0 1.7-.8 1.7-2.2 0-2 .1-2 1.8-.5 1 1 2.4 1.7 3.1 1.7zm41.6 22c-.3.5.2 2.1 1.1 3.5 1.6 2.5 1.6 2.6-1.5 5.6-3.6 3.4-6.5 3-3.2-.5 1.4-1.5 1.7-2.6 1.1-3.7-.6-1-.4-2.3.6-3.7 1.5-2.1 3.1-3.2 1.9-1.2zm-5.5 38.5c0 .8-.4 1.5-.9 1.5-1.3 0-2.2-1.6-1.4-2.4 1.1-1.1 2.3-.6 2.3.9zm-55.7 12.2c-.7 1.8-3.2-1.4-3.3-4.1 0-1.6.2-1.5 1.9.5 1 1.3 1.6 2.9 1.4 3.6zm99.7 85.9c0 .8-.4 1.2-1 .9-.5-.3-1-1.3-1-2.1s.5-1.2 1-.9c.6.3 1 1.3 1 2.1zm-36 52.9c.7.9 1 1.8.7 2.1-1 1-4.7-.7-4.7-2.2 0-1.9 2.4-1.8 4 .1zm-7.5 1.5c.8 1.3-.5 1.3-2.5 0-1.3-.8-1.3-1 .2-1 .9 0 2 .4 2.3 1zm33.1 14c1.7 0 4.7 3.8 3.9 5-.4.7-1.9.4-4.3-1.1-4.5-2.7-6.2-4.7-6.2-7.3 0-1.8.2-1.8 2.8.7 1.5 1.5 3.3 2.7 3.8 2.7zm6.9 1.8c-.3.3-1.1 0-1.8-.7-.9-1-.8-1.1.6-.5 1 .3 1.5.9 1.2 1.2zm18.9 12.7c-.4.8-1 1.2-1.5.9-1.4-.8-1-2.4.6-2.4.9 0 1.2.6.9 1.5zm17.3 4.1c-.3.3-1.2.4-1.9.1-.8-.3-.5-.6.6-.6 1.1-.1 1.7.2 1.3.5zm-8 1.5c-1.4.8-2.2.8-3 0-.8-.8-.3-1.1 1.9-1.1 2.5.1 2.7.2 1.1 1.1zM437.662 388.692c0 .5.7 1.5 1.7 2.2 1.5 1.3 1.5 1.2.4-.9-1.2-2.3-2.1-2.8-2.1-1.3zM396.462 411.492c.6.2 1.8.2 2.5 0 .6-.3.1-.5-1.3-.5-1.4 0-1.9.2-1.2.5zM323.762 434.392c0 1.1.3 1.4.6.6.3-.7.2-1.6-.1-1.9-.3-.4-.6.2-.5 1.3zM372.162 485.792c-.3.5-.1 1 .4 1 .6 0 1.1-.5 1.1-1 0-.6-.2-1-.4-1-.3 0-.8.4-1.1 1zM378.162 486.792c.3.5 1.1 1 1.6 1 .6 0 .7-.5.4-1-.3-.6-1.1-1-1.6-1-.6 0-.7.4-.4 1z"/><path d="M386.962 506.092c.5 1.4.2 2-1.3 2.4-1.1.3-2 .9-2 1.3 0 1.1-5.7 1.8-7.2.9-1.8-1.1-4.1 2.6-3 4.8 1.3 2.5.5 4.2-1.8 3.6-1.5-.4-1.8-.1-1.3 1.7.3 1.3 1.4 2.5 2.5 2.7 1 .3 1.8.9 1.8 1.3 0 1.2-3.5 1.8-5.1 1-.8-.4-3.2-1-5.5-1.3-3.9-.4-4.1-.4-3.7 2.2.7 4.4 2.7 7.3 5.7 8.6 2 .8 3.3 2.5 4.2 5.1.8 2.4 1 4 .4 4.2-.6.2-.7 1.5-.4 2.9.5 2 .1 3-1.7 4.3-1.9 1.5-2.1 2.1-1 3.3.7.9 1.8 1.4 2.6 1.1.7-.3 1.6-.1 2 .5 1.2 2.1 3.5 1.1 3.5-1.5 0-1.4.4-2.3 1-1.9.5.3 1.9-.4 3-1.5 1.4-1.4 2.8-1.8 4.5-1.4 2.6.7 5.6 3.4 3.6 3.4-1.7 0-1.3 2.7.5 3.4 2.3.9 2.4.8 2.4-1.4 0-1.1.6-2 1.4-2 1.7 0 2.8-3.2 3.1-9 .4-8.3 1.5-11.6 5.3-15.8 3.3-3.6 3.6-4.2 2.4-6-.9-1.5-1.1-2.6-.4-3.9.7-1.3.6-2.8-.3-4.9-1-2.5-2-3.2-5.3-3.8-2.2-.3-5.5-1.8-7.3-3.3-2.5-2.2-3.1-2.4-2.6-1zM496.462 532.092c-.3 1.6 0 3.1.8 3.8 1.1.9 1.4.7 1.3-.7 0-1.1-.4-2.8-.8-3.9-.7-1.7-.8-1.7-1.3.8zM502.362 536.692c.3 1.1 1.7 2.2 3.3 2.6 1.5.3 3.6 1.4 4.6 2.4 1.1.9 2.7 2 3.7 2.4 1.1.4 2.1 1.6 2.4 2.7.3 1.1.9 2 1.4 2 1.2 0 1.1-2.7-.1-3.5-.6-.4-.4-1.2.5-2.2 1.4-1.4 1.4-1.7-.1-3.4-.9-1.1-2.9-1.9-4.4-1.9-1.4 0-3.5-.7-4.6-1.5-1-.8-3.1-1.5-4.6-1.5-2.1 0-2.5.4-2.1 1.9zM492.662 537.892c0 .5.5.7 1 .4.6-.3 1-.8 1-1.1 0-.2-.4-.4-1-.4-.5 0-1 .5-1 1.1z"/><path d="M510.862 549.992c.2 4.3.6 5.3 2 5.2 2.1-.2 8.4 7.2 9.3 10.8.4 1.5.2 2.9-.4 3.2-.6.4-1.1 2.7-1.1 5.1 0 2.5-.6 5-1.5 5.8-.8.8-1.1 1.7-.8 2.1.4.4.8 1.4.9 2.4.1.9.5 2.5.9 3.4.5 1.3.3 1.8-.9 1.8-.9 0-1.6.7-1.6 1.5s-.5 1.5-1 1.5c-.7 0-.7.6 0 2 .8 1.5.7 2.7-.5 5-1.8 3.5-1.7 11 .1 11.7.7.3 1.1 1 .8 1.8-.3.7.2 2 1.1 2.9 2.2 2.1 4.2 2.1 2.4-.1-1.3-1.5-1.2-1.6.9-1.1 1.2.4 2.2.2 2.2-.3s1.4-.2 3.1.7c3.2 1.6 4.9 1.3 9.9-1.7.8-.5 2.3-1.2 3.3-1.6 1-.3 2.1-1.8 2.4-3.4.3-1.6.9-2.6 1.4-2.3.5.3.6-.2.2-1.1-.4-1.3-1.6-1.6-4.4-1.3-2.7.2-3.9 0-3.9-.9 0-.7.7-1.3 1.5-1.3.9 0 1.5-.9 1.5-2.5 0-3.4 1.7-3.1 4 .7 2.8 4.9 3.8 5.8 6.5 5.8 1.4 0 3 .9 3.7 2 1.7 2.7 3.7 2.5 4.8-.5.7-1.9 1.7-2.5 3.8-2.5 2.6 0 2.9-.3 2.4-2.6-.2-1.4-1.1-2.8-1.9-3.1-1-.4-.3-1.3 2.2-3 2.7-1.8 3.4-2.8 2.6-3.6-1.5-1.5-1.4-2.7.2-2.1.8.3 1.8-.6 2.5-2.1 1.6-3.4 1.6-3.2-1.7-2.7-1.6.2-3.8-.1-5-.7-2.1-1.2-2.7-.3-2.2 3.6.1.7-.5 1.3-1.4 1.3-.8 0-1.5.7-1.5 1.6 0 .8-.4 1.3-.9 1-.5-.3-1.1.1-1.5.9-.8 2.1-2.2 1.9-4.7-.6-1.9-1.9-2.5-2-4.2-1-1.8 1.2-1.9 1.1-1.4-.8.3-1.1-.1-2.5-.9-3.2-2.1-1.8-1.7-4.4 1.1-5.9 1.3-.7 2.2-1.7 1.9-2.2-.3-.4.7-.8 2.3-.8 2.4-.1 2.5-.2 1.1-1.1-1-.5-1.8-1.9-1.8-3 0-2.6-2.9-6.9-4.6-6.9-.7 0-1.7-.8-2.3-1.7-.5-1-1.3-1.5-1.7-1.1-1 1.1-4.4-1-4.4-2.7 0-.8-.4-1.5-1-1.5-.5 0-1-.6-1-1.3 0-2-3.7-5-5.3-4.4-.8.3-2.1-.3-3-1.4-1-1.1-2.3-1.6-3.3-1.2-.9.3-2 0-2.5-.8-.7-1.1-.9-1.1-.9.3 0 1.1-.6 1.5-2.1 1.1-1.4-.4-1.9-1.1-1.6-2.5.5-1.9-1.9-5.8-3.6-5.8-.4 0-.7 2.4-.5 5.2zm25.3 29.8c.3.5.1 1-.4 1-.6 0-1.1-.5-1.1-1 0-.6.2-1 .4-1 .3 0 .8.4 1.1 1zM384.662 559.792c.5 1 1.4 2.2 2 2.5.5.3.6 1.3.3 2.3-.5 1.3-.3 1.4.6.6 1.9-1.8.9-5.6-1.7-6.5-2-.8-2.1-.6-1.2 1.1zM375.162 559.792c-.3.5.1 1 1 1s1.3-.5 1-1c-.3-.6-.8-1-1-1-.2 0-.7.4-1 1z"/><path d="M518.262 567.292c.4.8 1.3 1.5 2.1 1.5 1.3 0 1.3-.3.3-1.5-.7-.8-1.6-1.5-2.1-1.5s-.6.7-.3 1.5zM635.862 570.492c-2 .4-2.2.9-1.7 4.6.3 2.4.1 4.3-.6 4.8-.6.3.2 1.1 2 1.7 2.8 1 3.1.9 3.1-.8 0-1 .5-2.2 1.1-2.5.7-.5.3-1.5-1.1-3l-2.2-2.3 2.1-.7c1.9-.6 2.1-2.7.3-2.4-.4.1-1.7.4-3 .6zM648.662 573.692c0 .5.5 1.3 1 1.6.6.3 1 .2 1-.4 0-.5-.4-1.3-1-1.6-.5-.3-1-.2-1 .4zM571.662 575.792c0 .5 1 1.5 2.3 2.1 2.2 1.2 2.2 1.2.3-1-2.1-2.3-2.6-2.6-2.6-1.1zM631.162 577.792c-.3.5-.1 1 .4 1 .6 0 1.1-.5 1.1-1 0-.6-.2-1-.4-1-.3 0-.8.4-1.1 1zM648.462 579.692c-1 1-1.8 2.5-1.8 3.4 0 1.2-.9 1.7-2.7 1.8-1.6 0-2.2.3-1.5.6.6.2 1.2 1.3 1.2 2.4 0 1.2.7 1.9 2 1.9s1.8-.5 1.4-1.5c-.4-.9.3-1.9 2-2.6 2-1 2.6-1.9 2.6-4.6 0-3.7-.7-4-3.2-1.4zM577.862 579.192c1.2 1.4-2.2 6.8-3.7 6.2-.8-.3-1.7-.1-2 .4-.4.6.6 1.5 2.2 2 1.5.6 4 1.7 5.6 2.6 2.4 1.4 2.8 1.4 3.3 0 .9-2.4 4.3-3 6.4-1.1 1 .9 1.7 2.2 1.4 2.9-.2.6.3 1.2 1.3 1.3 4.8.5 7.8 1.3 8.1 2.2.2.5.9.8 1.7.5.7-.3 1.6-.1 2 .5.4.8 1.2.6 2.2-.5 1.1-1.1 2.7-1.4 4.9-1.1 1.8.3 4.3-.1 5.9-.9 3-1.5 4.9-1 4.1 1.2-.3.9.2 1.4 1.4 1.4 1.1 0 2 .5 2 1.2 0 .6 1.1.1 2.4-1.1 1.4-1.3 3.1-2.1 3.8-1.9 3.1 1.1 5.1-5.9 2.3-8.2-.8-.7-1.5-2.1-1.5-3.2 0-2 0-2-2.7 0l-2.7 1.9-4.5-2.8c-5-3.2-7.6-3.6-8.5-1.4-.3.8-1.2 1.5-2.1 1.5-.8 0-1.5.5-1.5 1.2 0 .9-.3.9-1.1.1s-1.8-.4-3.6 1.3c-2 1.9-3.3 2.2-6.2 1.8l-3.6-.6 1.9 2.1c1.9 2.1 1.9 2.1-.2 2.1-1.2 0-2.7-.9-3.4-1.9-.6-1-1.7-1.7-2.3-1.4-.7.2-1.9-1.3-2.9-3.6-1.1-2.9-2.2-4.1-3.6-4.1-1.1 0-2 .5-2 1 0 .6-1.2.3-2.7-.7-1.6-.9-2.5-1.3-2.1-.9zM638.862 590.492c-2.8.4-3.1.7-2.2 2.3.9 1.7 1.4 1.8 3.5.8 1.4-.6 2.5-1.7 2.5-2.5 0-.7-.1-1.2-.2-1.1-.2 0-1.8.3-3.6.5zM547.762 628.092c-1.1 1.4-.5 2.7 1.2 2.7.6 0 .7-.3.4-.7-.4-.3-.2-1.2.4-2 .7-.8.8-1.3.1-1.3-.5 0-1.5.6-2.1 1.3zM469.162 685.792c.3.5.8 1 1.1 1 .2 0 .4-.5.4-1 0-.6-.5-1-1.1-1-.5 0-.7.4-.4 1zM436.762 778.692c-.5.9-1.3 1.5-1.8 1.5-.4-.1-1.8.3-3.1.9-1.8.8-2.5.7-3.5-.7-.8-1-2.2-1.6-3.3-1.4-1.6.3-1.4.7 1.3 2.1 3.9 2.1 6.3 2.1 8.9.2 1-.8 2.6-1.5 3.5-1.5.9 0 2.1-.6 2.7-1.3.8-.9.4-1.2-1.4-1.3-1.3-.1-2.8.6-3.3 1.5zM465.662 797.692c0 .5.7 1.1 1.5 1.5.8.3 1.5.1 1.5-.3 0-.5-.7-1.1-1.5-1.5-.8-.3-1.5-.1-1.5.3zM464.762 802.392c.6.7 1.7 1 2.5.7 2-.7 1.8-1-1.1-1.5-2-.4-2.3-.2-1.4.8zM466.362 806.892c.7 2.7 2.3 3.4 2.3 1.1 0-1.1-.6-2.2-1.4-2.5-1-.4-1.2 0-.9 1.4z"/></g></svg>