<?xml version="1.0" standalone="no"?>
<!DOCTYPE svg PUBLIC "-//W3C//DTD SVG 20010904//EN"
 "http://www.w3.org/TR/2001/REC-SVG-20010904/DTD/svg10.dtd">
<svg version="1.0" xmlns="http://www.w3.org/2000/svg"
 width="669.663659pt" height="645.596509pt" viewBox="0 0 669.663659 645.596509"
 preserveAspectRatio="xMidYMid meet">
<metadata>
Created by potrace 1.15, written by Peter Selinger 2001-2017
</metadata>
<g transform="translate(-672.336341,1348.352035) scale(0.100000,-0.100000)"
fill="#222222" stroke="none">
<path d="M10415 13481 c-8 -14 44 -46 55 -35 6 6 -1 16 -19 27 -18 10 -32 13
-36 8z"/>
<path d="M10481 13420 c-7 -16 -10 -39 -6 -50 6 -18 3 -20 -20 -17 -15 2 -30
9 -35 16 -11 20 -62 -18 -56 -41 2 -11 -2 -18 -10 -18 -7 0 -11 -6 -8 -14 3
-8 1 -17 -5 -21 -17 -10 -13 -82 5 -100 10 -9 20 -12 23 -7 3 5 22 12 42 16
31 5 38 11 43 37 5 26 9 29 27 24 15 -5 19 -4 15 4 -4 6 0 20 8 32 8 12 12 27
10 34 -5 13 43 14 63 2 6 -4 17 0 24 9 10 13 10 17 -2 25 -8 5 -24 9 -36 9
-16 0 -25 9 -33 34 -17 52 -33 61 -49 26z"/>
<path d="M10610 13284 c0 -11 5 -14 16 -10 9 3 20 6 25 6 5 0 9 5 9 10 0 6
-11 10 -25 10 -16 0 -25 -6 -25 -16z"/>
<path d="M10676 13265 c4 -8 12 -15 20 -15 8 0 14 -7 14 -15 0 -8 3 -14 8 -14
31 5 62 -3 62 -16 0 -8 -5 -15 -11 -15 -7 0 -5 -10 6 -26 13 -20 14 -28 4 -40
-6 -8 -9 -15 -5 -15 3 -1 11 -3 16 -4 6 -1 15 -3 20 -4 17 -2 11 -19 -7 -24
-10 -3 -1 -4 20 -2 45 3 76 25 37 25 -30 0 -41 8 -58 38 -10 18 -10 27 -2 37
9 11 7 21 -10 42 -12 15 -25 28 -28 28 -4 1 -21 9 -39 18 -39 21 -54 22 -47 2z"/>
<path d="M10159 13216 c-12 -14 -34 -30 -49 -36 -16 -7 -31 -22 -34 -36 -4
-13 -13 -24 -21 -24 -19 0 -84 -33 -85 -42 0 -14 -40 -48 -55 -48 -8 0 -15 -9
-15 -20 0 -11 -5 -20 -11 -20 -7 0 -17 -7 -23 -15 -6 -8 -34 -16 -65 -19 -31
-2 -59 -10 -65 -18 -13 -18 -36 -12 -36 8 0 23 -16 16 -60 -26 -23 -22 -48
-40 -56 -40 -8 0 -11 -6 -8 -15 4 -10 0 -15 -15 -15 -12 0 -21 -4 -21 -10 0
-5 -6 -10 -13 -10 -6 0 -34 -16 -61 -35 -27 -19 -57 -35 -66 -35 -9 0 -20 -4
-25 -9 -6 -5 -21 -11 -35 -13 -15 -2 -24 -9 -22 -17 5 -23 -39 -61 -70 -61
-24 0 -28 -4 -28 -27 -1 -37 -19 -59 -64 -78 -29 -13 -35 -19 -28 -33 13 -25
-5 -83 -23 -76 -11 5 -15 -2 -15 -24 0 -20 -9 -40 -26 -58 -22 -21 -24 -28
-13 -35 11 -6 11 -11 1 -21 -9 -9 -15 -9 -24 0 -8 8 -17 8 -30 1 -11 -6 -37
-8 -59 -4 -26 5 -39 3 -39 -5 0 -7 -17 -10 -48 -8 -30 2 -55 -2 -65 -10 -13
-11 -18 -9 -33 13 -17 26 -19 26 -31 9 -7 -10 -13 -27 -13 -39 0 -22 -34 -45
-65 -45 -8 0 -15 -5 -15 -11 0 -6 -9 -9 -19 -6 -15 3 -22 -4 -34 -34 -17 -43
-49 -61 -84 -48 -17 6 -23 4 -28 -11 -6 -18 -8 -19 -35 -5 -24 12 -29 12 -33
1 -9 -24 -41 -7 -65 34 -12 21 -22 46 -22 54 0 8 -20 27 -44 43 -25 15 -47 35
-49 45 -7 23 -44 26 -102 6 -49 -17 -50 -17 -67 3 -17 20 -17 20 -59 -11 -33
-23 -52 -30 -90 -30 -29 0 -49 -5 -51 -12 -4 -10 -10 -10 -32 0 -38 17 -105
16 -112 -3 -4 -10 -14 -13 -30 -9 -22 6 -24 4 -15 -18 11 -29 1 -51 -20 -44
-8 3 -24 -3 -36 -13 -25 -21 -28 -74 -6 -92 11 -10 9 -16 -12 -35 -31 -28 -69
-31 -87 -6 -16 21 -48 25 -48 6 0 -12 -25 -29 -77 -53 -13 -6 -23 -17 -23 -26
0 -8 -4 -15 -10 -15 -5 0 -11 -10 -11 -22 -1 -15 -3 -17 -6 -7 -3 13 -11 9
-37 -17 -19 -19 -41 -34 -50 -34 -9 0 -16 -4 -16 -9 0 -23 14 -41 30 -41 10 0
21 -7 24 -16 7 -19 -10 -44 -30 -44 -8 0 -14 -4 -14 -10 0 -5 -8 -10 -19 -10
-10 0 -24 -7 -31 -16 -17 -19 -85 -10 -114 15 -17 15 -58 20 -173 20 -25 0
-33 5 -34 18 -1 10 -6 0 -11 -22 -11 -42 -12 -143 -3 -183 4 -17 2 -22 -6 -16
-9 5 -10 -2 -4 -27 4 -19 8 -41 9 -49 1 -8 10 -29 19 -47 10 -18 16 -36 15
-40 0 -4 4 -21 11 -38 16 -38 6 -55 -47 -80 -23 -11 -42 -25 -42 -31 0 -7 -11
-26 -25 -42 -14 -17 -25 -39 -25 -50 0 -12 -7 -25 -16 -30 -14 -8 -14 -12 0
-45 8 -21 11 -37 5 -37 -16 0 -10 -49 11 -91 25 -48 56 -63 88 -43 17 11 27
12 43 4 24 -13 54 -5 43 11 -4 7 -1 10 7 7 8 -3 21 1 29 8 20 17 99 34 106 23
3 -5 15 -9 27 -8 12 0 38 -1 57 -2 19 -2 45 3 58 10 19 10 22 20 22 71 0 58 1
60 25 60 14 0 28 7 31 15 4 8 16 15 29 15 13 0 25 7 29 15 4 11 13 14 31 9 14
-3 31 -1 38 4 12 11 30 9 190 -12 16 -2 34 -11 40 -20 12 -17 109 -56 138 -56
9 0 24 -9 34 -20 9 -10 48 -29 86 -40 53 -17 72 -28 81 -48 11 -22 41 -46 86
-68 6 -3 12 -12 12 -20 0 -28 63 -145 86 -161 13 -8 24 -24 24 -34 0 -26 31
-40 68 -30 37 11 52 -2 52 -43 0 -33 67 -145 87 -146 15 0 48 -60 33 -60 -6 0
-7 -6 -1 -17 5 -10 13 -29 19 -43 5 -14 15 -38 21 -53 19 -48 14 -86 -14 -99
-13 -6 -29 -25 -35 -42 -9 -25 -13 -28 -20 -16 -8 13 -11 12 -24 -5 -9 -11
-16 -24 -16 -28 0 -5 -4 -6 -9 -3 -19 12 -17 -20 3 -49 43 -62 65 -85 71 -75
12 20 42 -9 48 -47 5 -31 2 -42 -20 -65 -18 -19 -23 -32 -18 -45 18 -44 22
-85 12 -113 -6 -17 -16 -30 -22 -30 -7 0 -9 -14 -7 -35 l4 -36 59 2 c35 1 64
-3 73 -10 8 -7 27 -14 41 -16 15 -1 41 -18 59 -39 19 -20 39 -36 45 -36 6 0
30 -12 52 -27 36 -24 43 -25 53 -12 14 20 61 30 146 31 56 1 71 -3 105 -26 31
-22 48 -27 77 -23 31 4 37 2 42 -17 4 -15 18 -26 41 -33 19 -6 35 -8 35 -5 0
4 4 13 8 20 7 10 18 9 55 -7 26 -11 47 -16 47 -11 0 13 46 13 71 0 13 -7 25
-7 38 -1 16 9 25 4 54 -29 20 -21 38 -33 40 -27 2 8 26 -4 63 -29 32 -23 81
-51 108 -63 27 -12 54 -29 61 -38 8 -10 35 -19 76 -24 58 -7 65 -6 80 13 14
19 20 20 49 9 41 -14 135 -14 161 -1 12 7 25 7 37 1 14 -7 32 -3 71 15 50 24
54 25 72 8 10 -9 19 -30 19 -46 0 -39 74 -146 107 -154 14 -4 34 -15 45 -26
13 -13 23 -16 35 -9 18 9 28 -2 53 -59 9 -19 8 -27 -3 -35 -10 -7 -13 -21 -10
-37 7 -36 93 -130 148 -162 34 -21 45 -33 45 -52 0 -36 26 -81 50 -87 13 -3
18 -11 14 -20 -7 -19 41 -57 72 -57 13 0 24 -6 24 -13 0 -8 17 -32 38 -55 28
-32 44 -42 67 -41 48 1 95 -12 108 -30 6 -9 21 -17 32 -17 11 -1 35 -8 53 -15
31 -13 34 -12 51 10 l18 23 19 -24 c25 -32 64 -32 64 -1 0 24 15 31 23 11 3
-10 9 -9 23 4 19 16 20 16 39 -13 16 -24 25 -28 47 -24 21 5 31 1 49 -24 13
-17 28 -31 35 -31 24 0 65 -42 59 -61 -4 -10 -2 -19 3 -19 5 0 9 -6 9 -13 0
-15 48 -93 63 -102 5 -3 10 -16 10 -28 0 -23 81 -97 106 -97 8 0 14 -8 14 -17
0 -14 2 -15 9 -5 6 11 13 8 28 -12 11 -14 22 -23 25 -21 3 3 25 -1 49 -8 37
-11 47 -11 57 -1 7 7 12 18 12 24 0 14 21 12 34 -4 9 -11 18 -10 54 6 36 16
42 23 42 48 0 23 5 30 19 30 23 0 36 -16 21 -25 -5 -3 -10 -19 -10 -36 0 -19
-5 -29 -15 -29 -18 0 -19 -12 -3 -28 6 -6 11 -31 11 -56 -1 -48 7 -57 62 -62
70 -6 115 -26 115 -52 1 -25 50 -81 57 -64 4 10 11 8 29 -9 13 -12 24 -28 24
-36 0 -7 4 -13 9 -13 5 0 17 -7 26 -16 12 -12 13 -19 4 -30 -9 -11 -8 -18 2
-31 8 -9 14 -26 14 -37 0 -15 7 -22 27 -24 27 -3 63 -45 54 -61 -3 -5 1 -14
10 -21 8 -7 13 -19 10 -27 -6 -15 -8 -14 62 -18 31 -2 68 3 89 11 33 14 37 14
57 -5 15 -14 39 -21 86 -24 77 -5 119 -24 157 -72 15 -19 35 -35 44 -35 8 0
30 -20 47 -44 24 -33 40 -45 67 -50 19 -4 40 -4 46 -1 5 4 15 2 22 -3 7 -5 21
-6 32 -1 19 7 19 8 -2 8 -23 1 -29 11 -16 24 12 13 9 122 -4 144 -8 14 -11 37
-7 61 6 38 5 39 -26 45 -26 6 -30 10 -25 27 4 11 2 20 -4 20 -6 0 -8 6 -5 14
6 15 82 19 99 5 6 -4 17 -4 24 0 11 7 11 13 -2 32 -10 14 -14 32 -10 47 5 22
4 23 -16 12 -12 -6 -35 -9 -50 -5 -19 4 -32 1 -41 -10 -16 -19 -34 -19 -67 2
-24 16 -26 16 -39 -1 -7 -10 -18 -15 -24 -11 -7 4 -15 3 -19 -3 -4 -6 -38 -2
-99 14 -84 22 -95 23 -115 9 -12 -8 -31 -15 -43 -15 -12 0 -25 -6 -28 -12 -3
-10 -9 -8 -19 4 -8 10 -17 15 -20 12 -3 -3 -13 11 -22 32 -11 27 -12 39 -4 45
18 11 0 48 -26 55 -13 3 -29 12 -36 20 -6 8 -15 11 -20 8 -5 -3 -9 3 -9 13 0
10 -10 23 -22 28 -13 6 -26 24 -30 43 -8 29 -12 32 -47 32 -43 0 -71 29 -71
72 0 30 -12 47 -41 62 -13 6 -30 24 -37 38 -7 15 -21 30 -32 33 -11 4 -20 15
-20 26 0 11 -16 29 -39 45 -22 14 -47 41 -56 60 -9 19 -22 34 -28 33 -25 -3
-38 1 -32 10 3 5 -3 12 -13 15 -20 7 -52 70 -52 103 0 21 -42 73 -60 73 -5 0
-10 8 -10 18 -1 22 -31 58 -56 66 -22 7 -59 76 -69 129 -4 19 -20 48 -36 63
-16 15 -29 36 -29 46 0 34 -28 75 -90 130 -33 30 -60 60 -60 66 0 6 -9 13 -20
17 -11 3 -44 30 -74 59 -43 43 -63 55 -104 63 -28 5 -57 6 -64 2 -7 -5 -21 -6
-31 -3 -10 3 -25 0 -33 -7 -12 -10 -30 4 -109 84 -86 89 -104 102 -129 98 -5
-1 -23 5 -40 13 -37 18 -76 56 -56 56 9 0 8 7 -4 25 -9 14 -14 29 -11 34 12
21 -34 91 -85 130 -30 22 -58 47 -63 56 -4 8 -15 15 -23 15 -8 0 -26 7 -39 16
-14 9 -35 14 -48 11 -17 -5 -27 1 -45 27 -12 18 -22 40 -22 50 0 27 -33 77
-47 72 -8 -3 -13 2 -13 14 0 13 -7 20 -20 20 -22 0 -86 75 -82 96 2 8 -2 15
-8 15 -21 3 -25 5 -51 22 -17 11 -31 34 -39 62 -11 39 -17 46 -54 58 -31 10
-42 20 -44 38 -2 13 -8 29 -13 35 -11 13 -59 26 -104 28 -107 6 -127 14 -106
40 11 13 11 16 -2 16 -11 0 -19 14 -24 42 -6 27 -14 43 -23 43 -18 0 -90 67
-90 83 0 14 -44 34 -75 36 -11 1 -20 6 -20 11 -1 6 -7 34 -15 63 -10 37 -18
51 -28 47 -7 -2 -26 4 -41 16 -15 11 -34 21 -42 22 -8 2 -26 15 -40 29 -33 33
-95 47 -112 25 -7 -8 -24 -17 -38 -21 -21 -5 -35 2 -72 34 -25 22 -49 40 -54
40 -6 0 -23 11 -39 25 -17 15 -37 24 -48 21 -10 -3 -31 1 -45 9 -15 7 -39 11
-54 8 -18 -4 -27 -1 -27 7 0 7 -18 32 -40 56 -22 24 -40 48 -40 54 0 6 -10 24
-21 40 -12 15 -23 48 -25 71 -2 24 -8 47 -14 53 -5 5 -10 22 -10 37 0 14 -10
38 -21 53 -12 15 -18 30 -15 33 3 4 -4 17 -16 30 -26 28 -28 105 -2 182 9 28
14 57 11 65 -4 9 2 17 13 21 26 8 35 43 16 64 -14 15 -13 18 5 29 11 7 25 10
31 6 8 -5 9 -2 5 9 -8 22 20 22 47 2 25 -19 46 -19 46 0 0 20 7 19 36 -4 22
-18 27 -18 76 -4 29 9 57 19 63 24 16 16 43 10 74 -17 26 -21 34 -24 46 -14
12 10 18 10 30 0 9 -7 25 -10 41 -6 26 7 86 45 92 58 2 4 16 1 32 -7 21 -11
36 -12 52 -6 13 6 40 12 61 16 30 5 37 10 37 29 0 32 8 36 38 23 20 -9 26 -9
30 1 2 6 13 12 24 12 18 0 20 5 15 35 -3 19 -2 35 4 35 28 0 -13 131 -45 143
-9 4 -14 12 -12 19 2 7 10 42 17 76 9 50 17 65 34 72 24 9 35 62 35 175 0 48
-4 63 -19 72 -13 8 -17 19 -14 36 3 17 -2 32 -18 48 -20 20 -21 23 -6 34 22
16 21 25 -2 25 -31 0 -33 15 -5 46 13 16 23 37 20 46 -2 9 2 26 10 37 8 10 11
26 8 35 -4 12 0 16 16 16 16 0 20 4 16 16 -3 9 -6 23 -6 32 0 10 -8 22 -19 27
-10 6 -37 23 -61 39 -33 21 -40 30 -29 37 12 7 12 9 -1 9 -21 1 -68 62 -52 68
7 2 12 16 12 32 0 16 7 36 15 44 12 11 14 25 9 51 -5 30 -4 35 14 35 17 0 19
6 16 41 -4 45 9 79 30 79 7 0 25 -9 39 -20 30 -24 47 -26 47 -5 0 8 15 21 33
28 38 17 72 52 62 66 -3 6 0 11 8 11 8 0 20 6 26 14 7 8 25 18 41 21 40 9 85
62 69 81 -6 8 -17 14 -25 14 -7 0 -16 9 -19 20 -9 29 -59 27 -86 -4z m-1029
-1405 c0 6 5 7 11 3 6 -3 9 -15 6 -25 -3 -10 -1 -22 4 -25 10 -6 -14 -34 -30
-34 -6 0 -7 -8 -2 -22 4 -12 3 -31 -3 -44 -11 -24 -28 -26 -88 -9 -33 9 -35
18 -8 43 12 11 18 26 14 35 -3 10 2 21 15 28 15 10 18 20 14 42 l-6 28 37 -15
c21 -9 36 -11 36 -5z m-140 -421 c0 -10 -41 -31 -48 -25 -1 1 0 10 4 19 7 17
44 23 44 6z"/>
<path d="M6965 10870 c3 -5 8 -10 11 -10 2 0 4 5 4 10 0 6 -5 10 -11 10 -5 0
-7 -4 -4 -10z"/>
<path d="M13400 7519 c0 -5 5 -7 10 -4 6 3 10 8 10 11 0 2 -4 4 -10 4 -5 0
-10 -5 -10 -11z"/>
</g>
</svg>
