<?xml version="1.0" standalone="no"?>
<!DOCTYPE svg PUBLIC "-//W3C//DTD SVG 20010904//EN"
 "http://www.w3.org/TR/2001/REC-SVG-20010904/DTD/svg10.dtd">
<svg version="1.0" xmlns="http://www.w3.org/2000/svg"
 width="762.418234pt" height="509.440373pt" viewBox="0 0 762.418234 509.440373"
 preserveAspectRatio="xMidYMid meet">
<metadata>
Created by potrace 1.15, written by Peter Selinger 2001-2017
</metadata>
<g transform="translate(-620.952936,1207.875290) scale(0.100000,-0.100000)"
fill="#222222" stroke="none">
<path d="M6230 12053 c11 -14 20 -34 20 -43 0 -10 7 -23 16 -31 8 -7 24 -30
35 -51 13 -26 32 -44 63 -58 25 -11 47 -24 51 -30 3 -5 12 -7 20 -4 9 4 18 -3
24 -17 5 -13 30 -41 55 -62 24 -20 52 -50 61 -65 12 -20 35 -34 83 -51 37 -13
83 -32 102 -42 19 -10 51 -25 70 -34 45 -20 103 -62 114 -83 5 -9 17 -26 26
-37 10 -11 23 -46 30 -78 15 -72 44 -101 103 -104 59 -2 109 -9 130 -18 12 -5
32 -1 55 9 24 12 38 14 40 7 7 -20 24 -12 19 8 -3 12 1 22 9 25 13 5 54 -58
54 -83 0 -5 18 -39 41 -74 l40 -65 -2 -100 c-1 -55 2 -105 6 -112 5 -8 -4 -21
-21 -35 -34 -27 -33 -30 38 -147 13 -21 29 -39 37 -40 8 -2 19 -23 25 -48 10
-42 13 -45 46 -46 69 -2 104 -29 65 -51 -11 -7 -2 -18 40 -51 48 -38 58 -42
93 -36 38 6 38 5 50 -34 7 -22 9 -47 6 -56 -4 -9 0 -18 9 -22 8 -3 21 -19 27
-35 7 -16 17 -26 23 -22 6 3 7 1 3 -5 -8 -14 17 -55 27 -45 4 3 7 1 7 -5 0
-15 22 -15 71 -1 32 10 38 17 41 43 3 27 9 33 46 45 38 12 45 11 70 -5 16 -10
22 -19 14 -22 -20 -6 -13 -22 11 -23 12 0 17 -3 10 -5 -7 -3 4 -20 28 -43 24
-24 41 -52 45 -72 6 -32 27 -59 47 -59 5 0 6 7 3 16 -5 13 -1 15 21 10 16 -4
33 -13 38 -20 7 -9 27 -13 54 -12 39 2 46 -1 81 -41 21 -25 42 -57 45 -73 3
-16 13 -34 21 -41 9 -7 22 -26 30 -42 32 -61 128 -168 157 -174 15 -3 30 -10
33 -14 3 -5 14 -9 25 -9 13 0 24 -10 30 -30 7 -19 18 -30 30 -30 11 0 22 -8
25 -17 3 -10 9 -25 14 -34 6 -11 2 -20 -11 -30 -11 -7 -18 -21 -17 -29 1 -8
-1 -32 -5 -52 -8 -39 -23 -48 -45 -26 -9 9 -12 9 -12 -1 0 -11 -3 -11 -15 -1
-12 10 -15 7 -21 -14 -3 -13 -3 -30 1 -35 3 -6 1 -11 -4 -11 -20 0 -11 -30 12
-39 12 -5 33 -18 46 -30 16 -14 28 -18 36 -11 6 5 22 13 35 18 l24 9 -22 19
c-27 23 -28 34 -3 34 14 0 17 6 14 23 -4 19 0 22 25 22 16 0 37 -7 47 -15 11
-9 16 -10 11 -3 -5 10 -1 11 19 3 15 -6 36 -8 48 -5 12 3 42 -1 66 -10 53 -18
51 -18 51 -1 0 7 16 28 37 45 59 51 95 45 176 -32 37 -34 67 -68 67 -74 0 -19
54 -40 92 -35 l37 4 -22 34 c-12 19 -27 34 -34 34 -15 0 -73 74 -73 93 0 9
-23 27 -55 41 -32 16 -66 42 -82 63 -15 20 -41 48 -57 63 -84 74 -86 78 -86
117 0 28 -8 48 -30 73 -16 19 -29 44 -30 55 0 21 -84 74 -97 61 -3 -3 -17 1
-29 9 -13 8 -30 12 -39 9 -10 -4 -31 8 -59 34 -24 22 -58 48 -75 56 -35 18
-35 20 -21 46 7 13 7 28 -1 47 -9 25 -20 120 -21 186 -1 15 5 39 13 53 11 22
11 32 -3 67 -9 23 -29 77 -46 119 -16 43 -42 92 -57 109 -18 22 -25 39 -21 54
5 19 -3 27 -57 55 -34 18 -72 43 -84 56 -12 13 -31 24 -42 24 -30 0 -54 41
-46 82 5 25 1 40 -14 60 -12 14 -21 34 -21 44 0 10 -15 34 -32 52 -29 31 -30
34 -11 29 29 -6 41 23 17 40 -16 12 -17 13 -1 13 9 0 17 5 17 11 0 5 5 7 10 4
6 -3 10 3 10 15 0 12 -12 28 -28 38 -59 36 -102 81 -102 107 0 37 -70 136
-119 168 -23 15 -41 31 -41 36 0 11 -28 41 -39 41 -4 0 -11 -12 -17 -26 -10
-29 -81 -61 -98 -44 -6 6 -18 10 -28 10 -10 0 -18 7 -18 15 0 17 -23 20 -50 5
-13 -7 -21 -6 -30 5 -7 8 -23 15 -36 15 -16 0 -22 4 -18 14 11 28 -22 34 -194
39 -59 1 -106 7 -110 13 -14 21 -43 23 -92 7 -46 -15 -51 -15 -68 0 -10 10
-26 17 -35 17 -9 0 -19 5 -23 11 -4 8 -9 7 -16 -2 -6 -10 -11 -10 -14 -3 -7
17 -134 -15 -127 -33 4 -9 -4 -13 -26 -13 -20 0 -29 4 -26 13 5 13 -47 47 -73
47 -17 0 -72 48 -72 63 0 20 -47 62 -71 64 -15 1 -39 14 -55 29 -16 14 -50 40
-77 56 -26 16 -53 38 -60 47 -12 17 -53 30 -109 34 -14 1 -39 11 -55 23 -30
22 -115 54 -145 54 -10 0 -38 15 -62 34 -33 25 -55 34 -85 34 l-41 1 20 -26z"/>
<path d="M7930 10140 c-12 -8 -11 -10 7 -10 12 0 25 5 28 10 8 13 -15 13 -35
0z"/>
<path d="M10782 9377 c-6 -29 -12 -60 -12 -70 0 -14 -9 -17 -48 -17 -47 0
-135 -23 -159 -42 -13 -11 -43 11 -43 31 0 30 -61 -22 -94 -79 -14 -24 -38
-48 -61 -60 -35 -18 -40 -18 -67 -4 -28 15 -32 14 -68 -11 -35 -24 -48 -27
-125 -27 -68 0 -90 4 -106 18 -10 9 -19 23 -19 31 0 7 -12 18 -27 24 -16 7
-38 16 -49 21 -12 6 -30 7 -41 4 -13 -4 -30 4 -53 26 -39 35 -101 46 -122 21
-9 -11 -13 -11 -19 -1 -6 9 -9 7 -9 -9 0 -12 -3 -28 -6 -36 -4 -11 4 -17 25
-22 17 -4 33 -15 36 -26 4 -10 12 -19 19 -19 7 0 21 -9 31 -20 10 -11 21 -17
26 -15 4 3 17 -7 28 -22 11 -16 24 -31 28 -35 69 -65 88 -76 106 -67 1 1 24
-12 51 -30 28 -17 56 -31 64 -31 26 0 102 -54 108 -77 8 -28 71 -78 77 -60 3
8 13 4 31 -13 15 -14 36 -24 46 -22 23 4 83 -76 76 -102 -3 -11 0 -28 5 -38 7
-14 7 -23 -1 -33 -8 -10 -8 -19 -1 -34 17 -31 14 -74 -4 -67 -19 7 -19 5 2
-39 14 -30 15 -39 4 -57 -19 -30 -23 -135 -6 -142 18 -7 38 -78 25 -86 -7 -4
-5 -19 4 -42 9 -19 13 -38 10 -40 -2 -3 0 -18 6 -33 7 -19 7 -31 0 -40 -19
-23 22 -85 56 -85 2 0 1 7 -2 15 -4 9 0 15 10 15 9 0 16 -7 16 -15 0 -10 10
-15 28 -15 16 0 37 -8 46 -19 9 -10 30 -21 46 -24 17 -4 31 -15 35 -27 3 -11
12 -20 20 -20 13 0 25 -30 25 -66 0 -12 15 -41 34 -65 19 -23 33 -46 30 -51
-6 -10 34 -88 46 -88 5 0 13 7 17 15 7 13 14 11 45 -10 20 -14 42 -25 48 -25
6 0 15 -11 21 -24 12 -25 52 -39 67 -24 21 21 87 14 140 -13 30 -15 60 -25 67
-23 19 8 37 -31 29 -63 -4 -22 -3 -25 5 -13 10 13 15 11 36 -13 29 -33 31 -49
8 -84 -16 -24 -16 -26 0 -38 9 -7 17 -22 17 -34 0 -18 6 -21 44 -21 26 0 46 5
49 13 3 9 12 8 35 -5 17 -9 41 -14 53 -11 14 4 25 0 31 -11 11 -20 48 -21 48
-1 0 8 7 15 15 15 8 0 15 5 15 10 0 6 13 4 30 -5 17 -9 30 -22 30 -30 0 -7 23
-35 51 -62 47 -45 50 -50 40 -76 -11 -27 -11 -27 16 -14 19 11 33 11 53 4 23
-9 32 -6 62 16 19 15 46 27 60 27 21 0 59 23 115 70 9 7 15 4 23 -10 9 -16 15
-18 30 -10 11 6 38 7 61 4 39 -7 41 -6 34 15 -4 15 -1 28 9 39 10 12 12 22 6
32 -15 23 -12 32 9 25 10 -3 23 1 30 9 10 12 8 17 -8 26 -11 6 -25 19 -31 30
-10 18 -7 19 57 14 95 -7 94 -7 138 2 41 7 102 50 97 67 -2 6 8 3 21 -6 32
-21 86 -25 97 -8 6 11 12 12 22 3 8 -6 36 -11 63 -11 28 1 62 -4 78 -10 24 -9
27 -8 27 8 0 13 10 22 31 26 18 4 35 16 41 31 8 16 17 22 28 19 11 -3 21 4 30
20 14 26 44 27 65 1 16 -20 55 -38 55 -26 0 5 7 10 15 10 10 0 15 10 15 28 l1
27 18 -22 c11 -13 22 -23 24 -23 3 0 20 15 38 33 18 17 36 31 41 29 4 -1 8 3
8 9 0 6 8 8 18 5 12 -4 27 3 43 20 20 22 24 34 21 80 -2 32 0 54 6 54 6 0 13
14 17 30 4 17 13 30 21 30 8 0 14 5 14 11 0 8 5 7 15 -1 13 -11 20 -11 40 0
14 7 25 19 25 27 0 7 10 13 22 13 12 0 43 18 69 40 26 22 59 41 73 42 14 1 26
6 26 11 0 4 9 3 20 -3 11 -6 20 -8 20 -4 0 3 11 -1 25 -10 21 -14 25 -14 25
-2 0 19 28 35 50 29 30 -8 31 13 5 62 -24 46 -118 145 -138 145 -17 0 -57 50
-57 71 0 16 -5 18 -24 13 -19 -4 -32 2 -57 25 -17 17 -39 31 -47 31 -26 0 -76
37 -107 79 -17 22 -35 41 -41 41 -6 0 -25 18 -43 40 -23 29 -40 40 -59 40 -15
0 -43 3 -63 6 -30 5 -36 10 -31 26 4 18 2 19 -16 9 -32 -17 -72 5 -72 40 0 20
6 28 21 31 20 3 20 4 2 23 -10 11 -25 40 -33 64 -8 24 -22 48 -32 55 -10 6
-18 16 -18 23 0 7 -15 19 -32 26 -18 8 -39 21 -47 30 -7 9 -17 14 -22 11 -5
-3 -14 7 -21 21 -12 26 -54 55 -81 55 -7 0 -20 11 -27 25 -7 13 -16 22 -20 20
-4 -3 -25 7 -46 22 -50 33 -139 37 -161 7 -11 -15 -17 -17 -33 -6 -11 6 -27
12 -36 12 -12 0 -14 3 -6 13 11 13 -8 45 -57 93 -13 13 -29 34 -36 46 -45 87
-63 108 -91 108 -13 0 -26 4 -29 10 -3 5 -28 12 -56 16 -40 5 -50 11 -55 30
-3 12 -14 30 -24 39 -16 15 -20 14 -47 -9 -27 -22 -32 -24 -50 -11 -15 11 -29
12 -56 4 -39 -11 -87 2 -87 23 0 7 -22 24 -49 37 -41 19 -53 21 -71 11 -22
-12 -32 -6 -43 24 -2 6 -16 5 -34 -3 -22 -9 -37 -10 -50 -3 -13 7 -24 6 -38
-4 -14 -11 -35 -13 -76 -8 -44 5 -62 3 -83 -11 -15 -10 -35 -15 -48 -12 -12 4
-28 1 -35 -5 -8 -6 -36 -9 -71 -6 -45 5 -62 2 -78 -11 -22 -18 -104 -18 -104
0 0 5 -13 9 -30 9 -16 0 -30 5 -30 11 0 7 -10 9 -25 7 -13 -3 -22 -1 -19 3 3
5 1 9 -3 9 -5 0 -15 16 -22 35 -12 35 -25 44 -36 25 -6 -10 -56 -3 -65 10 -5
7 -65 40 -72 40 -2 0 -9 -24 -16 -53z"/>
<path d="M9050 9330 c-9 -6 -10 -10 -3 -10 6 0 15 5 18 10 8 12 4 12 -15 0z"/>
</g>
</svg>
