<?xml version="1.0" standalone="no"?>
<!DOCTYPE svg PUBLIC "-//W3C//DTD SVG 20010904//EN"
 "http://www.w3.org/TR/2001/REC-SVG-20010904/DTD/svg10.dtd">
<svg version="1.0" xmlns="http://www.w3.org/2000/svg"
 width="574.050463pt" height="682.859340pt" viewBox="0 0 574.050463 682.859340"
 preserveAspectRatio="xMidYMid meet">
<metadata>
Created by potrace 1.15, written by Peter Selinger 2001-2017
</metadata>
<g transform="translate(-718.421632,1339.808574) scale(0.100000,-0.100000)"
fill="#222222" stroke="none">
<path d="M7503 13379 c-39 -18 -44 -18 -75 -3 -25 12 -39 13 -61 5 -15 -6 -27
-15 -27 -21 0 -16 -38 -12 -80 10 -29 15 -45 17 -62 11 -13 -6 -17 -10 -11
-10 7 -1 20 -15 28 -32 13 -25 21 -30 40 -25 18 5 25 1 30 -14 7 -22 -11 -53
-26 -44 -5 3 -9 -1 -9 -9 0 -17 28 -42 57 -51 12 -4 45 -29 74 -57 45 -43 56
-49 94 -49 39 0 44 -3 53 -30 6 -16 22 -41 36 -55 32 -32 32 -39 1 -53 -38
-18 -32 -42 10 -42 27 0 35 -4 35 -18 0 -11 9 -27 20 -37 11 -10 22 -26 26
-37 3 -11 26 -28 50 -38 24 -11 44 -23 44 -28 0 -5 11 -14 25 -20 14 -6 25
-17 25 -24 0 -7 9 -24 20 -38 11 -14 20 -35 20 -46 0 -22 63 -64 96 -64 8 0
13 -4 9 -9 -3 -5 -1 -12 5 -16 6 -4 8 -10 5 -15 -3 -5 -1 -17 4 -27 5 -10 12
-26 15 -36 7 -20 33 -17 28 3 -4 18 50 3 66 -18 16 -21 132 -25 132 -5 0 7 12
19 28 27 32 17 73 4 106 -33 11 -11 23 -21 29 -21 5 0 32 -12 61 -26 33 -17
73 -28 117 -31 62 -5 66 -4 82 21 15 22 21 24 43 16 33 -13 44 -12 22 1 -10 5
-18 15 -18 20 0 6 4 8 9 5 15 -10 -2 49 -18 60 -12 9 -13 15 -4 26 7 8 15 33
19 57 7 41 6 43 -15 36 -24 -7 -43 3 -128 67 -37 29 -60 55 -77 93 -21 46 -30
55 -63 64 -56 16 -118 56 -118 78 0 11 -7 18 -18 18 -10 0 -25 9 -33 20 -8 11
-20 20 -27 20 -7 0 -26 4 -44 8 -59 15 -118 138 -82 174 12 12 -38 53 -65 53
-9 0 -16 4 -16 9 0 20 -65 71 -91 71 -15 0 -31 5 -34 10 -4 6 -25 20 -48 32
-23 11 -52 31 -63 44 -18 18 -29 21 -61 17 -24 -3 -53 1 -77 11 -48 20 -60 19
-113 -5z"/>
<path d="M7518 12963 c6 -2 18 -2 25 0 6 3 1 5 -13 5 -14 0 -19 -2 -12 -5z"/>
<path d="M8757 12325 c4 -27 2 -34 -13 -37 -15 -4 -11 -9 19 -23 21 -11 37
-26 37 -36 0 -9 6 -22 14 -29 12 -9 13 -17 3 -38 -6 -15 -15 -29 -19 -32 -15
-11 4 -46 34 -63 18 -10 28 -23 25 -31 -7 -16 28 -76 44 -76 7 0 18 -8 26 -17
14 -17 14 -17 9 0 -3 10 1 25 9 34 12 11 14 27 9 66 -4 29 -12 61 -17 72 -6
11 -10 26 -9 33 2 7 -4 15 -13 18 -24 10 -75 63 -72 77 1 6 -9 13 -23 15 -35
6 -57 42 -25 42 16 0 20 27 7 45 -4 6 -17 12 -29 12 -19 1 -21 -2 -16 -32z"/>
<path d="M9060 11901 c0 -5 -9 -7 -20 -4 -12 3 -20 0 -20 -7 0 -7 -7 -10 -15
-6 -8 3 -15 1 -15 -5 0 -6 -8 -6 -21 2 -17 8 -20 8 -17 -2 2 -7 13 -17 24 -23
10 -6 22 -15 26 -21 13 -18 8 -53 -8 -59 -12 -4 -13 -10 -6 -19 11 -13 12 -16
12 -53 0 -14 4 -23 9 -20 10 7 35 -28 45 -64 23 -78 40 -110 57 -110 14 0 19
7 19 25 0 14 5 25 10 25 6 0 10 9 10 20 0 11 5 20 10 20 21 0 6 65 -22 98 -34
40 -36 54 -5 47 20 -5 25 -1 34 28 9 29 8 36 -8 45 -10 7 -21 23 -25 37 -3 14
-12 25 -19 25 -7 0 -15 7 -19 15 -6 16 -36 21 -36 6z"/>
<path d="M9091 11474 c-33 -14 -34 -16 -18 -32 10 -9 27 -17 39 -17 15 0 24
-7 26 -20 4 -27 24 -65 33 -65 10 0 32 97 25 109 -5 7 -65 43 -70 41 -1 -1
-16 -7 -35 -16z"/>
<path d="M9173 11274 c-13 -29 -8 -34 35 -34 27 0 33 3 28 16 -3 9 -6 18 -6
20 0 3 -5 2 -12 -2 -6 -4 -16 0 -22 8 -10 14 -13 13 -23 -8z"/>
<path d="M9270 11225 c-9 -11 -7 -19 15 -40 21 -22 29 -24 40 -15 20 16 19 26
-5 50 -24 24 -34 25 -50 5z"/>
<path d="M9337 11126 c3 -13 0 -27 -6 -30 -6 -4 -11 -17 -11 -30 0 -13 -9 -31
-20 -41 -33 -30 -22 -140 15 -157 15 -7 33 -35 53 -87 17 -42 49 -117 71 -168
29 -65 40 -105 39 -136 0 -25 2 -49 5 -54 3 -4 2 -27 -2 -49 -6 -33 -4 -47 10
-65 10 -13 19 -32 19 -41 0 -10 5 -18 11 -18 8 0 10 14 6 42 -5 35 -2 44 19
60 13 11 24 26 24 34 0 8 9 14 19 14 15 0 22 10 28 43 7 30 6 43 -3 45 -7 2
-15 19 -19 38 -3 20 -8 41 -11 48 -4 10 2 12 19 9 14 -3 28 0 31 6 4 6 1 11
-7 11 -10 0 -16 13 -19 38 -5 39 -1 46 75 138 28 35 35 49 27 59 -6 7 -10 17
-9 21 6 35 -5 77 -26 102 -14 17 -25 41 -25 55 0 15 -5 37 -11 51 l-12 25 -19
-24 c-11 -14 -26 -25 -34 -25 -8 0 -14 -4 -14 -10 0 -18 -15 -11 -53 25 -35
33 -49 40 -71 36 -18 -4 -67 22 -77 40 -14 27 -27 24 -22 -5z"/>
<path d="M9527 10194 c-4 -4 -7 -22 -7 -40 0 -30 13 -52 43 -71 7 -5 26 -26
43 -48 39 -50 53 -134 30 -178 -10 -18 -12 -35 -7 -50 5 -12 5 -31 1 -42 -4
-12 -2 -28 6 -40 8 -11 14 -33 14 -50 0 -16 12 -48 25 -70 14 -22 25 -51 25
-64 0 -13 14 -48 31 -78 17 -29 28 -60 26 -68 -4 -8 9 -25 30 -40 27 -21 34
-33 30 -51 -3 -15 6 -40 23 -67 15 -24 30 -65 35 -93 4 -27 11 -57 17 -67 7
-13 5 -25 -6 -42 -9 -14 -16 -31 -16 -40 0 -10 -10 -15 -27 -16 -27 0 -28 0
-5 -10 13 -5 21 -13 18 -18 -9 -14 43 -51 69 -51 16 0 26 -8 33 -29 8 -22 18
-30 47 -35 26 -5 35 -11 31 -22 -3 -8 -9 -21 -12 -29 -4 -10 2 -18 18 -24 13
-5 29 -15 36 -23 16 -20 25 -85 12 -93 -5 -3 -10 -14 -10 -24 0 -10 -10 -25
-22 -33 -20 -13 -21 -18 -9 -32 11 -13 11 -17 -3 -22 -18 -7 -22 -39 -6 -49 6
-3 7 1 4 10 -5 13 -1 16 22 13 16 -2 32 -7 35 -12 4 -5 12 1 18 12 7 14 8 23
1 27 -5 3 -10 16 -10 27 0 20 1 20 20 3 11 -10 17 -22 14 -26 -3 -5 14 -46 37
-92 61 -119 60 -117 53 -128 -3 -5 0 -17 7 -25 10 -12 10 -17 0 -23 -8 -6 1
-23 34 -58 25 -28 45 -60 45 -72 0 -16 6 -21 25 -21 15 0 23 -5 20 -13 -3 -6
17 -40 45 -74 27 -34 50 -72 50 -85 0 -27 28 -73 57 -93 30 -21 68 -106 52
-116 -16 -10 15 -60 34 -54 6 2 40 6 74 10 56 5 62 4 56 -11 -9 -23 22 -44 64
-44 19 0 47 -7 63 -15 21 -11 36 -12 55 -5 38 15 75 12 81 -5 4 -8 12 -15 19
-15 6 0 20 -9 30 -20 10 -11 28 -20 39 -20 12 -1 38 -7 59 -14 33 -12 39 -12
44 0 8 22 72 17 128 -10 36 -18 56 -35 70 -63 11 -21 29 -39 40 -41 11 -2 25
-9 30 -16 20 -25 57 -38 90 -32 26 5 39 1 64 -20 39 -32 97 -48 105 -28 3 8
19 14 36 14 16 0 30 5 30 11 0 7 10 9 25 7 30 -6 34 8 5 17 -11 3 -20 10 -20
15 0 5 -17 12 -37 16 -25 5 -49 20 -75 49 -28 30 -45 41 -58 38 -13 -4 -36 9
-69 36 -27 23 -56 41 -64 41 -9 0 -19 5 -22 11 -5 6 -12 4 -20 -8 -12 -17 -15
-17 -67 4 -29 12 -64 24 -78 27 -14 3 -41 15 -60 27 -24 15 -48 22 -75 20 -36
-2 -46 3 -94 47 -47 43 -52 52 -42 70 18 34 13 71 -14 98 -16 16 -25 36 -25
57 -1 21 -11 44 -30 67 -20 22 -27 37 -20 44 6 6 10 22 10 37 0 18 9 35 26 48
20 16 25 26 20 46 -7 27 -44 85 -82 128 -13 15 -22 27 -19 27 3 0 -1 10 -10
23 -8 13 -13 26 -10 29 3 3 -12 10 -34 16 -30 9 -39 17 -39 35 -1 12 -5 46
-10 74 -4 29 -5 58 0 65 4 7 8 23 8 34 0 12 11 29 24 37 23 15 28 34 39 140 4
37 -15 63 -58 77 -42 14 -76 67 -53 81 10 7 9 9 -4 9 -20 0 -38 29 -38 62 -1
20 -2 21 -13 7 -10 -12 -16 -13 -36 -3 -18 10 -30 31 -47 91 -13 43 -23 90
-24 104 0 16 -11 33 -30 47 -16 13 -29 26 -29 30 4 24 -3 32 -24 27 -15 -4
-28 -1 -36 9 -8 9 -18 16 -24 16 -6 0 -19 8 -29 17 -11 10 -31 18 -46 19 -15
1 -30 3 -35 3 -4 1 -25 19 -47 42 -32 33 -41 38 -46 25 -8 -22 -18 -20 -64 9
-21 13 -71 36 -111 50 -40 13 -78 34 -86 44 -7 11 -20 18 -28 15 -9 -4 -19 4
-26 20 -7 14 -18 26 -26 26 -7 0 -13 4 -13 10 0 5 -13 31 -30 57 -16 26 -30
55 -30 65 0 10 -6 18 -12 18 -15 0 -63 58 -80 97 -7 15 -20 33 -28 40 -9 6
-17 25 -18 41 -1 17 -9 43 -17 59 -8 15 -15 31 -15 35 0 13 -92 128 -102 128
-5 0 -12 9 -16 20 -4 12 -11 18 -15 14z"/>
<path d="M12276 7562 c-4 -7 -2 -19 4 -27 22 -26 -18 -30 -64 -7 -37 19 -106
27 -106 13 0 -12 -61 -33 -77 -27 -16 7 -73 -44 -73 -65 0 -5 -3 -8 -7 -7 -18
3 -41 -15 -36 -28 3 -8 -1 -14 -11 -14 -9 0 -25 -5 -36 -12 -18 -12 -18 -12 0
-33 60 -65 107 -105 123 -105 10 0 20 -7 23 -15 4 -8 13 -15 20 -15 8 0 19
-11 24 -25 5 -14 14 -25 20 -25 5 0 18 -17 29 -37 17 -34 29 -51 71 -101 6 -7
15 -10 20 -7 5 3 35 -30 68 -74 48 -63 58 -84 55 -107 -5 -32 17 -59 52 -66
12 -2 21 -13 23 -26 2 -13 10 -22 22 -22 10 0 25 -11 34 -24 9 -14 35 -34 59
-44 24 -11 60 -36 80 -56 40 -39 84 -48 111 -21 8 8 17 11 20 6 9 -14 116 -3
152 16 37 18 49 56 32 104 -9 26 -8 33 6 41 11 6 14 14 7 26 -4 9 -7 25 -5 35
1 10 -7 35 -19 55 -11 20 -21 38 -21 38 -1 1 -11 4 -22 8 -19 6 -21 3 -16 -19
6 -33 -22 -34 -44 -1 -8 14 -30 30 -47 35 -29 10 -32 15 -33 53 -1 47 -42 142
-82 191 -10 12 -10 17 -1 23 9 5 7 11 -6 20 -12 9 -16 20 -11 39 8 33 -7 61
-45 80 -18 10 -32 26 -35 43 -4 20 -18 35 -52 52 -25 14 -50 25 -56 25 -21 0
-56 26 -56 40 0 8 -8 15 -17 15 -21 0 -59 29 -65 50 -3 11 -6 11 -12 2z"/>
</g>
</svg>
