<?xml version="1.0" standalone="no"?>
<!DOCTYPE svg PUBLIC "-//W3C//DTD SVG 20010904//EN"
 "http://www.w3.org/TR/2001/REC-SVG-20010904/DTD/svg10.dtd">
<svg version="1.0" xmlns="http://www.w3.org/2000/svg"
 width="681.047204pt" height="641.916896pt" viewBox="0 0 681.047204 641.916896"
 preserveAspectRatio="xMidYMid meet">
<metadata>
Created by potrace 1.15, written by Peter Selinger 2001-2017
</metadata>
<g transform="translate(-664.952796,1333.000000) scale(0.100000,-0.100000)"
fill="#222222" stroke="none">
<path d="M6662 13293 c3 -32 7 -38 35 -45 46 -12 58 -48 38 -115 -6 -18 -1
-26 25 -41 17 -11 38 -30 47 -42 9 -12 18 -18 22 -13 3 6 20 13 37 16 29 6 32
3 46 -32 19 -49 13 -101 -13 -101 -15 0 -17 -4 -9 -24 7 -19 5 -26 -8 -32 -9
-4 -22 -6 -27 -6 -6 1 -9 -15 -7 -39 3 -30 8 -39 18 -35 20 8 29 -21 14 -39
-10 -12 -10 -21 -1 -41 10 -23 9 -25 -9 -20 -11 3 -29 8 -39 11 -12 4 -30 -4
-48 -19 -15 -14 -22 -26 -15 -26 6 0 12 5 12 10 0 6 7 10 15 10 8 0 15 -7 15
-15 0 -9 -7 -18 -15 -21 -8 -4 -15 -10 -15 -16 0 -5 4 -7 9 -4 14 9 33 -21 27
-42 -5 -15 -1 -21 19 -26 26 -7 31 -21 16 -45 -14 -22 -39 -22 -46 0 -4 13
-16 19 -35 19 l-29 0 3 -65 c3 -44 0 -65 -8 -65 -6 0 -1 -9 12 -18 20 -15 23
-24 17 -54 -6 -32 -5 -36 19 -40 15 -3 29 -2 31 2 3 5 14 6 25 3 13 -3 20 0
20 8 0 10 3 10 12 1 10 -10 10 -14 0 -21 -7 -4 -14 -24 -15 -44 -1 -20 -8 -39
-15 -42 -7 -3 -12 -15 -11 -27 3 -24 -27 -97 -45 -111 -7 -5 -5 -7 4 -5 22 4
80 -25 80 -39 0 -7 4 -13 9 -13 5 0 7 9 4 20 -5 18 0 20 38 22 24 0 56 0 72
-1 22 -2 27 2 27 20 0 22 9 23 92 6 23 -4 66 -45 74 -69 3 -10 12 -18 20 -18
8 0 19 -11 26 -25 6 -13 15 -22 19 -19 4 2 13 -6 20 -18 18 -34 41 -48 67 -41
24 6 29 1 85 -65 31 -38 34 -52 11 -52 -10 0 -14 -6 -11 -14 3 -8 1 -17 -6
-19 -8 -3 -6 -11 7 -26 20 -22 20 -22 -2 -28 -12 -3 -22 -8 -22 -12 0 -10 17
-33 21 -29 9 7 80 -56 75 -67 -5 -14 25 -46 60 -63 18 -9 26 -6 50 19 16 17
41 37 55 44 31 16 99 22 118 11 8 -5 16 -4 21 4 6 9 13 9 31 -1 l24 -14 -22
-3 c-25 -4 -28 -14 -13 -43 8 -15 7 -19 -5 -19 -8 0 -15 -4 -15 -10 0 -5 6 -7
13 -4 14 5 117 -89 117 -106 0 -5 -4 -12 -10 -15 -16 -10 -12 -35 11 -63 11
-15 16 -28 11 -30 -11 -3 -3 -63 11 -80 8 -10 7 -16 -3 -22 -12 -7 -11 -12 4
-29 11 -12 24 -21 31 -21 6 0 18 -14 26 -32 8 -17 29 -39 46 -48 18 -10 51
-36 73 -59 31 -32 40 -49 40 -76 0 -29 4 -36 25 -41 14 -3 25 -12 25 -20 0 -8
9 -14 19 -14 11 0 23 -5 27 -11 7 -12 -15 -31 -28 -23 -4 3 -8 0 -8 -5 0 -6 4
-11 9 -11 18 0 21 -33 5 -51 -15 -17 -15 -23 -4 -47 8 -15 14 -29 15 -32 4
-20 38 -70 64 -94 17 -17 31 -36 31 -44 0 -7 9 -21 20 -30 24 -21 41 -79 19
-67 -8 4 -2 -5 14 -22 33 -35 35 -48 5 -32 -20 10 -21 10 -12 -2 7 -8 10 -31
8 -51 -3 -29 -1 -36 9 -32 8 3 20 -2 27 -11 7 -8 20 -15 29 -15 9 0 37 -20 61
-45 28 -28 56 -47 77 -51 18 -3 36 -10 39 -15 10 -16 32 -9 37 11 9 33 59 27
81 -11 11 -19 23 -28 32 -25 9 3 30 -9 50 -29 28 -28 34 -40 28 -58 -12 -33
-11 -39 10 -63 15 -16 24 -19 36 -12 12 8 25 6 48 -6 41 -21 43 -20 36 8 -5
20 -2 25 18 28 12 2 30 1 38 -3 8 -4 28 -11 44 -15 17 -5 36 -22 46 -41 9 -17
24 -43 33 -57 16 -24 19 -38 17 -101 -4 -101 2 -156 22 -223 16 -56 19 -77 10
-80 -8 -2 -6 -12 8 -32 11 -15 20 -37 20 -48 0 -11 7 -25 15 -32 8 -7 15 -24
15 -39 2 -78 8 -106 29 -119 11 -8 21 -19 21 -25 0 -28 31 -44 73 -40 38 5 44
2 54 -20 9 -19 8 -29 -3 -45 -12 -18 -11 -20 8 -25 12 -4 19 -9 15 -13 -3 -4
0 -15 7 -26 8 -11 12 -28 9 -38 -4 -16 3 -19 68 -26 63 -6 77 -11 111 -42 21
-19 38 -39 38 -45 0 -18 34 -36 47 -25 9 7 15 -1 23 -34 7 -26 22 -51 37 -62
24 -18 28 -18 54 -4 25 15 27 15 39 -7 7 -13 10 -28 6 -33 -3 -6 -2 -13 4 -17
13 -8 3 -25 -16 -25 -8 0 -14 7 -14 15 0 8 -4 15 -10 15 -5 0 -10 -9 -10 -20
0 -19 -14 -24 -57 -23 -18 1 -1 -26 36 -60 18 -16 31 -36 30 -50 0 -21 -1 -21
-9 -2 -7 17 -9 16 -10 -10 0 -16 -7 -38 -15 -49 -11 -15 -12 -23 0 -50 36 -85
44 -114 42 -144 -3 -34 31 -81 40 -54 3 6 15 12 28 12 13 0 25 5 27 11 3 9 10
9 26 0 12 -7 27 -9 32 -6 6 4 13 -2 17 -12 13 -35 33 -48 54 -35 27 17 29 16
29 -25 0 -21 7 -47 15 -57 8 -11 15 -37 15 -59 0 -30 -4 -40 -20 -44 -15 -4
-20 -14 -20 -39 0 -26 -4 -34 -18 -34 -15 0 -17 -6 -14 -33 3 -30 0 -35 -27
-47 -31 -12 -31 -13 -14 -32 13 -15 25 -18 51 -13 40 7 144 -14 155 -31 4 -7
14 -11 22 -7 9 3 21 0 29 -6 16 -14 46 -4 46 15 0 8 9 23 20 34 11 11 17 20
14 20 -16 0 30 33 57 40 23 7 37 5 53 -5 11 -8 32 -15 46 -15 14 0 30 -4 36
-9 13 -12 84 -24 84 -14 0 5 15 10 33 11 29 2 30 1 14 -12 -21 -16 -16 -21 31
-31 18 -4 36 -14 39 -23 9 -30 37 -82 44 -82 4 0 29 -20 55 -45 27 -25 55 -45
63 -45 9 0 11 -7 6 -22 -14 -44 -5 -88 22 -117 12 -13 19 -30 16 -37 -5 -14
39 -64 58 -64 5 0 9 -7 9 -15 0 -8 4 -15 8 -15 15 0 42 36 35 45 -5 4 -2 5 5
1 6 -4 12 -14 12 -22 0 -8 4 -13 8 -10 5 3 27 0 50 -6 29 -7 46 -7 55 0 17 14
60 7 140 -22 38 -14 75 -22 83 -19 20 8 41 -12 48 -47 4 -22 10 -28 21 -24 9
4 26 -3 40 -16 20 -19 27 -21 40 -10 8 7 21 10 29 7 8 -3 20 1 26 9 7 8 25 14
40 14 16 0 31 6 34 13 3 9 8 8 15 -4 6 -9 22 -20 36 -23 14 -4 25 -14 25 -23
0 -10 7 -36 16 -60 22 -56 66 -82 148 -88 l61 -3 17 40 c14 32 22 39 38 35 13
-3 20 0 20 9 0 8 4 14 10 14 5 0 7 -8 4 -17 -5 -15 -4 -15 4 -3 6 8 8 27 5 42
-5 23 -2 28 15 28 11 0 22 5 24 12 3 9 6 9 12 0 4 -7 3 -12 -3 -12 -6 0 -8 -7
-5 -15 4 -8 1 -15 -4 -15 -15 0 -6 -39 13 -60 17 -19 103 -32 108 -16 2 5 14
3 27 -4 14 -7 52 -14 85 -16 63 -3 98 -9 115 -19 5 -3 19 -8 31 -10 11 -2 29
-7 38 -10 10 -3 23 1 30 9 6 8 20 12 30 9 26 -7 55 41 41 67 -10 19 -8 20 38
20 39 0 53 -5 73 -26 13 -14 36 -32 50 -39 23 -13 28 -11 61 18 36 32 36 32
23 72 -16 44 -14 53 5 30 15 -18 57 -20 62 -3 4 10 10 10 31 1 23 -11 27 -10
27 3 0 8 6 17 14 20 8 3 12 12 9 21 -3 8 0 25 7 38 11 20 10 26 -4 40 -36 36
-45 68 -30 103 7 18 19 35 27 38 22 8 18 84 -5 117 -17 24 -17 27 -3 27 9 0
14 4 10 10 -7 12 52 43 66 34 6 -3 20 4 31 16 18 19 29 22 69 18 49 -5 78 9
65 30 -3 6 10 22 28 36 27 20 34 33 34 57 -1 20 5 35 15 41 23 12 21 50 -3 71
-23 19 -26 35 -7 34 44 -1 67 5 67 18 0 26 -39 36 -138 37 -64 0 -107 6 -126
15 -21 11 -35 12 -52 4 -18 -8 -28 -6 -46 8 -13 10 -66 35 -118 55 -52 21
-105 47 -117 59 -21 19 -27 19 -74 9 -28 -7 -59 -12 -69 -12 -20 0 -106 67
-185 145 -25 24 -53 45 -63 47 -9 2 -16 9 -15 15 3 15 -41 10 -61 -6 -9 -7
-23 -10 -32 -7 -11 4 -18 -1 -21 -14 -3 -11 -10 -20 -17 -20 -6 0 -28 -9 -49
-20 -20 -11 -44 -20 -52 -20 -9 0 -18 -6 -21 -14 -4 -12 -17 -13 -57 -9 -39 5
-59 14 -84 38 -27 26 -44 33 -90 38 -44 5 -62 12 -87 36 -25 24 -35 28 -44 19
-6 -6 -33 -14 -59 -16 -26 -2 -59 -10 -73 -17 -28 -14 -47 -9 -170 52 -36 17
-73 34 -82 37 -9 3 -26 25 -38 50 -11 25 -33 53 -50 63 -16 9 -30 25 -30 35 0
10 -19 28 -44 43 -28 16 -48 37 -55 55 -5 16 -22 45 -38 65 -15 19 -28 39 -28
43 0 9 -33 48 -99 116 -21 23 -45 56 -53 74 -7 17 -19 32 -27 32 -16 0 -81 69
-90 96 -8 25 -76 57 -91 44 -12 -10 -35 31 -51 90 -9 33 -52 90 -68 90 -8 0
-19 7 -27 16 -7 9 -29 22 -49 30 -20 8 -44 28 -54 44 -9 17 -15 30 -12 30 3 0
0 14 -5 30 -6 17 -17 30 -25 30 -8 0 -19 9 -26 20 -7 11 -20 20 -29 20 -9 0
-24 9 -34 20 -10 11 -28 20 -40 20 -12 0 -33 9 -47 19 -13 11 -36 23 -51 26
-15 4 -29 17 -33 28 -9 30 -41 63 -73 76 -30 13 -81 96 -81 134 0 13 -7 30
-15 37 -8 7 -15 22 -15 35 0 36 -72 93 -128 100 -77 11 -122 25 -122 39 0 7
-17 17 -37 22 -32 8 -39 15 -48 48 -13 46 -32 61 -85 70 -31 5 -43 13 -55 36
-18 36 -107 84 -139 76 -34 -9 -96 14 -96 36 0 10 -9 36 -20 58 -11 22 -20 55
-20 75 0 19 -3 35 -7 35 -5 0 -31 22 -60 49 -48 46 -52 53 -58 108 -3 32 -9
63 -13 69 -43 67 -68 101 -84 112 -10 7 -18 19 -18 25 0 7 -9 30 -20 51 -14
29 -32 44 -71 62 -28 13 -64 35 -80 48 -15 13 -51 34 -79 47 -27 12 -50 29
-50 36 0 7 -6 13 -14 13 -8 0 -17 7 -20 16 -3 9 -12 14 -19 11 -22 -7 -36 97
-24 177 6 39 11 92 12 119 0 32 4 46 12 43 19 -8 11 36 -14 73 -12 18 -25 48
-29 67 -3 19 -10 34 -14 34 -5 0 -29 20 -54 45 -46 44 -96 68 -96 46 0 -6 -9
-11 -21 -11 -23 0 -122 97 -145 143 -13 23 -20 28 -40 23 -42 -11 -88 35 -50
50 17 6 28 57 20 90 -6 23 -8 24 -24 9 -17 -15 -19 -15 -25 4 -8 25 1 41 21
41 18 0 18 20 0 34 -8 6 -18 27 -21 48 -6 29 -3 38 12 46 15 8 18 19 15 51 -4
38 -6 41 -33 41 -29 0 -40 14 -16 23 20 7 -7 42 -31 40 -31 -4 -34 24 -7 51
14 14 25 34 25 45 0 11 14 27 35 40 22 13 35 28 35 41 0 11 5 20 10 20 6 0 10
5 10 10 0 6 -9 10 -19 10 -10 0 -22 7 -25 16 -6 15 -10 14 -31 -6 -14 -13 -25
-20 -25 -16 0 4 -7 0 -16 -8 -16 -17 -59 -15 -78 4 -5 5 -20 10 -32 10 -12 0
-24 7 -28 15 -3 8 -15 15 -27 15 -15 0 -19 4 -15 16 3 9 -4 24 -17 38 -12 12
-22 26 -22 31 0 6 -18 15 -40 21 -59 16 -74 24 -81 46 -5 16 -12 19 -39 14
-26 -5 -34 -3 -40 11 -6 17 -7 17 -20 -1 -13 -17 -18 -17 -47 -5 -45 18 -66
49 -33 49 16 0 14 23 -6 78 -12 31 -11 32 5 32 8 0 18 9 21 20 3 11 12 20 18
20 7 0 4 5 -6 11 -9 6 -15 14 -12 19 10 16 -17 22 -32 7 -12 -11 -23 -13 -56
-5 -23 5 -58 8 -78 6 -26 -2 -42 3 -59 19 -13 12 -38 25 -54 28 -55 11 -141
47 -158 67 -9 10 -33 25 -54 34 -20 9 -48 22 -60 31 -13 8 -43 16 -67 18 -23
1 -58 12 -77 24 -44 26 -110 29 -110 4 0 -13 -3 -14 -12 -5 -7 7 -24 12 -39
12 -15 0 -31 4 -34 10 -3 5 -19 8 -35 6 -20 -2 -41 5 -62 20 -17 13 -34 24
-36 24 -2 0 -2 -17 0 -37z m302 -995 c17 -29 17 -29 0 -27 -11 2 -25 0 -32 -5
-17 -10 -52 20 -52 45 0 13 8 17 33 17 27 0 38 -6 51 -30z m3173 -4058 c1 -11
-4 -20 -13 -20 -17 0 -18 12 -2 28 7 7 12 12 13 12 0 0 1 -9 2 -20z m830 -632
c-3 -8 -6 -5 -6 6 -1 11 2 17 5 13 3 -3 4 -12 1 -19z"/>
<path d="M7740 13022 c0 -25 16 -37 23 -18 3 8 -1 20 -9 26 -11 10 -14 9 -14
-8z"/>
<path d="M7984 12793 c30 -59 61 -93 85 -93 13 0 17 -6 14 -22 -2 -14 5 -34
19 -50 l23 -28 23 24 23 25 -35 37 c-26 28 -40 35 -59 32 -19 -4 -28 2 -41 22
-8 15 -13 30 -9 34 3 3 -1 6 -10 6 -10 0 -17 8 -17 18 0 9 -9 23 -20 30 -19
12 -19 10 4 -35z"/>
<path d="M6663 12673 c-22 -8 -15 -32 7 -26 20 5 26 18 13 26 -5 2 -14 2 -20
0z"/>
<path d="M6710 12500 c0 -5 5 -10 11 -10 5 0 7 5 4 10 -3 6 -8 10 -11 10 -2 0
-4 -4 -4 -10z"/>
<path d="M8246 12357 c3 -10 9 -15 12 -12 3 3 0 11 -7 18 -10 9 -11 8 -5 -6z"/>
<path d="M6710 11970 c0 -5 4 -10 9 -10 6 0 13 5 16 10 3 6 -1 10 -9 10 -9 0
-16 -4 -16 -10z"/>
<path d="M13002 7029 c-7 -11 -11 -23 -9 -25 7 -7 29 24 25 36 -2 6 -9 1 -16
-11z"/>
<path d="M13055 7034 c12 -13 15 -27 10 -58 -4 -22 -8 -45 -9 -51 0 -5 14 -11
33 -13 27 -3 33 0 28 12 -3 8 0 22 9 30 9 9 10 17 4 21 -5 3 -10 14 -10 24 0
10 -15 24 -35 34 -45 21 -51 21 -30 1z"/>
<path d="M13270 7025 c-7 -8 -18 -15 -25 -15 -6 0 -20 -9 -30 -20 -10 -11 -26
-20 -37 -20 -28 0 -22 -18 13 -35 23 -12 34 -13 44 -5 10 8 15 8 21 -1 10 -16
26 25 18 46 -4 9 0 15 9 15 10 0 14 9 13 25 -1 29 -8 31 -26 10z"/>
<path d="M12852 7011 c-20 -5 -21 -8 -10 -24 19 -26 67 -27 84 -1 11 16 11 21
2 21 -7 0 -22 2 -33 5 -11 3 -30 3 -43 -1z"/>
</g>
</svg>
