<?xml version="1.0" standalone="no"?>
<!DOCTYPE svg PUBLIC "-//W3C//DTD SVG 20010904//EN"
 "http://www.w3.org/TR/2001/REC-SVG-20010904/DTD/svg10.dtd">
<svg version="1.0" xmlns="http://www.w3.org/2000/svg"
 width="933.572123pt" height="1147.812521pt" viewBox="0 0 933.572123 1147.812521"
 preserveAspectRatio="xMidYMid meet">
<metadata>
Created by potrace 1.15, written by Peter Selinger 2001-2017
</metadata>
<g transform="translate(-530.073804,1540.000000) scale(0.100000,-0.100000)"
fill="#222222" stroke="none">
<path d="M6654 15361 c0 -22 4 -37 9 -34 5 3 6 14 4 25 -4 14 -2 18 9 14 8 -3
14 1 14 8 0 11 -20 26 -34 26 -2 0 -3 -18 -2 -39z"/>
<path d="M6502 15318 c-7 -21 -12 -47 -12 -58 0 -13 -10 -24 -25 -30 -14 -5
-25 -14 -25 -20 0 -5 -6 -10 -14 -10 -9 0 -12 -7 -9 -20 4 -16 2 -19 -12 -14
-10 4 -20 1 -25 -6 -6 -10 -15 -10 -39 -2 -27 10 -29 9 -21 -6 5 -9 11 -26 15
-37 4 -14 8 -16 14 -7 6 10 14 7 34 -8 15 -12 27 -18 27 -15 0 4 6 2 14 -4 7
-6 20 -9 28 -6 11 4 18 -2 22 -20 4 -17 11 -23 19 -18 7 4 20 6 30 5 11 -2 17
3 17 16 0 11 10 27 23 35 19 12 22 22 19 50 -2 19 1 38 7 41 6 4 11 20 11 37
0 34 24 40 47 12 11 -16 12 -14 1 12 -15 36 -37 55 -56 48 -8 -3 -15 3 -19 16
-3 11 -17 27 -32 34 -27 13 -27 13 -39 -25z"/>
<path d="M6726 15337 c-15 -11 -14 -13 11 -14 15 -1 22 1 15 4 -6 2 -10 9 -6
14 7 12 1 11 -20 -4z"/>
<path d="M6018 15278 c4 -26 32 -41 32 -17 0 6 9 8 23 3 21 -6 22 -6 4 14 -10
11 -28 22 -41 24 -19 4 -22 1 -18 -24z"/>
<path d="M6116 15222 c-2 -4 9 -29 25 -55 l29 -48 -24 -23 c-14 -12 -30 -35
-35 -49 -12 -30 -50 -37 -70 -13 -12 14 -64 10 -55 -5 3 -5 11 -9 17 -8 28 3
35 -2 30 -22 -3 -11 -15 -24 -27 -29 -16 -6 -17 -9 -6 -13 8 -2 28 -8 45 -13
16 -5 35 -20 42 -34 7 -13 26 -37 43 -52 18 -15 29 -32 25 -37 -3 -6 9 -20 27
-31 18 -11 27 -20 21 -20 -7 0 -13 -7 -13 -15 0 -8 -5 -15 -11 -15 -6 0 -8 -9
-3 -22 6 -20 5 -21 -8 -10 -9 7 -23 10 -32 6 -12 -4 -16 0 -16 15 0 13 6 21
17 21 14 0 14 2 -3 21 -17 19 -19 19 -31 3 -10 -14 -16 -15 -25 -6 -15 15 -68
16 -68 1 0 -6 -7 -9 -14 -6 -11 4 -13 1 -9 -10 4 -11 3 -14 -6 -9 -19 12 -50
-35 -51 -76 0 -21 -4 -38 -9 -38 -5 0 -7 -10 -3 -22 4 -16 2 -19 -8 -13 -10 6
-12 4 -7 -10 6 -14 3 -16 -13 -12 -11 3 -22 2 -25 -3 -2 -4 -18 -10 -36 -14
-24 -5 -29 -10 -24 -25 6 -20 -9 -35 -35 -36 -8 0 -22 -16 -32 -36 -20 -44
-48 -70 -48 -45 0 21 -10 20 -38 -4 -17 -14 -22 -25 -17 -40 3 -11 2 -20 -3
-20 -6 0 -8 -9 -5 -20 3 -11 9 -20 14 -20 5 0 9 -9 9 -21 0 -28 17 -10 50 52
13 26 29 45 35 42 16 -5 48 44 41 63 -4 10 3 14 22 15 150 5 216 17 248 44 16
14 34 25 40 25 6 0 17 11 24 25 8 15 17 22 24 16 18 -14 57 -20 87 -14 25 5
27 9 27 53 1 44 -2 49 -28 58 -24 9 -28 15 -26 44 5 52 6 54 21 34 12 -16 59
-46 72 -46 3 0 -1 7 -8 17 -13 15 -12 15 7 5 12 -6 24 -18 27 -25 3 -8 15 -17
26 -20 18 -4 19 -2 10 14 -5 10 -6 19 -2 20 4 1 -3 4 -17 8 -19 6 -24 13 -22
30 1 17 -2 22 -13 17 -8 -3 -15 -1 -15 3 0 5 -9 7 -20 4 -18 -5 -18 -3 -7 26
6 17 17 31 23 31 7 0 10 8 7 19 -8 30 23 33 51 4 14 -14 31 -23 38 -20 8 4 7
6 -4 6 -10 1 -18 5 -18 10 0 7 46 8 69 2 2 -1 -4 -10 -14 -21 -11 -12 -25 -18
-34 -15 -9 4 -3 -8 13 -24 17 -17 37 -31 46 -31 9 0 21 -5 28 -12 9 -9 12 -8
12 5 0 10 6 28 14 40 18 27 42 168 33 190 -8 21 -27 22 -27 2 0 -18 -9 -19
-34 0 -21 16 -12 39 12 30 11 -4 8 3 -7 19 -24 25 -51 35 -51 18 0 -9 -70 -42
-88 -42 -6 0 -9 6 -6 14 3 7 -6 37 -19 65 -14 28 -21 51 -15 51 5 0 8 10 6 22
-3 25 -68 52 -75 31 -5 -15 -30 -6 -55 19 -19 19 -34 23 -42 10z m138 -147
c-8 -21 -57 -11 -68 14 -7 17 -5 24 10 36 17 12 21 11 41 -11 12 -14 19 -32
17 -39z m-87 -201 c-3 -3 -12 -4 -19 -1 -8 3 -5 6 6 6 11 1 17 -2 13 -5z"/>
<path d="M6225 15080 c3 -5 8 -10 11 -10 2 0 4 5 4 10 0 6 -5 10 -11 10 -5 0
-7 -4 -4 -10z"/>
<path d="M6705 15191 c-3 -5 -1 -12 5 -16 5 -3 10 1 10 9 0 18 -6 21 -15 7z"/>
<path d="M6325 15080 c3 -5 8 -10 11 -10 2 0 4 5 4 10 0 6 -5 10 -11 10 -5 0
-7 -4 -4 -10z"/>
<path d="M6840 14910 c0 -5 5 -10 11 -10 5 0 7 5 4 10 -3 6 -8 10 -11 10 -2 0
-4 -4 -4 -10z"/>
<path d="M6116 14835 c4 -8 8 -15 10 -15 2 0 4 7 4 15 0 8 -4 15 -10 15 -5 0
-7 -7 -4 -15z"/>
<path d="M6865 14840 c3 -5 11 -10 16 -10 6 0 7 5 4 10 -3 6 -11 10 -16 10 -6
0 -7 -4 -4 -10z"/>
<path d="M6835 14830 c-3 -5 1 -10 10 -10 9 0 13 5 10 10 -3 6 -8 10 -10 10
-2 0 -7 -4 -10 -10z"/>
<path d="M6758 14813 c20 -8 14 -33 -8 -33 -11 0 -19 -3 -19 -7 4 -23 -3 -33
-21 -33 -11 0 -20 -4 -20 -10 0 -5 -6 -10 -14 -10 -8 0 -16 -6 -18 -12 -4 -10
-10 -10 -31 -1 -22 10 -25 10 -20 -2 4 -11 -2 -15 -22 -15 -15 0 -24 -4 -20
-10 3 -5 26 -10 50 -10 35 0 48 -5 68 -29 13 -16 35 -31 48 -33 14 -2 23 -9
21 -17 -3 -12 0 -12 12 -1 13 10 19 10 34 -1 9 -7 19 -15 21 -16 2 -1 -1 -9
-8 -17 -9 -10 -8 -15 2 -19 9 -3 20 4 27 18 12 23 40 24 67 3 7 -5 17 -7 23
-3 16 10 -17 63 -42 67 -18 2 -24 12 -30 46 -4 24 -21 64 -37 89 -17 25 -28
50 -25 54 3 5 -7 9 -23 8 -15 0 -22 -3 -15 -6z"/>
<path d="M5505 14650 c-9 -15 -1 -23 21 -18 15 3 16 4 1 16 -11 9 -17 10 -22
2z"/>
<path d="M5465 14600 c10 -19 20 -27 30 -24 23 9 18 34 -11 44 -36 14 -36 13
-19 -20z"/>
<path d="M5471 14550 c0 -19 33 -60 49 -60 6 0 8 -5 5 -11 -4 -5 1 -19 11 -30
11 -12 13 -19 5 -19 -7 0 -9 -5 -6 -10 4 -6 1 -18 -7 -27 -14 -18 -19 -63 -6
-63 21 0 23 2 20 19 -2 13 8 21 38 30 23 7 40 18 40 26 0 8 7 15 15 15 8 0 15
3 16 8 0 4 2 19 4 35 2 18 -1 27 -10 27 -16 0 -65 46 -65 60 0 6 -16 10 -35
10 -19 0 -35 -4 -35 -10 0 -14 -27 -12 -33 3 -4 8 -6 7 -6 -3z"/>
<path d="M7030 14500 c11 -20 30 -28 30 -12 0 11 -22 32 -32 32 -5 0 -4 -9 2
-20z"/>
<path d="M7060 14450 c1 -34 22 -71 37 -62 8 5 4 19 -13 47 -21 36 -24 37 -24
15z"/>
<path d="M7130 14360 c14 -27 67 -52 91 -45 11 4 26 2 33 -5 8 -6 24 -13 37
-15 26 -5 63 -45 84 -92 8 -18 19 -33 26 -33 9 0 9 -3 0 -14 -10 -12 -7 -18
13 -31 14 -10 33 -14 42 -11 8 3 24 1 35 -4 17 -10 18 -13 4 -34 -14 -21 -14
-23 10 -34 21 -10 25 -19 25 -53 0 -40 -1 -40 -29 -34 -26 6 -28 4 -24 -19 3
-15 -2 -37 -12 -53 -17 -25 -17 -26 1 -19 11 5 26 9 34 11 9 1 14 11 13 26 -2
14 0 18 4 9 3 -8 13 -20 21 -26 14 -10 12 -15 -12 -38 -23 -21 -26 -28 -17
-40 10 -12 6 -17 -28 -26 -28 -7 -47 -8 -60 -1 -10 6 -21 8 -24 5 -6 -6 -76
15 -90 27 -12 9 -57 -13 -57 -28 0 -8 -13 -13 -30 -13 -20 0 -30 -5 -30 -15 0
-21 -27 -19 -41 3 -9 14 -21 17 -51 15 -23 -2 -48 3 -63 13 -22 14 -25 14 -44
-5 -22 -22 -54 -22 -143 0 -20 5 -56 8 -80 8 -45 -2 -87 14 -101 37 -9 16 -47
19 -47 4 0 -15 -36 -12 -50 5 -15 18 -40 -2 -31 -26 9 -26 94 -112 126 -129
39 -21 61 -56 46 -74 -6 -7 -12 -31 -14 -52 -2 -33 1 -38 23 -44 14 -4 33 -2
42 4 23 14 29 6 31 -43 2 -39 -5 -52 -18 -31 -3 6 -20 10 -36 10 -22 0 -28 -4
-22 -12 11 -19 10 -112 -2 -120 -6 -5 -1 -8 10 -9 52 -4 66 -8 97 -26 18 -11
44 -30 58 -42 33 -30 98 -53 103 -37 5 13 117 -39 117 -54 0 -6 4 -9 9 -5 6 3
14 -2 19 -11 6 -11 11 -13 16 -5 9 14 49 14 62 1 8 -8 19 -7 38 1 22 11 29 10
43 -4 14 -14 19 -14 43 -2 30 16 40 11 40 -17 0 -11 7 -18 20 -18 23 0 24 -3
8 -68 -9 -43 -9 -53 4 -66 9 -8 24 -13 34 -10 11 3 28 -2 39 -10 17 -13 17
-15 4 -16 -34 0 -40 -127 -8 -171 11 -16 17 -29 13 -29 -3 0 -1 -7 6 -15 10
-13 9 -15 -9 -15 -11 0 -21 -6 -21 -14 0 -8 -7 -17 -16 -20 -13 -5 -14 -9 -4
-21 10 -12 9 -16 -3 -21 -9 -3 -13 -13 -10 -25 4 -13 0 -19 -12 -19 -14 0 -16
-6 -10 -27 8 -35 45 -76 45 -51 0 16 17 26 59 34 14 3 31 14 39 25 7 10 20 19
29 19 9 0 21 8 28 17 11 15 15 15 54 -4 24 -12 44 -17 47 -11 3 5 13 7 21 4
11 -5 13 -1 8 15 -6 18 -4 20 17 14 28 -9 48 -24 48 -37 0 -6 -7 -8 -15 -4 -8
3 -21 -1 -29 -9 -8 -8 -19 -15 -23 -15 -5 0 -7 -26 -5 -58 4 -51 1 -62 -22
-89 -14 -17 -26 -38 -26 -47 0 -9 -9 -21 -19 -28 -11 -6 -17 -18 -13 -26 3
-10 1 -13 -6 -8 -14 9 -17 -45 -3 -60 14 -14 -11 -117 -31 -132 -17 -12 -16
-16 14 -53 17 -21 38 -39 47 -39 12 0 12 -3 3 -12 -7 -7 -12 -36 -12 -65 0
-39 -4 -53 -14 -53 -8 0 -16 7 -20 15 -3 8 -9 15 -14 15 -10 0 -11 -5 -18 -80
-5 -53 -4 -56 25 -73 24 -14 31 -25 31 -48 0 -16 4 -28 8 -27 6 3 38 -28 98
-93 11 -12 12 -19 4 -24 -16 -10 18 -34 48 -35 13 0 32 9 44 20 24 22 38 26
38 10 0 -5 -5 -10 -10 -10 -17 0 -62 -49 -55 -59 3 -6 -1 -13 -8 -18 -22 -13
-27 -62 -8 -73 15 -9 14 -11 -1 -20 -10 -6 -18 -19 -18 -29 0 -25 -9 -31 -33
-21 -12 5 -35 11 -50 15 -15 3 -25 10 -22 15 3 5 1 11 -4 14 -5 3 -12 -1 -15
-10 -3 -9 -12 -14 -19 -11 -6 2 -19 -2 -28 -10 -14 -11 -21 -12 -44 -1 -24 11
-29 10 -41 -7 -8 -10 -12 -20 -11 -22 2 -1 64 -5 137 -8 116 -5 137 -8 155
-25 16 -15 34 -20 66 -19 44 2 65 -2 84 -12 6 -3 24 -6 41 -7 27 -2 34 2 43
29 8 25 14 29 31 24 12 -4 31 0 45 9 17 11 31 13 47 7 25 -9 53 7 108 62 27
26 50 35 50 19 0 -4 14 -16 30 -25 17 -10 30 -25 30 -33 0 -14 14 -22 68 -38
19 -6 22 -4 22 18 0 16 6 26 15 26 9 0 16 10 16 28 2 23 2 24 6 5 5 -25 28
-31 36 -10 2 6 8 9 12 5 4 -4 2 -15 -5 -23 -10 -12 -11 -27 -2 -68 6 -29 11
-63 12 -77 0 -14 1 -35 1 -48 1 -16 6 -22 15 -18 18 7 18 -4 -1 -30 -8 -12
-11 -24 -8 -28 3 -3 -6 -6 -21 -6 -24 0 -27 -3 -24 -27 2 -22 9 -29 31 -31 27
-3 36 -13 41 -46 3 -24 38 -46 57 -35 9 4 19 5 23 2 14 -15 35 33 29 66 -5 32
-5 34 21 29 14 -3 26 -1 26 3 0 5 7 9 15 9 8 0 15 7 15 15 0 9 -7 18 -15 21
-19 8 -20 33 -1 40 10 4 12 14 5 42 -5 20 -6 56 -3 80 6 39 3 47 -24 75 -22
22 -29 36 -23 46 10 16 -7 63 -19 56 -4 -3 -13 2 -20 10 -10 12 -9 15 8 15 13
0 22 9 26 24 6 23 54 56 81 56 7 0 16 15 19 33 3 18 15 40 26 50 11 9 20 25
19 34 0 11 -3 13 -6 6 -2 -7 -13 -13 -24 -13 -11 0 -22 -6 -25 -14 -9 -23 -54
-29 -75 -10 -17 15 -19 15 -34 0 -9 -9 -23 -16 -31 -16 -8 0 -14 -7 -14 -16 0
-10 -7 -14 -22 -12 -13 2 -22 6 -20 11 1 4 2 21 2 37 0 22 5 30 18 30 11 0 24
12 31 26 9 20 14 24 25 15 10 -8 16 -8 24 1 12 15 -3 40 -30 51 -10 3 -18 14
-18 24 0 12 -7 7 -20 -15 -11 -18 -25 -30 -31 -26 -7 4 -8 9 0 17 7 7 4 18 -9
35 -11 14 -20 34 -20 46 -1 32 -24 58 -38 44 -14 -14 -27 -4 -37 30 -5 16 -2
22 9 22 23 0 19 17 -9 42 -14 12 -25 28 -25 36 0 17 -46 63 -54 54 -3 -3 -6 0
-6 6 0 7 -11 12 -24 12 -13 0 -29 7 -37 16 -7 8 -20 13 -29 11 -9 -2 -25 2
-35 9 -10 7 -29 11 -45 7 -21 -4 -34 1 -51 18 -30 30 -101 79 -115 79 -16 0
-59 63 -56 83 2 9 -1 17 -7 17 -16 0 -52 67 -45 86 4 14 3 15 -4 6 -8 -11 -10
-11 -15 1 -3 8 -18 18 -33 21 -15 4 -39 20 -55 37 -17 18 -33 27 -43 23 -11
-4 -20 5 -32 30 -10 19 -24 37 -33 39 -10 2 -6 7 12 12 21 5 31 3 40 -9 18
-24 53 -9 99 44 36 40 39 41 83 35 37 -6 45 -5 45 9 0 8 6 13 13 10 7 -2 23 5
35 16 12 11 25 20 29 19 13 -3 33 43 33 74 0 24 3 26 17 18 14 -7 20 -4 30 21
24 56 17 89 -30 141 -48 52 -57 55 -82 30 -14 -13 -18 -14 -25 -2 -7 11 -10
10 -16 -4 -5 -13 -10 -15 -20 -7 -9 8 -18 8 -33 0 -16 -8 -26 -7 -44 5 -21 14
-27 14 -55 -1 -18 -8 -32 -22 -32 -30 0 -16 -45 -20 -55 -4 -4 6 -12 4 -22 -6
-14 -14 -18 -13 -42 13 -21 24 -26 38 -25 81 0 32 -4 57 -13 63 -7 6 -13 20
-13 31 0 15 5 18 19 13 19 -6 19 -5 -1 36 -24 50 -20 115 9 139 11 8 22 23 26
33 6 17 8 17 23 2 15 -15 17 -14 30 4 8 11 11 26 8 35 -3 8 6 31 21 51 23 29
27 42 22 75 -3 24 -1 41 7 44 6 2 1 5 -11 5 -13 1 -23 7 -23 16 0 8 -11 25
-25 39 -29 29 -33 71 -8 98 9 10 16 36 17 61 1 39 -4 48 -49 94 -27 27 -60 53
-72 57 -23 7 -33 36 -13 36 6 0 10 -4 10 -9 0 -5 10 -11 23 -14 12 -3 40 -10
62 -16 44 -11 69 3 86 47 5 13 13 21 18 17 5 -3 12 -1 16 5 8 12 45 13 45 1 0
-10 31 -24 38 -16 3 2 0 10 -5 17 -14 17 -14 68 0 68 5 0 2 9 -8 20 -10 11
-15 28 -12 40 3 11 1 23 -4 26 -5 3 -9 1 -9 -4 0 -18 -43 -21 -78 -6 -27 11
-37 12 -43 3 -4 -7 -13 -9 -21 -6 -8 3 -20 -4 -27 -15 -7 -11 -19 -17 -26 -14
-8 3 -18 -1 -23 -9 -7 -13 -19 -13 -96 0 -80 13 -105 24 -106 48 0 4 4 7 9 7
6 0 6 12 0 30 -9 25 -14 28 -39 24 -23 -5 -28 -2 -34 19 -3 15 -19 31 -41 41
-19 9 -35 23 -35 31 0 8 -6 15 -12 15 -7 0 -28 14 -47 30 -18 16 -37 28 -41
25 -4 -3 -13 2 -20 10 -7 8 -28 17 -49 20 -20 3 -48 8 -64 10 -25 4 -26 3 -17
-15z m765 -1520 c3 -6 -1 -7 -9 -4 -18 7 -21 14 -7 14 6 0 13 -4 16 -10z
m-265 -990 c0 -5 -5 -10 -11 -10 -5 0 -7 5 -4 10 3 6 8 10 11 10 2 0 4 -4 4
-10z"/>
<path d="M5465 14300 c-10 -11 -22 -17 -26 -14 -5 3 -9 -1 -9 -9 0 -38 46 -26
52 14 5 34 6 34 -17 9z"/>
<path d="M5301 14254 c0 -11 3 -14 6 -6 3 7 2 16 -1 19 -3 4 -6 -2 -5 -13z"/>
<path d="M5615 14240 c-3 -5 -1 -10 4 -10 6 0 11 5 11 10 0 6 -2 10 -4 10 -3
0 -8 -4 -11 -10z"/>
<path d="M5326 14234 c6 -3 9 -16 6 -29 -4 -21 -1 -25 22 -25 20 0 24 4 19 17
-4 11 -3 14 5 9 7 -4 12 -3 12 3 0 13 -34 31 -57 30 -10 0 -13 -3 -7 -5z"/>
<path d="M5416 14169 c21 -23 53 -43 60 -36 8 8 -45 57 -62 57 -16 0 -15 -2 2
-21z"/>
<path d="M5569 14155 c-19 -14 -42 -24 -51 -22 -11 3 -20 -4 -26 -22 -8 -22
-5 -35 14 -67 13 -21 24 -35 24 -31 0 5 7 1 16 -8 18 -17 50 -16 47 2 -3 13
45 24 53 12 3 -5 11 -9 17 -9 7 0 4 5 -5 11 -10 5 -18 15 -18 22 0 7 -9 18
-20 25 -22 14 -27 34 -7 26 8 -3 20 2 27 11 8 10 9 15 1 15 -6 0 -11 14 -11
30 0 37 -15 38 -61 5z"/>
<path d="M5688 14062 c-10 -2 -18 -10 -18 -18 0 -18 8 -18 27 1 18 18 15 23
-9 17z"/>
<path d="M8196 12934 c-5 -12 -2 -15 10 -10 8 3 18 6 20 6 2 0 4 5 4 10 0 16
-27 11 -34 -6z"/>
<path d="M9843 12266 c-8 -14 -30 -22 -77 -25 -4 -1 -6 -7 -3 -13 2 -7 0 -24
-4 -37 -8 -19 -14 -22 -38 -18 -26 5 -29 3 -33 -23 -3 -23 5 -41 34 -81 22
-28 37 -57 34 -65 -3 -8 1 -14 10 -14 9 0 12 -5 8 -12 -11 -17 24 -38 50 -29
27 11 90 69 105 98 6 12 11 32 11 44 0 12 8 27 17 34 15 11 13 14 -13 26 -16
8 -30 20 -30 27 -1 6 -2 19 -3 27 0 8 -14 29 -30 47 -25 28 -29 30 -38 14z"/>
<path d="M9570 12181 c0 -6 11 -11 24 -11 17 0 27 -8 33 -26 l9 -26 24 20 c23
19 23 20 4 30 -32 17 -94 26 -94 13z"/>
<path d="M9520 12146 c0 -7 -6 -19 -14 -26 -8 -6 -12 -18 -9 -26 3 -8 1 -14
-5 -14 -5 0 -7 -11 -4 -25 2 -14 8 -25 13 -25 5 0 6 12 3 26 -5 19 -4 25 5 20
6 -4 11 -3 11 1 0 5 14 14 30 20 17 6 30 16 30 22 0 6 -13 17 -30 26 -25 13
-30 13 -30 1z"/>
<path d="M10010 12139 c0 -5 5 -7 10 -4 6 3 10 8 10 11 0 2 -4 4 -10 4 -5 0
-10 -5 -10 -11z"/>
<path d="M9740 11919 c0 -10 -58 -29 -93 -29 -27 0 -29 -2 -23 -26 7 -28 -16
-64 -41 -64 -7 0 -13 -3 -13 -8 0 -4 -9 -13 -21 -20 -18 -12 -24 -11 -43 6
-25 22 -100 47 -115 38 -13 -8 -51 15 -51 31 0 7 -4 13 -10 13 -15 0 -12 -52
5 -73 9 -13 24 -18 47 -16 35 3 98 -27 98 -47 0 -14 42 -26 64 -18 11 4 17 -5
24 -33 6 -21 13 -51 17 -68 15 -57 12 -106 -8 -131 -24 -31 -11 -56 31 -60 23
-3 35 2 47 19 8 12 19 20 22 18 8 -4 18 12 27 42 3 9 15 17 26 17 14 0 20 7
20 21 0 18 4 20 33 14 17 -4 42 -13 55 -21 19 -13 22 -13 22 1 0 8 5 15 10 15
6 0 10 -7 10 -15 0 -8 4 -15 9 -15 17 0 72 -58 61 -65 -8 -5 -7 -11 1 -21 8
-10 8 -14 0 -14 -6 0 -11 -9 -11 -21 0 -11 -4 -18 -9 -15 -10 6 -41 -36 -41
-56 0 -21 -114 -52 -147 -40 l-28 9 3 -53 c3 -38 0 -54 -8 -54 -8 0 -10 -10
-7 -27 4 -22 -3 -34 -42 -70 -25 -23 -52 -43 -58 -43 -8 0 -13 -12 -13 -29 0
-33 -13 -46 -66 -64 -33 -12 -39 -19 -42 -45 -2 -17 4 -42 13 -56 15 -23 15
-25 -5 -39 -13 -9 -18 -20 -14 -31 6 -17 -42 -64 -60 -58 -4 2 -6 -4 -3 -12 4
-9 2 -18 -3 -21 -18 -11 -11 -60 11 -73 12 -8 18 -19 15 -28 -3 -8 5 -19 23
-29 34 -17 45 -39 26 -55 -8 -6 -11 -18 -8 -26 4 -10 -2 -17 -17 -21 -17 -4
-20 -10 -15 -27 4 -11 8 -40 10 -63 3 -41 1 -43 -25 -43 -16 0 -30 -7 -34 -16
-3 -8 -10 -12 -16 -9 -5 3 -10 -3 -10 -14 0 -10 4 -21 10 -23 16 -5 -1 -48
-20 -48 -13 0 -17 -6 -13 -19 2 -10 0 -35 -5 -55 -10 -35 -10 -37 11 -30 12 4
46 8 75 9 40 1 57 -3 69 -18 14 -15 26 -17 64 -12 41 6 50 3 74 -19 26 -25 27
-26 6 -26 -15 0 -21 -6 -21 -24 0 -13 7 -29 15 -36 11 -9 12 -17 4 -31 -7 -13
-6 -25 1 -40 9 -16 8 -24 -4 -38 -18 -20 -21 -68 -5 -73 6 -2 11 -22 11 -43 0
-22 6 -55 14 -74 15 -35 4 -68 -18 -55 -5 3 -4 -4 4 -15 7 -12 29 -27 49 -33
39 -11 60 -41 64 -90 1 -22 -4 -30 -29 -40 -17 -7 -35 -13 -41 -13 -24 0 -48
-23 -41 -40 10 -26 -23 -93 -50 -99 -22 -6 -22 -7 -7 -38 15 -30 15 -34 -6
-71 -21 -35 -21 -40 -7 -56 20 -22 21 -67 1 -74 -12 -5 -12 -12 -3 -37 7 -23
7 -35 0 -42 -8 -8 -7 -19 4 -40 8 -16 12 -32 10 -37 -3 -5 1 -14 9 -21 8 -7
15 -22 15 -35 0 -28 32 -59 46 -45 7 7 16 4 29 -10 10 -11 23 -20 29 -20 15 0
66 -109 55 -116 -5 -2 -6 -11 -2 -19 3 -10 -2 -15 -16 -15 -16 0 -21 -6 -21
-24 0 -14 5 -28 11 -32 6 -3 9 -15 6 -25 -6 -22 2 -24 36 -8 20 9 32 7 62 -7
24 -11 39 -14 43 -7 12 18 99 26 109 10 4 -7 16 -17 26 -20 10 -4 15 -11 12
-17 -3 -6 1 -7 9 -4 10 4 29 -7 52 -30 20 -20 40 -34 44 -31 4 3 13 -9 20 -25
7 -17 16 -30 20 -30 10 0 0 -92 -12 -107 -6 -8 -2 -22 12 -41 12 -17 20 -35
16 -40 -11 -18 18 -57 46 -60 22 -2 25 1 21 19 -6 21 -4 21 43 -6 27 -16 56
-34 65 -42 8 -7 22 -13 30 -13 8 0 20 -5 26 -11 8 -8 13 -8 17 0 13 20 45 11
66 -19 17 -24 29 -30 56 -30 20 0 44 4 54 10 15 8 22 4 39 -26 12 -20 18 -40
15 -46 -4 -6 -8 -27 -10 -46 -2 -27 2 -35 17 -39 23 -6 24 -16 4 -33 -8 -7
-15 -18 -15 -24 0 -15 -60 -61 -79 -61 -19 0 -35 -29 -28 -49 5 -13 17 -17 49
-15 57 3 106 -22 110 -58 2 -20 9 -27 28 -28 14 -2 30 1 35 5 29 23 125 5 125
-23 0 -5 13 -20 30 -33 27 -23 29 -29 24 -68 -6 -37 -3 -45 17 -59 13 -10 32
-14 46 -11 22 6 29 -3 24 -30 -1 -4 3 -14 9 -21 8 -9 6 -14 -6 -19 -13 -5 -14
-9 -4 -21 9 -11 23 -13 50 -9 23 4 40 2 44 -5 11 -18 24 -13 28 12 3 21 4 21
22 -6 19 -27 18 -28 -3 -51 -11 -12 -21 -27 -21 -33 0 -6 -4 -13 -10 -15 -13
-4 0 -48 15 -48 14 0 45 -74 45 -108 0 -14 6 -22 18 -22 13 0 14 -2 3 -9 -7
-5 -11 -14 -7 -19 13 -21 -6 -62 -31 -68 l-24 -6 32 -20 c17 -10 29 -22 26
-25 -13 -12 24 -63 51 -69 51 -11 81 -28 86 -48 3 -11 0 -24 -7 -29 -7 -5 -1
-5 13 -1 31 10 52 10 114 1 45 -6 48 -6 43 13 -3 12 0 20 6 20 17 -1 67 -70
67 -92 0 -11 5 -16 10 -13 6 4 16 3 23 -2 25 -18 65 -15 77 6 6 12 17 21 25
21 19 0 19 34 0 50 -8 7 -15 18 -15 25 0 8 -8 11 -18 9 -19 -6 -48 35 -56 80
-3 16 -13 37 -22 47 -9 10 -14 25 -11 33 7 17 -6 33 -57 71 -22 16 -34 31 -28
33 7 2 12 12 12 22 0 9 7 23 15 30 13 11 12 16 -10 38 -14 13 -25 35 -25 47 0
12 -2 35 -5 51 -4 25 1 34 34 59 28 22 36 33 29 42 -6 7 -8 44 -6 83 3 52 0
70 -9 70 -16 0 -27 43 -19 75 5 19 12 24 29 21 41 -7 89 29 114 87 11 24 16
26 34 17 17 -10 20 -9 19 7 -5 42 0 56 13 44 11 -8 19 -5 34 12 20 22 37 67
25 67 -4 0 -7 13 -8 30 -1 22 4 30 19 32 31 5 32 27 3 38 -25 9 -36 30 -17 30
5 0 7 9 4 20 -4 14 3 28 21 43 14 12 26 30 26 40 0 9 6 17 14 17 9 0 12 7 9
20 -3 11 0 20 6 20 6 0 11 14 11 30 0 17 -5 30 -12 30 -7 0 -23 11 -35 24 -20
21 -21 25 -8 36 8 7 15 23 15 35 0 21 3 23 40 18 34 -5 40 -3 40 13 1 17 2 17
10 2 6 -9 18 -15 28 -13 9 2 19 4 22 4 2 1 -6 8 -18 17 -12 8 -20 20 -16 25
10 17 -27 49 -57 49 -15 0 -30 -4 -33 -9 -3 -4 -31 -11 -63 -15 -31 -4 -62
-11 -68 -16 -10 -8 -92 21 -105 38 -3 4 -16 13 -30 19 -14 6 -19 12 -12 12 6
1 12 14 12 30 0 30 -19 45 -55 42 -32 -2 -43 11 -50 63 -7 46 -7 48 14 41 18
-5 24 -2 28 14 3 12 13 21 24 21 23 0 78 58 79 83 0 15 18 22 44 18 5 -1 6 12
3 29 -7 31 3 37 37 24 20 -8 20 -18 0 -39 -15 -15 -15 -18 4 -38 24 -26 82
-51 82 -35 0 5 5 8 11 6 10 -3 17 -29 21 -75 1 -7 5 -13 9 -13 4 0 9 -10 11
-22 2 -18 8 -22 28 -20 14 2 27 8 28 13 2 5 12 9 23 9 10 0 19 7 19 15 0 9 8
30 17 48 10 19 15 50 14 79 -2 39 1 47 18 53 17 5 19 10 11 31 -7 16 -6 24 1
24 6 0 9 7 6 15 -4 8 -2 17 3 20 6 4 10 25 10 48 0 30 -7 48 -24 66 -14 15
-29 45 -34 69 l-10 42 34 1 c19 1 40 2 47 3 6 1 20 -2 31 -7 24 -12 37 8 29
47 -5 25 -4 28 12 22 10 -3 33 -4 51 0 27 5 34 11 34 30 0 13 5 24 11 24 6 0
9 8 6 18 -2 9 2 29 10 44 11 23 11 29 -2 42 -21 20 -9 76 16 76 11 0 20 6 20
13 2 23 -3 42 -13 48 -7 4 -6 9 1 13 20 13 13 38 -9 31 -11 -4 -20 -2 -20 4 0
6 -9 11 -19 11 -12 0 -20 7 -20 18 1 9 -3 28 -7 41 -6 20 -4 23 10 18 18 -7
15 3 -9 33 -21 26 -27 67 -10 74 8 3 15 18 15 33 0 25 1 26 14 8 13 -18 14
-18 20 3 4 12 12 22 17 22 5 0 9 10 9 22 0 16 3 19 11 11 8 -8 8 -17 0 -31 -9
-16 -7 -19 9 -18 28 2 60 32 60 58 0 14 -11 31 -30 43 -16 11 -31 29 -32 40
-2 11 -7 20 -13 20 -5 1 -21 7 -35 15 -14 8 -29 15 -35 15 -5 0 -9 9 -7 19 2
10 -1 15 -7 12 -5 -4 -12 -2 -16 3 -8 13 -75 7 -85 -8 -4 -8 -17 -10 -33 -5
-21 5 -27 2 -27 -10 0 -8 -13 -25 -30 -37 -16 -12 -27 -26 -24 -31 11 -18 -96
4 -124 26 -9 7 -16 6 -21 -2 -4 -8 -15 -10 -26 -6 -15 6 -17 4 -12 -11 7 -16
5 -16 -15 -3 -13 8 -29 18 -37 23 -12 7 -12 10 2 20 9 6 12 16 8 23 -6 9 -12
8 -24 -5 -15 -17 -15 -21 1 -53 9 -19 20 -36 24 -38 15 -6 8 -51 -8 -60 -11
-6 -15 -17 -11 -31 6 -23 -11 -29 -31 -9 -8 8 -14 5 -21 -15 -6 -15 -15 -27
-21 -27 -6 0 -18 -7 -26 -15 -11 -10 -36 -15 -84 -15 -45 0 -70 -4 -72 -12 -5
-13 -44 8 -83 44 -16 16 -27 18 -55 12 -19 -4 -58 -8 -87 -8 -28 -1 -49 -4
-46 -8 2 -5 0 -8 -5 -8 -6 0 -12 6 -15 14 -3 8 -19 17 -36 21 -17 4 -44 20
-60 36 -24 23 -38 29 -74 29 -31 0 -47 -5 -51 -15 -11 -30 -116 -11 -116 22 0
5 -11 16 -24 23 -15 7 -26 23 -28 39 -2 18 -10 27 -28 31 -36 7 -75 36 -88 65
-6 14 -18 25 -26 25 -16 0 -36 50 -36 92 0 16 -5 38 -10 49 -8 14 -8 21 2 24
12 5 14 22 9 68 -1 4 -9 7 -19 7 -10 0 -22 4 -27 9 -6 5 -36 16 -67 26 -43 13
-58 22 -58 36 0 10 -9 23 -20 29 -14 8 -20 8 -20 0 0 -6 -4 -8 -10 -5 -5 3
-10 2 -10 -4 0 -6 -7 -8 -16 -4 -9 3 -19 1 -23 -6 -5 -8 -15 -6 -33 9 -32 25
-46 25 -71 3 -17 -16 -19 -16 -28 -1 -9 16 -12 15 -44 -3 -30 -18 -39 -19 -72
-9 -49 16 -60 26 -35 34 22 7 34 55 20 80 -6 10 -5 16 2 16 18 0 11 30 -13 54
-12 12 -23 31 -24 42 -1 15 -7 79 -12 117 -1 4 -18 24 -38 42 -21 19 -32 35
-25 35 6 0 12 9 12 19 0 31 11 51 29 51 9 0 26 8 39 18 l23 18 -22 23 c-13 14
-29 21 -40 18 -11 -3 -22 0 -27 7 -4 7 -19 20 -33 30 -26 16 -26 16 -59 -23
-26 -30 -41 -39 -64 -40 -17 0 -46 -2 -63 -4 -24 -4 -33 -1 -33 9 0 9 -8 14
-17 12 -18 -3 -25 19 -11 38 4 6 1 19 -7 30 -8 10 -15 31 -15 45 0 21 6 28 25
31 14 3 25 1 25 -3 0 -5 9 -9 19 -9 11 0 23 -4 26 -10 3 -5 15 -10 26 -10 24
0 25 28 2 45 -14 11 -15 15 -4 28 7 9 10 21 6 27 -3 5 -2 10 4 10 6 0 13 11
17 24 3 13 18 36 34 49 25 23 30 24 48 11 17 -12 22 -12 32 1 7 8 19 15 26 15
8 0 14 6 14 14 0 8 6 16 13 19 8 3 22 30 31 61 15 47 16 62 6 86 -7 17 -16 30
-21 30 -5 0 -6 6 -3 14 6 16 -34 48 -48 40 -5 -3 -8 0 -7 7 1 8 -1 22 -6 32
-5 12 -1 25 14 41 19 20 19 24 6 42 -8 10 -15 33 -15 50 0 16 -5 35 -12 42
-17 17 -19 103 -2 129 13 20 12 28 -9 70 -20 43 -26 49 -62 53 -22 3 -47 10
-55 15 -18 11 -80 15 -80 4z m-50 -894 c0 -8 -4 -15 -9 -15 -5 0 -11 7 -15 15
-3 9 0 15 9 15 8 0 15 -7 15 -15z m-78 -232 c-3 -43 -8 -63 -17 -63 -7 0 -15
7 -19 15 -3 8 0 15 5 15 7 0 9 9 6 21 -8 30 2 76 16 76 8 0 11 -20 9 -64z m78
-23 c0 -5 -5 -10 -11 -10 -5 0 -7 5 -4 10 3 6 8 10 11 10 2 0 4 -4 4 -10z
m940 -790 c0 -5 -4 -10 -10 -10 -5 0 -10 5 -10 10 0 6 5 10 10 10 6 0 10 -4
10 -10z m1050 -2290 c12 -8 11 -10 -7 -10 -13 0 -26 0 -30 -1 -4 0 -9 4 -11
10 -5 14 28 14 48 1z"/>
<path d="M8960 11793 c-29 -33 -33 -34 -61 -23 -23 10 -32 10 -44 0 -9 -8 -29
-10 -51 -7 -36 6 -36 6 -30 -23 4 -22 1 -33 -15 -43 -20 -14 -19 -15 11 -25
16 -6 33 -18 36 -27 8 -19 33 -20 40 0 4 8 11 12 17 8 5 -3 16 2 24 12 10 15
16 16 25 7 20 -20 38 -14 38 12 0 25 6 29 70 41 19 4 45 14 58 22 19 11 21 17
11 29 -6 8 -20 14 -30 14 -10 0 -22 6 -26 13 -18 30 -42 26 -73 -10z"/>
<path d="M9180 11784 c0 -10 -6 -13 -19 -9 -10 3 -26 2 -35 -1 -15 -6 -14 -10
11 -25 25 -16 34 -17 56 -6 36 16 40 32 11 46 -20 9 -24 8 -24 -5z"/>
<path d="M10131 11695 c11 -40 4 -74 -20 -92 -13 -9 -14 -14 -3 -24 6 -7 12
-21 12 -31 0 -11 5 -15 15 -12 10 4 13 13 9 26 -3 10 0 25 6 33 6 8 11 22 10
32 -1 10 -2 31 -1 47 1 25 4 27 27 22 19 -5 25 -3 22 6 -3 8 -17 12 -36 10
-18 -2 -32 1 -32 7 0 6 -4 11 -9 11 -6 0 -5 -14 0 -35z"/>
<path d="M10060 11507 c0 -5 -9 -7 -20 -4 -11 3 -20 2 -20 -2 0 -13 71 -30 92
-22 18 7 19 8 3 21 -20 16 -55 21 -55 7z"/>
<path d="M9995 11470 c-3 -5 -1 -10 4 -10 6 0 11 5 11 10 0 6 -2 10 -4 10 -3
0 -8 -4 -11 -10z"/>
<path d="M7418 11308 c8 -9 11 -21 8 -26 -2 -4 8 -13 25 -19 16 -6 27 -7 23
-2 -3 6 0 16 6 24 18 21 3 37 -21 24 -15 -8 -25 -7 -37 3 -15 12 -16 11 -4 -4z"/>
<path d="M9713 10963 c-17 -6 -16 -23 1 -23 8 0 16 7 20 15 6 15 1 17 -21 8z"/>
<path d="M9725 10920 c-4 -6 5 -10 20 -10 15 0 24 4 20 10 -3 6 -12 10 -20 10
-8 0 -17 -4 -20 -10z"/>
<path d="M9687 8519 c-4 -15 0 -18 19 -17 29 3 32 24 5 31 -13 3 -21 -1 -24
-14z"/>
<path d="M9687 8483 c-4 -3 -7 -13 -7 -22 1 -13 3 -13 11 2 11 19 8 33 -4 20z"/>
<path d="M11100 7234 c0 -7 8 -10 20 -7 11 3 20 9 20 14 0 4 -9 7 -20 6 -11
-1 -20 -7 -20 -13z"/>
<path d="M11933 6734 c-18 -20 -27 -23 -42 -15 -10 6 -37 14 -59 20 -37 8 -42
7 -48 -11 -3 -11 -1 -25 5 -31 6 -6 11 -23 11 -37 0 -38 32 -65 59 -51 37 20
51 12 77 -44 15 -31 30 -58 35 -61 16 -9 10 -23 -11 -26 -19 -3 -17 -8 21 -53
22 -27 49 -54 60 -59 10 -5 19 -14 19 -21 0 -6 11 -17 25 -23 14 -6 25 -17 25
-24 0 -7 20 -40 45 -73 25 -33 45 -63 45 -67 0 -10 -40 -31 -40 -21 0 4 -4 2
-8 -5 -10 -15 -62 0 -62 17 0 6 -17 13 -37 16 -84 13 -123 27 -123 44 0 10
-16 25 -37 35 -22 10 -33 12 -25 5 16 -17 15 -26 -4 -33 -9 -4 -24 0 -33 7 -9
8 -25 17 -36 21 -18 7 -18 5 3 -17 28 -29 28 -54 1 -83 l-21 -22 36 1 c19 0
33 5 30 9 -10 16 24 8 49 -12 18 -14 34 -19 51 -14 13 3 35 0 48 -7 12 -7 28
-12 33 -11 16 3 51 -61 37 -66 -8 -2 -7 -11 4 -27 9 -14 13 -33 9 -44 -7 -24
24 -79 35 -61 6 9 9 9 14 1 10 -16 -4 -101 -17 -101 -6 0 5 -14 24 -31 29 -26
30 -30 11 -24 -22 6 -22 5 -10 -14 7 -12 18 -19 25 -17 15 6 53 -40 53 -65 0
-10 9 -23 21 -29 16 -9 18 -14 8 -26 -6 -8 -17 -14 -23 -14 -8 0 -11 -11 -8
-29 3 -23 8 -28 25 -23 12 2 34 16 50 30 21 20 30 23 39 14 7 -7 28 -12 47
-12 l35 0 -28 29 c-18 19 -27 37 -24 54 3 26 -19 60 -33 51 -13 -8 -49 5 -49
18 0 5 6 8 13 5 6 -2 22 5 34 16 22 19 25 19 60 4 66 -28 83 -30 89 -12 4 9
13 14 20 11 8 -3 14 1 14 10 0 8 4 13 9 10 13 -9 38 25 51 70 11 36 16 42 38
40 31 -1 89 -56 94 -88 2 -16 12 -24 33 -28 17 -4 39 -11 50 -17 11 -6 45 -14
75 -17 43 -5 59 -12 73 -31 10 -14 24 -25 30 -25 5 0 7 3 4 7 -4 3 -2 12 4 20
6 7 9 22 6 33 -3 10 1 24 9 31 10 8 11 16 3 30 -13 25 2 24 31 -1 26 -23 40
-25 40 -7 0 7 16 13 40 14 37 2 40 1 30 -17 -5 -10 -15 -22 -20 -25 -12 -7 -4
-25 11 -25 6 0 7 6 3 13 -4 6 2 3 14 -7 12 -11 23 -16 23 -13 1 4 2 11 3 16 0
5 4 13 9 17 4 4 7 14 7 22 0 32 45 58 101 59 29 0 55 5 56 10 2 6 10 19 17 29
13 17 15 16 35 -16 11 -19 35 -44 53 -55 26 -15 29 -20 16 -23 -23 -4 -23 -32
-1 -32 38 0 83 -24 92 -51 9 -27 47 -56 58 -45 3 3 14 1 24 -4 12 -7 19 -6 22
3 4 8 6 7 6 -3 1 -9 18 -22 39 -30 20 -8 40 -16 45 -18 4 -2 7 5 7 16 0 13 10
24 29 30 35 12 65 64 58 99 -2 14 1 27 10 31 11 7 12 14 4 35 -10 25 -9 28 17
33 29 6 72 60 72 92 0 10 11 24 25 30 14 6 25 16 25 21 0 14 -28 33 -40 26
-10 -6 -15 13 -11 53 1 13 -3 30 -10 38 -8 10 -8 14 0 14 21 0 -34 70 -59 76
-14 4 -35 13 -47 20 -18 11 -23 12 -23 2 0 -7 -12 -19 -28 -26 -22 -10 -29
-10 -38 2 -5 8 -21 17 -35 21 -20 5 -28 0 -44 -29 l-20 -35 -25 19 -25 19 25
-6 c22 -6 23 -4 12 9 -7 9 -24 19 -37 22 -13 3 -27 15 -30 26 -3 11 -12 20
-20 20 -7 0 -15 6 -18 13 -6 17 -78 -24 -93 -53 -12 -22 -12 -22 -18 -2 -10
30 -74 65 -109 59 -25 -3 -38 4 -80 45 -27 26 -53 48 -58 48 -5 0 -9 6 -9 14
0 8 -7 16 -14 19 -10 4 -13 1 -10 -8 3 -7 -3 -18 -14 -24 -11 -6 -22 -21 -26
-35 -5 -19 -18 -28 -58 -42 -29 -9 -59 -21 -66 -27 -6 -5 -26 -7 -42 -3 -21 4
-30 2 -30 -7 0 -7 -5 -18 -12 -25 -9 -9 -17 -4 -35 20 -15 21 -20 35 -13 42
13 13 -17 46 -40 46 -20 0 -33 23 -20 36 5 5 -4 28 -21 53 -21 33 -26 47 -17
52 20 12 -20 50 -46 43 -29 -7 -90 49 -81 75 8 25 -8 34 -60 35 -23 1 -49 7
-58 14 -23 20 -146 26 -153 8 -3 -8 -14 -16 -25 -19 -13 -4 -17 -10 -12 -22 3
-10 2 -16 -3 -13 -5 2 -24 10 -41 17 -18 7 -30 17 -27 22 3 5 -1 9 -9 9 -7 0
-19 11 -24 23 -8 18 -19 24 -43 24 -22 0 -38 7 -50 23 -10 13 -22 20 -29 16
-6 -4 -11 -3 -11 3 0 6 -12 8 -29 5 -23 -5 -32 -2 -40 15 -14 26 -20 25 -48
-5z m679 -496 c30 -21 31 -21 44 -3 10 14 14 15 14 4 1 -10 3 -9 11 4 10 17
49 24 49 8 0 -4 11 -6 25 -3 14 2 25 0 25 -6 0 -6 12 -12 27 -14 31 -3 38 -22
28 -74 -3 -20 -12 -34 -20 -34 -9 0 -15 -10 -15 -25 0 -25 -31 -61 -61 -70
-12 -4 -16 -15 -15 -40 1 -27 -3 -35 -16 -35 -10 0 -18 -6 -18 -14 0 -9 -12
-16 -27 -18 -23 -2 -27 -7 -25 -26 3 -18 -1 -23 -15 -20 -13 2 -19 14 -21 45
-2 31 -9 45 -28 57 -20 14 -24 14 -24 2 0 -12 -6 -13 -27 -6 -16 6 -55 12 -88
14 -33 2 -60 5 -60 6 0 10 -45 3 -49 -7 -3 -8 -21 -20 -40 -28 -28 -12 -41
-12 -61 -3 -26 12 -34 28 -12 28 6 0 19 -5 27 -10 17 -11 54 19 77 64 11 21
18 25 26 17 6 -6 18 -11 27 -11 8 0 27 -7 43 -15 l27 -14 -6 64 c-7 68 -5 72
26 55 13 -7 21 -7 25 0 4 6 10 8 15 5 5 -3 11 4 15 15 3 11 11 20 16 20 5 0 9
11 9 24 0 16 7 26 21 29 15 4 20 11 16 21 -8 21 -1 20 35 -6z m898 -117 c0 -6
-4 -13 -10 -16 -5 -3 -10 1 -10 9 0 9 5 16 10 16 6 0 10 -4 10 -9z m-493 -117
c24 -7 37 -30 26 -47 -4 -7 -6 -19 -5 -27 2 -11 -8 -15 -40 -15 -49 0 -58 16
-36 65 13 31 19 34 55 24z m-828 -155 c-15 -9 -32 -2 -24 11 3 5 13 6 21 3 12
-4 13 -8 3 -14z"/>
<path d="M11770 6281 c0 -17 15 -19 35 -5 18 13 18 14 -8 14 -15 0 -27 -4 -27
-9z"/>
<path d="M13350 5712 c0 -17 -9 -21 -51 -27 -33 -5 -55 -3 -62 4 -14 14 -87
15 -87 1 0 -5 -9 -10 -20 -10 -16 0 -20 -7 -20 -38 0 -33 -4 -39 -30 -49 -28
-10 -30 -10 -30 11 0 12 -6 30 -13 40 -13 18 -14 18 -20 2 -5 -13 -14 -16 -34
-12 -38 8 -60 -6 -38 -24 18 -15 21 -70 3 -70 -6 0 -2 -10 10 -23 22 -23 32
-73 19 -94 -4 -6 -3 -14 3 -18 6 -4 7 -11 4 -17 -5 -7 -2 -8 6 -3 7 4 16 2 20
-5 9 -15 1 -52 -10 -45 -4 2 -6 -20 -5 -51 1 -50 -1 -56 -26 -71 -15 -9 -38
-34 -50 -55 -26 -43 -31 -48 -71 -78 -14 -11 -33 -40 -41 -64 -13 -38 -13 -47
-1 -63 18 -24 17 -30 -6 -36 -26 -7 -25 -23 4 -50 23 -22 23 -23 8 -72 -9 -27
-21 -54 -28 -60 -19 -16 -23 -63 -7 -69 23 -9 26 -7 19 10 -5 12 -2 15 11 10
22 -9 36 15 16 29 -13 10 -13 15 -2 33 8 12 19 22 26 22 7 0 16 7 21 16 6 11
9 3 8 -28 -1 -23 -6 -46 -12 -50 -6 -4 -9 -18 -7 -32 4 -20 12 -24 51 -29 30
-3 56 0 74 9 15 8 30 14 33 14 12 0 -9 -55 -28 -70 -17 -14 -17 -17 -4 -28 8
-7 28 -14 43 -15 22 -2 31 5 49 40 17 31 25 39 34 30 6 -6 11 -7 11 -1 0 5 8
11 18 12 9 1 36 4 59 7 35 4 44 1 57 -16 12 -17 21 -20 47 -15 27 5 31 4 26
-13 -8 -30 20 -61 54 -61 20 0 29 5 29 16 0 11 5 14 18 9 14 -5 15 -4 5 6 -19
19 -16 26 10 25 16 -1 23 -8 25 -29 3 -25 7 -28 27 -23 13 3 27 2 30 -4 11
-17 23 -11 29 15 4 15 13 25 25 25 10 0 24 7 32 16 11 13 11 15 -2 14 -27 -4
-35 0 -36 21 -1 15 2 19 14 15 10 -4 24 2 36 15 12 13 27 19 39 16 11 -3 17
-3 14 0 -7 8 39 43 57 43 8 0 20 -6 26 -14 6 -7 21 -13 34 -12 12 1 28 -6 35
-16 7 -9 19 -15 26 -12 8 3 23 -6 33 -20 19 -23 23 -24 58 -15 26 8 41 7 48 0
18 -18 30 -13 24 10 -4 13 -1 18 6 15 7 -3 20 -9 30 -12 22 -8 22 -15 -2 -41
-11 -12 -17 -24 -14 -27 12 -12 23 -6 23 13 0 13 5 18 18 14 29 -7 72 14 72
37 0 11 5 20 10 20 6 0 10 15 10 33 0 26 6 36 30 50 23 14 28 22 21 35 -13 24
-16 81 -7 120 5 22 4 38 -6 49 -7 9 -13 39 -14 67 -1 28 -3 56 -4 61 -2 6 5
25 16 43 17 29 22 32 54 27 27 -5 40 -1 57 15 12 11 30 20 40 20 13 1 11 5
-10 16 -28 15 -62 7 -79 -20 -5 -8 -14 -7 -30 3 -16 10 -23 10 -26 2 -4 -13
-58 -15 -67 -2 -3 5 -1 12 5 16 17 10 11 32 -9 38 -14 3 -18 1 -14 -9 3 -9 -2
-14 -13 -14 -16 0 -17 -2 -4 -10 10 -7 -4 -9 -48 -5 -69 5 -82 10 -82 29 0 8
-13 19 -29 26 -16 6 -32 18 -35 26 -7 18 -54 38 -82 35 -16 -2 -30 11 -53 46
-18 26 -28 49 -23 51 13 4 3 49 -14 63 -15 13 -20 44 -5 35 5 -4 7 3 4 15 -5
19 -7 20 -16 4 -5 -9 -7 -33 -4 -51 5 -27 2 -37 -14 -47 -10 -6 -19 -19 -19
-27 -1 -8 -8 -33 -17 -55 -20 -51 -32 -165 -18 -165 41 -2 54 -60 13 -60 -17
0 -20 -5 -16 -30 3 -17 1 -33 -4 -36 -4 -3 -3 -14 2 -24 8 -16 6 -24 -12 -42
-13 -13 -27 -22 -32 -20 -12 4 -57 -39 -51 -49 3 -4 1 -11 -5 -14 -7 -4 -8
-11 -2 -18 11 -15 21 -78 11 -72 -4 3 -10 -7 -13 -21 -6 -21 -12 -25 -31 -22
-21 5 -23 3 -13 -15 9 -18 8 -19 -13 -14 -13 4 -30 7 -36 7 -7 0 -13 8 -13 18
0 10 -5 23 -12 30 -8 8 -8 15 1 25 9 11 8 17 -3 26 -8 6 -12 20 -9 31 3 10 -4
32 -16 49 -24 34 -17 71 19 93 30 19 28 97 -4 127 -18 17 -25 19 -30 9 -3 -7
-4 1 -2 17 4 24 -3 38 -35 71 -22 23 -44 57 -48 75 -4 19 -11 45 -16 58 -5 15
-4 21 3 17 6 -3 46 -12 89 -20 65 -11 80 -11 91 0 7 8 17 14 22 14 5 0 7 7 3
16 -3 8 -11 13 -18 10 -7 -2 -17 0 -23 6 -8 8 -1 24 23 55 30 40 33 47 20 60
-8 8 -15 18 -15 22 0 16 -43 52 -57 47 -11 -5 -13 2 -8 37 6 46 -6 70 -43 81
-18 6 -22 4 -22 -12z m631 -735 c30 8 35 7 46 -15 10 -19 10 -28 0 -43 -13
-18 -15 -18 -37 6 -14 15 -27 21 -34 16 -7 -5 -21 1 -36 17 -18 18 -20 23 -7
19 10 -4 17 -1 17 6 0 9 3 8 9 -1 6 -10 17 -11 42 -5z m-146 -107 c3 -5 2 -10
-4 -10 -5 0 -13 5 -16 10 -3 6 -2 10 4 10 5 0 13 -4 16 -10z m77 -42 c3 -7 13
-13 24 -13 12 0 20 -8 22 -23 3 -18 -1 -23 -15 -20 -11 2 -17 -2 -15 -11 3
-12 0 -12 -12 -2 -9 7 -13 17 -10 22 3 5 -2 6 -10 3 -21 -8 -31 21 -14 40 16
19 25 20 30 4z m28 -107 c0 -6 -4 -13 -10 -16 -5 -3 -10 1 -10 9 0 9 5 16 10
16 6 0 10 -4 10 -9z m-436 -47 c10 -25 7 -30 -21 -43 -18 -8 -29 -9 -37 -1 -7
7 -7 10 0 10 6 0 16 11 22 25 13 29 27 32 36 9z"/>
<path d="M14125 5480 c-3 -5 -2 -10 4 -10 7 0 7 -8 0 -27 -7 -18 -6 -30 1 -37
5 -5 10 -18 10 -29 0 -10 5 -15 10 -12 7 4 7 13 0 26 -6 10 -7 19 -2 19 5 0
15 -12 22 -27 8 -16 20 -35 28 -45 11 -13 11 -20 0 -37 -7 -12 -19 -19 -26
-16 -16 6 -6 -44 13 -64 20 -21 35 -4 35 40 0 25 5 39 13 39 8 0 12 14 12 40
0 22 -3 40 -8 40 -5 0 -7 17 -6 38 4 51 -6 65 -42 57 -17 -4 -36 -2 -44 5 -9
7 -15 8 -20 0z"/>
<path d="M14070 5470 c20 -13 43 -13 35 0 -3 6 -16 10 -28 10 -18 0 -19 -2 -7
-10z"/>
<path d="M14589 5348 c-1 -7 -1 -16 0 -20 0 -5 -4 -8 -10 -8 -20 0 -5 -45 16
-48 16 -2 24 6 33 33 7 19 10 39 7 45 -9 14 -45 12 -46 -2z"/>
<path d="M14541 5244 c0 -11 3 -14 6 -6 3 7 2 16 -1 19 -3 4 -6 -2 -5 -13z"/>
<path d="M14474 5226 c23 -19 32 -20 41 -6 3 6 0 10 -9 10 -8 0 -23 3 -33 6
-16 5 -16 4 1 -10z"/>
<path d="M14393 5213 c9 -2 23 -2 30 0 6 3 -1 5 -18 5 -16 0 -22 -2 -12 -5z"/>
<path d="M13964 4605 c5 -19 3 -23 -9 -19 -10 4 -15 0 -15 -10 0 -13 -6 -15
-26 -10 -19 5 -25 4 -20 -5 4 -6 16 -11 27 -11 16 0 19 -7 19 -39 0 -35 -7
-46 -61 -98 -45 -43 -69 -58 -90 -58 -23 -1 -31 5 -35 22 -10 40 2 56 39 50
17 -3 26 -3 20 -1 -19 8 3 44 27 44 14 0 21 9 26 34 3 19 4 41 1 48 -3 7 -6 3
-6 -9 -1 -17 -9 -24 -36 -29 -20 -3 -49 -4 -66 0 -20 4 -28 2 -23 -5 3 -6 -3
-19 -15 -30 -22 -21 -28 -39 -12 -39 5 0 11 -7 15 -15 4 -10 -12 -26 -50 -50
-61 -39 -69 -41 -90 -20 -9 9 -27 12 -50 10 -23 -3 -36 0 -40 8 -3 8 -17 11
-39 9 -19 -2 -33 -7 -31 -11 7 -11 -22 -43 -33 -36 -6 3 -11 0 -11 -8 0 -21
-34 -47 -61 -47 -23 0 -25 -4 -23 -35 2 -19 -1 -37 -6 -40 -18 -11 -10 -37 17
-58 41 -32 93 -67 101 -67 3 0 23 -19 44 -42 21 -24 47 -43 62 -45 91 -11 114
-19 112 -39 0 -9 7 -21 16 -27 14 -9 22 -6 43 13 28 26 33 58 10 66 -13 5 -12
11 6 40 11 19 18 42 15 50 -7 19 4 155 13 150 3 -2 7 7 8 22 0 14 8 29 17 34
9 5 16 16 16 24 0 21 37 9 71 -22 31 -30 54 -33 40 -5 -9 15 -6 20 12 26 12 4
29 9 37 9 8 1 14 7 13 14 -10 44 -6 57 12 42 12 -10 16 -9 21 5 4 10 14 15 24
12 14 -4 19 3 23 27 3 17 0 37 -7 45 -6 8 -9 15 -7 15 8 2 -11 99 -22 117 -17
27 -30 23 -23 -6z"/>
<path d="M13404 4506 c3 -13 9 -31 12 -40 4 -11 0 -16 -12 -17 -12 0 -8 -4 11
-11 17 -5 37 -12 45 -15 8 -4 19 -5 23 -4 5 1 11 -8 14 -20 5 -17 12 -20 35
-17 16 3 31 1 34 -4 8 -12 34 11 34 28 0 8 8 14 18 14 24 0 62 28 62 46 0 8
-4 13 -9 10 -5 -3 -8 2 -7 11 0 9 -5 18 -12 20 -8 3 -10 -2 -6 -14 4 -13 0
-12 -17 7 -16 18 -20 20 -16 7 6 -15 3 -17 -12 -12 -10 3 -31 1 -47 -5 -25
-10 -31 -8 -46 11 -12 14 -25 19 -38 16 -11 -3 -23 -1 -26 4 -3 5 -14 9 -26 9
-16 0 -19 -5 -14 -24z"/>
<path d="M13014 4495 c-9 -14 -22 -25 -30 -25 -8 0 -11 -6 -8 -15 7 -17 -14
-40 -36 -40 -9 0 -16 -11 -18 -27 -2 -16 -8 -28 -13 -28 -6 0 -7 -5 -3 -11 4
-8 0 -9 -15 -4 -13 4 -21 2 -21 -6 0 -9 -4 -9 -15 1 -10 8 -30 10 -63 5 -38
-5 -52 -12 -63 -31 -7 -13 -17 -23 -23 -21 -6 2 -17 -2 -24 -10 -7 -7 -23 -13
-34 -13 -20 0 -20 -1 -4 -19 20 -22 16 -43 -17 -103 -15 -27 -27 -38 -44 -38
-13 0 -23 -5 -23 -11 0 -8 -4 -8 -14 0 -12 10 -13 6 -5 -29 9 -37 7 -43 -18
-66 l-28 -26 25 8 c14 4 46 6 71 5 26 -1 58 3 72 8 18 7 30 6 46 -6 13 -9 32
-12 46 -9 14 4 27 1 32 -6 11 -18 56 -18 68 -2 5 8 43 30 83 49 53 25 72 39
72 54 0 14 5 18 20 14 15 -4 20 0 20 16 0 16 6 21 25 21 18 0 25 5 25 18 0 10
11 25 25 32 22 12 30 12 53 -2 17 -10 33 -13 42 -8 7 4 19 6 27 3 17 -7 15 91
-3 128 -7 15 -11 29 -9 31 3 3 -4 13 -15 23 -11 10 -20 30 -20 45 0 24 -5 29
-35 34 -21 4 -53 23 -78 46 -23 22 -45 40 -49 40 -4 0 -15 -11 -24 -25z"/>
</g>
</svg>
