<?xml version="1.0" standalone="no"?>
<!DOCTYPE svg PUBLIC "-//W3C//DTD SVG 20010904//EN"
 "http://www.w3.org/TR/2001/REC-SVG-20010904/DTD/svg10.dtd">
<svg version="1.0" xmlns="http://www.w3.org/2000/svg"
 width="547.721690pt" height="786.935047pt" viewBox="0 0 547.721690 786.935047"
 preserveAspectRatio="xMidYMid meet">
<metadata>
Created by potrace 1.15, written by Peter Selinger 2001-2017
</metadata>
<g transform="translate(-767.178303,1364.935047) scale(0.100000,-0.100000)"
fill="#222222" stroke="none">
<path d="M7680 13632 c6 -13 14 -21 18 -18 3 4 -2 14 -12 24 -18 16 -18 16 -6
-6z"/>
<path d="M7734 13606 c-4 -9 -13 -15 -20 -12 -28 11 -13 -42 30 -108 40 -61
71 -102 52 -68 -4 7 -2 19 4 27 13 16 2 56 -37 134 -18 35 -24 41 -29 27z"/>
<path d="M7795 13369 c4 -13 13 -34 21 -46 19 -31 18 -56 -8 -98 -17 -29 -18
-39 -8 -45 20 -12 51 11 44 33 -5 17 -4 17 23 4 15 -7 36 -12 46 -9 10 2 24
-2 32 -8 12 -10 15 -9 15 5 0 17 -17 35 -103 113 -26 23 -47 47 -47 52 0 5 -5
12 -11 16 -8 4 -9 -1 -4 -17z"/>
<path d="M7995 13159 c4 -12 1 -33 -6 -46 -12 -22 -11 -27 3 -37 10 -8 14 -21
11 -38 -3 -18 3 -37 20 -60 13 -18 27 -44 31 -58 4 -16 20 -32 48 -45 23 -11
42 -24 42 -30 0 -5 22 -32 48 -60 26 -27 66 -74 89 -103 24 -30 52 -55 67 -59
33 -7 82 -56 82 -80 0 -10 7 -27 15 -37 17 -23 20 -56 4 -56 -6 0 -8 -9 -4
-20 4 -13 2 -20 -6 -20 -17 0 17 -36 57 -61 18 -11 31 -26 28 -33 -3 -7 4 -21
16 -31 24 -22 27 -80 5 -93 -14 -7 -14 -14 4 -55 11 -26 27 -47 35 -47 8 0 28
-12 45 -26 17 -14 35 -23 40 -20 5 3 14 -1 21 -10 7 -8 20 -12 27 -9 8 2 24 0
36 -7 12 -7 34 -11 49 -9 14 1 29 -2 32 -7 3 -6 23 -8 44 -5 34 5 42 1 64 -25
30 -36 85 -72 111 -72 9 0 23 -11 29 -25 6 -14 15 -25 20 -25 5 0 28 -15 51
-34 23 -18 53 -36 67 -39 14 -3 33 -20 43 -37 14 -23 28 -31 58 -36 22 -4 57
-19 79 -35 31 -22 45 -27 74 -22 30 5 40 1 68 -28 18 -18 42 -35 52 -36 11 -2
26 -8 33 -15 7 -6 16 -8 20 -5 3 4 15 1 27 -5 11 -7 27 -12 35 -13 26 0 37
-32 18 -52 -10 -12 -14 -27 -10 -42 3 -14 1 -26 -7 -31 -9 -5 -5 -14 13 -31
20 -20 24 -31 20 -61 -3 -21 -9 -38 -13 -38 -4 0 -19 -9 -34 -21 -24 -19 -25
-22 -10 -37 10 -10 12 -18 6 -20 -12 -4 -4 -33 12 -44 7 -4 2 -16 -12 -31 -12
-13 -22 -31 -22 -40 0 -15 -4 -16 -20 -7 -17 9 -20 8 -20 -13 0 -12 -4 -27 -9
-33 -6 -5 -2 -30 10 -64 11 -30 20 -62 20 -70 0 -34 10 -60 23 -60 7 0 19 -7
27 -16 10 -13 10 -17 -1 -24 -16 -10 11 -40 52 -58 16 -6 43 -36 62 -65 19
-30 45 -57 57 -60 17 -5 20 -11 15 -31 -4 -18 -2 -26 12 -30 28 -9 41 -56 23
-84 -12 -20 -13 -35 -3 -98 7 -42 17 -85 24 -97 7 -12 11 -26 10 -30 -1 -4 2
-16 7 -26 8 -14 2 -25 -26 -55 -27 -28 -37 -46 -37 -72 -1 -20 -6 -34 -13 -34
-31 0 -6 -159 31 -200 36 -41 51 -77 38 -93 -9 -11 -7 -18 8 -32 11 -10 20
-22 20 -28 0 -5 11 -18 25 -28 15 -13 22 -26 18 -36 -4 -10 3 -22 18 -34 20
-15 24 -28 26 -76 1 -32 3 -67 5 -78 2 -14 -5 -22 -30 -30 -33 -11 -33 -25 0
-25 14 0 18 -8 18 -36 0 -24 10 -52 30 -81 17 -24 30 -51 30 -59 0 -8 5 -12
10 -9 14 9 42 -21 39 -42 -1 -10 2 -27 6 -37 6 -13 4 -21 -3 -24 -7 -2 -12
-12 -12 -22 0 -15 -7 -17 -44 -13 -27 4 -46 1 -51 -6 -5 -9 -12 -8 -26 5 -16
15 -26 15 -76 5 -31 -6 -60 -15 -63 -21 -3 -5 -11 -5 -20 0 -12 7 -12 11 0 25
13 15 10 21 -23 51 -20 19 -37 38 -37 43 0 5 -9 11 -20 14 -15 4 -20 0 -20
-13 0 -14 -7 -18 -36 -16 -22 1 -38 -4 -41 -11 -7 -19 -27 -16 -47 6 -10 11
-24 17 -31 15 -7 -3 -20 5 -29 18 -10 14 -12 24 -6 26 7 3 5 14 -6 30 -15 22
-15 32 -4 74 11 45 10 50 -6 62 -23 17 -37 12 -87 -36 -22 -21 -44 -38 -49
-38 -4 0 -8 -11 -8 -24 0 -17 -10 -31 -32 -45 -19 -11 -43 -40 -57 -68 -13
-26 -30 -61 -37 -76 -8 -16 -12 -32 -9 -37 5 -8 -78 -25 -107 -21 -10 1 -18
-4 -18 -11 0 -13 -43 -38 -66 -38 -7 0 -14 -6 -17 -12 -3 -10 -8 -9 -22 2 -17
14 -18 13 -13 -7 4 -14 1 -23 -5 -24 -7 -1 -16 -2 -22 -4 -5 -1 -19 -3 -30 -3
-15 -2 -21 -10 -23 -28 -2 -31 -20 -56 -33 -48 -16 10 -10 37 7 30 9 -4 13 -2
8 5 -6 11 -44 8 -75 -5 -12 -5 -18 -1 -22 13 -7 29 -25 26 -20 -2 3 -13 18
-31 34 -41 20 -12 29 -25 29 -43 0 -16 17 -46 45 -79 25 -28 45 -58 45 -66 0
-30 25 -68 41 -63 12 4 21 -7 34 -40 9 -26 32 -66 51 -90 18 -24 29 -47 24
-50 -18 -11 -11 -23 43 -81 28 -31 69 -90 89 -132 21 -42 49 -87 62 -101 19
-20 27 -41 32 -93 5 -50 4 -68 -5 -68 -7 0 -9 -5 -6 -11 4 -6 2 -31 -5 -55
l-13 -45 43 -44 c24 -24 49 -60 55 -80 12 -32 11 -35 -6 -35 -13 0 -19 -7 -19
-21 0 -11 -4 -18 -9 -15 -4 3 -7 -20 -5 -51 2 -32 -1 -62 -7 -70 -8 -9 -8 -17
-1 -25 16 -20 19 -88 3 -97 -9 -6 -6 -13 14 -30 23 -17 25 -23 15 -36 -11 -13
-10 -18 6 -31 10 -9 14 -13 7 -9 -7 3 -20 -6 -29 -20 -9 -14 -25 -25 -35 -25
-21 0 -24 -12 -9 -41 8 -15 6 -22 -10 -36 -31 -27 -24 -49 35 -109 34 -33 58
-67 62 -85 6 -31 11 -34 82 -57 31 -10 38 -9 59 11 22 21 24 21 33 4 7 -12 17
-16 30 -12 11 4 26 -1 37 -12 24 -23 46 -79 37 -92 -4 -7 4 -11 19 -11 25 0
26 -3 26 -54 0 -35 -5 -56 -12 -59 -10 -3 -10 -7 0 -19 7 -9 10 -27 6 -47 -5
-25 -4 -30 8 -26 8 3 22 -3 32 -14 14 -16 23 -18 37 -10 24 13 44 2 30 -15 -6
-7 -8 -16 -4 -20 4 -4 -2 -9 -12 -12 -23 -6 -51 -57 -35 -62 13 -5 13 -32 0
-32 -17 0 -11 -32 13 -67 13 -19 28 -31 36 -28 36 14 47 -35 14 -62 -20 -16 1
-57 24 -49 17 7 56 -22 48 -34 -3 -5 8 -14 25 -22 32 -14 55 -62 44 -91 -3
-10 3 -21 19 -32 14 -9 27 -25 30 -36 5 -18 2 -19 -23 -14 -24 5 -29 3 -32
-17 -2 -17 -9 -22 -26 -21 -12 2 -22 -1 -22 -5 0 -7 39 -36 50 -37 3 0 10 -4
16 -8 16 -9 25 18 12 31 -8 8 -1 10 24 5 31 -4 37 -2 43 17 5 15 13 20 26 17
12 -3 19 0 19 9 0 10 9 14 28 12 21 -2 27 1 25 15 -1 15 4 18 20 13 12 -3 25
-6 29 -6 4 0 9 -9 13 -19 7 -25 34 -35 51 -20 8 7 29 9 50 6 24 -4 50 0 73 10
46 21 58 18 103 -23 41 -37 49 -39 64 -24 17 17 44 0 44 -26 0 -15 6 -24 15
-24 19 0 19 10 0 38 -12 16 -13 27 -5 41 5 11 10 32 10 48 1 31 54 98 70 88 6
-3 10 4 10 15 0 16 4 20 16 16 9 -3 18 -6 20 -6 2 0 4 -9 4 -20 0 -22 15 -27
23 -7 4 7 8 3 12 -11 8 -25 20 -29 29 -7 3 8 14 15 25 15 11 0 23 5 26 11 4 5
18 14 31 19 13 5 24 16 24 25 0 8 9 15 19 15 11 0 21 9 25 23 3 12 24 36 47
52 76 54 91 72 79 95 -12 22 -1 27 29 11 13 -7 21 -3 36 19 12 17 33 32 50 36
59 13 85 32 85 64 0 25 38 80 56 80 3 0 18 12 34 28 34 32 56 127 26 116 -13
-5 -16 0 -16 24 0 24 -6 34 -27 44 -36 18 -38 31 -6 45 31 14 60 32 81 51 7 6
22 12 33 12 25 0 53 26 44 40 -3 5 -3 10 2 11 4 0 24 3 43 5 19 3 52 5 72 5
22 1 39 7 42 15 3 8 19 14 35 14 20 0 34 7 41 21 8 15 18 19 34 15 14 -3 40 4
66 18 41 22 46 22 68 8 17 -11 26 -12 35 -3 6 6 25 11 43 11 18 0 41 9 56 23
14 12 39 30 57 39 28 15 30 20 21 43 -13 35 -13 38 5 31 27 -10 47 5 41 29 -4
15 -1 25 9 29 8 3 15 12 15 21 0 8 6 15 14 15 8 0 17 15 20 34 4 19 13 40 22
47 11 9 13 23 9 51 -5 30 -4 37 7 33 11 -4 17 7 24 42 8 43 12 48 34 46 42 -4
91 7 89 20 -1 7 1 33 5 60 7 38 12 47 28 47 19 0 20 5 16 59 -4 60 -4 60 21
55 22 -4 28 0 40 26 7 17 23 43 36 58 21 25 22 33 14 76 -5 27 -7 52 -4 56 3
5 1 12 -5 15 -8 5 -8 11 0 20 7 8 9 19 5 25 -4 6 0 19 9 29 15 17 15 19 1 24
-8 4 -15 17 -15 29 0 30 -22 91 -39 112 -7 9 -22 16 -32 16 -11 0 -23 10 -29
24 -5 14 -19 30 -30 36 -43 23 -60 49 -60 90 0 24 4 39 11 38 6 -2 14 4 17 12
2 8 1 12 -3 8 -4 -4 -16 9 -27 28 -22 41 -17 51 41 86 55 34 61 46 46 89 -15
40 -12 49 17 49 14 0 18 7 18 33 0 17 1 55 3 84 3 34 0 50 -7 47 -6 -2 -17 0
-25 5 -12 8 -12 13 -3 24 10 11 8 20 -9 41 l-20 26 28 1 c15 1 32 1 37 0 4 -1
14 3 21 9 7 6 19 8 28 4 23 -8 55 13 59 38 3 24 10 25 63 13 27 -6 32 -3 45
27 8 18 14 35 13 38 0 3 -4 15 -7 27 -6 19 -3 22 21 20 20 -1 28 3 28 15 0 10
3 18 8 18 4 0 12 0 17 0 6 0 10 -8 10 -18 0 -21 36 -46 46 -31 4 7 13 4 24 -6
10 -9 35 -20 54 -25 32 -7 36 -6 36 12 0 16 -3 18 -14 9 -17 -15 -49 -3 -42
16 3 7 -1 16 -9 19 -32 13 -1 94 35 94 6 0 10 23 10 50 0 29 5 50 11 50 5 0 7
5 4 10 -3 6 3 10 13 10 21 0 46 23 36 33 -3 3 -3 16 1 28 7 21 9 21 20 6 18
-25 45 -11 45 23 0 16 5 30 12 32 10 4 9 14 -1 45 -8 23 -11 51 -8 63 3 13 0
23 -8 26 -8 3 -11 12 -9 19 3 7 0 16 -6 20 -6 4 -8 15 -5 25 4 13 -6 28 -33
51 -33 29 -39 39 -35 64 3 23 -2 36 -21 54 -21 20 -31 22 -68 17 -24 -3 -58
-8 -76 -9 -18 -2 -38 -11 -45 -21 -19 -26 -77 -11 -77 20 0 21 -2 22 -23 13
-20 -9 -36 -5 -94 24 -38 20 -75 42 -82 51 -10 12 -16 13 -32 3 -10 -6 -19
-17 -19 -24 0 -18 -9 -16 -52 7 -30 16 -37 17 -42 5 -6 -17 -46 -21 -46 -5 0
6 -13 10 -30 10 -23 0 -30 -5 -30 -19 0 -10 -7 -24 -15 -31 -8 -7 -15 -19 -15
-27 0 -11 -7 -13 -29 -8 -16 3 -32 2 -35 -4 -4 -6 -19 -8 -35 -5 -15 3 -45 1
-65 -4 -31 -9 -43 -8 -69 7 -18 10 -33 27 -35 39 -3 19 -10 22 -48 22 -42 0
-46 2 -60 35 -8 19 -18 35 -23 35 -16 0 -60 87 -49 98 5 5 3 14 -7 22 -8 7
-15 18 -15 24 0 7 -11 23 -25 36 -14 13 -25 33 -25 44 0 32 -24 71 -42 68 -28
-4 -88 27 -88 47 0 13 -14 26 -40 38 -22 10 -40 25 -41 33 -1 8 -3 20 -3 26
-2 20 -29 45 -43 40 -7 -3 -13 -1 -13 4 0 5 -13 22 -29 37 -31 31 -61 125 -42
131 15 5 14 75 -1 90 -9 9 -9 12 0 12 7 0 12 11 12 25 0 13 8 28 17 34 15 8
10 13 -29 32 l-47 22 4 49 c3 37 0 50 -13 58 -16 9 -16 9 1 10 9 0 17 5 17 11
0 7 -8 18 -17 25 -10 7 -19 25 -21 41 -1 15 -4 42 -6 58 -2 17 -4 46 -5 65 -1
28 -8 40 -36 59 -19 13 -37 31 -40 42 -3 10 -15 21 -26 24 -15 5 -19 16 -19
51 0 25 -7 58 -15 74 -18 35 -8 39 18 9 16 -18 20 -19 35 -6 9 8 29 17 45 21
20 5 27 12 27 31 0 14 8 29 20 35 11 6 20 16 20 23 0 22 65 137 77 137 16 0
17 32 2 47 -14 14 52 37 80 28 13 -4 23 0 29 10 5 9 13 15 18 13 5 -1 10 11
12 27 2 17 10 36 19 42 14 11 15 18 3 53 -13 38 -12 42 8 56 26 18 30 71 7 80
-8 4 -15 14 -15 23 0 25 -30 63 -45 57 -7 -2 -16 2 -19 10 -3 9 -10 12 -16 9
-14 -8 -13 31 1 58 9 16 9 22 -1 25 -8 3 -24 15 -36 27 -32 32 -50 37 -137 40
-65 2 -81 6 -102 25 -14 13 -27 38 -31 56 -6 31 -74 121 -74 98 0 -7 -11 -14
-25 -16 -14 -3 -25 -1 -25 4 0 6 -6 8 -14 5 -19 -7 -48 26 -44 50 4 28 -30 76
-49 69 -9 -4 -23 0 -32 8 -14 13 -24 13 -55 4 -29 -9 -42 -9 -57 0 -24 15 -29
15 -29 -2 0 -23 -88 -16 -94 6 -5 22 -45 24 -60 2 -9 -12 -17 -13 -39 -5 -26
10 -27 9 -21 -14 10 -39 -17 -32 -77 20 -56 48 -78 75 -59 75 29 0 -5 62 -36
65 -10 0 -31 13 -47 28 -15 16 -32 25 -38 22 -6 -4 -16 0 -22 8 -7 9 -23 19
-37 22 -21 5 -28 0 -44 -26 l-19 -32 -67 7 c-78 7 -122 -5 -145 -40 -8 -13
-22 -24 -30 -24 -8 0 -20 -10 -26 -22 -6 -13 -13 -24 -14 -26 -2 -2 -20 4 -40
12 -42 18 -91 21 -100 6 -6 -10 -45 1 -68 20 -63 52 -78 60 -107 60 -20 0 -38
-8 -49 -21 -14 -18 -21 -20 -38 -10 -16 8 -22 8 -25 -1 -4 -10 -14 -9 -49 1
-24 7 -52 15 -61 17 -13 4 -16 1 -12 -10 5 -12 0 -13 -23 -7 -20 5 -31 17 -39
41 -6 19 -21 40 -33 48 -11 8 -21 20 -21 27 0 7 -7 16 -16 19 -8 3 -13 10 -10
14 12 20 -86 122 -117 122 -9 0 -20 8 -25 17 -9 15 -18 12 -81 -25 -53 -32
-77 -41 -96 -36 -14 3 -25 9 -25 13 0 4 -8 7 -17 7 -10 0 -30 3 -45 7 -21 5
-28 3 -32 -11 -9 -29 -56 -50 -93 -42 -18 4 -36 3 -42 -3 -7 -7 -20 -6 -40 3
-16 6 -36 10 -43 7 -22 -7 -48 12 -48 37 0 19 -5 23 -32 21 -18 -1 -40 -5 -48
-8 -56 -21 -198 -14 -207 10 -3 8 0 25 7 39 12 21 11 27 -6 46 -28 34 -44 41
-89 43 -22 1 -50 7 -62 13 -12 7 -33 12 -47 12 -14 0 -28 5 -31 10 -12 19 -26
10 -20 -11z m950 -4299 c3 -5 -1 -10 -9 -10 -9 0 -16 5 -16 10 0 6 4 10 9 10
6 0 13 -4 16 -10z"/>
<path d="M11393 11628 c-22 -29 -22 -46 0 -52 40 -11 49 -7 42 15 -5 15 -4 19
4 15 6 -4 11 -3 11 3 0 9 -31 31 -43 31 -3 0 -9 -6 -14 -12z"/>
<path d="M9902 6008 c-7 -7 -12 -17 -12 -24 0 -15 44 -27 48 -14 2 6 9 7 14 4
7 -4 8 -2 4 5 -4 6 -12 9 -17 6 -5 -4 -13 3 -17 15 -6 16 -10 18 -20 8z"/>
<path d="M9683 5906 c-7 -8 -18 -16 -25 -19 -9 -4 -10 -8 -3 -14 6 -4 18 -20
27 -34 21 -32 54 -29 96 9 l28 26 -43 23 c-50 26 -63 28 -80 9z"/>
<path d="M9963 5910 c-13 -5 -23 -16 -23 -25 0 -9 -7 -18 -15 -21 -13 -6 -14
-8 -1 -18 7 -6 16 -23 20 -38 5 -23 12 -28 36 -28 33 0 35 3 20 31 -13 23 -12
23 32 5 19 -8 44 -13 55 -10 20 5 19 8 -12 40 -18 19 -37 34 -42 34 -4 0 -14
9 -21 20 -13 22 -17 23 -49 10z"/>
</g>
</svg>
