<?xml version="1.0" standalone="no"?>
<!DOCTYPE svg PUBLIC "-//W3C//DTD SVG 20010904//EN"
 "http://www.w3.org/TR/2001/REC-SVG-20010904/DTD/svg10.dtd">
<svg version="1.0" xmlns="http://www.w3.org/2000/svg"
 width="683.099585pt" height="859.808363pt" viewBox="0 0 683.099585 859.808363"
 preserveAspectRatio="xMidYMid meet">
<metadata>
Created by potrace 1.15, written by Peter Selinger 2001-2017
</metadata>
<g transform="translate(-704.434813,1457.937228) scale(0.100000,-0.100000)"
fill="#222222" stroke="none">
<path d="M9288 14563 c-9 -10 -19 -28 -23 -41 -5 -17 -12 -22 -23 -17 -10 4
-43 9 -74 12 -43 4 -60 2 -72 -9 -13 -14 -8 -19 51 -47 47 -23 69 -29 76 -22
6 6 20 11 32 11 11 0 29 6 40 14 11 7 39 17 63 21 23 4 42 11 42 16 0 4 8 6
18 2 15 -6 15 -4 -2 15 -11 12 -25 22 -32 22 -7 0 -18 9 -24 20 -13 25 -52 26
-72 3z"/>
<path d="M9036 14483 c-4 -9 -4 -18 -1 -21 3 -3 5 0 5 6 0 6 8 12 18 14 15 3
16 4 0 10 -10 4 -19 1 -22 -9z"/>
<path d="M9460 14490 c0 -5 -3 -9 -7 -9 -21 3 -33 -2 -33 -16 0 -8 5 -15 10
-15 6 0 10 -7 10 -15 0 -8 5 -15 10 -15 6 0 8 11 4 27 -7 26 -7 27 10 10 10
-9 22 -15 27 -12 13 9 11 15 -3 13 -6 -2 -13 6 -15 17 -1 11 0 14 3 8 3 -7 10
-13 16 -13 6 0 6 6 -2 15 -14 17 -30 20 -30 5z"/>
<path d="M8987 14449 c7 -7 15 -10 18 -7 3 3 -2 9 -12 12 -14 6 -15 5 -6 -5z"/>
<path d="M8920 14418 c0 -7 14 -26 30 -42 l30 -29 0 26 c0 19 -8 31 -30 42
-23 12 -30 12 -30 3z"/>
<path d="M8917 14316 c20 -26 27 -28 17 -3 -3 8 -12 18 -20 21 -11 4 -10 0 3
-18z"/>
<path d="M8954 14220 c1 -28 -2 -50 -6 -50 -5 0 -31 -16 -58 -35 -27 -19 -52
-35 -55 -35 -3 0 -6 0 -7 -1 -2 -1 -20 -2 -41 -3 -22 -2 -42 -9 -47 -16 -5 -7
-9 -8 -11 -2 -2 6 -16 14 -31 17 -21 6 -28 4 -28 -8 0 -12 -9 -14 -39 -10 -35
5 -39 3 -43 -20 -3 -14 -1 -30 4 -35 6 -6 4 -19 -7 -35 -11 -17 -13 -27 -6
-32 6 -3 8 -17 5 -30 -4 -16 1 -30 17 -46 l23 -23 -22 -9 c-12 -6 -22 -16 -22
-23 0 -10 -6 -11 -26 -4 -16 7 -23 7 -19 0 3 -6 1 -10 -4 -10 -6 0 -11 -8 -11
-17 0 -13 3 -14 12 -5 7 7 24 12 39 12 15 0 29 6 32 14 3 7 16 12 31 11 32 -4
46 -13 46 -30 0 -18 -17 -28 -32 -19 -6 4 -24 8 -39 9 -26 2 -27 1 -17 -18 8
-16 7 -23 -8 -34 -10 -7 -14 -14 -8 -14 5 -1 -9 -5 -31 -9 -22 -4 -48 -4 -57
1 -9 5 -24 6 -34 2 -14 -5 -16 -16 -11 -65 4 -46 2 -60 -10 -67 -11 -5 -14
-18 -11 -38 4 -27 0 -32 -31 -43 -45 -16 -118 -76 -125 -102 -3 -14 -10 -18
-24 -14 -19 6 -38 -6 -94 -57 -13 -12 -28 -17 -43 -13 -13 3 -27 2 -30 -4 -3
-5 -19 -10 -36 -10 -22 0 -29 -5 -29 -20 0 -11 -6 -20 -12 -21 -45 -2 -104
-12 -118 -19 -10 -5 -17 -22 -18 -42 0 -18 -8 -38 -17 -45 -10 -6 -14 -16 -11
-21 10 -17 -52 -20 -69 -3 -21 21 -45 0 -25 -24 7 -8 17 -15 23 -15 6 0 18 -7
27 -15 13 -12 23 -13 44 -6 31 12 55 5 78 -22 13 -17 19 -19 31 -8 13 10 22 7
52 -22 23 -22 33 -37 26 -42 -17 -10 -8 -52 17 -75 44 -41 53 -64 41 -99 -9
-24 -9 -35 0 -44 8 -8 11 -8 11 2 0 10 3 11 14 2 7 -6 20 -9 28 -6 9 4 36 -5
61 -19 25 -14 53 -23 61 -20 16 6 29 -16 40 -68 4 -16 13 -28 21 -28 8 0 20
-10 26 -22 9 -18 8 -24 -6 -34 -9 -7 -14 -17 -11 -23 4 -5 2 -12 -4 -16 -7 -4
-7 -12 0 -25 6 -11 9 -23 9 -27 -1 -4 3 -21 9 -36 15 -36 15 -37 -3 -37 -24 0
0 -38 27 -42 16 -2 28 -18 44 -58 22 -55 22 -55 70 -60 61 -7 79 -17 64 -35
-8 -10 -6 -15 10 -20 11 -3 27 -19 35 -35 8 -16 25 -34 36 -40 11 -7 18 -18
15 -25 -3 -8 -1 -17 5 -21 6 -3 8 -12 5 -20 -3 -8 1 -17 9 -20 10 -4 12 -15 9
-34 -4 -15 -1 -36 4 -47 7 -12 8 -33 2 -57 -5 -21 -6 -44 -4 -51 7 -18 44 -27
44 -11 0 15 44 37 81 42 31 4 92 -52 147 -133 19 -29 41 -53 48 -53 7 0 15 -9
19 -19 3 -11 21 -29 40 -40 36 -21 46 -41 21 -41 -7 0 -21 -11 -29 -24 -16
-23 -15 -25 11 -42 20 -13 23 -19 12 -22 -8 -3 -29 -20 -46 -39 -17 -18 -35
-33 -41 -33 -6 0 -13 -7 -17 -15 -3 -8 -10 -15 -17 -15 -6 0 -9 7 -5 15 3 8 1
15 -4 15 -6 0 -10 7 -10 16 0 9 5 12 12 8 7 -4 8 -3 4 5 -6 9 -11 9 -21 1 -8
-7 -19 -9 -24 -5 -6 3 -26 3 -46 -1 -28 -5 -35 -11 -35 -30 0 -21 4 -23 25
-18 15 4 25 2 25 -5 0 -6 5 -10 11 -9 6 2 14 -3 17 -11 3 -8 0 -11 -6 -7 -14
9 -33 -26 -29 -56 2 -25 23 -35 75 -37 29 -1 35 -6 53 -47 l21 -45 -22 -19
c-11 -10 -30 -25 -42 -32 -18 -12 -19 -17 -9 -37 9 -17 10 -26 1 -36 -7 -8 -9
-19 -5 -25 3 -6 -3 -10 -15 -10 -12 0 -28 -12 -40 -32 -10 -18 -24 -38 -29
-45 -6 -7 -11 -16 -11 -20 0 -4 -21 -16 -46 -27 -36 -15 -45 -23 -41 -37 3
-11 0 -19 -7 -19 -7 0 -29 -17 -49 -38 -34 -35 -36 -40 -27 -72 14 -48 13 -50
-14 -50 -22 0 -26 -6 -32 -45 -3 -25 -13 -49 -22 -54 -8 -5 -12 -15 -9 -24 7
-19 -12 -27 -65 -27 -25 0 -49 -8 -65 -20 -14 -11 -36 -20 -49 -20 -19 0 -24
-5 -24 -24 0 -14 -5 -28 -10 -31 -6 -4 -9 -14 -8 -23 2 -11 -5 -18 -18 -20
-13 -2 -23 -14 -30 -35 -7 -24 -15 -32 -31 -31 -12 0 -20 -3 -17 -7 3 -5 -7
-11 -21 -15 -24 -6 -36 -34 -15 -34 20 0 10 -41 -12 -51 -18 -8 -23 -18 -22
-44 1 -19 7 -41 13 -49 7 -8 9 -21 5 -28 -4 -7 -7 -25 -6 -40 2 -18 -3 -31
-13 -34 -8 -4 -15 -12 -15 -20 0 -7 -19 -19 -42 -26 -43 -12 -108 -68 -108
-93 0 -7 -11 -16 -25 -19 -31 -8 -75 -52 -75 -75 0 -10 -12 -34 -27 -55 -25
-32 -33 -36 -64 -34 -45 4 -42 -13 6 -31 19 -7 35 -19 35 -27 0 -16 65 -20 75
-4 3 6 17 10 30 10 13 0 29 8 34 18 9 15 10 15 11 -4 0 -13 14 -31 35 -45 19
-13 35 -29 35 -35 0 -5 13 -20 29 -32 24 -18 30 -31 36 -81 5 -43 12 -62 23
-66 16 -4 35 -45 49 -103 5 -20 11 -23 39 -20 24 3 34 0 34 -10 0 -7 4 -10 10
-7 5 3 26 -1 45 -11 27 -13 38 -14 49 -4 11 8 20 9 35 0 23 -12 26 -23 11 -50
-8 -15 -5 -21 19 -31 24 -11 31 -21 36 -55 3 -23 12 -50 19 -60 18 -23 1 -53
-26 -46 -28 7 -23 -30 8 -63 31 -34 48 -85 34 -99 -7 -7 -10 -6 -10 2 0 22
-30 12 -36 -12 -3 -13 -17 -33 -30 -45 -13 -11 -24 -27 -24 -35 0 -7 -9 -24
-19 -37 -17 -22 -18 -32 -9 -78 8 -45 7 -55 -8 -65 -9 -7 -14 -18 -11 -23 4
-6 -2 -13 -13 -16 -13 -3 -18 -10 -14 -21 4 -9 1 -16 -6 -16 -7 0 -5 -12 8
-32 25 -43 33 -96 21 -144 -6 -22 -12 -59 -15 -84 -2 -25 -9 -57 -15 -72 -6
-15 -9 -35 -5 -43 3 -9 2 -23 -3 -33 -5 -9 -12 -25 -15 -34 -3 -9 -23 -26 -45
-38 -46 -23 -47 -50 -1 -50 55 0 44 -45 -20 -81 -41 -23 -48 -33 -30 -44 5 -3
12 -32 16 -65 4 -33 11 -60 16 -60 5 0 2 -7 -7 -16 -8 -9 -23 -13 -31 -10 -17
6 -17 4 3 -97 5 -23 2 -29 -16 -34 -12 -3 -21 -13 -21 -24 0 -11 -11 -24 -25
-31 -19 -9 -25 -19 -25 -45 0 -18 5 -33 11 -33 5 0 7 -5 4 -10 -4 -6 -11 -8
-16 -5 -5 4 -9 -1 -9 -9 0 -12 -7 -14 -32 -9 -30 6 -32 5 -19 -10 7 -10 11
-27 7 -41 -5 -19 1 -28 34 -51 22 -15 40 -35 40 -44 0 -9 7 -27 16 -39 9 -13
11 -22 4 -22 -6 0 -8 -10 -4 -26 5 -20 2 -26 -15 -31 -22 -6 -22 -6 -3 -27 11
-11 22 -30 26 -41 3 -11 15 -26 27 -33 25 -16 60 -7 52 14 -3 10 2 14 19 14
39 0 48 17 33 61 -14 38 -14 39 10 39 31 0 39 14 23 40 -11 17 -9 23 15 47
l28 28 17 -22 c14 -18 31 -23 97 -29 49 -4 87 -13 98 -22 14 -12 17 -13 17 -1
1 9 8 6 20 -9 11 -13 24 -21 30 -17 5 3 10 1 10 -4 0 -6 7 -11 15 -11 9 0 20
-11 25 -25 10 -25 34 -33 45 -15 3 6 22 10 41 10 27 0 34 4 34 20 0 11 5 20
10 20 6 0 10 7 10 15 0 8 -4 15 -8 15 -5 0 -7 16 -6 35 2 25 -1 35 -11 35 -18
0 -19 14 -3 43 6 12 10 39 10 60 -2 45 17 57 53 33 14 -9 30 -14 36 -11 5 4
15 3 22 -2 7 -5 33 -10 60 -11 43 -3 48 -1 58 25 6 17 7 29 1 31 -5 1 -1 20 9
42 24 50 24 92 0 107 -23 15 -35 53 -15 53 8 0 11 6 8 15 -4 8 -17 15 -30 15
-15 0 -34 14 -56 41 -24 29 -38 39 -53 35 -26 -6 -60 18 -49 36 12 20 5 66
-17 110 -11 22 -16 37 -10 33 19 -11 12 41 -9 68 -11 14 -20 33 -20 42 0 9 -7
29 -15 45 -8 16 -12 35 -9 43 3 8 -2 17 -11 21 -12 4 -14 10 -6 25 8 14 7 22
-4 31 -18 15 -19 30 -2 30 7 0 18 9 25 20 11 18 10 25 -7 48 l-19 27 25 12
c16 8 33 9 48 3 13 -5 25 -7 27 -4 3 2 17 -2 31 -9 15 -8 24 -16 21 -19 -3 -3
12 -6 33 -7 21 -1 49 -3 63 -4 14 -1 26 3 28 8 5 15 46 28 50 16 2 -6 8 -11
13 -11 4 0 6 7 3 15 -9 22 10 18 31 -5 10 -12 25 -18 33 -15 21 8 47 -17 47
-45 0 -14 4 -28 9 -31 16 -12 -3 -59 -25 -59 -16 0 -18 -2 -7 -14 7 -8 16 -12
21 -9 4 2 7 -3 7 -12 0 -9 -9 -19 -20 -22 -20 -5 -20 -7 -4 -31 16 -24 16 -26
-6 -44 -23 -19 -25 -17 25 -33 10 -3 19 5 26 23 9 24 11 25 20 9 6 -9 14 -15
20 -12 14 9 11 -7 -11 -47 l-20 -37 25 -37 c14 -20 23 -40 20 -44 -3 -4 9 -10
25 -13 16 -4 38 -15 48 -25 16 -16 22 -17 37 -6 15 11 20 9 41 -14 14 -16 23
-21 24 -13 0 11 3 11 15 1 9 -7 15 -22 14 -34 -4 -40 1 -53 25 -66 13 -7 32
-28 42 -46 10 -19 26 -34 35 -34 18 0 32 -47 17 -56 -5 -3 -7 -12 -4 -20 3 -8
0 -11 -8 -8 -7 3 -16 -2 -20 -11 -3 -9 -10 -14 -14 -11 -5 3 -7 -6 -4 -19 2
-14 8 -25 13 -25 18 0 39 -65 30 -95 -4 -17 -4 -40 0 -53 5 -12 6 -22 2 -22
-3 0 0 -6 6 -14 9 -10 9 -15 1 -18 -17 -5 21 -68 41 -68 21 0 43 -48 29 -65
-12 -14 12 -40 38 -40 8 0 20 -15 27 -34 6 -19 18 -37 25 -39 8 -3 34 -18 59
-33 24 -16 48 -26 52 -23 5 3 14 -6 20 -20 7 -14 15 -23 20 -21 4 3 11 0 15
-6 3 -6 2 -14 -4 -18 -6 -3 -13 -18 -17 -34 -6 -21 -3 -28 11 -34 21 -7 50
-43 46 -55 -1 -5 7 -8 17 -8 11 0 31 -15 45 -33 21 -27 25 -43 24 -92 -1 -60
6 -112 16 -122 2 -3 1 -15 -4 -28 -7 -17 -4 -27 10 -40 13 -12 19 -13 22 -4 6
19 28 1 28 -23 0 -15 4 -18 18 -13 39 17 59 16 82 -5 16 -14 21 -23 13 -26 -7
-3 -9 -12 -6 -20 5 -13 8 -13 23 1 12 11 27 14 51 9 63 -12 89 -11 89 2 0 10
6 11 23 5 16 -6 21 -15 19 -33 -2 -20 12 -41 62 -94 37 -37 66 -73 66 -79 0
-5 18 -21 40 -35 22 -14 40 -32 40 -41 0 -9 11 -21 25 -27 14 -7 30 -23 35
-37 5 -14 16 -25 25 -25 8 0 24 -5 35 -12 15 -10 22 -9 38 5 17 16 19 16 35 0
16 -16 18 -16 32 2 8 11 15 29 15 40 0 29 28 65 49 65 17 0 55 32 47 41 -2 2
-6 19 -9 37 -5 25 -3 32 9 32 13 0 12 5 -5 26 -11 14 -18 31 -15 39 3 7 1 16
-5 20 -19 11 -12 27 9 20 16 -5 20 -2 20 15 0 19 1 20 16 6 8 -9 21 -16 27
-16 23 0 57 31 57 51 0 10 4 19 8 19 5 0 6 14 4 31 -4 30 -3 31 25 25 22 -5
38 -1 66 19 31 20 39 22 43 10 4 -8 18 -15 33 -16 14 0 35 -4 46 -9 13 -5 26
-3 36 6 8 7 25 15 38 17 12 2 26 9 30 16 9 14 38 17 64 6 12 -5 17 -3 17 9 0
11 10 15 38 15 20 0 52 2 70 6 27 6 32 4 32 -12 0 -10 -7 -29 -16 -41 -8 -12
-12 -22 -8 -22 3 0 1 -7 -6 -15 -6 -8 -9 -19 -5 -25 5 -7 11 -5 20 7 13 17 15
17 36 -4 15 -15 19 -27 14 -40 -9 -21 -14 -65 -8 -75 6 -13 33 4 33 20 0 13 3
12 16 -4 11 -13 17 -15 20 -6 3 6 12 12 20 12 18 0 18 14 -2 53 -17 32 -16 32
3 15 21 -20 68 -24 78 -8 9 14 25 12 25 -3 0 -7 16 -19 35 -26 29 -10 40 -10
69 4 31 15 37 15 64 1 27 -14 31 -14 43 0 8 10 24 14 46 12 22 -3 33 0 33 9 0
6 6 16 13 20 8 4 16 16 20 25 4 10 13 15 25 11 19 -5 38 20 27 37 -2 4 13 15
35 25 37 17 41 17 65 1 24 -16 28 -16 51 -1 23 15 24 17 9 45 -15 29 -15 30 5
30 22 0 29 35 8 42 -8 3 -5 13 10 33 12 15 22 36 22 46 0 10 5 21 10 24 7 4
-6 25 -30 51 -45 49 -52 81 -18 86 13 2 28 16 37 33 8 17 18 38 23 47 4 10 8
28 8 41 0 14 16 39 40 63 45 44 52 83 24 136 -11 22 -14 45 -10 87 4 31 7 69
8 84 1 22 5 27 22 25 13 -2 36 13 68 45 26 26 52 47 57 47 6 0 8 7 5 15 -4 8
-1 15 6 15 8 0 11 10 7 29 -4 19 -1 33 7 40 16 14 26 70 14 77 -13 9 -9 24 7
24 8 0 15 8 15 18 0 9 7 35 14 57 13 36 18 41 56 47 24 4 46 5 51 3 4 -3 10
-1 14 4 3 6 12 8 20 4 18 -6 19 4 2 38 -16 30 -6 66 20 76 10 4 20 10 23 14 3
5 29 9 58 11 42 2 52 6 52 21 0 10 5 15 10 12 6 -3 10 -1 10 4 0 15 63 14 77
0 9 -9 22 -8 53 5 22 9 54 16 70 16 28 0 30 3 30 35 0 29 -4 35 -21 35 -15 0
-19 5 -15 15 3 9 -1 18 -9 21 -8 4 -15 14 -15 24 0 26 -27 45 -43 32 -7 -6
-22 -11 -32 -12 -11 0 -35 -1 -54 -3 -34 -2 -35 -1 -38 41 -1 23 1 42 5 42 5
0 9 6 9 13 0 7 -11 13 -26 12 -18 0 -26 -6 -25 -17 1 -10 -7 -20 -17 -23 -11
-4 -19 -11 -19 -16 0 -5 -7 -9 -15 -9 -9 0 -12 -6 -8 -15 3 -9 -2 -22 -13 -30
-20 -14 -38 -10 -29 6 4 5 3 14 -1 20 -4 8 -11 4 -19 -11 -9 -16 -22 -23 -43
-24 -30 -1 -31 0 -30 40 2 41 -14 74 -36 74 -6 0 -17 9 -24 20 -12 19 -10 20
30 16 55 -6 70 -10 86 -20 8 -5 20 -2 30 7 9 8 23 12 29 10 17 -6 57 23 44 32
-15 9 -14 26 2 24 25 -4 66 14 72 32 3 10 1 27 -5 39 -11 21 -8 24 23 21 12
-2 17 5 17 23 0 19 6 26 30 31 21 5 28 10 22 18 -21 29 -3 113 22 104 11 -5
14 3 11 36 -1 23 1 44 5 47 4 3 10 17 14 33 5 21 2 29 -11 34 -10 4 -26 16
-36 28 -14 15 -17 16 -13 3 14 -46 -51 -13 -89 46 -12 17 -23 25 -35 21 -9 -3
-28 4 -42 15 -24 18 -26 18 -21 2 4 -18 -31 -42 -63 -42 -8 0 -12 -4 -9 -10 3
-5 1 -10 -4 -10 -6 0 -11 4 -11 10 0 5 -11 12 -24 16 -17 4 -23 12 -23 32 0
15 -3 36 -8 47 -7 16 -3 15 24 -8 21 -17 40 -26 50 -22 9 4 28 9 43 12 16 3
25 10 22 18 -5 13 43 35 77 35 9 0 26 16 38 35 11 19 27 35 35 35 18 0 41 37
41 65 0 15 7 20 25 20 14 0 44 14 67 30 32 23 43 37 43 58 0 29 9 34 27 16 8
-8 16 -4 29 16 16 25 16 28 1 61 -20 40 -21 48 -7 39 22 -14 0 37 -33 72 -26
29 -18 82 17 120 32 34 32 36 4 74 -15 20 -19 32 -12 37 13 8 24 82 12 82 -4
0 -8 9 -8 19 0 11 -5 23 -11 26 -19 12 -32 59 -33 122 -1 49 2 63 15 66 18 5
32 56 20 72 -4 6 -7 26 -6 45 4 92 3 90 33 90 32 0 52 30 52 80 0 22 5 30 18
30 12 0 23 13 32 35 7 19 20 37 27 40 8 2 11 10 8 15 -4 6 -1 17 5 25 18 21 3
35 -36 35 -25 0 -34 4 -30 13 3 6 9 20 12 30 4 9 11 17 16 17 7 0 8 25 4 70
-5 49 -4 70 4 70 6 0 9 4 6 9 -4 5 -3 11 2 13 9 4 42 71 37 76 -2 2 -12 -1
-23 -7 -14 -7 -22 -7 -24 -1 -4 12 -88 -18 -88 -32 0 -4 -11 -8 -24 -8 -14 0
-27 -4 -31 -9 -3 -5 -19 -12 -35 -16 -17 -4 -36 -16 -44 -27 -11 -15 -21 -19
-38 -15 -13 4 -29 2 -37 -2 -16 -10 -81 16 -81 32 0 5 -11 2 -24 -6 -13 -9
-27 -13 -30 -9 -4 3 -17 8 -31 9 -16 3 -25 -2 -30 -16 -3 -11 -15 -23 -26 -26
-15 -5 -17 -10 -9 -20 14 -17 -17 -30 -36 -14 -16 13 -19 33 -4 24 23 -14 7
15 -21 39 -17 14 -25 26 -17 26 10 0 10 2 -1 9 -10 6 -19 3 -31 -12 l-17 -20
-31 21 c-16 12 -39 22 -49 22 -36 0 -33 13 7 32 22 11 37 24 34 30 -3 5 3 12
15 15 23 6 27 24 10 54 -8 15 -7 24 2 35 9 11 9 18 1 26 -9 9 -15 8 -24 -5
-20 -26 -61 -26 -73 1 -5 12 -15 22 -22 22 -16 0 -17 -12 0 -29 10 -10 9 -11
-5 -6 -22 9 -37 -21 -31 -62 5 -28 2 -33 -15 -33 -30 0 -35 -15 -12 -35 24
-22 26 -40 4 -31 -9 4 -22 2 -29 -4 -19 -16 -54 8 -48 31 7 26 -24 36 -45 15
-20 -20 -8 -45 32 -64 24 -12 26 -16 13 -30 -8 -10 -24 -55 -35 -101 -12 -47
-27 -88 -33 -92 -8 -5 -8 -8 0 -13 17 -11 13 -29 -5 -22 -12 5 -14 1 -9 -15 7
-23 -10 -66 -34 -85 -12 -9 -10 -17 12 -46 27 -34 37 -88 17 -88 -5 0 -10 6
-10 13 0 6 -9 1 -20 -13 -11 -14 -20 -20 -20 -15 0 6 -4 4 -8 -3 -5 -7 -30
-14 -55 -15 -48 -2 -48 -1 -30 -44 2 -6 -5 -14 -16 -18 -12 -3 -19 -10 -16
-15 9 -15 -29 -17 -52 -3 -11 8 -44 16 -73 18 -28 1 -54 6 -58 9 -13 14 -29
95 -19 105 12 12 -1 71 -18 77 -7 3 -24 6 -39 8 -14 1 -29 5 -32 9 -4 3 -27
-9 -52 -28 -51 -40 -61 -41 -109 -18 -34 16 -35 17 -13 25 l23 8 -27 25 c-25
24 -37 53 -15 39 8 -4 8 0 0 15 -7 11 -16 21 -20 21 -5 0 -12 18 -16 41 -5 30
-14 43 -33 52 -20 9 -26 9 -30 -1 -8 -24 -55 -13 -83 21 -24 27 -27 29 -22 10
3 -14 1 -23 -6 -23 -7 0 -9 -4 -6 -10 3 -5 2 -10 -3 -10 -5 0 -12 -9 -15 -20
-5 -20 -47 -29 -47 -10 0 6 -13 9 -28 8 -15 -1 -33 1 -40 6 -7 4 -12 2 -12 -6
-1 -9 -5 -7 -14 5 -18 24 -92 24 -107 -1 -18 -28 -69 -17 -69 14 0 13 0 27 -1
32 -3 28 -76 67 -96 50 -8 -6 -20 -4 -38 8 -25 16 -28 16 -36 2 -7 -13 -16
-15 -37 -8 -28 7 -60 -2 -73 -23 -10 -14 -69 21 -69 42 0 10 -6 24 -14 30 -12
10 -13 8 -9 -10 6 -22 5 -22 -61 -15 -46 5 -73 3 -82 -5 -10 -8 -22 -8 -45 0
-38 13 -45 10 -54 -26 -12 -52 -31 -70 -82 -78 -26 -4 -52 -14 -58 -22 -9 -13
-17 -13 -56 -2 -48 14 -46 13 -70 4 -12 -4 -24 4 -40 26 -15 22 -19 34 -11 37
9 3 9 9 0 25 -6 12 -11 36 -9 53 2 27 -2 33 -28 42 -17 6 -31 16 -31 22 0 6
-18 30 -41 55 -22 24 -38 48 -35 53 8 13 -23 39 -56 47 -26 7 -26 7 -12 41 13
31 13 34 -7 44 -11 7 -18 14 -16 17 3 2 -2 13 -11 23 -54 59 -95 131 -83 143
8 8 6 16 -6 29 -12 13 -13 22 -6 29 8 8 8 20 1 41 -8 21 -7 33 1 41 6 6 11 21
11 33 0 13 5 26 11 30 6 3 8 16 5 27 -3 13 2 29 13 42 23 25 32 73 16 83 -24
14 -43 66 -34 91 6 16 4 38 -8 73 -18 48 -18 50 2 64 11 8 25 12 31 10 7 -3
22 6 35 20 12 13 29 24 36 24 11 0 11 7 -2 36 -13 31 -13 40 0 77 13 37 12 44
-1 66 -9 13 -18 50 -21 82 l-5 58 54 -2 c52 -2 53 -2 64 33 6 19 16 36 22 38
7 2 8 11 2 28 -10 26 -10 27 38 24 26 -1 35 3 39 19 4 16 9 18 29 11 l24 -10
-16 32 c-9 18 -34 49 -55 70 -33 32 -38 43 -32 68 3 20 1 30 -6 30 -7 0 -9 -4
-6 -10 8 -12 -25 -13 -44 -1 -12 8 -13 16 -4 46 7 20 9 43 6 51 -3 8 0 14 6
14 13 0 14 49 1 70 -5 8 -6 17 -2 20 4 3 15 26 24 52 16 46 16 48 -3 58 -10 6
-19 8 -19 4 0 -4 -11 3 -25 16 -15 15 -22 27 -16 33 6 6 2 31 -10 65 -21 61
-24 98 -9 107 6 3 10 17 10 31 0 14 4 22 10 19 6 -3 10 -2 10 4 0 5 8 12 19
16 11 3 21 19 25 36 4 24 10 30 22 25 12 -5 15 -2 11 13 -4 15 2 20 29 26 24
4 34 11 34 25 0 22 22 39 28 22 2 -7 26 -12 61 -12 44 0 62 -4 75 -19 10 -11
33 -27 52 -36 45 -21 75 -5 67 37 -6 29 20 68 32 48 3 -5 18 -10 31 -10 l26 0
-23 28 c-35 42 -88 64 -127 53 -22 -7 -34 -6 -39 2 -3 6 -2 12 4 14 18 6 -10
64 -38 78 -13 7 -29 11 -36 8 -7 -3 -13 2 -13 12 0 12 -5 15 -22 9 -12 -4 -39
-7 -60 -7 -30 0 -38 -4 -38 -18 0 -17 -39 -47 -50 -38 -3 2 -6 -6 -8 -18 -2
-13 -7 -23 -12 -23 -4 0 -10 -9 -13 -21 -3 -11 -19 -25 -36 -32 -20 -7 -31
-18 -31 -30 0 -10 -9 -31 -21 -45 -13 -17 -18 -34 -14 -49 6 -26 -8 -35 -59
-37 -17 -1 -44 -10 -59 -20 -28 -19 -28 -19 -53 5 -23 21 -27 22 -60 10 -32
-12 -39 -11 -63 7 -15 10 -45 29 -68 40 -35 18 -42 19 -47 7 -8 -22 -33 -18
-39 5 -3 11 -10 20 -16 20 -6 0 -11 -9 -11 -20 0 -16 -7 -20 -35 -20 -21 0
-35 -5 -36 -12 0 -7 -13 -23 -28 -35 -25 -20 -31 -21 -41 -8 -10 12 -15 10
-34 -12 -12 -14 -30 -24 -39 -22 -16 4 -16 6 -1 34 8 16 12 40 9 52 -7 28 19
32 46 7 17 -15 18 -15 17 7 -1 13 -6 30 -11 37 -13 17 -38 15 -31 -3 4 -10 0
-15 -11 -15 -10 0 -14 5 -9 13 3 6 -8 -3 -26 -21 -26 -27 -30 -37 -25 -63 9
-40 -26 -82 -60 -73 -13 3 -25 1 -29 -4 -8 -13 -97 17 -94 32 1 6 -3 21 -10
34 -7 12 -10 22 -6 22 3 0 -6 14 -21 31 -28 34 -30 66 -2 61 26 -4 23 54 -3
68 -11 6 -20 17 -20 24 0 8 -6 19 -14 25 -8 7 -18 25 -21 41 -4 16 -20 41 -36
54 -31 26 -63 89 -52 100 4 3 0 6 -7 6 -16 0 -39 30 -40 51 0 8 -13 28 -30 44
-16 16 -28 31 -25 33 7 8 -24 60 -45 75 -12 9 -19 25 -19 48 -1 57 3 79 13 79
6 0 5 5 -2 12 -18 18 -15 28 8 28 13 0 20 7 20 20 0 13 5 18 15 14 8 -4 15 -1
15 5 0 6 14 17 30 26 17 9 30 24 30 34 0 22 64 66 92 64 10 -1 16 2 13 8 -4 5
1 12 9 15 9 3 16 13 16 21 0 13 9 15 45 10 41 -6 47 -4 55 16 6 12 15 30 22
39 10 13 10 20 1 29 -9 9 -11 7 -6 -10 5 -19 1 -21 -33 -22 -123 -3 -183 -15
-192 -38 -7 -19 -22 -31 -41 -31 -8 0 -11 6 -7 16 3 8 1 24 -4 34 -12 22 6 60
26 60 7 0 14 7 18 15 3 10 19 15 48 15 32 0 39 3 28 10 -10 6 -11 10 -2 10 6
0 12 5 12 11 0 5 -5 7 -11 3 -8 -4 -8 -1 -1 13 15 28 0 47 -32 39 -19 -5 -26
-13 -26 -31 0 -18 -5 -25 -19 -25 -13 0 -20 -9 -24 -30 -5 -20 -12 -30 -25
-30 -18 0 -60 36 -51 44 17 15 82 37 94 32 19 -7 19 22 0 48 -10 14 -12 23 -4
32 7 9 3 19 -14 38 l-24 25 1 -49z m-149 -560 c3 -5 -1 -10 -9 -10 -8 0 -18 5
-21 10 -3 6 1 10 9 10 8 0 18 -4 21 -10z m-730 -600 c3 -5 1 -10 -4 -10 -6 0
-11 5 -11 10 0 6 2 10 4 10 3 0 8 -4 11 -10z m1995 -1424 c0 -2 -9 -6 -20 -9
-11 -3 -18 -1 -14 4 5 9 34 13 34 5z m2650 -980 c0 -2 3 -11 6 -20 7 -18 -12
-21 -35 -7 -16 10 -6 31 15 31 8 0 14 -2 14 -4z m480 -1597 c0 -6 -4 -7 -10
-4 -5 3 -10 11 -10 16 0 6 5 7 10 4 6 -3 10 -11 10 -16z m-324 -996 c-6 -15
-9 -15 -16 -3 -6 9 -5 17 3 22 16 10 21 2 13 -19z m-236 -142 c0 -5 -13 -14
-30 -20 -23 -8 -30 -7 -30 3 0 7 3 16 7 19 10 10 53 8 53 -2z m25 -59 c-8 -8
-25 10 -19 20 4 6 9 5 15 -3 4 -7 6 -15 4 -17z m-970 -1003 c11 -17 -1 -21
-15 -4 -8 9 -8 15 -2 15 6 0 14 -5 17 -11z m57 -96 c20 -18 23 -38 8 -48 -8
-5 -40 43 -40 60 0 10 13 5 32 -12z m-1566 -24 c5 -8 9 -8 14 1 5 8 10 9 14 2
3 -6 -3 -13 -13 -17 -27 -8 -15 -35 15 -35 17 0 22 4 18 15 -4 8 -2 15 4 15 5
0 12 -9 15 -20 5 -19 -3 -24 -30 -21 -7 1 -13 -3 -13 -9 0 -5 -16 0 -35 12
-37 25 -42 37 -23 56 15 15 25 15 34 1z m116 -71 c-6 -6 -16 -7 -22 -3 -9 6
-9 9 1 16 17 10 34 0 21 -13z m-42 -18 c0 -5 -7 -10 -15 -10 -8 0 -15 5 -15
10 0 6 7 10 15 10 8 0 15 -4 15 -10z m1465 -30 c3 -5 -1 -10 -9 -10 -9 0 -16
5 -16 10 0 6 4 10 9 10 6 0 13 -4 16 -10z m-25 -40 c0 -5 -7 -7 -15 -4 -8 4
-15 8 -15 10 0 2 7 4 15 4 8 0 15 -4 15 -10z m90 -79 c15 -28 13 -33 -10 -21
-11 6 -20 17 -20 25 0 21 17 18 30 -4z m-720 -58 c0 -40 -30 -23 -44 25 -7 21
-6 21 18 11 17 -8 26 -20 26 -36z m-656 -8 c3 -8 1 -15 -4 -15 -6 0 -10 7 -10
15 0 8 2 15 4 15 2 0 6 -7 10 -15z m516 -6 c0 -5 -4 -9 -10 -9 -5 0 -10 7 -10
16 0 8 5 12 10 9 6 -3 10 -10 10 -16z m57 -84 c9 -25 -2 -27 -28 -6 l-24 20
23 1 c12 0 25 -7 29 -15z"/>
<path d="M9770 14177 c0 -19 -34 -37 -51 -26 -29 18 -39 10 -39 -31 0 -27 -4
-40 -12 -38 -7 1 -23 -1 -35 -6 -12 -4 -31 -2 -42 4 -29 15 -57 -15 -53 -54 3
-21 6 -26 12 -16 13 21 50 -16 50 -49 0 -14 4 -32 9 -40 7 -11 11 -9 20 8 9
16 21 21 51 21 36 0 40 3 40 25 0 17 4 23 14 19 9 -3 16 4 20 21 5 20 11 25
26 20 25 -8 46 27 26 44 -23 20 -26 50 -5 56 22 7 25 25 7 43 -16 16 -38 15
-38 -1z"/>
<path d="M9103 14123 c1 -23 21 -31 32 -13 3 6 0 10 -9 10 -8 0 -16 6 -19 13
-3 6 -4 2 -4 -10z"/>
<path d="M9355 14080 c-3 -5 3 -10 14 -10 10 0 28 -3 38 -6 10 -3 7 2 -7 10
-30 18 -37 19 -45 6z"/>
<path d="M9485 14070 c-3 -5 3 -10 14 -10 12 0 21 5 21 10 0 6 -6 10 -14 10
-8 0 -18 -4 -21 -10z"/>
<path d="M9270 14060 c0 -5 7 -7 15 -4 8 4 15 8 15 10 0 2 -7 4 -15 4 -8 0
-15 -4 -15 -10z"/>
<path d="M9620 13867 c0 -14 -4 -28 -9 -31 -5 -3 -7 -15 -4 -25 4 -15 -1 -20
-23 -23 -32 -4 -46 -28 -16 -28 12 0 30 -14 43 -31 l21 -30 21 33 c20 33 20
33 28 10 5 -13 6 -28 3 -34 -3 -5 2 -15 12 -22 16 -12 16 -14 -5 -35 -16 -16
-20 -26 -12 -34 7 -7 15 -6 25 3 9 7 29 10 46 8 34 -5 54 12 64 55 5 22 11 27
25 22 11 -3 22 -1 26 5 3 5 15 10 27 10 19 0 19 2 5 23 -8 12 -22 22 -32 22
-10 0 -26 16 -36 35 -13 23 -19 28 -19 16 0 -12 -5 -16 -15 -12 -9 3 -19 -3
-25 -15 -6 -11 -14 -17 -18 -15 -5 3 -14 1 -22 -4 -18 -11 -50 29 -57 75 -3
19 -9 35 -13 35 -5 0 -15 3 -24 6 -12 5 -16 0 -16 -19z"/>
<path d="M9974 13755 c5 -18 2 -25 -9 -25 -20 0 -19 -7 7 -38 12 -16 18 -19
15 -9 -4 11 0 21 13 29 25 16 25 30 2 51 -26 24 -35 21 -28 -8z"/>
<path d="M9913 13753 c9 -9 19 -14 23 -11 10 10 -6 28 -24 28 -15 0 -15 -1 1
-17z"/>
<path d="M7323 13686 c-18 -6 -43 -22 -57 -35 -13 -13 -29 -20 -34 -17 -16 10
-41 -4 -36 -19 6 -15 -31 -39 -46 -30 -13 8 -12 3 0 -31 8 -20 7 -32 -5 -50
-8 -13 -13 -24 -9 -24 4 0 1 -7 -6 -15 -7 -8 -22 -15 -33 -15 -16 0 -18 -3 -9
-12 19 -19 15 -51 -5 -44 -14 6 -14 4 2 -14 14 -15 20 -37 20 -69 0 -27 6 -55
13 -64 9 -11 10 -17 2 -22 -6 -4 -8 -14 -5 -24 4 -9 8 -25 9 -36 1 -14 7 -19
21 -17 11 2 23 8 26 14 3 5 42 11 85 12 44 1 85 5 91 9 6 4 18 4 27 1 10 -4
18 0 22 10 3 9 11 13 18 9 24 -16 76 -30 76 -21 0 5 5 6 10 3 6 -3 13 1 16 9
4 11 11 13 22 7 28 -16 72 50 72 107 0 21 5 43 10 48 7 7 4 16 -10 29 -21 19
-27 69 -10 80 18 11 10 31 -12 32 -13 1 -30 11 -40 23 -9 11 -23 20 -31 20 -8
0 -20 7 -27 15 -7 8 -21 15 -30 15 -38 0 -46 9 -42 51 3 28 -1 46 -13 59 -20
22 -35 23 -82 6z"/>
<path d="M8890 13671 c0 -34 15 -42 23 -11 3 10 -1 24 -9 31 -11 9 -14 6 -14
-20z"/>
<path d="M7586 13192 c-3 -3 -6 -12 -6 -21 0 -15 -18 -20 -79 -21 -21 0 -23
-12 -3 -16 44 -9 54 -18 50 -45 -3 -16 1 -30 7 -33 6 -2 12 -20 13 -39 1 -26
-3 -36 -17 -40 -11 -3 -22 -17 -26 -35 -3 -17 -13 -33 -21 -36 -26 -10 -14
-24 25 -31 22 -4 45 -13 52 -21 15 -18 40 -18 33 0 -3 9 3 20 15 28 12 7 21
21 21 30 0 10 5 18 10 18 16 0 11 27 -6 34 -15 6 -15 8 0 31 9 13 16 33 16 45
0 13 7 20 20 20 11 0 20 5 20 10 0 6 8 10 18 10 15 1 15 2 -3 13 -11 7 -20 19
-20 27 0 15 -110 82 -119 72z"/>
<path d="M7418 13173 c7 -3 16 -2 19 1 4 3 -2 6 -13 5 -11 0 -14 -3 -6 -6z"/>
<path d="M7160 13085 c0 -19 -29 -32 -39 -18 -9 15 -51 -3 -51 -22 0 -9 9 -15
23 -15 13 0 32 -10 43 -22 17 -19 17 -21 2 -15 -22 8 -22 3 -2 -28 9 -14 13
-32 10 -42 -4 -9 -2 -19 4 -23 6 -4 13 -15 14 -25 4 -27 23 -30 31 -6 3 12 15
21 25 21 28 0 34 18 16 45 -9 13 -13 30 -11 37 4 10 -3 14 -22 13 -23 0 -28 4
-26 23 2 12 -2 22 -7 22 -6 0 -10 7 -10 15 0 8 5 15 10 15 6 0 10 6 10 14 0 8
-4 18 -10 21 -5 3 -10 -1 -10 -10z"/>
<path d="M10719 13048 c16 -21 21 -87 8 -108 -10 -17 7 -70 23 -70 6 0 15 12
21 28 6 15 15 35 20 45 10 19 -8 57 -27 57 -7 0 -11 7 -10 16 0 9 -10 23 -24
32 -23 16 -24 16 -11 0z"/>
<path d="M7410 12908 c-25 -11 -25 -11 -2 -15 12 -3 22 -11 22 -19 0 -16 26
-19 35 -4 3 6 1 10 -4 10 -6 0 -11 9 -11 20 0 23 -5 23 -40 8z"/>
<path d="M7270 12890 c-9 -6 -10 -10 -3 -10 13 0 43 -54 44 -79 0 -9 3 -11 5
-4 3 7 12 9 20 6 9 -3 14 2 14 16 0 12 -4 21 -9 21 -5 0 -11 9 -14 20 -3 13 0
20 8 20 8 0 17 5 20 10 8 13 -65 13 -85 0z"/>
<path d="M8214 12662 c4 -7 2 -12 -3 -12 -14 0 -14 -47 0 -56 6 -3 21 3 32 15
19 18 19 21 4 21 -9 0 -17 6 -17 14 0 8 -5 18 -12 22 -7 4 -8 3 -4 -4z"/>
<path d="M10250 12498 c-12 -22 -12 -22 6 -6 10 10 15 20 12 24 -4 3 -12 -5
-18 -18z"/>
<path d="M10385 12120 c3 -5 11 -10 16 -10 6 0 7 5 4 10 -3 6 -11 10 -16 10
-6 0 -7 -4 -4 -10z"/>
<path d="M7995 11955 c-5 -2 -22 -6 -37 -9 -20 -5 -32 -17 -42 -41 -8 -19 -22
-35 -30 -35 -8 0 -28 -11 -44 -25 -25 -21 -34 -24 -57 -15 -37 14 -42 13 -49
-14 -3 -13 -16 -26 -28 -29 -17 -5 -20 -9 -12 -17 12 -12 -3 -70 -18 -70 -4 0
-8 -7 -8 -15 0 -22 -18 -18 -25 5 -5 15 -15 20 -40 20 -19 0 -37 -5 -40 -10
-4 -6 -15 -8 -25 -5 -11 3 -20 -1 -24 -11 -4 -10 -13 -14 -26 -11 -17 4 -20 0
-22 -31 -1 -21 -2 -49 -1 -64 1 -17 -4 -28 -12 -28 -12 0 -29 -58 -30 -100 0
-8 -10 -16 -23 -18 -12 -2 -20 -8 -17 -13 9 -14 -19 -11 -34 4 -11 10 -12 8
-7 -8 5 -16 0 -23 -25 -32 -25 -10 -29 -16 -24 -34 6 -19 4 -21 -19 -17 -21 4
-27 1 -32 -18 -3 -12 -3 -28 1 -33 10 -18 -48 8 -62 26 -19 25 -16 6 8 -46 12
-25 25 -55 29 -66 4 -11 17 -43 28 -71 19 -49 19 -51 1 -73 -11 -13 -19 -31
-19 -42 0 -24 -42 -69 -65 -69 -12 0 -16 -6 -12 -20 3 -10 -1 -24 -8 -30 -7
-6 -16 -22 -19 -35 -3 -13 -15 -29 -26 -35 -16 -9 -20 -21 -20 -63 0 -29 -4
-57 -8 -62 -14 -16 -33 -92 -26 -108 9 -24 44 -9 44 19 0 17 8 28 28 35 56 23
78 34 96 52 11 9 26 17 34 17 8 0 12 6 8 15 -3 9 0 15 9 15 18 0 16 46 -2 62
-7 6 -13 24 -13 40 0 30 3 31 58 11 6 -3 12 -1 12 5 0 5 16 17 35 26 19 9 35
21 35 26 0 15 26 12 40 -4 13 -16 40 -11 40 8 0 8 13 11 38 9 67 -7 84 -13 78
-28 -3 -9 0 -15 8 -15 8 0 16 5 18 11 6 17 37 -1 40 -24 2 -14 11 -21 30 -21
14 -1 24 2 22 6 -3 4 4 8 15 8 12 0 21 5 21 12 0 6 10 2 23 -10 13 -12 27 -19
31 -15 4 4 20 -6 34 -23 19 -23 44 -36 87 -47 33 -9 69 -15 80 -14 12 1 24 -7
30 -20 9 -22 56 -48 85 -48 8 0 19 -10 25 -22 11 -27 18 -28 35 -8 7 8 20 15
30 15 10 0 23 7 31 16 7 8 26 22 42 30 23 12 28 20 23 39 -5 18 -1 25 16 31
13 4 31 7 41 5 30 -4 87 19 87 36 0 10 6 14 19 10 10 -2 25 0 34 4 21 12 44 2
52 -24 6 -21 7 -21 20 8 8 18 10 36 5 46 -14 24 19 139 39 139 6 0 20 10 31
23 16 16 20 30 15 53 -5 29 -4 30 24 26 32 -4 29 -12 46 99 2 14 -1 31 -8 38
-8 8 -8 14 1 23 7 7 12 22 12 34 0 21 -2 22 -31 12 -34 -12 -43 -6 -53 35 -7
30 -4 32 24 17 25 -13 36 5 19 28 -13 16 -12 16 6 1 11 -9 40 -19 65 -22 25
-3 38 -3 29 -1 -19 6 -20 53 -2 76 10 11 9 19 -3 36 -8 12 -12 27 -9 33 4 5 1
24 -5 40 -10 23 -10 33 -1 42 12 12 15 50 4 60 -3 4 -12 -1 -19 -11 -12 -15
-13 -15 -14 -1 0 9 -8 20 -17 23 -12 5 -13 10 -6 17 8 8 7 21 -3 45 -8 19 -12
39 -9 44 4 6 0 10 -8 10 -8 0 -32 14 -53 31 -35 27 -39 29 -45 12 -4 -13 -18
-19 -50 -21 -96 -5 -163 -1 -183 13 -11 8 -31 15 -44 15 -12 0 -34 11 -48 25
-27 27 -50 32 -56 13 -3 -9 -9 -8 -22 5 -24 24 -66 33 -76 16 -12 -18 -56 3
-65 30 -6 19 -31 26 -60 16z m635 -635 c0 -5 -2 -10 -4 -10 -3 0 -8 5 -11 10
-3 6 -1 10 4 10 6 0 11 -4 11 -10z"/>
<path d="M8180 10380 c-11 -7 -12 -12 -3 -21 16 -16 32 -8 24 13 -4 12 -10 15
-21 8z"/>
<path d="M11950 10366 c0 -2 7 -9 15 -16 12 -10 15 -10 15 4 0 9 -7 16 -15 16
-8 0 -15 -2 -15 -4z"/>
<path d="M8141 10257 c2 -1 12 -9 22 -16 14 -12 17 -11 17 3 0 10 -8 16 -22
16 -12 0 -19 -1 -17 -3z"/>
<path d="M13618 9099 c3 -17 0 -29 -7 -29 -7 0 -9 -9 -5 -25 3 -14 3 -36 0
-50 -5 -21 -10 -24 -25 -15 -16 8 -21 5 -31 -20 -6 -16 -9 -34 -5 -39 9 -16
-11 -13 -28 3 -12 13 -18 12 -46 -5 -41 -25 -35 -42 16 -49 52 -8 92 -34 105
-71 5 -16 16 -29 24 -29 8 0 14 -9 14 -20 0 -11 7 -20 15 -20 8 0 24 -14 34
-31 15 -25 17 -38 10 -57 -15 -38 1 -46 65 -32 31 6 60 8 66 5 17 -11 38 13
33 38 -3 13 2 29 11 36 23 19 10 38 -24 33 -17 -2 -30 -8 -30 -13 0 -5 -7 -9
-15 -9 -21 0 -19 9 6 29 21 17 21 18 3 35 -25 26 -19 127 10 149 7 6 5 7 -6 4
-10 -4 -18 1 -21 14 -3 10 -18 24 -34 31 -27 11 -28 12 -5 16 19 3 23 8 18 25
-3 13 1 25 12 33 16 12 15 13 -5 14 -13 0 -23 -4 -23 -10 0 -14 -36 -13 -63 2
-28 14 -46 38 -47 59 0 9 -6 19 -13 22 -10 4 -12 -3 -9 -24z"/>
<path d="M13216 8994 c-4 -10 -1 -24 7 -32 12 -11 15 -11 20 0 2 8 -1 22 -8
31 -12 17 -13 17 -19 1z"/>
<path d="M13810 8955 c0 -8 7 -15 15 -15 8 0 15 4 15 9 0 5 -7 11 -15 15 -9 3
-15 0 -15 -9z"/>
<path d="M13315 8909 c11 -13 21 -26 22 -27 1 -2 16 -1 34 3 22 5 28 10 18 16
-8 5 -16 3 -21 -4 -5 -8 -17 -5 -40 12 l-33 24 20 -24z"/>
<path d="M13476 8638 c-25 -29 -26 -33 -11 -44 20 -15 12 -54 -11 -54 -8 0
-14 -7 -14 -16 0 -9 -12 -30 -26 -47 -25 -30 -25 -31 -7 -45 17 -13 17 -14 -1
-28 -11 -8 -16 -14 -12 -14 4 0 -1 -15 -11 -33 -22 -36 -14 -72 17 -82 24 -8
33 -57 14 -71 -20 -16 -36 -73 -28 -106 4 -21 2 -28 -10 -28 -9 0 -16 -4 -16
-10 0 -5 9 -10 20 -10 11 0 20 -5 20 -11 0 -6 -9 -13 -20 -16 -11 -3 -20 -14
-20 -24 0 -11 -5 -19 -12 -19 -6 0 -4 -8 6 -19 10 -11 15 -24 12 -30 -4 -5 7
-18 24 -28 17 -10 30 -24 29 -33 -3 -30 1 -38 33 -69 18 -18 42 -31 56 -31 14
0 31 -8 38 -17 9 -12 13 -14 14 -5 0 8 -18 31 -41 53 -22 21 -36 39 -30 39 6
0 11 9 11 20 0 13 7 20 19 20 10 0 33 3 50 6 20 4 31 3 31 -5 0 -6 -8 -11 -17
-11 -13 0 -10 -7 12 -30 35 -37 42 -37 57 -2 7 15 13 29 15 31 2 3 29 6 60 8
31 2 58 5 60 7 9 9 -41 77 -53 72 -7 -3 -15 -2 -18 2 -2 4 -19 9 -38 10 -32 2
-81 43 -60 50 6 2 6 13 0 30 -10 25 -7 31 22 60 24 25 31 38 26 55 -7 24 -29
96 -42 137 -6 21 -5 23 7 13 12 -10 20 -7 42 13 15 14 27 31 27 38 0 8 6 19
14 25 9 8 12 24 9 50 -3 24 0 43 8 52 31 33 36 53 19 70 -21 20 -60 8 -60 -18
0 -14 -9 -18 -44 -19 -30 -1 -47 3 -50 12 -7 20 -33 17 -45 -3 -8 -15 -12 -16
-22 -5 -10 9 -10 12 -1 12 7 0 9 10 5 30 -5 25 -3 29 11 24 12 -4 16 0 16 15
0 12 -4 21 -10 21 -5 0 -17 9 -28 20 -18 19 -18 19 -46 -12z m119 -628 c3 -5
1 -10 -4 -10 -6 0 -11 5 -11 10 0 6 2 10 4 10 3 0 8 -4 11 -10z"/>
<path d="M9170 8035 c12 -15 30 -12 30 6 0 5 -10 9 -21 9 -18 0 -19 -2 -9 -15z"/>
<path d="M8360 7121 c0 -14 5 -19 15 -14 17 6 15 25 -3 31 -7 2 -12 -5 -12
-17z"/>
<path d="M11425 6450 c-8 -13 15 -24 27 -12 6 6 4 11 -6 15 -8 3 -18 2 -21 -3z"/>
<path d="M10052 6438 c6 -18 25 -20 31 -3 5 10 0 15 -14 15 -12 0 -19 -5 -17
-12z"/>
<path d="M11480 6430 c1 -24 27 -53 35 -40 4 7 -2 22 -14 33 -15 16 -21 18
-21 7z"/>
<path d="M11560 6396 c0 -9 30 -14 35 -6 4 6 -3 10 -14 10 -12 0 -21 -2 -21
-4z"/>
<path d="M10170 6355 c0 -8 2 -15 4 -15 2 0 6 7 10 15 3 8 1 15 -4 15 -6 0
-10 -7 -10 -15z"/>
</g>
</svg>
