<svg version="1" xmlns="http://www.w3.org/2000/svg" width="888.655" height="562.91" viewBox="0 0 666.491 422.183"><g fill="#222"><path d="M611.5 2.39c.4 2.2.2 3.1-1 3.6-1.2.4-1.3 1-.6 2.4.8 1.5.4 2.3-2 4.1-1.7 1.3-3.7 2-4.5 1.7-.8-.3-1.2-.2-.9.4 1 1.6-1.8 5-3.7 4.4-3.2-1-13.5 3-14 5.4-.2.8-2.1 2-4.3 2.6-2.7.8-4.1 1.8-4.5 3.3-.3 1.2-1.8 3.1-3.3 4.3-1.8 1.5-2.6 2.8-2.2 4 .4 1.2-.7 2.8-3.8 5.3-3.8 3.1-4.5 3.4-6.6 2.2-3.7-1.9-7.3 0-10.5 5.7-1.8 3.2-5 6.6-9 9.5-3.3 2.4-6.2 4.8-6.3 5.1-.3.8 4.5 3.2 6.3 3.2.7 0 1.4-.6 1.6-1.2.8-2.2 5.8 1.9 5.8 4.7 0 1.6.6 2.5 1.5 2.5 1.8 0 1.9.8.3 2.3-1.4 1.4-2.4 1.4-5.2.2-1.1-.5-2.5-.4-3.5.3-.9.7-2.7 1.7-4.1 2.3-1.4.6-3.5 1.6-4.8 2.2-3 1.4-7.8-.2-7.4-2.5.1-.9-1.2-2.8-3-4.2-1.8-1.4-2.7-2.6-2-2.6.6 0 1.2-.4 1.2-.8 0-.5-1.6-.9-3.5-.9-2.2 0-4-.6-4.8-1.6-1.1-1.6-1.2-1.5-1.3.8-.1 1.4.2 2.5.6 2.5.4 0 1 .9 1.3 2.1.3 1.2 1 1.9 1.5 1.5.5-.3.9.1.9.9 0 .9-1 1.5-2.1 1.5-1.7 0-1.8-.2-.6-1 1.2-.7 1.1-1-.5-1.6-1.1-.5-2-.3-2.3.4-.5 1.5-3.9 1.6-4.7.1-.4-.6-2.6-.9-4.8-.7-3.3.2-4.3-.1-4.5-1.5-.2-.9-1.2-1.7-2.2-1.7-1.3 0-1.7.5-1.3 1.5.4 1.3.1 1.4-1.8.6-5.5-2.2-6.6-2.5-9.6-2.6-1.8-.1-3.3.2-3.3.7 0 .5-1.5.8-3.2.6-2.7-.2-3.4.1-3.6 1.8-.4 2.7 4.4 6.4 8.7 6.7 1.8.1 2.6.6 2.2 1.2-.4.5-1.1 1.8-1.4 2.8-.6 1.6-.3 1.8 2.6 1.2 4.9-1 7.7-2.6 7.7-4.7 0-2.3 5.5-2.5 6.8-.3.7 1.3 1.4 1.4 3.6.5 4.1-1.5 6.1-1.2 9 1.5 1.4 1.3 2.7 2.1 2.7 1.7.1-.4.5 1.1.9 3.3.4 2.2.7 4.1.6 4.2 0 .1-2.1-.8-4.4-1.9-2.4-1-4.6-1.7-4.8-1.5-.3.3.3 1.9 1.4 3.6 1.5 2.4 2.1 2.8 3.1 1.8 1.1-.9 1.4-.9 1.8.1.3.6.9.9 1.4.6.6-.3 1.9.2 2.9 1.1 1.8 1.6 3.8.6 2.5-1.4-.3-.6 1.1-1.3 3.1-1.7 3.6-.7 8.2-4.1 7.6-5.7-.7-2.1 2 .8 4.9 5.3 3.3 5.1 3.8 5.4 7.7 4.4 1.5-.4 2.2-1.4 2.2-3 0-1.7.4-2.2 1.5-1.8.8.4 1.5 1.6 1.5 2.9 0 1.6.7 2.5 2.5 2.9 1.4.4 3.4 1.5 4.5 2.6s3 2.1 4.2 2.2c1.3.2 3.7 1.8 5.4 3.5 2.7 2.8 2.9 3.2 1.3 3.6-1 .3-2.3-.1-2.9-.8-1.4-1.7-5.8-.7-6.6 1.7-.4 1.2-1.1 1.7-2.1 1.4-.9-.4-2.1-.2-2.7.2-.6.5-2.3 1.2-3.8 1.6-2 .4-2.5 1.1-2.1 2.6.8 3.1-2.4 7.3-5 6.6-1.2-.3-2.8.1-3.7.8-1.7 1.6-7.9 2.6-8.6 1.5-.2-.4-1.7-.1-3.2.7-3.2 1.6-5.2 1.8-5.2.4 0-1.6-2.7-1.2-7 1-2.1 1.1-4.5 1.7-5.3 1.4-1.1-.4-1.3.1-1 2 .4 1.8 0 2.8-1.1 3.2-1.4.5-1.4 1-.1 4.1 2 4.7 1.9 6-.5 6.8-2.7.8-6-1.1-6-3.6 0-1.2-.5-1.9-1.2-1.6-.8.2-1.3 2.3-1.4 5.3 0 2.7-.4 5.9-.8 7.1-.6 2-.4 2.3 1.6 2.3 1.3 0 3.3-.7 4.5-1.5 1.9-1.3 2.2-1.3 2.7 0 1.1 3 4.7 3.3 7.5.7 1.4-1.3 2.6-2.9 2.6-3.5 0-.7 1.4-1.4 3-1.5 1.7-.2 3.6-.9 4.4-1.5 1.1-.9 1.9-.5 3.8 2 2.2 2.8 2.7 3.1 4.9 2.1 1.7-.8 2.7-.8 3.8.1 1 .8 1.6.9 2.1.1.3-.5.1-1-.4-1-.6 0-1.1-.7-1.1-1.5s-.5-2.3-1.1-3.3c-.9-1.5-.7-2.3 1.3-4.5 1.4-1.5 3.5-2.7 4.6-2.7 1.1 0 2.4-.5 2.7-1 .4-.6 1.2-.7 1.8-.3 2.7 1.6 8.6 1.1 10.4-.9 2.7-3 7-5 7.9-3.7.9 1.6 4.5-4.7 3.7-6.7-.5-1.5-.3-1.5 2.5 0 1.7.9 3.5 2.2 3.9 3 1 1.6 6.1 2.7 6.9 1.4.6-.9-2.6-4.2-4.9-5.2-.8-.3-.8-.8.3-1.5 1.2-.9 1.2-1.2-.1-2.8-2.5-3-4.1-7.3-2.7-7.3.7 0 .3-.7-.9-1.5-2.2-1.5-3.8-5.5-2.2-5.5.5 0 2.2 1.2 3.7 2.7 1.5 1.6 3.4 2.9 4.2 3 .8.1 2.6.5 3.9.9 2.2.7 2.3.5 1.7-1.9-.8-3.2-.1-3.3 4.2-.7 3.9 2.4 6.1 2.5 6.8.5.7-1.7 3.4-2 3.4-.4 0 .8.4.8 1.5-.1 1.9-1.6 8.5.5 8.5 2.7 0 .9.7 2.5 1.7 3.5 1.5 1.7 1.5 1.9-.1 3.7-1.5 1.7-1.5 2-.1 3.4.8.9 1.5 1.8 1.5 2.1 0 .3 1.1 1.6 2.4 2.9 3.1 3.1 7.6 3.3 7.6.5 0-1.3.5-1.8 1.4-1.5.8.3 2.4-.5 3.6-1.8 1.2-1.3 2.8-2.1 3.5-1.9.7.3 2.1-1.3 3.4-3.8 1.2-2.4 1.7-4.4 1.1-4.6-1.9-.7-1-3.2 1.4-4.3 2.2-1.1 2.4-1.5 1.9-6.5-.4-3.8-.2-5.4.6-5.4.7 0 2.3-2.4 3.6-5.4 2-4.4 2.8-5.3 4.4-4.9 1.5.4 1.9.1 1.6-1.4-1.6-8-1.6-8.3 1-8.3 2.1 0 2.5-.5 2.5-3 0-1.8-1-3.9-2.6-5.6-1.5-1.4-2.3-2.9-1.8-3.3.5-.3.9-1.2 1-1.9.2-2.7.5-3 2.3-2.5 1.9.5 3.8-1.3 2.6-2.5-.3-.3-1-.1-1.4.6-.6 1-1 1-1.9 0-1.3-1.6-.5-3.2 2.2-4.2 1.5-.5 1.7-.9.8-1.8-1.4-1.4-1.6-2.8-.3-2.8.5 0 1.1.8 1.5 1.7.3 1 .9 2.4 1.2 3.2.5.9.2 1.2-.7.7-.8-.4-.6-.1.3.7 1 .8 1.4 1.8 1 2.2-.4.5-.1.5.6.1s1.8-.3 2.5.2c1.7 1.3 5.7 2.2 5.7 1.2 0-.5-.4-1.2-1-1.5-1.4-.9-1.2-4.5.3-5.1.9-.3 1.2-1.9 1-4.7-.2-3.9-.2-4.1 1.3-2.2 1.2 1.7 1.6 1.8 2.4.5.9-1.5.8-1.9-2.2-6.3-2.2-3-5.8-3.7-5.8-1 0 1.2-.3 1.4-1.1.6-.8-.8-2-.7-4.4.3-3.3 1.3-3.4 1.3-5.5-1.5-1.1-1.7-3-3.1-4.2-3.3-2.7-.4-7.3 3.6-6.2 5.3.5.9-.1 1-2.2.5-3.4-.9-5.1-2.9-2.8-3.4 1-.3 1.4-1.1 1.1-2.3-.4-1.5 0-1.9 2.3-1.9 3.3 0 4.8-2.6 1.9-3.5-1.2-.4-1.9-1.5-1.9-3.1 0-1.8-.9-2.8-3.7-4.1-3.1-1.5-4-2.5-4.8-6.1-.8-3.1-1.9-4.8-4.2-6.1-4.4-2.7-4.7-3.8-1.8-5.7 1.3-.9 2.2-2 1.9-2.5-.3-.5.1-1.2.9-1.5 1.6-.6 1.6-3.6 0-4.1-.5-.2-1.5.8-2.1 2.1-1 2.2-1.4 2.3-3.6 1.3-1.4-.7-2.6-1.7-2.6-2.2 0-.6-.9-1.6-2.1-2.3-2-1.3-2.1-1.2-1.4 1.6zm20 32.3c1.2 1.9-.5 2.3-2.2.6-1.6-1.6-1.6-1.7-.1-1.7.9 0 2 .5 2.3 1.1zm-82 62.9c.3.5.1 1-.4 1-.6 0-1.1-.5-1.1-1 0-.6.2-1 .4-1 .3 0 .8.4 1.1 1zM300.8 33.99c-1.6 1.2-2.8 2.6-2.8 3 0 1.3-4.7 5.4-7 6.1-5.4 1.7 1.7 9.2 8.2 8.6 1.4-.1 4.5.7 6.8 1.9s4.8 1.9 5.6 1.6c.8-.3 2.5-.1 3.8.4 1.9.7 2.5.6 2.8-.6.2-1.1 1.3-.5 4.1 2.1 3.6 3.4 5.7 4.4 5.7 2.6 0-.5-.9-1.1-2.1-1.4-1.2-.3-1.8-1-1.5-1.5.3-.6-.6-1.7-2-2.7-1.4-.9-2.3-2.2-2.1-2.8.8-2.4-2.9-4.7-7.6-4.8-3.8-.2-5.1-.7-6.7-2.8-1.3-1.7-2-2.1-2-1.1 0 1.3-.1 1.3-1 0-1.4-2.1-1.2-3.3.4-2.7 1.9.8 3.1-5.2 1.4-6.9-1-1-1.9-.8-4 1zM271 40.79c0 3.3.3 3.6 3.3 4.1 1.7.3 5.1 1 7.5 1.5 2.4.5 4.5.6 4.8.1.3-.5-.1-.9-1-.9-.8 0-1.7-1.3-2.1-3-.5-2.4-1-2.8-2-2-.8.7-2.1.7-3.8.1-1.4-.5-2.8-.7-3.2-.3-.4.4-1.3-.2-2.1-1.2-1.3-1.8-1.4-1.7-1.4 1.6zM258.6 39.29c-.4.5-1.1.9-1.4.9-2.7.6-5.2 1.8-5.2 2.6 0 1.6 3 6.8 3.9 6.8.5 0 1.4 1.3 2 3 1.1 3.3 2.2 4.1 1.4 1.1-.4-1.6-.1-1.9 1.6-1.4 1.9.5 2.6-.4 2.2-2.9 0-.4 1.3-1.5 2.9-2.5 1.7-.9 3-2.3 3-3.1 0-.7-.5-1-1-.7-.6.4-1.7.2-2.5-.5-1-.8-1.5-.8-2 0s-1.3.3-2.4-1.4c-1-1.4-2.1-2.3-2.5-1.9zM420.6 46.09c.4.8 1 1.2 1.5.9 1.4-.8 1-2.4-.6-2.4-.9 0-1.2.6-.9 1.5zM433.5 47.49c-.8 2.7-4.5 3.8-5.7 1.7-1.1-2-4.8-2.1-4.8-.2 0 2.4 4.1 8.6 5.6 8.6.8 0 1.9 1.1 2.4 2.4.7 1.9 1.4 2.2 3.6 1.8 1.8-.3 2.5-.1 2 .6-.7 1.2 2.9 4 5.9 4.5 4 .6 4.7 1.7 3.1 4.3-1.3 1.9-1.3 2.2-.2 1.8 2.6-1 5.4 1.3 5 4.2-.1 1.5-.7 3-1.3 3.3-.7.5-.5 1.5.6 3 1.4 2.1 1.7 2.2 2.5.7.8-1.4 1.3-1.5 2.4-.5 1 .8 1.1 1.5.4 2.4-.8.9-.2 1.8 2.2 3.3 3.8 2.4 4.8 2.1 4.8-1.6.1-2.6.1-2.6 1.5-.8 1.5 2 1.5 2 1.5 0 0-1.1-.5-2.5-1-3-.8-.8-.6-1.5.5-2.4.8-.7 1.5-2.3 1.5-3.5 0-1.8.4-2.2 2-1.8 1.4.4 2 0 2-1.2s-.5-1.5-2-1c-1 .3-2.8.1-3.9-.4-1.3-.7-2.8-.8-4.5-.2-1.8.8-3.4.5-6.3-.9-3.6-1.7-8.5-6-6.8-6 .4 0 .2-.6-.4-1.4-.9-1.1-.9-1.6 0-2.2.9-.5.5-1-1-1.6-1.7-.6-2.1-1.3-1.6-2.8.4-1.4.2-2-.8-2-1.4 0-5.5-3.8-4.9-4.6.3-.5-2.7-6.4-3.3-6.4-.2 0-.6.9-1 1.9zM279 52.59c0 .6-.7 1-1.5 1-.9 0-2 1.1-2.6 2.4-1.4 2.9-6.6 6.9-7.9 6.1-.6-.3-1-.1-1 .4 0 .6-2.2 1.1-5.2 1.1-6.3.1-10.3 3-13.2 9.7-1.1 2.4-2.9 4.9-4.2 5.8-1.3.8-3.1 2.9-3.9 4.5-.9 1.7-2.4 3-3.4 3s-2.6.9-3.6 2-2.6 2-3.7 2c-1.9 0-4.7 1.4-8.7 4.2-1.3 1-3.2 1.8-4.2 1.8-1.6 0-1.9.9-2.1 5.2-.1 2.9-.2 6.4-.1 7.8.1 4.8-2.7 12.4-5.3 14.5-2 1.6-2.5 2.6-2 4.3.4 1.2 1.3 2.2 2.1 2.2 1.3 0 2.4 1.9 3.1 5.5 1.7 8.8 1.8 8.5-.8 8.5-2.1 0-2.9 1.1-5.6 7.2-2 4.8-3 8.7-2.9 11.5.2 5-3.1 9.3-6.6 8.7-1.7-.3-1.8-.3-.5.3 1.1.5 1.4 1.3.9 2.2-.7 1-1.3 1.1-3.1.1-1.2-.6-2.3-1-2.4-.8-.1.2-1.2 1.6-2.5 3.2l-2.2 3 2.2 1.2 2.2 1.1-2.1 1.2c-1.6.8-2.2.9-2.2.1 0-.7-.7-.4-1.6.4-.8.9-1.3 2-1 2.5.3.4-.4.8-1.5.7-3.1-.2-3.9-2.4-2-6 .9-1.7 1.8-3.3 2.1-3.6 1.4-1.4 3-5.2 3-7 0-1.8.5-2 2.9-1.7 2.3.4 2.8.2 2.4-.9-.3-.8.1-1.4.8-1.4.8 0 .4-.8-1-1.9-1.6-1.2-2.2-2.4-1.8-3.5.8-2.1-.7-2.1-2.4 0-1 1.2-2.4 1.5-6.1 1-2.6-.4-4.8-.3-4.8.1-.1 2.3-3.4 4.7-7.2 5.2-3.4.5-4.3 1.1-4.8 3.1-.5 1.8-1.2 2.4-2.6 2.2-6.1-1-8-1.6-9.3-2.6-1.1-.8-1.3-.8-.8 0 .4.7 0 1.7-.8 2.4-1.7 1.4-1.1 3.2.9 2.4 1.9-.7 3.9 2.2 3.4 5.1-.3 1.4-.2 2.5.2 2.5s.5 1.1.3 2.4c-.3 1.2 0 4 .6 6.1.6 2.2.9 4.1.6 4.3-.2.2-2 .4-3.9.4-4.5 0-4.6 1.7-.5 4.7 2.5 1.9 3 2.8 2.7 5.3-.5 3.2 1.7 5.2 3.2 2.8.5-.8 1-.9 1.4-.2.4.6 1.3.9 2.1.6.7-.3 2.4 0 3.7.7 1.3.7 2.9 1.2 3.6 1.1.6-.2 1.2.7 1.2 1.8 0 3.1-1.9 6.2-3.5 5.6-.7-.2-1.9.2-2.6 1-.7.9-2 1.3-3 1.1-1.1-.3-1.5 0-1.2 1.2.3 1.3-.4 1.7-3.6 1.8-3.2.1-4.3-.3-5.5-2.2-2-3-2.1-6.5-.2-6.5 1.3 0 2.6-2 2.6-4.1 0-.6-.9-.7-2-.4-1.4.4-2 .2-2-.9 0-.8-.5-2.7-1.2-4.3-1.3-3-1.7-9.3-.7-9.3.4 0 .7-.6.6-1.3-.1-3.2.4-4.7 1.6-4.7.8 0 2.1-.8 3.1-1.8 1.5-1.8 1.5-2-.4-3.7-1.1-1-2-2.4-2-3.1 0-.7-.4-1.6-1-1.9-1.3-.8-5.2 1.4-4.5 2.6 1.1 1.7-1.7.9-3.1-.9-1.8-2.3-1.7-5.2.1-5.2.8 0 1.5-.5 1.5-1 0-.6 1-1 2.3-1.1 2.1 0 2.1-.1.2-.8-1.4-.6-2.7-.2-4.4 1-1.5 1.2-3.8 1.8-6.2 1.7-5-.2-5.8.7-3.1 3.5 3.3 3.5 2.7 8.8-1.6 13.3-1.8 1.9-1.9 2.4-.7 4 1.8 2.4 1.9 3.4.1 3.4-.7 0-1.9.7-2.7 1.6-.8 1-2.3 1.4-4.1 1.2-1.9-.3-2.8 0-2.8.9 0 .7-.6 1.3-1.4 1.3-.8 0-1.6.6-1.9 1.4-.3.8-1.5 1.6-2.7 1.8-1.9.3-2 .4-.4 2.6 1.2 1.8 1.9 2 2.9 1.2 1-.9 2-.5 4.2 1.7 2.8 2.9 6.3 3.3 6.3.8 0-.9 1.3-1.2 4.2-1.1 4.1.2 4.3.4 5.3 4.3 1.7 6.7 4.7 9 7.8 5.8.8-.8 1.7-1.1 2.1-.8.3.3 1.3 0 2.2-.8 1.6-1.3 1.6-1.2.3.9-.8 1.2-2 2-2.6 1.7-2.1-.8-1.5 1.5 1.1 3.9l2.5 2.2-5.6 1.2c-5.2 1.1-5.6 1-7.2-1-1.4-1.7-2.1-1.9-3.7-1-1.6.9-1.9 1.8-1.6 4.9.3 2.1 1.1 4.2 1.8 4.6 2.2 1.2 1.7 2.4-1.5 3.5-3.5 1.2-5.8 4.9-4.2 6.5 1.4 1.4 1.4 3 0 2.2-.5-.4-2.1.4-3.3 1.7-1.3 1.2-3.4 3-4.7 3.9-2.3 1.6-2.3 1.8-.7 3.6 2.8 3 1.3 9.1-3.1 13-2 1.8-4.2 3.2-4.9 3.3-.9 0-1.1.7-.7 2 .5 1.6.2 2-1.4 2-1.2 0-2.1.6-2.1 1.4 0 1.7-8.5 1-11.3-.9-1.5-1-2.4-1-4.7.2-2.2 1-3.4 1.1-4.9.3-1.7-.8-2.6-.4-5.5 2.6-2.7 2.8-4.1 3.5-6 3.2-1.4-.3-2.7-.1-2.9.5-.2.6-1.2.5-2.6-.3-2.6-1.3-2.5-.9 1.2 4.2 1.2 1.7 1.8 3.6 1.5 5.2-.5 2.6 0 3 3.5 2.6 1.1-.1 2.2 1.1 3.2 3.4 1.9 4.6 1.9 5.3-.4 5.9-1.6.4-2 1.6-2.3 6.8-.2 3.5-.1 7.1.3 7.9.3.8.9 3 1.2 4.7.6 2.9.4 3.3-1.4 3.3-1.8 0-2.1.4-1.6 2.9.5 2.2 0 3.4-1.9 5.1-1.3 1.3-2.4 2.9-2.4 3.6 0 .6-.7 1.7-1.5 2.4-1.9 1.6-1.9 5.4 0 7 1.1.9 1.4 2.2.9 4.6-.5 3-.4 3.4 1.5 3.4 1.1 0 2.1-.4 2.1-1 0-.5 2.3-.8 5.1-.7 4.4.2 5.4-.1 6.6-2.1 1.1-1.5 2.5-2.2 4.8-2.2 3.5 0 6.1-2.2 5-4.1-.7-1.1 4.8-.7 9.9.8 1.4.4 1.8.1 1.3-1.1-.5-1.2-.1-1.4 2.3-.9 1.9.3 3.9 0 5.5-1.1 3.3-2.2 5-2 7.9.9 1.4 1.4 3.2 2.5 4.1 2.5.9 0 2.9 1 4.5 2.2 1.6 1.2 3.2 1.9 3.6 1.6 1-1.1-.7-6.9-2.2-7.5-1.2-.4-1.1-.8.6-2 1.5-1 1.8-2.1 1.4-3.9-.5-2-.2-2.4 1.5-2.4 1.3 0 1.9-.5 1.5-1.4-.7-1.8 1.4-9.6 2.5-9.6.5 0 .7-1 .3-2.3-.5-2-.4-2.1 1.3-.7 1 .8 2.5 1.5 3.4 1.5.9 0 2.2.4 2.9.8.6.5 1.2.4 1.2-.1 0-.6 1.1-1.3 2.5-1.6 1.4-.4 2.5-1.1 2.5-1.6 0-.6.6-1 1.4-1 .8 0 1.6-1 2-2.3.3-1.2 1.6-3.5 3-5.2l2.4-3 3.5 1.7 3.5 1.7 2.7-4c1.9-3 2.3-4.4 1.6-5.3-1.1-1.3 0-10.3 1.4-12.7.4-.5 0-.9-.8-.9-.7 0-2.4-1.2-3.8-2.6l-2.4-2.6 2.3-1.9c1.7-1.3 2.2-2.4 1.7-3.9-.5-1.5-.2-2 1.1-2 1.6 0 1.6-.1.1-1.8-1-1-1.7-2.4-1.7-3 0-.7-.4-1.2-1-1.2-.5 0-1-.5-1-1 0-.6 1.7-1 3.8-1 3.1 0 4.1.5 5.2 2.5 1.4 2.7 2.5 3.1 3.5 1.5.5-.8 1.1-.7 2.1.1 1.1.9 1.4.8 1.4-.5 0-2.1 2.2-2 4.7.1 1.4 1.3 1.8 2.4 1.3 3.8-1.1 3 2 4.7 6.9 3.9 4.9-.8 11.4.3 10.5 1.7-.3.6.3 2 1.3 3.2 2.1 2.4 3.1 12.7 1.3 12.7-.6 0-1 .9-1 2s.5 2 1 2c.6 0 .9-.3.9-.8-.1-.4.2-2.1.6-3.9.7-3 1-3.2 5.1-3.1 3 0 4.7.6 5.4 1.7 1.2 2.1 4.2.4 5-3l.6-2.4 1.2 2.2c.7 1.3 1.3 3.9 1.4 5.8.1 1.9.5 3.5 1 3.5.4 0 .8-.5.8-1 0-1.4 2.6-1.2 4.2.3 1.3 1.3 11.3 1.5 12.5.3.3-.3 2.2-.6 4.1-.6 2.7 0 4.2-.7 6.1-3.1 2.6-3.1 2.7-3.1 6.9-1.9 2.3.7 4.9 2.4 5.7 3.7 1.8 2.7 3.7 3 5.5.8 2.8-3.3 7.5-.9 6 3.1-.8 2-.6 2.5 1.5 3 3.1.8 5.5-1.5 5.5-5.3 0-3.3.8-4.7 3.3-5.6 1-.4 1.7-1.2 1.6-1.9-.3-1.7 1.1-8 2.1-9.3.4-.6.9-2 1.2-3.1.4-1.7.2-2-1.3-1.7-1.1.3-1.9 1.2-1.9 1.9 0 1.7-3.2 1.8-4.8.2-1.7-1.7-1.5-4.8.3-4.8.8 0 1.5-.5 1.5-1 0-.6.7-1 1.6-1 1.3 0 1.5-.6.9-2.8-.4-1.5-.7-4.1-.8-5.8-.1-1.7-.8-3.8-1.6-4.8-1.2-1.4-1.2-1.8.2-2.9 1.4-1 1.4-1.5.2-3-.7-1-1.6-1.8-1.9-1.8-2.1.3-2.6-.1-2.6-1.9 0-1.1-.4-2-1-2-.5 0-1-.9-1-2.1 0-1.1.5-1.7 1-1.4.6.3 1 0 1-.8s-.9-1.7-2-2c-1.1-.3-1.8-.1-1.4.4 1.3 2.2-1.5.6-3-1.6-.9-1.4-2.1-2.3-2.6-2-1.7 1-5.9-2.6-9-7.6-1.6-2.7-4.1-5.4-5.4-6-1.3-.6-3.4-3.3-4.7-6l-2.3-5-2.4 3.1c-1.3 1.6-3 3-3.7 3-1.7 0-6.5-6.1-6.5-8.3 0-.9-.6-2-1.4-2.4-1.2-.6-1.2-1.8-.4-6.3.5-3 1.4-6.3 2-7.3.8-1.6.4-2.6-2.3-5.3-2.7-2.8-3-3.6-1.9-4.8.7-.9 1.7-1.3 2.4-1 .6.3.2-.2-.9-1-1.7-1.5-2-1.5-2.9.1-.5 1-1 2-1.2 2.2-.5.6-6.7-5.7-7.1-7.2-.1-.6-.7-3-1.3-5.2-.7-2.2-1.1-4.9-1.1-6 .1-1.1.1-4.6.2-7.8 0-4.3.3-5.7 1.4-5.7 1.9 0 1.9-.8.1-2.6-.9-.9-1.7-1-2.1-.4-.9 1.4-3.8-.3-4.2-2.6-1.2-5.4-1.5-12.4-.5-12.4s1-5-.1-6.7c-.4-.6-1.6-.9-2.7-.6-1.6.4-2 0-2-2.1 0-1.4.5-2.6 1-2.6.6 0 1-.8 1-1.8s1.3-2.6 3-3.5c3.9-2.3 7.1-11.6 4.9-14.3-.7-.9-1.4-3-1.5-4.5-.1-2.6.1-2.8 2.3-2.3 2.8.7 6.3-2.3 6.3-5.4 0-1.1.7-2.5 1.5-3.2.8-.7 1.5-1.7 1.5-2.4 0-.6 1.6-3.6 3.7-6.6 2-3 4.7-7.2 6.1-9.3 3-4.4 4-4.7 3.4-.8-.3 2.3.2 3.2 3 4.8 1.8 1.1 5 2.6 7.1 3.3 2.6.8 3.7 1.6 3.3 2.6-.4 1.1.1 1.3 2.2.8 1.5-.4 2.9-1 3.2-1.5.9-1.3 5.7-1.4 7.2-.1 1.2 1 1.8.9 2.7-.2.7-.8 1.1-2 1-2.8-.2-.7.1-2.3.5-3.6.7-2 .9-2.1 1.9-.8 1.5 1.9 10.7 1.1 10.7-1 0-.8 1-1.4 2.5-1.4 2.6 0 7.9-4.6 7-6.1-.4-.5-1.7-.9-2.9-.9-1.3 0-3.5-.9-4.9-2-1.4-1.1-2.9-2-3.4-2-1.5-.1-9.3-7.8-9.3-9.2 0-.8-1.1-2-2.5-2.6-1.5-.7-2.5-.8-2.5-.2zm-85.6 127.8c.2.4.1 1.4-.3 2.1-.6.9-1 .7-1.4-.8-.5-2 .7-2.9 1.7-1.3zm-27.7 26.8c-.3.3-1.2.4-1.9.1-.8-.3-.5-.6.6-.6 1.1-.1 1.7.2 1.3.5zm-27 9.9c0 .8-.4 1.5-.8 1.5-1.1 0-2-1.6-1.2-2.4 1.1-1.1 2-.7 2 .9zm91.8 4.5c-.3.5-1 1-1.6 1-.5 0-.9-.5-.9-1 0-.6.7-1 1.6-1 .8 0 1.2.4.9 1zm10 14.4c0 2.8-3.8 3.8-6.6 1.8l-2.3-1.6 3-1.3c3.8-1.6 5.9-1.2 5.9 1.1zm7-.4c.3.5.2 1-.4 1-.5 0-1.3-.5-1.6-1-.3-.6-.2-1 .4-1 .5 0 1.3.4 1.6 1zm-24 1.6c2 .8 3.9 1.3 4.2 1 1.1-1 8.3 3.7 8.3 5.4 0 1 .7 2.3 1.5 3 1.8 1.5 2 4.6.4 5.6-.6.3-.9 1.7-.6 3 .4 2.1 0 2.4-3.2 2.9-2 .4-4.4.8-5.3 1-1 .2-2-.1-2.3-.5-.3-.4-1.4-.6-2.5-.3-1.6.4-2.3-.2-3.5-3.1-1.7-4-1.8-4.9-.7-4.2.4.2 1.8-.2 3.2-1 1.4-.8 1.8-1.4 1-1.3-3 .3-4-.1-4-1.6 0-.9-1-2.9-2.2-4.5-2.1-2.9-2.1-3-.3-5 2.2-2.4 1.5-2.3 6-.4zm54.6 17.7c-.8.8-1.1.5-1.1-.9 0-2.7 1.4-4.1 1.8-1.9.2.9-.1 2.2-.7 2.8zm-104.1.8c0 .6-.4.7-1 .4-.5-.3-1-1.1-1-1.6 0-.6.5-.7 1-.4.6.3 1 1.1 1 1.6zM338 58.59c0 1.6-5.7 4.3-7.1 3.4-.5-.3-.9-.1-.9.5 0 1.7 5.7 7.4 6.8 6.7.5-.3 1.3.6 1.7 2.1.3 1.4.2 2.9-.3 3.2-.5.3-1.3 2.1-1.7 3.8-.5 2.4-.3 3.3.7 3.3s1.1.2 0 .9c-1 .6-.9 1.3.7 3.2 1.9 2.4 1.9 2.4-.1 5.2-1.8 2.5-2.5 2.8-5.4 2.2-3.7-.7-4.3.1-1.6 2.1 1.4 1.1 1.4 1.3.2 1.4-.9 0-1.6.9-1.7 2-.1 1.5 1.2 2.6 5.2 4.6 3 1.4 5.7 2.8 5.9 3.2.2.4.7 2.8 1.1 5.4.7 4.3.6 4.7-1.6 5-1.4.2-2.9 1.4-3.7 3.1-1.3 2.6-1.5 2.7-3.5 1.4-1.5-.9-3-1.1-4.4-.6-1.3.5-2.5.4-2.8-.1-1.1-1.8-4.6-1.1-4.3.7.1 1-.1 2.4-.6 3.1-.4.7-.3 1.9.4 2.7.6.8.9 2.3.5 3.4-.3 1-.1 2.2.5 2.6.5.3 1 1.7 1 3 0 1.5.7 2.6 2 3 2.5.8 2.6 2.2.2 2.9-1 .4-2.6 2.4-3.6 4.7-1.2 2.7-2.3 3.9-3.2 3.5-1.6-.6-1.9 1-.4 1.9 2.7 1.7-.4 10.1-4.7 12.8-.7.4-2 2.2-2.9 4-.9 1.8-2.1 3.5-2.6 3.8-.5.3-.5 1.6.1 3.1.5 1.4.7 3.5.4 4.6-.2 1.1 0 2.3.6 2.6 1.4.9 1.4 5.6 0 5.6-.7 0-.9 1.6-.5 4.7.3 2.7.7 5.6.8 6.5.2 2 1.8 2.5 1.8.7 0-.8.4-.8 1.4 0 1 .9 1.6.8 2.6-.4.7-.9 1-1.8.7-2.1-.7-.8 2.4-4.4 3.8-4.4.7 0 1-1.2.7-2.9-.4-2.6-.2-2.9 1.7-2.4 1.6.4 2.1.1 2.1-1.5 0-1.4.5-1.9 1.8-1.6 1 .2 3.6-1.4 6.6-4.1 4-3.8 4.6-4.8 3.6-6-1.6-1.9-.1-1.9 2.4 0 1.5 1.1 1.7 1.8.9 2.6-.6.6-.9 1.7-.6 2.4.2.7-.5 1.6-1.7 2-1.5.5-1.9 1.2-1.5 2.6.4 1.1.2 2.5-.3 3.2-1.2 1.5-1.2 4.8 0 4.1.5-.3.6-1 .3-1.5-.4-.5.5-.9 1.9-.9 1.8 0 2.5-.6 2.8-2.2.2-1.3 1.1-2.4 2.3-2.7 1.1-.2 2.6-1.2 3.3-2.2.7-1.1 1.9-1.9 2.5-1.9.7 0 2.5-.7 4-1.5 3.4-1.8 7-2.1 11.5-1.1 2.6.6 3.2.5 3.2-.9 0-1.2.6-1.5 2-1 1.4.4 2.2.1 2.6-1 .4-.9 1.3-1.4 2-1.1 1.8.7 1.8-1.3-.1-5.8-.8-2-2.2-3.6-3.1-3.6-1.1 0-1.4-.6-1-2.3.3-1.2.3-1.6 0-.9-.3.6-1 .9-1.6.6-.5-.3 0-1.3 1.2-2.1 1.6-1.1 1.9-1.8 1.1-2.6-.6-.6-1.1-1.5-1.1-2.1 0-.5.3-.7.6-.3 1.2 1.2 3.4-2.2 3.4-5.2 0-2.1.5-3.1 1.5-3.1 1.7 0 1.9-.9.5-3-.5-.8-.6-1.7-.2-2 .4-.3 1.2-1.2 1.7-2.1 5.6-8.9 6.6-9.9 8.5-8.9 1 .5 2.2 1.5 2.5 2 1.1 1.8 3.4 1 3.7-1.3.5-3.3-1.4-7.7-3.3-7.7-.9 0-2.1-.6-2.7-1.3-1.5-1.8-2.7-13.7-1.4-13.7 1.3 0 .9-4.9-.4-5.8-2.3-1.7-7.4-9.3-7.4-11.1 0-1.1-.4-2.3-1-2.6-.5-.3-1-1.5-1-2.6 0-1-1.5-3.5-3.2-5.4-3.1-3.3-3.8-3.6-11-4.2-6.2-.5-7.9-.9-8.3-2.4-.3-1-1.9-2.1-3.6-2.4-1.6-.4-2.7-1.1-2.3-1.6.3-.5-.1-.9-.8-.9-3.7-.1-8.5-7.5-5.3-8.2 1.4-.3 1.4-.5.1-2.3-1.2-1.5-1.5-1.6-1.6-.5zm37 74c0 .5-.5 1-1.1 1-.5 0-.7-.5-.4-1 .3-.6.8-1 1.1-1 .2 0 .4.4.4 1zm-33.8 46.2c-.7.7-1.2.8-1.2.2 0-1.4 1.2-2.6 1.9-1.9.2.3-.1 1.1-.7 1.7z"/><path d="M524.7 68.39c-1 .2-1.6.9-1.4 1.5.3.7 1 1.1 1.7.9.7-.2 2 .4 3 1.3 1.6 1.4 1.8 1.4 2.3 0 .4-.8 1-1.4 1.4-1.3.4.2 1-.1 1.3-.7.5-1.1-5.4-2.3-8.3-1.7zM308.4 72.19c1.1.8 2.3 1.4 2.8 1.4.4 0 1 1.1 1.4 2.5.5 2.1.9 2.3 2.1 1.4 1.2-1.1.9-1.6-1.8-3.8-1.8-1.4-4-2.6-4.8-2.8-1.2-.1-1.1.2.3 1.3zM390 77.49c0 3.7-1 6.2-2.1 5.5-.5-.3-.9 0-.9.5 0 .6.9 1.1 2 1.1s2 .7 2 1.5-.4 1.5-1 1.5c-.5 0-1.3 1.2-1.6 2.7-.4 1.6-1.4 3.4-2.3 4.1-1.4 1.1-1.4 1.4.7 3.1 1.6 1.5 2.2 2.9 2 5.3-.2 3.7.8 6.1 2.3 5.3.5-.4.9-1.4.9-2.4 0-2.5 4-3.4 6.1-1.5 1.5 1.4 2 1.3 5-.1 6.4-3 7.9-4 7.9-4.8 0-1.7 3.8-5.8 4.5-4.7.4.7 1.3.6 2.7-.1 2.1-1.1 2-1.2-.8-2.4-1.6-.7-3.7-2.6-4.7-4.3-1.7-3-1.7-3.1.2-4.2 2.6-1.4 1.7-3.6-2-4.9-1.6-.5-2.9-1.5-2.9-2.1 0-.6-1.2-1-2.7-.9-1.6.1-3.5-.1-4.4-.5-.9-.4-2.1 0-2.9.9-1.6 1.9-4.9 2-5.6 0-1-2.5-2.4-1.7-2.4 1.4zM504.4 86.19c.3.9.6 1.9.6 2.4 0 .7 2.7.7 6 0 .3 0-.6-1-1.9-2-2.8-2.4-5.6-2.7-4.7-.4zM265 89.39c0 1.5 2.8 4.7 3.5 4 .4-.3-.3-1.6-1.4-2.7-1.2-1.2-2.1-1.7-2.1-1.3zM476.9 92.49c-.6 1.6-1.9 3.1-3 3.4-1.9.5-2.7 4.6-1.1 6.1.4.4.7 1.5.8 2.4.3 4.5.5 5.2 1.4 5.2.5 0 .7-.7.4-1.5-.4-.9 0-1.5.9-1.5.8 0 2-.7 2.7-1.5 1.1-1.3.9-1.5-1.3-1.5-1.7 0-2.6-.7-3-2.2-.7-2.6-.1-3.8 1.9-3.8.8 0 1.4-.9 1.4-1.9 0-1.1.5-2.3 1-2.6 1.3-.8 1.3-3.5-.1-3.5-.5 0-1.5 1.3-2 2.9zM463.7 91.69c-2.3 1.3-2.2 2.9.2 2.9 2.3 0 3.3-1.1 2.3-2.7-.5-.8-1.3-.8-2.5-.2zM466.2 99.89c.1 6.5 2.2 9 3.4 4.1.5-1.8.1-3-1.4-4.4-2.1-1.9-2.1-1.9-2 .3zM544.5 101.59c.3.5 1.1 1 1.6 1 .6 0 .7-.5.4-1-.3-.6-1.1-1-1.6-1-.6 0-.7.4-.4 1zM484.7 105.19c-1.6.9-3.1 1.3-3.5 1-.3-.3-1.3.1-2.3 1-1.5 1.3-1.6 2-.6 3.5 1.4 2.2 3.3 2.5 4 .6.4-1 .6-1 .6 0 .1.7 1.2 1.3 2.5 1.3 2 0 2.3-.4 1.8-2.2-.4-1.7-.2-2 1.1-1.5 1 .4 2.4.4 3.3 0 1.3-.5 1.2-.9-.7-2.9-2.6-2.8-2.5-2.8-6.2-.8z"/><path d="M470 106.89c0 1.3-.7 1.6-3 1.3-1.7-.2-3.3-.6-3.6-.9-.4-.3-1.6.6-2.9 2.1-2.1 2.4-2.5 2.5-6.2 1.4-2.7-.8-5-.9-7.3-.2-2.6.7-3.9.6-6.1-.7-2.7-1.6-3-1.6-4.6 0-1.6 1.6-1.6 1.7 0 1.7 1.2 0 1.6-.4 1.1-1.3-.4-.6-.4-.9.1-.5.4.4.9 2.1 1 3.8.2 2.4-.1 3-1.2 2.6-1.2-.5-1.3.2-.8 3.7s.3 4.8-1.1 6.1c-1.1 1.1-1.9 3.8-2.2 7-.3 4.4 0 5.8 2.4 9.7 4 6.4 9.7 10.3 14.6 10 2.1-.1 3.8.3 3.8.9 0 .5-.9 1-2 1s-2.3.7-2.6 1.5c-.4.8-1.5 1.5-2.5 1.5-2 0-2.5 2-.9 3.6 1.4 1.4.1 7.4-1.6 7.4-1.9 0-1.8 1.5.2 3.1 1.3 1.1 1.7 1 2.5-.4 1.4-2.4 2.8-2.1 3.9.8 1 2.5 3.4 3.3 4.5 1.5.7-1.2 7 1.2 9.7 3.7 1 .9 3.2 1.7 4.8 1.8 2.9.3 3 .1 1.6-1.4-1.5-1.6-2.2-5.1-1.1-5.1 1.9 0 5.5 2.6 5.1 3.7-.3.8-.2 1.1.3.8.5-.3 1.2-.1 1.6.5.3.5.2 1-.3 1-.6 0-1.3.7-1.6 1.6-.5 1.2-.1 1.4 1.5.9 1.9-.6 2.1-.4 1.7 2.4-.3 2.3.2 3.8 2.3 6.1 1.5 1.6 3.7 3 4.9 3 1.1 0 2.4.8 2.8 1.7 1 2.4 3.3 2.3 5.5-.4 2.1-2.6 2.1-3.2 0-5.5-1.5-1.7-1.5-1.8 0-1.8 2.2 0 2.2-3.6.1-4.4-.9-.3-1.4-1.3-1-2.1.3-.8-.3-2-1.4-2.8-1-.7-2.2-2.5-2.5-3.9-.5-2.1-.2-2.9 1.5-3.8 1.7-.9 1.9-1.4.9-2.6-.6-.8-.7-1.4-.2-1.4.6 0 .8-1.1.6-2.4-.3-1.3 0-2.7.6-3 2.3-1.4 1-2.5-2.4-1.9-2.1.3-4.1.1-4.9-.7-.9-.6-2-.9-2.5-.5-.6.3-1.9.1-3-.4-1.5-.8-2-.7-2.5.5-.5 1.3-.9 1.4-2 .5-1-.8-1.6-.9-2.1-.1-.3.5-1.9 1-3.6 1-2.4 0-2.9.4-2.9 2.5 0 1.4.4 2.5.9 2.5s1.4 1.4 2 3.1c1.3 3.9 1.4 4.9.2 4.9-.9 0-2.2-2.8-2.7-6-.2-.8-1-2-1.9-2.6-1.2-.9-1.3-1.3-.3-1.7 1-.3.9-.9-.5-2.5-1.8-2-.8-4 1.3-2.7.6.3 1-.2 1-1.2 0-1.1 2-4.1 4.5-6.7 3.6-3.9 4.3-5.2 3.5-6.7-.6-1-1.5-2.1-2.1-2.4-.6-.5-.3-1.3 1-2.2 1.2-.8 2.6-1.1 3.1-.8.6.3 1.2 0 1.5-.7.3-.8 2.2-1.3 5-1.4 3.6 0 4.5.3 4.5 1.7 0 1.5-.5 1.6-2.9.9-1.5-.4-3.5-.4-4.2.1-.8.5-2.4.9-3.6.9-1.6 0-2.1.4-1.6 1.6.7 1.9 5 3.7 6.6 2.7.7-.4 2.7-.9 4.6-1 1.8-.1 4.3-.8 5.4-1.6 1.9-1.2 2.5-1.2 4.4 0 2.1 1.4 2.3 1.4 2.3-.5 0-1.2.8-2.6 1.8-3.2 1.4-.9 1.3-1-.7-.4-1.4.4-2.1.2-1.7-.4.3-.5 0-1.5-.8-2.1-1.1-.9-1.5-.9-1.8.1-.4 1-.8 1-2.1-.1-3-2.4-1.9-3.4 2.9-2.8 2.6.2 4.3.2 3.8-.2-1.4-.9-1.7-6.1-.4-6.1.6 0 .9.4.5.9-.3.5-.1 1.2.5 1.6.6.3 1.3-.1 1.7-1 .3-1 .1-2-.6-2.4-.7-.5-.9-1.5-.5-2.6.6-1.4.4-1.7-.9-1.2-1.2.5-1.7-.1-1.9-2.6-.2-2.3-1-3.5-3.1-4.5-2.9-1.4-6.7-.8-6.7 1.1 0 .7-1 2.1-2.3 3.2-2.7 2.4-7.3 2.7-7.1.4.1-.9-.7-2.1-1.7-2.7-1.5-1-1.7-.9-1.3.3.9 2.3-2.4 1.8-3.6-.5-.6-1.1-1.7-2-2.5-2s-1.5-.4-1.5-.9 1-.7 2.1-.4c2 .5 2 .4.9-1.8-1.7-3.3-2-3.5-2-1.6zm-2 10.8c1.1.8 1.2 1.2.3 1.6-.8.3-1.1 1.4-.7 2.9.4 1.7.2 2.4-.8 2.4-2.2 0-3.8-2.2-3.8-5.2s2.1-3.7 5-1.7zm26 1.9c1.6 1.3 2 2 1 1.9-1.6 0-5-2.2-5-3.3 0-1.1 1.4-.6 4 1.4zm-13 7c0 .5-.4 1-1 1-.5 0-1-.5-1-1 0-.6.5-1 1-1 .6 0 1 .4 1 1zm-4 3c0 .5-.2 1-.4 1-.3 0-.8-.5-1.1-1-.3-.6-.1-1 .4-1 .6 0 1.1.4 1.1 1zm13-.3c0 .5-1.1 1.3-2.5 2-2.7 1.2-2.8 1.2-1.9-1.1.6-1.6 4.4-2.3 4.4-.9zm-6.5 3.3c.3.5-.1 1-1 1s-1.3-.5-1-1c.3-.6.8-1 1-1 .2 0 .7.4 1 1zm-24.5 11c0 .5-.4 1-1 1-.5 0-1-.5-1-1 0-.6.5-1 1-1 .6 0 1 .4 1 1zm29.5 34c-.3.5-1 1-1.6 1-.5 0-.9-.5-.9-1 0-.6.7-1 1.6-1 .8 0 1.2.4.9 1zM520 107.89c0 2.7 1.3 3.6 2.6 1.6.3-.6-.1-1.8-1-2.7-1.5-1.5-1.6-1.4-1.6 1.1zM498 107.59c0 .6-.4.8-1 .5-.5-.3-1 0-1 .8 0 1 .7 1.3 2 1 2.2-.6 2.6-1.8 1-2.8-.5-.3-1-.1-1 .5zM387.2 110.79c-1.8 1.8-1.5 3.2 1.4 5.9 1.4 1.3 3 3.3 3.5 4.4.7 1.5.8 1.2.3-1-.4-1.7-1-4.5-1.3-6.4-.7-3.8-2-4.8-3.9-2.9zM507.1 111.29c-.1.7-1 1.3-2.1 1.3-2.3 0-2.6 1.8-.6 4.5.9 1.3 1.1 2.7.6 4.1-.7 1.8-.5 2.1.8 1.7 1-.2 2.8.5 4.1 1.6 3.9 3.4 5.6 2.5 2.1-1-1.7-1.8-2.9-3.8-2.6-4.5.3-.7-.1-3-.9-5.1-.7-2.1-1.4-3.2-1.4-2.6zM227 126.99c0 1.4-.5 2.8-1 3.1-.6.4-.2 1.8 1.1 3.6 1.1 1.6 1.9 3.9 1.8 5.2-.4 2.3.7 4.7 2 4.7 1.1 0 .6-7.7-.7-11.1-.6-1.4-.8-3.7-.5-5.2.4-2 .1-2.7-1.1-2.7-1 0-1.6.9-1.6 2.4zM395.1 129.19c0 1.1.3 1.4.6.6.3-.7.2-1.6-.1-1.9-.3-.4-.6.2-.5 1.3zM399.5 133.59c.3.5 1.4 1 2.3 1 1.5 0 1.5-.2.2-1-2-1.3-3.3-1.3-2.5 0z"/><path d="M409.3 139.89c-.9 1.9-1 3.5-.3 5.2.9 2.4.6 3-1.5 2.5-.5-.1-.1.8.9 1.9 1.1 1.2 2.5 2.1 3.1 2.1.7 0 1.8.7 2.5 1.5s2.3 1.5 3.6 1.5c1.5 0 2.5.8 3 2.2 1.2 4 2.9 5 6.1 3.6 1.5-.7 3.1-1.7 3.5-2.3.4-.5 3.4-.9 6.8-.8 4.8.1 5.9-.2 5-1.2-.6-.7-.8-2-.4-2.8.5-1.3-.6-1.7-5.5-2.3-4.5-.5-6.2-1.1-6.6-2.4-.3-1-1.6-1.7-3.3-1.8-7.9-.2-9.2-.5-10.3-1.8-.6-.8-1.7-1.4-2.4-1.4s-1.6-1.4-2.1-3.2l-.9-3.1-1.2 2.6zM233.6 144.19c-.5 1.2-.2 1.5 1 1 .9-.4 2.4-.1 3.3.6 1 .8.9.5-.3-1-2.3-2.6-3.2-2.8-4-.6zM198.6 146.49c-.4.5-.2 1.2.3 1.5.5.4 1.2.2 1.5-.3.4-.5.2-1.2-.3-1.5-.5-.4-1.2-.2-1.5.3zM194.5 147.69c-.9 1.4-.2 2 1.4 1 .8-.6.9-1.1.3-1.5-.6-.3-1.4-.1-1.7.5zM240 152.09c0 1.4.7 2.8 1.5 3.1.8.4 1.5 1.4 1.5 2.4 0 .9.9 2.7 2 4 1.1 1.3 2 2.7 2 3.2s.5.6 1 .3c.7-.4.7-1.2 0-2.5-.8-1.4-.5-1.9 1.3-2.4 1.2-.3 2.8-1.6 3.6-2.8.7-1.3 1-2 .6-1.6-1 .9-6.5-1.1-10.2-3.9l-3.3-2.4v2.6zM417 164.29c0 .7-.7 1.3-1.5 1.3-.9 0-1.8.7-2.2 1.6-.3.8-1.1 1.3-1.7 1.1-.8-.3-1.1.7-.9 3.3.2 2.4-.3 4.2-1.2 5-1.3 1.1-1.2 1.5.5 3.7 1.1 1.4 2 3.7 2 5.1 0 1.4.8 3.4 1.7 4.5 1.7 1.8 1.7 1.9 0 3.2-.9.6-1.7 1.7-1.7 2.4 0 .6-.4 1.1-1 1.1-.5 0-1 1.1-1 2.5 0 2.7-.2 2.6 9 2.9 4.6.1 5.6.4 6.6 2.4 1.8 3.6 8.4 10.1 12.8 12.5 3.1 1.8 4.6 3.7 7.5 9.7 5 10.3 5.2 10.5 6.2 8.9 1.3-2.1 2.2-.3.9 2-2.3 4.5 4.5 9 7.2 4.7.5-.8 1-.8 1.9.1.9.9 1.5.9 2.5-.1 1.4-1.5.8-5.6-.9-5.6-1.1 0-3.6-3-3.7-4.3 0-.5.5-.5 1-.2 1.7 1 3.2-4.3 1.9-6.7-1-1.9-.9-2 1-1.5 2 .5 2.2.3 1.5-2.6-.8-3.8-2.1-5.7-4-5.7-.8 0-1.4-.4-1.4-1 0-.5-.6-.7-1.4-.4-1.6.6-2.9-1.1-3.4-4.6-.5-3.4-.7-3.5-3.2-1-2.1 2.1-2.5 2.1-7.2-1.2-2.8-1.9-3-3.9-1.3-11.3.4-1.9.1-4.6-1-7.5-2.4-6.3-3-10-1.6-10 1.6 0 1.3-4.6-.4-6-.9-.7-2.7-1-4.5-.6-1.7.3-3 .2-3-.2s-2.3-2.5-5-4.7c-5.1-4-11-5.5-11-2.8zm23 38.3c0 .5-.4 1-.9 1-.6 0-1.3-.5-1.6-1-.3-.6.1-1 .9-1 .9 0 1.6.4 1.6 1zM142.1 166.49c-1 .7-1 1-.1 1.6.7.4 1.7.1 2.2-.6.7-1 .8-.8.5.9-.6 2.7 1.8 4.2 3.6 2.3.9-.9.8-1.1-.6-.5-1 .3-1.7.3-1.6-.2.7-3.9-1-5.4-4-3.5zM237 170.49c0 4.4.4 5.4 4 9.1 2.9 3 4 5 4 7.3 0 3.8 3.2 10.6 6.5 13.7 1.9 1.7 2.2 2.7 1.4 3.6-.8 1-.7 2.2.5 4.5.9 1.8 1.6 3.8 1.6 4.4 0 .7.9 2.3 2 3.6 1.6 2.1 1.9 2.1 2 .6 0-2.3 2.3-3.1 5-1.7 1.6.8 2.5.8 3.5 0 1.7-1.4 9.7.9 9 2.7-.2.7.6 1.5 2 1.9 3.4.8 5.3 3.4 5.8 7.8.2 2.1.8 4.1 1.3 4.4 2.2 1.5.2 11.2-2.3 11.2-.8 0-1.1.4-.8 1 .3.5 1.7 1 3 1 1.6 0 2.9 1.1 4.4 3.5 1.1 1.9 2.5 3.5 3.1 3.5.5 0 .9.3.8.7-.1.5.5 2 1.2 3.6 1 2 1.1 3 .2 3.9-.8.8-.8 1.7-.1 3 .7 1.3.6 1.8-.3 1.8-.8.1-.6.6.5 1.4 1 .8 1.6 2 1.5 2.7-.2.8.8 1.5 2.2 1.7 1.3.2 3 1.1 3.8 2 1.2 1.5 1.3 1.4.9-1.1-.5-3.2.3-3.5 2.1-.7.7 1.1 2 2 3.1 2 1 0 2.6.9 3.5 1.9 2.6 2.9 7.2 3.6 9.2 1.6 1.3-1.2 1.4-1.9.5-2.8-1.9-1.9-1.2-2.5 2.3-1.7 2.9.6 3.4.5 3.4-.9-.1-.9 0-2.1.2-2.6.8-3.1-.2-6.3-2-6.8-1.1-.3-2-1.4-2-2.5 0-2.4-2.5-4.6-6.9-6.1-1.9-.6-4.9-2.3-6.8-3.7-1.8-1.4-3.3-2-3.3-1.4 0 .5-1.7.1-3.7-1-2.1-1.1-4.5-2-5.5-2-2.6 0-3.3-2.1-1.2-3.6 4.8-3.3 5.4-4.5 3.8-7-1.5-2.2-1.5-2.3 1.5-2.2 3.8.1 6.1-1.7 6.1-4.8 0-1.5.6-2.4 1.5-2.4s1.8-.6 2.1-1.4c.3-.8 1.3-1.2 2.5-.9 1 .3 1.9 0 1.9-.6 0-1.6 3.2-5.1 4.7-5.1.7 0 1.2-.8 1.1-1.8-.4-5 0-5.5 4.1-4.9 2.2.3 4.2.3 4.4.1.7-.8-5-6.4-6.5-6.4-.7 0-2.5-.6-4-1.4-2.4-1.3-2.8-1.2-4.9 1-1.8 1.9-2.5 2.1-4.2 1.3-1.6-.9-1.7-1.3-.6-2 1-.6.7-.9-1.1-1-4.4-.2-7.5.3-7.8 1.2-.2.5-1.2.9-2.1.9-1 0-2.5.8-3.4 1.8-2.2 2.5-7.1 1.8-8.7-1.2-.6-1.2-2.7-2.8-4.6-3.5-2.5-.9-3.4-1.8-3.4-3.5 0-1.3-.7-2.9-1.5-3.6-.8-.7-1.5-1.7-1.5-2.2 0-.6-1.1-1.9-2.5-3s-2.3-2.3-2-2.8c.3-.5.1-1.1-.5-1.5-.5-.3-1-1.4-1-2.4 0-2-2.6-3.1-7.2-3.1-1.5 0-3.1-.6-3.5-1.4-.4-.8-2.7-2.4-5.1-3.6-2.3-1.2-5.1-3.3-6.1-4.6-1.2-1.5-2.2-2-2.6-1.4-.4.7-1.6.3-3.2-1-4.2-3.3-5.3-2.6-5.3 2.9zm12.2 12.2c.2.7 1.9 1.3 3.8 1.4 1.9.2 3.6.8 3.8 1.4.2.6 1.1 1.1 2 1.2 1.3 0 1.3.2-.3.8-1.1.5-2.3.4-2.6-.1-.3-.5-.9-.1-1.3.9-.7 1.6-.9 1.6-1.9.2-.7-.8-1.9-1.8-2.8-2.1-1.7-.7-3.3-4.8-1.9-4.8.5 0 1 .5 1.2 1.1zM380.6 180.79c.5.8-.2.9-2.4.5-2.7-.6-3.2-.4-3.2 1.3 0 1-.7 2.3-1.6 2.8-1.4.8-1.3 1 .7 1.5 1.7.4 2.9 1.9 3.9 4.9 1.2 3.5 2 4.4 4.3 4.6 1.8.2 3.2 1.2 3.9 2.7 1.8 3.9 7.5 1.2 6.1-3-.5-1.7-.4-1.8 1.1-.6 2.1 1.8 2.2-.4.1-2.5-.8-.9-1.5-2.9-1.5-4.6 0-2.7-.2-3-2.5-2.4-2.1.5-2.7.2-3.7-2.1-.7-1.6-1.7-3.1-2.3-3.5-1.6-1.2-3.7-.9-2.9.4zm1.9 12.8c.3.5.2 1-.4 1-.5 0-1.3-.5-1.6-1-.3-.6-.2-1 .4-1 .5 0 1.3.4 1.6 1zM465.6 182.99c.3 1.3.1 2.7-.5 3-1.7 1.1-1.3 5.6.5 6.3.9.3 1.9.2 2.3-.3.3-.6 1.7-1.1 3.1-1.2 1.4-.1 3.7-.5 5.3-1 2.6-.7 2.7-.8 1.1-3-.9-1.4-2.5-2.2-3.7-2.1-5.2.4-6.7-.1-6.7-2.1 0-1.1-.5-2-1-2-.6 0-.8 1-.4 2.4zM341.1 197.29c0 1-.2 4-.5 6.8-.4 4.2-.8 5-2.4 4.8-1.1-.1-2.5.4-3.2 1.2-1.3 1.5-.6 3.5 1.3 3.5.7 0 2.3 1.2 3.6 2.5 2.4 2.6 5.1 3.3 5.1 1.4 0-1.5 4.2-4.8 6.2-4.9 1 0 2.2-1.7 3.3-4.8.9-2.6 2.1-5.5 2.6-6.5.7-1.3.5-1.9-.7-2.4-1.3-.5-1.3-.8-.2-1.5.8-.5-1.4-.8-5.7-.6-3.9.1-7.5-.1-8.2-.5-.7-.5-1.2-.1-1.2 1zM395.5 204.29c-.9 1.8-2.3 3.3-3.2 3.3-.9 0-1.3.6-.9 1.5.3.8.1 1.5-.5 1.5s-.6.8.1 2.1 1.7 1.8 2.7 1.5c1.1-.4 1.3-.2.9.9-.3.9 0 1.5.8 1.5 2.3 0 2.6-1.3 1.1-3.6-1.4-2.1-1.3-2.4.4-3.4 1.3-.7 2.8-.7 4.5 0 1.7.6 2.6.6 2.6 0s.7-1 1.5-1 1.5-.5 1.5-1.2c0-.6.7-2 1.7-3 1.5-1.7 1.5-1.8-.4-1.8-1.1 0-2.3-.3-2.7-.7-.4-.4-2.4-.8-4.6-.8-3.5-.1-4.1.2-5.5 3.2zM361.6 203.09c.4.8.8 1.5 1 1.5.2 0 .4-.7.4-1.5s-.4-1.5-1-1.5c-.5 0-.7.7-.4 1.5zM384 203.59c1.1 2.1 5 4.6 5 3.2 0-1.2-3.9-5.2-5.1-5.2-.6 0-.6.7.1 2zM382 205.59c0 .5.5 1 1 1 .6 0 1-.5 1-1 0-.6-.4-1-1-1-.5 0-1 .4-1 1zM360.3 206.29c-2.3.9-1.4 3 2 4.7 1.9.8 3.9 2.6 4.5 3.8.6 1.3 1.1 1.8 1.1 1.1.1-.6-1-2.5-2.4-4.1-1.4-1.7-2.5-3.7-2.5-4.6 0-1.6-.6-1.8-2.7-.9zM384 213.59c0 .5.5 1 1 1 .6 0 1-.5 1-1 0-.6-.4-1-1-1-.5 0-1 .4-1 1zM122.4 217.79c-2.1 1-4.2 6.9-3.6 10 .4 2 3.2 1.3 3.2-.8 0-.8.5-1.4 1.1-1.4.5 0 .8-.3.5-.8-.2-.4-.1-2.3.4-4.2.4-1.9.8-2.7.9-1.7.1 1 .6 1.5 1.1 1.2 2.8-1.7-.3-3.7-3.6-2.3zM363.2 219.99c-2.2 1.2-2.2 1.3-.5 2.7 1.8 1.6 4.4 2.7 12.1 4.9 2.3.8 4.2 1.9 4.2 2.7 0 1-.6 1.2-1.9.8-1.1-.3-2.2-.1-2.5.4-.4.6-1.4.7-2.2.4-2.9-1.1.6 3.2 3.7 4.6 1.8.8 2.6 1.7 2.2 2.7-.3.8.1 1.4 1 1.4.8 0 2 .7 2.7 1.5.7.9 1.9 1.4 2.6 1.1 1.8-.7 6.3 1.6 6.9 3.5.3.9 1.4 1.9 2.3 2.1 1 .3 2.4 2.3 3.1 4.6 1.2 3.6 1.2 4.4-.2 6.6-1.5 2.2-1.5 2.9-.1 7.5 1.3 4.6 1.3 5.3-.1 6.7-1.9 1.9-1.9 2.5-.1 4.9.8 1.1 1 2.6.6 3.5-3.2 6.6-3.9 9.1-3 11.5.6 1.7.6 2.5-.1 2.5-.6 0-.8.9-.4 2.2.6 1.6.4 2-.7 1.5-1.1-.4-1.5.2-1.6 2.1-.1 7.9-.6 12.2-1.4 12.2-.5 0-.6.6-.1 1.2.4.7.9 2.4 1 3.8.1 1.4.4 3.7.5 5.1.4 3.3 4.7 8.9 8.6 11.1 2.9 1.7 3 1.7 5.6-.7 2.2-2 2.8-2.2 3.2-1 .4.8 1.1 1.2 1.8.9.6-.3 0 .4-1.4 1.6l-2.6 2.3 4.1 4.4c3.9 4.2 4.3 4.4 8.3 3.7 2.3-.3 4.7-1.3 5.3-2 .6-.8 2-1.4 3-1.4 1.1 0 1.9-.4 1.9-1 0-.5 1.1-1.5 2.4-2.2 1.4-.7 2.5-1.6 2.5-2.1.1-.4.1-1.2.1-1.8 0-.8.5-.8 1.5.1 1.3 1.1 1.6.8 2.1-1.9l.7-3.2 1.9 2.1c2.2 2.3 3.7 2.8 1.8.5-.7-.8-.9-1.5-.5-1.5s0-1.1-.9-2.5-1.2-2.5-.6-2.5 1-.6.9-1.3c-.3-1.9 1.3-7.7 2.2-8.3 1.5-.9 1-2-1.1-2.1-1.1-.1-2 .2-2 .8 0 1.7-1.8.9-4.9-2.3-1.7-1.7-3.1-4-3.1-5s-.9-2.3-2-3c-2.3-1.5-2.6-2.8-.6-2.8 2.2 0 2.6-2.7 1.1-6.4-2-4.8-1.9-5.1 1-3.2 2.3 1.5 2.5 1.5 2.5.1 0-.9-.4-1.4-1-1-.5.3-1.8-.3-2.9-1.4-1-1-2.7-2.1-3.6-2.3-.9-.1-1.6-.6-1.6-1 .1-2.1-4.2-10.3-6-11.6-1.5-1-1.9-2.3-1.7-5.2.2-4.4-3.6-10.2-8.4-12.9-6.1-3.3-10-7.1-13-12.8-1.7-3.2-3.4-6-3.9-6.1-.5-.2-.9-1.5-.9-2.9 0-1.8-1.8-4.3-6.1-8.4-4.9-4.8-6.6-5.9-9.4-5.9-1.8 0-4-.6-4.7-1.4-2.2-2.1-5.1-2.6-7.6-1.2zM140.8 227.29c.6.2 1.8.2 2.5 0 .6-.3.1-.5-1.3-.5-1.4 0-1.9.2-1.2.5z"/><path d="M358.5 232.59c1.4 1.5 2.3 3.3 2 4.1-.3.8.7 2.1 2.5 3.1 1.6.9 3 1.3 3 .8 0-.4.9-.6 2-.3 1.6.4 1.9 0 1.7-2.3-.2-3.3-5.2-6.8-10.6-7.6l-3.1-.5 2.5 2.7zM73.5 284.59c-.3.5-.1 1 .4 1 .6 0 1.1-.5 1.1-1 0-.6-.2-1-.4-1-.3 0-.8.4-1.1 1zM225.1 301.49c-1.9 1.2-.6 4.3 1.6 3.9 1-.2 1.8-1.2 1.8-2.2 0-2.2-1.4-2.9-3.4-1.7zM277 307.79c0 .8.9 1.4 2.1 1.5 1.2.1 1.9-.3 1.6-1-.5-1.7-3.7-2.1-3.7-.5zM447.2 338.09c1.2 1.4 2.8 2.5 3.5 2.5.8 0 .5-.9-.9-2.5-1.2-1.4-2.8-2.5-3.5-2.5-.8 0-.5.9.9 2.5zM48 360.59c0 2.3-.5 2.9-3.1 3.4-7.1 1.4-14.1.3-16-2.6-.3-.5-1.7-.3-3.1.5-2.4 1.2-2.5 1.5-1.2 3.9 1.2 2.3 1.2 2.9-.1 4.2-2 1.9-1.9 3.2.5 7.1l2 3.3-2.5.6c-1.4.4-2.5 1.1-2.5 1.6s-1.4 2.3-3.1 4.1c-2.9 2.9-3.1 3-4.9 1.4-1-.9-2.7-1.5-3.7-1.3-3.5.8 4.5 4.1 8.2 3.4 2.9-.6 3.5-.3 5.8 3.3 3.5 5.3 4.1 8.2 2.2 10.6-1.4 1.9-1.6 1.9-2.6.2-.5-.9-1.5-1.7-2-1.7-.6 0-.2 1.3.8 3 1.8 3.1 4.7 4.3 3.7 1.5-.4-.8-.4-1.5-.2-1.5 1.8 0 7.7 2.6 9.3 4.1 2 1.8 6.5 1.7 6.5-.1 0-.5 2.3-1.1 5-1.5 4.1-.6 5.6-1.3 7.7-4 2.2-2.7 3.2-3.3 5.4-2.8 1.8.3 2.8 0 3.2-1.1.4-.9.3-1.6-.1-1.6-1.5 0-.7-7.7 1.1-9.4 1.5-1.5 1.9-2.6 1.9-4.6 0-.3-.3-1.5-.7-2.8-.5-1.6-.2-2.2.9-2.2.9 0 1.6-.9 1.6-2 0-2.2 1.6-2.7 2.3-.8.2.7.6-.1.9-1.9.3-2.1 0-3.4-.8-3.7-.9-.3-1.1.1-.7 1.2.3.9.2 1.3-.2.9-.5-.4-1-2.2-1.1-4-.4-4.9-1.3-7-4.1-9.1-2.1-1.6-2.9-1.7-4.5-.7-1 .6-2.2.9-2.7.7-.4-.3-2.6-.9-4.9-1.5-4.1-.9-4.2-.9-4.2 1.9zM0 404.59c0 .5.6 1 1.3 1.1.6 0 2.2.2 3.5.3 3 .3 1.5-1-2-1.8-1.7-.4-2.8-.2-2.8.4zM12.5 407.59c-.3.5-1.2.7-2 .3-1.1-.4-1.3-.1-.9 1.1.3.9-.1 3.4-1 5.6-1.2 3.1-1.4 4.6-.5 6.1.9 1.8 1.3 1.9 2.7.6.9-.8 3-1.7 4.5-2.1 2-.5 2.9-1.4 3.4-3.6.3-1.7.9-3.3 1.3-3.5 1.4-.9-.2-4.6-1.7-4.1-.8.3-2.3.1-3.3-.4-1.2-.6-2.1-.7-2.5 0zM2.9 410.29c-1.3 1.6-1.2 1.7.4.4.9-.7 1.7-1.5 1.7-1.7 0-.8-.8-.3-2.1 1.3z"/></g></svg>