<?xml version="1.0" standalone="no"?>
<!DOCTYPE svg PUBLIC "-//W3C//DTD SVG 20010904//EN"
 "http://www.w3.org/TR/2001/REC-SVG-20010904/DTD/svg10.dtd">
<svg version="1.0" xmlns="http://www.w3.org/2000/svg"
 width="1112.246047pt" height="656.866987pt" viewBox="0 0 1112.246047 656.866987"
 preserveAspectRatio="xMidYMid meet">
<metadata>
Created by potrace 1.15, written by Peter Selinger 2001-2017
</metadata>
<g transform="translate(-427.409571,1308.000000) scale(0.100000,-0.100000)"
fill="#222222" stroke="none">
<path d="M5497 13061 c-4 -17 -3 -21 5 -13 5 5 8 16 6 23 -3 8 -7 3 -11 -10z"/>
<path d="M5560 13064 c0 -14 -11 -27 -32 -38 -27 -13 -29 -16 -11 -16 12 0 23
-4 25 -9 2 -5 10 -11 18 -13 23 -5 41 -34 33 -55 -6 -15 -4 -16 8 -6 17 14 28
8 51 -25 l16 -23 20 25 c23 30 32 33 32 11 0 -19 28 -47 63 -62 41 -19 55 -16
71 15 14 25 15 26 16 5 0 -13 4 -23 10 -23 24 0 100 -106 100 -139 0 -11 16
-36 35 -55 45 -45 49 -109 6 -86 -58 31 -154 31 -171 0 -7 -13 -17 -16 -32
-13 -34 9 -88 69 -88 99 0 19 -4 25 -17 22 -14 -3 -17 -12 -15 -37 2 -34 -28
-87 -43 -73 -4 4 0 -8 9 -26 14 -27 15 -36 5 -48 -10 -12 -8 -19 10 -37 11
-13 21 -30 21 -38 0 -9 3 -19 8 -23 4 -4 7 -30 7 -56 0 -54 0 -54 -77 -30 -19
6 -28 5 -31 -4 -7 -18 -53 -26 -90 -15 -23 6 -33 5 -41 -6 -6 -9 -28 -16 -49
-17 -27 -1 -37 -6 -37 -18 0 -18 -39 -40 -70 -40 -10 0 -21 -4 -25 -10 -7 -11
-56 8 -68 27 -13 21 -26 15 -52 -27 -23 -36 -30 -40 -65 -40 -34 0 -42 -4 -55
-30 -9 -17 -20 -28 -25 -25 -6 4 -26 1 -44 -6 -28 -10 -38 -10 -50 0 -17 14
-36 7 -36 -15 0 -20 -30 -17 -31 4 -1 9 -1 19 -1 22 1 10 -58 4 -69 -7 -9 -9
-19 -9 -41 3 -29 15 -30 15 -23 -5 9 -29 -21 -28 -46 2 -16 19 -18 19 -19 5 0
-10 -9 -23 -20 -30 -11 -7 -20 -22 -20 -34 0 -13 -8 -24 -20 -27 -14 -3 -20
-14 -20 -32 0 -15 4 -24 10 -20 6 3 10 1 10 -4 0 -6 -4 -11 -10 -11 -28 0 -84
-92 -67 -109 7 -7 7 -18 -1 -36 -17 -36 -15 -45 7 -45 11 0 23 9 26 20 3 11
11 20 17 20 5 0 8 7 4 15 -3 8 -1 15 4 15 6 0 10 6 10 14 0 12 5 12 30 3 25
-10 32 -9 43 6 10 15 18 16 40 8 15 -6 27 -15 27 -20 0 -5 22 -17 49 -26 27
-9 67 -28 88 -43 37 -27 73 -32 73 -10 0 7 16 8 45 4 38 -6 45 -5 45 9 0 18
21 14 73 -12 23 -12 27 -12 27 1 0 7 7 16 15 20 8 3 15 12 15 20 0 10 6 13 15
10 21 -8 19 2 -6 25 -19 18 -22 34 -18 101 0 8 -3 25 -6 38 -6 17 -3 22 9 22
14 0 16 6 10 36 -5 27 -2 42 14 63 13 19 17 32 11 42 -16 26 -11 41 10 29 11
-5 41 -8 68 -7 53 4 76 -1 68 -14 -3 -5 9 -8 27 -7 19 1 43 -4 54 -10 12 -6
26 -7 34 -2 8 5 25 7 36 4 12 -3 25 -1 28 5 4 6 20 11 35 11 15 0 31 4 37 9 5
5 23 11 39 13 28 3 30 6 27 39 -3 33 0 37 25 44 34 8 55 24 47 36 -3 5 9 9 26
9 19 0 33 6 37 16 4 12 14 14 36 10 16 -3 35 -2 41 3 6 5 25 6 43 4 23 -4 33
-12 37 -29 4 -14 11 -22 16 -19 14 9 24 -17 21 -56 -2 -34 0 -38 28 -44 17 -4
33 -11 36 -16 4 -5 15 -9 26 -9 17 0 18 3 9 20 -6 11 -8 25 -5 30 3 5 1 11 -5
15 -5 3 -10 0 -10 -7 0 -8 -5 -6 -11 5 -14 24 -11 25 33 20 22 -3 38 -11 40
-20 2 -11 19 -15 66 -16 34 -1 62 2 62 7 0 4 8 5 18 0 23 -11 102 -13 96 -2
-11 18 13 6 55 -27 24 -19 48 -35 53 -35 5 0 6 -5 3 -10 -4 -7 -13 -7 -26 0
-11 6 -24 8 -29 5 -20 -12 -9 -31 33 -53 44 -23 77 -29 77 -12 0 6 -6 10 -14
10 -7 0 -19 7 -26 15 -10 12 -9 15 7 15 13 0 23 12 32 35 7 19 18 35 26 35 8
0 16 4 19 9 9 13 -61 51 -80 44 -14 -5 -15 -3 -5 16 7 12 9 26 5 32 -12 20 32
-9 70 -46 21 -20 46 -35 61 -35 13 0 27 -5 30 -10 4 -6 11 -8 16 -4 13 8 64
-26 52 -35 -18 -11 -23 -41 -8 -41 8 0 12 6 9 13 -2 7 8 27 23 43 15 16 26 33
25 38 -2 4 2 14 7 20 7 8 7 25 0 52 -8 29 -8 47 0 71 7 18 9 39 5 45 -6 9 -3
9 9 0 9 -8 19 -22 22 -33 4 -10 15 -19 25 -19 13 0 17 -5 14 -14 -3 -9 4 -19
17 -27 20 -10 25 -8 51 22 23 29 29 32 38 19 6 -8 9 -25 7 -37 -3 -15 3 -25
22 -33 l26 -12 -22 -15 c-21 -14 -22 -17 -7 -51 13 -33 13 -38 -1 -48 -8 -6
-15 -16 -15 -22 0 -6 -6 -9 -12 -7 -19 7 -31 -6 -45 -44 -7 -18 -10 -31 -6
-28 3 4 17 -3 31 -13 13 -11 37 -20 52 -20 15 0 33 -6 39 -14 6 -8 26 -12 47
-10 29 2 37 -2 44 -21 5 -12 13 -24 17 -26 5 -2 21 -20 36 -40 28 -37 36 -79
16 -79 -20 0 11 -29 56 -51 l42 -21 27 23 c14 12 26 29 26 36 0 7 7 13 15 13
10 0 15 10 15 34 0 28 4 35 23 38 17 2 23 11 25 36 3 27 0 33 -15 30 -12 -2
-19 4 -21 21 -6 38 12 44 41 16 l26 -26 20 20 c15 15 28 19 49 15 20 -4 33 0
46 15 11 12 22 21 25 21 13 0 3 -60 -17 -102 -12 -24 -22 -49 -22 -54 0 -15
-42 -51 -65 -57 -17 -4 -16 -5 5 -6 50 -3 84 -59 55 -91 -20 -22 -8 -60 19
-60 12 0 27 5 34 12 12 12 12 12 27 -37 2 -9 -2 -15 -10 -15 -18 0 -20 -26 -2
-33 7 -3 4 -6 -6 -6 -26 -1 -15 -26 11 -26 11 0 24 -4 28 -8 16 -16 44 -6 50
17 3 14 14 32 23 40 16 15 19 14 29 -9 7 -15 17 -23 23 -19 8 4 8 9 0 17 -6 6
-11 16 -11 21 0 6 5 5 12 -2 22 -22 28 -13 27 38 -1 28 1 53 4 57 4 3 1 15 -5
27 -9 17 -8 19 3 9 7 -7 23 -13 34 -13 42 0 120 -33 148 -62 20 -22 34 -28 51
-24 24 6 82 -21 128 -59 26 -22 68 -24 68 -4 0 5 7 6 15 3 8 -4 26 1 40 10 14
9 29 14 34 11 11 -6 24 42 15 56 -3 6 2 16 11 23 16 12 16 14 1 45 -13 25 -14
36 -6 46 9 11 6 17 -12 29 -20 13 -24 23 -22 58 1 23 6 44 11 45 5 2 8 16 5
32 -2 16 1 32 7 35 7 5 5 12 -5 24 -46 53 -64 82 -58 96 4 9 1 16 -6 16 -9 0
-11 17 -7 66 2 36 8 68 11 71 3 4 17 -4 30 -16 14 -13 30 -20 36 -16 6 4 17
-1 24 -11 13 -17 88 -25 103 -11 3 4 -1 7 -10 7 -10 0 -17 6 -17 14 0 8 -12
17 -26 20 -14 4 -42 17 -62 30 -40 26 -92 41 -92 28 0 -18 -44 -4 -51 16 -5
12 -13 22 -19 22 -5 0 -10 9 -10 20 0 11 -7 23 -16 27 -8 3 -13 12 -10 20 9
23 -38 38 -73 23 -17 -7 -37 -10 -45 -7 -9 4 -16 -2 -20 -16 -5 -20 -6 -20
-25 -3 -11 10 -23 26 -26 36 -3 9 -17 22 -30 28 -15 7 -25 20 -25 32 0 32 -18
60 -40 60 -10 0 -40 10 -67 22 -55 25 -85 29 -130 18 -27 -7 -37 -3 -71 26
-22 19 -47 34 -55 34 -9 0 -19 5 -22 10 -3 6 -17 10 -29 10 -13 0 -29 7 -36
15 -10 12 -6 17 24 32 39 18 47 48 24 98 -13 29 -25 31 -49 9 -17 -15 -21 -15
-53 0 -19 9 -41 13 -50 10 -8 -3 -30 1 -47 10 -33 16 -58 21 -46 9 4 -3 2 -12
-4 -19 -8 -10 -5 -16 9 -25 25 -16 18 -35 -20 -55 -16 -8 -34 -28 -40 -45 -9
-27 -32 -39 -40 -21 -1 5 -19 7 -39 4 -34 -4 -37 -7 -43 -42 -5 -29 -11 -39
-31 -44 -13 -3 -35 -20 -47 -36 -12 -17 -27 -30 -34 -30 -6 0 -17 -7 -24 -15
-7 -8 -21 -15 -31 -15 -10 0 -34 -10 -55 -22 -36 -21 -37 -21 -71 -3 -40 22
-53 12 -53 -42 0 -18 -4 -33 -10 -33 -5 0 -10 -8 -10 -19 0 -23 -35 -47 -87
-60 -21 -6 -55 -14 -76 -20 -29 -7 -40 -6 -43 3 -3 8 -15 11 -31 8 -24 -5 -25
-3 -19 24 4 16 14 36 23 46 8 9 13 25 12 35 -2 10 0 28 5 40 4 14 0 34 -14 60
-11 21 -20 42 -20 48 0 6 -9 18 -20 27 -18 16 -20 16 -29 1 -8 -15 -14 -15
-47 -5 -22 6 -48 14 -59 17 -11 3 -36 26 -55 50 -19 25 -38 45 -43 45 -4 0
-29 19 -55 43 -26 24 -79 64 -119 91 -40 26 -77 54 -83 61 -6 7 -19 11 -30 8
-15 -4 -23 4 -37 31 -9 20 -22 36 -29 36 -7 0 -14 5 -16 11 -3 9 -9 9 -24 1
-17 -9 -27 -7 -52 11 -17 12 -33 30 -36 40 -2 9 -9 17 -16 17 -6 0 -9 -4 -6
-8 3 -5 -8 -19 -25 -31 -16 -12 -27 -26 -24 -32 4 -5 -1 -9 -9 -9 -9 0 -21 9
-28 20 -7 11 -17 20 -21 20 -5 0 -17 10 -28 23 -18 22 -18 22 -19 1z m590
-654 c0 -5 -2 -10 -4 -10 -3 0 -8 5 -11 10 -3 6 -1 10 4 10 6 0 11 -4 11 -10z
m165 -88 c13 -9 55 -68 55 -77 0 -3 -20 11 -44 32 -24 21 -42 41 -39 46 5 9
15 9 28 -1z m85 -33 c0 -4 9 -5 20 -2 11 3 20 0 20 -6 0 -15 -58 -11 -64 4 -2
7 2 12 10 12 8 0 14 -4 14 -8z m310 -79 c0 -5 -2 -10 -4 -10 -3 0 -8 5 -11 10
-3 6 -1 10 4 10 6 0 11 -4 11 -10z m-1930 -130 c0 -5 -4 -10 -10 -10 -5 0 -10
5 -10 10 0 6 5 10 10 10 6 0 10 -4 10 -10z m5 -40 c3 -5 1 -10 -4 -10 -6 0
-11 5 -11 10 0 6 2 10 4 10 3 0 8 -4 11 -10z m-130 -80 c3 -5 -1 -10 -9 -10
-9 0 -16 5 -16 10 0 6 4 10 9 10 6 0 13 -4 16 -10z"/>
<path d="M5465 13009 c-4 -6 -5 -13 -2 -16 7 -7 27 6 27 18 0 12 -17 12 -25
-2z"/>
<path d="M7425 12913 c3 -8 5 -19 5 -24 0 -6 5 -7 10 -4 16 10 12 42 -5 42
-10 0 -14 -6 -10 -14z"/>
<path d="M7475 12919 c-10 -15 3 -25 16 -12 7 7 7 13 1 17 -6 3 -14 1 -17 -5z"/>
<path d="M5584 12887 c3 -14 2 -29 -4 -32 -5 -3 -10 -14 -10 -25 0 -10 -7 -20
-15 -24 -16 -6 -21 -41 -7 -50 18 -11 51 7 57 32 6 23 8 25 18 11 7 -9 18 -14
25 -12 14 5 17 33 3 33 -5 0 -12 18 -16 40 -4 22 -10 40 -15 40 -5 0 -16 3
-26 7 -14 5 -16 2 -10 -20z"/>
<path d="M8982 12495 c-10 -21 -19 -25 -51 -25 -30 0 -39 -3 -35 -14 3 -9 -6
-19 -25 -27 -17 -8 -31 -17 -31 -21 0 -5 -4 -8 -10 -8 -5 0 -10 7 -10 15 0 15
-17 20 -54 16 -11 -1 -17 1 -13 5 3 3 2 11 -4 18 -5 6 -17 22 -27 35 -18 23
-21 23 -50 10 -28 -12 -31 -17 -26 -49 7 -42 7 -42 -2 -102 -4 -30 -12 -48
-20 -48 -7 0 -17 -6 -21 -14 -4 -7 -15 -15 -23 -18 -11 -4 -7 -9 12 -16 24
-10 56 -50 48 -62 -1 -3 6 -9 17 -15 10 -5 34 -27 51 -47 25 -27 32 -45 31
-70 -2 -18 3 -43 10 -56 9 -18 10 -31 2 -54 -6 -17 -11 -44 -11 -59 0 -15 -6
-32 -13 -36 -13 -9 -37 -69 -37 -95 0 -9 6 -21 14 -27 18 -16 18 -71 -1 -71
-7 0 -13 -8 -13 -18 0 -10 -5 -23 -12 -30 -9 -9 -8 -12 4 -12 16 0 78 -63 78
-80 0 -6 5 -10 11 -10 6 0 8 9 4 20 -10 30 -1 25 57 -36 52 -55 78 -93 45 -65
-20 16 -21 12 -7 -23 7 -21 6 -26 -5 -26 -8 0 -15 -5 -15 -11 0 -6 -7 -9 -15
-5 -12 4 -14 0 -9 -18 11 -44 -50 -64 -98 -32 -16 10 -28 23 -28 28 0 15 -27
38 -44 38 -10 0 -16 -9 -16 -21 0 -16 -5 -20 -20 -16 -13 3 -20 0 -20 -9 0 -9
-11 -14 -30 -14 -21 0 -28 -4 -24 -14 4 -10 -2 -12 -21 -8 -15 2 -29 11 -32
18 -3 8 -9 14 -14 14 -14 0 -11 -28 6 -60 9 -17 11 -31 6 -35 -6 -3 -10 -22
-10 -43 0 -20 -2 -48 -4 -62 -6 -37 10 -60 41 -60 15 0 34 -5 42 -10 10 -6 20
-4 31 6 15 14 18 13 30 -4 8 -10 23 -24 34 -29 20 -11 80 -11 92 0 3 4 14 2
25 -4 14 -8 25 -6 43 5 33 22 58 20 87 -6 41 -38 62 -54 54 -40 -8 13 4 16 20
5 5 -5 -1 1 -13 12 -30 27 -32 69 -3 60 25 -8 26 8 5 59 -9 21 -11 36 -5 36 5
0 10 6 10 14 0 7 7 19 14 26 13 10 13 16 -2 47 -13 28 -14 37 -4 40 6 3 12 16
12 29 0 13 5 24 11 24 6 0 1 13 -10 29 -26 36 -26 41 -1 41 21 0 27 15 10 25
-23 14 -8 23 30 18 l40 -6 0 42 c0 37 2 41 25 41 20 0 25 6 31 35 4 24 15 40
38 53 43 26 106 164 106 235 0 39 62 197 89 225 40 42 52 71 41 93 -9 17 -7
19 18 19 16 0 35 7 42 15 10 12 10 15 0 15 -6 0 -20 10 -31 23 -14 16 -17 17
-13 4 7 -19 -33 -58 -52 -50 -6 2 -28 -6 -48 -18 -27 -16 -40 -19 -48 -11 -8
8 -17 8 -29 1 -17 -9 -18 -6 -15 31 2 23 -2 53 -10 68 -12 23 -12 28 4 36 9 5
18 10 20 11 9 8 -13 55 -25 55 -11 0 -13 3 -5 13 19 22 -63 91 -137 116 -80
26 -75 26 -89 -4z m-47 -103 c3 -8 -3 -16 -15 -19 -11 -3 -17 -10 -13 -17 3
-6 3 -8 -2 -4 -4 4 -14 3 -22 -4 -18 -15 -29 -2 -14 16 8 10 9 16 1 21 -20 13
-9 23 25 22 19 -1 37 -7 40 -15z m-157 -129 c-1 -17 2 -37 8 -45 5 -7 11 -26
13 -41 2 -26 0 -28 -21 -22 -37 11 -43 23 -24 43 13 15 14 25 7 46 -7 17 -7
26 -1 26 6 0 10 5 10 10 0 6 -7 10 -15 10 -8 0 -15 7 -15 15 0 13 3 13 20 3
14 -9 20 -22 18 -45z m-92 -80 c-7 -7 -26 7 -26 19 0 6 6 6 15 -2 9 -7 13 -15
11 -17z m84 -144 c0 -6 -4 -7 -10 -4 -5 3 -10 11 -10 16 0 6 5 7 10 4 6 -3 10
-11 10 -16z m140 -89 c0 -5 -7 -10 -16 -10 -8 0 -12 5 -9 10 3 6 10 10 16 10
5 0 9 -4 9 -10z m39 -17 c6 -11 11 -13 11 -5 0 7 4 11 9 8 5 -4 12 0 14 6 4 8
8 5 12 -9 4 -11 17 -24 28 -28 22 -8 22 -8 -1 -12 -13 -3 -30 1 -39 9 -14 11
-16 11 -10 -4 9 -24 -6 -30 -31 -12 -14 9 -21 24 -20 39 3 29 13 32 27 8z m54
-83 c-4 -14 -14 -20 -35 -20 -17 0 -27 4 -23 10 3 6 12 10 20 10 7 0 16 7 19
16 8 22 25 8 19 -16z"/>
<path d="M9713 12423 c-16 -6 -17 -33 -3 -33 11 0 26 28 19 34 -2 2 -10 1 -16
-1z"/>
<path d="M9755 12390 c-3 -5 -2 -10 4 -10 5 0 13 5 16 10 3 6 2 10 -4 10 -5 0
-13 -4 -16 -10z"/>
<path d="M9642 12351 c-13 -22 -35 -49 -50 -60 -21 -16 -23 -20 -9 -21 9 0 17
4 17 9 0 5 9 12 19 16 24 7 65 75 53 87 -4 4 -18 -9 -30 -31z"/>
<path d="M9700 12355 c-10 -12 -10 -15 3 -15 8 0 17 7 21 15 3 8 2 15 -3 15
-5 0 -14 -7 -21 -15z"/>
<path d="M8480 12343 c0 -8 12 -25 28 -38 15 -13 21 -25 15 -25 -18 0 -16 -20
1 -20 36 0 17 86 -21 93 -15 3 -23 -1 -23 -10z"/>
<path d="M9530 12255 c0 -8 -9 -15 -20 -15 -23 0 -27 -25 -6 -33 10 -4 13 -1
9 9 -3 8 1 14 10 14 8 0 17 9 20 20 3 11 1 20 -4 20 -5 0 -9 -7 -9 -15z"/>
<path d="M8480 12225 c0 -8 7 -15 15 -15 8 0 15 4 15 9 0 5 -7 11 -15 15 -9 3
-15 0 -15 -9z"/>
<path d="M6881 12209 c5 -11 15 -17 20 -13 6 3 13 -3 16 -15 7 -27 19 -27 26
0 4 14 2 19 -8 15 -7 -2 -16 1 -18 8 -3 7 -15 16 -26 19 -18 4 -19 2 -10 -14z"/>
<path d="M6818 12203 c6 -2 18 -2 25 0 6 3 1 5 -13 5 -14 0 -19 -2 -12 -5z"/>
<path d="M6166 12182 c-3 -6 -1 -14 5 -17 15 -10 25 3 12 16 -7 7 -13 7 -17 1z"/>
<path d="M6621 12160 c-23 -20 -23 -20 -2 -20 12 0 21 5 21 12 0 6 8 3 20 -7
18 -16 20 -16 26 -1 3 9 11 13 18 9 6 -3 7 -2 3 2 -4 5 -13 10 -20 11 -7 1
-19 5 -27 8 -8 3 -26 -3 -39 -14z"/>
<path d="M6740 12096 c0 -2 8 -10 18 -17 15 -13 16 -12 3 4 -13 16 -21 21 -21
13z"/>
<path d="M6850 11995 c0 -2 10 -10 23 -16 20 -11 21 -11 8 4 -13 16 -31 23
-31 12z"/>
<path d="M4448 11767 c-4 -21 -2 -22 18 -13 17 8 20 14 12 23 -16 19 -25 16
-30 -10z"/>
<path d="M4275 11740 c-3 -5 3 -10 14 -10 12 0 21 5 21 10 0 6 -6 10 -14 10
-8 0 -18 -4 -21 -10z"/>
<path d="M7601 11544 c0 -11 3 -14 6 -6 3 7 2 16 -1 19 -3 4 -6 -2 -5 -13z"/>
<path d="M9037 11012 c3 -9 13 -25 21 -34 13 -16 13 -18 -2 -24 -9 -3 -27 -7
-40 -8 -21 -1 -23 -3 -12 -16 14 -17 10 -160 -5 -160 -5 0 -6 -7 -2 -16 3 -9
0 -20 -7 -24 -11 -7 -11 -14 -2 -35 10 -22 9 -26 -6 -31 -42 -14 -82 -36 -82
-44 0 -6 -12 -10 -27 -10 -27 0 -26 -2 27 -49 52 -46 53 -49 33 -59 -36 -20
-113 -43 -122 -38 -5 3 -11 -1 -15 -9 -4 -10 1 -15 15 -15 17 0 19 -6 17 -37
-3 -36 -1 -38 28 -41 28 -3 33 -8 39 -40 9 -52 50 -112 77 -112 31 0 108 -41
109 -59 1 -9 1 -24 0 -33 -1 -9 7 -22 18 -28 12 -6 21 -18 21 -28 0 -23 33
-43 51 -31 45 28 80 -17 53 -69 -8 -16 -24 -32 -35 -35 -18 -5 -19 -9 -9 -27
9 -16 9 -25 0 -35 -18 -22 -8 -60 16 -60 11 0 29 -6 38 -14 13 -11 22 -12 34
-4 14 9 25 3 60 -33 42 -44 50 -66 33 -93 -6 -9 -18 -11 -38 -7 -25 6 -31 3
-43 -21 -8 -15 -16 -30 -17 -32 -1 -2 -8 1 -15 6 -20 16 -95 26 -103 14 -3 -6
-17 -8 -31 -5 -17 4 -26 1 -30 -10 -3 -9 -15 -16 -25 -16 -12 0 -19 -7 -19
-18 0 -13 -16 -23 -64 -37 -61 -18 -63 -20 -50 -39 16 -23 19 -112 4 -121 -6
-3 -8 -16 -4 -29 4 -17 0 -25 -17 -32 -13 -6 -35 -33 -49 -60 -15 -27 -37 -54
-49 -60 l-22 -12 25 -20 c16 -12 26 -30 26 -46 0 -27 15 -36 23 -13 2 6 7 9
11 5 10 -8 -25 -49 -36 -42 -4 3 -8 0 -8 -5 0 -6 -9 -11 -20 -11 -15 0 -20 -7
-20 -25 0 -30 4 -31 45 -5 l33 20 6 -26 c5 -20 12 -25 27 -21 49 13 178 -62
194 -113 4 -14 15 -20 36 -20 16 0 29 5 29 10 0 7 6 7 18 2 9 -5 23 -7 30 -5
6 3 12 0 12 -7 0 -6 -5 -8 -11 -4 -13 8 -11 1 16 -43 12 -20 27 -31 39 -30 14
1 22 -7 28 -30 5 -18 14 -33 21 -33 18 0 69 -55 67 -71 -2 -8 -2 -18 -1 -24 2
-14 61 -15 61 -1 1 6 14 -5 31 -24 24 -28 27 -36 14 -38 -10 -2 -14 -10 -11
-19 3 -8 6 -17 6 -20 0 -3 14 10 32 28 33 35 37 63 18 128 -4 16 -4 34 0 41 5
7 4 25 -1 39 -8 20 -7 28 7 38 10 7 15 20 11 33 -3 11 -1 20 3 20 16 0 21 -19
11 -38 -14 -26 1 -48 19 -27 7 8 23 15 36 15 12 0 40 16 61 35 21 19 43 35 49
35 6 0 17 7 24 15 11 14 15 14 30 0 12 -11 24 -13 49 -5 23 6 40 6 55 -2 11
-7 32 -11 46 -10 30 3 42 -5 57 -38 11 -24 12 -25 12 -2 1 12 6 22 13 22 17 0
68 51 68 68 0 11 6 12 23 6 12 -4 67 -7 121 -5 87 2 103 5 130 26 30 23 35 23
105 14 79 -11 106 -2 96 32 -5 16 -1 19 24 19 16 0 33 5 36 10 3 6 17 7 30 4
24 -6 29 -3 68 42 17 20 17 23 1 51 -17 29 -17 31 7 56 19 20 34 26 74 27 28
1 55 1 60 0 6 -1 14 -2 18 -1 4 1 16 -3 27 -9 15 -8 20 -6 25 11 4 11 16 24
27 28 25 9 34 67 12 75 -8 3 -14 14 -14 23 0 19 -32 53 -50 53 -11 0 -45 35
-68 69 -12 18 -13 26 -4 29 15 5 -10 32 -29 32 -7 0 -4 -6 7 -15 12 -9 14 -14
6 -15 -8 0 -24 -8 -37 -19 -19 -14 -21 -21 -12 -31 9 -10 9 -14 0 -17 -7 -3
-13 -11 -13 -19 0 -8 -4 -14 -10 -14 -18 0 -60 -43 -60 -62 0 -10 -11 -31 -25
-45 -23 -26 -25 -26 -43 -10 -19 17 -20 17 -25 -4 -7 -26 2 -47 12 -30 5 7 15
3 31 -11 21 -19 22 -23 8 -26 -10 -2 -15 -9 -11 -18 3 -8 -1 -14 -11 -14 -9 0
-16 -4 -16 -10 0 -5 -12 -13 -27 -16 -16 -4 -36 -16 -45 -27 -18 -20 -18 -20
-38 6 -12 15 -27 24 -35 20 -8 -3 -15 0 -15 6 0 6 -7 8 -15 5 -10 -4 -15 0
-15 12 0 15 -2 16 -9 6 -6 -10 -10 -7 -15 12 -3 14 -10 26 -14 26 -14 0 -70
56 -76 77 -7 21 -7 21 -32 -4 -23 -23 -30 -25 -88 -18 -35 3 -92 16 -127 28
-57 20 -65 26 -87 70 -27 51 -41 59 -49 27 -3 -11 -9 -17 -14 -14 -5 3 -9 -1
-9 -9 0 -7 -11 -20 -25 -27 -14 -7 -25 -17 -25 -22 0 -10 -44 -11 -54 0 -10 9
-66 9 -66 0 0 -4 -7 -5 -15 -2 -9 4 -16 -3 -20 -19 -8 -30 -53 -42 -105 -27
-19 5 -43 7 -52 4 -22 -7 -36 22 -19 39 6 6 11 19 11 29 0 10 7 21 15 24 10 4
15 19 15 43 0 46 -15 64 -40 48 -28 -17 -50 7 -50 54 0 26 6 41 18 48 9 6 13
11 8 11 -5 0 -3 7 4 15 7 8 9 15 5 15 -5 0 2 8 13 19 24 20 29 41 10 41 -7 0
-18 12 -25 26 -11 23 -9 29 14 50 20 19 24 29 19 51 -4 16 -7 38 -7 50 1 13
-5 22 -11 20 -7 -1 -13 9 -15 23 -4 41 -26 145 -32 150 -3 3 -20 24 -38 46
-22 28 -29 44 -21 52 7 7 3 25 -11 57 -12 26 -21 58 -21 70 0 12 -9 30 -20 40
-11 10 -20 31 -20 47 0 28 -15 68 -30 78 -8 5 -32 58 -61 135 -22 59 -22 58
-6 49 8 -6 8 -3 -2 9 -11 14 -11 26 -1 68 11 46 11 54 -4 64 -9 7 -16 24 -16
39 0 15 -4 25 -9 22 -17 -11 -36 4 -56 42 -11 20 -31 46 -45 58 -21 19 -23 25
-13 47 11 23 10 27 -7 32 -10 3 -17 11 -14 18 2 7 -5 18 -16 24 -17 11 -18 10
-13 -5z"/>
<path d="M11325 9430 c-4 -18 -11 -28 -18 -23 -6 3 -30 7 -54 7 -35 1 -42 -2
-37 -14 4 -8 7 -21 7 -28 0 -7 7 -10 14 -7 8 3 18 5 23 5 5 0 16 7 24 16 15
14 19 13 45 -5 16 -12 36 -21 44 -21 8 0 20 -7 27 -15 7 -8 22 -14 34 -14 11
0 30 -1 41 -3 12 -2 19 2 18 10 -2 6 3 12 10 12 6 0 -2 9 -19 20 -24 16 -37
18 -63 10 -29 -8 -36 -6 -56 16 -13 14 -21 32 -19 39 3 7 1 16 -5 19 -5 3 -12
-7 -16 -24z"/>
<path d="M11523 9322 c10 -10 17 -26 17 -35 0 -25 -22 -32 -37 -12 -12 18 -13
18 -13 -3 0 -12 -11 -29 -25 -38 -18 -12 -24 -22 -19 -36 4 -14 -3 -29 -24
-52 -17 -17 -32 -40 -34 -51 -2 -15 -10 -19 -27 -17 l-24 4 21 -36 c12 -20 19
-36 17 -36 -2 0 -21 11 -41 25 -30 21 -40 23 -58 13 -29 -16 -74 -10 -113 14
-21 12 -33 15 -33 8 0 -8 -6 -9 -17 -5 -10 4 -27 7 -38 7 -11 -1 -30 8 -42 20
-17 16 -26 18 -36 9 -10 -8 -29 -8 -68 -1 -30 6 -73 8 -96 4 -37 -5 -43 -10
-43 -30 0 -18 -5 -24 -22 -24 -13 0 -30 -5 -38 -10 -12 -7 -11 -13 10 -34 28
-31 40 -33 47 -6 3 11 8 20 12 20 10 0 104 -101 113 -120 5 -12 7 -11 7 4 1
18 2 18 21 1 16 -14 22 -15 35 -5 12 10 21 8 51 -15 19 -15 38 -24 41 -21 4 3
13 0 22 -8 20 -18 77 -33 67 -18 -14 23 6 42 45 42 30 0 39 4 39 17 0 15 1 15
18 0 10 -10 25 -17 32 -17 7 0 28 -11 46 -25 44 -33 87 -32 54 1 -12 12 -3 44
11 44 4 0 6 7 2 16 -3 9 -1 19 6 23 8 5 6 15 -9 34 l-21 27 24 0 c18 0 27 -7
31 -24 3 -14 20 -30 41 -40 19 -9 35 -23 35 -29 0 -9 11 -12 35 -9 28 3 35 9
35 26 1 19 2 19 11 4 13 -22 35 -23 47 -2 7 13 13 14 31 5 12 -7 30 -10 40 -6
25 7 39 -12 43 -60 3 -35 7 -40 35 -49 18 -5 35 -17 39 -28 3 -11 22 -23 50
-30 36 -10 44 -16 44 -36 0 -13 4 -20 10 -17 6 4 26 -7 46 -24 24 -21 45 -31
68 -31 20 0 40 -8 51 -20 10 -11 24 -20 31 -20 7 0 22 -13 34 -30 12 -16 30
-30 41 -30 10 0 19 -6 19 -14 0 -16 37 -46 57 -46 22 0 27 48 8 76 -14 21 -22
25 -46 20 -32 -6 -44 6 -30 31 7 13 5 21 -7 30 -11 8 -13 12 -4 13 10 0 9 7
-3 29 -10 20 -11 31 -4 33 15 5 2 48 -15 48 -7 0 -21 9 -31 20 -10 11 -24 20
-30 20 -7 0 -16 7 -19 16 -4 9 -9 14 -13 11 -3 -4 -14 -2 -24 4 -15 7 -21 6
-25 -5 -3 -8 -18 -19 -34 -25 -27 -9 -32 -6 -79 47 -51 57 -60 75 -41 87 6 3
10 17 10 31 0 21 -5 24 -35 24 -19 0 -35 4 -35 9 0 5 -11 23 -25 39 -18 21
-24 39 -22 70 1 27 -5 47 -17 61 -10 11 -16 24 -13 28 3 5 -1 23 -10 40 -13
27 -22 33 -61 39 -30 4 -47 3 -50 -4 -5 -17 -32 -2 -32 18 0 11 -12 22 -31 29
-45 16 -55 14 -36 -7z"/>
<path d="M8736 9125 c-4 -11 -12 -14 -26 -10 -11 3 -20 2 -20 -3 0 -5 -15 -9
-32 -8 -40 3 -80 -13 -71 -27 4 -6 0 -8 -10 -4 -10 4 -16 2 -14 -6 1 -6 -8
-13 -20 -15 -13 -2 -23 -7 -23 -11 0 -10 -81 -8 -98 3 -9 5 -12 -5 -12 -38 0
-25 -4 -47 -9 -50 -10 -6 9 -56 21 -56 4 0 16 -10 28 -22 l20 -22 11 32 c11
33 23 40 34 22 12 -20 31 -9 43 24 19 52 46 70 125 81 62 9 72 13 69 29 -3 13
1 17 11 13 9 -3 18 1 21 9 3 8 2 14 -2 14 -5 0 -8 12 -8 27 1 31 -28 44 -38
18z"/>
<path d="M8400 8870 c-2 -18 -4 -20 -7 -7 -2 9 -9 17 -14 17 -6 0 -7 -4 -4
-10 3 -5 1 -10 -4 -10 -6 0 -11 -4 -11 -10 0 -5 9 -10 20 -10 22 0 35 21 27
42 -3 7 -6 2 -7 -12z"/>
<path d="M13687 8787 c-9 -19 -17 -41 -17 -49 0 -8 -11 -25 -25 -38 -14 -13
-25 -32 -25 -42 0 -10 -7 -21 -16 -25 -12 -4 -14 -14 -9 -41 3 -19 11 -43 18
-53 9 -14 8 -22 -5 -36 -14 -15 -14 -21 -4 -35 16 -22 36 -23 36 -2 0 9 5 12
13 8 6 -4 9 -4 5 1 -16 17 11 41 43 39 20 -1 43 5 57 17 14 10 31 19 39 19 7
0 16 7 19 15 4 8 14 15 24 15 10 0 21 7 24 16 9 22 0 30 -18 15 -11 -9 -16 -9
-22 0 -4 7 -3 14 3 16 6 2 18 9 27 16 16 12 16 15 -1 45 -10 17 -26 32 -36 32
-10 0 -39 23 -66 51 l-47 52 -17 -36z"/>
<path d="M14410 8719 c0 -6 -8 -9 -18 -7 -28 8 -45 -17 -30 -42 11 -18 10 -23
-6 -35 -16 -12 -17 -17 -6 -30 23 -27 0 -30 -45 -6 -33 18 -53 22 -79 17 -28
-5 -40 -2 -56 14 -25 25 -36 25 -43 0 -4 -18 -8 -18 -37 -8 -25 8 -41 8 -66
-1 -19 -7 -38 -9 -44 -6 -5 3 -10 1 -10 -4 0 -16 -29 -13 -47 4 -21 21 -35 15
-45 -20 -11 -42 19 -97 58 -107 22 -5 33 -17 42 -42 9 -23 18 -33 27 -30 7 3
25 -2 40 -12 15 -9 45 -18 68 -18 35 -1 43 -5 60 -34 l19 -33 -26 7 c-22 5
-26 3 -26 -14 0 -20 18 -32 50 -32 22 0 33 -26 20 -50 -7 -13 -6 -19 5 -23 22
-9 89 5 98 20 4 7 15 13 22 13 8 0 15 5 15 10 0 15 32 12 54 -5 13 -10 24 -11
37 -4 13 7 38 6 77 -2 33 -7 67 -9 78 -4 10 4 28 7 39 7 32 -3 75 45 75 84 0
10 5 14 15 10 9 -3 25 0 37 7 16 9 22 9 25 0 5 -15 33 -18 33 -4 0 5 18 11 39
15 21 3 41 12 43 18 17 50 -21 128 -61 128 -12 0 -31 5 -44 12 -12 6 -29 14
-37 18 -8 4 -19 23 -24 43 -7 25 -15 37 -27 37 -10 0 -30 11 -45 25 -15 14
-22 25 -16 25 6 0 9 7 5 15 -3 9 -11 14 -17 12 -6 -3 -19 3 -29 11 -14 13 -17
13 -12 1 8 -21 -41 -41 -56 -22 -7 8 -16 10 -21 5 -14 -14 -57 -2 -68 18 -11
21 -40 34 -40 19z m-5 -128 c3 -5 1 -12 -4 -15 -5 -3 -11 1 -15 9 -6 16 9 21
19 6z"/>
<path d="M9480 8465 c-17 -44 -20 -78 -8 -92 18 -22 28 -14 16 12 -10 21 -8
27 7 39 13 9 15 15 6 20 -6 4 -9 16 -6 27 9 28 -4 23 -15 -6z"/>
<path d="M12310 8451 c0 -5 5 -13 11 -17 7 -4 9 -22 5 -48 -17 -122 -18 -143
-2 -196 9 -29 16 -55 16 -57 0 -2 -9 -3 -21 -3 -21 0 -21 -1 4 -43 21 -35 25
-55 24 -113 -1 -71 -1 -71 -29 -72 -15 0 -30 4 -33 9 -14 21 -35 8 -35 -21 0
-22 -4 -28 -15 -24 -11 5 -15 -1 -15 -25 0 -21 -5 -31 -15 -31 -18 0 -18 -5
-4 -31 7 -15 6 -27 -4 -48 -9 -18 -10 -28 -3 -29 6 -1 22 -3 35 -5 14 -2 27
-10 29 -18 3 -8 11 -18 19 -22 21 -13 45 -78 33 -92 -7 -9 -6 -16 5 -25 9 -8
15 -29 15 -56 0 -25 6 -49 15 -58 20 -20 75 -30 114 -21 23 5 37 1 57 -14 23
-18 29 -19 53 -7 14 8 39 12 55 9 20 -4 31 -1 38 11 11 20 32 21 51 2 23 -23
55 -10 49 20 -4 20 -1 24 16 21 11 -2 26 -8 34 -15 25 -20 157 -16 171 6 4 6
16 12 26 12 10 0 23 10 28 23 7 14 27 28 52 37 25 8 41 19 41 29 0 9 7 27 16
39 8 12 11 22 7 22 -5 0 -14 -10 -22 -21 -10 -17 -15 -19 -21 -9 -11 17 -43
22 -51 8 -4 -6 -15 -8 -25 -3 -13 5 -15 9 -7 12 10 3 10 10 2 24 -5 11 -14 17
-20 14 -5 -4 -9 0 -9 8 0 9 10 14 30 13 16 -1 30 -4 30 -8 0 -14 58 -8 63 6 7
18 -30 28 -72 20 l-32 -7 7 43 c6 35 4 45 -11 56 -10 7 -19 27 -20 44 -5 66
-30 50 -47 -30 -11 -57 -13 -59 -37 -53 -14 3 -37 13 -50 22 -21 14 -22 15 -5
21 15 6 12 11 -24 35 -23 15 -42 33 -42 41 0 7 -11 25 -24 41 -32 38 -43 80
-23 85 12 2 13 9 3 38 -9 27 -16 34 -34 33 -12 -2 -22 2 -22 7 0 12 -87 100
-103 103 -17 3 -47 42 -47 61 0 23 -30 66 -45 66 -28 0 -75 52 -81 90 -3 20
-9 41 -13 46 -11 16 -91 55 -91 45z m635 -792 c11 -17 -1 -21 -15 -4 -8 9 -8
15 -2 15 6 0 14 -5 17 -11z"/>
<path d="M13644 8397 c4 -18 1 -23 -14 -24 -11 -1 -20 4 -20 12 0 10 -12 13
-40 12 -36 -1 -39 -3 -34 -24 4 -14 2 -23 -5 -23 -6 0 -11 -6 -11 -14 0 -9 -7
-12 -19 -9 -22 6 -36 -24 -20 -43 8 -10 8 -14 0 -14 -6 0 -11 -10 -11 -23 0
-13 -3 -27 -7 -31 -11 -10 -13 -69 -3 -81 4 -5 11 -20 14 -32 6 -18 3 -23 -10
-23 -16 0 -16 -1 2 -15 10 -8 28 -15 40 -15 36 0 71 -53 42 -62 -9 -3 -7 -10
6 -23 17 -17 17 -20 2 -30 -9 -7 -16 -17 -16 -23 0 -15 -40 -42 -62 -42 -10 0
-26 9 -35 20 -10 11 -25 20 -35 20 -10 0 -18 5 -18 10 0 6 -9 10 -20 10 -11 0
-20 -5 -20 -11 0 -6 -8 -8 -17 -5 -13 4 -23 -3 -35 -24 -9 -17 -24 -30 -33
-30 -19 0 -19 -14 -1 -29 14 -11 17 -84 4 -97 -4 -3 -16 -1 -27 5 -17 10 -23
7 -37 -14 -21 -33 -15 -38 20 -19 16 8 37 12 47 9 9 -3 20 -1 24 5 10 16 25 1
25 -26 0 -18 6 -24 23 -25 90 -6 109 -4 114 8 4 10 13 8 37 -10 45 -34 61 -42
52 -29 -4 7 -3 12 3 12 5 0 13 -4 16 -10 12 -19 26 -11 16 9 -10 17 -6 19 42
23 28 2 57 1 62 -2 34 -22 139 -59 148 -53 7 4 22 6 34 5 13 -2 27 5 37 19 14
21 16 21 41 5 21 -14 32 -15 62 -7 21 6 40 7 43 2 3 -5 16 -12 28 -16 23 -7
52 -57 52 -90 0 -18 47 -65 65 -65 7 0 18 -7 25 -15 7 -8 21 -15 31 -15 11 0
19 -4 19 -9 0 -5 3 -17 7 -27 5 -14 2 -16 -21 -12 -25 5 -27 3 -23 -18 2 -13
0 -25 -4 -26 -5 -2 -2 -15 6 -30 7 -16 11 -28 8 -28 -3 0 2 -9 12 -20 18 -19
17 -20 -7 -20 -14 0 -31 7 -38 15 -7 8 -18 15 -24 15 -6 0 -18 19 -26 43 -14
40 -17 42 -65 48 -27 3 -58 9 -69 14 -11 5 -21 3 -26 -5 -14 -23 -48 6 -55 50
-8 46 -7 45 -57 54 -37 7 -38 6 -38 -24 0 -23 5 -33 20 -37 11 -3 20 -14 20
-25 0 -16 -3 -17 -20 -8 -14 8 -20 8 -20 0 0 -7 -14 -10 -32 -8 -25 2 -34 8
-36 26 -2 13 -10 22 -22 22 -10 0 -27 15 -39 33 -11 17 -21 28 -21 23 0 -14
-40 25 -40 40 0 7 -8 10 -19 7 -13 -3 -26 5 -43 27 -27 37 -74 65 -83 50 -9
-15 -37 -12 -77 9 -31 15 -38 16 -42 4 -4 -8 -4 -19 0 -24 3 -5 1 -9 -4 -9 -6
0 -8 -9 -5 -21 4 -14 12 -19 24 -16 10 3 20 0 23 -7 2 -6 5 -4 5 5 1 18 29 21
49 6 17 -14 15 -37 -4 -37 -11 0 -15 -6 -11 -20 4 -17 0 -20 -24 -20 -26 0
-32 -6 -49 -44 -10 -24 -23 -47 -30 -51 -18 -11 -8 -98 13 -114 12 -9 17 -22
14 -37 -3 -17 1 -25 14 -29 11 -4 19 -11 19 -17 0 -5 15 -29 32 -51 22 -28 27
-39 15 -34 -12 5 -17 1 -17 -12 0 -21 -22 -33 -45 -25 -17 7 -20 -13 -5 -36 9
-13 11 -13 19 0 9 12 11 12 17 -3 3 -9 12 -17 19 -17 6 0 20 -9 30 -20 22 -24
60 -23 60 2 0 27 13 33 33 15 10 -10 22 -14 25 -10 4 3 7 3 7 0 0 -10 -39 -47
-49 -47 -5 0 -12 -7 -15 -16 -4 -10 11 -32 43 -63 39 -38 48 -53 44 -73 -7
-38 21 -85 56 -93 32 -7 64 -37 90 -86 11 -20 26 -34 37 -34 11 0 24 -9 29
-20 11 -21 65 -34 65 -15 0 7 8 5 22 -4 29 -21 84 -21 92 -1 5 14 13 12 52
-11 44 -26 50 -27 101 -16 29 6 60 9 68 5 19 -6 19 -4 0 40 -8 19 -22 37 -31
41 -27 10 1 33 51 40 25 4 46 10 49 14 5 8 -8 78 -19 105 -5 13 -3 16 8 11 17
-6 32 11 17 21 -6 4 -4 15 6 31 9 13 20 39 23 57 5 21 14 33 26 36 31 5 45 21
45 50 0 21 5 26 25 26 14 0 25 -3 25 -7 0 -8 47 -4 57 5 3 4 13 1 21 -6 12 -9
16 -9 19 0 2 7 11 9 18 7 9 -4 16 3 21 20 7 30 34 34 60 9 13 -13 18 -15 22
-5 3 9 8 10 17 2 16 -13 60 2 68 24 4 9 15 16 26 16 28 0 64 49 56 77 -4 17
-2 21 9 17 8 -3 17 -1 21 5 13 22 70 11 120 -23 l50 -34 3 23 c2 13 -4 37 -13
54 -8 17 -17 44 -19 61 -2 16 -8 35 -13 42 -6 7 -16 30 -22 50 -13 38 -65 111
-73 102 -10 -9 -26 21 -33 60 -6 31 -5 37 5 31 9 -6 11 -4 5 5 -5 8 1 19 16
31 15 12 20 22 14 26 -6 5 -15 22 -21 38 -8 23 -15 29 -33 27 -23 -2 -59 32
-53 51 2 7 -23 11 -43 7 -5 -1 -7 1 -3 5 4 4 2 18 -3 32 -8 22 -7 25 10 20 14
-3 17 0 13 15 -3 11 3 24 13 32 13 9 15 15 7 20 -7 4 -12 4 -12 1 0 -3 -9 3
-20 13 -12 11 -19 29 -18 43 2 18 -2 25 -20 27 -12 2 -26 12 -32 22 -6 12 -17
16 -30 13 -18 -5 -25 5 -21 30 1 7 -15 11 -38 7 -8 -1 -17 2 -20 7 -9 13 -49
33 -65 33 -9 0 -12 -7 -9 -19 3 -11 -7 -36 -22 -60 -17 -25 -25 -49 -22 -61 3
-11 1 -20 -4 -20 -5 0 -9 -6 -9 -14 0 -19 -28 -28 -50 -16 -13 7 -19 6 -24 -5
-6 -17 -43 -20 -65 -6 -21 14 -52 -9 -45 -33 5 -15 2 -18 -14 -14 -13 4 -23 0
-26 -8 -3 -8 -13 -14 -22 -14 -10 0 -25 -7 -35 -16 -12 -11 -43 -17 -104 -19
-49 -2 -92 -9 -101 -16 -8 -6 -37 -14 -65 -17 -40 -4 -56 0 -77 15 -34 25
-109 38 -115 20 -3 -9 -7 -9 -20 2 -14 11 -20 11 -32 1 -9 -7 -13 -20 -10 -29
4 -11 0 -10 -17 4 -13 11 -25 22 -28 24 -3 2 5 2 17 -1 21 -6 21 -5 7 18 -9
13 -13 28 -9 33 3 6 -1 24 -10 41 -15 30 -15 31 19 60 19 17 40 49 49 75 13
41 13 46 -2 55 -14 9 -14 11 3 25 11 8 26 15 34 15 8 0 12 6 9 13 -2 6 -1 21
3 32 4 11 4 25 -1 31 -5 6 -3 30 5 58 13 43 13 48 -3 58 -11 7 -16 20 -13 42
3 22 -2 37 -17 50 -12 11 -21 27 -21 37 0 10 -14 24 -31 33 -30 15 -31 15 -25
-7z m1108 -569 c18 -15 31 -48 19 -48 -5 0 -16 -3 -24 -6 -11 -4 -16 4 -19 30
-4 39 0 43 24 24z m-457 -598 c3 -5 1 -10 -4 -10 -6 0 -11 5 -11 10 0 6 2 10
4 10 3 0 8 -4 11 -10z m169 -81 c-6 -11 -24 -2 -24 11 0 5 7 7 15 4 8 -4 12
-10 9 -15z"/>
<path d="M13290 8386 c-19 -7 -49 -12 -67 -11 -21 1 -30 -2 -26 -10 2 -7 -4
-30 -13 -51 -10 -22 -19 -56 -20 -77 -1 -24 -11 -48 -24 -62 -12 -13 -19 -28
-16 -33 6 -10 90 -27 117 -23 8 1 30 -14 47 -33 20 -22 38 -33 47 -30 20 8 19
30 -2 38 -14 6 -14 8 3 21 10 8 29 15 41 15 29 0 56 28 47 49 -3 9 -8 27 -9
39 -5 32 -8 34 -38 23 -22 -8 -28 -7 -35 7 -5 9 -7 22 -5 29 2 6 -1 14 -6 18
-14 8 -14 45 -1 45 6 0 10 14 10 30 0 33 -1 34 -50 16z"/>
<path d="M15044 7900 c-12 -5 -25 -13 -29 -19 -3 -6 -15 -11 -25 -11 -17 0
-18 -4 -10 -26 13 -34 13 -34 -9 -34 -10 0 -24 -7 -31 -15 -7 -8 -17 -12 -24
-8 -6 3 -8 3 -4 -2 4 -4 3 -14 -3 -22 -9 -11 0 -13 49 -13 53 0 63 3 80 25 15
19 29 25 60 25 29 0 48 7 71 27 37 32 39 50 9 62 -39 14 -112 20 -134 11z"/>
<path d="M11607 7741 c-3 -15 -3 -38 0 -51 4 -16 3 -21 -5 -16 -24 15 -25 -28
-3 -67 28 -47 22 -106 -10 -114 -16 -5 -19 -11 -14 -35 l7 -30 -26 17 c-14 10
-26 21 -26 25 0 4 -7 10 -15 14 -9 3 -15 0 -15 -9 0 -8 7 -15 15 -15 8 0 15
-5 15 -10 0 -6 -6 -10 -12 -9 -7 1 -22 -1 -33 -5 -11 -5 -26 -10 -34 -12 -19
-6 1 -27 31 -31 32 -5 33 -10 13 -51 -10 -20 -20 -40 -21 -44 -1 -5 -3 -11 -4
-15 -2 -5 -3 -17 -4 -28 -1 -14 -11 -21 -41 -27 -54 -12 -65 -25 -31 -38 42
-15 77 -13 70 5 -8 21 2 19 36 -7 24 -17 32 -19 44 -8 9 7 23 10 31 6 8 -3 19
-6 23 -7 16 -2 32 -22 32 -40 0 -11 3 -19 8 -20 4 0 41 -1 83 -3 71 -2 79 -5
103 -32 29 -34 32 -44 11 -44 -12 0 -13 -4 -6 -19 7 -12 22 -19 43 -20 47 0
74 -7 122 -31 47 -22 77 -25 92 -10 8 8 15 6 24 -5 7 -8 18 -15 25 -15 7 0 15
-6 18 -14 3 -8 14 -12 25 -9 14 3 18 11 14 28 -3 17 3 28 20 39 25 16 28 32
14 75 -9 25 9 71 28 71 16 1 50 29 43 36 -7 7 -80 -15 -88 -28 -8 -12 -39 1
-39 17 0 7 7 18 16 26 8 7 13 21 11 31 -3 10 -1 18 4 18 6 0 5 8 -1 20 -9 17
-7 22 15 30 28 11 30 17 15 56 -9 22 -8 29 5 36 8 5 15 16 15 24 0 8 5 12 10
9 6 -4 22 5 36 19 l26 25 -20 28 c-11 15 -20 30 -20 33 -2 21 -17 39 -36 44
-13 3 -34 16 -47 29 -17 17 -30 22 -44 17 -23 -8 -85 17 -85 35 0 6 -11 21
-25 33 -24 21 -36 50 -15 37 6 -3 10 -2 10 4 0 5 2 16 5 23 8 20 -61 21 -98 1
-23 -11 -31 -12 -43 -2 -8 7 -42 13 -74 14 -32 1 -66 8 -74 15 -12 10 -16 10
-16 0 0 -7 -7 -10 -15 -6 -8 3 -15 2 -15 -2 0 -4 -4 -13 -9 -21 -7 -11 -15 -9
-43 13 -19 14 -37 26 -40 26 -3 0 -8 -13 -11 -29z"/>
<path d="M14866 7731 c-3 -5 1 -11 9 -15 9 -3 15 0 15 9 0 16 -16 20 -24 6z"/>
<path d="M13140 7649 c0 -5 5 -7 10 -4 6 3 10 8 10 11 0 2 -4 4 -10 4 -5 0
-10 -5 -10 -11z"/>
<path d="M13190 7645 c0 -13 4 -14 23 -4 33 17 33 19 4 19 -18 0 -27 -5 -27
-15z"/>
<path d="M15267 7473 c-4 -3 -2 -12 4 -19 12 -15 -17 -74 -36 -74 -14 0 -18
-47 -4 -55 9 -6 -34 -55 -48 -55 -4 0 -17 9 -29 21 -17 16 -30 19 -53 14 -31
-7 -55 -45 -32 -53 8 -3 8 -9 0 -24 -8 -15 -7 -24 7 -39 10 -11 24 -17 31 -15
16 6 43 -32 36 -50 -3 -9 1 -14 11 -14 11 0 16 -7 14 -17 -2 -13 5 -19 25 -21
35 -4 67 22 67 54 0 15 7 24 21 26 12 2 31 15 42 30 17 23 19 31 9 53 -11 23
-9 25 11 25 24 0 53 49 44 74 -3 7 -1 18 5 24 6 6 6 12 -1 16 -15 10 -14 46 1
46 6 0 3 6 -8 14 -12 9 -23 11 -28 5 -6 -5 -19 -9 -30 -9 -10 0 -16 3 -13 7 4
3 0 15 -10 25 -17 19 -26 22 -36 11z"/>
<path d="M11400 7438 c0 -7 5 -20 10 -28 8 -12 10 -11 10 7 0 12 -4 25 -10 28
-5 3 -10 0 -10 -7z"/>
<path d="M11341 7178 c9 -16 9 -23 1 -26 -15 -5 4 -42 21 -42 11 1 53 49 45
53 -1 2 -20 10 -41 20 l-38 17 12 -22z"/>
<path d="M11297 7108 c-15 -5 -26 -15 -24 -21 6 -19 28 -14 45 11 8 12 13 22
11 21 -2 0 -17 -5 -32 -11z"/>
<path d="M15117 7096 c-6 -15 13 -66 24 -66 7 0 -6 68 -14 76 -2 3 -7 -2 -10
-10z"/>
<path d="M15136 6995 c4 -8 8 -15 10 -15 2 0 4 7 4 15 0 8 -4 15 -10 15 -5 0
-7 -7 -4 -15z"/>
<path d="M15120 6947 c0 -8 -7 -20 -15 -27 -11 -9 -12 -17 -4 -31 5 -11 7 -30
3 -42 -5 -20 -5 -20 10 -7 8 8 17 33 19 55 2 31 7 40 20 39 26 -3 15 20 -11
24 -14 2 -22 -2 -22 -11z"/>
<path d="M15071 6871 c-8 -6 -9 -11 -3 -15 6 -3 14 -1 17 5 9 14 2 20 -14 10z"/>
<path d="M15105 6789 c4 -13 2 -25 -5 -29 -14 -8 -7 -40 8 -40 11 0 24 69 16
82 -11 17 -25 7 -19 -13z"/>
<path d="M15060 6671 c0 -49 22 -71 37 -38 7 15 7 29 1 40 -5 10 -6 22 -3 27
3 6 -3 10 -14 10 -18 0 -21 -6 -21 -39z"/>
<path d="M13810 6556 c7 -7 13 -7 20 0 6 6 3 10 -10 10 -13 0 -16 -4 -10 -10z"/>
</g>
</svg>
