<svg version="1" xmlns="http://www.w3.org/2000/svg" width="1446.365" height="1066.838" viewBox="0 0 1084.774 800.128"><g fill="#222"><path d="M349.872.262c-.7.4-1.3 2.4-1.4 4.4-.1 2.7-.6 3.7-1.7 3.7-.9 0-1.2.3-.6.8.6.4 1.1 1.7 1.3 3 .3 2.1.1 2.2-1.7 1.2-1.2-.6-2.1-1.5-2.1-2.1 0-.6-.4-.8-.9-.5-.5.3-.7 1.4-.4 2.5.3 1-.6 3-2 4.7-2.2 2.5-2.7 2.7-5 1.7-2.9-1.3-3.7-.8-3.7 2.1 0 2.8-8.1 5-10.8 3-2.3-1.8-3.2-1.7-3.2.1 0 .9-.8 1.9-1.7 2.2-1 .4-2.1 1.1-2.5 1.7-.6.8-1.1.7-1.6-.2-.5-.7-1.9-1.1-3.3-1-1.7.2-2.4-.2-2.3-1.4.2-1.9-6.6-5.1-8.9-4.2-.8.3-2.3-.5-3.3-1.8-1.1-1.3-3.4-2.8-5.2-3.5-3.1-1.1-3.2-1-2.7.8.5 1.6.1 1.9-2.7 1.9-1.9 0-3.8.4-4.4.9-1.3 1.2-15.9-.6-19.5-2.5-2.9-1.4-3.2-1.4-4.5.3-.7 1-1.4 2.1-1.4 2.4 0 .3-2.2 1.7-5 3-2.7 1.3-5 2.7-5 3.1 0 .3-1.4 1.3-3.1 2.2-2.2 1.1-3.7 1.2-5.5.6-3.5-1.4-3.4-1.4-3.4 2.4 0 2.7-.7 3.8-3.8 6-2.1 1.4-4.3 2.6-5 2.6-.7 0-1.2.8-1.2 1.7-.1 2.4-6.4 6.3-10 6.3-1.6 0-3.5.6-4.2 1.4-2.3 2.3-7.8 2.6-9.1.4-.7-1-2.1-1.8-3.2-1.8-1.2 0-2.6-.5-3.2-1.1-1.1-1.1-8-.3-8.8 1.2-.3.4-1.2.6-2.1.2-.8-.3-2.5.4-3.7 1.5-1.2 1.1-4.3 2.3-7 2.6-3.5.5-5.2 1.4-6.4 3.2-1.4 2.3-1.4 2.6.2 4.4 1 1.1 2.6 2 3.6 2s2.1.4 2.4 1c.3.5 2 1.3 3.8 1.8 3 .8 3.1 1 3.3 6.8.1 3.3.7 7 1.3 8.2.9 1.8.9 2.2-.2 2.2-1.2 0-1.2.8-.4 4.2.5 2.4 1.2 5 1.5 5.8.5 1.7.9 3.3 1.5 7.1.2 1.5 1.1 3.7 2 5 1 1.3 1.7 3.6 1.7 5 0 2.2-.6 2.9-2.9 3.4-2.7.6-2.9.9-2.1 3 .6 1.7.5 3.3-.5 5.2-1.2 2.3-1.2 3.1-.1 4.8.7 1.1 1.5 3.7 1.9 5.7.5 3.1.2 3.9-1.9 5.3-2.2 1.4-2.4 2.2-2.2 7.3.3 5.4.5 5.9 3.5 7.4 2.9 1.6 3.2 1.6 4.9-.3 1.7-1.9 5-2.7 3.9-1-.3.6.4 1.5 1.5 2.1 1.4.7 1.9 1.7 1.5 2.9-.4 1.4.1 2 2.2 2.4 1.5.3 3.2.1 3.8-.4 1.7-1.6 2.3-1 3 3.1.4 2.2 1.1 4 1.6 4 1 0-1 4-2.4 5.1-.5.4 0 2.4 1.1 4.6 2 3.8 2 3.9.2 5.1-1.1.6-2.3 2.6-2.8 4.4-.6 2.4-1.4 3.2-2.7 3-1.4-.3-1.7.2-1.3 2.2.4 2.2.2 2.6-1.8 2.6-1.9 0-2.4.5-2.4 2.5 0 2.8-2.5 4.4-4.3 2.6-1.3-1.3-5.4-1.5-6.2-.1-.6 1-3.5.2-3.5-1 0-.5 2-1.6 4.5-2.5 2.4-1 4.7-2.6 5-3.6.4-1.1 1.1-1.9 1.6-1.9 1.5 0 4-2.8 2.9-3.2-.5-.2-1.1-1.4-1.3-2.7-.5-3.4-4.7-3.8-4.7-.4 0 1.4-.6 2.3-1.6 2.3s-1.4.5-1 1.5c.7 1.9-3.1 5.8-5 5.1-.7-.3-2.3-2.6-3.5-5.1-1.2-2.6-2.7-4.9-3.4-5.1-.6-.3-1.1-1.9-1-3.7.3-4.3-.3-5.7-2.6-5.7-1 0-1.9-.5-1.9-1.2 0-1.5 2.3-8.2 3.1-8.8 1.7-1.4 1.6-8.9-.2-12.6-1-2.1-1.8-4.4-1.9-5 0-.6-1.1-1.6-2.4-2.2-1.3-.6-2.7-2.3-3-3.8-.4-1.5-1.3-3.6-2-4.6-1.2-1.7-1.4-1.5-1.9 1.8-.5 3.2-2.9 6.3-4.9 6.4-1.6 0-7.8-6.3-7.2-7.4.4-.7.2-.6-.7.1-.7.7-2 1.3-2.8 1.3-.9 0-2.7.6-4.1 1.3-3.4 1.7-10.2 1.5-10.9-.3-1.1-2.7-9.2-3.1-11.9-.6-1 .9-2.2 1.3-2.5 1-.4-.4-1.3-.2-2.1.5s-2.5.9-4.2.5c-2-.5-3-.2-4 1.1-.7 1-2 1.5-2.9 1.2-.9-.4-1.5-.1-1.5.9 0 1.1.6 1.3 2 .9 1.3-.4 3.1 0 4.7 1.1 1.5.9 4.6 1.8 7 1.9 2.7.1 4.8.8 5.6 1.8.6.9 2.6 1.9 4.3 2 4.5.6 5.6 1.5 4.4 3.7-1.6 3-1.2 6.8 1 9 1.2 1.2 2 2.6 1.9 3.3-.3 1.8 1.2 4.7 2.4 4.7.6 0 2.4 1.2 3.9 2.7 2.6 2.5 2.8 2.5 2.8.6 0-3.6 2.2-4.3 6-1.8 2.6 1.6 3.5 2.9 3.5 4.7-.2 3.5-1.3 4.8-4.1 4.8-1.3 0-2.4.4-2.4 1 0 .5 1.5 1 3.3 1 2.6 0 3.6.6 5 3.2 1 1.8 2.1 5.4 2.4 8 .5 3.8 1 4.8 2.4 4.8s1.9.7 1.9 2.5c0 2.2-.3 2.4-1.9 1.5-1.6-.8-2.1-.6-2.6.9-.3 1.2-1.2 1.8-2 1.5-.7-.3-1.9.4-2.5 1.6-.6 1.1-1.5 1.8-2 1.5-.9-.6-.8-3.1.3-4.1 1.8-1.8.4-4.2-3.5-6.2-2.9-1.4-4.6-1.8-5.4-1.1-.8.7-1.4.6-1.9-.1-.5-.8-1-.8-2 0-.9.8-1.5.8-2 0-.9-1.5-2.5-.2-1.8 1.5.3.8 0 1.5-.6 1.5s-1.1-.5-1.1-1c0-.6-.9-1-2-1s-2 .4-2 1c0 .5.7.7 1.5.4.9-.4 1.5 0 1.5 1 0 1.1.9 1.6 2.8 1.6 1.6 0 3.2.8 4 2 .9 1.4.9 2 .1 2s-.8.5.1 1.5c1 1.2 1 1.5-.1 1.5-.8 0-.2.8 1.3 1.7 1.5.9 2.9 2.5 3.1 3.4.4 1.4 1.1 1.6 4 1 4.4-1.1 5.7-1.9 5.7-3.7 0-2.4 1.6-1.6 5.4 2.8 5.2 6.1 5.6 6.6 5.4 7.5-.6 2.3 1.6 5.4 4.2 6 1.9.3 2.7 1 2.3 1.9-.3.8 0 1.4.7 1.4.6 0 0 1.4-1.4 3-2 2.5-2.3 3.5-1.6 5.5 2.3 6 .3 9.8-4.7 8.9-3.1-.6-3.4-.4-3.1 1.2.4 2.2-4 4.5-7.1 3.7-1.6-.4-1.9-.1-1.5 1.4.3 1.1-.2 2.5-1 3.2-1.1 1-1.3 1.8-.6 3.1.7 1.3.5 2.1-.5 3-.7.6-1.2 1.7-.9 2.5.3.7 0 1.6-.6 2-.6.4-.8 1.5-.5 2.6.4 1.1.2 1.9-.4 1.9-.6 0-1.1.7-1.1 1.5 0 1-1 1.5-3 1.5-3 0-3 0-1.4 2.6.9 1.4 2.3 2.3 3 2 2.3-.9 1.8 5.2-.5 6.6-1.7 1-1.8 1.5-.7 3.7 1.8 3.5 1.4 6.2-1.2 9.5-2 2.6-2 2.9-.4 6.4.9 2 2.2 4.4 2.9 5.3 1.1 1.3 1 1.7-.9 2.6-1.3.6-3.1 1.4-4.1 1.7-1.7.6-1.7.7 0 3 1 1.3 2.1 2.2 2.5 2 .4-.3 1.2.5 1.8 1.6.6 1.1 1.9 2 2.9 2 1.1 0 2.1.6 2.4 1.4.8 1.9 5.5 2.6 6.8 1 1.4-1.7 3.9-1.8 3.9-.3 0 .5.4.8.8.5.5-.3 2.3.4 4.1 1.5 3 1.8 3.3 1.8 5.9.2 1.5-1 3-2.1 3.3-2.5.3-.5 2.4-.7 4.8-.6 2.3.1 3.7.4 3.2.8-.6.3.2 2.4 1.9 5 1.7 2.5 3 5.3 3 6.3s.5 1.5 1 1.2c1.9-1.2 2.9 3.8 1.3 6.5-1.3 2.3-1.3 3.2.6 8.7 2.4 7.2 2.8 15.3.8 15.3-.8 0-2 1.1-2.7 2.5-.7 1.4-2.1 2.5-3.1 2.5-2.5 0-3.2 1.6-1.9 4.1 1.5 2.7 1.1 3-4.5 3.6-2.7.3-5.4 1.2-6.6 2.4-1 1-2.6 1.9-3.4 1.9-.8 0-1.9.9-2.5 2.1-.7 1.2-1.8 1.8-2.6 1.5-.9-.3-1.4.1-1.4 1.2 0 .9-.9 2.3-2 3-1.1.7-2 2.1-2 3.1 0 2-2.6 3.6-3.5 2.1-.3-.4-1.8-.3-3.3.2-3.9 1.5-9.8.3-10.5-2.2-.3-1-2.1-2.5-4-3.3-1.9-.9-4-2.3-4.5-3.3-1.6-2.9-2.6-.8-2.7 5.4-.1 4.5-.4 5.6-1.5 5.3-5.4-1.4-5.9-1.3-6.6 1.3-.6 2.6-1.3 3-4.7 2.6-1.7-.1-1.8.4-1.2 6.5.7 6.1.6 6.7-1.3 7.2-2 .5-2 .5.4 4 2.6 3.9 3.1 6.3 1.2 6.3-.6 0-.4.8.6 1.9 1 1.1 1.5 2.4 1.2 2.9-.3.5.6 1.4 1.9 2 2.6 1.2 3.5 5.5 1.5 6.7-1.8 1.1 1.3 4.5 4.2 4.5 2.1 0 2.9.6 3.4 2.5.3 1.4.3 3.3-.1 4.2-.5 1-.7 2.4-.6 3 .4 2.9-2 5.2-5.7 5.5-3.2.3-3.7.7-4 3-.2 1.6-.9 2.8-1.7 2.8-.9 0-1.2.6-.8 1.6.5 1.4.3 1.5-1.5.5-1.1-.6-3.4-1.1-5-1.1-4.1 0-8.4 5.6-7.6 9.8.7 3.4-1.4 5.2-6 5.2-3.2 0-4.2 1.7-2.2 3.9.9 1 1.6 2.5 1.6 3.3 0 .9.7 2.1 1.5 2.8.9.7 1.4 1.9 1.1 2.6-.3.7 0 1.5.7 1.8.9.3.8.5-.1.5-.7.1-1.1.5-.8 1 .8 1.2 5.7.1 6.3-1.5.6-1.6 8.3-2 8.3-.5 0 2.1 3.4 4.1 6.8 4.1 2.1 0 4.6.6 5.7 1.3 2.9 2 6.3 2.7 6.8 1.3.3-.7.9-.5 1.8.6.8.9 3.6 2.1 6.3 2.5 4.4.7 5 1.2 6 4.1.6 1.8 1.4 3 1.8 2.7.3-.4 1.8.1 3.1 1 1.4.9 3.1 1.5 3.9 1.4.7-.2 2.3 0 3.5.5 1.5.5 3.1.1 4.9-1 1.7-1.1 4.9-1.9 8.9-2 3.5-.1 6.8-.5 7.3-.8.6-.3 2.4.7 4 2.4 1.7 1.6 4 3 5.1 3 1.1 0 2.4.7 2.9 1.6.6 1.1 1.6 1.3 3.5.9 1.5-.4 2.7-1.1 2.7-1.6s.5-.9 1-.9c.6 0 3.2-1.1 5.9-2.4 3.3-1.6 5.4-2 6.5-1.4 1.2.7 1.6.5 1.6-.7 0-.8.6-1.5 1.3-1.5.6 0 2.4-.6 3.9-1.4 2.4-1.3 2.8-1.2 4.9 1 1.2 1.3 3.2 2.4 4.4 2.4 1.2 0 3 .9 4.1 2.1 1.5 1.7 2.9 2 8.4 1.8 7.3-.2 11.1 1 13.3 4.1 1.4 2 2.5 2.2 11.1 2.4 7.1.1 9.6-.2 9.6-1.2 0-1.7.7-1.5 4.6.9 3.1 1.9 3.4 1.9 3.4.4 0-1.4.3-1.5 1.5-.5.8.7 1.5 1.9 1.5 2.6 0 1.9 2.6 1.8 3.4-.1.4-1.3 1-1.3 4.5 0 5.5 1.9 12.2 5.9 15.1 9 2.3 2.5 6 3.4 6 1.5 0-1.6 3.7-1.1 5.6.7 1.7 1.7 1.7 1.7 1.2-.3-.5-1.9-.1-2.2 3.4-2.2 4.1-.1 8.8-3.2 8.8-5.8 0-2.5 3.3-2.4 6.7.2 1.9 1.4 4.1 2.3 4.9 2 1.8-.7 8.5 2.3 10.2 4.6 1.3 1.8 4.9 2.3 9 1.1 2-.5 2.3-1.1 1.8-3.4-.3-1.7 0-3.2 1-3.9.8-.7 1.7-3 2-5.1.4-2.4 1.2-3.9 2.1-3.9.8 0 2.8-.8 4.6-1.7 1.8-.9 4.6-1.6 6.3-1.4 2.4.2 3.3-.2 3.7-1.8.3-1.2 1.2-2.1 2.1-2.1.9 0 2-1.6 2.7-4 1.1-3.6 1-4.3-.6-5.8-1-.9-1.5-1.1-1.1-.5.4.7.2 1.3-.4 1.3-.6 0-1.3-.7-1.6-1.5-.4-.8-1.2-1.5-1.9-1.5s-1.8-.7-2.5-1.5c-1-1.3-1-1.9.5-3.5 1.3-1.5 1.6-2.9 1.2-5.6-.5-2.7-.3-3.4.5-2.6.6.6 1.7.8 2.4.5.8-.3 2.2-.2 3.2.2 2.9 1.3 6.1 1.1 6.6-.2.7-1.7 2.6-1.7 2.6.1 0 .9.7 1.2 2 .9 2.1-.6 2.9 1.2.8 1.9-.8.3-.2 2.8 1.9 7.9 1.7 4.1 3.4 9.1 3.8 11.1.4 2.1 1.3 4.2 2.1 4.9.8.6 1.4 1.8 1.4 2.6 0 1.1.9 1.3 3.7.8 5.2-.8 8.5-6 3.8-6-2.9 0-2.9-2.2 0-2.9 1.4-.4 3-.4 3.5-.1.5.3 1.2 0 1.6-.6.4-.7.3-.9-.2-.6-.6.3-3-.4-5.4-1.5l-4.5-2.1 3.5-.8c1.9-.5 4.1-.6 4.8-.4.6.2 1.2-.2 1.2-1 0-1.7 4.5-2.1 5.5-.5.5.8 1.1.8 1.9.1.9-.7 1.6-.7 2.4.1.9.9 1.2.9 1.2 0 0-2.4-2.4-6.2-4-6.2-.9 0-2.5-.7-3.6-1.5-1.9-1.4-1.9-1.4.2-1.5 2.1 0 2.4-.7 3.6-7.4.2-1.2-.4-2-1.5-2.2-1.1-.1-2.2-.5-2.5-.9-1.1-1.1-.9-5.5.3-5.3 2.1.3 4.5-1.5 4.5-3.3 0-2.1 2.1-2.5 5.1-.9 1.5.9 1.9.7 1.9-.6 0-1.2.7-1.5 2.3-1.2 2.1.4 2.3.1 2.4-5.6 0-5 .4-6.3 2.4-7.9 1.3-1.1 2.3-2.7 2.1-3.7-.3-1.6.4-1.7 6.1-1.3 5.9.5 6.5.4 7.1-1.5.4-1.1 1.3-2.3 2.1-2.6.8-.3 1.2-1.2.9-2.1-.5-1.1.1-1.5 2.5-1.5 2 0 3.5-.7 4.3-2 1.5-2.3 6.3-2.8 5.5-.6-.4 1-.1 1.3.9.9.9-.3 2.7.5 4.2 2 1.5 1.4 4.4 3.2 6.4 4 3.3 1.4 3.7 1.4 4.3-.1.5-1.4.9-1.2 2.3 1.1.9 1.5 2 2.7 2.4 2.7.5 0 .8 1.1.8 2.4 0 2.6 2.1 4.7 2.8 2.8.2-.8.9-.8 2.3.1 1.7 1 2.2.9 3-.5.9-1.6 1.4-1.4 5.5 1.7 3.2 2.5 5.6 3.5 8.1 3.5 4.3 0 9.8 4.9 9 8-.3 1.1 0 2 .6 2s2.1 1 3.4 2.2c2.8 2.6 10.3 3.3 10.3 1 0-2.8 3.4-.6 4.1 2.5 1.2 6.1 3.9 10.3 7.9 12.3 4.5 2.3 5.9 5.3 3.6 7.6-3.4 3.3-2 4.9 5 6 5.6.8 6.7.7 7.7-.6.7-.9 2.8-2.5 4.7-3.6 1.9-1 3.8-2.4 4.3-2.9.4-.6 1.3-.2 2.3 1 .8 1.1 2.2 1.9 3 1.7.8-.2 1.7.3 2 1.1.3 1 2.2 1.3 6.7 1.2 3.4-.1 7.1.2 8.2.7 2.1 1 9.5-1.4 9.5-3.1 0-.5 2.1-1.4 4.8-2.1 2.6-.6 5.4-1.7 6.2-2.4 1.9-1.7 7.6-3.6 10.7-3.6 1.3 0 3.1-.4 4.1-.9.9-.5 2.5-1.2 3.5-1.5.9-.3 1.7-1.5 1.7-2.7 0-1.8.2-1.9 1.5-.9 1.2 1 1.5 1 1.5-.1s.3-1.1 1.1.1c.8 1.2.9 1 .4-.8s-.2-2.2 1.5-2.2c1.9 0 2.2-.4 1.8-3.6l-.4-3.6 3.4.7c3.8.7 8.2-1.5 8.2-4.1 0-1.3.9-1.5 5.3-.9 2.8.4 5.6 1.2 6.1 1.9.7 1.1 1.3 1 2.8-.3 1-.8 1.8-2.2 1.8-3.1.1-1.2.3-1.2 1.4.2.7 1 2.2 1.8 3.3 1.8 1.1 0 3.5.7 5.3 1.6 1.8.9 5.3 1.8 7.9 1.9 2.5.2 5.1.4 5.8.4.6.1 1.9.8 2.7 1.7.9.8 1.6 1.2 1.6.8 0-.4.9.5 2 1.8 2.2 2.9 12.5 8.2 14 7.3.5-.3 1-.2 1 .4 0 .5 1 1.1 2.3 1.3 1.2.2 2.1.9 1.9 1.6-.1.8.2 1.1.8.7.6-.3.8-1 .5-1.5-.9-1.4 3.3-2.2 5.5-1 1.2.6 1.9 1.7 1.7 2.4-.4.9.2 1.1 1.9.8 1.7-.3 3.3.3 4.9 1.8 2.8 2.7 7 2.1 7.8-1 .7-2.7 3.3-2.5 6.4.6 2.8 2.8 6.8 3.3 11.7 1.5 3.1-1.2 5.6-.1 5.6 2.5 0 .8 1 1.4 2.5 1.4 3.7 0 3.2 3-1.4 8.1-3.1 3.3-3.8 4.6-3 6 .6 1.1.5 2-.1 2.4-1.6 1-1.2 2.2 1.8 5.1 1.7 1.6 2.3 2.8 1.5 3.1-.7.2-.9 1.1-.6 1.9.3.8 0 1.4-.6 1.4-1.6 0-2.7-3.3-1.3-3.8 2.7-.9.9-1.9-3-1.9-10 .1-15.8-1.2-20-4.2-2.2-1.6-4.6-2.7-5.3-2.5-.7.3-2.2.1-3.2-.5-1.2-.6-2.5-.6-3.4 0-.7.5-1 .9-.6.9 1.2 0-1.4 2.4-4.1 3.9-1.8 1-2.2.9-2.2-.3 0-.9-.7-1.2-1.8-.9-1.1.2-3.6-.2-5.6-1.1-3.4-1.4-3.8-1.4-5.6.4-1.1 1.1-2 2.4-2 3 0 .5-.9 1-2 1-1.6 0-2 .7-2 3 0 3.1 2.4 4.8 7.5 5.5 1.1.1 2.3.3 2.6.4 1.3.2 1.7 5.6.6 6.3-.9.5-.9 1 .1 2 1.4 1.4 1.6 3.2.3 2.3-.6-.3-1.5.5-2.2 1.7-2.5 4.7-5.3 6-7.7 3.6-.9-.9-1.3-.7-1.8.5-.3.9-1.3 1.7-2.1 1.7-1 0-1.2.6-.8 1.9.4 1.3 0 2.3-1.2 2.9-1.3.8-1.8 2.5-2 7.4-.1 3.5-.2 6.3-.3 6.3-.8 0-1.4 14-.7 15.2.4.6-.1 2.5-1 4.3-1.5 2.5-2.3 3-4.6 2.7-3.3-.4-3.9.3-4.1 4.8-.1 2.6.4 3.7 2.1 4.6 3.1 1.7 2.9 4.3-.4 5.6-2.7 1-2.7 1.1-.4 1.2 1.5.1 2.1.6 1.8 1.5-.8 2.1 1.6 8.3 3.1 7.8.6-.2 1.2.1 1.2.8 0 .6.4.9.8.6.4-.2 1.3.4 2 1.5.9 1.5.9 1.9 0 1.9-.7 0-.5.5.5 1.2.9.7 2 2.5 2.6 3.9.8 2.3 1.6 2.7 7.7 3.3 5 .5 7.7 1.4 10.1 3.2 1.7 1.3 3.8 2.4 4.7 2.4.8 0 2.2.7 3 1.6.9.8 1.6 1.2 1.6.7 0-.4.4-.1 1 .7.6.9.5 1.9-.2 2.8-.9 1-.8 1.6.3 2.3 2.1 1.3 3.3 1.1 2-.5-1.6-1.9-.3-4.8 1.9-4.1 1 .3 2.1.1 2.5-.5.3-.5 1.6-1 2.9-1 1.5 0 2.7-.9 3.4-2.5.7-1.5 2-2.5 3.2-2.5 1.8 0 2.5-1 2.1-3.3-.2-1.2 1.6-.8 2.8.7.7.8 2 1.3 2.9 1.1.9-.2 2.3-.4 3-.4.7-.1 1-.6.7-1.1-1-1.7.5-7 2.1-7 1 0 1.4-1.2 1.4-4 0-3.7.2-4 2.8-4.1 1.5-.1 3-.1 3.5 0 .4 0 .7-.4.7-1.1 0-.8.6-.6 1.7.5 1.3 1.3 1.5 1.9.5 2.9-1.7 1.7-1.5 3.1.5 2.4 1.7-.7 7.3 3.8 7.3 5.8 0 1.6 5.8 1.6 6.4 0 .6-1.5 3.8-1.2 4.3.3.2.6-1 1.9-2.6 2.9-1.7 1-3.1 2.3-3.1 3 0 .6-1.2 2.3-2.7 3.8-5.1 5.1-6.1 9.6-2.1 9.6 1.6 0 1.9.5 1.6 2.4-.4 1.8.2 3.1 1.8 4.5 1.3 1.2 2.4 2.8 2.4 3.6 0 .8.5 1.5 1 1.5.6 0 2 .9 3.1 1.9 1.6 1.5 1.9 2.6 1.4 5-.6 2.7-.4 3.1 1.4 3.1 1.2 0 2.1.6 2.1 1.4 0 2.5 2.8 4 5.3 2.8 5-2.5 6.6-2.4 10.9.6 11.5 7.9 17.6 11.2 20.5 11.2 1.7 0 3.6.6 4.2 1.3.6.8 3 2.4 5.4 3.6 2.9 1.5 5.1 3.6 6.7 6.7 1.4 2.4 2.7 4.4 2.9 4.4.3 0 1.5-1.2 2.7-2.7l2.2-2.8-2.6-4.9c-2.2-4.1-2.4-5.3-1.5-7.7 1-2.5.9-3.1-.7-3.9-1-.6-2.4-1-3.1-1-.7 0-2.5-1.2-4-2.6-2-1.9-4.1-2.7-8.5-3.1-3.3-.3-6.2-1.1-6.7-1.7-.4-.6-.5-3.7-.1-6.9.6-5.3.4-6.1-1.9-8.5-1.4-1.5-2.6-3.4-2.7-4.2-.4-2.5 0-4.1.8-3.7.4.3 1.3-.2 2-.9 1.2-1.3 1-1.4-1.4-.8-1.7.4-2.5.3-2.1-.3.3-.5-.1-1.9-.9-3.1-1.2-1.7-2.5-2.2-5.9-2.2-4.6 0-14.5-3.6-14.5-5.3 0-.6 1.7-.7 4-.3 2.2.3 4 .2 4-.3s.8-1.1 1.9-1.4c1-.2 2.4-1.8 3.2-3.5.7-1.7 2.3-3.6 3.5-4.3 2.8-1.4 3.7-6.6 1.7-9.6-1.4-2.1-1.3-2.3.7-3.1l2.2-.8-2.7-3.3c-1.7-2-3.3-3-4.3-2.6-2 .7-7.1-1.6-7.7-3.6-.4-1.1-1.9-1.5-6.3-1.6-3.9 0-5.6-.4-5.4-1.2.1-.7-1.1-2.3-2.8-3.7-2.4-2.1-2.8-2.9-2-4.4 1.1-2.1 1.3-8.3.3-9.4-.4-.3-.8-1.3-.9-2-.1-.7-.5-2.4-.9-3.6-.5-1.5-.3-2 .3-1.6.6.3 1.4.1 1.8-.6.5-.8 1-.5 1.5.9.6 1.5 1.4 1.9 3.8 1.5 2.6-.4 3.7.2 6.4 3.2 1.9 2 4.2 3.6 5.3 3.6 1.6 0 2 .7 2 3.3 0 4 2.3 9.9 3.5 9.1.5-.3 1.8.5 2.9 1.8 1.1 1.3 1.9 1.9 2 1.5 0-.4.8-.3 1.8.2 1.3.7 3.3.6 6.5-.4 4.3-1.3 4.8-1.2 7.2.6 2.7 2.2 9.5 3.6 9.5 2 0-.5 1.6-1.5 3.6-2.1 3.6-1.2 3.8-1.7 1.9-6.2-.6-1.6-.4-1.7 2.4-.7 1.7.6 3.1 1.7 3.1 2.4 0 .8 1.8 1.6 4.2 2 2.7.5 5.2 1.8 6.9 3.6 3.8 4.1 11.9 4 11.9-.2 0-1 .9-2.7 2.1-3.8 1.4-1.3 1.9-2.6 1.4-4-.3-1.2-1-2.1-1.4-2.1-.4 0-.7-2.6-.7-5.8l-.1-5.9 4.6 1.7c5.7 2.2 7.4 1.7 5.9-1.4-.7-1.7-.7-3 .2-4.5.9-1.7.9-2.6-.1-3.7-.9-1.1-.8-1.4 1-1.4s2-.4 1.4-3.3c-.6-3-.5-3.1 1.3-1.7 1 .8 2.1 1.6 2.3 1.7.2.1-.2.9-.9 1.8-1 1.2-1 1.8 0 3 .7.8 1.8 1.5 2.5 1.5s1.5.9 1.8 2c.5 1.8 1 1.6 5.4-2.5 2.6-2.4 6.4-6 8.4-8 1.9-1.9 4-3.5 4.5-3.5s1.8-.9 2.8-2.1l1.8-2.1 2.1 2.1c1.9 1.7 3.1 1.9 7.9 1.4 4.4-.4 5.9-1 6.3-2.4.4-1.1 1.3-1.9 2-1.9.8 0 1.8-.6 2.2-1.4 1.2-2 5.6-1.4 6.8.9 2 3.8 4.5 3 10.2-3.1 8.9-9.8 10.6-11.4 11.6-11.4.6 0 1.8-.7 2.7-1.5 1.5-1.4 2.2-1 7.7 4.5 6.1 6 9.5 7.4 10.7 4.4.6-1.5 3.4-1.5 8.1.1 2.4.7 3.2 5.4 1.3 6.8-.8.5.1.6 2.4.2 2.5-.4 4.5-.1 6 .9 2.1 1.4 2.6 1.3 5.6-.5 1.7-1.2 3.2-2.5 3.2-3.1 0-.6 1.6-.7 4.1-.3 3 .5 4.3.3 5.2-.8.7-.8 2.9-1.7 5-2 3.6-.6 3.7-.5 3.7 2.3 0 2.1.4 2.8 1.4 2.4.8-.3 1.9.3 2.6 1.5 1.1 2.2 4 2.9 4 1 0-2.1 2.8 1.1 3.5 4 .5 2.6 6.6 6.9 10.5 7.5 3.6.5 6 3.1 6 6.3 0 3.5 2.9 7.3 5.5 7.3.9 0 2.5.9 3.7 2 3.2 2.9 5 2.6 3.8-.6-1.3-3.3-1.3-3.4.3-3.4.8 0 2.2-.9 3.3-2.1 2-2.2 1.2-3.3-3.3-4.5-1.2-.3-2.4-1.6-2.7-2.9-.7-2.7.3-8.3 1.5-9.1.5-.3.9-1.5.9-2.8 0-1.2.5-2.7 1-3.2.7-.7.5-2.2-.5-4.8-.9-2.1-1.5-5.2-1.3-7 .2-1.7-.2-3.6-.9-4.1-1.4-1.3-2.9-8-1.5-7.1.5.3 1.2-.4 1.6-1.6.6-2.7-1-4.9-1.9-2.5-.5 1.1-1.5 1.4-4.1 1-2.7-.4-3.4-.2-3.4 1.1 0 2.5-7.8 2-15.2-1-9.8-4-9.3-3.5-9-9.9.2-4.8-.2-6.3-2.2-9-1.4-1.8-2.2-3.6-1.8-4 .4-.5.1-.5-.5-.1-.7.4-2.1.2-3-.3-1.7-1-1.7-1 0-1.1.9 0 1.7-.4 1.7-.8 0-1.5-8-8.2-10.5-8.8-3.4-.8-3.2-2.5.3-2.2 2.5.3 2.7 0 3.4-4.7.4-2.8 1-6.5 1.4-8.3.5-2.6.2-3.8-1.6-5.7-2.6-2.8-1.9-4.5 1.8-4.5 2.4 0 2.9-.6 4.1-4.6 1.1-3.6 2.1-4.9 4.7-6.2 3-1.4 3.4-2.1 3.6-5.6 0-2.3 0-5.2-.1-6.6-.1-1.3.5-3 1.4-3.6 1-.8 1.2-1.4.6-1.9-1.6-.9-1.3-2.5.2-1.9 2 .7 6.7-1.3 6.7-3 0-.9 1.2-1.6 2.8-1.8 1.7-.2 3.1-1.2 3.7-2.6.5-1.2 1.5-2 2.1-1.8 1.4.6 3.6-5.7 2.8-8-.4-1.1-1.6-2.9-2.8-4.2-1.7-1.9-1.8-2.6-.8-4.3.7-1.1 1.1-2.8.8-3.7-.3-.9-.8-3.9-1.1-6.6-.2-2.7-.9-5.4-1.5-6.1-.5-.6-1.1-2.5-1.3-4.1-.2-1.7-.6-3.5-1-4.1-.4-.7-.3-1.5.3-1.8 1.5-.9.8-4.9-1-5.7-1.2-.5-1.1-.7.4-.7 1.3-.1 1.6-.6 1.1-1.9-1.2-2.7-1.4-8.2-.4-8.2.5 0 .9-.7.9-1.5 0-1.8-2.9-1-4.8 1.3-1.1 1.4-1.7 1.4-6.2-.5l-5.1-2.1-1.6 2.6c-.9 1.5-1.8 2.9-2 3.1-.2.2-1.1-.3-2.2-1.3-1.7-1.6-1.9-1.5-3.4.8-.9 1.3-2.4 2.7-3.4 3-1.5.5-1.8 1.9-2 7.3-.2 4.8-.7 7-1.8 7.6-.9.5-1.4 1.6-1.1 2.5.4 1.1-.6 2.7-3 4.5-1.9 1.6-3.9 4-4.5 5.3-.7 2-1.3 2.3-2.6 1.6-2.5-1.4-9.8 2.9-9.8 5.8 0 .9-.7 1.4-1.7 1.2-1-.2-1.8.2-1.8.8 0 .5-.6 1-1.4 1-.8 0-1.6.6-1.9 1.2-.3 1-.7 1-1.9 0-1.2-.9-1.8-1-2.3-.2-.5.8-1.4.6-3.1-.4-2.8-1.9-3.8-2-2.8-.4.4.7.3.8-.4.4-.6-.4-.9-1.3-.5-2.2.6-1.7-2.3-5.4-4.3-5.4-1.7 0-3.6-3.4-2.9-5.2.7-1.8-3-5.4-3.9-3.9-.4.6-1.3.8-2 .5-.8-.3-1.7-.1-2.1.5-.3.6-1.5 1.1-2.5 1.1s-2 .6-2.3 1.2c-.3 1-.9.9-2.2-.3-1.6-1.5-2-1.5-4.4-.1-2.9 1.6-8.7 1-7.6-.8.3-.6-.3-1-1.4-1-1 0-2.7-.3-3.7-.7-1.2-.4-1.5-.3-1 .5 1 1.7.2 1.5-3.7-.8-2.9-1.7-3.9-1.9-6.1-.9-1.4.7-2.6 1.8-2.6 2.6 0 .7-.9 1.3-2 1.3-1.5 0-2 .7-2 2.5s-.5 2.5-2 2.5c-1 0-3.6 1.1-5.6 2.5-3.2 2.2-4.5 2.4-9.6 2.1-7-.6-8.8 0-8.8 2.5 0 1.1-.7 1.9-1.7 2-1.4 0-1.5.2-.3.6.8.3 2.5 1.4 3.7 2.5 1.2 1.1 2.6 1.7 3.1 1.4.6-.3 1.9 1.2 3 3.3 1.2 2.2 2.6 4.8 3.3 5.9 1.5 2.3.7 4.7-2 6.1-1.7 1-2.8.4-7.1-3.4-5.5-4.9-7.2-4.9-8.4.1-.4 1.4-1.1 2.2-1.6 1.9-1.5-.9-1.2-.1 1.2 4.9 1.7 3.7 2 5 1.1 6.8-.6 1.3-1.4 3.5-1.7 5-.4 1.5-1.5 3-2.7 3.3-1.5.5-1.9 1.3-1.6 2.7.6 2.1.7 2.1-6 .2-1.5-.4-2.3-.1-2.7 1.4-.7 2.1-3.6 3.3-6.7 2.7-1-.2-1.9 0-1.9.6 0 .5.5.9 1 .9.6 0 .5.6-.2 1.4-1 1.1-1.6 1.1-2.7.2-1.2-.9-1.4-.8-.8.6.4 1.2.2 1.5-.9 1.1-1.9-.7-1.9 3.6.1 6.4 1.4 2 1.4 2.3-.5 3.3-1.6.9-2.5.8-3.6-.1s-2.1-.9-4 0c-1.4.6-3.3 1.1-4.3 1.1-3.4 0-7.9 2.9-7.4 4.8.3 1.3-.3 1.7-2.2 1.8-1.4.1-3.5 1-4.6 2-1.7 1.5-2.2 1.6-2.9.4-.9-1.5-.8-1.7-2.5 3.6-.5 1.4-1.6 1.6-6.5 1.1-3.6-.3-6-.1-6 .5 0 .5-.5.6-1.2.2-.7-.4-2.4-.9-3.7-1-1.4-.2-2.7-.8-2.9-1.4-.5-1.5-7.4-1.1-9.7.6-1.4 1-3.1 1.3-5.7.9-2.1-.4-5.4-.1-7.4.5-3.9 1.3-5.4.6-5.7-2.8 0-1.1-1-2.3-2-2.6-1.5-.4-1.7-.8-.9-2.2 1.2-2.2-.5-6.4-2.5-6.4-.8 0-1.1-.5-.8-1 .3-.6.1-1-.4-1-.6 0-1.1-.8-1.1-1.9 0-2.1-2.3-4.3-4.8-4.8-6.4-1.3-11.4-1.4-10.7-.4.4.7.1 1.8-.5 2.6-1.5 1.8-4.5 2-3.4.3.4-.7.3-.8-.4-.4-1.3.8-5.2-1-5.2-2.4 0-.6.8-1 1.8-1 2.2-.1 5.2-2.3 5.2-4 0-.7.7-1.8 1.6-2.5 1.5-1.1 1.5-1.3-.1-3.2-2.3-2.7-5.5-1.9-5.5 1.4 0 2.3-.3 2.4-2.7 1.8-1.6-.5-3.9-.9-5.3-1.1-1.4-.1-2.8-.3-3.2-.3-.5-.1-.8-1.1-.8-2.2 0-1.8-.3-1.9-1.5-.9-1.8 1.5-4.5.6-4.5-1.4 0-.7-.7-1.7-1.6-2-2.3-.9-2.4-.8-1.7 1.1.3 1 .3 1.5-.2 1.1-.4-.4-1.4 0-2.3.9-1.2 1.2-2.6 1.4-6.1.8-2.5-.4-5.3-.8-6.2-.9-2.7-.3-6.7-3.4-7.4-5.6-.5-1.7-1-1.9-2.1-.9-1.1.9-2 .5-4.6-2-1.7-1.7-3.7-3.1-4.4-3.1-.6 0-1.1-1.1-1-2.5.1-1.9.7-2.5 2.4-2.5 1.3 0 3.2-.5 4.2-1 1.7-.9 1.8-1.4.7-3.7-.8-1.9-.9-2.7-.1-3 .7-.2 1-2 .6-4.9-.4-3.6-.1-4.9 1.6-6.7 2.1-2.2 2.7-4.3 2.4-7.9-.2-1.4-.8-1.6-3.2-1.1-2.4.4-2.9.2-2.5-.9.4-.9-.2-1.4-1.7-1.5-2.7-.2-5.2-3.6-5.4-7.3-.1-1.5-.9-3.6-1.9-4.8-1.5-1.7-2.3-1.9-4.4-1.1-1.4.6-2.8 1.5-3.2 2-.6 1.1-9.9-2.7-9.9-4.1 0-.5.7-1.5 1.5-2.4.8-.8 1.5-2 1.5-2.6 0-.7.6-1 1.4-.7.7.3 3.1 0 5.2-.7 3-1 4.3-2.2 5.9-5.5 1.1-2.2 2.4-4.1 3-4.1.6 0 1.1-.9 1.2-2 .1-1.1-.3-2-.8-2-1.4 0 0-5.1 2.2-8.3 1.1-1.5 1.7-3.2 1.4-3.7-.4-.6.4-.9 1.7-.7 1.9.2 2.3-.3 2.3-2.8.1-4 1.5-6.7 3.1-6.1.9.3 1.5-.9 2-4.2.3-2.6 1.1-5.2 1.6-5.9 2.5-3.2-3.7-16.9-7.3-15.8-1.2.4-2.9-.7-5.5-3.5-2-2.2-4.2-4-4.8-4-.6 0-2.4-1-4-2.3l-2.9-2.3 3.1-2.6c1.7-1.4 2.9-2.8 2.6-3.1-.3-.2.9-.9 2.5-1.5 3.9-1.4 3.9-3.3.2-6.4-1.5-1.3-3-3-3.3-3.8-.5-1.7-3.8-2.2-3.8-.5 0 .7-.7 1.6-1.6 1.9-1.2.5-1.4 1.5-1 4.7.5 3.5.3 3.9-.8 3-.9-.8-2.8-1-5-.6-6 1.2-10.4-1-12.9-6.3-1.6-3.4-2.9-4.8-4.7-5-1.3-.2-3.3-1-4.3-1.7s-2.7-1.1-3.8-.8c-1 .3-1.9.1-1.9-.5s-.8-1-1.7-1c-1 0-2.6-.3-3.5-.7-1.1-.4-1.8-.3-1.8.5 0 .6-.5.8-1.2.3-1.7-1-3.6-1-7.2-.1-5.8 1.5-11-5.3-12.3-16-.5-4.3-1.1-5.6-2.9-6.4-1.3-.6-2.1-1.4-1.9-1.8.2-.4-1.1-1.6-3-2.6-3.8-2-4.6-4.4-1.5-4.4 1.1 0 2 .5 2 1.1 0 .7 1.4.8 4 .4 2.8-.5 4.6-.3 5.6.6 1.4 1.2 1.6 1.1 1.3-.6-.3-1.2-2.3-2.9-5.2-4.2-4.8-2.3-6.7-5-6.7-9.6 0-1.2-.1-3.6-.3-5.2-.1-1.7.3-4.6 1.1-6.5 1.3-3.2 1.3-3.5-.9-5.3-1.6-1.3-3.2-1.7-5.5-1.3-2.6.5-3.6.1-6.3-2.6-1.7-1.7-3.1-2.8-3.1-2.4 0 .5-.7.3-1.5-.4s-1.2-1.6-1-2.1c.3-.4-.9-2.3-2.8-4.1-2.9-2.9-3.1-3.6-2.3-6 .8-2.4.6-3.2-1.8-5.7-1.6-1.7-2.6-3.6-2.3-4.4.4-1-.4-1.7-2.4-2.1-1.6-.3-3.2-1.4-3.6-2.3-.3-1-1.3-2.6-2.2-3.6-1.4-1.7-1.4-2 .2-3.2 1.4-1 1.5-1.8.8-3.7-1.1-3-.3-7.8 1.5-8.5 1.6-.6.5-3.2-2.9-6.6-2-2-2-2.1-.1-2.9 2.6-1.2 5.7-6.4 6.7-11.3 2.6-13 2.4-19.3-.8-23.5-1.2-1.5-1.4-9.7-.3-11.5 1.5-2.5-5.3-13.2-9.3-14.8-1-.4-.9-.6.4-.6 1-.1 1.7-.9 1.7-2.1 0-1.1.6-2 1.4-2 .8 0 1.7-.4 2.1-1 .3-.5-.6-.5-2.4.1-1.6.6-3.2 1.7-3.5 2.6-.6 1.4-.9 1.4-2.6-.2-1.5-1.4-1.7-2.1-.9-3.2.9-1 .7-1.3-1-1.3-2.6 0-2.6.5-.1 3.8 1.8 2.2 1.9 2.7.6 4-1.2 1.2-1.8 1.2-4.2 0-2.7-1.3-3.2-1.2-6.8 1-2.1 1.3-4.7 2.2-5.7 1.9-1.5-.4-1.7-.1-1.2 2.5.6 2.9.5 3-2.4 2.4-2.7-.6-3.3-.3-5.1 2.7-1.5 2.6-1.7 3.8-.9 4.6.9.9.8 1.6-.1 3.1-.6 1-.9 2.6-.6 3.5.4.8.1 1.5-.6 1.5s-1 .8-.7 2c.4 1.5 0 2-1.3 2-1.1 0-2.2.4-2.5 1-.3.5-1.7 1-3 1s-2.5.5-2.7 1.2c-.3.9-1.5.7-4.5-.5-4-1.5-4.1-1.5-4.6.4-.4 1.6-1.2 2-4.3 1.7-3.5-.3-3.9-.1-4.7 2.9-.6 1.9-1.7 3.3-2.5 3.3-1.3 0-1.2.3.2 1.9 1.7 1.9 1.7 2-.3 3.1-1.2.6-2.1 1.7-2.1 2.5 0 2.3-4.1 4.5-8.3 4.5-3.9 0-3.9.1-3.3 3 .4 2.5.2 3-1.3 3-1 0-2.6.9-3.6 2s-2.5 2.2-3.5 2.5c-.9.3-2.2 1.7-2.8 3-1 2.2-1.4 2.4-3.1 1.3-2.5-1.6-3.3-.8-3.3 3.4v3.3l-6.4.3c-6 .2-6.4.1-8.5-2.8-1.5-2-2.6-2.7-3.3-2-1.7 1.7-3.6 1.1-4.6-1.3-.6-1.6-.9-1.8-.9-.5-.1 1.4-.8 1.7-4.2 1.4-2.2-.2-4.3-.7-4.6-1-.4-.3-1.1-.2-1.7.3-2.2 1.7-7.4 2.1-8.6.6-.6-.8-.9-1.9-.5-2.5.3-.5.1-1-.6-1-.8 0-.9-.3 0-1.4.8-1 .8-2.2-.3-4.8-1-2.4-1.2-3.8-.5-4.5.7-.7-.3-2.4-3.3-5.2-3.5-3.4-4.8-4.1-7.2-3.6-2.1.4-2.7.2-2.3-.9.8-2.2-2.1-2.8-3.5-.8-1.6 2.2-7.1 2.1-9.5 0-1.1-1-3-1.4-4.8-1.2-2.5.4-3.3-.1-5-2.8-1.1-1.8-2.9-3.4-3.9-3.6-1.2-.3-1.6 0-1.1.7.4.7.2 1.8-.4 2.5-.9 1.1-.4 1.5 2.5 2 2.4.5 3.8 1.4 4.1 2.6.6 2.2 3.3 3.3 5.7 2.4 1.2-.4 1.6-.1 1.6 1.4 0 1.2.5 2.4 1 2.7 1.5.9.2 2.5-1.9 2.5-2.3 0-3.2 2.8-3.4 10.3-.1 4.7-.4 5.6-1.7 5.1-.8-.3-2.1-.8-2.7-1.1-.7-.3-1.3 0-1.3.6s-.6.8-1.4.5c-.8-.3-1.9.8-2.9 2.8-.9 1.9-2.5 4.2-3.6 5.2-1 .9-2.2 3.3-2.5 5.1-.4 2.1-1.4 3.6-2.6 4-1.4.5-2 1.5-2 3.7 0 2.3-.4 2.9-1.6 2.4-1.2-.4-1.4-.1-.9 1.4.6 1.8.2 1.9-4.4 1.3-4.7-.5-5-.5-4.4 1.6.6 2.5 1.8 2.7 2.7.5.5-1.4.8-1.4 2.3.1 1.6 1.6 1.6 1.8 0 2.7-.9.5-1.7 1.4-1.7 2.1 0 1.8-4.4 9.7-5.4 9.7-.4 0-1.7 1.1-2.8 2.5-1.8 2.3-2.1 2.4-4 1.1-1.1-.8-2.6-1.2-3.3-1-.7.3-1.5-.2-1.9-1.1-.3-.9-1-1.4-1.5-1-.6.3-1.9-1.4-2.9-3.8-2.2-4.9-3.1-5.8-6.8-6.2-1.3-.1-3.4-1.1-4.5-2.1s-3.4-1.9-5.1-2c-3.1-.2-5.1-2-4.3-4.1.5-1.5-3.8-4.3-6.6-4.3-1.2 0-3-.7-4-1.6-1.6-1.4-2.1-1.4-6.4.1-2.7.9-5.2 1.2-5.9.7-.6-.4-2.1-.7-3.4-.6-1.4.1-3.2-1-4.7-2.8-2.6-3-3.3-5.8-1.5-5.8.6 0 1-.5 1-1.1 0-.5-.5-.7-1-.4-.6.3-1.9-1.4-3-3.9-1-2.5-2.5-4.6-3.3-4.6-2.7 0-6.7-2.6-7.6-5-2.2-5.4-2.4-8-.7-8 2 0 2-.9.1-3.4s-2-8.6-.2-8.6c.9 0 1.1-1.2.9-4-.2-2.2-.1-4.8.4-5.8.4-.9.6-2.1.5-2.6-.1-.4 1-.5 2.4-.2 1.8.5 2.5.2 2.5-.9 0-.8.4-1.5.8-1.5.5 0 1.4-1.1 2-2.5 1-2.1.9-2.6-.7-3.5-2.5-1.3-3.3-6.8-1.2-8 1.4-.8 1.1-1.4-1.9-4-1.9-1.6-4.7-3.4-6.2-4.1-3.3-1.4-3.4-2-.8-4.4 1.6-1.4 1.9-2.6 1.4-5.7-.7-3.8-.6-3.8 2-2.9 2.3.9 2.6.8 2.6-.9 0-1.5.7-2 2.5-2 1.4 0 2.8-.6 3.1-1.4.4-.9 1.6-1.3 3.6-1.1 2.3.3 3.1 0 3.5-1.5.7-2.5 1.9-2.5 3.2-.1.6 1 2.2 2.2 3.6 2.5 1.4.4 2.5 1.3 2.5 2.1 0 1.1.5 1.2 2.4.5 1.3-.5 2.7-.6 3.1-.2.3.4 1.1-.1 1.7-1.1.7-1.3 1.3-1.5 2.2-.8 1.8 1.5 7.3-.8 8-3.3.3-1.1-.2-3.1-1-4.4-1.1-1.6-1.2-2.7-.5-3.6.6-.7.6-1.7.1-2.6-1.5-2.4-1.2-3.8 1-4.2 1.9-.3 1.9-.5.5-3.2-1.2-2.2-1.3-3.1-.4-3.7.7-.4.9-1.3.7-2.1-1-2.5 1.7-10.8 4-12.4 1.2-.8 2.6-1.3 3.1-.9 1.2.7 5.3-3.2 6.8-6.5.6-1.4 1.4-4.1 1.8-6.2.3-2 1.3-3.9 2.1-4.2 1.2-.5 1.4-1 .5-2-.8-1-.6-1.7.9-3.1 1.2-1.1 2-3.1 2-5 0-1.7.5-3.6 1.1-4.2.7-.7.3-1.6-1.6-3.1-1.6-1.2-2.7-3.2-2.8-5-.1-1.9-.6-2.8-1.4-2.5-.7.3-1.3-.2-1.3-1s.4-1.7.9-1.9c.4-.2.6-1.1.2-2-.4-1.1-1.1-1.4-1.9-.9zm-189.7 155.1c1.6 1.7 1.6 2 .2 2.6-.9.3-2.1.2-2.8-.2-.7-.4-1-.2-.7.7.3.8 1.2 1.3 2.2 1.1 2-.4 2.1 2.4 0 3.2-.8.3-1.2.2-.9-.3.3-.5-.3-1.2-1.4-1.6-1-.3-2.6-1.4-3.6-2.5-1.8-1.9-1.7-2 .8-2 1.7 0 2.7-.5 2.7-1.5 0-2.1 1.3-1.9 3.5.5zm-12.5 3.6c0 .8.5 1.4 1 1.4.6 0 1 .7 1 1.5s.7 1.5 1.5 1.5 1.5.4 1.5 1c0 .5-.7 1-1.5 1s-1.5.9-1.5 2c0 2.3-1.7 2.5-4.2.6-2.2-1.7-2.3-4.2-.2-5 1.5-.6 1.5-.8 0-3.1-2.1-3.1-2-3.4.4-2.8 1.1.3 2 1.2 2 1.9zm20 29.4c0 .5-.7 1-1.6 1-.8 0-1.2-.5-.9-1 .3-.6 1-1 1.6-1 .5 0 .9.4.9 1zm-3.5 16.8c-.8.9-3.5-2-2.8-3.1.4-.6 1.1-.3 1.9.8.8 1 1.2 2.1.9 2.3zm-35.5 189.2c0 .5-.4 1-1 1-.5 0-1-.5-1-1 0-.6.5-1 1-1 .6 0 1 .4 1 1zm786.3 38.9c1.3.2.7 1.9-.9 2.5-1.6.6-4.4-.9-4.4-2.4 0-.6 2.1-.7 5.3-.1zm-441.3 8.5c0 .2-.7.6-1.5 1-.8.3-1.5.1-1.5-.4 0-.6.7-1 1.5-1s1.5.2 1.5.4zm-24.2 2.6c4 2.4 4.1 3.7.3 3.4-3.9-.3-5.1-1.1-5.1-3.5s.7-2.4 4.8.1zm623 125.8c.2.7-.2 1-1.2.6-.9-.3-1.6-1.1-1.6-1.6 0-1.3 2.3-.5 2.8 1zm3.2 2.8c0 .8-.4 1.2-1 .9-.5-.3-1-1-1-1.6 0-.5.5-.9 1-.9.6 0 1 .7 1 1.6zM598.672 57.362c0 .5.5 1 1.1 1 .5 0 .7-.5.4-1-.3-.6-.8-1-1.1-1-.2 0-.4.4-.4 1zM585.972 58.662c-2.6 1.1-2.8 1.9-1.2 4.9.9 1.7.8 2.3-.5 3-1.4.8-1.5 1.3-.5 2.4.9 1.1.8 1.4-.5 1.4-1 0-1.4.5-1.1 1.1.4.6 1.4.8 2.2.5.8-.3 2-.3 2.6.1.7.5 2.7.8 4.4.8 2.7 0 3.5-.5 4.3-2.9 1.3-3.8 1.3-8.6-.1-8.6-.5 0-.7-.5-.4-1 .3-.6-.2-1.1-1.2-1.2-3.2-.2-3.8-.3-4.8-1-.5-.3-2-.1-3.2.5zM581.172 76.362c.3.5.8 1 1.1 1 .2 0 .4-.5.4-1 0-.6-.5-1-1.1-1-.5 0-.7.4-.4 1zM583.672 78.662c-2.9 2.4-3.7 5-2.7 8.3 1.1 3.5 5.1 5.3 6.1 2.8.3-.8 1.2-1.4 2.1-1.4 1.9 0 1.9-1.4 0-3-.8-.7-1.5-2-1.5-2.9 0-1-.6-2.5-1.2-3.4-1.1-1.3-1.6-1.4-2.8-.4z"/><path d="M591.172 99.362c-.3.6-1.7.7-3.1.4-2.1-.5-2.4-.3-2.4 2.3 0 2.5.7 3.3 4.4 5.1 3.7 1.9 4.3 2.6 3.8 4.7-.3 1.9-.1 2.4 1 2 1.8-.7 6.2 1.6 6.6 3.5.2.8.8 1.6 1.3 1.8.5.2.9 1 .9 1.8s.7 1.4 1.6 1.4c1.2 0 1.4-.5.8-1.8-.4-.9-.7-2.7-.7-4 .1-1.3-1-3-2.8-4.3-1.8-1.3-2.9-2.9-2.9-4.5 0-1.3-.5-2.4-1-2.4-.6 0-1.6-1.2-2.3-2.8-1.7-3.9-3.9-5.3-5.2-3.2zM596.672 122.262c0 .6.4 1.2.8 1.5.5.3.9-.1.9-.9s-.4-1.5-.9-1.5c-.4 0-.8.4-.8.9zM75.772 133.762c-2.7 2.9-1.6 4 4.4 4.1 2.2 0 4.6.3 5.4.5.8.3 1.6-.2 1.8-1.1.3-1.1-1.1-2.3-4.1-3.8-2.5-1.1-4.7-2.1-4.9-2.1-.2 0-1.4 1.1-2.6 2.4zM69.672 134.262c0 .5.5 1.3 1 1.6.6.3 1 .2 1-.4 0-.5-.4-1.3-1-1.6-.5-.3-1-.2-1 .4zM91.372 135.862c-2.1 1.5-1.1 2.6 1.5 1.6 1-.3 1.4-1.1 1-1.8-.5-.8-1.2-.8-2.5.2zM64.472 137.062c.7.3 1.6.2 1.9-.1.4-.3-.2-.6-1.3-.5-1.1 0-1.4.3-.6.6zM85.272 181.962c-.4 1.1-1.3 1.4-2.7 1.1-1.8-.5-2-.2-1.6 1.9.3 2-.1 2.8-2 3.7-1.5.7-2.3 1.7-2 2.7.6 2.2-4.2 4.5-5 2.4-.4-1.1-1.5-1.3-4.7-.9-3.8.6-4.3.4-5.4-2-.7-1.4-1.6-2.4-2.1-2.1-.5.4-1.1.1-1.3-.5-.2-.6-1.4-.9-2.7-.7l-2.3.3 2.1 2.6c1.4 1.8 1.7 2.9 1 3.6-.8.8-.7 1.7 0 3.2 1 1.7.9 2.1-.4 2.1-1.7 0-5.5 5.6-5.5 8.2 0 2.6-4.1 2.7-7.3.1-1.6-1.3-3.3-2.3-3.8-2.3-1.4 0-.6 5.4 1.1 6.7 1.3 1 1.3 1.4-.6 3.5-2.4 2.6-4.3 7.5-2.5 6.4.6-.4 1.1-.3 1.1.3 0 .5-.4 1.2-1 1.6-1.5.9 0 3.5 2.1 3.5 2 0 3.9 2.8 3.9 5.8 0 1 .9 2.7 2 3.7 1 .9 1.9 2 1.8 2.4-.4 3.8.4 5.1 3.2 5.1 2.3 0 3-.5 3-1.9 0-1.7.5-1.8 4.3-1.4 2.3.3 4.7 1 5.4 1.5.7.5 1.7.7 2.2.4.5-.4 1.2-.2 1.6.4 1 1.6 4.5 1.2 4.5-.6 0-1.1 1-.6 3.1 1.7 2.9 3.1 3.2 3.2 4.2 1.4.8-1.5.6-2.2-1.1-3.3-2-1.3-3.2-6.4-1.4-6 .4.1 1.9-.2 3.3-.6 2-.6 2.5-1.2 2.2-2.7-.4-1.2 0-1.9 1-1.9 2 0 2.9-2.7 1.7-5-1.3-2.4-1.3-4.3 0-3.5.6.4 2.6-.3 4.5-1.5 2.5-1.5 3.8-3.3 4.7-6.3.6-2.3 2-5.1 3-6.3 1-1.1 1.8-3.3 1.8-4.8 0-1.6.4-2.5 1-2.1.6.4 1.9-.4 2.9-1.7 1.7-2.1 1.8-2.5.5-5.1-.8-1.5-2.2-3.1-2.9-3.4-1-.3-1.3-1.3-.9-2.8.7-2.9-.9-4-6.1-4-3.2 0-4.2-.5-5-2.3-1.2-2.6-2.1-2.8-2.9-.6zM-.028 184.062c-.1 2.6 1.1 4.2 3 4.3.5 0 .5-.5.2-1-.3-.6.1-1 .9-1 2.1 0 2-2-.1-3.6-2.7-2-3.8-1.7-4 1.3zM114.472 189.062c-.8.8-2.4 1.5-3.6 1.6-1.2.1-2.2.5-2.2 1s-.7.6-1.5.3c-1.7-.6-3.4 2.2-1.9 3.3 2.8 2 7.1 10.2 4.5 8.7-.5-.3-1.1.1-1.4.8-.5 1.2-.1 1.3 2.4.4 1.6-.5 3.5-.8 4.2-.5.8.3 2-1.3 3.2-4.2 1-2.5 2.3-4.9 2.8-5.3 1.5-.9-1.1-6.5-3.3-7.1-1-.2-2.5.2-3.2 1zm.9 6c.2.6-.3 1.3-1.2 1.6-1 .5-1.5 0-1.5-1.4 0-2.1 2.1-2.2 2.7-.2zM1.672 190.062c0 .5.7 1.7 1.5 2.7.8 1.1 1.5 3.1 1.5 4.5 0 2.9 3.9 9.1 5.8 9.1.6 0 1.2.4 1.2.9 0 1 3 2.1 7.5 2.7 2.8.4 3 .2 3-2.7 0-1.8-.7-3.4-1.7-4-.9-.5-1.4-1.7-1.1-2.8.4-1.5-.2-2-2.9-2.4-1.8-.2-3.8-.1-4.4.5-1.6 1.2-4.4-1.7-4.4-4.7 0-1.4-.8-2.9-1.9-3.5-2.3-1.2-4.1-1.3-4.1-.3zM14.672 216.362c0 .5.5 1 1.1 1 .5 0 .7-.5.4-1-.3-.6-.8-1-1.1-1-.2 0-.4.4-.4 1zM26.172 217.362c-.3.5-1.6 1-2.9 1-1.3 0-3 .8-3.9 1.8-1.5 1.7-1.3 1.8 3.3 1.7 2.8 0 5-.3 5-.7 0-.5.7-.8 1.5-.8 1.8 0 1.9-1.2.3-2.8-1.5-1.5-2.5-1.5-3.3-.2zM32.772 221.262c-.8.5-.9 1.1-.3 1.5.5.3 1.5-.1 2.2-.9 1.4-1.6.3-2-1.9-.6zM41.172 237.362c-.3.5-.1 1 .4 1 .6 0 1.1-.5 1.1-1 0-.6-.2-1-.4-1-.3 0-.8.4-1.1 1zM44.272 244.262c-.3.5.1 1.4.9 2.1 1.3 1 1.5.9 1.5-.9 0-2.1-1.4-2.8-2.4-1.2zM846.172 386.362c.3.5.8 1 1.1 1 .2 0 .4-.5.4-1 0-.6-.5-1-1.1-1-.5 0-.7.4-.4 1zM849.872 392.162c-.1 2.1-1 4.1-2.2 4.9-1.8 1.3-1.8 1.5 1.7 4.9 3 3 3.4 4 2.9 6.7-.5 2.3-.1 3.6 1.6 5.4 1.4 1.5 1.7 2.3.8 2.3-.9 0-.8.5.4 1.9 1 1.1 2.8 3.9 4.1 6.3 1.2 2.4 3.1 4.5 4.1 4.6 2.2.4 4.4 2.9 4 4.5-.2.7-.1.9.1.5s1.1-.4 2-.1c1.4.5 1.5 0 1-3-.6-3.6-.5-3.6 2.4-3.3 1.6.2 3.2 0 3.5-.5.3-.5 1.4-.9 2.4-.9 1.4 0 2.2-1.1 3-3.9.5-2.1.7-4.6.4-5.5-.5-1.2-.2-1.5 1.2-.9 1.4.5 1.6.3 1-1.3-.8-1.9-1.4-4.1-1.5-5.7-.1-.4-1.6-.8-3.3-.8-8.5 0-8.9-.1-10-2.4-.6-1.2-2.2-2.8-3.5-3.4-2.3-1.1-2.5-1-2 .9.3 1.3.1 2-.6 1.7-1.4-.4-1.6-7.9-.2-9 .5-.5-.9-.6-3.1-.3-3.4.5-4.3.3-5-1.2-.4-.9-.7-1.9-.7-2.2.1-.3-.9-1.2-2-2.1-2.1-1.6-2.2-1.5-2.5 1.9zM884.672 404.362c0 .5.5 1 1.1 1 .5 0 .7-.5.4-1-.3-.6-.8-1-1.1-1-.2 0-.4.4-.4 1zM885.672 411.162c0 3.5.4 4.5 1.9 4.9 1 .2 2.8 1.7 3.9 3.3 1.6 2.1 2.7 2.7 4.3 2.3 1.8-.5 2-1.1 1.4-4.2-1-5.1-1.1-5.2-6.2-4.5-4.2.5-4.5.3-4.1-1.4.3-1.1.2-2.6-.3-3.3-.6-.9-.9.1-.9 2.9zM865.672 439.862c0 1.2-.5 1.5-2 1-1.2-.4-2-.2-2 .5 0 .6-.4.8-1 .5-1.3-.8-1.3 2.1.1 4.6.7 1.5.7 2.4-.1 3.4-2.3 2.7 6.9 6.5 9.8 4 .9-.8.5-8.9-.5-9.2-.8-.3-.9-1.2-.3-2.9.6-1.4.6-2.4.1-2.4s-1.6-.3-2.5-.6c-1.1-.4-1.6-.1-1.6 1.1zM58.672 446.362c0 .5.5 1 1.1 1 .5 0 .7-.5.4-1-.3-.6-.8-1-1.1-1-.2 0-.4.4-.4 1zM55.872 449.362c0 2 .4 3 1.1 2.7 1.2-.4 1.1-3.6-.2-5-.4-.4-.8.6-.9 2.3zM856.672 447.462c0 .5.5.7 1 .4.6-.3 1-.8 1-1.1 0-.2-.4-.4-1-.4-.5 0-1 .5-1 1.1zM854.772 451.562c.6 1.4 2 2.4 3.5 2.4l2.4.2-2.2-2.4c-3-3.1-5.1-3.2-3.7-.2zM59.672 451.762c0 .8.6 1.6 1.3 1.9.8.3 1.3-.3 1.3-1.4 0-1.1-.6-1.9-1.3-1.9-.7 0-1.3.6-1.3 1.4zM849.272 454.862c-.4 1.2-.1 1.6 1.4 1.3 2.4-.3 2.8-2.2.7-2.6-.8-.2-1.7.4-2.1 1.3zM66.972 462.762c-3 2.8-4.4 3.7-5.2 3.1-1.3-.8-.7 2.3.7 3.7.7.7 1.2 2.5 1.2 4 0 2.1.5 2.8 2 2.8 1.1 0 2-.4 2-.9 0-1.3 4-.2 7 1.9 1.4 1 3.6 2.1 5 2.5 2.5.8 2.5.7-.5-2.3-5-5.2-7-7.7-6.7-8.5.1-.4-.3-.7-.9-.7-.5 0-.8-.4-.5-.8.3-.5-.3-2-1.2-3.4-1.3-1.9-2-2.3-2.9-1.4zM83.272 480.262c-1.3 1.4-1.4 2.1-.6 2.6 1.3.8 3-1.1 3-3.3 0-1.6-.4-1.5-2.4.7zM718.872 505.462c-.9 1.5-1.9 1.8-3.5 1.3-1.9-.6-2-.5-.8.9.7.9 1.1 2.3.8 3.2-.4.8-.2 1.7.3 2 .6.4 1 .1 1-.4 0-.6 1-1.1 2.3-1.1 1.2 0 2.9-.5 3.7-1 1-.6 2-.4 3 .5 1.4 1.3 1.6 1 1.8-2.2.2-2.1.8-4.1 1.5-4.5.8-.5.7-.8-.5-.8-.9 0-2 .5-2.4 1.1-.4.8-.9.8-1.7 0-1.7-1.7-4.1-1.3-5.5 1zM346.272 541.062c-.5 1.5.2 2.9 2.3 5.2 1.6 1.7 3.2 2.7 3.6 2.2.3-.6-.6-1.8-2-2.7-1.6-1-2.2-2-1.6-2.4.8-.4.7-1.2-.3-2.5-1.3-1.8-1.4-1.8-2 .2zM694.672 546.762c0 .2.8 1 1.8 1.7 1.5 1.3 1.6 1.2.3-.4s-2.1-2.1-2.1-1.3zM1082.772 567.562c1 1.8.9 2-.5 1.5-2-.8-3.3 1.2-1.5 2.4 2 1.2 4.9-2.1 3.7-4.4-.5-.9-1.3-1.7-1.9-1.7-.6 0-.5.8.2 2.2zM887.472 605.662c.6.7 1.2 2.3 1.4 3.7.2 1.8 1.2 2.8 3.8 3.6 1.9.7 3.4 1.5 3.2 1.8-.2.4.3 1.8 1.2 3.1.9 1.3 1.3 3.2.9 4.1-.5 1.4-.2 1.6 2 1 1.4-.3 2.9-.1 3.2.4.4.6 1 .8 1.4.5 1.3-.8 4.8 3.8 5.6 7.2.3 1.8 1.2 3.3 2 3.3 1.6 0 4.5 4.3 4.5 6.7.1 2.7 8 10.7 9.3 9.4 1.3-1.3 6.7 1.4 6.7 3.4 0 .8-.4 1.5-.9 1.5-2.2 0-4 6.1-3.2 10.5.6 3.4.5 5-.7 6.6-.9 1.3-1.2 3.3-.9 5.5.4 2.5.2 3.4-.9 3.4-.8 0-1.4-.7-1.4-1.5s-.5-1.5-1.1-1.5c-.6 0-.9.6-.6 1.3.3.8.1 2-.4 2.8-.8 1.2-1 1.2-1.8-.1-.5-.8-.7-1.8-.5-2.2.9-1.5-3.1.6-4.7 2.4-.9 1-2.3 1.8-3 1.8-.8 0-2.3.6-3.4 1.4-1.1.7-4 1.6-6.5 1.9-2.5.4-5.6 1-7 1.3-1.4.4-2.2.3-1.8-.1.4-.5.3-1.4-.3-2.2-.9-1-.8-1.3.1-1.3 1 0 1-.3 0-1.5-.7-.8-1.6-1.2-2.1-.9-.5.3-.9 0-.9-.5 0-.7-.7-.7-2 .1-1.6 1-2.4 1-4 0-3.7-2.3-12.4.7-12.5 4.2 0 .6-1.1 1-2.3.9-1.2-.2-2.2.2-2.2.8 0 .6-.7.3-1.6-.5-2-2-3.4-2-3.4-.1 0 .9-.9 1.5-2.3 1.5-1.6 0-2.8.9-3.5 2.5-.8 1.7-2 2.5-3.7 2.5-1.4 0-2.5.4-2.5 1 0 .5-.9 1.9-2.1 3.1-2.6 2.6-1.9 4.5 2 5.4 3.9.8 8.1 4.2 8.1 6.5 0 .9.7 2.3 1.5 3 .8.7 1.5 2 1.5 2.9 0 2.2 5.1 7.1 7.2 7.1 3.4 0 4.8 1.3 5.4 5.1.4 2.3 1.4 4.4 2.5 4.9 1 .6 2.1 2 2.4 3.2.4 1.3 1.7 4.3 2.9 6.7 1.5 3.1 1.7 4.5.9 4.8-.7.2-1 1-.7 1.8.3.7-.2 2.7-1.1 4.4-1.5 3-1.5 3.2 1.6 6.5 1.8 2 3.7 3.2 4.5 2.9 1-.4 1.4.3 1.4 2.1 0 1.6-.6 2.6-1.5 2.6-1.9 0-1.9 1.9.1 6 1.4 2.7 1.4 3.4.3 4.1-1 .6-.8.9.9.9 1.2 0 2.2.2 2.2.6 0 .3-1 2.3-2.2 4.4-1.5 2.7-3 4-4.4 4-2 0-2 .2-1 4.4.6 2.4 1.8 5.1 2.5 6 1.7 2 5.8 1.7 5.3-.4-1.2-5.1-1.1-5.8.8-6.3 1.1-.3 2-.9 1.9-1.4-.1-.4-.1-1.5 0-2.3.1-1.2.4-1.2 1.2.2 1.3 2.2 3.3 2.4 2.5.2-.5-1.2-.2-1.5 1.1-.9 6.9 2.8 7.3 2.8 9.3.5 1-1.2 2.4-1.9 3-1.5.7.4 1 .1.8-.8-.5-2.3 2.3-2.4 4.6-.2 1.2 1.3 2.6 1.3 9 .4 4.2-.5 8-.8 8.5-.4.5.3 1.3-.4 1.6-1.6.5-1.5 1-1.8 1.8-1 1.6 1.6 3.7 1.4 3.7-.4 0-2.6 1.6-1.7 3.6 2 1.8 3.4 3.4 4.6 3.4 2.5 0-.5.7-.7 1.5-.4 1.1.4 1.3.2.9-.9-1-2.7 2.3-7.5 5.6-8.2 2.5-.6 2.9-.9 1.9-2.1-.6-.8-.8-1.4-.3-1.4.5-.1 1.9-.9 3.2-2 1.7-1.4 2.1-2.4 1.4-3.6-.6-1.1-.3-2.8 1-5.2 1.7-3.4 1.8-5.5.2-9.6-.5-1.3.1-1.6 2.5-1.6 1.9 0 3.4-.6 3.7-1.5.4-.8 1.2-1.5 2-1.5s1.4-.6 1.4-1.4c0-.8.5-1.6 1.2-1.8.7-.3 1.2-2.1 1.1-4.4-.1-2.1.4-4.8 1-5.9 1.8-3.2 1.6-4.1-.6-4.1-1.1.1-2.2-.5-2.4-1.2-.3-.7.4-1.2 1.5-1.2 2.1 0 4.6-2.3 3.5-3.3-.3-.4 0-1.4.8-2.3.7-.9 1.4-2.4 1.4-3.3.1-.9.2-3.1.3-5 .2-2.4.6-3.2 1.6-2.8.8.3 1.7.1 2-.6.3-.8.5-.8.5-.1.1 1.6 5.1.5 5.8-1.2.3-.8 1.3-1.4 2.2-1.4.9 0 2.4-.9 3.4-2 1.5-1.8 1.4-2.4-.4-2.2-1.4.2-4-3.6-3-4.3 1.6-.9 1.3-5.2-.4-5.9-.8-.3-1.5-1.7-1.5-3.2 0-1.7-.6-2.8-2-3.1-1.1-.3-2-1.1-2-1.9 0-.7-.9-2.8-2-4.6-2.1-3.5-2.7-10.2-1-11.3.6-.3 1-1.7 1-3 0-1.2.6-2.5 1.4-2.8 1-.4 1.3-1.6.9-3.9-.9-6.1-1.9-7-6.8-6.3-3.8.6-4.4.5-5-1.4-.8-2.6-2.6-2.7-4.3-.1-.7 1.1-1.8 2-2.6 2-1.7 0-5.6 3.4-5.6 4.9 0 .6-.9 1.1-2 1.1s-2-.4-2-.9-1.6-1.8-3.5-3c-1.9-1.1-3.5-2.7-3.5-3.6 0-2.7-5.8-14.2-7.6-14.9-.9-.3-1.4-1.2-1-2.1.4-1.1-.2-1.5-2.6-1.5-4.7 0-11.8-4.5-11.8-7.5 0-1.5-.7-2.6-2-3-1.1-.4-1.8-1.1-1.4-1.6 1-1.6-1.6-3.8-5.1-4.5-1.8-.3-4.4-1.7-5.6-3-1.8-1.9-2.9-2.3-5.4-1.8-2.7.5-3.6.1-5.4-2.1-1.1-1.5-2.1-3.7-2.1-4.9-.1-1.9-.2-1.9-1.3-.5-2.1 2.7-5.3 3.2-7.4 1.1-2-2.1-7.1-3.9-5.5-1.9zm45.1 77.9c1.4 3.5-.4 4.3-3.9 1.8-2.4-1.7-2.9-2.5-1.8-3.1 2.4-1.5 4.8-.9 5.7 1.3zm-11 2.1c-.2.1-1.2.9-2.1 1.6-1.5 1.2-1.8 1.1-1.8-.3 0-1 .8-1.6 2.2-1.6 1.2 0 1.9.1 1.7.3z"/><path d="M891.672 615.362c0 .6.7 1 1.5 1s1.5-.2 1.5-.4-.7-.6-1.5-1c-.8-.3-1.5-.1-1.5.4zM959.672 655.762c0 .2.9.6 2 .9 1.1.3 1.8.1 1.4-.4-.5-.9-3.4-1.3-3.4-.5zM802.872 672.262c.4 1.3 1.8 1.6 1.9.4 0-.4-.5-.9-1.1-1.2-.7-.2-1.1.2-.8.8zM842.272 703.262c-.4.6-2.4 1.6-4.6 2.2-2.2.7-4.9 2.3-6.1 3.5l-2.2 2.4h2.1c1.3 0 2.2-.6 2.2-1.4 0-2.4 1.6-2.7 4-.6 2.1 1.8 2.3 1.8 4.5.2 1.4-1 2.2-2.6 2-4-.3-2.8-1.1-3.7-1.9-2.3zM825.872 713.662c-1.2.7-1.9 1.6-1.6 2 1.4 1.3 3.2.7 3.7-1.3.3-1.1.4-2 .4-2-.1.1-1.2.6-2.5 1.3z"/></g></svg>