<?xml version="1.0" standalone="no"?>
<!DOCTYPE svg PUBLIC "-//W3C//DTD SVG 20010904//EN"
 "http://www.w3.org/TR/2001/REC-SVG-20010904/DTD/svg10.dtd">
<svg version="1.0" xmlns="http://www.w3.org/2000/svg"
 width="292.646051pt" height="153.742657pt" viewBox="0 0 292.646051 153.742657"
 preserveAspectRatio="xMidYMid meet">
<metadata>
Created by potrace 1.15, written by Peter Selinger 2001-2017
</metadata>
<g transform="translate(-898.222973,1096.418574) scale(0.100000,-0.100000)"
fill="#222222" stroke="none">
<path d="M10227 10954 c3 -8 14 -14 25 -14 23 0 16 16 -11 23 -14 3 -18 1 -14
-9z"/>
<path d="M10125 10907 c14 -22 13 -26 -10 -57 -28 -38 -51 -54 -64 -46 -5 4
-5 -9 -1 -29 6 -27 5 -35 -6 -35 -8 0 -14 -7 -14 -16 0 -9 -6 -14 -13 -11 -10
4 -13 -9 -11 -55 2 -47 -1 -63 -17 -79 -10 -10 -19 -26 -19 -34 0 -8 -5 -15
-11 -15 -5 0 -7 -4 -4 -10 3 -5 17 -10 31 -10 23 0 24 -3 18 -34 -4 -24 -1
-42 9 -56 8 -12 13 -29 10 -40 -3 -10 0 -21 6 -24 6 -4 11 -16 11 -27 0 -22 1
-23 34 -8 15 7 28 23 31 41 4 15 12 28 18 27 26 -3 37 2 37 17 0 10 6 14 14
11 14 -5 56 34 56 53 0 5 6 13 14 17 14 8 16 12 16 34 0 15 73 44 78 31 7 -22
32 1 32 29 0 22 -6 32 -26 39 -14 6 -23 14 -20 19 3 5 -10 23 -29 39 -39 35
-52 71 -36 100 8 15 7 23 -4 32 -20 17 -19 30 3 30 16 0 20 21 13 69 -2 20
-42 21 -80 2 -30 -14 -41 -16 -41 -6 0 7 -7 16 -16 19 -25 9 -26 8 -9 -17z
m-35 -147 c0 -5 -5 -10 -11 -10 -5 0 -7 5 -4 10 3 6 8 10 11 10 2 0 4 -4 4
-10z"/>
<path d="M9897 10296 c-3 -8 -22 -18 -41 -21 -22 -5 -38 -14 -41 -26 -4 -10
-17 -27 -30 -37 -27 -22 -23 -37 5 -20 14 9 22 9 33 -1 11 -8 17 -9 22 -1 3 6
11 8 16 4 6 -3 19 4 29 16 15 17 22 19 39 11 11 -6 23 -11 28 -11 13 0 32 49
22 56 -5 3 -7 10 -4 15 4 5 -5 9 -19 9 -14 0 -28 5 -31 10 -9 14 -22 12 -28
-4z"/>
<path d="M9623 10241 c-11 -35 -27 -61 -38 -61 -8 0 -10 -10 -7 -26 3 -18 1
-25 -6 -20 -6 3 -12 2 -14 -3 -1 -4 -14 -11 -28 -15 -14 -3 -20 -4 -15 -1 6 3
9 29 7 58 -3 41 -7 53 -20 53 -9 1 -25 4 -34 8 -13 6 -19 2 -24 -18 -7 -29
-31 -40 -68 -30 -22 5 -25 3 -20 -10 3 -9 2 -22 -4 -29 -13 -16 -23 -117 -12
-117 17 0 57 -45 55 -60 -2 -11 7 -17 27 -18 21 -2 36 6 57 29 25 27 32 29 50
19 19 -9 25 -8 41 12 11 13 19 30 20 38 0 9 20 33 45 53 32 27 45 45 45 64 0
20 4 24 20 20 23 -6 26 3 8 21 -16 16 4 16 22 0 10 -9 9 -6 -2 12 -19 31 -97
47 -105 21z"/>
<path d="M10327 10223 c-11 -3 -16 -10 -13 -20 3 -8 6 -17 6 -19 0 -2 7 -4 15
-4 9 0 15 9 15 25 0 14 -1 24 -2 24 -2 -1 -11 -3 -21 -6z"/>
<path d="M10347 10162 c-15 -16 -13 -19 24 -40 21 -12 39 -29 39 -36 0 -8 6
-16 14 -19 25 -10 26 5 1 25 -13 10 -30 34 -36 53 -15 40 -20 42 -42 17z"/>
<path d="M9812 10158 c-14 -18 17 -75 42 -75 21 0 21 21 0 38 -9 7 -19 22 -23
32 -6 16 -9 16 -19 5z"/>
<path d="M9870 10022 c0 -26 5 -53 11 -59 8 -8 5 -17 -10 -32 -34 -34 -21 -85
23 -93 28 -5 43 -34 29 -56 -9 -15 -7 -21 8 -30 10 -7 19 -18 19 -25 0 -8 11
-19 25 -25 14 -6 25 -17 25 -23 0 -8 12 -10 35 -6 21 3 35 2 35 -4 0 -11 80
-6 100 6 14 9 41 -25 35 -44 -4 -10 2 -12 26 -7 17 3 44 6 60 6 24 0 29 4 29
24 0 14 -5 28 -11 32 -16 9 -1 121 22 168 16 30 17 41 8 52 -7 8 -18 13 -24
10 -7 -2 -37 6 -68 19 -32 12 -57 18 -57 13 0 -5 -10 -6 -22 -2 -13 4 -34 7
-48 8 -15 1 -24 6 -22 14 2 9 -4 11 -18 7 -11 -4 -34 1 -51 9 -17 9 -36 13
-41 10 -6 -4 -14 -1 -18 6 -6 9 -12 9 -29 0 -17 -9 -26 -9 -37 0 -7 7 -11 16
-8 21 7 12 -5 49 -17 49 -5 0 -9 -22 -9 -48z m329 -283 c-13 -11 -29 -17 -36
-15 -7 3 -13 -1 -13 -9 0 -21 -24 -19 -45 5 -17 18 -16 19 6 24 13 3 35 7 49
8 18 2 26 10 28 27 l4 23 15 -21 c14 -20 13 -24 -8 -42z"/>
<path d="M10457 10049 c-18 -10 -18 -12 2 -26 12 -8 21 -22 21 -33 0 -16 3
-17 33 -7 17 7 38 17 45 24 10 10 7 14 -15 19 -15 4 -34 13 -41 21 -16 16 -21
16 -45 2z"/>
<path d="M10386 10025 c3 -7 12 -16 19 -19 9 -3 12 0 9 9 -3 7 -12 16 -19 19
-9 3 -12 0 -9 -9z"/>
<path d="M10586 9997 c2 -7 14 -13 25 -14 21 -2 21 -1 3 12 -24 18 -35 19 -28
2z"/>
<path d="M10420 9971 c0 -5 9 -7 20 -4 11 3 20 7 20 9 0 2 -9 4 -20 4 -11 0
-20 -4 -20 -9z"/>
<path d="M9307 9924 c-16 -22 -17 -25 -2 -30 9 -4 24 0 33 10 14 14 14 18 2
30 -13 13 -17 11 -33 -10z"/>
<path d="M10430 9940 c0 -5 -13 -10 -29 -10 -22 0 -30 -5 -33 -23 -4 -20 -1
-23 23 -19 17 2 31 12 34 23 4 10 11 19 16 19 5 0 9 5 9 10 0 6 -4 10 -10 10
-5 0 -10 -4 -10 -10z"/>
<path d="M10465 9940 c3 -5 8 -10 11 -10 2 0 4 5 4 10 0 6 -5 10 -11 10 -5 0
-7 -4 -4 -10z"/>
<path d="M10504 9944 c-8 -3 -9 -16 -4 -40 10 -45 11 -46 54 -47 20 -1 36 -4
36 -7 0 -4 16 -14 35 -23 19 -9 35 -14 35 -11 0 11 -72 73 -82 71 -6 -1 -18
11 -27 27 -18 31 -28 37 -47 30z"/>
<path d="M9378 9933 c-11 -3 -18 -14 -18 -29 0 -18 -5 -24 -23 -24 -31 0 -50
-55 -36 -105 6 -20 8 -39 5 -44 -3 -5 1 -14 9 -21 7 -6 11 -18 8 -26 -3 -9 3
-21 15 -30 12 -8 19 -21 16 -28 -10 -27 57 -2 82 29 l23 30 -35 0 c-19 0 -34
-3 -34 -7 0 -5 -7 -8 -15 -8 -8 0 -15 5 -15 11 0 5 5 7 10 4 16 -10 11 12 -7
30 -12 13 -14 21 -6 33 6 11 6 25 -1 45 -10 25 -8 31 13 48 14 11 21 25 17 34
-3 8 -1 26 4 40 5 14 8 24 7 24 -1 -1 -10 -3 -19 -6z"/>
<path d="M9430 9921 c0 -5 5 -13 10 -16 6 -3 10 -2 10 4 0 5 -4 13 -10 16 -5
3 -10 2 -10 -4z"/>
<path d="M9171 9886 c-7 -8 -22 -17 -35 -20 -32 -8 -45 -55 -20 -73 16 -12 16
-15 -2 -48 -13 -24 -24 -33 -35 -30 -32 10 -67 -12 -74 -47 -4 -18 -13 -37
-19 -41 -7 -6 -5 -7 6 -3 10 3 20 1 23 -4 10 -16 25 -11 19 5 -6 16 19 21 79
17 15 -1 27 2 27 8 0 5 9 10 20 10 13 0 18 5 14 15 -3 8 1 24 10 37 9 12 16
31 16 41 0 10 9 21 20 24 14 4 20 14 20 36 0 17 7 39 17 49 15 17 14 18 -15
18 -17 0 -34 5 -37 10 -9 14 -20 12 -34 -4z"/>
<path d="M10699 9782 c18 -22 39 -65 47 -97 16 -59 44 -94 76 -95 10 0 30 -18
45 -41 24 -36 31 -40 60 -37 27 3 34 0 44 -23 13 -32 31 -41 64 -33 13 3 30 2
37 -2 7 -5 31 -9 53 -10 22 -1 63 -6 90 -12 31 -6 54 -7 59 -1 6 5 18 9 28 9
10 0 18 7 18 15 0 9 6 15 13 14 6 -1 27 -1 45 0 25 1 32 5 32 22 0 11 5 17 10
14 6 -3 10 -2 10 4 0 5 -4 13 -10 16 -21 13 -9 24 15 13 14 -6 25 -19 25 -28
0 -23 54 -34 80 -17 11 6 20 15 20 19 0 5 8 8 18 8 10 0 23 13 31 32 14 31 13
32 -20 60 -18 16 -40 26 -47 23 -21 -8 -35 5 -23 19 8 9 4 16 -13 26 -13 7
-32 27 -42 46 -14 25 -23 32 -39 29 -11 -3 -49 -10 -85 -16 -36 -6 -73 -18
-82 -26 -10 -9 -25 -13 -34 -9 -9 3 -23 1 -30 -5 -7 -6 -18 -8 -23 -5 -5 4
-12 2 -16 -3 -9 -16 -34 -1 -28 16 5 12 2 15 -14 11 -11 -3 -29 -1 -39 5 -10
5 -16 6 -12 2 5 -5 -2 -15 -14 -23 -19 -14 -22 -13 -33 2 -12 15 -13 14 -19
-7 -6 -24 -8 -25 -81 -26 -54 -1 -64 0 -75 14 -7 8 -18 15 -25 15 -16 0 -47
28 -70 63 -10 15 -31 35 -48 43 l-29 16 31 -40z"/>
<path d="M11612 9616 c1 -10 8 -17 13 -17 15 1 12 24 -3 29 -9 3 -13 -2 -10
-12z"/>
<path d="M11874 9570 c-7 -24 -17 -36 -34 -40 -42 -10 -31 -25 18 -25 41 0 47
3 50 23 2 12 -1 22 -7 22 -5 0 -11 12 -13 28 -4 27 -4 27 -14 -8z"/>
<path d="M11720 9539 c0 -5 -6 -7 -12 -4 -7 4 -2 -3 12 -14 25 -21 67 -25 63
-6 -2 14 -63 38 -63 24z"/>
</g>
</svg>
