<?xml version="1.0" standalone="no"?>
<!DOCTYPE svg PUBLIC "-//W3C//DTD SVG 20010904//EN"
 "http://www.w3.org/TR/2001/REC-SVG-20010904/DTD/svg10.dtd">
<svg version="1.0" xmlns="http://www.w3.org/2000/svg"
 width="663.816122pt" height="660.000000pt" viewBox="0 0 663.816122 660.000000"
 preserveAspectRatio="xMidYMid meet">
<metadata>
Created by potrace 1.15, written by Peter Selinger 2001-2017
</metadata>
<g transform="translate(-690.541922,1390.000000) scale(0.100000,-0.100000)"
fill="#222222" stroke="none">
<path d="M12890 13891 c0 -6 5 -13 10 -16 6 -3 10 1 10 9 0 9 -4 16 -10 16 -5
0 -10 -4 -10 -9z"/>
<path d="M12896 13841 c-7 -11 -1 -85 8 -100 4 -7 2 -18 -4 -26 -16 -19 -4
-65 15 -65 11 0 15 -11 15 -38 0 -21 5 -43 12 -50 9 -9 7 -12 -10 -12 -28 0
-39 -25 -21 -47 16 -19 13 -51 -7 -74 -8 -8 -14 -21 -14 -27 0 -6 -11 -23 -25
-38 -25 -26 -25 -27 -52 -8 -16 10 -41 25 -57 32 -26 11 -30 10 -43 -8 -8 -11
-22 -20 -32 -20 -23 0 -51 -31 -51 -57 0 -11 -8 -27 -19 -37 -11 -10 -16 -25
-14 -39 3 -15 -5 -32 -21 -50 -14 -16 -26 -32 -26 -38 0 -5 -6 -12 -14 -15 -8
-3 -12 -12 -9 -20 3 -7 -2 -17 -11 -20 -12 -5 -10 -11 14 -31 17 -14 30 -30
30 -36 0 -18 66 -67 89 -67 12 0 21 5 21 10 0 6 11 8 26 4 17 -4 29 -2 34 7 7
10 14 10 34 1 17 -8 26 -8 26 -1 0 6 5 7 10 4 6 -3 10 -17 10 -30 0 -31 14
-39 34 -19 11 10 25 14 41 10 20 -5 25 -3 25 14 0 11 7 20 15 20 9 0 15 9 15
21 0 17 3 19 14 10 8 -6 18 -11 22 -10 13 3 46 -12 66 -28 14 -13 22 -13 52
-2 20 7 36 18 36 25 0 6 7 14 15 18 8 3 15 12 15 20 0 8 7 19 16 24 10 6 17
24 18 49 1 24 11 51 24 68 21 26 21 29 5 47 -12 14 -24 17 -50 12 -25 -5 -33
-3 -33 9 0 8 -7 20 -15 27 -13 10 -13 14 1 28 9 8 14 25 11 39 -4 19 0 23 22
23 15 0 33 6 40 13 10 10 15 8 26 -7 8 -10 18 -15 24 -12 5 3 42 -19 83 -49
40 -30 81 -55 91 -55 19 0 77 51 77 69 0 14 17 15 25 1 13 -20 26 -10 14 11
-6 12 -9 39 -6 60 3 23 0 42 -7 47 -15 13 -82 25 -141 26 -41 1 -50 4 -53 21
-8 54 -14 66 -37 75 -14 5 -25 14 -25 20 0 5 -9 10 -20 10 -10 0 -35 14 -54
31 -19 16 -38 30 -41 29 -3 -1 -18 1 -34 5 -31 7 -46 37 -31 64 5 10 3 26 -7
44 -13 27 -16 28 -32 12 -16 -13 -19 -14 -24 -2 -7 20 -58 32 -67 16 -10 -16
-30 -2 -30 21 0 39 -20 64 -34 41z"/>
<path d="M12985 13810 c3 -5 8 -10 11 -10 2 0 4 5 4 10 0 6 -5 10 -11 10 -5 0
-7 -4 -4 -10z"/>
<path d="M12316 13101 l-30 -6 32 -29 c30 -29 30 -31 15 -57 l-16 -26 -21 21
c-19 19 -21 19 -24 3 -2 -10 -8 -14 -15 -10 -6 4 -22 8 -35 9 -21 2 -23 0 -17
-19 28 -94 28 -120 -3 -115 -11 2 -18 -5 -20 -19 -2 -12 -12 -25 -22 -28 -10
-3 -23 -19 -29 -35 -8 -25 -15 -30 -44 -30 -20 0 -40 -7 -48 -17 -8 -9 -28
-22 -45 -29 -25 -11 -31 -18 -27 -37 6 -28 -16 -45 -112 -92 -33 -16 -61 -30
-63 -31 -2 -1 1 -11 6 -21 13 -23 0 -49 -18 -38 -8 5 -11 4 -7 -2 4 -6 0 -13
-8 -17 -8 -3 -15 -12 -15 -20 0 -9 -9 -20 -21 -26 -12 -7 -18 -17 -15 -27 3
-8 -2 -25 -13 -39 l-18 -23 -42 35 -41 35 6 -30 c6 -28 4 -31 -19 -31 -21 0
-24 -4 -20 -21 4 -14 0 -25 -11 -31 -9 -5 -16 -16 -16 -24 0 -8 -4 -13 -9 -10
-5 3 -11 -9 -14 -27 -4 -28 1 -38 39 -74 24 -24 44 -49 44 -57 0 -7 10 -20 23
-28 27 -19 97 -28 97 -13 0 5 7 2 14 -8 13 -17 16 -17 45 12 27 26 30 33 21
57 -22 56 18 90 79 68 35 -13 37 -12 68 21 33 35 48 32 48 -9 0 -13 8 -20 27
-22 21 -2 26 1 21 14 -6 15 -5 15 11 2 16 -12 20 -12 30 0 6 8 18 15 26 15 12
0 14 10 12 46 -3 43 -1 47 23 53 22 6 26 11 23 31 -5 24 25 65 47 63 6 0 16
11 23 26 8 15 20 30 28 33 8 3 14 12 14 20 0 11 7 13 25 9 41 -10 49 4 18 30
-15 13 -31 24 -35 24 -4 0 -10 17 -14 38 -4 22 -17 46 -33 59 l-26 21 25 -4
c22 -4 28 2 50 50 14 31 29 56 34 56 4 0 6 9 3 21 -3 13 2 28 14 40 11 11 19
33 19 54 0 28 4 35 20 35 15 0 20 7 20 25 0 15 6 25 14 25 8 0 29 12 46 26 39
34 39 81 0 101 -26 13 -94 15 -144 4z"/>
<path d="M12290 12660 c-9 -6 -10 -10 -3 -10 6 0 15 5 18 10 8 12 4 12 -15 0z"/>
<path d="M9233 12461 c-9 -11 -20 -18 -23 -16 -7 4 -10 -22 -10 -97 -1 -31 -8
-43 -48 -79 -26 -23 -46 -45 -44 -50 1 -5 -2 -9 -8 -9 -5 0 -7 -6 -4 -14 4
-11 -6 -17 -38 -24 -24 -5 -47 -5 -52 0 -16 13 -56 9 -62 -7 -4 -8 -12 -15
-20 -15 -16 0 -7 -30 14 -46 11 -8 12 -13 3 -18 -9 -6 -7 -12 6 -22 17 -13 17
-13 -2 -14 -12 0 -26 5 -33 12 -9 9 -12 8 -12 -6 0 -13 -5 -16 -20 -11 -17 5
-20 2 -20 -20 0 -20 -4 -26 -15 -21 -11 4 -19 -3 -26 -21 -5 -14 -17 -31 -25
-37 -20 -15 -8 -45 23 -57 13 -5 22 -13 19 -18 -4 -5 4 -7 16 -3 18 4 20 2 15
-19 -4 -13 -7 -41 -7 -62 0 -31 -4 -40 -21 -44 -16 -4 -17 -8 -7 -14 10 -6 10
-11 0 -21 -6 -6 -12 -20 -12 -30 0 -11 -10 -20 -26 -24 -18 -5 -22 -9 -13 -14
7 -5 20 -3 30 3 13 8 21 7 33 -2 9 -8 16 -9 16 -4 0 8 42 29 94 47 15 5 16 9
6 21 -11 13 -8 14 21 9 19 -4 31 -4 28 0 -4 4 -17 9 -29 11 -12 2 -24 6 -25 7
-6 6 29 98 36 98 14 0 10 48 -3 53 -7 2 -10 8 -6 12 5 5 20 2 35 -5 65 -30
159 -15 170 28 3 15 11 21 20 18 8 -3 18 -6 22 -6 5 0 25 -14 46 -30 21 -17
41 -28 44 -24 3 3 -2 10 -12 16 -16 9 -17 12 -4 26 8 10 17 29 21 44 3 14 17
40 31 56 14 17 25 39 25 51 0 19 4 21 43 15 23 -4 47 -11 52 -17 7 -7 5 -7 -4
-2 -10 6 -12 4 -7 -4 4 -6 9 -32 10 -56 2 -42 5 -47 48 -74 25 -16 49 -34 53
-41 5 -8 10 -8 20 0 7 6 20 7 29 4 20 -8 61 -84 46 -84 -6 0 7 -22 30 -48 22
-27 42 -58 45 -69 5 -27 33 -83 52 -105 11 -13 12 -21 3 -37 -6 -12 -16 -21
-22 -21 -16 0 10 -28 41 -43 14 -7 25 -20 25 -29 -1 -11 9 -19 27 -23 16 -4
29 -10 30 -13 5 -47 10 -66 21 -73 7 -4 10 -11 6 -14 -3 -3 -2 -23 3 -43 5
-24 4 -39 -3 -43 -14 -9 13 -48 44 -63 20 -10 23 -20 25 -71 1 -33 3 -73 4
-90 1 -16 -3 -47 -9 -67 -8 -31 -7 -40 9 -54 11 -9 19 -22 19 -28 0 -6 13 -22
30 -36 25 -21 31 -34 34 -76 2 -28 8 -59 13 -70 7 -13 6 -26 -2 -42 -10 -19
-14 -20 -24 -8 -6 8 -23 17 -36 20 -16 4 -25 13 -25 27 0 23 -57 79 -81 79
-21 0 -52 35 -54 62 -1 12 -12 28 -23 36 -12 8 -22 20 -22 27 0 18 -21 24 -43
13 -10 -5 -25 -7 -33 -4 -23 9 -44 -5 -44 -29 0 -25 -24 -50 -38 -41 -5 3 -7
-5 -5 -17 4 -19 -3 -27 -36 -41 -27 -13 -52 -17 -77 -13 -20 4 -44 2 -54 -3
-12 -6 -23 -1 -44 21 -15 16 -34 29 -42 29 -8 0 -14 6 -14 14 0 8 -12 29 -27
46 -24 29 -31 32 -69 27 -23 -2 -47 0 -52 5 -6 6 -12 5 -17 -2 -5 -8 -1 -16 9
-22 9 -5 13 -14 10 -20 -12 -18 19 -28 33 -10 11 16 12 16 13 1 0 -18 -19 -29
-50 -29 -10 0 -22 -9 -25 -20 -3 -11 -15 -20 -26 -20 -21 0 -23 -8 -9 -30 5
-8 5 -19 1 -25 -18 -23 -19 -55 -3 -64 9 -5 14 -13 10 -16 -4 -4 -14 0 -23 9
-9 9 -26 21 -37 27 -20 11 -21 9 -14 -22 5 -26 4 -31 -6 -21 -16 16 -39 16
-32 0 2 -7 22 -21 44 -30 38 -16 60 -42 46 -55 -3 -3 -12 0 -21 7 -13 10 -15
9 -15 -8 0 -30 -21 -72 -36 -72 -7 0 -29 9 -48 21 l-36 21 0 -20 c0 -12 -5
-24 -10 -27 -6 -4 -8 -15 -5 -25 3 -9 0 -30 -6 -46 -20 -49 -20 -57 4 -49 30
9 48 9 71 0 16 -7 17 -5 9 11 -5 10 -9 30 -9 44 1 36 29 32 36 -5 4 -16 14
-43 22 -60 14 -27 14 -30 -1 -41 -9 -7 -13 -16 -9 -20 4 -4 14 -1 22 5 8 7 27
10 43 8 22 -3 31 -11 39 -38 8 -22 17 -33 28 -31 9 2 16 -3 16 -11 0 -7 11
-20 25 -27 16 -8 25 -22 25 -37 0 -27 -16 -31 -25 -5 -3 11 -24 34 -46 51 -38
32 -41 32 -54 15 -8 -11 -15 -22 -15 -26 0 -14 -31 -8 -35 7 -3 8 -7 22 -10
31 -4 13 -10 9 -28 -17 -12 -18 -26 -32 -31 -30 -5 2 -13 -4 -18 -13 -5 -9
-13 -16 -18 -16 -10 0 -2 66 12 93 14 27 -7 20 -22 -8 -7 -13 -21 -27 -31 -30
-9 -3 -20 -12 -23 -20 -3 -8 -15 -15 -27 -15 -17 0 -20 -5 -17 -25 4 -20 1
-25 -16 -25 -32 0 -116 -77 -116 -106 0 -15 -16 -42 -42 -69 -34 -36 -49 -45
-75 -45 -23 0 -33 -5 -33 -15 0 -8 -4 -15 -8 -15 -5 0 -18 -9 -30 -20 -17 -16
-26 -18 -41 -11 -14 8 -23 6 -36 -9 -10 -11 -24 -20 -30 -20 -7 0 -16 -11 -19
-25 -4 -14 -13 -25 -20 -25 -8 0 -16 -7 -20 -15 -9 -24 -34 -17 -50 14 -20 37
-46 48 -46 19 0 -17 -4 -20 -30 -15 -16 4 -32 2 -35 -3 -3 -6 -24 -10 -45 -10
-43 0 -62 -17 -36 -32 9 -5 16 -15 16 -22 0 -16 -37 -28 -46 -15 -3 5 -14 5
-25 -2 -13 -7 -24 -7 -32 -1 -9 8 -12 2 -13 -19 -1 -16 -8 -37 -17 -47 -10
-11 -14 -26 -10 -41 5 -20 3 -22 -22 -19 -34 4 -45 -17 -13 -26 17 -4 20 -8
10 -14 -8 -6 -11 -19 -7 -38 4 -16 9 -42 12 -59 3 -16 15 -40 26 -53 18 -19
19 -25 7 -32 -8 -5 -21 -5 -31 1 -26 14 -31 11 -19 -11 10 -19 8 -21 -12 -19
-50 4 -78 -1 -78 -16 0 -9 -6 -12 -15 -9 -8 4 -15 1 -15 -5 0 -14 -33 -14 -47
0 -8 8 -15 6 -25 -10 -7 -11 -19 -21 -27 -21 -10 0 -8 -7 8 -24 26 -27 21 -46
-12 -47 l-22 0 23 -9 c18 -8 21 -15 17 -37 -6 -27 -6 -27 10 -8 14 17 17 18
25 5 5 -8 10 -19 10 -23 0 -4 12 -19 26 -32 21 -19 23 -25 10 -25 -19 0 -20
-26 -2 -59 12 -22 11 -27 -8 -42 -18 -15 -19 -21 -8 -38 16 -27 15 -31 -4 -31
-12 0 -15 -6 -10 -24 4 -15 0 -28 -9 -36 -9 -7 -12 -22 -9 -40 7 -35 -25 -60
-77 -60 -40 0 -55 -22 -37 -54 10 -18 2 -39 -13 -31 -5 4 -9 1 -9 -5 0 -6 -9
-30 -20 -52 -24 -50 -25 -58 -4 -58 9 0 34 19 55 43 27 29 42 38 47 30 11 -18
49 -4 56 20 3 11 0 29 -6 40 -9 17 -8 19 7 14 9 -4 23 -7 31 -7 8 0 14 -7 14
-15 0 -28 38 -9 58 30 10 19 11 19 22 -5 7 -15 25 -30 46 -36 l35 -11 -7 44
c-3 24 -15 60 -25 80 -20 39 -28 114 -9 81 6 -9 29 -19 53 -23 23 -4 54 -14
69 -21 34 -18 48 -18 48 0 0 8 7 16 15 20 8 3 15 12 15 20 0 28 21 28 45 1
l23 -28 18 34 c10 19 17 44 15 57 -2 20 0 21 23 11 35 -16 59 -5 50 23 -6 21
-5 22 12 8 10 -8 21 -16 23 -17 2 -1 -2 -9 -9 -18 -8 -10 -9 -15 -1 -15 6 0
11 5 11 10 0 6 8 10 18 11 9 0 12 3 7 5 -6 2 -10 23 -8 46 3 55 -11 78 -47 78
-26 0 -30 4 -30 28 0 16 -7 37 -15 48 -12 16 -16 17 -24 5 -7 -11 -13 -12 -23
-3 -8 6 -25 9 -38 7 -13 -2 -30 1 -37 7 -11 9 -13 8 -11 -3 2 -9 -4 -13 -19
-11 -26 4 -30 -14 -9 -43 11 -16 11 -25 -7 -63 -18 -43 -18 -46 -2 -58 10 -7
14 -18 9 -25 -5 -9 -10 -8 -18 3 -6 8 -33 18 -60 21 -42 6 -47 5 -36 -8 10
-13 9 -15 -9 -15 -11 0 -21 5 -21 10 0 6 -8 10 -17 10 -13 0 -14 -3 -5 -12 13
-13 16 -29 5 -26 -15 3 -62 -25 -57 -33 3 -5 1 -9 -5 -9 -6 0 -19 -10 -31 -22
l-20 -22 2 42 c1 34 5 42 21 42 10 0 21 9 24 20 3 11 9 20 14 20 5 0 9 9 9 20
0 16 7 20 35 20 24 0 35 5 35 15 0 8 4 15 9 15 5 0 29 18 53 40 33 32 43 48
43 73 0 26 4 32 22 31 21 0 21 1 7 34 -19 46 -18 54 8 50 15 -2 24 -13 30 -35
11 -44 60 -69 98 -49 16 7 34 10 41 5 7 -4 17 -5 21 -3 4 3 8 0 8 -6 0 -7 7
-10 15 -6 9 3 15 0 15 -8 0 -8 -6 -16 -12 -19 -7 -2 2 -12 21 -21 27 -15 38
-16 61 -6 16 7 42 9 59 5 22 -5 31 -3 31 6 0 10 3 10 12 1 7 -7 20 -12 30 -12
10 0 18 -3 18 -7 0 -16 76 -91 98 -97 12 -4 22 -12 22 -17 0 -6 9 -7 20 -4 26
8 36 -16 21 -53 -6 -15 -12 -43 -13 -62 -1 -19 -7 -38 -12 -42 -6 -4 -3 -10 8
-14 10 -4 21 -2 25 4 3 6 13 10 21 10 53 -3 68 3 73 30 3 15 2 32 -3 37 -5 6
6 11 31 13 29 2 48 11 69 32 l28 29 25 -19 c13 -11 27 -17 30 -14 2 3 21 -2
41 -10 20 -8 36 -12 36 -9 0 3 9 -2 19 -11 12 -11 27 -15 39 -11 11 3 23 1 27
-5 4 -6 15 -8 25 -5 10 3 22 0 26 -6 5 -9 2 -10 -9 -6 -21 8 -21 5 -3 -38 8
-19 12 -35 9 -35 -3 0 2 -9 11 -19 10 -11 24 -17 31 -15 16 7 29 -27 14 -37
-6 -4 -9 -12 -5 -18 5 -7 12 -7 26 1 15 10 23 8 43 -12 26 -25 21 -50 -9 -50
-20 0 -18 -6 17 -60 29 -45 33 -48 61 -39 17 4 35 6 39 3 13 -8 11 -44 -2 -44
-7 0 -9 -12 -5 -35 5 -24 3 -35 -5 -35 -6 0 -8 -7 -5 -16 3 -9 3 -21 -1 -27
-4 -6 -5 -33 -4 -60 2 -36 -2 -54 -16 -69 -13 -14 -19 -38 -20 -82 -3 -99 -13
-148 -30 -142 -20 8 -53 -11 -53 -30 0 -8 5 -12 10 -9 6 4 17 2 24 -4 13 -11
13 -28 0 -81 -4 -18 1 -33 16 -50 12 -13 19 -32 17 -40 -3 -10 3 -16 14 -17
11 -1 19 2 19 7 0 5 11 5 25 -2 18 -8 32 -8 55 2 25 11 33 11 40 1 4 -7 9 -11
11 -10 2 2 19 -6 37 -16 31 -18 45 -55 21 -55 -30 0 -52 -71 -27 -86 7 -5 9
-1 6 13 -5 17 0 22 26 28 17 4 34 7 39 6 4 0 7 4 7 9 0 6 9 10 19 10 24 0 37
30 13 31 -13 0 -12 2 5 9 12 5 26 17 32 27 10 17 12 16 32 -9 40 -54 125 -22
159 61 8 19 15 22 36 17 22 -6 25 -4 20 12 -4 11 0 24 9 32 8 7 15 21 15 31 0
11 9 36 20 56 11 21 20 43 20 49 0 6 10 15 23 21 27 13 33 50 11 74 -24 26 1
56 58 69 48 12 78 41 78 78 0 10 11 24 24 31 27 15 42 42 52 95 3 20 14 41 24
46 13 7 19 25 22 67 5 67 9 85 23 95 7 5 6 14 -2 28 -7 11 -13 22 -13 25 0 3
6 4 13 2 6 -1 10 5 8 13 -13 52 -13 60 3 60 9 0 16 5 16 11 0 7 -9 9 -22 6
-26 -7 -59 18 -51 39 3 8 -6 20 -24 30 -42 25 -67 62 -53 79 9 11 7 18 -10 35
-12 12 -19 28 -16 36 8 21 -2 17 -32 -14 -15 -15 -38 -28 -52 -29 -13 -1 -29
-8 -35 -15 -5 -8 -18 -12 -28 -10 -17 3 -17 5 -1 16 9 7 17 25 17 40 0 16 6
30 16 33 26 10 43 26 33 32 -5 3 -12 21 -15 40 -6 26 -4 32 7 28 8 -3 22 3 31
13 16 18 16 20 -9 43 -14 13 -26 34 -26 45 0 24 -54 55 -82 46 -15 -4 -18 0
-18 31 0 28 -5 38 -25 47 -13 6 -27 20 -31 32 -3 12 -15 30 -25 41 -10 11 -18
22 -18 25 0 22 -18 40 -47 46 -30 6 -63 38 -51 50 2 3 25 -4 49 -15 41 -17 45
-18 41 -3 -6 25 19 54 49 55 14 1 24 5 21 10 -8 13 27 20 42 7 21 -17 57 -3
50 20 -10 30 11 32 75 6 59 -24 60 -24 71 -5 10 19 11 19 30 -5 25 -31 33 -32
66 -6 14 11 29 17 34 14 5 -3 8 -1 7 3 -2 5 11 26 28 45 l32 36 21 -22 c15
-16 20 -34 19 -70 0 -36 4 -51 16 -58 9 -5 14 -14 10 -19 -8 -14 23 -59 41
-59 8 0 14 -3 14 -7 -4 -23 3 -24 21 -3 18 20 25 22 77 15 32 -4 65 -12 73
-19 8 -7 28 -17 43 -24 23 -10 29 -9 33 3 5 12 10 13 32 1 15 -7 38 -17 50
-21 22 -6 23 -5 12 15 -10 19 -8 26 11 46 12 13 28 24 36 24 19 0 16 23 -7 43
-24 20 -26 40 -5 57 8 7 15 23 15 36 0 14 6 24 14 24 9 0 16 12 18 33 2 21 8
31 17 29 11 -2 12 0 2 11 -9 12 -8 16 6 21 26 10 48 -22 29 -43 -12 -13 -12
-19 -2 -33 28 -38 73 -14 93 47 7 20 16 29 27 27 9 -2 17 4 18 15 0 10 2 23 3
28 2 6 3 18 4 27 1 22 46 34 65 19 9 -7 17 -8 20 -2 3 5 14 7 25 4 26 -7 65
55 48 76 -10 12 -9 14 6 8 11 -4 17 -2 17 8 0 8 7 18 15 22 8 5 25 29 38 53
14 27 32 46 44 48 15 2 23 15 31 53 7 28 12 59 12 70 0 10 5 19 10 19 6 0 10
9 10 20 0 12 10 34 22 50 17 24 24 27 40 19 27 -14 61 16 54 47 -4 13 0 27 10
34 8 7 13 19 10 26 -5 14 20 27 35 19 5 -4 6 7 3 25 -5 23 -3 30 8 30 9 0 26
11 40 24 16 17 28 22 38 16 9 -6 25 -3 44 8 48 26 57 39 51 65 -4 14 -1 30 7
38 7 8 18 24 23 37 l10 23 27 -20 c26 -21 85 -30 73 -11 -8 13 41 13 65 0 23
-12 50 -3 50 18 0 13 2 13 18 -1 10 -10 22 -17 27 -17 17 0 65 -54 65 -73 0
-36 23 -97 37 -97 19 0 16 17 -4 30 -17 9 -17 11 -1 20 9 6 19 23 23 38 5 25
9 27 48 26 59 -2 115 13 129 35 6 11 18 17 25 14 7 -3 13 2 13 10 0 8 11 18
25 21 19 5 25 13 25 34 0 34 14 57 29 48 6 -4 11 -2 11 5 0 6 8 9 20 6 11 -3
20 0 20 6 0 11 62 67 75 67 3 0 15 9 27 20 17 16 18 20 6 20 -26 0 -32 33 -9
49 12 7 21 22 21 32 0 11 11 25 25 31 21 9 27 8 38 -6 7 -9 26 -18 42 -20 36
-4 46 -31 15 -41 -26 -8 -14 -25 19 -28 22 -1 28 -21 10 -33 -8 -4 -4 -13 12
-25 13 -10 24 -28 24 -41 0 -18 5 -22 22 -20 32 4 36 -12 9 -37 -25 -24 -26
-23 -52 24 -6 11 -16 19 -23 17 -18 -4 -41 17 -52 46 -8 21 -11 22 -24 8 -22
-21 -19 -35 11 -48 21 -10 25 -17 20 -40 -3 -15 -1 -30 4 -33 5 -3 2 -21 -6
-42 -19 -44 -4 -59 37 -38 29 15 44 62 27 83 -16 18 11 16 33 -4 16 -14 19
-13 38 7 17 18 20 30 15 58 -4 20 -11 41 -16 48 -5 7 -7 17 -3 23 3 5 1 10 -5
10 -14 0 -4 34 19 70 19 29 22 82 4 76 -7 -3 -22 8 -33 24 -13 18 -26 27 -35
23 -9 -3 -22 0 -30 7 -9 8 -28 10 -51 6 -32 -6 -39 -4 -69 29 -29 32 -36 35
-54 26 -11 -7 -20 -15 -18 -20 1 -5 -12 -22 -29 -38 -16 -16 -29 -34 -27 -39
5 -15 -35 -54 -56 -54 -10 0 -30 -11 -44 -24 -14 -13 -29 -21 -32 -18 -10 10
-79 10 -86 0 -3 -5 -18 3 -33 17 -27 25 -42 33 -32 16 7 -11 -23 -101 -34
-101 -4 0 -13 7 -20 15 -7 8 -9 15 -5 15 4 0 2 7 -5 15 -10 12 -10 18 -1 29
10 11 8 16 -6 20 -10 3 -23 16 -28 28 -6 12 -23 25 -39 29 -16 5 -38 17 -50
27 -11 11 -33 22 -48 26 -23 5 -28 12 -28 36 0 17 5 30 11 30 6 0 9 6 6 13 -2
6 0 20 5 29 6 13 3 26 -11 45 -11 16 -24 54 -29 85 -8 50 -6 60 9 74 10 9 16
21 13 28 -8 22 -57 10 -92 -22 -18 -18 -39 -32 -44 -32 -18 0 -2 -93 19 -110
22 -17 37 -50 23 -50 -5 0 -13 7 -18 16 -8 15 -11 14 -23 -4 -11 -15 -24 -20
-54 -18 -22 1 -45 5 -52 9 -6 4 -14 1 -17 -5 -4 -9 -9 -7 -18 7 -7 11 -30 37
-51 58 -21 20 -35 42 -32 47 6 10 -19 15 -60 12 l-20 -2 20 11 c11 7 28 21 37
33 16 20 16 22 -4 43 -21 22 -21 24 -3 43 9 10 33 24 51 30 23 8 34 17 32 28
-2 13 6 18 35 20 20 2 37 7 37 13 0 5 16 9 36 9 l37 0 -27 21 c-15 12 -25 27
-23 33 6 14 -40 69 -71 85 -12 7 -20 16 -17 21 3 5 -2 21 -11 35 -14 21 -14
30 -4 54 9 22 9 38 0 68 -9 30 -9 45 -1 61 7 14 8 29 2 44 -5 13 -12 39 -16
59 -3 20 -15 45 -27 55 -12 11 -18 13 -13 5 6 -11 2 -13 -23 -8 -28 6 -31 4
-37 -24 -4 -16 -12 -28 -18 -27 -7 2 -22 -7 -35 -20 -12 -12 -34 -22 -48 -22
-19 0 -25 -4 -21 -14 3 -8 2 -16 -3 -18 -5 -2 -11 -20 -13 -40 -4 -46 -24 -73
-43 -57 -20 16 -84 20 -84 4 0 -25 -63 3 -100 43 -32 36 -38 39 -73 32 -34 -6
-42 -4 -68 22 -22 23 -35 29 -54 24 -19 -5 -28 -1 -40 18 -9 13 -36 31 -60 41
-25 9 -50 25 -55 35 -9 17 -51 31 -97 32 -13 0 -23 4 -23 9 0 5 -7 9 -15 9 -8
0 -14 -5 -13 -12 2 -6 -15 -15 -37 -20 -22 -4 -52 -15 -67 -23 -21 -12 -28
-13 -28 -3 0 7 -7 3 -15 -8 -13 -19 -19 -20 -65 -11 -27 5 -50 14 -50 19 0 5
9 6 20 3 11 -3 20 -2 20 4 0 5 6 16 14 24 12 12 11 19 -8 53 -25 45 -55 56
-63 25 -5 -20 -33 -30 -33 -12 0 13 -48 -11 -55 -26 -2 -7 2 -13 9 -13 20 0
28 -28 14 -53 -7 -12 -11 -32 -9 -44 2 -15 -3 -23 -13 -23 -9 0 -16 -5 -16
-11 0 -5 -16 -17 -35 -25 -37 -15 -39 -23 -35 -115 1 -27 -4 -41 -19 -51 -24
-17 -81 -12 -81 7 0 17 -27 23 -61 14 -33 -9 -54 4 -54 33 0 15 -7 24 -20 26
-11 2 -28 11 -37 20 -14 11 -18 12 -18 2 0 -17 -11 -7 -14 13 -1 8 -10 22 -19
32 -14 13 -21 14 -32 5 -8 -6 -18 -9 -24 -6 -5 3 -11 0 -14 -8 -3 -8 -14 -12
-24 -10 -10 3 -29 1 -43 -4 -15 -6 -35 -6 -52 0 -21 8 -31 6 -44 -7 -10 -9
-23 -13 -33 -9 -9 3 -25 9 -36 12 -10 3 -35 16 -53 29 -19 13 -44 23 -56 23
-12 0 -31 7 -43 15 -11 8 -39 17 -62 21 -22 4 -41 10 -41 13 0 4 -13 15 -30
24 -16 10 -27 23 -25 30 2 7 6 26 9 44 4 25 2 31 -8 27 -18 -7 -23 2 -31 61
-3 27 -11 55 -16 62 -6 7 -8 26 -4 43 4 19 2 36 -6 46 -9 11 -9 18 -1 26 15
15 -13 48 -40 48 -10 0 -18 4 -18 10 0 5 -15 16 -33 24 -18 7 -41 25 -50 40
-21 31 -32 32 -54 7z m-203 -2350 c-1 -22 -93 -81 -126 -81 -18 0 -41 43 -25
48 6 2 18 10 26 18 11 11 19 12 34 4 27 -14 34 -13 28 4 -3 8 -4 16 -1 18 6 7
64 -3 64 -11z m143 -70 c8 -1 10 -41 2 -41 -13 0 -65 31 -65 38 0 6 21 7 63 3z
m151 -37 c7 -19 -2 -82 -13 -89 -4 -2 -15 11 -24 30 -9 19 -21 35 -27 35 -5 0
-10 5 -10 10 0 6 11 10 25 10 14 0 25 5 25 10 0 16 17 12 24 -6z m36 -119 c7
-8 19 -15 27 -15 8 0 11 -5 8 -10 -4 -6 -1 -17 5 -25 18 -22 6 -18 -36 10 -20
14 -43 25 -51 25 -11 0 -11 3 -1 15 17 19 32 19 48 0z m70 -85 c12 -8 11 -10
-7 -10 -12 0 -25 5 -28 10 -8 13 15 13 35 0z m1580 -91 c0 -6 -4 -7 -10 -4 -5
3 -10 11 -10 16 0 6 5 7 10 4 6 -3 10 -11 10 -16z m-2750 -423 c0 -8 -6 -16
-14 -19 -10 -4 -12 0 -9 14 6 22 23 26 23 5z m-345 -147 c-8 -12 -35 -12 -35
0 0 11 22 20 33 14 4 -2 5 -9 2 -14z m62 -45 c-9 -9 -28 6 -21 18 4 6 10 6 17
-1 6 -6 8 -13 4 -17z m1288 -84 c3 -5 2 -10 -4 -10 -5 0 -13 5 -16 10 -3 6 -2
10 4 10 5 0 13 -4 16 -10z m-1275 -30 c0 -23 -10 -26 -28 -8 -18 18 -15 28 8
28 13 0 20 -7 20 -20z m1337 -87 c-3 -3 -14 0 -24 6 -17 10 -17 10 0 11 9 0
16 3 16 8 -3 20 4 24 8 4 3 -13 2 -26 0 -29z m-1084 -21 c15 -17 15 -18 -3
-19 -22 -2 -34 12 -25 27 8 13 9 13 28 -8z m1264 -1020 c8 -5 8 -11 -1 -24
-15 -20 -39 -8 -30 15 7 19 13 20 31 9z m248 -92 c-3 -5 -11 -10 -16 -10 -6 0
-7 5 -4 10 3 6 11 10 16 10 6 0 7 -4 4 -10z"/>
<path d="M12936 11905 c8 -35 31 -65 51 -65 18 0 17 5 -9 33 -13 13 -29 32
-35 43 -11 17 -12 16 -7 -11z"/>
<path d="M9620 11859 c0 -5 5 -7 10 -4 6 3 10 8 10 11 0 2 -4 4 -10 4 -5 0
-10 -5 -10 -11z"/>
<path d="M12213 11603 c-4 -9 -10 -10 -24 -2 -20 10 -59 -3 -59 -21 0 -5 -18
-13 -41 -16 -31 -5 -43 -13 -50 -32 -7 -18 -6 -28 3 -33 7 -4 9 -11 6 -15 -12
-12 30 -62 62 -72 27 -10 30 -9 30 8 0 11 5 40 12 64 15 56 46 66 98 32 19
-13 45 -26 58 -30 18 -6 22 -4 22 13 0 23 10 27 26 11 13 -13 46 -2 38 11 -3
5 11 0 30 -11 20 -11 36 -16 36 -13 0 4 7 -2 15 -14 10 -14 22 -19 35 -16 17
5 20 0 20 -28 0 -57 -9 -77 -32 -71 -19 4 -19 3 -8 -19 8 -13 20 -29 28 -35 8
-6 12 -16 8 -22 -6 -11 17 -27 120 -79 27 -14 44 -30 44 -40 0 -23 67 -78 102
-85 21 -4 28 0 32 16 3 11 -2 28 -11 38 -13 15 -14 20 -2 34 8 9 12 27 11 40
-2 17 2 24 12 24 20 0 21 28 2 49 -7 9 -17 26 -20 38 -6 17 -2 22 16 26 21 4
21 4 -3 6 -15 0 -32 8 -39 16 -7 8 -21 15 -32 15 -10 0 -21 6 -24 14 -3 8 -17
17 -32 21 -23 6 -56 29 -127 92 -11 10 -28 28 -36 41 -18 25 -54 34 -147 36
-34 0 -66 6 -70 11 -10 15 -104 13 -109 -2z m347 -163 c0 -5 -2 -10 -4 -10 -3
0 -8 5 -11 10 -3 6 -1 10 4 10 6 0 11 -4 11 -10z"/>
<path d="M12881 11534 c0 -11 3 -14 6 -6 3 7 2 16 -1 19 -3 4 -6 -2 -5 -13z"/>
<path d="M12847 11485 c2 -7 13 -11 24 -8 25 7 24 10 -5 15 -16 3 -23 1 -19
-7z"/>
<path d="M12411 11476 c-12 -14 -5 -26 16 -26 15 0 18 26 4 34 -5 3 -14 0 -20
-8z"/>
<path d="M12604 11041 c4 -5 0 -11 -6 -14 -9 -3 -7 -7 5 -12 10 -4 20 -5 23
-3 7 8 -7 38 -18 38 -5 0 -7 -4 -4 -9z"/>
<path d="M12630 10990 c0 -5 7 -7 15 -4 8 4 15 8 15 10 0 2 -7 4 -15 4 -8 0
-15 -4 -15 -10z"/>
<path d="M12540 10969 c0 -16 -26 -39 -44 -39 -18 0 -21 -16 -6 -25 35 -21
104 37 77 64 -14 14 -27 14 -27 0z"/>
<path d="M12580 10929 c0 -5 5 -7 10 -4 6 3 10 8 10 11 0 2 -4 4 -10 4 -5 0
-10 -5 -10 -11z"/>
<path d="M12832 10854 c3 -49 14 -51 16 -3 2 22 -2 39 -8 39 -6 0 -10 -15 -8
-36z"/>
<path d="M12790 10483 c0 -15 19 -37 26 -31 3 4 -1 14 -10 23 -9 9 -16 13 -16
8z"/>
<path d="M12845 10471 c3 -11 1 -22 -4 -26 -6 -3 -8 -18 -5 -34 5 -23 2 -29
-16 -34 -16 -4 -21 -12 -18 -29 5 -35 36 -34 69 3 l29 33 -26 17 -26 17 36 36
37 36 -41 0 c-36 0 -41 -2 -35 -19z"/>
<path d="M9161 10277 c2 -1 13 -9 24 -17 19 -14 19 -14 6 3 -7 9 -18 17 -24
17 -6 0 -8 -1 -6 -3z"/>
<path d="M7134 10031 c3 -5 4 -15 1 -23 -6 -16 -121 -23 -130 -8 -7 12 -45 13
-45 2 0 -4 7 -18 16 -30 8 -12 14 -30 12 -40 -4 -22 34 -60 78 -78 19 -8 34
-21 34 -29 0 -9 6 -12 16 -8 11 4 14 13 9 32 -10 40 -6 104 9 121 7 8 17 24
21 35 7 18 9 18 12 3 3 -10 8 -18 13 -18 14 0 23 21 14 30 -14 12 -67 22 -60
11z"/>
<path d="M6940 9979 c0 -5 5 -7 10 -4 6 3 10 8 10 11 0 2 -4 4 -10 4 -5 0 -10
-5 -10 -11z"/>
<path d="M6913 9896 c8 -12 17 -20 21 -18 3 1 19 -4 35 -13 25 -13 30 -13 35
0 6 18 -7 27 -62 41 -42 11 -42 11 -29 -10z"/>
<path d="M7129 9774 c33 -42 25 -110 -15 -120 -24 -6 -24 -6 -6 -36 9 -16 30
-37 45 -45 16 -8 26 -17 23 -20 -3 -4 -1 -12 4 -18 7 -9 6 -16 -5 -25 -8 -7
-15 -19 -15 -26 0 -20 59 -18 67 1 9 26 46 -13 39 -41 -4 -13 -1 -24 7 -27 17
-6 45 15 40 31 -6 16 5 15 22 -2 8 -8 12 -24 10 -36 -2 -12 1 -32 7 -44 7 -11
11 -24 10 -29 -1 -4 2 -25 7 -47 7 -30 5 -42 -5 -51 -12 -10 -11 -14 7 -27 26
-18 71 -2 67 25 -2 14 3 17 21 15 13 -1 29 4 35 13 6 8 32 16 57 18 25 2 51 7
57 11 6 4 18 -5 28 -19 17 -26 40 -33 46 -13 3 8 12 8 34 1 33 -11 74 8 74 34
0 9 6 13 13 10 8 -3 20 3 27 13 7 10 19 16 27 13 9 -4 11 0 6 13 -6 18 -6 18
14 2 24 -22 39 -23 47 -2 8 21 8 34 -1 33 -22 -4 -33 3 -33 20 0 30 -17 34
-40 11 -11 -11 -29 -20 -39 -20 -11 0 -26 -2 -34 -6 -8 -3 -30 11 -53 35 -21
23 -43 41 -50 41 -6 0 -28 14 -49 30 -21 17 -42 30 -46 30 -18 0 -129 92 -129
107 0 8 -9 17 -20 20 -11 3 -20 12 -20 19 0 8 -5 14 -11 14 -7 0 -10 12 -7 30
3 20 0 30 -9 30 -7 0 -13 -6 -13 -14 0 -24 -18 -28 -58 -15 -20 7 -43 12 -49
11 -7 -2 -13 5 -13 16 0 10 -6 27 -14 37 -14 19 -15 19 -35 1 -21 -19 -22 -19
-51 2 -39 29 -46 28 -21 -4z"/>
<path d="M7951 9675 c-1 -34 30 -68 54 -59 11 5 12 11 4 25 -5 10 -16 19 -23
19 -7 0 -18 10 -24 23 -10 21 -11 21 -11 -8z"/>
<path d="M7980 9575 c0 -17 2 -18 24 -9 23 9 20 24 -4 24 -11 0 -20 -7 -20
-15z"/>
<path d="M7985 9518 c-4 -10 -11 -18 -16 -18 -5 0 -25 -16 -46 -35 -32 -30
-35 -36 -22 -51 8 -10 36 -27 63 -40 43 -20 51 -21 64 -8 13 13 12 20 -3 61
-13 33 -14 47 -6 52 9 6 6 15 -8 32 -18 22 -20 22 -26 7z"/>
<path d="M8458 9023 c7 -3 16 -2 19 1 4 3 -2 6 -13 5 -11 0 -14 -3 -6 -6z"/>
<path d="M9052 8885 c-7 -14 -18 -25 -27 -25 -8 0 -24 -5 -34 -12 -18 -11 -18
-12 5 -24 21 -11 28 -11 43 3 11 9 17 22 14 29 -3 8 2 14 11 14 9 0 16 6 16
14 0 26 -17 26 -28 1z"/>
<path d="M8240 8700 c0 -5 -11 -10 -25 -10 -16 0 -25 -6 -25 -15 0 -16 -25
-29 -73 -40 -24 -5 -26 -8 -17 -26 6 -11 19 -23 28 -27 28 -10 44 -29 29 -35
-9 -4 -9 -6 1 -6 6 -1 12 -7 12 -15 0 -7 12 -16 27 -19 32 -6 93 21 93 41 0
12 4 12 20 -3 11 -10 20 -14 20 -10 0 5 5 4 11 -2 6 -6 8 -17 4 -23 -6 -9 -10
-9 -16 1 -13 21 -11 -5 2 -35 8 -17 19 -25 33 -24 12 1 32 -2 45 -6 14 -5 21
-4 18 1 -54 88 -128 184 -136 179 -4 -3 -13 15 -20 40 -12 39 -31 61 -31 34z
m40 -130 c0 -5 -5 -10 -11 -10 -5 0 -7 5 -4 10 3 6 8 10 11 10 2 0 4 -4 4 -10z"/>
<path d="M8432 8386 c-9 -20 -7 -27 12 -45 20 -18 56 -29 56 -16 0 4 -46 75
-54 82 -1 2 -8 -8 -14 -21z"/>
<path d="M8489 8254 c-5 -15 -7 -35 -4 -44 6 -18 -19 -35 -36 -24 -18 11 -8
-22 16 -48 31 -36 35 -35 33 5 -1 17 2 56 7 85 8 56 1 69 -16 26z"/>
<path d="M8490 8085 c0 -5 5 -17 10 -25 5 -8 10 -10 10 -5 0 6 -5 17 -10 25
-5 8 -10 11 -10 5z"/>
<path d="M8497 7990 c-15 -15 -17 -22 -7 -39 6 -12 8 -26 5 -31 -3 -6 -1 -10
5 -10 6 0 15 11 19 24 5 13 17 26 27 30 16 6 16 8 -1 26 -22 24 -25 24 -48 0z"/>
<path d="M8432 7868 c-7 -7 -12 -19 -12 -27 0 -11 -4 -11 -19 3 -11 10 -25 15
-31 11 -6 -4 -18 -1 -27 7 -14 11 -16 10 -11 -14 3 -16 0 -32 -7 -38 -16 -14
2 -80 22 -80 7 0 13 -7 13 -15 0 -8 -5 -15 -11 -15 -7 0 -8 -7 -4 -17 4 -10 8
-25 9 -33 1 -9 6 -21 10 -29 5 -8 4 -16 -3 -21 -9 -5 -9 -9 1 -17 21 -16 50
-24 43 -12 -4 6 9 27 29 47 24 24 34 41 30 51 -4 9 -9 32 -12 51 -2 19 -10 43
-18 54 -15 21 -8 45 18 64 21 15 24 42 5 42 -7 0 -18 -5 -25 -12z"/>
<path d="M9500 7721 c0 -11 5 -23 10 -26 6 -3 10 3 10 14 0 11 -4 23 -10 26
-5 3 -10 -3 -10 -14z"/>
<path d="M9453 7717 c-12 -19 -9 -30 15 -54 23 -24 29 -43 11 -43 -5 0 -7 -5
-4 -10 3 -6 -1 -13 -9 -16 -9 -3 -16 -14 -16 -25 0 -20 -33 -43 -45 -31 -5 4
-5 -1 -2 -11 8 -23 -9 -57 -28 -57 -8 0 -19 -9 -25 -19 -8 -16 -6 -23 12 -35
18 -13 23 -13 32 -2 12 14 50 31 42 18 -2 -4 -1 -14 4 -22 8 -13 13 -12 30 6
17 17 19 25 11 47 -10 25 -8 27 13 27 29 0 49 -22 40 -44 -4 -11 -1 -16 10
-16 10 0 16 9 16 25 0 14 5 25 11 25 5 0 8 4 4 9 -3 5 2 16 10 24 8 9 12 23 9
31 -7 19 20 21 60 6 23 -9 26 -7 26 15 0 13 5 27 10 30 24 15 7 25 -32 18 -37
-5 -41 -4 -31 8 10 12 3 19 -39 38 -41 19 -52 21 -59 10 -7 -11 -13 -9 -28 11
-11 13 -18 27 -15 31 2 4 -3 9 -11 13 -8 3 -18 0 -22 -7z"/>
<path d="M9322 7555 c-10 -12 -9 -20 5 -42 14 -22 19 -24 21 -10 2 9 7 17 12
17 4 0 3 11 -3 25 -14 29 -17 30 -35 10z"/>
<path d="M9613 7483 c-7 -3 -13 -9 -13 -14 0 -6 4 -8 9 -5 5 4 11 1 13 -5 2
-7 8 -6 16 4 10 12 10 16 0 19 -7 3 -19 3 -25 1z"/>
<path d="M9454 7361 c4 -5 2 -21 -4 -35 -5 -15 -6 -26 0 -26 5 0 11 9 15 19 3
11 12 22 20 25 24 9 17 26 -11 26 -14 0 -23 -4 -20 -9z"/>
</g>
</svg>
