<?xml version="1.0" standalone="no"?>
<!DOCTYPE svg PUBLIC "-//W3C//DTD SVG 20010904//EN"
 "http://www.w3.org/TR/2001/REC-SVG-20010904/DTD/svg10.dtd">
<svg version="1.0" xmlns="http://www.w3.org/2000/svg"
 width="849.555473pt" height="420.281026pt" viewBox="0 0 849.555473 420.281026"
 preserveAspectRatio="xMidYMid meet">
<metadata>
Created by potrace 1.15, written by Peter Selinger 2001-2017
</metadata>
<g transform="translate(-516.280984,1260.766427) scale(0.100000,-0.100000)"
fill="#222222" stroke="none">
<path d="M7470 12602 c0 -6 5 -14 10 -17 6 -3 10 -16 10 -28 0 -18 6 -22 31
-23 17 -1 35 -7 40 -15 10 -16 14 -12 22 21 7 32 -11 55 -43 57 -14 0 -35 4
-47 8 -14 4 -23 3 -23 -3z"/>
<path d="M7310 12509 c0 -7 -23 -10 -65 -7 -66 3 -71 1 -76 -37 -1 -5 -11 -16
-22 -24 -15 -11 -24 -12 -38 -2 -17 10 -19 8 -19 -14 0 -16 -6 -25 -15 -25 -8
0 -15 -4 -15 -10 0 -5 -7 -10 -15 -10 -19 0 -19 -39 0 -64 31 -41 5 -156 -35
-156 -25 0 -36 -40 -20 -70 10 -18 9 -24 -8 -38 -18 -15 -19 -18 -5 -39 9 -13
21 -23 29 -23 22 0 28 -22 10 -36 -27 -19 -45 -82 -35 -118 7 -24 6 -34 -6
-42 -12 -9 -13 -17 -5 -39 9 -23 7 -31 -10 -49 -10 -11 -33 -36 -49 -54 -16
-18 -43 -35 -59 -38 l-30 -6 19 -42 c10 -22 19 -49 19 -58 0 -21 39 -98 50
-98 13 0 33 -59 25 -77 -4 -10 -9 -29 -11 -43 -2 -13 -10 -30 -19 -36 -8 -6
-15 -16 -15 -21 0 -6 -20 -14 -45 -17 -29 -5 -45 -12 -45 -22 0 -19 -68 -18
-94 1 -11 8 -30 15 -42 15 -13 0 -26 4 -29 10 -3 5 -15 15 -27 21 -15 8 -19 8
-13 0 4 -8 -4 -11 -27 -10 -18 1 -47 -1 -65 -5 -34 -8 -53 7 -27 22 14 8 14
12 3 33 -7 13 -13 31 -14 39 0 8 -10 20 -23 25 -13 6 -25 20 -28 31 -6 25 -84
104 -84 86 0 -7 -9 -12 -21 -12 -12 0 -18 4 -13 11 3 6 0 15 -7 20 -9 5 -16 3
-20 -8 -4 -13 -12 -9 -42 20 -22 23 -46 37 -61 37 -16 0 -27 7 -31 19 -3 12
-17 21 -33 23 -16 2 -31 12 -37 26 -12 27 -29 29 -20 2 7 -23 2 -25 -26 -9
-20 10 -20 9 -5 -20 20 -37 20 -41 1 -41 -23 0 -18 -19 8 -31 18 -8 22 -19 25
-62 1 -29 7 -53 12 -55 13 -5 13 -69 0 -77 -7 -4 -7 -13 0 -26 8 -14 7 -19 -1
-19 -8 0 -8 -4 1 -15 6 -8 9 -18 6 -24 -3 -5 0 -11 8 -14 8 -3 17 1 20 9 3 9
10 12 16 9 17 -11 11 -23 -16 -29 -22 -6 -25 -11 -20 -31 4 -17 2 -25 -6 -25
-9 -1 -8 -5 3 -13 21 -16 34 -57 18 -57 -6 0 0 -12 14 -26 24 -23 25 -28 11
-41 -18 -18 -100 -27 -109 -13 -10 16 -28 12 -22 -5 4 -8 2 -17 -3 -20 -31
-19 23 -68 92 -84 59 -14 77 -28 133 -101 26 -33 35 -55 35 -83 0 -33 7 -46
53 -91 29 -29 62 -58 72 -64 16 -8 20 -21 20 -59 0 -26 4 -58 8 -70 7 -19 5
-23 -11 -23 -25 0 -44 -23 -36 -44 8 -21 24 -11 25 17 1 17 2 18 6 5 2 -10 9
-18 14 -18 5 0 9 -9 9 -19 0 -31 11 -51 29 -51 9 -1 30 -20 48 -45 23 -31 38
-42 51 -38 12 3 22 -3 29 -19 8 -18 24 -27 59 -35 29 -7 50 -8 52 -2 5 12 79
0 115 -18 20 -10 27 -21 27 -43 0 -21 6 -30 23 -36 24 -7 57 -33 57 -44 0 -4
-11 -5 -25 -2 -18 3 -25 0 -25 -12 0 -20 -24 -21 -40 -1 -17 20 -30 19 -30 -3
0 -25 -38 -94 -63 -114 -13 -10 -39 -18 -62 -18 -29 0 -36 -3 -28 -11 9 -9 9
-15 0 -24 -15 -16 -84 -3 -101 20 -38 53 -166 -20 -166 -94 0 -23 28 -35 45
-21 20 16 89 -15 81 -35 -3 -9 -2 -14 3 -11 11 7 74 -16 84 -32 5 -7 12 -10
17 -7 5 3 22 0 37 -8 15 -7 64 -14 108 -16 70 -2 87 -6 135 -34 35 -21 61 -46
74 -70 11 -20 27 -37 37 -37 9 0 22 -7 29 -15 7 -8 19 -15 26 -15 7 0 32 -10
54 -21 45 -24 166 -53 181 -43 5 3 7 10 4 15 -4 5 3 9 15 9 22 0 73 -47 65
-61 -3 -4 -1 -10 5 -14 6 -4 7 -11 4 -17 -4 -7 -2 -8 4 -4 7 4 27 -4 44 -17
18 -14 50 -32 72 -41 38 -16 39 -15 60 7 22 24 40 24 63 2 14 -14 -1 -35 -26
-35 -12 0 -12 -3 -3 -12 7 -7 12 -20 12 -29 0 -22 20 -35 29 -20 4 6 15 9 24
5 12 -4 17 -1 17 10 0 9 5 16 12 16 9 0 9 3 0 12 -17 17 -15 28 4 28 10 0 13
6 9 19 -6 19 18 47 33 37 5 -3 19 9 31 25 19 26 28 30 52 25 26 -5 33 0 64 42
19 26 35 59 35 73 0 30 24 57 35 39 9 -15 25 -12 32 5 3 9 -2 22 -13 31 -14
10 -15 13 -3 8 10 -3 19 2 23 13 3 10 9 24 12 31 4 7 0 10 -9 6 -10 -4 -16 4
-19 26 -3 22 -1 30 8 26 8 -3 16 -1 19 4 4 6 19 3 37 -6 23 -12 37 -13 53 -6
14 7 27 7 39 0 10 -5 27 -7 38 -4 12 3 30 0 42 -6 12 -6 21 -7 23 -1 3 8 52 7
99 -2 13 -3 24 -15 28 -29 4 -18 11 -23 26 -19 11 3 26 0 33 -6 8 -6 40 -25
73 -42 32 -17 84 -57 116 -90 64 -67 91 -74 134 -34 29 27 44 32 44 14 0 -6 9
-24 20 -39 l20 -28 -30 -34 c-17 -18 -33 -40 -36 -50 -3 -9 -15 -20 -26 -24
-18 -5 -19 -8 -5 -15 9 -6 26 -5 42 1 30 11 45 0 66 -49 7 -18 13 -21 21 -13
9 9 16 8 27 -2 9 -8 25 -16 35 -17 11 -2 21 -9 23 -16 3 -7 -3 -9 -17 -6 -19
5 -20 2 -17 -29 4 -39 15 -61 27 -53 11 7 33 -22 25 -35 -3 -6 3 -10 14 -10
14 0 21 6 21 19 0 30 16 34 73 20 29 -7 46 -14 40 -16 -20 -7 -15 -51 6 -62
10 -6 21 -7 25 -4 3 4 12 -2 20 -12 10 -14 15 -15 21 -5 11 17 11 62 1 78 -11
18 0 15 51 -14 27 -15 56 -24 69 -21 13 2 25 -1 28 -7 3 -7 9 -4 16 6 10 16
15 16 64 -10 53 -26 76 -58 60 -83 -4 -7 1 -7 14 0 12 6 25 10 29 9 5 -2 21 7
37 19 23 19 27 27 21 53 -4 20 -3 30 5 30 6 0 8 5 4 11 -8 14 9 26 56 39 73
22 87 45 89 157 1 17 5 21 18 16 12 -5 15 -2 10 9 -4 12 3 17 25 22 21 4 33
14 41 36 11 30 27 41 27 18 0 -6 10 -2 23 10 34 32 71 37 109 15 25 -14 38
-16 55 -8 26 11 53 60 50 90 -2 21 2 21 58 9 33 -7 67 -32 60 -44 -8 -13 18
-27 63 -35 24 -4 42 -12 42 -20 0 -7 18 -29 41 -49 l40 -37 69 7 c37 3 74 3
81 -2 16 -9 45 -15 74 -14 11 0 44 1 72 2 42 1 51 4 42 14 -6 7 -8 21 -5 31 3
10 7 41 10 70 4 49 -2 66 -29 75 -5 1 -8 8 -6 13 12 32 10 55 -9 97 -20 46
-21 46 -53 37 -17 -5 -35 -9 -40 -9 -16 0 -57 54 -57 76 0 12 -6 25 -12 28 -9
3 -8 8 5 16 13 9 15 15 7 30 -13 25 -13 30 5 30 19 0 19 17 0 54 -20 37 -19
56 3 56 20 0 30 -7 56 -37 15 -18 16 -26 7 -37 -9 -11 -7 -15 14 -20 14 -4 24
-10 21 -15 -10 -16 42 -31 71 -20 15 6 48 8 73 4 25 -3 52 -1 59 4 11 7 27 -1
62 -30 26 -21 52 -39 58 -39 7 0 30 9 53 20 22 11 44 17 49 14 5 -2 14 4 21
16 7 11 19 20 26 20 10 0 12 8 7 27 l-6 27 21 -19 c21 -19 22 -19 36 -1 12 17
14 17 20 3 4 -10 17 -17 34 -17 15 0 51 -8 80 -17 l53 -17 23 27 c13 15 28 27
34 27 5 0 10 7 10 15 0 8 6 15 13 15 18 0 34 35 41 88 4 26 2 42 -4 42 -7 0
-7 7 1 21 9 17 7 25 -12 45 -16 17 -20 27 -12 32 19 12 8 97 -16 121 -11 11
-21 32 -21 46 0 20 5 25 26 25 31 0 56 23 48 44 -4 11 -14 14 -29 10 -22 -5
-24 -3 -23 36 0 27 7 48 18 57 15 13 17 27 12 82 -2 36 -9 72 -15 79 -7 8 -5
12 5 12 21 0 40 44 25 59 -7 7 -8 11 0 11 5 0 9 10 8 23 -1 12 -3 22 -5 22 -1
0 -4 13 -6 29 -3 16 -10 38 -16 49 -9 17 -8 19 7 13 22 -8 45 10 45 35 0 15 7
19 35 19 19 0 35 5 35 10 0 19 45 10 58 -11 8 -12 19 -18 28 -15 9 3 25 -1 37
-9 12 -8 17 -15 12 -15 -5 0 -1 -6 10 -13 21 -14 67 -15 98 -2 9 4 26 5 37 2
11 -3 20 -1 20 4 0 5 -4 9 -10 9 -5 0 -10 5 -10 10 0 6 8 10 19 10 20 0 46 32
53 65 3 16 11 19 36 17 26 -2 32 2 32 18 0 13 7 20 20 20 18 0 19 7 18 80 0
64 -4 83 -19 96 -11 9 -19 22 -19 28 0 7 -8 12 -19 12 -19 0 -19 -17 0 -42 5
-5 6 -20 2 -32 -4 -17 -13 -22 -40 -22 -19 0 -32 -4 -29 -8 3 -5 -6 -15 -19
-22 -28 -15 -32 -28 -10 -36 8 -4 15 -13 15 -21 0 -9 -6 -13 -14 -10 -8 3 -20
-1 -26 -9 -7 -8 -21 -14 -32 -14 -11 0 -22 -9 -25 -20 -7 -25 -19 -26 -33 -1
-13 24 -68 53 -76 40 -4 -6 -11 -6 -20 2 -8 6 -23 9 -34 6 -15 -4 -20 0 -20
14 0 11 5 16 14 13 15 -6 26 23 26 69 0 20 7 30 25 37 14 5 28 17 31 25 4 8
12 15 20 15 8 0 11 6 7 17 -4 10 -2 14 4 10 12 -7 39 20 30 29 -3 3 -14 1 -25
-5 -31 -17 -38 -14 -40 20 -1 18 -5 36 -9 42 -11 18 -35 -45 -35 -94 1 -48 1
-48 -29 -42 -21 4 -29 2 -29 -8 -1 -10 -5 -8 -15 5 -12 15 -17 17 -29 7 -8 -7
-29 -11 -46 -9 -19 2 -34 -3 -40 -11 -5 -8 -27 -15 -54 -16 -41 -2 -46 1 -57
26 -6 16 -9 39 -5 52 3 13 0 32 -8 42 -18 25 -64 13 -72 -20 -5 -21 -9 -23
-31 -14 -13 5 -35 6 -49 3 -14 -4 -24 -2 -24 5 0 6 -15 18 -32 27 -18 9 -45
28 -60 42 -24 22 -28 23 -34 8 -5 -13 -9 -14 -21 -5 -7 7 -11 19 -8 27 7 18
-12 42 -29 36 -18 -7 -81 40 -80 59 1 11 -6 17 -17 17 -11 0 -38 17 -60 38
l-41 38 10 51 c8 43 7 53 -6 58 -9 3 -19 0 -23 -7 -6 -9 -14 -9 -36 2 -45 23
-46 23 -39 11 4 -6 1 -11 -9 -11 -17 0 -64 48 -65 67 0 7 -14 9 -41 6 -39 -6
-41 -5 -30 15 6 11 16 23 23 25 7 3 -2 6 -19 6 -18 1 -33 6 -33 11 0 6 -15 10
-34 10 -20 0 -36 6 -39 14 -3 8 -14 12 -24 10 -12 -3 -23 5 -35 26 -20 34 -59
40 -96 14 -13 -9 -31 -13 -43 -9 -18 6 -20 4 -14 -14 3 -12 2 -21 -3 -21 -17
0 -102 92 -102 110 0 24 -28 33 -35 12 -4 -15 -15 -17 -73 -14 -62 3 -66 3
-46 -12 12 -8 27 -29 34 -45 7 -17 16 -28 21 -25 5 3 9 -4 9 -14 0 -15 -5 -19
-19 -15 -26 7 -44 -29 -39 -78 2 -21 1 -39 -3 -39 -4 0 -1 -17 6 -37 9 -26 10
-40 3 -44 -6 -4 -7 -12 -3 -19 5 -8 3 -11 -6 -8 -13 4 -27 -12 -48 -59 -6 -13
-15 -23 -21 -23 -8 0 -7 -6 0 -20 9 -16 8 -22 -5 -26 -8 -3 -15 -13 -15 -20 0
-8 -7 -17 -15 -20 -8 -4 -15 -10 -15 -16 0 -37 -84 -43 -93 -7 -3 10 -1 19 4
19 21 0 7 38 -21 59 -26 19 -29 25 -19 43 11 20 2 77 -22 137 -7 17 -6 26 5
35 14 10 13 16 -4 53 -13 30 -23 41 -34 37 -18 -7 -34 42 -19 57 4 4 7 27 5
49 -4 34 -7 40 -22 35 -19 -6 -47 28 -42 51 2 11 -35 27 -65 29 -6 0 -15 4
-19 8 -11 11 -26 9 -19 -3 11 -17 -1 -11 -29 15 -15 14 -33 25 -40 25 -8 0
-16 14 -18 30 -3 19 0 30 7 30 20 0 41 48 27 62 -25 25 -13 37 33 32 35 -3 45
-1 45 11 0 8 7 15 16 15 8 0 12 5 9 10 -3 6 -17 10 -30 10 -13 0 -27 5 -30 10
-10 15 -35 12 -35 -5 0 -8 -8 -15 -17 -15 -11 0 -14 3 -8 8 17 12 12 30 -14
48 -18 13 -28 15 -42 6 -9 -6 -47 -17 -83 -23 -36 -7 -65 -15 -64 -18 2 -25
-7 -30 -64 -30 -95 -1 -118 -3 -118 -12 0 -4 -13 -10 -30 -14 -16 -4 -30 -11
-30 -15 0 -5 -13 -8 -30 -7 -16 1 -30 5 -30 10 0 15 42 48 55 43 7 -2 35 19
63 50 54 58 66 64 81 36 9 -17 15 -18 63 -8 29 6 57 16 61 23 4 7 21 13 37 13
19 0 33 7 40 20 6 12 7 19 1 18 -5 -2 -16 5 -23 15 -10 14 -19 15 -44 8 -36
-10 -54 1 -54 32 0 10 -4 16 -9 13 -13 -8 -34 21 -28 38 6 16 -12 26 -46 26
-12 0 -30 7 -41 15 -16 12 -21 12 -42 -3 -13 -9 -24 -21 -24 -25 0 -4 -13 -20
-29 -36 -16 -15 -32 -38 -36 -50 -3 -11 -14 -21 -24 -21 -10 0 -32 -3 -48 -6
-21 -4 -35 -1 -47 11 -12 13 -26 15 -51 11 -19 -4 -35 -11 -35 -16 0 -6 -13
-10 -29 -10 -17 0 -33 -5 -36 -10 -4 -6 -10 -8 -15 -5 -9 5 -60 -50 -60 -66 0
-5 -6 -9 -13 -9 -9 0 -13 -14 -12 -40 0 -22 4 -40 9 -40 4 0 6 -6 3 -13 -4
-10 2 -13 17 -10 15 3 25 -1 29 -11 9 -22 -30 -32 -52 -12 -23 21 -55 21 -48
1 4 -8 1 -25 -6 -38 -11 -20 -17 -23 -37 -15 -13 5 -30 18 -37 28 -18 26 -53
26 -60 1 -4 -16 -9 -18 -28 -9 -16 7 -29 7 -43 -1 -11 -6 -43 -11 -69 -11 -27
0 -54 -5 -61 -12 -9 -9 -17 -9 -35 1 -17 9 -30 9 -51 2 -15 -6 -38 -11 -52
-11 -13 0 -24 -4 -24 -10 0 -5 -11 -17 -25 -26 -24 -16 -27 -16 -39 2 -11 14
-17 16 -27 7 -19 -15 -54 10 -46 32 7 18 48 20 65 3 9 -9 12 -8 12 4 0 9 7 19
16 22 15 6 15 9 1 29 -10 16 -12 28 -5 40 7 13 3 23 -16 41 -15 13 -26 28 -26
35 0 6 -4 11 -8 11 -8 0 -32 43 -32 56 0 2 14 -3 30 -11 28 -14 32 -14 46 0 8
8 20 15 25 15 5 0 9 6 9 14 0 8 8 13 17 12 10 0 19 7 21 18 3 16 0 18 -27 13
-20 -4 -44 0 -68 11 -40 18 -103 76 -103 93 0 6 -6 9 -14 6 -8 -3 -20 1 -26 9
-7 8 -18 14 -24 14 -6 0 -28 11 -48 25 -22 15 -38 20 -40 14 -2 -7 -19 2 -38
19 -24 22 -37 28 -46 21 -7 -5 -23 -7 -37 -4 -17 5 -26 2 -30 -8 -4 -12 -16
-14 -46 -10 -33 5 -41 2 -41 -10 0 -25 -38 -8 -68 29 -26 33 -72 47 -72 23z
m536 -368 c-5 -8 -13 -8 -27 -1 -15 9 -17 13 -7 25 11 11 15 11 27 0 7 -7 10
-18 7 -24z m1054 -92 c0 -5 -4 -9 -10 -9 -5 0 -10 6 -10 14 0 8 -7 16 -15 20
-8 3 -15 13 -15 23 1 15 5 13 25 -10 14 -15 25 -32 25 -38z m-150 7 c0 -8 -9
-18 -20 -21 -11 -3 -20 -11 -20 -16 0 -5 -4 -9 -10 -9 -5 0 -10 9 -10 19 0 14
5 18 20 14 16 -4 19 -2 14 11 -4 11 -1 16 10 16 9 0 16 -6 16 -14z m-152 -172
c8 -2 16 -4 18 -6 7 -8 -17 -76 -32 -89 -13 -10 -19 -9 -37 10 -15 16 -18 25
-10 28 7 2 15 20 19 39 4 22 10 31 18 27 6 -4 17 -8 24 -9z m22 -199 c0 -12
-19 -12 -23 0 -4 9 -1 12 9 8 7 -3 14 -7 14 -8z m60 -45 c0 -14 -20 -22 -37
-16 -12 5 -13 9 -3 21 11 14 40 10 40 -5z m-342 -88 c4 -14 0 -15 -22 -6 -9 3
-16 10 -16 14 0 12 33 5 38 -8z m-18 -22 c0 -5 -4 -10 -9 -10 -6 0 -13 5 -16
10 -3 6 1 10 9 10 9 0 16 -4 16 -10z m-1120 -290 c0 -11 4 -20 9 -20 11 0 21
-38 14 -56 -9 -25 -20 -15 -33 31 -7 25 -17 45 -21 45 -5 0 -9 5 -9 10 0 6 9
10 20 10 13 0 20 -7 20 -20z m2690 -80 c0 -5 -7 -7 -15 -4 -8 4 -15 8 -15 10
0 2 7 4 15 4 8 0 15 -4 15 -10z m-1610 -30 c0 -6 -12 -16 -27 -23 -16 -6 -31
-16 -35 -22 -5 -6 -8 -4 -8 4 0 21 30 51 52 51 10 0 18 -5 18 -10z m-1309
-266 c19 -17 89 -10 89 8 0 14 30 -12 30 -26 1 -15 42 -61 69 -75 31 -17 26
-35 -14 -51 -30 -12 -35 -18 -35 -46 0 -35 -21 -63 -48 -66 -9 -1 -24 -2 -32
-4 -8 -1 -30 -2 -47 -3 -26 -1 -33 -5 -33 -21 0 -11 -4 -20 -10 -20 -5 0 -10
5 -10 11 0 6 -7 9 -15 5 -10 -4 -15 1 -15 16 0 12 -17 37 -37 57 -21 20 -46
49 -56 64 -18 28 -18 29 -1 42 15 11 16 17 7 38 -10 21 -9 28 7 42 13 12 29
16 47 12 18 -3 35 1 52 14 29 23 30 23 52 3z m-214 -309 c0 -8 -4 -12 -9 -9
-5 3 -6 10 -3 15 9 13 12 11 12 -6z m2997 -841 c9 -3 16 -13 16 -21 0 -20 -34
-12 -38 10 -4 19 -1 20 22 11z m-684 -104 c-9 -5 -9 -9 -1 -14 6 -4 11 -12 11
-17 0 -6 -4 -7 -10 -4 -5 3 -10 -2 -10 -12 0 -19 -74 -100 -88 -96 -4 1 -12
14 -18 30 -10 24 -9 30 10 49 37 36 57 65 51 74 -3 4 3 6 14 3 12 -3 21 2 25
14 7 17 8 17 18 -1 7 -13 7 -20 -2 -26z m560 -100 c0 -5 -4 -10 -9 -10 -6 0
-13 5 -16 10 -3 6 1 10 9 10 9 0 16 -4 16 -10z m-44 -36 c-3 -9 -6 -18 -6 -21
0 -3 -7 0 -15 7 -13 11 -13 15 -3 21 21 13 31 10 24 -7z m-96 -136 c0 -10 6
-21 14 -24 11 -4 12 -11 3 -35 -11 -27 -32 -35 -78 -31 -3 1 -18 -24 -34 -54
-22 -43 -33 -54 -53 -54 -15 0 -26 -7 -29 -20 -4 -13 -14 -20 -31 -20 -31 0
-62 -26 -62 -52 0 -11 -7 -18 -20 -18 -27 0 -25 19 5 60 16 22 25 47 25 70 0
39 30 78 49 65 7 -3 11 3 11 15 0 25 26 37 50 22 14 -9 19 -8 24 3 3 9 12 12
21 9 21 -8 16 12 -13 54 -22 31 -22 32 -3 32 11 0 27 -10 35 -22 9 -12 17 -19
17 -15 1 4 3 12 4 17 1 6 3 21 4 35 l1 26 30 -23 c17 -12 30 -30 30 -40z"/>
<path d="M9521 12504 c0 -11 3 -14 6 -6 3 7 2 16 -1 19 -3 4 -6 -2 -5 -13z"/>
<path d="M9371 12461 c-1 -13 4 -42 11 -64 10 -32 10 -41 0 -45 -21 -7 -13
-22 12 -22 14 0 32 7 41 16 12 13 19 14 28 5 14 -14 27 -14 27 -1 0 6 -7 10
-15 10 -8 0 -15 7 -15 15 0 8 4 15 10 15 5 0 7 7 4 15 -7 18 -64 21 -64 3 0
-23 -22 9 -30 44 -6 26 -8 28 -9 9z"/>
<path d="M8054 12365 c-15 -11 -16 -15 -5 -29 7 -9 11 -25 8 -36 -4 -16 0 -20
18 -20 16 0 26 -9 35 -30 7 -17 29 -40 51 -52 22 -12 39 -27 39 -34 0 -7 21
-22 46 -34 25 -12 51 -31 57 -41 7 -11 19 -19 27 -19 9 0 21 -5 28 -12 9 -9
16 -8 30 5 11 10 22 13 28 7 5 -5 9 2 10 21 1 16 12 41 25 55 23 24 24 24 39
5 10 -13 21 -17 34 -12 14 6 16 10 7 15 -8 5 -9 12 -2 20 8 9 5 24 -9 52 -20
38 -20 39 -1 46 10 3 22 12 27 19 4 7 3 10 -3 6 -12 -7 -99 28 -108 43 -9 14
-45 12 -45 -2 0 -10 -3 -9 -9 1 -5 7 -23 15 -41 17 -17 2 -36 6 -41 10 -5 3
-23 -6 -40 -20 -32 -27 -54 -33 -64 -16 -3 6 -18 10 -33 10 -15 0 -41 9 -59
19 -26 17 -34 18 -49 6z"/>
<path d="M5175 11830 c-18 -8 -17 -9 8 -9 15 -1 27 4 27 9 0 12 -8 12 -35 0z"/>
<path d="M5310 11811 c0 -22 43 -44 92 -46 l52 -3 -25 19 c-13 10 -30 17 -37
14 -7 -3 -29 2 -48 10 -19 8 -34 10 -34 6z"/>
<path d="M5460 11745 c0 -13 36 -31 52 -27 4 1 31 -12 60 -30 29 -17 67 -31
83 -31 96 1 105 3 105 19 0 15 8 16 60 11 49 -6 60 -4 61 8 2 23 4 29 11 41 4
6 5 14 1 18 -14 14 -45 4 -90 -27 -28 -19 -62 -34 -82 -35 -19 -1 -37 -6 -41
-12 -4 -6 -11 0 -18 14 -15 34 -46 50 -62 32 -9 -12 -18 -11 -56 5 -60 27 -84
31 -84 14z"/>
<path d="M5950 11717 c0 -2 14 -16 30 -32 33 -32 42 -17 10 15 -17 17 -40 27
-40 17z"/>
<path d="M13630 11622 c0 -6 -10 -12 -22 -14 -16 -2 -24 -11 -27 -28 -1 -14
-7 -27 -12 -30 -12 -8 0 -48 17 -54 16 -6 19 19 4 29 -5 3 -10 10 -10 16 0 14
28 11 33 -3 3 -8 6 -6 6 5 1 9 6 17 12 17 7 0 9 10 5 26 -6 22 -4 25 9 20 11
-4 15 -2 13 6 -5 15 -28 23 -28 10z"/>
<path d="M10820 11585 c0 -8 4 -15 9 -15 5 0 11 7 15 15 3 9 0 15 -9 15 -8 0
-15 -7 -15 -15z"/>
<path d="M10876 11574 c-8 -21 -9 -18 12 -40 9 -11 29 -20 43 -19 l26 0 -31
37 c-35 42 -41 45 -50 22z"/>
<path d="M13535 11468 c-3 -18 -5 -44 -3 -58 2 -19 -1 -25 -16 -23 -15 1 -17
-4 -12 -28 6 -32 -8 -47 -28 -29 -11 8 -16 8 -20 -2 -5 -10 -7 -10 -12 0 -3 6
-15 12 -27 12 -16 0 -18 3 -9 9 20 12 5 58 -21 65 -16 4 -31 -4 -54 -26 -18
-18 -33 -38 -33 -46 0 -11 -9 -12 -40 -7 -30 5 -47 2 -65 -9 -13 -9 -41 -15
-62 -15 -21 1 -29 4 -19 6 11 3 25 11 33 18 10 11 8 16 -12 29 -13 9 -30 16
-38 16 -8 0 -17 3 -21 7 -3 4 -12 8 -19 9 -7 1 -21 6 -31 10 -16 6 -18 4 -14
-14 4 -12 2 -20 -3 -16 -5 3 -9 -1 -9 -9 0 -13 -32 -31 -51 -28 -4 0 2 -22 12
-49 24 -63 24 -70 -2 -70 -15 0 -19 -5 -15 -15 8 -22 -14 -65 -35 -65 -9 0
-19 -6 -22 -12 -3 -10 -7 -10 -19 0 -13 10 -17 10 -21 -2 -3 -8 -13 -13 -23
-12 -23 3 -64 -40 -64 -68 0 -22 -27 -56 -45 -56 -19 0 -65 -55 -65 -77 0 -13
-4 -23 -10 -23 -5 0 -10 -16 -10 -36 0 -24 -6 -41 -17 -50 -10 -7 -14 -16 -9
-21 5 -4 11 -3 13 4 2 7 11 9 19 6 7 -3 12 -8 10 -12 -7 -11 37 -11 51 1 19
15 29 -18 12 -39 -12 -14 -12 -16 1 -11 8 3 20 -2 26 -10 9 -12 12 -12 25 0 8
8 26 15 39 14 19 -1 26 5 31 29 5 24 7 26 13 13 4 -9 5 -22 1 -28 -4 -6 2 -21
13 -33 28 -32 34 -84 9 -91 -10 -2 -16 -10 -12 -15 3 -6 -8 -26 -27 -44 -18
-17 -31 -38 -30 -45 2 -8 -2 -20 -9 -29 -10 -12 -10 -16 0 -22 7 -5 12 -11 12
-15 -3 -19 0 -26 13 -26 19 0 30 -32 14 -42 -7 -4 -9 -8 -5 -8 14 0 97 84 97
98 0 6 5 12 10 12 6 0 10 7 10 15 0 9 7 18 15 21 20 8 19 20 -5 44 -20 20 -27
50 -12 50 5 0 24 -7 41 -16 18 -9 46 -17 61 -18 16 -1 31 -4 35 -8 10 -10 46
4 42 16 -3 6 -10 10 -16 9 -6 -2 -11 1 -11 7 0 5 -10 20 -22 33 -58 62 -73 81
-74 91 -1 21 -16 61 -29 76 -8 8 -18 50 -24 94 -6 43 -14 82 -17 87 -8 14 6
49 20 49 14 0 29 79 20 103 -4 11 5 14 38 14 24 1 48 -4 55 -9 7 -5 23 -8 36
-6 30 3 64 -21 46 -33 -10 -6 -6 -13 12 -28 33 -28 60 -36 69 -21 4 7 13 9 20
5 9 -5 11 -4 6 4 -4 6 2 24 14 41 18 25 28 29 78 32 47 2 57 6 56 20 -1 14 4
16 22 12 36 -9 45 -9 87 0 34 8 37 11 37 42 0 19 5 34 11 34 5 0 7 5 4 10 -3
6 1 10 9 10 10 0 13 6 9 16 -4 10 1 22 11 30 25 18 33 89 13 112 -8 9 -17 28
-19 42 -5 39 -36 38 -43 -2z m-355 -222 c0 -5 -7 -3 -15 4 -8 7 -12 17 -9 22
7 10 24 -9 24 -26z"/>
<path d="M11032 11472 c-9 -6 -7 -13 8 -30 25 -27 25 -27 5 -58 -17 -26 -11
-54 7 -36 7 7 20 1 40 -16 17 -15 37 -27 46 -27 11 0 16 -8 15 -20 -1 -11 1
-27 4 -35 8 -17 13 -44 16 -80 1 -18 9 -26 25 -28 20 -3 22 0 16 22 -5 21 -3
25 9 20 8 -3 18 -1 22 5 3 6 15 11 26 11 10 0 19 5 19 10 0 20 27 10 40 -15 9
-17 22 -25 41 -25 16 0 32 -7 38 -17 15 -26 34 -3 23 27 -6 16 -18 24 -43 27
-39 4 -67 31 -46 45 9 6 8 12 -5 22 -10 7 -18 19 -18 25 0 7 -5 9 -10 6 -6 -3
-22 3 -36 14 -15 12 -32 21 -39 21 -7 0 -28 15 -46 33 -27 27 -39 32 -59 26
-14 -4 -20 -7 -14 -8 17 -1 26 -31 10 -31 -8 0 -21 15 -30 34 -9 19 -22 36
-30 39 -8 3 -16 15 -18 26 -2 14 -7 18 -16 13z"/>
<path d="M12926 11423 c5 -19 44 -50 44 -35 0 5 -11 19 -24 31 -22 21 -24 21
-20 4z"/>
<path d="M11391 11253 c7 -12 15 -20 18 -17 3 2 -3 12 -13 22 -17 16 -18 16
-5 -5z"/>
<path d="M11235 11151 c-3 -5 0 -13 6 -17 7 -4 9 -3 5 4 -3 5 0 13 6 15 9 4
10 6 1 6 -6 1 -14 -3 -18 -8z"/>
<path d="M11423 11123 c4 -3 2 -12 -3 -18 -8 -9 -4 -11 14 -8 27 6 25 33 -2
33 -8 0 -12 -3 -9 -7z"/>
<path d="M12490 10781 c-7 -15 -7 -21 0 -21 12 0 25 28 17 36 -3 3 -10 -4 -17
-15z"/>
<path d="M12361 10774 c0 -11 3 -14 6 -6 3 7 2 16 -1 19 -3 4 -6 -2 -5 -13z"/>
<path d="M12256 10736 c-5 -18 -8 -19 -16 -6 -9 13 -11 13 -20 0 -5 -8 -10
-10 -10 -5 -1 6 -6 -1 -11 -14 -8 -21 -14 -23 -49 -17 -34 5 -40 3 -40 -11 0
-9 -12 -28 -27 -41 -16 -13 -23 -25 -17 -28 6 -3 20 -12 30 -20 10 -9 13 -13
7 -9 -7 3 -13 1 -13 -4 0 -6 -7 -11 -15 -11 -32 0 -16 -39 23 -55 33 -15 39
-15 64 -1 14 9 33 16 42 16 9 0 13 6 10 14 -7 18 66 28 83 10 7 -7 18 -14 25
-17 10 -3 10 -9 1 -24 -9 -15 -9 -23 0 -32 14 -14 37 -14 37 -1 0 6 8 10 18 8
13 -2 16 3 14 24 -3 22 0 27 13 22 9 -4 14 -12 12 -18 -3 -8 9 -12 37 -11 59
2 63 3 81 21 15 15 15 18 -3 38 -23 25 -44 93 -32 101 13 8 0 35 -16 35 -8 0
-19 -9 -26 -20 -9 -13 -24 -20 -45 -20 -18 0 -33 -4 -33 -10 0 -5 -4 -10 -9
-10 -9 0 -24 50 -26 85 0 16 -9 21 -42 26 -36 4 -42 2 -47 -15z"/>
<path d="M12470 10731 c0 -6 4 -13 10 -16 6 -3 7 1 4 9 -7 18 -14 21 -14 7z"/>
<path d="M12656 10721 c-16 -18 -16 -18 9 -14 14 3 25 12 25 19 0 19 -14 17
-34 -5z"/>
<path d="M11691 10701 c-15 -10 -8 -61 10 -72 14 -8 28 -119 16 -119 -5 0 -6
-7 -3 -16 9 -25 -10 -42 -42 -36 l-27 5 22 -21 c23 -23 22 -54 -5 -84 -12 -15
-12 -20 -2 -33 7 -9 19 -14 25 -11 7 2 29 -25 50 -61 22 -37 48 -68 62 -74 13
-5 28 -20 35 -34 6 -13 22 -32 35 -40 13 -9 22 -24 21 -33 -2 -9 2 -16 9 -15
6 1 16 -4 23 -12 16 -19 39 -8 33 15 -5 17 -2 18 27 10 36 -10 54 -5 46 15 -2
7 0 17 6 23 10 10 -5 51 -25 64 -6 3 -10 27 -9 53 2 36 -3 54 -23 79 -22 29
-23 35 -10 46 8 7 15 21 15 31 0 10 5 21 10 24 7 4 6 13 -1 27 -8 14 -8 23 0
31 6 6 11 19 11 29 0 13 8 18 26 18 20 0 25 4 20 16 -3 9 -6 22 -6 29 0 8 -10
17 -21 20 -16 5 -28 0 -46 -19 -23 -25 -25 -25 -49 -9 -22 14 -23 18 -10 25
50 28 -27 94 -95 83 -33 -6 -41 -3 -65 24 -29 32 -40 36 -63 22z m212 -98 c-7
-2 -19 -2 -25 0 -7 3 -2 5 12 5 14 0 19 -2 13 -5z m-132 -309 c10 -13 10 -17
-2 -25 -19 -12 -26 -11 -35 2 -3 6 -1 15 6 19 9 6 6 10 -11 13 -24 4 -23 4 2
6 15 0 32 -6 40 -15z"/>
<path d="M11927 10669 c12 -12 24 -21 27 -18 2 2 -8 13 -22 23 l-27 19 22 -24z"/>
<path d="M11965 10590 c4 -6 11 -8 16 -5 14 9 11 15 -7 15 -8 0 -12 -5 -9 -10z"/>
<path d="M12575 10530 c-3 -6 -11 -8 -16 -4 -16 10 14 -38 36 -58 20 -18 20
-18 -5 -37 -50 -40 -59 -51 -54 -66 4 -8 1 -15 -6 -15 -10 0 -10 -3 0 -15 7
-9 10 -27 7 -44 -4 -19 -2 -31 6 -34 13 -4 20 -165 7 -182 -4 -5 -10 -25 -13
-42 -5 -27 -3 -33 12 -33 19 0 41 -38 41 -70 0 -18 7 -20 59 -20 33 0 63 -4
66 -10 15 -24 26 -7 24 38 -3 45 -2 47 27 57 47 15 63 32 58 63 -3 15 -6 35
-7 45 -1 9 -7 17 -13 17 -7 0 -27 17 -46 38 -18 21 -41 41 -50 45 -22 8 -23
33 -2 41 9 4 14 13 10 21 -3 10 1 15 12 15 11 0 26 17 39 44 19 38 20 45 7 50
-8 3 -12 11 -9 16 11 18 -4 60 -21 60 -8 0 -17 7 -20 15 -3 8 -22 19 -42 26
-21 7 -41 18 -47 25 -14 17 -52 27 -60 14z"/>
<path d="M11985 10040 c-4 -6 -2 -17 4 -23 17 -17 13 -27 -9 -27 -11 0 -20 -4
-20 -10 0 -5 -7 -7 -15 -4 -23 9 -18 -10 10 -34 14 -12 38 -22 54 -22 17 0 33
-5 36 -10 5 -8 11 -8 20 0 10 8 15 8 20 0 5 -8 11 -8 19 -1 7 6 16 8 19 4 4
-3 7 -2 7 3 0 6 13 9 29 8 24 -2 29 2 28 18 -2 26 -33 42 -79 43 -27 1 -46 9
-68 30 -16 16 -30 25 -30 19 0 -5 -4 -3 -9 5 -6 10 -10 10 -16 1z"/>
<path d="M12210 9940 c20 -13 33 -13 25 0 -3 6 -14 10 -23 10 -15 0 -15 -2 -2
-10z"/>
<path d="M12750 9894 c0 -14 -4 -23 -10 -19 -5 3 -10 -4 -10 -16 0 -18 -2 -20
-16 -8 -13 10 -17 10 -24 -1 -7 -11 -14 -12 -36 -2 -33 16 -37 12 -25 -20 12
-31 -3 -62 -19 -38 -5 8 -10 27 -10 42 0 37 -11 41 -38 13 -19 -20 -22 -30
-16 -62 7 -35 6 -37 -9 -24 -15 12 -17 11 -17 -4 0 -12 -5 -15 -16 -11 -9 4
-22 2 -29 -4 -7 -5 -24 -11 -39 -12 -28 -3 -31 -9 -16 -39 6 -11 21 -19 35
-19 15 0 29 -9 36 -22 7 -13 18 -27 25 -31 22 -13 17 -65 -7 -78 -18 -9 -20
-17 -15 -54 6 -39 5 -43 -21 -54 -24 -10 -28 -17 -28 -50 1 -39 20 -75 36 -65
13 8 11 -23 -3 -46 -10 -15 -9 -22 5 -38 18 -19 23 -42 10 -42 -8 0 -33 -47
-33 -62 0 -9 85 -2 102 9 25 15 39 11 56 -14 23 -36 23 -103 0 -103 -12 0 -18
-10 -20 -32 -2 -27 -7 -33 -26 -32 -16 0 -21 -4 -17 -14 3 -9 0 -19 -7 -23
-15 -10 -11 -14 22 -24 22 -7 23 -6 11 9 -27 32 10 17 61 -25 37 -32 52 -39
61 -30 9 9 9 16 0 30 -11 17 -8 19 28 25 22 4 37 11 34 16 -3 6 2 11 12 12 10
0 25 2 33 3 8 0 27 -2 42 -6 21 -6 25 -4 21 7 -3 9 2 14 15 14 32 0 92 42 86
61 -3 13 5 18 37 22 23 3 45 11 49 17 5 8 19 10 38 6 29 -7 30 -6 34 36 3 28
0 49 -9 60 -13 14 -12 17 6 23 24 7 26 29 7 64 -9 17 -15 20 -21 11 -5 -8 -17
-2 -40 20 -22 21 -38 29 -47 25 -7 -5 -10 -5 -6 0 4 4 3 14 -3 22 -9 10 -7 13
6 13 13 0 15 3 6 13 -8 11 -6 13 12 13 19 -1 22 4 20 34 -4 69 -7 73 -48 84
l-39 11 29 21 c17 12 36 19 43 17 19 -7 14 11 -8 25 -21 13 -28 42 -10 42 6 0
16 12 23 28 19 43 29 51 49 38 13 -8 21 -7 30 2 10 10 8 14 -10 19 -13 3 -28
19 -36 37 -11 25 -20 32 -46 34 -19 1 -40 8 -47 14 -10 8 -13 7 -13 -6 0 -12
-9 -16 -34 -16 -19 0 -38 5 -41 10 -4 6 -10 8 -15 5 -11 -7 -60 34 -60 50 0 7
-13 18 -30 24 -35 12 -43 47 -9 36 23 -8 20 3 -9 38 -21 24 -32 21 -32 -9z
m-123 -154 c2 -11 -1 -20 -6 -20 -10 0 -21 36 -13 44 8 8 15 -1 19 -24z"/>
<path d="M12200 9901 c0 -3 5 -13 10 -21 9 -13 10 -13 10 0 1 12 3 12 14 -2
10 -14 29 -24 76 -41 3 -1 5 13 6 30 0 22 -5 34 -15 37 -24 7 -101 4 -101 -3z"/>
<path d="M12565 9890 c3 -5 8 -10 11 -10 2 0 4 5 4 10 0 6 -5 10 -11 10 -5 0
-7 -4 -4 -10z"/>
<path d="M12205 9850 c-3 -5 -4 -14 -1 -19 4 -5 -7 -12 -24 -16 l-29 -6 32
-34 c17 -18 34 -30 37 -25 3 5 18 13 33 19 27 10 36 34 17 46 -5 3 -10 -1 -10
-9 0 -9 -4 -16 -9 -16 -5 0 -7 9 -4 20 8 32 -27 65 -42 40z"/>
<path d="M12413 9763 c-7 -19 -1 -23 24 -17 32 9 37 32 6 32 -13 0 -27 -7 -30
-15z"/>
<path d="M5925 9744 c-16 -8 -38 -13 -48 -10 -14 3 -17 0 -13 -11 4 -9 1 -22
-6 -30 -10 -12 -14 -11 -25 9 -12 21 -12 20 -8 -16 5 -47 20 -66 50 -66 24 0
41 -25 25 -35 -21 -13 -8 -22 48 -35 31 -7 68 -19 82 -25 37 -18 160 1 160 24
0 9 5 22 11 28 9 9 5 14 -17 19 -33 8 -136 93 -128 105 2 4 -5 13 -16 19 -11
6 -18 15 -15 19 2 5 -9 11 -26 15 -41 8 -40 8 -74 -10z"/>
<path d="M12291 9677 c-6 -6 -11 -17 -11 -25 0 -8 -6 -12 -15 -8 -8 3 -15 1
-15 -3 0 -5 -8 -7 -19 -4 -16 4 -18 0 -14 -24 8 -52 13 -60 24 -43 8 13 11 13
23 -2 21 -28 26 -22 26 27 0 37 5 50 26 68 24 21 24 23 6 24 -11 1 -25 -4 -31
-10z"/>
<path d="M6352 9652 c-7 -5 -10 -16 -6 -25 4 -12 1 -17 -10 -17 -9 0 -16 -4
-16 -9 0 -5 -18 -16 -40 -25 -22 -9 -40 -18 -40 -21 0 -13 40 -82 59 -102 12
-13 18 -29 15 -38 -4 -9 2 -26 13 -38 11 -12 27 -35 37 -50 17 -28 17 -29 -8
-52 -16 -14 -22 -26 -15 -30 7 -5 7 -11 -1 -20 -6 -7 -8 -25 -4 -39 5 -20 2
-26 -10 -26 -12 0 -16 -10 -16 -36 0 -27 -5 -37 -20 -41 -13 -4 -20 -14 -20
-29 0 -14 -7 -27 -15 -30 -22 -9 -19 -44 4 -44 24 0 71 -61 66 -86 -2 -10 -4
-24 -4 -31 -1 -6 -9 -13 -18 -15 -15 -3 -14 -6 7 -18 33 -18 132 -14 143 6 12
22 73 18 98 -7 24 -24 49 -19 49 11 0 11 7 20 16 20 9 0 12 -5 8 -12 -4 -7 -3
-10 1 -5 5 4 10 18 12 30 2 12 8 24 13 25 6 2 10 10 10 18 0 7 17 25 39 38 35
23 39 30 45 80 5 39 12 56 22 56 8 0 14 6 14 13 -1 26 -26 42 -67 43 -49 0
-61 8 -44 27 8 11 7 20 -9 40 -11 14 -20 31 -20 39 0 16 35 70 41 64 2 -2 5 5
5 17 1 12 7 40 12 61 9 34 8 43 -9 64 -10 14 -19 32 -19 41 -1 33 -84 103 -93
78 -4 -8 -8 -8 -14 -2 -4 6 -30 21 -58 35 -27 14 -53 29 -56 34 -4 4 -21 5
-38 1 -20 -4 -31 -3 -31 4 0 13 -10 14 -28 3z"/>
<path d="M11955 9599 c-4 -6 -5 -13 -1 -16 3 -3 -1 -12 -9 -20 -14 -14 -20
-41 -15 -72 2 -18 -20 -32 -42 -25 -18 5 -78 -21 -90 -40 -4 -6 -4 -37 -1 -68
6 -58 -1 -70 -26 -45 -11 10 -12 9 -7 -1 4 -7 2 -21 -6 -30 -11 -15 -11 -16 3
-4 9 7 23 10 32 6 10 -3 20 2 27 15 6 12 17 21 25 21 7 0 16 6 18 13 4 9 6 8
6 -2 1 -10 4 -11 15 -2 14 12 46 5 46 -10 0 -5 5 -9 10 -9 6 0 10 9 10 20 0
24 13 26 30 5 11 -13 10 -14 -4 -9 -11 4 -16 1 -16 -10 0 -19 -40 -22 -40 -3
-1 19 -30 -25 -30 -45 0 -10 -5 -18 -11 -18 -7 0 -8 -7 -4 -17 4 -10 8 -23 9
-29 1 -7 7 -18 12 -25 6 -8 13 -21 17 -30 4 -11 19 -16 52 -17 41 0 46 2 42
18 -4 16 -2 17 14 7 10 -6 19 -19 19 -28 0 -25 31 -109 40 -109 5 0 19 -18 31
-40 13 -22 25 -36 28 -32 3 5 32 14 64 21 47 10 67 21 107 61 29 29 50 58 50
71 0 20 1 21 24 5 14 -9 27 -12 30 -7 3 5 0 11 -7 14 -9 3 -13 22 -13 56 1 42
-3 54 -20 66 -13 8 -25 10 -31 4 -5 -5 -23 -1 -46 11 -20 11 -46 20 -57 20
-13 0 -26 12 -37 35 -13 27 -23 35 -44 35 -15 0 -40 7 -56 15 -15 8 -40 17
-55 20 -16 3 -28 11 -28 17 0 6 -6 19 -14 27 -18 21 -28 134 -10 127 21 -8 23
21 3 43 -22 23 -35 26 -44 10z"/>
<path d="M7285 9370 c-3 -5 1 -10 10 -10 9 0 13 5 10 10 -3 6 -8 10 -10 10 -2
0 -7 -4 -10 -10z"/>
<path d="M10775 9190 c3 -5 8 -10 11 -10 2 0 4 5 4 10 0 6 -5 10 -11 10 -5 0
-7 -4 -4 -10z"/>
<path d="M10820 9170 c9 -16 17 -20 36 -16 26 7 33 -11 12 -32 -9 -9 -7 -13 8
-18 10 -4 29 -16 42 -27 12 -11 22 -16 22 -11 1 11 30 -55 30 -67 0 -6 -9 -5
-21 1 -18 10 -20 9 -17 -6 1 -10 6 -17 11 -16 12 4 102 -45 117 -64 8 -9 15
-24 15 -33 0 -21 -24 -51 -42 -51 -7 0 -13 -4 -13 -10 0 -5 -10 -10 -22 -11
-13 0 -17 -3 -10 -6 6 -2 9 -10 5 -16 -4 -7 0 -8 11 -4 10 4 26 2 38 -4 15 -8
24 -7 36 4 23 20 59 30 66 19 8 -13 55 -8 85 7 19 11 22 19 19 49 -3 20 1 48
9 62 7 14 13 20 13 14 0 -6 11 -27 24 -47 16 -23 21 -38 14 -45 -5 -5 -7 -19
-4 -30 6 -18 13 -19 66 -15 40 4 65 2 74 -6 8 -7 20 -10 26 -6 5 3 10 1 10 -4
0 -6 9 -11 19 -11 11 0 22 -4 25 -9 9 -13 66 -19 67 -7 0 6 2 27 5 46 3 19 5
45 5 58 -1 32 37 30 49 -3 20 -54 49 -20 52 63 2 42 7 62 16 62 10 0 10 5 2
20 -9 17 -14 18 -30 8 -14 -9 -25 -9 -44 0 -17 8 -26 8 -28 0 -3 -7 -11 -6
-26 3 -18 11 -26 11 -42 1 -16 -10 -25 -10 -43 0 -33 18 -124 19 -131 1 -3 -8
-10 -12 -15 -9 -5 3 -21 0 -36 -8 -30 -16 -77 -14 -129 5 -28 10 -35 18 -40
50 -7 41 -12 44 -82 54 -28 5 -73 22 -107 43 -39 24 -74 37 -108 40 -50 5 -51
4 -39 -18z"/>
<path d="M12427 9068 c-2 -7 -1 -21 2 -31 6 -17 8 -17 20 -3 14 16 9 46 -8 46
-5 0 -11 -6 -14 -12z"/>
<path d="M6180 9024 c0 -8 5 -12 10 -9 6 4 8 11 5 16 -9 14 -15 11 -15 -7z"/>
<path d="M6176 8992 c-3 -6 -14 -8 -24 -5 -16 6 -16 5 1 -14 19 -21 23 -38 7
-28 -6 3 -17 -1 -26 -9 -8 -9 -22 -16 -29 -16 -7 0 -15 -8 -17 -17 -3 -16 -4
-16 -20 0 -21 21 -54 22 -62 2 -3 -10 -19 -15 -44 -15 -21 0 -43 -5 -50 -12
-9 -9 -17 -7 -34 12 -14 15 -23 19 -26 11 -3 -9 -9 -7 -23 5 -24 21 -38 11
-18 -13 20 -24 41 -72 46 -103 2 -14 11 -35 19 -47 8 -13 11 -23 6 -23 -10 0
-3 -82 9 -94 5 -6 9 -21 9 -34 0 -13 11 -37 25 -54 29 -34 32 -53 9 -62 -20
-8 -9 -26 16 -26 14 0 20 10 25 40 4 21 4 44 0 50 -6 10 18 47 63 96 12 14 22
29 22 33 0 5 9 11 20 14 11 3 24 17 30 33 8 20 14 24 22 16 18 -18 66 24 60
54 -4 24 11 33 23 14 3 -5 14 -10 25 -10 14 0 17 5 12 22 -3 13 -1 19 5 15 26
-16 32 92 7 117 -15 16 -27 20 -50 17 -6 -1 -15 9 -21 21 -6 14 -12 18 -17 10z"/>
<path d="M12340 8971 c0 -17 4 -32 9 -35 11 -7 36 22 28 31 -4 3 1 12 11 19
15 12 14 13 -15 14 -30 0 -33 -3 -33 -29z"/>
<path d="M9146 8885 c4 -8 1 -15 -6 -15 -7 0 -10 -12 -8 -32 2 -25 9 -34 28
-38 24 -6 24 -6 -9 -18 -30 -11 -32 -14 -20 -29 12 -15 12 -16 -6 -9 -27 10
-6 -11 27 -28 15 -8 23 -21 23 -36 0 -14 4 -31 8 -37 5 -7 5 -18 1 -24 -3 -6
0 -15 7 -20 11 -6 11 -11 1 -21 -21 -21 -14 -35 28 -56 39 -19 41 -19 50 -2 5
10 7 32 4 49 -5 24 -1 39 19 65 17 22 24 41 20 55 -6 24 23 75 38 65 15 -9 67
16 71 34 7 36 -4 83 -18 78 -7 -3 -18 3 -23 12 -7 12 -10 2 -8 -40 1 -31 0
-56 -3 -55 -3 1 -14 -4 -25 -10 -18 -10 -24 -7 -40 17 -15 22 -25 28 -41 24
-12 -3 -25 0 -30 7 -5 8 -2 11 8 6 10 -3 15 0 14 11 -1 22 -15 32 -47 32 -15
0 -32 7 -39 15 -7 8 -16 15 -21 15 -5 0 -6 -7 -3 -15z"/>
<path d="M12077 8873 c-12 -13 -33 -25 -46 -28 -13 -2 -34 -13 -45 -23 -12
-11 -26 -18 -33 -15 -7 3 -10 -3 -7 -15 3 -10 -2 -24 -10 -31 -9 -8 -16 -21
-16 -31 0 -10 -6 -23 -14 -29 -8 -7 -12 -20 -9 -31 4 -17 -1 -19 -52 -22 -54
-3 -58 -5 -71 -36 -7 -18 -9 -30 -4 -27 5 3 17 -6 26 -20 9 -14 22 -25 30 -25
21 0 39 -41 23 -51 -18 -11 -3 -24 27 -24 15 -1 24 5 24 15 0 9 5 21 12 28 9
9 9 12 0 12 -21 0 -14 64 10 84 19 16 26 17 52 7 17 -7 48 -13 70 -15 37 -3
60 -21 52 -41 -2 -6 2 -15 9 -22 10 -9 17 -9 31 2 11 8 29 15 42 15 19 0 21 3
13 19 -8 15 -5 21 15 32 25 13 28 11 60 -24 20 -22 34 -47 34 -63 0 -38 30
-73 55 -63 31 12 117 -2 139 -23 20 -18 21 -18 29 4 8 23 -9 78 -25 78 -5 0
-25 16 -44 36 -22 22 -42 33 -51 30 -10 -4 -13 -2 -10 8 3 8 -3 25 -14 37 -15
18 -17 25 -7 28 29 9 37 50 15 73 -7 7 -17 22 -21 33 -7 19 -8 19 -21 1 -13
-17 -47 -17 -43 1 1 4 -2 25 -6 45 -7 31 -16 40 -60 63 -69 35 -129 38 -159 8z"/>
<path d="M12390 8829 c-8 -5 -32 -6 -53 -3 l-39 6 17 -26 c10 -14 22 -26 27
-26 6 0 5 6 -2 15 -8 9 -8 15 -2 15 6 0 17 -7 26 -15 21 -21 31 -19 44 10 13
27 4 39 -18 24z"/>
<path d="M11610 8725 c0 -9 6 -12 15 -9 8 4 15 7 15 9 0 2 -7 5 -15 9 -9 3
-15 0 -15 -9z"/>
<path d="M11705 8726 c-11 -6 -24 -17 -28 -23 -4 -7 -15 -13 -23 -13 -11 0
-13 -6 -9 -22 6 -16 1 -26 -16 -39 -20 -15 -21 -19 -6 -19 9 0 17 5 17 11 0 8
4 8 13 1 7 -6 31 -13 54 -15 37 -5 42 -3 45 16 3 22 -13 102 -22 110 -3 3 -14
0 -25 -7z"/>
<path d="M11860 8726 c0 -15 18 -31 26 -23 7 7 -7 37 -17 37 -5 0 -9 -6 -9
-14z"/>
<path d="M11586 8703 c-12 -12 -5 -23 14 -23 11 0 20 4 20 9 0 11 -26 22 -34
14z"/>
<path d="M11510 8680 c0 -5 -12 -10 -26 -10 -22 0 -25 -2 -14 -15 7 -8 8 -15
3 -15 -6 0 -8 -11 -5 -25 5 -30 32 -33 39 -5 3 12 18 27 34 36 32 16 37 29 13
38 -24 9 -44 7 -44 -4z"/>
<path d="M11570 8557 c0 -10 -4 -17 -9 -17 -5 0 -7 -8 -5 -17 4 -16 -22 -63
-28 -52 -2 2 -10 18 -20 34 -23 42 -58 58 -113 49 -28 -4 -45 -11 -45 -20 0
-8 -5 -14 -12 -14 -9 0 -9 -3 -1 -11 9 -9 18 -8 36 4 23 15 25 14 51 -11 l27
-27 20 24 c10 13 19 19 20 15 0 -5 2 -17 4 -26 2 -10 -1 -21 -6 -24 -17 -10
12 -35 33 -28 10 3 38 -4 63 -16 37 -18 47 -19 64 -8 15 9 17 16 9 25 -8 9 -4
15 15 22 20 8 36 35 37 62 0 13 -59 31 -80 24 -14 -4 -28 -1 -41 11 -17 16
-19 16 -19 1z"/>
<path d="M11940 8527 c0 -8 6 -14 14 -14 8 0 12 6 9 14 -3 7 -9 13 -14 13 -5
0 -9 -6 -9 -13z"/>
</g>
</svg>
