<?xml version="1.0" standalone="no"?>
<!DOCTYPE svg PUBLIC "-//W3C//DTD SVG 20010904//EN"
 "http://www.w3.org/TR/2001/REC-SVG-20010904/DTD/svg10.dtd">
<svg version="1.0" xmlns="http://www.w3.org/2000/svg"
 width="734.473125pt" height="1047.204063pt" viewBox="0 0 734.473125 1047.204063"
 preserveAspectRatio="xMidYMid meet">
<metadata>
Created by potrace 1.15, written by Peter Selinger 2001-2017
</metadata>
<g transform="translate(-652.526855,1516.675529) scale(0.100000,-0.100000)"
fill="#222222" stroke="none">
<path d="M6721 15154 c-1 -11 11 -31 26 -45 l27 -24 -21 30 c-11 17 -23 37
-26 45 -4 11 -6 9 -6 -6z"/>
<path d="M6745 15063 c-4 -10 -9 -25 -9 -33 -1 -8 -9 -14 -18 -14 -10 1 -14
-4 -11 -11 9 -25 -27 -65 -58 -65 -33 0 -35 -5 -14 -26 22 -23 19 -65 -5 -71
-32 -8 -23 -22 18 -28 20 -4 44 -9 52 -12 8 -4 19 -5 24 -4 5 1 6 -12 3 -28
-5 -24 -3 -29 8 -24 8 3 15 16 15 28 0 19 6 24 33 27 28 3 32 6 29 28 -1 14 4
30 14 37 12 9 15 25 12 67 -2 40 1 56 10 56 6 0 12 -4 12 -10 0 -5 11 -10 25
-10 33 0 25 18 -30 63 -54 45 -98 57 -110 30z"/>
<path d="M6538 14820 c22 -9 31 -30 13 -30 -13 0 -10 -41 3 -59 5 -7 11 -20
12 -28 3 -16 33 -42 50 -43 6 0 17 -7 24 -15 7 -8 21 -15 31 -15 10 0 24 -8
31 -17 21 -29 52 -23 58 11 l5 28 19 -21 c11 -12 24 -31 30 -43 15 -31 51 -38
44 -10 -4 14 0 22 11 25 14 4 14 5 -1 6 -10 0 -18 5 -18 10 0 4 -13 23 -29 41
-23 27 -35 33 -73 34 -27 1 -54 8 -64 17 -29 25 -60 39 -87 39 -28 0 -54 24
-38 35 6 3 15 14 20 24 9 16 5 18 -27 19 -31 0 -34 -1 -14 -8z"/>
<path d="M6735 14710 c4 -6 11 -8 16 -5 14 9 11 15 -7 15 -8 0 -12 -5 -9 -10z"/>
<path d="M6963 14622 c-12 -2 -27 -9 -33 -17 -6 -8 -17 -12 -25 -9 -19 8 -27
-12 -10 -26 7 -6 12 -17 9 -25 -6 -16 22 -75 36 -75 6 0 10 -9 10 -19 0 -33
11 -50 27 -44 13 5 15 1 10 -17 -3 -13 -1 -30 5 -37 9 -11 14 -10 31 4 20 18
20 17 13 -32 -11 -76 -17 -128 -17 -148 0 -10 -16 -32 -35 -50 -30 -27 -34
-37 -29 -60 4 -15 11 -27 16 -27 5 0 9 -6 9 -13 0 -8 10 -22 21 -33 33 -29 61
-101 49 -124 -14 -27 -14 -27 28 -33 96 -14 136 -26 149 -43 7 -10 13 -21 13
-26 0 -4 17 -8 39 -8 21 0 49 -8 62 -18 18 -13 40 -18 89 -16 36 0 79 -3 95
-8 20 -7 39 -6 58 1 22 9 27 17 27 45 0 30 3 34 30 38 16 3 34 0 39 -5 5 -5
16 -5 26 1 12 6 32 5 63 -4 37 -11 47 -12 54 -2 6 10 13 7 27 -9 11 -13 24
-23 30 -23 5 0 16 -8 23 -19 17 -23 63 -46 111 -55 22 -4 37 -13 37 -21 0 -9
6 -12 15 -9 8 4 15 1 15 -5 0 -6 7 -8 15 -5 8 4 15 16 15 28 1 20 1 20 15 3 7
-11 11 -25 9 -32 -3 -7 3 -19 14 -26 25 -18 54 -64 46 -72 -4 -4 -1 -14 7 -23
8 -10 13 -19 11 -21 -1 -2 14 -17 33 -34 19 -17 35 -37 35 -43 0 -7 19 -18 42
-25 35 -11 42 -11 50 3 9 16 19 14 75 -10 24 -11 42 -12 74 -5 26 6 51 6 67 0
14 -6 50 -7 79 -3 67 8 68 28 3 60 -53 27 -92 65 -72 71 15 6 16 37 1 66 -11
21 -11 21 7 5 15 -13 23 -14 39 -5 43 23 46 34 18 53 l-27 17 22 10 c23 10 27
23 14 44 -6 9 -17 10 -42 3 -22 -6 -36 -6 -40 0 -4 6 -21 2 -45 -10 -21 -11
-42 -17 -46 -14 -5 3 -9 0 -9 -5 0 -6 -7 -11 -16 -11 -10 0 -14 6 -11 14 3 8
-2 16 -15 19 -27 8 -48 -2 -41 -19 8 -22 -60 -18 -80 4 -25 27 -21 31 18 22
38 -9 40 -5 36 60 -1 15 7 34 18 45 40 35 28 75 -41 144 -45 44 -69 61 -89 61
-14 0 -33 7 -40 16 -11 14 -11 18 3 28 11 8 14 17 8 26 -7 11 -12 11 -22 2
-10 -8 -18 -8 -25 -1 -8 8 -13 8 -17 0 -4 -6 -16 -11 -26 -11 -10 0 -21 -8
-24 -17 -9 -27 -103 -25 -118 2 -6 11 -16 23 -21 27 -6 3 -10 20 -9 38 1 46
-13 76 -58 123 -27 29 -35 44 -27 49 9 5 6 13 -9 28 l-21 21 -44 -40 c-23 -23
-51 -41 -61 -41 -10 0 -18 -4 -18 -8 0 -5 -13 -7 -28 -4 -18 2 -33 -2 -41 -12
-17 -20 -31 -21 -31 -1 0 8 -4 15 -10 15 -5 0 -10 -4 -10 -9 0 -5 -16 -5 -37
-1 -20 5 -41 6 -46 3 -5 -3 -7 3 -5 14 4 28 -39 96 -58 89 -16 -6 -46 8 -81
38 -12 10 -26 15 -32 12 -12 -8 -91 46 -142 98 -25 26 -44 36 -54 32 -11 -4
-24 2 -36 16 -16 20 -18 20 -19 6 0 -19 -11 -23 -24 -10 -4 4 -13 7 -19 7 -7
0 -12 7 -12 15 -1 25 -15 40 -40 40 -13 0 -25 3 -27 8 -1 4 -13 6 -25 4z"/>
<path d="M8744 13372 c23 -26 23 -26 23 -7 0 8 -3 13 -5 10 -3 -3 -12 1 -21 7
-10 8 -9 4 3 -10z"/>
<path d="M8790 13311 c0 -7 7 -26 16 -42 10 -21 12 -34 5 -43 -7 -8 -4 -15 10
-25 12 -7 18 -18 15 -27 -3 -9 1 -29 10 -46 8 -16 13 -36 11 -42 -5 -13 77
-126 91 -126 4 0 14 6 21 13 10 10 17 7 36 -15 13 -16 28 -34 32 -42 5 -9 27
-16 57 -17 39 -2 52 1 65 18 10 11 31 24 48 27 23 5 32 14 36 34 6 30 -11 47
-55 57 -15 4 -37 19 -48 35 -11 16 -29 32 -40 35 -11 4 -20 14 -20 23 0 8 -10
31 -22 49 -18 25 -30 33 -53 33 -22 0 -33 6 -40 22 -7 17 -27 27 -74 40 -35 9
-72 25 -82 34 -12 11 -19 13 -19 5z"/>
<path d="M9456 13207 c3 -10 9 -15 12 -12 3 3 0 11 -7 18 -10 9 -11 8 -5 -6z"/>
<path d="M9402 13098 c-2 -19 -34 -40 -67 -43 -11 -1 -26 -3 -32 -4 -16 -1
-11 -55 7 -76 7 -9 19 -14 26 -11 7 3 15 0 18 -7 3 -9 5 -9 5 0 1 7 7 10 15 7
16 -6 31 29 20 47 -3 6 -1 15 5 19 8 4 11 22 8 46 -2 21 -4 31 -5 22z"/>
<path d="M9391 12914 c14 -17 32 -19 27 -2 -2 6 -12 12 -22 14 -14 2 -15 0 -5
-12z"/>
<path d="M9279 12890 c-13 -11 -30 -25 -37 -31 -10 -8 -25 -7 -58 4 -39 13
-44 13 -44 -1 0 -12 -4 -12 -22 4 -21 19 -21 19 -15 -4 4 -16 0 -25 -14 -32
-10 -6 -19 -20 -19 -31 0 -16 -5 -18 -25 -13 -20 5 -24 3 -19 -10 4 -11 1 -16
-11 -16 -12 0 -15 -5 -10 -20 5 -17 2 -20 -22 -20 l-28 -1 39 -34 c22 -19 48
-35 58 -35 24 0 23 -12 -2 -28 -14 -8 -20 -23 -20 -46 0 -19 -5 -36 -11 -38
-6 -2 -12 -17 -14 -33 -5 -45 -16 -75 -27 -75 -6 0 -26 10 -46 22 -31 19 -35
20 -44 5 -5 -10 -15 -17 -21 -17 -9 0 -12 -11 -9 -35 3 -29 1 -35 -15 -35 -16
0 -18 -7 -15 -62 2 -34 8 -68 14 -75 8 -10 7 -13 -3 -13 -11 -1 -11 -3 1 -13
8 -7 21 -24 27 -39 12 -26 11 -28 -10 -29 -28 -2 -28 -2 -57 6 -22 5 -25 3
-27 -26 -1 -18 2 -38 8 -45 6 -7 12 -29 14 -48 2 -23 17 -52 43 -83 21 -26 42
-56 45 -65 4 -11 17 -18 31 -18 15 0 30 -8 36 -21 13 -24 7 -49 -13 -49 -8 0
-22 -9 -31 -19 -16 -17 -16 -24 -4 -57 10 -30 10 -38 1 -41 -7 -3 -13 -11 -13
-19 0 -8 -6 -14 -12 -14 -21 1 -48 26 -48 44 0 13 -10 16 -49 16 -49 0 -50 -1
-49 -30 1 -17 7 -35 15 -41 7 -6 13 -27 13 -46 0 -44 26 -83 56 -83 12 0 26
-5 29 -11 5 -6 11 -4 19 7 12 16 14 15 29 -7 23 -32 21 -62 -6 -87 -19 -18
-28 -20 -60 -13 -34 8 -38 7 -43 -15 -3 -13 -10 -24 -15 -24 -5 0 -8 -11 -7
-25 2 -15 9 -25 18 -25 25 0 41 16 34 33 -5 15 1 17 45 17 40 0 51 3 51 16 0
12 7 15 24 12 17 -3 27 0 31 11 4 9 9 11 13 6 4 -6 19 -16 33 -23 22 -12 31
-11 63 2 33 14 36 18 26 36 -6 11 -15 20 -21 20 -6 0 -18 7 -27 16 -15 15 -14
18 3 30 10 8 30 14 43 14 15 0 26 7 29 19 5 21 25 19 56 -7 15 -14 19 -13 36
2 17 15 25 16 55 6 20 -6 38 -16 41 -21 4 -5 16 -9 29 -9 23 0 61 -32 50 -42
-3 -4 11 -22 32 -41 44 -40 39 -57 -16 -52 l-40 4 5 -41 c4 -35 37 -98 55
-106 9 -4 -1 -61 -11 -68 -5 -3 -9 -19 -9 -35 0 -22 -6 -32 -25 -39 -14 -5
-25 -14 -25 -20 0 -19 -3 -25 -21 -49 -27 -34 -24 -65 6 -79 35 -16 31 -36
-12 -79 -21 -20 -37 -40 -35 -45 1 -5 -5 -11 -13 -14 -8 -4 -15 -15 -15 -26 0
-10 -10 -37 -22 -58 -18 -31 -28 -38 -43 -34 -14 3 -7 -6 19 -31 22 -19 42
-33 44 -30 10 9 31 -17 25 -31 -3 -8 12 -33 36 -59 42 -46 48 -59 31 -70 -5
-3 -10 -17 -10 -30 0 -12 -6 -25 -13 -28 -13 -5 -14 -50 -2 -80 6 -13 10 -15
21 -6 22 18 37 -33 23 -83 -8 -32 -8 -43 3 -50 11 -7 10 -11 -3 -21 -19 -15
-32 -47 -18 -47 5 0 9 -6 7 -12 -4 -24 21 -58 39 -51 12 5 15 2 10 -9 -3 -9 3
-32 14 -52 19 -36 17 -59 -8 -84 -7 -7 -13 -20 -13 -29 0 -11 -7 -14 -25 -11
-17 4 -25 1 -25 -8 0 -8 -4 -14 -10 -14 -5 0 -10 5 -10 10 0 6 -5 10 -11 10
-5 0 -7 -4 -4 -10 15 -25 -9 -27 -50 -5 -51 29 -56 30 -49 10 4 -10 0 -15 -10
-15 -13 0 -15 -6 -10 -26 5 -20 0 -32 -27 -60 -18 -19 -41 -34 -51 -34 -10 0
-18 -4 -18 -9 0 -4 -21 -16 -46 -26 -25 -9 -48 -23 -51 -31 -3 -8 -13 -14 -23
-14 -9 0 -25 -9 -35 -20 -10 -11 -26 -20 -36 -20 -22 0 -33 -16 -22 -32 30
-47 31 -120 1 -102 -6 4 -14 0 -19 -7 -4 -8 -14 -14 -21 -14 -8 0 -13 -13 -12
-38 1 -24 -3 -37 -11 -37 -7 0 -18 -13 -24 -30 -9 -26 -15 -30 -48 -30 -38 -1
-73 -18 -73 -38 0 -5 -9 -8 -20 -5 -11 3 -20 2 -20 -2 0 -14 113 -124 122
-119 5 3 17 -1 26 -9 20 -17 71 -29 125 -29 30 0 37 -4 37 -19 0 -12 7 -19 18
-19 10 0 24 -6 30 -12 10 -10 14 -10 21 0 6 10 13 8 32 -8 19 -17 20 -20 5
-16 -17 6 -18 5 -4 -16 9 -13 27 -24 41 -26 14 -2 33 -12 43 -23 10 -11 30
-19 50 -19 18 0 36 -5 39 -11 4 -6 13 -8 20 -5 7 2 35 -15 61 -40 27 -24 51
-44 55 -44 13 0 25 -47 18 -72 -6 -24 -3 -31 23 -50 63 -48 116 -104 122 -129
8 -36 83 -109 111 -109 22 0 65 -45 65 -68 0 -5 13 -15 30 -22 16 -7 46 -31
65 -54 19 -22 42 -49 50 -59 10 -11 23 -16 34 -12 19 6 72 -17 91 -40 7 -8 20
-15 30 -15 21 0 44 -25 36 -38 -3 -6 8 -15 24 -22 17 -7 30 -17 30 -22 0 -5 5
-6 10 -3 6 3 13 -2 17 -12 3 -10 18 -28 32 -40 24 -21 25 -24 8 -34 -27 -16
-11 -28 27 -19 19 4 52 3 73 -2 33 -9 44 -7 85 15 l47 25 26 -28 c23 -24 34
-28 75 -26 27 1 55 7 62 13 9 8 21 8 43 -1 25 -11 36 -10 72 6 34 15 47 17 64
7 16 -8 23 -8 29 0 5 9 10 8 20 -4 8 -9 29 -15 55 -15 38 0 44 -3 55 -30 13
-31 34 -41 80 -38 14 1 37 -2 52 -6 22 -6 27 -4 34 16 4 12 7 32 6 43 -2 18
-2 19 8 2 6 -9 9 -21 6 -26 -3 -5 5 -11 19 -13 14 -3 25 -1 25 3 0 18 30 -4
48 -35 18 -31 18 -33 1 -74 -10 -23 -16 -49 -13 -57 12 -29 -3 -46 -31 -35
-20 8 -25 6 -25 -6 0 -8 7 -22 15 -30 8 -9 15 -28 15 -43 0 -16 7 -45 15 -65
9 -20 13 -41 10 -46 -3 -5 1 -22 9 -38 15 -29 12 -65 -6 -89 -12 -15 -2 -33
17 -33 8 0 13 -8 13 -17 -1 -10 2 -33 6 -52 7 -28 6 -33 -7 -28 -9 3 -18 -1
-21 -9 -3 -8 -19 -14 -39 -14 -20 0 -34 -5 -34 -12 0 -7 -3 -27 -7 -44 -7 -34
12 -64 40 -64 8 0 14 -7 14 -15 0 -18 -12 -19 -28 -3 -9 9 -17 7 -34 -9 -13
-11 -38 -26 -56 -34 -22 -10 -30 -19 -26 -29 3 -8 10 -30 14 -47 7 -30 6 -33
-15 -33 -15 0 -26 -8 -30 -20 -3 -11 -15 -25 -26 -31 -16 -8 -18 -13 -8 -25
13 -16 12 -16 -60 -14 -29 1 -66 -4 -82 -10 -16 -7 -37 -9 -46 -5 -18 8 -28
11 -50 13 -7 1 -13 9 -13 17 0 8 -9 19 -20 25 -11 6 -20 17 -20 24 0 12 -43
39 -65 41 -5 0 -17 5 -25 10 -8 5 -21 10 -28 11 -8 2 -21 9 -30 17 -10 8 -26
16 -38 19 -16 4 -20 0 -20 -16 1 -18 -4 -21 -31 -18 -23 2 -33 -1 -33 -11 0
-24 -41 -35 -75 -21 -20 8 -34 9 -42 2 -9 -7 -14 -3 -19 16 -8 34 -24 33 -25
-1 0 -25 -1 -26 -9 -8 -8 18 -9 18 -9 2 -1 -19 -75 -97 -92 -97 -5 0 -9 -7 -9
-16 0 -8 4 -13 9 -9 5 3 12 1 16 -5 3 -5 2 -10 -4 -10 -6 0 -14 -12 -17 -27
-10 -42 -23 -53 -60 -53 -35 0 -36 -1 -37 -55 -1 -16 -7 -36 -14 -44 -11 -11
-10 -17 9 -35 13 -11 30 -36 37 -53 7 -18 17 -33 22 -33 20 0 27 -37 12 -67
-13 -29 -13 -34 1 -55 9 -12 16 -31 16 -41 0 -10 10 -28 23 -40 13 -12 32 -38
43 -57 10 -19 27 -45 38 -57 18 -21 18 -24 4 -40 -9 -10 -19 -28 -22 -40 -4
-13 -12 -23 -17 -23 -6 0 -6 -8 1 -20 9 -16 8 -20 -5 -20 -8 0 -15 -7 -15 -16
0 -8 -7 -22 -15 -30 -18 -18 -20 -54 -4 -54 8 0 8 -4 0 -14 -8 -10 -9 -16 -1
-21 6 -4 8 -22 4 -44 -4 -25 -2 -41 5 -46 9 -5 9 -10 1 -20 -24 -29 5 -73 43
-66 5 1 11 -8 14 -19 3 -11 9 -18 13 -15 4 2 6 -16 4 -40 -3 -29 0 -45 7 -45
8 0 9 -4 0 -13 -15 -19 33 -47 50 -30 16 16 77 -24 85 -55 4 -12 15 -27 25
-33 11 -5 17 -14 14 -18 -5 -9 27 -21 58 -21 9 0 35 -11 56 -25 21 -14 45 -23
53 -20 18 7 41 -45 32 -70 -4 -8 6 -29 20 -46 14 -17 26 -35 26 -41 0 -6 11
-26 26 -45 14 -18 23 -37 20 -42 -3 -4 6 -14 20 -21 13 -8 27 -24 30 -36 3
-12 17 -33 31 -46 14 -12 29 -33 34 -45 5 -13 15 -23 24 -23 8 0 15 -4 15 -8
0 -5 9 -20 21 -33 11 -13 16 -25 10 -27 -22 -7 -10 -31 16 -34 18 -2 29 -10
31 -22 3 -11 0 -16 -7 -12 -6 4 -11 3 -11 -2 0 -14 54 -22 62 -9 5 8 11 7 21
-2 12 -9 16 -9 20 1 3 9 7 6 13 -7 4 -11 14 -26 22 -34 12 -12 11 -16 -10 -27
-12 -7 -20 -13 -15 -14 4 0 -2 -17 -13 -37 -30 -57 -34 -55 63 -31 36 9 38 11
32 39 -4 16 -2 29 3 29 5 0 13 16 16 35 4 19 11 35 16 35 17 0 43 49 33 63 -6
6 -13 19 -16 28 -4 13 -1 16 14 12 12 -4 19 0 19 10 0 8 9 17 19 20 30 8 55
54 52 99 -2 38 -1 40 22 34 16 -4 29 0 37 9 7 8 16 12 21 9 15 -9 10 28 -6 46
-13 14 -13 21 5 55 14 28 17 42 9 51 -12 15 -4 34 15 34 8 0 19 7 26 15 10 12
9 15 -4 15 -10 0 -14 5 -11 10 4 6 11 8 16 5 10 -7 12 4 9 55 -2 39 -17 63
-33 53 -6 -4 -8 0 -4 10 3 9 1 18 -6 21 -7 2 -3 5 7 5 38 2 95 35 96 56 0 26
-9 38 -40 52 -23 10 -23 11 12 8 40 -4 55 15 42 49 -5 14 -3 15 21 6 22 -8 33
-7 51 5 13 8 24 22 24 30 0 7 11 22 25 33 14 11 25 25 25 31 0 6 4 11 9 11 6
0 13 21 17 46 5 38 3 51 -15 75 l-22 29 80 0 c68 0 82 -3 90 -18 6 -12 7 -22
1 -28 -6 -6 6 -9 33 -8 23 2 52 3 65 3 13 1 22 7 22 16 0 18 17 20 23 3 3 -10
7 -10 20 0 24 20 11 40 -21 34 -24 -5 -26 -4 -13 12 8 9 20 15 27 12 24 -9 26
14 5 47 l-20 33 30 18 c29 17 31 17 44 -1 11 -14 17 -16 32 -6 10 6 17 16 16
22 -2 6 7 10 20 8 18 -2 22 3 21 22 -1 24 0 24 28 -7 15 -18 28 -28 28 -22 0
5 7 7 15 3 9 -3 13 -8 10 -11 -12 -12 37 -33 64 -27 30 6 44 -5 54 -42 3 -13
-1 -27 -9 -34 -14 -12 -10 -29 7 -29 5 0 9 9 9 20 0 11 5 20 10 20 15 0 12 45
-5 85 -14 35 -14 35 9 29 14 -3 37 3 59 16 34 20 37 26 37 67 0 25 -4 42 -10
38 -11 -7 -43 52 -35 65 3 5 1 11 -5 15 -5 3 -10 18 -10 32 0 13 -8 37 -19 51
-10 15 -26 44 -34 64 -17 40 -49 63 -78 55 -10 -3 -22 -1 -25 4 -3 5 -13 9
-22 9 -10 0 -23 9 -30 21 -11 17 -10 24 12 49 13 17 27 39 31 50 3 11 13 20
21 20 22 0 17 16 -16 43 -16 14 -32 37 -36 52 -4 15 -16 30 -26 33 -16 4 -19
11 -13 38 5 27 2 36 -15 46 -15 10 -20 23 -20 60 0 45 -3 50 -42 78 -22 16
-49 30 -59 30 -25 0 -41 31 -23 45 8 5 17 23 20 39 4 23 2 27 -11 23 -9 -4
-21 3 -31 19 -15 22 -23 25 -68 22 -53 -3 -52 -2 -38 -51 8 -31 -30 -1 -55 43
-24 40 -67 59 -78 32 -4 -11 -8 -12 -20 -2 -8 7 -13 16 -10 20 2 4 -3 16 -11
26 -9 10 -13 13 -9 7 3 -7 2 -13 -4 -13 -5 0 -17 -3 -26 -7 -15 -5 -16 -3 -7
14 6 11 7 25 2 33 -5 7 -2 30 6 53 13 36 12 42 -2 58 -14 16 -14 18 6 29 20
11 20 13 6 35 -9 13 -12 26 -7 30 6 3 7 21 4 41 -4 25 -1 38 11 47 23 18 32
100 13 127 -8 12 -12 31 -9 43 9 35 59 111 82 125 19 12 21 19 15 64 -7 46 -6
50 12 44 28 -9 56 24 47 58 -5 20 -2 26 10 26 20 0 20 7 -4 50 -10 19 -24 46
-30 60 l-12 25 -12 -23 -12 -23 -25 35 c-13 19 -33 37 -44 38 -12 2 -21 12
-22 26 -2 12 -4 32 -5 43 -2 12 -13 28 -25 36 -21 14 -22 13 -31 -29 -5 -24
-5 -48 -1 -54 14 -18 -23 -40 -57 -34 -43 9 -95 42 -90 57 3 7 1 15 -5 19 -5
3 -7 14 -4 24 4 14 1 16 -20 12 -14 -2 -31 1 -39 7 -14 12 -62 0 -103 -27 -19
-12 -29 -12 -77 2 -30 9 -70 16 -88 16 -33 0 -35 2 -36 37 -1 20 4 44 11 52
11 14 10 14 -5 2 -18 -13 -23 -7 -20 21 2 12 -75 37 -97 31 -11 -3 -19 -8 -17
-12 2 -3 -10 -7 -27 -8 -16 -1 -40 -11 -51 -21 -29 -27 -71 -35 -85 -18 -8 10
-24 12 -52 9 -35 -5 -41 -3 -46 16 -3 12 -13 21 -24 21 -11 0 -19 5 -19 11 0
6 -9 9 -20 6 -13 -3 -20 0 -20 9 0 8 -4 14 -10 14 -16 0 -80 61 -80 76 0 19
44 18 60 -1 17 -20 30 -19 30 3 0 9 11 22 25 29 21 9 27 8 38 -7 13 -18 14
-18 41 4 28 22 28 24 16 62 -16 49 -28 64 -51 64 -19 0 -24 17 -21 65 2 18 0
18 -19 -4 -13 -16 -23 -21 -30 -14 -6 6 -3 16 11 28 20 18 26 51 12 70 -4 6
-19 16 -34 22 -15 7 -32 21 -38 33 -12 22 -2 27 20 8 8 -7 6 -3 -4 10 -13 14
-15 22 -6 22 8 0 10 8 6 26 -5 18 -2 32 10 45 10 11 14 27 11 41 -8 30 2 43
36 52 18 4 25 11 20 19 -4 6 6 1 22 -11 26 -21 31 -22 41 -8 6 9 16 16 23 16
6 0 14 7 17 15 4 8 10 15 16 15 5 0 6 -5 3 -10 -4 -6 0 -22 9 -35 9 -13 16
-30 16 -37 0 -7 20 -20 45 -29 42 -16 45 -15 83 6 22 12 60 25 85 29 43 7 45
8 38 34 -6 20 -14 28 -37 30 -16 2 -33 9 -39 16 -16 21 -77 38 -86 25 -4 -6
-11 -9 -17 -5 -6 3 -12 0 -15 -6 -4 -10 -7 -11 -18 0 -11 10 -11 12 2 13 8 0
6 4 -6 9 -13 5 -26 3 -37 -7 -9 -8 -23 -13 -30 -11 -15 5 -31 -9 -41 -36 -6
-14 -10 -16 -21 -7 -7 6 -15 8 -18 6 -3 -3 -13 9 -22 27 -10 18 -28 48 -41 67
-14 18 -22 37 -20 41 3 5 -17 23 -44 40 -56 37 -84 80 -50 80 18 0 19 6 17 65
-1 36 -5 65 -9 65 -4 0 -7 20 -6 45 1 30 6 44 14 41 6 -3 14 7 18 22 6 25 7
25 17 8 6 -11 11 -29 12 -40 1 -18 7 -21 48 -21 26 0 48 -4 49 -10 1 -5 10
-21 20 -34 11 -13 19 -31 19 -40 0 -13 2 -13 9 -2 13 21 24 -4 16 -39 -4 -17
-11 -30 -17 -30 -7 0 -7 -5 1 -13 6 -8 8 -16 5 -20 -8 -8 15 -47 28 -47 21 0
36 -34 31 -71 -4 -30 -2 -39 15 -48 16 -9 21 -7 25 10 3 12 12 19 22 17 11 -2
20 8 29 32 6 19 12 37 12 40 -1 3 7 15 15 28 12 16 22 20 35 15 16 -6 17 -4 7
8 -7 8 -10 24 -7 35 3 12 -1 26 -10 33 -13 11 -16 11 -16 -3 0 -21 -8 -20 -63
4 -32 14 -47 27 -49 42 -2 13 -14 28 -26 34 -15 7 -20 14 -13 18 6 4 11 12 11
17 0 6 -4 8 -9 4 -5 -3 -12 -1 -16 5 -3 5 -15 10 -25 10 -21 0 -40 27 -40 56
0 10 -6 25 -14 33 -18 21 -30 107 -16 116 19 12 11 63 -16 90 -16 16 -23 32
-20 42 9 21 -37 79 -69 87 -14 4 -25 12 -25 20 0 7 -9 21 -20 31 -11 10 -17
21 -14 26 2 5 -4 14 -16 21 -11 7 -20 20 -20 29 0 17 -26 33 -40 24 -14 -9
-32 24 -36 67 -6 58 -9 78 -19 111 -6 22 -3 35 14 57 34 47 28 66 -22 61 -20
-3 -19 28 2 53 8 9 11 19 8 23 -4 3 0 11 8 17 12 9 13 18 4 50 -13 45 -4 105
16 113 11 4 12 10 5 23 -18 34 -12 53 15 48 18 -4 34 3 59 28 24 24 36 30 45
21 8 -8 16 -6 29 6 10 9 25 17 34 17 8 0 25 11 38 25 12 13 27 22 31 19 5 -3
9 0 9 5 0 15 33 14 48 -1 9 -9 18 -5 38 15 29 30 29 38 0 167 l-14 65 29 28
c16 15 29 33 29 39 0 5 7 7 16 4 14 -5 15 0 12 35 -3 35 -1 40 15 35 13 -3 21
2 24 15 4 14 9 17 18 9 17 -14 65 -2 65 16 0 8 5 14 11 14 20 0 -24 58 -55 71
-17 8 -35 24 -41 36 -7 16 -19 22 -52 25 -44 3 -58 -6 -23 -15 37 -10 22 -32
-24 -35 -36 -2 -44 1 -49 17 -3 11 -2 23 1 26 13 13 12 53 -2 64 -19 16 -10
39 26 72 15 14 28 33 28 42 0 8 9 19 20 22 16 5 19 12 14 27 -7 22 -9 22 56 2
15 -5 22 0 30 21 9 23 13 25 26 14 30 -24 47 -20 39 9 -10 42 -13 122 -3 128
4 3 8 14 8 25 0 10 7 19 15 19 8 0 15 3 16 8 0 4 2 17 3 30 3 22 -9 27 -38 16
-9 -3 -13 -10 -10 -15 6 -10 -52 -69 -67 -69 -5 0 -9 6 -9 13 0 27 -27 49 -68
57 -23 4 -42 3 -42 -1 0 -22 -21 -5 -40 30 -18 36 -23 39 -52 35 -20 -3 -40 1
-51 10 -21 17 -36 96 -18 96 20 0 13 75 -9 95 -11 10 -20 23 -20 30 0 7 -9 20
-20 30 -11 10 -20 24 -20 32 0 19 -50 68 -77 77 -28 9 -50 36 -55 66 -3 22 -8
25 -48 25 -54 0 -103 23 -108 50 -6 32 -22 45 -47 39 -16 -4 -30 1 -44 15 -28
28 -51 27 -51 -3 0 -20 -4 -22 -25 -18 -14 2 -25 1 -24 -4 4 -23 -2 -36 -15
-31 -8 3 -17 -1 -20 -8 -8 -22 -35 -7 -89 48 -48 48 -108 78 -115 57 -6 -18
-22 -10 -63 31 -21 22 -43 38 -48 35 -5 -3 -12 1 -15 10 -3 8 -10 13 -16 9
-20 -12 -110 62 -110 91 0 14 -40 40 -40 27 0 -4 -5 -1 -10 7 -7 11 -10 12
-10 2 0 -10 -4 -9 -16 3 -11 11 -25 14 -44 10 -16 -3 -31 -2 -35 4 -10 16 -29
13 -56 -9z m126 -10 c3 -5 2 -10 -4 -10 -5 0 -13 5 -16 10 -3 6 -2 10 4 10 5
0 13 -4 16 -10z m-289 -207 c-4 -4 -11 -1 -16 7 -16 25 -11 35 7 17 9 -9 13
-20 9 -24z m-46 7 c0 -5 -4 -10 -9 -10 -6 0 -13 5 -16 10 -3 6 1 10 9 10 9 0
16 -4 16 -10z m478 -630 c7 -12 17 -18 22 -15 13 8 62 -44 54 -57 -3 -5 -12
-7 -20 -4 -16 6 -19 -10 -3 -20 6 -3 9 -14 6 -24 -3 -10 4 -31 14 -47 10 -15
19 -22 19 -15 0 6 6 12 14 12 8 0 16 6 19 14 3 7 17 16 31 18 31 6 31 7 6 -22
-11 -13 -20 -29 -20 -36 0 -18 -37 -37 -45 -24 -10 16 -25 12 -33 -10 -7 -19
-8 -19 -36 3 -24 19 -29 32 -32 78 -2 29 -5 72 -7 93 -2 37 -27 66 -27 32 0
-14 -2 -14 -20 1 -19 17 -19 17 8 29 37 17 35 17 50 -6z m668 -77 c-7 -7 -26
7 -26 19 0 6 6 6 15 -2 9 -7 13 -15 11 -17z m351 -20 c-3 -10 -5 -4 -5 12 0
17 2 24 5 18 2 -7 2 -21 0 -30z m-267 12 c14 -16 10 -18 -14 -9 -9 3 -16 10
-16 15 0 14 16 11 30 -6z m-85 -25 c8 -24 18 -25 39 -5 22 23 30 -1 9 -29 -14
-18 -24 -23 -44 -19 -15 3 -37 0 -49 -7 -19 -10 -26 -9 -42 8 -24 24 -17 39
26 58 43 18 54 17 61 -6z m-280 -98 c-3 -3 -11 0 -18 7 -9 10 -8 11 6 5 10 -3
15 -9 12 -12z m-265 -52 c0 -5 -2 -10 -4 -10 -3 0 -8 5 -11 10 -3 6 -1 10 4
10 6 0 11 -4 11 -10z m-30 -185 c0 -8 -7 -15 -15 -15 -8 0 -15 7 -15 15 0 8 7
15 15 15 8 0 15 -7 15 -15z m-15 -106 c11 -17 -1 -21 -15 -4 -8 9 -8 15 -2 15
6 0 14 -5 17 -11z m375 -189 c13 -7 21 -7 25 0 9 15 25 12 25 -5 0 -9 6 -12
15 -9 9 4 15 0 15 -9 0 -8 14 -28 30 -44 23 -21 29 -34 25 -51 -3 -14 -2 -21
4 -18 12 8 41 -3 41 -15 0 -5 -7 -9 -15 -9 -8 0 -15 -4 -15 -10 0 -5 -12 -10
-26 -10 -18 0 -28 6 -31 21 -4 15 -11 19 -26 15 -11 -3 -29 0 -41 6 -15 8 -21
8 -24 -1 -8 -23 -29 -11 -24 14 3 20 -1 27 -22 35 -15 5 -25 14 -22 19 4 5 0
12 -6 14 -10 4 -9 8 2 16 8 6 20 12 25 14 6 2 4 11 -4 20 -12 15 -11 17 8 17
12 0 31 -5 41 -10z m110 -220 c0 -5 -2 -10 -4 -10 -3 0 -8 5 -11 10 -3 6 -1
10 4 10 6 0 11 -4 11 -10z m-460 -1565 c0 -7 -4 -15 -8 -17 -5 -1 -11 -19 -15
-39 -5 -32 -2 -38 19 -48 20 -9 23 -16 18 -36 -4 -16 0 -34 10 -50 10 -15 12
-26 6 -30 -6 -3 -10 -12 -10 -18 0 -7 4 -6 11 3 8 11 12 12 16 2 9 -23 46 36
41 68 -2 16 -1 27 4 24 4 -3 8 0 8 5 0 16 33 13 66 -4 16 -8 46 -18 67 -21 34
-6 38 -10 32 -28 -4 -12 -8 -32 -9 -46 -2 -14 -4 -32 -4 -41 -2 -11 -10 -14
-32 -11 -27 4 -43 -12 -21 -20 5 -1 3 -12 -5 -22 -13 -19 -14 -19 -14 -1 0 17
-1 17 -19 1 -11 -10 -24 -15 -30 -11 -7 3 -8 0 -5 -9 4 -10 1 -16 -7 -16 -9
-1 -7 -6 5 -15 19 -14 19 -15 -7 -15 -15 0 -27 -5 -27 -11 0 -7 -9 -9 -24 -5
-25 6 -42 -14 -37 -43 2 -8 -3 -10 -11 -6 -10 6 -10 5 -1 -5 6 -7 9 -19 6 -27
-5 -12 -2 -13 14 -5 10 6 25 7 32 2 14 -8 -29 -22 -77 -24 -22 -2 -50 20 -44
33 1 3 -10 9 -25 12 -54 10 -112 43 -118 67 -3 14 -19 29 -41 38 -27 11 -35
20 -31 34 3 13 1 17 -9 13 -8 -3 -28 0 -44 7 -26 11 -28 15 -18 33 8 16 8 22
-1 25 -6 2 -11 11 -11 19 0 13 3 13 15 3 12 -10 15 -10 15 3 0 8 7 20 15 27 9
7 13 21 10 30 -4 13 2 19 26 24 19 4 33 13 36 26 3 10 14 22 24 25 18 6 18 7
-1 45 -25 48 -25 50 0 50 12 0 32 -12 45 -26 30 -33 49 -24 29 14 -21 41 -18
55 11 48 14 -3 36 -9 50 -12 19 -5 25 -2 25 10 0 15 2 15 25 0 14 -9 25 -22
25 -29z m255 -495 c3 -5 1 -10 -4 -10 -6 0 -11 5 -11 10 0 6 2 10 4 10 3 0 8
-4 11 -10z m-367 -19 c3 -8 -1 -12 -9 -9 -7 2 -15 10 -17 17 -3 8 1 12 9 9 7
-2 15 -10 17 -17z m347 -41 c3 -5 1 -10 -4 -10 -6 0 -11 5 -11 10 0 6 2 10 4
10 3 0 8 -4 11 -10z m1975 -2676 c0 -8 -4 -12 -10 -9 -5 3 -10 13 -10 21 0 8
5 12 10 9 6 -3 10 -13 10 -21z m-82 -24 c13 0 23 -9 27 -22 4 -13 15 -32 25
-43 16 -17 28 -106 13 -91 -3 3 -15 -1 -27 -9 -28 -20 -39 -19 -33 5 4 14 -7
32 -38 62 -34 35 -44 52 -50 92 l-7 49 35 -22 c19 -11 44 -21 55 -21z m80
-242 c-3 -7 -12 -14 -21 -16 -12 -2 -15 1 -11 12 7 19 38 22 32 4z"/>
<path d="M9340 9289 c0 -5 5 -7 10 -4 6 3 10 8 10 11 0 2 -4 4 -10 4 -5 0 -10
-5 -10 -11z"/>
<path d="M9404 9261 c4 -6 14 -11 22 -11 9 0 14 -8 13 -17 -5 -56 -1 -61 46
-61 42 0 45 1 39 21 -12 38 -32 60 -56 62 -13 1 -34 5 -47 9 -16 6 -21 5 -17
-3z"/>
<path d="M9660 9221 c0 -11 3 -27 7 -37 6 -16 7 -16 13 2 8 22 1 54 -11 54 -5
0 -9 -9 -9 -19z"/>
<path d="M9562 9222 c-7 -5 -10 -16 -6 -25 3 -10 1 -17 -5 -17 -16 0 -14 -18
7 -61 20 -46 38 -55 52 -29 6 11 21 20 33 21 14 0 17 3 7 6 -22 9 -50 47 -45
61 5 15 -11 52 -23 52 -4 0 -13 -4 -20 -8z"/>
<path d="M9765 9210 c3 -5 13 -10 21 -10 8 0 12 5 9 10 -3 6 -13 10 -21 10 -8
0 -12 -4 -9 -10z"/>
<path d="M10863 11554 c2 -11 8 -27 12 -38 5 -11 3 -27 -4 -40 -8 -13 -3 -11
14 8 30 33 29 52 -3 74 -21 13 -22 13 -19 -4z"/>
<path d="M9247 11396 c-4 -10 -12 -14 -17 -11 -16 10 -62 -4 -55 -15 4 -6 13
-7 24 -1 10 6 23 6 32 0 18 -11 49 -12 49 -1 0 5 -6 16 -13 26 -13 17 -14 18
-20 2z"/>
<path d="M9120 11386 c0 -15 24 -28 34 -19 7 7 -13 33 -25 33 -5 0 -9 -6 -9
-14z"/>
<path d="M11065 8400 c-3 -5 0 -10 9 -10 8 0 17 -6 19 -12 4 -8 6 -9 6 -2 1
18 -26 37 -34 24z"/>
<path d="M11040 7171 c0 -5 5 -13 10 -16 6 -3 10 -2 10 4 0 5 -4 13 -10 16 -5
3 -10 2 -10 -4z"/>
<path d="M10043 6907 c0 -8 6 -14 12 -14 6 0 12 6 12 14 0 7 -6 13 -12 13 -6
0 -12 -6 -12 -13z"/>
<path d="M12875 6137 c-9 -20 -14 -40 -11 -45 3 -6 -1 -12 -9 -16 -8 -3 -17
-1 -20 3 -9 15 -45 -1 -45 -20 0 -24 -20 -35 -31 -18 -7 11 -9 10 -9 -4 0 -17
-7 -18 -72 -14 -40 3 -80 8 -89 11 -8 4 -31 0 -50 -8 -43 -18 -151 -111 -164
-141 -10 -22 -12 -22 -39 -8 -15 8 -25 10 -22 4 10 -16 -21 -13 -48 4 -16 11
-22 22 -19 35 4 14 0 20 -12 20 -15 0 -16 -2 -4 -17 13 -15 12 -16 -9 -11 -12
4 -20 2 -16 -3 3 -5 13 -9 22 -10 11 0 12 -3 5 -6 -20 -7 -15 -31 8 -44 13 -7
19 -17 16 -29 -6 -25 32 -33 96 -21 43 8 47 7 42 -9 -4 -13 4 -24 30 -38 19
-12 35 -27 35 -34 0 -7 11 -18 25 -25 16 -7 25 -7 25 -1 0 6 18 8 48 4 26 -3
54 -6 62 -7 8 -1 31 -13 50 -28 83 -62 100 -71 122 -62 25 9 124 -36 176 -81
18 -16 37 -26 42 -23 5 3 12 1 15 -5 5 -8 11 -8 20 0 10 8 17 5 29 -12 9 -12
16 -19 16 -14 0 5 8 2 18 -7 14 -13 21 -14 31 -4 15 15 34 -9 27 -35 -2 -10 1
-22 8 -27 8 -7 12 4 13 41 2 54 9 68 39 72 26 4 30 26 5 33 -12 3 -21 12 -21
20 0 11 -7 13 -26 9 -19 -5 -35 1 -65 25 -28 22 -37 34 -28 39 8 6 5 11 -10
20 -18 9 -21 17 -16 41 5 22 3 29 -9 29 -18 0 -34 42 -18 48 8 2 8 11 1 29 -7
18 -6 28 1 33 8 5 7 19 -4 50 -8 23 -12 48 -10 55 3 7 1 16 -5 20 -6 3 -11 13
-11 22 0 9 -9 25 -20 37 -53 55 -80 95 -69 101 6 5 7 10 2 14 -5 3 -14 15 -20
25 -10 17 -12 16 -28 -17z"/>
<path d="M11948 6083 c7 -3 16 -2 19 1 4 3 -2 6 -13 5 -11 0 -14 -3 -6 -6z"/>
<path d="M13776 5798 c-5 -25 -9 -28 -28 -22 -13 4 -28 13 -33 21 -8 11 -17
12 -38 4 -34 -13 -35 -29 -2 -41 14 -5 25 -17 25 -25 0 -10 -5 -13 -12 -9 -7
4 -8 3 -4 -4 4 -6 14 -8 23 -5 10 4 14 2 10 -4 -4 -6 0 -17 9 -24 23 -19 48 1
50 39 3 51 11 67 29 52 13 -11 20 -9 40 10 14 13 25 26 25 29 0 3 -20 7 -44 8
-41 1 -44 0 -50 -29z"/>
<path d="M13578 5758 c-3 -7 -23 -11 -51 -10 -36 2 -47 -1 -47 -13 0 -8 -6
-15 -13 -15 -8 0 -24 -11 -37 -25 -13 -14 -28 -25 -34 -25 -6 0 -16 -11 -22
-24 -9 -20 -9 -26 2 -30 7 -3 16 0 20 5 3 6 17 8 30 5 17 -5 26 -2 31 9 3 9
12 14 19 11 16 -6 46 3 40 13 -2 3 18 5 45 5 66 -2 65 -2 83 -20 13 -13 16
-13 16 -1 0 8 -10 22 -22 30 -20 14 -21 18 -8 26 13 9 12 12 -4 24 -12 9 -17
20 -13 31 5 11 1 16 -12 16 -11 0 -21 -5 -23 -12z"/>
<path d="M13630 5756 c0 -2 7 -7 16 -10 8 -3 12 -2 9 4 -6 10 -25 14 -25 6z"/>
<path d="M13285 5570 c-3 -5 -2 -10 4 -10 5 0 13 5 16 10 3 6 2 10 -4 10 -5 0
-13 -4 -16 -10z"/>
<path d="M10916 4711 c-3 -5 1 -11 9 -15 8 -3 15 -1 15 4 0 13 -18 22 -24 11z"/>
</g>
</svg>
