<?xml version="1.0" standalone="no"?>
<!DOCTYPE svg PUBLIC "-//W3C//DTD SVG 20010904//EN"
 "http://www.w3.org/TR/2001/REC-SVG-20010904/DTD/svg10.dtd">
<svg version="1.0" xmlns="http://www.w3.org/2000/svg"
 width="952.659065pt" height="986.590875pt" viewBox="0 0 952.659065 986.590875"
 preserveAspectRatio="xMidYMid meet">
<metadata>
Created by potrace 1.15, written by Peter Selinger 2001-2017
</metadata>
<g transform="translate(-521.926088,1493.695834) scale(0.100000,-0.100000)"
fill="#222222" stroke="none">
<path d="M6799 14918 c-6 -12 -17 -26 -23 -30 -12 -8 -8 -10 36 -12 16 -1 24
2 20 9 -3 5 -8 19 -9 29 -5 29 -10 30 -24 4z"/>
<path d="M6757 14827 c-3 -9 -13 -17 -22 -17 -15 0 -21 -35 -7 -44 4 -2 18 4
32 14 20 15 22 22 14 41 -9 20 -11 20 -17 6z"/>
<path d="M6247 14822 c-15 -3 -18 -11 -15 -33 3 -15 -1 -30 -7 -33 -15 -5 -12
-80 3 -99 10 -12 10 -18 -3 -31 -9 -9 -23 -16 -32 -16 -28 0 6 -29 43 -36 39
-7 57 -41 29 -56 -14 -9 -15 -12 -2 -26 46 -53 56 -149 16 -159 -13 -4 -20
-19 -25 -61 -8 -65 4 -108 29 -104 18 3 20 -2 17 -65 -1 -27 3 -43 10 -43 6 0
8 -4 5 -10 -3 -5 -14 -10 -24 -10 -19 0 -31 -26 -31 -67 0 -15 -17 -33 -55
-60 -41 -28 -59 -49 -71 -80 -9 -24 -20 -40 -25 -37 -8 5 -13 -12 -12 -43 1
-7 -3 -13 -7 -13 -4 0 -10 -14 -14 -32 -5 -24 -9 -29 -18 -20 -18 18 -28 14
-28 -11 0 -35 -17 -47 -52 -35 -21 8 -33 7 -41 -1 -18 -18 -46 -13 -83 16 -35
26 -35 26 -41 5 -4 -16 -13 -22 -34 -22 -19 0 -29 -5 -29 -15 0 -12 -4 -13
-19 -6 -15 9 -20 7 -24 -10 -6 -22 -35 -22 -74 -1 -13 7 -23 9 -23 5 0 -4 -7
-17 -15 -27 -12 -16 -17 -17 -30 -6 -13 10 -15 9 -15 -7 0 -29 -29 -63 -54
-63 -17 0 -26 -7 -30 -24 -4 -17 -16 -27 -43 -34 -25 -6 -30 -10 -16 -11 12
-1 25 -6 29 -12 4 -6 20 -8 40 -4 19 3 42 2 51 -4 15 -7 18 -5 18 17 1 15 -3
30 -8 33 -5 3 0 14 10 24 13 13 14 20 5 23 -16 5 -5 22 15 22 9 0 25 7 35 16
9 9 34 18 54 20 20 2 41 8 48 13 13 11 66 3 66 -10 0 -5 11 -14 25 -19 14 -5
28 -17 31 -25 4 -8 12 -15 18 -15 8 0 11 -11 8 -30 -3 -21 0 -30 9 -30 11 0
11 -2 1 -8 -7 -5 -14 -23 -17 -40 -2 -18 0 -30 6 -27 5 4 9 2 9 -3 0 -6 7 -9
16 -8 9 0 19 -5 21 -11 3 -7 -3 -13 -12 -13 -9 0 -14 -4 -10 -9 6 -11 65 6 65
19 0 5 16 14 35 21 21 8 35 20 35 29 0 14 11 16 67 15 56 -2 70 -6 81 -24 17
-24 42 -28 42 -6 0 10 10 15 29 15 22 0 37 10 60 39 17 21 31 46 31 55 0 19
11 21 29 4 11 -11 11 -9 2 10 -10 19 -9 22 9 22 15 0 20 6 20 29 0 23 5 30 23
33 17 2 22 9 20 28 -5 61 -14 87 -39 108 -14 13 -25 24 -23 26 28 24 78 29 64
6 -3 -5 8 -16 24 -25 39 -20 40 -19 34 8 -5 22 -5 22 10 2 21 -26 22 -8 4 60
-15 58 -12 85 10 85 12 0 13 3 4 14 -11 13 -5 46 8 46 4 0 12 -5 19 -12 23
-23 22 1 -3 55 -14 31 -25 64 -25 75 0 10 -7 32 -15 48 -14 30 -15 70 -1 92 5
8 20 10 47 6 41 -7 48 1 29 35 -8 17 -6 17 30 7 28 -7 43 -18 50 -36 9 -23 10
-22 7 13 -3 36 5 48 19 26 5 -8 10 -6 16 5 5 9 13 14 19 11 5 -4 9 -1 9 5 0 6
4 9 9 6 22 -14 -4 35 -26 49 -23 15 -24 21 -18 63 11 76 16 91 30 86 7 -3 25
2 39 11 l25 17 -20 34 c-23 42 -23 45 -4 38 10 -4 15 0 15 15 0 12 -6 20 -12
19 -8 -2 -12 5 -10 16 2 10 -1 15 -7 11 -7 -3 -8 0 -5 9 4 10 1 16 -9 16 -17
0 -67 38 -67 51 0 5 14 9 30 9 36 0 38 10 7 36 -38 33 -51 40 -44 21 5 -14 0
-17 -23 -17 -20 0 -30 5 -30 15 0 19 -5 19 -41 -2 -22 -13 -35 -15 -56 -7 -21
8 -34 7 -51 -5 -19 -12 -25 -12 -32 -1 -4 7 -14 10 -22 7 -8 -3 -21 -1 -29 3
-7 5 -18 5 -25 -1 -9 -7 -18 -4 -31 9 -22 22 -41 30 -66 24z"/>
<path d="M9223 14483 c12 -12 -23 -41 -44 -36 -20 6 -58 -30 -59 -56 0 -10 -3
-11 -14 -2 -7 6 -20 9 -29 5 -8 -3 -18 0 -22 6 -9 14 -105 2 -127 -17 -9 -8
-37 -15 -62 -16 -25 -1 -46 -5 -46 -9 0 -22 -37 -48 -69 -48 -52 0 -110 -30
-111 -57 0 -17 -6 -23 -22 -23 -35 0 -95 -24 -91 -36 2 -6 -28 -21 -67 -35
-47 -16 -69 -28 -65 -36 3 -10 -3 -12 -23 -7 -29 7 -92 45 -92 55 0 4 -8 10
-17 13 -10 3 -4 -6 13 -22 26 -22 31 -32 27 -60 -3 -18 -9 -35 -14 -38 -5 -3
-9 -14 -9 -25 0 -12 -7 -19 -20 -19 -13 0 -20 -7 -20 -19 0 -17 -4 -18 -32
-10 -38 10 -43 7 -29 -20 8 -14 8 -22 0 -26 -5 -4 -14 -18 -20 -32 -5 -13 -13
-22 -19 -18 -5 3 -21 -14 -36 -37 -15 -24 -35 -55 -46 -70 -10 -15 -18 -38
-18 -51 0 -23 -43 -77 -61 -77 -5 0 -9 -9 -9 -19 0 -22 -35 -51 -62 -51 -9 0
-25 -13 -34 -30 -10 -16 -27 -30 -37 -32 -12 -2 -31 -23 -47 -52 -18 -34 -35
-53 -55 -59 -17 -6 -37 -20 -47 -32 -20 -25 -73 -31 -94 -11 -7 8 -24 11 -39
8 -23 -4 -25 -8 -20 -33 7 -29 6 -29 -39 -29 -39 0 -45 -3 -40 -17 4 -13 0
-11 -12 5 -21 28 -29 28 -31 0 -3 -41 -53 -53 -53 -12 0 14 4 23 10 19 6 -3
10 1 10 9 0 25 -4 31 -19 28 -24 -6 -31 21 -10 36 10 7 19 20 19 28 0 8 5 14
10 14 6 0 10 7 10 16 0 13 3 14 14 5 10 -9 17 -7 27 5 12 15 11 16 -8 10 -16
-5 -28 2 -55 34 -19 22 -42 40 -51 40 -9 0 -18 4 -21 9 -3 4 -24 7 -47 5 -25
-2 -51 3 -63 12 -11 8 -28 14 -37 14 -9 0 -19 7 -23 15 -3 10 -19 15 -46 15
-28 0 -40 4 -40 15 0 8 -6 12 -13 9 -18 -6 -41 22 -34 41 4 8 2 17 -4 21 -6 3
-8 13 -5 21 3 8 -1 27 -9 42 -8 16 -11 31 -8 35 4 3 -3 6 -15 6 -12 0 -22 -5
-22 -12 0 -9 -3 -9 -12 0 -15 15 -55 16 -60 1 -3 -8 -16 -10 -40 -5 -27 5 -37
13 -42 31 -4 14 -19 31 -35 39 -36 19 -46 42 -23 55 15 9 14 11 -8 19 -14 6
-38 24 -54 41 -27 28 -65 44 -51 22 3 -5 7 -24 9 -41 2 -18 8 -35 13 -39 6 -3
7 -15 3 -25 -6 -19 -7 -18 -22 3 -29 41 -30 3 -1 -40 17 -27 24 -44 17 -46 -7
-2 -10 -13 -7 -23 4 -16 0 -20 -21 -20 -15 0 -41 -8 -59 -17 l-32 -18 33 -3
c25 -3 36 -10 45 -30 6 -15 17 -33 24 -40 7 -7 13 -26 13 -42 0 -21 9 -36 29
-51 16 -12 27 -27 24 -35 -2 -7 5 -17 16 -23 17 -10 19 -15 10 -38 -11 -29 4
-48 31 -37 8 4 22 8 32 11 9 3 19 15 22 28 4 16 11 22 24 18 11 -2 29 6 45 22
17 18 31 24 39 18 7 -4 24 -8 38 -8 27 0 39 -30 24 -63 -4 -9 -8 -21 -8 -27
-2 -19 -50 -65 -68 -65 -18 0 -25 -34 -19 -97 1 -12 -3 -24 -8 -27 -5 -4 -7
-21 -4 -39 4 -29 1 -35 -22 -45 l-28 -13 22 -23 c11 -12 21 -33 21 -47 1 -19
2 -21 10 -8 10 18 101 19 135 2 11 -6 26 -8 33 -6 9 4 11 -2 7 -19 -5 -20 4
-35 50 -81 30 -31 61 -57 68 -57 8 0 24 -11 36 -24 22 -23 71 -41 71 -26 0 4
8 10 18 14 9 3 25 11 35 18 16 11 21 10 35 -11 9 -13 27 -33 39 -45 18 -18 19
-24 8 -39 -7 -9 -22 -17 -34 -17 -41 0 -6 -36 58 -60 50 -18 85 -23 206 -25
125 -3 151 -6 180 -24 l35 -20 11 21 c9 17 13 18 20 7 6 -9 9 -10 9 -2 0 6 -4
15 -10 18 -5 3 -10 30 -9 58 0 29 3 46 6 40 9 -25 25 -13 19 13 -5 20 -2 32
13 46 12 10 21 27 21 37 0 9 11 27 25 39 14 12 25 26 25 32 0 5 7 10 15 10 8
0 15 9 15 20 0 11 4 20 9 20 5 0 8 -15 7 -32 -1 -31 1 -33 32 -33 39 0 64 -27
60 -65 -2 -18 -14 -30 -43 -44 -33 -15 -43 -26 -55 -64 -10 -32 -22 -48 -36
-52 -14 -3 -20 -12 -19 -28 1 -18 -2 -21 -17 -16 -17 5 -17 1 7 -46 14 -28 23
-54 21 -59 -3 -4 6 -14 19 -21 14 -7 25 -21 25 -31 0 -10 5 -21 10 -24 8 -5 7
-11 0 -20 -7 -9 -9 -23 -4 -37 4 -13 7 -28 6 -35 -2 -7 9 -15 23 -19 34 -9 75
-59 75 -94 0 -20 11 -39 38 -64 20 -20 40 -36 44 -36 14 0 68 -53 68 -67 0 -8
11 -24 25 -35 14 -11 25 -26 25 -33 0 -14 36 -31 58 -27 21 5 35 -42 25 -85
-9 -38 4 -84 28 -98 11 -7 12 -75 2 -75 -5 0 -14 -4 -21 -9 -11 -7 -9 -16 11
-47 29 -47 44 -90 28 -80 -6 4 -20 1 -31 -7 -20 -14 -20 -14 3 -34 28 -26 67
-39 67 -22 0 7 11 2 25 -11 14 -13 25 -29 25 -35 0 -7 24 -37 53 -67 48 -51
54 -54 80 -44 15 5 27 13 27 17 0 14 75 -4 90 -21 8 -10 31 -20 50 -23 19 -3
55 -10 79 -16 37 -10 46 -9 62 5 18 16 21 16 44 -6 14 -13 25 -34 25 -47 0
-31 68 -62 121 -55 32 3 43 -2 79 -34 23 -21 38 -40 33 -41 -12 -4 -4 -53 8
-53 5 0 9 -7 9 -15 0 -8 17 -26 38 -40 21 -13 46 -38 55 -55 10 -16 24 -30 31
-30 20 0 48 -48 41 -69 -3 -11 3 -25 15 -36 13 -12 20 -29 18 -44 -3 -22 1
-26 22 -23 14 1 30 9 36 17 8 11 23 13 61 9 39 -5 53 -3 67 11 16 17 18 17 31
-3 11 -15 27 -20 67 -21 29 -1 63 -2 75 -2 16 -1 27 -14 41 -47 13 -30 17 -49
10 -53 -7 -4 -7 -9 1 -13 6 -4 11 -16 11 -26 0 -27 49 -80 88 -97 39 -16 47
-10 81 65 16 33 25 42 45 42 26 0 76 39 76 59 0 6 9 16 20 23 11 7 20 20 20
29 0 9 7 34 16 55 10 24 14 53 11 77 -5 36 -3 40 24 50 24 9 31 19 36 50 3 21
12 41 19 44 8 3 14 10 14 16 0 17 51 114 70 134 13 14 15 25 9 47 -6 21 -5 35
4 45 41 49 59 98 62 170 2 40 8 78 14 84 6 6 7 16 1 28 -10 18 -4 60 21 154
17 63 15 62 40 39 15 -13 36 -19 73 -19 48 -1 53 1 67 30 9 17 25 31 37 33 12
2 22 8 22 13 0 5 6 9 14 9 8 0 18 9 21 20 4 12 15 20 30 20 21 0 23 3 18 43
-7 62 -9 65 -50 84 -28 14 -39 25 -41 46 -2 15 1 27 7 27 6 0 11 18 11 40 0
34 -4 41 -24 46 -29 7 -51 30 -61 64 -4 13 -14 30 -21 38 -20 19 -17 39 7 56
19 13 21 21 16 61 -6 43 -6 45 16 40 18 -5 26 -1 35 20 7 14 16 24 21 20 5 -3
12 4 16 15 3 11 12 20 18 20 7 0 18 14 24 30 10 26 9 32 -7 40 -18 9 -18 13
-5 51 8 23 15 54 15 70 0 17 5 29 13 29 32 1 37 15 26 71 -6 30 -13 78 -15
108 -2 31 -11 63 -20 72 -15 17 -15 20 1 35 9 10 33 20 54 23 32 6 36 10 39
40 3 24 -1 37 -13 44 -15 8 -15 10 2 27 37 39 43 50 43 90 0 22 6 56 14 75 9
21 11 37 5 40 -5 4 -9 2 -9 -2 0 -5 -8 -13 -19 -20 -15 -10 -22 -8 -40 8 -24
23 -28 49 -6 49 8 0 15 9 15 20 0 14 7 20 21 20 16 0 19 4 14 23 -14 44 -29
49 -50 17 -21 -31 -41 -41 -32 -16 8 20 -4 28 -20 15 -13 -11 -14 -10 -17 13
0 7 -9 14 -19 16 -15 3 -18 0 -12 -17 5 -15 2 -21 -10 -21 -8 0 -18 -6 -20
-13 -4 -8 -26 -12 -66 -12 -52 0 -63 4 -80 25 -10 14 -21 33 -25 43 -3 9 -15
17 -27 17 -29 0 -51 15 -43 29 10 16 -3 51 -18 51 -7 0 -20 8 -29 18 -22 24
-23 72 -2 72 10 0 15 10 15 30 0 27 -6 33 -45 50 -25 11 -45 24 -45 29 0 6
-19 20 -42 32 -63 32 -103 69 -105 97 -1 13 -9 32 -18 41 -8 10 -12 21 -9 24
4 4 -1 9 -10 13 -9 3 -16 13 -16 20 0 8 -7 17 -15 20 -8 4 -12 10 -9 15 3 5
-7 4 -21 -3 -21 -9 -28 -9 -34 1 -5 8 -11 9 -15 3 -3 -5 -18 -7 -33 -5 -35 6
-133 53 -110 53 19 0 23 25 6 36 -8 5 -8 9 1 14 9 6 9 12 -1 29 -16 24 -59 29
-59 6 0 -8 -5 -15 -11 -15 -5 0 -8 -3 -5 -8 6 -10 -76 -8 -92 2 -20 12 -14 35
8 29 12 -3 20 0 20 6 0 7 -4 9 -10 6 -5 -3 -10 1 -10 9 0 9 5 16 10 16 6 0 10
5 10 10 0 6 -6 10 -13 10 -24 0 -47 36 -47 73 0 31 -5 39 -32 53 -41 21 -108
28 -108 11 0 -7 -7 -4 -14 6 -9 12 -16 14 -21 8 -3 -6 -17 -11 -31 -11 -25 0
-46 -32 -37 -56 2 -6 -3 -14 -11 -17 -9 -4 -16 -14 -16 -23 0 -10 -5 -14 -15
-10 -8 3 -15 1 -15 -5 0 -6 -6 -9 -14 -6 -8 3 -24 -4 -36 -15 -12 -11 -23 -18
-24 -17 -14 17 -25 50 -20 63 5 12 -3 19 -25 27 -17 6 -31 15 -31 20 0 5 -6 9
-13 9 -7 0 -20 14 -28 31 -8 18 -18 32 -24 32 -5 0 -16 8 -23 18 -7 11 -18 19
-24 19 -6 0 -8 -3 -5 -7z m1427 -1136 c8 -3 0 -6 -17 -6 -23 -1 -33 4 -33 14
0 12 5 13 18 7 9 -5 24 -12 32 -15z m-2010 -1762 c7 -9 8 -15 2 -15 -5 0 -12
7 -16 15 -3 8 -4 15 -2 15 2 0 9 -7 16 -15z"/>
<path d="M6736 13125 c-13 -10 -24 -11 -37 -5 -24 13 -29 13 -29 -4 0 -8 -6
-16 -12 -19 -7 -2 0 -8 16 -12 18 -5 35 -4 45 4 9 6 29 17 45 25 23 11 25 14
11 20 -20 7 -16 8 -39 -9z"/>
<path d="M6545 13080 c-10 -11 -29 -20 -42 -20 -21 0 -24 -4 -21 -26 2 -16 -3
-30 -12 -35 -52 -28 -86 -38 -106 -33 -17 4 -24 2 -24 -8 0 -18 -38 -41 -52
-32 -7 4 -26 9 -42 10 -63 4 -112 18 -148 41 -21 12 -41 23 -44 23 -4 0 -12 8
-19 17 -11 15 -15 15 -29 4 -9 -7 -16 -24 -16 -37 0 -13 -5 -24 -11 -24 -14 0
-6 -25 9 -26 7 -1 17 -2 22 -3 6 0 10 -7 10 -15 0 -20 -33 -29 -79 -21 -22 3
-41 2 -45 -3 -3 -5 -22 -9 -42 -10 -28 -1 -35 2 -30 13 4 11 -3 15 -24 17 -17
0 -36 1 -42 2 -8 1 -13 -14 -14 -39 -2 -42 -22 -105 -38 -117 -6 -4 -5 -13 3
-22 10 -12 10 -19 -3 -38 -9 -12 -16 -18 -16 -13 0 5 -15 -6 -34 -24 -28 -27
-40 -32 -63 -28 -23 4 -34 -1 -65 -35 -22 -23 -38 -50 -38 -64 0 -13 -4 -24
-10 -24 -5 0 -10 -7 -10 -15 0 -8 -7 -15 -15 -15 -8 0 -12 -6 -9 -14 3 -9 -3
-17 -16 -21 -12 -4 -26 -18 -32 -31 -10 -22 -20 -28 -40 -25 -13 2 -9 -16 7
-29 21 -18 11 -24 -15 -10 -19 10 -22 9 -27 -10 -4 -15 -11 -20 -24 -17 -12 3
-19 0 -19 -9 0 -12 -4 -12 -20 -4 -11 6 -20 18 -20 26 0 8 -4 12 -10 9 -23
-14 -8 -54 39 -104 43 -45 72 -67 57 -43 -3 5 8 9 25 9 23 0 31 -6 35 -24 4
-14 14 -23 25 -23 10 0 18 -6 16 -12 -1 -9 11 -13 36 -13 29 0 43 -6 57 -25
11 -14 20 -30 20 -37 0 -7 7 -10 16 -6 8 3 28 -4 43 -15 21 -15 31 -18 40 -9
8 8 11 8 11 0 0 -8 12 -10 34 -6 44 7 86 -3 86 -21 0 -13 20 -26 41 -26 4 0 6
14 2 30 -4 25 -3 29 10 24 10 -3 20 3 27 17 10 18 9 28 -9 59 l-21 38 25 23
c14 14 25 35 25 52 0 15 4 27 9 27 11 0 25 -30 22 -47 -2 -14 12 -11 66 14 32
14 33 14 16 39 -13 20 -14 27 -4 34 9 5 10 10 2 14 -19 12 -12 26 13 26 14 0
45 16 70 35 25 19 48 30 51 26 3 -5 16 -4 29 2 18 9 22 15 14 24 -7 9 -7 13 1
13 6 0 11 7 11 16 0 9 8 18 18 21 14 3 18 11 14 29 -3 19 0 24 16 24 11 0 25
7 32 15 7 8 19 15 27 15 10 0 13 6 9 16 -4 10 1 25 11 36 14 15 15 24 6 48
-10 26 -9 28 16 33 23 5 30 15 45 66 14 49 16 67 7 92 -18 52 -14 69 14 69 18
0 25 5 25 20 0 14 5 18 16 13 9 -3 20 0 25 8 4 8 14 14 21 14 7 0 22 14 33 32
11 18 28 32 37 33 10 0 31 8 48 18 l30 19 -25 11 c-32 15 -29 16 -50 -8z
m-455 -195 c11 -13 10 -14 -4 -9 -9 3 -16 10 -16 15 0 13 6 11 20 -6z"/>
<path d="M7871 12709 c-1 -9 7 -23 17 -30 15 -12 16 -12 6 1 -6 8 -14 22 -17
30 -5 13 -6 12 -6 -1z"/>
<path d="M7870 12151 c0 -5 7 -14 15 -21 16 -14 18 -10 9 14 -6 17 -24 22 -24
7z"/>
<path d="M7900 12086 c0 -14 5 -26 10 -26 6 0 10 9 10 19 0 11 -4 23 -10 26
-6 4 -10 -5 -10 -19z"/>
<path d="M7610 12065 c0 -8 -7 -15 -15 -15 -9 0 0 -14 22 -35 30 -29 35 -38
24 -45 -12 -7 -12 -11 -2 -24 7 -8 20 -14 29 -14 9 0 25 -3 35 -7 16 -6 17 -3
14 29 -2 19 -11 44 -20 54 -13 14 -14 21 -5 30 18 18 -9 42 -48 42 -24 0 -34
-5 -34 -15z"/>
<path d="M7900 12043 c0 -4 -24 -8 -53 -9 -47 0 -57 -4 -85 -34 -18 -18 -32
-35 -32 -37 0 -17 24 -43 39 -43 10 0 35 -7 55 -15 37 -16 38 -15 70 13 18 15
30 34 28 40 -2 7 4 12 13 12 11 0 15 5 12 14 -3 8 -2 16 2 18 4 2 -5 13 -21
26 -15 13 -28 20 -28 15z"/>
<path d="M7529 11996 c8 -9 25 -16 39 -16 32 0 18 15 -22 24 -26 6 -28 5 -17
-8z"/>
<path d="M7993 11944 c-1 -34 4 -52 20 -70 12 -14 22 -33 22 -42 0 -11 8 -17
22 -17 13 0 24 -4 25 -10 4 -21 39 -49 75 -62 49 -16 49 -16 30 5 -8 9 -20 29
-26 44 -6 17 -16 25 -28 24 -11 -2 -28 12 -45 35 -15 21 -36 43 -47 48 -11 6
-17 18 -15 28 2 10 -4 28 -13 40 -18 23 -18 23 -20 -23z"/>
<path d="M8130 11856 c0 -9 5 -16 10 -16 6 0 10 4 10 9 0 6 -4 13 -10 16 -5 3
-10 -1 -10 -9z"/>
<path d="M8268 11694 c14 -7 16 -34 2 -34 -5 0 -10 -4 -10 -10 0 -14 33 -13
48 2 8 8 15 8 27 -2 12 -10 15 -10 15 4 0 26 -21 41 -60 43 -19 1 -29 -1 -22
-3z"/>
<path d="M10028 10552 c-5 -17 -13 -22 -36 -22 -24 0 -31 -5 -34 -22 -2 -14
-21 -31 -60 -52 -44 -24 -60 -39 -69 -64 -13 -38 -87 -87 -118 -77 -15 5 -21
0 -26 -24 -4 -20 -13 -31 -27 -33 -25 -4 -37 -28 -14 -28 20 0 31 -19 18 -32
-8 -8 -5 -18 9 -36 13 -17 16 -29 9 -36 -16 -16 -12 -34 9 -41 10 -3 21 -15
24 -25 3 -11 12 -20 22 -20 9 0 40 -25 70 -55 29 -30 60 -55 69 -55 9 0 16 -7
16 -15 0 -9 9 -15 21 -15 14 0 19 -5 16 -14 -3 -7 0 -19 6 -25 8 -8 8 -11 -2
-11 -8 0 0 -24 23 -65 38 -70 42 -80 26 -70 -5 3 -10 -3 -10 -14 0 -11 -5 -23
-11 -26 -6 -4 -8 -13 -5 -21 3 -8 1 -14 -5 -14 -5 0 -2 -11 7 -25 9 -14 13
-32 10 -41 -4 -9 4 -28 19 -46 14 -16 25 -39 25 -51 0 -12 6 -31 13 -43 47
-78 58 -90 107 -109 41 -16 50 -24 50 -44 0 -13 10 -40 22 -59 18 -30 19 -35
5 -29 -12 4 -17 1 -17 -11 0 -10 -10 -28 -23 -42 -21 -22 -22 -29 -14 -73 6
-27 16 -51 23 -54 11 -4 11 -10 1 -31 -15 -33 -15 -50 1 -79 17 -30 16 -83 -2
-83 -9 0 -16 -17 -20 -49 -4 -27 -11 -51 -15 -53 -5 -2 -2 -19 6 -38 9 -19 16
-38 15 -42 -1 -4 6 -7 16 -7 34 1 57 -8 58 -22 0 -8 2 -20 2 -26 3 -19 62 -17
62 2 0 21 13 19 35 -5 12 -14 25 -18 41 -14 27 7 74 -19 74 -40 0 -11 11 -14
41 -12 33 3 43 -1 55 -20 9 -12 29 -27 45 -33 17 -6 29 -16 28 -23 -2 -13 14
-58 32 -88 5 -8 13 -25 19 -37 9 -22 22 -27 93 -37 39 -5 92 -40 102 -67 5
-14 45 -39 62 -39 3 0 2 11 -1 24 -4 18 1 33 19 54 15 18 25 42 25 61 0 17 4
31 10 31 5 0 13 18 16 40 7 43 30 54 54 25 7 -8 20 -15 29 -15 18 0 53 35 44
44 -8 8 23 36 40 36 8 0 18 11 21 25 4 14 11 25 16 25 13 0 13 61 0 94 -6 17
-6 35 1 54 21 55 30 131 19 153 -9 16 -9 28 0 50 7 16 9 37 5 46 -3 10 -6 20
-6 23 0 11 -63 69 -70 64 -5 -2 -16 7 -25 22 -15 22 -15 27 -3 34 11 7 9 14
-11 34 -13 15 -28 26 -34 26 -6 0 -22 13 -36 29 -30 36 -80 52 -80 27 0 -17
-26 -21 -49 -7 -11 7 -12 21 -7 58 4 26 8 54 9 61 0 14 13 16 22 2 3 -5 11
-10 16 -10 6 0 7 4 4 10 -3 5 6 21 20 35 15 13 25 30 22 37 -3 7 -6 8 -6 2 -2
-19 -54 -3 -91 28 -19 15 -43 28 -53 28 -10 0 -31 10 -45 21 l-27 22 27 -7
c40 -9 70 22 58 61 -5 15 -12 48 -15 73 -5 36 -12 49 -37 65 -40 25 -45 42
-16 48 13 3 -6 5 -42 4 -52 0 -76 5 -117 27 -29 15 -59 37 -68 49 -12 17 -17
19 -24 9 -7 -11 -11 -11 -24 2 -17 18 -47 21 -47 6 0 -5 -10 -10 -21 -10 -20
0 -21 -4 -16 -45 5 -32 3 -45 -6 -46 -70 -9 -75 -7 -80 18 -3 17 1 28 14 36
11 7 19 19 19 29 0 18 33 33 50 23 5 -3 10 -1 10 4 0 6 11 11 24 11 27 0 38
19 40 70 1 28 5 34 19 32 17 -3 18 1 12 39 -6 36 -5 41 9 36 23 -9 40 27 21
43 -20 17 -8 33 20 26 16 -4 25 0 32 17 10 21 7 24 -23 34 -19 5 -37 6 -40 1
-11 -17 -24 4 -24 38 0 41 -37 100 -80 129 -16 11 -32 32 -35 47 -6 26 -75 89
-75 69 0 -6 -6 -11 -14 -11 -8 0 -16 -5 -18 -11 -2 -6 -16 1 -31 15 -16 14
-39 26 -52 26 -13 0 -27 5 -30 11 -4 5 -17 9 -28 8 -39 -3 -87 13 -98 32 -5
11 -7 19 -3 19 3 0 1 6 -5 14 -7 8 -16 27 -20 43 -7 27 -8 27 -13 5z"/>
<path d="M11080 9425 c0 -8 -5 -15 -12 -15 -9 0 -9 -3 -1 -11 6 -6 16 -8 22
-5 14 9 14 46 1 46 -5 0 -10 -7 -10 -15z"/>
<path d="M11164 9412 c-16 -2 -20 -8 -17 -23 4 -15 0 -19 -18 -19 -31 0 -18
-10 26 -20 28 -6 35 -5 32 5 -3 7 -1 17 5 23 15 15 -4 38 -28 34z"/>
<path d="M11066 9372 c-3 -5 1 -15 9 -22 16 -14 20 -3 6 19 -5 8 -11 9 -15 3z"/>
<path d="M10950 8133 c0 -10 -2 -33 -3 -50 -1 -19 -7 -33 -14 -33 -16 0 -17
-12 -2 -27 16 -16 -18 -63 -45 -63 -12 0 -34 -6 -49 -12 -23 -11 -27 -19 -27
-56 0 -38 -6 -48 -51 -94 l-52 -52 25 -20 c24 -21 37 -76 17 -76 -5 0 -7 -4
-4 -10 3 -5 1 -10 -4 -10 -6 0 -11 -21 -11 -47 0 -27 -7 -61 -15 -77 -11 -21
-12 -32 -4 -42 6 -7 9 -19 7 -26 -2 -6 17 -34 43 -61 34 -36 53 -48 65 -43 13
5 15 9 6 18 -14 14 -16 42 -3 33 5 -3 12 -1 16 5 3 5 19 10 36 10 43 0 107
-62 115 -111 7 -43 79 -123 114 -125 11 -1 26 -7 34 -13 27 -23 117 -161 119
-184 2 -12 8 -32 16 -45 10 -20 10 -29 -3 -57 -9 -18 -16 -38 -16 -43 0 -6 -9
-14 -20 -17 -11 -4 -18 -11 -15 -16 4 -5 18 2 32 15 23 21 42 25 96 17 4 -1 7
-8 7 -17 0 -9 6 -14 13 -11 17 6 30 -2 45 -28 10 -17 11 -18 12 -2 0 20 11 22
28 5 6 -6 15 -8 19 -4 4 4 0 12 -10 17 -9 6 -17 18 -17 27 0 9 -9 23 -21 30
-13 8 -19 20 -16 32 3 12 -4 22 -19 31 -13 7 -24 18 -24 25 0 6 -12 15 -27 19
-37 9 -95 75 -65 75 4 0 32 -15 62 -33 36 -22 56 -41 58 -56 3 -18 8 -21 30
-16 23 5 27 2 28 -17 2 -36 38 -103 54 -102 8 1 23 5 33 9 13 6 17 2 17 -17 0
-34 -10 -41 -32 -21 -24 21 -35 9 -19 -21 8 -13 11 -29 7 -34 -10 -17 5 -42
25 -42 10 0 19 -4 19 -10 0 -5 -6 -10 -12 -10 -7 0 6 -18 30 -40 35 -33 47
-38 72 -33 22 4 30 2 30 -9 0 -8 9 -23 20 -33 11 -10 25 -35 30 -57 6 -21 17
-38 24 -38 16 0 49 -67 36 -75 -15 -9 -12 -20 11 -46 l21 -24 -5 23 c-4 14 0
22 9 22 8 0 14 7 14 16 0 12 7 14 33 8 47 -10 82 -7 114 9 25 14 30 13 54 -3
28 -21 56 -21 69 0 7 11 14 12 34 2 16 -7 26 -8 26 -2 0 14 21 12 54 -5 40
-21 53 -19 69 11 12 23 15 24 26 10 8 -9 21 -16 30 -16 11 0 5 9 -16 26 -18
14 -33 31 -33 37 0 7 -21 25 -47 41 -60 39 -95 78 -109 123 -9 31 -15 36 -44
38 -26 2 -44 14 -79 54 -45 50 -47 51 -69 35 -19 -13 -28 -14 -53 -4 -23 10
-32 10 -44 0 -13 -10 -19 -9 -36 6 -20 18 -22 18 -34 1 -14 -20 -75 -23 -93
-5 -9 9 -12 9 -12 -3 0 -31 -32 -47 -79 -40 -33 4 -46 12 -52 28 -10 27 14 51
34 34 8 -6 16 -9 18 -6 3 2 25 5 51 6 36 2 45 6 40 18 -4 10 -1 13 11 8 14 -5
17 0 17 31 0 25 7 43 20 55 19 16 25 35 20 66 -1 13 1 13 14 2 14 -11 16 -11
18 5 0 11 1 27 0 36 -3 27 21 17 44 -20 29 -45 114 -108 157 -116 44 -8 55
-40 27 -77 -18 -26 -18 -28 -1 -43 10 -9 21 -13 24 -10 4 4 13 2 20 -4 8 -7
17 -9 20 -6 3 3 16 -3 28 -15 21 -19 24 -20 40 -5 10 9 15 23 12 32 -5 11 -2
14 9 10 11 -5 14 -1 10 18 -4 23 -3 23 26 13 20 -7 37 -7 48 -1 16 9 15 12
-12 37 -17 16 -28 35 -26 46 2 13 -3 19 -17 19 -11 0 -36 16 -56 35 -21 21
-35 30 -35 21 0 -21 -37 -8 -43 15 -3 10 -1 21 3 24 10 6 -10 66 -26 80 -7 6
-15 21 -19 33 -6 22 -5 23 14 12 24 -13 45 -4 37 15 -3 8 -1 15 4 17 5 2 12
15 15 31 6 21 4 27 -9 27 -9 0 -16 -7 -16 -16 0 -13 -7 -15 -34 -11 -21 3 -36
1 -38 -5 -4 -11 -38 17 -38 30 0 4 14 13 32 21 24 11 33 11 36 3 5 -17 29 -15
36 4 3 9 11 12 18 8 8 -5 9 -2 5 9 -3 10 -2 17 4 17 6 0 4 7 -5 15 -8 8 -26
15 -40 15 -14 0 -26 5 -26 11 0 22 -44 48 -72 42 -21 -4 -28 -2 -28 10 0 11
-13 18 -37 22 -21 4 -47 10 -59 15 -12 4 -27 4 -35 -1 -24 -15 -36 -10 -71 27
-18 20 -59 53 -91 75 l-59 39 -29 -21 c-16 -11 -29 -23 -29 -27 -1 -26 -18
-32 -50 -18 -30 12 -36 12 -45 -1 -8 -11 -16 -12 -39 -4 -15 6 -32 9 -37 5 -5
-3 -9 0 -9 5 0 6 -17 18 -37 28 -21 9 -41 18 -44 20 -4 2 -9 -6 -12 -17 -4
-17 -9 -20 -24 -12 -10 5 -23 8 -28 5 -12 -4 -55 33 -55 46 0 5 -18 11 -39 15
-42 6 -58 28 -35 46 19 16 18 88 -2 135 -10 25 -11 34 -3 29 9 -5 11 5 6 41
-4 26 -7 54 -7 61 0 8 -8 14 -17 14 -20 0 -52 48 -45 68 2 6 10 12 18 12 8 0
11 6 8 15 -5 11 -2 13 11 9 13 -5 16 -2 13 12 -2 11 -11 18 -20 16 -27 -4 -58
46 -58 92 0 23 5 47 10 52 11 11 3 44 -10 44 -5 0 -9 -8 -10 -17z m675 -1213
c3 -5 -1 -10 -9 -10 -9 0 -16 5 -16 10 0 6 4 10 9 10 6 0 13 -4 16 -10z m75
-250 c0 -5 -2 -10 -4 -10 -3 0 -8 5 -11 10 -3 6 -1 10 4 10 6 0 11 -4 11 -10z"/>
<path d="M12235 7780 c3 -5 8 -10 11 -10 2 0 4 5 4 10 0 6 -5 10 -11 10 -5 0
-7 -4 -4 -10z"/>
<path d="M12210 7764 c0 -9 40 -23 44 -15 3 5 -5 11 -19 13 -14 3 -25 4 -25 2z"/>
<path d="M12205 7730 c3 -5 -5 -21 -19 -35 -19 -19 -26 -39 -31 -90 -4 -36
-12 -65 -17 -65 -7 0 -6 -5 1 -13 13 -16 5 -27 -21 -27 -25 0 -51 -26 -42 -41
3 -6 1 -15 -6 -19 -18 -11 -2 -50 21 -50 11 0 28 -5 39 -12 15 -10 24 -9 45 2
26 14 29 13 51 -13 25 -29 32 -57 14 -57 -5 0 -10 -8 -10 -18 0 -25 -51 -72
-78 -72 -19 0 -21 -4 -16 -25 4 -16 2 -25 -5 -25 -8 0 -6 -10 4 -30 9 -16 13
-30 10 -30 -3 0 1 -13 10 -30 9 -16 13 -30 10 -30 -3 0 -1 -9 5 -20 13 -24 66
-29 56 -5 -10 26 22 17 50 -14 14 -17 32 -27 40 -24 8 3 14 0 14 -6 0 -7 7
-11 16 -9 20 4 29 -35 14 -62 -7 -13 -6 -21 6 -31 9 -8 11 -16 5 -22 -5 -5 -7
-16 -4 -23 3 -8 0 -21 -7 -29 -7 -8 -10 -22 -6 -30 3 -9 2 -13 -4 -10 -5 3
-23 -3 -40 -14 l-31 -19 27 -6 c15 -4 64 -9 110 -12 68 -3 85 -1 92 12 8 14
14 14 49 4 25 -8 46 -22 54 -36 7 -13 20 -24 30 -24 9 0 29 -14 44 -31 21 -26
25 -40 23 -80 -2 -27 -8 -51 -15 -54 -7 -2 -13 -13 -13 -24 0 -11 -4 -23 -10
-26 -16 -10 -12 -19 20 -56 21 -23 27 -35 18 -38 -22 -6 -98 -91 -98 -110 0
-9 9 -27 21 -40 l21 -22 21 27 c21 27 32 94 15 94 -4 0 -8 7 -8 17 0 9 3 13 7
10 3 -4 13 -1 22 7 21 19 77 30 85 17 4 -6 4 -22 0 -36 -6 -23 -10 -26 -33
-20 l-26 6 25 -23 c15 -14 38 -23 60 -24 19 -1 51 -5 71 -9 32 -6 44 -3 88 26
38 25 51 40 51 58 l0 23 34 -26 c19 -14 37 -22 40 -17 3 5 15 7 26 4 11 -3 28
1 37 8 13 11 17 11 20 1 3 -6 9 -9 14 -6 17 10 59 -5 59 -21 0 -8 4 -15 9 -15
19 0 19 -44 0 -71 -10 -15 -19 -34 -19 -43 0 -31 25 -111 38 -121 11 -9 9 -14
-7 -29 -11 -10 -18 -23 -14 -29 4 -6 6 -30 4 -53 -1 -23 3 -45 9 -49 5 -3 10
-16 10 -29 0 -12 5 -27 11 -33 13 -13 3 -53 -13 -53 -7 0 -2 -11 11 -23 l22
-24 -41 -44 c-49 -53 -74 -95 -74 -129 -1 -20 3 -24 21 -22 12 2 24 -2 28 -8
5 -8 13 -6 26 6 11 9 22 14 25 11 4 -3 13 0 20 8 8 7 22 11 32 8 10 -2 26 5
36 16 22 24 53 27 75 7 23 -21 98 -10 106 15 5 15 10 16 33 8 15 -6 34 -16 42
-24 8 -7 47 -16 85 -20 39 -4 87 -14 109 -21 49 -18 90 -18 105 0 9 11 18 11
49 1 21 -8 38 -9 40 -4 5 14 35 11 59 -6 16 -11 51 -16 120 -18 92 -2 98 -1
98 18 0 22 41 45 80 45 16 0 28 -13 48 -53 29 -56 33 -77 16 -77 -6 0 -9 -6
-6 -12 2 -7 -5 -31 -15 -52 -19 -37 -19 -41 -4 -74 12 -25 20 -32 28 -24 8 8
15 6 26 -4 10 -11 18 -12 25 -5 17 17 51 13 64 -8 7 -11 30 -29 52 -42 23 -12
43 -31 47 -41 15 -47 47 7 33 57 -6 21 -5 31 4 36 19 11 13 53 -11 84 -14 17
-20 36 -17 47 5 12 1 18 -10 18 -23 0 -48 27 -34 35 6 4 8 18 4 32 -7 29 24
113 42 113 8 0 10 21 6 73 -6 75 -16 105 -58 172 -27 42 -45 81 -45 94 0 5
-25 12 -55 16 -44 5 -59 12 -77 35 -24 30 -98 53 -98 31 0 -6 -9 -11 -21 -11
-15 0 -19 -5 -15 -15 10 -28 -30 -16 -42 13 l-11 27 2 -35 c2 -29 -2 -36 -20
-38 -18 -3 -26 5 -39 37 -9 23 -19 39 -23 37 -17 -11 -34 15 -38 57 -5 37 -12
50 -47 79 -22 19 -49 37 -59 41 -10 4 -25 24 -33 44 -9 21 -23 42 -31 49 -9 6
-14 17 -11 25 3 8 -1 27 -9 42 -10 20 -11 32 -4 41 7 9 3 20 -15 39 -14 15
-29 27 -35 27 -6 0 -8 4 -5 9 8 12 -51 61 -73 61 -10 0 -26 10 -37 21 -10 12
-34 28 -52 36 -31 13 -35 12 -47 -3 -11 -16 -16 -15 -64 19 -52 38 -138 77
-168 77 -9 0 -24 6 -32 14 -9 8 -34 21 -56 28 -34 12 -44 11 -69 0 -23 -12
-38 -12 -87 -1 -32 7 -59 17 -59 22 0 5 -15 7 -34 6 -19 -2 -41 3 -51 11 -14
12 -18 12 -26 -1 -5 -8 -9 -17 -9 -21 0 -10 -50 -23 -75 -19 -11 2 -26 8 -33
14 -23 19 -122 6 -122 -15 0 -16 -32 -37 -56 -38 -11 0 -25 -5 -32 -12 -13
-13 -42 5 -42 27 0 8 -6 15 -12 18 -10 3 -10 7 0 19 10 13 10 17 0 21 -9 3 -6
12 11 30 15 17 22 33 18 47 -3 12 1 23 10 29 9 4 13 13 10 18 -12 19 -76 44
-114 45 -21 0 -43 4 -48 9 -6 4 -22 12 -37 18 -23 8 -25 7 -21 -9 5 -17 -39
-71 -56 -70 -3 1 -22 14 -41 31 l-35 30 58 -7 c57 -7 57 -7 57 20 0 20 4 26
18 24 13 -2 16 3 14 20 -4 28 23 30 40 3 9 -15 16 -17 31 -9 10 5 28 8 38 5
10 -3 19 -1 19 4 0 18 -42 89 -53 89 -8 0 -7 4 1 12 8 8 15 8 26 -1 12 -10 14
-9 9 8 -4 17 -8 19 -26 9 -17 -8 -22 -8 -25 3 -3 8 -22 31 -44 51 -35 34 -37
40 -26 59 10 17 10 23 1 26 -14 5 -48 111 -39 120 3 4 0 13 -6 21 -10 11 -9
17 4 26 11 8 18 31 21 63 4 46 2 51 -15 48 -12 -3 -23 4 -30 20 -7 16 -19 25
-35 25 -16 0 -23 6 -23 20 0 14 -7 20 -21 20 -11 0 -43 23 -71 50 -28 28 -59
50 -70 50 -11 0 -16 -4 -13 -10z m155 -427 c0 -8 11 -30 25 -50 27 -41 25 -53
-10 -53 -20 0 -25 6 -31 38 -4 20 -10 42 -14 47 -4 6 -10 23 -14 38 -7 28 -7
28 19 11 14 -9 25 -23 25 -31z m1935 -1333 c3 -5 1 -10 -4 -10 -6 0 -11 5 -11
10 0 6 2 10 4 10 3 0 8 -4 11 -10z m288 -86 c11 -11 -3 -24 -18 -18 -8 4 -12
10 -9 15 6 11 18 12 27 3z"/>
<path d="M12654 7088 c9 -12 16 -37 16 -55 0 -30 -2 -33 -25 -29 -14 3 -23 1
-20 -5 4 -5 2 -9 -3 -9 -6 0 -13 -7 -16 -16 -5 -13 -1 -15 21 -9 15 3 31 12
35 18 6 9 8 9 8 -1 0 -8 11 -3 26 12 l27 24 -33 46 c-19 25 -37 46 -42 46 -5
0 -2 -10 6 -22z"/>
<path d="M12560 6980 c0 -5 7 -10 16 -10 8 0 12 5 9 10 -3 6 -10 10 -16 10 -5
0 -9 -4 -9 -10z"/>
<path d="M12421 6361 c14 -11 26 -15 28 -9 4 12 -17 28 -38 28 -8 0 -3 -8 10
-19z"/>
<path d="M12465 6330 c-3 -5 -1 -10 4 -10 6 0 11 5 11 10 0 6 -2 10 -4 10 -3
0 -8 -4 -11 -10z"/>
<path d="M12527 6280 c29 -44 63 -58 42 -17 -17 33 -40 57 -55 57 -8 0 -3 -14
13 -40z"/>
<path d="M11740 6299 c0 -8 -14 -10 -42 -6 -24 3 -37 4 -30 1 6 -3 12 -12 12
-19 0 -8 9 -19 19 -25 23 -12 41 -13 40 -2 -4 23 2 42 12 37 6 -4 8 -13 5 -21
-6 -16 10 -19 19 -4 3 5 -3 18 -15 30 -11 11 -20 15 -20 9z"/>
<path d="M11797 6260 c-3 -11 -2 -22 3 -25 4 -3 10 6 12 20 6 30 -7 34 -15 5z"/>
<path d="M11833 6195 c0 -8 4 -12 9 -9 4 3 8 9 8 15 0 5 -4 9 -8 9 -5 0 -9 -7
-9 -15z"/>
<path d="M12957 5559 c7 -7 15 -10 18 -7 3 3 -2 9 -12 12 -14 6 -15 5 -6 -5z"/>
<path d="M12877 5534 c-9 -9 4 -34 18 -34 7 0 15 9 18 20 4 14 0 20 -12 20
-10 0 -20 -3 -24 -6z"/>
<path d="M12965 5520 l-20 -9 20 0 c11 0 27 4 35 9 13 9 13 10 0 9 -8 0 -24
-4 -35 -9z"/>
<path d="M13110 5520 c0 -5 5 -10 11 -10 5 0 7 5 4 10 -3 6 -8 10 -11 10 -2 0
-4 -4 -4 -10z"/>
<path d="M13020 5509 c0 -5 5 -7 10 -4 6 3 10 8 10 11 0 2 -4 4 -10 4 -5 0
-10 -5 -10 -11z"/>
<path d="M14711 5115 c0 -14 28 -50 34 -43 3 3 -3 16 -14 29 -11 13 -20 20
-20 14z"/>
</g>
</svg>
