<svg version="1" xmlns="http://www.w3.org/2000/svg" width="986.844" height="941.088" viewBox="0 0 740.133 705.816"><g fill="#222"><path d="M339.148 1.616c-1.6 1-2.8 2.4-2.8 3.2 0 .8-1.2 2.5-2.7 3.7-2.5 2.2-2.6 2.5-1.5 7.6.7 2.8 1.3 5.9 1.4 6.8.3 1.4-5.2 7.6-7 7.9-1 .2-.3 3 1.5 5.7.9 1.4 1.7 4.5 1.8 7.1.2 6.1 1 7.8 4.5 9.2 1.5.6 3.1 2.1 3.3 3.2.5 1.7 1.1 2 3.6 1.5 4.8-1 6.2-.1 4.8 3.1-.6 1.5-1.7 3.4-2.3 4.2-.9 1-1 2.1-.4 3 .8 1.3 1 1.2 1-.3 0-3.3 2.9-1 3.5 2.8.5 2.7 3.7 8.7 5 9.2.9.3 1.4 1 1.3 1.7-.1.6.2 2.1.6 3.4.5 1.4.3 2.9-.5 3.8-1 1.2-.8 1.7.7 2.9 1.7 1.3 1.8 1.4.2 1.5-1 0-1.8.7-1.8 1.5 0 .9-.9 1.5-2.3 1.5-2.8 0-4.7 1.7-4.7 4.2 0 1.6-.3 1.7-2.2.7-1.8-1-2-.9-1.5.5.7 1.9-.4 2.1-2.1.4-.9-.9-1.7-.7-3.3 1.1-1.2 1.3-2.8 2-3.6 1.7-1.1-.5-1.3-.2-.8 1.1.4 1 1 2.8 1.2 4 .5 2.2 2.3 3.3 2.3 1.4 0-.5.9-1.1 2.1-1.4 1.5-.4 2.3 0 2.6 1.4.3 1.1 1.4 1.9 2.7 1.9 1.2 0 2.7.9 3.4 2.1 1.2 1.8.9 2.5-2 5.9-1.8 2.1-3.8 3.9-4.5 3.9-.7.1-1.7 1-2.4 2.2-.8 1.5-1.8 2-3.5 1.6-2-.4-2.3-.1-1.9 1.4.4 1.3.1 1.9-.9 1.9-2.3 0-2.2-6.8.1-7.7.9-.4 1.9-.1 2.1.5.7 2.2 1.8 1.2 1.6-1.5-.1-3.4-1.8-4-3.7-1.3-.8 1.2-2.3 2-3.3 1.8-1.7-.3-1.7-.4.1-2.1 1.8-1.8 1.8-1.9-.6-1.5-2.5.4-2.6.7-1.4 4.7.6 2 .4 2.3-.9 1.8-1.2-.5-1.6 0-1.6 2.3 0 3.1-2.2 5-5.9 5-1.2 0-2.1.7-2.1 1.5s-.5 1.5-1 1.5c-1.2 0-3.4 4.9-3.1 6.8.1.7-.4 1.1-1 1-1.7-.4-3.1 6.4-1.6 7.4.9.5.9 1-.1 1.8-.6.5-1 .7-.7.4.3-.4-.3-1.3-1.3-2-.9-.7-1.7-1.8-1.7-2.6 0-.7-.6-1.3-1.2-1.2-3.9.3-4.2.5-3.6 2 .5 1.4.3 1.5-1.5.5-1.5-.8-2.1-.8-2.4.1-.3.9-3.5 1.6-16.3 3.2-1.1.2-2.3-.2-2.7-.8-.5-.7-.8-.6-.8.3 0 1-.3 1.1-1.4.2-1.6-1.4-13.6-.4-13.6 1 0 .5-1.1.9-2.4.9-1.3 0-2.9.7-3.7 1.6-.7.8-2.1 1.3-3.1 1.1-1.4-.4-1.8.1-1.8 1.8 0 1.3-.7 3.1-1.6 3.9-1.8 1.8-1 5.4 1.5 7.3 1.4 1 1.3 1.3-.9 2.1-1.7.6-2.7.6-3.2-.2-.5-.7-.8-.5-.8.6 0 1.2-.8 1.8-2.4 1.8-1.6 0-2.7.7-3.1 2-.5 1.6-1.5 2-5.3 2-5.1 0-9.4-2.2-8.6-4.4.3-.7-.2-1.6-1-1.9-.9-.4-1.6-.2-1.6.3 0 .6.5 1 1.1 1 .6 0-.1 1.4-1.6 3.1-1.4 1.8-2.4 3.8-2.1 4.5.5 1.3-1.7 1.9-5.1 1.5-.7-.1-1.3.3-1.3.8s-.8 1.2-1.8 1.5c-1.6.5-1.8 1.5-1.4 6.6.7 9.1-1.1 10.3-10.8 7-1.9-.7-5-1.9-6.9-2.7-2.7-1.2-3.9-1.3-5.3-.4-1 .6-2.3.9-2.8.6-1.8-1.1-7.9.7-8.2 2.4-.3 1.1-1.3.2-3.3-2.9-2.9-4.5-3.4-6.1-3.8-13.2-.2-2-.6-4-1-4.4-1.3-1.3-.8-6.4.6-5.9.8.4 1.1-.7 1-3.7-.4-8.7-1.4-10.5-5.3-9.3-1.2.4-2 .2-2-.5 0-.6.5-.8 1.1-.4.8.4 1-.6.6-3.4-.2-2.2 0-4.5.6-5.1.6-.6-.7-1.2-3.8-1.7-5-.7-7.4.8-5.4 3.3.8.9.4 1.9-1.6 3.7-1.6 1.5-2.2 2.7-1.5 3.1.6.4 1 2.1.9 3.8 0 1.8.3 4.9.7 7 .6 3.4.5 3.9-1.2 3.7-2.5-.3-6.4 1-6.4 2.1 0 .5.4.9.9.9s1.5 1.6 2.1 3.6c.7 2 2.2 4 3.6 4.6 3.4 1.6 3 3.2-.6 2.4-2.7-.5-3-.3-3 1.8 0 1.3.6 2.6 1.3 2.9 1.4.5 1.1 8.7-.3 8.7-.4 0-1 1-1.3 2.2-.4 1.3-2.2 3.2-4.2 4.2-2.4 1.3-3.5 2.6-3.5 4.2 0 1.3-.7 2.7-1.6 3.2-1.4.8-1.4 1 0 2.1 2.4 2 2 5-.8 5.7-1.4.3-2.7 1.2-3 2-.7 1.9-5.4 1.8-7.3-.2-1.1-1-1.9-1.2-2.6-.5-.7.7-1.6.7-3-.1-1.7-.9-1.9-.8-1.4.6.4 1.1.1 1.6-1.1 1.6-.9 0-2.3.9-2.9 1.9-.7 1.1-4.3 2.9-8.3 4.2-5.8 1.9-7.5 2.1-9 1.1-1.5-.9-2.5-.9-4.5 0-2.2 1-2.3 1.4-1.2 2.7.7.9 1.3 2.5 1.3 3.6-.1 2.4-6.7 4.1-9.7 2.5-1.6-.9-1.9-.7-1.9 1 0 1.1-.4 2-.9 2s-.7.9-.4 2c.7 2.5-4.9 8-8.1 8-1.2 0-2.9.9-3.9 2-1.9 2.3-2.2 4-.6 4 .5 0 .8.4.4 1-.3.5-1.2.7-1.9.4-.9-.3-1.5.5-1.9 2.5-.5 2.4-1.3 3.2-3.9 3.9-3 .7-3.3 1.2-3.5 4.8-.3 7.5-1.8 11.6-6.3 16.9-3.2 3.8-5.5 5.6-7.9 6.1-2.2.4-3.9 1.6-5 3.5-.9 1.6-2.1 2.9-2.7 2.9-1.4 0-2.8 4.6-1.9 6.1 1.2 1.8-.5 4.8-2.2 4.2-1.3-.5-1.1.1.7 2.6 1.8 2.6 2.1 3.7 1.3 5-.7 1.1-.7 2.4-.2 3.3.6 1.1.4 1.8-.6 2.2-2.6.9 1.3 7.3 4.9 8 1.6.3 2.6.9 2.3 1.2-.3.4-.2 1.5.4 2.6.8 1.5.7 2.4-.5 3.7-.9 1-1.8 3.2-1.9 5-.1 1.7-.8 3.1-1.4 3.1-.7 0-1.3.4-1.3 1 0 .5.6 1 1.4 1 .9 0 1.2.7.9 2-.3 1.1-1.3 2-2.3 2-1.4 0-1.7.7-1.4 4.3.4 4.4-.3 5.2-5.9 7.3-1.2.4-1.7 1.3-1.3 2.6.2 1.1.1 3-.4 4.2-1.2 3.3 1 11.8 3.2 12.4 1 .2 1.8 1.1 1.8 1.8 0 1.5-2 5.5-3.2 6.4-.4.3-.3 2.3.2 4.5.5 2.1.7 4.2.4 4.7-.8 1.3 1.8 8.7 3.8 10.4 1 1 1.8 2.5 1.8 3.5s.5 2.1 1.1 2.5c.6.3.9 2 .6 3.8-.8 5.5 3.7 12 5.9 8.5 1-1.7 4.4 3 4.3 6.1 0 1.4-.5 3.8-1.2 5.3l-1.2 2.8-2.2-2.1c-1.8-1.6-2.3-1.8-2.3-.5 0 .8.7 1.5 1.5 1.5 2.4 0 1.7 3.8-1 5.6-1.6 1.1-2.9 3.3-3.6 6-.6 2.5-1.5 4.7-2 5-1 .6.1 2.2 5.2 7.4 3.7 3.8 5.4 7.6 3.7 8.6-.5.3-.1 1.2.9 1.9 1.4 1.1 1.5 1.6.6 2.6-.8.8-.9 1.8-.2 3 .8 1.5.6 1.7-.8 1.2-2.6-.9-4.3-2.4-3.8-3.3.3-.4-.2-2-.9-3.6-1.6-3-10-7.6-12.2-6.7-.8.3-2.2-.1-3.1-.8-1.2-1-1.5-1-.9-.2 1.2 2.1-1.9 1.5-3.8-.6-1.7-1.8-1.7-1.9.1-2.3 1.6-.3 1.6-.5-.6-2.7-1.6-1.6-2.4-3.5-2.3-5.5.3-5.8.1-11-.3-11.4-.2-.2-2.1.8-4.2 2.2-2 1.4-4.3 2.6-5 2.6-.7 0-1.3 1.1-1.3 2.5 0 2-1.2 3.2-5.1 5.7-4.5 2.7-5 3.3-3.5 4.3.9.7 1.6 2.2 1.6 3.3 0 1.6.5 2.1 2.2 1.9 1.5-.1 2.3.4 2.6 1.6.2 1.1 1.3 2.8 2.4 3.9 1.8 1.8 1.9 2.3.7 3.2-2 1.6-2.2 4.1-.4 5.6.8.7 1.5 2.8 1.5 4.6 0 3.2.2 3.4 3.3 3.4 2 0 2.7.3 1.9.8-.9.7-.8 1.3.8 2.7 1.8 1.6 2 1.6 2 .2 0-2.1 2.3-2.2 4-.2.6.8 1.5 1.4 1.8 1.3.4-.1 2.2.6 3.9 1.5 4.5 2.4 6.6 5.8 5.7 9.2-.6 2.5-.5 2.7 1.4 2.3 1.4-.4 3.1.4 5.4 2.6 6.3 6.2 7.9 8.7 7.1 11-.4 1.1-.7 3.8-.6 5.8 0 2.1-.3 3.8-.8 3.8s-.9 1.3-.9 2.9c0 2.1-.6 3-2.2 3.5-3.8 1-7 .7-8.2-.8-.6-.8-2.4-1.8-4-2.2l-2.9-.7 3.2 4.1c2.9 3.6 3.6 3.9 5.6 3 1.6-.7 2.9-.7 4.3.1 1.6.8 2.1.7 2.6-.5.5-1.4.8-1.4 2.1 0 .8.8 1.5 2 1.5 2.6 0 .6.4.9.9.6 1.5-1 4 .5 3.5 1.9-.4.9.8 1.5 3.8 2 2.9.5 5.3 1.8 7.5 4 1.8 1.8 3.8 3.3 4.5 3.2 3.7-.1 5.8.4 5.8 1.5 0 3.2 2.2 8.8 3.4 8.8.8 0 2.8 1.6 4.6 3.6 1.7 2 3.4 3.3 3.7 3 .3-.3 1.2-.1 1.9.5.9.7 1.4.4 1.9-1.1.4-1.3 1.2-1.9 2.1-1.6.9.3 1.2.1.9-.4-.7-1.1 1.6-7 2.6-7 .4 0 1.2 1.3 1.9 3 .8 1.9 2 3 3.2 3 2.4 0 4.8-2.3 4.8-4.5 0-2.1 3.5-1.6 3.5.5.1 1.8 1.3 4 2.4 4 .9 0 4.4-7.5 6.9-14.7 1.3-3.8 2.2-4.9 2.9-4.2 1.4 1.4 3.3.3 3.3-2 0-2.9 6.8-7.5 9.5-6.5 1.1.4 1.4.2.9-.9-.6-1.6 8.5-11.7 10.5-11.7.8 0 .9-.6.1-1.9-.8-1.6-.5-2.3 1.6-4 1.5-1.2 2.9-2.1 3.3-2.1.7 0 .6-9.4-.2-10.7-.3-.5.8-1.8 2.4-2.8 1.7-1.2 2.9-2.9 2.9-4.2 0-2.9 7.7-9.5 10.2-8.7 1.6.5 1.8.2 1.3-1.9-.8-2.9 1.6-4.3 4.6-2.6 2.7 1.4 4.9-.4 4.9-4 0-4.7 1.4-5.4 4-1.9 1.3 1.8 2.3 4 2.3 4.9-.1 1 1 2.2 2.7 2.9 2 .8 2.6 1.7 2.3 3-.3 1 0 2.8.7 4 .9 1.7 1.4 1.9 2.6 1 .7-.7 2.1-1 2.9-.6.9.3 1.5 0 1.5-.9s1-1.5 2.6-1.5c3.3 0 6.4-1.7 6.4-3.5 0-.9.6-1.2 1.5-.9.8.4 1.5.1 1.5-.4 0-.6-.9-1.4-2-1.7-1.1-.3-2-1.4-2-2.3 0-.9-.3-2.8-.7-4.1-.4-1.6-.2-2.2.4-1.8.6.4 1.6 0 2.3-.8.7-.8 1.6-1.3 2-1 1.2.8 2.1-2.4 1.4-5.2l-.7-2.5 3.3 1.7c2.6 1.3 3.8 1.5 5.6.6 1.3-.6 2.4-1.7 2.4-2.5 0-1 2-1.9 5.8-2.7 3.1-.7 6-1.8 6.4-2.4.5-.8 2.5-1 5.6-.7 3.4.3 6-.1 8.6-1.3 3.4-1.6 3.8-1.6 5.4-.1 1.6 1.3 2.3 1.4 5.1.3 3-1.1 3.5-1 4.5.8.6 1.1 3.6 4.6 6.8 7.9 4.3 4.7 5.9 5.8 7 4.9.7-.6 4.7-1 9.6-.8 6.1.2 8.2-.1 8.2-1 0-2.2 2.3-2.3 6-.2 5.2 2.9 7.6 4.7 6.2 4.7-.6 0-1.2.4-1.2 1 0 .5 1.3 1 2.8 1 2.2 0 3-.7 4-3.3.8-2.1 1.5-2.8 2-2 1.4 2.3 9.9 6.2 11 5.1.7-.7 1.7-.3 3.1 1.1 1.2 1.2 2.7 2.1 3.4 2.1 2.8 0 5.7 4.5 5.7 8.8 0 6.4 1.5 8.5 8.1 11.4 3.2 1.5 6.1 3.2 6.3 4 .2.7 1 3.5 1.8 6.2.7 2.7 1.9 5.1 2.6 5.3 2.3 1 4.9 7.6 4.5 11.5-.4 2.7 0 4.1 1.5 5.6 2.7 2.7 4.4 1.3 4.6-3.6 0-3.3.4-3.9 1.8-3.7 2.1.4 2.6-3 .6-3.8-.7-.3-.1-.6 1.3-.6 3-.1 4.6 2.4 2.8 4.5-.8 1-.8 1.4 0 1.4.6 0 1.1-.5 1.1-1.1 0-.6.9-.8 2-.4 1.4.4 2 .2 1.8-.7-.2-.9.9-1.3 3.7-1.4 3.7-.1 4-.3 3.8-2.7-.1-2.1.3-2.7 1.8-2.7 1 0 1.9-.4 1.9-1 0-.5 1.1-1.2 2.4-1.6 1.3-.3 2.6-1.4 2.9-2.5.5-1.8 3.5-2.5 8.9-2.1.9.1 2.2-.5 2.8-1.3 1-1.2 1.6-1.3 2.6-.4 1.1.9 1.4.8 1.4-.2 0-.8 1-1.4 2.5-1.4 1.9 0 2.5.5 2.5 2.1 0 1.7.8 2.3 3.5 2.8 2.9.6 3.4 1 2.6 2.4-1.6 2.9 1.2 5.5 6 5.5 3.4 0 4.6-.6 7-3.4 1.6-1.9 2.9-4.1 2.9-5 0-2.3 2.7-3.2 3.4-1.2.6 1.4.9 1.4 2.9-.3 4.8-4.1 6.6-4.7 9.4-2.9 1.9 1.3 3.8 1.6 7.7 1.1 3.9-.5 5.9-.2 8.6 1.2 1.9 1 5.1 1.9 7 2 1.9.1 4.8.8 6.4 1.4 2.3.9 3.1.9 3.4 0 .2-.7 1.6-1.2 3.2-1.2s3-.5 3.2-1.2c.3-.7 1.1-.9 2.4-.3 1 .4 2.3.7 2.8.6.5-.1 1.8.7 3 1.8 1.1 1 3.8 2.6 5.9 3.5 2 .8 3.7 1.9 3.7 2.5 0 .5.6 1.6 1.4 2.3.7.8 2.1 2.8 3 4.6.9 1.8 2.1 3.2 2.7 3.2.8 0 .8.4 0 1.4-.9 1.1-.2 2.1 3.3 4.9 4.2 3.5 6.9 8.1 4 7-.8-.3-1.6.5-2 2.4-.4 1.5-1.1 3.1-1.6 3.4-.4.3.1 1.5 1.3 2.8 2.1 2.2 2.1 2.2 4.3.4 1.1-1.1 3.3-2.7 4.8-3.6 1.4-.9 2.9-2.6 3.3-3.7.3-1.1 1.1-2 1.6-2 .6 0 2.6-1.5 4.5-3.4 3.1-3 4-3.3 7.4-2.9 6.3.9 10.3-.3 12.2-3.7 1.1-2 2.2-2.8 3.3-2.4.8.4 2.2.1 3-.6.8-.7 2.7-1 4.1-.7 3.2.6 6.7-2.8 5.8-5.6-.5-1.6-.3-1.9 1.2-1.3 1.5.6 1.7.5.7-.5-3.5-3.5.6-5.3 5.2-2.3 1.4.9 2.5 1.2 2.5.8 0-.5.7-.1 1.4.9 1.1 1.5 1.9 1.6 3.4.8 1.1-.6 2.2-.8 2.5-.5.3.4 1.8-.3 3.3-1.5 2.3-1.8 2.9-1.9 3.6-.7.5.8 1.6 1.2 2.9.9 1.6-.4 1.9-1.1 1.5-2.9-.5-1.9.2-3.2 2.9-5.8 2-1.9 3.3-4 3-4.8-.3-.8-.1-2.5.4-3.9l1-2.4v2.5c.1 1.7 2.1 4.4 6.3 8.4 5.2 5 6.2 6.6 6.5 10 .3 2.3.6 4.3.9 4.5.5.6 3.7 1.1 8.2 1.5 3.1.3 7.7 3.8 6.5 4.9-.3.3.2 1.6 1.1 2.9 1.8 2.5 2.2 1.7.6-1.2-1.2-2.2.6-3.8 2.3-2.1.6.6 2.8 1.1 4.8 1.1 3.6 0 6.6 2 5.1 3.5-.4.4 2.1.5 5.5.2 5.8-.5 6.2-.4 6.7 1.9.8 3.1 1.8 3 8.4-.8 4.2-2.4 6.6-3.1 10.1-2.9 2.5.1 5 .6 5.5 1.1.6.6 1.8 1 2.8 1 1.4 0 1.8-.8 1.8-3.4 0-1.9.5-3.8 1-4.1.6-.4.8-1.1.5-1.6-.8-1.1 2-4.1 2.9-3.1.4.3.4-.2 0-1.1-.8-2.2 2.1-5.7 4.7-5.7 1 0 2.3-.9 2.9-2 .6-1.1 1.7-2 2.5-2 1.1 0 1.2-.7.5-3.1-.8-2.6-.6-3.2.9-3.6 2.2-.6 7.5-6.8 8.5-10 .4-1.2 1.5-2.5 2.5-2.8 3-.9 7.1-6.1 5.8-7.4-.8-.8-.6-1.1.7-1.1.9 0 1.4-.5 1.1-1-.4-.6-.1-1.7.5-2.5.7-.9.8-1.5.2-1.5-.5 0-1.2-1.2-1.5-2.6-.3-1.9-.1-2.4 1-2 .8.3 2.2-.1 3.1-1 1.5-1.5 1.8-1.4 4.8 2.1l3.2 3.8.7-4.2c.6-3.7.4-4.7-1.6-6.9-4.8-5.4-5.2-7-2.9-10.8 1.2-1.9 2.6-3.4 3.1-3.4 1.5 0 1-5.7-.6-6.4-.8-.3-1.5-1.7-1.5-3.1 0-1.5-.4-2.4-1-2-1.2.7-11-4.2-11-5.5 0-.6-1.3-1-2.8-1-1.5 0-3.4-.6-4.1-1.2-.9-.9-1.5-.9-1.7-.2-.5 1.3-6.6.5-7.6-1-.4-.6-.5-1.9-.2-2.9.3-1.1 0-1.7-.9-1.7-.8 0-1.8-.7-2.1-1.6-.3-.9-1.2-1.4-1.9-1.1-.8.3-1.9-.4-2.5-1.4-1-1.6-.9-1.9.4-1.9 1.4 0 1.4-.3.4-1.5-.9-1.1-1.6-1.3-2.4-.5-.5.5-1.9 1-3 1-1.8.1-1.5.6 1.7 3.3 2 1.8 3.7 3.7 3.7 4.4 0 .7.7 1.6 1.6 2.1 1.1.6 1.3 1.1.5 1.6-.6.4-1.8.3-2.7-.2-.9-.5-3.2-.6-5-.2-2 .5-3.4.4-3.7-.3-.2-.6-1.6-.6-4.1.3-3.6 1.1-4 1.1-5.5-.8-1.6-2-8.6-3.8-7.4-1.9.3.6.7 2.7.8 4.8.2 3.1-.1 3.9-1.4 3.9-.9 0-2.2.5-2.9 1.2-.9.9-1.2.9-1.2-.4 0-.8-.9-2.7-2-4-1.6-2.2-2.8-2.6-7.1-2.6-4.1 0-5.6-.5-7.7-2.5-1.5-1.4-4-2.8-5.6-3.1-3.6-.6-4.4-1.5-2.6-2.6 1.1-.7 1.2-1.3.1-3.2-3.2-6.1-5.4-10.4-5.6-11.3-.6-2.8-1.9-4.5-3.4-4.5-1.1 0-2-1.4-2.7-4.5-.6-2.5-.8-4.5-.5-4.5 1.1 0 3-5.2 2.4-6.6-.3-.8.2-2.5 1.1-3.9.9-1.3 1.3-3.1 1-3.9-1-2.6 4.4-2 6.7.6 1.6 2 1.8 2 1.9.5 0-.9-.4-1.7-1-1.7-1.5 0-1.2-5.8.3-6.3 2.3-.8-1.4-3.7-4.8-3.7-3 0-6.5-2.4-6.5-4.5 0-.5-1.1-2-2.4-3.4-2.3-2.4-2.4-2.9-1.4-8 .8-3.8.8-6.2 0-8.5-1.9-5.5-2.4-10.3-1.3-12.5.8-1.4.8-2.1.1-2.1-.5 0-1-.6-1-1.4 0-.7-.7-1.9-1.5-2.6-2.1-1.7-1.9-4.3.5-7 1.1-1.3 1.7-2.6 1.3-2.9-.5-.3-.8-1.2-.9-1.9-.1-.6-.2-1.9-.2-2.8-.1-1.1-.8-1.5-2.1-1.1-1.3.3-1.8 0-1.5-.8.3-.7.1-1.6-.4-1.9-1.8-1.1.3-7 2.8-8.3 3.8-1.9 3.8-9 .1-16.8-3.8-7.9-4.8-12.5-2.7-12.5.9 0 1.6-.6 1.6-1.3 0-.7 1.2-2.5 2.6-4 1.8-1.9 2.4-3.5 2-5-.3-1.1-.1-2.7.5-3.3.7-.9.7-1.9-.1-3.5-.9-1.6-.9-2 0-1.4.9.6.9.3.1-1.3-.6-1.1-1.1-3.1-1.1-4.4 0-1.3-.5-2.9-1.2-3.6-.9-.9-.8-1.2.5-1.2.9 0 1.7.4 1.7 1 0 .5.7 1 1.5 1 2 0 1.9-1.9-.1-4.1-1.7-1.9-.9-4.4 1.6-4.4.8 0 1.6-.8 1.8-1.9.3-1.1 0-1.6-.7-1.2-.6.4-1.1 0-1.1-.8 0-3.5-2.8-1.4-3.4 2.5-.6 3.5-.9 3.9-2.7 3.4-1.8-.6-1.9-.5-1 1.4 1.1 1.9.9 2-2.1 1.5-1.8-.4-3.9-1.2-4.7-1.9-1-.9-2.1-1-4.1-.4-2.9 1.1-8-.3-8-2.1 0-.5-.6-1-1.4-1-1.5 0-3.2-3.7-2.2-4.7.3-.4-.1-1.7-.9-3-1.2-1.7-1.3-2.7-.4-4 1.5-2.6-6.2-10.7-11.1-11.8-4.1-.9-6.2-2.6-10.1-8.1-2.4-3.6-3.2-4-5.8-3.6-2.2.3-3.1 0-3.1-.9 0-1.1-.2-1.1-.8-.2-1.3 2-5 .3-7.1-3.3-1.2-2-2.8-3.4-4-3.4-3.3 0-5.1-1.1-5.1-3.1 0-1-.7-1.9-1.5-1.9-2.2 0-1.8-1.6 1.1-4.3 2.2-2.1 2.4-2.8 1.5-4.6-1-1.7-.9-2.1.4-2.1.8 0 1.5-.5 1.5-1 0-.6-.9-1-2-1-1.5 0-2-.7-2-2.9 0-3.3-3-6.1-6.7-6.1-3.1 0-6.5-3.9-5.8-6.7.5-2-.2-4.3-2.7-9.9-.5-1.1-.8-2.4-.7-3 .4-2.1-.2-3.2-2.2-3.7-1.2-.3-1.8-1-1.4-1.6.3-.6.3-1.1-.2-1.2-4.5-.4-5.5-.7-6.5-1.7-.9-.9-.7-1.2 1-1.2 2.7 0 2.8-1.7.5-4.3-1.7-1.8-1.7-1.9.2-1.6 3.6.5 6.3-1 5.8-3.1-.4-1.4 0-2 1.1-2 1.3 0 1.5-.6 1-2.8-.4-1.5-1.1-3.5-1.6-4.5s-1.1-4.6-1.2-8c-.2-3.4-.9-7.5-1.5-9-.6-1.6-1.1-3.9-1.1-5.3 0-1.3-.4-2.4-.8-2.4-1.1 0-3.5-5.1-2.7-5.8.3-.3-.5-1.6-1.7-2.9l-2.1-2.3h2.1c1.7 0 2.2-.6 2.2-2.5 0-1.6.6-2.5 1.6-2.5 1.1 0 1.4-.6.8-2.3-1-3.1-.5-12 .7-12.8.6-.3-.1-1.6-1.5-3-3.1-3-2.3-4.4 1.2-2.1 1.7 1.1 2.3 1.2 1.8.3-.5-.8-.3-1.7.5-2.2 1.1-.8 1-1.2-.6-2.5-2-1.5-2-1.5-.1-2.9 1.1-.9 2.9-1.2 4.3-.9 1.8.5 2.2.3 1.7-1-.4-1.1-.1-1.6 1-1.6 1 0 1.6-.8 1.6-2.3 0-1.7-.2-1.9-1-.7-.9 1.5-.8 1.7-2.5-3.6-.4-1.3 0-1.5 1.7-1.1 1.7.5 1.2-.3-1.9-2.9-2.4-2-4.3-4.3-4.3-5.1 0-.9.3-1.3.7-1 1.3 1.4 4.3-2.7 4.3-6 0-1.8.5-3.3 1-3.3 1.5 0 1.2-5.6-.4-6.9-1.6-1.3-5.6.1-5.6 1.9 0 2-6.6 1-8.8-1.3-1.2-1.3-3.6-2.4-5.4-2.5-4.1-.3-5.9-1.9-5.2-4.6.6-2.6-1.6-4.8-5.2-5.2-1.5-.2-2.4.2-2.4 1.2 0 .8-.4 1.4-1 1.4-.5 0-1-.4-1-.9 0-.6-2.2-.9-4.9-.9-4.5.1-4.9.3-6 3.5-.7 1.8-1.7 3.1-2.2 2.8-.5-.3-.6.1-.3.9.5 1.3-.1 1.5-3.2 1.2-2.2-.2-5.2-.9-6.7-1.5-1.6-.6-4.4-1.1-6.4-1.1-3.9 0-13.9 4.2-14.5 6.1-.3.9-.9.9-2.5 0-3.1-1.6-4.2-1.4-3.6.9.3 1.1 0 2-.6 2s-1.1 1.1-1.1 2.5c0 1.8-.5 2.5-1.9 2.5-1.1 0-2.9 1.3-4 2.8-1.1 1.6-3.5 3.9-5.4 5.2-1.9 1.3-3.9 3.7-4.5 5.3-1 2.5-1.5 2.8-3.7 2.3-1.9-.5-2.5-.4-1.9.5.5.9-.1 1-2.4.6-2-.4-3.2-.2-3.2.4 0 .6-.4.7-1 .4-.5-.3-1-1.7-1-3 0-2.9-2.9-4.7-7.7-4.8-3.5-.1-5-1.6-11.3-10.9-2.9-4.2-9.3-9.4-9.8-7.8-.2.6-1.5.4-3.3-.6-1.7-.8-3.9-1.2-5-.9-1.5.5-3-.4-6.1-3.4-3.1-3.2-4.8-4.1-7.4-4.1-1.8 0-5.4-1.1-8.1-2.4-4.6-2.4-4.8-2.4-5.5-.6-.7 1.8-.9 1.8-5.5.3-5.3-1.8-7.5-3.1-6.8-4.3.3-.4-.2-1.3-1-2-1.9-1.6-1.9-3 0-3 .9 0 1.2-.6.9-1.5-.4-.8-1.2-1.5-1.9-1.5s-1.5-.7-1.9-1.5c-.7-1.8-1.3-1.8-4.8.3zm208.7 197.2c.3.5.1 1-.4 1-.6 0-1.1-.5-1.1-1 0-.6.2-1 .4-1 .3 0 .8.4 1.1 1zm-340 7c.3.5-.1 1-1 1s-1.3-.5-1-1c.3-.6.8-1 1-1 .2 0 .7.4 1 1zm-149.8 148.4c.2.2-.2 1.3-.9 2.5-1 1.6-1 2.5-.2 3.9 1.7 2.7-.9 6.1-3.1 4.2-1.1-.9-1.3-1.6-.5-2.4.7-.7.3-1.7-1.2-3.3-1.2-1.3-1.6-2.3-.9-2.3.7 0 .9-.5.6-1-1.1-1.7.5-3 3.2-2.6 1.4.3 2.7.7 3 1zm33.3 185.6c0 .5-.2 1-.4 1-.3 0-.8-.5-1.1-1-.3-.6-.1-1 .4-1 .6 0 1.1.4 1.1 1zm0 31.1c0 .5-.4.9-1 .9-.5 0-1-.7-1-1.6 0-.8.5-1.2 1-.9.6.3 1 1 1 1.6z"/><path d="M328.648 113.916c-3.5 1-3.8 1.5-2.3 3.9.8 1.3 1.2 1.2 2.5-.8.9-1.2 2.5-2.2 3.6-2.2 1 0 1.9-.5 1.9-1 0-1.2-1.3-1.2-5.7.1zM661.948 183.916c-1.8 3-1.8 3.3-.2 4.4 1.7 1.3 2.3 5.1.7 4-.5-.3-1.2-.2-1.4.2-.3.5 1.4 2.1 3.6 3.8 2.3 1.6 3.6 2.2 2.9 1.3-1-1.2-.9-2.2.3-5.1.8-2 2.2-4 3.1-4.5 2.5-1.4 1-4.6-1.7-3.9-1.5.4-2.7-.1-3.8-1.4-1.6-2-1.6-2-3.5 1.2zM669.348 201.216c0 .9.5 1.6 1 1.6.6 0 1-.4 1-.9 0-.6-.4-1.3-1-1.6-.5-.3-1 .1-1 .9zM671.348 208.516c0 1.6.9 4.6 2 6.8s2 4.5 2 5.1c0 1.5-5.2 11.8-6.2 12.2-.5.2-.8.9-.8 1.7 0 .7-.7 1.8-1.5 2.5s-1.2 1.6-.9 2.1c.2.5-.7 1.1-2.1 1.5-1.9.5-2.5 1.2-2.5 3.4 0 1.6.5 3.2 1.2 3.6.6.4.8.3.5-.3-.4-.6-.1-1.5.6-2 2.6-2.1 4.7-2.1 7.1-.2 1.4 1.1 2.6 1.7 2.6 1.2.1-.4.9.3 2 1.5 1.5 1.9 1.7 2.8.9 4.3-1.2 2.4.8 8.9 2.8 8.9.7 0 3.4 1.3 6.1 3 3 1.8 5.6 2.7 6.9 2.4 1.2-.4 2.6.1 3.4 1.1 3.4 4 5.4 5.5 5.8 4.4.2-.6-.3-1.5-1-2-.9-.5.3-.7 3.1-.5 2.5.1 5.1-.1 5.8-.7 1.7-1.3 4.4 1.1 4 3.6-.2 1.3.5 2.2 2 2.8 2.2.8 2.3.7 1.7-2.1-.5-2.3-.3-3 .8-3 .8 0 2-.7 2.7-1.5 1-1.2.8-1.6-1.3-2.4-3.9-1.5-4.7-3.8-4.9-13.9 0-2.3-.4-4.2-.9-4.2s-.9-1.1-.9-2.5-.6-4-1.4-5.8c-1.5-3.5-12-13.7-14.2-13.7-.8 0-2.3-.9-3.4-2s-2.5-2-3-2c-.6 0-1.6-1.1-2.2-2.5-.9-2.1-1.8-2.5-5.5-2.5-5 0-8.7-3.2-8.8-7.7 0-1.4-.6-2.8-1.2-3-.9-.3-1.3.5-1.3 2.4zM633.248 235.016c-.7 2.7-.1 8.2.9 8.5 1.5.6 1.7-7.3.2-8.2-.5-.3-1-.5-1.1-.3zM649.848 244.516c-3.2.8-4.8 2.4-3.5 3.7 1.9 1.9 1 2.8-2.1 2.1-3-.7-3.1-.6-2.5 1.8.5 2 .2 2.7-1.4 3.2-2 .6-2.9 4.5-1 4.5.6 0 .8 1.2.5 2.7l-.6 2.8 3-3.4c2.1-2.4 3.6-3.2 5-2.8 1.6.4 2-.1 2.3-2.6.2-2.3.9-3.3 2.3-3.5 1.1-.2 2.7-1 3.5-1.7 1.5-1.3 1.9-1.5 4-1.5.7 0 .7-.6 0-2-.6-1.1-1.9-2-3-2-1 0-2.2-.5-2.5-1-.6-1.1-.8-1.1-4-.3zm-1.5 11.5c0 .6-.6.5-1.5-.2-.8-.7-1.5-1.4-1.5-1.6 0-.2.7-.1 1.5.2.8.4 1.5 1.1 1.5 1.6z"/><path d="M651.048 256.416c-1.1 1.1.3 2.4 1.8 1.8.8-.4 1.2-1 .9-1.5-.6-1.1-1.8-1.2-2.7-.3zM32.348 438.116c0 2-6.2 9.7-7.8 9.7-1.8 0-1 2.5.9 2.6.8 0 1.6.2 1.9.3.3.2 1.5.4 2.8.5 2.3.3 2.6-.3 2.2-4.2-.1-1.7.4-2.2 2.3-2.2 2 0 2.5-.5 2.5-2.8 0-1.5-.5-3.3-1-4-1.4-1.6-3.8-1.6-3.8.1zM41.148 437.916c-1 .5-1.8 1.9-1.8 3 0 1.9.2 1.9 2.2.5 1.2-.9 2.3-2.2 2.4-3.1.3-1.7-.4-1.8-2.8-.4zM178.848 506.816c-.3.5-1.7 1-3.1 1-1.9 0-2.4.5-2.4 2.6 0 2.2.3 2.4 2.3 1.8 1.2-.3 2.2-.7 2.2-.8.1 0 .6-1.3 1.3-2.9 1.1-2.6.9-3.7-.3-1.7zM183.348 507.216c0 .2.7.9 1.5 1.6 1.3 1.1 1.4 1 .9-.4-.5-1.4-2.4-2.3-2.4-1.2zM31.448 511.416c0 1.1.3 1.4.6.6.3-.7.2-1.6-.1-1.9-.3-.4-.6.2-.5 1.3zM413.348 529.416c0 .8.5 1.2 1 .9.6-.4.8-1.1.5-1.6-.9-1.4-1.5-1.1-1.5.7zM379.148 547.216c-.2 1.4-1.3 2.2-3.6 2.7-2.7.6-3.8.2-5.8-1.8-1.5-1.5-3.1-2.2-4-1.9-.9.3-2.2.6-3 .6-.9 0-1.3.4-.9.9.3.6-.3 1.5-1.4 2-1.5.8-1.8 1.8-1.4 3.8.3 1.6.6 3.9.8 5.3.1 1.4.3 3 .3 3.6.1.7 1.1 1.4 2.1 1.7 1.4.3 1.8 1.1 1.4 2.6-.3 1.4 0 2.3 1.1 2.7.9.3 1.3 1 1 1.5-.3.6-.1 1.6.6 2.3.6.8.8 2.5.5 3.8-.3 1.3-.1 3.7.5 5.2 1.2 3.2-.5 8.6-2.7 8.6-.6 0-1.4.9-1.8 1.9-.3 1.1-1.6 2.1-2.8 2.4-2 .3-2 .4-.4 1.2 1.1.4 2.9.2 4.5-.5 1.5-.8 3.4-1.2 4.3-1.1.8.1 2.4-.7 3.4-1.8 1.4-1.7 1.5-2.3.5-3.6-1.6-2-.1-2 4.5-.1 3.1 1.3 3.6 1.3 4.7-.2.7-.9 2.3-2.2 3.4-2.9 2-1.1 2.1-1 1 1.3-.6 1.3-1.9 2.4-2.8 2.4-1 0-2.4 1.3-3.3 3-.9 1.6-1.3 3-.9 3s-.6 1.2-2.1 2.7c-1.5 1.5-3.4 4.5-4.2 6.5-.8 2.1-1.9 3.5-2.4 3.2-.6-.3-.7.5-.3 2 .4 1.7.2 2.6-.5 2.6-1.6 0-1.2 10.8.4 11.8 2.6 1.6 4.6 6 3.6 7.9-.5 1-1.4 3.8-2 6.2-.8 3.5-.6 4.9.5 6.6 1 1.6 1.2 2.5.5 3-1.6.9-1.3 2.5.4 2.5.8 0 1.2-.6 1-1.3-.3-.6.8-2.1 2.4-3.2 1.6-1 2.7-2.3 2.4-2.8-.3-.5 1.7-.5 4.3-.1 2.7.3 4.6.3 4.2-.1-.3-.3.3-1.6 1.4-2.7 1.1-1.1 2.1-1.8 2.2-1.6.1.1.7 1.8 1.3 3.5 1 3 .9 3.3-.8 3.3-1.4 0-1.8.6-1.6 2.1.4 2.7 3.3 4.9 6.4 4.9 1.3 0 2.3.3 2.4.7.2 2.4 1 5.7 1.5 6.2.2.3 1.8 0 3.5-.6 2.9-1.1 3-1 3.6 1.9.3 1.6 1.3 3.2 2.1 3.6 1.3.4 1.2.7-.4 1.3-1.7.6-1.6.8.9 1.4 1.5.4 2.7 1.4 2.7 2.2 0 .8 1.6 2.1 3.5 2.9 1.9.8 3.5 1.9 3.5 2.4 0 .6.7 1 1.5 1s1.9.9 2.6 2.1c.8 1.5 1.8 2 3.5 1.6 2.9-.5 4.4 1.1 4.7 5.2.1 2.4.8 3.3 2.5 3.7 1.2.4 2.2 1 2.2 1.5 0 1.6 5.6 3.9 6.8 2.7 1.7-1.7 5.7 1.4 7.8 6.1 1.9 4.1 2.2 4.2 10.7 5.7 2.9.5 3.7.3 3.7-.9 0-1.6 2-2.7 5.1-2.7 1.3 0 1.9.6 1.7 1.7-.2 1 .4 1.9 1.5 2.1 2 .4 2.4-2.7.5-4.6-1-1-1-1.7 0-3.2 1-1.7 1-2.6-.3-5-.8-1.6-1.5-4-1.5-5.3 0-1.4-.6-3-1.4-3.6-.8-.7-1.7-2.7-2-4.5-.3-1.8-2-4.5-3.6-6.1-1.6-1.5-2.7-3.1-2.5-3.5.3-.5-.2-2.4-1-4.3-1.3-3.1-1.3-3.6.1-4.8.8-.7 1.3-2.1 1.1-3.1-.4-1.5-.1-1.8 1.5-1.2 1.2.3 1.8.2 1.5-.3-.3-.5.4-.9 1.6-.9 2.5.1 2.5 0 .4-9.1-.9-4.1-1-6.4-.3-6.6.5-.2-.8-2-3-4.1-2.3-2.3-3.1-3.5-2-3.2 1.4.5 1.6.3.8-.6-.5-.7-1.2-3.1-1.4-5.3-.3-2.9-.9-4-2.1-4-2.4 0-5-4.2-4.3-6.9.4-1.5 0-2.8-.9-3.6-.8-.7-1.5-1.9-1.5-2.7 0-2-3-6.3-4.4-6.3-2.2 0-5.4-8.4-3.7-9.4.6-.4.8-1.3.4-2.1-.3-1 .2-1.5 1.6-1.5 1.2 0 2.1-.6 2.1-1.5 0-.8-.5-1.5-1.1-1.5-.5 0-.8-.4-.4-.9.8-1.3-3.5-4.1-6.2-4.1-1.3 0-2.3-.4-2.3-1 0-.5-.9-1.4-2.1-2-1.6-.9-2.3-.8-3.2.3-.7.8-2.9 1.7-4.9 2-2.9.4-4.1.2-5-1.2-.7-1-2.5-2-3.9-2.3-2.2-.4-2.5-.2-2.1 1.9.3 1.6 0 2.3-1.1 2.3-.8 0-1.7.6-2 1.2-.3 1-.7 1-1.7.1-1.4-1.3-7.4.3-6.4 1.8.3.5 0 .9-.6.9s-1.3-.7-1.7-1.6c-.3-.8-1.2-1.3-2-1-.7.3-2.2 0-3.3-.6-1.4-.9-2.2-.9-3.2 0-.8.6-2.6 1.5-4.1 2.1-2.1.8-2.7.8-2.7-.4 0-.7 1.6-1.9 3.5-2.6 2.3-.9 3.5-1.9 3.5-3.2 0-1.1.5-1.7 1.3-1.4.6.3 2 .8 3 1.2 1 .4 1.7.3 1.7-.4 0-.6 1.9-1.1 4.4-1.1 3.6 0 4.8-.5 6.5-2.6 1.1-1.4 2.3-3.3 2.5-4.2.4-1.3 1.9-1.8 5.7-1.9 2.8-.1 5.3-.4 5.6-.7.8-.8-3.7-9.8-5.4-11.2-.9-.6-3.8-1-6.5-.8-4.4.2-5.2-.1-8.3-3.3-2.8-2.9-3.7-3.3-5.3-2.4-1.5.8-2.1.8-2.4 0-.4-1.3-7.8-2.9-15-3.3-4.1-.2-4.7 0-5 1.8z"/><path d="M469.348 659.316c-.7.8-.9 1.5-.5 1.5s.2.7-.5 1.5c-1.1 1.3-.8 1.5 1.6 1.2 3.3-.4 3.7-1.4 1.9-4-1.1-1.5-1.4-1.6-2.5-.2zM481.348 703.816c-.7 1.4-.7 2 0 2 .5 0 1-.4 1-.9s.9-.7 2-.4c1.6.4 1.9.2 1.4-1.1-.8-2.2-3.1-2-4.4.4z"/></g></svg>