<?xml version="1.0" standalone="no"?>
<!DOCTYPE svg PUBLIC "-//W3C//DTD SVG 20010904//EN"
 "http://www.w3.org/TR/2001/REC-SVG-20010904/DTD/svg10.dtd">
<svg version="1.0" xmlns="http://www.w3.org/2000/svg"
 width="1136.630109pt" height="674.293832pt" viewBox="0 0 1136.630109 674.293832"
 preserveAspectRatio="xMidYMid meet">
<metadata>
Created by potrace 1.15, written by Peter Selinger 2001-2017
</metadata>
<g transform="translate(-404.369891,1326.381419) scale(0.100000,-0.100000)"
fill="#222222" stroke="none">
<path d="M4863 13262 c-14 -2 -25 -13 -29 -27 -3 -13 -12 -29 -20 -36 -8 -6
-14 -19 -14 -28 0 -20 -34 -43 -53 -35 -7 2 -22 -4 -32 -16 -10 -11 -15 -20
-10 -20 4 0 2 -7 -5 -15 -6 -8 -9 -18 -7 -22 18 -28 -60 -55 -90 -31 -20 16
-35 -25 -18 -48 8 -11 15 -27 15 -36 0 -10 6 -18 14 -18 7 0 19 -6 25 -14 15
-18 3 -49 -16 -41 -12 4 -14 -1 -11 -20 3 -14 1 -28 -4 -31 -5 -3 -7 -12 -4
-20 3 -8 -1 -14 -9 -14 -9 0 -15 -10 -15 -25 0 -17 -9 -29 -30 -40 -17 -9 -30
-24 -30 -34 0 -30 -33 -81 -53 -81 -10 0 -16 -4 -13 -9 4 -5 -8 -21 -25 -35
-17 -14 -26 -26 -21 -26 9 0 37 -108 29 -116 -2 -3 -18 -6 -35 -7 -22 -1 -28
-5 -21 -14 7 -8 4 -13 -11 -18 -16 -5 -19 -12 -14 -27 7 -24 -9 -38 -48 -38
-38 0 -36 -25 2 -49 22 -13 44 -17 77 -14 34 2 49 -1 58 -13 14 -20 37 -10 28
13 -11 29 51 -15 65 -46 14 -32 95 -62 115 -42 6 6 24 11 39 11 27 0 68 30 68
50 0 11 49 14 74 4 9 -3 16 -13 16 -21 0 -18 20 -38 47 -47 23 -7 59 -60 80
-116 18 -49 16 -71 -7 -77 -18 -5 -18 -8 -6 -32 7 -14 16 -47 20 -72 4 -30 15
-54 31 -69 14 -13 25 -32 25 -43 0 -11 8 -26 18 -33 10 -8 12 -13 5 -14 -19 0
-16 -13 8 -38 11 -12 17 -27 14 -32 -3 -5 5 -27 19 -48 21 -34 22 -41 11 -63
-11 -20 -11 -27 2 -41 8 -9 12 -22 8 -28 -4 -6 -1 -18 6 -26 16 -19 20 -57 6
-65 -6 -4 -3 -16 7 -30 9 -13 16 -31 16 -40 0 -9 7 -30 15 -45 8 -16 15 -55
15 -86 0 -49 -3 -58 -18 -58 -25 0 -42 -19 -42 -47 0 -28 -20 -30 -43 -3 -19
23 -39 27 -31 7 6 -17 -21 -41 -36 -32 -6 4 -9 13 -6 21 8 20 -7 24 -48 13
-26 -7 -36 -15 -32 -25 3 -8 0 -14 -7 -15 -7 0 -3 -4 8 -9 29 -12 35 -12 35 3
0 8 7 14 15 14 26 0 12 -31 -18 -41 -20 -7 -34 -7 -47 1 -14 10 -21 9 -30 -2
-7 -8 -17 -12 -24 -8 -6 4 -19 9 -30 10 -16 3 -17 -2 -12 -39 8 -61 7 -102 -4
-106 -5 -2 -2 -14 6 -28 10 -14 14 -36 12 -55 -3 -20 0 -33 9 -36 7 -3 10 -9
7 -14 -3 -5 -14 -4 -25 2 -28 15 -32 7 -15 -26 11 -22 12 -33 4 -49 -8 -15 -8
-21 1 -24 6 -2 11 -12 11 -23 0 -10 5 -19 10 -19 6 0 10 -7 10 -15 0 -8 5 -15
11 -15 8 0 8 -5 -1 -15 -16 -19 -30 -19 -30 1 0 14 -2 14 -15 0 -8 -8 -15 -24
-15 -35 0 -12 -4 -21 -10 -21 -5 0 -7 -6 -4 -13 8 -21 -84 -110 -108 -104 -13
4 -29 -6 -50 -29 -17 -19 -37 -34 -44 -34 -7 0 -19 -7 -28 -15 -9 -9 -17 -11
-21 -5 -9 15 -54 12 -51 -2 2 -7 8 -26 14 -41 7 -16 12 -35 12 -43 0 -17 -31
-19 -47 -3 -9 9 -14 5 -18 -14 -8 -31 0 -48 19 -41 9 3 18 -7 25 -28 11 -30
10 -34 -11 -48 -12 -8 -29 -23 -37 -32 -11 -13 -18 -14 -28 -6 -10 8 -13 6
-13 -6 0 -10 -4 -15 -9 -12 -5 4 -7 -3 -4 -14 3 -11 10 -20 15 -20 5 0 7 3 5
8 -3 4 6 8 19 8 32 2 52 -53 34 -97 -9 -22 -16 -27 -25 -19 -18 15 -34 -9 -28
-42 3 -15 13 -30 22 -33 16 -6 62 -89 61 -112 0 -17 69 -71 101 -78 32 -7 41
-17 59 -65 7 -19 21 -44 30 -55 10 -11 20 -27 23 -35 4 -10 6 -7 6 8 1 12 5
22 10 22 5 0 16 7 25 15 9 10 37 16 80 17 36 1 66 5 66 10 0 5 9 4 21 -3 19
-9 20 -9 11 7 -7 12 -6 23 1 34 8 13 5 22 -12 39 -28 28 -23 45 13 49 19 2 26
8 22 18 -6 16 10 19 20 3 3 -6 19 -9 35 -7 16 3 30 0 32 -5 1 -5 18 -2 36 7
22 12 31 22 27 33 -4 9 4 25 18 38 22 20 27 21 43 9 29 -21 96 -18 111 6 7 12
23 20 41 20 20 0 30 6 34 20 7 26 36 26 113 0 55 -18 62 -18 101 -4 25 10 43
24 47 36 3 12 10 18 18 15 9 -3 24 13 41 44 16 27 34 52 42 56 7 5 16 21 19
37 3 16 12 36 21 46 8 9 13 24 9 33 -4 11 2 20 20 28 14 7 26 16 26 21 0 4 17
8 38 8 53 0 115 24 126 49 5 12 15 21 21 21 21 0 64 40 67 63 3 19 12 23 63
30 33 5 67 14 75 21 16 13 45 26 98 46 18 7 32 20 32 29 0 13 10 16 60 13 50
-2 62 1 72 17 9 15 15 17 25 9 10 -8 13 -6 13 8 1 17 3 16 21 -6 43 -55 60
-68 93 -74 34 -7 55 -34 41 -55 -11 -18 7 -94 24 -98 21 -6 74 -80 66 -93 -3
-6 1 -13 10 -16 9 -4 14 -12 12 -18 -3 -7 9 -11 32 -11 33 0 36 -2 37 -29 1
-30 42 -76 67 -76 7 0 17 -10 22 -22 6 -14 36 -35 73 -52 41 -20 64 -37 68
-51 4 -18 13 -21 55 -21 43 0 53 -4 74 -30 13 -16 24 -34 25 -39 0 -6 12 -24
28 -41 15 -17 34 -43 42 -58 14 -27 13 -30 -7 -43 -21 -14 -22 -43 -1 -43 5 0
6 5 3 11 -4 5 9 3 29 -5 38 -16 39 -16 57 -16 5 0 8 -4 5 -9 -3 -4 4 -25 14
-47 22 -42 25 -64 10 -64 -14 0 -12 -68 4 -115 8 -21 27 -53 43 -70 16 -16 35
-46 42 -65 8 -19 25 -46 38 -61 12 -14 23 -37 23 -51 0 -32 21 -81 60 -138 16
-25 30 -57 30 -71 0 -14 9 -34 20 -44 24 -22 60 -90 60 -114 0 -10 2 -20 5
-23 9 -9 89 16 101 31 14 18 48 6 41 -13 -3 -8 1 -20 8 -26 8 -7 14 -15 13
-18 -3 -27 4 -30 31 -14 28 16 31 15 50 -2 15 -14 19 -26 14 -50 -3 -17 -10
-37 -16 -43 -7 -9 -5 -13 7 -13 9 0 24 -9 33 -20 10 -11 21 -20 25 -20 5 0 17
-9 28 -20 12 -12 25 -18 31 -14 13 7 38 -24 39 -48 0 -10 16 -33 35 -52 40
-40 44 -51 15 -43 -11 3 -20 1 -20 -4 0 -5 -13 -9 -30 -9 -23 0 -31 5 -36 25
-7 29 -12 30 -42 9 -14 -9 -21 -22 -18 -31 3 -8 2 -12 -3 -8 -5 3 -19 -11 -31
-30 -12 -19 -26 -33 -30 -30 -5 3 -11 1 -15 -4 -3 -6 -16 -6 -33 -1 -15 5 -36
8 -47 7 -12 -1 -21 5 -23 18 -4 21 -30 55 -43 55 -13 0 2 -38 22 -56 10 -9 19
-29 19 -43 0 -31 20 -73 38 -79 6 -2 12 3 12 11 0 23 33 30 79 17 22 -6 44 -9
50 -8 5 2 16 -5 23 -14 7 -9 29 -18 48 -20 28 -2 34 0 32 14 -4 24 77 12 99
-14 12 -16 23 -19 47 -13 31 6 42 27 22 40 -5 3 -10 11 -10 16 0 6 6 7 13 2 6
-4 20 -6 29 -5 11 2 22 -6 29 -20 15 -34 44 -51 58 -34 8 10 5 16 -14 26 -14
7 -25 20 -25 27 0 8 4 12 9 9 13 -8 24 25 12 37 -6 6 -6 14 0 21 5 6 16 20 23
31 13 19 15 19 33 3 11 -11 24 -14 32 -9 9 6 10 11 2 15 -6 4 -11 15 -11 26 0
10 -13 32 -30 50 -21 22 -27 37 -22 47 6 9 1 29 -11 54 -15 30 -22 37 -32 29
-18 -15 -28 2 -29 51 -1 23 4 41 12 44 30 11 -1 74 -48 98 -13 7 -25 18 -28
25 -6 20 21 14 48 -11 20 -18 34 -23 63 -19 35 4 37 6 37 38 0 32 2 34 20 24
11 -6 24 -9 28 -6 4 2 16 -2 26 -10 25 -18 29 -105 6 -116 -11 -5 -10 -7 6 -7
12 -1 25 -8 28 -18 5 -13 11 -10 32 18 13 19 34 37 44 41 11 4 20 14 20 23 0
8 4 15 10 15 5 0 16 14 25 30 11 21 23 30 40 30 18 0 25 5 25 19 0 17 52 51
78 51 5 0 12 7 16 15 4 10 14 13 35 9 16 -3 46 -1 65 6 31 10 36 15 30 32 -6
19 -3 20 22 14 16 -4 36 -13 44 -20 30 -26 44 -30 37 -12 -5 12 0 19 18 26 14
5 28 17 31 25 4 8 13 15 22 15 8 0 23 7 32 15 13 12 23 13 43 6 20 -8 27 -7
31 5 3 8 10 12 16 9 14 -8 13 -1 -5 41 l-15 36 30 -7 c22 -5 30 -3 30 8 0 12
9 11 53 -4 28 -10 60 -18 70 -19 10 0 17 -8 17 -19 0 -12 9 -21 25 -25 13 -3
29 -15 35 -26 13 -24 30 -26 30 -4 0 13 6 10 25 -10 14 -15 25 -31 25 -37 0
-5 6 -9 14 -9 8 0 22 -9 30 -21 8 -12 19 -18 25 -15 15 9 144 -123 137 -140
-3 -8 -1 -14 3 -14 5 0 11 6 14 14 9 22 57 7 68 -21 5 -13 13 -22 18 -18 8 4
46 -13 96 -43 6 -4 18 -5 28 -4 27 5 47 -16 47 -49 0 -28 33 -69 56 -69 6 0
15 -7 18 -16 4 -11 2 -15 -8 -11 -29 11 -3 -33 39 -68 44 -36 80 -45 87 -23 3
8 13 3 29 -15 24 -27 100 -53 85 -29 -4 7 -3 12 3 12 5 0 12 -6 15 -12 5 -10
7 -10 12 0 3 6 12 12 20 12 8 0 14 4 14 9 0 19 51 3 94 -30 45 -34 71 -86 59
-116 -8 -21 22 -42 48 -36 12 3 24 2 28 -3 3 -5 23 -17 44 -26 32 -15 38 -16
43 -3 7 18 -3 35 -20 35 -8 0 -19 7 -26 15 -7 8 -18 15 -26 15 -17 0 -64 47
-64 65 0 8 -4 17 -10 20 -5 3 -10 13 -10 21 0 13 4 13 29 0 16 -9 31 -13 34
-10 3 3 17 -13 32 -35 21 -34 29 -40 43 -32 17 10 60 -7 94 -36 14 -12 15 -20
7 -35 -6 -11 -8 -30 -5 -43 9 -35 106 -129 148 -143 72 -25 202 -124 259 -198
9 -12 20 -41 24 -65 4 -25 21 -61 39 -84 17 -22 36 -49 42 -59 6 -11 39 -39
74 -63 34 -24 75 -59 89 -78 30 -39 107 -71 128 -53 10 8 13 6 13 -5 0 -20 30
-37 63 -37 34 0 131 -55 146 -84 14 -26 63 -45 69 -27 2 6 17 11 33 11 18 0
29 5 29 14 0 17 45 16 77 -2 12 -7 31 -12 42 -12 11 0 22 -8 25 -17 3 -10 49
-39 103 -65 82 -40 100 -46 108 -34 6 8 29 17 50 21 22 4 52 15 67 26 23 16
28 16 39 3 10 -13 14 -13 29 1 15 14 19 14 41 -3 13 -10 32 -21 42 -25 9 -3
17 -14 17 -24 0 -10 16 -28 34 -40 34 -22 37 -22 111 -8 42 8 79 15 82 15 2 0
1 9 -2 20 -4 13 -2 20 6 20 19 0 99 41 99 50 0 5 14 11 30 15 17 4 30 13 30
21 0 11 6 13 21 9 15 -5 29 1 50 21 25 24 32 26 53 16 28 -13 82 4 105 32 12
14 16 14 41 1 25 -13 29 -13 34 1 3 8 19 20 35 25 19 7 28 15 24 25 -3 7 2 16
11 19 9 3 24 8 34 12 25 9 73 10 104 2 20 -5 25 -4 22 6 -3 7 2 27 10 43 12
23 21 29 37 25 11 -3 24 0 28 6 9 14 81 -44 81 -65 0 -7 9 -19 19 -26 11 -8
25 -25 31 -40 10 -21 9 -30 -4 -50 -15 -23 -15 -27 5 -51 11 -15 16 -27 10
-27 -6 0 -11 -8 -11 -18 0 -10 -5 -23 -12 -30 -9 -9 -9 -12 1 -12 7 0 15 9 18
20 7 26 16 25 48 -3 23 -19 25 -26 16 -49 -7 -20 -19 -29 -45 -33 -25 -5 -33
-11 -29 -21 5 -13 8 -13 22 -1 25 22 50 16 69 -15 20 -34 30 -35 41 -5 5 12
21 30 35 41 28 20 50 74 41 98 -4 9 -2 19 4 23 6 3 11 15 11 26 0 17 3 18 20
7 11 -7 20 -24 20 -38 0 -25 14 -38 72 -68 24 -11 31 -11 48 1 19 13 19 15 4
21 -9 4 -14 9 -11 13 4 3 2 14 -3 24 -8 14 -4 20 20 31 35 15 35 14 11 54 -18
29 -23 31 -63 27 -48 -6 -61 3 -72 50 -5 22 -3 27 13 27 10 0 22 -7 25 -16 4
-12 15 -15 37 -12 20 3 33 0 36 -9 5 -13 43 -19 43 -6 0 3 -7 14 -16 24 -9 10
-14 24 -12 31 3 8 13 -1 26 -22 26 -41 27 -54 8 -73 -12 -11 -11 -15 5 -25 26
-16 34 -15 19 3 -7 8 -9 15 -6 15 15 0 52 -24 64 -42 16 -22 50 -23 76 -3 11
8 30 15 42 15 12 0 28 10 37 23 l15 22 35 -36 c24 -25 32 -40 25 -47 -7 -7 -6
-25 2 -59 6 -26 11 -56 11 -67 0 -10 7 -25 15 -33 15 -16 19 -53 5 -53 -8 0
-23 -54 -25 -90 -1 -8 7 -21 16 -28 9 -6 19 -25 23 -41 3 -16 13 -35 21 -42 8
-6 14 -23 14 -38 0 -18 9 -31 30 -43 17 -10 36 -15 43 -12 17 6 51 -31 44 -49
-3 -8 0 -20 6 -26 14 -14 74 -14 82 -1 5 8 11 8 19 1 7 -6 16 -8 19 -5 4 4 18
-1 32 -10 21 -14 29 -15 41 -6 15 13 49 6 40 -8 -3 -5 1 -18 9 -28 13 -17 14
-17 15 -2 0 11 5 15 15 12 8 -4 15 -2 15 4 0 11 104 9 133 -3 12 -5 17 -2 17
11 0 15 4 13 19 -10 17 -25 20 -26 28 -11 6 9 13 16 16 16 26 -4 31 -1 19 11
-15 15 -16 32 -2 23 6 -3 10 3 10 14 0 12 -7 21 -15 21 -10 0 -15 10 -15 30 0
17 5 30 10 30 15 0 2 70 -17 91 -13 16 -9 49 8 49 5 0 -4 22 -20 48 -22 37
-26 53 -19 67 8 13 6 27 -5 51 -11 22 -13 35 -6 40 6 4 4 13 -7 25 -16 18 -17
18 -35 -4 -10 -12 -18 -16 -19 -9 0 6 -7 12 -15 12 -8 0 -15 5 -15 10 0 6 5
10 11 10 6 0 -3 14 -21 30 -20 19 -30 36 -26 46 7 18 -12 57 -61 127 l-36 50
26 19 c23 17 25 22 14 39 -12 19 -5 31 27 42 5 1 1 18 -9 36 -22 44 -26 127
-8 170 7 19 11 41 8 49 -3 9 1 12 15 7 14 -5 20 -2 20 9 0 9 6 16 13 16 18 0
40 84 34 130 -4 32 -2 38 11 33 12 -5 14 -1 9 24 -3 16 -2 34 4 40 12 12 1 43
-16 43 -11 0 -31 30 -23 34 2 1 16 8 32 16 26 13 28 18 22 57 -3 24 -2 43 3
43 10 0 2 50 -11 66 -5 7 -4 23 2 39 9 22 7 31 -6 46 -14 15 -15 24 -7 42 13
28 6 72 -13 88 -8 6 -14 19 -14 29 0 9 -9 28 -21 41 -11 13 -37 53 -58 88 -25
43 -50 71 -75 85 -28 15 -40 18 -43 9 -3 -9 -13 -6 -34 9 -16 12 -27 28 -25
35 3 7 1 15 -3 17 -5 3 -8 17 -8 32 0 14 -6 31 -13 37 -10 9 -11 7 -5 -10 5
-19 2 -23 -14 -23 -21 0 -25 8 -22 42 1 9 -7 19 -19 23 -30 9 -37 30 -45 134
-5 70 -4 96 6 101 10 7 9 15 -1 42 -21 52 -50 80 -78 73 -28 -7 -71 23 -51 35
7 5 4 20 -10 48 -23 46 -45 62 -72 55 -13 -4 -19 0 -19 11 0 9 -7 28 -16 41
-9 14 -13 25 -10 25 4 0 -1 14 -10 31 -14 29 -14 31 0 26 14 -5 13 -2 -1 28
-9 19 -20 35 -24 35 -5 0 -7 18 -6 40 l1 40 21 -20 c27 -25 58 -17 72 21 8 19
8 29 1 29 -6 0 -8 10 -5 22 9 31 -32 101 -55 95 -19 -5 -43 17 -34 31 3 4 -1
26 -9 48 -9 28 -19 40 -37 42 -12 2 -27 9 -33 16 -5 7 -20 18 -32 25 -13 6
-23 21 -23 32 0 11 -6 22 -14 25 -16 6 -27 27 -31 60 -4 29 -35 75 -46 68 -5
-3 -9 0 -9 7 0 10 -2 11 -12 0 -7 -6 -13 -17 -13 -24 0 -19 -63 -21 -81 -3
-21 22 -34 20 -34 -4 0 -25 -16 -26 -29 -1 -8 14 -6 22 8 35 11 10 17 25 14
37 -6 23 -16 24 -51 5 -73 -37 -85 -41 -90 -28 -8 26 -35 44 -56 38 -68 -20
-75 -19 -86 8 -11 30 -27 33 -45 9 -10 -14 -17 -15 -41 -5 -34 14 -70 16 -101
7 -18 -6 -23 -3 -23 11 -1 18 -2 18 -13 2 -12 -15 -17 -14 -60 13 -26 16 -47
34 -47 40 0 6 -9 9 -20 6 -16 -4 -21 1 -26 29 -3 18 -12 38 -20 45 -8 6 -14
17 -14 24 0 7 -6 18 -14 24 -8 7 -15 20 -16 29 -4 85 -13 129 -35 169 -14 26
-25 54 -25 61 0 8 -18 34 -40 59 -40 46 -48 63 -30 63 6 0 10 7 10 15 0 8 5
15 10 15 7 0 7 6 0 20 -7 13 -7 33 -1 62 6 23 9 43 8 43 -19 2 -61 35 -63 48
-3 25 -14 35 -14 14 0 -10 -7 -17 -15 -17 -17 0 -20 -25 -5 -35 6 -3 10 -19
10 -36 0 -16 5 -29 11 -29 5 0 7 -4 4 -10 -10 -17 -23 -11 -31 13 -11 36 -25
49 -40 36 -7 -6 -23 -8 -35 -4 -17 6 -20 12 -15 35 5 30 -16 61 -29 40 -10
-16 -42 6 -49 35 -4 16 -16 27 -34 31 -38 9 -50 21 -57 55 -4 16 -10 29 -15
29 -4 0 -11 11 -14 25 -5 18 -13 25 -31 25 -14 0 -26 7 -30 19 -3 11 -17 26
-30 35 -20 13 -28 14 -45 4 -16 -10 -34 -10 -95 3 -63 13 -75 13 -75 1 0 -9
-13 -3 -38 16 -51 40 -86 49 -109 27 -16 -17 -18 -16 -41 11 -15 19 -26 25
-29 17 -7 -18 -30 -16 -37 3 -4 10 -12 14 -23 10 -9 -4 -24 1 -34 10 -11 10
-25 14 -36 10 -9 -4 -14 -4 -11 -1 4 4 -4 26 -16 49 l-23 43 24 28 c17 20 21
31 14 38 -6 6 -11 23 -11 38 0 24 -4 27 -50 33 -45 6 -50 9 -50 31 0 18 -5 25
-19 25 -23 0 -52 36 -45 55 6 16 -54 28 -91 19 -27 -7 -54 15 -55 46 -1 18
-68 52 -73 37 -1 -5 -26 15 -55 44 l-52 54 29 -55 c24 -47 33 -56 62 -60 43
-7 15 -21 -30 -15 l-31 4 15 -29 c21 -40 19 -67 -5 -75 -11 -3 -20 -15 -20
-26 0 -13 -7 -19 -22 -20 -13 -1 -30 -2 -38 -3 -29 -2 -41 -16 -30 -35 8 -15
5 -20 -14 -23 -15 -3 -23 -1 -20 6 4 13 -34 61 -43 53 -3 -3 -18 0 -34 8 -37
20 -42 19 -29 -5 9 -16 8 -20 -5 -20 -13 0 -14 -4 -5 -20 9 -17 8 -20 -14 -20
-38 0 -68 14 -109 54 -21 20 -43 36 -48 36 -5 0 -9 7 -9 15 0 9 -7 18 -15 22
-9 3 -25 23 -36 44 -10 21 -32 45 -47 53 -15 9 -40 29 -56 46 -16 16 -35 30
-41 30 -7 0 -17 11 -23 25 -8 17 -20 25 -37 25 -40 0 -87 24 -124 64 -19 20
-41 36 -48 36 -8 0 -13 8 -11 17 2 11 -7 21 -27 28 -16 5 -39 20 -50 33 -13
15 -35 25 -60 29 -27 3 -46 13 -58 29 -10 13 -22 24 -27 24 -9 0 -25 -39 -22
-52 1 -4 -7 -12 -18 -18 -11 -6 -18 -15 -15 -21 4 -5 -6 -14 -22 -20 -15 -5
-31 -16 -35 -22 -5 -8 -8 -3 -8 11 0 16 -6 22 -22 22 -16 0 -19 -3 -11 -11 16
-16 4 -46 -20 -54 -12 -4 -24 -8 -27 -10 -3 -1 -13 -5 -22 -9 -9 -4 -14 -14
-11 -22 3 -8 2 -26 -1 -40 -6 -21 -9 -24 -21 -14 -12 10 -15 9 -15 -8 0 -28
-20 -39 -35 -18 -13 18 -38 14 -67 -11 -9 -8 -21 -12 -26 -9 -5 3 -15 -1 -22
-9 -7 -8 -23 -15 -35 -15 -19 0 -23 -7 -28 -42 -3 -24 -10 -44 -16 -46 -5 -2
-15 -18 -21 -36 -13 -40 -53 -65 -78 -49 -9 6 -16 17 -14 26 1 8 -4 17 -13 21
-8 3 -15 1 -15 -4 0 -6 -7 -10 -16 -10 -8 0 -13 -4 -9 -9 3 -5 1 -12 -5 -16
-5 -3 -10 -14 -9 -23 0 -11 2 -12 6 -4 8 21 21 4 16 -22 -3 -14 -13 -27 -22
-29 -13 -3 -13 -5 4 -11 56 -21 61 -26 57 -62 -4 -28 1 -39 29 -65 29 -27 31
-32 16 -40 -26 -15 -9 -39 29 -39 19 0 33 -3 32 -7 -2 -5 3 -23 11 -40 12 -29
11 -36 -5 -59 -51 -73 -61 -90 -57 -97 3 -5 -4 -11 -16 -14 -23 -6 -26 -27
-11 -67 8 -22 7 -26 -8 -27 -9 0 2 -7 24 -15 33 -12 45 -23 60 -56 10 -23 29
-52 42 -65 14 -14 21 -30 18 -40 -4 -8 -1 -22 5 -29 8 -10 8 -14 1 -14 -6 0
-9 -9 -7 -20 2 -11 0 -20 -6 -20 -5 0 -9 -14 -9 -30 0 -18 -6 -33 -15 -36 -8
-4 -12 -10 -9 -16 3 -5 -3 -12 -14 -15 -24 -6 -19 -29 8 -36 13 -3 17 -11 13
-25 -4 -16 -16 -22 -63 -27 -51 -6 -59 -10 -65 -32 -5 -22 -10 -25 -39 -21
-25 3 -37 -1 -46 -15 -8 -14 -20 -18 -41 -15 -16 3 -29 2 -29 -2 0 -4 -21 -7
-46 -8 -37 0 -47 3 -53 21 -5 12 -18 30 -30 41 -11 10 -18 22 -16 26 3 5 -9
13 -25 19 -17 5 -30 16 -30 24 0 17 -30 27 -84 27 -22 0 -47 7 -57 15 -27 25
-69 10 -69 -25 0 -15 -7 -33 -15 -40 -9 -7 -13 -21 -10 -31 4 -11 -1 -21 -11
-27 -20 -11 -13 -65 12 -93 14 -16 14 -18 -6 -24 -12 -4 -27 -2 -33 4 -18 18
-23 13 -25 -26 -2 -21 -8 -40 -14 -42 -6 -2 -19 -12 -29 -22 -11 -11 -24 -19
-29 -19 -6 0 -8 -11 -4 -25 5 -19 2 -25 -11 -25 -9 0 -19 9 -22 21 -4 16 -12
20 -30 16 -16 -3 -27 2 -33 14 -8 14 -21 17 -60 15 -27 -1 -50 0 -50 2 0 2 7
10 15 18 11 11 13 26 9 55 -5 30 -3 40 10 45 18 7 21 36 6 64 -9 16 -8 18 5
14 11 -5 13 -2 9 10 -3 9 -10 16 -15 16 -5 0 -9 6 -9 13 0 18 -63 77 -82 77
-8 0 -21 -6 -27 -14 -6 -8 -32 -17 -57 -21 -39 -5 -50 -3 -68 14 -23 22 -75
26 -87 7 -9 -11 -42 1 -35 13 3 5 -4 11 -15 14 -26 7 -88 -3 -95 -15 -3 -5
-25 3 -49 17 -24 14 -50 25 -58 25 -8 0 -28 7 -46 16 -21 11 -44 14 -66 10
-25 -5 -46 -1 -75 14 -35 18 -40 18 -40 5 0 -12 -6 -15 -20 -10 -12 4 -27 1
-35 -5 -12 -10 -16 -9 -21 5 -5 12 -17 16 -43 14 -20 -2 -42 0 -49 5 -8 5 -10
2 -6 -8 5 -13 -3 -16 -46 -16 -28 0 -49 4 -46 9 7 11 -59 20 -76 10 -23 -13
-168 -15 -168 -3 0 20 -41 49 -66 46 -29 -4 -93 16 -112 35 -16 15 -36 18 -27
3 3 -5 -3 -10 -15 -10 -14 0 -22 -8 -26 -28 -8 -40 -40 -34 -91 17 -47 46 -49
51 -30 70 10 11 9 13 -6 7 -10 -3 -28 1 -40 9 -28 19 -38 19 -30 -1 5 -13 2
-15 -14 -10 -12 4 -25 1 -33 -9 -7 -8 -23 -15 -36 -15 -21 0 -23 4 -18 25 5
22 2 26 -24 31 -17 4 -39 15 -49 26 -18 20 -18 20 25 13 36 -6 46 -4 57 12 8
10 15 26 15 36 0 11 8 17 24 17 20 0 24 6 29 45 8 54 38 112 73 140 22 17 28
32 30 68 3 47 -19 75 -29 36 -8 -29 -37 -24 -37 6 0 14 5 25 11 25 6 0 9 6 6
14 -3 8 2 16 14 19 14 4 19 14 19 36 0 28 3 31 33 32 17 1 24 3 14 6 -9 2 -15
9 -12 14 3 5 1 19 -6 31 -9 16 -9 23 0 26 6 2 11 8 11 14 0 6 -6 6 -15 -2 -12
-10 -21 -10 -45 0 -16 7 -30 16 -30 21 0 5 -16 9 -35 9 -26 0 -39 6 -52 26
-21 33 -48 43 -91 33 -25 -5 -35 -4 -39 7 -3 8 -15 14 -28 14 -12 0 -29 7 -36
16 -10 12 -25 15 -56 11 -47 -5 -93 17 -74 36 7 7 3 19 -14 39 -14 16 -25 34
-25 39 0 6 -4 7 -10 4 -12 -7 -62 24 -55 35 6 9 -31 58 -62 83 -49 39 -55 50
-50 82 4 24 -1 39 -18 61 -18 22 -21 34 -14 53 7 17 5 30 -6 48 -16 24 -17 53
-1 64 4 4 3 16 -3 27 -15 28 -14 42 4 42 36 0 -6 69 -43 70 -9 0 -11 7 -7 20
5 14 2 20 -9 20 -9 0 -16 8 -16 20 0 22 -28 40 -63 40 -28 0 -60 30 -40 37 19
7 -10 57 -41 71 -14 6 -26 16 -26 22 0 5 -13 10 -29 10 -20 0 -30 -6 -34 -20
-4 -16 -14 -20 -45 -20 -39 0 -80 -28 -65 -45 5 -4 3 -6 -3 -2 -5 3 -18 -5
-28 -19 -11 -13 -29 -24 -42 -24 -13 0 -24 -4 -24 -10 0 -5 -4 -10 -10 -10 -5
0 -38 -20 -74 -46 -54 -37 -69 -43 -85 -35 -14 8 -22 8 -27 0 -3 -6 -16 -8
-27 -5 -11 3 -36 -2 -54 -10 -26 -13 -39 -14 -64 -5 -40 14 -89 14 -89 1 0 -5
5 -10 10 -10 11 0 14 -103 3 -113 -3 -4 -12 -2 -19 4 -10 8 -13 6 -11 -9 1
-13 6 -18 16 -14 8 3 5 -4 -7 -16 -12 -12 -22 -32 -22 -44 0 -20 -1 -21 -20
-3 -11 10 -17 22 -14 26 3 5 1 9 -5 9 -17 0 -35 41 -22 50 7 4 11 11 10 16 -1
5 1 17 5 26 4 9 3 26 -4 37 -9 17 -8 21 5 21 8 0 15 -4 15 -10 0 -5 9 -10 21
-10 11 0 18 4 15 9 -9 14 15 72 27 64 7 -4 8 0 4 11 -5 14 -3 17 8 13 27 -11
28 16 2 35 -15 11 -27 26 -27 34 0 37 -64 129 -82 118 -5 -3 -18 2 -28 11 -11
10 -26 15 -35 11 -32 -12 -74 32 -67 71 4 18 -17 26 -72 27 l-51 1 4 40 c1 22
8 43 14 47 8 5 7 14 -1 33 -7 15 -10 30 -7 35 3 4 -1 10 -9 13 -14 5 -29 60
-30 109 -1 17 -15 42 -37 65 -20 21 -35 43 -33 49 5 12 -58 44 -86 44 -11 0
-24 9 -30 20 -6 11 -18 20 -27 20 -21 0 -73 49 -73 67 0 8 -4 11 -10 8 -5 -3
-18 -2 -27 3 -22 11 -90 19 -120 14z m-150 -378 c-6 -17 -34 -15 -40 3 -2 6 4
13 14 15 25 6 33 0 26 -18z m874 -519 c3 -9 3 -19 -1 -22 -7 -7 -36 16 -36 28
0 15 30 10 37 -6z m1883 -1646 c0 -5 -4 -9 -10 -9 -5 0 -10 7 -10 16 0 8 5 12
10 9 6 -3 10 -10 10 -16z m6321 -964 c0 -13 -41 -19 -41 -7 0 11 20 22 33 18
5 -1 8 -6 8 -11z m-1461 -345 c0 -5 -2 -10 -4 -10 -3 0 -8 5 -11 10 -3 6 -1
10 4 10 6 0 11 -4 11 -10z m358 -622 c7 -7 12 -20 12 -31 0 -30 -33 -16 -37
16 -4 29 5 35 25 15z m-4448 -152 c0 -11 -19 -15 -25 -6 -3 5 1 10 9 10 9 0
16 -2 16 -4z m127 -426 c2 -21 -2 -30 -12 -30 -18 0 -18 1 -5 34 12 33 15 33
17 -4z m-38 -48 c-3 -7 -11 -5 -23 3 -10 8 -15 19 -11 25 9 14 40 -12 34 -28z
m5794 -811 c4 -4 0 -16 -8 -27 -14 -18 -16 -18 -29 -1 -7 9 -20 17 -29 17 -18
0 -30 27 -14 33 13 4 67 -11 80 -22z"/>
<path d="M4370 12550 c0 -5 5 -10 10 -10 6 0 10 5 10 10 0 6 -4 10 -10 10 -5
0 -10 -4 -10 -10z"/>
<path d="M4194 12349 c-12 -20 -56 -30 -73 -17 -10 8 -10 5 3 -10 11 -12 16
-22 11 -22 -4 0 -2 -7 5 -15 10 -12 9 -16 -4 -21 -19 -7 -21 -30 -3 -36 6 -3
26 -4 42 -4 24 1 30 5 30 24 0 15 11 30 28 40 15 9 27 22 27 29 0 16 -58 44
-66 32z"/>
<path d="M5617 12226 c-4 -10 -3 -15 3 -11 6 3 10 1 10 -6 0 -7 3 -10 6 -6 3
3 2 13 -4 22 -8 16 -9 16 -15 1z"/>
<path d="M4050 12215 c7 -9 15 -13 17 -11 7 7 -7 26 -19 26 -6 0 -6 -6 2 -15z"/>
<path d="M4215 12200 c3 -5 8 -10 11 -10 2 0 4 5 4 10 0 6 -5 10 -11 10 -5 0
-7 -4 -4 -10z"/>
<path d="M4181 12149 c-9 -27 -8 -29 17 -29 28 0 55 29 44 46 -4 6 -17 11 -29
11 -15 1 -24 -7 -32 -28z"/>
<path d="M4917 12061 c9 -25 24 -41 38 -41 10 0 11 5 2 24 -14 29 -49 44 -40
17z"/>
<path d="M11320 11596 c0 -2 6 -9 14 -15 10 -9 16 -8 26 4 11 13 8 15 -14 15
-14 0 -26 -2 -26 -4z"/>
<path d="M9090 10810 c0 -5 5 -10 10 -10 6 0 10 5 10 10 0 6 -4 10 -10 10 -5
0 -10 -4 -10 -10z"/>
<path d="M9082 10771 c-11 -7 -10 -10 3 -15 23 -9 25 -8 25 9 0 17 -9 19 -28
6z"/>
<path d="M9190 10760 c0 -5 5 -10 10 -10 6 0 10 5 10 10 0 6 -4 10 -10 10 -5
0 -10 -4 -10 -10z"/>
<path d="M9138 10735 c2 -14 8 -25 12 -25 4 0 12 11 18 25 11 23 10 25 -12 25
-19 0 -22 -4 -18 -25z"/>
<path d="M9043 10733 c-7 -2 -13 -16 -13 -30 0 -22 -3 -25 -30 -21 -16 3 -31
-1 -34 -7 -3 -8 15 -11 56 -9 60 3 90 15 69 28 -6 4 -11 -1 -12 -11 0 -14 -2
-13 -10 6 -6 16 -6 28 2 37 12 15 -2 18 -28 7z"/>
<path d="M9096 10725 c-3 -8 -1 -15 4 -15 6 0 10 7 10 15 0 8 -2 15 -4 15 -2
0 -6 -7 -10 -15z"/>
<path d="M4465 10229 c-4 -6 -3 -15 3 -21 6 -6 11 -4 15 6 7 18 -9 31 -18 15z"/>
<path d="M13804 10173 c10 -11 36 -12 36 -2 0 5 -10 9 -22 9 -12 0 -18 -3 -14
-7z"/>
<path d="M4710 9420 c-12 -7 -11 -12 5 -32 11 -13 26 -27 33 -31 6 -4 12 -15
12 -22 0 -8 6 -15 14 -15 8 0 22 -10 30 -22 18 -25 21 -12 6 26 -6 17 -6 26 0
26 16 0 12 57 -4 63 -8 3 -24 3 -35 0 -12 -3 -27 -1 -34 5 -8 7 -18 7 -27 2z"/>
<path d="M4771 9287 c-17 -31 -6 -50 24 -43 14 4 28 0 36 -10 11 -14 13 -14
22 2 11 19 -7 35 -37 31 -14 -1 -22 6 -26 22 l-5 23 -14 -25z"/>
<path d="M10390 8221 c0 -17 -5 -31 -10 -31 -6 0 -3 -11 6 -25 l16 -25 18 23
c16 19 16 25 4 49 -21 40 -34 44 -34 9z"/>
<path d="M10490 8157 c0 -4 -4 -5 -10 -2 -5 3 -10 -1 -10 -9 0 -21 -17 -20
-28 0 -8 15 -10 15 -15 0 -4 -11 -15 -15 -29 -12 -21 3 -23 0 -23 -40 -1 -39
2 -44 22 -44 17 0 26 -8 33 -27 6 -16 15 -36 20 -45 16 -28 12 -46 -12 -54
-20 -6 -20 -7 -3 -16 13 -8 20 -7 27 6 5 9 13 14 18 11 5 -3 12 -1 15 5 5 8
11 7 21 -1 9 -7 30 -9 59 -5 30 5 45 4 45 -4 0 -6 -7 -13 -15 -17 -14 -5 -14
-8 1 -24 16 -18 16 -19 -1 -19 -13 0 -16 -5 -10 -22 3 -13 7 -29 7 -35 2 -20
18 -15 18 5 0 33 13 33 46 1 32 -31 33 -31 57 -13 24 20 24 41 0 59 -7 6 -12
21 -11 34 2 14 -3 26 -11 29 -9 3 -12 0 -9 -10 4 -8 2 -21 -3 -29 -7 -11 -11
-10 -23 6 -9 12 -11 24 -5 30 5 5 9 16 9 24 0 8 -3 12 -6 9 -3 -4 -24 2 -47
12 -30 14 -45 16 -54 8 -16 -13 -18 -11 -27 20 -6 16 -3 22 8 22 9 0 16 5 16
10 0 6 -4 10 -9 10 -17 0 -18 35 -2 53 9 11 16 31 17 47 1 26 -2 28 -37 32
-22 2 -39 0 -39 -5z"/>
<path d="M8330 8060 c0 -5 5 -10 10 -10 6 0 10 5 10 10 0 6 -4 10 -10 10 -5 0
-10 -4 -10 -10z"/>
<path d="M10790 7984 c0 -10 -6 -14 -15 -10 -18 6 -20 -16 -5 -45 9 -16 7 -19
-11 -19 -18 0 -20 4 -15 26 6 21 4 25 -11 22 -27 -5 -27 -33 2 -48 39 -21 85
-17 107 10 17 21 17 25 3 40 -8 9 -15 22 -15 28 0 7 -9 12 -20 12 -12 0 -20
-7 -20 -16z"/>
<path d="M10487 7808 c-5 -18 -7 -18 -40 -2 -32 15 -37 16 -51 1 -9 -8 -16
-21 -16 -28 0 -7 -7 -19 -15 -28 -46 -51 -53 -60 -47 -65 3 -3 16 -6 30 -6 15
0 22 -5 19 -13 -5 -14 25 -15 56 -2 13 6 17 14 13 31 -5 19 -2 24 13 24 10 0
22 7 25 15 4 12 10 14 25 5 11 -5 31 -14 45 -20 24 -9 25 -8 15 18 -8 21 -7
29 7 39 22 16 14 24 -36 39 -35 10 -39 10 -43 -8z"/>
<path d="M10816 7811 c-3 -4 -19 -11 -36 -14 -17 -4 -30 -13 -30 -21 0 -10 6
-13 15 -10 8 4 17 -1 21 -9 3 -9 13 -13 25 -10 22 6 23 8 8 35 -9 18 -9 20 4
15 11 -4 14 -2 10 9 -6 16 -10 17 -17 5z"/>
<path d="M14285 7140 c3 -5 8 -10 11 -10 2 0 4 5 4 10 0 6 -5 10 -11 10 -5 0
-7 -4 -4 -10z"/>
<path d="M14325 7059 c-16 -16 -33 -29 -37 -29 -20 0 -5 -15 15 -16 12 0 46
-4 76 -7 54 -7 54 -7 36 13 -10 11 -27 20 -38 20 -12 0 -17 5 -14 13 11 30 -9
33 -38 6z"/>
<path d="M14212 6991 c-11 -7 -10 -9 3 -14 11 -5 14 -3 9 5 -5 8 -2 9 9 5 10
-3 17 -2 17 3 0 12 -20 13 -38 1z"/>
<path d="M13930 6970 c0 -5 5 -10 11 -10 5 0 7 5 4 10 -3 6 -8 10 -11 10 -2 0
-4 -4 -4 -10z"/>
<path d="M14481 6971 c-8 -6 -9 -11 -3 -15 6 -3 14 -1 17 5 9 14 2 20 -14 10z"/>
<path d="M15300 6610 c6 -11 15 -18 20 -15 4 3 11 -1 13 -7 3 -8 6 -6 6 4 1
10 -8 22 -18 28 -28 15 -33 13 -21 -10z"/>
<path d="M15265 6578 c9 -23 32 -30 39 -11 4 10 2 13 -8 10 -7 -3 -19 0 -25 6
-9 9 -11 8 -6 -5z"/>
<path d="M15370 6555 c0 -8 9 -15 20 -15 11 0 20 2 20 5 0 2 -9 9 -20 15 -16
9 -20 8 -20 -5z"/>
</g>
</svg>
