<svg version="1" xmlns="http://www.w3.org/2000/svg" width="848.129" height="464.817" viewBox="0 0 636.097 348.613"><g fill="#222"><path d="M103.596.275c0 1.3 4.9 6 5.8 5.6.4-.2.8.1 1 .7.2.5-.7 1.5-1.9 2.2-2 1-2 1.2-.6 2.1 1.4.7 1.6 1.9 1.1 6.3-.6 4.6-.4 5.6 1 6.1 1.1.4 2.4-.2 3.6-1.6 2.5-2.9 2.5-4.1 0-4.7-2.6-.7-2.5-1.8.2-3.7 1.6-1.1 1.8-1.8 1.1-2.8-.6-.7-1.3-2.4-1.5-3.8-.2-1.9-1-2.6-3.2-2.8-1.6-.2-3.7-1.3-4.7-2.5s-1.8-1.7-1.9-1.1zM179.396 6.475c-1.6.7-2.8 2-2.8 2.8 0 .7-.4 1.4-.9 1.4-.6 0-2.2 1.1-3.6 2.4-2.4 2.2-2.4 2.5-.9 3.4 2 1.1 5.6.4 6.7-1.5 1.2-1.9 2.3-1.6 4.2 1.3 1.6 2.5 1.6 2.7-.6 5-1.4 1.5-2.9 2.2-4 1.9-1.4-.5-2.2.3-3.4 3.1-1.5 3.5-1.6 3.6-3.4 2-1.8-1.6-1.9-1.5-2.5 2.6-.3 2.4-.6 5.2-.6 6.3.2 8.1-.3 12.1-1.6 13.7-1 1-1.3 2.2-.8 3 1.3 2 1.6 5.8.4 5.8-1.4 0-1.3 3.3.2 4.8 1 1 1 1.5-.1 2.1-1 .6-1.2 1.9-.8 4.2.6 3.2.6 3.3-.8 1.5-1.9-2.5-3-1.4-1.5 1.4 1 1.8.9 2.4-.1 3.1-.8.5-1.8.9-2.2.9-.4 0-1.3 1.3-1.8 3-.7 1.9-1.8 3-3 3-1.1 0-2.2.7-2.6 1.6-.3.8-1.2 1.3-1.9 1-1-.4-1.4.4-1.4 2.8 0 3.1-3.3 7.7-4.6 6.3-.9-.9-6.4 1.4-6.4 2.7 0 1.9-4.1 3.9-5.3 2.7-.8-.8-.8-1.4.1-2.3 1.8-1.8 1.5-5.2-.7-7.9-2-2.7-2.1-7.9-.2-10.3 1.9-2.2.7-4.6-1.9-3.9-1.2.3-2.4 1.2-2.7 2-.4 1.1-1.5.8-5.2-1.4-2.5-1.4-5.1-3.3-5.7-4.1-.6-.9-1.8-1.3-2.7-.9-.8.3-2.2-.2-3.2-1.3-.9-1-2.9-2-4.6-2.4-2.6-.5-2.9-.8-1.9-2.6 1.3-2.4.2-2.6-5.3-.7-5.2 1.9-6.2 3-4.6 5.5 1.1 1.8 1 2.4-.8 4.4-1.1 1.3-1.9 2.8-1.6 3.5.2.6-.5 1.4-1.7 1.8-1.1.3-1.8 1-1.6 1.4.3.4-.4 2.2-1.4 3.9-1.7 2.8-1.8 3.2-.3 4 1.1.6 1.2 1.1.4 1.6-.6.4-1.1.2-1.1-.4 0-.6-1-.8-2.4-.4-1.4.3-2.9 0-3.8-1-1.1-1-1.8-1.2-2.6-.4-1.5 1.5-3.2.1-3.2-2.6 0-3-3.1-5.8-5-4.6-.9.5-1.9.5-2.7-.1-.8-.7-1.8-.7-3.1 0s-2.2.7-3.1-.2c-.9-.9-1.4-.9-2 .2-.5.8-1.4 1-2.1.6-.9-.5-1.1-.4-.6.3.5.8 0 1.2-1.3 1.2-1.2 0-2.1.4-2.1.9 0 1.5-4.9 2.2-6.8 1-1.4-.9-2.8-.6-7 1.5-2.8 1.4-6.3 2.6-7.6 2.6-1.8 0-2.4.4-2 1.5.5 1.2-.2 1.5-3.1 1.5-3.4 0-3.7.2-3.3 2.4.4 1.8-.1 2.8-1.9 3.7-1.8 1-2.3 1.9-1.9 3.5 1 4-2.7 8.8-8.1 10.3-6.4 1.9-6.3 1.7-5.3 5.1.5 1.8.5 3.2-.1 3.5-1.5 1-1 5.7.8 7.7 1.3 1.5 1.4 2.3.5 4.3-.9 1.9-.9 3.1 0 5 1 2.3.8 2.9-1.8 5.5-6.4 6.5-6.4 6.2-1.4 9.6 2.8 1.9 4.6 4 4.8 5.5.5 3.1 1.8 4.4 4.5 4.4 1.3 0 2.3.7 2.5 1.7.2 1.2-.3 1.8-1.6 1.8-1.7 0-2 .6-1.8 3.2.2 1.8.4 4.8.5 6.6.1 2.4.7 3.5 2 3.9 1.1.3 2.2 1.2 2.5 2 .3.8 1.1 1.1 1.7.8 1.4-.9 6.9 4.4 6.9 6.6 0 1-.9 2.1-2 2.4-2.5.8-2.6 2.1-.2 3.4.9.6 1.3 1.1.7 1.1-2.8.1-3.5 1.6-2.4 4.9.8 2.4 1.6 3.1 2.8 2.6.9-.4 3.8-1.1 6.5-1.8 2.6-.6 5-1.7 5.3-2.4.6-1.6 7.5-1.7 9.1-.1.9.9 1.7.7 3.4-.8 4.4-3.8 10.4-7.4 13.6-8 2.9-.6 3.2-.4 3.2 1.8 0 1.4.9 3.3 2 4.3s2 1.5 2 1c0-.4.6-.2 1.4.4 1 .9 1.6.7 2.7-.5.7-.9 2.2-1.4 3.5-1.1 1.6.3 2.1 0 1.7-1-.3-.8.3-1.3 1.7-1.3 1.9 0 2.1-.4 1.6-2.5-.6-2.3-.4-2.4 2.6-1.8 1.8.3 3.8 1 4.5 1.5.7.5 1.7.7 2.2.4 1.7-1.1 5 6.5 4 9.1-.5 1.3-1.3 2.3-2 2.3-.6 0-.9.7-.5 1.5.3.9 0 1.5-.9 1.5-.8 0-1.5.4-1.5.9 0 1.2 4.8 2.3 6.2 1.5 1.8-1.1 6.8-1.2 6.8-.1 0 .5 1.1.2 2.5-.7 2.4-1.6 2.7-1.6 5.5.1 1.7.9 3 2.3 3 3 0 1 .7.9 2.8-.4 1.5-1 2.9-2.1 3.2-2.5.3-.4 2.6 0 5 .8 3.4 1.2 4.9 1.3 6.3.5 1.4-.9 1.9-.8 2.3.4.7 1.8 3.4 2 3.4.3 0-.6.3-.8.6-.5.4.4 2.6-1.3 4.8-3.7 2.3-2.4 5.2-4.8 6.4-5.5 1.5-.8 2.2-2.1 2.2-4.1 0-2 .5-3 1.5-3 .8 0 1.9-.9 2.6-2.1.7-1.4 1.7-1.9 3-1.6 1.2.3 2.2 0 2.5-.8.8-2.1 10.3 4.4 10.3 7 .1 2.3 5.7 5 8.3 4 .8-.3 2.1.1 2.8 1 .7.8 1.8 1.5 2.5 1.5s1.7 1.3 2.3 2.8c.6 1.8 2.4 3.5 4.6 4.6 2 .9 3.4 2.1 3.1 2.7-.4.5.1.9.9.9.9 0 1.6.4 1.6.8 0 1 9 5.4 9.1 4.4.1-.4.3-1.6.4-2.7.1-1.2.7-3 1.4-4.2 1.6-3.1 1.4-4.3-.7-4.3-1 0-2.9-1.1-4.2-2.5-2.6-2.8-14-8.9-14-7.5 0 .5-1.3.1-2.9-.8-1.6-.9-2.5-1.9-2-2.3.6-.4 0-2.1-1.5-4.4-1.4-2.1-2.6-4.7-2.6-5.9 0-1.2-2.3-5.2-5-9-2.8-3.8-4.9-7.6-4.8-8.4.2-.8-2.3-3.2-5.9-5.6-6.3-4.2-6.7-4.8-9.9-12.6-1-2.5-2.6-5.2-3.7-6.1-1.5-1.2-1.7-1.8-.7-2.4.9-.5 1.1-.4.6.3-.4.7-.3 1.2.2 1.2s1.4-1.1 2-2.5c.6-1.4 1.8-2.5 2.7-2.5.8 0 1.5-.2 1.5-.4 0-.9-6.4-7.6-7.3-7.6-1.4 0-7-5-8.4-7.4-1.4-2.4-1.7-10.6-.5-10.6.5 0 1.7.7 2.8 1.5 2.9 2.2 5.4 1.8 7.7-1.1l2-2.6 1.7 4.3c1.4 3.4 2.3 4.5 4.4 4.7 1.4.2 3.4 1.4 4.5 2.8 1 1.3 2.3 2.4 2.8 2.4s2.3 1.6 4 3.5c4.3 4.8 5.4 4.5 3.7-1-1.2-4.3-1.2-4.6 1-6.8 1.3-1.2 3.2-2.7 4.2-3.3 1.1-.7 1.8-1.9 1.8-2.8-.1-.9.4-1.6 1.1-1.6.8 0 1.1-.9.8-2.4-.4-1.8 0-2.6 1.6-3.1 2.9-.9 7.1-6.2 7.1-9 0-1.3.5-2.7 1-3 1.6-1 1.2-2.5-.7-2.6-1.1 0-1.3-.3-.5-.6.6-.2 1.2-1.5 1.2-2.7 0-3.1 2-8.6 3.1-8.6.5 0 .4-.9-.3-1.9-.7-1.1-1.4-1.8-1.8-1.6-.3.2-.5-2.8-.5-6.5l-.1-6.8 2.3 1.8c2.5 1.9 7.3 1.6 7.3-.6 0-.7 1.6-1.6 3.6-2 2.3-.4 3.1-.9 2.3-1.4-.9-.6-.8-1.2.4-2.5 1-.9 1.7-2.5 1.7-3.6 0-1.2 1-2.3 2.5-2.9 1.4-.5 2.5-1.3 2.5-1.7-.1-1.2-3.7-5.3-4.7-5.3s-6.3-4.5-6.3-5.4c0-.4 1-1 2.1-1.5 2-.7 2.2-1.6 2.3-8.2.1-6.6-.1-7.7-2.3-10.1-1.3-1.5-2.2-3.1-1.8-3.4.3-.4 0-1.9-.8-3.4-1.3-2.4-1.3-2.9 0-3.4.8-.3 1.2-1.2.9-2.1-.8-2.1-2.1-1.9-2.9.4-.6 1.9-1.6 1.9-9.2-.4-1.5-.5-2.3-.3-2.3.5 0 1-.3 1-1.5 0-2.1-1.8-7.5-1.9-10.7-.2zm-24 91.9c1.6 1.6 1.6 1.6-.1 1-1-.4-2.3-.7-2.8-.7s-.9-.5-.9-1c0-1.5 2-1.2 3.8.7zm-4.8 2.5c0 .6.9 2.2 2.1 3.4 1.7 1.8 1.8 2.2.5 2.7-1.1.4-1.8-.1-2.2-1.8-.3-1.4-1-2.2-1.5-1.9-.5.3-.9-.4-.9-1.5 0-1.2.5-2.1 1-2.1.6 0 1 .5 1 1.2zm-10.2 40.2c1 2.3 1 2.4-1.9.9-3.8-1.9-4.3-2.8-1.5-3.1 1.6-.1 2.7.6 3.4 2.2z"/><path d="M107.096 27.675c-1.2 1.4-2.5 1.8-4.1 1.4-1.5-.4-2.4-.2-2.4.6 0 .6-.6 1.8-1.4 2.6-.8.7-1.6 1.9-1.8 2.6-.3.9-1.7.2-4.2-2-2-1.7-4.1-3.2-4.6-3.2-1.3 0-1.3 1.7 0 2.5 1.6 1 1.1 4-1.1 6.4-1.4 1.4-1.8 2.8-1.3 3.9.4.9.8 2.1.8 2.7.1.5 1.1 1.1 2.3 1.3 1.2.2 2.7 1 3.3 1.8.7.8 1.9 1.4 2.6 1.4 1.3 0 1.6.7 1.8 5.5.1 1.2 1.5 2.6 3.9 3.7 2 1 3.7 2.3 3.7 3 0 .6.7.4 1.8-.5 1-1 2.6-1.7 3.5-1.7 1.2 0 1.7-.8 1.7-2.6 0-2.4.3-2.6 4.2-2.2 4.1.3 4.3.1 6.2-3.7 2.5-5.3 3.1-10.8 1.7-14.3-1.2-3-6.6-6.2-10.2-6.2-1.2 0-2.3-1-2.9-2.5-1.1-3-1.2-3-3.5-.5zM81.296 42.675c-1 4.9-.9 6 .8 5.4.8-.4 1.5-.1 1.5.6 0 .6.5.8 1 .5 1.6-1 1.1-4.8-.9-7.4l-1.8-2.4-.6 3.3zM74.396 50.775c.7.9 1 2.4.6 3.3-.4 1.2 0 1.6 1.6 1.6 2.9 0 2.3-2.7-1-4.9-2.3-1.4-2.4-1.4-1.2 0zM80.196 51.175c-.3.9 0 1.5.9 1.5.8 0 1.5-.7 1.5-1.5s-.4-1.5-.9-1.5-1.1.7-1.5 1.5zM517.196 117.075c1 .8 1.6 1.8 1.1 2.2-.4.4-1.3.2-1.9-.4-2.1-2.1-3.9-1.4-3.2 1.2.3 1.3.1 2.7-.5 3-.6.4-1.1 1.6-1.1 2.7 0 1-.5 1.9-1.2 1.9-.9 0-.9.3-.1 1.1.6.6.9 2.5.6 4.3-.4 2.4.1 3.7 2 5.8 2.2 2.4 2.8 2.5 7.1 1.7 2.6-.5 5.2-1.2 5.8-1.5 1.6-1 5.9 1.8 5.3 3.4-.4 1.2-.3 1.3 1 .2 1.1-.9 1.2-1.7.5-3-1.4-2.5-1.3-3.3.3-2.7 2 .8 4-2.9 2.8-5.2-1.2-2.2-.5-3.1 2.5-3.1 2.3 0 4.9 3.1 3.6 4.4-.3.4 0 1.1.8 1.6s1.5 2.1 1.6 3.7c.1 2.3.6 2.9 3.5 3.5 3.9.8 4 .7 4.2-2.1.1-1.8.3-1.9 1.7-.6.9.8 2.2 1.5 2.8 1.5.7 0 1.2.5 1.2 1.1 0 .6-.7.9-1.4.6-1-.4-1.3-.1-.9.9.7 1.9-2 4.9-5.8 6.4-2.1.9-2.8 1.8-2.4 3 .3.9-.1 2.3-1 3-.8.7-1.5 1.8-1.5 2.6 0 .7-.8 1.7-1.7 2.3-1.5.8-1.6 1.2-.5 2.2 1.4 1.5 1.6 5.9.3 5.9-.5 0-.7.9-.4 2 .5 1.8-.5 2.5-3 2.1-.5-.1-1.1.8-1.4 1.9-.3 1.3-1.1 1.9-1.9 1.6-.8-.3-1.4.1-1.4.8 0 1.9-7.2 4.5-14.3 5.1-1.6.2-3.4.8-4 1.4-1.6 1.6-2.2 1.4-5.6-1.5l-3.1-2.6-3 3.1c-1.7 1.6-3.8 3.2-4.9 3.6-1 .3-2.4 1.6-3.1 2.9-1.5 2.9-15.3 9.6-19.7 9.6-1.9 0-3.3.6-3.7 1.6-.4 1-1.7 1.5-3.8 1.4-1.8-.1-5.2-.2-7.5-.1-4.2.1-4.2.1-3.6 3.3.6 2.8.4 3.1-1.5 2.6-1.7-.5-2.3-.1-2.8 1.8-.7 2.9-5.7 5.5-9.2 4.8-2.1-.4-3 0-4.1 1.7-1.2 2.1-1.2 2.4.6 3.6 2.3 1.5 2 6.3-.3 6.3-1.9 0-1.8 5.3 0 8.9.8 1.5 1.3 3.7 1 4.8-.5 2 2.8 6.3 4.8 6.3.4 0 .8.7.8 1.5s.5 1.5 1 1.5c1.7 0 1.2 5.7-.6 6.4-.9.4-1.3 1.3-1 2.3 1.2 3.8 1.5 9.3.5 9.3-.6 0-.9 1.4-.7 3.1.2 2.4-.2 3.5-1.7 4.3-3.1 1.7-3.6 2.8-2.9 6.8.5 3.1.2 3.7-1.5 4.3-2.4.7-2.6 1.6-.9 3.3.9.9.9 1.2-.1 1.2-.8 0-1.1.6-.7 1.7.4.9.1 2-.5 2.4-.9.5-2.1 6.9-1.3 6.9.1 0 1.8-.7 3.7-1.5 2-.8 5.3-1.5 7.2-1.5 3.9 0 7.5-1.5 8.8-3.7.6-.9 1.3-1 2.7-.3 1.2.7 2.7.7 4.4 0 5.4-2 12.6 2.2 11 6.4-.5 1.2 0 1.6 2 1.6 1.4 0 2.6.5 2.6 1.1 0 .6 1.2.9 2.8.7 1.9-.2 2.7-.8 2.6-2.1-.2-2.5 1.9-2.1 4.7.9 1.6 1.8 2.4 3.7 2.4 6.7.1 2.3 1 5.8 2 7.7 1.2 2.3 1.4 3.5.6 3.8-.6.2-1.1 1.3-1.1 2.4 0 1.2.5 1.8 1.3 1.5 1.9-.7 4.3 1.4 5.1 4.5.4 1.9 1.3 2.8 2.6 2.8 1.1 0 2 .4 2 .9 0 1.8 4.5 2 6.5.2 2.4-2.1 9-4.1 13.7-4.1 2.2 0 4.2-.7 5.3-2 1-1.1 2.6-2.2 3.6-2.5 1.3-.4 1.9-1.8 2.1-4.8.3-3.7.6-4.2 3-4.5 3-.4 4.4-2.8 2.7-4.8-.9-1.1-.8-1.4.6-1.4 1.1 0 1.5-.5 1.1-1.5-.3-.8-.2-1.5.3-1.5 1.5 0 3.3 2.9 2.7 4.5-.8 2.1 6.5 2 10.9-.1 2.6-1.2 3.8-1.3 5.4-.4 1.7.9 3.1.6 6.9-1.2 2.6-1.2 6.3-2.5 8.2-2.8 2.6-.4 3.6-1 3.8-2.6.2-1.7.8-2.1 2.5-1.7 1.8.4 1.4-.3-1.8-3.3-3.3-3.2-3.9-4.3-3.6-7.4.2-1.9.7-4 1.2-4.6.5-.6.5-1.4.1-1.9-.4-.4.5-.5 1.9-.2 3.3.8 6.4-2.2 5.4-5.2-.5-1.6-.3-2 .9-1.5 1.1.4 1.6 0 1.6-1.1 0-1.2.5-1.5 1.6-1.1.9.3 1.8.6 2 .6.2 0 .4.7.4 1.5 0 1.9 4.6 2 5.7.2.4-.8 1.6-1.6 2.5-2 1.2-.4 1.5-1.2 1.1-2.3-.4-1.2-.3-1.5.6-1 .8.5 1.6-.3 2.3-2.2 1-2.6 1.6-3 3.9-2.5 1.9.3 2.8 0 3.3-1.2.4-1.2.2-1.6-.8-1.2-1.7.7-4.6-4.3-4.6-8 0-1.2-.8-3.1-1.8-4.1-1-1-1.7-2.3-1.4-3 .2-.6-1.4-2-3.5-3-2.1-1.1-4.7-2.9-5.7-4.1-1.9-2.1-1.9-2.2.4-3.8l2.3-1.6-2.2-1.8c-1.2-1-1.9-2.3-1.6-2.9.4-.6.9-3 1.1-5.3.2-2.3.8-5.8 1.5-7.8.9-2.8.8-4.6-.4-8.6-1.2-4.1-1.3-5.5-.3-6.9 1.3-2 1.3-8.1.1-12.7-.5-1.7-.3-2.7.4-2.7.6 0 .8-1.1.5-3-.5-2.3-.3-3 .8-3 1.2 0 1.4-.8.8-4-.4-2.2-1.5-4.9-2.4-5.9-.9-.9-1.6-2.1-1.6-2.5 0-.4-.9-1.5-2.1-2.4-2.3-2-2.9-4.6-1.8-8.4.5-1.8.2-3.3-.8-4.8-1.2-1.8-1.3-2.4-.3-3 .9-.6.6-1.2-1.3-2.5-1.4-.9-3.1-1.4-3.7-1-1.5.9-4-1.3-4-3.6 0-1.1-.5-1.9-1.1-1.9-.5 0-1.4-1.2-2-2.8-.5-1.5-2.3-3.5-3.9-4.4-2.3-1.3-3-2.4-3-4.7 0-1.7.7-3.4 1.5-3.8 1.2-.7 1.3-1.6.4-4.7-.6-2.1-1.3-3.5-1.6-3.2-.4.3-1.1.2-1.7-.3-.6-.4-2.3-1.1-3.8-1.5-2.4-.5-2.8-.3-2.8 1.4 0 2.3-2.8 2.7-3.6.5-.6-1.5-1.4-1.1-5.5 3-1.1 1.1-2.8 2-3.7 2-1 0-1.8.9-2 2.4-.3 2-.8 2.2-3.4 1.7-1.7-.3-3.9-.6-4.9-.6-1.1 0-1.9-.6-1.9-1.4 0-2-2.6-4-3.5-2.6-.4.6-.2 1.7.4 2.4.6.7.8 1.6.4 1.9-1 1.1-5.3.8-5.3-.3 0-.6-.6-1-1.4-.8-.8.2-3-1.4-4.9-3.5-1.9-2-3.2-3.7-2.9-3.7.3 0-.3-.9-1.3-2s-2.3-2-2.8-2c-.6 0-.2.6.9 1.4zm53.9 173.6c1 1.1 1.6 2 1.3 2-.3 0-1.3-.9-2.3-2-1-1.1-1.6-2-1.3-2 .3 0 1.3.9 2.3 2zm-18.7 3.6c3.7.3 7 .9 7.4 1.2.4.4 0 1.6-.8 2.7-1.2 1.7-1.7 1.8-3.5.7-1.1-.7-3-1-4.1-.6-1.4.4-1.7.9-.9 1.3 1.7 1.1.4 3.6-2.5 4.9-2.1 1-2.4.9-2.4-.8 0-1-.6-2.5-1.3-3.2-2.7-2.6-3.5-5.1-2.3-6.4.6-.7 1.7-1.1 2.4-.9.8.3 4.4.8 8 1.1zm11.9 1c-.3.3-1.2.4-1.9.1-.8-.3-.5-.6.6-.6 1.1-.1 1.7.2 1.3.5z"/><path d="M522.596 119.175c0 1.6 1.6 2 2.4.6.3-.5-.1-1.1-.9-1.5-.9-.3-1.5 0-1.5.9zM151.296 119.275c-.8.8.3 3.4 1.4 3.4.5 0 .9-.9.9-2 0-1.9-1.1-2.6-2.3-1.4zM145.596 120.175c0 .5.5 1.7 1 2.5s1 1 1 .5c0-.6-.5-1.7-1-2.5s-1-1.1-1-.5zM530.796 123.675c1.4 2.2 2.4 1.9 1.5-.5-.4-.8-1.1-1.5-1.7-1.5-.6 0-.6.7.2 2zM180.296 132.375c-1.1 1-.8 2.5.4 1.8 1.3-.8 4.9 2.3 4.9 4.2 0 .7.9 2.1 2 3 1.6 1.4 2 3 2 8 0 4.7-.4 6.3-1.4 6.3-1.4 0-3.1 2.7-2.7 4.4.1.5-.8 1.9-1.9 3.2l-2.2 2.2 2.1 1.1c1.2.7 2.1 1.7 2.1 2.4s1.6 2.1 3.5 3.1c3.2 1.7 3.7 1.8 5.1.5 1.2-1.2 2.3-1.3 5.9-.5 2.5.6 4.5 1.6 4.5 2.4 0 1.6 4.8 6.2 6.5 6.2 3 0 2.6-8.5-.7-14.8-1.8-3.7-2-4.7-.9-6.4.7-1.1.8-1.7.2-1.4-.5.4-1.5-.2-2-1.3-.7-1.3-.8-2-.1-2.3.6-.2-.6-2-2.5-4.1-2.7-2.9-3.4-4.2-2.6-5.1 1.3-1.5.4-2.4-4.4-4.5-1.6-.7-3.7-1.7-4.5-2.2-.8-.5-3.4-1.7-5.6-2.8-2.3-1-4.5-2.4-4.8-3-.8-1.2-1.9-1.4-2.9-.4zM351.596 152.675c0 4.2 0 4.3 2.2 3.5 1.8-.7 1.2-6.1-.8-6.9-1.1-.4-1.4.4-1.4 3.4zM344.496 159.675c-.6 1.8-.5 4.9.2 4.5.4-.3.9.1 1.2.7.2.7.7 1 1.1.6.4-.3.1-1.9-.8-3.5-.8-1.5-1.6-2.6-1.7-2.3zM340.096 167.875c-.4.9-1.3 1.4-2.1 1.1-.8-.3-1.4 0-1.4.7 0 .8-.9 1.1-2.6.7-2-.3-2.8 0-3.1 1.4-.3 1.1-1.3 1.9-2.3 1.9-1.5 0-2 1.1-2.5 5.3-.7 5.5-5.8 15.3-7.4 14.2-1.7-1-6.7.7-8 2.6-1 1.7-.8 2.5.9 4.8 1.1 1.6 2 3.8 2 4.9 0 3.4 1.9 7.2 3.5 7.2 1.2 0 1.5.6 1 2-.4 1.1-.2 2 .4 2 .6 0 1.1.7 1.1 1.5 0 1 1 1.5 2.9 1.5 1.7 0 3.1.6 3.5 1.6.3.9 1.2 1.4 1.9 1.1.6-.2 3.6.5 6.6 1.6 4.2 1.5 5.5 1.7 6.1.7.4-.7 1.7-1 2.9-.7 1.9.5 2.6-.3 2.2-2.6 0-.4.6-.7 1.5-.7 1 0 1.4-.6 1-1.5-.7-1.8-.8-1.8 4.3 0 2.5.9 4.1 1 4.1.4 0-.7 1.2-.8 3.3-.3 1.7.4 4.6.8 6.2.8 2.5.1 3.6 1 6.4 5.1 1.8 2.7 3.8 4.9 4.5 4.8 5-.7 16.3-4.5 17.2-5.8 1-1.4 1.6-1.5 3.5-.4 2 1 2.5.9 4.1-1.1 1.9-2.3 8.8-6.3 9.6-5.5.3.3 1.2-.4 1.9-1.5 1.1-1.6 1.8-1.8 3.3-1 2.7 1.4 3.4 1.2 1.9-.6-.8-1-2.2-1.4-4-1-1.7.3-3.2 0-3.9-.9-1.6-1.9-3-1.9-3 0 0 1.7-1.6 2-2.5.5-.4-.6-1.2-1-1.8-.9-.7.1-2.9-.1-5.1-.6-3.1-.6-4-.5-4.8.9-.6 1.1-2.3 1.6-5.8 1.6-4 0-5 .3-5.5 2.1-.6 1.9-.8 1.9-2.4.5-1-.9-2.8-1.6-4-1.6-1.2 0-2.9-.6-3.7-1.4-.7-.8-1.8-1.6-2.3-1.8-.5-.1-1.3-1.5-1.6-3-.6-2.2-.3-2.9 1.1-3.4 4-1.2 4.9-2.3 5.5-6.5.8-5.7-.2-7.8-3.7-7.1-2.2.4-2.5.2-2-1.5.6-1.7.1-1.9-6.6-1.9-6.7 0-7.4-.2-8.5-2.4-.7-1.4-1.8-2.5-2.5-2.5s-2-.7-2.9-1.5c-.9-.8-2.4-2-3.3-2.5-1.6-.9-1.6-1.4-.3-5.3 1.4-4 .9-6-1.2-4.7-.6.3-1.4-.3-2-1.2-.9-1.7-1-1.7-1.6-.1zm-6.7 20.3c-.3.3-.9-.2-1.2-1.2-.6-1.4-.5-1.5.5-.6.7.7 1 1.5.7 1.8zM5.596 180.575c1 2.1 3 3.7 3 2.6 0-1.4-2.1-4.5-3.1-4.5-.6 0-.6.7.1 1.9zM9.796 184.575c-2.3 1.9-1.8 3.9.4 2 1-.8 2.1-.6 4.1.9 1.5 1.1 3.1 2 3.6 2.1.4.1.8.2 1 .2.1.1 1.4.2 2.9.3 2.9.2 2.7-1-.6-3.4-3.8-2.8-6.6-4-6.6-2.8 0 .7-.4.7-1.3-.1-1.1-.8-1.9-.6-3.5.8zM256.996 185.675c-.6.6-2.9 1.1-5.2 1.3-2.3.1-4.2.6-4.2 1 0 .5-.5.5-1.2.1-.6-.4-1.7.1-2.4 1-.8 1.2-1.4 1.4-1.9.6-.5-.8-1.3-.6-2.6.6-1.8 1.7-2.2 1.7-7.3.1-6.7-2.1-9-2.2-8.2-.2.6 1.8.1 1.9-2.4.5-1.4-.8-2.1-.5-3.4 1.5-.9 1.3-1.6 3.3-1.6 4.4 0 1.1-.5 2.3-1.1 2.6-.6.4-.7 1.9-.4 3.7.4 1.8.3 2.8-.2 2.5-.5-.3-1.4.3-2.1 1.3-1.2 2 .1 3 3.9 3 1 0 1.9.4 1.9 1 0 .5 1.1 1 2.5 1s2.5.5 2.5 1.1c0 .6.7.8 1.6.5 2-.8 6.4 1.9 6.4 3.9 0 1.9 4.8 5.5 7.5 5.5 1.2 0 3 .9 4 2s2.6 2 3.5 2c.9 0 3.3 2.4 5.4 5.4 5.5 8.1 15.9 17.6 19 17.6 1.5 0 3.8.7 5.1 1.6 1.4.9 3.2 1.4 4 1 1.1-.4 2.2.4 3.3 2.4 2.3 4 3.8 3.8 4.6-.5.4-2 2-5 3.6-6.9l2.9-3.3-2.6-1.2-2.6-1.2 3-3.2c2.4-2.5 3.2-4.4 3.5-8.4.3-2.8.1-5.8-.4-6.7-1.4-2.6.8-1.9 3 .9l1.9 2.4 1.9-2c1.2-1.3 2.7-1.9 4.2-1.6 1.7.3 2.2.1 1.8-.9-.6-1.6 1-1.9 1.9-.4.8 1.2 4.5 1.3 4.5.1 0-.5.9-.7 2.1-.4 1.7.5 2 .2 1.7-1.3-.4-2.4-5.7-5.1-6.8-3.5-.9 1.6-4.3.2-3.6-1.5.3-.7-.1-1.8-.9-2.4-1.1-.9-2-.6-4 1.4-3 3.1-4.4 2.7-3.7-.9.3-2 0-2.5-1.6-2.5-1.2 0-2.6-.9-3.3-2.1-1-1.9-1.6-2-6.5-1.4-4.3.5-6.1.3-8-1-1.3-.9-2.8-1.3-3.3-1.1-1.6 1-6.5-7.7-6.6-11.7-.1-3.7-1.6-5.7-4.3-5.7-.7 0-1 .4-.7 1 .3.5-.1 1-.9 1-.9 0-1.6-.4-1.6-1 0-.5-.7-.7-1.5-.4-2 .8-4.1-.6-2.5-1.6.7-.4.8-1 .3-1.3-.6-.4-1.4-.2-1.9.3zM214.596 187.675c0 .5.5 1 1 1 .6 0 1-.5 1-1 0-.6-.4-1-1-1-.5 0-1 .4-1 1zM212.596 192.375c-.8.3-2.6 1-4 1.5-2.3.9-2.4 1-.6 2 2.1 1.2 6.6-.7 6.6-2.9 0-.7-.1-1.3-.2-1.2-.2 0-1 .3-1.8.6zM20.196 207.175c.4.8 1 1.5 1.5 1.5s.9-.7.9-1.5-.7-1.5-1.5-1.5c-.9 0-1.2.6-.9 1.5zM426.096 218.675c.3.5 1 1 1.6 1 .5 0 .9-.5.9-1 0-.6-.7-1-1.6-1-.8 0-1.2.4-.9 1zM317.096 224.775c-.4 1-1.1 1.9-1.7 1.9-.5 0-.7.7-.4 1.6.4.9 0 2.7-.9 4-1.6 2.4-1.1 5.4 1.2 6.7 1.8 1.1 1.7 3.6-.2 4.3-.8.4-1.5 1.5-1.5 2.5 0 1.2-.7 1.9-2 1.9-1.9 0-2 .4-1.4 5.5.6 4.7.4 5.5-1 5.5-.9 0-1.6.7-1.6 1.5 0 2.1 4.7 0 8-3.5 1.4-1.5 3.5-3.2 4.6-3.8 1.6-.8 2.3-2.4 2.7-5.9.3-2.7.1-5.4-.5-6.1-.8-.9-.6-1.8.6-3.1 1.4-1.5 1.5-2.3.5-4.4-.9-2.1-.9-3 0-4.1 1-1.2.9-1.8-.7-3.4-2.9-2.9-5-3.4-5.7-1.1z"/><path d="M298.296 228.275c-1.1 1.1.5 3.4 2.3 3.4 1.3 0 1.7-.5 1.3-2-.5-1.9-2.3-2.6-3.6-1.4zM306.596 264.075c0 .7 1.1 2.1 2.5 3 1.4.9 2.5 1.2 2.5.7 0-1.3-2.6-3.2-3.4-2.4-.4.4-.4 0 0-1 .3-1 .1-1.7-.5-1.7s-1.1.6-1.1 1.4zM301.596 270.575c0 .5-1 1.1-2.2 1.5-1.8.4-2 .8-1 1.8.6.6 1.2 2.1 1.2 3.1 0 1.6-.3 1.7-1.5.7-1.3-1-1.5-.9-1.6 1.1-.1 1.3-.1 2.7 0 3.1 0 .4-.7.4-1.6.1-1.1-.4-1.4-.3-.9.6.4.6.2 1.9-.5 2.7-1.5 1.8-2.1 6.2-1 6.8.4.3 2.2.8 3.9 1.1 2.6.4 3.3.1 4.8-2.4 1.5-2.6 4.5-4.5 6.6-4.2.7.1 2.8-8.8 2.8-11.8 0-1.1-1.4-2.5-3.4-3.5-3.8-1.8-5.6-2-5.6-.7zM290.596 278.475c0 .5.7 1.3 1.6 1.6 1 .4 1.4.1 1.2-.6-.5-1.5-2.8-2.3-2.8-1zM590.596 295.075c0 .9.5 1.6 1 1.6.6 0 1-.4 1-.9 0-.6-.4-1.3-1-1.6-.5-.3-1 .1-1 .9zM595.196 297.475c-.3.3-2 .7-3.8.9-4.9.5-5.1 2.2-.7 7 2.1 2.3 3.9 4.7 3.9 5.2 0 1 4.7 2.6 6.8 2.2.6-.1 1.2.7 1.2 1.8 0 1.8.3 1.9 2.5 1.1 1.4-.5 3.2-.7 4-.4.8.4 1.5.1 1.5-.5s.5-1.1 1-1.1c.6 0 1 1 1 2.2.1 2.2.1 2.2 1.4.5.8-1 1.8-1.8 2.2-1.7.5.1 1-.3 1.2-.9.2-.6-.2-1.1-1-1.1-2.6-.1 2.6-2.3 6.1-2.6 1.9-.2 3.8-.9 4.2-1.6.6-.9 1.1-.9 2.2.1 1.1.8 1.7.9 2.2.1.4-.6 1.4-.9 2.3-.8 1 .2 1.7-.4 1.7-1.2 0-.8.4-1.8.8-2.1.5-.4-.1-1.6-1.4-2.8-1.7-1.5-2.6-1.8-3.6-1-.7.6-1.3 1.8-1.3 2.5 0 .8-.7 1.4-1.5 1.4s-1.5-.5-1.5-1c0-.6-.7-1-1.5-1s-1.5.7-1.5 1.5c0 1.6-1.2 2-2.4.8s-4.6-1-5.7.4c-1.8 2.1-5.7 1.5-8.1-1.2-1.2-1.4-2.7-2.5-3.3-2.5-.7 0-2-.9-2.9-1.9-1.8-2-5.1-3.3-6-2.3zM543.696 313.575c-.9.6-1.1 1.4-.4 2.6.9 1.5 1.1 1.4 1.5-.9.3-1.4.5-2.6.4-2.6 0 0-.7.4-1.5.9zM543.796 322.775c.9.5 1.5 1.6 1.2 2.3-.3.8-.1 1.7.4 2 .5.3 1.2-.8 1.4-2.4.4-2.7.2-3-2.1-3-2.2.1-2.3.2-.9 1.1zM544.896 329.375c-1.5.5-1.7 2.3-.4 2.3.5 0 1.1-.7 1.5-1.5.3-.8.4-1.5.3-1.4-.1 0-.8.3-1.4.6zM536.596 330.275c0 .3.9 1.9 2.1 3.5 1.1 1.6 1.9 3.9 1.7 5.2-.2 1.2.5 3 1.5 3.9.9 1 1.7 2.7 1.7 3.8 0 2.4 1.6 2.6 2.8.3 1.2-2-.5-6.3-2.5-6.3-.7 0-1.3-.5-1.3-1.1 0-.5.4-.8.9-.5 1.3.9-2.9-7.8-4.3-8.6-1.3-.9-2.6-1-2.6-.2z"/></g></svg>