<?xml version="1.0" standalone="no"?>
<!DOCTYPE svg PUBLIC "-//W3C//DTD SVG 20010904//EN"
 "http://www.w3.org/TR/2001/REC-SVG-20010904/DTD/svg10.dtd">
<svg version="1.0" xmlns="http://www.w3.org/2000/svg"
 width="244.371056pt" height="535.165505pt" viewBox="0 0 244.371056 535.165505"
 preserveAspectRatio="xMidYMid meet">
<metadata>
Created by potrace 1.15, written by Peter Selinger 2001-2017
</metadata>
<g transform="translate(-901.000000,1229.810533) scale(0.100000,-0.100000)"
fill="#222222" stroke="none">
<path d="M9720 12292 c0 -17 40 -61 63 -68 12 -3 34 -18 49 -32 23 -21 34 -24
67 -19 23 3 41 2 41 -2 0 -17 89 -101 102 -96 21 8 41 -31 28 -56 -6 -11 -8
-29 -4 -41 4 -13 2 -18 -4 -14 -6 4 -15 -1 -20 -11 -8 -13 -5 -22 13 -39 13
-12 28 -38 34 -59 5 -20 21 -51 34 -68 17 -22 22 -38 17 -52 -4 -11 -3 -28 2
-37 5 -10 6 -18 4 -18 -3 0 16 -22 42 -50 l47 -49 50 12 c55 14 73 37 78 98 3
32 5 34 34 31 23 -2 35 2 42 17 8 14 8 21 -2 24 -7 4 -6 6 4 6 20 1 31 38 18
62 -5 10 -9 31 -9 46 0 22 -11 38 -45 66 -38 32 -44 41 -35 57 9 16 5 22 -22
36 -18 9 -43 25 -54 36 -21 18 -35 19 -90 3 -24 -7 -54 17 -54 43 0 14 -2 14
-9 3 -7 -11 -12 -9 -21 10 -20 38 -50 52 -50 24 0 -13 -4 -14 -20 -5 -11 6
-36 8 -56 4 -32 -6 -36 -4 -47 25 -6 17 -16 31 -23 31 -20 0 -54 37 -54 58 0
25 -19 39 -30 22 -5 -8 -18 -10 -36 -6 -64 16 -84 18 -84 8z"/>
<path d="M9930 12230 c0 -5 5 -10 11 -10 5 0 7 5 4 10 -3 6 -8 10 -11 10 -2 0
-4 -4 -4 -10z"/>
<path d="M9553 11699 c-21 -21 -4 -45 32 -45 34 0 35 5 7 39 -18 20 -24 21
-39 6z"/>
<path d="M9503 11675 c-8 -9 -9 -16 -3 -20 6 -3 13 1 16 10 9 21 2 26 -13 10z"/>
<path d="M9330 11621 c0 -7 -4 -9 -10 -6 -5 3 -10 2 -10 -4 0 -6 9 -15 20 -21
26 -14 17 -30 -17 -30 -22 0 -24 -3 -19 -25 13 -50 26 -75 40 -75 8 0 16 -4
18 -9 3 -8 18 -12 115 -28 32 -5 32 -5 26 31 -4 25 -2 36 6 36 7 0 11 10 9 23
-2 12 -10 22 -19 22 -28 0 -50 25 -39 45 13 24 4 30 -50 30 -25 0 -51 5 -58
12 -9 9 -12 9 -12 -1z"/>
<path d="M10038 11509 c-2 -6 -12 -11 -21 -13 -10 -1 -22 -8 -26 -15 -5 -8
-18 -10 -34 -6 -28 7 -30 6 -103 -61 -25 -23 -57 -44 -72 -47 -26 -5 -67 11
-104 42 -9 7 -36 15 -58 16 -23 2 -47 8 -53 14 -19 15 -39 -3 -39 -34 0 -14
-7 -29 -15 -32 -8 -3 -19 -17 -24 -30 -5 -13 -24 -30 -41 -38 -19 -8 -26 -14
-15 -15 22 0 24 -68 1 -111 -9 -19 -13 -41 -9 -60 5 -23 3 -29 -10 -29 -15 0
-15 -2 -4 -16 10 -13 10 -17 -2 -25 -8 -5 -19 -9 -25 -9 -18 0 -38 -59 -37
-112 1 -41 -2 -48 -18 -48 -11 0 -19 -7 -19 -15 0 -14 -11 -19 -37 -16 -6 1
-14 -7 -18 -17 -4 -14 -18 -21 -53 -26 -26 -3 -71 -8 -99 -12 -29 -4 -53 -11
-53 -16 0 -6 -9 -21 -20 -35 -11 -14 -20 -32 -20 -40 0 -15 35 -47 73 -69 23
-13 60 -7 50 9 -10 16 50 -2 64 -20 7 -9 22 -21 34 -27 11 -6 28 -23 37 -38
15 -25 15 -28 -1 -46 -13 -14 -14 -21 -5 -30 10 -10 10 -17 -1 -34 -11 -17
-11 -22 1 -29 7 -5 20 -9 28 -9 8 0 23 -14 33 -31 14 -26 22 -30 42 -25 14 4
34 2 44 -3 12 -7 22 -6 30 2 10 9 19 5 42 -21 27 -30 31 -32 45 -17 21 21 109
65 130 65 12 0 15 6 10 24 -4 16 -1 26 8 29 9 4 12 14 9 26 -3 13 -1 21 7 21
8 0 7 8 -5 27 -16 24 -16 26 0 20 9 -4 23 -7 31 -7 9 0 12 -5 9 -11 -4 -5 1
-19 11 -30 13 -14 20 -16 30 -8 10 8 21 6 43 -10 16 -12 39 -21 51 -21 43 0
59 -17 56 -60 -3 -40 -3 -41 26 -35 19 5 37 1 53 -9 13 -9 31 -16 40 -16 9 0
15 -9 15 -22 1 -28 33 -68 54 -68 20 0 20 7 1 26 -16 17 -21 39 -5 29 5 -3 25
-6 45 -7 38 -1 43 -9 20 -28 -13 -10 -13 -15 -3 -21 7 -4 9 -11 5 -15 -3 -4
-14 -1 -23 6 -11 10 -18 10 -22 3 -12 -19 -87 -34 -117 -23 -14 5 -37 10 -51
10 -18 0 -24 5 -24 21 0 16 -4 19 -20 14 -11 -3 -27 -2 -37 3 -13 8 -23 3 -46
-19 -36 -37 -47 -37 -43 1 5 43 -20 39 -28 -5 -4 -20 -4 -39 -1 -44 9 -16 -15
-24 -30 -11 -12 10 -15 9 -15 -4 0 -10 8 -16 22 -16 12 0 33 -11 47 -24 15
-13 38 -31 52 -40 26 -16 27 -16 33 10 4 15 2 32 -3 37 -18 18 -12 27 18 27
16 0 37 -7 46 -17 13 -13 18 -14 25 -3 4 7 13 9 20 5 6 -4 17 1 24 11 13 17
15 17 39 2 25 -17 42 -15 150 19 18 6 24 -12 7 -22 -6 -4 -8 -15 -5 -24 6 -21
-19 -46 -35 -36 -16 10 -40 -14 -40 -41 0 -13 -5 -24 -10 -24 -22 0 -90 41
-90 54 0 9 -7 12 -19 9 -10 -3 -32 2 -49 11 -39 20 -43 20 -35 -1 4 -11 3 -14
-6 -9 -9 6 -12 2 -9 -11 4 -24 -27 -56 -77 -78 -22 -10 -48 -25 -57 -33 -16
-13 -16 -17 -3 -43 8 -15 11 -30 6 -33 -4 -3 -4 -23 2 -45 13 -46 -1 -118 -21
-113 -23 5 -42 -25 -36 -55 8 -43 -13 -114 -37 -120 -10 -3 -19 -9 -19 -14 0
-5 -7 -9 -15 -9 -8 0 -15 -6 -15 -14 0 -8 -7 -16 -15 -20 -8 -3 -15 -14 -15
-24 0 -11 -7 -25 -16 -32 -28 -24 -13 -62 36 -90 25 -15 46 -32 46 -38 1 -7 2
-16 3 -22 0 -5 14 -7 30 -4 26 6 29 4 24 -15 -3 -11 -12 -21 -19 -21 -16 0
-17 -60 -1 -96 10 -25 66 -54 102 -54 14 0 25 -6 25 -12 0 -10 3 -9 9 1 7 10
13 11 30 2 19 -11 20 -10 15 19 -6 26 -4 30 17 30 13 0 37 14 55 31 27 26 37
30 63 24 17 -4 31 -10 31 -14 0 -5 16 -23 35 -42 19 -19 35 -42 35 -52 0 -20
39 -63 83 -91 24 -16 27 -17 27 -2 0 9 3 16 8 16 4 0 8 20 10 44 l2 45 -42 -4
c-53 -4 -78 16 -78 59 1 32 20 66 37 66 6 0 13 12 15 28 3 15 8 34 12 42 4 11
-3 21 -24 34 -17 10 -29 23 -27 29 6 17 -13 81 -27 90 -8 5 -7 10 4 17 13 9
11 13 -10 31 -17 15 -24 31 -25 58 l-1 38 90 1 c49 1 91 4 94 7 5 4 58 -20 80
-38 10 -8 10 -12 0 -18 -9 -6 -5 -14 14 -31 30 -27 48 -33 48 -16 0 10 3 9 9
-1 16 -25 77 -5 93 29 7 17 18 30 24 30 6 0 17 7 24 15 7 8 20 15 30 15 10 0
17 6 17 13 -1 6 5 31 12 54 13 38 12 43 -8 72 -13 18 -27 28 -36 25 -14 -6
-67 38 -76 62 -2 6 -14 14 -26 18 -16 5 -23 2 -28 -14 -8 -24 -18 -25 -35 -5
-10 12 -10 15 3 15 39 0 19 85 -26 109 -14 8 -28 20 -32 28 -5 14 27 70 48 84
6 4 0 12 -11 18 -17 9 -34 37 -37 61 -1 15 -33 50 -37 40 -2 -7 -13 -6 -34 4
-17 9 -40 14 -52 11 -12 -2 -22 0 -22 4 0 12 54 21 58 10 3 -8 41 11 75 40 16
14 16 15 -2 32 -11 10 -31 21 -45 25 -15 3 -29 10 -32 15 -3 5 -9 7 -13 4 -21
-12 -42 35 -47 106 -3 41 -11 80 -17 87 -8 10 -7 16 2 22 9 5 10 10 2 14 -6 4
-16 17 -22 28 -11 20 -10 21 27 14 100 -19 114 -19 114 5 0 16 3 19 13 11 6
-6 17 -10 22 -9 6 1 11 -11 13 -28 5 -39 17 -52 36 -36 12 10 17 7 30 -16 9
-17 15 -22 16 -12 0 18 40 39 75 39 14 0 25 5 25 11 0 6 9 1 20 -12 26 -32 44
-9 24 30 -8 14 -14 35 -14 46 -1 11 -7 31 -15 45 -21 37 -18 50 10 50 14 0 25
4 25 9 0 5 20 6 45 3 37 -4 45 -2 45 12 0 9 7 16 16 16 14 0 14 3 4 15 -10 13
-10 19 5 35 18 20 35 22 48 5 4 -6 11 -4 17 5 13 19 13 30 0 30 -5 0 -10 11
-10 24 0 14 -4 27 -9 30 -15 9 -10 56 6 56 8 0 11 5 8 10 -3 6 4 10 17 10 22
1 22 1 5 14 -10 8 -14 17 -9 20 18 11 1 46 -22 46 -40 0 -62 11 -81 40 -11 16
-30 32 -42 35 -13 3 -23 13 -23 24 0 21 -44 44 -70 36 -10 -3 -20 0 -23 8 -6
16 -57 11 -57 -5 0 -7 -4 -7 -12 0 -7 6 -17 11 -23 11 -5 1 -10 27 -10 59 0
54 -1 57 -25 56 -14 -1 -32 -4 -41 -8 -13 -6 -19 2 -28 39 -10 39 -14 44 -29
36 -28 -16 -62 23 -52 59 6 22 5 28 -5 24 -7 -3 -16 -1 -20 5 -3 6 -25 11 -48
11 -23 0 -59 9 -79 20 -21 11 -38 15 -40 9z m205 -171 c2 -7 0 -23 -4 -35 -5
-13 -4 -34 1 -49 14 -35 12 -54 -4 -54 -21 0 -35 95 -20 134 7 19 21 21 27 4z
m184 -184 c-3 -3 -12 -4 -19 -1 -8 3 -5 6 6 6 11 1 17 -2 13 -5z m-110 -20
c-3 -3 -12 -4 -19 -1 -8 3 -5 6 6 6 11 1 17 -2 13 -5z m173 -35 c0 -18 -19
-17 -36 2 -16 17 -16 22 -4 29 14 9 40 -11 40 -31z m-170 1 c0 -5 -7 -10 -15
-10 -8 0 -15 5 -15 10 0 6 7 10 15 10 8 0 15 -4 15 -10z m-76 -961 c27 -40 27
-40 4 -28 -28 14 -38 28 -38 52 0 25 4 22 34 -24z m86 -59 c0 -5 -4 -10 -9
-10 -6 0 -13 5 -16 10 -3 6 1 10 9 10 9 0 16 -4 16 -10z m-223 -696 c-3 -3
-12 -4 -19 -1 -8 3 -5 6 6 6 11 1 17 -2 13 -5z"/>
<path d="M10203 11505 c0 -8 4 -12 9 -9 4 3 8 9 8 15 0 5 -4 9 -8 9 -5 0 -9
-7 -9 -15z"/>
<path d="M9360 11301 c0 -5 7 -11 15 -15 8 -3 15 -1 15 3 0 5 -7 11 -15 15 -8
3 -15 1 -15 -3z"/>
<path d="M10631 10543 c0 -6 -9 -13 -18 -15 -16 -3 -15 -6 5 -26 26 -26 42
-28 42 -7 0 8 -4 15 -9 15 -5 0 -12 10 -14 23 -2 12 -5 17 -6 10z"/>
<path d="M10477 10516 c-9 -7 -21 -34 -26 -58 -9 -50 -45 -108 -65 -108 -13 0
-32 -78 -21 -88 3 -3 5 0 5 7 0 6 20 20 45 31 27 12 45 26 45 36 0 12 5 14 18
8 38 -17 95 -17 108 0 10 15 12 15 17 -3 3 -11 1 -48 -3 -83 -7 -64 7 -118 31
-118 6 0 18 -7 27 -16 9 -9 18 -12 19 -7 4 12 74 -2 114 -23 14 -7 29 -11 32
-8 3 3 10 -4 17 -15 15 -29 54 -29 47 0 -4 16 -2 19 11 14 9 -3 31 -9 47 -11
27 -5 28 -4 10 7 -11 7 -36 19 -55 25 -19 7 -34 18 -32 25 2 6 -4 19 -12 28
-9 10 -21 32 -27 49 -8 23 -23 39 -52 52 -22 11 -46 20 -53 20 -12 0 -41 58
-36 73 1 5 -12 31 -30 58 -33 51 -49 56 -87 25 -11 -8 -13 -8 -7 2 5 8 1 12
-12 12 -23 0 -49 27 -54 57 -3 19 -5 20 -21 9z"/>
<path d="M10710 10410 c-29 -22 -25 -31 8 -19 12 5 22 15 22 24 0 19 0 19 -30
-5z"/>
<path d="M9321 10334 c0 -11 3 -14 6 -6 3 7 2 16 -1 19 -3 4 -6 -2 -5 -13z"/>
<path d="M11163 10231 c-4 -3 -14 -18 -20 -33 -8 -18 -17 -25 -30 -22 -14 4
-22 -4 -31 -30 -11 -30 -18 -36 -41 -36 -25 0 -28 -3 -23 -25 3 -20 0 -25 -17
-25 -16 0 -26 -10 -37 -35 -18 -44 -18 -65 1 -65 9 0 15 -9 15 -25 0 -28 3
-29 31 -15 12 7 19 21 19 41 0 34 26 79 46 79 7 0 17 8 23 18 7 13 13 14 21 5
9 -8 20 -6 45 8 18 11 39 27 45 35 7 7 22 14 33 14 12 0 38 12 59 26 34 24 36
27 21 43 -9 9 -20 16 -24 16 -4 0 -11 3 -15 8 -4 4 -18 7 -30 7 -13 0 -25 4
-28 9 -6 10 -50 12 -63 2z"/>
<path d="M11330 10155 c-10 -12 -10 -15 4 -15 9 0 16 -7 16 -15 0 -20 19 -19
26 0 6 15 -11 45 -26 45 -4 0 -13 -7 -20 -15z"/>
<path d="M11390 10099 c0 -5 5 -7 10 -4 6 3 10 8 10 11 0 2 -4 4 -10 4 -5 0
-10 -5 -10 -11z"/>
<path d="M11403 9982 c-40 -25 -16 -112 31 -112 23 0 24 2 14 34 -6 20 -19 37
-30 39 -16 5 -18 9 -8 26 12 23 11 24 -7 13z"/>
<path d="M11054 9918 c-13 -21 -10 -58 4 -58 8 0 12 -6 8 -15 -9 -25 10 -17
22 10 7 15 8 27 2 30 -6 4 -10 15 -10 26 0 21 -15 25 -26 7z"/>
<path d="M11000 9855 c0 -8 7 -15 16 -15 14 0 14 3 4 15 -7 8 -14 15 -16 15
-2 0 -4 -7 -4 -15z"/>
<path d="M10404 9462 c-6 -4 -13 -15 -17 -24 -5 -13 -1 -18 13 -18 10 0 22 4
25 10 9 14 -8 40 -21 32z"/>
<path d="M10380 9390 c-13 -8 -12 -10 3 -10 9 0 17 5 17 10 0 12 -1 12 -20 0z"/>
<path d="M10210 9365 c0 -8 -4 -15 -10 -15 -5 0 -7 -6 -4 -13 5 -14 84 -11 84
4 0 5 -6 9 -14 9 -8 0 -16 7 -20 15 -3 8 -12 15 -21 15 -8 0 -15 -7 -15 -15z"/>
<path d="M9701 9094 c0 -11 3 -14 6 -6 3 7 2 16 -1 19 -3 4 -6 -2 -5 -13z"/>
<path d="M9677 9071 c-4 -17 -3 -21 5 -13 5 5 8 16 6 23 -3 8 -7 3 -11 -10z"/>
<path d="M10230 8990 c0 -6 7 -10 15 -10 8 0 15 2 15 4 0 2 -7 6 -15 10 -8 3
-15 1 -15 -4z"/>
<path d="M9630 8966 c0 -8 -8 -23 -19 -33 -23 -22 -46 -89 -42 -125 2 -22 -2
-28 -18 -28 -11 0 -23 -5 -26 -10 -5 -8 -12 -7 -22 1 -12 10 -16 10 -24 -2
-12 -19 -11 -25 6 -39 8 -7 15 -25 15 -40 0 -17 9 -34 23 -44 16 -12 17 -16 4
-12 -24 8 -67 -11 -67 -29 0 -8 -7 -15 -16 -15 -11 0 -9 -9 12 -36 17 -22 24
-38 17 -42 -6 -4 -7 -15 -2 -27 4 -11 8 -15 8 -10 1 6 16 11 33 12 18 2 45 12
61 24 28 21 30 21 63 3 18 -10 43 -31 54 -46 21 -29 72 -39 85 -18 3 6 16 10
28 10 12 1 33 7 46 14 24 14 24 14 3 20 -12 4 -26 5 -30 2 -5 -3 -24 11 -43
30 -30 31 -34 41 -33 86 0 37 -5 57 -18 70 -20 20 -23 43 -8 53 6 4 7 11 4 17
-4 5 -9 33 -11 62 -3 29 -11 54 -19 59 -8 4 -14 17 -14 28 0 11 -7 22 -15 25
-8 4 -15 14 -15 24 0 11 -4 22 -10 25 -5 3 -10 -1 -10 -9z"/>
<path d="M10280 8954 c0 -18 26 -19 33 -1 3 8 -3 14 -14 14 -11 1 -19 -5 -19
-13z"/>
<path d="M10228 8908 c3 -13 -1 -18 -16 -18 -12 0 -25 -7 -30 -16 -7 -13 -13
-11 -40 16 -18 17 -29 24 -26 16 5 -12 2 -15 -10 -10 -9 3 -16 3 -16 -1 0 -14
24 -51 42 -64 14 -9 18 -20 14 -36 -5 -20 -1 -24 24 -30 17 -4 30 -12 30 -19
0 -7 23 -23 50 -35 28 -13 62 -38 76 -56 14 -18 38 -38 53 -43 19 -7 36 -26
55 -66 l27 -56 -21 -30 -21 -30 21 0 c12 0 18 -4 15 -10 -4 -6 1 -23 11 -38
10 -15 17 -33 16 -40 -5 -22 18 -43 36 -33 8 5 23 6 32 4 23 -6 34 12 21 35
-7 13 -6 23 2 32 9 10 9 14 0 17 -7 3 -13 11 -13 20 0 14 -9 27 -68 103 -19
24 -23 40 -20 77 l3 47 -45 17 c-39 14 -47 22 -60 61 -8 24 -22 55 -31 69 -9
13 -19 33 -22 44 -4 11 -19 28 -34 37 -21 13 -23 18 -10 18 28 0 19 14 -17 26
-30 9 -33 8 -28 -8z"/>
<path d="M9908 8503 c-24 -6 -23 -33 1 -33 10 0 21 9 24 20 3 11 2 19 -1 19
-4 -1 -15 -3 -24 -6z"/>
<path d="M9481 8438 c9 -18 8 -24 -6 -34 -14 -10 -15 -16 -5 -34 8 -16 9 -25
2 -29 -7 -4 -8 -12 -1 -21 8 -13 10 -13 18 -1 7 11 11 9 20 -8 10 -17 9 -21
-4 -21 -8 0 -15 -4 -15 -10 0 -5 5 -10 11 -10 6 0 9 -9 6 -20 -3 -11 -1 -23 4
-26 5 -3 9 5 9 17 0 16 5 20 19 16 17 -4 18 -2 9 27 -6 17 -16 36 -22 41 -14
12 -18 30 -18 74 0 19 -6 40 -13 48 -20 20 -27 16 -14 -9z"/>
<path d="M9730 8422 c0 -12 19 -26 26 -19 2 2 -2 10 -11 17 -9 8 -15 8 -15 2z"/>
<path d="M9760 8341 c0 -8 -8 -11 -20 -8 -11 3 -18 1 -14 -4 3 -5 11 -9 19 -9
16 0 30 18 21 27 -3 4 -6 1 -6 -6z"/>
<path d="M10590 8311 c0 -13 26 -32 33 -24 8 7 -11 33 -24 33 -5 0 -9 -4 -9
-9z"/>
<path d="M10115 8280 c-21 -23 -41 -26 -48 -7 -3 9 -12 8 -37 -6 -31 -16 -34
-16 -77 3 -43 19 -45 19 -50 2 -3 -14 -13 -18 -36 -17 -37 2 -69 14 -79 29 -5
7 -8 4 -8 -7 0 -10 -4 -15 -10 -12 -14 9 -12 -7 5 -48 8 -20 24 -39 36 -42 15
-5 19 -13 15 -28 -3 -12 0 -27 6 -34 14 -17 68 -17 68 0 0 8 3 7 9 -3 6 -8 8
-17 6 -21 -3 -3 5 -15 16 -25 24 -22 82 -130 85 -159 2 -11 11 -43 21 -72 14
-40 24 -54 43 -58 25 -6 76 -48 122 -103 13 -16 34 -35 46 -41 12 -6 22 -17
22 -24 1 -12 72 -50 100 -52 17 -2 106 -15 117 -18 4 -1 6 18 4 43 l-3 45 24
-22 c13 -13 33 -23 44 -23 10 0 39 -14 64 -31 33 -22 51 -28 71 -24 16 4 38 1
51 -6 13 -7 26 -12 30 -11 4 1 15 -9 25 -22 10 -12 42 -34 71 -47 28 -13 52
-27 52 -31 0 -5 9 -17 20 -28 11 -11 20 -28 20 -37 0 -24 38 -85 49 -79 4 3
17 -1 27 -9 10 -8 29 -15 41 -15 12 0 24 -8 27 -18 3 -9 21 -22 40 -28 27 -8
35 -7 44 5 8 13 13 14 23 4 7 -7 19 -13 26 -13 19 0 34 46 24 73 -21 51 -43
139 -37 144 4 4 -8 21 -25 39 -17 18 -29 39 -26 47 6 15 -92 77 -122 77 -10 0
-25 15 -35 36 -9 20 -20 34 -23 30 -4 -3 -17 4 -30 16 -19 18 -23 19 -23 5 0
-19 -27 -21 -93 -11 -31 6 -36 10 -32 25 8 23 -27 39 -82 39 -20 0 -51 9 -69
21 -23 14 -58 22 -110 26 -51 4 -77 10 -80 20 -2 7 -7 21 -11 31 -3 9 -5 23
-4 30 2 15 -47 35 -67 27 -8 -3 -23 2 -33 11 -10 9 -22 13 -28 10 -6 -4 -25 7
-42 24 -34 32 -73 41 -63 15 8 -20 -22 -31 -41 -15 -17 14 -21 35 -5 25 12 -7
3 19 -22 61 -23 39 -39 122 -25 127 6 2 11 21 11 44 1 22 7 47 14 56 11 13 11
21 -3 46 -8 17 -17 31 -19 31 -1 0 -11 -9 -21 -20z m-13 -282 c-11 -11 -32 -3
-32 12 0 4 9 6 21 3 13 -4 17 -9 11 -15z"/>
<path d="M10670 8240 c0 -5 5 -10 11 -10 5 0 7 5 4 10 -3 6 -8 10 -11 10 -2 0
-4 -4 -4 -10z"/>
<path d="M10854 8229 c-3 -6 -14 -9 -24 -6 -12 3 -22 -4 -31 -19 -7 -13 -21
-24 -31 -24 -10 0 -18 -4 -18 -10 0 -5 -9 -6 -21 -2 -11 5 -19 10 -17 13 2 3
-3 14 -11 23 -10 12 -16 14 -22 5 -11 -19 115 -139 147 -139 26 0 63 -33 64
-57 0 -6 21 -15 48 -18 26 -4 54 -9 64 -11 9 -3 19 0 23 6 3 6 11 8 16 5 5 -4
9 -1 9 5 0 8 9 10 23 7 20 -5 22 -2 24 34 0 22 6 46 13 54 6 7 10 19 9 27 -1
7 1 21 5 30 14 30 2 53 -27 56 -16 2 -34 -2 -42 -8 -10 -8 -17 -7 -28 5 -11
10 -35 15 -76 15 -33 0 -63 5 -66 10 -8 13 -22 13 -31 -1z"/>
<path d="M11282 7172 c2 -11 -3 -27 -11 -36 -11 -13 -11 -20 -3 -28 9 -9 8
-16 -2 -27 -19 -22 -30 -77 -17 -86 6 -3 11 -17 11 -30 0 -22 2 -23 30 -12 19
7 30 18 30 31 0 19 0 19 21 0 17 -16 22 -16 29 -4 7 11 5 16 -5 18 -20 4 -19
12 3 28 16 12 16 13 0 14 -21 0 -37 27 -31 51 7 24 -27 99 -45 99 -7 0 -12 -8
-10 -18z"/>
</g>
</svg>
