<?xml version="1.0" standalone="no"?>
<!DOCTYPE svg PUBLIC "-//W3C//DTD SVG 20010904//EN"
 "http://www.w3.org/TR/2001/REC-SVG-20010904/DTD/svg10.dtd">
<svg version="1.0" xmlns="http://www.w3.org/2000/svg"
 width="615.311693pt" height="687.734708pt" viewBox="0 0 615.311693 687.734708"
 preserveAspectRatio="xMidYMid meet">
<metadata>
Created by potrace 1.15, written by Peter Selinger 2001-2017
</metadata>
<g transform="translate(-685.388919,1373.103817) scale(0.100000,-0.100000)"
fill="#222222" stroke="none">
<path d="M11235 13714 c17 -9 35 -24 42 -33 11 -15 12 -15 13 0 0 22 -18 36
-55 44 l-30 6 30 -17z"/>
<path d="M11192 13668 c6 -18 38 -22 52 -8 8 8 7 10 -6 5 -11 -4 -18 -2 -18 4
0 6 -7 11 -16 11 -9 0 -14 -6 -12 -12z"/>
<path d="M11377 13633 c-10 -3 -16 -11 -13 -18 3 -8 0 -15 -7 -18 -7 -2 -4
-14 10 -33 23 -33 25 -106 3 -140 -7 -12 -10 -29 -7 -38 6 -14 11 -15 28 -5
12 6 32 9 45 6 13 -2 29 2 35 9 6 8 20 14 30 14 11 0 19 7 19 15 0 21 37 37
69 30 23 -5 29 -2 34 16 4 14 11 20 21 16 27 -11 17 7 -14 25 -17 9 -30 25
-30 36 0 33 -50 70 -105 77 -27 3 -61 8 -75 10 -14 1 -33 1 -43 -2z"/>
<path d="M12216 13566 c-7 -29 2 -58 18 -53 6 2 12 13 14 25 2 12 10 22 19 22
25 0 8 25 -19 28 -20 2 -27 -2 -32 -22z"/>
<path d="M11715 13490 c-3 -5 1 -10 9 -10 9 0 16 5 16 10 0 6 -4 10 -9 10 -6
0 -13 -4 -16 -10z"/>
<path d="M11766 13491 c-4 -6 -1 -11 8 -11 8 0 27 -12 41 -27 22 -24 28 -26
45 -15 17 10 20 10 20 -3 0 -16 43 -31 59 -20 15 8 14 35 -1 35 -6 0 -20 8
-30 17 -10 9 -26 18 -36 19 -9 2 -36 6 -58 10 -27 4 -44 2 -48 -5z"/>
<path d="M12190 13485 c0 -8 2 -15 4 -15 2 0 6 7 10 15 3 8 1 15 -4 15 -6 0
-10 -7 -10 -15z"/>
<path d="M12178 13453 c7 -3 16 -2 19 1 4 3 -2 6 -13 5 -11 0 -14 -3 -6 -6z"/>
<path d="M12110 13443 c-35 -7 -54 -23 -40 -37 5 -5 10 -20 10 -32 0 -12 7
-25 16 -28 10 -4 13 -2 8 6 -5 8 -2 9 11 5 14 -6 16 -3 12 14 -3 12 0 28 9 36
12 13 14 11 15 -9 1 -17 3 -18 6 -5 2 9 9 17 15 17 6 0 3 9 -7 20 -10 11 -21
19 -24 19 -3 -1 -17 -4 -31 -6z"/>
<path d="M11988 13423 c7 -3 16 -2 19 1 4 3 -2 6 -13 5 -11 0 -14 -3 -6 -6z"/>
<path d="M12124 13303 c-4 -15 -13 -38 -20 -52 -8 -14 -14 -34 -14 -43 0 -10
-15 -24 -37 -33 -21 -9 -46 -21 -55 -26 -10 -5 -24 -9 -32 -9 -8 0 -16 -3 -18
-7 -9 -21 -70 -54 -88 -48 -16 5 -20 2 -20 -19 0 -14 -8 -30 -17 -36 -17 -10
-17 -10 0 -20 24 -15 22 -34 -3 -20 -26 14 -137 -16 -143 -39 -4 -14 -5 -14
-6 0 0 9 -10 19 -20 22 -11 2 -31 23 -45 46 -15 22 -28 41 -31 41 -6 0 14 -52
27 -67 13 -16 -5 -67 -36 -101 l-21 -24 33 -27 c21 -18 32 -36 32 -54 0 -15 5
-27 10 -27 6 0 10 -7 10 -16 0 -11 -6 -15 -19 -11 -15 4 -18 1 -14 -12 3 -9
12 -23 18 -31 20 -25 28 -60 15 -75 -7 -9 -8 -19 -2 -32 20 -37 33 -104 24
-116 -7 -8 -2 -38 15 -91 18 -56 21 -81 13 -86 -8 -5 -6 -11 5 -20 10 -8 15
-30 15 -69 0 -71 19 -102 49 -83 18 10 24 9 41 -8 24 -24 40 -26 41 -5 1 8 3
20 4 25 1 6 3 18 4 29 1 13 13 21 44 28 45 10 157 10 174 0 12 -7 53 2 53 13
0 4 -13 13 -30 20 -18 7 -30 20 -30 31 0 32 40 87 75 103 34 17 52 47 39 67
-3 6 -1 15 6 19 8 5 13 36 14 87 1 64 6 84 23 106 11 15 26 27 32 27 13 0 15
82 2 96 -11 11 -18 85 -9 99 10 16 1 146 -11 158 -7 7 -7 16 0 29 10 18 9 19
-13 22 -10 1 -12 28 -10 106 3 100 1 106 -22 133 -31 34 -44 34 -52 0z"/>
<path d="M12233 13283 c-15 -5 -18 -33 -4 -33 8 0 25 30 19 35 -2 1 -9 0 -15
-2z"/>
<path d="M12198 12393 c7 -3 16 -2 19 1 4 3 -2 6 -13 5 -11 0 -14 -3 -6 -6z"/>
<path d="M11745 12046 c-13 -9 -28 -11 -49 -5 -16 5 -32 7 -34 4 -3 -3 7 -22
21 -42 18 -26 24 -46 21 -60 -4 -13 -11 -20 -16 -16 -6 3 -9 0 -7 -6 5 -14 7
-14 49 2 31 12 36 22 21 46 -6 10 -3 28 10 53 20 40 16 47 -16 24z"/>
<path d="M11640 11940 c0 -5 7 -10 15 -10 8 0 15 5 15 10 0 6 -7 10 -15 10 -8
0 -15 -4 -15 -10z"/>
<path d="M11763 11893 c-12 -2 -25 -13 -28 -24 -4 -11 -11 -17 -16 -13 -16 10
-59 -5 -59 -20 0 -8 -7 -21 -15 -29 -12 -13 -12 -17 0 -27 7 -6 11 -18 8 -26
-4 -11 0 -12 26 -3 25 9 37 8 63 -8 29 -16 34 -26 38 -69 6 -52 24 -94 41 -94
6 0 19 5 30 11 17 8 25 6 46 -15 14 -14 22 -30 17 -37 -4 -7 -7 -25 -6 -40 0
-16 -4 -29 -9 -29 -5 0 -9 -16 -9 -35 0 -24 -4 -35 -12 -33 -7 2 -29 -10 -50
-25 l-36 -28 24 -26 c28 -31 27 -47 -5 -51 -16 -3 -34 7 -57 32 -19 20 -34 41
-34 47 0 5 -4 7 -10 4 -11 -7 -13 1 -14 57 -1 21 -4 36 -7 35 -4 -1 -16 7 -28
17 -19 18 -22 18 -34 3 -7 -9 -31 -17 -57 -19 -41 -3 -45 -1 -44 20 0 12 -5
22 -13 22 -17 0 -10 -54 10 -74 20 -21 34 -20 46 2 8 15 11 13 20 -13 18 -50
26 -59 64 -78 20 -10 50 -36 67 -57 17 -21 40 -42 51 -45 11 -4 33 -25 50 -47
16 -23 29 -36 29 -30 0 7 9 12 20 12 17 0 19 5 14 25 -4 17 -2 25 6 25 10 0
10 3 1 14 -18 22 16 36 69 29 32 -5 41 -3 36 6 -4 6 -2 19 5 27 6 8 14 30 16
49 3 33 2 34 -27 30 -30 -4 -31 -3 -26 36 3 21 7 43 10 48 3 5 -1 14 -9 21
-12 10 -12 16 -4 26 9 11 7 15 -6 20 -11 5 -15 14 -11 28 3 12 1 28 -4 36 -5
9 -5 19 2 27 14 17 2 63 -16 63 -18 0 -46 27 -46 45 0 7 11 16 25 19 l25 6
-25 38 c-14 20 -25 45 -25 54 0 22 -41 33 -68 19 -29 -15 -30 -15 -28 19 1 17
2 29 2 29 -1 -1 -11 -4 -23 -6z"/>
<path d="M11815 11880 c-19 -8 -19 -9 3 -9 12 -1 22 4 22 9 0 6 -1 10 -2 9 -2
0 -12 -4 -23 -9z"/>
<path d="M11642 11582 c-36 -11 -31 -25 11 -26 29 -1 37 3 37 17 0 18 -9 19
-48 9z"/>
<path d="M10857 11221 c-5 -40 -16 -75 -33 -102 -26 -41 -28 -81 -8 -132 4
-12 -2 -15 -28 -13 -18 2 -36 -2 -40 -8 -14 -21 -8 -68 12 -93 11 -14 20 -31
20 -37 0 -19 62 -44 85 -35 31 12 54 11 33 -2 -19 -10 -25 -39 -9 -39 5 0 11
-8 13 -18 5 -16 0 -18 -30 -17 -21 2 -41 10 -49 21 -7 9 -16 14 -20 11 -3 -4
4 -18 17 -32 13 -14 19 -25 14 -25 -10 0 17 -20 28 -20 4 0 14 7 22 15 12 12
20 13 35 6 14 -8 22 -7 31 4 13 15 22 10 81 -49 23 -24 23 -30 4 -46 -8 -7
-15 -24 -15 -39 0 -15 -4 -31 -10 -37 -7 -7 2 -22 25 -47 32 -34 33 -39 23
-68 -10 -28 -8 -34 13 -50 14 -11 41 -19 63 -19 35 0 38 2 32 24 -5 21 -2 25
30 30 28 6 33 10 24 20 -8 11 -5 15 15 20 14 4 25 13 25 22 0 12 7 14 36 8 30
-6 36 -4 41 15 6 25 11 26 35 4 16 -15 18 -15 18 0 0 9 9 21 21 27 11 7 19 14
16 16 -3 3 1 26 7 52 9 36 17 48 34 50 13 2 19 8 16 14 -4 6 -2 8 4 5 13 -9
-9 -59 -24 -53 -22 8 -2 -42 22 -55 26 -13 30 -24 14 -34 -5 -3 -10 -15 -10
-25 0 -19 33 -22 61 -4 20 12 49 5 79 -18 33 -26 41 -48 24 -75 -11 -18 -11
-23 2 -34 10 -8 14 -26 13 -50 -2 -28 3 -44 19 -62 12 -13 22 -29 22 -35 0 -7
16 -12 40 -12 28 0 43 -5 47 -16 3 -8 12 -13 19 -10 7 3 16 1 19 -4 11 -18 26
-10 20 10 -7 22 9 28 21 8 6 -9 10 -5 14 12 4 18 14 26 32 28 15 2 32 9 38 17
8 9 23 12 43 9 30 -5 31 -5 13 10 -19 15 -19 16 -2 16 10 0 29 -11 42 -25 26
-28 44 -32 44 -10 0 8 7 15 15 15 9 0 21 12 27 28 7 15 13 28 14 30 1 2 25 -8
53 -22 28 -14 62 -26 76 -26 14 0 36 -7 49 -16 23 -14 25 -14 39 7 11 14 21
19 33 15 10 -4 24 0 35 10 10 9 22 13 28 10 5 -4 12 -2 16 4 3 5 19 7 34 4 21
-5 35 0 50 15 12 12 21 18 21 15 0 -8 30 32 47 62 9 16 9 27 -1 45 -10 22 -9
26 19 45 19 13 29 28 27 40 -1 10 -4 38 -5 62 l-2 44 42 -4 c24 -2 43 1 43 6
0 5 3 6 7 3 13 -14 43 25 37 49 -5 20 -2 24 17 24 13 0 30 4 38 9 11 7 9 13
-7 29 -21 21 -25 33 -23 66 1 15 6 17 32 12 17 -3 39 -1 49 4 13 7 20 6 24 -6
3 -8 10 -12 16 -9 6 4 8 10 5 15 -3 5 8 11 23 15 l29 6 -19 57 c-20 62 -85
133 -100 109 -5 -9 -15 -7 -38 6 -16 10 -34 16 -39 13 -4 -3 -8 4 -7 16 1 17
9 24 36 29 21 5 40 3 48 -3 9 -8 20 -4 42 17 16 15 27 33 23 38 -3 6 2 16 11
23 9 6 13 15 8 18 -6 3 -13 -1 -16 -10 -5 -13 -9 -14 -21 -4 -19 16 -32 5 -16
-14 9 -11 8 -15 -6 -21 -30 -13 -46 -14 -64 -4 -15 8 -21 4 -34 -21 -9 -17
-22 -29 -30 -28 -7 2 -24 -13 -37 -32 -16 -24 -35 -38 -61 -44 -22 -6 -39 -17
-43 -28 -4 -13 -11 -17 -22 -13 -10 4 -26 9 -37 12 -11 3 -27 7 -35 11 -8 3
-19 7 -25 7 -5 1 -23 7 -39 14 -56 23 -101 18 -111 -11 -4 -13 -7 -26 -6 -30
1 -5 -4 -8 -10 -8 -5 0 -15 -14 -21 -31 -9 -26 -15 -30 -42 -28 -17 2 -41 12
-53 23 -23 19 -23 19 -45 -1 -13 -11 -38 -28 -56 -37 -32 -16 -35 -16 -83 5
-27 13 -49 26 -49 30 0 12 -42 23 -73 20 l-28 -3 15 31 c9 16 16 39 16 50 0
10 6 22 13 24 7 3 5 6 -6 6 -9 1 -23 12 -29 26 -10 23 -64 65 -83 65 -4 0 -5
-9 -2 -20 4 -16 0 -20 -17 -20 -12 0 -27 -5 -33 -11 -7 -7 -12 -4 -16 10 -3
12 0 21 6 21 7 0 4 7 -7 15 -10 7 -15 18 -12 24 3 5 -6 19 -21 31 -20 16 -36
20 -58 16 -27 -5 -36 -1 -62 29 -26 30 -33 32 -43 20 -7 -8 -29 -15 -49 -15
-20 -1 -47 -7 -60 -14 -18 -10 -31 -11 -47 -4 -17 8 -28 6 -48 -8 -31 -23 -32
-28 -5 -55 19 -19 20 -28 14 -86 -5 -44 -3 -68 5 -78 15 -18 10 -19 -27 -4
-15 7 -39 11 -53 10 -34 -3 -119 57 -99 70 11 7 10 9 -4 9 -9 0 -27 11 -39 25
-27 31 -136 87 -140 73 -6 -17 -48 2 -48 21 0 21 -50 71 -71 71 -8 0 -20 5
-26 11 -7 7 -12 -8 -16 -50z m698 -131 c3 -5 -1 -10 -10 -10 -9 0 -13 5 -10
10 3 6 8 10 10 10 2 0 7 -4 10 -10z m5 -60 c0 -5 -2 -10 -4 -10 -3 0 -8 5 -11
10 -3 6 -1 10 4 10 6 0 11 -4 11 -10z m-222 -60 c1 -1 6 -3 10 -4 14 -2 72
-73 72 -88 0 -8 9 -23 20 -33 13 -11 18 -25 14 -37 -3 -11 0 -18 8 -18 10 0 9
-3 -2 -10 -13 -8 -11 -11 7 -16 19 -5 20 -9 12 -32 -7 -18 -7 -28 0 -30 16 -5
0 -32 -19 -32 -22 0 -31 23 -32 82 -2 51 -27 84 -72 94 -17 3 -46 20 -65 37
-30 26 -36 27 -41 13 -5 -14 -12 -10 -38 23 -18 22 -32 43 -32 47 0 4 18 4 40
1 22 -3 42 -2 45 3 4 7 65 7 73 0z m742 -364 c0 -2 -7 -9 -15 -16 -12 -10 -15
-10 -15 4 0 9 7 16 15 16 8 0 15 -2 15 -4z m-275 -97 c-5 -27 -14 -39 -28 -39
-8 0 -8 3 2 9 10 6 11 13 2 29 -15 28 -14 31 8 25 13 -3 18 -12 16 -24z m29
-69 c22 0 42 -7 51 -17 31 -36 85 -113 85 -123 0 -6 5 -10 10 -10 6 0 10 -4
10 -10 0 -5 -7 -7 -15 -4 -9 4 -15 0 -15 -10 0 -9 -8 -16 -17 -16 -25 1 -53
24 -53 43 0 9 -9 21 -20 27 -11 6 -18 15 -15 21 8 12 -34 48 -57 49 -10 0 -25
11 -34 25 -19 30 -11 49 16 35 10 -5 35 -10 54 -10z"/>
<path d="M10553 11096 c-14 -16 -18 -28 -12 -39 14 -24 0 -49 -26 -45 -27 3
-55 -18 -55 -41 0 -23 -69 -88 -101 -96 -15 -4 -31 -17 -38 -31 -6 -13 -15
-24 -21 -24 -5 0 -10 -7 -10 -16 0 -10 -7 -14 -17 -12 -10 3 -37 -7 -61 -20
-27 -16 -58 -24 -85 -24 -23 1 -47 -4 -54 -9 -7 -6 -17 -8 -22 -5 -5 4 -12 2
-16 -4 -4 -6 -14 -4 -29 5 -16 11 -40 14 -80 11 -55 -5 -106 8 -106 26 0 4 -7
8 -15 8 -15 0 -20 -16 -16 -58 1 -14 -3 -22 -11 -21 -28 3 -49 -2 -43 -11 4
-6 -6 -7 -25 -4 -33 7 -38 -4 -20 -50 6 -16 6 -27 -1 -31 -5 -4 -9 -21 -7 -38
1 -18 -4 -42 -11 -55 -19 -36 -7 -55 29 -47 33 7 39 -1 13 -20 -15 -11 -15
-13 5 -24 18 -10 22 -9 22 4 0 9 5 13 10 10 6 -3 10 -20 10 -37 0 -29 2 -30
35 -26 19 2 37 -1 39 -7 2 -5 5 -4 5 3 1 21 21 3 21 -19 0 -15 7 -19 30 -19
17 0 39 -6 50 -12 15 -10 27 -10 49 -2 17 7 35 8 42 3 8 -5 31 -9 51 -9 29 0
41 -6 57 -28 21 -30 15 -57 -12 -47 -23 9 -42 -29 -22 -45 8 -7 13 -16 10 -20
-8 -12 35 -61 47 -54 7 5 9 0 6 -14 -4 -12 -2 -25 4 -28 6 -4 8 -23 4 -44 -5
-32 -3 -38 14 -43 11 -3 20 -12 20 -21 0 -9 6 -13 13 -10 8 3 25 -10 40 -30
15 -19 36 -37 46 -41 13 -4 23 -22 31 -54 12 -50 36 -71 81 -71 11 0 38 -9 59
-19 34 -16 41 -17 51 -4 7 7 15 10 18 6 3 -5 18 -14 33 -20 21 -9 28 -9 31 0
3 9 8 8 21 -2 14 -12 20 -11 39 8 13 11 33 21 44 21 12 0 33 4 47 9 17 7 26 7
30 -2 3 -9 5 -9 5 1 1 17 60 15 67 -2 9 -25 63 -38 99 -24 39 14 65 5 65 -21
0 -16 8 -20 49 -23 38 -2 47 0 39 9 -5 7 -7 17 -3 23 3 5 -6 21 -22 34 -26 23
-27 25 -8 31 17 6 51 20 78 33 4 2 7 -5 7 -16 0 -28 7 -31 52 -15 22 7 42 12
45 10 6 -7 -39 -80 -69 -110 -15 -16 -28 -33 -28 -39 0 -5 -22 -31 -50 -58
-49 -48 -64 -80 -35 -80 9 0 12 6 9 15 -4 10 0 15 15 15 14 0 21 6 21 19 0 10
7 22 16 25 8 3 12 10 9 16 -7 11 42 33 56 25 5 -4 18 3 29 13 15 14 19 26 15
45 -6 22 -1 27 41 48 26 13 49 32 52 41 2 10 9 15 14 12 5 -3 8 0 7 7 -4 29
14 98 28 103 8 3 12 10 8 15 -11 18 14 22 49 7 32 -13 35 -18 32 -47 -2 -18
-12 -39 -22 -46 -11 -8 -18 -23 -16 -34 2 -12 -4 -29 -14 -40 -17 -18 -16 -19
17 -21 121 -6 123 -6 152 25 31 33 35 62 11 75 -11 6 -14 14 -9 22 6 10 10 10
19 -2 49 -65 56 -71 71 -58 18 15 19 30 3 30 -7 1 -24 10 -37 21 -21 17 -22
22 -10 29 11 8 7 15 -21 38 -19 16 -40 28 -47 25 -6 -2 -29 14 -50 36 -21 23
-44 41 -51 41 -7 0 -20 9 -29 19 -9 11 -23 17 -32 14 -13 -4 -13 -3 -2 5 7 5
10 15 7 21 -5 7 1 11 13 11 12 0 21 5 21 11 0 6 7 8 16 5 27 -10 54 21 47 55
-3 18 -1 29 6 29 7 0 8 8 1 25 -8 20 -6 25 6 25 12 0 15 6 10 23 -3 14 1 32
10 45 14 20 13 24 -17 57 -18 19 -40 35 -51 35 -10 0 -18 5 -18 10 0 18 -43
70 -57 70 -8 0 -11 5 -7 12 5 7 3 8 -7 2 -8 -4 -25 -7 -38 -5 -20 2 -23 -1
-18 -18 3 -14 -1 -22 -14 -26 -10 -4 -19 -11 -19 -16 0 -5 -15 -9 -34 -9 -28
0 -33 -3 -30 -17 3 -10 21 -28 40 -41 19 -12 34 -31 34 -42 0 -10 5 -22 10
-25 15 -9 12 -35 -4 -35 -20 0 -12 -101 8 -112 43 -24 -30 -71 -74 -48 -20 11
-30 -3 -10 -15 20 -12 10 -26 -11 -15 -11 7 -27 9 -34 6 -20 -7 -32 14 -32 57
-1 25 3 37 13 37 8 0 14 5 14 10 0 24 -66 -3 -97 -39 l-21 -26 -46 23 c-26 12
-53 22 -62 22 -8 0 -17 7 -20 15 -3 8 -25 25 -49 39 -41 25 -55 47 -55 94 0
12 -7 25 -15 28 -20 8 -19 24 1 24 9 0 14 7 12 18 -2 9 6 36 18 58 14 29 18
47 12 58 -5 9 -6 22 -2 29 3 6 -5 -1 -18 -17 -22 -26 -29 -28 -61 -22 -33 6
-37 5 -37 -14 0 -11 -7 -20 -15 -20 -19 0 -19 -9 0 -34 11 -14 12 -22 4 -27
-7 -4 -4 -9 10 -14 11 -3 21 -14 21 -23 0 -9 7 -36 15 -60 11 -29 12 -49 6
-61 -7 -12 -6 -22 1 -29 15 -15 -18 -46 -65 -61 -20 -7 -43 -19 -51 -27 -17
-16 -65 -3 -105 28 l-24 18 22 0 c19 0 21 4 15 23 -4 12 -8 38 -9 57 -1 40
-21 73 -50 84 -15 5 -16 9 -6 15 17 11 5 51 -15 51 -8 0 -14 5 -14 10 0 6 -6
10 -14 10 -7 0 -19 6 -25 14 -15 18 8 37 36 30 11 -3 24 0 29 7 5 9 2 11 -9 6
-11 -4 -17 -1 -17 7 0 7 -10 18 -23 23 -18 9 -23 20 -25 54 -3 38 -1 42 10 28
15 -19 58 -32 58 -18 0 6 20 -4 44 -21 25 -16 47 -26 51 -20 3 5 12 7 21 3 8
-3 21 3 29 13 15 19 15 19 30 0 8 -11 17 -17 20 -14 3 3 -1 11 -10 18 -23 19
-18 31 10 24 17 -4 25 -2 26 7 3 53 12 105 20 115 5 6 6 13 3 17 -3 3 -8 20
-10 39 -3 18 -7 50 -11 72 -3 25 -1 41 7 46 7 5 -1 14 -24 28 -36 21 -46 45
-25 57 13 8 -28 55 -48 55 -7 0 -13 9 -13 20 0 11 5 20 10 20 11 0 13 33 4 68
-9 32 -72 31 -101 -2z m147 -237 c0 -6 -4 -7 -10 -4 -5 3 -10 11 -10 16 0 6 5
7 10 4 6 -3 10 -11 10 -16z m-60 -95 c0 -2 -7 -4 -15 -4 -8 0 -15 4 -15 10 0
5 7 7 15 4 8 -4 15 -8 15 -10z m-26 -25 c-10 -16 -24 -9 -24 12 0 18 2 19 15
9 8 -7 12 -16 9 -21z m66 -89 c27 -27 25 -37 -10 -42 -16 -3 -30 -1 -30 4 0 5
-5 6 -10 3 -19 -12 -23 26 -4 40 25 19 30 19 54 -5z m-35 -60 c4 -6 10 -8 15
-5 8 5 25 -13 18 -20 -1 -2 -17 -7 -33 -11 -26 -6 -28 -5 -18 8 10 11 10 17 1
26 -9 9 -9 12 -1 12 7 0 15 -5 18 -10z m-745 -150 c0 -5 -5 -10 -11 -10 -5 0
-7 5 -4 10 3 6 8 10 11 10 2 0 4 -4 4 -10z m38 -86 c-4 -3 -16 -3 -27 1 -17 5
-18 9 -8 20 10 11 14 11 26 -1 8 -7 12 -16 9 -20z m32 20 c0 -8 -4 -12 -10 -9
-5 3 -10 10 -10 16 0 5 5 9 10 9 6 0 10 -7 10 -16z m1400 -264 c0 -5 -2 -10
-4 -10 -3 0 -8 5 -11 10 -3 6 -1 10 4 10 6 0 11 -4 11 -10z m-566 -135 c11 -8
16 -18 12 -22 -3 -4 -16 3 -28 15 -25 25 -13 29 16 7z"/>
<path d="M10913 10552 c-15 -2 -23 -10 -23 -22 0 -26 19 -35 27 -13 4 10 11
21 17 25 15 10 5 14 -21 10z"/>
<path d="M10490 10512 c0 -12 19 -26 26 -19 2 2 -2 10 -11 17 -9 8 -15 8 -15
2z"/>
<path d="M10537 10499 c7 -7 15 -10 18 -7 3 3 -2 9 -12 12 -14 6 -15 5 -6 -5z"/>
<path d="M10693 10487 c4 -10 7 -25 7 -33 0 -8 5 -14 10 -14 16 0 11 36 -7 51
-15 12 -16 12 -10 -4z"/>
<path d="M9430 10469 c7 -11 14 -19 16 -16 7 7 -7 37 -17 37 -6 0 -5 -9 1 -21z"/>
<path d="M10570 10475 l-25 -14 32 -1 c25 0 31 4 27 15 -4 8 -7 15 -8 15 0 -1
-12 -7 -26 -15z"/>
<path d="M10635 10460 c-8 -14 3 -30 21 -30 8 0 14 -4 14 -10 0 -5 5 -10 10
-10 6 0 4 13 -5 30 -16 31 -29 37 -40 20z"/>
<path d="M9583 10429 l-12 -30 -20 20 c-18 18 -24 19 -46 9 -28 -13 -30 -45
-2 -40 9 2 17 -2 17 -8 0 -5 -5 -10 -11 -10 -5 0 -8 -4 -4 -9 3 -5 -1 -16 -9
-24 -13 -13 -11 -16 12 -26 18 -9 28 -9 30 -2 2 6 13 11 23 11 13 0 18 4 13
12 -5 8 -2 9 10 5 10 -4 19 -7 21 -7 2 0 1 -9 -2 -21 -4 -12 -11 -18 -20 -15
-22 9 -65 -28 -51 -42 13 -13 -6 -42 -26 -42 -15 0 -10 -53 6 -87 9 -17 7 -28
-6 -48 -11 -17 -15 -36 -12 -51 5 -17 2 -24 -8 -24 -8 0 -16 -4 -18 -10 -2 -5
-18 -6 -42 0 l-38 8 7 -44 c6 -41 4 -45 -19 -54 -23 -8 -25 -12 -15 -37 5 -15
15 -33 21 -40 6 -7 6 -13 1 -13 -13 0 -33 -59 -22 -66 19 -11 8 -40 -20 -50
-22 -9 -30 -20 -35 -50 -8 -42 -29 -63 -63 -64 -13 0 -23 -5 -23 -10 0 -7 -6
-7 -18 -1 -10 5 -24 6 -32 1 -8 -5 -27 -3 -47 5 -30 13 -33 13 -33 -4 0 -21
-19 -31 -55 -31 -27 0 -34 -14 -29 -61 5 -46 -23 -84 -70 -93 -19 -4 -39 -13
-46 -21 -7 -8 -21 -15 -31 -15 -12 0 -19 -7 -19 -18 0 -15 8 -19 45 -19 25 0
51 -5 57 -11 7 -7 22 -12 33 -12 24 0 105 -75 105 -97 0 -7 6 -13 14 -13 23 0
66 -40 66 -62 0 -18 4 -19 38 -13 20 4 44 12 52 20 8 7 21 10 28 8 6 -3 12 2
12 11 0 18 40 31 68 22 35 -11 66 36 41 61 -15 15 0 62 27 80 13 8 24 22 24
29 0 8 11 19 25 24 21 8 24 14 19 35 -7 28 2 31 31 12 11 -7 26 -12 33 -11 6
1 17 2 22 3 6 0 10 10 10 21 0 11 5 20 10 20 18 0 10 29 -10 35 -11 3 -20 10
-20 13 0 4 -20 14 -45 21 -44 13 -45 14 -39 47 5 25 2 35 -9 40 -11 4 -14 18
-11 62 3 44 10 62 31 84 15 15 35 28 45 28 11 0 18 7 18 18 0 10 5 23 11 29 8
8 8 17 0 31 -15 29 -14 32 12 32 30 0 44 11 56 42 6 17 24 33 46 42 31 13 35
19 35 51 0 31 3 35 18 31 17 -6 19 0 21 46 1 33 7 58 17 68 13 11 18 12 21 3
11 -30 20 -9 16 38 -2 28 0 56 5 62 4 7 8 29 7 51 0 37 -1 38 -37 41 -36 2
-59 -17 -38 -30 14 -9 12 -49 -2 -63 -14 -14 -42 -16 -33 -2 3 6 2 10 -4 10
-6 0 -15 10 -22 21 -10 20 -9 21 11 16 19 -5 21 -2 16 15 -3 14 2 28 16 40 17
15 18 20 8 33 -15 18 -40 20 -40 3 0 -7 -4 -19 -9 -27 -17 -26 -90 46 -83 82
5 21 -15 3 -25 -24z m-543 -999 c0 -5 -4 -10 -9 -10 -6 0 -13 5 -16 10 -3 6 1
10 9 10 9 0 16 -4 16 -10z"/>
<path d="M11636 10221 c-3 -5 1 -16 10 -25 8 -9 13 -20 10 -25 -9 -14 18 -20
31 -6 12 13 8 21 -24 48 -12 11 -24 14 -27 8z"/>
<path d="M12108 10145 c-10 -13 -18 -34 -18 -46 0 -12 8 -31 18 -42 16 -19 16
-20 -5 -15 -19 5 -21 3 -13 -12 7 -12 5 -27 -6 -49 -13 -27 -14 -34 -2 -48 10
-13 10 -17 1 -20 -7 -3 -13 -11 -13 -19 0 -8 -6 -17 -14 -20 -11 -4 -12 -13
-5 -37 13 -45 12 -49 -13 -45 -37 5 -47 -19 -27 -59 10 -19 22 -47 28 -64 7
-21 17 -29 33 -29 18 0 20 -2 8 -10 -8 -5 -12 -11 -10 -12 21 -16 61 -38 69
-38 6 0 8 6 5 14 -7 18 42 49 66 41 24 -8 27 16 5 35 -8 7 -15 18 -15 26 0 7
-9 15 -19 19 -28 9 -34 46 -10 71 11 11 21 38 23 58 2 20 11 42 20 49 15 11
14 16 -10 65 -14 28 -30 52 -35 52 -5 0 -8 3 -7 8 1 4 -1 26 -5 50 -6 33 -12
42 -27 42 -22 0 -26 10 -9 27 6 6 10 16 8 21 -2 6 -12 0 -21 -13z"/>
<path d="M11648 9918 c9 -9 15 -9 24 0 9 9 7 12 -12 12 -19 0 -21 -3 -12 -12z"/>
<path d="M11733 9792 c-28 -4 -29 -14 -3 -37 19 -17 20 -17 20 0 0 16 2 16 22
3 13 -9 23 -22 24 -29 2 -33 5 -39 14 -39 14 0 31 46 24 65 -4 8 -10 12 -16 9
-5 -3 -17 1 -26 8 -24 21 -34 24 -59 20z"/>
<path d="M11383 9708 c-13 -6 -23 -15 -23 -20 0 -10 36 7 45 22 7 12 7 12 -22
-2z"/>
<path d="M11007 9653 c-15 -14 -6 -33 22 -48 19 -9 32 -11 36 -5 4 7 13 7 26
0 15 -9 19 -7 19 7 0 10 -4 23 -8 29 -8 13 -86 27 -95 17z"/>
<path d="M12255 9640 c3 -5 8 -10 11 -10 2 0 4 5 4 10 0 6 -5 10 -11 10 -5 0
-7 -4 -4 -10z"/>
<path d="M12243 9607 c2 -7 -3 -17 -12 -23 -13 -10 -13 -13 1 -28 21 -21 29
-20 21 1 -4 11 -3 14 6 9 17 -11 81 -15 81 -6 0 4 -11 11 -24 14 -13 3 -26 14
-28 24 -3 9 -15 18 -27 19 -13 1 -21 -3 -18 -10z"/>
<path d="M12163 9593 c11 -13 26 -19 38 -16 25 7 25 23 0 23 -11 0 -28 3 -38
7 -17 6 -17 6 0 -14z"/>
<path d="M10950 9585 c0 -8 -4 -15 -9 -15 -5 0 -7 -9 -4 -20 5 -19 6 -19 49 3
38 19 41 24 27 35 -23 17 -63 15 -63 -3z"/>
<path d="M10627 9511 c-2 -11 2 -29 10 -40 18 -26 14 -77 -6 -73 -9 2 -12 -5
-9 -22 4 -19 0 -27 -14 -32 -13 -4 -17 -11 -13 -25 6 -19 5 -19 -31 -4 -44 18
-52 15 -24 -10 11 -10 20 -28 20 -40 0 -12 13 -31 30 -44 17 -12 28 -26 25
-31 -3 -5 -1 -11 4 -14 5 -4 12 -2 16 4 3 5 17 7 31 4 20 -5 24 -2 24 16 0 16
4 20 19 15 26 -8 34 20 16 55 -18 35 -19 40 -2 40 18 0 68 53 71 76 4 23 -11
34 -46 34 -20 0 -36 12 -64 48 -21 26 -41 51 -45 55 -3 5 -9 -1 -12 -12z"/>
<path d="M10880 9511 c-27 -8 -28 -11 -16 -58 9 -39 21 -42 30 -8 4 14 13 25
21 25 16 0 38 34 28 44 -8 7 -29 6 -63 -3z"/>
<path d="M10510 9231 c0 -5 11 -23 25 -39 19 -23 22 -32 12 -42 -7 -7 3 -3 21
9 18 13 32 25 30 27 -8 7 -79 54 -83 54 -3 0 -5 -4 -5 -9z"/>
<path d="M9180 9076 c0 -8 5 -18 10 -21 17 -10 12 -48 -5 -41 -11 4 -15 -2
-15 -21 0 -14 -11 -41 -25 -59 -17 -22 -21 -35 -14 -40 6 -3 15 -1 19 5 4 7
18 10 31 7 13 -3 44 -7 68 -11 38 -5 42 -4 32 9 -9 11 -9 16 0 22 7 4 14 3 17
-4 2 -6 9 -9 16 -6 20 8 7 51 -20 69 -19 12 -22 21 -18 44 5 25 2 32 -24 45
-39 20 -72 21 -72 2z"/>
<path d="M9655 9050 c-4 -6 -11 -8 -16 -5 -5 4 -9 0 -9 -8 0 -7 -11 -19 -25
-25 -14 -6 -25 -18 -25 -27 0 -8 -4 -15 -10 -15 -5 0 -10 -16 -10 -35 0 -21 5
-35 12 -35 9 0 9 -3 1 -11 -6 -6 -9 -19 -5 -27 4 -12 -2 -11 -25 6 l-30 21
-22 -23 c-22 -24 -20 -56 4 -56 7 0 15 -6 18 -14 3 -8 18 -16 34 -18 30 -3 47
-38 19 -38 -23 0 -20 -14 9 -48 28 -33 33 -51 10 -32 -13 10 -15 9 -15 -9 0
-12 12 -28 28 -38 40 -25 52 -43 52 -79 0 -18 5 -36 10 -39 6 -3 10 3 10 15 0
11 6 20 13 19 23 -3 36 1 50 16 13 12 16 12 21 0 3 -8 -3 -16 -15 -20 -10 -4
-19 -11 -19 -16 0 -5 -7 -9 -16 -9 -11 0 -13 -6 -9 -19 4 -13 -1 -24 -16 -34
-17 -13 -20 -21 -14 -48 9 -38 25 -57 43 -51 7 2 19 -2 28 -9 11 -9 18 -9 26
-1 9 9 8 12 -5 12 -10 0 -20 12 -25 33 -9 33 -6 57 8 57 11 0 62 -51 76 -75 8
-14 20 -19 44 -17 20 2 40 -4 52 -15 30 -27 52 2 49 66 -1 49 -1 50 26 48 24
-2 28 2 28 26 -1 35 30 38 39 3 8 -31 33 -41 41 -16 3 10 16 20 28 22 15 2 21
9 19 21 -2 9 2 17 8 17 6 0 4 8 -5 17 -15 15 -16 18 -2 28 9 6 18 22 22 36 7
32 -70 119 -107 119 -36 0 -89 -20 -87 -34 4 -31 -2 -38 -26 -34 -17 4 -32 -3
-50 -23 -23 -23 -31 -26 -56 -19 -17 5 -31 5 -34 -1 -11 -16 -23 -10 -39 21
-8 17 -10 30 -5 30 6 0 9 10 7 23 -2 16 -9 21 -26 19 -24 -2 -61 31 -62 55 0
6 -6 14 -12 17 -10 5 -10 7 0 12 6 3 12 11 12 17 0 7 8 17 19 24 10 6 21 26
23 43 4 26 -1 35 -33 61 -35 28 -37 32 -27 59 5 17 16 30 24 30 8 0 14 9 14
20 0 21 -33 29 -45 10z m-32 -105 c0 -6 7 -21 14 -35 15 -29 10 -38 -11 -17
-20 20 -33 71 -17 66 7 -3 13 -9 14 -14z m37 -125 c0 -5 -4 -10 -10 -10 -5 0
-10 5 -10 10 0 6 5 10 10 10 6 0 10 -4 10 -10z m455 -190 c3 -5 1 -10 -4 -10
-6 0 -11 5 -11 10 0 6 2 10 4 10 3 0 8 -4 11 -10z m-115 -29 c0 -10 -3 -21 -6
-24 -13 -12 -21 3 -17 28 6 27 23 24 23 -4z m-65 -11 c3 -5 2 -10 -4 -10 -5 0
-13 5 -16 10 -3 6 -2 10 4 10 5 0 13 -4 16 -10z"/>
<path d="M9340 8861 c0 -6 4 -13 10 -16 6 -3 7 1 4 9 -7 18 -14 21 -14 7z"/>
<path d="M9392 8835 c9 -10 21 -16 28 -13 7 2 -1 10 -16 17 -27 12 -28 11 -12
-4z"/>
<path d="M9366 8821 c-4 -7 -5 -15 -2 -18 9 -9 19 4 14 18 -4 11 -6 11 -12 0z"/>
<path d="M8381 8783 c4 -27 -23 -93 -38 -93 -7 0 -13 -10 -13 -22 0 -29 36
-85 42 -67 4 11 10 10 31 -4 14 -9 33 -17 40 -17 8 0 24 -9 37 -20 25 -22 40
-26 40 -10 0 6 10 5 25 -2 32 -14 48 -1 63 51 7 21 19 44 27 51 19 16 19 30
-1 30 -8 0 -28 14 -44 31 -15 17 -33 28 -39 25 -6 -4 -11 -2 -11 5 0 9 -3 9
-14 -1 -10 -8 -21 -8 -32 -2 -9 5 -26 7 -37 4 -14 -4 -18 -2 -13 7 5 7 0 21
-10 32 -22 24 -56 26 -53 2z"/>
<path d="M8350 8555 c-16 -15 -38 -25 -62 -27 -41 -2 -54 -19 -38 -48 6 -10
10 -24 10 -30 0 -18 -20 0 -32 28 -10 24 -12 25 -16 7 -2 -10 -11 -29 -19 -42
-9 -13 -13 -33 -10 -45 4 -12 4 -33 0 -46 -6 -27 -51 -48 -67 -32 -12 12 -29
14 -23 3 3 -5 -32 -9 -76 -11 -66 -2 -92 -8 -133 -29 -56 -29 -57 -29 -128 22
-62 45 -86 45 -107 0 -16 -35 -16 -36 11 -70 27 -34 27 -35 11 -69 -9 -19 -30
-41 -49 -50 -38 -19 -46 -20 -37 -6 3 6 1 10 -5 10 -7 0 -9 -8 -5 -19 3 -12 0
-21 -10 -25 -9 -3 -21 -19 -26 -36 -6 -16 -14 -28 -17 -26 -4 2 -20 -6 -35
-18 l-28 -22 32 -29 c30 -26 31 -29 14 -41 -11 -8 -13 -14 -7 -14 7 0 12 -10
12 -21 0 -24 -26 -48 -51 -49 -9 0 -28 -9 -43 -21 -14 -11 -38 -19 -53 -18
-47 4 -63 0 -63 -16 0 -8 -9 -15 -20 -15 -11 0 -20 -4 -20 -10 0 -5 -15 -10
-32 -11 -18 0 -55 -6 -83 -12 -39 -10 -51 -17 -56 -37 -4 -14 -7 -19 -8 -12
-1 18 -92 57 -124 53 -10 -2 -27 5 -38 15 -18 16 -19 15 -15 -45 2 -35 8 -67
14 -73 7 -7 5 -21 -5 -46 -8 -21 -13 -50 -10 -69 3 -19 0 -45 -9 -62 -15 -31
-5 -81 16 -81 6 0 18 -7 27 -15 8 -8 19 -13 24 -9 11 6 39 -13 39 -27 0 -5 -7
-9 -15 -9 -17 0 -19 -12 -5 -40 6 -11 14 -29 20 -40 14 -28 -4 -70 -31 -70
-18 0 -19 -3 -9 -15 9 -11 7 -22 -11 -54 -12 -22 -26 -38 -31 -35 -4 3 -8 -2
-8 -10 0 -8 -7 -19 -15 -24 -18 -10 -11 -38 12 -46 8 -3 21 1 29 9 9 8 22 15
30 15 21 0 17 28 -6 35 -18 6 -18 8 -3 41 12 24 23 34 39 34 26 0 74 20 74 30
0 8 39 23 53 21 15 -2 6 23 -15 47 l-23 24 25 -7 c14 -4 28 -13 32 -19 5 -7 8
-4 8 8 0 15 6 17 40 14 27 -2 41 1 45 10 8 21 28 9 32 -18 2 -13 9 -27 16 -32
6 -4 12 -25 12 -47 0 -34 3 -41 23 -46 15 -4 22 -11 18 -20 -3 -8 0 -18 6 -21
19 -12 72 -12 86 -1 7 5 15 7 19 4 3 -4 -1 -9 -10 -13 -9 -3 -13 -12 -10 -20
3 -7 -2 -17 -11 -20 -11 -4 -14 -13 -11 -25 4 -11 2 -19 -2 -19 -5 0 -9 -18
-8 -40 0 -35 3 -40 23 -40 12 0 22 6 22 14 0 8 12 24 26 35 21 17 25 27 21 50
-5 23 -1 32 18 45 22 14 24 14 28 -2 4 -15 5 -15 6 1 1 23 32 15 78 -20 19
-15 34 -20 38 -13 4 7 12 7 25 0 26 -14 30 -13 30 9 0 27 60 33 90 9 25 -20
50 -24 50 -7 0 5 4 8 9 5 5 -3 14 1 21 9 7 8 19 15 26 15 8 0 20 11 26 25 7
16 19 25 34 25 13 0 26 5 29 10 4 7 13 6 26 -1 28 -15 48 -5 60 30 10 28 11
28 55 19 36 -8 50 -7 69 6 20 13 29 14 62 2 21 -7 43 -11 50 -9 6 2 14 0 17
-5 3 -5 27 -6 53 -2 32 5 60 3 86 -6 36 -13 39 -13 44 6 3 11 12 20 20 20 10
0 12 6 7 22 -6 19 -5 21 8 10 12 -10 18 -8 32 6 15 17 15 21 0 51 -9 17 -13
38 -10 46 2 7 2 15 -2 17 -4 2 -15 20 -25 41 -9 21 -21 36 -26 32 -5 -3 -12 3
-14 12 -3 10 -9 29 -12 42 -6 19 -4 23 8 18 21 -8 30 21 12 39 -8 9 -15 25
-15 37 -1 12 -9 38 -19 57 -18 34 -18 34 4 52 13 10 32 18 43 18 40 0 52 11
52 46 0 26 6 37 24 45 13 6 31 25 39 42 9 18 27 44 39 60 17 21 22 42 24 94 2
59 5 69 28 86 36 26 33 44 -15 93 -34 35 -40 47 -35 69 4 15 11 23 17 19 8 -4
8 0 0 14 -8 15 -8 21 0 24 8 3 8 10 -2 25 -11 19 -11 25 4 41 9 10 17 30 17
44 0 34 35 44 63 17 36 -33 55 -25 55 24 0 23 1 47 2 52 1 6 2 20 1 33 -1 27
-21 30 -21 2 0 -26 -61 -38 -93 -18 -38 25 -67 29 -67 8 0 -10 -7 -20 -15 -24
-8 -3 -15 -15 -15 -26 0 -16 -7 -20 -30 -20 -20 0 -30 -5 -30 -15 0 -10 -10
-15 -30 -15 -16 0 -30 -4 -30 -10 0 -5 -15 -16 -33 -25 -31 -14 -36 -14 -92 9
-33 14 -54 25 -47 26 6 0 12 11 12 25 0 28 12 32 29 11 18 -21 53 -16 48 6 -3
10 0 18 6 18 7 0 6 5 -3 11 -11 8 -12 12 -3 16 10 3 9 8 -2 20 -9 9 -13 23
-10 34 6 17 -22 79 -35 79 -3 0 -17 -11 -30 -25z m-30 -175 c0 -5 -4 -10 -10
-10 -5 0 -10 5 -10 10 0 6 5 10 10 10 6 0 10 -4 10 -10z m-56 -55 c3 -8 1 -15
-4 -15 -6 0 -10 7 -10 15 0 8 2 15 4 15 2 0 6 -7 10 -15z m-59 -57 c33 -15 32
-31 -4 -45 -24 -8 -31 -8 -35 3 -3 7 -17 16 -32 20 l-27 7 29 13 c37 16 38 16
69 2z m-470 -88 c3 -5 1 -10 -4 -10 -6 0 -11 5 -11 10 0 6 2 10 4 10 3 0 8 -4
11 -10z m526 -52 c24 15 69 -4 69 -30 0 -19 34 -26 45 -8 9 15 42 12 49 -5 9
-25 23 -17 44 27 19 41 19 41 32 19 6 -13 10 -37 7 -54 -4 -32 10 -56 29 -50
5 2 20 -10 32 -26 17 -24 20 -35 13 -55 -6 -13 -15 -27 -21 -31 -8 -5 -7 -11
2 -22 11 -14 10 -15 -9 -9 -12 4 -24 2 -28 -4 -3 -5 1 -10 9 -10 9 0 16 -7 16
-15 0 -23 -26 -18 -38 8 -6 12 -11 16 -11 10 -1 -21 -44 -14 -71 10 -14 12
-35 44 -47 70 -22 45 -24 46 -55 40 -18 -4 -46 -7 -63 -8 -25 0 -30 4 -28 23
2 12 -2 22 -7 22 -6 0 -10 15 -10 33 0 17 -9 43 -20 57 -29 37 -24 44 11 19
26 -18 35 -20 50 -11z m144 -638 c3 -5 1 -10 -4 -10 -6 0 -11 5 -11 10 0 6 2
10 4 10 3 0 8 -4 11 -10z m-25 -60 c0 -5 -2 -10 -4 -10 -3 0 -8 5 -11 10 -3 6
-1 10 4 10 6 0 11 -4 11 -10z m-960 -66 c0 -2 -7 -4 -15 -4 -8 0 -15 4 -15 10
0 5 7 7 15 4 8 -4 15 -8 15 -10z m-46 -112 c-18 -28 -51 -27 -56 2 -6 28 1 33
20 14 9 -9 13 -7 18 6 5 13 10 14 18 6 7 -7 8 -15 0 -28z"/>
<path d="M8300 8095 c0 -14 31 -65 40 -65 16 0 12 17 -5 24 -8 3 -15 12 -15
20 0 8 -4 18 -10 21 -5 3 -10 3 -10 0z"/>
<path d="M8121 8518 c0 -13 3 -17 6 -10 2 6 9 10 14 7 5 -4 6 1 3 9 -9 24 -24
19 -23 -6z"/>
<path d="M8180 8536 c0 -2 7 -7 16 -10 8 -3 12 -2 9 4 -6 10 -25 14 -25 6z"/>
<path d="M8160 8509 c0 -5 5 -7 10 -4 6 3 10 8 10 11 0 2 -4 4 -10 4 -5 0 -10
-5 -10 -11z"/>
<path d="M10040 8425 c7 -8 16 -15 21 -15 5 0 6 7 3 15 -4 8 -13 15 -21 15
-13 0 -13 -3 -3 -15z"/>
<path d="M9825 8300 c35 -47 36 -52 21 -69 -9 -10 -16 -22 -16 -27 0 -5 -9
-15 -21 -22 -14 -9 -20 -22 -18 -40 2 -15 0 -33 -4 -40 -5 -6 -4 -12 1 -12 12
0 6 -134 -8 -159 -6 -12 -20 -21 -31 -21 -17 0 -18 -3 -9 -20 8 -16 8 -20 -3
-20 -13 0 -13 -10 -1 -72 13 -69 13 -74 -4 -88 -35 -29 -43 -54 -24 -81 9 -13
18 -35 19 -49 5 -71 13 -104 29 -121 16 -18 16 -19 -3 -19 -11 0 -27 -8 -34
-17 -12 -15 -12 -16 5 -10 10 4 25 2 33 -5 19 -16 41 -19 49 -7 8 13 34 -9 44
-36 5 -13 34 -33 74 -51 36 -16 66 -34 66 -39 0 -15 46 -13 61 2 6 6 18 9 26
6 7 -3 13 -2 12 3 -1 5 -1 27 0 49 2 37 3 38 16 21 7 -10 18 -15 23 -12 5 3
22 2 38 -3 23 -6 28 -12 26 -30 -2 -15 4 -28 17 -38 25 -17 28 -43 5 -43 -12
0 -15 -6 -10 -22 3 -13 6 -26 6 -29 0 -4 9 -9 21 -12 12 -3 18 -10 15 -15 -3
-5 6 -19 19 -32 19 -17 22 -27 14 -36 -6 -7 -8 -18 -4 -24 3 -5 1 -10 -4 -10
-6 0 -11 5 -11 10 0 6 -4 10 -10 10 -5 0 -10 -7 -10 -16 0 -9 -7 -31 -16 -50
-13 -27 -21 -33 -38 -28 -28 7 -53 -18 -34 -34 7 -6 29 -13 49 -17 31 -6 37
-4 42 14 7 27 24 27 32 1 3 -11 10 -20 15 -20 5 0 12 -9 15 -20 4 -11 15 -20
26 -20 11 0 18 -4 14 -9 -9 -15 10 -21 45 -14 19 3 35 13 37 23 3 12 11 16 24
13 18 -5 19 -2 13 22 -6 22 -4 26 7 19 8 -4 35 -11 62 -14 l48 -7 -7 30 c-4
19 -3 27 4 23 6 -3 13 -2 17 4 3 5 1 10 -4 10 -6 0 -11 16 -11 35 0 19 5 35
11 35 5 0 -6 29 -25 65 -36 65 -46 105 -25 105 8 0 8 5 -1 15 -7 8 -9 15 -4
15 5 1 -4 8 -19 16 -25 13 -27 19 -21 47 3 18 11 38 16 45 7 8 7 16 -1 25 -14
17 -4 27 26 27 20 0 23 5 23 39 0 30 5 41 19 46 13 4 17 12 13 30 -2 14 1 31
7 39 9 11 6 21 -15 45 -14 17 -23 31 -19 31 4 0 3 6 -3 13 -8 9 -8 25 0 55 8
34 8 46 -6 66 -8 14 -24 24 -33 24 -10 0 -25 3 -35 6 -11 5 -18 1 -23 -14 l-7
-22 -24 23 c-19 17 -24 19 -24 7 0 -9 -7 -21 -15 -28 -13 -10 -19 -10 -34 4
-16 14 -19 15 -24 2 -7 -18 -46 -10 -54 11 -3 8 -16 18 -29 23 -16 6 -25 20
-30 44 -9 51 -74 112 -74 71 0 -13 -4 -14 -20 -5 -21 11 -27 64 -14 128 5 24
10 29 26 24 18 -4 20 -2 14 21 -4 16 -2 27 3 27 19 0 -2 32 -28 41 -18 7 -22
12 -13 18 10 6 10 13 1 34 -8 18 -26 30 -63 42 -28 9 -62 25 -76 35 -16 11
-40 17 -65 16 -28 -1 -51 5 -74 21 -52 35 -56 28 -16 -27z"/>
<path d="M8856 8315 c8 -37 7 -35 21 -27 8 5 6 15 -8 32 l-20 25 7 -30z"/>
<path d="M9616 8304 c-4 -10 -1 -14 6 -12 15 5 23 28 10 28 -5 0 -13 -7 -16
-16z"/>
<path d="M8908 8283 c7 -3 16 -2 19 1 4 3 -2 6 -13 5 -11 0 -14 -3 -6 -6z"/>
<path d="M9000 8275 c0 -8 -9 -15 -20 -15 -11 0 -23 -8 -26 -17 -5 -16 -21
-54 -32 -75 -2 -3 12 -9 30 -13 64 -13 70 -16 65 -37 -7 -24 25 -58 53 -58 11
0 23 -7 27 -16 5 -13 16 -15 57 -10 28 3 58 2 65 -3 9 -6 22 -6 32 0 11 6 27
5 44 -1 35 -13 65 6 65 42 0 20 4 26 15 22 18 -7 21 26 3 44 -6 6 -13 17 -14
24 -1 7 -9 26 -17 42 -15 27 -15 28 -26 7 -10 -18 -9 -21 9 -21 11 0 20 -4 20
-10 0 -5 -5 -10 -11 -10 -6 0 -8 -9 -4 -20 4 -12 2 -20 -5 -20 -7 0 -10 -6 -7
-14 8 -19 -3 -28 -19 -15 -8 7 -14 7 -19 -1 -10 -17 -60 18 -72 51 -8 21 -18
29 -36 29 -36 0 -57 10 -57 27 0 8 -5 11 -10 8 -6 -3 -13 2 -17 12 -17 49 -93
88 -93 48z"/>
<path d="M9583 8237 c-13 -5 -23 -15 -23 -20 0 -6 -6 -3 -12 5 -16 21 -60 14
-76 -13 -7 -10 -8 -19 -3 -19 5 0 7 -9 4 -20 -3 -11 -9 -20 -14 -20 -5 0 -9
-7 -9 -16 0 -10 -7 -14 -22 -12 -32 4 -35 -26 -3 -40 17 -8 25 -20 25 -36 0
-18 9 -27 37 -39 35 -14 39 -13 52 5 10 16 11 22 2 28 -14 8 -30 70 -31 114 0
24 3 28 22 23 36 -10 63 2 75 34 13 34 7 41 -24 26z"/>
<path d="M10140 8190 c0 -5 5 -10 11 -10 5 0 7 5 4 10 -3 6 -8 10 -11 10 -2 0
-4 -4 -4 -10z"/>
<path d="M6855 7730 c4 -6 11 -8 16 -5 14 9 11 15 -7 15 -8 0 -12 -5 -9 -10z"/>
<path d="M6860 7029 c0 -5 5 -7 10 -4 6 3 10 8 10 11 0 2 -4 4 -10 4 -5 0 -10
-5 -10 -11z"/>
</g>
</svg>
