<?xml version="1.0" standalone="no"?>
<!DOCTYPE svg PUBLIC "-//W3C//DTD SVG 20010904//EN"
 "http://www.w3.org/TR/2001/REC-SVG-20010904/DTD/svg10.dtd">
<svg version="1.0" xmlns="http://www.w3.org/2000/svg"
 width="378.993355pt" height="406.228601pt" viewBox="0 0 378.993355 406.228601"
 preserveAspectRatio="xMidYMid meet">
<metadata>
Created by potrace 1.15, written by Peter Selinger 2001-2017
</metadata>
<g transform="translate(-806.679172,1226.979464) scale(0.100000,-0.100000)"
fill="#222222" stroke="none">
<path d="M8693 12257 c4 -10 7 -27 7 -37 0 -10 9 -28 20 -41 19 -24 19 -24 0
30 -11 29 -22 56 -26 60 -4 3 -4 -2 -1 -12z"/>
<path d="M8740 12235 c0 -8 4 -15 10 -15 5 0 7 7 4 15 -4 8 -8 15 -10 15 -2 0
-4 -7 -4 -15z"/>
<path d="M8816 12101 c-4 -7 -5 -15 -2 -18 9 -9 19 4 14 18 -4 11 -6 11 -12 0z"/>
<path d="M8763 12005 c-7 -8 -13 -21 -13 -30 0 -10 -5 -13 -12 -9 -6 4 -16 1
-22 -7 -24 -30 -50 -37 -79 -22 -24 12 -30 12 -48 -1 -19 -13 -26 -12 -72 10
-51 23 -52 23 -55 4 -3 -16 -11 -20 -42 -20 -46 0 -72 -9 -64 -21 3 -5 2 -18
-1 -29 -5 -15 -15 -20 -41 -20 -19 0 -34 -4 -34 -8 0 -11 -68 -82 -79 -82 -5
0 -20 -17 -32 -37 -12 -21 -24 -39 -25 -41 -1 -2 -12 2 -24 8 -11 6 -31 10
-43 8 -18 -3 -14 -9 31 -41 28 -21 52 -45 52 -52 0 -7 11 -20 25 -29 14 -9 27
-27 31 -41 4 -15 13 -25 24 -25 20 0 40 -21 55 -58 6 -14 37 -41 70 -61 40
-24 65 -47 74 -69 8 -17 20 -32 27 -32 6 0 19 -16 29 -36 9 -19 23 -38 30 -40
7 -3 25 -23 40 -45 17 -26 32 -39 43 -36 9 2 31 -3 47 -11 39 -19 241 -23 256
-5 8 9 22 6 57 -13 26 -14 52 -31 57 -38 6 -7 20 -18 33 -25 12 -7 20 -15 18
-20 -7 -11 77 -98 91 -94 6 2 31 -8 54 -23 23 -14 54 -26 68 -26 14 0 41 -10
61 -23 19 -12 53 -28 75 -35 22 -7 44 -19 48 -27 7 -11 12 -11 23 -2 7 6 21 9
29 5 9 -3 15 0 15 10 0 21 27 47 35 34 4 -7 16 -4 34 6 27 16 30 16 54 -2 27
-20 42 -54 24 -54 -17 0 -2 -10 22 -15 11 -2 36 -15 54 -29 33 -25 67 -34 67
-18 0 4 34 8 75 8 51 1 75 -3 75 -11 0 -7 9 -20 20 -30 11 -10 17 -21 15 -25
-3 -4 2 -11 11 -14 22 -9 24 -8 24 9 0 18 5 18 30 5 10 -5 32 -11 50 -12 17
-1 34 -6 36 -10 3 -4 14 -8 25 -8 10 0 19 -4 19 -9 0 -6 18 -9 40 -9 41 0 100
-18 100 -32 0 -12 70 -113 88 -128 9 -7 22 -10 28 -8 14 5 69 -51 78 -82 4
-12 11 -22 16 -22 14 0 30 -36 36 -77 5 -44 9 -49 27 -35 16 14 27 6 27 -20 0
-10 16 -36 37 -58 30 -34 37 -50 40 -93 2 -29 11 -78 20 -110 13 -45 14 -63 5
-77 -9 -15 -6 -22 26 -42 62 -42 103 -60 119 -53 9 3 24 -2 33 -10 12 -11 20
-13 25 -6 4 8 12 8 26 1 15 -8 25 -6 49 12 16 12 30 25 30 29 0 4 8 10 18 13
27 10 61 31 86 55 12 12 26 18 31 14 4 -5 5 0 1 11 -4 13 -2 17 8 13 26 -10
29 30 6 63 -12 17 -19 37 -16 45 3 8 2 15 -2 15 -4 0 -29 20 -56 45 -44 40
-48 47 -42 76 4 22 0 45 -13 73 -11 23 -23 58 -26 79 -6 30 -4 37 9 37 9 0 16
3 17 8 1 4 3 35 4 69 3 61 2 64 -38 112 -30 36 -45 47 -54 39 -7 -5 -39 -8
-73 -6 -33 1 -60 0 -60 -4 0 -14 -51 -8 -56 6 -3 8 -14 16 -25 19 -14 4 -19 0
-19 -15 0 -17 -3 -18 -15 -8 -8 7 -13 16 -10 20 7 12 -84 17 -95 6 -7 -7 -10
-6 -10 2 0 7 -8 12 -18 12 -11 0 -27 9 -37 20 -11 13 -22 17 -29 11 -6 -5 -30
-11 -54 -12 -38 -3 -45 0 -72 33 -17 20 -30 40 -29 45 8 44 -8 59 -97 96 -61
26 -85 31 -101 24 -33 -14 -117 44 -144 100 -16 33 -26 43 -45 43 -19 0 -24 5
-24 25 0 27 -7 35 -87 96 -50 39 -52 39 -63 19 l-11 -21 -30 21 c-16 12 -29
28 -29 36 0 8 -7 17 -15 20 -8 4 -15 12 -15 19 0 8 -16 29 -36 48 -36 33 -37
34 -55 16 -23 -23 -35 -24 -42 -5 -11 28 -58 50 -101 47 -33 -1 -47 3 -65 23
-13 14 -27 23 -31 21 -4 -3 -15 4 -25 15 -10 11 -24 20 -31 20 -7 0 -14 4 -16
9 -1 5 -21 6 -43 2 -78 -13 -187 27 -206 76 -6 15 -17 23 -33 23 -14 0 -27 4
-30 9 -4 5 -26 19 -51 31 -25 12 -50 31 -56 41 -5 10 -18 19 -27 19 -10 0 -23
5 -29 11 -20 20 -91 14 -117 -10 -19 -18 -34 -21 -104 -21 -78 0 -113 12 -72
25 11 3 20 11 20 16 0 5 9 9 21 9 12 0 23 8 26 20 3 13 14 20 29 20 18 0 29 9
41 35 9 19 22 34 28 33 21 -5 65 39 65 66 0 15 11 38 25 52 27 27 29 52 5 71
-13 10 -11 13 13 22 27 11 35 25 18 36 -5 3 -16 -4 -24 -15 -9 -13 -20 -18
-30 -14 -15 5 -15 8 0 31 14 21 14 26 2 34 -18 11 -22 11 -36 -6z m-270 -318
c10 -31 -20 -70 -45 -56 -8 5 -31 6 -51 2 -33 -5 -42 -13 -38 -35 1 -9 -39
-21 -47 -14 -3 4 0 12 6 18 8 8 8 14 -4 22 -24 18 -7 47 22 40 18 -5 24 -2 24
10 0 14 4 15 20 6 17 -9 23 -5 42 24 21 31 25 34 42 22 11 -7 24 -24 29 -39z
m-132 -145 c-7 -2 -18 1 -23 6 -8 8 -4 9 13 5 13 -4 18 -8 10 -11z m1244 -642
c16 -17 16 -20 3 -15 -9 4 -19 13 -22 21 -7 19 -2 18 19 -6z"/>
<path d="M11228 9893 c-3 -14 52 -83 67 -83 3 0 16 -11 28 -25 14 -16 27 -22
34 -17 23 15 -17 75 -65 98 -23 11 -40 23 -37 26 3 3 -1 8 -9 11 -9 4 -16 -1
-18 -10z"/>
<path d="M11377 9763 c-15 -14 -6 -40 25 -73 30 -33 33 -33 36 -14 7 49 -37
112 -61 87z"/>
<path d="M11420 9625 c-5 -14 -14 -25 -19 -25 -15 0 -21 -29 -11 -55 5 -14 6
-27 0 -30 -15 -9 -7 -49 12 -63 10 -7 18 -20 18 -28 0 -8 4 -14 9 -14 5 0 11
-17 15 -39 3 -21 13 -44 21 -51 8 -7 15 -18 15 -26 0 -17 32 -26 63 -19 19 5
28 0 42 -22 10 -15 25 -32 32 -37 11 -5 13 -18 9 -41 -4 -18 -2 -45 4 -60 16
-42 -15 -195 -40 -195 -5 0 -10 17 -10 38 0 20 -4 43 -9 51 -6 9 -5 21 2 32
15 24 -15 69 -41 62 -10 -2 -24 3 -32 12 -11 13 -11 18 2 28 25 20 29 56 7 67
-15 8 -17 7 -13 -5 7 -18 -12 -20 -20 -2 -3 6 -3 -1 0 -18 9 -40 5 -118 -6
-129 -5 -5 -1 -24 8 -44 13 -27 14 -36 4 -40 -7 -2 -20 -11 -28 -20 -15 -15
-15 -17 3 -31 29 -24 36 -51 18 -72 -15 -16 -15 -18 4 -24 29 -9 81 -66 81
-87 0 -23 9 -23 25 -1 9 12 10 23 4 35 -5 10 -6 18 -2 18 4 0 -2 7 -13 16 -13
11 -15 17 -6 20 6 3 12 13 12 22 0 12 11 6 35 -20 24 -26 35 -47 35 -68 0 -16
4 -30 9 -30 11 0 21 25 21 56 0 20 5 24 30 24 21 0 36 8 51 30 12 16 27 26 33
23 6 -3 7 -2 3 2 -4 5 -35 9 -69 10 -71 0 -78 11 -48 80 13 31 15 46 7 54 -8
8 -8 14 0 22 6 6 9 18 6 25 -3 8 0 20 6 28 6 7 8 16 4 19 -12 12 -4 80 12 97
8 9 15 24 15 32 0 11 6 14 20 11 27 -7 27 28 0 44 -16 11 -18 10 -14 -2 4 -10
0 -15 -15 -15 -31 0 -59 21 -54 40 3 10 -2 20 -11 23 -12 5 -16 0 -16 -16 0
-12 -12 -30 -25 -40 -20 -14 -25 -15 -25 -3 0 8 -13 19 -30 25 -34 11 -36 18
-15 57 23 44 19 71 -11 78 -22 6 -25 11 -23 44 3 47 -8 87 -38 135 -27 43 -40
46 -53 12z"/>
<path d="M11806 9324 c-4 -16 -13 -32 -19 -36 -7 -5 -3 -8 11 -8 12 0 22 4 22
8 0 5 10 14 23 20 17 8 18 11 5 11 -9 1 -21 8 -26 17 -8 14 -10 12 -16 -12z"/>
<path d="M11456 9271 c-4 -7 -5 -15 -2 -18 9 -9 19 4 14 18 -4 11 -6 11 -12 0z"/>
<path d="M11550 9170 c0 -5 7 -10 16 -10 8 0 12 5 9 10 -3 6 -10 10 -16 10 -5
0 -9 -4 -9 -10z"/>
<path d="M11608 8699 c-10 -5 -18 -6 -18 -2 0 4 -4 2 -8 -5 -5 -7 -22 -14 -38
-15 -33 -2 -77 -44 -102 -96 -8 -19 -28 -41 -43 -50 -17 -9 -29 -26 -31 -41
-2 -18 -10 -26 -27 -28 -16 -3 -20 -6 -12 -11 7 -4 13 -19 14 -32 5 -60 72
-110 104 -78 8 8 18 6 37 -6 21 -14 24 -20 15 -37 -6 -10 -18 -18 -27 -16 -9
2 -25 -6 -34 -18 -19 -23 -23 -43 -10 -45 4 0 21 -2 37 -4 99 -11 105 -11 105
7 0 10 14 38 32 63 30 42 31 48 20 77 -6 17 -9 34 -7 37 3 2 5 -1 5 -7 0 -7 5
-12 10 -12 6 0 10 7 10 15 0 20 6 19 41 -6 19 -13 28 -27 25 -37 -7 -23 9 -46
27 -39 21 8 28 59 11 78 -8 8 -14 23 -14 32 0 9 -10 25 -21 36 -15 13 -20 27
-16 42 3 12 -1 32 -9 45 -15 22 -14 23 11 30 l28 7 -24 18 c-13 9 -26 16 -29
15 -3 -1 -15 8 -27 21 l-23 24 23 8 c15 6 27 4 40 -7 15 -14 17 -14 17 1 0 15
-11 20 -37 16 -3 0 -10 6 -15 15 -10 18 -16 19 -40 5z"/>
<path d="M11780 8656 c0 -8 4 -17 9 -20 5 -4 7 3 4 14 -6 23 -13 26 -13 6z"/>
<path d="M11740 8639 c0 -5 5 -7 10 -4 6 3 10 8 10 11 0 2 -4 4 -10 4 -5 0
-10 -5 -10 -11z"/>
<path d="M11465 8310 c3 -5 8 -10 11 -10 2 0 4 5 4 10 0 6 -5 10 -11 10 -5 0
-7 -4 -4 -10z"/>
</g>
</svg>
