<svg version="1" xmlns="http://www.w3.org/2000/svg" width="1127.839" height="606.077" viewBox="0 0 845.88 454.557"><g fill="#222"><path d="M348.434 2.753c-1.8 1.8-3.9 3.1-4.7 2.9-.7-.3-1.5.3-1.8 1.4-.4 1.6-1.1 1.9-3.4 1.3-1.5-.4-3.2-1.1-3.7-1.5-.6-.5-1.3-.9-1.7-.9-.7 0 .4 7.1 1.5 8.8.4.7.3 1.2-.3 1.2-.5 0-1.7.7-2.6 1.6-1.3 1.4-1.4 1.9-.3 2.5 1 .6 1 1.1.1 2-.7.7-.9 2.4-.6 4 .4 2.3.2 2.9-1.2 2.9-1 0-1.5.5-1.2 1.4.3.7-.8 2.9-2.3 4.8-2.1 2.5-2.7 4.1-2.3 5.8.4 1.5.2 2.1-.4 1.7-.6-.4-1.8.2-2.8 1.3-1.1 1.2-2.6 1.8-3.5 1.5-2.1-.7-5.2.4-4.5 1.5.3.4-.5 1-1.6 1.3-1.2.3-1.8 1-1.4 1.6.3.6 0 1.1-.8 1.1-2.1 0-2.8 4-1.1 6.4 1.7 2.5 1.8 5.3.2 5.8-.7.3-.4 1.5 1.1 3.5 1.3 1.7 2 3.6 1.7 4.2-.4.6-.4 1.7.1 2.3 1.4 2.2 1 8.7-.5 9.3-.8.3-1.1 1.2-.8 2 .3.8.2 1.5-.3 1.5-1 0-.8 9.1.3 10.9.5.7.5 1.6 0 2-.5.3-1.4 1.9-1.9 3.6-.7 2.1-2 3.3-4.4 4.1l-3.3 1.1 3.1 1.3c1.7.7 3.1 1.8 3.1 2.5 0 .8.5 1.5 1.2 1.7 1.8.6 0 2.8-2.3 2.8-1.7 0-1.8.3-.9 2 .6 1.1 1 2.6.8 3.3-.1.6.3 2.2 1 3.4 1.2 2.2 1.1 2.2-1.7 1.7-1.7-.4-3.8-.3-4.8.2-3.6 1.5-10.7 3.2-11.9 2.7-2.1-.8-5.4 1.6-4.7 3.3.5 1.3.2 1.5-1.5.9-1.3-.3-2.2-.2-2.2.4 0 .5-1.4.8-3.1.6-3.3-.4-6.9-3-6.9-5 0-2.6-2.2-3.3-4.1-1.4-1 1-3 1.9-4.4 1.9-1.8 0-2.6.7-3.1 2.6-.5 2-1.1 2.4-2.8 2-1.1-.3-2.7-.6-3.3-.6-.7 0-1.3-.7-1.3-1.6 0-1.1.6-1.4 2.3-.9 1.7.6 1.3-.2-2-3.7-2.9-2.9-4.3-5.3-4.3-7 0-4.6-4.7-7.6-9.1-5.9-2.1.8-2.2 1-.6 1.6.9.4 1.7 1.7 1.7 2.9s.8 3.8 1.9 5.9c1.6 3.1 1.6 3.8.5 4.8-.8.6-1.4 1.8-1.4 2.5 0 .8-.6 1.4-1.4 1.4-.7 0-1.6.9-1.9 2-.5 2-3.7 2.9-3.7.9 0-.5-.5-.7-1.1-.4-.6.4-.8 1.2-.6 1.9.5 1.3-6.1 4.7-6.9 3.5-1.1-1.9-3 1.7-2.8 5.5.2 2.9-.3 4.6-1.7 5.9-1 1-1.9 2.5-1.9 3.3 0 1.2-.8 1.5-3.4 1.2-3.2-.3-3.4-.2-4.4 3.9-1 3.6-1.6 4.3-3.7 4.3h-2.5l2.1-2.1c1.6-1.6 1.9-2.8 1.4-5.2-.6-2.9-5.7-8.7-7.7-8.7-.4 0-.8-.5-.8-1 0-.6.7-1 1.5-1s1.5-.7 1.5-1.5-.4-1.5-1-1.5-.6-.9 0-2.6c.9-2.2.6-3-2.1-5.5-2.2-2-3-3.5-2.6-4.9.4-1.4-.4-2.7-2.5-4.3-4.1-3-9-7.8-10.5-10.2-1-1.6-1-1.4-.1 1 .7 1.6 1.6 3.5 2 4.2.5.6.5 1.3-.1 1.5-1.2.4 1.4 8.1 3 8.7 3 1 4.9 4.3 4.9 8.4 0 3.1.6 4.7 2.1 6.1 1.4 1.2 1.9 2.5 1.5 3.9-.3 1.4.2 3 1.7 4.5 1.2 1.3 2.2 2.7 2.1 3 0 .4.8.5 1.9.4 1.5-.3 1.8 0 1.3 1.4-.4 1-.1 2.1.6 2.6.9.5.6.8-1 .8-2.8 0-7.2-2.8-7.2-4.6 0-.8-.4-1.4-1-1.4-.5 0-1-1.1-1-2.3 0-1.3-.9-3.2-2.1-4.3-1.5-1.4-2-2.9-1.8-5.9.3-5.8.2-6.1-2.9-9.7-1.6-1.8-3.5-4.6-4.3-6.3-1.2-2.5-2.2-3.1-6.1-3.6-2.6-.4-5.2-1-5.7-1.4-.6-.3-1.1-.1-1.1.5 0 1.3 4 2.9 5.7 2.3.6-.2 1.4.5 1.8 1.6.7 2.3-1.2 9.1-2.5 9.1-1.6 0-2.2-2.1-1.1-3.4.9-1.1.6-1.5-1.2-1.8-2.9-.6-4.7 1.3-4.7 4.8 0 2.3-.3 2.5-2.6 2-2-.5-3-.2-4.1 1.4-1.5 2.2-4.3 2.5-8.9 1.1-5.9-1.9-9.4-2.1-9.4-.7 0 .8-1.1 3.8-2.4 6.6-1.4 2.9-2.2 5.8-1.9 6.6.3.9-1 1.5-4.1 1.9-2.6.4-4.9 1.2-5.2 1.7-1.2 1.9-6.1 3-14.3 3.2-5.3.1-8.6.6-8.9 1.4-.2.6-1 .8-1.9.5-.8-.3-1.8 0-2.3.6-.6 1-1.2 1-2.8 0-1.6-1-2.8-1-6.4.4-5.2 2-8.5 2.2-9.1.4-.2-.6-.7-.9-1.1-.6-.8.8.4 9 1.3 8.5.3-.2.7 1.6.8 4 .1 3 .8 5 2.1 6.2 2.6 2.2 4 7.7 1.8 6.9-1.5-.6-2.1.4-1.7 2.7.4 2.1-3.1 5.6-5.5 5.6-2.1 0-2.5.4-1.9 1.7.4 1 1.2 3.1 1.7 4.6.7 2 1.7 2.8 3.2 2.6 4.5-.3 5.6.1 5.6 2.1 0 1.7.3 1.9 1.9 1.1 1-.6 4.1-.8 6.9-.4 4.4.5 5.2.3 6.4-1.6.7-1.1 2-2.1 3-2.1.9 0 1.8-.6 2.1-1.3.3-.6 1 .1 1.6 1.6.6 1.6.9 3.3.6 3.8-1.2 1.8 4.2 1.9 9.2 0 4.9-1.8 5.1-1.8 5.6-.1.3 1 .1 2.2-.4 2.7-1.3 1.3 1.2 4.2 4.1 4.8 2.6.5 4.4-1.3 3-3-.6-.8.4-1.1 3.3-1.2 7.5-.3 8.7-.5 8.7-1.4 0-1 6.3-1.2 7.3-.2.4.3 3 .7 5.9.8 4.5.2 5.5.6 8.4 3.8 2.3 2.4 3.1 4.2 2.7 5.6-.4 1.6.1 2.3 2.2 3.1 1.4.5 3.4 1 4.3.9 1.5 0 1.6-.1.1-1.1-1.3-.9-1.4-1.7-.6-3.8.9-2.3.7-3.2-1.2-5.6-1.9-2.5-2-2.9-.7-3.2.9-.2 1.6-1 1.6-1.8 0-1.1.6-1.3 2-.9 1.2.4 2.7.1 3.5-.5 1.2-1 1.7-.7 2.5 1.4.5 1.4 1.3 2.6 1.7 2.5 3-.5 4.3 3.5 1.5 4.6-1 .4-1.2 0-.8-1.2.6-1.5.3-1.4-1.4.3-2.1 2-2.1 2.3-.6 5.3.9 1.7 2.1 3.1 2.7 3.1.5 0 2.3 1.3 3.9 3 3.5 3.6 5.6 10.1 4.1 12.9-.8 1.5-.6 2.5.9 4.3 1.1 1.2 1.9 1.8 2 1.1 0-.6.9-.9 2-.6 1 .3 3.2-.4 4.9-1.6 1.6-1.2 3.6-2.1 4.5-2.1.9 0 1.6-.7 1.6-1.5s.6-1.5 1.3-1.5c.8 0 2.2-.9 3.2-2 2.4-2.7 3.1-2.5 5.2 1 .9 1.6 2.3 3 3.1 3 .7 0 1-.5.7-1-.3-.6.4-1 1.6-1 1.2 0 3.6-1.1 5.3-2.3 1.7-1.3 4.7-2.7 6.6-3.1 3.8-.7 8-4.1 8-6.6 0-2.1 1.9-4 4.1-4 .9 0 3.6 1.6 6 3.4 3 2.5 4.7 3.2 5.5 2.5 1.4-1.2 8.1 6.5 7.6 8.7-.2.8.5 1.4 1.4 1.4 1.3 0 1.4.3.5 1.3-1.4 1.8 4 7.2 6.4 6.4 2.1-.9 9.7 3.2 10.3 5.5.7 2.8 2.2 2.1 2.2-1 0-1.5.4-3.3.9-4.1.7-1.1 1.2-.6 1.9 2 .8 2.7.6 3.7-.7 4.7-.9.7-1.4 1.9-1.2 2.5.7 2.3.7 10.7 0 10.7-.4 0-.3 1.7.2 3.7 1.2 5.3 1.1 6.3-.6 6.3-1 0-1.5 1-1.5 3 0 3.5-2 7.8-4.7 10-2.5 2-9.8 2.4-11.3.5-.7-.8-2.3-1.5-3.6-1.5-2.9 0-8.6-5.6-10.3-10.1-.7-1.9-1.6-4.3-2.1-5.5-.5-1.2-2.4-2.5-5.1-3.3-6.6-2-7.4-2.5-7.9-6.1-.6-3.9-2.5-5-3.3-1.9-.6 2.1-.7 2.1-3.1.6-3.1-2.1-3.6-2.1-3.6-.2 0 .8-.8 1.5-1.8 1.5-1.5 0-1.7.6-1.4 3.5.2 2 1.2 4 2.2 4.5 2.6 1.4 3.1 5.5.8 7.4-1 .9-2.3 1.4-2.8 1.1-.6-.4-1 .3-1 1.5 0 1.3-.9 2.4-2.5 3-1.4.5-2.5 1.6-2.5 2.3 0 .7-1.2 2.4-2.6 3.6-1.9 1.6-2.4 2.9-2 4.4.3 1.2.6 2.8.6 3.4 0 .7 1.1 1.3 2.5 1.3 3.3 0 9.4 3.7 7.4 4.5-1.2.4-1.5 2.3-1.4 8.3 0 8.7-1.5 11.8-7.3 14.6-1.8.9-3.5 2.3-3.8 3.1-.4.8-1.2 1.5-2 1.5s-1.4.8-1.4 1.8c0 1.5-.7 1.8-3 1.7-1.7-.1-3 .3-3 1 0 1.6 7.1 1.9 8.2.3.6-1 1.1-.9 1.9.4.5 1 1.6 1.8 2.4 1.8 2.1 0 2.8 1.9 1.5 3.5-.7.8-1 2.1-.7 2.9.4 1 .1 1.3-.9.9-1.4-.5-2 2.2-1.6 7 .1 1-.4 2.8-1.2 3.8-.8 1.1-1.2 2.8-.9 3.9.3 1 0 2.1-.6 2.4-.7.5-.8 1.4-.2 2.4.4.9.9 3.3.9 5.2.1 2.1.8 4.1 2 5 1 .9 2.6 2.7 3.6 4.2s2.5 2.7 3.4 2.7c5.3.3 6.2.6 6.2 2.3 0 2.2 1.4 2.3 3.5.2 1.2-1.3 1.3-1.9.4-2.4-.6-.5-.9-1.7-.6-2.9.3-1.2.1-2.4-.4-2.7-1.3-.7-1.1-4.4.2-4.4.5 0 .7.5.4 1-.7 1.1 3.5 3.1 4.8 2.3.4-.3.5-1.3.2-2.4-.5-1.4-.2-1.9 1-1.9 1.3 0 1.6-.6 1.1-2.6-.5-1.7-.3-2.3.4-1.9.5.3 1 .1 1-.5 0-.7-.9-1.4-2.1-1.7-1.5-.4-1.9-1.1-1.5-2.7.3-1.1.6-2.6.6-3.2 0-.7 1.1-1.5 2.5-1.8 1.5-.4 3.1-1.8 3.7-3.4.7-1.5 1.3-2.8 1.4-3 .1-.2 1.1.1 2.1.6 1.2.7 3 .6 5.5-.3 2.1-.7 4.2-.9 5-.4.7.5 2.4.9 3.7.9 2.1 0 2.3.4 1.8 2.9-.5 2.4 0 3.6 2.5 6.3 2 2.1 3.3 2.8 3.5 2 .5-1.4 4.2-1.6 6.3-.2 1.3.8 1.3 1.1-.2 2.6s-1.9 1.5-3.5.3c-1-.7-1.5-1-1.1-.5.3.4 0 2.2-.7 3.9-.9 2.2-1 3.7-.3 5 1.1 2.2-.6 4.7-3.2 4.7-2.1 0-3 1.9-3 6.4 0 6.2-3.2 12.6-6.2 12.6-2.4 0-4.5 2.4-5.2 5.8-.3 2.1-.2 3.1.4 2.7.6-.3 1-.2 1 .3s1.9.8 4.1.7c3.3-.2 4.2.1 4.6 1.6.6 2.3 3.6 2.5 5.4.3 1.3-1.6 7.6-1.6 22.2.2 3.2.4 4.7.2 4.7-.5s1.7-.2 4 1.1c2.2 1.3 4 3 4 3.8 0 .8.5 2.2 1 3 .9 1.3 1.1 1.3 1.9.1.8-1.2 1.2-1.2 2.5-.2.8.7 2.4 1 3.6.6 1.2-.4 2.7-.1 3.5.5 1.2 1 1.5.9 1.5-.5 0-1.6.7-1.7 5.4-1.2l5.4.5.6-3.4c.4-1.9 1.1-3.4 1.5-3.4.5 0 .5-1.7 0-3.7-.4-2.1-.7-3.8-.6-3.9.1-.2 3.3-.4 7.1-.5 5-.2 7.1.1 7.4 1 .3.8-.1 1.7-.7 2-.7.4.2.8 1.9.9 4.8.3 6 .5 5.6 1-.3.2.1 1 .7 1.7 1 1.1 1.8 1.1 4.5-.1 1.7-.7 3.2-1 3.2-.7 0 .3.9-.2 2-1.2s3.4-1.8 5.1-1.8c2.4 0 3-.4 2.6-1.8-.9-3.6 9-9.2 11.9-6.8 1.1.9 1.8.6 3.3-1.2 1.7-2.2 1.8-2.6.4-5.2-.8-1.6-1.2-3.1-.9-3.5.3-.3-.8-1.3-2.4-2.3-1.7-1.1-3-2.4-3.1-3.1-.5-5.9-.5-8.7 0-8.6.3.1 1.9-.2 3.4-.7 3.2-.8 5-4.3 3.5-6.3-1.1-1.2.4-1.7 4.5-1.3 1.1.2 1.7-.5 1.7-1.8 0-1.2-.5-2.1-1.1-2.1-.6 0-.4-.7.5-1.5 3.3-3.3 6-.3 6.3 6.9.2 6.7.7 8.9 2.1 9.4.7.2 1.2 1 1.2 1.7s1.4 2.8 3.1 4.6c1.6 1.7 3.4 4 4 5 .7 1.4 1.8 1.8 4.2 1.5 3.7-.4 6.7.9 6.7 2.9 0 .8.9 1.9 2 2.5 1.1.6 2 2.1 2 3.4 0 1.3.7 2.6 1.5 3 .8.3 2.7 2.9 4.1 5.9 1.5 2.9 3.8 6 5.4 6.9 3 1.7 4.2 6.3 4.5 16.6.1 3.9.6 5.7 1.8 6.3 1.3.8 1.5 1.9 1.1 5.3-.6 3.9-.4 4.6 1.8 6 1.3.9 4 1.9 5.9 2.2 1.8.4 4.3 1.3 5.4 2.1 1.1.7 3.8 1.3 6.1 1.3 2.9 0 4.4.5 4.8 1.6.3.8 1.1 1.2 1.6.9.8-.5.7-1.2-.2-2.2-1-1.2-.9-1.7.3-2.7 2.9-2.3 4.7-6.1 3.7-8-.8-1.4-.6-1.9 1-2.3 1.9-.5 3.2-3.9 3.2-8.5 0-1.9 1.1-3.6 4.3-6.6.9-.9 1.7-2.2 1.7-2.9 0-.6.9-1.5 2.1-1.8 1.1-.4 2.4-1.8 2.9-3.1s1.6-2.4 2.5-2.4c.8 0 1.5-.5 1.5-1 0-.6.4-1 1-1 1.8 0 4.8-3.3 4.3-4.6-.6-1.6 5.8-1.5 6.9.1.4.5 1 .6 1.4.3.3-.4-.3-1.9-1.5-3.4-3.2-4-2.8-5.4 1.4-4.7 2.5.4 3.5.2 3.5-.7 0-.9.5-.8 1.8.3 2.2 2 6.8 2.2 7.5.4.4-1 .7-1 1.8 0 .7.7 2 1.3 2.8 1.3 2 0 8.1-4.8 8.1-6.5 0-.8 1.3-1.5 3.3-1.7 2.4-.2 3.3-.8 3.5-2.6.2-1.2.7-2.2 1.2-2.2.9 0 2.3-3.9 2-5.5-.1-.6-.3-1.5-.4-2-.1-.6-.7-1.9-1.3-2.9-1.2-2.2-.5-5.8 1-5.3 1.7.5 5.9-5 6.6-8.6.5-2.1 1.3-3.3 2.7-3.5 2.8-.4 4.8-7.1 2.8-9.3-1.6-1.8-1.9-6.5-.4-7.4 1.4-.9 1.2-3.1-.3-4.7-1.8-1.9-2.5-8.1-1.2-11 .5-1.3.1-2-1.5-2.6-2.1-.8-6.6-9.9-6.5-13.2 0-.8-.4-1.8-1-2.3-.7-.5-.6-1 .2-1.5 1-.6.8-1.2-.5-2.4-.9-.9-2.3-2.4-3-3.2-1.4-1.8-4.7-2.2-3.7-.5.5.7-.4.8-2.8.4-4.1-.8-6 1.1-3.2 3.2 1.1.7 1.4 1.3.8 1.3-.7 0-1.5-.5-1.9-1.1-.4-.8-.9-.7-1.5.2-1.2 2-1.1 2.9.4 2.9s4.9 7.5 3.9 8.4c-1 1-3.7.6-5.7-1-1.7-1.3-1.8-1.6-.5-2.4 2.2-1.4 0-4.4-3.4-4.8-2.1-.3-2.9.2-3.3 1.7-.7 2.7-1.4 2.6-4.8-.3-2.7-2.4-2.7-5 0-3.9.8.3 1.5 0 1.5-.6s-1.1-1.3-2.5-1.7c-1.4-.3-2.5-1.1-2.5-1.6 0-.6.7-.8 1.5-.4.8.3 1.5.2 1.5-.3s-1-1.1-2.1-1.4c-1.5-.4-2-1.1-1.5-2.2.3-.9.2-1.4-.3-1.1-.5.3-1.4-.1-2-.8-.9-1-.9-1.6-.1-2.1.7-.4.9-1.9.5-3.6-.4-1.6-.2-2.9.3-2.9.9 0 1.9 2.2 3.6 7.3.3 1 1 1.5 1.6 1.2.6-.3 1 .4 1 1.8s.7 3 1.5 3.7c.9.7 1.4 1.9 1.1 2.6-.7 1.8 5.2 3.4 7.7 2.2 1-.5 1.5-1.3 1.2-1.8-.3-.6.3-2 1.5-3.2 1.5-1.6 1.7-2.4.8-2.9-.7-.5-.9-1.1-.5-1.5.4-.4 1.5 0 2.5.9 1.4 1.3 2.1 1.4 3 .5.8-.8 1.2-.9 1.2-.1 0 .6.9.9 2 .6 2.3-.6 2.6-1.8.8-3-2.1-1.3-3.6-1.2-4.2.3-.9 2.3-2.1 1.6-2.4-1.4-.3-2.5-.3-3.7-.2-8.6.2-4-7.6-7.6-9.6-4.4-.4.6-.3.8.4.4.5-.3 1.2-.1 1.4.5.2.6 1.4 1.2 2.7 1.3 2.7.1 5.2 4.6 2.6 4.6-.8 0-1.5.4-1.5.9s-1 1.1-2.2 1.3c-1.7.2-2.3 1-2.4 2.8-.1 3.4-1.3 7-2.5 7-.5 0-.9-.6-.9-1.3 0-.8-.9-2.2-2-3.2s-2-2.3-1.9-2.9c.1-.6.1-2.3 0-3.7-.1-2.3-.5-2.6-3.8-2.4-4.9.1-6.3-1-6.3-5.2s-3.4-11.8-5.6-12.7c-1.2-.5-1.5-1.7-1.2-4.9.2-2.8-.1-4.1-.9-4-.6.1-1.4-.4-1.7-1.2-.3-.9.1-1.5.9-1.5.9 0 1.5-1 1.5-2.4 0-1.3.6-2.6 1.3-2.9.9-.3.9-.9-.2-2.7-1.2-2.1-1.1-2.5.5-3.6 4.8-3.3 5.4-4.5 3.9-7.4-.8-1.6-1.9-3-2.4-3.2-1.6-.5-3.9-12-3-14.6.5-1.2.6-2.9.3-3.7-.4-.8-.2-1.5.3-1.5s1.7-1.6 2.6-3.6c1.7-3.5 1.7-3.6-1.5-9.5-1.8-3.3-3.8-5.7-4.5-5.5-1.1.5-4.8-7.2-3.9-8.2.3-.2.1-1.3-.5-2.3-.5-1-.7-3-.3-4.3.5-2.2.8-2.3 2.5-1.3 1 .6 1.9 2 1.9 2.9 0 1 .7 1.8 1.6 1.8 1.5 0 1.5-.2 0-2.5-2.3-3.5-1.2-4.7 2.4-2.8 1.7.8 3.6 1.2 4.3 1 .7-.3.5-.6-.5-.6-1.4-.1-1.5-.6-.7-3.3.7-2.7.6-3.5-1-4.8-2.7-2.1-3.6-5.6-1.6-6.4.8-.3 1.5-1.3 1.5-2.3 0-1 1-2.4 2.2-3.2l2.2-1.4-2.4-.9-2.5-.9 2.1-1.7c1.2-.9 2.7-2.8 3.4-4l1.2-2.4 2.1 2.1c1.2 1.1 4.3 2.9 6.9 4.1 2.6 1.1 5 2.5 5.3 2.9.3.5 1.6.8 3 .6 3.2-.3 4.5 1.9 4.5 7.4 0 4.4.2 4.6 3.1 3.1 1.5-.8 1.9-.7 1.9.5 0 2.4 3.1 5.3 5.1 4.8 2.4-.7 3.6 2.2 1.8 4.3-1.1 1.4-1.1 1.8.4 2.9 2.6 1.8 2.1 3-1.4 3.1-1.7.1-3.5.7-3.9 1.3-.5.9-1.3.5-2.8-1.3-2.3-3-4.2-3.4-4.2-.9.1 2.5 2.4 5.3 4.3 5.3.9 0 2.6 1.8 3.7 4 1.5 2.9 2.4 3.8 3.6 3.3 1.1-.4 2.2.1 3 1.2.8 1 1.4 1.4 1.4.8 0-.6 2.2-1 5.3-.9 4.4 0 6-.4 8.5-2.6 2.3-1.9 2.8-2.8 1.9-3.7-.8-.8-.8-1.4.1-2.3 2.2-2.2 1.4-3.8-1.5-3.3-9.4 1.7-9.9 1.5-12.6-3.5l-2.6-4.8 4-3.1c2.1-1.8 3.9-3.8 3.9-4.6 0-.7 1-2.2 2.3-3.2 1.3-1 2.2-2.4 1.9-3.1-.2-.6.1-1.2.7-1.2s.8-.7.5-1.5c-.4-.8-.2-1.5.3-1.5 2 0 9.3-7.2 9.3-9.2 0-1.7.4-2 3-1.5 2.5.5 3 .3 3-1.2 0-2-5.2-3.8-5.8-2-.6 1.5-6 3.9-7.5 3.3-.9-.3-2.3.7-3.7 2.5-2.1 3.1-6.2 4.2-7.5 2.1-.9-1.5-2.5-1.2-2.5.4 0 2.2-4 1.5-6.8-1.2-1.9-1.9-3-2.3-5.7-1.9-2.9.5-3.8.1-5.9-2.4-1.4-1.6-2.9-2.9-3.5-2.9-.6 0-1.1-.8-1.1-1.8 0-2-2.9-6.4-3-4.5 0 .9-1.5 1.1-5 .9-3.6-.3-5-.1-5 .8 0 2-3.4 4.6-5.9 4.6-1.7 0-2.1.4-1.7 1.5.3.9-.2 3.1-1.1 5.1-1.4 2.8-2.2 3.4-3.9 3-1.6-.4-2.3-.1-2.7 1.5-.3 1.1-1.9 2.5-3.6 3.2-1.7.6-3.4 1.9-3.7 2.9-.4 1.5-.8 1.6-2.6.5-1.6-.9-2.2-.9-2.5.1-.3.8-1.7.2-4.4-1.9-3-2.3-3.9-2.7-3.9-1.4 0 1.3-.4 1.4-2.1.4-1.2-.6-3-.8-4.1-.6-2.8.8-8-1.3-10.1-4-1.4-1.7-2.5-2.1-4.2-1.7-1.7.4-2.6 0-3.5-1.6-1.1-2.1-1.2-2.1-3-.3-2.8 2.7-4.4 3.9-6 4.5-1.2.5-1.1.8.5 1.4 2.3 1 3 4.4.9 4.4-1.3 0-1.8 1.2-1.5 3.2 0 .4-.6.5-1.5.1-1.3-.5-1.5-.2-1 1.5.7 2.1.6 2.1-2.1.7-3.3-1.7-5-1.9-5.5-.5-.2.6-1.5.3-3.3-.6-2-1-3.1-1.2-3.3-.4-.3.8-.8.8-1.8-.1-1.1-.9-1.4-.9-1.4 0 0 .7-.4 1-.9.7-.4-.3-.6.5-.4 1.8.6 2.9-1.4 6.9-2.9 6-.7-.5-.5-1.2.8-2.2 1.2-.9 1.5-1.6.8-1.9-.7-.2-1-1.2-.7-2.2.2-.9-.3-2.3-1.1-3-2.2-1.8-2-3.1.4-3.1 1.1 0 2-.4 2-.9 0-.4 1.1-2 2.4-3.4 1.4-1.5 2.2-3.4 2-4.5-.8-2.7 2.9-5.5 6.6-5 1.6.3 3 .3 3 .1 0-.2-1.5-1.7-3.2-3.3-2.6-2.3-2.9-2.9-1.5-3 1.2 0 1.6-.4 1.1-1.2-.5-.7-.9-2.1-.9-3-.2-2.4 3.6-2.4 6.5 0 2.2 1.8 2.3 1.7 5.1-1.1 1.8-1.8 3.3-2.5 4.1-2 2.2 1.3 7.2.9 8.5-.7.7-.9.8-2.1.2-3.2-1.3-2.3-1.1-7.5.3-9.7 1.3-2.1-.9-5.7-5.5-8.8l-2.8-1.8 2.6-2.3c1.4-1.2 3.2-2.2 3.9-2.2.9 0 1.1-1.7.8-6.4-.4-6.6.9-10.2 4.9-13.6 2.1-1.8 3.8-10 2-10-.6 0-1.1.5-1.1 1.1 0 .8-.5.7-1.6-.2-1.5-1.2-1.3-1.5 1.1-3.5 3.1-2.5 2.9-5.4-.5-5.4-2.2 0-2.8-1.6-.8-2.2.7-.3.8-1 .4-1.7-.7-1.1-1-1.1-1.7 0-.8 1.1-1.2 1.1-2.3-.4-.7-.9-2.3-1.7-3.5-1.7-2 0-2.1-.5-2-5.5.2-4.6-.1-5.7-2.2-7.3-1.8-1.5-2.8-1.7-4.5-1-3.3 1.5-5.7.3-5-2.6.4-1.6-.1-2.9-1.9-4.6-2.1-2-2.4-2.9-1.9-5.9.4-1.9 1.5-4.4 2.5-5.5 1.1-1.1 1.9-2.8 1.9-3.9 0-1.6-.5-1.5-3.7 1.2-2 1.6-4 2.8-4.5 2.5-1.6-1-6.8.7-6.8 2.2 0 2.1-3.7 0-4.5-2.5-.7-2.4-7.5-9.6-9.7-10.4-1-.4-1.8-1.6-1.8-2.7 0-1.3-1-2.5-2.7-3.2-3.8-1.5-10.3-4.6-13.3-6.3-1.4-.8-3.3-1.2-4.3-.9-1 .3-2.5 0-3.4-.7-.8-.8-3-1.4-4.8-1.5-1.8 0-5.1-1-7.4-2.1-2.2-1.1-4.1-1.7-4.1-1.2 0 1.4-7.3 1.1-9.5-.4-1.8-1.2-2.4-.9-5.3 2.1zm-38.1 126.9c1.3 1.6 1.2 1.7-.3.4-1.7-1.3-2.2-2.1-1.4-2.1.2 0 1 .8 1.7 1.7zm131.8.2c1.2.8 1.2 1.2.2 2.5-.7.8-1.9 1.2-2.7.9-.8-.3-2.1 0-2.8.6-2.4 2-2.8-.6-.4-2.8 2.4-2.3 3.6-2.5 5.7-1.2zm-19.4 9.1c.3.5.1 1-.4 1-.6 0-1.1-.5-1.1-1 0-.6.2-1 .4-1 .3 0 .8.4 1.1 1zm-78.6 4.2c1.1 1.1 1.4 1 1.8 0 .4-1 .8-1 1.9-.1 2.3 1.9 1.6 2.9-1.9 2.9-1.8 0-3.7.4-4.2.9-1.2 1.1-6.5.3-6.5-1 0-.6.8-1.2 1.8-1.5.9-.3 2.4-.9 3.2-1.4 2.1-1.2 2.4-1.2 3.9.2zm3.1 4.8c0 .5-.2 1-.4 1-.3 0-.8-.5-1.1-1-.3-.6-.1-1 .4-1 .6 0 1.1.4 1.1 1zm-14.7 11.8c2.2 2 2.2 3.2-.2 3.2-1.9 0-5.5-4.3-4.4-5.4.7-.6 2 0 4.6 2.2zm11.2 7.2c.3.5-.1 1-1 1s-1.3-.5-1-1c.3-.6.8-1 1-1 .2 0 .7.4 1 1zm10.9 2.5c.4 1.4 1.1 2.5 1.6 2.5.6 0 1 .8 1 1.7-.1 1.4-.6 1.2-2.5-1-2.5-2.8-3.3-5.7-1.6-5.7.5 0 1.2 1.1 1.5 2.5zm5.6 14.5c0 .5-.2 1-.4 1-.3 0-.8-.5-1.1-1-.3-.6-.1-1 .4-1 .6 0 1.1.4 1.1 1zm10.5 19c.4.6 1.1.8 1.6.5 1.4-.9 1.1.1-.5 1.4-1.2 1-1.7.8-2.6-.8-1.1-2.1.3-3.1 1.5-1.1zm3.2 4.2c-.3.8-.6.5-.6-.6-.1-1.1.2-1.7.5-1.3.3.3.4 1.2.1 1.9zm-25.7 66.8c0 .5-.4 1-1 1-.5 0-1-.5-1-1 0-.6.5-1 1-1 .6 0 1 .4 1 1zm26.6 24.8c1.9 1.8 8.6 2.3 12.9.9 2.3-.7 4.5.8 6.3 4.3.7 1.4 1 1.7.7.6-.4-1.5-.1-1.7 1.5-1.3 1.1.3 1.8.1 1.4-.4-.6-1.1 1.7-1.2 3.1-.1.6.4 1.9 2.5 3 4.7 1.3 2.6 3.3 4.6 5.8 5.8 4.2 1.9 5.4 5.3 1.3 3.7l-2.4-.9 1.4 4.7c1.5 5 4.4 8.2 7.5 8.2 1 0 1.9.4 1.9.8 0 1.2-2.9 4.9-3 3.7 0-.6-.4-.4-.9.4-.8 1.3-1.7 1.3-6.7.1-5.8-1.4-9.4-4.1-9.4-7.1 0-1.2-1.2-1.8-4-2.3-2.4-.4-4-1.2-4-2 0-.7-1-1.6-2.1-1.9-1.7-.4-1.9-.3-1 .6 1.2 1.2 1.5 4.1.3 3.3-.4-.2-.7 2-.6 4.9.1 3.9-.3 5.5-1.3 6-1 .3-1.3 1.3-1 2.6.4 1.5.2 1.9-.8 1.5-.8-.3-1.7-.1-2 .4-.9 1.5-3.3-1.2-2.9-3.3.2-1-.4-1.8-1.4-1.8-1.6-.2-3-.4-5.7-.8-.6 0-1.2-1.3-1.3-2.9-.1-1.5-.8-3.2-1.5-3.7-1.9-1.5-4-6.2-3.3-7.3.3-.6.2-2.2-.3-3.5-.7-1.9-.6-2.8.5-3.7.7-.7 1.4-2.3 1.4-3.5 0-1.3.6-2.5 1.3-2.8.6-.2.8-.8.4-1.3s-1.1-.3-1.5.3c-.4.6-2.6 1.4-4.9 1.6-5.6.7-6.6 1.4-5.9 4.6l.7 2.6-2.1-2.5c-1.9-2.5-2.8-1.8-1.1.9 1.4 2.2-.7 6-3 5.4-1.4-.4-1.8-1.1-1.4-2.4.4-1.2.1-2.1-.9-2.5-2.4-.9-1.9-2.4.8-2.4 3 0 5.4-2.6 3.8-4.2-.8-.8-.5-1.5 1.5-2.5 1.4-.7 3.1-1.3 3.8-1.3.8 0 1.1-.8.8-2-.5-1.7 0-2 3-2 2 0 4.3.7 5.3 1.7 1.7 1.7 1.8 1.7 1.1 0-1.4-3.8 1.6-4.9 4.9-1.9zm161.5 18.5c-.1 1.2-1.5.9-1.9-.4-.3-.6.1-1 .8-.8.6.3 1.1.8 1.1 1.2zm3.9 5.9c0 .3-1.1.1-2.5-.5-2-1-2.2-1.3-.7-1.8 1.5-.6 3.1.6 3.2 2.3zm-187 7.7c0 .6-.4 1.3-1 1.6-.5.3-1-.1-1-.9 0-.9.5-1.6 1-1.6.6 0 1 .4 1 .9zm-10.5 4.1c-.3.5-1 1-1.6 1-.5 0-.9-.5-.9-1 0-.6.7-1 1.6-1 .8 0 1.2.4.9 1zm47.9 12.2c-.3.5-1.2.4-2-.3-1.9-1.6-1.8-1.8.6-1.2 1.1.3 1.7.9 1.4 1.5zm1.5 4.2c1 1.2.8 1.3-.8.9-1.2-.3-2.1-.9-2.1-1.4 0-1.4 1.6-1.1 2.9.5zm-108.9 8c0 .3-.4.8-1 1.1-.5.3-1 .1-1-.4 0-.6.5-1.1 1-1.1.6 0 1 .2 1 .4zm29.3 8.1c-3.5 1.5-4.6 1-3.3-1.5.9-1.7 1.4-1.8 3.6-.8l2.5 1.2-2.8 1.1zm44.7 31.5c0 .5-.4 1.2-1 1.5-.5.3-1 .4-1 .1 0-.2-.3-1.2-.6-2-.5-1.2-.2-1.5 1-1 .9.3 1.6 1 1.6 1.4z"/><path d="M391.034 308.853c.4 1 .1 1.3-1 .8-1.1-.4-1.8.1-2.2 1.6-1 3.7-.7 4.7 1.5 4.7 2.3 0 3.8 1.3 5.8 5.2 1.7 3.4 3.7 3.5 6.1.6 1.5-1.9 2-2 3.4-.9 1.4 1.2 1.6 1 1.6-1.1 0-1.3-.9-3.1-2-4.1-1.2-1-1.9-2.1-1.6-2.6.3-.4-1.5-1.7-3.9-2.7-2.5-1-4.5-2.1-4.5-2.4 0-.3-.8-.6-1.9-.6-1.2 0-1.7.5-1.3 1.5zM435.834 8.853c-.9 1-3.5 2.2-5.8 2.5-4 .7-4.1.7-2 2.2 1.2.8 2.2 2.3 2.2 3.3 0 1.9 3 5.1 4.8 5.1 1.2 0 3.8-4 3.4-5.2-.1-.4.8-1.2 1.9-1.8 2-1.1 2-1.3.3-3.1-1.4-1.5-1.4-2.1-.4-3.4 1.9-2.3-2.2-2-4.4.4zM78.034 30.653c-1 .2-1.8 1.1-1.8 1.8s-1.2 1.8-2.7 2.3c-2.5.9-2.1 1.1 3 1.1 5.7.1 6.7-.5 4.5-2.7-.9-.9-.6-1.2 1.6-1.2 1.5 0 2.5-.4 2.1-1-.6-1-3.6-1.1-6.7-.3zM108.634 31.553c1.1.8 2.3 1.4 2.8 1.4 1 0 1.1-2 .1-2.1-.5 0-1.7-.2-2.8-.4-2-.4-2-.4-.1 1.1zM86.734 32.953c.3.5.8 1 1.1 1 .2 0 .4-.5.4-1 0-.6-.5-1-1.1-1-.5 0-.7.4-.4 1zM96.234 34.953c.6 1.1.8 2.5.5 3-.3.5-.1 1.1.5 1.5.5.3 1 .1 1-.4 0-.6.7-1.1 1.5-1.1 2 0 1.9-1.3-.3-3.3-2.7-2.5-4.6-2.2-3.2.3zM109.034 35.653c-1.8 1.5-3.5 3-3.8 3.4-.3.3-1.4.9-2.5 1.3-1.1.5-1.5 1-.9 1.3.6.2.9 1.5.6 2.8-.3 1.8 0 2.5 1.2 2.5.9 0 1.6-.8 1.6-2 0-1.5.7-2 2.9-2 1.6 0 3.1.3 3.4.7.2.5.3.3.1-.3-.1-.6.2-1.7.6-2.5.5-.8.4-1.9-.2-2.6-.8-1-.6-1.3.6-1.3.9 0 1.6.3 1.6.8 0 .4 2 .8 4.5.8 3.7.1 4.5-.2 4.3-1.5-.1-.9.1-2.2.6-3 .6-1 .4-1.2-1-.8-3.2 1-7.8 1.2-9.1.4-.6-.4-2.6.5-4.5 2z"/><path d="M113.834 41.653c-.4.9-.2 2.1.4 2.7 1.4 1.4 1.3 2.7-.2 2.5-2.8-.5-4.8 1.4-4.8 4.2 0 1.6.6 3 1.3 3 .6.1 2.1.3 3.2.4 1.1.2 3.6.5 5.5.6 1.9.2 4.6.9 6 1.6 2.2 1.1 2.6 1 3.2-.5 1-2.6.9-6.2-.2-6.2-.5 0-1-.6-1-1.3 0-1.9-3.9-5.4-8.2-7.2-4.6-1.9-4.4-1.9-5.2.2zM132.034 55.153c-.2.6.4 2 1.5 3.1 1.4 1.4 1.6 2.2.7 3.1-.7.9-.7 2.2 0 4 .5 1.4.7 3.3.4 4.1-.4 1 .7 2.8 3.1 5 3.2 3.1 3.4 3.5 1.5 3.5-1.8 0-1.9.3-1 2 .9 1.6.8 2-.6 2-1.5 0-1.5.2.1 2.6.9 1.5 1.3 2.4.7 2-1.4-.8-2.2 1.8-1.1 3.5 1.2 2 1.1 3.2-.2 2.3-.7-.4-1-.1-.7.6.2.8-.5 2.3-1.6 3.4-1.6 1.6-1.7 2.1-.5 2.4.8.3 1.6.8 1.9 1.2.7.9 11.6 6 12.9 6 1.3 0 3.4 3.8 2.6 5-.3.5-.1 1.1.4 1.4.5.3 1.1-.1 1.5-.9.3-.8 1.5-1.5 2.6-1.5 1.6 0 2-.7 2-3.2v-3.2l2.9 2.8c2.6 2.5 3.9 2.9 9.6 3.1 5 .2 6.5-.1 6.1-1.1-.3-.7 0-1.5.7-1.7.9-.3.9-.8-.1-2-.8-.9-1.1-2.5-.8-3.5.4-1.1 0-2.4-.9-3.2-.8-.7-1.5-2-1.5-2.9 0-1.9-5.3-7.5-6.2-6.6-.3.3-1.1-.9-1.8-2.7-.8-1.8-2.2-4.5-3.2-6-1-1.4-1.4-2.8-.8-3 1.5-.5-.1-4.8-1.8-4.8-.8 0-2.4.8-3.4 1.7-1.4 1.3-2.1 1.4-3 .5-.9-.9-.9-1.2.3-1.3.7 0 .3-.4-.9-1-1.3-.5-2.6-1.8-2.9-2.9-.3-1.2-1.4-2-2.8-2-2.1 0-5.5-2.8-5.5-4.5 0-.4.7-1.3 1.5-1.9 1.9-1.4.9-5.6-1.4-5.6-.9 0-2.2.5-2.9 1.2-.9.9-1.6.8-3-.5-2.2-2-3.9-2.2-4.4-.5zM145.234 55.853c0 .6.5 1.3 1 1.6.6.3 1 .1 1-.6 0-.8.4-.8 1.5.1.9.7 1.5.8 1.5.2 0-1-2.3-2.2-4.1-2.2-.5 0-.9.4-.9.9zM221.234 111.353c0 .8.6 1.9 1.3 2.3.8.4 1.6 1.6 2 2.5.8 2.2 4.3 2.3 7.7.3 2-1.1 2.1-1.4.7-1.5-1 0-4-1.1-6.7-2.5-3.9-2-5-2.2-5-1.1zM179.234 112.353c0 .2.8 1 1.8 1.7 1.5 1.3 1.6 1.2.3-.4s-2.1-2.1-2.1-1.3zM455.934 118.653c-1.2 1.2-.7 2.2.8 1.7.8-.4 1.5-1 1.5-1.5 0-1.1-1.4-1.2-2.3-.2zM587.134 130.653c-.1.4-.1 1.1-.1 1.4.1.3-1.2.5-2.9.4-1.6-.1-2.9.2-2.9.6 0 .5-1.1 1.1-2.5 1.5-1.8.4-2.5 1.3-2.5 3 0 1.2-.8 2.7-1.7 3.3-1.9 1-2.4 4.2-.8 5.3 1.7 1.3 2.5.9 2.5-1.2 0-3.4 3.1-2.3 8 2.8 2.6 2.7 5.5 5.2 6.4 5.5 1.5.6 1.7.3 1.1-2.2-.5-2.3-.1-3.5 1.5-5.1 1.1-1.1 1.8-2.6 1.4-3.2-.5-.7-.3-.8.6-.3.7.4 1.5.4 1.9-.1.3-.5 1.9-1.8 3.5-2.8 2.4-1.6 2.7-2.1 1.5-3-.8-.6-1.5-1.8-1.7-2.6-.4-1.8-3.1-4-4.9-4-.7 0-1.7.9-2.3 2-1.2 2.3-5.3 2.8-4.4.6.3-.8.1-1.7-.5-2.1-.6-.3-1.2-.3-1.2.2zM602.734 134.953c.3.5.8 1 1.1 1 .2 0 .4-.5.4-1 0-.6-.5-1-1.1-1-.5 0-.7.4-.4 1zM751.634 139.653c-1.2 2.4-1.8 4.3-1.3 4.3 1.4 0 4.1-4.8 3.7-6.7-.2-1.3-.9-.6-2.4 2.4zM24.034 140.253c1.8 1.8 3.2 4.1 3.2 5 0 1 .8 1.7 1.8 1.7s1.9-.7 1.9-1.5-.4-1.5-.9-1.5-1.3-1-1.9-2.3c-.6-1.3-2.4-2.8-4.1-3.5l-3.2-1.2 3.2 3.3zM434.834 143.653c-1.4 1.4-.5 7.1 1.4 8.8 2 1.8 2 1.7 2-2.4 0-4-2-7.8-3.4-6.4zM27.834 151.453c.3.8.2 2-.2 2.7-.5.7-.9 2-.9 2.8 0 .9-.8 1.4-2.2 1.3-1.1-.1-2.7.4-3.3 1.2-1.9 2.3-3.8 1.8-7.1-1.7-2.3-2.6-2.9-2.9-2.9-1.4 0 1.2-.5 1.6-1.5 1.3-.8-.4-1.7-.1-2.1.5-.5.7-1.1.5-2-.7-1.3-1.7-1.5-1.7-3.8.6-1.9 1.8-2.2 2.8-1.5 4.1.5 1 1.7 1.8 2.7 1.8.9 0 2.8 1.8 4.1 4 1.6 2.5 3.4 4.1 5.2 4.5 1.6.4 3.1 1.4 3.4 2.3.3.9 1.9 3.3 3.6 5.2 2.8 3.3 3.1 3.4 4.4 1.7 1.1-1.5 1.7-1.6 3.3-.8 1.2.6 2.7.9 3.4.6 1.7-.7 9.8 6.9 9.8 9.3 0 1 .5 2.3 1.1 2.9.8.8.7 2-.5 4.3-1.3 2.7-1.3 3.1-.1 2.6 1.5-.5 2.1 1.5.8 2.8-.4.4-.6 2.6-.4 4.9.3 4.7 5.2 11 7.7 10 .8-.3 2.6.7 3.9 2.1 3.1 3.3 3.3 6.6.5 6.6-1.1 0-2-.7-2-1.5s-.5-1.5-1.1-1.5c-.6 0-.8.9-.4 2 .5 1.5.2 2-1.2 2.1-2.6.2-2.6.2-5.3-.6-2-.6-2.3-.5-1.2.6 1.5 1.6 1.6 4.9 0 4.9-2.5 0 2.7 4 6.1 4.6 2 .4 4.2 1.5 4.9 2.6.7 1 2.5 1.8 4 1.8s3.3.4 4.1.9c1.2.8 1.2 1.2-.2 2.6-3.8 3.7-1.3 4.7 2.6 1.1 2.2-2.1 2.8-2.2 4.4-1.1 2.2 1.6 10.4.9 11.6-1.1.5-.9 2.5-1.1 6.5-.9 4.6.4 5.3.2 3.7-.7-1.1-.6-2.2-1.3-2.4-1.4-.2-.2 1.1-1.9 3-3.7 3-2.9 3.4-3.9 3.3-8-.1-2.6.3-4.7.8-4.7s.6-.5.3-1c-.3-.6-1.4-1-2.5-1-1 0-2.1-.7-2.4-1.6-.4-1-.2-1.4.6-1.1 1.9.7 4.7-2.1 4.1-4.1-.2-1-4.1-3.5-8.6-5.8-7.5-3.6-8.2-4.2-8.2-6.9 0-2.2-.6-3.3-2.2-4-1.3-.5-2.3-1.3-2.3-1.7 0-.4-1.6-1-3.6-1.4-2.4-.4-3.4-1.1-3-2 .3-.8-.1-1.4-.9-1.4-.9 0-1.5-.9-1.5-2.3 0-1.3-.6-3.2-1.4-4.3-.8-1-1.2-2.9-.9-4.2.6-2.7-.9-4.7-5.4-6.9-2.3-1.1-3.2-2.1-2.8-3.1.7-1.9-4.8-6.9-8.6-7.7-3.3-.8-11.9-9-11.9-11.5 0-1-3.2-3-4.9-3-.6 0-.8.7-.5 1.5zM738.634 151.353c-.3.9-1.6 1.6-2.8 1.6-1.5 0-2.7.9-3.4 2.5-.6 1.4-1.6 2.5-2.2 2.5-.5 0-1 1.1-1 2.4 0 1.4-.9 3.1-1.9 3.8-1.1.8-2.3 2.6-2.6 4-.4 1.6-1.6 2.9-3.1 3.2-1.6.4-2.1 1.1-1.7 2.2.3.8-.4 2.5-1.7 3.9-1.5 1.6-2.1 3.1-1.7 4.5.4 1.6-.1 2.3-1.9 3-2.1.8-2.4 1.6-2.4 6.4 0 6.7-.7 8.6-3 8.6-1.3 0-1.7.5-1.3 2 .4 1.4 0 2-1.1 2-.9 0-1.6.4-1.6.9s-2.5 2.4-5.5 4.1c-3.9 2.2-5.7 3.9-6.1 5.8-.9 3.6-2.4 5.4-4.1 4.8-.8-.3-1.1-.1-.8.4.3.6-.1 1-.9 1-.9 0-1.6.8-1.6 1.9 0 1-.6 3.1-1.4 4.5l-1.3 2.6-1.7-2.4c-.9-1.4-1.6-2.9-1.6-3.4 0-1.4-5.3-2.2-6.8-1-.9.8-2 .8-3.5.1-2.9-1.3-5.1.1-6.1 3.9-.3 1.6-1.3 2.8-2.1 2.8s-3 .8-4.8 1.9c-4.3 2.4-6.7 1.3-6.7-3.3 0-1.9-.7-3.9-1.5-4.6-.8-.7-1.5-1.9-1.5-2.6 0-.8-.5-1.4-1.1-1.4-.8 0-1-1.2-.6-3.5.5-2.8.2-3.7-1.3-4.5-1.1-.6-2.4-2.7-3-4.8-1.3-4.8-3.8-7.8-7.2-8.6-2.3-.5-2.8-.3-3.4 1.8-1.2 4.9-3.8 6-12.9 5.9-8.1-.2-8.3-.1-8.9 2.3-.5 2-1 2.3-2.4 1.5-1.1-.6-2.4-.6-3.6.1-1.9 1-3.5-.3-3.6-2.8 0-1.5-4.8-3.7-8.9-4-1.9-.2-3.8-.7-4.4-1.3-1.1-1.1-3.9-.3-5 1.6-1.3 2.2-4.9 1.5-8.2-1.7-3.5-3.4-12.5-5.8-12.5-3.4 0 2.6 3.6 5.2 6.4 4.7 1.9-.4 2.6-.1 2.6 1 0 .9 1 2.4 2.3 3.4 3.4 2.8 4.8 4.8 5.3 8 .2 1.5 1.7 3.9 3.1 5.2 2.9 2.5 3.2 3.3 3.7 9.6.3 2.9-.1 4.3-1.4 5.2-1.1.8-1.6 2-1.3 3.3.3 1.2 0 2-.7 2s-.9.8-.5 2c.4 1.1.2 2-.4 2-.6 0-1.1.9-1.1 1.9 0 1.9-4.8 6.1-6.9 6.1-.8 0-.7.8.3 2.2.7 1.3 1.2 3.2 1 4.3-1.1 6.7-1.6 8.5-2.4 8.5-2.3 0-.7 2.1 2.9 4 2.2 1.1 4.2 2.9 4.6 4 .5 1.6 1.3 2 3.5 1.6 1.7-.2 3.4.1 4 .9.6.8 1.9 1.3 2.8 1.3.9 0 3.7.7 6.1 1.6 2.4.9 4.6 1.4 4.9 1.1.2-.2 1.4.2 2.6 1 1.1.8 2.4 1.5 2.8 1.5 1.3 0 .9-3-.4-3-.7-.1 0-.8 1.7-1.7 2-1.1 3-1.2 3.3-.4.2.7.9.8 2.2.1 2.5-1.3 6.5.2 8.5 3.4.9 1.4 3.2 3.4 5 4.5 2.9 1.7 3.5 1.8 4.6.5.6-.8 1.4-1.2 1.7-.9.3.3 1.3-.2 2.3-1 1.4-1.4 1.5-2.2.6-5.8-.6-2.3-1.8-4.7-2.6-5.4-.9-.7-1.2-1.3-.7-1.3s.3-.6-.3-1.4c-.9-1.1-.8-1.5.4-2 1.2-.4 1.4-1 .5-2.5-1-1.9-.9-2 2.6-.5 4.3 1.8 4.9 1.5 3.3-2-.9-1.8-1.8-2.5-3-2.1-.9.3-2.1 0-2.5-.7-1.2-1.8-1.5-8-.4-7.3 1.1.7 2.4-3.1 1.5-4.5-1.1-1.8 1.1-1.1 3 1 1 1.1 2.2 1.7 2.7 1.4.5-.3 1.8.2 2.8 1.1 1.9 1.7 4 1.3 4-.8 0-2 3.2-9.7 4.1-9.7.5 0 1.3.6 1.8 1.2.6.7 2.1 2.6 3.4 4.2l2.4 3 .5-2.8c.4-2.1.2-2.6-.9-2.2-1.1.4-1.3.1-.8-1.4.5-1.4.2-2-.9-2-2 0-2-.7-.2-2.6 2.3-2.3 3.6-1.6 3.2 1.6-.3 2.4 0 3 1.5 3 2.4 0 2.4-1.6.2-2.9-1-.6-1.3-1.1-.7-1.1.6 0 1.4.3 1.8.7.4.5 1.2.9 1.7.9.5.1 1 .2 1.2.4.1.1 2.8.3 5.9.4 5 .2 5.8 0 6.7-2.1l1-2.3 2.6 2.6c1.4 1.4 2.5 2.9 2.5 3.5 0 .6.5.7 1.1.3.6-.3.9-1.4.6-2.3-.3-1.4.1-1.7 1.9-1.3 1.5.3 2.4 1.1 2.4 2.2 0 2.2 3.6 3.3 6.3 1.8 1.6-.8 1.7-1.2.6-1.9-1.2-.7-1.2-.9 0-.9.8 0 2.3.7 3.3 1.7 1.7 1.5 1.8 1.5 1.8-.5 0-1.2.8-2.5 1.7-3.1 1.5-.8 1.6-1.5.6-5.3-.9-3.2-.9-4.5 0-5 1.4-.9.8-1-4.8-1.2-5.7-.2-6.1-3-.6-4.7 4.2-1.2 5-2.6 2.9-4.7-.9-.9-.8-1.2.5-1.2 2.1 0 5.2-3.4 5.2-5.7 0-1.1.9-1.7 2.8-1.7 1.5-.1 2.7.2 2.7.6 0 .4 1.5-.3 3.4-1.5 2.1-1.4 3.6-3.3 4-5.1.6-2.7.8-2.8 4.6-2.3 3.7.5 4 .3 3.5-1.4-.4-1.1 0-3.1.9-4.4 1.8-2.7 2.1-7.1.6-8-1.7-1-1.1-2.5.7-1.8 1.2.5 1.5.2 1-1-.5-1.3-.1-1.7 1.8-1.7 1.3 0 2.7.5 3 1 1.2 1.9 2.2.1 1.7-3-.2-1.6-1-3-1.7-3-2.9 0-2.6-9.4.3-11.6.9-.6 1.3-1.8.9-2.7-.4-1 .1-2.1 1.1-2.7 1.2-.8 1.4-1.3.5-1.6-1.4-.6-1.8-5.4-.5-5.4 1.4 0 4.3-5.8 3.2-6.5-.6-.3-1.3.1-1.6.9zm-41.8 87.5c0 1.1-.8 2.2-1.8 2.4-2.2.6-2.3-.6-.2-2.7 1.9-2 2-2 2 .3zm4.9.2c1.1 1.7 0 2-2.1.4-1.7-1.3-1.7-1.4-.2-1.5.9 0 2 .5 2.3 1.1zm-36.5 1c0 .5-.4.7-1 .4-.5-.3-1-.1-1 .6s-.3 1-.6.6c-.8-.7.4-2.7 1.7-2.7.5 0 .9.5.9 1.1zM107.234 156.953c0 .5.5 1 1.1 1 .5 0 .7-.5.4-1-.3-.6-.8-1-1.1-1-.2 0-.4.4-.4 1zM418.234 163.553c0 .8.5 1.2 1 .9.6-.3 1-1 1-1.6 0-.5-.4-.9-1-.9-.5 0-1 .7-1 1.6zM525.734 173.353c-1.1.6-2.1 1.1-2.1 1.1-.1 0-.5 1-.8 2.2-.6 1.8-.2 2.5 1.8 3.5 2.2.9 2.9.8 4.5-.6 1.2-1.1 2.1-1.4 2.6-.7.7 1.3 2.5 1.5 2.5.3 0-.4-1.4-1.3-3.1-1.9-1.7-.7-2.8-1.6-2.6-2 1.1-1.8-.7-3.1-2.8-1.9z"/><path d="M655.934 179.153c-.6 2.9-1.3 3.8-2.7 3.8-1.1 0-2 .4-2 1 0 1.5-3.3 1.2-5.6-.5-2.6-1.9-4.4-1.9-6 .2-1 1.5-1.5 1.6-2.5.5-1.9-1.8-3.4-1.5-1.8.5.9 1 1 1.8.4 2-.6.2-.9 1.9-.7 3.9.3 2.6-.1 3.9-1.4 4.9-1.1.8-1.4 1.4-.6 1.5.6 0 1.3-.1 1.5-.2.1-.1 1.3.4 2.6 1.1 3.3 1.8 10.3 1.6 11.7-.3.6-.9 1.6-1.6 2.3-1.6.6 0 1.6-.8 2.2-1.8 1-1.5 2-1.7 6.3-1.1 4 .5 5.3.3 6-.9.8-1.3 1.3-1.1 3.3 1.4 1.9 2.4 2.5 2.6 3.2 1.4 1.2-1.8.3-3.3-1.4-2.6-1.8.7-3.7-1.8-2.9-3.8.4-1-.2-2.3-1.7-3.6-1.6-1.2-1.9-1.9-1-2 3.2 0-.4-1.5-3.7-1.5-3.3 0-3.7-.3-4.2-3l-.6-3-.7 3.7zM841.134 183.953c-.1 1.4 0 2.9.1 3.5.2.5.4 2.1.4 3.5.1 2.2-.4 2.6-4.4 3l-4.5.5 2.3 2.2c1.2 1.3 2.2 2.7 2.2 3.3 0 .5.5 1 1.1 1 .6 0 .8-.9.4-2.1-.5-1.5-.4-1.9.4-1.5.6.4 1.1 1.3 1.1 2 0 2.4 2.5 4.7 4.3 4 1.6-.6 1.6-.9-.3-4-2-3.1-2-3.5-.5-5.8.9-1.4 1.4-3 1-3.6-.3-.5-.8-1.9-1-3-.2-1.1-.8-2.8-1.4-3.7-.9-1.6-1.1-1.5-1.2.7z"/><path d="M671.934 187.653c-2.2.6-1.2 2.3 1.4 2.3 1 0 1.9-.7 1.9-1.5 0-1.5-.2-1.6-3.3-.8zM798.234 205.853c-.5 1.1-1 3.4-1 5.1 0 2.6-.3 3-1.9 2.5-1.1-.3-2.9 0-4 .7-2 1.2-2 1.2 0 4.4 1.6 2.7 1.7 3.4.6 4.1-.7.4-1.6 1.6-2 2.5-.7 2 2 3.3 3.8 1.8 1.9-1.6 7.8-.6 12.1 2 2.8 1.8 3.9 2.1 4.2 1.1 1-3.1 4.1-4.3 11.3-4.6 4.1-.2 8 .1 8.7.7 1.4 1.2 1.3 1.5 1.7-4.7.2-2.8.7-6.2 1-7.6.6-2.2.3-2.7-1.6-3.2-1.3-.4-2.6-.2-2.9.3-.3.4-3 1-5.9 1.1-5.7.3-7.4-.9-5.2-3.5.9-1.1.5-1.6-1.9-2.4-2.4-.9-3-.8-3 .3 0 2.6-2.1 2.7-5.9.1-4.4-3.1-6.7-3.3-8.1-.7zM835.234 211.953c-.9.6-1 1-.3 1 .6 0 1.5-.5 1.8-1 .8-1.2.4-1.2-1.5 0zM720.234 221.853c0 .7-1 2.5-2.2 4.1-1.7 2.3-2.5 2.7-3.9 2-2.5-1.4-3.2-1.2-2.6.4.6 1.4-4 5.3-5.5 4.8-1.2-.3-1 1.6.2 2.3 1.4.9 1.2 3.1-.3 4.7-.9.8-1.1 2.1-.6 3.3.4 1.1.8 1.4.8.6.1-1.1.5-1.1 1.9.2 1 1 2.7 1.7 3.8 1.7 2.7 0 4.8 1.6 4 2.9-.5.7.2 1.1 1.8 1.1 1.8 0 2.6-.6 2.8-2.3.2-1.4.9-2 1.8-1.8 8.2 2.2 9.9 4 6 6.1-1.1.6-2 2-2 3 0 2.1-1.6 2.7-2.2.9-.5-1.6-4.8-.1-4.8 1.7 0 .8.5 1.4 1 1.4 2.1 0 .9 4.3-2 7.2-2.2 2.2-3.7 2.9-5.2 2.4-1.2-.3-2.9.1-3.8.8-2.6 2.3-5.6 2.8-7 1.1-1.8-2.2-4.8-1.8-5.6.7-.6 2.1-.7 2.1-2.1-.8-2-3.8-6.3-8.4-8-8.4-.7 0-1.3-.9-1.3-2s-.6-2-1.2-2.1c-7.5-.3-16.2-2.9-16.4-4.8-.1-.6-.3-1.4-.4-1.9-.4-.9-.7-2.4-.9-3.7-.1-.6-.6-.3-1.1.5-.7 1.2-1.1 1-1.9-1-.6-1.7-1-1.9-1-.8-.1.9-1 2-2.2 2.3-1.5.5-1.7 1-1 1.9 1.3 1.5.4 2.6-2.1 2.6-2 0-2.2.8-.8 4.4.8 2.1.6 2.6-1 3.1-2.4.8-2.4.8-.4 6.4 1.6 4.6 1 6-2.5 6.1-1.1 0-.9.4.5 1.4 2.4 1.8 1.3 3.1-1.5 1.7-1.8-1-2.1-.8-2.7 1.5-.6 2.4-.9 2.5-4.3 1.8-3.7-.7-8.1-.7-8.9 0-.2.3.3 1.8 1.1 3.5 1.6 3.2 1.1 4.1-2.5 5.4-1.6.6-1.5 1.1 1.2 5.4 1.7 2.6 3 5.3 3 6.1 0 1 .7 1.3 2.1.9 1.2-.3 1.8-.3 1.5 0-.3.3.3 1.3 1.3 2.2 1 .9 2.3 2.8 2.9 4.3 1 2.4.9 2.8-.4 2.8-1.4 0-1.4.3-.4 1.5.7.8 2 1.5 2.9 1.5.9 0 2.8.6 4.3 1.4 2.3 1.2 2.7 1.2 3.2 0 .3-.8 1.2-1.4 2.1-1.4.8 0 1.5-.7 1.5-1.5 0-1.3.4-1.4 2.2-.4 1.8 1 2 .9 1.4-.6-.4-1.3-.2-1.6.9-1.1 1.1.4 1.5-.1 1.5-1.9 0-1.4-.5-2.5-1.1-2.5-.8 0-.8-.5.1-1.5.8-.9 2.1-1.3 3.6-.9 2 .5 2.4.2 2.4-1.7 0-1.8.3-2 .9-1 1 1.6 3.1.6 3.1-1.5 0-1 .7-1.3 2.6-.8 2 .5 2.6.2 3.1-1.5.8-3 1.8-2.6 4.9 1.5 2.6 3.4 3.1 3.6 7.4 3.1 2.7-.3 5.8 0 7.9.9 1.9.8 3.9 1.1 4.5.6 1.1-.9 9-.7 10.5.2.5.3 1.2-.1 1.5-1 .4-1.1 1.3-1.4 3-1 1.6.4 2.6.1 3-1 .3-.8 1-1.2 1.6-.9 1.6 1 5-.5 5-2.1 0-1.2.6-1.3 2.3-.7 1.2.4 3.7.7 5.4.7 2.4 0 3.4.5 3.9 1.8.5 1.7 1.3 1.9 6.7 1.3 3.4-.3 7.5-.8 9-.9 1.6-.2 3.2-.8 3.6-1.4.3-.6 2.4-.9 4.5-.7 2.5.2 4.4-.2 5.3-1.1.8-.8 2.3-1.4 3.4-1.4 1.6 0 1.8-.3.9-1.9-.7-1.4-.7-2.2.1-2.6.6-.4.8-1.3.5-2-.3-.8.2-1.9 1-2.5.8-.8 1.2-2.3.9-4-.3-1.6.5-4.6 2-7.8 2.8-5.9 3.1-8.2 1.1-8.2-.9 0-1.4-.9-1.3-2.4.1-1.4-.2-2.6-.8-2.7-1-.2-5.5-6.3-5.5-7.4 0-.4-.9-2-2-3.5-1.4-1.9-2.6-2.7-3.9-2.3-1.1.3-2.8-.4-4-1.6-1.2-1.2-2.5-2.1-2.9-2.1-.5 0-2.1-1.4-3.7-3l-2.9-3h3.3c2.5 0 3.2-.4 2.7-1.5-.4-1.2.3-1.5 3-1.5 2.4 0 3.3-.4 2.8-1.2-.4-.6.1-1.7 1.1-2.4 1.5-1.1 1.3-1.3-2-2-2.3-.4-4.1-.2-4.8.5-1.6 1.6-1.8 1.5-7.7-2.9-4.9-3.6-5.4-3.8-7.4-2.5-2.6 1.9-4.4 1.9-7.8.1-1.5-.8-3-1.1-3.3-.7-.6 1.1-9.6.1-11.2-1.2-.9-.6-1.3-.6-1.3.2zm-59.1 34c.8.5 2.4.6 3.5.1 1.4-.5 2.4-.2 3.2.8.9 1.2.5 2.1-2 4.3-2.8 2.5-3.3 2.6-4.7 1.3-1.6-1.5-3.2-7.4-2-7.4.3 0 1.2.4 2 .9zm108.9 2.8c.5 1.8-1.6 1.6-3.5-.3-1.5-1.4-1.4-1.6.7-1.2 1.3.1 2.5.9 2.8 1.5zm-109.9 9c0 2.5-.1 2.5-.8.8-.5-1.1-.7-2.3-.4-2.8.8-1.4 1.3-.7 1.2 2zm-2.1 9.2c.3.8-.1 1.2-.9.9-.7-.2-1.5-1-1.7-1.7-.3-.8.1-1.2.9-.9.7.2 1.5 1 1.7 1.7zm2.7 5.1c1 1.1 1.4 2 1 2-.5 0 .2 1.2 1.6 2.6l2.4 2.6-3.5-.7c-1.9-.4-3.6-.8-3.7-.9 0 0-.4-1.8-.7-3.9-.7-4.1.2-4.7 2.9-1.7zm.2 23.7c-.3.2-1.6.1-2.9-.3l-2.3-.8 2.5-.6c2.3-.6 3.9.4 2.7 1.7zM780.234 228.053c0 .5.5.7 1 .4.6-.3 1-.8 1-1.1 0-.2-.4-.4-1-.4-.5 0-1 .5-1 1.1zM775.234 229.453c.7.9 1.5 1.3 1.7 1.1.7-.7-.7-2.6-1.9-2.6-.6 0-.6.6.2 1.5zM830.234 230.453c0 .8.4 1.5 1 1.5.5 0 .7-.7.4-1.5-.4-.8-.8-1.5-1-1.5-.2 0-.4.7-.4 1.5zM830.434 233.753c-1.5 1-.5 4.5 1.2 3.9 1.3-.4 2.1-4.7.9-4.7-.4 0-1.4.4-2.1.8zM843.234 238.953c-3 2.3-4.4 2.5-5.9.6-.9-1.1-1.7-1.1-3.5-.3-2.2 1-2.2 1.3-1 4.2.7 1.6 1.7 3 2.3 2.9.6-.1 2-.2 3.2-.3 1.1 0 1.7-.6 1.4-1.1-.3-.6-.3-1 .2-1 .4 0 2.1-1.6 3.6-3.5 3.2-4 3.2-4.2-.3-1.5zM501.234 247.153c0 .9.5 2 1.1 2.3 1.7 1.1 1.8.2.3-1.9-1.2-1.7-1.4-1.7-1.4-.4zM90.834 248.853c-.3.5.3 1.1 1.4 1.4 1.3.3 2 0 2-.9 0-1.5-2.6-1.9-3.4-.5z"/><path d="M642.934 257.753c-1.3.3-1.5.7-.8 1.6.7.8.7 3.1.2 6.4-.7 4.6-.6 5.2.9 5.2 1.1 0 2-1 2.4-2.5.7-2.9 1.8-3.2 3.6-1 1.4 1.7 4 2 4 .5 0-.5-.9-1.5-2-2.2-1.3-.8-1.8-1.9-1.4-3.4.4-1.7-.1-2.5-2.3-3.6-1.5-.7-3.6-1.2-4.6-1zM637.334 275.153c0 1.6.2 1.8.6.8.3-.8 1.1-1.8 1.7-2.2.7-.5.4-.8-.6-.8-1.2 0-1.8.7-1.7 2.2zM516.734 286.953c-.3.5.1 1 .9 1 .9 0 1.6-.5 1.6-1 0-.6-.4-1-.9-1-.6 0-1.3.4-1.6 1zM614.234 294.953c-3.8 3.2-8 4-8 1.5 0-2.2-3.8-1.8-4.5.5-.4 1.2-1.5 2-3 2-1.8 0-2.2.4-1.8 2 .3 1.1 0 2.7-.7 3.5-1 1.2-.8 1.9 1.1 3.5 2 1.7 8.3 5 9.5 5 .2 0 .4-.7.4-1.6 0-1 .5-1.2 1.3-.7 1.8 1.1 8.5 1 8.1-.2-.2-.6 2.8-3.4 6.6-6.3 8.2-6.2 9.2-9 2.9-8.4-3 .3-4.6-.1-6.2-1.6l-2.2-2.1-3.5 2.9zM628.734 292.953c.3.5 1 1 1.6 1 .5 0 .9-.5.9-1 0-.6-.7-1-1.6-1-.8 0-1.2.4-.9 1zM540.734 297.953c.3.5.8 1 1.1 1 .2 0 .4-.5.4-1 0-.6-.5-1-1.1-1-.5 0-.7.4-.4 1zM553.234 301.653c0 1.8 2.7 4.6 3.8 3.9 1.4-.9 1.6-3.6.3-3.6-.5 0-1.6-.3-2.5-.6-.9-.3-1.6-.2-1.6.3zM581.934 309.453c-1.5 1.4-3.7 2.5-4.8 2.5-2.1 0-2.5 1-.9 2.6 2.3 2.3 14.8-3.5 15-6.9 0-1.8-6.7-.5-9.3 1.8zM666.234 310.353c0 .8.5 1.8 1 2.1.6.3 1-.1 1-.9s-.4-1.8-1-2.1c-.5-.3-1 .1-1 .9zM560.834 311.053c.4.8.8 2.3.9 3.4 0 1 1.1 2.5 2.5 3.2 2.2 1.1 2.6 1 3.2-.8.4-1.1 2-2.2 3.8-2.5 1.6-.4 3-1 3-1.5 0-1-3.4-1.9-6.5-1.8-1.1 0-3.3-.3-4.9-.7-2.3-.6-2.7-.4-2 .7zM502.734 409.953c-.3.5.1 1 .9 1 .9 0 1.6-.5 1.6-1 0-.6-.4-1-.9-1-.6 0-1.3.4-1.6 1z"/></g></svg>