<svg version="1" xmlns="http://www.w3.org/2000/svg" width="757.192" height="1064.632" viewBox="0 0 567.894 798.474"><g fill="#222"><path d="M446.863 2.215c-.8 5.7 1.4 8.8 5 6.9.9-.5 2.5-1.2 3.5-1.5 2.9-.9 2.1-4.4-1.3-5.1-1.6-.4-3.2-1.1-3.5-1.6-1.1-1.7-3.4-.9-3.7 1.3zM459.063 1.415c0 .9.5 1.6 1 1.6.6 0 1-.4 1-.9 0-.6-.4-1.3-1-1.6-.5-.3-1 .1-1 .9zM440.163 3.715c-1.1 1.3-1.2 2.2-.3 4.5.9 2.6.9 2.9-.5 2.4-1.3-.5-1.4-.4-.4.8.8.9 1 2.7.6 4.6-.6 2.7-.4 3 1.7 3 2 0 2.6-.8 3.6-4.6 1.1-4 1-4.9-.3-6.4-.8-.9-1.5-2.4-1.5-3.3 0-2.3-1.3-2.7-2.9-1zM365.263 9.815c-.7.2-1.2 1.2-1.2 2.2 0 1.2-1.5 2.5-4 3.7-2.2 1-3.8 2.3-3.5 3 .2.7-.5 2.9-1.5 5-4.4 8.9-4.8 10.5-3.8 13.7.6 1.7 1.6 3.6 2.3 4.1 1.8 1.5 3 8.1 1.6 9-2.2 1.3-.1 2.3 3.3 1.5 2.9-.6 3.5-.5 3.9 1.2.3 1.1 1.5 2.2 2.6 2.5 2.7.7 2.7 1.9.1 2.6-2.4.6-2.6 3.4-.4 6.5.8 1.2 1.6 3.2 1.7 4.5.2 1.2 1.1 3.7 2.1 5.6 1.2 2.3 1.5 3.6.7 4-.7.5-.2 1.6 1.5 3.2 1.8 1.6 2.8 2 3.1 1.1.3-.6 1.1-1.2 1.8-1.2.8 0 1.7-1.5 2-3.8.4-2 .9-4.4 1.1-5.4.7-2.3-1.3-3.2-3.2-1.4-2 2-2.1 2-3.3-.3-1.5-2.6 1.5-10.1 4.1-10.1 1.2 0 1.8.7 1.8 2.4 0 1.9.7 2.5 3.5 3 2.2.4 3.5 1.3 3.5 2.2 0 .8-.4 1.2-1 .9-1.5-.9-1.2 1.6.5 4.9.9 1.6 1.3 3.7 1 4.6-.3.9.5 2.6 1.8 3.9l2.4 2.2 1.6-2.5c1.8-2.7 1.4-5.1-.9-6-.8-.3-1.4-1.1-1.4-1.9 0-.7-.5-1.8-1.2-2.5-1.1-1.1-1.7-2.7-2.2-6.5-.1-1-1.3-2.4-2.6-3-1.3-.7-2.8-2.1-3.4-3.2-1.7-3.1-2.6-3.4-5.9-2-2.5 1-3.3 1-4.8-.4-2.5-2-2.4-3.1.2-3.1 1.3 0 1.8-.4 1.3-1.1-.5-.8.1-1 2-.7 1.4.3 2.6.1 2.6-.4s.9-.4 2 .2c2.2 1.2 4.4.5 3.5-1.1-1.5-2.3 4.3.7 6.3 3.3.7.9 1.9 1.5 2.7 1.2.8-.3 2.7.3 4.3 1.4 2.6 1.9 2.9 1.9 3.9.4 1-1.6 1.2-1.6 2.9 0 1.8 1.7 1.7 1.8-.4 1.8-1.2 0-2.2.4-2.2.9s-1.3 1.4-3 2c-1.6.5-3 1.7-3 2.5 0 .9-.8 1.6-1.7 1.6-1.3 0-1.4.3-.5 1.2.7.7 1.2 2.6 1.2 4.2 0 4 1.2 5.8 3.3 5 1-.3 2.4-.1 3.2.6.8.7 1.5 1 1.5.6 0-1.4 5 2.7 5.5 4.5.4 1.2 1.6 1.9 3 1.9 1.7 0 2.3.4 1.9 1.4-.3.8 1.2 3 3.5 5.2 4.6 4.2 5 5.4 2.1 6.1-2.7.7-2.6 3.9.2 4.6 2.8.8 3.8.1 3.8-2.4 0-3.1 1.9-5.9 4.7-7 1.9-.7 2.3-1.2 1.4-2.2-1.3-1.6 2.3-5.1 4.4-4.3 1.6.6 3-1.2 3-3.8 0-1.3-1-2.2-2.8-2.7-2.9-.8-3.3-.3-1.7 2.1 1.2 1.9-5.8 5.2-10.3 4.8-2.9-.3-3.2-.6-3.4-3.8-.1-2.7.5-4.2 2.9-6.7s2.9-3.5 2-4.5c-.7-.9-.7-1.9-.2-2.8.6-.8 1-2.5 1-3.7 0-1.2.5-2.3 1.1-2.5.7-.2-.2-2-2.1-4.1-3.1-3.6-3.2-3.9-1.6-5.6.9-1 3.1-2.1 4.8-2.5 3.8-.7 14.5-7.6 15-9.6.3-.8-.2-3.3-.9-5.5-.8-2.1-1.4-4.9-1.5-6.2-.2-1.3-.5-2.3-.8-2.3-.4 0-3.1-2.4-6.1-5.2-3-2.9-5.7-5.3-6.1-5.3-.3 0-.9-.3-1.2-.6-1.1-1-6.5.3-6 1.5.3.7-1.1 1-4.4.8-4.7-.4-4.8-.3-6.1 3.3-1.2 3.3-1.6 3.6-3.9 3-1.5-.4-3.2-.8-3.8-.9-.6-.1-1.8-.9-2.7-1.8-.9-.9-3.9-1.9-6.7-2.3-3.4-.5-5.4-1.3-6-2.6-1.3-2.4-5.9-4.7-8.4-4.1-1 .2-1.6 0-1.2-.6.6-1-4.2-2.1-6.2-1.4zM453.763 12.715c-.4.3-.7 1.3-.7 2.2.1 1.3.3 1.3 1.1-.2 1.1-1.9.8-3.3-.4-2zM448.363 15.815c.4 1.7-.1 2.6-2.3 3.7-3.8 1.9-4.6 3.5-2 3.5 1.2 0 1.8-.5 1.5-1-.3-.6.3-1 1.3-1 2.4 0 3.9-4.7 2.1-6.4-.9-.8-1-.6-.6 1.2zM437.563 26.015c-.3.6.1.7.9.4 1.8-.7 2.1-1.4.7-1.4-.6 0-1.3.4-1.6 1z"/><path d="M429.463 66.715c.4.9.1 2-.6 2.5-.8.6-.2.7 1.7.4 1.8-.4 4.2 0 5.9.9 3.7 2 5.3 1.9 6.5-.3.8-1.4 1.3-1.5 3-.5 2.6 1.7 3.1 1.6 3.1-.2 0-2.2-2.9-3.3-7-2.8-2.2.3-4 .1-4.4-.6-.4-.6-1.2-1.1-1.7-1.1-.6 0-.7.4-.4 1 .8 1.2.8 1.2-3.3 0-2.9-.8-3.3-.7-2.8.7zM427.663 72.515c-.6 1.8.2 4.5 1.5 4.5 1.2 0 1.2-4.7 0-5.4-.5-.3-1.1.1-1.5.9zM404.363 101.715c-.7.2-1.3 1.3-1.3 2.4 0 1-.7 1.9-1.5 1.9-.9 0-1.8.7-2.1 1.5-.5 1.2-1 1.3-1.9.5-1-.8-2.8-.6-6.7.7-4 1.4-7 3.5-12.6 9-4 4-7.7 7.3-8.3 7.3-.5 0-.9.7-.9 1.6 0 1.4-.7 1.5-4.1 1-3.9-.6-4.1-.5-3.6 1.6.3 1.3.2 4.2-.2 6.5-.7 3.7-.6 4.3 1.4 5.3 2.1 1.1 2.2 1.8 1.9 9.3-.1 4.7.2 8.7.8 9.4.7.9.6 2-.5 3.7-1.5 2.2-1.5 2.5-.1 3 .9.4 1.4 1.3 1 2.1-.4 1.1.1 1.5 1.7 1.5 1.3 0 2.8.5 3.4 1.1.8.8 3.3 1.4 7.6 1.8 1.1.1.9 6.1-.3 6.1-2.1 0-4 5.6-3 9 .8 2.9.6 3.6-2 6-1.7 1.6-3 3.3-3 3.9 0 .6-.6 1.1-1.4 1.1-1.7 0-2.6 3.1-2.6 9.7 0 3.1-.4 5.3-1.1 5.3-.6 0-.9 1.5-.7 3.5.2 3.2-.2 3.8-3.6 5.9-2.7 1.6-3.4 2.5-2.4 2.9 1.8.6 3 5.5 1.6 6.3-.6.4-.8 1.8-.5 3.3.5 2.6.5 2.6-6.1 2.9-3.6.1-6.8.4-7 .7-.2.2.2 1.3.8 2.5 1.7 3.1-.2 6.4-4.3 7.6-2.6.7-3.3 1.6-3.9 4.8-.8 3.5-.5 4.2 2.8 7.9l3.7 4-.7-3.6c-.6-3-.3-3.8 1.4-4.7 1.1-.6 2.5-.8 3-.5.6.4 2.3-.4 3.8-1.7l2.9-2.4-2.4-1.8c-1.5-1.1-2.2-2.4-1.9-3.3.4-.9.1-2.2-.5-2.9-.9-1.1-.9-1.4 0-1.4.7 0 .9-.5.6-1-.4-.7.3-.8 2.2-.3 1.5.4 3.6.7 4.6.7 1.4 0 1.6.6 1.2 2.8-.5 2.3-.3 2.8 1.2 2.8 1.1 0 2.4.5 3.1 1.2.9.9 1.2.8 1.2-.5 0-2.4 1.5-2.1 4.2.7 2.1 2.2 2.8 2.3 7.3 1.6 5.7-.9 13.4.5 14.2 2.7.8 1.9-.5 2.9-1.9 1.5-2-2-3.5-1.4-4.7 1.8-.5 1.6-1.5 3-2.2 3-.6 0-.9.7-.5 1.5 1 2.6-1.4 7.3-3.9 7.7-1.3.3-2.8.1-3.4-.5-1.1-1.1-5.1 6.1-5.1 9.4 0 1.1-.9 3.3-1.9 4.8-1.6 2.1-1.8 3.5-1.1 6.9.6 3.5.4 5.1-1.4 8.3l-2.1 4 2.4 1.8c1.4 1 2.6 2.6 2.7 3.6.8 5.6 2.7 5.8 7.5.9 1.8-2 4.4-4 5.7-4.5 1.2-.5 2.2-1.2 2.1-1.6-.7-4.4 1.4-4.2 4.1.4 1.3 2.1 2.5 3.2 2.7 2.5.3-.6 1-1.2 1.7-1.2s2.1-.9 3.1-2 2.4-2 3.1-2c.7 0 1.1-.6.8-1.4-.3-.7.2-1.6 1.1-2 2-.7 1.2-4.1-1.7-7.2-1.2-1.4-1.6-2.4-.9-2.8.7-.5.7-1.5.1-3.2-.8-1.9-.6-2.6.5-3 1.3-.5 1.3-1 .1-3.3-.8-1.4-1.7-3.3-2-4.1-.3-.8-1.4-2.6-2.3-4-1.7-2.5-1.7-2.5.2-1 1.1.8 2.4 2.1 2.8 2.7 1.2 2 3.6 1.5 6.3-1.2 3.5-3.5 4.4-3.1 4.1 1.5-.3 2.9.1 4.4 1.2 5 .9.5 1.2 1.2.8 1.6-.9.9 3.2 5.4 5 5.4.8 0 1.6.7 1.9 1.5.4.8 1.3 1.5 2.1 1.5s2 1.5 2.8 3.3c1.7 4.2 3.9 6 6.2 5.3 1-.3 2.3-.2 3 .2 1.2.7 6.3 7.9 6.3 8.7 0 .3.9 1.4 2.1 2.6 1.1 1.1 1.8 2.7 1.5 3.6-.5 1.2 0 1.3 2.3.8s3.3-.1 5.4 2.4c1.4 1.7 3 3.1 3.5 3.1s1.4.6 2 1.3c1.5 1.8-.6 8.7-2.6 8.7-1.3 0-1.3.2 0 1.7 2.1 2.5 4.9 8.1 4.7 9.6-.6 4.9 1.7 4.9 3.7 0 1.4-3.3 1.4-3.7 0-4.5-.8-.5-1.8-2.4-2.2-4.3-.3-2-1-3.8-1.5-4.1-1.8-1.1-.8-2 3.7-3.3 2.5-.8 4.8-2 5.1-2.8.3-.8 1.3-1.1 2.3-.8 1.1.3 1.7 0 1.7-1 0-.8-.5-1.5-1-1.5-.6 0-.8-2.2-.4-5.5.3-3 .1-5.7-.4-6-1.9-1.2-.8-2.5 2-2.5s4.4-1.2 4.7-3.5c0-.6.2-2 .2-3.3.2-1.9.7-2.2 3-2 1.9.2 2.7-.2 2.7-1.2 0-.8.5-2 1.2-2.5 1-.8.9-1.7-.4-4.3-1.7-3.5-2.4-3.8-5.2-2-3 1.8-4.7.4-4.9-4.1-.2-3.2.1-3.9 1.3-3.5 1 .4 1.5 0 1.5-1.5 0-1.2.7-2.4 1.5-2.7.9-.4 1.3-1.4 1.1-2.3-.7-2.4 1.8-5.3 3.9-4.5 1 .4 2.1.1 2.6-.7.7-1.1.9-1.1.9.3 0 1.4.5 1.6 2.3.9 1.5-.6 2.9-.5 4.1.5 1.6 1.1 2.4 1 5.7-.7 2.2-1.1 3.9-2.3 3.9-2.7 0-.5 2.4-1.8 5.4-3.1 3.6-1.5 5.6-2.9 6-4.3.5-2 .7-2.1 2.3-.6 2.1 1.8 6.3.8 6.3-1.5 0-1.4 6.7-4 8.1-3.2.4.3.9-.2 1.3-1 .7-2 3.3-1.9 6.2.4 2 1.6 2.8 1.7 4.9.8 1.6-.8 2.5-2 2.5-3.6 0-1.9.4-2.2 2.3-1.8 1.2.4 3.9.2 5.9-.2 2.2-.5 4-.5 4.6.1 1.5 1.5 3.1.1 2.5-2.2-.4-1.7 0-2 2.5-2 6.3 0 10.2-3.2 8.7-7.1-.6-1.7-6.5-5.3-8.1-5.1-.7.1-3.3-.7-5.8-1.8l-4.7-2 .6 2.2c.7 1.9.5 2.1-2.9 1.5-5.3-.8-6.8-2.7-5.5-6.7 1-2.7.9-3.4-1.1-5.5-1.3-1.4-2.7-2.2-3.1-1.9-.5.3-1.9-.2-3.2-1.1-4-2.6-6.3-.7-5.8 4.7.2 1.3-.3 1.6-1.5 1.1-1.5-.6-1.5-.4.1 2 1 1.5 1.3 2.7.7 2.7-2 0-3.4-4.1-3-8.6.2-2.8-.1-4.4-.8-4.4-1.3 0-4.4-4.3-4.4-6.2 0-.6-1.2-2.4-2.6-3.9-2.1-2.2-2.4-3.1-1.5-4.7.6-1.1.8-2.8.5-3.6-.4-.9-.1-2.3.6-3.1 1.7-2 .4-3.8-2-2.5-1 .5-2.9 1-4.2.9-1.3 0-1.8-.3-1.2-.5 1.3-.5.6-5.4-.7-5.4-.5 0-.9-1.1-.9-2.5 0-1.6-1.3-3.9-3.5-6-1.9-2-4.1-4.8-4.9-6.3-1.8-3.5-8.5-8.9-12.2-9.8-1.6-.4-3.2-1.1-3.5-1.7-.4-.5-1.7-1-3-1.1-1.8-.1-2.6-.9-3.4-3.3-1-3.5-3.8-5.1-5.9-3.4-1.4 1.1-3.6-.3-3.6-2.4 0-.7-1.2-1.7-2.7-2.4-2.3-1-2.9-1-3.8.3-.8 1.1-2.2 1.3-5.3.9-5.7-.8-5.7-2.9 0-2.4 1.5.2 1.6-.2.8-2.3-.5-1.4-.6-2.6-.2-2.6.4 0 .1-.4-.7-.9-1-.6-2.1-.1-3.8 1.9-1.3 1.6-3.3 3.2-4.3 3.5-1.1.4-2 1.3-2 2.1 0 1.6-6.5 4.8-8 3.9-1.2-.7-4 2.3-4 4.3 0 1.2-.9.6-3-1.8-3.1-3.7-4-6.1-1.6-4.1 1.2 1 1.3.8.9-1.1-.3-1.3-1.2-2.8-2-3.5-1.3-1-1.3-1.5.4-3.7 1-1.3 2.6-2.7 3.6-2.9 2-.6 2.3-4.7.5-6.5-.9-.9-.8-1.2.5-1.2 2.7 0 2.8-9.8.2-11.3-.8-.4-1.5-1.5-1.5-2.2 0-1.8-2.6-2-3.6-.3-.5.8-1.1.6-2-.6-.7-1-1.7-1.5-2.3-1.2-1.7 1.1-6.1-1.6-6.7-4.1-.9-3.5-8.2-6.2-12.1-4.6zm7.8 57.5c.4 1.7.3 2.8-.4 3.1-1.5.5-5-4-4.2-5.3 1.2-1.9 3.8-.6 4.6 2.2zm36 7.1c-.1 1.2-1.5.9-1.9-.4-.3-.6.1-1 .8-.8.6.3 1.1.8 1.1 1.2zm11.8 28.1c.9 1.1.4 2-2.4 4.5-3.4 2.9-5.5 3.3-5.5 1 0-.6.5-.7 1-.4.6.3 1-.4 1-1.7 0-4.2 3.6-6.2 5.9-3.4zm-7.4 9.6c-.3.5-1.2 1-2 1s-1.7-.5-2-1c-.4-.6.5-1 2-1s2.4.4 2 1zm78.5 15.1c0 1-.3 1.9-.7 1.9-.5 0-.8-1.1-.8-2.4 0-1.3.3-2.2.8-1.9.4.2.7 1.3.7 2.4zm33 14.4c1.8 1 2 1.4.8 1.5-2.3 0-4.8-1.1-4.8-2.1 0-1.2 1.1-1.1 4 .6zm-153 .5c0 .5-.4 1-1 1-.5 0-1-.5-1-1 0-.6.5-1 1-1 .6 0 1 .4 1 1zm13.5 0c.3.5.2 1-.4 1-.5 0-1.3-.5-1.6-1-.3-.6-.2-1 .4-1 .5 0 1.3.4 1.6 1zm99.1 2.7c-1 1-1.9-.5-1-1.8.6-1.1.8-1.1 1.2 0 .2.7.1 1.5-.2 1.8zm38.9-.7c.3.5.1 1-.4 1-.6 0-1.1-.5-1.1-1 0-.6.2-1 .4-1 .3 0 .8.4 1.1 1zm-148.1 26.9c.3.5-.1 1.2-1 1.5-2.7 1-4.4.7-4.4-.9s4.5-2.1 5.4-.6zm51.1 18.1c.3.5.2 1-.4 1-.5 0-1.3-.5-1.6-1-.3-.6-.2-1 .4-1 .5 0 1.3.4 1.6 1z"/><path d="M343.663 269.215c-1.1.6-1.5 1.6-1 3 .3 1.2.1 3.8-.7 6-1 3.1-1 4.3.1 6.2 1.3 2.6.7 6.2-.9 5.2-.5-.4-1.1-.1-1.3.5-.3.9-1 .9-2.8 0-2.3-1.1-2.3-1 .3.9 3.2 2.6 3.9 5.8.7 3.8-1.5-1-2.2-1-3.1-.1-2.5 2.5 2.3 2.6 9.6.3 6.8-2.1 7.4-2.2 9.6-.6 3.2 2.2 4.2 2 3.3-.7-.4-1.2-.9-3.8-1-5.7-.6-6.5-1-8-3.3-10.4-1.2-1.3-2.1-2.7-2-3.2.6-3.4-4.5-6.9-7.5-5.2zM482.563 292.015c.4.6 1.1.8 1.6.5 1.4-.9 1.1-1.5-.7-1.5-.8 0-1.2.5-.9 1zM327.463 300.515c0 3.8.3 5.5 1.2 5.5 2.1 0 2.6-1.9 1.9-6.6-.9-6.4-3-5.6-3.1 1.1zM359.763 298.715c-.6 3 .1 5.3 1.4 5.3 1.2 0 1.2-6.7 0-7.4-.5-.3-1.1.6-1.4 2.1zM307.563 302.815c-.8 3.4 2.8 7 8.4 8.3 3.6.8 4.6.6 6.7-1 1.4-1.1 2-2.2 1.5-2.5-.5-.3-.7-1.6-.5-2.9.2-1.2.2-1.7-.2-1-.4.9-1.6.8-4.7-.4-2.3-.8-5.6-1.9-7.4-2.3-2.8-.7-3.2-.5-3.8 1.8zM360.663 308.615c-.4.9-.4 1.9-.1 2.2.2.3.7-.3 1.1-1.2.4-.9.4-1.9.1-2.2-.2-.3-.7.3-1.1 1.2zM339.763 313.815c-1.6 1.8-1.6 2 .3 3.7 1.7 1.5 2 2.8 1.7 6.3-.2 2.4-.9 4.7-1.6 5.2-.8.4-1.1 1.6-.7 2.8.6 1.6.1 2.4-2.3 3.6-1.6.9-3.1 2.1-3.3 2.7-.2.7-1.6 1.3-3.1 1.5-2.1.2-3-.3-3.7-2-.7-1.9-1.4-2.2-3.9-1.8-2.2.3-3.1 0-3.1-.9 0-.8-.7-.1-1.5 1.5-.8 1.5-1.3 3.2-1 3.6.4.6-3.7 1.5-11.2 2.4-1.3.1-2.6.6-3 .9-.3.4-1.6.7-2.8.7-2.6 0-4.5 1.8-3.8 3.6.6 1.7-.9 1.8-2.5.2-2-2-2.6 0-.8 2.7 1.4 2.1 1.4 2.8.4 4.7-2.2 3.8-5.1 6.8-6 6.2-.4-.3-.8 0-.8.7 0 .8-.4.9-1.3.1-1.8-1.5-9.2 2.1-12 5.9-1.1 1.6-2.8 2.9-3.6 2.9-1.4 0-1.4.2-.1 1 1 .6 1.3 2.2 1.1 5.2-.4 5.7-1.6 7.8-4.1 7.1-1.2-.3-2 0-2 .7 0 .9-.4 1-1.3.2-1-.8-2.1-.7-4.2.4-1.9 1-3.2 1.1-3.9.4-.6-.6-1.5-.5-2.7.6-1 .9-3.8 1.6-6.8 1.7-3.4.1-5.1.6-5.1 1.5 0 1.8-4.2 3.2-5.8 2-.7-.6-3-.8-5.1-.5-3.5.4-4.3.1-7.2-2.9-1.8-1.9-3.7-3.4-4.2-3.4s-2.2 1.4-3.9 3c-2.2 2.2-3.4 2.8-4.6 2.1-1-.5-2.2-.5-3.3.2-1.3.8-2.5.8-4.4-.1-3.9-1.8-4.9-1.5-6.8 1.8-1.3 2.1-2.6 3-4.3 3-2.3 0-2.5.3-1.9 3 .6 2.5.3 3.1-1.9 4.1-1.4.7-2.3 1.6-2 2 .7 1.2-2.8 5.8-4.4 5.9-.8 0-2.5.9-3.9 2s-3.1 2-3.8 2c-.7 0-1.5.7-1.9 1.5-.3.9-1.8 1.5-3.7 1.5-2.8 0-3.1.2-2.5 2.5.7 2.9-2.7 7-5.1 6.1-.8-.3-2.4 0-3.5.8s-2.7 1.2-3.4.9c-.8-.3-1.4 0-1.4.7 0 .8-.9 1.1-2.4.8-1.6-.3-2.7 0-3.1 1-.3.9-1.3 1.2-2.9.8-2.2-.5-2.5-.3-2.4 2.2.1 4.2-1.8 7.1-4.2 6.5-1.9-.5-2-.2-1.7 4 .4 4.3.2 4.7-2.4 5.6-3.1 1.1-6.7.4-8.7-1.6-.7-.7-2.3-1.3-3.5-1.3-2 .1-2.1.1-.4 1.1 1.4.8 1.7 1.8 1.3 3.7-.3 1.5-.3 2.1 0 1.4.8-1.7 3.4-1.5 3.4.4 0 .9-.5 1.2-1.2.8-.8-.5-.9.4-.5 3.2.4 2.1.7 4.4.7 5 0 .6 1.8 2.3 4.1 3.8 3.6 2.4 4 3 3.4 5.7-.4 1.9-.1 4.2.8 6.2 2.2 4.5 3.1 8.7 2 8.7-1.9 0-6.3 4.9-6.3 6.9 0 1.1-.5 3.2-1.2 4.7-1 2.2-1 2.8.5 3.9.9.7 1.7 2.2 1.7 3.3 0 2.4 2.5 5.2 4.6 5.2 2.2 0 1.7 4.1-.5 4.7-1.2.3-2.3 1.7-2.6 3.4-.4 1.6-1.1 3.1-1.6 3.4-.5.4-.9 1.5-.9 2.6 0 1.5-.7 1.9-3 1.9-3 0-3.1.2-2.8 4 .2 4.4-.4 5.5-3.5 5.5-2.8 0-4.6 4.7-2.7 6.9.7.9 2 1.6 3 1.6s2.5 1.1 3.4 2.5c.9 1.4 2.4 2.5 3.3 2.5.9 0 2.7 1 3.9 2.1 1.7 1.6 3 2 4.9 1.5 1.4-.4 2.3-1.1 1.9-1.7-.3-.6 0-.9.7-.8.8.1 2.1 0 2.9-.4 4.5-1.7 10.5-2.5 11.6-1.6.8.7 1.2.6 1.1-.3-.1-2.7 2.8-7.8 4.1-7.3 1 .4 1.3-.5 1.1-3.8-.2-2.4.1-4.9.5-5.6.5-.8 0-2.4-1.3-4.2-1.1-1.5-2.1-3.1-2.1-3.4 0-1.1 2.3-.4 5.2 1.6 1.7 1.2 4.3 2.2 5.9 2.1 3.2-.1 5.9 2.8 5.9 6.3.1 2.6 2.8 5.8 6.3 7.3 3.9 1.7 4.7 1.5 4.7-.8 0-1.8.3-1.9 2-1 1.4.8 2 2.1 2 4.6 0 1.9.4 3.3.9 3 .5-.3 1.5.1 2.2 1 1 1.3 1 1.7-.2 2.5-.8.5-2 .9-2.6.9-1.6 0-1.7 2.7-.2 3.2 1.4.5 0 3.8-1.6 3.8-2.4 0-2.7 2-1.1 5.5 1.4 2.8 1.4 3.8.4 5.4-.8 1.4-1.6 1.7-2.4 1-1.4-1.2-4.4 4.1-4.4 7.8 0 1.2-.5 2.3-1 2.3-1.3 0-7 5.7-7 7 0 .6-.8 1-1.7 1-1.6 0-1.5.2.2 1.9 1.1 1.1 2.7 2.1 3.5 2.3.8.2 2.3 1.9 3.3 3.8.9 1.9 1.5 2.7 1.2 1.7-.9-3.3 5.2-9.6 8.6-8.9.4.1 1-1.8 1.3-4.2.6-3.8 1.1-4.4 3.6-5 1.8-.3 3-1.2 3-2.1 0-.8 1.7-3.1 3.8-5.1 2.4-2.3 3.3-3.7 2.5-4.1-.7-.2-1.3-1.5-1.3-2.7 0-1.3-.9-3.5-2-4.9-1.1-1.4-2.3-4.6-2.6-7.1-.6-4.1-.5-4.6 1-4 1.4.5 1.6.2 1.1-1.8-.5-1.8-.2-2.7 1-3.2 1.1-.4 1.4-1.2 1-2.5-.8-2.8 2.7-6.1 6.5-6.1 2.8 0 7.5-3.2 6.3-4.3-.3-.3 0-1.4.6-2.4.9-1.5 1-1.4 1.1 1.3 0 3.5 1.8 4.6 8.2 4.9 2.1.1 4.7 1 5.8 2 2.7 2.4 10.6 1.3 11.5-1.6.8-2.4 6.1-5.9 9-5.9 1.2 0 2.6-.5 3.3-1.2.8-.8 2.2-.7 5.7.7 5.2 1.9 7.4 1.1 5.7-2.2-1-1.7-.7-1.8 2.5-1.5 2.3.3 3.1.8 2.5 1.4-.7.7-.7 1.8 0 3.3.7 1.5.7 2.9.1 4-.8 1.3-.4 2.4 1.5 4.4l2.4 2.6-3.8.3-3.9.3.2 4.7c.1 2.6.5 5.9.8 7.4.5 1.7.3 2.8-.3 2.8-2.2 0-7.1 5.1-6.5 6.8.3.9.3 1.4-.2 1-.4-.4-1.5.7-2.5 2.5-1 1.9-3.3 4-5.8 5.2-4.5 2.2-4.9 3.1-2.8 6 .9 1.3 2.5 1.8 5.1 1.7 2.1-.1 4.5.4 5.4 1.1 1.2.9 1.3.9.7-.1-.9-1.6.6-1.6 2.2 0 1 1 2.6.6 7.7-2.2 5.5-2.9 6.4-3.9 7-6.8.6-3.2.9-3.4 3.6-2.8 4.1.8 6.1-.2 5.4-2.8-.6-2-.6-2 .9-.2 1.4 1.8 1.6 1.8 2.2.2.5-1.4 1.4-1.6 4.3-1.1 2 .4 4.6 1.3 5.9 2.1 1.2.8 2.7 1.2 3.1.9.5-.3 1.8.5 2.8 1.8 2.8 3.6 4.2 4.1 6.4 2.1 1-.9 1.9-2.3 1.9-3.1 0-.7.8-1.3 1.8-1.3 2.3-.1 5.2-2.4 5.2-4.1 0-.8.7-2.4 1.5-3.6 1.4-2 1.4-2.3 0-3-2-1.2-3.8-7.3-2.2-7.3.7 0 .4-.5-.6-1.1-.9-.6-1.5-1.4-1.2-1.9.3-.5.1-1.1-.5-1.5-.5-.3-1-.2-1 .4 0 .5-1.3 1.8-3 2.8-1.6.9-3 2.3-3 3 0 .7-.7 1-1.6.6-1.5-.5-1.5-.7 0-1.5.9-.5 1.6-1.5 1.6-2.2 0-.7 1-2.6 2.1-4.1 1.8-2.1 2.8-2.6 5.4-2.3 2.7.3 3.1.1 2.7-1.4-.2-1-1.1-1.8-1.9-1.8-.8 0-2.4-1.1-3.5-2.5s-2.6-2.5-3.3-2.5c-.8 0-1.8-.6-2.2-1.3-1.2-2-12.1-7.9-13.3-7.2-.6.4-2.6-.7-4.6-2.4-3.7-3.3-7.4-4.1-7.4-1.6 0 1-1.1 1.5-3.5 1.5-1.9 0-3.5-.5-3.5-1 0-.6-.5-1-1.1-1-.5 0-.8.4-.5.9.9 1.4-1.7 1.9-4.2.8-2.7-1.2-2.4-2.8.9-4.4l2.4-1.3-2.2-.6c-2.6-.7-5.7-5-4.3-5.9 1.2-.8 1.3-4.8.1-6.1-.5-.5-1.2-2-1.6-3.3-.6-2-.4-2.3.9-1.8 2.1.8 2 .5-.4-2.3-2.2-2.5-2.6-5.5-1-6.5.8-.5.7-1.2-.2-2.3-.8-1 .7-.5 3.5 1.2l4.8 2.7-.6-2.3c-.5-1.9-.1-2.7 1.8-3.7 2.5-1.3 3.2-2.4 6.3-9.8.9-2.3 2.5-4.4 3.6-4.6 1-.3 1.8-1.4 1.8-2.7 0-1.5.9-2.4 3.1-3.2 1.7-.6 3.4-2.1 4-3.5.5-1.3 1.3-2.1 1.9-1.8.5.3 1 .1 1-.5s1.2-1.6 2.6-2.2c1.7-.8 2.4-1.8 2.1-3-.3-.9.1-2.2.9-2.9.8-.6 1.2-1.5.9-1.9-.3-.5-.1-1.1.4-1.4.5-.3.7-1.6.4-2.7-.4-1.4 0-2.5 1.1-3.1.9-.5 1.6-1.5 1.6-2.3 0-.9 1-1.3 2.7-1.2 2.4.2 3-.3 4.3-4.3.8-2.5 1.9-5.1 2.4-5.9 1.4-2.2 1.5-7.1.1-7.1-1.7 0-4.8-3.6-4.3-5.1.3-.8.8-.8 1.9.3.8.8 2.5 2 3.7 2.7 1.2.7 2 1.6 1.7 2.2-.4.5.4 1.3 1.7 1.8 1.9.7 2.5.5 3.1-1.2.9-2.3-1.3-4.4-2.5-2.4-.5.8-.8.6-.8-.6 0-.9.5-1.7 1.1-1.7 1.6 0-3.1-3.6-5.9-4.4-1.3-.4-2.7-1.9-3.2-3.2-.9-2.3-1.4-2.4-9.5-2.4-6.7 0-8.5.3-8.5 1.4 0 1.2-.4 1.2-3 0-3.6-1.9-4.7-3.4-3-4.4.7-.4 1-1.3.6-1.9-.9-1.4 2.1-5.9 4.4-6.6 2.2-.7 3.2-5.2 1.4-6.9-.7-.7-1.1-2.2-.9-3.2 1.5-7.4 1.6-7.6 2.9-6.5.7.6 1.6.8 1.9.4.4-.3 1.4 0 2.3.7 1 .9 1.8 1 2.2.3.4-.5 1.7-1.5 3-2.2 1.9-1 2.2-1.7 1.7-4.3-.5-2.1-.4-2.8.4-2.4.7.5 1.1-.3 1.1-1.9 0-2 .4-2.6 1.5-2.1.9.3 1.5-.1 1.5-1.1 0-1.3.8-1.5 5.4-.9 3 .3 5.7.2 6-.3.4-.5 1.9-.7 3.5-.5 2 .3 3 0 3.5-1.1.5-1.3 1-1.4 2.7-.5 1.1.7 1.8 1.8 1.5 2.6-.3.7.1 1.7.8 2.1 1 .6 4.6 6.7 4.6 7.8 0 .2-1 .5-2.1.8-2.1.6-2.1.7.8 3.1 3.3 2.8 7.5 10.7 6.8 12.8-.2.7-.6 2.7-.8 4.4-.4 2.6-.1 3.2 2.4 4.1 2.2.9 3.1.8 4-.3 1.8-2.1 2.9-1.7 2.9 1.2 0 5.5 4.1 8.4 7 4.9 1.5-1.8 4.9-1.9 8.3-.4 1.7.8 3.5.8 6.5-.1l4.2-1.1v-5.7c0-3.1.1-7.5.3-9.7.2-3.3-.1-4-1.5-3.7-1.1.2-1.6-.2-1.3-1 .5-1.5-1.4-4.2-3.6-5-1.9-.7-3.3-4.8-1.6-4.8 1.5 0 8.7 5.1 8.7 6.1 0 .5 1 .8 2.1.6 1.2-.1 2.4.4 2.6 1 .3.7-.3 1.3-1.2 1.3-1.4 0-1.5.3-.5 1.5s1.6 1 4.1-1.8c1.6-1.7 2.9-2.8 2.9-2.3s.7.3 1.5-.4c1.1-.9 1.3-1.6.5-2.4-1.5-1.5-1.2-2.6.8-2.6 2.2 0 8 3.5 11 6.6 2.4 2.6 4.8 2.3 5.7-.7.4-1.1 1-1.7 1.5-1.4 1.2.8.8 12.5-.4 12.5-.6 0-.5.5.2 1.2s1.2 3.3 1.2 5.9c0 4.2-.3 4.8-2.2 5.1-2.1.3-2 .5 1 2.1 1.8 1 3 2.2 2.7 2.7-.3.5 0 1.2.6 1.5.5.4.8 1.3.6 1.9-.9 2.2 1 3.9 4.5 4.1 3.3.2 4.7.6 10.3 3 2.9 1.3 9.5 1 9.5-.4 0-.4-.5-1.2-1.1-1.8-1.6-1.6-.3-4.3 2.1-4.3 1.8 0 2.5-1 2.1-3.3 0-.4.6-.7 1.4-.7.9 0 1.6-1.4 2-3.8.3-2 1-5.3 1.5-7.2.4-1.9 1.2-5.5 1.5-8 .4-2.5 1.6-5.5 2.6-6.8 1-1.3 2.1-3.7 2.4-5.5.4-1.8 1.2-3.7 1.7-4.4.5-.7.7-2.2.3-3.3-.6-1.9-.5-2.1 1.4-1.1 1.8 1 2.3.7 4-2.8 1.4-2.7 1.8-4.9 1.4-7.5-.5-3-.3-3.5 1-3.1.8.4 1.8.2 2.2-.4.3-.6-.1-1.4-.9-1.7-.9-.3-1.6-1.6-1.6-2.8 0-1.1-.5-2.8-1-3.6-.8-1.3-1-1.2-1 .4s-.2 1.6-1.6.5c-.9-.7-2.4-1.3-3.5-1.4-1.1-.1-2.7-1.1-3.5-2.3-1.7-2.5-3.9-3-3-.7.8 2.1-3.1 4-4.9 2.5-.8-.6-2.2-.9-3.2-.6-1.3.4-2.1-.2-3-2.2-1.7-3.9-2-10.5-.6-10.9 1-.4 1-.9 0-2.3-.9-1.6-.7-2.3 1.2-4.4 1.7-1.8 2.1-2.9 1.4-3.8-.6-.7-1.4-2.7-1.7-4.5-.7-3.1-3-5-4.1-3.4-.2.5-.3 2.7-.1 4.9.2 3.1 0 3.9-1 3.5-1.4-.5-1.8 1-1.5 5.3.2 1.9-.3 2-8.1 1.9-8.6-.1-11-.9-14.2-4.4l-1.9-2.1-1.4 2-1.5 2.1-3.2-2c-3.8-2.4-9.2-2.2-13.2.3-3.4 2.3-7.8 1.4-7.1-1.4.4-1.6 0-2-2.3-2-1.6 0-4.2-.8-5.9-1.7-2.4-1.5-2.9-2.2-2.4-4.2.4-1.7.2-2.2-.6-1.7-.6.4-1.1 1.5-1.1 2.5 0 2.1-3.7 2.2-5.4 0-.6-.8-2-1.5-3.1-1.7-6.2-1-8.1-1.6-9.5-2.7-.8-.7-3.1-1.6-5-2-2.8-.5-3.9-.2-5.3 1.3zm17.7 16.8c.4.9.5 1.7.4 1.8-.2.1-1.3.6-2.4 1.3-1.9 1-2.3.9-2.7-.9-.4-1.2-.4-2.5-.1-3 .9-1.4 4.2-.9 4.8.8zm-21.1 11.4c-.3 1.1-.9 1.7-1.4 1.4-1.4-.8-1-3.4.5-3.4.9 0 1.2.7.9 2zm16.4 20.6c.2.5-.5 1.9-1.5 3-1 1-2.3 2.8-2.9 3.8-1 1.8-1.1 1.8-2.3-.4-.9-1.8-1-2.5-.1-2.8.6-.2 1.1-1 1.1-1.8s.9-1.4 2.1-1.4c1.2 0 1.8-.4 1.3-1.1-.4-.7-.1-1 .6-.7.8.2 1.5.9 1.7 1.4zm32.2 9.4c2.6 1.3 3.5 4.1 1.3 3.7-2.6-.4-4.2-1.7-4.2-3.3 0-1.7.5-1.7 2.9-.4zm-100.9 32.6c0 1-.6 1.1-2.2.5-3.1-1.1-3.4-2.9-.3-2.4 1.4.3 2.5 1.1 2.5 1.9zm-20 110.9c.7.9.8 1.5.2 1.5-.5 0-1.2-.7-1.6-1.5-.3-.8-.4-1.5-.2-1.5s.9.7 1.6 1.5zm40.6 30.7c.4.6.3.8-.4.4-.6-.3-1.3-.2-1.7.3-.3.6-1.2.8-2 .5-.8-.4-1.2-1-.9-1.5.8-1.3 4.2-1.1 5 .3zM459.163 342.915c-.8.5-.9 1.1-.3 1.5.5.3 1.2-.1 1.6-.9.6-1.7.6-1.8-1.3-.6z"/><path d="M453.063 344.515c0 .2 1 1 2.3 1.6 2 1.1 2.1 1.1.8-.4-1.3-1.6-3.1-2.3-3.1-1.2zM326.363 368.515c-.3.9-.3 1.9.1 2.2.3.4.6-.1.6-1 0-1 .5-1.4 1.5-1.1.8.4 1.5.1 1.5-.5 0-1.7-3-1.3-3.7.4zM331.563 466.015c-.4.6-1.1.8-1.6.5-.5-.4-.9-.2-.9.3 0 1.4 4.9.9 5.5-.6.5-1.4-2.1-1.6-3-.2zM335.263 468.715c-1.5.3-2.2 1-1.8 1.9.3.8-.1 1.4-.9 1.4s-1.5.8-1.5 1.9c0 1-.7 2.4-1.5 3.1-.8.7-1.5 2.3-1.5 3.5 0 1.3-.5 2.5-1.1 2.7-1.8.6.7 5.3 3 5.5 1.2.1 2.1-.3 2.1-.8 0-.6 1.3-.1 2.9 1 1.6 1.2 3.2 2.1 3.6 2.1.4 0 .5-2.3.1-5-.5-4.1-.4-5 .8-5 1.8 0 1.1-2.9-1.1-4.7-1.1-.9-1.2-1.9-.5-4.7.6-2 .7-3.5.4-3.5-.4.1-1.7.4-3 .6zM361.863 488.615c-1.6.8-2.8 2.2-2.8 3 0 .8.4 1.3.9.9.6-.3 1.4.2 1.9 1.1.9 1.6 1.1 1.5 3.5-.2 2.7-2 3.1-5.7.6-6.1-.8-.1-2.6.4-4.1 1.3zM342.663 492.115c-1.3 1.6-1.7 3.1-1.3 5.5.4 2.1.2 3.4-.5 3.4-.5 0-.7.7-.4 1.5.3.9-.1 1.8-.9 2.1-.8.4-2.2 2-3 3.8-.8 1.7-2.6 4.3-3.9 5.8-1.4 1.4-2.2 2.9-1.8 3.4.7.7-.3.4-4.5-1.3-1.7-.7-1.7-.6 0 2 1.9 3 2.2 6.3.7 7.2-.6.4-.8 1.5-.5 2.6.4 1.3.2 1.9-.9 1.9-.9 0-1.6.6-1.6 1.4 0 .8-.7 1.7-1.6 2-.9.4-1.4.9-1.1 1.3.4.3.2 1.3-.5 2-.9 1.1-.9 1.6.3 2.3 1 .7 1.8.2 2.9-1.5.8-1.4 2-2.5 2.7-2.5.6 0 1.5-.9 1.8-2.1.4-1.3 1.3-1.9 2.3-1.7 1.4.4 1.7-.3 1.8-3.3.1-2.1 1.4-5.9 2.8-8.5 1.4-2.6 2.6-5.5 2.6-6.5s.9-2.1 2.1-2.4c3.3-1.1 5.9-4.3 5.9-7.3 0-3.1 4.5-8.2 7.2-8.2 2.1 0 3.2-1.6 1.7-2.6-.6-.3-1.5 0-2 .7-.6 1.1-1.2.9-2.9-.9-2.6-2.8-5-2.8-7.4-.1zM230.063 542.415c0 .9.5 1.6 1 1.6.6 0 1-.4 1-.9 0-.6-.4-1.3-1-1.6-.5-.3-1 .1-1 .9zM111.363 542.815c-3 .5-2.9 1.1 1.1 5 2.7 2.6 3.5 2.9 4 1.7.6-1.6-.8-6-2.1-6.7-.4-.2-1.8-.2-3 0zM38.163 574.815l-6.4.3 3.2 3c2 1.8 2.9 3.4 2.4 4.1-.7 1.3-.9 1.8-1.1 5-.2 2.3-1.9 2.3-6.3 0-2.9-1.5-3.8-1.6-4.7-.5-.7.7-1.8 1-2.5.7-1.6-.6-4.1 2.1-3.3 3.4.3.6-.1 1.5-.9 2.2-.8.7-1.5 1.9-1.5 2.6 0 .8-1.1 1.4-2.7 1.4-2.5 0-2.5.1-1 1.8 1 1 1.7 2.6 1.7 3.4 0 .9.7 2.1 1.5 2.8 1.3 1.1 1.8 1 2.8-.2.7-.9 2.9-2.1 5-2.8 2-.6 3.7-1.8 3.7-2.6 0-1.9.7-1.8 4.2.7l3 2.2-.4-2.9c-.3-2.5.1-2.9 2.4-3.2 1.6-.2 3.1.4 4 1.5.7 1 2.4 2.7 3.7 3.8l2.4 2-1.2-2.3c-1.2-2.2-1.1-2.3 1.1-1.7 3 .9 6.8 5.5 6.6 8-.3 4.1.4 5.1 5 8.1 2.6 1.7 6.3 4.1 8.2 5.4 3 1.9 3.6 2.9 3.7 6.1.1 2.2-.3 3.9-.8 3.9-.6 0-.9 1.5-.7 3.2.3 2.8.7 3.3 3.3 3.6 5 .5 5.9 1 4.6 2.6-.7.8-1.3 3.8-1.3 6.6-.1 3.7-.7 5.9-2.2 7.6-1.5 1.6-2.1 3.6-2.1 7.3v4.9l4 .7c2.2.3 5.8 1.8 8 3.3 3.9 2.6 6.9 2.9 9.1 1.1.6-.5 3.7-1 6.8-1.2 5-.2 6 .1 7.7 2.2 1.5 1.8 2.2 2.1 3.3 1.2 1-.9 1.6-.8 2.6.4.7.8 2.7 1.5 4.5 1.5 1.9 0 3.9.8 5 2 2 2.2 10 2.9 10.7.8.2-.6 1.9-1.1 3.7-1 2.4 0 4.1 1 6.2 3.3 2.8 3.2 3.1 3.7 3.3 6.9.1 1 1 1.4 2.6 1.2 3.1-.3 3.4-.7 2.1-3-.7-1.2-.7-2.2 0-2.9.6-.6.6-2-.1-3.9-.9-2.2-.8-3.1.3-3.9.7-.5 1.7-1.9 2.1-3 .7-1.9.8-1.9 2.7.4 1.1 1.4 1.7 3.1 1.4 4-1.4 3.5-1.7 8.1-.6 8.1.6 0 1.1.7 1.1 1.5 0 2.3 5.2 6.6 6.6 5.4 1.6-1.3 6.3-.1 8.9 2.1 1.1 1 4.1 2.1 6.8 2.5 2.6.4 5 1.2 5.3 1.7.3.5 1.7.2 3.1-.7 2.1-1.4 2.9-1.5 4.9-.5 1.3.7 2.1 1.7 1.8 2.1-.2.4.2 2.5 1.1 4.6 1.1 2.7 1.3 5.1.7 8.3-.6 3.8-1.2 4.7-3.9 6-2.5 1.2-3.3 2.1-3.3 4.2 0 1.6-.5 2.8-1 2.8-.6 0-1.6 1.1-2.2 2.5-.6 1.4-1.9 2.5-2.8 2.5-2.5 0-4.3 2.6-4.2 6 0 1.7-.5 3-1.1 3-.8 0-.7.4.2.9 1.2.8 1.2 1.2-.2 2.5-1.7 1.8-4.7 2.2-4.7.6 0-.5-.9-1.4-2.1-2-1.9-1.1-2-1-.7 1.4 1.3 2.5 6.3 6.3 12.1 9.2 4.5 2.2 12.7 7.8 12.7 8.6 0 .4-1.7.4-3.7.1-3.5-.6-7.2-3.5-7.3-5.8 0-1.4-10.3-4.9-12.1-4.3-.8.3-2.2.1-3.1-.4-1.3-.6-1.8-.5-1.8.6 0 .7 1.1 1.6 2.3 2 1.3.3 3.5 1.6 4.8 2.9 1.3 1.4 3.8 3.1 5.5 4 1.7.9 3.8 2.7 4.7 4.1.9 1.3 2.5 2.7 3.6 3.1 1 .3 2.5 2 3.2 3.7 1.1 2.7 1.4 2.9 2.4 1.4.8-1 1.9-1.4 3.1-1 1.8.7 1.8.6.1-1.2-1.4-1.6-1.9-1.6-2.6-.5-1.2 1.9-3.1.4-3.1-2.4 0-1.8.4-2.3 1.5-1.9 1.8.7 4.4-1.2 4.1-2.9-.1-.7-.7-2.2-1.4-3.4-1.7-3-1.5-4.2.7-4 1.1.1 1.7.7 1.4 1.7-.2.9.3 2.2 1.1 2.9 1.4 1.2 1.5 1 1-1.8-.5-2.3-.2-3.2 1-3.7.9-.3 1.6-1.5 1.6-2.7 0-1.1.6-2.8 1.4-3.6 2.3-2.7 2.8-6.8 1-8.5-.8-.9-1.2-1.6-.9-1.6.4 0-.4-1.7-1.6-3.7-2.1-3.4-2.1-3.6-.3-2.8 1 .5 4 .8 6.7.7 4.1-.2 4.7.1 4.7 1.8 0 1.5.9 2.2 3 2.7 3.6.7 4.6 1.9 3.1 3.7-1.2 1.4-.5 1.9 5.1 3.6 2.4.7 2.8.5 3.7-2.2.7-2.1 1.5-2.8 2.6-2.4.8.3 1.5.2 1.5-.2s.9-1.3 2.1-2c1.5-1 2.4-1 3.4-.2.9.8 1.5.8 2 .1 1.1-1.8 1.4-5.2.5-4.6-.5.3-1.8.1-2.9-.4-1.5-.9-1.8-.7-1.7.7.1 1.3-.6 1.6-2.5 1.4-1.7-.1-2.9.3-3.3 1.3-.9 2.5-4.6 0-4.6-3 0-1.8.5-2.5 2-2.5 2.2 0 2.6-1 .9-2.7-1.5-1.5-.1-3.7 1.4-2.5.7.5 2.8 1.3 4.7 1.7 1.9.4 4 1.5 4.6 2.4 1 1.2 3 1.6 9.3 1.6 4.5 0 8.1.3 8.1.8 0 .4 1.1 0 2.5-.9 2.8-1.9 3-1.8 3.9 1.2.5 1.6.2 2.3-1.4 2.7-1.9.5-2.5 2.5-2 7.2.3 2.9 2.9 5.5 7.3 7.2 4.1 1.7 4.4 2.4 2.2 4.6-1.3 1.3-1.2 1.8.5 3.9l1.9 2.3-.6-2.2c-.4-1.8 0-2.5 2.1-3.3 1.9-.7 2.6-1.7 2.6-3.5 0-2.8.3-2.9 2.9-1.6 2.5 1.4 4.9-.3 3.3-2.2-1-1.2-.7-1.7 1.8-2.7 1.7-.7 3.3-1 3.7-.7 1.4 1.4 4.3-1.5 4.3-4.3 0-4.5 1.6-4.2 13.1 2.4 1.9 1.1 4.6 1.9 6.2 1.8 3.2-.3 7.7 2.4 7.7 4.5 0 1.3.8 1.4 4.1.9 2.6-.4 4.6-.2 5.5.5 1.1.9 1.4.8 1.4-.5 0-.8 1.1-2.3 2.5-3.2 1.4-.9 2.5-2.3 2.5-3 0-.8.5-1.4 1-1.4 2 0 .9-3.1-1.5-4.2l-2.6-1.2 3.7-3.7c2.3-2.3 3.2-3.9 2.5-4.4-.6-.3-.9-1.1-.5-1.6.3-.5.9-.7 1.4-.4 1.6 1 1.9-2.5.2-3.7-2.1-1.6-4.2-5.3-4.2-7.3 0-.9-.7-1.8-1.5-2.2-2.1-.8-5.7-8-5.1-10.1.6-1.7-.6-4.4-1.8-4.3-1.9.2-3.6-1.4-4.1-4-.6-2.7-2.5-4.2-2.5-1.9 0 1.5-3.5 2.9-5.8 2.3-1.2-.3-2.2-1.2-2.2-1.9 0-1.1-.5-1-2 .3-1.3 1.1-2 3-2 5.3 0 4.1-1.3 6.5-2.9 5.6-.6-.4-1.1-.2-1.1.3 0 .6-.3 1-.7.9-.5-.1-2 .2-3.5.6-1.8.5-3.4.3-5.1-.9-2-1.3-2.6-1.3-3-.3-.4.8-.8.5-1.2-.9-.9-2.7-3-3.6-4.5-1.8-.9 1-.8 1.9 0 3.6 1 1.9.8 2.5-1.5 4.6-2.5 2.4-2.7 2.4-4.6.7-1-.9-1.9-1.2-1.9-.7 0 .6-1.4 1.6-3 2.3-2.3 1-2.8 1.6-2 2.5 1.6 1.9 3 7.6 2.2 8.9-.3.6-.7 1.5-.7 2.1 0 1-.8 1.5-2.4 1.5-.5 0-.7-1.5-.4-3.4.5-4.2-3.2-10.3-5.2-8.6-.8.7-2.2.5-4.1-.5-1.6-.8-3.8-1.5-5-1.5-1.1 0-2.4-.3-2.8-.7-.3-.4-1.3-.8-2-.9-3.4-.5-5.7-1.7-5.3-2.7.5-1.3 2.2-1.3 5.1-.1 1.4.5 1.7.4 1.2-.4-.4-.7-.2-1.2.4-1.2.6 0 .8-.5.5-1-.4-.6-1.1-.7-1.7-.4-.6.4-.8.2-.5-.3.4-.6 0-1.6-.7-2.2-1-.8-1.6-.9-2.1-.1-.3.5-1.3 1-2.1 1-1.5 0-1.9-4.6-.8-11.3.6-3.2 1-3.7 3.3-3.7 1.5 0 3.4-.9 4.4-2 1.4-1.7 2.5-2 5.5-1.5 4 .7 9.6 6 8.7 8.2-.3 1 .2 1.2 1.9.7 2.9-.7 4.3 1.1 1.9 2.5-1.4.8-1.6 1.2-.5 2.2 1.9 2 1.4 4.5-1 6.2-2.1 1.4-2.1 1.6-.4 1.6 1.8.1 1.9 1.1.1 5.5-.8 1.8-.7 1.8 1.3 0 1.2-1 2.2-2.5 2.2-3.3 0-.8.7-2.2 1.5-3.1 1.8-2 3.9-8.3 2.4-7.5-.5.4-.9-.5-.9-1.9 0-2.1.4-2.5 3.1-2.4 1.6.1 2.6.4 2.1.7-1.9 1.3-1.9 3.8 0 5 1.1.7 1.7.8 1.4.3-.3-.5.3-1.7 1.4-2.7 1.2-1 2-1.3 2-.7 0 .7.7 1.2 1.5 1.2 2.1 0 1.9-2.7-.6-6.1-1.4-1.9-1.6-2.9-.7-2.7 1.9.4 2.3-5.6.4-7.2-2.1-1.7-2-3.1.1-2.3 1.3.5 1.5.2 1.1-1.5-.5-1.8-.2-2.2 1.9-2.2 1.3 0 2.1-.4 1.8-1-.9-1.4.8-1.3 2.3.2.9.9 1.2.9 1.2-.2 0-.7.3-1 .7-.7.3.4 1.2-.5 1.9-1.9 1.1-2 1.1-2.9.1-4.5-1.4-2.2-2.9-2.4-5.6-.7-1.5.9-2.5.7-5.4-1.1l-3.6-2.2-.3 2.3c-.2 1.7-1.4 2.7-4.3 3.6-2.2.7-4.2 1.8-4.6 2.4-.4.7-1.8.8-3.5.3l-2.9-.7 2.6-1c2.5-.8 2.6-1.1 1.3-3.6-.7-1.5-2.2-3.7-3.4-4.9-1.1-1.2-2-2.7-2-3.3 0-.5-.8-1-1.9-1-1 0-2.6-1.1-3.5-2.5-1.4-2.2-1.4-2.5-.1-2.5 1.2 0 1.3-.4.3-2.5-1.6-3.5-4.8-4.3-6.6-1.6-2.1 3-5.7 2.8-5.7-.4 0-2.8.5-3.1 2.3-1.3 1.7 1.7 2.8 0 1.5-2.1-1.4-2.2-.8-3.1 2.2-3.1 1.1 0 2.6-.5 3.3-1.2.8-.8 1.5-.8 2.6.1.8.7 2.4 1 3.4.7 2.3-.8 5.5 2.4 4.7 4.6-.4 1.1.2 1.8 2.1 2.2 1.4.4 2.7.6 2.9.4.1-.2.6-2.6 1.2-5.4.8-4.4.7-5.4-.9-7.4s-6.1-5-7.4-5c-.2 0-.4.9-.4 2.1 0 1.5-.4 1.9-1.6 1.5-1.1-.4-1.5-.2-1.1.8.9 2.4-3.4 2.7-8.1.6-2.5-1.1-5.2-2-6.1-2-1.4-.1-1.4-.2-.1-1.3 1-.8 1.4-2.5 1.2-4.9-.3-3.9-.2-3.8-7.5-5.3-.9-.2-1.5.1-1.2.5 1.1 1.8-.8 6.2-3.1 7-1.7.7-2.4 1.7-2.4 3.6 0 1.4-1.2 4-2.6 5.7-2.5 2.9-2.5 3.1-.8 4.4 1 .7 2.4 1.1 3 .9.7-.3 1 .3.7 1.4-.3 1 0 2.1.6 2.4.6.4 1.1 1.2 1.1 1.7 0 .6-.4.8-.9.5-.5-.3-1.2.5-1.5 1.9-.4 1.4-1.3 2.5-2 2.5-.8 0-1.7 1.5-2 3.5-.4 1.9-1.2 3.5-1.8 3.5-.6 0-.3 1.1.6 2.5 2 3 2.1 4.1.2 2.6-2-1.6-4.3 2.3-2.7 4.3 1.4 1.6.4 4.6-1.5 4.6-.7 0-1.8.9-2.4 1.9-.5 1.1-1.7 2.6-2.5 3.5-1.9 1.8-.4 5.6 2.1 5.6 2.3 0 7.4 5.5 7.4 7.9 0 2.7-3.1 2.8-4.7.2-.9-1.4-2.8-2.1-7-2.5-8.3-.7-8.3-.7-8.3-3 0-1.2-.9-3.5-1.9-5.2-1.2-1.9-1.7-4.1-1.4-5.8.3-1.5 0-3.4-.9-4.4-3.1-3.7-4.7-8.9-3.9-12.4.7-3 .5-3.7-1.3-4.9-2.3-1.4-8.6-1.9-8.6-.6 0 .4-.9.3-2-.3s-2-1.7-2-2.5-.7-1.5-1.5-1.5c-2.9 0-1.7-5.7 2.1-9.9 2.9-3.3 3.9-3.9 5.8-3.1 3.7 1.4 5.6-.4 4.9-4.8-.3-2-1.2-4.7-1.9-5.9-1.8-2.9-1.8-4.9.1-5.7 1.1-.4 1.4-1.3.9-3.3-.6-2.5-.5-2.6.8-1.5 1.2.9 1.8 1 2.3.2.4-.7 1.5-1 2.5-.7 2.3.6 4.7-3.8 2.5-4.7-.7-.2-2 .5-2.8 1.7l-1.5 2.2-4-3.9c-3.4-3.2-4.5-3.7-6.7-3.2-1.5.4-3.2.3-3.8-.3-.7-.5-2.5-1.1-4.2-1.3-2.5-.2-3-.7-2.8-2.6.2-1.3-.1-2.1-.6-1.8-.5.4-1.2 0-1.5-.6-.3-.7-.3-.3 0 .9.4 1.8.1 2.3-1.5 2.3-1.2 0-2.1.4-2.1 1 0 .5-.7 1-1.5 1s-1.5.5-1.5 1.1c0 .5.5.7 1 .4.6-.3 1 0 1 .7 0 1.9-3.4 3.8-5.9 3.1-1.4-.3-2.1-.1-2.1.8 0 .8-1-.2-2.2-2.1-1.2-1.9-2.6-3.8-3.2-4.1-.5-.4-.6-1.4-.3-2.3 1.1-2.7-1.6-2-7.1 1.9-.2.2.7 2.1 1.9 4.4 2.5 4.8 1.7 7.7-2.6 9.7-2 1-2.5.9-2.7-.4-.2-1.3-1.8-1.7-7.3-1.8-3.9 0-7.6.4-8.3.9-1.8 1.5-9.2 1.8-11.6.5-2.1-1.1-10.6-1.7-10.6-.7 0 1.1-6.4 1.7-8.2.8-1.2-.7-2.1-.3-3.1 1.2-2 2.8-10 2.4-10.6-.6-.5-2.7-2.1-3.6-5.3-2.9-2.8.5-10.4-2.6-8-3.3 2.1-.8 1.3-3.2-1.5-5-4-2.5-14.3-13.5-13.7-14.5.8-1.2-4.5-9.9-5.9-9.7-4.4.5-6.8-.3-7.9-2.6-.6-1.4-1.7-2.5-2.4-2.5-.8 0-1.7-1.2-2.1-2.8-.8-2.6-1-2.7-7.2-2.4zm3.9 15c0 1.3-1.2 2.2-2.2 1.6-1-.6-.1-2.4 1.3-2.4.5 0 .9.4.9.8zm208.4 52.7c-.6 1.6-2.4 2.1-2.4.7 0-1.1 1.1-2.2 2.1-2.2.5 0 .6.7.3 1.5zm-78.4 7.5c0 .5-.7.7-1.5.4-.8-.4-1.5-.8-1.5-1 0-.2.7-.4 1.5-.4s1.5.4 1.5 1zm2 21c0 .5-.5 1-1.1 1-.5 0-.7-.5-.4-1 .3-.6.8-1 1.1-1 .2 0 .4.4.4 1zm19.9 19.9c1.2.8 1.2 1.2-.2 2.5-2.1 2.1-3.7 2-3.7-.2 0-3.1 1.4-3.9 3.9-2.3zm17.1 14.2c0 .5-.5.9-1 .9-1 0-3-4.1-3-5.8.1-1 4 3.9 4 4.9zm81 1.9c0 1.8-3 3-3 1.2 0-.4-.3-1.8-.7-3.1-.5-2.1-.4-2.2 1.6-1.2 1.1.7 2.1 2.1 2.1 3.1zm-4.4 6.4c.6 1.6-2 8.3-4.3 10.8-1.1 1.3-2 1.5-3.4.8-1.6-.9-1.4-1.4 2.1-4.8 3-2.9 3.8-4.3 3.3-6-.6-2.4 1.4-3.1 2.3-.8zm-66.6 7.6c0 .5-.2 1-.4 1-.3 0-.8-.5-1.1-1-.3-.6-.1-1 .4-1 .6 0 1.1.4 1.1 1zm-11 1c0 .5-.5 1-1.1 1-.5 0-.7-.5-.4-1 .3-.6.8-1 1.1-1 .2 0 .4.4.4 1zM234.263 577.715c-2 .8-.3 2.3 2.8 2.3 3.6 0 4.7-1.6 1.7-2.4-2.5-.6-2.7-.6-4.5.1z"/><path d="M228.063 579.515c0 .9-.6 1.2-1.5.9-.8-.4-2.1-.1-2.8.4-1.6 1.4-9.3 3.4-13.3 3.6-2.9.1-3.1.3-2.4 2.7.4 1.4.4 3.3-.1 4.2-1.4 2.5 0 6.5 2.4 6.9 1.2.2 2.4 1.5 3 3.3.6 1.6 2.1 3.8 3.4 4.8 1.2 1 2.3 2.5 2.3 3.3 0 .8.7 1.4 1.6 1.4.8 0 1.2.5.9 1-.4.6-1.1.7-1.7.4-1.3-.8-2.8 1.4-2.8 4.5 0 2 .2 2.1 1.5 1.1.8-.7 1.5-.9 1.5-.4s.5.1 1.1-.9c.8-1.3 1.8-1.7 3.5-1.3 1.4.4 2.4.2 2.4-.4 0-.6 1-.4 2.3.5 1.3.8 2.6 1.2 2.9.9.4-.3 1.5-.1 2.5.4s3 1.2 4.5 1.6c2.2.5 2.5.3 2.1-1.3-.2-1 .3-2.6 1.2-3.5 1.6-1.5 1.6-1.8 0-4.2-1.9-2.9-4.4-4.2-5.4-2.7-.8 1.4-4.3.8-5.6-1-.5-.7-1.8-1.6-2.7-2-2-.7-2.3-2.2-.8-3.2.6-.3 1-1.7 1-3 0-1.8.4-2.3 1.5-1.9.9.4 1.5 0 1.5-.9 0-1.1-1-1.4-4.1-1.1-5.2.5-7.9-.9-7.2-3.6.3-1.1 0-2-.6-2s-1.1-.9-1.1-1.9c0-1.8.3-1.9 3.1-.9 2.4.8 3.8.7 7-.7 2.6-1.2 3.8-2.3 3.4-3.3-.3-.7-.5-1.8-.5-2.3 0-.5-.9-.9-2-.9s-2 .7-2 1.5zM.363 594.615c.9 1.1 1.7 2.8 1.7 3.6 0 .9.7 1.8 1.5 2.2.8.3 1.5 1.2 1.5 2.1 0 .8.7 1.5 1.5 1.5 2.9 0 1.4-3.6-3.3-7.5-2.6-2.1-3.9-3-2.9-1.9zM165.663 605.415c.3.9 1.3 1.6 2.2 1.6.8 0 1.3-.1 1.1-.3-.2-.1-1.2-.9-2.2-1.6-1.5-1.2-1.7-1.2-1.1.3zM12.563 606.015c.4.6 1.1.8 1.6.5 1.4-.9 1.1-1.5-.7-1.5-.8 0-1.2.5-.9 1zM9.063 608.915c-.7 1.8-2.1 3.6-3.2 4.2-1.2.7-1.7 1.7-1.3 2.8.3 1-.1 3.4-1 5.4-1.8 4.4-1.8 4.7-.2 4.7 2.3 0 4.7-3.4 4.2-5.9-.3-1.7 0-2.1 1-1.7 1.8.7 2-1 .3-1.8-.9-.4-.8-.5.2-.5 3.4.2 5-.2 5-1.2 0-.6-.9-1.3-2-1.6-2.3-.6-2.7-2.3-.5-2.3 1.9 0 1.9-1.1.2-3.4-1.3-1.7-1.4-1.6-2.7 1.3z"/><path d="M215.563 608.915c-.3.6-1.2.8-2 .4-1-.3-1.5.2-1.5 1.6 0 1.2.2 2.1.5 2.1 1.2 0 5.5-2.4 5.5-3.1 0-1.3-1.8-2-2.5-1zM223.063 617.015c0 .5.5 1 1 1 .6 0 1-.5 1-1 0-.6-.4-1-1-1-.5 0-1 .4-1 1zM51.063 666.015c0 .6-.4.9-.8.6-1-.6-.9 13 .1 14 .3.4.4 1.7.1 2.9-.3 1.3.1 2.7 1 3.4 1 .8 1.4 2.2 1 3.6-.8 3.4 3.4 7.1 7.4 6.6.7-.1 2.9.7 4.8 1.8 1.9 1.2 4.6 2.1 5.9 2.1 1.4 0 2.9.9 3.5 2 .8 1.6.8 2-.4 2-.7 0-1.7.7-2 1.6-.9 2.5-.7 5.6.4 4.9.6-.3 1-.3 1.1.2.6 6.7 1.3 8.7 3.7 10.8 1.5 1.4 3.4 2.5 4.3 2.5.9 0 2.2.7 2.9 1.4.8 1.1 1.8 1.2 3.6.6 2.1-.8 3.3-.4 7.5 2.5 2.8 1.9 6.5 5.2 8.2 7.3 1.8 2.2 4.1 4.3 5.2 4.8 1.1.5 3 2.9 4.1 5.4 2.2 4.4 2.2 4.5.3 5.4-1.1.5-1.8 1.7-1.7 2.5.3 1.7 2.8 2.3 9.3 2.3 2.2 0 4.3.5 4.7 1.1.5.8 1.7.8 4.5 0 2.1-.6 6.6-1.4 10.1-1.8 7.7-.9 8.5-3 1.5-3.9-11.5-1.3-12.1-1.5-14.3-6.1-1.2-2.4-4.1-6-6.5-8-3.1-2.5-4.8-4.8-5.5-7.7-.6-2.2-2.4-5.2-3.9-6.7-2.6-2.4-6.7-11.8-5.6-12.9.2-.3-.4-1.7-1.5-3.2-1.1-1.6-2-3.2-2-3.7s-1.4-1.7-3-2.6c-1.7-1-3.7-3.3-4.6-5-3.2-6.7-3.9-7.7-6.4-8.7-7.5-3-14.2-8.9-14.5-12.9-.1-1.4-2.1-5.8-3.2-7-.2-.3-2.1 1.4-4.2 3.7l-3.8 4.1-4.6-2.1c-4.1-1.9-4.6-2.5-4.4-5.1.1-1.7-.4-3.2-1-3.4-.7-.3-1.3 0-1.3.7zm24.2 32.2c-.9.9-1.2.7-1.2-1.2s.3-2.1 1.2-1.2c.9.9.9 1.5 0 2.4zM317.063 688.715c0 .7.4 1.3.9 1.3s1.1-.6 1.4-1.3c.3-.8-.1-1.4-.9-1.4s-1.4.6-1.4 1.4zM166.863 727.215c.4 1.7.2 2-1.1 1.5-1-.4-1.7-.2-1.7.3 0 .6-.7 1-1.6 1-3 0-.7 2.4 2.5 2.6 2.9.2 3 0 1.4-1.2s-1.5-1.4 1.6-1.1c4.4.3 4.9-1.4 1.2-3.6-2.9-1.7-2.9-1.7-2.3.5zM167.563 736.015c-.3.5-.2 1 .4 1 .5 0 1.3-.5 1.6-1 .3-.6.2-1-.4-1-.5 0-1.3.4-1.6 1zM217.763 742.715c-.4.3-.2 1.2.4 2 .9 1 .5 1.3-2 1.3-1.7 0-3.1.4-3.1 1 0 .5.5 1 1 1 .6 0 1 1.2.9 2.7-.1 1.6.3 4.1 1 5.6 1.6 4 1.5 10.1-.2 9.4-1.6-.6-2 2.9-.7 5.3.7 1.3.4 2.2-1 3.5-1.4 1.2-2 1.4-2 .5 0-1-.3-1-1.5 0-2.2 1.9-1.8 2.7 1.7 3.4 1.7.3 4 1.4 5 2.3 1.7 1.5 2 1.5 4.8-.6 3-2.1 3-2.1 3-.1 0 1.3.7 2 2 2 1.1 0 2-.7 2-1.5s-.4-1.5-.9-1.5c-1.2 0-2.3-3.5-2.6-8.3-.2-2.3-1.1-4.7-2.4-6.1-2.5-2.6-2.7-3.6-.6-3.6.8 0 1.5-.9 1.5-2s.5-2 1-2c.7 0 .7-.6.2-1.8-.5-.9-1-3.6-.9-6 0-3-.6-4.7-1.9-5.7-2.1-1.6-3.7-1.9-4.7-.8zM230.063 744.415c0 .9.5 1.6 1 1.6.6 0 1-.4 1-.9 0-.6-.4-1.3-1-1.6-.5-.3-1 .1-1 .9zM147.863 750.715c.7.3 1.6.2 1.9-.1.4-.3-.2-.6-1.3-.5-1.1 0-1.4.3-.6.6zM152.663 751.515c.4.8 1 1.2 1.5.9 1.4-.8 1-2.4-.6-2.4-.9 0-1.2.6-.9 1.5zM162.863 751.715c.7.3 1.6.2 1.9-.1.4-.3-.2-.6-1.3-.5-1.1 0-1.4.3-.6.6zM160.063 754.015c0 .5.5 1 1 1 .6 0 1-.5 1-1 0-.6-.4-1-1-1-.5 0-1 .4-1 1zM271.063 762.915c0 1.6-.3 4.3-.6 6-.6 2.9-.8 3-2 1.4-.7-1-1.4-1.6-1.5-1.3-.7 3.3-.8 6.1-.2 5.7.4-.3.8 1.5.8 4.1 0 2.9.5 4.7 1.4 5 .9.3 1.1-.1.6-1.7-.5-1.5-.2-2.1.9-2.1.9 0 1.6-.6 1.6-1.3.1-.6 1-.1 2 1.2 1.5 1.8 2.6 2.2 4.6 1.7 2.6-.7 2.6-.7.8-2.8-1.8-1.9-3.9-8.4-5.1-15.6-.7-4.1-3.3-4.4-3.3-.3zM204.663 766.515c-.3.8-.1 1.5.4 1.5 1.3 0 2.2-1.8 1.1-2.4-.5-.3-1.1.1-1.5.9zM201.363 769.215c-.9 1.1-.8 1.6.8 2.6 2 1.3 2.2.9 1-2.1-.6-1.6-.9-1.7-1.8-.5zM198.063 773.515c0 .8.2 1.5.4 1.5s.6-.7 1-1.5c.3-.8.1-1.5-.4-1.5-.6 0-1 .7-1 1.5zM205.263 774.215c.5 1.5 2.8 1.8 2.9.3 0-.6-.7-1.2-1.7-1.3-1-.3-1.5.1-1.2 1zM190.563 775.115c-.4.6-1.4.8-2.4.4-.9-.3.2 1.3 2.5 3.7 4.8 5 6 7.7 4.2 9-.8.6-.2.7 1.7.3 3.1-.6 3.7-.7 9.2-.2 1.8.1 3.2-.2 3.2-.7 0-.5.5-1.2 1.3-1.7 1-.6 1-1.1 0-2.1-.6-.6-1.2-2-1.2-3s-.4-1.8-1-1.8c-1.7 0-1.1 3.8.7 4.8 1.4.9 1.4 1-.5 1.6-1.4.5-3 .1-4.6-1.1-2.6-1.9-3.4-4.3-1.5-4.3 1.3 0 .7-2.1-.6-2.2-.6 0-2.2-.9-3.7-1.9-2.9-2.1-6.3-2.5-7.3-.8zM285.163 788.015c1.3 2.5 2.5 3.8 3.1 3.2 1.3-1.3 0-3.8-2.8-5.7l-2.4-1.5 2.1 4zM259.063 786.915c0 1.3 2.7 2.1 4.5 1.5.8-.4 1.2-1 .9-1.5-.7-1.2-5.4-1.2-5.4 0zM188.063 792.515c-.7.9-.8 1.5-.2 1.5.5 0 1.2-.7 1.6-1.5.3-.8.4-1.5.2-1.5s-.9.7-1.6 1.5zM295.063 796.815c0 .5.9 1.2 2.1 1.5 1.3.3 1.9.1 1.6-.6-.5-1.5-3.7-2.2-3.7-.9z"/></g></svg>