<svg version="1" xmlns="http://www.w3.org/2000/svg" width="775.158" height="982.584" viewBox="0 0 581.369 736.938"><g fill="#222"><path d="M43 .176c-.5.4-1 1.3-1.1 1.9-.1.7-.2 2.3-.2 3.4-.2 1.9-.4 2-1.9.8-1.3-1.1-1.7-1.1-2-.1-.3.6-.9.9-1.4.6-.6-.3-1.6 0-2.4.6-.8.7-2.4 1-3.5.7-1.1-.3-2-.1-2 .5 0 .5-.4.6-1 .3s-.7.1-.4.9c.3.9.1 1.6-.5 1.6s-.8.6-.5 1.4c.3.9-.1 1.3-1.3 1.3-1-.1-1.7.4-1.5 1.1.1.7-1.4 2.9-3.4 4.8-2.6 2.7-3.9 3.3-4.7 2.5-1.6-1.6-3.5-1.3-3.9.6-.3 1.6-.4 1.6-2 0-.9-.9-2-1.7-2.3-1.7-1 0 .5 7.2 1.7 8.7.7.9.7 2.2-.2 4.3-.7 1.6-1 3.6-.6 4.5.3.8.1 1.5-.4 1.5-.6 0-1 1-1 2.3 0 1.3-.4 2.7-.9 3.3-.4.5-.2 2.9.5 5.4.6 2.5 1.2 3.9 1.3 3.1.1-.7.7-1.1 1.6-.7.8.3 1.5.2 1.5-.2s1.4-1.3 3.1-2.1c2.6-1.1 3.3-1.1 4.7.2.9.8 3 2.5 4.6 3.8 3.5 2.9 3.9 3.3 7.7 8.7 1.6 2.3 3.4 4 4 3.7.5-.4 2.8.9 4.9 2.9 3.7 3.3 7 4.7 7 2.8 0-.4-1.4-2.5-3-4.6-3.2-4.2-4.2-7.6-1.2-4 1.5 1.8 2 1.9 4 .9 2.6-1.4 1.4-2.9-1.3-1.9-1.5.6-1.6.4-.6-1.4.9-1.7.8-2.2-.7-2.6-.9-.3-2.9-2.6-4.5-5.1-1.5-2.6-3.1-4.4-3.6-4.1-.5.3-1.4-.1-2.1-.9-.7-.8-2.3-1.5-3.6-1.5-2.8 0-2.9-.9-.8-7.5 2.4-7.2 2.8-7.8 5.5-8.1 1.3-.1 3.9-.5 5.8-.8 2.2-.3 3.8 0 4.8.9 1.7 1.8 3.3 1.1 3.3-1.3.1-2.3 2.3-5.1 4.1-5 4 .3 5.9-.3 5.9-1.8 0-1.3.6-1.5 2.7-.9l2.8.7-3.3-3.1c-3.5-3.4-4.1-5.1-1.7-5.1.8 0 1.6-1 1.7-2.3.1-1.2.2-2.9.3-3.7 0-.8.4-2.1.8-2.8.5-.7.3-1.2-.3-1.2s-1.3.6-1.5 1.2c-.8 2.1-10.3 1.4-12.4-.9-1-1-1.6-2.3-1.4-2.9.5-1.5-2.1-4.5-3.2-3.6zM2.5 17.776c2.8 1.7 5 2.1 3.5.7-.6-.5-2.1-1.2-3.5-1.5l-2.5-.7 2.5 1.5z"/><path d="M61 19.376c.3.5.8 1 1.1 1 .2 0 .4-.5.4-1 0-.6-.5-1-1.1-1-.5 0-.7.4-.4 1zM62 26.376c.3.5 1 1 1.6 1 .5 0 .9-.5.9-1 0-.6-.7-1-1.6-1-.8 0-1.2.4-.9 1zM79.5 60.376c0 .7-1.2.9-3.4.5-3.7-.7-5.9 1-2.6 2 2.9.9 2.5 2.8-.4 2.3-2.5-.5-2.5-.5-1 2.4s1.5 3-3 7.3c-2.5 2.4-5.1 4.5-5.8 4.8-1 .4-1.1.7 0 1.8.6.7 1.2 2.3 1.2 3.5 0 2.2 1.4 3.8 3.5 3.9 4.4.4 10.7 6.9 10.1 10.5-.2 1.4.4 3.6 1.6 5.3 1.7 2.3 1.9 3.5 1.1 6-1.2 4.3 1.7 13.6 5.7 18.5 1.6 2 3 4.2 3 4.9 0 .7.8 1.3 1.8 1.3.9 0 3.7 1.6 6.1 3.5 4 3.2 4.5 3.4 5.6 1.8 1-1.3 1-2.3.3-3.8-2.1-3.8-6-8.4-7-8.2-2.1.4-1.9-2.2.3-4.2 1.3-1.2 1.7-2.1 1-2.1s-1-.4-.7-.9c.3-.4 1.7-.6 3.1-.3 2.4.4 2.5.2 2.7-4.4.3-8.5-.2-10.8-2.9-13.6-2.6-2.7-2.6-2.8-.5-2.8 3 0 3-4.5.1-6.9-1.5-1.2-2.2-3-2.4-5.9-.1-2.3-.8-4.9-1.6-5.8-.8-1-1.5-3.6-1.6-5.8-.5-10.2-1.7-12.6-6.3-12.6-1.5 0-3.9-.9-5.4-2.1-1.4-1.1-2.6-1.5-2.6-.9zM52 76.376c.3.5 1.7 1 3.1 1 1.4 0 2.2-.4 1.9-1-.3-.6-1.7-1-3.1-1-1.4 0-2.2.4-1.9 1zM105.6 144.276l-2.4.6 2.5 2.9c2.4 2.8 2.4 3 .6 4.8-1 1-2.1 1.8-2.6 1.8-.4 0-1.2 1-1.7 2.2-.6 1.3-2.1 2.8-3.5 3.5-1.3.7-2.9 1.8-3.5 2.6-1.9 2.6-5.4 2.7-7 .3-1.2-1.7-2.2-2.1-5-1.8-2.6.3-3.5.9-3.5 2.2 0 1-.9 2.1-2 2.5-1.6.5-1.8.9-.7 2.6.6 1 1.7 1.9 2.4 1.9.8 0 1.1 1.5 1 4-.1 4.5-.8 4.9-3.4 2.1-1.5-1.6-2-1.7-3.1-.5s-1 1.4.5 1.4c1.7.1 1.7.1 0 1.5-2.4 1.7-1.5 4.7 1.8 6.9 1.5 1 2.5 2.6 2.5 4 0 1.3.6 2.9 1.3 3.5 1.1.8 1.6.5 2.5-1.4.6-1.4 1.9-2.5 2.8-2.5 2.3 0 7.4 3.9 7.4 5.6 0 .8.9 1.4 1.9 1.4 2.5 0 6.1 4.5 6.1 7.6 0 2.5-1.5 3.2-2.4 1.1-.3-.9-.9-.7-1.9.5-1.5 1.9-5.3 2.4-5.9.9-.6-1.5-4.8-2.4-4.8-.9 0 2.1-3.2 3.6-6.8 3-3.2-.4-3.9-1.6-2.4-4 .5-.7 1.6-1 2.8-.6 1.5.6 1.7.4.7-.6-1.4-1.6-.6-4 1.4-4 1 0 1.3-.6.9-1.6-.3-.9-.6-1.7-.6-1.8 0-.1-1.4 0-3.1.2-1.7.3-3.4 0-3.8-.7-.4-.6-2.3-1.2-4.2-1.4-3-.3-3.4-.6-3.2-3 .1-2.1-.4-2.8-2.2-3.3-1.4-.3-2.4-.9-2.3-1.3.3-2.5-.3-3-2.1-1.5-8.1 6.9-8.9 9.2-4.6 12 1.7 1.1 2.5 2.5 2.5 4.5 0 5 1.8 7.3 7 9 4.7 1.5 5 1.4 5.6-.3.8-2.7 4.3-2.2 5.4.8 1.5 3.8 1.2 5.2-1 5.9-1.1.3-2 1.5-2 2.5 0 1.1-.7 2.3-1.6 2.8-1.8 1-1.9 2.6-.8 12.5.4 4.2 1.1 6.1 2.6 7.1l2 1.5-2.1 2.9c-1.1 1.7-2.1 4.2-2.1 5.5 0 1.5-.9 3.2-2.1 4.1-1.2.8-1.8 1.9-1.4 2.5.3.6-.1 1.1-.9 1.1s-1.8.9-2.1 2c-.4 1.2-1.1 1.7-1.8 1.3-.7-.4-.4.5.6 2 1.4 2.1 1.5 3.2.7 4.8-.7 1.2-1.8 1.8-2.6 1.5-2.1-.8-1.8 5.3.4 7 1.5 1.2 1.5 1.3-.9 1.4-1.4 0-2.8.2-3.1.5-1 1.1 2 7.8 4.3 9.5 2.1 1.7 2.2 1.9.5 3.5-1.6 1.7-1.6 1.9.4 4 1.2 1.3 3.4 2.8 4.9 3.5 3.2 1.3 6.6 7 5.7 9.6-.4 1.1-1.5 3-2.5 4.3-1.4 1.8-2 2.1-2.6 1.1-.5-.9-.4-1.1.3-.6.7.4 1.2.2 1.2-.5s-1-.9-3-.6c-2.3.5-3.3.1-4.7-1.7-1.1-1.3-2.9-2.7-4.1-3.1-1.3-.3-2.7-1.8-3.3-3.2-.8-2.1-1.1-2.2-2.3-1-.8.7-1.6 2.5-1.8 3.8-.3 2.1.6 2.8 6.9 5.9 6.8 3.3 9.7 6.5 7.3 8-1.3.8 3.8 7 5.6 7 1.5 0 1.6 1.1.5 8.7-.6 4.4-.4 6 1.5 10 1.3 2.7 2.3 6.3 2.3 8 .1 2.7.5 3.3 2.2 3.3 2 0 2.1.4 1.5 4.1-.7 4.1-4.1 9.9-6 9.9-.6 0-.4.6.4 1.3.8.7 2.4 2.8 3.4 4.8 1.2 2.3 3.1 4 5.2 4.8 3.1 1.1 9.6 8.1 7.5 8.1-.6 0-1.1.7-1.1 1.6 0 1.1-.6 1.4-2 .9-1.4-.4-2-.2-2 .8 0 .8-.7 1.7-1.5 2.1-.8.3-1.5.2-1.5-.3s-1.9-.7-4.2-.5c-3.3.3-4.7-.1-6.6-1.8-1.9-1.9-2.4-2-3.2-.8-.5.8-1 2-1 2.6 0 1.7-3.4 2.3-5.6 1.1-1.7-.9-1.7-.9-.5.6 2 2.4.6 4.7-2.8 4.7-3.3 0-5.1 2.8-2.3 3.6 5.1 1.6 6.7 3.3 7 7.3.3 3.5.1 4-1.4 3.4-1.4-.5-1.5-.3-.5 1.5 1.4 2.7 1.4 3.2-.4 3.2-1.6 0-3.1 4.2-2.1 5.8.3.6-.1 1.2-.9 1.6-2.4.9-1.7 2.1 1.7 3.1 3.8 1.2 4.7 3.1 1.9 4-2.8.9-2.6 2 1.1 6.9 4 5.1 4.7 5.6 7.9 5.6s8.5-3.8 7.1-5.2c-.6-.6-.5-1.9.4-3.6.8-1.5 1.4-4 1.4-5.6 0-2.2.4-2.7 1.6-2.2.9.4 2.8-.4 4.5-1.8 1.5-1.3 3.2-2.6 3.6-2.8 1.2-.5 6.3-8.2 6.3-9.5 0-.6.9-2.2 2-3.6 1.7-2.2 1.9-2.9.8-4.6-1-1.7-.9-2.3 1.4-4.4 2.3-2.2 2.9-2.3 4.6-1.1 1.1.7 3.6 1.4 5.6 1.6 2 .1 4.5 1 5.5 1.9 1.1 1 2.7 1.5 3.9 1.2 1.4-.3 2.2.1 2.7 1.6.3 1.1.4 2.5.1 3-.3.5 0 1.1.8 1.4 1.9.7 2.8-1.7 1.3-3.2-.9-1-.6-1.1 1.6-.5 2.1.5 3.6.1 5.8-1.5 1.6-1.2 3.4-1.9 3.9-1.6.6.3 2.2-.1 3.7-.9 1.6-.8 6.2-2 10.3-2.6 12.9-1.9 14.5-2.2 15.2-3.4.4-.7 2.5-1.8 4.8-2.6 2.2-.7 4-1.7 4-2.3 0-.5.7-.6 1.6-.3 2.1.8 4.4-1.1 4.4-3.5 0-2.2 1.3-2.5 2.9-.5.9 1 1.9 1.2 3.9.5 1.5-.5 4.4-1.1 6.4-1.4 2.1-.3 5.4-2 7.8-4 2.2-1.9 5.6-3.9 7.5-4.6 2.6-1 3.5-1.9 4-4.6.4-2.3 1.1-3.3 2.4-3.3 2.6 0 4.4-2.6 3.9-5.5-.4-1.7-.1-2.5.8-2.5.8 0 1.4-.7 1.4-1.5 0-2 1.9-1.9 2.6 0 .4.9-.3 2.4-1.6 3.5l-2.3 2h2.1c2.6 0 2.9 1.7.5 2.3-1.1.3-.7.5 1 .6 2.1.1 2.7-.4 2.7-1.9 0-1.3.5-1.8 1.5-1.4.8.4 1.5 1.4 1.5 2.4s.7 2 1.5 2.4c.8.3 1.5 1 1.5 1.5 0 .6-.6.8-1.4.5-2-.8-6 3.4-4.8 4.9 1.3 1.6.3 8.7-1.2 8.7-1.7 0-1.7 6.7 0 8.1 1.1.9 1.3 2.4.9 5.4-.4 2.7-.1 6.2 1.1 10.1 1.8 6.2 2 18 .3 20.1-.7.7-.6 1.4.1 1.8.6.4.9 1.2.8 1.9-.4 1.4 3.6 6.6 5 6.6.5 0 1.2 1.3 1.5 2.9.3 1.6 1.6 4.1 2.9 5.6 1.9 2.1 3.4 2.7 7.7 3 2.9.2 6.3 1.1 7.6 1.9 1.3.9 2.6 1.1 3.1.6 1.2-1.2 13.2-1.9 16.7-.9 2.2.6 2.7.4 2.8-.9 0-1 .3-1.2.5-.5.3.7 1.1 1.1 1.7.9.7-.1.9-.1.5.1-1.4.8-.8 3.2 2.2 9.9 1.6 3.5 2.5 6.2 2 5.9-1.3-.8 0 2.5 1.9 4.7.9 1 2.5 1.8 3.7 1.8 1.2 0 2.7.7 3.4 1.5 1.4 1.7 4 2 4 .6 0-.6 1.6-.3 3.5.4 3.1 1.4 3.5 1.3 4.3-.3.5-.9.7-2.3.4-3.1-.3-.8 0-1.1.6-.7.7.4.9 1.9.5 3.6-.3 1.9-.1 3 .6 3 2.2 0 4.8 3.7 4.8 6.9 0 1.8.6 3.7 1.4 4.2 1 .6 1.4 3.1 1.5 8.4.2 7.3 2 12.5 4.4 12.5.6 0 1 .8 1 1.9 0 3.3 3.9 7.1 7.3 7.2 1.8.1 4.3.4 5.7.8 2.3.7 2.4.8.6 1.8-2.6 1.4-1.6 8 1.6 10.6 1.5 1.2 1.9 2 1.1 2.3-.7.3-.9 1.2-.6 2 .3.8-.1 1.4-1.1 1.4-.9 0-1.6.8-1.6 2 0 1.3-.7 2-1.9 2-3 0-3.3 1.5-1 4.1l2.1 2.4-3.7.3c-2.7.2-3.5.7-3.1 1.8.3.8-.1 1.4-.9 1.4s-1.5.4-1.5 1c0 2.3-7.1.2-10-2.9-1.5-1.8-5.2-4.4-4.6-3.4.4.7.3 1.3-.2 1.3-1 0 .1 6.6 1.2 7.7.3.4-.1 1.7-.9 2.9-1.1 1.8-1.2 2.9-.4 5.1.8 2.2.7 3-.5 3.9-1.2.8-1.5 2.5-1.4 6 .3 4.5.1 4.9-2.2 5.2-1.4.2-2.9 1-3.3 1.8-1 1.7-6.3 1.9-7.3.2-1.1-1.8-2.5 3.1-1.5 5.1.6 1 .6 2.3 0 3.2-1.3 2.1-1.1 2.7 1.1 4.6 2.1 1.8 2.7 5.3 1 5.3-.5 0-1 .7-1 1.5s-.5 2.5-1.2 3.8l-1.8 3.6c-.3.8-1.7 2.1-3 3-1.8 1.2-2.2 1.2-1.6.2.6-.9.5-1.2-.5-.9-1.4.5-3.1 7.6-2.2 9.1.3.5 1.1.6 1.9.3 1.9-.7 6.7 1.2 5.9 2.3-.3.5.3 1.2 1.4 1.6 1.1.3 2.4 2 3 3.7.9 2.4 1.5 2.9 3.2 2.5 1.3-.4 2.9.2 4.2 1.4 1.2 1.1 2.3 1.6 2.5 1 .6-1.9 6.3 1.1 7.9 4.3 1 1.7 1.6 3.4 1.5 3.8-.1.5.5.8 1.3.8 1.7 0 2 3.1.4 4.7-1.3 1.3 1.4 4.3 3.9 4.3 4 .1 9.8 2.9 11.7 5.8 2 3 8.2 6.2 12 6.2 1.1 0 2.6.9 3.3 2 .7 1.1 1.8 1.7 2.7 1.4.8-.3 1.2-1.1.9-1.6-.4-.6-.1-.9.6-.6.7.2 2 1.8 2.9 3.4 1.5 2.7 1.8 2.9 3.3 1.5 2.1-2.2 4.7-16.3 3-16.9-1-.3-1-.7-.1-1.8s.8-2.2-.5-4.8c-2.3-4.8-2.1-5.8 1.9-9.6 1.9-1.9 3.5-4.3 3.5-5.4 0-3.5 1.7-5.3 3.7-4 1.1.7 2.7.8 4 .3 2-.7 2.1-1.1 1-3.8-1.3-3.6-.6-4.7 2.2-3.2 1.5.8 2.2.8 2.8-.2.4-.7 3.7-2.2 7.2-3.2 5.3-1.6 6.6-2.4 7.5-4.7 1-2.7 1.3-2.8 7-2.7 4 .2 6.1-.2 6.4-1 .3-.9 1-.7 2.4.5 1.6 1.5 2.1 1.6 2.8.4.7-1.1 1.6-1.1 5.4.4 2.5 1 4.8 2.2 5.1 2.7.3.5 1.4.3 2.5-.3 1.5-1 2.3-.9 4.1.7 2 1.8 2.2 1.8 1.6.2-.4-.9-.2-1.7.3-1.7.6 0 1 .6 1 1.4 0 1.3 1.9 2.6 4.9 3.2 2.2.4 6 4.5 5.5 5.9-.3.7.5 1.5 1.7 1.8 3.2.8 7.9-.3 7.9-1.9 0-1.7.5-1.7 3.1-.4 4.9 2.7 3.8-3-1.5-7.2-1.9-1.5-1.9-1.9-.6-3.2 1.4-1.4 1.8-1.4 4.4 0 1.9.9 3.2 1.1 3.6.5.7-1.3 4.4-1.9 4.8-.9.1.5.2 1.7.2 2.8 0 1.8-.3 1.9-2 1-1.7-.9-2-.8-2 .9 0 3.8.9 4.8 4.2 4.3 2.8-.4 3-.6 1.4-1.7-1.6-1.2-1.4-1.5 1.4-3.5 3.1-2.2 3.1-2.3 1.2-4-2.4-2.3-5.1-2.7-7.7-1.4-1.1.6-2.6.9-3.2.8-.7-.1-2-.2-2.8-.3-1.2-.1-1.3-.5-.5-2 1.6-3 1.3-6.1-.5-5.5-.8.4-1.5.1-1.5-.5s-.7-1.1-1.5-1.1-1.5-.7-1.5-1.6c0-.9-.5-1.2-1.2-.8-.7.4.2-.9 2-2.7 2.3-2.6 2.9-3.8 2.1-4.6-1.2-1.2.9-3.7 4.7-5.9 1-.6 2.3-2 2.9-3.2.5-1.2 1.3-2.2 1.7-2.2.3 0 0-1.3-.8-3-.9-1.6-1.4-3.9-1.2-5 .3-1.9.5-1.9 3.3.7 2.4 2.3 2.6 2.8 1.2 3.1-1.5.3-1.6.6-.2 2.5.8 1.2 1.5 3.2 1.5 4.5 0 1.3.4 2 1 1.7 1.5-1 7 3.4 7 5.6 0 1 .4 1.9.9 1.9 2.1 0 4.1-1.3 4.1-2.6 0-.8.6-1.7 1.4-2 .8-.3 1.1-1.5.8-3.2-.3-1.5-.1-2.4.3-2 .9.9 3.5-3.6 3.5-5.9 0-.9.6-1.3 1.5-.9 1.8.7 2-1.5.3-3.2-.9-.9-.4-1.2 2.5-1.2 3.3 0 3.7-.3 3.7-2.5 0-1.8.5-2.5 1.9-2.5 2.8 0 5.3-3.8 4-6.2-.5-1-1.4-1.8-1.8-1.8-1.1 0-12.1-11.1-12.1-12.2 0-.4-1.3-.8-2.9-.8-6.3 0-3.7-8 3-9 3.1-.5 3.4-.8 3.2-3.7-.3-3-.2-3.1 3.3-2.9 1.9.2 4 .8 4.6 1.4.6.6 1.7.8 2.5.5.7-.3 2.1.1 3.1 1 2.5 2.2 10.3 5.9 11 5.3.3-.3 0-.6-.6-.6-.7 0-1.2-.7-1.2-1.5 0-1.5-6.8-5.5-9.4-5.5-.8 0-1.9-.8-2.4-1.7-.6-1-2.2-1.6-4.3-1.6-1.9 0-4-.4-4.7-1-.7-.6-4.3-.7-9.1-.3-7.3.7-8 .6-10.7-1.7-3.5-2.9-8.7-4.8-10.4-3.7-.7.4-2.1.5-3.1.3-1.4-.4-1.9 0-1.9 1.7 0 1.6.4 2 1.9 1.5 2-.6 5.4 2.8 6.7 6.8 1 3.3 6.5 8 7.8 6.7 1.4-1.4 2.6-1.2 2.6.5 0 .8.8 1.5 1.7 1.5 1.3 0 1.4.3.5 1.2-.8.8-1.5.8-2.5-.1-1.1-.9-1.7-.8-2.7.4-.7.8-1.9 1.5-2.7 1.5-.9 0-1.3.9-1.1 2.7.3 2.4-.1 2.8-2.2 2.9-1.4.1-2.9.2-3.5.4-.5.1-1.4.2-2 .1-.5-.1-.2.5.8 1.2.9.8 1.7 2.4 1.7 3.6 0 2.5-2.4 3.8-4.3 2.3-.6-.6-3.5-.8-6.3-.6-4.1.3-5.4 0-6.9-1.6-1.1-1.2-3.1-2-5.2-2-3.2 0-4.4-1.2-2.3-2.5.5-.3.6-1.3.3-2.2-.4-1-.2-1.4.5-.9.6.3 1.3.2 1.7-.4.3-.5.1-1.1-.4-1.1-.6-.1-1.7-.2-2.3-.3-.7-.1-1.6.3-2 .8-.4.6-1 .2-1.4-.9-1-2.8-4.5-6.5-6.1-6.5-2 0-1.6-1.6.5-1.7 4.3-.2 11.7-2.2 12-3.3.3-.7 1-.6 2.2.5 4.1 3.7 4.7-.8.7-5.2-1.1-1.3-1.7-2.6-1.4-2.9.4-.4-2.1-2.7-5.6-5.1-3.5-2.5-6.2-5.2-6.3-6.2-.2-2.5-1.3-4.3-2.4-3.6-1.1.7-3.2-3-2.3-3.8.3-.4 0-1.3-.7-2.2-1-1.2-1-1.5.3-1.5.9 0 2.1-.9 2.7-2 .7-1.4.7-2 0-2-.5 0-1 .5-1 1 0 .7-.8.6-2.2-.2-1.3-.7-2.7-1.1-3.2-1-1.2.4.3-5.1 1.6-5.9.6-.4.8-1.4.5-2.2-.3-.9.3-2.5 1.4-3.8 1-1.2 1.9-3.6 1.9-5.2 0-3.5 2.3-5.6 5.6-4.9 2.3.4 3.6 4.2 1.5 4.2-1.6 0 .9 5.9 2.9 7 3.3 1.8 4 1.1 4-4 0-4.2.3-5 1.9-5 2.1 0 3.6-4 2.6-7.1-.7-2.1-3-2.5-4.1-.8-.4.8-.9.7-1.5-.2-1.4-2.2-1.1-2.9 1.2-2.9 1.2 0 1.9-.5 1.6-1.3-.2-.6-1.3-1.1-2.5-1-2.1.3-10-6.5-13.5-11.5-1.6-2.4-1.8-2.4-1.2-.5.6 2 .3 2.3-2.4 2.3-1.6 0-3.3.5-3.7 1.1-.3.6-1.6.8-2.7.5-1.2-.3-2.7 0-3.3.5-.9.7-1.9.7-3.1.1-1.2-.7-2.6-.6-4.7.5-4.3 2.2-7.4.6-6.8-3.6.4-2.6.1-3.1-1.7-3.1-1.3 0-2.3-.8-2.7-2.4-.3-1.3-1.9-3.6-3.5-5-3.1-2.8-3.9-5.2-1.4-4.2 1.1.4 1.5-.2 1.5-2.2 0-1.5.3-3.7.6-4.9.5-1.8-.1-2.5-3.3-4.1l-3.9-2-2.2 2.5c-1.2 1.3-2.2 2.1-2.2 1.6 0-.4-.5-.1-1 .7-1.1 1.7-3 2-4.7.7-.7-.5-1.3-.6-1.3-.2 0 .5-.8.1-1.7-.7-1-.8-3.1-1.8-4.6-2.2-1.6-.4-3.8-1.6-5-2.6-1.1-1.1-2.7-2-3.4-2-.8 0-1.3-1.4-1.3-4 0-2.7-.5-4.2-1.8-4.9-2-1-7-.4-9 1.2-1 .8-1.6.7-2.3-.6-.7-1.1-2.3-1.7-4.8-1.7-4.9 0-10-3.6-7.7-5.4 2-1.4 1-5.3-1.5-5.9-1-.3-2.7-1.9-3.6-3.6-1-1.6-2.7-3.2-3.8-3.3-1.1-.2-2-1.1-2-2 0-.9-.3-2-.7-2.3-.4-.4-.4-1.3-.2-2 .3-.7.1-1.6-.5-2-.6-.3-1.1-1.5-1.1-2.6s-2.8-5.2-6.2-9c-3.5-3.8-7.1-8.4-8-10.1-1.1-1.9-3.8-4.2-7.3-6-6.3-3.2-11.7-8.5-11.1-11 .2-1-.1-1.5-.9-1.1-1.7.6-3.6-2.8-3.2-5.8.1-1.7-.5-2.4-2.3-3-1.8-.5-2-.7-.6-.8 1.2-.1 1.6-.6 1.2-1.7-.4-.9-.1-2.3.5-3.1.9-1 .9-2 .1-3.8-.8-1.6-.8-2.6-.1-3.1.6-.4.7-1 0-1.8-.5-.6-1.2-3-1.4-5.4-.6-4.5-.9-4.3 5.3-2.8.7.1 1-1 1-3.4 0-1.5-.7-2-2.6-2-2 0-2.4.4-2 1.8.8 2.4-3.4 2.5-5.2 0-.7-1-2-1.8-2.8-1.8-2.3 0-1.7-3.7.8-4.3 1.5-.4 1.9-1 1.2-1.9-1.8-2.4-.9-4.3 2.4-5.3 3.5-1 4.2-2.9 1.5-4-1.7-.6-1.7-.7-.1-1.9 1.8-1.3 2.6-7.7 1.4-11.4-.5-1.4-1.8-2.5-3.6-2.8-3-.6-4.4-4.1-3.3-8.2.4-1.8.9-2 2.4-1.1 1 .5 1.9.7 1.9.3 0-.3.7 0 1.7.7 1.5 1.3 1.6 1 .9-3-.4-2.9-1.5-5-3.1-6.3-2-1.5-2.3-2.3-1.5-4.2.6-1.7.5-2.9-.5-4.2-1.9-2.5-1.8-3.2.4-3.9 2.8-.9 3.1-2.7 1.5-8.1-1.8-6.2-1.8-15.4.1-18.1 1.3-1.8 1.2-2.2-.5-3.8-1.1-1-2-2.8-2-4 0-3-2.7-8.2-5.1-9.9-1.6-1.1-1.8-1.8-.9-4.1s.6-3.1-1.5-5.7c-1.8-2.2-2.5-2.5-2.5-1.3s-.5 1.5-1.7 1c-1-.4-2.6-.7-3.5-.7-1.9.1-5.8-4.2-5.8-6.3 0-.7-1.6-2.2-3.5-3.4-2.5-1.4-3.5-2.7-3.5-4.5 0-2.9-1.5-3.6-5.4-2.5-3 .9-5 .3-4.1-1.1 1-1.6-4-4-8.5-4-2.5 0-7.2-1.1-10.5-2.5-3.3-1.3-7-2.5-8.2-2.5-1.2 0-4.4-1.4-7-3-4.2-2.7-5.3-3-10.6-2.5-5.6.5-6 .4-9.2-2.8-3-3-3.4-3.1-4.4-1.5-.6 1-2 1.8-3.1 1.8s-2 .4-2 1-.9.6-2.6-.1c-1.5-.5-2.9-.7-3.2-.4-.3.2-1 .1-1.6-.4-1.5-1.3-5.8-1.7-7.3-.8-.8.5-1.3.4-1.3-.2 0-.6-.7-1.1-1.7-1.1-.9 0-3-1.1-4.8-2.4-2-1.5-3.6-2.1-4.5-1.6-.8.5-2.5.1-4.3-1.1-2-1.1-3.5-1.5-4.2-.9-1.6 1.3-5.5 0-5.5-1.9 0-1-2.4-2.6-6.8-4.5-3.7-1.6-8-3.9-9.5-5.2-1.6-1.3-3.2-2.4-3.5-2.3-.4.1-1.8.4-3.1.8zm18.5 68c1-.8 1.4-.5 1.8 1.3.3 1.2.8 3.6 1.1 5.3.3 1.6.7 5 .9 7.5.2 2.5.6 5.2 1 6 .4 1.1-.4 2.1-2.8 3.4-3.1 1.7-3.6 1.7-6.5.2-3.1-1.6-3.1-1.7-1.6-4.6 1.8-3.5 1.9-4 .3-4-.7 0-3-1.7-5-3.8-2.8-2.8-3.6-4.3-3.1-6 .3-1.2 1.1-2.2 1.7-2.2.6 0 2.9-.9 5.1-2 2.5-1.3 4.3-1.6 4.9-1 .6.6 1.4.6 2.2-.1zm13.7 52.7c.4.7 1.4 1.1 2.1.8.7-.3 1.6.2 2 1.2.5 1.4.1 1.5-2.8 1-1.8-.4-4.6-.2-6.1.4-2.2.8-3.2.8-4.3-.4-1.2-1.2-1.2-1.4-.1-1.4 3.7.2 4.9-.3 4.9-2.2 0-1.4.5-1.8 1.8-1.3.9.4 2 1.2 2.5 1.9zm59.7 39.3c0 1.5-1.9 2.3-3.8 1.6-1.4-.5-1.4-.7-.2-1.5 1.9-1.2 4-1.3 4-.1zm28.4 9.7c.8.3 2 2 2.6 3.8 1.2 3.7 5.9 7.6 9.6 8 1.4.2 3 .8 3.6 1.4 1.4 1.4 5.8 1.5 9.2.2 3-1.1 4.2.2 3.7 4.2-.2 1.9.3 2.8 1.7 3.2 3.2 1.1 3.4 3.5.5 6.2-2.8 2.6-2.7 2.6-6.3 2.9-1.4.1-3.3.6-4.2 1-1.4.5-1.8.2-1.8-1.3 0-2.4-2.7-3.7-4.6-2.1-1.1.9-1.8.8-2.9-.1-2-1.7-1.9-3.1.3-2.3 1.2.5.9-.2-1.1-2.6-1.5-1.8-2.5-3.7-2.1-4.2.3-.5-.6-.9-2-.9s-2.6.5-2.6 1.2c0 .6-.8.3-2-.7-1.1-1-1.7-2.2-1.4-2.6.3-.5-.6-1.3-1.9-1.8-1.4-.6-2.8-1.5-3.3-2.2-.5-.8-.3-1 .7-.4 1.2.7 1.1.6 0-.9-1.1-1.3-2.3-1.6-4.5-1.2-2.2.4-2.7.3-1.6-.4 1.2-.8 1.1-1.3-.8-3.9-2.7-3.6-2.7-4-.4-3.6 7 1.4 8.2 1.4 8.2 0 0-1.6.9-1.8 3.4-.9zm-64.7 10.4c.1 1.1-.2 2.2-.7 2.5-.4.3-.3 1.8.3 3.4.9 2.4.8 3.2-.6 4.6-.9.9-1.7 2.3-1.7 3.1 0 .8-.4 1.3-.9.9-.5-.3-1.3 0-1.6.6-.4.5-1.2.8-1.9.6-.7-.3-2.2.6-3.5 1.9-1.4 1.5-3.6 2.4-6.3 2.6-3.8.3-4.5.8-6.5 4.6-.1.2-1.1.1-2.2-.3-2.9-.9-2.9-6.4.1-8.9 2.1-1.8 2.2-1.8 3.5 0 1.4 1.8 1.4 1.7 1.1-1.1-.2-2.5.1-3 1.9-3 2.1 0 7.3-3.8 7.3-5.3 0-.5 1-.8 2.3-.8 1.7.1 2.2-.4 2.1-2.2-.1-2.1.7-2.6 3.5-2.2.9.1 1.2-.4.8-1.4-.4-1.1-.1-1.6 1.1-1.6 1.1 0 1.8.8 1.9 2zm68.7 47.5c.3.8.1 1.5-.4 1.5-.6 0-1-.7-1-1.5s.2-1.5.4-1.5.6.7 1 1.5zm-72.6 14.5c1 1.6 1 2-.2 2-.7 0-1.6-.9-1.9-2-.3-1.1-.2-2 .2-2 .3 0 1.2.9 1.9 2zm273.2 168.9c-.1 1.4-.3 1.3-1.4-.1-.7-1-1.6-1.5-1.9-1.1-.4.3-.7.1-.7-.5 0-.7.5-1.2 1.1-1.2.5 0 .7-.6.4-1.3-.4-.6.1-.3.9.7.9 1.1 1.6 2.7 1.6 3.5zm17 8c0 1.5-2.9 3.3-4.1 2.5-.9-.5-.7-1.1.6-2.1 2.2-1.5 3.5-1.7 3.5-.4zm-18 52.1c0 .5-.4 1-1 1-.5 0-1-.5-1-1 0-.6.5-1 1-1 .6 0 1 .4 1 1zM52.9 170.976c-.9.4-.8 1.3.3 3.4 1.7 3.5 3.8 4 2.9.7-.3-1.2-.6-2.8-.6-3.5 0-1.2-.7-1.4-2.6-.6z"/><path d="M65.1 178.476c.3.5-.9.9-2.7.9-2.4 0-3 .3-2.2 1.1.7.7 2 .8 3.4.3 1.3-.4 3.2-.7 4.3-.5 2.4.3 1.2-1.5-1.4-2.2-1.1-.3-1.8-.1-1.4.4zM30 193.376c.3.5.8 1 1.1 1 .2 0 .4-.5.4-1 0-.6-.5-1-1.1-1-.5 0-.7.4-.4 1zM50.1 194.776c2.1 1.5 3 1.4 1.9-.3-.3-.6-1.4-1.1-2.3-1.1-1.3 0-1.3.2.4 1.4zM23.9 197.776c-.2 2.2-.1 2.3 1.5.7 1.1-1 1.3-1.9.7-2.3-1.7-1.2-2.1-.9-2.2 1.6zM45.1 196.276c-.4.5-.2 1.2.3 1.5.5.4 1.2.2 1.5-.3.4-.5.2-1.2-.3-1.5-.5-.4-1.2-.2-1.5.3zM36.5 201.876c0 .8.7 1.8 1.5 2.1.8.3 1.7 1.5 2 2.5 1.1 3.3 3.5.5 2.6-2.9-.5-2-1.5-2.8-3.4-3-1.9-.2-2.7.1-2.7 1.3zM45.7 201.076c-1.2.2-2 .9-1.7 1.4.9 1.4 3.2 1.1 3.9-.6.3-.8.4-1.4.3-1.4-.1.1-1.2.4-2.5.6zM33 202.376c.3.5.8 1 1.1 1 .2 0 .4-.5.4-1 0-.6-.5-1-1.1-1-.5 0-.7.4-.4 1zM68.7 376.576c.2.5.6.8.8.7.3-.1 1.6.4 3 1.1 2.2 1.2 2.4 1.2 1.2-.2-1.5-1.8-5.5-3.1-5-1.6zM74 385.376c-.9 1.4.4 5.2 1.6 4.5.5-.4.9-.1.9.4 0 .6.9.3 1.9-.6 1.9-1.6 1.9-1.7-.4-3.5-2.7-2.1-3.1-2.2-4-.8zM73.5 392.776c0 .9.5 1.6 1 1.6.6 0 1-.4 1-.9 0-.6-.4-1.3-1-1.6-.5-.3-1 .1-1 .9zM454.8 454.876c-1.3.5-2.3 1.7-2.4 2.5 0 .8-2.7 3.7-5.9 6.5-3.2 2.7-5.9 5.3-5.9 5.7-.1.5 1 .8 2.4.8 2 0 2.5-.5 2.5-2.5 0-3 1.1-3.2 3.6-.4 1.5 1.6 1.6 2.2.5 2.8-2.1 1.3-.3 3.1 3 3.1 2.8 0 2.9-.1 2.8-4.8-.1-2.6-.6-5.2-1.1-5.9-.6-.8-.2-1.6 1.4-2.4 4.1-2.2 4.8-3.4 3-5-1.3-1-2.3-1.1-3.9-.4zM433.1 496.276c-.8 1.3.4 17.4 1.5 18.7.5.6.6 1.3.3 1.7-.3.3.4 1.1 1.6 1.7 1.5.8 2 1.8 1.7 3.2-.4 1.5-.2 1.8 1.1 1.3.9-.4 3.4-.9 5.5-1.2 2.9-.4 3.9-1.1 4.3-3 .7-2.8 2-2 2.6 1.7l.4 2.5.8-2.8c.5-1.7.3-3.9-.5-5.9-1.5-3.8-10.2-12.8-12.3-12.8-.9 0-2.2-1.4-3.1-3-1.6-3-2.9-3.8-3.9-2.1zM447.2 540.876c1.7 1.4 3.4 3.9 3.8 5.5.6 2.5 3 5 4.9 5 .2 0 .7-1.4 1.1-3.1.6-2.6 1.1-3 3.1-2.6 1.3.2 2.4.1 2.4-.2-.1-2.7-7.4-6.4-11.1-5.6-1.5.4-3 .1-3.4-.4-.3-.6-1.4-1.1-2.3-1.1-1.2 0-.8.8 1.5 2.5zM535.5 539.676c0 2-3.1 3.8-5.6 3.1-1-.3-4.3-.1-7.3.3l-5.4.8 2.6 3c5 6 6.9 11 6.2 16-.7 4.4-.6 4.7 3.4 8.5 3.3 3.1 4.1 4.6 4.1 7.4 0 1.9.5 3.6 1.1 3.8.6.2.1 1.5-1.1 3.1l-2.1 2.7 2.1 3c1.2 1.6 3.2 3.3 4.6 3.6 2.1.5 2.3.9 1.2 2.2-3.8 4.5 3.9 12.9 9 9.8.6-.4 1.6-.4 2.2-.1.5.3 1.8.2 2.7-.3 1.3-.8 2.5-.4 5 1.5 3.6 2.8 5.6 2.4 3.1-.4-1.4-1.6-1.4-2-.2-3.1s1.8-1.1 2.9-.2c.8.6 2.3.9 3.5.5 1.7-.5 2.3 0 3.2 2.7.7 1.8 1.1 3.6 1 4-.5 1.9 1.9.6 3.5-1.8 1.3-2.1 1.4-3 .5-4.5-.7-1-1.2-2.6-1.2-3.4 0-2.3-3-6.5-4.7-6.5-.8 0-1.3-.8-1.1-1.8.2-1.1-.3-2.6-.9-3.4-1-1.1-1-2.1 0-4.7 1.5-4 0-6.7-3.4-6.3-2.3.3-2.3.2-.4-1.3 1.1-.9 1.5-1.4.8-1.1-1.4.8-2.7-1-1.8-2.4.5-.8 1.1-.7 2.1.1 1.9 1.5 2.4.9 1.3-1.6-.4-1.1-.8-1.5-.8-.8-.1.8-.8 1-2.2.5-2.4-.9-5.1-7.6-4.3-10.8.3-1.2-.1-2.6-1-3.3-.9-.8-1.6-2-1.6-2.7 0-.8-.9-1.4-2.1-1.4-1.9 0-5.8-3.5-5.9-5.2 0-1.4-4.6-5.5-6.8-6.2-1.2-.4-3.2-1.7-4.2-2.9-1.7-1.7-2-1.8-2-.4zM514.3 544.076c.7.3 1.6.2 1.9-.1.4-.3-.2-.6-1.3-.5-1.1 0-1.4.3-.6.6zM262.3 593.876c-.8.8.3 5.5 1.3 5.5.5 0 .9.9.9 1.9 0 1.3.8 2.1 2.3 2.3 1.6.2 2.2 1 2.2 2.8 0 2.7 2.5 4.3 5 3.4.8-.4 1.5-1.5 1.5-2.5 0-1.6.6-1.8 4.1-1.4 2.3.3 4.6.8 5 1.1.5.3.6-.3.2-1.2-.5-1.2-.3-1.5.6-.9.7.4-.4-1.1-2.6-3.3-3.7-4-3.9-4.1-5.4-2.2-1.2 1.4-2.8 1.8-6.2 1.7-2.5 0-4.4-.4-4.1-.9.2-.4-.5-1.2-1.7-1.8-1.4-.8-1.9-1.8-1.6-3.1.5-1.8-.3-2.5-1.5-1.4zM471.6 599.776c-.8 1-.8 1.6.3 2.5 1.1 1 1.4.7 1.2-1.4-.1-2.9 0-2.9-1.5-1.1zM473.1 605.976c-.4 1-1.3 1.3-2.6.9-2.2-.7-2.5.1-1 2.5.8 1.3 1.3 1.1 3.5-1.2 1.3-1.5 2.1-2.9 1.6-3.2-.5-.3-1.2.1-1.5 1zM570 621.376c-.3.5-.1 1 .4 1 .6 0 1.1-.5 1.1-1 0-.6-.2-1-.4-1-.3 0-.8.4-1.1 1zM572.6 624.376c0 .8 1.5 2.5 3.4 3.7 3.4 2.1 3.5 2.1 4.5.3 1.5-2.8 1.3-2.9-2.5-2.5-2.5.4-3.7 0-4.4-1.3-.8-1.3-1-1.4-1-.2zM352.1 681.976c.1 1.5.7 3.1 1.3 3.7.6.6 1.1 1.9 1.1 2.9 0 2 .8 2.2 2.8.9 1-.6 1-1-.3-2.1-.8-.7-1.5-2-1.5-3 0-.9-.8-2.5-1.9-3.4-1.7-1.6-1.8-1.5-1.5 1zM356.8 694.076c0 .7 1.3 1.5 2.9 1.8 1.9.5 2.8 1.3 2.8 2.6 0 1.2 1.4 2.6 3.9 3.9 2.4 1.2 4.8 3.5 6.2 5.9 2.1 3.8 2.4 3.9 9.9 5.2 6.6 1 8 1.6 8.9 3.6.6 1.2 1.8 2.3 2.7 2.3 3 0 7.4 3.3 7.4 5.6 0 1.7.9 2.5 3.5 3.4 4.2 1.4 7.6 5.7 5.6 7-.9.5-1 1-.3 1.4.6.3 1.4.1 1.8-.5.3-.6 2-1.7 3.6-2.3 2.5-1.1 2.8-1.5 1.6-2.7-.8-.8-1.7-2.2-2.1-3.2-.3-.9-1.3-1.7-2.1-1.7-.9 0-2.2-1-3.1-2.3-.8-1.3-3.2-2.9-5.2-3.6-5.4-1.8-10.3-4.4-10.3-5.5 0-.5-2.1-3.3-4.6-6.3-3.9-4.5-5.1-5.3-7-4.9-1.5.4-2.4.2-2.4-.5s-1.2-.9-3.4-.5c-2.9.6-3.6.3-4.1-1.3-.3-1.1-1.9-2.2-3.5-2.6-1.6-.3-3.5-1.7-4.4-2.9-1.7-2.6-8.3-4.1-8.3-1.9z"/></g></svg>