<svg version="1" xmlns="http://www.w3.org/2000/svg" width="1166.559" height="1222.264" viewBox="0 0 874.919 916.698"><g fill="#222"><path d="M557.208 3.014c-.6 2-.9 3.9-.7 4.2.3.2.5-.1.5-.8 0-.7.4-1 .9-.6.6.3 1.5-.4 2.1-1.6.9-1.7.9-2.4-.2-3.6-1.2-1.2-1.6-.9-2.6 2.4zM530.808 8.814c-2.9 1.6-3.5 2.9-1.8 4 .6.4.8 1.5.5 2.6-.5 1.4.3 2.8 2.5 4.9 2.1 1.9 3 3.6 2.6 4.6-.3.9-.6 2.2-.6 3 0 .8-.8 1.4-1.8 1.4-.9 0-2.2 1-2.7 2.2-.8 1.9-1.9 2.4-6.2 2.6-4.9.3-5.3.5-5.3 2.9 0 2-.4 2.4-2 2-1.5-.4-2 0-2 1.4 0 1.1-.8 2.2-1.7 2.5-1 .3-2.6 1-3.5 1.5-2.5 1.3-4.7 1.1-2.3-.3 1.9-1.1 1.9-1.1 0-1.8-1.1-.4-2.6-.2-3.4.4-1.1.8-1.3.8-.8 0 .4-.6-.2-1.9-1.3-2.9-1.7-1.5-2-1.6-2-.3 0 .9-.8 1.8-1.8 2-2.5.7-9.2-2.1-9.2-3.8 0-.8-.7-1.4-1.6-1.4-.8 0-1.2.5-.8 1.1.4.6-.1 1-1.2.8-1.1-.1-2.7.1-3.7.6-1.4.6-1.5 1-.6 2.1s.9 1.4 0 1.4c-.8 0-1 .8-.6 2 .4 1.4.2 2-.9 2-1 0-1.3.6-.9 1.5.3.9-.2 2.4-1.2 3.5-1.5 1.7-1.6 2.1-.2 4.1 2.2 3.1 1.2 4.5-3.5 4.4-2.2 0-4.7.5-5.3 1.2-.7.7-1.6.9-2.1.5s-.3 0 .3.8 1.4 2.9 1.7 4.5c1.2 5.5 14.1 9.8 21.3 7.2 1.9-.7 2.3-.4 2.9 1.7.3 1.4 1 2.3 1.5 2 .5-.3.9.7.9 2.2 0 1.5.5 4.2 1.2 6 1 2.7.9 3.7-.6 5.8-.9 1.5-1.4 3.1-1.1 3.6.8 1.3 4.5 1.3 4.5-.1 0-.5.5-.7 1-.4.6.3 1 .3 1.1-.2 0-.4.3-2.1.5-3.7.3-1.6.1-4.1-.5-5.7-1.5-4.2 1.1-4.4 5.4-.3 2.6 2.5 4.6 3.4 6.9 3.4 3.2 0 6.6-2.4 5.2-3.7-.3-.3-.6-.1-.6.6s-.4.9-1 .6c-1.7-1-1.1-3.5.8-3.5.9 0 2.6-1.1 3.6-2.5s2.5-2.5 3.2-2.5c2.4 0 1.7-5.6-.8-6.8-1.7-.8-1.9-1.1-.6-1.1.9-.1 2.3.6 3.1 1.4 1.3 1.3 1.7 1.3 2.7 0 .7-.8 1.6-1.3 2-1 .5.3 1.1.1 1.4-.4.4-.5.2-1.2-.3-1.6-.6-.3-.8-1.2-.5-1.9.7-1.9-2.1-2.7-5.5-1.5-2.4.8-3.3.7-5-.7l-2-1.8 2.4-3.2c1.4-1.8 2.5-3.6 2.5-4.1 0-.5.9-1.7 2.1-2.6 1.6-1.4 1.9-2.5 1.4-4.5-1.3-4.8-1.1-5.3 3.2-7.6 2.3-1.3 3.9-2.6 3.5-3-.4-.4.6-.4 2.2 0 2.5.6 2.8.4 2.3-.9-.3-.9-.2-1.9.3-2.2.6-.4.2-2.2-1-4.5l-1.9-3.8 3.7-2.8c2-1.5 4.1-3.4 4.5-4.1.4-.7 1.4-1.3 2.2-1.3 2.6 0 6.5-2.3 6.5-3.8 0-.8.7-2 1.7-2.7.9-.7 1.3-1.7.9-2.3-.4-.7-1.6-.2-3.3 1.4-2.9 2.7-7.3 3.3-7.3 1 0-2-.9-2.4-6.1-3-2.9-.4-5.3-.1-7.1.9zm-39.3 59.5c.3.5.1 1-.4 1-.6 0-1.1-.5-1.1-1 0-.6.2-1 .4-1 .3 0 .8.4 1.1 1zM461.108 83.714c.7 1.5 1.5 2.3 1.7 1.6.3-.7-.3-1.9-1.3-2.8-1.5-1.6-1.6-1.5-.4 1.2zM473.608 84.614c.3 1 .9 1.5 1.2 1.2.3-.3 0-1.1-.7-1.8-1-.9-1.1-.8-.5.6z"/><path d="M473.408 90.314c-.5 2.1-1.3 2.9-3.4 3.3-1.5.4-3.5 1.4-4.4 2.3-2.2 2.1-2.8 1.5-1.7-2.2 1.5-5.4-.8-7.4-3.1-2.7-1.2 2.5-1.9 2.8-6.8 3.1-3 .2-6.2.9-7 1.7-1 .9-3.2 1.3-6.3 1-3.5-.2-5 .1-5.4 1.1-.3.8-1 1.4-1.7 1.4-1.3.1-5 4.9-4.2 5.7.3.3-.1 1.2-.9 2-.9.9-1.3 2.4-.9 3.9.3 1.3.2 2.4-.2 2.4-.5 0-2 2-3.3 4.5-1.4 2.6-3.9 5.3-6 6.6-2 1.1-4 2.7-4.4 3.5-.5.8-1.3 1.2-1.8.8-.6-.3-1.6.2-2.3 1.2-.8 1-2 1.5-3 1.1-1-.4-1.6-.1-1.6.6s-1.2 2.5-2.7 3.8c-2.2 2-3.7 2.5-7.1 2.3-3.6-.2-4.1 0-3.1 1.2.6.8.7 1.4.3 1.4-.5 0-1 1.8-1 4.1-.1 3.2-.8 4.7-3.1 6.8-1.6 1.4-3.2 3.4-3.6 4.4-.5 1.3-1.3 1.6-2.6 1.2-3.6-1.1-6.1-1.4-6.1-.6 0 .4-1.7.7-3.7.8-4.7 0-7.6.5-13.1 2.3-4.1 1.3-4.2 1.4-3.6 4.7.6 2.9.3 3.5-1.5 4-1.1.3-2.1.9-2.1 1.4 0 .5-1 .8-2.2.6-1.6-.1-2.3.3-2.3 1.6 0 1-.6 2.1-1.3 2.6-.9.6-1 1.5-.3 3.4.7 1.8.7 2.7-.1 2.9-.7.3-.5 1.4.7 3.2 1.5 2.3 1.6 3.2.7 4.7-.7 1-1.2 2.8-1.2 3.8 0 1.1-.4 2.3-1 2.6-1.8 1.1-1 2.7 1.1 2.2 2.6-.7 3.9 2.2 1.5 3.5-1.1.6-1.4 1.7-1 3.2.3 1.4-.1 2.7-1 3.5-.9.8-1.6 1.9-1.6 2.6 0 2.5-5.2 7.7-7.1 7.2-1-.3-2.3.1-3 .9-.9 1.1-1.6 1.1-4-.2-1.6-.8-2.9-1.1-2.9-.7 0 .5-2.8.9-6.2 1-4.5.1-6.8-.3-8-1.4-1.6-1.5-1.8-1.5-1.8 0 0 2.2-9 4.7-13.5 3.7-2.1-.5-3.8-.4-4.1.2-.4.5-2.1.7-4 .3-1.9-.3-4.3-.1-5.5.6-1.7.9-2.4.8-3.6-.4-1.3-1.3-2.2-1.3-6.5-.1-2.7.7-5.8 2-6.7 2.8-1 .9-4.1 2.2-6.9 2.8-4.4 1.1-5.2 1.6-5.2 3.6 0 1.5-.7 2.6-2 2.9-1.3.3-2 1.4-2 2.8 0 1.2-.7 2.8-1.5 3.5-1 .8-1.2 1.7-.5 3 1.2 2.2-.5 4-3.8 4-1.3 0-3.1.7-3.9 1.6-1.1 1.1-2.4 1.4-4.2.9-4.6-1.2-13.4-.5-15.4 1.3-1.2 1-3.3 1.6-6 1.5-2.3-.1-4.8.4-5.7 1.1-2.9 2.6-10.7.1-16.8-5.3-5.6-5-14.7-8.7-18.8-7.7-1.2.3-2.5.2-2.9-.4-1.1-1.8-7.7-3-9.3-1.7-1.8 1.5-7.2 1-9.3-.9-1.4-1.3-1.8-1.3-2.8 0-1.3 1.5-.5 6.6 1.1 6.6.5 0 .7 1.8.3 4.4-.6 3.9-.5 4.5 1.4 5.1 1.1.3 2.4.4 2.9.1.4-.2 1.7.9 2.7 2.5 1.2 1.7 2.9 2.9 4.1 2.9 1.2 0 2.7.7 3.4 1.5.7.8 2 1.5 3 1.5 2.1 0 5 3.1 5 5.3 0 1-.8 1.7-2 1.7-1.3 0-2.4 1-3 2.5-1 2.6-.4 5.5 1.1 5.5 1.4 0 1 2.6-.6 4-1.3 1.1-1.2 1.6.6 4.1 1.7 2.5 2 4.1 1.7 10.5l-.3 7.5 4.3 1.2c2.7.7 4.2 1.7 4.2 2.7 0 .8 1 2.4 2.1 3.4 1.3 1.1 1.8 2.1 1.1 2.5-.5.3-1.4 2.2-1.9 4.1-.8 3-1.4 3.5-4 3.8-3.5.3-5.6-2-6.2-6.8 0-.6-.8-1-1.6-1-.9 0-1.2.6-.8 1.7.5 1.3.2 1.5-1.1 1-1-.4-2-.7-2.2-.7-.2 0-.4-.6-.4-1.4 0-1.2-2-2.6-3.6-2.6-.2 0-.2 1.1.2 2.4.5 1.9-.5 3.2-5.5 7.6-5.3 4.6-6 5.7-6.3 9.4-.2 3.4-.7 4.2-2.6 4.4-1.2.2-1.9.8-1.6 1.4.4.6-.1.8-1.5.3-1.5-.4-2.3-.1-2.7 1-.4.9-1.2 1.4-1.8 1.2-.8-.3-1 .7-.8 3 .4 3.2.3 3.5-1.7 2.8-1.6-.5-2.1-.2-2.1 1.3 0 2.6-2.7 4.7-5.9 4.7-2.1 0-2.8.8-4.3 4.8-1.8 4.8-1.8 4.9.2 7.7 2.4 3.4 2.5 4.1.4 3.3-1.3-.5-1.4 0-.9 3.1.6 2.8.4 3.6-.7 3.6s-1.5 1.2-1.4 4.3c.1 3.6-.4 4.7-3.2 7.2-3 2.7-3.2 3.3-2.3 5.8.9 2.3.8 2.9-.7 3.4-.9.4-2.8 1.5-4.1 2.5-1.3 1-3.2 1.6-4.1 1.3-1.4-.4-1.6-.1-1.2 2 .3 1.7 0 2.5-1 2.5-.9 0-2.1 2.5-3.2 7-1.5 5.5-2.2 7-3.7 7-1.4 0-1.9.7-1.9 2.6 0 1.6-1.1 3.5-3 5.1-1.7 1.4-2.7 3-2.3 3.6 1.5 2.4.8 9.2-1 10.5-.9.7-1.5 1.6-1.3 2 .2.4-.2 1.3-1 1.9-1 1-1.5 1-2.2-.2-.5-1-1.5-1.3-2.5-.9-.9.3-1.5.9-1.3 1.3.3.4.2 1.2-.2 1.8-1 1.5-9.3 5.3-10.4 4.7-1.2-.7-6.8.6-6.8 1.6 0 .4-1.3 2.2-2.9 3.9-2 2.2-3.4 2.9-4.7 2.4-1.3-.5-1.6-.3-1.1 1 .5 1.2-.3 2.1-2.6 3.3-1.8 1-3.7 2.5-4.4 3.4-1.4 2-5.1 3.2-5.9 1.9-.8-1.4-2.4-1.1-2.4.5 0 .7-.9 1.6-2 1.9-1.4.3-2 1.4-2 3.1 0 2.4-.3 2.6-2.7 2-1.6-.4-4.6-1.6-6.8-2.7-2.6-1.3-4-1.6-4.3-.8-.2.6-.9 1.1-1.6 1.1-.7 0-2.1.9-3.1 2-1.8 2-1.8 2.1.6 4.6 2.2 2.4 2.3 2.6.7 3.8-1.4 1-1.8 2.8-1.8 7.2 0 5.6-.2 6-3.3 7.5-3.1 1.5-3.2 1.9-3.2 7.4 0 4.9.4 6 2.4 7.7 1.5 1.1 3.7 1.8 5.4 1.6 3.8-.4 5.8 2.2 3.9 5.2-2.5 4.1-.3 8.2 5.3 9.6 2.8.7 4.5 2.6 2.8 3.1-.5.2-.8 1.6-.5 3l.5 2.6-3.8-2.8-3.7-2.9-2.2 2.7c-1.2 1.5-2.7 2.7-3.4 2.7-.7 0-1.2.6-1.2 1.4 0 .8-.8 1.5-1.7 1.5-4 .1-8.2 1.4-8.7 2.7-.3.8.1 1.4.9 1.4s1.5.4 1.5 1c0 .5-.9 1-1.9 1-1.7 0-3.6 2.5-3.3 4.2.1.4-.7 1.2-1.8 1.8-3.3 1.8-2.4 4.5 1.9 6.2 2.7 1.1 4.2 1.3 5 .5.7-.7 1.5-.6 2.5.2 2.5 2.1 2.5-1.2-.1-3.6-3.2-3-3-4.7.5-3.9 1.5.4 3.8.9 5.2 1 1.4.2 2.8.4 3.3.5.4 0 .5 1.2.1 2.5-.4 1.8-.1 2.6 1.4 3 1.1.4 2.3 1.3 2.6 2.1.3.8 1.2 1.5 2.1 1.5.8 0 1.5.4 1.5 1 0 .5.6 1 1.4 1 .7 0 1.6 1 1.9 2.2.2 1.3.8 3 1.1 3.9.6 1.3-.1 1.8-3.8 2.3-4.9.8-6.3 2.6-2 2.6 2.5 0 2.6.3 2.1 3.3-.7 4.6.6 6.6 3.3 4.9 2.6-1.6 4-1.5 4 .3 0 .8.6 1.5 1.3 1.5.6.1.2.9-1.1 1.9-1.9 1.7-2.1 2.3-1.2 4.7 1.1 2.7.5 4.8-.8 2.7-1-1.6-9.2-2.2-9.2-.6 0 .6 1 1.5 2.2 1.9 1.2.3 2.9 1.5 3.7 2.6.9 1 4.1 2.5 7.1 3.3 3 .8 6 2.1 6.6 3 .6.8 1.8 1.3 2.6 1 2-.8 4.8 2 4.8 4.7s3.8 8.8 5.5 8.8c.7 0 1.8 1.3 2.5 3 .7 1.6 1.6 3 2.1 3 .4 0 2.3 2.5 4.1 5.5 1.8 3 3.6 5.5 4 5.5.4 0 1.9 1.7 3.2 3.7 2.1 3 2.6 3.4 3.2 1.9.4-.9.2-2.2-.5-2.9-2.2-2.2-1.2-3.7 2.5-3.7 2.8 0 3.5.3 3.2 1.7-.3 1.6 5.3 7.4 7.1 7.3 1.2-.1 4.1-2.8 4.1-3.9 0-1.4 1.3-1.4 2.8.1.9.9.7 1.4-.5 2.3-1.6 1.2-1.6 1.4 0 3.9 1 1.4 1.4 2.6.9 2.6-1.5 0-6.2 4.8-6.2 6.4 0 2.2 2 3.1 6.5 3.1 2.2 0 4 .3 4 .6 0 .4.8 1.6 1.8 2.6.9 1.1 1.4 2.2 1.1 2.6-.4.3.9 1.6 2.9 2.7 3.4 2 5.7 6.1 5.7 10 0 2.1 4.7 4.5 5.3 2.7.2-.7 1.4.7 2.6 3 1.2 2.4 2.8 4.3 3.5 4.3.8 0 1.4 1 1.4 2.2.1 1.3.5 5.4.9 9.2.7 6.5 1 7 3.6 7.7 3 .8 12.9 9.4 11.9 10.3-.3.3-1.1.1-1.9-.5-1-.9-1.3-.8-1.3.4 0 .9-.8 2.1-1.7 2.6-1 .6-1.2 1.1-.6 1.1 1.3 0 4.2 4.9 4.9 8.3.4 2.5 2.1 3.7 5.4 3.7 3.9.1 13.2 3.6 14.2 5.4 1.1 2 12 7.6 14.7 7.6 2 0 12.9 8.2 14.5 11 .5.8 2.2 2.7 3.8 4.2 1.5 1.4 2.8 3.3 2.8 4.2 0 .8.9 2 2.1 2.6 1.1.6 2.8 3 3.8 5.3s2.6 4.8 3.5 5.6c.9.7 1.6 2.1 1.6 3.1 0 1.8 3.8 4 6.9 4 1 0 2.6 1.5 3.7 3.5 1 1.9 2.4 3.5 3.1 3.5 1.6 0 1.6.6.3 3-.7 1.3-.6 2.1.5 3 .8.7 1.5 2.4 1.5 3.8s1.1 3.9 2.4 5.6c1.3 1.7 2.7 4.6 3.1 6.4.4 1.8 1.3 3.6 2.1 3.9.7.2 1.6 1.3 1.9 2.2.3 1 2.8 3.2 5.5 5 2.8 1.8 5 4 5 4.9 0 1 .6 2.6 1.4 3.7.7 1.1 1.6 4.1 1.9 6.7.6 4 .4 4.8-.9 4.8s-1.5 1.1-1.2 6.2c.2 3.5.8 7.1 1.2 8 .6 1.3.4 1.8-.6 1.8-1.9 0-1.7 12.2.2 14.4 1.6 2.1 4 2 4 0 0-.9.9-1.8 2-2.1 1.5-.4 1.9-1.1 1.5-2.4-.6-1.7 0-1.9 5.4-1.9 5 0 6.2-.4 7.5-2.1.9-1.3 2.1-1.9 3.1-1.6 2 .8 5.5-2.6 5.5-5.4 0-1.2.8-2.3 2-2.6 1.1-.3 2-1.1 2-1.9 0-2 1.9-2.7 3.5-1.4.8.7 2.2 1 3.1.6 2.3-.9 5 .9 6.4 4.3 1.1 2.6 1.4 2.8 2.7 1.6 1.1-1.1 1.1-1.9.3-3.6-1.1-1.9-1-2 .9-1 1.1.6 2.8 2.5 3.8 4.1.9 1.7 2.5 3 3.5 3 .9 0 2 .5 2.4 1.1.5.8.8.8 1.4 0 .5-.8 2.3-.3 6 1.6 3.8 1.9 5.5 2.4 5.8 1.5.6-2 1.8-1.4 1.9 1 .1 1.3-.4 3.3-1.2 4.5-.8 1.2-1.5 3.4-1.5 4.8 0 1.7-.5 2.5-1.7 2.5-1.5 0-1.5.2-.4.9 1.2.8 1.2 1.2.2 2.5-.9 1.1-1 1.6-.2 1.6.6 0 1.1.8 1.1 1.9 0 1.2 1.2 2.3 3.3 3.1 1.7.6 4 1.6 5 2.1s2.2.7 2.7.4c.6-.4 1 0 1 .8 0 1.9 4.2 3 5.2 1.4.5-.8.8-.6.8.6 0 1 .7 2 1.5 2.3 1.9.8 1.9 2.8 0 4.8-.9.9-1.1 1.7-.5 2.1.5.3 1 .1 1-.4 0-.6.8-1.1 1.8-1.1 1.6 0 4.2-4 4.2-6.7 0-.7.4-1.3.9-1.3.8 0 .9-3.4.3-10.1-.1-.9-1.3-2.1-2.6-2.7-1.4-.6-2.6-2.1-2.8-3.4-.2-1.7-.9-2.2-2.4-2-2.4.3-7.3-2.7-11.6-7.1-1.6-1.5-2.8-2.9-2.8-3.1 0-1.1 13 .3 15.5 1.7 3.9 2 6.8.7 5.9-2.7-.9-3.7 2.5-5.6 7.9-4.3 2.3.5 5 1.3 6 1.9 1 .5 2.2.6 2.7.3.4-.3 1.7.6 2.8 2 1.1 1.4 3 2.5 4.2 2.5 4.3 0 11.5-2.3 13.2-4.2 1-1.1 2.2-1.7 2.8-1.3.5.3 1 .1 1-.5 0-.7.7-.7 2.3.2 1.2.7 2.7 1.3 3.2 1.3.6 0 .9.8.9 1.7-.1 1.5.2 1.4 3.1-.2 3.3-1.8 3.3-1.8 5.1.3 2.8 3.3 4.5 6.7 3.9 7.7-.3.5 1.7 1.6 4.4 2.4l4.9 1.4 8.8-4.4 8.8-4.5 2.8 2.1c1.5 1.1 3.2 2 3.7 2s2.6.9 4.5 2.1c2.5 1.5 4.4 1.9 6.5 1.4 2.3-.5 3.2-.2 4.5 1.6 1.2 1.8 1.8 2 2.9 1 1.2-.9 2-.6 4.3 1.9 1.6 1.6 3.5 3 4.2 3 .7 0 2.8 1.1 4.6 2.5 1.8 1.4 4 2.5 4.8 2.5.8 0 2.7.9 4.1 2 1.4 1.1 3.7 2 5.1 2 1.4 0 2.6.4 2.6 1 0 .5.6 1 1.4 1 .8 0 2.1.9 2.9 2.1.9 1.3 1.7 1.6 2.2 1 .3-.6 1.5-1.1 2.5-1.1 1.6 0 1.8-.5 1.3-3.5-.6-4 .3-4.4 3.8-1.7 5 3.7 7.4 4.2 11.3 2.3 1.9-1 3.3-2.1 2.9-2.4-.3-.4.2-.9 1.1-1.3.9-.3 1.3-1 1-1.5-.3-.5.2-.9 1-.9 1.9 0 5-4.5 4.1-6-.4-.6 1.3-1 4.9-1 3.5 0 6-.5 7-1.5.8-.8 2-1.5 2.6-1.5.7 0 .9-.8.5-2s-.2-2 .5-2c1.5 0 4-2.5 4-4 0-.6-.7-2.4-1.5-4-.9-1.7-1.2-3-.8-3 .5 0 .9-2.4 1.1-5.2.2-2.9.5-5.4.7-5.7.8-.7 4.5 3.1 4.5 4.6 0 .7 1.1 1.3 2.5 1.3 1.7 0 2.8.7 3.4 2.2.5 1.3 1.8 3.1 2.9 4.1 1.1 1.1 1.8 2.5 1.5 3.3-.4 1.2 0 1.2 2.3.4 2.9-1.2 7.4-.5 8.5 1.1.3.5 1.3.7 2.2.3.9-.3 1.4-1.1 1.1-1.6-.4-.6 0-1.5.7-2 1.1-.7 1.1-1.1.2-1.5-1.3-.5-1.8-5.3-.6-5.3.3 0 1.4.7 2.3 1.5 2.3 2.1 8 2.7 8 .9 0-.8.4-1.4.9-1.4s1.1-1.5 1.4-3.3c1.2-7.1 3.4-12.4 6.7-15.8 3.8-3.9 4.9-8.9 2.5-10.9-2.1-1.8-1.8-2.9 1-4s4.8-5.1 3.8-7.6c-.5-1.3-.2-1.5 1.5-1 1.2.4 3.1.2 4.3-.5 2-1 2-1.2.6-2.1-2.2-1.2-2.2-7.1-.1-9.3 1-.9 2.4-1.3 3.6-.9 2.2.7 4.7-1.9 4.8-5 0-1.3.5-1.7 1.9-1.3 1.4.3 1.7 0 1.4-1.4-.6-2.3 4.9-5.3 8.6-4.6 3 .6 6.1-.8 6.1-2.7 0-2 2.7-2.7 5.5-1.4 1.9.8 3.5.8 6.2 0 3-.9 4.2-.9 5.9.3 1.9 1.2 2.4 1.2 3.4 0 1.7-2 2.1-1.9 6.5 1.1 2.6 1.7 4.5 2.4 6.2 1.9 1.3-.3 2.1-1 1.8-1.5-.3-.6 0-1 .8-1 2.1 0 5.7-4.7 5.7-7.4 0-1.4.5-3.7 1-5.1 1.4-3.7-.2-6.4-3.5-5.8-3.2.7-4.3-1.9-2.1-5.2.9-1.3 1.6-3.1 1.6-4 0-.8.8-1.5 1.8-1.5 2.8-.1 7-4.5 7.7-8.3.8-4 4.1-6.3 7.9-5.3 3.9 1 6.9-.2 8.8-3.4 1.1-2 2.7-3.1 5.2-3.6 4-.7 4.3-1.2 2.1-4-2.1-2.8-1.8-6.3 1-11.3 1.4-2.4 2.4-5.4 2.3-6.5-.2-1.5.3-2.2 2-2.4 1.5-.2 2.9-1.6 3.9-3.8.9-1.9 2-3.4 2.5-3.4.4 0 .8-1.1.8-2.5 0-1.7.5-2.5 1.8-2.5 1.9 0 5.2-4.7 5.2-7.4 0-.9.7-1.6 1.6-1.6.8 0 1.2-.5.9-1-.3-.6-.1-1 .5-1 .7 0 .9-.8.5-2.1-.6-1.9-.4-2.1 1.3-1.7 2 .6 2 .4.7-1.6-.9-1.3-1.2-2.6-.8-2.9 1.1-1.1-2.9-3.5-7-4.2-2-.4-3.7-1.2-3.6-1.8.1-.7-.1-2-.6-3-.4-1-.2-2.3.5-3.1.6-.8 1.4-4 1.7-7.1.5-5 .4-5.7-1.4-6.1-1.1-.3-3-1.9-4.2-3.5l-2.2-2.9 2.1-.8c2.1-.8 2-.8-.6-5.7-1.7-3.2-2.8-6.9-3-10.2-.2-5.5-1-7.7-2.3-6.8-.5.2-1.7-.5-2.7-1.6-2.6-3-6.1-4.1-8.5-2.9-1.6.9-2.4.3-5.5-4.6-2-3-4.2-6.3-5-7.2-2.7-3-6.4-9.2-7-11.7-.5-2.1-.3-2.5 1.5-2.5 2.5 0 2.5-.1.8-4.3-1.6-3.9-1.2-6.4 1.3-7.2 2.1-.7 3.2-3.5 3.5-9.2.2-2.3 1-4.9 1.9-5.8 1.8-1.8 2.2-4 .6-3-.7.4-.9-.6-.8-2.6.3-4-2.9-6.5-7.8-6-2.1.1-4-.4-5-1.3-.8-.9-1.3-1.6-1-1.6.3 0 .1-1.1-.4-2.5-.8-2.1-.7-2.5 1-2.5 1 0 2.6-.9 3.4-2.1.9-1.3 1.9-1.8 2.7-1.4.9.6 1.1-.1.6-2.9-.5-3.3-.4-3.6 1.3-3.1 1 .3 2.1.1 2.5-.5.3-.5 1.5-1 2.6-1s2.2-.7 2.5-1.5c.4-.8 1.5-1.5 2.6-1.5 1.4 0 1.8-.5 1.4-1.5-.6-1.7 2.2-3.5 5.7-3.5 2 0 2.4-.4 2-2-.3-1.1 0-2 .6-2 1.4 0 7.9-6.9 8.6-9.3.4-.9 1.2-1.7 2-1.7.7 0 2.7-1.1 4.3-2.5 1.7-1.4 3.8-2.5 4.7-2.5 1.4 0 1.6-.6 1.2-2.9-.6-2.9 1.5-6.1 4.1-6.1.8 0 1.2-1.8 1.2-5 0-4.7.2-5 2.5-5 2.4 0 2.9-.9 2.6-3.7-.1-1 .5-1 2.4-.3 2.1.8 2.7.7 3.1-.8.3-.9.9-2.4 1.4-3.3.5-.9.6-2.6.3-3.8-.6-2.5 1.4-5.4 3.3-4.7.7.3 1.6 0 2-.5.3-.6 1.5-.9 2.5-.6 1.1.3 1.7.1 1.3-.4-.3-.5.3-.9 1.2-.9 1 0 2.8-.9 4-2.1l2.1-2 .6 2.1c.3 1.3 0 2.3-.8 2.6-.8.3-1.1 1.3-.8 2.1.5 1.3.1 1.5-2 1.1-1.9-.4-2.7-.1-2.7.8 0 .8-.4 1.4-.9 1.4s-1.5 2.2-2.2 4.9c-.8 3.2-1.7 4.7-2.5 4.4-.8-.3-1.1.2-.7 1.6.3 1.1-.3 3.3-1.3 5-1.7 2.9-1.7 3.1.5 8.3 1.3 2.9 2.7 6 3.2 6.8.5.8 2.2 4.1 3.9 7.3 2.7 5 3.3 5.6 5 4.7 1-.5 2.6-1 3.5-1 2.2 0 7.2 5.3 9 9.5 1.6 4 2.7 4.3 5.4 1.6 1.9-1.9 2-1.9 3.9.2 2.9 3.3 3.4 6.5 1.1 8.8-2.4 2.4-2.4 2.9-.1 2.9 1 0 2.3.5 3 1.2.9.9 1.2.9 1.2-.1 0-.9.8-1.1 2.3-.8 2.6.7 4 0 5.5-2.9 1.5-2.8 6.8-3.7 8.5-1.5.7.9 2.3 1.6 3.7 1.6 2 0 3 1 4.7 4.5 1.3 2.4 3 4.8 3.8 5.3.8.4 1.5 1.3 1.5 2s1.2 1.8 2.8 2.4l2.7 1.3-2.5-2.2c-2.5-2.1-2.5-2.1-.2-1.3 3.6 1.1 7.5-1.1 9.5-5.5 1.9-4 3.8-4.9 6.7-3 1.2.7 1.9 0 3.6-3.8l2.1-4.7 1.6 3.1 1.6 3 6.3-.8c3.5-.5 7-.9 7.9-.9 2.1-.1 4.1-5.6 2.8-8-.8-1.6-.6-1.9 1.2-1.9 1.2 0 2.3-.8 2.6-1.9.3-1 1.4-2.3 2.6-2.9 1.2-.6 1.6-1.1 1-1.1-.7-.1-1.3-.8-1.3-1.7 0-1.4.2-1.4 2.2 0 2.2 1.5 4.8 2.2 3.5 1-.3-.4.1-1.3 1-2.2 1.4-1.4 1.3-1.8-1-3.6-1.3-1.2-3.1-3.4-4-5.1-1.5-2.9-1.4-3 2.2-6.5 2-1.9 4.5-5.7 5.5-8.5s2.5-5.7 3.3-6.6c1.1-1.4 1.2-2.1.1-4.4-1.1-2.5-1-2.9 1-4.3 2.6-1.7 2.8-4.2.7-8.3-.9-1.6-1.3-3.4-1-3.9.3-.5-.6-3.3-2.1-6.1-1.8-3.6-2.2-5.4-1.4-5.9.7-.4-.1-2.1-2.5-4.9-4-4.9-4.4-6.2-4.8-14.6-.2-4-1.2-7.8-3-11.4-3-6.2-3.3-8.1-1.3-8.1 2.3 0 2.8-3.6 1.6-11-.9-5.1-1.5-6.7-2.5-6.3-.9.3-1.6-.4-2-2-.4-1.4-2-3.1-4.1-4-1.9-.9-3.4-2.1-3.4-2.7 0-.6-2-2.3-4.5-3.9-2.4-1.5-4.2-3.1-4-3.5.3-.3.2-.4-.1-.1-.4.2-1.5 0-2.5-.6-1.6-.8-1.9-.6-1.9 1 0 1.8-1.8 3.1-4.3 3.1-1.6 0-3.9-5.3-3.1-7.3.3-.9 1.1-1.4 1.8-1.1 2.3.9 7.6-4.5 7.6-7.7 0-3 2-3.8 5-1.9 1.2.8 1.2 1.1-.3 2.8-.9 1-1.7 3-1.7 4.4 0 2.1.4 2.5 2 2.1 1.1-.3 2-1 2-1.5s.8-.7 1.8-.4c2.4.7 5.8-4 4.3-5.8-.9-1-.5-2.6 1.4-6.3 1.9-4 3.1-5.2 5.5-5.6 1.7-.4 3-1.3 3-2.1s.7-1.9 1.6-2.4c1.5-.8 1.5-1.1 0-3.4-1.7-2.6-1.3-3.8 1.5-3.8.9 0 1.9-1 2.3-2.4.7-2.9-.3-8.6-1.5-8.6-1.4 0-1-2.2.6-3.4 1.3-.9 1.4-1.7.4-4.4-.6-1.8-.9-4.1-.6-5.1.3-1.3-.2-2.1-1.5-2.4-1.1-.3-1.7-1-1.4-1.6.4-.5-.2-1.5-1.3-2-1.5-.9-1.8-1.9-1.5-4.8.4-3.5.2-4-4-7.1-4.4-3.3-4.5-3.3-7.1-1.6-4.3 2.8-5.6 6.3-3.9 10.3 1.9 4.5 1.8 4.8-1 2.2-2-1.9-2.4-2-2.9-.7-1 2.6-7.7 1.7-7.7-.9 0-.8-.5-1.7-1.2-2.1-.7-.5-.8-.3-.3.6.5.8.3 1.1-.6.8-.7-.2-2.1.5-3.1 1.6-1.5 1.8-1.9 1.9-3.8.8-1.2-.8-1.9-.9-1.5-.3.3.6 0 1.1-.7 1.1s-2.3.3-3.4.6c-1.4.4-2.3 0-2.8-1.1-.5-1.3-.2-1.5 1.4-1 2.2.7 2.9-1.9.8-2.9-1-.3-.9-.8.2-1.8.9-.7 1.4-2.1 1.2-3.1-.2-1.1.6-2.8 1.8-3.9 2-1.9 2-2.1.4-3.3-1-.7-2.4-1.1-3.1-.8-2.4.9-3.5-.8-1.7-2.8 1.6-1.8 1.6-2 0-3.8-1.2-1.4-1.4-2.1-.6-2.6.8-.5.1-1.4-1.9-2.6-3-1.8-6.1-6.5-6.1-9.2 0-1.5-2.6-3.1-8.4-4.9-3-1-4.6-2.4-6.5-5.6-3.2-5.3-9.3-8.4-16.5-8.3-5.3 0-8.6-1.2-8.6-3.2 0-2.3-2.2-3.7-4.2-2.6-1.5.8-2 .5-3-1.7s-1-2.7.5-3.5c1.3-.8 1.5-1.4.7-3-.7-1.3-.7-1.9 0-1.9.5 0 1-.7 1-1.5 0-.7.7-1.8 1.6-2.3 1.4-.8 1.3-1.4-.7-5.4-2.3-4.8-2.2-4.8-6.7-.8-2.7 2.4-7.2 1.9-7.9-.8-.3-1.2 0-2.8.6-3.6 2.7-3.2-2-6.7-6.1-4.5-3.4 1.8-7.8 6.8-7.8 8.9 0 1.1-1 1.9-2.8 2.3-1.8.4-3.6 1.9-5.2 4.6-2.7 4.3-3.4 4.8-4.7 2.8-.4-.6-1.5-1.2-2.3-1.2-.8 0-1.9.6-2.3 1.2-.4.7-2 1.3-3.5 1.3-4.8 0-10.8 2.4-10.4 4.1.2 1.3-.8 1.6-6 1.6-8.4.1-14.1 1.2-15.1 3-.5.8-1.6 1.1-2.7.8-1.1-.3-2.8-.1-3.9.5-1.7.9-2.5.6-4.7-1.9-2.4-2.7-2.7-2.8-5.2-1.6-1.4.8-2.9 1.2-3.4.9-.4-.3-1.1.2-1.4 1-.3.9-1.4 1.6-2.3 1.6-4.3.1-7.2 5.8-4.8 9.7.4.6 0 1.7-.9 2.4-1.3 1.1-1.7 1.1-2.5-.1-1.8-3.2-2.5-3.8-4.6-4.4-2.1-.7-2.3-.4-2.3 2.9 0 3.4-.2 3.6-2.7 3.5-5-.4-6.2 0-6.8 2-.3 1.1-1.5 2-2.5 2s-2.2.5-2.5 1.1c-.4.5-1.2.8-1.8.6-.6-.2-2.3.7-3.6 1.9-1.9 1.7-2.8 2-3.8 1.2-.7-.6-1.3-.7-1.3-.4 0 .4-.9.2-2-.4-1.6-.8-2.8-.8-4.9.1-2.8 1.3-2.8 1.4-1.3 3.7 1.6 2.4 1.5 2.6-2.3 5.8-3.8 3.2-7.2 4.4-12.4 4.4-1.6 0-2.1.3-1.4.8.7.5.9 1.3.3 2.1-.6 1.1-1.2.6-2.4-1.7-2.2-4.3-2-5.8 1.3-8.8 1.6-1.4 3.2-3.7 3.6-5.1.8-3.5 3.5-7.3 5.1-7.3.7 0 1.8-.9 2.4-1.9.5-1.1 2.4-2.2 4.1-2.6 2.5-.6 3.5-1.6 4.7-4.6 1.2-3.1 1.9-3.8 3.4-3.3 1.6.5 1.8.2 1.2-2.2-.5-1.8-.3-2.5.4-2 1 .6 2.8-3 2.4-4.7-.1-.4.3-.7.9-.7.8 0 1-1.4.6-4.5-.5-3.7-.4-4.5.9-4.5 1.1 0 1.3-.6.9-2-.3-1.1-.2-2 .3-2s1.4-1 2-2.3c1-2 1.1-2 .9-.2-.2 1.1-.6 2.6-1 3.3-.5.7-.2 1.9.7 2.8 1.9 1.8 1.2 3.6-1.2 3.2-1.1-.2-1.8.5-2 1.9-.2 1.3.1 2.3.6 2.3s1 1.1 1 2.4c0 1.6-.5 2.3-1.3 1.9-.8-.2-1.8.4-2.4 1.5-.8 1.6-.5 2.4 1.9 4.7 2.3 2.2 3.8 2.8 7.6 2.8 2.6 0 4.9-.6 5.4-1.3.4-.7 1.2-1 1.8-.6.6.3 1.3.2 1.6-.3.4-.5 1.8-.8 3.4-.6 4.8.6 6.2-.3 6.2-4.1 0-2.4.5-3.4 1.5-3.4.8 0 1.5-.6 1.5-1.3 0-.8.9-2.2 2-3.2s2-2.9 2-4.2c0-3.8-2.8-8.3-5.1-8.3-1.2 0-3.7-1.3-5.5-3-1.9-1.6-4.6-3.3-5.9-3.6-3.3-.8-3.3-4.1 0-5.4 5.5-2.1 1.5-8-4.9-7.2l-3.7.4 2.6 2.8c2.9 3.1 2.1 4.6-2 3.6-1.8-.5-2.7-.1-3.5 1.3-.7 1.4-.7 2.2.1 2.7.8.5.6 1-.5 1.6-2.3 1.3-3.7.1-3.4-3 .1-1.5-.1-3.3-.6-4-.4-.7 0-1.5 1.1-1.9 4-1.4 5.3-3.5 5.3-8.7 0-2.8.4-5.8.9-6.6.6-.8.7-1.9.3-2.5-.4-.5-1.2-2.6-1.9-4.5-1.2-3.3-1.1-3.6 1.5-5.7 2.7-2.1 2.7-2.2 1.1-5.5-2.9-5.8-5.2-15-4-15.7.7-.4-.2-2.6-2.4-5.8-1.9-2.9-3.1-5.5-2.5-5.8.6-.3.6-1.3.1-2.3-3.8-7.6-5.2-9.7-6.8-10-1-.2-2.8-1.3-4-2.4-2.2-2-7.3-11.5-7.3-13.6 0-.6-.8-1.5-1.7-2.1-1.7-.9-1.7-1 0-2.3 2.7-2 3.5-11.3 1.2-13.8-1.4-1.5-1.5-2-.4-2 1.2-.1-3.4-3.2-5.3-3.6-.5-.1-1.1-.3-1.5-.4-.5-.2-2.4-.4-4.3-.6-6.1-.5-7-.7-7-1.6 0-.5-.7-1.6-1.5-2.4-.8-.9-1.5-2.3-1.5-3.2 0-.9-1.3-3.1-2.8-4.7-2.2-2.4-3.6-3-7-3.1-2.9 0-4.2.4-4.2 1.3 0 .7-1.1 1.9-2.5 2.5-2.3 1-2.9 2-2.6 4 0 .4-.7.7-1.7.7-.9 0-4.1.2-6.9.5-4.6.5-5.4.3-6.3-1.5-.8-1.4-1.5-1.7-2.3-1-.8.6-2 .5-3.7-.4-3.2-1.8-4-1.8-4-.1 0 .7-.6 1.9-1.4 2.5-1 .9-1.6.8-2.6-.4-.9-1.1-1.6-1.2-2.6-.4-.7.6-2.1.9-3.1.7-1-.1-2.3 0-2.8.4-.6.4-2.4.1-4-.7-1.7-.7-4.2-1.6-5.8-1.9-1.5-.4-3.7-1.6-4.9-2.8-1.8-1.8-2.3-1.9-3.2-.7-.6.8-1.8 1.3-2.7 1.1-2.6-.5-7.2 1.7-6.6 3.2.6 1.6-1.5 2.9-5 3.1-2.5.1-3.1-.8-2.9-4.7.1-1.4-.2-2.4-.7-2.1-.5.3-.7 1.4-.4 2.4.3 1.2 0 1.9-1 1.9-.9 0-1.3-.6-1-1.4.4-.9-.8-1.7-3.4-2.5-2.1-.7-4.6-2.2-5.5-3.5-.8-1.3-2.4-2.6-3.5-2.9-1.6-.4-2.1.1-2.5 2.3zm-9.8 14.4c2.1 1.6 1.9 2-1.2 3-1.6.5-2.3 0-3.2-1.9-1-2.2-.9-2.5.6-2.5 1 0 2.7.6 3.8 1.4zm162.8 127.2c.3.8.2 1.2-.4.9-.6-.3-1-1-1-1.6 0-1.4.7-1.1 1.4.7zm-447.7 27.9c.9 2.4-.1 2.7-1.5.5-.8-1.3-.8-2-.2-2 .6 0 1.3.7 1.7 1.5zm413.3 40.6c-.7 1.1-1.4 1.8-1.7 1.5-.8-.8.5-3.6 1.7-3.6.7 0 .7.6 0 2.1zm-2.6 3.4c.6 1.6-2.2 5-3.3 3.9-.3-.4-.1-.9.5-1.1.7-.2 1-1.3.7-2.3-.6-2.3 1.2-2.7 2.1-.5zm-535 177.3c1.9 1.1 3.3 3.1 4 5.4 1.4 4.8 6.5 10.5 11.9 13.2 2.3 1.2 4.1 2.7 4 3.4-.2.6.2 1.2.8 1.2.5 0 .7.5.3 1.2-.5.7-.3.8.5.4.7-.5 1-1.4.7-2.2-.3-.8-.1-1.4.4-1.4.6 0 1-1.1 1-2.3 0-2 .5-2.4 3-2.4 1.7 0 3 .4 3 .9 0 .4-.8.8-1.8.8-2.6 0-3.4 1.1-2.1 2.6 1.9 2.3 5.1-.2 4.7-3.5-.1-1.6.5-3.5 1.5-4.5.9-1 1.4-2.2 1.1-2.8-.3-.5.3-.4 1.5.4 2.4 1.5 2.9 5.8.6 5.8-.9 0-1.2.6-.9 1.5.4.9 0 1.5-1 1.5-.8 0-2.1 1-2.7 2.2-.7 1.3-1.8 2.7-2.5 3.1-.8.4-1.4 1.5-1.4 2.2 0 .8-.4 1.5-1 1.5-.5 0-1 1.2-1 2.6 0 1.7-.6 2.8-1.9 3.1-1.2.3-1.7 1.1-1.4 1.9.3.8 0 1.4-.6 1.4-1.4 0-1.4 3.3 0 4.7 1.4 1.4-1 5-6.5 10.1-2.8 2.6-4 3.1-6.1 2.6-2.4-.6-2.5-.4-1.9 2 .4 1.6-.1 4.3-1.2 7-1.5 3.6-2.4 4.5-4.9 4.9-3.9.6-4 .4-2.2-3.3 1-1.9 1.4-4.3 1-6.5-.4-2.3-.2-3.5.6-3.5s.9-.5.2-1.7c-.7-1.3-.4-2.5.8-4.3 1-1.4 2.1-4.2 2.4-6.2.5-3.1.2-4-1.6-5.3l-2.1-1.5 2.1-2.9c1.4-1.7 2-3.7 1.6-5-.4-1.5-.1-2.1 1.1-2.1 1.3 0 3.6-3.5 3.6-5.6 0-1-2.9-.3-4 1.1-1.4 1.7-3.2 1.1-2.4-.8.2-.7-.4-2.1-1.5-3.1-1.9-1.7-1.9-1.7-1.5.1.4 1.5-.3 2.1-3.8 3-3.2.9-4.5.9-5 0-1-1.7-.3-12.5 1.2-18.5 1.3-5 1.6-5.3 4-4.7 1.4.4 3.8 1.4 5.4 2.3zm41.6 11.7c1.6 1.9.5 3.2-1.3 1.7-.8-.7-1.7-.9-2-.5-.4.3-.7.2-.7-.4 0-2.5 2.2-2.9 4-.8zm-43.1 68.9c-.2.2-1.4.6-2.5 1-1.9.6-2.1.3-1.6-2.1.2-1.6 1-3.4 1.6-4.2.9-1.1 1.3-.8 2 1.8.5 1.7.7 3.3.5 3.5zm3.6 5.7c.4.6-.1 1.6-1 2.3-1.5 1.1-1.5 1.3-.1 2.5.9.8 1.6 2.1 1.6 3 0 .9 1.6 3.3 3.5 5.3 5.3 5.6 4.7 7-1.9 4.3-3.2-1.4-3.6-1.4-3.6 0 0 .9.7 1.8 1.5 2.1.8.4 1.5 1.2 1.5 2 0 1.9-4.2 5.9-6 5.8-4.6-.4-4.6-.4-2.7-1.5 2.1-1.2 2.2-2.3.1-4.4-1.3-1.3-5-13.6-4.2-13.9 4-1.5 8.4-4.8 8.6-6.5.4-2.3 1.7-2.8 2.7-1zm284.5 314.3c0 .3-.4.8-1 1.1-.5.3-1 .1-1-.4 0-.6.5-1.1 1-1.1.6 0 1 .2 1 .4z"/><path d="M86.908 494.914c-1.2 1.4-1.1 1.6.5 1.3 1.1-.2 2.1-1 2.4-1.7.5-1.7-1.3-1.5-2.9.4zM580.008 89.314c0 .5.6 1 1.3 1 .9 0 .8.3-.2.9-.8.5-.9 1.1-.3 1.5.5.3 1.3-.1 1.6-1 1-2.5.7-3.4-.9-3.4-.8 0-1.5.4-1.5 1zM741.208 199.014c-.8.8-1.1 2.1-.8 3 .4.8.2 2.1-.4 2.8-1.7 2 .6 2.9 3 1.2 1.1-.8 1.7-1.7 1.4-2-.4-.3-.9-1.9-1.3-3.5-.5-2.6-.8-2.8-1.9-1.5zM756.008 199.114c0 .5.7 1.3 1.6 1.6 1 .4 1.4.1 1.2-.6-.5-1.5-2.8-2.3-2.8-1zM760.708 204.914c-3.7 2.4-3.8 2.6-2.3 4.9 1 1.5 1.2 2.6.6 3-.6.4-.7 1.1-.4 1.7.4.6 0 1.4-.7 1.9-1.1.7-1 1.1.6 2.3 2.3 1.8 5.1 2 6 .6.3-.6 1.4-1 2.4-1 3.4 0 3.2-6.4-.1-6.5-1.1 0-1.1-.6.2-3.9.8-2.1.7-3.2-.1-4.2-1.5-1.8-1.7-1.8-6.2 1.2zM747.408 208.714c-.1 1.4.5 2.7 1.3 3 1.1.5 1.3.2.9-1-.3-.8-.6-2.2-.6-3 0-2.4-1.5-1.5-1.6 1z"/><path d="M743.808 214.014c-1.9.3-3 1.2-3.4 2.8-.3 1.3-1.5 2.7-2.7 3.1-2.1.7-2.1.7.3 2.6 1.6 1.3 3.2 1.7 5.1 1.3 3.7-.8 6.9.2 6.3 2-.3.8.1 2.4 1 3.7 1.3 1.8 1.6 1.9 1.6.5 0-1.5.8-1.7 5.9-1.3 3.3.2 6.5.7 7.1 1.1.8.5 1-.6.8-3.7-.3-4-.5-4.3-3.2-4.3-2.1 0-4.1-1.2-7.2-4.3-4.2-4.2-5.2-4.5-11.6-3.5zM653.908 224.714c-1.5 1-1.5 1.6-.4 4.3 1.3 3.1 3.5 5.2 3.5 3.4 0-.6.8-1.1 1.8-1.1 1.5-.1 1.4-.3-.5-1.9-1.1-1-2.3-2.7-2.5-3.9-.2-1.7-.6-1.9-1.9-.8zM659.508 238.814c4.3 2.6 6.5 3.1 6.5 1.5 0-.6-1.1-1-2.4-1-1.3 0-2.9-.7-3.6-1.5-.7-.8-2-1.5-2.9-1.5-.9 0 .2 1.1 2.4 2.5zM845.008 297.514c0 1.6.5 2.8 1 2.8 1.3 0 1.3-2 0-4-.8-1.2-1-.9-1 1.2zM742.008 477.614c0 .8-.9 1.8-1.9 2.2-2.4.7-5.4 5.2-4.1 6 1.9 1.2 8.2-7.7 6.6-9.2-.3-.4-.6.1-.6 1zM735.508 488.314c-.3.5-.1 1 .4 1 .6 0 1.1-.5 1.1-1 0-.6-.2-1-.4-1-.3 0-.8.4-1.1 1zM16.608 526.814c-.3.8-.1 1.5.4 1.5 1.3 0 2.2-1.8 1.1-2.4-.5-.3-1.1.1-1.5.9zM863.508 526.314c.3.5.8 1 1.1 1 .2 0 .4-.5.4-1 0-.6-.5-1-1.1-1-.5 0-.7.4-.4 1zM769.508 544.314c.4.6 0 2.1-.9 3.4-1.4 2.3-1.2 3.6.5 3.6.5 0 .6-.6.3-1.3-.3-.8.2-1.9 1-2.6 1.5-1.3 1.1-4.1-.6-4.1-.5 0-.6.5-.3 1zM664.008 788.714c0 .8.5 1.8 1 2.1.6.3 1-.1 1-.9s-.4-1.8-1-2.1c-.5-.3-1 .1-1 .9zM601.208 807.914c.4 2.1 2.2 2.3 2.6.1.2-1-.3-1.7-1.3-1.7s-1.5.6-1.3 1.6zM307.508 871.214c-.3.5-.1 1.2.5 1.6 2.1 1.3.9 2.5-2 2-2.5-.4-3-.2-3 1.5 0 1.1-.4 2-.9 2s-1.1 1.1-1.5 2.3c-.4 1.8-1.8 2.8-5.3 3.9l-4.7 1.5 3.1 1.7c4.1 2 4.3 2 4.3-.4 0-1.3.7-2 2-2s1.8-.5 1.4-1.5c-.4-1 0-1.5 1-1.5.9 0 1.9.6 2.2 1.4.8 2 5.7 3.6 7.7 2.5 2-1.2 1.1-3.9-1.3-3.9-2.3 0-2.3-4.6 0-6 1.1-.7 1.2-1.2.3-2.1-.6-.6-.9-1.8-.6-2.5.6-1.6-2.2-2-3.2-.5zm0 5c.3.5.1 1.2-.5 1.6-.5.3-1-.1-1-.9 0-1.8.6-2.1 1.5-.7z"/><path d="M304.008 872.314c0 .5.5 1 1.1 1 .5 0 .7-.5.4-1-.3-.6-.8-1-1.1-1-.2 0-.4.4-.4 1zM566.108 872.914c0 1.1.3 1.4.6.6.3-.7.2-1.6-.1-1.9-.3-.4-.6.2-.5 1.3zM344.808 884.014c.7.3 1.6.2 1.9-.1.4-.3-.2-.6-1.3-.5-1.1 0-1.4.3-.6.6zM285.108 886.714c-.7.8-.8 1.6-.4 1.9 1.2.7 5.3-1.1 5.3-2.3 0-1.5-3.6-1.2-4.9.4zM325.608 910.814c-.4 1.4-1.3 2.5-2.2 2.5-.9 0-1.4.6-1.1 1.2.2.7 1.5 1.3 2.8 1.3 1.3 0 2.7.4 3 .8.3.4.6-.8.7-2.7.2-4.4-2.3-6.8-3.2-3.1z"/></g></svg>