<svg version="1" xmlns="http://www.w3.org/2000/svg" width="1298.534" height="839.955" viewBox="0 0 973.901 629.966"><g fill="#222"><path d="M639.9.666c-.1.5-.1 1.1 0 1.5 0 .5-.3.8-.7.8-.5 0-.8 1-.8 2.2.1 1.4-.4 2.2-1.2 2-.9-.2-.9.5.3 2.8 1 1.9 1.2 3 .4 3-1.2 0-.3 5.9 1.2 7.4.5.6.9 1.9.9 2.9s.9 2.1 2 2.4c1.1.3 2 1.1 2 1.7 0 2.3 2.6 4.7 5.3 5 3.4.4 5.3-1.6 3.2-3.4-2.2-1.8-1.8-2.9.8-2.4 1.2.2 1.6.2 1-.2-2.6-1.2-1.2-2.5 2-1.9 1.7.3 2.7.3 2.1-.2-1-.7-.2-5.3.8-5.3.2 0 1.8.4 3.5.9 3.2.9 3.2.9 2.6-2.2-.3-1.8-1.4-3.8-2.4-4.6-1.1-.7-1.9-2-1.9-2.7 0-1.7 0-1.7-3.6 0-3 1.4-11.5.9-13.2-.9-.4-.4.3-.5 1.6-.2 1.2.3 2.2.2 2.2-.2 0-2.4-2.5-7.3-4-8.1-2.2-1.2-4-1.3-4.1-.3z"/><path d="M680.1 13.466c0 .5.6 2.1 1.4 3.5 2 3.6 1.9 4-1.7 4.1-2.8.2-2.9.2-.8.6 5.5 1 12.1 10.4 12.7 17.8.2 3.6.1 4.4-.6 2.9-1.3-2.9-5.6-5.5-6.9-4.2-1.4 1.4-3.2.1-3.2-2.3 0-1.1-.7-2.2-1.6-2.6-1-.4-1.4-1.3-1-2.8.8-3.1-1.5-5.7-5.4-6.2-2.2-.2-3.7.2-4.7 1.4-1.4 1.7-1.4 1.7-1-.2.3-1.7-.1-2.1-2.2-1.9-3.6.2-3.6.2-1.6 2.4 1 1.1 1.5 2.3 1.2 2.6-.4.4.5 1.5 1.8 2.6 1.5 1.2 2.5 3 2.5 4.5 0 2.1-.2 2.4-1.5 1.3-1.2-1-1.5-1-1.5.2 0 .8.5 1.9 1.2 2.6 2.1 2.1-1.7 3.3-5.4 1.7-1.3-.5-1.8-.3-1.8.8 0 .8-.7 1.8-1.6 2.1-2.1.8-2.1.8-2.1-.9 0-.9.6-1.4 1.3-1.1.8.3 1.1 0 .7-1-.3-.7-1-1.4-1.5-1.4-.6 0-.8-.7-.4-1.5.3-.8.1-1.5-.4-1.5-.8 0-2.6 3.9-2.2 5.1.1.4-2.8.7-6.3.7-7.5.1-10-1.6-6.2-4.1 1.9-1.2 2.3-2.2 1.9-4.5-.3-2.6-.8-3-2.9-2.6-3.5.7-6.7 5-7.3 9.9-.4 3.4-.9 4-2.7 3.9-1.3 0-2.3.5-2.3 1.2s-.6 1.5-1.2 1.8c-1 .5-1 .7-.1 1.2.7.3 2 2 2.8 3.8 1.9 3.9 6 5.6 13.4 5.6 5.4 0 9-1.3 10.4-3.7.7-1.2 1.2-1.2 3.3.2 1.3.8 4.9 1.7 7.9 1.8 3 .1 5.5.5 5.5.9 0 .5.5.8 1.1.8.6 0 2.4 1.1 4.1 2.5 1.6 1.4 3.5 2.5 4.3 2.5.7 0 1.8.7 2.5 1.5 1.5 1.8 5.5 2.1 4.4.3-.5-.7.4-.3 1.9.9 3.1 2.4 6.4 2 8.5-.9.7-1 2.1-1.8 3.1-1.8 1.5 0 1.8.7 1.5 4.1-.1 2.3-.5 4.4-.8 4.7-1 1 2.5 4.1 4.1 3.5.8-.3 2.1.4 2.9 1.6 1 1.4 2.2 2 3.4 1.6 2.4-.7 3.4 1.1 3.2 5.3-.2 2 .1 3.1.7 2.8.6-.4 1.5.4 2.2 1.6.7 1.3 2 2.9 3.1 3.6 1.3.9 1.6 2 1.2 3.8-.8 3 1 5.2 5.6 7.2 3 1.3 3.2 1.6 1.6 2.2-1.9.6-1.9.7.2 2.8 1.2 1.2 2.8 1.9 3.6 1.6 1.4-.5 1.7-1.9 1.8-9.2 0-3.1.3-4 1.1-3.4.8.7 2 .1 3.7-1.7 3-3.2 3.2-5.1.5-7.3-1.5-1.2-1.7-1.9-.9-2.8 1.3-1.3-.9-6.9-3.3-8.3-.7-.5-1.1-1.2-.9-1.6.3-.4-.7-1.4-2.2-2.2-3.3-1.6-11.2-7-14.6-10-2.5-2.2-3.6-4.7-1.6-3.4.7.4.9-.2.4-1.9-.7-2.9.9-3.5 3.5-1.2 1.8 1.5 6.1.5 6.1-1.5 0-1.6 5.9-.3 8.2 1.8 1 .9 1.8 2.2 1.8 2.9 0 .7 1.4 1.5 3 1.9 2.1.5 3.2 1.4 3.6 3.1.3 1.3 1.2 2.4 2 2.4s1.4.8 1.4 1.8c0 1.1.9 2.7 2 3.7 2 1.8 2.8 4.1 1 3-.6-.4-.7.1-.3 1.1.4 1.1.8 1.3 1.1.6.4-1.4 12.2 4.6 12.2 6.2 0 .6 1.4 1.7 3 2.4 2.1 1 3 2.1 3 3.6 0 1.3 1.6 4 3.6 6 2.8 2.9 3.5 4.2 3 6.1-.3 1.3-.2 2.7.4 3 .5.3 1 1.9 1 3.6 0 1.6.4 2.9 1 2.9.5 0 2.2 1.9 3.7 4.1 3 4.5 4.4 3.8 1.9-.9-.8-1.6-1.2-3.2-.9-3.6 1.5-1.4.1-10.4-2.4-15.5-2.1-4.4-2.3-5.5-1.2-6.2 1-.6 1.1-.9.2-.9-.7 0-1.2-.3-1.1-.8 0-.4-.2-1.5-.7-2.6-.9-2.1.8-3.6 4.3-3.6 1.2 0 2.2-.3 2.2-.7 0-.4-1.8-3.3-4-6.4-2.2-3.2-4-6.9-4-8.3 0-1.5-.9-4.5-2-6.6-2-4-2-4-.1-4 1.1 0 3.6-.9 5.5-2.1 2.8-1.6 3.5-2.6 3.4-4.7-.1-1.5-.9-3.2-1.7-3.8-1.5-1.2-2.2-6.4-.9-6.4.4 0 .8-.9.8-2.1 0-1.2.8-2.3 2-2.6 1.1-.3 2-.9 2-1.3 0-1.6-4-4.1-7.4-4.7-3.1-.5-3.6-.9-3-2.6.5-1.7.3-1.9-1.8-1.4-1.7.5-2.7.1-3.6-1.3-1.8-2.9-3.2-2.4-3.2 1 0 2.9-.2 3-3.5 2.8-1.9-.1-3.7-.8-4-1.6-.3-.9-1.3-1.2-2.5-.9-1.9.5-2.9-.8-1.2-1.5.5-.2 1.2-1.9 1.6-3.8.6-3.4.6-3.4-.9-1.3-1.3 1.8-2.6 2.3-6.4 2.3-4.1 0-4.9.3-5.9 2.5-.7 1.4-2 2.5-3.1 2.5-1 0-2.2.7-2.5 1.5-.4 1.2-1.4 1.4-4 1-3.3-.7-6.7.9-11.4 5.2-.7.7-2.4 1.3-3.7 1.3-1.3 0-2.7.4-3 1-.9 1.5-1.8 1.2-3.8-1.6-1.4-1.8-1.6-2.8-.8-3.8.8-.9.4-2.2-1.4-4.6-1.4-1.9-2.5-4-2.5-4.7 0-.8-1.2-1.3-3-1.3-2 0-3 .5-3 1.5 0 1.1-1.1 1.5-4 1.5-3.3 0-4-.3-4-2 0-1.1.6-2.1 1.3-2.2.6 0 1.8-.2 2.4-.2.7-.1 1.3-.5 1.3-.9v-2.1c0-.8-1-1.2-2.7-1.1-4.3.3-4.6.4-3.9 2 .4 1.3-.2 1.4-3.7.8-2.3-.3-4.7-1.3-5.4-2.2-.7-.9-1.2-1.2-1.2-.6zm-5.1 15c1.1 1.3 1 1.4-.4.9-.9-.3-1.6-1-1.6-1.5 0-1.3.6-1.1 2 .6zM623 53.166c0 1.2.3 1.7.8 1.2.4-.5 1.1-1.2 1.5-1.5.5-.3.2-.9-.7-1.2-1.2-.5-1.6 0-1.6 1.5z"/><path d="M740.6 81.866c-.3.5.1 1.1.9 1.5.8.3 1.5.1 1.5-.4 0-1.3-1.8-2.2-2.4-1.1zM733.1 114.566c0 1.1.3 1.4.6.6.3-.7.2-1.6-.1-1.9-.3-.4-.6.2-.5 1.3zM731.2 119.166c-.5.7-1.9 3.2-3.1 5.5-1.2 2.4-2.6 4.3-3.2 4.3-.6 0-.7.5-.4 1 .4.6.2 1.6-.3 2.3-.7.8-.6 1.8.4 3.1 1.1 1.6 1.6 1.7 2.9.6 1.2-1 1.8-1 3.2.1 1.4 1.2 1.6 1.2.8 0-.6-1.1-.4-1.3.8-.8.9.3 1.9.2 2.2-.4.4-.5-.1-1.2-.9-1.5-1.8-.7-2.2-6.9-.6-7.9 1.2-.8 1.3-7.5.1-7.5-.5 0-1.3.6-1.9 1.2zM784 125.966c.5 1 1 2.8 1 4 0 1.9 2.5 3.9 3.6 2.7.7-.7-2.9-7.6-4.4-8.1-.9-.4-1-.1-.2 1.4zM794 131.966c0 .5.5 1 1.1 1 .5 0 .7-.5.4-1-.3-.6-.8-1-1.1-1-.2 0-.4.4-.4 1zM945.1 136.066c-.5 1.6-1.5 2.9-2.1 2.9-.6 0-.9.3-.7.7.8 1.3-1.2 5.3-2.5 5.3-1.7.1-5.8 6.5-5.8 9.1 0 1.2-.7 1.9-2 1.9-1.1 0-2 .6-2 1.2 0 1-.2 1-.9 0-.6-1.1-1.1-1-2.5.4-1 .9-2.2 2.8-2.7 4.1-.4 1.2-1.5 2.3-2.4 2.3-1 0-1.5.9-1.5 2.6 0 2.6-.1 2.7-4.7 1.9-2.7-.4-5.8-.7-7-.6-1.2 0-2.5-.4-2.8-.9-.4-.6-1.4-.1-2.4 1.1-1.5 1.9-2.1 2-4 1-1.2-.7-4.6-1.3-7.7-1.5-4.3-.2-6-.8-8.3-3l-2.9-2.7-1 3c-.8 2.1-1.8 3.1-3.1 3.1-1.2 0-2.1.4-2.1.9 0 1.2-3.4.4-8.6-2-4.6-2.2-11.5-2.5-14.4-.7-1.5 1-2.2 1-2.8.2-1.1-1.9-8.4-4.5-10.4-3.8-1.2.4-2.4-.1-3.2-1.2-1.5-2-10.4-4.6-10.9-3.1-.3 1-15.7-6.1-21.9-10.1-3.3-2.1-4.2-3.7-5.4-9.6-.7-3.5-2.7-4.8-5.7-3.7-2.7 1-3.7 4.4-1.8 5.6 1 .6.9 4.4-.2 6.1-.7 1.3-.3 7.6.7 9.2.3.6.1 1.2-.5 1.4-.9.3-.9 1 .1 2.7.9 1.9.9 2.5 0 3.1-1.9 1.2-.4 2.8 5 5.5 2.6 1.3 5 3 5.2 3.7.3.7 2 1.3 3.8 1.3 2.8 0 3.7.6 4.9 3 3.7 7.7 4 8 7 8.3 3.3.4 5.4 2.4 5.7 5.5.3 4 1.6 6.6 3.5 7.2 1 .4 1.9 1.6 1.9 2.7 0 1.4-.5 1.8-1.5 1.5-1.6-.7-3 .8-1.6 1.7.5.3 2.2-.1 3.7-.9 3.7-1.9 4.8-1.9 6.5.1 2.7 3.3 12.9-.4 12.9-4.6 0-1 .7-2 1.5-2.4.8-.3 1.5-1.2 1.5-2 0-2.4-2.4-6.1-4-6.1-1.9 0-2.6-8.5-1-11.5.9-1.6.8-2-.5-2-.8 0-1.5-.7-1.5-1.5 0-2.1 2.4-1.9 4.5.5 1 1.1 2.5 2 3.3 2 1.4 0 6.2 4.4 6.2 5.8 0 .4.9 1.8 2 3.2 1.1 1.4 2 3.2 2 4 0 .8 1.8 3.2 3.9 5.2 4.2 3.9 4.4 5.7 1.2 11.7-1.4 2.6-.8 5.2 1.9 7.6 2.2 2 2.7 7 .8 7.9-1 .5-1 .7 0 1.2.6.3 1.2 1.2 1.2 1.9s.7 1.6 1.6 1.9c.8.3 1.2 1.1.9 1.6-.4.6-.1 1.7.5 2.6 1 1.1 1.6 1.2 2.7.2 1.3-1 2-.7 3.9 1.5 2.8 3.3 2.9 4 .9 6.1-.9.9-1.1 1.7-.5 2.1.5.3 1 1.6 1 2.8 0 3.1 2.6 6.5 5.3 6.9 1.9.3 2.2.9 2.2 4.8 0 4.5 0 4.5-3.5 4.5-3.8-.1-7.9 3.5-8 6.7 0 1-.9 2.2-2 2.8-1.1.6-2 1.9-2 2.9 0 1.9 3.4 5.4 6.3 6.4.9.4 1.7 1.2 1.7 2 0 .7 1.1 2.4 2.5 3.7 1.4 1.3 2.4 3.1 2.3 3.9-.4 2 6 2.2 7.1.3 1.3-2.3 8.1-2.4 8.1-.1 0 .4 1.6 2.4 3.6 4.3 2.4 2.3 3.4 4.1 3 5.1-.9 2.5.9 5.1 5.1 7.2 4.3 2.3 7.7 1.7 8.7-1.5 1.1-3.2 9.6-4.9 12.9-2.6 1.3.8 2.8.9 5 .3 1.7-.5 3.8-.7 4.7-.5 6.1 1.6 7 1.6 7 0s.2-1.6 1.8-.1c2.5 2.3 5.2-.1 5.9-5.2l.6-4.1h-4.1c-2.2 0-4.2-.5-4.4-1.1-.3-.9-.9-.9-2.5-.1-1.1.6-2.3.9-2.6.6-.6-.7 1.2-4.5 2.8-5.7.6-.4.4-1.1-.6-1.7-.8-.5-2.4-2.7-3.4-5-1-2.2-2.5-4-3.2-4-2.4 0-5.8-3.3-5.7-5.5.1-4 1.5-7.5 3-7.5 1.2 0 1.3-.4.4-2-.8-1.5-.7-3.1.3-6.2 1.1-3.1 1.2-4.7.4-5.9-.6-1-1.5-1.5-1.9-1.3-.4.3-.8-.1-.8-.9s.7-1.7 1.5-2.1c.9-.3 1.5-1.8 1.5-3.8 0-2.9.1-3 1.3-1.3 1 1.2 1.6 1.4 2.1.7.4-.7 1.6-1.2 2.7-1.2 2.6 0 2.6.1-1.5-7.7-2.5-4.9-2.1-7.2 1.4-8 2.5-.5 2.9-.9 2.4-2.6-.5-1.5-.3-1.9.9-1.4 1.9.7 3.1-2.1 1.7-3.8-.8-.9-.6-1.4.5-1.9 1.6-.6 2.1-3.6.7-3.6-.5 0-1.3-1.5-1.9-3.4-1-3.1-.8-3.6 2.7-6.9 2.1-2 4-4.4 4.2-5.4.2-1 1.2-1.9 2.3-2.1 1.4-.2 3.2-2.7 5.9-8.3 2.8-5.6 4.6-8.1 6.2-8.5 2.2-.6 3.4-3.1 3.3-6.9-.1-1.6-.2-1.5-.8.5-.5 1.8-1.4 2.5-3.1 2.6-3.4.1-7 1.4-7 2.6 0 .5-1.5-.3-3.4-1.7-2.4-1.8-3.2-3.1-2.9-4.5.3-1.2 0-2-.7-2s-1 .7-.6 1.5c.3.8-.3 2.2-1.2 3.1-1.6 1.7-1.7 1.7-2 0-.3-1.2-1-1.6-2.3-1.3-1.7.5-1.9 0-1.8-4.4.1-2.8.6-5.2 1.1-5.5.4-.3.8-1.6.8-3 0-1.7.5-2.4 1.9-2.4 1.1 0 2.3.5 2.6 1 .4.6 1 .8 1.4.5 1-.6.2-5.3-1-6.1-.5-.3-.9-1.2-.9-2s.5-1.2 1-.9c.6.3 1-.3 1-1.3 0-1.3-.6-1.9-1.7-1.8-1.1 0-2.4-1.2-3.3-3.1-2.1-4.4-4.6-4.9-5.9-1.2zM722.5 141.266c-.5 1-1.8 1.7-3.5 1.7-2.2 0-2.7.4-2.3 1.8.5 2-3.8 4.6-5.3 3.2-1.1-1.1-10.4 0-10.4 1.1 0 .5-.7.9-1.5.9-2.2 0-1.9 4.2.5 7.3 2.3 2.9 2.5 4.3.7 5.4-.8.4-1.6 1.6-2 2.6-.4.9-1 1.6-1.4 1.5-2-.4-6.3 1.6-6.3 2.9 0 .8-.4 1.2-.9.9-.5-.3-1.1.3-1.4 1.4-.7 2.6-3.9 2.6-5.5 0-1-1.6-1-2 0-2 .7 0 .5-.5-.5-1.1-.9-.6-2.6-.8-3.6-.4-1 .3-2.3-.1-3-.9-.7-.8-2.6-1.8-4.2-2.1-1.6-.4-2.9-1-2.9-1.4 0-.4-2.2-.3-5 .3-3.1.6-5 1.5-5 2.4 0 .7-.5 1-1.1.6-.7-.4-.9 0-.5 1.3.6 1.7.1 2.1-3.3 2.7-3.6.5-4 .9-4.3 3.8-.3 3.1-.6 3.3-6.2 4.4-5.2 1-6.3 1-8.5-.4-2.4-1.6-2.5-1.6-1.8.1 1 2.6-.8 5.3-3.8 6.1-1.8.5-2.5 1.3-2.5 3 0 3-1.8 4.9-6.2 6.5-1.8.7-4.1 1.7-5.1 2.2-1.3.7-1.9.5-2.3-.6-.5-1.3-.8-1.4-1.8-.1-1.8 2.2-6.1 2.7-9.2 1.1-2.5-1.3-2.9-1.2-4.1.5-1.5 2.1-4.3 2.7-4.3 1.1 0-.6-2-1.3-4.5-1.7-5-.7-6.5-2.4-6.5-7.4 0-2.5.3-3.1 1.6-2.6.9.3 2.6-.2 3.9-1.2l2.4-1.9-2.9-2.2c-2.9-2.1-7.6-3-6.5-1.1 1 1.6 0 1.1-3.1-1.5-1.6-1.4-3.2-2.5-3.6-2.5-.5 0-.8-.7-.8-1.5s.4-1.5.8-1.5c1.1 0 .3-5.8-.9-6.6-.5-.3-.9.2-.9 1.1 0 .9-.6 1.5-1.2 1.2-.7-.2-1.3-1.4-1.2-2.5 0-1.2-.5-2.3-1.1-2.6-.8-.3-1.2 1.1-1.1 4.2 0 2.6-.3 6.1-.7 7.9-1 4.5.7 8.6 3.3 7.8 1.4-.5 2-.2 2 1 0 .9.5 1.3 1.1 1 .6-.4.8-1.4.4-2.4-.4-1.1-.3-1.3.4-.6.6.6.8 2 .5 3.2-.7 2.4-4.4 3.9-4.4 1.7 0-.7-1.2-1.7-2.7-2-1.6-.4-3.8-1.5-4.9-2.6-1.2-1-2.5-1.8-3-1.7-.5.1-1.1 0-1.4-.1-3.7-1.5-11-1.3-12.9.3-1.8 1.7-8.6 1.3-11-.6-1.2-.9-1.3-.9-.7 0 .5.9.1 1.3-1.1 1.3-1 0-3.3.9-5.2 2.1-2 1.2-4.6 1.9-6.4 1.7-4.1-.4-6.1 2.6-3.2 5 1.2 1 1.9 2.6 1.7 4-.4 2.8-3.6 6.2-5.7 6.2-.8 0-1.5.9-1.5 1.9 0 1.1-.4 2.3-1 2.6-.5.3-1 1.5-1 2.6s-.7 1.9-1.6 1.9c-1.2 0-1.5 1-1.3 5.3.1 2.9-.1 5.8-.5 6.5-.3.6-.4 2.1-.1 3.4.5 1.8-.2 3.1-2.5 5.3-2.8 2.6-3.8 3-8.5 2.8-4.1-.1-5.3.1-4.9 1.1.4 1-.7 1.2-4.8.8-2.9-.2-5.9-.9-6.5-1.4-.9-.7-1.8-.7-2.7.1-1.1.9-1.9.9-3.5 0-1.7-1.1-2.3-1-4.6 1.3-2.5 2.5-2.8 2.6-10.2 1.9-.7-.1-1.3-1.1-1.3-2.3 0-1.7.3-1.9 1.2-1 1.3 1.3 4.8 1.6 4.8.4 0-.4-1.1-1.9-2.5-3.4-2.5-2.7-5-2.8-8.8-.3-1.5 1.1-1.6 1.4-.2 2.5 2.1 1.7.9 3-2.7 3-2.4 0-2.8-.3-1.9-1.4 1.6-1.9.2-7.8-2.3-9.8-1.9-1.5-1.9-1.7-.4-2.3 1.8-.7 1.7-1.3-1.5-8.5-1.3-3-1.6-4.5-.8-4.8.6-.2.9-.8.5-1.3-.3-.5 0-.9.5-.9 1.4 0 1.4-4.5.1-10.7-1-4.3-1.4-5-4.6-5.9-2.2-.7-3.7-.8-4.1-.1-.3.5-2.1.7-3.9.4-2.9-.5-3.3-.3-3.1 1.5.3 2.7-4.6 3.3-8.5 1-3.2-1.9-3.4-2.5-1.3-4.2 2.2-1.8 1.8-3-1-3-2.1 0-2.5-.5-2.5-2.9 0-4.5-3.9-10-7.2-10.1-1.4 0-3.3-.3-4.1-.6-.8-.3-2.2.3-3.1 1.2-1 .9-3.1 1.7-4.7 1.8-1.9.1-2.7.5-2.4 1.3.2.7 0 1.3-.5 1.3s-.9.8-.8 1.7c.3 3.9-.3 5.3-2.7 5.9-3.6.9-3.3 4.7.5 7.6 3 2.2 4.1 5.7 1.8 5.9-.7.1-1.7.2-2.3.4-.5.1-2.2.3-3.7.3-2.3.2-2.8.7-2.8 2.8 0 2.1-.4 2.4-2 1.9-2.1-.7-2.8 1-.7 1.8.9.4.9.6 0 .6-.7.1-2-1-2.8-2.3-2.2-3.3-4.9-4.3-4.2-1.5.5 2-.5 3.8-4.5 8.1-1 1-1.8 2.6-1.8 3.6s-.5 2.9-1.2 4.3c-.9 1.9-1.9 2.5-4.7 2.6-4.7.1-9.4 1.3-10.6 2.8-1.4 1.8-9.8 3.6-13.3 2.9-2.9-.6-3-.4-3.7 3.5-.4 2.2-.3 4.5 0 5.2.5.7.1.9-1.2.5-1.5-.5-2.3.2-3.7 2.6-.9 1.8-3 5.5-4.6 8.3-1.6 2.7-2.8 5.5-2.6 6.1.3.6 0 1.6-.6 2.2-.7.7-.7 1.6 0 2.7.6 1.1.6 3.3 0 5.7-.6 2.8-.5 4.5.3 5.4.7.8.9 1.7.6 2.1-.4.3 0 1.4.7 2.5 1.9 2.7-.1 7-2.9 6.1-1.7-.5-1.8-.4-.7.9 2.7 3.3-1.3 12.4-5 11.5-1-.3-2-.1-2.3.4-.3.4-1.2.6-2 .2-1.7-.6-1.9.9-.6 3.5.5.9 1.7 3.5 2.6 5.7 1 2.2 2.4 4.8 3.3 5.7 1 1.3 1.1 1.8.3 1.8-.7 0-.9.5-.5 1.1 1.1 1.8-1.7 5.9-4 5.9-1.2 0-3.6-1.3-5.4-3-2.4-2.2-4.2-2.9-6.7-2.8-3 .1-3.4.4-2.9 2 .5 1.7.1 1.8-3.8 1.2-2.4-.3-4.9-.7-5.6-1-.7-.2-1 .1-.7.6.9 1.5-.4 5-1.9 5-.8 0-1.1 1-.8 3 .5 3.4.3 3.5-3.3 1.8-2.7-1.2-3.4-3.8-1.1-3.8 2.2 0 3-1.9 1.6-3.5-1-1.2-.9-1.5.6-1.6 1.1-.1 2.2-.1 2.7 0 1.4.2.7-2.8-.8-3.7-2-1-.9-4.5 1.2-3.8 1.1.4 1.1.1.3-1.4-.7-1.4-.7-2 0-2 2.1 0 .9-2.1-1.7-3-5-1.8-8.8-4.3-11.6-7.7-2.7-3.1-3-3.2-5-1.8-1.2.8-3.6 1.5-5.4 1.5-2.3 0-3.3.5-3.3 1.5 0 1.2-.7 1.4-2.7.9-1.6-.4-3-1-3.3-1.4-1.2-1.6-4.1-1.9-4.6-.5-.9 2.2-1.8 1.8-3-1.3-.7-1.7-2.7-3.5-5.6-5-2.5-1.2-5.4-3.4-6.3-4.9l-1.8-2.6-1.8 3.8c-1 2.1-1.6 4.1-1.4 4.5.3.4-.2 1-1 1.4-2.2.8-1.8 2.8 1.4 7.1 2.7 3.7 3.1 7.5.8 7.5-.6 0 .1 1.3 1.6 2.8 3.7 3.8 3.6 6.4-.1 2.9-1.5-1.5-3.4-2.7-4-2.7-.7 0-2.1-.6-3.2-1.2-2.1-1.3-5.9 0-5.2 1.8.5 1.1-2.6 2.2-6.3 2.3-1.8.1-3.5.9-4.2 2-.8 1.3-1.9 1.8-3.2 1.4-1.1-.3-4 .1-6.3.8-2.4.8-7.1 1.4-10.5 1.4-3.5 0-6.3.4-6.3.9 0 .6-1.5-.4-3.3-2.2-1.8-1.8-4.3-3.2-5.6-3.2-1.5 0-3.5-1.4-5.5-3.7-5.1-6-8.7-9.3-9.7-8.8-.4.3-1.1 2.2-1.5 4.2-.4 2.3-1.3 3.7-2.5 4-1.1.3-1.9 1.1-1.9 1.8 0 2.7-6.1 5.2-14.9 6-3 .3-4.8 1.1-5.8 2.5-.8 1.2-2.1 1.9-2.9 1.6-.9-.3-1.6.4-2 1.9-.7 2.9-.5 2.8-3.9 1.5-2.4-.9-2.6-.8-2.1.6.4 1-.1 2.2-1.1 3-1.4 1-1.4 1.3-.4 1.4.8 0 2.3-.7 3.3-1.6 1.4-1.3 2.1-1.4 3.2-.5 1 .8 1.5.9 1.8.1.2-.6 1.2-.2 2.5 1 1.2 1.1 2.6 2 3.1 2 1.7 0 5.2 4.6 4.2 5.6-.5.5-1.1 2.3-1.4 3.9-.2 1.7-.7 3.8-1.1 4.8-.4.9-.5 2.6-.2 3.7s.1 2.3-.5 2.6c-.5.3-.6 1.3-.3 2.3.4.9.8 2.3.9 3.1.4 2.5 1.8 5 2.6 4.5.4-.2.5.7.2 2-.2 1.4-1 2.5-1.8 2.5-.7 0-2.4.4-3.8 1l-2.5.9 2.3 5.3c1.9 4.3 3.2 5.7 6.7 7.5 2.4 1.3 4.9 2.3 5.5 2.3 1.3 0 4.4 6.3 4.4 9 0 1 .5 2.2 1.1 2.6.6.3.7.9.2 1.3-2.6 1.8-3.9 5.7-3.1 8.8.5 1.8 1.3 3.3 1.8 3.3s1.2.9 1.5 2c.4 1.1 1.5 2 2.7 2 1.1 0 2.2.8 2.5 2 .3 1.1 1.3 2 2.2 2 .9 0 2.2.5 2.7 1 .7.7 2.1.7 4.2-.1 4.1-1.4 6.3-.6 5.9 2.3-.1 1.8.4 2.4 2.3 2.6 3.6.5 5.1 2.8 3.8 5.8-.7 1.4-1.7 2.3-2.4 2-.8-.3-1.1 0-.7 1 .3.9-.1 1.4-1.3 1.5-1.8 0-1.8.1.1.8 1.7.7 1.7.8-.8 1.5-3 .7-3.5 2.7-1.2 4.6 2 1.6 2 7 .1 7-.8 0-2.2 1-3.1 2.2-1.3 2-1.7 2.1-2.5.8s-1.1-1.3-1.9-.1c-.5.8-1.4 1-2.1.6-.7-.4-1.6-.2-2 .6-.6.9-2.2-.2-5.9-4.2-4.9-5.2-5.1-5.3-5.1-2.7 0 3.5-1.3 3.5-8.6.3-5-2.2-6.1-2.4-8.9-1.3l-3.3 1.1 1.7 3.3c.9 1.9 2.2 3.4 2.9 3.4.6 0 1.2 1 1.2 2.2 0 1.3.3 3.3.6 4.5.5 1.8.1 2.3-2 2.9-1.4.3-2.6.9-2.7 1.3 0 .3-.2 4.2-.4 8.5s-.9 8.2-1.5 8.6c-.6.4-.8 1.4-.4 2.3.4 1-.6 3-2.5 5.4-1.7 2.1-3.1 4.9-3.1 6.3 0 3-5.6 9-8.4 9-.9 0-1.4.4-1.1 1 .3.5-.1 1-.9 1-.9 0-1.6.5-1.6 1.1 0 .6-.9.9-1.9.6-1.4-.3-1.8-.1-1.4.9.3.8 1.3 1.4 2.2 1.4 2 0 5.1 5.3 4.1 7-.5.9-.9.9-1.4.1-1.2-1.9-4.6-1.2-7.3 1.5-1.9 1.9-3.2 2.4-4.9 2-1.8-.5-2.4-.2-2.4 1 0 .9-.9 1.8-2 2.1-1.1.3-2 .8-2 1.2 0 1.3 4 7.1 4.9 7.1.5 0 1.2 2.6 1.6 5.7.6 4.6.4 5.9-.9 6.9-1 .7-1.6 2.6-1.6 4.9 0 2.9-.7 4.4-3.4 7.1-1.9 1.9-4.1 3.4-5 3.4-1.8 0-2 .8-.6 3 .5.9.5 1.9-.1 2.6-.6.7-.4 1.6.6 2.4.8.7 1.2 1.6.9 2.2-.3.5-1.2.4-2-.3-1.1-.9-2.1-.8-4.4.1-3.8 1.6-5.4 4.4-4.6 8.1.4 2.4 0 3.1-2.9 4.9-2.4 1.5-3.5 2.9-3.5 4.6 0 1.3-.4 2.4-1 2.4-.5 0-1.7.8-2.7 1.9-1 1-3.1 2.2-4.8 2.5-4.1.9-10.3 6.5-8.4 7.6 1.8 1.2 4.6-.5 6.4-4 1.5-2.9 3.2-3.5 7.9-3 1 .1 2.2-.4 2.6-1 .6-.9 1.3-.9 2.9-.1 1.9 1 2.5.8 4.6-1.7 3.6-4.3 7.4-5 10.1-1.9 2.6 3.1 9.1 5.4 10.7 3.8 1.4-1.4 5.2-1.4 7.8 0 1.4.7 2.4.7 3.3 0 1.4-1.1 5.6-.4 5.6 1.1 0 .5-.7.5-1.8-.1-1.6-.8-1.7-.6-1.4 2.5.2 1.9.9 3.4 1.4 3.4.6 0 .8-.9.5-2-.6-2.3-.3-2.4 2.3-.8 1.7 1.1 2.2.9 3.7-1.2 1-1.4 1.7-2.7 1.6-3-.1-.3.9-1.1 2.3-1.8 2.5-1.3 3.3-4.9 1.4-6.8-.8-.8-.6-1.5.5-2.4 1.9-1.6 1.9-2.9-.1-6.9-.9-1.8-1.4-4-1.1-5 .7-2.8-.3-3.8-5.8-5.4-4.8-1.3-5-1.6-5.1-5.1-.1-2.8.3-3.6 1.6-3.6 1.9 0 3-1.9 3-5.1 0-1 .5-1.9 1-1.9.6 0-.4-2.7-2-6.1-1.7-3.3-2.9-6.6-2.7-7.2.2-.7 0-2-.5-3s-1.2-3.9-1.4-6.4c-.4-4-.3-4.4 1.5-3.8 1.7.5 1.8.2 1.1-3-.7-3-.6-3.4.6-2.4.8.6 2.3.9 3.4.6 1.1-.3 2.3-.1 2.6.4 1.4 2.3 2.6.7 2.1-2.6l-.6-3.5 3.2 1.6c6.9 3.6 6.9 3.6 7.8 2.2 1.3-1.9 1.1-2.8-.6-3.4-.8-.4-1.5-1-1.5-1.6 0-.5.5-.6 1-.3.6.3 1 .1 1-.6 0-.6-.8-.9-2-.6-1.7.4-1.9.1-1.4-2.1.4-1.5 1.1-3.1 1.5-3.7.5-.5.9-1.7.9-2.7 0-1 .6-2.1 1.4-2.4.8-.3 1.1-1.4.9-2.8-.4-1.9.1-2.5 2.1-3 3.6-.9 3.7-4.5.1-3.8-2.3.4-2.5.1-2.5-3.2 0-2 .4-3.6.9-3.6s1.3-1 1.7-2.3c.4-1.2 1.2-2.6 1.8-3 .8-.6.8-1-.1-1.4-.7-.2-1.3-1.6-1.3-3 0-2.1.2-2.3 1.5-1.3 1.2 1 1.7.7 2.7-1.4.6-1.5 1.9-2.6 2.7-2.5 3.7.3 4.9-.3 7.3-3.7 1.5-2.1 2.9-3.1 3.2-2.5.4.6 1.8 1.1 3.1 1.1s2.7.5 3 1c.5.8 1.1.7 2.1-.1.8-.6 1.4-.8 1.4-.3s.4.3.9-.5c.8-1.2 2.1-1.3 7.4-.5 6.4 1 6.5 1 5.1-1-.8-1.1-1.4-4-1.4-6.4 0-4.2.1-4.4 2.4-3.8 1.4.3 3.6.1 5-.5 3.5-1.6 9.7-.3 10.3 2.2.3 1.2 1.1 1.8 1.9 1.5.7-.3 1.9.1 2.7.8 2.5 2.5 5.4 2.7 9 .6 2.4-1.4 3.7-1.7 4.2-1 .5.8 1.2.7 2.3-.2 1.5-1.3 9.7-1.8 10.5-.7.2.2 1.1 1.7 2 3.2 1.6 2.4 2 2.6 3.2 1.3 1.4-1.4 5.9-1.1 5 .3-.2.4.7 2.6 2 4.9 2.1 3.7 2.2 4.3.8 5.1-1 .5-1.4 1.5-1 2.5.4 1-.4 3.3-1.8 5.6-1.8 2.9-2.1 4-1.1 4 .7 0 2.1 1.1 3 2.5 1 1.6 2.6 2.5 4.2 2.5 1.4 0 2.2-.4 1.9-1-.3-.6-.1-1 .4-1 2 0 4.6-3.5 4.3-5.8-.2-1.2.2-2.2.8-2.2.6 0 .8-.5.4-1.1-.4-.8 0-.9 1.5-.4 1.7.5 2.1.2 2.1-1.4 0-1.5.6-2.1 2.3-2.1 1.3 0 2.7.4 3.3.9.5.5 2.4 1.1 4.3 1.3 3.3.3 3.5.1 4.2-3.2.4-1.9.3-4.3-.3-5.3-.5-1.1-.8-3-.5-4.3.6-3.1-.8-4-2.9-2-2.5 2.6-5.8 1.8-4.7-1 .4-1.1.9-1.2 1.9-.3 1.6 1.3 4.4-.4 4.4-2.6 0-1.5 4.2-2.8 5-1.6.3.4 1.3 1.1 2.4 1.4 1.4.6 1.7.3 1.2-.8-.5-1.4-.2-1.4 2.4 0 3.7 1.9 4 1.9 4-.5 0-1.1.4-2 .8-2s.8-1.6.9-3.5c.1-2 .7-4.2 1.3-5 .7-.8.9-1.5.5-1.5s-.1-.8.6-1.7c1.2-1.5 1.2-1.6-.3-1-1.2.4-1.8.2-1.8-.7 0-2.1 6.2-1.8 7.7.4 1.5 2.1 5.3 1.6 5.3-.6 0-2 .3-1.8 6.4 2.3 3.1 2.1 5.7 4.6 6.1 6 .6 2.6 3.5 3.2 3.5.7 0-.8.5-1.2 1-.9.6.4 1 1.2.8 1.8-.4 2.3 3.6 7.8 5.4 7.3.9-.2 1.9.3 2.3 1.2.5 1.4.7 1.4 1.5.2.5-.8.7-1.7.5-2-.9-1.5 13.5-1.4 14.9 0 .5.5 2.4 1 4.1 1 1.7 0 4 .7 5.1 1.5 1 .8 2.6 1.5 3.5 1.5.9 0 2.8.9 4.2 2 3.3 2.6 3.4 2.6 2.9-1-.4-2.5-.1-3 1.6-3 1.1 0 2.2-.7 2.6-1.5.3-.8.9-1.5 1.3-1.4.8.1 1.2 0 3.1-.6.4-.2 1.7-.6 2.8-1 1.5-.5 2-1.3 1.7-2.6-.3-1 0-1.9.6-1.9s1.1-1.3 1.1-2.9c0-1.7.6-3.1 1.5-3.5 1-.4 1.4-1.3 1-2.8-.3-1.3.3-4 1.5-6.3 1.1-2.1 2-4.4 2-4.9 0-.6 1.2-2 2.8-3.2 2.2-1.9 2.5-2.6 1.6-4.1-.6-1-1-2.9-.9-4.3.3-3.2-3.4-10-5.4-10-1.2 0-1.3-.2-.4-.8 1-.6 1-1.2-.3-2.8-.8-1-1.2-1.3-.9-.6.6 1.1.3 1.2-1.3.3-3.1-1.6-3.9-3.5-1.3-2.7 1.1.3 3 .9 4.2 1.2 1.1.3 3.4 0 5.1-.7 2.6-1.1 3.2-1 4.2.3.7.9 2.8 2 4.6 2.5 3 .8 3.6 1.4 4.1 4.7.5 2.9.3 3.6-.7 3.2-2-.8-1.7 0 .7 2.3 1.7 1.6 2.6 1.7 4.9 1 2.2-.8 2.7-1.5 2.3-3.2-.3-1.6-.2-1.8.5-.8s1.4 1 3 .2c1.6-.9 2.7-.5 5.9 1.8 3.8 2.8 4 2.8 5.2.9.6-1 1.6-1.6 2.1-1.3.6.3 1-.3 1-1.5v-2.1l2.9 2c2.5 1.8 3 1.9 4.1.6.7-.8 2.6-1.5 4.2-1.5 2.5 0 2.8-.3 2.3-2.1-.5-1.5-.3-2 .6-1.7.7.2 1.4 1.8 1.4 3.6.1 4.1 1.2 5.1 2.1 1.8.3-1.4.9-2.4 1.4-2.1.4.2 1.5-.2 2.6-.9 1.6-1.2 2.2-1 5.3 1.5 1.9 1.5 3.8 2.6 4.3 2.3.4-.3 2.2.4 3.8 1.6 1.7 1.2 3 1.7 3 1.1 0-.6-.5-1.1-1.2-1.1-.6 0-.9-.3-.5-.6.3-.3-.2-2-1.2-3.7-2.3-4.4-.8-9.1 2.6-8.2 1.7.4 2.3.1 2.3-1.1 0-1.3.3-1.4 1.4-.5 1.2 1 1.5.6 2.1-1.8l.7-3.1 4 2.1c3.7 1.9 4.2 2 5 .5.9-1.5 1.2-1.5 4.2.4 2.2 1.3 5.1 2 8.4 2 8.8 0 20.1 9.5 15 12.6-1.8 1.1 2.9 2.5 6 1.8 5.4-1.2 6.1-1.5 6.7-3.4.3-1 1.9-2.2 3.6-2.5 1.6-.4 4.2-1.8 5.8-3.1l2.9-2.4 3.4 1.9c4.8 2.8 7.9 3.6 7.3 1.9-.3-.8.5-2 1.9-2.8 2.4-1.2 2.8-1 7.5 3.3 2.8 2.6 5.5 4.7 6.2 4.7.6 0 .9.7.5 1.5-.8 2.2 4.6 7.8 9 9.4 4.5 1.6 5.4 2.6 5.4 6.3 0 1.5.5 3 1 3.3.6.3 1 2.2 1 4.1 0 2.9.5 3.7 2.8 4.5 3.5 1.2 8 8.5 6.3 10.2-1.5 1.5-1.4 3 .2 2.4 2-.7 8 2.1 7.1 3.4-.4.8.1.9 1.7.4 7.6-2.4 8.9-3.7 6.5-6.4-.9-1-1.6-2.1-1.6-2.5 0-.8 4.5-2.6 7.5-3.1 1.1-.1 2.8-.6 3.8-1s3.1-.5 4.8-.1c3 .6 3 .5 2.6-2.7-.7-4.5-1.6-6.4-3.5-7.2-1.3-.5-.5-1.1 2.8-2.4 4.1-1.5 4.5-2 4.5-5.1 0-1.9.4-4.2 1-5 .5-.8.8-2.9.6-4.5-.2-2.4.7-4.1 3.9-7.6 3-3.3 3.9-5 3.5-6.7-.5-2-.2-2.2 2.9-2.2 4.5 0 7.4-3.4 5.1-6-1.7-1.9-1-3 1.7-3 1.5 0 1.8-.5 1.3-2.1-.6-1.8-.4-1.9 1.3-1 2.3 1.2 3.2-.2 3.2-5.2 0-2.1.7-3.6 2-4.5 1.6-.9 1.9-1.9 1.4-4-.4-1.5-1-3.1-1.4-3.6-.5-.4-.4-2.1 0-3.6.5-1.6.6-3.1.4-3.3-.3-.3.2-3.2 1-6.5.9-3.3 1.6-7.1 1.6-8.5 0-2 .6-2.6 3.2-3.1 1.7-.3 2.8-.9 2.5-1.3-.4-.3 0-1.5 1-2.5 1.5-1.7 1.5-2-.5-4.8-2.5-3.3-2.8-4.4-1-3.8 1.4.5 5.8-3.1 5.8-4.7 0-.7 1.6-2.9 3.5-4.9 1.9-2.1 3.5-4.4 3.5-5.2 0-.8 1-1.4 2.3-1.4 1.3 0 3.2-.6 4.3-1.4 1.5-1.2 1.7-1.7.7-2.7-1.6-1.6-1.7-6.5-.2-7.4.5-.4.8-1.2.6-1.8-.2-.7.2-3 1-5.1.7-2.2 1.2-4 1.1-4.1-.2-.1-1.3-.8-2.5-1.4-1.3-.6-2.3-1.8-2.3-2.6 0-1.7-5.6-4.9-7.5-4.2-.7.3-1.8 0-2.4-.6-.8-.8-1.1-.6-1.1.8 0 1.6-.3 1.5-2.3-.6-1.3-1.3-2.2-2.6-2-2.8.2-.2-.6-1-1.7-1.8-2-1.4-2.9-5-1-3.8.7.4.9-.2.5-1.8-.5-1.7-.2-2.6.9-3 2-.8 2-4.6.1-7.1-2-2.6-1.9-3.6.4-3.6 2.4 0 3.7-6.8 1.7-8.8-2-2 .8-7.6 3.5-6.9 1.3.4 2.1-.3 2.8-2.4.6-1.9.6-3.1 0-3.5-.5-.3-.7-1.4-.4-2.4.7-2.3-1.1-6.1-2.8-5.9-4.4.5-7.7-2.8-7.7-7.6 0-4.1.2-4.2 4.7-1.4 2.4 1.5 3.8 1.8 4.5 1.1.6-.6 1.7-.8 2.4-.5.8.3 2.1 0 2.9-.7.8-.7 2.1-1 3-.7.8.4 1.7.2 2-.3.4-.6 1.5-1 2.5-1 1.1 0 2.7-1.2 3.7-2.8.9-1.5 1.8-2.8 1.9-3 .1-.2 1.3.2 2.6.8 1.8 1 1.7.6-.9-1.9-2.9-3-3.2-4.3-1.6-7.3.2-.5 1.7-.1 3.3.7 3.7 1.9 3.9 1.9 3.3-.4-.3-1.1-1.5-2.2-2.8-2.5-2.5-.6-7.5-6.6-5.5-6.6.7 0 1-.7.6-1.5-.3-1 .1-1.5 1.1-1.5.9 0 2.1-.7 2.8-1.6 1.1-1.5 1.4-1.5 3.7 0 1.3.9 2.8 1.3 3.1 1 .4-.4 1.3-.1 2.2.6 1 .8 1.5.9 1.5.1 0-.6.8-1.1 1.8-1.1 2.6 0 6.7-2.5 6.5-3.8-.2-.7.4-1.2 1.2-1.2.8 0 1.5-.4 1.5-1 0-1.9 3.5-5 5.7-5 1.6 0 2.3-.6 2.3-1.9 0-1 .6-2.4 1.4-3.1.8-.6 1.2-1.9.9-2.8-.4-1.3-.3-1.4.5-.3 1.1 1.5 3.2.7 3.2-1.2 0-.7 1-1.7 2.3-2.2 1.2-.6 2.3-2 2.5-3.3.2-1.3 1-2.2 2-2.2 2.3 0 6.2-6.3 6.2-10 0-1.7.4-2.9.9-2.6 1.8 1.1 1.8-3.2 0-5.5-1.6-2.1-1.8-2.2-2.4-.6zm-139.8 56.9c1.3 2.1 1.2 3.8-.2 3.8-1.2 0-2.5-2.1-2.5-4.1 0-1.3 1.8-1.1 2.7.3zm59 99.8c.2 2.2.1 2.3-2.1 1.4-.8-.3-1.2-1.2-.9-2 .8-2.1 2.9-1.7 3 .6zm7 16.6c-.3.3-1.2.4-1.9.1-.8-.3-.5-.6.6-.6 1.1-.1 1.7.2 1.3.5zm-418.4 2.6c1.6-1.3 4.2.1 3.2 1.8-.4.6-1.4.9-2.2.6-.8-.4-1.1-.1-.7.5.9 1.5-5.7.8-7.3-.8-1.7-1.5-1.6-2.3.2-2.3.8 0 1.5-.5 1.5-1.2 0-.6.9-.3 2 .7 1.4 1.3 2.3 1.5 3.3.7zm413.7 11.8c0 .5-.4 1-.9 1-.6 0-1.3-.5-1.6-1-.3-.6.1-1 .9-1 .9 0 1.6.4 1.6 1zm-352 43c0 .5-.5 1-1.1 1-.5 0-.7-.5-.4-1 .3-.6.8-1 1.1-1 .2 0 .4.4.4 1zm6.4 2.9c.8 1.3-.3 1.9-2.4 1.4-1.1-.3-1.7-.9-1.4-1.4.7-1.1 3.1-1.2 3.8 0zm-.4 15.7c0 .2-.7.4-1.5.4s-1.5-.4-1.5-1c0-.5.7-.7 1.5-.4.8.4 1.5.8 1.5 1zm-3.4 5.9c-.8 2.1-2.3 1.8-3.7-.6-1-1.9-.8-2 1-1.4 1.4.4 2.1.2 2.2-.7 0-1 .2-1 .6 0 .3.7.2 1.9-.1 2.7zm5 12.2c-.3.8-.6 1.7-.6 2 0 .3-.7 0-1.5-.7-2.2-1.9-1.9-3.9.6-3.3 1.2.4 1.8 1.1 1.5 2zm-25.6 33.7c0 1.1-1.9 1.5-2.5.6-.3-.5.1-1 .9-1 .9 0 1.6.2 1.6.4zm-15 4.9c1.5-.4 2 0 2 1.6 0 2.5-.3 2.6-3.5.5-1.4-.9-2.5-2.4-2.5-3.3.1-1.5.1-1.5 1 .1.6 1 1.8 1.4 3 1.1zm-181 133.7c0 .5-.2 1-.4 1-.3 0-.8-.5-1.1-1-.3-.6-.1-1 .4-1 .6 0 1.1.4 1.1 1z"/><path d="M672.7 162.366c-.3.8.5 1.8 1.9 2.5 2.2 1 2.4.8 2.4-1.4 0-1.8-.5-2.5-1.9-2.5-1 0-2.1.6-2.4 1.4zM421 166.166c-.1 1.3-.9 3.7-1.8 5.5-1.3 2.5-2.1 3-3.2 2.3-2-1.3-4-1.3-4 0 0 .5.5 1 1.2 1 .6 0 2.2 1 3.5 2.2 1.9 1.8 2.3 1.9 2.3.5 0-.9 1.1-2.4 2.5-3.3 1.4-.9 2.5-2.6 2.5-3.8.1-1.9.2-2 1.4-.4 1.4 1.9 2.8 1.4 2-.7-.4-.9.1-1.2 1.4-.8 2.4.6 3.6-2.1 1.6-3.7-1.1-1-1.4-1-1.4-.1 0 .7-.4 1-.8.7-.5-.3-2.3-.8-4-1.1-2.8-.5-3.2-.3-3.2 1.7zM588 180.966c0 .5.5 1 1.1 1 .5 0 .7-.5.4-1-.3-.6-.8-1-1.1-1-.2 0-.4.4-.4 1zM454 224.266c0 2.3 1.1 4.7 2.1 4.7 1.5 0 1-3.7-.6-5-1.2-1-1.5-1-1.5.3zM649.6 271.866c-.3.5 0 1.4.8 2 1 .9 1.5.8 1.9-.3.9-2.2-1.5-3.7-2.7-1.7zM953.5 303.966c-.4.6-1.8 1-3.1.7-2.2-.4-2.9.3-2.5 2.6.1.4-.6 1-1.4 1.3-1.7.7-2.1 3.4-.5 3.4.6 0 1.3-.7 1.7-1.5.7-1.9 6-4.8 7.3-4 1.2.8 1.3-.5.1-2.4-.6-1-1-1-1.6-.1zM113.5 328.966c-.3.5-.1 1 .4 1 .6 0 1.1-.5 1.1-1 0-.6-.2-1-.4-1-.3 0-.8.4-1.1 1zM101.4 331.666c-1 .8-2.7 1.2-3.6.9-1-.2-1.8-.1-1.8.2 0 .4-1.4 1.5-3.1 2.5-2.5 1.4-3 2.2-2.4 4 .3 1.2 1 3.5 1.5 5.2.4 1.6.8 2.4.9 1.7.1-.6.9-1.2 2-1.2 1 0 3.2-.5 5-1.1 2.5-.9 3.1-1.7 3.1-3.9 0-1.6.7-3.5 1.5-4.3.8-.8 1.1-1.8.7-2.1-.3-.4-.1-1.1.7-1.5.9-.6.8-.9-.6-1.3-1.1-.3-2.8.1-3.9.9zM85.8 347.666c-1 .2-1.8 1-1.8 1.6 0 1.8-5.2 6.7-7.2 6.7s-4.3 3.6-2.9 4.4c.5.4 1.1 0 1.4-.6.3-1 .9-1 2.7 0 1.2.8 2 1 1.7.5-1.1-1.7.8-2.9 5.7-3.9 4.9-.9 4.9-.9 5.3-5.2.4-4.4-.1-4.8-4.9-3.5zM69.4 363.466c-.4.8-1.3 1.5-2 1.5-.8 0-1.7.7-2.1 1.5-.3.9-1.3 1.5-2.2 1.3-.9-.1-2.2.1-2.9.6-.7.4-1.9.3-2.7-.4-1.2-1-1.5-.9-1.5.7 0 1 .5 2.4 1.1 3 .8.8.3 1.5-1.8 2.5-2.6 1.3-2.8 1.7-2.5 6.3.2 3 .9 5.3 1.8 5.8.8.4 1.4 1.8 1.4 3s.7 3.5 1.5 5.1c1.8 3.5 1.8 3.6.1 3.6-1.4 0-3 2.9-2.1 3.8.3.3.5.2.5-.3 0-.4.7-.2 1.5.5 1.2 1 1.7.5 3-2.5.8-2.1 1.5-4.3 1.5-4.9 0-.6 1.6-3.6 3.5-6.6 2.9-4.6 3.4-6 2.8-8.5-1.4-5.3-.9-12 1-13.9.9-1 1.7-2.2 1.7-2.7 0-1.4-1-1.1-1.6.6zM45 402.066c-1.9.4-6.2 1.4-9.5 2.1-3.3.7-6.5 1.6-7 2-.6.4-1.7.3-2.5-.3-2.9-1.8-3.9-.9-4.5 4.6-.8 5.9-1.6 7.1-5.5 7.7-1.4.2-2.4.8-2.3 1.4.1.6-1.6 2.4-3.8 4-3.5 2.5-3.9 3.3-3.5 6 .4 2.8 0 3.4-3 5-1.9 1-3.4 2.1-3.4 2.4 0 .8 7.7 3 10.5 3 1.6 0 2.5-.6 2.5-1.5 0-.8.7-1.5 1.5-1.5s1.5-.7 1.5-1.6c0-.8.4-1.3.9-.9.5.3 1.2.1 1.5-.3.3-.5 2.9-1 5.7-1.1 2.9-.1 5.8-.6 6.4-1.1.7-.5 1.4-.8 1.7-.5.9 1 9.3-7.9 11-11.7.9-2.1 2.4-3.8 3.3-3.8.9 0 1.5-.9 1.5-2.4 0-1.3.7-2.9 1.5-3.6.8-.7 1.5-2 1.5-3s.8-2.1 1.8-2.5c1.5-.6 1.4-.8-.8-2-1.4-.8-2.7-1.4-3-1.3-.3 0-2.1.4-4 .9zM435 407.366l-1.3 2.5-4.8-1.9c-2.7-1-5.8-1.6-6.9-1.3-1.8.5-1.8.7-.5 2.6 2.3 3.3 1.8 3.9-2.7 3.5-3.9-.4-4.6 0-8.6 3.9-2.3 2.4-4.7 4.3-5.2 4.3-.6 0-1 .7-1 1.5 0 .7-.7 1.8-1.6 2.3-1.1.6-1.3 1.1-.5 1.6.6.4 1.1.2 1.1-.3 0-.6.5-1.1 1.1-1.1.6 0 2.2-.9 3.6-2 3.7-2.9 5.3-2.6 5.3 1 0 1.6-.4 3-1 3-2.2 0-.8 1.9 2.1 2.9 4.7 1.6 5.1 1.4 4.9-2.2-.3-5.3-.1-6.9 1.1-6.2.5.4 2.1.4 3.5.1 1.9-.5 2.4-1.1 1.9-2.6-.5-1.7-.2-2 2.4-2 1.7 0 3.1-.5 3.1-1 0-.6 1.8-1 4-1s4-.5 4-1c0-.6.7-1 1.5-1 1.6 0 2-3.5.9-6.4-.9-2.5-4.9-1.9-6.4.8zM149.2 414.066c.2.7 1 1.5 1.7 1.7.8.3 1.2-.1.9-.9-.2-.7-1-1.5-1.7-1.7-.8-.3-1.2.1-.9.9zM124 424.466c0 3-.3 3.6-1.2 2.7-.9-.9-1.6-.8-3 .4-1.6 1.5-2 1.5-4.3 0-1.5-1-3.1-1.6-3.6-1.4-1.9.6 10.6 7.8 13.5 7.8 1.6 0 3.7.7 4.5 1.4 1.1 1 2.1 1.2 3.1.6 1.3-.8 1.2-1-.3-1-1.1 0-2-1-2.3-3-.4-1.6-1.1-2.7-1.6-2.4-.5.3-.6-.5-.3-1.8.4-1.7-.1-3-1.9-4.8l-2.6-2.3v3.8zM183.5 457.166c-1.2 1.8-1.2 2.4-.3 2.7.7.2 2.3 1.3 3.6 2.5 2.1 1.9 2.2 1.9 1.6.2-.5-1.4-.4-1.7.4-1.2s1.2-.2 1.2-2.2c0-2.7-1.4-4.2-4-4.2-.5 0-1.6 1-2.5 2.2zM190.8 464.666c.7.3 1.6.2 1.9-.1.4-.3-.2-.6-1.3-.5-1.1 0-1.4.3-.6.6zM39.4 590.866c1 1.1 1.6 2.8 1.3 3.8-.4 1.5-.5 1.4-.6-.4-.1-2.5-3.7-4.1-5.4-2.4-.8.8-.8 1.1.1 1.2.7.1 1.8.2 2.5.3.6 0 1.4 1.2 1.5 2.5.2 1.5 0 2.1-.7 1.7-.6-.4-1.1-.2-1.1.3 0 1.2 2.9 1.4 5.4.5.9-.3 1.6-1.2 1.6-2 0-1.3 2.3-3 4.5-3.4.6-.1 1.2-.4 1.5-.7.3-.3-1-.2-2.7.2-2 .4-3.3.3-3.3-.3s-1.4-1.5-3.2-2.1c-3-1.1-3.1-1.1-1.4.8zM19 593.966c0 .5-.7 1-1.5 1s-1.5.4-1.5 1c0 .5.7.7 1.5.4.8-.4 1.5-.1 1.5.6s.8.9 2.1.5c1.6-.5 2-.3 1.7 1.2-.2 1.4.4 1.9 2.9 2.1 2.1.2 3.4 1 3.8 2.3.4 1 1 1.7 1.5 1.4.5-.3.7-1.2.3-2-.3-.8 0-1.5.6-1.5 2.3 0 .9-2-3.3-5-4.3-2.9-9.6-4-9.6-2zM33.5 595.966c.3.5.8 1 1.1 1 .2 0 .4-.5.4-1 0-.6-.5-1-1.1-1-.5 0-.7.4-.4 1zM45 600.466c0 1.1-1 1.5-3.5 1.5-1.9 0-3.5-.5-3.5-1 0-.6-.4-1-1-1-.5 0-1 1.2-1 2.6 0 1.7-.6 2.8-2 3.1-3.1.8-2.5 4.3 1 5.6 1.7.6 3 1.5 3 1.9 0 .4.9.8 1.9.8 1.1 0 2.2.6 2.5 1.2.4.7.4.3.2-.9s.3-3.1 1.1-4.3c.8-1.1 1.2-2.7.9-3.5-.3-.9.1-1.5.9-1.5s1.5-.7 1.5-1.5c0-1.2.4-1.3 2.5-.3 1.4.6 2.8.8 3.2.5.8-.8-.1-1.8-1.9-2.1-.7-.1-2.3-.8-3.5-1.4-1.9-1.1-2.3-1-2.3.3zM47.3 618.766c-.9.6-.6 1.7 1.2 4.4 1.4 2.1 2.5 4.4 2.5 5.2 0 .9.4 1.6.9 1.6.7 0 .7-1.1-.3-7.6-.6-4-1.9-5.1-4.3-3.6z"/></g></svg>