<?xml version="1.0" standalone="no"?>
<!DOCTYPE svg PUBLIC "-//W3C//DTD SVG 20010904//EN"
 "http://www.w3.org/TR/2001/REC-SVG-20010904/DTD/svg10.dtd">
<svg version="1.0" xmlns="http://www.w3.org/2000/svg"
 width="748.004089pt" height="982.014852pt" viewBox="0 0 748.004089 982.014852"
 preserveAspectRatio="xMidYMid meet">
<metadata>
Created by potrace 1.15, written by Peter Selinger 2001-2017
</metadata>
<g transform="translate(-624.439636,1451.303224) scale(0.100000,-0.100000)"
fill="#222222" stroke="none">
<path d="M10614 14490 c-32 -16 -66 -34 -74 -39 -8 -5 -23 -12 -33 -15 -15 -5
-18 -15 -17 -49 2 -23 2 -48 1 -54 -1 -18 -21 -16 -21 1 0 7 -11 16 -25 18
-29 6 -31 -2 -9 -43 12 -25 21 -30 44 -27 21 2 34 -4 50 -25 13 -16 28 -26 35
-23 16 6 29 -37 20 -65 -4 -10 -13 -19 -22 -19 -14 0 -14 -2 0 -18 10 -10 17
-28 17 -39 0 -38 70 -81 104 -65 11 6 33 13 47 16 15 3 29 14 32 26 3 12 13
20 27 20 11 0 18 5 15 10 -5 9 16 14 53 13 6 -1 12 5 12 13 0 8 10 14 26 14
17 0 28 6 31 19 5 20 59 35 69 19 3 -5 9 -6 14 -3 5 3 11 -4 15 -15 3 -11 11
-20 16 -20 5 0 18 -14 29 -32 21 -35 19 -61 -11 -117 -18 -34 -18 -34 9 -67
15 -18 32 -33 39 -33 34 -2 17 -61 -17 -61 -24 0 -24 1 -3 -41 14 -26 18 -30
21 -16 4 18 5 18 23 1 18 -16 19 -16 20 7 1 13 1 29 0 35 -1 7 9 9 23 7 18 -4
26 0 31 17 5 17 12 20 31 16 20 -5 32 2 67 39 47 49 58 53 77 30 7 -9 19 -14
25 -11 7 2 18 -1 24 -7 16 -16 24 -2 11 22 -6 12 -9 25 -6 30 10 15 -29 19
-42 4 -7 -7 -18 -10 -24 -7 -7 4 -5 10 6 16 13 7 14 12 3 28 -6 11 -19 20 -28
20 -9 0 -20 7 -23 16 -3 9 -13 14 -21 10 -8 -3 -19 3 -25 13 -5 10 -21 22 -35
25 -26 7 -32 29 -15 56 6 9 5 19 -3 29 -7 8 -10 15 -8 15 8 2 -11 46 -19 46
-5 0 -7 -7 -4 -15 4 -10 0 -15 -10 -15 -9 0 -20 10 -25 23 -11 27 -33 48 -57
51 -9 1 -24 18 -33 36 -10 21 -29 39 -48 47 -32 13 -33 12 -33 -12 0 -45 -45
-28 -66 25 -12 31 -25 42 -65 59 -27 12 -54 19 -59 16 -14 -9 -70 23 -70 40 0
8 -4 16 -10 16 -20 3 -25 4 -36 11 -6 4 -37 -6 -70 -22z m726 -540 c0 -5 -7
-10 -16 -10 -8 0 -12 5 -9 10 3 6 10 10 16 10 5 0 9 -4 9 -10z"/>
<path d="M11125 14330 c4 -6 1 -17 -5 -25 -10 -12 -10 -15 1 -15 8 0 20 4 27
9 11 6 10 11 -3 25 -18 18 -30 21 -20 6z"/>
<path d="M8000 14223 c0 -7 -7 -13 -15 -13 -8 0 -17 -11 -21 -25 -4 -16 -13
-25 -25 -25 -10 0 -19 -4 -19 -10 0 -5 -7 -7 -15 -4 -8 4 -15 1 -15 -5 0 -7
-6 -8 -17 -2 -10 4 -33 13 -50 19 -32 10 -33 10 -35 -21 -1 -18 -1 -44 0 -59
2 -23 -5 -30 -45 -48 -67 -29 -153 -98 -153 -122 0 -11 -5 -18 -12 -15 -20 7
-48 -12 -48 -33 0 -26 -40 -38 -55 -16 -7 9 -16 16 -20 16 -4 0 -18 11 -31 25
l-24 26 25 11 c14 6 25 19 25 28 0 9 5 21 12 28 8 8 8 15 -3 28 -9 12 -10 15
-1 10 15 -9 15 2 -1 31 -13 23 -13 23 -29 -10 -9 -17 -19 -40 -22 -49 -3 -10
-14 -18 -24 -18 -34 0 -82 -22 -82 -36 0 -8 7 -26 16 -40 15 -23 15 -26 0 -43
-11 -12 -16 -36 -16 -79 0 -57 -2 -62 -21 -62 -19 0 -21 -4 -16 -40 3 -22 2
-40 -3 -40 -4 0 -10 -9 -13 -20 -3 -14 -14 -20 -31 -20 -17 0 -26 -6 -26 -15
0 -9 -11 -20 -25 -27 -19 -8 -22 -15 -15 -28 6 -11 3 -26 -10 -48 l-19 -32 32
-30 c34 -31 77 -40 77 -16 0 8 9 18 20 21 22 7 26 21 8 27 -6 2 -8 10 -4 17 6
9 11 8 22 -6 31 -41 3 -136 -38 -130 -12 2 -30 -5 -40 -15 -27 -27 -54 -23
-143 21 l-79 39 -38 -19 c-20 -10 -42 -19 -47 -19 -6 0 -22 18 -37 39 -30 46
-60 57 -87 33 -11 -10 -31 -15 -48 -14 -23 3 -29 0 -29 -16 0 -32 -24 -45 -38
-21 -9 15 -17 17 -29 10 -13 -7 -26 -1 -55 21 -31 25 -40 29 -52 19 -8 -7 -20
-10 -26 -6 -5 3 0 -10 11 -30 13 -21 27 -34 35 -31 7 3 24 -4 37 -14 13 -11
27 -17 29 -14 3 2 8 -14 12 -38 5 -32 3 -44 -8 -50 -13 -7 -13 -12 0 -36 7
-15 17 -26 20 -24 4 2 15 -9 25 -24 13 -20 15 -32 8 -41 -6 -7 -10 -36 -8 -65
4 -83 1 -93 -33 -112 -28 -17 -29 -20 -15 -31 23 -17 22 -21 -12 -35 -25 -10
-29 -17 -26 -40 7 -54 40 -88 79 -81 12 3 76 -60 76 -75 0 -6 7 -14 15 -18 23
-8 18 -25 -10 -36 -18 -7 -25 -17 -25 -35 0 -19 -5 -25 -21 -25 -12 0 -27 8
-34 17 -12 15 -13 15 -19 -3 -4 -12 -27 -29 -60 -43 -30 -12 -62 -31 -71 -42
-10 -10 -29 -19 -41 -19 -21 0 -23 -4 -17 -30 3 -20 1 -30 -6 -30 -7 0 -9 -4
-6 -10 11 -17 -47 -11 -60 6 -11 15 -12 15 -10 -4 1 -12 9 -30 18 -40 27 -29
22 -80 -8 -94 -19 -8 -22 -14 -13 -20 10 -6 10 -10 -2 -17 -12 -9 -11 -14 8
-34 17 -18 22 -35 22 -75 0 -35 5 -54 15 -60 23 -12 0 -160 -28 -185 -15 -13
-18 -24 -13 -53 4 -21 3 -41 -4 -49 -8 -10 -4 -14 20 -17 25 -4 30 -1 30 16 0
20 1 20 19 -4 15 -19 22 -22 33 -12 28 22 112 -14 148 -64 25 -35 100 -83 100
-65 0 12 55 -24 87 -56 19 -19 26 -20 63 -11 34 9 48 7 82 -8 31 -14 43 -15
46 -6 2 6 10 12 17 12 7 0 15 5 17 11 3 8 16 6 42 -5 37 -15 38 -15 33 4 -3
11 -1 23 4 26 5 3 9 -1 9 -9 0 -8 7 -21 16 -28 14 -11 20 -9 43 16 22 26 32
30 69 27 39 -3 46 -7 70 -48 29 -48 42 -55 42 -23 0 18 2 19 15 9 12 -10 15
-9 15 8 0 28 26 48 37 28 11 -20 53 -10 53 13 0 20 51 23 63 4 17 -27 30 -13
24 27 -3 27 -1 43 9 51 8 6 14 17 14 25 0 20 17 26 39 15 12 -7 17 -18 14 -30
-5 -20 28 -47 41 -33 4 3 10 2 14 -4 4 -6 24 -9 45 -6 33 4 40 10 56 46 14 31
29 45 54 54 38 14 58 38 76 94 13 40 36 55 57 37 11 -9 18 -8 32 4 11 10 22
13 28 8 5 -5 18 -6 28 -2 17 7 18 8 3 14 -9 3 -17 2 -17 -4 0 -5 -14 6 -31 25
-26 30 -33 34 -49 24 -25 -16 -35 -5 -20 22 10 19 9 24 -9 37 -12 8 -19 18
-16 23 3 5 1 11 -4 15 -7 4 -7 15 -1 31 14 37 12 52 -7 50 -11 0 -18 7 -19 19
0 11 -8 34 -17 52 -12 23 -13 33 -5 35 9 3 7 15 -6 42 -29 61 -31 103 -8 144
11 20 23 64 27 97 5 33 14 78 22 99 12 36 12 41 -7 61 -15 16 -17 24 -8 33 7
7 18 12 25 12 6 0 15 16 19 35 4 26 13 37 30 41 30 8 57 49 49 75 -5 15 0 22
23 30 16 5 35 22 41 36 l12 26 20 -22 c26 -27 43 -27 62 2 14 21 13 24 -4 36
-17 10 -18 13 -5 26 8 8 16 20 18 26 3 9 9 9 26 0 19 -10 22 -9 23 6 1 10 1
22 0 27 -1 4 5 13 14 20 14 10 13 15 -5 51 -11 22 -19 49 -18 60 2 11 -5 28
-14 38 -25 24 -22 37 7 37 21 0 25 5 26 33 1 17 1 35 0 40 -2 11 24 8 36 -4
16 -16 54 6 47 29 -29 89 -42 109 -58 88 -10 -14 -34 -20 -63 -17 -7 0 -13 10
-13 21 0 11 -4 20 -9 20 -4 0 -6 -12 -3 -27 4 -22 2 -25 -12 -20 -10 4 -22 7
-27 7 -5 0 -9 11 -9 24 0 14 -4 28 -10 31 -17 11 -11 25 11 25 31 0 69 43 57
65 -7 12 -5 22 9 37 10 11 17 21 15 22 -2 0 1 14 7 29 6 16 11 34 11 41 0 8 6
19 14 25 18 15 26 57 13 70 -6 6 -8 11 -4 11 3 0 2 11 -3 26 -8 21 -6 29 15
50 14 14 25 26 25 28 0 2 -12 7 -26 10 -22 6 -24 9 -13 22 10 12 7 20 -16 44
-16 17 -36 30 -45 30 -19 0 -50 30 -50 48 0 6 -13 27 -30 45 -16 19 -30 44
-30 55 0 33 -11 52 -31 52 -10 0 -23 8 -28 18 -6 9 -11 11 -11 5z m72 -1198
c6 -13 15 -22 20 -19 5 3 17 -1 28 -11 19 -18 17 -50 -6 -59 -20 -8 -59 16
-61 39 -1 11 0 14 3 7 3 -6 9 -10 14 -7 10 6 1 45 -10 45 -4 0 -10 7 -14 15
-9 25 14 17 26 -10z"/>
<path d="M11588 14028 c-3 -7 -26 -19 -52 -27 -49 -14 -60 -37 -30 -62 13 -10
17 -10 25 2 7 11 9 10 10 -6 1 -11 1 -23 0 -27 0 -4 6 -5 14 -2 18 7 18 10 5
35 -8 15 -7 19 5 19 9 0 15 9 15 24 0 14 7 26 15 28 9 2 12 8 6 16 -7 11 -9
11 -13 0z"/>
<path d="M10663 13985 c-7 -8 -13 -23 -13 -35 0 -14 -7 -20 -24 -20 -15 0 -26
-7 -29 -19 -2 -11 -32 -32 -71 -51 -61 -30 -70 -32 -104 -22 -30 10 -39 9 -47
-2 -6 -8 -17 -10 -30 -5 -11 4 -39 5 -62 2 -25 -3 -62 1 -96 12 l-54 17 -51
-26 c-62 -31 -83 -33 -100 -5 -13 20 -14 20 -26 3 -9 -12 -15 -14 -20 -5 -4 6
-12 8 -18 5 -6 -4 -17 1 -24 11 -10 14 -17 15 -27 7 -11 -9 -16 -7 -25 13 -8
18 -22 26 -51 31 -25 4 -42 13 -46 23 -2 9 -14 22 -25 29 -20 12 -20 11 -10
-7 8 -16 7 -27 -6 -47 -14 -21 -15 -30 -6 -45 15 -23 9 -24 -23 -3 -15 10 -25
12 -25 5 0 -15 -19 -14 -51 3 -25 13 -28 12 -37 -9 -8 -17 -17 -22 -31 -18
-13 3 -21 1 -21 -7 0 -8 -6 -9 -17 -5 -50 21 -120 -19 -115 -65 2 -22 -4 -28
-43 -44 -25 -11 -45 -24 -45 -31 0 -6 -11 -17 -25 -23 -14 -6 -25 -16 -25 -22
0 -6 -10 -8 -24 -4 -31 7 -74 -30 -86 -76 -27 -104 -38 -133 -52 -141 -11 -6
-14 -21 -12 -61 6 -85 11 -96 44 -103 16 -4 30 -10 30 -14 0 -13 -24 -31 -43
-31 -11 0 -15 -4 -11 -12 5 -8 2 -9 -10 -5 -11 4 -27 -3 -47 -20 -26 -24 -40
-28 -97 -29 -40 0 -76 5 -89 13 -20 11 -23 11 -23 -1 0 -18 -70 -28 -88 -12
-19 18 -74 7 -80 -16 -3 -11 -10 -17 -18 -14 -10 4 -14 -2 -14 -18 0 -19 -7
-25 -35 -30 -19 -4 -35 -12 -35 -18 0 -7 -19 -9 -55 -6 -30 3 -52 1 -49 -4 3
-4 -15 -8 -40 -8 -32 0 -48 5 -56 18 -7 11 -10 12 -7 2 2 -8 -4 -23 -13 -33
-10 -10 -15 -27 -12 -42 4 -21 1 -25 -21 -25 -14 0 -28 -3 -30 -8 -8 -11 29
-52 47 -52 8 0 27 -11 42 -25 30 -28 80 -55 101 -55 7 0 13 -4 13 -9 0 -14 29
-41 45 -41 7 0 15 8 18 19 3 14 11 17 31 14 14 -3 26 -12 26 -20 0 -8 5 -11
10 -8 6 3 10 -1 10 -9 0 -8 9 -24 21 -35 14 -13 17 -21 9 -26 -8 -5 -5 -11 7
-20 15 -11 16 -18 7 -44 -9 -24 -9 -34 3 -51 8 -11 19 -18 24 -14 14 8 49 -25
49 -48 0 -10 4 -18 9 -18 11 0 17 -17 27 -72 6 -36 5 -38 -20 -38 -16 0 -26
-5 -26 -15 0 -8 -7 -15 -15 -15 -8 0 -15 -4 -15 -10 0 -5 -6 -10 -13 -10 -8 0
-19 -11 -25 -25 -7 -14 -23 -30 -37 -35 -14 -5 -25 -16 -25 -24 0 -18 -47 -36
-89 -33 -28 2 -36 7 -45 32 -11 31 -28 37 -59 19 -15 -8 -16 -15 -8 -36 5 -14
15 -29 20 -33 6 -3 11 -17 11 -31 0 -15 15 -38 39 -62 38 -35 39 -39 34 -86
-5 -42 -10 -49 -34 -58 -35 -12 -36 -18 -4 -68 29 -46 33 -90 8 -90 -9 0 -24
-7 -34 -16 -16 -14 -18 -14 -24 5 -7 24 -16 26 -33 9 -8 -8 -15 -8 -27 2 -13
11 -15 9 -16 -11 -1 -13 -2 -31 -3 -39 0 -8 -12 -17 -26 -20 -18 -4 -21 -8
-12 -14 7 -4 11 -14 8 -22 -3 -8 -1 -14 4 -14 6 0 10 5 10 12 0 6 9 3 20 -7
22 -20 19 -53 -7 -68 -8 -5 -11 -16 -8 -28 4 -11 0 -30 -9 -43 -9 -15 -14 -42
-12 -72 1 -27 -2 -55 -7 -62 -5 -7 -7 -31 -4 -53 4 -34 2 -42 -13 -46 -11 -3
-16 -11 -13 -19 3 -8 -1 -14 -8 -14 -19 0 -41 -53 -38 -87 3 -33 -16 -73 -36
-73 -7 0 -15 -6 -18 -12 -3 -10 -7 -10 -19 0 -13 10 -17 8 -23 -20 -8 -31 -8
-32 -12 -8 -3 14 -20 39 -37 55 -27 24 -39 29 -62 24 -16 -4 -24 -7 -18 -8 11
-1 25 -46 26 -86 1 -48 -11 -145 -20 -162 -16 -30 -17 -65 -3 -116 10 -33 11
-51 4 -58 -14 -14 9 -58 39 -76 l23 -14 -22 6 c-41 11 -22 -27 29 -58 26 -16
46 -9 33 13 -3 6 1 7 9 4 24 -9 20 -19 -25 -61 -72 -67 -80 -76 -69 -87 14
-14 12 -36 -4 -36 -9 0 -15 -19 -19 -61 -4 -42 -12 -68 -26 -83 -22 -24 -27
-51 -11 -61 14 -9 -8 -48 -23 -42 -8 3 -13 -12 -15 -47 -2 -28 -7 -53 -11 -56
-6 -4 -27 -68 -36 -105 -1 -5 -19 -10 -41 -10 -35 0 -41 -4 -59 -40 -16 -30
-28 -41 -49 -43 -18 -2 -30 -11 -33 -23 -3 -10 -13 -19 -23 -19 -10 0 -21 -7
-24 -16 -4 -11 -15 -15 -34 -12 -25 3 -28 1 -24 -17 3 -16 -9 -33 -42 -62 -25
-22 -46 -44 -46 -49 0 -5 -23 -32 -51 -60 -44 -45 -51 -57 -52 -95 -2 -39 -6
-46 -35 -59 -29 -13 -32 -18 -27 -47 7 -41 -3 -83 -21 -83 -15 0 -19 -16 -15
-64 2 -20 -6 -37 -26 -58 -25 -26 -28 -36 -26 -86 2 -95 8 -146 16 -159 5 -8
4 -13 -2 -13 -6 0 -11 -11 -11 -24 0 -13 -9 -30 -19 -37 -26 -19 -32 -55 -8
-51 24 4 21 -11 -5 -23 -32 -15 -32 -29 1 -64 29 -31 68 -35 57 -5 -4 10 1 11
19 4 24 -9 25 -8 25 30 0 58 19 63 126 37 6 -2 19 -11 29 -21 13 -13 20 -14
25 -6 4 7 32 14 62 16 50 4 56 2 91 -31 20 -19 41 -35 46 -35 5 0 11 -6 14
-14 8 -20 60 -28 73 -10 14 17 -5 84 -23 84 -15 0 -28 44 -18 59 3 6 -1 11 -9
11 -9 0 -16 7 -16 15 0 9 7 15 17 13 9 -2 22 6 27 17 6 11 15 27 21 35 5 8 8
39 6 68 l-3 53 39 -19 c24 -12 45 -17 58 -12 11 4 23 6 28 3 10 -6 9 -91 -3
-98 -24 -15 4 -31 54 -31 l53 1 -8 28 c-4 16 -13 35 -20 43 -6 8 -9 23 -6 33
6 23 -15 45 -56 60 -15 6 -27 16 -27 24 0 17 89 16 99 -2 6 -8 17 -11 31 -6
16 5 29 0 49 -19 24 -23 31 -25 61 -16 43 12 40 13 40 -4 0 -8 -5 -16 -11 -18
-9 -3 -9 -10 0 -27 9 -15 16 -19 24 -12 8 6 20 5 37 -4 14 -8 34 -14 46 -15
23 0 64 -39 64 -60 0 -10 5 -9 19 4 10 9 22 16 27 15 22 -4 34 2 34 16 0 8 5
15 10 15 6 0 10 -9 10 -20 0 -11 -6 -20 -12 -20 -10 0 -10 -2 0 -8 7 -5 12
-17 11 -28 -4 -38 1 -65 11 -59 6 3 10 -1 10 -9 0 -9 -5 -16 -11 -16 -13 0
-33 -20 -42 -42 -5 -14 3 -23 34 -38 35 -18 40 -19 45 -5 6 14 9 14 28 1 26
-17 76 -24 93 -13 21 13 126 6 152 -10 12 -8 31 -13 41 -10 21 5 34 -16 31
-50 -1 -11 3 -24 8 -28 7 -3 11 3 12 17 1 15 3 18 6 6 7 -25 30 -29 36 -6 6
21 -26 57 -50 58 -15 0 -17 16 -4 24 5 3 12 -1 15 -9 5 -13 10 -14 26 -5 16 9
25 8 36 -1 11 -9 17 -9 29 1 8 7 26 9 43 5 25 -5 33 -1 55 28 17 23 24 42 21
58 -5 23 -5 23 10 5 8 -10 17 -23 18 -27 2 -5 17 -10 35 -13 22 -2 34 1 38 13
3 8 1 17 -4 19 -6 2 -11 8 -11 12 0 5 14 4 30 -1 22 -8 30 -17 30 -36 0 -18 5
-24 18 -21 9 2 16 11 16 20 -1 14 6 12 44 -8 25 -13 51 -24 59 -24 7 0 17 -8
20 -17 4 -10 19 -30 35 -45 19 -18 26 -32 21 -44 -5 -13 -3 -16 8 -12 20 8 41
-16 26 -31 -8 -8 -6 -14 6 -24 25 -18 13 -73 -18 -81 -25 -6 -42 -35 -22 -37
7 -1 26 0 42 1 28 1 29 1 13 -15 -13 -15 -22 -16 -48 -7 -25 9 -32 9 -37 -3
-7 -21 -23 -19 -23 3 -1 16 -2 16 -15 -2 -7 -10 -18 -15 -24 -12 -6 4 -29 1
-52 -5 -38 -12 -40 -15 -35 -42 5 -23 2 -30 -14 -34 -22 -6 -27 -23 -7 -23 21
0 8 -58 -14 -65 -10 -4 -19 -12 -19 -18 0 -19 -63 -57 -95 -57 -15 0 -33 -7
-39 -16 -9 -12 -17 -13 -37 -5 -19 7 -34 6 -52 -4 -23 -11 -26 -11 -37 10 -7
13 -24 26 -39 30 -44 11 -81 55 -46 55 20 0 19 58 -1 85 -10 13 -14 38 -13 72
2 28 -2 58 -8 65 -19 23 -23 53 -13 88 13 46 5 49 -28 12 -16 -18 -34 -32 -41
-32 -7 0 -10 -4 -6 -10 3 -5 12 -7 19 -4 8 3 18 -7 26 -25 7 -17 17 -31 22
-31 5 0 7 -4 3 -10 -3 -5 -13 -6 -22 -3 -12 5 -15 2 -10 -10 4 -9 10 -24 13
-32 4 -10 0 -15 -11 -15 -13 0 -16 -6 -13 -25 5 -23 3 -25 -28 -23 -38 2 -52
-11 -83 -78 -14 -30 -26 -43 -47 -47 -16 -4 -37 -13 -47 -21 -18 -14 -18 -15
0 -40 10 -14 25 -23 34 -21 8 3 32 -10 53 -29 20 -19 45 -36 54 -38 9 -2 17
-10 17 -18 0 -8 4 -21 8 -27 5 -7 4 -13 -1 -13 -16 0 -1 -40 19 -51 11 -5 19
-6 19 -2 0 4 15 -7 33 -24 17 -17 43 -33 57 -35 18 -2 25 -9 23 -22 -1 -11 6
-25 15 -32 13 -9 14 -15 5 -26 -9 -10 -7 -24 8 -58 11 -25 18 -52 16 -62 -3
-9 -2 -18 2 -20 3 -2 15 -19 26 -38 37 -66 80 -119 103 -126 31 -9 49 -44 31
-58 -16 -13 -17 -43 -2 -71 6 -11 8 -26 6 -33 -5 -13 41 -62 58 -62 6 0 8 -9
4 -20 -13 -42 38 -177 69 -182 15 -2 22 -14 28 -42 5 -22 16 -48 25 -58 24
-26 11 -31 -32 -13 -47 19 -53 14 -26 -21 11 -15 21 -21 21 -14 0 10 3 10 15
0 8 -7 15 -23 15 -35 0 -13 7 -26 16 -29 13 -5 14 -9 4 -20 -17 -22 13 -62 69
-91 83 -44 111 -83 124 -175 3 -19 8 -43 12 -52 5 -13 2 -18 -9 -18 -9 0 -16
-4 -16 -10 0 -5 4 -10 10 -10 5 0 22 -19 36 -42 23 -36 24 -42 10 -50 -9 -5
-16 -17 -16 -28 0 -10 -7 -26 -16 -35 -9 -9 -14 -19 -10 -22 3 -4 0 -13 -8
-22 -16 -19 -29 -78 -14 -63 16 16 41 3 28 -13 -9 -11 -5 -18 14 -30 24 -16
39 -54 16 -40 -6 4 -21 0 -34 -9 -23 -14 -24 -14 -36 15 -12 28 -14 29 -31 13
-10 -9 -23 -13 -29 -9 -6 4 -27 9 -47 11 -41 5 -64 20 -58 37 7 18 -5 30 -57
56 -26 13 -50 32 -53 42 -7 22 -31 25 -38 5 -3 -8 -22 -18 -42 -22 -25 -4 -35
-11 -31 -20 3 -9 -4 -16 -19 -20 -14 -3 -25 -10 -25 -15 0 -5 -7 -9 -15 -9 -9
0 -15 -10 -15 -26 0 -25 -58 -88 -91 -99 -14 -5 -15 -12 -9 -40 4 -19 5 -35 1
-35 -4 0 -6 -12 -3 -28 2 -19 -3 -33 -17 -46 -13 -12 -21 -31 -21 -51 0 -37
-21 -51 -51 -34 -18 9 -19 7 -13 -16 4 -15 1 -32 -6 -40 -7 -9 -13 -29 -12
-46 0 -16 -3 -27 -8 -24 -9 6 -40 -45 -40 -66 0 -6 -11 -24 -25 -41 -14 -16
-25 -36 -25 -44 0 -19 -53 -44 -95 -46 -29 -1 -39 -8 -57 -36 -19 -30 -25 -33
-58 -30 -34 3 -37 1 -29 -14 5 -9 14 -20 19 -23 6 -4 8 -11 4 -16 -3 -5 -1
-15 4 -22 13 -16 22 -81 15 -106 -7 -28 -54 -28 -78 -1 -10 11 -29 20 -42 20
-12 0 -23 4 -23 9 0 11 -50 61 -61 61 -13 0 -11 -57 3 -80 11 -16 9 -22 -7
-34 -12 -9 -26 -11 -34 -6 -20 11 -54 -32 -44 -56 4 -12 3 -15 -5 -10 -7 4
-12 2 -12 -3 0 -6 6 -11 14 -11 8 0 14 -10 14 -22 1 -39 10 -78 21 -92 7 -8 7
-16 0 -23 -15 -15 4 -55 39 -80 17 -12 32 -35 35 -52 4 -20 13 -31 23 -31 14
0 15 -2 3 -17 -9 -11 -3 -10 19 6 17 12 37 31 42 42 7 12 21 19 39 19 29 0 41
15 41 51 0 11 8 22 18 26 9 3 33 23 52 44 l36 38 29 -19 c17 -11 38 -20 47
-20 10 0 34 -8 54 -17 33 -16 37 -16 47 -2 7 9 22 19 35 23 12 4 22 11 22 15
0 3 14 15 30 24 17 10 30 25 30 33 0 44 88 -10 105 -63 3 -13 14 -23 25 -23
10 0 22 -4 25 -10 3 -5 17 -10 31 -10 14 0 23 -4 20 -9 -9 -14 37 -22 47 -8 6
8 7 4 4 -10 -3 -13 -1 -25 3 -28 4 -3 6 -14 3 -25 -6 -24 0 -25 33 -4 23 16
24 18 9 41 l-16 24 46 -6 c36 -6 50 -4 65 10 21 19 46 14 113 -21 35 -19 47
-11 47 33 0 33 1 35 27 28 15 -3 32 -12 36 -18 6 -8 7 -5 3 6 -3 10 3 35 14
57 18 36 23 100 8 100 -5 0 -8 5 -8 10 0 6 14 10 30 10 22 0 42 11 67 35 20
19 32 35 28 35 -17 0 36 41 65 52 17 5 30 16 30 23 0 8 11 27 25 43 14 17 25
35 25 41 0 6 13 10 30 9 26 -2 29 -5 23 -28 -3 -14 -2 -22 2 -18 7 7 35 -14
35 -27 0 -10 34 -41 53 -48 11 -4 20 -1 23 8 10 24 22 17 29 -15 7 -33 11 -35
50 -20 24 9 59 -1 75 -22 9 -11 33 -12 73 -5 30 7 37 12 37 32 0 15 7 26 20
30 11 3 26 13 34 21 18 17 66 3 66 -21 0 -8 7 -15 16 -15 8 0 12 -4 9 -10 -3
-6 0 -10 7 -11 69 -6 104 -5 108 1 3 5 13 2 24 -5 17 -13 17 -15 -13 -47 -35
-37 -34 -57 5 -99 25 -26 32 -45 13 -33 -8 4 -8 1 -1 -13 6 -11 7 -25 2 -33
-4 -7 -6 -28 -3 -45 3 -19 -1 -44 -10 -62 -12 -23 -13 -33 -4 -42 15 -15 34
-14 40 2 3 9 8 9 21 -2 9 -8 15 -20 12 -26 -2 -7 0 -17 6 -23 13 -13 40 -4 32
10 -8 12 -6 12 70 -26 72 -36 90 -67 55 -94 -19 -16 -21 -23 -13 -42 6 -14 20
-24 37 -26 31 -3 31 -4 13 41 -8 19 -12 35 -8 35 4 0 7 17 7 38 0 31 5 39 27
49 16 7 30 23 34 37 7 29 8 30 35 16 25 -14 75 12 119 62 29 35 31 41 21 69
-9 27 -8 37 11 67 18 29 19 38 9 54 -10 16 -9 23 3 37 9 10 16 31 17 47 2 55
13 79 38 79 13 0 33 12 46 27 13 15 25 24 29 21 3 -3 24 -9 46 -13 32 -6 43
-4 47 7 4 10 12 6 32 -17 17 -21 31 -29 43 -25 18 7 31 42 16 47 -5 2 -3 22 7
48 8 25 18 63 20 85 5 36 1 43 -27 68 -31 25 -32 28 -15 38 19 11 18 22 0 84
-5 16 -3 18 8 9 8 -6 34 -16 59 -23 25 -7 59 -16 75 -21 17 -5 47 -12 68 -16
39 -7 67 -35 67 -66 0 -10 -5 -18 -11 -18 -8 0 -8 -5 1 -15 14 -17 46 -20 55
-5 3 6 15 10 26 10 10 0 42 16 69 35 48 34 51 35 80 20 36 -19 37 -19 42 3 3
12 25 23 63 34 61 17 87 15 79 -6 -3 -7 7 -18 22 -25 24 -10 29 -10 37 5 8 14
19 15 68 10 56 -7 59 -6 80 23 13 18 34 32 56 36 19 3 36 11 39 18 10 26 9
139 -1 142 -5 2 -22 6 -36 9 -14 3 -36 14 -48 25 -13 11 -28 22 -34 24 -6 2
-10 17 -9 34 2 23 -3 32 -23 41 -14 7 -32 12 -40 12 -8 0 -15 7 -15 15 0 9 -9
15 -23 15 -13 0 -29 6 -36 13 -11 10 -14 10 -18 0 -3 -7 -11 -13 -19 -13 -8 0
-14 -7 -14 -15 0 -8 -9 -15 -21 -15 -11 0 -17 4 -14 10 11 18 -15 50 -41 50
-14 0 -22 -4 -19 -10 3 -6 -1 -10 -9 -10 -8 0 -18 5 -21 11 -4 6 -13 8 -20 5
-16 -6 -25 15 -25 57 0 22 -3 28 -9 18 -5 -7 -13 -11 -19 -7 -6 3 -13 2 -17
-4 -11 -18 -21 -11 -23 17 -1 14 -8 34 -16 42 -11 12 -11 19 -3 28 28 28 37
43 37 58 0 8 8 15 18 15 37 0 81 103 50 116 -8 2 -14 25 -15 55 -1 41 1 49 13
45 8 -3 20 -9 28 -12 9 -3 16 4 21 23 5 22 2 32 -17 47 -15 12 -19 20 -10 23
6 3 12 16 12 29 0 13 4 24 8 24 5 0 14 11 20 25 7 16 20 25 33 25 12 0 43 10
69 23 40 19 48 28 58 65 7 23 12 53 12 67 0 14 4 25 8 25 12 0 36 52 33 72 -1
12 7 18 30 20 26 2 34 9 42 33 6 17 23 45 39 63 18 21 27 40 23 52 -4 13 1 19
23 23 41 8 66 48 50 81 -8 19 -8 29 0 39 6 7 8 24 5 37 -4 15 -1 27 10 35 14
10 15 16 4 38 -6 15 -17 27 -23 27 -16 0 -26 43 -12 51 6 4 8 12 4 18 -4 6 1
22 10 37 14 21 15 30 6 45 -17 27 -15 42 9 57 17 11 20 20 15 48 -6 30 -4 34
14 34 11 0 20 7 20 15 0 14 7 16 78 19 24 1 45 24 38 42 -3 8 -10 12 -16 9
-14 -8 -49 18 -65 49 -10 18 -10 26 -2 29 9 3 9 10 0 26 -17 27 -16 31 2 31 8
0 15 -4 15 -10 0 -5 9 -14 20 -20 18 -10 19 -8 10 14 -7 20 -5 27 16 40 16 11
24 26 24 45 0 16 7 34 15 41 19 16 6 34 -46 60 -52 27 -81 67 -74 100 4 17 1
31 -8 38 -8 7 -12 24 -9 42 5 33 16 39 26 14 4 -10 12 -14 22 -10 21 8 44 -11
44 -34 0 -20 62 -48 68 -30 7 19 41 -8 35 -28 -3 -14 2 -21 17 -25 12 -3 20
-11 19 -19 -5 -25 12 -56 46 -82 39 -30 45 -32 45 -11 0 17 9 19 29 6 20 -13
54 29 39 47 -7 8 -7 12 1 12 7 0 10 4 7 8 -2 4 -1 14 4 22 7 11 17 12 61 2 35
-8 55 -9 59 -2 4 7 14 6 31 -2 25 -11 25 -12 12 -62 -13 -50 -13 -51 14 -72
19 -15 33 -19 44 -14 23 13 46 -4 31 -23 -7 -8 -9 -22 -6 -32 6 -14 3 -16 -12
-12 -57 17 -93 18 -122 3 -39 -20 -42 -20 -42 3 0 13 -6 18 -17 16 -70 -14
-73 -16 -73 -38 0 -12 4 -26 8 -32 12 -17 72 -46 81 -41 5 4 17 3 26 0 13 -5
14 -9 4 -15 -9 -5 -10 -11 -2 -21 6 -7 14 -24 18 -37 8 -27 53 -70 73 -71 8 0
25 -8 38 -19 13 -10 45 -22 71 -26 38 -5 49 -4 59 10 10 13 16 14 33 5 20 -10
21 -9 17 25 -5 41 2 68 15 59 21 -12 8 55 -13 73 -13 10 -34 34 -47 52 -19 27
-21 33 -7 28 17 -7 17 1 -1 51 -3 6 2 12 11 12 9 0 16 8 16 20 0 11 4 20 9 20
4 0 6 18 4 39 -2 22 1 42 7 46 5 3 10 19 10 34 0 28 2 29 48 27 41 -2 51 2 80
30 17 18 32 37 32 43 0 5 16 28 35 51 41 49 44 78 10 110 -13 12 -22 26 -20
31 3 4 -15 26 -39 50 -39 37 -44 46 -39 73 3 17 10 33 15 34 4 2 6 8 2 13 -3
5 2 12 10 15 18 7 12 53 -8 66 -6 4 -8 8 -4 8 4 0 3 11 -2 25 -7 19 -6 26 8
34 14 8 15 12 3 34 -8 14 -11 36 -8 48 4 15 -1 27 -15 39 -12 9 -23 27 -25 38
-3 21 1 24 36 26 19 2 35 30 28 50 -7 19 -49 21 -76 4 -17 -10 -23 -8 -38 11
-16 20 -20 21 -31 8 -14 -17 -52 -11 -52 8 0 7 -10 15 -22 18 -17 5 -19 9 -9
21 12 15 -5 23 -82 40 -16 4 -48 27 -73 51 -37 38 -48 44 -64 35 -27 -14 -51
-12 -72 7 -17 15 -18 15 -18 0 0 -21 -14 -22 -30 -2 -8 9 -21 13 -36 9 -19 -5
-23 -3 -18 10 3 9 2 16 -2 16 -12 0 -36 78 -29 90 12 19 -25 76 -55 87 -24 9
-30 17 -30 41 0 31 -14 42 -54 42 -13 0 -31 12 -45 31 -18 24 -28 29 -46 25
-12 -3 -37 -1 -54 5 -25 9 -30 15 -25 33 6 24 -18 52 -35 42 -6 -4 -33 10 -61
30 -46 33 -53 35 -80 24 -16 -6 -34 -9 -39 -5 -6 3 -11 -1 -11 -10 0 -9 -5
-13 -10 -10 -6 4 -7 12 -4 18 4 7 -1 5 -10 -4 -24 -22 -62 -12 -87 22 -11 16
-29 29 -39 29 -16 0 -19 6 -16 29 3 32 -8 41 -50 41 -15 0 -24 6 -24 15 0 8
-11 25 -25 37 -14 12 -25 27 -25 34 0 7 -10 21 -23 31 -13 10 -26 26 -30 36
-3 9 -15 17 -26 17 -11 0 -23 6 -27 12 -6 9 -10 5 -14 -12 -4 -18 -14 -26 -33
-28 -15 -2 -27 -10 -27 -18 0 -8 -4 -14 -10 -14 -5 0 -10 8 -10 18 0 9 -3 28
-7 41 -6 24 -6 24 17 8 23 -16 24 -15 42 14 10 16 30 35 45 42 31 13 44 27 37
39 -2 4 5 12 16 18 12 7 20 21 20 37 0 65 25 99 68 94 8 -1 21 4 30 12 10 8
30 17 45 21 17 4 31 16 37 31 5 14 14 25 20 25 5 0 10 22 10 50 0 39 -4 53
-20 62 -23 15 -27 40 -5 32 9 -4 15 0 15 9 0 8 -7 20 -15 27 -21 18 -19 27 8
26 17 -1 23 5 25 29 2 17 8 35 12 40 13 15 -8 96 -30 120 -10 11 -26 38 -37
60 -10 21 -31 46 -46 55 -36 19 -169 147 -190 182 -9 14 -25 29 -35 32 -11 4
-27 21 -37 39 -10 19 -33 44 -52 57 -50 34 -67 64 -60 104 7 41 -12 72 -37 63
-12 -5 -22 3 -36 26 -11 17 -27 32 -36 32 -9 0 -26 12 -37 27 l-21 28 27 28
c32 33 34 42 8 42 -14 0 -18 -5 -14 -19 9 -35 -130 -37 -152 -2 -3 6 -13 11
-21 11 -8 0 -12 -4 -9 -10 3 -5 0 -10 -9 -10 -8 0 -16 -6 -19 -12 -6 -18 -41
3 -46 28 -5 31 -22 46 -36 34 -9 -8 -16 -2 -25 21 -9 21 -18 29 -30 26 -9 -2
-25 0 -34 5 -13 7 -15 5 -13 -13 2 -21 -1 -23 -48 -20 -71 4 -155 48 -155 80
0 6 -9 11 -20 11 -11 0 -27 11 -36 25 -18 28 -34 33 -34 10 0 -8 -6 -15 -14
-15 -7 0 -16 -9 -19 -21 -3 -11 -15 -23 -26 -26 -12 -3 -21 -11 -21 -19 0 -7
-12 -14 -27 -16 -21 -2 -31 -11 -38 -34 -6 -17 -15 -29 -22 -27 -7 3 -15 -2
-18 -10 -4 -9 -15 -12 -31 -9 -18 3 -24 0 -24 -13 0 -11 -5 -15 -14 -12 -8 3
-17 0 -19 -7 -3 -7 -20 -20 -38 -28 -28 -14 -36 -14 -52 -3 -14 10 -25 11 -39
4 -12 -6 -25 -6 -38 1 -15 8 -20 8 -20 -3 0 -18 21 -37 42 -37 10 0 25 -15 35
-34 16 -31 103 -101 134 -108 15 -4 19 43 4 48 -14 6 -7 54 7 54 6 0 8 7 4 15
-9 23 8 18 37 -12 27 -29 39 -95 23 -122 -14 -22 66 -81 111 -81 17 0 23 -3
16 -8 -16 -10 -5 -52 13 -52 8 0 14 -7 14 -16 0 -11 -6 -14 -20 -9 -12 4 -20
2 -20 -5 0 -14 -55 -6 -75 10 -8 6 -19 9 -24 6 -5 -4 -24 7 -40 23 -43 42
-118 84 -137 77 -10 -4 -30 4 -50 19 -18 14 -42 25 -52 25 -27 0 -74 57 -67
81 3 10 0 28 -7 40 -10 16 -10 23 -1 26 7 2 10 10 7 18 -3 7 -1 16 5 20 8 4 8
12 1 25 -5 10 -7 26 -4 35 5 12 -6 29 -37 57 -31 29 -40 41 -30 47 9 6 10 10
2 15 -6 4 -20 24 -31 45 -19 37 -19 38 1 58 11 11 23 38 26 60 4 27 12 42 27
49 24 10 37 59 22 89 -5 11 -12 27 -16 35 -4 8 -19 16 -33 18 -21 3 -26 0 -21
-12 8 -20 -20 -32 -48 -19 -14 6 -21 20 -23 41 -3 38 7 48 26 26 10 -13 10
-17 -2 -25 -11 -7 -11 -9 4 -9 9 0 17 7 17 16 0 14 3 14 15 4 10 -8 15 -9 15
-1 0 6 11 8 29 5 23 -5 29 -2 35 18 6 23 7 22 20 -8 22 -49 83 -67 118 -34 12
11 25 20 30 20 4 0 8 6 8 14 0 8 10 14 23 13 12 0 29 3 39 7 11 5 18 1 23 -13
3 -12 13 -22 21 -22 8 -1 20 -2 27 -3 7 -1 12 11 12 28 0 24 6 30 35 40 30 9
35 16 38 45 2 23 9 35 23 38 17 5 20 13 17 47 -3 34 1 45 25 64 18 16 27 33
27 54 0 16 4 38 10 48 7 13 5 27 -7 50 -15 31 -15 34 1 45 10 8 14 19 9 30 -5
14 -3 17 10 12 12 -5 17 -1 17 13 0 10 21 35 46 56 25 21 52 50 60 66 9 17 23
28 35 28 19 0 20 4 15 35 -5 27 -3 38 13 52 11 9 18 19 16 23 -2 3 0 23 5 45
6 29 5 44 -7 61 -15 23 -15 24 16 24 27 0 32 4 37 29 5 24 11 29 33 28 20 -2
25 2 23 16 -2 9 3 17 11 17 10 0 13 8 10 24 -4 17 1 27 16 35 13 7 21 22 21
36 0 20 5 25 25 25 15 0 25 6 25 14 0 7 7 19 14 26 8 6 20 28 27 48 6 20 18
42 26 49 12 9 14 23 10 54 -3 23 1 61 9 88 18 60 18 86 -2 106 -12 12 -20 13
-29 5 -17 -14 -93 22 -102 48 -3 9 -14 24 -25 32 -10 9 -20 27 -22 41 -1 14
-6 30 -10 37 -4 7 -2 12 5 12 8 0 6 6 -4 18 -10 10 -14 22 -10 25 7 8 6 82 -3
150 -6 40 -11 50 -33 59 -14 6 -33 14 -42 18 -10 5 -21 4 -27 -2 -9 -9 -17 -7
-31 6 -11 10 -25 15 -30 11 -6 -3 -14 1 -18 10 -3 10 -1 20 5 24 13 8 -46 100
-65 101 -6 0 -20 11 -31 25 -23 28 -32 30 -49 10z m-2267 -1034 c-10 -16 -58
9 -51 27 3 7 5 19 5 25 0 6 12 0 26 -15 15 -14 24 -31 20 -37z m1774 -1679 c0
-11 -37 -32 -44 -25 -12 12 -6 25 9 19 8 -3 15 -1 15 4 0 6 5 10 10 10 6 0 10
-3 10 -8z m-35 -52 c3 -6 -1 -7 -9 -4 -18 7 -21 14 -7 14 6 0 13 -4 16 -10z
m-1980 -240 c3 -5 -3 -10 -14 -10 -12 0 -21 5 -21 10 0 6 6 10 14 10 8 0 18
-4 21 -10z m-320 -1159 c3 -6 30 -22 60 -37 30 -14 55 -28 55 -30 0 -8 -25
-49 -34 -55 -5 -4 4 -15 19 -25 15 -10 38 -41 52 -70 17 -36 34 -56 54 -64 16
-7 29 -18 29 -25 0 -7 7 -16 16 -19 13 -5 15 -15 11 -40 -4 -27 -2 -35 12 -39
32 -8 15 -58 -30 -89 -24 -17 -39 -23 -40 -15 -4 39 4 133 12 142 14 14 11 25
-6 25 -9 0 -20 11 -25 25 -5 14 -14 25 -21 25 -6 0 -9 5 -7 12 2 6 -5 21 -16
32 -12 12 -21 15 -24 8 -2 -6 -10 -8 -18 -5 -8 3 -20 0 -27 -5 -9 -8 -21 -7
-40 3 -27 14 -44 5 -32 -15 12 -19 -48 1 -77 26 -16 12 -37 25 -48 29 -25 8
-26 25 -2 25 13 0 18 9 19 38 2 24 10 42 23 51 11 7 20 21 20 31 0 19 36 70
50 70 5 0 11 -4 15 -9z m4124 -398 c0 -5 -3 -16 -7 -25 -6 -15 -9 -15 -27 -2
-17 13 -18 16 -5 24 18 12 40 13 39 3z m-24 -73 c-3 -5 -11 -10 -16 -10 -6 0
-7 5 -4 10 3 6 11 10 16 10 6 0 7 -4 4 -10z m-4366 -267 c22 -22 34 -53 21
-53 -6 0 -10 5 -10 12 0 6 -10 22 -22 35 -25 27 -16 32 11 6z m75 -34 c-6 -11
-24 -2 -24 11 0 5 7 7 15 4 8 -4 12 -10 9 -15z m-374 -229 c0 -5 -4 -10 -10
-10 -5 0 -10 5 -10 10 0 6 5 10 10 10 6 0 10 -4 10 -10z m2300 -369 c0 -15
-17 -22 -36 -14 -16 6 -16 7 2 14 27 11 34 10 34 0z m2705 -261 c3 -5 1 -10
-4 -10 -6 0 -11 5 -11 10 0 6 2 10 4 10 3 0 8 -4 11 -10z m-115 -43 c0 -4 -9
-3 -20 3 -11 6 -20 15 -20 20 0 6 9 5 20 -2 11 -7 20 -16 20 -21z m100 -13 c0
-9 -5 -14 -12 -12 -18 6 -21 28 -4 28 9 0 16 -7 16 -16z m40 -14 c0 -5 -7 -10
-15 -10 -8 0 -15 5 -15 10 0 6 7 10 15 10 8 0 15 -4 15 -10z m-3220 -21 c0 -6
-4 -7 -10 -4 -5 3 -10 11 -10 16 0 6 5 7 10 4 6 -3 10 -11 10 -16z m3364 -121
c-3 -5 -12 -4 -20 3 -7 6 -11 15 -8 21 3 5 12 4 20 -3 7 -6 11 -15 8 -21z
m-2200 -1674 c5 -12 14 -15 37 -10 26 5 32 2 47 -24 19 -34 36 -38 51 -13 9
17 11 16 33 -5 14 -12 31 -22 40 -22 9 0 19 -7 22 -16 4 -9 13 -14 22 -10 8 3
26 -1 40 -10 13 -9 33 -14 43 -11 22 5 34 -14 25 -38 -7 -17 -30 -20 -39 -5
-3 6 -1 10 4 10 6 0 11 6 11 13 0 6 -12 0 -25 -15 -27 -31 -47 -34 -87 -14
-24 13 -28 13 -28 0 0 -19 -19 -18 -26 1 -4 8 -12 15 -20 15 -8 0 -14 -7 -14
-15 0 -8 6 -15 13 -15 7 0 13 -9 14 -20 1 -12 -4 -20 -13 -20 -8 0 -23 -5 -33
-12 -15 -9 -27 -8 -58 4 -39 15 -40 15 -51 -11 -34 -75 -69 -86 -92 -31 -7 16
-22 36 -35 44 -12 8 -30 31 -39 51 -10 20 -24 39 -32 42 -8 3 -14 15 -14 27 0
19 5 22 33 21 17 -1 39 -5 48 -9 24 -10 30 6 14 37 -15 28 -6 37 14 13 19 -23
48 -8 56 30 6 36 28 46 39 18z m1446 -169 c0 -8 -4 -15 -10 -15 -5 0 -10 7
-10 15 0 8 5 15 10 15 6 0 10 -7 10 -15z m-30 -25 c0 -12 -43 -6 -47 6 -2 7 6
10 22 7 14 -3 25 -9 25 -13z m-1050 0 c0 -5 -4 -10 -9 -10 -6 0 -13 5 -16 10
-3 6 1 10 9 10 9 0 16 -4 16 -10z m1220 -91 c0 -6 -4 -7 -10 -4 -5 3 -10 11
-10 16 0 6 5 7 10 4 6 -3 10 -11 10 -16z m-3346 -735 c5 -14 4 -15 -9 -4 -17
14 -19 20 -6 20 5 0 12 -7 15 -16z"/>
<path d="M11457 13939 c4 -16 8 -17 14 -7 13 19 11 28 -5 28 -9 0 -12 -7 -9
-21z"/>
<path d="M7490 13865 c0 -16 16 -20 24 -6 3 5 -1 11 -9 15 -9 3 -15 0 -15 -9z"/>
<path d="M11140 13720 c-14 -27 -9 -34 13 -17 11 8 14 17 8 26 -7 11 -11 9
-21 -9z"/>
<path d="M11085 13691 c-7 -23 11 -55 26 -45 13 8 11 27 -5 49 -13 18 -14 18
-21 -4z"/>
<path d="M6245 13459 c4 -5 18 -14 31 -19 13 -5 24 -16 24 -25 0 -21 54 -20
75 1 21 21 10 33 -41 45 -54 12 -97 11 -89 -2z"/>
<path d="M8310 13385 c7 -8 19 -15 26 -15 8 0 14 -4 14 -10 0 -5 5 -10 11 -10
8 0 8 5 -1 15 -7 8 -19 15 -26 15 -8 0 -14 5 -14 10 0 6 -5 10 -11 10 -8 0 -8
-5 1 -15z"/>
<path d="M8210 12930 c20 -13 33 -13 25 0 -3 6 -14 10 -23 10 -15 0 -15 -2 -2
-10z"/>
<path d="M8242 12890 c7 -11 18 -20 25 -20 17 0 16 5 -3 24 -22 23 -37 20 -22
-4z"/>
<path d="M8089 11836 c12 -14 12 -19 1 -26 -8 -5 -11 -18 -7 -36 6 -35 -29
-69 -53 -51 -8 6 -6 2 4 -11 20 -23 32 -30 21 -12 -4 6 13 10 44 10 27 0 53 5
57 11 3 6 15 9 25 6 17 -5 17 -3 2 22 -9 14 -25 36 -36 48 -10 12 -16 26 -12
32 3 6 0 11 -9 11 -8 0 -23 3 -33 7 -16 6 -17 5 -4 -11z"/>
<path d="M10327 11832 c-12 -2 -16 -9 -13 -19 4 -9 -1 -22 -11 -30 -17 -13
-16 -13 3 -4 12 6 24 8 26 5 3 -2 10 1 15 8 15 18 1 44 -20 40z"/>
<path d="M8000 11780 c-8 -5 -10 -10 -5 -10 6 0 17 5 25 10 8 5 11 10 5 10 -5
0 -17 -5 -25 -10z"/>
<path d="M8215 11720 c-3 -5 -1 -10 4 -10 6 0 11 5 11 10 0 6 -2 10 -4 10 -3
0 -8 -4 -11 -10z"/>
<path d="M10332 11680 c22 -30 33 -36 41 -22 8 11 -29 52 -47 52 -14 0 -13 -5
6 -30z"/>
<path d="M7175 8870 c3 -5 8 -10 11 -10 2 0 4 5 4 10 0 6 -5 10 -11 10 -5 0
-7 -4 -4 -10z"/>
<path d="M8830 8595 c0 -2 10 -10 23 -16 20 -11 21 -11 8 4 -13 16 -31 23 -31
12z"/>
<path d="M12500 8032 c0 -15 -5 -33 -11 -39 -14 -14 16 -73 37 -73 10 0 14 -6
11 -14 -6 -16 19 -43 30 -32 3 3 1 6 -5 6 -7 0 -2 11 10 26 18 20 24 22 33 11
9 -13 85 -23 85 -11 0 16 -23 44 -35 44 -8 0 -19 9 -25 20 -8 14 -17 19 -30
15 -15 -5 -24 3 -40 34 -25 50 -60 57 -60 13z m90 -72 c0 -5 -7 -10 -15 -10
-8 0 -15 5 -15 10 0 6 7 10 15 10 8 0 15 -4 15 -10z"/>
<path d="M12828 8012 c-22 -9 -11 -27 22 -37 22 -7 23 -6 11 9 -9 11 -10 16
-2 16 7 0 9 5 6 10 -7 11 -13 12 -37 2z"/>
<path d="M12580 7999 c0 -5 5 -7 10 -4 6 3 10 8 10 11 0 2 -4 4 -10 4 -5 0
-10 -5 -10 -11z"/>
<path d="M12790 7930 c0 -5 5 -10 10 -10 6 0 10 5 10 10 0 6 -4 10 -10 10 -5
0 -10 -4 -10 -10z"/>
<path d="M13197 7710 c-3 -23 -3 -49 0 -56 5 -15 39 -19 46 -6 9 13 -4 56 -22
81 l-18 24 -6 -43z"/>
<path d="M13388 7650 c-17 -18 -38 -30 -53 -30 -18 0 -23 -4 -19 -15 4 -10 0
-15 -15 -15 -23 0 -28 -14 -9 -26 6 -4 14 -2 16 4 2 6 10 8 18 5 10 -4 17 2
21 16 4 15 9 19 18 11 14 -12 92 -23 105 -15 10 6 -30 87 -45 92 -5 1 -22 -11
-37 -27z"/>
<path d="M13175 7630 c3 -5 11 -10 16 -10 6 0 7 5 4 10 -3 6 -11 10 -16 10 -6
0 -7 -4 -4 -10z"/>
<path d="M13262 7621 c4 -13 18 -16 19 -4 0 4 -5 9 -11 12 -7 2 -11 -2 -8 -8z"/>
<path d="M13440 7541 c0 -11 5 -23 10 -26 16 -10 42 3 34 16 -4 8 -9 7 -15 -2
-6 -10 -9 -8 -9 9 0 12 -4 22 -10 22 -5 0 -10 -9 -10 -19z"/>
<path d="M13467 7477 c-8 -21 19 -35 36 -18 8 8 7 11 -5 11 -9 0 -18 5 -20 12
-3 7 -7 5 -11 -5z"/>
<path d="M13574 7451 c-18 -11 -35 -24 -39 -30 -3 -6 -11 -8 -17 -5 -6 4 -14
1 -18 -5 -6 -11 -27 -16 -79 -20 -11 -1 -12 -4 -3 -13 8 -8 15 -8 26 1 12 10
16 9 25 -6 7 -13 10 -14 11 -4 0 10 9 7 28 -11 46 -43 80 -46 73 -5 0 4 6 7
13 7 18 0 66 43 66 59 0 12 -36 51 -47 51 -5 0 -22 -9 -39 -19z"/>
<path d="M13670 7431 c0 -10 -3 -32 -6 -48 -5 -26 -2 -31 17 -36 14 -4 29 -1
37 7 10 10 9 20 -9 54 -24 45 -39 54 -39 23z"/>
<path d="M13412 7347 c-10 -11 -9 -17 3 -27 20 -17 27 -8 17 19 -7 19 -10 21
-20 8z"/>
<path d="M9771 5324 c0 -11 3 -14 6 -6 3 7 2 16 -1 19 -3 4 -6 -2 -5 -13z"/>
<path d="M9725 5310 c3 -5 12 -7 20 -3 21 7 19 13 -6 13 -11 0 -18 -4 -14 -10z"/>
<path d="M8225 4830 c3 -5 13 -10 21 -10 8 0 14 5 14 10 0 6 -9 10 -21 10 -11
0 -17 -4 -14 -10z"/>
<path d="M8138 4807 c-32 -13 -34 -19 -11 -38 15 -12 16 -12 10 3 -4 12 -2 15
9 11 7 -3 14 -14 14 -24 0 -13 7 -19 23 -19 13 0 29 -6 37 -12 8 -7 7 -4 -3 8
-9 11 -17 28 -17 36 0 46 -14 54 -62 35z"/>
</g>
</svg>
