<svg version="1" xmlns="http://www.w3.org/2000/svg" width="765.32" height="1052.471" viewBox="0 0 573.99 789.353"><g fill="#222"><path d="M92.599.255c-.3.7-1.2 1.1-1.8 1-2.8-.3-3.7.3-5.2 3.1-1.3 2.6-1.9 2.9-3.5 2-2.2-1.2-2.3-1-3.5 4.3-.4 1.9-1.1 2.7-2 2.3-.8-.3-3.1.5-5.3 1.6-3.9 2.2-4.5 2.1-9.7-1.1-2.9-1.7-3-1.7-4.3.1-.7 1-1 2.7-.7 3.8.5 1.7.9 1.8 2.6.7 1.6-.9 2.1-.9 2.8.1.4.7 1.5 1 2.4.6 1-.4 1.7-.1 1.7.6 0 .6-1.4 1.7-3 2.3-3.7 1.4-3.4 3.2.6 3.2 3.3 0 4.7 2.1 3 4.7-.8 1.3-.6 2.1.7 3.6.9 1 1.7 2.3 1.7 2.9 0 1.3 4.3 2.5 6.3 1.7 1.3-.4 8.7 3.1 8.7 4.2 0 .3-.6 1.1-1.2 1.8-1.1 1.2-1.6 1.2-3-.1-2.2-2-3.9-.8-3.5 2.5.2 1.5-.2 4-1 5.6-.8 1.5-1 2.5-.5 2.2 1.6-1 2.3 4 1 7.1-1.4 3.4-1.7 7.3-.6 7.3.5 0 .4.9-.2 1.9-.7 1.4-.7 2.2.2 2.7.7.5.8.3.3-.6-.6-1-.4-1.1 1.1-.5 3.2 1.4 8.1 1.7 8.8.6.4-.5 1.3-.8 2.1-.5.8.4 1.2 1 .9 1.5-.3.5 0 .9.5.9.6 0 1.1.7 1.1 1.5s.7 1.5 1.5 1.5 1.5-.7 1.5-1.6c0-.9.6-1.4 1.3-1.1.6.2 1.2 1.3 1.2 2.4 0 1 .8 2.7 1.8 3.7.9 1 1.7 1.4 1.7 1 0-.3.7-.1 1.5.6 1.8 1.5 2.8.9 6.5-4.5 3.1-4.4 3.3-8 .8-11.2-1.1-1.4 2.3-2.7 5-1.8 2.5.7 7.5-1.8 6.1-3.2-1.5-1.5 0-11.1 1.9-11.5 1.2-.2.9-1-1.2-3.5-2.7-3.2-2-5.7.9-3.3 1.1.9 1.5.9 1.5.1 0-.6 1.1-1.6 2.5-2.3 2-.9 2.2-1.4 1.4-2.9-.5-1.1-1.8-1.9-2.9-1.9-2.1 0-7.5-6.4-7.5-8.9 0-1.1-.8-1.5-2.2-1.4-1.6.2-2.3-.3-2.3-1.5 0-2.6-2.8-6.2-4.4-5.6-2.5 1-6.5-2.6-7.2-6.3-.6-3-.3-3.9 1.6-5.3l2.3-1.8-2.1-1.1c-1.2-.6-2.2-.8-2.2-.4 0 .3-1.3-.6-2.9-2.1-1.9-1.8-3.1-2.4-3.6-1.7zm-21.5 17.5c0 1.1-1.9 1.5-2.5.6-.3-.5.1-1 .9-1 .9 0 1.6.2 1.6.4zm10.4 31.7c-.3.5-1 .7-1.5.3-.5-.3-.7-1-.3-1.5.3-.5 1-.7 1.5-.3.5.3.7 1 .3 1.5zm30.6 3.1c0 1.6-.3 1.9-1.1 1.1-.6-.6-.8-1.6-.5-2.2 1.1-1.7 1.6-1.3 1.6 1.1zm-30.5 15.8c0 2.8-2.9 4-3.8 1.5-.9-2.2.3-4.6 2.2-4.3 1 .2 1.6 1.3 1.6 2.8z"/><path d="M63.099 38.455c0 .4.7 1.2 1.5 1.9s1.5 2.1 1.5 3.2c0 1.6-.5 1.9-2.5 1.4-1.4-.4-2.5-.4-2.5-.1 0 1.8 2.3 4.4 4.4 4.9 1.3.3 3.2.9 4.2 1.3 1.3.5 1.5.3.9-.7s-.4-1.2.8-.7c2.6 1 2.1-1.6-.8-4.3-1.5-1.4-2.5-3.5-2.5-5.2 0-2.4-.4-2.7-2.5-2.6-1.4.1-2.5.5-2.5.9zM68.099 55.055c0 2.7 2.5 5.9 3.4 4.4.4-.6-.2-2.3-1.3-3.7-1.8-2.3-2.1-2.4-2.1-.7zM241.099 57.955c0 .8.5 1.2 1 .9.6-.4.8-1.1.5-1.6-.9-1.4-1.5-1.1-1.5.7zM231.899 59.955c-1.3 1.3-2 1.4-3.7.4-2-1-2.1-.9-1.6 1.3.5 1.9.2 2.5-1.5 3-1.7.4-2 1-1.5 2.6.9 2.9-1.6 3.7-5.6 1.7-1.8-.9-4.2-1.6-5.4-1.6-1.2 0-3-.9-4-2-2.4-2.7-3.1-2.5-6.8 1.2-3 3.1-3.7 3.3-10.7 3.5-11.3.2-19.1 1.3-22.9 3-3 1.4-3.6 1.4-4.5.1-.6-.8-2.4-1.8-3.9-2.2-2.2-.5-2.7-1.1-2.3-2.4.3-.9-.3-.5-1.5 1-1.1 1.6-2.7 2.8-3.5 2.8-.8 0-1.4.7-1.4 1.6 0 1.7-6.2 4.6-8.3 3.8-.8-.3-1.7.2-2 1.3-.4 1-1.2 2.5-1.8 3.4-1 1.3-.6 2.5 2.2 6.5 1.8 2.7 4.2 5.8 5.2 7 1.1 1.4 1.9 4.1 2.1 7.6.1 3 .6 6 .9 6.5.4.6-.1 1.4-1 1.7-1.2.5-1.4.9-.5 1.8.7.7 1.2 2.4 1.2 3.9 0 1.8 1.1 3.8 3.1 5.7 2.8 2.6 3 3.1 1.8 5-.8 1.2-2 2.2-2.7 2.2-1.9 0 .3 3.7 2.7 4.5 1 .3 2.1 1.5 2.4 2.5.6 2.2 2.9 2.8 2.6.7-.6-4.4 1.1-4.8 4.6-1.1 1.3 1.4 2.8 2.3 3.3 2 .6-.3 1.5.1 2.2.9 1.1 1.3.8 1.5-1.4 1.5-1.4 0-2.6.5-2.6 1.1 0 .6-.8.8-1.9.4-1.4-.4-1.9-.1-1.7 1.2.1 1.3-1.2 2.2-4.6 3.3-3.9 1.2-4.7 1.9-4.2 3.3.4 1.3 0 2-1.5 2.4-1.2.3-2.1 1.2-2.1 1.9 0 1.9-.6 1.8-3.1-.7l-2.1-2.1-2.2 2.1c-2.7 2.5-6.2 2.6-13.6.3-4.6-1.5-5.6-2.3-6.4-4.7-1.2-4.2-3.3-8-4.4-8-.4 0-1.6-.8-2.6-1.8-1-.9-2-1.7-2.2-1.7-1.3 0-3.5 3.2-3.1 4.4.4 1 0 1.2-1.4.9-1-.3-1.7-.8-1.5-1.2.2-.3-.6-.6-1.7-.7-7.9-.2-12.7-2.7-14.1-7.1-.4-1.1-1.2-2-1.9-2.1-.6 0-3.6-.4-6.4-.8-4.4-.6-5.4-.4-5.9 1-.4 1-1.8 1.6-3.9 1.6-2 0-3.9.8-5.1 2.1-1 1.1-2.6 1.8-3.5 1.6-1.2-.3-1.9.3-2.3 1.9-.7 2.8-1.7 3-5.4.7-4.6-2.8-8.1-6.5-7.5-7.8.6-1.8-2.8-3.4-5.2-2.4-1.1.4-1.5.8-1 .9.6 0-.3.6-1.9 1.3-2.5 1.1-2.7 1.5-1.5 2.7 1.5 1.5 2.1 10 .7 10-.5 0-.8.6-.8 1.3 0 1.7-3.1 4.2-5.2 4.3-8.3.4-7.8.1-7.8 4.3 0 3.1-.6 4.4-2.6 6-2.1 1.6-2.3 2.3-1.5 4 .9 1.6.6 2.5-1.6 5-1.5 1.7-3.3 3.1-3.9 3.1-.7 0-1 .8-.7 1.8.3 1.3-.5 2.5-2.3 3.6-1.8 1.3-2.3 2-1.5 2.6.8.4-.4 1-2.8 1.4-2.5.4-4.1 1.2-4.1 2s-1.1 1.7-2.5 2c-2.6.7-3.7 4.6-1.2 4.6.6.1 2.7 1.4 4.6 3l3.4 2.9 1.9-2.1 1.8-2.1 1.7 3.9c.9 2.1 1.6 4.2 1.5 4.7-.1.4.6 2.4 1.6 4.5 2.4 4.8 1.9 7.4-1.2 6.6-3.2-.8-4.1 2-1.9 5.7 1.8 2.9 3.7 3.7 4.8 1.9 1.3-2 8.8-.7 11.5 2 .9 1 6.5.8 7.7-.2 1.8-1.5 5-.1 3.5 1.4-1.9 1.9-1.4 3 .9 2.3 1.7-.6 2-.3 1.7 1.2-.3 1.3-1.2 1.8-3.4 1.7-2.2-.1-3.3.4-4 2-.7 1.6-1.7 2.1-4.1 2-2.3-.1-3.3.3-3.3 1.2 0 .8-1.3 1.7-3 2-2 .4-3 1.3-3 2.4 0 1-.7 2-1.5 2.4-.8.3-1.5 1.2-1.5 2.1 0 .8-.4 1.5-1 1.5-2.1 0-2.2 6.9-.2 11.2 1.2 2.3 1.8 4.6 1.5 5.1-.3.6-.1.7.5.3 1.2-.7 4.2 2 7.2 6.4 1 1.4 2.1 1.9 3.3 1.5 2.6-1.1 2.1-4.4-.8-5.1-1.4-.3-2.5-1.2-2.5-1.9 0-.8-.8-1.6-1.8-1.9-1-.3-2.3-1.9-2.9-3.6-.6-1.7-.8-2.8-.3-2.5.5.3 1-.1 1.3-.7.2-.7.8-.9 1.3-.5s.2 1.2-.6 1.7c-1.1.7-1.2 1.2-.4 2 .9.9 1.7.3 3.3-1.9 1.3-1.7 1.8-3.1 1.3-3.1-2 0 .1-3.9 2.2-4.2 1.6-.2 2.2-1.1 2.4-3.6.3-2.6.7-3.2 2.8-3.2 1.6 0 2.4.6 2.4 1.6 0 2.6 3.1 4.3 7.7 4.4 4.4 0 9.3 1.7 9.3 3.2 0 .4.3.7.8.7.4-.1 1.8-.1 3.1 0 1.9.1 2.2.5 1.6 2.3-.3 1.3-.6 2.7-.5 3.3 0 .5.2 2.4.4 4 .1 1.7 1 4.2 1.8 5.5.9 1.4 1.9 3.4 2.2 4.5.7 2.2 5.8 5.5 8.5 5.5.9 0 2.2-.5 2.9-1.2.9-.9 2.3-.2 5.9 2.8 4.5 3.8 7.1 8.8 5.3 9.9-1.3.8 3.3 7.5 4.7 7 .6-.2 2.3.5 3.7 1.6 1.7 1.3 3.3 1.8 4.6 1.4 1.5-.5 2-.2 2 1.2 0 2.8 4.3 10.3 6.3 10.9 1.1.3 2.5 2.2 3.3 4.1 1.3 3.1 1.3 3.8 0 5.8-1.4 2.1-1.3 2.4.4 4 1.5 1.4 2.8 1.5 7.2.8 4.8-.8 5.3-1.1 5-3.2-.4-2.5-.1-2.4 4.8.9 1.4 1 3.1 1.5 3.8 1.3.7-.3 1.2.4 1.2 1.6 0 2.4 1.9 3.8 2.9 2.2 1.1-1.7 3.9-.3 9.5 4.6 2.6 2.4 5.2 4.3 5.7 4.3s.9.7.9 1.5.9 1.9 2 2.5c1.6.9 2 .8 2-.5 0-1.9.9-1.9 3 0 1.8 1.7 6 .9 6-1.1 0-1.3 2-1.8 7.2-1.8.9 0 2.2-1 2.9-2.3 1-1.8 1.9-2.3 3.5-1.9 1.2.3 2.4.1 2.6-.4.7-2.1 14.9-1.1 17.4 1.1 1.1.9 3.8 2 6.1 2.4 3.3.5 4.9 1.6 7.8 5.1 2 2.4 3.9 4.3 4.3 4.3 2.7-.4 4.2.3 4.2 2.1 0 1 .9 2.4 1.9 3 2.9 1.5 3.4 1.3 2.7-1.6-.6-2.2-.4-2.5.9-2 .9.3 1.9.6 2.1.6.2 0 .4 1.5.4 3.3 0 2.1-.7 3.6-2 4.5-1.5.9-1.9 2.2-1.8 5.2.1 2.3.7 4.1 1.5 4.4.8.3 1.2 1 .8 1.6-.3.5-.1 1.8.4 2.8.8 1.5.5 2.4-1.4 4.2-1.4 1.3-2.5 3.5-2.5 4.8 0 2.4-.1 2.5-6.4 2-7.1-.6-8.1.2-6.5 4.9.7 1.7.4 2.5-1.1 3.3-2.1 1.1-2.7 3.6-1.1 4.2.6.1 1.1 2.8 1.2 5.8.3 4.8.8 6.2 4.7 10.9 3.9 4.9 4.2 5.9 3.7 9.2-.4 2.4-.2 4 .5 4.4.9.6.9.9.1 1.5-1.5.9-.4 3.8 1.7 4.5 1 .3 2.8 1.5 4.2 2.6 1.4 1.2 1.8 1.9.8 1.6-1.7-.6-2.8 1.7-2.8 6 0 2.6-1.9 3-5.1 1-1.7-1-2.3-1-2.6 0-.3.7-1.2 1.3-2 1.3-.9 0-1.3.6-.9 1.5.7 1.8-1.6 2-4.7.4-1.6-.9-2.2-.9-2.5 0-.2.6-.8.9-1.3.5-.5-.3-.9.1-.9 1 0 .8-.5 1.6-1.2 1.8-1.8.6-.1 3.8 2 3.8 1.1 0 3.2 1.7 4.8 3.7 1.5 2.1 3.2 3.9 3.6 4.1.4.2.8.9.8 1.6 0 .9.9 1.2 2.5.8 2.1-.4 2.5-1 2.5-3.8 0-2.3.5-3.4 1.5-3.4.8 0 2.5-.5 3.8-1.1 1.9-.8 2.3-1.8 2.2-4.4-.1-1.8-.5-3.7-.9-4.3-.3-.6.3-1.3 1.3-1.7 2.8-.8 8.1 2.1 8.1 4.5 0 3.2 6.1 6.5 14 7.6 7.3 1 9.1 1.7 8.6 3.1-.7 1.6 1.8 7.7 4.2 10.6.8.9 1.3 2 1 2.3-.3.3.5 1.7 1.8 3.1 1.3 1.4 2.4 3.2 2.4 3.9 0 2.8 2.4 6.3 4.6 6.8 1.7.5 2.3 1.3 2.1 2.8-.1 1.7.4 2.4 2.5 2.8 1.4.3 4.6 2.2 6.9 4.3 3.3 3 4.8 3.7 6.7 3.2 3.8-.9 10.9 3 11.7 6.5.6 2.6 2.6 4 6.5 4.4 3 .4 10.6 2.7 13.2 4.1 2.7 1.5 2.7 1.5 2.3-1.7-.5-3.2-.4-3.2 1.1-.9.9 1.3 1.7 3.4 1.7 4.7 0 1.5 1.5 4 3.8 6.4 2.2 2.2 3.9 4.5 3.9 5.1 0 .7 1.2.9 3.3.5 3.2-.6 3.4-.5 4.6 3.4.6 2.2 1.6 4 2.1 4 .6 0 1 1.2 1 2.7 0 1.4.7 3.5 1.7 4.5.9 1.1 1.1 1.8.5 1.8-.7 0-1.2 1.1-1.2 2.5s-.7 2.8-1.5 3.2c-1.4.5-1.4.8-.1 2.8 1 1.6 1.2 2.5.4 3.3-1.8 1.8.3 3.5 3.8 2.9 2.7-.5 3.4-.2 3.9 1.4.4 1 1.5 1.9 2.7 1.9 1.6 0 1.9.4 1.4 2.5-2.1 8.2-3.7 9.6-7.8 6.5-3-2.2-3.1-2.2-2.6-.2.5 1.6-.5 2.7-4.6 5.3-2.8 1.8-5.2 3.7-5.4 4.1-.2.4-1.9.8-3.7.8-2 0-3.5.6-3.9 1.5-.3.8-1.2 1.5-2.1 1.5-2 0-1.9 2 .1 3.5 1.3.9 1.4 1.6.6 3.1-.8 1.6-.7 2.2.7 3.1 1.2.8 2.2.8 2.8.2 1.2-1.2 3.6 2.2 4.7 6.6.7 2.9.7 2.9-1.3 1.1-1.9-1.7-1.9-1.7-1.4.6.3 1.2 1.1 2.7 1.7 3.3 1.1 1 6.6 17 6.6 19.2 0 .7-.7 1.3-1.5 1.3-1.3 0-1.3.4 0 3.7 1.4 3.7 1.5 8.6.2 10-.4.3-.7 2.1-.7 3.9 0 2.4-.8 3.9-3 5.7-1.6 1.4-3 3.5-3 4.7 0 2.5 4.6 7 7.1 7 1.1 0 1.9.6 1.9 1.3 0 2.3 3.3 4.6 7.8 5.3 3.2.5 4 1 3.2 1.9-.6.8-.7 2.2-.1 4.1 2.1 6.7 2.3 8.7.7 8.1-1.3-.5-1.6.1-1.6 2.8 0 2.4-.5 3.5-1.5 3.5-.9 0-1.5.9-1.5 2.2 0 1.2-.9 3.1-2 4.3-1.3 1.4-2.1 3.9-2.4 7.5-.2 3-.7 6.4-1.1 7.6-.4 1.3-.1 2.5.9 3.3.9.8 1.6 1.9 1.6 2.5 0 .7.5 1.7 1.2 2.4.6.6 1.3 2 1.4 2.9.1 1 .5 3.2.9 5 .5 2.5.2 3.4-1.2 4.1-2.8 1.4-4.5.4-3.3-1.9 1.1-1.9.8-2.2-2.5-2.2-6.3 0-6.5.1-5.4 3.3.6 1.6 1.5 2.7 2 2.4.5-.3.9-.1.9.5 0 .5.8 1.2 1.8 1.5.9.3 2.2 1.6 2.7 2.8.6 1.2 2.6 2.7 4.5 3.3 2.1.7 3.6 1.9 3.8 3.1.2 1 .8 2.3 1.3 2.8.5.6.9 1.8.9 2.8 0 2.2 6.1 8.6 7.6 8.1 2.1-.7 6.5 1.7 7.4 4.1.5 1.4 2 3.2 3.4 4.1 2.3 1.6 2.4 1.8 1 5-1.5 3.7-1 6.2 1.8 8.5 2.1 1.8 3.7 11 1.9 11-.6 0-1.1.4-1.1 1 0 1.9 4.9 1 6-1 1.8-3.4 13.4-2.5 14.3 1.1.5 1.9 3.1 2.5 6.1 1.3 1.1-.4 1.6-1.9 1.6-4.6 0-3.8 2.6-9.8 4.2-9.8.4 0 2.2 1.5 4.1 3.3 3.8 3.9 7.9 5.3 9.6 3.4 1.6-2 6.8-.9 7.4 1.5.6 2.2 2.7 1.6 2.7-.8 0-1.1.6-1.3 2-.9 2.5.8 8-2.9 8-5.5 0-1.3.5-1.7 1.9-1.3 1.6.4 1.8 1 1.1 3.3-.7 2.5-.5 2.9 1.3 3.2 4.2.6 8.1-8.1 4.6-10.3-2-1.2 10.7-6.2 12.8-5 .9.5 2.5.6 3.5.3 1.1-.3 2.3 0 2.7.6.3.6 1.8 1.3 3.2 1.7 2.3.6 2.7.3 3.3-1.9.6-2.4.9-2.6 4.6-2 2.7.4 4 .3 4-.5 0-.6.9-1.1 2-1.1s2 .5 2 1.1c0 .5.5.7 1 .4.6-.4 1.8-.1 2.7.6.8.8 3.3 1.4 5.4 1.4 2.9 0 3.9-.5 4.5-2 .3-1.1.6-2.3.5-2.8-.1-.9.2-.8 5.6.2 2.9.6 4.4.5 4.7-.3.2-.6.5-.3.5.6.1 2 2.1 2.5 2.1.6 0-2 6.2-10.8 7.6-10.8 2.3 0 1.1-6.3-1.4-7.5-2.5-1.1-3.8-3.8-2.3-4.3.6-.2.8-1.4.5-2.9-.6-2.2-.4-2.4 1.5-1.8 1.2.4 2.1.2 2.1-.4 0-1.7 3.7-1.3 4.4.4.8 2.2 1.7 1.9 6.4-2.5 2.4-2.2 5.2-4 6.4-4 1.6 0 1.9-.5 1.6-2.5-.3-1.4-.1-2.8.4-3.1.5-.3.2-1.4-.7-2.4-.8-.9-1.3-2.4-.9-3.4s.1-1.7-.7-1.8c-5.4-.6-8.2-1.8-7-3.1 1-1.3-1.9-5.7-3.7-5.7-.5 0-1.2-.7-1.6-1.5-.3-.8-1.2-1.5-2.1-1.5-2.1 0-1.9-4 .3-5.6 1.3-1 1.4-1.5.5-2.5-1-.9-.8-1.8.8-4.1s1.8-3.2.9-4.3c-1.4-1.6-.5-3.5 1.6-3.5.8 0 1.4-.8 1.4-1.7 0-.9.8-2.5 1.7-3.5 1.6-1.8 1.6-2.1-.1-4.8-.9-1.7-1.5-3.4-1.1-3.9.3-.5.1-1.2-.5-1.6-.5-.3-1-1.2-1-1.8 0-.7 1.1.1 2.4 1.7l2.3 3 2.5-2.7c1.4-1.5 3.3-2.7 4.1-2.7.9 0 1.9-1.1 2.3-2.5.5-1.9 1.1-2.4 2.5-2 1.3.4 1.9.1 1.9-.8s.6-1.7 1.3-2c.9-.3.9-.8-.2-1.8-1-1.1-1.5-1.1-1.8-.1-.3.9-1.2.6-3.1-.9-2.4-1.9-2.7-1.9-3-.4-.2 1-1 1.4-1.8 1.1-.8-.3-2.4 0-3.5.7-1.6 1-2.2.9-3-.3-.8-1.2-.9-.9-.5 1.1 1 4.7-4.8 9.5-7.5 6.3-.7-.9-2-1.2-3.2-.8-1.5.5-1.9.3-1.5-.8.4-1-.1-1.4-1.4-1.4-1.2.1-2.2-.6-2.3-1.6-.3-1.4.2-1.7 1.8-1.4 6.4 1.3 9.7 1.6 9.7.8 0-1.4 3.6-5.2 4.4-4.7.3.3.2-.1-.4-.7-1.5-1.8-1.2-3.8.5-3.2 1 .4 1.8-.3 2.5-2 .8-2.2.6-3.2-1.1-5.5-1.6-2.2-1.9-3.6-1.4-6.4.8-4.3 1.3-4.4 5.7-1.7 4.4 2.6 5.3 2.5 5.4-.8.1-1.5-.1-2.1-.3-1.5-.7 1.9-2 1.6-2.6-.7-.3-1.4-1.4-2-3.1-2-1.6 0-2.6-.6-2.6-1.4 0-2.1-2-3-3.3-1.7-.9.9-.9 1.4 0 1.9.7.5.9 1.3.3 2.2-.7 1.1-1.1 1.2-2.5 0-.8-.7-1.4-1.8-1.2-2.4.3-.6.1-1.8-.4-2.7-.8-1.5-1.3-1.5-4.9-.3-4.5 1.6-9.2 1-8.4-1.1.3-.7.1-1.6-.5-2-.6-.3-1.1-.1-1.1.4 0 .6-.7 1.1-1.4 1.1-1.2 0-1.3.6-.4 3.1.6 1.6.8 3.3.4 3.6-.3.3.4 1.7 1.4 3.1 2.1 2.5 2.7 6.2 1.1 6.2-1.1 0-2.1 5.1-1.3 6.5.4.5.5 1.8.4 2.8-.2 1 .2 2.4.8 3.1.8 1 .7 2.1-.1 4-1.5 3.1-2.5 3.3-3.9.6-.6-1.1-2.2-2.3-3.5-2.6-2.8-.7-3.1-1.4-1.3-3.2.9-.9.9-1.2 0-1.2-.7 0-1.2.6-1.2 1.2 0 .7-.5.5-1.1-.5-.6-1-.8-2.4-.6-3.1.3-.7-.3-1.8-1.4-2.4-1.6-1-1.7-.9-1.2.6.6 1.5.5 1.5-1 .3-1.9-1.5-2.3-.1-.5 1.7 2.1 2.1.2 2.2-2.1.1-2.6-2.5-7.4-2.8-9.5-.6-.9.8-2.1 1.7-2.8 1.9-.7.3-1.1 1.8-1 3.6.2 2.4-.2 3.2-1.4 3.2-1.3 0-1.4.3-.4 1.5.7.8 1 2.2.6 3.1-.3.8-.1 2.5.5 3.6 1 1.8.8 1.9-1.3 1.3-1.2-.4-3.3-1.6-4.5-2.7-1.6-1.5-3-1.9-5.1-1.5-1.6.3-3.4.1-4-.5-.8-.8-1.3-.7-1.8.6-.4 1.1-1.3 1.5-2.8 1.1-1.8-.5-1.7-.4.4.9 2.8 1.7 1.9 2.2-1.1.5-1.5-.8-2-1.9-1.8-4.7.7-11.2-.7-14.5-5.2-12.1-1.5.8-2.4.7-3.5-.2-1.1-.9-1.8-.9-2.6-.1-1.4 1.4-4.8 1.6-4.8.4 0-.5.7-1.7 1.5-2.8 1.9-2.5 1.9-3.8 0-3-.8.3-2-.3-2.7-1.2-.7-.9-2.2-2.2-3.2-2.7-2.3-1.3-3.1-6.5-1.1-6.5.7 0 2.1.7 3 1.6 1.3 1.4 2.1 1.5 4.2.5 3.5-1.6 5.3.7 2.3 2.8-1.1.7-2 1.7-2 2.1 0 1.1 10.2.1 11.4-1.1.6-.5 2-.9 3.3-.9 2.7 0 3-1.8.6-3.6-2-1.5-6.3-1.9-6.3-.5 0 .4-1.2.6-2.6.3-2.4-.4-2.6-.8-2.1-4 .7-4 3.2-7.2 5.7-7.2 1 0 2-.7 2.4-1.5.4-1.2 1.1-1.3 3.1-.5 4.8 1.8 8.6-2 5-5-1.1-.9-1.3-1.5-.5-2s.3-1.7-1.5-3.6c-1.5-1.6-3.9-4.3-5.2-6.1-1.4-1.8-3.3-3.5-4.4-3.8-1-.4-1.9-1.1-1.9-1.7 0-.5.7-.8 1.5-.4 2.3.8 4.5-.4 4.5-2.4 0-3 1.7-3.2 3.8-.5 1.6 2 1.8 3.2 1.2 5.9-.8 3.6.1 6.3 1.8 5.3 1-.7 4.9 3.1 4.3 4.2-.2.3.6 1 1.8 1.6 2.6 1.2 2.6 2 .3 4.2-1.7 1.7-1.6 2 2 5.5 2.3 2.2 3.6 4.2 3.2 5.1-.3.8 0 1.8.5 2.2.6.3.9 1.1.6 1.6-.4.5 0 .9.8.9s1.7.6 2 1.4c.3.8 2 1.7 3.6 2.1 1.9.4 3.7 1.7 4.5 3.2l1.3 2.6.6-3.2c.5-2.2 1.2-3.1 2.7-3.1 2.3 0 2.5-1.7.8-5.4-1.1-2.5-1.4-2.6-8.5-2.1-4.5.3-7.3.1-7.3-.5s.7-1 1.5-1c3.2 0 .8-3.4-2.5-3.5-.8 0-1.5-.9-1.5-2s-.7-2.5-1.5-3.1c-1.1-.9-.3-1.5 4.3-3 4.7-1.4 5.7-2.2 5.7-4 0-1.4 1.5-3.4 3.9-5.3 2.6-2.1 4.1-4.2 4.5-6.4.3-1.8 1.7-4.9 3.1-6.7 1.7-2.3 2.2-3.7 1.5-4.4-.5-.5-1-2.1-1-3.4 0-1.3-.8-3.6-1.9-5-2.3-3.4-1.8-10.2.8-10.2 1.8 0 5.4-5.7 4.5-7.1-1-1.6.7-5.1 2.2-4.5.9.3 1.4-.1 1.4-1.4 0-1.1-.3-1.9-.7-1.9-2.3.4-3.1-.5-4.2-4.1-1.5-5-1.5-5.4-.2-5.8.6-.2 1.1.3 1.1 1.2 0 1 .6 1.3 1.5 1 1.2-.5 1.3-1 .5-1.9-.8-1-.7-1.4.6-1.7 1.5-.3 1.4-.5-.3-2.7-1.3-1.6-3-2.4-5.5-2.5-2 0-3.4-.4-3.2-.7.8-1.4-6.5-7.8-9.9-8.7-4-1.1-7.6-4.6-7.7-7.4 0-.9-1.5-4.6-3.4-8.2-1.9-3.6-3.1-6.8-2.7-7 1.4-.9.5-6.1-1.1-6.1-2.2 0-4.8-2.4-4.2-3.9.3-.7-.2-1.9-1.1-2.6-1.1-.9-1.2-1.6-.4-2.6.7-.9.7-1.8 0-3.3-1.4-2.4-1.4-6.4-.1-5.6.5.3 2 .3 3.3 0 2.6-.7 5.3-6.1 3.4-6.8-.9-.3-.9-1.1 0-3 .8-1.6.9-2.9.3-3.2-.6-.4-1-1.3-1-2.1 0-.9.5-1.2 1.1-.8.8.4.8.1.1-1.3-.6-1.1-.7-2.5-.2-3.3.6-1 .4-2.3-.5-3.7-2-2.9-1.9-8.2 0-8.9 1.8-.7 2-4.5.3-6.2-.9-.9-.7-2.1.6-5.1 1-2.2 1.5-4.4 1.1-5-.3-.6.1-1.4.9-1.7.9-.3 1.6-1.7 1.6-3s.9-2.9 1.9-3.6c1-.6 1.7-1.7 1.4-2.5-.3-.7.2-1.6 1.1-1.9 1.3-.5 1.5-1.4 1.1-3.5-.5-2.1-.2-3.1.9-3.5.9-.3 1.6-1.3 1.6-2 0-.8 1.6-3.1 3.6-5 3-3.1 3.4-4 2.8-6.7-.8-4.2-2.4-6.2-3.5-4.6-.9 1.5-7.5-.2-7.2-1.9.1-.6-1.1-2.4-2.7-4.2-2.5-2.7-3-2.9-3.8-1.4-.7 1.3-1.1 1.4-1.7.3-.5-.7-.4-1.4.3-1.7 2.2-.7-.1-3.2-2.9-3.2-2.1 0-3.2-.6-3.8-2.3-.5-1.2-4.3-4.9-8.5-8.1-4.2-3.2-7.6-6.2-7.6-6.6 0-2.1 1.3-3.8 2.4-3.4 1.7.7 4-2.2 3.2-4.1-.3-.9.1-1.8.9-2.1 2.1-.8 1.9-2.8-.5-4.9-1.1-1-2-2.4-2-3 0-.8-1.7-1.5-4-1.7-2.2-.2-4 0-4 .5 0 .4-.4.5-1 .2-.5-.3-1-.1-1 .4 0 .6-1.3 1.1-2.9 1.1-1.6 0-3.7.7-4.6 1.6-1.5 1.5-1.7 1.5-3.4 0-1.6-1.5-1.9-1.5-2.4-.1-1 2.6-7.3 1.9-9.9-1-1.2-1.4-2.8-2.3-3.5-2.1-.6.3-2.2-.4-3.5-1.5-1.4-1.1-1.6-1.7-.7-1.3 2.2.7 3.2-2.1 1.3-3.6-.8-.7-1.4-1.9-1.4-2.6 0-.8-.4-1.4-1-1.4-1.5 0-4-4.3-4.4-7.7-.4-4-1.1-5-4.2-5.7-1.8-.5-3-.3-3.5.6-.7 1-1.2 1-2.5-.4-1.4-1.4-1.5-2-.4-3.2 1-1.2 1-1.6 0-1.6-.7 0-1-.7-.6-1.5.3-.9-.1-1.8-.8-2.1-2.6-1-2.6-3.5-.1-6.1 2.2-2.4 2.3-2.9 1.1-5.7-.7-1.7-1.1-3.7-.8-4.5.3-.9-.1-1.1-1.6-.7-1.1.4-2.3.2-2.6-.3-.4-.5-2.4-2.4-4.6-4.1-3.9-3.1-4-3.1-3.8-.8.3 2-.2 2.3-4 2.6-4.4.3-8.2 3.1-11.5 8.4-1 1.6-2.5 2.8-3.3 2.8-1.2 0-1 .5.7 2 1.3 1 2.1 1.9 1.6 2-.4 0 .1 1.7 1.2 3.8 1.9 3.7 1.9 3.9.1 6.2-1.4 1.9-2.1 2.2-3.2 1.2-1.1-.9-1.6-.3-2.7 3.1-1.9 6.6-9.1 10.5-7.5 4.1.6-2.2.3-2.4-2.6-2.4-4.8 0-14.6-5.6-17-9.7-1.3-2.3-2.6-3.3-3.5-2.9-.8.3-1.9-.3-2.5-1.3-.5-1-2.4-2.1-4.2-2.4-8.3-1.5-10-2.1-11.7-4.4-1.1-1.3-3.9-3-6.3-3.7-2.4-.7-4.2-1.8-4-2.5.1-.7-.7-2.4-1.8-3.8-1.1-1.5-1.7-2.9-1.3-3.2 1.5-1.1 3.3-6.2 2.6-7.4-1-1.6-1.1-6.7-.1-6.7 1.9 0 .6-3.4-2.7-7.3l-3.6-4.2 2.4-.8c1.8-.6 2.3-1.3 2-2.7-.3-1.2.3-2.2 1.7-3 1.6-.8 1.9-1.7 1.4-3.3-.4-1.2-.8-2.9-.9-3.7 0-.9-.4-2.1-.9-2.8-.4-.7-.2-1.2.4-1.2.7 0 .5-.9-.4-2.2-.9-1.2-1.6-3.6-1.6-5.3 0-1.7-.9-4.8-2-7s-2-4.7-2-5.6c0-.9-1.9-3.4-4.2-5.5-2.4-2.1-4.1-3.9-3.9-3.9.2 0-.1-1.1-.8-2.4-.7-1.3-1.4-3.8-1.6-5.5-.1-1.7-.6-4.1-1-5.4-.6-1.7-.3-2.2.9-2.2 2.1 0 2-1.3-.3-5.8-1.7-3.3-1.7-4-.5-5.7.8-1 1.4-2.5 1.4-3.2 0-1.7-4-1.6-6.4.2-2.5 1.9-6 1.9-7.6 0-.7-.8-1.6-1.3-2-1-.4.3-1.1-.7-1.5-2.2-.4-1.6-.2-2.9.4-3.1 1.7-.6-.9-5.4-4.8-8.9-2-1.8-3-3.3-2.3-3.3.7 0 1.2-.6 1.1-1.3-.5-4.2 1-4.8 4.3-1.7 1.2 1.1 3.4 2 5 2 3.1 0 3.3-.3 1.8-3.1-.9-1.5-.7-1.9.6-1.9 1.1 0 1.4-.5 1-1.6-1.5-4-1.9-6.7-.7-6 3 1.9 13.5-4.4 11.1-6.8-1.6-1.6-1.2-2.6 1-2.6 1.6 0 2-.7 2-3 0-1.7.6-3.9 1.2-5 1-1.6 1-2.2-.4-3.2-2.3-1.9-3.3-5.8-1.5-5.8.8 0 2.5-.9 3.8-1.9 2-1.6 2.2-2.3 1.3-3.9-1.2-1.8-1.2-7.7-.2-8.8.3-.3.1-1.8-.5-3.4-1-2.5-.8-3.1 1.4-4.9l2.4-2.1-3.4.7c-3.3.6-3.4.6-2.9-2.5.2-1.8.1-3.2-.4-3.2-.4 0-.8 1-.8 2.1 0 1.6-.5 2-2 1.6-1.1-.3-1.8-.1-1.5.3.3.5-.4 1.4-1.5 2-1.7.9-2.5.6-4.6-1.5-1.4-1.4-2.3-2.9-2-3.4.8-1.3-2.5-3.8-6-4.5-2.7-.6-3.2-.4-3.7 1.5-.4 1.3-.1 2.9.4 3.6.6.7.9 1.8.7 2.5-.3.7.2 1.8.9 2.3 1.2.9 1.9 2.7 2.2 5.7.1.5.8.8 1.6.8.9 0 1.8.7 2.1 1.5 1.2 3 8.4 1.5 8.4-1.7 0-1.1.8-2.2 2-2.5 1.1-.3 1.7-.9 1.4-1.4-.3-.5.4-.9 1.5-.9 1.5 0 2.1.6 2.1 2.4 0 1.8-.7 2.5-3 3l-3 .6 2.1 2.1c1.5 1.5 2 3 1.7 5-.3 1.6 0 3.1.6 3.3.6.2.2.5-1 .5-1.1.1-2.7 1.2-3.4 2.6-.7 1.3-2.6 2.9-4.3 3.5-3.6 1.2-6 1.3-5.3.2.2-.4-.3-1.3-1.3-1.9-1.5-1-1.7-.6-1.5 2.8.2 4.3-.1 4.6-3.1 2.3-2.1-1.6-2.5-3.1-2.8-10.6-.2-3.8.1-4.8 1.7-5.2 2.3-.6 1.6-3-1.1-3.4-1.2-.2-2.9-1.2-3.8-2.2-1.3-1.5-2.2-1.7-3.6-.9-1.3.6-2.5.6-3.8 0-1.6-.9-1.7-.7-1.3 1.7.3 1.5.1 2.4-.3 1.9-.5-.4-1.5-.1-2.4.7-.9.7-3.1 1.6-4.8 1.9-2.8.6-3.3.4-3.3-1.3 0-2.5-5.1-6.1-7.7-5.4-1.4.4-2.2 0-2.5-1.4-.6-2-6.4-3.6-7.4-2-1.7 2.8-11.8-1.7-11.2-5.1.2-.9-.7-2.4-1.9-3.4-1.3-1-2.1-2.3-1.8-2.7.3-.5-.4-1.4-1.5-2-2.3-1.2-2.8-3.2-.6-2.4.9.3 2.2-.5 3.2-2.1 1.6-2.5 1.9-2.6 3-1 .8 1 1.4 1.2 1.9.6.3-.6.1-1.1-.6-1.1s-.9-.3-.6-.7c.4-.3-.1-1.2-1.1-1.9-3.2-2.4-.2-2.8 4.4-.6 2.5 1.3 5.4 2 6.4 1.7 1.3-.4 2 0 2.5 1.5.7 2.3 1.4 2.4 5.1.8 2.4-1.1 2.9-1 5 1.5 2.7 3.2 5.4 3.5 5.4.8 0-2.4 3.2-3.6 5.8-2.2 1.1.6 2.2.8 2.5.4.3-.3.9.6 1.3 2.1.4 1.7 1.5 2.8 3.2 3.3 1.5.3 3.4 1.5 4.3 2.6.9 1.2 2.1 1.7 2.8 1.3.8-.5.4-1.6-1.4-3.8-1.4-1.7-2.4-3.7-2.1-4.4.3-.8-.1-2.9-.9-4.8-1.3-3-1.3-3.6 0-4.6 2-1.6 1.9-2.7-.5-5.7-1.1-1.4-2-3.2-2-4.1 0-.8-.8-2-1.7-2.7-1.4-1-2.1-1-3.9.2-4 2.6-10.9-1-10.9-5.7 0-.9-1-1.5-2.6-1.5-1.4 0-3.2-.5-4.1-1.2-1.1-1-1.7-.9-3 .3zm27.1 102.3l3.4 2.8-3.2 1.1c-3.6 1.3-6 .7-7.9-2-.7-1-2-1.8-2.8-1.8-.8 0-1.4-.5-1.4-1 0-1.3.6-1.3 3.2.1 1.7.9 2.3.8 3-.5 1.2-2.1 1.7-2 5.7 1.3zm-169.1.4c.5 2.3-1 2.1-2.6-.4-1.2-1.8-1.1-2 .5-1.7 1 .2 1.9 1.1 2.1 2.1zm-6 2.3c1.2.4 2.2 1 2.2 1.5 0 1.4-3.3 1-5.4-.6-2.2-1.6-.9-2 3.2-.9zm12.4 1.1c.9.3 1.9 1.5 2.2 2.7.3 1.2 1.3 2.2 2.3 2.3 1 .1 3.3.3 5.2.4l3.4.2-3.4 2.9c-4.2 3.5-11.3 7.3-15.5 8.2-1.8.4-5.7 3.1-9 6.2-3.2 2.9-6.7 5.4-7.7 5.4-1.4 0-1.7.7-1.4 3.5.3 2 .7 3.8 1 4.2.4.3-.5 1.4-1.9 2.5-2 1.6-2.8 1.8-3.9.8-.8-.7-1.5-1.8-1.5-2.5s-.6-1.8-1.4-2.5c-1.6-1.3-1-4.1.8-3.9 2.6.3 3.6-.2 3.6-2 0-1.1.5-2.3 1.1-2.6 1.5-1-1.1-3.6-5.8-5.9-2.1-1-4.5-2.2-5.4-2.6-.9-.5-2.6-.6-3.7-.4-1.4.4-2.5-.3-4.1-2.9-2.6-4.3-2.6-5.1-.2-3.7 2.8 1.4 4.1 1.2 4.1-.6 0-1 .6-1.4 1.4-1.1.8.3 3.1.9 5.1 1.3 3.7.7 3.7.7 3.1-2.3-.6-2.7-.4-3.1 2.1-3.6 2-.4 3.4.1 5 1.6 1.4 1.2 3.9 2.1 6 2.3 2.1.1 4.8.5 6.1.9 1.8.6 2.2.4 2.2-1.5s.4-2.1 2.5-1.6c2.6.7 3.1-.5 2.7-5.8-.2-1.4.2-1.6 1.5-1.1 1 .4 2.5.9 3.5 1.2zm54.5 1.9c-.3.3-1.2.4-1.9.1-.8-.3-.5-.6.6-.6 1.1-.1 1.7.2 1.3.5zm1.3 2.9c0 .2-.9.3-1.9.2-1.1 0-1.8-.5-1.5-.9.4-.6 3.4 0 3.4.7zm-24.5 4.5c.3.5-.1 1-.9 1-.9 0-1.6-.5-1.6-1 0-.6.4-1 .9-1 .6 0 1.3.4 1.6 1zm-80 1c.3.5.1 1-.4 1-.6 0-1.1-.5-1.1-1 0-.6.2-1 .4-1 .3 0 .8.4 1.1 1zm68.7 3.2c-.9.9-1.2.7-1.2-1.2s.3-2.1 1.2-1.2c.9.9.9 1.5 0 2.4zm-45.7 63c1.6.7 2.4 1.7 2 2.6-.3.7-.5 1.8-.5 2.3 0 2.4-2.8.5-3.7-2.6-1.3-4-1.3-3.9 2.2-2.3zm-12 3.8c-.3.5-1 1-1.6 1-.5 0-.9-.5-.9-1 0-.6.7-1 1.6-1 .8 0 1.2.4.9 1zm289.5 86c0 .4-.7 1.1-1.5 1.4-1.2.4-1.4 1-.5 2.5.5 1.1.6 2.2.1 2.5-.4.3-1.3-.5-1.9-1.9-.8-1.8-.8-2.5.1-2.8.9-.3.9-.8 0-1.8-.7-.7-1.3-1.9-1.3-2.6 0-1 .6-1 2.5.3 1.4.9 2.5 2 2.5 2.4zm20 1.5c0 .8-.5 1.7-1 2-.8.5-.8 1.1 0 2 .7.9.6 1.6-.4 2.4-1.1.9-1.5.5-2-2.2-.4-1.9-.4-4.1 0-5 .7-1.8 3.4-1.1 3.4.8zm-6.2 2.7c2 2 1.4 3.8-1.3 3.8-1.8 0-2.5-.5-2.5-1.8 0-3.2 1.7-4.1 3.8-2zm-13.8 5.8c0 1.1-.7 2-1.5 2-1.5 0-2.1-2.1-.8-3.3 1.2-1.3 2.3-.7 2.3 1.3zm29 4.1c0 .5-.7.6-1.5.3-.8-.4-1.5-1.3-1.5-2.1 0-1.3.3-1.3 1.5-.3.8.7 1.5 1.6 1.5 2.1zm-33 .7c0 2.4-3.5 5.8-4.5 4.3-.3-.6-.1-1.1.5-1.1s.8-.5.5-1c-1-1.6.2-4 2-4 .8 0 1.5.8 1.5 1.8zm-7.1 2.8c.3 1.6.1 1.7-1.3.5-1.9-1.6-2.1-3.4-.3-2.9.6.3 1.4 1.3 1.6 2.4zm-6.9 8.4c0 .5-.4 1-.9 1-.6 0-1.3-.5-1.6-1-.3-.6.1-1 .9-1 .9 0 1.6.4 1.6 1zm-4 1c0 .5-.2 1-.4 1-.3 0-.8-.5-1.1-1-.3-.6-.1-1 .4-1 .6 0 1.1.4 1.1 1zm120.7 7.2c-.3.8-.6.5-.6-.6-.1-1.1.2-1.7.5-1.3.3.3.4 1.2.1 1.9zm-102.4 4.3c3 1.3 3.3 4.9.7 8.5-1.2 1.6-1.8 3.5-1.4 4.2.5.7.2.9-.8.6-1.1-.5-1.5.1-1.4 2.2.1 1.6.5 2.8 1 2.7.5-.1 1.1.4 1.3 1 .5 1.4-1.6 1.7-3.2.5-.5-.4-1.1-1.4-1.1-2.2-.1-.8-.5-2.7-.9-4.3-.6-2.1-.4-2.7.9-2.7s1.5-.4.6-1.9c-1.4-2.6-1.3-3.7.5-5.5 1.4-1.3 1.3-1.6-.6-2.6-2-1.1-2-1.2-.2-2.5 1.3-1 1.9-1.1 2.1-.2.1.7 1.3 1.7 2.5 2.2zm-23.9 4.1c.3.8.2 1.2-.4.9-.6-.3-1-1-1-1.6 0-1.4.7-1.1 1.4.7zm5.6 3.8c0 1.1-1.9 1.5-2.5.6-.3-.5.1-1 .9-1 .9 0 1.6.2 1.6.4zm143.7 11.2c-.3.3-1.2.4-1.9.1-.8-.3-.5-.6.6-.6 1.1-.1 1.7.2 1.3.5zm-112 159.1c.4 1.2-3.6 2.5-5 1.6-1.2-.7 2.3-3.5 3.7-3 .5.2 1.1.8 1.3 1.4zm5.6 8.8c.4.8.2 1.7-.3 2-.6.4-1-.3-1-1.4 0-2.5.6-2.7 1.3-.6zm-23.3 34.6c0 .5-.4.9-1 .9-.5 0-1-.7-1-1.6 0-.8.5-1.2 1-.9.6.3 1 1 1 1.6zm82.5 42.8c-.3.6.2 1.4 1 1.8 1.1.7 1.3 1.5.8 2.9-1 2.3-5.9 3-6.7.8-.3-.8.1-1.4.9-1.4s1.7-1.1 2.1-2.5c.3-1.4 1-2.5 1.6-2.5.5 0 .7.4.3.9zm100.9 8.6c.3.8.2 1.5-.3 1.5s-1.4-.7-2.1-1.5c-1-1.2-1-1.5.3-1.5.8 0 1.7.7 2.1 1.5zm-16.9 8.6c1.1 1.7-.1 2.1-1.5.4-.8-.9-.8-1.5-.2-1.5.6 0 1.4.5 1.7 1.1zm-61.2 1.6c-1.9.4-2.1.8-1.3 2.9.6 1.5.6 2.4-.1 2.4-.6 0-.6.8.2 2.1 1 2 .9 2.1-1.7 1.5-3.6-.9-3.6-.9-2.8-3 .3-.9 1.3-1.6 2.2-1.6 1.3 0 1.3-.2-.3-1.3-2.5-1.9-1-3.7 2.8-3.6 2.3.1 2.6.3 1 .6zm56.8 34l2.4 2.7-2.4-1.5c-1.4-.9-2.7-2.1-2.9-2.7-.6-1.9.3-1.4 2.9 1.5zm18.4 9.2c.3.5.1 1.2-.5 1.6-.5.3-1-.1-1-.9 0-1.8.6-2.1 1.5-.7zm3 .1c.3.5.1 1-.4 1-.6 0-1.1-.5-1.1-1 0-.6.2-1 .4-1 .3 0 .8.4 1.1 1zm-4.9 14.7c-.5 1.1-1 1.3-1.7.6-.7-.7-.7-1.7.3-3.2 1-1.8 1.4-1.9 1.6-.6.2.9.1 2.3-.2 3.2zm-22.6 46.8c1 1.2 1 1.5-.4 1.5-.9 0-1.6-.7-1.6-1.5s.2-1.5.4-1.5.9.7 1.6 1.5zM291.599 64.355c-.3 1.1-.3 2.5.1 3.1.3.6.1 1.5-.6 1.9-.7.4-.9 1.3-.6 1.9 1.1 1.6 2.6 1.3 2-.4-.7-1.6 1.1-2.1 2.1-.6.3.5 1.8 1.2 3.4 1.6 2.3.5 3 1.3 3.5 4.1.4 1.9 1.2 3.4 1.7 3.4.7 0 .9 2.7.5 7.6-.4 6.2-.3 7.4.8 6.5.7-.6 1.6-.7 2.1-.3.4.4 0-.5-1-2.1-1.9-3-1.9-3 4.9-2.7 3.7.2 3.8.1 2.3-1.5-2.1-2-2.2-3.6-.3-2.9 1.7.6 3.1-2.7 1.5-3.7-.6-.4-.8-1.2-.5-1.8.4-.6.2-1.1-.4-1.1-.7 0-.5-1 .4-2.9 1.6-3 .5-5.4-2-4.4-.8.3-2.4-.1-3.7-1-1.2-.8-3.7-1.8-5.4-2.1-1.7-.4-3.7-1.3-4.3-2.1-.6-.8-1.8-1.1-2.6-.8-.8.3-1.4 0-1.4-.6 0-1.9-1.8-1.2-2.5.9zM128.099 74.755c0 .2.8 1 1.8 1.7 1.5 1.3 1.6 1.2.3-.4s-2.1-2.1-2.1-1.3z"/><path d="M137.299 77.255c.2.7.7 1.2 1.1 1.2 1.2-.1.9-1.5-.3-2-.7-.2-1.1.2-.8.8zM110.899 78.555c1.1 1.1 5.2 2.2 5.2 1.4 0-.2-1.5-.9-3.2-1.5-2.6-.9-3-.9-2 .1zM135.099 86.355c-1.3.8-1.2 1 .3 1 .9 0 1.7-.5 1.7-1 0-1.2-.1-1.2-2 0zM115.799 89.555c-.4 1.2-.4 2.4-.2 2.7.7.7 3.4-3.2 2.9-4.1-.9-1.5-2.2-.8-2.7 1.4zM100.699 91.255c-.3.5 1.2 1.8 3.4 2.9 4.6 2.3 4.8 2.1 1.8-1.3-2.2-2.6-4.3-3.2-5.2-1.6z"/><path d="M109.799 95.955c-.3.3-.3 1.2-.1 1.9.9 2.2-1.3 2.6-5.8 1-8.5-3.1-8.7-3-9.2 3.2-.3 2.6.3 4.8 1.9 7.3 1.9 3 2.1 3.9 1 5.3-1.4 1.9-1 5 1.1 8.2 1.2 1.8 1 2.3-2.2 4.4-3.3 2.3-3.5 2.8-2.9 6 .9 4.6 1.2 5.1 3.5 5.1 1 0 2 .6 2.3 1.2.3 1 .9 1 2.4.1s2.3-.9 3.2 0c.7.7 1.1.8 1.1 0 0-.6-.7-1.6-1.6-2.4-1.1-.9-1.4-2.1-.9-4.3.4-1.7.8-5 .8-7.3.1-2.3.5-4.5 1-4.9 1.3-1.4.7-5.1-1.3-7.7-1.1-1.4-2.3-4-2.7-5.7-.6-3.2-.5-3.2 2.4-2.6 2.5.6 3.1.4 3.6-1.3.3-1.2 1.3-2.1 2.5-2.1 2.3 0 3.6-3.5 1.8-5-.7-.5-1.5-.7-1.9-.4zM114.599 96.455c-.4.6-.5 1.2-.2 1.5.2.3.7-.2 1-1.1.7-1.7.1-2-.8-.4zM288.099 158.955c-1.1 1.2-1 1.8.3 3.1 1.5 1.6 1.6 1.4 1.4-1.5-.2-3.7-.1-3.6-1.7-1.6zM286.599 164.255c-.3.6-1.5 1.1-2.6 1.1-1 0-1.9.5-1.9 1.1 0 .7-1 .9-2.7.4-2.7-.6-2.7-.6-.9 1.4 1.1 1.2 2.4 2.1 3.1 2.1 1.4 0 6.9-5.9 6.2-6.7-.3-.2-.8 0-1.2.6zM288.799 166.155c-.6.9-3.4 10.1-4 12.8-.2 1.2 0 2.8.5 3.5.8 1.1.9 1.1.5-.2-.8-2.5 1.2-3.9 5.5-3.9 2.1 0 3.8-.5 3.8-1 0-1.5 4.4-1.2 6.6.5 1 .8 2.6 1.5 3.4 1.5.8 0 2.1.9 2.8 2 .8 1.3 2.3 2 4.2 2 2.6 0 3-.4 3-2.6 0-3.9-1.8-6.4-4.5-6.4-1.4 0-2.5-.5-2.5-1.2 0-.9-.3-.9-1.2 0-1.6 1.6-6.9 1.6-6.5-.1.1-.8-.8-1.1-2.8-1-3.2.3-6.9-2.3-6.1-4.3.5-1.3-2.1-2.8-2.7-1.6zM323.699 183.855c-.3.8-.1 1.5.4 1.5 1.3 0 2.2-1.8 1.1-2.4-.5-.3-1.1.1-1.5.9zM316.099 185.155c0 .5.6 1.7 1.4 2.7 1.3 1.9 1.4 1.8 1.3-.8-.1-1.5-.8-2.7-1.4-2.7-.7 0-1.3.4-1.3.8zM374.099 195.255c0 .5-.8.8-1.7.7-1.8-.1-2.1 1.5-.8 4.6.5 1.3.3 1.8-.8 1.8-.8 0-1.7 1.3-2 2.9-.4 2.1-1.3 3-2.9 3.3-2.1.3-2.3.7-2 5 .3 3.9.1 4.8-1.2 4.8-1.2 0-1.5.6-1 2.5.5 2 .3 2.4-1 1.9-1.2-.5-1.6 0-1.6 2 0 1.8-.5 2.6-1.7 2.6-1.4 0-1.4.2.3 2.1 2 2.2 2.1 6.4.2 8.7-.6.7-.8 1.5-.4 1.9.3.3.6.2.6-.3 0-.6 1.6-.8 3.5-.6 2.8.3 3.8 1.1 5.1 3.7.9 1.9 1.5 4.4 1.4 5.7-.4 4.5 0 5.8 1.5 5.2.8-.4 1.5-1.2 1.5-2 0-.7.8-1.9 1.8-2.6 2.7-1.9 3.3-6.5 1.6-13.1-.8-3.2-1.2-6.2-.9-6.7.3-.5.1-1.1-.5-1.5-.6-.4-.8-1-.5-1.5.3-.4-.2-1.4-1.1-2.1-1.3-1-1.7-1-2.4.1-1.2 2-4 .4-4-2.5 0-1.4.5-2.5 1.1-2.5.6 0 .8-.8.4-1.9-.4-1.5-.2-1.8 1.2-1.5 2.5.7 5.6-6.7 4.3-10.2-.8-2.1-.6-2.6 1.4-3.4 3.3-1.2 5.1-8 2.1-8-.8 0-1.5.4-1.5.9zM377.799 259.355c.6 2.3 3.1 4.6 4 3.6.3-.3.1-1.7-.5-3.1-1.4-3-4.3-3.5-3.5-.5zM344.699 259.255c.5 1.1.3 1.3-.9.8-1.1-.4-1.4-.2-1 .9.7 1.8-.8 1.8-5.4-.1-1.9-.8-3.7-1.5-3.9-1.5-.2 0-.4.7-.4 1.5s-.8 1.5-1.8 1.5-2.2.3-2.5.7c-.9.8 4.4 4.4 5.5 3.7 1.6-1 6.7.8 7.3 2.6.6 1.8 5.5 4.4 8.6 4.5.9 0 3.4 1.6 5.5 3.6 3.8 3.4 7.1 5.4 8.6 5.1.4-.1 1.9 1.4 3.4 3.3 2.1 2.8 3.1 3.4 5 2.9 1.5-.4 3.4 0 4.8 1 2.4 1.5 2.6 1.4 4.6-1.1 3-3.8 3.5-7 1.6-9.2-1.2-1.3-1.4-2.1-.6-2.6.8-.5.6-1.3-.6-2.7-1.4-1.5-1.6-2.3-.7-3.7.9-1.5.7-2.3-1.3-4.5-3.1-3.2-3.5-3.2-7.3 0-2.1 1.7-3.7 2.3-5.1 1.9-1.1-.3-2.5-.3-3.2.2-2 1.2-6.8 1.2-6.8-.1 0-.6-.4-1.8-1-2.6-.8-1.2-1.1-1.2-2.7.2-2.2 1.9-5.6 2-4.9.1.3-.7-.8-2.8-2.5-4.6-1.7-1.7-2.7-2.6-2.3-1.8zM323.099 260.855c.7.9 1.5 1.3 1.7 1.1.7-.7-.7-2.6-1.9-2.6-.6 0-.6.6.2 1.5zM23.099 267.455c0 .5.5.7 1 .4.6-.3 1-.8 1-1.1 0-.2-.4-.4-1-.4-.5 0-1 .5-1 1.1zM386.799 268.755c-.6 1.4 0 2.6 1.4 2.6.3 0 .9-.9 1.2-2 .6-2.3-1.8-2.8-2.6-.6zM19.099 271.255c0 .7-.8 1.1-1.7 1-3.3-.3-4.3.1-4.3 1.6 0 .9.6 1.8 1.3 2.1.7.2 1.4 2.1 1.5 4.1.3 4.2.7 4.8 3 4.8 3.3 0 7.1-6.2 5-8.3-.7-.7-.6-1.6.1-3 1.4-2.6 1.4-3.2 0-3.2-.5 0-.7.4-.4 1 .9 1.4-1.9 1.2-3.3-.2-.9-.9-1.2-.9-1.2.1zM476.299 379.955c1 1 2 1.5 2.4 1.2.3-.4-.5-1.2-1.8-1.8-2.2-1.2-2.2-1.2-.6.6zM187.099 458.155c0 .5 1 1.7 2.2 2.8l2.1 1.9-1.8-2.8c-1.8-2.8-2.5-3.3-2.5-1.9zM210.599 460.355c.3.5.8 1 1.1 1 .2 0 .4-.5.4-1 0-.6-.5-1-1.1-1-.5 0-.7.4-.4 1zM211.299 463.255c-1.4.8-.4 2.2 2.6 3.9 3.2 1.8 3.5 1.2.8-1.9-1.3-1.5-2.8-2.4-3.4-2zM203.499 464.555c-.3.4.4.8 1.5.8s2.2-.4 2.6-.9c.3-.6-.4-.9-1.6-.8-1.1.1-2.3.5-2.5.9zM190.099 465.255c0 .5.7 1.1 1.5 1.5.8.3 1.5 1.2 1.5 2 0 1.7 6.4 3.1 8.6 1.8 1.5-.8 1.5-1 0-1.5-.8-.3-1.8-.2-2.2.4-.3.5-1.9-.4-3.7-2.1-3-2.9-5.7-3.9-5.7-2.1zM205.199 468.655c-1.3 1.6-.5 2.7 2.1 2.7 1.1 0 1.8-.7 1.8-2 0-2.3-2.2-2.7-3.9-.7zM210.699 469.055c-.7 1.6 1.1 3.6 2.5 2.7.9-.5-.1-4.4-1.1-4.4-.4 0-1.1.8-1.4 1.7zM154.299 471.455c.8 1.5 2.7 3.8 4.3 5.1 1.9 1.7 2.9 3.5 3 5.3 0 3.5 1.8 4.2 4.2 1.7 1-1.1 2.8-2.3 4.1-2.7 3.7-1.1 2-2.9-4.7-4.6-3.9-1-7.3-2.7-9.2-4.5l-3-2.9 1.3 2.6zM182.099 471.855c-.7.8-2.1 1.5-3.1 1.5-3.7 0 .8 9.2 5.1 10.3 1.9.5 3.5-1.7 2.4-3.4-1-1.6.7-5.1 2.2-4.5.8.3 1.4-.1 1.4-.9s.7-1.5 1.5-1.5 1.5-.5 1.5-1c0-1.7-2.4-2.2-5.2-1.1-1.6.6-2.9.6-3.5 0-.6-.6-1.4-.4-2.3.6zM192.099 477.355c2 1.3 3.3 1.3 2.5 0-.3-.6-1.4-1-2.3-1-1.5 0-1.5.2-.2 1z"/><path d="M191.399 482.955c-.2.6-2.1 1.4-4.3 1.8-2.1.3-4 1.3-4.4 2.1-.9 2.4-4.5 1.8-5.8-1.1-1-2.2-1.7-2.5-4.2-2-1.7.4-3.3 1.1-3.7 1.7-.4.7-1.2.8-1.9.4-.8-.5-1.1-.3-.8.6.6 1.6-2.4 8-4.6 9.8-1.2 1-1.3 1.6-.3 3.2.6 1 1.7 1.9 2.3 1.9.6 0 1.7.6 2.3 1.4.7.8 2 1.2 3 .9 1-.2 3.5.3 5.6 1.1 4.7 2 7.1 2 7.9.1.3-.8 1.6-1.5 2.9-1.5 1.4 0 3-.7 3.7-1.5.9-1.1 1.6-1.2 2.5-.5.9.8 1.4.7 1.7-.2.4-1 .8-1 2.1.1 1.4 1.1 2 1.1 3.5 0 5.5-4.4 5.5-7.1-.3-9.8-4.7-2.2-5.9-4.1-2.6-4.1 2.3 0 4.3-2.3 3.6-4.1-.7-1.7-7.5-2-8.2-.3zm4.5 10.3c.3.8-.1 1.2-.9.9-.7-.2-1.5-1-1.7-1.7-.3-.8.1-1.2.9-.9.7.2 1.5 1 1.7 1.7zm1 6c.3.8-.1 1.2-.9.9-.7-.2-1.5-1-1.7-1.7-.3-.8.1-1.2.9-.9.7.2 1.5 1 1.7 1.7zM524.099 539.155c-1.8 1.5-2.1 2.2-1.2 3.8.9 1.8.7 1.9-3.4 1.5-4.4-.3-4.4-.3-3.4 2.3.8 2.1.7 2.8-.5 3.2-1.1.4-1.3 1.6-.9 4.2.3 2.1.9 4.1 1.4 4.6.5.5.6 1.5.3 2.2-.3.8 0 2.1.7 2.8.9 1.1.7 2.2-.7 4.8-1.6 3-1.8 3.1-2.1 1-.2-1.2-.8-2.2-1.3-2.2-.8 0-.2 7.8.7 8.9.2.2-1 1.3-2.6 2.3-1.7 1-3.5 2.9-4 4.3s-1.5 2.5-2.1 2.5c-.8 0-.6.7.4 1.8 1.9 2.1 2.2 4.2.7 4.2-1.6 0-1.2 6.6.5 8 .9.8 1.2 1.7.7 2.4-.5.6-.9 2.2-1 3.5 0 1.3-.6 2.7-1.3 3.1-.6.4-.8 1.3-.5 1.9.4.6 0 1.4-.8 1.7-.9.3-1.6 1.2-1.6 2s-.7 1.4-1.6 1.4c-1.1 0-1.4.5-1 1.6.5 1.4.1 1.6-2.4 1.1-1.6-.4-3-.2-3 .3 0 1 6.9 3.2 8.1 2.5.4-.3 1 .1 1.2.7.4.9.6.8.6-.3.1-1 1.8-2.1 4.4-2.9 2.3-.8 5.5-2 7-2.7 1.6-.8 4.2-1.5 5.7-1.5 1.6-.1 2.9-.4 2.8-.7-.1-.3.2-1.4.6-2.3.7-1.6 1.1-1.5 4.2.8 2.7 2.1 3.7 2.4 4.8 1.5 1-.8 1.6-.9 2.1-.1.3.5 1.7 1 2.9 1 1.3 0 2.9.7 3.6 1.5.9 1.1 1.6 1.2 3 .3 1.4-.9 2.2-.9 3.2 0 2 1.6 4.5-2.3 2.7-4.4-.9-1.2-.6-1.4 2-1.4 2 0 3.1.5 3.1 1.4 0 2.1 2 2.4 5.3.8 3.7-1.9 4.6-.8 1.8 2.2-1.6 1.7-2 2.9-1.4 3.9 1.4 2.6 7.1-.4 7.5-3.9.2-1.8 1.2-3.3 2.6-4 2.9-1.4 2.8-2.5-.4-4.2-2.7-1.4-7.4-8.2-7.4-10.7 0-.9-.7-2.6-1.6-3.9-1-1.6-1.2-2.6-.5-3.1.7-.4.2-1.8-1.3-3.8-2.1-2.8-2.3-3.4-1.1-5 .9-1.3 1.1-2.7.4-5-.5-1.8-.9-4.6-.9-6.4 0-2.5-.4-3.1-1.5-2.6-1.9.7-5.8-2.6-5.1-4.3.3-.8-.5-1.4-2.2-1.6-1.8-.2-4-2-7-5.8-5.2-6.5-15.2-17-16.3-17-.4 0-1.7.8-2.9 1.8z"/><path d="M511.099 552.355c0 .5.5 1 1.1 1 .5 0 .7-.5.4-1-.3-.6-.8-1-1.1-1-.2 0-.4.4-.4 1zM493.099 611.955c0 .7.9 1.8 2.1 2.4 1.8 1 1.9 1 1-.8-.6-1.1-.8-2.1-.6-2.4.3-.3-.2-.5-1-.5s-1.5.6-1.5 1.3zM551.699 617.055c-.3.3-.1 1.4.5 2.5.9 1.6 1.2 1.7 2.4.4.8-.8 1.5-1.7 1.5-1.9 0-.7-3.8-1.5-4.4-1zM507.799 620.755c-.4 1-.1 1.3.9.9 1.5-.6 1.9-2.3.5-2.3-.5 0-1.1.7-1.4 1.4zM505.899 624.055c.7.3 1.6.2 1.9-.1.4-.3-.2-.6-1.3-.5-1.1 0-1.4.3-.6.6zM561.099 624.855c0 1-1 1.5-2.7 1.5-2.1 0-2.4.3-1.5 1.2 2.1 2.1 1.2 6.1-2.5 10.9-.8 1-1.1 3.2-.7 6 .3 2.4.7 5.7.9 7.4.2 1.6.4 3.3.4 3.6.1.3 1.1 1.1 2.4 1.6 2 .9 2.6.7 3.7-1.1.8-1.1 1.3-2.6 1.2-3.2-.1-.6.5-1.7 1.3-2.4 1.4-1.2 1.4-1.5-.2-3.2-1.6-1.8-1.6-1.9 1.1-.9 1.5.6 2.5.7 2.1.2-.3-.5-.1-2.1.5-3.6.8-2 .7-2.7-.5-3.1-1.7-.7-2-4.4-.4-4.4.8 0 .9-1.3.4-4.3-.4-2.3-.8-5-.8-6-.1-2.2-4.7-2.4-4.7-.2zM473.899 630.055c.7.3 1.6.2 1.9-.1.4-.3-.2-.6-1.3-.5-1.1 0-1.4.3-.6.6zM468.599 653.255c-1 1.7 1.5 4.5 2.9 3.1.7-.7.5-1.5-.6-2.6s-1.8-1.3-2.3-.5zM531.099 660.855c-.7.9-1.1 1.8-.8 2 .8.9 3.6-.5 4.2-2.1.7-1.9-1.8-1.8-3.4.1z"/></g></svg>