<svg version="1" xmlns="http://www.w3.org/2000/svg" width="1084.384" height="1162.446" viewBox="0 0 813.288 871.835"><g fill="#222"><path d="M364.403 1.23c-.9.7-1.5 2-1.2 2.8.5 1.4-7.7 9.8-9.9 10.2-2 .3-3.6 1.7-3.1 2.6.7 1.2-2.2 7-3.5 7-.6 0-1 1.1-1 2.4 0 2.3-2.7 4-5.7 3.7-.8-.1-1.3.9-1.3 2.3 0 1.3-.5 2.6-1.2 2.8-.6.2.5 1.2 2.5 2.2 2 .9 3.7 2.1 3.7 2.6 0 1.5 4 1.2 4-.3 0-.6.5-.4 1.1.5.5 1 1.6 1.8 2.4 1.8.7 0 1.7 1.4 2 3.1 1 4.4 6.7 9.9 9.4 9.2 1.4-.4 2.1-.1 2.1.9 0 .8 1.5 3.2 3.3 5.4 4.4 5.2 6 8.1 7.7 13.3 2 6.4 2.5 6.4 15.5-.1 5.4-2.7 12.5-9.7 12.5-12.4 0-1.1-1.1-3.4-2.5-5s-2.6-3.6-2.7-4.4c0-.8-.2-2-.2-2.7-.1-.6-.5-1.5-.9-1.9-1.2-1.2-.8-2.4.7-2.4 2 0 3.1-1.9 1.8-3.2-.6-.6-.7-2.1-.1-4.2 1.2-3.9-.5-7.4-3.9-8.3-1.4-.3-6.1-4.2-10.4-8.6-6.4-6.4-7.9-8.5-7.5-10.4.5-2.8-.8-3.9-2.8-2.3-1.6 1.3-4-.7-6.4-5.3-1.6-3.1-1.9-3.2-4.4-1.3zm-18.7 32.6c0 .5-.2 1-.4 1-.3 0-.8-.5-1.1-1-.3-.6-.1-1 .4-1 .6 0 1.1.4 1.1 1zm15 13.4c0 1.1-1.9 1.5-2.5.6-.3-.5.1-1 .9-1 .9 0 1.6.2 1.6.4zM464.303 36.33c-1.5.8-3.3 1.5-3.8 1.5-1.5 0-7.5 5.5-7.1 6.6.1.5-.4 1.8-1.2 2.8-1.2 1.6-1.7 1.7-3 .6-3.2-2.7-5.8 2.6-3.5 7.1.9 1.6.7 1.9-.9 1.9-2.7 0-3.5 1.7-3.3 6.5.3 4.6-.5 6.1-3.3 6.6-1.1.2-2.4 1.4-3 2.7-.5 1.2-1.8 2.5-2.7 2.8-1 .3-1.8 1.2-1.8 1.9 0 .9-.6 1.2-1.5.9-2-.8-1.9 1.3.1 2.4.8.5 1.6 1.5 1.8 2.3.4 2.4 9.3 11.2 10 10 .4-.6 1.6-1.1 2.7-1.1 1.5 0 1.9.7 1.9 3.3 0 3.1.5 3.6 5.2 5.8 3.7 1.7 5.2 2.1 5.6 1.1.6-2 3.2-1.4 3.2.9 0 1.1.4 1.8.9 1.5 1-.7 4.4 2.9 6.4 6.9.8 1.7 2.5 3.9 3.7 5 1.8 1.6 1.9 2 .6 2.5-1.5.5-1.5.7 0 2.8.8 1.2 3.2 2.9 5.1 3.7 2 .9 5.6 3.1 8 5.1 2.3 1.9 4.8 3.2 5.3 2.9.6-.4 1.7-.1 2.5.5 1.2 1 1.8 1 3 0 .8-.7 2.2-.9 3.1-.6 2.8 1.1 4.2-1.1 3.8-6.2-.2-3.7-.9-5.2-3-6.8-1.5-1.3-2.4-2.7-1.9-3.3 1.1-1.9-1.2-3.7-5.2-3.9-3.8-.3-8.7-3.7-7.7-5.3.3-.5-1.1-.9-3-.9s-3.8-.5-4.1-1c-.4-.6-1-.8-1.5-.5-1.1.7-4.3-4.4-3.7-5.9.3-.6-.1-2-.9-3.1-2-2.7-1.7-4.1.4-2.3 2.1 1.9 9.8 3.2 10.7 1.8.3-.5 1.5-1 2.6-1 1 0 1.9-.4 1.9-1 0-.5.7-.7 1.5-.4.9.4 1.5 0 1.5-.9 0-2.5-2.3-2.6-4.9-.3-1.3 1.1-2.1 1.6-1.7.9.4-.7-.2-2.1-1.4-3.3-1.1-1.1-2-2.6-2-3.3 0-.8-1.7-2.2-3.7-3.3-2.1-1-4-2-4.2-2.1-.2-.1.6-1.4 1.8-2.9 2-2.5 2-2.9.5-3.7-.9-.5-2.2-2.4-3-4.2-1-2.4-2.2-3.5-4.3-4-2.9-.6-3-.7-2.4-5.8.3-2.9 1-5.7 1.5-6.4 1.1-1.4-.5-4.8-2.7-5.7-.8-.3-1.5-1.3-1.5-2.2 0-1 .5-1.4 1.5-1.1 1.1.5 1.2.1.5-1.9-1.3-3.4-1.3-3.7.4-3.1 1.1.4 1.3.1.9-1-.5-1.2-.2-1.5 1-1s1.7.1 1.7-1.3c0-2.4.2-2.4-3.4-.5zM132.003 42.43c-.3.9.8 3.3 2.6 5.9 3.1 4.3 3.9 6.1 2.2 5.1-.5-.4-.5 1.1 0 3.4.8 3.5.6 4.5-1.3 7.1-1.2 1.6-3.2 3.2-4.5 3.5-2 .5-2.2 1.1-1.8 4.5.6 4.7 3.8 8.3 6.5 7.4 1-.3 3.2.1 4.8.9 2.5 1.3 3.2 1.3 6-.1 1.7-.8 4-3 5.1-4.9 2.3-3.8 4.5-4.3 7-1.6 3.3 3.6 7.5 6.2 10.1 6.2 3.4 0 5.6 2.4 6.4 7.3.4 2.1 1 3.6 1.4 3.3.9-.6 3.4 1.4 4.8 3.9.6 1.1 2.4 2.7 4 3.5 1.6.9 3.8 3 4.9 4.8 2.5 3.8 4.6 4.8 5.8 2.7.5-.9 1.8-1.5 3-1.4 1.2 0 2.4 0 2.7-.1 2.3-.8 4.8-.7 7.1.5 1.8 1 4.3 1.2 7.9.8 4.4-.5 5.5-.3 6.6 1.1.9 1.3 1.7 1.5 3 .8 1.1-.6 1.3-1.1.5-1.6-1.6-1-1.4-2.6.4-2.6.9 0 1.8-.6 2.1-1.4.3-.8 1.4-1.6 2.6-1.9 1.3-.4 1.8-1.1 1.5-2.4-.3-1-.9-3.7-1.2-6.1-.6-3.4-.4-4.2.9-4.2.9 0 1.6-.5 1.6-1 0-.6.6-1 1.4-1 .9 0 1.2-.7.9-2-.3-1.2 0-2 .6-2 2 0 6.1 4.8 6.1 7 0 1.6.5 2.1 2.3 1.9 1.2-.2 2.8 0 3.5.5.7.4 1.8.3 2.5-.3 1.6-1.3 1.4-6.6-.2-6.6-.6 0-1.6-.7-2.1-1.5s-1-1.2-1-.7c0 .4-1.7-.1-3.7-1.2-3.5-1.8-6.6-5.2-6.9-7.6-.1-.6-.3-1.2-.4-1.5-.1-.3-.3-1.8-.4-3.5-.1-2.1-.7-3.1-2.1-3.3-1.1-.3-2.4-1-2.8-1.8-.4-.8-1.5-1.4-2.2-1.4-.8 0-1.5-.8-1.5-1.7 0-.9-2.1-3.6-4.6-5.9-3.1-2.9-4.4-3.7-4.1-2.4.5 1.8.3 1.8-2.4-.2-1.6-1.2-2.9-2.7-2.9-3.4 0-.7-2-2.2-4.5-3.4-4.3-2.1-4.5-2.1-6.9-.3-1.4 1-2.6 2.2-2.6 2.8 0 .5-3.3 1.1-7.3 1.3-3.9.2-8.9.8-11 1.3-2.7.7-4.2.7-5.2-.1-1-.8-1.9-.8-3.3-.1-1.6.8-2.1.6-3-1.4-.9-1.9-.8-2.4.3-2.7 3.3-.7-.3-2.4-4.3-2-3.7.4-4.3.7-3.9 2.4 1 3.5-3.6 3.4-13-.3-1.9-.7-2.3-.5-2.3.9 0 1.5-.2 1.5-1 .2-.6-1-1-1.1-1-.3s-1.3 1.3-3.1 1.3c-2.9 0-3.1-.2-2.7-3 .4-2.9.3-3-3.4-3-2.6 0-4.1.5-4.5 1.6z"/><path d="M471.403 59.53c-2.4.4-2.8.9-2.5 3 .2 1.5.9 2.8 1.7 3.1 1 .3 1.1-.2.6-1.8-.6-1.8-.4-2.2.7-1.8.8.3 2.5-.3 3.9-1.3 2.6-2 2.1-2.2-4.4-1.2zM402.003 71.33c0 .8.4 1.2.9.9.5-.3.6-1 .3-1.5-.9-1.3-1.2-1.1-1.2.6zM159.003 78.33c-1 1-.9 1.4.3 1.9 2.2.8 2.4.8 2.4-.8 0-2.1-1.3-2.6-2.7-1.1zM378.203 83.83c.6 2.6.3 3.1-1.8 3.9-2.6 1-4.5 3.1-2.8 3.1.5 0 1.6.3 2.4.6.9.3 1.6-.3 2-1.5.3-1.3 1.3-2.1 2.6-2.1 2.4 0 2.9-2.8.6-3.6-.8-.4-1.5-1.2-1.5-2s-.5-1.4-1.1-1.4c-.7 0-.8 1.1-.4 3zM403.703 83.43c-2.5.7-6.4 1.4-8.7 1.4-2.8 0-4.5.5-5.1 1.6-.7 1.3-1.3 1.4-3.1.5-1.7-1-2.1-.9-2.1.4 0 1.6 1.2 1.8 9.1 1.9 3.3.1 4.5-.3 4.2-1.2-.4-.8.5-1.2 2.4-1.2 1.6 0 3.5-.6 4.2-1.3.6-.6 2.4-1.2 3.8-1.2s2.8-.6 3-1.3c.6-1.6-2-1.5-7.7.4zM257.003 87.83c-.6 1.7-1.8 3-2.7 3-1.9 0-2.1 1.1-.4 2.8.9.9.9 1.2-.1 1.2-1.6 0 2.4 4.2 5.7 5.9 1.7.9 2.2 2.1 2.2 4.8 0 2.1 1.1 5.5 2.5 7.9l2.5 4.2-2.6 1.7c-1.9 1.2-2.9 1.4-3.9.5-1-.8-1.7-.4-2.9 2.1-.9 1.8-1.9 5-2.2 7.1-.4 2.1-1.2 3.8-1.9 3.8s-2.4 1.1-3.8 2.4c-1.4 1.3-3.1 2.6-3.8 2.8-.9.3-.9.9 0 2.5 1.5 2.9 1.4 4.3-.4 4.3-.9 0-1.4.8-1.2 2.2.2 1.9-.3 2.3-2.5 2.3-3.3-.1-3.2-.5-1 6.6 2.1 6.7 3.7 8.9 6.6 8.9 1.6 0 2.4 1 3.4 4 .6 2.2 1.2 4.6 1.2 5.4 0 .8.6 1.6 1.4 1.9 2.3.9 1.3 10.9-1.3 12.6-2 1.3-2 1.4-.4 4.2 1 1.6 2.5 3.1 3.5 3.4.9.3 1.8 1.6 2 2.8.2 1.7.9 2.1 2.9 1.9 2.7-.2 9.4 4.8 7.3 5.5-.7.2-1 2-.7 4.7.6 5-1.8 10.9-4.1 10-2-.8-5.6 2.6-5.6 5.3 0 1.6-.6 2.3-1.9 2.3-1 0-2.1.8-2.3 1.8-.4 1.5-1.2 1.8-3.9 1.4-1.9-.2-4.1-1.1-5.1-1.9-1.4-1.3-1.9-1.1-3.9 1.6-1.3 1.7-2.9 3.1-3.7 3.1-2.1 0-5.2-4.3-4.1-5.7 1.2-1.3-.5-2.8-2.1-1.8-.6.4-1.5-.7-2.1-2.4-.9-2.7-3.5-5.1-5.3-5.1-.3 0 .2 1.2 1 2.7 1.8 3.6 1.8 4.7-.1 3.9-.9-.3-1.5 0-1.5.9 0 1.1-3.3 3-5 2.7-.3 0-1.3.6-2.2 1.5-1.3 1.2-2.1 1.3-3.1.5-1-.9-2-.9-4 .1-2.1 1-2.5 1.7-2 4 .4 2 0 3.2-1.6 4.6-2.1 1.8-2.1 1.8-.1 3.6 1.1 1 1.9 2.5 1.8 3.4-.3 3.3.2 5.1 1.5 5.1.6 0 2 2.6 3 5.6 1.6 5.1 1.6 5.9.2 8-.9 1.4-1.1 2.5-.5 2.9 1.6 1 1.2 7.1-.6 8.6-.8.7-1.3 2.1-1 3.2.3 1.3-.1 2.1-1.3 2.4-1 .2-2.5 1.8-3.5 3.4-.9 1.6-2.1 2.9-2.7 2.9-.5 0-.9.6-.9 1.4 0 .8-.7 1.6-1.5 2-1.7.6-2 4.3-.4 4.8.7.2.9 1.5.5 3.6-.7 3.1-.8 3.1-3.1 1.6-2.2-1.5-2.6-1.5-4 0-.9.9-2.1 1.6-2.6 1.6s-.9.7-.9 1.6c0 .9-.5 1.2-1.2.8-1-.5-1-.4-.1.6s.8 1.9-.8 3.9c-1.5 1.9-1.7 2.7-.8 3 2.3.7 7.9 7.3 7.9 9.2 0 1 .7 2.5 1.5 3.3 1 .9 1.8 4 2.1 7.8.2 3.4.7 7.1 1 8 .3 1.1 0 1.9-.8 1.9-.7.1-2.4.2-3.8.4-6.9.5-10.9 1.8-11.5 3.5-.4 1.2-1.2 1.6-2.4 1.3-1.1-.3-2.8 0-4 .6-2.9 1.6-2.5 8.3.6 9.1 3.3.8 6.1 5 5.8 8.8-.1 2.3-1.2 4.2-3.8 6.6-2.1 1.9-3.7 3.8-3.7 4.4 0 .6-.7 1.8-1.7 2.7-1.5 1.6-1.6 2.5-1.3 14 .2 9.1-.1 10.2-3.5 11.8-2.7 1.3-3.2 2-2.7 4.2.4 2.5.3 2.7-1.8 2-2.2-.7-2.3-.6-1.6 3.4.4 2.5.2 4.1-.4 4.1-.5 0-1 .7-1 1.5 0 1 1 1.5 3.3 1.5 1.8 0 3.8.5 4.4 1.1 1.8 1.8 5.1-.6 5.1-3.6 0-3.3 1-4.4 2.3-2.5.8 1.1 1.2 1.2 1.6.2.2-.6 1-.9 1.5-.6.7.4.8.2.4-.5s.2-1.4 1.5-1.9c2.6-1 5.9 1.2 5.9 3.9 0 .9.7 2.2 1.5 2.9.8.7 1.4 2 1.3 2.9-.2.9.7 2 1.8 2.5 1.2.5 2.6 1.8 3.3 2.8.9 1.4.7 2.1-1 3.7-1.9 1.8-1.9 2.1-.5 5.6 2 4.6 2 4.9.1 4.1-.9-.3-1.8.1-2.1.9-.4.8-1.9 1.5-3.4 1.5-2.3 0-2.7.4-2.3 2 .3 1.1 0 2-.6 2s-1.1.7-1.1 1.5c0 .9-1 1.5-2.6 1.5-1.7 0-2.3.4-1.8 1.2.5.7.2.9-.9.5-1-.4-1.8.1-2.2 1.4-.8 2.3-2.3 2.5-3.2.4-.5-1.4-.7-1.4-2.3 0-1.7 1.6-2.1 1.5-5.1-1.4-1.7-1.7-3.6-3.1-4.1-3.1-.5 0-1.3-1.1-1.8-2.5s-1.7-2.5-2.8-2.5c-1 0-2.7-.9-3.6-1.9-1.9-2.1-3.9-2.2-5.8-.3-1.7 1.7-3.2 1.5-5.2-.7-1.4-1.6-2.1-1.7-4.1-.7-1.4.6-2.5 1.4-2.5 1.8 0 .5-.9.8-2 .8s-2 .7-2 1.6c0 .8-.4 1.2-1 .9-.5-.3-1 .1-1 .9 0 1-.9 1.6-2.1 1.6-1.5 0-1.9.5-1.5 1.5.4 1-.3 2-1.9 2.7-1.4.6-2.5 1.5-2.5 2 0 .4-.9.8-2 .8-2.4 0-5.3 2.7-7.5 7-1.3 2.4-1.9 2.9-3 2-2-1.7-9.5-.2-9.5 2 0 1.9-4 5-6.5 5-.9 0-1.5.9-1.5 2.6 0 2.6-2.3 5.8-3.4 4.7-.3-.4-.6.8-.6 2.5 0 4.8-.8 6-3.7 5.4-2.5-.5-2.6-.3-2 3.1.4 2.5.1 3.9-.9 4.8-.8.6-1.4 2-1.4 2.9 0 1-1.4 3.2-3.1 4.9-2.3 2.4-3 3.7-2.5 5.5.4 1.8.1 2.5-1.4 2.9-1.1.3-2 1.1-2 1.9-.1.7-2 2.2-4.3 3.4-2.6 1.2-4.3 2.8-4.5 4.1-.4 2.7-6.4 3.8-9.6 1.8-3-2-9.3-.9-9.9 1.6-.3 1.1-1.4 1.9-2.5 1.9s-2.2.6-2.5 1.3c-.7 2-13.3 5.8-16.3 5.1l-2.6-.7 2 3.9c1.1 2.2 3 4.7 4.1 5.6 3.2 2.7 3.6 6.3 1.2 9.4-1.2 1.5-2.1 3.1-2.1 3.5 0 .5-1.8 2.7-4 4.9-3.3 3.3-3.9 4.4-3.1 5.9.7 1.2.7 2.1 0 2.8-.6.6-.9 3.4-.8 6.2.2 2.8.1 5.1-.3 5.1s-1.4 1.6-2.2 3.5c-.8 1.9-2.2 3.5-3 3.5-.9 0-1.6.3-1.6.8 0 1.4 5.8 7.2 7.2 7.2.8 0 2.2.9 3.2 2.1 1.2 1.4 2.5 2 4.2 1.6 2.1-.4 2.7.2 4.6 4.5 2 4.6 2.2 4.8 3.9 3.2 1-.9 1.5-2.3 1.2-3.1-.5-1.3-.2-1.3 2.5.1 3.6 1.8 4.6 2 3.7.6-.3-.6-.2-1 .3-1s1.3-1 1.7-2.3c.6-1.8.8-1.9 1.2-.5.2.9 1.8 2 3.4 2.3 2.3.5 2.9 1.1 2.4 2.3-.4 1-.8 3.3-.9 5.2-.1 2.6-.7 3.8-2.4 4.5-2.7 1.2-2.3 3 .7 2.9 1.1 0 2.1.2 2.2.5.4 3 1.2 4.5 4.5 8 4.4 4.7 9.4 5.8 9.4 2.1 0-3 2.8-.9 6.7 4.9 2.2 3.4 4 5 6.1 5.4 1.6.3 4.5 2.1 6.4 3.9 1.9 1.8 4.7 4.3 6.2 5.5 1.4 1.2 2.9 3.6 3.2 5.3.4 1.7 1.5 3.5 2.5 4.1 1.1.5 1.9 1.5 1.9 2.2 0 .6 1.7 2.8 3.8 4.8 2 2 4.8 4.8 6.1 6.2 1.3 1.5 3.1 2.7 4.1 2.7 1 0 2 .4 2.2 1 .2.5 2.6 1.2 5.5 1.4 4 .4 5.3.1 5.7-1.1.4-.9.9-1.4 1.1-1.1.6.6-2.5 7.1-3.7 7.9-1.4.9.1 5.4 2.2 6.7 1.7 1 2.2.8 3.6-1.2l1.5-2.5 2.9 3.2c2.4 2.7 2.6 3.4 1.5 4.7-1.7 2-.4 5.2 3.1 7.5 2.5 1.6 2.6 1.9 1.1 3-1.6 1.1-1.5 1.4.8 2.9 1.8 1.2 2.5 2.5 2.3 4-.1 1.3.3 3.1 1.1 4 1.4 1.7 4.6 2.2 5.5.7.3-.5 2.7.2 5.3 1.5 2.5 1.3 5.1 2.4 5.7 2.4.6 0 4-2.7 7.5-6.1 5-4.7 6.9-5.9 8.5-5.4 8.1 2.5 8.5 2.4 9.1-.7.5-2 1.1-2.8 2.1-2.4 1.1.4 1.4-.1 1.2-2.1-.5-4.5 2.6-4 7.9 1.5 3 3 6.4 5.3 9 6.2 2.5.8 5.6 2.8 7.7 5.1 1.8 2.1 4.7 4.1 6.2 4.4 1.6.4 3.6.9 4.4 1.2.8.4 2.2.5 3 .4 1-.1 1.5.8 1.6 2.9.1 1.7 1.1 4.1 2.3 5.3 1.1 1.3 2.1 2.8 2.1 3.4 0 .7.9 1.5 2 1.8 1.1.3 2 1.3 2 2.1 0 1.1.5 1.2 1.8.6.9-.5 3.9-1.5 6.7-2.1 2.7-.7 5.8-2.1 6.8-3.2 1.9-2 2.9-2.2 6.5-1.3 1.8.5 2 .9 1.1 2-.6.8-2.3 1.4-3.7 1.4h-2.6l2.2 1.6c1.2.8 2.2 2.3 2.2 3.3 0 2.1-3 5.1-5.1 5.1-.8 0-2.3 1.8-3.3 4s-2.8 4.2-3.8 4.6c-1.3.4-1.8 1.2-1.5 2.5.3 1.2 0 1.9-.9 1.9-1 0-1.4 1-1.2 2.9.1 1.5-.5 3.9-1.3 5.2-1.9 3-2.3 9-.7 10 .9.6.9 1.1-.1 2.2-.6.9-.8 1.8-.3 2.1.5.3.8 2 .6 3.8-.1 1.8.4 4.2 1.1 5.3 1 1.7 1 2.4 0 3.8-.7.9-1.8 1.7-2.6 1.7-1.4 0-3.9 4.3-3.9 6.8 0 2.8-7.9 12.2-10.2 12.2-.5 0-2 1-3.3 2.3-2 1.8-2.4 2.8-1.9 5.9l.6 3.6 2.5-2.1c2.5-2.2 7.9-3.2 8.9-1.6.3.5 0 .9-.6.9s-.9.4-.6.9c.4.5.1 1.1-.5 1.3-.7.2-.8 1.7-.4 4 .5 2.6 1.1 3.5 2.3 3.3 1-.1 2.4.6 3.3 1.7 1.3 1.7 1.9 1.8 3.7.9 2.3-1.2 6.8.2 5.8 1.7-1 1.7 1.2 3 8.7 5 5.8 1.5 7.7 1.7 7.7.8 0-.7 1.1-1.8 2.5-2.4 1.4-.6 2.5-1.6 2.5-2.1s.7-1.7 1.7-2.6c1.5-1.6 1.4-1.8-1.3-4l-2.8-2.3h4.2c5-.1 8.4-1 9.4-2.6.5-.8 1-.8 1.9.1.8.8 1.8.7 4-.6 2.3-1.2 2.8-2.1 2.4-3.8-.4-1.8-.2-2.1 1.1-1.6 1.4.5 1.6.2 1.2-1.5-.6-2.1-.5-2.1 2.3-.7 3.5 1.9 7.3 1.1 9.2-1.8.8-1.2 2.6-3.5 4.1-5 2.2-2.3 2.9-2.6 4.7-1.7 2.4 1.4 6.8-1 7.6-4.1.3-1 1.2-1.9 2-1.9 2.6 0 6.2-5.2 5.6-8.3-.5-2.5-.3-2.7 2.5-2.7 1.7 0 3.7-.7 4.6-1.5.8-.8 2.1-1.5 3-1.5.8 0 1.8-.5 2.1-1 .3-.6 1.4-1 2.4-1 .9 0 2.7-1.1 3.9-2.5 1.2-1.4 2.6-2.5 3.1-2.5s1.1-1.3 1.4-2.9c.5-2.4 1.3-3 4.4-3.6 2-.4 4.3-1.5 5.1-2.6.7-1 2.1-1.9 3-1.9 1.4 0 1.7-.8 1.3-4.7-.2-3.5.1-5 1.4-5.9 1.1-.8 1.5-1.9 1-3.3-.5-1.6-.2-2.1 1.2-1.9 1 0 2.5 0 3.3-.1 1.8-.2 5.2-6.5 4.4-8.4-.3-.8.6-1.8 2.1-2.5 1.4-.7 3.3-2.8 4.1-4.8 1.3-3 1.9-3.5 3.9-3.2 2.6.5 3.7-.9 2.8-4-.4-1.6.2-2.1 3.3-2.7 4.2-.7 9.4-5.1 9.4-7.8 0-1 .7-2 1.5-2.3.9-.4 1.3-1.4 1.1-2.3-.3-.9-.1-2.3.4-3 .7-1.2 1.2-1.1 2.9 1 2.3 2.7 2.5 3.5 1.1 4.4-.5.3-.7 1.2-.3 2 .7 1.9 4.3 2 4.3.2 0-.8 1.8-3 4.1-5 4-3.6 4.1-3.6 6.6-2 2 1.3 2.7 1.5 3.1.5.3-1 .7-1 1.9-.1 1.9 1.7 3.4-.6 2.8-4.3-.4-2.2-.2-2.5 1.5-2.1 1.4.4 3.2-.8 6.5-4.2 2.5-2.7 4.5-4.3 4.5-3.7 0 .7.5 1.2 1.1 1.2.5 0 .7-.4.4-1-.3-.5.4-1 1.5-1 1.6 0 2-.4 1.6-1.6-.5-1.4-.4-1.5.9-.4.8.7 1.5 1.9 1.5 2.7 0 1 .6 1.3 1.6.9.9-.3 1.9-.6 2.4-.6.4 0 1-.9 1.3-2.1.4-1.6.9-1.9 2.4-1.1 2.3 1.2 4.3.5 4.3-1.4 0-.9.4-1.3 1-.9 2 1.2-1.4-6.2-4.4-9.4-1.9-2.1-2.7-3.5-1.9-3.8.9-.3.9-1 .1-2.8-.8-1.9-.6-2.9 1.3-5.5 2.6-3.5 6.4-5.5 8.2-4.3 1.9 1.2 6.6.9 7.2-.5.2-.6 1.3-1.2 2.3-1.2 1.1 0 2.5-.7 3.2-1.5.6-.8 2.2-1.7 3.3-2.1 6.2-1.7 7.6-2.8 7-5.2-.5-2.2-.4-2.3 1.6-1 1.1.7 2.1 2 2.1 2.9 0 1.5.4 1.5 2.5.6 1.4-.7 2.8-2 3.1-3 .3-.9 1-1.7 1.5-1.7s.9-.7.9-1.5c0-1.7 5.5-2.1 6.5-.5.4.7 1.3.7 2.6 0 1.1-.6 1.7-1.5 1.4-2.1-1.4-2.1 2.3-.6 7 2.9 7.7 5.6 10.6 7 14.8 6.9 2 0 3.7-.4 3.7-.7 0-.3 2.7-.6 6-.5 3.5 0 6.2-.5 6.4-1.1.6-1.6 8.8-.6 10.1 1.3.7.9 1.7 1.3 2.2 1 .6-.4 3.7.2 7 1.3 3.2 1 6.9 1.7 8.1 1.3 1.2-.3 2.9 0 3.7.7.8.6 2.3.9 3.4.5 1.1-.3 4.2.6 7.8 2.3l6 2.9-.5-2.5c-.4-2.1-.2-2.4 1.6-2 1.6.5 1.9.2 1.5-1.1-.5-1.3-.3-1.4.8-.3 2 1.9 4.9 1.4 5.8-1 .8-2.1.8-2.1 2.7-.2 2.2 2.2 9.4 2.5 11.8.5 1.2-1 2-.8 4.3.8 2.8 1.9 6.3 2.2 11 .6 2.6-.8 3.2-2.8 2.2-7.2-.6-2.7-.3-3.3 1.3-3.9 1.6-.5 1.9-1.3 1.7-4.5-.2-2.4.2-4.3.9-4.8 1.7-1.1-1.1-8.7-4.6-12.5-2.6-2.8-2.6-2.9-.5-2.3 1.9.4 2.1.2 1.3-1.3-.8-1.4-.3-2.3 2.5-4.4 3.7-2.9 4.7-5.9 1.8-5.5-1 .2-2.8-.3-4.1-1-1.2-.6-3.1-.9-4.2-.6-1 .3-2.1.2-2.4-.4-.3-.5 1-1.1 2.9-1.3 1.9-.2 3.7.1 3.9.7.3.6 1.1.2 1.9-.8 1.1-1.3 1.6-1.4 2-.5.2.8 1.7 1.4 3.1 1.6 2.1.1 2.7-.2 2.4-1.6-.1-.9.1-2.2.5-2.8.4-.7 0-1.7-.8-2.4-1.9-1.6-1.9-4.1.1-6.6 1.5-1.8 1.5-1.8.9.3-.4 1.4-.2 2.3.4 2.3 1.2 0 1.5-1.9 1.2-6.3-.1-1.5.3-2.7.9-2.7.6 0 .8-.5.4-1.1-.4-.8-.9-.7-1.5.2-.7 1.1-1 .9-1.5-.9-.4-1.3-1.4-2.2-2.5-2.2-1.4 0-1.9-.7-1.9-2.8 0-3.1-1.5-5.9-2.3-4.5-.8 1.3-6.7.4-9.2-1.3-2.6-1.9-10-1.8-11.9.1-1.9 2-2.9 1.9-5.1-.5-1.7-1.9-1.7-2 0-2 1.1 0 1.5-.5 1.1-1.5-.3-.9.1-1.8.9-2.1 1.8-.7 1-2.4-1.1-2.4-.8 0-1.4.7-1.4 1.5s-.7 1.5-1.5 1.5-1.5-.8-1.5-1.8c0-2.1-4.6-6.6-5.4-5.3-.8 1.2-8.6-3.8-8.6-5.5 0-.9 1.4-1.2 4.3-1.1 3.9.2 4.2 0 4.5-2.5.3-2.7 2.7-4.5 3.8-2.7.9 1.5 3.4-1 2.7-2.8-.3-.8 0-1.9.8-2.3 1-.7.8-1.1-1.1-1.9-1.4-.5-1.9-1-1.1-1 .8-.1 1.1-.8.8-2.1-.4-1.7 0-2 2.7-2 1.8 0 3.6-.4 4.2-1 .5-.5 2.9-1.1 5.2-1.2 2.3-.1 4.2-.4 4.2-.8 0-.3.9-1.6 2-2.8 1.8-1.9 1.9-2.5.9-4.4-.7-1.3-1.2-2.4-1.1-2.6.1-.1.1-1.2.1-2.5-.1-1.8-.2-1.8-.6-.4-.3 1.1-1 1.6-2 1.3-.8-.3-2.3-.6-3.3-.6-2.1 0-3.6-3-2-4 .6-.4 1-1.1.9-1.6-.5-2.7.2-3.6 2.6-3.2 1.4.3 2.5.1 2.5-.4s.8-.8 1.8-.7c2.2.4 6.2-1 6.2-2.1 0-.4 1.9-.1 4.2.7 4.2 1.4 5.7.8 5.8-2.4 0-.6.9-1.4 1.9-1.8 1.6-.5 1.9-1.4 1.6-5.1-.3-4.4-.2-4.5 2.1-4 2 .5 2.8.1 4.2-2.4.9-1.6 2.2-3 2.8-3 .6 0 1.4-1.4 1.8-3 .4-2 1.1-3 2.4-3 1 0 2.7-.9 3.7-2 1.5-1.7 1.6-2.4.5-4.9-.9-2.2-.9-3.9-.2-5.9.6-1.9.6-3.5-.1-4.7-.7-1.2-.7-2.3 0-3.5.8-1.1.7-2.6-.3-4.9-1.7-4.1-1.7-4.1.2-4.1 1.2 0 1.5-.7 1.1-2.6-.4-2.4-.3-2.6 2.7-2 1.7.4 3.3 1.1 3.5 1.7.2.6 1.6 2.6 3.2 4.4 1.6 1.8 2.9 3.7 2.9 4.2s2.4 1 5.2 1.1c3.7.2 5.9.8 7.2 2.2 1.8 1.8 1.9 2.1.3 3.7-1.5 1.7-1.5 2 .3 3.1 1 .6 3.2 1.4 4.8 1.7 4.4.7 10 3.3 10.4 4.7.4 1 1 1 3.1-.1 1.5-.8 2.3-1.9 2-2.7-.5-1.4.7-1.3 8 .1.9.2 1.7-.1 1.7-.6s1.1-1.1 2.5-1.5c1.4-.3 2.5-1.4 2.5-2.3.1-1.2.6-1 2.3.9 1.7 1.9 3 2.4 5.5 2.2 1.7-.2 3.2-.9 3.2-1.6 0-1.6 5.3-7.6 6.8-7.6.6 0 1.6-.9 2.2-2 .6-1 1.6-1.7 2.4-1.4.7.3 1.9-.2 2.6-1.1.7-.8 2.6-1.5 4.3-1.5 1.6 0 3.5-.7 4.1-1.6.9-1.2 1.7-1.3 4-.4 2 .7 3.2.7 4.1 0 1.7-1.5 15.2-2.2 16-1 .3.6 1.5 1 2.6 1s3.1.7 4.5 1.6c2.7 1.8 4.3 1.2 2.6-.9-.7-.8-.9-1.7-.6-2 1.1-1.1 4.4 1.3 4.4 3.1 0 4.4 9.6 10.3 11.5 7.1.5-.7 1.5-.4 2.9.9 1.1 1.1 3.4 2.2 4.9 2.6 2.5.6 2.7.5 1.8-1.1-.5-1-2.3-2.7-4-3.8-3.7-2.4-4.4-4-3.1-6.5.6-1.1.8-4.6.6-8-.5-5.9-.4-6 2.1-6 1.9 0 2.3-.3 1.5-1.3-.5-.6-1.2-2.3-1.4-3.7-.2-1.7-1.4-3-3.5-3.9-1.8-.8-3.3-2-3.3-2.7 0-.6-.7-1.7-1.5-2.4-2.1-1.8-1.9-3.2.5-2.5 1.1.3 2 .2 2-.3 0-.6-.5-1.2-1.1-1.4-.7-.2-.7-1.2 0-3 1-2.7.1-4.5-1.7-3.4-.5.3-2.1-.5-3.6-1.8-2.4-1.9-2.7-2.5-1.8-4.3.9-1.7.8-2.4-.8-3.8-1.3-1.2-1.8-2.5-1.4-4.1.3-1.3-.1-3.2-1-4.6-.9-1.2-1.6-3.4-1.6-4.8 0-3-2.5-5.5-9.2-9.4-2.7-1.5-4.8-2.9-4.8-3.2 0-.3.6-.2 1.3.1.6.4.1-.2-1.3-1.3-1.8-1.5-3.2-1.9-5.5-1.4-3.5.8-6.9.7-10.9-.3-1.9-.5-3.1-.4-3.6.6-.7 1-1.2.6-2-1.3-1.1-2.4-4.6-3.7-11-4.2-.8-.1-1.5-1-1.5-2.1-.1-3.4-1.3-4.6-3.4-3.3-1.4.9-2.2.6-4.4-1.6-1.4-1.4-3.1-2.6-3.6-2.6s-1.6-1.2-2.3-2.8c-.9-1.8-2-2.6-3.3-2.4-7.2 1.2-14.5-.8-14.5-3.8 0-2.3-2.8-4.6-6.7-5.5-1.7-.3-3.7-1.2-4.3-2-.7-.9-3.6-1.3-9.3-1.2-7.7.1-8.6-.1-12.1-2.8-2.7-2.1-4-2.5-4.5-1.6-.6.9-1.4.9-3.4 0-1.6-.7-2.3-1.6-1.9-2.3.4-.6.7-2 .7-3.1 0-1.2.9-2.1 2.4-2.5 1.7-.4 2.7-1.5 3.3-3.8 1.1-4 4.2-6 5.7-3.5.6 1 1 1.3 1 .8 0-.6-.6-1.9-1.4-2.9-.8-1.1-1.5-2.7-1.5-3.6 0-.9-1.1-2.7-2.5-4-1.5-1.4-2.1-2.8-1.7-3.4.5-.6-.2-3.5-1.5-6.6-1.4-3-2.2-4.5-2-3.3.4 1.7.1 2.3-1.3 2.3-1 0-1.8.6-1.7 1.2.1 4.5-.5 6.8-1.8 6.8-.8 0-3 1.6-4.9 3.5-2 1.9-4.1 3.5-4.7 3.5-.9 0-.9.3 0 1.4.9 1 .6 1.7-1.1 2.8-3.4 2.2-6.1 2.9-7.7 1.9-1.2-.8-1.2-1.3.2-3.4 1.4-2.2 1.4-2.6.2-3.1-.8-.3-1.5-.1-1.5.5s-.8.8-1.9.4c-2.5-.8-4.8 2-3.2 3.9.7.8 1.1 2 1 2.8-.3 2.8.2 3.7 2.3 4 1.2.2 2.5 1.2 2.8 2.3.6 2.6 3.2 6.5 4.2 6.5.5 0 1.6.8 2.6 1.8 1.6 1.6 1.6 2.2.5 4.9-.7 1.8-2 3.6-2.8 4.1-1.5.8-1.5 1-.1 2.1 1.2 1 1.6 1 1.6.2 0-.7.5-.9 1-.6 1.6 1 1.2 2.5-.6 2.5-1 0-1.4.6-1.1 1.5.4.8.2 1.7-.3 2-.5.3-.7 1.1-.4 1.8.6 1.5-3.8 4.1-5.8 3.5-.7-.3-1.8.2-2.4 1-1 1.3-1.7 1.2-5.8-1.1-4.6-2.6-4.8-2.6-6.7-.8-1.6 1.4-1.8 2.3-1 4.3 1.3 3.5 5.5 7.8 7.5 7.8 1.1 0 1.6.9 1.6 3.2 0 2.8-1.9 8-2 5.4 0-.6-.6-.2-1.3.8-.8 1-1.2 2.9-.9 4.1.3 1.8-.2 2.4-2.3 2.9-2.3.6-2.5.9-1.4 2.2.7.8 2.4 1.4 3.8 1.2 2-.2 2.7.2 2.9 1.9.2 1.3.8 2.3 1.3 2.3.6 0 .6.7-.1 1.9-.8 1.6-.5 2.3 1.5 3.8 1.8 1.3 2.7 3 3 5.8.2 2.2.5 4.1.6 4.2.1.2.2.6.3 1 .1.5.5 1.4.9 2.1.6.8.4 1.2-.5 1-1.2-.3-1.6 2.3-.7 4.7.2.5-.1 1.2-.6 1.4-.6.2-1.9 1-3 1.7-2.7 1.9-3.5 1.8-3.5-.7 0-1.4-.5-1.9-1.5-1.6-.9.4-1.8-.5-2.7-2.9-1.2-3.4-1.4-3.5-5.1-2.9-2.9.5-4.3.3-5.7-1-1.2-1.1-2.7-1.5-4.2-1l-2.3.6 2.3-1.3c1.3-.8 1.9-1.8 1.3-2.3-1.5-1.7-2.2-6.3-1-6.7.7-.2.5-.9-.5-1.7-1.4-1.2-1.6-1.1-1.6.4 0 1.7-.1 1.7-1.9.1-2.1-1.9-4.1-1.4-4.1.8 0 .8-1.6 1.6-3.7 2-5.9.9-6.3.8-6.3-2.2 0-2.8-1.2-5.4-2.4-5.3-2.2.3-3.6-.1-4.9-1.3-.8-.8-3.1-2.1-5.1-3-2-.8-3.5-1.9-3.4-2.4.5-1.4-5.5-7.6-8.7-9-2-1-2.5-1.6-1.6-2.1.9-.6.7-1.3-1.1-2.7-2.7-2.2-9.2-14-8.3-15.3.8-1.3-1.3-6.2-3.2-7.7-2.2-1.5-5.9.1-6.6 2.8-.4 1.4-1.1 1.8-2.5 1.3-1.1-.3-2.3-.2-2.6.3-.3.5-1.7.7-3.1.4-1.4-.2-2.5 0-2.5.6 0 1.4-7.1 2.1-9.5.9-4.8-2.4-5.5-2.7-6.9-2.7-.7 0-2.4-.9-3.8-2-1.6-1.2-2.8-1.6-3.5-.9-1.1 1.1-7.2-1.2-11.8-4.4-1.6-1.2-4.4-2.2-6.2-2.3-1.9 0-4.3-1-5.7-2.3-1.9-1.8-2.8-2-4.3-1.3-1.3.7-2.4.6-3.7-.4-1.3-.9-2.4-1-3.7-.3-2.1 1.1-6.3-1.1-8-4.2-.9-1.7-.7-1.8 1.6-.9 5.5 2.1 6.5 1.5 6.5-4.1 0-2.7.4-4.8.8-4.5.5.3 1.5-.6 2.2-1.9.7-1.3 2.8-2.9 4.6-3.5 2.2-.8 3.4-1.8 3.6-3.3.2-1.5 1.1-2.3 3-2.5 1.9-.2 2.8-1.1 3.3-2.9.3-1.5 1.5-3.8 2.6-5.1 1-1.4 1.9-3 1.9-3.7 0-.7.7-1.8 1.5-2.5.9-.7 2.3-2.8 3.1-4.6 1.2-2.5 2.3-3.4 4-3.4 1.3 0 2.4-.4 2.4-1 0-.5 1.6-2 3.5-3.3 1.9-1.3 3.2-2.7 2.7-3.1-.4-.4.7-.6 2.3-.4 1.7.1 3.2-.2 3.5-.7.2-.6 1.8-1.5 3.5-2.1 1.6-.6 3.8-1.5 4.8-1.9 1.3-.5 1.6-.3 1.2.8-.7 1.8 2.2 2.7 5 1.6 1.1-.4 4.3-.8 7.1-.8 4.1-.1 5.5-.6 7.7-2.9 1.9-1.9 2.5-3.4 2-5-.3-1.4-.1-2.2.8-2.2.8 0 .4-.9-.9-2.3-2.4-2.6-2.8-6.3-1-10.2 1-2.1.9-3.1-.5-5.4-.9-1.6-1.4-3.1-1.1-3.4.3-.3-.2-1.7-1.1-3.1-.9-1.4-1.4-3-1-3.6.4-.6.2-1.7-.4-2.4-1.2-1.4.3-6.3 2.3-7.7.5-.4.6-1.4.3-2.2-.4-1.1.1-1.7 1.5-1.9 3.4-.5 4.6-3.3 2.4-5.7-1.9-2.1-1.4-2.6 2.2-2.2.6.1 1.2-.7 1.2-1.8 0-2.2-4.8-5.1-9.3-5.7-6-.8-6.5-1.7-6.7-12.7 0-2-.4-3.7-.8-3.7-.5 0-1.4-1.1-2-2.4-.8-1.8-.7-2.7.4-3.8 1.1-1.1 1.2-2.1.5-4-.8-2.2-.7-2.7 1-3.1 1.5-.4 1.8-1.1 1.4-2.9-.4-1.3.1-4.4.9-6.8.8-2.5 1.3-5.4 1-6.6-.4-1.4 0-2.3 1-2.7 2.3-.9 2-3.7-.4-3.7-2.3 0-2.7-1.5-.5-2.4 2.2-.8 1.9-1.8-2-6.3-2.6-3.1-4-4-5.6-3.6-1.6.5-2 1.1-1.6 3.2.5 2.3.2 2.6-2.5 2.7-1.7.1-3.5.9-4 1.8s-2.2 1.6-3.9 1.6c-1.7 0-4 .5-5.1 1.1-1.5.8-2.2.8-2.8-.1-.5-.8-.9-.5-1.3.9-.3 1.2-.2 2.1.3 2.1.4 0 1.1.8 1.5 1.7.4 1.3-.3 2.6-2.4 4.5-1.7 1.5-3.1 3.4-3.1 4.3 0 .8-.6 1.2-1.4.9-.8-.3-2.8.2-4.5 1-1.6.9-4.6 1.6-6.6 1.6-2.9 0-3.7.5-4.5 2.5-.5 1.4-1.6 2.5-2.5 2.5-.8 0-1.5.7-1.5 1.5 0 1.7-.3 1.8-10.9 2.3-3.2.2-3.3.3-1.8 2 1.5 1.7 1.5 1.8-.3 1.9-1.2.1-2-.4-2-1.3 0-.8-1.2-1.9-2.6-2.4-3.4-1.3-5.7-1.3-4.8.1.7 1.2-1.2 2.9-3.3 2.9-.7 0-2.9-1.6-4.9-3.6-2.3-2.4-4.5-3.6-6.2-3.6-1.5 0-3.8-.7-5.1-1.5-1.3-.8-2.1-1-1.7-.5.3.6-.4 1.4-1.6 1.8-1.5.4-2.6.1-3.6-1.2-1.3-1.7-1.3-1.6-.7 1.3.3 1.8.2 3.4-.4 3.8-1.9 1.1-1.3 6.9.9 8.2 1 .7 2.4 3 3.1 5.2.8 2.6 1.6 3.8 2.5 3.4.8-.3 1.4 0 1.4.6 0 .7-.9 1.5-2 1.9-1.9.7-1.9.9.7 3.8 1.6 1.7 2.9 3.8 3.1 4.5.9 4.6 5.2 8.2 5.2 4.5 0-1.8 1.6-2.9 3-2.1 1.7 1-1.2 4.4-4.8 5.6-1.8.6-4.9.8-6.8.4-3.3-.6-3.5-.5-2.4 1.4.6 1.2 1.8 2.1 2.6 2.1 1.1 0 1.4.6 1 1.6-.3.9-.6 2-.6 2.6 0 .5-.7.2-1.6-.7-2.2-2.2-3-1-1.4 2 2 3.7-.9 6.6-6.2 6.2-2.9-.3-3.7 0-3.4 1 .3.7.1 1.3-.4 1.3-1.1 0-4-5.3-4-7.4 0-.8-.9-1.8-2-2.1-1.1-.3-2-1-2-1.5s-2.5-1.4-5.5-2.1c-3-.7-5.5-1.7-5.5-2.4 0-.6-1.4-3-3.1-5.3-1.7-2.3-2.7-4.6-2.4-5.2.4-.6.2-1.7-.5-2.5-.9-1-.8-1.9.5-3.8.8-1.3 1.3-3.2.9-4.1-.3-.9-.1-1.6.6-1.6.6 0 .8.5.4 1.2s.2.4 1.4-.6c1.2-1.1 2.2-2.5 2.2-3.3 0-.7.9-1.3 1.9-1.3 4.8 0 5.1-.9 1.9-6.3-1.6-2.8-3.2-6.7-3.5-8.7-.3-1.9-1.7-5.8-3-8.5-1.3-2.8-2.6-7.1-2.8-9.8-.3-4.6-1.8-7.7-3.6-7.7-.5 0-.9.7-.9 1.5 0 .9-1.2 2.1-2.6 2.7-2.1 1-3.1.9-5.6-.5-1.6-.9-3.9-1.7-5.1-1.8-3.9-.1-18.3-9.9-16.9-11.4.4-.5.1-.5-.7 0-.8.4-1.7.2-2.2-.6-.4-.8-1.2-1.4-1.6-1.5-3-.3-6.3-1.8-6.8-3.2-.6-1.5-.8-1.5-1.4.2-.5 1.3-1.8 1.9-4.3 2.1-2.9.1-4.4-.5-7.4-3.2-3.7-3.2-4.6-3.7-7.1-3.4-.6.1-2.8-1-4.9-2.4-2-1.4-4.3-2.5-5-2.5-.7 0-2.1-1.2-3.2-2.7-1-1.4-3.9-3.4-6.3-4.3-2.4-.9-4.3-2.2-4.2-2.8.2-.6-.6-1.4-1.7-1.7-1.1-.4-2-1.1-2-1.8 0-.8-.3-.8-1.2.1-1.6 1.6-2.8 1.5-2.8-.2 0-.8-1.3-1.6-3-1.8-2.3-.4-3-.1-3 1.2 0 1-1.3 2.1-3.5 2.7-3.1 1-3.7.9-4.5-.7-.7-1.4-.6-1.9.5-2.2 1.2-.2.9-1.5-1.5-6.5-1.6-3.4-3.4-6.4-4-6.8-1.6-1-1.2-3.5.6-3.5 1.4 0 1.4-.3.4-1.5-.8-1-.9-1.9-.3-2.8 2.6-3.3 1.8-8.7-1.2-8.7-.8 0-1.5-.4-1.5-.9s-1.2-1.1-2.7-1.4c-1.9-.4-3.2-1.6-4.1-3.5-2-4.7-6.1-8.3-8.1-7.3-1.2.7-2.8.1-5.9-2-2.4-1.6-5.2-2.9-6.3-2.9-1.6 0-1.9-.4-1.5-1.6.4-.9 0-2.7-.8-3.9-1.8-2.8-5.5-3.9-6.3-1.9-.7 1.8-4 1.8-5-.1-.7-1.2-1.1-.8-2 1.5zm283.8 95c1.3 0 10.1 9.1 9.4 9.8-.3.3-1.8-.7-3.3-2.1-1.6-1.5-3.8-2.7-5-2.7-2.6 0-6.6-3.6-5.6-5.1.3-.6 1.3-.8 2.1-.5.8.3 1.9.6 2.4.6zm-72.9 66.2c-.7.7-1.2.8-1.2.2 0-1.4 1.2-2.6 1.9-1.9.2.3-.1 1.1-.7 1.7zm-19.7 12.8c.3.5-.1 1-1 1s-1.3-.5-1-1c.3-.6.8-1 1-1 .2 0 .7.4 1 1zm209.5 81.5c-.7.8-1.4 1.5-1.5 1.5-.2 0-.5-.7-.9-1.5-.4-1 .1-1.5 1.6-1.5 1.7 0 1.8.2.8 1.5zm-47 91.5c0 .5-.2 1-.4 1-.3 0-.8-.5-1.1-1-.3-.6-.1-1 .4-1 .6 0 1.1.4 1.1 1zm-31 129c1.3.8 1.3 1-.2 1-.9 0-2-.5-2.3-1-.8-1.3.5-1.3 2.5 0zm6.9 4c.9 0 3.1 3.8 3.1 5.6 0 1.3-2 .1-2.5-1.6-.3-1.1-1-2-1.6-2-1.5 0-4.8-3.3-4.2-4.2.3-.5 1.3-.2 2.2.6 1 .9 2.3 1.6 3 1.6zm-404.9 6.2c0 1.9 4.1 5.7 5.6 5.1 1.3-.5 1.8.7 1.5 3.4-.1.7.3 1.3.9 1.3.5 0 1 1.3 1 2.9 0 3.1-1.4 4.1-5.6 4.1-1.9 0-2.8.8-3.5 3-1.3 3.5-1.3 3.6-3.8 1.1-1.2-1.2-1.6-2.3-1-3.4.6-.9.4-1.9-.6-2.7-1.9-1.6-1.9-3.9-.1-4.6.8-.3 1.3-1.1 1-1.9-.3-.7.2-1.5 1.1-1.9.9-.3 1.3-1.1 1-1.6-.5-.8-1.1-.8-2 0-2.3 1.9-2.6-1.8-.3-4 2.4-2.2 4.8-2.6 4.8-.8zm28.9 16c-.5.9-1.7 1.9-2.7 2.2-1.4.5-1.7 1.4-1.4 3.5.3 2.2 0 3-1.5 3.4-1.3.3-1.2.5.7.6 1.4 0 3.1 1.1 3.9 2.3 1.2 1.9 1.1 2.3-.4 3.4-1.5 1.2-1.5 1.4.4 3.3 1.2 1.2 2.6 2.1 3.2 2.1.7 0 .9 1 .5 2.7-1.1 4.7-1.4 7.3-.8 7.3.3 0 2-1.2 3.9-2.6 1.9-1.4 5.2-2.9 7.5-3.1l4-.6-.3 3.4c-.3 3.1-.1 3.4 2.1 3.2 1.4-.1 1.9.1 1.3.3-.7.3-1.3 1.2-1.3 2s-.9 1.4-1.9 1.4c-2.7 0-3.5 3.4-1.6 6.3.8 1.3 1.2 2.7.8 3-.3.4-.2.7.3.7s1 .9 1.1 2c.1 1.3-.2 1.8-.9 1.4-.7-.5-.9-.2-.5.8.3.9-.4 3.4-1.5 5.7-1.5 3.1-2.6 4.1-4.4 4.1-1.3 0-2.9.9-3.6 2-.7 1.1-2.1 2-3 2-1 0-2.2.9-2.8 2-1.7 3.2-3 2.3-3-2 0-3.3-.3-4-2-4-1.1 0-2.6-1.2-3.4-2.9-1.4-2.5-1.4-3-.1-4.1 1.3-1.1 1.1-1.9-1.2-6.1l-2.6-4.9 1.6-6.6c1.4-5.6 1.5-6.8.3-8.7-.8-1.2-1.8-4.4-2.1-7-.4-2.7-1.4-5.1-2.2-5.4-1.2-.5-1.1-.8.2-2.3 1.7-1.9 1.2-3.8-2.4-8.3-.8-.9-.9-1.7-.4-1.7.6 0 1.3-1 1.6-2.2.4-1.6.9-1.9 1.9-1.1 1.8 1.3 10.1-.4 9.2-1.9-.4-.6.4-.3 1.8.8 2 1.4 2.4 2.3 1.7 3.6zm-87.9-.8c0 .8-.4 1.8-1 2.1-.5.3-1 .4-1 .1 0-.2-.3-1.1-.6-2-.4-1.1-.1-1.6 1-1.6.9 0 1.6.6 1.6 1.4zm-1 4.6c0 .5-.4 1-.9 1-.6 0-1.3-.5-1.6-1-.3-.6.1-1 .9-1 .9 0 1.6.4 1.6 1zm519 8.5c0 .8-.4 1.5-.9 1.5s-1.1-.7-1.5-1.5c-.3-.9 0-1.5.9-1.5.8 0 1.5.7 1.5 1.5zm-457 34.5c0 .5-.8 1-1.7 1-1.5 0-1.6-.2-.3-1 1.9-1.2 2-1.2 2 0zm12.5 2.9c.3.5.1 1.2-.5 1.6-.5.3-1-.1-1-.9 0-1.8.6-2.1 1.5-.7zm76.2 80.3c-.3.8-.6.5-.6-.6-.1-1.1.2-1.7.5-1.3.3.3.4 1.2.1 1.9zm-12.4 23.5c-.3.7 0 2 .7 2.8 1 1.2.9 1.6-.4 2.1-.9.3-1.3 1-1 1.5.3.5 0 .9-.6.9-.5 0-1.9-1.5-3-3.2-1.7-2.8-1.7-3.4-.5-4.1.8-.4 1.5-1.5 1.5-2.3 0-1.1.4-1.2 1.9-.2 1 .6 1.7 1.8 1.4 2.5zm-9.6 14.8c-.4.8-1.1 1.5-1.7 1.5-1.4 0-1.3-2.7.3-3.3 1.6-.6 2.1-.1 1.4 1.8zm-6.8 74.5c0 .8-.3 1-.5.4-.3-.6-1.6-.9-2.9-.6-3.1.6-3.3-1-.2-2.3 2.4-1.1 3.7-.2 3.6 2.5zm4.6 1c.3.5.2 1-.4 1-.5 0-1.3-.5-1.6-1-.3-.6-.2-1 .4-1 .5 0 1.3.4 1.6 1zm-4.5 2c0 .5-.7 1-1.5 1s-1.5-.5-1.5-1c0-.6.7-1 1.5-1s1.5.4 1.5 1z"/><path d="M196.703 590.93c0 .5.5.7 1 .4.6-.3 1-.8 1-1.1 0-.2-.4-.4-1-.4-.5 0-1 .5-1 1.1zM206.403 641.53c-.4.6.1 1.4 1 1.8 1 .3 1.9.2 2.1-.4.2-.5 1.1-.7 2-.4 1.4.5 1.5.3.5-.7s-1.5-1.1-2.7-.1c-1.1.9-1.5.9-1.8-.1-.3-.8-.6-.9-1.1-.1zM210.303 646.23c-.4 1.7-.3 3.3.3 3.9 1.7 1.7 2.3.2 1.3-3.4l-.8-3.4-.8 2.9zM568.703 124.33c0 .8-.4 1.5-.9 1.5s-2.3 1.2-4 2.6c-2.2 1.8-3.8 2.4-5.3 2-1.5-.3-3 .2-4.4 1.5-2 1.9-2.6 2-5.9.8-2.8-1.1-3.9-1.1-5.3-.1-3.6 2.5-6 3.1-9.4 2.1-1.8-.5-4.5-.7-6-.3-1.5.3-4.3.1-6.2-.4-2.4-.7-4.7-.7-7.1.1-3.1.9-3.8.8-5.9-1.2-1.4-1.3-2.6-1.8-3-1.2-.9 1.4 3.4 4.1 6.5 4.1 1.5 0 3.2.7 3.9 1.5.7.8 1.8 1.5 2.4 1.5 2.2.1 8.1 9.2 8.3 12.9.4 10.4 1.5 14.6 4.6 17.6 1.7 1.6 2.7 2.4 2.3 1.7-.5-.8.1-1.2 1.9-1.2 2.1 0 2.6-.4 2.3-2.3-.2-1.8.2-2.3 2.5-2.5 1.8-.2 3.2-1.3 4.2-3.2 2.4-4.6 4.4-6.1 6.5-5 1.3.7 2.1.7 2.5 0 1.2-1.9 4-.9 8.5 3 4.6 4.1 6.5 5 5.7 2.7-.2-.6-1-1.1-1.6-1-.6.2-1.1-.2-1.1-.7 0-.6.3-1.1.8-1.1 4.7-.7 6.1-.6 6.6.7.4 1.1 1 1.2 2.5.4 1.1-.5 4-1 6.5-1 4.3 0 4.7-.2 6.1-3.7 2.3-5.5 8.5-14.4 9.6-13.8.5.4.9-.3.9-1.4 0-1.2.7-2.1 1.5-2.1s1.5-.4 1.5-.8c0-1.5-3.6-4.2-5.6-4.2-1.1 0-3-.7-4.2-1.6-1.2-.8-2.2-1-2.2-.5 0 1.6-3.2 1.3-5.4-.4-1.1-.8-3-1.5-4.3-1.5-1.6 0-2.3-.5-2.1-1.5.2-1-1.2-2.3-3.9-3.5-3.5-1.6-4.3-1.6-4.3-.5z"/><path d="M548.403 168.53c-1.4 1.4-.6 3.4 2.9 7.3 2.7 3 3.5 4.6 3.2 6.5-.7 3.3 1.4 5 4.2 3.5 1.5-.8 1.9-1.7 1.4-3.2-.5-1.6-.3-2 .8-1.5 1.3.4 1.3 0 .4-2.6-1.3-3.7-5-7.7-8.9-9.5-3.3-1.4-3.2-1.4-4-.5zM531.403 174.63c-1.4.3-1.6.7-.7 1.7.6.8 1.8 1.1 2.6.8.8-.3 1.4 0 1.4.5 0 .6.9 1 2 .9 2.5-.2 2-2.1-.6-2.6-1-.2-2.1-.6-2.4-1-.3-.4-1.3-.5-2.3-.3zM522.703 176.83c0 .5.5 1 1.1 1 .5 0 .7-.5.4-1-.3-.6-.8-1-1.1-1-.2 0-.4.4-.4 1zM440.703 199.83c0 .5.4 1 .9 1 .6 0 1.3-.5 1.6-1 .3-.6-.1-1-.9-1-.9 0-1.6.4-1.6 1zM685.103 304.63c.5 3.3.3 4.3-1.1 5.1-1 .5-1.5 1.2-1.1 1.6 1.3 1.3 4.8-1.9 4.2-4-.5-2-.5-2 1.2 0 1.5 1.8 1.6 1.8 1 .2-.3-1-.6-2.5-.6-3.2 0-.8-1-1.9-2.1-2.6-2.1-1.1-2.2-1-1.5 2.9zM680.203 313.83c-.3.6.1.7.9.4 1.8-.7 2.1-1.4.7-1.4-.6 0-1.3.4-1.6 1zM675.303 314.63c-.2.4-.1 1.4.5 2.2.7 1.2.9 1 .9-.8 0-2.3-.5-2.8-1.4-1.4zM621.703 376.93c0 .5.5.7 1 .4.6-.3 1-.8 1-1.1 0-.2-.4-.4-1-.4-.5 0-1 .5-1 1.1zM624.703 377.23c0 .2.7.7 1.6 1 .8.3 1.2.2.9-.4-.6-1-2.5-1.4-2.5-.6zM155.703 419.83c-1.3.8-1.2 1 .3 1 .9 0 1.7-.5 1.7-1 0-1.2-.1-1.2-2 0zM699.303 496.03c1 1.4 2.1 2.4 2.3 2.2.3-.3-.6-1.5-1.8-2.7l-2.4-2.2 1.9 2.7zM700.203 501.83c-.3.5-.1 1 .4 1 .6 0 1.1-.5 1.1-1 0-.6-.2-1-.4-1-.3 0-.8.4-1.1 1zM2.703 592.33c0 .9-.7 2.7-1.6 4.1-.9 1.3-1.3 2.8-1 3.2.9.9 3.7-2.8 3-3.9-.2-.4.5-1.3 1.6-1.9 2.2-1.2 1.8-3-.6-3-.8 0-1.4.7-1.4 1.5zM.503 603.43c.6 3 3.5 3.3 3 .2-.2-1.1-1-2.2-1.9-2.3-1.2-.2-1.5.3-1.1 2.1zM633.703 671.93c0 1.6-.5 2-2 1.6-1.1-.3-2-.1-2 .4 0 .6 2.1.9 4.8.7 4-.3 4.7-.6 5-2.6.3-1.9-.1-2.2-2.7-2.2-2.5 0-3.1.4-3.1 2.1zM641.703 671.43c0 2 2.4 4.4 4.5 4.4s2.5.5 2.5 3c0 1.6.4 3 .9 3 1.5 0 1.8-3.2.7-5.8-.7-1.8-.6-2.6.5-3.3 1-.8.9-.9-.8-.4-1.2.3-2.4.1-2.8-.5-.6-1-5.5-1.4-5.5-.4zM657.703 688.43c0 .8.5 1.2 1 .9.6-.3 1-1 1-1.6 0-.5-.4-.9-1-.9-.5 0-1 .7-1 1.6zM654.403 689.23c-.3.8.1 1.7.9 2 .8.3 1.4-.1 1.4-.9 0-2-1.7-2.8-2.3-1.1zM113.503 689.63c-1.5.3-1.3.7 1.1 2.8 3.2 2.6 4.8 2.9 7.1 1.3 1.2-.9 1.2-1-.3-.5-1.3.4-2 0-2.4-1.3-.5-2-2.7-2.9-5.5-2.3zM426.403 716.93c-1 .6-2.5.8-3.3.5-1.3-.5-1.4 0-.9 2.4.5 2.2.3 3-.6 2.8-1.8-.4-1.2 7.4.7 8.5.8.4 1.4 1.9 1.4 3.1 0 2.3 1.7 3.6 4.4 3.6.9 0 1.2-.9.8-2.5-.3-1.9-.1-2.4 1-2 1.1.4 1.3-.2 1-2.9-.2-1.9.1-5 .8-7 1.9-5.7-.8-9.1-5.3-6.5zM439.803 723.23c-.6.7-.8 1.6-.4 1.9.3.4-.3.7-1.4.7-3.4 0-3.5 1.3-.1 2.7 3.6 1.5 4.8.8 5.2-3 .3-2.9-1.7-4.3-3.3-2.3zM446.703 724.33c3.1 1.8 4 1.8 4 .2 0-.7-1.4-1.4-3.2-1.5l-3.3-.2 2.5 1.5zM432.303 729.23c.6 1.6 3.4 3 3.4 1.8 0-1-2.2-3.2-3.2-3.2-.4 0-.5.6-.2 1.4zM194.403 812.43c-1 1 .5 4.3 1.8 3.8 2-.8 2.6 2.3 1 5.3-1.9 3.5-1.9 4.7 0 6.3 1 .8 1.5.9 1.5.1 0-.7.8-.8 2.6 0 3 1.1 6 .4 6.6-1.4.4-1.3-12.6-14.9-13.5-14.1zM191.903 835.53l-2.4 2.7 2.2.8c2.8 1 2.7 1.1 3.3-3 .6-3.9-.1-4-3.1-.5zM264.203 836.83c-.3.5-.1 1.8.4 2.7.9 1.6 1 1.4 1.1-1 0-2.8-.5-3.4-1.5-1.7zM259.303 843.43c-.5 1.4-.4 1.5.9.4 1.7-1.4 1.9-2 .6-2-.5 0-1.2.7-1.5 1.6zM246.403 844.53c-.7.6 0 7.5 1 10.3 1.4 4.1 1.1 9.1-.7 10.8-1.9 1.8-3 5.5-1.7 5.9 1.8.7 2.7.1 2.7-1.7 0-1.4.7-2 2.3-2 2.6 0 5.4-1.6 4.5-2.6-1-.9 1.7-3.4 3.6-3.4 2.1 0 2-.6-.6-3.3l-2.3-2.2 3-.5c2.7-.4 3-.9 3.1-4 0-3.7-1.5-5.7-2.8-3.7-.6.9-.8.9-.8-.1 0-.7-.5-1-1.2-.6-.6.4-1.7-.1-2.4-1.1-.8-1.1-1.9-1.5-3-1.1-.9.3-2.2.2-2.9-.4-.6-.5-1.5-.7-1.8-.3z"/></g></svg>