<svg version="1" xmlns="http://www.w3.org/2000/svg" width="835.624" height="674.091" viewBox="0 0 626.718 505.568"><g fill="#222"><path d="M97.487 4.496c-1.5 3.6-2.4 4.5-4.4 4.5-2 0-2.3.4-1.8 2 .4 1.3.2 2-.7 2-.7 0-2 1.3-2.9 2.9-1.4 2.4-1.5 3.7-.6 7.6.8 3.6.8 4.8-.2 5.4-.7.5-1.2 1.1-1.2 1.5.6 4.1-.1 5.5-2.9 6.1-2.3.5-3 1.2-3 3 0 2.5-3.1 6.1-6.1 7-1 .3-1.6 1.2-1.3 2 .3.7.1 1.6-.5 2-.6.3-.8 1.7-.5 3 .4 1.8 0 2.6-1.8 3.6-1.2.6-2.7 1.8-3.1 2.5-.4.8-1.7 1.4-2.8 1.4-1.3 0-1.8.4-1.3 1.1.4.7.8 2.7 1 4.6.3 4.1.4 4.2 3.2 4.6 1.2.2 2.5.6 2.8 1 1.5 1.5 2.5.6 1.8-1.6l-.6-2.2 2.3 2.1c1.3 1.2 3.3 2.4 4.3 2.8 1.4.5 1.6 1 .9 1.7-.6.6-.9 2.8-.6 4.9.5 3.2.2 3.9-1.6 4.5-1.1.3-2.1 1.1-2.1 1.6s-1.2.9-2.6.9c-1.4 0-2.3.4-1.9.9.3.6-.8.8-2.8.4-4-.6-6.7 1.6-4.3 3.6 1.1.9 1.1 1.7.2 3.6-.6 1.4-1.4 2.5-1.8 2.5-.5 0-.8.6-.8 1.3 0 .8-1.4 1.1-4.5.9l-4.5-.4v3.9c0 3.3.6 4.4 3 6.3 2.8 2.1 2.9 2.4 1.5 5-.8 1.6-2 3-2.7 3.3-.8.4-.7.6.4.6 1 .1 2.2 1 2.8 2 1.3 2.6 1.3 3.1-.5 3.1-1.1 0-1.4 1.1-1.3 4.4.2 4.2.3 4.3 2.5 3.3 1.3-.6 2.3-1.4 2.3-1.9 0-1.2 3.4-1 4.9.4 1 1.1 1.1 1 .5-.5-.3-.9-.1-2.4.6-3.2 1.1-1.3 1.5-1.4 2.9-.1 1.9 1.7 8 1 8.8-1 .4-1 1.2-.8 3.6 1 1.8 1.4 4.5 2.8 6 3.2 1.7.4 3.3 1.7 4 3.3.6 1.4 1.9 3.5 2.8 4.6 1 1.1 2.2 3.6 2.7 5.5.8 2.7 1 3 1.1 1.2.1-1.5.9-2.6 2.1-2.9 1.3-.3 2-1.4 2-2.8 0-1.8.4-2.2 1.9-1.8 1.3.3 2-.2 2.5-2.1.4-1.7 1.3-2.6 2.6-2.6 1.2 0 2-.7 2-1.8 0-.9 1.2-2.8 2.6-4.1 2.1-2 2.8-2.2 4.9-1.3 3.2 1.5 9.5-1.2 9.5-4 0-1.3.8-1.8 2.5-1.8 1.8 0 2.5-.5 2.5-2 0-2.1 1.5-2.7 2.5-1 .3.5 1.1 1 1.8 1 .8 0 .8-.3-.1-1.2-.7-.7-1.2-2.2-1.2-3.5 0-1.8-.6-2.3-2.4-2.3-1.4 0-2.7-.4-3-.8-.5-.9 4.7-8.9 6.9-10.6 1.3-.9 1.1-1.4-1.5-3.1-2.9-2-3.9-3.5-2.1-3.5.5 0 1.1-1 1.4-2.2.5-1.7.9-1.9 2.1-.9 1.9 1.6 3-.1 2-3.2-.5-1.5.5-.8 3 2.1 2 2.4 3.6 4.8 3.6 5.3s.7.9 1.5.9 1.5.8 1.5 1.8c0 1.1.9 2.7 2 3.7s2 2.8 2 3.9c0 2 .1 2 2-.4 1.1-1.4 2-3.4 2-4.5 0-1.8.1-1.8 1.6.3s1.5 2.5 0 4.1c-.9 1-1.6 3-1.6 4.6 0 2.5.2 2.6 1.8 1.4.9-.7 1.4-.9 1-.5-.9 1 4.4 4.6 6.7 4.6.8 0 1.9-.8 2.4-1.8 1.4-2.5-.5-4.5-3-3.2-2.3 1.3-3.3-.3-1.9-3 .6-1.1.7-2 .3-2-.4 0-.2-.5.5-1.2s1.2-2 1.2-3c0-1.2.5-1.5 1.6-1.1 1.1.4 2.3-.2 3.4-1.7 1.9-2.5 5.7-3.4 7.7-1.8.7.6 2 .7 2.9.4.9-.4 2.2-.2 2.9.4 1 .8 1 .2-.1-2.7-1.8-5.1-1.7-6.3.4-6.3 1 0 2.2-1.2 2.9-3 .7-2 1.8-3 3.1-3 1.5 0 2.2-.8 2.4-2.6l.3-2.6 4.6 4.1c2.6 2.2 5.8 4.5 7.3 5.1 1.4.5 2.6 1.5 2.6 2.3 0 1.1 4.7 3.7 7.5 4.1.6.1 2.4.5 4.2 1 2.4.5 4 .3 6.2-1 2.6-1.6 3.5-1.6 7.3-.4 2.4.7 5.2 1.4 6.3 1.5 1.1.1 3.5.6 5.3 1 2.6.6 3.2.4 3.2-.9 0-.9.5-1.6 1-1.6 1.6 0 8.2 3.8 9.2 5.2.6 1 1.4.6 3.2-1.4 1.7-1.9 2.7-2.3 3.5-1.5.7.7 1.1.7 1.1.1 0-1 6.8-.2 20.8 2.2 2.1.4 3.2.2 3.2-.5s1.2-2.4 2.7-3.9c1.5-1.5 2.6-2.9 2.5-3.2-.1-.3 1.4-.4 3.3-.2 3.7.4 4.3-.6 2.3-3.7-.9-1.5-.6-2.7 1.6-6.5 2.1-3.7 2.5-5 1.6-6.6-.9-1.6-.8-2 .5-2 1.9 0 2-3.4 0-5-1-.8-1.3-2.1-.8-3.8.4-1.7.2-2.3-.6-1.8-.6.4-1.1.1-1.1-.9 0-.8.7-1.8 1.5-2.1 2-.8 1.9-1.5-.7-7.2-3.4-7.6-6.3-10.9-9.5-11-4.2-.1-10.9-4.3-10.5-6.5.3-1.5.6-1.6 1.9-.6 1.2 1 1.6 1 2.3-.1.5-.9.5-1.9-.1-2.6-.8-1-1.5-.9-3 .4-1 .9-1.9 2.2-1.9 2.9 0 1.3-3.8 5.3-5.1 5.3-.4 0-.9-.9-1.2-2.1-.6-2.2-2.7-1.8-2.7.6 0 .7-.9 1.6-2 2-1.5.5-1.9 1.5-1.8 5.1.1 4.7 1.1 5.4 4.9 3.4 1.2-.7 1.9-.7 1.9-.1 0 1.4-3.6 3.2-4.4 2.3-.4-.3-.4.2 0 1.3.5 1.1 1.8 2.8 3.1 3.8 1.7 1.4 2.3 2.9 2.3 5.9 0 3.8-.2 4-2.5 3.6-1.8-.4-2.9.1-4.1 2-1.6 2.5-1.7 2.5-3.1.6-1.2-1.6-1.4-1.6-1.1-.2.4 2.1-.2 2.1-4.7.2-2-.8-4-1.2-4.5-.9-.4.3-2 .1-3.3-.4-2-.8-2.7-.6-3.1.6-.5 1.2-.9 1.3-2 .4-1-.8-1.6-.8-2.6.4-1.4 1.7-4.2.7-7.5-2.8-1.1-1.2-1.9-2-1.8-1.8.2.2-1.1 1.3-2.8 2.3-2.7 1.6-3.6 1.8-6.1.7-1.7-.7-4.9-.9-8-.6-2.8.4-5.9.2-6.9-.4-1.6-.8-1.9-.6-1.9 1.1 0 2.3-1.3 2.5-7.5.8-2.6-.7-4.7-1.9-5-2.9-.5-1.4-4.4-3.4-5.1-2.6-.2.1-.7 3-1.3 6.4-1 6.4-2.8 10.3-4.7 10.3-.7 0-1.4 1-1.7 2.1-.5 1.7-1.1 2-3.1 1.5-1.5-.4-2.6-.1-3 .7-.3.6-.3 0-.1-1.5.5-3.8 1.3-4.8 3.6-4.8s2.4-.6.4-2.6c-.8-.9-1.5-2.6-1.5-4 0-3-1.7-6.1-5-9-3.4-3-3.6-2.4-.5 2.1 1.4 2.1 2.5 4.3 2.5 4.9 0 .6.3 2.1.6 3.3.5 2 .1 2.3-3.4 2.9-3.3.5-4.2 1.1-4.7 3.3l-.7 2.6-2.9-3.5c-1.5-1.9-2.9-4-2.9-4.6 0-1.6-5-2.5-5-.9 0 .7-1.5 2.2-3.4 3.3-3 1.8-3.6 1.9-4.7.6-.6-.8-1.8-1.4-2.6-1.4-4.4 0-9.9-7.8-7.4-10.3 1.1-1.1-3-5.7-5-5.7-.6 0-.9-1.6-.8-3.5.2-1.9-.2-4-.9-4.7-.6-.6-1.2-2-1.2-3 0-.9-.8-2.2-1.9-2.7-2.5-1.4-3.4-6.2-1.4-7.8.9-.7 1.3-2 1-3.3-.6-2.2.3-2.6 2.1-.8.9.9 1.2.7 1.2-.9 0-1.4-.8-2.3-2.4-2.7-1.3-.3-2.6-1.5-2.9-2.7-.3-1.2-1-1.8-1.5-1.5-.5.3-2.1-.8-3.6-2.3-2.2-2.3-3.3-2.7-5.4-2.2-1.9.5-3.9.2-6.5-1.2-4.2-2.1-10-8.6-9.3-10.3.4-1.1-1.2-3.4-2.3-3.4-.4 0-1.4 2-2.4 4.5zm-3.9 18.8c.7.5 1 1.3.7 1.8-.9 1.4-1.9 1.1-3.2-1-1.3-2-.1-2.4 2.5-.8zm-11.8 49.3c0 .8-.5 1.2-1 .9-.6-.4-.8-1.1-.5-1.6.9-1.4 1.5-1.1 1.5.7zm17 2.4c.6 0 .8.5.5 1.1-1.2 1.8-2.8.4-3.1-2.7-.3-2.6-.3-2.7.6-.7.5 1.3 1.4 2.3 2 2.3zm2.7 3.2c-.3.8-.6.5-.6-.6-.1-1.1.2-1.7.5-1.3.3.3.4 1.2.1 1.9zm9.3-.6c0 .2-.7.4-1.5.4s-1.5-.4-1.5-1c0-.5.7-.7 1.5-.4.8.4 1.5.8 1.5 1zm-9 4.9c0 1.5-2.6 2-5.4.9-2.4-.9-.9-2.4 2.5-2.4 1.9 0 2.9.5 2.9 1.5zm59 23.6c0 .6-.4.7-1 .4-.5-.3-1-1.1-1-1.6 0-.6.5-.7 1-.4.6.3 1 1.1 1 1.6zm-66.9 24c2.3 1.2 1.6 2.9-1.2 2.9-1.2 0-1.9-.7-1.9-2 0-2.3.4-2.4 3.1-.9zm4.9.8c0 .6-.4 1.3-1 1.6-.5.3-1-.1-1-.9 0-.9.5-1.6 1-1.6.6 0 1 .4 1 .9z"/><path d="M264.887 48.896c-.9.6-1 1.1-.2 1.5.6.4 1.1.3 1.1-.3s.7-.7 1.7-.4c1.1.4 1.4.3.9-.5-.8-1.4-1.6-1.5-3.5-.3zM40.387 55.896c-1.1 1.1-2.4 2.1-3 2.1-1.8 0-6.8 5.8-5.6 6.5.6.4.8 1 .5 1.4-.2.5.7.6 2 .3 1.4-.2 2.5-.8 2.5-1.3s.7-.9 1.5-.9c1.8 0 4.7-5.5 4.3-8.2-.3-2-.3-2-2.2.1zM15.387 59.496c1.4 1.4 3.1 2.5 3.8 2.5.8 0 1.6.7 2 1.5.7 2 3.2 1.9 4-.1 1.1-3 .6-3.6-2.4-2.9-2.3.5-3 .3-3-.8 0-.8-1-1.7-2.2-2.1-4.2-1.1-4.7-.6-2.2 1.9zM24.487 69.196c-2.1 3.7-2.2 5.5-.2 3.8.8-.7 2.9-1.4 4.7-1.6 1.8-.1 3.5-.3 3.7-.3.8-.1-3.3-3.7-4.9-4.3-1.1-.4-2.2.4-3.3 2.4zM56.487 72.696c-.2.5-.7 2.1-1.1 3.6-.7 2.8-6.2 7.1-7.8 6.1-1.2-.8-1 3.4.3 5.4 1 1.5 1.8 1.7 4.8 1 2-.4 5.3-1 7.4-1.4 3.6-.5 3.8-.7 3.3-3.2-.8-3.5-4.9-12.1-5.8-12.2-.4 0-.9.3-1.1.7zM9.787 74.796c0 .6-1.5 1.9-3.4 3-2.4 1.4-3.7 1.7-4.5.9-1.7-1.7-2.5 0-1.3 2.8.6 1.4.9 3.1.6 3.9-.3.9.3 1.7 1.5 2.1 1.2.3 1.9 1 1.6 1.4-.2.5.4 1.6 1.4 2.5 1.4 1.3 2.4 1.4 4.5.6 1.5-.5 4.3-1 6.2-1 2.1 0 3.3-.4 2.9-1-.3-.6-.1-1 .4-1 .6 0 1.1.6 1.1 1.4 0 1 2.6 1.9 8.2 2.9 8.8 1.6 10.4 1.2 9.2-2.7-.4-1-.1-2.2.5-2.6.7-.4-1.3-.8-4.3-.9-3.5-.1-5.6.3-5.6.9 0 .6-1 1-2.2.8-1.6-.2-2.4-1.1-2.6-2.8-.2-1.4-1-3.2-1.8-4.1-1.3-1.5-1.3-1.7.1-2.2.8-.4 1.5-1.3 1.5-2.2 0-1.7-1.7-2-2.2-.4-.3.9-1.5.8-4.3-.2-3-1.1-3.9-1.1-4.2-.2-.3.7-.9 1.3-1.5 1.3s-.8-.7-.5-1.5c.4-.8.2-1.7-.3-2-.6-.4-1-.2-1 .3zM46.387 92.596c-.8 2.2.1 3.1 1.6 1.6.9-.9.9-1.5.1-2.3-.7-.7-1.2-.5-1.7.7zM256.887 98.696c0 .7-.8 1.3-1.6 1.3-.9 0-1.9.8-2.2 1.7-.4 1-2.2 3.2-4 4.9-1.8 1.7-3.3 3.8-3.3 4.8 0 .9-.6 1.6-1.2 1.5-2.9-.3-4.9.2-4.3 1.2.4.5-.4 2-1.8 3.3l-2.4 2.3 2 2.8c1.5 2 1.8 3 .9 3.3-.7.2-1 .8-.6 1.3.3.5-.2.9-1 .9-1.2 0-1.4.5-.6 2.6 1.3 3.3 1.3 3.4-.5 3.4-.9 0-1.2.6-.8 1.7.5 1.2.3 1.4-.8.8-.8-.5-.7 0 .4 1.2 1 1.1 1.7 2.4 1.6 2.9-.4 2.2.2 3.4 1.9 3.5.9 0 3.1 2.1 4.7 4.7 2.3 3.7 3.5 4.6 5.3 4.4 1.2-.2 2.1 0 2 .5-.2.4.5 1.9 1.5 3.3.9 1.4 1.7 1.8 1.7 1 0-.9.7-.7 2.3.8 3 2.9 4.1 2.8 3.3-.2-.8-3.3.7-4 3-1.5 2.3 2.6 2 10.7-.4 12.5-1.4 1.1-1.5 1.6-.4 3.3 1.5 2.5 1.6 5.5.2 4.6-.6-.4-1.7-.1-2.5.5s-1.9.9-2.5.5c-.5-.3-1-.1-1 .4 0 1.7-1.8 1.3-3.9-1-1.4-1.5-2.8-2-4.9-1.7-1.6.2-3.4-.2-4.1-.9-1.6-1.8-3.4-1.6-2.7.2.3.8.1 1.5-.4 1.5s-1.2.9-1.5 2c-.3 1.1-1.2 2-2 2s-1.6.8-1.9 1.8c-.5 1.4-1.4 1.7-3.6 1.4-2.3-.3-3 0-3 1.2 0 .9-.6 1.6-1.2 1.6-.7 0-1.4 1.2-1.5 2.7 0 1.5-.6 2.9-1.2 3.1-.5.2-.7 1-.4 1.8.4 1 0 1.5-.8 1.4-.8-.1-2.7-.2-4.3-.1l-2.9.1 2.1 2.2c1.1 1.3 2.4 3.6 2.7 5.3 1.4 6.1 1.6 6.4 5.2 7.1 2.3.4 4.7 2 7 4.5 2 2.2 4.4 3.9 5.3 3.9 1 0 2.1.9 2.5 1.9.3 1.1 1.2 2.2 2 2.5 1.8.7 2 3.7.3 5.4-2 2 .1 2.6 2.2.7 1.5-1.4 2.3-1.6 3.2-.7.9.9 1.7.3 3.5-2.3 1.6-2.4 3.2-3.5 4.8-3.5 1.3 0 2.6-.4 2.9-.8.3-.5-.4-.8-1.6-.8-1.1.1-2.5-.8-3.2-1.9-.6-1.1-1.5-2.3-2.1-2.7-.5-.4.2-.8 1.7-.8 2.1 0 2.8-.6 3.3-2.9.7-3.4 6.4-10.1 8.6-10.1 3.5 0 6.4-5.7 4.3-8.5-2.1-2.8-1.8-4.8.4-3.6 2.8 1.5 16.6 3.2 17 2.1.2-.6 1.2-1 2.3-1 1 0 1.9-.5 1.9-1 0-.8.6-.8 1.7-.1 1.3.7 3 .3 6.5-1.6 4.1-2.2 4.6-2.8 3.5-4.2-1-1.4-1-1.4.5-.3.9.7 3.7 1.5 6.1 1.6 4.6.2 5.1-.6 2.4-4.2-.7-.8-.5-1.2.6-1.2 1.6 0 2.7-2 2.7-5 0-1.7-2.6-3.3-5.6-3.4-2-.2-4.4-3.5-4.4-6.3 0-2.4-.7-3.3-3.6-4.6-3-1.5-3.4-2-2.4-3.2.7-.9 1.3-4.7 1.4-8.8.1-5.8-.4-8.2-2.4-12.5-1.4-2.8-3.1-5.2-3.8-5.2-1.7 0-7.4-3.1-8.4-4.5-.4-.5-.3-1.4.2-1.9s.3-2.1-.6-3.8c-.9-1.7-1.3-3.6-1-4.4.3-.8-.1-1.4-.9-1.4-1 0-1.2-.7-.5-3 .6-2 .5-3-.2-3-.5 0-.8-.6-.5-1.4.8-2-.4-2.8-2-1.5-2.3 2-9.1 2.8-9.7 1.3-.3-.8-2.2-2.2-4.3-3.2-2.1-.9-4.4-2.3-5.1-3-.7-.6-2-1.2-2.7-1.2-.7 0-1.6-.8-1.8-1.8-.3-.9-.5-1.1-.6-.5zm-15.3 39.5c.3 1.7-1.3 1.9-3.5.5-2.1-1.3-1.5-2.9.9-2.5 1.3.2 2.4 1.1 2.6 2zM35.387 105.796c0 1.4.6 2.8 1.2 3 .7.2 1.2 1 1.2 1.8 0 2 1.8 1.7 2.2-.4.3-1.4.7-1.3 2.7 1l2.3 2.7 2.6-3 2.5-3-2.2-2.2c-2-2.1-2.1-2.1-2.1-.2-.1 2-.1 2-1.3 0-.8-1.4-2.4-2-5.2-2.2-3.8-.1-4.1 0-3.9 2.5z"/><path d="M275.787 103.896c0 .5.7 1.5 1.7 2.2 1.5 1.3 1.5 1.2.4-.9-1.2-2.3-2.1-2.8-2.1-1.3zM134.787 107.996c0 .6.7 1 1.5 1s1.5-.2 1.5-.4-.7-.6-1.5-1c-.8-.3-1.5-.1-1.5.4zM145.787 110.496c0 2-.5 2.5-2.5 2.5-2.7 0-3.2.9-1.3 2.8.8.8 1.7.8 3.1.1 1-.6 2.7-.9 3.7-.6 1.1.3 2.6-.3 3.6-1.4 1.5-1.7 1.6-1.9.1-1.9-.9 0-2.1-.9-2.7-2-1.5-2.9-4-2.5-4 .5zM166.087 116.696c.2 3.4 1.5 4.5 3.9 3.2 2.5-1.4 2.3-4.5-.4-5.3-3.5-.9-3.6-.8-3.5 2.1zM159.187 119.196c-.4 1.2-.1 2.4.7 2.9 1.7 1 2.9.2 2.9-2.1 0-2.6-2.8-3.3-3.6-.8zM144.287 118.996c.3.5.8 1 1.1 1 .2 0 .4-.5.4-1 0-.6-.5-1-1.1-1-.5 0-.7.4-.4 1zM166.787 126.396c.7.7 1.3.7 2 0 .6-.6.3-1-1-1s-1.6.4-1 1zM92.887 150.596c0 1.1.3 1.4.6.6.3-.7.2-1.6-.1-1.9-.3-.4-.6.2-.5 1.3zM91.987 158.296c-2.1 1-2.3 1.5-1.7 5.7l.6 4.6-4.1 1.7c-3.9 1.5-4.1 1.8-3.5 4.7.5 2.3.3 3-.9 3-.8 0-2.4 1.3-3.4 2.8-1.1 1.5-3.6 3.4-5.6 4.2-3.3 1.2-5.2 4.3-2.4 3.7.7-.1 1.2 1.1 1.3 3.3.2 5.7-.2 6-4.8 3.7-4.3-2.1-7.2-2.3-9.5-.5-.9.8-1.7.7-3-.4-.9-.8-2.4-1.3-3.3-1.1-1.4.3-1.6 1.2-1.2 4.4.4 2.4.2 3.9-.5 3.9-1.7 0-.1 3.9 2.5 6 3.3 2.6 12 5.3 14.1 4.5.9-.4 3.7-.9 6.2-1 2.5-.2 5.4-.5 6.5-.7 1.5-.2 1.9.2 1.8 1.9-.1 1.1.4 2.7 1.3 3.4 1.2 1 1.8.8 3-.9 1.1-1.5 2.6-2.2 5-2.2 3.6 0 4.2-.8 2.2-2.9-1.1-1.1-.9-1.3 1-.8 1.2.3 2.2 0 2.2-.5 0-.7.5-.6 1.4.1.9.8 1.6.8 2 .2.4-.6 1.3-.8 2-.5 1.1.4 1.3-.2.6-3.1-1.1-4.8-1.7-5.3-3.1-2.2-1.4 3.1-3.5 4.1-4.3 2.1-.3-.7-.1-1.3.3-1.1 3.2.8.4-5-2.9-6.2-3.5-1.2-3.6-1.6-1.1-7.4 1.2-2.8 1.6-4.9 1-5.8-1.3-2.1-1.1-2.9.9-2.9 1.9 0 3.8-2.8 4.5-6.5.2-1.1.8-1.9 1.4-1.8 3.1.7 1.4-9.7-2-12.2-.8-.6-1.6-1.8-1.8-2.6-.3-1.3-.9-1.4-2.7-.6zM329.487 172.096c-1.3.8-1.5 1.4-.7 3 .9 1.6.7 1.9-1.5 1.9-2 0-2.7.6-3.2 3-.3 1.7-1.4 3.7-2.5 4.4-1.9 1.4-1.9 1.4.2 3.9 3.7 4.2 11 9.1 11 7.3 0-2.2 8-1.4 11.7 1.1 1.5 1 4 2.4 5.6 3.1 1.5.6 2.7 1.7 2.7 2.3 0 .6.7.8 1.6.5.9-.4 2.2-.2 2.9.4.9.8 1.5.8 2 0 1-1.6 2.3-1.2 4.1 1.6 1.3 1.9 1.4 2.8.5 3.7-1.4 1.4-1.5 4 0 3.2 2-1.3 7.9.5 7.9 2.3 0 1.4.2 1.5 1 .2.8-1.2 1-1.2 1.6.3.3.9 1 1.5 1.5 1.2.4-.3 1.3.4 1.9 1.5.6 1.2 2.1 2 3.5 2 1.7 0 2.9.9 4 3 1.7 3.4 2.7 3.7 4.5 1.5 1.4-1.7 4-2 4-.5 0 .6-.7 1.3-1.5 1.6-.8.4-1.5 1.2-1.5 2s-.7 1.4-1.5 1.4-1.5.7-1.5 1.6c0 .8-.4 1.3-.9.9-.6-.3-.6.6-.1 2.4.4 1.6.6 3.2.3 3.5-.3.3-.3 1.3.1 2.2.5 1.2.9 1.4 2 .5.7-.6 1.6-.8 2-.4.4.4 1.8-.6 3.1-2.2 1.8-2.4 2.1-3.3 1.2-4.4-1-1.2-.8-1.3 1.1-.9 1.2.4 2.2.2 2.2-.3 0-.4.6-.6 1.4-.3 1.1.4 1.3 0 .9-1.6-.3-1.2-1.2-2.4-1.9-2.7-.8-.3-1.4-1.2-1.4-2 0-1.3.3-1.3 1.5-.3 1 .9 1.5.9 1.5.1 0-1.9 1.8-1.2 5 1.9 2.9 2.8 4.2 3.5 6.4 3.1.4-.1 1.4.4 2.2 1 1.1.9 1.8.8 3-.2 1.3-1 1.7-1 2.4.2.8 1.1 1.2 1.1 2.4-.6 1.5-2.1 1.6-11.5.2-14.8-.6-1.3-.5-1.6.8-1.1 1.1.4 1.6 0 1.6-1.4 0-1.1-.7-2.2-1.5-2.6-.9-.3-1.5 0-1.5.9 0 2.1-3.7 3.9-4.7 2.2-.4-.8-1.5-1.6-2.4-1.9-.9-.4-1.9-1.6-2.2-2.7-.4-1.6 0-2.1 1.3-2.1 2.3 0 3.7-2 2-3-.6-.4-1-.9-.8-1.1.5-.6-3.8-5.9-4.8-5.9-.5 0-1.5-1.4-2.3-3-1.2-2.8-1.4-2.9-2.5-1.4-1.2 1.5-1.3 1.5-1.9-.6-.5-1.8-1.1-2.1-3.1-1.6-1.5.4-2.6.1-2.9-.7-.4-.9-.6-.9-.6 0-.2 2.2-3.8 3.5-6.1 2.1-1.7-1.1-2.2-1.1-2.9.1-.8 1.2-1.5 1.2-5.3-.2-2.3-.8-7-2.1-10.3-2.7-3.3-.7-6.8-1.9-7.8-2.8-1.9-1.7-2.7-1.3-3.1 1.5-.4 2.7-2.7 2.2-4.5-1.1-1.2-2-3.3-3.5-7.1-5-3-1.1-5.6-2.4-5.8-2.8-.2-.4-.9-.8-1.5-.8-.7-.1-2.8-1.4-4.7-3-3.6-3.2-5.4-3.6-8.3-1.9zm83.3 31c0 .6-.4.7-1 .4-.5-.3-1-1.1-1-1.6 0-.6.5-.7 1-.4.6.3 1 1.1 1 1.6zm-11.6 19c-.6 1.1-2.4.2-2.4-1.1 0-.5.7-.7 1.5-.4.8.4 1.2 1 .9 1.5zM314.587 195.796c-1.4.2-3.2 1-3.8 1.8-.7.8-1.8 1.4-2.4 1.4-1.6 0-2 6.9-.6 10.5.7 2 .8 3.1 0 3.9-1.6 1.6-1.3 9.6.5 10.2 1.7.7 2 3.4.4 3.4-2 0-5.9 5-5.9 7.6 0 2.2.4 2.4 4.4 2.4 2.5 0 4.8.5 5.1 1 1.1 1.8 3.2-.7 3.9-4.5.8-3.9 2.1-4.5 3.1-1.5 1.2 3.6 5.2 5.3 13.5 5.7 7.7.4 7.9.4 8.2-2.1l.3-2.5 5.5 2.6c3 1.4 5.7 2.9 5.8 3.4.2.5 1.4.9 2.6.9 1.2 0 2.6.4 3.2.9.5.5 2.9 1.3 5.3 1.8 3.9.7 4.7 1.4 7 5.6 2.2 4.2 2.9 4.8 5.3 4.5 2.2-.4 3.3.3 5.9 3.9 1.8 2.4 3.9 4.3 4.6 4.3.8 0 1.1-.5.8-1-1.1-1.8 1.8-1 4.1 1.1 1.5 1.4 3.7 2.1 7.3 2.2 5.8.2 8.7 2.2 5.8 3.8-1.4.8-1.6 1.4-.6 2.5 1.5 1.9 3 1.8 2.3-.1-.5-1.1-.2-1.3 1.1-.8 1.6.5 1.7.2 1.1-2.3l-.6-2.9 2.4 2.7c2 2.3 2.6 2.5 3.6 1.3 2.1-2.6-1.7-8.5-7.5-11.5-3.8-2-5.1-3.3-5.3-5.3-.2-1.7-.8-2.4-1.7-2.1-1.9.8-12.7-5.6-13.3-7.8-.6-2.3-5.7-5.5-12-7.3-2.8-.8-5.2-2.1-5.5-2.8-.3-.8-2.2-1.4-4.3-1.5-2.2-.1-5-1-6.4-2.2-1.4-1.1-4.1-3.1-6.1-4.4-3-2-3.6-2.9-3.2-5 .4-2.1.2-2.5-1-2-.8.3-1.8.1-2.2-.5-.3-.6-2.2-1.1-4.1-1.1-2.2 0-3.7-.6-4.1-1.5-.3-.9-2.2-2.3-4.2-3.1-2-.9-3-1.8-2.3-2.1 2.6-1 0-3.2-4.3-3.7-1.1-.1-4.1-3.8-3.8-4.6.4-1.2-5.4-3.5-7.9-3.2zM46.287 199.996c-.3.5-.2 1 .4 1 .5 0 1.3-.5 1.6-1 .3-.6.2-1-.4-1-.5 0-1.3.4-1.6 1zM210.287 200.996c-.3.5-.3 1.4 0 2 .3.5-.3 1-1.4 1-1.1 0-2.5.8-3 1.8-.8 1.6-.3 2 3.5 3.1 2.5.8 4.7 1.1 5.1.8.7-.8-1.9-9.7-2.9-9.7-.4 0-1 .4-1.3 1zM507.787 204.496c1.2 1.5.2 9.7-1.1 8.9-.5-.3-.9.5-.9 1.8 0 3.8-1.5 5-5.9 5-4.4-.1-4.8.3-2.7 3 1.7 2.4 3.6 2.3 3.6-.1 0-2.3 2.1-2.2 4.8.2 2.6 2.3 3.7 2.2 7.2-1.3 3.1-3 4-6 1.8-6-.8 0-.6-.5.4-1 2.5-1.5 3.3-6.5 1.4-9.2-.9-1.2-1.6-2-1.6-1.7 0 .4-1.8.3-4-.1-3.2-.6-3.8-.5-3 .5zM490.887 206.996c-1.6 1.9-2.8 3.7-2.5 4.2.3.5.1 1.5-.5 2.2-.8 1-.5 2 1.5 4 1.5 1.4 3.1 2.6 3.5 2.6 1.3 0 1.1-.7-.7-2.4-1.7-1.8-1.1-3.6 1.3-3.6.9 0 1.3-.6.9-1.5-.3-.8-.1-2.7.5-4.2 1.6-4.3-.5-5.1-4-1.3z"/><path d="M427.287 207.996c-.3.5-.3 1.4 0 2 .3.5.2 1-.2 1-.5 0-.9.9-1 2.1-.1 1.3 1.1 2.9 3.7 4.7 4.2 2.9 4.8 4.7 2.7 7.7-1.6 2.1-3.7 1.3-3.7-1.5 0-1-.6-2-1.4-2.3-1-.4-1.5.6-2 3.2-.3 2.1-1.3 4.4-2.1 5.1-.8.7-1.2 1.7-.8 2.3.4.6-.2.8-1.5.5-1.2-.4-2.2-.2-2.2.3s1.2.9 2.7.9c2.1 0 2.4.3 1.5 1.2-.7.7-1.2 1.8-1.2 2.5 0 1.9 4.7 1.6 5.4-.3.8-2.1 7.2-1.1 10.2 1.7 2.7 2.5 4.8 2.6 3.5.1-.6-1.1-1.1-3.6-1.3-5.8-.2-2.1-1-4.7-1.9-5.7-.9-1-1.4-2.7-1.2-3.8.3-1 0-1.9-.6-1.9s-1.1-.7-1.1-1.5-.7-1.5-1.6-1.5c-.8 0-1.2-.4-.9-1 .3-.5.1-2.7-.5-4.9-1.1-4.3-3.4-6.9-4.5-5.1zM95.987 212.696c.2 1 1.4 1.9 2.8 2.1l2.5.4-2.2-2.1c-2.7-2.6-3.6-2.7-3.1-.4zM104.087 215.596c-2.8 3.2-2.8 3.4.2 6.3 1.4 1.3 2.5 2.7 2.5 3.2s1.1.9 2.5.9c1.9 0 2.3-.4 1.8-1.8-.5-1.3-.4-1.5.8-.6 1 .8 2 .7 3.7-.1l2.2-1.2-2.1-2.7c-1.2-1.5-2.6-2.5-3.3-2.3-.6.3-2.2-.6-3.6-1.9l-2.5-2.3-2.2 2.5zM84.387 223.496c.4.9 1.1 1.4 1.6 1.3 1.5-.5 1.1-2.3-.6-2.6-1.1-.2-1.4.2-1 1.3zM497.887 227.096c-.1.9-1.2 2.2-2.6 2.9-1.8 1-2.3 1.9-1.9 3.5.3 1.3.1 2.6-.5 2.9-2.1 1.3-1.1 4.1 2 5.9 3 1.7 3.1 1.7 5-.5 1-1.3 1.8-2.9 1.9-3.6 0-.6.5-1.2 1.2-1.2.6 0 .4-.8-.7-2-.9-1-1.5-2.6-1.2-3.4.4-.9 0-1.9-.7-2.3-.7-.5-1.6-1.5-1.9-2.3-.5-1.3-.6-1.3-.6.1zM440.787 227.896c0 1.3 2.6 3.2 3.3 2.4.8-.7-1.1-3.3-2.4-3.3-.5 0-.9.4-.9.9z"/><path d="M406.987 232.496c-1.1 1.3-1 1.9 1 3.5 1.3 1 3.5 2.2 5.1 2.5 1.9.5 2.7 1.3 2.7 2.8 0 1.2.7 3.5 1.5 5.1.8 1.5 1.5 3.7 1.5 4.7 0 1.1.5 1.9 1 1.9.6 0 2.1 1 3.4 2.2 4.5 4.5 9.5 7.8 12 7.8 1.9 0 2.5-.6 2.8-2.8.2-1.5-.4-4.1-1.4-5.8-1.2-2.3-1.3-3.5-.5-4.3 1.4-1.4-1.9-5.1-4.7-5.1-1.2 0-3.3-.7-4.8-1.4-2.3-1.2-2.8-1.2-2.8-.2 0 2.2-2.7 3.9-4.6 2.8-1.5-.8-1.5-1 .2-1.6 1.8-.7 1.8-.8 0-2.2-1.5-1-1.7-1.7-.9-2.5 1.3-1.3-.6-3.9-2.9-3.9-.7 0-1.8-1-2.3-2.3-1.2-2.6-4.5-3.3-6.3-1.2zm23.8 22c-.7.8-1.6 1.2-2.1.9-1.3-.8-.1-2.4 1.8-2.4 1.3 0 1.3.3.3 1.5zM444.587 233.096c-.3.8.1 2 .8 2.7 1.5 1.4 1.7.7.5-2.2-.6-1.5-.9-1.6-1.3-.5z"/><path d="M445.087 239.896c-1.3 1.1-2.3 2.5-2.3 3.1 0 .7-.7 1-1.5.6-1-.3-1.5.1-1.5 1.4 0 1-.4 2.1-.9 2.4-.5.3-1.1 1.7-1.4 3.2-.3 2 0 2.7 1.9 3.4 2 .8 2.2 1.4 1.9 5.7-.5 6.5 2.3 14.3 5 14.3 1.7 0 7.5 6.6 6.4 7.3-.2.1-1.2.9-2.1 1.6-2.1 1.6-4.8 0-4.8-2.9 0-1.4-1.6-2-7.6-3.1-6.1-1.1-7.8-1.8-8.6-3.5-.7-1.4-1.7-2-3.4-1.8-1.3.1-2.4-.1-2.4-.5 0-.3-1.4-1.2-3.1-1.8-4.6-1.8-8 .1-7.7 4 .2 1.7-.3 3.2-1 3.5-3.3 1.1.8 5.7 5.2 5.7 2.4 0 3.2.5 3.4 2.1.3 2.2-3 4.4-3.6 2.5-.2-.6-.8-1.1-1.4-1.1-.5 0-.7.8-.4 1.8.4 1.1-.2 2.7-1.5 4.1-2 2.2-2.2 2.2-4.1.4-1.5-1.3-2.2-1.5-2.5-.6-.3.9-1 1-2.1.4-.9-.5-3.3-.8-5.2-.7-3.7.2-5-.8-5-3.8 0-2.4-2.8-4.5-5.9-4.6-1.3 0-3-.8-3.8-1.8-1.3-1.5-1.3-1.5-.7.8.4 1.4.7 3.7.6 5.1-.2 2.7 1.7 4.2 6.8 5.3 2.4.5 7 6.3 7 8.8 0 .8 1 1.8 2.3 2.3 1.2.6 2.2 1.7 2.2 2.5.1.8.6 2.5 1.3 3.7.7 1.2.9 2.9.6 3.8-.4 1 .2 2.5 1.6 4 1.3 1.3 2 3.3 1.9 4.7-.4 2.3 1.8 8.7 3 8.9 3 .3 4.6 1 6.5 2.7 1.1 1.1 2.6 1.7 3.3 1.5.6-.2 1.9 1 2.8 2.6.9 1.8 1.1 3.1.5 3.1-.6 0-.4 1.2.5 3 1.8 3.4 4.8 3.9 7.8 1.2 1.9-1.6 1.9-1.6 1.3.4-.4 1.4-.1 2.6.9 3.4 1.4 1.2 1.3 1.6-1.2 4.3-1.9 2-2.4 3.1-1.5 3.4.6.3 1.2 1.6 1.2 2.9 0 1.4.4 2.3.9 2 .5-.3 1.4.8 2 2.4.9 2.6 1.4 3 3.7 2.6 1.5-.3 3.3-.2 3.8.3.6.5 2.6 1.1 4.4 1.3 2.6.4 3.2.1 3.2-1.4 0-1.4.8-1.1 4 1.9 2.2 2.1 4 4.3 4 5 0 .7 1.2 1.8 2.8 2.5 3 1.5 2.8 3.4-.3 3-1.6-.2-1.7 0-.5.8.8.5 1 1 .4 1-1.2 0-.4 6.5 1 8.8.4.8.1 1.2-1 1.2-1.6 0-1.6.1 0 1.9 1.1 1.2 1.3 2 .6 2.3-.7.2-.6 1.4.5 3.6 1.8 3.6 1.2 5.6-1.6 4.9-2.1-.6-2.5 1.6-1 5.6 1 2.6 4.3 4.5 4.9 2.8.5-1.6 2.2-1.3 2.2.3 0 .8.7 1.6 1.5 2 .8.3 1.5.1 1.5-.5 0-.7 1-.9 2.5-.5 2.1.5 2.5.3 2.5-1.5 0-1.5.4-1.9 1.6-1.5.9.3 2.1.6 2.9.6.7 0 1.5 1 1.8 2.2.6 2.1.7 2.1 2.6.4 1.3-1.2 2.9-1.7 4.7-1.3 3.3.6 5.9-1.4 4.1-3.2-.8-.8-.8-1.4-.2-1.9 1.5-1.1 1.8-6.1.4-7.8-1-1.2-.9-1.8.4-3.2 1.6-1.5 1.9-1.4 4.6 1.2 1.7 1.6 3.3 4.2 3.7 5.8.5 2.3 1.7 3.5 5.3 5.1 2.5 1.2 6 2.3 7.6 2.4 1.7.1 5.7.7 9 1.3 3.3.5 6.6 1.1 7.3 1.2.6.1 1.2.7 1.2 1.5 0 .7 1.3 1.6 3 1.9 2.9.6 3 .8 2.7 6-.1 3-.6 5.4-1.2 5.4-.5 0-.4.4.3.9 1 .6 1.1 1.3.1 3.4-1 2.3-.9 3 .7 4.8 1.5 1.7 2.6 2 5.9 1.5 2.2-.3 6.6-.9 9.8-1.2 3.1-.4 6-1 6.3-1.5.2-.5 1.9-.6 3.5-.2 2.1.4 3.4.1 3.9-.7 1-1.6 8.2-4 11.9-4 3.1 0 9.1-2.1 9.1-3.2 0-.4.5-.8 1-.8 1.4 0 1.2 2-.5 5.3-1.3 2.5-1.3 3.1.1 5.3.9 1.3 1.4 3 1.1 3.8-.4.9 0 1.2 1.3.9 1-.3 2.9.2 4.2 1.1 3.2 2.2 3.8 2 3.8-1.3 0-1.6.7-3.7 1.5-4.5.9-.9 1.5-2.4 1.3-3.3-.2-1.5.3-1.8 3.4-1.5 3.2.2 3.6 0 3.1-1.7-.5-1.8-.1-1.9 2.9-1.5 5.1.9 6.6-1.5 3.3-5.1-2.4-2.5-2.5-2.8-.9-4 1.7-1.2 1.6-2-1.1-8.8-.4-1-.3-1.7.4-1.7 2.2 0 4.9-3.5 5.6-7.3.4-2.1 1.5-4.3 2.5-5 1.3-.9 1.6-1.7.9-2.7-2.1-3.4-.7-11.6 2.2-12.3 2.5-.7 2.4-2.4-.1-3.2-1.1-.3-2.3-1.7-2.6-3.1-.7-2.6-2-3.2-2.7-1.2-.2.7-.8-.1-1.2-1.7-1.3-5.6-1.4-5.8-2.9-4.6-1.1.9-1.3.6-1.3-1.4s.2-2.3 1.3-1.4c1.1.9 1.4.7 1.4-1.1 0-1.9.2-2 1.5-1 .8.7 1.5.8 1.5.3 0-1.4-4.6-3.6-5.9-2.9-.6.4-2.1 0-3.3-.8-3.4-2.4-5.6-2.1-3.3.4 1 1.1 2.5 2 3.3 2 .9 0 1.2.6.8 1.6-.3.9-.6 2.2-.6 3 0 2.1-2.1 1.7-2.7-.5-.3-1.1-1.1-2.2-1.9-2.5-.7-.3-1.1-1.2-.8-2.1.3-.8.2-1.5-.4-1.5-.6 0-1.7-.3-2.5-.6-1-.3-1.7.2-2 1.3-.4 1.6-.6 1.6-1.2-.4-.4-1.2-1.8-2.4-3.1-2.7-1.4-.4-2.9-1.7-3.5-2.9-.6-1.3-1.9-2.7-2.9-3.2-6.5-3.4-11.2-5.3-16.5-6.5-6.3-1.4-11.7-5.2-11.3-7.9.2-.9-.4-1.6-1.2-1.6-3.1 0-6.1-2.6-5.8-4.8.2-1.7-.6-2.6-3.1-3.9-1.9-.9-5.3-3.5-7.6-5.8-2.2-2.2-4.8-4-5.8-4-.9 0-1.7-.7-1.7-1.5s-.4-1.5-1-1.5c-.5 0-1-1.5-1-3.3 0-3-.5-3.5-6.2-6.4-5.4-2.8-6.5-3-7.4-1.8-1 1.3-1.6 1.3-5-.1-3.9-1.5-8.2-6.8-6.4-7.9.9-.6.7-2-1-6-.5-1.1-1.1-2.8-1.4-3.8-.3-1-1.5-1.7-3-1.7-1.3 0-2.6-.7-3-1.5-.3-.8-1.3-1.5-2.2-1.5-.9 0-2.8-.9-4.3-1.9l-2.7-2-1.1 5c-.5 2.7-.6 5.2-.1 5.5.4.3.8 2.9.8 5.9 0 4.4-.4 5.7-2.2 7-2.2 1.5-2.4 1.4-4.1-.7-1.2-1.4-1.5-2.4-.8-2.6.6-.2.8-.9.4-1.5-.9-1.5-1.1-10.7-.2-10.7.4 0 .6-1.5.5-3.3-.1-2.6.3-3.3 2.2-3.5 1.2-.2 2.2-.8 2.2-1.3s-.6-.9-1.2-.8c-3.2.4-4.6-.3-5.3-2.4-.8-2.1-.8-2.1-1.2.5-.2 1.6-1.1 2.8-1.9 2.8-2.1 0-2.9-2.9-1.2-4.3.8-.7 2.5-3.5 3.7-6.4 2.1-4.6 2.3-5.8 1.4-10.4-1.1-5.5-.2-8.9 2.5-8.9 1.1 0 3.7-4.8 2.9-5.6-.7-.8-10.5-1-14.2-.3-2.6.5-5.1.3-7.2-.6-3.3-1.4-3.3-1.4-3.3 1.6 0 2.2-.5 2.9-2 2.9-1.1 0-2-.6-2-1.3 0-.8-.4-.7-1 .3-.7 1.2-1.3 1.2-2.7.4-1-.6-1.8-1.7-1.8-2.4s-1.1-1.4-2.4-1.5c-1.4-.1-2.7-.7-2.9-1.3-.5-1.7-2.4-1.4-4.9.7zm31.7 13.8c0 .7-.7 1.3-1.5 1.3-.9 0-1.2.6-.9 1.5 1.1 2.7-.4 1.6-2.4-1.9-2.5-4.2-1.2-6.4 2.4-3.8 1.3.9 2.4 2.3 2.4 2.9zm-58 24.4c0 .5-.4.9-1 .9-.5 0-1-.7-1-1.6 0-.8.5-1.2 1-.9.6.3 1 1 1 1.6zm53 2.9c0 .5-.4 1-1 1-.5 0-1-.5-1-1 0-.6.5-1 1-1 .6 0 1 .4 1 1zm5 10.2c0 1.9-.2 2-1 .8-1.3-1.9-1.3-3 0-3 .6 0 1 1 1 2.2zm-1 3.9c0 .5-.4.9-1 .9-.5 0-1-.7-1-1.6 0-.8.5-1.2 1-.9.6.3 1 1 1 1.6zm-7 4.8c0 .4-.8 1.4-1.8 2.2-2.3 2-6.2.8-6.2-1.8 0-1.6.7-1.8 4-1.5 2.2.2 4 .7 4 1.1zm22.1 10.7c.9 1.1.8 1.8-.1 2.9-.6.8-.9 2.3-.5 3.5.4 1.1.2 2-.4 2-.6 0-1.1.5-1.1 1.1 0 .5.4.8 1 .4.5-.3 1.6.8 2.5 2.4 1.8 3.7 2 10.1.3 10.1-2-.1-6-3.8-5.4-4.9.4-.5.2-1.2-.4-1.6-.5-.3-1-1.3-1-2.2 0-.9-1-2.7-2.2-4l-2.1-2.3 2.3-2.5c1.4-1.4 2.1-3.2 1.8-4.3-.4-1.5 0-2 1.8-2 1.3 0 2.9.7 3.5 1.4zM503.387 239.796c-.3.5.2 2.1 1 3.6.7 1.6 1.4 3.6 1.4 4.5 0 1.2.2 1.3.9.3.6-1 1-1 2 .2.8 1 .9 1.6.1 2.1-1.5.9.7 4.5 2.8 4.5 1.4 0 1.4.2.3.9-.8.5-2.1.7-2.9.3-1-.3-1.3-.1-.8.6.4.7 1.5 1.2 2.5 1.2.9 0 2.2.5 2.8 1.1 1.5 1.5 2.8-.7 1.5-2.4-.5-.7-.7-2.6-.5-4.4.5-3.2.5-3.2 3.4-1.8 1.5.8 3.8 1.5 5 1.5 2.1 0 2.2-.1.4-2-1-1.1-2.3-3-2.9-4.2-1.7-3.3-4.2-4.5-6.6-3.1-2 1.3-5 .8-5-.8 0-.5-.7-.9-1.5-.9s-1.5-.5-1.5-1c0-1.2-1.7-1.3-2.4-.2zM297.787 241.096c0 .5.9.9 2 .9s2-.2 2-.4-.9-.6-2-.9c-1.1-.3-2-.1-2 .4zM524.187 254.496c.3.8.1 1.7-.4 2-1.1.7 1.8 7.5 4.2 9.8.9.9 2.4 1.4 3.2 1.1 1.3-.5 1.6.2 1.6 3.4 0 4.1 1.3 6.2 2.5 4.2.4-.6 2.1-.8 4.1-.4 2.2.4 3.4.2 3.4-.5 0-.6.9-1.1 1.9-1.1 1.9 0 1.9-.2-.3-6.3-1.8-5.1-2.6-6.3-4.6-6.5-1.4-.2-3.2-1-4.1-1.8-.9-.8-4-2.3-6.9-3.4-4.1-1.5-5.1-1.6-4.6-.5z"/><path d="M436.787 264.796c-5.8 2.7-7.9 6.1-3.5 5.8 1.4 0 2.5-.6 2.5-1.3 0-.6.8-.9 1.9-.6 1.5.4 1.8 0 1.4-2.1-.3-1.4-.6-2.6-.7-2.5 0 0-.8.3-1.6.7zM388.787 271.696c-.9 3.1-1 5.1-.3 6.1 1.6 2.6 3.3 2.6 3.1 0-.2-1.7.3-2.4 2-2.6 1.2-.2 2.2-.5 2.2-.7 0-1.7-2.3-5.6-3.8-6.4-1.6-.8-2-.4-3.2 3.6zM379.887 274.596c0 1.1.3 1.4.6.6.3-.7.2-1.6-.1-1.9-.3-.4-.6.2-.5 1.3zM530.287 274.996c-.3.5-.1 1 .4 1 .6 0 1.1-.5 1.1-1 0-.6-.2-1-.4-1-.3 0-.8.4-1.1 1zM379.787 277.396c0 .2.7.7 1.6 1 .8.3 1.2.2.9-.4-.6-1-2.5-1.4-2.5-.6zM534.787 279.496c0 .9-1 1.9-2.2 2.4-1.9.7-1.9.8-.4 1.4 1 .4 1.4 1.1 1.1 1.7-.3.5.1 1 1 1 1.1 0 1.5-.5 1.2-1.5-.4-.8-.2-1.7.3-2 1.3-.8 1.3-4.5 0-4.5-.5 0-1 .7-1 1.5zM531.787 287.996c0 .5.5 1 1 1 .6 0 1-.5 1-1 0-.6-.4-1-1-1-.5 0-1 .4-1 1zM427.787 356.996c0 .5.5 1 1.1 1 .5 0 .7-.5.4-1-.3-.6-.8-1-1.1-1-.2 0-.4.4-.4 1zM611.387 357.896c-.3.5.1 1.2 1 1.5 2.4.9 3.1.7 3.1-.9s-3.2-2.1-4.1-.6zM453.287 409.996c-.3.5-.2 1 .4 1 .5 0 1.3-.5 1.6-1 .3-.6.2-1-.4-1-.5 0-1.3.4-1.6 1zM544.787 441.496c-.7.8-2.8 1.5-4.7 1.5-3.3 0-3.4.1-1.9 2.2 2.7 3.8 2.1 5.8-1.8 5.8-4 0-6.4 2.3-4.7 4.4 1 1.1.9 2.2-.4 4.7-1.6 3-1.6 3.3.4 5.2l2 2.1-2.6 2.4-2.6 2.4 2.3 1.8c2.7 2 6.4 1.3 8.5-1.7 1.1-1.5 1.5-1.4 3.9 1.3 1.4 1.6 2.8 4 3.2 5.4.9 4.3 2.1 5.5 5.2 5.5 2.4 0 3.2.6 4.1 3.2.8 2 1.7 3 2.5 2.7.7-.3 1.6.2 1.9 1 .4.9 1.2 1.6 1.8 1.6.7 0 .9-.3.6-.6-.4-.4.8-1.4 2.6-2.3 2.3-1.1 3.2-2.3 3.2-4 0-1.3.7-2.6 1.5-2.9.8-.3 1.2-.1.8.3-.4.4 0 2.1.8 3.7 1.4 2.7 1.9 2.9 4.7 2.4 1.8-.4 3.3-1 3.5-1.5.1-.4 1.4-.6 2.8-.3 1.9.3 2.3.9 1.8 2.5-.5 1.6-.3 1.9 1 1.4 1-.4 2 .1 2.6 1.3.9 1.6.8 2-.5 2-2 0-2 2.6.1 3.4 1 .4 1.3 1.3.9 2.5-.3 1.1 0 2.3.7 2.7.6.4 1.4.2 1.6-.4.2-.6 1.9-1.4 3.8-1.8 2-.4 4.4-1.8 5.9-3.6 2.3-2.7 2.4-3.3 1.2-5.1-1.4-2.2-1.5-2 4-8 .9-.9 2.7-1.7 4-1.7 1.6 0 2.3-.6 2.3-2 0-1.1.5-2 1-2 2.1 0 .9-3.4-2.5-7.1-1.9-2.2-3.5-4.8-3.5-5.9 0-1.7-.5-1.9-2.4-1.4s-2.5.1-3.1-1.8c-1.5-5.4-3.9-9.8-4.6-8.6-.5.8-1.7.3-4-2-3.7-3.6-4.4-3.8-5.3-1.7-.3.8-1.4 1.5-2.5 1.5s-2.2.4-2.5.9c-.7 1 2.2 7.1 3.3 7.1.4 0 .8 3.5.9 7.7.2 7.6.2 7.8-2.5 9.1-4.6 2.2-9.3 3.1-9.5 1.8 0-.6-.2-1.6-.3-2.1-.2-.6-.3-1.8-.4-2.8 0-.9-.7-1.7-1.3-1.7-.9 0-1.3 1.4-1.2 4 0 2.3-.3 4.3-.8 4.6-.4.3-.8-.4-.8-1.6 0-1.1-.7-2.3-1.5-2.6-2.3-.9-1.9-5.4.5-5.4 1.1 0 2-.2 2-.5s-.9-1.4-2-2.5-2-2.9-2-4.1c0-1.3-.8-2.3-2.1-2.6-1.1-.3-2.5-1.6-3-2.9-.6-1.7-2.2-2.7-5.3-3.6-2.7-.7-5.3-2.2-6.4-3.7-2.5-3.5-3.3-5.9-2.2-6.6 1.5-.9 1.2-4.5-.4-4.5-.7 0-1.9.7-2.6 1.5zm54 43.4c0 1.8-1.7 2-3.6.6-1.8-1.4-1.8-1.4.9-1.5 1.5 0 2.7.4 2.7.9zM586.787 444.996c-1.2.7-1.2 1.2-.3 2.1 1.5 1.5 2.6.7 2.1-1.5-.2-1.1-.7-1.3-1.8-.6z"/><path d="M567.287 460.996c.3.5 1.1 1 1.6 1 .6 0 .7-.5.4-1-.3-.6-1.1-1-1.6-1-.6 0-.7.4-.4 1zM521.087 474.796c-.7.4-.9 1.3-.5 1.9.9 1.5 5.4.5 4.9-1.1-.5-1.4-2.8-1.8-4.4-.8zM527.287 474.996c.3.5.8 1 1.1 1 .2 0 .4-.5.4-1 0-.6-.5-1-1.1-1-.5 0-.7.4-.4 1zM571.287 491.996c-.3.5-.1 1 .4 1 .6 0 1.1-.5 1.1-1 0-.6-.2-1-.4-1-.3 0-.8.4-1.1 1zM591.787 503.796c0 .5.7 1.3 1.6 1.6 1 .4 1.4.1 1.2-.6-.5-1.5-2.8-2.3-2.8-1z"/></g></svg>