<svg version="1" xmlns="http://www.w3.org/2000/svg" width="868.22" height="1384.556" viewBox="0 0 651.165 1038.417"><g fill="#222"><path d="M25.764.664c-1.9.7-1.6 1.8 1.2 5.1 2 2.4 2.3 3.4 1.6 6-.5 1.7-2.1 4.4-3.5 5.9s-2.6 3.1-2.6 3.4c0 .4-1.3 1.2-3 1.8-2.2.7-3 1.6-3 3.4 0 2.4-.2 2.4-6.3 2.2-3.4-.1-7.2-.7-8.3-1.3-1.7-.9-1.9-.7-1.8 1.6 0 1.5.6 2.7 1.3 2.7.6 0 1.5.5 1.9 1.1 1 1.5 6.2 2.7 6.2 1.4 0-.6 1.1-.3 2.5.6 1.4.9 2.5 2.6 2.5 3.8.1 3.7 2.1 5.2 6.8 5.1 2.3-.1 4.2.2 4.2.6 0 .5 1.3 0 3-.9 1.8-1 3-2.5 3-3.8 0-2 4-7.7 4-5.8 0 .5.4.3.9-.5 1-1.6 4.7-.7 5.5 1.4.3 1-.1 1.5-1.4 1.5-2.1 0-4 2.8-4 5.9 0 1.2-.7 2.1-1.5 2.1-1.9 0-1 5.7 1.4 8.3.9 1.1 1.4 3 1.3 4.4-.2 1.3.2 3.1.8 3.8 1.7 2.1-1.4 3.2-3.6 1.4-1.5-1.2-1.6-1-1 1.9.6 2.3.4 3.2-.5 3.2-.7 0-1 .3-.7.6.4.3 2-.2 3.7-1 4.3-2.3 7.6-2 9.4.7.9 1.5 2.5 2.3 3.9 2.3 1.8-.1 2.3.4 2.3 2.3 0 1.3.6 2.6 1.4 2.9.8.3 1.1 0 .7-.7-.9-1.4 0-1.4 2.4-.1 1 .5 2.4 2.6 3 4.5.6 1.9 1.6 3.5 2.1 3.5s.9.6.9 1.2c.1.7 1.3 2.2 2.7 3.3 1.4 1.1 3.8 3.3 5.3 4.8 2 2.1 3.8 2.9 6.4 3 3.2.1 3.6.4 3.2 2.2-.3 1.1-.1 2.7.4 3.5.5.8.5 2.1 0 3-.6 1.1-.4 2.4.5 3.7.8 1.1 1.1 2.3.8 2.7-.3.3-.2.6.3.6.6 0 1.5-.5 2.1-1.1.7-.7 1.7-.7 2.9-.1 1.1.6 2.7 1.3 3.6 1.6 1.1.3 1.5 1.1 1.2 2-.4 1.1 0 1.3 1.6.9 1.8-.5 2.1-1.1 1.7-3.2-.8-4 .7-5.8 2.1-2.6 1.4 2.9 2.7 3.2 4.1.8.9-1.6 1.2-1.5 3.9 1.2 2.1 2 2.7 3.4 2.1 4.1-.7.8-.1 1.9 1.7 3.3 1.5 1.2 3 2.1 3.4 2.1.3 0 2.6-1.7 4.9-3.7 3.7-3.1 4.6-3.5 6.3-2.4 2.3 1.4 3.8.7 3.8-2 0-1 .5-1.9 1-1.9.6 0 .1-1.8-1-4s-1.8-4-1.6-4c1.6 0 5.6 2.5 5.6 3.5 0 .6 1.1 1.7 2.5 2.3 2 .9 3.1.8 5.8-.8l3.4-2 6.1 3.1c7.1 3.5 11.2 3.3 13-.6.8-1.8 1.8-2.3 3.9-2.2 2 .1 2.7-.2 2.5-1.4-.3-2.1 3.7-6.2 5.4-5.5 1.9.7 2.8-1.8 1.6-4.1-.8-1.3-.7-2.2.4-3.4 1.3-1.4 1.3-1.8 0-2.8-1.3-1.1-1.2-1.5.5-3.2 1-1 1.9-2.5 1.9-3.3 0-1.1.7-1.3 3-.6 2.1.6 3 .5 3-.3s.4-.7 1.2.1c1 1 1 1.5-.1 2.1-1.1.7-.9 1.3.8 3 1.2 1.2 2.6 1.9 3.1 1.6 1-.6 5.4 3.5 6.3 5.9.4.9 1.3 1.6 2 1.6.8 0 2 .7 2.7 1.5.6.8 2.2 1.3 3.3 1.2 1.6-.1 2.3.4 2.5 2 .2 1.3 1.1 2.8 2 3.5 3.1 2.3 1.6 12.8-1.7 12.8-1 0-2.4.7-3.2 1.6-.7.8-2 1.3-3 1.1-1.3-.3-1.6 0-1.2 1.1.4.9.2 1.3-.3.9-.6-.3-3.6-.2-6.7.2-3.9.5-6.6.4-8.6-.5-3.4-1.4-4.6-.5-3.6 2.6.4 1.4.2 2-.9 2-1 0-1.3.6-1 1.7.3 1-.8.2-2.4-1.7-1.7-1.9-2.8-3.9-2.4-4.5.3-.5-.1-.4-1 .3-.8.7-1.8 3.1-2.2 5.3-.9 5.3-7.8 12.1-11.5 11.2-1.8-.4-2.2-.3-1.6.7.6 1 .4 1.2-.9.7-1-.4-2.7 0-3.9.8-1.6 1.1-1.7 1.5-.6 1.5.9 0 2.6 1.1 3.9 2.5 2.3 2.5 6 3.4 6 1.5 0-.6.7-1 1.5-1s1.5-.5 1.5-1c0-.6 1.4-1.7 3.1-2.4 1.9-.8 2.7-1.6 2-2-2.3-1.5-1-2.7 2.6-2.4 2.7.3 3.7.9 3.8 2.3.2 1.1.6 2.8 1 3.7.4 1.1.3 1.8-.5 1.8-.6 0-.8.5-.5 1.1.4.6-.3 2.1-1.5 3.4-2 2.2-2.1 2.5-.6 5.3.9 1.7 2.8 4 4.3 5.2 2.2 1.7 2.5 2.3 1.3 3-1 .6-1.1 1-.3 1 .7 0 1.7-.8 2.2-1.8 1-1.6 1-1.6 1.1.1 0 1 .5 1.5 1.1 1.2.5-.4 1.9.1 2.9 1 2.6 2.4 5.5.2 7.1-5.3 1.1-4.1 1.1-4.6-.7-6.1-1.9-1.6-4.8-6.7-4.9-8.6 0-.6-.2-1.2-.5-1.5-.3-.3-1.1-1.5-1.8-2.8-1-1.8-1-2.2.3-2.2 1.8 0 3.5 3.1 3.5 6.3 0 3.8 6.9 9.1 10.7 8.1 1.1-.3 2.5.1 3.2 1 1.8 2.1 3.5 2 2.7 0-.5-1.4-.1-1.6 2.8-1.1s3.4.3 2.9-1-.3-1.3 1.5-.4c1.2.7 2.2 1.5 2.2 1.9 0 .4 1.5 1.2 3.3 1.8 1.8.5 3.1 1.5 2.9 2.3-.9 4.1 2 5.8 11.2 6.6 1 .1 2.4.8 3 1.6.6.8 2.5 2.2 4.1 3.1 2.1 1.2 3 2.5 3 4.2 0 1.3.3 2.8.7 3.2.4.4.3 1.3-.3 2-.7.9-.6 2 .6 3.8 1.4 2.1 2.2 2.4 5.3 1.9 2-.3 3.8-.6 3.9-.7 0-.1-.1-2.2-.4-4.9-.3-2.8-1.1-4.7-1.8-4.7s-1.6-.7-1.9-1.6c-.9-2.4-.8-2.6 1.4-1.4 1.2.6 2.8 1 3.8.9 3.8-.3 5.2.2 5.2 2 0 1 .7 2.4 1.5 3.1 2 1.7 1.9 3.2-.5 6.3-1.3 1.6-2.7 2.3-3.8 2-2.7-.7-9.5 9.9-9 13.9.3 1.6.1 3.1-.4 3.4-1.6 1 1.3 4.4 3.7 4.4 2.2 0 2.5.4 2.5 3.6 0 1.9.5 4.4 1 5.5 1.1 2 5 2.7 5 .7 0-.6.8-.4 1.9.6 1.2 1.1 1.7 2.5 1.3 3.4-.5 1.5-.3 1.5 1 .4 1.9-1.5 2.4-.9 3.7 4.9.7 2.9.6 4.7 0 5.6-.7.8-.7 1.8.1 3.2.6 1.2 1 2.7.9 3.4-.1.6 0 1.9.4 2.7 1.4 3.8 1.4 7.7-.1 10.5-3.2 6.1-.9 13.5 4.1 13.5 1.1 0 2.8.7 3.8 1.6 1.6 1.4 1.9 1.4 3.6-.3 2.9-2.9 6.1-2.4 6.9 1.1.4 1.8.2 3.2-.4 3.4-1.6.5-.2 4 2.4 5.7 1.4.9 2.2 2 1.9 2.5-1.3 2.2 1.6.8 3-1.4 1.1-1.6 2.8-2.5 5.7-2.9 2.2-.3 4.4-1.1 4.8-1.7.6-.9 1.3-.9 2.8.1 1.7 1.1 2.4 1.1 3.4.1 1.4-1.4 7.4-1.6 8.2-.3.3.4 2 1.1 3.7 1.5 1.7.3 4.4 1.5 5.9 2.6 2.4 1.7 4.1 2 10.4 1.7 7.1-.4 10.6-1.8 10.6-4.5 0-1.8 4.4-2.2 6.2-.5 1.3 1.2 2.2 1.3 2.9.6.8-.8 1.7-.5 3 .8 1.1 1.1 2.4 1.7 3 1.3.6-.4.2-1.2-1-2.1-2.4-1.6-2.8-3.5-.6-2.7.8.4 3.1-.1 5-1 2.6-1.2 3.5-2.3 3.5-4.1 0-1.3-.4-2.7-1-3-.5-.3-1-1.6-1-2.8 0-2.3-5.6-7.7-7.9-7.7-1.5 0-7.1-4.8-7.1-6.1 0-.4.9-.5 1.9-.2 1.1.3 2.8 0 3.8-.6 1.2-.8 1.3-1.1.3-.9-.8.1-2.7-1-4.2-2.5s-3.7-2.7-4.9-2.7c-1.4 0-1.9-.5-1.6-1.4.3-.8-.3-2.6-1.4-4-2-2.6-2-2.6 0-7.1 1.1-2.5 2.4-4.5 2.9-4.5 1.7 0 7.4-5.9 6.7-6.9-.3-.6.1-1.1.9-1.1.9 0 1.6-.6 1.6-1.4 0-.8.7-1.6 1.5-2 1.2-.4 1.1-1.2-.9-5l-2.4-4.5 5.2-.3c5.2-.3 5.8-1 4.1-5-.5-1.3-.2-1.5 1.4-1.1 1.4.3 2.3 0 2.7-1.1.3-.9 1.4-1.6 2.4-1.6s2-.9 2.3-2c.3-1.2 1.4-2 2.6-2 1.6 0 2.1-.6 2.1-2.8l.1-2.7 1.8 2.2c1.3 1.6 3 2.3 5.3 2.3l3.3-.1-3-2.4c-2.6-2.2-2.7-2.5-1-2.5 1.8-.1 1.7-.4-1-2.9-1.6-1.5-3.5-3.6-4.1-4.7-.7-1-2-1.8-3-1.7-1.1.1-2.3-.5-2.7-1.3-.6-1-1.2-1.2-2-.5-1.5 1.2-11.3-1.2-13.7-3.4-.9-.8-2.3-1.5-3.2-1.5-.8 0-2-1.1-2.7-2.4-.7-1.3-2.4-2.9-3.7-3.5-1.3-.6-2.4-1.5-2.4-1.9 0-.5-2.6-2.2-5.9-3.7-6.4-3.1-9.8-7.6-9.3-12.6.6-5-2.3-6.6-12-6.6-4.7 0-9.1-.3-9.7-.7-.6-.4-1.1-1.8-1.1-3.2 0-2.5-1.1-3.8-7-7.7-1.9-1.2-3.6-3.3-3.8-4.5-.3-2.1-.4-2.1-3.4-.6-2.8 1.5-3.1 1.4-4.5-.6-1.1-1.6-1.8-1.8-2.8-1-.7.6-1.7 1-2.1.9-.5-.1-1.6.1-2.5.5-2.2 1-7.5-1.2-6.2-2.5 1.5-1.5-1.8-7.9-5.7-10.7-2.9-2.2-3.2-2.3-4.4-.7-.8 1.2-2.8 1.8-5.8 1.9-4.5.1-4.9.6-3 4.1.3.5.7 2.1.8 3.4.2 1.4.9 3 1.7 3.6.8.5 1.3 1.9 1.1 2.9-.1 1.1.1 3.9.5 6.2.5 2.5.4 4.7-.1 5.2-.6.6-.4 1.8.5 3.3 1.9 3 2.2 5.3 1.2 10.7-.7 3.7-1.1 4.3-2.7 3.8-4.6-1.1-8.1 2.5-9.3 9.6-.3 2.1-1.7 5-3.1 6.5l-2.5 2.8.5-3.5c.2-1.9.8-4.7 1.1-6.3.6-2 .4-2.7-.7-2.7-.8 0-2.5-1.2-3.9-2.6-1.3-1.4-3.4-3-4.7-3.5-1.2-.5-2.1-1.3-2-1.7.4-1.4-7.9-10.2-9.6-10.2-.9 0-1.6-.5-1.6-1 0-1.2 2-1.3 3.9-.1s4.1.3 3.4-1.5c-.3-.9.2-1.4 1.5-1.4 1.5 0 2.2-.9 2.7-3.1.4-1.7 1.3-3.3 2-3.5.7-.3 1.1-1.3.9-2.2-.3-.9.5-3.1 1.6-4.7 1.1-1.7 2-2.5 2-1.8s.7 1 1.7.6c1.4-.5 1.3-.8-.5-1.4-1.2-.5-2.2-1.3-2.2-1.8 0-1.3 4.1-2.1 6.8-1.4 2.1.5 2.2.3 1.6-2.1-.9-3.8.3-7.9 2.3-7.2 1.1.5 1.4.2.9-1-.3-.8-.6-2-.6-2.5 0-.6-.8-.6-1.9.1-1.6.8-2.5.3-5.6-3.3-2.8-3.2-3.3-4.3-2.1-4.5 2-.4 2-2.1.1-4.9-1.3-1.9-1.3-2.1.5-2.6 3-.8 2.8-8-.2-10.1-1.2-.9-2.7-2.5-3.4-3.7-.9-1.8-.8-2.5.7-4 3.5-3.5.8-12.4-3.6-12.4-2 .1-4.4-2.8-4.5-5.3 0-.6.6-1.2 1.4-1.2 1.1 0 1.2-.8.6-3.6-1-4.2-2.4-6.1-3.4-4.5-.9 1.4-3.6.2-3.6-1.5 0-.8.7-1.4 1.5-1.4 2.1 0 1.9-1.8-.4-2.5-3-.9-3.5-3.5-.7-3.5 4.1 0 8.5-2 7.9-3.6-.7-2 1.7-4.6 3.8-4.1 1.5.4 1.9-.3 2.1-3.7.5-6.8-2-10.6-4.6-7.1-1.8 2.5-5.6.8-5.6-2.5 0-1.6-.7-3-1.6-3.4-.8-.3-1.2-.2-.9.4.9 1.4-.5 5.1-1.6 4.5-.5-.4-1.2.1-1.5.9-.8 2-4 2.1-4.8.1-.3-.9-1.7-1.5-3.3-1.5l-2.8.1 3.3 2.8c3.6 3.1 3.6 6.7 0 5.8-1.4-.4-1.8-.1-1.4.9.3.9-.1 1.4-1.3 1.4-2.6 0-4.6 4.2-3.2 6.8.6 1.1 1.1 2.3 1.1 2.5 0 .6-6.8 1.8-10.4 1.8-1.6 0-3.5.4-4.2 1-.7.6-3.7 1.1-6.6 1.2-5.2.2-5.3.2-5.3 3.4 0 4-.8 4.7-3.6 3.3-2-1.1-2.1-1-1.4.6 1.3 2.9.8 6.5-1.4 11.6-1.9 4.6-2 4.7-5 3.5l-3.1-1.1 2.3-2.4 2.2-2.3-4 .3c-4.6.3-5.4 2.1-3.4 6.8.9 1.9 2.2 3 3.9 3.2 1.5.2 2.6 1 2.8 2.2.3 1.4 0 1.7-1.2 1.3-.8-.3-1.8-.2-2.1.4-.4.5-1.9.8-3.4.7-2-.1-2.7-.7-2.6-2.2 0-1.2.4-2.7.9-3.4 1.2-2-.4-3-1.7-1.1-.7.9-1.8 1.4-2.4 1.2-.7-.3-1.3 0-1.3.6s-.8.8-1.7.4c-2.6-.9-6.3-4.5-5.7-5.4.3-.5-.1-.9-.9-.9s-1.8-.7-2.1-1.6c-.5-1.3-.9-1.4-2.1-.4-1.2 1-1.5 1-1.5-.2 0-1.9-3.9-5.4-6.9-6.1-1.3-.3-3.3-.1-4.5.5-1.1.6-2.8 1.4-3.6 1.8-1.8.9-11.6-6.7-12.4-9.6-.3-1.2-1.9-2.7-3.6-3.4-1.6-.7-3.5-1.8-4.1-2.6-.6-.8-2.1-1.4-3.3-1.4-1.1 0-3.2-.9-4.6-2-1.4-1.1-3.1-2-3.9-2-.8 0-1.1-.3-.8-.6.3-.4.2-1.5-.4-2.6-.7-1.3-.7-2.3 0-3.2 1.3-1.6-.5-7.5-2.8-9.3-1.3-.9-1.7-.8-2.3.5-.4.9-.7 1.1-.7.4-.1-.6-.6-1.2-1.1-1.2-.6 0-2-.9-3.2-2-1.2-1.1-1.8-2-1.4-2 .5 0 .3-.6-.3-1.4-.6-.7-2.6-1.3-4.4-1.3-1.7 0-4.5-.6-6.1-1.2-1.6-.6-3.1-.9-3.4-.7-.2.3-1.3.1-2.3-.4-2.4-1.3-6.9.7-6.9 3.1 0 1.3-1.3 2-5 2.8-4.9 1.1-8 .7-8-1 0-.5-1-.9-2.3-.9-1.3 0-2.8-.5-3.4-1.1-.7-.7-3-1.2-5.3-1.2-2.2 0-4.3-.4-4.6-.8-.3-.5-1.6-.9-2.9-.9-1.4 0-2.9-.9-3.5-2-1-1.9-4.7-2.6-7.7-1.3zm164.5 68.1c.6 1.8-1.5 1.4-2.2-.4-.4-1-.1-1.4.6-1.2.6.2 1.4 1 1.6 1.6zm21.7 28.2c.3.5.1 1-.4 1-.6 0-1.1-.5-1.1-1 0-.6.2-1 .4-1 .3 0 .8.4 1.1 1zm51.9 93.3c-.6 1.7 2.3 4.2 5.9 5.1 2.3.5 2.7 1.1 2.2 2.7-.4 1.1-.1 2.6.5 3.4.9 1.1.9 2.2-.1 5-1.5 4-3.5 4.5-4.9 1.2-.5-1.3-.9-1.6-1-.7 0 1-.3 1.1-.8.4-.4-.6-1.5-1.3-2.5-1.7-1-.4-1.6-1.1-1.2-1.6.3-.6-.2-1.4-1.1-1.9-1.4-.8-1.6-1.9-1.1-6.1.3-2.8.9-5.6 1.2-6.1.9-1.5 3.5-1.2 2.9.3zm11.3 25.3c-.3.3-1.2.4-1.9.1-.8-.3-.5-.6.6-.6 1.1-.1 1.7.2 1.3.5z"/><path d="M204.664 9.664c-.5 1-.7 2.4-.5 3 .6 1.6 0 1.6-4.2-.1-2.5-1.1-3.5-1.1-3.9-.3-.2.7-.5.4-.5-.6-.1-2.6-2.1-1-2.1 1.7 0 3.7-1.9 4.8-5.2 2.8-1.5-.9-2.8-2.2-2.8-2.8 0-2.5-4.1-2.7-9-.6-2.4 1-2.4 1.1-.2 1.1 1.2.1 2.2.6 2.2 1.2 0 .5.8.9 1.8.8 2.3-.4 6.2 1.8 6.2 3.5 0 .7.9 2.1 2 3.1 1.5 1.4 1.7 2.1.8 3.2-.8 1.1-.6 1.9 1.2 3.8 2.6 2.8 4 3.2 4 1.1 0-.7.6-1.9 1.4-2.6.8-.6 1.6-2.6 1.8-4.3l.3-3.2 3.8 5.6c3.2 4.9 4 5.6 6.3 5.1 2.2-.4 2.4-.6 1-1.4-.9-.5-1.4-1.4-1-2 .3-.5 0-2.1-.7-3.5-1.7-3.2-.1-5.8 3.6-5.8 1.6 0 3.4-.9 4.7-2.5l2-2.5-2.1-.3c-1.1-.2-2.8-1.3-3.6-2.5-.8-1.2-1.5-1.6-1.5-.9 0 .9-.7.8-2.4-.3-2.3-1.5-2.5-1.5-3.4.2zm-13.2 10.3c0 .5-.4 1-.9 1-.6 0-1.3-.5-1.6-1-.3-.6.1-1 .9-1 .9 0 1.6.4 1.6 1zM169.264 14.664c.7.3 1.6.2 1.9-.1.4-.3-.2-.6-1.3-.5-1.1 0-1.4.3-.6.6zM237.464 36.964c0 .5.5 1 1 1 .6 0 1-.5 1-1 0-.6-.4-1-1-1-.5 0-1 .4-1 1zM138.464 135.864c0 .5.8 1.9 1.8 3.1 1.4 1.7 2.3 2 4.5 1.5l2.7-.7-2.5-2.4c-2.6-2.4-6.5-3.3-6.5-1.5zM239.164 168.564c.6 1.5 2.3 1.9 2.3.5 0-.5-.7-1.1-1.4-1.4-1-.4-1.3-.1-.9.9zM410.164 217.264c-.4 3.1.5 4.7 3.1 4.7 1.8 0 1.5-2.8-.7-5.6l-1.9-2.4-.5 3.3zM407.164 222.964c.4 2.3.2 3-1.1 3-2.3 0-2 2.7.5 3.3 1.5.4 1.9 1.1 1.5 2.5-.4 1.3-.1 2.2.9 2.6.8.3 1.5 1.4 1.5 2.5 0 2.5 1.1 3.2 3.7 2.5 1.8-.5 1.9-.9.9-4.7-.6-2.3-1.3-4.4-1.7-4.7-.3-.3-.9-1.9-1.3-3.5-.8-3.1-3.3-6.5-4.7-6.5-.5 0-.6 1.3-.2 3zM416.964 241.964c.3.5.8 1 1.1 1 .2 0 .4-.5.4-1 0-.6-.5-1-1.1-1-.5 0-.7.4-.4 1zM421.464 251.064c0 1.7-.9 5-2 7.5-1.6 3.4-2.6 4.4-4.5 4.4-1.4 0-2.5.7-2.7 1.7-.3 1.4-1.3 1.8-4.6 1.8-3.2 0-4.1-.3-3.7-1.5.3-1-1.3-2.6-4.6-4.7-4.8-3.1-5.2-3.2-10.5-2.1-3.8.7-5.8.8-6.5.1-.7-.7-1.9-.3-3.6 1.3-1.4 1.3-3.2 2.4-3.9 2.4-.8 0-1.4.6-1.4 1.3 0 2 3.3 4.7 5.8 4.7 1.6 0 2.2.6 2.2 2.1s-.5 1.9-1.5 1.5c-2-.7-1.9 0 .6 4.1 1.4 2.2 1.9 4.2 1.5 5.8-.4 1.4-.2 2.5.4 2.5.5 0 1 .7 1 1.5 0 .9 1.1 2 2.5 2.5 2.6 1 3.4 3 1.3 3-.7 0-.2.9 1.2 2 3.2 2.4 2.3 3.2-2.1 2-5-1.5-6.7-1.2-7.4 1-.3 1.1-1.2 2-2 2-.7 0-2.6 1.5-4.2 3.3-1.6 1.8-3.6 3.6-4.5 4-1.1.4-1.5 1.3-1.1 2.6.6 2.3-3.3 6.3-5.4 5.6-1.7-.6-1.6.5.1 2.8 1.8 2.3 1 5.5-1.6 6.3-1 .3-1.8.9-1.6 1.2 2.6 5.1 3 6.3 2.5 6.8-1.1 1.1-4.7-1.7-4.7-3.6 0-1.1-.4-2-1-2-.5 0-1 .6-1 1.2 0 2.2-6.9 2-9.7-.2-1.7-1.3-3.4-1.8-4.9-1.4-1.3.3-3.8.1-5.6-.5-2.7-1-3.5-.9-4.4.4-.9 1.2-1.7 1.3-4.3.4-2.4-.9-3.5-.9-4.4 0-1.8 1.8-4.3 1.3-10.2-1.8-4.4-2.4-5.6-2.7-6.3-1.6-1.1 2-3.9 2.1-9.4.5-3.4-1-4.8-1.9-4.8-3.2 0-2.1-3-2.4-4.8-.6-.9.9-1.2.9-1.2-.3 0-.8-.9-2-2-2.7-1.7-1-2-1-2 .3 0 .9.7 1.8 1.5 2.1 1.2.5 1.3 1 .5 1.9-1.3 1.6-1.1 11.5.3 13.3 1.4 1.8.5 2.3-3.1 1.6-2.2-.5-3.2-1.2-3.2-2.5s-.7-1.9-2.3-1.9c-2.5 0-5.2-4.1-4.8-7.2.1-.9-.7-2.2-1.8-2.8-1.4-.7-2.1-.7-2.1 0 0 .5.4 1 .9 1s.4 1.1-.2 2.4c-.7 1.3-1.5 2.2-2 1.9-.4-.2-.5 1.4-.1 3.6.6 4 .6 4-3.2 4.7-2.2.5-4.3.7-4.7.6-1.4-.4-4.8 1.9-4.2 2.8.3.5-.8.2-2.5-.6-3-1.6-3-1.6-1.3-4.4 1.6-2.8 1.6-3-.2-5-1.7-1.9-1.9-1.9-4.6-.3-1.5 1-2.7 2.2-2.7 2.7s-.7 1.3-1.6 1.8c-.9.5-1.6 1.8-1.6 2.8 0 1.5-.7 2-2.8 2-2.4 0-3 .6-3.9 3.5-1.1 3.3-.9 3.6 1.8 5.2 1.6 1 2.9 2.4 2.9 3.3 0 .8.9 3 2 4.8 1.2 1.9 2 5 2 7.5 0 2.9.9 5.5 2.8 8.4 3.4 5.1 10.9 13.3 12.3 13.3.5 0 .9.7.9 1.5s.9 1.9 2 2.5c1.4.8 1.9 1.7 1.5 3.3-.6 2.4 4.9 11.6 8.9 14.8 1.9 1.5 2.7 5.8 2.7 14 0 2.9 2.7 5.9 7.3 8.3 3.2 1.6 3.1 1.3 3.9 15.6.5 9.4 1.4 13.5 3.4 16.6.7 1.1 1 2.3.7 2.6-.8.8 2.4 6.8 3.6 6.8 1.1 0 1.4 6.3.3 7.4-.4.4-.6 2.4-.4 4.6.3 4.4-2.4 11-4.5 11-1.9 0-1.8.9.8 6.6 1.2 2.7 2.3 5.6 2.5 6.4.1.8.9 3.3 1.7 5.5 2.8 7.5 2.5 8-5.1 7.9-5.7-.1-7.6-.6-12.1-3.2-2.9-1.8-5.7-3.2-6.2-3.2-1.3 0-5 3.7-5 5 0 .5-.6 1-1.4 1-.9 0-1.2-.7-.9-2 .4-1.6 0-2-2.1-2-2.6 0-6.6-3.4-8.7-7.2-.7-1.3-.4-2 1.1-2.8 1.1-.6 2-2 2-3 0-1.1.4-2 1-2s.6-.9 0-2.5c-.5-1.4-.9-2.9-.9-3.3.4-2.2-1.6-7.4-3.1-8.2-1.9-1-2.6-.5-4.9 4.2-.8 1.5-1.8 2.5-2.4 2.1-.6-.4-.7.4-.3 2.1.7 2.8.9 2.8-6.5 3.1-7 .4-9.2 1.9-8.7 6.1.2 1.9.3 3.4.3 3.4-.1 0-1.2-.9-2.5-2s-2-2-1.5-2c.4 0-.8-1.4-2.6-3.1-3.3-3.1-3.3-3.1-4.7-1-1 1.5-2.5 2.1-5 2.1-2.8 0-3.3.3-2.4 1.2.7.7 1.2 2.1 1.2 3.3 0 1.1.8 3.1 1.7 4.5 1.2 1.7 1.3 2.5.5 2.8-2.9.9.4 12.6 3.8 13.5 2.8.7 3.6 6.6 1.7 12.2-1.5 4.4-1.5 4.7.3 6.5 3.3 3.3 2.4 12.2-1.6 16.5-1.3 1.5-2.8 2.4-3.3 2.1-1.5-.9-1.8 5.1-.4 7 1 1.4 1 2 .1 2.5-.9.6-.8 1.2.3 2.5.8.9 1.3 2 1.2 2.3-.5 1.4 3.9 5.1 6 5.1 2.4 0 5.3 4.2 4.1 6.1-.3.5.2 1.2 1 1.5.9.3 1.6 1.3 1.6 2.1 0 .7.6 1.3 1.3 1.1 1.7-.3 5.7 2.4 5.7 4 0 1.1 2.2 1 6.7-.3 2.4-.8 2.3 1.4-.3 4.5l-2.7 3.1 3.6-.6c2.5-.5 3.7-.3 3.7.4 0 .6.7 1.1 1.5 1.1s1.5-.5 1.5-1.1c0-.6.7-.9 1.5-.6.8.4 1.7.2 2-.3.4-.6 1.5-1 2.6-1 1.7 0 2.5 1.7 2 4.4-.1.5 1 .6 2.4.3 1.9-.3 3 .1 3.8 1.4.7 1.1 1.5 1.9 2 1.9.4 0 .5-.5.2-1.1-.4-.6.2-1.3 1.4-1.6 1.2-.3 2.1-1 2.2-1.7.1-1.9.7-4.8 1.1-4.9.2-.1 1.2-.7 2.4-1.3 1.4-.8 2.6-.9 3.8-.2 1.3.8 2.1.7 2.7-.3 1.2-1.9 1.1-2.9-.1-2.9-.5 0-2.3-2.7-3.8-6-1.9-3.9-2.5-6-1.7-6 1.8 0 2.5-4.8.9-5.4-1.6-.6-1.9-4.6-.4-4.6.5 0 .6-.8.3-1.8-.4-1 1.1-.1 3.5 2 2.3 2.1 5.1 3.8 6.2 3.8 1.4 0 2.1.9 2.6 3.4.6 3.4 2.8 5.4 3.9 3.6.8-1.2 6.5-1.3 6.5-.2 0 1 .2 1 8.5 1.7 14.9 1.3 19.6 6.6 22.8 26.1.6 3.4 1.8 4.9 2.7 3.3.7-1 1.2-1 2.5.1 1.5 1.3 2 1.1 4.1-1.4l2.4-2.8 5.6 3.1c3.6 2.1 6.6 3.1 8.8 2.9 2.6-.1 4 .5 6.4 3 1.8 1.8 3.2 3.7 3.2 4.2 0 .6.6 1 1.4 1 .8 0 1.7.7 2 1.6.9 2.2.8 2.4-1.1 2.4-1.2.1.5 2.2 5 6.5 3.8 3.6 7.2 6.3 7.6 6.1 1.2-.8 4.3 3.5 3.7 5.1-.5 1.3 0 1.4 2.6.8 1.8-.4 5-.8 7.1-.8 3.7-.2 4.7-1 2.7-2.2-.6-.4-.8-1.1-.4-1.6.9-1.5-1.5-3.9-3.2-3.2-1 .3-1.2 0-.9-1 .4-.8-.1-1.7-.9-2-1-.4-1.6-.1-1.6.7 0 1.8-2.9 2.9-4.4 1.7-.7-.6-2.3-.7-3.6-.4-1.6.4-2.1.3-1.6-.6.4-.7-.2-2-1.6-3.2l-2.3-2 4.8.4c5.1.5 5.1.4 4.7-5.6-.2-3.4.5-3.4 2.4 0 .9 1.6 1.5 2.2 1.6 1.3 0-.9-.5-2.1-1.2-2.8-1.7-1.7.2-3.3 3-2.6 1.2.4 2.2 1.3 2.2 2.1 0 .9 1.4 3.1 3 5 1.7 1.8 3 4.2 3 5.1 0 1 1.3 2.5 2.9 3.5 2.1 1.2 2.8 2.3 2.4 3.7-.3 1.1 0 3.3.6 5 .8 2.3.7 3.6-.2 5.1-1.8 2.9 1.6 8.4 6.7 10.8 4.9 2.3 9.6 3.4 9.6 2.4 0-.5.4-1.4.9-2.2 1.1-1.7 5.1.2 5.1 2.5 0 .8.4 1.3.9.9.6-.3 2.4 1.3 4.2 3.5 2.6 3.2 4.6 4.4 10.2 6.2 6.1 2 7.5 2.9 10.6 7 2 2.6 4.3 4.7 5.2 4.7 1.8.1 4.3 2.7 5.3 5.5.4 1.3.2 1.7-.8 1.3-1-.4-1.6.6-2.1 3.8-.7 4.7.4 7.8 3.2 9.3.9.5 1.7 2 1.8 3.3.3 3.8 2.3 3.3 3.5-1 1.2-4.6 2.5-5.8 4.4-4.1 1.8 1.4 1 4.3-2 7.5-2.2 2.3-2.3 2.8-.9 4.1.8.9 1.5 1.6 1.5 1.7 0 .1-.4 1.7-.9 3.5-.5 1.7-.6 3.2-.1 3.2.9 0 2.2-2.9 1.6-3.8-.2-.4 1.8-.5 4.5-.4 3.1.3 4.9 0 4.9-.7 0-.6-.4-1.1-1-1.1-.5 0-1-.9-1-2.1 0-3.1 2.3-1.8 3.2 1.9.5 1.7 1.4 3.4 2.1 3.8.6.4.9.4.5-.1-.4-.4.9-2.3 2.9-4.2 2.7-2.6 3.3-3.7 2.4-4.6-.6-.6-1.1-.8-1.1-.3 0 .4-.7.1-1.5-.7-.8-.9-2-1.7-2.7-1.9-1-.4-1-.8.1-2.1.7-1 .9-1.7.3-1.7-2 0-2.3-5.1-.5-7.9.9-1.4 1.6-2.9 1.5-3.4-.1-.4.5-.7 1.4-.7 1.2 0 1.5-.6 1.1-2.1-.3-1.1.3-3.5 1.4-5.4 2-3.3 2-3.4 0-4.4-2.7-1.5-5.7-9.6-4.2-11.4.6-.8.7-1.8.3-2.2-.4-.5.1-.5 1.1-.2 1.1.4 1.7.1 1.7-.8 0-.8-.8-1.5-1.8-1.5-1.3 0-2.4-1.3-3.5-4-1.7-4.3-2.7-4.8-5.1-2.5-.9.9-1.7 1.1-2.1.5-.3-.5-.1-1 .4-1 .6 0 1.1-2 1.1-4.4 0-2.5.4-4.8 1-5.1.5-.3 1-1.6 1-2.8 0-5.9.8-10.1 1.8-10.5.7-.2 1.2-.8 1.2-1.4 0-.5.7-2.5 1.6-4.3 1.4-3 1.4-3.6-.1-6.6-1.5-2.9-1.5-3.1-.1-2.6 2 .8 3.2-3.3 1.8-6-.5-1-1.3-3.7-1.7-6-.4-2.8-1.4-4.7-3.1-5.8-1.3-.8-2.4-2.2-2.4-3 0-.8-1.3-2.7-2.9-4.1-1.7-1.5-2.7-3.2-2.4-4 .3-.8 0-2.1-.7-2.9-1-1.3-.8-1.5 1.4-1.5 1.4 0 2.6-.4 2.6-.8s1.6-2.5 3.5-4.6c1.9-2.1 3.5-4.8 3.5-6 0-1.2.5-2.7 1.1-3.3.7-.7 1.3-3.1 1.5-5.4.4-4.1.4-4.1-2.5-3.6-1.9.4-3.3.1-4.1-.8-.7-.8-1.6-1.3-2-1-.5.3-1.1.1-1.5-.5-.3-.5-1.5-1.5-2.5-2-1.5-.8-1.8-.7-1.4.3.3.9-.3 1.7-1.6 2-2.3.6-3.6-1.3-2.6-3.8.4-1.1-.2-1.5-2.7-1.5-1.8 0-4.3-.3-5.6-.7-2.2-.5-2.3-.4-1.9 2 .4 2.1.1 2.7-1.3 2.7-1 0-2.4.7-3.2 1.5-1.2 1.2-2.1 1.2-4.6.4-1.7-.6-2.9-1.4-2.6-1.8.6-1.1-3.9-.7-4.7.4-.4.5-2.1.8-3.8.7-2.8-.3-3-.2-2.2 1.5 2 3.7 1.9 11.3-.2 11.3-2.5 0-2.9 2-.7 3.9 1.2 1 2.1 2.5 2.1 3.4 0 .9.5 1.9 1 2.2.6.4 1-.5 1-2.1 0-3.3.5-2.9 1.4.9.4 1.9.3 2.6-.4 2.2-.5-.3-1-.2-1 .3s-1.1.7-2.5.4c-2.1-.3-2.5 0-2.5 1.8 0 1.6-.4 2-1.5 1.6-.9-.3-1.5 0-1.5.9 0 3.2-3.6 1-4.5-2.8-.4-1.6-1.4-2.7-2.4-2.7-1.1 0-1.2.3-.4.8.7.4.9 1.3.4 2.1-.6 1-1.1.9-2.4-.3-.8-.9-2-1.6-2.6-1.6-.6 0-1.1-.4-1.1-.9 0-.9 4.8-2.6 6.4-2.2.5.1.5-1.1.1-2.6-1.1-4.6-.6-9.7 1.1-11 2.1-1.5 1.3-9.1-1-10.9-.9-.6-1.6-1.6-1.6-2.2 0-.6-1.1-2.4-2.5-4.1-3.3-3.9-3.7-6.3-1.8-10.2 1.3-2.5 1.3-3.5.3-5.4-.8-1.5-1-4-.5-7.5.6-4.6.5-5.2-1.3-5.7-1.2-.3-1.8-1.1-1.6-1.8.3-.7-.9-2.3-2.5-3.5-1.7-1.2-3.1-1.8-3.1-1.4 0 .3-.6.1-1.3-.5-.8-.6-1.7-.8-2-.5-.4.4-2.3-.6-4.3-2.1-2.1-1.6-3.2-3-2.6-3.4 2.1-1.3-.6-3.4-4.1-3.3-2.7.1-3.6-.4-4.5-2.3-1-2.3-1.8-2.5-7.1-2.5-4.2 0-6-.4-6.4-1.4-.4-1.1-1.6-1.3-3.9-1-2.7.5-3.7.1-5.3-1.8-1.1-1.2-1.3-1.7-.5-1.1 1.9 1.8 4 1.6 4-.2 0-1.1.7-1.4 2.5-.9 2.2.5 2.6.2 3.1-2.5.5-2.1 1.2-3.1 2.5-3.1 1.1 0 1.9-.5 1.9-1 0-.6.7-1 1.5-1s1.5-.7 1.5-1.6c0-.9.5-1.2 1.2-.8.8.5.9.2.5-.9-.3-1-.2-1.7.2-1.7.5 0 1.1-.6 1.4-1.4.4-1 0-1.4-1.1-1.4-.9.1-2.9-.1-4.3-.5-1.9-.5-3.5 0-5.9 1.8-2 1.4-3.8 2.1-4.4 1.6-.6-.4-2.2-.5-3.6-.1s-4.2.1-6.2-.6c-3-1-3.9-1-4.8.1-.7.8-2.4 1.2-4.4.9-2.8-.3-3.6.2-6.5 3.9-3.7 4.8-3.3 4.6-5.3 2.9-2.5-2-7.7.8-5.9 3.3 1.1 1.5 1.1 5.4 0 6.1-1.4.8-6.1-2.5-5.3-3.8.4-.6 0-1.6-.8-2.2-1.7-1.3-4.3-5.7-4-6.9.1-.4-.3-1.7-.9-2.8-.7-1.4-.7-2.4 0-3.2.6-.8.6-1.8.1-2.7-.6-.8-1-3.5-1-6.1 0-2.5-.6-5.1-1.2-5.8-.7-.7 1.4 0 4.7 1.5 3.3 1.5 7 2.8 8.3 2.8 1.2.1 2.5.9 2.8 1.8.3 1 1.1 1.9 1.7 1.9.7.1 2.3.3 3.7.4 1.4.1 3.8.7 5.3 1.3 2.2 1 3.3.9 5.1-.3 1.3-.9 3.1-1.3 4-.9 1 .4 1.6.1 1.6-.7 0-.8.6-.4 1.5.8 1.8 2.5 6.2 3.6 6.9 1.7.3-.8 1.7-1.4 3.2-1.4 2.3 0 2.5-.3 2-2.5-.4-1.4-.3-2.5.1-2.5.8 0 4.7-8.6 4.8-10.5 0-.6.4-2 .8-3.3 1-2.6 5.7-3 9.7-.7 3.2 1.8 4 1.8 4 .1 0-.7.6-1.9 1.4-2.5.7-.6 1.4-2.3 1.4-3.8 0-1.7.8-3.3 2.1-4.1 1.1-.8 2.1-2.1 2.1-2.9 0-.7.7-1.6 1.6-2 1.1-.4 1.3-1.3.9-3.3-.5-2.5-.4-2.8 1.3-2.3 2.1.5 3.7-2.1 2.5-4-.3-.6.9-.1 2.8 1.1 2.7 1.6 3.8 1.9 4.7 1 .9-.9 1.2-.9 1.2-.1 0 1.6 5.6-1.3 6.4-3.2.3-.8 2.3-2.6 4.5-4 4.1-2.5 4.1-2.5 2.1-4.5-1.1-1.1-2-2.5-2-3 0-.6-.6-1-1.4-1-1.5 0-1.1-4.6.5-5.6.5-.3.9-2.4.9-4.7 0-3.1-.7-4.8-2.7-6.9-2.6-2.7-2.6-2.8-.5-2.8 1.5 0 2.2-.6 2.2-1.9 0-1.1.4-2.1.9-2.3.5-.2.5-2.4.1-5.3-.8-4.8-.5-11.3.7-14.5.4-.8.5-2.3.4-3.3-.2-1 .5-2.7 1.4-3.7.9-1 1.4-2.4 1-3-.4-.6.1-2.8 1.1-4.8s2-6.2 2.2-9.2c.3-3.4 1.1-6 2.1-6.7 1.4-1.1 1.4-1.2-.5-1.3-1.1 0-2.9-.6-3.9-1.4-1.6-1.2-1.7-1.6-.6-3 .7-.9 1-1.7.5-1.7-.5-.1-1.3-.2-1.9-.4-.5-.1-1.4-.3-1.9-.3-.5-.1.3-1.1 1.8-2.3 1.7-1.3 2.6-3 2.6-4.9 0-1.6.6-3 1.3-3.3.9-.3.8-1.3-.6-3.7-1.6-3-1.6-3.4-.2-5 1.3-1.4 1.3-1.9.2-2.8-1.1-.9-1.8-.7-3.3.7-1.9 1.7-2 1.7-5.7-2-2.2-2.2-4.4-3.6-5.3-3.2-.8.3-1.4.1-1.4-.5 0-.5-.9-1.2-2-1.5-1.1-.3-1.8 0-1.7.7.1.6-.5 1.1-1.3 1.1s-1.7-1.1-1.8-2.4c-.3-1.7 0-2.2 1-1.8.8.3 2.8-.8 4.5-2.3 2.4-2.2 3.3-2.6 4.3-1.7 1 .9 1.1.7.6-1-1.1-3.4.8-6.1 3.8-5.6 1.4.3 3.4.2 4.3-.2 1.7-.7 1.6-.8-.2-1.5-3-1.3-4.7-1.2-3.9.2.5 1 .4 1-.5.2-.6-.6-.9-1.9-.5-2.8.6-1.5 1.5-1.7 4.5-1.3 5.1.7 5.1-1.1-.1-4.6-1.3-.9-1.9-1.7-1.2-1.7s1.8-1.4 2.4-3c.5-1.7 1.5-2.9 2.2-2.7.6.2 2.1-1.1 3.3-2.8 1.8-2.6 2-3.9 1.4-6.3-.7-2.2-.5-3.4.7-4.6 1.4-1.4 1.4-1.7-.1-3.4-.9-1-1.7-2.7-1.7-3.8 0-1.1-2-3.4-5-5.6l-5-3.7v3zm-24 37.4c0 .3-.9.5-2 .5s-2-.7-2-1.5c0-1.3.4-1.4 2-.5 1.1.6 2 1.3 2 1.5zm-45.5 214.5c1 1.1 1.6 2 1.3 2-.3 0-1.3-.9-2.3-2-1-1.1-1.6-2-1.3-2 .3 0 1.3.9 2.3 2zm117.5 65c0 .5-.7.7-1.5.4-.8-.4-1.2-1-.9-1.5.6-1.1 2.4-.2 2.4 1.1zm-14 17c.8.5 1.2 1.2.9 1.5-.8.8-3.9-.5-3.9-1.6s1.1-1.1 3 .1zm17.4 114.1c-.3.5.2.9 1 .9 1.9 0 2.1 1.6.3 2.3-.8.3-1.8-.6-2.4-2.3-.9-2.3-.8-2.7.3-2.3.8.3 1.1.9.8 1.4zm7.7 13.6c0 .5.2 1.8.5 3.1.3 2 .2 2.1-1.6 1.2-2-1.1-2.6-3.1-1.3-4.3.9-.9 2.3-.9 2.4 0zM274.964 278.064c-.4.6-.5 1.3-.2 1.6.7.7 2.7-.6 2.7-1.8 0-1.2-1.7-1.2-2.5.2zM280.464 278.364c0 .2.7.7 1.6 1 .8.3 1.2.2.9-.4-.6-1-2.5-1.4-2.5-.6zM286.964 278.964c-.3.5-.1 1 .4 1 .6 0 1.1-.5 1.1-1 0-.6-.2-1-.4-1-.3 0-.8.4-1.1 1zM278.464 281.264c0 1-.5 1.7-1.2 1.5-2-.7-7 5.8-6.3 8.2.4 1.1 1 1.8 1.5 1.5.5-.3 1.8.3 3 1.5 1.1 1.1 2 1.6 2 1.1 0-.6-.4-1.3-1-1.6-.5-.3-1-2-1-3.6 0-2.2.7-3.2 2.5-4.1 2.7-1.2 3-2.4 1.5-4.8-.8-1.3-1-1.2-1 .3z"/><path d="M431.064 290.864c-.3.5.1 1.2 1 1.5.8.3 1.3 1 .9 1.5-.3.5-.1 1.2.5 1.6.5.3 1 2.5 1 4.7 0 4.1 0 4.1 1.9 2.2 1-1 1.7-2.1 1.5-2.3-.2-.2.1-1.2.6-2.2 1.7-3.2-5.6-10.1-7.4-7zM269.264 294.564c-.4.3-.4 1.2-.2 1.9.3.7-.5 2.1-1.8 3.1-1.6 1.3-2.4 3.2-2.6 5.9-.1 2.2-.8 5.3-1.4 6.8-1.3 3.4-.4 4.5 4.2 4.9 3.2.3 3.5.1 3.4-2.2-.1-1.4.5-2.9 1.2-3.5 1.1-.8 1.1-2.4.4-7.9-1.1-7-2.1-10.1-3.2-9zM276.064 298.364c.6 1.7 3.4 3 3.4 1.6 0-.5-.9-1.4-2-2-1.6-.8-1.8-.8-1.4.4zM262.064 303.264c.3 1 .9 1.5 1.2 1.2.3-.3 0-1.1-.7-1.8-1-.9-1.1-.8-.5.6zM428.664 309.764c.2 1.9.9 2.8 2.6 3 3.5.5 2.7-3.7-1.1-5.1-1.5-.6-1.8-.2-1.5 2.1zM223.464 342.964c0 .5-.7.7-1.5.4-.8-.4-1.5-.2-1.5.4 0 .6-.3 1.7-.6 2.6-1 2.5 2 1.9 4.3-.8 2-2.3 2-3.6.1-3.6-.4 0-.8.4-.8 1zM382.464 467.664c0 2.1 2.6 6.3 4 6.3 1.2 0-.8-5.6-2.6-7.1-1.1-.9-1.4-.8-1.4.8zM390.064 478.164c.3.4.9.8 1.5.8.5 0 .9-.4.9-.8 0-.5-.7-.9-1.5-.9s-1.2.4-.9.9zM385.764 479.464c0 1.8 1.9 1.5 2.5-.3.2-.7-.3-1.2-1-1.2-.8 0-1.5.7-1.5 1.5zM252.464 481.564c-2.1 2.2-2.2 2.6-.6 2.3 1-.2 2.2-1.4 2.7-2.7 1-2.8 1-2.7-2.1.4zM483.064 556.564c-.4.9-.2 2.2.4 2.8.5.5 1 2 1 3.3 0 2.5 1.5 3.1 2.3.9.3-.8-.1-2-.9-2.7-.8-.7-1.3-1.8-1-2.4.2-.7.1-1.7-.4-2.4-.5-.9-.9-.8-1.4.5zM427.564 585.964c-.5 1.6-.8 3-.5 3 1.1 0 4-3.8 3.6-4.8-.7-2.1-2-1.3-3.1 1.8zM379.264 649.664c-3.1.8-2.7 2.8.7 2.8 2.5 0 3.1-.4 2.7-1.8-.2-.9-.7-1.6-1.1-1.6-.3.1-1.3.3-2.3.6zM444.564 705.464c1.6 3.6 3.3 6.5 4.1 6.5 1.7 0 .7-2.7-1.8-5.1-1.5-1.3-2.5-2-2.3-1.4zM489.564 711.864c-1 .6-.3.9 2.2.8 2.2-.1 3.2-.4 2.4-.9-1.6-1-2.9-1-4.6.1zM451.464 714.464c.7.8 2 1.5 3 1.5.9 0 1.7.6 1.7 1.2 0 .7.4 2.1.8 3 .5 1.3.2 1.8-.9 1.8-2 0-2 1.4 0 4.5 1.2 1.8 1.3 2.5.4 2.5s-.7.7.5 2c1 1.1 1.5 2 1.2 2-1.7 0 1.2 4.4 3.1 4.7 1.9.2 2.1-.1 1.6-2.6-.3-1.6-.2-3.1.3-3.4.6-.4.6-3.2.2-6.9-.4-3.4-.5-6.6-.3-7 .3-.5-.1-.8-.9-.8s-1.7-.6-2-1.4c-.6-1.5-4.7-2.9-4.7-1.5 0 .6-.8.5-1.9-.1-2.8-1.4-3.6-1.2-2.1.5zm10.2 6.8c1 1.9 1 1.9-1.6.1-1.4-1.1-2.6-2.5-2.6-3.3 0-1.1.3-1.1 1.6-.1.8.8 2 2.2 2.6 3.3zM490.064 718.564c-.3.8-1.1 1.4-1.8 1.4-1.7 0-3.7 4.5-2.8 6 .6 1 .8 1 1.2 0 .2-.6 1.5-1.3 3-1.3 2.3-.2 2.4-.4 1.2-2.2-1.2-1.7-1.2-2.1.7-3.1 1.8-.9 1.9-1.2.6-1.7-.9-.3-1.8.1-2.1.9zM480.764 730.964c-1.6 1.8-3.6 3-5.1 3-2.3 0-2.3.1-1 2.2 1.2 1.9 1.2 2.7.2 4.8-.8 1.4-1 2.8-.4 3.4.4.4.6 1.6.2 2.5-.5 1.4-.4 1.4 1.2.2 1.8-1.5 3.5-.6 4 2 .5 2.8 3 6.9 4.1 6.9.6 0 2.2 1.1 3.5 2.5 1.3 1.4 1.9 2.5 1.4 2.5s-.2.4.6.9c2 1.4 3.2.3 2-1.9-1.1-2-1.4-7.3-.4-8.3.3-.3 2.1.4 4.1 1.5 2.7 1.7 3.7 1.8 4.3.8.4-.7 1.7-1 2.9-.7 1.2.3 2.4.1 2.7-.4.3-.6 1.5-.7 2.6-.3 1.7.5 2 .3 1.5-1-1-2.4 0-2 3.9 1.9 5.1 5.1 11.4 4.8 11.4-.6 0-.5-.9-.9-2.1-.9-1.6 0-2-.4-1.4-1.8.3-.9.9-3 1.2-4.6.7-3.6-1.6-5.6-6.5-5.6-1.8 0-4.2-.5-5.3-1-1.3-.8-1.9-.7-1.9 0 0 .6-.5 1.6-1 2.3-.6.7-1.8 2.1-2.6 3.2-1 1.3-1.7 1.6-2 .8-.3-.7-1.2-.9-2-.6-.7.3-1.7-.2-2-1.1-.7-1.9-3.5-2.1-5.2-.4-.9.9-1.2.6-1.2-1.3 0-1.4.6-3.1 1.2-3.7 1.4-1.4 2-7.5.7-6.6-.5.3-.9 0-.9-.6 0-.7-.7-.9-1.6-.6-.8.3-2.8-.1-4.4-.9-3.8-1.9-3.5-2-6.7 1.5zM454.664 736.164c-1.4 1.4-1.6 2.8-.3 2.8.9 0 2.4-3 1.8-3.6-.2-.2-.9.2-1.5.8z"/><path d="M458.264 739.664c-1 .3-1.8.9-1.8 1.4 0 .5-1 .9-2.2.9-2.7.1-7.8 4.3-7.8 6.5 0 .8-.7 1.5-1.5 1.5s-1.5.9-1.5 2-.6 2-1.3 2c-.9 0-1.2 1-.9 3.1.5 3.4-.8 4.9-4.5 4.9-1.8 0-2.3.6-2.3 2.5 0 1.6-.6 2.5-1.6 2.5-1.2 0-1.5.6-1 2.3.6 2.6-2.6 8.7-4.6 8.7-.8 0-1.4 1.6-1.5 4.6-.1 2.5-.6 5.1-1.2 5.7-.5.7-1.1 3-1.3 5.2-.2 3.3-.7 4.1-2.8 4.5-2.5.5-3.1 1.6-1.8 3.5.4.6.3 1.7-.3 2.5-.5.8-.9 2.5-.9 3.7 0 1.2-1.2 3.1-2.6 4.2-1.4 1.1-2.3 2.4-2 2.9 1.1 1.8-1.8 6.3-3.9 6.1-2.7-.3-5.6 1.1-4.9 2.2.3.5-.3.9-1.2.9-1 0-2.8 1-4.1 2.2-2.1 2-2.2 2.3-.7 4 1.3 1.4 1.4 2.1.5 3.2-1 1.1-1 2-.1 3.6.9 1.7.8 2.5-.3 3.8-1.4 1.5-1.3 2.1 1.2 5.8 2.9 4.1 5 14.1 2.7 12.7-.6-.4-.3.5.7 2 .9 1.5 1.4 2.7 1 2.7-.5 0-.9 2-1 4.5-.2 3.4.2 4.5 1.3 4.5 2.4 0 6.4 3.1 8 6.1.8 1.6 1.9 2.9 2.5 2.9 1.4 0 3.9 2.6 3.9 3.9 0 .6-.7 1.1-1.5 1.1-1 0-1.5 1-1.5 3.2 0 4.4-1.1 5.8-5.6 7.4-2.2.8-4 1.4-4.1 1.4-.1 0 0-.8.4-1.8.6-1.5.4-1.5-1.6.3-1.8 1.5-2.6 1.7-4 .8-1.4-.9-2.1-.9-3 0-.8.8-1.6.9-2.9.1-1-.7-4-.9-7.1-.6-5 .4-5.3.3-4.7-1.5.5-1.6.1-2.2-1.5-2.6-2-.5-2.1-.3-1.7 5.9.3 5.3.8 6.7 2.7 8.1 3.4 2.3 15.6 14.6 17.6 17.6 1.8 2.8 1.3 6.4-1.3 8.3-1.2.9-1.1 1.5 1 3.9l2.5 2.9 4.6-2.2c5.4-2.5 9.5-2.8 12.2-.8 2.1 1.5 5.6.2 7.9-2.9 1.1-1.6 1.4-1.6 5.1.1 2.2.9 5.6 2.5 7.6 3.5 3.2 1.7 3.8 1.7 5.7.3 1.2-.8 2-2 1.7-2.5-.8-1.3-.2-1.2 4.6.7 3.5 1.4 4.2 1.5 5 .3.7-1.1 1.5-.7 3.8 1.8 1.6 1.8 3.4 3.3 4 3.3.5 0 1.7.8 2.7 1.7 2.1 2.1 11 5.5 14.6 5.6 1.8 0 3 .6 3.3 1.8.5 1.5 1.1 1.6 3.1.9 2.4-.9 3.1-.3 1.7 1.6-.5.5-.2.4.5-.2 1.2-1 1.2-1.5 0-3.3-.7-1.1-1.9-2.1-2.6-2.1-.7 0-1.2-.6-1.1-1.3.3-2.5-.1-3.8-1.3-3.6-2.8.4-7.8-2.3-7.8-4.2 0-2.3-.8-2.4-3.2-.2-2.6 2.3-3 1.2-1.6-4.1 1.2-4.5 1.4-4.7 4-4.2 2.2.4 3.5-.1 6-2.7 2.9-2.9 3.7-3.2 6.7-2.6 4.2.9 6.1.2 6.1-2.1 0-1.7 4-6.1 4-4.4 0 .5.9-.2 1.9-1.5l1.8-2.4.7 2.7c.4 1.6 1.3 2.6 2.4 2.6 1 0 2.3.5 2.9 1.1 1.3 1.3 2.3 0 2.8-3.4.5-4.3 1.7-7.7 2.7-7.7.6 0 .7-1.3.3-3.1-.5-2.2-.3-3.4.6-4 1.1-.6 1.1-1.4.3-3.7-.9-2.3-.7-3.5.8-6.2 2.1-4.1 2.3-5.6.5-6.7-.8-.4-1.6-1.6-2-2.5-.4-1.3-1.5-1.7-3.7-1.4-2.9.3-3 .2-3-3.4 0-4.1.8-5.4 2.4-4.1.8.7 1.1-.4 1.1-3.5 0-3.5-.3-4.3-1.5-3.8-2.8 1.1-3.5.9-3.4-.9.1-1-.3-1.6-1-1.4-.6.2-2.1-.7-3.3-2-1.3-1.3-2.3-1.9-2.3-1.4 0 .6-.6 1.1-1.4 1.1-1.7 0-3-3.1-1.7-3.9 1.1-.7 1-2.9-.2-4.9-.6-.8-.1-1.2 1.7-1.2 1.3 0 3.2-.7 4-1.5 1.2-1.3 2-1.4 3.7-.5 1.5.9 2.4.9 3.2.1.6-.6 1.9-1.1 2.9-1.1 1.5 0 1.7-.3.8-1.9-1.3-2.6-1.3-3.1.3-3.1.8 0 2.2-.9 3.1-1.9 1-1.1 2.5-1.7 3.7-1.4 1.3.4 1.9 0 1.9-1.1 0-.9.5-1.6 1-1.6.6 0 1-.7 1-1.5s.7-1.5 1.6-1.5c1.3 0 1.5-.7 1-3.1-.9-4.7 4.9-11.1 7-7.7.4.6.9.5 1.4-.3.7-1 1.3-.9 3.3.4 2.3 1.5 2.6 1.5 4.9-1.1 3.5-3.7 4.3-8.7 1.9-10.4-1.7-1.2-3.9-7.9-3.3-10 .1-.4-.7-1.2-1.8-1.8-2.3-1.3-2.6-3-.5-3 1.1 0 1.3-.8.9-3-.5-2.5-.3-3.1 1.7-3.9 2.1-.8 1.8-.9-1.8-.9-3 0-5.1-.7-7.7-2.7-2-1.5-3.6-3.2-3.6-3.7s-1-1.8-2.2-2.8l-2.2-1.7 2.2-1.2c1.5-.8 2.2-2.1 2.2-4.2 0-1.7.5-3.9 1.1-5.1.6-1.1.8-2.2.5-2.5-.7-.7-3.6 2.2-3.6 3.6 0 2.3-4.5 5.1-8.1 5.1-2.1 0-4.1.4-4.4 1-.9 1.4-4.5 1.2-4.5-.3 0-.7-.4-.6-1 .4-1.3 2.2-8.8 1.7-10.9-.8-.9-1.1-2.8-2.4-4.3-3.1-1.7-.7-2.8-1.9-2.8-3s-1.5-3.5-3.4-5.5c-3.5-3.7-7.4-5.4-10.2-4.3-1 .4-3.6-.5-6.2-2-2.8-1.7-6.1-2.7-8.8-2.8-3.5 0-4.4-.4-4.4-1.8 0-1-.5-1.8-1.1-1.8-.6 0 .1-1.4 1.5-3.1 2.8-3.3 3.3-5.5 1.4-6.2-1-.4-1-.8.1-1.5 1.6-1.1.3-2-2.1-1.5zm45.2 130.8c0 .9-.9 1.5-2.5 1.5-2.2 0-2.4-.2-1.3-1.5 1.7-1.9 3.8-1.9 3.8 0zm-21.7 4c1.2 1.1 2.2 1.2 4.8.4 1.9-.6 5.3-1.3 7.7-1.5l4.3-.4-.3 3.6c-.3 3.8-1.7 4.9-12.5 10.6-1.3.6-2.3 2.1-2.3 3.2 0 2.8-1.2 4.5-4.3 6.1-2.1 1.1-2.9 1.1-4.3.1-1.2-.9-1.4-1.5-.6-2 .7-.4 1.2-2.1 1.2-3.7 0-2.6.3-2.9 2.4-2.3 4.3 1 3.8-1.4-1.4-6.4-6-5.8-6.5-7.7-1.5-6.8 2.9.6 3.4.4 2.9-.9-.8-2 1.9-2 3.9 0zm-40.4 24.9c-.2.2-1.5.9-2.9 1.6-2.3 1.2-2.4 1.2-1.1-.3.7-1 2-1.7 2.9-1.7.8 0 1.3.2 1.1.4zM503.164 740.964c.3 1.1.9 1.7 1.5 1.4.5-.3.4-1.2-.3-2-1.6-1.9-1.8-1.8-1.2.6zM549.264 753.664c-1 .2-1.8 1-1.8 1.8 0 1.7-4 2.7-5.6 1.4-1.7-1.4-8.6-.7-9.2.8-.2.7.5 1.6 1.5 2 1 .3 2.8 1.3 4.1 2.1 1.7 1.1 2 1.8 1.1 2.8-.9 1.1-.8 2.2.1 4.4 1.5 3.6 4.9 5.9 6 4.1.3-.7 1.4-.9 2.3-.5 1.3.4 1.7.1 1.7-1.5 0-1.2.6-2.1 1.3-2.1.9 0 .9-.2-.1-.9-1.1-.6-.8-1.3 1.2-2.9 1.4-1.1 2.6-2.9 2.6-4.1 0-1.2.6-2.1 1.5-2.1 1 0 1.2-.6.8-1.8-1.5-3.7-3.3-4.6-7.5-3.5zM528.764 760.464c.7 1.3 1.4 2 1.5 1.4.5-1.4-.6-3.9-1.7-3.9-.5 0-.4 1.1.2 2.5z"/><path d="M621.464 827.964c-.6 1.1-1.5 1.8-1.9 1.5-.5-.2-1.5.2-2.2 1.1-1 1.2-2.3 1.4-5 1-3.2-.5-4.1-.2-5.6 1.8-2 2.5-10.2 4.4-21.6 4.9-4.1.1-6.1.7-6.7 1.8-.6 1.1-1.8 1.5-3.4 1.2-2-.4-2.5 0-2.8 1.8-.2 1.9-.9 2.4-3.3 2.5-1.6 0-3.6-.4-4.3-.9-.8-.7-2-.6-3.5.1-3 1.4-10.6 2.2-11.2 1.2-1.5-2.4-11.5 4.8-11.5 8.2 0 .5-1 1.8-2.2 2.8-1.7 1.4-2 2.1-1.2 3 1.7 1.8.5 4.9-2.2 5.6-4.2 1.1-7.4-.3-7.4-3.2 0-2.2.2-2.4 2.1-1.3 3 1.5 4.9-.3 3.1-3.2-.7-1.1-1.1-2.3-.8-2.7.3-.5.1-1.4-.5-2.2-.7-1.2-.9-1-.9.7s-.9 2.5-4 3.4c-2.2.7-4 1.7-4 2.2 0 .5-.7.4-1.5-.3s-1.5-2.1-1.5-3.1c0-2.3-1.2-2.4-5.1-.3-1.7.8-3.7 1.3-4.5 1-.9-.3-1.4.1-1.4 1.3 0 1.1-.6 2.2-1.2 2.5-1.4.6 2.2 0 6-1 1.6-.5 2.2-.2 2.2 1 0 .9-.6 1.6-1.2 1.6-1.8 0 2.5 2.8 5.4 3.5 1.8.5 2.7.2 3.1-.9.4-.9.2-1.6-.3-1.6-.6 0-1 .5-1 1.1 0 .5-.4.8-1 .4-1.2-.7-.1-3.5 1.4-3.5 2.2 0 3.6 2.2 2.6 4.1-.7 1.1-.7 2 0 2.4.5.3.7 1.2.3 2-.3 1 .1 1.5 1.4 1.5 1.1 0 3 1.1 4.2 2.4 2.6 2.7 7.8 4.1 9.7 2.5.9-.7 1.5-.6 2.1.4.4.8 1.8 1.6 3.1 1.9 2.2.6 2.7-.4 2.3-4-.2-1.6 1.4-1.6 2.7.1.8 1 2.7 1.1 6.9.7 3.2-.4 6.3-.5 7-.3.7.3 2.2-.2 3.5-1.1 4-2.8 5.3-2.3 17.5 6.3 2.3 1.6 5.7 3.1 7.5 3.3 3.4.3 3.5.6 2.3 4.8-.7 2.1-.6 2.3.7 1.2 1.3-1 1.7-.9 2.1 1 .4 1.2.1 2.5-.5 2.9-.7.5-.5 2.4.7 6.3 1.5 4.7 2.2 5.6 4.1 5.6 1.4 0 2.5.8 2.9 2.1 1.1 3.5 1.2 9.3.3 11.2-.7 1.3-.5 2.4.5 3.5 1.3 1.5 2.3 8.6 1.7 11.7-.1.5-.3 1.4-.4 2-.4 2.6-1.8 5.5-2.7 5.5-.6 0-.8.4-.5.9.4.5.2 2.1-.3 3.4-.8 1.9-.6 2.7.4 3.1 1.4.5 4.5 6.7 4.5 8.8 0 .6-.6.8-1.4.5-1.5-.6-1.4 1.6.2 7.4.7 2.7.6 4.4-.5 6.9-.7 1.9-1.3 4.1-1.2 4.9.3 3.1-.1 4.1-1.6 4.1-1.2 0-1.5 1.2-1.4 5.9.1 3.7-.4 7-1.5 9.1-2 4.1-2 4.7-.1 8.4.9 1.6 1.4 3.5 1.1 4.2-.2.6.6 1.6 1.9 2.2 1.6.8 2.8 2.5 3.6 5.4 1.1 4.4 4.5 9.9 5.7 9.5.4-.1.8.2.8.8.1.5-1.9 2.6-4.5 4.5-2.9 2.2-4.5 4.1-4.3 5.2.5 2.8 3.3 3 6.1.5 1.4-1.2 3.9-2.9 5.4-3.7 1.6-.8 3.3-2.2 3.8-3.3.7-1.1 1.7-1.6 2.8-1.2 1.4.4 2.2-.2 3.1-2.5.8-1.8 1.8-2.9 2.6-2.6 1.4.5 3.7-5 2.7-6.7-.3-.5-.8-3.3-1-6-.2-2.9-1.2-6-2.3-7.5-2.2-2.7-2.6-5.2-1-5.2 2.1 0 .9-4.1-1.5-5.2-1.5-.7-2.5-2-2.5-3.2 0-1.2-1.4-4.5-3-7.5-1.7-3-2.8-6.2-2.5-7.2.3-1 .1-2-.5-2.4-1.5-.9-1.2-3.5.5-3.5 2 0 2-4.9-.1-7.9-1.3-1.8-1.4-2.5-.4-3.1.9-.5.9-.9.1-1.4-1.5-1-1.4-2.6.2-2.1.6.3 1.9.1 2.7-.5 1.2-.8 1.1-1.4-.7-4.7-3.9-7.2-4.1-18.5-.2-22.4.9-.9 1.5-2 1.2-2.3-.4-.3 0-.6.8-.6 1-.1.8-.5-.5-1.5-1.1-.8-1.5-1.5-.8-1.5.8 0 1-1.4.8-4.2-.4-3.2.2-5.2 2.1-8.5 1.4-2.4 3.1-4.3 3.7-4.3 3 0 7.6-3.2 7.6-5.3 0-3.6 1.6-5.2 5-4.9 2.7.3 3 .1 3-2.5 0-1.5.7-3.7 1.5-4.7.8-1.1 1.5-3.4 1.5-5.2 0-1.8.5-3.6 1-3.9.6-.4.7-1.1.4-1.7-.4-.6-.2-.8.3-.5 1.9 1.2 4.6-3 3.9-5.9-.4-1.4-.2-3.2.4-3.9.8-.9.8-1.5 0-2-1.6-1-1.2-4.3.6-5.3 1.3-.7 1.4-1.3.5-3.1-.7-1.2-.8-2.7-.4-3.4 1.8-2.7.7-6.1-3.3-10.3-2.3-2.4-4.5-4.4-5-4.4-.6 0-1-1-1.1-2.1-.1-1.2-.6-2.6-1.2-3.2-.7-.7-.8-.3-.4 1.2.6 2.5 0 2.6-3.3.5-1.3-.9-2.8-1.4-3.1-1-.4.3-1.6-.2-2.7-1.3-1.2-1-3.3-2.6-4.8-3.5-2.6-1.7-2.7-1.7-3.8.4zm-69.5 23.1c0 .8-.8 1.3-1.7 1.3-1-.1-1.8.4-1.8 1.2 0 1.8-.8 1.8-2.6-.1-1.4-1.3-1.3-1.5.6-1.5 1.1 0 2.3-.7 2.7-1.5.7-1.9 2.8-1.4 2.8.6z"/><path d="M515.164 871.964c.3 1.1.7 2 .9 2 .2 0 .4-.9.4-2s-.4-2-.9-2-.7.9-.4 2zM344.064 875.064c-1.9 3.3-1.5 6.2.8 5.7.8-.2 1.6.1 1.7.7.2.5 1.1 1.9 2.1 3 1.6 1.7 2 1.7 2.8.5 1.1-1.8.2-3.3-1.6-2.6-.8.3-1.4.1-1.4-.4 0-.6.5-1 1.1-1 .6 0 .8-.9.4-2.1-.6-1.8-.5-2 1.4-1 1.7.9 2.1.9 2.1-.2 0-1.8-1.7-3.3-5.1-4.6-2.3-.8-2.8-.6-4.3 2zM361.764 882.264l-.8 2.8-2.2-2c-1.8-1.7-2.3-1.8-3.3-.6-.8 1-.6 1.7 1.2 2.9 1.2.9 3.3 1.6 4.6 1.6 1.4 0 3.8 1.4 5.8 3.4 3.1 3.1 3.7 3.3 7 2.6 3.9-.9 5.7-2 3.1-2-.8 0-1.9-1-2.3-2.2-1.1-3.6-6.9-9.1-9.7-9.2-2-.1-2.7.5-3.4 2.7zM377.464 887.864c0 .6.4 1.3 1 1.6.6.3.7-.1.4-.9-.7-1.8-1.4-2.1-1.4-.7zM522.164 926.564c-1 1.1.3 2.4 2.4 2.4 2.3 0 2.5-1.5.3-2.4-1.9-.7-1.9-.7-2.7 0zM514.764 933.664c-1.1 3-4.8 7-6.1 6.5-.7-.2-1.2.4-1.2 1.3 0 1.1-.6 1.5-1.8 1.1-1.2-.4-2.5.1-3.6 1.3-1 1.1-2.8 2.2-4.2 2.5-1.3.4-2.4 1.3-2.4 2.2 0 1.9 3.9 1 5.8-1.4 1-1.4 1.6-1.4 3.2-.4 2.4 1.5 5 1.6 5 .2 0-.6 1.1-1 2.3-1 2.7 0 5.7-2.8 5.7-5.3 0-2.1 2-3.3 3-1.7.5.8.8.4.7-1.3-.1-1.4-.6-2.3-1-2-.5.3-.4-.4.2-1.6 1.1-1.9.9-2.1-1.9-2.1-2 0-3.3.6-3.7 1.7zM628.964 1026.964c.3.5.8 1 1.1 1 .2 0 .4-.5.4-1 0-.6-.5-1-1.1-1-.5 0-.7.4-.4 1z"/></g></svg>