<svg version="1" xmlns="http://www.w3.org/2000/svg" width="1055.308" height="993.268" viewBox="0 0 791.481 744.951"><g fill="#222"><path d="M615.947 1.367c-1.8 2-9 2.6-10.1.9-.9-1.5-4.4 1.5-4.4 3.6 0 1.1-.7 3-1.5 4.2-1.4 2-1.8 2.1-4.9.8-3.2-1.3-3.4-1.3-4.4 1-.7 1.4-1.7 2.5-2.3 2.5-.6 0-2.3.9-3.8 1.9-2.6 1.9-2.7 1.9-4.7-.2-1.2-1.2-2.4-3.5-2.8-5.2-.9-3.6-2.1-4.5-6.3-4.5-2.4 0-3.3.5-3.3 1.6 0 1-.5 1.4-1.5 1-1.6-.6-11.8 3.6-14.5 5.9-1.9 1.6-10 1.5-10-.2 0-2.7-2.1-2.2-4 1-1.6 2.7-2.7 3.4-5.4 3.5-2.8.1-3.6-.3-4.2-2.1-.4-1.2-1.5-3.2-2.5-4.5-2.4-3.1-8.8-7.4-10-6.7-.5.4-2.4-.5-4.2-1.9-4.1-3.1-5.4-3.2-7.5-.6l-1.7 2-3.9-2c-4.3-2.4-5.7-1.9-3.8 1.1 1 1.6 1 2.4.1 3.5-.6.7-1.5 1.1-2 .8-.5-.3-.9 0-.9.6s-.6 1-1.2.8c-2.2-.4-9.1 3.5-9.6 5.5-.3 1.2-1.1 1.7-2.3 1.4-1.1-.3-2.2-.1-2.5.5-.3.5-1.2.7-2 .4-1.8-.7-3 1.4-1.4 2.4 1 .6.8 1.4-.9 3.6-1.5 1.9-1.8 3-1 3.5.9.5.8 1.4-.2 3.7-.7 1.7-1.6 2.9-2 2.6-.4-.2-.9.6-1.2 1.7-.4 1.5 0 2.3 1.4 2.6 1.5.4 1.9 1.4 1.9 4.9 0 3.4-.4 4.4-1.6 4.4-1.4 0-1.3.5.6 3.7s2 3.7.6 4.5c-2.2 1.3-2 2.5 1.1 5.4 2.3 2.1 2.5 2.7 1.5 5-1.5 3.1.5 7.6 5.1 11.6 2.9 2.4 3 2.8 1.8 5.1-1.2 2.2-1 3.2 1.7 8.8 2 4.2 2.7 6.6 2 7-.6.4-.8 1.8-.4 3.2.6 2.6 2.9 3.8 7.9 4.2 3 .3 6.7 3 6.7 5.1 0 .7.9 1.5 1.9 1.9 2.6.8 2.1 5.4-.8 7.3-1.1.8-2.1 2.5-2.1 3.8 0 1.5-.6 2.4-1.5 2.4-.8 0-1.5.4-1.5.9s-.3 1.7-.7 2.7c-.5 1.5-.2 1.6 2.6 1.1 2.5-.5 4-.2 6.2 1.4 4.3 3 3.9 5.1-.8 4.4-7.3-1.2-8.3-1.6-8.3-3.1 0-.8-.4-1.3-.8-1-.7.4-.8 8.1-.2 8.1.1 0 .3 1.2.4 2.7.2 2.8-.7 3.7-1.9 1.8-.3-.6-2.2-1-4-1-2.6 0-3.3.3-2.9 1.5.5 1.1-.1 1.5-2.4 1.5-1.7 0-3.3-.4-3.6-.8-.3-.5-1.8-.7-3.4-.4-1.9.2-3.7-.3-5.1-1.5-1.2-1-2.4-1.7-2.6-1.5-.3.1-2.1-.4-4-1.2-1.9-.8-3.5-1.1-3.5-.6 0 1.5-4.5 1.6-5.7 0-1-1.3-1.3-1.3-3 .3-1.1.9-3.3 1.7-4.8 1.7-2.7 0-2.8.1-1.4 1.6 1.8 1.7 6.9 1 6.9-1 0-.6.5-.3 1 .6.6.9 2.4 1.9 4 2.3 1.7.4 2.9 1.2 2.8 1.8-.3 1.5 2.1 6 3.7 6.9 2 1.2 1.1 5.3-1.3 5.6-1.9.3-2 .8-1.5 5.2.5 4 .3 5.1-1.1 5.6-.9.3-1.3 1-1 1.6.3.5-.2 1.5-1.2 2.2-1.3 1-1.6 2.1-1.1 4.4.5 2.6.3 3.1-1.8 3.6-1.4.4-2.5 1.1-2.5 1.6 0 .6-.7 1-1.6 1-1.4 0-1.4.3-.4 1.5 1.6 2 .4 3.3-1.7 1.9-2.7-1.7-2.6-3.3.1-4.5 1.4-.7 2.6-2 2.6-3.1 0-1 .5-1.8 1-1.8 3 0-.9-16.7-4.5-19.4-1.8-1.3-1.8-1.4-.1-3.1 1-1 1.3-2.1.8-2.4-.5-.3-1.3-2.4-1.8-4.6-.8-3.3-1.5-4.2-4.4-5.2-3.7-1.2-3.9-1.1-6.5 3.2-.9 1.4-1.4 1.3-4.4-.9-1.9-1.5-4.2-2.6-5.1-2.6-.9 0-2.6-1.1-3.8-2.5-1.2-1.3-2.8-2.2-3.6-1.9-.8.3-1.8-.1-2.2-.8-.6-.9-1-.6-1.4 1.2-.5 2.2-1.2 2.5-5.3 2.6-4.7.1-5.8-1.2-2.5-3.1 1.5-.9 1.4-1.1-.8-2.2-2-.9-2.6-.9-3.1.3-.3.8-1.3 1.4-2.3 1.4-3.1 0-6 3.4-7.3 8.4l-1.3 4.9-4.9.1c-4.3.1-5-.2-5.1-1.9 0-1.1.4-2.5.9-3.2.5-.7.6-1.7.2-2.3-.4-.7-.1-1 .6-.8.8.1 2.6-.5 4-1.5 2.4-1.6 2.5-2 1.5-5.2-.7-2.3-1.7-3.5-2.8-3.5-1 0-1.8-.5-1.8-1.1 0-.5.5-.7 1-.4 1.6 1 1.2-.4-1.1-3.4-2.1-2.8-2.1-3-.4-5.9 1.7-2.8 1.7-3.1-.1-5.5-1.1-1.5-2.6-2.4-3.4-2.2-.8.3-2.1-.4-2.8-1.5-1.1-1.7-.9-2.4.8-4.2 1.1-1.2 2-2.6 2-3 0-1.2-4.7-5.8-6-5.8-1.5 0-1.2-3 .4-3.6.9-.3 1.2-1.2.9-2.1-.4-1.1-.2-1.4.5-.9 1.7 1 1.1-3.6-.7-5.8-1.2-1.4-1.3-2-.3-2.3.6-.3 1.2-1.5 1.2-2.9 0-1.7.4-2.2 1.5-1.7 1.2.4 1.5 0 1.1-2-.9-5-4.6-9.3-4.6-5.3 0 .7-1.1 2.1-2.5 3-2.4 1.6-2.6 1.6-3.5-.9-.8-2.2-1.4-2.5-5.2-2.1-5.2.4-8.7-.8-10.9-3.6-.9-1.2-3-2.2-4.7-2.3-3-.2-3.1-.1-2.6 2.4.9 3.7 1.3 4.1 3 3.4 1.2-.4 1.4 0 .8 2.3-.4 1.6-1 3.3-1.5 3.8-.4.5-.5 1.5-.1 2.4.4 1.1.1 1.4-1 .9-1.1-.4-2 .3-2.8 2.3l-1.2 2.9-3.6-2c-2-1-4-1.9-4.5-1.9s-.5 2-.1 4.5c.5 3.3.2 5.1-.8 6.3-2.6 3.1-5.1 10-4.3 11.9.8 1.7.8 1.7 1.2 0 .5-2.1 2.2-2.2 3-.1.3.9-.3 2.1-1.6 3-1.1.8-2.1 2.2-2.1 3 0 1-.8 1.4-2.2 1.2-1.3-.2-2.2-.8-2.1-1.4.1-.6-1.6-2.6-3.9-4.4-3.5-2.8-3.9-3-3.3-1.1.4 1.2.2 2.1-.4 2.1-1.3 0-3.2-3.5-2.4-4.4.3-.3.3-.6 0-.6s-2 1.3-3.6 2.9c-2.6 2.6-3.4 2.8-7.8 2.4-2.6-.3-5.5-1.2-6.4-1.9-.8-.8-2.5-1.4-3.8-1.4-1.2 0-2.4-.6-2.7-1.3-.3-.8-2-2-3.9-2.7-1.9-.8-3.7-2.2-4.1-3.2-.3-1-1.2-1.8-2-1.8s-2.8-1.4-4.6-3c-1.7-1.7-3.2-3-3.3-3-.2 0-.2 2.3-.1 5.2.1 5.1 0 5.2-3.6 6.6-2.1.8-3.8 1.9-3.8 2.4 0 1.5-3.1.8-5.7-1.2-2.3-1.8-2.8-1.8-4.2-.6-.9.7-2.2 1.1-3 .8-1.1-.3-1.2.2-.7 2.3.5 1.9.1 3.7-1.4 6.2-1.1 1.9-2 5.2-2 7.5 0 3.4-.3 4-1.9 3.5-1.4-.3-1.7 0-1.4 1.4.4 1.4 0 1.9-1.6 1.9-1.5 0-1.9.4-1.4 1.7.5 1.3.2 1.5-1.6 1-2.8-.7-6.1 1.2-6.1 3.5s-2.5 3.5-8 3.9c-5.2.5-6.9 1.6-6.2 4.2.2 1-.2 2.3-1.1 3-1.2.9-1.4 2.1-.8 5.4.4 2.3.4 4.8 0 5.5-1.2 1.8-1.1 5.8 0 5.8.5 0 1.5-1.4 2.3-3 1-2.3 2-3 4-3 1.5 0 2.9.4 3.3.9.8 1.4 6.5 4.1 8.5 4.1s4.3-2.4 3.3-3.4c-.4-.4.4-.3 1.7.2 1.6.6 2.9 2.2 3.6 4.3 1.2 3.6.3 4.9-2 3-.7-.6-1.7-.7-2.2-.2-1.6 1.4-13.4 4.2-15.2 3.7-1.2-.4-2.8.6-5.1 3.3-2.3 2.7-3.9 3.7-5.2 3.4-1.1-.3-1.9-.1-1.9.4s-1.6 1.5-3.5 2.2c-2.9 1-3.9 1-5.1 0-1-.9-1.8-.9-2.5-.2-.8.8-.6 1.1.6 1 1-.1 2 .4 2.2 1 .3.7-.2 1.3-1.1 1.3-.9 0-1.6.5-1.6 1.1 0 .8-.6.7-1.7-.2-1.3-1.1-1.5-1.1-.9-.1.5.8.2 1.8-.8 2.5-1.5 1.1-1.3 1.6 1.6 4.6 1.8 1.9 4.3 4 5.6 4.9 1.2.8 2.2 2.3 2.2 3.3 0 1.1 1.3 4.6 2.8 7.8 2 4.2 2.7 7 2.4 9.5-.2 2-.7 3.6-1.1 3.6-.4 0-.7 1.5-.6 3.2.4 6.6 1.6 8.8 6.4 11.5 2.5 1.5 5.6 3.9 6.9 5.5 1.3 1.5 2.7 2.6 3.2 2.3.5-.3 1.1-.1 1.4.4.9 1.5-2.2 3.4-4.6 2.8-1.8-.5-2.8.1-4.6 2.8-1.6 2.3-2.9 3.2-3.9 2.8-1.1-.4-1.4-.2-.9.5.9 1.5.1 1.5-2.4.2-1.3-.7-2.1-.6-2.9.4-.6.7-2.2 1.1-3.6.8-1.8-.3-2.5 0-2.5 1.2 0 .9-.4 1.6-.9 1.6-1.3 0-2.3 5.7-2.2 12 .1 11.2.2 12.5 1.1 13.5 1 1.2-3.4 6.8-6.2 7.8-1 .4-1.8 1.1-1.8 1.7 0 .7-.8.9-2.1.5-1.3-.5-1.9-.3-1.5.3.3.5-.4 1.2-1.5 1.5-1.2.3-1.8 1-1.5 1.5.8 1.3-4.8 6.9-6.3 6.4-.6-.2-1.1.1-1.1.7 0 .5-1.5 1.1-3.2 1.3-2.7.2-3.3.7-3.1 2.5.2 1.3-.1 2.2-.5 2.1-.4-.1-2.3 1.4-4.4 3.5-2 2-4.5 3.7-5.7 3.7-1.5 0-2.1.6-2.1 2.4 0 2.6-2.4 5.1-4 4.1-.5-.3-1 0-1 .9 0 1.1-1.9 1.6-7.5 2.1-4.1.4-7.8 1.1-8.1 1.6-.9 1.6-3.7 1-6.1-1.2-1.9-1.9-2.5-2-3.8-.9-1.1.9-1.9 1-2.7.2-.7-.7-1.9-.7-3.7-.1-1.4.5-4.5 1-6.7 1.2-2.3.1-4.8.8-5.6 1.5-1 .8-2.4.9-4.9.2-4.6-1.4-10.2-1.3-11.7.2-.9.9-1.5.8-2.5-.7-1.1-1.4-2.3-1.7-5.9-1.3-4.3.5-4.8.3-10.9-4.9-5.6-4.7-6.4-5.1-7-3.5-.6 1.5-1.6 1.8-5.4 1.6-2.5-.1-5.8-1-7.2-2-2.5-1.6-2.7-1.6-4.2.5-.9 1.2-2.5 2.1-3.6 2-1.1-.1-2.9-.1-4 0-1.9.1-1.9.3-.3 1.5 2.3 1.7 4 6.3 2.7 7.2-.6.4-.6 1.1.2 2 .6.7.9 2 .6 2.8-.3.7-.1 1.8.4 2.3.6.6 1.1 2.4 1.1 4.2.1 1.7.5 3.1.9 3.1.5 0 .4 1.1-.3 2.5-.7 1.6-.8 2.9-.1 3.7.6.7 1.3 2.5 1.7 4 .5 2.3 1.2 2.8 3.5 2.8 2 0 3-.6 3.4-2 .9-3.5 2.8-2.4 9.1 5 .7.8 1.6 2.3 1.9 3.2.7 2.1 3.7 2.4 5.5.6.9-.9 1.2-.7 1.2 1 0 1.2-.6 2.2-1.2 2.2-.7.1 0 .8 1.5 1.6 1.6.9 3.5 1.3 4.3 1 .7-.3 1.6-.1 1.9.4.8 1.4 4.5 1.2 4.5-.1 0-.7 1.3-1 3.4-.7 3.4.4 3.4.3 2.9-2.6-.5-2.5-.4-2.8 1.1-2.3 1 .4 2 .7 2.2.7.2 0 .4.7.4 1.5 0 1.8.9 1.9 3.4 0 1-.7 1.5-1.8 1.2-2.3-.7-1.1 4.1-2.2 6.1-1.5.8.3 1.2 1.1.9 1.9-.3.7.2 1.8 1 2.4.8.7 1.4 1.8 1.4 2.5s1 2 2.3 2.9l2.2 1.6-2.9 2.4c-3.1 2.6-3.5 5.6-2 16 .6 4.4.5 4.8-1.2 4.2-2.3-.9-3.6 1.3-2.1 3.8.6 1.2 1.2 3.9 1.2 6.1 0 2.2.3 4.4.6 5 .3.5.6 2.3.7 3.9.1 1.6.8 4.2 1.6 5.7.9 1.8 1 2.9.4 2.9-1.9 0 1.4 3.1 4.9 4.5 1.8.8 3.3 1.9 3.3 2.4 0 .6 1.4 2.6 3.1 4.6 1.7 1.9 2.9 4.1 2.6 4.9-.3.8 0 1.9.6 2.4 1.5 1.1 6.8 2.6 8.5 2.3.7-.1 1.2.2 1.1.6-.5 2.8.2 3.5 3.1 2.9 2.2-.4 3-.2 3 .8 0 1.1-1.9 1.6-6.7 1.9-3.8.2-8.4.9-10.3 1.4-2.2.6-4.5.6-6.4 0-2.1-.7-3-.6-3.7.4-.4.7-1.1 1.1-1.4.7-1.1-1.1-4.1 2.6-3.7 4.4.2.9-.1 3.3-.8 5.3-.9 2.8-.9 3.9.1 5.2 1.1 1.3.9 1.9-1.3 3.7-5.7 4.5-6 13.1-.7 15.5 1.8.8 2.9 2 2.9 3.2 0 1.7.3 1.8 2.1.9 1.7-.9 2.3-.8 3.4.6 1.1 1.6 1 2.1-.6 3.5-1.2 1-1.7 2.3-1.3 3.3.3.9.1 2.3-.6 3.1-.7.8-1 2.4-.7 3.5.3 1.1-.1 2.3-.9 2.8-1.9 1 1 10.8 3.7 12.2 1 .6 1.9 1.7 1.9 2.4s.9 2.1 2 3.1 2.4 3.2 2.8 4.9c.5 1.7 1.5 3.1 2.3 3.1.9 0 1.5 1.4 1.7 4.5.5 6.9 3 11.1 7.6 12.7 4.5 1.5 7.6 4 7.6 6 0 .7.5 1.3 1 1.3.6 0 1 .6 1 1.3 0 .8.9 4 1.9 7.3 1.3 3.9 1.6 6.1.9 6.5-1.8 1.2.3 5.3 5.5 10.6 3.8 3.9 6 5.3 8.9 5.8 2.8.5 4.2 1.4 5 3.1.6 1.3 1.9 2.4 2.8 2.4 1 0 2.3.7 3 1.5.7.8 2.7 1.7 4.4 2.1 2.4.4 4.3 1.9 7.2 5.7 2.1 2.9 3.8 5.5 3.6 6-.1.4 1.1 1 2.7 1.3 2.3.5 3.1 1.3 3.6 3.5.4 1.6 1 2.9 1.5 2.9.4 0 .6.9.3 2-.5 1.9-.2 2.1 4.1 1.8 4.4-.3 4.6-.4 4.6-3.3 0-2.1.9-3.7 3-5.5 1.7-1.4 3-3.1 3-3.8 0-.7 1.1-1.7 2.5-2.2 2.7-1 3.2-3.7 1.5-7.1-.9-1.7-.7-1.9 1.8-1.9 1.8 0 5.5-1.7 9.6-4.5 3.7-2.5 7.2-4.5 7.7-4.5s.9-.6.9-1.3c.1-.8.5-.7 1.3.4 1.4 1.8 3.7 1.4 3.7-.7 0-.8 1-1.4 2.5-1.4 1.3 0 3.5-.5 4.8-1.1 1.9-.8 2.2-1.6 1.9-4-.3-2.3 0-2.9 1.3-2.9 1 0 2.3.7 2.9 1.4 1.3 1.7 12.1 6.1 11.1 4.6s2.1-1.2 3.4.4c.8 1 .9 1.6.1 2.1-1.9 1.2-1 2.2 1.5 1.7 1.8-.3 2.7.1 3.2 1.4.4 1.1 1.3 2.4 2 2.9 1.2.9 1.1 1.7-.1 5.1-1.3 3.8-1.3 4.1.5 5.2 1 .7 1.9 1.9 1.9 2.7 0 .8.9 1.5 2 1.5s2 .3 2 .7c0 .5 1.3 2.3 2.9 4.2 2.5 3 3 3.2 5.1 2.1 1.8-1 2.4-.9 3 0 1.1 1.7 4 .5 4-1.6 0-1.2.5-1.4 1.8-.9.9.4 2.6.9 3.7 1 1.1.1 2.8.5 3.8 1 1 .4 2 .5 2.4.2.8-.9 3.3 1.9 3.3 3.6 0 .9-.6 1.8-1.2 2-.7.3-.3.6.9.6 1.6.1 2.1-.3 1.7-1.4-.4-.9 0-1.5 1-1.5.9 0 1.6-.4 1.6-1 0-.5.7-.7 1.5-.4 1.2.5 1.2 0 .5-2.8l-1-3.3 3.1 3.3c2.3 2.5 3.7 3.2 5.3 2.8 1.1-.3 3.3-.6 4.9-.6 1.7 0 2.7-.5 2.7-1.5 0-.9.6-1.2 1.7-.8 1.3.5 1.5.2 1.1-1.5-.7-2.4-.1-2.7 2.2-1.2.9.5 1.9.5 2.7-.1.8-.7 1.8-.7 3.1 0 1.1.6 2.2.7 2.6.4.3-.3 1.5.2 2.5 1.1 2.8 2.6 9.7.2 8.5-2.9-.4-.8.3-1.5 1.7-1.7 1.6-.2 2.5-1.3 3.1-3.5.8-3.1 3.8-5.1 5.8-3.8.6.4 2.2-.1 3.6-1s3.2-1.4 4-1.1c.9.4 1.4-.2 1.4-1.6 0-1.6.3-1.8 1.4-.9 1.3 1.1 4.6.8 8.6-.6.8-.3 3-.5 4.8-.4 1.7.2 3.2-.2 3.2-.7 0-1.5 4.2-2.3 5.7-1.1.9.8 2.2.6 4.5-.6 1.8-1 4.3-2.3 5.5-2.9 1.3-.6 2.3-1.4 2.3-1.7 0-.8-3.7-1.9-6.5-1.9-1.1 0-3.3-1.1-4.9-2.5-2.3-1.8-2.7-2.7-1.9-3.7.6-.7 1.4-3 1.8-5.1.5-2.7 1.2-3.7 2.2-3.3.8.3 1.1.1.8-.4-.3-.6 0-1 .8-1 1 0 1.3-.7 1-1.9-.3-1.1.2-2.1 1.1-2.4.9-.4 1.6-.1 1.6.4 0 .7.9.9 2.1.6 4.6-1.2 7.6.3 8.8 4.4.7 2.2.9 4.4.5 5-.9 1.5 1.7 3 4.1 2.3 5.4-1.5 7.5-2.8 7.5-4.6 0-1.5.5-1.8 2.3-1.2 1.2.3 3 1.5 4 2.6 1.2 1.2 2.6 1.7 4 1.3 1.2-.4 3-.9 4-1.1 1.2-.4 1.5-1.2 1.1-3-.5-2-.3-2.4 1.8-2.4 1.6 0 2.9-.8 3.6-2.4.8-1.7 2.6-2.9 6.4-4 3.2-.9 5.4-1.1 5.6-.6.5 1.5 1.8 1.2 5.5-1.3 1.8-1.2 3.2-2.8 3-3.4-.2-.6.5-1.7 1.6-2.3 1.2-.6 2.1-1.7 2.1-2.4 0-2.8 3.6-4.8 7.4-4.1 2.9.6 3.6.4 3.6-.9s.7-1.5 4.1-1c3.8.6 4 .6 3.4-1.7-.6-2.3-.4-2.4 4-2.3 2.5 0 5 .5 5.6 1.1 1.6 1.6 7.8-2.3 8.5-5.3.7-2.8 1-2.8 4.4-.9 3.4 1.9 5.7 2 4.1.1-.8-1-.9-1.6-.1-2.1.5-.3 1 .1 1 .9 0 .9.9 2.1 2 2.8 1.1.7 2 1.9 2 2.6 0 .7.7 2.3 1.6 3.6.8 1.4 1.6 3.5 1.8 4.8.4 3.7 1.5 4.9 4.1 4.2 2-.5 2.7-.1 3.5 1.7.5 1.3 1.5 3.1 2.1 3.9 1.4 2-2.6 11.1-5.3 11.8-1.9.4-2.5 2.2-.8 2.2 1.2 0 9 7.1 21.9 20.1 12.2 12.2 13.4 13.6 12.6 14.9-.3.5-.1 1.7.4 2.7 1.1 2 5.1 21.7 5.1 25.1 0 1.2 1.4 3.3 3.4 4.9 1.9 1.5 3.2 3.1 3 3.5-.8 1.3-2.4.9-2.4-.5 0-.9-1-1.2-3-.9-2.5.4-3 .1-3-1.7 0-1.5-.6-2.1-2.2-2.1-2 0-2.1.1-.6 1.6 1.4 1.4 1.4 1.8-.6 3.9-1.2 1.3-3.4 2.7-4.8 3-2.2.6-2.7 1.3-3 4.6-.3 3.6.5 5.4 1.4 2.8.6-1.9 4.8.8 4.8 3.1 0 1.1.6 2.5 1.4 3.2 1.9 1.8 0 5.7-3.1 6.4-1.6.4-2.3 1.3-2.3 3.1 0 1.9-.4 2.3-1.9 1.8-1.5-.4-2 0-2.3 2.4-.2 1.6-.2 3 .1 2.9 2.1-.2 2.9.5 3.4 2.9.3 1.5.3 3.3 0 4-.6 1.4-3.3 1.8-3.3.5 0-.5-1.2-1.4-2.7-2.1-2.7-1.2-2.7-1.2-1 .6 2.3 2.6 2.2 4.3-.4 4.3-2.2 0-4.9 2.2-4.9 4 0 .6-.6 1-1.2.9-.7-.1-2.3-.1-3.5 0-2.2.1-2.2.1.7 6.3 3.2 6.8 6 8.9 9.1 7 1-.7 4.6-1.2 8-1.2 5.1 0 6-.3 5.5-1.6s1.5-5.7 3.4-7.4c1.9-1.7 3.8-6 3-6.5-1.8-1.1-1.1-2.3 1.9-3.3 1.6-.6 3.4-.6 4.2-.1 2.4 1.5 2.7 1 2.2-3.1-.5-3.4-.3-4 1.3-4 1.7 0 1.7-.1-.2-1.5-1.5-1.2-1.6-1.6-.6-2.3 1.2-.8 1.1-1.5-.2-4.1-.9-1.7-1.2-3.1-.6-3.1.5 0 1 .4 1 1 0 2.3 2.1.8 3.4-2.5.8-1.9 2-3.5 2.7-3.5.6 0 .9-.6.6-1.4-.6-1.6 3.2-4.6 5.8-4.6 1.9 0 1.2-3.5-1.1-5.8-2.2-2.1-1.7-4.3 1.8-7.4 2.1-1.9 4.2-2.8 6.5-2.8 2 0 3.6-.6 3.9-1.4.3-.8 1.6-1.7 3-2 1.3-.4 2.4-1.3 2.4-2.1 0-1.6 1.2-1.8 4.8-.9 1.2.4 2.2 1.3 2.2 2 0 .8.4 1.4.8 1.4s1.6 1.3 2.5 3c1 1.6 2.3 3 2.8 3 1.7 0 6.1-3.8 7.4-6.3.6-1.2 1.7-2.1 2.3-2 7.2 1.5 9.2 1.5 9.2-.1 0-1.1.9-1.6 2.8-1.6 1.8 0 4.2-1.4 7-4 2.6-2.4 5.3-4 6.7-4 2.3 0 3.2-1.7 2.6-5.3 0-.4.8-.7 1.8-.7 2.1 0 3.3-2.2 2.5-4.5-.4-1 .6-2 3-3.1 2.4-1.2 4-2.9 5-5.6 1.1-2.5 2.3-3.9 3.6-4 1.1 0 2.6-.1 3.3-.2 2.2-.2 3.6-2 2.5-3.4-.8-.9-.6-1.2.6-1.2 1 0 1.6-.9 1.6-2.5 0-2.5 2.3-3.5 3.5-1.5.4.7 1.4.5 2.8-.5 1.2-.8 3.2-1.5 4.5-1.5 2.7 0 4.8-1.8 6.2-5.4.5-1.4 1.6-2.6 2.4-2.6 1.5 0 3.9 3.3 3.1 4.2-.3.3.6 1 2 1.6 2.4 1.1 2.5 1 1.9-1.4-.5-2-.3-2.5.7-2.2.8.3 1.4 1 1.4 1.6 0 .6.5 1.6 1.2 2.3 1.6 1.6 2.9-1.3 1.8-3.9-.5-.9-.7-2.7-.6-3.9.1-1.1-.3-2.4-.8-2.8-1.6-.9.5-4.3 3.2-5.6 1.2-.5 3.7-1.9 5.6-3 2.5-1.5 4-1.8 5.5-1.2 1.7.8 2.8.2 6.2-3.2 3.4-3.6 3.9-4.6 3.2-6.6-.5-1.3-1.4-2.6-2-3-.6-.4-.8-1.4-.3-2.5.4-1.1.9-4.1 1.1-6.9.2-2.7 1-5.6 1.8-6.4 1.3-1.2 1-1.8-2-4.7-1.9-1.9-4.3-3.4-5.3-3.4-1.8 0-5.6-3.3-10.3-8.9-1.7-2-1.7-2.1.5-2.6 1.9-.5 2.2-1.2 2-5.1-.1-3.1-.7-5-2-5.9-1.7-1.4-1.7-1.4.1-1.5 1.5 0 1.7-.4 1-2.8-.5-1.5-.8-4.4-.8-6.5 0-3.2-.4-3.9-2.6-4.4-1.4-.3-3.1-1.5-3.8-2.5-.7-1-1.9-1.8-2.5-1.8-1.5 0-8.7-7.5-8.7-9 0-.6-1.8-3.8-4-7s-4-6.6-4-7.4c0-.9-1.1-2.3-2.5-3.2-1.4-.9-2.4-2.4-2.3-3.3.8-3.5-10.8-10.1-12.6-7.2-1 1.6-8.5 2.4-10.1 1.1-.8-.7-1.5-.9-1.5-.5s-.6.2-1.4-.5c-.8-.6-1.3-1.7-1-2.5.3-.7.1-1.6-.5-2-1.6-.9-1.3-6.1.4-7.5 1-.9 1.2-1.7.6-2.3-1.4-1.4 1.8-6 3.6-5.3 1.8.7 8.3-1.9 8.3-3.3 0-.6.8-1.1 1.8-1.1 2.5 0 8.2-2.9 8.2-4.2 0-.5.6-.8 1.4-.5.8.3 1.7-.1 2-.8.7-1.9 7-1.4 9.4.8 1.1 1 3.2 1.7 4.8 1.7 8.6-.3 16.4 3.1 16.4 7 0 1.9.9 2.3 7.1 3.3 2.2.3 2.9-.3 4.7-4.4 1.7-3.7 2-5.3 1.2-7.3-.7-2.1-.6-2.6.5-2.6.8 0 1.5-.7 1.5-1.6 0-.8.4-1.3.9-1 .4.3 1.6-.3 2.6-1.4 1.6-1.8 1.7-2.5.5-8-1.2-5.6-1.1-6.2.5-7.4 1.1-.8 1.6-2 1.2-2.9-.3-.8.1-2.1.9-2.7.8-.7 1.4-2.1 1.4-3.1 0-1.1.9-2.7 2-3.6 1.5-1.3 1.9-2.5 1.4-4.9-.4-2.4 0-3.8 2.3-6.5 1.5-1.9 3.3-3.7 4-4.2.7-.4 2-1.5 2.9-2.5 1-.9 1.8-1.5 1.8-1.2.1.2 1.1-.2 2.3-1.1 1.5-1.1 1.9-1.9 1.2-2.9-1.3-2.2-1.1-3 .7-3 .8 0 1.2-.5.9-1-.4-.6-1.5-.8-2.5-.5-1.4.4-2.1-.4-3.5-3.7-1.8-4.6-6.1-9.8-8.1-9.8-2.2 0-4.6-4.8-3.4-6.9.7-1.4.6-2-.5-2.5-1.2-.4-1.4-1.6-1-4.8.3-2.4.2-3.7-.1-3-.9 1.8-2.4.4-2.4-2.3 0-1.6-.5-2.3-1.3-1.9-.7.2-3.4-1.1-5.9-3-4-3.1-4.8-3.3-5.8-2-.8.9-2.1 1.2-3.4.8-1.2-.4-3.8-.6-5.8-.6-3.1.2-3.7-.2-4-2.1-.2-1.4-1-2.2-2.3-2.3-2.9-.1-5.5-1.4-5.5-2.9 0-.7-.7-1.5-1.5-1.9-.8-.3-1.2-1.2-.9-1.9.3-.9-.6-1.9-2.6-2.7-2.6-1.1-2.9-1.5-1.6-2.2 1.3-.7 1.3-1.3.4-3.6-.7-1.5-1.8-3.2-2.6-3.9-1.2-1-1-1.6 1.2-3.6 2.5-2.4 2.6-2.4.9-6.6-1.4-3.7-1.5-4.4-.2-5.7 2-2 1.3-8.1-1.1-8.9-1-.3-2-1.9-2.3-3.5-.4-1.6-1.6-3.4-2.9-4.1-1.3-.6-3.3-2.3-4.5-3.8l-2.1-2.6-1.2 2.5c-1.8 3.9-8.8 9-12.2 9-2.1 0-2.7.4-2.2 1.2.5.9.2.9-.9-.1-2.4-1.9-2.1-4.2.8-7.3 1.4-1.5 2.5-3.3 2.5-4 0-.8.7-2.4 1.6-3.6.8-1.2 1.2-2.7.9-3.2-1-1.6 1.5-8 3-8 .9 0 1.3-1.3 1.1-4.3-.2-4.5 1.7-8.7 4-8.7.8 0 1.4-.5 1.4-1.1 0-.7.8-.6 2.3.4 2 1.3 2.4 1.3 3.7-.2 1.4-1.4 1.5-1.4 1.8.5.5 3.4 7.6 6 9.3 3.3.3-.5 2.7-1.6 5.5-2.4 4.2-1.3 5.1-2 6.6-5.5 1.2-2.8 2.3-4 3.7-4 1.4 0 2.3-.8 2.7-2.5.3-1.3 1.2-2.9 2-3.6.8-.6 1.4-2.2 1.4-3.5 0-1.3.5-2.4 1-2.4.6 0 1-.7 1-1.5 0-.9 1-1.5 2.6-1.5 2 0 2.5-.4 2-1.6-.4-1 .1-2.5 1-3.5 1.4-1.6 1.5-2.1.3-3.5-1.1-1.4-1.1-1.8.5-3 1.1-.8 1.6-1.9 1.2-2.9-.4-1.1 0-1.8 1.3-2.2 2.1-.5 2.6-2.5 3.7-14.6.6-7.4.7-7.7 3.1-7.7 2.3 0 2.5-.3 2-3-.4-1.6-.3-2.9.1-2.8 1.3.3 10.2-2.4 10.2-3.1 0-.4-.5-1.2-1.1-1.8-.5-.5-1.2-3.7-1.4-6.9l-.3-6 5.4.1c3 .1 5.4-.2 5.4-.6 0-.4 1.1-1 2.5-1.3 1.4-.4 2.5-1.3 2.5-2.1s1-2 2.3-2.6c1.2-.7 2.7-1.9 3.3-2.7.6-.9 1.8-1.3 2.8-.9.9.4 1.6.1 1.6-.6s.4-1.8.9-2.6c.8-1.3 1.2-1.3 2.6-.1 1.5 1.2 1.7 1.2 1.3-.7-.2-1.3.5-2.8 1.6-3.6 1.8-1.3 1.7-1.5-2-5.1-2.1-2-4.3-3.5-5-3.2-1.4.6-2.6-3.1-1.3-4 .6-.4.6-1.1 0-1.8s-.8-1.6-.4-1.9c.3-.4 0-1.3-.6-2.1-.7-.8-1.1-2.3-.9-3.3.1-1-.1-2.4-.6-3.2-.5-.7-1-3.3-1.2-5.6-.3-4.2-.2-4.4 2.9-5 1.8-.3 4.2-1.1 5.4-1.7 1.7-.8 2.6-.8 3.7.1 2.2 1.8 2.6 0 .9-4.4-.8-2.2-1.5-5-1.5-6.2 0-1.4-.7-2.3-1.9-2.5-2.1-.3-2.2-2.4-.1-2.2.6.1 1.2-.2 1.2-.8 0-.5 1.6-1.6 3.5-2.4 3.8-1.6 4.8-4.7 1.8-5.8-1-.4-1.4-.4-1.1 0 1.6 1.5-1.7 3.1-4.6 2.3-2.1-.6-3.2-.5-3.8.4-.6.9-1.4.8-3.6-.4-2-1.1-3.4-1.3-4.5-.7-1.1.6-2.5.5-3.8-.3-1.7-.9-2-.8-1.3.3.6 1 .5 1.1-.7.2-.8-.7-2.8-1.5-4.5-1.8-1.7-.4-4.8-2.5-6.9-4.6-2.2-2.2-4.7-4-5.7-4s-3-.8-4.5-1.7c-1.4-.9-4.1-1.6-5.9-1.5-3.7.3-8.4-2.2-8.4-4.4 0-.8-.9-1.4-2-1.4-1.4 0-2.7-1.5-4.5-5-1.4-2.8-3.1-5-3.7-5-.6 0-2.2-1-3.5-2.1-2-2-2.3-2-2.9-.5-.4 1-1.8 1.6-3.9 1.6-1.9 0-3.9.8-4.9 1.9-2.8 3.1-6.6 3.3-7.8.5l-1.1-2.4-2.3 2.1c-2.4 2.2-2.2 2.3-10.9-3-1.6-1-3.5-1.6-4.1-1.4-.7.2-2.1-.7-3.2-2.1-1.1-1.4-2.6-2.6-3.4-2.6-.8 0-2.2-.8-3.1-1.8-1.5-1.6-3.9-2.9-12.4-7-2.1-.9-3.9-2-4.1-2.5-.2-.4-.8-.7-1.3-.7-.6 0-.6.8.1 1.9.9 1.8.7 1.9-1.7 1.5-1.4-.3-3.3-.9-4.2-1.4-1-.5-2.4-.4-3.4.2-1.4.7-2.3.5-3.7-.7-1-.9-2.4-1.4-2.9-1-.6.3-1.1-.1-1.1-.9 0-1 .6-1.3 1.5-1 1.7.7 1.9-.9.5-3.7-.9-1.5-.7-1.9.5-1.9 3.3 0-2.2-6.9-5.6-7-.8 0-2.8-1.3-4.4-3-1.5-1.6-3.2-2.7-3.7-2.4-.5.3-1.9-.1-3.2-1-2.2-1.4-2.5-1.3-4.1.4zm166 89c.3.5.1 1-.4 1-.6 0-1.1-.5-1.1-1 0-.6.2-1 .4-1 .3 0 .8.4 1.1 1zm-492.5 20c0 .5-.4 1-1 1-.5 0-1-.5-1-1 0-.6.5-1 1-1 .6 0 1 .4 1 1zm85.4 40.3c1.8 1.3 1.8 1.4.1 2.1-1.1.4-2.2.1-2.7-.6-1.8-2.9-.4-3.7 2.6-1.5zm66.6 37.7c0 .5-.2 1-.4 1-.3 0-.8-.5-1.1-1-.3-.6-.1-1 .4-1 .6 0 1.1.4 1.1 1zm11.8 1.8c.2.7-.2 1-1.2.6-.9-.3-1.6-1.1-1.6-1.6 0-1.3 2.3-.5 2.8 1zm-214.7 17.9c1.3 1.6 1.2 1.7-.3.4-1.7-1.3-2.2-2.1-1.4-2.1.2 0 1 .8 1.7 1.7zm6.7 41.6c1.7.1 1.5 1-.7 2.9-1.8 1.5-2 1.5-2.7 0-1.4-3.3-1.3-4.4.4-3.7.9.4 2.3.8 3 .8zm-3.6 23c.7 1.4.7 2.2-.2 3-1 .9-1.4.9-1.7-.1-.3-.6-1.2-1.2-2.2-1.2-.9 0-1.7-.8-1.8-1.8-.2-2.4 4.5-2.3 5.9.1zm11.4 1.8c.4.6 2 .8 4 .5 2.6-.5 3.8-.2 5.4 1.4 1.6 1.6 1.9 2.5 1.1 3.4-.6.7-.8 1.6-.4 1.9.3.4 0 1.3-.7 2.2-1.1 1.3-2 .8-6.6-3.7-3-2.9-5.4-5.5-5.4-6 0-1.2 1.8-1 2.6.3zm-1.6 3.9c0 .5-.2 1-.4 1-.3 0-.8-.5-1.1-1-.3-.6-.1-1 .4-1 .6 0 1.1.4 1.1 1zm390.6 112.5c.4.8 1 1.2 1.5.9.5-.3.9-.1.9.4 0 .6.8.8 1.8.6 2.6-.7 5 1.7 5.7 5.8.6 3.1.4 3.8-1.7 4.9-2.7 1.4-6.8 5.1-6.8 6.1 0 .5.9.8 1.9.8 2.4 0 3.9 4.9 1.9 6.2-1.1.6-1.1 1 0 1.7 1 .6.8 1-.9 1.4-2.1.6-2.2.7-.5 3.3 2.3 3.4.8 5.3-2.8 3.6-1.9-.9-2.5-.8-3 .4-.3.8-1.3 1.4-2.2 1.4-.9 0-2.2.6-2.8 1.4-.7.8-4 1.6-8.3 1.9-6.2.5-7.3.3-8.9-1.4-1.7-1.9-1.8-1.9-3.2 1-1.3 2.7-1.6 2.9-4 1.8-4.6-2-7.2-4.9-7.2-7.8 0-2.1.7-2.9 3.1-3.8 2.5-.8 2.9-1.4 2.4-3.1-.6-1.9-.4-2 3.7-1.4 2.4.4 4.7 1 5.2 1.5.5.4 1.7.4 2.8-.2 1-.5 2.2-.7 2.7-.5 1 .7 2.1-1.7 2.1-4.5 0-1 .7-1.9 1.5-1.9s1.5-.5 1.5-1c0-.6 1-3.1 2.1-5.5 1.2-2.5 2.2-5.7 2.2-7.1 0-1.7.4-2.3 1.3-2 .7.3 1.8-.2 2.4-.9.7-.8 1.6-1.3 2-1 .5.3.7-.3.5-1.2-.5-3.3 2-4.7 3.1-1.8zm8.8 32c.3.9 0 1.5-.9 1.5-.8 0-1.5-.7-1.5-1.5s.4-1.5.9-1.5 1.1.7 1.5 1.5zm-303.7 149.9c-.3.7-.1 1.8.5 2.4 1.2 1.2.2 3.2-1.7 3.2-.9 0-1.3-1.1-1.2-3.3.1-1.7-.2-4.5-.6-6.2l-.9-3 2.2 2.8c1.2 1.5 2 3.4 1.7 4.1zm4.9 8.1c2 1.9.4 2-2.2 0-1.2-.9-1.4-1.4-.6-1.5.7 0 2 .7 2.8 1.5zm22.2 3.8c1.2 1.4.7 2.3-2.4 5-1.7 1.4-2.6 1.5-5.2.6-3.7-1.3-3.7-1.3-1.5-3.9 2-2.2 4.9-2.6 5.6-.8.3.8.6.6.6-.5.1-2 1.4-2.2 2.9-.4zm-31.2 11.6c-1.5 2.9-5.1 4.7-6.2 3-.8-1.4.5-2.8 3.9-4.3 1.8-.8 3.3-1.5 3.5-1.5.1-.1-.4 1.2-1.2 2.8zm-14.6 10.1c0 .5-.4 1-1 1-.5 0-1-.5-1-1 0-.6.5-1 1-1 .6 0 1 .4 1 1zm250 27.2c0 1.7-.3 1.8-1.5.8-.8-.7-1.5-1.9-1.5-2.6 0-.8.6-1.1 1.5-.8.8.4 1.5 1.5 1.5 2.6z"/><path d="M640.447 394.067c0 1 .4 2.5.9 3.3 1.5 2.3.3 3-2.6 1.5-2.4-1.3-2.9-1.3-3.7.2-.7 1.3-.1 2.4 2.7 4.9 3.1 2.9 3.8 3.1 5.9 2.2 4-1.9 2.7-10.4-1.9-13.2-.9-.5-1.3-.1-1.3 1.1zM313.947 100.367c-1 1.1-2.2 1.7-2.6 1.4-.5-.3-.6.2-.3 1 .3.9 1.7 1.6 2.9 1.6 1.3 0 3 .3 3.8.6 2 .7 3.3-3.2 1.7-5.1-1.7-2-3.4-1.9-5.5.5zM203.147 133.067c.6 1.6.4 1.6-.9.5-1.4-1.1-2-1-3.6.6-2.8 2.8-4.5 3.2-6.4 1.4-2.2-1.9-2.3-.4-.2 2.6.9 1.3 1.3 2.9 1 3.7-.3.8-.1 1.7.4 2 .6.4 1 1.5 1 2.7 0 1.5-.5 1.9-1.8 1.6-2.2-.6-8.3 3.4-7.4 4.8.4.6 1.4 1.3 2.4 1.7.9.3 2.2 1.8 3 3.3.7 1.5 2.4 3.1 3.7 3.6 2 .7 2.3.6 1.8-1.2-.3-1.1-.1-2 .5-2 .5 0 .8-1.6.7-3.5-.3-2.7.2-4.1 2.3-6 1.4-1.3 2.9-2.1 3.2-1.8.3.4.6.1.6-.5 0-.7 1.8-1.5 4.1-1.8 5-.8 10.7-6.3 6.7-6.4-.7 0-2.9-1.6-4.8-3.5-3.7-3.8-7.4-4.8-6.3-1.8zM411.247 135.867c.5 2.9.8 3.1 1.5 1.1.3-.8 0-1.9-.7-2.5-1-.9-1.2-.6-.8 1.4zM185.947 135.367c-.3.5-.1 1 .4 1 .6 0 1.1-.5 1.1-1 0-.6-.2-1-.4-1-.3 0-.8.4-1.1 1zM408.447 139.467c0 1.1.5 1.7 1 1.4.6-.3 1-1.3 1-2.1s-.4-1.4-1-1.4c-.5 0-1 .9-1 2.1z"/><path d="M186.447 139.867c-2.2 1.2-2.3 1.4-.7 2 2.3.9 4.7-.1 4.7-2 0-1.8-.8-1.8-4 0zM83.447 146.267c0 2.7-2.6 5.1-5.5 5.1-1.8 0-2.2.4-1.8 2 .4 1.6 0 2-1.7 2-2.1 0-2.2.1-.6 2.5 1 1.5 1.4 3.4 1 4.9-.4 1.9-.1 2.6 1.5 3.1 1.3.4 1.8 1.1 1.4 1.8-.4.7-1.5 3.3-2.4 5.9-1.5 4.5-1.5 4.9.3 6.4 1 1 1.8 2.4 1.8 3.3 0 .9 1.4 2.4 3 3.3 3.2 1.8 6.2 7.2 5.3 9.5-.3.8-1.4 1.1-3.2.7-2.1-.5-2.4-.4-1.3.7 1.9 2 1.4 3.9-1.3 4.9-1.5.6-2.5 1.7-2.5 2.9 0 1.1-.5 2.3-1.1 2.6-.6.4-.8 1.3-.5 2.1.3.8-.1 1.4-.9 1.4-.9 0-1.5 1-1.5 2.4 0 3.2 1.4 4 3.4 2.1 1.3-1.4 1.6-1.3 2.7.6.6 1.2.7 2.4.3 2.8-.5.3-.9 1.2-1 1.8-.2 2.9-.5 3.3-1.8 3.3-.8 0-1.8.5-2.1 1-.4.6-.3.9.2.8 1-.3 7.3 3.4 7.3 4.3 0 .3 3.5.7 7.8.8 4.6.1 8.1.7 8.7 1.4 1.2 1.4 5.5 1 5.5-.5 0-.6.8-1.7 1.8-2.4 1.4-1.1 1.5-1.6.5-3.3-1.8-2.8-1.7-3.1 1.1-3.1 1.4 0 2.7-.3 3-.8.2-.4 2.8-.7 5.6-.6 5.7.2 10.6-1.9 11.6-4.9.4-1.2 1.2-1.6 2.5-1.2 1.3.4 1.9.2 1.9-.9 0-.9.7-1.6 1.6-1.6 1 0 1.4-.8 1.2-2.4-.1-1.3.4-3.5 1.1-4.9 1.1-2.1 1.9-2.5 3.8-2.1 1.8.5 2.3.2 2.3-1.2 0-1.3.3-1.5 1.1-.7 1.6 1.6 4.7.4 5.1-2.1.2-1.1.8-1.9 1.3-1.8.6.2.9.7.8 1.1-.4 1.5 10.3-.2 12.9-2 1.4-1.1 3.1-1.9 3.6-1.9.6 0 1.2-1.2 1.4-2.6.2-2.1 1.3-3 5.3-4.5 2.8-1 6-1.9 7.1-1.9 1.2 0 2.4-.7 2.8-1.5.6-1.6 4.6-2.1 4.6-.6 0 1.6-7.4 8.1-9.2 8.1-1 0-1.8.4-1.8.9s-.9 1.1-2.1 1.4c-1.8.5-1.9.8-.7 2.6 1.4 2.3 4.3 2.8 5.4 1 .3-.6 2-.9 3.6-.7 2.4.4 3.1 0 3.9-1.9.5-1.3.9-3.5.9-4.7 0-1.5.7-2.6 2-2.9 1.2-.3 1.8-1.1 1.5-1.9-.4-.9.4-1.9 2-2.6 1.4-.6 2.5-1.6 2.5-2.2 0-.6.5-.8 1.1-.4 1.3.8 1.1.1-1.6-4.4-2.1-3.3-4.7-4.8-6.5-3.7-.6.4-.8 1.1-.5 1.6.4.5-.5.9-1.9.9-2 0-2.6.5-2.6 2.2 0 4.3-.8 4.6-12.5 5.1-1.8.1-3.5-.5-4.3-1.6-1.4-1.8-8.2-2.5-8.2-.8 0 .5-.9 1.1-2 1.4-1.4.3-2.4-.1-3.1-1.5-.7-1.4-1.4-1.7-2.1-1-.6.6-1.7.8-2.4.5-.8-.3-1.4-.1-1.4.5 0 .5-.9 1.2-2 1.5-1.5.4-2 0-2-1.5 0-1.4-.5-1.8-1.9-1.3-1.2.4-2.1 0-2.5-1.2-.4-1-.3-1.9.2-2.1 1.6-.5.1-4.1-2.4-6.1-1.3-1-2.9-3.6-3.5-5.8-1.1-3.5-1.5-3.9-4.1-3.5-1.5.2-2.6.8-2.3 1.2.3.4-.6 1.1-2 1.4-1.4.4-2.4 1.1-2.2 1.7.1.7-1.1 1.6-2.8 2.2-1.6.5-3.7 1.6-4.7 2.4-1 .9-1.8 1.1-2.2.4-.4-.6-1.3-.8-2.1-.4-.8.3-1.5 0-1.5-.7 0-1-.3-1-1.4-.1-.8.7-1.7.8-2 .3-.3-.5-2.7-.7-5.3-.5-4.3.4-5.1.2-7.3-2.3-1.9-2.1-2.1-2.6-.7-2.1 2.2.8 5.8-2.5 4.7-4.3-1-1.6 2.4-5 5-5 1.1 0 2-.6 2-1.4 0-.8.6-1.6 1.2-1.8 1-.4 1-1 0-3.2-1.2-2.7-3.6-2.8-2.6-.2 1 2.6-1.4 2.6-3.4.1-2.4-3-3.8-3.2-4.5-.5-.4 1.7-1.1 2-3.4 1.4-1.5-.3-4-1.5-5.5-2.5-3.4-2.4-3.8-2.4-3.8 0zM198.247 162.067c.7.3 1.6.2 1.9-.1.4-.3-.2-.6-1.3-.5-1.1 0-1.4.3-.6.6z"/><path d="M193.447 185.367c0 .5.5 1 1.1 1 .5 0 .7-.5.4-1-.3-.6-.8-1-1.1-1-.2 0-.4.4-.4 1zM179.247 202.067c.5 1 .7 2.5.4 3.3-.4 1.3-.3 1.3 1.1.2 1.3-1.1 1.4-1.7.4-3.3-1.5-2.4-3.1-2.5-1.9-.2zM54.447 278.467c0 .5.5.7 1 .4.6-.3 1-.8 1-1.1 0-.2-.4-.4-1-.4-.5 0-1 .5-1 1.1zM41.947 284.967c-4.6 4.4-6.3 8.6-2.7 6.3 1.2-.7 3-.9 4.8-.4 1.6.4 2.3 1 1.7 1.2-.7.3-1.3 1.3-1.3 2.4 0 1.1-.9 2.1-2.3 2.5-1.8.4-2.4 1.3-2.5 3.4 0 2.1.3 2.7 1.4 2.3.8-.3 2 0 2.8.6 1.1.9 1.8.4 3.5-2.4 1.1-2 2.1-4.4 2.1-5.3 0-1 .7-2.8 1.6-4 1.6-2.4 1.2-4.2-1.2-4.2-1.8 0-1.8-1.4.1-3 1.8-1.5 1.3-2.6-1.5-3.3-1.4-.4-3.3.7-6.5 3.9zM37.547 305.667c-.8 1.1-2.3 1.4-4.6 1-2.7-.4-3.4-.2-4 1.6-.3 1.2-1 1.9-1.5 1.6-.5-.3-1.4.4-2 1.5-.6 1.1-1.6 2-2.1 2-.6 0-2.8 1.3-4.9 3-3.8 3-8.3 3.9-9.5 2-1.1-1.8-6.9-1.1-8.3 1-1 1.7-.9 2.5 1 5 2.2 3.1 4.2 3.8 5.3 2 1.1-1.8 4.5-1.1 4.5 1 0 1.9 3.6 4.7 4.7 3.6.9-.8 7.5 2.2 8.9 4.2 1 1.4 1.5 1.5 2.5.4 1.9-1.8 4.6-1.5 6.3.9 1.8 2.7 3.8 1.7 2.7-1.4-.6-1.4-1.5-2.1-2.8-1.9-1.1.1-2.6-.4-3.3-1.3-1-1.2-1-1.5.2-1.5.8 0 2-1 2.7-2.3 1-1.8.9-3-.4-6-2.6-6.3.1-9.6 5.5-6.7 1.5.8 1.7.6 1.3-1-.3-1.1-.1-2 .5-2 1.8 0 2-3.7.3-5.9-1.5-2-1.9-2.1-3-.8zM760.447 356.167c0 .5.7 1.5 1.5 2.2.8.7 1.5.8 1.5.2 0-.5-.7-1.5-1.5-2.2-.8-.7-1.5-.8-1.5-.2zM776.447 417.067c0 2.2 1.9 6.3 3 6.3.6 0 .5-1-.2-2.8-1.4-3.3-2.8-5-2.8-3.5zM766.847 424.367c-1.6.6-2 1.5-1.7 3.7.3 1.9-.2 3.5-1.6 4.9-1.1 1.2-1.7 2.5-1.4 2.8.4.3-.1.6-.9.6-.9 0-2.1-.6-2.8-1.4-1-1.3-1.6-1.1-4.1 1.1-1.6 1.5-2.9 3.5-2.9 4.5 0 2.2 1.3 2.3 3.4.3 1.4-1.4 1.7-1.4 3.6.5 1.2 1.2 3.3 2 5.3 2 2.6-.1 2.9-.2 1.5-1.1-1.7-.9-1.6-1.2.8-3.4 1.4-1.3 3.1-2.2 3.7-1.9.8.3 1.3-1.3 1.5-4.9.3-6.2-1.2-8.9-4.4-7.7zm.1 9c.3.5.1 1-.4 1-.6 0-1.1-.5-1.1-1 0-.6.2-1 .4-1 .3 0 .8.4 1.1 1zM743.547 429.567c-.7 1.9-.4 2.5 1.3 3.2 1.3.5 1.6 1 .9 1.3-.7.3-1.3 1.1-1.3 1.9 0 1.2-.4 1.2-2.9-.1-3.6-1.8-6.1-1.1-5.4 1.6.6 2 3.7 2.6 4.8.9 1-1.6 2-1.2 5 1.7 2.6 2.6 2.7 2.6 1.6.5-1.5-2.8-.9-3.9.9-1.7 1.1 1.3 1.5 1 3.4-1.8 2.1-3.1 2.2-3.3.6-6.2-2.2-4-7.6-4.8-8.9-1.3zM754.547 430.267c-1.4.9-.5 1.8 1.8 1.7 1.8-.1 2.7-2.6.9-2.6-.7 0-1.9.4-2.7.9z"/><path d="M768.447 437.367c-.8 2.6-.7 4.1.2 3.2.6-.6.8-1.6.5-2.4-.3-.7-.6-1.1-.7-.8zM773.747 438.067c-1.8.7-1.6 2.3.2 2.3.8 0 1.5-.7 1.5-1.5s-.1-1.5-.2-1.4c-.2 0-.9.3-1.5.6zM732.447 438.867c0 .2 1 1 2.3 1.6 2 1.1 2.1 1.1.8-.4-1.3-1.6-3.1-2.3-3.1-1.2zM769.947 442.367c-.3.5.1 1 .9 1 .9 0 1.6-.5 1.6-1 0-.6-.4-1-.9-1-.6 0-1.3.4-1.6 1zM741.447 443.367c0 .5.5 1 1 1 .6 0 1-.5 1-1 0-.6-.4-1-1-1-.5 0-1 .4-1 1zM753.447 444.967c0 .8.5 1.2 1 .9.6-.3 1-1 1-1.6 0-.5-.4-.9-1-.9-.5 0-1 .7-1 1.6zM747.947 449.067c1.8 1.6 3.1 2.1 3.3 1.4.8-2.3-.8-4.1-3.5-4.1l-2.8.1 3 2.6zM83.847 449.867c1.3 2 1.4 2.5.2 2.5-.7 0-2.7.7-4.2 1.5-1.6.8-3.7 1.2-4.7.9-1.3-.4-2 0-2.4 1.5-.3 1.2-1.3 2.1-2.4 2.1-1.1 0-1.9.7-1.9 1.5 0 .9-1.1 2-2.4 2.5-1.3.5-2.7 1.3-3 1.9-.4.6-1.4.7-2.3.4-1-.4-2.2.3-3.3 1.7-1.7 2.3-1.7 2.4.4 4.1 1.7 1.4 1.9 2.1 1 3.6-1.9 3.3-.5 10.3 2.1 10.3.7 0 1.6.7 1.9 1.6.3.8 1 1.3 1.5.9.6-.3 1.4.2 1.9 1.1 1.1 2 3.6.9 2.8-1.2-.7-1.9.8-1.8 2.4.1.7.8 1.9 1.5 2.6 1.5.8 0 1.4.4 1.4 1 0 .5.4 1 .9 1 .9 0 .2-5-1-6.5-.4-.6-.5-3-.2-5.3.6-4.2.6-4.2 3.9-3.6 3 .6 3.4.3 4.8-2.9.8-2 2.4-4 3.5-4.7 1.2-.6 2.1-1.5 2.1-2.1 0-1.7 2.4-3.6 3.9-3.1.7.2 1.7-.2 2.2-.9.6-1.1 1.4-1.1 3.9-.2 5.2 2 2.3-.4-3.5-2.8-3.5-1.4-5.5-2.9-5.5-3.9 0-1.8-3.5-5.2-6.4-6.3-1.8-.7-1.8-.6-.2 1.8zM755.047 450.467c2.4 2.6 3 2.8 3.3 1.3.3-1.9-2.3-4.4-4.8-4.4-1 0-.5 1 1.5 3.1zM767.247 450.067c-1 .3-1.8 1.1-1.8 2 0 .9-.6 1.3-1.5.9-1-.3-1.5.1-1.5 1.2 0 1-.6 2.7-1.4 3.7-1.3 1.8-1.4 1.8-2.1-.4l-.7-2.3-1.5 2.1c-.9 1.3-2.5 2.1-4.3 2.1-2.7 0-2.8.2-2 3.1.5 1.6.7 3.6.4 4.3-.3.8 1.3 2.7 4 4.7 4.3 3.1 5.7 4.9 3.7 4.9-1.3 0-2.2 4.3-1.1 5.4.5.5.1 1.9-1 3.4-1.3 1.6-1.7 2.9-1.1 4.1.5.9.6 2.2.3 3-.3.8.1 1.2.9.9.8-.3 1.3-1.3 1.3-2.2-.2-2.4 1.5-1.9 2.5.7 1 2.4 5.5 6 6.4 5.1.3-.3.3-1.2.1-1.9-.3-.7.2-2.7 1.1-4.4 1.2-2.4 2.2-3.1 4.6-3.1 2.9 0 3-.2 2.4-3.1-.7-2.9-.5-3.1 1.4-2.6 2.6.7 2.7-.5.1-2.8-2.8-2.5-2.5-3.5 1-3.5 2.3 0 3-.4 3-2 0-1.4.5-1.8 1.6-1.3 1.4.5 1.5.1.9-2.8-1-4.6-2.4-6.2-4.1-4.8-1 .8-1.9.6-3.7-.7-2.4-1.8-2.4-1.9-.7-4.9 1.6-2.9 1.6-3.2.1-5.2-2.2-2.6-5.1-4.1-7.3-3.6zM107.547 456.967c0 1.1.3 1.4.6.6.3-.7.2-1.6-.1-1.9-.3-.4-.6.2-.5 1.3zM786.447 473.467c0 .5.5.7 1 .4.6-.3 1-.8 1-1.1 0-.2-.4-.4-1-.4-.5 0-1 .5-1 1.1zM73.447 494.567c0 2.1.5 3.8 1.1 3.8.5 0 .7-.5.4-1-.3-.6-.1-1 .4-1 1.5 0 1.4-1.3-.4-3.6-1.3-1.8-1.4-1.7-1.5 1.8z"/><path d="M759.147 496.367c-.3 1.3 0 2 .9 2 1.5 0 1.9-2.6.5-3.4-.5-.3-1.1.3-1.4 1.4zM721.647 574.467c.2.7 1 1.5 1.7 1.7.8.3 1.2-.1.9-.9-.2-.7-1-1.5-1.7-1.7-.8-.3-1.2.1-.9.9zM415.447 577.767c0 .2.7.7 1.6 1 .8.3 1.2.2.9-.4-.6-1-2.5-1.4-2.5-.6zM412.647 580.967c-.7.8-1.1 1.4-1 1.5 3 .7 4.8.6 5.4-.3.5-.7.2-.9-.9-.5-.9.3-1.7 0-1.9-.8-.2-1.1-.5-1.1-1.6.1zM484.347 581.167c.6 1.1 2.4 2.5 4.1 3.2 2.5 1.1 3.1 1.8 2.7 3.7-.3 1.7 0 2.3 1.3 2.3 2.8 0 2.9 1 .6 5.3l-2.2 4.2h2.8c1.5 0 2.8-.3 2.8-.8 0-.4.5-.7 1-.7.6 0 1 .7 1 1.5s.9 1.5 2 1.5 2 .4 2 1c0 1.8 2.9 1 3.5-1 .3-1.1 1.2-2 1.9-2 1.5 0 1-4.6-.5-5.6-.5-.3.1-1.4 1.3-2.3l2.2-1.8-2.2-.7c-1.2-.4-2.2-1.1-2.2-1.6 0-2-5.4-4.3-11.3-4.8-3.4-.2-7.5-1.1-9-1.9-2.7-1.3-2.8-1.3-1.8.5zM715.447 597.167c0 5.7 3.3 8.3 4.9 3.9.6-1.5.4-2.7-.7-4-.8-.9-1.1-1.7-.6-1.7 1.1 0-1.7-2-2.8-2-.5 0-.8 1.7-.8 3.8zM708.747 606.967c1.6.8 3.6 1.3 4.4.9 1-.3 2.7.4 4.1 1.7 2 1.8 2.4 1.9 1.9.5-.4-1.1-.1-1.7.8-1.7.8 0 1.5-.4 1.5-.9 0-1.3-3.4-2.4-3.8-1.2-.3.9-1.6.9-9.2-.5-2.4-.4-2.4-.4.3 1.2zM502.247 607.567c1.1 1.4 1 1.8-.5 2.8-1.1.7-1.2 1-.3.7.8-.2 2.4-.1 3.5.3 1.6.6 2.1.4 2.1-1.1 0-1-.2-1.6-.5-1.3-.2.2-1.6-.3-3-1.3-2.2-1.4-2.4-1.4-1.3-.1zM496.047 613.467c.3.6 0 1.5-.7 2-.7.4-1 1.2-.5 1.6.4.4 1.4-.1 2.2-1.1 1.8-2.6 1.8-3.6-.2-3.6-.8 0-1.2.5-.8 1.1zM493.347 622.067c-.1 1-.1 2.5 0 3.4.1.9-1.6 3.4-3.8 5.5-3.6 3.6-3.8 4.1-2.5 5.9.8 1 1.2 2.7.8 3.7-.3 1-.1 1.8.5 1.8s1 .6.9 1.2c-.2.8.6 1.2 2 1 1.3-.2 3.3.5 4.4 1.5 1.1 1 2.2 1.7 2.4 1.5.2-.1.5-.2.7-.1 2 .6 3.7.5 3.7-.2 0-.5-.9-.9-1.9-.9-1 0-2.1-.7-2.5-1.5-.3-.8-.1-1.5.5-1.5s.6-.7-.1-1.9c-.5-1.1-1-3.4-1-5.1 0-1.7-.7-4.5-1.6-6.2-.9-1.7-1.4-4.6-1.2-6.4.2-1.9 0-3.4-.4-3.4s-.9.8-.9 1.7zM186.347 624.267c-1.4 1.5-4.7 3.2-7.3 3.9-4 1-4.6 1.5-4.1 3.2.7 2.3-1.5 3.6-4.2 2.5-3.7-1.6-5.8-1-7 1.7-.9 2.2-1.9 2.8-4.3 2.8-2.1 0-2.9.4-2.4 1.2.5.8.2.9-.9.5s-2.7.3-4.3 1.8c-3 2.7-4.1 3-7.8 1.6-1.8-.7-2.8-.6-3.6.5-.7.7-.9 1.4-.5 1.4s0 1.1-.8 2.4c-1.5 2.3-1.5 2.4.7 3 3.4.8 6.4 8.6 3.4 8.6-.7 0 .3 1.4 2.2 3 2.2 1.8 4.3 2.7 5.5 2.4 2.1-.5 9.2 3.3 8.2 4.3-.4.3.5 2.2 1.8 4.2 1.4 1.9 2.5 4.6 2.5 5.8 0 1.3.5 2.2 1.2 2.1.6-.2 1.8 1 2.6 2.6s2.2 3 3.1 3.3c1.8.5 4.6 8.7 3.5 10.5-.3.5-1.5.8-2.5.5-1-.3-2.2-.1-2.5.4-.3.5.6.9 1.9.9 1.4 0 2.7.6 3 1.2.6 1.7-1.1 6.1-2.1 5.4-.4-.2-1.8.3-3 1.3l-2.2 1.6 2.2 3.1c1.3 1.7 3 2.8 3.9 2.6.9-.1 3 .8 4.5 2.1l2.9 2.5 2.8-2c2.6-1.8 2.9-1.9 5.2-.4 1.3.9 3.1 1.3 3.9 1 .9-.3 1.6-.1 1.6.5s.7.8 1.5.5c1.2-.5 1.1-1.1-.7-3.4-1.7-2.4-1.9-3.6-1.4-8.4.4-3.1 1.2-5.6 1.7-5.6s1.2-1.8 1.5-4c.5-3 1.1-4 2.5-4 1.1 0 1.9-.7 1.9-1.5s1.1-2.2 2.5-3.1c1.4-.9 2.3-1.9 2-2.2-.2-.3 0-1.1.5-1.7.7-.8.5-2.4-.5-4.8-1.4-3.4-1.4-3.7.6-5.1 1.7-1.1 2-2 1.4-4.5-.5-2.6-.4-3 .9-2.5 2.3.9 2-1.9-.3-4-1-.9-3.4-1.8-5.2-1.9-1.9-.1-4-.6-4.7-1-.7-.5-1.9-.2-2.8.7-1.8 1.8-2.8 2-5.2.7-.9-.5-2.6-1.3-3.7-1.7-1.8-.6-1.8-.8-.3-1.1 1-.3 2.1-1.5 2.4-2.9.3-1.3 1-2.4 1.4-2.4 1.5 0 1.9-4.1.4-4.7-.8-.3-1.4-.9-1.4-1.4 0-.4.8-.5 1.7-.2 1.3.5 1.5.3.9-1.3-.9-2.2-.9-2.1-.7-5.7.1-2 .8-3 2.6-3.7 1.4-.5 2.5-1.4 2.5-2 0-.6.6-.8 1.3-.4.9.6.9.4-.1-.8-1.1-1.4-1-1.8.4-2.6 1.6-.9 1.5-1.3-1.3-4-2.1-2.2-2.7-3.4-2-4.1.6-.6.9-1.1.7-1.2-4.2-.6-5.8-.2-8.1 2zM511.947 636.467c-.4.6-.4 2.6 0 4.5.6 3.4.5 3.4-2.2 2.8-1.5-.4-3.6-1.1-4.5-1.6-1.5-.7-1.8-.4-1.8 1.7 0 1.6.6 2.5 1.5 2.5.8 0 1.5.5 1.5 1.1 0 .6.9.8 2 .4 1.5-.5 2-.2 2 1.2 0 3.9 11.9 7.1 13.8 3.8.6-1.2 1.4-1.4 3.3-.7 1.7.7 3 .6 4.2-.3 1.9-1.3 1.3-2.5-1.4-2.5-1.1 0-2-1-2.4-2.9-.5-2.2-1.9-3.6-6.6-6-3.2-1.8-5.9-3.6-5.9-4.2 0-1.2-2.7-1.2-3.5.2zM538.447 653.367c-1.4 1-2.1 2.2-1.6 2.7.5.4 1.1.2 1.3-.5.3-.6 1.3-1.2 2.4-1.2 1 0 1.9-.7 1.9-1.5 0-2-1-1.9-4 .5zM550.447 655.367c0 .5.4 1 .9 1 .6 0 1.3-.5 1.6-1 .3-.6-.1-1-.9-1-.9 0-1.6.4-1.6 1zM582.447 671.467c0 .5.5.7 1 .4.6-.3 1-.8 1-1.1 0-.2-.4-.4-1-.4-.5 0-1 .5-1 1.1zM545.147 686.867c.3.8.9 1.2 1.4.9 1.2-.7 1.1-1.1-.5-1.7-1-.4-1.3-.1-.9.8z"/><path d="M159.847 688.967c.3.9.6 2 .6 2.5s.9 1.8 2 2.9c2.4 2.4 7 2.7 7 .5 0-.8.5-1.5 1.1-1.5.5 0 .7-.5.4-1-.3-.6-1.5-1-2.7-1-1.1 0-3.1-.9-4.5-2-3.1-2.4-4.7-2.6-3.9-.4zM188.747 722.067c-4.7 1.6-5.3 2.7-2.3 4.3 1.1.6 1.7 1.6 1.4 2.5-.4.8-.1 1.5.5 1.5s1.1.9 1.1 2.1c0 1.1-.5 1.7-1 1.4-.6-.4-.5.5.2 1.9.6 1.4 1.5 2.6 1.9 2.6.4 0 1 1 1.3 2.2 1.3 4.9 2.3 5.4 5 2.8 1.5-1.3 2.6-2 2.6-1.7 0 .4.8-.1 1.8-1.1 1.6-1.5 1.7-2 .4-3.9-.7-1.2-1.3-2.6-1.3-3 .2-1.6-5.2-11.2-6-10.8-.4.3-.9-.1-1.1-.8-.2-1.2-1-1.2-4.5 0zm9.4 15.9c-1 1-4.7-2.6-4.7-4.5 0-1.1.7-.8 2.7 1.1 1.5 1.5 2.4 3.1 2 3.4z"/></g></svg>