<?xml version="1.0" standalone="no"?>
<!DOCTYPE svg PUBLIC "-//W3C//DTD SVG 20010904//EN"
 "http://www.w3.org/TR/2001/REC-SVG-20010904/DTD/svg10.dtd">
<svg version="1.0" xmlns="http://www.w3.org/2000/svg"
 width="324.008564pt" height="682.350700pt" viewBox="0 0 324.008564 682.350700"
 preserveAspectRatio="xMidYMid meet">
<metadata>
Created by potrace 1.15, written by Peter Selinger 2001-2017
</metadata>
<g transform="translate(-828.488842,1278.000000) scale(0.100000,-0.100000)"
fill="#222222" stroke="none">
<path d="M11113 12768 c-19 -25 -23 -37 -15 -42 5 -3 19 8 31 24 16 22 18 30
8 30 -8 0 -19 -6 -24 -12z"/>
<path d="M11013 12760 c-13 -5 -23 -14 -23 -20 0 -6 -5 -8 -10 -5 -6 4 -39 -7
-74 -24 -66 -33 -162 -44 -153 -18 5 16 -41 47 -70 47 -18 0 -23 -6 -23 -25 0
-13 -8 -40 -17 -60 -13 -27 -23 -35 -44 -35 -24 0 -28 -5 -34 -40 -7 -43 -27
-60 -68 -60 -14 0 -27 -6 -30 -14 -3 -8 -16 -16 -29 -18 -19 -2 -23 -9 -22
-35 1 -23 -3 -33 -12 -33 -8 0 -17 -13 -20 -30 -4 -16 -15 -32 -25 -35 -11 -4
-19 -13 -19 -21 0 -8 -9 -14 -20 -14 -11 0 -20 -5 -20 -11 0 -5 4 -8 8 -5 5 3
25 1 44 -5 26 -7 37 -16 41 -34 2 -14 -1 -28 -6 -32 -17 -10 33 -20 76 -15 37
4 44 15 38 60 -2 10 3 10 21 -2 21 -14 25 -13 47 3 15 11 24 29 25 47 1 25 5
29 29 27 31 -2 34 12 12 44 -14 20 -14 25 3 54 10 19 31 37 47 42 17 5 37 16
46 23 8 8 25 14 37 14 17 0 22 6 22 25 0 13 6 28 14 32 7 4 18 18 24 30 8 15
18 20 32 16 26 -7 80 16 80 34 0 10 4 11 19 3 16 -8 25 -4 50 20 16 17 36 30
45 30 13 0 14 4 4 25 -12 27 -13 28 -45 15z"/>
<path d="M10232 12315 c8 -17 8 -28 0 -37 -7 -9 -6 -18 3 -32 19 -26 41 -14
48 26 4 25 1 37 -15 51 -31 27 -50 23 -36 -8z"/>
<path d="M10194 12206 c-11 -6 -28 -19 -38 -29 -10 -9 -23 -17 -30 -17 -7 0
-21 -10 -32 -21 -10 -12 -47 -35 -82 -52 -60 -29 -86 -54 -87 -87 0 -10 -12
-16 -33 -18 -28 -3 -33 -7 -29 -23 4 -14 1 -19 -7 -16 -7 3 -19 1 -27 -5 -11
-8 -10 -9 4 -4 9 3 17 0 17 -5 0 -7 -11 -9 -24 -7 -15 3 -27 0 -30 -8 -3 -8
-15 -14 -26 -14 -13 0 -20 -7 -20 -20 0 -11 -6 -20 -12 -20 -7 0 -3 -8 9 -18
37 -30 34 -182 -4 -182 -15 0 -15 -2 -1 -17 9 -10 18 -38 20 -63 1 -25 5 -47
8 -50 3 -3 -5 -25 -17 -48 l-22 -44 -19 39 c-11 21 -17 44 -15 51 3 8 -7 13
-29 14 -53 2 -55 2 -75 20 -13 12 -23 14 -36 7 -14 -8 -19 -5 -27 15 -5 15
-14 26 -20 26 -6 0 -8 5 -5 10 8 13 -8 13 -21 0 -13 -13 -44 -2 -44 15 0 14
-25 28 -50 29 -8 1 -16 11 -18 23 -2 15 -13 25 -28 29 -13 4 -30 14 -37 23 -6
10 -18 21 -26 25 -10 7 -12 4 -7 -12 5 -13 1 -22 -10 -26 -22 -9 -33 1 -27 24
3 11 1 26 -4 33 -12 16 -8 133 5 149 6 8 6 22 1 36 -7 19 -11 21 -22 10 -8 -7
-14 -19 -13 -28 1 -10 -7 -15 -23 -14 -22 1 -23 0 -6 -12 17 -13 29 -84 14
-84 -4 0 -10 -16 -13 -35 -6 -28 -11 -35 -30 -35 -17 0 -26 7 -30 25 -7 26
-36 35 -36 12 0 -8 -11 -19 -24 -25 -18 -8 -28 -7 -45 4 -19 14 -21 13 -27
-11 -5 -19 -13 -25 -34 -25 -19 0 -29 -6 -33 -20 -3 -11 -1 -23 4 -26 5 -3 9
-11 8 -17 0 -9 -2 -9 -6 1 -2 6 -21 12 -40 12 -35 0 -36 -1 -30 -34 3 -22 1
-39 -7 -45 -13 -11 -13 -45 1 -80 7 -17 12 -21 17 -12 6 9 11 9 23 -1 12 -10
17 -9 28 5 16 22 28 22 16 0 -5 -10 -9 -21 -10 -25 -1 -11 -4 -12 -27 -4 -12
3 -33 2 -48 -4 -23 -8 -25 -13 -16 -30 18 -34 -1 -22 -52 33 -31 32 -51 47
-54 40 -8 -17 -79 -6 -122 18 -18 11 -39 19 -47 19 -7 0 -16 6 -18 13 -3 7 -6
4 -6 -6 -1 -10 -6 -15 -11 -12 -6 4 -10 3 -9 -2 4 -21 -2 -33 -15 -33 -14 0
-32 -36 -28 -52 1 -5 -5 -8 -13 -8 -20 0 -33 -29 -30 -70 2 -47 -34 -110 -79
-134 -44 -23 -74 -65 -55 -76 6 -5 17 -6 24 -4 6 3 43 -11 82 -31 57 -28 73
-42 82 -68 21 -60 85 -156 111 -166 14 -5 66 -12 115 -15 121 -8 133 -12 156
-57 11 -22 24 -39 30 -39 5 0 15 -13 22 -29 14 -33 106 -99 134 -97 10 1 30 6
45 10 20 6 40 2 73 -14 31 -15 54 -20 75 -15 22 5 37 1 55 -13 22 -17 31 -18
67 -9 24 6 46 14 49 19 7 11 39 -35 39 -56 0 -16 34 -31 50 -21 11 7 35 -15
69 -63 50 -70 98 -102 156 -102 22 0 22 1 9 38 -17 48 -17 62 0 62 22 0 22
113 -1 142 -16 20 -22 57 -10 61 7 2 0 21 -16 49 -15 26 -27 58 -27 71 0 14
-14 39 -31 58 -29 31 -74 108 -67 114 2 1 13 8 26 14 20 11 23 19 21 58 -3 48
15 73 53 73 9 0 22 9 28 20 6 11 16 17 25 14 8 -4 15 -1 15 5 0 6 6 8 14 5 20
-8 27 45 11 79 -13 26 -13 28 2 22 10 -3 14 -3 10 1 -4 4 0 19 10 33 9 15 15
42 14 68 0 24 3 43 9 43 5 0 10 7 10 16 0 12 7 15 25 12 21 -5 25 -2 20 13 -4
12 -1 21 10 25 9 4 13 13 10 24 -4 13 4 20 35 30 23 8 45 21 50 31 5 9 21 20
35 23 29 7 59 68 50 104 -3 14 5 44 22 80 15 31 26 64 25 73 -2 8 4 29 13 45
8 16 15 35 15 42 0 6 9 21 20 32 11 11 20 27 20 35 0 8 14 40 31 70 42 75 34
120 -17 91z m-404 -845 c0 -6 -4 -13 -10 -16 -5 -3 -10 1 -10 9 0 9 5 16 10
16 6 0 10 -4 10 -9z"/>
<path d="M8646 11872 c4 -9 8 -30 8 -47 1 -37 22 -63 39 -46 6 6 21 11 34 11
27 0 29 12 7 45 -9 14 -13 25 -10 25 4 0 2 6 -5 13 -6 6 -27 13 -46 14 -29 1
-33 -1 -27 -15z"/>
<path d="M8745 11760 c-3 -5 -1 -10 4 -10 6 0 11 5 11 10 0 6 -2 10 -4 10 -3
0 -8 -4 -11 -10z"/>
<path d="M8711 11726 c-23 -13 -23 -13 18 -34 49 -26 61 -27 61 -8 0 8 8 17
18 21 16 6 16 7 -1 17 -10 5 -25 7 -34 4 -8 -4 -21 -2 -27 3 -7 6 -20 5 -35
-3z"/>
<path d="M9781 10421 c-12 -8 -11 -13 10 -30 13 -11 33 -20 43 -21 17 0 16 4
-9 30 -16 17 -29 30 -29 30 -1 0 -8 -4 -15 -9z"/>
<path d="M9864 10351 c-2 -2 -4 -24 -4 -47 0 -24 -5 -46 -11 -49 -6 -4 -8 -13
-5 -20 2 -7 0 -17 -6 -23 -6 -6 -7 -16 -2 -24 5 -7 10 -30 11 -50 2 -33 0 -38
-20 -38 -12 0 -17 -4 -11 -8 6 -4 13 -15 17 -25 4 -10 10 -16 15 -13 4 2 9 -9
10 -25 1 -16 -1 -29 -6 -29 -4 0 -8 -16 -8 -35 0 -21 -9 -47 -23 -66 -22 -30
-23 -33 -8 -64 l16 -33 -32 -13 c-18 -7 -42 -12 -54 -10 -19 1 -24 -6 -34 -44
-8 -33 -18 -49 -34 -55 -12 -5 -25 -20 -29 -34 -3 -14 -17 -33 -31 -42 -14 -9
-25 -26 -25 -38 0 -34 -23 -70 -49 -76 -16 -4 -27 -15 -32 -34 -5 -16 -21 -43
-36 -60 -41 -45 -73 -93 -73 -110 0 -8 -9 -18 -20 -21 -11 -3 -20 -14 -20 -24
0 -10 -11 -24 -25 -31 -22 -12 -25 -20 -23 -54 3 -39 2 -40 -32 -46 -46 -8
-60 -17 -53 -35 3 -9 -5 -24 -22 -36 -20 -17 -25 -27 -21 -46 5 -17 2 -25 -11
-30 -10 -3 -26 -13 -36 -21 -9 -8 -20 -13 -23 -9 -12 12 -63 -46 -62 -72 1
-59 -22 -125 -36 -102 -12 18 -43 13 -49 -9 -4 -16 -14 -20 -51 -20 -39 0 -46
-3 -46 -20 0 -12 -9 -22 -24 -26 -31 -7 -39 -56 -18 -102 12 -24 13 -35 5 -40
-6 -4 -9 -21 -7 -39 2 -19 -2 -33 -10 -36 -7 -3 -16 -25 -19 -49 -5 -39 -3
-46 26 -76 26 -26 34 -47 44 -105 10 -61 10 -74 -3 -88 -17 -18 -11 -58 13
-96 10 -15 11 -23 3 -28 -8 -5 -8 -11 1 -21 6 -7 15 -12 19 -9 4 2 17 -7 28
-20 13 -15 33 -25 48 -25 22 0 25 -2 14 -15 -7 -8 -18 -15 -25 -15 -22 0 -38
-54 -27 -94 6 -22 7 -36 1 -36 -15 0 -4 -111 12 -124 8 -6 13 -20 11 -31 -3
-19 -2 -19 12 -2 17 22 77 33 102 19 15 -8 19 -22 19 -61 0 -43 5 -55 28 -76
25 -24 37 -65 19 -65 -15 0 -9 -65 7 -78 14 -12 12 -13 -15 -8 -28 4 -32 2
-37 -20 -4 -22 1 -28 29 -40 19 -8 34 -21 34 -29 0 -21 37 -19 50 3 9 15 13
13 43 -19 17 -20 40 -39 49 -42 11 -4 15 -13 11 -27 -4 -15 -2 -19 10 -14 8 3
18 0 22 -6 5 -8 11 -8 21 1 11 9 14 9 14 0 0 -7 9 -22 21 -34 11 -12 29 -38
40 -57 29 -54 41 -65 86 -79 37 -12 44 -19 49 -50 13 -65 43 -120 77 -137 18
-9 54 -35 81 -57 33 -28 57 -40 75 -39 34 3 65 -27 120 -118 45 -71 45 -72 80
-64 20 3 41 6 46 6 25 -2 88 -21 97 -30 5 -5 23 -2 46 9 47 23 88 15 107 -20
8 -14 15 -21 15 -16 1 6 9 -6 18 -25 9 -19 33 -45 52 -58 24 -16 35 -32 36
-50 1 -15 9 -44 18 -64 20 -46 20 -48 1 -48 -18 0 -20 -41 -3 -58 9 -9 9 -12
-2 -12 -11 0 -11 -3 2 -12 8 -7 20 -38 27 -69 10 -50 17 -60 58 -89 47 -34 88
-46 99 -29 3 6 11 3 17 -6 11 -13 16 -12 50 12 25 18 36 32 32 43 -5 15 5 17
91 16 70 -1 99 3 102 12 2 8 13 5 33 -12 29 -24 59 -26 59 -2 0 6 21 30 45 54
25 24 45 52 45 62 0 17 2 18 28 5 15 -8 34 -12 43 -10 12 4 19 -2 23 -19 5
-19 11 -23 28 -18 17 4 20 2 15 -11 -8 -21 6 -22 24 -1 10 13 10 17 -2 25 -11
7 -12 9 0 9 7 0 22 10 32 22 16 18 23 19 43 10 20 -9 27 -7 40 7 9 10 16 25
16 34 0 25 15 28 59 12 39 -13 41 -13 41 5 0 11 9 24 20 30 11 6 18 16 14 22
-10 16 -14 97 -4 103 4 3 0 28 -11 57 -10 28 -16 55 -13 59 9 14 -34 99 -50
99 -8 0 -21 14 -30 30 -12 26 -13 30 0 30 12 0 12 4 -2 25 -10 15 -12 25 -5
25 6 0 11 7 11 15 0 8 9 15 20 15 23 0 27 29 8 48 -8 8 -9 12 -1 12 6 0 9 9 6
20 -3 11 -12 20 -21 20 -13 0 -12 3 3 20 9 10 15 26 12 34 -4 9 2 21 14 30
l21 14 -22 22 c-12 12 -35 26 -51 32 -31 11 -35 26 -23 87 5 23 12 31 27 31
19 0 19 2 -8 30 -15 16 -32 27 -36 25 -11 -7 -57 15 -63 31 -3 7 2 20 10 29
20 20 11 63 -17 83 -15 11 -17 17 -9 27 19 23 15 74 -8 98 -12 13 -22 31 -22
40 0 9 -8 22 -18 29 -28 19 -82 143 -80 181 1 17 -2 41 -7 51 -6 13 -5 17 3
12 14 -9 -2 48 -23 80 -19 29 -19 35 0 28 21 -9 19 13 -5 38 -11 12 -20 35
-20 51 0 40 -65 142 -106 166 -25 15 -31 24 -27 40 3 14 -4 36 -21 61 -25 38
-35 44 -63 41 -26 -4 -73 30 -79 57 -14 58 -101 172 -132 172 -8 0 -39 23 -69
50 -30 28 -61 50 -69 50 -8 0 -14 6 -14 14 0 10 -13 16 -37 18 -34 3 -37 6
-53 53 -9 28 -21 49 -27 48 -17 -4 -78 24 -92 41 -7 9 -10 23 -7 32 4 10 -1
25 -10 35 -16 18 -16 19 0 19 14 0 16 7 12 46 -3 25 -15 59 -27 75 -17 24 -25
28 -47 23 -15 -4 -32 -11 -38 -15 -7 -6 -18 -1 -29 11 -10 11 -21 17 -25 15
-4 -3 -22 2 -39 11 -17 8 -36 12 -43 7 -20 -12 -39 -12 -35 0 2 6 -10 23 -26
37 l-30 26 23 27 c13 14 27 24 31 21 11 -6 89 17 89 26 0 4 8 10 19 13 16 4
17 10 11 53 -5 29 -4 51 2 55 5 3 9 9 9 13 -5 37 0 47 22 40 12 -3 30 -13 40
-22 26 -23 29 -10 7 30 -12 23 -21 67 -25 124 -5 59 -14 100 -26 123 -17 28
-18 35 -6 45 22 18 27 43 11 57 -13 10 -12 15 5 33 20 22 20 22 1 54 -21 34
-18 62 7 62 10 0 13 9 11 33 -2 26 -10 36 -39 50 -29 14 -40 27 -50 61 -8 28
-23 50 -41 62 -22 15 -28 25 -25 45 2 21 -3 30 -30 44 -31 17 -33 21 -33 76 0
31 -3 64 -6 73 -4 11 -1 16 10 16 20 0 22 55 4 67 -13 8 -126 11 -134 4z m136
-963 c0 -5 -7 -8 -15 -8 -7 0 -18 -6 -22 -14 -7 -12 -13 -10 -32 10 l-24 25
46 -3 c26 -2 47 -6 47 -10z"/>
<path d="M10262 9035 c4 -4 3 -14 -2 -20 -7 -9 -3 -17 14 -29 l25 -16 -11 30
c-5 17 -15 33 -21 37 -7 3 -9 3 -5 -2z"/>
<path d="M8874 7402 c3 -39 1 -56 -11 -68 -25 -25 -3 -36 48 -24 54 13 105 22
142 24 17 0 27 7 27 17 0 20 -41 59 -63 59 -9 0 -27 5 -40 11 -18 8 -30 8 -43
1 -15 -8 -24 -6 -42 11 l-23 21 5 -52z"/>
<path d="M11477 6966 c7 -37 29 -52 42 -29 12 23 3 38 -25 47 -19 6 -21 3 -17
-18z"/>
</g>
</svg>
