<svg version="1" xmlns="http://www.w3.org/2000/svg" width="656.438" height="797.112" viewBox="0 0 492.329 597.834"><g fill="#222"><path d="M115.13 2.706c-3 2.6-3.7 4.5-4.8 12.7-.8 5.5-1.8 9-2.9 9.7-.6.4-1.1 1.1-1.1 1.6s-.8 1.6-1.7 2.6c-1 1-1.8 2.4-1.8 3.1 0 .8-.9 1.7-2 2-2.2.7-2.5 2.4-1.1 7.3.6 2 .6 3 0 2.7-.5-.4-1.2 0-1.5.9-.3.8-2.1 2.2-4 3.1-1.9.9-3.4 2.2-3.4 3 0 .8-.7 1.5-1.5 1.5s-1.5.7-1.5 1.5-.5 1.5-1 1.5c-.6 0-1.3-.7-1.6-1.5-.8-1.9-5.4-2-5.4-.1 0 1.5 7.4 8.6 9 8.6.6 0 .7.7.1 1.7-.5 1-1.3 3.1-1.7 4.8-.5 1.6-1.9 3.4-3.2 4-1.2.5-2.2 1.7-2.2 2.6 0 .8-1.1 2.2-2.5 2.9-1.4.7-2.5 2.2-2.5 3.2 0 1.7-.2 1.7-2.2.4-1.3-.8-3.4-1.7-4.8-2.1-2.1-.7-2.3-.6-1.2.7.7.9 1 2.2.6 3.1-.8 2.1 3.6 8.4 6.9 9.8 1.5.6 2.7 1.5 2.7 1.9 0 .5.3 1.5.6 2.4.4 1 .1 1.6-.9 1.6-.9 0-1.7 1-1.9 2.2-.2 1.3-1.3 2.7-2.6 3.3-1.7.8-2.1 1.6-1.9 4.2.2 1.7.9 3.8 1.5 4.5.6.8.9 2.3.6 3.5-.4 1.4.7 3.4 3.5 6.7 2.4 2.7 4.3 6.1 4.7 8.4.4 2 1.6 4.9 2.6 6.3 1.1 1.4 2.2 5.1 2.5 8.4.5 4.3 1.2 6.4 2.7 7.6l2.1 1.7-2.7.7c-1.6.4-2.9 1.6-3.2 3-.3 1.3-.9 3-1.2 3.9-.4 1.1-.1 1.6 1 1.6 2 0 2.2 5.8.2 6.6-1.9.7-2.6 4-1.3 5.3.6.6 1 2.7.8 4.6-.2 2.5.4 4.1 2.3 6.2 2.1 2.2 2.6 2.4 3.1 1.1.4-.9 1.4-1.4 2.5-1.1 1.1.3 1.6 1.1 1.3 1.9-.3.8.1 1.4.9 1.4 1 0 1.5-1.1 1.6-3.1.1-4.2.6-4.4 2.3-1.1.8 1.5 2 3.2 2.8 3.8.8.6 1.1 1.6.7 2.3-.4.6-.5 2-.1 3 .5 1.7.9 1.8 3.8.7 1.8-.6 3.4-1.3 3.7-1.6 1.4-1.6 5.5-.3 6.6 1.9l1.3 2.5.6-2.7c.4-1.5 1.2-2.4 1.7-2.1.5.3.2-.8-.6-2.5-1.6-2.9-1.5-3.1.1-3.1 3.8 0 6.3 1.3 6.3 3.1 0 2.3 1.3 2.4 3.1.3 1-1.3 1-1.9 0-3.6-2.4-3.8 1.9-4.5 6.8-1.1 3 2.1 3.7 2.2 3.9.9.3-1.2 1-1.4 3-1 1.5.4 3.2 1.1 3.9 1.6.7.5 1.4.5 1.7-.1.9-1.4 3.1-.5 9.4 3.8l5.4 3.5-2.3 1.9-2.2 1.8 2.2 4.3c1.2 2.4 2.8 4.7 3.7 5 .8.3 5.1.3 9.4 0 5-.3 8-.1 8.5.5 1 1.8 2.5 1.2 2.5-.9 0-2.3.1-2.4 3.5-.8 2.3 1 3 2.1 2.6 4.2-.1.4.3 2.4 1 4.3.8 2.5 1.4 3.2 2 2.2.6-1 1.1-.6 1.8 1.4 1.9 5 1.3 8.1-1.9 10.7-3.1 2.5-5.5 4.5-10.3 8.7-1.4 1.2-2.8 1.9-3.1 1.6-.3-.4-.6.1-.6.9s-.9 2.7-2 4.1c-1.1 1.4-1.7 3.2-1.4 4.1.4 1.1.1 1.6-1 1.6-.9 0-1.6.8-1.6 2 0 2.1-1.5 2.7-2.5.9-.5-.6-1.2-.4-2 .7-.7 1.1-1.9 1.5-2.9 1.1-1.4-.6-1.6-.3-1.1 1.4.8 2.3-1.9 5.9-4.4 5.9-.9 0-2.2.9-2.8 1.9-1 1.5-.9 2.2.2 3.1.8.7 1.3 1.6 1 2-.6 1 2.5 5.1 3.5 4.5.4-.2 1 .7 1.3 2.1.4 2.1.1 2.5-1.4 2.1-1.6-.4-1.8-.1-1.3 1.9.7 2.6-1.5 8.4-3.1 8.4-.5 0-2.3.7-3.8 1.5-2.5 1.3-3.1 1.3-5.3-.1-2.3-1.6-3.3-4.4-1.5-4.4.5 0 1.2-1.1 1.5-2.4.3-1.3 1.5-2.6 2.6-2.9 2-.5 2-.6-.2-4.3-2-3.3-2.5-5.4-3-12.2-.1-.6-.5-1.2-1-1.2s-.7-.4-.3-.9c.7-1.2-2.4-2.2-5.3-1.6-2.7.5-7.5-3.6-6.7-5.8.4-.8-.4-3-1.5-4.8l-2.2-3.4.6 3.3c.8 4.4-1.1 7.4-3.7 6.1-1-.6-2.4-.8-3.2-.6-.7.3-1.8 0-2.4-.6-.8-.8-1.1-.7-1.1.5 0 1.4-.5 1.5-3.7.6-5.2-1.4-6.3-2.6-3.9-4.4 1.7-1.2 1.8-1.7.6-3.9-1.1-2-1.1-2.7 0-4 .7-.8 1.9-1.5 2.6-1.5.8 0 1.4-.7 1.4-1.5 0-1.4-1.6-2-5.2-1.7-.9.1-3.4-1.4-5.4-3.3-2-1.9-3.8-3.5-4.1-3.5-.2 0-.1 1.3.2 2.9.3 1.7.1 3.2-.5 3.6-.5.3-.7 1.8-.4 3.3.2 1.5 0 3.3-.5 4.1-.7 1.2-1.2 1.1-3.1-.2-1.5-1-1.8-1.6-.8-2 .9-.3.7-.7-.7-1.2-3.6-1.4-8.5-5.6-8.5-7.3 0-1.3-.5-1.2-2 .8s-2.8 2.5-6.3 2.5c-3.2 0-4.3-.3-4-1.2.3-.7-.2-1.9-1-2.8-1.4-1.3-1.8-1.2-3.6 1.1-1.7 2.1-1.9 3-.9 4.1.9 1.1.7 1.5-1 2-1.5.3-2.2 1.3-2.2 2.8 0 2.7-8.3 11.5-10.8 11.5-.7 0-1.2 1.1-1.2 2.4 0 1.4-.5 2.8-1 3.1-.6.4-.8 1.1-.5 1.6.8 1.2-.2 1.2-2.5-.1-1.7-.9-1.9-.7-1.8 2.3.2 4.9-1.7 7.7-5.2 7.7-2.3 0-3 .5-3 1.9 0 1.1-.5 2.1-1.2 2.3-.8.3-.5 1.5 1.1 3.6 2.8 4 3.4 13.1.9 15.9-1.7 2-1.4 4.3.8 4.3.7 0 2.3 1.3 3.6 3 1.2 1.6 3.1 3 4.2 3.1 1.2 0 1.6.3.9.5-.7.3-.9 1.2-.6 2 .3.9-.2 1.4-1.6 1.4-1.4 0-2.1.6-2.1 2 0 1.1-.4 2-1 2-.5 0-.7 1.3-.3 3 .3 2 .1 3-.6 3-.8 0-.7.7.3 2.2.9 1.2 1.3 3.1 1 4.3-.7 3 2.7 6.4 10 10 6.3 3 6.3 3 10.9 1.4 4.1-1.5 4.8-1.5 6.7-.2 1.1.8 2.7 1.2 3.5.9.8-.3 1.5-.1 1.5.4 0 .6.6 1 1.4 1 .8 0 2.1.8 2.8 1.8.7 1 2.9 2.8 5 4 3.5 2.2 3.6 2.4 2.3 5-.8 1.5-1.5 3.8-1.7 5.2-.2 1.4-.7 3.1-1.1 3.7-.5.7-.6 1.7-.3 2.2 1.1 1.8-2.3 6.4-6.1 8.1-3.1 1.5-3.5 1.9-2 2.5 1.3.5 1.5 1.1.7 2-.8 1-.6 1.5 1 2 1.2.4 2.5 1.8 3.1 3.2 1.2 3.3 1.1 4.6-.3 3.7-.8-.5-.7-.1.2 1 .8 1 1.3 3.2 1.2 4.8-.1 1.7.4 4.1 1.2 5.3.9 1.3 1.1 2.6.6 3.1-1.1 1.1.8 9.4 2.1 9.4.5 0 .9.9.9 2.1 0 1.8-.4 2-3 1.4-2.6-.6-3-.4-3 1.4 0 3 3.5 2.7 6.4-.4 1.3-1.4 2.9-2.5 3.6-2.5.7 0 1.8-.7 2.5-1.7 1.1-1.4 1.3-1.2 2.3 1.7.7 1.8.9 3.6.7 4.1-.3.4.4 1.3 1.5 1.9 1.3.7 2 2.1 2 4s.7 3.3 1.9 4c1.1.5 2.3 2.4 2.6 4.2.4 1.8 1.3 3.7 2 4.3 2 1.6.7 7.5-1.9 8.5-2.3.9-5 3.6-5.9 6.1-.3 1.1.5 2.6 2.3 4.2 1.5 1.4 3 3.1 3.2 3.8.8 2.3 4.8-2.8 4.8-6.1 0-2.2.4-2.8 1.5-2.4 2.2.9 1.8-.6-.7-3.4-1.3-1.3-1.8-2.2-1.3-2.1 1.9.6 5.5-1.3 5.5-2.8 0-1.1.6-1.4 2.4-.9 2.9.7 8.4-1.4 7.9-3.1-.6-1.7 8.2-2.8 12.3-1.5 1.9.5 3.6.6 3.9.2.3-.5 4.1-2 8.5-3.5 5.1-1.7 8-3.2 8-4.1 0-2.2 4.3-3.8 6.8-2.5 1.4.8 2.3.8 2.7.1.4-.7 2.4-.8 5.1-.4 4.5.6 5.4-.1 3.2-2.5-1.1-1.1-.9-1.1 1-.1 1.9.9 3 .9 5.7-.4 1.8-.9 3.8-1.6 4.5-1.6.7 0 1-.8.7-2-.3-1.3 0-2 .9-2 .8 0 1.4-.4 1.4-.9 0-1.7-2-2.3-3.5-1.1-.8.7-2.3.9-3.2.6-1-.4-1.4-.4-1 0 .8.8-5.5 5.4-7.4 5.4-.7 0-2.8-1.2-4.8-2.7-4-3.1-7.6-3.9-9.7-2.3-1.7 1.5-7 .4-7.8-1.6-.4-.9-2.1-1.4-5.5-1.4-2.7 0-5.3-.5-5.6-1-.3-.6-1.6-1-2.8-1-1.2 0-3-.7-4-1.4-1.2-.9-2.8-1.2-4.5-.7-4 1-6.5.3-10.3-2.9l-3.4-2.9 3.1.5c3.6.7 5.7-1.3 3-2.8-.9-.5-1.4-1.3-1.1-1.8.3-.4-.1-1-.8-1.3-2-.7-3.2-.3-3.2 1.2 0 1.8-9.6 7.1-11.7 6.5-1-.3-2.7 0-3.9.6-3.8 2.1-4.6-.5-1.3-3.9 1.6-1.6 3.8-3.9 4.8-5 1.6-1.7 2.7-2 5.3-1.5 2.3.4 3.3.2 3.3-.6 0-.9 1-1.1 3-.7 1.6.4 3.2.2 3.5-.3.4-.6 1.7-.7 3.1-.4 3.8 1 6.7-2.9 6-8.1-.5-4 .6-7.6 2-6.2.4.4 1.6-.7 2.6-2.4 1.7-2.8 2.2-3 5.9-2.4 3.8.7 4 .5 5-2.5 1.1-2.9 1.2-3 2.9-1.5 1.1 1 2 1.2 2.4.6.4-.6 2.4-.1 5.3 1.5 4.6 2.4 10.5 2.6 11.9.3.3-.5 1.8-.9 3.4-.9 1.6 0 3.2-.5 3.5-1 1-1.6 7.6-4.1 8.9-3.3 1.4.9 5.7.4 7.2-.8.6-.5 1.4-.6 1.7-.2.4.3 1.3 0 2.2-.7 1.3-1.1 1.5-.8 1.6 1.6.1 1.6.1 3.6 0 4.5-.1.9.6 1.9 1.6 2.2 1 .4 2.5 1 3.3 1.5 3.6 2.2 8.3 3.2 9.7 2 1-.8 1.8-.7 3.1.6 1 .9 2.2 1.3 2.5 1 1.2-1.3 1.9 2.6.7 4.1-.9 1.1-.9 2.2 0 5 1.1 3.2 1.5 3.6 3.7 3 2-.5 2.6-.1 3.6 2.4.6 1.6 2.2 3.6 3.6 4.5 5.8 3.5 5.6 3.2 2.7 6.7-1.5 1.7-2.5 3.8-2.2 4.5.3.8-.1 1.4-.9 1.4-.9 0-1.2.6-.8 1.6.4 1.1.9 1.2 1.6.5.6-.6 1.9-1.1 2.9-1.1s1.8-.5 1.8-1c0-.6.9-1 1.9-1 2.9 0 5.1-1.1 5.1-2.5 0-.7 1.1-1.6 2.5-1.9 2-.5 2.5-1.3 2.5-3.7 0-2.4.3-3 1.6-2.5.9.3 1.8.6 2 .6.3 0 .2.6-.2 1.2-.6 1-.4 1 .8 0 .8-.7 2.3-1 3.2-.6 1.2.5 1.6 0 1.6-1.6 0-1.9.4-2.1 2.7-1.5 4.5 1.1 4.8 1.1 4.5-.3-.1-.8.3-1.2 1-.9.7.2 2.1 0 3.2-.5 1.2-.7 2.2-.6 2.9.1.6.6 2.1 1.1 3.3 1.1 1.8 0 5.7 2.4 11.1 7 .7.5 1.7 1 2.4 1 .6 0 .9.6.6 1.4-.4 1 .5 1.7 3.1 2.3 2.8.7 3.8 1.4 4 3.2.5 3.4 4.9 10.1 6.6 10.1 1 0 1.6 2 2.2 6.7.3 3.8 1 7 1.4 7.3.3.3 2.6 3.1 4.9 6.3 2.3 3.2 4.8 5.6 5.4 5.4 1.8-.6 4.7 1.2 4.7 2.8 0 .8-.7 1.5-1.5 1.5s-1.5.7-1.5 1.5-.5 2.4-1.2 3.4c-.9 1.5-.8 2.4.5 4.4 1.4 2.2 1.5 2.6.1 3.1-2.1.8-2.2.8-2.6-.8-.2-1-.9-1.1-2.5-.5-2.8 1-3 3.9-.3 4.6 1 .3 2.2 1.3 2.5 2.4.8 2.5 3.4 1.3 2.7-1.3-.5-1.9-.4-1.9 2.7-.4 3.7 2 3.8 2.6.8 5.4-1.9 1.8-2.9 2-5.3 1.3-3.5-1-5.4.5-5.4 4.2 0 1.8-.7 2.7-2.5 3.1-1.6.4-3.2 2-4.2 4.1-1.5 3.1-2.1 3.5-5.4 3.5-2.1 0-4.1.5-4.4 1.1-.4.6-1.4.7-2.4.3-.9-.4-2.6-.6-3.9-.5-1.2 0-2.5-.6-2.8-1.4-.5-1.2-.8-1.2-1.9-.1-1.4 1.4-2.5 12.6-1.2 12.6.4 0 .4 1.8.1 4.1-.6 3.5-.4 4.1 1.4 4.6 2 .5 2.1 1 1.6 6.7-.8 8.1-1 8.6-3.6 8.6-2.2 0-2.2 0 .5 2.5 3.2 3.1 3.4 4.1.7 5.5-1.1.6-3.1 3.3-4.5 6-1.4 2.8-3 5-3.5 5-.6 0-1 .5-1 1.1 0 .6-1.2 3.1-2.7 5.4-3.5 5.5-8.4 7.8-16.3 7.8-4.6 0-6 .3-6 1.4 0 .9-.6 1.2-1.7.9-2.2-.7-3.6.2-5.3 3.4-1.2 2.2-1.2 2.4.2 1.2 1.3-1.1 1.6-.9 2 1.3.3 1.4.1 2.5-.3 2.5-.5 0-.9.7-.9 1.5s-.4 1.5-1 1.5c-.5 0-.7.7-.4 1.5.9 2.3-.8 1.8-3.6-1.1-2.2-2.4-2.5-2.5-3.1-.8-.9 2.7 3 7.7 4.8 6.2 1.7-1.4 4 1.3 4.9 5.9.5 2.5 1.3 3.5 4.1 4.4 1.9.6 3.9 2.1 4.4 3.3.9 1.9 1.8 2.2 9.6 2.3 6.2.1 9.3-.3 11-1.4 2.1-1.4 2.7-1.4 6.3.1 6.1 2.4 7.6 2.1 11.2-2.9 2.6-3.6 3.8-4.4 5.6-4 1.7.4 2.2.1 2.2-1.5 0-2 2.1-2.6 7.3-2.1.9.1 1.7-.4 1.7-1.3 0-2 3.4-2.1 5-.1.7.8 1.7 1.2 2.2.9 1.4-.9 6.8 1.7 6.8 3.2 0 .8-.5 1.4-1 1.4-.6 0-.4 1.2.4 2.9 1.9 3.7 6.8 4.8 11.9 2.6 2-.8 5.2-1.5 7.2-1.5 1.9 0 3.5-.5 3.5-1 0-.6 1.3-1 2.9-1 1.6 0 3.1-.6 3.4-1.3.3-.9.9-.7 2.4.5 1.3 1.2 2.3 1.4 2.9.8.6-.6 2.5-1.2 4.2-1.3 2.2-.1 3.5-.9 4.4-2.7.7-1.4 1.9-2.9 2.5-3.3.7-.4 1.3-1.4 1.3-2.1 0-.8 1.4-1.9 3-2.6 2.3-1 3-1.9 3-4 0-1.9.6-2.9 2-3.3 1.4-.3 2-1.4 2-3.2 0-1.6.4-2.4 1-2 .6.4 1.7.1 2.5-.5s2.3-.9 3.5-.5c1.3.4 3.1 0 4.8-1.1 1.5-1 3-1.8 3.4-1.6 1.3.3 2-5.9.8-7.3-1.7-2-.8-1.9 3.7.5 4.4 2.2 12.3 1.8 12.3-.7 0-1.1.4-1.1 2.1-.3 2.2 1.2 5.4.6 4.5-.8-.3-.5 2.1-.9 5.2-1 3.1-.1 5.8-.6 6-1.2.2-.5.9-1 1.5-1 1.9-.1 5.9-3.9 5.2-5-.3-.5-.2-1 .4-1 .5 0 1.3-.9 1.6-2 .4-1.1 1.1-1.8 1.6-1.5 1.3.8 1.1.3-.8-3.6l-1.7-3.4-.8 4.9c-.8 5.5-2.4 7.9-3.4 5.3-1-2.8-2.2-1.9-2 1.5.1 3.4-2.4 4.9-3 1.8-.1-.8-.5-2.9-.9-4.5-.4-1.7-.9-4.2-1.2-5.8-.5-2.5-.9-2.7-4.9-2.7-3.4 0-4.4.4-4.4 1.6 0 1.3-.3 1.4-1.4.5-.9-.7-3.5-1-7.2-.6-6.6.6-11.5-.4-12.2-2.4-.3-.8 0-1.1.6-.7.6.3 1.3.2 1.6-.3.4-.5.2-1.2-.4-1.6-1.4-.8-1.3-5.2.2-6.1.7-.4.8-.3.4.4-.4.8-.2 1 .8.6.8-.3 1.2-1.2.9-2-.7-1.9 5.3-7.5 7.3-6.7 1.2.4 1.4 0 .9-2-1-3.8.3-6.9 2.5-6.2 1 .3 2.9 0 4.1-.7 1.8-1.1 2.2-1.1 2.7.1.2.7 1.3 2.2 2.2 3.1 1 1 1.5 2.1 1.2 2.5-.4.4.1 1.1 1.1 1.6 1.2.7 1.5 1.5.8 2.6-.6 1.1 0 2.8 2.2 5.9 1.7 2.4 3.5 4.4 4 4.4s.7.6.4 1.4c-.6 1.6 1.5 2.9 5.1 3.1 2.2.1 2.3-.2 1.6-4-.4-2.2-1.9-5.4-3.6-7.3-1.8-2.1-2.7-4-2.3-5.1.3-1-.1-2.4-1-3.1-.9-.7-1.3-2.1-.9-3.4.7-2.9-3.2-6.8-4.2-4.3-.5 1.5-.9 1.4-2.4-.6-1.8-2.2-1.8-2.2.8-2.7 2.5-.5 2.7-.9 2.4-4.7-.1-2.3-1.2-5.8-2.5-7.7-1.8-2.9-2.7-3.5-4.7-3.1-2.4.5-2.4.4-.6-.9 1.8-1.4 1.8-1.6-.2-4.1-1.2-1.4-3.2-3.5-4.7-4.7-2-1.5-2.3-2.3-1.5-3.3 1.2-1.4-.2-5.5-1.9-5.5-.4 0-1.3-1.1-1.9-2.5-.6-1.4-2-2.5-2.9-2.5-1 0-2.4-1.3-3.1-3-.8-1.6-4-5.7-7.3-9-3.3-3.4-5.7-6.5-5.4-6.9.7-1.2-4.3-11.9-6.6-14.2-1.1-1.1-1.9-2.3-1.9-2.8s-1.6-2.6-3.5-4.7c-4.1-4.3-4.5-6.4-1.2-5.7 2 .4 2 .3.5-.9-1.1-.9-1.5-2.6-1.4-4.9.4-4.9.4-4.9 2.1-4.9 1.1 0 1.4-.7.9-2.4-.3-1.3-.1-2.7.5-3 1.4-.9 1.5-6.6.1-6.6-.5 0-1.3-1.8-1.6-4-.4-2.4-1.4-4.5-2.5-5.1-1-.5-1.6-1.6-1.3-2.4.4-.9-.1-1.8-1.2-2.2-2.8-1-9.4-6.6-9.4-8 0-.6-.9-1.5-2-1.8-1.5-.5-1.9-1.2-1.4-3 .7-2.7-1.1-6.5-3-6.5-.7 0-1.7-1.6-2.3-3.5-1-3.2-.2-4.8 1.2-2.5 1.3 2 3.7-.3 3.3-3.1-.4-2.9.5-3.9 1.7-1.9.9 1.5 2.5 1.2 2.5-.5 0-1.6 1.5-1.8 4-.7 2.2 1 2.3 5 .2 5.5-1 .3-.6.5 1.1.6 2.3.1 2.7-.3 2.7-2.4 0-1.9-1-3.1-3.4-4.6-2.6-1.5-3.6-3-4.5-6.4-1.5-6.1-1.4-7.5.8-7.5s3.5-3.8 1.9-5.7c-.8-1-.7-1.3.4-1.3 2 0 4.5-2.9 5.3-6.1.6-2.4 1.1-2.7 4.5-2.5 3.3.2 3.9-.1 4.3-2.1.2-1.2-.1-2.4-.7-2.6-.6-.2.9-.7 3.2-1.2 4.1-.6 4.4-.9 3.9-3.3-.3-1.8.3-3.6 1.9-5.7 1.3-1.8 2.4-4.2 2.4-5.3 0-1.3.6-2.2 1.5-2.2.8 0 1.5-.4 1.5-.9 0-1.1 5.5-3.1 8.5-3.1 1.4 0 2.6-.9 3.3-2.5.6-1.4 1.8-2.5 2.7-2.5.8 0 1.5-.7 1.5-1.5s1.1-1.7 2.5-2.1c1.4-.3 3.3-1.8 4.4-3.3 2-2.9 4.2-10.7 3.5-12.5-.3-.7.7-2.3 2.1-3.6 1.4-1.3 2.5-2.8 2.5-3.4.1-2 4.9-6.6 7-6.6 1.4 0 2-.6 2-2.4 0-1.3.6-2.9 1.4-3.5 1.2-1 2.8-7 3-11.1.1-.8 1-1.6 2.1-1.9 1.1-.2 2.2-.6 2.5-1 .3-.3 1.4-1.1 2.5-1.7 1.5-.9 2-2.2 2-5.7 0-3.9.5-5.1 3.4-8.1 3.4-3.5 3.5-3.6 1.9-6.9-1.4-3-1.4-3.6.5-8 1.8-4 2.5-4.7 4.9-4.7 1.6 0 2.8-.5 2.8-1.3 0-.7.9-1.8 2-2.5s2-2.2 2-3.5c0-1.3.5-2.8 1.1-3.4 1.3-1.3.3-3.6-1.2-2.8-.5.4-.9 1.4-.9 2.3 0 1-.8 1.8-1.7 1.9-3.4.3-7.8 1.6-8.4 2.5-.3.4-1.1-.3-1.9-1.7-1.3-2.4-3-3.4-3-1.6 0 .4-1.1.6-2.5.3-1.8-.3-2.5 0-2.5 1.1 0 .8-.7 1.7-1.5 2.1-.8.3-1.5 1.3-1.5 2.3 0 1-.9 3.2-1.9 4.9-2.2 3.6-9.5 6.5-12.9 5.3-2.3-.9-3.8.4-2.7 2.2.7 1 1.5 5.9 1 5.9-.2 0-1.7-1.3-3.5-3-2.4-2.2-3-3.5-2.5-5 .6-1.9.3-2.1-2.2-1.8-1.5.2-2.7.8-2.6 1.5.4 2-3.2 3.4-6 2.4-2.6-1-8.7-8.9-8.7-11.3-.1-1.8-2.5-4.8-3.9-4.8-1.9 0-7.1-8.1-7.1-11.1 0-2-.4-2.7-1.4-2.3-.8.3-3.2-1.1-5.5-3.1-4.3-3.9-5.1-5.5-2.7-5.5 1.7 0 2.7-2.3 1.6-4-.6-.9-1.1-.7-1.9.9-1 1.7-1.6 1.9-3.1 1.1-2.6-1.4-2.9-1.3-2.3.9.3 1.4 0 1.9-1.4 1.8-1.1-.1-1.7.4-1.5 1.2.2 1.1-.2 1-2.2-.3-2.6-1.6-7.6-2.2-7.6-.9 0 .5-1.4 1.6-3.1 2.6-2.5 1.4-3.4 1.5-4.6.5-1.1-.9-2.2-.9-4.9.1-1.8.7-3.8 1-4.3.6-.6-.3-5.5-.7-10.9-.9-5.5-.2-10.5-.6-11.1-1-.7-.4-1.1.1-1.1 1.2 0 2.2-4.7 5.8-7.1 5.4-.8-.2-2.4.7-3.4 1.8s-2.6 2-3.6 2-2 .4-2.4 1c-.4.6-1.5.6-3.2-.1-2.1-.8-3-.6-4.7.9-3.7 3.4-6.5 4.5-8.1 3.2-2.8-2.3-11.5 2.7-11.5 6.6 0 2.1-5.9 1-8-1.6-1.6-1.9-5-3.4-5-2.2 0 .4.7 1.8 1.6 3 .8 1.2 1.2 2.2.8 2.2-.3 0-.1.7.6 1.5 2 2.4 3 9.5 1.4 9.5-.8 0-1.6-1.1-2-2.4-.3-1.4-1.2-2.7-2-3-.7-.3-1.1-1.2-.8-2 .9-2.5-1.5-2.8-5-.7-4.2 2.6-5.7 2.6-8.9.1s-4-2.5-3.2 0c.4 1.4.2 1.8-.7 1.5-.8-.3-2 1-3.1 3.5-1.8 4.2-5.7 5.7-5.7 2.2-.1-1.6-.1-1.6-1.1 0-.5 1-1.4 1.8-1.9 1.8-1.6 0-1.1-2.2.8-3.6 1.4-1.1.9-1.2-4-.9-3.2.2-6 0-6.3-.6-.4-.5-1.4-.9-2.3-.9-1.8 0-4.8-3.8-3.8-4.7.3-.3.1-1.4-.5-2.5-.7-1.3-1.4-1.6-2.2-.9-1.7 1.4-7.2-1.2-9.2-4.3-1.1-1.7-1.5-3.5-1.1-5.2.4-1.5.2-3.2-.5-4-.7-.8-1.2-2.9-1.1-4.6 0-1.7-.6-4-1.3-5.2-1.7-2.3-5.2-2.9-6-.9-.2.8-1 1.1-1.5.8-.8-.5-.8-1.1 0-2 .6-.7.8-2 .4-2.9-.5-1.2-.2-1.5 1-1s1.5.2 1-1c-.6-1.5-.8-1.6-2.4-.1-1.2 1.1-2.6 1.4-4.4.9-1.6-.4-2.6-.2-2.6.5 0 1.6-4.6 1.4-8-.4-1.7-.9-3-2.2-3-3 0-1.8-3.9-4-6.4-3.6-1.5.2-1.8-.2-1.4-2.4.5-2.3.1-2.8-3.4-4.2-2.3-.9-4.5-2.7-5.3-4.4-.9-1.6-2.4-3.3-3.4-3.8-2.1-1.2-5.1-7-5.5-10.9-.3-2.1-.8-2.6-2.5-2.4-1.4.2-2.1-.2-2.1-1.2 0-.9-1.1-1.8-2.5-2.2-1.4-.3-2.5-1-2.5-1.4 0-.5-.3-1.6-.7-2.6-.4-1.1-.3-1.5.4-1.1 1.7 1 2.3-3.1.7-4.4-1.2-1-1-1.6 1.6-3.9 1.6-1.5 3-3.4 3-4.4 0-.9 1.1-2.8 2.6-4.2 2-2.1 3.1-2.5 5.8-2 2.8.5 3.4.3 3.9-1.3.4-1.7.9-1.9 3.5-1.1 4.2 1.1 4.6-1.1 1.3-7-1.4-2.6-2.6-6.6-2.8-9.4-.1-2.7-1-6-1.8-7.2-1.9-2.9-1.9-3.4 0-3.4.8 0 1.2-.6.9-1.4-.3-.8 0-1.7.6-2.1.7-.4.4-1.3-1.1-2.6-1.7-1.5-1.9-1.9-.6-1.9.9 0 1.9-.5 2.3-1.2.4-.7.3-.8-.4-.4-.8.5-1.2 0-1.2-1.3 0-1.5.4-1.9 1.8-1.4 1.6.7 1.6.6-.1-1.7-3.6-5-3.5-6.7.3-5.5 1.1.4 2.8 2.3 3.8 4.3 1.2 2.4 2.4 3.6 3.5 3.4.9-.1 2.7.4 4 1.3 2.5 1.6 5.7 1.1 5.7-.8 0-.7 1.1.1 2.5 1.6 3.1 3.2 3.9 3.4 3 .7-.5-1.4-.2-1.8.7-1.5 1.8.7 5.8-3.1 5.8-5.5 0-2.6 1.2-2.5 3.5 0 1.4 1.5 2.9 2 5.4 1.8l3.6-.3.1-6.2c.1-6 0-6.2-2.9-7.4-1.7-.7-3.9-1.4-4.8-1.4-1.8-.2-7.6-6.3-7.2-7.7.4-1.1-6.5-6.1-7.5-5.5-.4.3-1.4.2-2.1-.3-.8-.4-2.7-.4-4.3.1-2.4.6-2.9.5-2.4-.6.3-.8-.3-1.6-1.4-2-1.5-.5-1.7-1.3-1.3-4.5.4-2.9 0-4.6-1.5-6.7-1.1-1.5-2.1-3.7-2.3-4.8-.3-1.3-2.1-2.6-5.2-3.7l-4.9-1.8.7 3.1c.6 2.5.4 3.1-1.4 3.6-1.2.3-2.1.9-2.1 1.3s-2.1.1-4.7-.5c-3-.8-5-.9-5.4-.3-.9 1.5-10.2-2.9-13.5-6.3-1.8-1.9-3.4-2.7-4.6-2.3-1 .3-1.8.1-1.8-.5 0-1.7-1.3-1.3-4.7 1.7zm116.2 207.9c.5 1.8.3 2.2-.9 1.7-.9-.3-1.6-1.8-1.6-3.2 0-2.9 1.4-2 2.5 1.5zm169.8 23.3c.3 1.1.1 2-.4 2s-.9.7-.9 1.5-.7 1.5-1.6 1.5c-1.2 0-1 .5.9 2 1.4 1.1 3.1 2 3.9 2 .9.1.8.5-.4 1.4-1 .7-1.5 1.6-1.1 1.9.3.4-.2.7-1.3.7-1 0-2.7-1.1-3.6-2.4-2.2-3-3.4-7.6-1.9-7.6.6 0 1.8-1.4 2.6-3 1.7-3.3 2.9-3.3 3.8 0zm-215.9 27.5c.3.8.1 1.5-.4 1.5-.6 0-1-.7-1-1.5s.2-1.5.4-1.5.6.7 1 1.5zm15.6 1.4c0 .6-.4 1.3-1 1.6-.5.3-1-.1-1-.9 0-.9.5-1.6 1-1.6.6 0 1 .4 1 .9zm55 44.5c0 1.1-1.9 1.5-2.5.6-.3-.5.1-1 .9-1 .9 0 1.6.2 1.6.4zm34.7 13.2c-.3.3-1.2.4-1.9.1-.8-.3-.5-.6.6-.6 1.1-.1 1.7.2 1.3.5zm4.8 2.4c.3.5.1 1-.4 1-.6 0-1.1-.5-1.1-1 0-.6.2-1 .4-1 .3 0 .8.4 1.1 1zm1.9 15.8c1 1.6-2.3 4.4-4.3 3.7-1.6-.5-2-.3-1.5.9.3.9.1 1.6-.5 1.6s-1.6 1.1-2.1 2.5-1.3 2.5-1.7 2.5c-.5 0-1.7 1.6-2.7 3.5-1.4 2.6-2.4 3.4-3.7 3-2.8-.9-6.8.5-6.2 2.1.3.9-.2 1.4-1.5 1.4-1.1 0-2.2-.8-2.5-2-.3-1.1-.2-1.8.2-1.5.5.2 1.3-.7 1.9-2 1-2.1.9-2.5-.3-2.5-.8 0-1.5.5-1.5 1.1 0 .5-.4.7-1 .4-1-.6-1.4-4.5-.4-4.5.3 0 1.4.5 2.4 1 1.4.8 2.1.6 2.8-.6.8-1.4 1.5-1.5 4.1-.6 2.6.9 3.1.8 3.1-.4 0-.8.6-1.4 1.4-1.2 2 .4 7.1-5.3 5.6-6.2-1.4-.8-.4-5.1 1.3-6.2 1-.6 6 2.2 7.1 4zm-23.8 6.9c-.7.7-2.6-.7-2.6-1.9 0-.6.6-.6 1.5.2.9.7 1.3 1.5 1.1 1.7zm81.4 5.2c0 .5-.9.7-2 .4-1.1-.3-2-.7-2-.9 0-.2.9-.4 2-.4s2 .4 2 .9zm-128.2 13.3c1.9 1.9 1.4 6.2-.8 7.5-2.3 1.5-2.8.8-2.4-3.2.1-1.7.3-3.6.3-4.3.1-1.5 1.3-1.6 2.9 0zm120.9 78c-.2 1.3-.4.5-.4-1.7-.1-2.2.1-3.2.4-2.3.2 1 .2 2.8 0 4zm1.5 10c-.9.9-1.2.7-1.2-1.2s.3-2.1 1.2-1.2c.9.9.9 1.5 0 2.4zm-1.5 9.2c-.4.9-1.3 1.6-2.2 1.6-2 0-1.9-1.6.1-2.4.9-.3 1.2-1.1.8-1.8-.5-1-.4-1 .6-.1.7.6 1 1.9.7 2.7zm-22.8 15.6c-1.6 1.1-2.9.4-2.9-1.6 0-1.2.4-1.3 2.1-.3 1.7.9 1.9 1.3.8 1.9zm29.1 72.1c0 .6-.4.7-1 .4-.5-.3-1-1.1-1-1.6 0-.6.5-.7 1-.4.6.3 1 1.1 1 1.6zm-14.2 10.4c-.3.3-.9-.2-1.2-1.2-.6-1.4-.5-1.5.5-.6.7.7 1 1.5.7 1.8z"/><path d="M202.83 30.606c0 1.2.5 2.5 1 2.8 1.3.8 1.3-1.5 0-3.5-.8-1.2-1-1.1-1 .7zM142.33 115.906c-.3.5.3 1 1.4 1 1.2 0 2.1-.5 2.1-1 0-.6-.6-1-1.4-1-.8 0-1.8.4-2.1 1zM249.83 182.006c0 .5.5.7 1 .4.6-.3 1-.8 1-1.1 0-.2-.4-.4-1-.4-.5 0-1 .5-1 1.1zM248.23 186.706c.4.7.1 1.5-.8 1.8-2.3.9-2 2.4.4 2.4 1.4 0 1.9-.6 1.7-2-.2-1.1-.7-2.3-1.2-2.7-.4-.5-.5-.2-.1.5zM254.53 192.006c.7.7 1.5 1 1.8.7.3-.3-.2-.9-1.2-1.2-1.4-.6-1.5-.5-.6.5zM123.43 202.006c1 1.8 2.7 3.3 3.7 3.5 1.5.2 1.6 0 .5-1.3-.7-.9-1.3-2.3-1.3-3.2 0-.9-1-1.7-2.4-1.9l-2.4-.4 1.9 3.3zM99.83 235.006c0 .5.9.9 2 .9s2-.2 2-.4-.9-.6-2-.9c-1.1-.3-2-.1-2 .4zM151.33 243.906c-.4.6-1.1.8-1.6.5-.5-.4-.9-.1-.9.6 0 .6-.9 1-2.3.7-1.7-.3-2.2.1-2.3 1.9-.1 1.3-.9 3.2-1.8 4.2s-1.6 2.5-1.6 3.4c0 1.9 5.1 5.7 7.7 5.7 1.1 0 2.3.3 2.7.7.3.4 2.2 1.2 4.2 1.9 2.9 1 3.6 1 4.1-.2.3-.9 1.3-1.2 2.3-.9 1.5.5 1.8 0 1.7-2.8-.1-2.9-.6-3.6-3.1-4.6-3.3-1.1-5.9-5.3-4.9-7.7.5-1.5-1.3-4.4-2.8-4.4-.4 0-1.1.5-1.4 1zM130.93 395.806c-.1.7-.7 1.1-1.6.7-2.2-.8-1.8.7.6 2.2 2.6 1.7 3.2 1.1 2-1.9-.5-1.3-1-1.8-1-1zM209.33 402.906c.3.5-.1 1.3-1 1.6-.9.4-1.4 1.2-1.1 1.9.2.7-.7 2.9-2.1 5-2.2 3.2-2.9 3.6-5.4 3.1-6.4-1.2-.9 6.4 7.4 10.4 3.8 1.9 4.1 1.9 5.3.2.7-.9 1.4-2.1 1.4-2.5 0-.5.5-.5 1-.2.6.3 1 .1 1-.5s1-1 2.3-.8c1.4.2 2.1-.2 1.9-1-.2-.9.4-1.1 1.8-.7 2.5.8 7-3.8 7-7.1 0-2.1-.3-2.3-3.1-1.7-2.5.5-3.6 0-6.2-2.5-3.1-3-11.5-7.3-10.2-5.2zM40.33 409.906c-.3.5-.7 2.9-.7 5.2-.1 4.5-2.1 7.8-4.5 7.8-1.2 0-1.3.9-.7 4.2.4 2.4.8 5.1.8 6 0 .9.5 1.6 1 1.5 1.8-.3 1.8 4.4.1 6.3-1.5 1.7-1.5 1.9.1 2.8.9.5 1.4 1.4 1 2-.7 1.2-6.4 1.1-8.5-.2-.9-.6-1.8-.3-2.6.8-.7.9-1.9 1.4-2.6 1.1-1.1-.4-1.3.5-1.1 4.3.5 6.2-1.5 8.3-5.6 6.1-3.5-1.9-7.1-1.3-8.2 1.4-.5 1.2-1.6 3.1-2.5 4.1-1.5 1.9-1.5 1.9-3.6-.3-1.2-1.2-2.3-2-2.5-1.8-1.6 1.6 6.6 12.4 8.5 11.2.6-.3 1.5.4 2.1 1.5.9 1.6 1.5 1.8 2.9 1 2.1-1.1 4.8 1.1 3.7 2.9-.9 1.4 1.4 5.8 3.3 6.5.9.3 3 1.4 4.6 2.5 3.6 2.4 5.2 2.6 3.5.6-.8-1-.9-1.5-.2-1.5s1.5-1.5 2-3.3c.7-2.7 1.2-3.2 3.4-2.9 1.8.2 3.6-.6 5.7-2.7 3.2-3.1 4.2-6.5 1.7-5.5-1.2.5-1.3 0-.4-2.9 1.1-3.4 1.1-3.4 3-1.5 1.1 1.1 2.8 1.8 3.8 1.5 1.2-.3 2.3.6 3.5 2.7 1 1.7 2.3 3.4 2.9 3.8 1.8 1.2-1 .9-3.9-.4-1.4-.6-2.5-1.9-2.5-2.8 0-1-.9-2-2-2.3-2.7-.7-2.7 2.5.1 6.4 1.1 1.6 1.8 3.6 1.5 4.4-.3 1 .3 1.7 2.1 2.1 2 .5 3.1.2 4.5-1.6 1-1.2 1.8-3.2 1.8-4.4 0-1.1.3-3 .6-4.1.3-1.3-.3-3-1.6-4.5s-1.7-2.7-1.1-3.3c1.3-1.3 4.4 0 3.5 1.5-.5.7-.2.9.8.5 2.4-.9 3 .4 1.3 2.4-1.5 1.5-1.3 1.7 1.8 2.1 2.6.3 3.3 0 3-.9-.5-1.3 1.9-.9 4.2.7 1.6 1.2 6.5 1.8 6.5.8 0-.4 1.1-1.3 2.3-1.9 2.1-.9 2.3-1.7 2.1-5.9-.1-2.7-.5-5.3-.8-5.9-.4-.5.3-1.5 1.4-2.1 1.1-.6 2-1.8 2-2.6 0-.9.9-2.8 2-4.4 1.1-1.5 1.7-3 1.3-3.4-.3-.3-.1-.6.5-.6.7 0 1.2.7 1.2 1.5 0 2.9 6.4 4.1 9.3 1.7.7-.7 2.3-1 3.6-.7 3.1.6 5.1-.4 5.1-2.5 0-1 .8-2 1.9-2.3 2-.5 3.7-8.5 2-10.2-.6-.5-.9-.3-.9.8 0 1.3-.9 1.7-3.4 1.7-2.8 0-3.5.4-4 2.5-.7 2.9-2.3 2.4-3.6-1.1-.5-1.3-1.7-2.4-2.6-2.4-1.4 0-1.5.2-.3 1.7 1.3 1.5 1.1 1.6-1.6.9-1.6-.4-3-.8-3.1-.9-.1-.1-.9-1.6-1.7-3.2l-1.6-3-.1 2.7c0 3.9-2.3 3.6-5.6-.7-1.6-2.1-3.5-3.5-4.8-3.5-1.2 0-2.9-.9-3.9-2-1.8-2.1-6.1-2.7-7.2-1-1 1.5-5.2 1.2-5.9-.5-.3-.8-1.5-1.5-2.7-1.5-1.4 0-1.9-.5-1.5-1.5.6-1.7-1.9-4.5-4-4.5-.8 0-1.4-.9-1.4-2s-.5-2-1.1-2c-.6 0-2.4-.9-3.9-2-1.8-1.2-3.1-1.6-3.5-1zm-5.5 45.2c0 1.3-.5 1.8-1.4 1.5-1-.4-1.2 0-.8 1.6.3 1.2.7 1.6 1 .9.7-2.1 3.1-1.4 2.5.8-.3 1.1-1.2 2-1.9 2-.8 0-2.3.9-3.4 2s-3.3 2-4.9 2c-1.6 0-3.2.6-3.5 1.2-.3.7-.4.4-.3-.7.2-2.2 2.8-5.4 3.9-4.8.4.2.5-.3.2-1.1-.4-1.1 0-1.6 1-1.6.9 0 1.6-.8 1.6-2 0-1.1.5-2 1-2 .7 0 .7-.6 0-2-.9-1.8-.8-1.8 2-.9 2 .7 3 1.8 3 3.1zm2.8 10.7c.3.8-.1 1.2-.9.9-.7-.2-1.5-1-1.7-1.7-.3-.8.1-1.2.9-.9.7.2 1.5 1 1.7 1.7z"/><path d="M83.13 421.906c.3 1.1.1 2-.4 2-.4 0-.6.7-.3 1.5.9 2.4 3.1 1.8 3.8-1 .8-3 .1-4.5-2.1-4.5-1 0-1.4.6-1 2zM15.23 450.806c.4.5.1 1.1-.6 1.3-.7.3-.8 1-.4 1.7.7 1.1 1 1.1 1.7 0 1.2-1.9 1.1-3.9-.2-3.9-.5 0-.8.4-.5.9zM113.33 459.606c1.6 3.7 1.3 8.6-.6 9-.9.3-2 1.6-2.3 2.9-.4 1.3-1.3 2.4-2.1 2.4s-1.5.7-1.5 1.5.4 1.5.9 1.5.7 1.7.4 3.8c-.5 4 .4 5.5 4.5 6.5 1.7.4 2.2.1 2.2-1.4 0-2.3 1.3-2.4 3.1-.3 1.1 1.4 1.1 1.8-.3 2.8-1.1.8-1.4 1.7-.8 2.6.5.8.5 2.1-.1 3.1-1.3 2.5 1.2 3.1 3.9.9 2.2-1.9 2.5-4.6.6-7.2-.6-.7-.9-2.4-.8-3.8.2-1.4-.2-3.9-.7-5.6-1.5-4.9-2-10.4-.9-10.4 1.6 0 1.2-1.6-1.7-5.9-2.7-4.1-5.2-5.7-3.8-2.4zM65.53 475.106c-1.2 1.9-1.8 2.1-2.8 1-.7-.6-2-1.2-2.8-1.2-1.3.1-1.2.4.4 1.6 1.1.8 1.9 2.2 1.7 3-.3 1.3.1 1.6 3.1 1.8.6.1 1.4 1.4 1.7 3 .7 4 2.2 4.2 4.3.7 2.3-3.9 2.2-7.2-.3-7.8-1.8-.5-2.4-1.5-2.1-3.6.2-1.5-1.7-.6-3.2 1.5zM456.63 484.006c-1.9 1.1-1.4 3.6 1.1 5.8 1.2 1 1.3 1.5.4 1.8-2.1.8-1.5 2 1.6 3.1 2.5.9 3 .8 3.4-.8.3-1.1 1.2-1.8 2.3-1.6 1.1.2 1.3.1.7-.1-1.6-.6-1.7-2-.1-2.5.6-.2-.3-1-2-1.7-2-.8-3.2-2.1-3.2-3.2 0-2.1-1.6-2.4-4.2-.8zM27.43 490.706c-.8 1.3 2 3.5 3.4 2.7.5-.3 1-1.1 1-1.7 0-.6-.3-.8-.7-.5-.3.4-1.2.2-1.9-.4-.7-.6-1.4-.6-1.8-.1z"/><path d="M474.33 494.406c0 2.4-.6 3.3-3.2 4.5-1.8.8-3.3 2.3-3.3 3.2 0 1-.5 1.8-1 1.8-.6 0-2.1 1.1-3.3 2.4-1.5 1.7-3.7 2.7-6.8 3.1-4 .6-4.9.3-7.8-2.1-2.2-1.8-2.9-2.9-2-3.4.6-.4.9-1.4.7-2.1-.3-.8.2-2 1.1-2.7 1.4-1.2 1.4-1.3-.2-.8-1 .3-2.6 0-3.7-.6-1-.7-2.1-1-2.4-.7-.3.2.5 3.4 1.6 6.9 3.6 11.6 3.7 12 2.5 12-.7 0-.4.7.6 1.4 2.6 2 2.1 6.3-1.2 9.5-2.1 2.1-2.6 3.2-1.9 4.4.7 1.3.5 1.5-.7 1.1-1.1-.5-1.5.1-1.6 2.2 0 1.6-.2 4.2-.4 5.9-.3 2.6-.1 2.4 2.1-1.8 1.9-3.7 3-4.7 4.9-4.7 1.6 0 2.5-.6 2.5-1.5s.7-1.8 1.6-2.2c.8-.3 1.4-1.5 1.3-2.7 0-1.1-.1-3.3 0-4.8.1-2.5.3-2.6 4.2-2.1 3.5.5 4.4.2 7.4-2.7 1.8-1.8 3.8-2.9 4.4-2.6 2.6 1.6 8.8-7.7 7.6-11.5-.3-.9-.3-2.9.1-4.3.5-2.1.9-2.4 2.4-1.6 1.3.7 2.1.7 2.6-.1.8-1.3-.3-2.4-4.7-4.7l-3.4-1.7v3zM31.63 498.906c-.4 2.6-.2 2.9 1.4 2.4 1.2-.3 1.8 0 1.8 1 0 1.8 1.7 2 4 .6 1.2-.7.9-1.4-1.9-4-1.9-1.6-3.8-3-4.2-3-.4 0-.9 1.4-1.1 3z"/><path d="M458.43 496.706c-.3.6-.1 1.4.5 1.7 1.5 1 2.5-.3 1.2-1.6-.7-.7-1.3-.7-1.7-.1zM451.43 497.806c-.3.5.1 1.4.9 2.1 1.2 1 1.5 1 1.5-.3 0-1.9-1.6-3.1-2.4-1.8zM117.13 499.106c-1.8 2.3-3.3 8-2.7 10.3.4 1.6-.1 3-1.5 4.4-3.7 3.7-2 6.7 3 5.4 1.4-.4 2-.2 1.6.4-.4.7.8 1.4 3 1.8 3.6.6 5.2-.3 5.3-3.2 0-.6.5-1.3 1.1-1.5.9-.3.9-.9.1-2.5-.9-1.6-.9-2.3.2-3.2.7-.6 1.6-.8 1.9-.4.4.3.7-.7.7-2.4 0-2.1-.7-3.5-2.2-4.5-2.4-1.5-5.8-1.3-5.8.3 0 .5-.9.9-1.9.9-1.7 0-1.9-.5-1.4-3.5.6-3.7.2-4.3-1.4-2.3zM215.23 545.506c.3.9.6 1.8.6 2 0 .3.5.2 1-.1.6-.3 1 .1 1 .9 0 2.4-6.1 3.7-8.2 1.8-1-.8-1.8-1.1-1.8-.6 0 1.4 7.7 7.4 9.4 7.4.8 0 1.8-.5 2.1-1 .5-.8 1.1-.7 2.1.1 1.1.9 1.4.9 1.4-.1 0-.9.7-.8 2.5.4 1.4.9 2.5 1.2 2.5.6 0-.5.7-1 1.5-1s1.5-.9 1.5-2 .6-2 1.3-2c.8 0 .9-.2.1-.8-.7-.4-1.3-1.6-1.5-2.7-.4-1.6-1.3-2-4.9-2.1-2.5-.1-5.8-.6-7.3-1.3-3.7-1.4-4-1.4-3.3.5zM436.63 547.806c-2.6.9-4.9 2.3-5.2 3.1-.3.8-1.5 2.7-2.7 4.1-1.9 2.5-2 2.8-.6 5.6 1 1.8 1.2 3.5.7 4.3-.6.9-.3 1.9.8 2.8 1.3 1 1.4 1.5.4 1.8-.6.3-1 1-.6 1.5.7 1.2 3.4-1.5 3.4-3.4 0-2.1 8-1.1 10 1.2 2.3 2.6 10.8 7.3 11.9 6.7.5-.4 1.2.3 1.6 1.4.3 1.1 1 2 1.5 2 1 0 2.4-3.1 2.1-4.9-.1-.7.2-1 .8-.6.7.3 1.1-.2 1.1-1.4s.3-2.1.8-2.1c1.2.1 5.2 3.8 5.2 4.9 0 .6 1 1.5 2.1 2.2 2 1 2.1.9 1.7-.9-.6-2.2 3.8-6.2 6.7-6.2.8 0 1.5-.8 1.5-1.8s1.1-2.5 2.5-3.2l2.5-1.3-3.8-2.6c-2-1.3-4.2-3.1-4.8-3.9-.7-1-1.3-1.1-1.8-.4-.8 1.3-5.5.1-8.8-2.2-2.7-1.9-6.9-2.1-8.6-.4-1 1-1.7 1-3.4-.1-1.9-1.2-2.3-1.1-4 1-1.3 1.6-2.1 2-2.5 1.1-.2-.6-.9-1.2-1.5-1.2-2 0-3.7-3.5-3.1-6.3.6-3 .6-3-5.9-.8zM235.83 549.706c0 .8-.5 1-1.2.6s-.1.6 1.3 2.1c1.5 1.5 3.2 2.4 3.8 2.1 1.5-1 1.4-2.9-.1-2.3-.7.2-1.8-.5-2.5-1.7s-1.2-1.5-1.3-.8zM204.63 551.606c.7.3 1.6.2 1.9-.1.4-.3-.2-.6-1.3-.5-1.1 0-1.4.3-.6.6zM232.23 555.406c-.5 1.3 3 7.5 4.3 7.5.3 0 0-.7-.7-1.5-.6-.8-.9-1.9-.5-2.5.3-.5-.1-1-.9-1-1.9 0-2.1-1.1-.4-2.8.9-.9.9-1.2 0-1.2-.7 0-1.5.7-1.8 1.5zM228.33 559.906c.4.6 1.1.8 1.6.5 1.4-.9 1.1-1.5-.7-1.5-.8 0-1.2.5-.9 1zM223.83 560.906c-.9.6-1 1-.3 1 .6 0 1.5-.5 1.8-1 .8-1.2.4-1.2-1.5 0zM489.93 561.806c-.8.6-.9 1.1-.3 1.5.6.3 1.4.1 1.7-.5.9-1.4.2-2-1.4-1zM490.33 566.006c-.4.6-1.3.8-2.1.5-1.2-.5-5 5.2-4 6.1.6.7 3.6-.9 3.1-1.7-.3-.4.8-1.3 2.5-1.8 2.1-.8 2.8-1.6 2.4-2.6-.7-1.9-1.1-2-1.9-.5z"/><path d="M474.83 574.506c0 .8-.4 1.4-1 1.4-.5 0-.7.7-.4 1.5.4.8.1 1.5-.6 1.5-.6 0-.8.5-.5 1 .4.6.1 1.7-.5 2.5-.8.9-.8 1.5-.2 1.5.6 0 1.7.3 2.6.6.8.3 2.2-.3 3.2-1.5 1-1.1 2.2-1.7 2.7-1.4.6.3.7.1.3-.5-.4-.6-.1-2 .6-3.1 1.5-2.4 1.1-2.9-3.1-4.1-2.4-.7-3.1-.6-3.1.6zM467.33 586.906c.3.5-.1 1-1 1-1 0-1.3.5-.9 1.2.4.6.8 2.8.8 4.7.1 2.7.6 3.7 2 3.9 1.4.3 1.7 0 1.2-1.3-.3-1 0-2.8.8-4 1.3-2 1.3-2.5-.5-4.4-2.1-2.2-3.5-2.8-2.4-1.1z"/></g></svg>