<?xml version="1.0" standalone="no"?>
<!DOCTYPE svg PUBLIC "-//W3C//DTD SVG 20010904//EN"
 "http://www.w3.org/TR/2001/REC-SVG-20010904/DTD/svg10.dtd">
<svg version="1.0" xmlns="http://www.w3.org/2000/svg"
 width="646.000000pt" height="525.877684pt" viewBox="0 0 646.000000 525.877684"
 preserveAspectRatio="xMidYMid meet">
<metadata>
Created by potrace 1.15, written by Peter Selinger 2001-2017
</metadata>
<g transform="translate(-645.000000,1261.877684) scale(0.100000,-0.100000)"
fill="#222222" stroke="none">
<path d="M8092 12611 c-10 -6 -10 -10 3 -21 13 -11 15 -9 15 9 0 24 0 24 -18
12z"/>
<path d="M8143 12583 c-27 -24 -38 -60 -23 -78 7 -8 7 -16 1 -19 -5 -3 -7 -15
-4 -27 5 -17 2 -20 -18 -17 -17 2 -23 -1 -20 -12 2 -8 3 -23 3 -32 0 -10 3
-20 9 -23 5 -4 9 1 9 11 0 15 2 15 23 2 31 -21 49 -13 36 16 -8 17 -6 36 9 79
10 31 22 54 25 50 4 -3 7 -1 7 6 0 7 6 9 13 6 6 -3 2 2 -10 11 -13 9 -23 23
-23 30 0 19 -13 18 -37 -3z"/>
<path d="M8223 12524 c-7 -3 -9 -12 -6 -20 3 -9 -2 -14 -16 -14 -27 0 -27 -12
3 -47 26 -31 23 -52 -12 -89 -12 -12 -18 -25 -15 -28 4 -3 -6 -6 -20 -6 -18 0
-27 -5 -27 -16 0 -13 -4 -13 -27 4 -16 10 -35 22 -43 27 -12 6 -13 5 -2 -6 18
-20 15 -26 -17 -32 -16 -3 -35 -13 -43 -21 -17 -16 -38 -4 -38 21 0 17 -8 16
-26 -1 -10 -11 -12 -21 -5 -39 11 -28 3 -106 -12 -124 -5 -7 -18 -13 -28 -13
-9 0 -24 -6 -31 -13 -7 -8 -19 -12 -27 -9 -10 3 -12 -2 -9 -22 4 -19 0 -29
-14 -37 -10 -5 -16 -15 -12 -20 3 -6 -4 -18 -15 -28 -12 -10 -21 -30 -21 -46
0 -25 -3 -27 -32 -22 -18 3 -43 8 -55 12 -18 6 -23 3 -23 -9 0 -9 -8 -16 -20
-16 -17 0 -19 -3 -10 -19 14 -27 14 -28 -21 -35 -17 -3 -28 -10 -24 -16 4 -7
-2 -7 -19 0 -16 6 -27 6 -31 0 -24 -39 -101 27 -114 97 0 4 -8 -2 -16 -13 -8
-11 -15 -14 -15 -6 0 19 -28 14 -33 -5 -3 -14 -6 -12 -15 10 -17 41 -15 77 6
84 23 8 52 39 45 47 -4 3 -2 6 4 6 5 0 8 -24 7 -57 -2 -32 -1 -49 3 -38 3 11
11 24 18 30 7 5 15 23 18 39 4 24 0 31 -29 48 -19 11 -34 23 -34 27 0 4 -17
29 -37 56 -22 27 -33 50 -27 52 12 4 2 79 -15 112 -6 10 -7 21 -4 25 3 3 -2 6
-13 6 -12 0 -25 13 -34 33 -11 23 -23 33 -42 35 -16 2 -28 9 -28 18 0 8 -4 14
-10 14 -19 0 -25 2 -50 15 -14 7 -45 17 -68 23 l-44 10 7 -35 c5 -29 4 -35 -9
-30 -17 7 -13 -12 12 -50 13 -21 13 -23 -6 -23 -15 0 -19 -5 -15 -20 8 -32
-19 -80 -45 -80 -17 0 -27 -9 -38 -35 -16 -39 -12 -57 11 -49 14 6 49 -18 110
-73 23 -20 26 -20 35 -5 9 15 14 12 45 -23 37 -43 44 -72 20 -81 -8 -4 -15
-17 -15 -29 0 -29 -48 -88 -66 -81 -17 7 -18 -14 -2 -49 10 -22 9 -28 -2 -36
-40 -23 -43 -27 -36 -53 5 -19 13 -26 32 -26 14 0 23 4 19 10 -3 6 -2 10 2 10
5 0 14 -10 22 -22 12 -19 11 -23 -6 -37 -34 -28 -35 -49 -3 -56 25 -6 73 -55
53 -55 -5 0 -8 -15 -8 -32 0 -31 -2 -33 -30 -30 -26 3 -30 0 -30 -23 0 -14 1
-25 1 -25 1 0 18 7 37 15 20 8 48 15 62 15 14 0 28 7 31 15 6 14 52 13 76 -1
15 -9 -4 -26 -23 -21 -11 3 -17 1 -13 -4 3 -5 14 -9 25 -9 14 0 21 9 25 30 4
16 6 33 5 36 -2 4 11 13 28 22 22 10 31 22 31 39 0 13 6 31 14 38 11 11 15 8
24 -23 7 -23 8 -40 2 -47 -6 -7 -6 -16 -2 -20 4 -5 0 -6 -9 -3 -12 5 -14 0
-12 -21 4 -29 -15 -65 -24 -43 -5 12 -35 17 -45 6 -7 -6 39 -54 52 -54 6 0 10
5 10 11 0 5 5 7 10 4 20 -12 11 -72 -12 -88 -20 -14 -21 -18 -8 -26 8 -6 10
-11 4 -11 -12 0 -27 -36 -25 -57 1 -7 -5 -13 -13 -13 -9 0 -21 -9 -28 -20 -7
-11 -23 -20 -36 -20 -25 0 -55 23 -45 34 4 3 1 6 -5 6 -7 0 -12 -10 -12 -22 0
-34 -14 -50 -34 -42 -17 6 -17 5 -5 -17 7 -13 13 -27 14 -31 0 -3 3 -10 8 -14
4 -4 7 -20 7 -36 0 -21 5 -28 20 -28 13 0 20 -7 20 -18 0 -10 13 -28 30 -40
27 -20 29 -27 27 -75 -2 -52 -2 -53 -32 -49 -25 4 -28 2 -17 -9 6 -7 12 -29
12 -50 0 -21 8 -47 20 -62 11 -14 20 -34 20 -46 0 -30 31 -43 69 -28 29 11 34
10 46 -7 8 -10 12 -22 10 -26 -2 -3 14 -28 35 -54 22 -27 40 -53 40 -59 0 -7
4 -7 12 1 17 17 28 15 28 -5 0 -10 13 -25 29 -34 29 -17 47 -69 28 -88 -13
-13 10 -50 31 -49 9 0 50 -12 90 -27 47 -17 77 -24 85 -18 7 6 38 15 70 22 52
11 61 11 77 -4 16 -15 19 -15 34 1 12 12 26 14 51 10 25 -5 35 -3 35 5 0 12
15 0 57 -43 12 -13 21 -14 35 -7 21 11 38 4 38 -16 0 -7 24 -34 52 -59 39 -34
61 -46 84 -46 17 0 37 -7 44 -15 7 -8 29 -15 49 -15 20 0 42 -5 48 -11 13 -13
63 16 63 37 0 22 18 26 49 10 48 -26 105 -30 142 -12 40 20 73 20 89 1 7 -8
23 -15 36 -15 30 0 74 20 74 34 0 6 12 -4 26 -21 14 -18 32 -33 40 -33 8 0 20
-12 26 -27 7 -16 13 -29 14 -31 6 -11 105 -39 110 -31 3 5 20 7 37 4 40 -8 87
9 87 31 0 12 3 14 13 6 10 -8 20 -5 39 13 16 14 29 20 35 14 13 -13 60 11 74
38 6 12 20 24 30 26 14 4 19 14 19 40 0 20 5 39 10 42 6 4 7 13 1 24 -15 26 2
46 27 32 12 -6 39 -8 66 -5 26 4 51 2 58 -3 7 -6 22 -7 33 -3 19 7 66 -7 64
-19 0 -3 -4 -14 -8 -25 -5 -13 1 -27 21 -48 26 -28 30 -29 73 -20 25 5 45 6
45 1 0 -5 11 -9 24 -9 14 0 28 -4 31 -10 8 -13 54 -13 93 1 27 9 36 8 64 -12
24 -17 33 -20 36 -10 5 16 42 54 47 49 2 -2 6 -33 9 -68 2 -36 7 -73 11 -82 4
-9 2 -25 -4 -36 -12 -22 -6 -32 20 -32 22 0 79 -47 79 -66 0 -8 3 -13 8 -12
21 6 50 -15 55 -41 3 -16 13 -36 22 -45 33 -33 -7 -85 -42 -54 -19 16 -39 14
-61 -9 -12 -11 -11 -19 2 -48 10 -19 21 -35 26 -35 6 0 10 -15 10 -34 0 -24 7
-38 23 -49 20 -14 21 -16 6 -32 -9 -9 -29 -18 -43 -18 -22 -2 -26 -6 -21 -22
16 -58 17 -76 1 -100 -9 -14 -25 -25 -36 -25 -23 0 -26 -15 -7 -27 23 -14 28
-44 12 -70 -12 -18 -14 -31 -6 -57 5 -19 5 -38 1 -43 -11 -11 -43 -124 -42
-145 0 -10 -3 -20 -9 -23 -5 -4 -9 -12 -9 -20 0 -11 5 -11 29 1 19 10 28 20
25 32 -2 9 0 23 5 31 13 20 68 -3 119 -51 22 -20 43 -34 46 -31 3 4 6 -1 6 -9
0 -20 23 -39 50 -41 30 -2 54 -40 46 -72 -5 -20 1 -29 39 -57 44 -33 54 -51
35 -63 -15 -9 -12 -26 10 -63 13 -21 25 -30 32 -25 7 4 33 7 58 8 25 0 57 4
71 9 21 6 31 3 45 -12 15 -16 37 -20 112 -24 89 -5 93 -5 112 19 16 20 22 22
39 13 15 -8 21 -8 21 0 0 7 8 9 23 4 12 -4 64 -8 115 -8 91 -1 94 -2 119 -30
28 -33 56 -40 92 -23 19 9 25 9 28 0 2 -7 10 -10 18 -7 7 3 19 -4 25 -15 9
-17 8 -22 -5 -27 -12 -5 -13 -9 -4 -20 7 -9 8 -14 1 -14 -6 0 -7 -13 -2 -34 6
-28 5 -33 -7 -29 -8 3 -13 14 -10 24 4 13 0 19 -12 19 -9 0 -22 5 -28 11 -9 9
-15 3 -26 -23 -17 -42 -85 -71 -112 -48 -14 11 -15 10 -6 -12 8 -22 5 -26 -30
-41 -26 -11 -41 -25 -45 -42 -4 -17 -18 -31 -40 -40 -28 -12 -34 -19 -34 -44
0 -21 -5 -31 -15 -31 -9 0 -18 -7 -22 -15 -7 -20 -55 -45 -87 -45 -16 0 -27
-7 -31 -20 -4 -11 -32 -34 -63 -50 -31 -16 -49 -29 -39 -30 9 0 17 -7 17 -15
0 -8 5 -15 11 -15 5 0 7 5 4 10 -9 15 21 23 42 11 16 -9 16 -10 -6 -11 -23 0
-23 -1 -8 -18 10 -10 17 -23 17 -28 0 -5 9 -15 21 -22 11 -7 19 -21 16 -30 -5
-23 28 -88 50 -97 26 -11 64 -14 58 -6 -2 5 2 17 10 27 8 10 15 27 15 36 0 12
5 15 16 11 8 -3 13 -12 10 -19 -3 -7 6 -27 20 -44 15 -17 24 -36 21 -44 -3 -7
0 -19 6 -25 9 -9 9 -14 -2 -20 -7 -5 -10 -14 -7 -20 4 -6 0 -11 -9 -11 -11 0
-15 -6 -11 -18 4 -13 -3 -27 -24 -45 -16 -15 -30 -35 -30 -45 0 -27 -77 -91
-101 -85 -15 4 -18 2 -13 -11 4 -10 18 -16 40 -16 31 0 33 -1 24 -25 -6 -16
-6 -27 2 -31 6 -4 8 -3 4 4 -4 6 1 10 11 10 10 -1 35 2 55 6 26 5 47 2 68 -9
17 -9 47 -15 68 -14 20 0 51 -5 68 -12 29 -12 34 -10 64 14 17 15 38 27 46 27
8 0 17 7 20 15 4 9 19 15 39 15 29 0 32 3 28 24 -4 21 2 28 36 46 36 18 40 24
35 45 -5 20 -1 27 17 34 30 12 59 46 59 70 0 26 77 37 102 14 17 -15 43 -10
33 7 -7 12 7 19 59 29 36 7 50 5 71 -9 15 -10 35 -15 46 -13 28 8 66 -21 78
-60 7 -20 22 -39 36 -45 14 -7 25 -17 25 -24 0 -17 55 -48 85 -48 12 0 25 7
29 15 3 9 12 12 22 8 12 -4 15 -3 10 5 -9 15 -1 15 24 2 14 -7 19 -5 23 10 5
18 8 19 34 9 39 -16 123 -18 123 -3 0 6 7 14 15 18 8 3 15 12 15 19 0 8 -7 20
-15 27 -8 7 -15 26 -15 43 0 29 1 29 18 14 23 -21 35 -11 20 17 -14 27 -28 36
-54 36 -11 0 -29 9 -38 19 -16 17 -16 22 -2 54 8 20 12 38 8 41 -3 3 4 16 16
29 29 31 42 114 18 123 -9 3 -13 10 -10 15 3 5 13 1 22 -9 31 -35 74 -45 136
-32 36 7 56 16 56 25 0 8 6 12 13 9 13 -5 16 -42 3 -62 -4 -7 -3 -12 3 -12 5
0 13 -10 17 -22 8 -29 34 -59 44 -53 4 3 23 -1 41 -9 33 -14 40 -16 57 -16 4
0 -1 -5 -10 -11 -10 -5 -18 -17 -18 -26 0 -15 2 -14 13 2 8 10 19 15 25 11 8
-5 10 -1 5 9 -5 16 -4 16 25 1 45 -23 52 -20 52 19 0 19 -4 35 -10 35 -5 0
-10 -11 -10 -25 0 -16 -6 -25 -16 -25 -8 0 -13 4 -9 9 8 14 -16 26 -45 23 -29
-3 -87 49 -76 67 4 6 0 11 -8 11 -8 0 -19 6 -23 13 -4 8 -16 17 -26 20 -14 5
-17 13 -11 29 8 28 24 40 46 34 24 -5 38 15 42 59 2 21 8 40 13 44 13 8 23 50
13 56 -4 3 -6 14 -3 25 4 15 0 20 -13 20 -19 0 -77 39 -60 40 5 0 -1 11 -14
25 -18 20 -21 28 -12 37 16 16 15 100 0 117 -10 10 -10 15 -2 18 8 3 7 18 -5
51 -12 35 -23 48 -39 50 -13 2 -28 12 -34 21 -6 10 -19 16 -28 14 -11 -3 -19
3 -23 16 -3 12 -2 19 3 16 4 -3 11 2 14 11 4 12 15 15 37 12 36 -6 42 2 29 36
-6 17 -6 26 0 26 6 0 10 10 10 21 0 17 -3 19 -13 10 -11 -8 -23 -3 -53 24 -21
19 -47 35 -58 35 -15 0 -16 3 -6 15 7 8 9 16 4 16 -5 1 4 4 21 8 19 4 31 13
34 26 2 11 9 24 17 30 7 5 16 22 19 36 5 21 -4 36 -57 94 -82 89 -88 98 -92
142 -3 33 -7 38 -32 41 -16 2 -26 1 -22 -3 8 -8 -28 -45 -44 -45 -7 0 -14 12
-14 26 -2 21 2 25 17 21 11 -3 19 0 19 8 0 7 -15 16 -32 20 -21 5 -27 9 -17
12 20 5 31 51 15 61 -12 7 -36 56 -36 72 0 6 7 10 15 10 13 0 14 4 5 20 -9 16
-15 18 -30 10 -30 -16 -73 8 -66 36 6 24 -29 68 -45 58 -4 -2 -13 4 -19 15 -9
17 -14 19 -34 9 -20 -9 -31 -7 -59 11 -37 23 -52 27 -42 11 3 -5 1 -10 -5 -10
-7 0 -9 -7 -6 -16 4 -12 2 -15 -9 -10 -10 4 -15 -1 -15 -15 0 -14 -6 -19 -22
-18 -41 4 -59 -1 -56 -13 1 -7 -2 -23 -6 -36 -6 -19 -12 -22 -37 -17 -18 4
-29 3 -29 -4 0 -7 -14 -9 -34 -6 -22 2 -39 -1 -46 -11 -7 -7 -21 -14 -31 -14
-12 0 -19 -7 -19 -20 0 -41 -31 -98 -56 -104 -22 -6 -50 -48 -46 -68 1 -4 -10
-10 -26 -14 -15 -3 -39 -10 -54 -16 -28 -11 -88 -2 -88 12 0 5 7 7 15 4 9 -4
15 0 15 9 0 8 5 17 11 19 6 2 13 24 15 48 2 25 6 55 9 67 4 17 -1 23 -25 28
-23 5 -30 12 -30 30 0 23 -22 50 -33 39 -4 -4 -18 1 -31 10 -14 9 -33 16 -43
16 -16 1 -17 1 -1 10 19 11 14 45 -11 73 -15 18 -14 21 11 42 14 12 27 31 29
41 4 33 -19 71 -50 85 -28 12 -61 70 -61 107 0 6 -16 29 -35 51 -19 21 -35 44
-35 50 0 7 -5 9 -10 6 -6 -4 -18 -1 -27 7 -14 11 -15 11 -11 -2 3 -8 -2 -20
-11 -27 -21 -16 -32 -16 -28 -1 1 7 -15 15 -40 18 -48 7 -52 1 -23 -40 20 -28
21 -91 1 -98 -5 -2 -8 -11 -5 -20 5 -14 3 -14 -10 2 -13 16 -18 17 -33 5 -10
-7 -23 -19 -30 -27 -18 -22 -49 5 -49 43 1 25 5 30 25 29 23 -1 23 0 19 73 -5
66 -3 73 14 73 13 0 18 7 18 28 0 15 8 35 18 44 46 43 59 63 52 83 -5 13 -2
26 8 38 10 11 15 33 13 59 -2 37 0 40 14 28 13 -11 19 -11 33 4 13 13 14 20 5
35 -10 16 -7 23 23 49 40 36 44 68 15 128 -11 23 -16 43 -11 49 5 6 5 17 0 25
-6 8 -10 27 -10 41 0 16 -7 30 -17 33 -15 6 -15 8 1 19 10 8 16 22 14 35 -3
21 -4 21 -32 7 -37 -20 -86 -20 -86 0 0 8 -9 15 -19 15 -26 0 -34 15 -41 70
-4 34 -10 47 -27 55 -13 5 -23 15 -23 22 0 6 -16 17 -35 23 -19 6 -43 22 -53
35 -13 16 -23 21 -33 14 -20 -13 -25 -11 -53 15 -30 27 -32 36 -11 36 8 0 15
9 15 20 0 16 -5 19 -24 14 -24 -6 -61 20 -51 37 3 5 0 19 -7 31 -7 13 -11 28
-10 34 1 7 -6 14 -16 16 -13 4 -18 0 -18 -15 1 -23 -51 -44 -68 -27 -6 6 -18
10 -27 10 -9 0 -20 7 -23 16 -8 22 -8 26 4 19 6 -3 10 -1 10 4 0 17 -36 13
-50 -4 -7 -9 -19 -14 -27 -11 -7 3 -13 0 -13 -7 0 -9 -3 -9 -9 1 -6 10 -13 11
-34 1 -15 -7 -27 -16 -27 -21 0 -4 -6 -8 -14 -8 -7 0 -25 -11 -40 -25 -31 -29
-44 -31 -52 -10 -4 9 -17 14 -33 13 -31 -2 -73 23 -106 65 -22 29 -27 31 -85
29 -52 -2 -65 2 -85 22 -13 13 -26 21 -29 18 -3 -3 -6 -1 -7 4 -4 43 -7 56
-17 66 -9 9 -15 9 -24 0 -9 -9 -18 -4 -40 20 -15 17 -28 35 -28 40 0 14 -75
39 -102 34 -15 -3 -30 -1 -34 5 -4 7 -10 7 -18 0 -8 -7 -27 -6 -56 1 -25 6
-51 11 -57 11 -7 0 -15 8 -18 17 -5 17 -71 51 -110 57 -11 1 -92 5 -180 8 -88
4 -172 11 -187 17 -14 5 -35 7 -45 4 -13 -4 -28 3 -48 24 -34 36 -84 40 -172
14 -50 -15 -59 -15 -92 -1 -53 23 -101 31 -101 17 0 -6 -4 -9 -10 -5 -5 3 -7
12 -3 21 3 8 -2 23 -12 34 -9 10 -14 24 -10 29 4 7 -4 11 -19 11 -23 0 -24 3
-19 34 3 22 0 42 -11 59 l-17 25 40 7 c31 5 41 11 41 25 0 10 4 21 8 24 14 9
52 -6 52 -20 0 -7 4 -15 9 -18 5 -4 7 4 4 15 -4 15 1 27 17 39 l23 17 -22 24
c-29 31 -55 85 -46 98 3 6 -1 24 -10 40 -8 17 -15 39 -15 50 0 11 -9 25 -19
30 -10 6 -27 33 -37 60 -13 38 -34 65 -85 111 -65 58 -95 71 -130 56 -20 -9
-35 10 -21 27 13 17 11 45 -5 51 -7 3 -13 16 -13 30 0 30 -31 44 -67 30z
m-243 -329 c0 -9 -6 -12 -15 -9 -8 4 -12 10 -9 15 8 14 24 10 24 -6z m-835 -5
c3 -5 1 -10 -4 -10 -6 0 -11 5 -11 10 0 6 2 10 4 10 3 0 8 -4 11 -10z m171
-175 c-3 -9 -11 -13 -17 -9 -8 5 -8 9 1 14 7 5 9 14 5 21 -6 11 -5 11 5 2 7
-6 10 -19 6 -28z m-56 -15 c0 -5 -4 -10 -10 -10 -5 0 -10 5 -10 10 0 6 5 10
10 10 6 0 10 -4 10 -10z m-71 -119 c10 -6 10 -10 1 -16 -7 -4 -19 0 -28 9 -14
13 -14 16 -2 16 8 0 21 -4 29 -9z m724 -195 c14 -11 15 -16 6 -22 -7 -4 -15
-2 -17 4 -2 7 -10 12 -18 12 -8 0 -14 5 -14 10 0 14 22 12 43 -4z m-187 -190
c0 -1 15 -20 32 -42 18 -23 32 -50 32 -61 0 -29 20 -43 65 -43 49 0 57 -6 79
-48 9 -18 28 -37 41 -42 14 -5 25 -14 25 -19 0 -6 6 -8 14 -5 8 3 17 1 21 -5
3 -6 2 -11 -3 -11 -18 0 -23 -33 -8 -54 15 -23 4 -62 -15 -51 -5 4 -7 11 -3
16 3 6 -3 5 -14 -2 -21 -13 -21 -13 6 -31 15 -10 35 -15 44 -12 12 4 21 -3 30
-20 6 -14 15 -26 20 -26 12 0 10 -44 -3 -57 -18 -18 20 -84 58 -102 27 -13 63
-62 63 -84 0 -3 -14 -10 -32 -16 -42 -15 -96 -4 -103 20 -4 10 -21 22 -38 27
-26 7 -33 14 -35 39 -2 17 -12 39 -23 49 -10 9 -19 23 -19 29 0 7 -10 15 -21
18 -14 4 -20 11 -16 21 8 21 -11 73 -29 80 -8 3 -14 11 -14 18 -1 7 -15 22
-32 33 -39 25 -45 41 -19 50 25 8 29 53 6 61 -8 4 -15 19 -15 34 0 16 -5 32
-10 35 -11 6 -42 72 -44 90 -1 6 -11 11 -23 13 -15 2 -23 10 -23 22 0 11 -6
23 -14 27 -12 8 -36 45 -36 58 0 4 53 -4 56 -9z m-131 -36 c3 -5 2 -10 -4 -10
-5 0 -13 5 -16 10 -3 6 -2 10 4 10 5 0 13 -4 16 -10z m2225 -81 c0 -6 -4 -7
-10 -4 -5 3 -10 11 -10 16 0 6 5 7 10 4 6 -3 10 -11 10 -16z m1100 -1459 c0
-5 -5 -10 -11 -10 -5 0 -7 5 -4 10 3 6 8 10 11 10 2 0 4 -4 4 -10z m-462 -157
c24 -4 32 -11 32 -27 0 -19 -5 -21 -35 -18 -19 2 -35 9 -35 15 0 6 -8 19 -17
30 -17 20 -17 20 2 13 11 -4 35 -10 53 -13z m317 -93 c3 -5 1 -10 -4 -10 -6 0
-11 5 -11 10 0 6 2 10 4 10 3 0 8 -4 11 -10z m39 -103 c15 -26 26 -54 26 -62
0 -36 92 -50 115 -18 11 14 16 16 26 6 7 -7 9 -13 5 -13 -5 0 -3 -6 3 -14 7
-9 8 -22 3 -37 -5 -13 -6 -33 -1 -44 4 -11 8 -32 8 -47 1 -29 -12 -34 -78 -30
-26 1 -51 -19 -51 -42 0 -9 -4 -16 -10 -16 -5 0 -10 -7 -10 -15 0 -8 -9 -15
-19 -15 -12 0 -26 -12 -34 -27 -7 -16 -20 -26 -28 -24 -8 2 -34 7 -59 11 -24
4 -46 13 -48 19 -2 7 -15 16 -28 21 -13 5 -24 16 -24 24 0 7 -10 16 -22 19
-12 4 -19 9 -15 13 4 4 2 13 -4 21 -9 10 -8 13 0 13 7 0 10 4 6 10 -3 5 -12 7
-20 3 -8 -3 -15 0 -15 6 0 6 -7 11 -15 11 -17 0 -45 60 -45 96 0 16 6 24 16
24 9 0 34 5 55 12 37 10 39 14 39 50 0 30 4 38 18 38 10 0 24 -6 31 -12 11
-10 14 -10 18 0 3 6 19 12 37 12 40 0 76 25 76 53 0 27 12 15 44 -46z m802
-1112 c-3 -8 -1 -17 4 -20 18 -11 10 -26 -11 -23 -35 5 -45 30 -24 62 16 24
20 25 28 11 5 -9 6 -23 3 -30z m114 -297 c19 2 28 -5 40 -31 7 -17 13 -43 12
-56 -2 -19 2 -22 19 -18 12 3 22 0 26 -9 6 -17 40 -19 45 -2 2 6 15 0 31 -16
29 -29 34 -41 14 -33 -24 9 -50 -20 -43 -47 6 -23 4 -24 -21 -17 -16 4 -34 6
-40 4 -8 -3 -13 4 -13 16 0 15 -6 21 -21 21 -19 0 -19 -1 -4 -16 20 -20 16
-25 -13 -17 -12 3 -22 13 -22 23 0 10 -5 20 -11 22 -8 3 -6 9 4 20 12 11 13
18 4 27 -8 8 -7 11 6 11 9 0 17 4 17 10 0 10 -50 72 -85 104 -20 18 -20 18 5
11 14 -5 36 -8 50 -7z"/>
<path d="M11755 7990 c3 -5 8 -10 11 -10 2 0 4 5 4 10 0 6 -5 10 -11 10 -5 0
-7 -4 -4 -10z"/>
<path d="M8000 12453 c0 -13 5 -23 10 -23 13 0 13 11 0 30 -8 12 -10 11 -10
-7z"/>
<path d="M6660 12451 c0 -5 5 -13 10 -16 6 -3 10 -2 10 4 0 5 -4 13 -10 16 -5
3 -10 2 -10 -4z"/>
<path d="M6707 12440 c4 -14 0 -20 -10 -20 -8 0 -20 -13 -26 -30 -5 -16 -17
-30 -25 -30 -19 0 -20 -13 -4 -57 9 -24 18 -33 35 -33 13 0 23 -6 23 -12 0
-19 48 -19 55 -1 5 14 8 13 26 -3 17 -15 23 -16 40 -5 16 9 24 9 35 0 17 -14
44 -5 44 14 0 8 -9 22 -20 32 -11 10 -25 35 -31 56 -7 20 -21 42 -33 48 -11 6
-36 23 -55 36 -42 31 -61 32 -54 5z"/>
<path d="M6825 12430 c-3 -5 -1 -10 4 -10 6 0 11 5 11 10 0 6 -2 10 -4 10 -3
0 -8 -4 -11 -10z"/>
<path d="M6852 12410 c0 -14 2 -19 5 -12 2 6 2 18 0 25 -3 6 -5 1 -5 -13z"/>
<path d="M7420 12111 c0 -5 6 -11 13 -14 8 -3 14 1 14 9 0 8 -6 14 -14 14 -7
0 -13 -4 -13 -9z"/>
<path d="M7020 12058 c0 -23 39 -78 56 -78 7 0 13 12 13 28 0 15 2 36 3 47 3
17 -3 20 -34 21 -31 1 -38 -2 -38 -18z"/>
<path d="M6735 11550 c9 -15 -22 -60 -40 -60 -9 0 -15 -9 -15 -23 0 -13 -15
-37 -34 -56 -36 -34 -49 -34 -74 1 -7 10 -17 18 -23 18 -17 0 -9 -49 11 -63
17 -12 19 -21 13 -65 -5 -41 -10 -52 -24 -52 -13 0 -20 -10 -25 -37 -4 -21
-12 -41 -17 -45 -18 -11 14 -58 53 -77 31 -15 35 -20 35 -56 0 -30 4 -41 18
-43 11 -2 16 -9 13 -18 -8 -20 9 -61 18 -46 4 7 4 12 -1 12 -4 0 -2 4 6 9 14
9 14 9 -16 124 -3 10 1 17 10 17 8 0 20 7 27 15 8 9 22 12 40 8 23 -4 35 1 59
26 36 37 36 35 16 92 -9 24 -14 48 -11 55 2 6 -1 17 -7 23 -8 8 -8 11 2 11 9
0 4 15 -13 44 -28 47 -33 72 -15 78 7 2 7 12 -1 32 -8 22 -7 32 3 45 15 17 12
41 -4 41 -6 0 -7 -5 -4 -10z"/>
<path d="M7044 11347 c-4 -12 -17 -14 -50 -11 -35 3 -44 1 -44 -11 0 -15 -29
-74 -69 -140 -9 -16 -27 -31 -39 -33 -12 -2 -20 -8 -17 -13 3 -5 3 -25 -1 -44
-6 -32 -10 -36 -33 -33 -24 3 -26 0 -24 -31 2 -41 -21 -63 -54 -56 -19 4 -23
1 -23 -18 0 -13 -5 -28 -12 -35 -6 -6 -9 -15 -5 -19 4 -4 13 -1 19 5 7 7 22
12 35 12 14 0 23 6 23 16 0 12 6 15 25 10 19 -5 25 -2 25 9 0 14 3 14 23 1 12
-7 37 -16 55 -20 28 -5 32 -3 32 15 0 17 5 20 21 16 12 -3 22 0 26 9 3 8 17
13 35 11 25 -2 31 2 33 20 1 12 14 40 29 62 21 30 26 45 20 63 -10 30 -11 88
-1 88 4 0 7 -4 7 -10 0 -5 5 -10 11 -10 8 0 10 12 6 35 -6 35 1 43 19 25 7 -7
11 -7 11 2 0 8 3 25 6 39 6 22 2 27 -31 40 -20 7 -40 15 -44 17 -5 2 -11 -3
-14 -11z"/>
<path d="M6470 11193 c0 -5 5 -15 10 -23 8 -12 10 -11 10 8 0 12 -4 22 -10 22
-5 0 -10 -3 -10 -7z"/>
<path d="M6450 11139 c0 -6 7 -9 15 -5 8 3 15 1 15 -5 0 -6 5 -7 10 -4 6 4 8
11 5 16 -9 13 -45 11 -45 -2z"/>
<path d="M10797 11029 c7 -7 15 -10 18 -7 3 3 -2 9 -12 12 -14 6 -15 5 -6 -5z"/>
<path d="M7050 11000 c0 -6 7 -10 15 -10 8 0 15 2 15 4 0 2 -7 6 -15 10 -8 3
-15 1 -15 -4z"/>
<path d="M6632 10898 c-15 -15 -15 -55 -1 -97 13 -37 29 -41 29 -7 0 13 5 26
11 28 9 3 9 9 0 25 -6 12 -11 31 -11 42 0 24 -10 27 -28 9z"/>
<path d="M6471 10803 c7 -10 15 -20 16 -22 2 -2 3 5 3 17 0 14 -6 22 -16 22
-14 0 -15 -3 -3 -17z"/>
<path d="M6505 10776 c-18 -13 -18 -14 3 -20 12 -4 22 -11 22 -16 0 -20 55
-125 69 -135 9 -5 30 -15 46 -20 17 -6 29 -16 28 -23 -2 -6 9 -19 23 -29 22
-14 27 -14 35 -2 5 8 7 24 4 36 -3 12 0 23 6 25 6 2 8 14 4 30 -5 17 -12 25
-21 21 -8 -3 -14 -1 -14 5 0 6 -9 8 -20 5 -14 -4 -20 0 -20 11 0 9 -7 19 -15
22 -8 4 -15 14 -15 24 0 22 -65 65 -81 54 -7 -4 -17 0 -24 9 -10 14 -15 15
-30 3z"/>
<path d="M6660 10724 c0 -8 5 -12 10 -9 6 4 8 11 5 16 -9 14 -15 11 -15 -7z"/>
<path d="M6565 10590 c3 -5 8 -10 11 -10 2 0 4 5 4 10 0 6 -5 10 -11 10 -5 0
-7 -4 -4 -10z"/>
<path d="M10947 9894 c2 -7 11 -10 19 -7 19 7 18 10 -5 16 -13 3 -18 1 -14 -9z"/>
<path d="M10170 9359 c0 -5 5 -7 10 -4 6 3 10 8 10 11 0 2 -4 4 -10 4 -5 0
-10 -5 -10 -11z"/>
<path d="M10105 9007 c-8 -19 -2 -31 13 -26 5 2 6 13 2 24 -7 19 -8 19 -15 2z"/>
<path d="M10042 8971 c-5 -3 -12 -16 -16 -28 -6 -18 -15 -23 -41 -23 -24 0
-38 -6 -45 -20 -6 -11 -15 -18 -21 -15 -5 4 -9 -3 -9 -13 0 -12 -11 -24 -30
-32 -16 -7 -32 -21 -35 -31 -8 -24 -35 -25 -35 -1 -1 15 -2 15 -15 -2 -17 -22
-20 -61 -5 -51 14 9 12 -29 -2 -43 -10 -10 -10 -15 1 -21 11 -7 6 -13 -19 -26
-36 -19 -80 -13 -80 10 0 8 -4 15 -10 15 -5 0 -10 5 -10 11 0 5 4 8 9 4 13 -7
18 2 26 47 6 33 4 41 -24 68 -34 34 -51 32 -51 -6 0 -19 -5 -24 -25 -24 -14 0
-25 -5 -25 -11 0 -8 -5 -7 -16 2 -13 11 -14 9 -9 -14 5 -19 3 -27 -6 -27 -8 0
-5 -5 6 -11 11 -6 32 -25 48 -42 20 -23 27 -27 27 -14 0 18 17 22 39 8 8 -5
11 -16 7 -26 -3 -10 -1 -24 6 -33 9 -10 9 -16 3 -19 -6 -2 -9 -18 -7 -37 2
-18 -1 -37 -7 -40 -6 -4 -11 -16 -11 -27 0 -13 -9 -21 -29 -25 -19 -4 -33 -16
-42 -37 -13 -30 -17 -32 -66 -31 l-53 1 0 -47 c0 -25 -4 -50 -10 -56 -6 -6 2
-15 20 -26 29 -16 30 -16 30 2 0 10 -8 24 -17 29 -25 14 0 14 32 -1 14 -6 25
-19 25 -28 0 -12 11 -20 31 -24 17 -3 44 -20 60 -37 l29 -31 38 17 c20 9 54
24 74 33 22 10 36 22 33 30 -2 6 0 12 5 12 5 0 12 17 16 38 8 43 28 61 68 62
21 0 26 3 19 13 -21 29 -14 65 20 102 29 31 36 34 46 21 9 -10 22 -13 41 -9
22 4 32 0 42 -16 19 -32 45 -26 59 13 7 19 23 39 37 45 19 9 22 15 13 25 -6 7
-9 20 -7 27 17 54 15 68 -10 99 -19 23 -24 34 -16 42 8 8 8 17 1 30 -6 11 -8
25 -6 33 3 7 -1 22 -9 34 -8 12 -12 26 -9 32 4 6 0 30 -9 54 -16 42 -49 62
-74 46z"/>
<path d="M9774 8915 c-16 -40 37 -58 55 -19 5 12 7 25 4 28 -12 12 -54 6 -59
-9z"/>
<path d="M9511 8704 c0 -11 3 -14 6 -6 3 7 2 16 -1 19 -3 4 -6 -2 -5 -13z"/>
<path d="M11411 8584 c0 -11 3 -14 6 -6 3 7 2 16 -1 19 -3 4 -6 -2 -5 -13z"/>
<path d="M10050 8446 c0 -9 7 -16 16 -16 9 0 14 5 12 12 -6 18 -28 21 -28 4z"/>
<path d="M12817 8442 c-17 -18 -17 -20 -1 -26 22 -8 26 -3 22 24 -3 22 -3 22
-21 2z"/>
<path d="M12796 8394 c-3 -9 -6 -16 -6 -17 0 -1 11 -2 24 -2 23 0 23 1 9 18
-20 21 -19 21 -27 1z"/>
<path d="M12863 7875 c-20 -14 -39 -15 -60 -2 -7 5 -17 -1 -24 -15 -7 -13 -16
-26 -21 -29 -12 -8 -13 -36 -4 -75 7 -31 6 -32 -26 -30 -28 2 -36 9 -55 46
-13 25 -23 38 -23 30 -1 -10 -7 -8 -20 8 -17 20 -25 22 -65 17 l-45 -7 6 -42
c8 -56 8 -88 -1 -108 -4 -11 -3 -18 4 -18 14 0 14 -69 0 -130 -5 -25 -10 -51
-11 -57 -1 -7 -7 -13 -15 -13 -7 0 -13 -4 -13 -8 0 -16 13 -21 30 -12 13 7 21
5 30 -5 7 -8 8 -15 3 -15 -6 0 -8 -11 -5 -25 2 -14 11 -25 19 -25 9 0 12 6 9
18 -4 12 1 26 14 37 16 14 19 26 14 50 -5 27 -2 33 15 38 17 4 19 10 14 43 -5
32 -4 36 10 31 10 -4 17 -3 17 2 0 5 -9 11 -20 14 -11 3 -18 1 -14 -4 12 -19
-8 -8 -31 19 -32 36 -31 43 8 40 60 -4 78 29 30 57 l-28 16 30 -6 c17 -4 39
-8 51 -9 39 -5 64 -36 28 -36 -9 0 -30 -8 -47 -17 -18 -10 -34 -19 -36 -20 -2
-1 -1 -9 3 -18 4 -11 11 -13 23 -7 40 20 81 29 96 21 13 -8 15 -4 14 23 -2 25
3 35 23 45 14 7 19 13 13 13 -7 0 -13 5 -13 11 0 6 9 8 20 4 18 -6 19 -4 10
20 -13 34 -13 33 12 37 14 2 29 15 37 33 8 17 20 35 27 40 10 8 10 12 0 22
-11 9 -18 8 -33 -2z"/>
<path d="M11050 7840 c-13 -8 -12 -10 3 -10 9 0 17 5 17 10 0 12 -1 12 -20 0z"/>
<path d="M10996 7825 c4 -8 12 -15 20 -15 19 0 18 16 -2 24 -22 9 -24 8 -18
-9z"/>
<path d="M12670 7812 c0 -12 19 -26 26 -19 2 2 -2 10 -11 17 -9 8 -15 8 -15 2z"/>
<path d="M11810 7775 c7 -9 15 -13 17 -11 7 7 -7 26 -19 26 -6 0 -6 -6 2 -15z"/>
<path d="M12815 7678 c-29 -16 -29 -16 -11 -33 9 -9 16 -27 16 -41 0 -39 18
-28 25 15 9 52 -3 74 -30 59z"/>
<path d="M10820 7610 c0 -6 -4 -9 -9 -5 -5 3 -16 -1 -24 -9 -8 -8 -18 -12 -22
-8 -5 4 -5 -4 -2 -18 4 -14 7 -30 7 -37 0 -6 11 -25 25 -41 20 -24 22 -31 10
-36 -22 -8 -19 -22 15 -56 30 -31 47 -40 33 -17 -23 36 1 53 54 38 32 -9 60
-4 123 22 14 6 32 9 40 8 11 -2 12 0 4 8 -15 16 -52 22 -60 9 -4 -5 -21 -7
-39 -4 -31 6 -33 5 -29 -16 4 -21 4 -21 -7 2 -6 14 -15 32 -20 40 -20 33 -22
44 -12 71 6 16 8 31 3 34 -5 3 -10 0 -12 -6 -3 -8 -9 -7 -19 3 -20 21 -59 32
-59 18z"/>
</g>
</svg>
