<svg version="1" xmlns="http://www.w3.org/2000/svg" width="1188.39" height="1310.05" viewBox="0 0 891.292 982.538"><g fill="#222"><path d="M299.569 1.398c0 1.1-1.5 1.6-5.2 1.8-4.7.3-5.5.7-7.3 3.5-1.1 1.8-2.7 3.3-3.5 3.3-1.2 0-1.1.4.4 1.5 1 .7 1.5 1.8 1.1 2.4-.9 1.6-2.3 1.3-4.5-.9l-2-2v2.4c0 1.9.8 2.6 4.6 3.6 2.8.8 4.3 1.7 4 2.5-.5 1.3 1.2 3.5 2.7 3.5.5 0 .7-.8.5-1.8-.3-1.2.2-2.4 1.4-3.1 1.8-1.1 1.9-1.4.4-3-2.1-2.3-2-3 .4-2.4 2.2.6 2.6-.7.8-2.5-.9-.9-.8-1.2.5-1.2.9 0 2.1-.9 2.7-2 .6-1.1 2.1-2 3.4-2 1.9 0 2.2-.4 1.8-2.5-.5-2.7-2.2-3.5-2.2-1.1zM287.569 26.598c0 1.2-.7 1.4-3 .9-1.9-.4-3-.3-3 .4 0 .6-1.1 1.3-2.5 1.7l-2.5.6 2.4 1.9c1.3 1 2.7 3.1 3.1 4.6.3 1.5 1.1 3.1 1.7 3.4 1.4.9 0 6.7-1.8 7.1-1.2.3-1.2.7.1 3.1 1.8 3.5 1.3 8.1-1 10.7-1.4 1.5-2.1 1.7-3.2.9-1.9-1.6-1.7 1 .3 3.9 1.3 1.9 1.4 2.8.4 5.2-1.3 3-.4 6.3 1 4 1-1.6 11.6-.4 12.7 1.3.4.7.8 2.5.8 4.2 0 2 .6 3.1 1.7 3.3 1.3.2 1.6-.1 1.2-1.2-.5-1.3-.2-1.5 1.2-.9 1.1.4 2.4 1.3 3 2.1.6.8 1.6 1.2 2.2.8.6-.3 1.3-.2 1.6.3.3.5-.1 1.2-1 1.5-.8.3-1.3 1-.9 1.5.3.5.1 1.2-.4 1.5-.5.4-.8 1.4-.7 2.4.4 2.3-1.4 3.3-3.6 2.1-1.5-.8-1.8-.6-1.8 1.6 0 3.7-1.7 6.5-3.9 6.5-1 0-2.1.8-2.5 1.7-.3 1-.9 2.5-1.2 3.3-.5 1.3-.4 1.3.5 0 1-1.3 1.2-1.3 2.1 0 1.4 2.1 1.2 3-.6 3-1.9 0-1.1 3.2 1.7 6.4 1 1.1 2.4 2.9 3.1 3.8 1.9 2.6 6.1 1.3 5.4-1.7-.4-1.5-.1-2.2.9-2.2.8 0 1.5.4 1.5.9 0 1.7 5.5.3 5.8-1.5.2-.9-.3-1.7-1-1.7-.8 0-1.4-.9-1.5-2-.1-1.1.2-2 .7-2 1.2 0 .1-3-1.8-5.3-.8-.9-1.2-1.7-.7-1.7.4 0 .2-.7-.6-1.6-.8-1-.9-1.8-.3-2.2 2-1.3 5.4-9.9 4.8-11.7-.5-1.3-.4-1.6.5-1.1 1.8 1.1 6-.2 5.7-1.7-.1-.8-1-2.6-2-4.2-1-1.5-1.3-2.4-.7-2.1.6.4 1.1.1 1.1-.7 0-.8.7-1.7 1.5-2.1 1.2-.4 1.4-1.5.9-4.4-.4-2.5-.2-4.2.5-4.6 1.6-1 1.3-8.1-.4-9.6-.8-.7-1.3-1.6-1-2 .6-1-2-3.2-2.8-2.3-.4.3-.7-.1-.7-.9 0-.9-2.8-4.2-6.2-7.3-4.5-4-5.6-5.5-4-5.2 1.9.5 2.2.2 2-2.5-.3-3.2-.8-3.8-5.3-5.3-1.6-.6-2.9-1.3-2.7-1.8.3-1.1-3.6-4.7-5.3-4.7-.8 0-1.5.7-1.5 1.6zM133.569 56.698c0 1.3-.8 1.5-5 1-3.9-.5-5.2-.3-5.7.8-.3.9-1.8 1.5-3.8 1.5-1.9 0-3.9.8-5 2s-2.5 1.8-3.6 1.5c-.9-.3-2-.1-2.4.5-.5.8-1.2.6-2.5-.5-1.5-1.4-1.8-1.4-3 0-.8.9-3 1.5-5.9 1.5-2.5 0-5.5.7-6.5 1.5-1.1.8-3.1 1.5-4.4 1.5-2.5 0-11.2 5.5-11.2 7 0 .6-1.1 1-2.5 1s-2.9.8-3.5 1.9c-1.7 3.3-4 5.1-6.6 5.1-1.3 0-2.4.6-2.4 1.2 0 .7-1.2 2.1-2.5 3.1-2.2 1.6-2.6 1.6-3.1.3-.8-2-4.8-.5-8.9 3.3-3.5 3.3-6.5 4.6-6.6 2.8 0-.7-.4-.2-.9 1-.6 1.5-1.8 2.3-3.2 2.3-1.3 0-2.9.9-3.5 1.9-.8 1.3-1.9 1.8-3.2 1.4-1.2-.3-3.3.4-5.1 1.7-3 2.1-3.3 2.2-7.3.6-2.4-.9-4.6-1.6-5.1-1.6-1 0 5.1 7.9 7.7 10.1 1.1.9 1.7 2.1 1.3 2.8-.4.7-.2 1.8.4 2.6.7.8 1 2.6.8 4-.3 1.5 0 2.9.8 3.3.9.5 1.6 3.5 2 8.2l.6 7.5-3.1 1.7c-1.7.9-3.1 2.4-3.1 3.3 0 .8-.4 1.5-1 1.5-.5 0-.7.7-.4 1.5.4.8 1 1.2 1.5.9.5-.3 1.9.2 3.1 1 1.6 1.1 2.3 2.7 2.4 5.7.2 3.6-.1 4.2-2.7 5.3-2.2.9-2.6 1.5-1.7 2.4.9.9.7 1.6-.7 3.2-1 1.1-1.5 2-1.1 2 .4 0 0 .7-.8 1.6-1.7 1.6-2.2 4.9-.7 3.9.5-.3 1.2-.1 1.6.5.4.6 1.1.8 1.6.4.5-.3 1.6-.1 2.3.5 1.3 1.1 7.6-.6 7.6-2.1 0-1.2-4.1-3-5.5-2.4-.8.3-1.7.1-2-.4-.4-.6.3-1 1.4-1 1.1 0 2.3-.5 2.6-1 .4-.6 1.1-.8 1.6-.5.5.3.6-.1.3-.9-.4-1.1.3-1.7 2.3-2.2 1.5-.3 3.6-.8 4.6-1.1 1-.2 2.4 0 3.1.7 1.1.8 1.8.7 3-.5.9-.9 1.6-2.2 1.6-2.9 0-.6.9-1.8 2-2.6s2.7-3.6 3.6-6.3c.9-2.6 2.1-4.6 2.7-4.4.5.1 2.1-.7 3.5-2 2.3-2.2 2.6-2.2 3.8-.5 1.3 1.6 1.3 1.6 1.4-.2 0-1.3.5-1.7 2-1.3 1.7.4 2.1-.1 2.6-3.4.4-2.4 1.5-4.4 2.9-5.3 1.3-.9 2.5-2.6 2.7-3.8.2-1.5 1-2.3 2.3-2.3 3.4 0 8.6-2.7 8.1-4.1-.7-1.8.3-1.8 2.5.2 2.3 2.1 7.5 2.1 9.8 0 2.2-2 7.7-1.7 11.4.6 1.2.7 3.6 2 5.2 2.7 2.4 1 2.8 1 1.8 0-.7-.7-1.3-1.7-1.3-2.1 0-.4.6-.8 1.3-.8 2.3-.1 8.7-5.6 7.6-6.7-1.5-1.5 1.8-6.5 5.5-8.3 2.2-1.1 3-2.1 2.9-3.7-.3-2.5 4.4-4.8 8.9-4.4 1.4.1 2.9-.3 3.3-.8 1.6-2.6 3.4.6 4 7.1.1 1 .4 2.1.8 2.4.4.4.7 1.8.7 3.1 0 2.4.4 2.7 5.3 3.7 3.7.9 6.4 3.7 7.6 8.3.6 2.2 2.7 5.5 5 7.7 4.6 4.5 7 9.6 4.5 9.6-2.6 0 .3 3.9 4.4 5.8 3.8 1.8 5.6 5.2 2.8 5.2-.9 0-1.6.4-1.6.8 0 1.4 2.5 4.4 3.5 4.1 1.2-.3 3.9.6 8.5 2.9 3.1 1.6 3.5 2.3 4.9 8.7.8 3.8 1.5 7.1 1.6 7.2.1.2 1.5-.1 3.2-.6 2.1-.6 3.5-.5 4.2.2.8.8 1.4.8 2.2 0 .6-.6 1.8-.9 2.6-.6 1.2.5 1.4.1.8-1.5-.4-1.3-.2-2.2.4-2.2.6 0 1.1.4 1.1 1 0 .5 1.8 1.9 4 3 3.8 1.9 4.1 1.9 6.5.4l2.6-1.7-2.3-1.1c-1.2-.6-2.6-2.6-3-4.4-.6-2.4-1.4-3.2-3.1-3.2-3 0-10.8-7.2-13.2-12.2-1.9-3.9-7.1-8.1-8.8-7.1-1.4.8-6.7-2.2-6.7-3.8 0-1 1.8-2.3 4.8-3.4 6-2.3 8.2-4.2 8.2-7.3 0-2.9 3.2-12.5 4.3-13 1.3-.6-.3-2.2-2.2-2.2-1 0-3.2-.7-4.7-1.5-1.6-.8-3.9-1.5-5.1-1.5-2.9 0-2.9-.8-.1-3.7 2.3-2.5 2.1-3.7-.5-2.7-.9.3-1.9 1.9-2.2 3.6-.4 1.8-1.5 3.2-2.7 3.6-1.1.3-1.7 1-1.4 1.8.7 1.8-4.9 2-6 .2-.5-.8-.2-.9 1-.5 1.4.5 1.5.3.6-1.3-.8-1.5-.6-2.4 1-4 1.1-1.1 1.6-2 1.1-2s-1.1-1.8-1.5-4c-.3-2.2-1.1-4-1.7-4-.7 0-.9 1.1-.5 2.7.3 1.6.3 2.2 0 1.5-.8-1.7-3.2-1.5-5.1.3-1.8 1.8-3.3 1.1-3.3-1.6 0-1.1-.7-2.2-1.5-2.5-.8-.4-1.5-1-1.5-1.5s.7-.9 1.5-.9 1.5-.5 1.5-1c0-.6-.7-1-1.5-1s-1.5-.7-1.5-1.5c0-2.1 1.4-1.9 4.7.9 2 1.7 3.6 2.3 5.6 1.9 1.6-.3 2.7-.1 2.7.6 0 .5.7.8 1.5.5.8-.4 1.2-1 .9-1.5-.3-.5-.9-.7-1.3-.5-.4.3-1.3 0-2.1-.5-1.3-.8-1.1-1.2.8-2.8 1.2-1.1 2.2-2.2 2.2-2.6 0-.4-.7-.2-1.5.5-1.6 1.4-2 .3-.6-1.9.7-1.1 1.7-.8 5.1 1.6 3.5 2.4 4.3 3.6 4.6 6.6.2 2-.1 3.9-.6 4.2-1.3.8-.1 3.5 1.6 3.5.7 0 1.1-.6.8-1.4-.3-.7.2-1.6 1-1.9.9-.4 1.3-1.3 1-2-.4-1.1.1-1.3 2-1 4 .8 4.4-2.1.7-5.3-1.7-1.4-3.1-3.4-3.1-4.5 0-1-.4-1.9-1-1.9-.5 0-1.7-1.2-2.5-2.8-.9-1.5-1.4-1.9-1.1-1 .4 1.5.2 1.5-2.7-.2-3.5-2.2-7.2-2.7-6.1-.9.4.8-.1.9-1.7.4-3.3-1-3.6-1.4-1.9-2.6 1.3-.9 1.2-1-.2-.6-.9.3-2.2-.1-2.8-.9-.7-.8-2.1-1.4-3.2-1.4s-3-.8-4.2-1.8c-2-1.5-2.1-1.9-.8-3.1 1.2-1.2 1.2-1.5-.2-2.3-1-.5-2.4-.7-3.1-.4-1.7.6-3.2-1.3-1.7-2.3 2.1-1.3 1.9-7.6-.2-6.8-.9.4-1.8-.2-2.2-1.5-.4-1.5-.8-1.7-1.4-.8-.4.7-1.3.9-1.9.6-.6-.4-1.1-.3-1.1.2 0 2-4.3-.2-6-3-1-1.7-2.1-2.5-2.4-1.9-.5.7-1.5.7-3.1.1-2-.8-2.5-.6-2.5.7zm22.2 30.2c2.3 3.4 2.3 3.8-.8 4.5-2 .5-3.3.1-4.9-1.4-1.5-1.4-2.5-1.8-3-1.1-.8 1.4-2.5.4-2.5-1.5 0-.8.5-1.2 1-.9.6.4 1-1.4 1-4.7v-5.2l3.8 3.8c2 2.1 4.5 5 5.4 6.5zm17.8 1.9c-.7.3-1.6-.2-2.1-.9-1.6-2.5-.9-3.2 1.2-1.3 1.3 1.2 1.6 2 .9 2.2zm-13 4.3c0 .5-.4.9-1 .9-.5 0-1-.7-1-1.6 0-.8.5-1.2 1-.9.6.3 1 1 1 1.6zm27.4 2.4c.3.8.1 1.5-.4 1.5-.6 0-1-.7-1-1.5s.2-1.5.4-1.5.6.7 1 1.5zm-165.4 69.1c0 .8-.4 1.2-1 .9-.5-.3-1-1-1-1.6 0-.5.5-.9 1-.9.6 0 1 .7 1 1.6zM242.569 74.198c0 .7-1.6 2.8-3.5 4.7-2.9 2.8-3.7 3.2-5 2.1-1.3-1-1.5-.9-1.5.9 0 2.1-.7 2.5-4.7 2.1-1.5-.1-2.3.4-2.3 1.4 0 .9-.7 1.6-1.5 1.6s-1.9.8-2.4 1.8-2.8 2.7-5 3.8c-2.5 1.1-3.9 2.4-3.6 3.2.3.7-.2 1.5-1.1 1.9-1.2.4-.9 1 1.3 2.4 3.2 2.2 6.5 2.7 4.5.7-1.7-1.7-1.5-2.8.4-2.8 1.3 0 1.5.7 1 3.5-.5 2.7-.4 3.5.7 3.5 1.3 0 3.3-4.3 2.9-6.3-.1-.4.9-.7 2.3-.7s2.5-.3 2.5-.8c0-1 9.1-1.2 11.1-.2 1.2.7 2.5.1 5.2-2.5 2-1.9 3.2-3.5 2.7-3.5-.6 0-1-1.1-1-2.4 0-1.3-.7-2.7-1.6-3-.8-.3-1.2-.2-.9.4.3.6-.2 1-1.1 1-1 0-1.4-.3-1.1-.7.4-.3 0-1.4-.9-2.4-1.5-1.6-1.4-1.7.3-1.3 1.3.4 1.9 0 2-1.3 0-1 .5-3.3 1.1-5.1.6-1.9.7-3.2.1-3.2-.5 0-.9.6-.9 1.2zM199.369 97.198c-1.6.5-2.8 1.6-2.8 2.4 0 .9-.5 1.2-1 .9-.6-.4-.6.4.1 1.8.8 1.7 2.2 2.7 4.3 3 4.2.6 6-.1 4.5-1.9-.8-1-.5-1.5 1.7-2l2.8-.7-3-2.3c-3.2-2.7-2.9-2.6-6.6-1.2z"/><path d="M190.969 107.398c.4 1.6.1 2.6-1 3-2.1.8-.9 2.5 1.4 1.9 1.4-.3 1.7-1.2 1.4-3.9-.2-1.9-.9-3.4-1.4-3.4-.6 0-.7 1.1-.4 2.4zM198.869 113.198c-.2 2.7 0 2.9.7 1.3 1.1-2.6 1.2-4.5.2-4.5-.4 0-.8 1.5-.9 3.2zM203.069 117.998c.3.5.8 1 1.1 1 .2 0 .4-.5.4-1 0-.6-.5-1-1.1-1-.5 0-.7.4-.4 1zM264.669 119.598c-1.1 2.4-1.5 2.6-5.9 2-2.6-.3-5.5-.7-6.4-.8-1-.1-1.8-.6-1.8-1 0-.5-.8-.4-1.7.1-1 .5-2.6 1.2-3.5 1.5-1 .3-1.5 1.2-1.2 2.3.4 1.2-.5 2.4-2.6 3.6-2.9 1.8-3.3 3.7-.6 3.7.6 0 1.7.5 2.4 1.2.9.9.8 1.4-.4 2.2-1.2.9-1.3 1.7-.5 3.9.9 2.2.8 2.9-.4 3.3-.8.4-1.5 1.6-1.5 2.9 0 1.2-.6 2.8-1.4 3.5-.8.6-1.3 1.9-1 2.8.3 1.1-.1.9-1.2-.6-1.6-2.1-4.1-3.2-2.9-1.2.4.6-.8 1-2.9 1-6.8 0-14.3-9.9-10.4-13.8.9-.9.6-1.3-1.2-2-1.5-.6-1.9-1.1-1.2-1.6.7-.4 2.8.5 4.7 2l3.5 2.6v-2.4c0-1.4-.9-3.3-2-4.3-1.2-1.1-1.8-2.5-1.5-3.6.5-1.4.1-1.6-1.7-1.2-1.3.3-2.9 1-3.5 1.6-.7.5-1.3.6-1.3.2 0-.4-.7-.2-1.5.5-1.4 1.1-1.4 1.5 0 3.6 1.7 2.7.8 3.1-2 1-1.7-1.2-2.1-1.2-3 .1-.9 1.3-1.6 1.3-3.3.4-1.4-.8-2.2-.8-2.2-.1 0 .5-.7 1-1.5 1-1.2 0-1.3.4-.5 1.9.5 1.1.7 3.3.4 5-.5 2.4-1.2 3.1-3.1 3.1-1.4 0-2.1.4-1.8 1 .3.5.1 1-.4 1-.6 0-1.1.7-1.1 1.6 0 .8.5 1.2 1 .9.6-.3 1 .2 1 1.3 0 1.7.7 1.9 6.5 1.8 3.6 0 6.5-.6 6.5-1.1 0-.6.9.1 2 1.5 2.2 2.8 2.6 6.1.8 5.8-.7-.2-1.4.8-1.6 2.2-.2 1.5 0 2 .5 1.4 1.4-2.1 8.7-.9 8.8 1.4.2 2.2 1.8 5.1 3 5.6 1.1.4 1.5-.2 1.5-2.5 0-1.7-.4-2.8-.9-2.4-2.1 1.2-2.1-1.7-.1-4.2 1.4-1.7 1.9-3.5 1.6-4.9-.4-1.3-.3-2.5.1-2.7.9-.5 2.8 1.2 3.1 2.7.2 1.2 9.3 5.7 10.3 5 .5-.3.9.2.9 1.1 0 .8-1.1 2-2.5 2.5-3.3 1.2-3.2 2.6.3 4.4 2.2 1.2 2.9 2.2 3 4.7 0 1.8.8 3.9 1.6 4.7 1.4 1.4 1.3 1.7-.1 2.8-1.6 1.1-1.6 1.4-.1 3.6 1.1 1.7 1.3 2.9.6 4.2-.6 1-.6 3.4-.2 5.9.5 2.3.8 4.8.7 5.4 0 .7.3 1.3.9 1.3.5 0 .7.4.3 1-.3.5-1.2.7-2 .3-1-.3-1.5.1-1.5 1.2 0 1.5-.3 1.5-1.5.5-.9-.7-1.8-1-2.2-.6-.3.3-.1.6.6.6s1.1.8.9 1.7c-.2 1.2-1.5 1.7-4.4 1.9-3.9.2-4.2 0-5.2-3.2-.5-1.9-.7-3.4-.2-3.4 1.2 0 .6-5.2-1.2-9-1.6-3.5-1.8-7.6-.4-9.8.4-.7.1-1.2-.8-1.2-.8 0-1.7-.6-1.9-1.3-.3-.7-.6-.5-.6.5-.1 1-.6 1.8-1.2 1.8-.5 0-.7.4-.4 1 .9 1.5-.2 1.2-3-.6-1.4-.9-2.5-1.3-2.5-1 0 .4-.8.2-1.9-.3-1-.6-2.1-.7-2.5-.4-.4.4-1.6.8-2.8 1-2.9.4-3.1.7-3 4 0 1.5-.6 3.5-1.3 4.3-.7.8-1.6 2.5-1.9 3.7-.4 1.3-1.4 2.3-2.2 2.3-2.8 0-1.4 2.6 2.8 5.3 3.5 2.2 4.1 2.2 3.3-.4-.7-2-.5-2.1 2.1-1.5 3.8 1 6.9 3.7 5.3 4.7-.8.5-.4 1.5 1.5 3.3 1.4 1.5 2.6 3.4 2.6 4.3 0 1.4-.2 1.4-2.4 0-3-2-3.6-1.4-3.6 3.8 0 4.1-3.2 12-4.4 10.8-.3-.4-.6.3-.6 1.3 0 2.4 1.8 4.4 3.5 3.8.7-.3 1.7 1.2 2.4 3.7 1.1 3.5 1 4.3-.4 5.9-1.3 1.5-1.4 1.9-.1 2.9.8.7 1.5 2 1.5 2.9 0 .9.2 3 .6 4.7.3 1.6.6 3.7.7 4.5 0 .8.5 2 1 2.6 1.2 1.6 0 4.1-2.4 4.7-1.5.4-1.8 1.1-1.3 2.6.7 2.3-.5 2.7-3.6 1.1-1.3-.8-1.9-.7-1.9 0 0 1.3-7.3.2-7.8-1.1s-3.6-1.1-4.9.2c-.9.9-2 .3-4.3-2.2-3.4-3.7-4.4-3.3-5.7 2.4-.5 2.3-1 2.8-2.9 2.4-1.4-.2-3.3.5-5.1 1.9-1.5 1.3-3.3 2.3-4 2.4-.7 0-1.6.6-2 1.4-1.2 2.1-4.4 2.2-8 .3-1.8-.9-3.4-1.7-3.6-1.7-.2 0-.9 1.8-1.6 4-.9 2.9-1.7 4-3.2 4-1.1 0-2.3 1-2.8 2.2-.5 1.3-1.8 3.2-3 4.2-1.1 1.1-2.1 2.7-2.1 3.7s-.8 2.5-1.7 3.5c-1 .9-1.8 2.4-1.9 3.2-.2.9-1 1.9-1.8 2.4-1 .6-1.4 1.9-1.2 3.7.2 2.3-.2 3.2-2.1 4-1.3.6-3.4 1.1-4.7 1.1-2.4 0-3.6 1.7-3.6 5.1 0 3.2-3 6.9-5.5 6.9-1.9 0-2.2.4-1.7 2.2.3 1.3 1.1 2.6 1.8 3 .7.5 1 1.8.7 3-.5 2.1-.4 2.2 1.2.7 1.5-1.5 2-1.5 4.6-.2 1.6.8 2.9 1.9 2.9 2.5 0 .6 1.2.8 2.9.5 1.5-.3 3.2-.2 3.7.3 1.7 1.7 8.6-1.2 10.5-4.5 1.1-1.6 2-3.5 2.2-4 .2-.6.9-.6 1.8.2.8.6 3.4 1 5.9.8 2.5-.2 5.1.2 5.9.8 1.2 1 1.3.7.7-1.6-.5-2-.3-2.7.9-2.7.9 0 1.5-.9 1.5-2.4 0-2.2.3-2.4 3-1.6 1.6.5 3.8.6 4.8.3 1.2-.3 2.2.2 2.5 1.1.8 2 3.4 2.1 3.4.1 0-.8-.4-1.5-.9-1.5-.4 0-.8-.5-.8-1.2 0-.6 1-.3 2.1.8 2.2 1.9 2.2 1.9 1.6-.7-.5-2-.2-2.9.9-3.3 2.2-.8 2.6-.8 1.9.4-.3.5 0 1 .7 1 1.9 0 9 3.7 10 5.2 1.2 1.9 1 2.8-.7 2.8-.8 0-1.5.7-1.5 1.5 0 .9.6 1.2 1.5.9 1-.4 1.8.3 2.5 2 1.2 3.2 2.4 3.4 1.6.2-.6-2.3-.5-2.3 3.7-1.2 2.3.6 4.5 1.6 5 2.3.4.7 1.4 1 2.2.7.8-.3 2.5.5 3.9 1.9 2.2 2.3 6.2 4 9.4 4.2 1.4 0 4.2 3.2 4.2 4.6 0 .4-.6.9-1.3 1.1-2.7.6 0 6.7 3.8 8.5 1.9.9 3.5 2.4 3.5 3.3 0 2.2 3.6 5.5 4.5 4.1.3-.6 1.4-1.1 2.4-1.1 2.4 0 5.1-3.1 5.1-5.9 0-1.4.7-2.5 2-2.8 2.4-.6 2.6-2.6.5-4.3-2.3-1.9-1.8-3.2 1.3-2.8 1.5.2 2.6.8 2.5 1.5-.2.9.4 1 2.4.2 2.2-.8 3-.7 4 .7 1 1.3.9 2.1-.2 3.7-1.1 1.5-1.1 2.5-.3 4 .9 1.7.6 2.4-1.5 4.3-1.8 1.5-2.2 2.5-1.5 3.2.6.6 1.3 2.4 1.4 4 .3 2.4-.2 3.2-3.5 5-2.1 1.2-4.6 2.2-5.5 2.2-1 0-1.5.4-1.2.9.8 1.2-1.8 2.1-4.2 1.4-1.8-.4-2.1 0-2 2.7.1 2.2-.6 3.8-2 4.9-1.9 1.4-1.9 1.8-.7 3.5.8 1 1.2 2.3.9 2.8-1.1 1.7.7 4.4 3.9 6.1 3.3 1.8 3.5 1.8 7.3-.2 5.2-2.8 7.4-2.7 7.4.2 0 1.3.8 3.2 1.9 4.1 2.1 1.9 11.7 3.1 12.6 1.5.4-.5 1.5-.7 2.6-.4 1.1.4 1.9.2 1.9-.5 0-.8.8-.7 2.5.4 1.3.9 3.3 1.6 4.3 1.6s2.3.5 3 1.2c.9.9 1.2.9 1.2-.1 0-.7.6-1.1 1.2-.9.7.3 3-.8 5.2-2.4 2.1-1.5 4.7-2.8 5.8-2.8 1.1 0 1.8-.7 1.8-2 0-1.1.7-2 1.5-2 1.4 0 2.1-3 1.6-6.8-.1-.6.5-1.2 1.4-1.2.8 0 1.5-.9 1.5-2 0-1.9.5-2 6.4-1.7 3.6.2 6.3 0 6-.5-.5-.8 4.4-.2 8.8 1.2 1.5.5 3.6.6 4.6.3 1.4-.3 2.4.2 3.2 1.8 2.1 3.8 4.8 6.2 6.4 5.6.8-.3 2 0 2.6.8.6.8 2.9 1.2 5.8 1.1 3.8-.1 4.7-.5 5-2.1.2-1.1 1.7-3.2 3.3-4.7 1.6-1.5 2.9-3.5 2.9-4.5-.1-3.3 5.5-12.9 9.2-15.9 2.7-2.2 3.5-3.4 3.1-5.1-.3-1.5.1-2.3 1.5-2.7 1.1-.4 2.6-1.4 3.3-2.2 1.1-1.3 1-1.8-.4-2.5-.9-.6-1.7-1.7-1.7-2.5 0-1.9 4.1-7.5 5-6.9.4.3 1-.4 1.3-1.5.3-1.3 1.4-2 3.1-2 1.6 0 3.1-.9 4.2-2.5 1.8-2.8 1-4.9-1.6-4.2-1.1.3-2.1-.2-2.4-1-.9-2.1-.8-2.3 1-1.6 1.4.5 1.5.3.6-1.4-1.2-2.2 0-4.9 1.7-3.9.6.4 1.1 1.4 1.1 2.2 0 1.3 3.1 2.1 5.5 1.3.6-.1 2.2-.3 3.8-.4 1.5-.2 3.4-.3 4.2-.4 2.1-.2-8-9.9-12.2-11.6-2.7-1.1-3.3-1.9-3.3-4.4 0-2.9.1-3 3.3-1.9 4.3 1.5 5.9 2.8 5.2 4.6-.8 2.1 2.2 6.2 4.4 6.2s5.4 4.4 4.9 6.8c-.2.9.4 2.4 1.4 3.2.9.8 1.9 2.9 2 4.7.3 2.9 7.8 15.8 10.3 17.5.5.4 1.9.8 3 .8s2.9 1.2 3.9 2.7l1.9 2.6-2.7-.7c-1.8-.4-3.4-.2-4.4.6-1.3 1.1-1.4 1.1-.7-.1.5-1 .4-1.2-.3-.7-.7.4-1.2 1.3-1.2 2.1 0 .7-1.3 2.7-3 4.3-1.6 1.7-3 3.8-3 4.7 0 1.3-.6 1.6-2.5 1.3-1.3-.3-2.4-.2-2.3.1.2 2.1-.4 3.1-2.1 3.1-3.1 0-3.4 1.8-.6 3.6 3.6 2.4 4.8 4.9 3.5 7.4-.6 1.1-1.7 2-2.5 2-2.2 0-1.8 1.8 1 4.4 1.4 1.3 2.5 3.4 2.5 4.8 0 2.5 5.4 7.7 8.5 8.2 3.1.5 4.4 2.7 4.1 7.7-.1 2.7.1 4.9.5 4.9 1.8 0 .5 7.3-1.7 9.9-1.3 1.6-2.4 3.4-2.4 4 0 .6-.7 1.1-1.5 1.1-3.3 0-1.2 2 2.8 2.7 4.6.7 5.3.5 4.9-1.5-.2-.6.2-1.2.8-1.2.6 0 .8-.5.4-1.1-.4-.7-.3-1 .2-.7 7.8 3.5 10.6 6.2 10 9.1-.4 1.7.1 1.8 3.5 1.5 3.5-.3 4-.1 3.5 1.4-.2 1.1.3 2.2 1.4 2.8 1.2.7 1.6 1.7 1.3 3.1-.4 1.4 0 2.7 1.2 3.5.9.7 1.5 1.9 1.2 2.7-.3.7.4 2.4 1.4 3.8 2.2 2.8 2.4 4.2.7 3.7-2-.7-5.8 4.3-6.5 8.4-.3 1.9 3.3 5.8 5.5 5.8.9 0 1.1.7.7 1.9-.4 1.4.2 2.4 2.5 3.7 3.8 2.3 4.5 4.4 2.6 8.7-1.7 4.1-1.2 4.9 2.1 4.1 1.7-.5 2.2-.3 1.8.7-.3.9 1.3 2.3 4.7 4 6.3 3.2 9.6 4.1 10 2.7.2-.6 2.1.9 4.1 3.1 2.1 2.3 3.5 4.6 3.3 5-.3.5 1.1 1.1 3.2 1.5 2 .3 5.1 1.8 6.7 3.4 1.7 1.5 4.3 2.8 6 3 2.5.1 2.7 0 1.3-.9-1-.5-1.8-1.9-1.8-3 0-2 .1-2 2.9.3 1.7 1.3 3 2.9 3 3.7.1.8.9 2.4 1.9 3.5 2.6 3 4.2 7.2 3.2 8.2-2.2 2.2-1.6 5.7 1.6 9.2 2.3 2.5 3 4 2.3 4.8-.6.8-.1 1.5 1.9 2.3 5.2 2.2 10.1 15.7 10.7 29.5.2 4.2 3.4 7.6 7 7.3 1.4-.1 2.1.6 2.5 2.8.3 1.7 1.5 3.4 2.7 4.1 3.6 1.7 6.2 4.4 6.5 6.8.4 2.9 5.6 3.5 7.5.9 1.2-1.5 1.5-1.6 2.3-.3.6.8 1.3 2.6 1.6 4 .4 1.4 1.3 3.3 2.2 4.2.8 1 1.2 2.4.9 3.2-.4.9-.1 1.8.5 2.2.6.4.8 2.2.4 4.5s-.2 3.9.4 3.9c.6 0 .7 1.8.3 4.5-.3 2.8-.1 5 .6 5.9.6.7.9 2 .5 2.9-.3.8-.1 2.4.5 3.5.8 1.6.7 2.1-.5 2.6s-1.4 1-.5 1.9c.8 1 .7 1.9-.3 3.3-1 1.3-1.1 2.4-.5 3.6.7 1.2.5 2.5-.6 4.1-1.4 2.2-1.3 2.5 1 4.7 1.5 1.4 2.5 3.5 2.5 5.2 0 1.9 1.2 4 3.6 6.5 4.9 5.2 7.4 10.9 6.1 14.4-.8 2.1-.6 3.3 1.1 6.1 2.6 4.1 2.7 4.8.8 4.8-1.1 0-1.3 1-.9 4.2.3 2.4 1 4.8 1.5 5.5 1.1 1.3 0 6.3-1.4 6.3-.6 0-.7 1.1-.4 2.4.3 1.4.2 2.7-.3 3-.5.3-.7 1.4-.4 2.4.3 1.1-.7 2.5-2.6 4-3.3 2.4-4.1 5.2-1.5 5.2.8 0 1.2.4.9 1-1 1.7-5.1 1.1-7-1-1-1.1-2.1-1.7-2.6-1.4-.5.3-2.2-1-3.8-2.8-2.5-2.7-3-2.9-3.1-1.4 0 1.2-.5 1.6-1.6 1.2-.8-.3-1.2-.2-.9.3.3.5-.6 2.2-1.9 3.6-1.5 1.6-2.2 3.3-1.9 4.2.4.9-.1 2.2-1.2 2.9-1.8 1.3-1.8 1.4.3 1.4 1.2 0 2.2-.5 2.2-1 0-1.7 3.6-1.1 5.4.9 1 1.1 2.4 1.7 3.1 1.5.7-.3 1.6-.1 1.9.5.4.6 1.4.7 2.2.4.8-.3 2.5-.1 3.7.5 4.4 2.1 5.1 1.9 6.9-2.1 1-2.1 1.8-4.8 1.8-5.8 0-1.1.7-2.2 1.5-2.5.8-.4 1.5-1.4 1.5-2.3 0-1 1.1-2.4 2.5-3.1 2.3-1.2 3-1.2 5.5.4 2.5 1.4 3 1.5 3 .3 0-.8.9-1.7 2-2 1.2-.3 2.2-1.7 2.6-3.5.4-1.9 1.2-2.9 2.2-2.8 1.2.1 1.7-.7 1.7-2.9.1-2.8.4-3 3.9-3.3 2.8-.2 4.7-1.2 6.7-3.3 1.5-1.6 3.3-2.9 4.1-2.9 1.3 0 1.5-.8 1.9-7 .2-1.7.8-3 1.6-3 .7 0 1.3-.5 1.3-1 0-.6.9-1 2.1-1 1.1 0 1.7-.5 1.4-1-.3-.6 0-1 .8-1s2-.7 2.7-1.5c.7-.9 2.1-1.3 3.1-1 1.5.5 1.9.1 1.9-1.6 0-1.7.3-1.9 1.4-1 .8.6 1.9 1 2.6.9.7-.2 1.5.3 1.8 1.1.3 1 0 1.2-1.3.7-1-.3-2.4-.1-3.1.5-2 1.6.1 4.9 3.1 4.9 4.1 0 5.5 1.1 5.5 4.3 0 1.7.3 2.8.6 2.4.3-.3 1.7-.2 3 .3 1.6.7 2.4.6 2.4-.1 0-.6.7-.9 1.5-.5 2.6.9 1.6-1.4-1-2.6-3.2-1.4-3.2-3.2 0-4.6 3.2-1.5 5.8-1.5 7.2-.1.8.8 1.7.8 3.1 0 1.4-.7 2.3-.8 2.7-.1.3.5 1.4 1 2.4 1s2.4.7 3.1 1.5c1 1.2 2.5 1.5 6 1.1 4.1-.5 5-.2 7.9 2.5 3.2 2.9 3.4 2.9 5.8 1.4 1.4-.9 2.7-1.4 3.1-1.1 1.3 1.4 5.2-3.8 5.2-7.1 0-1.8.5-3.3 1.1-3.3.6 0 .9-.9.6-2-.3-1.1-.2-2 .2-2 1.2 0 .6-3.7-.9-5.5-1.1-1.3-1.1-2-.1-3.6.6-1.1.9-2.9.6-4-.5-1.4-.2-1.7.8-1.3 1 .3 1.7-.4 2.1-2.2.4-1.4 1.4-3.4 2.3-4.2 1.4-1.5 1.3-1.8-1.6-4.2l-3.1-2.7 2.5-1.1c1.4-.7 3.2-1.2 3.9-1.2.8 0 2.1-1.1 3-2.5 1-1.5 2.2-2.2 3.1-1.9.9.4 1.5 0 1.5-.9 0-2 5.4-4.1 8.5-3.3 2.1.5 2.5.3 2.5-1.4 0-1.5.7-2 2.5-2s2.6-.7 3.1-2.6c.4-1.6 1.2-2.3 2-2 .8.3 1.4.1 1.4-.4s-.9-1.2-2-1.5c-1.1-.4-2.6-2-3.3-3.6l-1.2-3-2.2 2c-2.5 2.4-3.5 1.6-5.7-4.7-1.3-3.7-1.3-4.3.3-6.4 1-1.3 1.6-2.9 1.3-3.6-.5-1.6 2.7-4.2 4.5-3.5.7.3 1.3-.2 1.3-1.2s-.5-1.3-1.2-.9c-.8.5-.9 0-.6-1.4.4-1.2.3-2-.2-1.7-.4.3-2.5-1.8-4.6-4.5-2.1-2.8-4.1-5-4.4-5-.3 0-.7-1.9-.9-4.2-.2-4.9-.9-5.9-2.1-3.7-.7 1.2-2.2 1.5-6.8 1.2l-6-.3.3 3c.1 1.7.7 3.6 1.4 4.3 1.5 1.5 1.4 2.3-.5 4.1-2.6 2.6-4.9 1.9-7.3-2.4-2.3-4.1-6.4-7-10-7-1.1 0-2.3-.5-2.6-1-.5-.8-1.1-.8-2 0-1.9 1.6-10.1 1.8-9.8.2.2-.6-.3-1.2-1-1.2-2.2 0-9.7-6.1-9.7-7.8 0-1.2-.3-1.3-1.2-.4-.7.7-1.5 1.2-1.8 1.2-1.1 0-3-4.9-3-7.6 0-3.2-1.8-6.6-3.1-5.9-.5.4-1.4-.7-2-2.4-.6-1.7-1.4-3.2-1.7-3.2-.4-.1-1.7-.3-2.9-.4-1.2-.1-3.6-1.1-5.3-2.2-2.6-1.6-2.9-2.1-1.5-2.6 1.2-.5 1.4-1.1.5-2.6-1.6-3-1.2-3.4 1.2-1.1 1.2 1.1 2.4 2 2.7 2.1.3 0 1.3.2 2.3.4 1 .2 1.8-.5 2.1-1.7.5-1.7 1.1-1.9 3.3-1.4 3.3.9 6.4-1.7 6.4-5.2 0-2.2.2-2.3 1.7-1.1.9.8 3.5 1.4 5.7 1.4 4.1.1 4.2 0 3.8-3-.6-3.8-3.1-6.8-5.3-6.2-1 .3-2-.2-2.4-1.1-.3-1-.9-1.2-1.3-.7-.4.6-1.4 1.1-2.2 1.3-.8.2-1.9 1-2.3 1.8-.5.8-2.4 1.4-4.7 1.4-2.3 0-4.2.6-4.7 1.4-.4.8-2.1 1.8-3.6 2.1-2.3.6-2.9.4-3.4-1.4-.3-1.2-1.3-2.1-2.4-2.1-2.5 0-2.4 1.4.4 3.3l2.2 1.6h-2.2c-1.2.1-2.9.4-3.9.8-1.2.4-1.5.3-1-.5.7-1.2.1-1.6-4.7-2.7-3-.6-3.3-3.2-.3-2.7 2 .4 2-.7 0-3.6-1.5-2.1-1.5-2.5.1-4.2 1.2-1.3 1.5-2.7 1.1-4.5-.4-1.4-.3-2.5.1-2.5 2.8.1 4.8 5.1 3.3 8.1-.7 1.2-.5 2.1.5 2.9 1.2 1 1.5.9 1.5-.4 0-.9.5-1.6 1.1-1.6.6 0 .9-.7.5-1.5-.3-.8-.1-1.5.3-1.5.8 0 .8-3 0-5.5-.7-2.2 1.3-7.4 3.1-8 1.8-.6 3.4-5.8 4.5-14.4.4-3-1.6-5.8-3.4-4.7-.5.4-1.2.2-1.6-.3-.3-.5-1.3-1-2.3-.9-.9 0-3.2-.3-4.9-.7-2.7-.6-3.3-.4-3.3.9 0 .9-.7 1.6-1.5 1.6s-1.5.4-1.5 1c0 .5-1.3 1-3 1-1.6 0-4.1.5-5.4 1.2-2.2.9-2.9.8-4.7-.8-1.6-1.4-2.3-1.5-2.6-.7-.7 1.8-3.9-.1-4.6-2.7-.4-1.5 0-2 1.4-2 2.6 0 2.4-2.6-.5-5.3-1.8-1.7-2.2-2.7-1.5-3.9.6-1.1.4-2-.7-2.9-.9-.7-2-2.3-2.5-3.6-.5-1.3-2.8-3.1-5.8-4.4-2.8-1.2-5.3-3-5.6-4-.4-1.1-1.7-2.6-3-3.5-2.9-1.9-5.5-8.1-4.8-11.7.3-1.5.1-2.7-.5-2.7-.5 0-1.5-1.4-2.2-3-1.1-2.7-1.1-3.2.6-4.4 1.5-1.2 1.6-1.6.5-3-.7-.9-.9-1.6-.4-1.6 1.2 0 .4-5.8-.9-6.6-.5-.3-1.8.2-2.9 1.2-1.6 1.5-2.3 1.5-4.6.5-2.5-1.2-3-1-5.1 1.4-1.8 2.2-2.5 2.5-3.7 1.5-1.2-1-1.5-.9-1.5.9 0 2-.5 2.2-6.2 2.1-3.5-.1-7-.1-7.8-.1-.8.1-3.2-.2-5.2-.5-3.9-.6-7.2-4.2-6.2-6.7.3-.9-.8-2.3-2.9-3.6-3.9-2.4-4.9-4.1-3.7-6.1.6-1-.5-2.3-4-4.7-2.7-1.8-5.1-3.7-5.5-4.3-.3-.5-1.4-1-2.4-1-2.4 0-12.8-7.6-13.6-9.9-.3-1-2.4-2.6-4.6-3.6-2.2-1-5-3.2-6.1-4.9-2.7-3.9-7.6-8.9-9.1-9.3-.7-.1-3.1-.6-5.3-1.1-5.2-1.1-10.4-4.7-10.4-7.3 0-2.5-4.8-6.8-7.7-6.9-2.3 0-5.6-3.7-4.7-5.2.3-.4-.2-.8-1-.8-.9 0-1.6-.5-1.6-1 0-.6-1.6-1-3.4-1-2.8 0-4-.7-6-3.3-2.8-3.6-3.4-8.2-1.3-9 .9-.3.8-.9-.5-2.3-1.4-1.6-1.5-2.5-.5-6.2.9-3.6.9-4.7-.6-7.1-1.5-2.5-1.5-3-.2-3.5 1.6-.6 2.1-5.1.6-6.1-.6-.3-1.3-2.6-1.7-5-.4-2.7-1.1-4.5-2-4.5-.7 0-2-1-2.8-2.1-1.5-2.2-3.7-2.3-10.2-.4-1.6.5-2.3 0-3.3-2.2-1.8-4.4-6-8.5-8.2-8-1 .3-2.3-.1-2.9-.8-.6-.7-3.1-1.9-5.5-2.6-2.5-.7-4.5-1.7-4.5-2.1 0-.4-.7-.8-1.6-.8-1.1 0-1.4.5-1 1.6.3.9.6 2.3.6 3.2 0 1.3.2 1.4.9.4.5-.9 1.7-1.1 3.5-.6 3.4.8 2.9 2.8-.8 3.2-2.1.3-3.7-.5-6.2-2.9l-3.4-3.3v3.2c0 3.1-1.3 4.2-2.5 2.2-.4-.6-1.6-1-2.8-.8-1.7.2-2.3-.3-2.5-2.3-.2-2.1.2-2.8 2.2-3.3 2.3-.6 2.6-1.1 2.6-5.5 0-2.9-.6-5.3-1.4-6-.8-.7-1.2-2-.9-3 .7-2.6-7.2-10.3-10.1-9.9-1.2.2-2 .9-1.9 1.5.1.6-1.3 1.4-3.2 1.7-2.8.6-4.2.2-6.9-1.9-1.8-1.4-4.3-2.5-5.4-2.5-2 0-2.7-1-2.3-3.3.2-1.2-3.9-.8-5.3.5-.7.7-1 2.2-.8 3.5.2 1.3-.1 2.3-.7 2.3s-1-.8-.9-1.8c.3-3.8-.3-5.2-2.7-5.8-1.4-.3-2.5-1.2-2.5-2 0-1.6-2.3-4.7-6.2-8.3-1.6-1.4-2.8-3.6-2.8-4.9 0-1.2-.7-2.5-1.5-2.8-2.2-.9-1.8-2.1 1.2-3.6 2.5-1.2 2.8-1.8 3-8.3.3-6.9.3-7-2.6-8.3-1.8-.8-3.4-2.5-4.1-4.5-.9-2.8-.8-3.4 1-4.9 2-1.6 2-1.9.5-4.8-.9-1.7-2.3-3.4-3.1-3.7-1.7-.6-1.9-2.3-.1-2.3 2.1 0 3.8-3.8 3-6.8-.3-1.5-3.1-5.1-6.2-8.1-5.5-5.4-6.1-6.3-6.5-11-.2-1.4-1.2-3.1-2.4-3.9-1.2-.8-2.2-1.9-2.2-2.5 0-.5-1.2-2.1-2.7-3.4-1.8-1.8-2.3-2.7-1.4-3.2.9-.6.8-1.1-.3-2-.8-.7-1.9-1-2.5-.7-.5.3-1.2-.1-1.5-1-.8-2.2-.8-2.6.4-1.9 1.5.9 5-1.4 4.8-3.3-.3-4.2.2-6.1 1.6-5.6 1.1.4 1.3 0 .9-1.5s-.1-2.1 1.1-2.1c1.4 0 1.6-.8 1-5.3-.5-4.4-1.2-5.7-4.8-9-2.2-2-4.6-3.5-5.3-3.3-1.7.7-3.6-2-2.9-4.2.4-1.1 0-2.4-.8-3.1-1.1-.9-1.5-.7-1.9 1-.3 1.2-.4 3.4-.1 4.8.7 4-.6 5.3-4.2 3.9-2.3-.8-3.4-2.2-4.5-5.2-1.5-4.3-3.8-5.6-6.1-3.3-.7.8-2.5 1.3-3.8 1.2-2-.1-2.5-.8-2.7-3.1-.2-2.9-3.4-6.4-5.8-6.4-.6 0-1.7 1.2-2.4 2.6zm-52.5 27.2c-.9.8-4.6-2-4.6-3.5 0-1.3.5-1.2 2.5.7 1.4 1.3 2.3 2.5 2.1 2.8zm-3.1 1.2c.3.5.1 1-.4 1-.6 0-1.1-.5-1.1-1 0-.6.2-1 .4-1 .3 0 .8.4 1.1 1zm24.4 68.1c-.5 1-1.4 2.1-2 2.4-.6.4-.7 1.9-.4 3.6.9 3.8-.3 5.6-2.1 3.2-1.3-1.6-1.4-1.6-.8-.1.9 2.7-1.3 2.1-3.2-.8-1.2-1.7-1.4-2.8-.7-3.2.6-.4 1.3-2.1 1.5-3.7.2-2.3.9-3.1 2.8-3.3 1.4-.2 2.9-.8 3.4-1.3 1.5-1.3 2.6 1.2 1.5 3.2zm4.1 0c0 .5-.4.9-1 .9-.5 0-1-.7-1-1.6 0-.8.5-1.2 1-.9.6.3 1 1 1 1.6zm-18 9.6c0 .8-.4 1.1-1 .8-.5-.3-1-.1-1 .5s-.5.8-1 .5c-.7-.4-.7-1.2 0-2.4.5-1 .6-2.2.2-2.7-.4-.5.1-.2 1.1.5.9.7 1.7 2 1.7 2.8zm237 185.4c0 1-.4 1.9-1 1.9s-.5 1 .2 2.5c1.3 2.9-.3 5.5-3.3 5.5-1.1 0-1.9.4-1.9.9 0 .4-1.1.6-2.5.3-1.4-.2-2.5-.8-2.5-1.2 0-.4-.8-.7-1.7-.6-1.3.1-1.7-.5-1.5-1.9 1.1-7.4 2.2-9.5 6.6-11.5 4.1-1.9 4.1-1.9 5.9.1.9 1.2 1.7 3 1.7 4zm101.8 71.3c.1 1.4-.3 2.6-.8 2.6-.6 0-1-.5-1-1 0-.6-.5-.9-1.1-.8-.6.2-1.4-.3-1.6-1-.3-.6 0-1.2.6-1.2s1.1-.7 1.1-1.6c0-2.7 2.5.1 2.8 3zm29.9 3.4c1.8 1.1 2 1.6 1 2.7s-1.7.9-3.9-1.2c-1.5-1.5-2.5-3-2.2-3.5.5-.8 1-.7 5.1 2zm-10.1 7.1c-1.2 1.9-2.4 1.2-1.9-1 .4-1.3.9-1.7 1.5-1.1.6.6.7 1.5.4 2.1zm-27.6 1c0 .5.6 1.6 1.4 2.3 2.4 2.4-1.2 5.9-6.6 6.5l-4.5.5.6-4.3c.5-3.5 1.1-4.4 3.1-5 3.7-1 6-1 6 0zm43.6 12.7c-2.5 1.8-3.5 1.8-4.3-.1-.8-2.1.6-3.3 1.7-1.5.7 1.2 1 1.2 1.6-.3.5-1.4 1-1.5 1.8-.7s.6 1.5-.8 2.6zm25-.5c.3.6.2 1.5-.4 2.1-.6.6-.8 1.8-.4 2.7.5 1.4.4 1.4-1.1-.1-1.7-1.6-1.9-1.6-3.7.2-2.4 2.4-5.3 2.6-7 .5-1-1.2-.7-1.5 1.7-2.1 1.5-.4 3.5-1.2 4.3-1.9 1.4-1.2 3.7-2.3 5.2-2.4.4-.1 1 .4 1.4 1zm-17.2 23.5c2 .8 2.1 2.4.2 2.4-.8 0-1.6-.7-2-1.5-.6-1.7-.4-1.8 1.8-.9zm34.1 12.3c1 1.7-1.1 2.1-3.1.6-1.8-1.4-1.8-1.4.3-1.5 1.2 0 2.4.4 2.8.9zm18.9 131.2c-.6 1.1-2.4.2-2.4-1.1 0-.5.7-.7 1.5-.4.8.4 1.2 1 .9 1.5zm-12.4 9.9c0 .5-.5 1-1.1 1-.5 0-.7-.5-.4-1 .3-.6.8-1 1.1-1 .2 0 .4.4.4 1z"/><path d="M449.269 418.498c.3.8.9 1.2 1.4.9 1.2-.7 1.1-1.1-.5-1.7-1-.4-1.3-.1-.9.8zM107.569 133.998c-.8.5-1.2 1.1-.9 1.4.2.3 1.1.1 1.9-.4.8-.5 1.2-1.1.9-1.4-.2-.3-1.1-.1-1.9.4zM12.569 149.998c0 .5.5 1 1.1 1 .5 0 .7-.5.4-1-.3-.6-.8-1-1.1-1-.2 0-.4.4-.4 1zM8.069 153.098c-.6 2.7-2.5 4.2-2.5 1.9 0-1.5-4.7-1.2-5.3.3-1 2.6.8 3.7 5.3 3.1 5.6-.7 6-.9 6-4.4 0-4-2.7-4.7-3.5-.9zM9.269 165.398c-1.6 1.2-1.6 1.4-.1 2 2 .8 3.4-.1 3.4-2 0-1.7-1-1.7-3.3 0zM29.869 169.598c-1.4 1.4-.7 4.7.8 3.9.4-.3.5-1.3.2-2.2-.4-1.1-.3-1.4.5-.9.7.4 1.2.3 1.2-.3 0-1.7-1.4-2-2.7-.5zM199.569 200.098c0 .5.5.7 1 .4.6-.3 1-.8 1-1.1 0-.2-.4-.4-1-.4-.5 0-1 .5-1 1.1zM430.869 296.398c.7 1.5 1.6 2.1 2.1 1.6.6-.6.4-1.5-.4-2.5-1.9-2.3-2.9-1.8-1.7.9zM431.069 301.098c-1.1 1.6-.1 1.9 1.3.3.7-.8.8-1.4.3-1.4s-1.3.5-1.6 1.1zM419.569 304.798c0 1.2 3.8 2.2 5.6 1.5.8-.3 1.1-1 .8-1.5-.4-.6-.9-.6-1.4.2-.6.9-1.3.9-2.9.1-1.1-.7-2.1-.8-2.1-.3zM430.069 308.998c-.3.5.1 1 1 1s1.3-.5 1-1c-.3-.6-.8-1-1-1-.2 0-.7.4-1 1zM188.569 323.498c0 .8.4 1.5 1 1.5.5 0 .7-.7.4-1.5-.4-.8-.8-1.5-1-1.5-.2 0-.4.7-.4 1.5zM182.569 328.398c0 .2.7.6 1.5 1 .8.3 1.5.1 1.5-.4 0-.6-.7-1-1.5-1s-1.5.2-1.5.4zM244.769 392.998c-.6 1.1-1.2 3.1-1.2 4.5 0 1.8-.5 2.5-2 2.5-1.1 0-2.5.9-3.2 2-.7 1.1-1.9 2-2.7 2-2.1 0-4 3.1-4.1 6.6 0 4 2.4 5.1 4.6 2.1 1.2-1.6 1.7-1.9 2.1-.8.5 1.3 2.3 3.1 5.5 5.7.8.6 2.9 1.1 4.7 1.2l3.4.1-2.8-2.9c-2-2-2.5-3.4-2-5 .4-1.1.2-2.7-.4-3.4-.7-.8-.7-3.3.1-8 1.2-7.1.3-10.2-2-6.6zm-1.4 11.9c1 .6 1 1-.3 2.1-.8.7-1.5 1-1.5.7 0-.3-.3-1.2-.6-2.1-.7-1.7.3-2 2.4-.7zM222.569 413.498c0 .9.6 1.2 1.5.9.8-.4 1.5-.7 1.5-.9 0-.2-.7-.5-1.5-.9-.9-.3-1.5 0-1.5.9zM215.369 419.698c.7.3 1.6.2 1.9-.1.4-.3-.2-.6-1.3-.5-1.1 0-1.4.3-.6.6zM210.069 421.898c-1 1.7.4 3.1 3.1 3.1 1.9 0 2.5-.5 2.2-1.8-.4-1.9-4.3-2.9-5.3-1.3zM665.069 545.998c.3.5 1.1 1 1.6 1 .6 0 .7-.5.4-1-.3-.6-1.1-1-1.6-1-.6 0-.7.4-.4 1zM709.269 574.498c-.4.8-.1 1.7.6 2.1.7.4.9.4.5-.1-.4-.4-.3-1.4.3-2.2.7-.8.8-1.3.1-1.3-.5 0-1.2.7-1.5 1.5zM653.669 686.898c1.4 3.8 3.1 4.1 2.7.4-.2-1.7-1-2.9-2-3.1-1.5-.3-1.6 0-.7 2.7zM637.769 687.098c1.1 1.8 1 2.3-.4 3.2-1.5 1-1.5 1.4.3 5 2 3.8 2 3.9.1 3.3-1.2-.4-2.8.2-4.6 1.9-1.5 1.4-3.1 2.5-3.5 2.5-1.4 0 0 4.8 1.9 6.5 1.5 1.3 2.5 1.5 4.7.8 2.8-1 2.7-1-1.5-1.6-2.3-.4-4.2-1.2-4.2-1.8 0-.8 1.3-.9 4-.5 3.7.6 4 .5 3.7-1.6-.1-1.7.3-2.3 1.8-2.3 3.6 0 4.6-1.3 3.3-4.1-.9-2-.9-2.7.1-3.3.9-.6.8-1.1-.4-2.1-.9-.7-2.2-2.8-3-4.7-.8-1.8-1.9-3.3-2.5-3.3-.6 0-.6.7.2 2.1zM787.969 688.098c-1.6 1.7-4.5 3.9-6.5 4.9-2 1.1-3.9 2.6-4.2 3.5-.4.8-1.3 1.5-2.1 1.5-.9 0-2 .9-2.6 2-.6 1.1-1.8 2-2.6 2-1.2 0-1.5.6-1 2.4.4 1.6.1 2.6-.9 3-.8.3-1.5 1.2-1.5 2 0 1.2-.5 1.4-2.6.6-3.3-1.3-7.4-1.3-7.4 0 0 .5-.9 1-2 1-3.6 0-8.1 3-9.2 6.1-.8 2.2-1.6 2.9-3.6 2.9-4.8 0-7.2 1.2-7.8 3.6-.6 2.5-4.6 3.4-5.9 1.4-.5-.8-1.1-.7-2.1.1-2.1 1.7-9.5-.6-10.1-3.1-.6-2.2-3.3-1.5-3.3.8 0 1.1-.3 1.3-1 .6-1.4-1.4-7-.5-7 1.2 0 .7.9 1.8 2 2.4 1.4.7 2 .7 2 0 0-.5.5-1 1.1-1 1.9 0 .5 4.5-1.6 4.8-1.1.3-1.7.1-1.3-.4.5-.4-.2-1.2-1.5-1.8-1.6-.9-2.3-2.1-2.4-4.9-.2-4.3-1.8-6.2-5-6.3-3-.1-2.9.4.9 4.3 3.5 3.7 3.1 5.9-.5 2.5-1.3-1.2-3.1-2.2-4-2.2-1.7 0-4.2-4.4-3.3-5.8.2-.4-1.3-2.5-3.3-4.7-2-2.2-3.5-3.9-3.4-3.7.4 1-3.2 4-4.3 3.5-.8-.3-2 .2-2.8 1-.9.8-3.8 1.8-6.5 2.2-5.1.7-7.8 2.5-6.6 4.5.3.5-.2 1-1.2 1-2.6-.1-10.3-3.7-10.3-5 0-.5-.4-1-.9-1-.4 0-.7 1.3-.5 2.9.3 2.5.1 2.8-2.6 2.7-1.8-.1-2.8-.6-2.6-1.2.7-1.7-1.5-3.4-4.2-3.4-1.9 0-2.2.3-1.3 1.4.6.7.8 2.6.5 4.4-.5 2.5-1.2 3.1-4 3.7-1.9.3-3.4 1.2-3.4 1.9 0 1.4-4.4 3.1-6.8 2.7-.8-.1-2 .6-2.7 1.6-1.3 1.7-1.5 1.7-4.2-.7-1.5-1.4-2.5-2.1-2.1-1.6.8 1-1.5 3.6-3.1 3.6-.6 0-1.1-.7-1.1-1.5s-.7-1.5-1.5-1.5c-.9 0-3.5-1.8-5.9-4-2.4-2.2-5.1-4-6-4-.9 0-1.6-.5-1.6-1 0-.6-.4-1-1-1-.5 0-1 .9-1 2s-.7 2-1.5 2-1.7 1.1-2.1 2.5c-.5 2-.9 2.3-2.4 1.5-2.5-1.4-3-1.3-2.4.5.4.8.1 1.5-.4 1.5-.6 0-1.4.9-1.7 2-.3 1.1-1.5 2-2.5 2s-2.2.9-2.5 2c-.4 1.1-1 1.8-1.5 1.5-.5-.3-1.2.4-1.5 1.5-.6 1.8-1.2 2-3.8 1.4-1.8-.4-4.4-.8-5.9-.9-1.5-.1-3.4-.7-4.1-1.4-1.7-1.4-3.1 0-4.1 4.1-.4 1.9-1.3 2.8-2.6 2.8-1.1 0-2 .4-2 1 0 .5-.7 1-1.5 1-3.4 0-9.6 2.6-10.1 4.3-.3 1-1.7 2.2-3 2.7-2.1.8-2.4 1.6-2.4 5.7.1 2.7.5 6.8.9 9.2.8 3.7.6 4.7-1 6.4-1 1.2-1.9 2.6-1.9 3.1 0 .6-2.2 2.1-5 3.4-3.8 1.8-5 2.8-5 4.6 0 1.2-.6 3.1-1.4 4.1-.8 1.1-1.2 2.5-.9 3.1.2.7 0 1.5-.6 1.9-2.6 1.5-.3 6.1 3.2 6.4 1.8.1 3.5 1.7 3.9 3.6.2 1.3-.2 1.9-1.2 1.7-1.4-.2 1.6 2.7 6 5.8 1.4 1 2.7 3.7 3.7 8 .8 3.6 2 6.9 2.6 7.3.9.6.9 1 0 1.4-1.5.6-1.8 6.3-.3 6.3 1.7 0-1.2 3.8-3.3 4.4-1.1.3-1.6.9-1.2 1.6 1.1 1.9-.4 6-2.3 6-1.2.1-.3 1.4 2.9 4.3 5.6 5.2 8.3 9.9 6.6 11.6-1.5 1.5.7 1.5 3.5 0 1.6-.9 2.6-.7 4.9 1 3.4 2.5 3.7 2.5 6 .5 1.6-1.5 1.6-1.7-1.4-4.3-1.7-1.6-3.2-3.7-3.3-4.7-.2-1-.6-3.2-1-4.8-.6-2.6-.5-2.9 1.4-2.4 1.4.4 1.9.2 1.6-.7-.3-.7.2-1.5 1-1.8.9-.4 1.6-1.5 1.6-2.6s.7-2.7 1.6-3.5c.8-.9 1.2-2 .9-2.6-.3-.5-.1-1 .4-1 1.6 0 1.3-2.1-.6-4.3-1.7-1.8-1.7-2 .6-3.8 1.3-1 3-1.9 3.8-1.9 1 0 1.4-.7 1-2-.3-1 .1-2.5.9-3.1 1.2-1 1.2-1.4.1-2.8-3.5-4-2.7-12.1 1.2-12.1 2 0 4.3-4.2 3.5-6.3-.3-1 .5-1.4 2.8-1.5 1.8 0 5.1-.3 7.3-.5 3.1-.3 4.7.1 7.1 1.8 3.2 2.4 5.9 2 4.9-.8-.4-1 .1-2 1.7-2.8 1.3-.6 2.7-1.8 3.1-2.5.6-1.1 1.2-1.1 2.7-.2 1.5 1 2.2.9 3.8-.5 1-.9 2.4-1.7 3-1.7 1.7 0 9.2-7 9.2-8.6 0-1.7 2.2-1.8 3.7-.3 1.4 1.4 3.3.3 3.3-1.8 0-1 .6-1.3 1.6-.9.9.3 2.1.3 2.7-.1 1.8-1.1 3.6-1.2 4.3-.2.8 1.4 2.4 0 2.4-2.2 0-2.1.4-2.3 2.8-1 .9.4 3.8 1.1 6.3 1.3 4.3.5 4.7.3 6.9-2.8 1.2-1.9 3.1-3.4 4-3.4 1.1 0 2-1 2.4-2.4.3-1.4 1.4-2.7 2.5-3.1 1-.3 2.3-1.7 2.9-3 .6-1.4 1.6-2.5 2.2-2.5.7 0 1.8-.7 2.6-1.5.9-.8 1.1-1.5.6-1.5-.5 0-1.2.3-1.5.7-1.2 1.2-5.6 1.2-6.5 0-1.3-1.7-1.1-4.7.3-4.7.7 0 1.1-2 1-5.5 0-3.8.3-5.5 1.2-5.5.7 0 1.3-.4 1.3-.9s1.3-1.1 3-1.4c2.1-.5 2.8-1.1 2.4-2.2-.4-.9 0-1.5.9-1.5.8 0 1.7-1 2.1-2.3.4-1.7 1.2-2.3 2.8-2.3 1.8.1 2.3-.4 2.1-2.4-.1-2.5-.1-2.5 1 .2.9 2.3 1.8 2.8 4.6 3 2 .1 4.5.2 5.6.3 1.1.1 2.7-.6 3.5-1.6.9-1 3.5-2 6.1-2.3 4.5-.5 4.6-.4 4.1 1.9-.3 2 0 2.5 1.6 2.5 1.2 0 2.3.4 2.6.9.3.5 2.8.1 5.5-.9 2.7-1.1 5.2-1.6 5.5-1.2.4.3.9-.4 1.3-1.6.3-1.3 1.4-2.2 2.7-2.3 3.3-.2 5.1.2 5.4 1.2.2.5 2 1.8 4 2.9 4.9 2.6 9.2 6.5 9.2 8.4 0 .8.6 1.9 1.4 2.3.8.4 1.4 1.5 1.3 2.3-.1.8.4 3.4 1.1 5.7 1.1 3.6 1.7 4.3 3.7 4.3 1.4 0 2.5.5 2.5 1 0 1.1 4.8 3.5 6.3 3.2.4-.1 2.6 1 5 2.5 2.3 1.5 4.6 2.6 5.1 2.5.4-.2 1.9.4 3.2 1.3 2.2 1.4 2.5 1.4 4.4-.5 1.5-1.5 1.9-2.8 1.4-4.3-.6-1.9-.5-2 .8-.9 2.2 1.8 2.9 13 1 15.9-.8 1.3-2 2.3-2.7 2.3-.8 0-1.9 1.6-2.5 3.5-1.1 3.2-1 3.6 1.7 6 1.5 1.3 3.3 2.5 3.9 2.5.6 0 1.7.7 2.4 1.5 1.1 1.3.8 1.5-1.4 1.5-1.8 0-3.6-1-5.2-2.9-1.5-1.9-3.3-2.8-4.8-2.7-1.3 0-2.4.3-2.4.6.2 2.7-.6 4.2-2.7 5.2-2.2 1-2.5 1.8-2.5 5.2.1 2.3-.1 6.7-.4 10-.6 5.2-.3 6.4 2.4 11.1 2.3 4 2.7 5.4 1.7 5.8-1 .4-1.4 2.4-1.3 7.1.1 5.9-.1 6.6-2 7-3.5.9-5.5 13.3-2.9 17.6.9 1.5-2.4 5-4.7 5-2.1 0-2.3 1.8-.7 5.4 1 2 .9 2.8-.5 4.1-2 2.1-2 4.7-.1 8.6 1.2 2.1 1.3 3.4.5 4.8-.5 1.1-1 3.1-1 4.5 0 1.9-.5 2.6-1.8 2.6-1.1 0-2.7.9-3.7 2s-2.5 2-3.4 2c-1.2 0-1.2.3-.3 1.2.7.7 1.2 1.9 1.2 2.8 0 .8.9 2.2 2 3 2.5 1.8 2.6 6.1.1 7.9-1.6 1.2-1.7 1.6-.6 2.8 1.8 1.7 3.1 1.7 1.6 0-1.2-1.5-.5-2.7 1.6-2.7.7 0 1.2.6 1.1 1.2-.2.7.3 1.3 1 1.2.6-.1 1.9-.2 2.8-.3 1 0 1.4-.7 1-1.6-1-2.8.8-1.5 7.5 5.5 3.8 3.8 7.3 7 7.8 7 .6 0 2.3 1.8 3.8 4.1 2.4 3.6 2.5 4.2 1.1 5-1.5.8-1.5 1.3.2 5.6 3.2 8.7 3.3 9.1 1.1 9.8-1.2.4-1.8 1.2-1.4 2.1.3.8 0 2.1-.7 2.9-.7.8-1 1.5-.6 1.5.3 0-.1 1.8-1 3.9-2.3 5.8-1.6 8.6 2.1 8.7 1.7.1 5.1 1 7.7 2.2 4.6 2 4.6 2 5.1 0 .3-1.1 1-1.7 1.6-1.3.6.3 1.1 0 1.1-.8s1.4-1.8 3.2-2.3c2.1-.6 3.4-1.7 3.8-3.3.5-2.2.5-2.2 2.7.7 1.2 1.6 3.5 3.2 5.1 3.5 1.6.3 4.3 1.7 6 3.1 1.6 1.5 3.7 2.6 4.6 2.6.9 0 1.6.5 1.6 1.2 0 .6.6.3 1.4-.7.7-1 1.1-2.7.8-3.8-.4-1.7-.2-1.9 1.4-1.2 1 .5 3.1.8 4.7.7 1.8-.1 2.7.4 2.7 1.4 0 .9 1.4 2.1 3 2.7 1.7.6 3 1.5 3 1.9 0 .4 1.3.8 2.9.8 1.6 0 3.4.7 4.1 1.6 3.2 3.8 10 4.1 10 .4 0-3.4 2.5-2.8 7 1.6 2.5 2.4 4.6 4 4.8 3.4.2-.5 1-1 1.7-1s1.6-.6 1.9-1.3c.3-.8 1.1-.5 2.5 1.1 1.6 1.8 2.4 2.1 3.8 1.3 1-.6 1.4-1.1.8-1.1-.7 0-.7-.3 0-.8.6-.4 2.3-2.4 3.9-4.6 1.9-2.6 3.1-3.4 3.6-2.6.6.9.9.9 1.5 0 .4-.6-.1-2-1-3s-1.2-2.1-.7-2.4c1-.6-1.2-8.3-2.9-10-.5-.6-1.9 0-3.6 1.6-1.6 1.4-3.4 2.3-4 2.1-1.5-.6-1.8-5.3-.3-5.3.6 0 1-.7 1-1.7 0-1.4-.2-1.4-2 .2-2.2 2-2.2 2-4-1.4-.7-1.3-1.5-1.9-1.9-1.4-.3.6-2.6 1-5 .9-3.4 0-5.1-.7-7.3-3-4.1-4.1-7.1-10.4-6.4-13.6.2-1.5 0-3.2-.7-3.9-.8-.8-.8-1.1.2-1.1.8 0 1-.7.6-2-.5-1.5-.2-2 1.4-2 1.1 0 2.3-.5 2.7-1.1.3-.6 1.4-.9 2.4-.6 1.6.4 1.7.1.8-2.7-.6-1.7-2.1-4.2-3.4-5.7-1.7-1.7-2.1-2.8-1.3-3.6 1.4-1.4 1.4-9 0-10.7-.6-.7-.9-2.1-.5-3 .3-.9.2-1.6-.4-1.6-1.7 0-3.4-6.6-2.6-10.4.5-3.1 1-3.6 3.3-3.6 2.4 0 2.6-.3 2.8-5.2.1-2.9.7-5.4 1.3-5.6 1.8-.6 1-2.6-2.6-6.7-1.9-2.2-4.1-5.4-4.8-7-.7-1.7-3.4-4.7-5.9-6.8-2.6-2.1-5-4.9-5.3-6.2-.3-1.4-1.1-2.2-1.9-1.9-1.5.6-3.9-3.1-3-4.6.3-.6-.1-1-1-1s-1.4-.4-1-.9c.3-.5.1-1.2-.5-1.6-.5-.3-1-1.9-1-3.5 0-2.2-.8-3.3-3.6-4.9-2.2-1.3-4.4-1.9-5.9-1.5-1.2.3-2.6.1-2.9-.5-.4-.6-1.7-1.1-2.9-1.1-1.4 0-4.5-2.2-8.1-5.9-4.8-4.8-5.7-6.3-5.1-8.1.6-1.8.4-2.2-.8-1.7-1.7.6-5.1-2.7-6.2-6.1-.4-1.3-1.4-2.2-2.6-2.2-1.2 0-1.9-.7-1.9-1.9 0-1.1-.4-2.3-1-2.6-1.6-1-1.2-2.8.5-2.1 2.3.8 4.5-.4 4.5-2.5 0-1 .5-1.9 1-1.9.6 0 1 .3 1 .7 0 .5 1.1 1.3 2.5 2 2 .9 2.5.8 2.5-.3 0-.8.9-1.4 1.9-1.4 2.7 0 5.1-1 5.1-2.2 0-.5-.4-.6-1-.3-.7.4-.7-.3 0-2 .6-1.5 1-4 1-5.6 0-1.6.4-2.9.9-2.9s2.8-1.8 5.2-4c2.4-2.2 4.8-4 5.3-4 .4 0 .6-.7.2-1.5-.6-1.8.7-1.9 3.5-.5 1.1.6 2.5.7 3.2.3.6-.4 2.3-.6 3.6-.4 1.8.2 2.2-.1 1.8-1.3-.9-2.2.1-2 6.7 1 3.6 1.6 6.1 3.5 6.6 4.9.8 2 1.4 2.3 4.8 1.8 2.8-.4 4.7 0 6.6 1.2 1.5 1 2.9 1.5 3.3 1.2 1.1-1.1-1.9-3.7-4.3-3.7-2.3 0-7.4-4.2-7.8-6.4-.7-3.6-2-5.3-5.6-6.8-2.2-.9-4-1.2-4-.7s-.8.9-1.7.9c-1.3 0-1.4-.3-.5-1.2.7-.7 1.2-2.2 1.2-3.4 0-1.2.9-4.2 1.9-6.7 1.7-4 1.8-4.7.5-6.6-.9-1.2-2-1.9-2.5-1.6-.5.4-.9.1-.9-.4 0-.6.5-1.1 1-1.1.6 0 1-1.1 1-2.5 0-1.6.6-2.5 1.5-2.5 2.2 0 1.8-2.4-.9-4.9-2.4-2.2-2.4-2.2-3-.3-.4 1.1-1.3 2.3-2.1 2.6-.8.3-1.5 1.2-1.5 2.1 0 .9-.9 1.5-2.5 1.5-1.4 0-2.5-.6-2.5-1.3 0-.9-.3-.8-.9.2-.5.7-.6 2.1-.4 3.1.6 2.1-1 3.2-5.2 3.8-5.3.8-7.4.5-10.1-1.7-2-1.6-2.9-1.8-3.5-.9-.5.8-1 .2-1.5-1.8-.4-1.6-1.1-3.4-1.6-4.1-.7-.8-.3-1 1.1-.6 3.5.9 2.3-2.5-1.6-4.5-1.5-.9-2-1.8-1.5-3.4.4-1.7.2-2-1.1-1.5-1.2.4-2.1-.2-3.2-2.3-1.4-2.7-1.4-3 0-3 .9 0 2-1.1 2.5-2.5s1.3-2.5 1.8-2.5c.4 0 .8-1.8.8-4.1-.1-2.8-.8-4.7-2.5-6.5-2.1-2.2-2.3-3-1.7-8.3.9-7.7-.8-9.4-5-5zm43.3 56.8c.8 2.3.8 3.1-.2 3.5-1.4.5-2.5-1.4-2.5-4.5 0-2.8 1.4-2.3 2.7 1zm-13.7 2.1c0 .5-.7.7-1.5.4-.8-.4-1.5-.8-1.5-1 0-.2.7-.4 1.5-.4s1.5.4 1.5 1zm8 2c0 .5-.2 1-.4 1-.3 0-.8-.5-1.1-1-.3-.6-.1-1 .4-1 .6 0 1.1.4 1.1 1zm-3.5 1c.3.5.2 1-.4 1-.5 0-1.3-.5-1.6-1-.3-.6-.2-1 .4-1 .5 0 1.3.4 1.6 1zm6.3 11.2c-.6 1.8-2.8 2.1-2.8.4 0-.9.7-1.6 1.6-1.6.9 0 1.4.5 1.2 1.2zm-1.3 88.8c.3.5.1 1-.4 1-.6 0-1.1-.5-1.1-1 0-.6.2-1 .4-1 .3 0 .8.4 1.1 1zm14.3 107.7c-.2 1.3.3 1.8 2 1.7 1.2 0 2.2.3 2.2.8 0 1.5-3.6.8-5.8-1.2-2.7-2.6-2.7-3-.2-3 1.4 0 2 .6 1.8 1.7z"/><path d="M663.969 689.898c-2 1.1-2.8 2.2-2.6 3.5.2 1.1-.3 2.5-1.1 3.1-.9.7-1.4 2.5-1.3 4.8.1 2.8-.3 3.9-1.6 4.3-2.2.7-2.3 1.8-.3 3.4.9.7 1.4 1.9 1.1 2.6-.6 1.5 2.3 3.4 5 3.4 2.9 0 7.9-5.2 7.6-7.9-.3-2 0-2.3 2.1-1.9 3.2.6 5.6-.8 9.8-5.6 1.9-2.2 2.8-3.7 2.2-3.2-.8.4-1.3.2-1.3-.7 0-1.8-3.3-3.3-3.8-1.8-.2.6-1 1.1-1.7 1.1s-1.5.4-1.7.9c-.5 1.3-4.8-.6-5.5-2.5-.4-1-1.4-2.5-2.3-3.4-1.5-1.5-1.9-1.5-4.6-.1zM643.769 711.398c1.8 1.6 3.4 2.2 5.2 1.9 3.3-.7 3.3-1.7.1-3.1-1.6-.8-2.5-.8-2.5-.1 0 .6-.6.6-1.9-.1-3.3-1.7-3.7-1.1-.9 1.4zM556.369 737.698c.7.3 1.6.2 1.9-.1.4-.3-.2-.6-1.3-.5-1.1 0-1.4.3-.6.6zM549.569 741.598l-2.5 1.4h3.3c2.2 0 3.2-.5 3.2-1.5 0-1.8-.7-1.8-4 .1zM856.369 780.998c1.5 1.5 2.9 2.3 3 1.8.5-1.3-1.5-3.5-3.8-4.1-1.6-.4-1.4 0 .8 2.3zM860.069 792.098c-.5 1.4 0 2.8 1.5 4.4 1.3 1.4 1.9 2.9 1.5 3.6-.5.8-.4 1 .3.5 2.3-1.4.8-10.6-1.8-10.6-.5 0-1.2.9-1.5 2.1zM862.969 803.398c-1.8 2.1-1.9 2.5-.5 4.5 1.2 1.8 1.2 3.1.3 7.2-.7 2.8-1.2 6.6-1.2 8.4 0 3.9-1.8 8.5-3.4 8.5-.6 0-1.2 1.7-1.4 3.8-.2 3.3.2 4 3.5 6.2 3.5 2.3 5.2 5.8 3.4 7-1.5 1-3.2 7.3-2.2 8.3.6.6.4 1.9-.6 3.4-1.3 2-1.4 2.8-.3 5.1.8 1.5 1.2 3.1 1.1 3.6-.1.5.2 1.2.6 1.5.4.3 1.6 2.2 2.6 4.1 1.5 2.8 1.6 3.6.5 4.5-.8.5-1.2 1.8-1 2.9.2 1-.1 2.3-.6 2.8-1.8 1.8 2.8 7.7 6.5 8.4 4 .8 5.1.1 6.1-3.9.7-2.6.5-3.5-1.1-4.8-1.4-1.1-2-2.9-2.1-6-.1-2.9-.7-4.8-1.8-5.7-2.2-1.6-2.5-6.4-.4-5.6.9.3 1.7-.8 2.4-3.5 1-4.3.5-8.2-2.2-14.3-2.3-5.3-2.1-6.1 1.2-5.5 2.1.4 2.9.2 2.9-.9 0-.8-.4-1.4-.9-1.4-.4 0-.8-1.1-.8-2.5s-.8-2.9-1.9-3.5c-1.6-.8-1.9-1.9-1.7-5.7.2-2.7.8-5.9 1.4-7.3.7-1.9.6-2.9-.4-4.1-2-2.2-1.8-2.5 2.1-2.3 2.7.2 3.5-.2 3.5-1.5 0-.9.6-2.3 1.3-3 1-1 .8-1.1-.7-.5-1.6.6-1.8.4-1.3-1.8.4-1.5.9-3.2 1.2-4 .6-1.5-4.5-4.1-9-4.4-2.1-.2-3.6.4-5.1 2z"/><path d="M859.569 874.598c0 .8.5 1.2 1 .9.6-.3 1-1 1-1.6 0-.5-.4-.9-1-.9-.5 0-1 .7-1 1.6zM876.069 892.998c-.3.5-.8 2.8-1.1 5.2-.5 4-.3 4.4 2.8 6.5 4.3 2.9 5.9 3 3 .3-2.8-2.6-2.8-4.3-.2-3.5 1.7.6 2 .2 2-2.9 0-2.8-.5-3.7-3-4.9-1.6-.9-3.2-1.2-3.5-.7zM882.569 910.898c0 1.1.4 2.2.9 2.6.5.3.8 2.6.6 5.2-.3 5.4.2 7.3 1.9 7.3.7 0 1.6 1.4 2.1 3.2.6 1.7 1.6 3.4 2.3 3.6 1.1.3 1.2 0 .3-1.6-.6-1.2-.7-2.3-.2-2.6 2-1.3.3-7.8-3.8-14.6-.5-.8-1.2-2.3-1.5-3.3-.7-2.3-2.6-2.2-2.6.2zM856.069 915.998c-.7 1.2.2 3 1.6 3 1.2 0 1.2-2.7 0-3.5-.5-.3-1.2-.1-1.6.5zM823.269 971.898c-.3 1.5.2 2 2.5 2.5 4.7.9 5.5.7 3.3-1-4.1-3.2-5.3-3.5-5.8-1.5zM819.569 975.998c0 .6.7 1 1.5 1s1.5-.2 1.5-.4-.7-.6-1.5-1c-.8-.3-1.5-.1-1.5.4z"/></g></svg>