<?xml version="1.0" standalone="no"?>
<!DOCTYPE svg PUBLIC "-//W3C//DTD SVG 20010904//EN"
 "http://www.w3.org/TR/2001/REC-SVG-20010904/DTD/svg10.dtd">
<svg version="1.0" xmlns="http://www.w3.org/2000/svg"
 width="456.611201pt" height="773.000000pt" viewBox="0 0 456.611201 773.000000"
 preserveAspectRatio="xMidYMid meet">
<metadata>
Created by potrace 1.15, written by Peter Selinger 2001-2017
</metadata>
<g transform="translate(-734.371600,1382.000000) scale(0.100000,-0.100000)"
fill="#222222" stroke="none">
<path d="M8117 13801 c-3 -11 1 -22 8 -25 7 -2 16 -27 20 -55 4 -28 11 -49 16
-46 4 3 5 13 2 22 -5 12 -2 15 10 10 23 -9 22 16 -2 37 -11 10 -17 24 -14 32
5 14 -13 44 -27 44 -4 0 -10 -9 -13 -19z"/>
<path d="M8197 13597 c-10 -25 5 -97 19 -97 8 0 14 -5 14 -11 0 -8 4 -8 15 1
8 6 19 9 25 5 5 -3 10 2 10 14 0 14 8 21 28 23 19 2 28 9 30 26 3 22 -16 31
-32 15 -14 -14 -65 -11 -78 5 -7 8 -12 18 -10 21 2 3 -1 7 -6 9 -5 1 -12 -4
-15 -11z"/>
<path d="M8215 13461 c3 -11 2 -28 -3 -37 -8 -15 -10 -15 -15 0 -4 9 -11 16
-18 16 -6 0 -1 -15 11 -35 16 -26 19 -39 11 -53 -6 -11 -7 -36 -4 -57 l6 -37
16 35 c9 19 22 41 28 49 19 23 5 116 -19 129 -17 9 -19 8 -13 -10z"/>
<path d="M8185 13210 c8 -47 25 -90 36 -90 17 0 8 46 -16 85 l-26 40 6 -35z"/>
<path d="M8360 13151 c0 -12 -6 -21 -14 -21 -8 0 -24 -8 -36 -18 -19 -15 -31
-17 -64 -11 -62 12 -66 11 -66 -16 0 -14 -8 -29 -20 -35 -11 -6 -20 -19 -20
-30 0 -11 -20 -38 -45 -61 -34 -31 -44 -47 -39 -61 7 -22 -29 -63 -55 -63 -21
0 -27 -35 -7 -36 49 -3 63 -2 73 4 6 4 16 0 23 -7 18 -22 66 -29 105 -15 28
11 40 11 55 1 11 -7 29 -12 40 -12 11 0 23 -7 26 -15 7 -18 42 -20 69 -2 18
11 34 13 73 8 9 0 11 -8 7 -22 -11 -34 4 -108 26 -128 13 -12 17 -21 10 -26
-6 -3 -8 -17 -5 -30 4 -17 0 -26 -15 -35 -30 -16 -26 -51 10 -80 43 -36 53
-86 23 -123 -13 -15 -21 -34 -18 -42 4 -9 0 -15 -10 -15 -20 0 -20 -9 0 -31
12 -13 14 -28 9 -63 -4 -25 -11 -46 -16 -46 -5 0 -6 -7 -3 -15 4 -9 0 -15 -8
-15 -19 0 -50 -62 -42 -83 4 -11 1 -17 -9 -17 -8 0 -20 -13 -25 -29 -7 -19
-18 -31 -34 -33 -28 -4 -37 -48 -17 -84 9 -19 9 -26 0 -38 -11 -12 -9 -21 7
-43 24 -34 32 -101 14 -112 -7 -4 -10 -15 -7 -24 5 -12 2 -14 -17 -11 -20 5
-21 4 -5 -6 9 -6 17 -15 17 -20 0 -16 -98 -11 -131 5 -20 11 -35 13 -47 6 -11
-6 -24 -6 -35 1 -13 7 -23 6 -33 -3 -10 -9 -21 -9 -37 -2 -18 8 -28 7 -46 -8
-12 -10 -20 -23 -16 -29 3 -5 -1 -10 -9 -10 -9 0 -16 -4 -16 -10 0 -5 -13 -10
-29 -10 -51 0 -91 -12 -91 -27 0 -9 -6 -13 -15 -9 -10 4 -15 -1 -15 -15 0 -11
-6 -19 -12 -18 -42 5 -47 -1 -22 -26 25 -25 25 -45 0 -45 -8 0 -13 -7 -12 -16
2 -23 -32 -43 -43 -26 -7 12 -12 12 -30 1 -17 -11 -25 -11 -41 -2 -10 7 -21 9
-24 4 -10 -15 13 -72 41 -105 16 -17 35 -46 42 -64 7 -17 29 -40 48 -52 29
-17 34 -24 29 -48 -3 -15 -2 -32 2 -39 11 -18 49 -5 55 19 3 11 10 17 16 13 6
-3 9 -10 6 -14 -2 -5 7 -6 20 -3 31 5 32 24 3 37 -13 6 -25 19 -27 30 -3 17
-1 18 13 6 12 -10 19 -11 29 -2 17 14 27 4 27 -25 0 -22 42 -43 48 -24 2 6 16
3 33 -5 28 -15 29 -15 29 10 0 21 5 25 30 25 30 0 69 -16 82 -35 9 -13 5 -39
-9 -57 -12 -15 -13 -48 -2 -48 5 0 6 -7 2 -16 -3 -8 -12 -13 -19 -10 -9 3 -14
-2 -14 -14 0 -10 -4 -21 -9 -24 -14 -9 -21 -48 -8 -43 7 2 18 -2 25 -9 10 -11
6 -19 -18 -44 -16 -16 -36 -30 -45 -30 -20 0 -19 -34 1 -51 9 -8 37 -25 63
-39 26 -14 47 -33 49 -45 2 -11 10 -25 17 -31 7 -5 13 -19 12 -30 -2 -20 4
-21 58 -10 32 6 58 -11 81 -56 7 -14 27 -32 43 -39 16 -7 27 -17 25 -21 -11
-17 27 -19 52 -3 60 39 152 -11 241 -132 25 -34 50 -60 54 -57 5 3 18 -1 30
-9 11 -8 29 -13 39 -10 11 3 35 -4 53 -16 19 -12 45 -21 58 -21 15 0 44 -18
74 -45 39 -36 51 -42 57 -31 12 21 67 3 100 -33 31 -35 59 -51 87 -51 11 0 29
-13 41 -30 12 -16 30 -30 40 -30 10 0 26 -8 36 -17 22 -23 62 -43 83 -43 9 0
33 -9 53 -20 26 -14 38 -16 41 -7 5 15 77 -58 94 -96 7 -15 19 -27 26 -27 8 0
22 -9 32 -20 23 -25 35 -26 35 -2 0 27 46 49 70 34 12 -7 28 -9 42 -3 24 9 68
-5 68 -21 0 -11 38 -10 45 2 11 19 25 10 39 -25 14 -33 35 -52 23 -20 -4 8 -1
18 6 22 17 10 73 4 104 -12 l26 -14 -27 -12 c-17 -8 -29 -23 -33 -40 -4 -22
-12 -28 -45 -33 -27 -4 -50 -17 -68 -36 -16 -17 -33 -30 -40 -30 -7 0 -9 -8
-5 -20 8 -24 -4 -26 -31 -5 -23 18 -48 20 -38 3 4 -7 8 -21 9 -32 1 -12 5 -29
10 -38 4 -11 3 -18 -4 -18 -6 0 -8 -6 -6 -12 3 -7 1 -17 -3 -23 -16 -22 -92
-75 -107 -75 -12 0 -15 -6 -10 -20 5 -17 2 -20 -24 -20 -25 0 -31 -4 -31 -22
0 -12 -7 -29 -16 -39 -12 -14 -13 -22 -4 -38 12 -24 6 -41 -15 -41 -8 0 -22
-12 -32 -26 -15 -23 -21 -25 -55 -20 -35 6 -39 4 -49 -21 -11 -30 -5 -58 12
-47 6 3 16 0 21 -7 7 -11 8 -9 4 5 -8 23 9 36 46 36 20 0 31 -8 43 -30 9 -16
22 -30 31 -30 8 0 17 -7 20 -15 5 -11 11 -12 25 -4 17 8 19 6 19 -18 0 -15 4
-34 9 -42 5 -8 4 -26 -5 -47 -8 -19 -10 -35 -5 -39 18 -10 39 -64 34 -84 -6
-25 61 -101 91 -101 28 0 40 -9 62 -45 53 -87 67 -104 89 -109 19 -5 25 -13
25 -32 0 -17 7 -28 20 -31 25 -7 56 -63 34 -63 -20 0 -19 -59 2 -67 8 -3 13
-12 9 -21 -3 -8 2 -23 11 -33 25 -28 1 -53 -42 -46 -41 7 -50 -4 -58 -68 -6
-39 -3 -60 13 -95 21 -48 20 -60 -9 -60 -10 0 -25 -7 -34 -15 -8 -8 -19 -15
-24 -15 -31 0 -30 -104 3 -151 13 -20 22 -39 19 -42 -3 -3 18 -20 45 -38 54
-34 63 -49 32 -49 -16 0 -18 -5 -11 -36 8 -35 8 -35 -15 -20 -21 14 -24 14
-27 1 -3 -13 -6 -13 -30 -1 -26 14 -30 13 -58 -11 -24 -20 -38 -24 -65 -20
-23 4 -38 1 -46 -9 -10 -12 -9 -13 4 -9 8 4 18 2 22 -4 3 -6 0 -14 -8 -17 -24
-9 -15 -35 25 -77 26 -25 36 -43 30 -49 -14 -14 -3 -47 19 -59 11 -5 19 -16
19 -24 0 -9 9 -15 23 -15 23 0 52 -34 42 -50 -10 -16 11 -44 47 -62 71 -35
109 -50 115 -45 3 4 15 0 27 -8 28 -20 70 -20 62 0 -6 16 9 21 19 6 3 -6 16
-6 34 0 20 7 54 6 117 -5 79 -14 90 -14 100 -1 10 13 17 11 55 -16 24 -17 56
-44 70 -60 20 -23 37 -31 70 -34 24 -3 49 -11 55 -19 6 -9 19 -13 31 -10 15 4
26 -1 38 -19 9 -14 26 -27 38 -29 23 -3 42 -54 27 -73 -6 -8 3 -19 30 -36 22
-13 40 -28 40 -34 0 -5 16 -23 35 -38 26 -20 35 -36 35 -57 0 -16 9 -44 20
-62 11 -18 20 -28 20 -22 0 7 9 14 20 17 16 4 19 11 14 36 -9 42 3 81 24 81
16 1 16 1 0 11 -10 5 -18 16 -18 23 0 7 -11 18 -25 24 -14 6 -25 16 -25 22 0
6 -10 24 -22 41 l-22 29 22 16 c18 12 20 19 12 35 -21 38 15 54 48 21 32 -32
52 -35 52 -7 0 17 9 29 30 40 40 21 47 37 40 99 -6 51 -5 53 19 52 13 -1 27 6
31 14 4 8 14 30 23 48 9 17 12 32 7 32 -6 0 -9 3 -8 8 0 4 -2 15 -6 24 -4 9
-3 26 4 37 8 17 8 21 -4 21 -8 0 -28 11 -44 24 -22 20 -28 31 -24 54 3 20 -4
37 -23 60 -14 17 -24 36 -21 41 3 5 -9 11 -27 15 -18 4 -33 2 -35 -4 -6 -17
-52 21 -52 44 0 34 26 110 39 114 6 2 9 8 6 13 -4 5 5 20 19 34 30 30 32 41 9
53 -16 9 -16 11 0 27 11 11 15 25 11 41 -4 17 0 32 12 47 32 37 45 67 39 87
-5 16 -15 19 -58 17 -49 -2 -52 0 -55 23 -2 14 -15 36 -30 49 -15 13 -21 20
-14 17 7 -4 12 -1 12 7 0 18 -22 27 -48 21 -10 -3 -26 2 -35 10 -8 9 -22 16
-30 16 -15 0 -67 61 -67 79 0 10 -17 15 -48 14 -7 -1 -12 6 -10 16 1 9 -1 22
-6 30 -6 9 -5 12 1 8 14 -9 34 15 25 29 -4 6 -18 14 -32 17 -82 19 -121 34
-135 55 -9 12 -24 22 -34 22 -25 0 -32 21 -16 44 13 16 12 67 -1 109 -5 15 -1
17 18 12 26 -7 55 16 43 34 -3 7 0 8 9 5 18 -7 22 11 5 22 -6 3 -8 17 -4 32 3
14 2 28 -3 31 -5 3 -12 16 -16 28 -6 18 -4 20 13 16 11 -3 21 -15 23 -27 2
-12 10 -21 20 -21 10 0 18 -3 18 -7 0 -5 0 -15 0 -23 0 -8 -7 -15 -15 -15 -21
0 -7 -30 19 -39 13 -5 25 -3 34 5 7 8 28 14 46 14 30 0 33 -3 29 -24 -5 -26
29 -81 77 -122 19 -17 28 -19 42 -11 24 16 26 39 6 59 -10 10 -18 27 -18 38 0
12 -9 24 -22 29 -13 5 -34 20 -48 33 -14 14 -36 28 -50 31 -16 4 -32 20 -44
46 -10 22 -25 42 -32 45 -8 3 -14 12 -14 20 0 19 -38 41 -80 45 -19 2 -41 8
-48 13 -9 8 -18 6 -33 -8 -19 -17 -21 -17 -53 0 -20 11 -60 19 -97 20 -60 3
-132 22 -189 52 -28 14 -38 34 -18 34 13 0 38 70 38 105 0 8 -22 31 -50 52
-44 33 -50 42 -50 74 0 27 -6 41 -22 52 -20 14 -21 16 -5 16 10 1 16 5 13 10
-12 18 -16 98 -7 129 6 18 19 41 31 50 14 11 23 33 27 62 4 34 13 52 36 72 30
27 30 28 17 70 -8 24 -17 48 -21 53 -4 6 -13 33 -20 60 -7 28 -21 63 -33 80
-27 38 -58 106 -51 113 5 6 -46 52 -57 52 -5 0 -8 7 -8 15 0 15 -31 52 -105
126 -22 22 -32 37 -22 33 12 -4 17 -1 17 11 0 9 5 13 11 9 8 -4 8 0 0 15 -8
14 -8 21 -1 21 5 0 10 7 10 15 0 18 4 18 46 3 17 -6 39 -8 48 -5 16 6 16 9 2
29 -12 16 -13 25 -4 35 8 10 8 20 0 38 -6 14 -9 39 -5 56 3 17 2 34 -3 38 -14
10 -34 49 -34 66 0 9 -11 33 -25 53 l-25 37 22 16 c12 9 27 15 34 12 7 -2 15
1 19 7 4 7 17 2 37 -15 40 -34 61 -29 68 15 8 48 16 59 40 53 13 -4 22 1 27
13 5 12 18 19 33 19 22 0 25 5 28 40 5 55 -7 127 -19 119 -6 -3 -21 6 -33 19
-17 19 -30 24 -47 20 l-24 -6 20 22 c52 54 59 61 71 61 7 0 15 14 19 30 4 17
15 35 26 40 10 6 19 16 19 23 0 18 33 44 81 65 32 14 39 21 35 38 -4 14 3 29
20 45 41 38 57 75 43 100 -8 16 -8 20 0 14 7 -4 23 5 38 19 14 14 22 26 18 26
-4 0 -2 6 4 14 7 8 8 17 3 20 -15 9 -2 99 16 114 14 10 11 15 -8 14 -3 0 -6
10 -6 24 -1 15 5 25 17 29 21 7 23 13 9 35 -6 10 -4 20 8 31 62 63 63 63 52
119 -6 29 -8 55 -5 58 2 3 18 5 35 6 26 1 30 4 26 20 -3 11 -1 25 5 32 6 7 6
21 -1 39 -6 15 -8 31 -4 36 11 18 -7 48 -41 69 -30 19 -33 24 -28 59 3 23 1
41 -6 45 -6 4 -11 25 -11 46 0 33 -4 41 -27 52 -18 8 -28 21 -28 35 0 12 -8
30 -17 40 -9 10 -18 45 -22 78 -3 33 -9 77 -12 98 -5 29 -2 43 12 58 17 19 17
21 -1 57 -21 42 -22 45 -24 73 -1 16 -6 20 -20 16 -13 -3 -21 1 -24 14 -3 11
-1 17 4 13 5 -3 9 1 9 9 0 8 8 21 18 31 25 22 28 98 6 117 -9 7 -20 23 -25 36
-5 14 -17 23 -29 23 -11 0 -20 7 -20 15 0 19 -10 19 -38 -1 -13 -9 -30 -13
-38 -10 -11 4 -12 2 -5 -12 11 -21 -8 -52 -32 -52 -8 0 -17 -7 -21 -15 -3 -9
0 -15 8 -15 9 0 12 -7 9 -20 -5 -19 -6 -19 -35 5 -37 32 -46 31 -54 -1 -4 -14
-21 -34 -38 -45 -26 -16 -30 -24 -28 -54 3 -26 0 -35 -12 -35 -9 0 -16 -8 -16
-20 0 -11 -5 -20 -11 -20 -6 0 -8 -9 -4 -21 6 -17 3 -20 -16 -17 -28 4 -99
-63 -99 -94 0 -17 -3 -18 -15 -8 -12 10 -16 9 -22 -6 -4 -11 -15 -25 -26 -33
-15 -11 -16 -15 -6 -22 24 -15 -46 -10 -76 5 -30 16 -59 11 -51 -9 3 -8 -6
-16 -21 -20 l-26 -6 22 -20 c11 -11 21 -21 21 -23 0 -1 -14 -13 -31 -25 -24
-18 -33 -20 -39 -10 -14 22 -54 18 -77 -8 -19 -20 -29 -23 -58 -17 -27 5 -36
2 -41 -9 -4 -12 -14 -15 -34 -11 -16 4 -40 -1 -58 -10 -34 -18 -87 -22 -77 -6
3 6 1 10 -4 10 -22 0 -26 2 -44 17 -15 14 -26 15 -78 5 -52 -9 -66 -9 -91 4
-23 12 -40 14 -67 7 -21 -6 -50 -6 -71 0 -19 5 -48 10 -63 11 -16 2 -32 9 -37
16 -6 10 -9 9 -13 -1 -4 -10 -8 -11 -14 -3 -4 7 -24 19 -43 27 -19 9 -29 16
-22 16 6 1 12 6 12 12 0 5 -4 8 -9 5 -5 -3 -14 1 -21 9 -7 9 -8 15 -2 15 14 0
24 29 17 51 -4 11 -27 29 -53 40 -51 24 -81 50 -99 90 -6 14 -27 33 -46 42
-19 9 -40 23 -47 32 -7 8 -17 15 -22 15 -19 0 -68 44 -68 61 0 15 -17 43 -75
125 -7 10 -6 20 2 32 7 9 20 32 28 51 12 27 13 36 3 42 -10 6 -10 15 -2 37 10
25 8 31 -8 41 -11 7 -23 10 -26 6 -4 -3 0 -10 8 -15 11 -7 12 -10 2 -10 -7 0
-10 -4 -7 -10 3 -6 -4 -10 -17 -10 -14 0 -27 8 -33 22 -13 29 -35 35 -35 9z
m1898 -3520 c3 -8 -1 -12 -9 -9 -7 2 -15 10 -17 17 -3 8 1 12 9 9 7 -2 15 -10
17 -17z m1045 -2316 c-3 -9 -8 -14 -10 -11 -3 3 -2 9 2 15 9 16 15 13 8 -4z"/>
<path d="M10640 12953 c0 -6 -10 -15 -22 -21 -21 -10 -20 -11 15 -11 39 -1 47
9 22 29 -8 7 -15 8 -15 3z"/>
<path d="M7375 11465 c22 -13 48 -31 57 -41 10 -10 20 -15 23 -12 9 8 -37 50
-71 64 -50 21 -54 16 -9 -11z"/>
<path d="M7497 11341 c22 -25 45 -41 59 -41 33 0 54 -10 54 -26 0 -17 14 -18
28 -1 20 23 -18 58 -68 62 -24 1 -49 9 -54 17 -6 9 -21 18 -33 22 -19 6 -17 1
14 -33z"/>
<path d="M10310 9673 c1 -18 19 -35 29 -28 9 5 9 10 0 21 -12 15 -29 19 -29 7z"/>
<path d="M10530 9640 c-8 -5 -17 -7 -21 -5 -3 3 -9 -13 -13 -35 -3 -22 -11
-40 -16 -40 -6 0 -10 -6 -10 -12 0 -7 -13 -13 -30 -14 -17 -1 -30 3 -30 7 0 5
-7 9 -15 9 -8 0 -15 -7 -15 -15 0 -9 -9 -15 -22 -15 -15 0 -19 -3 -11 -11 12
-12 5 -59 -10 -59 -6 0 -1 -10 11 -23 12 -13 22 -28 22 -34 0 -6 6 -15 13 -21
12 -10 15 -60 5 -78 -12 -19 5 -65 31 -83 l27 -19 13 30 c12 25 11 32 0 39
-12 7 -11 11 3 25 15 15 15 19 0 50 -15 32 -15 34 8 54 13 11 27 20 32 20 5 0
16 7 25 15 9 9 23 13 34 10 14 -5 19 -1 19 13 0 16 5 19 22 14 20 -5 21 -3 14
37 -5 33 -4 41 6 35 7 -4 5 2 -4 13 -23 25 -22 29 2 60 24 30 16 51 -10 28
-10 -9 -23 -14 -29 -11 -5 3 -11 0 -14 -6 -3 -8 -8 -5 -13 9 -7 16 -13 20 -24
13z"/>
<path d="M10297 9623 c-12 -3 -17 -11 -14 -21 2 -10 6 -24 8 -32 6 -22 22 -31
31 -17 4 6 5 22 1 34 -3 14 -1 23 6 23 6 0 11 5 11 10 0 10 -12 11 -43 3z"/>
<path d="M10280 9197 c0 -14 4 -16 18 -8 14 7 25 6 39 -4 22 -15 33 -11 33 14
0 12 -11 16 -45 16 -37 0 -45 -3 -45 -18z"/>
<path d="M10350 9146 c0 -8 5 -18 10 -21 6 -3 10 1 10 9 0 8 -4 18 -10 21 -5
3 -10 -1 -10 -9z"/>
<path d="M11125 8593 c-4 -16 -10 -22 -12 -15 -6 14 -39 16 -48 2 -3 -6 1 -13
9 -16 9 -3 16 -12 16 -19 0 -10 8 -11 27 -6 20 5 27 14 28 32 1 14 5 31 9 37
4 7 1 12 -7 12 -8 0 -18 -12 -22 -27z"/>
<path d="M11260 6661 c0 -5 5 -13 10 -16 6 -3 10 -2 10 4 0 5 -4 13 -10 16 -5
3 -10 2 -10 -4z"/>
<path d="M11124 6635 c11 -8 25 -15 30 -15 6 0 2 7 -8 15 -11 8 -25 15 -30 15
-6 0 -2 -7 8 -15z"/>
<path d="M11230 6631 c0 -25 6 -27 13 -6 4 8 2 17 -3 20 -6 4 -10 -3 -10 -14z"/>
<path d="M11150 6605 c0 -18 43 -75 56 -75 12 0 11 6 -5 28 -23 33 -51 58 -51
47z"/>
<path d="M11262 6588 c-6 -13 -13 -33 -17 -44 -5 -18 -2 -21 18 -17 34 7 51
37 35 63 -16 26 -22 25 -36 -2z"/>
<path d="M11443 6505 c4 -22 1 -35 -8 -38 -13 -5 -91 18 -110 32 -5 5 -19 10
-30 13 -15 4 -21 0 -21 -13 0 -11 3 -19 7 -19 4 0 17 -16 29 -35 17 -27 26
-34 43 -30 19 5 27 -5 61 -70 27 -54 36 -82 32 -100 -5 -21 -3 -25 17 -25 27
0 53 25 59 55 4 21 30 24 76 10 18 -6 21 -4 16 9 -3 9 -17 16 -30 16 -31 0
-40 23 -22 49 15 22 12 85 -3 75 -5 -3 -9 -1 -9 5 0 6 -13 26 -30 44 -16 19
-30 39 -30 45 0 5 -12 10 -26 10 -24 0 -26 -3 -21 -33z"/>
<path d="M11753 6240 c-8 -21 -8 -30 0 -33 6 -2 1 -13 -11 -25 -30 -30 -28
-36 13 -29 20 3 33 2 30 -3 -3 -4 -1 -20 5 -34 7 -20 16 -26 39 -26 16 0 33 5
36 10 3 6 15 10 26 10 10 0 19 3 19 8 -1 15 -46 49 -81 61 -31 10 -38 18 -43
46 -9 45 -20 50 -33 15z"/>
</g>
</svg>
