<?xml version="1.0" standalone="no"?>
<!DOCTYPE svg PUBLIC "-//W3C//DTD SVG 20010904//EN"
 "http://www.w3.org/TR/2001/REC-SVG-20010904/DTD/svg10.dtd">
<svg version="1.0" xmlns="http://www.w3.org/2000/svg"
 width="409.057707pt" height="407.513422pt" viewBox="0 0 409.057707 407.513422"
 preserveAspectRatio="xMidYMid meet">
<metadata>
Created by potrace 1.15, written by Peter Selinger 2001-2017
</metadata>
<g transform="translate(-833.540298,1169.000000) scale(0.100000,-0.100000)"
fill="#222222" stroke="none">
<path d="M9475 11664 c30 -32 33 -84 7 -107 -10 -10 -22 -14 -27 -10 -4 5 -5
-1 -1 -12 4 -15 -2 -25 -23 -39 -28 -19 -28 -19 -15 -69 7 -28 11 -54 8 -58
-2 -4 0 -10 6 -14 5 -3 10 -19 10 -35 0 -27 -1 -28 -37 -19 -49 11 -92 12 -75
1 9 -6 5 -15 -18 -32 -16 -13 -30 -31 -30 -41 0 -10 -4 -21 -10 -24 -5 -3 -10
-20 -10 -36 0 -17 -7 -37 -15 -45 -8 -9 -15 -24 -15 -35 0 -13 -7 -19 -24 -19
-31 0 -96 -27 -96 -41 0 -5 -4 -8 -9 -5 -4 3 -16 -3 -26 -14 -10 -11 -24 -20
-32 -20 -7 0 -13 -4 -13 -10 0 -5 -13 -7 -30 -3 -23 4 -30 2 -30 -10 0 -8 -4
-17 -9 -19 -4 -1 -11 -14 -15 -28 -3 -14 -3 -20 0 -13 3 7 11 10 19 7 7 -3 16
-1 20 5 3 6 10 11 14 11 9 0 35 -51 33 -62 -1 -5 3 -8 8 -8 6 0 8 11 6 25 -3
14 0 25 6 25 21 0 88 -23 88 -30 0 -15 -52 -42 -70 -37 -11 3 -21 -1 -24 -9
-4 -10 3 -14 23 -14 16 0 36 -3 44 -6 10 -3 18 5 25 25 8 21 18 31 32 31 11 0
20 6 19 13 -3 27 2 35 31 41 17 3 30 11 30 18 1 7 10 24 21 37 17 21 22 23 30
10 7 -9 12 -10 15 -3 3 7 21 10 49 6 42 -4 45 -3 45 18 0 22 3 23 60 17 37 -3
60 -1 60 5 0 6 7 8 15 5 8 -4 17 -2 20 4 4 5 11 7 16 3 14 -9 39 15 32 32 -3
7 -9 12 -13 9 -5 -3 -12 0 -16 6 -4 8 -3 9 4 5 8 -5 12 0 12 13 0 14 6 21 18
20 9 0 12 -3 5 -6 -16 -6 2 -39 35 -66 27 -23 28 -37 2 -37 -10 0 -30 -11 -44
-25 -14 -14 -35 -25 -46 -25 -28 0 -104 -76 -96 -95 5 -14 -9 -20 -40 -16 -18
2 -31 -21 -37 -67 -4 -32 -2 -45 9 -49 8 -3 14 -11 14 -19 0 -7 11 -21 24 -29
20 -13 29 -14 46 -5 13 7 19 17 16 26 -3 9 -1 12 4 9 6 -3 10 -13 10 -22 0 -9
11 -26 25 -39 25 -23 27 -36 16 -128 -1 -5 -19 -6 -41 -2 -33 5 -38 4 -34 -9
4 -9 1 -15 -8 -15 -7 0 -14 -9 -14 -21 0 -15 13 -26 47 -40 l46 -20 6 -62 c3
-34 8 -70 12 -79 5 -14 2 -18 -13 -18 -25 0 -38 -35 -21 -56 9 -12 7 -18 -11
-34 -19 -17 -20 -21 -7 -26 9 -3 21 -3 27 1 6 3 10 -3 10 -14 0 -37 24 -22 45
27 18 41 19 53 9 93 -6 25 -17 55 -23 67 -15 29 -14 32 13 32 28 0 37 20 31
68 -4 29 -2 32 10 22 12 -10 15 -9 15 4 0 19 4 20 32 5 13 -7 24 -7 30 -1 15
15 27 124 16 146 -9 17 -7 18 16 14 22 -5 26 -2 21 13 -5 13 -1 19 10 19 9 0
13 5 10 10 -3 6 0 10 8 10 10 0 17 16 22 46 6 39 11 47 39 59 20 8 38 26 45
43 10 23 17 28 37 24 23 -4 24 -2 24 52 0 42 4 58 16 63 27 10 37 53 18 74
-10 11 -23 19 -30 19 -7 0 -22 12 -34 27 -11 15 -34 35 -50 45 -17 10 -30 23
-30 29 0 5 -11 25 -25 43 -25 33 -32 52 -16 42 5 -3 11 3 14 14 4 15 14 20 36
20 24 0 31 4 31 19 0 10 9 21 19 24 11 3 22 17 26 35 4 18 15 34 26 37 10 4
19 14 19 24 0 10 7 24 15 31 18 15 20 51 3 68 -9 9 -14 8 -22 -3 -24 -33 -106
19 -141 89 -9 17 -19 20 -47 18 -27 -3 -39 2 -50 17 -11 15 -24 19 -60 18 -32
-1 -44 -6 -41 -14 6 -15 -13 -17 -22 -3 -11 18 -32 11 -39 -12 l-6 -23 -18 22
c-18 22 -89 73 -103 73 -4 0 3 -12 16 -26z m343 -209 c-3 -3 -9 2 -12 12 -6
14 -5 15 5 6 7 -7 10 -15 7 -18z m-228 -74 c15 -29 13 -51 -5 -44 -9 3 -15 13
-13 22 1 9 -1 22 -5 29 -5 6 -4 12 2 12 6 0 15 -9 21 -19z m125 9 c3 -5 2 -10
-4 -10 -5 0 -13 5 -16 10 -3 6 -2 10 4 10 5 0 13 -4 16 -10z m25 -335 c0 -8
-4 -15 -10 -15 -5 0 -10 7 -10 15 0 8 5 15 10 15 6 0 10 -7 10 -15z m-118
-635 c-3 -24 -17 -40 -38 -40 -9 0 -12 34 -5 68 1 2 11 2 24 0 17 -2 21 -9 19
-28z"/>
<path d="M8614 11025 c3 -8 2 -15 -2 -15 -4 0 -17 -15 -30 -34 -17 -26 -33
-35 -65 -41 -23 -4 -44 -8 -47 -7 -3 0 -11 -7 -19 -15 -12 -13 -11 -15 5 -10
10 4 38 8 60 11 l42 5 -12 -32 c-17 -48 -37 -65 -73 -62 -29 2 -33 -1 -33 -22
0 -32 40 -101 63 -109 9 -3 15 -10 12 -15 -4 -5 -1 -9 4 -9 6 0 11 -8 11 -18
0 -10 6 -24 12 -30 7 -7 11 -27 10 -45 -2 -24 5 -40 28 -64 35 -37 38 -65 10
-93 -26 -26 -42 -25 -58 1 -10 15 -16 18 -26 10 -7 -6 -16 -8 -19 -5 -3 4 -9
-5 -13 -20 -3 -14 -9 -26 -13 -26 -14 0 -10 -94 6 -123 11 -22 12 -32 4 -35
-21 -7 -11 -29 34 -74 41 -42 44 -47 38 -84 -3 -21 -11 -42 -17 -46 -6 -4 -8
-10 -4 -13 3 -4 2 -22 -4 -41 -7 -26 -6 -39 3 -50 8 -9 9 -18 3 -22 -5 -4 -9
-15 -9 -26 0 -11 -13 -26 -32 -36 -21 -11 -29 -20 -22 -27 14 -14 0 -43 -22
-43 -10 0 -19 -4 -19 -8 0 -20 14 -20 38 -2 13 11 31 20 38 20 8 0 16 11 20
25 5 21 9 23 26 14 25 -14 76 -2 112 26 24 19 33 21 53 12 19 -9 27 -7 44 11
11 12 24 22 29 22 6 0 10 9 10 20 0 15 7 20 29 20 33 0 82 36 107 79 14 24 48
45 79 48 15 2 37 75 25 87 -13 13 -13 63 0 71 8 5 7 11 -1 21 -20 24 -19 84 3
95 10 5 18 19 18 31 0 19 1 20 25 4 32 -21 55 -20 53 2 -3 40 2 52 25 52 14 0
18 3 10 8 -15 10 -10 45 7 50 7 3 19 -3 26 -12 7 -10 15 -13 18 -8 3 6 24 8
45 5 31 -4 46 -1 67 16 18 15 36 20 51 16 17 -4 26 1 37 23 12 23 12 32 3 41
-9 9 -9 14 2 20 8 5 12 18 8 30 -3 14 0 21 9 21 8 0 14 5 14 10 0 6 8 10 18
11 9 0 -2 7 -25 15 -37 14 -46 14 -75 1 -18 -8 -53 -14 -77 -13 -27 1 -45 -3
-48 -11 -3 -7 -9 -10 -14 -7 -5 3 -16 -2 -25 -11 -12 -12 -19 -13 -30 -4 -11
9 -14 8 -14 -5 0 -18 -15 -22 -25 -6 -4 6 -15 4 -29 -5 -12 -8 -26 -12 -29 -8
-4 3 -7 1 -7 -5 0 -21 -44 4 -50 29 -4 15 -14 25 -28 27 -12 2 -20 7 -17 12 3
5 -8 23 -25 41 -16 19 -30 39 -30 46 0 6 -8 16 -17 22 -16 9 -16 13 -4 32 10
17 10 24 2 27 -22 7 -11 24 13 18 30 -7 37 1 25 32 -7 19 -14 22 -31 16 -13
-3 -25 -11 -26 -16 -2 -5 -10 -4 -18 3 -8 6 -14 8 -14 4 0 -4 -7 -2 -15 5 -13
10 -15 9 -15 -10 0 -18 -4 -21 -24 -16 -20 5 -23 3 -19 -14 4 -14 -1 -21 -21
-26 -34 -8 -38 -4 -42 45 -2 22 -15 57 -29 77 -14 20 -25 48 -25 61 0 14 -4
21 -10 18 -5 -3 -10 1 -10 9 0 9 -7 16 -16 16 -10 0 -14 -6 -10 -15z m126
-361 c0 -14 -3 -14 -15 -4 -8 7 -15 14 -15 16 0 2 7 4 15 4 8 0 15 -7 15 -16z"/>
<path d="M9425 10980 c-11 -5 -35 -6 -53 -3 -37 6 -72 -17 -72 -49 0 -14 -8
-18 -37 -19 l-38 -1 40 -18 c22 -10 42 -15 45 -10 5 9 98 6 107 -4 14 -14 31
-4 36 22 3 15 8 34 12 42 9 24 -16 49 -40 40z"/>
<path d="M8507 10903 c-4 -3 -7 -11 -7 -17 0 -6 5 -5 12 2 6 6 9 14 7 17 -3 3
-9 2 -12 -2z"/>
<path d="M8953 10833 c-27 -19 -30 -33 -5 -33 9 0 22 11 29 25 13 29 7 30 -24
8z"/>
<path d="M8408 10343 c-20 -5 -23 -18 -8 -28 12 -7 40 12 40 26 0 9 -4 10 -32
2z"/>
<path d="M9644 10114 c1 -22 -33 -31 -45 -12 -10 14 -11 -8 -10 -134 0 -43 -4
-78 -9 -78 -19 0 -80 -71 -80 -94 0 -13 -7 -27 -16 -30 -10 -4 -14 -14 -12
-24 4 -14 -5 -22 -43 -36 -44 -15 -49 -20 -49 -47 0 -21 -9 -38 -30 -55 -24
-21 -28 -29 -20 -45 6 -10 7 -19 3 -19 -4 0 3 -7 15 -16 12 -8 22 -24 22 -34
0 -10 14 -29 31 -43 22 -17 32 -34 36 -65 3 -23 10 -42 15 -42 5 0 4 -9 -2
-19 -7 -13 -7 -22 0 -26 18 -11 11 -38 -9 -32 -17 4 -18 -1 -13 -66 3 -50 10
-75 23 -88 23 -23 26 -54 4 -45 -9 3 -19 -3 -26 -16 -9 -16 -9 -23 -1 -26 7
-2 8 -10 3 -20 -31 -61 -55 -123 -53 -138 3 -15 -47 -36 -69 -29 -14 5 -19 1
-19 -14 0 -12 4 -21 8 -21 5 0 20 -16 35 -36 21 -31 24 -40 14 -58 -16 -29
-29 -37 -49 -32 -10 2 -21 0 -24 -6 -9 -14 25 -48 42 -41 8 3 30 -5 50 -16 32
-19 38 -20 53 -7 11 10 21 12 33 5 18 -10 48 -2 48 12 0 5 13 6 29 3 27 -6 29
-4 24 15 -3 12 -14 26 -24 32 -11 5 -19 19 -19 29 0 24 13 26 30 5 7 -8 18
-15 25 -15 6 0 20 -9 30 -20 10 -11 26 -20 35 -20 10 0 36 -6 58 -14 37 -13
40 -13 45 4 3 13 11 17 26 13 12 -3 21 -1 21 6 0 16 85 12 126 -5 18 -8 48
-39 74 -76 48 -69 117 -138 138 -138 7 0 18 -13 23 -30 12 -34 69 -66 96 -55
41 17 151 1 216 -31 16 -8 36 -14 45 -14 9 0 32 -9 49 -20 18 -11 39 -17 47
-14 7 3 30 -6 51 -21 21 -14 40 -23 43 -20 3 2 18 -16 34 -40 16 -24 38 -47
48 -50 10 -3 20 -16 22 -28 2 -18 10 -22 41 -24 27 -1 43 -8 54 -22 11 -17 18
-19 28 -11 7 6 37 14 66 17 44 5 51 4 46 -9 -3 -9 0 -27 8 -41 9 -18 10 -28 2
-36 -7 -7 -6 -15 3 -26 11 -14 14 -13 25 2 7 10 11 22 7 27 -3 6 3 6 14 2 10
-4 41 -15 69 -23 27 -8 61 -24 75 -35 22 -17 25 -18 28 -4 5 24 19 20 43 -13
13 -18 27 -27 39 -24 10 3 21 0 24 -6 11 -17 37 -13 52 7 10 12 16 14 21 5 5
-6 17 -11 27 -10 10 1 21 -4 23 -10 3 -7 -3 -13 -14 -14 -15 0 -15 -2 4 -11
13 -6 28 -23 35 -39 17 -37 45 -44 52 -13 8 30 25 30 56 2 l23 -22 -5 22 c-5
19 -4 20 14 11 11 -6 26 -8 34 -5 13 5 16 0 13 -21 0 -3 6 -10 15 -15 18 -10
61 13 49 26 -4 4 6 5 22 3 41 -5 116 44 107 71 -2 7 0 12 5 12 8 0 47 -57 48
-70 1 -15 55 -60 72 -60 21 0 53 -29 53 -48 0 -6 6 -15 14 -19 8 -4 15 -17 17
-28 4 -17 12 -19 61 -18 44 1 60 -3 74 -18 12 -13 24 -17 43 -12 43 11 72 53
34 49 -10 -1 -19 10 -25 32 -5 17 -12 32 -17 32 -11 0 -20 59 -11 65 14 8 -38
100 -74 132 -30 26 -36 38 -36 70 1 42 21 78 36 63 14 -14 55 17 48 35 -4 8
-1 15 5 15 6 0 8 7 4 15 -3 9 2 24 11 34 16 17 16 67 0 92 -3 5 2 16 11 26 37
41 62 90 54 105 -6 11 -2 18 16 26 22 10 23 15 15 37 -14 38 -13 45 10 45 11
0 20 4 20 9 0 14 -36 23 -59 16 -10 -3 -22 -18 -26 -32 -3 -15 -24 -43 -46
-62 -48 -44 -56 -91 -14 -83 19 3 25 0 25 -13 0 -11 -7 -16 -22 -14 -26 2 -73
-15 -83 -30 -3 -6 -17 -11 -31 -11 -13 0 -24 -5 -24 -12 0 -6 -7 -4 -18 5 -10
10 -22 14 -25 10 -4 -3 -16 2 -28 13 -21 19 -58 20 -90 3 -21 -11 -52 21 -43
45 4 10 1 17 -7 17 -8 1 -21 3 -29 4 -8 0 -37 11 -63 23 -59 27 -57 26 -57 4
0 -11 -15 -27 -36 -38 -20 -10 -40 -29 -45 -41 -5 -13 -15 -23 -24 -23 -8 0
-15 -4 -15 -10 0 -5 -9 -10 -20 -10 -13 0 -20 -7 -20 -20 0 -32 -33 -57 -72
-55 -20 1 -40 5 -45 8 -14 9 -51 -28 -59 -57 -6 -25 -26 -27 -76 -7 -15 6 -27
7 -27 3 4 -21 -3 -30 -20 -25 -10 3 -22 0 -25 -6 -4 -6 -20 -11 -35 -11 -15 0
-36 -9 -46 -20 -10 -11 -25 -20 -33 -20 -10 0 -13 -7 -9 -21 4 -15 2 -19 -9
-15 -8 3 -14 0 -14 -7 -1 -7 -6 -5 -14 6 -7 9 -23 17 -35 17 -20 0 -22 4 -16
31 9 41 -11 79 -41 79 -34 0 -74 42 -74 77 0 17 -6 35 -13 41 -16 13 -21 62
-6 62 6 0 8 9 4 21 -4 13 -1 27 10 39 15 17 15 20 0 50 -14 27 -15 34 -3 41 7
5 13 20 13 35 1 22 -1 24 -9 11 -9 -14 -14 -13 -50 5 -61 31 -96 60 -96 79 0
28 -11 49 -26 49 -15 0 -39 38 -30 48 4 3 -5 18 -19 32 -14 15 -25 31 -24 36
4 23 -2 34 -19 34 -33 0 -61 42 -68 101 -5 45 -11 57 -31 66 -19 9 -29 9 -45
0 -16 -10 -22 -9 -32 6 -12 15 -15 15 -26 2 -7 -8 -19 -15 -27 -15 -7 0 -30
-8 -51 -18 -37 -18 -72 -19 -72 -1 0 5 -6 9 -12 9 -23 1 -81 58 -75 73 7 17
-32 57 -56 57 -9 0 -19 5 -22 10 -4 6 -15 8 -25 5 -11 -3 -33 1 -51 10 -25 14
-36 14 -60 5 -22 -10 -34 -9 -57 3 -28 14 -31 13 -40 -8 -8 -17 -18 -21 -44
-20 -38 2 -104 37 -101 54 2 6 -6 11 -17 11 -12 0 -20 7 -20 16 0 9 -14 32
-30 51 -26 30 -29 39 -24 74 6 35 3 44 -22 70 -17 17 -22 29 -14 29 8 0 3 11
-14 29 -23 24 -25 29 -11 34 11 5 14 14 9 32 -4 15 -1 32 6 40 7 8 10 24 7 35
-3 13 0 20 9 20 8 0 14 2 14 4 0 16 -27 75 -42 92 -19 21 -19 21 2 27 11 3 25
19 31 36 7 19 19 31 32 33 17 2 22 11 23 36 1 18 7 46 14 62 13 30 11 33 -48
104 -9 12 -3 66 7 66 14 0 -1 59 -19 75 -17 15 -18 15 -16 -1z"/>
<path d="M8357 9693 c-23 -12 -26 -17 -16 -29 18 -22 36 -17 42 14 3 15 5 28
4 29 -1 1 -15 -5 -30 -14z"/>
<path d="M9918 9143 c7 -3 16 -2 19 1 4 3 -2 6 -13 5 -11 0 -14 -3 -6 -6z"/>
<path d="M12337 8780 c3 -12 -3 -19 -21 -22 -13 -3 -30 -2 -36 2 -17 11 -61
-1 -67 -17 -3 -8 0 -19 8 -23 11 -7 11 -13 0 -34 -11 -20 -12 -28 -1 -41 7 -8
16 -12 21 -10 11 8 49 -17 49 -32 0 -6 12 -13 27 -15 21 -2 29 -10 35 -35 9
-36 28 -45 28 -13 0 11 7 20 15 20 8 0 15 8 15 18 0 10 5 23 11 29 15 15 -6
53 -29 53 -10 0 -25 9 -34 19 -15 18 -15 19 3 24 14 4 19 14 19 39 0 38 -8 53
-31 54 -11 1 -15 -5 -12 -16z"/>
<path d="M12175 8721 c-6 -11 9 -23 19 -14 9 9 7 23 -3 23 -6 0 -12 -4 -16 -9z"/>
<path d="M12241 8034 c0 -11 3 -14 6 -6 3 7 2 16 -1 19 -3 4 -6 -2 -5 -13z"/>
</g>
</svg>
