<svg version="1" xmlns="http://www.w3.org/2000/svg" width="900.72" height="1253.892" viewBox="0 0 675.54 940.419"><g fill="#222"><path d="M67.947 1.02c0 .8 1.2 1.9 2.6 2.4 3.3 1.3 3.4 1.3 3.4-.4 0-.8-1.3-1.9-3-2.5-2.4-.8-3-.7-3 .5zM73.247 12.72c-.2.4-.7 1.9-.9 3.4-.7 3.5-3.5 8.3-5 8.3-1.8 0-.4 5.2 2 7.2l2.1 1.8-2.2.6c-1.9.5-2 .9-1.1 3 .6 1.3 1.9 2.4 2.8 2.4.9 0 2.3 1.1 3 2.5.7 1.4 1.9 2.5 2.6 2.5 1.3 0 5.5 7 6 9.8.1.7.9 2.4 1.8 3.7 2.1 3.2 2 3.8-.3 2.6-1.7-1-1.8-.7-1 3.6.5 2.6 1.6 5.4 2.4 6.3 2.1 2.3 3.2 11 1.5 11-.8 0-.4 1 1 2.5 1.7 1.8 2.4 3.7 2.4 6.8.1 3.4.5 4.2 2.1 4.5 1.1.2 2.8 1.3 3.8 2.3 1 1 3.1 1.9 4.7 1.9 1.5 0 3.5.3 4.4.6 1.1.4 1.6.1 1.6-1 0-.9.4-1.6 1-1.6.5 0 1.3-1.8 1.6-3.9l.6-3.9 3.9 2c2.2 1.1 3.9 2.4 3.9 3 0 .5-.5.6-1.2.2-.8-.5-.9.2-.5 2.6.4 1.8.7 4.1.7 5.1 0 1.6.4 1.7 2.5.9 1.4-.5 2.5-.6 2.5-.2 0 .4 1.3 2.4 3 4.4 2.7 3.3 3.2 3.5 5.5 2.5 1.9-.9 2.5-1.8 2.2-3.5-.2-1.2-.1-2.5.3-2.7 1-.6 2.3 1.2 4 5.4 1.2 2.9 1.1 3.4-.2 4.2-.8.5-2.1 2.9-2.8 5.4-1 3.7-1.5 4.3-2.7 3.4-.8-.7-1-1.5-.5-1.8 1.8-1.2 3.1-4.7 2.1-6.2-.7-1.2-.9-1.2-.9.1s-.1 1.3-1 0c-.5-.8-1-1-1-.5 0 .6.5 1.6 1.2 2.3.9.9.8 1.2-.5 1.2-1 0-2-.6-2.3-1.4-.9-2.3-6.1-4.1-7.9-2.6-.8.6-1.9.9-2.5.5-.5-.3-1.3.1-1.6.9-.9 2.2-6.2 2-10.1-.4-3.2-1.9-3.2-1.9-3.8.1-.6 1.6-1.3 1.9-4.6 1.5-2.1-.2-4.1 0-4.5.5-.3.5-1.2.9-2.1.9-.9 0-3.6 1.6-6 3.6-4.1 3.4-4.5 3.5-7.9 2.4-3.2-1.1-3.8-1-5.8.9-1.2 1.2-2.8 2.1-3.4 2.1-.7 0-1.5.7-1.8 1.5-.4.8-1.2 1.5-1.8 1.5-.8 0-1.2 1.6-1.2 4.2.1 3.4-.3 4.3-1.8 4.6-1 .2-1.6 0-1.3-.5.3-.5.2-1.5-.2-2.2-.7-1-1.3-1-3-.2-1.6.9-2.6.9-4.2 0-1.7-.8-2-.8-1.4.1.4.7.1 1.6-.6 2.1-1.1.6-1.1 1.1-.1 2.1 1.5 1.5 1.5 3.3 0 5-3.1 3.2-4.1 6.6-2.9 9.6 1 2.5 2.1 3.1 6.3 4 3.9.7 5.1.7 5.5-.4.2-.7 1.1-1 1.9-.7.8.3 1.4.1 1.4-.5 0-.5 1.5-1.2 3.3-1.5 9.1-1.5 10.1-2.1 11.7-6.7 1.4-3.9 4-6.7 4-4.1 0 .5 1.3.3 2.9-.7 1.6-.9 2.7-2.2 2.4-2.9-.3-.7-.1-1.3.3-1.3 1.4.1 4.4 2.6 4.4 3.7 0 .5 1.1 2 2.5 3.3 1.4 1.3 2.5 2.8 2.5 3.4 0 .5.9 2 2.1 3.2 1.6 1.7 2.8 2.1 6.4 1.7 3.6-.5 4.5-.2 5.4 1.5.7 1.3 1.8 1.8 2.9 1.5 2.2-.5 4.7 2.1 3.9 4.1-1.2 3 1.9 4 8.1 2.7 3.8-.8 6.5-.9 8.2-.3 1.4.5 3.5.6 4.8.1 1.6-.6 3.4-.3 6.2 1.2 2.2 1.2 4.7 1.8 5.6 1.5 1.5-.6 1.5-.8-.1-2.6-1.8-2-1.7-2 1.3-2 2.2 0 3.2-.5 3.2-1.5 0-.8.6-1.5 1.4-1.5.8 0 1.6-1.3 1.8-2.9.3-2.3-.1-3.2-1.8-4.2-2.5-1.3-3.8-4.5-2.2-5.5.5-.3.7-1.3.4-2.1-.4-1.1-.2-1.3.9-.9.8.3 1.5.1 1.5-.3 0-.5.9-.7 1.9-.4 1.7.4 2.1-.2 2.7-4.4.4-2.6.7-5.2.5-5.7-.1-.5.1-2.7.4-4.9.6-3.2 1-3.8 2.6-3.4 1 .3 2 0 2.1-.6.4-3.4.2-4.3-1.2-5.4-1-.9-1.1-1.2-.2-1.3.6 0 1.2-.7 1.2-1.6 0-1 .6-1.3 1.8-1 2.5.8 3-7.8.5-9.3-1.7-1-1.7-1 0-1.1 1 0 2-.8 2.4-1.8.3-.9 1.4-2.6 2.3-3.7 2.3-2.6 3.5-6.5 2.1-6.5-.6 0-1.1-.5-1.1-1.1 0-.6.8-.9 1.8-.7 1.2.3 2.2-.3 2.8-1.7.8-1.7.5-2.9-1.3-5.9-1.3-2-2.8-3.4-3.3-3.1-.6.4-1 .2-1-.2 0-1.8 4-3.4 6-2.3 2.4 1.3 3.3 1.3 2.4-.1-.3-.6-.1-1.5.6-1.9.8-.5.4-1.5-1.4-3.5-2.8-3-3.3-5.1-1.4-5.7.6-.2-1-2.1-3.7-4.2-4.4-3.3-5.4-3.6-8.8-3.1-2.9.5-4.1.3-5-.9-1.4-1.9-8.7-5.7-8.7-4.6 0 2.3-13 1.4-13-1 0-.3-.4-1.1-.8-1.8-.7-1-1.6-1-4.8.2-3.7 1.3-4 1.2-5.7-1-2.3-3.1-7.6-3.3-8.4-.5-.7 2.7-4.3 3.4-6.6 1.3-1.1-.9-2.7-1.6-3.8-1.4-1.2.2-2.3-.7-3.3-2.7-2-3.7-2-4.1-.1-4.1 1.1 0 1.5-1.1 1.5-3.8 0-2.9-.8-4.7-3.3-7.5-3.2-3.6-3.3-3.6-4.5-1.6-1.1 1.7-2 2-4.8 1.6-2.8-.5-3.4-.3-3.4 1.3 0 1.3-.5 1.7-2 1.3-1.1-.3-2-1.2-2-1.9 0-1-1-1.3-3.2-1.2-2.6.2-3.3-.1-3.5-1.7-.1-1.1-.5-3.2-.9-4.6-.4-1.7 0-3.1 1-4.2 2-1.9 2-2.7.2-2.7-.9 0-1.6-1.2-1.8-2.8-.3-2.3-.7-2.7-3.6-2.7-1.9 0-3.6.3-3.9.8zm53.2 110.7c.3.5-.1 1-.9 1s-1.8-.5-2.1-1c-.3-.6.1-1 .9-1s1.8.4 2.1 1zm-69.5 24.1c0 1.1-.4 1.7-1 1.4-.5-.3-1-1.3-1-2.1s.5-1.4 1-1.4c.6 0 1 .9 1 2.1z"/><path d="M57.947 30.12c.1 2.3 2 4.7 4.4 5.6 1.5.6 1.7.4 1.3-1.5-.4-1.4 0-2.9 1-4 1.5-1.7 1.4-1.8-2.5-1.8-3.3 0-4.2.4-4.2 1.7zM57.447 35.42c.3.5.8 1 1.1 1 .2 0 .4-.5.4-1 0-.6-.5-1-1.1-1-.5 0-.7.4-.4 1zM198.747 42.02c-1.7 4-4.3 6.4-8.1 7.5-1.8.5-4.6 2.2-6.4 3.7-3.1 2.7-3.1 2.7-1.3 5 1.5 1.8 2.1 2 3.2.9.7-.8 1.8-1.2 2.4-1 .6.2 1.7-.3 2.4-1.2 1.2-1.4 1.5-1.4 3.3.2 1.9 1.8 1.9 1.7 1.5-2-.4-3.6-.3-3.7 2.9-3.7h3.3l-.6-5.8c-.4-3.1-.8-5.9-1-6.1-.2-.2-.9.9-1.6 2.5zM176.947 58.92c-.7.9-1.1 1.7-.9 2 .3.2 1-.5 1.7-1.5 1.4-2.4 1-2.6-.8-.5zM13.047 100.32c-.9.6-1.2 2.1-.9 4.4.3 2.5 0 3.3-.9 3-.7-.3-1.3-.8-1.3-1.2 0-.8-4.5-3.1-6-3.1-.4 0-.7.8-.5 1.7.2 1 .4 2.3.4 3 .1.6 1.5 1.6 3.1 2.2 3.7 1.2 3.9 2.8.5 3.7-1.4.3-2.5 1-2.5 1.4 0 .4-1.1 1.1-2.5 1.4-3.3.8-3.3 3.9 0 6.3 1.3 1 2.6 2.8 2.8 4 .4 3.1 2.6 5.3 5.3 5.3 1.3 0 2.4.4 2.4.8 0 .5 2 2.3 4.4 4 5.6 4.1 9.6 11.4 7.8 14.3-1.1 1.7-.9 1.9 1.4 1.9 1.7 0 2.8.6 3.1 2 .3 1.1 1.2 2 2 2s1.1-.5.8-1.1c-.5-.7.4-.8 2.8-.4 2 .4 3.7.2 4.1-.3.3-.6 1.5-.8 2.6-.5 1.5.4 2 0 2-1.5 0-1.2.4-2.3 1-2.7.5-.3.7-1.2.4-1.9-.3-.8-.1-1.7.5-2.1 1.8-1 1.3-2.5-1.2-3.4-1.2-.5-2.3-1.8-2.4-2.9-.1-1.4.3-1.9 1.3-1.5 1 .3 1.4-.2 1.4-1.8 0-1.8.3-2 1.2-1.1 1.8 1.8 2.5 1.5 3.3-1.6 1.7-6.1 1.5-9.1-.8-10.9-1.4-1.1-2.1-2.6-1.9-4.1.2-1.3 0-3.1-.4-4-.4-.9-.8-2.3-.9-2.9 0-1.3-1-1.4-3.3-.6-.7.3-1.9 0-2.7-.7-1.2-1-1.5-.9-1.5.4 0 3.5-2.8 7.1-5.6 7.4-1.5.1-3.2.6-3.8 1.2-.8.6-2.2.3-4.1-1-1.6-1-3.3-1.6-3.8-1.3-.5.3-.6-.4-.2-1.6.5-1.7 0-2.4-2.9-3.8-3.3-1.5-5.1-5.3-2.6-5.3.6 0 1-1.8 1-4 0-4.1-.5-4.6-2.9-3.1zM171.047 119.02c0 1.1.3 1.4.6.6.3-.7.2-1.6-.1-1.9-.3-.4-.6.2-.5 1.3zM211.947 164.22c-1.4.2-3.2 1-4.1 1.9-1.2 1-2.8 1.2-5.1.8-3.2-.6-3.6-.4-4.7 2.4-1.7 3.9-5.5 6.5-7.9 5.2-2-1-11-.3-11.8 1-.3.5-1.6.9-2.9.9-1.3 0-3.5.5-4.8 1.1-3.2 1.5-8.1-.7-8.5-3.8-.2-1.7-1-2.1-3.1-2.1-1.5.1-4.2-.6-5.9-1.4-2.9-1.5-3.2-1.5-4.8.3-.9 1-1.3 1.9-.9 1.9.5 0 .4.5-.3 1.2s-1.2 1.9-1.2 2.8c0 .9-.8 2.5-1.8 3.6-1.9 2.1-1.8 6.6.1 5.8 1.4-.5 5.7 3.1 5.7 4.6 0 .6 1.2 1 2.6 1 1.4 0 2.3.4 2 .9-.9 1.4 2.5 2.3 3.9 1.1.9-.8 1.5-.8 2 0 .3.5 1.6 1 2.8 1 1.2 0 3.1.7 4.1 1.5 1.7 1.3 2.2 1.3 3.7 0 .9-.9 2-1.5 2.5-1.4 1.6.4 8.4-3.5 8.4-4.8 0-2.1 1.1-1.5 5 2.7 2.7 3 4.1 3.8 5.8 3.3 1.2-.3 1.9-.9 1.6-1.4-1.1-1.8 1.1-.8 3.8 1.8 1.7 1.6 3.9 2.7 6 2.7 3.7.2 7.1 2.2 8.1 4.9.9 2.5 3.3 3.1 6.5 1.8 4.3-1.8 6.8-9.1 4-11.9-.9-.9-.7-1.2 1.3-1.2 3 0 7.9 4.8 6 5.9-1.8 1.1-1.8 1.4-.1 3.3 1.9 2.1 3.3 1.2 2.4-1.5-.6-2-.5-2 1-.8 2 1.7 3.1.8 2.1-1.6-.5-1-.7-2.3-.6-3 .1-.6-.3-1.4-.9-1.8-.5-.3-1-1.4-1-2.4 0-2.5-4.2-5.1-8.2-5.1-1.8 0-4-.5-4.8-1-1.2-.8-1.1-1 .6-1 1.2 0 2.5-.8 2.9-1.8 1.1-2.5 1.3-8.5.2-9.9-.5-.7-.6-1.7-.2-2.2.9-1.6-1.3-5.1-2.8-4.5-.8.3-2.4.1-3.8-.4-1.3-.4-3.5-.6-4.9-.4zM237.947 197.42c0 .5.7.7 1.5.4.8-.4 1.5-.8 1.5-1 0-.2-.7-.4-1.5-.4s-1.5.4-1.5 1zM275.547 198.02c-.8 2.1-.8 2.4.5 2.4.5 0 .7-.5.4-1-.3-.6-.1-1 .4-1 .6 0 1.1-.5 1.1-1 0-1.6-1.7-1.2-2.4.6zM269.447 200.02c-.9.9-2.5 1.4-3.5 1.1-1.3-.3-2 0-2 .9 0 .7-.9 1.8-1.9 2.4-1.3.6-1.7 1.7-1.4 3 .3 1.1.1 2.6-.5 3.3-.6.7-1 1.9-.8 2.7.3 2.4 3 6 4.3 6 1.6 0 1.6-.6.3-3.1-.9-1.5-.7-1.9.7-1.9 1.5 0 1.5-.2-.3-1.6-1.6-1.3-1.6-1.5-.2-1 2 .6 3.4-1.1 2.9-3.7-.1-1.2.5-2 1.8-2.4 1.2-.3 2.1-1.3 2.1-2.3 0-1 .7-2 1.5-2.4.8-.3 1.5-1 1.5-1.6 0-1.5-2.7-1.2-4.5.6z"/><path d="M239.947 200.42c0 .5-.7 1-1.5 1-.9 0-1.2.6-.8 1.7.4 1.1.3 1.4-.6.9-.6-.4-2.2-.1-3.5.7-1.3.9-3.4 1.3-5 1-2.5-.5-2.7-.3-2.2 1.5.4 1.1.2 2.3-.4 2.7-.5.3-1 1.7-1 3.1 0 1.3-.5 2.4-1.1 2.4-.6 0-.9.6-.6 1.4.7 1.7-1.1 8.9-2.5 9.7-.5.3-.9 3.3-.9 6.7-.1 5.2.3 6.5 2.5 8.9 1.4 1.5 2.6 3.1 2.6 3.5 0 .4 1.5.8 3.2 1 3.1.3 3.3.6 4 5 .3 2.6 1.5 6 2.6 7.5 1.7 2.4 1.8 3.1.7 4.6-.7.9-1.9 1.7-2.8 1.7-.9 0-1.4.6-1.1 1.3.7 1.9-5.1 10.2-8.2 11.6-1.6.7-2.4 1.7-2.1 2.5.4.9-.8 2.4-2.9 3.8-3.8 2.6-3.8 2.6-2.4 6.4.7 1.9.7 3-.1 4-.6.8-.9 2.3-.6 3.4.3 1-.1 2.4-.9 3.1-.8.6-1.4 2.6-1.4 4.5 0 2.2-.6 3.7-1.9 4.3-2.2 1.2-4.1 6-4.1 10.3 0 1.6 1.2 4.9 2.6 7.4 1.5 2.5 2.4 5.3 2.1 6.4-.3 1.1-.1 2.3.4 2.6.5.3.8.2.7-.3-.1-.4.3-1.8 1-3 1.2-2.2 1.4-2.2 3.6-.7 1.7 1 2.6 1.2 3.1.4.8-1.2-2-6-3.5-6-1.6 0 0-5.3 2.1-7.2 1-.9 1.9-2.1 1.9-2.7 0-.6 1.8-1.4 4-1.7 2.6-.4 4.1-1.3 4.5-2.5.4-1.1 1.2-1.9 1.8-1.8 3.9.6 5.9-3.1 3.7-7.1-.7-1.3-.6-1.9.6-2.4.8-.3 1.2-.2.9.3-.3.5-.1 1.2.4 1.5.5.4 1.2.2 1.5-.3.3-.5 1.4-.7 2.5-.4 1.3.3 2-.2 2.5-1.9.6-2.3.6-2.3 2.2-.3.8 1.1 2.1 1.9 2.7 1.8 1.6-.4 2 3.7.5 5.4-.7.9-.6 1.4.7 1.9 1 .4 2.1.1 2.6-.7.7-1.1 1.3-1 3.1.8 1.4 1.5 1.8 2.3.9 2.3-1 0-1 .6.3 2.5 1.7 2.6 1.3 7.5-.6 7.5-.6 0-.5.6.2 1.5.7.8 2.1 1.5 3.1 1.5 2.3 0 2.4.9.3 2.5-1.2.9-1.4 1.6-.7 3.1.6 1 1.3 3.4 1.6 5.1.6 3 .3 3.5-3.3 5.5-2.8 1.6-4 3-4 4.5 0 1.3-.5 2.3-1.1 2.3-.7 0-.9 1.2-.5 3.6.5 2.2.3 4.1-.4 4.9-.7.8-1.3 2.8-1.4 4.5-.1 1.8-1.1 3.7-2.4 4.6-1.2.8-2.2 2.3-2.2 3.2 0 1-.6 2.6-1.4 3.7-.7 1.1-1.7 3.9-2.1 6.2-.4 2.4-1.1 4.3-1.6 4.3s-.9.9-.9 1.9c0 1-2 3.6-4.5 5.7-4.2 3.6-4.5 4.1-3.6 7 .9 3.2-.5 6.4-2.8 6.4-.7 0-1.1.8-.9 1.7.1 1-.1 2.4-.6 3.1-1.6 2.7-2.3 6.9-1.4 8.6.8 1.4.6 1.7-.9 1.5-1-.2-3.5 0-5.6.5-2.7.5-4.3.3-5.4-.6-1.5-1.2-1.5-1-.8 1.7.4 1.6.8 3.9.9 4.9.1 2.2-5.1 8.6-7.1 8.6-.7 0-2 1.2-3 2.6-.9 1.4-2.7 3-3.9 3.4-1.2.5-2.4 1.9-2.6 3.2-.2 1.8-1 2.3-4.3 2.4-2.2.1-4.8-.3-5.8-.8-1.3-.7-3-.3-6.1 1.2-2.4 1.1-5 1.8-5.8 1.5-1.8-.7-8.1 2.6-7.9 4 0 .6 2.9 1.1 6.4 1.1 9.3.2 14.5 2 16.5 5.5.9 1.6 2.4 2.9 3.3 2.9 1.8 0 4.9 3.1 4.9 4.8 0 1.6 5.1 4.1 7 3.4 2.1-.7 3-2.4 2.4-4.5-.4-1.3 0-2 1.5-2.4 2.1-.5 3-2.3 1.1-2.3-.5 0-1-.5-1-1.1 0-.5.4-.8.9-.5.5.3 1.5-1.3 2.3-3.6 1-3.2 1.9-4.4 3.6-4.6 1.6-.3 2.1-.9 1.8-2-1.7-6.5-1.6-9.1.4-10.2 1.1-.6 1.8-1.5 1.5-2.1-.9-1.3.6-1.1 3.9.6 2.2 1.2 3.1 1.3 3.7.4.4-.6 1.2-.8 1.9-.4.9.5 1.1-.3 1-3.1-.5-8-.2-9.2 2.5-9.2 1.8 0 3 .9 4 2.9 1.3 2.4 1.9 2.7 3.8 2 1.5-.6 2.9-.4 4.2.5 2.8 2.1 6.6 1.8 7.2-.6.3-1.1 1.2-2 1.9-2 2.2 0 9.4-5.1 9.4-6.6 0-.8.7-1.4 1.6-1.4 1 0 1.4-.8 1.3-2.3-.5-3.6 2.9-7.7 6.2-7.7 2.8 0 2.9-.2 2.6-4.1-.3-3.7-.1-4.1 2.6-4.6 3-.6 3.5-1.3 3.9-5.3.2-1.5 1.6-3.4 3.4-4.7 1.7-1.2 3.4-2.9 3.7-3.8.4-.8 1.3-1.5 2.1-1.5.7 0 1.6-.7 2-1.5.3-.8 1.6-1.5 3-1.5 3.3 0 3.8-1.1 2.1-4.3-.8-1.5-1-2.7-.6-2.7 1.2 0 .8-3.3-.5-4.5-1.5-1.2-2.4-7.4-1.2-8.1.4-.3.4-1.4-.2-2.4-.5-1-.8-2.6-.5-3.4 1.6-5.2 1.4-5.1 4.3-2.3 1.6 1.5 3.3 2.7 3.8 2.7 1.9 0 .3-7.6-1.9-9.1-.5-.4-1-3.1-1-6 0-3.2-.5-5.9-1.3-6.7-.8-.7-1.4-2.1-1.4-3 0-1.2-.3-1.3-1.2-.4-1.8 1.8-3.8 1.5-5.8-1-1.6-2.1-1.7-2.4-.1-4.5.9-1.2 2.1-2.3 2.7-2.3 1.6 0-1-7.5-2.6-7.5-2.3 0-3.9-3.5-2.9-6.2.6-1.6.6-3.8-.1-6.3-.6-2.1-.8-4.5-.4-5.3.3-.9-.6-3.3-2-5.4-1.4-2.1-2.6-4.3-2.6-4.9 0-.6-1.1-2.1-2.5-3.4-1.4-1.3-2.5-3.4-2.5-4.6 0-3.1-3.9-4.3-5.7-1.8-.8 1.1-1.2 2.7-.9 3.7.6 2.5-1.4.9-2.5-1.9-.7-2.1-1.2-2.3-2.8-1.5-1.4.8-2 .7-2.5-.4-.3-.8-1.6-1.5-2.9-1.5-1.9 0-2.7-.8-3.7-4.1-1.2-3.6-1.2-4.4.5-7.4 1.3-2.6 1.6-4.4 1-7.2-1.7-9-1.7-14.4 0-16.3 1.5-1.7 1.5-2-.1-5.2-1.1-2-1.8-5.5-1.9-8.8 0-6 1.2-8.5 3.3-6.8.8.7 1.2.7 1.2 0 0-.5-.6-1.5-1.4-2.1-1.6-1.3-1.7-5.1-.2-5.1 1.1 0-.2-1.4-1.5-1.6-.5-.1-1.3-.2-1.8-.3-.4 0-1.6-2.1-2.5-4.6-1.4-3.5-2.3-4.5-4-4.5-1.3 0-3.1-.9-4.1-2-1.9-2.1-4.5-2.7-4.5-1zm7.5 79c-.3.5-1.1 1-1.6 1-.6 0-.7-.5-.4-1 .3-.6 1.1-1 1.6-1 .6 0 .7.4.4 1zm7.2 12.2c-.8 3.9-1.2 4.6-2.3 3.7-.8-.6-1.1-1.6-.7-2.2.3-.5-.1-1.5-.9-2.1-1.4-1-3.8-4.8-3.8-6 0-1.2 4.7-1 6.6.3 1.8 1.4 1.9 2 1.1 6.3zm-31.3.9c-2.3 2.5-3.4 2.4-3.1-.4.3-2.8 1.8-3.9 3.4-2.5 1.1.9 1 1.4-.3 2.9zm43.2 39.4c1 1.9 2.4 3.5 3.1 3.5.7 0 1.3.4 1.3 1 0 1.1-2 1.3-4.4.4-.9-.3-1.3-1-1-1.5.3-.5 0-.9-.5-.9-.6 0-1.1-.6-1.1-1.4 0-.8-.7-1.7-1.6-2-.8-.3-1.2-1-.9-1.6 1.2-1.9 3.2-1 5.1 2.5z"/><path d="M285.447 250.42c-.4.6-1.5.8-2.5.5-2.7-.9-6.1 1.6-5.4 3.8.4 1.4.1 1.8-1.3 1.5-1-.2-1.7.2-1.5.9.1.7-.2 1.3-.8 1.3-2.4 0-.7 1.8 3 3.3 2.2.8 3.8 1.1 3.5.6-.7-1.1.5-1.2 2.3-.1 2.6 1.7-1.3 7.4-4.4 6.6-1.1-.2-2.6 0-3.4.5-1.2.9-1.1 1.4.8 4 1.2 1.7 2.2 3.7 2.2 4.5 0 .8.5 1.6 1.2 1.8 1.4.5 5.8-1.4 5.8-2.4 0-.4 1.1-.2 2.5.4 1.4.6 2.5 1.5 2.5 2s.4.7.9.3c.5-.3.6-1.7.2-3.3-.4-1.5-.4-3.9 0-5.4.4-1.6.3-3-.2-3.4-1.4-.8-1.1-2.4.6-2.4.8 0 1.5.4 1.5 1 0 .5.5 1 1 1 .7 0 .7-.7 0-2-.6-1.1-.8-2.4-.5-2.9.8-1.4-.5-4.1-2-4.1-.9 0-1.6-1.8-2.1-4.5-.6-4.3-2.4-5.9-3.9-3.5zm3.7 16.9c.3 2.3 0 3.1-1.5 3.5-3.9 1-6.7-2.4-3.1-3.8.8-.3 1.2-1 .9-1.6-.3-.5.3-1 1.3-1 1.4 0 2.1.8 2.4 2.9zM259.947 254.72c0 2.8 1.4 4.3 5.1 5.2 2.1.5 2.7.2 3.2-1.5.3-1.2 1-1.9 1.6-1.5.6.3 1.1 0 1.1-.7 0-.9-1.4-1.4-4.1-1.5-2.2-.1-4.7-.7-5.5-1.4-1.1-.9-1.4-.7-1.4 1.4zM299.547 378.32c-.4.7-.5 1.5-.2 1.8.9.9 1.9-.4 1.4-1.8-.4-1.1-.6-1.1-1.2 0zM227.947 441.02c0 1.5-.8 2.4-2.5 2.8-2.1.5-2.3.9-1.5 3.1.7 2 .6 2.5-.5 2.5-.8 0-1.5.7-1.5 1.5s-.4 1.5-1 1.5c-.5 0-1 .6-1 1.4 0 .8-.9 1.8-2 2.1-1.1.3-2 1.3-2 2.2 0 .8-.9 1.7-2 2-1.1.3-2 1.4-2 2.4 0 1.1-.6 3.7-1.2 6-.9 2.8-1.8 3.9-2.9 3.6-.9-.2-2.1.4-2.8 1.5-.9 1.5-.8 1.9.6 2.4 5.4 1.7 8.3 3.5 8.3 5.3 0 1.8 3.8 5.1 5.9 5.1.6 0 2.7 1.1 4.7 2.5s5.4 3 7.6 3.6c2.1.5 4.2 1.7 4.5 2.5.3.7 1.1 1.4 1.8 1.4s1.6 1.1 1.9 2.5c.7 2.7 9.6 7.8 12 6.9.8-.3 3.2.4 5.5 1.5 2.2 1.2 4.7 2.1 5.5 2.1 1.3 0 2.5 1.4 5.2 5.8.1.1 2.5-.7 5.5-1.8 2.9-1.2 6.8-2 8.7-1.8 2.6.2 3.9-.3 5.3-2.1 1.5-1.9 2.2-2.1 3.3-1.2 1.1 1 2.3.8 5.5-.8 4.1-1.9 4.1-1.9 5.1 0 .6 1 .8 1.9.4 1.9s.2 1 1.4 2.3c1.7 1.8 3 2.2 5.3 1.9 2.4-.4 3.7.2 6.2 2.6 4 3.7 11.7 5.2 11.7 2.1 0-1-.8-2.3-1.8-2.8s-2.4-2.1-3.2-3.5c-.7-1.4-1.9-2.6-2.6-2.6-1.6 0-5.4-8.3-5.4-11.6 0-1.2.5-2.6 1-2.9 1.4-.9 1.2-5.5-.2-5.6-.7-.1-1.7-.2-2.3-.4-.5-.1-3.1-.3-5.7-.3-4.6-.2-4.8-.3-6.7-4.6-1-2.4-2.8-4.7-3.8-5-1.1-.4-3.4-2.4-5.1-4.5-2.4-2.9-3.7-3.8-5.2-3.4-1.1.3-4.1-.2-6.5-1.1-3.3-1.3-5-2.7-6.7-5.9-1.3-2.3-3.9-5.1-5.9-6.2-3.3-1.9-3.4-2.2-2.3-4.5 1.4-2.6.3-5-2.1-5-1.7 0-9.5-5.1-9.5-6.1 0-.5-.9-1.3-2-1.9-1.5-.8-2.8-.6-5.8.9-2.9 1.5-4.2 1.7-5.6.9-1.6-.9-1.8-.8-1.3.7 1.8 4.7 1.9 6.5.3 6.5-1.6 0-3.4-1.6-8.1-7.5-2.2-2.7-2.4-2.8-2.5-.9zM177.547 470.32c-.3.4.3 1.6 1.4 2.6 1.9 1.8 2 1.7 2-.8 0-2.6-2.2-3.8-3.4-1.8zM181.847 475.52c-1.1.6-1.1 1.1-.1 2.1.6.6 1.2 2 1.2 2.9 0 .9 2.5 3.5 5.5 5.8s5.5 4.7 5.5 5.3c0 .6.3.9.6.6.3-.4-.2-1.7-1.1-3.1-1.5-2.3-1.5-2.5.7-3.1 2.3-.6 2.3-.7.3-1.8-2.6-1.5-3.5-2.8-3.5-5.6 0-1.3-.4-2-1-1.7-.6.4-2.3 0-3.9-.8-1.7-.9-3.4-1.1-4.2-.6zM193.447 475.42c-.3.6.1.7.9.4 1.8-.7 2.1-1.4.7-1.4-.6 0-1.3.4-1.6 1zM196.947 475.82c0 .2.7.7 1.6 1 .8.3 1.2.2.9-.4-.6-1-2.5-1.4-2.5-.6zM202.947 480.42c0 .5.5 1 1.1 1 .5 0 .7-.5.4-1-.3-.6-.8-1-1.1-1-.2 0-.4.4-.4 1zM188.947 494.32c0 1.7 1.8 2.1 2.4.6.3-.9 0-1.5-.9-1.5-.8 0-1.5.4-1.5.9zM368.147 508.92c-.8 1.6-2.3 2.8-4.2 3.1-1.6.4-3 1.2-3 1.9 0 2.3-2.9 3.7-8.5 4-6.6.3-9.3 2-7.1 4.4 1.7 1.9 1 7.1-.9 7.1-.7 0-1.8-.7-2.5-1.5s-1.9-1.5-2.6-1.5c-1.3 0-1.6-.5-1.8-3.9-.1-1.1-4.6-3.8-4.6-2.7 0 2.7 2.8 6.9 5.4 8.1 1.7.8 5.1 2.8 7.6 4.3 4.2 2.7 4.5 3.1 5.1 8.3.3 3 .9 6.2 1.3 7.1.5 1 .4 1.8 0 1.8-1.5 0-.3 10.4 1.3 11.6.9.6 1.4 1.7 1.1 2.5-.3.8.8 3.1 2.5 5.2 1.6 2.1 2.7 4.1 2.4 4.4-.4.3.4 2 1.7 3.7 3.3 4.4 6.9 13.2 6 14.7-.5.9-.2 1 .9.6 2.1-.8 2.2.7.1 4.2-.9 1.5-3 3.2-4.8 3.7-1.9.6-3.2 1.6-3.4 2.9-.2 1.1-.8 3-1.4 4.2-.9 1.9-.8 2.7.8 4.5 1 1.3 1.2 1.7.4 1-.8-.6-1.8-1.2-2.2-1.2-1.3 0-.9 3 .5 3 .7.1.5.6-.5 1.4-2.1 1.6-2.4 7.2-.6 11.1 1.1 2.5.9 2.9-2.1 5.6-1.9 1.6-3.7 2.9-4.1 2.9-1.6 0-1.8 2.8-.4 5.5 2.2 4.4 1.7 7.4-2.1 11.6-1.9 2.2-3.5 4.4-3.5 5.1 0 .6-1 2.2-2.2 3.5-1.6 1.7-1.9 2.6-1.1 3.4 1.2 1.2 5.6.2 4.8-1.1-.3-.4.2-1.1 1.1-1.4 1-.4 1.4-1.2 1-2.2-1.6-4.2 3-3.5 5.9 1 1.3 1.9 1.3 2.8.4 5-.7 1.4-1.6 2.6-2.1 2.6-1.8 0-.6 1.8 1.6 2.4 1.5.4 2.6 1.6 3.1 3.3.3 1.6 1.5 3.7 2.6 4.9 2.5 2.7 3.4 6.8 1.4 6-.9-.3-1.5.1-1.5 1 0 .8-1 2.5-2.3 3.8-1.3 1.3-2.1 2.8-1.9 3.4.6 1.8-1.8 1.4-2.4-.3-.5-1.1-1.1-.7-2.3 1.7-.9 1.8-1.4 3.5-1.1 3.8.4.3 1.2 2 1.9 3.8 1 2.3 1 3.6.3 4.5-.9 1-.7 1.9.4 3.5.8 1.2 1.1 2.2.5 2.2-1.1 0-.3 3.1 1 4 .6.5 1.2 6.4 1 9.9-.1 1.1-.4 1.1-1.6.1-1.2-1-1.5-.9-1.5.4 0 1-.4 1.5-.9 1.1-.5-.3-1.2.4-1.6 1.5-.7 2.1-3.5 2.8-3.5.9 0-.5-.5-.7-1-.4-.6.4-.8 1.5-.5 2.6.8 2.3.7 2.3-3.8.4-1.9-.8-3.7-2.3-4-3.5-.3-1.1-1.2-2-2.1-2-.9 0-3.7-1.6-6.3-3.6-4.3-3.3-5-3.5-9.4-2.9-4.4.6-5 .5-5.9-1.7-1.2-2.6-7.1-6.8-9.5-6.8-.9 0-2.1-1.3-2.6-3-.6-1.6-1.5-2.7-2.1-2.4-.6.4-.5 1 .3 1.5 1.2.8 1.1 1.1-.1 1.9-1 .6-1.7.5-2.3-.6-.5-.9-2.2-1.4-5.2-1.2-2.4 0-5.1-.5-6-1.2-1.9-1.5-2-.2-.1 1.9.7.9 1.6 3.4 2 5.7.4 3.2.2 4.5-1.3 6.1-1 1.1-2.2 4.3-2.6 7.1-.6 4.7-.9 5.2-3.3 5.2-1.4 0-3.6 1-4.8 2.1l-2.3 2.2 2.5 4.9c1.9 3.7 2.3 5.7 1.8 8.3-.4 2.2-.2 3.5.4 3.5 1.9 0-1.4 6.3-3.7 7.1-1.5.6-2 1.6-1.9 4.2.1 1.9-.2 3.9-.5 4.4-.4.6.2 1.3 1.3 1.6 1.8.5 1.9.7.4 3.6-.8 1.7-1.3 4-.9 5.1.4 1.3.2 2-.6 2-.7 0-.5.6.6 1.3 1 .8 1.5 1.9 1.1 2.5-.7 1.2 2.7 3.5 3.7 2.5.4-.3 1.3 0 2.1.6 1 .8 1.6.9 2.1.1.3-.5 1.4-1 2.3-1 1.2 0 1.3.3.4 1.2-.9.9-.7 1.8 1.2 3.7 1.3 1.5 2.6 3.5 2.8 4.5.3 1.8 1.3 2.6 4.8 4.1 6.3 2.6 9.5 5.3 10.3 8.8.5 2.2 1.5 3.7 2.4 3.7.9 0 1.3.8 1.1 2.2-.2 1.8-.8 2.2-2.7 2-1.4-.2-2.1 0-1.7.6.4.6.1 1.4-.5 1.7-.6.4-.8 1.8-.5 3.2 1 3.7-1.4 5.5-5.4 4.2-3.4-1.2-4.6-.8-3.4 1.3.5.7.9 3.1 1.1 5.3.1 2.2.2 4.8.3 5.7.1 1 .8 1.8 1.6 1.8 1.7 0 1.7.5.4 3.1-.9 1.5-.7 2.3.6 3.7 1.7 1.6 1.7 1.7-.3 2-1.2.2-2.3 1.2-2.6 2.3-.3 1.1-1.4 1.9-2.6 1.9-4 0-2 4.3 2.4 5.2 1.2.2 2 1.1 2 2.3 0 2.3 2.7 4.5 3.3 2.7.2-.7 1-1.2 1.8-1.2s1.4-.4 1.4-.9c0-1.6 7 .6 11.3 3.5 5.8 3.9 19.7 8.5 19.7 6.5 0-.5.9-.7 1.9-.4 1.9.5 3.1 3 3.1 6.8 0 1.8.5 2 3.3 1.8 4.6-.5 5.6.6 6.1 6.3.6 7.5 3.6 11.6 13 17.9 6.9 4.7 8.2 5.5 10.3 6.4 1.1.5 2.3 1.4 2.6 1.9.3.4 3.3 1.7 6.6 2.8 3.9 1.2 6.1 2.4 6.1 3.4 0 1.3.2 1.3.9.1.8-1.2 1.4-1.2 4.3 0 1.8.7 3.6 1.3 3.9 1.2.4-.1 1.7.9 2.9 2.2 1.3 1.4 3.1 2.5 4 2.5.9 0 2.1.5 2.8 1.2.9.9 1.2.9 1.2-.1s.9-1.2 3-.8c2.3.5 3.3.1 4.9-1.8 1.7-2.2 2.3-2.4 4.7-1.5 1.5.6 3 .7 3.3.2.3-.4 2.1-1.4 3.9-2.1 4.3-1.8 8.2-.2 8.2 3.3 0 1.4.5 2.8 1 3.1.6.4.8 1 .5 1.5-.8 1.3 4.4 5 6.2 4.3.8-.3 1.8-.1 2.2.6 1.3 2.1 6.4 1.8 7.5-.4 2.4-4.4 2.5-4.4 5.4-2.9 3.4 1.8 4 1.7 5.8-.1.9-.8 2.4-1.5 3.3-1.5 1 0 2.4-.7 3.1-1.5.9-1.1 1.5-1.2 2-.5 1 1.7 7 3.1 7 1.7 0-.7.9-1.8 1.9-2.4 1.3-.8 2.2-2.9 2.7-6 .3-2.6.9-5.2 1.2-5.8.3-.5.5-2.6.3-4.7-.3-4.2.7-4.9 2.7-1.7.8 1.2 2.2 1.9 3.5 1.8 4.2-.5 6.6 1.1 7.6 4.9 2.1 8.6 2.2 9.2.7 9.2-1.2 0-2.6 2-2.6 3.6 0 .2 1.3.4 2.9.4 1.6 0 3.2.6 3.4 1.2.3.8.6.5.6-.5.1-1 .6-1.5 1.1-1.2.6.3 1-.2 1-1.2s.9-3.2 1.9-4.9c1.4-2.3 1.6-3.5.9-4.9-.7-1.2-.7-2 .2-2.5.7-.4.9-1.3.6-1.9-.4-.6 0-1.1.8-1.1.9 0 1.6-.9 1.6-2s.7-2 1.5-2 1.5-.9 1.5-2c0-2.5.8-2.5 3.3-.3 1.9 1.7 2 1.7.8-.5-.6-1.2-1-2.2-.9-2.3.2 0 2.2-.1 4.5-.3 4.7-.3 5-.4 5.3-2.6.5-3.6-.1-6-1.5-6-1.7 0-2-1.7-.4-2.2.6-.2 1.2-2.5 1.3-5 .1-2.6.8-5.3 1.4-6.1 1-1.2 1-2.1 0-4.2-1.1-2.4-1-2.9.7-4.1 1-.8 2.5-1.4 3.2-1.4.7 0 1.3-.8 1.3-1.8 0-2.6 2-4.2 5.2-4.2 1.8 0 2.8-.5 2.8-1.5 0-.9.7-1.8 1.5-2.1 1-.4 1.5-2 1.5-4.5 0-3.6.2-3.9 2.9-3.9 2.4 0 3.4.8 5.3 4.2 1.3 2.4 3.3 4.7 4.6 5.3 1.2.5 2.2 1.3 2.2 1.7 0 .5.5.8 1.1.8.8 0 .9-1.3.5-4-.5-3.3-.4-3.8.9-3.4.8.4 1.5.2 1.5-.4 0-.6-1.2-1.5-2.7-2-1.7-.6-2.1-1.1-1.1-1.1 2.2-.1 1.3-3-1.5-5-1.7-1.2-1.8-1.6-.5-2.5.9-.6 1.9-3 2.2-5.3.4-2.3 1.4-4.4 2.2-4.7 1.6-.6 1.9-4.6.4-4.6-1.8 0-1-2.2 1-2.7 1.1-.3 2-1 2-1.5s.5-.6 1-.3c.7.4.9-.2.4-1.8-.5-2.3-.3-2.5 1.7-2 1.6.5 2 .3 1.4-.6-.4-.7-1.7-1-2.8-.7-1.2.3-2.9-.2-3.9-1.1-2.2-2-2.3-3.3-.3-3.3.8 0 1.2-.6.9-1.3-.2-.7.9-2.3 2.6-3.6 3-2.2 3.1-2.4 1.6-4.6-2.2-3.3-2-3.8.9-3.1 1.8.5 2.5.2 2.5-.9 0-.8.4-1.5.9-1.5.9 0 2.7-4.2 4.1-9.5.2-.6 1.1-1.6 2.1-2.3 1.1-.7 1.9-2.4 1.9-3.8 0-1.3.4-2.4.8-2.4.5 0 2.3-2 4.1-4.4 3.3-4.4 6.1-5.6 13.8-5.6 1.3 0 2.4-.8 2.8-2.1.5-1.3 1.2-1.8 2.4-1.4 2.3.7 4.4-1.7 4.4-5 0-1.4.3-2.5.7-2.5.3 0 .7-.7.7-1.5s-.4-1.2-.8-.9c-.5.3-2.2-.2-3.8-1.1-3.4-1.7-9.1-2-9.1-.4 0 .6-.9.8-2.2.4-1.7-.6-2-.4-1.5.9.8 1.9-.1 2.1-2.2.3-1.3-1.1-2.5-1.1-6.1-.1-2.5.7-4 1.3-3.5 1.3.6.1.2.6-.7 1.2-3.1 1.7-6.1-.7-5.6-4.4.3-1.8.8-3.9 1.2-4.8.5-1.1-.1-1.9-2-2.8-1.9-.8-2.4-1.5-1.6-2.3 1.2-1.2-.1-5.1-3-8.4-1-1.1-1.8-2.8-1.8-3.8 0-2.5-2.1-1.5-4 2-.9 1.6-2.5 3.1-3.6 3.3-1 .1-2.7 1-3.6 1.8-1 .9-2.5 1.2-3.8.8-1.1-.4-1.9-.3-1.8.2.1.4-.1 2.2-.4 4-.7 2.9-3.7 5.1-6.2 4.4-3.1-.8-9.7-.9-13.1-.1-2.2.5-7.5 1.2-11.7 1.5-7.5.6-7.7.7-8.3 3.6-.4 1.6-1.7 3.7-3.1 4.8-1.3 1-2.4 2.8-2.4 3.9 0 2.5-2.9 8-5.2 10.1-1.6 1.5-1.6 1.9.3 7.1 2.5 6.5 2.6 8.8.6 15.5-.8 2.8-1.1 5.5-.6 6.1 1.4 1.7-.2 5.4-2.3 5.4-1.5 0-1.8.5-1.4 1.6.4.9.1 2.3-.5 3-1.4 1.7.3 4.2 3.8 5.5 1.3.5 2.3 1.7 2.3 2.8 0 1.1.4 2.2 1 2.6.5.3.7 1.1.4 1.8-.2.7.2 2.1.9 3.1 1.2 1.6 1 2.2-1.1 4.3-1.3 1.3-3.1 2.2-3.9 1.9-1-.4-1.3 0-1.1 1.2.2.9 1 1.6 1.7 1.4 1.5-.3 3.6 2 5.7 6.3.8 1.6 2 3.8 2.6 4.7 1 1.4.9 2.1-.5 3.6-1.5 1.7-1.6 2.1-.3 3.1 2.9 2.4 2.9 5-.1 7.5-2.6 2.3-2.7 2.6-1.6 5.7 1.1 2.8 1 3.5-.4 5.1-1.5 1.7-1.5 2-.3 2.8.8.6 1.8 1 2.3 1 .4 0 .7.6.7 1.4 0 .8 1 3.1 2.1 5.1 1.8 3 2 4 1 6.1-.6 1.4-1.1 3.4-1.1 4.4 0 2.3-.4 2.4-3.1 1-1.4-.8-1.9-.7-1.9.2 0 .8-1.6 1.4-4.3 1.5-3.3.2-4.5-.2-5.9-2-1.4-1.8-1.8-1.9-1.8-.5 0 .9-.5 2-1.2 2.4-1.9 1.2-10.2 1.2-11 0-.6-.8-.8-.8-.8 0 0 1.6-7 0-8.2-1.8-1.2-1.8-.2-7.5 1.7-9.4 1.2-1.3 1.9-1.4 3-.4 1.2 1 1.5.9 1.5-.7 0-1-.6-2.5-1.2-3.2-1-1-1-1.5-.2-1.8 2.6-.9 0-4.9-2.8-4.4-.5 0-.8-.6-.8-1.4 0-1.6-1.5-2-2.4-.7-.8 1.3-6.9.2-8.9-1.6s-5.5-3.9-7.8-4.8c-.9-.3-2.3-2.1-3.2-4-1.4-2.9-2.1-3.3-4.2-2.8-2.2.5-2.5.3-2.5-2.2 0-2.2.3-2.5 1.2-1.6 2.5 2.5 6.9.7 5.1-2.1-.7-1.1-1.3-7.3-1.2-14.7 0-1.9.5-3.7 1.1-4.1.5-.4.7-1.6.4-2.7-.5-1.5-.2-2.2 1.4-2.7 1.5-.5 2-1.5 2-4.5 0-2.9.6-4.1 2.5-5.4 2.2-1.5 2.5-2.2 1.9-5.3-.6-3.1-.4-3.5 1-3 1.9.7 2.1-1.5.6-7.8-.6-2.5-.6-4.1 0-4.3 2.7-1 .5-5-6.2-11.6-7.4-7.1-9.8-10.4-9.8-13.6 0-.9-1-3-2.1-4.4-2.3-2.9-2.4-2.1 1.2-13.8.5-1.9.4-3.2-.5-4.1-2.2-2.2-3.6-5.5-3-7.1.3-.9.1-3-.5-4.7-.9-2.7-.9-3 .4-1.9 1.6 1.3 6.5.6 6.5-1 0-.6.7-1 1.5-1 1.6 0 2-1.6.6-2.4-1.1-.7-3.1-9.5-3.4-15.8-.1-1.6-.6-2.3-1.2-1.9-2.2 1.8-9.3 1.9-10.9.3-1.2-1.2-1.9-1.3-2.7-.5-.8.8-1.9.9-3.8.1-1.4-.6-3.5-1.1-4.6-1.2-1.4-.1-2-.8-2-2.6 0-2-.5-2.5-2.3-2.5-1.3 0-3-.9-3.8-2-1.8-2.5-1.8-3.6.1-2.9 1.7.7 2.2-3.1.5-4.1-.5-.3-1-1.4-1-2.4s-1.6-3.1-3.5-4.5c-1.9-1.5-3.5-2.2-3.5-1.7 0 .6-.7 1.1-1.5 1.1s-1.5.4-1.5 1c0 .5-1.1 1.2-2.5 1.6-4 1-3.2 3.8 2 6.4 2.6 1.4 3 2.2 3.2 5.8.1 2.3-.2 4.2-.7 4.2-.5 0-1.1 1.8-1.5 3.9-.5 2.9-1.6 4.7-4.1 6.6-3.3 2.6-4.5 6-2.3 6.7 1.8.6 1.9 6.7.2 7.7-1.2.6-1.3 1.3-.5 2.8 1.7 3.1.8 7.6-1.7 8.7-2.3 1-2.7.8-8.8-3.1-1.4-.9-2.3-1.1-2.8-.4-.3.6.5 1.6 1.8 2.2 1.6.7 2.7 2.3 3.1 4.2.8 3.7.1 4.5-2.1 2.5-3.3-2.8-4-2.8-3.5.1.4 2.7.1 2.8-4.3 3.5-7.8 1-9.9.8-8.6-.8 2.2-2.6.3-4.2-5-4.1-3.2.1-5.4-.4-6.2-1.3-1-1.3-.8-1.4 1.1-.8 1.6.6 2.2.3 2.2-.8 0-2 3-5.6 4.7-5.6.7 0 1.3-.8 1.4-1.8 0-.9.3-2.6.6-3.7.8-3.3.2-11.9-.9-12.6-.6-.4-.8-1.1-.4-1.7.3-.5-.1-2.6-.9-4.6-.9-2-1.2-3.6-.8-3.5 2.4.4 4.3-.3 4.3-1.5 0-.8.6-1.6 1.2-1.8.8-.3 1.2-1.9 1-4.2l-.4-3.8 5.6.4c3.8.2 5.6-.1 5.6-.9 0-.6.9-1.5 2-1.8 2.3-.7 2.7-4.4.9-7.7-1.4-2.5-.2-3.4 5.6-4.4 2.2-.3 5.3-1.7 6.8-3 1.6-1.3 3.2-2.4 3.7-2.4 2 0 1.6-4.2-.7-7.8-2.2-3.4-3-3.8-6.2-3.7-2 .1-4-.1-4.6-.4-1.1-.6-1.8-.8-4-1-2.4-.2-1.9-4.1.6-4.1 1.2 0 2.3-.8 2.6-2 .3-1.1 1.2-2 1.9-2 .8 0 1.7-.7 2-1.5.4-.8 1.4-1.5 2.4-1.5 1.1 0 2.2-.5 2.5-1 1-1.7 2.5-1.1 2.5 1 0 1.1.5 2 1 2 .6 0 1 1.5 1 3.3 0 2.5.6 3.6 2.9 5 1.6.9 3.9 1.7 5.2 1.7 1.8 0 2 .3 1.1 1.2-2.1 2.1-1.3 6.2 1.8 9.1 1.6 1.6 2.9 3.1 2.9 3.5-.4 2.4.3 4.2 1.6 4.2.8 0 1.5.9 1.5 2s.7 2 1.5 2 1.5-.7 1.5-1.6c0-1.3.7-1.5 3.1-1 3.1.6 7.4-.9 6.5-2.2-.3-.5-.1-1.4.4-2.1.5-1 1-.5 1.5 1.7 1.1 5.2 7.1 7.8 10.6 4.6 1-.9 3.1-1.6 4.6-1.6 1.5 0 3.1-.4 3.4-.9.3-.5 1.5 0 2.7 1.1 2.6 2.4 3.2 2.5 3.2.4 0-.9.5-1.2 1.3-.8.6.4.2-.4-1-1.7-1.2-1.3-2.5-3.6-2.8-5.2-.4-1.5-1.4-2.7-2.2-2.7-1 0-1.3-.6-.9-1.6.3-.8.2-1.2-.4-.9-.6.3-1 .1-1-.4 0-.6-.9-1.1-2-1.1s-2-.4-2-.9-2.5-.8-5.6-.6c-5.9.3-5.7.5-7.9-6.3-.6-2.1-.5-2.3 1.3-1.3 1.9 1 2 .8 1.6-2.4-.3-2.9-.1-3.5 1.5-3.5 1.4 0 2-.9 2.3-3.7.4-3-.1-4.3-2.5-7-2.6-3-2.9-3.8-2.3-7.6.4-2.3 1.4-5.2 2.2-6.5.8-1.3 1.2-3.2.9-4.2-.4-1.1-.2-2 .3-2 1.1 0 2.5-9.1 1.6-11.3-.3-.8-1.7-1.8-3.2-2.2-2.4-.7-2.5-.8-.8-1.4 1.4-.5 1.6-1 .8-1.5-.7-.4-1.2-2.2-1.2-3.9 0-1.8-.5-4.8-1-6.7-.8-2.9-.7-3.7.6-4.7 1.2-.9 1.5-2.1 1-5-.4-2.1-.7-4.7-.9-5.8-.1-1.2-1-3.3-1.9-4.8-1-1.4-1.8-3.5-1.8-4.6 0-1.1-.4-2.2-.9-2.6-.6-.3-1.3-2.5-1.6-5-.5-3.1-1.4-4.9-3.1-6-1.6-1-2.4-1.2-2.4-.4 0 .7-.8.5-1.9-.5-1.1-1-2.7-1.9-3.7-2-1.7-.3-4.1-4.6-2.5-4.6 1.1 0 3.1-4.7 2.3-5.5-.4-.4-.7-1-.8-1.3-.2-1.3-1.5-4.7-3.2-8.2-1.3-2.5-2.3-3.4-3.7-3.2-1.4.2-1.6 0-.8-.6 1-.6.4-1.7-2.1-4.1-2.9-2.8-3.7-3.1-5.4-2.2-2.1 1.1-5.2.6-5.2-.9 0-.4-1.2-1.5-2.6-2.5-2.5-1.6-2.8-1.6-3.6-.1-1.4 2.4-2.6 1.9-2-.9.3-1.8 0-2.5-1.1-2.5-1 0-1.4-.9-1.3-2.5.1-2.8.6-3.1 2.4-1.3.9.9 1.5.4 2.4-2.3.7-1.9 1.1-3.9.9-4.4-.2-.6-.3-3.1-.2-5.8 0-2.8-.4-4.7-1-4.7s-.9.6-.6 1.3c.8 2-2.4 1.7-5.6-.6-1.6-1.1-2.6-2.5-2.3-3.3.6-1.5-.9-1.9-1.8-.5-.4.5-2.2.5-4.3 0-6.2-1.4-7.9-1.1-9.1 1.6zm1.8 152.6c0 1.1-.5 1.9-1.1 1.9-.6 0-.9-.6-.6-1.3.2-.6 0-2.1-.6-3.2-.9-1.8-.9-1.9.6-.6 1 .7 1.7 2.2 1.7 3.2zm36.4 6.5c.3.8.2 1.2-.4.9-.6-.3-1-1-1-1.6 0-1.4.7-1.1 1.4.7zm-33.7 1.5c1.4 1.4.6 3.9-1.3 3.9-.8 0-1.4.5-1.4 1 0 .7-.6.7-2 0-3.1-1.7-2.6-4.2.7-3.4 2.2.6 2.5.4 2-1-.7-1.8.4-2.1 2-.5zm-7.1 15.5c-.3.9-.6 2-.6 2.5 0 .6-.4.8-.9.4-1.5-.8-.9-4.5.7-4.5.9 0 1.2.6.8 1.6zm-11.6 46.9c0 2.7-1.2 3.2-2.9 1.2-.8-1-.7-1.7.1-2.5 1.9-1.9 2.8-1.4 2.8 1.3zm-12.1 24.4c-1.5.5-2.2-.6-1.4-1.9.6-.9 1-.9 1.6.1.5.8.4 1.5-.2 1.8zM329.347 518.92c-1.7 1.3-1.7 1.4-.2 1.5.9 0 2-.5 2.3-1.1 1.1-1.7 0-2-2.1-.4z"/><path d="M427.747 566.02c-.8.7.2 4.4 1.2 4.4 2.4 0 3.7-1.3 3.3-3.1-.5-1.8-3.3-2.6-4.5-1.3zM352.547 673.12c-.6 1.4-.5 1.5.5.6.7-.7 1-1.5.7-1.8-.3-.3-.9.2-1.2 1.2zM406.947 690.32c0 .5.5 1.3 1 1.6.6.3 1 .2 1-.4 0-.5-.4-1.3-1-1.6-.5-.3-1-.2-1 .4zM411.047 690.72c-.8 1.1-.5 1.9 1.3 3.6 2.7 2.5 3.9 1.2 2.5-2.7-1-2.5-2.2-2.8-3.8-.9zM661.447 721.72c-.2.6-.6 2.4-.9 3.8-1 4.5-5 7.9-9.5 7.9-2.3 0-4.3.6-4.8 1.3-1.1 2-6 3-6.6 1.4-.3-.6-.6.3-.6 2-.1 4.1-3 6.2-10 7-2.8.3-5.1 1-5.1 1.4 0 .5-.7.9-1.6.9-1.1 0-1.4.5-1 1.6.3.9.6 1.8.6 2 0 .2.7.4 1.5.4.9 0 1.5.9 1.5 2.4 0 2.6-2.2 4-3.8 2.4-.7-.7-1.2-.3-1.7 1.1-.7 2.4.1 4.1 2 4.1.8 0 1.9.8 2.5 1.7.9 1.5 1 1.3.5-1-.7-3.3 2.1-6.2 7-7.2 6.3-1.3 6.6-1.5 5.5-3.6-1.1-1.9.3-2.9 1.4-1 1.8 2.9 13.6 0 13.6-3.3 0-1.5 3.9-3.3 8-3.8 2.4-.3 3.2-1.6 4.5-8 .4-1.9 1.3-2.8 3.5-3.3 1.6-.4 3.2-1.1 3.5-1.6.4-.5 1.5-.9 2.6-.9s1.7-.5 1.4-1c-.3-.6-1.4-1-2.4-1s-2.9-1.5-4.1-3.3c-2.3-3.4-6.7-4.8-7.5-2.4zM568.047 734.02c0 1.1.3 1.4.6.6.3-.7.2-1.6-.1-1.9-.3-.4-.6.2-.5 1.3zM615.147 754.62c.2 2.1.8 3.3 1.8 3.3 2.4 0 2.4-4.2 0-5.5-2-1.1-2.1-.9-1.8 2.2zM611.947 759.52c0 .5.5.7 1 .4.6-.3 1-.8 1-1.1 0-.2-.4-.4-1-.4-.5 0-1 .5-1 1.1zM461.847 857.62c-.7 2.2-.8 5.8-.1 5.8 1.1 0 3.2-4.6 2.5-5.4-.6-.6-2.2-.8-2.4-.4zM464.847 869.12c1.7 3.3 4.9 5.5 6.9 4.9 2.5-.8 3.6-5.5 1.3-5.5-.9 0-3.3-.2-5.4-.5-3.4-.6-3.7-.4-2.8 1.1zM520.947 908.42c0 .5.5 1 1.1 1 .5 0 .7-.5.4-1-.3-.6-.8-1-1.1-1-.2 0-.4.4-.4 1zM496.147 933.62c-.8.8-.4 1.9 1.6 3.9 1.5 1.6 3.1 2.9 3.6 2.9.6 0 .2-.6-.9-1.3-1-.8-1.6-1.8-1.2-2.3.3-.5 0-1.7-.7-2.6-.9-1.3-1.6-1.4-2.4-.6z"/></g></svg>