<svg version="1" xmlns="http://www.w3.org/2000/svg" width="1073.449" height="1263.204" viewBox="0 0 805.087 947.403"><g fill="#222"><path d="M187.828 1.303c-.6 1-.5 2.2.3 3.4 1.2 1.6 1.4 1.6 3-.1 2.1-2.5 2-3.9-.4-4.5-1.3-.3-2.4.1-2.9 1.2zM152.728 9.903c-.8 1.9-1.6 3.5-2 3.5-.3 0-.7 1.2-.8 2.6-.2 3.1-1.1 4.6-2.2 3.9-.9-.6-2.4 4.4-1.5 5.3.3.3.5-.2.5-1.2 0-.9 1.2-2.1 2.6-2.6 3.3-1.3 3.1-1.3 3.7 1 .3 1.1.1 2-.4 2-1.5 0-1 3 .5 3.6.8.3 2.4-.4 3.5-1.5 1.2-1.2 2.8-2.1 3.6-2.1.8 0 1.5-.6 1.5-1.3 0-1.6 8.5-3.8 9.7-2.6 1.4 1.3 6.5-.3 7-2.2.3-1 1.1-2 1.9-2.3.8-.3 1.4-1.2 1.4-2.1 0-1.8-3.6-2-7.6-.5-3 1.2-8.7.4-7.8-1.1.3-.5-.2-.9-1-.9-.9 0-1.6-.5-1.6-1 0-.6-1.1-.8-2.6-.4-1.8.5-3.1.1-4.8-1.5l-2.2-2.1-1.4 3.5z"/><path d="M177.328 8.703c.3.9 1.8 1.7 3.2 1.9 1.7.2 2.8 1 3.1 2.3.2 1.1 1.1 3 2.1 4.2 1.6 2.1 1.9 2.1 3.1.7 1.1-1.4 1-1.8-.6-3-1-.8-2.3-1.4-2.7-1.4-.5 0-.6-1.1-.2-2.5.4-1.8.2-2.5-.9-2.5-.8 0-2.9-.3-4.6-.6-2.6-.5-3-.4-2.5.9zM187.328 9.003c-.4.9-.4 1.9-.1 2.2.2.3.7-.3 1.1-1.2.4-.9.4-1.9.1-2.2-.2-.3-.7.3-1.1 1.2zM243.828 22.603c0 1.8.3 2.6.6 1.8s1.2-1.9 2-2.3c1.6-1 .8-2.7-1.3-2.7-.9 0-1.4 1.1-1.3 3.2z"/><path d="M239.328 26.103c-.6 1.5-.8 1.5-1.6.3-.7-1.1-1-.8-1 1.3 0 1.6.4 2.6 1 2.2.6-.3 1-.1 1 .4 0 1.4-1.7 1.4-2.5.1-.9-1.4-2.8-.1-2.1 1.5.2.7-.4 1.5-1.4 1.8-1.6.4-1.8 1-1 3.3 2.8 9.3 2.9 11.7.7 14.6-1.5 1.9-2.9 2.7-4.4 2.4-1.7-.2-2.3.2-2.3 1.4 0 1.1-1.1 2-2.7 2.5-1.6.3-3.6 1.4-4.5 2.2-1 .8-2.4 1.3-3.3 1-.8-.4-1.5-.2-1.5.3 0 1.6-6.6 1.1-8-.5-.8-.9-1.7-1.2-2.4-.7-1.5 1.1-7.1-1.9-7.1-3.8 0-2.4-2.9-2.2-6.9.5-2 1.4-4.8 2.5-6.1 2.5-1.4 0-2.5.5-2.5 1.1 0 .5-.4.7-1 .4-.5-.3-1-.3-1 .2 0 1.5-5 .8-5.5-.7-.3-.8-1.8-2.2-3.4-3.1l-2.8-1.7.9 3.7c.5 2 1 4.1 1 4.6.2 1.8-3.3 6.5-4.8 6.5-.8 0-1.4.7-1.4 1.5s-.9 2.3-2 3.2c-1.1 1-2 2.3-2 3 0 .7-.9 1.3-2 1.3s-2 .6-2 1.4c0 1.7-6.5 2.6-8.1 1.1-.7-.7-1 1-.8 5.7.1 4.3-.2 7.3-1.1 8.2-.7.9-.9 1.6-.5 1.6s.2.7-.5 1.5-1 2.5-.7 3.6c.3 1.2-.1 3.5-.9 5-1.7 3.4-1.8 8.1-.2 9.7.8.8.9 1.2.1 1.2-.6 0-1.7 1.6-2.3 3.5-1.1 3.2-1 3.7 1.2 5.5 2.8 2.4 4.2 2.5 3.4.4-.4-1.1 0-1.5 1.7-1.4 4.4.4 4.9.1 4.5-2.5-.6-3.1 0-3.1 4.7.1 2.1 1.4 5.5 2.8 7.4 3.1 2 .3 4.1.9 4.6 1.3.6.5 2.7 1.3 4.8 1.8 3.1.9 3.7.8 3.7-.5 0-.8.9-1.7 2-2 1.1-.3 2-.9 2-1.3 0-.5 1.6-1.4 3.5-2 2.7-.9 5.1-.9 10.4 0 3.7.7 8.3 1 10.2.6 1.9-.4 4.4-.8 5.7-.9 1.2-.1 2.2-.7 2.2-1.4s2.1-1.4 4.8-1.8c2.6-.3 5.6-.8 6.8-1 1.2-.3 2.8.3 3.6 1.3 1.9 2.2 2.9 6 1.7 6.8-.5.3-.9 1.5-.9 2.8 0 1.2-.5 2.7-1.1 3.3-2 2-2.8 8.1-1.3 9.4.8.6 1.4.8 1.4.4s.9.3 1.9 1.6c1.6 2 1.7 2.6.6 4.3-1 1.3-1.1 2.6-.4 4.4 1.2 3-.7 5.4-4.3 5.7-1.5.1-2.4.9-2.6 2.3-.3 2.1-.5 2.1-2.5.7-1.2-.8-2.9-1.5-3.8-1.5-1 0-2.9-1.4-4.2-3-1.7-1.9-3.5-3-5.2-3-1.7 0-2.9-.7-3.5-2.3-.5-1.2-.9-1.6-.9-.9-.1.7-.5 1.1-.9.8-1.2-.7-1.3-8.1-.2-11.1.8-2.1.7-2.5-.2-2.1-.7.3-2.1.9-3 1.2-1 .3-2 1.5-2.3 2.5-.4 1-1.1 1.9-1.6 1.9-.6 0-.7-.5-.4-1 .3-.6-.1-1-.9-1-.9 0-1.6.9-1.6 2 0 1.2-.7 2-1.7 2.1-1 .1-3.1.3-4.8.5-1.6.2-4.9.5-7.2.7-2.3.2-4.5.6-4.9 1-.4.3-1.9 0-3.5-.9-1.6-.8-4.9-1.7-7.4-2.1-3.8-.5-5.1-.2-7.5 1.6-1.6 1.1-3.3 2.1-3.9 2.1-.5 0-1.1 1-1.4 2.2-.7 2.5-6.9 6.4-8.6 5.4-.6-.4-1.1 0-1.1.8 0 .9-.5 1.6-1 1.6-1.3 0-.8 5.8.8 8.7 1.6 2.9 1.5 3-.9 3.6-1.2.3-1.8 1-1.4 1.6.3.7-.3 1.1-1.5 1.1s-1.8.4-1.5 1c.3.5 0 1-.8 1s-1.7 1-2 2.2c-.5 1.8-.8 1.9-2.1.8-1.4-1-1.6-.9-1.6.8 0 1.1-1.3 3-3 4.2-1.8 1.3-2.7 2.6-2.3 3.5.5 1.3-.7 2-2.9 1.6-.5 0-.8.4-.8 1 0 .7 1 .9 2.5.5 1.7-.4 2.5-.2 2.5.6 0 2.1-6.5 11.3-7.8 11-1.5-.3-1.5.3.2 3.6 1.3 2.5 1.2 3.2-1 7.7-2.5 5.2-2.3 5.9 2 8 .8.3.7.7-.1 1.1-1.8.8-1.6 3.1.3 3.8.9.4 1.4 1.3 1 2.1-.3.9.7 3.4 2.4 5.7 1.7 2.2 3 5.1 3 6.2 0 1.3 1.7 3.6 4.5 5.9 2.5 2.1 4.4 4.1 4.3 4.5-.1.4.2 1.5.7 2.6.5 1.1.3 2.6-.3 3.7-1.5 2.3-1.6 7.6-.2 8.4.6.4.5 1.6-.5 3.4-1 2.1-1.1 3.1-.3 3.9.9.9.8 1.8 0 3.7-.7 1.4-1.2 3.4-1.2 4.5 0 1-.6 2.1-1.2 2.3-1 .4-1 .8.1 1.5.9.6 1.1 1.9.6 4-.9 4.1 1.1 9.5 4.1 10.9 2 .9 2.4.8 2.9-.7.4-1.4 2.1-2 6.5-2.5 4.9-.6 6-1 6-2.5 0-2.2 5.7-4.5 7.5-3 .7.6 1.5.6 2.2-.1.7-.7 1.7-.8 2.5-.3.7.5 2.5.7 4 .5 5.1-.5 10.8 4.1 8.2 6.7-1.8 1.7-1.8 2.7.1 4.2.8.7 1.5 1.7 1.5 2.3 0 .7-.4.7-1.2-.1-.7-.7-2-1.2-2.9-1.2-1.6 0-1.7.4-.7 3 .7 2.3.7 3.4-.3 4.6-.9 1.1-.9 1.8-.1 2.6.7.7 1.2 2 1.2 2.9 0 .9.7 2 1.6 2.3.9.4 1.4.9 1.1 1.2-.7.8 2.2 5.6 6.1 9.9 1.8 1.9 3.1 4 3 4.7-.2.9 1.2 1.3 4.9 1.3 2.8 0 5.7.6 6.4 1.2 1.7 1.7 3.6 1.6 4.3-.2.6-1.6 4.8-1.2 7.1.5.6.5 3 1.3 5.4 2 2.9.8 4 1.4 3.2 2-.8.4-.9 1-.4 1.3.6.4 1 2.3.9 4.4-.1 2.3.5 4.3 1.4 5 2.1 1.7 6 1.6 6-.1 0-1.7 2.7-2.9 4.3-1.9 1.5.9 6.9.4 8.1-.8.6-.5 1.9-.9 3-.9 1.2-.1 3.7-1.4 5.6-3.1 3.3-2.8 3.5-2.8 4.2-.9.9 2.6 2.8 2.6 2.8.1 0-2.7 1.5-3.4 5.6-2.6 2.5.4 4.1 1.5 5.2 3.5.9 1.6 2.6 3.1 3.6 3.2 1.3.2 2.3 1.4 2.8 3.4.9 3.4 7.5 10.1 9.6 9.6.7-.2 2 .2 2.8.9 1.1.9 1.5.8 2-.5.6-1.5.8-1.5 1.9.1.8 1 1.9 1.8 2.7 1.8.8 0 1.2 1 1 2.7-.3 2.3.2 3 3 4.1l3.3 1.5-2.7 1c-3.7 1.5-3.9 4.2-.6 7 2.4 2 2.8 3.2 2.8 7.3 0 3.2-.4 4.9-1.2 4.9-.8 0-.6.5.4 1.1 1.4.8 1.7 2.3 1.4 9.7-.4 8-.7 9.3-4.6 16.2-2.9 5.3-4 8.3-3.6 10.1.7 3.5-2.4 8.2-7.3 11.3-4 2.5-5.8 5.6-4.6 7.7 1 1.5-5.1 7.1-7.2 6.7-1-.2-1.7-1-1.5-1.7.1-.7-.2-1-.9-.5-.7.4-4.8.8-9.1.9-4.3.1-8.1.5-8.4.8-.3.3-.1 1.4.5 2.6 1.3 2.3-.2 3.8-3.1 3.3-1.1-.2-1.8.3-1.8 1.2 0 .9-.7 1.6-1.6 1.6-1 0-1.3.6-.9 1.9.7 2.4-2.9 3.4-8.9 2.6-3.9-.6-4.2-.4-6.4 3-1.2 2-2.6 3.3-3.1 3.1-.5-.3-1.1 1.2-1.5 3.4-.7 4.5-1.8 5.5-4.5 4.1-1.4-.8-2-.7-2.4.2-.3.8-2.5 1.2-6.3 1.1-3.3-.1-7.3.3-9 .9-2.5.8-3 1.4-2.6 3.4.2 1.3.8 2.6 1.3 2.9 1.4.8-1.3 5.4-3.3 5.4-1 0-1.8.6-1.7 1.2.1.7-.2 2.8-.6 4.6-.7 3.1-1.1 3.3-3.6 2.8-2.4-.4-2.9-.2-2.9 1.3 0 1-.6 2.1-1.4 2.4-2.2.9-.8 4.7 3.1 8.6 3.8 3.8 4.1 4.5 1.3 3.8-1.8-.5-5 2.3-5 4.4 0 1.5 3.3 1.8 4.4.4 1-1.3 1.7-1.2 5.8.9 2.6 1.3 4.6 2.5 4.4 2.7-.2.2-.6 1.6-.9 3-.6 2.1-.2 2.8 2.1 3.9 1.5.7 4.8 1.4 7.5 1.7 4.4.4 4.7.3 4.7-2 0-2.1.4-2.4 2.6-1.9 1.4.2 3.5 1.8 4.7 3.3 1.1 1.6 2.6 2.9 3.3 2.9 1.4 0 2.4 2.3 2.4 5.7 0 1.4 1.3 3.8 3.1 5.6 4.3 4.3 6.9 9.2 6.7 12.5-.2 3.1-3.2 6.2-6 6.2-1.6 0-1.7.3-.8 2 1.4 2.7.3 6.3-1.7 5.6-.8-.3-2.7-.6-4.3-.6-1.7 0-3.7-1-5.1-2.5-4.2-4.5-7-5.6-11.2-4.1l-3.7 1.2 2 2.2c2.5 2.7 2.5 2.9-.2 2.8-1.6-.1-2.3.4-2.2 1.6.2 2-1.2 2.4-1.8.6-.3-.9-1.1-.8-3.1.4-2.6 1.7-2.6 1.7-2.1-.9.4-2.1.2-2.4-.9-1.5-1 .9-1.6.9-2.5 0-1.5-1.5-1.6-5.2-.2-4.3 1.7 1.1 1.1-.7-.7-2-1.3-.9-1.7-2.4-1.4-5.4.1-2.7-.2-4.1-.9-4.1-.8 0-1 .8-.7 2.2.7 2.6-.9 4.9-2.9 4.1-2.7-1-1.4 2.6 1.6 4.4 3 1.8 3.8 3.7 2 4.8-.6.3-1.2 0-1.5-.7-.4-.9-2-1.3-4.8-1.3-6.9.3-7.2.4-7.3 3.1-.2 3.1-.7 3.6-3.6 3.8-2 .1-2.3.7-2.4 4.1 0 2.2.7 5.3 1.5 6.8 1.4 2.4 1.4 2.9.1 3.7-.9.5-2.4.3-4.1-.6-3.4-1.7-6.1-1.8-5.8-.2.2 1.2-.2 3.5-1.7 9-.3 1.1-1.1 1.5-2.1 1.1-1.2-.5-1.4-.1-.8 1.6.5 1.8.1 2.3-2.4 3.2-2.2.8-3 1.6-2.8 3.1.2 1.1.8 2.3 1.4 2.6.5.4 1.4 2 2 3.7.6 1.9 1.7 3.1 3.1 3.3 2.4.4 2.8 1.2 1.1 2.9-.8.8-.5 1.3 1 1.8 1.2.3 2.1 1.1 2.1 1.7 0 .5-.7.7-1.6.4-.9-.4-.2.7 1.6 2.4 1.7 1.6 2.9 3.4 2.5 4-.3.5-.2 1 .3 1s1.4 1.2 2.1 2.6c1 2.3.9 3-1.1 5.3-1.3 1.4-2.8 2.9-3.5 3.4-.6.4-1.4 2.1-1.8 3.7-.5 2.3-1.2 3-2.8 2.9-4-.4-5.5.1-6.1 1.8-.4 1-.1 2 .9 2.6 1 .5 1.5 2 1.3 4.1-.1 2.4.7 4.3 3.1 7.3 3.1 3.9 3.2 4.3 2.5 10.2-.4 3.6-1.4 7.2-2.5 8.5-1.1 1.3-1.9 2.8-1.9 3.3 0 1.9 5 5.6 7.9 5.8 4.1.3 10.8 7.1 9.4 9.4-1.2 1.9 0 5 2.4 6.4.7.4 1.3 1.4 1.3 2.2 0 .8 1.1 1.7 2.5 2 1.4.3 3.6.7 4.9 1 1.5.3 3 1.7 3.8 3.5.7 1.7 2 3 2.8 2.9.8-.1 2.3.1 3.2.5.9.4 2.5.3 3.5-.3 1.2-.6 2.5-.6 3.3-.1.8.5 2.4.7 3.6.4 1.2-.3 2.8.1 3.8 1.1 1.4 1.5 1.7 1.5 2.2.1.5-1.4 1.1-1.2 3.6.9 3.2 2.7 5.4 3.2 6 1.4.2-.7 3 .3 7 2.5 3.7 2 7.4 3.3 8.3 3 .8-.4 2.2-.1 2.9.6 1.8 1.4 5.6-.3 5.6-2.5 0-.9 1-1.5 2.5-1.5 2.1 0 2.5-.5 2.5-3.1 0-2.1.6-3.2 1.8-3.5 1.3-.4 1.7-1.5 1.6-4.8-.1-3.9.2-4.5 4.7-8.2 3.8-3.1 4.8-4.4 4.4-6.2-.6-2.7.8-2.9 3.2-.3 1.2 1.3 3 1.9 5.4 1.8 3-.1 3.8-.6 4.7-2.9.9-2.5.8-2.8-.9-2.8-2 0-2.3-1.6-1.3-6.9.5-2.4 1.2-3.1 3.1-3.1 1.4 0 2.1.4 1.8 1-.3.6-.1 1 .5 1 1.5 0 1.9-1.5 2.4-8 .5-6.9 1.3-9 3.3-8.3 1.2.5 1.4.1.8-1.5-.8-2.6-.2-2.7 2.8-.8 1.2.8 3.2 1.7 4.4 2.1 1.8.5 2.2.3 1.7-.9-.5-1.2.1-1.6 2.4-1.6 1.7 0 3.2-.5 3.4-1 .4-1.3 11.5.7 14.2 2.6 1.1.8 2.8 1.4 3.7 1.4.9 0 2.8.9 4.3 2.1 1.4 1.1 2.6 1.7 2.6 1.4 0-.4.6-.2 1.4.4 1.2 1 1.3.9.9-.8-.3-1.1 0-2.6.6-3.3.7-.7 1.8-2.1 2.5-3.2 1.1-1.6 1.7-1.7 4.8-.7 1.9.6 4.5 2.3 5.8 3.6 1.7 1.8 3 2.3 4.7 1.9 1.3-.4 3-.1 3.8.6.8.6 1.8.9 2.4.6.5-.3 1.6 1.4 2.4 3.9.9 2.5 1.2 4.5.6 4.5-1.5 0-1 6 .6 6.6.8.4 1.5 1.2 1.5 2 0 1.9 6.8 8.4 10 9.6 3.1 1 4.5 4.2 2.5 5.8-.9.7-1.6.6-2.5-.5-1.6-1.9-3.6-1.9-4.3-.1-.4.9-1.4 1.2-2.6.9-1.2-.3-2.7 0-3.5.6-1.1 1-1.6.9-2.3-.4-.8-1.4-1.4-1.5-5.1-.3-2.3.7-4.2 1.9-4.2 2.6 0 .7-.6 1.2-1.2 1.1-3.6-.4-6 .2-5.5 1.5.4 1-.4 1.2-3.3 1-4-.3-3.4-1-9.3 11.3-1 2.2-1.2 4.3-.7 7.3 1 5.5.3 7.9-2.6 8.6-2.6.7-2.9 1.6-1.4 4.5.7 1.3.7 1.9 0 1.9-.5 0-.9.3-.8.7.3 1.5-1.5 4.8-3.6 6.6-2.1 1.7-2.1 1.7-.1 3.2 1.1.9 2.5 1.3 3.3 1 .7-.2 1.5.2 1.8.9.3.8 1.4 1.2 2.5.9 1.2-.3 1.8-1.1 1.5-1.9-.8-2 .8-1.7 2.8.5 1.6 1.7 4.1 2.6 10.6 3.6 1.4.2 2.7.4 3 .4.3.1 1.3 1.6 2.3 3.3 1 1.8 3.8 4.8 6.3 6.7 2.4 1.8 4.4 4 4.4 4.7 0 .8 1 1.4 2.4 1.4 1.3 0 2.6.6 2.9 1.4.3.8 2.5 2.3 4.9 3.4 2.4 1 6.6 4.1 9.3 6.9 2.8 2.7 7.5 7.1 10.5 9.8 3 2.7 5.3 5 5 5-1.2.4 2.4 3.5 4 3.5 3.2 0 4.7 3.1 7.8 15.4.5 1.8 1.5 3 2.7 3.2 1.1.2 2.1.7 2.3 1.2.2.6 1.1.8 2.1.5 2.2-.6 5 2.5 3.3 3.6-.8.5-.2 1.7 1.8 3.9 2.9 3.2 3.7 3.6 7.8 3.2 1.2-.1 2.2.4 2.2 1 0 .7.6.8 1.9.1 1.4-.8 2-.7 2.5.4.3.8 0 1.5-.7 1.5-.7.1.1.8 1.7 1.6 1.5.9 3.9 1.4 5.3 1.1 1.5-.3 2.7.1 3 .9.2.7 1.1 1 1.8.8.7-.3 1.8.3 2.4 1.4.6 1 3.1 2.5 5.6 3.2 2.5.7 4.8 1.6 5 2 .7 1.2 1.6 10.1 1.5 14.7-.1 3.6.2 4.1 1.8 3.6 4.1-1 8-13.7 5.9-19.3-1.5-4.1-1.7-7.1-.5-7.5 1.4-.6 1.9-8.5.6-8.5-.5 0-.8-.5-.8-1.1 0-.6-2.5-3.4-5.5-6.3-5.9-5.5-7.6-9.2-2.7-5.8 2.3 1.7 3 1.8 4.5.7s1.5-1.4.2-2.5c-.8-.7-1.5-1.8-1.5-2.6 0-.7-.8-1.7-1.7-2.3-1.7-.9-1.6-1.2.1-6.2l1.9-5.2-2.1-1.8c-1.2-.9-2.2-2.2-2.2-2.7 0-.6-1.7-1.4-3.7-1.9-3-.7-4-1.5-4.7-3.8-.4-1.7-1.2-3.8-1.7-4.7-1.3-2.5-1.1-3.1.6-2.4 2 .7 1.9.6-.9-3.3-2.6-3.5-2.4-6.7.4-7.6 2.2-.7 6.7.3 9.5 2.1 2.4 1.5 14.3 2.5 15.1 1.3.8-1.4 1.9-1.1 4.4 1.1 2.6 2.2 3.6 2.5 4.5 1 .4-.6 2.6.7 5.3 3l4.7 3.9 2.1-2.4c2.4-2.8 3.1-2.7 12.2 1.6 4.3 2.1 5.6 5.1 3.1 7.6-.9.9-.7 1.1.7.7 3.1-.8 7.6 3.3 7.2 6.6-.1 1.5.5 3.9 1.5 5.3 1.9 2.9 5.7 3.7 5.7 1.2 0-1 1-1.5 2.9-1.5s3-.6 3.3-1.8c.4-1.2 1.6-1.8 4.4-2 2.1-.2 4.2-.9 4.6-1.6 1-1.8 5.6-.8 7.1 1.4 1.1 1.9 3.1 1.7 5.8-.7 1.3-1.1 1.9-1 3.8 1 1.4 1.5 2.1 3.4 1.9 5.3-.2 3.6.9 5.7 2.7 5 1.7-.6 3.9 1.9 3 3.4-.4.6-1.5.8-2.5.5-1-.3-2.5.1-3.4 1.1-.9.9-2.3 1.4-3.1 1.1-.7-.3-2 .4-2.8 1.6-3.9 5.6-12.8 12.7-16 12.7-1.6 0-4.7 3.2-4.7 4.8 0 .6-.7.9-1.6.5-1.4-.5-1.5-.1-.8 2.8.4 1.9.8 5.2.9 7.4 0 2.2.6 5.1 1.2 6.5.9 2.1.8 2.5-.9 2.8-1.5.3-1.7.6-.8 1.8 1.7 1.9 1.9 11.4.3 11.4-.6 0-1.5.9-1.8 2-.3 1.1-1.1 2-1.6 2s-.9.8-.9 1.8c0 1.1-1.2 2.4-2.6 3.1-2.3 1-2.5 1.6-2 4.4.4 2.3 0 4.2-1.4 6.5-1.1 1.8-2 4.1-2 5.1 0 2.6-6.6 6.4-9.6 5.7-1.8-.5-2.2-.3-1.8.9.4.8 1.7 1.5 3.1 1.5 2.3 0 2.5.3 2.1 3.5-.3 3.1-.1 3.5 2.4 4 1.5.4 2.8 1 2.8 1.4 0 1.1 7.2 1.6 11.4.8 3.3-.7 4.6-1.8 2.9-2.4-.9-.3-.7-1.5.7-4.3 1.1-2.2 2-4.7 2-5.6 0-2 3.6-5.2 6.7-6 1.5-.4 2.9-2 3.8-4 .8-1.9 2.1-3.4 2.9-3.4 1 0 1.6-.9 1.6-2.6 0-2.1.4-2.5 2.4-2.2 1.3.1 2.9-.2 3.7-.8.8-.6 2.6-1.4 4.2-1.8 1.5-.3 2.7-1.3 2.7-2.1 0-.9 1.1-2 2.5-2.5 1.5-.6 2.5-1.7 2.5-2.9 0-1 .7-2.4 1.4-3.1 1.1-.8 1.2-1.8.5-3.6-1.3-3.6-1.2-4.2 1.1-4.9 2.2-.7 2.7-4.4.9-7.3-.8-1.2-.7-2.5.2-4.7.7-1.7 1.2-3.3 1.1-3.8-.1-.4.6-.7 1.6-.7 1.5 0 1.7-.6 1.4-3.4-.2-1.9-1.3-4.2-2.3-5.2-2.8-2.5-2.3-3.4 1.1-2.1 1.7.6 3 1.4 3 1.8 0 .8 4 5.3 4.3 4.8 1.9-3.3 3.7-7.4 3.7-8.5 0-.9.4-1.2 1-.9.6.4.7-.1.3-1.1-.4-1-.8-1.3-1-.7-.3.8-1.5.7-4-.3-2.1-.9-4.7-1.3-6.4-.9-2 .5-2.9.3-2.9-.6 0-.7-1.4-2.7-3-4.4-2.5-2.6-2.8-3.4-1.7-4.3 2.1-1.7 8.1 2.2 7.4 4.9-.4 1.3-.1 1.9.6 1.6.7-.2 1.1-1.6 1-3-.1-1.5.4-2.7 1.2-2.9 2.8-.6-.7-5.3-4.1-5.6-2.8-.3-3-.6-2.7-3.5.9-7.3 1.2-7.9 3.9-7.4 4 .7 5-3.2 2.1-8.8-2.4-4.9-3.6-5.5-4.4-2.5-.3 1.1-1.4 2-2.4 2-1.1 0-1.9.3-1.9.7 0 .5-1.3 2.3-2.9 4.2l-2.8 3.4-3.6-1.8c-2-.9-3.5-2.1-3.2-2.5.3-.4-.9-2.5-2.5-4.5-1.7-2.1-3.3-5-3.6-6.4-.3-1.4-.8-4-1.3-5.6-.8-3.2.7-8.3 2.4-8.1.5 0 1.2-1.2 1.5-2.7l.5-2.9 2.5 2.2c1.9 1.6 2.1 2.3 1.1 2.9-1.1.7-1.1 1 0 1.7 1.7 1 4.9 1.3 4.9.4 0-.4 1.1-.5 2.5-.2 1.4.2 2.5 1.1 2.5 1.8 0 2.3 6.6 1.8 8.9-.7 1.2-1.3 2.1-1.7 2.5-1 .4.6 2.2 1.8 4.1 2.7 2.7 1.2 3.8 1.4 4.9.5.7-.6 2.1-.9 3-.5.9.3 1.6.1 1.6-.5s.7-1.1 1.6-1.1c1.2 0 1.5-.6 1-2.8-.6-2.5-.5-2.6.8-.8.8 1 2 1.6 2.7 1.4.8-.3.7-.8-.4-1.9-1.3-1.4-3.7-7.8-3.7-10.2 0-.4 1.1-.7 2.4-.7 3.9 0 7.4-1.7 8.1-3.9.6-2.1.6-2.1 3.5.1 3.9 2.8 12.6 4 14.3 2 .6-.8 1.1-2.3.9-3.2-.3-2.1 4.2-6 6.9-6 1 0 2.1-.5 2.4-1 .4-.6 1.1-.8 1.6-.4.6.3.9-.2.7-1.2-.2-1.2.6-2.3 2-2.9 1.2-.5 2.2-1.6 2.2-2.3 0-.7 1.1-1.8 2.5-2.4 1.4-.6 2.5-1.9 2.5-2.8 0-3.4 2.1-7.9 3.5-7.4 1.5.6 7.5-5.2 7.5-7.1 0-.7.8-1.2 1.8-1.1 1.3.1 1.8-.8 2-3.4.2-1.9.7-3.9 1.2-4.5 1.4-1.8 2.2-7.5 1-7.5-1 0-3.1-4.1-2.4-4.9.1-.2 1.3.8 2.6 2.2 2.5 2.8 6.8 4.5 6.8 2.8 0-.6.7-1.1 1.5-1.1s1.5-.5 1.5-1.2c0-.6.3-.8.7-.5.3.4 1.1.3 1.7-.2.6-.6 2.5-1.2 4.1-1.4 2.6-.4 3-.8 2.8-3.3-.2-2.2.3-3.2 2-3.9 1.9-.9 2.2-1.8 2.3-6.5.1-8.8 4-15 7.3-11.7.8.8 1.1.7 1.1-.2 0-1 .9-1.2 2.9-.8 2.6.5 3.1.2 3.9-2.3.7-1.7.7-4.2.2-6.2-.4-1.8-1.1-4.5-1.4-6-.3-1.5-1.5-3-2.6-3.3-1.1-.3-2-1.3-2-2.1s-1.1-1.9-2.4-2.3c-1.3-.5-2.6-1.7-2.9-2.5-.8-1.9-.3-2 2.3-.4 2.8 1.8 3.3.6 1.4-4.1-.9-2.3-1.4-4.4-1.1-4.7.8-.8-4.2-5.4-5.8-5.4-2.2 0-3.8-3.8-3.1-7.6.5-2.2.1-4.4-.9-6.4-1.6-3-.9-4 1.2-1.9.9.9 1.1.7.9-.5-.1-1-.8-2.1-1.5-2.6-1-.6-1-.9-.1-1.2.7-.2 0-1.6-2-3.8-2.6-2.8-2.9-3.5-1.6-4.2.9-.5 1.6-2.2 1.6-3.9 0-2.8-.1-2.9-1.6-1.5-1.9 2-2 2-6.9-.4-2.2-1.1-4.6-1.9-5.3-2-.6 0-1.1-.3-1-.8.1-.4-.2-1.9-.6-3.5-.6-2-1.4-2.7-3.3-2.7-2.3 0-2.5-.3-1.9-3 .6-3.1-.2-3.8-2.1-1.9-1.6 1.6-2.6-.6-1.3-3.1.7-1.3.7-2 0-2-1.8 0-1-2.9 1-3.5 1.5-.5 1.9-1.2 1.4-3.1-.5-1.9-.2-2.4 1.3-2.4 2.4 0 4.4-5 3.1-7.4-1.7-3-1.8-7.7-.3-11.3 1.5-3.4 3.5-3.7 3.5-.5.1 1.6.1 1.6 1.1-.1.5-.9 1.6-1.7 2.3-1.7.8 0 2.8-1.4 4.6-3 1.8-1.7 3.8-3 4.6-3 1.8 0 5.8-4 4.9-4.8-.4-.4-1.4.3-2.2 1.5-.9 1.3-1.8 2.3-2.2 2.3-1.1 0-.6-5.9.7-7.2.6-.6 1.2-1.7 1.2-2.3 0-1.3-5.4-5.5-7-5.5-.6 0-1-.8-.8-1.8.1-.9-.1-2.3-.5-3-1-1.5-4.9-1.6-6.4-.1-.8.8-1.7.7-3.4-.5-3.1-2.1-3.9-2-3.9.4 0 1.1-.7 2-1.5 2-.7 0-1.8.7-2.3 1.6-.7 1.3-1.3 1.4-3.1.5-1.7-1-1.9-1.5-1.1-3.1.6-1.1 1.5-2 2-2 1.5 0 2.4-7.1 1.1-9.1-.9-1.6-.7-2 1.6-2.5 1.4-.4 3.4-.2 4.3.4 1.3.8 2.1.7 3.2-.5 1.4-1.3 1.9-1.3 4.4 0 1.6.8 3.5 1.2 4.2 1 .7-.3 1.9.1 2.7.7 1.1.9 1.8 1 2.9.1 1-.9 1.5-.8 2 .4.8 2.2 5.1 1.9 6.7-.5.8-1.2 2.7-2.1 4.7-2.2 1.7-.1 3.2-.8 3.2-1.4 0-.7.5-2.5 1-4 1-2.5 1.2-2.6 2.9-1 1.1 1 1.6 2.5 1.4 4-.4 2 .1 2.6 3.1 3.7 2 .7 3.6 1.8 3.6 2.4.1 3 1.7 3.7 5.4 2.5 3.1-1 4.7-.9 10.9 1 4 1.2 8 2.9 8.9 3.7.9.8 2.1 1.2 2.7.9 1.4-.9 4.1 3.4 4.1 6.6 0 1.5.5 3 1.1 3.4.6.3.9 1.7.6 3-.6 3.3 2 5.5 3.8 3.1.7-.9 2-1.7 2.9-1.7.9 0 1.6-.5 1.6-1.1 0-.8.4-.8 1.4 0 1 .9 1.6.9 2.1.1.4-.7 1.1-.8 1.8-.2.7.5 3 1.3 5.2 1.6 4 .8 9.9 5.2 8.9 6.8-.3.4.6.4 2-.2 1.4-.5 3.3-.7 4.1-.4 1.7.7 2 3 .5 3.9-1.7 1 .1 3.9 5.8 9.2 3.4 3.1 6.1 4.8 6.7 4.3 1.4-1.1 11.3-1 15.4.2 2.9.9 3.6.8 4.7-.7s1.6-1.6 2.9-.5c1.3 1.1 1.7.8 2.6-1.8.6-1.7 1.9-3.4 3-3.7 1-.4 2.3-1.4 2.8-2.4 1-1.9.9-1.9-7.2-2.5-4.8-.4-9.7-2.8-9.7-4.7 0-.8-.5-.8-1.5.1-.8.6-2 .8-2.7.4-.6-.4-3.2-.8-5.6-.8-4-.1-4.6-.4-6.1-3.6-1.4-3-2.1-3.5-5-3.5s-3.6-.4-4.2-2.7c-1.7-6.4-6.6-9.1-20.6-11.5-1.8-.3-3.3-.9-3.3-1.3 0-1.3-3.6-1.8-5.4-.8-1.9 1-8-2.6-7.3-4.5.5-1.6-7.4-9.7-9.5-9.7-1 0-1.8-.4-1.8-.9s-1.6-1.8-3.5-3c-1.9-1.1-3.5-2.7-3.5-3.5 0-.7-.7-1.6-1.5-2-.8-.3-1.5-1.2-1.5-1.9 0-1.2-12.2-7.7-14.3-7.7-.4 0-.7 2-.7 4.5 0 5.8-1.8 9.7-4.1 9-.9-.3-2-.1-2.4.5-1.2 1.9-2.2 1-2.9-2.3-.5-2.5-.9-2.9-1.6-1.7-.8 1.3-1.1 1.3-2.2-.2-.7-.9-3.2-2.8-5.6-4.1-3.2-1.8-3.9-2.6-2.8-3 1.8-.7 2.1-5.3.6-7.7-.8-1.3-1-1.3-1-.1 0 2.3-2.2-.3-3.4-4.1-.9-2.8-1.7-3.4-4.6-3.6-1.9-.2-4.1-.9-4.9-1.5-1.1-.9-1.3-.9-.8 0 .9 1.4-4.2 1.6-8.8.2-1.6-.4-5.8-1.3-9.2-2-3.5-.6-6.8-1.8-7.4-2.5-.8-1-1.4-.9-3 .7-1 1-1.9 2.3-1.9 2.9 0 .5-1.1 1-2.4 1-2.2 0-2.4.4-2.1 3.5.3 3-.1 3.6-2 4.1-1.3.3-3.4.3-4.6-.1-1.8-.6-2.1-.4-1.6.9.9 2.2-3 4.8-5.4 3.5-1.6-.8-1.8-.6-1.6 1.2.1 1.2-.4 2.4-1.1 2.6-.7.3-1-.1-.6-1 .4-1.1-.1-1.3-2-1-1.8.4-2.8-.1-4.1-2.1-1.5-2.3-2.2-2.5-5.6-2-4.1.7-4.1.6-5.3-4.9-.6-2.8-3.1-3.7-3.9-1.5-.3 1-.7 1-2-.1-1-.7-1.7-1-1.7-.5s-.5.1-1.1-.9c-.8-1.4-1.4-1.6-2.5-.6-.7.6-2 .9-2.9.5-.9-.3-1.9.3-2.6 1.7-1.5 2.7-4.5 5.7-5.9 5.7-.5 0-1 .4-1 .9 0 .6-1.5.5-3.6-.1-2-.5-3.8-.7-4.1-.4-.3.3-1.9-.6-3.5-1.9-1.6-1.3-4.4-2.7-6.3-3.1-1.9-.3-3.5-1.2-3.5-1.9 0-.8-.8-1.1-1.9-.8-1 .3-2.8 0-3.9-.6-1.5-.8-2.3-.8-2.8 0-.5.9-1.1.7-2-.5-.8-1.1-1.4-1.3-1.9-.7-1.2 2-2.5 1.1-2.5-1.7 0-1.5-.6-3.4-1.2-4.1-1.1-1-1-1.1.3-.6 1.9.7 5.6-3 4-4-.6-.3-1.6-.3-2.1 0-.6.3-1.3-.1-1.6-1-.5-1.3-.9-1.4-1.5-.4-.6 1-1 .9-1.5-.5-.5-1.2-.2-2.2.9-2.7.9-.6 1.3-1.7 1-2.9-.4-1.4.3-3 1.7-4.5 1.8-1.9 2-2.5.8-2.5-.9 0-2.1 1.3-2.7 2.8-2 4.9-6 8.4-8.7 7.8-1.9-.5-2.4-.2-2.4 1.3 0 1.1-.4 2.3-1 2.6-.5.3-1 1.7-1 3.1 0 1.4-.6 2.4-1.4 2.4-1.3 0-2.6 2-2.6 4.1 0 .5 1.8.9 3.9.9 2.6 0 4.1.5 4.5 1.6.3.8.2 1.2-.3.9-.5-.3-1.2.4-1.6 1.5-.3 1.1-1.2 2-1.8 2-.7 0-1.8.9-2.4 1.9-1.3 2.1-5.3 1.8-5.3-.4s-6.7-6.5-10.1-6.5c-1.8 0-2.9-.3-2.6-.7.4-.3.2-1.2-.5-2-.6-.7-.9-1.5-.7-1.6.2-.2 1.6-1.1 3.2-2 2.1-1.4 2.5-2.2 1.8-3.4-.5-.9-.5-2.9-.1-4.4.5-1.7.4-3.1-.3-3.9-.9-.8-.8-1.5.6-2.4 1.7-1.3 1.4-4.6-.4-4.6-.5 0-1.3-.8-1.6-1.8-.4-.9-1.7-3.3-2.9-5.3-1.4-2.2-2-4.5-1.7-6.1.3-1.5-.2-3.7-1.2-5.2-1.7-2.5-1.7-2.7 0-4 1-.7 1.8-2.7 1.9-4.4.1-2.6.5-3.2 2.4-3.2 2.6 0 6.1-3.5 6.2-6.3 0-.9.5-1.7 1-1.7.6 0 1-.7 1-1.5 0-.9.9-1.5 2.3-1.5 2.9 0 6.2-5.1 4.5-6.8-.8-.8-.8-1.5.2-2.7 1-1.2 1-2.1.1-4.1-1.4-3.2-1.4-3.4.4-3.4.8 0 1.5-.8 1.5-1.7 0-.9.7-2.4 1.6-3.4 1.3-1.5 1.4-2.3.4-5.4-.9-2.7-.9-4.4 0-6.8.9-2.7.8-3.4-.7-4.7-1.8-1.4-1.8-1.6 0-3.3 1.3-1.3 1.7-2.6 1.2-4-2.1-7.3-1.8-9.2 1.9-12.5 2-1.7 3.6-3.8 3.6-4.6 0-.7 1.1-1.7 2.4-2 2.7-.7 4-4 2.1-5.6-1-.8-1.4-.7-1.7.2-.6 1.7-4.8-6.5-4.8-9.2 0-1.2.4-1.8 1-1.5.5.3 1.2-.7 1.6-2.2.4-1.5 1.2-3.1 1.8-3.5.8-.5.8-1-.1-1.9-.8-.8-1.3-.6-1.7.9-.6 1.8-1.5 2-9.3 1.8-9.2-.1-8.9-.3-11.5 6.1-.7 1.8-1.7 3.3-2.2 3.3-.4 0-.5 1.5-.2 3.4.6 2.9.2 3.8-3.4 7.5-2.2 2.2-4 4.6-4 5.1 0 .6-.7 1-1.6 1-1.1 0-1.4.6-.9 2.1.6 1.9.4 2.1-1.9 1.7-1.6-.3-2.5-.1-2.3.5.4 1.2-2.8 4.7-4.3 4.7-.5 0-1 .4-1 .9 0 1.2-1.9 1.8-8.4 2.7-4.2.6-4.8.5-4.3-.9.4-1.1-.1-1.7-1.6-1.9-1.2-.2-2.2-1-2.3-1.8-.2-3.5-.5-3.9-1.9-3.3-.9.3-1.5.2-1.4-.3.4-2.5-.5-3.6-5.4-6.4-2.9-1.6-6.6-4.4-8.2-6.1-1.7-1.8-2.5-2.9-2-2.6.7.3 1.6-2 2.3-5.9 1.2-6.2 1.1-6.5-1.4-10.4-2.1-3.2-3.5-4.1-6.5-4.6-4.7-.8-7.2-2.5-7.4-5-.3-4.4-7.3-12.3-11.9-13.4-1.2-.3-2.7-1.8-3.4-3.2-.7-1.5-2.1-3-3.2-3.3-1-.3-2.4-2.1-3-4-1-3-1.4-3.4-3.9-2.9-2 .4-3 .1-3.4-1-.4-.9-1.3-1.6-2-1.6-.8 0-2.6-.9-4.1-2.1-1.8-1.4-2.6-1.6-2.6-.7 0 1-.2 1-.9-.1-.8-1.2-1.2-1.2-2.5-.2-.9.8-3.1 1.1-5.1.9-2.8-.3-3.4-.1-3 1 .6 1.5-2.3 1.3-8.4-.4-1.6-.5-2.2-.4-1.8.3 1.2 1.9-3.5.2-7.2-2.6-4.2-3.2-5.8-3.4-7.5-1-1 1.5-2 1.8-4 1.3-1.4-.3-2.6-1.1-2.6-1.6 0-.6-.6-.8-1.4-.5-1.6.6-3.8-1.5-4.3-4.2-1.1-5.2-1-5.8.7-5.4 1 .3 2.1 0 2.4-.6.4-.6 1.5-1.1 2.4-1.1.9 0 3-.7 4.6-1.5 1.6-.9 3.6-1.3 4.3-1 1.8.6 6-3.6 6.9-7 .5-1.9 1.2-2.5 2.4-2.2 1.5.4 1.9-.5 2.4-5.4.4-3.3 1.1-5.9 1.7-5.9.5 0 .8-1.2.7-2.8-.2-2.7 1.7-7.1 3.5-8.3 1.3-.9 0-5.9-1.6-5.9-2.3 0-6-4.8-6.2-8.1-.2-2.1.6-4.6 2.2-7 2-3.1 2.3-4.1 1.3-5.8-.9-1.7-.8-2.1.5-2.1 1.2 0 1.3-.4.6-1.9-.6-1-.7-2.1-.4-2.5.3-.3-.1-.6-.9-.6-2.1 0-3.4-5.1-1.6-6.5 1.8-1.4 1.9-18.5.1-18.5-1.9 0-1.6-1.7.7-4 1.4-1.4 2.8-1.8 4.9-1.4 2.5.5 3.3 0 6.1-3.5 3.6-4.4 5-5 7-2.6 1.1 1.3 1.6 1.3 3.4.2 3.3-2.1 6.7-2.7 7.2-1.3.8 2 6.6 1.7 8.6-.4 1-1.1 1.8-2.4 1.8-3 0-.7.3-1 .8-.8 5.8 2.9 6.3 3.3 5.8 5.1-.6 2.6 4.7 7.7 8 7.7 1.6 0 2.8.8 3.6 2.5.7 1.6 1.9 2.5 3.4 2.5 1.3 0 3.2.9 4.3 2.1l1.9 2.1 1.1-2.1c1.4-2.5 7.1-3 7.1-.7 0 .8.9 1.7 1.9 2.1 2.3.7 3.6 2.2 4.6 5.4.7 2.2.5 2.3-3.4 1.7-3.1-.4-4.1-.2-4.1.8 0 1.8-2.6 2.7-5.5 2-2.3-.6-2.3-.5.8 5.5 1.7 3.3 3.9 6.3 4.9 6.7 1 .3 3.1 2.8 4.6 5.6 1.5 2.8 3.2 6 3.9 7.2.7 1.2 2.3 2.8 3.6 3.5 1.3.7 3 2.5 3.8 4 3.2 6.4 6.2 10 9.1 11.2 2.6 1.1 3.2 1 4-.4.5-1 2.1-1.7 3.8-1.7 1.9 0 3-.5 3-1.4 0-3.3 16 .7 20 4.9 2.7 2.9 4.6 11.5 2.8 12.6-.9.6-.9 1.1.1 2.3 1.1 1.4 1.1 1.6-.4 1.6-1.7 0-1.7.1-.1 1.9 1.5 1.6 2.2 1.8 3.7.8 1.5-.9 2.3-.7 4.6 1.3 2.4 2.2 2.5 2.2.9.2-1.7-1.9-1.7-2.2-.3-2.2 1 0 1.9-1.1 2.3-2.7.4-1.4 1.4-3.4 2.2-4.4 2.1-2.4 2.4-4.8 1-8.3-1-2.5-.9-3 1.3-4.7 1.6-1.2 2.4-2.8 2.4-4.8.1-1.7-.3-3.1-.7-3.1-.5 0-1.3-1.1-1.9-2.4-1-2.1-1.7-2.4-4.5-1.9-2.7.5-3.8.1-5.4-1.8-1-1.3-1.9-3.2-2-4.2 0-.9-.7-1.7-1.5-1.7-1.3 0-3.9-3.4-4-5.3 0-.5-1-1.6-2.2-2.5-1.2-.9-2.4-3-2.7-4.5-.3-1.6-1-3.4-1.5-4.1-.7-.9-.7-1.6 0-2.3.8-.8 0-1.1-2.6-1-2.7.1-4.2-.5-5.5-2.1-1-1.1-2-1.8-2.4-1.5-.3.4-.6-.1-.6-1 0-.8-.3-2.3-.7-3.3-.5-1.4-.3-1.6 1.1-1.1 1.3.5 1.9.1 2.3-1.2.3-1.2 1.1-1.7 1.9-1.4 2.7 1 1.5-3.6-2-7.4-2.6-3-3.3-4.4-2.9-6.8.4-2.5 0-3.3-2-4.4-2.5-1.3-4.7-4.9-4.7-7.6 0-.8-1.9-2.4-4.2-3.6-5.2-2.7-10.1-7.7-9.3-9.6.8-2.2-.4-3.6-2-2.3-1 .8-1.9.8-3.6 0-1.8-1-2.4-.9-3.1.4-1.2 2.1-2.5 2-3.3-.3-.3-1-1.7-2.2-3-2.5-2.1-.5-2.5-1.3-2.5-4.1 0-3.8-3.1-6.5-5.3-4.7-1.6 1.4-7.7.9-10.4-.9-1.7-1-2.3-2.3-2.3-5 0-3.8-3.5-8.5-8.1-10.9-1.7-1-1.9-1.4-.8-2.1 1.1-.6.9-1.4-.9-3.8-1.2-1.7-1.8-3.1-1.2-3.1.8 0 .9-1.1.5-3.1-.5-2.2-.4-2.9.4-2.5.7.5 1.1-.4 1.2-2.6.1-4.6.6-6.9 1.8-8.1.6-.6.6-1.8.1-3.2-.6-1.6-.5-2.7.4-3.4.7-.6 1.1-2.2.8-3.6-.4-2.6-2.2-4.5-2.2-2.5 0 1.2-4-.5-5.1-2.2-.3-.4-2-.5-3.7-.2-2.7.6-3.2 1.1-3.2 3.5 0 3.4-3.1 6.9-6 6.9-1.1 0-2.9.9-4.1 2.1-1.1 1.1-3.7 2.8-5.7 3.6-4.3 1.8-7.2 4.5-7.2 6.9 0 1-.5 1.4-1.5 1.1-.8-.4-1.7-.2-2 .3-.8 1.3-6.6 1.3-8.5 0-1-.6-1.1-1-.2-1 .6 0 1.2-.7 1.2-1.5 0-.9-.9-1.5-2.1-1.5-1.9 0-2-.4-1.5-3.4.4-2.2.2-3.7-.5-4.2-.7-.4-.9-.3-.6.3 1 1.6-4.7 1-6.7-.6-.9-.7-1.6-1.9-1.6-2.7 0-1.9-4-6-8-8.1-2.8-1.5-5.7-1.9-13.7-1.8-9.4 0-10.3-.2-11.2-2.1-.6-1.3-2.6-2.6-5.5-3.4-2.6-.7-4.9-1.7-5.2-2.1-.3-.5-1.2-.9-1.9-.9-.8 0-3.5-2-5.9-4.5-2.5-2.5-4.1-4.5-3.6-4.5.6 0 1-.6 1-1.3 0-2-3-7.7-4-7.7-.5 0-1.1-.8-1.5-1.8-.7-2.5-5.5-4.8-5.5-2.7 0 1.4-3.7 3.2-5.5 2.6-.5-.2-3.2-.5-5.9-.8-2.7-.2-6.7-1.4-9-2.6-2.5-1.3-5.9-2.2-8.8-2.2-4.1 0-5.2-.5-7.8-3.3-1.7-1.9-2.8-3.8-2.4-4.3.9-1.6-.6-4.8-2.6-5.4-1.1-.4-3.4-2.6-5-5.1-3.4-4.8-4.4-5.3-5.4-2.7zm2.2 78c1.9-2.3 7.1-.4 7.2 2.6 0 .5-.9.5-2 .2-1.1-.4-2-.2-2 .4 0 .6-.7.8-1.6.4-1.1-.4-2.2.1-3.1 1.3-1.2 1.6-1.5 1.7-2.3.4-.8-1.3-1-1.2-1 .2 0 1-.6 1.8-1.4 1.8-.8 0-1.7.9-2.1 1.9-.6 2.1-5.5 5.7-5.5 4.1 0-.5.9-1.5 2-2.2 1.1-.7 2-1.7 2-2.2 0-1.2 5.3-6.1 6.3-5.8 1.2.4.8-1.6-.5-2.1-1-.4-.9-.8.2-1.6s1.6-.6 2 .5c.5 1.4.7 1.4 1.8.1zm118.1 2.6c1.6-1.9 2.1-2 3-.9.7.8.8 1.7.3 2-1.7 1-2.1 5.6-.5 5.6.8 0 1.2.4.8.9-.3.6.4 1.5 1.5 2.1 1.1.6 2 1.9 2 2.9 0 1.7 3.6 5.9 4.4 5 .2-.2.7-1.4 1-2.7.5-1.5.3-2.4-.8-2.8-.9-.3-1.6-1.8-1.6-3.2v-2.6l2.8 2.7c4 3.9 6.9 2.8 7.8-2.9.4-2.8 1-4.1 1.7-3.7.6.4 2.4.6 3.9.5 2.3-.2 2.8.2 3.3 2.5.3 1.6 1 4.1 1.5 5.6.7 2.3.4 3.2-1.4 5.2-1.3 1.4-3.1 2.5-4 2.5-1 0-1.6.9-1.6 2.5 0 1.4-.4 2.5-1 2.5-2.1 0-3.2 4.1-2 7.1.7 1.6 1.6 2.9 2 2.9.4 0 1.7.9 3 2l2.2 1.9-4.1 4.3c-4.3 4.5-4.9 5.8-2.8 5.8.7 0 .4.5-.5 1.1-1.3.7-2.6.5-4.7-.6-3.9-2-5-1.9-4.4.4.5 2.1-3.5 3.7-5.1 2.1-.6-.6-2-1-3.2-1-2 0-3.4-1.7-3.4-4.1 0-.5 1.1-.9 2.5-.9 2.7 0 3-.6 1.6-2.9-.6-.9-2.6-1.5-5.1-1.5-3.3-.1-4.3-.6-5.5-2.6-2.9-5.1-3.7-7.4-2.6-7.8.6-.2 2.1-1.2 3.3-2.2 1.8-1.6 2-1.9.7-2-.9 0-1.9.7-2.3 1.5-.5 1.3-.9 1.3-2.6.3-2.4-1.5-2.7-5.8-.4-5.8 1.2 0 1.5-.7 1.2-2.4-.4-1.9.2-2.7 2.8-4 2.9-1.3 3.2-1.9 2.5-3.8-.4-1.3-.6-2.8-.4-3.5.2-.6-.3-2.5-1.1-4.2-.9-1.6-1.6-4-1.6-5.3.1-2.2.2-2.2 2.6.7l2.5 3 1.8-2.2zm31.9-1c.7.8.6 1.8-.4 3.1-1.1 1.6-1.4 1.7-1.4.4 0-.9-.3-2.3-.6-3.2-.7-1.9.9-2.1 2.4-.3zm-39.3 57.7c.3.5.1 1-.4 1-.6 0-1.1-.5-1.1-1 0-.6.2-1 .4-1 .3 0 .8.4 1.1 1zm-165.2 130.2c.3 1 .2 1.7-.2 1.6-1.9-.2-2.2.4-1 1.9 1.3 1.5 1.2 1.5-.7.5-1.2-.6-2.4-2.2-2.6-3.4-.3-1.8 0-2.3 1.8-2.3 1.3 0 2.5.7 2.7 1.7zm-7.4 2.9c-2.4 1.5-4.5 1.1-2.4-.5 1.1-.8 2.4-1.2 2.8-.9.5.3.3.9-.4 1.4zm327.1 38.9c0 .5-.5 1-1.1 1-.5 0-.7-.5-.4-1 .3-.6.8-1 1.1-1 .2 0 .4.4.4 1zm-211 40.5c.7.9.8 1.5.2 1.5-.5 0-1.2-.7-1.6-1.5-.3-.8-.4-1.5-.2-1.5s.9.7 1.6 1.5zm313.5 195.5c.3.5.2 1-.4 1-.5 0-1.3-.5-1.6-1-.3-.6-.2-1 .4-1 .5 0 1.3.4 1.6 1zm9.6 3c1.1 0 1.1.2-.1 1-1.2.8-1.1 1.3.8 3.3l2.3 2.5-3.1 2.2-3.1 2.2-2.1-2.2c-1.7-1.8-1.8-2.4-.7-3.1.8-.5 1-.9.4-.9-.5 0-.2-.7.9-1.5 1.4-1 1.7-2.1 1.2-4.2-.6-2.5-.5-2.6.7-1.1.8 1 2 1.8 2.8 1.8zm-32.1 23c0 .5-.2 1-.4 1-.3 0-.8-.5-1.1-1-.3-.6-.1-1 .4-1 .6 0 1.1.4 1.1 1zm-434 16c0 .5-.4 1-1 1-.5 0-1-.5-1-1 0-.6.5-1 1-1 .6 0 1 .4 1 1zm500.7 15.2c.6 1.3 1.4 3.1 1.7 4.2.5 1.3 1.2 1.7 3 1.2 1.6-.4 2.9.1 4.5 1.8 2.6 2.8 1.5 3.6-3.7 2.8-3.2-.5-3.3-.4-3 2.4.2 2.1.9 2.9 2.3 3 1.1.1 2.5.2 3.2.3.6.1 1.4 1 1.8 2 .3 1.1 1.4 2.2 2.3 2.4.9.3-.2.5-2.5.6-2.9.1-5 .8-6.3 2.1-1.2 1.2-2.4 1.9-2.8 1.7-.4-.3-2 1.3-3.7 3.4-1.6 2.1-3.6 3.8-4.3 3.9-.9 0-1 .5-.2 1.9 1.3 2.6-.7 3.3-3.7 1.3-1.8-1.1-2.9-1.2-5.4-.3-4.1 1.4-4.2 1.4-3.5-.4.3-.9-.3-2-1.5-2.8-1.2-.6-3-3.1-4-5.5-2.3-5.2-2.4-6.6-.5-5.9 1.7.7 3.8-4.5 2.9-7-.5-1.3-.2-1.5 1.7-1 1.3.3 3.2.2 4.2-.4 1.4-.8 1.6-1.4.8-2.9-.8-1.6-.7-2 .4-2 .9 0 1.3-.6 1.1-1.3-1-2.6 5.4-7.1 9.1-6.4 1.4.2 2.7 0 3-.4.9-1.5 2-1 3.1 1.3zm-291.7 64.9c0 .6-.4.7-1 .4-.5-.3-1-1.1-1-1.6 0-.6.5-.7 1-.4.6.3 1 1.1 1 1.6zm-1 6.4c1.1 1.3.6 3.5-.8 3.5-.4 0-1.2-1.1-1.9-2.5-.9-2-.8-2.5.2-2.5.7 0 1.8.7 2.5 1.5zm306.5 2.5c.3.5.2 1-.4 1-.5 0-1.3-.5-1.6-1-.3-.6-.2-1 .4-1 .5 0 1.3.4 1.6 1zm-195.5 81c0 .5-.2 1-.4 1-.3 0-.8-.5-1.1-1-.3-.6-.1-1 .4-1 .6 0 1.1.4 1.1 1zm-17.1 77.4c1.2 1.4.5 4.6-.9 4.6-1.5 0-2.4-2.4-1.1-2.8.8-.3.6-.8-.6-1.8-1.6-1.2-1.6-1.3-.2-1.4.9 0 2.2.6 2.8 1.4z"/><path d="M652.228 635.403c.4.6 1.1.8 1.6.5 1.4-.9 1.1-1.5-.7-1.5-.8 0-1.2.5-.9 1zM142.728 29.403c0 1.3-.5 1.8-1.5 1.4-1.1-.5-1.3-.2-.9 1 1 2.6 4.4 2 4.4-.8 0-1.3.6-2.7 1.3-2.9.6-.3.2-.6-1-.6-1.6-.1-2.3.5-2.3 1.9zM131.228 36.603c.5 1.3-.2 1.8-3 2.4-2.1.4-4.7 1.7-5.8 3-1.1 1.3-2.9 2.4-3.9 2.4s-2.3.9-3 2c-.7 1.1-2.3 2-3.5 2-2.6 0-2.6 0-1.4 3.3.8 1.9.6 2.7-.5 3.1-.8.3-1.4 1.2-1.4 2 0 1.2-.7 1.4-2.8 1-1.9-.4-4.1.1-6.6 1.6-2.5 1.3-4.2 1.8-5 1.1-2.2-1.8-6.5-1.7-7.9.2-1.2 1.7-1.9 1.8-7.2.8-6.5-1.2-8.3-.5-6.6 2.7 1.6 3 1.4 9.2-.3 9.8-.8.3-1.9 1.9-2.5 3.5-.5 1.6-1.7 2.9-2.5 2.9-.9 0-1.6.9-1.6 2s-.6 2-1.2 2c-.9 0-.8.4.2 1 2.2 1.4 3 1.2 3-.6 0-2.5 6.8-10.2 10.2-11.3 1.7-.6 4.3-1.1 5.7-1 1.8 0 1.1.5-2.5 1.6-5 1.5-5.1 1.5-7 7.6-1.6 5.1-2.3 6.2-4.6 6.8-2.1.5-3 .3-3.7-.9-.9-1.6-1-1.5-1.7.1-.4 1-.8 2.8-.9 4-.1 1.2-.3 2.5-.4 2.9 0 .5-1.3.8-2.8.9-2.5 0-2.6.1-.8.9 2 .9 2 .9-.2 1.5-1.4.5-2.3 1.7-2.5 3.4-.2 2-.8 2.6-2.8 2.6-2.1 0-2.6-.5-2.8-3.4-.3-3.2-.2-3.3 2.2-2.7 3.4.8 3.6-1.8.4-4.5-2.6-2.1-4.8-2.5-4.8-.8 0 .7-1.9 1-5.3.7-3.4-.2-6 .2-6.9 1-2.5 2-7.1-.5-6.5-3.5.3-1.5-.1-2.3-.9-2.3s-1.4-.9-1.4-2.1c0-2.9-1.8-5.9-3.3-5.4-.6.3-2.5-.4-4.1-1.4l-2.9-1.9-2.1 3.1c-1.4 2-3.2 3.3-4.9 3.5-2.5.3-2.6.1-2.1-2.7.6-2.6.3-3.2-2.2-4.3-1.6-.7-3.7-2.2-4.7-3.3-1.8-2-1.8-2-.6.5.7 1.4 2.1 3.7 3.2 5.1 1.6 2.2 1.7 3 .7 4.6-1 1.6-.8 3.3 1.3 9.9 1.9 5.8 2.4 8.8 1.8 11.4-.5 2.4-.2 4.3.8 6.2 1.7 2.8 1.1 4.5-1 3.2-.7-.4-2.4-.8-3.7-.9-1.9-.1-2.3.4-2.1 2.5.2 1.4-.1 3.5-.5 4.8-.5 1.4-.3 2.9.4 3.7.7.8 1 2.4.7 3.5-.3 1.1-.1 1.8.3 1.5.5-.3 1.3.2 1.8 1.2.8 1.3 1.3 1.5 2.4.5 1.1-.9 1.7-.9 2.6 0 .8.8 1.5.8 2.7-.2 1.3-1.1 1.9-1 3.4.4 2.7 2.4 7.3 1.2 6.6-1.8-.7-3 .4-4 6-5.3 8-1.8 10.2-1.6 10.9 1 .4 1.7.8 1.9 1.8.9 1.4-1.4 5.4-1.6 6.3-.3.3.5-.4 1.6-1.6 2.5-1.2.8-1.8 1.9-1.4 2.5 2 3.3 1.3 6.9-2 10.1-1.8 1.8-3.8 3-4.3 2.6-.5-.3-1.2 1.3-1.6 3.5-.7 4.3-1.3 4.5-7 2.3-.9-.4-1.6-.1-1.6.6 0 .8-1 .9-3 .5-2.7-.6-3-.4-3 1.9 0 2.4-.3 2.6-4.4 2.6-7.9 0-9.2 5.4-1.3 5.6 3.6.1 5.7.9 9.9 4 2.9 2.2 5.8 3.8 6.4 3.6.6-.1 1.7.5 2.4 1.3s2.2 1.5 3.3 1.5c1.1 0 3.5 1.5 5.2 3.2 1.7 1.8 4.6 4.6 6.5 6.1 1.9 1.6 4.2 4 5.1 5.5 1 1.8 2.5 2.8 4.5 3 1.6.1 3.8.7 5 1.3 1.1.6 2.4.9 3 .7.5-.1 2.2.6 3.7 1.6 2.4 1.6 3 1.7 3.7.5.5-.7 1-1.1 1.2-.9 2 3.1 2.8 5.6 2.8 8.5v3.4l3.5-2c3.8-2.3 6.5-5.9 4.4-5.9-.7 0-.1-1.1 1.2-2.3 2.1-2.1 2.7-2.2 4.6-1.1 1.8 1.1 2.2 1.1 2.7-.1.3-.9 1.1-1.4 1.8-1.3 1.5.3 2-5.9.7-6.8-.5-.3-.9-1.1-.9-1.7.1-.7 1-.1 2 1.2 2 2.3 2 2.3 2 .1 0-3.6 1.8-5.7 5.5-6.4 1.9-.4 3.5-1.2 3.5-1.8 0-.6 1-.7 2.8-.3 1.5.4 3.4.8 4.2.8.8 0 2 .4 2.7.9.7.5 1.4.5 1.8-.2.3-.5 1.9-1 3.6-1 1.6 0 2.9-.5 2.9-1.1 0-.5.6-.7 1.3-.3.9.6.9.4-.1-.8-1.3-1.6-.6-5.2.8-4.3 1.6 1 3.2-2.3 2.1-4.4-.6-1.1-1.1-2.9-1.1-4.1 0-1.1-.7-2.3-1.5-2.6-1.9-.8-1.9-4.1 0-7.8.8-1.5 1.5-3.9 1.5-5.1 0-1.3.6-2.5 1.3-2.8.7-.2 1.2-2.1 1.2-4.8 0-3.6.4-4.6 2.3-5.4 1.2-.5 2.2-1.9 2.2-2.9 0-1.5-.3-1.7-1.2-.8-.8.8-1.5.9-2.5.1-.9-.8-1.3-.8-1.3 0 0 2.2-6 4.3-10.2 3.6-2.7-.5-4.3-.3-4.8.4-.5.9-1.3.9-3.3 0-2.3-1.1-2.7-1.8-2.7-5.6 0-2.4 1-6.7 2.2-9.5l2.1-5-2.9-2.3c-8.6-6.8-9.5-8-8.1-10.8 1.3-2.9 2.8-3.4 4.9-1.5.7.7 2.8 1.8 4.6 2.5 2.7.9 3.2.9 3.2-.4 0-.8-.7-2.1-1.5-2.9-.8-.9-1.5-2.3-1.5-3.3 0-2.4-5-4.7-6.1-2.9-.7 1-.9.9-.9-.4 0-1.2-.6-1.6-1.7-1.2-1 .2-.7-.1.7-.8 2.7-1.3 6-4.6 6-5.9 0-.4-.4-1.1-1-1.4-.5-.3-1-1.9-1-3.5 0-2.2-.9-3.5-3.7-5.4-3.8-2.6-5.6-2.6-4.7-.1.9 2.2-1.9 2.8-5.1 1.1-1.9-1-3.3-1.2-3.9-.6-1.4 1.4-6.6 1.3-6.6-.1 0-2.1 4.2-6.9 6.1-6.9 1 0 2.4.8 3.1 1.9.8 1.3 2 1.7 3.9 1.4 1.6-.2 3.7.1 4.8.7 1.7.8 2.8.5 6.2-1.7 2.3-1.6 5.6-3.6 7.4-4.5 4.6-2.4 7.7-7 6.9-10.2-.4-1.8-.2-2.6.7-2.6.7 0 2.1-.8 3.1-1.8 5.1-4.7 8.9-8.9 9.4-10.5.4-1.4.9-1.6 1.9-.7.8.7 2.2 1 3.2.8 1.2-.3.3-.9-2.5-1.8-3.2-1-4.5-1.1-5.4-.2-.9.9-1.6.8-3-.5-1.7-1.5-1.8-1.5-1.3-.1zm-80.5 71.7c0 .6-.4 1.3-1 1.6-.5.3-1-.1-1-.9 0-.9.5-1.6 1-1.6.6 0 1 .4 1 .9zm-.9 13.4c-1.3 1.3-1.5-2.1-.3-5 .6-1.5.8-1.3 1 1.1.2 1.6-.1 3.3-.7 3.9zm56.8 2.6c1 .7 1.1 1.3.1 3.1-1.3 2.4-2.4 1.8-3.5-1.8-.7-2.3.8-2.9 3.4-1.3zm-21.2 24.3c-.3.8-.6.5-.6-.6-.1-1.1.2-1.7.5-1.3.3.3.4 1.2.1 1.9zm-7.2 4.6c-.3.3-1.1 0-1.8-.7-.9-1-.8-1.1.6-.5 1 .3 1.5.9 1.2 1.2zm8.1 1.6c1.6 1.7 1.9 3.6.4 3.6-.5 0-.7.7-.4 1.5.4.8.1 1.5-.6 1.5-.9 0-.9.4-.2 1.2.5.7 1.3 2.4 1.7 3.8.8 2.4.7 2.4-1.8.7-1.4-.9-3.3-1.4-4.1-1.1-1.4.5-4.1-2.8-3-3.8.2-.3-.2-1.1-1-1.7-1.9-1.6-.1-5 2.4-4.4.9.2 2.2-.3 2.9-1.1 1.6-2 1.9-2 3.7-.2zm17.4 15.1c0 .7-.7 1.5-1.5 1.9-1.1.4-1.5-.2-1.5-2.6 0-2.6.2-2.9 1.5-1.8.8.7 1.5 1.8 1.5 2.5zm-17.5 3.5c2.7 0 3.2.9 1.3 2.8-1.7 1.7-4.1 1.5-3.5-.2.3-.8-.1-2-.9-2.6-.8-.7-1.4-1.8-1.4-2.4 0-.6.5-.3 1.1.6.5 1 2.1 1.8 3.4 1.8zM422.728 81.303c0 .6-1 1.1-2.2 1.2-2 0-2 .2.5 1.1 3.5 1.2 5.6-.2 3.2-2.2-1-.8-1.5-.9-1.5-.1z"/><path d="M59.428 86.503c.7.7 1.5 1 1.8.7.3-.3-.2-.9-1.2-1.2-1.4-.6-1.5-.5-.6.5zM56.728 89.403c0 .5.5 1 1 1 .6 0 1-.5 1-1 0-.6-.4-1-1-1-.5 0-1 .4-1 1zM113.228 178.403c-.3.5.1 1 1 1s1.3-.5 1-1c-.3-.6-.8-1-1-1-.2 0-.7.4-1 1zM110.128 188.003c.5 1.3 0 1.6-2.9 1.2-3.1-.4-3.5-.1-3.5 1.9 0 3.1 2.1 3.8 5.8 1.9 2.2-1.1 3-2.2 2.8-4.1 0-1.4-.7-2.5-1.5-2.5s-1.1.6-.7 1.6zM100.328 196.303c-.7 1.1 1.8 3.3 2.7 2.4.4-.3.7-1.2.7-2 0-1.5-2.6-1.8-3.4-.4zM524.728 269.403c0 1-.7 2.3-1.6 2.8-2.2 1.2-.9 3.2 1.6 2.5 1.1-.3 1.7-.9 1.4-1.4-.3-.5-.1-.9.5-.9s.8-.7.5-1.5c-.4-1 0-1.5 1.1-1.5.9 0 1.3-.5 1-1-1.1-1.8-4.5-1.1-4.5 1zM521.928 278.003c-.7.8-1 2.3-.7 3.4.4 1.4.2 2-.8 2-.8 0-1.8.7-2.1 1.6-.5 1.2-1.4 1.5-3.6 1-2.7-.5-3-.3-3 2.1 0 1.4 1.4 4.8 3 7.5 3.1 5 3.8 7.8 1.9 7.8-.6 0-.9.8-.7 1.8.3 1-.1 2.3-.9 3-.7.7-1.3 2.6-1.3 4.2 0 1.7-.3 3-.7 3-.5 0-2.1 1.2-3.7 2.7-2.8 2.4-2.9 2.6-1.2 3.9 1.1.8 3 1.1 4.8.7 2.1-.4 3.3-.1 4.3 1.3.8 1.1 1.5 1.4 1.5.8 0-.6 1.4-1.4 3-1.8 2.6-.5 3-1 3-3.7 0-2.9.2-3 3.1-2.4 2.9.7 3 .5 2.4-1.5-.5-1.4-.3-2 .3-1.6.6.3 2.2-.9 3.8-2.6 1.5-1.8 3-3.3 3.3-3.3.3 0 .6-.5.6-1 0-.6.3-1.5.6-2 1.5-2.6 1.9-6.8.8-8.2-1-1.1-1-1.6 0-2.3 2.2-1.3.1-10.4-2.4-10.9-1.1-.2-3.5-1.6-5.4-3.1-1.8-1.6-3.9-2.6-4.6-2.4-.7.3-1.6.1-2-.5-.8-1.5-1.7-1.3-3.3.5zM507.228 282.403c-.3.5-.2 1 .4 1 .5 0 1.3-.5 1.6-1 .3-.6.2-1-.4-1-.5 0-1.3.4-1.6 1zM115.328 301.203c-.2.4-.3 2.2-.2 4 .2 2.7-.1 3.3-1.5 2.9-1-.3-2 .1-2.3.9-.3.8-1.5 1.4-2.6 1.4s-2 .3-2 .7c0 .5-1.3 1.7-2.9 2.8-1.6 1-2.7 2.3-2.4 2.8.2.4 0 1.3-.5 2s-1.2 2.7-1.5 4.4c-.5 2.5-.3 3.3.8 3.3.9 0 1.5 1 1.6 2.2 0 1.3.3 1.7.6 1 .2-.6.9-1 1.4-.6.5.3.9.1.9-.4s1.5-1.5 3.3-2.3c1.7-.7 4.2-2.3 5.4-3.6 1.2-1.3 4.3-3.2 6.8-4.3 3.7-1.6 4.5-2.4 4.5-4.5 0-1.7 1.1-3.5 2.9-5.1 2.6-2.2 2.8-2.7 1.8-5.3-.9-2.4-1.4-2.8-2.8-2-1.1.6-2.7.5-4.4-.1-3.1-1.2-6.2-1.3-6.9-.2zM100.728 333.903c0 .8-.8 1.9-1.7 2.4-1.6 1-1.6 1 .3 1.1 1.9 0 4.4-1.7 4.4-3.1 0-.4-.7-.9-1.5-1.3-.9-.3-1.5 0-1.5.9zM520.428 337.903c.3.8.9 1.2 1.4.9 1.2-.7 1.1-1.1-.5-1.7-1-.4-1.3-.1-.9.8zM509.128 415.403c.1 1.6.4 3 .7 3 .9 0 1.7-3.2 1.2-4.8-.8-2.3-2-1.2-1.9 1.8zM512.728 413.303c0 .5.7 1.1 1.5 1.5.9.3 1.5 0 1.5-.9 0-.8-.7-1.5-1.5-1.5s-1.5.4-1.5.9zM500.928 424.603c-1.5 1.5-1.6 6.8-.2 6.8.6 0 .8 1.8.5 4.2-.7 5.6-1.4 7.8-2.5 7.8-.5 0-.4 1.3.1 3 .6 1.6 1.5 3 1.9 3 .4 0 .6.9.3 1.9-.3 1.4.2 2.1 1.9 2.6 1.2.5 2.8 1.4 3.3 2.2.8 1 2.2 1.2 5.3.7 3.8-.6 5-1.9 1.9-1.9-.7 0-1.3-1.8-1.5-4-.2-2.2-1.1-4.8-1.9-5.8-1.5-1.5-1.5-1.7 0-1.7 2.5 0 .1-5.8-2.5-6.2-2-.3-3.6-3.8-1.7-3.8 1.6 0 1-3-1.4-6.5-1.8-2.6-2.6-3.2-3.5-2.3zM616.728 482.403c0 .5.5 1 1 1 .6 0 1-.5 1-1 0-.6-.4-1-1-1-.5 0-1 .4-1 1zM185.228 550.503c-1.1.4-1.4.8-.7.8 1 .1 1 .6.2 2.1-1.1 2.1-.6 4 1 4 .9 0 2.6-6.8 1.9-7.4-.2-.2-1.3 0-2.4.5zM744.328 558.503c-1.7 1.7-1.8 2.2-.6 4.4 1.3 2.4 3 3.4 3 1.7 0-.7 3.1-.8 7.7-.3.7 0 1 .8.7 1.6-.9 2.3.4 6.2 2.3 7 2 .8 10.3 1.5 10.3.8 0-1.9-2.5-4.3-4.6-4.3-2.1 0-2.4-.3-1.8-2.5.4-1.5.2-2.5-.4-2.5-.6 0-1.9-1.4-2.9-3-.9-1.7-2.5-3-3.5-3-.9 0-2-.5-2.3-1-1-1.7-5.9-1-7.9 1.1zM155.028 563.103c-1.9.7-1.6 2.1.7 3.3 1.8.9 2 .8 2-1.5 0-2.5-.4-2.8-2.7-1.8zM157.928 571.803c0 1.8-.7 4.5-1.6 5.9-1.5 2.2-1.5 2.6-.1 4 2.3 2.4 3.5 6.3 2.3 7.5-1.3 1.3-.4 4.2 1.3 4.2.6 0 .8-.7.5-1.5-.3-.9.1-1.8.8-2.1 2.3-.9 2.7-4.5.6-5.1-2-.5-3.5-4.4-1.9-5.3.5-.4.7-1.4.3-2.3-.3-1-.2-2.3.4-3 .7-.8.5-1.9-.8-3.4l-1.8-2.3v3.4zM188.728 575.503c0 .5.5.7 1 .4.6-.3 1-.8 1-1.1 0-.2-.4-.4-1-.4-.5 0-1 .5-1 1.1zM774.328 578.903c.4 6.4 2.6 16.7 4.8 22.5 3 7.9 3.1 8.4 1.3 7.7-2.2-.8-2.2 1.6-.1 3.8 1.6 1.5 1.8 1.5 3.3 0 1.3-1.3 1.4-1.7.3-2.4-2-1.2-1-4.6 1.4-4.9 2-.3 5-4.9 3.9-6-.3-.3-.5-.2-.5.1 0 .4-2.2-1.7-5-4.6-4.4-4.6-4.7-5.2-2.9-5.5 1.2-.2 1.8-.9 1.5-1.7-.3-.8 0-1.5.6-1.7 2.1-.7-.4-4.9-4.2-6.8-2.1-1.1-4-2.8-4.3-3.7-.2-1-.2.4-.1 3.2zM150.928 584.003c.4 2.1 2.2 2.3 2.6.1.2-1-.3-1.7-1.3-1.7s-1.5.6-1.3 1.6zM686.728 667.803c0 .2.7.7 1.6 1 .8.3 1.2.2.9-.4-.6-1-2.5-1.4-2.5-.6zM334.728 690.903c0 1.6-.6 2.5-1.5 2.5-.8 0-1.5.6-1.5 1.4 0 1.1-.7 1.3-3 .6-2.4-.7-3-.6-3 .6 0 .8-.4 1.2-1 .9-.5-.3-1-.1-1 .5 0 .7-.8 2.8-1.7 4.8-1.2 2.5-1.4 3.7-.5 4 .7.2.9 1.6.7 3.5-.3 1.8-.2 2.6.1 1.9.5-1 1.2-1 3.2.4 1.5.9 3.3 2.3 4 3.2 1 1.4 1.2 1.3 1.2-.6 0-1.5.8-2.4 2.5-2.8 1.6-.4 2.5-1.3 2.5-2.5 0-1.1.6-2.2 1.4-2.5 1.5-.6 1.5-3.4-.2-7.4-.5-1.4-.6-3-.2-3.5 1.7-2.4 2-6.3.4-6.9-2.3-.9-2.4-.8-2.4 1.9z"/><path d="M341.928 692.603c-.8.8-.8 1.5-.1 2.4.8 1 .5 1.6-1 2.6-2.2 1.4-2.8 3.8-1 3.8.6 0 2.5-.8 4.2-1.8 1.8-.9 3.4-1.8 3.5-1.9.2-.1.1-1.1-.3-2.2-.8-2.8-3.8-4.4-5.3-2.9zM672.728 706.703c0 2 .5 2.7 2 2.7 1.1 0 2-.2 2-.5s-.9-1.5-2-2.7l-2-2.2v2.7zM679.728 707.303c0 .5.7 1.2 1.6 1.5 1.4.5 1.5.4.4-.9-1.4-1.7-2-1.9-2-.6zM459.728 789.903c0 1.2 3.2 6.7 3.6 6.2.7-.6-1.3-5.4-2.5-6.2-.6-.3-1.1-.3-1.1 0zM465.728 801.203c0 .5-1.4 1.2-3.1 1.6-3.5.7-3.5 3.1-.1 3 1.3 0 2.4.7 2.8 1.8.3 1 1 1.8 1.5 1.8 1.3 0 1.1-1.4-.3-2.8-.9-.9-.9-1.2 0-1.2 1.4 0 1.6-3.6.2-4.5-.5-.3-1-.2-1 .3zM471.128 813.903c-.4.9-.4 2.7-.1 4.1.3 2 0 2.8-1.4 3.1-1.1.3-1.9 1.1-1.9 1.8s-.6 1.5-1.2 1.8c-2.2.8 2.4 4.4 6.4 5.1 3.3.6 3.7.5 3.2-1.1-.5-1.7-.5-1.7.9-.1.8 1 1.9 1.8 2.5 1.8.5 0 1.3 1.1 1.6 2.4 1.4 5.7 13.3 5.4 15.1-.4.4-1.1 1.5-2 2.7-2 2.2 0 7.8-3 7.8-4.2 0-.4-.8-1.2-1.7-1.7-1.7-1-1.7-1.2.1-2.5 1.9-1.5 1.4-3.6-.8-3.6-.6 0-1.8-.6-2.4-1.2-.8-.8-4.9-1.3-11.8-1.4-8.8 0-10.8-.3-11.6-1.7-1.2-2.2-6.6-2.3-7.4-.2zm7 7.4c-.6.6-2.4-1.9-2.4-3.4.1-.6.7-.1 1.5.9.8 1.1 1.2 2.2.9 2.5zM501.928 923.903c1.2 1.4 2.3 2.5 2.5 2.5.2 0-.4-1.1-1.3-2.5s-2-2.5-2.5-2.5.1 1.1 1.3 2.5zM520.428 925.803c-.4 1 .5 1.8 2.5 2.5l3.2 1.1-2.4-2.5c-2.8-2.9-2.6-2.9-3.3-1.1zM513.728 928.903c0 3.2-.4 3.7-4.5 5.7-2.4 1.2-4.1 2.6-3.8 3.1.8 1.4-1.9 2.7-4.2 2.1-1.6-.4-1.7-.3-.5.5 1.9 1.3 5.5 1.4 7.8.2.9-.6 3-1.2 4.5-1.6 4-.8 5.4-4.4 3.7-9.5-1.6-4.9-3-5.2-3-.5zM500.728 942.903c0 .5.5 1.7 1 2.5s1 1 1 .5c0-.6-.5-1.7-1-2.5s-1-1.1-1-.5zM497.428 945.003c-.9 1 .2 2.4 1.8 2.4.9 0 1.2-.6.9-1.5-.6-1.6-1.7-1.9-2.7-.9z"/></g></svg>