<?xml version="1.0" standalone="no"?>
<!DOCTYPE svg PUBLIC "-//W3C//DTD SVG 20010904//EN"
 "http://www.w3.org/TR/2001/REC-SVG-20010904/DTD/svg10.dtd">
<svg version="1.0" xmlns="http://www.w3.org/2000/svg"
 width="309.285553pt" height="193.846974pt" viewBox="0 0 309.285553 193.846974"
 preserveAspectRatio="xMidYMid meet">
<metadata>
Created by potrace 1.15, written by Peter Selinger 2001-2017
</metadata>
<g transform="translate(-823.676685,1115.922366) scale(0.100000,-0.100000)"
fill="#222222" stroke="none">
<path d="M10438 11153 c-10 -2 -18 -11 -18 -20 0 -12 -8 -14 -36 -10 -20 3
-34 3 -31 0 4 -3 -2 -18 -12 -32 -10 -14 -21 -34 -24 -43 -4 -11 -17 -18 -32
-18 -14 0 -25 -4 -25 -10 0 -6 -9 -6 -24 0 -13 5 -34 6 -46 3 -17 -4 -21 -3
-16 6 4 6 2 19 -5 27 -12 14 -14 14 -25 0 -10 -14 -13 -14 -29 4 -18 20 -18
20 -31 -6 -8 -15 -14 -32 -14 -39 0 -10 -8 -11 -31 -5 -18 5 -37 6 -43 3 -5
-4 -21 -8 -34 -9 -40 -5 -52 -12 -52 -34 0 -17 3 -19 19 -10 15 7 23 6 35 -6
9 -8 16 -19 16 -22 0 -9 -43 -47 -50 -45 -3 1 -12 -5 -21 -13 -14 -13 -18 -13
-29 1 -8 10 -17 12 -24 6 -7 -6 -18 -4 -30 4 -16 12 -21 12 -33 -1 -8 -7 -26
-14 -41 -14 -25 -1 -25 -2 -9 -14 9 -7 17 -19 17 -25 0 -9 10 -10 32 -5 30 6
31 5 19 -10 -8 -9 -21 -14 -29 -11 -11 4 -13 0 -8 -18 5 -23 -26 -88 -41 -86
-21 3 -31 -3 -42 -28 -10 -21 -9 -28 1 -34 8 -6 14 -3 16 6 2 9 16 22 32 30
25 13 29 13 44 -4 9 -10 16 -22 16 -28 0 -5 11 -15 23 -22 15 -8 28 -27 33
-49 7 -30 14 -37 32 -36 17 0 21 -3 16 -15 -4 -9 -14 -37 -23 -63 -10 -29 -21
-46 -28 -43 -7 2 -15 0 -18 -6 -4 -5 -11 -6 -17 -3 -8 5 -9 -3 -5 -25 5 -23 2
-36 -12 -50 -13 -13 -16 -22 -9 -29 6 -6 6 -12 -1 -16 -6 -4 -8 -26 -4 -55 5
-46 4 -49 -21 -55 -20 -5 -26 -13 -26 -34 0 -15 7 -38 16 -50 9 -13 17 -35 19
-50 12 -138 19 -179 33 -195 14 -15 14 -27 4 -85 -8 -46 -8 -68 0 -73 7 -4 6
-9 -2 -14 -6 -4 -20 1 -30 10 -10 9 -24 14 -30 10 -6 -4 -16 -2 -23 3 -17 13
-107 24 -107 12 0 -5 -9 -12 -21 -15 -15 -5 -18 -10 -10 -18 6 -6 11 -20 11
-31 0 -12 7 -29 15 -39 12 -16 11 -23 -7 -53 -15 -25 -24 -32 -33 -24 -8 7
-22 7 -43 -1 -28 -10 -31 -14 -26 -42 3 -18 7 -38 10 -44 2 -7 -1 -13 -6 -13
-6 0 -5 -11 2 -25 13 -29 17 -30 43 -11 11 8 25 12 32 9 7 -3 13 0 13 6 0 17
71 3 94 -19 18 -17 17 -19 -29 -64 -25 -26 -44 -52 -41 -59 3 -6 9 -20 12 -29
9 -26 42 -22 73 10 34 33 91 57 91 37 0 -7 11 -15 25 -17 14 -3 25 -1 25 3 0
5 7 9 15 9 8 0 15 4 15 10 0 5 7 7 15 4 18 -7 19 9 4 38 -10 18 -8 19 13 13
19 -6 21 -5 11 6 -19 20 -16 39 7 39 14 0 20 7 20 22 0 12 7 30 16 40 14 14
14 20 4 33 -7 9 -10 27 -6 45 3 17 1 30 -4 30 -6 0 -10 6 -10 13 0 7 -7 22
-15 33 -12 15 -16 16 -24 5 -12 -19 -31 17 -31 60 l0 31 34 -26 c39 -29 47
-32 43 -13 -1 7 8 12 21 11 26 -1 29 14 5 23 -10 3 -26 13 -35 21 -16 14 -18
13 -18 -1 0 -20 -2 -20 -35 -5 -28 12 -35 48 -9 48 11 0 14 5 10 16 -9 22 3
37 19 24 16 -13 60 2 68 24 4 9 15 16 25 16 11 0 25 7 32 15 7 8 23 15 36 15
19 0 24 5 24 25 0 28 9 32 29 13 10 -11 14 -9 22 5 16 28 61 42 75 23 14 -19
38 -23 87 -12 32 7 42 5 60 -12 25 -23 74 -41 63 -23 -4 6 0 11 10 11 10 0 28
10 40 21 19 18 27 20 52 11 16 -5 35 -6 42 -2 7 5 19 6 26 3 7 -2 23 3 36 11
23 15 28 14 68 -5 29 -14 45 -18 48 -10 2 6 12 11 23 11 11 0 19 7 19 16 0 15
2 15 25 0 14 -9 25 -12 25 -7 0 5 9 13 20 16 14 5 19 12 15 25 -7 22 24 32 63
19 15 -4 40 -11 55 -14 16 -3 32 -16 39 -30 12 -27 31 -35 21 -9 -5 13 -2 15
14 10 24 -8 58 18 68 52 5 17 -2 31 -30 59 -23 23 -32 39 -26 46 5 6 2 16 -10
28 -25 25 -24 52 5 86 28 34 25 46 -21 74 -28 18 -37 19 -43 8 -7 -10 -15 -7
-35 15 -25 27 -48 69 -50 91 0 6 -4 16 -9 23 -5 8 -2 20 8 31 9 10 13 20 10
24 -3 3 0 19 7 36 13 28 16 30 56 24 36 -5 43 -3 43 11 0 11 7 16 18 14 20 -4
42 -22 42 -37 0 -6 9 -11 19 -11 11 0 23 -4 26 -10 3 -5 1 -10 -4 -10 -6 0
-11 -5 -11 -11 0 -8 5 -8 15 1 9 7 15 29 15 55 0 23 3 45 7 49 10 9 4 148 -7
161 -4 6 -10 21 -12 35 -2 14 -9 24 -15 23 -6 -1 -16 11 -22 28 -6 17 -22 40
-36 51 -14 11 -23 24 -19 29 8 13 -16 40 -28 33 -6 -4 -14 0 -19 7 -12 19 -11
32 1 24 6 -3 10 1 10 9 0 20 -4 20 -45 0 -30 -14 -34 -21 -40 -67 -4 -29 -12
-58 -17 -64 -7 -9 -7 -18 2 -28 9 -10 9 -15 1 -15 -6 0 -11 -6 -11 -14 0 -7
-7 -19 -15 -26 -10 -9 -15 -9 -15 -1 0 6 -4 11 -10 11 -5 0 -10 -6 -10 -12 0
-9 -22 -13 -78 -13 -67 0 -80 -3 -100 -22 -27 -28 -34 -28 -50 -3 -11 18 -10
20 8 20 11 0 22 0 25 0 7 0 45 39 45 46 0 3 -19 4 -42 3 -74 -4 -118 40 -77
77 14 13 16 20 8 30 -6 7 -16 11 -23 8 -7 -3 -19 2 -26 11 -7 8 -8 15 -4 15 5
0 15 9 22 21 11 18 10 23 -11 39 -18 14 -23 26 -20 44 3 16 -3 36 -17 55 -21
31 -45 37 -92 24z m-165 -170 c-7 -2 -19 -2 -25 0 -7 3 -2 5 12 5 14 0 19 -2
13 -5z m-201 -58 c-6 -33 -45 -38 -59 -8 -10 20 -7 25 15 42 23 17 28 17 38 4
6 -9 9 -26 6 -38z m135 33 c-2 -7 -10 -12 -17 -10 -6 1 -14 -7 -17 -18 -4 -13
-11 -19 -20 -16 -8 3 -20 6 -26 6 -7 0 -3 7 7 15 11 8 16 15 10 16 -11 1 35
17 54 18 8 1 12 -5 9 -11z m483 -974 c0 -8 -5 -14 -11 -14 -6 0 -9 7 -5 15 3
8 1 15 -4 15 -6 0 -10 5 -10 11 0 8 5 8 15 -1 8 -7 15 -19 15 -26z"/>
<path d="M9564 11097 c-3 -9 -16 -18 -29 -21 -21 -5 -22 -9 -13 -38 6 -18 17
-46 24 -63 7 -16 15 -38 18 -47 3 -10 13 -18 23 -18 10 0 24 -9 31 -20 15 -24
38 -26 46 -4 4 10 12 14 22 10 25 -9 73 21 80 52 4 15 12 30 18 34 6 4 -8 8
-32 8 -23 0 -57 6 -75 14 -39 17 -87 62 -87 81 0 20 -19 29 -26 12z"/>
<path d="M10640 11011 c0 -12 6 -21 13 -21 6 0 23 -16 35 -35 22 -31 94 -80
105 -69 6 7 59 -23 55 -31 -2 -5 7 -10 20 -11 16 -3 22 1 22 16 0 11 5 20 10
20 6 0 10 18 10 40 0 29 -5 42 -19 50 -11 5 -22 10 -24 10 -8 0 -3 -55 6 -61
5 -3 2 -9 -6 -12 -11 -4 -22 9 -38 47 l-24 53 -50 -5 c-27 -3 -53 -9 -56 -14
-4 -6 -13 -1 -20 9 -23 31 -39 37 -39 14z"/>
<path d="M9840 10969 c0 -5 9 -9 20 -9 11 0 20 2 20 4 0 2 -9 6 -20 9 -11 3
-20 1 -20 -4z"/>
<path d="M9821 10954 c0 -11 3 -14 6 -6 3 7 2 16 -1 19 -3 4 -6 -2 -5 -13z"/>
<path d="M9560 10841 c0 -16 18 -22 24 -9 5 10 7 10 12 1 6 -15 34 -18 34 -4
0 5 -10 11 -22 15 -33 8 -48 7 -48 -3z"/>
<path d="M9535 10831 c6 -11 4 -13 -8 -8 -11 4 -18 -2 -25 -21 -7 -19 -26 -36
-66 -55 -31 -15 -56 -30 -56 -32 0 -3 16 -5 35 -5 28 0 35 4 35 19 0 15 10 21
40 26 33 6 40 10 35 24 -3 12 2 21 16 27 20 9 20 10 3 24 -15 13 -16 13 -9 1z"/>
<path d="M10840 10820 c0 -5 5 -10 10 -10 6 0 10 5 10 10 0 6 -4 10 -10 10 -5
0 -10 -4 -10 -10z"/>
<path d="M9205 10737 c-5 -17 -14 -27 -26 -27 -26 0 -25 -40 2 -63 16 -14 24
-15 34 -7 8 7 23 9 35 5 12 -4 27 -1 36 6 11 9 19 8 37 -7 12 -11 25 -23 29
-29 5 -6 8 -3 8 6 0 9 -7 22 -15 29 -11 9 -12 17 -4 32 14 25 4 35 -47 46
l-42 9 6 -40 c4 -29 2 -38 -6 -33 -7 4 -12 20 -12 35 0 15 -6 36 -14 47 -14
18 -15 18 -21 -9z"/>
<path d="M9480 10679 c0 -9 9 -24 20 -34 26 -23 26 -8 0 25 -14 18 -20 21 -20
9z"/>
<path d="M8936 10654 c-11 -8 -36 -14 -57 -14 -20 0 -42 -6 -48 -14 -7 -8 -21
-12 -32 -9 -12 4 -29 -2 -42 -15 -12 -11 -35 -22 -52 -24 -18 -2 -29 -8 -27
-16 2 -9 -4 -11 -18 -7 -15 5 -28 -1 -45 -19 -13 -14 -32 -26 -41 -26 -10 0
-28 -9 -40 -21 -34 -32 -85 -40 -109 -17 -18 17 -20 18 -23 3 -3 -11 -10 -14
-23 -10 -11 4 -26 1 -34 -5 -8 -6 -19 -9 -25 -5 -6 4 -17 1 -25 -5 -8 -7 -26
-10 -39 -8 -24 5 -24 4 -8 -18 22 -29 69 -57 101 -60 15 -2 46 -6 70 -10 31
-5 42 -4 37 4 -3 6 -1 14 6 19 7 4 13 15 13 23 0 20 93 64 109 52 6 -6 25 -8
42 -5 26 4 30 8 26 29 -3 17 0 24 12 24 9 0 16 5 16 11 0 17 29 41 41 34 6 -4
17 3 26 14 11 16 18 19 27 12 9 -8 18 -6 32 4 10 8 15 15 10 15 -5 0 -3 7 4
15 11 13 17 10 49 -20 19 -20 41 -33 48 -30 7 3 20 8 28 11 9 4 26 -6 44 -25
31 -33 71 -42 71 -16 0 9 10 15 26 15 16 0 24 5 21 13 -2 6 -1 21 3 33 10 26
-14 42 -78 51 -26 3 -54 11 -62 19 -12 10 -19 10 -34 -2z"/>
<path d="M9530 10648 c0 -6 7 -19 16 -29 21 -23 11 -38 -22 -31 -19 3 -25 1
-20 -7 4 -6 23 -10 41 -8 28 1 34 6 30 20 -3 9 -7 26 -10 36 -6 21 -35 37 -35
19z"/>
<path d="M9732 10627 c-8 -24 -22 -36 -47 -46 -40 -14 -45 -27 -14 -36 15 -5
20 -13 17 -29 -4 -20 -1 -22 28 -19 31 2 34 -1 45 -37 9 -28 18 -40 31 -40 30
0 32 27 3 64 -23 31 -26 42 -23 103 2 55 0 68 -12 71 -10 2 -20 -10 -28 -31z"/>
<path d="M9343 10547 c-5 -84 -8 -104 -22 -120 -7 -9 -10 -24 -7 -33 4 -10 0
-18 -13 -21 -23 -6 -26 -56 -4 -74 15 -13 18 -45 4 -53 -9 -6 -71 22 -81 36
-3 4 -17 9 -30 10 -23 3 -24 0 -25 -49 l-2 -53 33 0 c26 0 33 -4 36 -22 2 -14
15 -29 35 -38 19 -9 33 -23 33 -33 0 -11 12 -22 30 -28 17 -6 30 -18 30 -27 0
-10 6 -24 13 -32 16 -20 74 -60 86 -60 5 0 13 -9 16 -20 4 -11 10 -18 14 -15
5 2 17 -13 27 -35 15 -31 25 -40 44 -40 14 0 36 -7 48 -16 18 -12 26 -13 37
-4 8 7 15 8 15 4 0 -11 59 -38 67 -31 3 3 16 2 29 -3 18 -7 22 -6 17 6 -3 9 0
14 8 12 7 -2 15 5 17 15 3 13 -3 17 -22 17 -27 0 -36 15 -13 23 22 7 -72 82
-99 79 -14 -2 -24 2 -24 8 0 7 -6 10 -14 7 -8 -3 -29 -2 -46 3 -29 8 -32 7
-42 -21 -12 -35 -12 -35 -33 14 l-15 38 25 -7 c23 -6 25 -4 21 25 -3 24 2 34
16 42 18 9 20 18 14 56 -3 26 -11 52 -17 59 -6 7 -8 18 -4 23 3 6 -13 45 -36
88 l-41 78 26 3 c14 2 26 7 26 12 0 5 9 12 20 15 29 9 25 28 -9 43 -28 12 -29
16 -28 73 2 66 -3 71 -78 74 -22 1 -49 4 -60 8 -18 6 -20 2 -22 -36z"/>
<path d="M11104 10413 c3 -7 1 -13 -4 -13 -5 0 -7 -7 -3 -16 5 -13 7 -13 14
-2 5 7 9 9 9 3 1 -5 5 0 11 13 l9 23 22 -21 c23 -21 41 -9 19 13 -16 16 -83
16 -77 0z"/>
<path d="M11160 10341 c0 -5 6 -16 13 -23 22 -22 29 -51 15 -60 -10 -6 -10 -8
0 -8 6 0 12 -9 12 -20 0 -24 39 -87 59 -95 16 -6 63 33 55 46 -3 5 0 9 5 9 17
0 13 18 -10 39 -12 11 -18 24 -14 30 3 6 0 11 -8 11 -8 0 -18 11 -21 24 -6 25
-37 42 -68 37 -10 -1 -18 3 -18 8 0 6 -4 11 -10 11 -5 0 -10 -4 -10 -9z"/>
<path d="M11246 10077 c3 -10 9 -15 12 -12 3 3 0 11 -7 18 -10 9 -11 8 -5 -6z"/>
</g>
</svg>
