<?xml version="1.0" standalone="no"?>
<!DOCTYPE svg PUBLIC "-//W3C//DTD SVG 20010904//EN"
 "http://www.w3.org/TR/2001/REC-SVG-20010904/DTD/svg10.dtd">
<svg version="1.0" xmlns="http://www.w3.org/2000/svg"
 width="628.497009pt" height="1029.057573pt" viewBox="0 0 628.497009 1029.057573"
 preserveAspectRatio="xMidYMid meet">
<metadata>
Created by potrace 1.15, written by Peter Selinger 2001-2017
</metadata>
<g transform="translate(-690.992217,1490.501137) scale(0.100000,-0.100000)"
fill="#222222" stroke="none">
<path d="M11337 14890 c-9 -11 -12 -22 -7 -25 4 -3 18 -26 30 -51 13 -25 25
-42 29 -37 10 13 54 9 59 -6 3 -9 -1 -11 -16 -7 -19 6 -20 4 -15 -28 3 -21 1
-42 -6 -50 -9 -11 -9 -15 0 -18 22 -7 0 -48 -27 -48 -13 0 -24 -6 -24 -13 0
-8 -11 -24 -25 -37 -14 -13 -25 -29 -25 -37 0 -7 -9 -13 -20 -13 -24 0 -69
-47 -70 -72 0 -10 -9 -23 -20 -30 -11 -7 -20 -20 -21 -28 -1 -8 -4 -4 -8 10
-10 31 -5 40 20 40 20 0 26 24 9 35 -5 3 -10 15 -10 26 0 10 -7 19 -15 19 -8
0 -15 5 -15 10 0 6 -14 10 -30 10 -21 0 -47 13 -81 40 -28 22 -57 40 -64 40
-8 0 -18 7 -23 16 -13 22 -58 11 -65 -16 -3 -13 -13 -20 -29 -20 -18 0 -24 -6
-26 -27 -1 -14 -3 -28 -5 -29 -1 -1 -23 3 -50 9 -51 11 -63 7 -53 -19 5 -13 9
-14 21 -4 11 9 18 4 34 -29 12 -22 19 -46 16 -53 -5 -12 86 -118 101 -118 13
0 69 -54 66 -63 -2 -5 4 -17 11 -26 22 -24 19 -99 -4 -106 -23 -8 -14 -34 10
-28 21 5 34 -26 20 -48 -5 -8 -3 -17 4 -21 8 -5 4 -8 -10 -8 -13 0 -23 -5 -23
-11 0 -7 -10 -9 -25 -7 -29 6 -65 -23 -65 -54 0 -11 -12 -46 -26 -78 -14 -32
-24 -68 -22 -81 4 -28 -2 -36 -59 -93 -27 -27 -44 -54 -48 -78 -4 -23 -20 -50
-41 -70 -19 -18 -34 -39 -34 -45 0 -16 -12 -17 -28 -1 -6 6 -15 9 -18 5 -4 -3
1 -14 10 -23 10 -9 16 -26 14 -38 -3 -23 -36 -35 -47 -17 -4 6 -20 11 -37 12
-16 1 -55 10 -87 22 -49 17 -60 18 -67 6 -5 -7 -12 -11 -15 -7 -4 3 -19 2 -35
-2 -21 -6 -32 -4 -41 6 -11 13 -14 13 -21 0 -6 -10 -23 -16 -46 -16 -35 -1
-36 -2 -18 -15 24 -18 86 -20 86 -2 0 6 12 -8 27 -33 14 -25 34 -54 43 -65 10
-11 15 -26 13 -32 -3 -7 0 -13 7 -13 6 0 8 -4 5 -10 -3 -5 -2 -10 4 -10 6 0
15 -9 21 -21 9 -16 7 -29 -8 -62 -20 -42 -27 -123 -11 -133 18 -10 9 -52 -11
-57 -12 -3 -20 -14 -20 -25 0 -12 -4 -24 -10 -27 -5 -3 -10 -19 -10 -35 0 -20
-6 -31 -21 -35 -17 -6 -19 -12 -13 -38 4 -18 8 -41 9 -52 3 -35 18 -59 61 -98
36 -33 41 -41 35 -69 -5 -23 -14 -34 -37 -42 -28 -10 -30 -15 -33 -63 -1 -29
3 -68 10 -87 10 -27 10 -41 1 -61 -10 -22 -9 -32 5 -58 10 -18 26 -38 36 -45
9 -7 17 -20 17 -28 0 -8 13 -20 29 -25 15 -6 33 -21 39 -34 7 -14 18 -25 26
-25 21 0 27 -39 8 -61 -9 -10 -22 -19 -29 -19 -11 0 -10 -6 2 -30 8 -16 15
-36 15 -44 0 -9 18 -27 39 -40 44 -28 59 -59 40 -82 -10 -12 -10 -15 1 -12 21
5 24 -32 4 -46 -10 -7 -14 -18 -10 -25 8 -12 -10 -41 -25 -41 -5 0 -9 15 -9
33 0 25 -9 42 -35 67 -20 19 -31 37 -25 40 6 4 -5 11 -25 17 -20 6 -35 7 -35
2 0 -5 -6 -9 -14 -9 -8 0 -16 -4 -18 -9 -2 -5 -25 -5 -53 -1 -36 6 -54 5 -63
-4 -17 -16 -71 9 -113 51 -15 16 -37 37 -48 47 -11 10 -18 23 -15 27 3 5 -1 9
-9 9 -8 0 -22 16 -33 35 -10 19 -21 35 -25 35 -15 0 -29 -29 -22 -45 5 -13 3
-16 -7 -10 -10 6 -10 4 -3 -10 14 -24 -13 -71 -49 -87 -15 -7 -24 -16 -22 -20
3 -4 0 -8 -6 -8 -6 0 -8 -5 -4 -12 5 -8 -3 -9 -31 -5 -49 8 -78 -7 -69 -35 4
-15 3 -18 -6 -13 -10 6 -11 1 -6 -18 8 -35 -11 -73 -44 -87 -25 -10 -29 -18
-32 -63 -2 -29 0 -65 5 -80 8 -24 5 -33 -18 -57 -26 -27 -27 -30 -12 -59 11
-21 12 -33 4 -38 -17 -10 32 -24 67 -18 27 5 34 1 54 -29 12 -20 22 -40 22
-46 0 -12 47 -13 54 -1 3 5 -2 12 -12 16 -15 6 -15 8 -1 18 9 7 21 22 28 35
10 18 9 22 -4 22 -8 0 -15 7 -15 15 0 17 9 19 27 7 14 -9 13 -54 -1 -64 -7 -5
-7 -16 0 -35 7 -22 18 -30 51 -37 34 -7 44 -14 52 -39 6 -16 11 -43 11 -58 0
-15 6 -32 13 -36 26 -17 51 -70 60 -127 6 -36 5 -38 -18 -33 -24 4 -25 3 -19
-46 6 -48 6 -50 -10 -34 -10 9 -22 17 -27 17 -16 0 -108 64 -114 80 -8 20 -81
70 -103 70 -27 0 -42 20 -42 55 0 54 -51 100 -66 60 -4 -9 -19 -15 -36 -15
-22 0 -29 4 -25 15 8 20 -6 27 -85 42 -15 3 -25 9 -22 14 11 19 -7 28 -37 17
-25 -9 -32 -7 -43 7 -7 10 -20 16 -28 12 -13 -4 -14 -13 -5 -51 6 -25 14 -46
19 -46 11 0 10 -38 -2 -45 -16 -10 -11 -48 10 -75 11 -14 20 -31 20 -38 0 -7
7 -15 15 -18 19 -8 20 -63 1 -70 -8 -3 -13 -14 -11 -24 2 -11 -5 -30 -15 -42
-10 -13 -20 -36 -22 -51 -4 -33 -23 -36 -24 -4 -2 42 -4 47 -18 47 -13 0 -30
-34 -27 -54 1 -4 -3 -14 -10 -22 -6 -7 -8 -18 -4 -24 3 -6 -1 -24 -9 -42 -19
-36 -19 -38 -7 -38 4 0 12 15 18 33 6 22 14 31 26 29 10 -2 17 4 17 13 0 8 4
15 10 15 17 0 -2 -34 -42 -76 -23 -24 -35 -44 -30 -48 14 -8 -10 -55 -43 -86
-14 -13 -25 -29 -25 -37 0 -7 -5 -13 -11 -13 -8 0 -8 -5 1 -15 10 -12 10 -15
0 -15 -10 0 -10 -3 0 -15 8 -9 10 -27 6 -47 -4 -22 -1 -37 11 -50 9 -10 18
-28 20 -40 3 -16 -1 -19 -17 -15 -40 10 -13 -75 40 -125 49 -47 84 -57 122
-35 33 19 65 13 47 -9 -6 -8 -15 -11 -20 -8 -17 10 -9 -13 10 -30 12 -11 21
-13 25 -7 4 6 20 8 36 5 24 -5 35 0 60 25 18 17 41 31 54 31 21 0 64 -24 78
-44 5 -7 8 -7 8 2 0 6 11 12 25 12 19 0 26 -6 30 -27 12 -53 13 -58 20 -75 5
-13 2 -18 -9 -18 -9 0 -16 -8 -16 -20 0 -16 5 -19 23 -15 15 4 28 1 36 -9 7
-8 26 -18 42 -21 20 -5 34 -16 42 -35 7 -16 38 -56 69 -89 48 -52 63 -61 91
-61 34 0 64 -20 50 -33 -11 -12 -99 -7 -112 6 -11 10 -13 8 -8 -10 3 -13 2
-23 -2 -23 -4 0 -6 -12 -4 -27 7 -46 -43 -148 -72 -148 -20 0 -52 -31 -52 -50
0 -11 9 -33 20 -49 l21 -29 -22 5 c-14 4 -20 2 -16 -4 4 -6 1 -14 -6 -18 -7
-4 -14 -18 -15 -31 -1 -13 -3 -27 -4 -31 0 -5 -14 -8 -31 -8 -27 0 -30 -3 -30
-31 0 -17 5 -39 11 -50 9 -17 7 -21 -12 -26 -20 -6 -21 -10 -16 -70 4 -34 3
-63 -2 -63 -4 0 -18 -9 -31 -20 -13 -12 -31 -18 -41 -15 -10 3 -27 0 -39 -7
-26 -15 -73 -104 -64 -119 3 -6 -3 -17 -15 -25 -12 -8 -21 -24 -21 -35 0 -14
-7 -19 -25 -19 -24 0 -31 -13 -26 -50 8 -59 7 -71 -6 -66 -7 3 -13 -1 -13 -9
0 -8 -6 -15 -13 -15 -8 0 -19 -11 -25 -25 -7 -15 -20 -25 -32 -25 -16 0 -20
-5 -16 -17 4 -13 -5 -25 -30 -41 -27 -17 -34 -28 -29 -42 4 -12 2 -20 -5 -20
-7 0 -10 -6 -7 -14 7 -17 -34 -5 -104 30 l-46 23 -38 -19 c-22 -11 -49 -20
-60 -20 -18 0 -20 -5 -17 -41 3 -26 1 -39 -6 -35 -5 3 -12 -7 -15 -22 -4 -20
-15 -31 -39 -39 -18 -7 -38 -23 -43 -35 -11 -26 -58 -36 -80 -18 -10 8 -15 8
-20 0 -15 -24 -49 -28 -77 -9 -14 11 -33 19 -41 19 -20 0 -31 17 -15 23 7 3
-6 3 -29 2 -27 -2 -46 1 -54 11 -9 11 -8 14 4 14 9 0 17 10 19 23 5 28 -11 67
-28 67 -13 0 -86 -57 -92 -73 -2 -4 -11 -2 -20 5 -12 10 -16 11 -20 0 -2 -7
-10 -19 -18 -26 -8 -8 -14 -21 -14 -30 0 -8 -5 -18 -11 -22 -6 -3 -8 -17 -5
-30 5 -17 2 -24 -8 -24 -8 0 -16 -10 -18 -22 -2 -15 -11 -24 -25 -26 -12 -2
-42 -23 -66 -48 -25 -25 -58 -47 -75 -50 -34 -7 -85 -63 -96 -106 -4 -18 -15
-30 -31 -34 -15 -4 -25 -13 -25 -24 0 -11 -5 -22 -11 -26 -7 -4 -9 -21 -6 -41
5 -28 3 -34 -9 -29 -11 4 -13 2 -5 -11 6 -11 5 -25 -2 -41 -8 -18 -8 -25 2
-31 10 -6 7 -15 -12 -35 -14 -15 -28 -42 -31 -60 -4 -18 -17 -43 -31 -56 -14
-13 -25 -31 -25 -41 0 -9 -13 -22 -30 -29 -26 -11 -30 -17 -29 -49 1 -20 -4
-49 -10 -64 -6 -16 -11 -38 -11 -51 0 -12 -9 -39 -20 -61 -11 -22 -20 -45 -20
-52 0 -15 -46 -18 -55 -3 -3 6 -15 10 -26 10 -19 0 -25 -18 -20 -64 0 -10 -4
-25 -11 -33 -10 -12 -9 -18 5 -28 26 -19 21 -52 -15 -96 -17 -21 -28 -42 -25
-46 4 -3 1 -13 -5 -21 -7 -8 -13 -46 -13 -87 -1 -43 -6 -79 -13 -88 -16 -19
-7 -24 43 -22 22 2 46 -2 52 -7 7 -6 20 -8 28 -4 22 8 106 -12 126 -30 13 -11
19 -12 24 -4 4 7 2 16 -5 20 -8 5 -2 12 18 21 22 9 28 18 24 33 -4 15 -1 18
11 13 10 -4 18 1 22 14 4 12 15 19 31 19 14 0 26 6 28 13 22 83 48 120 86 123
40 3 41 3 30 24 -6 11 -17 20 -24 20 -23 0 -36 45 -20 68 11 16 12 27 4 48 -9
22 -8 29 5 36 8 5 15 16 15 24 0 20 34 10 62 -18 19 -19 21 -19 39 -2 10 9 19
25 19 34 0 16 5 17 40 8 22 -6 37 -14 34 -19 -2 -4 4 -16 16 -26 11 -10 29
-26 41 -36 21 -19 21 -19 14 5 l-6 23 20 -22 c21 -25 37 -29 43 -11 7 21 28
-3 28 -33 0 -18 -5 -29 -14 -29 -10 0 -12 -7 -8 -22 5 -22 4 -22 -14 -7 -28
24 -62 30 -68 12 -4 -8 -3 -20 0 -25 4 -6 7 -25 6 -42 -1 -21 2 -26 8 -16 6
10 10 7 15 -16 4 -16 8 -34 10 -40 7 -24 -15 -31 -61 -21 -47 11 -94 -3 -94
-29 0 -8 -6 -11 -14 -8 -21 8 -43 -212 -23 -233 4 -3 7 -14 7 -24 0 -10 12
-31 26 -48 15 -18 23 -38 20 -46 -3 -9 6 -28 21 -45 27 -31 37 -47 75 -118 21
-40 21 -44 6 -53 -11 -6 -15 -16 -11 -26 5 -13 2 -15 -13 -9 -10 4 -35 10 -54
12 -33 4 -34 4 -18 -12 14 -14 14 -20 2 -50 -11 -27 -12 -39 -2 -61 15 -33 28
-44 45 -38 7 2 15 0 18 -5 4 -6 17 -10 31 -10 26 0 27 -4 15 -35 -6 -15 -18
-20 -50 -21 -51 0 -65 -13 -63 -58 1 -25 -6 -43 -27 -65 -31 -33 -47 -40 -38
-17 12 30 -52 61 -69 34 -5 -7 -3 -8 6 -3 9 5 11 4 6 -3 -4 -7 -15 -12 -25
-12 -10 0 -28 -11 -41 -25 -13 -14 -30 -25 -37 -25 -8 0 -16 -7 -20 -15 -5
-14 -7 -14 -23 0 -18 16 -36 9 -21 -9 12 -14 16 -76 6 -98 -4 -10 0 -26 9 -39
11 -16 12 -27 5 -41 -11 -20 4 -93 21 -103 19 -12 10 -53 -15 -69 -14 -9 -29
-15 -33 -12 -4 2 -18 -3 -31 -13 -22 -17 -23 -19 -7 -49 9 -17 16 -42 16 -56
0 -20 -4 -23 -22 -18 l-22 5 21 -34 c22 -36 21 -61 -2 -53 -8 3 -31 0 -52 -7
-21 -7 -32 -14 -25 -16 20 -7 14 -23 -10 -24 -13 0 -17 -3 -10 -6 10 -4 10 -8
0 -21 -7 -8 -12 -17 -10 -19 10 -14 -1 -12 -13 3 -17 22 -20 38 -5 29 6 -3 10
3 10 14 0 25 -17 36 -34 22 -11 -9 -15 -6 -20 13 -6 24 -7 24 -36 10 -16 -9
-30 -20 -30 -25 0 -16 -96 -11 -110 6 -11 13 -15 13 -21 3 -14 -21 -10 -28 16
-28 28 0 28 0 16 -51 -11 -46 12 -82 47 -73 12 4 22 13 22 21 0 9 5 11 13 7 9
-6 9 -4 -1 8 -8 10 -9 19 -3 22 5 4 14 -2 20 -11 6 -10 11 -13 11 -8 0 6 9 -1
19 -14 15 -19 16 -29 8 -42 -13 -20 -4 -35 13 -24 7 4 10 18 7 31 -4 22 -2 23
42 20 43 -4 46 -6 49 -35 l3 -31 26 20 c32 25 40 25 47 2 4 -10 21 -23 40 -30
18 -7 48 -26 65 -42 24 -23 37 -29 56 -24 19 5 31 -1 54 -24 32 -32 82 -47 99
-30 7 7 21 7 46 -2 20 -6 45 -9 55 -5 25 8 51 -38 44 -78 -4 -19 -1 -29 11
-33 9 -3 16 -14 16 -24 0 -9 9 -25 20 -35 11 -10 20 -26 20 -36 0 -10 4 -21
10 -24 6 -4 7 1 3 11 -5 14 -3 15 15 5 20 -11 42 -40 42 -57 0 -4 -10 1 -22
12 -22 18 -22 17 1 -8 19 -22 27 -25 41 -16 12 8 26 8 49 0 30 -11 32 -10 26
10 -5 15 -3 19 6 15 8 -2 21 2 31 10 14 13 17 12 23 -6 4 -13 11 -18 23 -14 9
3 14 2 9 -2 -4 -5 -1 -15 7 -24 8 -9 14 -20 14 -26 -1 -5 14 -13 33 -16 19 -4
51 -14 72 -23 30 -13 42 -14 53 -5 11 9 19 8 35 -7 16 -14 24 -16 38 -7 10 7
29 9 41 6 15 -4 26 -1 32 10 4 9 15 14 22 11 9 -3 17 3 21 15 4 14 15 21 31
21 13 0 29 8 35 19 8 12 19 16 32 13 14 -3 18 -1 13 6 -5 8 0 12 13 12 11 0
22 4 25 9 3 5 14 7 25 4 14 -3 20 2 25 23 5 20 10 24 19 15 24 -24 46 -13 49
26 3 36 4 37 41 36 42 -1 46 6 17 25 -25 15 -26 34 -2 30 9 -1 22 0 27 4 9 6
112 -16 122 -26 6 -6 53 43 53 56 0 6 -6 6 -16 -3 -13 -10 -17 -10 -25 2 -12
19 -11 39 1 39 6 0 10 6 10 14 0 8 9 18 20 21 26 8 25 23 -2 46 -24 21 -38 24
-38 9 0 -6 -6 -5 -14 2 -14 13 -11 32 4 23 4 -3 13 18 20 46 7 28 18 53 26 56
7 2 10 12 7 20 -4 11 -2 14 5 9 7 -4 12 -2 12 4 0 6 5 8 12 4 7 -5 9 -2 5 8
-3 9 1 40 9 70 17 67 17 68 -3 68 -15 0 -14 2 3 15 10 8 36 15 56 15 27 0 36
4 32 14 -3 7 2 16 10 19 19 8 22 67 4 85 -8 8 -9 15 -3 20 23 17 36 53 24 68
-9 11 -9 17 1 29 16 20 -4 71 -34 87 -11 6 -25 17 -29 24 -4 8 -19 14 -33 14
-13 0 -27 7 -30 15 -7 16 -63 35 -106 35 -27 0 -29 4 -43 60 -7 25 -20 40 -36
40 -10 0 -19 6 -19 13 0 7 -6 25 -12 40 -14 28 -38 37 -38 13 0 -16 -49 -9
-65 9 -5 6 -22 16 -37 23 -23 9 -28 9 -28 -2 0 -7 -10 -18 -22 -25 -22 -11
-22 -11 4 -8 40 6 58 -9 33 -27 -11 -9 -29 -16 -41 -16 -18 0 -21 -5 -19 -40
3 -57 -8 -57 -35 1 -14 33 -32 54 -49 62 -39 16 -61 38 -61 59 0 10 -4 18 -10
18 -5 0 -18 17 -27 37 -13 25 -35 47 -73 69 -37 22 -55 39 -56 53 -1 12 5 21
12 21 19 0 62 43 57 58 -3 6 2 12 11 12 9 0 16 4 16 8 0 4 22 7 49 5 47 -4 49
-3 44 18 -6 20 -3 22 24 16 16 -3 33 -7 39 -8 5 -1 23 -1 39 0 27 2 28 3 12
15 -10 8 -15 20 -11 30 3 9 3 31 0 49 -5 25 -15 36 -47 52 -39 18 -42 18 -54
2 -8 -11 -16 -14 -20 -8 -3 6 7 23 22 38 15 16 28 35 28 43 0 8 10 16 22 18
29 4 41 41 19 57 -13 10 -11 12 14 13 16 0 34 -6 41 -14 9 -11 15 -11 25 -3 8
6 27 9 44 7 16 -2 31 0 33 6 3 10 27 0 27 -13 0 -4 -9 -17 -20 -29 -11 -11
-16 -23 -11 -26 15 -10 23 -76 10 -92 -9 -11 -8 -14 2 -14 11 0 11 -2 -1 -10
-9 -6 -18 -6 -24 0 -19 19 -34 10 -40 -26 -4 -21 -3 -41 3 -48 12 -14 61 -10
61 5 0 29 109 -9 160 -56 14 -13 36 -26 50 -30 14 -4 44 -21 67 -36 32 -23 42
-36 45 -62 3 -30 6 -32 49 -37 49 -6 107 -42 136 -86 9 -14 22 -23 30 -20 8 4
18 -5 24 -22 6 -15 18 -39 25 -54 8 -14 12 -32 9 -40 -7 -18 30 -135 49 -154
9 -8 38 -22 66 -30 27 -8 50 -19 50 -24 0 -5 20 -23 44 -39 24 -17 46 -41 50
-55 3 -14 20 -42 37 -61 27 -30 33 -33 43 -21 9 13 19 13 54 5 37 -8 47 -7 71
11 16 10 30 17 33 15 2 -2 22 -5 43 -6 22 -1 48 -6 58 -11 13 -7 24 -5 38 8
13 11 28 15 48 11 17 -4 33 -2 36 3 11 17 74 11 93 -8 22 -22 60 -34 68 -21 3
5 11 6 17 3 7 -4 9 -4 5 0 -4 5 -3 18 2 31 6 15 4 29 -5 42 -17 24 0 119 27
147 27 29 23 53 -9 59 -26 5 -35 -1 -47 -28 -3 -6 -8 -4 -14 3 -7 11 -10 11
-15 -2 -4 -9 -13 -13 -22 -10 -8 3 -12 10 -9 15 3 5 -4 9 -15 9 -13 0 -23 11
-31 34 -6 19 -18 40 -26 46 -20 17 -18 30 5 30 19 0 19 2 -2 57 -22 62 -39 85
-58 81 -7 -2 -13 6 -14 17 0 11 -5 20 -12 20 -6 0 -14 3 -18 7 -4 4 -13 4 -20
2 -17 -7 -55 13 -55 29 0 7 -10 19 -21 27 -39 27 -48 40 -55 77 -5 28 -3 39
10 48 21 16 21 54 0 70 -15 10 -14 14 11 39 20 20 26 34 22 53 -3 15 4 47 14
71 21 49 19 72 -6 72 -8 0 -15 6 -15 14 0 8 -9 17 -19 21 -10 3 -22 18 -26 32
-3 15 -16 40 -27 56 -16 22 -18 31 -8 37 9 6 7 13 -8 28 -11 11 -23 29 -26 40
-4 11 -13 23 -21 26 -8 3 -23 23 -34 45 -12 22 -32 51 -46 65 -14 14 -25 32
-25 40 0 8 -4 18 -10 21 -5 3 -7 0 -4 -8 11 -29 -13 -25 -45 9 l-33 34 27 10
c26 10 31 7 77 -44 45 -51 52 -55 86 -52 20 1 50 8 65 14 16 7 35 12 43 12 8
0 14 4 14 8 0 5 11 15 25 22 14 8 23 20 21 27 -3 7 -1 13 5 13 6 0 8 4 5 8 -7
12 27 39 42 34 7 -2 12 -10 12 -18 0 -16 26 -19 35 -5 3 5 1 12 -5 16 -5 3
-10 17 -10 31 0 17 5 24 20 24 17 0 19 4 14 28 -4 15 -10 32 -13 37 -3 6 -6
19 -6 30 0 15 -7 20 -30 20 -16 0 -38 -3 -47 -8 -14 -6 -18 -3 -18 11 0 11
-11 24 -26 31 -21 9 -25 16 -20 37 4 15 2 32 -6 41 -10 12 -9 17 5 28 13 9 16
20 12 38 -4 14 -2 28 4 32 6 3 8 17 5 32 -5 18 -3 24 5 19 6 -4 11 -1 11 8 0
8 -6 16 -12 19 -10 3 -10 7 1 20 11 14 11 23 -3 59 -10 24 -30 62 -46 84 -30
42 -30 54 -1 54 9 0 24 11 33 25 14 18 16 30 8 49 -8 22 -7 26 8 26 13 0 14 2
3 9 -20 13 -2 34 25 28 15 -3 30 4 43 19 12 13 25 24 30 24 16 0 23 -20 12
-34 -8 -10 -6 -18 9 -31 11 -10 20 -14 20 -9 1 5 8 0 18 -11 10 -13 30 -21 50
-21 l32 -1 -3 48 c-2 27 -10 55 -16 63 -10 11 -9 16 2 23 20 12 28 41 12 47
-11 4 -11 10 -2 30 9 20 19 25 42 23 22 -1 30 3 33 18 2 11 6 27 9 35 3 8 5
21 4 29 -2 8 3 12 12 8 8 -3 21 3 30 14 9 10 14 19 11 19 -4 0 5 9 19 20 14
11 30 20 37 20 6 0 8 5 5 10 -6 10 12 14 53 10 12 -1 22 3 22 9 0 6 6 8 13 5
10 -3 14 5 15 31 1 19 -3 35 -8 35 -5 0 -7 -7 -3 -16 4 -12 1 -15 -12 -13 -12
3 -19 14 -19 32 -1 19 2 26 11 23 8 -3 13 2 13 13 0 23 8 31 26 24 11 -4 13
-14 9 -34 -8 -34 10 -45 53 -34 l27 7 -28 24 -28 24 24 9 c27 10 39 33 31 55
-3 8 -1 17 4 20 13 8 35 -20 27 -34 -7 -12 21 -50 38 -50 5 0 6 7 3 16 -5 12
-1 14 17 9 12 -4 29 -14 37 -23 8 -10 20 -17 26 -17 5 0 25 -17 43 -37 18 -21
28 -38 22 -38 -14 0 -9 -25 14 -72 18 -37 21 -38 69 -37 l51 0 -25 17 c-13 9
-33 25 -42 35 -10 9 -21 17 -25 18 -13 1 -17 9 -5 9 7 0 12 7 12 16 0 8 5 12
10 9 6 -3 10 -1 10 6 0 8 7 5 20 -6 10 -9 26 -15 34 -12 8 3 17 3 20 0 3 -4
16 -8 29 -9 62 -7 79 -15 102 -42 16 -19 36 -31 53 -32 64 -2 72 -5 72 -22 0
-9 6 -20 13 -25 15 -9 59 -5 72 8 5 5 33 9 62 9 46 0 53 3 53 20 0 25 5 25 45
0 27 -17 38 -18 61 -10 22 9 29 8 36 -5 5 -8 16 -15 23 -15 8 0 15 -5 15 -11
0 -6 9 -8 20 -4 24 8 25 2 4 -30 -15 -23 -14 -24 5 -22 12 1 21 5 21 10 0 4 4
6 9 3 5 -3 14 1 21 9 7 8 29 15 50 15 41 0 50 11 50 59 0 25 3 27 31 23 30 -4
31 -3 25 22 -5 19 -3 26 8 26 8 0 18 9 21 20 4 11 17 32 31 45 13 13 24 30 24
37 0 7 24 22 53 32 28 10 60 27 71 38 11 12 27 18 41 15 20 -3 23 0 22 22 -2
21 4 27 28 32 21 5 24 7 9 8 -13 1 -24 10 -27 22 -6 23 -5 23 92 3 l34 -7 -7
34 c-4 19 -9 41 -11 50 -2 9 5 26 16 38 37 39 24 112 -33 187 -44 58 -45 64
-19 64 12 0 19 7 19 18 0 9 3 26 7 36 8 18 5 19 -34 12 l-43 -7 7 31 c5 23 2
37 -10 50 -16 18 -16 20 -1 26 17 7 22 39 7 48 -15 10 -33 98 -22 109 10 10
-19 79 -38 91 -4 3 -9 26 -9 52 -2 65 -8 80 -48 104 -18 12 -34 25 -34 30 0 5
-16 18 -35 30 -20 12 -47 45 -66 78 -18 31 -43 69 -57 84 -22 24 -24 32 -18
85 5 53 -1 86 -18 84 -26 -4 -37 8 -71 74 -21 42 -35 78 -32 81 11 11 -23 78
-51 100 -22 18 -24 24 -14 37 10 12 11 21 3 36 -6 10 -8 33 -5 50 4 19 2 37
-6 46 -7 8 -9 15 -4 15 5 1 -3 8 -18 16 -16 8 -28 23 -28 35 0 11 -7 22 -15
25 -8 4 -15 12 -15 20 0 14 12 18 38 15 9 -2 12 4 7 18 -4 13 0 23 12 30 10 6
12 11 6 11 -7 0 -12 9 -10 20 5 30 17 37 24 12 6 -26 16 -28 33 -7 7 8 18 15
25 15 25 0 35 66 13 88 -9 9 -10 15 -2 20 6 4 16 17 22 29 10 17 9 22 -4 27
-13 5 -15 14 -10 44 4 20 8 43 8 50 1 9 9 11 22 8 11 -3 28 2 39 11 23 22 131
31 152 13 12 -10 15 -10 15 3 0 10 6 14 14 11 9 -3 17 3 21 16 5 16 10 19 20
10 8 -7 19 -9 24 -5 6 3 19 -3 30 -14 25 -25 53 -30 73 -13 9 7 40 17 69 22
30 4 66 13 81 19 16 6 41 8 58 4 26 -5 35 0 64 32 26 28 39 35 55 30 17 -5 20
-3 14 12 -6 16 -5 16 9 5 14 -11 18 -10 27 6 6 11 23 22 38 25 43 10 54 21 55
57 1 21 -5 38 -17 46 -18 14 -18 14 0 27 18 14 18 38 1 78 -5 12 0 18 19 23
20 5 24 10 17 24 -5 9 -7 23 -4 31 3 9 -1 11 -16 7 -11 -4 -23 -2 -27 4 -4 6
-16 15 -27 19 -13 5 -22 18 -24 35 -2 16 -11 37 -20 47 -16 18 -16 19 12 19
16 0 35 4 43 9 15 10 7 31 -13 31 -13 0 -40 86 -31 101 12 19 -6 49 -29 49
-13 0 -31 9 -42 21 -11 13 -27 19 -40 16 -20 -3 -22 0 -18 27 4 33 -24 105
-42 106 -6 0 -17 7 -24 15 -14 17 -65 21 -55 5 3 -5 2 -10 -3 -10 -11 0 -62
50 -62 61 0 4 -10 9 -22 11 -20 3 -23 9 -23 49 0 45 -19 84 -36 74 -4 -3 -13
4 -20 16 -11 21 0 38 25 39 5 0 2 8 -7 18 -10 10 -17 23 -17 29 0 5 -20 9 -45
8 -25 0 -45 3 -45 7 0 4 -9 8 -20 8 -26 0 -70 28 -70 45 0 7 -7 18 -16 26 -8
7 -24 29 -35 48 -23 45 -53 79 -70 83 -7 2 -18 12 -24 23 -6 11 -24 26 -40 33
-28 13 -71 67 -105 133 -9 16 -18 27 -22 24 -9 -9 -79 28 -75 39 2 6 18 12 35
14 18 2 32 7 32 11 0 4 -18 26 -40 49 -42 44 -50 58 -25 48 9 -3 24 3 35 14
24 24 50 26 50 5 0 -21 23 -14 33 10 7 16 2 26 -22 46 -26 21 -32 35 -35 77
-6 62 -20 92 -46 92 -14 0 -20 7 -20 22 0 12 -7 30 -17 40 -12 14 -14 23 -6
41 7 14 7 31 1 47 -5 14 -7 42 -5 62 3 20 -1 48 -8 62 -7 13 -11 27 -8 30 13
12 -63 38 -99 33 -21 -3 -38 -1 -38 5 0 5 -8 7 -17 4 -22 -7 -55 13 -35 21 20
8 14 22 -8 16 -11 -3 -30 1 -42 9 -13 8 -36 19 -53 24 -30 8 -43 10 -104 13
-25 1 -32 5 -28 16 4 8 2 17 -3 20 -6 4 -10 1 -10 -4 0 -6 -4 -11 -9 -11 -4 0
-6 22 -3 49 4 42 2 50 -14 53 -11 2 -24 -3 -30 -11 -10 -13 -21 -14 -64 -5
-52 11 -71 5 -82 -27 -7 -20 -48 9 -48 33 0 19 -4 20 -45 16 -49 -6 -55 -2
-27 18 13 9 17 27 17 75 0 41 4 64 13 66 6 3 12 11 12 18 0 7 10 16 23 20 13
4 17 8 10 12 -7 2 -13 9 -13 14 0 6 5 7 10 4 6 -3 10 -1 10 4 0 6 9 11 20 11
11 0 20 5 20 10 0 6 6 10 14 10 8 0 17 7 20 16 3 8 11 12 16 9 6 -4 18 -1 26
6 13 10 12 14 -2 31 -17 18 -17 18 19 3 28 -12 37 -12 37 -3 0 17 -59 50 -73
41 -7 -4 -6 1 2 10 7 9 10 24 7 33 -4 11 1 22 14 31 11 8 20 20 20 26 0 7 -4
6 -10 -3 -5 -8 -10 -10 -10 -5 0 6 -13 19 -30 28 -16 10 -30 25 -30 33 0 18
15 18 34 -1 20 -20 32 -19 75 7 20 13 43 21 52 20 11 -2 15 5 15 20 -1 16 4
23 17 21 15 -1 18 4 13 20 -3 12 -6 25 -6 30 0 4 -6 7 -14 7 -8 0 -29 20 -47
44 -27 38 -34 43 -45 31 -8 -7 -14 -21 -14 -30 0 -8 -11 -20 -25 -25 -14 -5
-25 -16 -25 -25 0 -8 -9 -15 -20 -15 -11 0 -20 -4 -20 -10 0 -5 5 -10 10 -10
6 0 10 -4 10 -9 0 -12 -50 -8 -50 4 0 6 -7 19 -16 30 -14 19 -15 19 -49 1 -30
-16 -41 -18 -74 -8 -49 15 -56 15 -42 -2 6 -7 8 -21 5 -30 -7 -17 24 -49 38
-40 5 3 13 -6 20 -20 6 -14 16 -26 22 -26 6 0 4 -5 -4 -10 -13 -8 -13 -10 2
-10 20 0 62 -55 55 -73 -3 -7 -8 -5 -13 8 -10 25 -23 35 -50 35 -12 0 -25 7
-28 16 -4 11 -14 15 -31 12 -14 -3 -25 -1 -25 3 0 5 -7 9 -15 9 -8 0 -15 5
-15 10 0 6 4 10 10 10 5 0 -7 16 -28 35 -20 19 -31 35 -24 35 6 0 12 9 12 21
0 11 4 18 9 14 11 -6 37 46 43 86 4 22 1 25 -14 21 -13 -3 -17 0 -12 11 3 8 1
18 -5 22 -6 3 -11 19 -11 34 0 15 -5 32 -11 38 -7 7 -3 12 15 15 28 6 33 -1
14 -20 -9 -9 -7 -12 10 -12 12 0 21 5 20 12 -4 17 123 33 133 17 5 -9 15 -9
40 0 32 11 36 10 65 -22 17 -18 33 -39 35 -45 2 -6 23 -13 46 -15 32 -4 43 -1
48 11 7 20 -18 98 -61 187 -19 39 -34 84 -34 100 0 17 -7 39 -15 49 -19 25
-19 37 0 30 14 -6 21 17 16 49 0 4 4 7 9 7 6 0 10 5 10 10 0 6 -15 11 -32 11
-18 1 -26 3 -16 6 24 6 31 34 12 48 -15 10 -12 11 14 7 44 -6 82 20 74 50 -3
13 -16 31 -29 42 -14 10 -22 24 -19 32 11 28 -12 22 -39 -10 -29 -34 -55 -40
-79 -16 -8 8 -4 16 13 29 25 19 22 24 -20 34 -18 5 -30 1 -42 -13z m143 -106
c0 -8 -4 -14 -8 -14 -4 0 -8 9 -8 19 0 11 4 17 8 15 4 -3 8 -12 8 -20z m-288
-446 c-9 -9 -12 -7 -12 12 0 19 3 21 12 12 9 -9 9 -15 0 -24z m-72 -343 c11
-13 8 -15 -15 -15 -23 0 -26 2 -15 15 7 8 14 15 15 15 1 0 8 -7 15 -15z m183
-105 c18 0 20 -11 11 -47 -8 -28 -61 -48 -82 -30 -13 10 -15 8 -9 -18 7 -39 0
-50 -40 -58 -30 -6 -33 -4 -38 27 -5 27 -1 42 22 74 27 40 43 52 43 32 0 -5 4
-10 10 -10 5 0 7 7 3 16 -4 10 1 22 12 30 16 12 21 12 35 -1 9 -8 24 -15 33
-15z m-145 -199 c3 -8 -1 -12 -9 -9 -7 2 -15 10 -17 17 -3 8 1 12 9 9 7 -2 15
-10 17 -17z m-4 -54 c-3 -9 -10 -17 -16 -17 -5 0 -21 -12 -35 -26 -25 -25 -28
-25 -65 -13 -39 13 -48 31 -25 54 9 8 19 10 28 4 24 -15 59 -10 81 11 24 22
43 14 32 -13z m-89 -1024 c-4 -12 0 -14 18 -9 17 4 30 -1 45 -17 20 -21 42
-67 42 -88 0 -18 -28 -9 -33 12 -4 16 -9 19 -24 11 -27 -15 -48 5 -67 61 -20
59 -20 56 5 50 13 -4 18 -11 14 -20z m735 -672 c0 -13 -49 -20 -57 -8 -3 6 -1
7 5 3 7 -4 12 -2 12 3 0 6 9 11 20 11 11 0 20 -4 20 -9z m30 -21 c0 -5 -4 -10
-10 -10 -5 0 -10 5 -10 10 0 6 5 10 10 10 6 0 10 -4 10 -10z m-765 -370 c8
-12 67 -10 76 3 10 14 29 -2 29 -24 0 -11 -4 -18 -9 -14 -6 3 -13 -15 -16 -40
-5 -31 -12 -45 -23 -45 -8 0 -21 -8 -28 -17 -13 -17 -13 -17 -14 0 0 10 -8 17
-20 17 -13 0 -20 7 -20 19 0 11 -9 22 -19 26 -11 3 -23 16 -27 28 -4 12 -11
25 -17 28 -5 4 -6 12 -3 18 9 14 83 15 91 1z m-1551 -276 c3 -8 2 -12 -4 -9
-6 3 -10 10 -10 16 0 14 7 11 14 -7z m1832 -119 c9 -13 24 -27 35 -30 18 -6
18 -7 -3 -36 -17 -23 -29 -29 -59 -29 -24 0 -39 -5 -43 -15 -6 -18 -52 -20
-62 -3 -5 7 -3 8 5 3 15 -9 51 27 51 51 0 19 40 84 52 84 4 0 15 -11 24 -25z
m69 5 c3 -5 1 -10 -4 -10 -6 0 -11 5 -11 10 0 6 2 10 4 10 3 0 8 -4 11 -10z
m1493 -90 c-1 -19 4 -21 15 -6 13 18 15 18 43 0 41 -26 43 -32 27 -64 -11 -23
-19 -28 -41 -24 -14 3 -30 10 -33 16 -8 13 -79 2 -79 -12 0 -6 -5 -10 -11 -10
-8 0 -8 4 1 14 6 8 10 23 9 33 -5 27 20 58 46 58 13 0 23 -2 23 -5z m-1680
-77 c-2 -10 -14 -23 -27 -29 -19 -10 -29 -9 -52 5 l-29 16 35 6 c19 3 38 9 42
12 13 14 34 7 31 -10z m682 -149 c0 -14 -3 -14 -15 -4 -8 7 -15 14 -15 16 0 2
7 4 15 4 8 0 15 -7 15 -16z m-2485 -114 c3 -5 2 -10 -4 -10 -5 0 -13 5 -16 10
-3 6 -2 10 4 10 5 0 13 -4 16 -10z m2775 -170 c0 -5 -2 -10 -4 -10 -3 0 -8 5
-11 10 -3 6 -1 10 4 10 6 0 11 -4 11 -10z m-175 -70 c3 -5 -1 -10 -9 -10 -9 0
-16 5 -16 10 0 6 4 10 9 10 6 0 13 -4 16 -10z m-1464 -182 c12 -16 18 -18 19
-8 0 21 20 -1 25 -30 5 -26 21 -40 46 -40 16 0 54 -45 79 -95 14 -27 19 -30
60 -28 25 1 56 3 70 5 18 2 25 -2 28 -17 6 -29 24 -49 32 -35 5 8 15 7 36 -1
16 -7 35 -11 42 -10 6 1 12 -3 12 -9 0 -6 11 -15 25 -20 14 -5 25 -17 25 -28
0 -10 4 -22 9 -27 19 -22 21 -63 2 -86 -10 -13 -16 -29 -14 -36 4 -12 -11 -17
-81 -27 -22 -3 -42 -9 -45 -14 -11 -18 -60 -10 -67 10 -5 18 -7 18 -24 3 -18
-16 -21 -16 -48 4 -21 14 -39 19 -58 15 -36 -7 -184 59 -184 81 0 23 -37 55
-64 55 -13 0 -29 7 -36 15 -7 8 -16 15 -21 15 -5 0 -9 -7 -9 -15 0 -8 -4 -15
-9 -15 -5 0 -17 -7 -26 -16 -13 -13 -21 -14 -41 -6 -27 13 -32 32 -9 32 8 0
15 7 15 16 0 8 4 13 8 10 5 -3 21 7 36 23 l27 28 -28 14 c-31 15 -122 109
-105 109 13 0 23 53 10 61 -5 4 11 10 36 13 25 4 51 4 58 0 7 -4 8 -3 4 4 -4
7 3 14 19 18 20 5 23 9 14 20 -9 11 -6 14 19 14 19 0 35 -7 41 -17 6 -10 11
-13 11 -6 0 6 9 15 20 18 11 4 18 11 15 16 -12 18 7 8 26 -13z m1157 -355 c-5
-25 -28 -28 -28 -4 0 12 6 21 16 21 9 0 14 -7 12 -17z m-1403 -191 c-2 -3 -12
-1 -22 2 -15 6 -15 9 -3 16 13 8 35 -8 25 -18z m240 -712 c-3 -5 5 -15 19 -21
15 -7 36 -34 51 -65 26 -52 54 -70 70 -44 11 18 26 10 20 -10 -5 -17 -2 -20
23 -20 25 0 30 5 35 29 4 20 17 34 38 45 18 9 30 14 27 10 -4 -3 9 -20 29 -37
24 -22 37 -27 42 -18 4 6 15 9 24 5 21 -8 33 -44 17 -54 -16 -10 34 -42 54
-34 16 6 66 -40 66 -60 0 -6 -7 -3 -14 7 -18 24 -24 22 -28 -10 -2 -14 -9 -28
-17 -31 -9 -3 -11 2 -6 17 5 16 2 21 -13 21 -29 0 -32 -9 -14 -47 13 -28 14
-36 3 -42 -18 -11 -77 6 -112 31 -15 11 -48 24 -74 29 -29 5 -60 20 -81 39
-19 16 -43 30 -53 30 -10 0 -26 9 -36 20 -10 11 -28 20 -41 20 -26 0 -41 21
-65 91 -16 49 -7 94 18 85 7 -3 12 -2 12 2 -2 12 1 22 7 22 3 0 2 -4 -1 -10z
m998 -414 c26 -20 27 -26 16 -44 -7 -11 -18 -18 -26 -15 -17 7 -28 -24 -14
-41 13 -15 1 -59 -19 -71 -6 -4 -8 -16 -4 -27 4 -14 -2 -29 -22 -49 -37 -38
-66 -38 -81 1 -8 22 -8 30 0 30 16 0 57 50 57 70 0 9 -5 21 -12 28 -9 9 -9 12
1 12 7 0 3 9 -10 20 -17 14 -20 20 -9 20 26 1 60 37 60 64 0 33 25 34 63 2z
m-196 -208 c-3 -8 -6 -5 -6 6 -1 11 2 17 5 13 3 -3 4 -12 1 -19z m-1137 -750
c0 -6 -56 -38 -67 -38 -1 0 -3 5 -3 10 0 6 11 15 25 20 14 5 25 17 25 27 0 15
2 16 10 3 5 -8 10 -18 10 -22z m-80 -98 c0 -5 -2 -10 -4 -10 -3 0 -8 5 -11 10
-3 6 -1 10 4 10 6 0 11 -4 11 -10z m-420 -322 c0 -13 -32 -6 -37 9 -3 7 3 9
16 6 12 -3 21 -10 21 -15z m90 12 c0 -5 -4 -10 -10 -10 -5 0 -10 5 -10 10 0 6
5 10 10 10 6 0 10 -4 10 -10z m224 -149 c3 -5 -1 -14 -10 -22 -13 -10 -19 -9
-37 9 l-21 22 31 0 c18 0 34 -4 37 -9z m-839 -1191 c3 -5 2 -10 -4 -10 -5 0
-13 5 -16 10 -3 6 -2 10 4 10 5 0 13 -4 16 -10z"/>
<path d="M12930 11031 c0 -8 -6 -11 -17 -7 -14 6 -13 2 4 -16 27 -27 50 -14
27 16 -8 12 -14 14 -14 7z"/>
<path d="M10578 10233 c-4 -14 0 -27 12 -38 16 -15 18 -15 24 0 8 23 8 25 -8
25 -8 0 -16 8 -18 18 -3 14 -5 13 -10 -5z"/>
<path d="M11570 14819 c0 -5 5 -7 10 -4 6 3 10 8 10 11 0 2 -4 4 -10 4 -5 0
-10 -5 -10 -11z"/>
<path d="M10910 14761 c0 -5 7 -14 16 -22 9 -7 14 -22 11 -36 -6 -35 6 -36 25
-2 17 28 17 30 -2 49 -20 20 -50 27 -50 11z"/>
<path d="M11541 14738 c-8 -13 -16 -39 -18 -58 l-3 -35 23 28 c12 15 30 27 40
27 21 0 21 4 1 35 -20 31 -25 31 -43 3z"/>
<path d="M10726 14655 c4 -8 8 -15 10 -15 2 0 4 7 4 15 0 8 -4 15 -10 15 -5 0
-7 -7 -4 -15z"/>
<path d="M10760 14650 c-4 -26 2 -55 12 -68 17 -20 18 -9 3 38 -7 25 -14 38
-15 30z"/>
<path d="M11505 13730 c-3 -5 -1 -10 4 -10 6 0 11 5 11 10 0 6 -2 10 -4 10 -3
0 -8 -4 -11 -10z"/>
<path d="M10084 13410 c1 -16 5 -32 8 -35 12 -12 -27 -93 -53 -111 -37 -25
-28 -34 33 -34 61 0 95 28 90 73 -4 31 31 87 55 87 11 0 8 6 -10 20 -14 11
-29 20 -34 20 -5 0 -16 -9 -26 -20 -28 -33 -65 -24 -46 11 7 15 6 19 -5 19
-10 0 -14 -9 -12 -30z"/>
<path d="M10349 13106 c14 -15 26 -26 28 -26 9 0 -24 40 -37 45 -8 4 -4 -5 9
-19z"/>
<path d="M12217 12629 c4 -15 0 -22 -16 -26 -30 -8 -29 -51 3 -63 13 -5 27
-14 31 -19 3 -6 17 -11 29 -11 15 0 26 -7 29 -20 5 -21 32 -26 57 -10 12 8 13
13 3 30 -17 26 -16 33 2 26 22 -8 38 29 30 75 -4 21 -11 36 -16 33 -6 -3 -7
-19 -4 -35 4 -16 5 -29 2 -29 -20 0 -78 34 -88 51 -8 15 -14 18 -21 11 -7 -7
-17 -8 -29 -2 -14 8 -16 6 -12 -11z"/>
<path d="M10086 12475 c4 -8 10 -15 15 -15 4 0 6 7 3 15 -4 8 -10 15 -15 15
-4 0 -6 -7 -3 -15z"/>
<path d="M10020 12440 c0 -30 15 -41 23 -17 3 9 7 9 20 -2 26 -21 20 1 -7 27
-31 29 -36 28 -36 -8z"/>
<path d="M10170 12450 c0 -8 -9 -10 -26 -6 -31 8 -57 -18 -47 -48 4 -15 2 -18
-12 -12 -14 5 -16 2 -10 -16 4 -13 9 -35 12 -50 3 -16 11 -28 18 -28 7 0 16
-12 20 -27 7 -26 8 -26 15 -8 4 11 5 24 2 29 -3 5 2 7 11 3 11 -4 17 -1 17 7
0 15 76 31 102 21 28 -11 31 15 5 39 -14 13 -32 26 -39 28 -7 3 -13 20 -13 39
0 30 -3 34 -27 37 -17 2 -28 -2 -28 -8z"/>
<path d="M9464 11384 c3 -9 6 -21 6 -27 0 -8 3 -8 11 0 13 13 5 43 -12 43 -6
0 -8 -7 -5 -16z"/>
<path d="M9875 11330 c3 -5 11 -10 16 -10 6 0 7 5 4 10 -3 6 -11 10 -16 10 -6
0 -7 -4 -4 -10z"/>
<path d="M10070 11001 c0 -5 5 -13 10 -16 6 -3 10 -2 10 4 0 5 -4 13 -10 16
-5 3 -10 2 -10 -4z"/>
<path d="M9255 10680 c-3 -5 -1 -10 4 -10 6 0 11 5 11 10 0 6 -2 10 -4 10 -3
0 -8 -4 -11 -10z"/>
<path d="M8850 8901 c0 -23 -10 -27 -27 -10 -7 7 -13 8 -17 0 -4 -6 4 -13 19
-17 14 -3 25 -10 25 -15 0 -5 9 -9 19 -9 11 0 23 -4 26 -10 3 -5 14 -10 24
-10 14 0 17 6 14 24 -4 17 -10 22 -23 19 -13 -4 -19 1 -22 18 -4 31 -38 39
-38 10z"/>
<path d="M8861 8831 c-1 -8 9 -25 21 -38 20 -22 21 -23 2 -23 -16 0 -16 -2 -4
-10 23 -14 32 12 11 35 -10 11 -21 27 -24 35 -4 12 -6 12 -6 1z"/>
<path d="M9230 8805 c7 -8 10 -21 7 -29 -3 -8 2 -16 15 -19 16 -5 19 -2 15 14
-4 13 0 19 11 19 12 1 10 5 -8 15 -35 20 -57 20 -40 0z"/>
<path d="M9305 8800 c-3 -5 -1 -10 4 -10 6 0 11 5 11 10 0 6 -2 10 -4 10 -3 0
-8 -4 -11 -10z"/>
<path d="M8930 8746 c0 -17 103 -13 108 5 4 11 2 11 -8 2 -8 -7 -19 -9 -29 -4
-23 13 -71 10 -71 -3z"/>
<path d="M8803 8743 c4 -3 2 -12 -4 -20 -9 -10 -6 -13 15 -13 14 0 29 0 34 -1
4 0 10 -10 15 -21 9 -25 12 -22 21 14 5 22 3 26 -9 22 -8 -4 -26 1 -40 10 -24
16 -44 22 -32 9z"/>
<path d="M9146 8725 c-4 -13 -10 -14 -26 -5 -25 13 -51 2 -26 -12 9 -5 16 -15
16 -22 0 -7 15 -30 34 -51 33 -37 34 -37 45 -16 7 11 18 21 25 21 10 0 12 7 8
22 -3 12 -1 19 4 15 14 -8 38 9 30 21 -10 16 -45 22 -39 6 9 -23 -22 -16 -32
8 -13 27 -31 34 -39 13z"/>
<path d="M8728 8699 c-33 -19 -12 -48 35 -49 12 0 8 28 -5 34 -9 4 -8 5 2 5 8
-1 22 -1 30 0 13 1 13 2 0 11 -19 12 -40 12 -62 -1z"/>
<path d="M8700 8614 c0 -8 5 -12 10 -9 6 3 10 10 10 16 0 5 -4 9 -10 9 -5 0
-10 -7 -10 -16z"/>
<path d="M8685 8571 c-3 -5 -1 -12 5 -16 5 -3 10 1 10 9 0 18 -6 21 -15 7z"/>
<path d="M12678 8408 c9 -9 15 -9 24 0 9 9 7 12 -12 12 -19 0 -21 -3 -12 -12z"/>
<path d="M11290 8360 c0 -5 10 -10 23 -10 18 0 19 2 7 10 -19 13 -30 13 -30 0z"/>
<path d="M11237 8341 c-18 -6 -18 -7 0 -23 15 -14 21 -14 37 -3 32 24 5 43
-37 26z"/>
<path d="M11579 8181 c6 -10 13 -36 15 -56 6 -44 12 -53 28 -37 8 8 47 12 105
12 86 0 93 1 93 20 0 23 -22 26 -39 6 -15 -17 -77 -11 -102 10 -8 8 -22 14
-31 14 -8 0 -25 11 -38 25 -28 30 -45 33 -31 6z"/>
<path d="M10675 7430 c10 -11 20 -20 22 -20 1 0 3 9 3 20 0 14 -7 20 -22 20
-20 0 -21 -1 -3 -20z"/>
<path d="M10727 7399 c7 -7 15 -10 18 -7 3 3 -2 9 -12 12 -14 6 -15 5 -6 -5z"/>
<path d="M10703 7355 c-7 -8 -13 -20 -13 -27 0 -9 -3 -9 -11 2 -9 12 -10 12
-5 -3 3 -10 6 -21 6 -23 0 -2 8 -4 19 -4 11 0 21 9 25 23 12 47 3 60 -21 32z"/>
<path d="M7650 6832 c0 -16 -2 -45 -5 -63 l-5 -34 13 28 c8 16 19 32 24 35 6
4 13 18 14 32 3 20 -1 26 -18 28 -19 3 -23 -1 -23 -26z"/>
<path d="M7621 6713 c-15 -12 -24 -36 -31 -78 -13 -79 -13 -85 5 -85 19 0 35
31 35 68 0 21 6 31 20 35 30 8 36 35 13 58 -19 19 -20 19 -42 2z"/>
<path d="M6917 6673 c-14 -13 -7 -32 14 -38 16 -5 19 -12 15 -31 -4 -13 -2
-24 3 -24 5 0 11 -8 13 -18 7 -26 61 -27 84 -1 19 21 55 25 85 8 16 -8 25 -7
38 5 10 9 22 16 27 16 5 0 3 -4 -5 -9 -12 -8 -13 -14 -3 -36 7 -14 16 -24 21
-21 5 4 7 -4 3 -16 -4 -15 -2 -19 7 -14 7 5 10 10 7 13 -10 11 14 42 36 45 22
3 22 3 -5 32 -15 16 -27 33 -27 38 0 5 -6 6 -12 1 -15 -9 -72 -14 -147 -13
-56 1 -96 20 -106 53 -6 17 -35 23 -48 10z"/>
<path d="M7302 6509 c-10 -15 -20 -20 -40 -16 -27 5 -72 -17 -72 -36 0 -6 7
-18 16 -28 8 -9 16 -31 16 -48 1 -17 5 -31 10 -31 4 0 8 -11 8 -25 0 -22 -4
-25 -36 -25 -31 0 -35 -2 -24 -15 6 -8 9 -18 6 -24 -3 -5 -3 -16 0 -25 9 -22
114 -23 114 -1 0 17 9 19 29 6 29 -18 101 30 101 66 0 16 8 27 24 33 29 11 48
42 40 65 -5 11 0 18 15 22 29 7 27 29 -4 37 -14 4 -32 17 -41 31 -19 28 -34
33 -34 9 0 -11 -6 -14 -22 -9 -17 6 -20 4 -15 -9 8 -19 -2 -20 -25 -2 -10 7
-15 16 -11 20 8 7 -15 26 -32 26 -6 0 -16 -9 -23 -21z"/>
<path d="M9330 6356 c0 -9 5 -16 10 -16 6 0 10 4 10 9 0 6 -4 13 -10 16 -5 3
-10 -1 -10 -9z"/>
<path d="M9405 6340 c3 -5 8 -10 11 -10 2 0 4 5 4 10 0 6 -5 10 -11 10 -5 0
-7 -4 -4 -10z"/>
<path d="M8220 6050 c0 -5 7 -7 15 -4 8 4 15 8 15 10 0 2 -7 4 -15 4 -8 0 -15
-4 -15 -10z"/>
<path d="M7957 5960 c-4 -16 2 -22 31 -30 26 -7 39 -6 47 2 7 8 6 9 -2 4 -6
-3 -15 0 -20 7 -4 8 -18 19 -29 25 -18 10 -23 8 -27 -8z"/>
<path d="M7815 5130 c3 -5 8 -10 11 -10 2 0 4 5 4 10 0 6 -5 10 -11 10 -5 0
-7 -4 -4 -10z"/>
<path d="M9730 5078 c0 -12 3 -17 8 -12 4 5 11 12 15 15 5 3 2 9 -7 12 -12 5
-16 0 -16 -15z"/>
<path d="M9460 4780 c0 -5 5 -10 11 -10 5 0 7 5 4 10 -3 6 -8 10 -11 10 -2 0
-4 -4 -4 -10z"/>
<path d="M8656 4685 c-11 -39 -6 -56 20 -65 39 -15 66 3 54 36 -6 14 -8 29 -5
34 3 4 -11 10 -29 12 -28 3 -36 0 -40 -17z"/>
</g>
</svg>
