<?xml version="1.0" standalone="no"?>
<!DOCTYPE svg PUBLIC "-//W3C//DTD SVG 20010904//EN"
 "http://www.w3.org/TR/2001/REC-SVG-20010904/DTD/svg10.dtd">
<svg version="1.0" xmlns="http://www.w3.org/2000/svg"
 width="197.367805pt" height="704.422286pt" viewBox="0 0 197.367805 704.422286"
 preserveAspectRatio="xMidYMid meet">
<metadata>
Created by potrace 1.15, written by Peter Selinger 2001-2017
</metadata>
<g transform="translate(-916.948906,1347.730374) scale(0.100000,-0.100000)"
fill="#222222" stroke="none">
<path d="M9740 13464 c0 -12 9 -41 19 -64 11 -24 17 -48 15 -55 -7 -16 57 -77
74 -70 21 8 78 -52 91 -95 10 -34 17 -41 52 -51 28 -9 41 -19 45 -36 4 -12 11
-23 16 -23 6 0 8 -11 4 -23 -4 -18 2 -31 25 -53 25 -24 30 -35 26 -61 -5 -26
0 -36 30 -63 30 -28 38 -31 58 -22 32 15 65 -9 49 -35 -14 -23 -7 -43 13 -43
14 0 14 -3 -2 -20 -9 -10 -15 -26 -11 -35 3 -9 0 -18 -8 -21 -12 -4 -11 -11 2
-37 11 -22 12 -32 4 -35 -8 -2 -7 -12 4 -34 12 -23 13 -36 5 -54 -8 -18 -7
-23 6 -26 12 -2 11 -8 -9 -28 -27 -27 -48 -79 -48 -117 0 -13 -7 -37 -15 -53
-15 -29 -15 -30 16 -126 7 -24 6 -38 -6 -60 -8 -16 -15 -34 -15 -40 0 -6 -7
-17 -15 -24 -8 -7 -12 -16 -9 -22 3 -5 0 -15 -6 -23 -6 -8 -9 -19 -5 -25 3 -6
1 -26 -5 -46 -9 -27 -15 -32 -25 -24 -19 16 -27 -14 -10 -37 8 -10 15 -28 15
-39 0 -15 8 -24 26 -28 22 -6 25 -11 21 -34 -12 -57 -27 -86 -39 -74 -7 7 -16
12 -22 12 -5 0 -7 -3 -3 -6 3 -4 0 -19 -9 -35 -18 -36 -9 -93 11 -66 6 9 32
25 57 36 34 14 47 26 52 47 4 15 19 41 33 58 14 16 29 41 34 54 9 24 10 24 36
7 26 -17 27 -17 45 5 10 12 18 18 19 14 1 -5 4 2 8 16 5 14 4 33 -2 44 -6 13
-5 21 3 26 9 5 9 9 1 14 -6 4 -9 12 -5 17 3 5 10 7 15 4 5 -4 9 3 9 14 0 12 5
21 10 21 6 0 10 13 10 29 0 16 3 31 8 33 4 2 16 20 26 40 10 21 23 35 27 32 5
-3 9 9 9 26 0 27 3 31 21 25 19 -6 21 -4 15 18 -4 16 -1 27 7 30 7 2 -3 13
-23 25 -19 12 -41 20 -47 17 -7 -3 -20 -8 -28 -11 -11 -5 -15 1 -15 22 0 21
-3 25 -9 15 -14 -21 -61 -6 -61 20 0 11 -12 33 -27 48 -16 16 -29 42 -31 59
-3 30 -3 31 35 26 38 -5 38 -5 17 13 -12 10 -27 29 -33 41 -11 20 -9 26 12 42
21 17 23 25 19 77 -3 41 -11 65 -26 82 l-21 23 24 -7 c23 -7 24 -6 19 39 -3
25 -2 46 3 46 15 0 10 47 -6 60 -8 7 -12 16 -9 22 3 5 1 14 -4 21 -17 22 -22
65 -11 91 9 19 8 31 -5 57 -9 17 -16 38 -16 46 0 8 -11 25 -25 38 -30 27 -51
85 -32 86 7 0 4 4 -6 7 -9 4 -25 23 -35 42 -12 23 -25 34 -42 36 -14 1 -46 8
-73 15 -37 10 -52 10 -70 0 -19 -10 -30 -10 -60 2 -35 15 -54 39 -66 84 -3 12
-8 22 -11 21 -3 0 -25 9 -48 21 -24 12 -51 20 -60 16 -8 -3 -19 0 -24 7 -5 9
-8 6 -8 -8z"/>
<path d="M10050 11540 c-7 -16 -16 -30 -19 -30 -4 0 -26 -14 -49 -32 -29 -22
-40 -38 -37 -49 7 -20 -30 -50 -50 -43 -21 9 -24 -45 -5 -85 10 -20 26 -56 35
-80 14 -39 14 -45 0 -61 -8 -9 -15 -21 -15 -27 0 -6 -9 -13 -20 -16 -15 -4
-20 -14 -20 -37 0 -18 9 -43 20 -57 24 -30 26 -76 5 -97 -8 -8 -15 -28 -15
-44 0 -17 -6 -32 -15 -36 -8 -3 -15 -12 -15 -20 0 -7 -7 -17 -16 -20 -16 -6
-15 -20 3 -80 4 -15 1 -18 -11 -13 -11 5 -16 1 -16 -13 0 -11 6 -20 13 -20 15
0 18 -63 4 -76 -10 -11 -8 -126 3 -144 6 -10 2 -27 -14 -56 -15 -26 -21 -52
-19 -70 3 -21 -1 -35 -16 -48 -13 -12 -21 -31 -21 -50 0 -24 -9 -38 -36 -59
-39 -32 -61 -74 -45 -90 11 -11 -13 -73 -40 -103 -10 -11 -19 -32 -19 -46 0
-15 -7 -29 -16 -32 -9 -4 -14 -13 -10 -21 3 -8 1 -15 -3 -15 -5 0 -27 -17 -49
-38 -31 -30 -38 -42 -30 -55 6 -12 4 -24 -6 -39 -9 -12 -16 -32 -16 -45 0 -13
-8 -24 -19 -28 -14 -4 -21 -17 -23 -43 -3 -32 -7 -37 -31 -40 -23 -3 -27 -7
-21 -24 5 -18 3 -20 -16 -15 -25 6 -60 -11 -60 -30 0 -7 -5 -13 -11 -13 -8 0
-7 -5 1 -15 11 -13 10 -23 0 -55 -7 -22 -19 -45 -27 -51 -7 -6 -13 -18 -13
-26 0 -10 -6 -12 -21 -8 -11 4 -34 1 -50 -5 -24 -11 -29 -18 -28 -44 1 -17 1
-35 -1 -41 -4 -19 12 -55 26 -55 8 0 14 -4 14 -9 0 -17 62 -86 86 -94 27 -10
31 -22 9 -31 -12 -4 -13 -10 -3 -32 10 -21 17 -25 40 -20 22 4 28 2 30 -12 0
-9 2 -22 2 -29 1 -7 10 -19 21 -27 18 -13 19 -18 8 -47 -18 -47 -1 -65 32 -33
9 9 23 13 32 10 9 -4 20 -1 25 6 7 10 11 9 22 -5 13 -17 46 -14 46 4 0 5 12 4
27 -2 24 -9 30 -7 42 10 7 12 24 21 38 21 20 0 23 4 18 20 -4 11 -2 21 4 21
76 9 135 -2 145 -26 3 -8 22 -19 43 -24 42 -12 83 -63 83 -105 0 -15 7 -27 19
-31 11 -3 36 -19 57 -36 34 -27 38 -35 38 -75 -1 -24 3 -44 8 -44 5 0 8 -19 6
-42 -2 -33 1 -43 12 -43 8 0 16 -10 18 -22 2 -13 9 -23 16 -23 18 0 43 -30 51
-62 4 -14 21 -44 39 -65 46 -54 73 -163 40 -163 -14 0 -15 -8 -9 -55 4 -38 3
-55 -5 -55 -7 0 -8 -6 0 -19 15 -28 12 -58 -6 -65 -8 -3 -31 1 -51 9 -20 8
-38 13 -40 11 -2 -2 1 -22 7 -44 10 -38 8 -43 -16 -67 -15 -15 -23 -32 -20
-41 3 -9 3 -20 0 -26 -4 -6 -8 -26 -9 -45 -1 -22 -10 -39 -24 -49 -16 -12 -20
-21 -15 -41 4 -16 2 -28 -7 -34 -20 -12 -49 -11 -46 2 1 6 -3 13 -9 16 -6 2
-11 -10 -12 -28 0 -18 -6 -35 -13 -39 -6 -4 -8 -13 -5 -19 4 -6 0 -11 -8 -11
-23 0 -20 -17 5 -31 18 -9 21 -17 16 -50 -3 -21 -1 -42 4 -45 5 -3 9 -16 9
-28 0 -13 6 -29 14 -35 19 -16 26 -69 9 -75 -7 -3 -13 -11 -13 -19 0 -7 -9
-30 -20 -52 -11 -22 -20 -45 -20 -52 0 -8 -9 -17 -21 -21 -11 -5 -20 -10 -19
-12 4 -10 -35 -70 -48 -75 -7 -3 -21 -1 -31 5 -10 5 -28 6 -40 3 -21 -5 -21
-6 -4 -25 23 -26 24 -69 2 -88 -9 -8 -24 -27 -33 -41 -16 -26 -16 -26 26 -44
24 -10 71 -31 105 -48 l63 -31 30 22 30 23 50 -51 c27 -27 54 -50 60 -50 5 0
10 -6 10 -13 0 -8 9 -22 20 -32 11 -10 20 -28 20 -40 0 -13 7 -28 15 -35 20
-17 19 -67 -1 -78 -11 -6 -14 -14 -9 -23 5 -7 9 -27 9 -44 1 -25 5 -30 24 -30
13 0 28 -8 33 -18 6 -10 15 -15 20 -11 5 3 16 0 24 -6 8 -6 19 -9 25 -5 15 9
12 35 -5 35 -28 0 -15 15 30 33 25 11 43 23 40 27 -3 5 0 10 6 12 6 2 11 23
12 46 2 30 6 42 17 42 23 0 50 36 50 66 0 14 7 38 15 54 13 24 13 33 1 62 -12
28 -12 38 0 68 17 39 12 60 -13 60 -9 0 -27 10 -40 22 -13 12 -23 16 -23 10 0
-25 -16 -11 -26 23 -9 29 -9 37 4 44 9 5 13 17 10 29 -4 15 0 23 13 27 10 4
19 11 19 16 0 18 38 8 61 -16 28 -29 38 -31 53 -10 9 12 21 13 66 6 41 -7 58
-6 68 4 9 8 29 11 57 7 l43 -4 7 45 c4 27 3 53 -4 66 -10 18 -9 21 7 21 11 0
27 11 38 24 10 14 22 22 26 20 5 -3 23 8 41 26 27 27 38 31 77 28 36 -2 44 -6
42 -20 -2 -10 2 -18 8 -18 14 0 13 23 -2 38 -9 9 -9 12 3 12 10 0 15 11 16 34
0 29 -4 36 -28 47 -32 13 -45 44 -35 84 5 20 13 25 36 25 28 0 30 3 30 36 0
19 4 43 8 52 5 9 7 38 4 64 l-4 46 -34 -14 c-58 -24 -69 -19 -83 36 -8 30 -18
50 -27 50 -8 0 -14 7 -14 15 0 9 -9 15 -25 15 -28 0 -32 12 -10 30 8 7 12 16
9 21 -11 19 54 13 77 -7 18 -16 69 -19 69 -4 0 6 9 10 20 10 12 0 25 10 32 25
6 14 15 25 21 25 5 0 6 7 3 16 -5 12 -2 15 9 10 37 -14 38 72 1 96 -6 4 -11
21 -12 37 -1 17 -5 38 -10 48 -14 34 -11 63 8 63 26 0 42 35 23 50 -8 7 -15
26 -15 42 0 30 -37 91 -51 82 -4 -2 -8 19 -8 48 -2 137 -6 157 -41 197 -17 18
-30 40 -30 47 0 7 -15 18 -34 25 -18 7 -41 25 -50 41 -10 15 -21 28 -26 28
-11 0 -60 88 -60 109 0 10 -16 32 -35 51 -19 19 -35 41 -35 49 0 9 -13 25 -29
35 -26 18 -28 23 -19 49 8 20 7 32 -1 40 -6 6 -11 22 -11 35 0 13 -5 32 -10
42 -7 13 -7 21 0 25 6 4 7 12 3 18 -4 7 -6 24 -4 39 2 19 -3 28 -19 33 -12 4
-25 17 -30 30 -12 31 -1 95 15 95 8 0 11 8 8 20 -3 11 -10 20 -15 20 -6 0 -8
14 -6 30 4 26 1 30 -19 30 -13 0 -23 4 -23 8 0 9 -99 109 -138 139 l-22 18 20
37 c25 47 25 48 -5 92 -14 20 -28 49 -31 64 -4 15 -18 42 -32 60 -20 26 -22
35 -12 47 6 8 9 18 6 24 -3 5 1 12 10 15 10 4 14 14 11 26 -3 11 0 20 5 20 6
0 5 6 -2 15 -10 12 -10 21 0 45 10 23 10 33 1 44 -10 11 -8 16 6 20 15 5 18
14 15 41 -6 48 4 71 23 55 12 -10 13 -6 8 24 -4 24 -2 36 6 36 9 0 8 6 -1 23
-7 12 -13 29 -13 37 0 11 -10 14 -42 12 -44 -3 -92 20 -93 45 0 7 -8 17 -17
22 -17 10 -16 12 7 30 21 17 22 21 10 36 -11 13 -11 18 -1 25 10 5 10 9 2 15
-8 4 -9 11 -2 19 6 7 6 17 1 26 -6 10 -4 20 7 32 17 19 20 16 -33 33 -10 3
-13 12 -9 24 6 21 -39 57 -67 53 -12 -2 -18 3 -18 16 0 15 5 19 19 15 23 -6
37 13 22 31 -6 7 -8 15 -5 18 2 3 -2 8 -11 11 -10 4 -15 0 -15 -12 0 -22 -25
-45 -39 -37 -5 4 -1 24 12 49 11 23 24 50 29 59 4 10 6 40 3 67 -3 27 -1 52 4
56 6 3 8 12 4 20 -3 8 0 15 6 15 6 0 8 7 4 16 -4 12 -14 14 -40 9 -27 -5 -35
-2 -40 12 -3 10 -12 25 -18 33 -21 25 -41 131 -38 195 2 33 3 67 2 75 0 8 0
45 0 83 1 72 -9 85 -29 37z"/>
<path d="M10357 10960 c-4 -15 0 -20 14 -20 12 0 19 7 19 20 0 11 -6 20 -14
20 -7 0 -16 -9 -19 -20z"/>
<path d="M10280 10849 c0 -5 5 -7 10 -4 6 3 10 8 10 11 0 2 -4 4 -10 4 -5 0
-10 -5 -10 -11z"/>
</g>
</svg>
