<?xml version="1.0" standalone="no"?>
<!DOCTYPE svg PUBLIC "-//W3C//DTD SVG 20010904//EN"
 "http://www.w3.org/TR/2001/REC-SVG-20010904/DTD/svg10.dtd">
<svg version="1.0" xmlns="http://www.w3.org/2000/svg"
 width="1188.374457pt" height="985.657758pt" viewBox="0 0 1188.374457 985.657758"
 preserveAspectRatio="xMidYMid meet">
<metadata>
Created by potrace 1.15, written by Peter Selinger 2001-2017
</metadata>
<g transform="translate(-487.012301,1432.500000) scale(0.100000,-0.100000)"
fill="#222222" stroke="none">
<path d="M6911 14303 c-1 -16 -9 -25 -28 -29 -22 -6 -24 -9 -11 -18 22 -16 29
-58 14 -85 -9 -16 -11 -31 -5 -43 5 -10 14 -28 20 -40 9 -17 8 -23 -5 -30 -13
-7 -14 -13 -5 -31 7 -12 15 -24 19 -27 4 -3 10 -22 14 -43 6 -34 5 -38 -19
-47 -14 -5 -29 -9 -33 -9 -22 4 -32 -3 -32 -21 0 -13 -7 -20 -20 -20 -22 0
-27 16 -7 23 10 4 10 7 0 18 -18 18 -16 29 5 29 15 0 19 9 21 47 1 26 5 51 10
56 16 16 -2 57 -34 77 -34 21 -81 27 -87 10 -1 -5 -18 -13 -37 -16 l-34 -7 5
40 c9 64 -34 123 -88 123 -36 0 -36 1 -18 -87 6 -31 -21 -20 -62 23 -18 19
-45 36 -63 39 -29 5 -32 4 -26 -15 4 -11 3 -20 -2 -19 -22 4 -44 -2 -38 -10 3
-6 -13 -27 -35 -48 -36 -33 -42 -46 -49 -96 -7 -54 -12 -62 -59 -103 -47 -41
-50 -46 -42 -75 6 -20 6 -39 -1 -51 -6 -11 -8 -31 -5 -44 8 -30 -18 -32 -54
-4 -35 27 -40 25 -29 -12 13 -48 11 -65 -12 -87 -25 -23 -19 -39 33 -88 18
-18 51 -55 73 -82 30 -37 53 -53 94 -67 31 -11 57 -27 63 -39 19 -42 37 -69
52 -77 9 -5 16 -17 16 -27 0 -20 43 -47 59 -37 14 9 51 -11 51 -27 0 -17 56
-40 79 -32 13 4 24 -1 34 -15 7 -11 16 -18 19 -15 3 3 13 -4 23 -15 15 -17 16
-24 5 -49 -11 -26 -9 -34 10 -61 12 -16 30 -30 41 -30 12 0 30 -17 49 -49 18
-29 43 -54 60 -61 17 -7 30 -19 30 -26 0 -8 11 -19 24 -25 18 -8 24 -19 23
-38 -2 -22 3 -27 27 -29 16 -2 32 2 37 10 7 11 9 11 9 -1 0 -7 6 -11 15 -7 10
3 15 -1 15 -13 0 -11 -5 -21 -11 -23 -8 -3 -6 -10 5 -21 22 -22 18 -94 -6
-119 -10 -10 -18 -21 -18 -26 0 -13 83 -44 89 -34 11 18 57 17 75 0 14 -15 21
-15 43 -5 21 9 27 9 31 -2 2 -7 18 -28 35 -47 l30 -35 -19 -37 c-11 -20 -22
-39 -25 -42 -4 -3 -9 -16 -10 -30 -2 -14 -9 -25 -15 -25 -6 0 -18 -7 -27 -16
-11 -12 -13 -19 -5 -27 14 -14 -9 -92 -27 -92 -7 0 -15 -9 -18 -19 -4 -15 2
-20 26 -25 18 -4 47 -24 71 -50 23 -25 52 -46 66 -48 20 -2 26 -9 28 -35 3
-35 -22 -83 -44 -83 -8 0 -11 -6 -7 -17 5 -14 1 -15 -25 -10 -38 8 -41 -4 -7
-31 14 -11 25 -26 25 -33 1 -19 26 -64 37 -64 4 -1 18 -4 31 -9 20 -7 21 -12
16 -49 -4 -23 -18 -55 -31 -70 -25 -32 -38 -70 -28 -86 3 -6 -1 -11 -9 -11
-20 0 -20 -2 -1 -73 20 -78 15 -87 -51 -84 -46 3 -54 1 -54 -14 0 -10 -9 -19
-22 -22 l-23 -4 23 -8 c12 -4 22 -12 22 -19 0 -17 -56 -45 -79 -39 -12 3 -21
1 -21 -5 0 -13 -49 -22 -56 -10 -3 4 -9 6 -14 3 -14 -9 10 -56 47 -96 l34 -36
5 -132 c4 -124 3 -131 -15 -131 -21 0 -45 -23 -34 -34 13 -13 33 -82 34 -121
2 -52 -8 -85 -28 -85 -9 0 -13 -6 -9 -15 4 -11 -1 -15 -19 -15 -14 0 -25 -6
-25 -12 0 -34 -22 -88 -36 -88 -8 0 -12 -5 -9 -11 4 -6 -1 -16 -11 -23 -16
-12 -15 -13 9 -13 15 0 27 4 27 9 0 5 9 6 20 3 22 -7 26 6 10 36 -9 16 -7 19
9 19 11 0 26 3 34 6 9 3 25 -6 39 -21 15 -16 38 -27 63 -30 22 -3 46 -12 54
-20 13 -13 13 -17 -2 -33 -21 -23 -22 -52 -2 -52 8 0 15 -6 15 -14 0 -13 27
-31 43 -28 11 3 9 -16 -3 -23 -6 -4 -7 -12 -3 -18 13 -21 11 -77 -3 -77 -20 0
-30 -50 -13 -61 8 -5 10 -9 5 -9 -5 0 -2 -8 7 -17 8 -10 16 -29 18 -43 3 -30
-16 -80 -31 -80 -5 0 -10 -7 -10 -15 0 -8 6 -14 12 -12 7 1 14 -8 16 -20 2
-15 -6 -29 -27 -44 -17 -13 -31 -28 -31 -35 0 -24 -35 -20 -77 8 -23 16 -46
34 -50 42 -4 7 -18 18 -30 25 -28 14 -70 91 -51 91 30 1 56 36 56 77 1 44 -24
68 -40 39 -6 -11 -18 -13 -44 -9 -19 3 -34 2 -32 -3 4 -13 -37 -51 -59 -56
-10 -2 -17 -11 -15 -20 1 -8 -9 -23 -23 -32 -14 -9 -25 -25 -25 -36 0 -10 -7
-25 -16 -32 -40 -33 -94 -89 -94 -97 0 -5 -9 -13 -20 -16 -11 -3 -20 -11 -20
-17 0 -6 -7 -18 -15 -27 -23 -25 -105 -150 -105 -161 0 -6 -9 -10 -20 -10 -27
0 -35 -24 -23 -65 16 -51 -11 -99 -57 -102 -66 -4 -130 -15 -130 -22 0 -4 -10
-7 -21 -8 -27 -2 -79 36 -79 57 0 22 -20 40 -44 40 -10 0 -35 12 -54 26 -28
22 -32 28 -19 35 14 8 14 12 0 41 -9 18 -28 42 -42 54 l-25 21 22 12 c33 17
75 83 59 93 -19 12 -47 9 -44 -4 1 -8 -16 -15 -48 -18 -27 -3 -59 -11 -71 -17
-18 -10 -25 -8 -51 16 -17 15 -34 37 -37 49 -4 12 -22 27 -42 34 -18 6 -34 16
-34 22 0 5 -8 18 -17 28 -9 10 -17 28 -18 41 -1 14 -9 23 -23 25 -26 4 -57 45
-66 88 -4 18 -23 46 -42 63 -18 17 -34 36 -34 41 0 6 -8 19 -17 29 -10 11 -26
31 -36 45 -10 14 -27 26 -37 26 -14 0 -22 11 -31 43 -6 23 -14 48 -18 56 -4 9
0 22 11 33 22 22 24 66 3 74 -8 4 -12 10 -9 15 3 5 -2 6 -10 3 -10 -4 -20 6
-31 31 -13 26 -22 34 -35 30 -13 -4 -25 4 -39 24 -12 16 -37 35 -56 42 -19 7
-36 21 -39 33 -5 19 -8 18 -40 -13 -28 -28 -43 -34 -83 -35 -26 -1 -54 2 -61
8 -10 7 -12 4 -6 -18 4 -18 1 -33 -8 -44 -34 -39 -28 -84 8 -64 14 8 22 6 36
-10 23 -27 23 -65 0 -77 -30 -16 -20 -65 22 -105 21 -19 35 -39 32 -45 -8 -13
105 -113 122 -106 7 2 24 -2 37 -11 18 -12 24 -12 27 -2 3 8 13 4 30 -13 18
-19 24 -33 21 -51 -6 -32 19 -43 51 -23 21 14 24 13 38 -2 25 -31 58 -90 52
-95 -19 -19 61 -78 85 -64 6 4 19 -2 31 -14 11 -11 30 -20 43 -20 26 0 50 -34
42 -59 -5 -15 1 -18 37 -18 24 0 51 -3 62 -8 16 -7 17 -6 7 13 -7 13 -8 22 -2
22 13 0 51 -49 51 -66 0 -8 5 -14 10 -14 6 0 10 -11 10 -24 0 -20 6 -25 39
-31 68 -11 171 -130 171 -195 0 -11 15 -26 38 -37 24 -13 38 -28 40 -44 2 -13
8 -28 12 -34 4 -5 7 -30 5 -56 -2 -36 4 -60 33 -120 31 -63 40 -74 60 -71 26
4 26 3 8 -33 -14 -26 -12 -31 17 -75 24 -36 40 -50 73 -59 23 -7 54 -26 70
-42 18 -19 34 -27 46 -23 13 4 21 -2 30 -20 6 -14 17 -26 24 -26 26 0 84 -35
90 -55 3 -11 18 -32 32 -47 20 -22 35 -28 68 -28 24 0 46 -4 49 -10 10 -16 38
-12 31 5 -3 9 0 15 9 15 12 0 12 5 3 25 -10 21 -8 29 10 48 24 25 27 48 12 77
-8 16 -6 22 15 36 14 9 25 25 25 36 0 10 5 16 10 13 6 -3 10 -1 10 4 0 6 9 11
20 11 11 0 20 7 20 16 0 13 4 13 31 -3 29 -17 31 -17 40 0 13 22 24 22 50 -4
19 -19 20 -27 13 -58 -7 -29 -17 -40 -53 -57 -27 -13 -39 -24 -32 -28 6 -4 9
-11 6 -16 -3 -5 5 -19 17 -31 20 -19 20 -21 4 -15 -16 5 -17 4 -7 -8 10 -12 8
-17 -9 -26 -12 -6 -28 -9 -35 -6 -8 3 -23 -10 -37 -30 -14 -21 -31 -34 -44
-34 -12 0 -32 -8 -45 -19 l-23 -18 23 -8 c18 -6 22 -13 19 -43 -2 -28 3 -42
21 -60 l24 -24 -26 -16 c-28 -17 -36 -47 -14 -55 9 -4 9 -8 -2 -15 -18 -13 -8
-37 24 -58 20 -13 28 -14 40 -4 12 10 15 9 15 -4 0 -10 5 -14 10 -11 6 3 10 0
10 -9 0 -8 3 -21 6 -30 4 -10 1 -16 -9 -16 -25 0 -30 -19 -13 -45 9 -14 13
-25 9 -25 -4 0 9 -11 28 -25 39 -26 58 -79 32 -89 -7 -3 -13 -15 -13 -26 0
-11 -5 -20 -10 -20 -10 0 -29 -39 -34 -67 -1 -7 -11 -20 -22 -28 -14 -10 -15
-14 -5 -15 12 0 12 -3 3 -12 -18 -18 -14 -28 11 -28 12 0 28 -9 35 -20 7 -11
18 -20 26 -20 10 0 15 -16 18 -50 2 -35 -1 -50 -9 -50 -7 0 -13 -9 -13 -20 0
-11 -4 -20 -9 -20 -5 0 -13 -9 -16 -20 -4 -11 -11 -17 -17 -14 -7 5 -8 -5 -3
-32 5 -21 9 -51 9 -66 1 -14 4 -30 9 -34 13 -14 7 -33 -13 -39 -39 -12 -18
-75 30 -90 24 -7 40 -22 40 -37 0 -5 -17 -8 -38 -8 -45 0 -62 -14 -62 -51 0
-15 -7 -43 -15 -63 -9 -20 -13 -47 -9 -60 4 -16 1 -25 -10 -29 -9 -4 -16 -13
-16 -21 0 -9 -9 -20 -20 -26 -11 -6 -20 -19 -20 -29 0 -20 -51 -81 -68 -81 -7
0 -12 -14 -12 -31 0 -17 -5 -40 -11 -51 -8 -15 -8 -19 0 -14 20 13 12 -44 -11
-77 -13 -18 -24 -34 -26 -37 -2 -2 -12 1 -23 8 -16 10 -20 10 -25 -3 -5 -12
-10 -12 -27 -3 -16 8 -22 8 -25 -1 -2 -6 -8 -11 -12 -11 -5 0 -25 -11 -44 -24
-25 -17 -32 -26 -24 -34 15 -15 -10 -92 -29 -92 -7 0 5 -18 27 -40 31 -31 40
-48 40 -74 0 -19 -5 -38 -10 -41 -6 -4 -8 -25 -4 -54 4 -31 2 -51 -5 -55 -6
-4 -11 -18 -11 -31 0 -13 -6 -28 -13 -32 -7 -4 -20 -20 -30 -35 -10 -16 -24
-28 -32 -28 -8 0 -15 -5 -15 -11 0 -5 -4 -7 -10 -4 -5 3 -10 1 -10 -4 0 -6
-11 -11 -24 -11 -14 0 -28 -5 -31 -10 -4 -6 -10 -8 -15 -5 -5 3 -7 -9 -4 -27
10 -74 11 -73 -21 -76 -42 -5 -49 -16 -30 -45 9 -15 14 -31 10 -36 -3 -6 3
-19 13 -29 30 -30 17 -88 -19 -84 -4 1 -5 -7 -2 -18 3 -13 -1 -22 -11 -26 -15
-6 -15 -8 4 -21 11 -8 20 -18 20 -23 0 -21 47 -80 73 -91 15 -6 31 -17 35 -24
4 -7 16 -15 26 -17 15 -2 22 5 29 30 6 17 13 32 16 32 10 0 32 -40 26 -49 -2
-5 4 -11 15 -14 13 -3 20 0 20 10 0 8 4 11 10 8 5 -3 20 1 32 9 24 17 52 104
38 121 -4 6 -11 20 -14 32 -6 18 -2 22 24 28 25 5 30 11 25 26 -4 13 -2 19 9
19 9 0 16 4 16 9 0 17 34 22 49 6 13 -13 14 -17 2 -24 -8 -5 -9 -11 -3 -15 6
-3 15 8 21 24 5 17 15 30 20 30 7 0 9 31 7 88 l-4 87 24 -28 c13 -16 28 -25
34 -22 5 3 18 1 29 -4 14 -8 20 -8 23 1 3 8 12 9 36 0 27 -9 32 -8 32 4 0 8 5
12 10 9 6 -3 10 -14 10 -25 0 -20 26 -35 35 -20 4 6 18 10 32 10 30 0 123 65
123 86 0 9 10 14 27 14 14 0 34 7 44 16 10 9 40 20 66 25 36 7 56 18 80 45 18
19 49 42 69 50 64 27 78 47 82 120 3 50 8 64 18 60 9 -3 14 1 14 12 0 9 7 26
15 36 8 11 15 31 15 44 0 17 4 23 15 18 21 -8 63 13 70 35 5 15 10 16 33 8 23
-9 29 -7 44 11 10 12 15 27 12 32 -4 6 -1 8 7 6 8 -3 33 8 55 23 23 16 44 26
47 23 15 -15 128 -33 152 -24 15 6 41 10 58 10 18 1 63 12 102 25 41 14 74 20
80 15 6 -5 22 -13 37 -19 23 -8 25 -7 21 9 -4 13 4 23 25 34 17 9 41 30 55 48
24 30 26 31 50 16 23 -16 24 -16 44 18 l20 35 17 -25 c9 -14 24 -26 34 -26 9
0 29 -6 44 -14 26 -14 27 -14 17 12 -13 34 3 44 64 36 43 -5 50 -3 72 20 26
28 43 33 50 14 3 -7 19 -14 36 -15 35 -3 59 -19 59 -39 0 -8 6 -14 13 -14 6 0
24 -6 38 -14 16 -8 32 -10 40 -5 8 5 22 6 31 3 11 -3 22 3 30 15 7 12 19 21
26 21 7 0 23 9 34 20 12 11 29 18 39 15 13 -4 18 3 23 33 5 32 9 38 28 37 14
-1 25 -10 28 -23 5 -22 35 -57 91 -108 29 -26 40 -30 76 -26 23 2 47 10 53 17
6 8 18 11 26 8 8 -3 14 1 14 11 0 18 5 20 29 7 12 -7 30 -4 59 9 49 22 128 21
164 -2 16 -10 32 -12 52 -7 16 4 41 5 57 2 21 -4 30 -1 35 11 3 9 15 16 25 16
11 0 24 10 29 23 5 12 9 16 9 9 1 -7 12 -17 26 -24 21 -9 27 -8 44 13 11 13
20 30 21 38 0 10 3 11 14 2 11 -9 21 -3 50 29 33 36 39 39 59 29 32 -18 78
-19 84 -3 3 8 14 14 24 14 47 0 112 26 131 52 10 16 27 28 36 28 9 0 25 7 35
15 11 7 37 17 59 20 21 4 42 13 45 21 3 8 13 14 24 14 10 0 28 11 41 24 13 14
32 26 43 28 27 4 44 -51 37 -125 -4 -52 -7 -58 -24 -54 -15 4 -18 2 -12 -11 4
-9 9 -29 12 -44 4 -26 26 -41 61 -42 8 -1 16 -6 18 -13 3 -7 -3 -9 -16 -6 -12
3 -21 1 -21 -6 0 -11 15 -26 72 -76 14 -12 17 -20 9 -24 -8 -6 -8 -16 1 -42
14 -39 12 -37 79 -112 46 -50 56 -57 90 -57 21 0 40 -4 44 -10 3 -5 12 -7 20
-4 7 3 26 -3 41 -13 20 -13 29 -14 32 -5 2 6 12 12 23 12 15 0 17 5 12 31 -6
29 -5 31 18 23 13 -4 33 -7 44 -7 30 2 68 -7 61 -14 -3 -4 5 -13 18 -22 13 -9
42 -28 64 -43 22 -15 43 -32 47 -38 4 -6 15 -8 26 -5 14 5 22 0 29 -21 8 -21
14 -24 22 -16 7 7 20 12 30 12 16 0 18 -5 12 -35 -10 -54 -2 -65 40 -55 27 6
36 5 36 -5 0 -8 12 -23 27 -35 15 -11 35 -34 45 -51 16 -26 21 -28 39 -19 17
9 23 8 35 -7 7 -10 14 -21 14 -25 0 -5 7 -8 15 -8 8 0 15 -6 15 -14 0 -8 3
-22 7 -32 4 -12 3 -15 -5 -10 -16 10 -15 -16 1 -37 14 -20 57 -13 57 9 0 11 9
10 42 -7 l42 -21 -25 -19 c-13 -11 -32 -17 -42 -15 -9 2 -14 0 -11 -5 3 -6 1
-16 -5 -23 -9 -11 -6 -15 14 -20 14 -4 24 -10 23 -14 -1 -4 4 -18 11 -32 10
-17 11 -25 2 -28 -23 -8 -10 -22 20 -22 26 0 29 3 24 20 -7 21 9 26 60 21 25
-2 61 -47 69 -83 4 -20 12 -28 26 -28 11 0 20 1 20 3 0 1 -4 17 -9 35 -9 28
-7 32 10 32 11 0 41 -15 67 -32 25 -18 50 -36 56 -40 6 -4 5 -12 -3 -22 -11
-13 -9 -17 14 -26 15 -6 29 -19 32 -30 3 -11 13 -20 23 -20 17 0 44 -46 39
-66 -1 -5 1 -21 5 -36 10 -33 -1 -68 -20 -68 -18 0 -18 -27 1 -64 19 -36 19
-46 -1 -46 -8 0 -23 -7 -32 -16 -14 -15 -14 -17 1 -26 10 -5 34 -27 53 -48 20
-22 41 -37 45 -34 5 3 17 -2 26 -11 15 -16 17 -15 30 9 8 14 16 26 19 26 8 0
66 -42 87 -63 17 -17 20 -17 36 -3 10 9 27 16 39 16 12 0 22 5 22 11 0 6 7 3
16 -5 8 -9 24 -16 35 -16 22 0 25 -18 4 -26 -8 -4 -12 -11 -8 -17 3 -6 9 -27
13 -48 6 -33 5 -38 -14 -42 -20 -4 -20 -4 1 -6 16 -1 23 -7 23 -23 1 -66 0
-65 26 -60 14 2 45 -1 70 -8 41 -12 46 -11 59 6 7 10 17 36 20 57 5 27 12 37
26 37 22 0 54 44 43 61 -5 9 0 10 20 5 22 -5 26 -3 26 15 0 12 8 23 19 26 13
3 18 10 14 20 -4 9 1 20 11 25 9 5 14 13 11 19 -4 5 1 12 9 15 11 4 13 11 7
22 -11 21 3 60 23 68 11 4 12 12 4 35 -12 35 -5 59 17 59 9 0 13 5 10 11 -4 5
-4 22 0 37 6 26 7 26 18 7 12 -21 57 -32 57 -15 0 6 8 10 17 10 10 0 28 12 41
27 17 21 21 34 16 57 -5 29 -5 30 9 12 12 -16 21 -18 53 -11 21 4 54 7 72 7
23 0 32 4 32 15 0 13 9 15 50 10 29 -4 50 -2 50 3 0 6 4 10 10 10 17 0 60 50
60 70 0 13 7 20 19 20 10 0 26 11 35 24 14 22 14 30 2 70 l-14 45 35 -14 c37
-15 53 -13 53 9 0 20 39 56 60 56 13 0 20 -7 20 -18 0 -25 48 -51 60 -33 4 8
13 10 19 7 13 -9 14 13 2 33 -6 9 -4 19 5 28 8 8 14 25 14 37 0 13 7 29 15 36
8 7 15 20 15 30 0 12 15 21 53 31 41 11 53 19 55 37 2 12 10 23 18 24 8 0 20
1 27 2 20 2 47 35 41 51 -4 8 -1 15 6 15 8 0 10 9 6 25 -6 24 1 31 28 26 4 -1
6 9 2 23 -3 13 -2 26 4 28 5 2 11 17 13 35 2 17 10 39 17 48 11 13 10 19 -9
38 -11 13 -21 29 -21 35 0 7 -7 12 -15 12 -8 0 -15 -6 -15 -13 0 -9 -10 -12
-31 -9 -28 4 -30 2 -28 -19 2 -13 -3 -33 -11 -45 -12 -19 -16 -20 -39 -8 -14
8 -33 14 -41 15 -10 0 -11 2 -2 6 18 7 15 27 -8 48 -20 18 -21 18 -34 0 -9
-12 -15 -15 -20 -7 -4 7 -18 12 -32 12 -20 0 -24 5 -24 30 0 18 6 33 15 36 8
4 15 13 15 22 0 12 3 13 12 4 18 -18 25 -15 42 18 13 27 13 30 -1 30 -12 0
-13 3 -4 13 8 10 7 17 -2 26 -18 18 56 9 79 -9 14 -13 19 -11 38 13 18 23 27
26 53 21 25 -5 31 -2 36 15 3 12 2 21 -2 21 -4 0 -13 12 -20 26 -8 19 -16 24
-29 18 -24 -11 -95 -12 -109 -1 -7 5 -17 6 -23 2 -5 -3 -13 1 -16 10 -7 17 21
44 46 45 8 0 28 11 44 25 16 14 36 25 44 25 9 0 12 3 9 7 -9 8 12 33 28 33 7
0 22 -16 34 -36 12 -19 24 -33 29 -31 13 8 52 -12 52 -26 0 -8 17 -18 41 -23
22 -5 41 -13 41 -19 4 -27 44 -42 102 -39 33 2 72 -2 90 -10 17 -7 55 -16 84
-20 43 -5 52 -4 52 9 0 23 36 13 60 -18 13 -17 31 -27 47 -27 18 0 38 -13 63
-40 40 -44 54 -49 68 -24 7 13 13 9 31 -22 12 -21 20 -45 18 -55 -3 -10 4 -26
14 -35 20 -18 27 -88 9 -99 -6 -4 -2 -15 10 -27 11 -12 20 -25 20 -29 0 -7 41
-24 82 -33 16 -4 28 -1 31 7 4 9 7 9 18 0 20 -19 67 -16 105 8 21 13 41 18 55
14 13 -4 27 0 40 11 20 18 21 18 40 -6 13 -18 19 -21 19 -9 0 18 37 37 63 31
9 -2 17 -10 17 -18 0 -17 11 -18 34 -1 16 12 16 14 -3 31 -24 22 -27 54 -6 62
25 10 28 42 5 66 -25 27 -22 39 16 57 45 22 88 61 102 94 16 39 15 57 -3 57
-8 0 -23 9 -33 21 -9 11 -29 27 -44 35 -30 16 -45 63 -29 93 9 16 8 22 -4 29
-13 7 -12 10 10 20 32 15 32 33 -2 73 -34 40 -38 69 -29 183 4 45 2 56 -6 48
-17 -17 -45 -15 -52 3 -7 19 -36 20 -36 0 0 -8 -15 -21 -33 -30 -35 -16 -48
-14 -107 20 -32 18 -81 19 -123 1 -30 -12 -35 -11 -67 10 -19 13 -48 24 -65
24 -17 0 -38 6 -46 13 -26 20 -49 65 -49 92 0 14 -10 39 -21 54 -22 30 -19 54
5 45 8 -3 -2 25 -23 65 -28 56 -41 71 -58 71 -26 0 -28 8 -11 45 9 19 9 28 0
37 -18 18 -15 28 13 38 14 5 25 17 25 27 1 25 31 59 58 66 12 3 20 2 17 -3 -3
-4 3 -11 12 -14 9 -4 20 -1 24 5 4 7 14 9 22 6 16 -6 72 17 82 34 4 5 27 8 53
7 36 -2 55 3 80 22 17 13 32 30 32 38 0 13 3 12 18 -1 14 -13 34 -16 88 -13
39 2 80 9 91 17 25 15 37 63 23 89 -13 24 -13 28 3 27 45 -1 67 25 67 83 0 16
5 32 10 35 20 12 6 66 -23 91 -24 20 -26 26 -15 43 9 15 9 23 -1 35 -11 13 -6
19 34 38 37 18 50 31 60 60 7 21 10 39 8 42 -10 10 22 66 35 61 17 -6 49 24
57 55 5 22 12 25 54 27 37 1 55 7 74 27 14 14 30 26 36 26 5 0 7 8 4 18 -3 14
4 21 34 30 21 6 51 10 66 8 15 -2 42 0 60 4 25 6 27 8 9 9 l-23 1 21 31 c12
16 21 32 19 34 -19 17 -80 42 -84 35 -4 -6 -15 -10 -25 -10 -23 0 -30 -18 -18
-48 11 -32 4 -40 -40 -47 -20 -4 -50 -11 -65 -17 -21 -8 -36 -7 -65 5 -20 9
-51 15 -69 15 -42 -2 -83 26 -83 57 0 26 -16 41 -40 37 -8 -1 -24 11 -35 27
-18 28 -20 29 -48 15 -19 -10 -39 -13 -60 -8 -18 4 -41 7 -53 5 -13 -1 -27 7
-37 22 -16 25 -54 36 -143 40 -22 1 -48 8 -57 16 -11 9 -17 10 -17 2 0 -7 -21
-11 -55 -11 -52 0 -72 11 -41 23 21 8 24 46 8 95 -11 35 -18 42 -35 40 -29 -4
-34 27 -7 42 16 9 25 8 36 0 7 -7 23 -10 34 -7 14 3 24 -1 31 -15 8 -16 13
-17 19 -8 4 7 17 10 29 7 15 -3 25 1 31 14 6 10 18 19 26 19 10 0 14 8 12 23
-3 19 1 22 24 19 21 -2 26 1 22 13 -3 8 -14 15 -23 15 -24 0 -86 23 -105 39
-9 7 -16 20 -16 27 0 8 -3 13 -7 12 -11 -3 -101 51 -111 66 -9 14 -214 106
-237 106 -9 0 -19 9 -22 19 -6 24 -33 36 -33 16 0 -22 -53 -19 -83 5 -14 11
-37 20 -52 20 -30 0 -95 57 -95 83 0 13 -15 26 -71 62 -32 21 -112 81 -134
101 -13 12 -39 24 -59 28 -28 5 -45 18 -75 59 -21 29 -41 65 -45 80 -4 15 -14
31 -24 34 -9 3 -28 14 -42 23 -14 10 -42 20 -62 24 -23 4 -39 14 -43 25 -4 12
-12 17 -24 14 -27 -7 -78 23 -96 57 -14 27 -14 29 5 25 11 -2 25 -7 32 -11 8
-5 9 0 5 15 -5 21 23 48 37 34 3 -3 6 1 6 9 0 9 7 18 15 22 8 3 15 17 15 30 0
19 -4 24 -15 20 -21 -9 -45 14 -45 42 0 18 -5 24 -23 24 -13 0 -38 15 -57 35
-19 19 -30 35 -25 35 4 0 0 9 -9 19 -10 11 -15 24 -12 30 4 5 2 13 -4 16 -6 4
-22 25 -36 47 -20 32 -23 42 -13 49 10 6 9 12 -5 28 -11 12 -27 21 -36 21 -10
0 -25 11 -34 25 -9 14 -12 25 -6 25 18 0 10 29 -10 35 -11 3 -20 12 -20 20 0
7 -22 31 -49 52 -27 21 -61 58 -75 83 -29 51 -57 84 -101 119 -17 13 -23 22
-15 19 12 -5 15 2 12 34 -4 40 -45 132 -54 122 -3 -3 -8 2 -11 11 -4 9 -1 15
9 15 12 0 12 4 4 20 -9 16 -8 20 5 20 23 0 18 13 -15 42 -32 28 -88 46 -99 32
-3 -5 -12 -9 -18 -10 -33 -3 -36 -6 -13 -17 24 -11 24 -11 -13 -15 -43 -4 -77
18 -77 49 0 20 35 43 50 34 13 -8 34 36 32 68 -1 15 -18 57 -37 93 -19 36 -35
71 -35 79 0 7 -7 18 -15 25 -9 8 -13 20 -9 29 3 9 8 26 9 39 4 31 -28 29 -58
-4 -13 -14 -31 -26 -39 -28 -9 -1 -23 -8 -31 -14 -8 -7 -27 -15 -42 -18 -37
-7 -85 -44 -85 -67 0 -38 -69 -77 -137 -77 -26 0 -33 -4 -33 -20 0 -17 -7 -20
-40 -20 -31 0 -40 -4 -41 -17 0 -10 -14 -29 -30 -42 -26 -20 -34 -22 -55 -13
-13 6 -31 9 -39 6 -16 -6 -66 21 -63 34 4 19 -23 64 -36 59 -9 -3 -28 10 -47
33 -29 33 -35 37 -56 27 -13 -5 -23 -17 -23 -25 0 -9 -6 -12 -17 -7 -39 16
-127 45 -135 45 -4 0 -8 -7 -8 -15 0 -9 -9 -15 -25 -15 -19 0 -23 4 -18 18 6
15 5 15 -10 3 -13 -10 -14 -18 -6 -32 12 -23 11 -23 -34 -4 -20 8 -48 15 -63
15 -18 0 -25 4 -21 14 3 8 -1 20 -9 26 -8 7 -14 9 -14 6 0 -4 -9 -2 -21 4 -15
9 -24 8 -35 -1 -10 -8 -18 -9 -27 0 -8 6 -16 8 -19 5 -3 -3 -15 7 -27 22 -11
15 -21 21 -21 14 0 -8 -8 -10 -21 -7 -15 4 -27 -1 -38 -14 -17 -21 -41 -25
-80 -13 -21 6 -23 5 -19 -14 4 -12 2 -22 -3 -22 -5 0 -9 -7 -9 -15 0 -8 -9
-15 -20 -15 -11 0 -18 -5 -15 -12 6 -18 -60 -58 -96 -58 -16 0 -29 -5 -29 -11
0 -5 -4 -7 -10 -4 -5 3 -10 -1 -10 -11 0 -12 -6 -15 -26 -11 -21 4 -25 1 -21
-14 3 -10 -1 -23 -9 -30 -8 -6 -12 -15 -9 -19 3 -5 -7 -10 -22 -12 -32 -4
-108 24 -138 51 -11 10 -35 23 -52 30 -18 7 -44 24 -58 37 -39 36 -55 41 -115
40 -30 -1 -67 4 -81 10 -16 8 -31 9 -40 3 -8 -5 -24 -9 -36 -9 -12 0 -23 -5
-25 -12 -3 -7 -9 -8 -19 -2 -8 5 -29 14 -46 20 -27 10 -33 9 -33 -2 0 -20 -18
-17 -47 6 -14 11 -37 20 -50 20 -13 0 -34 5 -46 12 -12 6 -34 11 -49 10 -20
-2 -33 6 -49 28 -21 28 -26 29 -82 26 l-59 -4 6 30 c8 39 -17 86 -50 94 -38
10 -94 -19 -94 -48 0 -13 -13 -37 -28 -54 -24 -28 -32 -31 -65 -27 -28 4 -41
12 -52 33 -13 25 -13 29 2 34 9 4 20 1 25 -6 5 -8 8 -1 8 20 0 17 4 32 9 32 5
0 17 7 26 16 15 15 14 18 -6 40 -14 15 -25 20 -29 14 -12 -19 -60 0 -60 23 0
11 -10 32 -22 45 -13 14 -18 22 -11 19 18 -11 4 113 -18 149 -25 41 -79 109
-79 99 0 -4 -12 14 -26 41 -17 31 -22 50 -14 52 8 3 8 8 -1 18 -15 18 -59 18
-73 -1 -17 -22 -127 -17 -214 10 -19 6 -24 3 -29 -14 -3 -14 -13 -21 -29 -21
-13 0 -24 -5 -24 -11 0 -6 -8 -8 -19 -4 -11 3 -22 1 -26 -5 -10 -16 -38 -12
-31 5 6 17 -28 40 -45 30 -5 -4 -26 10 -46 32 -20 21 -40 38 -45 38 -8 0 -23
22 -50 75 -13 26 -30 42 -37 35 -2 -3 2 -11 9 -20 9 -11 9 -15 1 -15 -7 0 -10
-4 -6 -9 3 -5 -4 -13 -16 -16 -19 -6 -20 -12 -13 -73 3 -37 11 -70 17 -73 18
-12 -2 -42 -24 -36 -25 7 -69 -19 -69 -39 0 -7 -12 -20 -27 -28 -16 -8 -24
-15 -19 -16 5 0 3 -7 -4 -15 -10 -12 -16 -12 -33 -2 -24 14 -52 14 -81 2 -12
-5 -29 -2 -47 9 -17 10 -38 15 -49 11 -13 -4 -30 1 -46 14 -15 12 -37 21 -50
21 -26 0 -83 -54 -84 -79 0 -9 -7 -11 -22 -6 -49 15 -81 18 -74 6 5 -7 -2 -11
-18 -11 -14 0 -28 5 -31 10 -4 6 -10 8 -14 5 -5 -2 -17 2 -27 10 -19 13 -19
14 1 29 11 8 16 18 12 23 -5 4 -17 -3 -26 -16 l-19 -24 -31 43 c-29 40 -35 54
-32 72 0 4 -9 10 -22 14 -12 4 -26 12 -30 18 -6 7 -7 4 -3 -6 3 -10 1 -18 -5
-18 -6 0 -9 -10 -7 -22 3 -20 -1 -23 -34 -23 -20 0 -34 3 -32 6 8 13 -47 29
-66 19 -24 -13 -77 -13 -85 0 -3 6 -15 10 -25 10 -10 0 -30 14 -45 32 -22 26
-24 33 -12 40 8 4 34 4 58 0 52 -9 105 -1 101 16 -1 7 9 12 22 12 15 0 26 7
29 20 3 11 1 20 -3 20 -5 0 -8 9 -7 19 0 11 5 17 9 15 4 -3 8 0 8 5 0 6 8 11
18 11 13 0 14 2 3 9 -7 5 -11 15 -9 22 3 8 1 22 -4 32 -6 12 -5 23 3 33 6 8 8
14 3 14 -5 0 -2 5 8 10 10 6 14 18 11 30 -4 13 1 27 13 36 16 13 16 15 2 10
-23 -7 -33 41 -19 91 11 36 10 39 -21 65 -24 19 -32 33 -30 52 2 14 -2 34 -8
46 -8 16 -7 25 5 42 19 28 19 45 0 64 -8 9 -15 24 -15 35 0 29 27 89 41 89 7
0 9 9 6 22 -4 12 -2 27 2 32 5 6 18 37 30 70 12 32 33 68 47 79 20 15 24 25
19 44 -9 39 15 50 105 46 48 -2 81 0 85 7 3 5 28 10 54 10 46 0 50 2 65 35 15
31 20 34 37 25 11 -6 18 -18 17 -27 -6 -34 27 -37 97 -9 58 23 72 25 96 16 29
-12 54 -6 44 11 -4 5 -1 9 4 9 6 0 11 7 11 15 0 8 5 15 10 15 6 0 10 -11 10
-25 0 -26 25 -44 40 -29 4 5 11 19 15 32 5 19 1 25 -29 37 -36 15 -45 28 -26
40 15 9 -22 74 -43 75 -9 0 -22 11 -28 24 -13 27 -49 42 -49 20 0 -7 -6 -11
-14 -8 -7 3 -16 -2 -19 -10 -4 -9 -16 -16 -27 -16 -14 0 -20 7 -20 24 0 17 -7
26 -25 30 -16 4 -25 13 -25 26 0 11 -11 27 -25 36 -14 9 -25 22 -25 29 0 7 -7
18 -15 25 -8 7 -15 18 -15 24 1 6 11 -2 24 -18 15 -18 26 -24 30 -17 4 6 4 11
1 11 -4 0 1 7 9 15 21 21 1 55 -31 55 -13 0 -28 9 -35 20 -7 11 -16 20 -20 20
-5 0 -8 -9 -8 -20 0 -16 -7 -20 -30 -20 -16 0 -32 1 -34 3 -2 1 -12 -5 -22
-14 -11 -9 -45 -27 -77 -40 -49 -19 -61 -21 -78 -10 -19 11 -20 10 -15 -7 4
-13 1 -22 -9 -26 -8 -3 -15 -2 -15 2 0 9 -42 8 -57 -1 -6 -4 -10 3 -10 19 0
30 -6 36 -35 38 -21 1 -23 6 -22 49 l2 47 -35 0 c-26 0 -36 -5 -40 -20 -3 -11
-14 -20 -24 -20 -12 0 -16 5 -13 15 4 8 10 13 14 10 4 -3 11 7 14 21 5 19 11
24 26 19 14 -4 22 -1 27 10 7 19 -15 37 -36 30 -10 -4 -12 1 -7 20 6 25 6 26
-31 19 -21 -3 -47 -17 -58 -30 -21 -24 -52 -33 -71 -21 -7 4 -14 -3 -18 -18
-6 -22 -11 -25 -47 -23 -52 2 -94 38 -85 73 6 25 -10 37 -55 40 -14 1 -31 5
-38 9 -6 4 -11 2 -11 -3 0 -6 -7 -11 -16 -11 -11 0 -13 -6 -9 -20 4 -13 0 -23
-15 -32 -11 -7 -25 -31 -31 -53 -13 -47 -37 -78 -56 -71 -7 3 -13 -1 -13 -8 0
-11 -40 -33 -93 -50 -10 -3 -15 -10 -12 -16 3 -5 1 -10 -5 -10 -7 0 -19 -9
-28 -20 -10 -12 -27 -22 -39 -23 -14 -1 -24 -10 -28 -24 -6 -25 -25 -29 -56
-12 -15 7 -24 7 -33 -1 -10 -8 -15 -7 -20 5 -3 8 -14 15 -24 15 -29 0 -32 10
-10 32 15 15 17 23 9 31 -19 19 -12 56 14 73 20 13 25 23 20 43 -4 21 -1 28
17 36 19 8 24 19 26 57 3 43 0 51 -33 85 -19 20 -45 37 -58 38 -15 1 -22 8
-22 23 0 11 -4 24 -8 28 -15 16 -6 24 16 13 17 -9 15 -4 -10 23 -18 19 -33 41
-33 50 0 9 -5 20 -11 23 -6 4 -8 13 -5 21 3 8 -1 14 -8 14 -8 0 -16 -9 -19
-20 -3 -12 -14 -20 -25 -20 -38 0 -52 -11 -52 -41 0 -16 -3 -29 -7 -29 -12 0
-40 20 -29 20 5 0 1 9 -8 19 -10 11 -15 24 -12 29 3 6 2 21 -3 34 l-10 23 0
-22z m1094 -403 c3 -5 -1 -10 -10 -10 -9 0 -13 5 -10 10 3 6 8 10 10 10 2 0 7
-4 10 -10z m-445 -170 c0 -5 -4 -10 -10 -10 -5 0 -10 5 -10 10 0 6 5 10 10 10
6 0 10 -4 10 -10z m44 -18 c3 -5 -8 -16 -25 -26 -28 -17 -29 -17 -29 3 0 25
41 43 54 23z m-364 -44 c0 -5 -4 -8 -10 -8 -5 0 -10 10 -10 23 0 18 2 19 10 7
5 -8 10 -18 10 -22z m121 -1585 c13 -16 12 -17 -3 -4 -10 7 -18 15 -18 17 0 8
8 3 21 -13z m1596 -37 c-7 -15 -16 -21 -21 -16 -6 6 -4 15 4 25 19 23 29 18
17 -9z m-1276 -83 c13 -16 12 -17 -3 -4 -17 13 -22 21 -14 21 2 0 10 -8 17
-17z m5417 -622 c3 -8 -1 -12 -9 -9 -7 2 -15 10 -17 17 -3 8 1 12 9 9 7 -2 15
-10 17 -17z m220 -27 c0 -17 -4 -22 -11 -15 -5 5 -7 17 -4 25 9 23 15 19 15
-10z m-208 -52 c0 -16 -32 -12 -37 5 -3 7 4 11 16 10 12 -1 21 -7 21 -15z
m-6730 -1867 c0 -7 2 -19 5 -27 4 -9 -3 -14 -19 -16 -27 -2 -43 23 -20 32 12
5 13 10 4 27 -11 19 -10 20 9 9 12 -6 21 -17 21 -25z m741 -355 c23 -19 23
-19 4 -20 -21 0 -45 17 -45 32 0 14 17 9 41 -12z m7379 -176 c0 -8 -5 -12 -10
-9 -6 4 -8 11 -5 16 9 14 15 11 15 -7z m358 -80 c-10 -10 -28 6 -28 24 0 15 1
15 17 -1 9 -9 14 -19 11 -23z m-8 -649 c0 -5 -5 -3 -10 5 -5 8 -10 20 -10 25
0 6 5 3 10 -5 5 -8 10 -19 10 -25z m-30 15 c0 -12 -17 -12 -45 0 -17 7 -15 9
13 9 17 1 32 -3 32 -9z m115 -60 c3 -5 1 -10 -4 -10 -6 0 -11 5 -11 10 0 6 2
10 4 10 3 0 8 -4 11 -10z m-755 -915 c0 -8 -7 -15 -15 -15 -8 0 -15 7 -15 15
0 8 7 15 15 15 8 0 15 -7 15 -15z m1410 -455 c0 -5 -4 -10 -10 -10 -5 0 -10 5
-10 10 0 6 5 10 10 10 6 0 10 -4 10 -10z m-15 -30 c-3 -5 -11 -10 -16 -10 -6
0 -7 5 -4 10 3 6 11 10 16 10 6 0 7 -4 4 -10z m-1545 -200 c5 0 8 -22 7 -50
-2 -42 -5 -49 -19 -44 -21 6 -25 -25 -7 -57 16 -30 3 -57 -27 -55 -19 1 -24 5
-20 19 2 9 -1 17 -7 17 -13 0 -14 37 -3 93 6 25 14 37 25 37 26 0 32 10 19 33
-9 17 -8 19 7 14 9 -4 20 -7 25 -7z m-1918 -238 c-6 -2 -12 -10 -12 -17 0 -17
-52 -5 -58 13 -2 7 2 10 11 6 8 -3 18 -1 21 4 3 6 16 8 28 4 12 -3 17 -7 10
-10z m3 -62 c3 -5 -1 -10 -9 -10 -9 0 -16 5 -16 10 0 6 4 10 9 10 6 0 13 -4
16 -10z"/>
<path d="M6813 14276 c-1 -41 2 -44 16 -17 7 13 6 23 -2 35 -11 16 -13 13 -14
-18z"/>
<path d="M6732 14241 c7 -11 16 -17 20 -14 10 5 -10 33 -23 33 -5 0 -4 -9 3
-19z"/>
<path d="M7225 13810 c-3 -5 -1 -10 4 -10 6 0 11 5 11 10 0 6 -2 10 -4 10 -3
0 -8 -4 -11 -10z"/>
<path d="M7250 13807 c0 -2 7 -18 15 -33 13 -25 15 -26 15 -8 0 12 -7 27 -15
34 -8 7 -15 10 -15 7z"/>
<path d="M9406 13217 c3 -8 -2 -20 -10 -27 -24 -19 -11 -28 30 -21 55 9 56 41
2 55 -21 5 -26 3 -22 -7z"/>
<path d="M9548 13181 c4 -11 1 -13 -12 -8 -13 5 -19 1 -23 -13 -3 -11 -14 -20
-24 -20 -12 0 -16 -5 -13 -15 8 -21 2 -19 -32 10 -34 29 -40 30 -48 10 -3 -8
-1 -15 4 -15 6 0 10 -5 10 -12 0 -14 59 -68 75 -68 14 0 59 -59 51 -67 -3 -3
-1 -14 5 -24 8 -16 14 -17 30 -8 35 18 87 2 109 -33 10 -17 16 -37 13 -46 -4
-8 1 -19 11 -24 14 -8 16 -18 11 -49 -8 -45 9 -69 47 -69 18 0 29 -9 41 -35 9
-19 23 -35 32 -35 10 0 15 -10 15 -29 0 -16 7 -34 15 -41 8 -7 15 -21 15 -31
0 -11 -7 -19 -15 -19 -20 0 -19 -23 3 -43 14 -13 16 -29 14 -87 -3 -63 -6 -72
-26 -81 -17 -8 -23 -20 -24 -44 -1 -18 -2 -37 -4 -41 -1 -5 3 -18 9 -29 15
-27 80 -29 75 -2 -2 10 3 17 13 17 13 0 14 4 5 21 -9 16 -8 20 2 18 7 -1 18
-1 24 0 12 1 74 120 74 140 0 7 5 9 12 5 7 -5 8 -3 3 5 -4 7 2 22 15 37 17 17
24 37 25 72 1 26 5 54 10 62 5 9 4 15 -3 18 -19 6 13 32 40 32 13 0 34 7 46
16 12 8 26 13 31 9 5 -3 13 0 16 6 4 5 13 8 21 5 8 -3 14 -2 14 2 0 4 10 8 23
9 30 2 97 26 97 35 0 5 6 8 14 8 16 0 31 34 21 49 -13 21 111 26 158 6 12 -5
17 -3 17 8 0 9 9 18 19 22 20 6 38 41 27 52 -3 4 -6 -2 -6 -11 0 -13 -5 -16
-17 -11 -42 18 -61 17 -67 -3 -5 -14 -13 -18 -31 -14 -13 2 -38 0 -54 -6 -26
-9 -31 -8 -36 9 -8 25 -42 42 -82 41 -18 -1 -33 3 -33 8 0 6 -5 10 -11 10 -6
0 -41 15 -78 33 l-67 33 4 -33 c4 -28 1 -33 -17 -33 -17 0 -20 -4 -14 -30 3
-19 1 -30 -6 -30 -6 0 -11 -11 -11 -24 0 -15 -7 -26 -20 -29 -14 -3 -20 -14
-20 -32 0 -24 -3 -26 -29 -20 -35 8 -101 -18 -101 -39 0 -12 -5 -14 -25 -6
-14 5 -25 6 -25 3 0 -4 -13 6 -28 24 -19 20 -38 31 -56 31 -37 0 -79 48 -65
74 5 10 18 18 29 18 32 0 51 12 62 39 6 14 11 29 10 34 -1 4 2 7 7 7 17 0 22
63 6 86 -17 26 -20 64 -5 64 16 0 0 29 -20 35 -10 3 -21 17 -24 31 -4 14 -11
22 -15 19 -5 -3 -23 7 -41 21 -26 22 -35 25 -54 16 -13 -6 -27 -7 -32 -2 -5 4
-34 10 -65 12 -46 2 -55 0 -51 -11z"/>
<path d="M10739 12943 l-24 -28 28 24 c15 14 27 26 27 28 0 8 -8 1 -31 -24z"/>
<path d="M10672 12907 c-20 -12 -21 -15 -8 -32 16 -22 29 -15 41 23 7 25 0 27
-33 9z"/>
<path d="M6166 12711 c-8 -13 -68 -20 -88 -10 -12 6 -25 1 -48 -21 -18 -17
-37 -27 -44 -23 -6 5 -30 13 -54 19 -39 10 -44 9 -57 -10 -8 -11 -15 -17 -15
-12 0 5 -6 3 -14 -3 -10 -8 -16 -9 -21 -1 -10 16 -19 12 -37 -20 -14 -24 -24
-30 -51 -30 -37 0 -127 -35 -127 -49 0 -5 -11 -12 -25 -15 -27 -7 -113 -66
-114 -78 -1 -5 8 -8 19 -8 11 0 20 5 20 10 0 6 12 10 27 10 24 0 25 -1 11 -17
-8 -10 -18 -26 -21 -35 -4 -10 -11 -18 -17 -18 -6 0 -10 -12 -9 -27 0 -16 -2
-38 -6 -50 -6 -19 -3 -23 13 -23 25 0 30 -13 27 -72 -1 -34 2 -48 12 -48 7 0
13 -4 13 -10 0 -5 7 -10 15 -10 8 0 20 -9 27 -20 7 -11 20 -20 29 -20 12 0 16
-6 12 -20 -3 -13 1 -22 11 -26 15 -6 14 -8 -4 -21 l-21 -15 21 -15 c13 -9 19
-21 15 -33 -4 -13 3 -25 25 -40 16 -12 30 -27 30 -35 0 -7 7 -15 15 -19 11 -4
14 -13 9 -31 -4 -15 -2 -25 5 -25 5 0 19 -10 30 -22 16 -17 18 -24 9 -35 -20
-25 19 -51 84 -57 31 -3 68 -12 82 -21 15 -10 30 -13 38 -9 7 5 24 7 36 5 21
-2 23 0 17 19 -6 18 -4 21 6 14 8 -5 20 -9 28 -11 7 -1 26 -14 42 -29 16 -15
29 -22 29 -16 0 7 7 12 16 12 12 0 15 6 10 26 -6 22 -4 24 12 15 12 -7 33 -6
62 1 33 9 45 9 48 0 2 -7 12 -12 22 -12 10 0 20 -6 22 -12 5 -14 78 36 78 53
0 5 6 9 14 9 7 0 19 7 26 15 9 11 17 12 30 5 11 -6 21 -6 24 -1 17 28 75 -30
63 -62 -5 -12 3 -15 41 -12 29 1 53 -3 64 -12 11 -10 18 -11 23 -4 9 16 35 13
35 -4 0 -8 -5 -15 -11 -15 -6 0 -9 -9 -6 -20 3 -11 1 -20 -4 -20 -5 0 -9 -6
-9 -14 0 -10 9 -13 28 -11 15 2 39 4 55 4 20 1 30 8 37 26 13 34 39 43 57 19
7 -10 11 -24 9 -31 -3 -7 0 -15 5 -19 13 -8 -38 -59 -68 -68 -25 -8 -30 -21
-12 -31 7 -5 6 -12 -4 -23 -18 -21 -15 -75 5 -95 8 -9 21 -29 28 -46 15 -37
94 -93 123 -89 14 2 24 14 29 36 6 22 14 32 28 32 11 0 20 6 20 14 0 7 7 19
15 26 11 9 12 17 5 30 -14 26 -13 30 9 30 11 0 23 4 26 10 8 14 -13 50 -28 47
-7 -1 -10 5 -8 13 2 8 7 30 11 48 5 18 12 38 18 45 5 7 13 26 16 44 6 25 3 36
-13 52 -22 22 -27 41 -11 41 13 0 13 79 -1 119 -8 23 -16 30 -29 26 -22 -7
-52 4 -44 16 7 12 -19 22 -60 23 -29 1 -31 3 -29 36 5 71 3 85 -18 102 -12 10
-25 16 -29 13 -5 -3 -12 0 -16 6 -3 6 -1 15 6 19 8 5 1 14 -23 29 -45 28 -93
37 -112 21 -20 -16 -38 -4 -26 19 12 22 4 34 -37 55 -37 19 -52 14 -52 -16 0
-14 -5 -18 -16 -14 -9 3 -21 6 -28 6 -7 0 -21 7 -32 16 -10 8 -13 13 -6 9 33
-17 54 43 33 97 -14 37 -2 88 20 88 11 0 19 7 19 15 0 8 -4 15 -9 15 -13 0
-34 57 -29 78 6 20 -26 47 -42 37 -6 -4 -10 3 -10 13 0 26 -21 33 -75 25 -43
-5 -46 -4 -97 46 -28 28 -55 51 -58 51 -4 0 -17 9 -30 20 -23 20 -84 28 -94
11z m499 -979 c-8 -8 -25 10 -19 20 4 6 9 5 15 -3 4 -7 6 -15 4 -17z"/>
<path d="M5010 12465 c0 -8 4 -15 10 -15 5 0 7 7 4 15 -4 8 -8 15 -10 15 -2 0
-4 -7 -4 -15z"/>
<path d="M5135 12472 c-8 -8 -6 -24 3 -18 4 2 30 -15 56 -40 46 -42 72 -50 60
-19 -4 9 4 15 23 18 25 4 24 4 -7 6 -20 0 -41 6 -46 11 -17 17 -83 48 -89 42z"/>
<path d="M5425 12470 c-4 -6 3 -10 14 -10 25 0 27 6 6 13 -8 4 -17 2 -20 -3z"/>
<path d="M8190 12376 c0 -2 7 -9 15 -16 13 -11 14 -10 9 4 -5 14 -24 23 -24
12z"/>
<path d="M7220 12060 c0 -5 10 -15 23 -21 22 -12 22 -12 3 10 -21 23 -26 26
-26 11z"/>
<path d="M13365 11260 c3 -5 8 -10 11 -10 2 0 4 5 4 10 0 6 -5 10 -11 10 -5 0
-7 -4 -4 -10z"/>
<path d="M5240 11210 c-7 -14 -17 -19 -29 -15 -14 4 -20 -1 -25 -25 -4 -24
-15 -34 -50 -49 -24 -11 -45 -23 -47 -28 -6 -12 -77 -53 -94 -53 -21 0 -29
-20 -26 -63 3 -56 -8 -97 -26 -97 -15 0 -49 -29 -46 -39 1 -3 -1 -8 -3 -10 -2
-2 -4 1 -4 7 0 7 -4 12 -10 12 -5 0 -10 -10 -10 -22 0 -15 12 -31 35 -46 19
-12 35 -18 35 -12 0 5 -14 17 -31 25 -43 23 -31 28 21 10 53 -19 50 -19 50 5
0 11 7 20 15 20 8 0 15 6 15 14 0 7 7 19 15 26 9 7 13 21 10 31 -5 14 -1 19
12 19 10 0 24 4 32 9 11 7 10 12 -8 27 -11 10 -21 24 -21 30 0 16 79 -2 94
-20 6 -8 20 -17 32 -20 16 -5 24 1 37 28 11 23 27 38 51 47 20 7 36 19 36 27
0 12 3 12 15 2 13 -11 15 -7 15 28 0 23 -5 44 -11 48 -7 4 0 17 17 35 26 28
27 30 11 46 -15 15 -20 16 -38 5 -18 -11 -24 -11 -39 3 -17 16 -19 15 -30 -5z
m-6 -141 c-4 -13 -7 -27 -6 -31 1 -5 -2 -8 -8 -8 -12 0 -12 7 -4 49 4 21 10
29 16 23 6 -6 7 -20 2 -33z"/>
<path d="M4941 11032 c-1 -8 -6 -10 -13 -6 -10 5 -10 4 -1 -6 15 -16 28 -8 20
12 -4 11 -6 11 -6 0z"/>
<path d="M5016 10474 c-17 -12 -17 -14 -4 -14 9 0 20 5 23 11 11 17 2 18 -19
3z"/>
<path d="M4990 10443 c1 -19 16 -31 29 -24 7 5 10 14 7 20 -8 12 -36 15 -36 4z"/>
<path d="M7150 10061 c0 -6 5 -13 12 -17 8 -5 6 -9 -6 -14 -15 -5 -14 -8 8
-19 20 -11 28 -12 40 -2 13 11 12 16 -13 37 -31 26 -41 29 -41 15z"/>
<path d="M16710 9700 c0 -21 -6 -30 -22 -36 -13 -3 -31 -13 -40 -21 -9 -8 -22
-12 -27 -8 -16 9 -13 -11 3 -24 7 -6 21 -8 31 -5 10 4 21 1 26 -7 8 -12 11
-12 19 1 8 12 11 13 19 1 18 -28 43 58 32 110 0 4 -10 9 -21 12 -17 4 -20 0
-20 -23z"/>
<path d="M16570 9610 c-8 -5 -10 -10 -5 -10 6 0 17 5 25 10 8 5 11 10 5 10 -5
0 -17 -5 -25 -10z"/>
<path d="M16530 9585 c-7 -8 -21 -15 -31 -15 -11 0 -19 -5 -19 -11 0 -7 -10
-5 -25 5 -25 16 -25 16 -25 -13 0 -15 6 -34 14 -41 8 -6 13 -17 10 -25 -3 -7
4 -19 14 -27 12 -8 23 -31 27 -53 3 -22 10 -58 15 -80 5 -22 12 -53 15 -68 5
-23 9 -26 20 -17 17 14 15 160 -3 182 -6 8 -9 18 -5 21 3 4 1 7 -5 7 -7 0 -12
5 -12 10 0 6 7 10 15 10 12 0 15 14 15 65 0 36 -2 65 -4 65 -2 0 -9 -7 -16
-15z"/>
<path d="M15430 9335 c0 -20 -36 -37 -63 -30 -14 4 -18 3 -9 -3 7 -5 11 -23
10 -43 -3 -31 0 -34 24 -34 29 -1 58 -21 58 -41 0 -20 60 -59 70 -45 5 9 20
10 60 3 l52 -10 -6 30 c-4 19 1 43 14 68 21 42 27 90 10 90 -5 0 -10 -5 -10
-11 0 -6 -6 -9 -12 -6 -7 2 -12 13 -11 23 1 10 0 13 -3 7 -8 -18 -35 -16 -64
4 -18 12 -22 13 -14 3 6 -8 14 -27 18 -42 5 -24 3 -28 -14 -28 -11 0 -20 5
-20 10 0 14 -30 44 -57 59 -28 14 -33 14 -33 -4z"/>
<path d="M16487 9186 c-4 -10 -1 -13 9 -9 15 6 19 23 5 23 -5 0 -11 -7 -14
-14z"/>
<path d="M16403 9103 c-14 -5 -18 -43 -5 -43 10 0 42 33 42 43 0 8 -19 8 -37
0z"/>
<path d="M16337 9043 c-4 -3 -7 -17 -7 -29 0 -16 -7 -24 -22 -26 -19 -2 -23
-9 -23 -38 0 -34 -1 -35 -35 -33 -34 1 -57 20 -86 69 -10 15 -11 8 -7 -38 5
-49 3 -58 -11 -58 -9 0 -16 -7 -16 -16 0 -8 4 -13 9 -10 5 3 16 -6 25 -20 13
-19 22 -23 39 -18 12 4 24 11 25 15 5 12 103 11 122 -1 9 -6 17 -5 22 3 6 8
10 5 14 -10 3 -12 12 -24 20 -27 16 -6 29 10 14 19 -16 10 -12 22 10 28 13 3
20 14 20 29 0 13 8 28 18 34 13 9 17 21 14 51 -4 42 -4 42 -85 44 -27 1 -35 5
-28 12 6 6 11 15 11 19 0 10 -34 11 -43 1z m127 -69 c3 -8 2 -12 -4 -9 -6 3
-10 10 -10 16 0 14 7 11 14 -7z"/>
<path d="M16191 8773 c-1 -7 -7 -13 -15 -13 -8 0 -17 -4 -20 -8 -9 -15 6 -52
21 -52 8 0 12 4 8 9 -3 6 2 14 10 18 12 7 14 15 6 34 -5 13 -10 18 -10 12z"/>
<path d="M6750 8695 c-7 -8 -20 -15 -29 -15 -8 0 7 -15 34 -33 45 -29 50 -36
50 -69 0 -21 3 -38 8 -38 4 0 11 0 17 0 10 0 37 49 35 65 0 6 -13 31 -29 58
-30 50 -61 62 -86 32z"/>
<path d="M6820 8500 c0 -5 10 -15 23 -21 22 -12 22 -12 3 10 -21 23 -26 26
-26 11z"/>
<path d="M9245 6950 c-3 -5 1 -10 10 -10 9 0 13 5 10 10 -3 6 -8 10 -10 10 -2
0 -7 -4 -10 -10z"/>
<path d="M15757 6527 c-2 -6 -18 -10 -35 -9 -22 2 -35 -4 -46 -20 -9 -12 -12
-24 -8 -28 5 -3 11 -13 15 -23 13 -36 107 -57 107 -24 0 5 8 3 18 -5 9 -8 36
-20 60 -27 23 -6 48 -20 54 -30 6 -11 17 -17 23 -15 7 3 18 -2 25 -11 7 -8 9
-15 5 -15 -4 0 -2 -7 5 -15 14 -17 56 -20 64 -6 4 5 -7 15 -24 23 -16 7 -30
20 -30 29 0 9 -7 22 -15 29 -8 7 -15 18 -15 25 0 8 -9 10 -25 8 -20 -4 -29 2
-52 41 -16 25 -36 46 -45 46 -10 0 -18 4 -18 9 0 15 -58 32 -63 18z"/>
<path d="M16134 6300 c-5 -5 -22 -10 -38 -12 l-30 -3 25 -29 25 -29 35 19 c19
10 40 17 48 15 7 -1 11 3 9 9 -5 17 -64 40 -74 30z"/>
<path d="M11820 6245 c0 -8 -3 -15 -7 -15 -5 0 -14 -4 -22 -9 -16 -10 2 -51
23 -51 8 0 19 -13 24 -29 8 -22 16 -29 35 -27 21 1 23 4 16 19 -5 9 -14 17
-19 17 -14 0 -42 72 -36 92 2 10 0 18 -5 18 -5 0 -9 -7 -9 -15z"/>
<path d="M16210 6242 c0 -4 7 -15 14 -24 16 -22 42 -23 50 -3 3 8 4 15 3 15
-1 0 -17 4 -35 9 -17 5 -32 7 -32 3z"/>
<path d="M16222 6145 c6 -14 16 -25 21 -25 6 0 7 3 4 6 -3 4 -2 15 4 25 8 16
6 19 -15 19 -24 0 -25 -2 -14 -25z"/>
<path d="M14007 6086 c-4 -10 1 -12 14 -9 23 6 24 9 5 16 -8 3 -17 0 -19 -7z"/>
<path d="M7098 6073 c7 -3 16 -2 19 1 4 3 -2 6 -13 5 -11 0 -14 -3 -6 -6z"/>
<path d="M6990 6060 c0 -6 -12 -15 -26 -21 -15 -5 -24 -12 -20 -16 3 -3 0 -13
-7 -21 -10 -13 -9 -14 3 -7 8 5 23 8 33 7 12 -2 17 3 17 21 0 18 8 27 33 35
l32 10 -32 1 c-18 1 -33 -4 -33 -9z"/>
<path d="M16316 6025 c13 -20 19 -23 30 -14 12 10 11 14 -3 25 -31 23 -46 17
-27 -11z"/>
<path d="M16220 6010 c6 -11 13 -20 15 -20 3 0 5 9 5 20 0 11 -7 20 -15 20
-13 0 -14 -4 -5 -20z"/>
<path d="M16120 6016 c0 -2 9 -6 20 -9 11 -3 20 -1 20 4 0 5 -9 9 -20 9 -11 0
-20 -2 -20 -4z"/>
<path d="M16332 5950 c0 -14 2 -19 5 -12 2 6 2 18 0 25 -3 6 -5 1 -5 -13z"/>
<path d="M12124 5903 c4 -8 -7 -25 -29 -44 -33 -30 -35 -33 -19 -50 9 -10 14
-24 11 -31 -4 -10 -6 -9 -6 2 -1 13 -3 13 -11 0 -8 -12 -11 -12 -28 3 -10 9
-27 17 -38 17 -17 0 -19 -5 -16 -34 5 -45 -13 -79 -39 -71 -17 6 -18 4 -9 -19
6 -17 6 -26 0 -26 -6 0 -10 -5 -10 -11 0 -6 7 -9 15 -5 10 3 20 -5 30 -24 9
-17 20 -30 25 -30 6 0 10 -9 10 -20 0 -11 -5 -20 -11 -20 -5 0 -7 -4 -4 -10 3
-5 1 -10 -4 -10 -6 0 -11 -8 -11 -18 0 -10 -5 -23 -11 -29 -7 -7 -6 -12 6 -17
9 -3 18 0 21 7 3 8 19 13 39 12 26 0 37 4 41 18 3 11 12 16 20 13 19 -7 30 39
16 68 -8 17 -6 28 9 47 26 34 26 105 -1 114 -26 8 -26 25 -1 18 11 -3 27 -1
36 4 14 8 12 12 -15 25 -18 9 -27 18 -22 22 6 4 9 16 7 27 -2 11 1 29 8 40 9
14 9 21 -2 31 -10 10 -12 10 -7 1z"/>
<path d="M11944 5408 c5 -23 3 -28 -14 -28 -14 0 -20 -7 -20 -24 0 -13 -2 -31
-5 -38 -8 -19 74 -102 113 -116 32 -11 32 -11 26 16 -4 15 -13 37 -21 50 -8
13 -12 30 -9 38 8 20 -14 64 -31 64 -8 0 -12 4 -9 8 2 4 -5 19 -16 32 l-20 25
6 -27z"/>
<path d="M12485 5369 c-4 -6 -5 -13 -2 -16 7 -7 27 6 27 18 0 12 -17 12 -25
-2z"/>
<path d="M12320 5179 c0 -6 -7 -9 -15 -6 -10 5 -16 -4 -21 -28 -3 -19 -10 -35
-16 -35 -5 0 -6 -5 -3 -11 4 -6 13 -8 20 -5 8 3 17 -4 20 -15 4 -10 12 -19 20
-19 21 0 84 -43 85 -58 0 -18 20 -4 20 14 0 17 -38 53 -57 54 -16 0 -26 35
-19 68 5 20 2 30 -14 40 -14 8 -20 9 -20 1z"/>
<path d="M12035 5133 c-17 -41 -14 -63 9 -63 9 0 23 -15 32 -32 17 -33 31 -48
47 -48 5 0 5 5 2 10 -3 6 0 10 7 10 15 0 68 46 68 60 0 5 7 16 16 25 9 8 13
22 10 30 -6 17 -26 20 -26 5 0 -5 -4 -10 -10 -10 -5 0 -10 5 -10 11 0 21 -33
38 -52 28 -12 -6 -25 -6 -37 1 -31 16 -40 12 -56 -27z"/>
<path d="M13004 5145 c-10 -8 -27 -15 -36 -15 -9 0 -18 -10 -20 -22 -2 -16 -9
-22 -20 -20 -10 2 -18 -3 -19 -10 -1 -7 -2 -28 -4 -46 -2 -21 3 -35 14 -42 9
-6 11 -10 4 -10 -8 0 -13 -15 -13 -40 0 -26 -5 -43 -14 -46 -8 -3 -17 -15 -20
-27 -5 -20 -6 -20 -24 -4 -19 17 -20 16 -30 -25 -19 -78 -20 -88 -7 -96 7 -4
17 -33 22 -65 9 -52 8 -59 -9 -71 -13 -9 -16 -16 -8 -21 6 -3 9 -19 8 -33 -2
-19 1 -26 12 -24 11 2 11 -1 -2 -11 -42 -33 -8 -62 47 -42 33 11 40 18 40 38
-1 14 2 24 6 21 4 -2 9 3 13 11 3 8 11 12 19 9 8 -3 20 2 27 11 7 8 21 15 32
15 28 0 78 59 78 92 0 23 4 28 25 28 22 0 25 3 19 25 -4 16 1 37 16 61 17 29
18 39 8 45 -9 6 -7 9 8 9 19 0 22 7 27 53 2 28 1 63 -4 76 -8 19 -7 22 6 17
13 -4 14 1 9 37 -4 23 -11 48 -17 55 -14 17 -47 15 -47 -4 0 -9 -6 -14 -12
-11 -19 6 -68 -21 -68 -38 0 -20 -20 -18 -47 4 -28 23 -29 34 -4 26 11 -3 22
-1 26 5 3 5 1 10 -5 10 -7 0 -10 7 -7 15 4 8 1 17 -4 21 -6 3 -9 17 -6 30 5
28 6 28 -19 9z m36 -155 c0 -5 -5 -10 -11 -10 -5 0 -7 5 -4 10 3 6 8 10 11 10
2 0 4 -4 4 -10z"/>
</g>
</svg>
