<svg version="1" xmlns="http://www.w3.org/2000/svg" width="690.661" height="949.428" viewBox="0 0 517.996 712.071"><g fill="#222"><path d="M124.996.996c0 .9.6 1.2 1.5.9.8-.4 1.5-.7 1.5-.9 0-.2-.7-.5-1.5-.9-.9-.3-1.5 0-1.5.9zM126.496 5.696c.4 1.1 0 1.8-1.4 2.3-1.1.3-2.3 1.4-2.6 2.5-.5 1.5-1.2 1.8-4.2 1.3-3.4-.6-3.5-.5-2.4 1.6 1.3 2.4 3.1 2.7 4.9.9.9-.9 1.2-.5 1.2 1.9 0 4.1-2.1 5.8-5.1 4.3-1.2-.7-2.4-.8-2.8-.4-1.4 2-10.2-.3-10.9-2.8-.3-1.3-.8-1.6-1.7-.8-.7.6-2 .7-2.9.4-1.1-.4-3.1.4-5.4 2.3-4.7 3.7-11.1 3.8-14.3.2-2.8-3.2-3.4-1.7-1.9 4.7 1 4.1 1.1 6.1.3 7.3-.7 1-.8 2.4-.3 3.1.6 1 0 1.7-2.5 2.6-5 1.7-10.6 1-12.6-1.5-1.2-1.5-2.7-2.1-4.6-1.9-2.4.3-2.8-.1-3.1-2.4-.3-2.5-.6-2.6-2.9-1.7-1.7.6-3 .6-3.8-.1-.9-.7-2.1-.7-3.9 0-1.5.5-4 1-5.6 1-2.8 0-2.8.1-1.5 2.7 1 1.9 1.1 2.9.4 3.4-1.3.8.5 4.9 2.1 4.9 2.1 0 .9 1.8-2 3-2.4 1-3.3 1-4.5 0-1.3-1.1-1.5-.8-1.5 1.4 0 1.6-.5 2.6-1.5 2.6-.8 0-1.5.9-1.5 2 0 1.4-.7 2-2.2 2-1.3 0-3.1.7-4.1 1.4-.9.7-2.8 1.1-4.1.9-1.3-.3-2.7 0-3 .6-.4.6-1.9 1.1-3.2 1.1-1.5 0-3.8 1.2-5.4 2.9-1.6 1.6-3.5 3.1-4.2 3.4-1.6.6-2.1 8.2-.7 10.9 1.1 2 3.5 2.4 4.1.6.5-1.5 4.8 2.6 4.8 4.7 0 .8.5 1.5 1 1.5.6 0 1-.5 1-1 0-1.8 1.9-1 2.5 1.1.5 1.4 1.3 1.9 2.6 1.6 1.4-.4 1.9 0 1.9 1.4 0 1 .5 1.9 1 1.9.6 0 1 .7 1 1.5 0 1.6 3 3.5 5.5 3.5 1.2 0 1.4-.4.6-1.8-.7-1.4-.6-2.5.4-3.9 1.3-1.8 1.3-2.2-.1-2.7-.9-.3-2-.4-2.5 0-1.2.7-4.9-.5-4.9-1.6 0-.5.7-1.5 1.5-2.3.8-.8 1.1-1.7.8-2.1-.4-.3.1-.6 1-.6 1 0 1.4-.5 1.1-1.5-.8-1.9 0-1.9 3.5-.1 1.5.8 3.9 1.6 5.3 1.8 1.4.2 3.4 1.2 4.4 2.3 1.9 1.8 2.1 2.3 2.3 5.7 0 1 2 3 4.4 4.4 2.3 1.4 5.9 4.4 8 6.5 5 5.2 13.3 10.3 11.2 6.9-.3-.6-.3-1 .1-1 1.1 0 16.4 16.2 16.4 17.3 0 .5 1.1.6 2.4.3 1.4-.3 3.7-.1 5.3.5 4.1 1.6 13 1.5 15.1-.3 2.3-1.9 6.8-3.8 9.1-3.8 1 0 2.6 1.2 3.6 2.6 1 1.5 2.2 2.3 3.1 2 .9-.3 1.2-.1.9.4-1.1 1.8.7 1 2.3-1.1 1.6-1.9 1.9-1.9 5.4-.5 4.4 1.9 5.1 2.8 5.8 8.1.4 2.9 1.1 4.3 2.8 5 1.2.5 2.2 1.3 2.2 1.8 0 .4.8.4 1.8-.1.9-.5 3.4-1.2 5.4-1.6 2.1-.4 4.2-1.4 4.7-2.3.7-1.4 1.2-1.5 2.4-.5 1 .9 1.7 1 2.2.2.3-.5 1.7-1 3.1-1 1.8 0 2.4-.5 2.4-2.1 0-1.3.4-1.8 1.2-1.3 1.9 1.2 5.2 1.3 6.6.2 1.4-1.2 1.7-3.2.3-2.3-1.2.7-4.1-3.4-4.1-5.7 0-3 1.7-2 5.9 3.4 4 5.3 4.4 8.4.9 7.2-1.8-.5-1.9-.3-1.3 2.5.5 2.3.2 3.6-1.4 5.2-2.7 2.9-2.6 8.5.2 9.3 1.2.3 1.7 1 1.4 1.9-.7 1.9 2.2 5.8 2.9 3.9.3-.6 1-.9 1.6-.6.5.3 1.5-.2 2.2-1.2 1.3-1.7 1.5-1.7 4.8-.1 3.8 1.8 7.3 6.1 6.3 7.8-.4.5-.2 1.5.3 2.2.6.7.8 2.4.5 3.9-.4 2-1.3 2.9-3.4 3.3-1.6.4-4.1 2.2-5.5 4-1.4 1.9-3.4 3.7-4.5 4-1 .4-1.9 1.4-1.9 2.3 0 .9-.4 2.3-.8 3-1.1 1.6-4.3.5-3.6-1.2.3-.7-.4-2.1-1.6-3.1-1.1-1-2-2.7-2-3.7s-.9-2.8-2-4c-1.1-1.2-2-1.6-2-1 0 .8-.6.9-1.7.3-1-.5-3.5-1.6-5.6-2.5-3.7-1.6-3.8-1.6-4.7.9-.5 1.4-1.6 2.5-2.5 2.5-.8 0-1.5.7-1.5 1.6 0 .8-.4 1.2-1 .9-1.7-1.1-3.2.5-1.9 2.1.9 1.1.9 1.7 0 2.8-1 1.2-.8 2.6.6 6.5 1.8 5.1 2.6 6 3.8 4 .5-.6 1.2-.4 2 .7 1.6 2.2 5.4 2.6 8 .8 1.1-.8 3.4-1.4 5.1-1.4 2.1 0 3.4-.6 3.8-1.7 1-2.5 2.5.2 1.8 3.1-.8 3.2-2.4 4.8-4.4 4.3-1.1-.3-1.8 0-1.8.9 0 .7-1.1 1.6-2.5 2-1.4.3-2.5 1.1-2.5 1.6 0 .6-1.7.8-4.4.4-3.9-.6-4.5-.5-5.1 1.4-.7 2.1-2.9 2.7-4 1-1-1.6-2.5-1.1-2.5.8 0 1-1.6 3.4-3.6 5.3-2.5 2.4-3.4 4-3.1 5.6.2 1.3-.1 3-.7 3.9-1.4 1.8-.3 10.1 1.9 14.4 1.9 3.9 2.5 8.7 1.5 11.5-1 2.7 0 5.6 3.2 8.6.9.8 1.7 2.4 1.8 3.5 0 2.3.5 5.4 1.4 10.9 1.2 6.3 1.7 7.5 2.9 7.5.7 0 2.6 1.1 4.2 2.4l3 2.4-2.7.7c-1.6.4-2.8.9-2.8 1.2 0 .2 1 2.7 2.1 5.4 1.5 3.4 2.7 4.9 4.1 4.9 2.2 0 3.9 3.8 2.7 6.1-.4.9-.6 1.9-.3 2.2.3.3.7 1.3.8 2.4.2 1 1 1.8 2 1.8 1.8 0 4.6 4.6 4.6 7.8 0 1.1.3 1.7.6 1.4.4-.4 1.6 1.1 2.6 3.3 1.1 2.2 2.4 4 2.9 4s.6 1.3.3 3c-.5 2 0 4 1.5 6.6 1.2 2.1 1.9 4 1.4 4.3-1.2.9-1.5 4.1-.3 4.1.5 0 1 .5 1 1.1 0 .7-.9.9-2.1.6-1.5-.4-1.9-.2-1.5.8.3.8.1 2.8-.4 4.4-.6 2.1-.5 3.3.3 3.8 2.4 1.5 10.7 4.1 10.7 3.4 0-1 5.1-.2 6.6 1.1.6.4 1.8.6 2.7.2.8-.3 1.8 0 2.3.7.4.7.2 1.5-.5 1.7-.9.3-.8.9.5 2.3 1.3 1.5 3.1 1.9 7.6 1.9s5.8.3 5.8 1.5c0 .8.9 1.5 2 1.5 1.5 0 2 .7 2 2.5 0 1.9.7 2.6 3.8 3.5 2 .7 5.1 1 6.7.8 2.2-.2 3.7.4 5.5 2.3 3.3 3.5 7 4.4 7 1.8 0-2.8 1.9-3.1 7.5-1.5 3.2 1 5.3 1.2 6.1.5 1.7-1.4 4 2.6 4.8 8.3.6 3.8 1.1 4.8 2.7 4.8 1 0 1.9.5 1.9 1.1 0 .8-1.3.9-4.2.4-4.4-.8-10.2-1.4-17.2-1.8-2.4-.2-4 .2-4.3 1-.3.7-1.4 1.3-2.5 1.3-1 0-1.7.4-1.3.9.3.5-.6 2.1-2 3.5-1.3 1.3-2.7 2.1-2.9 1.7-.3-.4-2.1-.8-4.1-.9-2-.1-4.1-.4-4.6-.8-.6-.3-1.6.2-2.3 1.1-1.1 1.5-1.8 1.6-6.2.6-2.7-.7-6-1.5-7.4-1.8-1.4-.3-3.3-1.3-4.3-2.1-1.6-1.4-1.9-1.4-2.7-.2-.6.8-1 2.6-1 3.9 0 1.6-.4 2.1-1.5 1.8-.8-.4-1.7-.2-2 .4-.4.5-1.1.7-1.6.4-2-1.3-.7 3.5 1.7 6.5 1.5 1.7 2.4 3.3 2.1 3.6-.3.4.5 1.6 1.7 2.8 1.3 1.1 3.6 5.8 5.2 10.3 2.2 6.6 3 8 4.1 7.2.7-.6 1.3-2 1.3-3 0-2.1 1.6-3.4 2.5-1.9.5.8 1.1.7 2.1-.1 1.2-1 1.6-.8 2 .9.4 1.1 1.2 1.8 1.9 1.6 2.5-1 6.7 4 7.5 8.9.6 4.3.5 4.8-1.4 5.3-3.3.8-5.4 4.4-4.8 8.2.5 3.4.9 3.6 5.4 1.7 1.1-.4 2.1.1 3.1 1.7 1.8 2.8 3.1 10.8 1.8 10.8-.5 0-1.2 1.1-1.5 2.4-.3 1.3-1.5 2.6-2.6 2.9-2.5.6-2.6 3.5-.4 8.5 1 2 1.8 4.3 2 5.1.1.8.8 1.7 1.4 2.1 1.2.7-1 2.9-4.8 4.9-1.3.7-2.1 1.8-1.8 2.6.3 1-.4 1.3-2.4 1.3-4.1-.1-5.6 1.5-7 7.3-1.3 5.3-8.3 14.9-11 14.9-.9 0-2.3 1.2-3.2 2.7l-1.6 2.7 4.9 2.2c3.9 1.8 5.9 2.2 10.4 1.7 4.4-.5 5.9-.2 7.4 1.1 2.7 2.5 17.7 2.7 21.3.4 2.1-1.4 3.2-1.5 6.1-.6 2.3.7 3.3 1.6 3 2.4-.7 1.9-3.3 1.8-3.3-.2 0-.8-.4-1.3-1-.9-.5.3-.6 1.3-.3 2.2.4 1.1.3 1.4-.5.9-.8-.5-1.2 0-1.2 1.3 0 1.8-.6 2.1-4 2.1-2.2 0-4 .4-4 .9s-.8 1.2-1.7 1.5c-1.2.4-1.9 1.8-2.1 4.3-.1 2.1-.7 4-1.3 4.2-.6.2-1.9 1.2-2.7 2.2-.9 1.1-2.2 1.9-2.9 1.9-.7 0-1.3.6-1.3 1.4 0 .7-1.3 1.6-3 1.9-1.9.4-3 1.3-3 2.3 0 1.2-.6 1.5-2.4 1-2.3-.6-2.4-.4-1.6 2.4.8 2.7.6 3-1.3 3-2.7 0-7.2 5.9-5.7 7.4s1.2 6.2-.5 7.6c-.8.7-1.5 2-1.5 3 0 .9-1 2.1-2.3 2.7-1.7.8-2.3 2-2.5 4.9-.2 2.2-.7 4.1-1.3 4.2-.6.3-.6.8-.1 1.5s1.5 2.9 2.1 4.9c.7 2.1 1.6 3.8 2 3.8.5 0 1.1 1.8 1.5 3.9.7 4.4 1.6 5.1 6.4 4.3 1.8-.3 3.2 0 3.2.6 0 1 6.8 2.2 7.2 1.2.2-.3 1.7-1.2 3.3-2.1 3.6-1.9 7-.8 7.9 2.4.5 2 .7 2 1.8.6 2.5-3.1 4.5-3 5.8.4.7 1.8 2.3 4.1 3.7 5.3 1.4 1.2 2.4 3.3 2.6 5.2.1 1.8.6 3.2 1.1 3.2.5 0 1.8.7 2.8 1.7 1.3 1.2 2.4 1.4 4.1.7 1.2-.5 3.9-.9 6-.8 2 0 3.7-.3 3.7-.7 0-1.4 3.2-1 9 1 3.9 1.4 5.9 1.6 6.7.9.7-.6 1.3-.7 1.3-.2 0 .4.5.3 1.2-.4 1.8-1.8 4-1.5 7 1.1 2 1.7 2.5 2.9 2.1 5-.4 2.1-1 2.6-2.4 2.2-1.9-.6-2.7.9-1 1.9.4.3.6 1.7.3 3.1-.3 2 .4 3.3 3.5 6.1 3.8 3.4 4 3.7 3.2 7.7-.4 2.3-.4 4.6.1 5.2.4.5.7 3.9.6 7.5-.2 5.5.1 6.8 1.9 8.2 1.5 1.3 1.7 1.9.8 2.9-1.6 1.6.3 5.7 3.1 6.5 2.7.8 7.7 5.5 7 6.6-.3.4.2 1.8 1 3 .9 1.2 1.6 3.2 1.6 4.4 0 1.2 1 2.8 2.3 3.7 2.1 1.5 2.1 1.6.4 2.9-1.7 1.3-1.7 1.5-.3 2.7.9.8 1.6 1.9 1.6 2.6 0 .7 1 1.9 2.3 2.8 1.2.8 3.2 2.5 4.5 3.7 2.9 2.8 3.7 2 3.3-3.3-.2-3.1-.9-4.7-2.9-6.4-2.4-1.9-2.7-2.7-2.5-8 .2-3.3.8-6.2 1.6-6.8 1.8-1.4 4-7.2 3.4-8.9-.3-.7.1-2.3.9-3.4s1.2-2.6 1-3.4c-.2-.7-.7-2.6-1.1-4.2l-.6-2.9 4.6.5c2.5.3 4.8.1 5.1-.4.3-.5 1.3-.7 2.1-.3 1.3.4 1.5-.1 1-3.1-.5-3.2-.2-4.2 2.3-7.1 2.7-3 3.5-5.5 3.1-9-.1-.6.3-1.4.9-1.8 1.6-1 1.2-8.1-.5-9.5-1.6-1.3-2.1-4.5-.6-3.5 1.8 1.1 2.2-1.5.6-4.5-1.3-2.5-1.3-3-.1-3 2 0 2.5-2.9 1.1-7.5-.8-2.8-1.6-4-2.8-3.9-.9.1-1.7-.2-1.7-.6 0-1.7-3.2-1.9-5.6-.4-2.4 1.6-3.4.8-1.4-1.2 2.2-2.2-1.3-6.1-7-7.9-2.2-.7-2.3-.6-1.1.9.8.9 1.2 1.7 1 1.9-4.9 2.8-5 2.8-7.6.7-1.4-1.1-3.4-2-4.3-2-2 0-3.7-3.3-2.1-3.8.6-.2 1.1-.9 1.1-1.6 0-1.9-3.7-4.9-5.2-4.3-1.7.6-4.8-1-4.8-2.5 0-.6-.7-2-1.7-3-.9-1-1.6-3.1-1.5-4.8 0-1.6-.3-3.2-.7-3.5-.5-.2-.3-2.3.2-4.5.9-3.4.8-4.5-.6-7-1-1.7-1.3-3-.8-3 .6 0 1.1.4 1.1 1 0 .5.7.7 1.6.3.8-.3 1.3-1.2 1-1.9-.7-1.7.6-1.8 2.2-.2.9.9 1.5.8 2.7-.8.8-1 1.5-2.7 1.5-3.7 0-1.1.4-1.5 1.2-1.1.8.5.9.2.5-.9-.3-1-.2-1.7.3-1.7 1.5 0 1.2-3-.2-3.1-.7 0-3.2 0-5.6.1-4.1.1-4.2.1-3.2-2.4.8-2.1.7-2.6-.6-2.6-1 0-1.2-.5-.7-1.3.4-.6.8-1.8.8-2.6 0-2.3 2.3-2.4 3.5-.1.7 1.3 2 2 3.3 1.9 3-.3 5.7 1 5.7 2.7 0 .8-.7 1.4-1.6 1.4-1.1 0-.6.9 1.6 3 1.8 1.7 3.6 3 4 3 .5 0 .8.9.7 2-.1 1.2-.7 1.8-1.4 1.6-.8-.3-1.3.2-1.3 1.3s-.6 2.2-1.2 2.4c-1 .4-1 .8.1 1.5.7.5 1 1.5.7 2.1-1 1.5 5.3 4.1 9.8 4.1 1.9 0 4.1-.7 5-1.5.8-.8 2.1-1.5 3-1.5 1.9 0 3.1 3.7 1.7 5.4-.8.9-.6 2.8.5 6.7 1.7 6.1 1.8 6.8 1.3 8.8-.3.9.8 1.8 2.8 2.4 2.6.8 3.7.6 6.5-1.4 1.8-1.3 3.7-2.4 4.3-2.5.5 0 2-.2 3.3-.2 1.4-.1 2.2-.9 2.2-2s.3-1.3.8-.6c.8 1.3 5.2.1 5.2-1.4 0-.5-1.1-1.9-2.5-3.2-1.3-1.2-2.3-2.5-2.2-2.9 0-.3-.4-1.6-1.1-2.7-.6-1.2-.8-2.4-.5-2.8.3-.3.1-.6-.5-.6-.7 0-1.2.4-1.2 1 0 1.5-2.6 1.2-4-.5-.7-.8-2.2-1.5-3.4-1.5-1.1 0-4.1-1.2-6.5-2.6-2.7-1.5-5.1-2.2-6-1.8-.9.4-2.2.6-3 .5-.7-.1-1 .2-.7.8.4.5.2 1.2-.4 1.6-.6.4-1-1-1-3.5 0-2.3-.5-5-1.1-6.1-1-1.9-.9-2 1.8-.6 1.5.8 4.3 1.7 6.1 2 3 .6 3.2.5 3.2-2.3 0-1.6.5-3.2 1-3.5.6-.3 1-1.5 1-2.6 0-1 .7-1.9 1.5-1.9s1.5-.4 1.5-.9c0-1-2.7-.8-9 .7-2.4.6-3.8.4-4.5-.4-.5-.6-2.5-1.4-4.3-1.8-2.9-.5-3.3-.4-2.7 1.3.8 2.7-1 3.4-5 2.1-3.1-1-3.3-1.3-2.2-3.1.9-1.4 1.9-1.8 3.9-1.4 1.4.4 2.9.1 3.3-.4.3-.6 2.1-1.1 3.8-1.2 1.8 0 4.1-.4 5.2-.8 1.2-.5 2.9-.2 4.5.7 2.4 1.4 3.1 1.4 7.3-.4 3-1.2 4.8-2.6 5.2-4.1.3-1.2 1.3-2.3 2.2-2.5 1.3-.2.8-1.1-2.2-4-2.2-2-3.7-4-3.3-4.3 1.2-1.3 8.2-2.4 11-1.8 1.6.3 3.3 1.4 3.8 2.3.6 1.2 1.7 1.6 3 1.3 2.8-.7 2.5-3.1-.6-3.9-1.9-.5-2.4-1.2-2.2-2.8.1-1.2-.8-3.5-2-5.1-1.7-2.1-2.2-4-2-6.8.2-3.4-.1-4.1-2.5-5.3-1.5-.8-2.7-2-2.7-2.6 0-.7.5-.6 1.5.2 1.2 1 1.8 1 3 0 .8-.7 1.2-1.7.9-2.2-.6-1 2.9-4.8 4.4-4.8.5 0 2.6 1.1 4.6 2.5 3.7 2.5 4.9 1.9 1.9-1.1-3.3-3.2-2.3-5.5 1.5-3.5 1.9.9 9.7-2.1 8.5-3.3-.5-.4.4-.5 1.8-.1 1.7.4 3 .1 3.8-.9.7-.9 1.7-1.3 2.2-1 .5.3.9.1.9-.5 0-.5 1.4-1.2 3-1.6 1.7-.4 3-1.2 3-1.9 0-2.9 9.8-12.6 12.7-12.6.3 0 1.2-.8 1.9-1.8 1.3-1.6 1.3-1.6 1.4 0 0 1.9 2 2.6 2 .8 0-.6.8-1 1.8-1 1.5 0 1.8-.6 1.4-3.1-.4-2.7-.2-3 1.4-2.6 9.6 2.6 11.7 3.4 12.1 4.4.3.7.9 1.3 1.4 1.3.4 0 .6-.7.2-1.6-.5-1.4-.2-1.4 2.7.1 3.4 1.7 3.4 1.7 5.6-.9 1.6-1.8 3.3-2.6 5.6-2.6 4.2 0 6.3-1.3 5.2-3.1-.6-1-.2-1 1.6.2 2.8 1.8 3.9 6.9 1.5 6.9-.8 0-1.5.7-1.5 1.6 0 .8-.4 1.3-.9 1-1.2-.8-3.5 2.2-3.6 4.7-.1 1.2-.2 3.7-.3 5.5-.1 2.4-.8 3.5-2.1 3.9-1.1.3-1.7 1.1-1.5 1.8.3.8-.4 1.6-1.6 2-1.7.5-2 1.2-1.6 3.1.4 1.6.2 2.3-.6 2.2-1.8-.4-3.9 4.6-3.2 8 .4 1.8 1.5 3.4 3 4.1 3.5 1.6 6.5 1.4 5.8-.3-.4-1 .2-1.6 1.8-1.8 2-.3 2.3-.9 2.6-5.6.3-4.3.6-5.2 2.1-5.2 1 0 2.4-.7 3.1-1.5 1-1.2.9-1.6-.4-2.1-.9-.3-1.5-1.6-1.4-3 .3-3.2 1.4-3 3.3.6 1.4 2.6 2.1 3 6 3 4.9 0 6-1.5 5.6-8.2-.1-2.9.3-3.9 2.1-4.9 1.3-.7 2.6-1.6 2.9-2.2.4-.5 1.6-.4 3 .3 1.4.8 2.4.9 2.6.3.2-.5 1.6-.8 3.2-.5 2.6.3 2.8.1 2.6-2.7-.2-3.6.4-3.8 3.6-1.2 2.3 1.8 2.3 2 .6 3.8-2.2 2.5-2.2 3.3.1 3.3.9 0 2.3-.9 3-2 .7-1.1 1.8-2 2.6-2 2.5 0 4.6-3.7 5.1-8.6.2-3 .8-4.8 1.5-4.6 1.4.3 6.9-5.7 7.1-7.8.1-.8.2-3.5.4-6 .1-2.4.7-4.6 1.4-4.8.6-.2 1.1-2 1.1-4.1 0-2.4.7-4.2 2-5.4 1.1-.9 2.3-3.1 2.7-4.8.4-1.9 1.6-3.5 3.5-4.5l2.8-1.5-2.6-3.4c-2.5-3.4-2.6-3.5-.6-3.5 1.2 0 2.6-1 3.3-2.1 1-2 .9-2.1-1.4-1.7-2.1.4-2.6 0-3.1-2.4-.3-1.5-1.2-2.8-2-2.8s-2.6-1.1-3.9-2.4c-1.7-1.7-3.2-2.3-4.6-1.9-1.3.3-2.1.1-2.1-.6s-.5-.9-1-.6c-.6.4-1.7.2-2.4-.4-1.9-1.6-10.2-.2-12.2 2-.9 1.1-2.3 1.9-3 1.9-.7 0-1 .8-.7 2.1.6 2 .3 2.1-4.1 1.7-2.5-.3-4.6-.1-4.6.4 0 .4-1.8.8-4.1.8-2.4 0-3.8.4-3.4 1 .3.5-.3 1-1.4 1-1.3 0-2.1-.7-2.2-1.8 0-.9-.2-3.2-.5-5-.3-2.3 0-3.1.7-2.6 1.1.7 1.1-.3-.4-7.4-.2-.9-2.2-2.7-4.5-3.9-3.9-1.9-4.1-2.2-2.6-3.7 1.4-1.5 1.3-1.7-1.3-2.9-1.8-.8-2.7-1.8-2.5-2.9.4-1.9-4.1-5.3-5.8-4.3-.5.3-1-.1-1-.9 0-.9.7-1.6 1.6-1.6 1.3 0 1.4-.3.5-1.4-.7-.8-.9-2.5-.5-4 .5-2 .2-2.7-1.2-3.2-1.1-.4-2.7-1.4-3.6-2.2-1.4-1.2-2.1-1.2-3.2-.3-2.2 1.9-5.5.5-4.9-2 .6-2.2-3.1-6.9-5.5-6.9-1 0-1.2.8-.7 3 .6 2.6.4 2.9-1.2 2.4-1.6-.6-1.6-.5.2 1 1.4 1.2 1.6 1.9.8 2.2-.7.3-1.3 1.3-1.3 2.1 0 1.3-.8 1.4-4 .9-3.1-.5-4.2-.3-4.6.9-.4 1-1.4 1.3-3 .9-1.9-.5-2.3-.3-1.8.9.7 1.9-2 7.3-4.2 8.5-1.1.6-1.5 1.7-1.1 3.2.5 1.9.2 2.1-1.6 1.6-1.1-.3-2.7 0-3.4.6-.9.7-1.3.7-1.3 0 0-.6-1.7-1.6-3.7-2.2-2.8-.7-4.2-1.9-5.3-4.2-1.3-2.9-1.9-3.3-5-3-1.9.2-4.9.7-6.6 1.3-6.1 1.9-15.5-5-17.2-12.6-.5-2.5-1.4-3.9-2.2-3.7-.7.2-1.6-.2-2-.8-.9-1.5-7 1.5-7 3.4 0 .7-.6 1.9-1.4 2.5-1.1 1-1.6.8-2.1-.8-.7-2.3 3-8.1 5.2-8.1 2.1 0 1.5-2.7-1.2-5.6l-2.6-2.8 2.5-2c2.8-2.3 5.6-8.2 5.6-11.9 0-1.4.7-3 1.5-3.7.8-.6 1.4-1.9 1.3-2.8-.3-4.1.3-6 2.1-6.5 1.3-.3 2.2-1.7 2.6-4.1.4-2 1.1-3.9 1.6-4.1 1-.7-.8-6-2.7-7.6-1-.8-1.4-.8-1.4 0 0 .6-1.1 1.1-2.3 1.1-3.1 0-3.8.9-2.6 3.2.9 1.6.7 2-1 2.5-1.1.3-1.8.9-1.5 1.4.3.5-.2.6-1.1.2-1-.3-2 0-2.5.7-.6.9-1.3.9-2.8.1-3.2-1.7-8.2-1.4-8.2.5 0 .9-.6 1.4-1.2 1.2-1.5-.5-2.8.7-6.3 5.8-2.8 4.2-9.9 9.4-12.8 9.4-1.4 0-1.6.4-.7 1.9 1.6 3.2 1.3 3.4-4.7 2.6-3.2-.4-7-.8-8.5-.9-1.6 0-2.8-.4-2.8-.9 0-.4-1.3-.7-3-.7-1.6 0-3 .4-3 1 0 1.4-3.5 1.2-7.5-.4-2.1-.9-3.5-2.2-3.5-3.2 0-1.6-.1-1.6-1.4.2-1.4 1.8-1.5 1.8-2.1.1-1.1-2.6-4.2-2.1-6.2 1-2.1 3.3-5.6 6.9-8.2 8.3-1.4.7-1.7 1.6-1.3 3.2.5 2 .3 2.1-1.1 1-.9-.8-2.6-1.2-3.9-1-1.7.2-2.4 1-2.6 3.3-.3 2.9-.5 3-4.3 2.7-5.3-.5-7-3.4-3.1-5.2l2.7-1.3-2.7-.9c-1.8-.6-2.8-1.7-2.8-2.9 0-2.1 1-1.9 4.3 1 3.2 2.7 4.3 2.2 3.9-2-.4-3.6 1.1-5.5 2-2.7.3.9 1.8.2 4.2-2 2-1.7 4.3-3.2 5.1-3.2 1.1 0 1.5-1.2 1.6-4.3.1-6.1.6-7.9 2.3-8.9.9-.5 1.6-2.1 1.6-3.5 0-2.2.3-2.5 2.9-2.1 2.5.4 3.1 0 3.6-1.9.3-1.3.5-2.6.4-2.9 0-.4.4-1 1-1.4 1.9-1.1.2-3.8-1.9-3.3-1.4.4-2.2-.2-3-2.1-.5-1.4-1.4-2.6-2-2.6-.5 0-1-1.6-1-3.5 0-2.6-.7-4.3-2.6-6-3.4-3.2-4.4-7.2-2.6-10.9 1.1-2.2 1.2-3.3.4-4.7-.9-1.3-.8-2 .4-3 .8-.7 1.2-2 .8-3.1-.5-1.7-.2-1.9 1.5-1.3 1.7.5 2.3.1 3.2-2.2 1.2-3.2 1.5-11.9.4-15.1-.6-2.1-.4-2.2 1.9-1.6 2.1.5 2.5.3 2-1-.7-1.8-.3-1.9 4.8-.7 2.6.6 3.9.5 4.3-.3.3-.8.7-.7 1.1.1.3.7 1 1.3 1.5 1.3.9 0 .2-4.4-1-6.5-1.2-2.1-1-4.5.2-4.5 1.4 0 3.7-4 3.7-6.5 0-.8.5-1.5 1.1-1.5.6 0 .8-.9.4-2-.7-2.2 1.4-9 2.7-9 .5 0 1.6.5 2.6 1.1 1.4.9 2.6.8 5-.5 3-1.5 3.2-2 2.6-5.1-.4-2.3-.2-3.5.5-3.6.6-.1 1.7-.2 2.4-.3.6-.1 1.1-1.1 1.1-2.3-.1-1.3.3-2 .9-1.6.5.3.7 0 .5-.8-.3-.8.4-2.2 1.5-3.2 1.9-1.6 1.3-2.3-1.5-1.8-1.4.2-3.6-4.4-4.3-8.9l-.7-4.5-3.9.3c-3.1.3-4.6-.1-6.4-1.8-1.4-1.3-2.2-2.7-1.8-3.3.3-.6.1-.7-.5-.3-.5.3-1.2.3-1.4-.1-.5-1.1-6.7-4.3-8.4-4.3-1.8 0-4-5.3-2.5-5.8.6-.2.8-2.1.5-4.8-.3-2.4 0-5.2.5-6.3.8-1.4.6-2.5-.9-4.4-1.1-1.4-2-3.5-2-4.6 0-1.2-.7-3.2-1.5-4.5-1.4-2.1-1.4-2.4-.1-2.9 2-.8 2.4-5.8.7-7.9-1.8-2.1-2.3-4.8-1-4.8.6 0 .7-.5.4-1.1-1-1.4 1.4-6.6 3.3-7.4.8-.3 2-.1 2.6.5 1.4 1.4 2.9 1.3 2-.2-.4-.6 0-1.6.9-2.2 1.3-1.1 2.1-5 1.8-9.8-.1-.9-.7-2.3-1.5-3.1-.8-.8-1.6-2-1.7-2.8-.4-1.7 3.9-14.7 5-15.4.5-.2.6-1.6.3-3-.3-2 0-2.5 1.7-2.5 1.4 0 1.9-.5 1.5-1.5-.8-1.9 3.1-5.5 5.9-5.5 1.6 0 1.7-.3.7-1.5s-.7-1.7 1.4-2.6c1.4-.7 2.6-1.8 2.6-2.4 0-.7.7-1.8 1.5-2.5 2.3-1.9 1.7-10.1-.7-10.8-1-.2-1.8-1-1.8-1.6 0-1.9-4.1-5.3-7.2-6-2.6-.6-3.9.6-1.9 1.8 1.1.7 2.1 5.6 1 5.6-.4 0-1.1-.5-1.4-1-1.1-1.8-2.5-1.1-2.5 1.2 0 1.9-.2 2-1 .8-.8-1.3-1.4-1.3-5.3.1-3.6 1.3-4.5 1.3-5.6.2-.7-.7-1.6-1.1-2.1-.8-1.6 1-2.1-4.5-.6-6.8.8-1.2 1.5-2.4 1.5-2.7 0-.3.3-1.3.6-2.3 1.2-3-1.2-4.8-5.6-4.1-2.6.5-4.4.2-5.6-.7-.9-.8-1.4-.9-1-.3 1 1.7-1.2 8.4-2.8 8.4-.8 0-1.5.4-1.5 1 0 .5-2.1.7-5 .3-4-.5-5.1-.3-5.6 1.1-.3.9-1.1 1.3-1.6 1-.6-.4-2 .5-3.3 2-1.2 1.4-2.5 2.3-2.9 1.9-.3-.3-.6.1-.6 1 0 2.5-4.1 2.2-4.7-.3-.3-1.2-1.4-2-2.7-2-1.2 0-3.1-.6-4.1-1.4-1.1-.8-2.4-1.2-3-1-.5.2-1.8-.9-2.7-2.6-1.8-3.2-4.3-3.2-5.3 0-.6 2-3.5 3.6-3.5 2 0-2.1-3-.9-5.2 2-1.8 2.5-2.7 3-5 2.5-2-.5-3.6 0-6.1 1.9-1.9 1.4-4.6 2.6-6 2.6-1.7 0-2.7.5-2.7 1.5 0 .8-1 1.6-2.2 1.7-1.3 0-2.9.2-3.6.2-.7.1-2.4 1.2-3.8 2.5-2.6 2.5-4.6 2.2-2.4-.4 1.6-1.9 2-5.6 1.3-10.3-.4-2.7-1-3.2-3.2-3.2-5 0-7.1-5.8-5.9-16 .2-1.7-.2-2.5-1.2-2.5-.8 0-1.9-.5-2.3-1-.5-.6-.6.4-.3 2.2.5 3.1.5 3.1-3.2 2.9-2.8-.2-3.7-.7-3.6-1.9.2-2-.7-2.2-2.3-.6-1.5 1.5-3.4.3-2.6-1.6.3-.9-.1-1.5-1-1.5s-3.1-1.9-4.9-4.2c-1.8-2.4-6-6.9-9.3-10.2-3.2-3.2-6-6.5-6.1-7.4-.2-.8-.8-2-1.4-2.6-.8-.8-1-.7-.5.6zm-107.5 65.3c0 .8-.7 1.5-1.5 1.5s-1.5-.7-1.5-1.5.7-1.5 1.5-1.5 1.5.7 1.5 1.5zm3.7-.9c-.3.3-1.2.4-1.9.1-.8-.3-.5-.6.6-.6 1.1-.1 1.7.2 1.3.5zm-10.7 3.4c0 .5-.4 1-.9 1-.6 0-1.3-.5-1.6-1-.3-.6.1-1 .9-1 .9 0 1.6.4 1.6 1zm8 4c0 .7-1.3.7-3.8.1-.2-.1-.1-.5.3-1.1.6-1 3.5-.2 3.5 1zm153 34c0 .5-.5 1-1.1 1-.5 0-.7-.5-.4-1 .3-.6.8-1 1.1-1 .2 0 .4.4.4 1zm26.7 26.6c.2.7-.7 1-2.4.8-1.5-.2-2-.1-1 .2.9.3 1.7 1.4 1.7 2.5s.5 2.9 1 4c1.5 2.7-1.1 2.6-2.8-.1-1.7-2.8-5.8-4.3-8.2-3-1.4.7-2.3.6-3.6-.8-1.7-1.6-1.7-1.6-1.1 0 .3 1 .3 2-.2 2.2-1.1.7-3.5-4-2.7-5.3.7-1.1 3.7-.3 4.8 1.3.5.7.8.4.8-.6 0-1.2.8-1.6 3.2-1.6 1.8.1 3.3-.3 3.5-.9.5-1.3 6.5-.1 7 1.3zm32 29c-.3.3-1.2.4-1.9.1-.8-.3-.5-.6.6-.6 1.1-.1 1.7.2 1.3.5zm-4.2 1.4c.3.5.1 1-.4 1-.6 0-1.1-.5-1.1-1 0-.6.2-1 .4-1 .3 0 .8.4 1.1 1zm-20.5 27c0 .5-.2 1-.4 1-.3 0-.8-.5-1.1-1-.3-.6-.1-1 .4-1 .6 0 1.1.4 1.1 1zm19 .9c0 .5-.6 1.4-1.4 2-1 .9-1.6.8-2.5-.3-1-1.1-.8-1.5.6-1.9 2.9-.8 3.3-.7 3.3.2zm-38.5 3.2c.1 1.7.6 2.4 2 2.2 1.1-.1 2.8.3 4 .9 1.1.6 4.4 1.3 7.2 1.4 4.9.3 5.3.1 5.4-1.9 0-1.2.3-1.6.6-1 .2.7 1.1 1.3 1.9 1.3.8 0 1.4.6 1.4 1.4 0 .8.4 1.7.9 2 1 .7.9-2-.2-3-1.6-1.7-.7-3.5 1.5-2.9 1.5.5 2.6.1 3.7-1.4 1.4-1.9 1.9-2 3.5-.8 2.5 1.8 1.3 6.1-1.5 5.4-1.5-.4-1.9 0-1.9 1.9 0 1.8-.6 2.4-2.1 2.4-1.6 0-1.9.4-1.4 2 1.1 3.3-1 4.9-5.8 4.3-2.3-.3-4.8-1.2-5.4-2.1-.7-.9-1.3-1.1-1.3-.5 0 1.4-7 2.3-9.3 1.1-1-.5-1.5-1.4-1.1-1.9.9-1.4-.5-6.1-1.6-5.4-1 .6-3.2-2.9-2.3-3.8.3-.4.1-1.3-.5-2-1.3-1.5-.5-3 1.2-2.4.6.2 1.1 1.5 1.1 2.8zm140.5 159.9c0 .5-.4 1-1 1-.5 0-1-.5-1-1 0-.6.5-1 1-1 .6 0 1 .4 1 1zm-35.5 1.8c-.3.3-1.1 0-1.8-.7-.9-1-.8-1.1.6-.5 1 .3 1.5.9 1.2 1.2zm-9.9 19.1c-.9.8-1.8 1.2-2.2.9-.9-1 .3-2.5 2.1-2.5 1.4 0 1.4.2.1 1.6zm84.6 3.5c-.2.9.2 1.6.7 1.6 1.5 0 0 3.2-2.3 5.2-1.5 1.2-2.3 1.3-2.8.5-.4-.7-.1-1.7.7-2.3.9-.7 1.7-2.6 1.8-4.3.1-1.7.7-2.9 1.2-2.7.6.1.9 1 .7 2zm-85.2 2.6c0 .5-.5 1-1.1 1-.5 0-.7-.5-.4-1 .3-.6.8-1 1.1-1 .2 0 .4.4.4 1zm24.5 0c.3.5.1 1-.4 1-.6 0-1.1-.5-1.1-1 0-.6.2-1 .4-1 .3 0 .8.4 1.1 1zm37.9-.4c.9.3 1.6 1.1 1.6 1.6 0 .6-.6.8-1.4.5-.9-.4-1.6.3-2 1.6-.6 2-.7 2.1-1.7.5-.7-1.3-.6-2.2.3-3.3 1.6-1.7 1.3-1.6 3.2-.9zm-71.4 4.5c0 .5-.7.9-1.5.9s-1.5-.7-1.5-1.5c0-.9.6-1.2 1.5-.9.8.4 1.5 1 1.5 1.5zm38-1.1c0 .5-.4 1-1 1-.5 0-1-.5-1-1 0-.6.5-1 1-1 .6 0 1 .4 1 1zm-40.4 10.9c-.5.8.9 9 1.9 11.5.7 1.7.5 1.8-1.8 1.2-2.6-.6-2.6-.6-2.1 4.1.5 3.8.2 5.2-1.3 6.8-2 2.2-2.8 7.1-1.3 8 .6.3 1 1.7 1 3 0 2.2-.3 2.4-2.5 1.5-1.7-.7-2.5-.6-2.5.1 0 .8-.4.8-1.4 0-2.5-2.1-5.6 2-5.6 7.4v4.6l-2.6-2.5c-2.3-2.1-3-2.3-5.2-1.3-2.2 1-2.7.8-4.8-1.8-1.3-1.7-2.4-3.5-2.4-4.1 0-.7-.7-1.5-1.6-1.8-1.3-.5-1.5-1.5-1-4.5.3-2.1.3-4.1-.1-4.5-1.4-1.4-1.1-3.7.8-4.9 1.1-.7 1.9-2.3 1.9-4 0-2.7.1-2.8 3.8-2.1 4.7.9 8.2.9 10.6-.1 1.5-.7 1.7-.5 1.1.6-.5.8.1.5 1.3-.5 2.4-2.1 2.5-4.5.3-6.2-1.2-.9-1.1-1.2.4-1.8 2.3-.8 5.2 1.3 3.3 2.6-1 .6-1 1 .1 1.7 2 1.3 6.2-3.6 6-6.9-.3-4.1 1.1-7.9 2.7-7.3.8.3 1.2.8 1 1.2zm-6.4 4.4c.4.6.5 1.4.2 1.8-.7 1.3-5.8.3-6.3-1.2-.2-.8-.9-1.8-1.5-2.2-.6-.5.7-.5 2.9-.2 2.2.4 4.3 1.2 4.7 1.8zm5.8 25.7c0 .5-.4 1-1 1-.5 0-1-.5-1-1 0-.6.5-1 1-1 .6 0 1 .4 1 1zm1 21.9c-.1 2.5-.1 2.5-1.5.7-.8-1.1-1.5-2.9-1.5-3.9 0-1.6.3-1.7 1.5-.7.8.7 1.5 2.4 1.5 3.9zm-16 .1c0 .5-.9 1-2.1 1-1.1 0-1.7-.5-1.4-1 .3-.6 1.3-1 2.1-1s1.4.4 1.4 1zm5.4 28.5c.3.9 0 1.2-.9.9-.7-.3-1.6-1.2-1.9-1.9-.3-.9 0-1.2.9-.9.7.3 1.6 1.2 1.9 1.9zm-38.9 3.3c.5 1.3 1.6 2 2.3 1.7.8-.3 2.3.1 3.4.9 2 1.4 2 1.5-1.3 2.4-4.2 1.1-5.9.6-5.9-1.8 0-1.1-.4-2.2-1-2.5-1.4-.9-1.2-3.7.3-3.3.6.3 1.6 1.4 2.2 2.6zm37.4-1.2c.1.1 0 .7-.4 1.3-.7 1.3-4.5-.4-4.5-2 0-.9 3.7-.4 4.9.7zm-21 10.4c1.7 2.8 3.1 5.3 3.1 5.7 0 .4 1 1.7 2.2 3 2.2 2.3 5.8 3.1 5.8 1.3 0-.6.9-1 2-1s2 .7 2 1.5.5 1.5 1 1.5c.6 0 .5 1.1-.4 2.7-.7 1.6-1.7 5.1-2 7.8l-.7 5.1-4-.1c-2.1 0-3.9.3-3.9.8 0 .4-.4.5-1 .2-.5-.3-1-1.7-1-3 0-3.8-3.7-6.5-8.7-6.5-4 0-4.3-.2-4.3-2.8 0-1.5-.5-3.3-1.1-3.9-1.5-1.5-.1-9.3 1.7-10 .8-.3 1.4-1.1 1.4-1.8s.7-1.5 1.5-1.9c.8-.3 1.5-1.2 1.5-2.1 0-2.8 1.8-1.5 4.9 3.5zm99.1 20.2c0 1.1-1.4 1-4.6-.2-2.6-1-2.6-1.1-.8-3.1l1.8-2 1.8 2.3c1 1.3 1.8 2.6 1.8 3zm-29 1.9c0 .6-.4.7-1 .4-.5-.3-1-1.1-1-1.6 0-.6.5-.7 1-.4.6.3 1 1.1 1 1.6zm-48.7 7.5c1.1 1.8 3.1 1.8 4.7-.1 1-1.2 1.5-1.3 2.8-.3 1.2 1 1.6 1.1 1.9 0 .3-.6.9-1 1.4-.6.5.3.9 0 .9-.7s.8-.5 2 .6c1.7 1.5 2.4 1.6 4.5.7 2.2-1 2.5-.9 2.5.8 0 1.1.9 2.9 2 4 2 2 2.7 3.6 1.2 2.6-.5-.3-1.8.8-3 2.3-1.6 2.2-1.8 3.1-.9 4.1.9 1 .9 1.1 0 .6-.7-.4-1.3-.2-1.3.3 0 .6.5 1.1 1 1.1.6 0 1 .4 1 1 0 .5-1.1 1-2.5 1s-2.5.4-2.5 1c0 1.6-3.7 1.2-4.4-.5-.3-.8-1-1.5-1.5-1.5-1.7 0-.6 2.4 2.7 5.9 2.6 2.7 4 3.3 7.1 3.3 3.4-.1 4 .3 4.6 2.5.4 1.9.2 2.9-.9 3.5-.9.5-1.6 1.6-1.6 2.3 0 1.6-5.5 2.1-6.4.6-.3-.5-1.5-1.1-2.6-1.4-1.1-.3-1.8-.2-1.6.1.2.4-1.3.8-3.3.8-3.4.2-4-.2-6.2-4l-2.5-4.1 1.9-4 2-4-2.7-4.8c-1.4-2.6-2.6-5.3-2.6-6 0-.7-.8-1.7-1.9-2.4-1-.6-2.1-2.6-2.3-4.3-.5-3-.4-3.1 2.6-2.4 1.7.3 3.5 1.3 3.9 2zm46.2 14.5c-.4.5-2.4 1.8-4.6 2.8-3.7 1.8-3.9 1.8-3.9.1 0-2.2 1.8-3.7 5-4.2 3-.5 4.2 0 3.5 1.3z"/><path d="M246.896 512.196c-1.5.4-3.2 4.7-2.2 5.7.9.8 4.4-.7 5.3-2.4 1.1-2.1-.6-3.9-3.1-3.3zM268.696 526.896c.4 2.1.8 2.2 2.8 1.2 1.7-.8 2.1-1.4 1.3-2.3-.6-.7-1.8-1.3-2.8-1.3-1.3 0-1.6.6-1.3 2.4zM273.096 530.396c-1 .6-1 1-.1 1.6 1.3.8 2.4.1 1.9-1.4-.3-.6-1-.7-1.8-.2zM265.196 533.096c.8.9 2.3 1.4 3.3 1.2 1.2-.2.7-.7-1.6-1.5-3-1.2-3.2-1.1-1.7.3zM270.196 534.496c-1.4 2.3-.8 4 1.3 4 1.6 0 2.6-2.5 1.9-4.5-.8-2-1.7-1.9-3.2.5zM74.596 11.196c-.4.4-1.9.9-3.4 1.1-4.1.5-4.7 1.9-1.1 2.6 2.1.4 3.5.2 4-.6.6-.9 1.3-.7 2.8.6 2.2 2 2.5 1.6 1.5-2.2-.6-2.2-2.4-2.9-3.8-1.5zM79.996 12.696c0 .9.5 2 1 2.3 1.3.8 1.3-.5 0-2.5-.8-1.3-1-1.3-1 .2zM84.796 13.596c-1 1-1.4 2.1-.9 2.3.5.3 1.6-.3 2.5-1.3 2.2-2.4.7-3.4-1.6-1zM.696 82.196c-1.1 1-.8 5.3.4 5.3.6 0 1.7.7 2.5 1.5 2.4 2.3 5 .3 5.2-3.9.1-3.5.1-3.6-3.7-3.6-2.1 0-4.1.3-4.4.7zm3.3 3.3c0 .5-.5 1-1.1 1-.5 0-.7-.5-.4-1 .3-.6.8-1 1.1-1 .2 0 .4.4.4 1zM10.996 85.296c.1 2 1.6 2.9 2.7 1.7.9-1 .8-1.4-.8-1.8-1-.3-1.9-.2-1.9.1zM10.996 90.996c.7.8 1.7 1.5 2.2 1.5.6 0 .5-.7-.2-1.5s-1.7-1.5-2.2-1.5c-.6 0-.5.7.2 1.5zM4.996 94.396c0 .5.9 1.9 2 3.2l1.9 2.4-1.2-3.3c-1-3-2.7-4.4-2.7-2.3zM315.796 131.296c-2.1.4-2.1.7-.8 3.2.8 1.4.4 3-1.5 6.6-2.3 4.4-2.4 4.9-1 7.1 1.2 1.8 1.3 2.7.3 4.2-1 1.6-.9 2.7.5 5.5 1.5 3.3 1.5 3.6.1 3.6-1 0-1.4.6-1.1 1.4 1.2 3 5.8 9.6 6.7 9.6 1.5 0 3.6 5.3 3.2 8.3-.2 1.5-1.4 3.4-2.8 4.4-1.6 1-2.3 2.2-1.9 3.3.3 1 .1 2.1-.5 2.5-.6.4-.8 1.5-.5 2.5.4 1.3 0 2-1.5 2.5-1.1.4-3.2 2.4-4.5 4.5-1.3 2.1-3.2 4.3-4.2 4.9-1.5.8-1.5 1-.2 1.1.8 0 2-.5 2.7-1.2 1.5-1.5 2.6-.4 1.8 1.8-.5 1.2-1.6 1.5-4.6 1.2-2.8-.2-3.9 0-3.6.8.2.6 0 1.6-.4 2-1.3 1.3-.1 5.4 1.3 4.8 2.1-.7 4 1.3 3.2 3.2-1.1 2.8-1.3 7.7-.3 9.7.6 1.2 1.6 1.5 3.3 1.1 3.4-.8 8.7 1.2 11.7 4.4 1.4 1.5 4.1 5.4 6 8.7 2.2 4 3.8 6 4.9 5.7.9-.1 2 .8 2.7 2.3.6 1.4 1.6 2.5 2.2 2.5.5 0 1 .7 1 1.5s-.4 1.5-1 1.5c-1.7 0 .1 2.8 2.2 3.3 1.5.4 1.9 1.1 1.5 2.7-.4 1.7.4 2.5 4.5 4.6 4.3 2.2 4.9 2.8 4.4 4.9-.4 1.7 0 2.7 2 4 1.9 1.2 2.3 2 1.5 2.8-1.7 1.7-1.3 4.5 1 6.8 1.3 1.3 1.8 2.7 1.4 4-.6 1.8-.4 2 1.4 1.4 1.6-.5 3.1.2 6.1 2.9 4 3.6 11.2 6.4 11.8 4.6.7-2 2.3-.9 1.7 1.1-.6 1.8-.4 2 1.3 1.5 1.4-.5 2.6.1 4 1.9 2.3 2.8 5.2 3.3 5.2.8 0-1.5.1-1.5 1.8 0 1 1 3 1.7 4.3 1.7 2.3 0 2.4-.3 2.1-4.5-.4-4.9-1.1-4.5 7.3-5 1.5 0 1.9-.6 1.7-2.3-.2-1.2.3-2.5 1.1-2.8.9-.3 1.2-1.4.9-3.1-.3-1.8-.1-2.4.6-1.9.6.4 2.8.9 4.7 1.1 3.1.4 3.5.3 2.7-1.2-.7-1.1-.5-3 .4-5.6 1-2.7 1.1-4.4.4-5.7-1.3-2.4-1.3-3.3.1-2.4.8.4.7 0 0-1.5-1-1.7-.9-2.5.4-3.7.8-.8 1.5-2 1.5-2.5s.9-1.9 2-3.1c2.7-3 2.7-5.5 0-3-2.5 2.3-6.7 1.8-7.5-.9-.9-2.6-5.6-6.9-7.6-6.9-2.1 0-6.1-3.9-5.3-5.2.4-.6-.4-1.9-1.7-3-2.2-1.8-2.2-1.9-.3-1.3 1.3.3 2.6-.1 3.4-1 .7-.8 2-1.3 2.9-1 1.4.4 1.6-.2 1.3-3.7-.4-3.3-.2-4 1.1-3.5.9.3 1.8-.3 2.5-1.8 1-2.3 1-2.3-1.6-.9-4 2.1-5.2 1.7-5.2-1.5 0-1.7-.5-3.3-1-3.6-.7-.4-.7-1.3 0-2.6.9-1.6.7-2.1-1.4-3-1.9-.9-2.7-2.2-3.1-5.3-.5-3.3-1.4-4.6-4.1-6.4-1.9-1.2-3.2-2.7-2.9-3.2.3-.6.1-1-.5-1s-.9-.4-.6-.9c.4-.5.2-2.1-.4-3.5-.6-1.6-.6-2.6 0-2.6.5 0-.1-1.1-1.4-2.5-2.1-2.3-2.6-3.5-2.7-7.8 0-.9-.7-1.7-1.5-1.7s-1.7-.7-2.1-1.6c-.3-.9-1.2-1.3-2.1-.9-.8.3-1.8.2-2.1-.3-.3-.5-2.7-1.9-5.3-3-4.4-1.9-4.8-2-5.7-.4-.9 1.5-1.3 1.4-4-1.2-3.6-3.4-3.8-4.3-1.3-4.9 1.4-.4 1.4-.6-.5-1.2-2-.6-3.7-3.1-3-4.6.1-.3-1-2-2.6-3.8-2.6-3.1-4.1-6.7-3.6-8.7.1-.5-.1-1.7-.6-2.7-.4-1.1-.3-2.3.4-3 .9-.9 1.3-.6 1.7 1 .3 1.2 1.3 2.4 2.1 2.8 1.3.4 1.3.3.4-.9-.6-.7-.8-2.1-.5-3 .4-1.2-.1-2.3-1.6-3.3-2.1-1.5-2.2-1.7-.6-2.9s1.6-1.3-.3-2.4c-1.2-.6-2.6-.8-3.2-.4-.6.4-2.7 1-4.5 1.4-2.6.6-3.4.5-3.4-.6 0-1.6-1.7-1.9-2.2-.3-.2.7-1.2.7-2.9.1-1.4-.6-3.2-.6-4-.2-1.4.8-6.4-2.2-5.3-3.2.5-.6-3.2-3.1-5.6-3.9-.8-.3-2.3-.4-3.2-.1zm61.6 147.8c.9.3 1.6 1.3 1.6 2.2 0 .8-.3 1.2-.7.9-.3-.4-1.2-.2-1.8.3-.9.8-1.4.4-1.7-1.5-.5-2.6-.1-2.9 2.6-1.9zM162.996 156.296c0 1 6.6 3.2 7.4 2.4.3-.3.6-1.2.6-2.1 0-1-.3-1.2-.8-.6-.8 1.2-4.3 1.2-6.1.1-.6-.4-1.1-.3-1.1.2zM162.596 161.196c-.4.9-.5 1.7-.4 1.8.4.4 6.9.8 9.3.6 1.8-.1 1.7-.3-.6-1.5-4.6-2.4-7.6-2.7-8.3-.9zM281.996 291.896c0 .9.5 1.6 1 1.6.6 0 1-.4 1-.9 0-.6-.4-1.3-1-1.6-.5-.3-1 .1-1 .9zM351.996 292.496c0 .5.5 1 1.1 1 .5 0 .7-.5.4-1-.3-.6-.8-1-1.1-1-.2 0-.4.4-.4 1zM279.496 294.496c-.3.5-.1 1 .4 1 .6 0 1.1-.5 1.1-1 0-.6-.2-1-.4-1-.3 0-.8.4-1.1 1zM350.996 299.896c0 .8.5 1.8 1 2.1.6.3 1-.1 1-.9s-.4-1.8-1-2.1c-.5-.3-1 .1-1 .9zM276.596 300.396c-.3.5.3 1.1 1.3 1.4 1.4.3 1.8.1 1.4-.9-.6-1.6-1.9-1.8-2.7-.5zM180.696 349.196c-.4.3-2.7.5-5.2.5-4.3-.2-4.9.1-8.7 4.3-2.6 2.8-4.7 4.3-5.7 4-1.6-.5-4.1 3.3-4.1 6.2 0 .7-.9 1.3-2 1.3-1.5 0-2 .7-2 2.7 0 1.6-.3 3.8-.6 5-.5 1.6-.2 2.3.9 2.3 2.2 0 3.9 2.4 2.6 3.7-.8.8-.5 1.4.9 2.2 1.6.9 2.4.7 3.6-.5.9-.8 1.6-1.9 1.6-2.4s.6-.7 1.4-.4c2 .8 2.7 5.6 1 6.9-2.1 1.5-.7 7.1 2.2 9 2.7 1.7 3.1 3.7 1.1 5.4-.8.6-1.2 2.3-.9 4.1.3 2.3 0 3-1.2 3-.9 0-1.6.4-1.6 1 0 .5-1.1 1-2.5 1s-2.5.4-2.5 1c0 .5.8 1 1.9 1 1.3 0 2 1 2.5 3.1.4 2.2 1 3 2.1 2.5.9-.3 2 .4 2.7 1.7 1.4 2.3 1.5 2.9 1.7 6.4 0 1.3.7 2.3 1.4 2.3 1.8 0 7.7 9.6 7.7 12.6 0 5.3 6.7 12.2 10.4 10.8 1.8-.7 7.6 4.9 7.6 7.3 0 .8.5 1.1 1 .8 1.2-.7 1.2-.5 1.4 5.8.1 2.8.7 5.2 1.5 5.7s1.1 1.5.7 2.5c-.8 2.1 1.9 5.5 4.4 5.5.9 0 2.1-1.4 2.9-3.5 1.1-3.2 1-3.8-.8-6.1-1.2-1.5-2.1-3.5-2.1-4.5 0-1.1-.4-1.9-.9-1.9s-1.2-.8-1.6-1.8c-.3-1.1-1.7-2.4-3-3-1.5-.7-3.6-3.4-5.1-6.5-1.8-3.6-3.8-6-6-7.2-5.1-2.8-4-7.3 1.4-5.8 2 .5 7.2-2.2 7.2-3.8 0-1.3-4.2-4.9-5.2-4.3-.4.3-.8-.6-.8-2 0-1.3.5-2.6 1.1-2.8.6-.2.1-1.5-1.1-3.1-1.8-2.2-2.9-2.7-6.5-2.7-3.5 0-5.2-.6-8-3.1-2-1.8-4.8-3.2-6.3-3.3-1.7-.1-2.8-.7-3-1.9-.3-1.5 0-1.6 2.4-.7 1.5.6 2.8.9 3 .7.2-.1-.5-3.5-1.5-7.4-1.5-5.8-1.6-7.3-.5-7.7 1-.4 1.1-1.3.3-3.8-1.3-4.7-1.1-6.8.6-6.8.8 0 1.5-.7 1.5-1.5 0-2.2 3-7.8 4.9-9.2 1.8-1.3 2.3-1 4.6 3.2 1.6 3 1.7 2.9 1-4-.4-3.9-.9-9.5-1.1-12.5-.7-10.5-1.3-12.8-2.7-11.3zM509.496 410.496c.3.5.8 1 1.1 1 .2 0 .4-.5.4-1 0-.6-.5-1-1.1-1-.5 0-.7.4-.4 1zM510.696 427.796c-1.9 2.9-2.3 5.7-.8 5.7 1.7 0 8.1-4.2 8.1-5.2 0-.6-1.1-.8-2.5-.6-1.6.4-2.5 0-2.7-1-.2-1.2-.8-.9-2.1 1.1zM359.996 502.596c0 2.8 3.1 6 5.1 5.4 1.1-.4 3 .2 4.7 1.3 4 2.8 6.2 3.4 6.2 1.7 0-.8.9-1.5 2-1.5 1.3 0 1.8-.5 1.4-1.5-.4-.8-1-1.3-1.4-1-1.4.8-14.3-2.6-16.2-4.3-1.5-1.3-1.8-1.3-1.8-.1zM394.396 502.396c.4.5-.2 1.9-1.2 2.9-1.7 1.7-2.4 1.8-6.5.8-2.5-.6-4.9-1.5-5.3-1.9-1.2-1.1-2.4-.8-2.4.7 0 2.4 2.8 4 4.5 2.6 1.1-.9 2-.7 4.6 1.1 1.7 1.2 4.5 2.5 6.3 2.8 2.1.5 3.1 1.3 3.2 2.6.2 4.4.4 4.6 2.8 2 1.9-2 2.4-3.5 2.2-6.5-.2-2.2.1-3.7.5-3.4.5.3.9.1.9-.5 0-1.3-2.6-2.7-6.9-3.6-2.3-.5-3.1-.4-2.7.4zM414.996 504.196c0 1.3 2.9 3.8 3.5 3.1.3-.3-.4-1.3-1.5-2.3-1.1-1-2-1.3-2-.8zM136.996 505.096c0 .3.8 1.7 1.8 3.1.9 1.6 1.1 2.4.4 1.9-1.5-.9-5.1 3-5.2 5.6 0 .9-1.2 2.5-2.7 3.6-2.6 1.9-2.6 1.9-6.1-.4-4.1-2.9-5-3-4.8-.7.1 1.2-.9 1.9-2.9 2.3-1.6.3-2.9.9-2.7 1.3.1.4.2 1 .2 1.4 0 .5 4.7.8 10.3.8 7.7 0 10.8-.4 12.2-1.5 1.5-1.3 1.9-1.2 3.6.9 1.8 2.2 2.4 4.4 1.9 6.6-1.3 5.3-.1 7.7 2.7 5.4 1.3-1.1 1.7-1.1 2.7.3.9 1.2 1.7 1.3 2.9.7 1.3-.8 1.7-.6 1.7.6 0 .9-.4 2.4-.9 3.3-.4.9-1.1 3.7-1.4 6.1l-.6 4.4 2.4-2.5c1.3-1.4 2.9-2.8 3.4-2.9 1.4-.5 1.6-4.2.6-9.7-.4-2.4-.4-4.2.1-4.2s2.6 1.4 4.7 3.1c2 1.7 3.5 2.4 3.2 1.7-.4-.9.4-1.3 2.5-1.4 6.2-.2 16-6.2 16-9.9 0-.8.5-1.5 1-1.5.6 0 .5-1.4-.4-3.4-1-2.4-1.1-3.7-.3-4.5 2-2-.4-2.6-9.4-2.6-6.4 0-8.9.3-8.9 1.2 0 1.6-1 1.6-4.7.2-2.3-.8-3-.7-4 .8-1.6 2-9.3 2.6-9.3.7 0-.7-.3-2-.7-3-.5-1.3-.3-1.5.7-.9.7.4.2-.6-1.1-2.4-1.2-1.7-2.3-3.1-2.3-3.1-.1 0-1.6-.4-3.4-.9-1.7-.5-3.2-.8-3.2-.5zM106.196 513.796c-.9 1.1-1 1.7-.2 2.2 1.5.9 2.3.1 1.8-2.1-.3-1.5-.4-1.6-1.6-.1zM405.696 515.696c1.7 1.6 2.6 1.9 3.4 1.1 1.2-1.2-.3-2.5-3.6-3.1-1.9-.2-1.9-.2.2 2zM384.396 518.996c.4 1.1-.2 1.5-2.4 1.5-2.6 0-2.9.3-2.5 2.9.3 2.4 0 2.9-1.3 2.4-1.6-.6-1.6-.5-.1 1.3 1.1 1.2 1.4 2.6 1 3.8-.5 1.4-1 1.6-1.5.8-.4-.7-1.2-1-1.7-.7-.5.4-.9.2-.9-.2 0-.5-1.3-1.7-3-2.6-2.9-1.8-3-1.8-5.3.6-1.3 1.3-2.6 3-2.9 3.8-.4 1.1-.9 1.2-2.6.2-2.1-1.3-3.2-.8-3.2 1.4 0 .8.4 1.1 1 .8 1.7-1.1 8.5 6.4 8.5 9.3 0 2.3.4 2.7 2.6 2.4 3-.4 4.2 1.6 3.3 5.4-.4 1.4-.2 2.4.4 2.4 2.4 0 4.2-1.3 4.2-3.1 0-2.1 3.4-2.7 4.5-.9.8 1.4 4.6.2 6.1-1.9.7-.8 1.1-2.5.9-3.7-.1-1.6.2-2 1.7-1.6 1 .2 1.8.8 1.8 1.3s.9.9 2 .9c2.6 0 2.5-2.4-.2-5-1.2-1.1-1.7-2-1.1-2 .6 0 1.3-1 1.7-2.3.3-1.3 1.7-2.9 3.1-3.5 1.4-.6 2.5-1.8 2.5-2.7 0-.8.4-1.5.9-1.5.6 0-.2-1.3-1.7-2.9-1.7-1.8-4.4-3.4-7-4-2.4-.5-5.1-1.6-6.1-2.5-2.2-2-3.5-2.1-2.7-.1zM399.996 518.996c0 .8.7 1.5 1.6 1.5 1.4 0 1.4-.3.4-1.5-.7-.8-1.4-1.5-1.6-1.5-.2 0-.4.7-.4 1.5zM103.996 520.496c0 .5.7 1 1.6 1 .8 0 1.2-.5.9-1-.3-.6-1-1-1.6-1-.5 0-.9.4-.9 1zM91.996 526.496c0 .5.9 1 2.1 1 1.1 0 1.7-.5 1.4-1-.3-.6-1.3-1-2.1-1s-1.4.4-1.4 1zM398.996 546.496c0 1.5 3.1 6 4.1 6 .4 0-.1-1.6-1.2-3.5-2.2-3.6-2.9-4.2-2.9-2.5zM302.996 570.496c0 .5.7 1 1.6 1 .8 0 1.2-.5.9-1-.3-.6-1-1-1.6-1-.5 0-.9.4-.9 1z"/></g></svg>