<?xml version="1.0" standalone="no"?>
<!DOCTYPE svg PUBLIC "-//W3C//DTD SVG 20010904//EN"
 "http://www.w3.org/TR/2001/REC-SVG-20010904/DTD/svg10.dtd">
<svg version="1.0" xmlns="http://www.w3.org/2000/svg"
 width="683.310010pt" height="252.000000pt" viewBox="0 0 683.310010 252.000000"
 preserveAspectRatio="xMidYMid meet">
<metadata>
Created by potrace 1.15, written by Peter Selinger 2001-2017
</metadata>
<g transform="translate(-682.000000,1090.000000) scale(0.100000,-0.100000)"
fill="#222222" stroke="none">
<path d="M6993 10888 c4 -12 1 -18 -8 -18 -8 0 -15 -6 -15 -13 0 -8 -8 -13
-17 -13 -10 1 -19 -3 -21 -9 -3 -12 59 -16 95 -5 15 4 22 9 16 9 -7 1 -13 7
-13 14 0 8 -10 22 -22 33 -19 17 -21 17 -15 2z"/>
<path d="M13391 10883 c13 -15 11 -16 -15 -11 l-28 6 28 -25 c16 -14 21 -22
12 -19 -9 3 -28 -6 -43 -20 -21 -19 -30 -22 -40 -14 -10 8 -20 8 -36 0 -16 -9
-28 -9 -46 -1 -31 14 -33 14 -27 -4 9 -22 -33 -19 -63 5 -14 11 -31 20 -38 20
-7 0 -16 10 -20 23 -7 21 -8 20 -14 -8 -6 -26 -11 -30 -36 -28 -62 5 -70 5
-90 1 -24 -4 -44 -27 -45 -51 0 -14 -5 -17 -20 -12 -17 6 -20 2 -20 -29 0 -33
-2 -36 -29 -36 -23 0 -32 7 -45 35 -14 29 -22 35 -47 35 -18 0 -28 -4 -24 -10
3 -5 -2 -11 -12 -11 -10 -1 -31 -3 -48 -5 -16 -2 -34 1 -40 6 -15 12 -25 3
-25 -23 0 -10 -8 -21 -18 -24 -14 -3 -17 -12 -14 -35 4 -25 2 -29 -14 -26 -11
2 -20 13 -22 24 -2 16 -10 21 -32 20 -24 -1 -30 -5 -30 -23 0 -30 -55 -55 -85
-39 -11 5 -22 11 -25 11 -23 4 -50 18 -50 27 0 6 -18 7 -50 3 -42 -6 -50 -4
-50 9 0 9 -7 16 -15 16 -8 0 -15 6 -15 13 0 8 -31 30 -70 50 -68 36 -123 47
-135 27 -7 -11 -40 -6 -97 16 -35 13 -38 12 -48 -6 -7 -13 -21 -20 -39 -20
-16 0 -31 -7 -35 -15 -6 -17 -42 -20 -52 -4 -3 6 -24 9 -45 7 -22 -2 -39 1
-39 5 0 5 -7 4 -15 -3 -12 -10 -18 -10 -30 0 -12 10 -20 9 -40 -4 -14 -9 -25
-20 -25 -24 0 -4 -26 -8 -57 -9 -84 -2 -90 -3 -104 -19 -6 -8 -22 -14 -34 -14
-12 0 -28 -6 -34 -14 -7 -8 -43 -17 -89 -21 -50 -4 -101 -17 -147 -37 -55 -23
-80 -29 -118 -25 -40 3 -51 1 -60 -14 -7 -11 -20 -19 -30 -19 -11 0 -20 -10
-23 -30 -5 -23 -12 -30 -29 -30 -13 0 -25 -7 -29 -15 -7 -18 -76 -21 -94 -3
-9 9 -15 9 -24 0 -16 -16 -47 -15 -81 3 -40 20 -159 55 -190 55 -14 0 -38 -5
-52 -12 -21 -10 -31 -9 -55 5 -28 17 -29 17 -40 -4 -10 -17 -19 -20 -51 -17
-38 3 -39 2 -35 -22 6 -25 -22 -70 -42 -70 -6 0 -12 -12 -14 -27 -3 -24 -7
-28 -30 -25 -26 3 -28 0 -28 -33 0 -31 -3 -35 -26 -35 -14 0 -35 5 -47 11 -12
7 -19 8 -15 4 4 -4 1 -20 -7 -35 -11 -21 -20 -27 -35 -23 -14 4 -20 0 -20 -11
0 -8 -11 -18 -25 -22 -18 -4 -25 -13 -25 -29 0 -13 -5 -27 -10 -30 -6 -3 -7
-17 -4 -31 5 -18 2 -24 -10 -24 -16 0 -21 -21 -17 -67 1 -18 -4 -23 -21 -23
-17 0 -19 -3 -10 -12 14 -14 -2 -48 -22 -48 -8 0 -20 -10 -28 -22 -19 -28 -86
-32 -105 -7 -7 9 -30 19 -53 22 -22 3 -58 14 -80 26 -33 17 -40 18 -40 6 0
-14 -3 -14 -23 0 -13 8 -49 20 -81 27 -48 9 -59 9 -67 -3 -8 -12 -10 -12 -19
1 -6 10 -10 11 -10 3 0 -7 -12 -16 -27 -19 -16 -4 -31 -11 -34 -17 -4 -5 -15
-4 -29 3 -20 11 -21 10 -15 -12 4 -12 10 -24 14 -26 3 -1 22 -12 41 -24 19
-12 39 -22 43 -23 8 0 27 -26 27 -37 0 -5 -9 -8 -20 -8 -22 0 -27 -16 -8 -22
6 -2 13 -13 14 -24 2 -10 4 -28 6 -39 2 -11 11 -29 20 -39 10 -11 21 -34 24
-53 4 -19 12 -33 20 -33 24 0 27 -28 8 -58 -10 -15 -19 -30 -19 -34 0 -5 -3
-7 -7 -5 -4 1 -15 -8 -23 -20 -9 -13 -25 -23 -36 -23 -28 0 -34 -26 -13 -57
11 -14 31 -47 45 -72 15 -25 41 -55 58 -66 34 -22 50 -60 32 -78 -14 -14 -15
-97 0 -97 10 0 35 -58 32 -71 -1 -4 7 -5 17 -2 24 6 92 -37 86 -54 -3 -7 4
-15 14 -18 11 -3 28 -17 38 -29 13 -18 25 -22 48 -19 20 3 37 -1 48 -12 16
-16 15 -19 -9 -41 -14 -13 -30 -24 -35 -24 -14 0 30 -123 49 -134 5 -3 6 -16
4 -30 -4 -20 0 -25 27 -31 19 -4 35 -16 42 -31 9 -18 16 -22 35 -18 20 6 23 3
23 -25 0 -24 4 -31 20 -31 11 0 20 -5 20 -11 0 -16 41 16 54 43 9 16 20 22 36
20 28 -3 62 30 54 52 -7 19 -4 19 31 6 23 -9 28 -7 32 10 3 11 9 20 13 20 4 0
10 14 14 30 5 27 8 30 25 20 11 -5 23 -19 26 -30 8 -27 19 -25 39 5 10 14 28
30 42 35 23 9 24 11 11 43 l-14 33 30 -4 c20 -3 28 -1 23 7 -10 15 17 14 32
-1 7 -7 12 -20 12 -30 0 -9 9 -22 20 -28 29 -15 164 -31 168 -19 5 14 33 10
80 -11 37 -17 42 -17 42 -3 0 14 2 14 23 -1 12 -9 34 -23 48 -31 25 -13 27
-13 22 4 -4 16 -1 17 41 7 31 -7 45 -15 41 -23 -6 -18 5 -43 19 -43 7 0 21 -6
31 -14 16 -12 17 -16 6 -29 -21 -26 -4 -39 42 -30 62 10 107 6 126 -11 10 -9
23 -16 30 -16 16 0 87 -76 83 -88 -5 -15 29 -44 45 -38 8 3 23 6 34 6 10 0 19
7 19 15 0 8 5 15 10 15 6 0 10 5 10 10 0 6 19 28 42 51 38 37 47 40 80 36 38
-5 66 12 53 33 -17 28 22 4 66 -40 27 -27 54 -50 59 -50 14 0 12 -32 -4 -53
-12 -15 -11 -57 1 -57 2 0 16 13 31 28 20 21 33 27 48 22 21 -8 80 -2 106 12
13 6 20 3 28 -12 8 -15 17 -18 42 -13 22 4 29 3 24 -5 -4 -7 -2 -12 5 -12 7 0
9 8 6 21 -4 16 -2 19 11 13 19 -8 64 -8 160 2 50 4 62 9 62 23 0 15 9 18 49
17 49 -1 91 18 84 39 -5 17 51 43 75 34 12 -5 22 -4 22 1 0 5 15 6 33 4 28 -5
34 -1 49 25 9 17 13 33 9 36 -15 8 -22 87 -11 119 5 18 24 40 40 49 20 12 30
26 30 41 0 13 7 26 15 30 11 4 14 13 9 31 -5 22 -2 27 23 37 25 9 28 15 25 45
-4 32 -3 34 15 25 27 -15 62 -5 96 27 l28 26 37 -20 c25 -14 40 -30 47 -52 10
-35 42 -54 56 -32 4 7 5 17 3 21 -3 5 6 6 20 2 15 -3 26 -2 26 4 0 5 11 13 24
16 23 6 46 35 62 79 6 15 23 22 47 18 4 0 7 6 7 15 0 9 5 14 12 12 7 -3 22 7
35 20 22 24 23 42 2 42 -6 0 -7 -4 -4 -10 9 -15 -11 -12 -24 4 -7 8 -21 12
-31 9 -15 -4 -20 0 -20 16 0 18 4 20 25 15 14 -3 25 -2 25 4 0 5 -20 13 -44
16 -47 7 -55 29 -15 41 10 4 19 13 19 22 0 9 6 13 15 9 17 -6 21 9 5 19 -5 3
-9 23 -9 43 1 82 -20 120 -73 129 -21 3 -36 9 -33 13 3 4 -2 13 -10 20 -14 11
-13 14 4 27 16 10 19 23 17 58 -1 25 2 45 7 45 5 0 5 15 1 32 -6 29 -5 31 10
19 19 -16 88 -8 119 14 12 8 29 15 39 15 11 0 18 8 18 20 0 17 7 20 49 20 28
0 53 -4 56 -10 11 -18 24 -11 31 15 6 25 44 56 44 36 0 -6 15 -14 33 -19 17
-6 40 -13 50 -17 12 -5 17 -2 17 9 0 13 28 36 44 36 3 0 6 -11 6 -24 0 -14 5
-28 11 -31 19 -13 22 4 5 39 -18 39 -20 56 -6 56 6 0 10 11 10 24 0 19 8 26
44 36 33 9 43 16 39 27 -4 11 0 14 19 12 35 -5 60 24 56 63 -2 25 1 33 17 38
11 3 21 14 23 25 9 57 6 102 -6 123 -14 21 -13 25 17 51 36 33 37 35 13 81
-11 19 -22 52 -25 73 -5 32 -3 38 11 36 30 -4 52 12 52 37 0 13 9 29 19 36 16
10 18 16 8 32 -6 12 -10 33 -8 48 1 14 -2 29 -8 33 -14 8 -14 52 -1 60 15 9
12 25 -3 19 -8 -3 -20 2 -27 11 -9 10 -16 12 -25 5 -6 -5 -44 -8 -84 -7 -65 3
-72 1 -68 -15 7 -24 -21 -47 -34 -27 -15 22 12 139 32 139 9 0 -2 53 -14 68
-5 6 -14 12 -19 12 -6 0 -4 -7 3 -17z m-501 -1437 c0 -3 -4 -8 -10 -11 -5 -3
-10 -1 -10 4 0 6 5 11 10 11 6 0 10 -2 10 -4z m-2914 -671 c4 -9 -3 -24 -17
-36 l-24 -20 -17 21 c-28 35 -23 50 17 50 23 0 38 -6 41 -15z"/>
<path d="M6863 10852 c-12 -8 -8 -34 12 -84 12 -30 25 -20 25 20 0 44 -19 76
-37 64z"/>
<path d="M12495 10690 c3 -5 8 -10 11 -10 2 0 4 5 4 10 0 6 -5 10 -11 10 -5 0
-7 -4 -4 -10z"/>
<path d="M6877 10658 c-13 -22 -23 -29 -37 -25 -18 5 -20 0 -20 -38 0 -34 6
-50 30 -75 l30 -33 20 23 c11 13 23 41 26 62 4 21 11 41 15 44 11 7 -16 60
-34 67 -7 3 -20 -8 -30 -25z"/>
<path d="M6887 10466 c-8 -21 45 -55 75 -49 19 4 37 -3 61 -21 19 -14 37 -26
41 -26 11 0 36 -27 30 -32 -2 -3 -6 -20 -9 -37 -2 -18 -9 -38 -15 -46 -8 -9
-8 -19 -1 -32 5 -10 12 -25 14 -34 3 -9 21 -19 42 -22 22 -4 47 -18 64 -36 33
-35 58 -43 39 -11 -16 24 -6 35 20 21 11 -6 39 -10 61 -9 23 1 44 -2 48 -5 3
-4 17 2 29 14 21 20 24 20 46 5 12 -9 30 -16 39 -16 15 0 39 -38 39 -64 0 -7
8 -21 19 -30 21 -19 69 -13 78 11 4 10 15 12 42 7 36 -7 36 -7 17 14 -10 11
-28 22 -39 24 -12 2 -24 12 -27 23 -5 20 -13 24 -60 30 -14 1 -28 3 -32 4 -4
0 -14 16 -22 35 l-14 34 -70 -3 c-58 -3 -71 -1 -76 13 -18 50 -66 101 -66 70
0 -9 -3 -9 -12 0 -7 7 -22 12 -35 12 -30 0 -61 18 -92 55 -14 16 -34 36 -43
44 -10 9 -18 27 -18 41 -1 21 -2 22 -10 9 -9 -15 -17 -15 -73 -5 -34 7 -68 15
-74 19 -6 4 -13 1 -16 -7z"/>
<path d="M8790 10062 c0 -7 -12 -11 -32 -10 -28 3 -34 -1 -36 -20 -3 -17 -8
-22 -19 -18 -9 4 -21 2 -28 -4 -7 -6 -23 -6 -41 -2 -38 11 -78 1 -82 -20 -2
-11 12 -27 37 -44 22 -14 43 -34 46 -43 13 -39 117 -76 129 -45 4 12 10 11 36
-5 30 -18 32 -18 97 0 36 10 76 28 87 38 12 11 38 21 59 23 20 1 37 5 37 9 0
6 -15 8 -83 9 -20 1 -43 15 -78 49 -28 27 -62 52 -77 56 -14 3 -32 14 -39 23
-8 11 -12 12 -13 4z"/>
<path d="M7729 10023 c5 -10 27 -35 49 -55 33 -32 40 -46 46 -93 4 -37 2 -62
-6 -75 -11 -17 -10 -28 6 -68 10 -26 21 -65 24 -87 8 -44 15 -49 34 -23 9 12
17 15 28 8 12 -8 12 -10 -3 -16 -17 -6 -24 -39 -9 -47 4 -3 16 -1 26 3 26 9
68 0 63 -14 -8 -24 28 -45 76 -43 38 2 49 6 54 22 3 11 15 26 26 34 15 10 18
21 14 47 -4 23 -2 31 7 28 7 -3 12 6 14 21 1 14 9 36 17 49 17 26 8 44 -10 19
-10 -14 -14 -11 -34 21 -13 20 -27 33 -32 30 -16 -9 -59 25 -59 46 0 11 -9 25
-20 32 -24 15 -26 28 -5 28 9 0 27 7 40 16 16 10 34 14 50 10 39 -10 29 1 -20
23 -25 11 -48 27 -51 35 -8 22 -32 20 -30 -1 1 -13 -6 -18 -24 -17 -14 1 -28
-3 -32 -9 -4 -7 -11 -7 -21 1 -8 7 -22 10 -30 6 -9 -3 -29 4 -46 15 -16 12
-33 21 -37 21 -4 0 -17 9 -28 19 -12 10 -36 22 -54 26 -31 6 -33 5 -23 -12z"/>
<path d="M8460 9982 c-8 -2 -25 -9 -38 -15 -17 -8 -28 -8 -42 1 -13 8 -21 8
-26 1 -8 -14 -2 -19 32 -23 16 -2 41 -7 57 -11 16 -4 27 -3 27 3 0 5 12 13 26
16 14 4 24 12 22 18 -4 12 -34 17 -58 10z"/>
<path d="M8296 9962 c-2 -4 4 -8 15 -8 10 0 19 4 19 8 0 4 -6 8 -14 8 -8 0
-17 -4 -20 -8z"/>
<path d="M8234 9935 c-18 -14 -18 -14 4 -8 12 3 22 9 22 14 0 12 -3 11 -26 -6z"/>
<path d="M8168 9923 c7 -3 16 -2 19 1 4 3 -2 6 -13 5 -11 0 -14 -3 -6 -6z"/>
<path d="M7853 9533 c3 -33 15 -78 26 -99 12 -21 18 -47 15 -56 -3 -12 1 -20
13 -25 10 -3 22 -12 26 -20 13 -22 48 -15 77 18 36 38 49 72 24 62 -14 -5 -15
-3 -4 18 10 20 10 22 -1 12 -20 -20 -32 -16 -51 17 -9 16 -28 32 -42 36 -18 4
-26 13 -27 28 0 11 -14 32 -30 45 l-31 24 5 -60z"/>
<path d="M7966 9302 c-4 -7 -12 -9 -18 -6 -6 4 -8 2 -4 -4 3 -6 -2 -12 -11
-14 -13 -3 -7 -10 22 -24 31 -15 40 -25 41 -45 1 -14 4 -31 7 -36 4 -6 0 -13
-8 -17 -21 -8 43 -91 108 -142 26 -20 47 -42 47 -50 0 -24 62 -75 92 -76 36
-1 42 5 29 31 -12 22 -60 51 -85 51 -19 0 -34 47 -31 94 2 24 -1 39 -10 42 -7
3 -16 16 -19 30 -4 16 -19 29 -46 40 -42 17 -88 69 -99 112 -5 17 -10 22 -15
14z"/>
<path d="M8235 8970 c4 -6 11 -8 16 -5 14 9 11 15 -7 15 -8 0 -12 -5 -9 -10z"/>
<path d="M8370 8914 c0 -7 -6 -11 -13 -8 -7 2 -22 -4 -32 -16 -19 -21 -8 -29
13 -8 6 6 27 11 47 10 35 -1 46 10 23 25 -22 13 -38 12 -38 -3z"/>
<path d="M8457 8904 c-12 -12 -8 -54 6 -54 6 0 23 -3 37 -7 15 -3 22 -2 17 3
-5 5 -14 9 -20 9 -7 0 -13 9 -15 20 -5 25 -16 38 -25 29z"/>
<path d="M9759 8493 c-13 -16 -12 -17 4 -4 9 7 17 15 17 17 0 8 -8 3 -21 -13z"/>
</g>
</svg>
