<?xml version="1.0" standalone="no"?>
<!DOCTYPE svg PUBLIC "-//W3C//DTD SVG 20010904//EN"
 "http://www.w3.org/TR/2001/REC-SVG-20010904/DTD/svg10.dtd">
<svg version="1.0" xmlns="http://www.w3.org/2000/svg"
 width="730.466869pt" height="565.755578pt" viewBox="0 0 730.466869 565.755578"
 preserveAspectRatio="xMidYMid meet">
<metadata>
Created by potrace 1.15, written by Peter Selinger 2001-2017
</metadata>
<g transform="translate(-681.033131,1275.000000) scale(0.100000,-0.100000)"
fill="#222222" stroke="none">
<path d="M13082 12738 c-7 -7 -12 -8 -12 -2 0 5 -4 3 -9 -5 -8 -12 -15 -13
-35 -3 -23 10 -26 8 -43 -27 -17 -35 -20 -37 -45 -27 -20 7 -33 6 -52 -3 -22
-12 -29 -11 -59 7 -40 23 -81 19 -101 -10 -24 -33 -65 -37 -129 -12 l-58 23
-8 -22 c-12 -30 -29 -43 -69 -52 -18 -3 -30 -10 -27 -15 3 -5 -9 -19 -26 -31
-26 -18 -35 -20 -50 -11 -17 11 -19 9 -19 -13 0 -23 -13 -31 -42 -26 -4 0 -5
-13 -1 -29 5 -27 3 -30 -18 -30 -22 -1 -22 -2 -6 -11 12 -7 15 -14 8 -22 -5
-7 -11 -25 -13 -42 -2 -24 -9 -31 -39 -38 -27 -6 -40 -17 -53 -44 -9 -19 -15
-38 -12 -40 3 -3 -3 -14 -13 -24 -14 -15 -27 -18 -58 -14 -37 4 -41 3 -36 -14
4 -16 1 -19 -16 -14 -12 3 -21 9 -21 13 0 13 -53 27 -78 21 -12 -3 -42 -25
-65 -47 -41 -41 -43 -42 -90 -34 -45 6 -46 6 -31 -11 33 -37 -15 -89 -83 -91
-21 0 -55 4 -75 10 -22 5 -38 6 -38 1 0 -5 -7 -9 -15 -9 -8 0 -15 -9 -15 -20
0 -13 -9 -22 -25 -26 -14 -3 -25 -10 -25 -14 0 -15 -101 -22 -118 -8 -12 10
-16 10 -19 1 -6 -18 -42 -16 -49 2 -8 19 -21 19 -58 0 -15 -8 -32 -12 -37 -9
-5 3 -9 -11 -9 -30 0 -25 -6 -40 -20 -48 -11 -7 -20 -18 -20 -25 0 -20 -15
-22 -56 -8 -54 19 -64 18 -64 -6 0 -15 -5 -19 -16 -15 -11 4 -14 1 -13 -12 4
-23 -20 -64 -32 -56 -6 3 -9 -2 -7 -11 2 -10 -3 -20 -9 -22 -7 -3 -13 0 -13 6
0 6 -11 11 -25 11 -14 0 -25 -4 -25 -10 0 -16 -37 -12 -54 6 -9 9 -40 19 -69
23 -28 4 -63 13 -76 20 -17 9 -26 10 -34 2 -18 -18 -37 -12 -47 14 -10 25 -30
35 -30 14 0 -7 -10 -9 -25 -7 -14 3 -25 2 -25 -3 0 -4 -21 1 -46 12 -35 16
-52 18 -73 11 -18 -6 -34 -6 -45 0 -9 5 -56 8 -104 7 -48 -1 -97 1 -110 5 -20
8 -22 6 -14 -15 5 -13 7 -29 5 -36 -7 -19 -68 -83 -80 -83 -6 0 -13 -5 -15
-11 -2 -6 -16 -12 -31 -12 -19 -2 -27 -7 -27 -20 0 -14 -5 -16 -26 -11 -21 5
-25 3 -22 -12 6 -34 -27 -25 -57 15 -32 42 -57 59 -63 42 -2 -6 -15 -11 -28
-11 -14 0 -23 -4 -19 -10 12 -19 -44 -43 -90 -38 -42 5 -45 4 -45 -18 0 -21
-5 -24 -40 -24 -33 0 -42 -4 -52 -25 -6 -14 -19 -25 -29 -25 -9 0 -20 -6 -22
-12 -4 -10 -8 -9 -17 2 -8 11 -9 -1 -4 -47 6 -55 4 -63 -10 -63 -9 0 -32 -16
-51 -36 -19 -19 -39 -32 -45 -29 -7 4 -9 -2 -4 -19 5 -21 2 -26 -21 -32 -14
-4 -38 -1 -51 5 -14 6 -38 11 -53 11 -21 0 -28 5 -27 17 0 12 -7 19 -21 21
-13 2 -23 8 -23 14 0 5 -7 8 -15 4 -10 -3 -15 1 -15 13 0 32 -11 51 -29 51
-10 0 -26 7 -37 15 -26 19 -32 19 -39 -6 -4 -11 -27 -30 -51 -42 -38 -18 -48
-19 -65 -9 -21 14 -72 24 -124 26 -25 1 -34 8 -55 50 -23 47 -50 71 -50 47 0
-18 -35 -13 -54 7 -24 27 -91 45 -116 32 -11 -6 -25 -8 -31 -4 -6 3 -19 -2
-30 -12 -11 -10 -37 -18 -58 -19 -22 0 -45 -6 -53 -13 -15 -12 -35 -13 -218
-16 -82 -1 -113 3 -142 17 -20 10 -40 22 -43 27 -4 7 -13 7 -24 0 -10 -5 -21
-6 -25 -3 -4 4 -17 -6 -30 -21 -18 -23 -32 -30 -74 -34 l-52 -5 5 -31 c9 -48
-9 -86 -41 -86 -15 0 -44 -8 -65 -17 -37 -16 -38 -18 -32 -58 3 -27 1 -45 -6
-50 -8 -4 -9 -11 -2 -19 13 -15 -18 -106 -36 -106 -7 0 -13 -6 -13 -12 0 -7
-7 -26 -15 -41 -8 -15 -11 -35 -8 -44 4 -10 2 -14 -4 -10 -15 9 -26 -58 -14
-82 6 -10 8 -21 5 -23 -2 -3 2 -11 11 -18 21 -17 19 -30 -5 -30 -12 0 -17 -5
-14 -13 2 -7 -5 -26 -17 -41 -19 -25 -23 -26 -38 -12 -10 9 -28 16 -41 16 -13
0 -31 7 -41 16 -11 10 -23 13 -31 8 -7 -5 -20 -7 -30 -6 -9 2 -19 -2 -23 -8
-8 -12 -60 -13 -83 -1 -9 5 -31 6 -49 4 -24 -4 -30 -9 -26 -21 4 -9 2 -13 -4
-9 -6 4 -10 1 -9 -6 1 -13 -5 -17 -30 -17 -13 0 -14 3 -5 14 10 12 8 13 -9 9
-14 -4 -32 -27 -50 -65 -34 -70 -37 -84 -22 -119 11 -27 42 -47 42 -27 0 9 3
9 12 0 7 -7 20 -12 29 -12 9 0 20 -7 23 -16 4 -12 2 -15 -9 -10 -21 8 -5 -22
25 -47 14 -11 20 -26 17 -37 -3 -13 1 -21 14 -25 24 -8 24 -16 -2 -66 -13 -27
-25 -39 -35 -35 -16 6 -19 -9 -4 -19 14 -9 -12 -33 -45 -41 -26 -6 -27 -9 -20
-52 5 -31 3 -47 -6 -53 -7 -4 -15 -35 -17 -71 -3 -35 -8 -65 -11 -68 -4 -3
-17 -22 -30 -42 -12 -20 -31 -40 -42 -43 -14 -5 -19 -13 -16 -25 3 -11 -5 -28
-19 -41 -17 -16 -24 -33 -24 -60 0 -21 -5 -41 -11 -45 -8 -4 -7 -9 2 -14 20
-13 -16 -43 -42 -35 -19 6 -20 5 -9 -15 9 -16 9 -25 1 -33 -17 -17 -13 -68 6
-89 20 -22 27 -98 9 -98 -16 0 -8 -108 11 -136 8 -13 12 -28 8 -34 -3 -5 1
-13 10 -16 12 -5 15 -15 11 -38 -8 -46 8 -110 33 -137 12 -13 32 -40 44 -59
12 -19 28 -40 36 -46 8 -6 12 -18 8 -26 -9 -25 21 -58 52 -58 36 0 57 -24 69
-78 11 -49 37 -92 55 -92 6 0 24 -15 39 -34 15 -19 48 -44 73 -56 74 -36 110
-76 128 -145 19 -70 13 -115 -14 -115 -29 0 -32 -18 -8 -58 33 -54 31 -133 -3
-169 -20 -23 -24 -33 -18 -55 5 -16 5 -28 2 -28 -12 0 22 -20 34 -20 7 0 15
10 18 23 6 22 7 22 28 -8 13 -16 40 -47 61 -67 30 -30 44 -37 63 -32 16 4 37
-2 61 -16 35 -21 57 -27 123 -33 14 -1 40 -13 58 -27 19 -14 37 -25 40 -25 4
-1 17 -6 29 -13 19 -11 22 -10 17 3 -10 25 28 17 56 -12 38 -40 101 -83 121
-83 10 0 26 -11 35 -26 10 -15 23 -23 31 -19 21 7 68 -33 68 -58 0 -18 5 -22
32 -20 17 2 64 -8 105 -22 40 -14 87 -25 103 -25 17 0 39 -7 49 -15 11 -8 29
-12 43 -9 13 4 29 2 36 -4 6 -5 32 -15 56 -22 38 -10 46 -9 53 4 5 9 22 16 37
16 48 0 91 20 91 42 0 13 6 18 17 16 12 -2 18 -15 20 -42 1 -24 10 -48 22 -60
21 -20 21 -20 35 -1 14 19 15 19 21 -7 4 -17 18 -31 38 -39 54 -21 85 -48 92
-79 4 -16 26 -55 51 -86 24 -32 44 -61 44 -66 0 -5 5 -6 10 -3 19 12 92 -6 86
-20 -3 -8 6 -21 20 -29 13 -9 23 -20 23 -24 -3 -20 2 -32 15 -32 8 0 27 -15
43 -33 33 -38 106 -59 116 -33 3 8 21 13 44 13 45 0 87 19 77 34 -4 7 12 8 50
4 41 -5 56 -4 56 5 0 8 10 10 34 6 40 -8 69 2 62 20 -4 12 1 11 31 -1 19 -8
50 -15 69 -15 22 0 34 -5 38 -17 5 -15 19 -18 91 -18 72 0 85 2 85 17 0 11 6
15 19 11 13 -3 23 2 30 16 8 14 22 21 40 21 16 0 34 7 41 15 7 9 29 15 51 15
35 0 39 3 39 25 0 20 5 25 26 25 26 0 63 34 64 57 0 7 9 18 20 25 25 16 25 26
3 51 -17 18 -17 20 -1 31 9 7 20 24 23 39 6 23 4 27 -13 27 -24 0 -40 19 -24
29 5 3 12 17 13 31 3 20 11 26 37 28 26 3 32 7 32 28 0 18 5 24 21 24 11 0 18
4 15 8 -8 14 14 86 30 98 8 6 12 19 8 28 -9 25 14 19 41 -10 13 -14 29 -23 34
-19 6 3 11 -1 11 -9 0 -9 6 -16 14 -16 8 0 21 -3 30 -6 12 -4 16 0 16 16 0 13
8 24 20 27 11 3 20 9 20 14 0 5 7 6 15 3 9 -4 15 0 15 9 0 10 16 16 52 20 37
5 59 14 79 33 23 22 31 25 43 15 10 -8 16 -9 21 -1 3 5 22 10 41 10 19 0 42 5
52 11 14 9 27 7 60 -10 23 -12 42 -17 42 -13 0 5 11 7 25 4 14 -2 25 -9 25
-14 0 -5 4 -6 10 -3 6 4 6 12 -2 24 -14 23 -3 67 22 88 10 9 16 21 13 26 -3 6
-8 25 -10 43 -3 25 1 36 17 44 11 6 20 8 20 4 0 -3 7 -1 15 6 10 8 12 18 6 29
-10 19 -4 41 12 41 6 0 27 8 48 18 27 12 40 25 44 45 9 39 55 93 119 137 26
18 36 32 36 53 0 24 3 27 36 27 26 0 43 8 65 29 16 16 29 36 29 45 0 8 11 32
25 52 14 20 25 46 25 58 0 12 9 32 20 46 11 14 20 31 20 38 0 14 56 17 65 2 3
-5 17 -10 30 -10 13 0 27 5 30 10 3 6 16 10 28 10 13 0 31 6 42 13 11 7 33 14
49 15 16 1 38 13 50 27 18 21 29 24 76 23 38 -1 64 4 83 16 15 10 34 16 42 12
9 -3 15 0 15 9 0 10 10 15 28 15 20 1 34 11 55 41 16 23 26 48 23 55 -3 9 4
19 18 25 12 6 40 33 62 60 39 50 60 57 136 50 12 -2 15 4 11 19 -4 15 -1 20
15 20 18 0 20 3 11 32 -5 18 -9 44 -9 57 0 18 3 21 13 12 17 -13 27 -5 27 22
0 19 9 20 53 2 12 -5 17 -2 17 9 0 9 9 17 20 18 11 0 26 1 33 2 23 2 34 22 30
52 -6 36 19 102 42 110 8 3 15 16 15 29 0 12 9 30 20 40 11 10 20 24 20 30 0
7 6 15 14 18 16 7 46 94 46 139 1 32 29 78 48 78 12 0 62 57 62 71 0 6 11 22
25 37 14 15 25 30 25 33 0 4 -16 21 -35 38 -19 17 -35 33 -35 36 0 4 -12 22
-26 40 -17 22 -24 41 -19 54 4 14 0 21 -15 26 -11 3 -20 10 -20 15 0 5 -3 16
-7 26 -7 18 4 18 52 -2 17 -7 18 -5 8 8 -11 12 -9 17 10 27 17 9 24 22 24 44
0 18 3 47 6 64 3 18 2 35 -4 38 -16 11 -10 22 21 35 17 7 30 18 30 25 0 18 49
48 67 41 18 -7 45 12 37 25 -3 5 5 26 17 46 15 25 22 50 21 82 -1 43 2 48 29
60 21 9 33 10 42 2 7 -5 22 -8 34 -5 15 4 32 -4 59 -29 22 -19 54 -37 72 -40
27 -6 32 -4 32 14 0 11 7 22 15 25 8 4 15 14 15 23 0 10 11 28 25 41 20 19 25
33 25 74 0 67 8 93 30 99 16 4 18 16 16 95 -1 70 3 94 15 108 20 24 19 102 -1
114 -12 7 -12 12 -2 22 27 27 5 119 -28 111 -12 -3 -24 7 -39 32 -11 20 -21
38 -21 40 0 2 29 7 64 10 57 6 65 10 70 31 4 15 14 24 26 24 15 0 20 7 20 29
0 21 6 30 21 34 17 5 20 13 19 54 0 26 0 55 1 63 1 8 -2 23 -6 34 -7 16 -5 17
12 8 13 -7 23 -8 30 -1 5 5 29 13 54 17 32 6 45 13 48 27 2 11 9 24 17 28 8 4
14 16 14 26 0 11 16 24 48 37 l47 21 -39 16 c-49 21 -51 21 -75 -4 -19 -21
-21 -21 -47 -4 -22 14 -31 15 -52 6 -20 -10 -27 -9 -33 1 -5 7 -9 9 -9 3 0 -5
-5 -4 -12 3 -7 7 -11 28 -10 47 2 19 -2 35 -8 35 -5 0 -10 8 -10 18 0 11 -9
27 -20 37 -25 23 -26 42 -1 50 11 3 22 19 26 35 5 21 13 30 26 30 10 0 19 3
19 6 0 12 -24 49 -37 57 -9 6 -10 13 -3 26 7 14 5 22 -8 34 -15 14 -19 14 -37
1 -12 -9 -30 -12 -47 -9 -21 5 -29 1 -39 -17 -18 -33 -37 -50 -50 -43 -6 5 -4
12 8 20 17 13 17 14 -1 34 -11 12 -15 21 -11 21 5 0 4 5 -3 12 -8 8 -15 8 -27
-2 -14 -11 -19 -7 -16 13 0 4 -6 7 -15 7 -8 0 -12 -4 -9 -10 3 -5 2 -10 -4
-10 -6 0 -7 -8 -4 -17 5 -15 4 -16 -8 -7 -8 7 -27 10 -44 8 -22 -2 -35 3 -47
19 -10 12 -18 16 -18 10 0 -17 -10 -16 -34 2 -19 14 -19 16 -1 48 13 25 23 33
36 30 16 -5 18 0 15 39 -2 25 -15 65 -30 91 -17 28 -24 51 -19 59 4 7 8 15 9
18 5 28 27 60 41 61 11 0 13 3 6 6 -8 3 -11 14 -7 27 4 18 0 25 -23 34 -40 17
-84 18 -112 3 -40 -22 -78 -30 -89 -19 -12 12 -4 40 9 32 5 -3 9 -1 9 5 0 5 7
17 16 26 15 15 15 17 -2 36 -18 20 -18 19 -41 -8 -20 -24 -25 -26 -36 -13 -15
18 -74 50 -91 50 -7 0 -17 -5 -24 -12z m-847 -418 c3 -5 1 -10 -4 -10 -6 0
-11 5 -11 10 0 6 2 10 4 10 3 0 8 -4 11 -10z m1605 -228 c0 -12 -3 -12 -15 -2
-8 7 -15 9 -15 4 -1 -24 -20 25 -20 50 l0 30 25 -34 c14 -19 25 -40 25 -48z
m-496 -1418 c3 -7 -4 -16 -16 -20 -22 -7 -38 9 -38 38 0 15 4 16 24 6 14 -6
27 -17 30 -24z m-5341 -2779 c4 -8 2 -17 -3 -20 -6 -4 -10 3 -10 14 0 25 6 27
13 6z m2405 -416 c2 -23 2 -23 -13 -5 -18 24 -20 39 -2 34 6 -3 13 -15 15 -29z"/>
<path d="M7258 8096 c-11 -8 -20 -32 -23 -62 l-5 -49 17 37 c14 29 21 35 33
28 22 -14 30 -12 23 6 -5 14 -1 15 25 9 26 -5 31 -3 29 12 0 10 -8 19 -16 20
-9 1 -27 4 -41 7 -14 4 -32 0 -42 -8z"/>
<path d="M6959 8087 c6 -8 8 -17 4 -21 -4 -4 -1 -11 7 -16 22 -14 32 11 13 32
-19 21 -41 25 -24 5z"/>
<path d="M7100 8035 c-7 -9 -19 -14 -27 -11 -9 4 -11 1 -7 -5 5 -9 -4 -10 -31
-5 -36 7 -37 6 -21 -10 9 -9 15 -23 12 -31 -3 -8 -6 -19 -6 -24 0 -5 -7 -9
-15 -9 -8 0 -15 -3 -15 -8 0 -4 -14 -13 -30 -21 -31 -13 -32 -17 -13 -68 3 -7
0 -13 -7 -13 -6 0 -17 13 -23 29 -6 16 -19 32 -29 34 -16 5 -16 3 -2 -25 18
-34 8 -48 -32 -48 -12 0 -25 -10 -32 -25 -11 -24 -10 -25 7 -15 36 19 67 12
81 -17 25 -50 30 -53 49 -35 10 9 16 23 13 30 -3 7 1 10 11 7 9 -4 16 1 20 12
2 10 8 26 12 36 5 13 2 17 -13 17 -12 0 -23 4 -27 9 -6 11 29 25 60 26 14 0
21 8 23 28 4 32 26 45 47 27 16 -14 35 -5 35 16 0 8 3 14 8 14 4 0 15 12 25
26 19 25 18 25 -8 50 -30 28 -47 30 -65 9z"/>
<path d="M7200 7990 c0 -5 5 -10 10 -10 6 0 10 5 10 10 0 6 -4 10 -10 10 -5 0
-10 -4 -10 -10z"/>
<path d="M7102 7878 c-15 -15 -16 -28 -2 -28 6 0 10 6 10 14 0 8 6 17 13 19 6
3 7 6 2 6 -6 1 -16 -4 -23 -11z"/>
</g>
</svg>
