<svg version="1" xmlns="http://www.w3.org/2000/svg" width="856.903" height="1054.637" viewBox="0 0 642.677 790.978"><g fill="#222"><path d="M14.6 2.563c1.1 1.4 2.5 2.6 3.2 2.6.7 0 1.2 1.4 1.2 3.4 0 1.9.5 3.8 1 4.1.6.3 1-.1 1-1s1.3-2.1 2.9-2.6c2-.7 2.7-1.5 2.4-2.7-.4-1.9-5.1-4.5-6.4-3.6-.5.3-2.3-.2-4-1.1l-3.1-1.7 1.8 2.6zM40.1 3.763c0 1.1.3 1.4.6.6.3-.7.2-1.6-.1-1.9-.3-.4-.6.2-.5 1.3zM39 9.463c0 1.1-.6 1.7-1.2 1.4-.8-.2-1.8 1-2.4 2.7-1 2.6-1.6 3.1-4.3 3-2.1-.1-3.1.3-3.1 1.2 0 1.1-.4 1.2-1.9.4-2.6-1.3-5.1-.3-5.1 2.1 0 1.3.7 1.9 2.3 2 1.6 0 1.8.2.7.7-.8.4-1.5 1.8-1.5 3.2 0 2.1.7 2.7 4.5 3.7 5.5 1.5 12.7 1.6 13.5.3.3-.6 1.7-1 3.1-1 1.8 0 2.4-.5 2.4-2.1 0-1.4.5-1.9 1.4-1.6.8.3 1.6.1 1.8-.5.5-1.3 5.7 1.2 7.7 3.6.8.9 2.9 1.6 5.1 1.6 3.7 0 3.7 0 3.4 3.9-.1 2.1-.9 5.3-1.8 6.9-1.9 3.7-2 6.4-.4 8 .9.9.9 1.2-.1 1.2-.8 0-1.1.6-.7 1.5.3 1-.1 1.4-1.2 1.3-4.6-.4-5.4.1-4.8 2.9.8 2.8-1 8.3-2.6 8.3-.6 0-.8.7-.4 1.5.3.9-.2 2-1.3 2.7-1.6 1-1.7 1.4-.5 3.7.8 1.4 1.4 3.2 1.4 3.9 0 .7.5 1 1 .7.6-.3 1.5.6 2.1 2.2.8 2.2.7 3.5-.5 6.1-1.2 2.4-1.3 3.8-.6 5.3.9 1.5.7 1.9-.5 1.9s-1.5.6-1 2.1c.5 1.6.4 1.9-.6 1.4-.9-.6-1.1-.2-.6 1.6.4 1.3.7 3 .7 3.7 0 .7.4 1.1.9.7 1.3-.8 5.1 4.4 5.1 7 0 1.2.9 3 2 4s2 2.8 2 4.1c0 1.3.4 2.6 1 2.9 1.4.9.8 5.5-.7 5.5-2.8 0 2.2 7.8 6 9.3 2.1.8 2.2 2.3.1 3.1-1.3.5-1.4.9-.4 2.1.7.8.9 1.5.5 1.5s-.1.7.6 1.6c.7.9 1.9 3.2 2.6 5.2 1.4 4.2.5 5.9-3.4 6.4-1.5.2-2.8.9-3.1 1.7-.3.9.1 1.1 1.5.7 1.3-.4 2.6.1 3.8 1.4 1.9 2.1 6.5 2.8 6.5 1 0-1.8 2.6-1.1 4.8 1.3 2.9 3 2.8 3.4-1 5.7-3.2 1.9-3.2 2-.8 2.1 1.4.1 2.8.1 3.1.1.3-.1 1.2 1 1.9 2.3.9 1.6 2.2 2.5 3.7 2.5 1.3 0 2.2-.4 1.9-.8-.2-.4-.1-1.4.3-2 .9-1.5 6.1.1 6.1 1.8 0 .5.7 1 1.6 1 .9 0 2.9.9 4.5 2.1 1.6 1.1 2.9 1.6 2.9 1 0-.6-.4-1.1-1-1.1-1.8 0-1.1-3.9.9-5.2 1.6-.9 1.7-1.6.9-4-.6-1.6-.8-3.2-.4-3.5.3-.3-.2-1.2-1.2-1.9-1.3-1.1-1.4-1.5-.4-2.2.9-.6 1-1.5.3-3.5-.9-2.4-.8-2.7.9-2.7 1.1 0 2-.5 2-1.1 0-.5.4-.8.9-.4.6.3 1.4-.1 1.8-1 .5-.8 3.3-1.9 6.3-2.5 2.9-.6 6.5-1.7 7.8-2.6 1.3-.8 3-1.3 3.8-1 .9.4 1.8-.3 2.4-1.9.5-1.4 1.4-2.5 2-2.5.6 0 .8-.5.5-1.1-.4-.6.1-1.6 1.1-2.4 1.8-1.3 1.8-1.4.1-3.2-2-2.2-2.1-2.9-.7-4.6 5.4-6.6 5.7-7.3 4.9-9.5-.8-2-.6-2.2 1.8-1.6 1.9.5 3 .2 3.9-1.1 1.1-1.4 1.6-1.6 2.8-.6 1 .9 1.6.9 2.1.1.4-.6 1.6-1 2.8-.8 1.6.2 2.3-.3 2.5-2 .4-2.6 1-2.7 4-.6 2.1 1.5 2.5 1.5 4.3-.2 2.4-2.1 2.4-3 .1-5.5-1.8-1.9-3-9.9-1.4-9.9.4 0 1.3-1.4 2-3 .8-1.8 2.1-3 3.2-3 1.3 0 1.7-.5 1.3-1.9-.2-1 .2-2.5 1-3.3 1.5-1.5.8-4.1-.9-3.8-.5.1-1.3-.6-1.9-1.6-.5-1-1.6-2.5-2.3-3.3-1.4-1.5-3.2-5.5-3.6-8.1-.2-.8-2-2.7-4.2-4.2-2.1-1.4-3.9-3.5-4-4.5-.2-3.8-.4-4.3-1.9-4.3-.8 0-3.1-1.6-5-3.5-2-1.9-4.1-3.2-4.9-2.9-1.3.5-1.7 7.7-.4 8.9.4.4.3 1.8-.2 3.1s-.7 3-.4 3.7c.6 1.7-4.4 8.2-7.4 9.6-1.3.6-3.2 1.1-4.4 1.1-1.4 0-1.8.5-1.4 1.6 2.7 7 .8 9.6-4.7 6.4l-3.5-2.1-.5 2.2c-.4 1.5-1.1 2-2.3 1.5-1.3-.5-1.4-.3-.7.6 1.4 1.8 1.3 5.2-.1 3.8-1.6-1.6-2.6-1.2-2.6 1.2 0 3.7-1.6 5.5-3.7 4.2-1-.7-1.7-2-1.6-2.9.3-3.3-3.2-7.9-6.6-8.8-3.1-.8-3.3-1-2.9-4.5.3-2-.1-4.8-.9-6.2-1.5-2.9-1.7-8-.4-8 .5 0 .7-.9.4-2-.3-1.1 0-2.1.6-2.1.6-.1 1.7-.2 2.4-.3.6-.1 1.1-1.2 1-2.4-.2-1.3.1-2.1.5-1.8.5.3 1.7-.5 2.7-1.6 1.2-1.5 1.4-2.3.7-2.6-1.4-.4-1.5-4.1-.2-6.2.5-.9.5-1.9-.1-2.7-.6-.7-.8-1.7-.4-2.3.4-.6.3-.9-.2-.8-1.5.4-5.3-2.2-5.3-3.7 0-1-1-1.5-2.8-1.5-3.8 0-3.8 2.6 0 6.7 1.7 1.7 2.8 3.7 2.5 4.5-.2.7 0 2.1.5 3.1.7 1.3.5 2.4-.6 3.6-.9 1-1.6 2.4-1.6 3.2 0 .8-.5 2.1-1 2.9-.7 1.2-1.1 1-1.8-1-.6-1.6-.6-2.9 0-3.7.7-.9.6-2-.5-3.5-2.2-3.4-5.6-6.8-6.8-6.8-.5 0-1.7-1.6-2.6-3.5-.9-1.9-2-3.2-2.4-3-1.4.9-3.9-.7-3.9-2.6 0-2-3.3-5.9-4.9-5.9-.5 0-1.1-.5-1.3-1.1-.2-.6-2.6-1.3-5.3-1.6-2.7-.2-5.4-.8-6-1.3-.6-.5-1.8-.3-2.9.6-1.7 1.2-2.2 1.2-3.7-.2-1-.9-2.7-1.4-3.8-1.1-2.5.6-5.7-1.6-4.7-3.2.5-.8 0-1.4-1.3-1.8-1.5-.4-1.9-1.1-1.5-3.2.3-1.7-.3-3.5-1.6-5.1-1.7-2.1-2-2.2-2-.7zM18.1 15.863c-1 1.1-1 1.8-.2 2.6 1.4 1.4 2.3.4 1.9-2.1-.3-1.8-.5-1.8-1.7-.5zM18 22.063c0 .5.5 1.3 1 1.6.6.3 1 .2 1-.4 0-.5-.4-1.3-1-1.6-.5-.3-1-.2-1 .4zM14 26.863c-.8.4-2.2 1.4-3.1 2.5-.9 1-2.2 1.8-2.9 1.8-.7 0-1 .3-.7.7.4.3.2 1.2-.4 1.9-1.4 1.7 4.9 9 6.5 7.4.8-.8.7-1.3-.3-2-1.1-.6-1.2-1.2-.4-2.2.6-.7 1.3-2.4 1.5-3.7.1-1.3 1.2-2.9 2.3-3.5 1.1-.6 2.2-1.2 2.5-1.4.5-.3-2.2-2.2-3-2.1-.3 0-1.2.3-2 .6zM20.1 28.763c0 1.1.3 1.4.6.6.3-.7.2-1.6-.1-1.9-.3-.4-.6.2-.5 1.3z"/><path d="M23.2 31.063c-1 .6-.8 1.4.8 3.3 1.1 1.4 2 3.7 1.9 5 0 1.2.1 3 .2 3.8.4 2.9-.1 6-1 5.7-1.4-.4-6.3 5.4-5.7 6.9.3.7-.2 1.8-1.1 2.3-1.5.8-1.5 1.1 0 3.5 1 1.4 2.2 2.6 2.7 2.6s.2 1.6-.6 3.5c-.7 1.9-1.4 4.6-1.4 6 0 1.4-.4 2.5-1 2.5-1.7 0-1.1 1.8 1.2 3.9 1.6 1.6 2.5 1.8 3.5 1 .7-.7 1.3-.7 1.3-.2 0 1.6 5.1 3.4 7.4 2.7 3.2-1 3.6-2.4 1.4-4.6-2.7-2.7-1.7-3.3 2.2-1.3 2.5 1.3 2.9 1.9 2 3-.7.8-.9 1.9-.5 2.5.9 1.4 4.4-2 3.8-3.6-.2-.6.3-1.7 1.2-2.4 1.1-.9 1.3-1.5.4-2-2.1-1.4.8-5 4.1-5 3.2 0 3.6-.6 2.1-2.9-.6-1-.4-2.5.5-4.3 1.3-2.5 1.3-3.1-.1-5-1.9-2.8-1.9-3.8-.1-3.8 1.1 0 1.2-.7.7-2.8-.5-1.8-1.3-2.6-2.5-2.4-2 .4-4.8-2.7-4.1-4.6.3-.8-.6-1.2-2.8-1.2-4.2 0-5.1-.7-7.3-5.5-2-4.2-7.1-7.9-9.2-6.6zM122 37.463c0 2.9-2.4 3.7-3.4 1.2-.7-2-3.2-1.9-4 .1-.8 2.1.3 8.4 1.5 8.4.5 0 .9-1.2.9-2.6 0-2.1.4-2.4 2-1.9 1.3.4 2.2.1 2.6-.9.3-.9 1.2-1.6 1.9-1.6 2.3 0 2.5-1.7.5-3.5-1.9-1.8-2-1.7-2 .8zM106.1 46.263c-1.3 3.8-1.4 4.9-.2 3.1.7-1.2 1.2-1.2 3.2 0 1.3.7 2.7 1.7 3 2.1.3.5.8.3 1.1-.5.3-.7-1-2.8-2.7-4.6l-3.3-3.3-1.1 3.2zM132 47.263c0 2.1.7 4.2 1.5 4.9 1.3 1.1 2 .9 4-1 2.7-2.6 3.4-5.6 1.1-4.7-.9.4-1.7-.1-2-1.1-.4-1-1.5-1.8-2.6-1.8-1.6 0-2 .7-2 3.7zM128 52.163c0 1.1.2 2 .5 2 .2 0 .9-.9 1.5-2 .9-1.6.8-2-.5-2-.8 0-1.5.9-1.5 2zM25 85.063c0 .6.4 1.2.9 1.5.4.3.6 1.7.3 3.1-.2 1.4 0 2.5.5 2.5.8 0 1-4 .4-7.3-.2-1-2.1-.9-2.1.2zM199.8 106.863c-2.1.2-3.8.8-3.8 1.3s-1.2 1.5-2.7 2.2c-1.6.7-3.4 2.7-4.1 4.3-1.5 3.4-11 9.2-13.5 8.2-.8-.3-1.9-.1-2.4.4-.7.7-2 .6-3.8-.3-2.4-1.1-2.9-1-4.1.6-.9 1.3-2.1 1.7-3.9 1.3-2.1-.4-3.5.4-7.1 4-2.4 2.5-4.4 5-4.4 5.5s-1.2.7-2.8.3c-2.1-.4-3.3-.1-4.5 1.3-1.2 1.3-2.6 1.8-4.4 1.4l-2.7-.5 2 2.6c2.5 3 2.4 5.8 0 8.2-.9 1-1.5 2.4-1.2 3.1.3.8 0 1.4-.6 1.4-.7 0 .1 1.3 1.6 2.9 1.7 1.8 2.6 3.6 2.3 4.5-.7 1.7-3.7 2.2-3.7.6 0-.6-.7-1-1.5-1s-1.2.6-.9 1.4c.4 1.1-.4 1.7-3 2.1-1.9.4-3.9.4-4.5 0-.7-.3-1.1.2-1.1 1.4 0 1.1.4 2.3 1 2.6 1.3.8-1.1 4.5-3 4.5-.8 0-2.4.7-3.4 1.5s-2.3 1.2-2.7.9c-.5-.3-.6.3-.2 1.2.4 1.2.3 1.5-.6 1-.7-.4-2.4-.5-3.8-.1-2.4.6-2.5.7-.8 2.6 1 1 1.5 2.2 1.1 2.6-.4.4-1.1.1-1.6-.7-.6-.8-1-1.1-1-.6 0 .5-.8.2-1.7-.5-1.2-1-1.1-.4.5 2.1 1.3 1.9 2.8 4.7 3.4 6.2.5 1.6 1.4 2.8 1.9 2.8s.9.7.9 1.6c0 .8.4 1.3.9.9.5-.3 1.2-.1 1.6.5.4.6-.5 1-1.9 1s-2.6.4-2.6 1c0 .5-.8 1-1.7 1-1.3 0-1.4.3-.5 1.2.8.8 1.5.8 2.4.1 1.7-1.4 6-1.9 7.5-1 .9.6 1.1.3.7-.7-1-2.5 1.2-1.8 3 .9.9 1.4 2.6 2.5 3.9 2.5 3.2 0 4.4 1.1 6.6 6 1.8 4.1 1.9 4.6.5 5.7-1.3.9-1.5 2.5-1.2 7.5.5 7.1 2.1 10.8 4.5 10.8 1.3 0 1.4.3.5 1.2-1.6 1.6-1.5 4.3.2 5.8 1.5 1.2 1.9 9 .4 9-.4 0-.5.7-.2 1.5s-.3 3-1.5 4.8c-2.3 3.7-2.7 5.2-1.2 4.2 1.4-.8 6.2 1.6 5.8 2.9-.2.6-1.2 1-2.1 1-1-.1-1.6.6-1.6 1.7 0 1-.5 1.9-1.1 1.9-.7 0-.5 1 .5 2.5 1.9 2.9 2.1 8.5.4 8.5-.7 0-.4.7.7 1.6 1.8 1.4 1.8 1.6.3 2.5-.9.5-1.4 1.7-1.1 2.8.3 1 0 2.2-.6 2.6-.8.4-.6 1.2.5 2.2 1.5 1.5 1.5 1.7-.5 2.5-1.1.4-2.1 1.3-2.1 1.9 0 .6-.9.9-2 .6-1.2-.3-2 0-2 .8 0 1.2-2 2.5-4.7 3.1-.7.1-1.3-.6-1.3-1.7 0-1-.9-2.3-2-2.9-1.7-.9-2-.8-2 1 0 1.1.4 2 1 2 .5 0 1.7 1.6 2.6 3.5 2 4.2 4.9 6.2 6.8 4.6 1-.8 1.7-.7 2.6.4.7.8 2.6 1.5 4.2 1.5s2.7.4 2.3 1c-.3.5.1 2 1 3.4 1.1 1.7 2.2 2.2 3.7 1.8 1.4-.3 1.9-.1 1.4.6-.7 1.2 2.3 8.2 3.6 8.2.5 0 .6.4.3 1-.3.5-.1 1.9.5 3s.7 2 .3 2c-.5 0-.8 1.7-.8 3.7 0 3.2.4 3.9 2.4 4.1 1.3.2 2.1 0 1.8-.6-.8-1.2 2.1-5.2 3.9-5.2.8 0 1.4-.7 1.4-1.5 0-1.1.7-1.4 2.5-.9 1.9.5 2.5.2 2.5-1 0-.9.5-1.6 1-1.6.6 0 .5-.9-.2-2.1-1-1.6-1-2.3-.2-2.6.7-.2.9-1.4.6-2.6-.5-2.1-.5-2.1 1.9-.6 5.4 3.5 7.1 2.3 4.9-3.6-.9-2.3-.8-2.4 1.5-1.3 2.4 1.1 3.6 4.8 1.6 4.8-.5 0-.7 1-.3 2.2.6 2.5 5.1 7 6.2 6.3.4-.3 1.1.7 1.5 2.3.3 1.5 1.8 4.2 3.1 5.9 1.4 1.8 2 3.3 1.5 3.3-.6 0-1.1.4-1.1.9 0 1.4 6.8 3.4 9.6 2.8 1.7-.3 2.8.2 4 2 1.4 2.2 1.7 2.3 2.7.9 1.6-2 9.2-1.7 9.3.4 0 .8.4 2.4.9 3.4.6 1.3.5 2.1-.3 2.4-2.3.7-1.2 3 1.6 3 1.7 0 3.4-.9 4.8-2.5 1.7-2.2 3-2.6 9-2.9 13.1-.8 16.1-1.1 17.1-1.7.5-.4 2.1.5 3.4 1.9 1.3 1.4 4.1 3.5 6.2 4.5 2 1.1 3.7 2.6 3.7 3.4 0 .7.9 1.7 2.1 2 1.6.6 2 1.3 1.7 3.6-.7 4.7 2.1 6.4 10.3 6.4 3.8 0 7-.4 7.2-.9.4-1.3 4.3.2 7.7 3 2.4 2.1 4.2 2.6 10.1 2.8 5.3.2 7.3.7 8 1.9.5.9 2.1 3 3.6 4.8 2.4 2.8 2.8 3 3.9 1.5.8-1.2 1.4-1.4 1.9-.6 1.1 1.7 4.9 2.9 5.6 1.7.8-1.2 2.6 1.9 3.3 5.8.7 3.5 1.8 4.7 5 5 3.5.4 4.6 1.3 3.9 3.1-.3.8.3 2.4 1.3 3.5 1.8 2 1.8 2.1-.5 3.8-2 1.5-2.2 2.1-1.2 3.9.6 1.1.8 2.8.4 3.8s0 2 1 2.6c1 .5 1.7 1.8 1.7 2.8 0 1.3.7 2 1.9 2 2.1 0 8.1 2.4 9.4 3.7.5.4 1.2.8 1.5.9 1.8.2 4.2 1.7 4.2 2.6 0 .6-.6.6-1.4-.1-1.2-1-1.6-.8-2.1 1-.5 1.4-.2 2.5.6 3 1.2.8 1.1 1.1-.1 1.9-1.3.8-1.2 1 .3 1 1 0 1.7-.8 1.7-2 0-1.1.7-2 1.5-2 1.2 0 1.4.8 1 3.2-.7 3.9-.6 3.7-3.9 4-2 .2-2.5.6-2 1.8.4.8.8 3.1.8 5.1.1 2 .7 4.4 1.5 5.2.8 1 1 2.4.5 3.9-.4 1.3-.7 2.8-.6 3.5.2.7-.8 1-2.8.8-2.3-.3-3 0-3 1.3-.1 2.1-2.9 5.6-5.2 6.4-.9.4-2.7 2.5-3.8 4.8-1.1 2.3-2.7 4.3-3.5 4.7-.9.3-1.5 1.8-1.5 3.4 0 2.2-.5 2.9-1.9 2.9-1.8 0-1.9.4-1.2 3.9.1.2.7-.2 1.5-.8 1.1-.9 1.5-.8 2 .5 1 2.5.7 3.4-1 3.4-1.4 0-1.4.3-.4 1.5 1.2 1.4 1.5 1.4 3 0 2-1.8 3.4-1.9 4.8-.2 1.5 1.8.4 5.5-1.8 6.2-1 .3-2.1 1.3-2.4 2.1-.3.8-.2 1.2.4.9.6-.3 1 .1 1 .9s-.4 1.7-.8 2c-.4.2-.8 1.7-.7 3.3 0 1.9.8 3.1 2.5 4 1.4.7 2.4 1.9 2.2 2.8-.2.8.2 1.5.8 1.5 2.1 0 4.9 4.4 5 7.7 0 2.1.9 4.1 2.5 5.7 1.4 1.4 2.5 3.3 2.5 4.3 0 2.3 7.7 9.6 9.2 8.7.5-.3 2-.1 3.3.6 1.9 1 2.3 2.3 2.9 8.3.3 4 .8 8.7 1.1 10.5.4 2.9.2 3.1-1.5 2.2-1-.6-2.2-1.5-2.5-2-.9-1.5-2.5-1.2-2.5.6 0 .8-.4 1.2-1 .9-2.3-1.4-.7 1.1 2.2 3.5 2.8 2.3 3.7 2.6 6.1 1.8 3.4-1.2 4.7-.3 2.2 1.6-1.7 1.2-1.5 1.4 2.3 2.1 3 .5 4.2 1.2 4.2 2.4 0 .9.7 2.6 1.5 3.7 1.9 2.9.9 9.1-1.6 9.7-1.1.3-1.9 1.3-1.9 2.2 0 1.1-.5 1.5-1.5 1.1-.9-.3-1.5 0-1.5.9 0 3.3-8.6 1.1-10.6-2.7-.8-1.6-1.9-2.6-2.5-2.2-.6.3-1.6-.1-2.2-.9-.8-1-2.3-1.3-4.3-1-3.4.5-3.6 2-1.1 7 1.1 2.4 4.5 3.1 6.3 1.3 1.4-1.4 5.6 0 5 1.7-.3.7.1 1.6.9 1.9.8.4 1.5 1.3 1.5 2.1s-.4 1.1-1 .8c-.5-.3-1 0-1 .8 0 .7-1.1 2-2.4 2.7-2.1 1.1-3.1 1.1-5.6 0-3.1-1.3-5.6-5.3-4.5-7.1 2-3.1-8.7-9.5-12.2-7.3-.9.5-1.4 1.3-1.2 1.6.2.4-.5 1.3-1.5 2.1-1.3 1-1.5 1.6-.8 2.1.7.4 1.2 1.6 1.2 2.6s1.1 2.7 2.5 3.8c2.7 2.2 3.3 3.7 1.1 2.9-1.7-.7-4 6.9-2.4 7.9.5.3.4 1.2-.3 2-.9 1.1-.8 1.9.6 3.4 1.1 1.2 1.6 2.9 1.3 4.5-.3 1.4-.2 2.5.2 2.5 1.5 0-.3 6.3-2 6.7-1.3.3-1.7 1.5-1.7 4.6-.1 2.3.4 5 .9 6 .6 1.2.6 2.9 0 4.7-.8 2.1-.7 3.1.6 4.3 1.4 1.5 1.4 1.7-.1 2.3-.9.3-1.7 1.7-1.7 3 0 1.8.9 2.7 3.5 3.8 3.9 1.7 4.5 3.8 1.6 6.3-1.4 1.2-1.8 2.4-1.4 4.8.3 1.8.1 3.5-.5 3.9-.7.4-.7 1.7-.1 3.8.7 2.5.5 3.4-.5 4-.8.4-1.2 1.7-.9 2.7.4 1.5-.2 2.1-2.9 2.7-3.4.9-4.5 1.1-6.4 1.3-.7 0-1.4 1.1-1.7 2.2-.4 1.4-1.1 2-2.1 1.6-.8-.3-1.7.1-2 .9-1 2.5-.7 3.4.9 3.4.8 0 1.5-.5 1.5-1 0-.6.9-1.9 1.9-2.9 2-2 4.1-1.1 4.1 1.6 0 1.1 1.3 1.8 2.3 1.1.1-.1 1.3.5 2.7 1.3 2.7 1.5 6.2 2.1 5.5.9-.5-.8 6.6-2.1 7.4-1.4.2.2-.1 1-.7 1.7-.9 1-.8 1.7.1 2.6.9 1 .8 1.1-.5.6-2.6-1-2.3-.1 1.7 5.1 1.9 2.5 3.2 5 2.9 5.6-1.3 2.1-1.1 17.3.3 20.7.8 1.8 1.2 3.9.9 4.6-.2.7 0 1.7.6 2.3.6.6 1 4 .9 7.6-.1 3.6.3 6.7.9 7.1.5.3 1 1.5 1 2.6 0 1 .5 1.9 1 1.9.6 0 2.2 1.1 3.5 2.5 2.8 2.7 3.3 6.5.9 6.5-1.1 0-1.4.6-.9 2.1.4 1.3.2 2.5-.5 2.9-2.7 1.7-.2 4 4.4 4 4.4 0 5.8 1.3 6.1 5.5 0 .5 2 1.2 4.4 1.5 3.4.4 4.5.9 4.7 2.5.2 1.1-.1 2.2-.6 2.5-.6.4-.3 2.7.8 5.7 1.4 3.8 2 4.7 2.9 3.8.7-.7.9-2.3.6-3.5-.4-1.5-.2-2.1.4-1.7.6.4 1.8-.4 2.7-1.7 1-1.6 2.2-2.3 3.5-1.9 1.3.3 2.3-.2 3-1.6 1-1.8 1.5-1.9 3.6-.9 3.1 1.4 3.8.7 3.9-3.7.1-3.6.4-3.8 5.6-3.9 1.8-.1 2.6-.7 2.8-2.4.2-1.2.8-2.2 1.3-2.2.6 0 .8-2.2.6-5.2-.6-7.7-.1-8.8 4.4-8.8 4.9 0 7.8 1.1 11 4.4 3.2 3.2 8.9 4.7 8.9 2.2 0-1.3.4-1.4 2.3-.5 1.6.7 3.1.6 5.7-.5 1.9-.8 2.9-1.5 2.3-1.6-1.9 0-1.5-3.2.6-5.8 2.1-2.5 3.7-2.8 4.4-1 .3.7.6.4.6-.6.1-1.1.4-1.7.7-1.3.3.3 1.9-.7 3.4-2.3 2.4-2.5 3.4-2.8 7.4-2.6 4.4.3 4.6.2 4.6-2.3 0-1.5-.5-3.2-1.2-3.9-.7-.7-.9-1.2-.6-1.2.4 0 1.3.7 2.2 1.5 1.4 1.4 1.5 1.3 1.1-1.2-.2-1.6-.6-3.6-1-4.6-.6-1.5-.4-1.6 1.7-.8 1.8.7 2.9.4 4.6-.9 1.4-1.2 1.9-2.1 1.1-2.5-.6-.4-.8-1.8-.5-3.1.4-1.5.1-3.3-.9-4.7-1.5-2.1-2.1-5.7-.9-5.7.3 0 1.5.5 2.6 1.1 1.4.8 2.3.8 3.1 0 1.5-1.5 4.4-1.4 5.1.1.4.7.4.3.2-.9-.3-1.8.2-2.2 3.6-2.5 2.2-.2 4.2 0 4.4.4.3.4 1.8.8 3.4.8 2.7 0 2.8-.1 2.3-4.1-.5-3.7-.4-4.1 1.3-3.5 2.9.9 4.6-.8 4.2-4-.3-2.6-.7-2.9-4-2.9-3.1 0-3.5-.2-2.7-1.7 1.3-2.5 0-4.8-2.7-4.8-2.8 0-3 .7-.8 3.9 1.6 2.2 1.6 2.3-.3 1.2-2-1-3.6-4.5-2.5-5.5.3-.3 1.3-.6 2.3-.6 2.5 0 3.2-1.6 1.4-3.3-.8-.9-1.5-1.8-1.5-2.2 0-1.6 2.6-3.1 4.9-2.7 3.8.5 6.7-2.8 5.1-5.9-1.1-1.9-1-2.5.6-3.6 1-.7 1.3-1.3.7-1.3-.8 0-1-1.2-.6-3.3.3-2.3 0-3.7-1.1-4.6-.9-.7-1.6-1.9-1.6-2.6 0-1.9 5.7 1 7 3.6.6 1 1.9 1.9 2.9 1.9s2.6.9 3.6 2c1.2 1.4 2.2 1.7 3.4 1.1 1-.6 2.5-.4 4.4.7 2.2 1.3 2.7 2.3 2.4 4.1-.3 1.4-.1 3.6.5 5 .6 1.7.6 2.7-.1 2.9-.7.2-.7 1.1.1 2.5.7 1.2 1.1 2.6 1 3-.1.5.9 2.2 2.3 3.9 2 2.4 2.3 3.3 1.4 4.4-.9 1.1-.9 2.4 0 5.3 1.1 3.9.7 7.1-1 7.1-.5 0-.8.3-.7.7 0 .5-.2 1.6-.6 2.5-.4.9-.3 2.5.3 3.6.8 1.5.8 2.1-.1 2.4-.7.3-.5.7.6 1.1 1 .4 1.5.3 1.1-.3-.3-.6-.2-1 .4-1 1.8 0 3.4 4.1 2.2 5.3-1.6 1.6-1.4 2.4 1 4.5 1.6 1.6 2 2.9 1.7 6.8-.2 2.7-.7 4.8-1.3 4.7-1.8-.3-2.6 2.6-1.3 4.7s5.4 2.8 6 1c.2-.6 2.9-1.7 5.9-2.4 5.1-1.2 5.9-1.1 8 .5 1.3.9 2.7 1.5 3.1 1.3.5-.3 2 .3 3.6 1.4 5.4 3.8 8.7 3.7 8.3-.3-.1-1.5 5-1.6 7.7-.3 1.6.8 2.6.9 3 .2.4-.6 1.5-1.3 2.4-1.7 2-.7 1.3-4.5-1.1-6.4-1.8-1.4-.3-1.7 1.8-.4.9.6 2.2.5 3.5-.3 2.9-1.7 12.5-1.4 13.6.4.8 1.3 1.3 1.3 3.1.1 1.9-1.1 2.3-1.1 3.1.3.5.9 1.6 1.6 2.3 1.6.8 0 1.5.7 1.5 1.5s.6 1.5 1.3 1.5c.7 0 3.9 1.8 7.2 3.9 5.4 3.6 6 3.8 6.3 2.1.4-2.3 5-6.2 6.4-5.4.5.3 1.5 0 2.3-.6 1.3-1 1.2-1.4 0-2.7-.8-.8-1.5-2.5-1.5-3.8 0-1.3-.9-3-2.1-3.8-1.1-.8-3-3.2-4.1-5.3-1.9-3.7-9.6-11.9-10.9-11.6-.3 0-1.8-.9-3.3-2.1-2-1.6-2.9-3.3-3.1-6.1-.2-2.2-1-4.3-1.7-4.7-.9-.6-.4-.9 1.5-.9 2.6 0 3.4-.9 2-2.4-.6-.6-1-2.4-1.7-7.5-.1-1.4-1.4-3-2.9-3.8-3.2-1.6-3.6-3.8-.5-3 2.8.8 6.1-1 5.4-2.9-.4-1.2-.1-1.4 1.5-.9 2.6.9 5.1-1.2 4.4-3.6-.5-1.4.1-2.2 1.9-3.1 1.4-.6 2.6-1.8 2.6-2.6s.6-1.2 1.4-.9c1 .4 1.3.1.9-.9-.3-.8.4-2.5 1.6-3.8 1.2-1.3 2.1-2.7 2-3.2-.1-.5.1-1.7.6-2.7.5-1.1.2-2.4-.9-3.6-.9-1-1.6-2.3-1.6-3 0-.7-.9-3.4-2.1-6.1-1.8-4.1-3.2-5.7-5.9-6.5-.3-.1-2.2-.9-4.4-1.8-2.1-.9-4.2-1.7-4.7-1.7-.4 0-.9-1-1.1-2.3-.2-1.7-1.1-2.3-3.6-2.5-2.5-.3-3.6-1-4.5-3l-1.1-2.7-.4 3.5c-.2 1.9-.8 4.1-1.4 4.7-.7.9-.7 1.3.1 1.3.6 0 1.1.4 1.1 1 0 .5-.9 1-2 1-1.5 0-2 .7-2 2.7 0 2.2-.8 3.1-3.3 4.3-1.7.8-3.6 2.4-4.1 3.6-.6 1.3-2.6 2.5-5.4 3.3l-4.5 1.2.6 5.3c.5 5.2.5 5.3-2.7 6.4-1.8.7-4 1.2-4.9 1.2-.9 0-1.7.6-1.7 1.3 0 2.1-4.3 3.7-6.5 2.5-1.6-.9-1.7-.8-1.1 1.6.6 2.4.4 2.6-2.4 2.6-2.1 0-3 .5-3 1.6s-.6 1.4-2 .9c-1.3-.4-2.2-.1-2.6.9-.3.9-1.1 1.6-1.6 1.6-.6 0-.8-.6-.5-1.4.3-.8-.1-1.7-.9-2-.8-.3-1.4-1.4-1.4-2.5 0-1.2-.9-2.1-2.5-2.5-1.8-.5-2.5-1.3-2.5-3.1 0-2.2.4-2.5 3.3-2.3 3 .3 3.2.1 3.5-3.5.2-2.6-.1-3.9-1.2-4.3-.9-.3-1.3-1-1-1.6.3-.5-.4-2-1.5-3.2-2.3-2.5-2-6.6.4-4.6 1.5 1.3 2.5.3 2.5-2.7 0-1.2.5-2.3 1-2.3.6 0 1-.6 1-1.4 0-1.8-7.8-7.6-9.4-7-.7.3-2.8-1-4.8-2.8l-3.7-3.3 1.9-5.5c1-3 1.9-6.2 1.9-7.1.1-1.1 1.4-1.9 3.8-2.4 2.1-.4 4-1.1 4.3-1.6.4-.5 3.8-.3 8 .4 9.8 1.6 15.6 1.6 15.3-.1-.4-1.8.8-1.5 3.3.9 1.4 1.3 2.7 1.8 3.6 1.3.7-.5 2.6-.7 4.3-.5 2.4.2 2.8 0 1.8-1-1.9-1.9-1.6-3.2.7-2.6 1 .3 2.4-.1 3.1-.9.6-.8 2.2-1.4 3.5-1.4 1.5 0 2.4-.6 2.4-1.6s.6-1.4 1.4-1.1c1.8.7 2.8-4 1.4-6.6-.5-1-.7-2.6-.4-3.4.4-.9.1-2.1-.5-2.9-.8-1-.6-1.6.9-2.5 2-1.2 2-1.3-.4-3.2-1.3-1-2.4-2.4-2.4-3.2 0-1.8 5.2-3.5 12.8-4.2 5-.5 6.2-.9 6.2-2.3 0-2 4.5-4 8.9-4 2.6 0 5.2-1.7 8.4-5.7 1.5-1.8 1.7-2.5.7-4.4-1.1-2-1-2.1 1.3-1.5 1.6.4 2.9.1 3.7-.9.7-.8 1.6-1.3 2-1 .4.2.8-2.1.9-5.2.1-5.3 2.3-13.2 4.4-16 .5-.7.6-2.1.2-3.2-.5-1.6-.3-2 1-1.5 1.9.8 8.7-2.6 8.1-4.1-.2-.5-1.2-.9-2.2-.7-1 .2-6.4.5-11.9.8-8.4.4-10.1.2-11.2-1.1-.6-.9-3.1-1.9-5.5-2.2-4.4-.6-7.8-2.7-7.8-4.8 0-.6-1.1-2.2-2.4-3.4l-2.4-2.2-.7 4.8c-.8 5.8-1.9 6.6-6.2 4.8-1.9-.8-3.5-1-3.8-.4-.4.5-1.3.5-2.5-.1-2.8-1.5-4-1.2-3.3.7.5 1.2.2 1.5-1 1-1.7-.7-1.8-.5-2.1 4.8-.1 3.5-3.4 4.7-5.6 2-.7-.8-2.3-1.5-3.5-1.5-1.2 0-2.8-.7-3.5-1.5-.7-.8-1.9-1.5-2.8-1.5-.8 0-2.9-.9-4.6-1.9-1.7-1.1-4.4-2.2-5.9-2.5-1.4-.2-3.1-.7-3.6-1.1-.5-.3-1.4.2-1.9 1-.8 1.5-1.3 1.4-4.5-.5-2.1-1.2-4.3-2-5.1-1.7-2.1.8-8.6-1.3-13.3-4.4-2.6-1.7-4.3-2.3-4.3-1.6 0 .8-1.5 1.2-4.1 1.2-4 0-4.7.5-7.4 5.1-.7 1-2.4 1.8-4.5 1.8-1.9.1-4 .5-4.6.9-1.7 1-7.7-1.8-9.2-4.2-1.2-2.2-4.2-2.9-4.2-1.1 0 .5.5 1 1 1 .6 0 1 .4 1 1 0 .5-1.9 1-4.2 1-3.2 0-4.9.6-6.5 2.4-3.6 3.8-5.8 3.8-10.7 0-4.5-3.4-6.2-4.2-5.1-2.5.3.5.1 1.2-.4 1.5-1.4.9-2.5-1.4-2.3-4.6.1-1.7 2-4.6 5.2-7.9 2.9-3 4.8-5.9 4.5-6.6-.2-.8-.1-1.2.3-.9.4.2 1.2-.7 1.9-2 .9-2 .8-2.8-1-5-2-2.6-2-2.7-.3-4 1.3-.9 1.7-2.1 1.4-3.9-.3-1.4-.1-2.8.4-3.1.5-.3.1-1.5-.9-2.6-1.8-2.1-1.8-2.1 1.9-1.5 2.1.3 4 .1 4.4-.4.3-.5 1.4-.7 2.5-.4 1.6.5 1.9.1 1.9-2.3 0-2.5.6-3.1 3.9-4.2 2.1-.7 4.4-.9 5-.6.6.4 1.1.3 1.1-.3 0-.7.8-.7 2.5-.1 2 .8 2.7.6 3.5-1 .6-1.1 1.6-1.7 2.4-1.4 1.8.7 1.9-5.1 0-6.7-.8-.6-1.4-2.3-1.4-3.8 0-1.4-.7-3.5-1.6-4.6-1.5-2-1.5-2-2 .1-.8 2.8-5.9 6.5-7.9 5.8-.9-.4-2.7-.1-4 .6-2 1.1-2.8 1-5-.4-1.4-.9-2.5-2.1-2.5-2.6 0-.6-.7-1-1.6-1-.8 0-2.2-.6-2.9-1.3-.8-.6-2-1.7-2.7-2.2-.7-.6-4.4-1-8.2-.9-5.7.1-7.2.5-8.5 2.2-1.6 2-1.7 2-3.8.3-1.2-1-2-2.1-1.7-2.4.3-.3.5-3.3.5-6.7 0-6.2-1.7-10-4.6-10-1.2 0-1.3 4-.1 5.9.6.9-2.9 2.9-7.6 4.5-1.1.3-1.5 1.1-1.2 2.1.4.9-.1 2.2-1.2 3-2.2 1.6-5.8 2-4.9.5 1-1.6-4.2-1.2-7.6.6-1.7.8-4.2 1.4-5.7 1.2-2.2-.3-2.9-1.1-4.2-5.4-.8-2.8-3.2-7.1-5.2-9.7-2.1-2.5-3.8-4.9-3.8-5.3 0-1.8-4.6-7.4-6.2-7.4-1.7 0-7.8-8.3-7.8-10.7 0-.8.8-1.3 1.8-1.1 2.4.4 2-4.3-.8-8.2-1.2-1.6-1.9-3.4-1.6-3.9.3-.5-.1-1.4-.9-2.1-1.2-1-1.3-1.6-.4-2.7.9-1 .9-2-.2-4.1-1.7-3.4-3.7-4.7-6.9-4.7-1.8 0-2.5-.6-2.6-2.1-.2-2.9-1.2-4.4-2.7-3.9-1.7.7-3-.5-4.5-4l-1.2-3 2 2.4c1.7 2 2.3 2.2 3.3 1.1.9-1 .9-1.3 0-1.7-.7-.3-1.3-1.3-1.3-2.3 0-1.1-1-2.4-2.1-3.1-2-1-2.1-.9-1.6 1 .3 1.2.2 1.9-.3 1.6-.4-.3-1.1-1.7-1.4-3.1-.8-2.9.8-4.8 3.2-3.9 1.8.6 1.5-.6-.5-2.1-1.5-1.1-1.6-1.5-.4-2.3.7-.5 1-1.4.7-2-.5-.7.1-1.1 1.5-1.1 1.8 0 1.9-.2.9-1.5-.9-1-.9-1.5-.1-1.5.6 0 1.1-.8 1.1-1.7 0-.9.7-2.4 1.6-3.4 1.6-1.8 1.2-5.9-.7-5.9-.5 0-.9-1.1-.9-2.5 0-1.7-.4-2.3-1.4-1.9-.8.3-1.7 0-2.1-.6-.5-.8-1.1-.8-2.1.1-1.4 1.2-1.9.3-1.5-2.8.2-1.2-1.6-2.6-3.7-2.9-1.9-.3-9.2-5.5-9.2-6.5 0-.5-.7-.9-1.5-.9-2.2 0-3.8-3.8-3.1-7.5.5-2.5.3-3.4-.9-3.9-.9-.3-1.4-1-1.1-1.5.3-.4-.3-1.6-1.3-2.5-1.8-1.7-2.7-7.1-1-6 .5.3.9 0 .9-.5 0-.6-.4-1.1-1-1.1-1.5 0-3.5-4.3-2.2-4.8 1.3-.4.5-3-1.7-5.5-1.5-1.8-1.4-2 .8-3.8 2.1-1.7 2.2-2.3 1.2-4.5-1.4-3.2-1.4-3.4.3-3.4.7 0 1.9-.6 2.6-1.4.6-.8 1.9-1.2 2.7-.9 1 .4 1.4.2 1-.4-.8-1.3 3.9-2.7 5.5-1.7.6.4.9.3.5-.2-.3-.5.3-2.6 1.3-4.7s2.2-5.2 2.5-6.9c.8-3.3 3.1-6.3 4.9-6.3.6 0 1.1-1 1-2.3 0-1.2.3-2.2.8-2.2.4 0 .8-1.1.8-2.5 0-2.5 1.5-3.5 2.2-1.4.2.7.8.6 1.6-.3.9-1.2.8-1.9-.4-3.4-1.1-1.3-1.7-1.5-2-.7-.4 1-1.2.9-3.5-.2-1.6-.9-2.9-1.9-2.9-2.4 0-1.3-8.6-3.4-11.2-2.8-1.3.3-3.2-.1-4.2-.9-2.2-1.6-6.6-1.9-6.6-.5 0 .6-2 0-4.5-1.2-3.2-1.6-4.5-2.8-4.7-4.7-.3-2.8-5.4-5.7-11-6.3-4.1-.4-8-2-9.6-3.9-.6-.8-3-2.3-5.3-3.4-4.1-1.8-4.1-1.8-5.9.4-1.1 1.3-2.4 2-3.4 1.6-.8-.3-2-.3-2.7.1-.6.4-2.8.8-4.9.9-5.5.3-9.9-4.4-10.6-11.1-.2-2.6-.8-4.9-1.4-5.1-.5-.2-2.5-1.7-4.6-3.3-2-1.6-4.5-2.9-5.6-2.9-1 0-2.9-1.1-4.2-2.5-2.4-2.6-8.8-3.6-10.1-1.5-1.1 1.8-2.8 1.1-2.2-.9.3-1.2-.1-2.2-.9-2.5-.8-.3-1.3-.9-1.3-1.3.4-1.5-3.3-8.8-4.8-9.6-1-.6-1.1-1.2-.4-2.1 1.2-1.5-.3-4.1-1.8-3.2-.7.4-1.1 0-1.1-1.2 0-2.1-4.2-4.8-5.8-3.8-.6.4-1.4 0-1.9-.7-.9-1.5-6.5-4.7-8.3-4.7-1.8 0-3.8-2.5-3.7-4.5.2-1.3-.8-2.2-3.3-2.9-1.9-.5-3.7-1.1-3.9-1.2-.1-.1.9-1.8 2.3-3.7 1.4-1.8 2.3-3.7 1.9-4.1-.4-.4-.1-1.1.6-1.6 1.1-.6.7-1.5-2-3.9-1.9-1.7-3.5-2.7-3.7-2.1-.2.5-.8 1-1.4 1-.5 0-.8-.6-.5-1.3.6-1.6-1.2-4.9-2.3-4.2-.9.5-4.2-3.6-5.3-6.7-.5-1.3 0-1.9 1.8-2.4 3.1-.8 3.1-1.1.3-3.6-1.3-1.1-1.7-1.6-.9-1.2 1.1.5 1.3.3.8-1-.5-1.1-.3-1.5.5-1s.9-.3.5-3c-.5-2.9-.1-4.1 1.6-5.9 2.4-2.4 6.1-7.8 5.5-8-.2-.1-1.3-.8-2.5-1.5-1.3-.6-2.6-1.1-3-1-.5.1-2.5.3-4.5.5zm99.2 120.2c0 .6-.4 1.3-1 1.6-.5.3-1-.1-1-.9 0-.9.5-1.6 1-1.6.6 0 1 .4 1 .9zm-151.5 41.1c-.9 1.4-2.5-.5-2.5-3 0-1.2.3-1.2 1.6.2.9.9 1.3 2.1.9 2.8zm101.5 35.4c0 .8-.6 1.6-1.4 1.9-1 .4-1.2 0-.9-1.4.6-2.2 2.3-2.6 2.3-.5zm-.6 6.1c.3.8.1 1.5-.4 1.5-.6 0-1-.7-1-1.5s.2-1.5.4-1.5.6.7 1 1.5zm-4 5.1c.5 1.9.1 3.3-1.3 4.8-2.2 2.4-2.7 4.6-1.1 4.6.6 0 1 1.7 1 3.9 0 3-.4 4-2 4.4-1.1.3-2.3.1-2.6-.4-.9-1.6-3.2-1-3.9 1.1-.4 1.3-1.5 2-3.1 2-1.3 0-2.4.4-2.4 1 0 .5-1.1 1-2.5 1-1.7 0-2.5-.5-2.5-1.8 0-.9-1-2.2-2.2-2.7-1.2-.6-2.4-1.7-2.6-2.5-.5-1.3-.3-1.3 1.1-.2 2.1 1.7 4 .6 3.2-1.9-.6-1.7-.4-1.7 2.1-.4 3.6 1.8 4.3 1.1 1.7-1.8-1.2-1.3-2.1-3.8-2.2-6.4l-.2-4.1 4.3 1.3c7.2 2.2 9.8 3.4 9.8 4.5 0 .6.5.8 1.1.5.6-.4.8-1.3.5-2.1-.3-.7-.1-1.6.4-1.9.6-.4 1-1.7 1-3.1 0-3.2 1.6-3.1 2.4.2zm1.6 24.2c0 1.5-.2 1.5-1 .2-1.3-2-1.3-3.3 0-2.5.6.3 1 1.4 1 2.3zm120.4 51.1c.3.5-.1 1.1-.9 1.5-.9.3-1.5 0-1.5-.9 0-1.6 1.6-2 2.4-.6zm149.6 223.2c0-.7 1.6 0 3.7 1.6 2 1.5 3.4 2.2 2.9 1.5-.9-1.5-.1-1.5 2.5-.1 1.1.5 1.6 1.5 1.3 2.1-.4.6-.7 2.6-.6 4.5l.1 3.3-3.9-2.5c-2.2-1.4-4.6-2.5-5.5-2.5-.8 0-1.5-.8-1.5-1.8 0-.9-1-3.5-2.1-5.7l-2.1-4 2.6 2.4c1.4 1.4 2.6 1.9 2.6 1.2zm-7.3 15.1c-.3.8-.6.5-.6-.6-.1-1.1.2-1.7.5-1.3.3.3.4 1.2.1 1.9zm13.8-.2c.3.5.2 1-.4 1-.5 0-1.3-.5-1.6-1-.3-.6-.2-1 .4-1 .5 0 1.3.4 1.6 1zm-21.6 13.9c.7 1.3.6 2.4-.4 3.7-1.6 2.3-2.3 1.8-3.1-2.4-.5-2.5-.3-3.2.9-3.2.9 0 2.1.8 2.6 1.9zm2.1 5.4c0 .8-.6 1.4-1.4 1.4-.8 0-1.2-.6-.9-1.4.3-.7.9-1.3 1.4-1.3.5 0 .9.6.9 1.3zm112.8 21.8c-.7.5-.9.9-.5.9.5 0 .5.4.2 1-.6 1-6.5-4.4-6.5-6 0-.5 1.8 0 4.1 1.2 2.9 1.5 3.7 2.3 2.7 2.9zm-132.5 2.5c1.2.4 1.3 1.1.4 3.5-1.5 3.9-2.7 3.7-2.7-.6 0-3.7.1-3.8 2.3-2.9zm53.7 1.6c0 .6-.6.5-1.5-.2-.8-.7-1.5-1.4-1.5-1.6 0-.2.7-.1 1.5.2.8.4 1.5 1.1 1.5 1.6z"/><path d="M229 322.763c0 .5.4 1.5.9 2.3.8 1.2 1.3 1.2 2.4.3.9-.7 2.7-1 4.8-.6 2.5.5 3.1.4 2.4-.5-1.3-1.4-10.5-2.7-10.5-1.5zM204 128.863c.8.3 1.9 1.2 2.3 2 .5.7 1.3 1.1 1.8.7 1.6-.9-1-3.4-3.5-3.3-1.4 0-1.6.2-.6.6zM24.9 131.863c-.3 1.8-.2 3.3.2 3.3 1.3 0 1.6-1.4.9-4-.6-2.4-.7-2.4-1.1.7zM30.2 131.663c-1 2-.9 2.7.2 3.1.7.3 1.7.4 2.2.2 1.3-.4 10 7.1 11.2 9.7.6 1.3 2.7 2.8 4.6 3.5 2 .6 3.6 1.6 3.6 2.1s.9.9 2 .9 2 .4 2 1c0 .5.5 1 1 1 2.5 0-.6-8.1-4.1-10.7-.9-.7-2-2.4-2.3-3.8-.4-1.4-1.3-2.5-2-2.5-.8 0-1.6-.5-1.8-1.2-.2-.6-3.1-1.9-6.4-2.8-3.2-1-6.6-2-7.5-2.4-1.1-.5-1.9.1-2.7 1.9zM20.5 144.163c-.7 1.2 1.2 4 2.7 4 1.3 0 .6-4.3-.9-4.7-.6-.2-1.4.1-1.8.7zM28.8 148.463c-1.6.6-2.8 1.3-2.8 1.6.1 1 2.5 3.6 4.4 4.6 1.1.6 2.6 3.3 3.5 6 .9 2.8 1.9 5.5 2.3 6.1.9 1.4 10.1.1 10.6-1.4.2-.7 1.5-.9 3.3-.5 2.2.4 2.9.2 2.9-1.1 0-.9.5-1.6 1-1.6 1.1 0 .2-5.1-1-6-.3-.3-.9-1.3-1.3-2.3-.3-.9-1.4-1.7-2.3-1.7-1 0-2.5-.6-3.3-1.4-3.9-3.3-12-4.4-17.3-2.3zM58.7 155.963c-.3.4-.3 1.9 0 3.4.6 3.1 4.1 4.8 5.4 2.7 1.3-2.1 1.1-2.9-.7-2.9-.9 0-1.8-.9-2.1-2-.5-2-1.8-2.6-2.6-1.2zM72.5 162.963c-2.7.5-4.4 2.2-2.2 2.2 1 0 1.7.8 1.7 2 0 1.1-.5 2-1.1 2-.6 0-.9.6-.6 1.3.3.7-.3 1.9-1.3 2.5-1.6.9-2.2.7-3.7-1.3-1.3-1.8-2.2-2.2-3.3-1.5-1.3.8-1.1 1.1.8 1.6 2.2.6 3.1 2.4 1.2 2.4-.5 0-1 .7-1 1.5 0 1.8 1.7 2 2.3.2.3-.9.8-.9 1.8.2 1.2 1.2 1.2 1.3 0 .6-1-.6-1.2-.4-.6.4.5.9 1 1 1.8.2 1.7-1.7 2.7-1.3 2.7.9 0 1.5.7 2 2.9 2 3.3 0 4.9-1.5 2.6-2.4-.8-.3-1.5-1.5-1.5-2.6 0-1.2-.5-3.1-1.1-4.2-1-1.9-.9-2 1-1.5 1.1.3 2.1.1 2.1-.4s-.6-.9-1.2-.9c-.9 0-.8-.4.2-1 1.2-.8 1.2-1-.5-1-1.3 0-1.6-.3-.8-.8 1.7-1.1.1-2.9-2.2-2.4zM58.9 166.063c2.1 2.3 2.9 2.6 4.3 1.7 1.7-1 1.7-1.2-.4-2.8-1.5-1.1-2.5-1.3-2.9-.6-.4.7-.9.7-1.3-.1-.4-.6-1.1-1.1-1.5-1.1-.5 0 .3 1.3 1.8 2.9zM55.7 171.163c-1.4 1.1-3.2 2-4.1 2-.8 0-2 .9-2.6 2-.7 1.3-2.1 2-4.1 2-1.7 0-2.8-.4-2.5-.9.9-1.3-.3-3.9-2-4.5-.8-.3-1.3-.2-1 .2.2.4.7 3.1 1.1 5.9.4 4.2.2 5.4-1.1 6.1-2.3 1.3-1.1 5.8 1.7 6.5 1.7.5 2 .2 1.6-1.4-.6-2.1.3-2.5 2-.8.8.8 1.7.8 3.1 0 2-1.1 5.2-.6 5.2.8 0 1.6 4 .9 4.2-.7.4-4.6.2-9.2-.4-9.2-.5 0-.8-.7-.8-1.5 0-.9.6-1.2 1.5-.9.8.4 1.5.2 1.6-.2.8-8.1.6-8.5-3.4-5.4zM20 181.063c0 2.4-.4 3.1-1.6 2.9-2.8-.5-2.6 1.9.4 5.4 3.4 3.9 5.2 9.4 2.8 8.5-.9-.4-1.6-.2-1.6.3 0 .6-.6 1-1.4 1-.8 0-1.7.7-2 1.6-.6 1.6-1.8 1.6-6-.2-1.7-.7-1.9-.4-1.4 3.4.7 4.5-.5 5.7-4.8 4.6-2-.5-2.3-.3-1.8 1.2 1.1 3.2 4.6 6.5 5.8 5.5.6-.5 2.2-.7 3.6-.6 1.4.2 3.1.4 3.8.4.6.1 1.2.7 1.2 1.4 0 .8 1.1 2 2.5 2.7 1.4.7 2.5 1.7 2.5 2.2 0 .5.8.7 1.8.4.9-.3 3.1-.7 4.7-.9 1.7-.2 5.2-1.7 7.8-3.4 4.2-2.6 4.6-3.1 3.3-4.3-1.8-1.4-2.2-5-.6-5 .5 0 .7-1.4.3-3.3-.9-5-.9-5.2.5-4.9 1 .2 1-.2.2-1.7-.5-1.1-1-2.9-1-4 0-1.2-.7-2.1-1.5-2.1s-1.5-.4-1.5-.9-1-1.2-2.2-1.5c-2.2-.7-2.2-.7-.3-1.6 1.1-.5 1.4-.9.8-.9-.7-.1-1.9-1.6-2.7-3.4-.8-1.7-1.5-2.6-1.5-1.9-.1 1.8-5 .5-7.8-2.1l-2.3-2v3.2zm13.7 31.7c-.3.3-1.2.4-1.9.1-.8-.3-.5-.6.6-.6 1.1-.1 1.7.2 1.3.5zM96 180.463c0 1.9 1.6 3.1 2.4 1.8.3-.5-.1-1.4-.9-2.1-1.2-1-1.5-1-1.5.3zM81.7 184.163c.8 1.7 1.6 3.6 1.7 4.3.6 3 4.3 7.6 8 10l4 2.6 2.3-2.5c1.2-1.3 2.7-2.4 3.3-2.4.7 0 .9-.8.4-2.3-.3-1.2-.7-2.2-.8-2.3 0 0-1.8-1.1-3.8-2.3-2.1-1.2-3.8-2.6-3.8-2.9 0-1.2-6-3.4-7.6-2.8-.8.3-1.7-.1-2-.9-.4-.8-1.2-1.5-1.9-1.5-1.1 0-1 .6.2 3z"/><path d="M0 189.663c0 .2 1.8 2.5 4 5 3.6 4.1 4 4.4 4 2.2 0-2.4-3.1-5.9-6.2-7-1-.4-1.8-.5-1.8-.2zM282.1 201.763c.7.9 1.2 2.9 1.1 4.6-.2 2.5.1 2.9 1.6 2.4 1.2-.4 2.6.1 3.8 1.5 1.7 1.9 6.5 4.9 7.9 4.9.3 0 .5-1.1.5-2.5 0-1.6-.6-2.5-1.6-2.5-1.1 0-1.4-.6-.9-2 1-3.2-1-5-3.9-3.7-1.3.6-2.1 1.7-1.9 2.4.3.7 0 1.3-.6 1.3s-1.1-.7-1.1-1.5-.4-1.5-1-1.5c-.5 0-1-.9-1-1.9 0-1-.7-2.2-1.6-2.5-2.5-.9-2.7-.7-1.3 1zM288.7 213.863c1.1 3.1 1.5 3.5 2.3 2.2.5-.7.2-1.8-.5-2.6-1.9-1.8-2.6-1.6-1.8.4zM300.6 216.663c-.3.8-.1 1.5.4 1.5.6 0 1-.7 1-1.5s-.2-1.5-.4-1.5-.6.7-1 1.5zM374 247.663c0 .9.5 1.5 1.1 1.3.6-.2 1.1-.8 1.1-1.3s-.5-1.1-1.1-1.3c-.6-.2-1.1.4-1.1 1.3zM372 252.163c-.9 1.8-.8 2 1.4 2 1.3 0 2.6.5 2.8 1.1.2.7.9 1 1.6.8.7-.2 0-1.5-1.7-3.2-2.9-2.7-3-2.7-4.1-.7zM366 258.663c0 .8.5 1.5 1 1.5.6 0 1-.7 1-1.5s-.4-1.5-1-1.5c-.5 0-1 .7-1 1.5zM168.8 322.363c-2.3 2.3-2.3 2.8.2 2.8 1.1 0 2-.7 2-1.5 0-.7.8-1.8 1.8-2.4 1.5-.9 1.5-1-.3-.8-1.1.1-2.8.9-3.7 1.9zM157.3 337.463c-.1 3.6 0 3.7 1.6 2.3 2.1-1.9 2.5-1.9 7.4-.5 2 .5 3.7 1.6 3.7 2.4 0 .9.6 1.2 1.5.9.8-.4 1.5-.1 1.5.5s.9 1.1 2.1 1.1c1.1 0 1.8-.4 1.4-.9-.3-.5 0-1.3.5-1.6.8-.5.6-1.3-.5-2.5-1.8-2-1.3-2.6 3.3-4 2.4-.7 2.3-.8-1.3-.9-2.3-.1-4.7.5-5.4 1.1-1 1.1-1.4.9-2.2-.5-.9-1.5-2.1-1.8-7.2-1.5l-6.2.2-.2 3.9zM157.1 343.263c-.1.9-1.2 3.3-2.6 5.4-1.5 2-2.4 4-2 4.3.3.3.5 0 .5-.8 0-.9.3-1 1.3-.1 2.2 1.8 5.5-5 4-8.1-.8-1.6-1.2-1.8-1.2-.7zM499.3 448.263c-1.6.6-2.3 1.7-2.3 3.4v2.7l2.6-3.2c3-3.5 2.9-4.1-.3-2.9zM470.6 452.963c-.2.4.2 1.6 1 2.7 1 1.4 1.7 1.6 2.5.8.7-.7.9-1.9.6-2.7-.7-1.7-3.2-2.2-4.1-.8zM555.7 520.163c-.3 1.1-.1 2 .4 2s.9-.9.9-2-.2-2-.4-2-.6.9-.9 2zM339.6 570.863c.8 3.4 3 5.3 6.2 5.3 2 0 2.2-.2 1.2-1.5-.6-.8-2-1.7-3.1-2-1-.4-1.9-1.5-1.9-2.6 0-1-.7-1.9-1.5-1.9-1.2 0-1.4.7-.9 2.7zM597.5 621.163c.3.5 1 1 1.6 1 .5 0 .9-.5.9-1 0-.6-.7-1-1.6-1-.8 0-1.2.4-.9 1zM602.3 621.363c-2 2.5-2.1 5.5-.2 6.6 2.2 1.4 3.4-.1 1.4-1.8-1.1-.9-1.2-1.7-.4-3.2 1.2-2.3.6-3.4-.8-1.6zM501.4 685.663c.4 1.1 0 2.5-1 3.6-1.6 1.7-1.5 1.8 1.4.7 3.3-1.3 3.6-3.4.7-5.1-1.5-.8-1.7-.7-1.1.8zM315.7 690.263c-.9.6-1.7 1.8-1.7 2.8 0 .9-.7 2.6-1.5 3.7-2.3 3-1.8 3.7 1.4 1.8 2.2-1.3 3-2.7 3.4-5.3.5-4.3.6-4.2-1.6-3zM291 693.863c-2.1.9-4 3-3.3 3.6.8.8 6.3-2.1 6.3-3.3 0-1.1-.7-1.1-3-.3zM500.2 696.363c.6 1.8 3.8 2.2 5.2.8.8-.8.7-1-.6-.5-1.1.4-1.8.2-1.8-.4 0-.6-.7-1.1-1.6-1.1-.9 0-1.4.6-1.2 1.2zM507.3 703.263c-.1 1.6.1 2.9.5 2.9.9 0 1-4.5.2-5.3-.3-.3-.6.8-.7 2.4zM303.5 703.163c.3.5 1.3 1 2.1 1s1.4-.5 1.4-1c0-.6-.9-1-2.1-1-1.1 0-1.7.4-1.4 1zM301.2 705.763c.1.9.9 1.9 1.6 2.2.9.3 1.3-.2 1-1.4-.1-.9-.9-1.9-1.6-2.2-.9-.3-1.3.2-1 1.4zM516 709.063c0 1 2.9 3.6 3.4 3 .1-.2-.6-1.2-1.6-2.2-1-.9-1.8-1.3-1.8-.8zM297.8 709.863c.6.2 1.8.2 2.5 0 .6-.3.1-.5-1.3-.5-1.4 0-1.9.2-1.2.5zM522.3 715.463c-.2 3-.1 3.1.9.9.7-1.4.8-2.6.2-3.2-.6-.6-1 .2-1.1 2.3zM524.7 722.863c-.3.5-.1 1.7.3 2.8.6 1.7.7 1.6 1.2-.8.5-2.5-.5-3.7-1.5-2zM513 726.163c-2.2.6-2.3.8-.7 1.5 1.1.4 2.3.3 3-.4 1.5-1.5.7-1.9-2.3-1.1z"/></g></svg>