<svg version="1" xmlns="http://www.w3.org/2000/svg" width="651.021" height="623.408" viewBox="0 0 488.265 467.556"><g fill="#222"><path d="M480 1.023c0 .9-.7 2-1.6 2.5-1.1.6-1.5 1.7-1.1 3.1.4 1.8.2 2.1-1.5 1.9-3-.4-3.3 1.7-.8 4.2 2 2 2.3 2 3.9.6 1-.9 2-1.3 2.4-1 .6.6 1.2-1.4 2-6.6.2-1.5-.4-3.3-1.5-4.4-1.5-1.7-1.8-1.7-1.8-.3zM464.4 10.823c-.3.6-1.3.8-2.1.5-.8-.4-2.5.6-4 2.4-1.4 1.7-3.5 3-4.8 3-1.2 0-2.6.7-2.9 1.5-.4 1.3-1 1.4-2.6.5-1.7-.9-2.2-.7-2.9 1.4-.6 1.3-2 3.1-3.2 3.9-1.9 1.4-2.5 1.4-5.8 0-2-.9-4.5-1.9-5.6-2.3-1.6-.6-6.4-2.7-10.7-4.8-.5-.2-.8.1-.8.7s.7 1.1 1.6 1.1c.8 0 1.3.4 1 .9-.4.5-.1 2.2.5 3.7.7 2 .7 3 0 3.2-.8.3-.7 1 0 2.5.9 1.6.8 2.3-.3 3.1-.8.6-1.3 1.6-1.1 2.2.4 1.3-5.1 1.4-6.3.1-1.2-1.2-2.6-.8-2.1.5.2.7-.1 2.6-.7 4.3-.6 1.6-1.1 4.6-1.1 6.5.1 4.2-1.2 5.7-5.1 6.2-3.6.4-4.4 3.6-1.4 6.3 2.1 1.9 2.7 5 1.1 6-.5.3-1.6-.4-2.5-1.6-1.1-1.6-2.1-2-4-1.5-1.3.3-2.7.2-3-.3-.3-.4-1.7-.6-3.1-.3-1.4.2-3.1-.1-3.8-.7-1.6-1.3-2.8-.5-2.1 1.4.7 1.6-3.5 6-5.6 6-2.8 0-2.2 3.3.9 5.1 1.7 1 3.1 2.4 3.1 3.2 0 1.9 2.1 1 3.4-1.4.6-1 1.2-2.1 1.4-2.3.1-.2 1.3.2 2.7.9 2.9 1.5 4.3.7 2.6-1.4-1.1-1.3-.7-1.5 2.8-1.3 2.3.1 4.1.3 4.1.5s-1 1.7-2.1 3.4c-1.5 2.1-2 3.8-1.5 5.9.6 3.2-.7 6.8-3.1 8.2-1 .6-1.1 1.3-.2 2.9.8 1.6.8 2.2-.2 2.9-1.6 1-1 1.7 1.8 2.2 3.2.5 5.4 2.7 4.8 4.8-.4 1-.1 2.7.5 3.9.8 1.5.8 2-.1 2-.8 0-.8.4.1 1.5s1 1.8.1 2.8c-1.1 1.4-.5 2.7 1.2 2.7.5 0 .8-2.8.5-6.5-.4-6.7-.1-7.1 4-6.6.7.1 1.8-1.2 2.5-2.8.6-1.7 1.5-3.1 2-3.1s.6-.9.3-2-.9-2.9-1.2-4.1c-.5-1.8-.3-2 1.6-1.4 1.4.4 2.8.1 4.1-1.1 2.4-2.2 2.4-4.4 0-4.4-1.3 0-2.6-1.5-4.1-4.5-1.2-2.5-2.7-4.5-3.3-4.5-.5 0-.7-.3-.4-.6.4-.4 1.4-.1 2.3.6 1.3 1.2 1.7 1.1 2.4 0 .7-1.2 1.5-1.2 4.3-.2 5.6 2 6.4 1.7 6.9-3.3.3-2.5 1.7-6.3 3.2-8.5 2.4-3.7 2.5-4.4 1.6-8.6-1.3-5.6-.5-6.7 3.9-5.4 3.7 1 5.1.6 5.1-1.5 0-.7 1-1.7 2.3-2.1 2.7-.8 3.7-2.2 3.7-5.2 0-1.4.6-2.2 1.6-2.2.9 0 3.5-1.7 5.8-3.8 3.1-2.8 5.6-4 10.4-5.1 4.5-1 6.2-1.8 6.2-3 0-.9.6-2.8 1.4-4.3 1.2-2.2 1.2-3.2.3-5.2-1.4-2.9-5.3-5.1-6.3-3.5z"/><path d="M253.2 16.523c-.7.2-1.7 1.5-2.2 2.8-.5 1.2-2 3-3.3 3.9-2.1 1.3-2.7 1.4-5.2.1-4.1-2.2-6.5-.3-6.5 5.1 0 3.2-.4 4.3-1.9 4.8-1.4.4-1.7 1.2-1.3 2.7.4 1.7.2 2-1.1 1.5s-1.8.2-2.3 3.1c-.7 4.4-4.3 6.9-6.6 4.6-.7-.8-2.8-1.6-4.6-1.8-2.9-.3-3.7.3-3.3 2.6 0 .3-1.3 1.1-2.8 1.6-3.2 1.1-7.1 4.6-7.1 6.3 0 .5.5.7 1 .4.6-.3 1 .1 1 .9 0 2.7-7.5 3.4-8.5.8-.4-1.1-.8-1.2-2-.2-.8.7-1.5 1.8-1.5 2.4 0 .6-.8 1.6-1.9 2.3-2.2 1.4-3.3 6.1-2 8.5.7 1.3.6 1.8-.3 1.8-.9 0-.9.3 0 1.2.7.7 1.2 1.8 1.2 2.5 0 1.5-7.7 5.6-9 4.8-2.8-1.7-5.1-1.3-6.2 1.1-1 2-.8 2.8 1.1 4.8 1.6 1.7 1.9 2.6 1.1 3.1-.7.4-.9 2-.6 3.9.4 2.1 0 4.1-1.3 6.3-1.3 2.1-1.8 4.3-1.5 6.7.3 2.9.1 3.6-1.3 3.6-1.5 0-1.5.1.2 1.3 1.2 1 1.6 2.2 1.3 3.9-.4 2.2.1 3 3.2 4.7 2.1 1.2 4.6 2.1 5.7 2.1 1.1 0 2.3.3 2.7.7.4.5 1.3.8 1.9.8.7 0 1.4 1.1 1.5 2.4.2 1.3 1.2 2.6 2.3 2.8 1.5.4 1.8 1.1 1.3 2.7-.4 1.1-1.1 2.4-1.7 2.8-1.4.8 3.8 2.2 5.7 1.5.9-.4 1.9.6 2.8 2.6.8 1.8 2 4.3 2.6 5.7.6 1.4 1.1 2 1.1 1.3.1-.7.7-1 1.4-.8.7.3 3.5.1 6.2-.4 4.5-.9 5.2-.8 6.8 1.1 1.3 1.5 1.4 2.4.6 3.4-1.6 1.9 1.8 6.6 4.2 5.9 1.1-.4 1.9-.5 2-.3 0 .2.2 2.2.5 4.6l.6 4.2-2.7-1c-2.2-.9-3.2-.7-4.7.7-1.8 1.6-2.2 1.6-6.3.1-2.4-.9-4.6-1.3-5-1-.4.4-1 .7-1.3.7-.4.1-1.7.6-3 1.3-1.2.7-2.7 1-3.3.6-.6-.3-3.3 1.7-6.1 4.5-2.7 2.8-5.4 5.1-5.9 5.1s-1.2 1.2-1.5 2.7c-.8 2.9-2.7 5.3-4.1 5.3-.4-.1-2-1.8-3.4-3.9-1.5-2-4.2-4.5-6.2-5.4-2-1-3.9-2.2-4.3-2.8-.3-.6-2.2-.9-4.3-.8-2.9.2-4.2-.3-6.8-3l-3.3-3.2 2.5-2.5c2.4-2.4 2.4-2.7 1-5.4-.8-1.6-1.3-3.5-1-4.2.3-.8-.4-2.3-1.5-3.5-1.1-1.2-2-2.9-2-3.6 0-.8-1.2-2.2-2.6-3.2-1.8-1.1-2.3-2-1.6-2.7.7-.7.7-1.8 0-3.4-1.4-2.9-2.4-3-3.8-.4-1.5 2.7-7.6 2.8-8.5.1-.6-2-8.6-5.6-10.8-4.8-.6.2-2.4-.2-3.9-1-1.7-.8-2.8-.9-2.8-.3 0 2.1-2.8.9-6.6-2.8-2.1-2-4.1-3.7-4.5-3.7-.4 0-1-.3-1.3-.6-.6-.6-8.7.3-16.5 2-4.3.9-6.5.8-11.3-.5-4.4-1.1-6.3-1.2-7.3-.4-.7.6-2.4.8-3.7.5-4-1-11.8-1.2-11.8-.2 0 .4-1.2.7-2.7.6-1.6-.2-3.7.2-4.7.8-1 .6-2.7.8-3.7.6-1.4-.4-1.9 0-1.9 1.6 0 1.2-1.1 3.3-2.5 4.7-1.4 1.4-2.5 2.9-2.5 3.4s-1.3.7-3 .3c-1.7-.3-3-.1-3 .4s-1.9 1-4.2 1.1c-2.3.1-4.3.3-4.5.5-.1.2-.4 1.9-.6 3.8-.2 2.9-.7 3.5-3.5 4.4-1.7.5-3.2 1.5-3.2 2.2 0 .8-1.1 1.8-2.5 2.3-1.3.5-3 1.8-3.7 3-1 1.5-2.3 2-6 2H0v4c0 2.6.6 4.2 1.6 4.8 1.2.7 1.5 1.8 1.2 3.6-.4 1.8-.1 2.9.8 3.3.8.3 1.4 1.3 1.4 2.3 0 1 .7 2 1.5 2.4.8.3 2 1.6 2.6 3 .6 1.3 2.2 2.7 3.5 3 3.5.9 10.7 8.3 10 10.3-.4.9-.2 2 .5 2.4.8.5.8 1.2 0 2.5-.6 1.1-1.1 1.5-1.1.9 0-.9-4 6.4-4 7.4 0 .2.8-.3 1.8-1.1.9-.8 4.2-2.7 7.2-4.2 4.8-2.3 6.5-2.7 12-2.3 6.7.4 11.3 1.8 12.5 3.7.3.5 1.1.8 1.6.4.5-.3 1.7 0 2.5.7s3.5 1.1 5.9 1.1c2.4-.1 4.7.2 5 .8.4.6 1 .8 1.5.5 1.3-.8 13 10.6 13 12.5 0 .9.7 2.5 1.5 3.6.8 1.2 1.2 2.4.9 2.7-.3.3.4 1 1.5 1.6 1.1.6 1.8 1.7 1.5 2.5-.3.8-.1 1.7.5 2.1.6.3 1.1 1.8 1.1 3.3v2.7l2.1-3.3c1.9-2.9 2.3-3.1 3.4-1.6.9 1.3 1.4 1.4 1.9.5.6-.9 1.1-.9 2.2 0 .7.6 2.1.9 2.9.5 1.7-.6 2.1-4.6.5-4.6-.5 0-1-.7-1-1.5 0-1.3.4-1.4 2-.5 2.3 1.2 7 .3 6.7-1.3-.1-.7 1.3-1 3.7-.8 2.5.2 3.6-.1 3.2-.8-.5-.7.5-1.2 2.6-1.3 3.3-.1 5.4-.4 7.3-.8.6-.1 1.8-.2 2.7-.1 1.2.2 1.6-.3 1.2-1.3-.4-1 .2-1.7 2-2.2 2.7-.6 3.5-2.8 1.5-4-.8-.5-.8-.9.1-1.4.9-.5 0-2.1-3-5.3-4-4.4-4.7-7.3-1.4-6 .9.3 2 0 2.5-.8.7-1.1 1.1-1.2 1.7-.1.7 1 1.1 1 2.2-.3.7-.8 2.5-1.5 4.1-1.5 1.5 0 4-.5 5.4-1.2 2.2-1 2.4-1.6 1.9-4.5-.5-2.8-.2-3.7 2.1-5.5 1.9-1.5 2.6-2.7 2.2-4.4-.2-1.3 0-2.1.4-1.8.5.3.9 1.1.9 1.8 0 1.9 12.8 1.4 14.2-.5.7-1 .8-.8.5.9-.7 2.9 1.3 9.2 2.8 9.2.7 0 2 .9 3 2 2 2.2 4.1 2.1 9.8-.6 3.3-1.6 3.7-2.2 3.2-4.4-.4-1.3-1.2-2.8-1.8-3.2-2.3-1.4 2-.8 4.9.7 1.6.8 3 1.1 3.2.7.4-1.3 6.6 0 7.8 1.6.6.8 1.6 1.2 2.3.8.7-.5 2-.1 3 .8 1.6 1.4 2.2 1.5 4.9.3 2.6-1.1 3-1.6 1.9-2.6-1-1.1-.7-1.3 1.3-.7 1.4.3 4 .6 5.8.6 2.7 0 3.2.4 3.2 2.4 0 1.4.5 2.8 1 3.1.6.3 1 2 1 3.7 0 2.1.9 3.9 3 5.8 1.8 1.7 2.6 3.1 2 3.5-3.4 2.1 1.3 10.6 6 10.9 1.1 0 2.6 1.2 3.3 2.5.7 1.3 2.3 2.6 3.7 2.8l2.4.4-2.2-2.1c-1.4-1.3-2.2-3.3-2.2-5.4 0-3.3 2-6.2 3.3-4.9.4.3.7.1.7-.5s1.1-2.2 2.5-3.6c2-2 2.6-2.2 3.6-1 .6.8 2 1.4 3 1.4s2.3.9 2.9 1.9c1.3 2.5 1.3 3.4 0 2.6-.5-.3-1 0-1 .8s.7 1.8 1.6 2.1c1.2.5 1.4 1 .5 2-.6.7-.8 1.6-.4 1.9.3.4-.5.7-1.9.7-2.7 0-4.1 2-3.2 4.5.6 1.6-3.1 5.4-5.3 5.5-.7 0-1.3.7-1.3 1.5 0 .9-1.1 2-2.4 2.5-1.4.5-3 1.8-3.6 3-.7 1.3-2.1 2-3.9 2-1.6 0-3.1.7-3.5 1.5-.3.8-1.2 1.5-2 1.5-3.1 0-2.5 3 1.2 5.5 5.6 3.7 7.2 5.1 7.2 6.4 0 .6.5 1.1 1 1.1.6 0 1 .4 1 1 0 .5-.9 1-2.1 1-1.8 0-2 .4-1.5 2.6.8 3-1.5 5.3-5.1 5.4-2.4 0-3.1 1.4-1.3 2.5 1.1.7 1.4 8.4.4 10.9-.3.9-1.5 1.6-2.7 1.6-1.9 0-2 .1-.2 2 1 1.1 1.5 2.3 1.1 2.8-1.1 1-7.6 1.1-7.6.1 0-.5-.4-.9-.9-.9s-.5 1.5-.1 3.6c.7 3.1.5 4-1.6 6.1-1.3 1.3-2.4 2.8-2.4 3.2 0 .4-.9 1.6-2 2.6s-2 2.6-2 3.5c0 2.1-2 4-4.2 4-1 0-1.8.7-1.8 1.5s-.7 1.5-1.6 1.5c-.9 0-1.4.6-1.2 1.2.5 1.5-1.5 3.8-3.2 3.8-1.7 0-.8 3.3 1 3.7 1.3.4 1.3.3 0-.6-1.3-.9-1.2-1.1.6-1.1 1.7 0 2 .5 1.7 2.5-.4 2 0 2.7 2.3 3.7 3.8 1.6 7.7 5.7 7 7.4-.8 2.1.8 2.5 4.3 1.1 3.1-1.1 3.4-1 5.6 1.7l2.4 3 .6-2.6c.4-1.5.4-3.6 0-4.7-.5-1.8-.2-2.1 1.9-2.1 1.6 0 2.6-.6 2.6-1.5 0-.8.7-1.5 1.5-1.5 1.1 0 1.2.5.5 2.5-1.1 3-.3 5.6 1.5 4.9 1-.4 1.1-1.2.4-3-1-2.7-.7-2.7 4.3.8 2.7 1.9 2.8 1.9 5-.1 1.2-1.2 2.8-2.1 3.5-2.1 1 0 1.1-.5.3-1.9-1.4-2.7-1.5-2.5 2.9-4.7 2.9-1.4 4.1-2.6 4.3-4.6.5-3.3-.7-3.6-2.4-.9-.9 1.5-1.5 1.7-2.5.9-1-.8-1.8-.6-3.2.6-1.8 1.6-2 1.5-4.5-1.4-3.2-3.9-3.2-4.7-.2-6.1 1.4-.7 2.2-1.7 1.9-2.4-.3-.8.5-1.5 1.9-1.7 1.3-.2 2.8-1.5 3.6-3.1 1.3-2.7 4.6-3.9 3.6-1.3-.3.8.4 3.2 1.5 5.4s1.7 4.2 1.4 4.6c-1 1 .6.7 2.5-.5 1.3-.8 1.7-2 1.4-4.2-.3-2-.1-2.8.7-2.3.7.5 1.1-.2 1.1-1.7s.9-3.1 2.4-4c1.7-1.2 2.5-2.8 2.9-6.7.4-2.9 1.1-5.8 1.7-6.6.9-1 .7-2-.6-4.3-1.4-2.3-1.5-3.3-.6-4.4 1.7-2 .7-12.3-1.3-14.4-1.6-1.5-1.6-1.7.4-3.2 2.2-1.7 2.5-3 2.3-10.4-.1-3-.7-4.7-1.4-4.7-1.8-.1-6.4-7-7.2-10.7-.6-2.8-.5-3 1.6-2.7 3.5.6 7.1-2.9 6.4-6.3-.8-3.9.6-5.8 3.1-4.4 2.6 1.4 5.7-.7 4.7-3.2-.3-.9-1-1.7-1.5-1.7s-.9-.5-.9-1c0-.6.9-1 2.1-1 1.4 0 1.9-.5 1.6-1.4-.3-.7-.1-1.8.4-2.3 1.2-1.2 1.5-6.3.5-8.6-.7-1.4-.3-1.7 2.2-1.7 1.8 0 3.2-.6 3.6-1.6.5-1.3.9-1.4 2.1-.4.8.6 1.9.9 2.4.5.6-.3 2-.1 3.1.5 2.5 1.4 2.7-.4.2-2.2-1-.7-2.7-2.5-3.6-4-1.8-2.7-1.7-2.8 1.1-5.4 1.5-1.4 2.7-2.9 2.6-3.3-.1-.4 1.4-.7 3.3-.8 1.9 0 3.4.3 3.4.8s1.8.9 3.9.9c2.2 0 4.3.4 4.6 1 .4.6-.1.7-1.2.3-1.2-.4-.7.6 1.5 2.8 1.7 1.9 3.2 4.4 3.2 5.6 0 2.8 1 5.3 2.1 5.3 1.5 0 1-3.6-.8-6.9-2.2-3.7-1-6.4 3.1-6.9 3.1-.4 3.1-.4 1-4.4l-1.6-3 3 1.7c2.2 1.3 3.4 1.5 4.8.7s2.8-.6 5.6.9c2 1 4.6 1.9 5.8 1.9 1.1 0 4.3 1.6 7 3.6 4.4 3.1 5.6 3.6 8.8 3 2-.3 3.8-1 4-1.6.2-.5 1.5-1 2.8-1 1.5 0 2.4-.6 2.4-1.5 0-2.2 1.3-1.8 4.2 1.2 4 4.3 4.8 6.7 4.2 11.6-.6 4.4-.6 4.4 4.1 7.1 2.6 1.5 5.5 2.6 6.6 2.3 1.2-.3 2 .1 2.4 1.4.4 1.1 1 1.7 1.4 1.4.5-.2 1.7.2 2.7.9 1.3 1 2.4 1.1 3.6.5 1.2-.6 2.5-.6 3.7.1 2.6 1.4 5.1 1.3 8.2-.4 1.5-.7 3.8-1.2 5.2-.9 3.3.6 6.5-1.2 6.9-3.9.2-1.3 1-2.3 1.9-2.3.9 0 2.3-.5 3-1.2 1.7-1.4 6.9-.5 7.6 1.3.6 1.6 3.3 1.9 3.3.4 0-.5 1.4-1.7 3.1-2.5 1.9-1.1 2.9-2.2 2.5-3.1-.3-.8.1-1.4 1-1.4 1.2 0 1.4-.7.9-2.9-.5-2.4-.2-3 1.5-3.6 1.5-.5 1.9-1.2 1.5-2.3-.4-1-1-2.6-1.3-3.7-.2-1.1-.9-2.5-1.4-3.2-.5-.7-.5-1.2.1-1.5.7-.2.6-2.1-.3-5.4-.7-2.9-1-5.8-.6-6.5.5-.7 0-2.9-1.2-5.3-1.9-3.7-1.9-4.1-.4-5.2 1.5-1.1 1.2-1.7-2.8-5.5-2.6-2.3-4.6-4.8-4.6-5.6 0-.7-.4-1.3-1-1.3-.5 0-1 .4-1 .8 0 2.1-9.1-1.5-11.9-4.7-1.6-1.8-3.4-3-4-2.7-.5.4-2.1.4-3.5 0-1.9-.4-2.3-1.1-2.1-3.2.1-1.5-.6-3.7-1.6-5.1-2-2.5-2.5-5.1-1-5.1 1.4 0 2.1-4.3 1-5.7-.6-.6-.8-1.7-.4-2.3.3-.5-.1-1-.9-1-.9 0-1.6-.4-1.6-1 0-.5-1.3-.1-2.9.8-2.4 1.4-2.7 1.8-1.5 2.5 2.2 1.2 1.1 12.7-1.3 14.5-1 .7-1.7 2-1.5 2.8.2.8-.1 2.9-.6 4.7-.7 2.6-.6 3.8.9 5.5 1.6 2 1.8 2.1 2.2.5.4-1.4.5-1.3.6.4.1 1.6-.6 2.3-2.9 2.8-1.6.4-3.2 1.1-3.5 1.6-1.1 1.6-4.4.9-5-1.1-.7-2.1-2.5-2.8-2.5-1 0 .5-.6 1-1.4 1-.7 0-1.9.7-2.6 1.5-.8.9-2.1 1.3-3.2.9-1.7-.5-1.9-.2-1.3 1.5.8 2.7-1.3 5.5-4.4 5.9-2.8.4-13.2-2.7-14.3-4.3-.5-.5-.7-1.7-.5-2.7.1-.9-.9-2.9-2.3-4.4-2-2.2-2.1-2.6-.7-2.1 4.5 1.6 6.5 1.7 12.2.4 5.2-1.2 6-1.7 5.9-3.6-.1-1.7.4-2.1 1.7-1.8 2.2.6 3.4-2 1.8-3.9-.8-1-.8-1.4 0-1.4.6 0 1.1-.9 1.1-2s.4-2 1-2c.5 0 0-1.5-1.1-3.4-1.4-2.4-2.5-3.3-3.7-2.9-1.4.4-1.5.3-.2-.6 1.2-.8 1.2-1.1-.3-1.7-.9-.3-1.4-1-1.1-1.5.3-.5 1.3-.5 2.4.1 2 1.1 5 .4 5-1.1 0-.5.7-.9 1.5-.9.9 0 2-1.1 2.5-2.5.7-1.8 1.7-2.5 3.6-2.5 1.7 0 2.8-.6 3.1-2 .7-2.6 4.9-5.2 7.3-4.5 1.8.6 2 .1 2-4.4 0-3.3-.6-5.5-1.7-6.7-1.1-1.1-1.8-1.3-2.1-.5-.7 2-2.2 1.1-2.2-1.3 0-1.4-.5-2.8-1-3.1-.6-.3-.7-1.7-.4-3 .3-1.2.1-2.6-.6-3-.8-.5-.8-1 0-2 1.7-2-1.7-2.7-5-1-1.6.8-3.8 1.5-4.9 1.5-1.1 0-2.2.4-2.5.9-.4.5-1.8.5-3.5-.2-2.2-.8-3.9-.8-7 .3-2.2.7-3.8 1.7-3.5 2.1.3.5-.2.9-1 .9-.9 0-1.6-.6-1.6-1.4 0-1.7-1.8-2.5-4.2-1.8-1 .2-1.4 1-1.1 2 .5 1 .2 1.3-.6.8-.7-.5-1.8-.1-2.5.9-1.1 1.5-1.6 1.6-3.7.5-1.3-.8-2.6-1.4-2.9-1.4-.3-.1-.4-.5-.2-1 .1-.4-.4-1.8-1.2-3.1-1.1-1.6-1.2-2.5-.4-3.3.8-.8.5-.9-1.1-.5s-2.1.1-2.1-1.6c0-1.1.4-2.1.9-2.1s1.1-1.3 1.4-3c.8-3.5-2-9-4.4-9-.9 0-2-.7-2.3-1.6-.8-2.1 1.4-13.5 2.5-12.9.4.3 1 .1 1.4-.5.3-.6-.2-1.3-1.2-1.7-1-.3-2.7-1.7-3.9-3.1-2.5-3-4.7-2.2-3.8 1.4.5 2 .2 2.6-1.3 3-1 .3-2.7 2.3-3.6 4.6-1.9 4.3-2 4.2 3.1 9.7 1.7 1.9 2 2.6 1 3.3-1 .6-1 1 .2 1.8 2.5 1.7 4 1.1 4-1.5 0-2.7.6-3 2.9-1.6.8.5 1.2 1.8.8 3-.3 1.2-.1 2.4.4 2.7 1.3.8 1.1 4.1-.4 5.6-.8.7-1.7 2.6-2.1 4.1-.4 1.8-1.1 2.5-1.9 2-.9-.5-.9-.3-.1.8 1.8 2.4 1.5 5.5-.6 5.5-1 0-1.7-.3-1.4-.7.2-.4-.5-.9-1.6-1.2-1.1-.3-1.8-.1-1.4.4.9 1.5-2.9.9-5.9-.9-4.4-2.6-6.4-6.5-4.9-9.4.7-1.3 1.1-3.4 1-4.8-.2-1.8.1-2.4 1.3-2.2.9.1 1.9-.5 2.3-1.3.3-.9 1-1.3 1.6-1 .5.3 1-.1 1-.9s-.5-1.8-1-2.1c-.6-.4-.8-1.1-.4-1.6.3-.6-.2-1.9-1.1-2.9-1.6-1.8-1.6-2.1.4-5.3 2-3.2 2-3.5.3-4.9-3-2.5-7-3.9-7.5-2.5-.4.9-.7.9-1.7 0-1.1-1-1.1-1.5.1-2.9.8-1 .9-1.5.2-1.1-.7.5-1.4-.4-1.8-2.3-.7-3.2-1.2-3.5-3.4-2.1-1 .7-2.3.3-3.9-1-1.3-1-2.9-1.6-3.4-1.3-.6.4-.8-.1-.4-1.3.4-1.3-.2-2.9-1.7-4.7-2.2-2.5-2.7-2.7-4.8-1.5-4.7 2.4-5.9 2.9-7.4 2.9-1 0-1.5 1-1.5 3 0 2.7-.2 2.9-2.5 2-1.5-.6-2.6-.6-3 0-1 1.6-2.5 1.1-2.5-.8 0-1.2-1.5-2.4-4.5-3.6-2.5-1.1-4.5-2.3-4.5-2.9 0-.5.7-.7 1.5-.3 2.3.8 1.8-.5-1.8-4.7-3.1-3.7-8.4-6-11.5-4.9zm76 74.5c.9 1.5-.1 3.5-2.3 4.2-2.1.7-2.5 2-.9 3 1.5.9 1.2 2.5-.5 2.5-.8 0-1.5.5-1.5 1.1 0 .8-.4.8-1.5-.1-.8-.6-2.3-.9-3.3-.6-2.2.7-5-1.8-3.2-2.9.5-.3 1-1.8 1-3.2 0-1.9.4-2.4 1.6-1.9.8.3 1.2.2.9-.4-.3-.5 0-1.6.7-2.4 1.4-1.7 7.8-1.1 9 .7zm43.6 8.6c-1.4.5-2.7-1.9-2.1-3.7.5-1.1.9-.9 1.9.9.8 1.6.9 2.5.2 2.8zm-22.5-2c.4 0 .7.8.7 1.6 0 .9-.9 1.5-2.5 1.5-1.4 0-2.5-.2-2.5-.4s-.3-1.1-.6-1.9c-.5-1.3.7-1.5 4.9-.8zm2.9 4.3c-.7.7-1.2.8-1.2.2 0-1.4 1.2-2.6 1.9-1.9.2.3-.1 1.1-.7 1.7zm19.8.8c0 .5-.2 1-.4 1-.3 0-.8-.5-1.1-1-.3-.6-.1-1 .4-1 .6 0 1.1.4 1.1 1zm-68.4 5.5c-2.3 1.7-7.6 2-7.6.4 0-.6.6-.9 1.4-.6.8.3 2.7.2 4.3-.3 3.9-1.2 4.1-1.1 1.9.5zm-7.6 14.4c-.1 1.1-5.2 4.3-5.8 3.6-.4-.3.1-1.1 1.1-1.6.9-.6 1.7-2.2 1.7-3.7.1-2.6.1-2.6 1.5-.8.8 1.1 1.5 2.2 1.5 2.5zm64.3.1c.3 1.1.1 2-.4 2s-.9.7-.9 1.5c0 2-4.9 2-7.8-.1-2.1-1.5-2.2-1.8-.8-3.3.9-.9 3.3-1.8 5.5-1.9 3.1-.2 3.9.1 4.4 1.8zm-15 3c-.8 3.1-2.3 3.4-2.3.6 0-1.6.6-2.6 1.4-2.6.9 0 1.2.7.9 2zm-127.3 14.1c0 .5-.4.9-1 .9-.5 0-1-.7-1-1.6 0-.8.5-1.2 1-.9.6.3 1 1 1 1.6zm78.8 4.4c0 1.4-.4 2.5-.9 2.5s-.9-1.1-.9-2.5.4-2.5.9-2.5.9 1.1.9 2.5zm10.2 12.9c0 .3-.4.8-1 1.1-.5.3-1 .1-1-.4 0-.6.5-1.1 1-1.1.6 0 1 .2 1 .4zm-132.6 24.2c1 2.7.7 3.3-1.9 3-3.3-.4-4-1.2-2.5-3.1 1.6-1.9 3.6-1.9 4.4.1zm-6.4 1c0 .8-.4 1.2-1 .9-.5-.3-1-1-1-1.6 0-.5.5-.9 1-.9.6 0 1 .7 1 1.6zm-47.4 17.1c-1 1-1.9-.5-1-1.8.6-1.1.8-1.1 1.2 0 .2.7.1 1.5-.2 1.8zM485.3 18.223c0 .9.7 1.5 1.6 1.3 1.9-.4 1.8-2.2-.2-2.6-.7-.2-1.4.4-1.4 1.3zM431 72.723c-2.8 2.1-2.6 2.6 1.2 3.5 2.5.6 2.7.5 2.6-2.4-.1-3.6-.5-3.7-3.8-1.1zM425 75.723c0 .5-.9 1-2 1-1.3 0-2 .7-2 2 0 1.9.1 1.9 3.5.3 3.5-1.7 4.8-4.3 2-4.3-.8 0-1.5.4-1.5 1z"/><path d="M343.3 77.723c-2 1.5-2.1 2-.8 3 .8.7 1.2 1.6.9 2.1-.3.5-.1.9.5.9.5 0 1.3-.5 1.6-1 .3-.6.2-1-.3-1-1.2 0-1-3.3.3-4.2.5-.4.7-.9.5-1.2-.3-.2-1.5.4-2.7 1.4zM376.3 122.423c-.7.3-1.3 1.1-1.3 2 0 1.2.2 1.2 1.6-.2 1.8-1.7 1.6-2.5-.3-1.8zM178.5 196.723c.3.5.8 1 1.1 1 .2 0 .4-.5.4-1 0-.6-.5-1-1.1-1-.5 0-.7.4-.4 1zM169.5 221.323c-.4 2.2-1.5 5.1-2.5 6.5-1.1 1.6-1.6 3.5-1.3 4.8.4 1.6.1 2.1-1.5 2.1-1.2 0-3 .9-4 2-1.5 1.6-2.4 1.8-5.1 1-1.8-.5-3.8-.7-4.6-.4-1.7.7-4.5 6.5-4.5 9.5 0 2.3-4.8 13.1-6.1 13.7-.4.1 0 1.9.7 4 1.9 5.4 1.8 7.5-.5 6.7-2.1-.6-4.9 1.9-3.1 3 .5.3 1 1.5 1 2.6 0 1 .5 1.9 1.2 1.9.9 0 .9.3 0 1.2-1 1-1.7 1-3.4-.1-1.6-1-2.3-1.1-2.6-.2-.2.6-1.2 1.6-2.2 2.1-3 1.6-6.4-.4-9-5.5-1.3-2.5-3.2-5.1-4.2-5.6-.9-.5-1.5-1.6-1.2-2.3.3-.8-.5-2.1-1.7-2.9-1.4-1.1-2-2.2-1.6-3.6.3-1.3-.6-2.9-2.8-5.1-2.1-2-3.1-3.8-2.8-4.8.4-.9.2-1.3-.4-.9-.6.4-3.1-.4-5.5-1.8-2.3-1.4-5.2-2.5-6.3-2.5-1.5 0-2.9-1.6-5-5.4-1.7-3.2-3.2-5-3.7-4.4-.5.9-1.1.8-2.2-.1-1.4-1.2-1.6-.9-1.6 2.2 0 4.9 3.6 11.5 7.5 13.8 3.6 2.2 4.9 4.4 6.2 11.4.6 2.7 1.3 5.8 1.8 6.7.5 1.3.3 1.8-.9 1.8-1.3 0-1.5.4-.6 1.9 1.5 3 1.4 3-4.9 2.5-6.8-.5-11.1.8-11.8 3.6-.6 2.1-3.6 3.5-5.3 2.5-.5-.3-1-.1-1 .4 0 .6-.9 1.1-2 1.1-2.3 0-2.7 1.8-.5 2.6.8.4 1.5 1.3 1.5 2.1 0 1.2-.3 1.3-1.5.3-.8-.6-1.9-.8-2.6-.4-.7.4-2.5.7-4 .6-2.2 0-2.9.4-2.9 1.9s-.5 1.8-2.4 1.3c-1.3-.3-2.7-.1-3 .5-1.1 1.6-4.6 1.3-4.6-.4 0-.8-.4-1.5-.8-1.5-1.6 0-5.4 4.8-4.7 5.9.3.6.1 1.1-.6 1.1-.9 0-.9.3 0 1.4.9 1.1.8 1.5-.5 2s-1.5 1.4-1 3.8c.7 3.5 3.4 7.1 4.7 6.2.4-.2 1.5.6 2.4 2 1.5 2.3 1.5 2.7-.1 5.1-1.4 2.1-2.2 2.5-4.5 2-3.5-.8-4.9 1.6-3 4.7 1 1.7.9 2.2-.6 3.3-1.4 1.1-1.6 1.6-.5 2.6 1.5 1.6 1.6 6.6.1 7.1-.9.3-.9 1 0 2.6.9 1.7.8 2.8-.4 5.2-.9 1.6-2.2 3-3 3-2.3 0-1.8 1.3 2 5 2.7 2.6 3.8 3.1 4.7 2.2 2.3-2.3 4.3-1.1 8.3 5.1 2.2 3.4 4 6.6 4.1 7.2 0 .5.2 1.8.2 2.7.1.9 1 1.9 2 2.2 1 .3 2.3 2 2.9 3.7.7 1.8 1.6 2.8 2.3 2.4.6-.4 1.7 0 2.3.9 1.5 2 3.8 2.2 11 1.2 5.3-.8 5.7-1 5.7-3.5-.1-3.7-3.3-12.5-5.3-14.5-2.1-2.1-2.1-2.5-.3-4.5 2.3-2.8 2.7-6.5.7-9.4-1.5-2.4-1.9-2.5-3.6-1.3-1.4 1-1.7 1.7-.9 2.7 1.3 1.6 2.3 7.8 1.7 9.6-.8 2.1-1.9 1.5-2.1-1.2-.1-1.4-.9-3.6-1.8-5-1.8-2.7-1.1-9 .9-7.8.7.4.8 0 .4-1.1-.5-1.2-.2-1.9 1.1-2.3 1.4-.3 1.7-1.2 1.4-3.8-.3-2.6 0-3.4 1.7-4 1.3-.4 1.8-1.1 1.4-2.2-.4-1-.2-1.4.4-1 1.6 1 2.5-4 1.3-6.3-.8-1.4-.8-2 0-2 .6 0 2.2-.7 3.5-1.6 2-1.3 2.2-2 1.5-4-.6-1.3-.6-2.4-.1-2.4s.7-1 .4-2.1c-.5-1.9-.3-2.1 2.6-1.4 2.2.5 3.1.3 3.2-.7.2-2 .2-2.1-.6-4.6-.6-2.1-.5-2.1 2.2-1.1 1.7.6 2.9.7 3.1.1.3-.9 2.6-.1 9.2 3.1 1.7.9 2.6 2.2 2.8 4.5.2 1.8 1.2 3.8 2.4 4.6 1.1.8 1.7 1.9 1.3 2.5-.3.6-.2 1.1.4 1.1.5 0 1.2 1.4 1.6 3 .8 3.9 3.4 9 4.5 9 .4 0 1.1-.8 1.4-1.7 1-2.6 2.4-.2 1.9 3.3-.4 2.6-.9 3.1-2.6 2.6-1.8-.5-2-.2-1.4 3.3.4 2.3.2 4.4-.5 5.2-.8 1-.7 1.3.2 1.3 1.3 0 6 4 6 5.2 0 .4 1.1 1.8 2.4 3.1l2.4 2.5.6-2.4c.4-1.3 1.1-2.4 1.6-2.4.6 0 1-.6 1-1.4 0-.8 1.1-1.7 2.5-2 3.8-1 1-3.5-3.2-2.9-2.7.4-3.3.1-3.3-1.4.1-1 .7-2.9 1.4-4.2 1.7-3 1-5.1-1.4-5.1-2 0-3.6-3.3-2.5-5 .3-.6.3-1.9 0-3-.5-1.6-1-1.8-2.5-1-2.8 1.5-3.2 1.2-2.4-1.3.9-3 1.1-3.2 2.8-1.8.8.7 2.1.9 2.7.5.7-.4.9-.3.5.4-.6 1 .9 2.5 2.9 2.8.6 0 1.6.2 2.3.2.6.1 1.2.8 1.2 1.6 0 .9.8 1.2 2.5.8 1.4-.2 2.5-.9 2.5-1.5 0-.7.4-.7 1.2.1.7.7 2.2 1.2 3.5 1.2 2 0 2.1.3 1.3 2.5-.6 1.6-.6 2.5 0 2.5s1 .5 1 1.1c0 .6-.7.8-1.6.5-1.5-.6-1.5-.4-.2 1.6 1.6 2.5 1.3 4.8-.7 4.8-.7 0-1.8.6-2.4 1.4-.9 1.1-.8 1.5.5 2 2.2.9 2.4.8 2.4-.9 0-.8.9-1.5 2-1.5 1.5 0 2-.7 2-2.6 0-1.4.4-2.2 1-1.9.5.3 1.5-.5 2.2-1.9.8-2 1.4-2.3 2.4-1.5.7.6 1.8.8 2.4.4.6-.4 2.2.5 3.6 2 2.5 2.7 3.2 6.5 1.2 6.5-.9 0-.9.3-.1 1.1.9.9 2.6.5 6.7-1.5 3.1-1.5 5.6-3.2 5.6-3.8 0-.6 1.2-.8 3.2-.4 4.4.9 8.8-1.2 8.8-4.3 0-2.5-5.7-10.4-7-9.6-1.1.7-3.3-2.2-2.6-3.4.3-.5-.1-1.2-1-1.5-1.3-.5-1.5-.1-1 1.9.6 2.4-.7 3.5-1.9 1.5-.3-.5-1.2-.7-2.1-.3-.8.3-2.3-.2-3.4-1.2-1-.9-2.4-1.4-3-1-.6.4-2.1-.2-3.3-1.2-2.2-2-5.6-3.7-6.8-3.5-.8.1-4.8-4-4.8-5.1-.1-.4-.4-.7-.8-.8-.5 0-1.6-.8-2.6-1.7-1.7-1.5-1.7-1.5-1.1.3.5 1.3.4 1.6-.4 1.1-1.6-1-1.5-2.2.2-3.9 1.3-1.2 1.9-3.1 2.5-7.8.1-.8 4.9-.3 9.1 1 4.3 1.4 4 1.4 4-.3 0-.8-.6-1.7-1.2-1.9-1-.4-1-.6 0-.6 1-.1 1-.6.1-2.4-.7-1.2-1.8-2.6-2.5-3-.8-.4-1.4-1.3-1.4-2 0-1.4 6.7-8.7 8-8.7 1.4 0-.1-3.9-2.5-6.2-2.4-2.3-2.3-5.8.1-5.8.8 0 1.9-1.2 2.5-2.7.8-2.2.6-3-1.5-5.2-2.6-2.8-5.6-9.3-5.6-12.2 0-1.1.9-2.8 1.9-3.8 1.5-1.5 1.6-2.2.8-3.2-.7-.7.2-.5 1.8.5 1.7 1 3.5 2.3 4 3 1.3 1.5 9.5 2.1 9.5.7 0-.6-.4-1.1-1-1.1-.5 0-1-.5-1-1.1 0-.6.6-.9 1.3-.6.8.3 2 .1 2.7-.3 1.2-.7 1.2-1.1 0-2.5-1.1-1.4-1-1.7.8-2.2 1.3-.3 2.3-1.4 2.3-2.7.1-1.1.2-2.8.3-3.8.1-.9.4-2 .9-2.4 1.2-1.2.8-2.4-.8-2.4-.9 0-2-1.2-2.5-2.6-1.2-3.2-1.2-3.7-.1-2.9.6.3.9-.3.8-1.4 0-1.1-.5-1.7-1-1.4-.5.3-1.9-.5-3.2-1.7l-2.4-2.2-.6 3.8zm-17.5 112.2c0 2.1-.2 2.4-1 1.2-1.3-2-1.3-5.3 0-4.5.6.3 1 1.8 1 3.3zM245.5 219.723c.3.5 1.4 1 2.3 1 1.5 0 1.5-.2.2-1-2-1.3-3.3-1.3-2.5 0zM103 227.123c0 .2.7.6 1.5 1 .8.3 1.5.1 1.5-.4 0-.6-.7-1-1.5-1s-1.5.2-1.5.4zM222 278.823c0 .5.5.7 1 .4.6-.3 1-.8 1-1.1 0-.2-.4-.4-1-.4-.5 0-1 .5-1 1.1z"/><path d="M160.7 303.423c-1.4 1.3-.6 2.3 2.7 3.7 1.9.8 4.4 2.8 5.7 4.5 1.2 1.6 2.6 2.8 3.1 2.5.5-.3 1.8.2 2.9 1.2 2 1.8 2.6 4.4.9 4.4-.5 0-1 .4-1 1 0 .5.9 1 2 1 1 0 2.4.8 3 1.7 1 1.7 1 1.7 2 0 1.3-2 4.1-2.2 5.8-.5.7.7 1.2.8 1.2.3s1.1.2 2.4 1.4c2.2 2.1 2.5 2.1 4 .5 1.6-1.5 1.6-1.8-.4-3.6-2.3-2.1-1.9-3.8.9-3.8 1.5 0 1.8-.7 1.6-3.2-.2-3-.5-3.3-3.7-3.3-2-.1-4.7-1.1-6.3-2.3-1.5-1.2-3.6-2.2-4.5-2.2-1 0-2.1-.7-2.4-1.6-.4-.9-1.1-1.2-1.8-.7-.7.4-1.9.8-2.7 1-.8.1-1.7.7-2.1 1.3-1 1.6-7.8.2-9-1.9-.5-.9-1-1.2-1-.7s-.6.3-1.3-.3c-.8-.6-1.7-.8-2-.4zM246.5 308.723c.3.5.8 1 1.1 1 .2 0 .4-.5.4-1 0-.6-.5-1-1.1-1-.5 0-.7.4-.4 1zM152 317.823c0 .5.5.7 1 .4.6-.3 1-.8 1-1.1 0-.2-.4-.4-1-.4-.5 0-1 .5-1 1.1zM228.7 327.723c-.3 1.3 0 2 .9 2 .8 0 1.4-.9 1.4-2s-.4-2-.9-2-1.1.9-1.4 2zM220 334.223c-.7.9-1.9 1.4-2.7 1.1-.7-.3-1.3-.1-1.3.5s-.6.9-1.2.6c-.7-.2-2.2-.1-3.3.3-1.1.4-2.6.3-3.4-.3-1-.9-1.7-.7-2.7.8-1.3 1.7-1.8 1.7-6.9.5-4-1-5.9-1-6.7-.2-.7.7-1.9.7-3.4.2-2.2-.9-2.4-.7-2.4 1.8 0 1.5-1.1 4.8-2.5 7.4-1.4 2.6-2.5 5.4-2.5 6.1 0 .8-.7 1.8-1.6 2.1-.9.3-1.4 1.3-1.1 2 .3.8-.1 1.7-.8 2-1 .4-1.3 1.4-.9 3.6.6 2.6.4 3-1.6 3-1.7 0-2 .4-1.5 1.7.5 1 .9 2.9 1 4.2.1 1.3.9 2.8 1.8 3.3 1.9 1 2.3 3.8.6 3.8-.5 0-.8-.4-.5-.8.3-.5-.1-.9-.9-.9s-1.3 1-1.2 2.5c.2 1.8-.6 3-2.8 4.3-4.2 2.5-5.2 2.3-8.7-1.1-3-3-8.8-4.2-8.8-1.8 0 .6-.3.8-.7.4-.5-.4 0-1.4 1-2.1 1.2-.8 1.4-1.5.8-2-.6-.3-1.1-.3-1.1.1 0 1.6-2.9-3.2-3-4.7 0-2.4-2.8-3.1-6.6-1.7-2.8 1-3.6.9-5.1-.3-2.2-1.9-7.6-4.2-6.9-3 .9 1.4-2 2.1-3.5.8-.7-.7-.5-.2.5 1 1.7 2.1 1.7 2.2-.3 3.2-1.8 1-2.1.8-2.7-1.3-.3-1.5-2.3-3.3-5.4-5-2.7-1.5-5.2-3.2-5.6-3.7-.9-1.6.5-2.4 1.8-1.1.7.7 2.2 1.2 3.5 1.2 1.3 0 2.8.9 3.5 2 2.1 3.3 2.9 2.2 1.1-1.5-.9-1.9-2.1-3.5-2.5-3.5-.5 0-.7-.3-.4-.8.6-1-1.5-3.7-4.2-5.1-2.9-1.6-6.2-.5-6.2 2 0 2.2-1.1 2.4-2.9.6-1-1-1.1-.9-.6.3.4 1.3-.3 1.5-3.7 1.4-5.9-.1-7.7-1.1-7.1-3.7.3-1.5.2-1.8-.4-.9-.8 1-1.5.8-3.6-.8l-2.6-2-.6 2c-.4 1.4-1.5 2-3.5 2-3.8 0-4.8 1.8-1.7 2.9 1.4.6 3.2 2 4.1 3.3 1.5 2.1 1.5 2.3-.6 3.1-3.1 1.1-3.2 1.2-1.1 4.3.9 1.5 1.6 3.8 1.5 5.1-.2 1.6.2 2.3 1.2 2.3 2.1 0 2 1.6-.1 3-1.7 1-1.6 1.2.5 2.6 2.4 1.8 2.9 5.8 1.1 9.8-1.5 3.3 2 9.7 6.7 12 3.2 1.5 3.4 1.5 3.4-.4 0-2.2-1.6-3.5-2.5-2-.4.6-1.5.4-3.1-.6-3-2-2.7-2.3 2.5-3.5 2.3-.5 5-1.7 6-2.7 3.5-3.1 5.2-4.4 5.4-4.1.2.2.9 1.6 1.6 3 1.6 3.3.2 6.6-3.4 7.5-1.9.5-2.5 1.3-2.5 3.5 0 2.3.3 2.7 1.8 2.2.9-.3 2.2-1.2 2.9-2 .7-1 1.9-1.2 3.3-.8 1.6.5 1.9 1 1.1 1.8-1.7 1.7-1.3 4.7.7 4.7 1 0 2.7.7 3.9 1.5 1.4 1 3.2 1.3 4.7.9 1.4-.3 3.1-.2 3.8.2 1.9 1.2 8.1 1.3 9.5.2.8-.7 3.1-.3 7 1.1 5.3 1.9 5.8 1.9 7.5.4 1-.9 1.8-2.4 1.8-3.5 0-1.5.7-1.8 4.3-1.6 3.5.3 4.2 0 3.9-1.4-.2-1.1.6-2 2.2-2.4 1.3-.3 3.4-1.6 4.6-2.9 1.3-1.4 2.9-2.1 4.1-1.8 1.5.4 1.8.2 1.3-1.1s-.1-1.5 2.6-1c1.9.4 4.1.1 5.6-.7 2-1 2.9-1.1 4.5-.1 2 1.3 2.3.8 2-2.9-.2-1.9 4.6-3.2 5.6-1.6.3.6 1 0 1.5-1.4.8-2 1.1-2.1 1.8-.9.6 1.1 2.7 1.6 7.1 1.8 6.2.3 8.8 1.7 6.9 3.6-1.7 1.7-1.1 3.7 1.5 5.8 3 2.4 3.1 3.7.5 8.1l-2.1 3.5 2.6.5c2 .3 2.5.1 2-1.1-.3-.8.2-2.3 1-3.2 1.4-1.5 1.4-2.1.4-3.9-.7-1.1-1-2.3-.7-2.6 1-1 4.8.5 4.8 1.8 0 2.1 7.8 4.7 10.6 3.6 2.2-.8 2.5-1.3 1.9-4-.6-2.7-.5-3 1.2-2.5 2.2.7 4.9-3.2 5.8-8.5.3-1.9 1.5-5.7 2.7-8.6l2.1-5.1-2.1-2.7c-1.2-1.5-2-3.1-1.7-3.5.2-.4-.7-1.2-2.1-1.8-1.9-.9-2.3-1.7-1.8-3.6.4-1.9-.3-3.4-3.4-6.8-2.2-2.4-4.7-6.6-5.6-9.6-1-2.9-2.4-5.8-3.2-6.6-.8-.8-1.2-2.9-1-5.2.5-6.4-2.4-9.5-5.4-5.9zm-3 5c.7.8 1.8 1.5 2.6 1.5 1.9 0 .5 10.9-1.9 14.1-1.5 2.1-1.7 3.1-.8 4.7.6 1.1 2 2.3 3 2.7 2.9.9 3.5 3.5.8 3.5-2 .1-2 .2.6 1.6 1.5.8 2.7 2.3 2.7 3.4 0 1.7-.4 1.8-2.6 1-3.1-1.2-3.7-1.2-3-.1.3.4-1 .1-2.9-.8-4.1-1.9-5.1-3.8-3-6.1 1.8-2 1.9-5.3.4-8.2-.8-1.5-.8-2.2.1-2.8.9-.5.9-.9.1-1.4-1.4-.9-1.5-8.6 0-8.6.6 0 .7-.5.2-1.3-.4-.6-.9-2-1-3-.4-2.1 2.9-2.3 4.7-.2zm-81 33.1c0 .8-.4 1.2-1 .9-.5-.3-1-1-1-1.6 0-.5.5-.9 1-.9.6 0 1 .7 1 1.6zm83.5 15.4c.3.5.2 1-.4 1-.5 0-1.3-.5-1.6-1-.3-.6-.2-1 .4-1 .5 0 1.3.4 1.6 1zm-59.8 7.6c-.3.3-1.2.4-1.9.1-.8-.3-.5-.6.6-.6 1.1-.1 1.7.2 1.3.5zm-16.7 2.4c0 .5-.2 1-.4 1-.3 0-.8-.5-1.1-1-.3-.6-.1-1 .4-1 .6 0 1.1.4 1.1 1zm-22.6 8.5c.3.9 0 1.5-.9 1.5-.8 0-1.5-.7-1.5-1.5s.4-1.5.9-1.5 1.1.7 1.5 1.5zm23.6 1.5c0 .5-.2 1-.4 1-.3 0-.8-.5-1.1-1-.3-.6-.1-1 .4-1 .6 0 1.1.4 1.1 1zM132 337.223c0 .8.4 1.5 1 1.5.5 0 .7-.7.4-1.5-.4-.8-.8-1.5-1-1.5-.2 0-.4.7-.4 1.5zM137.7 337.923c-.3.9.3 1.4 1.4 1.4 1.1 0 1.8-.5 1.6-1-.5-1.6-2.4-1.8-3-.4zM106.2 343.323c.3 1.7 2.1 2.1 2.6.6.1-.5-.4-1.2-1.3-1.6-1.1-.4-1.5-.1-1.3 1z"/><path d="M111.2 343.523c-.9.6-.6 1.6 1.5 3.8 2.3 2.4 2.8 2.6 3.1 1.1.2-.9.8-1.7 1.3-1.7s.9-.7.9-1.5-.6-1.5-1.4-1.5c-.8 0-2-.2-2.8-.5-.7-.3-1.9-.1-2.6.3zM82.6 347.123c.6 1.6.4 1.8-.9 1.3-2-.8-2.2.6-.3 2.2 1 .9 1.6.8 2.6-.4 1.1-1.3 1-1.9-.4-3.3-1.6-1.6-1.7-1.6-1 .2zM109.6 349.223c.4.8.8 1.5 1 1.5.2 0 .4-.7.4-1.5s-.4-1.5-1-1.5c-.5 0-.7.7-.4 1.5zM140.1 350.523c-.7 1.3-1.1 2.6-.8 2.8.8.8 2.9-2.5 2.5-3.8-.3-.8-.9-.4-1.7 1zM126.5 359.723c.3.5.8 1 1.1 1 .2 0 .4-.5.4-1 0-.6-.5-1-1.1-1-.5 0-.7.4-.4 1zM147 359.323c0 1.2 4.2 6.4 5.1 6.4 1.6 0 1-4.2-.8-5.6-1.9-1.4-4.3-1.8-4.3-.8zM129.6 363.223c.4.8 1.2 1.5 2 1.5 1.9 0 1.8-1.6-.2-2.4-2.2-.9-2.4-.8-1.8.9zM103 405.423c0 1.3.5 2.3 1 2.3 1.3 0 1.3-1.1 0-3-.8-1.2-1-1.1-1 .7zM202.3 408.423c-2.9.4-3.1.6-2.3 2.8.7 1.9.5 2.7-1.1 3.8-2.5 1.8-1.6 4.3 2.2 6.2 4.1 2.2 4.6 1.9 5.3-3 .5-2.7 1.2-4.5 2.1-4.5.7 0 1.5-.6 1.8-1.3.6-1.7-1.6-4.7-3.4-4.5-.8 0-2.8.3-4.6.5zM111 409.723c0 .5-.7.7-1.6.3-1.4-.5-1.4-.3-.3 1.6.9 1.3 1.5 1.7 1.8.9.2-.7.8-1.9 1.4-2.6.6-.8.6-1.2-.2-1.2-.6 0-1.1.4-1.1 1zM98.9 412.423c-.1.5 0 1.7.1 2.7.1 1.3-.3 1.7-1.4 1.3-.9-.4-1.6-.2-1.6.3 0 1.4 4.6 1.2 5.7-.3.6-.6 1.3-2 1.6-3 .5-1.3.1-1.7-1.8-1.7-1.4 0-2.6.3-2.6.7zM226.5 414.723c-.3.5.3 1 1.5 1s1.8-.5 1.5-1c-.3-.6-1-1-1.5-1s-1.2.4-1.5 1zM93 416.723c0 .5.5 1 1.1 1 .5 0 .7-.5.4-1-.3-.6-.8-1-1.1-1-.2 0-.4.4-.4 1zM166.7 419.123c-1.6 1.2-1.5 1.6.9 5.2 1.4 2.1 3.3 4.5 4.2 5.2.9.7 1.7 2.5 1.8 4 .1 1.5.3 3.2.3 3.9.2 2 3.3 4.4 5.5 4.2 2.6-.3 5.8 1 5.1 2.1-.6 1 3.1 2.3 4.4 1.6.5-.4 2.8-.7 5-.8 4.5-.1 4.5-.1 3-2.9-.7-1.4-1.6-1.8-3-1.4-1.5.5-1.9.2-1.9-1.9 0-1.7-.5-2.6-1.6-2.6-1.3 0-1.4-.3-.4-1.5.7-.8 1.7-1.2 2.2-.9.6.4.4-.4-.3-1.7-1.3-2.3-1.4-2.3-1.7-.3-.4 2.6-5.9 3-6.7.5-.8-2.7-11.5-13.2-12.6-12.5-.6.4-1.4.2-1.8-.4-.4-.7-1.2-.6-2.4.2zM205.1 428.023c-.6.7-1.2 4-1.3 7.3-.2 4.1-.8 6.4-2.1 7.6-1.8 1.6-1.7 1.8.4 6 1.2 2.4 2.8 5.1 3.7 6 .8 1 1.1 1.8.7 1.8-.5 0 0 .7 1.1 1.5 1 .8 2.9 1.5 4.1 1.5 2.5 0 5.9 5.3 4.7 7.2-.5.7-.3.8.5.4.7-.5 1-1.4.7-2.1-.3-.8.2-1.9.9-2.5.8-.7 1.3-1.6 1-2-.4-.7 2.1-1.3 9.5-2.2 3.1-.4 4.2-2 4.6-7.1.2-2.2.8-4.5 1.4-5.2.7-.9.6-2.1-.5-4.1-.8-1.6-1.5-3.5-1.5-4.1 0-1.6-4.6-4.7-5.8-3.9-.5.3-1.7-.3-2.7-1.3-1.6-1.9-4.9-2.2-7.3-.7-.7.4-1.6.4-2.2.1-.5-.3-1-.1-1 .5s-1.2.9-2.7.6c-1.6-.2-3.2-.5-3.7-.5-.4-.1-.6-1.2-.4-2.6.6-2.9-.5-4.1-2.1-2.2zM223 427.723c0 .5.5 1 1.1 1 .5 0 .7-.5.4-1-.3-.6-.8-1-1.1-1-.2 0-.4.4-.4 1z"/></g></svg>