<svg version="1" xmlns="http://www.w3.org/2000/svg" width="1097.418" height="1150.738" viewBox="0 0 823.063 863.054"><g fill="#222"><path d="M8.486 2.498c.8 1.5 1.2 3 .9 3.3-.3.3-.6 2-.6 3.8-.1 4.4-1.4 6-4.4 5.3-1.7-.5-2.4-.2-2.4.9 0 .8-.6 1.8-1.2 2-1 .4-1 .7 0 1.5.7.5 1 1.5.7 2.4-.4 1 .3 1.9 2.4 2.7 2.4 1 3.1 2.1 3.6 5.3.4 2.1 1.4 4.2 2.2 4.5.9.4 1.3 1.4.9 2.7-.6 2.4 1.8 6.3 2.9 4.7.3-.6 1.7-1.1 3.1-1.1 1.3 0 2.4-.4 2.4-.9 0-.9.8-1 6.8-1.1 3.2 0 6.2-1.8 6.2-3.5 0-2.1 1.4-1.9 3.4.4 1.5 1.7 2.2 1.8 4.3.8 1.9-.8 2.6-.8 3.3.2.6 1.1 1 .9 1.9-.5.9-1.3 1.4-1.5 1.7-.7 1 2.2 2.4 1.4 2.4-1.3 0-1.4.5-3.5 1.1-4.7.7-1.2.8-1.9.4-1.5-.5.5-1.5-.3-2.4-1.6-.9-1.3-3.1-4.3-4.9-6.7-1.9-2.4-3.7-5.1-4.2-5.9-.4-.8-2.1-1.5-3.7-1.6-1.5-.1-3.1-.3-3.5-.3-.5-.1-2-1.5-3.5-3.1-2.6-3-5.3-4-5.3-1.9 0 1.6-4 .1-8-3-1.9-1.5-4.5-3-5.7-3.3-2.2-.6-2.2-.5-.8 2.2zM51.086 40.598c.5 1.1 1.3 1.9 1.7 2 .4 0 1.7.2 3 .5 1.2.2 2.2 0 2.2-.5 0-1.4-2.8-3.2-5.4-3.5-2.2-.3-2.4-.1-1.5 1.5zM72.586 43.398c-.4.5-.3 1.6 0 2.5.4 1.2 0 1.6-1.5 1.6-1.2 0-2.1.4-2.1.8 0 .5-2.2.8-4.8.8-6.2-.1-9.1 2.2-7.3 6 1.4 3.3 1.5 3.1-1.6 3.9-3.9.9-8.3 5.4-8.3 8.3 0 3.4 2.1 10.2 3.2 10.2.4 0 .7.5.6 1.1-.2.6.3 1.4 1 1.6.7.3 1.2-.5 1.2-2.1 0-1.8.4-2.4 1.5-2 1 .4 1.5 0 1.5-1.1 0-1.6.7-1.7 6.4-1.1 5.9.6 6.4.5 6.9-1.5.4-1.4 1.1-2 2-1.6.8.3 2 0 2.6-.6 1.1-1.1 1.2-.9 1.5 3.2.1 1.4 5 3.4 6 2.4.2-.3.2-1.2-.1-2-.5-1.3-.2-1.3 2 .2 3.1 2 3 1.6 1.8 4.8-.9 2.3-.7 2.5 2.4 2.9 1.8.2 3.1 0 2.9-.4-.3-.4.5-.9 1.8-1 19.9-1.3 25.5-1.1 28.2 1.1.8.7 2.8.6 6.3-.3 3.7-1 5.4-1.1 6.2-.3 1.9 1.9 1.2 4.7-1.4 5.9-2 .9-2.2 1.4-1.3 2.5 1.7 2.1-.5 3.8-2.5 1.9-.9-.9-1.9-1.6-2.3-1.6-.4 0-1.5-.6-2.3-1.4-1.3-1.1-2.3-1.1-5.1-.1l-3.4 1.2 3.1.6c4.4.9 10.3 7.2 10.3 11 0 1.7.5 4.5 1.2 6.4 1.1 2.9 1 3.5-1 5.6-1.2 1.3-2.2 3.3-2.2 4.5 0 1.2-.4 2.2-1 2.2-.5 0-1 .7-1 1.5s-.8 1.5-1.7 1.5c-2.4.1-5.6 2.6-4.9 3.9.4.5-.5 1.6-1.9 2.3l-2.5 1.3 2.5 2.9c1.4 1.6 2.5 3.3 2.5 3.7 0 .5 1.6 2.3 3.5 4 1.9 1.8 3.5 3.6 3.5 4 0 .9 3.3 7.8 6.8 14.4 2.2 4.1 3.5 5.2 6.7 6.3 3.2 1 4.4 2.1 6 5.5 2.4 5.2 7.9 10.7 10.5 10.7 1.1 0 2 .7 2 1.5s.4 1.5 1 1.5c.5 0 2 1.8 3.2 4 1.3 2.3 3.1 4 4.1 4 3.4 0 4.3 8.2 2.2 19.4-.7 3.7-.6 3.9 1.4 3.3 1.8-.4 2.1-.1 2.1 3 0 1.9-.4 3.2-1 2.8-.5-.3-1.2.6-1.5 2-.3 1.4-.7 3.6-1 4.9-.4 1.8 0 2.5 1.6 2.9 1.6.4 1.9 1.1 1.4 2.6-.5 1.7.1 2.2 4.8 3.6 3 .9 5.9 1.5 6.3 1.4 1.3-.4 6.4 2.3 6.4 3.3 0 .4.7.8 1.6.8 1.4 0 1.4.1 0 1.6-2.2 2.1-2 3.7.8 6.1 2.3 2.1 2.5 2.1 5.4.3 1.6-1 3.3-2.3 3.6-2.9.4-.6 2.6-1.1 4.9-1.1 4.2 0 4.3-.1 5.6-4.5.7-2.5 1.7-4.2 2.2-3.9.5.3.9 0 .9-.5 0-.6-.7-1.1-1.5-1.1-1.5 0-3.2-4.6-2.1-5.7.3-.4 1.9.3 3.5 1.5 2.8 2 2.9 2 4.6.3 1.6-1.8 1.7-1.8 4.1.4 1.4 1.3 2.6 3.7 2.9 5.4.5 4.3 1.1 4.9 5 5.7 3.2.6 6 2.4 3.7 2.4-.5 0-.8 1.6-.8 3.7.1 2.6.8 4 2.6 5.2 3.5 2.4 9 4.1 9 2.8 0-.5.8-.3 1.8.6 2 1.8 7.2 2.3 7.2.7 0-.6 1.1-1 2.4-1 2.8 0 5.6 3.3 5.6 6.7 0 1.4.6 2.3 1.5 2.3.8 0 1.5.8 1.5 1.8 0 2.2 5.3 7.4 7.1 7.1.8-.2 2.5.3 3.8 1 1.2.7 3.1 1.1 4.2.8 1.3-.4 2.4.5 3.9 3 1.1 1.9 2 3.9 2 4.5 0 .6 1.1 2.6 2.5 4.4 1.4 1.8 2.5 3.9 2.5 4.7 0 .8 1.1 2.2 2.4 3.1 2 1.3 2.4 2.2 2 4.8-.5 2.8-.2 3.5 1.8 4.3 1.3.6 2.4 2 2.6 3.5.2 1.4 1.1 2.9 1.9 3.3 2 1.2 5.5 9.6 4.8 11.8-.3.9-.1 2 .5 2.4.6.4.8 1.5.5 2.4-.3 1 .1 3.7 1 6 1.3 3.6 1.3 4.3 0 4.7-1 .4-1.2 1.1-.6 2.3 1.5 2.7-.6 5.4-3.7 4.7-2.4-.6-2.5-.5-1 .7.9.7 2 2.5 2.3 4 .6 2.1 1.3 2.7 3.5 2.7 1.6 0 3.2-.5 3.5-1 .8-1.3 5.5-1.3 5.5 0 0 .6 1.1 1.5 2.5 2 2.5 1 3.5 3 1.3 3-.6 0-3.1 2.1-5.5 4.7-3.3 3.6-4.6 4.5-5.2 3.4-.6-1-1-1-1.6-.1-.4.6-1.3.9-2 .6-.7-.2-2.1.4-3.1 1.5-.9 1-2.4 1.9-3.3 1.9-.9 0-2.1 1-2.6 2.2-.6 1.3-1.7 2.2-2.5 2-6.7-1.5-6.9-1.5-6.3.7.6 2.4-1.7 2.8-6.3 1.1-2.2-.9-2.9-.8-3.6.5-1.3 2.2-2.2 1.9-3.5-1.5-.7-2-1.6-2.8-2.6-2.4-.8.3-1.7-.1-2-.9-.8-2.1-5.9-1.8-7.4.3-1.1 1.6-2.6 1.8-9.7 1.6-4.7-.1-8.2.2-8 .6.3.4 1.4.8 2.4.8 1.1 0 2.4.9 3 2 .9 1.6.5 2.5-2.1 5-1.8 1.6-4 3-5 3-1.2 0-1.9.7-1.9 2 0 1.1.6 2 1.2 2 .7 0 .2.7-1 1.6-1.2.8-2.6 1.3-3.1.9-1.3-.7-5.9 1.4-6.5 3.1-.3.7.2 1.8 1 2.4 1.9 1.7 1.8 3-.3 3-1.3 0-1.4.3-.5 1.2 2.1 2.1 1.3 2.9-2.4 2.2-4.1-.8-7.4-3.5-7.4-6.2 0-.9-2-3.5-4.5-5.7-4.5-4-4.5-4-4.6-11-.1-4.3.3-7.1 1-7.3.6-.2 1.1-1.2 1.1-2.2 0-1 .7-2 1.5-2.4 1.6-.6 2.2-7.6.7-7.6-.5 0-.8-1-.8-2.1.1-1.4-.7-2.5-2.2-3-1.6-.6-2.1-.5-1.6.2.4.7-.6.9-2.7.7-2.7-.2-3.5-.8-3.7-2.7-.2-1.3.1-2.8.6-3.3 1.4-1.4-2.5-7.9-4.2-7.2-2 .8-2.8-3.7-1.1-5.6 1.6-1.8 1.1-3.2-.9-2.4-.6.2-2.4-.8-3.9-2.4-2.4-2.5-2.6-3.3-2.1-7.5.5-3.7 1.1-4.7 2.5-4.7 1.5 0 1.9-.7 1.9-3.3 0-2.5-.7-3.9-3-5.5-1.6-1.3-3-2.9-3-3.8 0-.8-1.8-3.4-4.1-5.9-2.2-2.4-4-4.7-3.9-5.2.1-.4-.4-.9-1.1-1.2-.8-.2-.9.1-.3 1 .6 1.1.4 1.1-1 0-.9-.8-2.3-2.8-2.9-4.4-1.5-3.6-8.6-6.6-10-4.2-1.1 2.1-12 2.1-13.7 0-.7-.9-1.9-1.4-2.7-1.1-.7.3-1.3-.1-1.3-.9 0-1.3-5.8-4.5-8.1-4.5-.5 0-.9 1.2-.9 2.6 0 2.7-.6 2.8-5.2.9-1.3-.5-1.8-.2-1.8 1 0 .9-.5 1.3-1 1-.6-.3-.8-1.6-.4-2.9.3-1.4-.1-2.7-1-3.5-1.1-1-1.6-1-1.6-.2 0 2.2-5.7-1.7-7.8-5.4-1.6-2.5-2.8-3.5-4.7-3.5-1.4 0-2.5.2-2.5.5 0 .8 2.4 4.8 3.8 6.3.6.7 1.2 2 1.2 2.9 0 .9.8 2.2 1.8 2.9 1.2 1 1.3 1.3.3 1.4-1.1 0-1.1.3-.1 1.5.6.8.9 1.9.5 2.4-.3.6 0 .8.8.5 2-.7 3 1.2 2.9 5.8 0 2.1-.1 5.4-.1 7.3-.1 2.6-.5 3.5-1.8 3.5-1.4 0-1.2.4.7 2.5 1.3 1.4 2.4 3.3 2.5 4.2.1 1 .7 2.9 1.4 4.2 1.3 2.3 1.5 2.3 2.6.7.7-.9 1.7-1.6 2.1-1.5 2.6.4 4.3-.3 4.9-2.2.4-1.1 1.2-1.8 1.8-1.6.7.2 3.1-.1 5.4-.8 4.1-1.3 4.2-1.2 4.8 1.4.3 1.5.1 4-.4 5.4-.9 2.4-.8 2.7.9 2.7 1.9 0 2.4-1 2.1-3.8-.1-.6.3-1.2 1-1.2 1.7 0 3.8 3.1 3.9 5.6 0 1.7-.8 2.3-3.5 2.8-2.9.6-3.4 1-2.6 2.4.5.9.5 2.6.1 3.7-.5 1.3-.2 2.6.8 3.7 1.2 1.4 1.2 2.1.3 3.2-.7.8-1 1.9-.7 2.4.3.6-.4 1.2-1.7 1.6-2.4.6-4.7 6.2-4.7 11.5 0 3.2-1.8 8.1-3.1 8.1-.4 0-2.1 1.4-3.9 3l-3.2 3 5.1 4.6c3.6 3.2 5 5.2 4.6 6.4-.3.9-.2 2.8.3 4 .9 2.5.1 4-4.8 8.8-1.4 1.4-2.4 3.3-2.2 4.4.2 1.1-.4 2.8-1.3 3.8-2.4 2.6-3.5 17.4-1.7 21.9.8 1.9 1.2 4.5.9 5.8-.3 1.6.3 2.9 1.7 4.1 1.2.9 3 2.9 3.9 4.3 1.6 2.3 1.6 2.8.2 3.9-1.6 1.4-1.2 5 1.1 8.7 1.4 2.2 11.1 7.3 13.9 7.3.8 0 1.7 1.1 2.1 2.5.3 1.4 1.2 2.5 2 2.5s1.3.8 1.2 1.7c-.1 1 0 3.3 0 5.2.2 2.5.6 3.2 1.8 2.7 1-.4 1.9.3 2.7 2.2 1.9 4.5 5.8 8.6 10.4 10.8 3.8 1.9 4.5 2 6.3.7 1.8-1.3 2.4-1.1 6 1.7 2.2 1.7 4 2.9 4 2.7 0-.3 2.6 2.1 5.8 5.3 6.9 6.9 11.7 10 15.4 10 2.6 0 8.8 5 8.8 7.1 0 1.1 8.6 5.2 10.9 5.2.8 0 1.6.8 1.8 1.8.3 1.1 1.1 1.5 2 1.2 1.8-.7 6.3 1.6 6.3 3.3 0 2.1 6.9 2.9 8.7 1.1 1.9-1.9 5.7-.6 9 3.3 1.2 1.4 2.2 2.1 2.3 1.7 0-.5 1-.1 2.2.7 1.2.9 3 1.6 3.9 1.6.9 0 2.3.7 3 1.6 1.3 1.5 5.3 3.6 7.4 3.8 1.8.2 6 2.8 7.6 4.8 1 1.4 2.8 2 5.3 2 3.7 0 12.1 3.9 14.2 6.6.9 1.2 1.8 1.1 5.8-.8 2.6-1.2 6.2-2.1 7.9-2.1 4.6-.1 8.9-1.9 8.3-3.5-.7-1.8 1.3-1.8 3.3-.1 2.7 2.3 9.4 4.2 14.1 4.2 4 0 4.5-.3 4.8-2.3.4-2.5.2-2.5 6.6-.5 1.6.5 1.7.2 1.2-2.4-.6-2.5-.3-3.1 1.9-4.3 1.8-1 2.4-1.9 1.9-3.3-.5-1.6-.3-1.7 1.4-.8 1.2.6 3 1.1 4.2 1.1 1.1 0 2.3.7 2.7 1.5 1.5 4.1 8.2 4.8 11.1 1.2.7-.8 2.1-1.3 3.2-1 1.1.3 2.7 0 3.5-.7.8-.7 2.1-1 2.9-.7 1.5.6 3.1-1.8 2.7-4.2-.1-.7.4-1.1 1.1-.9.7.3 1.3 1.3 1.3 2.4 0 1 1 3.5 2.3 5.4 2.8 4.4 2.8 6.3 0 7.5-3.5 1.6-7 7.3-5.7 9.6.8 1.5.6 1.9-.6 1.9-1.3 0-1.4.4-.5 2 .6 1.1 1.8 2 2.8 2 .9 0 3.1 1.1 4.7 2.4 2.7 2.2 3.2 2.3 4.7.9 1.6-1.4 2-1.4 4.2.1 1.4.8 2.7 1.2 3 .7.7-1.1 7.1 2 10.2 5 1.9 1.7 3.2 2 8.2 1.7 6.4-.3 10.2 1.6 10.2 5.2 0 2.1 1.6 3.5 4.8 4.3 1.9.4 2.2.2 1.7-1.3-.4-1.3.1-2 2.2-2.5 1.5-.5 3.2-.7 3.7-.6.4.1 1.5-.4 2.3-1.1 1-.8 1.7-.8 2.1-.1.4.6 2.1 1.4 3.9 1.7 2.6.6 3.4.4 4.3-1.4 1.1-2 1.3-2 2.9-.6 1 .9 2.6 1.6 3.7 1.6 3 0 4.4 1.4 7.3 6.6 2 3.8 3.2 5 5.3 5.2 1.8.2 2.5.8 2.2 1.7-.7 1.6 3.1 3.9 6.7 3.9 3 .1 10.7 6.7 12.6 10.8.6 1.4 2.9 3.9 4.9 5.5 2.1 1.5 5 4 6.4 5.4 1.4 1.5 4.8 3.9 7.5 5.3 2.8 1.5 6.9 3.8 9.1 5.2l4.2 2.4-1.9 3.7c-1.1 2.1-1.9 4.2-1.9 4.9 0 .6-.7 1.7-1.5 2.4-.9.7-1.4 1.9-1.1 2.6.3.7-.2 1.5-1 1.8-.8.3-1.4 1.6-1.4 3s-.4 2.8-1 3.1c-.5.3-1 1.5-1 2.6 0 1-.7 1.9-1.5 1.9-1 0-1.5 1.1-1.6 3.2-.1 1.8-.2 5.2-.3 7.5-.1 3.4-.5 4.3-1.8 4.3-1.4 0-1.8.8-1.8 3.3 0 1.8-.5 3.8-1.1 4.4-.8.8-.6 1.9.5 4.2 1.7 3.2 3.1 4 3.8 2 .6-1.7 4.8 1.1 4.8 3.1 0 2.3-3.9 5.4-4.6 3.7-.2-.7-1.3-1.3-2.3-1.4-1.3-.1-2 .9-2.7 3.5-.6 2.6-1.5 3.8-3 4-2.3.3-5 4.4-4 6.1.4.5 1.3.8 2.1.5 1.9-.8 4.9 4.1 4.1 6.9-.9 3.6-4.5 7.7-6.1 7-2.3-.8-4.5 1.6-4.5 4.9 0 2.7-.2 2.9-3.7 2.7-2.1-.2-4.4-.7-5.1-1.3-2.8-2.1-9.2-1.5-9.2.9 0 .7-1 1.5-2.2 1.7-1.8.2-2.2.9-2 3 .2 2.2-.1 2.8-1.7 2.8-2.4 0-3.9-2.4-3.9-6.4.1-3-1.3-4.2-6.8-6.1-3.5-1.3-5.4-.9-5.4 1.1 0 1.6-.9 1.8-2.9.5-1.1-.7-2.4 0-4.8 2.7-1.8 2-3.3 4.2-3.3 4.8 0 .7-2 3-4.5 5.1-2.5 2-4.5 4.2-4.5 4.8 0 .6-1.3 2.1-3 3.3-1.6 1.3-3 2.9-3 3.7 0 .7-1.6 1.9-3.6 2.5-4.1 1.4-7.3.3-10.9-3.6-1.1-1.2-3.2-3-4.8-3.9-2.6-1.6-2.7-1.6-2.1 0 .4.9 1.8 2.1 3.1 2.6 1.8.7 2.4 1.5 2 2.8-.2 1 0 2.6.5 3.5.6 1.1.6 2.1-.1 3-.7.8-.5 2.1.9 4.4 2.5 4.1 2.5 4.2-.4 8.5-2.7 4-3.4 6.6-2.3 8.4.5.9.3 1.3-.7 1.3-1.9 0-2.2 4-.4 5.8 1.7 1.7 4.9 1.5 4.2-.2-1-2.5 2.6-2.7 4.7-.2 1.4 1.7 2.7 2.2 4.6 1.8 2.1-.4 2.4-.7 1.2-1.6-.8-.6-1.5-2.4-1.7-3.9-.3-2.6-.1-2.8 2-2.2l2.3.7-2.2-1.7c-1.3-.9-2.3-2.3-2.3-3.2 0-.9-.6-1.3-1.5-.9-1 .4-1.5-.1-1.5-1.4 0-1.1-.4-2-.9-2s-1.3-1.8-1.9-4.1l-1-4.1 5.1.7c2.9.4 6.3 1.2 7.7 1.7 1.4.6 5.1 1.1 8.3 1.3 4.2.1 6.1.7 7.1 2 2.1 2.9 4 2.6 6.5-1 2.1-3.1 2.2-3.5.7-5.8-1-1.4-1.4-3.2-.9-4.2 2.1-5.6 8.5-7.3 9.1-2.5.5 3.4 2 5 4.8 5 1.8 0 2.4.6 2.4 2.1 0 1.7.4 2 2.2 1.5 1.7-.4 3 .2 5 2.4 1.5 1.7 3.7 3 5 3 1.3 0 4 1.1 6 2.5s4.2 2.5 4.8 2.5c.6 0 2.7 1.6 4.7 3.5 4.3 4.1 9.6 6 12.4 4.2 1.5-.9 2.3-.9 3.9.1 1.5.9 2.5.9 4.6 0 2.2-1 2.7-1 3.7.7 1.4 2.6 7.9 8.5 9.3 8.5.6 0 3.3.9 5.9 2.1 4.2 1.9 4.9 1.9 6.2.6 1.4-1.3 1.8-1.3 3.9.6 1.3 1.1 2.1 2.4 1.8 2.9-.3.5-.3 2 0 3.4.5 2 1.3 2.4 4.2 2.4 2.4 0 3.7.5 4.1 1.7.4 1 1.9 3 3.5 4.6 1.5 1.5 2.8 3.5 2.8 4.5.1.9.7 2.8 1.5 4.2 2 3.5 1.9 8-.1 8-1.3 0-1.4.6-.8 3.2.5 1.8.8 4.5.9 6 0 2.5.4 2.8 3.3 2.8 2.1 0 3.2.5 3.2 1.4 0 .8 1.4 1.8 3.2 2.1 2.9.7 9.4 5.5 7.4 5.5-2.5 0 5.3 4.5 7.9 4.6 3.5.1 8.5 2.5 10.6 5 .9 1.1.9 1.5.2 1-.7-.4-1.3-.3-1.3.3s-.8.8-1.7.5c-1.7-.5-1.7-.5 0 .6.9.6 2.1.9 2.6.6 1.2-.8 7.1 2.3 7.8 4.1.8 2 4.8 3.4 8.2 2.7 2.3-.5 2.8-1 2.3-2.7-.3-1.3-.1-1.8.6-1.3.6.3 2.9.3 5.2 0 3.2-.5 4.4-1.3 5.1-3.1.7-1.8 1.4-2.3 2.8-1.8 1.7.5 2.6-.4 3.7-4 .2-.6.6-2 1-3.3.4-1.3.2-2.2-.5-2.2-.6 0-1.1-.4-1.1-1 0-1.1 2.8-.9 4.8.3 1.6 1.1 1.5-.5-.3-2.9s-1.9-3.4-.2-3.4c1.9 0 6-4.7 5.3-5.9-.4-.6-.1-.9.7-.5.8.3 1.8.1 2.1-.4.3-.5 1.7-.7 3.1-.4 2.2.4 2.5.1 2.5-2.2 0-2 .5-2.6 2.1-2.6 1.4 0 2.4-1 3.2-3 .8-2.1 1.8-3 3.5-3 2.3 0 8.2-5.1 8.2-7.2 0-.6.8-.4 1.8.5 2.3 2.1 4.1 2.1 6.6.2 1.1-.8 2.9-1.5 4.1-1.5 1.1 0 3.9-1.7 6-3.8 5.1-4.8 7.3-5.7 9.5-3.7 1.5 1.4 1.8 1.4 2.3.1.4-.9 2-1.4 4.2-1.4 5.3 0 6-1.1 4.8-7.3-.9-4.6-.9-5.2.7-5.6 1.3-.4 1.9-1.9 2.3-6.3.4-3.3.4-6.6.1-7.5-.7-1.7-.4-1.8 2.8-.6 1.8.7 2.9.4 4.6-.9 1.2-1 2.2-2.3 2.2-2.9 0-1.4 1.7-1.4 2.5 0 .5.7 1.3.4 2.6-.7 1.6-1.4 2.1-1.5 3.5-.4 1.1 1 1.7 1.1 2.3.2.4-.7 1.2-.8 2.1-.2 1.2.7 1.2 1.2.3 2.1-1 1-1.8 1-3.8.1-1.4-.6-2.5-.7-2.5-.2 0 1.6 3 3.9 4.5 3.4.8-.4 1.7.1 2.1.9.3.9 1.3 1.8 2.2 2.2.9.3 1.3.3 1-.1-.4-.3.2-1.5 1.3-2.7 1-1.1 1.9-2.7 1.9-3.5 0-1 .9-1.2 3.8-.7 3.5.5 3.7.4 3.8-2 .1-1.4.9-3.4 1.8-4.4.9-1 1.6-2.5 1.6-3.3 0-.9.6-1.9 1.3-2.2.8-.4.9-.8.1-1.1-.6-.3-2-1.2-3-2-1.7-1.2-1.5-1.3 2.4-.8 2.8.4 4.2.2 4.2-.6 0-.6.7-1.1 1.6-1.1 1.1 0 1.4-.6.9-2.1-1.1-3.4 1.8-1.8 3 1.7.5 1.6 1.4 3.2 1.9 3.5 2.6 1.9-4.9 12.9-8.7 12.9h-2.1l2.2 2.2c1.8 1.8 2.4 2 3.1 1 .6-1 1.1-.5 2 1.6 1.5 3.5 6.8 6.3 8.1 4.3.6-1 1.2-1 2.9 0 1.1.8 2.1 1.9 2.1 2.6 0 1.4 2.6 1.8 3.2.5.2-.5 2-1.2 4.1-1.5 4.5-.7 5 1 .8 3.7l-2.8 1.9 2 2.4 2.1 2.3 3.3-2c1.9-1.1 4.1-2 4.9-2 .8 0 1.4-.4 1.4-.9s.7-1.1 1.5-1.3c1.3-.3 1.3-.6 0-3.1-1.4-2.6-1.3-2.8 1.1-3.7 1.4-.6 3.1-1 3.7-1 .7 0 2.7-2.8 4.5-6.3l3.3-6.2-2.5-.3c-2.6-.3-6.6-4.4-6.6-6.7 0-1.9-5.2-6.2-5.7-4.8-.7 1.8-2.7 1.6-4.6-.5-2.1-2.3-2.2-3.3-.2-2.6.8.4 1.5.1 1.5-.4 0-1.7-2.1-2.5-3.3-1.3-1.7 1.7-3.4 1.3-5.7-1.1-1.6-1.7-2.3-1.9-3.2-1-.7.7-1.9 1.2-2.8 1.2-1 0-3 .6-4.6 1.4-4.6 2.2-7.4 2.8-7.4 1.7 0-.6.9-1.1 2-1.1 1.6 0 2-.7 2-3 0-1.7-.4-3-1-3-1.4 0-3.1-3.6-3.4-7.5-.3-4 0-4.1 3.3-1.9 2.3 1.6 2.3 1.6 1.1-.7l-1.3-2.4 2.2 2c1.8 1.5 2.4 1.7 3.1.6.4-.8 1.5-1.1 2.4-.8 1.1.4 1.6.2 1.4-.6-.1-.6.6-2.6 1.5-4.4.9-1.8 1.7-3.8 1.6-4.5 0-.7-.5-.3-1.1 1-1 1.9-1.7 2.2-5.1 1.7-2.1-.4-4.8-1.4-5.9-2.4-1-1-3.7-2.7-5.9-3.7-3.5-1.5-4.2-1.6-4.9-.3-.7 1.1-1.2 1.1-2.2.1-.8-.8-.9-1.2 0-1.2.6 0 .2-1.4-1.1-3.4s-2.8-3.1-3.6-2.8c-.8.3-2-.3-2.7-1.3-1.4-1.8-1.4-1.8-1.4.1 0 1 .7 2.7 1.5 3.8 1.2 1.6 1.1 2.2-.7 4.7-2 2.7-2 2.9-.4 5.3.9 1.5 1.2 2.6.6 2.6-.5 0-1 .7-1 1.6 0 1.2-.3 1.4-1.3.6-.7-.6-2.3-.9-3.4-.6-1.5.4-2.6 0-3.5-1.5-.7-1.2-1.9-2.1-2.6-2.1-.7 0-1-.5-.7-1 .8-1.3-1.2-4-2.9-4-.7 0-2 1.6-2.9 3.6-1.1 2.3-2.1 3.2-2.9 2.8-3.3-2.1-11.2.1-12.2 3.3-.5 1.4-1.8 1.8-6.1 1.9-3 0-7.2.7-9.4 1.4-3.4 1.1-4.3 1.1-5.8-.1-1.5-1.2-1.6-1.2-1.1.2.5 1.2 0 1.6-1.8 1.6-4.4 0-8.9-2.1-8.9-4.1 0-1.1-.8-2-1.8-2.2-.9-.1-1.4.2-1.1.7.3.5-.8 1.4-2.5 2-1.7.6-3.1 1.5-3.1 1.9 0 .8-2.5-.2-5.9-2.4-2.4-1.6-12.3-1.7-14-.2-2.4 1.9-4.7 2.6-5.8 1.5-1.6-1.6-6.2.8-6.9 3.5-.5 2.2-1 2.4-3.5 1.9-2-.4-2.9-.1-2.9.7 0 2-5.6.4-9.5-2.6-4.4-3.3-4.4-4.4 0-4.4 1.9 0 3.5.4 3.5 1 0 .5 1.1 1 2.5 1 2.2 0 2.5-.3 1.9-2.6-.6-2.4-.5-2.6 1.8-2.2 1.9.4 2.9-.2 4.4-2.4 1-1.5 2.4-2.8 2.9-2.8.6 0 1.8-1.2 2.8-2.5 1.6-2.3 1.6-2.7.2-5.4-.8-1.7-1.5-3.8-1.5-4.8s-.8-3-1.7-4.3c-1.6-2.5-1.6-2.5.4-.7 1.1 1 2.7 1.5 3.6 1.1 1.5-.5 1.5-.8 0-3-1.5-2.3-1.4-2.4 1.1-2.4 1.5 0 2.9-.7 3.2-1.5.3-.8 2.2-1.7 4.2-2.1 5.1-1 9.8-4.4 9.4-6.9-.4-1.6-.2-1.7 1-.8 2.4 2 7.1.1 8.3-3.3 1.1-3.4 2.3-4.4 4.2-3.7 2.1.8 4.1-1.5 3.5-4.2-.2-1.4.3-3.6 1.2-5.1 1.9-2.8 1.4-7.5-1-9.4-.7-.7-1.1-1.6-.8-2.1.3-.5.1-.9-.5-.9-.9 0-5.1-6-5.1-7.3 0-.4.7-.4 1.5-.1 2.5 1 1.7-2.3-1-4.5-2.1-1.6-2.4-2.5-1.9-4.8.4-1.5 1.1-3 1.5-3.3 1.2-.8-.1-5-1.5-5-.6 0-2.3-1-3.7-2.3-2.3-1.9-2.6-2.8-2.2-6.5.3-2.6 1-4.2 1.8-4.2s1.5-1 1.7-2.3c.2-1.4.9-2.1 2-1.9 1.8.3 3.2-2.7 2.2-5.1-.3-.8-.1-2.5.5-3.6s.7-2.2.3-2.5c-.5-.3-.7-2.9-.4-5.9.2-3.1-.1-6.3-.8-7.6-.9-1.8-.9-2.2.2-2 2.8.3 3.6-.2 4.7-3.1 1.2-3.6 5-4.2 5.8-1 .7 2.7 1.8 2.5 2.1-.3.2-2.8-5.1-6.2-7.6-4.8-1.2.7-2.4.2-4.4-1.7-3.2-3.1-3.7-4.7-.9-3.2 2.6 1.4 2.8 1.3 3.4-1.1.4-1.3 1-1.8 1.8-1.3.7.4 2.3.7 3.7.8 1.9.1 2.8 1 4.3 4.6 1.6 4 1.9 4.2 2.5 2.2.7-2.3 1.9-2.9 2.9-1.2.3.5 2 .7 3.8.5 1.8-.3 2.6-.3 2 .1-.7.3-1.3 2-1.2 3.7 0 1.8.3 2.7.5 2.1.6-1.5 4.4-.6 4.4 1.1 0 2.2 3.6 4.5 6.9 4.5 2.2 0 4.1.9 6.1 2.9 1.6 1.6 3.6 3.1 4.5 3.4.8.4 1.5 1 1.5 1.6 0 .5.9 1.1 1.9 1.4 2.5.6 6.7 7.3 7.3 11.6.4 2.5-.3 4.8-2.4 8.8l-2.8 5.4 2.6 2.4c3.3 3 5.8 3.2 8.2.5 1.4-1.7 2.4-1.9 6.2-1.4 2.5.3 5.5 1.3 6.8 2 1.2.8 2.2 1 2.2.4 0-2 4.2-.9 9 2.5 6.3 4.4 7.3 4.4 3.1.1-3.9-4-3.7-5.5 1-7.1l3.4-1.2-.1-7.6c-.1-4.3.2-7.7.7-7.7 1.3 0 1.1-4.4-.2-5.7-.8-.8-.7-1.6.2-3.1 1-1.6.9-2.8-.9-7-1.2-2.8-2.2-6.2-2.2-7.5 0-1.4-.7-3-1.5-3.7-.9-.7-1.4-1.8-1.2-2.4.2-.6-.3-1.7-1-2.5-2.1-2.1-.9-3.6 2.6-3.4 3 .1 3.2-.1 2.6-2.7-.6-2.6-.3-2.9 2.2-3.2 3.2-.4 4.2-3 1.9-5.3-.8-.9-1.8-3.1-2.2-5-.3-1.9-1.2-3.5-1.9-3.5-.8 0-2.3-1.4-3.5-3-1.2-1.7-3-3-4-3s-2.6-1-3.4-2.2c-1.1-1.5-2.4-2.1-4.8-1.9-7.3.4-8.2.2-10-2.1-.9-1.2-1.8-3.1-1.8-4.1 0-.9-.7-1.7-1.5-1.7-1.7 0-3-4-2.1-6.7.3-1 .2-2.4-.3-3.2-.6-.9-.3-2.1 1-3.4 2.3-2.5 2.1-7.7-.3-10.4-1.1-1.2-1.4-2.8-1.1-4.6.3-1.5.1-2.7-.4-2.7s-2.2-2.3-3.8-5.1c-2.2-3.7-3.8-5.2-5.8-5.6-1.7-.4-2.6-1.1-2.3-1.9.5-1.4-1.4-2.4-4.7-2.4-1.2 0-3.5-.7-5.2-1.6-3.7-2.1-7.3-1.9-9.7.3-1.8 1.6-2.2 1.6-6.6-.1-2.6-1-5.7-2-7-2.3-1.2-.3-3.9-2.8-6-5.5-2-2.7-5.4-6.8-7.4-9-2.1-2.2-3.8-4.8-3.9-5.7-.1-3.7-3.5-7.5-8.1-9-2.5-.9-5.5-2.3-6.5-3.2-1-.9-2.8-2-4-2.3-2.2-.7-2.2-.7-.3-2.6 1.6-1.6 1.8-2.4.9-4.7-.7-1.9-.7-2.9 0-3.1.6-.2 1.1-1 1.1-1.8s.5-1.4 1-1.4c.7 0 .7-.8-.1-2.2-1-1.9-.9-2.4 1-3.6 1.1-.8 2.1-2 2.1-2.6 0-.6 1.3-2 3-3.1 2.8-1.8 2.9-2.3 2.5-7.4-.3-3.9-.9-5.7-2.4-6.7-1.5-1.1-1.9-2.2-1.4-4.9.4-2.6.2-3.6-1-4.1-.8-.3-1.8-1.6-2.1-2.8-.3-1.3-1.7-3.1-3.1-4-2.4-1.6-2.4-1.8-.9-4.2 1.6-2.3 1.5-2.6-.2-4.5-1.6-1.8-1.7-2.2-.4-3.2 1.9-1.5 2.1-5.7.3-5.7-.8 0-1.9-1.3-2.4-3-.6-1.6-1.5-2.8-1.9-2.5-.5.3-1.2-.1-1.7-.8-1-1.7-10.6-4.9-11.3-3.8-.3.5-1.3.7-2.3.5-2.1-.3-5-2.5-4.3-3.2.3-.2-.3-1.2-1.2-2.1-1-.9-1.6-1.5-1.4-1.4.3.1 1.1-.4 1.8-1.2 2.2-2.1 1.6-4.9-1.1-6.2-1.4-.6-2.5-.8-2.5-.3 0 .4-1.9.2-4.2-.4-3.2-.9-4.2-.8-4.6.2-.3.9-1.1.8-3.5-.5-3.9-2.2-4.7-3.2-4.7-6 0-2.2-2.4-5.3-4.1-5.3-.6 0-.7.5-.3 1.2.5.8.2.9-.9.5-.9-.3-2.7-.3-3.9.2l-2.2.8 2.2 1.2c1.3.7 2.1 1.8 1.9 2.4-.2.7 0 2 .5 3.1.7 1.2.6 2.2-.1 2.9-1.4 1.4-4.3 1.6-5.2.4-1-1.4-11.7 1.2-12.3 3-.4.9-.9 1.3-1.3 1-.9-1-4 1.6-6.8 5.7-2 3-2.3 4.1-1.4 5.2.9 1.1.8 1.4-.2 1.4-1 .1-.8.4.4 1.1 2.5 1.5 2.1 2.7-1.2 3.4-2.3.5-3 1.3-3.4 3.8-.3 2.2 0 3.6 1 4.4 1.7 1.3 1.2 2.5-3 6.7-1.3 1.3-1.6 2.1-.8 2.9 1.3 1.3 1.5 4.7.2 4.7-.5 0-2.3-1.3-4-2.9-1.7-1.6-3.1-2.6-3.1-2.3 0 1.4-6.1-6.5-6.6-8.5-.6-2.1-1.8-2.7-5.2-2.6-.8.1-1.2-.6-.9-1.6.2-.9-.6-3.2-1.9-5.1-2-2.8-2.4-3.1-3-1.6-.6 1.6-.8 1.5-2.9-.4-1.9-1.8-2.4-1.9-3.4-.6-.9 1.1-2 1.2-4.4.5-4.5-1.3-5.7-1.1-5.1.6.5 1.3.2 1.3-2.3 0-2-1-3.9-1.2-6.6-.6-4.6 1.1-6.2-.8-4.7-5.8.5-1.8.5-3.3-.1-3.6-.5-.4-.9-1.4-.9-2.5 0-1-.7-2.1-1.6-2.4-1-.4-1.3-1.3-.9-2.6.5-1.6.2-2-1.4-2-1.2 0-2.1.5-2.1 1.1 0 .7-1.1.8-3 .4-2.6-.6-3-.4-3 1.4 0 1.2-.5 2.1-1.1 2.1-.7 0-1.7.7-2.3 1.5-.6.9-2 1.6-3.1 1.6-4.9-.1-10.1-1.4-11.2-2.8-.6-.8-1.6-1.2-2.2-.9-.5.4-1.2.2-1.6-.4-.3-.5-1.6-1-2.8-1-1.3 0-1.7.3-1.1.8 1 .7 2.9 6 2.6 7.4-.1.4 1.2 1.7 2.9 2.9 2.4 1.7 2.9 2.6 2.4 4.6-.7 3.1 2.8 12.9 6 16.3 1.2 1.4 2.6 3.5 3 4.7.3 1.3 1.2 2.3 1.9 2.3 2.5 0 4.1 3 2.8 5-.8 1.4-.8 2.1-.1 2.6.8.4.7.9-.2 1.5-1.2.7-1.2 1.2-.1 3 1.2 1.8 1.2 2.3 0 3-1.2.8-.4 1.3 1.5 1 .4 0 .7.9.8 2.2 0 1.2.3 1.6.6.9.2-.6 1.1-1.2 1.9-1.2.8 0 1.4-.5 1.4-1.1 0-.5.5-.7 1-.4.6.4.8 1.1.4 1.6-.7 1.3 2.4 4.9 4.2 4.9.8 0 1.1.6.8 1.5-.4.8-.1 1.5.5 1.5s1.1.7 1.1 1.5c0 1.8-1.2 1.9-2.7.4-.7-.7-1.3-.7-1.7-.1-.9 1.5-5.4-.9-6.1-3.3-.5-1.9-.7-1.8-2.6.8-1.4 1.9-2.7 2.6-3.9 2.2-1.2-.4-2.5.3-3.8 2l-2 2.5-2.5-2.1c-1.5-1.1-2.4-2.6-2.1-3.4.3-.8-.4-2.4-1.5-3.6-2.1-2.3-2.9-4.5-1.2-3.5 1.2.8 2.2-2 1.5-3.9-.4-.8-.2-1.5.3-1.5.4 0 .7-2 .5-4.4-.3-3.7-.7-4.3-2.2-3.9-1.3.4-2.3-.4-3.5-2.6-.9-1.8-1.9-3-2.3-2.7-.4.2-1.9-.4-3.2-1.4-2.5-1.9-2.5-1.9-.5-3.4s1.9-1.6-1.2-4.6c-1.8-1.6-3.7-3-4.2-3-.6 0-1.5-.9-2.1-2-.6-1.1-1.4-1.9-1.8-1.8-1.7.5-4.8-1.4-5.7-3.4-.9-2.1-1.7-2.3-7.2-2.1-5.6.1-6.2-.1-6.7-2.1-.3-1.2-1.8-3.4-3.3-4.8-10.1-9.2-11.5-10.8-10.9-12.5.8-2.1-2.2-8.1-4.4-8.8-1.5-.5-2.4-3.2-4.4-12.6-.4-1.9-.1-2.9.9-3.3 2.2-.8 1.8-4.2-.7-6.6-2-1.8-2.3-3.2-2.5-10.6-.1-6.3.1-8.4 1-8.1.7.2 2 0 3-.5s2.4-.5 3.6.1c1.4.8 2.3.6 3.6-.9 1-1.1 2.6-2 3.5-2 .9 0 2.7-1.2 4.1-2.6l2.4-2.5-2.1-1.7c-2.9-2.3-4.6-5.7-4.9-10.1-.4-5.6-2.2-11.4-3.9-12.3-.8-.4-2.5-2.5-3.8-4.6-3.3-5.4-4.9-7.1-6.3-6.5-1.5.5-5.9-5-7-8.6-1.4-4.5-4.7-9.3-5.6-8-.6 1-1.6.9-4.8-.5-2.2-1-4-2.1-3.9-2.5.3-2.6-.5-4.1-2.1-4.1s-3.7-2.7-2.8-3.6c.7-.8 12.3-.9 14.3-.1 2.5.9 4.1-1.7 2.4-3.8-.8-.9-.7-1.4.2-1.7.9-.3.4-1.5-1.6-3.8-2.7-3.2-2.7-3.4-.9-4.8 1-.7 3.2-1.2 4.8-1 2.8.3 3.1.1 2.9-2.2-.1-1.4-.5-3.3-.9-4.3-.7-1.6-.4-1.8 1.6-1.5 1.8.2 2.4.9 2.4 2.8 0 1.7.7 2.6 2.5 3.1 4.6 1.3 8 1 8-.7 0-.8-.4-1.2-1-.9-.5.3-1-.3-1-1.4 0-1.3.7-2.1 1.6-2.1 1 0 1.4-.6 1-1.5-.4-1.1.2-1.5 2.2-1.5h2.6l-2.2-1.6c-1.2-.8-2.2-2.4-2.2-3.5 0-1-.7-1.9-1.5-1.9-1.9 0-7.3-3.7-9.8-6.8-1-1.2-2.2-2-2.7-1.7-1 .6-8.1-2.5-9.2-4-.5-.6-.8-.5-.8.3 0 .7-.4 1-1 .7-.5-.3-1 0-1 .7 0 .8-.5.6-1.1-.5-.5-.9-1.4-1.7-2-1.7-.5 0-1.9-.9-3.1-2-3.2-3-6-2.5-8.6 1.6-1.7 2.7-2.8 3.4-4.2 2.9-1.3-.4-2-.2-2 .6 0 .7-.7 2.1-1.7 3.1-1.5 1.7-1.4 1.8 1.6 2.4 3.5.7 5.8 4.4 4.5 7.3-.4.9-.6 1.9-.6 2.3.1.5-.3.8-.8.8-.6 0-1 1.6-1 3.5 0 2.2-.6 3.8-1.5 4.1-.9.4-1.5 1.9-1.5 3.5 0 4.5-2.1 4.4-7.4-.6-5.1-4.7-6.6-4.9-6.6-1.1 0 1.3-.7 2.9-1.6 3.7-1.4 1.1-1.4 1.3 0 2.1 2 1.1 2.1 4.2.2 3.5-.9-.4-1.7.1-2.1 1.2-.6 2-4.5 3.6-4.5 1.8 0-.6-.3-.8-.6-.5-.3.4.1 1.9.9 3.5.8 1.5 1.2 3.3 1 4-.2.6.3 2.3 1.3 3.7 2.1 3.4.2 3.4-3.1 0-1.4-1.4-2.9-2.2-3.4-1.9-.6.3-1.1-1.4-1.3-3.7-.3-3.9-.6-4.3-3.1-4.6-1.5-.2-4.2-1.9-6.2-3.9-1.9-1.9-5.8-4.6-8.7-6-2.9-1.3-6.8-3.3-8.6-4.5-3-1.8-3.1-2.1-1.6-3.3 1.6-1.1 1.5-1.5-1.2-5.3-1.6-2.2-3.6-4.3-4.4-4.5-1-.3-1.7-1.8-1.8-4.2-.3-4.8-1-5.9-2.7-4.5-1 .8-1.9.3-3.8-2-1.4-1.6-2.8-2.6-3.1-2.1-.3.5-3.4.7-6.8.5-6.4-.4-8.8-1.8-8.8-5.4 0-2.5-2.4-7-3.7-7-.7 0-1.7-.9-2.3-1.9-.5-1.1-2.3-2.2-3.9-2.6-2.2-.5-2.8-1.1-2.4-2.4.3-1.2-.8-3.1-3.3-5.5-3.6-3.5-3.7-3.7-1.8-5.1 1-.8 2.4-1.5 3-1.5 1.7 0-.6-6.2-5-13.4-2-3.3-3.6-6.4-3.6-6.9 0-.4-.9-.5-2-.2-1.2.4-3.1-.1-4.8-1.3-3.7-2.6-11.2-3.8-11.2-1.7 0 .8-.4 1.5-.9 1.5-1.5 0-5.2-5.2-5.8-8.1-.6-3.2-8.6-8.9-9.1-6.4-.4 1.8-.7 1.8-5.4.2-2.8-1-3.5-1.6-2.6-2.5 1.2-1.2-.5-2.1-8-4.2-2.3-.6-5.4-2.2-7-3.5-1.7-1.4-3.7-2.5-4.6-2.5-1 0-3.5-1-5.6-2.3-3.2-1.7-4.3-2-5.8-1.1-2.1 1.3-5.2-.3-5.2-2.7 0-.9-1-1.5-2.6-1.4-2.2 0-2.9-.7-4-3.9-.8-2.2-2.2-4.8-3.1-5.8-2.4-2.7-11.4-7-13.4-6.5-.9.2-2.3 0-3.2-.5-1-.5-2.3-.4-3.5.3-1.5.9-2.9.8-6.7-.4-2.6-.9-5.1-1.4-5.6-1.2-.4.3-2-1.1-3.6-3.1-1.5-2-5-4.7-7.7-5.9-4.2-2-5.1-2.2-6.3-.9-.8.8-3.2 1.4-5.4 1.4-3.4 0-4.2-.5-6.4-3.9-1.7-2.5-2.5-5-2.4-7.2.3-4-.6-6-2.4-5.3-.7.2-2.2-.4-3.2-1.6-1.1-1.2-3.1-2-5.1-2-1.8 0-4-.7-4.8-1.6-.9-.8-1.6-1.2-1.6-.7 0 1.5-11.6 1.4-15.1-.2-1.9-.8-3-1.4-2.6-1.5.4 0 .3-.9-.3-2.1-.6-1.1-1.7-1.8-2.3-1.6-1.9.7-6.2-1.9-7.7-4.7-1.6-3.1-6-6.3-6-4.4 0 .9-.3.9-1.2 0-1.4-1.4-2.5-1.5-3.2-.3zm68 55.2c1.3 2.6 1.3 3.3.3 4-.8.5-1.8 0-2.7-1.3-1.2-1.7-1.3-2.2-.1-2.9 1-.6 1.1-.9.2-.9-.7 0-1.3-.5-1.3-1 0-2.1 2-.9 3.6 2.1zm-.1 7.9c.3.5.2 1-.4 1-.5 0-1.3-.5-1.6-1-.3-.6-.2-1 .4-1 .5 0 1.3.4 1.6 1zm-20.5 23.6c0 1.7-2.2 1.4-2.8-.4-.2-.7.3-1.2 1.2-1.2.9 0 1.6.7 1.6 1.6zm270 99.9c.7-.4 1 0 .8 1-.2 1.3.4 1.8 2.4 1.9 3.6.2 7.8 4.3 7.8 7.6 0 1.4-.7 3.6-1.6 4.8-1.2 1.8-1.9 2-3.5 1.2-1.1-.6-1.7-1.4-1.5-1.9.9-1.4-2-7.8-5.2-11.5-3.3-3.8-4.3-5.7-1.7-3.6.8.6 1.9.9 2.5.5zm18 66.9c0 .3-.4.8-1 1.1-.5.3-1 .1-1-.4 0-.6.5-1.1 1-1.1.6 0 1 .2 1 .4zm-65 50.6c0 .5-.4 1-1 1-.5 0-1-.5-1-1 0-.6.5-1 1-1 .6 0 1 .4 1 1zm-4.6 1.6c.9.3 1.6 1.5 1.6 2.5 0 1.7-.3 1.8-2.2.8-2-.9-1.9-.7.5 1.5 1.9 1.9 2.7 3.7 2.7 6.1 0 1.9-.3 3.5-.7 3.6-.5 0-1.8.2-3.1.3-1.2.2-2.7-.3-3.3-1.1-.6-.7-2.4-1.3-4-1.3-2.9 0-4-1.5-1.6-2.3.9-.3.9-.7-.1-1.9-1.7-2.1-.4-5.1 1.9-4.5 1.1.3 1.9.1 1.9-.3 0-1.1 2.9-4 4-4 .5 0 1.5.3 2.4.6zm-82.7 42.1c-.3 1-.5.2-.5-1.7s.2-2.7.5-1.8c.2 1 .2 2.6 0 3.5zm4.3-.1c0 .8-.5 1.2-1 .9-.6-.4-.8-1.1-.5-1.6.9-1.4 1.5-1.1 1.5.7zm-11.5 5.4c.3.5.1 1-.6 1-.8 0-.6.6.4 1.8 2.1 2.3 2.2 3.6.1 2.8-1.8-.7-5 2.1-5.5 4.8-.2 1.1-1.1 2.1-1.9 2.3-1.1.3-1.2.2-.3-.4.9-.7.7-1.4-.9-2.7-2.1-1.8-2.1-1.9-.2-3.3 1-.8 1.8-2.1 1.6-2.9-.2-.8.2-1.4.8-1.4.5 0 1-.7 1-1.5 0-1.7 4.5-2.1 5.5-.5zm259 35.9c.3.5-.8.9-2.5.9-2.1-.1-2.7-.4-1.8-.9 1.7-1.1 3.5-1.1 4.3 0zm-3.1 3.6c.3.8.1 1.5-.4 1.5-.6 0-1-.7-1-1.5s.2-1.5.4-1.5.6.7 1 1.5zm-15.9 9.5c.3.5.1 1-.4 1-.6 0-1.1-.5-1.1-1 0-.6.2-1 .4-1 .3 0 .8.4 1.1 1zm196.7 104.5c.3 1.4.1 2.8-.3 3.1-.5.3-.9-.1-.9-1 0-.8-.5-1.6-1.2-1.8-.6-.2-.8-1-.4-1.6 1.2-1.9 2.3-1.4 2.8 1.3zm75.3 10.5c.3.5.1 1-.4 1-.6 0-1.1-.5-1.1-1 0-.6.2-1 .4-1 .3 0 .8.4 1.1 1zm-37.5 4.5c0 .2-.9.9-2 1.5-2.2 1.2-4.4.5-3.5-1.1.6-.9 5.5-1.3 5.5-.4zm-7.3 4.1c-.3.3-1.2.4-1.9.1-.8-.3-.5-.6.6-.6 1.1-.1 1.7.2 1.3.5zm32.8.4c.3.5.1 1-.4 1-.6 0-1.1-.5-1.1-1 0-.6.2-1 .4-1 .3 0 .8.4 1.1 1zm-196.5 11.6c1.5 3.8 1.2 4.2-1 1.4-2.2-2.8-2.5-4-1-4 .6 0 1.5 1.2 2 2.6zm9.1-.6c1 0 1.9.5 1.9 1.1 0 .5-.4.7-1 .4-.5-.3-1-.2-1 .3 0 .6.6 1.2 1.4 1.5.9.4 1.2 1.5.9 3.1-.7 3.4-1.5 3.8-4.1 2-1.7-1.1-2.1-2.1-1.6-4s.3-2.3-1-1.8c-1.1.4-1.6.1-1.6-1 0-.9.7-1.6 1.5-1.6s1.5-.6 1.6-1.3c0-1 .2-1 .6 0 .2.7 1.3 1.3 2.4 1.3zm122.3 1.7c.7 1.7-1.2 1.6-3-.1-1.2-1.3-1.2-1.5.6-1.3 1.1.1 2.2.7 2.4 1.4zm-3.4 5.3c0 .5-.7.7-1.5.4-.8-.4-1.5-.8-1.5-1 0-.2.7-.4 1.5-.4s1.5.4 1.5 1zm-64.4 137.5c.7 1 1.1 2.3.8 2.9-.3.6.1.3.9-.7 2.6-3.2 5-1.4 2.8 2.1-.6 1-2.1 1.2-5.5.7-3.7-.6-4.6-1.1-4.6-2.7 0-1.8-.5-2-3.4-1.5-3 .5-5.6-.6-5.6-2.3 0-.3 3-.5 6.7-.4 5.1.1 6.9.5 7.9 1.9zm16.9-1.5c.3.5.1 1-.4 1-.6 0-1.1-.5-1.1-1 0-.6.2-1 .4-1 .3 0 .8.4 1.1 1zm-43.7 2.8c1.3 2 1.1 2.3-2 3.7-2.6 1.3-3.9 1.4-6.3.5-2.1-.8-2.6-1.3-1.6-1.9.8-.5 1.1-1.7.6-3-.6-2-.3-2.1 3.6-1.7 3 .2 4.8 1 5.7 2.4zm169.9 9.8c-.3.3-1.2.4-1.9.1-.8-.3-.5-.6.6-.6 1.1-.1 1.7.2 1.3.5zm.4 9.4c-.7 3.2-.8 3.3-1.8 1.5-.7-1.3-.7-2.9-.2-4.4 1.4-3.6 2.9-1.3 2 2.9zm-6.7 1.5c.9 2.5-1.1 2.5-2.2 0-.9-1.9-.8-2.3.3-1.9.7.3 1.6 1.2 1.9 1.9zm11.6 20.5c0 .5-.2 1-.4 1-.3 0-.8-.5-1.1-1-.3-.6-.1-1 .4-1 .6 0 1.1.4 1.1 1zm38.5 19c.3.5.1 1-.4 1-.6 0-1.1-.5-1.1-1 0-.6.2-1 .4-1 .3 0 .8.4 1.1 1zM54.986 45.898c0 .8.4 1.7.9 2 .5.4.7-.3.4-1.4-.6-2.3-1.3-2.6-1.3-.6zM52.986 51.098c0 1.7 2.2 1.4 2.8-.4.2-.7-.3-1.2-1.2-1.2-.9 0-1.6.7-1.6 1.6zM46.486 78.498c-.3.5-.1 1 .4 1 .6 0 1.1-.5 1.1-1 0-.6-.2-1-.4-1-.3 0-.8.4-1.1 1zM35.986 82.598c0 1.8-.4 2.1-3 1.6-2.2-.5-2.8-.3-2.4.8.3.7 0 2.3-.6 3.5-.9 1.8-.8 2.6.7 4.3l1.8 2.1-2.6-1.6c-1.5-.9-2.9-1.4-3.3-1.1-1.1 1.1-.6 8.9.7 10.3.6.8.8 1.1.3.7-1.4-1.1-3.6 1.2-2.9 3.1.6 1.5.5 1.6-1.2.2-1.6-1.4-1.7-1.3-1.1.7.4 1.2.2 2.4-.4 2.8-.7.4-.7 1.2 0 2.5.8 1.5.6 2-1.1 2.5-1.5.5-1.8 1-1 1.8 1.6 1.6 4.1 1.7 4.1.1 0-.8.9-1.4 2.1-1.4 1.1 0 1.8-.4 1.5-.9-.3-.5 1.7-1.8 4.4-3 2.8-1.2 5-2.8 5-3.6 0-2.1 2.4-9.5 3-9.5.3 0 .4-1.6.2-3.5-.3-2.7-.1-3.5 1.2-3.5.9 0 1.6-.6 1.6-1.4 0-.8 1.4-2.1 3-3 1.9-.9 3-1.1 3-.4 0 .6.2.9.5.6 1.1-1.1-.7-5.9-2.1-5.4-.7.3-1.5 0-1.8-.7-.3-.9-.5-.9-.5 0-.1.8-1 .9-3.3.2-4.8-1.3-5.8-1.1-5.8 1.2z"/><path d="M392.586 209.798c.3 1 .9 1.5 1.2 1.2.3-.3 0-1.1-.7-1.8-1-.9-1.1-.8-.5.6zM374.986 213.298c0 .5.9 1.7 2.1 2.8 2.1 1.9 2.1 1.9 1.8-.6-.4-2.3-3.9-4.3-3.9-2.2zM429.986 226.498c0 .5.7.7 1.5.4.8-.4 1.5-.8 1.5-1 0-.2-.7-.4-1.5-.4s-1.5.4-1.5 1zM102.486 234.698c.3 1.3 1.2 5.6 1.9 9.7 1.6 8.4 4 12.2 4.4 7 .1-1.7.6-3.9 1.1-4.8.4-.9.7-3.6.6-6.1-.2-3.7-.8-4.8-3.1-6.2-4-2.5-5.6-2.3-4.9.4zM107.686 257.198c-.3.3-.3 1.1-.1 1.8.3.7.1 1.6-.4 1.9-1 .6-.4 5.4.8 6.1.5.3 1.1-.4 1.5-1.4.4-1.3 1.2-1.8 2.2-1.4 1.2.5 1.4.1.8-1.6-.8-2.6-4.1-6.2-4.8-5.4zM112.986 270.198c0 2.4 2 6.4 3 5.8.5-.3 1-1 1-1.4 0-1.4-3.9-5.7-4-4.4zM170.986 285.598c0 .5.5.7 1 .4.6-.3 1-.8 1-1.1 0-.2-.4-.4-1-.4-.5 0-1 .5-1 1.1zM115.986 292.398c0 .4.5 1.2 1.2 1.9.9.9.8 1.2-.7 1.2-1.7 0-1.7.1-.1 1.9.9 1 1.6 2.4 1.4 3.1-.2.7.3 1.5 1.1 1.8.8.2 1.1 0 .8-.6-.4-.5 0-1.6.9-2.3 1.2-1 1.7-1 2.3-.1.7 1.2 4.1.6 4.1-.7-.1-1.4-3.8-4.9-6.1-5.7-3.5-1.2-4.9-1.3-4.9-.5zM461.986 294.598c-1.9.4-3.8.5-4.2.3-1.4-.9-4.8.7-4.8 2.2 0 .8-.4 1.4-1 1.4-.5 0-1 .6-1 1.4 0 1.7 2.7 3 5.6 2.7 1.4-.1 2.3.5 2.6 1.7.6 2.3 6.8 2.9 6.8.6 0-.8.5-1.4 1-1.4 1.5 0 1.2-1.7-.7-3.5-1.3-1.4-1.4-2.1-.5-3.6 1.5-2.3.6-2.8-3.8-1.8zM99.286 304.198c1 .9 5.6 1 5.1.1-.3-.4-1.7-.8-3.1-.8-1.5 0-2.3.3-2 .7zM117.986 304.498l-2.5.8 2.8.1c1.5.1 2.7-.4 2.7-.9 0-.6-.1-1-.2-.9-.2.1-1.4.5-2.8.9zM116.286 309.598c-1.9 1.9-.3 4.9 2.6 4.8 1.4 0 2-.3 1.4-.6-.7-.2-1.3-1.3-1.3-2.3 0-2.3-1.3-3.3-2.7-1.9zM469.486 309.798c-.4 1-.3 2.3.4 3 1.6 1.6 2.3.3 1.2-2.4-.8-2.2-1-2.2-1.6-.6zM476.686 320.198c-.2.5-.3 1.8-.2 3 .1 1.3-.2 2.3-.7 2.3-.4 0-.8.5-.8 1 0 .6 1.1.8 2.8.4 3.5-.9 3.8-1.2 2.4-2.6-.7-.7-1.2-2-1.2-3 0-1.8-1.5-2.5-2.3-1.1zM134.986 321.498c0 .5-1.2 1.6-2.7 2.4-2.6 1.4-2.6 1.5-.6 1.6 1.2 0 2.8.3 3.7.6 1.3.5 1.6-.1 1.6-2.5 0-1.7-.4-3.1-1-3.1-.5 0-1 .4-1 1zM607.986 355.598c0 .5.5.7 1 .4.6-.3 1-.8 1-1.1 0-.2-.4-.4-1-.4-.5 0-1 .5-1 1.1zM230.886 384.598c-1 .6-.8.9 1.1 1 1.4 0 3.3.2 4.2.4 1 .2 2-.1 2.4-.6.3-.5.2-.9-.3-1-.4 0-2-.2-3.4-.4s-3.2.1-4 .6zM496.986 426.898c0 .2.7.9 1.5 1.6.9.7 1.5.8 1.5.2 0-.5-.7-1.2-1.5-1.6-.8-.3-1.5-.4-1.5-.2zM691.486 579.498c-.3.5.3 1 1.5 1s1.8-.5 1.5-1c-.3-.6-1-1-1.5-1s-1.2.4-1.5 1zM700.986 588.198c0 .5.5 1.5 1 2.3.9 1.3 1.1 1.3 1.9 0 .7-1 .6-1.7-.2-2.2-1.5-1-2.7-1-2.7-.1zM786.486 639.798c-.4 1-.5 2.1-.1 2.4 1 1 1.8-.4 1.3-2.4-.4-1.7-.4-1.7-1.2 0zM778.186 646.998c.9 1 2.1 1.6 2.8 1.3.7-.2-.1-1-1.6-1.7-2.7-1.2-2.8-1.1-1.2.4zM783.686 647.898c-.3.7.7 2.3 2.4 3.5 2.6 1.9 3.2 2 5 .8 1.9-1.4 1.8-1.5-1.8-3.2-2.1-1-4.1-1.9-4.4-2.1-.4-.2-.9.2-1.2 1zM503.986 703.598c-1.9.4-2.5.7-1.4.8 2.1.1 4.3 3.1 2.3 3.1-.6 0-.8.4-.5.9.9 1.4 4.2.1 6.8-2.6l2.3-2.6-2.7.7c-1.4.3-2.8.3-3-.2-.2-.4-1.9-.4-3.8-.1zM514.086 705.098c0 1.1.3 1.4.6.6.3-.7.2-1.6-.1-1.9-.3-.4-.6.2-.5 1.3zM743.986 707.498c0 .5.5 1 1.1 1 .5 0 .7-.5.4-1-.3-.6-.8-1-1.1-1-.2 0-.4.4-.4 1zM746.986 707.398c0 1.6 2.6 3 3.9 2.2 1.3-.9.9-1.3-2.1-2.4-1-.4-1.8-.3-1.8.2zM513.686 710.498c.7 2.5 1.7 3.2 3.6 2.4 1.4-.5 1.3-.8-.1-2.5-2.2-2.5-4.2-2.5-3.5.1zM803.586 719.098c-.3.9-1.3 1.4-2 1.1-.8-.3-1.7.1-2 1-.8 2.1.3 3.1 1.3 1.4.5-.7 1.4-1 2-.7.6.4.9 1.2.5 1.7-.3.6.2 1.9 1.2 3 1.4 1.5 2.9 1.9 7 1.8 2.9-.1 5.1-.6 4.8-1.1-.3-.4-1.4-.8-2.5-.8-2.2 0-2.7-3.8-.6-5.9 1-1.1.9-1.3-.1-.7-.7.4-2.6 0-4.4-.8-3.9-2-4.4-2-5.2 0zM751.986 720.498c0 .5.7 1 1.6 1 .8 0 1.2-.5.9-1-.3-.6-1-1-1.6-1-.5 0-.9.4-.9 1zM793.986 722.898c0 .2.7.6 1.5 1 .8.3 1.5.1 1.5-.4 0-.6-.7-1-1.5-1s-1.5.2-1.5.4zM784.686 738.198c-1.2 1.1-.8 4.1.6 4.6.8.3 1.3-.3 1.2-1.8 0-2.6-.8-3.8-1.8-2.8zM781.086 740.098c0 1.1.3 1.4.6.6.3-.7.2-1.6-.1-1.9-.3-.4-.6.2-.5 1.3zM755.986 779.198c0 .5.4 1.4.9 2.1.7 1.1.9 1.1 1.4-.1.3-.8.3-1.8 0-2.1-.9-.8-2.3-.7-2.3.1zM748.286 781.198c.9.2 1.7.9 1.7 1.4 0 .6.5.7 1 .4 1.6-1 .1-2.5-2.3-2.4-1.7.1-1.8.2-.4.6zM745.586 785.098c-.9.8-1.4 2-1.1 2.4.9 1.5 3.5-.1 3.5-2.1 0-2.3-.4-2.4-2.4-.3zM434.986 786.598c0 .5.5.7 1 .4.6-.3 1-.8 1-1.1 0-.2-.4-.4-1-.4-.5 0-1 .5-1 1.1zM792.486 789.498c-.3.5-.1 1 .4 1 .6 0 1.1-.5 1.1-1 0-.6-.2-1-.4-1-.3 0-.8.4-1.1 1zM786.486 792.498c-.7 1.2-.7 1.2 2.3 1.5 1.3.1 2.2-.3 2.2-1.1 0-1.6-3.6-1.9-4.5-.4z"/></g></svg>