<?xml version="1.0" standalone="no"?>
<!DOCTYPE svg PUBLIC "-//W3C//DTD SVG 20010904//EN"
 "http://www.w3.org/TR/2001/REC-SVG-20010904/DTD/svg10.dtd">
<svg version="1.0" xmlns="http://www.w3.org/2000/svg"
 width="631.389149pt" height="620.964131pt" viewBox="0 0 631.389149 620.964131"
 preserveAspectRatio="xMidYMid meet">
<metadata>
Created by potrace 1.15, written by Peter Selinger 2001-2017
</metadata>
<g transform="translate(-693.535745,1295.964131) scale(0.100000,-0.100000)"
fill="#222222" stroke="none">
<path d="M9150 12946 c0 -8 -16 -16 -42 -20 -25 -4 -47 -15 -56 -27 -8 -11
-19 -18 -25 -16 -7 2 -20 -9 -29 -25 -10 -16 -26 -28 -38 -28 -11 0 -20 -5
-20 -11 0 -5 -16 -17 -35 -25 -19 -8 -35 -19 -35 -24 0 -6 -11 -15 -25 -20
-19 -7 -25 -17 -25 -40 0 -31 -26 -53 -39 -33 -10 17 -115 10 -134 -9 -9 -9
-17 -21 -17 -26 0 -6 -6 -13 -12 -16 -10 -5 -10 -7 0 -12 10 -5 10 -9 1 -20
-6 -7 -9 -20 -6 -28 6 -15 -11 -36 -27 -36 -28 1 -59 39 -61 74 0 20 3 36 8
36 5 0 4 7 -3 15 -6 8 -9 19 -5 24 4 7 0 8 -10 5 -9 -4 -14 -13 -11 -21 14
-36 -8 -29 -45 13 -21 25 -39 40 -39 34 0 -6 -11 -16 -25 -22 -21 -10 -30 -8
-52 8 -23 18 -27 29 -30 84 -2 35 -6 66 -8 69 -3 2 -16 -1 -29 -8 -13 -8 -29
-11 -34 -7 -17 10 0 -78 17 -91 14 -10 16 -7 19 18 5 44 22 35 22 -11 0 -27
-5 -43 -15 -46 -9 -4 -15 -19 -15 -39 0 -18 7 -38 15 -45 8 -7 15 -16 15 -20
0 -10 -102 1 -117 12 -9 8 -13 6 -13 -5 0 -24 -51 -16 -76 12 -22 23 -22 23
-33 4 -8 -15 -25 -22 -71 -27 -66 -8 -64 -4 -44 -78 4 -14 0 -16 -30 -11 -25
4 -36 2 -36 -7 0 -7 -7 -10 -15 -6 -13 5 -15 0 -9 -29 5 -28 3 -35 -10 -35 -9
0 -19 6 -22 14 -3 7 -16 12 -29 10 -14 -1 -27 2 -31 7 -3 5 -15 14 -27 20 -18
10 -17 7 5 -14 25 -23 70 -107 89 -162 5 -18 7 -17 14 7 4 15 16 30 26 33 17
6 18 8 4 35 -21 41 -19 47 6 16 20 -25 21 -31 9 -67 -7 -21 -20 -39 -28 -39
-10 0 -12 -7 -8 -25 4 -15 2 -25 -4 -25 -6 0 -8 -5 -5 -10 4 -6 1 -17 -5 -25
-8 -10 -9 -15 -2 -15 6 0 19 -13 29 -30 9 -16 24 -30 33 -31 10 0 9 -3 -4 -8
-17 -7 -18 -8 -3 -14 9 -3 20 -1 24 6 5 7 18 17 30 24 19 11 23 10 28 -7 7
-22 16 -25 31 -11 16 17 86 -11 103 -41 12 -21 21 -26 36 -22 11 4 21 10 23
15 2 4 14 3 27 -3 13 -6 32 -7 42 -4 16 7 15 9 -7 21 l-25 13 28 7 c17 5 27
14 27 25 0 10 6 21 13 23 10 4 10 6 0 6 -22 2 -14 38 8 44 18 5 20 11 14 34
-3 15 -11 30 -16 31 -5 2 -9 8 -9 13 0 6 5 7 11 3 7 -4 10 -1 7 7 -3 8 -12 13
-22 11 -18 -3 -42 39 -33 60 3 9 23 15 53 16 27 1 44 -1 38 -5 -21 -16 -25
-45 -7 -58 13 -10 15 -16 6 -26 -17 -21 5 -55 57 -89 36 -24 46 -27 64 -17 12
7 23 15 26 18 10 14 47 14 63 0 10 -8 17 -28 17 -48 0 -30 2 -34 15 -23 8 7
23 10 33 8 10 -3 27 1 37 8 18 13 17 14 -6 14 -35 0 -41 8 -23 35 13 20 13 24
-1 35 -10 8 -12 17 -6 24 13 16 18 55 6 55 -20 0 -24 63 -5 96 10 18 20 43 22
56 2 19 10 25 36 27 26 3 32 8 32 27 0 13 6 28 13 32 7 4 17 19 23 33 11 25
11 25 33 -17 21 -43 39 -59 27 -25 -4 10 1 8 13 -7 15 -19 30 -25 73 -27 l55
-4 0 33 c0 17 -2 26 -4 20 -7 -20 -29 -15 -61 12 -16 14 -40 29 -53 34 -23 8
-23 9 15 25 52 22 71 20 84 -6 8 -17 11 -19 11 -7 1 9 8 20 17 23 20 8 11 59
-18 99 -25 35 -17 46 11 16 12 -13 21 -17 21 -11 0 7 7 12 15 12 9 0 18 7 22
16 3 8 12 13 20 10 7 -3 21 -2 31 3 9 5 25 12 35 15 11 4 17 16 17 36 0 40 33
74 59 61 15 -8 20 -5 29 14 6 14 9 32 6 40 -8 19 -34 20 -34 1z"/>
<path d="M8204 12711 c-5 -31 -11 -40 -30 -44 -13 -2 -29 2 -35 9 -18 21 -36
17 -41 -10 -3 -16 -1 -23 8 -19 6 2 15 0 18 -5 4 -7 18 -6 39 0 17 6 38 13 45
14 8 3 11 11 7 24 -5 16 -2 20 14 20 22 0 25 8 15 34 -11 30 -34 17 -40 -23z"/>
<path d="M8165 12710 c3 -5 11 -10 16 -10 6 0 7 5 4 10 -3 6 -11 10 -16 10 -6
0 -7 -4 -4 -10z"/>
<path d="M8549 12671 c9 -6 12 -18 8 -32 l-6 -23 23 25 c20 21 21 25 7 31 -9
4 -23 7 -31 7 -13 1 -13 -1 -1 -8z"/>
<path d="M7581 12523 c21 -24 48 -35 65 -25 20 11 7 21 -43 32 -29 7 -32 6
-22 -7z"/>
<path d="M7672 12506 c2 -21 5 -23 21 -15 15 8 16 13 6 25 -17 21 -29 17 -27
-10z"/>
<path d="M7657 12459 c4 -13 8 -18 11 -10 2 7 -1 18 -6 23 -8 8 -9 4 -5 -13z"/>
<path d="M7125 12420 c3 -5 8 -10 11 -10 2 0 4 5 4 10 0 6 -5 10 -11 10 -5 0
-7 -4 -4 -10z"/>
<path d="M7181 12372 c25 -12 34 -22 31 -35 -2 -11 5 -29 16 -40 26 -29 62
-101 62 -125 0 -23 19 -42 42 -42 10 0 18 -6 18 -14 0 -20 30 -29 37 -10 3 8
12 13 19 10 7 -3 17 2 22 10 8 14 10 14 21 0 8 -10 29 -16 51 -16 26 0 48 -8
67 -24 23 -19 30 -21 41 -10 6 7 12 19 12 26 0 7 10 14 23 15 12 1 45 5 72 8
28 4 60 6 72 6 35 -1 36 16 1 28 -17 6 -37 20 -44 30 -8 10 -30 22 -50 26 -21
4 -49 19 -63 34 -14 15 -45 40 -68 54 -24 15 -43 32 -43 37 0 5 -14 17 -31 26
-29 15 -31 15 -26 0 5 -13 -1 -16 -38 -16 -35 0 -47 4 -56 21 -8 16 -13 18
-19 9 -5 -9 -20 -11 -44 -7 -20 3 -36 2 -36 -4 0 -13 -24 -11 -37 2 -7 7 -29
13 -50 14 l-38 3 36 -16z"/>
<path d="M8250 12330 c0 -5 5 -10 11 -10 5 0 7 5 4 10 -3 6 -8 10 -11 10 -2 0
-4 -4 -4 -10z"/>
<path d="M8757 12247 c-8 -22 6 -37 21 -21 8 9 9 14 2 14 -6 0 -8 5 -5 10 3 6
2 10 -3 10 -6 0 -12 -6 -15 -13z"/>
<path d="M6936 12193 c2 -46 4 -53 14 -53 5 0 7 8 3 18 -3 9 13 -2 35 -25 44
-47 46 -48 85 -30 27 12 48 40 23 31 -8 -3 -16 4 -19 16 -3 12 -10 19 -16 15
-6 -3 -15 5 -21 19 -5 14 -17 25 -27 25 -10 0 -32 3 -48 7 -29 5 -31 4 -29
-23z"/>
<path d="M8730 12191 c-8 -12 -22 -21 -30 -21 -26 0 -40 -21 -29 -42 8 -16 13
-16 32 -6 12 7 26 11 30 10 5 -1 6 2 2 8 -3 6 -12 8 -18 4 -7 -3 -2 4 11 15
13 11 22 28 20 36 -2 13 -6 13 -18 -4z"/>
<path d="M7201 12155 c-1 -13 -13 -26 -33 -34 -30 -13 -31 -14 -10 -18 25 -5
57 -46 48 -62 -4 -5 3 -26 15 -46 19 -32 20 -37 6 -48 -14 -11 -14 -16 2 -49
16 -31 16 -37 4 -40 -12 -3 -11 -6 2 -23 9 -11 13 -14 9 -6 -6 11 1 12 32 6
21 -4 45 -12 52 -17 9 -8 11 -7 6 5 -4 12 3 17 31 23 20 3 39 13 42 20 3 8 13
14 23 14 16 0 15 4 -5 46 -25 51 -39 64 -74 64 -19 0 -22 4 -17 23 3 12 6 28
6 35 0 6 7 12 15 12 8 0 15 7 15 15 0 10 -10 15 -34 15 -56 0 -83 15 -91 50
-5 24 -10 29 -20 20 -10 -8 -14 -7 -18 2 -3 7 -6 4 -6 -7z"/>
<path d="M8510 12114 c0 -4 8 -13 18 -20 16 -12 16 -13 0 -19 -10 -4 -18 -17
-18 -30 0 -31 -40 -41 -80 -20 -27 14 -30 14 -30 0 0 -26 -29 -50 -43 -36 -18
18 -29 13 -25 -11 2 -18 -4 -24 -32 -33 -19 -5 -50 -18 -69 -27 -19 -10 -40
-18 -47 -18 -24 0 -28 -47 -6 -84 12 -20 18 -43 15 -60 -4 -18 -1 -26 9 -26 9
0 32 -11 52 -25 20 -13 36 -21 36 -18 0 4 6 -2 14 -12 9 -13 11 -25 5 -36 -10
-20 0 -30 52 -52 29 -12 37 -12 45 -2 7 10 16 11 34 3 25 -10 24 -10 -21 -32
-25 -13 -52 -23 -60 -23 -27 0 -100 -37 -95 -48 2 -7 -7 -10 -25 -7 -32 5 -39
-12 -11 -26 9 -5 38 -13 65 -16 40 -6 47 -5 47 9 0 15 1 15 16 1 14 -15 14
-18 -3 -39 -41 -51 -58 -67 -70 -67 -7 0 -13 -6 -13 -14 0 -19 -19 -25 -52
-15 -24 7 -29 4 -34 -17 -4 -16 -1 -31 10 -43 10 -11 13 -22 8 -25 -5 -3 -17
3 -27 14 -9 10 -30 22 -45 25 -22 5 -32 15 -41 43 -15 47 -44 86 -75 103 -13
7 -24 19 -24 28 -1 27 -23 47 -52 46 -30 0 -33 -7 -29 -63 3 -40 -23 -84 -45
-75 -8 3 -21 -2 -29 -13 -7 -11 -17 -16 -20 -12 -4 4 -16 -3 -26 -15 l-18 -22
-27 34 c-38 46 -52 21 -24 -44 23 -54 25 -71 8 -78 -9 -4 -7 -11 7 -24 45 -40
60 -80 69 -182 1 -19 11 -40 23 -50 33 -26 44 -73 28 -118 -16 -45 -9 -56 36
-51 31 3 33 5 36 47 2 24 8 50 14 57 8 10 8 14 0 14 -6 0 -11 -5 -11 -11 0 -5
-5 -7 -10 -4 -6 4 -8 10 -5 15 3 4 -3 7 -12 6 -9 0 -18 4 -20 10 -4 13 80 39
95 30 5 -3 12 8 16 24 4 22 11 30 26 30 12 0 19 4 15 9 -6 11 33 55 58 64 11
4 17 17 17 36 0 17 6 31 16 35 21 8 21 8 26 -12 3 -12 -2 -24 -13 -31 -11 -6
-19 -18 -19 -25 0 -8 -9 -18 -20 -21 -16 -5 -18 -10 -10 -25 13 -25 13 -30 -5
-30 -8 0 -15 -4 -15 -10 0 -5 6 -10 14 -10 8 0 21 -8 28 -18 7 -10 25 -22 40
-25 18 -5 25 -12 22 -21 -10 -26 33 -39 121 -37 33 1 91 -4 129 -11 54 -9 71
-9 74 0 2 7 12 12 23 12 10 0 19 4 19 9 0 5 6 16 14 24 13 12 13 17 0 36 -8
11 -26 21 -38 21 -13 0 -27 8 -30 17 -5 12 -10 13 -18 5 -7 -7 -17 -7 -34 0
l-23 11 22 41 c22 43 24 47 26 71 0 8 7 13 14 11 6 -1 9 -1 5 1 -15 9 -8 41
13 54 19 13 20 16 5 44 -9 17 -16 35 -16 42 0 7 -13 28 -30 46 -25 29 -28 36
-16 47 8 6 12 18 9 26 -3 8 0 20 6 28 6 7 9 21 5 30 -4 12 0 16 16 16 11 0 19
4 16 9 -3 5 0 20 7 34 12 23 15 24 44 12 27 -11 32 -11 37 1 3 8 2 13 -2 10
-4 -2 -9 4 -9 15 -2 17 1 18 13 9 7 -7 25 -10 39 -8 14 3 28 1 31 -3 3 -5 0
-9 -6 -9 -6 0 -18 -6 -25 -14 -16 -16 -6 -29 32 -40 11 -4 28 -18 37 -31 9
-14 25 -25 35 -25 11 0 34 -12 51 -26 41 -35 91 -60 111 -56 9 2 22 14 29 28
9 16 17 21 24 14 13 -13 46 -13 46 1 0 6 9 9 20 6 13 -3 20 0 20 8 0 18 -17
28 -25 16 -9 -16 -71 18 -84 45 -7 16 -19 24 -36 24 -14 0 -40 7 -57 16 -16 9
-27 11 -24 5 8 -12 -4 -14 -28 -5 -9 3 -16 12 -16 19 0 10 -12 13 -45 10 -35
-3 -45 0 -45 12 0 11 7 14 26 10 16 -3 28 0 31 9 4 11 9 12 18 4 7 -6 20 -8
29 -4 11 4 16 1 16 -11 0 -11 6 -15 18 -11 9 2 27 7 40 11 13 4 22 14 21 23
-4 42 2 61 21 67 21 7 28 35 9 35 -8 0 -9 14 -5 43 8 51 -11 97 -54 127 l-29
20 -6 -20 c-7 -22 -34 -27 -52 -9 -8 8 -17 5 -32 -10 -23 -23 -82 -24 -89 -1
-3 7 0 10 6 6 6 -4 19 5 28 20 17 24 17 27 1 36 -28 15 -19 28 18 28 27 0 35
4 35 18 0 10 -5 23 -11 29 -6 6 -11 27 -12 46 -1 32 -5 36 -48 55 -27 11 -49
16 -51 10 -6 -18 -38 4 -38 27 0 13 -7 26 -16 29 -20 8 -24 8 -24 0z m-310
-924 c0 -11 -4 -20 -9 -20 -5 0 -11 -6 -13 -14 -2 -8 -10 -11 -21 -7 -17 6
-17 8 3 34 25 32 40 35 40 7z"/>
<path d="M7927 12081 c3 -14 0 -23 -11 -27 -10 -4 -14 -13 -11 -24 3 -9 1 -29
-4 -43 -8 -20 -7 -27 5 -31 9 -3 20 -4 25 -1 10 7 69 -22 69 -34 0 -16 45 -21
55 -7 10 13 34 20 62 17 6 0 15 -10 18 -21 4 -11 11 -18 16 -15 12 8 -16 61
-36 68 -8 4 -15 16 -15 27 0 11 -8 23 -17 26 -10 3 -27 10 -38 14 -11 5 -31
12 -45 15 -14 4 -37 19 -52 32 -25 24 -26 24 -21 4z"/>
<path d="M7005 12080 c3 -5 8 -10 11 -10 2 0 4 5 4 10 0 6 -5 10 -11 10 -5 0
-7 -4 -4 -10z"/>
<path d="M8211 12036 c-15 -18 5 -35 41 -33 34 2 35 11 6 31 -27 19 -32 20
-47 2z"/>
<path d="M8743 11935 c-16 -18 -17 -42 -2 -51 8 -4 9 0 4 15 -5 15 -2 21 9 21
9 0 15 -5 14 -12 -2 -6 13 -20 33 -29 20 -10 46 -30 57 -44 11 -14 27 -25 36
-25 19 0 21 -16 4 -23 -8 -3 -5 -6 6 -6 11 -1 16 -6 13 -15 -3 -8 -3 -17 1
-21 4 -4 7 -10 7 -13 1 -26 34 -73 59 -84 16 -6 40 -21 55 -33 14 -12 37 -26
51 -30 24 -7 24 -7 8 11 -9 11 -19 30 -22 44 -2 14 -7 37 -11 53 -4 18 -16 32
-38 41 -25 11 -29 15 -16 20 15 7 15 10 2 37 -9 17 -22 29 -34 29 -13 0 -24
10 -30 30 -12 34 -13 34 -39 20 -13 -7 -21 -7 -25 0 -4 7 -13 7 -24 1 -15 -8
-22 -3 -40 29 -12 22 -26 40 -31 40 -5 0 -14 2 -22 5 -7 2 -19 -2 -25 -10z"/>
<path d="M9121 11561 c-6 -11 -11 -31 -11 -46 0 -20 -8 -29 -35 -41 -49 -20
-46 -45 11 -83 25 -17 47 -31 50 -31 4 0 21 -7 40 -16 32 -15 33 -18 17 -30
-10 -7 -27 -14 -38 -14 -11 0 -33 -12 -48 -26 -23 -22 -35 -25 -64 -21 -29 5
-36 3 -40 -13 -3 -11 -14 -20 -24 -20 -20 0 -39 28 -32 48 5 14 -14 42 -29 42
-5 0 -12 -8 -15 -17 -9 -23 -22 -37 -51 -52 -12 -6 -22 -18 -22 -26 0 -18 -5
-18 -31 -4 -17 9 -21 7 -26 -10 -3 -12 -14 -21 -24 -21 -12 0 -19 -7 -19 -19
0 -23 -16 -37 -53 -46 -37 -10 -43 -29 -21 -63 20 -29 20 -37 2 -95 -13 -44 1
-63 35 -45 10 5 20 8 21 6 1 -2 8 -15 16 -30 9 -18 21 -28 36 -28 13 0 25 -8
28 -18 4 -10 22 -26 41 -35 19 -9 35 -22 35 -27 0 -6 -4 -8 -10 -5 -5 3 -10 1
-10 -4 0 -6 4 -11 10 -11 16 0 51 -43 46 -57 -3 -7 4 -17 14 -23 11 -6 20 -8
20 -5 0 3 9 -4 20 -15 22 -22 60 -27 60 -8 0 6 9 2 20 -10 12 -12 25 -23 30
-23 29 -4 100 -38 100 -48 0 -4 12 -8 27 -7 18 1 27 -4 29 -17 1 -10 8 -25 16
-34 7 -9 12 -23 10 -32 -1 -9 7 -22 18 -28 22 -14 23 -12 35 80 3 26 10 47 16
47 5 0 9 5 9 11 0 6 -7 8 -16 5 -20 -8 -54 2 -54 14 0 5 9 14 20 20 16 9 28 7
53 -5 49 -25 79 -36 73 -26 -3 5 6 9 20 9 14 0 30 7 37 15 7 9 24 20 38 26 25
9 25 9 15 -25 -8 -24 -16 -34 -27 -31 -9 2 -26 -1 -39 -8 -24 -13 -24 -13 9
-20 20 -4 36 -16 43 -31 8 -17 19 -24 37 -23 14 1 40 -4 56 -11 45 -19 63 -19
68 2 6 22 35 23 63 4 22 -16 51 -6 40 13 -5 7 1 11 13 11 12 0 21 4 21 9 0 5
9 13 20 16 11 3 23 17 26 30 6 23 14 25 46 11 23 -10 50 -4 56 13 3 8 0 11 -6
8 -9 -6 -32 12 -29 23 0 3 -4 14 -11 25 -8 14 -14 17 -20 8 -5 -9 -18 -9 -47
-2 -22 5 -46 11 -54 13 -17 3 -40 45 -41 74 0 12 -6 22 -12 22 -13 0 -58 70
-58 89 0 18 42 -2 52 -25 17 -36 66 -36 101 0 15 17 25 36 23 43 -3 7 -1 13 5
13 6 0 6 7 -1 20 -6 10 -9 23 -8 27 0 4 -2 21 -7 36 -6 22 -20 34 -64 53 -43
19 -59 32 -69 57 -8 18 -21 49 -29 69 -9 20 -13 45 -9 54 4 10 2 21 -5 24 -7
5 2 20 25 44 39 39 39 52 -3 90 -15 14 -30 17 -56 13 -26 -4 -38 -1 -47 11 -7
10 -28 30 -47 45 -26 22 -40 27 -62 22 -21 -5 -29 -3 -29 7 -1 24 -35 54 -92
80 -46 21 -58 24 -62 12 -7 -17 -30 -18 -44 -1 -6 6 -33 13 -61 15 -41 2 -52
0 -60 -17z m639 -660 c0 -17 -18 -21 -24 -6 -3 9 0 15 9 15 8 0 15 -4 15 -9z
m-865 -31 c3 -6 -5 -10 -19 -10 -14 0 -28 5 -31 10 -3 6 5 10 19 10 14 0 28
-4 31 -10z m275 -191 c0 -6 -4 -7 -10 -4 -5 3 -10 11 -10 16 0 6 5 7 10 4 6
-3 10 -11 10 -16z"/>
<path d="M7893 11513 c-15 -6 -17 -33 -3 -33 6 0 10 6 10 14 0 8 6 17 13 19 6
3 8 5 2 5 -5 0 -16 -2 -22 -5z"/>
<path d="M11755 11110 c-3 -5 -1 -10 4 -10 6 0 11 5 11 10 0 6 -2 10 -4 10 -3
0 -8 -4 -11 -10z"/>
<path d="M11690 11050 c-6 -10 -16 -17 -24 -14 -18 7 -49 -42 -41 -66 3 -10 1
-21 -5 -25 -5 -3 -7 -17 -4 -31 5 -19 3 -23 -8 -19 -8 3 -21 -1 -28 -10 -7 -8
-21 -15 -31 -15 -11 0 -28 -6 -39 -12 -16 -10 -24 -10 -38 0 -34 24 -64 33
-77 22 -7 -6 -20 -8 -29 -4 -9 3 -16 1 -16 -5 0 -6 -9 -11 -21 -11 -11 0 -35
-16 -54 -35 -25 -27 -34 -32 -38 -21 -4 9 2 17 14 21 25 8 24 19 -3 42 -13 10
-31 35 -40 56 -16 33 -21 37 -56 37 -34 0 -39 -3 -50 -34 -7 -19 -10 -46 -6
-60 4 -17 2 -26 -5 -26 -7 0 -9 -9 -6 -23 8 -29 -40 -87 -71 -87 -12 0 -27 -7
-34 -15 -7 -8 -16 -13 -20 -10 -5 3 -11 1 -15 -5 -3 -5 -29 -21 -58 -35 -66
-34 -67 -34 -71 -81 -4 -38 -5 -39 -42 -40 -22 0 -47 -4 -56 -8 -10 -5 -25 -6
-33 -2 -17 6 -58 -9 -94 -36 -14 -11 -41 -18 -68 -18 -34 0 -49 -6 -67 -25
-16 -17 -34 -25 -56 -25 l-33 0 27 -25 c28 -26 34 -45 13 -45 -25 0 -77 -31
-77 -46 0 -8 -9 -14 -19 -14 -10 0 -22 -7 -25 -16 -5 -12 -10 -14 -19 -5 -21
17 -42 -33 -40 -90 2 -39 -1 -47 -12 -42 -10 3 -15 -2 -15 -16 0 -14 -6 -21
-20 -21 -14 0 -20 7 -20 23 0 12 -7 30 -14 40 -8 10 -12 27 -9 37 3 11 1 20
-4 20 -12 0 -48 49 -57 78 -10 29 5 28 38 -3 24 -22 27 -23 32 -7 3 9 10 29
16 44 12 34 8 44 -16 39 -24 -4 -36 15 -36 61 0 27 5 40 20 48 27 14 25 32 -6
61 -18 16 -28 20 -31 12 -3 -7 -18 -13 -35 -13 -16 0 -36 -7 -44 -15 -9 -8
-30 -15 -48 -15 -48 0 -66 -26 -69 -98 -2 -33 -9 -67 -16 -76 -18 -21 -5 -67
19 -73 15 -4 18 -11 14 -27 -4 -17 3 -29 29 -49 19 -14 37 -24 40 -21 3 3 15
0 27 -6 17 -9 24 -9 30 -1 12 20 57 -7 63 -38 3 -14 9 -38 13 -53 5 -21 3 -28
-8 -28 -9 0 -17 -19 -24 -56 -10 -52 -9 -54 6 -34 16 21 18 21 46 6 57 -31
114 -111 114 -162 0 -9 9 -27 20 -41 26 -34 37 -92 19 -105 -10 -6 -7 -8 11
-6 17 2 35 18 58 52 27 40 42 52 84 67 38 13 58 15 77 7 17 -6 27 -6 29 1 2 6
9 11 17 11 7 0 18 7 25 15 7 9 20 13 28 10 8 -3 25 6 39 19 l24 24 39 -26 c22
-14 40 -30 40 -35 0 -5 10 -7 22 -4 13 4 29 0 40 -10 20 -18 49 -15 135 17
l62 24 40 -42 c23 -23 41 -49 41 -56 0 -18 49 -76 50 -60 0 12 91 7 100 -6 3
-4 27 -14 54 -23 44 -15 51 -15 66 -2 9 8 31 15 48 15 29 0 32 3 32 31 0 31 0
31 25 15 28 -19 58 -20 86 -5 15 7 24 7 35 -1 7 -7 20 -10 28 -7 9 4 16 -3 20
-19 5 -19 13 -24 37 -24 27 0 31 3 26 21 -8 31 2 49 29 49 13 0 24 4 24 9 0 5
8 11 17 13 10 2 18 10 19 18 1 8 2 26 3 40 1 20 3 22 11 10 8 -12 10 -12 10
-1 0 8 9 2 21 -13 28 -36 53 -36 37 0 -11 23 -10 29 10 44 12 10 22 25 22 33
0 9 9 18 19 22 11 3 22 19 26 34 4 19 16 33 33 40 26 11 27 15 30 94 2 69 5
85 23 99 12 10 19 24 16 33 -4 8 0 21 8 29 8 8 15 23 15 33 0 10 4 24 9 32 7
10 2 24 -15 44 -34 40 -31 61 11 76 29 10 35 17 35 42 0 36 -3 45 -12 41 -5
-1 -8 5 -8 13 0 8 -4 15 -10 15 -5 0 -10 -9 -10 -20 0 -11 5 -20 10 -20 6 0
10 -5 10 -10 0 -7 -6 -7 -19 -1 -16 9 -27 3 -62 -29 -49 -44 -59 -47 -93 -24
-17 10 -26 12 -31 4 -4 -6 -20 -8 -41 -4 -39 7 -38 8 -23 -52 9 -35 9 -47 -2
-60 -12 -14 -14 -14 -19 2 -6 15 -16 18 -56 16 l-49 -3 34 29 c38 33 46 55 25
73 -11 9 -11 15 -3 25 6 7 8 18 4 24 -9 14 22 60 40 60 19 0 19 2 -6 60 -12
27 -29 52 -38 55 -22 7 -21 44 1 51 26 8 22 20 -11 33 -15 7 -34 24 -41 39 -7
15 -20 41 -28 59 -14 28 -14 33 1 57 10 15 27 26 40 26 17 0 19 2 8 9 -9 6
-11 15 -6 27 4 11 7 32 6 48 -2 23 0 28 13 23 27 -11 31 21 6 43 -29 25 -46
25 -60 0z m-370 -225 c0 -8 -4 -15 -10 -15 -5 0 -10 7 -10 15 0 8 5 15 10 15
6 0 10 -7 10 -15z m-1149 -756 c-34 -28 -47 -23 -14 5 15 13 30 22 33 19 3 -2
-6 -13 -19 -24z"/>
<path d="M8590 10903 c-23 -9 -29 -23 -23 -60 4 -21 2 -33 -6 -33 -19 0 -12
-25 12 -48 28 -27 37 -28 37 -4 0 10 6 24 12 30 10 10 10 17 0 32 -15 24 -16
43 -1 35 7 -5 9 3 7 21 -3 29 -13 36 -38 27z"/>
<path d="M7950 10860 c0 -5 5 -10 11 -10 5 0 7 5 4 10 -3 6 -8 10 -11 10 -2 0
-4 -4 -4 -10z"/>
<path d="M8749 10736 c17 -20 -15 -50 -43 -41 -12 4 -33 7 -48 7 -15 -1 -30 3
-33 8 -13 21 -27 9 -21 -17 4 -16 11 -59 16 -98 6 -38 13 -77 16 -87 4 -12 0
-18 -11 -18 -9 0 -22 -15 -31 -35 -8 -19 -23 -41 -34 -47 -11 -7 -20 -22 -20
-33 1 -19 2 -19 14 -3 12 17 14 17 30 -1 19 -20 52 -24 73 -8 7 5 17 6 23 2
17 -11 61 35 55 56 -5 13 1 18 22 21 24 3 28 7 25 32 -3 26 -1 28 22 24 18 -4
26 -1 26 9 0 7 7 16 16 20 9 3 14 15 12 28 -1 12 3 29 10 38 20 24 -5 68 -46
81 -18 7 -30 15 -26 19 4 4 -2 7 -14 7 -12 0 -22 5 -22 10 0 6 6 10 13 10 7 0
22 7 33 15 18 13 16 14 -25 15 -36 0 -41 -2 -32 -14z m-9 -66 c0 -5 -4 -10
-10 -10 -5 0 -10 5 -10 10 0 6 5 10 10 10 6 0 10 -4 10 -10z"/>
<path d="M8918 10633 c6 -2 18 -2 25 0 6 3 1 5 -13 5 -14 0 -19 -2 -12 -5z"/>
<path d="M8879 10587 c-10 -18 -8 -24 17 -44 16 -13 32 -23 36 -23 3 0 11 -15
18 -32 14 -42 52 -85 85 -98 27 -10 34 -29 10 -31 -29 -3 -33 -4 -42 -12 -4
-5 -8 -14 -8 -20 -1 -7 -6 -11 -13 -10 -6 2 -9 -4 -5 -13 3 -8 8 -12 11 -10
11 11 30 -15 25 -34 -3 -11 0 -20 6 -20 6 0 16 -11 21 -24 7 -19 15 -24 33
-20 14 2 30 -2 36 -10 10 -12 6 -13 -29 -9 -37 5 -40 4 -40 -18 0 -43 -12 -69
-30 -69 -11 0 -19 -10 -22 -25 -3 -14 -1 -25 5 -25 7 0 7 -4 0 -11 -9 -9 -3
-19 24 -40 20 -16 40 -29 45 -29 5 0 7 -4 4 -9 -8 -13 4 -42 15 -35 5 3 9 1 9
-5 0 -6 9 -15 19 -21 15 -7 23 -6 35 6 20 20 21 44 1 44 -8 0 -15 4 -15 8 0 5
-12 14 -26 21 -21 9 -24 14 -14 26 6 8 8 20 4 27 -8 13 -14 41 -15 70 0 17 7
29 44 69 9 10 17 24 17 29 0 14 27 12 33 -2 4 -10 6 -10 6 0 1 8 9 10 25 6 14
-3 27 -1 31 6 6 9 9 9 15 0 5 -8 13 -9 21 -4 8 5 21 7 30 6 12 -2 18 7 21 32
5 47 -8 62 -64 69 -27 4 -59 9 -72 13 -20 5 -24 1 -29 -25 l-6 -31 -35 17
c-22 10 -39 27 -45 46 -12 32 -6 51 12 41 7 -3 5 1 -5 8 -10 9 -14 23 -11 40
4 21 -1 29 -30 47 -19 11 -42 21 -51 21 -12 0 -16 5 -11 19 3 11 0 21 -8 24
-8 3 -17 18 -20 34 -4 17 -16 33 -32 40 -22 10 -27 9 -36 -10z m261 -357 c0
-5 -4 -10 -10 -10 -5 0 -10 5 -10 10 0 6 5 10 10 10 6 0 10 -4 10 -10z"/>
<path d="M9960 10579 c0 -5 5 -7 10 -4 6 3 10 8 10 11 0 2 -4 4 -10 4 -5 0
-10 -5 -10 -11z"/>
<path d="M9596 10481 c-4 -6 -16 -11 -27 -11 -10 0 -19 -6 -19 -14 0 -18 -71
-11 -114 11 -26 14 -30 13 -38 -1 -6 -11 -19 -14 -47 -11 -33 4 -40 1 -51 -20
-12 -22 -11 -30 8 -64 13 -23 20 -47 16 -57 -6 -17 -5 -17 9 1 9 11 17 16 17
11 0 -5 9 3 21 18 11 14 29 26 40 26 10 0 19 4 19 9 0 5 10 11 22 14 18 5 19
8 8 21 -11 14 -8 16 17 16 16 0 38 -6 49 -14 13 -10 23 -11 31 -4 9 7 14 2 19
-19 11 -47 41 -72 79 -66 19 3 35 1 39 -6 11 -17 -3 -51 -20 -51 -9 0 -14 -7
-12 -17 4 -24 28 -28 28 -5 0 20 25 36 41 26 22 -13 49 8 49 37 0 16 6 32 14
35 11 4 12 13 5 36 -5 20 -5 36 1 43 16 19 -19 42 -73 48 -26 2 -50 1 -53 -4
-6 -11 -56 0 -65 14 -4 5 -9 5 -13 -2z"/>
<path d="M9818 10463 c6 -2 12 -10 12 -18 0 -19 27 -39 32 -23 6 16 -23 48
-42 47 -10 0 -11 -2 -2 -6z"/>
<path d="M9160 10380 c0 -5 5 -10 10 -10 6 0 10 5 10 10 0 6 -4 10 -10 10 -5
0 -10 -4 -10 -10z"/>
<path d="M9090 10095 c0 -9 6 -12 15 -9 8 4 15 10 15 15 0 5 -7 9 -15 9 -8 0
-15 -7 -15 -15z"/>
<path d="M12160 10025 c0 -26 -23 -65 -39 -65 -14 0 -14 -2 -1 -9 8 -6 17 -8
21 -5 4 2 9 -3 13 -11 4 -11 -2 -15 -19 -15 -14 0 -25 3 -25 8 0 12 -43 27
-68 24 -20 -3 -23 -8 -17 -29 3 -13 2 -22 -2 -20 -4 3 -9 -15 -10 -40 -1 -24
-7 -51 -14 -59 -17 -20 -74 -61 -65 -46 6 9 2 10 -18 0 -21 -9 -26 -18 -26
-50 0 -26 -4 -38 -14 -38 -7 0 -19 -13 -26 -30 -7 -18 -20 -30 -31 -30 -12 0
-16 -5 -13 -15 4 -8 2 -21 -3 -28 -5 -6 -15 -31 -22 -54 -11 -41 -13 -43 -52
-43 -38 0 -42 -2 -57 -41 -15 -39 -16 -40 -56 -36 -23 3 -45 6 -51 7 -23 5
-34 -1 -29 -15 4 -10 0 -15 -10 -15 -28 0 -86 -53 -86 -77 0 -13 -4 -23 -9
-23 -5 0 -16 -18 -25 -40 -9 -23 -24 -43 -34 -46 -9 -3 -30 -12 -47 -21 -16
-9 -52 -19 -80 -22 -44 -6 -48 -8 -30 -18 12 -6 43 -14 70 -17 26 -3 50 -8 53
-11 3 -2 6 -22 7 -42 1 -21 7 -49 14 -62 l13 -24 -35 22 -36 22 -3 -23 c-2
-15 -9 -22 -20 -20 -21 3 -64 -54 -46 -61 7 -2 10 -8 6 -12 -5 -5 -19 -3 -33
3 -20 9 -25 9 -25 -2 0 -7 7 -19 16 -27 10 -8 13 -20 9 -33 -3 -12 -9 -43 -11
-71 -3 -27 -9 -66 -13 -85 -7 -33 -9 -35 -45 -32 -30 2 -39 -1 -43 -16 -4 -17
-10 -18 -55 -11 -28 5 -54 7 -58 6 -4 -1 -17 9 -29 23 -13 14 -20 20 -17 13 5
-8 -5 -11 -34 -8 -22 2 -40 0 -40 -5 0 -10 -49 -20 -66 -13 -7 3 -17 15 -21
26 -6 19 -8 18 -13 -12 -4 -27 -11 -36 -32 -42 -22 -6 -30 -2 -43 17 -17 26
-60 33 -67 12 -6 -18 61 -77 95 -85 17 -3 26 -11 23 -19 -3 -7 2 -18 10 -24 8
-7 14 -18 14 -25 0 -7 9 -19 19 -26 25 -18 35 -95 14 -103 -12 -5 -10 -10 8
-26 l24 -20 -27 -20 c-16 -13 -25 -27 -21 -36 3 -8 0 -21 -7 -29 -10 -12 -7
-21 19 -50 17 -20 31 -39 31 -42 0 -4 -10 -17 -22 -30 -21 -23 -21 -23 -2 -38
10 -8 15 -15 10 -15 -19 0 28 -40 48 -40 15 0 17 -3 8 -9 -10 -6 -10 -10 3
-21 8 -7 15 -22 15 -34 0 -12 3 -16 8 -10 4 6 13 13 21 16 12 3 10 9 -7 26
-12 12 -22 24 -22 26 0 3 16 10 35 16 42 14 49 24 35 50 -15 28 2 25 38 -5 24
-20 31 -22 36 -10 3 8 3 22 0 30 -8 19 6 19 33 0 14 -10 24 -12 28 -5 4 6 11
8 16 4 6 -3 13 3 16 15 3 12 9 21 14 21 5 0 9 7 9 15 0 9 10 20 23 25 l22 9
-22 0 c-29 1 -30 26 -3 43 21 13 26 37 11 54 -5 5 -12 26 -15 47 -6 32 -4 37
12 37 11 0 22 7 26 15 3 8 12 15 21 15 9 0 15 9 15 25 0 18 5 25 20 25 11 0
20 7 20 15 0 29 41 14 53 -19 4 -11 13 -16 22 -12 8 3 18 -2 23 -10 7 -12 15
-11 56 11 26 14 61 25 78 25 20 0 39 9 58 30 15 17 37 30 49 30 18 0 20 4 14
52 l-6 52 32 -37 c18 -20 38 -34 44 -30 6 4 8 -2 4 -18 -4 -16 0 -30 14 -45
19 -21 19 -21 -1 -39 -27 -24 -25 -34 11 -78 28 -34 30 -41 20 -63 -10 -22 -9
-25 5 -22 10 2 18 12 20 23 3 21 30 45 51 45 7 0 13 11 13 25 0 18 5 25 19 25
14 0 17 6 14 24 -3 13 0 27 6 30 6 4 11 24 11 45 0 33 5 42 38 65 21 14 43 26
50 26 7 0 12 7 12 15 0 8 6 15 13 15 8 0 23 8 34 18 15 13 18 21 10 33 -6 9
-7 24 -4 33 6 14 10 15 28 5 19 -10 21 -9 15 6 -3 10 -2 23 4 30 8 9 8 15 0
20 -16 10 -12 23 9 30 15 4 19 15 19 55 0 28 6 60 14 72 11 17 12 29 5 46 -8
18 -7 25 8 36 12 9 16 20 12 35 -4 17 0 25 19 33 24 11 28 19 25 49 -1 8 7 24
19 34 14 13 17 21 9 31 -7 8 -7 14 1 19 7 4 7 12 -1 27 -8 14 -8 23 0 31 17
17 13 26 -11 22 -17 -3 -26 3 -36 23 -24 49 -25 52 -7 52 13 0 15 3 6 13 -8
10 -4 19 19 35 29 22 29 23 24 101 -5 78 11 151 34 151 5 0 12 14 16 31 5 26
10 30 27 26 17 -5 20 -2 16 14 -4 16 -2 17 15 8 18 -10 19 -8 13 23 -5 25 -1
44 15 70 22 39 20 82 -6 92 -8 3 -14 14 -14 25 0 13 -5 18 -14 15 -8 -3 -29 8
-47 23 -69 58 -109 76 -109 48z m-185 -1344 c3 -5 1 -12 -4 -15 -5 -3 -11 1
-15 9 -6 16 9 21 19 6z"/>
<path d="M12076 10023 c-12 -12 -5 -23 14 -23 11 0 20 -5 20 -12 0 -6 2 -9 5
-6 8 8 -5 36 -20 42 -7 2 -16 2 -19 -1z"/>
<path d="M10040 9959 c0 -5 5 -7 10 -4 6 3 10 8 10 11 0 2 -4 4 -10 4 -5 0
-10 -5 -10 -11z"/>
<path d="M12382 9888 c7 -19 38 -22 38 -4 0 10 -9 16 -21 16 -12 0 -19 -5 -17
-12z"/>
<path d="M11805 9770 c-3 -5 -1 -10 4 -10 6 0 11 5 11 10 0 6 -2 10 -4 10 -3
0 -8 -4 -11 -10z"/>
<path d="M9725 9575 c10 -22 23 -58 30 -79 7 -25 24 -48 42 -60 36 -24 93 -89
93 -104 0 -6 -8 -16 -19 -21 -31 -17 -35 -69 -8 -105 l24 -30 -29 -28 c-16
-15 -35 -28 -43 -28 -8 0 -15 -6 -15 -14 0 -8 -10 -22 -22 -30 -21 -15 -68
-99 -68 -123 0 -8 -13 -13 -29 -13 -20 0 -32 -6 -36 -19 -3 -10 -15 -21 -25
-24 -17 -4 -20 -14 -20 -62 0 -58 -5 -66 -73 -119 -22 -17 -23 -23 -14 -52 8
-28 7 -37 -6 -52 -10 -10 -17 -26 -17 -35 0 -9 -6 -17 -14 -17 -11 0 -12 -8
-3 -42 8 -32 7 -43 -2 -46 -9 -3 -9 -7 0 -18 8 -10 8 -14 0 -14 -6 0 -11 -9
-11 -19 0 -11 -5 -21 -12 -23 -8 -3 -6 -11 5 -29 9 -13 17 -43 18 -67 2 -24 9
-48 16 -53 21 -18 -7 -37 -47 -32 l-35 4 28 -16 c27 -15 30 -15 47 0 15 13 25
15 54 7 29 -9 36 -8 36 4 0 11 4 12 19 4 11 -5 40 -10 64 -10 42 0 45 2 60 41
14 36 19 40 32 29 12 -10 16 -9 21 4 3 9 13 16 20 16 8 0 17 7 21 16 3 9 13
14 24 11 19 -5 89 50 89 70 0 6 -12 18 -26 28 -20 13 -23 19 -14 25 8 5 11 19
7 39 -4 16 -2 33 3 36 16 10 1 115 -21 147 -17 23 -19 32 -9 38 9 6 8 11 -7
19 -30 15 -19 61 13 61 15 0 24 6 24 16 0 8 4 13 9 10 5 -4 7 3 4 14 -4 16 0
20 20 20 13 0 30 -7 37 -15 7 -8 16 -12 21 -9 5 3 9 -2 9 -11 0 -9 4 -14 9
-11 16 10 42 -6 37 -23 -3 -9 -2 -20 2 -26 10 -14 49 -35 65 -35 18 0 77 -50
77 -65 0 -20 96 -52 171 -58 26 -2 60 -13 75 -24 16 -11 45 -23 65 -27 30 -5
37 -3 41 12 3 11 22 23 48 31 43 13 44 13 23 29 -11 10 -24 27 -27 38 -4 14
-13 21 -24 18 -24 -5 -109 100 -123 151 -27 105 -34 120 -54 117 -10 -2 -24 4
-31 13 -7 9 -34 25 -62 35 -41 16 -52 17 -67 6 -16 -11 -24 -10 -54 11 -20 13
-46 36 -58 51 -17 21 -22 23 -23 10 0 -22 -19 -33 -32 -20 -7 7 -17 8 -28 2
-13 -7 -22 -4 -34 9 -15 16 -15 19 4 36 17 16 20 26 14 60 -3 22 -11 46 -16
52 -7 9 -6 20 4 35 13 20 13 35 -1 126 -12 76 -21 106 -34 113 -10 6 -17 6
-17 1 0 -5 -10 -12 -22 -16 -30 -7 -127 41 -138 69 -4 11 -22 34 -40 50 l-32
30 17 -40z m-65 -1295 c8 -5 18 -8 23 -9 14 -2 6 -16 -9 -15 -8 1 -14 -5 -14
-12 0 -12 -5 -11 -25 2 -14 9 -23 19 -20 22 2 3 -3 11 -13 19 -15 12 -14 13
13 7 17 -4 37 -10 45 -14z"/>
<path d="M12251 8768 c14 -23 32 -43 41 -43 9 0 20 -4 24 -8 4 -4 0 -7 -10 -7
-13 0 -16 -5 -11 -19 4 -13 -3 -29 -20 -47 -27 -29 -32 -53 -13 -72 8 -8 8
-15 -2 -26 -11 -15 -10 -39 6 -80 4 -11 1 -16 -10 -16 -13 0 -13 -3 4 -20 11
-11 20 -25 20 -30 0 -6 13 -9 30 -8 16 1 29 7 29 13 -3 29 17 45 58 45 15 1
10 -30 -5 -31 -11 0 -12 -2 -4 -6 18 -7 15 -23 -6 -23 -10 0 -26 -6 -36 -13
-18 -14 -89 -11 -81 3 3 5 -6 20 -19 35 -13 14 -27 22 -30 17 -8 -13 19 -86
44 -122 11 -15 20 -34 20 -42 0 -7 14 -28 31 -47 22 -24 33 -30 39 -21 5 8 10
8 14 2 7 -12 -16 -22 -54 -22 -15 0 -33 -7 -40 -15 -7 -8 -19 -15 -26 -15 -7
0 -21 -11 -30 -25 -9 -14 -25 -25 -36 -25 -11 0 -27 -4 -37 -10 -14 -7 -23 -4
-37 11 -20 22 -66 49 -84 49 -5 0 -10 -7 -10 -15 0 -8 -7 -15 -15 -15 -8 0
-15 -8 -15 -17 0 -26 -46 -45 -61 -27 -24 29 -35 15 -37 -45 -1 -39 -9 -72
-22 -96 -22 -39 -26 -75 -10 -91 15 -15 23 -64 10 -64 -5 0 -10 5 -10 12 0 6
-11 1 -25 -12 -17 -16 -36 -23 -54 -22 -23 2 -30 -3 -35 -23 -4 -14 -16 -35
-27 -46 l-20 -20 41 -36 c22 -20 40 -44 39 -52 -3 -32 1 -39 21 -34 11 3 20 9
20 14 0 5 13 3 29 -6 19 -9 32 -11 36 -5 11 18 25 0 25 -34 0 -17 -5 -37 -12
-44 -15 -15 6 -42 33 -42 16 0 17 4 9 25 -8 21 -7 25 9 25 10 0 24 7 31 15 11
13 8 20 -16 41 -26 25 -27 27 -10 39 14 11 16 22 11 62 l-7 48 21 -22 c25 -26
37 -29 44 -10 3 9 11 9 34 1 27 -10 30 -9 26 6 -3 11 6 22 29 33 28 14 35 14
49 1 22 -20 105 -19 117 2 10 17 72 28 72 13 0 -5 7 -9 15 -9 9 0 15 9 15 21
l0 20 26 -20 c15 -12 33 -21 40 -21 23 0 34 -32 17 -49 -14 -13 -13 -16 3 -28
16 -12 19 -11 27 8 6 17 10 20 19 11 19 -19 26 -14 20 14 -4 21 -2 25 9 19 33
-19 49 -40 49 -65 0 -15 5 -42 11 -59 19 -54 -3 -59 -45 -10 -20 23 -36 47
-36 51 0 5 -5 6 -12 2 -20 -13 -88 -22 -94 -13 -3 5 -10 7 -15 4 -5 -4 -9 -1
-9 5 0 7 -5 6 -14 -2 -8 -7 -12 -16 -9 -20 2 -5 0 -8 -5 -8 -5 0 -7 -11 -4
-25 3 -18 0 -25 -12 -25 -9 0 -21 -12 -26 -26 -6 -14 -14 -23 -19 -19 -14 8
-26 -16 -22 -43 2 -22 0 -23 -46 -20 -26 2 -50 -1 -52 -7 -2 -5 -11 -15 -19
-21 -18 -13 -10 -44 24 -84 17 -19 23 -36 19 -49 -7 -24 29 -35 49 -15 12 11
15 6 18 -34 5 -54 4 -57 -14 -46 -20 13 -42 11 -54 -5 -10 -12 -13 -11 -18 7
-9 26 -26 20 -26 -9 0 -24 48 -99 64 -99 6 0 19 -9 29 -20 15 -18 36 -25 61
-21 5 1 23 -5 40 -13 17 -8 45 -18 61 -22 17 -4 35 -11 41 -16 6 -4 19 -6 28
-2 20 8 66 -21 66 -42 0 -12 -6 -15 -25 -10 -19 5 -23 3 -19 -8 4 -10 17 -13
47 -9 49 5 60 11 54 27 -3 7 3 18 13 24 11 6 28 32 39 57 17 38 24 45 49 45
32 0 52 30 52 79 0 17 7 31 16 35 10 4 14 14 11 26 -4 16 0 20 18 20 33 0 55
50 52 113 -2 31 1 47 8 47 7 0 27 7 45 16 32 16 33 16 56 -12 13 -16 23 -23
24 -15 0 9 9 12 30 9 16 -2 32 0 34 6 3 8 5 8 5 0 1 -6 14 -9 30 -6 16 2 38
-1 50 -7 29 -16 44 -5 31 20 -15 27 -3 44 18 26 10 -8 25 -17 34 -20 15 -5 17
-1 13 28 -2 19 0 37 6 40 5 4 7 11 4 16 -4 5 0 9 7 9 10 0 10 2 -1 9 -8 5 -20
7 -28 4 -12 -5 -18 8 -14 31 1 5 -4 16 -11 25 -27 33 -48 80 -43 93 4 9 -4 19
-20 26 -33 15 -35 15 -35 -3 0 -12 -4 -13 -19 -5 -23 12 -34 13 -27 2 2 -4
-10 -8 -28 -8 -30 0 -76 -31 -76 -52 0 -16 -143 -3 -181 17 -31 17 -37 17 -32
5 3 -9 0 -20 -8 -25 -20 -13 -29 -11 -29 6 0 8 -6 15 -14 15 -22 0 -28 21 -40
134 -2 24 2 37 11 40 8 3 12 9 9 14 -12 19 11 33 38 22 42 -15 48 -12 30 15
l-16 25 41 0 c39 0 41 2 41 29 0 16 7 34 15 41 8 7 15 24 15 37 0 14 9 37 21
51 l21 27 -23 5 c-16 4 -27 19 -39 58 -10 31 -14 55 -8 58 5 4 7 16 4 29 -4
15 -1 25 9 29 11 4 13 11 6 28 -4 13 -6 29 -4 36 3 7 -2 21 -10 30 -8 9 -22
34 -30 54 -8 20 -26 42 -39 49 -12 6 -40 25 -60 41 -21 16 -38 26 -38 21 0 -4
-12 9 -27 30 -15 21 -38 40 -52 44 -14 3 -28 9 -31 13 -3 3 -26 16 -52 29 -50
24 -58 35 -58 84 0 24 -10 40 -41 69 -23 21 -50 38 -61 38 -10 0 -33 7 -50 16
l-30 16 23 -44z m229 -403 c0 -8 -4 -15 -10 -15 -5 0 -10 7 -10 15 0 8 5 15
10 15 6 0 10 -7 10 -15z m0 -311 c0 -13 -5 -26 -10 -29 -6 -4 -8 -10 -5 -15 3
-5 -5 -12 -18 -15 -20 -5 -23 -12 -22 -51 2 -46 -4 -54 -25 -29 -7 8 -19 15
-26 15 -8 0 -14 10 -14 24 0 14 -4 28 -10 31 -5 3 -10 12 -10 20 0 10 9 12 35
8 28 -4 39 -2 50 13 9 14 10 23 3 32 -8 9 -6 18 8 33 17 19 19 19 31 3 7 -10
13 -28 13 -40z m130 -306 c0 -22 -17 -41 -30 -33 -8 5 -6 12 7 25 22 23 23 23
23 8z"/>
<path d="M11263 8066 c4 -9 2 -16 -3 -16 -5 0 -7 -7 -4 -15 4 -8 10 -12 15 -9
13 8 -2 -29 -19 -45 -12 -13 -12 -16 5 -22 25 -9 38 -39 18 -39 -8 0 -15 -7
-15 -16 0 -9 -9 -27 -19 -41 -11 -13 -17 -32 -15 -41 4 -12 1 -11 -13 5 -21
25 -113 38 -113 16 0 -16 4 -16 -45 2 -22 8 -50 14 -63 15 -18 0 -20 -3 -13
-17 24 -49 40 -93 32 -93 -10 0 -30 -130 -20 -136 4 -2 10 2 12 8 4 10 8 9 16
-2 7 -11 7 -16 -2 -19 -21 -7 -57 -38 -50 -44 11 -11 -20 -38 -36 -32 -9 3 -5
-4 8 -15 13 -11 32 -20 42 -20 13 0 22 -12 30 -42 16 -56 23 -64 59 -72 21 -4
28 -10 24 -21 -7 -17 4 -19 26 -5 10 6 11 10 3 10 -7 0 -13 10 -13 23 l1 22
19 -23 c25 -30 40 -21 34 21 -4 27 2 39 36 74 51 53 92 63 166 37 l53 -18 20
23 c19 21 22 22 42 7 16 -10 27 -12 40 -6 19 11 49 4 49 -11 0 -5 7 -9 15 -9
8 0 15 8 15 18 0 11 9 27 21 38 14 12 19 27 16 43 -3 15 3 35 15 52 25 33 17
49 -25 50 -26 0 -29 2 -16 11 14 9 14 16 3 47 -7 20 -18 35 -23 33 -6 -1 -10
3 -8 9 1 6 -6 13 -16 14 -22 4 -47 24 -47 37 0 5 -9 21 -20 35 -11 14 -20 35
-20 47 0 34 -13 45 -70 59 -37 10 -62 23 -79 44 -30 35 -78 56 -68 29z m-228
-417 c11 -17 -1 -21 -15 -4 -8 9 -8 15 -2 15 6 0 14 -5 17 -11z"/>
<path d="M11217 8019 c7 -7 15 -10 18 -7 3 3 -2 9 -12 12 -14 6 -15 5 -6 -5z"/>
<path d="M11195 7990 c3 -5 10 -10 16 -10 5 0 9 5 9 10 0 6 -7 10 -16 10 -8 0
-12 -4 -9 -10z"/>
<path d="M10925 7860 c3 -5 11 -10 16 -10 6 0 7 5 4 10 -3 6 -11 10 -16 10 -6
0 -7 -4 -4 -10z"/>
<path d="M10778 7628 c-25 -38 -26 -69 -3 -82 11 -6 22 -14 25 -18 8 -10 41
-3 49 11 5 7 11 12 15 12 19 -3 17 2 -15 32 -18 18 -39 41 -44 51 -10 18 -12
18 -27 -6z"/>
<path d="M10951 7587 c-13 -21 -12 -21 5 -5 10 10 16 20 13 22 -3 3 -11 -5
-18 -17z"/>
<path d="M10790 7435 c0 -9 6 -12 15 -9 8 4 15 7 15 9 0 2 -7 5 -15 9 -9 3
-15 0 -15 -9z"/>
<path d="M11896 7411 c-4 -6 -3 -19 3 -28 9 -17 10 -17 17 0 8 21 -10 45 -20
28z"/>
<path d="M11903 7315 c-3 -9 -3 -18 -1 -21 3 -3 8 4 11 16 6 23 -1 27 -10 5z"/>
<path d="M11850 7269 c0 -11 -58 -31 -69 -24 -15 9 -14 -18 1 -33 7 -7 20 -12
30 -12 9 0 31 -20 48 -45 17 -25 35 -45 39 -45 5 0 16 -16 25 -35 19 -38 56
-66 56 -41 0 11 15 14 69 14 78 -1 91 4 84 32 -5 17 -27 26 -56 21 -4 -1 -23
10 -41 24 -18 14 -40 25 -48 25 -21 0 -33 16 -56 75 -18 45 -23 50 -51 50 -17
0 -31 -3 -31 -6z"/>
<path d="M12127 7043 c-15 -4 -17 -10 -12 -31 9 -34 9 -90 0 -122 -5 -19 -1
-33 13 -50 l20 -25 29 26 c25 24 63 35 63 19 0 -4 14 -5 30 -2 18 2 30 10 30
19 0 8 -13 20 -30 26 -16 6 -30 15 -30 18 0 4 -7 15 -16 23 -8 9 -11 16 -5 16
6 0 11 4 11 9 0 13 -65 81 -76 80 -5 -1 -17 -3 -27 -6z"/>
<path d="M12515 6840 c-3 -5 6 -12 20 -16 14 -3 25 -10 25 -14 0 -14 49 -60
64 -60 8 0 27 11 42 24 27 23 28 24 11 50 -14 20 -25 26 -50 24 -18 -1 -35 -6
-38 -11 -4 -5 -15 -4 -27 2 -25 14 -39 14 -47 1z"/>
</g>
</svg>
