<?xml version="1.0" standalone="no"?>
<!DOCTYPE svg PUBLIC "-//W3C//DTD SVG 20010904//EN"
 "http://www.w3.org/TR/2001/REC-SVG-20010904/DTD/svg10.dtd">
<svg version="1.0" xmlns="http://www.w3.org/2000/svg"
 width="1014.172401pt" height="517.484218pt" viewBox="0 0 1014.172401 517.484218"
 preserveAspectRatio="xMidYMid meet">
<metadata>
Created by potrace 1.15, written by Peter Selinger 2001-2017
</metadata>
<g transform="translate(-471.428951,1249.404195) scale(0.100000,-0.100000)"
fill="#222222" stroke="none">
<path d="M11880 12479 c0 -11 -4 -19 -10 -19 -5 0 -10 5 -10 10 0 16 -40 12
-46 -5 -4 -10 -11 -12 -22 -6 -26 13 -42 2 -42 -29 0 -15 -6 -33 -14 -39 -10
-8 -12 -21 -6 -46 8 -37 8 -38 -28 -35 -20 1 -23 -2 -17 -19 7 -22 0 -25 -40
-21 -18 2 -17 0 5 -17 34 -26 140 -21 140 6 0 18 39 42 73 46 21 2 21 -2 2
-21 -8 -9 -15 -27 -15 -42 0 -20 -3 -23 -12 -14 -13 13 -28 16 -28 5 0 -11 80
-59 110 -66 72 -17 191 -147 170 -187 -10 -20 -2 -40 16 -40 22 0 64 -30 64
-47 0 -8 -4 -12 -10 -8 -5 3 -19 0 -32 -7 -13 -7 -24 -13 -26 -14 -1 -1 0 -8
3 -16 7 -17 94 -23 130 -8 11 4 33 13 48 19 17 7 32 23 39 42 8 23 14 28 27
23 9 -4 37 -9 63 -10 39 -3 48 0 53 15 8 28 33 34 47 12 10 -17 14 -18 34 -4
12 8 39 15 58 16 28 2 38 7 45 27 5 16 24 33 50 44 22 11 41 23 41 28 0 5 5 6
10 3 18 -11 10 10 -11 28 -17 15 -18 21 -8 33 9 11 9 21 1 38 -9 19 -8 25 4
30 8 3 14 12 14 20 0 8 6 17 13 19 9 4 9 8 0 14 -6 4 -14 25 -18 46 -4 21 -13
37 -21 37 -8 0 -14 -3 -14 -7 0 -5 -16 -8 -36 -9 -22 0 -42 -7 -49 -17 -7 -9
-22 -17 -34 -17 -11 0 -21 -4 -21 -10 0 -22 -54 -8 -95 25 -42 35 -68 38 -79
9 -3 -8 -19 -14 -35 -14 -21 0 -32 -6 -36 -20 -9 -27 -51 -36 -84 -18 -14 9
-42 19 -61 23 -19 4 -46 15 -60 25 -14 10 -36 20 -50 21 -19 3 -26 11 -28 32
-2 16 -19 43 -40 63 -24 23 -33 37 -24 41 6 2 12 8 12 11 0 9 -47 29 -82 35
-22 3 -28 0 -28 -14z"/>
<path d="M13437 12349 c5 -20 5 -20 -30 -3 -35 17 -38 17 -57 -1 -11 -10 -17
-22 -13 -28 3 -5 0 -7 -8 -5 -27 10 -69 -21 -70 -50 -1 -56 -145 -128 -207
-103 -15 6 -41 11 -58 9 -16 -1 -35 1 -42 6 -7 4 -28 -6 -52 -25 -40 -33 -41
-33 -70 -15 -17 9 -30 16 -30 14 0 -2 4 -18 9 -36 9 -29 7 -34 -13 -42 -30
-11 -39 -35 -21 -54 8 -8 15 -21 15 -28 0 -15 -65 -45 -86 -40 -10 2 -10 -3
-1 -23 7 -14 15 -25 20 -25 4 0 23 -10 42 -22 38 -25 41 -45 6 -40 -21 3 -22
1 -16 -27 7 -33 2 -36 -57 -32 -14 1 -29 -3 -33 -9 -8 -12 22 -97 43 -122 16
-19 7 -42 -14 -34 -24 9 -16 -8 19 -42 18 -18 36 -29 40 -26 3 4 20 -8 37 -26
31 -33 38 -46 20 -35 -15 9 -40 -14 -40 -37 0 -10 -7 -21 -15 -24 -12 -5 -13
-9 -4 -21 7 -8 8 -13 3 -12 -19 3 -35 -1 -30 -9 3 -5 -9 -17 -26 -27 l-32 -18
61 -28 c65 -30 81 -45 65 -61 -6 -6 -2 -18 14 -35 27 -29 30 -43 10 -43 -10 0
-12 -7 -8 -22 3 -14 1 -19 -6 -14 -6 3 -16 -3 -22 -14 -14 -27 -24 -25 -76 12
-24 17 -46 29 -49 26 -3 -2 11 -22 30 -44 19 -21 33 -45 30 -51 -6 -16 0 -16
55 3 25 8 50 22 57 31 9 12 16 13 26 5 16 -14 15 -16 18 79 1 59 -2 69 -25 92
-14 14 -26 30 -26 34 0 5 -10 13 -22 18 -26 11 -33 59 -11 77 7 6 10 20 7 33
-4 15 0 24 10 28 9 4 16 2 16 -3 0 -6 -4 -10 -10 -10 -6 0 -5 -10 2 -25 10
-21 8 -28 -8 -41 -10 -8 -13 -13 -6 -9 6 3 12 0 12 -7 0 -25 61 -98 81 -98 16
0 18 -3 9 -19 -5 -11 -6 -22 -1 -25 8 -5 22 -51 35 -118 5 -20 13 -27 34 -30
29 -3 32 -11 35 -98 1 -25 6 -51 11 -58 10 -17 -23 -43 -46 -36 -12 3 -17 -2
-20 -18 -3 -20 -8 -23 -53 -23 -42 0 -54 -5 -77 -29 -16 -16 -28 -33 -28 -37
0 -5 -6 -9 -14 -9 -9 0 -12 -7 -9 -20 4 -16 0 -20 -18 -20 -29 0 -55 -46 -38
-66 13 -16 4 -34 -17 -34 -8 0 -14 -9 -14 -20 0 -15 -7 -20 -25 -20 -15 0 -25
-6 -25 -14 0 -8 -6 -17 -12 -19 -7 -3 -1 -6 14 -6 42 -1 60 -54 26 -79 -23
-17 -23 -37 2 -60 14 -13 21 -35 24 -75 2 -31 0 -57 -5 -59 -5 -2 -5 -9 0 -16
6 -10 18 -8 54 8 51 23 58 36 26 48 -20 8 -19 8 5 22 14 7 26 19 26 26 0 6 9
14 20 17 12 3 20 14 20 26 0 12 6 21 15 21 21 0 19 27 -5 57 -21 27 -27 48
-11 39 5 -4 4 7 -2 24 -6 16 -8 32 -4 36 3 4 45 7 92 7 67 0 83 2 75 12 -6 7
-8 20 -4 29 4 11 -2 19 -20 26 -14 5 -26 13 -26 18 0 15 40 41 55 36 10 -4 15
0 15 10 0 21 12 20 56 -6 36 -21 37 -21 50 -3 8 10 14 28 14 39 0 28 27 116
41 132 6 8 22 11 38 8 23 -5 29 -2 34 15 3 12 16 22 33 26 16 3 37 10 46 16
10 5 29 9 43 9 21 0 25 5 25 30 0 18 6 33 15 36 8 4 15 17 15 29 0 17 7 25 22
27 13 2 28 15 35 29 9 19 28 30 73 44 39 12 62 24 65 37 5 15 10 16 27 7 24
-13 41 5 32 34 -8 24 18 22 34 -3 11 -18 10 -25 -8 -49 -14 -21 -18 -37 -14
-61 6 -26 3 -32 -15 -37 -21 -5 -28 -18 -13 -26 16 -10 104 21 118 42 12 16
19 19 29 11 9 -8 14 -5 18 10 3 12 13 20 27 20 17 0 21 4 17 20 -4 15 0 20 14
20 10 0 19 6 19 14 0 8 5 16 12 18 8 3 7 13 -4 36 -11 21 -12 32 -5 35 7 2 5
11 -5 26 -15 22 -15 25 9 52 20 22 29 26 40 18 15 -13 18 -33 3 -24 -5 3 -10
2 -10 -4 0 -5 10 -11 23 -13 12 -2 21 -9 20 -16 -2 -6 6 -12 16 -12 15 0 18
-5 14 -22 l-5 -23 17 23 c13 18 23 22 42 17 24 -6 25 -5 18 37 -7 39 -6 41 9
29 9 -8 16 -9 16 -3 0 6 -4 14 -10 17 -20 13 -9 21 21 17 24 -3 30 -1 27 9 -3
8 -22 15 -44 17 -39 3 -74 22 -42 22 12 0 19 13 24 45 7 52 0 79 -20 72 -24
-10 -38 117 -13 126 9 4 9 8 0 14 -6 4 -16 34 -22 65 -7 38 -21 71 -45 103
-34 44 -35 47 -20 70 9 13 24 27 35 30 13 4 19 16 19 36 0 29 13 39 25 19 5
-8 11 -7 21 1 8 6 28 9 44 7 24 -4 35 1 50 19 10 12 25 23 34 23 9 0 16 5 16
10 0 13 33 13 46 0 16 -16 44 -1 44 24 0 38 -20 48 -42 20 -18 -22 -56 -35
-43 -14 7 12 -13 52 -24 46 -4 -3 -14 17 -21 45 -16 59 -34 59 -38 0 -2 -25
-8 -41 -15 -40 -7 1 -25 -3 -40 -9 -23 -10 -32 -9 -53 5 -19 12 -30 13 -47 5
-32 -16 -77 -21 -83 -10 -4 6 -10 5 -16 -3 -7 -11 -11 -11 -15 -1 -6 14 -26
15 -67 2 -17 -5 -44 -12 -59 -15 -15 -3 -25 -10 -22 -15 8 -13 -41 -13 -65 0
-15 8 -21 6 -30 -10 -6 -12 -21 -20 -35 -20 -19 0 -25 -5 -26 -22 0 -22 -1
-22 -8 -3 -5 12 -4 23 2 27 16 10 -21 48 -39 41 -17 -6 -94 25 -94 39 0 4 5 8
11 8 5 0 9 8 7 18 -1 9 1 23 6 30 4 7 8 29 8 48 0 19 4 37 9 40 15 9 10 23
-10 33 -16 9 -18 8 -14 -10z m293 -649 c8 -5 12 -12 9 -15 -8 -8 -39 5 -39 16
0 11 11 11 30 -1z m100 -16 c0 -2 -7 -4 -15 -4 -8 0 -15 4 -15 10 0 5 7 7 15
4 8 -4 15 -8 15 -10z m-294 -281 c-8 -8 -36 5 -36 17 0 7 6 7 21 0 11 -7 18
-14 15 -17z m-576 -659 c0 -8 -6 -14 -14 -14 -9 0 -12 7 -9 20 6 22 23 18 23
-6z"/>
<path d="M14339 12075 c-3 -2 -23 -6 -45 -7 -44 -4 -49 -20 -7 -29 57 -12 95
-43 129 -107 35 -64 43 -109 23 -129 -8 -8 -6 -15 10 -25 25 -15 29 -58 5 -58
-9 0 -28 -9 -42 -21 -24 -19 -27 -19 -38 -4 -7 9 -10 23 -8 30 3 7 -2 15 -10
18 -9 4 -16 1 -16 -6 0 -20 -36 -47 -48 -35 -8 8 -37 -3 -72 -30 -5 -3 21 -22
32 -22 4 0 14 7 23 16 9 9 18 15 20 12 8 -8 -7 -48 -16 -42 -5 3 -9 -4 -9 -15
0 -12 6 -21 14 -21 7 0 16 -11 18 -24 4 -18 0 -26 -14 -29 -11 -3 -22 -15 -25
-26 -3 -12 -12 -21 -19 -21 -21 0 -17 -27 8 -50 12 -11 16 -20 10 -20 -7 0
-12 -7 -12 -16 0 -12 7 -15 26 -11 22 4 28 -1 42 -34 18 -42 52 -54 52 -19 0
18 11 24 46 23 18 -1 9 30 -12 41 -25 15 -44 40 -35 46 5 3 3 31 -3 62 -8 44
-15 58 -31 62 -16 5 -17 8 -6 15 8 5 12 18 8 30 -6 24 -6 24 45 12 34 -8 37
-7 40 16 l3 24 35 -30 c23 -20 46 -30 68 -31 18 0 42 -5 54 -11 30 -16 71 -3
65 22 -4 16 -2 19 15 13 14 -4 18 -2 14 5 -5 7 2 11 18 11 16 0 27 7 31 20 3
11 10 20 15 20 5 0 13 15 18 33 5 17 14 31 21 30 22 -5 11 18 -14 29 -14 6
-24 16 -22 22 3 6 1 18 -3 26 -10 19 9 46 35 51 16 4 19 11 17 37 -3 29 0 33
27 38 30 6 36 18 31 54 -3 21 -3 21 -50 23 -36 2 -44 -1 -53 -20 -6 -13 -18
-23 -28 -23 -17 0 -46 -36 -41 -52 1 -3 -21 -4 -49 -2 -31 3 -56 0 -65 -7 -8
-6 -14 -7 -14 -2 0 12 -43 12 -51 0 -4 -5 -15 -1 -26 10 -11 11 -27 22 -35 26
-16 6 -48 61 -48 82 0 17 -39 32 -51 20z"/>
<path d="M14830 11915 c7 -8 17 -15 22 -15 6 0 5 7 -2 15 -7 8 -17 15 -22 15
-6 0 -5 -7 2 -15z"/>
<path d="M12527 11818 c3 -24 10 -49 16 -56 7 -9 7 -16 1 -20 -6 -4 -13 -15
-17 -25 -6 -15 -4 -16 13 -7 10 5 22 15 25 20 4 7 13 7 26 0 15 -8 19 -7 19 4
0 8 10 22 21 30 l22 15 -27 7 c-16 4 -26 13 -26 25 0 17 -45 49 -69 49 -5 0
-7 -18 -4 -42z"/>
<path d="M14188 11643 c7 -3 16 -2 19 1 4 3 -2 6 -13 5 -11 0 -14 -3 -6 -6z"/>
<path d="M10351 11283 c1 -15 59 -54 69 -48 15 9 5 21 -32 39 -36 18 -38 19
-37 9z"/>
<path d="M12533 11235 c0 -8 8 -22 18 -31 17 -16 18 -15 6 15 -12 33 -24 41
-24 16z"/>
<path d="M12309 11180 c-19 -11 -101 -13 -156 -4 -39 6 -43 5 -43 -15 0 -11
-4 -21 -9 -21 -5 0 -7 -26 -4 -59 6 -68 1 -74 -69 -77 -27 -1 -55 -7 -63 -14
-8 -6 -20 -8 -26 -4 -7 4 -9 3 -6 -3 4 -5 -12 -16 -33 -23 -34 -11 -40 -17
-40 -42 0 -15 -4 -28 -10 -28 -5 0 -10 5 -10 10 0 6 -9 10 -20 10 -11 0 -20 6
-20 14 0 7 -10 16 -22 20 -18 5 -20 8 -9 15 10 7 11 13 2 30 -12 21 -31 29
-31 12 0 -5 -23 -2 -51 7 -37 12 -55 24 -67 47 l-17 30 -3 -30 c-4 -42 -23
-86 -33 -79 -5 3 -12 -2 -16 -11 -3 -10 0 -20 6 -25 9 -5 8 -9 -4 -13 -10 -5
-15 -16 -13 -34 3 -26 0 -28 -47 -35 -27 -4 -51 -12 -53 -18 -2 -5 -11 -1 -21
11 -16 19 -20 20 -42 8 -29 -17 -39 -30 -32 -42 7 -12 -16 -27 -44 -27 -12 0
-26 -7 -31 -16 -6 -11 -11 -13 -16 -5 -4 6 -14 11 -23 11 -14 0 -14 -2 1 -19
12 -14 14 -24 7 -42 -8 -21 -2 -31 45 -78 30 -30 54 -60 54 -68 0 -8 7 -25 16
-38 13 -20 14 -33 6 -70 -7 -34 -7 -45 2 -42 6 2 11 9 11 15 0 21 14 24 46 8
17 -9 35 -14 39 -11 4 3 10 -9 14 -26 l6 -31 24 29 c13 15 26 38 30 50 5 15
18 23 46 28 21 4 44 13 50 21 10 11 15 10 29 -8 10 -12 23 -18 29 -14 15 9 3
68 -16 80 -12 7 -12 10 -1 17 8 5 22 6 33 3 12 -4 16 -2 12 5 -4 6 0 21 8 33
9 12 16 31 16 42 0 15 3 17 11 9 15 -15 68 1 86 27 8 11 25 20 39 20 19 0 24
5 24 26 0 23 3 25 25 20 20 -5 25 -3 25 11 0 15 9 19 53 20 28 1 58 -4 66 -10
22 -19 71 -15 71 5 0 9 9 20 20 23 11 3 20 13 20 20 0 8 6 12 14 9 17 -6 27
18 15 37 -13 21 -11 26 16 31 27 6 62 -23 50 -41 -3 -6 -1 -11 4 -11 6 0 11 4
11 10 0 13 71 42 88 35 8 -3 19 -2 25 2 7 4 19 8 27 8 10 0 14 8 13 23 -2 13
4 25 13 29 13 5 12 9 -7 29 -12 13 -17 24 -10 24 8 0 9 5 1 19 -5 11 -10 30
-10 42 0 16 5 20 20 16 11 -3 20 -1 20 4 0 5 -5 9 -12 9 -6 0 -8 3 -5 6 4 4
13 2 20 -4 10 -9 21 -6 45 11 32 23 43 57 18 57 -8 0 -22 3 -30 6 -12 4 -15 2
-10 -9 6 -18 -23 -37 -45 -29 -7 2 -17 -1 -21 -8 -5 -8 -13 -9 -21 -4 -8 5
-21 7 -30 6 -9 -2 -25 8 -36 22 -13 17 -24 21 -34 16z m-626 -210 c5 -4 1 -20
-8 -34 -15 -22 -15 -26 -2 -26 24 0 29 -28 6 -35 -29 -9 -57 19 -51 50 2 15 0
25 -7 25 -9 0 -9 5 -1 20 11 21 41 20 63 0z m197 -90 c0 -5 -5 -10 -11 -10 -5
0 -7 5 -4 10 3 6 8 10 11 10 2 0 4 -4 4 -10z m-452 -374 c-7 -8 -17 -12 -22
-9 -4 3 -2 9 5 14 22 13 31 11 17 -5z"/>
<path d="M10445 11171 c-3 -5 2 -16 10 -24 8 -9 15 -23 15 -31 0 -9 4 -16 9
-16 4 0 8 13 7 29 -1 29 -30 59 -41 42z"/>
<path d="M10460 11055 c-8 -21 -6 -32 11 -55 13 -16 19 -35 15 -45 -3 -9 1
-23 9 -31 8 -9 15 -24 15 -34 0 -10 9 -22 20 -25 11 -3 20 -13 20 -21 0 -9 10
-14 28 -14 35 0 61 -23 85 -73 22 -49 37 -53 105 -34 36 10 61 12 67 6 16 -16
27 -10 20 11 -6 20 -6 20 30 3 21 -10 34 -22 31 -30 -3 -7 1 -13 9 -13 8 0 15
4 15 10 0 6 9 6 26 0 33 -13 34 -13 34 5 0 9 6 12 15 9 8 -4 15 -1 15 6 0 9
10 11 30 7 25 -6 32 -2 44 22 14 26 13 28 -14 44 -35 21 -41 21 -33 1 5 -14 1
-16 -20 -12 -14 3 -28 1 -30 -5 -6 -19 -52 2 -72 33 -11 17 -31 33 -45 37 -42
11 -107 42 -120 58 -14 17 -56 20 -65 5 -3 -5 -15 -10 -25 -10 -11 0 -28 -9
-38 -20 -15 -17 -23 -18 -52 -10 -19 5 -43 7 -52 4 -16 -5 -18 2 -18 51 0 47
-4 60 -27 82 -15 16 -21 29 -15 31 15 5 16 32 2 32 -6 0 -15 -11 -20 -25z"/>
<path d="M12510 11070 c0 -5 5 -10 10 -10 6 0 10 5 10 10 0 6 -4 10 -10 10 -5
0 -10 -4 -10 -10z"/>
<path d="M13604 11064 c3 -8 6 -20 6 -25 0 -5 5 -9 10 -9 16 0 11 37 -6 44
-12 5 -15 2 -10 -10z"/>
<path d="M10247 10986 c-25 -11 -26 -14 -13 -25 12 -10 13 -18 5 -33 -11 -20
-4 -75 13 -95 7 -8 5 -20 -6 -35 -9 -12 -16 -33 -16 -45 0 -29 -35 -64 -55
-57 -13 5 -15 2 -9 -20 4 -19 2 -26 -9 -26 -16 0 -30 -26 -22 -40 3 -4 -9 -13
-25 -20 -24 -10 -33 -10 -45 0 -13 11 -15 6 -15 -31 0 -39 4 -46 32 -62 21
-12 34 -15 36 -8 2 6 17 11 34 11 23 0 29 4 24 15 -3 9 0 15 9 15 8 0 15 -7
15 -15 0 -9 11 -20 24 -24 13 -5 26 -17 30 -26 4 -10 2 -14 -5 -9 -8 5 -10 -5
-7 -30 4 -35 3 -37 -19 -31 -22 5 -23 3 -23 -58 0 -35 5 -68 11 -74 11 -11 16
-43 20 -125 1 -16 6 -28 10 -28 10 0 0 -87 -13 -112 -8 -17 8 -58 24 -58 18 0
76 73 71 88 -4 9 -2 13 5 8 6 -3 13 2 17 13 6 21 -14 68 -46 110 -30 38 -25
54 17 49 30 -4 35 -2 31 14 -3 10 -1 18 4 18 15 0 54 44 51 57 -2 8 7 13 20
13 59 0 55 74 -8 157 -19 25 -34 50 -34 57 0 6 -20 18 -44 25 -25 7 -47 18
-50 24 -2 7 -5 4 -5 -5 -1 -9 4 -20 9 -23 16 -10 11 -25 -9 -25 -10 0 -27 11
-37 25 -10 14 -24 25 -31 25 -19 0 -16 27 5 39 9 6 11 11 5 11 -18 0 -16 35 2
50 9 7 14 22 13 34 -2 15 3 22 20 24 13 2 28 14 33 26 17 36 70 22 95 -25 16
-33 35 -37 59 -13 18 19 15 39 -6 39 -8 0 -18 15 -24 33 -5 17 -15 32 -22 32
-8 0 -19 11 -25 25 -6 14 -14 25 -18 25 -4 0 -10 9 -13 20 -3 11 -12 20 -21
20 -12 0 -15 6 -10 24 4 16 1 25 -10 29 -9 4 -13 13 -10 22 7 18 -1 18 -39 1z
m-61 -433 c-6 -15 -9 -15 -16 -3 -6 9 -5 17 3 22 16 10 21 2 13 -19z"/>
<path d="M11130 10799 c0 -5 9 -9 20 -9 11 0 20 2 20 4 0 2 -9 6 -20 9 -11 3
-20 1 -20 -4z"/>
<path d="M11188 10783 c7 -3 16 -2 19 1 4 3 -2 6 -13 5 -11 0 -14 -3 -6 -6z"/>
<path d="M13006 10644 c-5 -12 -2 -15 10 -10 8 3 18 6 20 6 3 0 2 5 -1 10 -9
15 -22 12 -29 -6z"/>
<path d="M10393 10544 c0 -23 1 -24 9 -10 7 12 7 21 0 28 -6 6 -9 0 -9 -18z"/>
<path d="M10218 10473 c7 -3 16 -2 19 1 4 3 -2 6 -13 5 -11 0 -14 -3 -6 -6z"/>
<path d="M11352 10370 c0 -14 2 -19 5 -12 2 6 2 18 0 25 -3 6 -5 1 -5 -13z"/>
<path d="M11231 10329 c-21 -22 -21 -24 -4 -36 22 -15 28 -21 54 -55 17 -24
23 -26 40 -15 17 10 20 19 16 49 -3 20 -1 38 4 40 20 7 -9 28 -47 34 -35 5
-45 3 -63 -17z"/>
<path d="M10501 10313 c-1 -7 -8 -13 -16 -13 -13 0 -13 -3 -3 -20 13 -20 13
-19 21 2 4 12 6 26 3 32 -3 7 -5 6 -5 -1z"/>
<path d="M12673 10229 c-7 -7 -13 -21 -13 -31 0 -14 4 -16 23 -9 12 4 28 6 36
3 9 -3 11 0 6 7 -4 7 -13 10 -20 7 -8 -3 -15 3 -17 15 -2 16 -5 18 -15 8z"/>
<path d="M11294 10165 c-4 -18 -1 -32 11 -45 12 -13 16 -29 12 -48 -3 -16 -1
-34 4 -39 7 -7 3 -22 -12 -47 -12 -20 -21 -48 -21 -61 0 -16 -5 -22 -14 -18
-8 3 -14 0 -14 -7 0 -7 -8 -9 -19 -5 -16 5 -21 -4 -36 -69 -13 -55 -23 -77
-39 -84 -11 -6 -15 -11 -8 -11 6 -1 21 8 31 18 17 17 21 18 31 5 7 -7 16 -11
21 -8 13 8 49 -15 49 -31 0 -8 5 -15 11 -15 7 0 9 -10 6 -25 -3 -18 1 -29 14
-36 12 -6 19 -21 19 -38 0 -36 37 -73 50 -51 6 8 10 23 10 33 0 10 6 20 13 23
10 4 13 30 13 104 -1 98 -1 99 -33 131 -18 17 -33 35 -33 39 0 5 14 13 30 19
26 8 30 15 30 45 0 20 5 36 10 36 17 0 11 26 -10 45 -18 17 -19 20 -5 28 13 7
14 11 3 25 -11 15 -10 14 8 0 25 -21 45 -23 38 -4 -3 7 2 16 10 19 30 12 17
34 -25 45 -23 6 -48 8 -55 5 -8 -3 -14 0 -14 7 0 8 -11 11 -30 8 -24 -4 -30
-1 -30 14 0 27 -19 22 -26 -7z"/>
<path d="M12670 10153 c0 -6 3 -19 6 -27 5 -13 9 -14 21 -4 11 9 16 9 23 -1 5
-10 9 -10 15 -1 9 15 4 19 -26 22 -13 2 -27 8 -31 13 -5 6 -8 6 -8 -2z"/>
<path d="M12680 10087 c0 -7 19 -28 41 -47 63 -52 68 -58 75 -98 4 -20 14 -42
22 -48 13 -9 13 -12 -2 -17 -10 -4 -27 -2 -38 4 -14 8 -23 8 -27 1 -4 -7 -12
-8 -21 -2 -26 17 -44 12 -26 -6 9 -8 16 -22 16 -30 0 -7 15 -33 33 -57 30 -40
35 -43 76 -42 27 1 45 -4 48 -12 7 -17 23 -17 23 1 0 7 -12 21 -26 31 -18 11
-22 20 -15 28 6 8 5 18 -5 31 -7 10 -11 23 -8 27 3 5 1 9 -4 9 -6 0 -5 10 1
25 7 14 17 25 23 25 11 0 29 30 22 35 -19 15 -48 23 -53 15 -3 -5 -13 -10 -21
-10 -8 0 -13 3 -11 8 10 15 -29 77 -55 90 -16 7 -33 22 -38 33 -12 22 -30 26
-30 6z"/>
<path d="M10633 10003 c-13 -2 -23 -9 -23 -15 0 -5 -7 -8 -15 -4 -10 4 -15 -1
-15 -14 0 -11 -4 -20 -10 -20 -5 0 -7 -6 -4 -14 5 -13 -20 -46 -36 -46 -4 0
-7 7 -6 16 2 24 -20 28 -26 6 -4 -14 -18 -21 -50 -26 -38 -6 -44 -10 -44 -29
1 -16 -5 -22 -19 -22 -11 0 -21 -8 -23 -18 -4 -21 -21 -22 -28 -2 -4 9 -15 12
-32 9 -37 -7 -92 28 -86 53 4 14 0 19 -15 19 -12 0 -21 -6 -21 -14 0 -7 -4
-10 -10 -7 -5 3 -10 1 -10 -4 0 -6 -8 -11 -19 -11 -14 0 -20 -10 -25 -46 -9
-68 -7 -116 3 -109 9 5 35 -30 36 -48 0 -4 5 -11 11 -15 6 -4 11 -27 10 -52
-1 -33 3 -45 14 -45 8 0 21 -13 30 -30 8 -16 20 -33 27 -38 30 -19 44 -40 33
-47 -15 -9 -3 -50 14 -50 8 0 19 -6 25 -14 6 -7 26 -16 43 -20 17 -3 37 -15
44 -25 17 -23 64 -34 64 -15 0 14 5 16 54 18 45 2 55 29 29 76 -13 21 -23 43
-23 47 0 17 68 45 101 41 30 -3 34 0 37 24 2 14 10 32 18 38 19 17 18 40 -3
40 -15 0 -15 1 2 13 26 20 12 35 -41 43 -28 4 -48 13 -54 25 -15 27 -12 29 16
19 28 -11 59 3 48 21 -8 14 41 10 92 -7 26 -9 62 -17 81 -19 29 -3 33 -1 28
16 -6 17 -3 19 19 13 18 -4 26 -2 26 7 0 8 6 5 15 -7 9 -12 14 -14 15 -5 0 7
6 11 14 8 23 -9 24 15 3 50 -18 32 -136 122 -167 128 -8 2 -17 4 -20 4 -3 1 1
5 8 9 9 6 7 13 -8 29 -28 31 -85 73 -96 72 -5 -1 -19 -4 -31 -6z m-23 -384 c0
-6 -4 -7 -10 -4 -5 3 -10 11 -10 16 0 6 5 7 10 4 6 -3 10 -11 10 -16z"/>
<path d="M6580 9910 c0 -36 3 -42 36 -57 35 -17 36 -17 55 6 24 29 24 40 -1
71 -20 24 -21 24 -35 6 -13 -17 -15 -17 -30 -2 -23 23 -25 21 -25 -24z"/>
<path d="M5716 9899 c6 -8 14 -26 17 -40 4 -14 20 -43 37 -64 16 -21 30 -48
30 -60 0 -12 9 -30 20 -40 28 -25 45 -86 32 -111 -8 -15 -6 -25 9 -44 22 -30
25 -47 4 -30 -12 10 -15 10 -15 -4 0 -9 -7 -16 -15 -16 -10 0 -15 -10 -15 -30
0 -16 5 -30 10 -30 6 0 10 -7 10 -16 0 -10 -6 -14 -15 -10 -20 7 -20 -18 0
-37 10 -10 13 -25 9 -46 -5 -24 -1 -35 20 -56 28 -28 47 -85 28 -85 -11 0 -26
-35 -31 -70 -4 -34 -51 12 -51 50 0 27 -2 28 -29 20 -17 -4 -47 -6 -68 -3 -37
4 -38 4 -63 -49 l-25 -53 -50 1 c-28 0 -59 5 -70 9 -18 8 -17 7 3 -15 25 -27
29 -52 7 -44 -21 9 -19 -10 5 -31 11 -10 20 -24 20 -30 0 -7 9 -15 20 -18 12
-3 20 -14 20 -25 0 -31 11 -52 26 -52 8 0 14 -5 14 -12 0 -6 7 -19 16 -29 12
-13 13 -22 5 -38 -18 -32 -13 -66 13 -90 14 -13 23 -28 20 -35 -2 -6 16 -19
41 -30 36 -14 51 -28 70 -65 16 -33 25 -42 29 -31 5 12 17 15 42 12 45 -6 79
21 63 50 -6 11 -8 26 -5 34 8 21 49 13 52 -9 5 -36 35 -57 79 -57 41 0 73 -19
57 -34 -4 -4 1 -12 10 -17 26 -15 11 -50 -21 -48 -69 5 -79 1 -77 -33 1 -24 7
-34 21 -37 11 -2 26 -12 33 -22 7 -11 19 -19 26 -19 6 0 17 -5 24 -12 18 -18
181 -22 201 -4 9 7 40 16 69 18 29 3 60 13 71 22 17 15 22 15 75 -10 55 -25
58 -25 71 -8 10 14 16 16 26 7 8 -6 30 -9 49 -8 38 3 86 -17 92 -37 3 -8 18
-12 41 -10 25 3 50 -5 81 -23 l46 -27 10 26 c6 16 17 26 30 26 11 0 20 5 20
10 0 6 10 8 24 4 16 -4 25 -1 29 10 6 15 10 15 47 0 22 -9 52 -14 66 -11 15 2
50 -4 80 -14 59 -21 84 -24 84 -10 0 22 -14 41 -30 41 -10 0 -23 7 -30 15 -9
10 -9 15 -1 15 15 0 14 16 -4 33 -10 11 -11 17 -3 19 17 6 0 28 -21 28 -10 0
-25 8 -35 19 -14 16 -15 20 -2 30 12 10 12 18 4 36 -8 19 -6 29 13 55 18 23
24 45 24 81 0 38 4 51 17 55 16 5 16 7 1 39 -15 32 -15 36 1 54 10 11 16 28
14 38 -3 10 1 30 8 44 7 15 10 29 7 33 -11 11 11 6 37 -8 15 -9 32 -11 46 -6
12 5 24 6 27 3 15 -14 45 11 58 49 12 39 12 42 -9 56 -17 11 -19 18 -12 32 7
13 7 21 0 25 -5 3 -10 1 -10 -4 0 -30 -30 6 -90 108 -9 16 -88 32 -96 20 -3
-5 1 -9 8 -9 16 0 38 -54 38 -90 0 -23 0 -23 -21 -4 -12 10 -24 17 -28 14 -3
-3 -8 15 -9 40 -3 35 -10 50 -31 67 l-28 22 2 -35 c0 -22 -4 -34 -12 -34 -7 0
-13 -5 -13 -11 0 -8 -5 -8 -15 1 -8 7 -26 10 -40 8 -14 -3 -25 -2 -25 2 0 10
-36 3 -67 -12 -19 -9 -21 -14 -10 -26 9 -12 9 -16 -1 -19 -6 -3 -9 -10 -5 -16
4 -7 0 -8 -13 -3 -10 5 -26 9 -34 10 -8 0 -26 9 -39 18 -19 13 -22 20 -13 31
7 8 8 17 4 21 -4 4 1 14 12 21 11 9 15 19 10 27 -4 7 -7 24 -6 38 1 18 -6 31
-27 45 -16 10 -28 22 -25 26 2 4 0 10 -6 14 -20 12 -10 26 10 15 11 -6 20 -7
21 -3 4 28 -6 61 -24 81 -18 19 -18 22 -4 22 16 0 16 2 1 25 -15 22 -15 25 -1
25 45 0 16 56 -32 62 -15 2 -25 9 -23 16 3 19 -24 68 -51 89 -13 10 -31 32
-40 48 l-15 30 -12 -29 c-6 -17 -7 -32 -2 -35 5 -3 12 -18 16 -33 4 -17 13
-28 24 -29 9 0 12 -3 5 -5 -6 -3 -25 2 -42 11 l-31 16 0 -37 c0 -27 -5 -37
-20 -41 -10 -3 -22 -14 -26 -25 -4 -15 -12 -19 -30 -15 -13 2 -24 1 -24 -4 0
-4 -14 -4 -31 1 -33 10 -64 0 -72 -22 -3 -9 -12 -3 -26 15 -18 21 -31 27 -62
27 -21 0 -39 -4 -39 -10 0 -5 -11 -10 -24 -10 -13 0 -29 -6 -35 -14 -7 -8 -21
-12 -31 -9 -11 3 -20 0 -20 -6 0 -7 -8 -8 -25 -1 -23 9 -25 7 -25 -18 -1 -23
-3 -25 -13 -12 -15 19 -76 15 -84 -6 -3 -7 -9 -12 -13 -9 -5 3 -11 1 -14 -4
-6 -10 -94 6 -112 20 -16 13 -26 80 -14 94 6 7 -1 24 -21 48 l-30 37 24 0 c29
0 39 17 25 43 -7 13 -13 15 -22 8 -21 -18 -40 5 -40 51 -1 39 -4 45 -38 63
-20 11 -39 27 -41 36 -3 9 -15 23 -28 30 -20 10 -22 10 -13 -2z m1033 -308 c9
-15 7 -20 -9 -24 -16 -4 -20 0 -20 19 0 29 15 31 29 5z m561 -606 c-8 -10 -17
-12 -23 -6 -5 5 -17 7 -25 3 -10 -3 -7 4 8 20 21 22 27 24 39 12 12 -11 12
-16 1 -29z m-1210 -391 c0 -8 -4 -14 -8 -14 -4 0 -8 9 -8 19 0 11 4 17 8 15 4
-3 8 -12 8 -20z"/>
<path d="M10285 9880 c-3 -5 -1 -10 4 -10 6 0 11 5 11 10 0 6 -2 10 -4 10 -3
0 -8 -4 -11 -10z"/>
<path d="M9837 9843 c-16 -16 -2 -86 17 -84 20 3 26 -1 26 -14 0 -8 -5 -15
-11 -15 -6 0 -8 -9 -4 -20 9 -28 -15 -49 -50 -43 -19 4 -26 2 -21 -6 4 -6 1
-11 -8 -11 -9 0 -25 -19 -37 -42 -12 -24 -23 -45 -25 -46 -2 -3 -21 -6 -85
-14 -9 -1 -16 -8 -17 -15 -1 -7 -3 -20 -4 -28 -1 -8 -5 -15 -9 -15 -4 0 -11
-9 -14 -21 -6 -18 -12 -20 -48 -14 -34 6 -40 5 -29 -6 17 -18 15 -39 -4 -39
-11 0 -14 -5 -10 -16 3 -9 6 -20 6 -25 0 -10 60 -43 67 -36 2 3 18 1 35 -5 27
-10 29 -14 24 -44 -6 -27 -3 -34 14 -39 11 -3 20 -12 20 -20 0 -17 27 -27 33
-12 3 8 10 7 24 -5 10 -10 23 -14 29 -10 5 5 28 15 52 22 39 12 42 16 42 47 0
19 3 33 8 31 87 -45 134 -62 177 -63 35 -1 62 -9 90 -27 l41 -26 24 20 c17 13
24 28 22 44 -2 15 2 24 10 24 7 0 0 11 -17 25 -16 13 -24 24 -16 25 8 0 11 7
8 19 -7 29 21 65 38 51 11 -9 16 -5 23 22 8 29 6 35 -13 45 -13 7 -39 34 -58
61 -24 33 -44 51 -64 55 -69 14 -89 21 -106 35 -18 16 -50 18 -119 8 -21 -3
-40 -1 -42 3 -10 15 26 53 44 48 21 -5 31 17 35 73 3 38 -13 69 -25 50 -8 -13
-67 36 -62 51 2 11 -2 12 -11 2z"/>
<path d="M11062 9716 c-23 -12 -22 -13 12 -12 22 1 36 6 36 14 0 15 -18 15
-48 -2z"/>
<path d="M11345 9483 c-22 -14 -41 -27 -43 -29 -2 -1 1 -12 8 -23 6 -12 7 -27
3 -34 -4 -6 -8 -19 -8 -27 0 -8 -15 -20 -34 -26 -30 -10 -31 -12 -12 -17 14
-3 21 -13 21 -29 0 -32 10 -45 44 -58 21 -8 26 -14 18 -22 -7 -7 -7 -17 0 -34
9 -19 21 -24 70 -30 32 -4 61 -11 64 -15 3 -5 0 -9 -7 -9 -10 0 -10 -3 -1 -12
10 -10 15 -10 20 -1 4 6 24 14 44 18 23 4 35 11 31 18 -12 20 -10 65 2 61 7
-3 10 -16 7 -31 -4 -21 -2 -25 11 -20 28 11 38 -80 12 -107 -14 -13 -14 -19
-2 -48 8 -18 21 -39 31 -47 9 -8 14 -21 11 -31 -3 -10 5 -26 19 -39 14 -13 22
-29 19 -37 -3 -8 1 -14 9 -14 9 0 27 -11 42 -25 34 -31 89 -55 127 -55 16 0
29 -4 29 -10 0 -5 6 -10 14 -10 8 0 24 -12 35 -26 12 -15 21 -21 21 -14 0 9 6
8 19 -4 18 -16 19 -16 25 7 3 14 1 39 -5 56 -9 25 -17 31 -40 31 -16 0 -37 9
-48 21 -19 21 -19 22 0 42 12 13 17 28 13 41 -8 28 -55 67 -73 61 -33 -13 -49
76 -18 97 7 4 3 17 -9 35 -18 26 -19 27 -22 7 -2 -12 -12 -24 -23 -27 -15 -4
-19 0 -19 19 0 13 5 24 12 24 9 0 9 3 0 12 -7 7 -12 20 -12 30 0 10 -7 21 -15
25 -9 3 -22 17 -30 32 -7 14 -27 41 -43 59 -17 18 -33 49 -36 68 -4 20 -17 41
-31 50 -14 9 -25 22 -25 28 0 8 -18 12 -52 11 -53 -2 -101 12 -93 25 3 4 -2
13 -10 20 -8 7 -15 19 -15 26 0 20 -10 18 -55 -13z"/>
<path d="M9200 9481 c0 -14 41 -41 52 -35 5 3 18 -2 28 -11 11 -10 25 -15 33
-12 7 2 21 -1 32 -9 10 -8 26 -14 36 -14 9 0 30 -7 45 -15 27 -14 30 -14 47 6
22 28 22 40 -3 46 -11 3 -20 12 -20 20 0 10 -6 13 -16 9 -9 -4 -23 -1 -30 5
-9 7 -14 8 -14 1 0 -14 -82 -21 -98 -9 -8 6 -21 11 -30 12 -10 1 -27 5 -39 9
-14 4 -23 3 -23 -3z"/>
<path d="M9162 9427 c-12 -13 -22 -28 -22 -33 0 -11 -72 -84 -83 -84 -3 0 -31
-9 -61 -20 -36 -14 -56 -27 -59 -41 -4 -15 -11 -19 -24 -15 -27 8 -41 -5 -45
-43 -3 -30 -8 -35 -63 -58 -33 -14 -62 -28 -65 -32 -3 -3 -34 -16 -70 -29 -58
-19 -74 -21 -155 -13 -110 11 -115 12 -148 34 -15 9 -31 17 -37 17 -6 0 -23 8
-37 17 -19 13 -28 14 -31 5 -2 -8 -9 -9 -21 -2 -11 5 -39 6 -72 1 -30 -5 -55
-5 -57 -1 -2 5 -19 20 -37 35 -26 19 -33 21 -28 9 5 -14 3 -16 -11 -11 -24 10
-95 -15 -102 -35 -4 -14 -10 -15 -31 -7 -29 11 -46 1 -68 -42 -16 -29 -28 -31
-95 -10 -52 16 -77 14 -83 -9 -3 -13 -17 -22 -37 -26 -23 -5 -34 -15 -45 -41
-8 -19 -19 -32 -23 -29 -5 3 -17 -3 -27 -14 -12 -13 -25 -18 -41 -14 -22 6
-64 -24 -64 -46 0 -5 -7 -10 -15 -10 -24 0 -17 -38 11 -56 19 -13 28 -14 36
-6 9 9 19 5 40 -15 18 -17 28 -22 28 -13 0 8 12 24 27 35 24 20 28 20 44 6 9
-9 29 -24 43 -34 28 -19 37 -61 11 -51 -11 4 -9 -6 7 -45 12 -28 26 -51 31
-51 15 0 77 -55 77 -68 0 -7 11 -17 25 -22 14 -5 25 -14 25 -19 0 -6 6 -8 13
-6 6 3 23 -14 37 -37 14 -23 42 -58 63 -78 36 -33 37 -36 22 -58 -9 -12 -25
-22 -36 -22 -11 0 -35 -16 -55 -35 -42 -42 -74 -45 -118 -9 -48 41 -62 64 -45
75 11 6 11 11 2 20 -9 9 -13 3 -18 -23 -7 -34 -7 -35 -48 -27 -23 4 -52 10
-65 14 -18 6 -21 4 -16 -9 4 -10 1 -16 -9 -16 -8 0 -18 8 -22 18 -6 16 -7 16
-16 0 -8 -14 -14 -15 -40 -6 -18 6 -34 7 -38 2 -3 -5 -10 -9 -16 -10 -5 0 -25
-6 -43 -13 l-33 -13 49 -47 c27 -26 53 -57 56 -69 4 -12 14 -22 22 -22 24 0
63 -43 67 -75 2 -18 10 -30 18 -29 8 1 15 -9 15 -23 1 -14 11 -35 23 -47 25
-27 30 -99 6 -90 -8 3 -24 -1 -37 -10 -12 -9 -17 -16 -11 -16 6 0 13 -7 17
-15 8 -22 -36 -19 -61 5 -18 17 -23 17 -33 5 -7 -8 -19 -15 -26 -15 -8 0 -14
-5 -14 -11 0 -6 -7 -8 -16 -5 -14 5 -15 4 -5 -8 11 -13 8 -14 -21 -10 -51 7
-62 -5 -48 -54 11 -34 10 -45 -4 -72 -12 -25 -13 -36 -5 -46 14 -17 75 -18 85
-3 5 8 10 7 16 -4 5 -9 14 -14 22 -11 7 3 18 -2 25 -10 11 -12 17 -12 52 7 21
11 39 26 39 31 0 6 23 12 51 13 68 3 84 9 97 38 8 18 22 25 55 30 34 5 47 13
56 31 9 21 14 23 30 13 22 -15 55 -4 48 15 -7 17 18 24 58 16 20 -4 30 -11 29
-23 -1 -11 6 -17 20 -18 11 -1 32 -3 46 -4 27 -3 87 40 70 50 -20 12 -10 26
11 15 11 -7 23 -9 26 -7 2 3 13 -3 24 -14 10 -10 27 -19 37 -19 22 0 83 37 99
60 7 10 35 23 63 30 27 7 50 15 50 18 0 4 27 6 61 6 41 -1 62 3 66 11 2 7 17
18 33 25 32 13 69 -1 109 -45 13 -14 27 -25 31 -25 5 0 12 -15 16 -32 6 -31 7
-32 15 -10 5 12 15 22 23 22 10 0 13 6 10 15 -4 9 0 15 10 15 21 0 20 12 -4
40 -11 13 -20 28 -20 34 -1 16 -36 56 -49 56 -17 0 -13 31 7 46 9 7 26 14 36
14 31 0 45 29 30 59 -25 51 -35 105 -25 136 5 17 10 23 10 15 1 -12 5 -10 17
5 12 14 18 16 21 7 6 -15 53 26 53 47 0 9 8 11 23 7 16 -4 31 1 44 13 23 22
53 11 53 -19 0 -17 4 -18 30 -9 17 6 30 17 30 25 0 17 10 17 33 0 9 -7 17 -25
17 -38 0 -18 7 -27 22 -31 12 -4 25 -1 29 5 4 6 11 8 17 4 5 -3 15 1 22 9 11
13 15 12 37 -5 31 -24 114 -28 136 -6 10 11 17 12 25 4 6 -6 27 -17 46 -23 29
-10 38 -10 47 1 8 10 16 11 23 5 14 -12 56 -3 56 12 0 6 -7 19 -16 28 -16 17
-15 18 17 9 21 -6 37 -6 43 0 5 5 8 40 7 77 -1 37 -2 77 -2 88 0 11 -6 30 -14
42 -19 28 -19 33 0 33 20 0 19 7 -5 37 -11 14 -20 36 -20 48 0 12 -11 43 -25
69 -13 25 -21 46 -17 47 4 1 -4 4 -18 8 -17 4 -33 23 -52 61 -15 30 -28 62
-28 71 0 9 -9 24 -21 35 -12 10 -27 31 -35 46 -16 31 -19 128 -4 128 6 0 10 9
10 20 0 13 -5 18 -15 14 -23 -9 -54 51 -49 99 2 22 1 45 -3 51 -4 6 -8 19 -8
29 -1 10 -11 25 -23 33 -12 8 -22 22 -22 30 0 8 -13 17 -30 21 -17 3 -33 10
-36 14 -8 14 -19 11 -42 -14z m-1140 -959 c-9 -9 -12 -7 -12 12 0 19 3 21 12
12 9 -9 9 -15 0 -24z m4 -115 c-3 -8 -2 -12 2 -9 5 3 17 -9 27 -27 43 -76 75
-106 129 -123 56 -18 93 -40 83 -50 -3 -4 -27 -9 -52 -11 -37 -5 -43 -8 -34
-19 9 -11 9 -14 0 -14 -6 0 -14 7 -17 15 -4 8 -14 15 -24 15 -11 0 -21 4 -25
10 -3 5 -21 7 -39 5 -37 -5 -71 19 -48 34 7 4 15 23 18 42 5 28 1 41 -19 65
-23 28 -47 67 -47 78 0 7 33 13 43 8 5 -2 6 -11 3 -19z m-505 -66 c-13 -13
-26 -3 -16 12 3 6 11 8 17 5 6 -4 6 -10 -1 -17z"/>
<path d="M5065 9299 c-11 -17 1 -21 15 -4 8 9 8 15 2 15 -6 0 -14 -5 -17 -11z"/>
<path d="M7293 9276 c0 -15 6 -26 18 -29 17 -5 17 -3 2 22 -10 14 -18 27 -19
29 -1 2 -1 -8 -1 -22z"/>
<path d="M5100 9235 c7 -8 22 -15 34 -15 20 1 20 2 -4 15 -33 19 -46 19 -30 0z"/>
<path d="M5165 9240 c-3 -5 -1 -10 4 -10 6 0 11 5 11 10 0 6 -2 10 -4 10 -3 0
-8 -4 -11 -10z"/>
<path d="M7361 9221 l-24 -6 27 -13 c34 -15 72 -1 40 15 -10 6 -30 7 -43 4z"/>
<path d="M5242 9094 c-7 -8 -8 -14 -3 -14 10 0 25 19 20 25 -2 1 -10 -3 -17
-11z"/>
<path d="M5373 9093 c9 -11 17 -32 17 -46 0 -15 5 -27 10 -27 6 0 10 5 10 10
0 6 17 11 38 11 20 1 28 3 17 6 -11 3 -27 13 -35 22 -8 9 -28 23 -45 30 -29
12 -29 12 -12 -6z"/>
<path d="M11846 9074 c-7 -19 6 -24 27 -9 16 12 16 13 -2 18 -11 3 -22 -1 -25
-9z"/>
<path d="M5253 9069 c-6 -6 -10 -17 -7 -23 4 -11 -39 -36 -62 -36 -17 0 -15
-58 3 -92 7 -16 21 -28 30 -28 13 0 14 -3 6 -11 -14 -14 -2 -51 32 -95 l24
-32 -20 -41 c-11 -22 -24 -41 -29 -41 -5 0 -10 -10 -12 -22 -2 -17 -11 -24
-32 -26 -25 -3 -28 -7 -24 -33 3 -16 1 -29 -3 -29 -5 0 -6 -7 -3 -15 8 -19
-16 -20 -42 0 -31 23 -54 19 -54 -10 0 -38 -40 -53 -83 -33 -36 17 -87 13
-100 -8 -6 -10 -14 -11 -33 -4 -18 7 -23 7 -18 -1 4 -7 1 -10 -7 -7 -34 11
-43 -46 -14 -82 24 -29 26 -66 5 -93 -11 -14 -20 -35 -20 -46 0 -12 -4 -21 -8
-21 -5 0 -13 -17 -18 -37 -7 -28 -15 -39 -31 -41 -19 -3 -21 -8 -17 -40 3 -20
6 -50 7 -67 1 -16 9 -37 18 -45 20 -18 40 -76 33 -94 -4 -9 7 -19 30 -27 26
-9 36 -19 36 -35 0 -23 40 -87 75 -120 29 -27 66 -38 58 -18 -5 12 -1 13 23 2
16 -7 33 -18 37 -25 4 -7 16 -13 26 -13 11 0 22 -7 25 -16 8 -22 8 -26 -4 -19
-17 11 -49 -5 -47 -24 1 -12 7 -17 19 -13 23 6 47 -24 41 -49 -3 -9 -13 -26
-24 -38 -17 -18 -17 -22 -4 -35 8 -8 15 -22 15 -31 0 -18 -45 -61 -73 -70 -9
-4 -15 -10 -12 -15 6 -9 108 25 113 38 1 5 15 7 30 4 23 -3 32 3 52 35 14 21
34 39 45 41 11 2 25 9 30 16 8 10 71 46 81 46 1 0 5 -13 9 -30 7 -34 25 -50
25 -23 0 11 3 14 8 6 4 -6 6 12 5 40 0 29 -2 66 -2 83 -1 20 -11 41 -28 59
-21 20 -23 25 -8 18 11 -6 39 -13 63 -17 34 -5 42 -3 42 9 0 9 5 13 10 10 6
-3 19 -3 31 0 14 5 18 12 14 26 -5 15 4 29 36 57 42 38 42 38 29 74 -13 34
-12 39 13 77 14 21 35 42 47 46 19 6 24 16 21 43 -1 6 3 12 9 12 5 0 10 16 10
35 0 23 5 35 14 35 15 0 39 54 29 64 -4 3 -1 6 5 6 7 0 12 -5 12 -11 0 -6 9
-9 19 -6 12 3 22 -1 26 -11 5 -13 9 -10 20 12 19 35 19 57 1 34 -18 -25 -29
-23 -14 2 7 11 19 20 26 20 7 0 10 5 6 11 -4 7 0 9 14 5 16 -5 23 0 33 24 8
16 20 30 26 30 16 0 16 6 0 51 -11 31 -15 34 -30 25 -14 -8 -20 -8 -27 4 -7
11 -10 7 -10 -17 0 -27 -4 -33 -21 -33 -11 0 -18 -4 -14 -10 8 -13 -35 -60
-57 -60 -11 0 -18 -7 -18 -19 0 -11 -4 -22 -9 -26 -15 -8 -23 29 -12 56 5 13
10 18 10 10 1 -8 4 -11 8 -8 3 4 -4 18 -17 32 l-23 25 26 0 c14 0 29 5 32 10
3 6 17 7 29 4 24 -6 40 14 30 39 -2 7 5 23 16 35 26 27 20 71 -12 93 -11 8
-33 24 -48 37 -15 12 -33 22 -40 22 -20 0 -67 45 -62 59 3 8 0 11 -7 7 -6 -4
-11 -13 -11 -19 0 -7 -9 -18 -19 -24 -15 -10 -22 -9 -31 2 -10 12 -10 15 1 15
8 1 -1 13 -18 29 -24 20 -33 36 -33 59 0 37 -10 44 -66 46 -55 1 -69 14 -53
49 9 19 20 27 38 27 51 1 74 37 51 81 -6 11 -7 19 -1 19 16 0 20 29 7 55 l-13
26 -6 -29 c-4 -19 -12 -29 -24 -29 -22 0 -53 25 -53 44 0 7 -5 13 -11 13 -6 0
-23 9 -38 19 -17 12 -36 18 -49 14 -17 -4 -21 -2 -17 9 8 20 -28 51 -42 37z"/>
<path d="M5137 9019 c7 -7 15 -10 18 -7 3 3 -2 9 -12 12 -14 6 -15 5 -6 -5z"/>
<path d="M7339 8898 c-5 -17 -4 -48 3 -48 4 0 8 7 8 15 0 8 5 15 11 15 5 0 7
5 4 10 -5 9 -24 14 -26 8z"/>
<path d="M5905 8390 c10 -11 20 -18 23 -15 7 6 -18 35 -31 35 -5 0 -2 -9 8
-20z"/>
<path d="M8850 7771 c0 -11 31 -24 39 -16 3 3 -1 10 -9 15 -19 12 -30 12 -30
1z"/>
<path d="M7238 7726 c-10 -7 -18 -21 -18 -30 0 -13 -7 -16 -35 -13 -30 4 -33
2 -25 -13 13 -25 31 -37 72 -48 36 -10 37 -9 44 21 4 18 14 38 23 45 15 13 15
13 -1 8 -12 -3 -18 2 -20 16 -4 27 -18 31 -40 14z"/>
<path d="M6986 7573 c-6 -14 -5 -15 5 -6 7 7 10 15 7 18 -3 3 -9 -2 -12 -12z"/>
<path d="M7010 7575 c0 -9 9 -15 24 -15 18 0 61 -30 48 -34 -2 -1 0 -9 4 -19
6 -17 7 -17 20 0 7 10 14 25 14 34 0 9 8 20 18 25 13 6 9 9 -18 14 -19 3 -40
2 -47 -3 -7 -5 -20 -4 -32 2 -26 14 -31 14 -31 -4z"/>
<path d="M7180 7560 c0 -5 4 -10 10 -10 5 0 26 -11 46 -25 45 -30 51 -31 59
-4 9 27 4 31 -39 31 -20 0 -39 4 -42 9 -7 12 -34 11 -34 -1z"/>
<path d="M4815 7541 c-3 -6 -1 -11 4 -11 16 0 13 -30 -3 -36 -15 -6 -10 -55 8
-66 17 -12 26 -9 26 7 0 8 4 15 8 15 9 0 11 43 2 50 -3 3 -13 15 -22 28 -10
15 -18 19 -23 13z"/>
<path d="M7110 7466 c0 -2 8 -10 18 -17 15 -13 16 -12 3 4 -13 16 -21 21 -21
13z"/>
<path d="M4805 7400 c3 -5 13 -10 21 -10 8 0 12 5 9 10 -3 6 -13 10 -21 10 -8
0 -12 -4 -9 -10z"/>
<path d="M4864 7376 c11 -9 24 -16 30 -16 12 0 7 5 -24 19 -24 11 -24 11 -6
-3z"/>
<path d="M4830 7365 c0 -8 4 -15 10 -15 5 0 7 7 4 15 -4 8 -8 15 -10 15 -2 0
-4 -7 -4 -15z"/>
<path d="M4916 7361 c-2 -3 12 -16 32 -29 20 -13 30 -17 23 -8 -7 8 -10 19 -7
24 3 6 -6 12 -19 15 -14 2 -27 2 -29 -2z"/>
</g>
</svg>
