<?xml version="1.0" standalone="no"?>
<!DOCTYPE svg PUBLIC "-//W3C//DTD SVG 20010904//EN"
 "http://www.w3.org/TR/2001/REC-SVG-20010904/DTD/svg10.dtd">
<svg version="1.0" xmlns="http://www.w3.org/2000/svg"
 width="684.722361pt" height="987.002030pt" viewBox="0 0 684.722361 987.002030"
 preserveAspectRatio="xMidYMid meet">
<metadata>
Created by potrace 1.15, written by Peter Selinger 2001-2017
</metadata>
<g transform="translate(-679.136682,1438.500000) scale(0.100000,-0.100000)"
fill="#222222" stroke="none">
<path d="M13239 14360 c-5 -14 -14 -33 -19 -42 -14 -25 -14 -26 29 -30 38 -3
39 -2 36 24 -2 20 1 28 11 28 8 0 13 -4 9 -10 -3 -5 6 -17 20 -26 15 -10 25
-26 25 -40 0 -31 12 -30 27 1 10 22 7 30 -23 66 -19 23 -34 44 -34 47 0 4 -16
7 -36 7 -30 0 -38 -5 -45 -25z"/>
<path d="M13400 14220 c0 -5 5 -10 11 -10 5 0 7 5 4 10 -3 6 -8 10 -11 10 -2
0 -4 -4 -4 -10z"/>
<path d="M13450 14154 c0 -8 5 -12 10 -9 6 4 8 11 5 16 -9 14 -15 11 -15 -7z"/>
<path d="M13425 14020 c-3 -5 -1 -18 5 -29 8 -16 6 -22 -7 -30 -17 -9 -17 -12
-3 -38 21 -38 45 -40 59 -5 12 30 5 60 -22 95 -16 19 -23 21 -32 7z"/>
<path d="M13465 13852 c0 -25 -3 -27 -34 -24 l-34 4 6 -37 c3 -21 14 -46 23
-56 12 -13 15 -29 11 -54 -3 -20 -1 -37 5 -41 8 -5 9 -1 5 10 -4 10 -1 19 8
22 8 4 15 17 15 29 0 13 4 26 9 29 16 10 20 62 7 99 -16 47 -22 52 -21 19z"/>
<path d="M11986 13733 c-4 -5 -51 -8 -104 -9 -137 -1 -144 -2 -136 -16 5 -7 3
-8 -6 -3 -18 11 -32 -16 -17 -34 9 -11 9 -15 0 -18 -7 -3 -13 -14 -13 -25 0
-16 -5 -19 -25 -14 -22 6 -26 2 -36 -38 -8 -34 -17 -46 -35 -50 -26 -7 -64 8
-64 24 0 6 -5 10 -12 10 -6 0 -23 10 -36 23 -14 12 -22 16 -18 10 4 -7 2 -13
-4 -13 -7 0 -8 -6 -2 -17 8 -17 8 -24 3 -63 -1 -8 -8 0 -16 18 -8 17 -18 32
-23 32 -20 0 -52 38 -46 54 5 12 2 15 -9 10 -9 -3 -13 -12 -10 -20 4 -10 -3
-14 -22 -14 -14 0 -24 4 -21 9 3 4 -3 16 -13 25 -18 17 -20 16 -26 -4 -4 -11
-2 -27 4 -34 16 -20 -12 -28 -47 -15 -42 17 -82 19 -84 6 0 -7 -2 -16 -3 -22
-2 -5 -3 -16 -4 -22 0 -7 -7 -13 -15 -13 -8 0 -17 -13 -21 -30 -5 -21 -13 -30
-26 -30 -23 0 -24 -9 -5 -36 8 -10 12 -29 9 -41 -4 -19 -1 -23 17 -23 13 0 28
7 35 17 7 9 19 14 28 10 12 -5 15 -17 12 -58 -2 -29 -1 -57 1 -64 7 -18 61 -6
67 16 4 14 14 19 40 19 29 0 36 4 41 26 4 15 2 32 -5 40 -9 11 -8 14 6 14 15
0 14 3 -6 24 -52 51 -79 91 -79 118 0 15 4 28 9 28 5 0 16 3 25 6 19 7 51 -43
61 -95 4 -20 16 -46 27 -58 18 -20 19 -25 7 -40 -8 -10 -9 -14 -2 -10 7 5 17
-2 24 -15 6 -13 21 -33 32 -45 22 -25 9 -31 -23 -11 -10 7 -21 10 -24 8 -12
-13 21 -109 49 -145 18 -22 35 -53 39 -68 9 -37 -10 -107 -30 -107 -8 0 -17
-6 -20 -14 -3 -8 -11 -13 -18 -10 -8 3 -16 -10 -22 -33 -7 -29 -15 -39 -32
-41 -18 -3 -21 -6 -12 -17 7 -9 8 -15 1 -19 -6 -4 -8 -13 -5 -21 5 -11 -4 -13
-41 -11 -25 1 -48 -1 -51 -6 -3 -4 -16 -5 -29 -2 l-23 6 14 -68 c10 -46 11
-71 4 -78 -7 -7 -2 -18 15 -36 13 -14 26 -35 28 -47 2 -12 11 -31 20 -41 9
-10 17 -25 17 -33 0 -8 9 -23 21 -33 17 -14 20 -24 15 -51 -5 -25 -3 -34 10
-39 15 -6 16 -8 0 -24 -9 -10 -16 -23 -16 -29 0 -5 -9 -18 -20 -28 -11 -10
-20 -24 -20 -31 0 -6 -11 -36 -25 -66 -24 -50 -24 -54 -8 -68 18 -15 29 -110
13 -110 -4 0 -7 -17 -6 -37 1 -32 -2 -38 -21 -41 -25 -4 -27 -10 -14 -31 5 -8
16 -11 29 -7 26 9 33 -4 26 -44 -4 -20 -11 -29 -20 -26 -7 3 -27 1 -44 -4 -26
-7 -36 -5 -53 11 -21 19 -22 19 -26 2 -6 -33 -44 -60 -78 -58 -17 2 -36 6 -42
10 -6 3 -27 1 -46 -6 -27 -10 -35 -19 -35 -37 0 -22 -3 -24 -32 -18 -54 10
-82 11 -93 4 -5 -4 -26 -21 -46 -38 -39 -32 -69 -39 -69 -16 0 7 -9 16 -20 19
-11 3 -18 1 -14 -4 8 -13 -10 -11 -25 4 -10 10 -11 9 -6 -5 5 -11 -2 -22 -19
-33 -14 -10 -26 -23 -26 -30 0 -7 -6 -13 -12 -12 -49 1 -59 -3 -53 -24 l7 -22
-29 21 c-17 12 -33 19 -36 15 -3 -3 -24 2 -47 11 -50 20 -47 20 -61 -5 -8 -15
-8 -19 0 -15 6 4 11 0 11 -8 0 -11 9 -16 30 -16 35 0 39 -18 10 -45 -10 -9
-24 -32 -30 -51 -8 -24 -22 -38 -50 -51 -26 -12 -40 -25 -40 -38 -1 -19 -1
-19 -14 -2 -7 9 -16 17 -20 17 -4 0 -21 10 -37 23 l-31 22 27 5 28 5 -56 60
c-33 35 -57 69 -57 83 0 12 -6 22 -14 22 -8 0 -28 17 -45 37 -26 31 -30 43
-25 74 4 22 2 39 -5 43 -6 4 -9 12 -6 17 6 8 -8 13 -27 10 -5 0 -8 8 -8 18 0
11 -16 37 -36 58 -20 21 -42 52 -50 69 -22 52 -69 84 -121 84 -30 0 -53 7 -70
20 -14 11 -30 17 -35 14 -5 -3 -15 0 -23 6 -8 6 -19 9 -24 6 -5 -4 -12 -2 -16
4 -12 19 -37 11 -30 -9 10 -33 -23 -42 -67 -20 -41 21 -73 24 -83 9 -4 -6 -17
-2 -33 10 -15 11 -45 21 -68 23 -43 3 -88 26 -115 60 -12 15 -29 21 -58 22
-22 0 -43 4 -47 8 -4 4 -37 7 -73 7 -50 0 -62 -3 -53 -12 9 -9 8 -16 -6 -32
-9 -11 -11 -16 -4 -12 20 12 26 -22 12 -65 -11 -33 -17 -39 -42 -39 -23 0 -28
-4 -24 -17 5 -14 0 -18 -22 -17 -15 1 -35 5 -46 9 -11 5 -30 2 -50 -8 -17 -9
-43 -14 -59 -12 -15 2 -25 0 -22 -5 3 -4 -2 -10 -10 -14 -8 -3 -15 -12 -15
-21 0 -8 -6 -15 -14 -15 -8 0 -21 -23 -31 -55 -10 -30 -23 -55 -30 -55 -12 0
-25 -21 -25 -41 0 -5 7 -9 15 -9 8 0 15 -7 15 -16 0 -8 -5 -12 -11 -8 -6 4 -9
-1 -7 -13 2 -11 -3 -27 -10 -35 -10 -13 -8 -24 12 -63 14 -26 25 -50 25 -53
-4 -24 5 -39 30 -57 22 -14 31 -30 35 -60 9 -61 9 -69 2 -86 -5 -10 1 -20 19
-29 14 -7 25 -20 25 -27 0 -21 69 -83 92 -83 11 0 16 -5 13 -10 -4 -7 7 -8 32
-4 30 4 43 1 61 -16 16 -16 22 -17 22 -6 0 8 -4 18 -10 21 -17 11 -11 23 13
27 23 4 24 8 11 43 -4 11 -4 17 1 13 4 -4 15 -3 22 4 18 14 36 -9 26 -32 -3
-8 -8 -34 -11 -58 -4 -37 0 -48 24 -73 l28 -29 -23 -24 c-13 -14 -35 -26 -50
-28 -25 -3 -26 -6 -26 -64 0 -36 -5 -67 -13 -77 -8 -9 -11 -21 -7 -27 3 -5 2
-10 -2 -10 -5 0 -8 -21 -7 -47 3 -53 -24 -133 -43 -133 -13 0 -21 -26 -21 -70
0 -17 8 -29 23 -36 18 -9 22 -9 18 2 -2 7 5 17 16 23 16 9 22 8 30 -8 6 -10
25 -24 43 -30 30 -11 31 -12 15 -29 -12 -11 -34 -17 -67 -17 -39 0 -50 -4 -54
-19 -3 -10 -9 -15 -16 -11 -6 4 -9 13 -6 21 5 14 -40 44 -67 44 -8 0 -20 6
-26 14 -15 17 -64 25 -105 16 -21 -4 -39 -1 -56 9 -18 12 -22 12 -16 2 7 -10
4 -12 -12 -7 -15 5 -25 1 -34 -13 -9 -15 -19 -19 -38 -14 -28 6 -72 42 -65 53
3 4 -4 19 -15 33 -21 26 -16 36 23 50 21 8 21 25 2 51 -8 11 -15 26 -15 34 0
14 -27 41 -42 42 -5 0 -8 -7 -8 -15 0 -8 -7 -15 -15 -15 -8 0 -15 -6 -15 -14
0 -8 -5 -16 -12 -18 -21 -7 3 -28 26 -22 17 4 25 -1 33 -19 14 -29 8 -37 -23
-37 -17 0 -22 -4 -18 -15 7 -18 -6 -19 -41 -3 -24 11 -28 10 -38 -7 -6 -11
-10 -39 -8 -62 2 -32 -1 -43 -12 -43 -8 0 -22 -12 -32 -26 -9 -14 -30 -30 -46
-36 -16 -5 -29 -16 -29 -24 0 -7 -11 -16 -25 -20 -15 -4 -25 -13 -25 -25 0
-12 -5 -16 -15 -13 -15 6 -27 -25 -24 -61 5 -50 -1 -77 -16 -71 -9 3 -15 0
-15 -9 0 -8 -3 -15 -7 -15 -5 0 -8 -13 -9 -30 -1 -16 -7 -37 -15 -46 -16 -20
-13 -73 7 -95 8 -9 17 -32 20 -50 7 -46 -42 -102 -91 -103 -32 -1 -32 -1 -27
-43 3 -31 1 -43 -8 -43 -13 0 -5 -15 8 -15 4 0 13 -4 20 -9 10 -6 10 -11 1
-22 -6 -8 -8 -14 -3 -14 4 0 -1 -8 -12 -19 -16 -14 -31 -17 -65 -14 -41 4 -47
2 -64 -23 -14 -22 -15 -31 -6 -46 19 -30 13 -49 -31 -88 -42 -39 -101 -55
-134 -37 -10 6 -22 3 -34 -8 -20 -18 -70 -14 -70 5 0 6 -4 10 -8 10 -12 0 -32
-71 -27 -95 13 -67 13 -95 -1 -95 -8 0 -14 -10 -14 -24 0 -18 -8 -27 -32 -37
-18 -6 -37 -12 -41 -13 -4 -1 -11 -7 -16 -14 -9 -15 -44 -37 -73 -48 -11 -4
-18 -17 -18 -30 0 -30 -36 -46 -77 -35 -27 8 -30 6 -40 -26 -8 -28 -8 -36 4
-40 11 -4 10 -10 -7 -28 -22 -24 -20 -41 12 -87 14 -20 17 -37 13 -60 -6 -31
-4 -34 27 -43 18 -6 38 -21 46 -35 15 -31 8 -124 -14 -179 -14 -35 -14 -42 -1
-68 11 -20 12 -34 5 -46 -6 -12 -6 -29 2 -53 9 -27 9 -42 0 -64 -6 -16 -9 -38
-5 -49 4 -15 1 -23 -11 -28 -14 -5 -16 -15 -10 -64 5 -51 3 -58 -14 -64 -11
-3 -17 -12 -14 -20 3 -7 -1 -13 -8 -12 -7 0 -24 -1 -37 -1 -23 -2 -23 -2 8
-37 33 -38 33 -38 33 -85 0 -46 -1 -50 -12 -50 -6 0 -19 -9 -31 -21 l-21 -21
20 -20 c19 -20 19 -22 4 -64 -19 -51 -53 -71 -96 -54 -19 7 -25 7 -21 0 4 -6
2 -17 -5 -25 -9 -11 -6 -17 15 -31 22 -14 28 -15 35 -4 13 20 40 4 40 -25 0
-14 -4 -25 -10 -25 -5 0 -10 -14 -10 -31 0 -17 -4 -39 -10 -49 -8 -15 0 -29
45 -77 52 -54 95 -125 95 -155 0 -8 -6 -20 -12 -26 -10 -10 -10 -17 0 -32 10
-16 10 -20 -2 -20 -9 0 -12 -7 -9 -19 3 -10 0 -22 -6 -25 -6 -4 -2 -20 11 -42
18 -30 19 -40 9 -56 -15 -24 -17 -22 50 -56 30 -15 55 -34 57 -43 3 -17 -18
-44 -39 -51 -8 -3 -9 -23 -4 -66 6 -57 9 -62 32 -62 40 0 65 -18 59 -43 -3
-12 -3 -16 0 -9 3 6 12 12 20 12 8 0 13 5 12 11 -5 22 19 19 44 -5 31 -31 28
-81 -5 -90 -20 -5 -20 -6 5 -26 29 -22 53 -26 63 -10 11 17 55 -37 48 -58 -9
-23 -29 -42 -43 -42 -8 0 -10 -10 -8 -25 l5 -24 -25 19 c-31 25 -39 25 -47 1
-8 -25 -68 -32 -119 -14 -22 7 -41 12 -43 10 -8 -9 41 -58 53 -53 9 3 17 -7
23 -31 6 -20 19 -45 30 -57 14 -15 17 -26 10 -36 -8 -13 -12 -11 -28 9 -10 14
-29 26 -42 28 -20 2 -28 -7 -51 -57 -20 -45 -32 -60 -47 -60 -12 0 -21 -5 -21
-11 0 -5 -4 -8 -9 -4 -5 3 -12 1 -16 -5 -3 -5 -15 -10 -26 -10 -10 0 -19 -5
-19 -11 0 -13 -52 -3 -61 13 -4 6 -12 3 -22 -6 -13 -13 -17 -13 -26 -2 -7 8
-20 16 -31 19 -16 4 -17 2 -7 -14 7 -11 20 -22 29 -25 10 -3 17 -8 17 -12 -6
-42 4 -64 41 -88 30 -20 40 -33 40 -53 0 -19 12 -37 44 -64 25 -20 51 -37 58
-37 19 -1 68 -47 68 -64 0 -8 9 -21 20 -29 11 -8 17 -17 14 -20 -4 -3 1 -25
10 -48 14 -34 15 -46 4 -75 -14 -38 0 -111 20 -106 8 1 12 -9 10 -28 -1 -16
-5 -30 -9 -30 -3 0 -6 -18 -5 -40 0 -22 4 -40 9 -40 4 0 6 -4 3 -9 -9 -14 5
-41 21 -41 25 0 70 -37 82 -69 7 -16 21 -31 32 -34 11 -3 19 -14 19 -25 0 -11
7 -25 15 -32 11 -9 12 -17 5 -30 -7 -13 -7 -21 0 -25 13 -8 30 3 30 19 0 21
47 38 69 24 22 -13 16 -50 -8 -46 -10 2 -17 -5 -19 -21 -7 -44 -25 -53 -72
-36 -58 20 -60 20 -60 -21 0 -31 -3 -35 -20 -29 -18 6 -19 4 -11 -19 8 -19 6
-30 -10 -49 -10 -14 -19 -33 -19 -44 0 -38 -13 -63 -31 -63 -11 0 -22 -8 -26
-18 -9 -25 -36 -49 -51 -44 -7 2 -12 -6 -12 -22 0 -14 -5 -26 -11 -26 -6 0
-26 -14 -44 -32 -27 -25 -32 -35 -24 -49 12 -24 11 -29 -5 -29 -20 0 -40 -26
-26 -35 22 -13 -3 -25 -41 -19 -26 4 -39 3 -39 -5 0 -15 34 -44 57 -48 10 -2
25 -5 33 -8 8 -2 17 -4 20 -5 3 0 -3 -5 -13 -11 -13 -8 -22 -7 -33 1 -11 10
-14 9 -14 -9 0 -11 -5 -21 -11 -21 -17 0 0 -80 24 -112 11 -15 25 -28 30 -28
6 0 16 -8 24 -17 10 -13 16 -15 19 -5 3 6 14 12 24 12 25 0 34 16 14 24 -20 8
-15 61 6 62 35 2 40 5 40 24 0 11 -4 20 -10 20 -5 0 -10 7 -10 16 0 9 7 14 18
12 22 -4 52 19 52 38 0 8 6 14 14 14 21 0 39 -28 31 -47 -5 -10 -7 -22 -6 -27
4 -16 -11 -46 -20 -41 -5 4 -9 2 -9 -4 0 -5 8 -15 18 -20 9 -6 13 -11 8 -11
-5 0 -3 -7 4 -15 6 -8 9 -19 5 -25 -9 -14 20 -23 51 -16 20 5 23 10 15 20 -16
19 4 60 35 77 24 12 28 39 10 67 -9 15 12 45 28 39 6 -2 22 4 36 13 25 17 65
19 168 6 37 -4 42 -2 42 15 0 10 6 20 13 20 40 4 57 7 90 13 34 6 37 10 37 41
0 38 13 44 42 19 15 -14 20 -15 34 -3 14 12 19 10 40 -14 26 -30 46 -34 63
-13 16 19 73 29 103 17 43 -16 59 7 60 86 1 81 -9 132 -30 156 -14 15 -13 17
2 17 28 0 77 33 74 50 -1 8 2 45 6 81 8 70 3 64 107 144 38 29 45 40 41 60 -3
17 0 25 10 25 8 0 23 18 34 41 16 34 23 39 45 35 22 -4 27 0 37 28 7 19 10 41
6 50 -8 20 9 21 26 1 7 -8 19 -15 26 -15 17 0 19 71 3 101 -9 17 -7 21 10 26
11 3 18 10 14 16 -4 6 0 8 10 4 8 -3 30 0 47 6 31 12 32 13 26 58 -3 25 -3 49
1 53 7 6 13 60 14 116 1 14 -2 45 -5 70 -4 25 -7 56 -7 69 -1 13 -4 20 -7 15
-8 -11 -42 -11 -59 -1 -9 6 -10 14 -1 32 6 13 14 23 18 20 3 -2 4 9 2 25 -3
22 2 35 22 53 29 27 31 35 12 59 -11 15 -18 16 -45 7 -20 -7 -30 -17 -29 -28
2 -9 -3 -16 -11 -16 -17 0 -25 41 -10 50 16 11 -9 34 -30 28 -27 -7 -107 31
-121 57 -6 12 -9 32 -6 45 4 14 0 27 -9 35 -35 29 4 78 58 71 11 -2 17 5 17
18 0 15 5 19 16 14 14 -5 15 -3 5 15 -6 11 -16 24 -21 27 -6 3 -10 19 -10 35
0 31 -40 80 -65 80 -8 0 -15 7 -15 15 0 18 -41 83 -74 115 -14 14 -26 36 -26
48 0 12 -3 21 -7 20 -10 -3 -53 34 -53 44 0 5 6 8 13 8 7 0 22 7 33 16 15 12
15 15 2 10 -9 -3 -19 2 -22 10 -8 22 -9 22 19 16 19 -3 25 0 25 14 0 35 -12
64 -26 64 -8 0 -14 10 -14 26 0 22 -2 23 -14 11 -8 -8 -14 -22 -13 -33 2 -14
-5 -20 -25 -22 -18 -2 -28 1 -28 10 0 18 -75 49 -88 36 -7 -7 -12 1 -17 23
-10 44 -26 69 -45 69 -9 0 -30 16 -49 35 -29 32 -38 35 -86 35 -45 0 -55 3
-60 20 -3 11 -16 25 -27 31 -18 10 -20 9 -15 -5 8 -20 9 -20 -38 3 -36 17 -40
18 -52 2 -7 -9 -13 -26 -13 -37 0 -12 -6 -24 -13 -27 -7 -3 -19 -23 -26 -46
-10 -35 -16 -41 -40 -41 -20 0 -31 -7 -39 -24 -6 -14 -21 -26 -34 -28 -13 -2
-22 -9 -21 -15 3 -14 -31 -23 -48 -12 -11 7 -9 10 9 15 12 4 22 14 22 25 0 10
5 21 10 24 17 10 -1 57 -31 82 -15 13 -26 30 -23 37 3 8 -2 20 -11 27 -70 57
-74 64 -63 108 10 38 8 46 -12 73 -18 25 -21 35 -12 49 8 13 8 18 -2 22 -10 4
-12 16 -6 46 9 51 2 91 -16 91 -8 0 -14 6 -14 14 0 8 -8 17 -18 20 -24 8 -60
75 -44 85 6 3 14 26 18 49 6 38 9 41 31 36 16 -4 31 0 44 12 17 15 24 16 39 6
32 -19 47 -14 64 22 20 42 20 52 1 60 -17 6 -21 46 -5 46 6 0 10 -5 10 -11 0
-6 5 -9 12 -7 6 2 20 -4 30 -14 22 -22 38 -23 38 -2 0 8 5 12 10 9 6 -3 10 1
10 9 0 9 7 16 15 16 8 0 15 5 15 10 0 6 23 10 51 10 29 0 69 5 90 12 33 9 39
15 39 39 0 15 5 31 10 34 8 5 8 11 0 20 -8 9 -6 14 8 17 12 3 22 18 26 39 3
18 21 47 39 65 17 17 41 44 52 59 11 15 30 39 43 52 12 14 21 30 20 36 -4 19
34 76 54 83 28 9 68 49 68 69 0 12 5 15 16 11 15 -6 15 -4 3 10 -11 13 -11 18
-1 21 6 3 12 15 12 28 0 12 7 25 15 29 10 3 15 19 15 46 0 22 6 51 14 63 22
36 27 73 12 86 -10 9 -12 21 -5 49 5 20 6 51 3 69 -8 43 3 73 27 73 12 0 17
-4 14 -11 -26 -41 61 -107 133 -100 6 0 12 10 12 21 0 13 5 17 14 14 8 -3 19
3 26 15 6 12 16 21 23 21 7 0 19 13 28 29 14 24 22 28 45 23 37 -6 54 -20 54
-42 0 -11 10 -20 24 -24 13 -3 37 -19 52 -35 15 -17 31 -28 35 -26 4 3 18 -10
32 -29 34 -44 69 -51 93 -19 13 18 25 23 48 21 27 -3 31 -7 34 -35 3 -29 6
-31 38 -30 18 1 34 5 34 8 0 8 59 23 83 21 11 -1 17 5 17 20 0 20 1 20 18 5
24 -22 74 -23 66 -2 -5 12 2 15 29 15 26 0 39 -6 51 -25 21 -31 21 -32 -9 -39
-32 -8 -32 -19 1 -41 28 -18 122 -27 140 -13 15 11 44 -1 44 -18 0 -21 34 -17
55 6 9 10 15 26 12 35 -4 9 -1 15 9 15 8 0 19 11 24 25 5 14 16 28 24 31 9 3
18 14 21 25 4 10 15 19 26 19 10 0 19 5 19 10 0 6 9 19 20 30 16 16 33 20 89
20 49 0 72 4 81 15 7 9 21 13 34 9 14 -3 28 1 35 10 17 20 35 20 50 2 15 -18
61 -27 61 -12 0 6 11 -2 24 -19 21 -25 28 -28 43 -19 10 7 17 19 15 28 -2 10
4 16 17 16 32 0 51 -11 51 -30 0 -15 7 -17 48 -13 26 3 64 14 85 24 45 23 100
25 117 5 6 -8 28 -16 48 -18 31 -2 40 -9 53 -37 9 -20 28 -39 47 -47 30 -12
45 -44 21 -44 -6 0 -9 -6 -6 -14 3 -8 -2 -16 -13 -19 -28 -7 -37 -70 -16 -114
9 -19 14 -38 12 -42 -3 -4 8 -12 24 -18 26 -10 29 -8 34 12 3 13 3 30 0 38 -5
13 12 23 51 31 6 1 18 6 27 10 25 11 88 -12 81 -30 -6 -17 -5 -17 46 1 22 8
41 11 41 7 0 -4 6 0 13 8 16 20 70 55 80 52 4 -1 7 10 7 24 0 14 5 34 10 44 7
13 7 21 0 25 -5 3 -10 19 -10 35 0 16 -3 31 -7 33 -5 3 -8 29 -8 59 0 29 -4
56 -10 60 -5 4 -10 20 -11 35 0 15 -4 36 -9 46 -6 16 -4 17 19 11 19 -4 26 -2
26 8 0 7 9 21 20 31 15 12 20 29 20 62 0 35 4 45 16 45 13 0 15 7 11 35 -4 27
-2 37 12 44 12 7 17 19 14 38 -3 22 5 38 37 72 22 25 40 48 40 53 0 5 5 6 11
3 6 -4 13 1 15 12 3 12 27 27 70 42 48 17 64 27 64 42 0 10 5 19 10 19 6 0 10
8 10 19 0 10 5 32 11 50 9 25 14 29 25 20 11 -9 14 -8 14 2 0 10 3 10 8 3 4
-7 16 -13 27 -15 11 -3 29 -19 40 -36 11 -18 26 -32 33 -33 32 -1 74 -90 42
-90 -6 0 -10 -5 -8 -12 7 -21 51 -15 80 11 23 20 28 30 23 53 -7 31 4 35 49
18 23 -8 26 -7 26 10 0 11 5 20 10 20 15 0 12 26 -5 40 -22 18 -18 39 8 49 19
8 34 18 85 61 7 6 10 15 7 21 -4 5 27 9 74 9 l81 0 -7 46 c-5 37 -3 49 10 59
16 11 16 16 2 48 -8 20 -15 48 -15 62 0 14 -4 25 -8 25 -5 0 -19 9 -31 19 -13
11 -28 22 -34 24 -9 3 -9 8 1 18 6 7 12 22 12 32 0 11 9 21 21 24 18 5 20 11
15 44 -4 25 -2 39 6 41 8 3 2 17 -16 41 -15 20 -25 40 -22 45 3 5 -6 14 -19
20 -14 7 -25 16 -25 22 0 5 -9 10 -19 10 -11 0 -23 5 -26 10 -3 6 -18 10 -32
10 -24 0 -102 59 -112 84 -2 6 -15 25 -28 42 -20 28 -22 35 -11 65 6 19 14 36
17 39 3 3 11 15 18 27 10 18 8 29 -13 69 -16 29 -24 58 -21 73 3 14 -2 35 -10
48 -14 21 -14 23 0 23 9 0 28 -5 42 -12 24 -11 28 -9 50 18 18 23 21 32 12 43
-9 11 -9 15 1 18 6 3 10 9 6 14 -3 5 8 12 25 15 38 8 64 36 64 69 0 14 4 25 9
25 6 0 8 6 5 14 -3 8 2 16 14 19 14 4 30 -6 53 -29 20 -20 37 -31 40 -25 4 6
15 7 29 2 23 -9 32 -3 54 36 10 17 8 27 -8 57 -24 45 -24 56 0 56 27 0 34 67
9 92 -10 10 -22 18 -27 18 -12 0 -1 42 15 55 21 17 22 71 2 84 -25 16 -24 67
2 74 12 3 20 14 20 27 0 15 12 26 44 41 36 16 56 35 56 54 0 2 -7 11 -16 19
-23 24 7 21 34 -3 26 -22 28 -41 5 -41 -9 0 -13 -3 -10 -7 4 -3 0 -15 -9 -25
-13 -13 -14 -21 -6 -31 6 -7 9 -22 6 -34 -4 -15 0 -22 15 -26 12 -3 21 -12 21
-21 0 -9 8 -16 20 -16 24 0 27 -25 4 -38 -14 -8 -12 -15 20 -49 20 -22 36 -47
36 -56 0 -12 5 -13 28 -6 63 21 62 20 51 41 -15 29 -4 33 28 11 15 -11 48 -28
73 -37 25 -10 56 -28 70 -40 14 -13 40 -29 58 -36 28 -11 35 -11 42 0 7 11 12
11 23 2 7 -7 16 -9 19 -7 3 3 3 -6 1 -19 -4 -20 0 -28 21 -37 14 -7 23 -16 20
-20 -3 -5 1 -9 9 -9 8 0 32 -22 53 -50 21 -27 39 -48 41 -46 2 2 1 22 -3 45
-5 34 -11 42 -33 47 -47 10 -51 13 -51 37 0 14 -7 30 -15 37 -17 14 -20 50 -4
50 6 0 9 7 5 15 -3 8 -1 15 4 15 5 0 12 11 16 25 3 14 10 25 15 25 5 0 9 9 9
21 0 15 5 19 15 15 10 -3 17 3 21 20 7 29 -3 45 -15 25 -7 -11 -11 -9 -20 8
-15 27 -7 41 24 41 18 0 22 4 18 20 -3 11 -1 26 4 33 7 8 6 22 -2 41 -8 18
-14 24 -17 16 -7 -21 -68 26 -68 51 0 11 -5 29 -11 41 -10 18 -8 19 13 13 30
-10 58 -34 58 -52 0 -11 7 -10 28 6 30 21 40 19 60 -17 12 -21 11 -24 -7 -29
-24 -6 -28 -23 -6 -23 8 0 15 5 15 10 0 6 7 10 16 10 16 0 16 2 -2 65 -3 15 3
29 22 48 31 31 37 33 54 12 9 -11 16 -12 26 -4 9 7 19 7 36 -3 13 -7 29 -13
36 -13 7 0 22 -13 35 -28 19 -24 36 -33 71 -36 4 -1 6 -7 3 -15 -3 -8 6 -17
27 -23 31 -10 34 -9 44 22 14 38 15 65 3 65 -5 0 -12 11 -15 25 -4 14 -18 31
-31 37 -14 6 -25 17 -25 23 0 17 -37 48 -51 43 -6 -2 -30 14 -52 35 -36 34
-45 38 -76 33 -19 -3 -41 0 -48 6 -10 8 -13 5 -13 -14 0 -24 0 -25 -57 -15
-32 6 -79 10 -105 10 -27 0 -48 3 -48 7 0 4 -8 10 -17 14 -10 3 -24 9 -32 12
-10 5 -11 1 -6 -15 5 -17 2 -21 -15 -21 -13 0 -24 -8 -27 -20 -7 -25 -7 -25
-43 2 -16 12 -33 19 -36 15 -3 -3 -24 5 -45 19 -40 25 -59 30 -59 16 0 -4 5
-13 11 -19 16 -16 -8 -28 -27 -12 -10 8 -13 21 -9 41 5 19 1 37 -9 53 -25 38
-18 53 9 22 20 -22 25 -24 25 -11 0 10 -12 31 -27 46 l-27 28 30 1 c16 1 38 2
49 3 13 1 21 11 27 36 6 30 4 38 -18 58 -14 12 -36 22 -49 22 -17 0 -25 6 -27
23 -2 17 -10 22 -32 22 -15 1 -33 8 -40 16 -6 9 -16 14 -23 12 -6 -2 -17 6
-24 18 -9 17 -9 24 0 27 6 2 11 16 11 31 0 39 20 92 32 85 5 -3 16 3 24 15 8
12 21 21 27 21 18 0 39 118 25 143 -13 25 6 39 44 34 15 -2 25 0 22 4 -5 9 39
33 79 43 28 7 32 22 29 124 0 17 3 32 8 32 12 0 80 68 80 80 0 6 5 10 10 10
24 0 79 47 91 77 l13 33 21 -20 c12 -11 27 -20 33 -20 8 0 10 -9 6 -27 -3 -16
-2 -23 3 -18 4 6 30 11 56 12 27 0 54 6 59 11 7 7 17 7 31 -1 15 -9 21 -9 24
1 3 6 10 12 17 12 9 0 12 9 8 25 -3 16 0 25 8 25 9 0 10 3 1 13 -9 11 -3 16
28 26 26 7 42 19 47 34 4 12 25 38 47 57 71 61 78 70 72 90 -8 24 63 100 74
81 5 -8 21 -2 50 20 47 33 49 49 4 26 -28 -15 -89 -12 -99 4 -12 20 -35 7 -54
-30 -12 -25 -27 -39 -37 -39 -10 0 -25 -1 -33 -3 -11 -3 -16 5 -18 28 -4 36
-27 54 -76 60 -16 2 -34 7 -40 11 -6 5 -22 3 -36 -4 -14 -8 -21 -14 -16 -14 5
0 3 -7 -4 -15 -6 -8 -9 -19 -5 -24 3 -6 1 -16 -5 -23 -40 -48 -50 -63 -50 -74
0 -8 -12 -17 -26 -20 -17 -5 -23 -11 -19 -22 3 -8 0 -19 -7 -23 -9 -6 -9 -13
2 -34 13 -23 12 -27 -9 -41 -17 -12 -21 -22 -16 -41 3 -13 3 -28 0 -33 -7 -11
-53 15 -76 43 -16 19 -18 19 -56 4 l-39 -15 -37 33 c-20 19 -37 42 -37 53 0
29 -12 34 -27 12 -14 -20 -40 -29 -28 -10 7 12 -30 50 -49 50 -7 0 -16 9 -19
20 -3 11 -13 23 -24 27 -10 4 -24 15 -31 25 -7 10 -19 18 -25 18 -7 1 -28 14
-46 30 -24 21 -37 26 -42 18 -4 -6 -19 -13 -32 -15 -24 -3 -53 22 -83 73 -8
14 -23 18 -62 18 -43 0 -53 3 -64 24 -11 21 -10 26 5 37 12 8 14 15 8 20 -6 3
-11 15 -11 25 0 37 -62 75 -84 53z m1111 -325 c-3 -8 -6 -5 -6 6 -1 11 2 17 5
13 3 -3 4 -12 1 -19z m42 -34 c3 -16 1 -17 -13 -5 -19 16 -21 34 -3 29 6 -3
14 -13 16 -24z m-1621 -48 c35 -36 45 -73 15 -57 -10 6 -29 12 -43 15 -30 7
-57 55 -37 68 21 13 31 9 65 -26z m1551 -20 c12 -14 5 -46 -10 -46 -5 0 -9 6
-10 13 -1 6 -4 1 -8 -13 l-7 -25 -19 29 c-19 28 -19 29 0 42 24 18 39 18 54 0z
m-2539 -1850 c-4 -13 -4 -29 1 -39 10 -18 -5 -25 -15 -8 -10 15 -65 19 -70 4
-2 -7 -3 -6 -2 4 0 10 14 20 34 25 24 6 32 13 28 24 -3 7 -1 14 4 14 5 0 7 8
4 18 -5 15 -4 15 10 -2 10 -12 12 -25 6 -40z m-180 -86 c0 -5 -7 -10 -16 -10
-8 0 -12 5 -9 10 3 6 10 10 16 10 5 0 9 -4 9 -10z m-70 -49 c0 -4 -3 -11 -7
-14 -8 -9 -34 13 -28 24 6 9 35 1 35 -10z m70 -59 c0 -14 -11 -21 -26 -15 -21
8 -17 23 6 23 11 0 20 -4 20 -8z m-1160 -692 c0 -5 -4 -10 -10 -10 -5 0 -10 5
-10 10 0 6 5 10 10 10 6 0 10 -4 10 -10z m-320 -54 c8 -3 3 -4 -12 -1 -15 3
-28 0 -30 -7 -5 -13 -38 -4 -38 11 0 6 7 8 15 5 10 -4 15 0 15 11 0 16 2 17
18 3 9 -9 24 -18 32 -22z m1810 -1686 c0 -5 -2 -10 -4 -10 -3 0 -8 5 -11 10
-3 6 -1 10 4 10 6 0 11 -4 11 -10z m-3105 -1650 c3 -5 2 -10 -4 -10 -5 0 -13
5 -16 10 -3 6 -2 10 4 10 5 0 13 -4 16 -10z m-55 -200 c0 -5 -2 -10 -4 -10 -3
0 -8 5 -11 10 -3 6 -1 10 4 10 6 0 11 -4 11 -10z m-45 -488 c6 -4 12 -16 14
-27 3 -20 3 -20 -18 -1 -29 27 -26 50 4 28z m910 -150 c-8 -9 -35 20 -28 31 4
6 11 3 19 -8 8 -10 12 -21 9 -23z m203 -217 c-3 -3 -9 2 -12 12 -6 14 -5 15 5
6 7 -7 10 -15 7 -18z m-523 -615 c-6 -9 -9 -9 -16 1 -10 17 0 34 13 21 6 -6 7
-16 3 -22z m-203 3 c15 -17 21 -53 9 -53 -9 1 -40 70 -31 70 4 0 14 -8 22 -17z
m-552 -752 c0 -9 5 -22 12 -29 22 -22 -20 -14 -55 10 -18 13 -34 24 -37 26
-11 7 24 19 42 14 18 -4 19 -3 9 19 l-12 24 20 -24 c12 -13 21 -31 21 -40z
m-40 -107 c-6 -6 -7 -14 -3 -17 10 -11 -37 -8 -58 4 -29 15 -14 28 31 26 28
-1 36 -4 30 -13z"/>
<path d="M13475 13670 c-3 -5 -1 -10 4 -10 6 0 11 5 11 10 0 6 -2 10 -4 10 -3
0 -8 -4 -11 -10z"/>
<path d="M13577 13585 c-18 -37 -12 -68 15 -78 10 -3 10 -7 -1 -20 -9 -12 -10
-17 -2 -17 6 0 14 14 18 30 3 17 12 30 19 30 17 0 17 -4 0 45 -8 21 -18 41
-23 42 -5 2 -17 -13 -26 -32z"/>
<path d="M11068 13598 c5 -5 16 -8 23 -6 8 3 3 7 -10 11 -17 4 -21 3 -13 -5z"/>
<path d="M13420 13581 c0 -11 5 -23 10 -26 6 -3 10 3 10 14 0 11 -4 23 -10 26
-5 3 -10 -3 -10 -14z"/>
<path d="M13385 13570 c3 -5 11 -10 16 -10 6 0 7 5 4 10 -3 6 -11 10 -16 10
-6 0 -7 -4 -4 -10z"/>
<path d="M13193 13535 c-17 -12 -17 -14 -1 -20 18 -7 64 13 54 23 -12 11 -35
10 -53 -3z"/>
<path d="M13496 13541 c-4 -7 -5 -15 -2 -18 9 -9 19 4 14 18 -4 11 -6 11 -12
0z"/>
<path d="M11375 13309 c-4 -6 -5 -12 -2 -15 2 -3 7 2 10 11 7 17 1 20 -8 4z"/>
<path d="M10340 11570 c0 -5 5 -10 10 -10 6 0 10 5 10 10 0 6 -4 10 -10 10 -5
0 -10 -4 -10 -10z"/>
<path d="M12320 11422 c0 -12 -4 -23 -10 -27 -5 -3 -7 -12 -3 -21 5 -13 8 -13
24 2 23 21 24 37 4 54 -13 10 -15 9 -15 -8z"/>
<path d="M8885 11210 c-2 -4 5 -20 17 -35 15 -19 18 -29 9 -34 -14 -9 14 -37
44 -43 11 -2 19 -9 18 -16 -2 -9 4 -9 23 0 15 7 21 14 15 16 -6 2 -14 21 -17
43 -4 22 -12 39 -19 39 -8 0 -15 4 -17 10 -4 13 -66 31 -73 20z"/>
<path d="M12861 11159 c7 -4 10 -11 6 -15 -4 -4 -2 -13 4 -20 8 -9 2 -21 -22
-43 -18 -17 -38 -31 -45 -31 -10 0 -14 -15 -14 -55 0 -45 -4 -56 -21 -66 l-21
-11 23 -24 c12 -13 32 -27 43 -30 12 -4 24 -12 28 -18 4 -6 10 -7 14 -3 4 3 1
13 -5 21 -14 16 -1 29 21 21 15 -6 17 1 19 56 0 18 8 30 25 38 13 6 24 16 24
23 1 7 2 38 4 70 4 73 -8 93 -58 94 -23 1 -33 -2 -25 -7z"/>
<path d="M8274 10835 c11 -8 22 -12 25 -9 6 6 -19 24 -34 24 -5 -1 -1 -7 9
-15z"/>
<path d="M8577 10779 c7 -7 15 -10 18 -7 3 3 -2 9 -12 12 -14 6 -15 5 -6 -5z"/>
<path d="M8536 10744 c-9 -22 -8 -24 9 -24 8 0 15 6 15 14 0 22 -17 28 -24 10z"/>
<path d="M8966 10583 c-4 -9 -2 -21 4 -27 7 -7 10 -2 10 17 0 31 -5 34 -14 10z"/>
<path d="M6813 9271 l-22 -28 25 -28 c27 -31 30 -45 12 -45 -17 -1 30 -40 47
-40 7 0 25 -13 38 -30 33 -38 46 -38 92 3 42 37 37 50 -26 61 -26 5 -40 2 -49
-9 -16 -19 -69 -20 -76 0 -3 8 1 22 10 30 19 20 19 20 4 48 -7 12 -12 31 -12
41 -1 29 -19 28 -43 -3z"/>
<path d="M7049 9160 c13 -11 30 -20 39 -20 19 0 15 3 -28 24 l-35 17 24 -21z"/>
<path d="M6808 9109 c5 -11 11 -20 15 -20 4 1 12 1 17 1 6 0 10 8 10 17 0 9
-3 13 -6 10 -4 -3 -15 -2 -25 4 -16 8 -17 7 -11 -12z"/>
<path d="M7290 6716 c0 -2 8 -10 18 -17 15 -13 16 -12 3 4 -13 16 -21 21 -21
13z"/>
<path d="M7005 5020 c4 -6 11 -8 16 -5 14 9 11 15 -7 15 -8 0 -12 -5 -9 -10z"/>
<path d="M7110 4900 c0 -5 9 -14 20 -20 22 -12 27 -1 8 18 -14 14 -28 16 -28
2z"/>
<path d="M7335 4520 c3 -5 12 -7 20 -3 21 7 19 13 -6 13 -11 0 -18 -4 -14 -10z"/>
</g>
</svg>
