<?xml version="1.0" standalone="no"?>
<!DOCTYPE svg PUBLIC "-//W3C//DTD SVG 20010904//EN"
 "http://www.w3.org/TR/2001/REC-SVG-20010904/DTD/svg10.dtd">
<svg version="1.0" xmlns="http://www.w3.org/2000/svg"
 width="1051.910322pt" height="484.005662pt" viewBox="0 0 1051.910322 484.005662"
 preserveAspectRatio="xMidYMid meet">
<metadata>
Created by potrace 1.15, written by Peter Selinger 2001-2017
</metadata>
<g transform="translate(-480.000000,1245.000000) scale(0.100000,-0.100000)"
fill="#222222" stroke="none">
<path d="M11295 12430 c-13 -15 -26 -19 -44 -15 -14 3 -54 7 -89 10 -35 3 -68
7 -74 11 -5 3 -2 -8 6 -25 9 -17 21 -31 26 -31 16 0 120 -106 120 -122 0 -8
14 -27 30 -43 17 -16 30 -39 30 -52 0 -37 22 -117 34 -125 16 -11 84 -9 91 2
4 6 12 10 18 9 42 -5 57 2 57 26 0 25 14 33 25 15 11 -18 74 -11 95 10 25 25
26 24 -10 77 -17 24 -30 57 -30 74 0 26 -6 33 -44 50 -24 10 -58 21 -75 23
-17 2 -37 9 -45 15 -7 6 -21 9 -30 5 -15 -6 -22 11 -17 40 1 6 5 22 8 38 5 26
4 28 -29 28 -22 0 -42 -7 -53 -20z"/>
<path d="M11800 12261 c-8 -6 -17 -8 -21 -5 -4 2 -10 0 -14 -6 -3 -5 -14 -10
-24 -10 -14 0 -17 -6 -14 -24 4 -17 0 -25 -15 -28 -11 -3 -25 -2 -32 2 -15 9
-50 1 -50 -12 0 -5 10 -18 23 -28 l22 -19 -22 -16 c-40 -28 -86 -123 -87 -178
-1 -40 2 -51 16 -55 10 -2 16 -8 13 -12 -3 -4 5 -10 16 -13 15 -4 19 -2 15 10
-3 8 1 24 9 35 9 15 11 27 5 38 -7 14 -5 19 9 23 22 5 35 61 21 87 -14 26 -12
33 5 26 8 -3 15 -1 15 5 0 7 10 9 25 5 18 -5 25 -2 25 9 0 8 5 15 10 15 6 0
10 9 10 20 0 11 4 20 10 20 5 0 7 7 4 15 -4 10 0 15 11 15 12 0 16 8 13 33 -2
20 3 37 12 44 18 15 11 17 -10 4z m-50 -101 c0 -5 -4 -10 -10 -10 -5 0 -10 5
-10 10 0 6 5 10 10 10 6 0 10 -4 10 -10z m-10 -30 c0 -5 -5 -10 -11 -10 -5 0
-7 5 -4 10 3 6 8 10 11 10 2 0 4 -4 4 -10z"/>
<path d="M11280 12042 c0 -8 -10 -13 -22 -12 -53 5 -65 0 -66 -22 0 -42 -20
-78 -42 -78 -12 0 -18 -5 -15 -10 3 -6 -5 -14 -18 -19 -13 -5 -33 -21 -44 -35
-25 -32 -67 -49 -113 -47 -37 2 -70 25 -70 49 0 10 -7 12 -26 8 -20 -5 -33 -1
-50 15 -21 20 -27 21 -48 9 -14 -7 -31 -10 -38 -8 -9 4 -14 -7 -16 -36 -2 -30
-9 -47 -28 -62 l-25 -20 21 -27 c13 -16 16 -27 10 -27 -8 0 -10 -10 -8 -24 3
-14 1 -30 -3 -37 -4 -8 -1 -17 7 -23 12 -10 12 -14 -1 -34 -9 -12 -21 -20 -26
-17 -5 4 -9 0 -9 -7 0 -25 -51 -36 -82 -18 -25 14 -28 14 -42 -5 -13 -18 -18
-19 -47 -8 -35 13 -49 10 -49 -13 0 -8 -10 -14 -24 -14 -13 0 -26 -6 -29 -12
-6 -16 -74 -15 -89 0 -6 6 -24 8 -40 5 -20 -4 -33 -1 -39 8 -7 12 -9 12 -9 0
0 -10 -10 -12 -39 -7 -23 3 -42 2 -46 -4 -3 -5 -17 -10 -31 -10 -17 0 -27 -8
-34 -24 -5 -14 -18 -30 -30 -36 -11 -6 -18 -15 -15 -19 6 -10 -18 -21 -46 -21
-13 0 -17 -5 -12 -16 4 -10 0 -20 -10 -26 -10 -5 -17 -19 -17 -32 0 -27 -35
-76 -55 -76 -8 0 -12 -6 -10 -13 4 -9 -7 -12 -40 -11 l-46 2 7 -31 c5 -25 4
-29 -10 -24 -10 4 -15 3 -11 -3 10 -16 -5 -32 -18 -22 -19 16 -74 24 -81 13
-4 -6 -13 -8 -21 -4 -9 3 -15 -1 -15 -11 0 -9 -6 -16 -14 -16 -9 0 -12 -8 -8
-25 3 -20 -1 -27 -24 -36 -16 -5 -37 -17 -46 -26 -10 -9 -25 -13 -34 -9 -15 6
-15 4 1 -20 9 -14 14 -29 10 -32 -8 -8 -35 27 -35 45 0 11 -4 11 -19 1 -16
-10 -23 -9 -39 5 -29 26 -40 21 -67 -33 -18 -35 -31 -50 -46 -50 -11 0 -29 -5
-40 -10 -12 -7 -25 -7 -36 -1 -12 7 -21 3 -34 -13 -9 -11 -31 -29 -48 -39 -28
-17 -31 -17 -31 -1 0 13 -6 15 -27 9 -36 -9 -34 -5 -37 -67 -3 -50 -4 -53 -30
-56 -15 -2 -30 -11 -33 -20 -17 -56 -29 -74 -53 -87 -15 -8 -30 -25 -34 -39
-3 -14 -15 -27 -26 -31 -10 -3 -22 -16 -26 -28 -4 -12 -11 -25 -16 -28 -11 -7
-15 -99 -6 -144 7 -34 66 -162 78 -170 4 -2 5 -16 2 -30 -2 -15 0 -25 7 -25 6
0 16 -11 21 -25 5 -14 16 -25 24 -25 15 0 30 -29 21 -39 -3 -3 -15 0 -25 7
-17 10 -20 10 -20 -3 0 -8 -9 -20 -20 -27 -24 -15 -26 -50 -5 -109 9 -24 13
-54 10 -66 -4 -16 4 -29 31 -51 21 -17 36 -39 36 -53 1 -13 10 -34 21 -46 10
-12 16 -26 12 -32 -7 -12 1 -13 91 -16 42 -1 73 -9 101 -25 45 -25 99 -22 128
6 9 9 36 16 65 17 33 1 50 6 50 15 0 10 5 10 20 2 12 -6 20 -21 20 -36 0 -17
-7 -28 -20 -31 -11 -3 -20 -12 -20 -19 0 -19 16 -18 24 1 4 13 10 14 26 5 16
-9 20 -8 20 5 0 8 6 15 14 15 8 0 16 6 19 13 2 8 19 2 54 -19 42 -27 52 -29
67 -18 10 7 15 17 11 23 -3 7 2 11 14 11 14 0 21 8 23 28 2 21 9 28 30 30 31
4 48 -29 28 -53 -17 -21 -1 -18 39 6 18 11 50 22 70 24 20 2 37 5 39 6 1 1 6
2 11 3 20 2 24 17 11 42 -12 21 -12 27 -1 33 10 6 10 10 2 16 -7 4 -8 12 -3
18 4 7 9 27 11 45 2 24 -2 32 -13 32 -9 0 -22 11 -28 25 -9 21 -8 28 7 45 l18
20 34 -20 c43 -25 53 -25 53 0 0 11 5 20 11 20 8 0 8 5 -1 15 -10 12 -8 18 11
34 l24 20 -37 38 c-21 21 -38 41 -38 44 0 2 17 3 38 1 20 -2 48 1 62 6 18 7
33 6 52 -4 27 -14 46 -5 33 16 -4 6 6 7 25 4 26 -6 30 -4 30 15 0 12 4 19 10
16 6 -4 7 6 3 27 l-6 33 23 -20 c12 -11 24 -18 25 -15 2 3 7 2 11 -2 4 -5 2
-8 -4 -8 -7 0 -12 -7 -12 -15 0 -8 -9 -15 -19 -15 -17 0 -18 -3 -8 -24 7 -13
15 -22 19 -20 5 3 8 -2 8 -10 0 -9 -9 -16 -20 -16 -13 0 -22 -9 -26 -26 -6
-21 -11 -25 -32 -19 -22 5 -24 4 -13 -9 10 -12 9 -18 -6 -33 -11 -11 -25 -17
-31 -15 -7 2 -12 -1 -12 -7 0 -6 15 -11 34 -11 19 0 38 -5 42 -11 3 -6 16 -8
27 -5 33 8 47 -10 35 -45 -8 -24 -13 -27 -24 -18 -11 9 -14 7 -14 -10 0 -12
-6 -21 -15 -21 -8 0 -15 -6 -15 -14 0 -21 106 -126 128 -126 11 0 22 -8 25
-19 2 -10 14 -24 26 -31 20 -10 21 -9 16 17 -5 19 -4 24 3 15 7 -11 12 -6 20
17 17 49 6 66 -42 61 -16 -1 -17 3 -11 27 9 36 11 38 29 24 11 -9 20 -10 36
-1 11 6 18 15 15 19 -7 12 63 -13 77 -27 8 -8 19 -7 40 4 16 8 33 12 38 9 5
-3 12 -1 15 5 4 6 21 8 41 4 26 -5 35 -2 40 10 3 9 10 13 15 10 5 -3 9 2 9 10
0 8 9 18 20 21 11 3 20 15 20 25 0 14 5 17 22 12 17 -4 20 -2 16 15 -4 14 4
26 28 43 19 12 34 31 34 41 0 11 5 19 11 19 6 0 9 6 6 14 -4 10 0 12 14 9 16
-5 19 0 19 32 0 33 -2 36 -22 30 -18 -6 -20 -5 -12 5 19 20 52 2 79 -43 14
-23 25 -35 25 -28 0 13 2 13 13 2 10 -11 10 -14 0 -18 -21 -8 -15 -27 18 -53
17 -14 40 -33 50 -44 15 -16 27 -18 68 -12 35 5 59 2 78 -7 45 -23 73 -30 73
-17 0 14 41 70 52 70 4 0 8 -7 8 -15 0 -10 11 -15 35 -15 19 0 34 -3 34 -7 -4
-24 5 -31 43 -37 34 -6 45 -3 55 10 8 11 21 15 39 11 22 -4 28 0 40 27 13 30
14 30 20 9 3 -13 10 -23 15 -23 5 0 18 -9 30 -21 23 -23 39 -18 19 6 -16 19
-4 18 40 -3 19 -9 36 -25 38 -36 2 -10 0 -16 -6 -12 -6 3 -12 -12 -14 -36 -3
-33 0 -42 14 -46 10 -2 18 -8 18 -14 0 -5 6 -3 14 4 12 11 11 16 -10 36 -27
26 -32 44 -9 36 8 -4 15 -1 15 5 0 6 14 11 31 11 21 0 28 4 23 13 -5 8 -2 8 9
-2 9 -7 17 -10 17 -5 0 5 6 1 14 -8 16 -22 56 -13 56 12 0 10 9 22 20 25 11 3
20 10 20 14 0 4 9 7 20 8 11 1 20 -2 20 -8 0 -5 9 -9 20 -9 26 0 25 22 -1 79
-16 38 -17 47 -6 58 17 17 47 6 47 -17 0 -10 10 -20 22 -23 18 -5 19 -8 9 -21
-15 -18 -11 -20 44 -29 21 -4 36 0 51 14 11 11 48 24 82 30 59 11 62 12 68 45
3 19 4 45 2 58 -3 16 3 34 19 52 27 32 28 35 9 28 -8 -3 -17 -1 -21 5 -9 16
-25 13 -19 -4 7 -18 -27 -27 -86 -21 -36 3 -47 8 -55 28 -10 26 -35 27 -35 2
0 -8 -9 -14 -19 -14 -11 0 -23 -5 -26 -11 -4 -6 -13 -8 -20 -5 -15 5 -25 -14
-25 -50 0 -14 -4 -23 -8 -20 -5 3 -16 -4 -25 -15 -22 -25 -58 -24 -80 1 -20
24 -21 30 -5 30 6 0 19 7 29 16 16 14 16 19 3 56 -7 22 -11 51 -8 65 5 19 2
25 -15 30 -16 4 -19 9 -11 19 8 8 8 19 2 31 -19 36 -23 90 -8 96 7 3 17 26 20
52 4 26 16 55 25 64 10 10 23 31 28 47 5 16 18 31 29 33 27 4 54 31 54 52 0
10 6 24 14 32 11 11 12 17 3 26 -9 10 -8 15 6 25 9 7 17 18 17 23 0 17 33 40
67 48 66 14 54 41 -23 50 -47 5 -51 4 -62 -20 -7 -14 -12 -37 -12 -50 0 -19
-5 -25 -21 -25 -11 0 -17 -4 -14 -10 4 -6 3 -16 -2 -23 -6 -7 -18 -38 -27 -69
-10 -33 -22 -55 -29 -53 -7 2 -36 6 -65 8 -29 3 -61 12 -71 21 -10 9 -20 13
-24 10 -3 -3 -10 4 -17 15 -6 12 -15 21 -21 21 -6 0 -8 -4 -5 -9 3 -5 -1 -12
-10 -15 -25 -10 -54 -7 -54 5 0 7 -11 9 -30 6 -23 -5 -30 -3 -30 10 0 13 -8
15 -47 9 -27 -3 -59 -8 -73 -11 -34 -7 -58 9 -42 28 10 12 9 16 -5 21 -15 6
-14 10 10 32 28 26 34 48 16 60 -8 4 -7 9 2 15 10 6 11 9 2 9 -7 0 -13 5 -13
10 0 6 16 10 36 10 31 0 35 3 29 18 -17 41 -17 52 -1 52 9 0 16 4 16 9 0 13
-30 22 -51 16 -19 -6 -61 23 -53 37 3 4 16 8 30 8 15 0 24 6 24 16 0 9 9 18
19 21 13 3 18 10 14 20 -4 9 0 21 9 27 8 6 20 26 26 45 10 28 9 37 -3 51 -8 9
-15 21 -15 27 0 6 -5 13 -12 15 -6 2 -12 13 -13 24 -1 10 -5 29 -9 42 -6 16
-3 22 8 22 20 0 21 24 1 40 -14 11 -12 15 15 31 16 10 30 23 30 28 0 5 9 13
20 16 14 5 18 11 12 21 -11 21 -3 76 11 67 6 -4 8 0 4 10 -5 12 -1 17 13 17
11 0 21 6 21 13 2 23 4 32 13 56 5 14 4 27 -3 34 -15 15 -14 44 2 50 8 4 7 6
-4 6 -22 1 -59 44 -59 69 0 28 -12 34 -75 38 -36 3 -57 0 -62 -8 -4 -7 -15
-19 -25 -26 -14 -11 -19 -10 -37 9 -12 13 -21 31 -21 41 0 10 -4 19 -10 19
-20 3 -25 4 -37 12 -7 5 -13 15 -13 24 0 8 -9 26 -20 40 -11 14 -20 34 -20 45
0 15 -44 44 -59 38 -2 -1 -8 4 -12 12 -7 11 -9 11 -9 0z m261 -1375 c-8 -8
-16 -6 -29 7 -16 18 -16 18 6 13 13 -3 22 0 23 6 0 7 3 7 6 -1 3 -8 0 -19 -6
-25z m37 -684 c-2 -11 -14 -19 -31 -21 -33 -4 -36 15 -4 28 33 13 39 12 35 -7z
m-110 -35 c-6 -18 -28 -21 -28 -4 0 9 7 16 16 16 9 0 14 -5 12 -12z m-1845
-43 c-6 -17 -25 -15 -31 3 -2 7 5 12 17 12 14 0 19 -5 14 -15z m117 -126 c0
-10 -4 -19 -9 -19 -12 0 -23 29 -15 41 8 14 24 0 24 -22z m40 -35 c0 -8 -4
-12 -10 -9 -5 3 -10 10 -10 16 0 5 5 9 10 9 6 0 10 -7 10 -16z"/>
<path d="M13215 11440 c9 -17 13 -36 10 -43 -4 -7 2 -1 13 13 12 14 20 25 19
25 -1 1 -15 9 -30 19 l-28 17 16 -31z"/>
<path d="M13223 11317 c-27 -30 -48 -69 -44 -85 1 -8 -3 -20 -9 -27 -7 -9 -9
-30 -5 -60 7 -44 8 -45 26 -29 11 10 28 15 44 12 14 -3 25 -1 25 6 1 6 7 -4
15 -22 8 -18 13 -51 11 -72 -2 -22 1 -41 5 -41 20 -3 25 -5 38 -13 11 -7 11
-10 0 -18 -11 -8 -11 -9 1 -5 8 2 27 -4 41 -14 26 -18 27 -18 32 3 4 12 9 19
12 16 4 -3 18 -3 33 1 20 6 31 3 43 -13 14 -17 19 -18 32 -8 12 10 16 9 21 -4
4 -10 2 -22 -4 -28 -17 -17 -11 -36 13 -46 16 -6 18 -9 5 -9 -10 -1 -15 -7
-12 -14 6 -18 -25 -18 -51 -1 -25 18 -35 18 -35 0 0 -8 -6 -16 -12 -18 -9 -3
-7 -13 7 -34 10 -16 20 -33 21 -39 1 -5 5 -18 9 -27 5 -12 2 -20 -8 -24 -8 -3
-13 -13 -10 -23 3 -11 -5 -24 -21 -34 -13 -9 -27 -25 -31 -36 -8 -26 32 -109
56 -116 11 -4 27 -17 35 -30 15 -24 16 -24 48 -5 l33 18 -5 -24 c-2 -13 0 -24
5 -24 10 0 33 -43 33 -61 0 -6 -4 -8 -9 -5 -5 3 -11 -1 -15 -9 -3 -8 -13 -15
-23 -15 -10 0 -27 -11 -37 -25 -17 -22 -21 -24 -35 -11 -18 16 -100 38 -113
30 -5 -3 -16 0 -24 7 -12 10 -18 8 -33 -8 -10 -11 -32 -25 -49 -32 l-30 -12
25 -51 c15 -32 21 -53 14 -57 -6 -4 -6 -12 -1 -20 10 -17 2 -43 -11 -35 -5 3
-9 -3 -9 -13 0 -11 12 -23 30 -30 17 -6 28 -7 24 -2 -3 5 -1 9 4 9 5 0 15 -18
22 -40 10 -30 10 -43 1 -54 -6 -8 -11 -30 -9 -49 2 -40 -15 -67 -43 -67 -15 0
-19 -7 -19 -34 0 -18 -6 -39 -14 -45 -8 -7 -12 -20 -9 -31 4 -14 -2 -22 -21
-30 -17 -6 -26 -17 -26 -30 0 -12 -5 -31 -11 -43 -7 -12 -8 -19 -4 -15 9 9 64
-35 87 -70 12 -19 14 -31 7 -44 -7 -14 -7 -24 1 -33 7 -8 9 -19 5 -25 -4 -6 3
-22 15 -35 20 -21 21 -25 7 -31 -10 -3 -15 -16 -14 -32 2 -21 13 -33 48 -52
65 -35 80 -50 74 -71 -3 -11 -7 -28 -10 -38 -8 -27 69 -56 125 -47 29 5 47 2
66 -10 19 -13 28 -14 37 -5 20 20 99 13 146 -14 23 -14 52 -25 63 -25 13 0 17
-4 12 -12 -5 -8 0 -7 12 2 35 28 43 37 50 64 4 16 13 26 24 26 11 0 22 5 26
11 4 6 19 9 36 5 19 -4 38 0 55 11 24 16 26 16 44 -8 10 -13 19 -28 19 -33 0
-13 40 30 40 43 0 5 -9 13 -20 16 -23 7 -26 25 -8 43 10 10 10 17 0 32 -10 17
-10 20 7 20 10 0 24 -7 31 -15 14 -17 46 -20 55 -5 3 5 17 -2 30 -18 l24 -27
1 27 c0 15 9 33 19 40 17 12 17 16 5 33 -8 10 -14 25 -14 32 0 24 19 13 47
-28 46 -68 61 -80 96 -78 37 3 92 -23 110 -51 7 -13 23 -20 42 -20 32 -1 65
-20 65 -38 0 -6 13 -18 29 -26 25 -13 30 -13 35 -1 4 11 12 12 36 5 17 -5 31
-8 33 -7 6 4 44 -31 58 -53 28 -43 159 -67 178 -32 27 47 28 47 50 28 12 -11
21 -16 21 -12 0 4 9 2 21 -4 23 -13 113 4 136 24 68 60 77 80 42 91 -13 4 -18
12 -15 22 8 20 -11 53 -28 47 -13 -5 -38 17 -35 32 4 26 -4 32 -49 31 -61 -1
-69 5 -98 69 -24 54 -46 73 -99 84 -28 5 -30 9 -33 57 -2 38 -9 56 -27 73
l-25 23 0 -34 c-1 -44 -31 -85 -55 -75 -14 5 -16 9 -7 18 19 19 14 27 -24 34
-19 3 -41 15 -47 25 -7 11 -18 19 -26 19 -10 0 -11 -3 -2 -14 9 -11 6 -18 -14
-34 -26 -21 -34 -38 -12 -27 6 4 -6 -10 -28 -30 -21 -19 -44 -33 -51 -31 -7 3
-15 -2 -18 -10 -3 -9 -10 -12 -16 -9 -5 3 -10 1 -10 -5 0 -21 -54 0 -85 33
-52 55 -111 81 -184 79 -56 -1 -64 2 -68 19 -6 22 -53 45 -62 31 -3 -4 -23
-16 -43 -25 -21 -10 -38 -23 -38 -29 0 -9 -3 -9 -12 0 -16 16 -45 15 -52 0 -3
-9 -9 -7 -20 6 -14 17 -16 18 -16 3 0 -21 -7 -21 -27 -2 -8 9 -13 25 -10 35 3
11 0 20 -5 20 -7 0 -6 5 1 13 6 8 8 17 4 20 -3 4 0 7 8 7 8 0 20 -5 27 -12 8
-8 16 -5 31 13 11 13 19 29 16 36 -2 6 1 13 7 15 19 7 -1 42 -34 61 -21 12
-34 15 -42 7 -17 -17 -36 -11 -46 14 -5 14 -21 33 -35 42 -23 15 -24 17 -8 29
16 12 16 15 -2 49 -19 35 -19 35 1 58 12 13 27 38 34 56 11 29 11 35 -7 55
-11 12 -26 45 -32 72 -7 28 -19 60 -27 73 -17 26 -15 60 3 80 11 11 7 49 -4
38 -2 -2 -16 2 -31 10 -20 10 -28 11 -34 1 -20 -32 -41 40 -28 97 5 24 3 43
-6 62 -8 14 -14 39 -14 54 0 24 -5 29 -37 37 -34 8 -38 13 -41 42 -4 36 -7 35
56 15 9 -3 26 3 37 14 11 10 25 17 31 15 6 -2 11 3 11 11 0 8 -4 13 -8 10 -4
-2 -12 4 -18 13 -6 10 -11 13 -11 7 0 -7 -17 -10 -45 -8 -25 1 -45 -2 -45 -7
0 -16 -18 -10 -40 13 -25 27 -25 35 1 43 16 5 19 14 17 38 -2 24 1 31 12 29 8
-2 12 0 8 3 -10 10 18 62 38 73 21 12 10 52 -15 52 -9 0 -33 17 -54 38 -27 28
-35 43 -31 60 4 15 2 22 -7 22 -8 0 -21 5 -29 10 -12 8 -13 12 -2 19 16 10 30
97 15 88 -6 -4 -10 -18 -10 -33 0 -14 -5 -29 -11 -33 -14 -8 -36 -60 -36 -86
-1 -24 -44 -31 -53 -8 -4 10 -9 11 -19 2 -11 -9 -14 -8 -14 4 0 9 -10 23 -22
31 -22 16 -22 16 9 16 41 0 58 20 38 46 -8 10 -15 15 -15 9 0 -5 -18 8 -39 29
-28 28 -44 36 -59 32 -14 -5 -24 0 -35 16 -8 13 -28 38 -44 55 l-30 33 -20
-23z m607 -1767 c0 -5 -4 -10 -10 -10 -5 0 -10 5 -10 10 0 6 5 10 10 10 6 0
10 -4 10 -10z"/>
<path d="M13488 11289 c17 -18 15 -54 -3 -69 -20 -17 -19 -23 10 -54 29 -31
44 -28 37 9 -2 15 0 25 7 25 6 0 11 18 11 42 0 23 -3 39 -6 35 -4 -3 -21 1
-38 10 -21 10 -27 11 -18 2z"/>
<path d="M13612 11269 c-17 -6 -20 -12 -13 -21 6 -7 20 -24 31 -38 l19 -25 1
23 c0 13 4 21 9 18 5 -4 6 5 2 21 -8 31 -17 35 -49 22z"/>
<path d="M12807 11153 c4 -9 -6 -13 -30 -13 -30 0 -39 -6 -57 -35 -14 -22 -20
-44 -16 -57 4 -17 -6 -32 -42 -65 -25 -24 -52 -43 -58 -43 -7 0 -12 -14 -11
-35 1 -20 6 -35 13 -35 6 0 17 -7 24 -15 7 -8 28 -15 48 -15 35 0 102 -33 102
-51 0 -5 11 -14 25 -19 19 -7 25 -17 25 -41 0 -18 3 -29 7 -26 3 4 12 2 20 -5
7 -6 16 -8 20 -5 3 4 12 2 20 -5 10 -8 12 -8 8 4 -4 9 3 19 19 26 22 10 24 14
15 44 -14 50 -11 66 16 90 14 12 25 30 25 39 0 10 5 30 11 46 10 27 11 27 22
8 7 -11 17 -21 22 -22 6 -1 18 -5 28 -8 14 -6 17 -2 17 22 0 16 5 34 11 40 9
9 7 10 -10 6 -15 -4 -21 -1 -21 11 0 9 7 16 15 16 8 0 21 13 29 29 9 16 24 31
36 34 11 3 20 11 20 17 0 7 -7 10 -16 6 -9 -3 -27 3 -40 13 -19 15 -31 18 -54
11 -18 -5 -32 -5 -36 1 -4 6 -11 6 -20 -2 -11 -9 -14 -8 -14 4 0 10 -6 13 -19
10 -11 -3 -28 4 -41 17 -17 17 -31 20 -69 18 -34 -2 -47 -7 -44 -15z"/>
<path d="M13096 11155 c-3 -8 -1 -15 4 -15 13 0 22 18 11 24 -5 3 -11 -1 -15
-9z"/>
<path d="M5455 11044 c30 -26 40 -30 30 -14 -16 26 6 6 25 -22 12 -18 19 -25
16 -14 -5 13 -2 17 9 12 11 -4 9 3 -7 24 -12 17 -31 30 -42 31 -12 0 -30 2
-40 4 -16 3 -14 -1 9 -21z"/>
<path d="M5610 11029 c0 -14 -7 -19 -26 -19 -16 0 -24 -5 -21 -12 2 -7 11 -12
21 -10 9 2 16 -2 16 -8 0 -5 -4 -10 -10 -10 -5 0 -10 -7 -10 -15 0 -8 -7 -15
-15 -15 -9 0 -12 -6 -9 -15 4 -9 1 -15 -7 -15 -7 0 -26 -12 -41 -27 -15 -15
-28 -21 -28 -15 0 7 -13 12 -30 12 -16 0 -30 -5 -30 -11 0 -20 -26 -38 -41
-28 -11 8 -9 14 13 32 20 16 25 26 18 37 -13 20 -13 43 0 35 6 -3 10 0 10 7
-1 18 -70 60 -87 53 -8 -3 -28 3 -44 12 -25 15 -31 16 -39 4 -11 -18 9 -51 32
-51 9 0 21 -8 27 -17 9 -17 11 -17 25 2 12 16 16 17 17 5 3 -25 6 -34 13 -51
4 -8 6 -28 4 -45 -4 -58 2 -84 18 -84 11 0 14 -5 10 -16 -3 -9 -6 -18 -6 -20
0 -3 -5 -2 -12 2 -8 5 -9 2 -5 -10 5 -13 3 -17 -7 -13 -7 3 -18 1 -24 -5 -7
-7 -16 -6 -30 1 -31 17 -35 14 -29 -23 3 -19 1 -36 -4 -38 -15 -5 1 -38 17
-38 8 0 14 -6 14 -14 0 -8 7 -16 15 -20 8 -3 15 -17 15 -31 0 -14 9 -33 19
-42 11 -9 17 -21 14 -27 -4 -6 3 -3 14 7 24 21 43 22 43 1 0 -14 1 -14 16 0 8
9 24 16 35 16 10 0 19 6 19 13 0 21 55 56 79 50 12 -3 21 -1 21 6 0 6 7 8 17
4 12 -5 14 -3 8 7 -5 8 -3 11 5 8 8 -2 19 -19 25 -37 6 -18 19 -39 29 -47 14
-10 16 -17 8 -27 -17 -20 1 -39 31 -31 15 3 27 11 27 16 0 5 8 8 18 5 9 -2 31
7 49 20 32 23 32 23 43 3 13 -25 82 -60 136 -69 39 -7 42 -6 52 22 11 30 3 69
-18 82 -20 12 -2 96 27 125 l25 25 -31 8 c-20 5 -31 14 -31 26 0 10 -11 24
-25 31 -14 7 -25 19 -25 26 0 8 -6 11 -14 8 -8 -3 -17 -1 -21 5 -4 8 -12 8
-25 1 -15 -8 -23 -3 -44 25 -15 19 -33 35 -40 35 -6 0 -33 14 -59 30 -26 17
-54 30 -62 30 -7 0 -17 9 -20 20 -3 11 -14 20 -23 21 -11 0 -9 4 8 10 27 11
40 26 40 50 0 12 -15 19 -50 26 -46 9 -50 8 -50 -8z m-185 -249 c3 -5 1 -10
-4 -10 -6 0 -11 5 -11 10 0 6 2 10 4 10 3 0 8 -4 11 -10z"/>
<path d="M12380 10985 c0 -17 -9 -19 -43 -6 -16 6 -24 6 -24 -2 -1 -7 -4 -26
-8 -44 l-7 -32 38 6 c22 3 44 9 49 13 6 4 38 7 73 6 39 -2 70 3 80 11 9 7 25
13 35 13 9 0 17 5 17 11 0 6 -11 9 -24 7 -13 -1 -31 3 -40 11 -11 9 -29 11
-61 7 -26 -4 -53 -3 -65 4 -16 9 -20 8 -20 -5z"/>
<path d="M12110 10883 c0 -26 1 -26 14 -8 14 20 12 35 -5 35 -5 0 -9 -12 -9
-27z"/>
<path d="M5300 10870 c0 -5 5 -10 11 -10 5 0 7 5 4 10 -3 6 -8 10 -11 10 -2 0
-4 -4 -4 -10z"/>
<path d="M5285 10840 c-3 -6 1 -13 10 -16 21 -9 26 -2 10 13 -9 8 -16 9 -20 3z"/>
<path d="M13824 10749 c-4 -7 -1 -10 7 -7 8 3 30 -1 49 -8 l35 -14 -25 20
c-28 22 -55 26 -66 9z"/>
<path d="M6070 10380 c-12 -8 -12 -10 2 -15 26 -10 43 -2 26 12 -8 7 -19 8
-28 3z"/>
<path d="M6010 10368 c0 -22 -19 -33 -32 -20 -8 8 -22 -1 -47 -30 -32 -36 -39
-40 -58 -30 -18 10 -20 9 -16 -7 4 -17 -2 -20 -49 -25 -29 -4 -66 -5 -83 -2
-22 3 -37 -3 -57 -22 -23 -21 -30 -23 -42 -12 -13 10 -17 8 -26 -16 -9 -23
-13 -25 -20 -14 -5 8 -13 15 -17 15 -4 1 -18 6 -30 13 -19 11 -22 10 -17 -3 4
-11 0 -15 -16 -15 -16 0 -20 -4 -16 -16 8 -20 -18 -46 -38 -38 -11 4 -16 0
-16 -11 0 -12 -5 -15 -17 -11 -9 4 -19 3 -22 -2 -3 -5 -21 -12 -38 -15 -25 -5
-33 -3 -33 8 0 8 -11 31 -25 51 -14 20 -25 45 -25 55 0 10 -4 21 -10 24 -5 3
-10 2 -10 -3 0 -7 -57 -42 -77 -48 -2 0 2 -15 7 -33 5 -19 5 -42 0 -55 -7 -20
-18 -24 -71 -29 -42 -4 -65 -11 -71 -21 -5 -9 -15 -16 -23 -16 -25 0 -85 -35
-81 -47 3 -6 -4 -13 -15 -16 -10 -3 -19 -9 -19 -14 0 -10 131 -44 142 -37 5 3
5 16 2 28 -5 21 -2 24 33 28 21 3 41 0 45 -6 4 -6 10 -7 14 -3 4 4 14 -2 21
-13 11 -15 24 -20 49 -18 32 2 57 -12 60 -32 1 -6 2 -14 3 -20 0 -5 7 -10 14
-10 6 0 18 -12 25 -27 16 -35 15 -43 -3 -43 -8 0 -15 -6 -15 -14 0 -9 -7 -12
-20 -9 -17 5 -18 3 -7 -21 7 -14 17 -26 24 -26 28 0 24 -40 -6 -69 -17 -17
-31 -34 -31 -39 0 -6 -9 -12 -21 -15 -16 -4 -19 -11 -14 -26 4 -14 1 -23 -9
-27 -17 -7 -22 -49 -6 -59 19 -12 58 7 64 31 4 13 12 24 20 24 7 0 19 7 26 15
8 10 20 13 34 9 57 -18 146 7 146 41 0 19 9 19 32 -1 16 -16 18 -16 24 0 3 9
13 16 20 16 11 0 12 5 5 18 -18 33 52 82 117 82 12 0 27 9 34 20 7 11 21 20
30 20 10 0 23 9 30 20 7 11 18 20 25 20 8 0 10 11 6 34 l-5 35 68 -3 c38 -2
81 -7 97 -11 33 -9 72 14 89 51 8 18 22 26 50 31 24 3 51 17 68 34 26 27 60
31 60 8 0 -5 17 -8 38 -6 64 4 84 55 32 85 -16 9 -30 20 -30 24 0 4 -7 5 -16
1 -16 -6 -72 29 -87 54 -4 7 -16 13 -26 13 -15 0 -19 11 -24 66 -7 72 -19 94
-49 94 -10 0 -30 12 -43 28 -19 21 -24 23 -25 10z"/>
<path d="M12525 10350 c-3 -5 -2 -10 4 -10 5 0 13 5 16 10 3 6 2 10 -4 10 -5
0 -13 -4 -16 -10z"/>
<path d="M12516 10314 c-3 -8 -13 -14 -23 -14 -16 -1 -17 -2 -2 -13 9 -7 19
-21 22 -32 4 -17 5 -17 6 -2 1 10 9 17 21 17 28 0 29 55 1 57 -11 1 -22 -5
-25 -13z"/>
<path d="M12238 10290 c-14 -11 -28 -17 -31 -14 -3 3 -3 -3 0 -15 3 -12 9 -21
14 -21 5 0 6 6 3 13 -3 8 2 14 11 14 10 0 13 -6 9 -19 -3 -12 0 -18 10 -18 9
0 13 -6 10 -14 -6 -15 39 -31 56 -21 16 10 11 22 -9 28 -28 7 -58 56 -42 67 8
4 9 10 3 14 -5 3 -21 -3 -34 -14z"/>
<path d="M6165 10277 c-26 -29 -25 -38 2 -62 28 -24 60 -34 48 -15 -3 6 4 10
17 11 l23 0 -22 11 c-13 6 -23 17 -23 25 0 7 -6 12 -12 11 -7 -2 -12 5 -10 15
3 20 -8 22 -23 4z"/>
<path d="M6220 10261 c5 -11 19 -23 30 -26 11 -3 20 -11 20 -16 0 -5 8 -9 18
-8 10 0 12 3 5 6 -7 2 -13 11 -13 19 0 8 -9 14 -20 14 -11 0 -23 7 -26 15 -4
8 -10 15 -15 15 -6 0 -5 -8 1 -19z"/>
<path d="M12360 10265 c0 -10 10 -15 30 -15 32 0 40 14 14 24 -27 10 -44 7
-44 -9z"/>
<path d="M12417 10218 c-4 -12 -4 -24 -2 -27 3 -2 5 0 5 6 0 6 12 9 28 7 15
-2 20 -1 12 2 -8 4 -20 13 -26 20 -10 12 -13 11 -17 -8z"/>
<path d="M12491 10214 c0 -11 3 -14 6 -6 3 7 2 16 -1 19 -3 4 -6 -2 -5 -13z"/>
<path d="M6387 10214 c-4 -4 -4 -18 0 -32 6 -24 5 -25 -32 -18 -43 8 -41 -5 6
-30 21 -10 28 -20 25 -32 -7 -21 2 -35 32 -51 28 -15 19 -33 -16 -29 -14 2
-27 -2 -29 -9 -5 -14 49 -27 76 -18 16 5 22 1 27 -19 3 -14 12 -30 20 -37 12
-9 14 -5 14 24 0 33 -18 61 -36 55 -5 -2 -10 0 -11 5 -8 22 1 24 37 10 22 -9
40 -22 40 -30 0 -13 17 -18 54 -15 13 2 16 -2 12 -14 -3 -8 -1 -25 5 -36 10
-18 9 -20 -5 -15 -12 5 -16 0 -16 -19 0 -15 4 -23 11 -19 5 4 22 4 37 0 l27
-7 -27 -14 c-16 -8 -28 -21 -28 -29 0 -8 12 -27 28 -42 24 -25 33 -28 75 -25
38 3 47 7 43 19 -3 8 -6 21 -6 29 0 8 -11 19 -24 25 -23 11 -43 59 -25 59 5 0
9 13 9 29 0 20 -6 32 -19 36 -11 3 -22 12 -25 20 -3 8 -16 15 -30 15 -37 0
-56 10 -56 30 0 23 -24 42 -44 34 -11 -4 -16 -1 -16 10 0 9 -4 16 -9 16 -4 0
-6 -11 -3 -25 2 -15 0 -25 -7 -25 -6 0 -11 11 -11 25 0 14 -6 28 -14 31 -7 3
-13 17 -13 31 0 14 -8 30 -17 35 -11 6 -15 16 -11 29 4 10 2 19 -4 19 -5 0
-16 2 -23 5 -8 3 -17 3 -21 -1z"/>
<path d="M6265 10180 c3 -5 8 -10 11 -10 2 0 4 5 4 10 0 6 -5 10 -11 10 -5 0
-7 -4 -4 -10z"/>
<path d="M6342 10011 c-10 -6 -10 -10 3 -21 13 -11 15 -9 15 9 0 24 0 24 -18
12z"/>
<path d="M4800 9928 c0 -4 7 -8 16 -8 8 0 12 -4 9 -10 -3 -5 0 -10 8 -10 12 0
27 19 27 34 0 2 -13 3 -30 3 -16 0 -30 -4 -30 -9z"/>
<path d="M12061 9889 c7 -13 12 -28 11 -33 -2 -4 2 -14 8 -21 8 -10 8 -15 0
-20 -8 -5 -8 -11 1 -21 17 -21 31 -17 24 6 -4 11 -2 20 4 20 6 0 11 7 11 15 0
8 6 15 13 15 9 0 9 2 -1 9 -8 4 -13 11 -13 15 3 19 -1 25 -16 24 -10 0 -26 3
-37 7 -17 7 -17 6 -5 -16z"/>
<path d="M6546 9885 c4 -8 10 -15 15 -15 4 0 6 7 3 15 -4 8 -10 15 -15 15 -4
0 -6 -7 -3 -15z"/>
<path d="M6527 9844 c3 -8 11 -14 19 -14 21 0 17 17 -5 23 -14 3 -18 1 -14 -9z"/>
<path d="M10036 9844 c-12 -31 -6 -54 13 -54 11 0 22 -4 25 -9 6 -9 69 8 82
22 8 7 -22 10 -68 7 -22 -1 -28 3 -28 19 0 25 -16 36 -24 15z"/>
<path d="M12155 9850 c-3 -5 -1 -10 4 -10 6 0 11 5 11 10 0 6 -2 10 -4 10 -3
0 -8 -4 -11 -10z"/>
<path d="M6850 9805 c0 -8 4 -15 10 -15 5 0 7 7 4 15 -4 8 -8 15 -10 15 -2 0
-4 -7 -4 -15z"/>
<path d="M6527 9804 c-11 -11 -8 -64 4 -64 5 0 8 4 5 9 -4 5 -1 11 4 13 7 2 8
12 3 26 -5 13 -12 20 -16 16z"/>
<path d="M6798 9759 c-10 -6 -18 -20 -18 -32 0 -12 -6 -34 -14 -48 -12 -23
-11 -29 5 -50 11 -15 16 -33 12 -50 -3 -15 0 -30 6 -33 14 -9 14 -63 0 -71 -6
-4 -7 -19 -3 -38 4 -18 6 -57 5 -87 -1 -45 -6 -59 -27 -77 -14 -13 -33 -23
-42 -23 -15 -1 -15 -2 2 -15 23 -17 36 -122 17 -134 -7 -5 11 -30 49 -70 33
-35 58 -67 55 -71 -4 -7 30 -27 49 -28 24 -1 38 -94 16 -107 -8 -5 -7 -11 1
-21 6 -7 15 -12 19 -9 4 2 12 -7 18 -20 11 -24 10 -25 -19 -25 -25 0 -29 -3
-21 -13 30 -36 -20 -127 -69 -127 -22 0 -25 -29 -8 -61 8 -16 7 -25 -7 -40
-17 -18 -17 -20 2 -33 10 -8 22 -12 26 -10 4 3 17 0 29 -7 19 -10 20 -13 7
-20 -14 -8 -14 -14 3 -60 11 -28 26 -58 34 -66 17 -17 20 -27 4 -18 -5 4 -19
-1 -30 -11 -17 -15 -20 -29 -18 -93 2 -66 0 -76 -20 -92 l-22 -18 20 -13 c14
-9 21 -23 21 -46 0 -18 11 -49 24 -70 25 -40 74 -92 87 -92 20 0 39 14 39 29
0 9 9 22 20 29 11 7 17 18 14 27 -8 20 19 45 50 45 17 0 26 5 26 16 0 29 24 8
31 -27 8 -38 3 -51 -11 -29 -15 23 -12 5 6 -40 12 -30 20 -38 29 -30 15 13 71
2 86 -16 8 -10 8 -14 0 -14 -6 0 -11 -6 -11 -14 0 -17 40 -29 40 -13 0 7 8 22
18 35 16 20 21 21 49 12 21 -8 35 -21 42 -41 11 -32 14 -34 42 -19 14 8 25 7
41 -5 29 -20 59 -20 52 0 -4 8 -2 15 4 15 5 0 12 -7 16 -15 3 -8 10 -15 17
-15 6 0 9 6 6 14 -3 8 1 17 9 20 9 3 16 -3 20 -19 9 -36 35 -30 65 13 14 21
34 39 45 40 10 1 31 3 46 4 14 2 30 6 34 11 13 13 32 8 59 -17 25 -23 58 -25
71 -5 3 5 21 9 40 9 25 0 34 4 34 16 0 13 3 14 15 4 12 -10 16 -9 21 3 3 9 3
21 -1 27 -3 5 1 10 10 10 9 0 24 18 35 44 11 24 26 48 33 54 7 7 11 27 9 55
-3 34 -9 47 -27 57 -19 10 -21 17 -15 45 4 18 11 38 15 45 4 6 -2 22 -15 35
-14 15 -18 25 -11 30 6 3 8 17 5 32 -6 23 -5 24 15 14 18 -10 21 -9 21 8 0 11
5 23 10 26 6 3 10 21 10 39 0 31 2 33 26 28 25 -4 26 -3 22 22 -4 21 -2 26 9
22 8 -3 17 -6 19 -6 2 0 4 -7 4 -15 0 -8 6 -15 13 -15 15 1 47 24 47 36 0 5 4
15 9 23 7 11 14 9 39 -9 24 -18 39 -22 68 -17 20 4 46 1 58 -5 11 -6 33 -12
48 -14 25 -1 28 2 28 27 0 16 5 29 13 29 7 0 3 8 -8 16 -19 16 -19 16 7 12 15
-3 25 -2 23 2 -2 4 5 17 16 29 11 12 18 25 15 30 -3 5 12 25 34 45 30 27 40
43 40 67 0 28 2 31 26 25 20 -5 30 -1 45 19 13 16 35 27 61 31 22 4 45 15 51
25 7 11 17 19 24 19 15 0 17 16 3 25 -5 3 -10 15 -10 26 0 18 1 18 21 -2 14
-14 29 -19 45 -16 21 4 24 0 24 -24 0 -35 12 -42 72 -45 38 -2 50 2 58 16 12
22 13 41 2 23 -4 -6 -23 -14 -43 -18 -27 -5 -40 -2 -59 14 -21 18 -23 22 -10
31 8 5 21 8 28 5 17 -6 42 5 42 19 0 6 13 17 29 24 18 8 28 19 25 27 -3 7 -1
16 5 20 19 11 -15 35 -46 33 -64 -4 -81 1 -87 29 -4 14 -21 39 -39 56 l-32 29
39 16 c31 12 37 19 33 38 -4 20 0 24 23 24 23 0 30 8 49 55 13 30 26 57 30 59
4 3 8 -20 9 -50 1 -43 -3 -57 -17 -66 -14 -9 -17 -18 -11 -37 4 -14 5 -31 3
-38 -4 -11 14 -27 32 -28 6 0 10 -10 9 -23 -1 -29 14 -29 18 1 2 17 11 23 35
25 20 2 37 12 47 28 10 14 26 24 40 24 29 0 38 29 41 126 1 33 5 66 8 72 4 5
4 18 0 28 -5 13 -3 16 9 12 12 -5 15 1 13 32 -1 20 -5 42 -9 48 -4 7 8 12 31
14 28 2 41 9 48 26 5 12 16 22 23 22 10 0 10 5 2 20 -12 22 -5 44 11 35 5 -4
9 -2 9 4 0 21 -21 21 -42 -1 -31 -32 -74 -49 -102 -42 -21 5 -24 1 -30 -31 -5
-25 -15 -39 -32 -47 -13 -6 -24 -15 -24 -20 0 -5 -5 -6 -11 -3 -6 4 -8 13 -5
21 10 25 -24 28 -45 5 -19 -20 -41 -25 -40 -8 1 10 -48 57 -59 57 -5 0 -15 10
-21 23 -16 28 -37 44 -70 51 -14 3 -30 16 -37 31 -15 33 -15 38 2 32 7 -3 24
2 38 11 19 13 23 22 18 37 -9 24 -74 31 -104 10 -13 -10 -46 -15 -93 -15 -40
0 -73 -4 -73 -10 0 -5 -13 -23 -30 -40 -16 -16 -35 -49 -41 -72 -17 -58 -22
-62 -58 -50 -20 7 -31 7 -31 1 0 -6 -6 -6 -18 0 -12 6 -25 5 -42 -4 -21 -11
-29 -11 -53 1 -24 13 -30 13 -49 -1 -13 -8 -33 -15 -45 -15 -20 0 -22 -4 -17
-27 6 -22 4 -25 -10 -20 -12 5 -26 -2 -44 -21 -30 -31 -57 -31 -65 -1 -5 17
-9 19 -25 10 -11 -6 -22 -8 -25 -4 -10 10 -37 -18 -37 -38 0 -21 -11 -24 -27
-8 -14 14 -103 3 -103 -13 0 -6 -10 -8 -23 -4 -14 3 -39 -2 -62 -14 -22 -11
-40 -20 -42 -20 -1 0 -9 13 -17 28 -20 39 -47 39 -39 0 4 -19 0 -35 -11 -47
-16 -18 -16 -22 -1 -50 12 -23 12 -31 3 -31 -13 0 -38 44 -38 66 0 14 -23 24
-54 24 -13 0 -31 9 -40 19 -10 11 -24 17 -32 14 -7 -3 -30 9 -51 26 l-37 31
-21 -20 c-25 -24 -35 -25 -35 -6 0 24 -27 44 -54 39 -21 -4 -25 -1 -28 23 -2
16 -7 28 -13 27 -5 -1 -17 4 -25 10 -8 7 -4 -5 8 -25 l23 -36 -22 -16 c-20
-14 -21 -19 -12 -65 8 -39 7 -53 -3 -62 -16 -13 -54 5 -54 25 0 9 -9 12 -26 8
-17 -3 -23 -9 -20 -19 3 -8 6 -17 6 -19 0 -2 11 -2 25 2 19 5 25 2 25 -11 0
-12 -6 -16 -20 -12 -27 7 -27 -34 0 -51 19 -12 19 -14 -18 -50 -20 -21 -38
-38 -40 -37 -9 7 24 54 41 59 17 4 18 7 8 20 -9 10 -22 14 -37 10 -32 -8 -57
12 -44 36 7 13 5 21 -5 30 -8 7 -15 22 -15 34 0 11 -9 36 -20 54 -25 41 -25
46 3 39 22 -6 22 -6 2 9 -11 8 -29 22 -40 31 -11 10 -26 16 -32 15 -8 -2 -13
7 -13 20 0 17 -3 19 -12 10 -15 -15 -32 -5 -100 61 -31 31 -58 51 -60 46 -2
-5 -19 -1 -38 10 -26 13 -35 26 -37 46 -1 16 -7 40 -12 54 -6 14 -11 36 -13
48 -2 18 -6 20 -20 12z m2328 -401 c-19 -27 -21 -13 -3 25 8 17 13 22 15 12 2
-8 -4 -25 -12 -37z m-1 -38 c3 -5 -1 -10 -9 -10 -9 0 -16 5 -16 10 0 6 4 10 9
10 6 0 13 -4 16 -10z m-1285 -84 c0 -3 -4 -8 -10 -11 -5 -3 -10 -1 -10 4 0 6
5 11 10 11 6 0 10 -2 10 -4z m1165 -309 c8 -8 10 -19 5 -27 -6 -10 -11 -8 -19
8 -18 34 -11 44 14 19z"/>
<path d="M9976 9760 c17 -17 4 -72 -17 -77 -11 -3 -19 -9 -19 -14 0 -14 21
-22 33 -10 7 7 14 7 23 0 14 -11 34 -4 34 11 0 5 -9 12 -20 15 -11 3 -20 13
-20 21 0 8 5 12 10 9 6 -3 10 0 10 7 -1 16 -24 48 -36 48 -4 0 -3 -5 2 -10z"/>
<path d="M6875 9718 c6 -16 45 -42 52 -35 2 3 -10 15 -26 27 -18 12 -29 16
-26 8z"/>
<path d="M6500 9704 c0 -8 5 -12 10 -9 6 3 10 10 10 16 0 5 -4 9 -10 9 -5 0
-10 -7 -10 -16z"/>
<path d="M6482 9658 c-6 -8 -9 -18 -6 -21 4 -3 8 -56 9 -117 3 -110 2 -112
-19 -105 -11 4 -37 9 -56 10 -19 2 -47 7 -62 10 -17 5 -28 3 -28 -3 0 -5 -20
-13 -45 -16 -33 -5 -45 -12 -45 -24 0 -9 -5 -34 -11 -54 -7 -27 -15 -38 -29
-38 -27 0 -25 -12 7 -46 22 -24 24 -30 11 -32 -15 -3 -15 -6 0 -32 16 -28 16
-30 -3 -45 -20 -16 -20 -16 0 -13 14 2 21 12 23 36 2 24 8 32 22 32 10 0 22 5
25 10 8 13 61 13 86 -1 17 -9 25 -5 54 25 28 30 35 33 45 21 17 -20 40 -19 40
1 0 13 7 15 30 11 27 -6 30 -4 30 17 0 13 7 27 16 30 8 3 12 11 9 17 -4 5 1
16 11 24 13 9 18 24 16 49 -2 27 1 36 13 36 12 0 13 4 6 18 -6 11 -11 38 -12
60 -2 23 -7 42 -11 42 -4 0 -18 11 -30 25 -12 14 -28 25 -35 25 -7 0 -13 9
-13 20 0 11 -6 20 -14 20 -8 0 -16 5 -18 11 -2 7 -8 6 -16 -3z"/>
<path d="M7330 9489 c0 -5 5 -7 10 -4 6 3 10 8 10 11 0 2 -4 4 -10 4 -5 0 -10
-5 -10 -11z"/>
<path d="M9034 9104 c3 -9 6 -21 7 -27 0 -7 4 -3 8 8 9 22 5 35 -11 35 -5 0
-7 -7 -4 -16z"/>
<path d="M9095 9010 c3 -6 12 -10 20 -10 7 0 16 -5 18 -10 3 -6 4 -5 3 1 -1 7
-12 16 -25 20 -14 6 -20 5 -16 -1z"/>
<path d="M7082 7880 c7 -11 16 -20 21 -20 4 0 5 5 2 10 -4 6 5 10 19 10 14 0
26 5 26 10 0 6 -18 10 -40 10 -38 0 -39 -1 -28 -20z"/>
<path d="M6959 7831 c-20 -20 -31 -71 -14 -65 15 6 47 72 37 77 -4 3 -14 -3
-23 -12z"/>
<path d="M6963 7719 c-11 -30 -11 -31 10 -25 12 3 28 6 35 6 22 0 10 45 -13
48 -15 2 -24 -6 -32 -29z"/>
<path d="M7480 7733 c0 -7 4 -13 9 -13 5 0 13 6 19 13 8 10 6 13 -9 13 -10 0
-19 -6 -19 -13z"/>
<path d="M7460 7702 c0 -21 33 -56 43 -46 8 9 -21 64 -33 64 -6 0 -10 -8 -10
-18z"/>
<path d="M7490 7636 c0 -2 8 -10 18 -17 15 -13 16 -12 3 4 -13 16 -21 21 -21
13z"/>
</g>
</svg>
