<?xml version="1.0" standalone="no"?>
<!DOCTYPE svg PUBLIC "-//W3C//DTD SVG 20010904//EN"
 "http://www.w3.org/TR/2001/REC-SVG-20010904/DTD/svg10.dtd">
<svg version="1.0" xmlns="http://www.w3.org/2000/svg"
 width="714.512654pt" height="634.028312pt" viewBox="0 0 714.512654 634.028312"
 preserveAspectRatio="xMidYMid meet">
<metadata>
Created by potrace 1.15, written by Peter Selinger 2001-2017
</metadata>
<g transform="translate(-657.412403,1320.630988) scale(0.100000,-0.100000)"
fill="#222222" stroke="none">
<path d="M6577 13191 c6 -23 28 -28 39 -8 4 6 3 9 -1 4 -5 -4 -16 0 -26 9 -16
15 -17 14 -12 -5z"/>
<path d="M6680 13190 c0 -5 -11 -10 -25 -10 -14 0 -25 -4 -25 -10 0 -5 5 -9
12 -7 7 1 12 -7 13 -18 0 -21 31 -31 53 -17 9 6 10 16 1 40 -10 30 -29 44 -29
22z"/>
<path d="M6700 13100 c-9 -6 -10 -10 -3 -10 6 0 15 5 18 10 8 12 4 12 -15 0z"/>
<path d="M6819 13105 c-3 -2 -19 -5 -37 -7 -18 -1 -32 -8 -32 -15 0 -7 -7 -13
-16 -13 -16 0 -15 -25 2 -25 21 -2 54 -17 54 -26 0 -6 17 -17 38 -26 20 -8 45
-22 54 -30 10 -9 24 -13 33 -10 20 8 53 -52 35 -63 -8 -5 -1 -10 19 -15 17 -4
39 -17 47 -30 24 -36 42 -39 39 -5 -1 16 -7 36 -13 43 -7 8 -9 17 -5 20 3 4 1
7 -7 7 -9 0 -11 14 -8 55 3 30 2 53 0 50 -3 -3 -12 1 -20 7 -8 7 -22 13 -31
13 -9 0 -17 10 -19 22 -3 18 -12 24 -43 29 -22 4 -42 11 -45 15 -5 9 -37 12
-45 4z"/>
<path d="M6830 12960 c0 -5 5 -10 11 -10 5 0 7 5 4 10 -3 6 -8 10 -11 10 -2 0
-4 -4 -4 -10z"/>
<path d="M7333 12813 c46 -7 33 -28 -15 -24 -9 1 -33 -5 -53 -13 -33 -14 -40
-14 -67 0 -22 12 -45 14 -78 10 -36 -5 -50 -3 -60 9 -15 18 -40 20 -40 2 0
-15 -60 -75 -61 -61 -1 15 -19 -48 -28 -100 -11 -62 6 -105 31 -79 15 14 17
13 27 -5 6 -12 10 -27 9 -34 -2 -7 4 -11 12 -10 8 2 40 6 70 9 30 3 62 12 71
20 14 12 17 12 22 -2 4 -8 14 -15 23 -15 10 0 14 5 10 15 -4 13 -2 13 14 5 24
-13 43 -13 35 0 -4 6 1 33 11 60 13 35 24 50 41 55 13 3 21 10 18 15 -10 16
22 11 35 -5 7 -9 19 -14 26 -11 17 7 36 -18 28 -38 -3 -9 -1 -16 5 -16 6 0 11
9 11 20 0 11 7 20 15 20 9 0 15 9 15 23 1 21 1 22 15 3 8 -11 15 -36 15 -56 0
-39 41 -110 64 -110 28 0 34 -24 24 -97 -8 -61 -7 -75 7 -97 9 -14 24 -28 33
-31 25 -9 66 -65 68 -92 1 -28 33 -65 51 -59 23 9 15 -32 -11 -58 -14 -13 -30
-26 -36 -28 -6 -2 -12 -16 -13 -33 -2 -23 4 -32 27 -43 l29 -15 -27 -16 c-14
-8 -27 -25 -27 -36 -2 -26 -2 -27 6 -47 5 -12 -4 -24 -34 -44 -45 -29 -52 -49
-21 -57 13 -3 20 0 20 8 0 9 14 15 37 17 31 2 39 8 47 31 7 19 7 34 -1 46 -16
26 13 90 44 97 13 4 23 11 23 18 0 6 7 23 14 38 10 19 12 37 6 57 -16 56 4 81
65 81 35 0 96 -21 90 -31 -4 -5 1 -9 10 -9 9 0 14 4 11 9 -9 13 21 34 36 25
23 -15 38 -13 38 6 0 10 7 20 15 24 10 3 15 19 15 44 0 24 6 45 16 53 11 9 14
22 10 48 -4 20 -10 56 -14 79 -6 40 -11 45 -47 58 -35 12 -41 11 -48 -2 -8
-13 -11 -12 -25 8 -9 12 -15 23 -13 23 3 0 -1 10 -8 23 -6 12 -18 22 -26 22
-8 0 -15 7 -15 16 0 9 -6 14 -12 11 -7 -2 -24 4 -37 14 -13 11 -37 19 -53 19
-22 0 -31 6 -38 28 -15 42 -26 57 -44 60 -10 2 -16 -3 -16 -14 0 -16 -1 -16
-20 1 -16 15 -20 15 -20 3 0 -8 -10 -19 -22 -25 -18 -8 -26 -5 -43 15 -21 24
-43 32 -92 34 -13 0 -23 6 -23 13 0 7 -7 18 -15 25 -10 8 -12 17 -6 24 7 8 3
23 -11 44 -20 32 -21 32 -96 31 -43 -1 -65 -4 -49 -6z"/>
<path d="M7511 12786 c-9 -11 -6 -12 14 -8 14 2 25 8 25 13 0 14 -26 11 -39
-5z"/>
<path d="M7510 12741 c0 -11 5 -23 10 -26 6 -3 10 3 10 14 0 11 -4 23 -10 26
-5 3 -10 -3 -10 -14z"/>
<path d="M7550 11925 c0 -9 -6 -15 -12 -14 -40 5 -50 -1 -46 -26 3 -14 0 -29
-6 -33 -18 -11 -24 -75 -13 -121 5 -18 2 -24 -15 -29 -20 -5 -20 -5 3 -17 18
-10 24 -23 26 -60 2 -26 -2 -53 -7 -61 -8 -9 -8 -19 -1 -32 9 -16 6 -23 -11
-34 -20 -13 -20 -15 -3 -31 12 -13 14 -21 6 -30 -5 -7 -8 -23 -4 -35 4 -16 1
-22 -11 -22 -9 0 -16 -6 -16 -14 0 -15 21 -26 51 -26 32 0 79 -29 79 -49 0
-26 7 -29 45 -17 34 10 34 12 31 56 -3 29 -8 44 -16 42 -9 -2 -11 11 -6 50 3
29 7 66 9 83 1 19 10 33 24 41 13 6 20 14 17 17 -4 4 -2 13 5 20 9 12 20 12
67 1 47 -11 59 -11 70 1 11 11 11 15 0 24 -8 7 -17 23 -20 36 -4 14 -20 32
-36 40 -26 14 -29 14 -24 0 12 -31 -5 -62 -37 -69 -18 -3 -37 -2 -44 4 -6 5
-15 7 -19 3 -9 -9 -35 28 -29 43 2 6 -3 19 -12 27 -10 11 -13 25 -9 41 3 13 1
33 -5 44 -8 15 -8 23 0 28 6 3 8 16 5 27 -3 12 0 27 5 33 6 7 9 21 7 31 -2 10
3 23 12 30 12 10 9 12 -22 13 -28 0 -38 -4 -38 -15z m-30 -95 c0 -5 -2 -10 -4
-10 -3 0 -8 5 -11 10 -3 6 -1 10 4 10 6 0 11 -4 11 -10z m22 -117 c-6 -3 -10
-8 -7 -12 2 -5 -2 -17 -11 -27 -14 -18 -15 -18 -8 6 8 31 25 53 33 44 3 -4 0
-9 -7 -11z"/>
<path d="M8805 11800 c3 -5 13 -10 21 -10 8 0 14 5 14 10 0 6 -9 10 -21 10
-11 0 -17 -4 -14 -10z"/>
<path d="M8640 11757 c-14 -8 -31 -12 -37 -10 -17 6 -13 -58 4 -64 10 -4 11
-8 2 -20 -10 -11 -8 -20 8 -41 30 -42 34 -60 15 -71 -14 -8 -15 -12 -3 -35 11
-19 11 -29 3 -39 -8 -9 -9 -24 -2 -48 15 -50 13 -59 -12 -59 -22 0 -21 -1 7
-24 34 -27 55 -24 30 4 -11 12 -13 20 -6 24 14 9 53 -12 46 -24 -3 -5 -1 -11
4 -14 8 -5 21 34 26 79 3 24 -22 77 -41 88 -17 9 -19 80 -4 108 8 13 7 25 -1
40 -9 18 -8 24 6 31 15 9 15 11 -2 24 -22 16 -1 19 29 3 32 -17 33 -2 0 31
-35 34 -38 35 -72 17z"/>
<path d="M8782 11745 c-14 -14 -22 -34 -20 -46 3 -21 3 -21 31 4 15 15 27 35
27 47 0 26 -10 25 -38 -5z"/>
<path d="M7862 11593 c-11 -11 -11 -17 -2 -28 17 -20 30 -19 30 3 0 30 -13 42
-28 25z"/>
<path d="M7848 11533 c-12 -3 -18 -14 -18 -32 0 -28 -52 -111 -70 -111 -5 0
-7 -6 -4 -14 3 -8 -4 -19 -16 -26 -12 -6 -19 -17 -17 -24 3 -7 1 -19 -3 -27
-5 -7 -5 -18 0 -24 8 -10 10 -16 10 -35 0 -6 7 -6 18 1 14 9 25 7 52 -10 31
-18 35 -26 36 -63 1 -24 5 -64 9 -90 6 -41 13 -51 44 -70 20 -12 38 -26 39
-30 2 -4 10 -8 18 -8 8 0 14 -10 14 -24 0 -31 47 -83 63 -67 16 16 35 13 40
-6 3 -12 5 -10 6 7 0 14 -8 43 -18 64 -14 27 -17 44 -11 61 6 17 5 27 -6 35
-7 7 -14 21 -14 31 0 10 -13 25 -29 33 -33 18 -41 34 -41 83 0 32 2 35 25 31
14 -3 25 -2 25 3 0 4 8 10 18 13 9 3 22 16 27 28 12 27 56 40 113 33 32 -4 42
-2 42 9 0 8 5 16 12 18 9 3 9 6 0 12 -7 4 -12 2 -12 -3 0 -21 -19 -11 -22 12
-3 19 -10 22 -50 25 -27 2 -48 6 -48 9 0 2 9 17 19 32 12 16 18 36 15 48 -4
13 -1 23 8 26 7 2 4 2 -7 0 -11 -3 -33 -7 -49 -10 -16 -3 -31 -13 -33 -23 -2
-9 -13 -16 -24 -15 -21 1 -79 53 -79 70 0 7 -11 17 -25 23 -27 12 -29 13 -57
5z"/>
<path d="M8580 11340 c-9 -6 -10 -10 -3 -10 6 0 15 5 18 10 8 12 4 12 -15 0z"/>
<path d="M8310 11326 c0 -2 9 -6 20 -9 11 -3 18 -1 14 4 -5 9 -34 13 -34 5z"/>
<path d="M8470 11304 c0 -13 18 -39 24 -34 2 3 -2 14 -10 24 -8 11 -14 16 -14
10z"/>
<path d="M8492 11303 c28 -58 33 -63 59 -63 18 0 32 -7 39 -20 6 -11 15 -18
20 -15 6 4 3 17 -6 30 -9 14 -14 32 -10 40 3 9 0 15 -9 15 -8 0 -15 3 -15 8 0
4 -18 8 -41 10 -22 1 -39 -1 -37 -5z"/>
<path d="M8408 11293 c7 -3 16 -2 19 1 4 3 -2 6 -13 5 -11 0 -14 -3 -6 -6z"/>
<path d="M7627 11255 c-14 -7 -28 -11 -31 -7 -3 3 -6 0 -6 -6 0 -7 -6 -12 -14
-12 -8 0 -16 -7 -20 -15 -3 -8 -12 -15 -20 -15 -8 0 -23 -17 -32 -37 -10 -21
-22 -44 -28 -52 -6 -7 -18 -30 -26 -51 -17 -42 -63 -100 -80 -100 -17 0 -69
-29 -92 -52 -19 -19 -22 -19 -30 -4 -5 9 -16 16 -23 16 -18 0 -18 -5 -5 -31 9
-16 5 -21 -29 -36 -22 -10 -37 -22 -34 -29 2 -7 -5 -22 -17 -34 -16 -16 -19
-25 -11 -33 6 -6 11 -18 11 -27 0 -9 9 -25 20 -35 24 -21 18 -35 -12 -27 -20
5 -21 2 -15 -35 5 -31 3 -44 -11 -56 -28 -25 -17 -83 18 -104 24 -14 28 -22
25 -57 -1 -23 2 -46 7 -52 16 -22 -2 -44 -31 -37 -23 6 -25 5 -12 -10 10 -13
11 -20 1 -31 -6 -8 -17 -13 -24 -10 -15 6 -10 -42 6 -63 12 -15 -1 -62 -23
-84 -25 -25 -24 -49 1 -49 11 0 20 -5 20 -11 0 -8 4 -8 13 -1 13 10 123 9 175
-3 28 -6 33 -3 43 19 7 15 20 26 32 26 13 0 17 5 14 15 -4 9 8 26 31 45 44 37
56 38 48 5 -4 -14 -2 -25 4 -25 15 0 12 -30 -4 -36 -11 -4 -13 -12 -5 -31 8
-21 6 -26 -11 -30 -23 -6 -25 -14 -7 -32 10 -11 10 -13 0 -7 -9 5 -13 0 -13
-12 0 -12 -9 -22 -21 -25 -12 -3 -18 -10 -14 -16 10 -18 -5 -53 -21 -47 -7 3
-16 1 -19 -4 -4 -6 -14 -10 -23 -10 -20 0 -82 -53 -82 -69 0 -6 9 -11 20 -11
11 0 20 5 20 11 0 6 11 8 28 4 20 -4 33 -1 42 10 7 8 19 15 27 15 17 0 9 -35
-13 -61 -20 -22 -17 -29 9 -29 34 -1 56 -23 60 -61 2 -19 9 -45 15 -59 41
-101 45 -112 34 -119 -16 -9 3 -35 20 -28 16 6 42 -28 33 -43 -9 -15 3 -12 31
6 22 15 24 15 18 0 -7 -19 0 -20 27 -6 15 8 19 7 19 -5 0 -9 9 -15 25 -15 16
0 25 6 25 15 0 13 4 14 23 3 12 -7 26 -11 31 -10 4 2 14 -2 21 -8 11 -9 18 -7
31 8 19 22 44 19 86 -10 14 -10 29 -18 33 -18 4 0 18 -12 32 -26 19 -20 31
-25 62 -23 22 2 46 -3 54 -9 11 -9 17 -10 22 -2 4 6 20 8 39 4 25 -4 35 -2 39
10 4 9 13 16 22 16 8 0 15 9 15 19 0 11 6 22 13 24 6 3 2 6 -10 6 -12 1 -24 9
-28 21 -3 11 -13 20 -21 20 -8 0 -14 5 -14 10 0 6 5 10 10 10 6 0 10 6 10 13
0 25 17 39 39 32 25 -8 27 -18 6 -38 -12 -13 -12 -17 3 -34 48 -55 114 -65
125 -21 5 16 11 19 29 15 12 -4 29 0 38 7 14 13 66 24 137 29 17 1 43 12 56
24 14 12 28 19 31 16 3 -4 6 -1 6 5 0 6 7 9 15 6 8 -4 15 -1 15 5 0 5 12 22
27 36 15 14 23 25 17 25 -11 0 -7 46 5 65 4 6 4 26 0 45 -3 19 -7 27 -8 18 -1
-22 -35 -23 -84 -3 -38 16 -50 29 -52 58 -3 35 -40 60 -88 59 -33 -2 -54 5
-81 23 -43 29 -56 31 -56 9 0 -9 -7 -14 -17 -12 -25 5 -27 24 -3 48 20 20 20
21 0 28 -18 7 -18 10 -6 33 7 14 16 36 19 50 7 29 -14 97 -34 110 -10 6 -7 9
13 9 15 0 30 -5 33 -10 4 -6 11 -8 16 -5 5 4 9 -3 9 -15 0 -14 5 -20 13 -16 6
3 20 9 29 12 13 5 16 13 12 30 -5 21 -3 24 20 24 16 0 29 7 33 18 3 9 11 23
17 31 6 7 9 28 7 47 -2 29 1 34 19 34 26 0 34 19 22 51 -5 13 -11 29 -12 34
-1 6 -6 18 -11 27 -6 11 -5 18 4 21 7 3 5 6 -5 6 -22 1 -23 8 -3 27 21 22 19
52 -7 90 -33 48 -56 50 -98 9 -19 -18 -47 -38 -61 -44 -26 -9 -69 -5 -69 8 0
3 -4 12 -8 19 -7 10 -20 6 -57 -14 -47 -27 -48 -27 -62 -8 -8 11 -10 20 -3 22
6 2 3 16 -7 35 -11 22 -18 27 -21 18 -3 -8 0 -17 5 -18 7 -3 5 -16 -5 -36 -9
-18 -15 -42 -13 -55 3 -29 -15 -52 -41 -52 -16 0 -19 -6 -16 -32 2 -25 -1 -34
-14 -36 -11 -2 -18 3 -18 12 0 19 -15 20 -93 4 -52 -11 -59 -15 -64 -40 -6
-29 -17 -36 -28 -18 -3 6 -26 10 -49 10 -26 0 -48 6 -56 15 -10 13 -17 11 -46
-11 -18 -14 -36 -34 -39 -44 -4 -11 -12 -17 -21 -13 -8 3 -14 -1 -14 -11 0
-28 -47 -20 -62 11 -7 16 -21 28 -32 28 -17 0 -33 22 -85 115 -11 19 -36 46
-56 59 -34 23 -35 25 -16 33 12 4 21 12 21 18 0 5 11 10 24 10 36 0 39 14 11
48 -14 16 -25 34 -25 40 0 5 -10 13 -22 16 -22 7 -22 7 -3 16 11 5 17 9 13 9
-11 1 38 51 51 51 15 0 48 34 55 58 4 11 15 22 25 25 11 2 27 21 36 40 16 35
16 37 -4 63 -16 21 -18 30 -10 46 6 11 13 17 16 14 4 -3 19 16 34 42 32 57 70
87 88 69 6 -6 11 -18 11 -26 0 -12 3 -12 12 -3 7 7 20 12 30 12 10 0 18 7 18
15 0 9 9 15 25 15 14 0 25 5 25 11 0 7 8 18 18 25 16 13 16 13 0 14 -10 0 -23
11 -30 24 -7 14 -15 25 -18 24 -13 -2 -50 14 -50 23 0 5 -6 9 -14 9 -8 0 -21
6 -29 14 -12 12 -18 13 -40 1z m-47 -1029 c0 -17 -41 -29 -54 -16 -7 7 -4 10
7 10 10 0 20 7 23 15 7 17 24 10 24 -9z m260 -66 c-12 -8 -14 -31 -8 -95 2
-22 9 -31 28 -35 21 -5 22 -7 8 -13 -10 -3 -20 -2 -24 4 -7 12 -66 2 -75 -13
-3 -5 -12 -1 -20 8 -11 13 -11 18 -2 21 9 3 9 10 -3 28 -17 27 -2 44 21 25 12
-10 15 -9 15 4 0 22 51 86 63 79 5 -3 4 -9 -3 -13z m95 0 c3 -5 1 -10 -4 -10
-6 0 -11 5 -11 10 0 6 2 10 4 10 3 0 8 -4 11 -10z m139 -459 c6 -10 -16 -61
-26 -61 -5 0 -8 9 -8 19 0 11 -4 23 -10 26 -5 3 -10 10 -10 16 0 11 47 12 54
0z m280 -96 c-4 -8 -8 -15 -10 -15 -2 0 -4 7 -4 15 0 8 4 15 10 15 5 0 7 -7 4
-15z m-44 -111 c0 -3 -7 -12 -15 -21 -12 -12 -13 -18 -4 -29 8 -10 8 -14 0
-14 -11 0 -15 13 -12 38 1 6 -3 12 -9 12 -5 0 -10 5 -10 10 0 6 11 10 25 10
14 0 25 -3 25 -6z"/>
<path d="M9224 11161 c4 -5 1 -11 -6 -13 -7 -3 -8 -7 -2 -11 14 -8 38 9 30 22
-4 6 -12 11 -17 11 -6 0 -8 -4 -5 -9z"/>
<path d="M9257 11092 c2 -11 0 -23 -6 -26 -6 -4 -11 -1 -11 6 -1 7 -9 3 -20
-10 -16 -19 -25 -22 -53 -17 -29 6 -35 3 -45 -20 -7 -14 -12 -35 -12 -45 0
-13 -12 -25 -34 -34 -36 -15 -55 -60 -30 -70 16 -6 19 -56 5 -56 -5 0 -23 -12
-40 -26 -17 -14 -31 -22 -31 -18 0 4 -5 3 -11 -3 -18 -18 7 -55 32 -48 11 4
19 2 19 -4 0 -6 -6 -11 -14 -11 -19 0 -31 -83 -15 -107 9 -15 8 -26 -5 -51 -9
-18 -12 -32 -6 -32 5 0 10 6 10 13 0 9 10 12 32 9 26 -4 30 -2 25 12 -5 12 1
19 18 26 14 5 30 22 35 36 10 26 11 26 30 9 24 -21 66 -13 75 14 3 11 12 22
21 25 8 3 19 17 24 31 9 23 15 25 70 25 35 0 60 4 60 11 0 5 5 7 10 4 6 -4 19
13 30 37 19 42 19 43 0 50 -11 4 -20 17 -21 30 -3 73 -11 114 -34 170 -27 67
-40 81 -68 72 -10 -3 -24 -1 -32 6 -11 9 -12 7 -8 -8z"/>
<path d="M7105 10840 c3 -5 1 -10 -4 -10 -6 0 -11 -6 -11 -14 0 -17 27 -29 35
-16 6 10 -11 50 -21 50 -3 0 -2 -4 1 -10z"/>
<path d="M8072 10826 c3 -32 22 -45 31 -22 3 8 -3 22 -15 32 -19 18 -20 18
-16 -10z"/>
<path d="M8072 10758 c-14 -14 -16 -54 -2 -63 5 -3 7 -11 4 -18 -2 -7 4 -17
14 -23 16 -11 17 -7 12 47 -6 65 -11 74 -28 57z"/>
<path d="M10151 10699 c8 -16 14 -18 22 -10 9 9 8 14 -3 21 -24 16 -31 11 -19
-11z"/>
<path d="M10595 10690 c-4 -6 -13 -9 -21 -6 -7 3 -16 1 -19 -4 -4 -6 -16 -10
-29 -10 -14 0 -28 -10 -36 -25 -8 -14 -24 -28 -37 -31 -12 -4 -21 -10 -18 -14
3 -5 -4 -8 -16 -7 -12 1 -37 20 -56 42 l-34 40 -19 -23 c-11 -14 -21 -18 -25
-12 -4 6 -15 8 -25 5 -10 -3 -21 -1 -25 5 -11 18 -28 11 -22 -10 3 -13 0 -20
-10 -20 -10 0 -13 -5 -8 -17 4 -10 10 -26 12 -35 3 -10 15 -18 27 -18 33 0 46
-14 49 -48 1 -18 7 -32 13 -32 9 0 38 -26 109 -99 26 -27 31 -29 45 -16 9 8
26 15 37 15 12 0 24 7 27 16 4 12 13 14 31 10 18 -5 34 0 55 15 28 21 46 26
98 28 17 1 27 10 35 31 6 17 17 30 25 30 7 0 10 5 7 10 -4 6 -11 7 -17 4 -7
-5 -9 3 -5 22 4 23 -3 39 -36 81 -23 29 -48 52 -56 53 -8 0 -22 7 -32 16 -12
11 -19 12 -24 4z"/>
<path d="M8702 10563 c4 -21 -62 -69 -73 -52 -4 8 -9 4 -14 -10 -3 -11 -12
-21 -20 -21 -7 0 -15 -6 -18 -12 -6 -17 11 -48 25 -48 7 0 7 4 0 13 -8 9 1 12
39 14 27 0 49 -3 49 -8 0 -5 6 -9 14 -9 8 0 18 -4 21 -10 6 -9 0 -19 -33 -55
-10 -11 -10 -15 -2 -15 7 0 21 12 32 26 16 19 27 24 44 20 13 -4 35 -4 49 0
21 5 24 11 19 33 l-5 26 21 -24 c16 -18 24 -21 32 -13 7 7 20 12 30 12 12 0
18 7 18 21 0 15 4 19 16 15 27 -10 35 4 14 26 -17 19 -22 20 -50 8 -28 -12
-34 -11 -63 11 -17 12 -43 22 -58 21 -16 -1 -36 7 -53 23 -32 29 -38 31 -34 8z"/>
<path d="M9085 10540 c-10 -11 -31 -20 -46 -20 -38 0 -51 -26 -33 -68 12 -30
12 -32 -3 -30 -11 2 -19 -5 -21 -17 -3 -11 -12 -25 -21 -31 -9 -7 -13 -16 -9
-20 4 -4 -4 -20 -17 -36 -14 -16 -25 -40 -25 -53 0 -14 -9 -29 -20 -35 -11 -6
-23 -22 -26 -36 -3 -13 -14 -29 -23 -34 -21 -11 -17 -69 6 -87 13 -10 12 -14
-6 -32 -12 -12 -21 -32 -21 -46 0 -16 -6 -25 -15 -25 -13 0 -15 -9 -9 -50 5
-39 4 -50 -7 -50 -44 0 -97 -95 -60 -108 8 -3 11 0 7 7 -4 6 -1 11 8 11 9 0
16 7 16 15 0 23 41 40 95 40 47 0 50 1 47 25 -2 23 -1 24 11 8 15 -20 57 -25
57 -7 0 21 88 2 122 -26 37 -31 71 -46 114 -50 17 -2 77 -27 135 -57 98 -50
104 -55 107 -86 4 -37 -14 -66 -35 -58 -8 3 -15 -4 -19 -20 -9 -34 -41 -55
-69 -44 -16 6 -29 4 -41 -5 -11 -8 -25 -15 -31 -15 -7 0 -26 -8 -42 -18 l-29
-18 34 -23 35 -24 29 21 c17 13 31 18 35 12 4 -6 18 -10 33 -10 62 1 106 -15
128 -47 13 -20 25 -28 31 -22 6 6 18 0 33 -16 23 -24 47 -35 35 -15 -3 6 1 10
9 10 10 0 16 9 16 25 0 22 3 24 33 19 20 -4 44 -20 65 -45 19 -22 42 -39 51
-39 10 0 29 -9 43 -19 18 -15 43 -20 95 -22 39 -1 76 1 82 6 8 4 18 -1 27 -13
8 -12 21 -19 28 -16 19 7 58 -36 46 -51 -6 -7 -2 -15 11 -23 20 -13 27 -52 8
-52 -6 0 -8 -15 -4 -42 3 -24 7 -50 8 -58 4 -27 19 -42 38 -37 13 3 21 -3 28
-23 5 -16 23 -36 39 -44 16 -8 32 -26 36 -40 3 -14 20 -34 36 -46 17 -12 28
-25 25 -30 -3 -5 -1 -11 5 -15 17 -11 11 -43 -10 -50 l-20 -6 20 -29 c17 -24
18 -29 5 -40 -29 -24 24 -119 66 -120 21 0 32 -9 49 -42 l22 -42 -24 -18 c-21
-16 -21 -18 -4 -18 11 0 26 -7 35 -15 9 -8 29 -26 44 -39 16 -14 26 -30 22
-36 -4 -7 5 -25 20 -40 27 -28 29 -28 56 -14 16 8 29 18 29 23 0 4 10 13 23
18 19 9 28 29 47 98 17 63 29 89 41 92 23 6 69 97 62 123 -4 16 1 21 24 26 46
9 65 50 60 129 -2 36 0 68 5 71 4 3 8 17 8 32 l1 27 23 -28 c19 -23 28 -27 50
-21 28 7 42 -5 72 -61 6 -11 17 -18 25 -17 8 2 33 -7 56 -19 40 -22 44 -22 59
-7 15 15 19 15 40 1 15 -10 24 -11 24 -4 0 25 17 8 43 -41 54 -103 78 -138 96
-138 10 0 30 -9 44 -20 14 -11 30 -20 36 -20 6 0 11 -8 11 -17 0 -9 3 -13 6
-10 4 3 18 -3 32 -13 13 -11 30 -20 38 -20 7 0 36 -20 64 -44 76 -65 108 -78
173 -70 53 6 57 5 88 -27 18 -18 34 -28 36 -22 6 18 40 3 51 -23 19 -40 49
-16 43 34 -1 7 5 19 13 27 13 14 16 13 24 -1 6 -11 11 -13 16 -5 4 6 4 11 1
11 -4 0 1 7 10 16 9 10 12 20 7 23 -5 3 -15 16 -21 29 -8 15 -18 21 -28 18 -9
-4 -24 2 -35 14 -12 13 -27 19 -38 15 -10 -3 -21 -2 -24 3 -13 21 9 49 59 72
29 14 51 28 48 33 -2 4 3 7 12 7 9 0 19 -9 22 -20 6 -22 43 -28 43 -7 1 28 19
-20 25 -65 8 -54 20 -67 42 -45 12 11 12 19 4 35 -15 29 -14 48 5 66 14 15 13
17 -15 27 -31 11 -53 50 -32 57 6 2 11 15 11 28 0 13 4 24 10 24 5 0 -2 16
-15 37 -23 33 -24 38 -9 54 12 13 13 22 5 36 -15 28 0 46 30 34 18 -6 30 -5
44 5 10 8 30 14 44 14 15 0 21 4 15 8 -7 4 -9 21 -7 40 6 37 21 40 76 17 48
-20 48 -19 36 12 -5 14 -7 33 -4 41 10 25 -7 91 -24 97 -17 5 -56 73 -47 82 2
3 13 0 24 -6 16 -8 25 -4 50 22 18 18 32 38 32 45 0 7 7 12 15 12 8 0 24 5 34
12 18 11 18 13 3 24 -9 6 -32 9 -53 7 -33 -5 -42 -1 -67 26 -23 26 -34 31 -55
26 -25 -7 -25 -6 -17 30 8 35 6 38 -72 120 -77 80 -95 90 -127 70 -5 -3 -16 2
-25 11 -9 8 -20 13 -25 10 -5 -4 -31 -2 -58 3 -26 6 -76 12 -109 14 -54 4 -61
2 -57 -13 5 -21 -24 -35 -42 -20 -8 7 -18 4 -33 -10 -12 -11 -30 -20 -42 -20
-11 0 -23 -7 -26 -15 -4 -10 -19 -14 -46 -13 -30 1 -48 9 -74 34 -19 19 -34
30 -34 26 0 -4 5 -13 11 -19 8 -8 5 -15 -9 -24 -18 -13 -22 -19 -22 -36 0 -3
-9 2 -20 12 -11 10 -20 14 -20 9 -1 -5 -11 3 -23 17 -22 27 -67 48 -67 32 0
-5 -15 -15 -34 -21 -28 -10 -39 -10 -55 0 -23 14 -34 45 -17 51 7 3 5 11 -6
23 -17 18 -18 17 -18 -18 l0 -37 -44 3 c-24 2 -48 6 -55 10 -6 4 -11 2 -11 -4
0 -7 -6 -10 -12 -7 -7 2 -12 9 -11 15 4 17 -38 36 -73 33 -18 -1 -35 3 -39 8
-3 6 -12 8 -18 4 -7 -4 -25 -6 -40 -4 -26 2 -28 1 -17 -18 9 -18 8 -21 -7 -21
-13 0 -15 -2 -5 -8 9 -6 10 -16 3 -34 -5 -14 -7 -29 -4 -32 4 -3 -1 -6 -10 -6
-11 0 -17 -8 -17 -25 0 -14 -4 -25 -10 -25 -5 0 -10 -7 -10 -15 0 -8 -6 -15
-14 -15 -7 0 -19 7 -26 15 -7 8 -19 15 -26 15 -8 0 -26 14 -41 30 -14 17 -32
30 -39 30 -6 0 -14 10 -17 23 -5 18 -13 22 -44 21 -62 -1 -65 -3 -58 -23 3
-11 1 -22 -5 -26 -5 -3 -8 -21 -6 -39 7 -54 -17 -68 -51 -31 -26 30 -70 29
-76 -1 -2 -12 1 -28 6 -33 6 -6 7 -14 3 -18 -4 -4 -11 -2 -15 5 -4 7 -15 10
-24 6 -10 -3 -24 -1 -32 6 -20 16 -79 -17 -83 -48 -2 -12 -12 -27 -23 -32 -10
-6 -19 -17 -19 -25 0 -8 -11 -17 -25 -21 -29 -7 -31 -16 -10 -34 22 -18 18
-37 -7 -43 -21 -6 -21 -7 -3 -27 21 -23 13 -39 -9 -21 -11 9 -14 28 -12 67 2
30 -1 54 -5 54 -15 0 -10 47 6 60 8 7 15 19 15 26 0 8 4 14 9 14 5 0 19 16 32
36 16 26 19 38 10 43 -8 5 -6 13 8 25 17 16 18 20 6 32 -19 19 -25 18 -25 -7
0 -12 -8 -23 -20 -26 -11 -3 -20 -10 -20 -15 0 -15 -53 1 -63 18 -7 12 -11 12
-32 -2 -13 -9 -29 -13 -35 -9 -5 3 -13 -1 -16 -9 -9 -24 -29 -19 -55 14 -13
16 -32 30 -41 30 -11 0 -21 13 -27 36 -13 47 -88 147 -104 138 -7 -4 -9 -4 -5
0 3 4 -1 16 -9 26 -13 14 -21 16 -53 8 -33 -9 -47 -6 -94 16 -30 14 -61 35
-69 47 -15 20 -38 35 -129 84 -31 17 -50 34 -54 50 -3 14 -10 25 -15 25 -5 0
-13 10 -18 23 -5 12 -25 31 -45 42 -20 11 -36 27 -36 37 0 9 -4 20 -10 23 -15
9 -12 52 4 67 12 11 11 17 -6 41 -15 20 -19 41 -17 81 2 45 -2 59 -22 82 -13
16 -37 35 -52 42 -17 7 -36 29 -48 55 -10 23 -26 51 -34 61 -19 25 -19 46 0
46 8 0 15 6 15 14 0 24 -16 27 -35 6z m545 -1010 c0 -22 -24 -27 -36 -8 -5 7
-2 9 9 5 11 -4 14 -2 10 9 -3 7 0 14 6 14 6 0 11 -9 11 -20z m940 -171 c0 -6
-4 -7 -10 -4 -5 3 -10 11 -10 16 0 6 5 7 10 4 6 -3 10 -11 10 -16z m40 -114
c11 -13 10 -14 -4 -9 -9 3 -16 10 -16 15 0 13 6 11 20 -6z m1450 -446 c0 -5
-4 -9 -10 -9 -5 0 -10 7 -10 16 0 8 5 12 10 9 6 -3 10 -10 10 -16z"/>
<path d="M10340 10380 c0 -5 -6 -7 -13 -4 -22 8 -50 -32 -43 -60 5 -21 2 -25
-24 -31 -16 -4 -39 -4 -50 0 -14 4 -20 2 -20 -9 0 -8 -11 -27 -24 -43 -20 -24
-22 -30 -11 -48 25 -39 27 -62 6 -68 -14 -3 -18 -11 -14 -26 3 -11 9 -19 13
-16 9 6 21 -35 14 -47 -3 -4 -11 -8 -19 -8 -17 0 -22 -18 -15 -58 5 -35 25
-40 25 -6 0 16 4 19 24 16 20 -4 23 -2 19 16 -3 12 -1 23 4 24 7 3 6 17 -1 43
-8 30 -8 41 1 44 16 5 68 60 68 71 0 6 5 10 12 10 6 0 18 7 27 15 9 8 27 24
40 36 16 15 26 19 29 11 2 -7 8 -10 12 -7 5 3 7 12 4 20 -4 8 1 18 10 21 22 8
20 29 -4 57 -11 12 -27 30 -35 40 -16 19 -35 23 -35 7z"/>
<path d="M12981 10334 c0 -11 3 -14 6 -6 3 7 2 16 -1 19 -3 4 -6 -2 -5 -13z"/>
<path d="M13006 10264 c-5 -14 -4 -15 9 -4 17 14 19 20 6 20 -5 0 -12 -7 -15
-16z"/>
<path d="M12945 10244 c-8 -8 -24 -16 -34 -17 -11 0 -18 -4 -15 -8 2 -4 -7
-10 -21 -13 -14 -4 -25 -14 -25 -22 0 -12 -5 -14 -17 -9 -34 14 -58 11 -55 -7
2 -10 -2 -18 -7 -18 -13 0 6 -55 25 -71 8 -6 14 -21 14 -33 0 -11 9 -36 20
-54 24 -39 24 -42 6 -42 -9 0 -18 -22 -26 -62 -6 -34 -20 -79 -31 -100 -10
-20 -19 -55 -19 -78 0 -27 -7 -47 -20 -60 -11 -11 -17 -20 -13 -20 4 0 -7 -13
-25 -29 -33 -31 -39 -50 -22 -67 8 -8 8 -19 0 -38 -5 -15 -10 -43 -10 -62 0
-29 -3 -34 -23 -34 -18 0 -26 -8 -34 -35 -10 -32 -9 -35 8 -35 12 0 19 7 19
20 0 31 19 24 60 -20 20 -22 42 -40 47 -40 6 0 14 -11 17 -24 6 -23 7 -24 127
-22 119 1 120 1 116 24 -3 15 1 22 11 22 8 0 12 3 9 6 -3 4 2 18 13 31 10 13
17 30 14 37 -3 8 7 18 25 26 17 7 28 16 25 21 -2 5 7 11 22 15 14 4 22 9 17
13 -4 3 -9 25 -11 48 -3 31 1 46 16 61 21 21 21 66 1 104 -9 17 -8 24 5 33 18
13 22 50 6 60 -5 3 -14 23 -20 44 -6 22 -26 62 -45 90 -20 28 -33 51 -30 51 3
0 2 8 -4 17 -5 10 -5 26 0 41 8 21 3 29 -38 68 -27 24 -54 44 -61 44 -7 0 -20
7 -29 15 -14 14 -14 18 1 34 16 18 15 19 -9 25 -14 4 -25 14 -25 22 0 13 6 15
27 9 15 -3 31 -12 35 -18 12 -19 9 -37 -6 -37 -9 0 -12 -7 -9 -21 5 -16 11
-19 30 -14 15 3 25 1 29 -9 13 -33 79 9 93 58 6 24 13 30 29 29 26 -3 27 0 6
21 -17 18 -89 22 -99 6 -9 -15 -52 -12 -58 4 -3 8 -1 16 6 19 6 2 4 6 -6 10
-9 3 -23 -1 -32 -9z m44 -201 c-8 -9 -16 -10 -22 -4 -13 13 0 31 19 24 11 -4
12 -8 3 -20z m-49 -48 c0 -8 -4 -15 -10 -15 -5 0 -10 7 -10 15 0 8 5 15 10 15
6 0 10 -7 10 -15z"/>
<path d="M7398 10083 c-21 -5 -23 -14 -6 -31 17 -17 23 -15 36 13 12 26 9 28
-30 18z"/>
<path d="M7120 10020 c0 -11 7 -20 15 -20 8 0 15 6 15 14 0 8 -7 16 -15 20
-10 4 -15 -1 -15 -14z"/>
<path d="M10128 9890 c-33 -10 -128 -63 -128 -71 0 -4 8 -10 18 -13 30 -11 62
-33 77 -52 10 -14 17 -16 25 -8 8 8 7 14 -4 23 -13 11 -13 15 -2 27 8 7 16 19
18 25 3 9 9 9 26 0 19 -10 22 -9 22 7 0 11 -7 25 -15 32 -9 7 -14 19 -11 27 3
7 4 13 3 12 -1 0 -14 -4 -29 -9z"/>
<path d="M7225 9790 c-3 -5 1 -10 10 -10 9 0 13 5 10 10 -3 6 -8 10 -10 10 -2
0 -7 -4 -10 -10z"/>
<path d="M7262 9764 c-7 -8 -8 -14 -3 -14 10 0 25 19 20 25 -2 1 -10 -3 -17
-11z"/>
<path d="M10096 9693 c-6 -14 -5 -15 5 -6 7 7 10 15 7 18 -3 3 -9 -2 -12 -12z"/>
<path d="M10080 9634 c0 -6 5 -15 10 -20 6 -6 13 -21 15 -34 2 -13 9 -28 15
-34 5 -5 10 -17 10 -25 0 -9 8 -25 17 -36 15 -19 15 -19 10 12 -4 19 -2 35 5
39 7 4 5 10 -6 16 -10 6 -15 16 -11 27 3 10 -1 24 -10 31 -8 7 -15 9 -15 5 0
-5 -9 0 -20 10 -11 10 -20 14 -20 9z"/>
<path d="M11855 9620 c3 -5 11 -10 16 -10 6 0 7 5 4 10 -3 6 -11 10 -16 10 -6
0 -7 -4 -4 -10z"/>
<path d="M10493 9542 c-18 -12 -34 -60 -22 -68 13 -8 15 -5 34 39 15 36 12 44
-12 29z"/>
<path d="M9130 9471 c0 -5 9 -11 19 -14 14 -3 18 -1 14 9 -6 15 -33 19 -33 5z"/>
<path d="M10515 9449 c-4 -6 -5 -13 -2 -16 7 -7 27 6 27 18 0 12 -17 12 -25
-2z"/>
<path d="M8996 9350 c6 -26 3 -31 -22 -40 -16 -6 -41 -17 -55 -25 -14 -8 -29
-11 -33 -8 -3 4 -14 8 -24 9 -9 1 -26 5 -36 9 -14 6 -17 5 -11 -4 4 -8 3 -16
-4 -20 -13 -9 -15 -43 -5 -95 6 -35 5 -39 -10 -33 -10 4 -30 10 -44 14 -23 5
-25 4 -15 -9 11 -12 9 -18 -6 -32 -19 -17 -19 -19 -2 -49 29 -52 -2 -133 -34
-91 -12 16 -14 16 -15 3 0 -16 40 -59 54 -59 5 0 19 -11 32 -26 33 -34 34 -99
3 -101 -12 -1 -30 -11 -41 -23 -15 -16 -23 -18 -38 -10 -27 15 -27 -9 1 -44
11 -14 16 -26 12 -26 -5 0 -25 -12 -44 -26 l-34 -26 72 6 c39 3 79 3 87 0 9
-4 29 -27 43 -53 15 -25 37 -60 50 -77 13 -17 23 -43 23 -58 0 -15 8 -38 17
-53 21 -31 18 -110 -4 -135 -10 -11 -13 -26 -9 -43 4 -14 2 -25 -4 -25 -14 0
-13 -27 1 -32 23 -8 18 -71 -7 -101 -20 -24 -24 -39 -24 -97 0 -39 -5 -72 -11
-76 -6 -3 -9 -18 -6 -31 3 -19 0 -27 -13 -30 -31 -8 -30 -30 5 -108 28 -61 34
-84 29 -114 -5 -32 -2 -42 21 -67 15 -16 33 -28 41 -26 8 2 14 -2 14 -8 0 -5
5 -10 11 -10 5 0 7 5 4 10 -3 6 3 10 14 10 12 0 21 7 21 15 0 13 21 19 67 18
6 0 9 6 6 13 -3 8 -1 14 5 14 6 0 12 -6 14 -12 3 -9 16 -3 37 15 18 15 36 27
41 27 4 0 13 14 19 30 6 20 17 30 30 30 11 0 25 9 31 20 8 15 17 18 41 13 28
-5 31 -4 25 15 -5 16 3 31 37 66 24 25 51 46 60 46 10 0 45 12 80 26 59 24
134 33 157 19 5 -3 10 -1 10 4 0 6 11 11 25 11 18 0 28 -7 35 -25 10 -27 25
-33 33 -12 3 7 6 5 6 -5 1 -9 6 -29 13 -43 11 -25 15 -26 68 -22 31 2 61 7 68
11 6 4 21 2 32 -4 17 -9 20 -8 20 9 0 11 9 25 20 31 11 6 20 20 20 31 0 11 7
22 15 26 9 3 22 18 30 33 12 23 23 29 70 35 38 4 64 14 78 28 12 12 31 22 42
23 11 0 34 1 50 3 l30 2 -24 19 c-16 14 -27 17 -35 11 -7 -6 -18 -6 -25 -1 -8
4 -20 6 -28 3 -7 -3 -25 2 -39 12 -29 19 -74 13 -74 -10 0 -18 -12 -19 -27 -4
-7 7 -15 6 -26 -5 -9 -9 -22 -16 -30 -16 -8 0 -24 -17 -34 -37 -12 -24 -28
-39 -42 -41 -12 -2 -25 -10 -28 -18 -7 -19 -23 -8 -23 17 0 10 -6 19 -14 19
-21 0 -28 17 -17 39 14 26 -18 53 -65 56 -19 1 -49 12 -64 24 -16 11 -36 21
-45 21 -8 0 -15 4 -15 9 0 5 -9 13 -20 16 -12 4 -20 15 -20 29 0 13 -9 31 -19
40 -16 14 -18 23 -10 49 7 24 5 35 -8 50 -11 11 -16 31 -15 48 3 20 -1 29 -10
29 -18 0 -58 45 -58 64 0 8 -6 21 -13 28 -7 7 -22 34 -33 60 -16 37 -19 59
-14 104 9 80 2 109 -27 125 -24 13 -103 118 -103 136 0 5 9 14 20 20 59 37 58
136 -3 188 -39 34 -61 105 -32 105 8 0 15 9 15 20 0 11 -7 20 -15 20 -9 0 -18
7 -21 15 -5 12 -10 13 -20 4 -16 -13 -44 4 -44 26 0 18 -77 68 -94 62 -9 -4
-18 -1 -22 5 -4 7 -9 6 -15 -3 -7 -11 -11 -11 -21 2 -7 9 -25 19 -40 23 -26 6
-27 5 -22 -24z"/>
<path d="M12541 9293 c-1 -7 -12 -13 -26 -13 -26 0 -35 -23 -14 -36 15 -9 53
30 46 47 -4 10 -6 10 -6 2z"/>
<path d="M8461 9111 c-9 -6 -7 -10 8 -14 12 -3 21 -1 21 3 0 14 -15 19 -29 11z"/>
<path d="M8538 9071 c-15 -5 -15 -8 2 -28 22 -28 27 -28 33 -5 4 13 5 11 6 -5
1 -21 31 -35 31 -15 0 18 -55 60 -72 53z"/>
<path d="M12362 8890 c0 -14 2 -19 5 -12 2 6 2 18 0 25 -3 6 -5 1 -5 -13z"/>
<path d="M12880 8856 c0 -19 -5 -26 -20 -26 -11 0 -20 -6 -20 -12 0 -7 -4 -19
-9 -27 -8 -12 -12 -12 -24 -2 -11 8 -17 9 -22 1 -5 -8 -11 -8 -21 1 -7 6 -21
9 -29 5 -9 -3 -35 4 -58 16 -32 17 -60 23 -114 23 -39 0 -69 -3 -67 -7 3 -4
-16 -8 -42 -8 -35 0 -56 6 -82 26 l-34 27 -37 -19 c-20 -10 -41 -19 -47 -19
-32 -1 -84 -45 -53 -45 5 0 8 -4 4 -9 -3 -5 0 -13 5 -16 8 -5 7 -12 -2 -23
-32 -40 -36 -57 -22 -83 7 -13 13 -38 14 -56 0 -18 5 -44 12 -58 9 -20 9 -31
0 -45 -8 -14 -8 -20 0 -22 14 -5 -29 -47 -61 -59 -13 -5 -32 -7 -42 -4 -13 4
-19 1 -19 -9 0 -9 -4 -16 -9 -16 -33 0 -9 -74 31 -94 12 -6 27 -25 33 -41 5
-17 15 -34 21 -40 19 -17 25 -45 10 -45 -8 0 -24 -16 -36 -35 -12 -19 -27 -35
-33 -35 -22 0 -16 -46 7 -56 16 -7 22 -20 26 -57 4 -39 12 -56 44 -88 44 -44
56 -48 56 -19 0 11 -5 20 -12 20 -6 0 -8 3 -5 6 4 4 21 1 39 -7 26 -11 32 -11
36 1 3 9 10 6 22 -10 18 -25 93 -55 98 -40 2 5 10 6 18 3 10 -4 12 0 8 11 -5
12 -2 15 10 10 25 -10 19 11 -19 60 -19 26 -35 52 -35 59 0 7 -7 22 -15 33
-19 25 -19 45 0 38 8 -4 12 -10 9 -15 -3 -5 0 -9 5 -9 6 0 11 7 11 14 0 13 5
13 38 2 35 -12 37 -15 35 -52 0 -22 5 -46 13 -55 19 -21 95 -34 105 -18 10 16
29 2 29 -22 0 -11 4 -18 9 -15 5 3 16 -5 25 -19 9 -14 25 -25 34 -25 28 0 74
-54 76 -89 2 -35 20 -59 30 -42 4 6 15 11 25 11 15 0 17 8 15 50 -2 41 -8 57
-32 81 -21 21 -28 37 -24 54 2 14 0 25 -6 25 -5 0 -12 16 -14 35 -3 30 -1 35
17 35 41 0 54 28 52 118 -2 81 -3 83 -35 102 -17 11 -32 25 -32 31 0 8 4 8 14
0 10 -8 16 -9 21 -1 7 12 -3 32 -14 26 -4 -3 -15 8 -24 23 -17 28 -53 47 -59
30 -6 -18 -48 3 -48 25 0 23 68 66 106 66 11 0 25 5 32 12 7 7 12 8 12 2 0 -6
10 -10 23 -8 12 1 22 3 22 4 0 1 15 3 32 5 34 3 60 -15 98 -68 17 -23 25 -27
52 -21 28 6 31 9 23 29 -8 21 -6 23 23 22 35 -2 54 -37 21 -37 -16 0 -16 -1 1
-14 17 -12 21 -12 31 1 9 13 12 13 16 2 7 -17 -18 -43 -27 -29 -9 15 -65 12
-65 -2 0 -10 -29 -13 -109 -13 -60 0 -112 -3 -116 -6 -3 -4 -8 -23 -10 -45
l-5 -38 25 24 c26 25 33 26 130 30 110 4 133 1 138 -17 3 -12 5 -8 6 9 0 15 6
30 12 34 10 6 73 -45 65 -54 -3 -2 7 -15 22 -28 l27 -23 -28 -1 c-26 0 -27 -1
-21 -40 5 -31 3 -45 -11 -60 -14 -16 -15 -24 -5 -54 6 -20 9 -44 5 -54 -8 -27
5 -54 22 -48 17 7 93 -30 93 -45 0 -6 5 -7 10 -4 8 5 7 11 0 20 -7 8 -9 19 -6
24 4 6 -3 15 -14 21 -11 6 -20 19 -20 28 0 10 -5 23 -11 29 -9 9 -8 18 5 37 9
15 21 26 26 26 12 0 -18 72 -37 87 -8 6 -12 17 -8 23 5 8 12 5 22 -9 8 -12 23
-21 35 -21 13 0 18 -5 15 -14 -6 -14 13 -25 52 -32 8 -2 18 -10 23 -18 9 -16
51 -13 56 4 2 5 9 10 15 10 18 0 44 63 29 68 -7 2 -12 9 -12 15 0 13 48 57 62
57 5 0 6 5 3 10 -12 19 6 70 23 70 11 1 7 6 -11 16 -16 9 -26 21 -24 29 3 7 1
17 -5 23 -8 8 -4 14 16 22 15 5 31 10 36 10 10 0 20 29 22 65 2 28 -30 74 -56
79 -11 3 -43 4 -71 4 -34 -1 -61 6 -83 19 -35 22 -82 20 -82 -3 0 -8 -7 -14
-15 -14 -8 0 -17 -14 -21 -36 -4 -20 -17 -54 -29 -75 -17 -31 -24 -36 -34 -26
-10 9 -16 7 -30 -12 -31 -41 -76 -11 -55 37 8 19 6 44 -5 52 -3 3 -15 32 -25
65 -11 33 -30 69 -43 80 -13 11 -31 43 -41 70 -15 42 -22 51 -46 53 -20 3 -31
12 -41 36 -8 18 -21 38 -29 46 -14 11 -16 9 -16 -14z m-573 -38 c-3 -8 -6 -5
-6 6 -1 11 2 17 5 13 3 -3 4 -12 1 -19z m206 -100 c16 -12 15 -15 -7 -43 -19
-23 -27 -27 -36 -18 -7 6 -18 9 -25 7 -7 -3 -15 2 -19 11 -3 9 -2 14 3 11 5
-3 12 5 15 19 7 28 40 34 69 13z m-159 -69 c-8 -13 -24 -1 -24 18 0 13 3 13
15 3 8 -7 12 -16 9 -21z m-24 -39 c0 -5 -5 -10 -11 -10 -5 0 -7 5 -4 10 3 6 8
10 11 10 2 0 4 -4 4 -10z m260 -165 c0 -8 -2 -15 -4 -15 -2 0 -6 7 -10 15 -3
8 -1 15 4 15 6 0 10 -7 10 -15z m908 -13 c7 -5 10 -16 6 -25 -9 -24 -21 -21
-26 8 -5 26 -1 30 20 17z m-1038 -115 c0 -4 -4 -5 -10 -2 -5 3 -10 2 -10 -3 0
-5 14 -15 31 -22 17 -7 35 -23 39 -36 6 -14 22 -26 42 -32 27 -7 33 -13 33
-36 1 -39 -15 -41 -73 -12 -35 18 -57 38 -73 66 -13 23 -28 39 -36 36 -7 -3
-15 -1 -18 4 -3 4 0 10 7 12 8 3 6 16 -10 46 -19 37 -20 41 -4 45 17 4 82 -48
82 -66z m-69 -209 c16 -30 7 -29 -26 3 -26 26 -27 28 -7 22 13 -3 27 -14 33
-25z"/>
<path d="M12400 8333 c1 -18 18 -35 24 -24 4 6 4 16 1 21 -7 12 -25 13 -25 3z"/>
<path d="M13590 8686 c0 -23 -4 -26 -36 -26 -31 0 -35 -3 -32 -22 3 -20 12
-24 60 -32 61 -10 82 -31 52 -53 -24 -17 0 -37 49 -40 38 -2 45 5 25 25 -9 9
-9 18 1 38 11 25 10 29 -16 50 -15 13 -37 32 -48 42 -49 44 -55 47 -55 18z
m80 -106 c0 -5 -2 -10 -4 -10 -3 0 -8 5 -11 10 -3 6 -1 10 4 10 6 0 11 -4 11
-10z"/>
<path d="M13634 8405 c-4 -8 -3 -22 0 -31 5 -14 4 -15 -9 -4 -12 10 -15 10
-15 -3 0 -15 37 -30 52 -21 5 3 1 12 -8 18 -11 9 -15 21 -11 35 6 24 -1 29 -9
6z"/>
<path d="M10545 8213 c5 -54 8 -60 45 -65 44 -7 45 6 2 43 -20 18 -40 39 -44
48 -3 9 -5 -3 -3 -26z"/>
<path d="M13145 8221 c-3 -5 -1 -12 5 -16 5 -3 10 1 10 9 0 18 -6 21 -15 7z"/>
<path d="M10450 8085 c-14 -16 -10 -18 14 -9 9 3 16 10 16 15 0 14 -16 11 -30
-6z"/>
<path d="M10354 8051 c3 -4 -6 -6 -19 -3 -15 2 -25 0 -25 -7 0 -17 77 -14 84
4 4 11 -2 15 -20 15 -14 0 -23 -4 -20 -9z"/>
<path d="M13046 7948 c1 -13 3 -29 3 -35 1 -20 18 -15 24 6 5 19 -9 51 -22 51
-4 0 -7 -10 -5 -22z"/>
<path d="M12106 7908 c3 -4 9 -8 15 -8 5 0 9 4 9 8 0 5 -7 9 -15 9 -8 0 -12
-4 -9 -9z"/>
<path d="M12140 7890 c0 -5 5 -10 11 -10 5 0 7 5 4 10 -3 6 -8 10 -11 10 -2 0
-4 -4 -4 -10z"/>
<path d="M12883 7873 c-1 -10 -4 -28 -8 -40 -6 -20 -4 -23 19 -23 27 0 33 -9
17 -25 -5 -6 -16 -27 -25 -48 l-16 -39 33 8 c34 7 50 22 40 37 -4 6 5 8 21 5
14 -3 26 -1 26 5 0 5 13 7 30 4 19 -4 34 -1 45 9 8 8 19 12 25 9 6 -4 10 7 10
26 l0 32 18 -21 19 -22 12 27 c23 51 -20 56 -71 8 l-27 -25 -15 21 c-8 12 -19
18 -26 14 -6 -4 -21 1 -33 11 -52 44 -92 56 -94 27z"/>
<path d="M13052 7871 c-11 -6 -10 -10 4 -15 20 -8 32 0 18 14 -5 5 -15 5 -22
1z"/>
<path d="M13326 7871 c-5 -7 -3 -18 3 -24 14 -14 20 -6 11 17 -5 15 -9 16 -14
7z"/>
<path d="M12182 7848 c5 -15 28 -23 28 -10 0 5 -7 13 -16 16 -10 4 -14 1 -12
-6z"/>
<path d="M13360 7824 c0 -7 7 -27 15 -45 10 -24 14 -28 14 -14 0 21 -28 78
-29 59z"/>
<path d="M12207 7813 c-13 -3 -16 -10 -11 -26 3 -12 7 -22 8 -22 0 -1 20 -13
43 -28 24 -15 51 -27 62 -27 30 0 46 -26 33 -55 -7 -14 -8 -25 -4 -25 8 0 10
-72 2 -80 -3 -3 -18 -24 -34 -47 -15 -23 -34 -43 -42 -45 -13 -3 -13 -6 -1
-22 14 -19 16 -19 31 -3 11 10 33 17 56 17 26 0 42 6 48 16 7 13 14 14 28 6
14 -7 24 -6 39 4 26 19 45 18 45 -3 0 -13 2 -15 8 -5 10 15 31 -5 56 -55 16
-33 16 -33 -9 -33 -14 0 -25 -3 -25 -8 0 -4 28 -37 62 -72 34 -36 56 -58 50
-49 -12 16 -7 49 8 49 4 0 16 12 25 27 14 20 15 30 7 44 -9 15 -8 19 8 24 14
5 20 15 20 37 0 22 4 29 14 25 16 -6 66 35 66 54 0 6 7 9 15 5 18 -6 20 5 3
22 -9 9 -9 18 0 36 10 23 8 29 -22 61 -18 19 -38 35 -44 35 -5 0 -12 9 -15 20
-3 11 0 20 5 20 6 0 6 6 -2 14 -6 8 -17 13 -25 10 -20 -8 -30 17 -11 28 22 12
21 42 -2 36 -10 -3 -24 2 -32 11 -13 14 -15 14 -18 -3 -3 -14 -10 -17 -33 -12
-22 4 -29 2 -29 -9 0 -18 -32 -19 -81 -1 -32 11 -36 11 -35 -3 1 -10 -10 -16
-32 -18 -18 -2 -42 -8 -53 -13 -15 -8 -19 -7 -19 5 0 10 -8 14 -25 13 -14 -1
-25 -6 -25 -11 0 -5 -7 -4 -15 3 -12 10 -15 10 -15 -4 0 -9 -4 -16 -10 -16 -5
0 -10 6 -10 14 0 24 -43 64 -63 59z m418 -493 c3 -6 -1 -7 -9 -4 -18 7 -21 14
-7 14 6 0 13 -4 16 -10z"/>
<path d="M13380 7731 c0 -6 4 -13 10 -16 6 -3 7 1 4 9 -7 18 -14 21 -14 7z"/>
<path d="M8964 7463 c-12 -22 -11 -82 3 -91 14 -10 24 -42 12 -42 -5 0 -9 -6
-8 -12 1 -7 -1 -26 -6 -41 -5 -20 -2 -40 11 -69 10 -22 17 -55 17 -74 -1 -19
3 -34 8 -34 5 0 9 -8 9 -18 0 -24 39 -26 56 -4 8 9 14 26 14 37 0 11 9 31 20
45 11 14 20 33 20 43 0 11 8 17 22 17 21 0 20 2 -9 33 -17 17 -45 63 -62 101
-26 56 -78 126 -93 126 -2 0 -8 -8 -14 -17z"/>
<path d="M12596 7255 c4 -8 8 -15 10 -15 2 0 4 7 4 15 0 8 -4 15 -10 15 -5 0
-7 -7 -4 -15z"/>
<path d="M9026 7005 c4 -8 13 -15 21 -15 13 0 13 3 3 15 -7 8 -16 15 -21 15
-5 0 -6 -7 -3 -15z"/>
<path d="M9027 6960 c3 -10 -9 -27 -32 -44 -34 -26 -35 -29 -18 -41 21 -16 33
-11 33 15 0 27 20 36 27 12 2 -11 16 -22 29 -25 29 -5 30 -3 4 23 -11 11 -20
33 -20 48 0 18 -5 29 -14 29 -7 0 -11 -7 -9 -17z"/>
<path d="M8985 6959 c-10 -15 3 -25 16 -12 7 7 7 13 1 17 -6 3 -14 1 -17 -5z"/>
</g>
</svg>
