<?xml version="1.0" standalone="no"?>
<!DOCTYPE svg PUBLIC "-//W3C//DTD SVG 20010904//EN"
 "http://www.w3.org/TR/2001/REC-SVG-20010904/DTD/svg10.dtd">
<svg version="1.0" xmlns="http://www.w3.org/2000/svg"
 width="930.938503pt" height="477.948297pt" viewBox="0 0 930.938503 477.948297"
 preserveAspectRatio="xMidYMid meet">
<metadata>
Created by potrace 1.15, written by Peter Selinger 2001-2017
</metadata>
<g transform="translate(-607.061497,1229.914234) scale(0.100000,-0.100000)"
fill="#222222" stroke="none">
<path d="M11830 12266 c0 -33 -2 -35 -50 -47 -28 -7 -50 -18 -49 -23 1 -14
-12 -56 -18 -56 -2 0 -13 5 -24 10 -25 14 -26 -4 -1 -22 30 -21 44 -55 33 -77
-6 -10 -8 -21 -4 -24 3 -4 -5 -15 -18 -26 -20 -16 -22 -21 -9 -36 12 -14 11
-22 -10 -60 l-24 -44 22 -24 c12 -13 22 -32 22 -43 0 -11 5 -25 11 -31 15 -15
3 -46 -13 -38 -7 4 0 -5 16 -18 16 -14 26 -29 22 -35 -3 -6 -3 -13 2 -16 5 -3
7 -19 4 -36 -3 -19 0 -30 8 -30 7 0 10 -6 7 -14 -3 -8 0 -17 8 -20 8 -3 11
-13 8 -27 -4 -15 -3 -20 5 -15 7 4 12 2 12 -3 0 -6 -6 -11 -12 -11 -7 0 -3 -7
10 -15 18 -13 21 -24 18 -63 -2 -27 2 -53 9 -62 16 -19 7 -80 -10 -80 -8 0
-17 -9 -20 -20 -3 -11 -13 -20 -22 -20 -12 0 -14 -7 -9 -32 18 -88 22 -148 15
-201 -8 -62 -38 -124 -58 -119 -7 1 -10 -2 -6 -8 4 -6 2 -16 -3 -23 -5 -7 -13
-31 -17 -54 -5 -34 -3 -45 14 -62 19 -19 19 -20 2 -26 -25 -8 -16 -39 15 -54
26 -11 34 -34 9 -25 -12 5 -15 -4 -15 -45 0 -39 -4 -51 -15 -51 -8 0 -15 -9
-15 -20 0 -13 -9 -22 -25 -26 -14 -3 -23 -10 -20 -14 3 -4 -7 -10 -22 -13 -20
-4 -31 1 -46 19 -19 24 -37 32 -37 15 0 -5 8 -11 18 -13 23 -6 25 -37 5 -60
-14 -15 -13 -22 7 -63 12 -25 31 -50 41 -56 10 -5 19 -15 19 -22 0 -8 18 -12
50 -13 53 -1 60 8 34 38 -10 10 -17 32 -18 50 -1 30 -17 46 -73 74 -7 3 -13
10 -13 15 0 6 7 6 18 0 10 -5 24 -6 31 -2 7 5 21 7 30 4 9 -2 25 5 35 16 19
21 56 28 70 14 4 -5 23 -8 42 -8 18 0 34 -4 35 -10 1 -5 5 -20 10 -32 12 -33
-31 -79 -60 -64 -29 16 -31 14 -31 -24 0 -29 -5 -37 -26 -45 -22 -9 -25 -14
-19 -38 9 -36 9 -36 46 -23 48 17 56 14 69 -21 7 -18 14 -27 17 -20 9 23 33
12 61 -28 27 -40 35 -43 112 -44 49 -1 70 11 70 39 0 29 23 33 55 12 34 -24
68 -28 87 -10 14 12 23 13 49 4 37 -13 60 -14 58 -3 -4 26 2 34 26 28 35 -9
51 2 28 20 -10 7 -13 14 -7 14 22 0 4 93 -22 117 -13 12 -24 30 -24 39 0 13
-3 14 -15 4 -10 -9 -15 -9 -15 -1 0 6 -7 11 -16 11 -8 0 -13 -4 -10 -9 3 -5 0
-11 -8 -14 -8 -3 -17 1 -20 9 -11 27 -6 36 14 31 17 -4 19 -1 17 33 -4 60 -64
108 -81 65 -3 -8 -15 -15 -26 -15 -11 0 -20 -4 -20 -8 0 -4 -11 -9 -24 -10
-18 -1 -25 5 -30 23 -4 14 -20 32 -36 40 -27 14 -31 14 -36 0 -3 -8 -11 -15
-18 -15 -6 -1 -24 -18 -40 -38 -25 -31 -36 -38 -69 -38 -24 -1 -34 2 -26 7 11
6 10 11 -4 27 -13 14 -15 25 -7 52 5 18 7 36 5 40 -3 5 4 6 15 3 16 -4 19 -2
14 11 -8 20 21 66 41 66 21 0 28 19 14 36 -9 11 -9 18 5 32 15 17 14 20 -13
48 -36 37 -49 74 -26 74 8 0 18 7 21 15 9 24 76 40 113 27 28 -10 31 -9 36 11
7 27 9 59 4 72 -8 22 11 75 27 75 12 0 15 8 12 33 -1 17 -7 35 -12 38 -16 12
3 40 33 50 23 8 28 15 23 32 -5 20 -4 20 11 8 9 -7 18 -11 18 -7 3 15 6 23 19
49 10 21 11 30 2 39 -7 7 -12 20 -12 29 0 9 -12 24 -26 34 -14 9 -23 19 -20
22 3 4 0 13 -8 22 -7 9 -16 32 -18 51 -3 19 -9 44 -13 54 -6 13 -5 17 2 13 7
-5 9 0 6 14 -3 12 -1 24 5 28 6 3 13 18 17 33 6 24 4 27 -14 23 -11 -2 -23 1
-27 6 -3 6 -20 1 -41 -12 -28 -18 -39 -20 -59 -10 -15 6 -24 7 -24 1 0 -6 -4
-10 -10 -10 -19 0 -10 32 10 37 24 6 23 4 7 35 -7 14 -17 23 -23 21 -7 -2 -14
3 -17 12 -9 21 30 20 57 -2 12 -10 15 -11 9 -3 -23 25 -14 32 33 25 41 -6 48
-4 70 20 20 21 25 38 27 91 2 52 5 65 20 70 14 4 18 13 14 32 -3 17 4 39 20
65 18 28 21 38 10 34 -9 -3 -17 -2 -19 2 -5 14 -48 24 -48 11 0 -15 -38 -3
-64 19 -11 9 -16 10 -12 4 4 -7 3 -13 -2 -13 -8 0 -11 22 -13 113 -1 31 -5 38
-25 43 -13 4 -30 1 -38 -5 -10 -8 -15 -5 -24 14 -6 14 -19 25 -27 25 -9 0 -28
8 -42 17 -26 17 -27 17 -20 0 10 -26 -22 -19 -37 8 -25 45 -46 46 -46 1z"/>
<path d="M15356 11780 c8 -31 24 -50 24 -29 0 8 -7 24 -16 35 -14 18 -15 18
-8 -6z"/>
<path d="M15288 11747 c4 -16 2 -19 -11 -14 -26 10 -22 -39 3 -53 15 -8 20 -8
20 2 0 9 3 9 10 -2 18 -28 11 -58 -21 -81 -20 -14 -27 -25 -21 -31 11 -11 4
-41 -7 -33 -4 2 -6 -8 -3 -23 3 -23 9 -27 39 -30 36 -2 67 13 57 29 -2 5 2 22
11 39 13 24 13 33 3 50 -9 15 -10 25 -2 38 14 22 9 81 -8 97 -7 7 -27 17 -44
23 -29 9 -31 9 -26 -11z"/>
<path d="M13940 11747 c0 -4 8 -22 17 -42 16 -33 33 -46 33 -25 0 6 -5 10 -11
10 -7 0 -9 10 -4 27 4 16 3 25 -1 21 -4 -4 -13 -3 -21 3 -7 6 -13 9 -13 6z"/>
<path d="M13840 11663 c0 -9 -6 -13 -14 -10 -9 4 -12 0 -9 -12 3 -11 -2 -21
-11 -24 -9 -4 -16 -13 -16 -20 0 -8 -6 -20 -14 -26 -8 -7 -14 -20 -14 -29 2
-30 -30 -90 -51 -97 -11 -3 -23 -15 -26 -26 -5 -15 -10 -17 -24 -9 -10 5 -21
6 -25 3 -3 -3 -22 -6 -42 -5 -34 1 -36 0 -30 -24 5 -20 3 -27 -14 -31 -16 -4
-18 -8 -9 -19 9 -11 8 -18 -3 -32 -11 -12 -14 -38 -13 -95 2 -74 1 -78 -21
-83 -13 -4 -24 -12 -24 -19 0 -8 -11 -27 -25 -43 -25 -30 -33 -62 -15 -62 6 0
10 -9 10 -20 0 -11 -4 -20 -8 -20 -16 0 -35 -79 -36 -145 0 -36 -5 -65 -10
-65 -5 0 -6 -3 -3 -7 4 -3 0 -11 -8 -17 -18 -14 -23 -90 -7 -109 10 -12 7 -17
-17 -27 -30 -12 -50 -50 -27 -50 13 0 52 -42 72 -75 15 -27 34 -30 34 -6 0 21
7 25 46 22 12 -1 24 5 27 13 4 9 13 13 22 10 23 -9 118 16 142 38 19 18 26 19
54 9 33 -11 65 1 53 20 -3 5 5 9 18 9 17 0 30 13 51 50 22 39 34 50 53 50 14
0 35 10 47 23 12 13 30 26 40 30 9 4 22 18 29 32 6 13 19 27 30 30 10 4 18 16
18 29 0 13 9 33 20 46 11 13 20 26 20 30 0 18 39 49 65 52 21 2 30 8 29 20 -1
14 2 16 17 7 24 -13 40 -4 33 19 -4 11 2 9 16 -8 21 -24 22 -24 35 -6 15 20
25 19 107 -8 42 -13 49 -13 63 0 13 13 17 13 40 -2 21 -14 31 -15 50 -6 14 7
25 16 25 22 0 6 -4 8 -10 5 -5 -3 -16 -3 -22 2 -7 4 -19 8 -26 9 -23 4 -43 26
-37 44 6 20 -19 45 -35 35 -6 -4 -24 -1 -41 5 -40 17 -78 80 -81 138 -1 6 -5
12 -10 12 -5 0 -16 17 -24 38 -8 20 -20 47 -26 60 -9 18 -9 28 1 44 11 18 11
23 -3 33 -39 29 -89 131 -54 109 7 -5 3 8 -10 27 -14 22 -29 33 -41 32 -11 -2
-32 4 -47 12 -15 8 -31 12 -36 9 -18 -11 -47 8 -53 36 -4 17 -13 30 -22 30
-10 0 -13 -6 -9 -17 8 -19 -10 -34 -31 -26 -8 3 -18 15 -22 26 -6 16 -18 21
-59 23 -41 2 -52 -1 -52 -13z"/>
<path d="M9007 11616 c3 -12 6 -29 5 -38 0 -9 6 -19 14 -22 9 -4 13 -13 10
-24 -4 -12 5 -26 29 -45 20 -16 32 -33 29 -39 -11 -17 26 -39 46 -28 23 12 70
-9 70 -32 0 -10 7 -18 16 -18 8 0 13 4 9 10 -9 14 22 80 38 80 14 0 27 40 27
86 0 26 -47 67 -68 59 -7 -3 -21 -1 -31 4 -12 7 -24 4 -41 -9 -19 -15 -28 -16
-45 -7 -11 6 -41 19 -68 28 -47 16 -47 16 -40 -5z"/>
<path d="M15177 11573 c3 -15 1 -23 -7 -23 -9 0 -9 -4 -3 -12 15 -19 26 -101
13 -93 -5 3 -10 -1 -10 -10 0 -12 -4 -14 -19 -5 -26 13 -31 13 -31 -4 0 -16
49 -19 67 -4 7 6 19 8 27 5 10 -4 14 0 13 14 -1 10 -4 19 -7 19 -3 0 -11 10
-19 21 -11 18 -11 23 1 30 11 7 11 9 -1 9 -10 0 -11 3 -2 14 9 10 7 19 -8 37
l-20 24 6 -22z"/>
<path d="M15235 11480 c-3 -5 -1 -10 4 -10 6 0 11 5 11 10 0 6 -2 10 -4 10 -3
0 -8 -4 -11 -10z"/>
<path d="M9320 11466 c0 -2 7 -6 15 -10 8 -3 15 -1 15 4 0 6 -7 10 -15 10 -8
0 -15 -2 -15 -4z"/>
<path d="M15012 11437 c-10 -25 -9 -34 3 -47 8 -9 12 -20 8 -23 -3 -4 3 -7 14
-7 24 0 53 30 53 53 0 19 -31 50 -53 53 -7 1 -19 -12 -25 -29z"/>
<path d="M14975 11440 c3 -5 11 -10 16 -10 6 0 7 5 4 10 -3 6 -11 10 -16 10
-6 0 -7 -4 -4 -10z"/>
<path d="M9414 11398 c4 -23 12 -46 18 -49 9 -6 9 -11 0 -21 -7 -9 -9 -29 -5
-51 5 -34 4 -37 -13 -30 -16 6 -17 4 -7 -9 15 -18 5 -32 -12 -18 -8 7 -18 4
-30 -10 -10 -11 -26 -20 -36 -20 -25 0 -32 -15 -14 -30 18 -15 85 -31 85 -20
0 5 10 6 23 3 22 -6 22 -6 -3 14 -20 17 -22 23 -12 36 12 14 17 13 48 -5 38
-23 44 -38 13 -38 -11 0 -17 -4 -14 -10 3 -5 2 -10 -3 -10 -5 0 13 -24 39 -52
51 -56 61 -84 32 -95 -26 -10 -33 -25 -20 -42 9 -11 9 -15 0 -18 -7 -3 -13
-12 -13 -21 0 -12 -3 -13 -12 -4 -9 9 -16 5 -30 -18 -10 -17 -22 -30 -28 -30
-9 0 6 -37 21 -50 3 -3 9 -12 12 -20 4 -8 16 -29 26 -47 17 -27 18 -34 6 -50
-8 -10 -15 -28 -15 -40 0 -26 -31 -61 -48 -55 -7 2 -12 -6 -12 -20 -1 -38 -26
-63 -61 -60 -16 2 -29 0 -28 -5 5 -19 -26 -63 -52 -73 -26 -11 -28 -16 -24
-56 2 -24 0 -44 -5 -44 -5 0 -12 -9 -15 -20 -9 -28 -62 -55 -80 -40 -9 8 -15
8 -20 0 -3 -6 -10 -8 -15 -5 -5 3 -30 8 -56 10 -39 3 -47 1 -51 -16 -3 -10 -8
-19 -12 -19 -3 0 -13 -15 -20 -32 -8 -18 -24 -46 -35 -61 -20 -27 -20 -29 -3
-41 25 -19 21 -29 -9 -23 -16 3 -28 0 -31 -9 -8 -20 -20 -17 -26 7 -8 31 -39
20 -49 -18 -6 -23 -16 -35 -33 -39 -25 -6 -40 -30 -25 -39 15 -9 12 -75 -2
-75 -9 0 -8 -4 2 -10 14 -9 12 -11 -15 -14 -12 -2 -15 -15 -7 -34 3 -9 14 -11
33 -7 25 6 29 3 29 -14 0 -11 5 -23 10 -26 15 -9 12 -25 -5 -25 -23 0 -18 -26
9 -38 26 -11 41 -59 24 -79 -6 -7 -6 -18 0 -30 12 -22 13 -71 1 -79 -4 -2 -5
-12 -2 -21 5 -14 1 -15 -27 -10 -18 4 -38 3 -45 -3 -9 -7 -21 -7 -39 0 -15 5
-28 10 -30 10 -1 0 -2 -12 -1 -27 0 -25 -10 -35 -60 -57 -6 -3 -5 -8 3 -14 7
-5 12 -17 12 -28 -1 -10 -2 -35 -3 -55 0 -27 -5 -35 -19 -34 -10 1 -20 4 -24
7 -3 4 -12 4 -20 1 -12 -4 -12 -8 -2 -20 15 -19 -10 -37 -29 -21 -9 7 -13 7
-13 -1 0 -6 -8 -11 -17 -11 -26 -1 -63 -35 -63 -59 0 -11 -4 -23 -10 -26 -13
-8 -13 -52 0 -60 6 -3 6 -15 0 -29 -5 -13 -6 -26 -3 -29 3 -3 -11 -20 -31 -37
-20 -18 -36 -38 -36 -46 0 -8 -7 -14 -16 -14 -12 0 -15 -6 -10 -25 6 -22 3
-25 -21 -27 -42 -2 -47 -3 -63 -13 -8 -5 -26 -9 -39 -9 -15 -1 -30 -9 -36 -22
-5 -11 -16 -19 -24 -16 -9 3 -11 -2 -6 -17 5 -18 1 -23 -23 -32 l-30 -10 16
-50 c12 -36 21 -49 35 -49 29 0 77 32 77 52 0 20 78 98 97 98 6 0 15 -5 19
-11 5 -8 9 -7 15 4 7 12 15 13 46 3 21 -6 50 -19 65 -30 23 -15 30 -16 41 -4
8 7 12 19 9 26 -2 7 0 12 5 10 4 -1 18 1 30 5 22 8 24 21 9 46 -7 11 -4 13 14
8 14 -4 32 1 50 15 24 18 27 23 17 40 -9 14 -9 20 0 26 7 4 13 21 13 37 0 17
0 40 1 52 l0 22 37 -19 c40 -22 62 -25 62 -10 0 6 27 10 60 10 52 0 62 -3 76
-25 9 -13 24 -27 35 -30 15 -5 17 -10 10 -24 -10 -17 10 -31 80 -54 13 -4 16
-17 14 -55 -1 -27 -5 -54 -9 -61 -4 -6 -3 -11 2 -11 12 0 24 29 17 41 -4 5 0
6 7 4 17 -7 39 -55 31 -69 -4 -7 -1 -7 7 1 8 8 20 9 36 3 19 -8 24 -6 24 7 0
15 2 15 20 -3 12 -12 21 -35 22 -57 1 -31 5 -37 23 -37 17 0 24 -8 28 -30 4
-19 11 -28 20 -24 12 4 55 -12 124 -49 12 -6 25 -25 29 -41 4 -17 9 -24 13
-17 4 6 15 9 23 6 9 -4 18 0 21 9 8 19 58 21 75 4 9 -9 15 -9 24 0 8 8 17 8
30 1 11 -6 25 -8 32 -6 44 17 44 -46 1 -89 -15 -14 -25 -37 -25 -52 0 -15 -6
-36 -13 -47 -16 -25 -20 -75 -6 -75 5 0 7 -4 4 -10 -3 -5 5 -12 19 -16 14 -3
24 -11 23 -17 -1 -6 6 -13 17 -15 11 -2 16 0 12 7 -4 6 0 11 9 11 9 0 14 4 10
9 -3 5 5 13 17 17 17 5 27 0 44 -21 16 -21 27 -26 43 -20 13 4 29 1 38 -7 15
-11 16 -11 10 5 -6 15 -3 17 13 12 10 -3 29 1 42 9 13 8 41 18 63 22 22 4 43
12 47 18 5 8 14 7 30 -3 16 -10 23 -11 26 -2 3 9 7 9 19 0 8 -7 24 -14 36 -16
76 -10 97 -7 97 17 0 14 5 18 18 13 15 -6 15 -5 4 10 -8 9 -10 22 -6 28 4 7 1
17 -7 23 -24 18 -72 86 -61 86 6 0 24 -11 40 -25 17 -14 36 -25 43 -25 16 0
78 -22 95 -32 6 -4 19 1 28 11 12 13 14 21 6 26 -8 5 -8 11 1 21 10 12 14 12
20 2 6 -9 9 -6 9 10 0 26 25 56 39 48 5 -3 14 1 21 9 8 9 21 13 35 9 16 -4 26
0 33 12 9 15 12 16 26 4 12 -9 20 -10 27 -3 12 12 109 -31 109 -48 0 -5 4 -9
9 -9 8 0 26 58 33 104 2 11 17 27 33 36 35 20 37 50 8 109 -9 20 -18 48 -19
62 0 14 -4 31 -8 37 -4 6 2 8 14 5 15 -4 20 0 20 16 0 17 4 20 23 16 18 -5 26
0 37 22 7 15 13 31 12 36 -1 4 2 7 8 7 5 0 10 7 10 15 0 8 -8 15 -17 15 -10 0
-14 4 -8 8 6 4 11 17 12 28 2 19 -4 23 -44 29 -31 4 -42 10 -33 15 8 5 13 27
14 56 0 40 5 53 28 76 16 16 23 30 17 33 -5 4 -9 30 -8 58 1 29 0 59 -2 67 -3
10 3 14 19 13 17 -2 22 2 22 22 0 22 3 25 25 19 19 -5 25 -2 25 11 0 9 9 19
21 22 15 4 19 11 15 24 -19 62 -21 58 24 46 32 -9 43 -9 49 1 4 7 15 10 24 6
17 -6 21 3 18 37 -1 12 9 19 34 23 36 7 48 25 18 27 -10 0 -13 3 -7 5 8 3 9
16 4 39 -7 31 -5 35 12 35 15 0 18 4 12 23 -3 12 -11 27 -16 34 -6 8 -2 15 13
23 12 7 19 8 15 2 -9 -14 16 -21 37 -10 13 7 15 13 7 27 -11 22 -4 31 24 31
31 0 64 37 58 65 -4 22 -54 74 -113 117 l-24 17 34 1 c34 0 34 0 16 20 -11 13
-25 18 -34 14 -19 -8 -26 -8 -73 0 -21 4 -39 3 -43 -4 -3 -5 -17 -10 -31 -10
-15 0 -35 -11 -48 -27 -21 -24 -26 -26 -40 -14 -14 12 -16 12 -10 -2 3 -8 1
-25 -6 -36 -9 -18 -19 -21 -66 -20 -39 1 -60 -3 -73 -15 -23 -21 -76 -18 -77
4 0 8 -6 30 -13 47 -11 28 -17 32 -37 27 -17 -4 -24 -2 -24 8 0 14 -39 43 -47
34 -3 -3 -12 1 -20 9 -16 17 -58 21 -48 5 9 -14 4 -13 -49 11 l-46 20 -30 -21
c-23 -17 -41 -20 -95 -18 -59 3 -69 0 -85 -19 -40 -49 -69 -22 -75 68 -5 61
-14 79 -46 86 -19 4 -27 9 -21 15 6 6 4 20 -6 38 -14 24 -20 26 -48 20 -28 -7
-35 -4 -53 21 -12 16 -28 29 -36 29 -8 0 -22 13 -31 30 -10 16 -32 34 -48 40
-24 8 -28 13 -17 19 10 7 12 21 7 56 -4 35 -2 51 8 59 7 6 16 36 20 68 6 54 5
57 -25 82 -21 18 -30 33 -26 46 3 11 -1 24 -9 31 -8 6 -14 20 -14 29 0 10 -11
32 -25 48 -13 16 -28 47 -33 69 -11 49 -52 111 -69 106 -7 -3 -13 2 -13 10 0
7 -9 22 -20 32 -11 10 -20 24 -20 30 0 7 -21 38 -47 70 -33 40 -43 59 -34 64
19 12 18 91 -2 106 -9 7 -17 17 -17 23 0 6 -8 28 -17 48 -17 34 -17 36 0 45
36 21 13 58 -24 38 -18 -9 -24 -8 -31 5 -18 32 -31 17 -24 -26z m-384 -1248
c0 -5 -4 -10 -9 -10 -6 0 -13 5 -16 10 -3 6 1 10 9 10 9 0 16 -4 16 -10z m-43
-6 c-3 -3 -12 -4 -19 -1 -8 3 -5 6 6 6 11 1 17 -2 13 -5z m-4 -28 c3 -8 -1
-22 -8 -33 -13 -17 -14 -16 -15 15 0 33 13 43 23 18z m27 -96 c0 -5 -7 -10
-15 -10 -8 0 -15 5 -15 10 0 6 7 10 15 10 8 0 15 -4 15 -10z"/>
<path d="M15207 11373 c3 -7 9 -13 14 -13 5 0 9 6 9 13 0 8 -6 14 -14 14 -8 0
-12 -6 -9 -14z"/>
<path d="M9200 11340 c0 -5 5 -10 10 -10 6 0 10 5 10 10 0 6 -4 10 -10 10 -5
0 -10 -4 -10 -10z"/>
<path d="M9240 11321 c0 -25 6 -27 13 -6 4 8 2 17 -3 20 -6 4 -10 -3 -10 -14z"/>
<path d="M14996 11324 c-9 -23 -2 -28 13 -10 7 8 8 17 3 20 -6 3 -13 -1 -16
-10z"/>
<path d="M14922 11233 c7 -16 17 -34 22 -42 9 -12 7 -13 -6 -8 -25 9 -34 -14
-13 -30 25 -18 36 -16 28 4 -4 11 -3 14 5 9 11 -7 17 6 13 28 -1 5 2 12 7 15
5 3 12 16 16 29 7 21 4 22 -38 22 l-46 0 12 -27z"/>
<path d="M14697 11183 c-9 -14 8 -33 21 -24 10 6 10 10 -2 20 -8 7 -17 8 -19
4z"/>
<path d="M9250 11174 c0 -5 7 -18 15 -28 12 -16 15 -17 15 -4 0 8 -7 21 -15
28 -8 7 -15 9 -15 4z"/>
<path d="M14762 11172 c-10 -7 -10 -15 -2 -36 5 -15 10 -43 10 -62 0 -27 5
-36 25 -44 13 -5 30 -18 37 -30 7 -11 16 -20 19 -20 14 0 19 33 7 48 -11 13
-9 15 15 10 15 -3 30 -1 34 5 5 9 7 53 4 100 -1 21 -24 22 -45 2 -18 -19 -26
-19 -26 -1 0 19 -30 29 -46 15 -12 -10 -13 -9 -8 5 7 17 -3 21 -24 8z"/>
<path d="M14691 11131 c-8 -5 -20 -7 -28 -4 -8 3 -13 -2 -13 -16 0 -19 -21
-28 -54 -22 -5 1 -6 -8 -2 -21 3 -13 6 -29 6 -35 0 -9 7 -10 27 -2 15 5 37 8
48 5 16 -4 23 1 32 24 14 38 4 83 -16 71z"/>
<path d="M9630 11017 c0 -15 31 -47 46 -47 5 0 1 5 -8 11 -10 5 -18 16 -18 24
0 8 -4 17 -10 20 -5 3 -10 0 -10 -8z"/>
<path d="M11578 10630 c-3 -8 2 -20 11 -26 13 -10 13 -14 2 -28 -8 -10 -11
-26 -7 -42 5 -18 3 -24 -5 -18 -7 4 -10 2 -7 -7 5 -16 59 -13 69 3 4 6 12 7
18 4 7 -5 11 1 11 13 0 13 7 21 17 21 14 0 14 2 -3 21 -18 20 -18 22 -1 34 45
33 -9 43 -58 11 -24 -16 -26 -16 -34 6 -6 16 -9 18 -13 8z"/>
<path d="M13350 10364 c0 -3 7 -13 16 -21 19 -20 4 -33 -38 -33 -21 0 -28 -5
-28 -20 0 -11 -4 -20 -10 -20 -5 0 -10 -6 -10 -14 0 -20 -57 -4 -76 21 -12 16
-13 15 -14 -13 0 -23 -7 -34 -27 -45 -19 -10 -27 -11 -30 -3 -2 7 -13 10 -23
7 -14 -4 -17 -9 -11 -21 5 -9 5 -20 0 -26 -5 -6 -19 -24 -30 -39 -14 -19 -27
-26 -39 -22 -13 4 -17 1 -16 -12 1 -14 -5 -17 -26 -15 -20 2 -28 -1 -28 -12 0
-25 -49 -75 -78 -78 -21 -2 -29 -10 -37 -41 -6 -21 -16 -42 -23 -46 -20 -12 5
-57 46 -81 25 -15 38 -18 47 -10 20 16 87 -7 133 -45 136 -115 146 -121 192
-119 46 2 100 -18 100 -38 0 -6 3 -8 7 -5 3 4 11 -3 17 -15 13 -25 48 -33 77
-17 14 7 17 14 11 22 -5 7 -9 27 -9 44 0 34 -26 73 -49 73 -31 0 -22 50 15 76
17 13 17 74 0 105 -8 15 -5 20 16 25 17 4 32 1 44 -10 10 -9 25 -16 34 -16 17
0 32 34 22 50 -9 14 32 50 57 50 13 0 18 7 18 25 0 16 6 25 15 25 8 0 15 5 15
10 0 6 17 -1 37 -15 43 -29 53 -31 53 -10 0 8 9 15 20 15 11 0 20 6 20 14 0
16 -24 28 -42 21 -8 -3 -14 4 -15 17 -8 104 -14 133 -33 150 -11 10 -20 27
-20 38 0 21 -87 60 -98 44 -4 -6 -30 -10 -57 -9 -37 0 -58 6 -79 23 -26 20
-66 30 -66 16z"/>
<path d="M9036 10305 c4 -9 11 -14 16 -13 15 5 11 23 -6 26 -11 2 -14 -2 -10
-13z"/>
<path d="M11460 10292 c0 -23 -32 -43 -51 -31 -23 14 -39 10 -39 -9 0 -15 6
-18 29 -14 24 3 29 0 33 -21 6 -33 -23 -52 -54 -36 -17 9 -23 9 -26 0 -5 -14
-39 -14 -44 1 -3 7 -14 9 -32 4 -18 -4 -26 -12 -23 -21 3 -7 0 -16 -8 -19 -12
-4 -11 -10 2 -37 13 -26 13 -33 2 -41 -11 -8 -10 -8 4 -4 10 3 22 6 27 6 13 0
18 38 7 49 -8 8 -5 11 10 11 11 0 26 7 33 15 20 24 69 18 97 -11 13 -14 20
-31 17 -37 -5 -8 -3 -8 7 1 7 6 37 12 66 12 40 0 53 4 53 15 0 11 11 15 36 15
43 0 68 22 59 51 -7 20 -7 20 -26 -2 -10 -12 -16 -26 -13 -30 3 -5 0 -9 -5 -9
-6 0 -11 5 -11 10 0 7 -7 7 -21 0 -11 -7 -23 -10 -25 -7 -3 3 4 32 16 66 11
33 20 62 20 64 0 2 -14 2 -30 -1 -17 -2 -45 3 -64 12 -43 20 -46 20 -46 -2z"/>
<path d="M12425 10176 c-10 -7 -27 -11 -37 -8 -22 5 -22 -3 -3 -57 8 -23 10
-41 4 -41 -5 0 -7 -11 -3 -24 4 -17 0 -30 -14 -44 -20 -20 -20 -20 4 -56 25
-37 33 -101 12 -108 -7 -3 -8 -9 -2 -19 10 -17 11 -20 13 -61 1 -25 4 -29 11
-18 9 13 10 13 11 0 1 -8 1 -18 0 -22 0 -5 4 -8 11 -8 9 0 9 -3 1 -11 -7 -7
-1 -26 21 -64 17 -30 35 -54 39 -55 5 0 20 -9 34 -20 27 -21 59 -27 48 -10 -4
6 0 22 9 35 9 13 13 31 10 39 -7 18 4 20 25 7 11 -7 21 4 43 50 33 70 38 144
11 166 -13 10 -15 16 -5 19 9 4 7 13 -8 32 -27 33 -7 49 28 21 30 -23 51 -24
78 -4 17 13 17 14 2 15 -9 0 -46 14 -81 31 -63 29 -97 63 -111 106 -8 24 -36
39 -46 23 -5 -7 -15 -8 -33 -1 -28 11 -35 25 -17 36 17 10 11 44 -9 55 -25 13
-23 13 -46 -4z"/>
<path d="M12695 9713 c2 -10 4 -21 4 -25 1 -5 7 -8 15 -8 11 0 12 5 3 25 -14
29 -27 33 -22 8z"/>
<path d="M12305 9710 c3 -5 16 -10 28 -9 21 0 21 1 2 9 -28 12 -37 12 -30 0z"/>
<path d="M12381 9692 c-7 -14 -18 -18 -43 -14 -30 4 -31 3 -14 -10 10 -8 31
-12 47 -10 24 4 28 8 23 24 -4 15 -3 18 6 13 9 -5 11 -4 6 3 -10 16 -14 15
-25 -6z"/>
<path d="M6700 9578 c1 -21 24 -53 40 -54 8 -1 23 -5 32 -9 32 -13 8 33 -29
55 -40 23 -43 24 -43 8z"/>
<path d="M6804 9486 c4 -10 1 -25 -5 -32 -8 -10 -8 -27 0 -64 10 -47 9 -55
-10 -81 -11 -16 -25 -29 -31 -29 -6 0 -4 -8 5 -18 20 -22 22 -48 4 -59 -10 -6
-11 -19 -4 -51 7 -39 13 -45 53 -62 24 -11 44 -24 44 -30 0 -6 8 -10 18 -8 11
2 18 -4 20 -20 4 -24 85 -112 104 -112 6 0 19 7 29 16 10 9 25 14 34 11 21 -9
20 -47 -2 -47 -15 0 -15 -2 1 -19 11 -12 31 -19 58 -19 22 -1 43 -3 46 -6 3
-4 14 1 24 11 17 15 20 15 41 -5 21 -20 27 -21 58 -10 19 6 37 16 40 21 4 5
14 7 24 4 24 -10 95 15 95 34 0 25 47 59 83 59 18 0 38 5 44 11 8 8 17 8 33
-1 29 -16 34 -8 16 27 -21 41 -41 55 -73 52 -53 -6 -120 39 -80 54 8 3 7 7 -5
12 -23 9 -78 -16 -78 -35 -1 -12 -3 -11 -14 3 -9 11 -17 14 -21 8 -3 -6 -21
-8 -41 -5 -21 3 -34 1 -34 -5 0 -6 -17 -11 -38 -11 -21 0 -43 -5 -49 -11 -8
-8 -19 -6 -41 5 -17 9 -38 16 -47 16 -9 0 -27 7 -41 16 -19 13 -22 19 -13 31
9 10 9 16 -3 26 -8 7 -29 34 -47 60 -28 43 -29 48 -11 42 16 -5 12 2 -15 29
-32 32 -35 40 -29 72 8 44 -15 72 -66 80 -44 7 -52 12 -69 39 -11 18 -12 18
-7 1z"/>
<path d="M7760 9305 c0 -8 7 -15 16 -15 14 0 14 3 4 15 -7 8 -14 15 -16 15 -2
0 -4 -7 -4 -15z"/>
<path d="M7839 9273 c-8 -10 -27 -25 -42 -33 -16 -8 -35 -26 -43 -41 -10 -20
-19 -26 -34 -22 -13 3 -20 0 -21 -8 -1 -8 -2 -23 -3 -34 -1 -11 -3 -30 -4 -42
-1 -16 -8 -23 -22 -23 -19 0 -20 -2 -6 -35 9 -20 11 -37 5 -40 -5 -4 -6 -24
-3 -46 4 -25 2 -44 -6 -54 -10 -12 -7 -19 18 -40 17 -14 34 -35 37 -45 7 -21
35 -28 35 -9 0 6 7 9 15 5 8 -3 15 -1 15 4 0 18 21 10 45 -16 15 -17 29 -23
37 -18 22 14 37 13 74 -5 29 -14 41 -16 60 -7 13 6 24 14 24 19 0 4 7 7 15 7
17 0 20 16 5 25 -18 11 -10 25 15 25 14 0 25 5 25 10 0 6 9 10 20 10 11 0 20
5 20 11 0 5 5 7 11 4 6 -4 17 2 25 14 8 12 21 21 27 21 15 0 13 128 -2 143 -8
8 -11 6 -11 -7 0 -10 -3 -16 -7 -14 -70 33 -163 117 -163 146 0 24 -85 101
-101 91 -8 -5 -20 -2 -30 7 -15 14 -18 13 -30 -3z"/>
<path d="M6761 8989 c-9 -21 -49 -46 -58 -36 -1 1 -8 -7 -16 -17 -9 -12 -19
-16 -27 -11 -9 5 -11 4 -6 -3 4 -7 2 -12 -3 -12 -6 0 -11 -9 -11 -19 0 -27
-32 -81 -49 -81 -8 0 -11 -7 -8 -20 4 -15 1 -20 -11 -18 -11 2 -17 -4 -17 -17
0 -27 -32 -32 -40 -6 -3 12 -13 21 -22 21 -9 0 -13 6 -10 14 4 9 -10 29 -34
50 -21 20 -39 40 -39 44 0 17 -37 42 -61 42 -16 0 -42 16 -72 45 -38 36 -47
41 -47 25 0 -11 5 -20 11 -20 22 0 129 -122 129 -146 0 -12 7 -29 15 -38 9 -9
11 -17 5 -21 -17 -11 -11 -59 9 -72 16 -10 18 -18 11 -47 -8 -38 -5 -47 14
-40 7 3 13 -7 14 -25 2 -24 -3 -30 -25 -36 -16 -4 -22 -10 -15 -12 7 -3 24
-16 37 -29 13 -13 28 -24 33 -24 5 0 12 -9 15 -20 3 -12 14 -20 25 -20 12 0
24 -4 27 -10 11 -18 23 -11 34 20 8 25 13 29 28 22 51 -26 72 -32 114 -29 41
2 46 4 38 20 -12 22 2 22 41 2 17 -9 30 -11 30 -6 0 6 24 8 57 6 71 -6 93 0
93 27 0 16 5 19 24 16 18 -4 26 0 29 14 3 10 13 18 24 18 10 0 27 7 37 15 16
12 17 18 8 27 -13 13 -16 48 -4 48 4 0 13 -5 19 -11 6 -6 20 -8 32 -4 21 6 21
6 1 27 -14 15 -17 25 -9 34 5 7 14 26 19 43 7 27 5 33 -20 53 -15 13 -42 44
-60 71 -17 26 -38 47 -46 47 -8 0 -31 16 -52 35 -22 19 -42 32 -45 29 -3 -4
-23 3 -43 15 -20 12 -54 28 -74 35 -35 12 -37 12 -49 -15z"/>
<path d="M8054 8785 c-18 -13 -18 -14 -1 -15 10 0 16 -4 13 -9 -3 -5 3 -11 14
-14 28 -7 34 9 12 33 -16 18 -20 18 -38 5z"/>
<path d="M9159 8693 c12 -23 54 -58 64 -55 4 1 7 -2 7 -8 0 -5 9 -10 20 -10
11 0 20 3 20 8 -1 14 -38 52 -52 52 -8 0 -23 7 -34 15 -26 20 -37 19 -25 -2z"/>
<path d="M7890 8667 c0 -9 -9 -18 -19 -22 -17 -5 -47 -54 -64 -107 -7 -21 -28
-23 -45 -6 -9 9 -12 9 -12 -3 0 -9 11 -16 27 -17 43 -3 42 -14 -2 -12 -63 3
-73 1 -56 -9 8 -5 20 -7 28 -4 16 6 16 1 1 -32 -6 -14 -17 -25 -25 -25 -23 0
-33 -42 -14 -64 15 -17 15 -19 -6 -33 -13 -9 -23 -22 -23 -29 0 -8 -9 -14 -20
-14 -27 0 -26 26 5 83 15 30 20 49 14 53 -6 3 -9 15 -6 25 6 23 -18 26 -27 4
-3 -8 -17 -15 -30 -15 -25 0 -52 -32 -42 -49 8 -13 -72 -23 -94 -11 -28 15
-40 12 -40 -10 0 -13 7 -20 18 -20 26 0 34 -11 21 -27 -9 -10 -8 -18 5 -31 9
-10 16 -32 16 -49 0 -20 8 -36 23 -47 15 -12 17 -16 5 -12 -10 3 -18 2 -18 -3
0 -5 -18 -8 -40 -7 -26 0 -44 -5 -50 -14 -12 -20 6 -38 22 -22 26 26 67 0 68
-42 0 -10 11 -27 25 -38 14 -11 25 -25 25 -33 0 -7 7 -15 15 -19 8 -3 15 -1
15 4 0 20 19 9 39 -24 22 -34 28 -86 12 -86 -6 0 -6 -11 0 -29 7 -19 20 -31
42 -38 27 -8 32 -14 30 -36 -1 -21 3 -27 18 -27 10 0 19 -5 19 -11 0 -5 -4 -7
-10 -4 -12 8 -13 3 -1 -28 7 -18 5 -30 -5 -46 -14 -19 -13 -20 3 -14 40 15 93
54 94 71 1 9 1 30 1 46 -1 22 2 26 11 17 20 -20 46 -12 62 20 14 27 15 38 4
81 -7 27 -23 57 -34 66 -11 10 -20 22 -19 27 3 34 19 65 35 70 12 4 19 16 19
31 0 13 9 29 20 36 11 7 20 17 20 23 0 18 67 48 95 43 17 -4 29 0 35 11 5 9
10 12 10 8 0 -4 16 8 35 28 20 19 40 35 45 35 6 0 10 16 10 35 0 19 4 35 9 35
5 0 7 9 4 20 -4 14 3 30 18 46 20 21 22 28 11 45 -7 11 -10 29 -7 39 15 48 12
116 -5 138 -22 27 -35 28 -52 4 -10 -14 -25 -18 -59 -17 -25 1 -51 5 -57 9 -6
3 -13 2 -17 -4 -3 -5 -15 -10 -26 -10 -10 0 -19 -7 -19 -15 0 -9 -9 -15 -25
-15 -18 0 -28 7 -35 26 -6 14 -8 29 -5 34 3 4 -2 13 -10 20 -12 10 -15 10 -15
-3z m-210 -391 c0 -3 -7 -11 -15 -20 -14 -13 -12 -19 16 -51 17 -19 41 -38 53
-41 24 -6 77 -108 75 -147 0 -12 -3 -16 -6 -9 -2 6 -11 12 -18 12 -7 0 -15 9
-18 19 -4 17 -16 20 -80 23 -52 2 -73 0 -70 -8 2 -6 -3 -14 -11 -17 -11 -4
-23 7 -40 35 -20 34 -22 43 -11 55 8 7 18 13 24 13 6 0 20 9 32 21 l20 20 -25
24 c-29 27 -32 35 -12 35 8 0 17 7 20 16 4 10 14 14 26 11 11 -3 23 -1 26 4 5
9 14 12 14 5z m-130 -66 c0 -5 -2 -10 -4 -10 -3 0 -8 5 -11 10 -3 6 -1 10 4
10 6 0 11 -4 11 -10z m305 -241 c8 -12 -33 -55 -42 -45 -8 8 14 56 26 56 5 0
13 -5 16 -11z m-155 -20 c0 -5 -4 -9 -10 -9 -5 0 -10 7 -10 16 0 8 5 12 10 9
6 -3 10 -10 10 -16z m60 -13 c0 -3 -4 -8 -10 -11 -5 -3 -10 -1 -10 4 0 6 5 11
10 11 6 0 10 -2 10 -4z m46 -172 c-25 -18 -32 -18 -40 1 -4 10 1 15 14 15 11
0 20 5 20 12 0 9 3 9 13 -1 10 -10 8 -15 -7 -27z"/>
<path d="M7145 8580 c-3 -16 -2 -37 4 -47 8 -14 10 -8 11 30 0 54 -5 60 -15
17z"/>
<path d="M7145 8460 c-7 -12 2 -30 16 -30 12 0 12 27 0 35 -5 3 -12 1 -16 -5z"/>
<path d="M10725 8451 c-3 -5 -1 -12 5 -16 5 -3 10 1 10 9 0 18 -6 21 -15 7z"/>
<path d="M7152 8403 c-6 -3 -10 -9 -6 -14 3 -5 -1 -9 -8 -9 -8 0 -6 -5 5 -11
13 -8 15 -14 7 -24 -13 -16 -3 -45 16 -45 21 0 18 56 -3 65 -16 7 -15 9 6 14
19 5 21 8 10 17 -8 6 -20 9 -27 7z"/>
<path d="M7342 8373 c2 -20 9 -29 26 -31 31 -5 29 21 -4 43 -25 16 -25 16 -22
-12z"/>
<path d="M6460 8378 c-14 -6 -49 -12 -79 -14 -54 -3 -78 -19 -61 -39 11 -13
-66 -59 -81 -49 -5 3 -6 -2 -3 -10 8 -20 -28 -29 -59 -15 -16 7 -37 8 -54 4
-15 -5 -34 -7 -40 -6 -17 3 -16 -10 2 -35 8 -12 11 -24 8 -28 -3 -3 -1 -6 5
-6 7 0 12 -7 12 -15 0 -8 4 -15 10 -15 5 0 7 6 4 14 -3 8 -1 17 5 20 13 8 60
-54 54 -71 -3 -8 2 -13 12 -13 9 0 28 -9 42 -20 27 -21 68 -27 77 -11 6 10 57
8 74 -3 8 -5 10 -2 6 8 -7 18 0 20 26 6 14 -8 19 -5 25 13 4 12 6 29 5 36 -2
13 0 13 16 0 11 -8 15 -9 10 -1 -4 6 -3 12 2 12 6 0 8 9 5 20 -3 12 1 22 11
26 9 3 16 16 16 29 0 13 7 25 15 29 19 7 19 43 0 76 -8 14 -14 35 -15 48 0 24
-12 26 -50 10z"/>
<path d="M7296 8335 c-4 -12 -10 -13 -23 -7 -10 6 -28 6 -40 1 -28 -10 -31
-23 -4 -14 14 4 21 0 26 -15 7 -21 35 -28 35 -9 0 5 3 8 8 5 4 -2 15 1 25 8
16 12 16 14 -2 30 -17 15 -19 15 -25 1z"/>
<path d="M7153 8263 c-18 -6 -16 -28 3 -43 12 -11 18 -11 30 2 13 13 13 16 -3
30 -10 8 -24 13 -30 11z"/>
<path d="M7095 8202 c-15 -10 -12 -35 6 -63 16 -24 17 -24 14 19 -2 47 -6 54
-20 44z"/>
<path d="M7157 8143 c-4 -3 0 -17 9 -31 8 -13 13 -26 10 -29 -10 -10 15 -33
36 -33 17 0 19 4 13 27 -6 25 -43 72 -56 73 -3 0 -9 -3 -12 -7z"/>
<path d="M7910 8003 c0 -4 5 -15 10 -23 8 -13 10 -13 10 2 0 9 -4 20 -10 23
-5 3 -10 3 -10 -2z"/>
<path d="M7837 7723 c-4 -3 -7 -10 -7 -14 0 -11 29 -19 35 -10 6 11 -20 33
-28 24z"/>
<path d="M7672 7645 c-11 -25 -11 -26 10 -23 15 2 23 10 23 22 0 29 -20 30
-33 1z"/>
<path d="M7641 7613 c-1 -6 -4 -20 -7 -30 -5 -17 -5 -17 6 0 6 10 9 23 6 30
-3 9 -5 9 -5 0z"/>
<path d="M7827 7613 c-10 -9 -9 -23 1 -23 5 0 9 7 9 15 0 17 -1 18 -10 8z"/>
<path d="M7620 7550 c0 -5 -15 -10 -32 -10 -25 0 -29 -3 -18 -10 27 -17 60
-12 60 10 0 11 -2 20 -5 20 -3 0 -5 -4 -5 -10z"/>
</g>
</svg>
