<?xml version="1.0" standalone="no"?>
<!DOCTYPE svg PUBLIC "-//W3C//DTD SVG 20010904//EN"
 "http://www.w3.org/TR/2001/REC-SVG-20010904/DTD/svg10.dtd">
<svg version="1.0" xmlns="http://www.w3.org/2000/svg"
 width="498.467043pt" height="844.521500pt" viewBox="0 0 498.467043 844.521500"
 preserveAspectRatio="xMidYMid meet">
<metadata>
Created by potrace 1.15, written by Peter Selinger 2001-2017
</metadata>
<g transform="translate(-804.532957,1385.842419) scale(0.100000,-0.100000)"
fill="#222222" stroke="none">
<path d="M9727 13828 c-3 -19 1 -42 8 -54 7 -11 15 -34 17 -50 2 -20 12 -33
31 -42 15 -7 27 -18 27 -23 0 -6 14 -15 30 -20 30 -11 40 -34 18 -41 -6 -2 -9
-11 -5 -20 6 -18 77 -23 77 -6 0 5 7 17 16 26 11 10 13 17 5 20 -6 2 -11 11
-11 20 0 15 -2 15 -10 2 -7 -12 -12 -7 -25 24 -9 21 -24 40 -34 43 -12 3 -18
14 -18 30 0 14 -6 29 -13 33 -9 6 -9 9 -1 15 7 4 19 1 27 -6 12 -10 12 -14 2
-20 -9 -6 -4 -9 14 -9 14 0 33 -3 42 -6 20 -8 20 5 0 31 -13 17 -16 18 -24 5
-8 -12 -10 -9 -10 12 0 21 -6 29 -25 34 -14 3 -25 10 -25 14 0 5 -9 6 -19 3
-12 -3 -17 -11 -14 -19 9 -23 -18 -16 -39 11 -26 33 -35 32 -41 -7z"/>
<path d="M9957 13734 c-3 -3 -3 -13 0 -22 5 -14 3 -15 -8 -4 -22 20 -38 14
-37 -16 1 -21 8 -32 27 -40 14 -6 32 -26 40 -43 13 -29 15 -30 25 -13 5 11 10
26 11 34 0 8 6 14 12 13 7 -2 -1 20 -18 47 -30 49 -39 56 -52 44z"/>
<path d="M9541 13655 c-1 -12 3 -25 8 -30 6 -6 4 -24 -3 -47 -7 -20 -10 -40
-7 -45 11 -14 49 -32 55 -26 11 11 -6 108 -21 116 -8 5 -18 18 -23 30 -8 21
-9 21 -9 2z"/>
<path d="M10090 13560 c0 -6 7 -10 15 -10 8 0 15 2 15 4 0 2 -7 6 -15 10 -8 3
-15 1 -15 -4z"/>
<path d="M10006 13534 c-19 -14 -19 -14 1 -14 11 0 24 -7 27 -16 8 -22 9 -21
-14 -27 -14 -4 -25 1 -33 14 -14 23 -27 25 -27 3 0 -14 -3 -14 -16 -3 -13 10
-17 10 -25 -2 -5 -8 -9 -10 -9 -5 0 5 -6 3 -13 -3 -10 -8 -29 -8 -63 -2 -38 8
-51 7 -60 -4 -10 -14 -63 -14 -96 0 -14 6 -18 2 -18 -15 0 -15 -5 -20 -14 -17
-25 10 -7 -19 20 -31 13 -7 24 -17 24 -24 0 -7 7 -26 16 -43 9 -16 18 -46 20
-67 3 -30 -3 -43 -31 -74 -19 -21 -35 -44 -35 -51 0 -7 -4 -13 -10 -13 -13 0
0 -30 24 -54 19 -19 19 -21 3 -24 -24 -5 -22 -14 12 -48 15 -16 31 -39 35 -51
4 -13 12 -23 17 -23 6 0 8 -8 4 -19 -3 -12 0 -21 10 -25 8 -3 15 -16 15 -28 0
-13 8 -32 16 -43 15 -20 16 -19 44 14 29 34 50 35 50 0 0 -12 7 -19 19 -19 10
0 24 -7 31 -15 7 -8 19 -15 26 -15 18 0 18 -49 0 -56 -11 -4 -8 -11 10 -31 13
-14 21 -29 19 -34 -7 -11 32 -31 53 -27 10 2 30 -5 45 -15 19 -13 37 -16 66
-11 43 7 130 -25 133 -48 0 -7 2 -17 3 -23 2 -5 3 -16 4 -22 0 -7 10 -13 20
-13 11 0 28 -11 39 -25 11 -14 25 -25 31 -25 20 0 31 -44 14 -57 -8 -6 -13
-16 -10 -20 8 -13 -57 -68 -80 -68 -11 0 -24 -13 -33 -32 -9 -20 -20 -31 -28
-28 -21 8 -71 -26 -64 -43 3 -8 -3 -21 -13 -28 -15 -11 -15 -14 -4 -19 18 -7
18 -124 0 -168 -12 -31 -6 -51 12 -44 7 2 23 -19 38 -47 16 -32 38 -58 60 -70
27 -16 31 -17 21 -4 -8 10 -10 23 -6 30 17 26 -11 103 -35 95 -16 -5 -53 33
-47 48 10 28 50 15 54 -17 4 -33 12 -35 32 -8 17 24 30 26 30 5 0 -23 20 -60
39 -72 10 -6 40 -14 67 -18 48 -6 49 -6 28 12 -12 10 -26 28 -32 40 -9 17 -8
20 6 19 18 -1 69 -46 52 -46 -5 0 -7 -7 -4 -15 4 -8 11 -15 18 -15 6 0 20 -10
30 -21 18 -21 18 -21 44 30 15 29 28 48 30 42 2 -5 12 -7 22 -4 17 4 20 0 20
-25 0 -17 -4 -34 -10 -37 -14 -9 -9 -73 7 -87 7 -6 11 -19 8 -29 -8 -23 -1
-24 31 -2 25 16 26 16 49 -13 20 -25 22 -31 9 -40 -7 -6 -14 -18 -14 -26 0 -9
-7 -21 -15 -28 -19 -16 -20 -40 -1 -40 22 0 26 -57 5 -67 -17 -8 -17 -10 1
-45 10 -20 15 -39 12 -42 -10 -10 -42 -6 -42 5 0 5 -4 8 -9 4 -5 -3 -26 12
-46 32 -27 27 -46 38 -68 39 -18 0 -39 4 -48 8 -12 5 -18 1 -22 -15 -4 -15
-11 -20 -24 -17 -16 4 -18 0 -15 -23 3 -20 0 -29 -9 -29 -9 -1 -8 -4 4 -11 9
-5 21 -8 26 -5 19 12 31 -20 19 -52 -10 -26 -16 -30 -35 -26 -17 5 -23 2 -23
-10 0 -9 -8 -16 -21 -16 -11 0 -18 -4 -15 -9 4 -5 -8 -12 -25 -16 -28 -6 -30
-9 -16 -22 13 -14 13 -17 0 -33 -9 -10 -23 -15 -33 -13 -14 4 -25 -7 -44 -45
-14 -27 -32 -52 -41 -55 -8 -4 -15 -18 -15 -32 0 -14 -9 -34 -20 -45 -11 -11
-19 -26 -18 -33 2 -6 -6 -12 -17 -12 -11 0 -23 -4 -27 -10 -4 -5 -10 -2 -14 8
-6 18 -44 24 -44 7 0 -19 -67 -23 -94 -4 -22 14 -31 15 -52 5 -14 -6 -33 -11
-42 -11 -9 0 -31 -14 -49 -30 -17 -16 -34 -26 -37 -22 -3 5 -28 8 -56 6 -27
-1 -52 2 -56 7 -3 5 -14 9 -25 9 -11 0 -19 7 -19 18 -1 32 -26 51 -81 63 -59
12 -130 52 -126 71 1 6 -10 13 -26 14 -15 2 -35 10 -44 20 -10 10 -19 12 -21
6 -2 -6 -9 -9 -17 -6 -7 3 -16 1 -20 -5 -10 -17 -56 -13 -77 6 -14 13 -21 14
-30 5 -9 -9 -17 -7 -32 7 -12 11 -25 21 -31 22 -25 4 -52 18 -65 34 -13 15
-12 17 10 13 20 -2 26 2 28 21 3 20 1 22 -15 16 -10 -5 -28 -8 -40 -8 -13 1
-23 -3 -23 -7 0 -4 -8 -7 -17 -6 -11 0 -20 -10 -26 -29 -5 -16 -17 -47 -26
-67 -14 -31 -20 -36 -42 -31 -19 3 -28 0 -33 -12 -8 -22 1 -36 19 -29 11 5 13
-5 9 -47 -2 -30 -7 -61 -10 -71 -4 -13 0 -18 16 -18 14 0 21 -6 19 -17 -3 -39
1 -45 26 -39 18 5 25 2 25 -9 0 -8 -6 -15 -12 -15 -8 -1 -6 -6 5 -14 9 -7 17
-20 17 -29 0 -11 8 -14 33 -11 17 3 56 6 84 7 38 2 57 8 68 22 11 15 15 16 14
5 -3 -36 2 -50 20 -50 10 0 21 -7 25 -15 3 -8 13 -15 22 -15 14 0 15 7 10 45
-5 31 -4 45 4 45 17 0 2 42 -21 62 -20 17 -19 17 10 32 29 15 29 15 53 -21 12
-20 30 -49 39 -63 18 -27 9 -50 -19 -50 -12 0 -13 -3 -4 -12 7 -7 12 -19 12
-27 -1 -14 -2 -14 -13 1 -12 15 -14 15 -34 0 -11 -10 -24 -28 -28 -41 -8 -28
-44 -71 -59 -71 -12 0 -56 -63 -56 -80 0 -5 -6 -10 -14 -10 -19 0 -29 -29 -16
-45 8 -9 8 -14 0 -17 -6 -2 -21 -28 -33 -58 -19 -46 -29 -58 -69 -78 -27 -14
-48 -29 -48 -34 0 -6 9 -21 20 -35 11 -14 20 -32 20 -39 0 -8 7 -14 15 -14 25
0 34 -30 16 -61 -13 -23 -13 -31 -3 -41 10 -10 14 -10 21 1 7 11 10 9 16 -8 4
-12 2 -28 -4 -35 -6 -7 -8 -16 -4 -19 3 -4 1 -13 -5 -20 -6 -7 -12 -29 -13
-48 -2 -38 -35 -147 -51 -166 -7 -9 -7 -18 2 -28 15 -19 9 -28 -14 -19 -9 3
-13 11 -9 18 5 7 2 7 -8 -1 -9 -8 -20 -9 -29 -3 -23 15 -28 12 -41 -22 -14
-39 -70 -80 -90 -67 -23 14 -39 10 -39 -11 0 -17 -5 -19 -32 -13 -18 3 -35 7
-37 9 -2 2 -10 -4 -16 -13 -19 -25 -65 -3 -65 32 0 26 -41 62 -60 50 -24 -15
-50 -14 -50 3 0 13 -2 14 -9 4 -8 -13 -61 -7 -61 7 0 3 -7 14 -15 24 -13 18
-15 18 -57 -1 -24 -10 -49 -17 -56 -14 -11 3 -16 -10 -13 -30 0 -5 -7 -8 -16
-8 -13 0 -14 -3 -5 -12 7 -7 12 -20 12 -30 0 -13 8 -18 30 -18 28 0 37 -12 31
-44 -1 -4 5 -13 13 -20 8 -6 16 -22 18 -36 2 -20 17 -32 68 -57 45 -22 69 -41
79 -61 7 -17 25 -35 38 -41 13 -6 23 -17 21 -23 -1 -7 4 -24 11 -36 7 -13 10
-34 7 -46 -7 -28 19 -66 45 -66 10 0 19 -4 19 -10 0 -5 7 -10 15 -10 38 0 63
-129 28 -149 -13 -7 -14 -12 -6 -23 7 -7 10 -25 9 -39 -2 -20 4 -31 25 -43 16
-9 31 -17 34 -16 17 1 17 -1 0 -14 -15 -11 -17 -17 -7 -28 14 -18 -2 -38 -30
-38 -10 0 -18 -4 -18 -10 0 -5 5 -10 11 -10 6 0 9 -7 6 -15 -4 -8 -2 -17 3
-20 16 -10 11 -34 -10 -55 -27 -27 -12 -55 35 -64 19 -4 35 -10 36 -14 0 -4 2
-34 3 -67 1 -34 6 -66 10 -73 11 -19 36 -14 36 7 0 19 42 37 59 26 5 -2 20 6
33 18 20 18 29 21 46 14 12 -6 22 -17 22 -25 0 -9 3 -12 7 -9 3 4 13 1 21 -6
13 -10 15 -9 10 10 -3 12 -1 24 4 25 6 2 3 11 -6 21 -16 16 -16 17 2 17 12 0
29 -13 40 -32 26 -42 76 -72 107 -64 13 3 27 1 30 -4 4 -6 14 -8 24 -5 9 2 32
0 51 -5 23 -7 36 -7 38 0 2 5 10 10 17 10 8 0 18 8 24 17 8 16 16 11 65 -39
59 -61 63 -68 45 -97 -10 -15 -6 -26 20 -64 34 -50 39 -72 16 -81 -18 -7 -20
-37 -2 -55 6 -7 8 -11 2 -9 -5 1 -32 -18 -60 -44 -38 -35 -47 -49 -38 -60 16
-20 27 -108 13 -108 -7 0 -2 -8 11 -18 18 -15 23 -30 24 -76 1 -31 0 -54 -3
-51 -3 3 -16 -11 -29 -31 -20 -28 -22 -38 -13 -50 9 -10 9 -14 1 -14 -8 0 -8
-6 1 -20 7 -11 18 -20 24 -20 21 0 37 -30 41 -76 2 -25 8 -54 13 -63 11 -22
-22 -81 -46 -81 -16 0 -15 -2 1 -20 10 -11 23 -30 29 -43 6 -12 23 -23 36 -25
14 -2 40 -10 57 -20 26 -13 35 -14 45 -4 15 15 82 17 73 2 -6 -9 -2 -12 28
-14 19 -2 37 -23 37 -45 0 -12 16 -38 36 -59 20 -20 31 -29 24 -19 -10 14 -10
17 4 17 21 0 20 9 -9 71 -24 52 -25 73 -4 52 9 -9 19 -6 40 10 16 11 29 26 29
33 0 6 8 14 18 17 9 4 29 16 44 29 23 18 33 20 55 12 36 -12 69 16 53 46 -15
28 -13 32 13 25 21 -7 21 -6 3 7 -18 14 -18 15 5 34 18 15 23 27 21 53 -3 27
-1 33 12 27 9 -3 22 -9 30 -12 9 -3 16 4 21 23 3 15 15 36 26 46 10 10 19 26
19 37 0 13 8 20 28 22 16 2 27 9 27 18 0 8 22 26 50 41 l50 25 11 70 c6 38 17
84 23 103 6 19 8 38 4 44 -3 5 4 17 17 27 19 14 21 20 11 38 -6 11 -11 36 -11
56 0 34 1 35 48 42 63 9 63 9 46 49 -8 19 -14 37 -14 39 0 10 59 36 82 36 27
1 49 29 68 88 15 48 26 60 43 43 13 -13 41 -15 33 -3 -3 5 13 26 34 47 22 22
40 48 40 58 0 10 9 21 20 24 28 8 32 63 6 92 -21 23 -31 71 -15 71 26 0 48
-31 42 -61 -3 -16 -4 -29 -2 -29 2 0 19 4 37 9 20 6 32 6 32 0 0 -5 11 -9 24
-9 14 0 27 -4 31 -10 9 -14 35 -1 29 15 -4 8 7 20 24 29 27 14 31 14 43 0 7
-9 19 -32 25 -52 10 -29 10 -37 -2 -49 -8 -8 -14 -23 -14 -34 0 -11 -11 -24
-25 -31 -20 -9 -28 -8 -43 5 -23 21 -28 21 -35 3 -4 -10 -1 -13 9 -9 7 3 14 0
14 -6 0 -6 -4 -11 -9 -11 -5 0 -19 -11 -32 -24 -19 -20 -25 -22 -37 -10 -7 8
-31 14 -52 14 -32 0 -37 -3 -33 -19 4 -14 12 -18 38 -15 48 4 54 -8 75 -134 5
-29 14 -60 20 -67 7 -8 10 -21 7 -29 -8 -21 44 -28 59 -8 11 15 14 15 33 -2
12 -11 21 -25 21 -31 0 -14 75 -85 89 -85 5 0 12 -12 16 -27 8 -33 33 -63 52
-63 7 0 13 -7 13 -15 0 -8 6 -15 14 -15 8 0 16 -6 19 -13 6 -15 70 -14 75 1 2
6 -1 20 -7 30 -8 16 -4 29 19 64 l30 45 67 -15 c50 -11 71 -12 84 -3 11 6 30
11 44 11 16 0 25 6 25 15 0 8 9 15 21 15 11 0 17 5 14 10 -11 17 5 32 21 19 8
-6 14 -8 15 -3 0 5 4 -1 9 -13 16 -40 27 -25 23 30 -6 71 -9 77 -36 77 -48 0
-73 64 -29 75 24 6 24 6 6 27 -19 21 -19 21 4 16 18 -5 22 -2 22 16 0 12 5 27
12 34 9 9 8 12 -8 12 -16 0 -13 6 16 33 19 18 34 40 32 49 -2 9 2 19 7 23 6 3
11 15 11 26 0 11 11 24 25 31 13 6 27 19 30 30 4 10 15 18 26 18 16 0 19 5 14
20 -5 16 -2 20 14 20 12 0 21 3 21 8 0 4 10 12 22 17 13 6 27 19 33 31 6 11
15 19 22 17 7 -3 21 1 32 6 14 8 22 8 26 1 5 -8 12 -7 22 2 14 11 13 13 -7 18
-13 3 -24 13 -26 23 -4 32 -25 48 -54 42 -35 -8 -63 21 -39 39 21 15 30 55 17
79 -7 15 -7 18 2 12 7 -4 16 -1 21 6 4 8 23 15 41 16 66 5 118 15 118 24 0 6
23 24 50 41 28 18 53 41 56 53 4 16 11 21 23 18 11 -3 30 8 49 26 17 17 37 31
46 31 8 0 16 9 18 21 l3 21 26 -20 c18 -15 52 -24 110 -31 132 -17 166 -15
180 12 7 12 18 26 25 30 9 5 11 18 8 36 -5 25 -2 31 22 42 36 18 53 88 29 122
-20 29 -20 78 0 71 19 -8 19 6 0 32 -9 14 -29 23 -55 27 -50 6 -57 12 -40 32
7 8 10 22 6 31 -3 8 -1 25 5 36 8 14 7 28 -1 49 -15 34 -19 35 -48 9 -29 -27
-82 -38 -82 -17 0 8 -11 24 -25 34 -18 13 -26 29 -29 63 -2 30 -9 46 -19 48
-18 4 -30 79 -15 105 7 13 7 22 -1 30 -14 14 -14 54 0 59 17 6 32 100 17 110
-13 7 -18 7 -65 -7 -20 -5 -23 -3 -23 19 0 30 -19 76 -32 76 -5 0 -11 -7 -14
-15 -7 -18 -24 -10 -24 12 0 9 -8 22 -17 29 -29 21 -64 16 -88 -12 -17 -20
-28 -25 -42 -19 -34 16 -72 15 -88 -2 -11 -11 -20 -12 -27 -5 -6 6 -6 12 1 16
5 4 8 13 4 21 -3 10 1 15 12 15 12 0 15 5 11 16 -3 9 -6 23 -6 31 0 10 -6 14
-19 10 -23 -6 -51 9 -51 28 0 8 -18 20 -40 26 -24 7 -42 20 -46 31 -5 16 -12
19 -40 14 -18 -4 -43 -2 -53 4 -13 7 -22 7 -26 0 -3 -5 -17 -10 -30 -10 -27 0
-66 47 -48 58 12 9 4 92 -10 92 -5 0 -25 11 -43 25 -35 27 -65 30 -129 15 -30
-7 -43 -6 -56 6 -8 7 -23 14 -32 14 -9 0 -17 5 -17 11 0 8 -5 8 -15 -1 -12
-10 -20 -9 -40 4 -14 9 -25 21 -25 27 0 7 -9 9 -22 6 -22 -6 -48 7 -48 24 0 5
11 9 25 9 29 0 43 24 26 44 -10 11 -8 16 8 21 22 7 25 16 15 51 -4 14 -17 24
-36 28 -26 5 -29 8 -18 21 9 11 9 15 1 15 -7 0 -10 4 -6 9 3 5 1 12 -5 16 -5
3 -10 15 -10 25 0 14 -6 19 -21 17 -31 -3 -46 25 -31 58 14 31 39 42 55 25 9
-10 9 -14 0 -17 -7 -3 -13 -17 -12 -31 0 -16 3 -21 6 -12 3 8 11 18 18 22 17
10 7 58 -17 84 -16 18 -17 24 -5 46 10 20 17 24 30 16 9 -5 21 -7 25 -4 5 3
16 -6 26 -20 19 -24 69 -34 80 -15 4 5 26 19 51 31 54 26 80 17 89 -35 6 -31
26 -51 26 -25 0 6 7 10 15 10 10 0 15 10 15 26 0 20 3 24 13 17 13 -11 82 29
70 41 -4 3 -1 6 5 6 6 0 9 7 6 15 -7 18 -8 18 33 6 40 -12 90 5 99 32 4 14 12
17 30 13 14 -4 24 -2 24 4 0 5 9 10 20 10 11 0 20 3 20 8 0 4 10 18 23 32 13
14 30 47 39 73 15 45 14 49 -3 71 -17 22 -18 27 -4 60 13 31 19 35 39 30 18
-4 29 1 45 22 11 15 21 35 21 45 0 11 11 29 25 41 14 12 30 39 36 60 7 29 15
38 32 39 12 1 29 2 39 3 37 2 28 16 -10 16 -37 0 -42 3 -42 23 0 13 9 26 22
32 15 7 26 24 32 50 5 22 13 43 19 46 12 9 -24 28 -40 22 -7 -3 -13 2 -13 11
0 9 -4 16 -9 16 -5 0 -11 11 -13 25 -6 28 -4 29 23 14 18 -9 19 -8 11 8 -21
44 10 109 47 95 10 -4 12 -1 6 8 -6 10 -3 12 13 8 18 -5 24 2 42 48 20 54 31
167 17 180 -13 13 -7 34 9 34 9 0 14 7 13 18 -2 9 2 27 9 38 6 12 8 24 5 28
-9 9 28 46 47 46 22 0 70 88 70 129 0 29 3 31 35 31 30 0 37 5 52 39 10 21 23
40 28 41 18 5 80 47 94 64 9 10 11 25 5 43 -4 16 -6 32 -5 37 1 5 -6 25 -16
45 -9 20 -18 45 -20 55 -5 27 -8 29 -38 22 -28 -7 -32 -23 -11 -51 12 -16 11
-23 -3 -51 -15 -30 -19 -32 -59 -28 -39 3 -45 1 -60 -26 -9 -16 -25 -30 -34
-30 -9 0 -19 -4 -23 -10 -3 -5 -13 -6 -21 -3 -13 5 -15 1 -10 -15 4 -11 2 -23
-4 -27 -6 -3 -8 -11 -5 -16 11 -16 -5 -31 -20 -19 -11 9 -12 7 -8 -9 3 -12 1
-21 -6 -21 -6 0 -11 9 -11 20 0 11 -4 20 -10 20 -5 0 -10 7 -10 15 0 8 4 15
10 15 5 0 14 9 20 20 10 19 9 20 -17 14 -15 -4 -49 -16 -75 -27 -42 -18 -46
-23 -42 -46 5 -24 3 -26 -33 -27 -21 0 -53 -3 -70 -7 -25 -5 -33 -3 -33 8 0 8
-9 19 -20 25 -17 9 -20 8 -20 -8 0 -18 -3 -18 -47 -7 -31 8 -56 22 -73 43 -28
34 -47 40 -56 19 -4 -11 -13 -12 -44 -4 -36 10 -41 9 -75 -22 -21 -18 -43 -30
-50 -27 -7 2 -16 -2 -19 -11 -4 -9 -13 -13 -22 -9 -60 23 -64 21 -64 -28 0
-40 -3 -48 -24 -56 -34 -12 -86 -66 -86 -87 0 -14 -7 -11 -31 15 -16 17 -36
32 -43 32 -14 0 -29 -34 -27 -60 1 -10 -1 -11 -6 -4 -8 11 -33 18 -60 15 -7 0
-13 -12 -13 -25 0 -23 -2 -24 -37 -14 -20 5 -49 7 -64 4 -21 -4 -35 1 -59 24
-18 17 -35 28 -39 25 -4 -2 -8 1 -9 8 -7 54 -18 80 -39 94 -21 14 -22 18 -9
25 23 13 19 41 -9 68 -14 13 -24 29 -21 36 2 6 -6 21 -20 33 -13 12 -24 32
-24 46 0 18 -7 26 -25 31 -13 3 -29 12 -36 20 -6 8 -21 14 -34 14 -12 0 -30 9
-41 21 -15 17 -26 20 -56 15 -51 -8 -65 -1 -60 33 3 22 -1 29 -17 34 -18 4
-23 16 -20 43 0 4 -12 14 -28 24 -25 16 -30 16 -46 2 -16 -15 -20 -15 -44 0
-16 10 -28 27 -30 43 -2 16 -15 37 -29 48 -18 13 -24 26 -21 41 3 11 1 30 -3
41 -7 16 -9 13 -10 -15 -1 -36 -22 -75 -33 -63 -4 3 -7 1 -7 -5 0 -7 -5 -12
-11 -12 -6 0 -8 7 -5 17 4 10 4 14 0 10 -4 -4 -12 0 -18 7 -6 8 -27 15 -46 16
-58 3 -62 2 -55 -20 5 -15 3 -18 -8 -14 -9 3 -33 -6 -55 -20 -34 -21 -42 -23
-52 -11 -10 12 -17 11 -48 -3 -20 -9 -40 -21 -44 -27 -11 -15 -50 27 -44 48 2
11 -3 23 -15 30 -10 6 -19 17 -19 23 0 6 -13 26 -30 44 -33 37 -36 45 -18 56
6 4 19 -3 30 -16 14 -17 18 -19 18 -6 0 10 9 16 23 16 25 0 47 -17 47 -36 0
-18 -38 -28 -55 -14 -12 10 -13 7 -5 -21 12 -40 16 -44 33 -31 10 8 16 6 25
-9 11 -17 22 -19 67 -17 34 2 55 8 55 15 0 6 10 13 23 15 16 2 23 10 25 33 3
37 -18 80 -40 80 -9 0 -20 4 -24 8 -11 10 -62 9 -66 -3 -3 -9 -58 6 -85 23 -8
5 -13 4 -13 -2 0 -6 5 -11 10 -11 18 0 10 -18 -10 -23 -15 -4 -20 0 -22 16 0
12 -2 28 -2 35 -2 23 -29 31 -50 16z m-1 -194 c3 -5 1 -10 -4 -10 -6 0 -11 5
-11 10 0 6 2 10 4 10 3 0 8 -4 11 -10z m52 -30 l25 -19 -33 -20 c-25 -15 -36
-17 -46 -9 -10 8 -11 13 -3 18 8 5 7 9 -4 13 -23 9 -20 25 7 30 12 2 24 5 25
6 2 0 15 -8 29 -19z m383 10 c0 -5 -4 -10 -10 -10 -5 0 -10 5 -10 10 0 6 5 10
10 10 6 0 10 -4 10 -10z m-15 -49 c3 -5 1 -12 -5 -16 -5 -3 -10 1 -10 9 0 18
6 21 15 7z m-715 -225 c0 -3 -4 -8 -10 -11 -5 -3 -10 -1 -10 4 0 6 5 11 10 11
6 0 10 -2 10 -4z m75 -116 c3 -5 1 -10 -4 -10 -6 0 -11 5 -11 10 0 6 2 10 4
10 3 0 8 -4 11 -10z m1183 -48 c2 -7 -2 -10 -12 -6 -9 3 -16 11 -16 16 0 13
23 5 28 -10z m152 -179 c0 -19 -8 -16 -35 15 -33 37 -31 47 5 20 17 -12 30
-28 30 -35z m-217 4 c-4 -7 -8 -16 -8 -21 0 -17 -22 -17 -29 0 -4 10 0 22 11
29 20 15 37 9 26 -8z m587 -11 c0 -3 -4 -8 -10 -11 -5 -3 -10 -1 -10 4 0 6 5
11 10 11 6 0 10 -2 10 -4z m-497 -68 c31 -18 37 -28 37 -67 0 -28 -3 -32 -17
-26 -26 11 -75 6 -93 -9 -8 -7 -25 -16 -38 -19 l-23 -5 22 34 c17 28 19 37 9
50 -14 16 -11 21 22 40 30 16 53 17 81 2z m271 -33 c3 -8 1 -15 -5 -15 -6 0
-9 -7 -5 -15 3 -8 1 -15 -4 -15 -6 0 -10 14 -10 30 0 32 14 40 24 15z m972
-143 c11 -10 23 -33 27 -52 3 -19 9 -46 13 -59 6 -19 4 -22 -7 -16 -11 7 -11
6 1 -9 8 -10 15 -27 17 -38 3 -20 3 -20 -29 1 -18 11 -32 25 -31 31 2 5 -4 7
-12 4 -9 -4 -15 0 -16 10 -2 25 -4 30 -13 44 -5 8 -4 18 2 24 7 7 4 21 -10 44
l-20 34 29 0 c15 -1 37 -9 49 -18z m-1074 -207 c-4 -23 -21 -33 -35 -19 -6 6
23 44 34 44 3 0 4 -11 1 -25z m898 -65 c-19 -13 -30 -13 -30 0 0 6 10 10 23
10 18 0 19 -2 7 -10z m-45 -30 c17 -7 15 -9 -12 -9 -18 -1 -33 4 -33 9 0 12
17 12 45 0z m-1321 -156 c9 -3 13 -10 10 -15 -8 -14 -31 -11 -38 6 -6 16 3 19
28 9z m-1455 -974 c0 -11 -3 -10 -14 4 -8 11 -15 27 -15 35 0 11 4 10 15 -5 8
-10 14 -26 14 -34z m-5 -32 c-3 -5 -12 -4 -20 3 -7 6 -11 15 -8 21 3 5 12 4
20 -3 7 -6 11 -15 8 -21z m3176 -738 c0 -5 -4 -10 -10 -10 -5 0 -10 5 -10 10
0 6 5 10 10 10 6 0 10 -4 10 -10z m-3274 -511 c14 -15 14 -19 3 -19 -18 0 -59
28 -59 40 0 13 37 0 56 -21z m49 -111 c8 -31 -5 -37 -25 -13 -9 11 -9 15 -1
15 8 0 9 5 1 19 -14 28 -12 38 4 21 8 -8 18 -27 21 -42z m37 7 c0 -5 -5 -11
-11 -13 -6 -2 -11 4 -11 13 0 9 5 15 11 13 6 -2 11 -8 11 -13z m-377 -644 c7
-12 -12 -24 -25 -16 -11 7 -4 25 10 25 5 0 11 -4 15 -9z"/>
<path d="M12432 12997 c-12 -13 -22 -26 -22 -30 0 -12 52 -3 57 10 3 6 11 9
18 7 7 -3 16 -1 20 5 3 6 -2 11 -12 11 -11 0 -24 5 -29 10 -7 7 -17 3 -32 -13z"/>
<path d="M12345 12210 c-3 -5 -17 -10 -30 -10 -26 0 -41 -15 -25 -25 6 -4 8
-15 5 -25 -3 -10 -1 -21 5 -25 6 -4 8 -15 5 -24 -3 -10 4 -29 15 -44 11 -14
20 -34 20 -45 0 -24 22 -42 28 -24 2 7 23 12 47 12 36 0 44 4 48 22 8 29 -2
68 -17 68 -19 1 -66 72 -66 102 0 28 -22 39 -35 18z"/>
<path d="M12510 11985 c0 -8 4 -15 10 -15 5 0 7 7 4 15 -4 8 -8 15 -10 15 -2
0 -4 -7 -4 -15z"/>
<path d="M10150 11930 c0 -5 7 -7 15 -4 8 4 15 8 15 10 0 2 -7 4 -15 4 -8 0
-15 -4 -15 -10z"/>
<path d="M10290 11782 c0 -4 8 -18 17 -32 11 -15 16 -39 14 -65 -4 -56 20 -32
29 30 6 40 4 48 -14 60 -22 16 -46 20 -46 7z"/>
<path d="M10372 11531 l-24 -6 21 -27 c12 -14 21 -33 21 -42 0 -9 5 -16 10
-16 6 0 10 6 10 14 0 8 6 16 13 19 9 3 8 9 -4 23 -9 10 -18 24 -20 30 -2 6
-15 8 -27 5z"/>
<path d="M8057 10081 c-17 -6 -16 -8 7 -19 26 -12 32 -7 18 14 -4 6 -15 8 -25
5z"/>
<path d="M8095 10031 c-3 -5 -1 -12 4 -15 5 -3 11 1 15 9 6 16 -9 21 -19 6z"/>
<path d="M8130 10020 c0 -5 -18 -14 -39 -21 -27 -8 -38 -17 -36 -28 1 -9 -1
-26 -6 -38 -6 -17 -4 -23 11 -28 11 -4 20 -12 20 -20 0 -25 57 -75 86 -75 15
0 35 -7 45 -16 30 -27 43 -11 17 21 -21 26 -21 28 -3 21 52 -22 80 -11 117 46
16 25 16 27 -3 44 -11 10 -17 24 -14 32 7 19 -5 62 -17 62 -6 0 -8 -9 -5 -21
5 -19 3 -20 -51 -13 -32 4 -64 15 -76 25 -21 20 -46 25 -46 9z"/>
<path d="M12986 9371 c-4 -5 -4 -16 -1 -23 7 -19 -20 -42 -40 -35 -16 7 -20 3
-29 -36 -6 -26 -5 -27 21 -21 16 4 40 15 54 25 14 10 29 16 33 12 3 -3 6 9 6
28 0 44 -28 76 -44 50z"/>
<path d="M12728 9328 c-16 -18 -28 -36 -28 -40 0 -4 -7 -8 -15 -8 -8 0 -15 -8
-15 -18 0 -10 -7 -27 -15 -39 -13 -18 -13 -22 1 -33 8 -7 30 -14 49 -15 40 -3
85 -29 85 -50 0 -8 5 -15 10 -15 6 0 10 9 10 20 0 11 5 20 11 20 6 0 9 9 6 20
-3 14 1 25 13 33 15 9 17 14 7 26 -10 12 -9 13 3 6 8 -4 3 3 -11 16 -14 14
-36 44 -49 67 -13 23 -26 42 -29 42 -3 0 -18 -15 -33 -32z"/>
<path d="M10078 7553 c-15 -9 -29 -27 -33 -40 -3 -13 -12 -26 -20 -30 -12 -4
-7 -13 21 -39 19 -19 37 -34 38 -34 1 0 1 24 -2 53 -4 49 -2 54 22 65 17 7 24
17 20 27 -8 19 -12 19 -46 -2z"/>
<path d="M9559 7376 c-9 -6 -14 -16 -12 -23 6 -17 -16 -26 -32 -13 -12 10 -16
9 -21 -4 -7 -19 -30 -21 -37 -3 -4 9 -7 9 -15 -1 -5 -7 -16 -10 -24 -7 -9 4
-19 2 -23 -4 -3 -6 -15 -11 -26 -11 -12 0 -19 -7 -19 -19 0 -11 -4 -22 -10
-26 -5 -3 -7 -11 -5 -18 3 -7 1 -18 -4 -26 -7 -11 -13 -11 -32 3 -13 9 -32 16
-43 16 -10 0 -30 12 -44 27 -21 23 -26 25 -36 12 -13 -18 -70 -17 -93 2 -14
12 -15 11 -9 -9 6 -19 4 -22 -18 -22 -15 0 -30 8 -36 20 -6 11 -8 20 -5 20 3
0 1 9 -5 21 -7 12 -17 18 -27 15 -8 -3 -20 -3 -26 1 -6 4 -21 8 -34 9 -17 2
-23 -2 -23 -17 0 -21 -10 -25 -27 -8 -14 14 -113 -58 -113 -83 0 -11 -7 -18
-18 -18 -10 0 -22 -3 -26 -7 -15 -15 -100 -10 -130 8 -43 26 -49 24 -31 -12
11 -20 13 -35 7 -42 -5 -7 -6 -21 -1 -32 13 -32 10 -45 -7 -38 -12 4 -15 0
-13 -18 2 -13 0 -30 -4 -36 -6 -10 3 -13 36 -13 77 0 137 -35 137 -82 1 -30
16 -39 45 -28 16 6 42 8 58 4 24 -5 28 -10 23 -29 -3 -13 -2 -26 3 -30 5 -3
11 3 13 12 3 16 6 15 26 -5 21 -21 23 -21 48 -6 20 13 24 23 20 47 -4 24 2 35
27 59 18 16 32 39 32 51 0 20 5 22 50 22 48 0 95 26 95 52 0 16 49 3 63 -17
17 -24 54 -42 62 -30 3 5 12 10 18 9 9 0 9 -2 0 -6 -7 -2 -13 -13 -13 -24 0
-11 -8 -22 -17 -25 -55 -17 -61 -50 -18 -94 20 -21 24 -35 23 -72 -2 -32 3
-53 15 -66 20 -22 22 -32 4 -32 -14 0 -17 -66 -4 -87 15 -24 -13 -23 -29 2
-19 28 -29 32 -37 11 -4 -10 4 -19 23 -28 16 -7 27 -15 24 -19 -2 -4 11 -6 29
-5 32 1 32 1 35 -51 2 -42 7 -53 20 -53 27 0 45 17 39 34 -5 11 -1 16 13 16
13 0 20 7 20 20 0 24 11 25 49 5 28 -14 49 -45 31 -45 -13 0 -1 -30 29 -67 24
-30 30 -32 78 -30 29 1 53 5 53 10 0 14 27 7 45 -13 11 -13 31 -20 53 -20 38
0 89 -26 95 -49 4 -14 5 -14 6 0 0 9 10 19 22 22 11 3 23 15 26 26 3 13 14 21
25 21 16 0 19 5 15 26 -3 18 -1 24 9 20 14 -5 19 11 15 44 0 8 -3 31 -5 52 -5
57 -36 102 -73 106 -26 3 -81 42 -58 42 4 0 0 9 -10 20 -23 25 -28 43 -28 95
l0 40 -13 -32 c-17 -40 -22 -41 -49 -6 -19 23 -20 31 -12 70 6 23 14 43 19 43
5 0 6 5 3 10 -3 6 1 10 9 10 13 0 16 14 16 79 0 84 -5 93 -52 105 -28 6 -84
76 -69 86 4 3 11 17 14 31 5 21 -1 33 -41 71 -39 37 -51 44 -63 34z m-60 -75
c7 -5 12 -14 9 -21 -2 -7 -10 -4 -22 9 -19 21 -12 28 13 12z m-24 -51 c3 -5 1
-10 -4 -10 -6 0 -11 5 -11 10 0 6 2 10 4 10 3 0 8 -4 11 -10z m-599 -42 c-4 7
-1 12 9 12 19 0 11 -16 -16 -30 -16 -9 -19 -7 -19 11 0 19 2 20 17 8 11 -10
14 -10 9 -1z m722 -336 c2 -7 -6 -12 -17 -12 -21 0 -27 11 -14 24 9 9 26 2 31
-12z m5 -241 c15 -8 27 -22 27 -33 0 -20 -20 -24 -38 -6 -6 6 -22 13 -34 15
-12 2 -24 6 -27 9 -7 6 30 36 39 31 3 -1 17 -9 33 -16z"/>
<path d="M8410 7342 c0 -12 19 -26 26 -19 2 2 -2 10 -11 17 -9 8 -15 8 -15 2z"/>
<path d="M8303 7309 c-9 -9 -8 -16 3 -27 8 -8 18 -27 21 -43 8 -41 28 -55 57
-39 22 11 27 9 58 -24 34 -36 86 -54 80 -27 -1 7 3 19 9 27 9 10 9 14 0 14 -6
0 -38 27 -70 60 -33 33 -62 57 -65 52 -6 -10 -69 -3 -77 9 -3 5 -10 4 -16 -2z"/>
<path d="M9877 7247 c-3 -8 -1 -20 3 -27 6 -9 -2 -22 -23 -39 -21 -17 -33 -36
-34 -55 -1 -16 -7 -32 -12 -35 -5 -4 -13 -19 -16 -34 -7 -28 -2 -31 36 -28 13
1 18 -8 21 -39 2 -25 -1 -40 -8 -40 -19 0 -44 -34 -35 -49 5 -7 7 -21 4 -31
-3 -12 5 -21 26 -30 17 -6 33 -22 37 -34 11 -33 62 -88 70 -74 4 7 2 14 -4 16
-7 2 -12 11 -12 20 0 10 3 13 8 7 4 -5 16 -12 27 -13 11 -2 26 -9 33 -14 6 -6
27 -8 45 -4 18 3 27 2 19 -2 -7 -5 -12 -15 -10 -23 2 -8 -7 -15 -20 -17 -17
-3 -25 2 -29 17 -3 12 -11 21 -17 21 -16 0 -36 -21 -36 -38 0 -23 54 -82 76
-82 12 0 25 -10 32 -25 8 -18 8 -25 1 -25 -7 0 -8 -7 -4 -17 4 -10 7 -35 6
-55 -2 -36 0 -38 29 -38 23 0 30 5 30 19 0 10 7 22 16 25 22 9 24 8 24 -9 0
-8 5 -15 11 -15 6 0 9 -6 6 -14 -3 -7 0 -19 6 -25 21 -21 9 -84 -22 -111 -42
-37 -47 -64 -15 -78 18 -9 24 -17 19 -31 -5 -16 -2 -19 17 -15 13 2 17 2 11
-2 -7 -3 -13 -19 -13 -36 0 -25 -3 -29 -20 -25 -11 3 -20 2 -20 -3 0 -16 -58
-32 -78 -21 -25 14 -29 9 -24 -34 3 -26 11 -39 32 -50 22 -11 29 -25 39 -71 9
-48 9 -60 -4 -74 -8 -9 -15 -21 -15 -27 0 -16 42 -24 57 -11 10 8 17 2 29 -27
15 -38 79 -107 101 -111 15 -3 88 -75 89 -89 2 -23 17 -45 31 -45 21 0 125
-49 148 -70 11 -9 32 -20 47 -24 15 -3 29 -15 33 -26 6 -18 40 -37 59 -32 4 2
14 -3 22 -9 11 -9 24 -8 57 7 23 10 45 23 48 28 4 4 12 5 18 2 18 -11 71 4 71
20 0 8 10 14 24 14 26 0 72 52 62 69 -8 12 53 6 66 -7 13 -13 38 -4 38 14 0 9
12 14 35 14 19 0 35 4 35 9 0 5 9 11 20 14 14 4 20 14 20 33 0 27 0 27 21 8
12 -10 27 -31 35 -46 8 -15 28 -35 44 -43 18 -9 30 -23 30 -35 0 -14 7 -20 23
-20 12 0 27 -8 34 -19 14 -22 69 -35 86 -19 21 19 8 85 -20 103 -16 11 -21 20
-15 28 19 25 21 87 4 117 -14 24 -14 32 -4 39 10 6 10 10 -3 21 -12 10 -15 10
-15 -3 0 -12 -7 -13 -32 -7 -56 13 -68 21 -74 49 -4 14 -13 31 -21 38 -13 10
-12 13 5 22 11 6 29 12 39 14 11 1 31 12 45 23 21 17 26 28 24 60 -1 21 -8 49
-15 62 -10 18 -10 26 0 38 9 11 9 21 -1 43 -9 22 -9 34 0 51 7 12 10 31 7 41
-3 11 -1 34 3 51 6 20 5 38 -2 52 -15 29 -70 92 -77 88 -3 -2 -7 1 -9 7 -2 6
1 11 8 11 6 0 8 5 5 10 -4 6 -11 8 -16 4 -12 -7 -76 22 -81 38 -3 8 -11 7 -28
-3 -29 -15 -53 -13 -95 8 -16 9 -37 19 -45 23 -8 4 -27 2 -42 -4 -24 -9 -30
-7 -44 12 -8 12 -21 22 -27 22 -7 0 -17 13 -23 28 -8 19 -27 36 -59 52 -43 21
-48 21 -57 7 -7 -13 -14 -14 -35 -6 -20 7 -28 6 -35 -3 -6 -10 -8 -9 -8 4 0 9
6 19 13 22 6 3 3 4 -9 1 -30 -8 -59 7 -59 30 0 29 -33 32 -37 3 -2 -15 -11
-24 -25 -26 -22 -3 -22 -7 -17 -75 2 -39 10 -74 16 -78 6 -4 7 -12 3 -19 -5
-9 -2 -10 12 -6 11 3 38 0 61 -8 41 -15 42 -15 48 9 9 36 25 20 22 -22 -1 -24
-8 -37 -19 -40 -10 -3 -20 -11 -23 -19 -3 -8 -14 -14 -24 -14 -10 0 -27 -7
-38 -15 -10 -8 -27 -15 -36 -15 -11 0 -18 -8 -18 -19 0 -14 -8 -21 -27 -23
l-28 -3 2 -78 c1 -65 -1 -75 -12 -61 -14 19 -97 27 -128 11 -14 -6 -24 -3 -39
13 -13 14 -15 21 -7 19 35 -4 59 2 59 16 0 8 9 15 20 15 11 0 20 5 20 11 0 7
-9 9 -22 5 -45 -13 -57 -14 -77 -9 -29 7 -26 23 3 23 27 0 42 15 26 25 -8 5
-8 11 0 21 16 18 -5 80 -31 97 -10 6 -19 15 -19 20 0 4 4 5 10 2 5 -3 17 -2
26 3 13 7 10 13 -20 35 -19 15 -44 27 -55 27 -21 0 -38 37 -33 71 3 20 -42 51
-62 43 -9 -3 -16 -13 -16 -21 0 -9 -6 -13 -15 -9 -11 4 -15 -2 -15 -22 l-1
-27 -19 23 c-21 25 -17 54 6 45 9 -3 14 2 14 16 0 22 14 28 25 11 3 -5 12 -10
18 -10 8 1 7 5 -3 13 -8 7 -21 22 -28 35 -11 20 -10 22 10 22 19 1 17 4 -12
18 -47 23 -51 48 -8 57 70 14 68 12 52 50 -18 44 -18 55 2 55 8 0 13 4 10 9
-3 4 0 20 7 35 9 19 20 26 42 26 l30 1 -27 20 c-16 12 -25 26 -21 35 6 17 -15
74 -28 74 -14 0 -11 -18 4 -24 9 -3 7 -9 -5 -19 -19 -15 -25 -81 -8 -92 5 -3
7 -12 3 -21 -4 -11 -14 -13 -34 -9 -18 4 -29 2 -29 -4 0 -16 -26 -13 -40 5
-11 13 -10 16 9 21 19 5 22 11 17 34 -5 24 -2 28 24 34 21 5 30 13 30 27 0 11
7 35 16 54 16 34 16 36 -7 60 -19 21 -24 22 -31 9 -12 -20 -51 -19 -91 1 -37
19 -117 93 -117 109 0 5 -12 10 -27 11 -16 0 -35 4 -44 8 -10 4 -18 2 -22 -7z"/>
<path d="M9785 7120 c3 -5 11 -10 16 -10 6 0 7 5 4 10 -3 6 -11 10 -16 10 -6
0 -7 -4 -4 -10z"/>
<path d="M10220 7119 c0 -5 5 -7 10 -4 6 3 10 8 10 11 0 2 -4 4 -10 4 -5 0
-10 -5 -10 -11z"/>
<path d="M10290 7052 c0 -18 35 -41 49 -33 11 7 9 10 -8 16 -11 3 -21 11 -21
16 0 5 -4 9 -10 9 -5 0 -10 -4 -10 -8z"/>
<path d="M10275 7010 c-8 -14 3 -30 21 -30 8 0 14 -10 14 -25 0 -16 6 -25 15
-25 17 0 20 26 4 35 -6 4 -8 13 -5 21 3 8 -1 14 -9 14 -8 0 -15 5 -15 10 0 6
-4 10 -9 10 -6 0 -13 -4 -16 -10z"/>
<path d="M10380 6998 c0 -4 6 -8 14 -8 8 0 17 4 20 8 2 4 -4 8 -15 8 -10 0
-19 -4 -19 -8z"/>
<path d="M10355 6960 c3 -5 8 -10 11 -10 2 0 4 5 4 10 0 6 -5 10 -11 10 -5 0
-7 -4 -4 -10z"/>
<path d="M10401 6833 c14 -42 28 -52 62 -46 l27 5 -37 20 c-21 11 -43 28 -50
37 -10 13 -11 10 -2 -16z"/>
<path d="M10516 6787 c-17 -12 -17 -14 -2 -20 10 -4 16 -1 16 7 0 8 6 17 13
19 6 3 7 6 1 6 -5 1 -18 -5 -28 -12z"/>
<path d="M10570 6764 c0 -5 -9 -20 -20 -32 -19 -21 -20 -22 -1 -31 10 -6 21
-8 23 -5 3 2 13 -7 22 -21 9 -14 22 -25 28 -25 7 0 3 6 -8 14 -15 12 -17 18
-8 33 9 15 7 24 -12 48 -13 17 -24 25 -24 19z"/>
<path d="M9897 6373 c-4 -3 -7 -21 -7 -40 0 -23 5 -33 15 -33 13 0 15 7 9 38
-8 43 -8 44 -17 35z"/>
<path d="M9882 6258 c8 -12 20 -24 26 -26 18 -6 14 35 -4 42 -30 11 -37 6 -22
-16z"/>
<path d="M10012 6241 c6 -19 19 -42 28 -51 10 -10 22 -26 28 -36 10 -17 12
-17 29 -3 10 9 24 18 31 20 15 5 -27 52 -61 71 -17 9 -17 7 -6 -14 12 -22 11
-22 -7 -8 -10 8 -27 24 -36 35 -17 19 -17 19 -6 -14z"/>
<path d="M9910 6211 c0 -4 12 -21 27 -37 15 -16 28 -33 28 -39 0 -5 14 -11 30
-13 25 -2 27 -1 13 8 -10 6 -18 18 -18 26 0 8 -16 22 -35 30 -20 8 -33 19 -30
24 3 6 1 10 -4 10 -6 0 -11 -4 -11 -9z"/>
<path d="M11597 5676 c-16 -13 -16 -14 -1 -20 21 -8 42 10 29 23 -6 6 -17 5
-28 -3z"/>
<path d="M11475 5650 c-4 -6 -1 -17 5 -26 15 -18 42 0 33 22 -6 16 -29 19 -38
4z"/>
<path d="M11494 5544 c3 -9 6 -18 6 -20 0 -3 4 -3 10 1 11 7 2 35 -12 35 -6 0
-7 -7 -4 -16z"/>
</g>
</svg>
