<svg version="1" xmlns="http://www.w3.org/2000/svg" width="1338.438" height="876.862" viewBox="0 0 1003.829 657.646"><g fill="#222"><path d="M812.268 4.2c-.2 3.1.4 4.9 1.9 6.5 1.2 1.3 1.8 2.6 1.5 3-.4.3-.2 1.2.4 2 .9 1 .8 1.3-.2 1.3-1.1 0-1.1.2.1.9 1.8 1.2 3.1.5 2.3-1.4-.3-.8-.2-2.3.2-3.3.4-.9.9-3.7 1-6 .3-4.1.1-4.4-3-5.8-1.9-.8-3.6-1.4-3.8-1.4-.1 0-.4 1.9-.4 4.2zM820.968 6c0 .6.7 1 1.5 1s1.5-.2 1.5-.4-.7-.6-1.5-1c-.8-.3-1.5-.1-1.5.4z"/><path d="M800.868 14.2c-1.4 4.3-7.5 11.2-9.1 10.2-.5-.3-1.6.2-2.3 1.2-.8 1.1-1.5 1.5-1.5 1s-.7-.3-1.5.4c-1.3 1-1.9 1-3.4-.4-1.3-1.1-2.1-1.4-2.6-.7-.9 1.6-3.8 1.3-8.5-.8-2.4-1.1-4.9-1.7-5.7-1.4-1.5.6-1.7-1.5-.4-3.6.6-.9 1.9-1.1 4.2-.7l3.4.7-2.8-2.6c-1.6-1.4-2.7-3.2-2.4-3.9.5-1.3-1.9-2.6-5-2.6-1.6 0-1.7 2.9-.2 5 .8 1.1.9.8.4-1.3-.4-2.1-.2-2.8.7-2.4 1.3.4 1.4 1.4.3 7.6-.3 2.2 0 4.2 1 5.7 2 3 1.9 3.4-.6 3.4-1.6 0-1.9-.3-1.1-1.3.8-.9.6-1.6-.8-2.5-1.6-1-1.8-.9-1.5.8.2 1.3-.2 2-1.1 2-.8 0-1.4.9-1.4 2.1 0 1.6-.4 1.9-2 1.4-2.9-.9-2.6 2.1.3 4 2 1.3 4.7 5.4 4.7 7 0 .2-1.4-.1-3.1-.7-3.9-1.3-5.1.2-4.2 5.2.9 5.5 2.6 8 9.5 14.5 6.2 5.8 7.6 8.3 8.2 14.5.4 4.5 1.7 7 3.7 7 1 0 1.9.7 1.9 1.5v2.2c0 .4-1 .8-2.2.8-3.2 0-3.2 2-.1 4 3.7 2.5 5.5 4.3 7 7.3 1.2 2.2 1 2.6-1.2 4.4-1.6 1.2-2.5 3-2.5 4.6 0 2.6-.2 2.7-4 2.4-2.6-.3-4 0-4 .7s-1.5.1-3.3-1.3c-1.9-1.4-3.7-2.3-4-2-1 1-7-1.7-9.5-4.3-1.3-1.2-2.7-2.3-3.3-2.3-.5 0-3.5-1.6-6.5-3.5s-5.9-3.5-6.5-3.5c-.5 0-2.1-1.2-3.4-2.8l-2.3-2.7-1.1 2.8c-.8 2-.8 3.3.1 4.6.9 1.5.5 2.7-2.2 6.9-2.8 4.4-3.7 5.1-5.7 4.6-1.7-.5-2.3-.2-2.3 1 0 .9-.7 1.6-1.5 1.6s-1.5.6-1.5 1.4c0 1.8-5.4 4-8.5 3.4-1.8-.4-2.6 0-3.1 1.4-.3 1-2.2 3.4-4.1 5.3-3.5 3.4-6.6 4.4-7.7 2.6-.3-.5-1.7-1.1-3.1-1.3-2-.4-2.3-.3-1.4.8.6.8 1.6 1.4 2.1 1.4s3.2 2.2 6 5c2.8 2.7 5.7 5 6.5 5 .7 0 2.1 1.6 3 3.6 1.7 3.5 1.7 3.6-.5 5.4-2.7 2.2-2.7 2.9-.4 4.6 1.6 1.3 1.6 1.3-.1 1.4-2.2 0-6.7 2.9-6.7 4.2 0 .6 1 1.9 2.2 2.9l2.1 1.9h-2.1c-1.1 0-2.7-.9-3.4-1.9-.8-1.1-3.3-2.6-5.6-3.3-3.3-1-4.2-1.7-3.8-3 .5-2.1-5.6-7.8-8.4-7.8-1 0-2.2-.5-2.5-1-.3-.6-2-1-3.7-1-2.6 0-2.9.2-1.8 1.5 1 1.2.9 1.5-.4 1.5-1.2 0-1.5.6-1 2.5.5 2.1.3 2.5-1.6 2.5-1.2 0-1.8.4-1.5 1 .4.7-.3.8-2.2.4-4-1-4.5-1.4-3.3-2.9 1.2-1.5-.3-6.5-2-6.5-.6 0-1.5-1.3-2.1-2.8-1.3-3.8-10.3-7.7-15.4-6.8-2.9.6-3.6.3-4.6-1.6-.7-1.3-1.8-2.7-2.6-3.1-.7-.4-2.2-2.6-3.4-4.8-1.5-3.1-2.4-3.9-3.7-3.3-.9.4-2.9.9-4.4 1.2-2.2.3-3-.1-3.9-2.2-.7-1.4-1.7-2.6-2.2-2.6-.5 0-.2 1.1.7 2.5 2 3 2 3.5.1 3.5-1.3 0-2.1 3.3-1.6 6.3.1.5-.6 1.1-1.6 1.3-1.6.5-1.8 1.7-1.5 12.6.2 9.7.6 12.8 2.1 15.2 1 1.7 2.4 4.9 3.1 7.1.7 2.2 1.6 4.4 1.9 5 1.8 2.6.9 6.7-2.4 11.1-2.7 3.6-3.3 4.9-2.4 6 1.5 1.9.2 7.7-1.7 7-.9-.3-1.4.2-1.4 1.4 0 1.6-.7 2-3.6 2-3.1 0-3.5.3-2.9 1.7 1.8 4.5 1.7 5.2-.9 5.9-1.4.3-2.6 1-2.6 1.5 0 .9-4.1 5.4-5 5.4-.3 0-1.5 1-2.7 2.2-1.3 1.3-2.7 2.3-3.2 2.3s-.7.9-.4 2.1c.5 1.8.2 2-1.9 1.8-1.8-.3-3.7.7-6.7 3.4-2.2 2-4.8 3.7-5.6 3.7-1.6 0-6.5 4.6-6.5 6.1 0 .6-1.2.9-2.7.8-1.6-.1-3.8.1-4.9.5-2.6.8-3.9 5.6-1.6 5.6s6.1 4 5.5 5.7c-.3.8.6 2.7 2.1 4.2 2.3 2.4 2.5 3.2 1.9 7.6-.3 2.6-1.4 5.6-2.5 6.7-1 1-1.8 2.5-1.8 3.4 0 2.7-2 5.4-4 5.4-1.4 0-1.8.6-1.5 2.1.3 1.2.7 2.4.9 2.7.3.2-.2 1.1-1 1.9-.8.8-1.2 1.8-.9 2.2.2.5-.4 1.6-1.4 2.6-1.2 1-1.8 2.6-1.5 3.8 1.2 6.5 2.9 11.7 3.8 11.7 1.1 0 1.2 8.9.2 11.6-.3.8.4 2.3 1.6 3.4 1.6 1.4 1.8 2 .7 2-1 .1-.9.5.6 1.8 4.3 3.7 4.8 4.9 3.4 8.2-1 2.1-2.1 3-3.6 3-1.3 0-2.3.5-2.3 1.1 0 2.4-7.5 8.6-10.3 8.6-1.5 0-2.7-.3-2.7-.8s-.6-.9-1.4-.9c-.8 0-1.7-.7-2-1.6-.3-.9-1.2-1.4-2-1.1-.7.3-1.9 0-2.5-.6-.8-.8-1.1-.6-1.1.9-.1 2.2-2.2 5.4-3.8 5.4-2 0-2.1-2.9-.1-3.5 2.9-1 1.7-3.1-1.5-2.7-1.5.2-3.9-.4-5.3-1.3-1.8-1.2-2.8-1.4-3.2-.6-.5.8-1.3.7-2.7-.3-1.3-1-2.3-1.1-3.1-.4-.9.7-1.3.7-1.3 0 0-.5-1.8-.8-4.3-.5-3 .4-4.6.1-5.5-1-.7-.8-2.1-1.3-3.2-1-1.1.3-2 .1-2-.4s-2.3-1.5-5-2.2c-3.2-.8-5.8-2.2-7.1-3.9-1.8-2.3-2.8-2.7-6.9-2.6-2.7 0-5.5.5-6.2 1.1-2.9 2.3-11.8 2.2-17.9-.2-1.1-.4-1.8 0-2.1 1.3-.3 1.1-1.8 2.1-3.5 2.5-2.7.5-4.7 3.2-4.5 5.8.1.3-1.2.6-2.9.6s-3.5.8-4.4 1.9c-1.7 2.3-1.9 3.4-.5 3.4 1.5 0 1.2 1.6-.6 3.4-2.1 2.2-4.1 2-4.9-.5l-.7-2.1-1.5 2.1c-.8 1.2-2.2 2.1-3.2 2.1-1.6 0-5.1 5.5-5.1 8.1 0 .5-.8 1.9-1.9 3-1.6 1.7-1.9 1.8-3.1.4-.8-.9-2.9-1.5-5.9-1.5-4.3 0-4.7-.2-5.9-3.2-.6-1.8-.8-3.4-.4-3.7.5-.4 1.1-1.4 1.5-2.3.7-2-2.3-4.1-4.6-3.2-.8.2-2.8-.8-4.5-2.5-2.9-2.6-4.8-2.1-2.1.6 1.4 1.4.1 3.6-1.7 2.9-1-.4-1.4.3-1.4 2.2 0 1.8-1 3.6-2.9 5.3-3.1 2.8-4.7 6.4-3.2 7.4 1.4.8-.8 5.3-3 6-.9.3-1.9 1.2-2.2 1.9-.3.8-2 1.1-5 .9-2.5-.2-4.8.1-5.2.7-.3.5-1.5 1-2.5 1s-2 .5-2.2 1.2c-.2.6-1.7 1.1-3.4 1-2.3 0-3.3.6-4.7 3-1.7 3-1.7 3.1.2 4.4 1.6 1.2 1.7 1.8.8 4-1 2.1-1.7 2.5-4.6 2.1-2.9-.3-3.6.1-5.5 3-1.1 1.8-2.8 3.3-3.6 3.4-1 0-1.1.2-.2.6.6.2 1.2 1.3 1.2 2.3 0 1.3-.5 1.7-2 1.3-1.1-.3-3.4 0-5.1.7-2.6 1.1-3.2 1.1-3.9-.1-.5-.7-2.5-1.4-4.4-1.5-3.1-.1-3.6.2-3.6 2.2 0 1.6-.7 2.4-2.2 2.6-1.3.2-2.2.9-2.1 1.6.4 1.6-1.4 1.6-2-.1-.6-1.2-1.1 4.3-.8 7.7.1 1.6-.1 1.7-1.4.6-1.4-1.2-1.6-.8-1.4 2.9.3 3.4-.2 4.6-2.3 6.4-1.9 1.7-2.3 2.7-1.7 4.3.7 1.9 4.1 4.3 3.7 2.6-.4-2 1.7-4.2 3.9-4.2s2.3-.1.8-1.6c-2.2-2.2-1.6-2.5 4.8-2.5 4.5 0 5.9-.5 7.7-2.4 1.2-1.3 1.9-2.8 1.5-3.4-.4-.7.9-1.1 3.9-1.1 3.5 0 4.6.4 4.6 1.5 0 1.2.4 1.3 1.9.6 1-.6 2.1-.7 2.5-.4.3.3.6-.1.6-1 0-2.3 3.7-2.2 8.5.3 2.5 1.3 4.9 1.8 6.4 1.5 3.2-.8 7.1-4.5 7.1-6.7 0-1.5.4-1.6 2.5-.6 1.3.6 2.2 1.5 1.9 2-.7 1.2 1.9 3.5 3.4 3 .6-.2 1.2.1 1.2.7s.9 1.1 2 1.1 2-.5 2-1.1c0-.5.5-.7 1-.4.6.4 1.7.1 2.5-.5.8-.7 2.3-1 3.4-.7 2.2.5 5.1-.9 5.1-2.6 0-1.9 3.3-4.3 5.3-3.9 1.5.3 1.8-.1 1.5-2.1-.2-1.8.9-3.7 4-7.1 2.3-2.5 4.2-5.3 4.2-6.1 0-.9 1.6-3.2 3.6-5.2 2.5-2.4 3.2-3.9 2.5-4.6-.7-.7-.3-2 1.4-4.1 4.9-6.2 5.6-6.9 6.8-5.7.6.6 2.8 1.1 4.8 1.1 2.8 0 3.9-.5 4.1-1.8.3-1.3.9-.9 2.6 1.8 1.9 3.1 2 3.6.6 5.1-1.8 2-1.1 5.9 1 5.9.8 0 1.9.7 2.6 1.5.7.8 2.2 1.5 3.4 1.5 2.9 0 7.9-7.4 7.3-10.7-.4-2.4.8-3.2 1.6-1.1.4 1 .6 1 .6 0 .1-.9.7-.8 2.6.4 1.3.8 2.9 1.3 3.5.9.5-.3 2.4.1 4.2.9 4.1 2.1 5.5 2 7.5-.4 1.1-1.2 2.4-1.8 3.8-1.4 1.3.3 2.7-.1 3.4-1 1.7-2 3.1-2.1 3.1-.2 0 .8.6 1.6 1.3 1.9 1.6.5-.9 3.7-2.9 3.7-.8 0-1.4.5-1.4 1.1 0 .7-1.1.4-2.7-.6-2.5-1.7-2.6-1.7-1.9 0 .4 1.2.2 1.6-.8 1.2-.8-.3-1.7-.1-1.9.6-.3.9-.8.8-2-.2-1.5-1.2-1.7-1-1.7 1.9 0 2.7-.3 3.2-2 2.7-2.8-.7-5.3 3.4-4.1 6.7.6 1.3.8 2.7.5 3-.2.3.2.2.8-.4 1.7-1.4 4.4-1.2 7.8.5 2.2 1.1 3 1.2 3.3.2.4-.8 1.2-.4 2.5 1.2 1.5 1.9 2.5 2.3 4.9 1.8 1.8-.4 3.8-.1 4.8.7 2.2 1.6 10.5 0 10.5-2.1 0-1.6.2-1.6 3.4-.4 2.8 1.1 7.6-.6 7.6-2.7s3.4-4.7 6.5-4.9c1.7-.2 6.4-.4 10.6-.5 7.3-.3 10.9-1.8 10.9-4.6 0-.5 2.3-.3 5.1.4 4.8 1.2 5.3 1.2 7.7-.6 1.3-1.1 3.7-2 5.1-2 1.8 0 4-1.3 6.6-4.1 2.2-2.2 5.2-4.7 6.7-5.5 2.9-1.5 5.5-3.7 11.4-9.3 2.9-2.7 4-3.2 6.4-2.7 2.7.5 3.2.2 4.8-3.1 1.9-4.1 4.7-5.9 10.5-6.8 3.3-.5 3.7-.9 3.7-3.7 0-2.5.3-3 2-2.5 2.6.7 4.4-2.4 3.8-6.4-.3-1.6-.3-2.9-.1-2.9.9 0 5.9 3.6 7 5 .6.8 1.5 1.2 1.9.8.4-.4 1.3-.3 2 .3 1.1.9 1.6.5 2.4-1.5.5-1.4 1.6-2.6 2.5-2.6.8 0 1.5-.6 1.5-1.4 0-1 1.1-1.2 4.4-.9 3.8.5 4.4.3 4.9-1.8.5-1.8.9-2 2.1-1 1.2 1 1.5.7 2-1.6.6-2.7 1-2.9 4.4-2.5 2 .3 3.9.8 4.2 1.2.3.4 1.9.5 3.7.3 2.9-.5 3.2-.8 2.6-3.3-.5-2.7-.2-2.9 3.5-4 4.7-1.2 5.5-2.1 5.7-6.4.3-3.9 1.5-7.6 2.5-7.6.4 0 1.9.9 3.3 2 3 2.4 5.4 2.5 7.6.6 1.6-1.5 12.5-2.5 13.7-1.3.9.9 8.6-.3 9.9-1.4.5-.5 1.7-.9 2.7-.9 1.1 0 1.8-.7 1.8-1.9s.9-2.1 2.5-2.5c1.4-.4 2.5-1.4 2.5-2.3 0-1.3.3-1.4 1.2-.5 2.2 2.2 4.8 1.4 5.9-1.8.8-2.1 1.7-3 3.3-3 1.3 0 3.1-.9 4.1-2 1-1.1 2.4-2 3-2 .7 0 1.6-1.1 1.9-2.5.6-2.4 2.6-2.9 5.1-1.3 2.3 1.4 6.5-4.3 6.5-8.9 0-1.6.7-3.7 1.5-4.7 1.1-1.4 1.2-2.3.4-3.3-.7-.7-.9-3.2-.7-5.7.3-2.3 0-5.6-.7-7.2-.8-2-.9-3.9-.2-6.1 1.2-3.7 4.7-5.2 5.4-2.2.3 1 .9 1.6 1.4 1.3.5-.3.9 0 .9.6s.4.9.9.5c.5-.3 1.3-.1 1.6.5.5.8 1.1.8 2 0 1.4-1.1 5.8.3 8.3 2.7.7.7 1.9 1.3 2.5 1.4.7 0 4.7.4 8.9.7 6.1.6 7.5.5 6.6-.5-.7-.9-.7-1.3.1-1.3.7 0 .9-.9.5-2.5-.7-3 1.1-3.4 2.6-.5 2.2 4.1 6.4 7.3 9.6 7.4 1.8.1 3-.2 2.7-.7-.2-.4-.6-2-.9-3.5-.4-2.4-.3-2.5 1-1 1.7 2.3 3.8 2.3 3.4.1-.2-1.2.9-2.4 3.2-3.5 4.8-2.5 6-4.3 5-7.9-.8-2.7-.6-3.2 2.2-4.9 2-1.2 3.7-1.6 4.6-1.1 1 .6 2.2.2 3.6-1.1 2.1-2 2.1-1.9 3 .5.5 1.4 1.9 2.8 3 3.1 1.6.4 1.8.8.9 1.7-1 1-.3 2.2 2.9 5.7 4 4.4 4.1 4.5 3.5 10.6-.2 3.3-.3 5.5 0 4.8.3-.6 1.6-1.2 2.9-1.2 2.9 0 6.1-3 7-6.5.3-1.4 1.2-2.5 2-2.5s1.4-.7 1.4-1.5c0-1 .9-1.5 2.8-1.3 4.8.3 7-1.2 10.1-6.7 2.4-4.3 3.6-5.5 5.5-5.5 1.7 0 2.7-.7 3.2-2.3.3-1.2 1.5-3.3 2.4-4.7 1-1.4 2-3.9 2.2-5.5.3-2.6.8-3 3.8-3.3 1.9-.2 4.2-.9 5-1.6.8-.7 2.3-1.6 3.3-1.9 1-.4 1.7-1.7 1.7-3.2 0-1.6.6-2.5 1.5-2.5.8 0 1.5-.7 1.5-1.5 0-1.7 1.4-1.9 4-.5 1.3.7 2.1.7 2.5 0 .5-.8 1.1-.8 2 0 .9.8 1.4.6 1.8-.9.5-1.9 2.1-2.2 4.4-.8.6.4 1.5.3 1.8-.3.4-.6 1.5-.8 2.6-.5 1.2.4 2.1.1 2.5-.9.3-.9 1.5-1.6 2.5-1.6s1.9-.7 1.9-1.5c0-.9.7-2.7 1.6-4.1.9-1.3 1.7-4.2 1.8-6.4.1-3.4.3-3.9 1.9-3.4 1.6.5 1.8.2 1.2-1.5-.6-2-.4-2.1 2.2-1.6 1.5.4 3.3.8 4 1 .7.2 1.9-.2 2.7-1 .8-.9 2.2-1.2 3.1-.8 1.4.5 1.6.2 1.1-1.3-.5-1.6 0-1.9 3.4-2.1 2.2-.2 5.3-.9 6.8-1.7 2.4-1.2 3-1.2 4.7 0 2.5 1.9 6.4 1.8 7.2-.2.3-.8 1.2-1.3 1.9-1 2.2.9 6.3-1.5 6.6-3.8.2-1.1.9-2.2 1.6-2.2.6-.1 1.7-.2 2.3-.3 2-.2-.1-1.8-3.1-2.5-1.8-.3-4.5 0-6.3.8-2.8 1.1-3.9 1.1-8.7-.5-6.8-2.3-8.9-2.3-11.1-.3-1.5 1.4-2.8 1.1-14-3.1-9.9-3.7-13.3-4.6-16.7-4.2-4.1.4-4.4.3-5.4-2.4-.8-2.3-1.6-2.9-3.8-2.9-2.2 0-2.9-.5-3.2-2.3-.2-1.2-1-2.2-1.8-2.2-2.5-.1-3.8-1.4-5.1-5.3-.7-2-1.8-4.2-2.5-4.7-.6-.6-1.5-2.1-1.9-3.4-.6-2-.4-2.3.9-1.8 1.3.5 1.5.3.7-1-.5-1-.5-2.6 0-4.1.5-1.3.6-2.9.2-3.5-.4-.7-.8-2.3-.9-3.7 0-1.4-.4-3.4-.9-4.5-.8-1.8-.7-1.9 1.1-.5 3.7 2.9 6 3.7 9.2 3.2 2.2-.3 3.2 0 3.2.9 0 1 .3 1 1.1.2.9-.9.1-2.4-3-5.9-2.3-2.6-3.9-4.9-3.7-5.1.2-.2-.7-1.5-2.1-2.9-2-2-3.1-2.3-5.8-1.8-1.9.3-3.5.1-3.9-.5-1.2-1.8-4.3-1.2-4.9.9-.4 1.5-1.4 2-3.6 2-1.7 0-3 .3-3 .7.5 3-.2 3.3-3.3 1.7-3.6-1.9-9.8-2.7-9.8-1.4 0 .5.6 1 1.3 1.3.6.3-.9 1.1-3.5 1.8-2.8.8-4.8 1.9-4.8 2.7 0 1-.7 1.2-2.5.8-1.8-.5-2.5-.2-2.5.8 0 .8-.9 1.8-2 2.1-1.1.3-2 1.1-2 1.7 0 .6-1.1.8-2.6.4-2.1-.6-2.5-.4-2.1.8.4 1 .1 1.3-.7 1-.7-.3-2.4 0-3.9.5-1.9.8-2.5 1.5-2 2.7.4 1.1.2 1.5-.4 1.1-.6-.4-1.4 0-1.7.9-.3.9-1.5 1.4-2.8 1.3-1.3-.2-2.8 0-3.5.4-.6.4-1.4.3-1.8-.3-.3-.5-1.5-1-2.7-1-1.5 0-1.8-.4-1.4-1.7.8-2-1-3.3-4.5-3.3-1.4 0-3-.5-3.7-1.2-1.7-1.7-1.6.4.3 5 1 2.4 1.2 3.8.5 4-2 .7-.8 7.2 1.4 7.2 2.4 0 3.6 4.5 2.1 7.4-.8 1.5-1.2 3.3-.9 4.1.4.9-.5 1.7-2.8 2.3-4 1.1-8.4-.2-9.9-2.9-.5-1.1-1.5-1.7-2-1.3-.6.3-1.3-.4-1.6-1.5-.7-2.7-7.5-6.3-10.5-5.6-1.7.4-2.8-.2-4-1.9-1.7-2.3-1.7-2.4.2-1.9 1.8.5 2 0 2-5.1s-.3-6-3-8.3c-3.7-3-4.1-7.6-.9-9.4 1.8-.9 2-1.7 1.5-4.7-.9-5.7.2-6.6 5.5-4.8 7 2.5 10.7 2.1 12.2-1.2.6-1.5 1.7-3 2.4-3.5.7-.4 1-1.4.7-2.2-.4-.8-.1-1.5.7-1.5.7 0 1-.3.6-.6-.3-.4 0-1.9.8-3.5.8-1.5 1.5-4.6 1.5-6.7 0-5 1.8-10.2 3.6-10.2 2 0 3.4-3.3 3.4-8.2 0-2.4.5-4.9 1.1-5.5 1.8-1.8.2-8.4-2.2-9-1.3-.4-1.8-1.1-1.4-2.3.3-1-.5-2.8-2-4.4-2.2-2.4-2.8-2.6-4.3-1.4-.9.7-2 1.7-2.3 2.2-.4.4-1 .3-1.3-.3-.4-.6-.2-1.1.5-1.1.8 0 .8-.4-.2-1.6-1-1.3-1-1.7 0-2.4.7-.4 2.2-.5 3.2-.3 1 .3 1.9 0 1.9-.6s-.4-1.1-1-1.1c-.5 0-.9-1-.9-2.3.1-1.2-.1-2.9-.5-3.8-.4-.9.1-2.2 1.4-3.4 2.4-2.1 2.5-4 .6-8.6-1.4-3.5-1.1-5.8.8-7.1 1.7-1.2-1.2-1-3.5.2-1.3.7-1.9.7-1.9 0 0-2.5-1.8-.6-3.1 3.2zm-56.3 127.4c.8 3.2-.8 5.1-2.5 3-1.3-1.6-.6-5.6.9-5.6.6 0 1.3 1.2 1.6 2.6zm-31.5 8.7c-.1.4-.1 1.8-.1 3.1 0 2.5-2 3.9-4.4 3-1.4-.5-1-1.9 1.7-6.2.9-1.3 2.9-1.3 2.8.1zm33.9 16.9c0 .4-.4.8-.9.8-.6 0-.6 1.1 0 2.9 1 2.7 1.3 2.9 3.5 1.9 1.9-.9 2.8-.8 4.2.5 1 1 2.8 1.7 4 1.7 1.1 0 2.4.5 2.7 1 .4.6 1 .8 1.5.5 1-.6 3.5 2.3 2.6 3.2-.3.3-1.4.7-2.4.8-.9.1-2.6.6-3.7 1.2-5.6 2.9-8 2.5-7.6-1.3.3-2.4-2.9-.8-4.4 2.2-.9 1.8-2 3.6-2.5 3.9-.6.3-1 1.5-1 2.6s-.4 1.7-1 1.4c-.6-.4-1 .5-1 2 0 1.4.6 2.8 1.4 3.1.8.3 1.2 1.2.9 2-.3.8 0 2.1.7 2.9.7.9 1 1.9.6 2.2-.4.4-1 .3-1.4-.3-1.5-2.2-4.4-2.3-8.3-.4-2.8 1.5-3.9 1.7-3.9.8-.1-.7-1.6-2.3-3.5-3.5-3.4-2.1-3.5-2.1-3.5-.3 0 1.5-.7 2-2.5 2s-2.5.5-2.5 1.9c0 2.7-1.9 3.1-5.5 1.3l-3-1.6 3.8-1.4c2-.8 3.7-2.1 3.7-2.8 0-.8 1-2.4 2.1-3.5 1.8-1.8 2-2.5 1-4-1.5-2.6-1.5-2.7 1.6-3.1 1.8-.2 2.9-1 3.2-2.3.2-1.1.9-2.3 1.6-2.7.7-.5 1.1-1.7.8-2.8-.4-1.5 0-2 1.6-2 2 0 2.5-.9 2.2-3.8-.3-1.8 5.4-1.5 7.3.4.9.8 1.6 1.2 1.6.7s-.4-1.3-.9-1.9c-.6-.5-.7-2.8-.4-5.1.4-3.3 1-4.3 2.7-4.5 2-.4 4.6 1.6 4.6 3.4zm48.4 2.9c1-.9 1.5-.8 1.9.2.6 1.7-1.5 4.5-3 4-1.8-.7-1.6 3.4.2 4.1.8.3 1.2 1.2.9 2.1-.8 2 2.2 2 3.4 0 .7-1.4 1.1-1.4 3.3.3 1.3 1 3.5 1.9 4.8 2 1.4 0 3.4 1 4.5 2.2 1.8 1.8 1.9 2.2.6 3-.8.5-2.2.7-3.1.4-1-.2-1.9.2-2.3 1.1-.4 1.1-1.7 1.5-4.5 1.3-2.1-.2-3.7-.6-3.4-1.1.2-.4-.2-.7-1.1-.7-.8 0-1.6-.6-1.9-1.3-.2-.6-.8-.8-1.3-.4s-.4 1.1.2 1.5c.6.4 1 2 .9 3.7-.1 1.6.4 3.9 1.2 5 1.7 2.6 1.6 3.5-.3 3.5-2.1 0-1.1 4.7 2.3 11.2 1.4 2.6 2.6 6.3 2.8 8.3.2 1.9.6 3.9 1 4.5.3.5-.1 1.3-.9 1.6-.9.3-1.6 1.2-1.6 2s-.5 1.4-1.1 1.4c-.7 0-.9 1.6-.4 4.9.4 3.3.3 5.1-.5 5.6-.7.4-1.4-.1-1.7-1.4-.5-2.1-2.3-3-2.3-1.1 0 .6-1 .8-2.3.5-1.4-.4-2.8-.1-3.5.8-1.8 2.2-6.2.9-7.3-2.2l-1-2.6-1.9 2.5c-1.5 2-2 2.2-3.4 1.1-1.4-1.2-1.6-1.1-1.6.8 0 1.4-.6 2.1-2 2.1-2 0-2.8-1.6-1-2.2 1.4-.4-.4-6.4-1.9-6.1-.6.2-1.1-.1-1.1-.7s-.5-1-1.1-1c-.5 0-.7.6-.3 1.2.5.9.2.9-.9-.1-.9-.7-1.7-1.9-1.6-2.5 0-.7.2-.6.6.1.3 1 1 1 2.5.2 1.4-.8 1.7-1.3.9-1.8-.7-.5.5-1.3 2.9-2 2.8-.8 4.7-2.2 5.8-4.1.9-1.6 2.7-3.4 3.9-3.9 1.3-.6 2.4-1.4 2.4-1.8.1-.5.3-1.7.4-2.8.4-3.7 2.6-9.3 4-10.5 1.3-1 1.2-1.6 0-4.1-.8-1.5-2.3-3.3-3.2-3.8-1-.6-1.3-1.1-.8-1.1 1.3 0 1.1-6.5-.2-8.2-.6-.7-1.3-2.5-1.7-4-.6-2.6-.5-2.7 2.4-2.2 2.6.6 3 .4 3-1.4 0-1.2.9-2.6 2-3.2 1.3-.7 2-2.1 2-4.2 0-3 0-3.1 2-1.3 1.5 1.4 2.3 1.5 3.4.6zm4.2 6.4c-1.1.8-2.2 1.2-2.5.9-.6-.6 1.9-2.4 3.4-2.4.6.1.1.7-.9 1.5zm118.4 3.9c0 .3-.4.8-1 1.1-.5.3-1 .1-1-.4 0-.6.5-1.1 1-1.1.6 0 1 .2 1 .4zm-150.5 3.5c.3.5.1 1.2-.5 1.6-.5.3-1-.1-1-.9 0-1.8.6-2.1 1.5-.7zm-.9 30.8c-1.1 1.1-1.7-.4-.9-2.3.7-1.8.8-1.8 1.1-.1.2 1 .1 2.1-.2 2.4zm68.3 3.9c1 2.3.9 2.9-1 4.3-1.2.9-3 2.4-4 3.3-1.1 1-1.9 1.4-1.9.9 0-.6.5-1.3 1.1-1.7.6-.3.9-1.7.6-3-.2-1.4 0-2.7.5-3 .5-.3.7-1.2.4-2-1-2.6 3-1.5 4.3 1.2zm-146.9 13.8c0 .3-.4.8-1 1.1-.5.3-1 .1-1-.4 0-.6.5-1.1 1-1.1.6 0 1 .2 1 .4zm0 14.8c0 .6-.6.5-1.5-.2-.8-.7-1.5-1.4-1.5-1.6 0-.2.7-.1 1.5.2.8.4 1.5 1.1 1.5 1.6zm-8 8.5c0 1.2-.2 1.2-1.5-.1-.8-.8-1.5-2-1.5-2.7 0-.9.4-.8 1.5.1.8.7 1.5 1.9 1.5 2.7zm-7.2 4.4c-2 1.3-3.8 1.1-3.2-.5.3-.8 1.3-1.2 2.5-.9 1.6.5 1.8.8.7 1.4zm-4.1 2.8c.8.4-3.4 9-5.4 11.1-1.3 1.4-2.3 2.8-2.3 3.2 0 1.5-6.6.8-10.3-1l-3.7-1.8 5.2-3.8c5.1-3.8 5.1-3.9 2.7-4.9-2.3-.9-2.3-.9-.4-1.7 3.5-1.5 4.6-1.1 4.2 1.2-.2 1.3-.2 1.7 0 1 .3-.7.8-1 1.3-.7.4.3.6-.3.3-1.3-.4-1.6.2-1.8 3.9-1.6 2.4 0 4.4.2 4.5.3zm-31.5 16.1c.2 1.6-.2 2.4-.9 2.2-.7-.1-1.3.5-1.3 1.3 0 .9-1 1.5-2.6 1.5s-2.3-.4-1.8-1.1c.3-.6.2-1.4-.4-1.8-.6-.3-1.4-1.9-1.7-3.4-.6-2.3-.4-2.6.9-2.1 1.1.4 1.5 1.3 1.1 2.5-.7 2.1 1.9 2.7 3.1.7.4-.7.3-.8-.4-.4s-1.2.2-1.2-.3c0-.6.7-1.1 1.6-1.1 1.1 0 1.4-.5 1-1.8-.6-1.5-.5-1.5.8-.2.8.8 1.6 2.6 1.8 4zm8.8 2.4c0 .9-.9 1.4-2 1.3-1.1-.1-2-.7-2-1.4s.9-1.3 2-1.3 2 .6 2 1.4zm-149.6 85.1c-.4.8-1.2 1.5-2 1.5-1.7 0-1.8-1.7-.1-2.3 2.2-.9 2.7-.7 2.1.8z"/><path d="M789.468 181c1.8 2 4.5 2.7 4.5 1.2 0-.8-4.3-3.2-5.7-3.2-.3 0 .2.9 1.2 2zM775.368 227.4c-.3.9-1.2 1.6-2 1.6-1.7 0-1.8 3.2-.2 4.8 2.3 2.3 4.8 1.3 6.4-2.3 1.7-4.1 1.7-4.8.4-4-.6.4-1.7.1-2.5-.5-1.2-1-1.6-.9-2.1.4zM613.568 102.5c.4.8 1 1.2 1.5.9 1.1-.6.2-2.4-1.1-2.4-.5 0-.7.7-.4 1.5zM864.968 103c0 .5.5 1 1 1 .6 0 1-.5 1-1 0-.6-.4-1-1-1-.5 0-1 .4-1 1zM613.968 106.8c0 .4 1 1.3 2.3 2.1 2.2 1.4 2.2 1.4.3-.8-2-2.2-2.6-2.5-2.6-1.3zM618.568 112.3c.3 1 .9 1.5 1.2 1.2.3-.3 0-1.1-.7-1.8-1-.9-1.1-.8-.5.6zM626.468 114c1 1.1 2 2 2.2 2 .2 0-.1-.9-.7-2s-1.6-2-2.2-2c-.6 0-.3.9.7 2zM983.068 154.7c-.7 1.9-1.8 3.2-2.4 3-1.4-.4-4.7 3.5-4.7 5.7 0 .9 1 2 2.3 2.5 1.2.5 3.2 1.9 4.5 3 1.2 1.2 2.2 1.9 2.2 1.6 0-.3.8-.2 1.7.3 1.8 1.1 8.3-1.4 8.3-3.1 0-.5 1.5-.6 3.5-.3 3.4.7 4.1.1 3.6-2.8-.1-.5.4-1.3 1.1-1.7 1.6-1 .1-2.7-2.9-3.2-1.3-.2-2.6-.6-2.9-1-.4-.4-1.5-.7-2.4-.7-.9 0-2.9-1.3-4.4-2.9-4.2-4.4-6.1-4.5-7.5-.4zM506.568 217.8c-1.9 3-1.3 6.3 1.5 9.2 1.6 1.6 2.9 3.3 2.9 3.8s.7 1.5 1.5 2.2c.8.7 1.5 2.4 1.5 3.9s.7 3.6 1.5 4.8c1.8 2.6 1.1 7.3-1.1 7.3-.8 0-1.4.5-1.4 1.1 0 .6-.6.9-1.4.6-.8-.3-2 .1-2.7.9-.7.8-1.8 1.3-2.5 1-1.9-.7-5.3 4-4.7 6.5.6 2 .2 2.1-4.4 1.8-4.4-.4-5.1-.1-6 1.8-1.1 2.4-.5 3.4 3 4.6 1.4.5 1.7.3 1.3-1.1-.5-1.5.2-1.7 7-1.7 6.8.1 7.7.3 9.4 2.5 1.8 2.4 1.9 2.4 2.6.5 1.2-3.1 2.7-4.2 4.6-3.7 1.7.4 1.8-.1 1.2-5.2-.6-5.3-.6-5.6 1.6-5.6 2 0 2.2.4 1.6 3.1-.5 2.5-.3 3 .9 2.5.8-.3 1.5-.1 1.5.4s.6.7 1.4.4c.9-.3 2.5 1.3 4.5 4.6 1.7 2.8 3.5 4.9 4 4.6.5-.3 1.6.3 2.6 1.4 1.8 2 1.8 2 3.1-.2.8-1.3 1.7-3.1 2-4.1.3-.9 1-1.7 1.5-1.7s.2-1.4-.6-3c-1.7-3.2-1.2-7 .8-7 1.7 0 5.7-4.5 5.7-6.4 0-.9-.9-2.5-1.9-3.5-1.1-1.1-2.4-2.8-3-3.9-.9-1.7-.7-2 2.1-2.6 4.6-.9 5.8-.7 5.8.8 0 1.1.5 1.2 2.3.3l2.4-1.1-1.9-3.2c-2.7-4.6-4.1-5.5-9-5.6-2.3-.1-4.9-.6-5.7-1.2-2-1.6-11.9-3.4-12.9-2.4-.5.5-2.7 0-5.1-1-3.5-1.6-4.8-1.7-8.2-.8-4.9 1.3-7.2.1-7.9-4-.4-2-.8-2.5-1.4-1.6zm38.4 18.2c0 1.4-5 2.1-6.8 1-1.4-.9-1.2-1 .9-.6 1.9.4 2.9.1 3.3-1 .6-1.5 2.6-1.1 2.6.6zm-15 18.1c0 .6-.4.7-1 .4-.5-.3-1-1.1-1-1.6 0-.6.5-.7 1-.4.6.3 1 1.1 1 1.6zM787.068 253.3c.2.1 1.3.9 2.4 1.7 1.9 1.4 1.9 1.4.6-.3-.7-.9-1.8-1.7-2.4-1.7-.6 0-.8.1-.6.3zM487.968 258c0 .5.5 1 1.1 1 .5 0 .7-.5.4-1-.3-.6-.8-1-1.1-1-.2 0-.4.4-.4 1zM832.968 259c-.9.6-1 1-.3 1 .6 0 1.5-.5 1.8-1 .8-1.2.4-1.2-1.5 0zM512.568 271.5c-2 1.5-1.6 1.8 2 1.6 1.2-.1 2.4.5 2.7 1.3.4.9 1.5 1.6 2.5 1.6s2.3.5 3 1.2c1.7 1.7 3.6-.4 2.8-3-.5-1.3-1.9-2.2-4.4-2.6-2-.4-4.4-.9-5.2-1.1-.8-.2-2.4.2-3.4 1zM527.968 278.8c0 .7-.4 1-1 .7-.5-.3-1 .1-1 1s-.4 1.4-.8 1.1c-.5-.3-.5 1.8-.2 4.5.4 2.7.3 5.2-.2 5.5-.4.3-.4 1.3.1 2.2 1 1.9 3.1 8.5 3.1 9.5 0 .4-.9.7-2 .7-1.6 0-2 .7-2 3 0 1.6 0 3.3-.1 3.7 0 .3 1.1 1.3 2.6 2.2 2.4 1.5 2.7 1.5 3.9-.1 1-1.3 2.2-1.6 4.8-1.2 3.4.6 3.7.4 4.9-3 .7-2 2.1-3.8 3.1-4.2 1-.3 1.8-1 1.8-1.6 0-2.2-3.4-6.5-5.9-7.5-1.9-.7-3.8-3.3-6.8-9.3-2.4-4.7-4.3-7.8-4.3-7.2zM555.068 293.9c-.8 1.4-.7 2 .3 2.4.8.3 1.7-.1 2-.9.3-.8 0-1.4-.7-1.4-.8 0-.6-.4.3-1 .9-.6 1-1 .3-1s-1.7.9-2.2 1.9zM540.468 330c-.3.5-.2 1 .4 1 .5 0 1.3-.5 1.6-1 .3-.6.2-1-.4-1-.5 0-1.3.4-1.6 1zM466.568 390.8c-.3.6-.1 1.4.5 1.7 1.4.9 2 .2 1-1.4-.6-.8-1.1-.9-1.5-.3zM464.968 399c0 .5.5 1 1.1 1 .5 0 .7-.5.4-1-.3-.6-.8-1-1.1-1-.2 0-.4.4-.4 1zM468.468 399c-.3.5-.1 1 .4 1 .6 0 1.1-.5 1.1-1 0-.6-.2-1-.4-1-.3 0-.8.4-1.1 1zM405.568 401.5c.4.8 1 1.5 1.5 1.5.4 0 .6-.7.3-1.5-.4-.8-1-1.5-1.5-1.5-.4 0-.6.7-.3 1.5zM306.068 413.1c-1.5.6-2.1 1.4-1.7 2.5.9 2.4-.3 3.6-2 1.9-1.8-1.8-4.4-2-4.4-.4 0 .6-.7.9-1.5.5-1.1-.4-1.6.6-2.1 4.4-.4 3.3-1.1 5-2 5-.8 0-1.4.6-1.4 1.3 0 .9-1.1 1.2-3.5.9-2.9-.4-3.5-.1-3.3 1.4.3 3.8-.2 5.3-2.2 5.9-1.7.5-2 1.5-2 5.8 0 5.4-2 9.7-4.5 9.7-.7 0-1.5 1.2-1.7 2.7-.2 2-.9 2.9-2.5 3.1-1.8.3-2.3 1-2.3 3.3 0 2.4-.4 2.9-2.5 2.9-1.8 0-2.5.5-2.5 2 0 1.3-.7 2-2 2-2.1 0-4.4 3.9-3.1 5.3 1.3 1.4-.1 6.6-1.9 7.2-2.1.7-3.3 6.4-1.7 8.3.5.7 1.1 3.1 1.3 5.5.2 2.3.8 4.3 1.4 4.5.5.2 1 .8 1 1.3 0 .4-.7.6-1.5.3-.9-.4-1.5 0-1.5.7-.1.9-.6.7-1.5-.5-1.5-1.9-1.5-1.9-1.5.2 0 1.2.6 3.1 1.3 4.3 1 1.7.9 2.2-1.3 3.9-1.4 1.1-1.9 2-1.2 2 2.3 0 1.1 10-1.3 10-.7 0-1.8.7-2.5 1.5s-2.7 1.5-4.5 1.5c-4.6 0-6.5.9-6.5 3 0 1.4-.6 1.8-2.5 1.4-1.9-.3-2.5 0-2.5 1.5 0 2.5-2.3 4.4-3.7 3-1-1-4.7.3-6.3 2.2-1 1.2-4.9 2.9-6.8 2.9-1.5 0-1.8.6-1.6 3.4.2 2.7-.2 3.8-2.1 5-1.3.9-3.1 1.6-4 1.6-.8 0-1.5.4-1.5 1 0 3.1-6.4 7.5-17.2 11.8-1.9.8-2.9 2.1-3.3 4.6-.6 2.9-1.2 3.5-4.2 4.1-3.1.6-3.5.9-3 3.2.3 1.4-.1 4.1-.9 5.9-1.8 4.3-1.9 4.1 1.6 4.6 3.3.5 3.9-.6 1.3-2.1-1.7-1-1.7-1 0-1.1 1 0 1.7-.8 1.7-2 0-2.1 1.5-2.7 2.5-1 .5.8 1.2.7 2.2-.2.9-.7 1.8-1.2 2-1.1 1.2.9 4.3 0 4.3-1.2 0-.8.9-1.5 2-1.5 1.3 0 2-.7 2-2 0-1.1.5-2 1-2 .6 0 1 .6 1 1.4 0 .8.7 2.1 1.5 3 1.4 1.4 1.8 1.4 3.4-.2 1.2-1.2 1.5-2.1.8-3-.7-.9-.1-1.2 2.5-1.2 3.8 0 7.3-3 10.2-8.8 1.3-2.5 2.3-3.2 4.5-3.2 1.8 0 3.7-1 5.4-3 1.5-1.7 3.2-3 3.7-3 1.3 0 5-3.7 5-5 0-.6 1.1-1 2.4-1 3.5 0 4.9-2.4 4.3-7-.4-3.5-.2-4 1.4-4 1 0 1.9-.6 1.9-1.3 0-1.5 4.1-3.7 6.9-3.7 2.1 0 3.5-3.8 2.5-6.4-.4-1 0-1.8 1-2.2.9-.3 1.6-1.7 1.6-3 0-1.9.5-2.4 2.6-2.4 1.4 0 3.4.5 4.5 1.1 1.7.8 2.3.7 3.4-.8.8-1 1.1-2.8.8-4-.7-3.2.5-4.8 2.5-3 1 .7 3.3 1.3 5.1 1.1 1.9-.1 4.5.5 5.8 1.3 1.5 1 3.4 1.3 5.5.9 1.8-.4 3.7-.1 4.7.6.9.7.5 0-.8-1.5-1.4-1.5-1.9-2.7-1.2-2.7s1-.4.6-1c-.3-.5-1.2-.7-2-.3-1.1.4-1.5-.2-1.5-1.9 0-3.2-.8-4-3.1-2.8-2.2 1.3-5.2.2-4.5-1.6.4-.9-.2-1.4-1.7-1.4-2.5 0-4.7-1.7-4.7-3.7 0-.7.6-1.3 1.3-1.3 3.9 0 10-4.4 13.2-9.5 1.9-3 3.5-5.8 3.5-6.3 0-.6 1.2-1.3 2.7-1.7 1.9-.4 3.1-.2 3.9 1 1.1 1.4 1.2 1.4 1.8-.1.4-1.2 1.3-1.4 3.2-1 1.5.4 2.3.3 2-.3-.4-.5.2-1.1 1.1-1.3 1.4-.3 1.1-.8-1.4-2.1-1.7-.9-3.9-1.4-4.7-1.1-1.1.4-1.5.2-1.1-.8.4-1-.6-1.9-3.5-2.8-2.2-.7-4-1.9-4-2.7 0-.7.4-1.3.9-1.3s.4-1.4-.2-3.1c-1-2.5-.9-3.3.3-4.2 1.8-1.4 1.5-4.4-.9-7.2-1.6-2-1.5-2 .5-.3 1.5 1.4 2.3 1.5 3.2.6.9-.9 1.8-.9 3.8.1 3.7 1.6 14 .4 14.8-1.8.3-.9.9-2.2 1.2-2.9.3-.6-.1-1.2-.9-1.2-2.4 0-2.7-2.6-.6-4.3 1-.9 1.9-2.4 1.9-3.2 0-.8.5-1.5 1-1.5 1.9 0 1-1.6-2-3.3l-3-1.8 3.4-4.2c2.8-3.5 3.2-4.6 2.4-6.6-.5-1.4-.7-3-.4-3.6.2-.6-.5-1.7-1.5-2.3-1.2-.8-1.9-.8-1.9-.2 0 .7-.6.8-1.9 0-2.3-1.2-2.8-1.2-6 .1zm-27.1 58.9c0 .5-.5 1-1.1 1-.5 0-.7-.5-.4-1 .3-.6.8-1 1.1-1 .2 0 .4.4.4 1zM320.768 437.5c-1 1.3-1.8 2.8-1.8 3.4 0 .5-.6 1.1-1.2 1.4-.7.2-.9.8-.5 1.3s1.2.2 1.6-.5c.5-.7 1.4-1 2-.7.6.4 1.4 0 1.7-.8.3-.9 1-1.3 1.5-1 1.2.7 1.1-.7-.4-3.3l-1.2-2.1-1.7 2.3z"/><path d="M305.968 469.5c-.7.9-1 1.8-.7 2.1.3.3 1-.4 1.7-1.5 1.3-2.5.8-2.7-1-.6zM281.968 498.5c0 1.6 2.7 3.2 3.7 2.1.7-.7-1.6-3.6-2.8-3.6-.5 0-.9.7-.9 1.5zM14.968 506.4c0 1.3-.6 2.7-1.2 2.9-.7.3-.4.6.7.6 2.8.1 4.1-1 4.2-3.7.1-1.6-.4-2.2-1.8-2.2-1.3 0-1.9.7-1.9 2.4zM3.968 507c0 .5-.8 1-1.7 1-1.2 0-1.8.8-1.9 2.5-.1 1.6.3 2.5 1.3 2.5s1.3.5.8 1.7c-.4 1-.8 2.3-.9 3-.1.7-.5 1.6-.9 1.9-1.2 1.2-.7 5.8.8 7.8s8.1 3.1 9 1.5c.4-.5 1.7-.9 3-.9s3.1-1 3.9-2.2c1.5-2.1 1.5-2.3-.4-3-1.1-.4-2.7-.5-3.6-.1-1 .4-2.6-.7-4.5-3.1-1.7-2-3.7-3.6-4.6-3.6-1.3 0-1.3-.2-.2-1.6.8-1 1.5-1.2 1.7-.5.6 1.8 1.8 1.3 1.8-.8 0-1-.7-1.8-1.5-1.7-.8.1-1.7-.7-1.9-1.7-.2-1 .3-1.7 1.2-1.7.9 0 1.6-.5 1.6-1 0-.6-.7-1-1.5-1s-1.5.4-1.5 1z"/><path d="M8.968 510c0 .5.5 1 1.1 1 .5 0 .7-.5.4-1-.3-.6-.8-1-1.1-1-.2 0-.4.4-.4 1zM47.068 510.5c-2.9.8-6 1.1-6.8.8-1.8-.7-3.3 1.3-3.3 4.4 0 1.5-.5 2.1-1.3 1.7-.8-.3-3.6.4-6.4 1.5-3.4 1.3-5.4 1.6-6 1-.7-.7-1.2-.5-1.6.5-.4.9.1 1.7 1.2 2.1 1 .3 2.8 2.5 4 4.8 1.8 3.5 2 4.8 1.2 7-2.4 6.3.9 19.7 4.8 19.7 1.4 0 1.9.5 1.5 1.5-1 2.5.5 3.6 2.9 2 2.8-2 3.4-1.9 4.2.6.4 1.1 2.2 2.7 4.1 3.5 1.9.8 3.4 1.9 3.4 2.4 0 .6.6 1 1.4 1 2.2 0 2.9 1.8 3 7.4.1 4.5.3 5.1 2.1 4.8 1.1-.2 2.7-1 3.6-1.8 1.4-1.2 1.8-1.2 3.2.4 1.9 2 2.3 5.2.7 5.2-1.7 0-1.1 1.9 1 3 1.5.8 2.7.7 4.9-.5 3.7-1.9 4.1-1.9 4.1-.1 0 .8.6 1.7 1.3 1.9.6.3-.1.4-1.8.3-2.1-.1-3.7.6-5.4 2.3-2.2 2.3-2.5 2.3-3.6.8-1.3-1.8-7.5-2.4-7.5-.7 0 .5.7 1 1.6 1 1.4 0 1.4.3.4 1.5-1 1.2-.6 2.2 2.9 5.5 2.2 2.2 4.2 3.4 4.2 2.7.1-.6.4.1.8 1.8.5 2 .3 3.3-.6 3.8-1.9 1.2-1.6 2.7.6 2.7 2.8 0 3.5 2.9.9 3.9-1.4.5-1.7 1-1 1.5 1.6 1 1.5 3.6-.1 3.6-2.1 0-3.9 4.7-2.7 7 .5 1 .7 2.6.4 3.4-.3.9-.1 1.6.6 1.6.6 0 .8.5.3 1.2-.4.7-.8 2.4-.8 3.8 0 1.9-.7 2.5-3.2 3.1-1.8.3-3.6.2-4.2-.4-.8-.8-1.1-.8-1.1 0 0 .7 1 1.5 2.1 1.8 1.2.4 1.8 1 1.3 1.4-2.9 2.1-3.6 8.2-1.9 15.9.5 2.3 1.2 3.1 2.2 2.8.8-.4 1.7-.6 1.9-.6.2 0 .4-.6.4-1.4 0-.7.6-1.9 1.4-2.5 1.9-1.6 2.5-6.9.9-8.2-.7-.6-1-1.5-.7-2 1-1.7 4.3-.9 7 1.6 3.3 3 3.4 3 2.7.4-.5-1.8-.3-2 1.3-1.1 1 .6 2.9 2 4.1 3.1 2.4 2.3 4.3 2.7 4.3 1 0-.6.6-.9 1.2-.7.8.3 1.2 1.8 1 4.1-.3 3.6-.3 3.6 2.7 2.7 1.7-.4 3.9-.6 5.1-.3 3.1.8 4.6-1.1 7.1-9.3 2-6.4 2.7-7.4 4.7-7.4s2.2-.4 1.9-3.6c-.4-3.7-3.3-6.6-4.6-4.7-.3.6-1.2 1.2-2 1.5-.8.2-2 2.2-2.6 4.4-.9 3.1-1.5 3.9-3.3 3.7-1.3-.2-2.2.3-2.2 1.1 0 2.2-6.1 3.2-7.2 1.2-.5-.9-1.6-1.6-2.3-1.6-1.7 0-2-2.6-.5-3.5 1.6-1 1.1-5-.9-7.6-1.2-1.6-1.7-3.4-1.4-5.1.3-1.8-.2-3.4-1.6-4.9-2.2-2.3-2.9-4.5-1.1-3.4.6.3 1-.1 1-.9 0-.9.5-1.6 1.1-1.6.6 0 .9-.6.6-1.3-.6-1.6 1.9-5.1 3.1-4.3.5.3 1.4-.7 2-2.2 1.1-3.1 1.1-7.3 0-6.6-.4.3-.8-.2-.8-1.1 0-.8-.7-1.8-1.6-2.2-1.1-.4-1.2-.8-.4-1.3.7-.4 2.1.1 3.2 1.2 1.9 1.9 2 1.9 3.3.2 1.2-1.7 1.3-1.6 1.9.4 1.7 5.2 10.1 7.9 13.8 4.5 1.6-1.4 2.2-1.5 3.9-.4 1.6.9 2.4.9 3.5 0 1-.8 1.4-.8 1.4 0 0 .6.6 1.1 1.4 1.1.8 0 2.3 1.1 3.3 2.4 2.6 3.4 5.9 4.2 6.6 1.6.3-1.2.2-3.3-.2-4.8-1.1-4-.3-6.1 2.9-7.7 1.6-.8 3.2-2.5 3.6-3.7.4-1.3 1.5-2.9 2.5-3.6 1-.7 1.6-1.9 1.3-2.6-.3-.8-.1-1.7.5-2.1.6-.3 1.1-1.7 1.1-3.1 0-1.3.4-2.4.9-2.4.6 0 .8-1.8.5-4-.3-2.4-.1-4 .6-4 .6 0 .4-1.4-.5-3.6-1.9-4.6-1.9-5.4.1-5.4 1 0 1.4-.7 1.2-2.3-.2-1.7-1.1-2.3-3.5-2.5-1.8-.2-3.3-.7-3.3-1.3 0-.5-.4-.8-1-.7-.5.2-2.5-1.5-4.5-3.6-3-3.4-3.5-3.7-3.5-1.8 0 1.1.8 2.6 1.8 3.1 1.6 1 1.6 1 0 1.1-1 0-1.8.4-1.8 1 0 1.7-2.2 1.1-8.8-2.2-5-2.6-6.6-3-8-2.1-1.2.7-2.4.8-3.5.1-2.4-1.3-4.8 1.2-3.5 3.5.6 1.1.5 1.7-.2 1.7-.6 0-1.3-.7-1.7-1.6-.4-1.2-1-.8-2.4 1.5-1 1.7-2.6 3.1-3.4 3.1-1 0-1.5 1-1.5 3 0 3.5-1.8 3.9-6.4 1.5-3.6-1.9-6.6-1.9-6.6 0 0 .8.4 1.5.9 1.5 1.2 0 .8 2.4-.8 4.4-.7.8-1 1.9-.7 2.5.3.5 0 1.1-.6 1.4-1 .3-.8 1 .6 2.6 1.1 1.1 1.6 2.4 1.3 2.8-.4.3-.2 1.2.3 1.8.7.8.7 2.1.1 3.8-1.4 3.5-3.3 4.5-3.1 1.6.4-4.7 0-5.9-1.9-5.9-2.3 0-3.6-1.6-2.1-2.5.7-.4.8-2.3.5-4.8-.4-2.3-.4-3.9 0-3.5 1.1 1.1 3.6-1.9 3.7-4.4.1-1.3.8-3.2 1.5-4.3.7-1.1 1.3-3 1.3-4.2 0-1.3.5-2.3 1.1-2.3.6 0 .9-.6.6-1.3-.2-.6-.9-1.1-1.4-1-.5.1-1.7-1.4-2.6-3.3-.9-1.9-1.2-3.4-.7-3.4.6 0 1.3.7 1.6 1.5.4.9 1.7 1.4 3.3 1.3 1.5-.1 3.1.1 3.7.5 2 1.2 6.3-1.7 6.9-4.5.6-2.4 1-2.6 2.5-1.8 1.3.7 2.1.7 2.5-.1.6-.9 0-1.9-4.7-7.3-1-1.1-1.8-2.3-1.8-2.7 0-.4-1.7-.7-3.7-.6-6.9.1-13.6-1.2-14.5-2.7-.7-1.2-1.3-1.3-3.4-.4-3.7 1.7-4.9 0-3.7-5.1 1.2-4.5-.1-6.7-3.1-5.5-1.1.4-2.5-.1-3.7-1.5-1.1-1.1-2.3-2.1-2.7-2-.4.1-3.1.7-6.1 1.4zm52.4 43.3c-.3.3-1.1 0-1.8-.7-.9-1-.8-1.1.6-.5 1 .3 1.5.9 1.2 1.2zm28.7 1.2c1 1.1 2.7 3.8 3.8 6 2 3.9 2 4 .1 4-1.1 0-2.3.5-2.6 1.1-.4.6-1.3.8-2.1.5-.8-.3-1.4.1-1.4 1 0 .8-.4 1.3-.9.9-.5-.3-1.1.5-1.3 1.7-.4 3-4.8 3.9-4.8 1 0-1-.9-2.7-2-3.7-2.5-2.3-2.5-3.5-.1-3.5 1.1 0 2.6-.7 3.5-1.5.8-.8 2.3-1.3 3.3-1 1.1.3.9.1-.4-.6-2.3-1.2-2.8-3.3-1.7-6.3.9-2.2 4.6-2 6.6.4zm-64.7 12c.3.5-.1 1-.9 1-.9 0-1.6-.5-1.6-1 0-.6.4-1 .9-1 .6 0 1.3.4 1.6 1zm53.5 3.1c1.5 2.7-.3 4.9-3.9 4.9-2.6-.1-6.1-2-6.1-3.5 0-.5.9 0 1.9.9 2.3 2.1 3.8 1.4 5.1-2 1.2-2.9 1.6-3 3-.3zm13-1.7c0 .3-.4.8-1 1.1-.5.3-1 .1-1-.4 0-.6.5-1.1 1-1.1.6 0 1 .2 1 .4zm-22.3 6.2c-.3.3-1.2.4-1.9.1-.8-.3-.5-.6.6-.6 1.1-.1 1.7.2 1.3.5zm-16.9 6.2c.2.7-.3 1.2-1.2 1.2-.9 0-1.6-.7-1.6-1.6 0-1.7 2.2-1.4 2.8.4zm29.5 16.2c-.4 1.6-.8 1.8-1.9.9-1.1-.9-1.4-.8-1.4.1 0 .8-.3 1-.6.7-.9-.9 1.5-3.7 3.1-3.7.8 0 1.1.8.8 2z"/><path d="M121.368 564.6c.3.9.6 1.9.6 2.2 0 .9 2-2.1 2-3.1 0-.4-.7-.7-1.6-.7-1.1 0-1.4.5-1 1.6zM126.368 531.5c-.4.8-1.2 1.5-2 1.5-2.4 0-11.4 5.4-11.4 6.9 0 .8.3 1.1.7.8.3-.4 1.2-.2 1.9.4.9.7 1.9.7 3.4-.1 1.2-.6 2.9-.9 3.7-.6 1 .4 2.2-.2 3.2-1.6.8-1.3 1.5-2.4 1.3-2.6-.1-.1.7-1.1 1.8-2.2 1.2-1.2 1.8-2.5 1.5-3-.9-1.5-3.5-1.2-4.1.5zM97.968 532c0 .5-.7 1-1.5 1-1.6 0-1.9.9-.7 2.5.8 1.2 2.2 1.3 3.9.2.7-.4 1.6 0 2.2 1 .6 1.1 1.1 1.3 1.1.5 0-.9.5-1 1.9-.2 3.3 1.7 3.4 1.1.4-1.4-3.9-3.2-7.3-4.9-7.3-3.6zM41.968 574.9c0 1.2-.4 2.1-.9 2.1s-1.2.8-1.6 1.9c-.3 1-1.5 2.3-2.8 2.9-2.1 1-2.1 1.1.6 1.1 1.7.1 2.7-.4 2.7-1.4 0-.8.8-1.9 1.8-2.4 1.9-1 2.7-4.7 1.1-5.6-.5-.4-.9.3-.9 1.4zM47.168 575.2c-1.8 1.8-1.4 3.8.7 3.8 1.4 0 1.7-.6 1.3-2.5-.5-2.9-.4-2.9-2-1.3z"/><path d="M40.968 581c0 .8-1.2 2.5-2.7 3.7-1.4 1.3-2.1 2.3-1.5 2.3.6 0 1.7-.7 2.5-1.4 1.8-1.8 4.2-.3 5 3.1.6 2.6-1.1 4.2-2.4 2.2-.4-.7-1.1-1-1.5-.6-.9.9 1.5 3.7 3.2 3.7.8 0 1.4-.7 1.4-1.5s.7-1.5 1.5-1.5c.9 0 2.5-.9 3.6-1.9 1.7-1.6 1.8-2 .6-2.8-.8-.4-2-1.8-2.6-3.1-1-1.9-1.5-2.1-2.7-1.1-1.2 1-1.7.8-2.9-.7-1.1-1.4-1.4-1.5-1.5-.4zM28.668 582.9c-.2 1.1 0 2.4.6 3 .8.8.8 1.1-.1 1.1-.7 0-1.2.5-1.2 1.1 0 .6.7.8 1.6.5.8-.3 2.4-.1 3.5.4 1.2.7 1.9.7 1.9.1s-.9-1.5-2-2.1c-1.2-.6-1.9-1.9-1.7-3.2.3-2.7-1.9-3.5-2.6-.9zM158.068 586.2c-1.8 1-4.1 1.6-5 1.3-2.2-.7-4.2 3-3.7 6.7.2 1.6-.2 2.9-.8 3-.6 0-1.5.2-2.1.2-.5.1-2.2 1.4-3.7 2.9-1.8 1.8-3.8 2.7-5.8 2.7s-4.1 1-6 2.9c-3.4 3.2-3.5 3.8-1.5 6.5 1.3 1.8 1.6 1.8 5 .2 1.9-.9 3.5-2.3 3.5-3 0-.8 1.3-1.9 2.8-2.5 3.1-1.3 10.2-7.7 10.2-9.2 0-.5.7-.9 1.5-.9s1.5-.9 1.5-2 .7-2 1.5-2 1.9-.9 2.5-2c.9-1.7 2.1-2 7.8-2.1 3.7 0 6-.3 5.2-.6-1.8-.5-5.9-2.2-8-3.3-.9-.4-2.9.1-4.9 1.2zM22.568 585.8c-.2.4.4 1.4 1.5 2 1.9 1.2 1.9 1.1.9-.8-1.2-2.2-1.6-2.4-2.4-1.2z"/><path d="M36.768 588.7c.7.3 1.6.2 1.9-.1.4-.3-.2-.6-1.3-.5-1.1 0-1.4.3-.6.6zM51.468 593.7c-1.6 1.6-1.6 1.7.3 2.4 1.1.4 2.6 1.7 3.2 2.8 1.4 2.7 2.6 2.7 4.1 0 .8-1.7.8-2.3-.2-3-.7-.4-1.6-.6-2-.3-.4.2-1-.5-1.4-1.6-.8-2.4-1.8-2.5-4-.3zM39.268 595.7c1.9.5 2.1 1.2.7 3.3-.8 1.2-1 1.2-1.5-.2-.7-1.9-3.5-1.3-3.5.7 0 3.3 7 2.5 8.4-1 .3-.8 1-1.5 1.5-1.5.7 0 .6.9-.1 2.5-.6 1.4-1.7 2.5-2.5 2.5-1.3 0-1.6 1-1.4 4.6.1 1.1-.2 3.2-.8 4.6-1.1 2.8-1.5 2.5 7.4 5.5 1.7.6 3.9 1.4 5 1.8 1.7.6 1.7.5-.2-.9-1.3-1-2.3-2.7-2.3-3.9 0-1.2-.9-2.8-2-3.5-1.2-.7-1.8-1.7-1.4-2.3.3-.6-.1-1.8-1-2.8-.9-1-1.4-2.5-1-3.5.7-1.8 2.4-2.2 2.4-.4 0 .6.3.8.6.5.4-.4.1-1.9-.5-3.4-1-2.4-1.8-2.8-5.4-3-2.3 0-3.4.1-2.4.4zM126.968 598.1c-1.2.9-1.1 1 .5.4 1.8-.6 1.9-.5.4 1-2 2-1.4 6.6.8 5.8 1.2-.5 1.2-.7.1-1.5-.9-.6-.6-.7 1-.3 1.7.5 2.4.1 3.1-1.7 1.4-3.6-2.5-6.1-5.9-3.7z"/><path d="M48.468 603.9c-.3.5-.1 1.2.5 1.6.5.3 1 1.5 1 2.5 0 2.2 3 9 4.1 9 .3 0 .3-1.8-.1-4s-.5-4-.2-4c.2 0-.1-.6-.7-1.4-.6-.7-.9-2.1-.5-3 .4-1.1 0-1.6-1.4-1.6-1.2 0-2.3.4-2.7.9zM57.468 615c.3.5 1.2 1 2 1s1.7-.5 2-1c.4-.6-.5-1-2-1s-2.4.4-2 1zM57.968 618c0 .5.5 1 1.1 1 .5 0 .7-.5.4-1-.3-.6-.8-1-1.1-1-.2 0-.4.4-.4 1zM56.068 621.6c0 1.1.3 1.4.6.6.3-.7.2-1.6-.1-1.9-.3-.4-.6.2-.5 1.3zM120.468 625c-1 1.1-1.3 2-.7 2 .6 0 1.6-.9 2.2-2 .6-1.1.9-2 .7-2-.2 0-1.2.9-2.2 2zM54.568 628.8c-.3.6-.1 1.4.5 1.7 1.4.9 2 .2 1-1.4-.6-.8-1.1-.9-1.5-.3z"/></g></svg>