<?xml version="1.0" standalone="no"?>
<!DOCTYPE svg PUBLIC "-//W3C//DTD SVG 20010904//EN"
 "http://www.w3.org/TR/2001/REC-SVG-20010904/DTD/svg10.dtd">
<svg version="1.0" xmlns="http://www.w3.org/2000/svg"
 width="553.468898pt" height="668.485641pt" viewBox="0 0 553.468898 668.485641"
 preserveAspectRatio="xMidYMid meet">
<metadata>
Created by potrace 1.15, written by Peter Selinger 2001-2017
</metadata>
<g transform="translate(-652.531904,1359.500000) scale(0.100000,-0.100000)"
fill="#222222" stroke="none">
<path d="M10050 13588 c0 -13 20 -19 40 -13 30 9 24 20 -10 20 -16 0 -30 -3
-30 -7z"/>
<path d="M10078 13546 c-5 -10 -7 -27 -5 -38 4 -14 2 -18 -9 -14 -19 7 -72
-25 -78 -48 -3 -10 2 -29 11 -42 8 -13 11 -24 6 -24 -16 0 -53 -36 -53 -51 0
-8 9 -20 20 -27 11 -7 20 -21 20 -33 0 -16 4 -19 20 -14 16 5 20 2 20 -19 0
-16 -6 -26 -15 -26 -8 0 -15 7 -15 15 0 16 -18 19 -38 7 -9 -6 -5 -12 14 -21
18 -8 23 -15 16 -24 -18 -23 -10 -42 20 -42 15 0 28 4 28 8 0 5 5 5 10 2 8 -5
7 -12 -2 -23 -8 -10 -9 -13 -1 -9 6 4 14 3 17 -2 4 -5 2 -12 -3 -15 -13 -9 -8
-32 14 -56 12 -13 30 -20 57 -20 21 0 38 -4 38 -10 0 -5 -6 -10 -14 -10 -19 0
-33 -64 -28 -128 3 -43 7 -52 20 -48 10 3 40 -1 67 -8 60 -16 79 -7 64 31 -8
22 -7 24 8 18 35 -15 61 -17 67 -6 10 15 53 14 68 -3 11 -11 20 -11 55 -1 23
7 44 11 47 8 2 -3 10 -2 16 2 8 5 7 12 -3 23 -8 10 -17 25 -21 36 -6 18 -7 18
-25 2 -18 -16 -21 -16 -53 0 -43 22 -50 35 -32 55 21 24 18 76 -6 84 -10 3
-40 27 -65 53 -38 38 -52 46 -76 44 -36 -4 -59 12 -59 42 0 41 -15 51 -77 55
-7 1 -13 7 -13 15 0 8 -8 17 -18 20 -22 7 -58 64 -39 63 33 -1 47 4 47 19 0
11 6 14 20 9 17 -5 20 -2 20 24 0 16 -4 33 -10 36 -13 8 -13 55 1 55 5 0 7 -4
4 -10 -3 -5 -1 -10 4 -10 6 0 10 18 9 39 -1 38 -3 40 -31 38 -16 -1 -33 -10
-39 -21z"/>
<path d="M11480 13245 c0 -14 -34 -39 -55 -41 -11 -1 -60 -28 -113 -62 -28
-19 -40 -22 -57 -14 -12 6 -27 7 -34 3 -7 -5 -40 -9 -74 -10 -47 -1 -71 4
-104 21 -24 13 -43 29 -43 35 0 7 -7 13 -16 13 -11 0 -15 6 -11 20 5 20 -18
48 -30 36 -4 -4 -2 -20 4 -36 9 -25 8 -31 -12 -50 -17 -16 -30 -20 -46 -15
-19 6 -21 5 -15 -18 7 -28 -10 -51 -45 -62 -11 -4 -18 -13 -16 -20 4 -9 -3
-11 -28 -5 -29 6 -35 5 -40 -11 -3 -10 -21 -27 -38 -38 -18 -11 -43 -31 -56
-45 -14 -14 -30 -26 -38 -26 -7 0 -13 -7 -13 -15 0 -8 -9 -15 -20 -15 -17 0
-19 -3 -10 -19 14 -26 13 -31 -6 -31 -12 0 -15 -6 -10 -25 5 -19 3 -25 -10
-25 -16 0 -16 -1 -1 -18 10 -10 15 -21 12 -24 -9 -9 19 -26 46 -30 14 -2 37
-11 50 -20 17 -11 30 -13 42 -7 12 7 20 3 33 -18 9 -16 25 -40 36 -55 12 -18
14 -28 7 -28 -7 0 -4 -9 7 -21 10 -12 18 -24 16 -28 -5 -10 46 -69 72 -83 95
-52 105 -56 111 -41 3 11 9 12 18 5 6 -5 31 -12 55 -15 33 -4 42 -2 42 10 0
20 41 10 80 -19 20 -14 47 -21 91 -24 169 -9 209 -24 234 -91 13 -32 26 -49
45 -56 15 -6 35 -22 43 -36 15 -23 17 -24 17 -6 1 18 2 18 11 -3 5 -13 18 -26
30 -29 12 -4 18 -11 15 -20 -3 -8 -6 -21 -6 -28 0 -18 -32 -28 -42 -13 -6 8
-8 -3 -6 -30 l4 -44 -32 5 c-28 5 -33 2 -36 -18 -6 -30 16 -83 48 -116 21 -22
23 -28 12 -40 -20 -20 -15 -65 10 -92 23 -25 30 -67 11 -67 -8 0 -7 -5 1 -15
7 -9 10 -18 7 -22 -6 -5 20 -63 32 -73 4 -3 15 -21 24 -41 9 -20 24 -40 33
-43 13 -5 15 1 13 38 -4 45 7 66 36 66 9 0 13 5 9 11 -3 6 -1 22 6 35 10 17
10 27 2 37 -8 10 -4 20 16 42 19 21 28 42 29 73 2 23 -2 42 -7 42 -6 0 -10 9
-10 20 0 11 -4 20 -10 20 -6 0 -10 30 -10 69 0 68 1 70 28 76 25 5 27 9 24 40
-2 19 -8 35 -13 35 -6 0 -5 8 0 19 8 14 7 22 -3 30 -8 7 -17 28 -21 47 -3 19
-13 38 -21 41 -7 3 -14 13 -14 23 0 9 -9 29 -20 43 -13 16 -16 28 -10 32 7 4
7 12 0 26 -6 11 -9 56 -6 106 4 93 -5 119 -37 102 -12 -7 -24 -3 -45 16 -26
23 -28 30 -24 79 3 40 0 61 -12 77 -19 28 -21 46 -3 31 10 -8 12 -1 12 33 0
35 -5 48 -23 60 -12 9 -20 20 -17 25 3 5 0 20 -7 32 -22 41 -36 88 -31 108 3
11 0 20 -6 20 -6 0 -11 5 -11 10 0 6 6 10 14 10 9 0 12 8 9 24 -3 13 0 27 6
30 18 11 13 33 -9 39 -13 3 -18 10 -14 21 3 9 1 23 -6 31 -7 8 -9 15 -4 15 10
0 -28 29 -38 30 -5 0 -8 -7 -8 -15z"/>
<path d="M9620 12800 c0 -6 7 -13 15 -16 20 -8 19 -29 -2 -49 -18 -19 -7 -50
18 -50 8 0 31 -9 53 -19 34 -16 37 -21 33 -46 -5 -24 -1 -32 28 -52 19 -12 35
-28 35 -33 0 -6 9 -17 20 -25 11 -8 20 -20 20 -27 0 -7 5 -13 10 -13 6 0 15
-10 21 -22 5 -13 25 -33 44 -45 37 -24 84 -106 78 -135 -3 -9 5 -21 16 -28 17
-9 20 -8 14 6 -5 15 -4 15 20 -1 15 -9 27 -21 27 -25 0 -4 20 -11 45 -15 25
-3 51 -13 58 -21 6 -9 20 -23 30 -32 9 -9 17 -20 17 -25 0 -19 35 -83 52 -95
10 -7 18 -19 18 -27 0 -7 9 -17 20 -20 11 -3 20 -11 20 -16 0 -19 3 -24 21
-37 10 -7 16 -19 13 -26 -3 -8 3 -16 15 -19 21 -5 30 -37 10 -37 -5 0 -8 -4
-4 -9 3 -5 -8 -18 -25 -27 -37 -23 -38 -31 -2 -39 16 -3 35 -18 46 -35 9 -17
22 -30 27 -30 6 0 9 -10 7 -22 -2 -14 2 -22 10 -21 6 2 12 -1 12 -6 0 -5 12
-23 26 -40 23 -28 32 -31 80 -31 32 0 54 4 54 11 0 6 7 17 15 25 13 14 15 14
15 -1 0 -12 5 -15 16 -11 9 3 18 6 20 6 3 0 2 5 -1 10 -4 6 6 10 23 10 21 0
32 7 41 26 6 14 9 29 6 34 -3 4 2 11 11 14 8 3 12 11 8 17 -5 8 1 10 19 5 36
-9 57 2 57 29 0 13 5 36 10 51 10 25 13 26 55 21 37 -6 45 -4 45 9 0 14 3 14
15 4 12 -10 18 -10 31 1 14 12 19 10 38 -12 28 -35 66 -44 73 -18 3 10 9 19
14 19 5 0 6 7 2 16 -4 10 -9 12 -16 5 -21 -21 -167 90 -167 127 0 7 -9 25 -20
39 -11 14 -20 31 -20 37 0 21 -90 108 -105 102 -8 -3 -17 -1 -21 5 -4 7 -10 7
-18 0 -7 -6 -17 -6 -26 -1 -11 7 -12 14 -3 33 10 22 9 26 -8 30 -15 4 -19 2
-15 -8 3 -8 1 -17 -4 -20 -15 -9 -60 6 -60 20 0 8 -12 15 -27 17 -24 2 -29 8
-31 36 -3 28 -7 33 -25 30 -12 -1 -29 2 -37 7 -15 10 -20 11 -55 13 -15 2 -16
5 -7 14 18 18 14 38 -7 38 -17 0 -30 13 -107 108 -20 25 -33 33 -51 29 -17 -3
-23 0 -23 14 0 10 -13 28 -30 41 -16 12 -30 30 -30 40 0 9 -12 24 -27 32 -31
17 -103 90 -103 106 0 5 -14 10 -31 10 -17 0 -42 9 -56 19 -13 11 -31 17 -39
14 -8 -3 -21 0 -28 6 -11 9 -15 9 -19 -1 -4 -11 -8 -11 -26 0 -23 14 -38 9
-59 -20 -10 -14 -18 -15 -40 -7 -17 7 -28 7 -30 0 -3 -10 -57 4 -80 22 -7 5
-15 7 -19 4 -3 -4 -14 -2 -24 4 -13 7 -19 6 -19 -1z m1410 -920 c0 -5 -2 -10
-4 -10 -3 0 -8 5 -11 10 -3 6 -1 10 4 10 6 0 11 -4 11 -10z m-410 -162 c0 -4
-4 -8 -9 -8 -6 0 -12 4 -15 8 -3 5 1 9 9 9 8 0 15 -4 15 -9z"/>
<path d="M11565 12119 c-11 -17 1 -21 15 -4 8 9 8 15 2 15 -6 0 -14 -5 -17
-11z"/>
<path d="M11250 12073 c0 -5 4 -15 9 -22 6 -9 6 -22 0 -34 -8 -14 -13 -16 -25
-6 -9 7 -14 8 -14 1 0 -6 9 -13 19 -17 11 -3 24 -18 30 -33 6 -17 10 -21 10
-9 1 10 9 17 22 17 16 0 19 4 14 20 -6 18 -3 20 19 14 16 -4 26 -2 26 5 0 6 0
13 0 16 0 3 -3 4 -6 3 -3 -2 -12 9 -20 25 -12 21 -22 27 -49 27 -19 0 -35 -3
-35 -7z"/>
<path d="M11473 12065 c-12 -8 -28 -12 -37 -9 -8 3 -21 0 -29 -8 -20 -20 -42
-80 -39 -105 2 -13 0 -23 -5 -23 -12 0 -3 -79 10 -87 5 -3 7 -1 4 5 -5 6 6 9
32 6 33 -3 41 0 46 17 5 14 12 18 27 13 17 -5 19 -3 13 15 -4 12 -2 21 4 21 7
0 7 9 -1 26 -10 22 -10 28 6 39 12 9 16 20 11 34 -5 15 -2 21 10 21 11 0 15 7
13 23 -4 27 -35 33 -65 12z"/>
<path d="M9936 12015 c-13 -10 -25 -11 -43 -4 -25 9 -53 -7 -53 -31 0 -6 -4
-8 -10 -5 -5 3 -10 -3 -10 -14 0 -25 -1 -25 -44 -7 -45 19 -65 6 -31 -20 28
-21 33 -52 10 -60 -11 -5 -9 -11 10 -32 20 -21 25 -37 25 -79 0 -28 5 -55 11
-58 10 -7 31 -50 33 -70 1 -5 -2 -13 -7 -16 -4 -3 -11 -32 -14 -64 -5 -44 -10
-59 -24 -62 -11 -3 -17 -9 -14 -13 3 -5 1 -11 -5 -15 -5 -3 -10 -15 -10 -27 0
-11 -8 -22 -20 -25 -25 -7 -25 -9 4 -44 16 -19 22 -36 19 -50 -4 -14 -2 -20 5
-16 5 4 12 3 14 -2 1 -4 28 -11 60 -14 51 -4 57 -3 62 16 3 12 0 27 -6 34 -8
11 -7 12 6 7 12 -5 16 0 16 16 0 21 1 22 25 6 14 -9 36 -21 49 -26 23 -8 23
-7 18 36 -2 25 0 50 6 57 9 10 7 19 -4 35 -13 19 -13 22 -1 22 16 0 32 28 27
45 -15 53 -16 85 -3 85 9 0 13 6 10 13 -2 6 -10 29 -18 49 -7 21 -21 40 -31
44 -10 3 -18 10 -18 15 0 5 -8 9 -17 9 -15 0 -15 2 2 14 18 13 18 14 -2 20
-11 4 -24 17 -27 29 -10 37 -6 43 10 15 8 -15 23 -32 34 -38 11 -6 17 -16 15
-23 -3 -6 -1 -18 4 -26 12 -19 58 -6 66 19 3 11 14 20 24 20 10 0 24 7 31 15
10 12 10 15 -1 15 -8 0 -32 23 -54 50 -22 27 -45 47 -52 45 -12 -4 -28 40 -24
64 3 15 -19 61 -28 61 -3 0 -14 -7 -25 -15z m-31 -24 c3 -5 1 -12 -5 -16 -5
-3 -10 1 -10 9 0 18 6 21 15 7z m85 -111 c0 -13 -23 -28 -36 -24 -8 2 -21 6
-30 9 -8 3 -13 8 -11 12 6 10 77 12 77 3z m-79 -33 c-1 -12 -15 -9 -19 4 -3 6
1 10 8 8 6 -3 11 -8 11 -12z m29 -93 c0 -14 -3 -14 -15 -4 -8 7 -15 14 -15 16
0 2 7 4 15 4 8 0 15 -7 15 -16z"/>
<path d="M11170 12002 c0 -4 -14 -16 -31 -26 -23 -14 -29 -24 -27 -43 4 -38
35 -54 54 -29 13 18 21 106 9 106 -3 0 -5 -4 -5 -8z"/>
<path d="M11201 11974 c0 -11 3 -14 6 -6 3 7 2 16 -1 19 -3 4 -6 -2 -5 -13z"/>
<path d="M10200 11887 c0 -20 4 -37 9 -37 10 0 9 55 -2 66 -4 4 -7 -9 -7 -29z"/>
<path d="M11510 11861 c0 -5 11 -23 25 -38 l25 -28 -14 35 c-13 33 -36 53 -36
31z"/>
<path d="M10169 11820 l-24 -19 31 -1 c30 0 51 20 37 34 -10 10 -20 7 -44 -14z"/>
<path d="M10260 11795 c0 -8 7 -15 15 -15 9 0 12 6 9 15 -4 8 -10 15 -15 15
-5 0 -9 -7 -9 -15z"/>
<path d="M11140 11805 c0 -3 11 -10 25 -15 26 -10 34 -35 13 -42 -9 -3 -9 -6
0 -12 7 -4 12 -2 12 3 0 6 11 11 25 11 32 0 23 25 -16 45 -28 15 -59 20 -59
10z"/>
<path d="M11270 11780 c-12 -8 -11 -13 8 -33 25 -27 29 -69 8 -87 -21 -17 -10
-36 34 -59 51 -27 80 -24 80 7 0 18 4 23 16 18 28 -11 35 5 14 33 -18 26 -69
53 -54 29 10 -16 -29 8 -50 30 -10 12 -19 32 -20 46 -1 27 -11 32 -36 16z"/>
<path d="M10311 11754 c0 -11 3 -14 6 -6 3 7 2 16 -1 19 -3 4 -6 -2 -5 -13z"/>
<path d="M11533 11704 c-9 -4 -9 -13 -2 -31 8 -22 6 -30 -11 -47 -17 -17 -23
-19 -40 -8 -22 14 -27 1 -7 -17 15 -11 11 -71 -4 -71 -5 0 -1 -21 9 -47 12
-34 24 -49 42 -55 l25 -7 -25 2 c-21 2 -27 -5 -40 -42 -8 -25 -21 -47 -29 -49
-8 -3 -12 1 -9 9 3 8 2 24 -3 36 -5 15 -3 25 7 33 18 16 18 30 -1 30 -20 0
-29 43 -15 69 7 15 8 27 1 39 -6 9 -11 11 -11 5 0 -7 -7 -13 -15 -13 -8 0 -15
-5 -15 -11 0 -8 -6 -7 -16 2 -15 12 -139 47 -171 49 -9 0 -9 -9 1 -38 12 -34
12 -40 -3 -50 -15 -10 -14 -11 2 -11 14 -1 16 -5 7 -20 -8 -16 -6 -22 6 -29
10 -6 15 -16 11 -26 -4 -10 1 -20 13 -26 15 -8 20 -8 20 2 1 8 7 5 15 -6 14
-19 15 -19 15 7 0 24 2 26 25 17 16 -6 25 -6 25 0 0 6 5 10 10 10 20 0 9 -27
-15 -38 -14 -6 -25 -16 -25 -22 0 -5 -9 -10 -20 -10 -11 0 -20 4 -20 9 0 5
-10 11 -22 14 l-23 6 23 -17 c19 -15 21 -20 9 -35 -15 -21 -51 -13 -43 10 3 8
1 11 -4 8 -6 -3 -13 1 -16 9 -9 23 -24 20 -24 -4 0 -11 4 -20 9 -20 5 0 12 -9
16 -19 6 -19 21 -27 64 -36 14 -2 21 1 21 11 0 8 5 14 11 14 6 0 9 9 6 19 -3
11 1 22 9 25 16 6 20 1 28 -47 4 -21 14 -41 22 -44 10 -4 -3 -16 -39 -39 -44
-27 -61 -33 -86 -28 -17 4 -34 11 -37 15 -12 20 -24 7 -24 -27 0 -31 -3 -35
-20 -29 -34 11 -22 -14 16 -32 24 -12 37 -26 41 -45 4 -21 11 -27 27 -25 14 1
21 -4 21 -16 0 -9 14 -26 32 -36 17 -11 34 -24 38 -30 4 -7 12 -8 24 -2 12 7
26 4 49 -11 37 -23 37 -25 17 -48 -13 -15 -12 -21 16 -58 17 -23 37 -42 44
-42 19 0 28 -32 12 -42 -10 -5 -14 -22 -12 -50 1 -24 -2 -46 -8 -50 -8 -4 -7
-10 0 -20 8 -10 8 -18 -3 -32 -8 -11 -14 -30 -14 -43 0 -23 1 -23 45 9 32 24
44 40 45 58 0 21 10 31 53 53 64 32 107 84 107 129 0 18 7 42 15 52 8 11 15
35 15 53 0 18 5 33 10 33 6 0 10 7 10 16 0 9 13 29 29 44 23 22 32 43 41 98
13 70 13 70 56 88 55 23 57 34 4 24 -41 -8 -86 11 -65 27 6 5 11 17 12 27 1
21 -42 96 -63 109 -8 4 -14 12 -14 17 0 15 -33 50 -46 50 -7 0 -35 46 -64 102
-28 56 -58 108 -66 115 -8 8 -14 23 -14 34 0 19 -5 21 -27 13z m-178 -364 c-3
-5 -10 -10 -16 -10 -5 0 -9 5 -9 10 0 6 7 10 16 10 8 0 12 -4 9 -10z m65 -70
c8 -5 11 -12 7 -16 -4 -4 -15 0 -24 9 -18 18 -8 23 17 7z"/>
<path d="M10135 11642 c0 -22 -5 -28 -27 -30 -18 -2 -25 -8 -22 -17 4 -9 -3
-17 -21 -21 -24 -6 -25 -7 -9 -25 9 -10 14 -25 11 -32 -3 -9 4 -20 19 -27 18
-10 21 -16 13 -26 -15 -18 -1 -36 21 -29 12 4 22 -1 28 -12 6 -9 25 -22 44
-29 19 -6 34 -19 37 -30 1 -10 10 -27 19 -36 19 -22 38 -9 47 33 4 16 13 29
21 29 18 0 18 21 0 62 -8 18 -17 45 -20 59 -4 19 -19 33 -53 50 -29 15 -50 32
-53 46 -3 12 -16 30 -30 41 l-26 20 1 -26z"/>
<path d="M10325 11642 c6 -4 17 -16 25 -26 13 -18 13 -19 0 -11 -12 7 -13 6
-3 -7 7 -8 10 -17 7 -20 -3 -4 2 -21 11 -39 16 -30 16 -32 0 -25 -14 5 -15 4
-7 -7 15 -18 -7 -107 -40 -167 -14 -25 -23 -51 -21 -57 6 -17 -2 -16 -21 3
-15 14 -16 14 -16 -1 0 -12 -6 -16 -20 -12 -13 3 -20 0 -20 -10 0 -23 -33 -60
-49 -55 -10 3 -12 -1 -8 -17 3 -11 1 -21 -5 -21 -6 0 -8 -6 -5 -14 7 -17 -39
-67 -56 -61 -6 2 -37 -10 -67 -29 -38 -22 -57 -40 -60 -58 -3 -14 -20 -38 -38
-53 -25 -21 -32 -34 -28 -49 9 -35 -14 -84 -43 -89 -22 -5 -26 -12 -29 -42 -1
-22 4 -42 13 -52 21 -21 10 -30 -12 -11 -10 8 -26 18 -36 21 -14 5 -16 2 -11
-21 3 -15 13 -42 21 -60 14 -32 13 -35 -6 -53 -11 -10 -25 -19 -32 -19 -16 0
-59 -48 -59 -66 0 -8 -7 -17 -15 -20 -10 -4 -12 -15 -9 -34 5 -23 2 -30 -22
-42 -21 -10 -28 -20 -27 -36 2 -14 -6 -27 -21 -37 -19 -12 -23 -23 -21 -59 1
-36 -2 -43 -14 -38 -9 3 -19 10 -22 15 -12 18 -36 -1 -41 -32 -6 -42 26 -56
58 -24 15 16 16 15 9 -15 -5 -27 -3 -36 17 -52 34 -28 78 -43 78 -25 0 23 41
30 53 9 6 -11 27 -35 46 -55 32 -33 43 -37 101 -41 87 -7 93 -4 75 32 -19 37
-19 50 0 50 8 0 20 9 27 20 10 15 24 20 56 20 36 0 45 4 49 20 5 20 7 20 24 4
12 -11 19 -13 19 -5 0 7 5 9 10 6 6 -4 8 -15 5 -26 -5 -14 0 -21 19 -29 19 -7
26 -17 26 -35 0 -21 5 -25 30 -25 23 0 30 -4 30 -20 0 -11 7 -23 15 -26 26
-10 4 -25 -26 -19 -23 5 -29 3 -29 -9 0 -10 -12 -19 -30 -22 -16 -4 -30 -13
-30 -20 0 -8 -7 -14 -15 -14 -8 0 -15 -8 -15 -19 0 -10 -6 -23 -12 -29 -21
-16 -85 -8 -110 15 -30 26 -69 36 -142 34 -41 -1 -63 -7 -71 -18 -10 -14 -16
-13 -59 6 -40 17 -47 18 -42 5 3 -9 6 -24 6 -35 0 -10 7 -19 15 -19 8 0 15 5
15 11 0 8 5 8 15 -1 8 -7 25 -10 39 -6 21 5 27 0 45 -39 12 -25 25 -45 31 -45
5 0 7 7 4 15 -4 8 -1 15 4 15 6 0 13 -8 16 -17 9 -27 109 -67 143 -58 16 4 53
9 83 11 69 4 142 23 134 36 -4 5 8 8 27 6 52 -5 42 -28 -20 -48 -33 -10 -50
-20 -42 -24 6 -4 9 -16 6 -25 -3 -10 -3 -26 1 -35 5 -14 11 -12 43 14 20 17
46 40 59 50 16 14 22 28 20 52 -3 32 -2 32 39 32 31 -1 54 -10 93 -38 29 -21
55 -35 58 -32 3 3 14 -2 25 -11 12 -11 17 -12 12 -4 -6 11 -3 13 17 8 19 -5
31 0 49 19 35 37 60 49 70 33 11 -19 22 -4 22 30 0 20 4 28 14 24 17 -7 43 15
37 31 -3 7 11 19 30 28 19 9 37 26 41 37 3 12 11 21 17 21 5 0 8 6 5 14 -4 9
4 16 21 21 35 9 52 23 52 46 0 10 8 24 18 31 20 16 26 32 26 76 0 28 3 32 26
32 21 0 28 7 40 42 10 28 26 50 47 63 18 11 32 28 33 37 0 10 21 28 50 44 39
21 47 30 41 43 -5 9 -7 32 -5 51 2 19 1 29 -2 23 -7 -16 -64 -17 -64 -3 0 7
-6 7 -19 0 -11 -5 -27 -7 -36 -4 -19 8 -56 -23 -49 -41 3 -8 -6 -14 -28 -18
-18 -2 -34 -1 -36 4 -2 5 -18 9 -37 9 -27 0 -35 6 -48 33 -15 29 -15 32 0 36
11 2 3 10 -23 25 -29 16 -43 32 -54 64 -8 23 -20 42 -26 42 -7 0 -10 8 -8 18
5 23 -17 49 -46 54 -21 2 -25 9 -25 35 -1 18 5 35 13 38 9 3 11 15 7 38 -6 31
-4 36 29 55 20 12 36 28 36 37 0 9 9 15 25 15 28 0 44 25 27 42 -8 8 -4 16 11
30 22 19 22 19 -7 1 -17 -10 -52 -19 -80 -19 -28 -1 -61 -4 -73 -7 -13 -3 -25
-1 -29 4 -3 6 -17 14 -30 19 -24 10 -32 34 -14 45 5 3 2 13 -8 23 -14 15 -25
16 -63 9 -45 -9 -48 -8 -81 26 -40 40 -59 104 -36 122 8 5 12 18 10 28 -2 9 3
20 12 23 12 5 13 10 3 27 -7 12 -17 27 -24 34 -7 8 -9 21 -6 29 3 9 0 33 -7
54 -11 33 -11 42 1 57 11 13 11 15 0 9 -10 -7 -12 -4 -7 12 5 14 0 25 -15 36
-12 8 -23 27 -25 42 -3 25 -2 25 11 8 12 -15 14 -16 15 -4 0 19 -54 80 -72 80
-8 0 -9 -3 -3 -8z m2 -727 c3 -9 3 -19 -1 -22 -7 -7 -36 16 -36 28 0 15 30 10
37 -6z m173 -469 c0 -11 -19 -15 -25 -6 -3 5 1 10 9 10 9 0 16 -2 16 -4z m-90
-115 c0 -6 -4 -13 -10 -16 -5 -3 -10 1 -10 9 0 9 5 16 10 16 6 0 10 -4 10 -9z
m9 -55 c13 -16 -1 -66 -19 -66 -6 0 -9 4 -5 9 3 6 -3 8 -15 6 -22 -4 -36 10
-20 20 5 3 10 15 10 26 0 22 32 26 49 5z m-729 -19 c0 -29 -7 -37 -26 -30 -17
6 -18 25 -2 41 18 18 28 14 28 -11z m525 -39 c-1 -13 -8 -23 -15 -23 -18 0
-34 29 -27 49 10 25 44 4 42 -26z m-25 -48 c9 -16 8 -20 -5 -20 -8 0 -15 9
-15 20 0 11 2 20 5 20 2 0 9 -9 15 -20z m210 -68 c0 -15 -2 -15 -10 -2 -13 20
-13 33 0 25 6 -3 10 -14 10 -23z m26 -43 c18 -17 26 -19 43 -10 26 14 57 0 66
-30 8 -25 26 -20 40 9 12 27 21 28 35 2 6 -11 8 -20 4 -20 -3 0 4 -9 17 -19
22 -18 23 -20 8 -38 -9 -10 -20 -29 -24 -41 -5 -17 -12 -22 -26 -19 -14 4 -19
0 -19 -14 0 -10 -7 -19 -15 -19 -8 0 -15 5 -15 10 0 6 -4 10 -10 10 -5 0 -10
-6 -10 -14 0 -14 -27 -14 -93 -1 -15 3 -16 1 -6 -11 6 -8 9 -18 5 -21 -4 -4
-11 -2 -15 6 -5 7 -12 12 -16 11 -4 -1 -15 10 -25 25 -18 27 -18 27 14 56 l31
29 -27 -6 c-26 -6 -61 7 -86 33 -11 11 -11 14 4 20 25 9 56 42 49 53 -5 7 12
15 39 19 6 0 20 -8 32 -20z m-116 -120 c0 -6 -4 -7 -10 -4 -5 3 -10 11 -10 16
0 6 5 7 10 4 6 -3 10 -11 10 -16z"/>
<path d="M10277 11609 c7 -7 15 -10 18 -7 3 3 -2 9 -12 12 -14 6 -15 5 -6 -5z"/>
<path d="M10305 11580 c-19 -7 -19 -7 2 -18 28 -15 33 -15 33 2 0 20 -11 25
-35 16z"/>
<path d="M11826 11495 c-3 -8 -1 -15 4 -15 6 0 10 7 10 15 0 8 -2 15 -4 15 -2
0 -6 -7 -10 -15z"/>
<path d="M11781 11465 c-24 -13 -24 -13 18 -25 46 -12 83 -2 59 17 -23 18 -52
21 -77 8z"/>
<path d="M11850 11400 c0 -5 5 -10 11 -10 5 0 7 5 4 10 -3 6 -8 10 -11 10 -2
0 -4 -4 -4 -10z"/>
<path d="M11170 11391 c0 -5 7 -11 14 -14 10 -4 13 -1 9 9 -6 15 -23 19 -23 5z"/>
<path d="M11810 11377 c1 -14 28 -52 34 -46 15 15 8 42 -11 50 -16 6 -23 5
-23 -4z"/>
<path d="M11870 11341 c0 -5 5 -13 10 -16 6 -3 10 -2 10 4 0 5 -4 13 -10 16
-5 3 -10 2 -10 -4z"/>
<path d="M11896 11265 c4 -8 11 -15 16 -15 6 0 5 6 -2 15 -7 8 -14 15 -16 15
-2 0 -1 -7 2 -15z"/>
<path d="M11955 11240 c-8 -13 22 -50 41 -50 7 0 10 -8 7 -19 -6 -22 22 -52
42 -45 33 13 9 59 -52 102 -21 15 -34 19 -38 12z"/>
<path d="M8540 11009 c0 -6 -5 -7 -11 -4 -7 5 -9 -6 -5 -32 6 -56 17 -83 31
-83 15 0 31 38 21 47 -3 4 -1 12 5 20 9 9 8 13 0 13 -6 0 -11 9 -11 19 0 10
-7 21 -15 25 -8 3 -15 1 -15 -5z"/>
<path d="M8505 10880 c3 -5 11 -10 16 -10 6 0 7 5 4 10 -3 6 -11 10 -16 10 -6
0 -7 -4 -4 -10z"/>
<path d="M8611 10851 c-14 -18 -47 -18 -35 0 3 5 1 9 -4 9 -12 0 -25 -66 -17
-80 4 -6 0 -13 -8 -16 -9 -3 -13 -13 -10 -25 4 -14 0 -19 -15 -19 -11 0 -25
-7 -32 -15 -7 -8 -18 -15 -24 -15 -19 0 -70 -69 -74 -100 -2 -17 -9 -42 -17
-57 -15 -29 -10 -41 31 -75 17 -14 21 -26 18 -62 -1 -25 -7 -53 -12 -63 -7
-12 -6 -25 4 -44 7 -15 10 -29 6 -31 -4 -2 -15 -16 -24 -33 -10 -16 -23 -29
-29 -27 -7 2 -9 -5 -6 -19 4 -15 0 -23 -13 -26 -16 -4 -17 -8 -7 -24 10 -16 9
-21 -2 -29 -12 -7 -13 -13 -3 -35 10 -21 10 -31 1 -41 -9 -12 -8 -18 7 -29 16
-12 17 -14 3 -15 -9 0 -19 -8 -23 -17 -3 -10 -9 -24 -12 -30 -4 -9 6 -13 35
-13 23 0 41 5 41 10 0 6 14 10 30 10 22 0 30 -5 30 -18 0 -19 -35 -54 -44 -45
-3 4 -6 -9 -6 -29 0 -22 7 -41 19 -52 33 -30 46 -73 31 -102 -7 -13 -21 -24
-31 -24 -21 0 -79 49 -79 67 0 7 -6 14 -12 15 -7 0 -17 2 -23 2 -5 1 -17 6
-25 11 -13 8 -13 7 0 -10 11 -13 12 -19 3 -22 -9 -3 -8 -14 5 -40 15 -31 15
-36 1 -46 -8 -7 -13 -20 -11 -29 2 -12 -3 -18 -15 -18 -24 0 -55 -66 -47 -98
4 -15 1 -24 -10 -28 -9 -4 -41 -32 -71 -63 -43 -43 -54 -61 -50 -78 4 -15 1
-23 -8 -23 -17 0 -38 -45 -31 -64 3 -9 1 -31 -5 -49 -10 -30 -17 -35 -51 -41
-22 -3 -40 -9 -40 -13 0 -3 17 -27 38 -52 20 -25 36 -49 35 -52 -1 -4 13 -10
32 -13 30 -6 34 -10 26 -25 -7 -12 -6 -22 1 -29 17 -17 31 -15 24 4 -12 30 12
54 54 54 23 0 40 -5 40 -11 0 -6 7 -9 15 -5 8 3 15 1 15 -4 0 -6 -4 -10 -9
-10 -12 0 -20 -102 -8 -117 5 -7 5 -18 1 -25 -13 -21 -11 -47 4 -53 24 -9 -6
-37 -32 -30 -16 5 -18 4 -6 -4 12 -8 12 -13 2 -23 -6 -6 -12 -20 -12 -30 0
-25 -35 -41 -61 -28 -25 14 -46 0 -51 -33 -2 -14 -11 -23 -26 -25 -13 -2 -26
-10 -28 -17 -3 -8 -12 -11 -21 -8 -23 9 -92 -18 -98 -39 -4 -10 -14 -18 -24
-18 -27 0 -21 -35 7 -37 14 0 22 4 19 11 -3 6 6 19 18 28 21 16 23 16 43 -7
15 -17 17 -26 9 -34 -8 -8 -6 -14 6 -23 17 -13 14 -58 -3 -58 -5 0 -6 -9 -3
-20 8 -32 -39 -30 -75 3 -21 20 -23 20 -36 2 -8 -11 -20 -16 -29 -12 -18 7
-77 -19 -77 -35 0 -6 -21 -8 -52 -6 -47 3 -54 0 -63 -19 -6 -15 -18 -23 -33
-23 -13 0 -20 -4 -17 -10 3 -5 2 -10 -4 -10 -5 0 -9 -12 -8 -27 1 -15 -3 -28
-10 -28 -6 0 -15 -3 -19 -7 -4 -5 -20 -8 -36 -8 -20 0 -28 -5 -28 -18 0 -9
-11 -29 -25 -44 -14 -15 -24 -35 -23 -45 0 -10 0 -29 0 -42 -2 -23 -3 -24 -22
-6 -11 10 -20 24 -20 32 0 14 -9 16 -52 13 -28 -2 -29 0 -32 53 -3 50 -80 55
-91 6 -4 -16 -13 -36 -21 -44 -17 -17 -11 -35 12 -35 8 0 14 -7 14 -16 0 -8
-4 -12 -10 -9 -5 3 -24 -2 -41 -11 -29 -15 -31 -15 -26 0 5 11 1 16 -13 16
-20 0 -23 -21 -7 -47 4 -7 -1 -14 -13 -18 -11 -3 -20 -13 -20 -21 0 -17 -33
-18 -61 -3 -19 9 -19 9 -10 -10 15 -28 15 -28 -19 -23 -18 3 -38 -2 -48 -10
-9 -8 -29 -19 -44 -26 -16 -6 -28 -15 -28 -19 0 -5 -4 -14 -9 -22 -7 -11 -13
-10 -34 4 -21 13 -32 14 -65 6 -21 -6 -47 -20 -57 -31 -10 -11 -30 -20 -45
-20 -19 0 -30 -7 -38 -25 -8 -17 -24 -28 -57 -36 -24 -6 -42 -15 -39 -20 8
-14 34 -118 34 -138 0 -10 11 -28 25 -41 14 -13 25 -29 25 -37 0 -7 5 -13 11
-13 8 0 8 -4 0 -14 -14 -17 -8 -21 44 -31 50 -9 62 -18 70 -56 6 -27 39 -56
58 -51 11 3 8 -46 -3 -53 -6 -4 -8 -16 -4 -27 3 -11 1 -24 -5 -27 -7 -5 -1
-21 18 -47 16 -21 28 -50 27 -63 -1 -17 7 -29 23 -37 31 -16 41 -10 41 23 0
22 3 24 25 19 18 -5 25 -2 25 9 0 8 6 15 13 15 18 1 67 47 67 63 0 8 6 20 14
26 11 9 12 18 4 39 -9 23 -6 33 16 67 26 38 28 57 12 97 -5 11 -1 18 13 23 27
8 31 45 7 73 l-19 22 41 0 c33 0 42 4 47 23 9 26 54 66 76 67 9 0 22 7 29 15
7 8 16 12 21 9 12 -7 11 3 -1 26 -8 15 -6 21 7 29 10 6 14 11 9 11 -5 0 -3 7
4 15 7 8 8 15 2 15 -5 0 -12 9 -15 20 -4 16 1 21 28 26 18 3 42 3 53 0 11 -4
23 -2 27 4 10 15 25 12 25 -6 0 -12 7 -10 32 11 17 15 39 24 49 22 11 -3 19 2
22 15 5 16 11 18 44 12 49 -9 50 -9 69 -49 9 -19 20 -35 24 -35 13 0 -1 43
-22 66 -10 12 -16 28 -12 37 3 9 -6 32 -20 54 l-26 38 42 5 c38 4 43 8 40 28
-2 20 2 23 25 20 16 -2 33 -10 40 -18 10 -13 15 -12 33 6 20 19 25 20 48 9 14
-8 28 -19 32 -25 7 -11 98 28 133 58 9 8 17 12 17 8 0 -4 13 0 28 9 34 21 66
72 63 103 -1 12 3 22 10 22 8 0 8 4 2 13 -6 6 -13 22 -16 34 -4 19 0 23 32 29
20 4 39 11 42 16 3 5 14 -1 25 -13 10 -13 13 -19 6 -15 -11 7 -12 4 -3 -12 12
-23 61 -38 71 -22 4 6 14 8 24 4 15 -6 15 -4 4 22 -10 22 -10 28 0 32 17 5 15
41 -3 48 -23 9 -18 18 19 35 29 13 36 14 40 3 3 -8 14 -14 24 -14 49 0 162
-81 129 -93 -7 -2 0 -10 15 -17 24 -11 31 -11 45 2 10 9 24 13 31 11 7 -3 12
5 12 21 0 33 14 33 44 1 26 -28 41 -33 33 -11 -3 8 1 17 9 20 9 3 12 11 8 17
-4 7 1 18 11 26 17 11 17 17 7 46 -6 17 -9 41 -7 52 2 11 4 34 5 50 l1 30 18
-21 c17 -21 18 -21 42 -3 13 10 29 19 35 19 15 0 26 -42 14 -54 -5 -5 -5 -18
0 -32 7 -17 5 -26 -5 -31 -8 -5 -18 -24 -21 -42 -7 -32 -5 -34 15 -28 16 4 26
-1 37 -19 9 -13 21 -24 28 -23 7 0 6 2 -1 6 -17 6 -16 33 2 57 12 16 17 17 30
6 9 -7 13 -20 10 -28 -3 -9 7 -25 26 -41 24 -20 32 -36 35 -68 2 -22 14 -62
28 -87 14 -26 22 -54 19 -62 -7 -19 24 -43 48 -37 9 3 28 -1 40 -8 51 -27 139
0 125 38 -3 7 -1 13 4 13 6 0 10 -5 10 -12 0 -21 18 6 22 32 2 17 10 26 26 28
12 2 22 9 22 17 0 7 11 15 26 18 l25 4 -20 -21 c-12 -12 -21 -30 -21 -39 0 -9
-7 -17 -15 -17 -16 0 -38 -34 -28 -44 4 -3 -2 -12 -12 -20 -22 -16 -15 -41 14
-49 16 -4 21 -1 19 11 -2 10 7 21 20 27 12 5 22 18 22 28 0 13 5 16 24 11 15
-3 25 -1 29 9 5 14 53 20 71 9 5 -3 21 -6 35 -8 14 -1 44 -7 65 -12 27 -7 46
-7 59 -1 10 6 30 8 44 4 16 -4 31 -1 42 9 13 12 57 21 119 25 7 1 12 16 12 40
0 23 8 48 20 63 16 21 18 31 10 59 -10 35 -2 49 32 49 9 0 21 8 27 17 7 14 21
17 60 15 40 -2 51 1 51 13 0 12 7 14 28 9 38 -9 44 -14 38 -30 -4 -11 0 -13
18 -8 13 3 33 1 44 -5 24 -13 35 7 26 45 -5 19 -2 24 13 24 16 0 19 5 15 30
-4 25 -1 30 17 30 12 0 21 6 21 16 0 9 6 14 13 11 7 -2 17 10 22 27 6 17 16
30 22 29 6 -1 9 6 6 17 -9 33 5 70 27 70 11 0 20 7 20 15 0 8 4 15 10 15 5 0
7 7 4 15 -8 21 9 19 39 -5 35 -28 50 -25 66 10 12 29 11 32 -13 55 -15 14 -33
25 -40 25 -25 0 -36 26 -40 96 -6 89 0 117 25 109 11 -4 19 -2 19 4 0 6 -4 11
-9 11 -5 0 -13 10 -16 22 -4 11 -17 31 -30 42 -35 33 -50 67 -34 77 7 4 10 11
7 15 -11 10 -88 13 -88 3 0 -5 -7 -9 -15 -9 -9 0 -15 9 -15 23 0 12 -3 32 -6
45 -5 16 -2 22 9 22 20 0 28 25 17 55 -5 14 -8 30 -6 37 1 7 1 10 -1 6 -6 -11
-33 -10 -33 0 0 4 5 13 12 20 9 10 8 16 -5 29 -9 10 -17 12 -17 6 0 -6 -9 -9
-20 -6 -13 3 -20 14 -20 29 0 12 -4 26 -10 29 -21 13 -9 27 20 23 19 -3 31 0
35 10 4 11 9 11 18 3 10 -8 20 -4 40 17 15 16 24 33 20 38 -5 5 4 -1 18 -14
22 -19 30 -21 56 -12 l30 11 -28 31 c-16 16 -29 33 -29 37 0 9 -62 7 -78 -2
-7 -5 -10 -12 -7 -17 3 -5 -8 -23 -25 -40 -16 -17 -30 -27 -30 -23 0 4 -8 18
-18 31 -16 20 -21 22 -47 12 -16 -6 -33 -16 -37 -23 -5 -8 -17 -7 -43 6 -48
23 -52 22 -66 -18 -7 -19 -18 -35 -24 -35 -7 0 -12 -14 -12 -30 0 -19 -9 -41
-26 -58 -15 -15 -30 -42 -33 -60 -4 -18 -13 -32 -20 -32 -8 0 -14 -7 -14 -16
0 -21 -88 -60 -103 -45 -20 20 -39 13 -31 -11 4 -13 11 -26 16 -29 12 -7 -3
-39 -26 -59 -9 -7 -16 -21 -16 -31 0 -11 -7 -19 -16 -19 -8 0 -13 -4 -10 -9 6
-10 -16 -61 -26 -61 -4 0 -13 9 -21 20 -14 19 -84 56 -101 51 -4 -1 -23 10
-42 24 -30 23 -40 25 -79 19 -39 -5 -45 -10 -45 -30 0 -28 -16 -40 -35 -24
-10 8 -14 7 -17 -5 -2 -14 -7 -13 -30 9 -22 19 -28 34 -28 66 0 23 -7 55 -16
71 -8 17 -13 36 -11 42 2 7 1 22 -4 34 -5 15 -3 25 7 33 7 7 14 19 14 26 0 8
7 14 15 14 18 0 18 4 1 55 -8 22 -18 38 -22 37 -5 -2 -16 13 -24 34 -16 38
-16 38 12 62 20 17 35 22 52 18 27 -7 42 17 30 47 -12 33 -98 69 -106 45 -3
-8 -15 -5 -36 11 -26 18 -41 21 -88 18 -74 -5 -94 0 -94 27 0 12 -12 29 -30
41 -16 11 -30 27 -30 36 0 24 -10 29 -36 17 -18 -8 -21 -14 -12 -20 9 -5 4 -8
-13 -8 -23 0 -26 4 -24 33 2 53 22 80 56 75 25 -4 28 -2 23 14 -3 11 0 20 10
24 9 3 16 18 16 33 0 54 9 66 48 68 20 1 46 4 57 6 11 3 32 -2 47 -9 15 -8 38
-14 51 -14 21 0 23 4 19 26 -4 23 -2 25 17 19 13 -4 28 -2 36 5 11 9 19 9 28
2 8 -7 18 -7 27 -2 23 15 43 12 37 -4 -4 -10 -1 -13 9 -9 11 4 12 9 5 16 -6 6
-11 22 -11 35 0 13 -7 31 -16 40 -15 14 -15 17 -2 26 13 8 11 17 -18 58 -19
26 -30 48 -24 48 6 0 8 10 4 25 -4 16 -2 25 5 25 8 0 9 5 1 19 -5 11 -10 29
-10 41 0 13 -8 24 -20 27 -21 6 -27 37 -10 48 13 8 1 86 -17 106 -8 10 -34 20
-59 24 -24 3 -45 10 -45 16 -1 5 -2 15 -3 22 -1 7 -12 11 -28 9 -14 -2 -29 2
-33 7 -3 6 -15 11 -26 11 -14 0 -19 7 -19 30 0 17 -5 30 -10 30 -6 0 -15 11
-19 24 -8 19 -19 24 -63 29 -29 4 -71 2 -92 -4 -34 -9 -42 -8 -65 9 -14 11
-25 26 -23 32 5 22 -19 40 -46 33 -16 -4 -23 -2 -19 4 4 6 0 14 -9 17 -20 8
-18 9 -33 -13z m210 -1068 c13 -15 11 -16 -21 -10 -22 4 -30 4 -21 -2 11 -7 8
-12 -13 -26 -20 -13 -29 -15 -40 -6 -10 8 -22 1 -54 -34 -22 -25 -46 -45 -53
-45 -15 0 -59 40 -59 53 0 5 6 4 14 -2 14 -12 66 -5 66 8 0 4 10 7 21 8 25 2
61 32 53 44 -3 5 0 10 5 10 26 3 30 4 37 12 13 13 51 7 65 -10z m-402 -189 c3
-16 1 -17 -13 -5 -19 16 -21 34 -3 29 6 -3 14 -13 16 -24z m89 -18 c2 -11 10
-15 19 -12 12 5 14 1 11 -19 -3 -14 -1 -28 4 -31 5 -3 7 -12 4 -20 -9 -25 11
-24 22 1 7 14 18 25 26 25 9 0 12 7 9 19 -7 26 10 34 25 11 7 -12 8 -21 2 -25
-6 -3 -10 -17 -10 -31 0 -18 -8 -28 -27 -37 -21 -9 -29 -20 -30 -42 -2 -23 -1
-26 6 -11 7 18 8 18 14 2 12 -31 8 -37 -20 -30 -40 10 -47 15 -32 26 11 8 11
9 -1 5 -8 -2 -15 -15 -15 -28 -1 -18 -6 -23 -20 -21 -36 5 -42 10 -54 42 -9
28 -9 31 6 26 24 -10 53 3 53 24 0 10 4 20 10 22 13 4 -6 73 -26 93 -9 9 -24
13 -35 10 -14 -5 -17 -2 -13 8 8 21 68 15 72 -7z m222 -137 c0 -5 -4 -9 -10
-9 -5 0 -10 7 -10 16 0 8 5 12 10 9 6 -3 10 -10 10 -16z m-130 -88 c0 -4 17
-28 39 -52 21 -24 50 -67 64 -95 14 -27 43 -66 64 -86 42 -39 49 -54 33 -73
-8 -9 -5 -14 10 -18 13 -3 18 -10 14 -21 -8 -20 -38 -21 -54 -1 -7 8 -21 15
-31 15 -20 0 -44 35 -34 50 4 6 0 13 -9 16 -17 7 -46 74 -46 110 0 14 -13 42
-30 62 -32 40 -51 102 -31 102 6 0 11 -4 11 -9z m1421 -28 c9 -7 18 -10 21 -7
8 7 78 -26 78 -36 0 -5 -9 -12 -20 -15 -12 -4 -17 -11 -14 -18 4 -7 4 -9 -1
-5 -4 4 -16 3 -26 -2 -14 -8 -19 -6 -24 10 -6 19 -16 24 -41 21 -6 -1 -21 11
-35 25 -23 25 -23 26 -6 39 20 14 42 11 68 -12z m66 -117 c4 -8 17 -15 28 -17
12 -3 21 -14 23 -28 3 -16 0 -21 -10 -17 -7 3 -20 9 -29 12 -14 5 -39 43 -39
59 0 11 20 4 27 -9z m-341 -139 c15 -8 19 -18 15 -30 -6 -16 -9 -14 -29 13
-24 32 -20 37 14 17z m-745 -39 c1 -7 1 -16 1 -19 -1 -4 17 -13 38 -22 51 -20
56 -54 10 -63 -16 -4 -30 -10 -30 -15 0 -5 -5 -9 -10 -9 -13 0 -51 61 -44 71
2 4 0 18 -5 32 -5 14 -7 28 -4 31 11 11 43 6 44 -6z m126 -143 c-14 -28 -22
-31 -31 -10 -3 9 0 15 9 15 8 0 15 5 15 10 0 6 4 10 9 10 5 0 4 -11 -2 -25z
m-63 -31 c8 -21 -12 -17 -24 6 -8 16 -8 18 4 14 8 -3 17 -12 20 -20z m841 -94
c-3 -5 -11 -10 -16 -10 -6 0 -7 5 -4 10 3 6 11 10 16 10 6 0 7 -4 4 -10z
m-1225 -290 c0 -5 -2 -10 -4 -10 -3 0 -8 5 -11 10 -3 6 -1 10 4 10 6 0 11 -4
11 -10z m865 -220 c3 -5 -1 -10 -9 -10 -8 0 -18 5 -21 10 -3 6 1 10 9 10 8 0
18 -4 21 -10z"/>
<path d="M11730 10501 c15 -28 14 -49 -2 -33 -7 7 -19 12 -27 12 -8 0 -22 7
-32 16 -13 12 -22 13 -37 5 -10 -5 -51 -17 -91 -26 -46 -11 -71 -21 -68 -28
18 -42 18 -47 8 -47 -8 0 -9 -6 -2 -18 9 -17 6 -18 -34 -12 -25 4 -49 2 -54
-3 -12 -12 -27 -2 -34 23 -4 16 0 20 21 21 15 0 21 3 15 6 -7 2 -13 16 -13 29
0 28 -12 31 -31 8 -7 -9 -37 -27 -66 -40 -29 -12 -53 -28 -53 -33 0 -6 -11
-13 -25 -17 -14 -3 -22 -10 -19 -16 3 -5 0 -15 -6 -23 -10 -12 -10 -18 0 -30
9 -11 10 -15 1 -15 -8 0 -10 -8 -6 -20 7 -23 -39 -95 -55 -85 -5 3 -10 -7 -12
-22 -2 -20 -10 -29 -28 -33 -20 -5 -26 -13 -28 -43 -3 -39 -31 -65 -55 -51 -6
4 -4 -2 6 -13 17 -20 17 -21 -23 -42 -22 -11 -49 -21 -59 -21 -29 0 -99 -89
-86 -110 5 -9 -30 -34 -50 -35 -5 -1 -24 -9 -42 -18 -18 -9 -38 -17 -46 -17
-24 0 -67 -25 -72 -41 -3 -9 -14 -24 -25 -34 -20 -18 -21 -18 -43 3 -27 25
-72 29 -81 7 -3 -8 -12 -15 -21 -15 -13 0 -14 -4 -5 -20 10 -18 7 -20 -30 -26
-29 -5 -40 -11 -40 -24 0 -10 -5 -20 -11 -22 -36 -12 56 -68 112 -68 15 0 37
8 50 18 41 30 69 43 79 37 6 -3 7 1 4 9 -3 8 2 17 14 20 12 4 22 19 26 38 5
25 9 28 20 19 11 -9 19 -5 39 20 24 31 26 32 68 21 93 -23 98 -23 109 -2 6 11
16 20 22 20 6 0 25 15 40 33 l29 32 -4 -27 c-2 -16 2 -33 9 -39 8 -6 14 -8 15
-3 0 5 5 -2 10 -16 7 -17 12 -21 18 -12 6 10 10 10 20 -2 7 -8 18 -13 25 -10
16 6 40 -21 31 -36 -3 -5 0 -10 7 -10 7 0 24 -3 37 -7 20 -5 22 -3 16 16 -7
24 -5 25 29 10 19 -9 29 -8 46 4 12 9 28 13 35 11 8 -4 13 4 13 22 0 15 6 32
14 38 8 6 13 16 11 22 -5 14 42 38 56 30 6 -4 11 -1 11 7 0 16 -31 47 -47 47
-6 0 -16 15 -22 33 -11 30 -10 34 20 60 23 21 30 35 26 53 -2 13 0 24 4 24 5
0 6 7 3 15 -11 27 5 65 27 65 11 0 33 7 49 15 28 14 34 29 33 73 -1 6 9 13 21
14 11 0 33 2 49 3 20 2 27 -2 27 -16 0 -11 7 -19 18 -20 42 -2 59 -10 87 -43
17 -19 43 -38 58 -41 15 -4 30 -11 33 -16 3 -5 16 -6 28 -3 14 3 29 0 38 -9
10 -10 20 -12 29 -6 8 5 10 9 6 9 -5 0 -1 7 8 16 12 13 19 14 28 5 15 -15 28
-14 25 2 -2 6 4 11 13 9 9 -1 19 4 23 13 3 8 12 15 21 15 31 0 -10 107 -57
148 -20 17 -28 33 -28 57 0 25 -7 38 -35 59 -19 14 -40 25 -47 24 -8 -2 -12 5
-11 17 1 13 -9 28 -27 40 -16 11 -32 30 -35 42 -3 13 -10 23 -16 23 -6 0 -6
-6 1 -19z"/>
<path d="M9353 10184 c-3 -10 -8 -12 -12 -5 -4 6 -12 2 -19 -9 -10 -17 -10
-20 3 -20 9 0 18 -7 21 -15 6 -14 8 -14 18 1 11 14 17 15 49 3 39 -14 57 -6
78 32 7 15 6 17 -6 13 -8 -4 -15 -12 -15 -19 0 -7 -7 -15 -15 -19 -9 -3 -15 0
-15 9 0 8 -8 15 -19 15 -10 0 -24 7 -31 15 -16 19 -29 19 -37 -1z"/>
<path d="M9425 10190 c3 -5 14 -10 23 -10 15 0 15 2 2 10 -20 13 -33 13 -25 0z"/>
<path d="M9540 10170 c0 -5 -6 -10 -14 -10 -7 0 -19 -7 -26 -15 -11 -13 -11
-20 0 -40 11 -20 16 -22 36 -13 13 6 24 15 24 19 0 4 3 15 6 24 4 10 2 15 -7
13 -9 -2 -13 4 -11 15 2 9 0 17 -3 17 -3 0 -5 -4 -5 -10z"/>
<path d="M9360 10073 c0 -13 29 -38 35 -31 3 3 -4 13 -15 23 -11 10 -20 13
-20 8z"/>
<path d="M9240 10040 c-12 -8 -12 -10 3 -16 16 -6 16 -8 -2 -33 -19 -26 -21
-60 -7 -116 2 -11 5 -22 5 -24 1 -3 8 4 16 15 11 14 14 15 15 4 0 -8 8 0 17
18 8 18 18 30 21 27 8 -8 62 46 56 56 -2 5 -11 6 -19 2 -11 -3 -15 2 -15 17 0
19 -2 20 -15 10 -19 -16 -45 3 -45 31 0 21 -8 23 -30 9z"/>
<path d="M9337 10027 c3 -16 12 -23 31 -24 15 -1 21 1 15 4 -7 2 -13 11 -13
18 0 7 -7 16 -16 19 -22 8 -22 9 -17 -17z"/>
<path d="M9705 10020 c18 -20 35 -26 35 -12 0 4 -12 12 -26 19 -26 12 -26 12
-9 -7z"/>
<path d="M9772 10009 c-21 -18 -22 -39 -3 -39 9 0 34 50 28 56 -2 2 -13 -5
-25 -17z"/>
<path d="M10920 9970 c0 -5 5 -10 11 -10 5 0 7 5 4 10 -3 6 -8 10 -11 10 -2 0
-4 -4 -4 -10z"/>
<path d="M8285 9900 c-3 -6 -17 -7 -30 -4 -30 8 -45 -29 -21 -55 9 -10 16 -22
16 -28 0 -6 6 -13 13 -16 10 -4 13 2 9 18 -4 23 -2 24 33 18 l37 -6 -16 25
c-9 14 -14 33 -10 42 7 18 -20 23 -31 6z"/>
<path d="M9675 9837 c-10 -38 -44 -50 -89 -32 -30 13 -36 13 -46 0 -7 -8 -23
-15 -35 -15 -12 0 -28 -6 -34 -14 -9 -10 -20 -12 -42 -6 -16 5 -29 5 -29 1 0
-5 -11 -25 -25 -45 -14 -21 -21 -35 -15 -31 20 13 9 -27 -14 -50 -24 -24 -24
-25 -5 -35 14 -8 19 -8 19 1 0 7 9 9 26 5 20 -5 30 -2 41 14 8 11 21 20 30 20
11 0 14 7 11 24 -5 23 -2 24 29 19 26 -4 33 -2 33 10 0 19 5 23 52 31 30 5 41
3 58 -14 20 -20 40 -19 40 2 0 6 7 19 16 29 14 15 14 22 1 65 -14 47 -15 48
-22 21z"/>
<path d="M9211 9826 c-7 -8 -9 -25 -5 -40 4 -18 2 -26 -6 -26 -9 0 -7 -7 5
-20 13 -15 22 -17 36 -9 11 5 19 16 19 23 0 8 7 19 15 26 18 15 1 55 -20 47
-7 -3 -17 -1 -22 4 -6 6 -14 5 -22 -5z"/>
<path d="M9715 9700 c-3 -5 -12 -7 -20 -3 -11 4 -13 1 -9 -10 3 -9 12 -13 19
-11 7 3 23 1 34 -6 17 -9 21 -8 21 4 0 19 -36 40 -45 26z"/>
<path d="M9780 9700 c0 -5 5 -10 11 -10 5 0 7 5 4 10 -3 6 -8 10 -11 10 -2 0
-4 -4 -4 -10z"/>
<path d="M9805 9681 c-7 -12 2 -31 15 -31 9 0 8 26 -2 35 -3 4 -9 2 -13 -4z"/>
<path d="M10193 9633 c-15 -5 -6 -54 11 -65 26 -18 37 -8 20 17 -9 14 -14 32
-10 40 5 15 1 17 -21 8z"/>
<path d="M10403 9497 c4 -10 -1 -18 -14 -22 -10 -4 -19 -11 -19 -16 0 -5 -10
-9 -22 -9 -21 0 -21 -1 7 -20 33 -22 60 -10 52 22 -3 10 -1 18 4 18 13 0 11
28 -3 36 -7 5 -9 2 -5 -9z"/>
<path d="M9628 9323 c8 -13 10 -23 6 -23 -5 0 6 -8 24 -17 37 -18 52 -11 34
17 -7 11 -12 27 -12 35 0 11 -9 14 -34 12 -32 -2 -33 -3 -18 -24z"/>
<path d="M9668 9204 c-12 -12 -20 -14 -34 -6 -15 8 -24 5 -46 -19 -16 -16 -33
-29 -38 -29 -6 0 -10 -10 -10 -22 0 -19 2 -20 10 -8 8 12 13 13 29 3 15 -10
31 -10 71 0 54 13 69 33 55 76 -8 25 -16 26 -37 5z"/>
<path d="M7964 9033 c4 -7 3 -21 -3 -30 -7 -15 -1 -22 45 -44 41 -21 56 -24
64 -15 7 9 -1 24 -29 55 -24 26 -42 38 -46 31 -5 -8 -11 -7 -23 2 -11 9 -14
10 -8 1z"/>
<path d="M8072 8853 c-1 -23 2 -45 8 -48 6 -4 8 -11 5 -16 -3 -5 1 -6 10 -3 8
4 22 1 30 -6 13 -10 15 -8 15 13 0 14 5 38 10 53 13 34 2 47 -42 48 -32 1 -33
0 -36 -41z"/>
<path d="M10518 8715 c2 -14 10 -25 17 -25 7 0 16 -6 18 -12 3 -7 6 -3 6 10 1
12 6 22 13 22 19 0 -4 17 -33 24 -24 5 -26 3 -21 -19z"/>
<path d="M10563 8631 c0 -22 19 -32 34 -19 19 16 16 25 -10 30 -17 3 -24 0
-24 -11z"/>
<path d="M7210 8289 c1 -20 36 -59 53 -59 8 0 20 6 26 14 9 11 6 15 -16 21
-16 3 -36 14 -45 22 -15 13 -18 13 -18 2z"/>
<path d="M8325 8240 c-16 -7 -17 -9 -3 -9 9 -1 20 4 23 9 7 11 7 11 -20 0z"/>
<path d="M6868 7043 c-21 -5 -23 -19 -6 -29 7 -4 8 -3 4 4 -4 7 -1 12 8 12 9
0 16 5 16 10 0 6 -1 9 -2 9 -2 -1 -11 -3 -20 -6z"/>
<path d="M6816 6985 c-3 -8 -11 -15 -19 -15 -7 0 -21 -13 -30 -30 -17 -29 -17
-30 0 -30 25 0 39 11 47 38 9 26 21 28 35 5 10 -17 10 -17 11 0 0 9 7 17 15
17 8 0 15 5 15 11 0 6 -9 8 -20 4 -12 -4 -27 -2 -34 4 -10 9 -15 8 -20 -4z"/>
</g>
</svg>
