<svg version="1" xmlns="http://www.w3.org/2000/svg" width="1024.331" height="1231.782" viewBox="0 0 768.249 923.836"><g fill="#222"><path d="M42.4.736c.4.6.3 1.8-.3 2.5-.9 1.1-.6 1.5 1 1.9 1.6.4 1.9.3 1.1-.5-.6-.6-.8-1.6-.6-2.3.3-.7 0-1.6-.7-2.1-.8-.4-1-.3-.5.5zM36 7.436c0 1.4-.3 1.4-1.5.4-1.3-1.1-1.4-1-1 .1.6 1.7-4.8 4.3-7.5 3.6-1.6-.4-1.9.1-2.2 3.2-.2 2.7-.7 3.6-2 3.5-1-.1-1.8.4-1.8 1.1 0 2-3.9 2.9-5.8 1.3-3.5-2.8-6.6-4.1-7-3-.2.8-1.1.8-2.8.1-1.4-.5-2.7-.9-2.9-.9-.7 0 .8 7.5 2.1 10.7 1.1 2.8 1.1 3.3-.1 3.3-.9 0-1.2.6-.9 1.5.4.9 0 1.5-1 1.5-1.1 0-1.6.9-1.6 2.9 0 3.3 1.4 4.8 5 5.3 1.8.2 2.6 1.1 3.1 3.4.3 1.7 1.7 4.7 3.1 6.5 4.8 6.4 5.2 7.8 2.8 9.7-2 1.6-2.1 2.1-1 6.7.6 2.8 1.8 6.2 2.6 7.8.9 1.5 1.2 3.6.9 4.8-.4 1.3 0 2.8 1.2 4.1 1.3 1.5 1.5 2.2.5 2.5-.6.3-1 .9-.6 1.4.3.5 0 .9-.6.9-.7 0-.9.8-.5 2 .5 1.6.2 2-1.9 2-1.4 0-2.9-.8-3.5-1.7-.5-1-1.3-1.4-1.8-1-.4.5.1 1.6 1.2 2.5 1.9 1.6 3.7 4.5 3.9 6.5.2 2 3.9 3.5 7.1 3 2.4-.4 3.9-.1 5.1 1.1 1.1 1.2 2.5 1.5 4.1 1.1 2.1-.5 2.6-.1 3.6 2.5.6 1.6 1.7 3 2.4 3s1.3.4 1.3 1c0 .5 1.8 0 4-1.1 2.2-1.2 4-2.8 4-3.6 0-1 .6-1.3 1.7-.9.9.4 3.6 1 6 1.3 3.3.4 4.3.2 4.3-.8.1-1 .5-.8 1.5.5.8 1 1.1 2.4.8 3-.4.6 0 .5.9-.2 1.3-1 1.7-1 2.2.5.4 1 .2 1.9-.3 2.1-.6.2-1.1 1-1.1 1.7 0 .8-1 2.1-2.2 2.9-2.9 2-1.4 3.6 4.4 4.6 5.2 1 5.8.3 4.4-5.7-.9-4.2-.8-4.7 1.2-6.3 1.2-1 1.9-2 1.5-2.2-.5-.1-2.3-2.2-4.1-4.6l-3.4-4.3 2.7-2.5c1.4-1.3 3-2.2 3.4-2 .4.3 1.3-1.1 2-3 .7-1.8 1.9-3.4 2.6-3.4 2.3 0 8.2-3.4 9.5-5.3.9-1.5.8-2.2-.4-3.6-.9-1-1.6-2.4-1.6-3.1 0-.7-.7-2.2-1.7-3.2-1-1.2-1.2-1.8-.4-1.8.8 0 1-.7.6-1.9-.3-1.1-.2-2.2.3-2.5.9-.6.8-9.8-.2-11.4-.3-.5.8-1.2 2.4-1.5 2.8-.6 2.9-.7 1.5-3.4-.8-1.5-1.2-3.6-.9-4.5.7-2.4-.4-4.1-5.5-8.1-3.4-2.7-4.7-3.3-5.7-2.4-.7.7-1.9 1.6-2.7 2.2-.7.5-2.3 1.8-3.5 2.9-2.1 1.8-2.2 1.8-3.9-.3-1.8-2.2-1.8-2.1-1.5 3.3.3 4.6.1 5.6-1.2 5.6-2 0-2.1 1.4-.1 3 1.4 1.1 1.1 1.7-2.1 4.6-2 1.9-4.2 3.4-4.9 3.4-1.8 0-4.7-4.8-3.8-6.3.4-.8.1-.8-1 .1-1.9 1.6-3.8.7-3-1.4.4-1.1 0-1.5-1.3-1.2-1.4.2-1.9-.3-1.9-2.1 0-1.4-.6-2.6-1.3-2.9-.7-.2-1-.8-.6-1.3.3-.5 1.3-.5 2.4.1 1 .6 2.1.6 2.4.2.2-.4-1-1.4-2.7-2.1-5.3-2.3-7.8-5-6.6-7.3 1.2-2.1-.3-4.8-2.7-4.8-1.8 0-2.8-1.9-1.6-3.3 1.3-1.5 1.1-6.9-.3-8-.6-.5-.3-.7.8-.3.9.3 1.7.1 1.7-.4s.8-1.1 1.8-1.4c.9-.4 2.8-1.5 4.1-2.5 2.2-1.7 2.3-2.1 1.1-5.5-1.2-3.6-4-5-4-2zm-1.5 5.4c.3.5.2 1-.4 1-.5 0-1.3-.5-1.6-1-.3-.6-.2-1 .4-1 .5 0 1.3.4 1.6 1zm-5.5 7.4c0 .3-.4.8-1 1.1-.5.3-1 .1-1-.4 0-.6.5-1.1 1-1.1.6 0 1 .2 1 .4zm29 65.5c0 .5 1 1.1 2.3 1.3 1.9.3 2.2.8 1.9 3.8-.2 1.9-.8 3.6-1.3 3.8-.5.2-.5 1.1 0 2.1 1.2 2.2-.1 4.4-2.4 3.9-2.4-.4-3.2-2.8-1-2.8 1.5 0 1.3-.6-.9-3.4-1.6-2.2-2.2-3.7-1.6-4.1.8-.5.7-1.1 0-2-.7-.8-.9-1.9-.5-2.5.8-1.3 3.5-1.3 3.5-.1z"/><path d="M41 8.836c0 .5.5 1 1 1 .6 0 1-.5 1-1 0-.6-.4-1-1-1-.5 0-1 .4-1 1zM39.2 17.936c-1.2 3.1-.4 5.6 2.1 7.4 2.1 1.5 4.6 2.1 3.4.8-.4-.3-.2-1.2.4-1.9 1.2-1.5.1-4-3-6.8-2-1.8-2.1-1.8-2.9.5zM87 91.136c.7.9 1 2 .6 2.4-.3.3.4 1.1 1.5 1.7 2.7 1.4 5.5 7.6 3.4 7.6-.7 0-1.9.2-2.7.5-.7.3-1.9.1-2.7-.4-1-.7-1.1-1.3-.2-3 .9-1.6.9-2.1-.1-2.1-1.9 0-4.8 3.7-4.8 6 0 1.4-.7 2-2.2 2-1.3 0-3 .5-3.8 1-1.2.8-1.1 1 .7 1 1.2 0 3.3-.4 4.6-.9 1.4-.6 2.7-.7 3-.4.9.8-.4 3.4-1.4 2.8-.4-.3-1.5.7-2.3 2.3-.8 1.6-2.4 3.2-3.4 3.4-2.1.6-3.8 6.6-2.3 8.1 1.4 1.4 5.2-2.9 4.4-4.9-.5-1.4-.2-1.6 1.5-1.2 2.5.7 3.7-1.6 4.1-7.6.1-1.6.7-1.8 3.6-1.3 1.9.3 3.5.2 3.5-.2 0-.5 1.5-1.4 3.3-2.2 1.7-.7 3.4-1.4 3.6-1.5.6-.5-4-7.4-5-7.4-.6 0-2.6-1.7-4.6-3.8-2-2-3-2.9-2.3-1.9zM125 94.136c0 2-3.6 5.1-4.5 3.8-1.1-1.8-2.3-1.2-1.8.8.3 1.2 1.1 1.7 1.9 1.4.8-.3 1.4 0 1.4.6s.5 1.1 1 1.1c.6 0 1-1 1-2.2 0-1.2.7-2.9 1.6-3.9 1-1.1 1.2-1.9.5-2.4-.6-.3-1.1 0-1.1.8z"/><path d="M139.7 93.636c-1.5.2-3.3 1.2-4 2.3-.6 1-1.9 1.9-2.8 1.9-.9 0-1.9.7-2.2 1.4-.7 1.7-8.2 4-9.9 3-.6-.4-1.7.1-2.4 1.1-.8 1.1-1.9 1.5-3.1 1.1-.9-.4-1.4-.4-1 0 .4.4.2 1.3-.5 2.1-.9 1.2-1.6.9-3.9-1.6-2.5-2.8-2.9-2.9-6.4-1.8l-3.7 1.1 2.3 1.8c1.3 1 2.7 2.1 3.1 2.5.3.5 1.8 2.1 3.3 3.7 1.4 1.5 2.4 3 2.1 3.3-.7.8-4.3-1.5-6.4-4.2-2.1-2.6-4.2-3.3-4.2-1.4 0 .6-.9.9-2 .6-2.3-.6-2.4-.2-.8 4.3.9 2.8.8 3.5-.5 4.5-1 .7-1.7 1.9-1.7 2.8 0 1.4.4 1.5 2.8.5 1.5-.7 3.2-1.8 3.9-2.5.7-1 1.3-1.1 1.8-.4.9 1.6 3.5 1.3 3.5-.4 0-.9.9-1.5 2.5-1.5 2.3 0 3-.9 2.6-3.5-.1-1.1 2.6 2.2 3.2 3.8.2.6 2.9 1.1 6 1.2 4.6.2 6.1.7 8 2.7 1.3 1.4 2.2 3 2.1 3.7-.1.6 0 .7.3.1.2-.5 1.1-1 1.9-1 1 0 1.2-.5.8-1.3-.5-.7 0-.6 1.1.3 1.7 1.4 1.8 1.4.6-1l-1.2-2.5 2.1 2.4c1.6 1.9 1.8 2.6.8 3.3-.8.5-.1.6 1.7.2 1.7-.4 3.4-1.2 3.8-1.8.6-.8 1-.8 1.3 0 .8 1.9 4.6.4 4.1-1.6-.6-2.2 2-3.7 6.3-3.6 2.5.1 4.1-.6 5.8-2.3l2.2-2.4 2.3 2.1c1.6 1.5 3.6 2.2 6.2 2.2 3 0 4.6.8 8.1 4 4.7 4.3 7.8 4.9 15.7 3.1 3.3-.8 3.6-.7 2.6.6-1 1.2-1 1.9 0 3.4.6 1.1.9 2.9.6 4-.4 1.1-.1 2.6.5 3.4 1 1.2.9 1.5-.4 1.5-1 0-1.6.8-1.6 2.3 0 1.3-.6 3.2-1.4 4.3-1.3 1.7-1.5 1.7-2.1.2-.7-1.8-4.6-2.1-4.4-.3.3 2.2-.2 3.3-1.3 3.2-4-.1-5 .3-4.3 2 1.9 4.6 1.7 4.9-2.2 5-2.1.1-4-.3-4.3-.8-.3-.4-2.3-1.1-4.3-1.4-4.2-.7-8.5 1.8-7.9 4.6.2 1.1-.7 1.8-2.8 2.3-1.7.3-2.9 1-2.5 1.6.4.6 1.5.5 3-.2 2-.9 2.8-.8 4.2.4 2 1.8 5.9 3.2 8.7 3.3 1.4 0 2 .9 2.2 3.4.4 3.2.3 3.3-2.7 2.9-2.8-.4-3-.3-2.4 1.9.3 1.2.1 2.3-.4 2.3-.6 0-.3 1.7.6 3.7 1.9 4.7 1.1 13.7-1.6 17.3-1.8 2.5-1.8 2.7-.1 4.8 1 1.1 2 1.8 2.4 1.5.3-.3 2.4.6 4.6 2.1 2.2 1.4 4 2.3 4 2 0-.4.7-.1 1.5.6s1.5 2.1 1.5 3.1.9 2.3 2 2.9c1.6.9 1.8.8 1.4-.5-.4-1 0-1.5 1.1-1.5 1 0 1.3-.5.9-1.2-.5-.7-.3-.8.5-.3.7.4 2.1 2.6 3.1 5 1.2 2.8 3.4 5.3 6.2 7.3 5.3 3.7 6.7 5.3 7.3 8.3.3 1.3 1.8 3.5 3.5 4.9 2.8 2.4 3.3 3.7 4.4 13.1.1 1.4 1.9 5 3.9 8 2.2 3.4 3.4 6.2 3.1 7.4-.3 1.5.5 2.5 3.5 4.2 4.9 2.8 5.5 2.8 4.8.3-.3-1.3.1-2.1 1.4-2.5 1-.4 1.9-1.3 1.9-2.2 0-1.4.3-1.4 2 .2 1.2 1 1.8 2.5 1.6 3.2-.3.7-.1 1.5.4 1.8.6.4 1-.3 1-1.4 0-1.4.9-2.3 2.5-2.7 3.3-.8 4.3.2 2.7 2.7-1.2 1.8-1.1 2.1.7 2.6 2.4.6 2.7 1.8.9 3-3.1 2-1.2 4.3 7 8.5 2.8 1.4 3.6 4.5 2.2 8.3-1.1 2.8-1.3 2.8-2 1-1.3-3.4-3.2-4.4-7-3.6-2.8.5-3.4 1.1-3.4 3.1 0 1.5.6 2.5 1.4 2.6 2.8.2 8.8 3.3 9.3 4.9 1 2.6-.4 4.5-3.3 4.5-5 0-5.7 3.1-2.4 10.7.8 1.8 1.8 3.2 2.2 3.1 1.1-.3 5.2 2.2 5.2 3.1 0 .5-1.1.6-2.4.4-1.7-.4-2.5 0-2.8 1.5-.4 1.3-1.6 2.2-3.4 2.4-2.1.2-3 .9-3.2 2.5-.2 1.4-1 2.3-2 2.3s-2.9.8-4.2 1.7c-1.3 1-3.4 1.7-4.5 1.8-1.1 0-2.4 1-3 2.2-1 2.4-4.5 3.2-4.5 1 0-.8-.3-.7-1 .3-.7 1.1-.4 1.7 1.1 2.2 1.8.7 2 1.3 1.4 5.1-.4 2.3-1.1 4.9-1.5 5.7-1.3 2.7 0 8 2.1 8 2.7 0 3.2 1.6 1.4 4.9-1.4 2.8-1.4 3.1.4 4.3 1.7 1.2 1.8 1.8.7 6.2-.9 3.5-2 5.2-3.9 6.2-1.6.9-2.8 1-3.2.4-.7-1.1-5.2-.3-7.1 1.2-.7.5-1.6.8-2 .7-1.9-.5-6.4 1.4-6.4 2.6 0 .7-.6 1.6-1.2 1.9-.7.3 2.1.4 6.2.2 7.8-.4 10.3 0 9.5 1.4-.3.5.9 2 2.6 3.5 2.3 1.9 3.4 2.3 4 1.4.4-.7 1.5-.9 2.5-.5 1.1.4 1.4 1 .8 1.4-1.8 1.2-2.3 5-.7 5.6 1.1.4 1.1 1 .3 2.6-1.1 2.1-.8 2.3 2.5 2.1 1.7-.2 1.8 0 .5.9-1.2.8-.9.9 1.1.5 1.7-.4 3.2-.1 4.1.9.9.8 1.9 1.1 2.4.6.5-.5 2.3-1 3.9-1.2 2.4-.2 2.9-.7 2.7-2.4-.4-2.7 4.3-6.5 11.1-9 .9-.3 1.7-1 1.7-1.5s.6-.9 1.4-.9c.8 0 2.3-1 3.3-2.3 1-1.3 3.1-3.2 4.7-4.2 2.8-1.9 2.8-1.9 4.6.5 1.6 2.1 1.9 2.2 3.3.8.9-.8 1.4-2.8 1.2-4.4-.1-1.5.2-3.5.8-4.5.6-1 .7-2.4.2-3.5-.5-1.1-.9-2.4-1-2.9 0-.6-.4-1.6-.8-2.3-.6-.8-.2-1.2 1.1-1.2 2.4 0 4.2-3.8 3.1-6.8-1-2.6.5-3 1.7-.5.4 1 .8 2 .9 2.3.1.3.8 1.8 1.5 3.4 1.3 2.5 1.2 3-.3 4.1-.9.7-1.7 2.1-1.7 3.1 0 1.5.8 1.1 3.5-1.8 2.2-2.4 3.5-4.8 3.5-6.5 0-2 .3-2.4 1.1-1.6 1.7 1.7 6.1-1.4 5.4-3.7-.8-2.6 2.8-6 6.3-6 2.3 0 3.6.7 4.8 2.5 1.8 2.8 5.9 3.4 6.8.9.6-1.6-2-6.4-3.5-6.4-.5 0-1.1-1.1-1.5-2.5-.6-2.3-1-2.4-4.4-1.9-2 .3-4.6.2-5.6-.4-1.2-.7-2.6-.7-3.6-.1-1.1.6-1.9.6-2.3-.1-.3-.5-1.5-1-2.6-1-1.4 0-1.9.7-1.9 2.5 0 1.3-.8 2.9-1.9 3.4-1.4.8-2.3.5-3.9-1.4-1.2-1.4-2.6-2.5-3.2-2.5-.5 0-1-.5-1-1.1 0-.6.7-.9 1.5-.5.9.3 1.5 0 1.5-1 0-.9 1.1-2.9 2.5-4.6 2.8-3.3 3-4.4 1.5-8.4-1.3-3.4-.9-3.8 2.4-2.3 2.2 1 3.9 3.5 4.1 6.1.2 4 7 1.8 7-2.3 0-1.4.6-3.3 1.3-4.2.7-.8 1.2-2.4 1-3.4-.2-1.2.3-1.8 1.5-1.7 1.7.2 1.7.1.1-1.7-.9-1-2.5-1.9-3.4-1.9-2 0-5-3.1-5-5.1 0-.8.5-2 1.2-2.7.7-.7.8-1.2.3-1.2-.6 0-.3-.4.5-1 1.2-.8 1.2-1.8.1-7.2-.7-3.5-1.7-6.7-2.2-7.2-.5-.6-.9-2-.9-3.2 0-2.2-1.7-3.4-4.9-3.4-1.7 0-5.1-7.4-5.1-11.1 0-1.8 6.1-7.9 7.9-7.9.9 0 .7-1-.8-3.5-1.4-2.4-2-5.1-2-8.3.2-4.8-.6-9-2.2-13-.5-1.2-1.3-3.2-1.8-4.5-1.3-3.2-.9-6.8 1.2-9.7 2.1-3 2.1-4.4.3-5.9-.8-.7-1.2-2-.9-3 .3-1-.3-3.3-1.2-5-.9-1.8-1.3-4-1-5 .3-1 0-3-.6-4.5-.9-1.8-.9-2.9-.1-3.9 2.2-2.6-2.2-10.8-4.9-9.1-1.7 1-8.8-6.4-8.2-8.6.3-1.1-.4-3.1-1.6-4.6-1.5-1.9-1.8-3-1-3.5.7-.4.9-1.9.5-4.2-.8-4.2-8.1-12.3-12-13.3-1.6-.4-2.8-1.5-3.2-3-.3-1.3-1.3-2.4-2-2.4-.8 0-1.7-.7-2-1.5-.4-.8-1-1.3-1.4-1-.5.3-1.2 0-1.5-.5-.5-.7-1.2-.5-2.2.7-1.1 1.4-1.6 1.5-2 .5-.7-1.9-8.7-9.6-9.3-9.1-.3.2-.9-1.1-1.5-3-.6-2.1-3.1-5.1-6.7-8.3-3.2-2.8-5.5-4.3-5.2-3.4.3.9.1 1.6-.5 1.6s-1.1-.4-1.1-1c0-.5-1.6-1.7-3.5-2.6-1.9-.9-3.6-2.1-3.6-2.8-.1-.6-.3-2.1-.4-3.3-.3-2.7-2.2-5.3-3.9-5.3-1.7 0-6.3-5.1-6.8-7.5-.5-2.7-6.2-4.5-16.3-5.2-4.4-.3-8.6-1-9.2-1.6-.9-.6-1.3-.6-1.3.2s-.8 1-2 .6c-1.3-.4-2.2-.1-2.6.8-.4 1.2-1.2 1.3-4 .5-1.9-.5-4.4-.6-5.5-.3-2.6.8-6.4-1.6-8.1-5.2-1.1-2.3-1.9-2.8-4.8-2.6-1.9.1-3.7-.1-4-.5-.3-.4-1.8-.6-3.3-.4zm-14.7 19.2c0 .5-.2 1-.4 1-.3 0-.8-.5-1.1-1-.3-.6-.1-1 .4-1 .6 0 1.1.4 1.1 1zm4 1c0 .5-.4 1-1 1-.5 0-1-.5-1-1 0-.6.5-1 1-1 .6 0 1 .4 1 1zm60 45.9c0 1.4-1.8 2.3-3.1 1.5-.8-.4-.7-.9.2-1.5 1.8-1.1 2.9-1.1 2.9 0zm-6 5.6c.7.8.9 1.5.6 1.5-.4 0-1.4-.7-2.2-1.5-.9-.8-1.1-1.5-.6-1.5.5 0 1.5.7 2.2 1.5zm88.1 132.5c1.9 0 3 .6 3.4 2 .7 2.3-.2 4.3-1.6 3.4-.5-.3-.6-1-.3-1.6.5-.7.2-.8-.5-.3-1.9 1.1-6.1-1.5-6.1-3.9 0-1.5.3-1.7 1.2-.8.7.7 2.4 1.2 3.9 1.2zm-7.1 35.9c0 1.6-1.9 2.3-4.3 1.5-2.1-.7-2.1-.7-.2-1.5 2.8-1.1 4.5-1.1 4.5 0zm3.8 4.1c.7 1.2 1 2.5.7 3-.4.6-.2 1 .3 1s.7 1.1.4 2.5c-.2 1.4 0 2.5.6 2.5.5 0 1.2 1.1 1.4 2.5.7 3.3-.3 3.2-3-.5-1.7-2.2-2-3.5-1.3-4.8.6-1.2.5-2.5-.5-4.2-2.3-4.2-1.1-5.9 1.4-2zm16.5 12.6c.3.4-.1 1.3-.9 2.1s-1.2 1.9-.9 2.4c.4.5.4.9.1.9-1 0-2.7-4-2.1-5 .7-1.1 2.8-1.3 3.8-.4zm-5.8 4.2c-.3.7-.5 1.8-.5 2.3 0 .5-.9.9-2 .9s-2 .6-2.1 1.2c0 .7-.4.3-.9-1-.6-1.3-.6-3.2 0-4.7.9-2.2 1.2-2.4 3.5-1.3 1.6.7 2.4 1.7 2 2.6zM70.6 122.336c-.3.9-.6 2.2-.5 2.8 0 .7.5.1 1-1.2s.8-2.6.5-2.8c-.2-.2-.6.3-1 1.2z"/><path d="M119.4 123.336c-.3 1.4-1.5 3-2.5 3.6-1.1.5-1.9 1.6-1.9 2.4 0 .9-.5 2.5-1.2 3.8-2.4 4.8-2.8 5.7-2.8 7.7 0 1.2-.7 2-1.6 2-1.4 0-1.5.7-1 4 .4 2.8.3 4-.6 4-.6 0-1.9.7-2.8 1.5-1 .9-3.1 1.7-4.9 1.8-2.8.2-3.3.7-4.7 5.1-2.2 6.6-2.5 11.4-.7 12 .8.3 1.1 1 .8 1.6-.4.6.5 1 2 1 1.4 0 2.4-.4 2.1-.8-.3-.5.8-.9 2.4-1 1.6 0 3.2.4 3.6.9.3.5.9.7 1.4.4 1.3-.8 6 2.4 6 4.1 0 .8-.5 1.4-1.1 1.4-.6 0-.8.9-.4 2 .5 1.4.2 2-1 2-.9 0-1.4.4-1 1 .8 1.3 3.5.1 3.5-1.6 0-.9 1.2-1.4 3-1.5 1.7-.1 3.4-.2 4-.3 1.6-.2 4-4.3 3.5-5.8-.4-1 .5-1.5 3.1-1.6 4.6-.3 7.4.6 7.4 2.4 0 2 6.9 1.9 7.6-.1.4-.8 1-1.5 1.6-1.5.5 0 1.6-.7 2.5-1.5 1.1-1.2 1.2-1.9.3-2.9-.8-1.1-.8-1.6.2-2.3.7-.4 1.4-1.5 1.5-2.3.1-.8.5-2.7.9-4.3.8-3.3-1.2-6.3-3.2-4.7-1.5 1.4-5.7-.9-5-2.7.3-.6-.5-1.9-1.6-3-1.1-1-2.9-3.6-4-5.8-1.1-2.2-3.6-5.5-5.6-7.3-3-2.7-3.2-3.2-1.4-2.7 2.5.7 2.7.3 1.2-2.6-1.3-2.2 0-2.5 3-.7 2.2 1.4 3.5.6 2.7-1.6-.3-.8-2.2-1.8-4.2-2.2-2.9-.5-3.4-1-3-2.5.4-1.2-.1-2.1-1.4-2.8-3.4-1.9-6-1.3-6.7 1.4zm-.4 49c.7.8.8 1.5.2 1.5-.5 0-1.5-.7-2.2-1.5-.7-.8-.8-1.5-.2-1.5.5 0 1.5.7 2.2 1.5zM85.8 123.336c-.3.3-1.5.8-2.8 1-1.2.2-2.8.9-3.6 1.6-.8.7-1.4.7-1.4.1 0-.5-1.1-1.2-2.4-1.4-1.9-.4-2.5 0-2.9 1.9-.5 2.6 1.6 4.3 5.2 4.3 1.1 0 2.2.9 2.6 2 1 3.3 3.2 2.2 2.6-1.3-.1-.4.4-1.7 1-2.8.8-1.5 1.8-2 3.5-1.6 2.7.5 2.8.3 1.4-2.4-1.1-1.9-2.2-2.4-3.2-1.4zM145.5 127.836c-.3.5.1 1 .9 1 .9 0 1.6.7 1.6 1.5s.4 1.5.9 1.5c1 0 .9-1.9-.2-3.8-1-1.5-2.4-1.6-3.2-.2zM65 128.536c0 .6-.8 1.9-1.7 2.9-1 .9-1.8 3.4-1.8 5.8-.3 6.3-.3 6.4-3 5.8-2.2-.4-2.6 0-3.1 2.7-.4 1.8-1.4 3.6-2.4 4.1-1 .5-2 2.4-2.4 4.1-.7 3.5-6.5 9.6-10 10.5-1.7.4-2.2 1.3-2.3 4.2 0 2-.2 4.6-.4 5.7-.3 1.5.3 2.1 2.5 2.5 3.2.6 3.8 1.4 5.9 8.5 1 3.3 2 5 3 4.9 2.5-.2 2.8 2.4.4 4.1-2.1 1.4-1.9 1.5 2.6 1.5 3.4 0 5.3.6 6.7 2 2.1 2.1 4 2.6 4 1.1 0-.5 1.7-.4 4 .1 3.3.9 4.5.7 6.6-.7 2.5-1.6 2.6-1.6 1.9.4-.8 2.6 1.3 9.6 3.6 11.7 1.2 1.1 1.6 2.5 1.3 4.3-.4 1.8 0 3.3.9 4.3.9.8 2 3.1 2.5 4.9.6 1.9 1.1 2.8 1.1 2.1.2-2 2.2-1.4 4.8 1.4 1.5 1.7 2.8 2.3 3.4 1.7 1.5-1.5 1.4-8.1-.3-10-.8-1-1.6-2.5-1.7-3.3-.6-5.7-.9-7-2-8.4-.8-.9-1.9-1.6-2.5-1.6-2 0-5.6-4.4-5.6-6.8 0-1.7-.7-2.4-2.9-2.8-2-.4-3.3-1.6-4.5-4.1-.9-1.9-1.4-3.9-1.1-4.4.3-.5-.3-1.9-1.4-3.1-1.6-1.6-1.8-2.5-.9-3.5.9-1.1.4-2.4-2-5.8-1.7-2.5-2.8-4.5-2.3-4.5s1.4-2.8 2-6.2c.9-5.2.8-6.6-.5-8.6-1.4-2.2-1.4-2.5.2-4.3 1.2-1.3 1.4-2.2.6-3.1-1.2-1.6-1.3-6.6-.1-7.4 1.8-1.1.9-4.2-1.3-4.8-2.3-.6-2.3-.6-.3-2.4 3.8-3.3 4.7-4.9 3.1-5.5-.8-.3-1.3.1-1.2 1 0 .9-.5 1.8-1.3 2.1-.8.2-1.1 0-.8-.5.3-.5.2-1.5-.4-2.3-.5-.9-.9-1-.9-.3zM151.5 131.836c.3.5 1.1 1 1.6 1 .6 0 .7-.5.4-1-.3-.6-1.1-1-1.6-1-.6 0-.7.4-.4 1z"/><path d="M75.5 132.836c.4.6 1.1.8 1.6.5 1.4-.9 1.1-1.5-.7-1.5-.8 0-1.2.5-.9 1zM125.1 217.036c0 .7.4 2.2.8 3.2.7 1.8.9 1.7 2.4-1.2 1.5-3.2 1.5-3.2-.9-3.2-1.3 0-2.4.6-2.3 1.2zM123.6 223.436c-.4.9-.4 1.9-.1 2.2.2.3.7-.3 1.1-1.2.4-.9.4-1.9.1-2.2-.2-.3-.7.3-1.1 1.2zM73.1 226.436c0 1.1.3 1.4.6.6.3-.7.2-1.6-.1-1.9-.3-.4-.6.2-.5 1.3zM100.4 227.036c-.3.4-1.4.8-2.5.8-2.2 0-3.5 2.3-2.3 4.2.5.7.9 1.5.9 1.8.1 1.9 2.9 6.9 3.6 6.4.5-.3 1 1 1.1 2.8.1 1.8.2 4.1.2 5.1.1 1 1 2.4 2.1 3 1.1.6 2.5 1.7 3.1 2.5.6.9 2 1.3 3.1 1 1.5-.4 2.2.2 3 2.3 1 2.5.9 2.9-.5 2.9s-1.3.3.4 2c1.5 1.5 2.7 1.9 5.1 1.4 2.1-.4 3-1.1 2.6-2-.3-.8-.1-1.4.5-1.4.7 0 .6-1.4 0-4-.9-3.6-.8-4.3.8-5.5 1.8-1.4 1.8-1.4-.8-1.5-1.7 0-3.1-.8-3.8-1.9-1.4-2.7-1.3-4.1.5-4.1.8 0 1.5-.7 1.5-1.5 0-2.2-3.8-8-5.3-8-1.6 0-6.7-4-6.7-5.3 0-1.2-5.9-2.2-6.6-1zM83.2 229.536c-1 .4-1 .8-.1 1.9.9 1.1.5 1.3-1.9.9-2.6-.3-3 0-2.7 1.6.2 1-.2 2.2-.8 2.6-.7.5-1.7 1.7-2.3 2.7-.6 1.1-2.4 2.4-4 2.9s-3.6 1.6-4.4 2.3c-.9.7-2.9 1.2-4.5 1.1-2.3-.2-3.2.4-4.2 2.5-.8 1.5-2.3 3-3.4 3.3-2.7.9-1.7 4.1 2.7 8.1 2.5 2.3 3.4 4 3.4 6.3 0 1.7.5 3.1 1 3.1.6 0 1-.6 1-1.4 0-1.9 2.1-2.6 4.3-1.4 1.5.8 2.5.3 4.8-2.4 1.7-1.8 3.6-4 4.4-4.9 1.1-1.2 1.3-3.1.8-8.2-.5-6.3-.5-6.7 1.2-6.1 1.4.6 1.7.4 1.2-.9-.4-1.2-.1-1.7 1-1.7 3.1 0 6.7-6.6 5.7-10.6-.6-2.5-.9-2.6-3.2-1.7zM125 251.836c0 .5.7 1 1.6 1 .8 0 1.2-.5.9-1-.3-.6-1-1-1.6-1-.5 0-.9.4-.9 1zM58 271.436c0 .9-.6 1.4-1.4 1.1-.7-.3-2 .3-2.9 1.3-1.5 1.8-1.4 1.9.2 2.5 2 .6 7.1-1.3 7.1-2.6 0-1.6-1.3-3.9-2.1-3.9-.5 0-.9.7-.9 1.6zM322 283.736c0 .5.7 1.2 1.6 1.5 1.4.5 1.5.4.4-.9-1.4-1.7-2-1.9-2-.6zM326.6 283.736c-.7 1 2 3.4 4.1 3.7 1.1.2.8-.5-.8-2.2-2.5-2.7-2.6-2.7-3.3-1.5zM327.6 290.436c-.4.9-.4 1.9-.1 2.2.2.3.7-.3 1.1-1.2.4-.9.4-1.9.1-2.2-.2-.3-.7.3-1.1 1.2zM330 295.436c-.1 1.2-1.5 2.6-4.3 3.9-4.7 2.2-8.5 8-8.6 13.1-.1 1.7-.4 3.4-.8 3.8-.4.4-.6 2.2-.5 4.1.2 1.9-.3 3.8-1.1 4.6-1.3 1.2-1.3 1.6.4 3.5 1.5 1.6 1.7 2.6 1 5.2-.8 2.7-.7 3.4.9 4.2 1.5.8 1.9.6 2.2-.8.2-.9 1.5 1.7 2.8 5.8 2.4 7.7 4 10.8 4 7.7 0-.9.7-1.7 1.5-1.7.9 0 1.2-.6.9-1.5-.4-.8-.1-2.1.5-2.9.6-.7.8-2.7.5-4.5-.5-2.4-.1-4 1.5-6.1 1.1-1.6 2.1-3.3 2.1-3.9 0-1.4 2.7-2.1 5.8-1.5 4 .7 9.6-2.6 10.3-6.2.3-1.6 1-2.8 1.7-2.7.7.2 1.2-.2 1.2-.7 0-.6-.4-1-.9-1-.6 0-1.3.4-1.6 1-1.3 2.1-3.7.9-5.1-2.5-.8-1.9-2.1-3.5-3-3.5-1.1 0-1.3-.6-.9-2 .5-1.4-.2-2.5-2.9-4.2-2.5-1.6-3.6-3.2-4-5.8-.4-1.9-1.3-4.4-2.1-5.4-1.5-2-1.5-2-1.5 0zM353 313.836c0 .5.5 1 1 1 .6 0 1-.5 1-1 0-.6-.4-1-1-1-.5 0-1 .4-1 1zM296 338.836c0 .5.5 1 1 1 .6 0 1-.5 1-1 0-.6-.4-1-1-1-.5 0-1 .4-1 1zM382.2 350.536c-.3 5-2.4 8.3-5.4 8.3-1.9 0-2.4 1.5-.8 2.5 1.7 1 1.1 2.5-.9 2.5-3.6 0-3.5 2.2.2 5.7 2.1 1.8 3.7 4 3.7 4.9 0 .9.3 1.4.8 1.2 5.1-2.5 6.2-3.4 6.2-4.8 0-1 .7-2.3 1.5-3 .9-.7 1.3-2.1.9-3.5-.4-1.5 0-2.4 1-2.8.9-.4 1.6-1.7 1.6-2.9.1-2.6 2.2-5.8 3.8-5.8 2.7 0 1.7-1.5-1.1-1.7-1.8-.1-3.9-1.1-4.8-2.2-.9-1.1-2.7-2.3-4-2.6-2.3-.5-2.4-.3-2.7 4.2zm2.8 2.3c0 .5-.4 1-1 1-.5 0-1-.5-1-1 0-.6.5-1 1-1 .6 0 1 .4 1 1zM321.5 353.836c-1.1.5-1.7.9-1.3.9.4.1.1 1.3-.7 2.8-1.4 2.7-1.1 4.9.3 2.6.5-.9 1.2-.5 2.1 1 1.3 2 1.3 2.1-.1.9-1.3-1-1.7-1-2 0-.4 1-.8 1-1.9.1-1.4-1.1-3.9-1.6-7.3-1.4-1.4.1-1.7.7-1.4 2.6.4 1.7.1 2.5-.9 2.5-.7 0-1.6.7-1.9 1.5-.9 2.1-7.3 2-9-.3-1.2-1.6-1.3-1.5-1.4.7 0 1.8-.3 2.1-1.3 1.3-1.1-.9-1.6-.1-2.6 3.8-1.3 5.2-2 5.7-5.1 4-1.9-1-5-.4-5 1 0 .4.9 1.7 2 3s2 3 2 3.9c0 .8 1.2 2.5 2.7 3.7 2.5 1.9 4 6.4 2.2 6.4-1.6 0 .3 2.9 2.2 3.5 1 .4 1.9 1.3 1.9 2.1s.6 1.4 1.3 1.4c.6 0 2.2.3 3.5.6 1.9.5 2.2.2 2.2-1.9 0-3.9 1.6-4.1 4.7-.3 1.5 1.8 3.9 3.9 5.3 4.6 2.6 1.4 13 2 13 .8 0-.4 1-1.8 2.3-3.2 2.8-3 10.9-4.4 15.6-2.8 3.5 1.2 3.9.7 1.4-2.1-1.4-1.5-1.5-2.1-.5-2.4 1-.4 1-.8 0-2-1.1-1.4-1-1.5.7-1 1.1.3 3.3.9 4.8 1.3 1.5.3 2.6 1.1 2.4 1.8-.2.6.3 1.7 1.2 2.3 1.4 1.1 1.4 1.4.1 2.3-1.2.8-1.3 1.3-.2 3 1.1 1.8 1 2-1.1 2-2.3 0-2.3.1-2 9.6.3 8.9.2 9.6-1.7 10.1-1.1.3-2 1-2 1.5s-.7 1.6-1.5 2.5c-.9.8-1.3 2.3-1 3.3.3 1 .1 2.1-.5 2.5-.7.4-.2 1.6 1.4 3.2 3.2 3.2 8.6 13.9 8.6 17 0 1.3 1.3 4.7 3 7.6 1.9 3.4 2.7 6 2.4 7.4-.4 1.4.2 3.6 1.5 5.7 1.4 2.2 1.8 3.7 1.1 4.1-1.9 1.1-1.2 7.6 1 9.3 2.9 2.3 4 12.1 1.6 14.1-.9.7-1.6 1.1-1.6.8 0-.3-1.2.5-2.6 1.8-1.8 1.7-2.4 3-1.9 4.4.4 1.4-.1 2.4-1.8 3.5-1.3.9-2.9 3.2-3.7 5.1-.8 1.9-2 3.5-2.7 3.5-2.4 0-1.4 1.7 1.7 3 5.5 2.3 8.1 8.6 3.9 9.7-1.6.5-1.9 1.1-1.4 3.3.5 2.1.1 3.1-1.2 4-1.7 1.1-1.7 1.1 0 .6 1-.3 2.2-.6 2.6-.6.5 0 .6-1.2.3-2.7-.4-2.2-.2-2.5 1.2-2 2.3.9 4.6-1.5 4.6-4.7 0-1.7.6-2.6 1.6-2.6.8 0 1.2-.5.9-1-.4-.6-.1-1.7.5-2.5 1-1.2.9-1.5-.5-1.5-1.6 0-4.4-2.6-4.5-4.2 0-.4 1.3-.3 2.9.2 2.3.6 3.4.4 5.1-1.2 1.8-1.7 2.9-1.9 7.6-1.3 4.5.5 5.5.4 6-1 .9-2.2 5.7-4.5 9.4-4.5 5.2 0 9.1 8.8 5.5 12.4-1 .9-1.3 2.4-1 3.9.6 2.4-1.5 5.7-3.6 5.7-.5 0-.9.7-.9 1.5 0 .7-.7 1.8-1.6 2.3-.9.5-2.2 2.6-2.9 4.6-1.1 3.2-1.1 3.8.4 4.5.9.5 2.1.7 2.7.4.6-.2 1.6.8 2.2 2.2.7 1.6.8 2.5.1 2.5-.6 0-.6.6 0 1.9.6 1 .8 3.4.5 5.3-.5 2.7-.2 3.6 1.1 4.2 1.3.4 1.6.2 1.1-.9-.3-.8-.1-1.5.4-1.5.6 0 .9-.5.8-1.1-.2-.6.7-1.5 2-2 1.2-.5 2.2-.5 2.2 0 0 1.1 8.4 6.1 11.2 6.6 1.1.3 2.3.6 2.5.9.3.3 1.6.1 2.9-.4 1.6-.6 3.3-.6 5 .2 2 .9 3 .9 4.5 0 1-.7 2.8-1.2 3.9-1.2 1.4 0 1.8-.5 1.3-1.8-.4-1.1.7-.5 3 1.5 2.1 1.8 4.8 3.3 6 3.3 2.5 0 8 3.3 7.1 4.3-.3.3.3.3 1.5 0s2.7 0 3.5.6c1.7 1.4 7.6.3 7.6-1.4 0-1.4 2.2-2.5 5.1-2.5 2.1 0 2.5-2.3.9-6.4-1.1-3.1-2.6-3.4-3.3-.6-.5 1.8-.7 1.9-3.2.6-2-1.1-3.2-1.2-4.5-.4-1.2.8-2.3.6-4.5-.8-1.5-1-2.3-2-1.6-2.2.6-.2 1.1-1.2 1.1-2.2 0-.9.7-2.3 1.5-3 .8-.7 1.5-1.9 1.5-2.6 0-.8.5-1.4 1.1-1.4.5 0 .8-.4.4-.9-.3-.6.2-1.4 1.1-1.9 1.4-.8 1.2-1-1-1.6-1.4-.3-2.6-1.1-2.6-1.7 0-.6-.4-.7-1-.4-.5.3-1 .1-1-.4 0-1 2.9-1.6 5.3-1.2 1.8.3.5-1-2-2-1.5-.6-2.3-1.3-1.7-1.7.5-.4 1.5-2.1 2.2-3.7 1.3-3 1.3-3-.5-.7-1.7 2.1-2 2.1-4 .7-1.3-.9-2-2.2-1.7-3 .8-2-1.6-1.9-3 .1-1.1 1.4-1.3 1.4-2.5.1-1.1-1.4-.7-1.8 2.9-2.8 3.2-1 4-1.7 3.7-3.1-.3-1-.1-2.1.4-2.4.5-.3.7-1 .4-1.5-.3-.5.1-.6 1-.3 1.3.5 1.4.2.5-2.2-2.2-5.7-4.3-6.6-9.2-4-2.4 1.3-2.8 1.2-4.4-.5-1-1.1-2.7-1.9-3.8-1.8-1.2.1-2.5 0-3.1-.1-.5-.1-1.9-.3-3-.4-2-.1-2.3-2.4-1.4-11.2.2-2.4 5.6-4.9 7.4-3.4.6.5 1.7.5 2.5 0 1.2-.7 1.2-1.3.1-3.7l-1.3-2.8 2.4 2.1c1.2 1.2 3.3 2.4 4.6 2.7 2 .5 2.1.3 1-1-.7-.9-1.3-4.2-1.3-7.7 0-3.8-.6-6.8-1.5-8.1-2.2-2.9-9.7-6.8-10.2-5.3-.6 1.6-7.5-2.7-8.3-5.2-.3-1-1.7-2.6-3.1-3.5-1.3-.9-2.4-2.1-2.3-2.8.4-2.4-1.4-4.8-5.2-6.8-2.6-1.3-3.9-1.5-3.9-.7 0 .6-1.3-.1-3-1.7-2.3-2.2-3-3.8-3-6.5 0-2.4-.7-4.3-2-5.5-2.6-2.4-2.5-3.5.3-3.5 1.2 0 3-.7 4-1.4 2.2-1.7 2.3-6.6.2-6.6-1.2 0-1.5-.9-1.3-3.4.1-2.4-.7-4.6-2.6-7.4-1.5-2.2-2.9-4.9-3.1-5.9-.2-1-.4-2-.4-2.3-.1-.3-.5.1-1 .9-.7 1.2-1.5.8-4.1-1.7-2.1-2.2-4.1-3.2-6.1-3.2-1.8 0-2.8-.4-2.4-1 .4-.6-.5-2.4-1.9-4.1-1.4-1.7-2.6-3.5-2.6-4.1 0-.6-.6-.8-1.4-.5-.8.3-1.6.1-1.8-.5-.3-.8-1.6-.8-4.8 0-5.8 1.4-7.2.4-2.7-2 2.6-1.3 3.5-2.3 3-3.4-.5-1.4-.3-1.5 1.6-.4 2.1 1 2.2.9 2.1-1.2-.4-4.2 0-4.8 3-4.8 2.7 0 3-.3 2.7-3.1-.2-2.6-.7-3.2-2.9-3.5-2.1-.2-2.9.3-3.8 2.7-.7 1.6-1.9 2.9-2.7 2.9-1 0-1.3.6-.9 1.6.5 1.3.1 1.5-1.9 1.2-1.9-.4-2.5-.1-2.5 1.3 0 1.2-.7 1.9-2 1.9-1.7 0-1.9.3-1.1 1.8.5 1 .8 2.7.7 3.8-.2 1 .2 2.2.8 2.6.8.6.8.8-.1.8-.6 0-1.4-.4-1.8-1-.3-.5-1.2-.7-2-.4-.9.4-1.8-.1-2.1-1.1-.9-2.1-12.1-9.5-14.5-9.5-2.7 0-4.7-2.6-6.5-8.6-1.2-4.2-2.2-5.8-4.5-6.9-2.5-1.3-2.8-2-2.3-4.3.4-1.5 1.2-3.3 1.8-4.1.8-1.1.8-1.3 0-.8-1.3.7-3.2-2.6-3.6-6.3-.3-2.7-2.1-3.4-5.3-2zm73.2 123.2c-.3.7-.5.2-.5-1.2s.2-1.9.5-1.3c.2.7.2 1.9 0 2.5zm30.3 10.8c0 .5-.4 1-1 1-.5 0-1-.5-1-1 0-.6.5-1 1-1 .6 0 1 .4 1 1z"/><path d="M368.6 376.336c.4.8.7 1.5.9 1.5.2 0 .5-.7.9-1.5.3-.9 0-1.5-.9-1.5s-1.2.6-.9 1.5zM468 491.436c0 .8.5 1.2 1 .9.6-.4.8-1.1.5-1.6-.9-1.4-1.5-1.1-1.5.7zM454.3 494.436c-2.4 1.4-4.3 3-4.3 3.5 0 .6-.9.8-1.9.4-1.9-.6-1.9-.5-.4 2.5 1 2.2 1.3 4.4.9 7.4-.5 3.4-.3 4.5.8 4.9.8.3 1.6 0 1.8-.8.2-.9.9-.6 2 1 1.6 2.1 1.6 2.5.3 3.9-2.1 2.1-1.9 4.3.5 4.9 1.1.3 1.9 1.1 1.8 1.9-.2.7.3 1.2 1 1 .6-.1 1.2.2 1.2.8 0 .5.9 1 2 1s2 .4 2 1c0 1.5 4.7 1.2 5.3-.3.2-.6-.1-1.8-.8-2.4-1-1-1.6-.9-2.5.2-1.8 2.1-3 .9-3-3.1 0-3.9 1.2-4.4 3.4-1.2 1 1.4 1.6 1.7 1.6.8 0-.9.4-.8 1.4.6 1.4 1.8 1.5 1.8 2.1.1.4-.9.4-3.7.1-6.1-.6-3.9-.4-4.5 1.4-5.1 1.3-.4 2.1-1.6 2.1-3.3.1-1.5.2-3.6.3-4.7.1-1.1-.5-2.9-1.1-4-.7-1.1-1.3-2.7-1.3-3.6 0-1.2-.6-1.6-2-1.2-1.1.3-3.5-.2-5.4-1.1-4.3-2-4.3-2.1-9.3 1zm2.7 26c0 1.4-.3 1.4-1.5.4-.8-.7-1.5-1.4-1.5-1.6 0-.2.7-.4 1.5-.4s1.5.7 1.5 1.6zM522 516.836c0 .5-.6 1-1.4 1-.7 0-1.6 1-1.9 2.1-.4 1.6-1.1 2-2.6 1.6-1.5-.3-1.8-.1-1.4 1.1.5 1.2.1 1.4-1.5 1-1.2-.4-2.2-.2-2.2.3s-1.2.3-2.6-.3c-2.4-1.1-2.8-1-4.6 1.5-1.6 2.2-2.3 2.5-3.9 1.7-1.5-.8-2.1-.7-2.5.5-.3.8-1.5 1.5-2.6 1.5s-1.6.4-1.2 1.1c.3.6 0 1.5-.7 2-1.2.8-1.2 1-.1 1.8.8.4 1.2 1.7 1 2.7-.3 1.6-1 1.2-5.1-2.5-4.1-3.8-4.7-4.1-4.7-2.2 0 1.6-.6 2.1-2.5 2.1-1.4 0-2.5.6-2.5 1.2 0 1-.3.9-.9-.1-.6-.9-1.1-1-1.5-.2-.5.7-1.7.5-4-.6-6.7-3.2-11.9 1.2-6.9 5.9 1.8 1.7 2.2 1.8 1.7.5-.5-1.3-.1-1.7 1.9-1.7 1.9 0 2.6.6 2.9 2.2.2 1.5 1.1 2.4 2.5 2.6 1.5.2 2.4 1.3 2.8 3.3.4 1.7.4 3.3.1 3.6-.3.3.4 1.7 1.5 3.1 2.1 2.8 8.3 5.4 10.5 4.5.8-.3 2.1.1 3 .8 2.1 1.7 5.4 8.3 5.4 10.8 0 1.1.9 2.5 2 3.1 1 .6 1.7 1.7 1.4 2.4-.3.9.3 1.7 1.5 2.1 1.2.3 2.1 1.1 2.1 1.7 0 .6 1.2.8 3 .5 2.1-.5 3.2-.2 3.8.9.5.9 1.1 1.5 1.3 1.3.2-.1 1.4.1 2.7.5 1.5.5 2.1 1.3 1.8 2.2-.6 1.5 2.1 1.9 6.2.7 1.7-.4 2-.8 1.1-1.4-.8-.5.2-1.1 2.7-1.8 4-1.1 7.6-4.1 8.7-7.3.3-.9 2.2-2 4.1-2.4 2-.3 3.3-1 3-1.5-.3-.5 0-.9.6-.9s.9-.4.6-.8c-.2-.4.4-.8 1.4-.8 1.4 0 1.8.9 1.8 4.1.1 6.4.7 8.2 3.5 12.5l2.6 4-3 1.6c-2.4 1.2-2.8 1.8-1.9 2.9.7.8.9 1.9.5 2.5-.3.5.1 1 1 1s1.3.5 1 1c-.4.6-.1 1.8.6 2.6 1 1.2.8 1.7-.7 2.9-1.4 1-1.9 2.6-1.9 6.3 0 2.7-.6 5.6-1.3 6.4-.7.9-1 2.2-.7 3 .4.9-.1 1.8-.9 2.1-1 .4-1.6 1.9-1.6 4.2 0 3.1-.3 3.5-2.6 3.5-1.4 0-2.3.4-2 .9 1 1.6-.6 7.1-2 7.1-.8 0-1.6 1.1-2 2.5-.8 3.2-5.6 4.4-9.1 2.2-.6-.4-1.3-.3-1.5.3-.1.5-3.2 1.3-6.6 1.6-6 .7-6.3.8-5.9 3.1.3 1.5 0 2.3-.9 2.3-1.9 0-1.8 1 .6 6.1 2.5 5.7 2.5 6.3-.5 7.9-2 1-2.8 1.1-3.7.2-1.4-1.4-3.2-1.6-2.3-.2.9 1.4-.6 14-1.6 13.4-.5-.3-.9.4-.9 1.5s-.5 2.3-1 2.6c-.6.4-1 1.2-.9 1.8.5 3.9-.2 5.7-2.2 5.7-1.1 0-3.4.9-5 2.1-2.2 1.6-2.9 2.8-2.9 5.5s-.4 3.4-2 3.4c-2.4 0-2.5.7-.5 5.3 1.4 3.4 1.4 3.7-.4 4.9-1.1.8-2.5 3.5-3.2 6.1-.6 2.6-1.5 4.9-1.9 5.2-.4.2-.5 2.6-.2 5.3.4 4.4.1 5.1-2.2 7l-2.7 2.1 3.1 2.3c2.9 2.1 3.1 2.7 2.7 6.2-.3 2.3 0 4.7.8 6 2.3 3.8 2.5 7 .6 10.2-1.6 2.6-2.4 3-4.8 2.7-1.9-.3-3.4.1-4.2 1.1-.8.9-2 1.6-2.7 1.6-1.8 0-1.8 4.4-.1 6.2 2.3 2.2 2.7 5.7.8 7.1-2 1.5-2.3 7-.3 6.2.8-.3 2-.5 2.8-.5.8 0 1.4-.6 1.4-1.4 0-1.1 1.3-1.4 5.7-1.2 6.4.3 9.9-1.9 8.8-5.5-.4-1-.2-1.9.4-1.9.5 0 1.6-.7 2.4-1.5.8-.7 2.6-1.7 4-2 1.9-.5 2.8-.2 3.7 1.4 1.2 2.3 4.5 2.8 6.4.8 1.5-1.5 1-3.7-1-3.7-2.8 0-.2-4.5 3-5.1 1.3-.3 2.4-2 3.3-5.2.7-2.6 1.8-4.7 2.3-4.7.6 0 1-1.1 1-2.5 0-1.6-.6-2.5-1.5-2.5-2.5 0-1.8-4.5 1-6 1.4-.7 2.5-2 2.5-2.8 0-1.2.3-1.2 2.3.1 2.7 1.7 7.7 1.1 7.7-.9 0-2.1 2.8-1.7 4 .6.8 1.5 1.9 1.8 4.8 1.6 5.1-.5 7.2.8 7.2 4.5 0 2.1-.4 2.8-1.2 2.3-1-.6-1-.4 0 .7 1.9 2.1 1.5 4.9-.9 4.9-1.1 0-1.7.4-1.4 1 .4.6 0 2.2-.9 3.5-2.1 3.2-2 3.5 1 3.5 1.9 0 2.5-.4 2-1.5-.7-2 1.3-1.9 3.6.2 1.6 1.4 2.3 1.5 3.8.5 1.1-.6 2.6-.9 3.5-.6.8.3 1.5.1 1.5-.5 0-.7 2.1-1.1 5.5-1.1 4.5 0 5.5-.3 5.7-1.8.2-3.2.4-3.7 1.1-5 .9-1.4 5.5-1.6 7.7-.2.9.6 1.7.5 2.1-.2.4-.6 2.5-1.1 4.8-1.2 2.6 0 4.1-.5 4.1-1.3 0-1.9 1.4-1.6 3.6.8 1.4 1.6 2.8 2 5.6 1.7 3.1-.3 3.9 0 4.4 1.7.7 1.9.7 1.9 1.6-.4.6-1.7.4-2.7-.5-3.5-3.5-2.8-6.5-8.4-7-12.9-.4-4.4-.3-4.8 2-5.3 1.6-.4 2.2-1.1 1.8-2.1-.4-1.2 0-1.4 1.5-1 1.1.3 2.3.1 2.6-.5.3-.5 1.2-.7 1.9-.4.8.3 1.9-.2 2.5-1 .7-.8 1.8-1.4 2.6-1.4.7 0 1.7-.8 2.3-1.8.9-1.5 1.2-1.4 4 1.2 3.9 3.7 2.8 6.6-2.4 6.6-4 0-6.5 2.2-6.5 5.6 0 1.4-1.2 3.6-2.7 5l-2.6 2.4 2.2 2.4c1.3 1.4 2 2.9 1.6 3.5-.3.6.1 1.1.9 1.1 1.5 0 4 3.3 3.1 4.1-.2.3 0 3.8.6 7.9.8 6.7.7 7.6-1.1 9.5l-2 2.1 2.9 2.2c1.6 1.1 3.2 3.3 3.6 4.9.3 1.5 1.3 3.6 2.2 4.5.8.9 1.7 3.5 2 5.7.3 2.2 1.2 4.6 1.9 5.2.8.6 1.4 2 1.4 3s.5 2.1 1 2.4c1.6 1 1.2 8.5-.5 10.1-.8.9-2.3 1.3-3.4.9-1.5-.4-2.5.6-5 5.6-3.2 6.3-3.4 8.2-.6 5.9 1-.8 3.9-1.3 7.3-1.2 6.8.2 9.8-1.7 7.9-5-.9-1.6-.9-2.2.1-2.5.6-.3 1.2-1 1.2-1.7 0-.6.9-1.9 2-2.9 1.1-.9 2-2.4 2-3.3 0-1.3.3-1.4 1.5-.4 1.1.9 1.2 1.7.4 3.1-.7 1.5-.5 2.6 1.3 4.9 2.1 3 2.3 3 3 1 .4-1.2 1.2-1.9 1.7-1.5.6.3 1.4-.2 1.9-1.2.8-1.4 1.3-1.5 2.5-.5 1.1 1 1.8.8 3.3-.9 1.6-1.7 1.6-2.3.5-4.2-1-1.5-1-2.2-.2-2.5.6-.2 1.1-1 1.1-1.8 0-.9.4-1.3.9-.9.5.3 1.3 0 1.7-.6.4-.7 1.2.1 2.1 2.1.7 1.9 1 3.6.6 3.9-1.4 1-.9 6.1.7 7.1.8.5 2.3.7 3.3.4.9-.3 1.7 0 1.7.6s1 1 2.3.8c1.6-.2 2.1-.9 1.9-2.6-.3-1.8.2-2.2 2.2-2.2 1.4 0 2.6.6 2.6 1.2 0 .9.4.8 1-.2.8-1.3 1-1.2 1 .3 0 1.1 1 2 3 2.4 1.7.3 3 .9 3 1.3 0 .5 1.1.3 2.4-.3 1.9-.9 2.2-1.5 1.3-2.5-.9-1.1-.8-1.7.4-2.6.8-.6 2.4-2.5 3.6-4.1 1.8-2.6 1.9-3.3.8-4.8-.8-1.1-1.6-1.4-1.9-.8-.4.5-.2 1.2.4 1.6 1.7 1 1.1 2.1-1.2 2.2-1.3.1-3.6-.9-5.3-2.3-1.6-1.3-2.4-2.4-1.6-2.4.7 0 1.1-.6.8-1.4-.4-.9.1-1.7 1.2-2.1 2.4-.7 3.5-5.7 1.5-6.8-2.3-1.3-1.7-4.7.8-4.7 1.7 0 1.9-.3 1-1.2-1.6-1.6-1.5-2.8.3-2.8 1 0 1.5-1 1.5-3 0-2.6-.4-3-2.6-3-1.4 0-2.3.4-1.9 1 .3.5.2 1-.3 1-1.2 0-4.3 8.4-4.7 12.7-.4 4.1-1 5-4 5.5-3.6.7-5.1-1.4-3.5-5.2 1-2.4 1-3.3-.1-4.6-.7-.9-.9-1.8-.3-2.2.5-.4.9-1.3 1-2 .2-2.7.5-3.1 2.2-3.6.9-.3 2.3-1.5 3-2.7 2-3.1-.7-4.7-6.5-3.9-3.7.6-4.5.4-5.4-1.2-.6-1.1-.8-2.6-.5-3.3.5-1.5-1.9-7.1-3.5-8-.5-.4-2.3.7-4.1 2.4-2.6 2.5-3.4 2.7-4.2 1.5-.6-.8-2.7-2.2-4.6-3.3-2.4-1.2-3.8-2.9-4.5-5.2-.5-1.9-1.3-3.9-1.7-4.5-.4-.6-1.2-2.4-1.8-3.9-.9-2.3-.8-2.6.6-2.1.8.3 2.7.3 4 0 2.3-.6 2.4-.8.9-2.4-1.1-1.3-1.3-2-.5-2.5 1.1-.7-1.9-3.8-6.7-7.2-1.2-.8-2-2-1.7-2.7.4-1.1-4.3-6.4-5.2-5.8-.2.1-1.5-.5-2.8-1.3-2-1.3-2.4-2.6-2.9-8.8l-.5-7.2-5.8-5.3c-5.7-5.2-5.8-5.4-2.7-4.8 2.7.4 3.1.2 3-1.4-.1-1.1-.5-2-.9-2s-1.2-1.7-1.7-3.8c-.7-2.5-2.2-4.5-4.6-6.1-3.3-2.2-4.5-4.1-2.6-4.1.8 0-.1-3.5-3.1-12.5-.6-1.7-1.1-5.4-1.2-8.3 0-2.8-.5-5.2-1-5.2-.4 0-.5-.8-.1-1.8.4-.9.9-3.5 1-5.7.1-2.2.6-5 1-6.3.5-1.6.3-2.2-.6-2.2-.8 0-2.9-2.3-4.7-5.1-2.6-3.8-3.1-5.3-2.2-6.3 1.3-1.6-.7-6.9-2.2-6-.5.3-1.7-.1-2.6-.9-1.9-1.6-5.3-3.1-6.4-2.9-.5.1-.8-.6-.9-1.6 0-.9-1.3-2.7-3-4-2.8-2.3-4.1-1.8-1.7.6 2 2 0 1.4-4.8-1.4-2.4-1.4-4.4-3.3-4.4-4.1 0-.8-1.2-2.4-2.6-3.6-1.5-1.1-3.3-3.5-4-5.3-.8-1.8-2.3-3.8-3.4-4.4-1.1-.6-1.8-1.6-1.4-2.1.3-.6-.1-1.8-1-2.8-1.5-1.6-1.5-2.1-.2-4.7 1.2-2.1 1.2-3 .4-3.6-.9-.5-.8-1.2.5-2.6.9-1 1.4-2.2 1-2.5-.3-.4 0-.7.9-.7.8 0 2-1.1 2.6-2.5 1.4-3.1 1.6-5.7.3-3.6-.5.8-1.1.9-1.5.3-.3-.6-1.4-.8-2.4-.6-3 .7-8.3-5.4-11.3-13.3l-1.7-4.2 2.5-.3c2.3-.3 2.5-.7 2.6-6.6.1-4.1-.3-6.7-1-7.4-.7-.6-1.3-.7-1.3-.2 0 .5-.4.3-.9-.4-1.1-1.7-6.1-.5-6.1 1.5 0 1-1.4.3-4-2.1-2.2-2-4.5-3.6-5-3.6-.6 0-1.6-1.2-2.2-2.6-1.1-2.3-.9-2.8 1-4.2 1.8-1.4 2-2.2 1.3-4.7-.5-1.7-1-2.4-1-1.8-.1 1.8-3.8 1.6-4.5-.2-.6-1.7-6.6-2.1-6.6-.5zm155.4 285.5c2 3 2 3.5.2 3.5-.8 0-2.4-1.4-3.6-3-2.1-2.9-2.1-3-.2-3 1.1 0 2.7 1.1 3.6 2.5zM456 528.736c0 1.1.5 2.3 1 2.6.6.3 1-.3 1-1.4 0-1.1-.4-2.3-1-2.6-.5-.3-1 .3-1 1.4zM350.6 547.336c.5 1.2-.2 1.5-2.8 1.5-1.9 0-4-.6-4.7-1.3-1.1-1-1.2-.8-.6 1.2.7 2.2.5 2.3-1.9 1.7-4.1-1-9.3.3-9.9 2.5-.3 1.3-1.1 1.7-2.1 1.3-.9-.4-1.6-.1-1.6.6 0 .6.9 1.4 1.9 1.7 1.2.3 2.1 1.5 2.3 3.2.2 1.6.9 2.6 1.9 2.6.9 0 2.3.5 3 1.1 1.9 1.5 7.9 4.4 7.9 3.8 0-.3-.4-1.4-1-2.4-.8-1.5-.4-2.1 2.8-3.8 4.3-2.2 5.1-4.5 2.6-7.3-1.6-1.8-1.6-1.9.2-1.9 1.1 0 2.5.5 3.1 1.1.9.9 1.4.5 1.9-1.5.8-3.2-.1-5.6-2-5.6-1 0-1.3.6-1 1.5z"/><path d="M468 567.336c-.9 1.1-1 1.9-.3 2.6.7.7 1.2.2 1.5-1.5.6-3 .5-3.1-1.2-1.1zM471 575.736c0 .7.8 1.4 1.8 1.8.9.3 2.8 1.5 4.1 2.7 2.2 1.9 2.3 1.9 1.8.3-.4-1-.7-2.2-.7-2.7 0-.4-.8-1-1.7-1.3-1-.2-2.6-.8-3.5-1.2-1.1-.4-1.8-.3-1.8.4zM473.8 584.436c-.6.5 2.7 4.4 3.7 4.4 1.3 0 .3-3.9-1.1-4.4-1.9-.7-1.9-.7-2.6 0zM680 768.236c0 .2.7.9 1.5 1.6.9.7 1.5.8 1.5.2 0-.5-.7-1.2-1.5-1.6-.8-.3-1.5-.4-1.5-.2zM470.5 770.836c-.3.5-.1 1 .4 1 .6 0 1.1-.5 1.1-1 0-.6-.2-1-.4-1-.3 0-.8.4-1.1 1zM677.5 773.836c-.3.5-.1 1 .4 1 .6 0 1.1-.5 1.1-1 0-.6-.2-1-.4-1-.3 0-.8.4-1.1 1zM685.8 774.536c.7.3 1.6.2 1.9-.1.4-.3-.2-.6-1.3-.5-1.1 0-1.4.3-.6.6zM673.6 818.236c.3.8 1.4 1.6 2.6 1.9 1.9.5 1.9.5.2-1.4-2-2.2-3.6-2.5-2.8-.5zM680.8 819.536c-1 .2-1.8.9-1.8 1.4 0 .6.9.7 2 .4 1.4-.4 2-.2 2 .8 0 .8.7 2 1.5 2.7 1.2 1 1.5.9 1.5-.4 0-2.1-1.8-5.6-2.8-5.5-.4.1-1.5.3-2.4.6zM671.5 822.836c-.3.5-2.1 1-4 1-1.8 0-3.5.5-3.7 1-.2.6-2.1 1.3-4.3 1.6-5.5.8-8.5 2.3-7.8 4.1.3.8.1 1.8-.5 2.2-1.6 1 1.1 8.5 3.2 8.9.9.2 1.6-.1 1.6-.7s.5-1.1 1-1.1c1.9 0 1.1 5.9-1 7.2-1.1.7-2 2.1-2 3 0 1-.6 1.8-1.3 1.8-.7 0-1.9 1.7-2.6 3.7-1.4 4-7 9.8-10.9 11.4-3.4 1.3-7.2 1.1-7.8-.5-.3-.8-1.2-1.2-2-.9-1 .3-1.4-.2-1.4-1.9 0-2.2-3.5-5.5-5.2-5-.5.1-.8-.9-.8-2.3 0-1.9-.7-2.6-2.7-3.1-1.6-.4-3.8-1.3-5-2-2.1-1.3-2.3-1.3-2.3.6 0 1.1-.7 2.3-1.5 2.6-1 .4-1.3 1.3-1 2.5.4 1.2-.1 2.2-1.7 3.1-1.3.7-2.7 1.1-3.2 1-1.7-.5-4.6 1-4.6 2.4 0 1.8-3.9 1.9-4.6 0-.3-.8-1.5-1.1-2.9-.8-1.7.3-2.7-.1-3.1-1.2-.9-2.3-2.2-1.1-3.3 3-1.1 4.1-.5 6.4 1.6 6.4.8 0 2.6.9 4 2s3.3 2 4.2 2c.9 0 2.3 1.5 3.2 3.3 2 4 4.5 4.3 4.1.4-.3-2.4 0-2.7 2.7-2.7 1.7 0 3.1.4 3.1 1 0 .5.6.7 1.3.4.8-.3 2 .2 2.7 1.1.7.8 1.9 1.5 2.6 1.5.9 0 1.4 1.1 1.4 2.9 0 1.7.5 3.3 1 3.6.6.3 1 1.4 1 2.3 0 1 1.1 3.4 2.4 5.3 1.6 2.3 2.3 4.4 1.9 5.8-.3 1.4 0 2.7 1 3.4.8.7 1.7 2.1 2 3.2l.4 2 .8-2c.4-1.1 1.6-2.7 2.6-3.5 1.6-1.4 1.6-1.9.4-5.4l-1.3-3.8 4.5.5c2.5.2 7.5.1 11.1-.3 3.6-.5 7-.6 7.6-.3.5.3 4.3.6 8.5.6s9.1.6 10.9 1.4c2.1.9 3.2 1 3.2.3 0-.6.4-.8 1-.5.6.4.7-.6.4-2.5-.6-2.6-.4-3 1.4-3 1.1 0 2.9-1.1 4-2.5s2.7-2.5 3.6-2.5c2 0 2.1-1.9.1-2.7-1.4-.5-1.4-.8-.1-2.7 1.3-2.1 1.2-2.3-1.4-3.3-1.8-.7-2.8-1.7-2.7-2.9.1-1.1-.4-1.8-1-1.7-.7.2-1.3 0-1.4-.5 0-.4-.2-2.4-.4-4.5-.3-2.8 0-3.7 1.1-3.7.9 0 1.4-.7 1.2-1.8-.2-1-1.1-1.6-2.1-1.4-1.5.3-1.8-.3-1.4-3.7.2-2.3 0-4.1-.5-4.1s-1.3-1.1-1.8-2.5-1.4-2.5-2-2.5c-2 0-1-1.9 1.3-2.2 1.8-.2 2.3-1 2.5-4.1.2-2.3-.3-4.8-1.2-6.2-1.4-2.1-1.4-2.4 0-3.6 1-.8 1.3-2.1.9-3.8-1.1-4.3-3.6-6.4-5-4.1zm-52.6 46.3c-.9.7-2.1 2.2-2.8 3.4-.6 1.3-1.9 2.3-2.8 2.3-1.2 0-1.3-.3-.4-1.4.9-1 .9-1.6.1-2.1-1.6-1 1.9-3.4 5-3.4 2.2 0 2.3.1.9 1.2zM585.3 828.436c-.2 3.2.2 4.7 1.2 5.1.8.3 1.5 1.3 1.5 2.3 0 1.1.4 2.1.9 2.4.5.3 1.1 2 1.3 3.6.3 2.2.1 2.9-.8 2.6-.8-.3-1.1 0-.7 1 .3.8-.2 2.3-1.2 3.4-1.9 2-1.7 6.1.3 6.8.9.3 1.1-.3.6-2.2-.7-2.9.6-3.5 2.6-1.1 1.3 1.6 6 2.1 6 .7 0-.5 1.8-2.8 4-5.2 2.2-2.4 4-3.8 4-3.1 0 .8 1.2 1.1 3.3.9 2.3-.2 3.1-.7 2.8-1.8-.3-.8-.5-2.7-.5-4.1-.1-1.4-.7-3.3-1.5-4.2-1.2-1.5-1.1-1.7.3-1.7 1.2 0 1.5-.8 1.2-3.3-.4-3.7-3.6-5.3-3.6-1.8 0 1.4-.8 2.3-2.5 2.7-1.4.3-2.5 1.2-2.5 2 0 2.2-2.5 1.6-5.6-1.3-2-1.8-3.8-2.6-5.6-2.4-2.2.2-2.8-.2-2.8-1.7 0-1.1-.6-2.4-1.2-3-1-.8-1.3 0-1.5 3.4zM692.7 829.936c.7.7 1.5 1 1.8.7.3-.3-.2-.9-1.2-1.2-1.4-.6-1.5-.5-.6.5zM694 832.736c0 .5.7 1.2 1.6 1.5 1.2.4 1.5 1.4 1.1 3.4-.3 1.5 0 3.6.5 4.7 1.5 2.9 5 6.5 5.8 6 .4-.2 2.1 1.1 3.9 3 1.7 1.9 4 3.5 5.1 3.5 1.1 0 2 .7 2 1.5s.1 1.5.3 1.6c.1 0 2.9.2 6.2.5l6 .4-3.5-1.9c-1.9-1.1-4.3-2-5.2-2.1-1 0-1.8-.5-1.8-1.1 0-.6-1.5-2.5-3.2-4.3-1.8-1.9-4.3-4.7-5.6-6.4-1.2-1.7-3.7-3.5-5.5-4.1-2.2-.8-3.6-2.1-4.4-4.1-1-2.8-3.3-4.2-3.3-2.1zM689.7 834.836c.3 1.1.7 2 .9 2 .2 0 .4-.9.4-2s-.4-2-.9-2-.7.9-.4 2zM680 835.536c0 1.7 3.3 4 5.1 3.6 2.2-.6 2.4-1.6.7-3-1.5-1.1-5.8-1.5-5.8-.6z"/><path d="M648 837.736c0 .5.5 1.3 1 1.6.6.3 1 .2 1-.4 0-.5-.4-1.3-1-1.6-.5-.3-1-.2-1 .4zM740 858.336c0 2.4-1.1 3-5 2.6-.8-.1 0 .7 1.9 1.9 1.8 1.2 4 1.9 4.7 1.6.7-.3 1.6-.1 1.9.5.4.5 1.1.6 1.7.3 2.3-1.5 8.3-2.2 10-1.3 1.6.9 1.7.7.6-1.5-.8-1.9-.8-2.9.1-3.9.9-1.2.6-1.3-1.6-.9-1.6.3-3.2 1.1-3.6 1.8-.9 1.5-4.9.4-7.3-2.1-2.2-2.2-3.4-1.8-3.4 1zM759.2 860.336l-2.4 1.3 3.3 3.3c2.8 2.8 3.4 3.1 3.7 1.6.4-1.7 2.2-2.4 2.2-.8 0 .5.6 1.1 1.4 1.4 1.1.4 1.1.1.2-1.9-.6-1.3-1.5-2.4-1.9-2.4-.5 0-1.6-.8-2.5-1.9-1.5-1.6-2-1.7-4-.6zM683.6 870.336c-.3.8-.1 1.5.4 1.5.6 0 1-.7 1-1.5s-.2-1.5-.4-1.5-.6.7-1 1.5zM615 916.736c0 2.3.5 3 2.7 3.6 1.7.4 2.9.2 3.1-.4.2-.6 1.2-1.1 2.2-1.1.9 0 2.3-.7 3-1.5 1.1-1.3.6-1.5-3.3-1.5-2.5 0-4.9-.5-5.2-1-1.2-1.9-2.5-1-2.5 1.9zM612 921.836c0 1.1.2 2 .4 2s.6-.9.9-2c.3-1.1.1-2-.4-2s-.9.9-.9 2z"/></g></svg>