<svg version="1" xmlns="http://www.w3.org/2000/svg" width="641.288" height="1021.674" viewBox="0 0 480.966 766.256"><g fill="#222"><path d="M453.7.36c-.4.3-.7 1.1-.7 1.7 0 .6.5.5 1.2-.2.6-.6.9-1.4.7-1.7-.3-.3-.9-.2-1.2.2zM287.2 7.86c.1.7-1.2 2.8-3 4.6-3.1 3.3-3.1 3.5-1.6 6.3 1.8 3.6 3.8 3.3 4.2-.7.2-1.6.9-3.4 1.6-3.9 2.1-1.6 3-5.6 1.5-6.6-2-1.2-3-1.1-2.7.3zM451 7.66c.8.5 2 1 2.5 1 .6 0 .3-.5-.5-1s-1.9-1-2.5-1c-.5 0-.3.5.5 1zM264.8 10.36c-1.5.4-1.3.8 1.1 2.9 1.6 1.3 4.3 2.9 6.1 3.5 1.8.7 3.7 2.4 4.7 4.2l1.6 3.2 1-2.5c.6-1.4 1.1-3 1.1-3.5.1-1.5-6-7.1-7.2-6.7-.5.1-1.3-.2-1.7-.7-.6-1.1-3.5-1.3-6.7-.4zM421 13.56c0 .4-1.9.7-4.2.7-4-.1-4.3.1-4.6 2.9-.5 4.1-3.9 8.5-6.6 8.5-1.2 0-3.9.9-6 2-2.2 1-4.3 1.7-4.7 1.4-.5-.3-.9.2-.9 1.1 0 1.1-.5 1.5-1.5 1.1-.8-.3-1.5-.1-1.5.3 0 1.4-5.6 3.1-6.7 2-1.1-1.1-7.5 0-6.8 1.1.8 1.3-1.7 6-3.2 6-.7 0-1.3.7-1.3 1.6 0 1.2-.7 1.4-3 .9-1.6-.3-3.6-.2-4.5.2-1.4.8-1.3 1.1.5 2.8 1.9 1.7 2.5 1.8 6.3.6 2.3-.7 5.2-1.4 6.5-1.5 1.2-.1 2.8-.8 3.4-1.4.7-.7 2.1-1.2 3.3-1.2 1.2 0 2.6-.5 3.1-1 .6-.6 3.5-1.2 6.5-1.3 5.9-.4 8.3-1.3 7.4-2.8-.4-.5 0-.9.8-.9s2-.7 2.7-1.5c.7-.8 2.3-1.5 3.6-1.5 2.8 0 2.8.2.9-4.3s-1.9-5.1 0-4.3c.8.3 2-.3 2.8-1.4 1.1-1.6 2.1-1.9 4.8-1.4 5 1 7.7 2.7 13.8 8.4 3.7 3.5 5.9 4.9 7 4.4.9-.3 3.7-.6 6.4-.6 5 0 7.1-1.4 4.4-3-1.3-.7-1.4-1.3-.5-3.3.9-2.1.8-2.7-1.3-4.5-1.3-1.1-3.3-1.9-4.4-1.7-1.1.1-3.1-1-4.6-2.7-1.5-1.7-3.8-3-5.5-3.2-1.6-.1-5-.9-7.6-1.8-2.7-.8-4.8-1.1-4.8-.7zM452 15.86c0 1.6-.6 3.1-1.4 3.4-2 .8-.8 3.4 2.1 4.5 1.6.6 3 .5 4.1-.2 1.4-.9 1.4-1-.6-.6-1.5.4-2.6-.1-3.3-1.5-.9-1.7-.8-1.9.8-1.4 1 .3 2.6-.1 3.6-.8 2.6-2 .8-6.4-2.7-6.4-2.2 0-2.6.5-2.6 3zM461.7 19.76c.4 1.5.8 1.7 1.9.8 1.6-1.3 1.2-2.2-1-2.5-.9-.1-1.2.5-.9 1.7z"/><path d="M458.5 20.66c-.3.5-.1 1 .4 1 .6 0 1.1-.5 1.1-1 0-.6-.2-1-.4-1-.3 0-.8.4-1.1 1zM276.1 24.26c-.1 1.8-3.2 2.6-4.8 1.3-2.1-1.8-2.4-.6-.7 2.6 1.1 2 1.3 4.3.9 7.1-.5 3.7-.9 4.2-4.5 5.3-2.3.7-4.1 1.9-4.5 3.1-.4 1.1-1.1 2-1.6 2s-.9.9-.9 2c0 1.3-.7 2-2 2-1.4 0-2 .7-2 2.1 0 1.6-.5 2-1.9 1.6-2.1-.5-5.7 2.8-4 3.9.6.3.9 2.1.8 3.9-.2 1.8.5 4.8 1.6 6.8 1.7 3.3 1.8 4 .4 9.4-1.4 5.7-1.4 9.8-.1 11.8.4.5.7 3.5.7 6.5 0 4.8-.3 5.5-2 5.5-2.6 0-4 7.2-1.9 9.6.8.9 1.1 1.8.8 2.1-.3.3.3.5 1.2.4 1.1 0 2 .7 2.2 1.8.3 1.2 0 1.6-.8 1.1-.9-.6-1-.3-.3.9.8 1.4.3 2.6-2 5.2-1.7 1.9-3.7 3.4-4.4 3.4-.8 0-1.6.7-1.9 1.5-.4 1-1.3 1.3-2.6.9-1.4-.4-1.8-.2-1.4.5.4.6.2 1.1-.3 1.1-.6 0-.2 2.2.9 5.1 1.2 2.8 1.8 5.9 1.5 6.9-.6 2 4.2 9.9 6.1 10 3 .1 5.8 6.9 4.1 9.7-.5.7-.1 2.6.9 4.2 1.6 2.8 1.6 3-.4 5.6-2.2 2.8-2.9 6.5-1.3 6.5.5 0 1.1-.7 1.5-1.5.3-.9 1.2-1.2 2.1-.9 1.4.6 1.4.9-.4 2.8-2.8 3-2.7 4.3 1.4 10 1.9 2.7 3.2 5.3 2.9 5.7-.3.5 1.1.9 3 .9s3.8-.5 4.1-1.1c.5-.7 1.2-.5 2.3.4 2.1 1.9 4.1 2.3 6.9 1.3 1.8-.6 3.2.2 7.5 4.1 8.1 7.5 11.8 11.6 11.8 13 0 1.1 1.3 1.8 2.3 1.1.1-.1 1.2.4 2.4 1 3.2 1.8 5.4 6.8 4.3 9.8-1.2 3-1.3 7.7-.2 7.1.4-.3.7.7.8 2.2.1 2.3-.3 2.7-2 2.4-1.2-.3-3.5.1-5.1.8-1.7.7-3.9 1.1-4.9 1-1.4-.2-1.7.2-1.2 1.4.3 1 .1 2.4-.5 3.1-.6.8-.9 2.1-.5 2.9.4 1-.1 1.5-1.4 1.5-1.1 0-2 .4-2 .9s-.9 1.1-2 1.4c-1.5.4-2 1.4-2 4.1 0 2 .5 3.6 1 3.6.6 0 1 1.6 1 3.5s-.5 3.5-1.1 3.5c-.5 0-.8.4-.4.9.3.6-.1 1.4-1 1.8-.9.6-1.6 2.5-1.7 5.1-.1 2.8-.6 4.2-1.5 4.2-.7 0-1.3.4-1.3 1 0 1.4-2.7 1.2-3.3-.3-.2-.6.5-2.2 1.6-3.5l2-2.2-2.3-2.5c-2.4-2.5-4.2-2.7-2.1-.2 2.7 3.4-1.7 6-8.6 5.1-2.7-.3-3.3 0-3.3 1.5 0 2.3 3.5 5.5 5.3 4.8.7-.2 2 .1 3 .7 1.9 1.5 8 .9 7-.7-.3-.6-.1-.7.5-.3.7.4 1.2 1.3 1.2 2.1 0 1.6 6.3 7 8.2 7 .6 0 1.6 1.3 2.1 2.8.7 2.2.5 3.2-.9 4.8-1.3 1.4-1.8 3.4-1.6 6.4.1 2.8-.4 4.7-1.3 5.5-.8.7-1.5 2-1.5 3s-1 2.4-2.2 3.3c-2.2 1.4-2.2 1.6-.6 3.4 1.2 1.3 1.4 2.3.8 3.3-.5.8-1 2.9-1 4.7 0 4.5-.9 6.3-3.2 6.3-1.7 0-1.6.4 1.1 3.7 1.7 2.1 3.1 4.3 3.1 4.9 0 .6.7 1.7 1.5 2.4 1.8 1.5 1.9 4.2.3 5.9-.7.6-1.3 1.5-1.3 2 0 1.4-5.5 7.2-6.7 7-3.6-.4-5.8.2-5.8 1.7 0 1.3-.3 1.4-1.5.4-.8-.6-1.9-.9-2.5-.5-.5.3-1 .1-1-.4 0-.6.5-1.1 1-1.1.6 0 1-.5 1-1.2 0-.6-1.2 0-2.7 1.4-3.4 3.1-9.1 5.9-9.8 4.8-.2-.4-1.6-.8-3-.8s-3.7-1-5-2.2c-1.5-1.4-3.2-2.1-4.4-1.7-1.1.3-2.8-.1-3.8-.9-2.7-2-6.3-1.8-6.3.4 0 3-1.9 4.2-4.9 3.1-1.8-.7-2.7-.7-3 .2-1.4 4.2-8.3 6.5-11.3 3.6-.7-.6-3.3-1.2-5.7-1.3-2.9 0-4.8-.6-5.6-1.7-1.6-2.2-4.5-1.2-3.8 1.2.3 1.3-.4 2.2-2.6 3.1-3.6 1.5-3.5 1.2-1.6 5.1 1.6 2.9 1.6 3-.8 2.4-2-.5-2.9 0-4.6 2.4-1.3 1.7-2.9 3.1-3.7 3.1-.8 0-1.4.7-1.4 1.5 0 2.2-3.4 1.8-5.5-.5-1.9-2.1-6.5-2.8-6.5-.9 0 .5-.4.7-1 .4-.5-.3-1-.2-1 .3s-1.1.7-2.5.4c-1.4-.2-2.5-.7-2.5-1.1 0-.4-1.7-.8-3.7-.8-2.6-.1-4.2-.8-5.5-2.5-1-1.4-1.8-1.7-1.8-.9 0 1-.8 1.2-3 .8-2.4-.5-3.3-.2-5 2.3-1.3 1.8-1.9 3.8-1.5 4.9.4 1.4-.3 2.4-2.8 4-1.9 1.2-4.1 2.1-5 2.1-.9 0-2.5 1.2-3.6 2.6-1.6 2.1-2.3 2.3-3.9 1.5-2.3-1.2-3.8-5.2-1.7-4.4.8.2 1.6 1.1 1.9 1.9.3.7 1.2 1.1 2.1.8.8-.3 1.3-1 1-1.4-.3-.5.2-1.3 1.1-1.8 1.1-.6 1.5-1.7 1.2-2.9-.3-1.3.2-2.4 1.4-3.2 1.6-1 1.7-1.5.8-2.6-1-1.2-.9-1.6.3-2.1 1.5-.5 1.5-.8 0-3-1.3-2.1-1.4-2.9-.4-4.8 1.6-3-.2-10.1-2.9-11.9-1.1-.6-2-1.9-2-2.7 0-.8-1.5-2.2-3.3-3.1-1.7-.9-3.1-2.2-2.9-2.9.2-.7-.6-2.3-1.8-3.5-1.1-1.2-1.8-2.4-1.5-2.7.3-.3-1.7-2-4.4-3.7-5.6-3.4-6.1-4.5-3.1-6.3 1.1-.7 2-1.7 2-2.2 0-.5-.8-.2-1.9.8-1.6 1.4-2 1.5-3 .2-1.6-1.9-.6-3.7 1.6-2.9 1.1.4 1.4.3.9-.6-.5-.7-1.4-1-2.2-.7-.7.3-2.3-.4-3.6-1.4l-2.3-1.9 3.3-.7c4-.8 7-4.5 7.8-9.6.4-2.1 1.2-3.8 1.8-3.8 1.9-.1-4.4-5-6.4-5-2.4 0-4-4.8-2-6 .9-.6.9-1.2.1-2.9-.7-1.1-1.1-3.6-.9-5.5.1-1.9-.4-4.1-1.1-4.9-1-1.3-.9-2 .4-4 1.2-1.9 1.3-3 .5-5.1-1.3-3.6-1.4-3.6 1.5-3.6 1.8 0 2.5-.5 2.5-1.9 0-1.1.9-2.2 1.9-2.6 2.4-.7 2.4-5.4.1-7.2-1.3-1-1.2-1.4.8-3.1 2.1-1.9 2.1-2.1.7-6.2-2-5.5-2-5.3 2-4.7 2.2.4 3.3.2 2.9-.4-.3-.5-.7-2.5-1-4.3-.4-3.1-.1-3.4 3.6-4.5 2.2-.6 4.4-2.1 5-3.2.6-1.1 1.5-1.7 2.1-1.4 1.2.8 1.1.3-.1-3-.7-1.8-.7-3.3.1-4.8 1.7-3.3 6.1-7.7 7.1-7.1.9.6 1-1.6.2-6.8l-.6-3.7-2.5 5c-1.5 3-3.5 5.4-4.9 5.9-1.3.5-2.4 1.4-2.4 1.9 0 1.4-3.2 2.3-4.4 1.1-1.7-1.7-4.8-1.1-5.3 1.1-.5 1.8-1.1 2-4.7 1.5-2.3-.3-6.3-.8-9.1-1.1-4.8-.6-4.9-.6-3.2 1.3 3.1 3.4 1.3 9.2-2.9 9.2-1.4 0-2.7.7-3 1.5-.4.9-1.1 1.5-1.8 1.4-.6-.1-1.9.1-3 .6s-2.1.3-2.6-.4c-.5-.9-.9-.3-1.3 1.6-.7 3.8.1 4.8 2.4 2.7 1.1-.9 2.1-1.5 2.2-1.3 4.4 5.5 4.7 8.2.9 7.8-1.5-.2-3.3 0-4 .5-.7.4-2 .2-2.9-.6-1.4-1.2-1.5-.8-.9 3.4.5 3 .3 4.9-.4 5.3-.6.4-.9 1.3-.6 2.1.3.7-.7 2.3-2.2 3.4-2.4 2-4.2 2.1-8.4.5-.7-.3-1.8.5-2.3 1.8-1.2 2.6-.7 10.7.6 10.7.5 0 .9.7.9 1.5s-.9 1.5-2 1.5c-1.2 0-2.2.9-2.6 2.4-.4 1.9.3 3.3 3.6 6.7 2.4 2.3 4.7 5.8 5.2 7.7.5 1.9 2 4.4 3.2 5.6 1.2 1.1 3 3.8 4 5.9 1 2.1 2.4 4.1 3.2 4.4 2.2.8 1.7 4-.8 4.7-2.2.6-2.1.7 1 2.1 3.8 1.7 3.9 2.1.8 4.6-1.3 1-2.6 3.2-2.9 4.8-.4 1.7-1.5 3.9-2.6 5s-1.7 2.2-1.4 2.4c1 1-2.9 5.5-5.2 6.1-1.8.5-3.1-.1-5-2-1.4-1.4-2.9-2.3-3.2-2-.3.3.5 1.7 1.8 3 5.9 5.9 8.8 12.1 8.9 18.6.1 1.4.9 4.3 1.9 6.5 1.9 3.9 1.9 4-.1 5.3-1.8 1.3-1.8 1.5-.3 3.2.9 1 1.3 2.5.9 3.6-.5 1.5-.4 1.6.4.4 1.7-2.2 5.5 1.5 4.2 4.1-1.2 2.2-.4 4.3 2.8 7.8 1.3 1.4 3.5 4.2 4.8 6.3 1.3 2 2.8 3.9 3.4 4.3.5.3 1 1.9 1 3.5 0 1.9.7 3.3 2 4 1.1.6 1.8 1.6 1.4 2.1-.7 1.1 4.8 6.5 9.9 9.8 1.8 1.1 2.6 2.1 2 2.1-2 0-1.5 2.8.6 3.9 1.8 1 2 3.7.7 7.1-.3.8.3 3 1.4 4.7 1.9 3.2 4.1 4 10.1 3.5 2-.2 3.2 6.2 1.7 9.1-.7 1.3-.5 2.9.6 5.2.9 1.8 1.6 3.8 1.6 4.4 0 .6.8 1.1 1.8 1.1 2.1 0 4.2 1.8 4.2 3.7 0 .7-.7 1.3-1.5 1.3-1.9 0-1.9.9 0 3 1.3 1.5 1.3 2-.1 4.9-.9 1.7-1.3 3.9-1 4.7.3.8.2 1.2-.4.9-.6-.3-1-.1-1 .5 0 .7-.7 1-1.5.6-1.3-.4-1.3-.2-.5 1.4 1.4 2.7 1.2 3.4-.5 2-.8-.7-1.5-.9-1.5-.4-.1.5-.7-.2-1.4-1.6-.8-1.4-1.2-2.8-1-3.1.8-1.3-2.4-1.7-6.1-.9-2 .5-4.7 1.8-6 3-2.2 2.1-2.4 2.1-4.9.5-2.6-1.7-2.6-1.7-2.6.8 0 1.4.7 3 1.7 3.5 1.4.9 1.4 1-.5 1.6-1.2.4-1.9 1.3-1.6 2.1.3.7.1 1.6-.5 1.9-1.2.8-3.4-2.8-2.3-3.8.3-.4-.1-.4-1.1 0-1.1.4-1.9 0-2.3-1-.3-.9-1-1.4-1.5-1.1-.4.3-.6 1.2-.2 2 .3.8 0 1.5-.7 1.5-1.2 0-6 4.5-6 5.6 0 .2.7.4 1.5.4.9 0 1.2-.6.9-1.5-.4-.8-.1-1.5.5-1.5s1.1.7 1.1 1.6c0 1.2.8 1.4 3.5 1 2-.4 3.5-.2 3.5.4 0 .6 1.1 1 2.5 1 1.6 0 2.5.6 2.5 1.6 0 1.1.6 1.5 2 1.1 1.1-.3 2.3-.1 2.6.4.3.5 1.8.9 3.5.9 1.6 0 2.9.4 2.9.9s1.8 1.6 4 2.5c2.4 1 3.8 2.1 3.5 2.9-.8 1.9 6.4 8.5 7.4 6.9.5-.9 2-1.1 4.9-.6 3.9.6 4.3.5 5.9-2.5 1.1-1.9 2.6-3.1 3.9-3.1 1.2 0 2.4-.8 2.6-1.8.3-.9 2.3-2.6 4.4-3.7 4.3-2.1 7.4-4.9 7.4-6.5 0-.6 1.1-1.6 2.5-2.2 3.1-1.4 5.4-5.8 4.8-9-.3-1.6.6-4.1 2.5-7.2 3-4.6 3.2-7.4.9-10.4-.5-.6-.6-1.2-.1-1.2 1.4.1 4.4 2.6 4.4 3.8 0 1.1 3 2.5 3.8 1.8.2-.3.1-2.5-.2-5-.7-4.6-3-8.1-4.6-7.1-.5.3-1.1-.4-1.5-1.5-.3-1.1-1.2-2-1.9-2-.8 0-1.9-.7-2.6-1.5-.7-.8-.9-1.5-.4-1.5s.9-1.1.9-2.5-.3-2.5-.7-2.5c-.4 0-.5-1.7-.3-3.8.2-2 .1-3.1-.2-2.4-.4 1-1 .9-3-.4s-3-1.4-5-.5c-3.4 1.5-5.3 1.4-5.3-.5 0-1 .6-1.4 1.4-1.1.8.3 2.2-.3 3.2-1.4 1.3-1.5 2.5-1.8 5.1-1.3 2.5.5 3.9.2 5.3-1.1 1-.9 2.3-1.4 2.9-1.1.5.4 1.5-.2 2-1.1 1-1.7 1.2-1.7 2.1-.1 1.3 2.1 3 2.4 3 .5 0-.7 1.4-1.8 3.1-2.4 2.8-1.1 3-1.4 2.5-5-.4-2.1-.3-3.2 0-2.5.7 1.6 3.4-.3 3.4-2.4 0-.8.6-1.4 1.3-1.4 1.3 0 4.7 2 3.5 2-.4 0 0 .9.9 1.9.9 1.1 2.2 1.7 2.9 1.4.8-.3 1.4 0 1.4.6s-.7 1.1-1.5 1.1c-1.9 0-1.9.9 0 3.4.8 1.1 1.5 3.2 1.5 4.8 0 1.5.9 3.6 2.1 4.7 2.9 2.6 4 14.7 1.3 13.7-.9-.3-2.7-.9-4-1.2-2.3-.6-2.4-.4-1.8 2 .8 3.2-1.4 8.9-3.2 8.2-.7-.3-1.7.7-2.3 2.5-.9 2.7-.8 3.1 1.4 4.1 1.4.6 2.6 1.4 2.6 1.7.1.3.3 1.7.4 3 .2 2.4 2.7 4.8 3.3 3.1.4-1.1 3.1-.2 5.5 1.8.9.8 1.7 1.1 1.7.6 0-.5.7 0 1.5 1 1.5 1.9 1.5 1.9 3.8-.2 2.8-2.7 11.5-3 17-.7 4.9 2 11 1.5 14.2-1.3 1.4-1.2 2.5-2.6 2.5-3.1s.8-1.1 1.9-1.4c1.4-.3 1.7-1.1 1.4-3.1-.4-1.7-.1-2.6.7-2.6.7 0 1-.8.7-1.9-.6-2.6 3.7-6.8 5.5-5.4 1.9 1.5 9-1.8 7.8-3.6-.4-.8-1.2-1.1-1.7-.8-.6.4-1-.7-.9-2.3.1-3 1-3.8 2.1-2 1.3 2.1 2 .8 2.2-4.3.2-4.3.7-5.6 3-7.4l2.8-2.3.7 2.1c.7 1.7 1.4 2 3.7 1.6 2.3-.5 3.8 0 6.6 2.3 2.8 2.2 4.4 2.8 6.3 2.3 1.6-.4 2.3-.2 1.9.4-.7 1.2 1.4 2.3 4.1 2.3.9 0 2.8-.9 4.1-1.9 1.8-1.4 3.2-1.6 5.7-1.1 1.8.4 3.5.5 3.8.2.3-.2 2.1.7 4 2.2 1.9 1.4 3.9 2.6 4.5 2.6.5 0 1.5.8 2 1.7.6 1 1.1 1.2 1.1.5 0-1.5 5.6-1.6 6.5-.1.5.7 1.4.4 2.7-.8 1.8-1.6 2.1-1.6 3.1-.2 1.8 2.3 7.6 4.9 11 4.9 1.7 0 4 .8 5.1 1.7 1.8 1.6 1.8 1.5-.2-1.1-1.2-1.5-1.9-3.2-1.7-3.6.8-1.4-1.7-5.9-3.4-6.2-1.2-.3-1.6-1.5-1.6-4.8 0-3.9-.3-4.5-2-4.3-2.7.2-7.4-2.7-8.2-5.2-.4-1.1-.6-6.6-.6-12.3 0-5.7-.4-10.2-.9-10.2s-.7.4-.3.9c.3.6-.5 1.5-1.7 2.2l-2.2 1.2 2.4 1 2.5.9-2.6 1c-1.9.6-2.9 1.8-3.3 4-1.8 9.2-2.5 10.5-6.7 12.3-4.2 1.9-8.9 2.6-8.9 1.3 0-.4-.6-.8-1.4-.8-.8 0-2.2-1-3-2.1-.8-1.2-2.3-2.2-3.3-2.3-2.6-.2-6.3-2.8-6.3-4.5 0-1-.3-1.2-1-.5-1.2 1.2-.3 4.4 1.1 4.4.5 0 .9 1.3.9 3 0 1.6.4 3 .8 3 .5 0 .7 1.3.4 2.9-.4 2.7-.7 2.9-3.6 2.4-2.2-.3-3.6 0-4.5 1.1-1.6 2-3.1 2.1-3.1.2 0-.7.9-1.6 2.1-1.9 1.5-.4 1.9-1.1 1.4-2.5-.3-1.1-.1-2.3.5-2.7.5-.3 1-1.5 1-2.6 0-1 .3-1.9.8-1.9 1.2 0 .6-6.4-.7-6.8-.6-.2-1.8.1-2.5.7-1 .9-1.5.8-2-.5-.4-1-1.2-1.4-2.2-1-2 .8-4.4-1.1-4.4-3.4 0-1-.7-2.3-1.5-3-1.4-1.2-1.4-1.5 0-3 1.2-1.3 1.4-2.8.9-5.9-.7-4.6-1.8-5.8-3.8-4.2-.9.8-2.3.3-5.2-1.9-4.4-3.3-5.9-3.6-8-1.5-1.8 1.7-3.4 2-3.4.5 0-.6.5-1 1.1-1 .5 0 .7-.5.4-1.1-.4-.6 0-.9 1.1-.7 1.4.2 1.8-.3 1.7-2-.2-1.2.2-2.2.8-2.2.6 0 .9-.9.6-1.9-.4-1.7-.1-1.9 3.1-1.4 2.6.5 3.3.3 2.7-.6-.4-.7-1.6-1.1-2.6-.8-1 .3-2.2.1-2.5-.4-.3-.5.4-.9 1.5-.9 3.4 0 3.3-7.4 0-9.8l-2-1.4 2-1.9c1.1-1 2.9-1.9 3.9-1.9 1.1 0 2.5-.7 3.2-1.5.7-.8 1.9-1.5 2.6-1.5.8 0 1.4-.5 1.4-1.1 0-.8 1.4-.9 4.4-.5 4.8.8 5.9.1 6.5-4.3 0-.5 1-.7 2.1-.4 1.5.4 2 0 2-1.5 0-1.2-.5-2.4-1.1-2.7-.7-.5-.3-1.4 1-2.6 1.2-1.1 2.1-2.6 2.1-3.3 0-.7 1.4-2.5 3-3.9 2.2-2 3-3.6 3-6.1 0-1.8.7-3.9 1.5-4.6 1-.9 1.4-2.3 1.1-3.9-.5-2.2-.1-2.8 3.2-4.4 2.1-.9 4.8-1.7 6-1.7 1.4 0 2.7-.9 3.4-2.5.6-1.4 1.9-2.5 3-2.5 1 0 1.8-.5 1.8-1 0-.6.5-1 1.1-1 2.2 0 3.7-3.3 2.9-5.9-2.2-6.9-2.1-8.1.1-8.1 1.7 0 2-.5 1.7-2.5-.3-1.3 0-2.6.6-2.8 1.6-.5-3.7-6.6-5.4-6.2-2.5.7-4.2-1.1-5-5.5-.7-3.7-.5-4.2 1.4-5 1.6-.6 2.5-.3 3.8 1.1 1.3 1.5 2.2 1.8 3.4 1.1 1.1-.6 1.3-1.1.5-1.6-.7-.5-.2-2.1 1.9-5.1 2.6-3.7 2.8-4.5 1.5-5.5-1.9-1.6-1.9-3 0-3 .8 0 2.2-1.6 3-3.6 1.4-3.5 1.6-3.6 3.3-2 2.2 1.9 6.6 2.1 8.4.3.7-.8 1.8-1.2 2.4-1 .6.2 1.4-.5 1.7-1.7.4-1.4 1-1.8 2.3-1.3 1.4.5 1.6.3 1.1-1.1-.4-1-.7-1.9-.7-2.2 0-.2-.7-.1-1.5.2-.8.4-1.5.1-1.5-.5s-.7-1.1-1.5-1.1-1.5-.7-1.5-1.5.6-1.5 1.4-1.5c2.2 0 2.8-3.1.9-4.5-1-.7-2.1-1.1-2.4-.9-1.2.7-2.6-2-3.2-5.9-.3-2.1-.2-3.7.4-3.7.6 0 .6-.7 0-1.8-.7-1.3-.6-2.3.1-3 .9-.9.9-1.2-.1-1.2s-1.1-.3-.2-1.4c.9-1.1.6-1.2-1.3-.9-1.7.4-2.3 1-1.9 2 .5 1.2.1 1.1-1.5-.3-2.2-1.8-1.6-3.9 1.1-3.9.7 0 1.6-2.6 2.1-6.2.9-5.9 1.1-6.3 4.6-7.7 2-.8 4.2-2.1 4.9-3 1.8-2.2 3.8-2 5.1.4 1.6 3.1 3 2.4 2.8-1.5-.1-1.9-.5-3.5-1-3.5-1.3 0-.9-4.5.7-6.6 2.5-3.2 1.7-5.5-3.6-10.6-3.7-3.5-4.9-5.3-4.4-6.7.5-1.5 0-2.1-2.4-2.6-4.5-1-4.5-3.7 0-5.9 6.4-3.1 5.8-9.9-2.4-26.1-1.3-2.8-2.8-6.4-3.1-8.2-.5-1.9-1.5-3.5-2.7-3.8-1.1-.4-1.8-1.2-1.6-1.8.2-.7-1.6-4-4-7.3l-4.3-6.2 2.6-.6c2.2-.6 2.4-.9 1.3-2.2-1-1.2-.8-1.8 1-3 1.2-.9 2-2.2 1.7-2.9-.2-.7.2-1.6 1-1.9 2.1-.8 1.3-3.8-1.1-4.2-1.1-.2-3.1-1.6-4.4-3.1l-2.4-2.8 2.1-.3c1.8-.3 2.2-1 2.2-3.8 0-1.9.5-3.4 1-3.4.6 0 .5-.8-.2-2-1-1.6-1-2.2-.1-2.8 1.8-1.1-.5-7-3-7.8-1.3-.4-1.7-1.2-1.4-2.5.7-2.6-.5-3.1-7-3.3-4.5-.1-5.7.2-6 1.5-.6 2.2-3.4 3.4-4.3 1.8-.9-1.4 1.1-5.9 2.8-5.9.6 0 1.2-.7 1.2-1.5 0-.9 1.2-2 2.6-2.5 1.7-.7 2.4-1.5 2-2.5-.5-1.3.3-1.5 4.8-1.2 3 .3 5.8.7 6.3 1 1.4.9 2.3-.2 2.3-2.5 0-1.1.4-1.7.9-1.3 1.3.7 4.2-3.5 3.3-4.9-1.1-1.8-1.2-5-.3-6.5.8-1.2 1.3-1.2 3.6.3 2.7 1.8 2.8 1.7 4.9-.4 1.1-1.3 1.5-1.9.8-1.5-.9.4-1.9-.1-2.8-1.4-1.9-2.7-4.4-2.7-7.8 0-2.2 1.7-2.9 1.9-4.2.8-1.1-.9-2-.9-4 0-4.4 2-12.4.6-10.9-2 .8-1.2-.6-1.1-2.5.1-1 .6-2.1.3-3.7-1.2-2.2-2.1-2.4-2.1-3.7-.3-1.7 2.4-3.6 1.1-3.6-2.6 0-2.2-.6-3.2-2.4-3.9-1.4-.5-2.6-1.9-2.8-3.2-.2-1.5-1.1-2.4-2.5-2.6-1.7-.2-2.4-1.2-2.9-3.8-.7-3.8-1.8-4.2-5.2-1.8-1.2.8-2.7 1.2-3.4.8-.7-.4-.8-.3-.4.4s.3 1.2-.3 1.2c-.5 0-1.2-.4-1.6-1-.3-.5-1.2-.7-2-.4-.9.4-1.8-.3-2.4-1.7-.5-1.3-1-1.9-1-1.3zm47.5 197.1c-1.1 1.1-1.7-.4-.9-2.3.7-1.8.8-1.8 1.1-.1.2 1 .1 2.1-.2 2.4zm-224.3 34.9c.4-.9 1.2-1.4 1.8-1.1.6.5.4 1.2-.8 2-2 1.5-4.8.1-3.6-1.8.4-.6.9-.3 1.3.8.6 1.7.7 1.7 1.3.1zm96.5 154.2c1.3.9.7 4.2-.7 4.2-.4 0-1.3-1.1-1.9-2.5-1.2-2.7-.1-3.4 2.6-1.7zM349.4 44.16c-.8 2.1.5 3.7 2.7 3.2 1-.3 2.6.1 3.5.7 2.3 1.7 6.6.8 6.2-1.3-.2-.9-1.2-1.6-2.3-1.6-1.1 0-3-.6-4.2-1.3-2.9-1.6-5.2-1.5-5.9.3z"/><path d="M339.6 53.16c.4.8 1 1.2 1.5.9 1.4-.8 1-2.4-.6-2.4-.9 0-1.2.6-.9 1.5zM101.6 188.96c-.9 3.4-.7 5.7.5 5.7.6 0 .8-.9.4-2-.4-1.2-.2-2.7.5-3.5.6-.8.7-1.6.2-1.9-.6-.3-1.2.4-1.6 1.7zM72.4 191.16c.7 2.8-2.6 7.1-4.6 5.9-.6-.4-.8-.3-.5.4.9 1.4-.3 4.3-1.4 3.6-.5-.3-.9-.1-.9.4 0 1.3-6.1 3.7-8.4 3.3-1.5-.2-1.3.3 1 2.3 2.2 1.8 3.1 3.4 3.1 5.6 0 2.2-.4 2.9-1.4 2.6-1.1-.5-1.1-.1 0 2.2 1.4 2.7 1.2 6.3-.4 7.2-.5.3-.3 2.3.3 4.4 1 3.3 1 4-.5 5.1-2.4 1.7-2.2 2.3 1.8 3.9 3.4 1.5 4 2.8 3.6 7.7-.1 1 .8 1.9 2.4 2.3 2.6.7 3.2 2.9 1.6 5.5-.6.9-1.1 1-1.5.2-1.2-1.8-2.3-1.3-2.8 1.4-.3 1.6.1 3 1.3 4.1 1.1 1 1.9 2.4 1.9 3.1 0 1.6 2.4 1.3 2.6-.3 0-.5.6-2.2 1.3-3.8.6-1.6.9-3.1.6-3.4-1-1 2.8-4.2 5.1-4.2 2.4 0 4.7-3 5-6.3.1-1.9-3-2.4-4.1-.7-.4.6-1.1.7-1.7.4-.7-.4-.4-1 .6-1.6 1.6-.9 1.6-1.1-.1-3-1.7-1.9-1.7-2 0-3.3.9-.6 1.7-1.7 1.7-2.2 0-1.5 3.6-2.3 4.8-1.1.6.6 1.9.7 3.1.3 2.8-.8 2.8-5.9.1-10-2.1-3.2-2.7-9-1-10 .6-.4.8-1.5.5-2.6-.4-1-.2-1.9.4-1.9 1.4 0 6.1-4.5 6.1-5.9 0-.6.7-1.1 1.6-1.1 1.3 0 1.4-.3.5-1.3-1.4-1.7-.4-2.7 2.5-2.7 2.3 0 4.1-1.6 3-2.7-.3-.3-1.3-.2-2.3.2-3.3 1.4-4.8 1.1-8-1.9-1.9-1.7-3.8-2.6-4.7-2.3-.8.3-2.8 0-4.3-.8s-4.1-1.5-5.7-1.5c-2.5 0-2.7.3-2.2 2.5zm-2.4 52.6c0 .6-.4.7-1 .4-.5-.3-1-1.1-1-1.6 0-.6.5-.7 1-.4.6.3 1 1.1 1 1.6zM395 193.96c-1.4.6-3.1 1.9-3.8 2.9-.7.9-1.9 1.5-2.7 1.2-.8-.3-1.9.4-2.6 1.7-.9 1.8-.9 2.4 0 2.7.9.3.9.8-.1 2-1.1 1.3-1.1 1.4.2 1 .8-.2 2.6.1 3.9.8 2.7 1.4 4.1 1 4.1-1.2 0-.9 1.1-1.4 3.3-1.4 3.2 0 6.4-2.9 4.9-4.5-.4-.4-.7-1-.7-1.3-.1-1.3-2.6-5.2-3.3-5.1-.4 0-1.8.6-3.2 1.2zm-2 4.3c0 .8-.5 1.2-1 .9-.6-.4-.8-1.1-.5-1.6.9-1.4 1.5-1.1 1.5.7zM445.8 196.96c-3 1.2-3.5 2.6-1.6 4.5.9.9.7 1.6-1 3.2-1.1 1.1-2.7 2-3.5 2-.8 0-2.2.9-3.2 2-2.4 2.7-3.5 2.5-3.5-.5 0-1.4-.6-2.5-1.4-2.5-1 0-1.1.7-.2 3.5.6 1.9 1.7 3.7 2.3 4 2.2.8 6.3-1.3 6.3-3.3 0-1.4.9-2.1 3.6-2.5 2-.3 4.2-1.4 4.9-2.4 1.1-1.4 1.6-1.6 2.6-.6 1.1 1.1.9 1.3-.6 1.3-1.6 0-1.7.2-.6.9 1.8 1.2 4-1.4 4.1-4.7 0-1.2.5-2.2 1-2.2.6 0 1-.7 1-1.5 0-1.7-1.2-1.9-2.6-.5-.8.8-1.5.6-2.4-.5-1.4-1.7-1.5-1.7-5.2-.2zM382.5 202.66c.3.5.8 1 1.1 1 .2 0 .4-.5.4-1 0-.6-.5-1-1.1-1-.5 0-.7.4-.4 1zM418.3 203.06c.2.5 2 1.1 4 1.3 2.7.3 3.7 0 3.7-1s-1.2-1.4-4-1.3c-2.2 0-3.9.5-3.7 1zM427 202.06c0 .2.9.6 2 .9 1.1.3 2 .1 2-.4s-.9-.9-2-.9-2 .2-2 .4zM358.9 208.36c-.7 1.9-.4 3.3 1.3 6.2 1.3 2.1 2.9 3.6 3.6 3.4.6-.3 1.2 0 1.2.5 0 .6.3 1.7.6 2.6.4 1.1 0 1.6-1.1 1.6-1.5 0-1.7.7-1.2 5 .4 3 .2 5-.4 5-.5 0-.3 1 .5 2.2 2.4 3.9 4 10.2 2.7 10.6-1.4.5-1.5 3.2-.1 3.2.6 0 1 .9 1 2s-.7 2-1.5 2c-.9 0-2.7.7-4.1 1.6-2.2 1.5-2.3 1.9-1 3.3 2.2 2.4 2.2 2.7.7 4.4-1 1.3-1.1 2-.2 3.1.9 1 .8 1.6-.4 2.6-.8.7-1.5 1.6-1.5 2 0 .4-1.6 2.4-3.5 4.4-2.1 2.2-3.2 4.2-2.8 4.9.5.8.9.7 1.1-.5.4-2 6.5-4.2 9.5-3.4 1.4.3 2.9-.2 4.5-1.7 2.2-2.1 2.4-2.1 3.6-.5 1.6 2.2 2.6 2.3 2.6.4 0-.7.7-1.9 1.5-2.6 1.2-1 1.3-1.6.4-2.6-.6-.8-.7-1.4-.2-1.4.5 0 1.5-1.1 2.1-2.5.7-1.5 2-2.5 3.2-2.5 1.1 0 2-.5 2-1 0-1-1.4-1.4-4-1-.8.1-.3-.7 1.2-1.9 1.4-1.2 3.3-2.1 4.1-2.1.9 0 1.8-.4 2.2-.9.3-.5 1.8-1.2 3.4-1.6 1.6-.3 3.7-1.5 4.7-2.6.9-1 2.3-1.9 3-1.9.7 0 1.8-.9 2.4-2 .6-1.1 1.6-1.7 2.5-1.4.8.4 1.8-.1 2.1-1 .3-.9 1.2-1.6 2-1.6.7 0 2-.9 2.8-2.1.8-1.2 1.9-1.8 2.5-1.4 1.4.8 1.4-1.1 0-3.8-1.1-2-.4-3.2 1.7-2.7 1.1.3 2.3-2.2 1.7-3.7-.6-1.5-8.3-1.8-8.3-.3 0 .5-.6 1-1.3 1-.9 0-1.3-1.3-1.3-3.8.1-2.9-.4-3.9-2.1-4.7-2.9-1.2-3.9-3.7-2-4.9 1.3-.8 1.1-1.5-1.1-4.5-1.4-2-2.7-3.7-2.8-3.9-.1-.1-1.3.3-2.8.9-2.5 1.2-3.2 3.2-2.7 8.1.3 2.1-3.8 2.5-5.7.6-.9-.9-1.2-.7-1.2 1 0 2.5-1.1 2.7-6 .9-6-2.2-7.4-3.3-7.6-6.7-.3-4.1-.9-4.7-6.2-5.8-4.1-1-4.4-.9-5.3 1.5zm39.6 22.2c-.3.6-1.4.9-2.5.8-2.4-.2-1.5-1.7 1.1-1.7 1.1 0 1.8.4 1.4.9z"/><path d="M424.9 214.46c-.1.4-.2 1.1-.3 1.7-.4 2.7-1.8 5.4-3.1 5.9-3.6 1.4-1.1 5.3 5.2 8 2.9 1.3 7.3 5 7.3 6.1v1.5c0 .5.8 1 1.8 1 2 0 5.9 10 3.9 10-.7.1-.2.9.9 1.8 1.2 1 2.5 2.9 2.9 4.3 1 2.9 3.3 4.8 6.1 4.9 1.2 0 2.7.7 3.4 1.5.7.9 1.9 1.4 2.7 1.1.9-.4 1.3.3 1.3 1.9 0 1.4.5 2.5 1.2 2.5.8 0 .7.6-.4 1.6-1.4 1.4-2 1.4-5.3.3-3.2-1.2-3.8-1.2-4.5.2-1.5 2.7-6.3 1.5-11.4-2.6-2.5-2.2-4.6-4.3-4.6-4.7 0-.4-.4-.8-.9-.8-.6 0-.8.9-.6 2.1.4 1.7.2 1.9-1.1.8-.8-.6-1.2-2-.9-3 .4-1.1-.1-2.1-1.4-2.8-2-1.1-5.1-.5-5.1.9 0 .4-.9 1-2 1.3-1.3.3-2.1-.1-2.6-1.6-.4-1.2-.2-2.3.3-2.4 1.4-.5.4-5.4-1.5-7.6-1.6-1.9-4.7-2.4-3.6-.6.9 1.5-1.4 2.9-4.8 2.9-2.3 0-2.8.5-3.4 3.5-.7 3.7.1 8.6 1.4 8.3.4-.1 1.7.3 3 1 1.2.7 2.3 1 2.3.7.1-.3.3-1 .4-1.5.1-.6.3-1.3.4-1.7 0-.3 1 .2 2.2 1.3 1.7 1.6 2.2 1.6 2.9.4.7-1.1 1-.8 1 1.4 0 2.1-.4 2.7-1.5 2.2-.9-.3-1.5 0-1.5.9 0 2.3-3 1.8-5.6-1.1-2.4-2.5-5.6-2.5-3.5 0 .8.9.5 1.9-1 3.5l-2.1 2.2 2.1.6c1.2.3 2.1 1.2 2.1 1.9 0 .8.6 1.4 1.3 1.4 1.7 0 11.7 9.4 14.4 13.5 1.1 1.6 1.8 3.6 1.6 4.3-.3.7 0 1.9.7 2.7.6.8.9 1.8.6 2.4-1 1.6.5 4.1 2.4 4.1 1.1 0 2.2.5 2.5 1 .4.6 1.3.7 2.4.1 2.1-1.2 4.7-.9 6.3.7.9.9.8 1.2-.3 1.2-2.4 0-5.2 3.7-4.6 6 .5 2.1-1.6 2.9-2.8 1-.9-1.5-2.5-1.2-2.5.5 0 1.1 1.1 1.5 3.6 1.5 2 0 3.3.4 2.9 1-.3.5-1.3.6-2.2.3-.9-.4-1.4-.2-1.1.3.3.5 0 1.4-.7 2.1-1 .9-1.9.5-4.1-1.8-3.7-3.8-5.6-3.7-10.1.9-2.5 2.5-5.2 4.1-7.6 4.6-2 .4-4.9 1.8-6.4 3.2-1.5 1.4-3.3 2.2-4.1 1.9-.7-.3-2 .1-2.7.9-1.2 1.1-1.2 1.6 0 3.3.8 1.1 1.1 2.3.8 2.7-.3.3.2.6 1.1.6 2.6 0 7.1 2.9 8.2 5.3 1.1 2.5 4 3.8 3.1 1.3-.4-.9-.2-1.6.3-1.6.6 0 1-.6 1-1.4 0-1.7 9.6-2.8 12.3-1.5 1.1.6 1.7.6 1.7-.1 0-.5.6-1 1.3-1 .6 0 1.8-.4 2.6-.9 1.3-.8 1.3-1.2 0-2.7-1.2-1.6-1.2-1.7.3-1.1 2.3.8 3.2-.8 1.3-2.3-1.4-1.1-1.2-1.6 1.2-4.1 1.6-1.6 3.4-2.9 4.2-2.9.8 0 1.1-.6.7-1.5-.4-1 .3-2 1.9-2.7 1.6-.7 2.5-1.9 2.5-3.5 0-2.3.1-2.3 2.7-.9 2.4 1.2 3.1 1.2 5.5 0 1.7-.9 2.8-2.3 2.8-3.5 0-1.2 1-2.3 2.5-2.9 1.3-.5 3.4-2.1 4.6-3.4 1.2-1.4 2.6-2.3 3-2 .5.3 1.7 0 2.6-.5 1.7-1 1.6-1.1-.4-1.7-3.2-.9-2.8-2.3.7-3.1 1.7-.3 3-1.2 3-2 0-1.1.3-1.3 1.3-.5.8.7 2.3.7 5-.1l3.7-1.2.1-7.5c.1-4.1.1-8.3 0-9.3-.1-.9.4-1.7 1.3-1.7 2.3 0 2-3.7-.3-5-1.6-.8-2.1-.5-3.3 2-.7 1.7-1.6 3-2 3-1.7 0-3.7-1.3-3.2-2.1.3-.5-.1-.9-.9-.9-2.2 0-2.9-2.9-1.2-4.7 2-1.9 1.4-3.8-1-3.8-2.3 0-3.1-2.1-1.5-4 .8-1 .9-1.9 0-3.5-.6-1.1-.8-2.6-.4-3.2.5-.7.3-.8-.6-.3-.9.5-1 .2-.6-1.3.6-1.7-.1-2.6-3.3-4.7-4.8-2.9-5.2-5.4-2.1-11.5 2.5-4.9 2.5-5.5 0-9.5-1.9-3.1-2.2-3.2-5.4-2.3-2.9.9-3.8.7-7.5-1.8-3.7-2.4-4.5-2.6-6.4-1.5-1.8 1.2-2.2 1.1-3.4-.5-.7-1-1.3-2.3-1.3-2.8 0-.6-.5-.3-1.1.7-.6.9-1.4 1.5-1.9 1.2-.5-.3-1.1-.1-1.5.5-.3.5-1.1 1-1.6 1-.6 0-.8-.4-.5-.8.3-.5-.4-1.6-1.5-2.5-1-.9-2-1.3-2-.9zm-3.9 49.2c0 .5-.2 1-.4 1-.3 0-.8-.5-1.1-1-.3-.6-.1-1 .4-1 .6 0 1.1.4 1.1 1zM406.6 222.96c.3 1 .9 1.5 1.2 1.2.3-.3 0-1.1-.7-1.8-1-.9-1.1-.8-.5.6zM415.5 225.66c.3.5 1 1 1.6 1 .5 0 .9-.5.9-1 0-.6-.7-1-1.6-1-.8 0-1.2.4-.9 1zM123 241.16c-1 1.2-1 1.5.4 1.5.9 0 1.6-.7 1.6-1.5s-.2-1.5-.4-1.5-.9.7-1.6 1.5zM62.7 249.16c.3.8.9 1.2 1.4.9 1.2-.7 1.1-1.1-.5-1.7-1-.4-1.3-.1-.9.8zM52.6 252.16c-.7 2 5.8 8.7 7.2 7.3.6-.6.8-1.7.5-2.4-.3-.8 0-1.4.7-1.4.6 0-.2-1.1-1.8-2.5-3.4-2.8-5.7-3.2-6.6-1z"/><path d="M397 264.16c0 .8.7 1.5 1.5 1.5s1.5.5 1.5 1.1c0 .8.5.7 1.6-.2 1.4-1.2 1.4-1.4-.2-2.6-2.4-1.7-4.4-1.6-4.4.2zM346 267.56c0 1.1-.6 2.2-1.2 2.4-.8.3-.6.6.5.6 1.2.1 1.7-.7 1.7-2.4 0-1.4-.2-2.5-.5-2.5s-.5.9-.5 1.9zM347.5 275.66c.3.5.8 1 1.1 1 .2 0 .4-.5.4-1 0-.6-.5-1-1.1-1-.5 0-.7.4-.4 1zM354.9 286.86c.4 1.7 1.2 3.3 2 3.6.9.3 1.1-.2.6-1.8-.6-1.9-.4-2.1 1.4-1.5 1.5.4 2.1.2 2.1-.9 0-1.9-1.7-3-2.5-1.6-.4.7-1.2.7-2.4 0-1.6-.8-1.8-.6-1.2 2.2zM363 288.76c0 .6-.4.8-.8.5-.4-.2-1.4-.1-2.1.3-.9.6-.1 1.1 2.3 1.5 3 .6 3.6 1.1 3.6 3.1 0 1.8.5 2.5 1.9 2.5 1.7 0 1.8-.4 1.1-3.1-.5-1.8-.7-3.7-.3-4.3.3-.6.3-.8-.1-.4-.5.4-1.9.3-3.2-.2-1.6-.6-2.4-.6-2.4.1zM353.5 298.06l-2.9 2.3 2.2 1.2c1.2.6 2.2 1.7 2.2 2.4s1.3 2.1 2.9 3.2c2.4 1.5 2.8 2.3 2 3.7-1.4 2.5-.4 3.6 2.6 3.1 1.3-.3 2.3-.9 2-1.3-.3-.5.4-1.1 1.5-1.5 1.1-.4 1.7-1.1 1.4-1.7-.4-.6-.7-2.6-.6-4.4.1-3-.2-3.4-4.4-5-2.4-.9-4.8-2.3-5.2-3-.6-1-1.4-.8-3.7 1zM378.5 314.66c-.4.6-1.5.8-2.6.5-1.4-.5-1.9-.2-1.9 1s-.5 1.5-1.7 1c-1.1-.4-.7.5 1.1 2.4 3.2 3.4 4.9 4 3.9 1.5-.4-1.2 0-1.4 2-.9 2.3.6 2.5.4 2.4-2.9-.1-3.5-1.8-4.8-3.2-2.6zM365.7 315.76c.7.7 1.5 1 1.8.7.3-.3-.2-.9-1.2-1.2-1.4-.6-1.5-.5-.6.5zM396.6 321.56c-1.7.7-1.7.8-.2 2.4 2.3 2.2 3.6 2.1 3.6-.2 0-2.4-1-3-3.4-2.2zM377.6 327.56c-1.5 2.7-1.4 2.9.7 3.6 1.2.4 2.8.8 3.6.9.8.1 1.7 1 2.1 2.1.6 1.8.7 1.8 1.2-.3.4-1.4 1.4-2.2 2.7-2.2 2 0 4-2.5 2.9-3.5-.3-.3-2.3-.6-4.6-.7-2.4-.1-4.3-.7-4.6-1.5-.9-2.1-2.4-1.5-4 1.6zM425.6 338.56c-.3.5.1 1.1.9 1.5.8.3 1.5.1 1.5-.4 0-1.3-1.8-2.2-2.4-1.1zM289.8 395.36c.7.3 1.6.2 1.9-.1.4-.3-.2-.6-1.3-.5-1.1 0-1.4.3-.6.6zM279.6 399.26c-.4.9-.4 1.9-.2 2.1.8.8 2.6-.8 2.6-2.3 0-1.9-1.6-1.8-2.4.2zM328.5 406.66c.3.5 1.1 1 1.6 1 .6 0 .7-.5.4-1-.3-.6-1.1-1-1.6-1-.6 0-.7.4-.4 1zM332 407.76c0 .4.7.9 1.5 1.3.9.3 1.5 0 1.5-.8 0-.7-.7-1.3-1.5-1.3s-1.5.4-1.5.8zM9.4 426.96c-1.6 1.9-2.5 6.5-1.4 7.2 1.3.8.8 3.9-1 5.9-.9 1.2-2.2 1.5-4.2 1.1-1.5-.4-2.8-.5-2.8-.3 0 2.7 4.5 11.5 7.8 15.4 2.3 2.7 4.2 5.9 4.2 7.1 0 1.3 1.4 3.2 3.5 4.9 1.9 1.4 3.5 3.1 3.5 3.6 0 .6.6 2.4 1.4 4.1 2.3 5.1 2.4 6.1.7 7.4-1.3.9-1.4 1.6-.4 3 .6 1 1.6 1.7 2.2 1.6.6-.2 1.3.8 1.7 2.2.5 2 1.1 2.4 2.6 1.9 1.8-.5 1.8-.4.8 1.6-.8 1.5-.8 2.5-.1 3.4.8 1 .2 1.3-3.1 1.4-2.3.1-4.5.7-4.9 1.3-.4.6-.8.3-1.2-1-.3-1.4-1-1.8-2.6-1.4-1.2.3-2.1 1.2-2.1 1.9 0 .8-.3 1.3-.7 1.3-1.9-.3-2.3.2-1.4 1.9 1.3 2.4-.9 10.1-2.6 9.5-1.6-.6-6.4 2.7-5.7 3.8.3.5 1.7.7 3.1.4 1.8-.3 3.5.3 5.5 2 3.3 2.8 4.5 3 7.1 1.1 1.3-1 1.5-1.5.5-1.9-.9-.3-.7-.7.6-1.2 1.1-.5 2.1-.3 2.7.6 1.2 1.9 1.1 4.2-.1 3.4-1.6-1-1.1.8.8 3.1 2.8 3.3 4.6 2.5 8.3-3.7 1.9-3.2 4.5-6.3 5.8-6.9 2-.9 2.3-1.6 1.8-4.5-.5-3.3-.4-3.4 1.4-2.4 2 1 3.3.6 13.6-4.3 1.2-.6 2.4-2.1 2.7-3.4.6-2.2.8-2.2 3.9-1 1.7.7 3.8 1.1 4.5.9.7-.3 1.9 0 2.6.7 1.1.9 1.6.7 2.1-.9.3-1.2.3-2.5 0-3.1-.3-.5-.1-1 .4-1 .6 0 1.1.4 1.1.9s2.7.9 6 .8c4-.1 6-.6 6-1.5 0-.6.9-1.2 2-1.2 2.6 0 2.5-.8-.4-3.5-2.6-2.4-3.6-2.3-3.6.6 0 1.5-.6 1.7-3.2 1.2-1.8-.3-3.7-.9-4.3-1.3-.5-.4-2.3-1-4-1.2-1.6-.3-3.8-.9-4.8-1.3-1.3-.5-1.6-.3-1.2.8.8 1.9-2.1 3-4.6 1.7-1.3-.8-2.6-.7-4.1.1-1.3.7-3.8 1.2-5.6 1-2.1-.1-3.4.4-3.8 1.4-.3.8-1.4 1.5-2.4 1.5s-2.3.7-3 1.5c-.7.9-2 1.3-2.8 1-1.2-.4-1.3-.3-.2 1 1.7 2.1.4 3.2-2 1.7-1.1-.6-2.5-.9-3.2-.7-1.9.7-5.6-2.2-4.2-3.2 2.3-1.6 3.5-5.4 2.8-8.9-.4-2.2-.2-4.5.6-5.9 1-1.9 1-2.8.1-3.8-.9-1.2-.8-1.6.5-2.1 2.3-.9 3.6-.7 2.9.4-.3.5.3 1 1.4 1 1.2 0 2.1-.7 2.1-1.5s.6-1.2 1.3-.9c.7.2 2.4-.4 3.7-1.6 1.3-1.1 2.7-2 3.1-2 .5 0 .4-1.2-.2-2.7-.7-1.9-.6-2.8.2-3.4.7-.4.9-1.7.5-3.2-.4-1.9 0-3.1 1.6-4.7 1.2-1.1 1.6-2 .9-2-.7 0-2.7-1.6-4.5-3.5-2.2-2.3-3.9-3.3-5-2.9-.9.3-1.6.1-1.6-.6 0-.6-.4-.9-.9-.6-.5.3-2-2.1-3.5-5.4-1.9-4.6-3.5-6.6-6.3-8.3-2.1-1.2-4.2-2.1-4.7-1.9-.4.1-1.4-.3-2.2-.9-1.2-1-1.3-.9-.8.5.9 2.3-.2 2-5.3-1.4s-4.5-3.3-5.9-1.7zm14 5.6c.3.5-.3 1.1-1.4 1.4-2 .5-2.6-.3-1.3-1.6.9-1 2.1-.9 2.7.2zm11.2 74.8c-.4.4-1.1.1-1.6-.7-1.6-2.5-1.1-3.5.7-1.7.9.9 1.3 2 .9 2.4z"/><path d="M50 463.76c0 1 .2 1.9.4 1.9s1.1.3 2 .6c1.1.4 1.6 0 1.6-1.4 0-1.1-.8-2.2-2-2.5-1.5-.4-2 0-2 1.4zM111.1 468.26c0 1.1.3 1.4.6.6.3-.7.2-1.6-.1-1.9-.3-.4-.6.2-.5 1.3zM105.5 474.66c-.3.5.1 1.3 1 1.6 2.2.9 2.9-.1 1.1-1.5-1-.8-1.6-.9-2.1-.1zM174.8 476.36c-.2 1.7-1.2 3.2-2.5 3.8-3 1.3-2.9 4.6.1 8.2 1.2 1.5 2.1 3.4 1.8 4.1-.2.7.3 1.9 1.3 2.5 1.7 1.3 2.3 3.3 2.4 7.9.1 2.1.5 2.5 2.1 2.1 1.1-.3 2.1-.8 2.1-1.2.6-2.8.6-5.8-.1-6.6-.4-.6-1-2.7-1.2-4.8-.3-2.7 0-3.7 1-3.7.7 0 2.7-1.4 4.4-3 1.6-1.7 3.4-2.8 3.9-2.4.5.3.9 0 .9-.6s.4-.9.9-.6c1.4.9 0-4.8-1.7-6.6-1.1-1.3-1.8-1.5-2.8-.7-.7.6-1.8.7-2.5.3-.6-.4-3.1-.9-5.5-1.1-4-.3-4.3-.1-4.6 2.4zM192 474.66c0 .5.5 1 1.1 1 .5 0 .7-.5.4-1-.3-.6-.8-1-1.1-1-.2 0-.4.4-.4 1z"/><path d="M221.1 490.96c-.9 2.2-1.4 2.4-5.9 1.9-3.6-.3-5.7 0-7.3 1.1-1.7 1.2-2.7 1.4-4.2.5-1.6-.8-1.9-.8-1.4.4.3.9-1 2.9-3.2 5-2 1.9-3.6 3.9-3.4 4.5.4 1.2-3.9 2.5-5.9 1.8-1-.4-1.8 1-2.7 4.7-.7 2.9-1.3 6.4-1.3 7.8-.1 2-.6 2.5-2.9 2.5-1.5 0-3.1-.3-3.5-.7-.4-.4-1.4.6-2.3 2.3-1.5 3-4.1 4.9-8.6 6.4-1.8.7-1.8.8.8 1.7 3.5 1.3 3.5 3 0 2.2-3.3-.9-5.1-2.5-4.6-4 .2-.6-.7-1.4-2.1-1.6-2-.4-2.7 0-3.3 1.8-.7 2.1-1 2.1-3.8.9l-3-1.3 2.8-1.1c1.5-.6 2.7-1.5 2.7-2.1 0-1.5 2.5-1.2 6.5.7 3.1 1.5 3.7 1.5 4.5.3.6-.9.5-1.9 0-2.4-1.6-1.6-1.2-2.3 1.5-3 1.5-.4 2.2-1.1 1.9-2-.3-.7.4-2.8 1.4-4.7 3.3-5.7 3.7-7.9 1.3-7.9-1.1 0-2.3-.5-2.6-1-1.4-2.3-3.3-.7-4.4 3.5-.6 2.5-1.6 4.5-2.1 4.5-.6 0-1.5 1.1-2.2 2.5-.6 1.3-1.4 2.2-1.9 2-.4-.3-1.1.4-1.4 1.6-.6 1.9-.8 1.9-2.4.5-1-.9-2.6-1.3-3.8-1-1.7.5-2.7-.3-4.9-3.5-2.7-4.2-3.8-4.9-4.9-3.1-.4.6-1.5.8-2.5.5-1-.3-2.1-.1-2.5.5-.3.5-1.4 1-2.3 1-1 0-2.3.9-3 2-.7 1.2-1.7 1.8-2.2 1.5-.6-.3-1-.1-1 .5s-.4.8-1 .5c-.6-.3-1 .5-1 1.9 0 2.8-3.4 5.1-9 6.1-1.7.3-3.7.7-4.3.8-.6.1-1.6 1.5-2.2 3.2-.9 2.6-.8 3.2 1 4.2 1.8 1.1 1.8 1.2.2 1.3-2.1 0-2 3.4.1 3.6.6.1 1.7.2 2.2.3.6 0 1 .6 1 1.1 0 .6-.8 1-1.7.8-1.3-.2-1.7.3-1.6 2 .2 1.4-.1 2.1-.7 1.7-1.9-1.2-3.7 1.4-3.5 5.1.2 2.8.9 4 3.4 5.5 2.1 1.3 3.1 2.6 3.1 4.3 0 1.4.5 2.8 1 3.1.6.4.8 1.5.5 2.4-.5 1.6 0 1.8 3.7 1.6 2.4-.1 3.7 0 3.1.2-1.8.6-1.6 2.8.2 4.3.9.7 1.4 1.9 1.1 2.6-.3.8.5 2 1.6 2.9 1.3.8 2.3 2.7 2.4 4.5.2 3.7 4.6 8.5 6.9 7.6 2.2-.8 3.5-4.8 2.1-6.5-.9-1.2-.4-1.3 3.1-.9 2.6.4 4.3.2 4.6-.5.2-.6 1.1.9 2.1 3.2 1.6 4.2 1.6 4.4-.2 6.5-1.6 1.6-1.8 2.6-1 4.6.7 1.9.5 2.7-.6 3.6-1.2.9-1.4 1.8-.7 4 2.3 7.1 2.3 8.4 0 8.4-1.7 0-2 .4-1.5 2.3.3 1.4-.1 3.2-.8 4.3-.8 1-1.2 3.1-.9 4.5.3 1.6-.1 3-1.1 3.8-.9.8-1.6 1.9-1.6 2.6 0 .7-1.7 2.7-3.7 4.4-3.6 3-3.7 3.2-1.8 4.3 1.1.7 2.9 1.2 4 1.3 1.5 0 2.1.9 2.6 3.7.3 2.3.2 3.9-.5 4.3-.6.2.3.2 2.1-.1 2.8-.5 3.4-.2 4.8 2.5 1.4 2.8 1.4 3.1 0 3.1-2.3 0-1.8 2.5.9 3.9 3.8 2.1 5.1 5.4 3.8 9.8-.6 2.1-1 5.1-.9 6.8.2 2.4-.2 3-1.6 2.8-1.5-.1-1.7.4-1.2 2.5.7 3.1 6.8 9.8 7.3 8.2.5-1.3 3.8 3.3 9.4 13 5.4 9.4 5.3 9 3.4 9-1.2 0-1.6 1-1.6 3.7 0 3.5 0 3.6 2 1.8 1.9-1.8 2-1.7 2 .3 0 1.2.4 2.2.9 2.2s2.4 2.2 4.2 5c3 4.6 4.3 5.5 7.7 5.1.6-.1 1.2.5 1.2 1.4 0 1 1 1.5 3 1.5 1.7 0 3 .4 3 .9s.9.7 2.1.4c1.4-.4 3.1.5 5.8 3.1 2.2 2.1 5.4 4.1 7.5 4.6 3.3.7 3.7.6 4.2-1.5.6-2.3.7-2.3 4.5-1 3.1 1.1 4.1 1.2 4.5.2.5-1.5 10.4-1.9 10.4-.5 0 .6.8.7 1.8.3.9-.4 2.6-.7 3.7-.6 2.7.1 6.5-1.9 6.5-3.5 0-4.6 6.3-1.2 8 4.3 1.9 6.4 3.2 8.4 5 7.8.9-.3 2.5.4 3.5 1.5 2 2.2 6.4 2.7 8.3.8.8-.8 1.5-.9 2.3-.1 1.8 1.8 5.7.3 6.2-2.3.4-2-.4-3-3.9-5.4-2.5-1.8-4.5-2.6-4.9-2-1.1 1.7-2.4 1.1-3.9-1.8-.8-1.5-1.5-2.4-1.6-1.9 0 1-5.3-2.4-6.5-4.3-.9-1.3-1.3-5-1.5-14.5 0-1.6.4-3.1.9-3.3.6-.2.7-1 .4-1.8-.3-.8.3-2.1 1.2-2.8 1.9-1.3 2.1-3.3 1.4-12.8-.3-3.2 0-4.9.9-5.3 1.6-.6 1.5-3-.3-8-.8-2.2-1.9-6.5-2.5-9.6-1.1-5.5-1.1-5.5-4.2-5.1-2.4.4-3.5-.1-4.9-1.9-1-1.3-1.9-3.4-1.9-4.7 0-1.2-.5-2.2-1-2.2-.6 0-1.4-.8-1.7-1.8-.4-.9-1.4-2.3-2.2-2.9-1.3-1-1.4-1.4-.3-2.1 1.2-.8 1.1-1.5-.2-4-.9-1.7-2.6-3.7-3.9-4.3-1.2-.7-2.4-1.5-2.7-2-.9-1.3-10.3-1.4-10.8-.1-1 3-14.2.1-14.2-3.2 0-.7-2.6-2.1-5.7-3.1-7.9-2.4-10.3-3.6-10.3-5.1 0-.6-.9-1.4-2-1.7-1.3-.3-2-1.4-2-3 0-1.4-.7-2.7-1.5-3.1-.8-.3-1.5-1.2-1.5-2 0-1.6 3.2-1.6 4.3.1.5.9 1.5.9 3.9.1 2.5-.9 3.3-.8 4.2.5.7.8 2.4 1.4 3.8 1.4 2.4-.2 2.6-.5 2.1-3.2-.3-1.7-1.4-3.8-2.5-4.8-2-1.7-2-1.7.1-1.7 1.2 0 2-.4 1.7-.9-.3-.5.3-1.1 1.4-1.4 1.3-.3 2.2-1.7 2.6-3.6.4-1.7 1.1-2.8 1.6-2.5.6.4.8-.5.3-2.4-.5-2.3-.2-3.3 1.3-4.4 2.8-1.9 4.8-8.9 3.3-11.6-1.5-2.9-1.4-3.7.4-2.2.8.7 4.2 1.3 7.6 1.4 5.2.1 6.4.5 8.1 2.6 1.1 1.3 3.6 3 5.6 3.8 4.2 1.5 10.3 2.2 9.6 1-.7-1.2 1-1 2.2.2.7.7 1.7.3 3-1.1 1.7-2 1.7-2.2.2-1.6-1.4.5-1.8.1-1.8-1.9 0-2.3.3-2.5 2.3-1.9 6.3 1.9 6.9 1.9 6.5-.6-.2-1.7-.8-2.3-2.2-2.1-2.3.4-8.3-2.7-9.1-4.6-.3-.8-.1-2 .5-2.7.7-.9.7-1.5.1-1.9-.5-.4-.9-1.5-.8-2.6.1-1.5.9-2 2.8-2 1.4 0 3.8-.9 5.3-2.1 1.7-1.4 3.7-2 6.1-1.8 2.5.3 4.1-.3 6-2.1 3-2.9 3.1-3.6.4-4.3-1.7-.5-2-1.2-1.8-5.1.2-2.6-.2-5.1-.9-5.8-.8-.8-.9-.5-.5 1.2.5 1.9.3 2.2-1 1.7-.9-.3-1.7-.2-1.9.3-.2.6-2.6 1.2-5.5 1.5-4.5.6-5.4.4-6.5-1.4-1.4-2.3-5.4-2.8-6.1-.9-.3.8-1.2.3-2.7-1.5-1.8-2.3-2.5-2.6-3.7-1.5-1.3 1-1.9.8-3.4-1.1-1.2-1.4-1.7-3.1-1.4-4.2.4-1 .3-2.4-.1-3.1-.4-.7-.9-2.3-1-3.7-.2-1.4-1.1-3.2-2.1-4.1-4.7-3.9-4.8-4.8-.9-8.4 3-2.9 3.6-4.1 3.6-7.8 0-5.5 1.1-7.2 3.9-6.3 1.5.5 2.1.2 2.1-.9 0-.9.8-1.6 1.8-1.6 1.7 0 1.7-.5.9-6.3l-1-6.2-4.5-.3c-2.6-.2-6.1-1.2-7.9-2.3l-3.3-2.1-.9 2.5zm-100.5 52.4c-1 1-1.9-.5-1-1.8.6-1.1.8-1.1 1.2 0 .2.7.1 1.5-.2 1.8zm74.2-.2c-.3.3-.9-.2-1.2-1.2-.6-1.4-.5-1.5.5-.6.7.7 1 1.5.7 1.8zm31.8 9.1c-.3.9-.6 2-.6 2.5s-.7.9-1.5.9c-1.3 0-1.5-1.7-.6-4.8.1-.1.8-.2 1.7-.2 1.1 0 1.4.5 1 1.6zm29.4 2.4c0 1.3-1.1 1.3-3 0-1.2-.8-1.1-1 .8-1 1.2 0 2.2.4 2.2 1zm-101 27.9c0 .5-.9.7-2 .4-1.1-.3-2-.7-2-.9 0-.2.9-.4 2-.4s2 .4 2 .9zm50 4.6c0 1.8-2.6 2.6-5.2 1.5-2.4-.9-1.1-1.4 2.7-1 1.6.1 1.8-.1.8-1.1-1.8-1.8-1.6-3.4.2-1.9.8.7 1.5 1.8 1.5 2.5zm-39 6.4c0 .5 1.6 1.9 3.6 3.1 3.6 2.3 5.9 6 4.3 7.1-.5.3-1.1 1.9-1.2 3.6-.5 4-1.4 5.3-3.8 5.3-1.1 0-1.7.4-1.4 1 1.3 2.1-1.4.9-4.4-1.9-3.6-3.3-4-5.2-1.1-4.4 3.2.8 2.5-4.5-1-8.7-3.7-4.2-3.7-4.8-.2-5.3 4.9-.7 5.2-.7 5.2.2zm13.2 14.3c-2.1 2.1-3.2-.3-1.4-3l1.7-2.6.3 2.3c.2 1.3-.1 2.8-.6 3.3zm5.6 0c2.4 2.4 1.4 4.7-2.3 5.4-4.4.8-4.8.4-3.5-3.1.7-1.8 1.5-2.5 2.6-2.1.8.3 1.2.2.9-.4-.9-1.4.9-1.2 2.3.2zm12.7 2.8c.3.5.2 1-.4 1-.5 0-1.3-.5-1.6-1-.3-.6-.2-1 .4-1 .5 0 1.3.4 1.6 1z"/><path d="M168.6 608.16c-.3 1-1.2 1.5-2.1 1.1-.8-.3-1.5-.1-1.5.4 0 1.4 4.1 2.3 5.2 1.2.7-.7.7-1.6.1-2.7-.9-1.6-1-1.6-1.7 0zM10 497.06c0 .2.7.7 1.6 1 .8.3 1.2.2.9-.4-.6-1-2.5-1.4-2.5-.6zM179.4 518.16c.5 1.2 1.6 2 2.3 1.8 2-.8 1.6-1.9-1.1-3.1-2.2-1-2.3-.9-1.2 1.3zM108.8 532.46c-.3 1 .1 2.7.8 3.7 1.3 1.7 1.4 1.6 1.4-1.2 0-3.6-1.5-5.2-2.2-2.5zM110.6 540.56c-.3.5.1 1.1.9 1.5.9.3 1.5 0 1.5-.9 0-1.6-1.6-2-2.4-.6zM82.7 571.36c-2.9.8 4.1 4.1 8.1 3.8 4.1-.2 4.7-.9 2.7-2.9-1.6-1.5-6.7-2-10.8-.9zM97.9 572.26c-1 1.3-1 1.7.2 2.5 2 1.3 5.9 1.1 5.9-.3 0-.6 1.2-.1 2.6 1.3l2.6 2.4-.4-2.3c-.2-1.8-1.4-2.8-4.3-3.8-5-1.7-5-1.7-6.6.2zM199.2 624.36c.5 2.4 2.7 2.8 2.5.4-.1-1.2-.7-2.1-1.5-2.1-.7 0-1.2.8-1 1.7zM191.2 625.86c.5 1.5 2.8 1.8 2.9.3 0-.6-.7-1.2-1.7-1.3-1-.3-1.5.1-1.2 1zM195.5 628.66c-.3.5-.1 1 .4 1 .6 0 1.1-.5 1.1-1 0-.6-.2-1-.4-1-.3 0-.8.4-1.1 1zM220.8 741.06c-.4 1.8-.1 2.6.8 2.6 1.6 0 1.8-1.8.5-3.8-.6-1-1-.7-1.3 1.2zM222 747.26c0 1.1-.7 2.7-1.4 3.7-1.2 1.5-1.8 1.6-3.5.7-1.7-.9-2.1-.8-2.1.5 0 .9-.8 1.4-2.2 1.3-3.6-.3-7.7 2.9-7.2 5.5.2 1.2.2 1.6-.2.9-.3-.6-1.3-1.2-2.2-1.2-1.5 0-1.5-.2-.2-1 1-.7 1.1-1 .2-1-.7 0-1.5.7-1.8 1.5-.4.8-1.5 1.5-2.5 1.5-2.5 0-2.5 3.2 0 5.4 1.6 1.5 2.2 1.5 4 .4 1.2-.7 2.1-1.7 2.1-2.1 0-.5.7-.6 1.6-.3 1.2.5 1.5.2 1-1-.6-1.7.4-1.6 4.5 0 2.1.9 4.9-1.8 4.9-4.7 0-1.6.3-1.8 1.2-.9 1.8 1.8 3.6 1.4 4.3-.9.7-2.1.7-2.1 3 .5 2.2 2.6 5.8 3.5 6.9 1.7.3-.5-.7-1.7-2.2-2.7-3.8-2.5-5.2-4-5.2-5.7 0-.8-.7-2-1.5-2.7-1.2-1-1.5-.9-1.5.6z"/></g></svg>