<?xml version="1.0" standalone="no"?>
<!DOCTYPE svg PUBLIC "-//W3C//DTD SVG 20010904//EN"
 "http://www.w3.org/TR/2001/REC-SVG-20010904/DTD/svg10.dtd">
<svg version="1.0" xmlns="http://www.w3.org/2000/svg"
 width="402.424528pt" height="700.166192pt" viewBox="0 0 402.424528 700.166192"
 preserveAspectRatio="xMidYMid meet">
<metadata>
Created by potrace 1.15, written by Peter Selinger 2001-2017
</metadata>
<g transform="translate(-835.575472,1339.436170) scale(0.100000,-0.100000)"
fill="#222222" stroke="none">
<path d="M9153 13393 c-7 -3 -13 -10 -13 -17 0 -6 -13 -17 -29 -23 -23 -8 -29
-15 -24 -32 3 -11 11 -26 19 -32 16 -13 18 -41 5 -54 -5 -6 -11 -26 -13 -45
-3 -30 -7 -35 -30 -38 -16 -2 -28 -8 -28 -13 0 -5 -7 -9 -16 -9 -16 0 -16 -9
-3 -60 3 -10 -7 -16 -31 -20 l-35 -5 30 -23 c26 -21 31 -22 41 -8 10 14 13 14
23 2 7 -8 11 -25 9 -38 -2 -19 -8 -23 -33 -21 -72 6 -67 2 -99 72 -19 42 -19
41 -1 41 18 0 20 16 3 24 -7 4 -3 4 9 2 13 -2 26 0 29 5 3 5 0 9 -5 9 -6 0
-11 7 -11 15 0 8 -5 15 -10 15 -6 0 -8 11 -4 25 4 16 2 25 -6 25 -6 0 -19 7
-28 16 -11 12 -17 13 -20 5 -6 -19 -52 -33 -67 -21 -10 8 -15 8 -20 0 -5 -8
-14 -6 -31 4 -79 51 -80 52 -65 33 18 -23 22 -79 9 -152 -9 -55 -8 -61 11 -76
11 -9 18 -19 15 -22 -3 -3 2 -21 10 -41 8 -20 12 -44 9 -53 -4 -10 1 -21 13
-30 16 -12 17 -16 5 -34 -9 -15 -10 -24 -2 -32 6 -6 11 -20 11 -32 0 -12 5
-26 11 -32 8 -8 8 -13 0 -17 -8 -5 -8 -13 -1 -27 6 -10 10 -25 9 -32 -3 -23
14 -58 25 -54 7 3 20 -1 31 -9 10 -8 26 -14 34 -14 10 0 24 -19 35 -48 11 -26
32 -66 48 -89 32 -47 34 -55 13 -47 -11 4 -15 -1 -15 -17 0 -13 -4 -31 -10
-39 -5 -9 -5 -19 2 -27 7 -9 7 -13 0 -13 -5 0 -13 -11 -16 -25 -4 -14 -13 -25
-21 -25 -8 0 -15 -7 -15 -15 0 -8 4 -15 10 -15 5 0 13 -15 18 -32 7 -28 6 -35
-11 -44 -13 -7 -16 -13 -8 -18 17 -11 13 -25 -15 -51 -22 -20 -24 -26 -13 -44
11 -17 10 -23 -6 -41 -10 -11 -25 -18 -32 -16 -7 3 -13 1 -13 -4 0 -22 -129
-137 -161 -144 -31 -6 -32 -7 -14 -26 13 -15 22 -17 36 -9 11 5 19 14 19 20 0
6 14 1 30 -11 17 -12 30 -30 30 -41 0 -11 7 -20 18 -21 31 -2 37 -4 57 -15 21
-11 26 -13 48 -13 7 0 22 -20 34 -45 l20 -45 -21 -27 c-11 -16 -28 -28 -36
-28 -18 0 -60 -61 -60 -87 0 -10 -7 -21 -15 -24 -8 -4 -15 -15 -15 -25 0 -12
-9 -21 -25 -25 -14 -3 -32 -16 -40 -28 -9 -11 -19 -20 -23 -18 -13 5 -14 -49
0 -65 11 -15 11 -16 -4 -10 -13 5 -18 1 -18 -13 0 -11 -5 -20 -10 -20 -7 0 -7
-6 0 -20 6 -11 17 -20 25 -20 8 0 15 -9 15 -20 0 -11 6 -20 14 -20 19 0 27
-27 21 -73 -4 -26 1 -48 12 -69 17 -28 17 -30 1 -39 -10 -6 -18 -15 -18 -20 0
-6 -10 -19 -21 -28 -19 -15 -20 -22 -12 -47 5 -16 19 -34 30 -39 12 -6 28 -16
36 -23 12 -10 16 -10 20 0 4 10 7 11 18 1 9 -10 10 -13 1 -13 -23 0 -12 -29
21 -54 38 -29 59 -34 51 -11 -4 9 0 15 9 15 23 0 27 65 5 79 -11 7 -18 22 -17
39 0 15 3 21 6 15 2 -7 18 -13 34 -13 19 0 28 4 24 11 -4 5 1 19 11 30 9 10
14 22 11 25 -13 14 43 46 68 40 19 -5 25 -2 25 9 0 9 6 18 14 21 8 3 12 12 10
19 -3 7 2 15 11 17 22 4 45 73 38 110 -4 21 -2 28 10 28 16 0 28 -62 16 -82
-4 -7 0 -18 9 -25 15 -11 15 -12 -4 -13 -29 0 -48 -24 -36 -46 7 -12 3 -34
-14 -76 -25 -63 -23 -84 7 -93 10 -4 19 -14 19 -23 1 -15 2 -15 14 1 10 13 12
27 6 49 -8 26 -7 29 8 23 9 -4 41 -12 71 -18 62 -11 83 3 53 37 -13 14 -14 20
-4 23 22 8 44 63 37 91 -6 26 -6 26 14 8 16 -15 22 -16 26 -5 6 17 1 61 -9 77
-4 7 -4 16 -1 22 3 5 -1 22 -8 37 -11 19 -12 34 -5 54 6 18 6 34 -1 47 -8 15
-7 23 4 32 9 8 13 21 9 36 -4 14 -2 24 5 24 6 0 8 6 5 13 -4 11 8 12 63 4 99
-13 130 -10 145 16 6 13 5 19 -6 23 -8 3 -19 3 -24 0 -12 -7 -92 34 -99 50 -2
7 -12 10 -21 8 -16 -5 -16 -5 -1 8 20 16 19 79 -1 103 -9 11 -10 19 -4 23 6 4
13 15 17 25 12 32 22 23 56 -49 24 -53 27 -58 41 -62 7 -3 10 0 6 7 -5 7 6 11
33 11 34 0 43 4 55 29 13 23 20 28 43 23 15 -2 34 -9 41 -15 14 -11 14 -11 29
25 9 20 9 28 0 32 -8 3 -7 9 6 19 9 8 17 22 17 31 0 9 5 16 11 16 7 0 9 9 6
21 -7 27 1 49 19 49 16 0 14 50 -3 72 -5 7 -15 27 -22 43 -6 17 -28 40 -47 53
-24 15 -34 28 -30 38 3 9 6 24 6 35 0 12 7 19 18 19 15 0 19 8 20 37 1 21 6
39 11 41 18 6 -14 51 -38 54 -17 2 -27 11 -32 30 -4 16 -4 30 0 32 16 10 51
-7 51 -24 0 -13 5 -17 20 -13 16 4 19 2 14 -11 -5 -13 1 -16 31 -16 25 0 35 4
32 13 -2 6 13 32 33 57 35 43 37 49 38 121 1 41 5 86 10 100 6 15 5 32 -1 47
-12 25 12 88 37 98 8 3 12 13 8 26 -3 12 1 26 10 32 24 18 27 52 7 85 -10 17
-16 31 -12 31 4 0 2 5 -5 12 -7 7 -12 22 -12 34 0 13 -5 26 -12 30 -7 4 -8 3
-4 -4 5 -8 -1 -12 -15 -12 -16 0 -20 -5 -16 -20 3 -13 0 -20 -9 -20 -8 0 -14
-7 -14 -15 0 -8 -9 -15 -19 -15 -17 0 -18 -4 -11 -36 7 -31 6 -37 -11 -41 -10
-3 -19 -9 -19 -14 0 -5 -7 -9 -15 -9 -18 0 -38 37 -32 60 8 30 -11 50 -47 50
-25 0 -33 4 -32 16 0 9 -5 19 -12 21 -7 3 -11 -1 -10 -9 4 -19 -70 -13 -96 9
-11 10 -18 14 -14 9 8 -9 -15 -36 -30 -36 -4 0 -19 11 -32 25 -18 19 -27 22
-41 14 -15 -7 -27 -2 -59 27 -31 28 -44 34 -52 26 -18 -18 -45 -14 -51 7 -3
14 -11 18 -24 15 -11 -3 -25 1 -32 10 -10 12 -7 17 19 31 17 9 40 24 50 33 34
31 49 42 57 42 12 1 61 112 56 127 -6 14 -37 16 -68 4 -25 -10 -75 24 -75 51
0 10 -8 26 -18 36 -16 16 -26 50 -33 107 -3 26 -59 57 -86 48z m597 -663 c0
-5 -4 -10 -10 -10 -5 0 -10 5 -10 10 0 6 5 10 10 10 6 0 10 -4 10 -10z m-320
-85 c-7 -9 -15 -13 -17 -11 -7 7 7 26 19 26 6 0 6 -6 -2 -15z m67 -547 c23
-22 33 -88 13 -88 -5 0 -10 6 -10 14 0 8 -16 28 -36 44 -33 28 -35 31 -17 41
24 14 23 14 50 -11z m-247 -338 c0 -5 -4 -10 -10 -10 -5 0 -10 5 -10 10 0 6 5
10 10 10 6 0 10 -4 10 -10z m510 -70 c0 -5 -2 -10 -4 -10 -3 0 -8 5 -11 10 -3
6 -1 10 4 10 6 0 11 -4 11 -10z m-250 -30 c0 -5 -4 -10 -10 -10 -5 0 -10 5
-10 10 0 6 5 10 10 10 6 0 10 -4 10 -10z m-312 -116 c-4 -3 -12 5 -18 18 -12
22 -12 22 6 6 10 -10 15 -20 12 -24z m-18 -50 c0 -2 -7 -4 -15 -4 -8 0 -15 4
-15 10 0 5 7 7 15 4 8 -4 15 -8 15 -10z m-260 -19 c0 -8 -7 -15 -15 -15 -8 0
-15 7 -15 15 0 8 7 15 15 15 8 0 15 -7 15 -15z m260 -118 c0 -4 8 -6 18 -3 9
3 24 1 32 -4 12 -8 12 -10 -3 -16 -9 -3 -17 -12 -17 -20 0 -7 -9 -18 -21 -24
-16 -9 -24 -8 -38 4 -10 9 -21 13 -24 10 -4 -4 -14 -1 -24 7 -11 9 -14 10 -9
2 4 -7 3 -13 -3 -13 -16 0 -31 35 -24 59 3 12 11 20 17 18 47 -18 54 -17 60 5
6 23 7 23 21 4 8 -11 15 -24 15 -29z"/>
<path d="M10000 12930 c0 -5 5 -10 11 -10 5 0 7 5 4 10 -3 6 -8 10 -11 10 -2
0 -4 -4 -4 -10z"/>
<path d="M8596 11819 c3 -5 -13 -9 -36 -9 -29 0 -40 -4 -38 -12 5 -15 50 -22
84 -14 29 8 32 32 4 39 -11 3 -18 1 -14 -4z"/>
<path d="M8485 11790 c4 -6 11 -8 16 -5 14 9 11 15 -7 15 -8 0 -12 -5 -9 -10z"/>
<path d="M9610 11386 c0 -19 -5 -38 -10 -41 -13 -8 -3 -25 16 -25 10 0 13 7 8
25 -3 14 -1 32 6 40 12 15 6 35 -11 35 -5 0 -9 -15 -9 -34z"/>
<path d="M9706 11274 c-9 -24 12 -44 45 -44 33 0 35 7 13 38 -18 26 -49 29
-58 6z"/>
<path d="M9087 10805 c-17 -12 -18 -58 -3 -84 13 -20 -4 -51 -27 -51 -20 0
-20 -1 -4 -17 12 -13 20 -14 28 -6 6 6 18 9 26 6 9 -4 13 0 12 8 -2 8 3 25 10
38 7 13 11 36 8 51 -3 15 -2 31 4 37 16 16 -33 33 -54 18z"/>
<path d="M8921 10728 c0 -9 -10 -20 -21 -23 -20 -6 -28 -35 -10 -35 6 0 10 8
10 17 0 14 3 13 16 -5 8 -12 20 -20 25 -16 6 4 7 10 0 17 -5 7 -11 23 -14 37
-2 14 -5 17 -6 8z"/>
<path d="M8972 10691 c2 -18 12 -27 33 -32 28 -8 29 -7 10 7 -11 8 -26 22 -33
32 -12 15 -13 15 -10 -7z"/>
<path d="M8390 10660 c0 -22 -3 -40 -8 -40 -16 0 -34 -42 -23 -53 8 -8 11 -7
11 2 0 7 8 11 18 10 30 -3 43 1 37 10 -3 6 3 14 12 20 16 9 16 10 2 16 -10 4
-15 14 -12 28 3 14 -3 26 -16 35 -20 11 -21 10 -21 -28z"/>
<path d="M8922 10649 c-13 -5 -20 -13 -17 -19 3 -5 2 -10 -4 -10 -5 0 -11 5
-13 12 -2 6 -9 8 -16 4 -9 -5 -9 -12 0 -29 6 -12 14 -29 18 -37 4 -8 20 -15
36 -16 16 0 43 -4 59 -9 l30 -8 -22 22 c-12 11 -27 21 -33 21 -13 0 -13 27 0
35 14 9 12 32 -2 38 -7 2 -23 1 -36 -4z"/>
<path d="M9010 10613 c0 -5 9 -18 20 -28 11 -10 20 -14 20 -8 0 5 -9 18 -20
28 -11 10 -20 14 -20 8z"/>
<path d="M9077 10573 c-20 -16 -36 -32 -37 -36 0 -4 13 -16 30 -25 22 -12 30
-24 30 -44 0 -31 37 -61 68 -56 21 3 52 -18 52 -36 0 -7 11 -23 24 -35 16 -15
27 -39 31 -72 7 -50 25 -66 58 -54 10 4 17 -1 22 -14 8 -27 32 -51 50 -51 21
0 0 46 -41 90 -38 42 -53 94 -29 104 12 4 14 10 6 25 -6 10 -7 21 -4 25 4 4 8
26 10 50 4 38 1 45 -18 51 -13 4 -24 2 -29 -5 -5 -9 -9 -9 -14 -1 -4 6 -16 11
-26 11 -10 0 -20 6 -22 13 -3 6 -14 13 -26 13 -12 1 -28 2 -35 3 -7 0 -21 17
-31 36 -11 19 -22 35 -26 35 -4 0 -23 -12 -43 -27z"/>
<path d="M8543 10570 c13 -9 15 -15 8 -24 -8 -10 -1 -17 29 -31 22 -10 40 -23
40 -30 0 -14 42 -55 56 -55 6 0 20 -11 33 -24 22 -23 71 -26 71 -4 0 6 6 5 15
-2 8 -7 21 -10 30 -6 9 3 19 -3 25 -14 6 -11 15 -20 21 -20 6 0 18 -7 26 -16
20 -20 40 -3 48 41 5 23 2 33 -14 43 -18 10 -21 10 -21 -5 0 -15 -2 -14 -15 3
-14 18 -16 18 -29 2 -19 -25 -25 -23 -43 19 -10 26 -12 38 -4 41 6 2 11 7 11
12 0 10 -40 1 -59 -14 -16 -13 -44 20 -36 44 7 23 -51 56 -71 40 -13 -12 -52
-10 -114 5 -22 6 -23 5 -7 -5z"/>
<path d="M9030 10511 c0 -5 7 -12 16 -15 14 -5 15 -4 4 9 -14 17 -20 19 -20 6z"/>
<path d="M8977 10490 c-3 -13 0 -20 9 -20 8 0 14 9 14 20 0 11 -4 20 -9 20 -5
0 -11 -9 -14 -20z"/>
<path d="M9061 10458 c0 -9 3 -19 9 -23 5 -3 7 -11 4 -18 -2 -8 3 -13 14 -13
16 0 18 3 8 18 -6 10 -14 18 -18 18 -3 0 -9 8 -11 18 -4 15 -5 15 -6 0z"/>
<path d="M8910 10314 c0 -6 7 -17 15 -24 10 -8 12 -17 6 -24 -5 -6 -7 -28 -4
-49 4 -29 1 -37 -11 -37 -20 0 -20 -14 0 -30 8 -8 22 -29 29 -47 8 -19 25 -43
37 -53 13 -11 17 -19 11 -20 -7 0 -13 -4 -13 -9 0 -14 30 -42 40 -36 4 3 11
-2 14 -10 3 -9 0 -18 -7 -21 -14 -5 -16 -42 -4 -61 5 -7 17 -13 28 -13 10 0
19 -5 19 -11 0 -6 -7 -9 -15 -5 -28 10 -77 -58 -68 -93 4 -15 1 -21 -11 -21
-19 0 -20 -4 -3 -31 9 -16 9 -23 1 -26 -9 -3 -9 -12 -1 -34 6 -16 17 -27 23
-25 6 2 29 1 50 -4 45 -10 74 8 74 47 0 19 5 23 30 23 21 0 28 4 24 14 -4 11
0 13 15 9 15 -4 21 -1 21 11 0 19 23 20 70 3 66 -24 81 -36 75 -60 -5 -17 -4
-19 4 -7 9 13 12 12 24 -4 11 -15 26 -19 70 -19 32 0 57 -4 57 -8 0 -5 5 -9
10 -9 6 0 10 9 10 20 0 14 -6 19 -22 17 -20 -2 -22 2 -20 33 2 20 -2 49 -8 65
-8 21 -8 31 -1 33 6 2 8 8 5 13 -3 6 1 21 10 34 17 25 12 33 -26 40 -12 3 -24
8 -27 12 -3 5 -19 15 -35 23 -20 10 -33 27 -39 50 -12 48 -24 60 -61 60 -18 0
-49 9 -71 20 -22 11 -43 20 -48 20 -9 0 -57 46 -57 55 0 2 10 1 23 -2 21 -5
21 -4 -3 16 -14 11 -28 21 -32 21 -5 0 -8 6 -8 13 0 21 -74 57 -118 57 -23 0
-44 5 -47 10 -3 6 -1 10 4 10 6 0 11 4 11 9 0 14 -49 68 -50 55z"/>
<path d="M9780 10308 c0 -7 7 -32 15 -55 8 -23 12 -55 9 -71 -5 -23 -1 -33 16
-45 17 -12 20 -19 11 -34 -7 -15 -6 -25 5 -41 8 -12 11 -22 5 -22 -5 0 -6 -11
-2 -27 5 -17 14 -26 22 -24 8 3 35 7 61 9 27 2 46 8 43 12 -3 5 -1 11 4 15 11
6 3 36 -13 47 -6 4 -21 8 -33 8 -19 0 -23 6 -23 29 0 16 5 31 10 33 7 2 7 14
-1 37 -10 29 -10 36 5 46 14 11 10 15 -29 30 -25 9 -59 28 -75 42 -19 16 -30
20 -30 11z"/>
<path d="M9765 10190 c4 -6 11 -8 16 -5 14 9 11 15 -7 15 -8 0 -12 -5 -9 -10z"/>
<path d="M9640 10171 c0 -8 -8 -23 -17 -33 -14 -16 -15 -23 -5 -38 18 -29 15
-32 -19 -25 -28 6 -30 5 -21 -12 9 -16 6 -18 -24 -17 -18 1 -39 6 -46 12 -8 7
-19 7 -28 2 -8 -5 -27 -6 -42 -3 -37 7 -36 -10 2 -24 19 -7 30 -18 30 -31 0
-21 18 -32 51 -32 11 0 23 -8 26 -17 9 -25 42 -46 71 -48 13 0 31 -11 40 -23
10 -12 32 -30 51 -40 34 -17 50 -48 65 -123 3 -17 24 -58 46 -91 27 -38 39
-66 35 -78 -3 -10 1 -25 10 -34 9 -9 14 -20 11 -25 -4 -5 6 -19 21 -31 37 -29
44 -50 27 -78 -8 -12 -12 -27 -9 -31 3 -5 -6 -18 -20 -29 -32 -25 -32 -40 0
-52 14 -5 25 -15 25 -21 0 -6 -7 -9 -15 -5 -17 6 -19 -7 -16 -100 2 -52 0 -62
-16 -68 -33 -12 -88 -46 -75 -46 17 0 15 -49 -3 -57 -9 -3 -25 3 -36 13 -18
16 -19 16 -13 1 3 -9 10 -17 16 -17 5 0 7 -4 4 -9 -3 -5 1 -12 10 -15 8 -3 13
-10 10 -14 -3 -5 10 -24 29 -42 19 -19 35 -39 35 -45 0 -6 30 -17 67 -24 64
-12 69 -11 84 8 18 22 66 30 53 9 -5 -8 -2 -9 10 -5 10 4 20 7 22 7 13 0 1 42
-16 52 -28 18 -26 41 2 32 13 -4 27 -13 33 -20 8 -11 21 -11 73 0 62 14 63 14
80 -11 9 -14 31 -39 49 -57 23 -23 33 -42 35 -71 3 -37 6 -41 41 -49 30 -8 36
-13 31 -29 -3 -11 1 -26 12 -38 13 -15 17 -34 15 -82 -1 -34 -7 -64 -12 -65
-6 -3 -4 -13 4 -25 8 -12 17 -43 21 -69 6 -41 4 -48 -13 -58 -27 -14 -27 -48
0 -76 21 -22 21 -24 4 -73 -9 -28 -19 -51 -21 -51 -2 0 -13 5 -24 12 -25 16
-35 5 -18 -21 10 -16 10 -23 1 -32 -9 -9 -6 -19 12 -41 14 -16 25 -42 25 -57
0 -28 23 -108 43 -149 8 -16 8 -25 -1 -34 -15 -15 14 -58 39 -58 12 0 19 -7
19 -19 0 -21 57 -75 88 -85 11 -4 22 -17 24 -29 4 -21 1 -22 -36 -21 -23 0
-51 5 -63 10 -12 5 -45 7 -73 6 -41 -3 -50 -7 -48 -20 4 -24 -10 -42 -33 -42
-10 0 -19 -4 -19 -8 0 -12 -103 -31 -115 -22 -6 5 -19 2 -29 -6 -11 -8 -30
-14 -42 -14 -19 0 -24 -7 -30 -45 -5 -38 -10 -45 -29 -45 -13 0 -25 -6 -28
-14 -3 -8 -20 -21 -37 -30 -40 -19 -73 -6 -68 27 2 16 -2 22 -14 21 -10 -1
-18 2 -18 7 0 5 -9 9 -19 9 -11 0 -23 5 -26 11 -4 5 -19 9 -33 8 -46 -3 -62 0
-62 15 0 18 -25 38 -66 52 -28 10 -34 9 -34 -3 0 -7 -7 -24 -16 -38 -15 -22
-16 -23 -43 -7 -26 15 -29 14 -49 -6 -12 -12 -22 -31 -22 -42 0 -13 -7 -20
-20 -20 -20 0 -62 -22 -86 -46 -8 -7 -9 -16 -2 -27 8 -15 4 -17 -26 -17 -37 0
-42 -8 -49 -70 -1 -14 -11 -33 -22 -43 -11 -10 -15 -17 -10 -14 6 2 21 -6 35
-19 21 -21 22 -24 6 -24 -10 0 -32 12 -49 26 -25 21 -32 23 -37 11 -3 -9 -12
-12 -25 -7 -21 7 -75 -9 -75 -23 0 -4 4 -6 9 -2 15 9 40 -23 34 -45 -4 -15 -2
-19 9 -15 8 3 21 -1 28 -10 10 -12 16 -13 27 -4 17 15 45 -9 63 -51 8 -19 25
-33 57 -45 30 -12 52 -28 65 -51 11 -18 35 -43 54 -55 19 -11 37 -32 40 -45 3
-13 17 -33 30 -43 12 -10 26 -30 30 -45 4 -17 15 -28 33 -33 33 -8 71 -32 71
-45 0 -6 14 -23 30 -38 19 -18 30 -23 30 -14 0 8 9 14 19 14 11 0 26 3 34 6 8
3 17 -2 21 -13 14 -43 79 -106 139 -136 34 -17 68 -37 76 -45 7 -7 20 -11 27
-8 7 3 16 1 19 -5 4 -5 10 -7 15 -4 5 3 12 -1 17 -9 5 -9 28 -17 53 -19 25 -2
53 -8 63 -12 10 -4 17 -3 17 4 0 6 9 11 20 11 13 0 20 7 20 20 0 12 11 42 25
68 14 26 25 41 25 35 0 -7 12 -1 26 12 20 19 23 28 16 42 -8 14 -4 21 20 36
19 12 28 23 24 33 -3 9 -1 24 5 35 6 11 11 33 11 50 1 16 6 29 12 29 6 1 29
16 50 35 33 28 38 36 27 48 -10 13 -7 17 23 28 29 10 33 16 25 30 -11 22 -11
29 -1 29 5 0 16 -16 25 -35 15 -31 19 -34 48 -28 28 5 31 4 25 -14 -4 -13 -1
-27 10 -37 9 -10 14 -20 10 -23 -3 -3 0 -11 8 -17 17 -14 29 -73 16 -81 -6 -4
-24 3 -40 15 -25 18 -34 20 -46 10 -12 -11 -13 -10 -8 4 3 9 2 16 -2 17 -5 0
-20 2 -32 3 -28 3 -38 -15 -23 -42 7 -13 7 -22 -1 -30 -8 -8 -8 -15 2 -27 10
-12 10 -15 0 -15 -8 0 -10 -3 -7 -6 4 -4 13 -1 22 6 19 16 29 7 31 -28 1 -15
2 -35 3 -44 0 -10 6 -18 12 -18 6 0 8 8 4 19 -4 15 1 19 32 24 22 4 39 2 41
-3 2 -6 11 -18 20 -26 13 -14 17 -14 26 -2 6 7 19 12 29 10 13 -3 18 1 16 15
-2 10 0 23 3 29 5 7 -3 9 -23 6 -35 -5 -42 22 -8 31 13 4 18 10 14 18 -6 9 0
10 19 7 18 -4 29 -1 33 8 3 8 9 11 14 8 5 -3 9 4 9 15 0 12 6 21 14 21 20 0
29 34 21 77 -6 33 -5 35 14 30 18 -4 22 1 27 34 4 21 10 39 14 39 14 0 17 61
4 78 -19 24 -17 32 5 32 14 0 24 13 36 50 17 51 14 66 -16 87 -10 8 -15 21
-12 32 5 19 -21 36 -39 25 -5 -3 -9 0 -7 7 1 8 1 29 0 47 l-1 32 -37 -15 c-20
-9 -43 -13 -50 -11 -7 3 -17 -2 -22 -11 -16 -29 -100 -33 -166 -8 -11 4 -32
19 -48 33 -26 24 -28 25 -40 8 -13 -17 -14 -17 -30 8 -9 14 -17 32 -17 41 0 8
-10 19 -23 24 -13 5 -29 16 -36 25 -19 23 -40 20 -47 -7 -4 -19 -10 -23 -31
-19 -25 5 -25 5 -7 20 13 10 15 16 7 19 -15 6 -17 43 -3 43 6 0 10 -5 10 -10
0 -7 6 -7 19 0 26 13 31 13 31 -5 0 -18 12 -19 27 -4 8 8 17 7 32 -3 28 -17
42 2 39 51 -4 45 -28 55 -28 12 0 -28 -2 -31 -25 -25 -13 3 -38 1 -55 -4 -30
-11 -44 0 -15 12 9 3 12 12 8 23 -5 15 -3 16 8 6 20 -20 32 -16 69 21 19 18
40 32 46 29 7 -2 17 5 23 16 7 13 20 20 34 18 31 -3 39 -18 21 -38 -14 -16
-14 -18 5 -28 13 -7 28 -8 45 -1 14 5 26 7 26 4 0 -2 9 0 20 6 17 9 20 8 20
-8 0 -11 7 -25 15 -32 8 -7 15 -17 15 -22 0 -7 -4 -7 -12 0 -16 12 -62 -4 -53
-18 4 -6 12 -9 18 -7 26 9 108 -50 87 -63 -4 -3 -1 -15 9 -26 16 -20 22 -20
85 -12 55 7 77 6 119 -8 29 -10 59 -17 67 -16 10 2 20 -9 26 -25 l10 -28 26
26 c15 15 29 24 32 21 3 -3 6 5 6 17 0 17 4 22 16 17 20 -8 107 81 100 101 -3
6 5 34 16 61 20 46 24 50 62 55 23 3 65 2 94 -2 39 -6 55 -4 63 6 7 7 18 13
26 13 12 0 14 7 10 29 -5 22 0 34 18 51 20 19 22 26 13 43 -9 17 -8 19 7 13
12 -4 22 0 31 13 8 11 24 21 37 23 19 3 22 9 22 52 1 59 -15 69 -52 32 -35
-35 -50 -33 -71 12 -9 20 -21 40 -26 43 -4 4 -3 10 4 14 6 4 9 13 6 20 -3 8 2
11 15 8 11 -3 21 1 25 11 3 9 12 16 20 16 8 0 14 7 14 15 0 8 9 15 19 15 11 0
23 9 26 20 4 11 15 20 26 20 24 0 69 28 69 44 0 6 4 17 9 25 8 13 12 13 27 0
15 -13 16 -11 12 24 -4 40 2 46 22 22 14 -17 66 -20 75 -5 3 6 17 10 31 10 17
0 27 8 34 25 8 21 16 25 53 25 24 0 52 -7 63 -15 10 -8 25 -15 33 -15 11 0 11
4 -2 18 -23 25 -22 29 10 37 29 7 63 40 63 62 0 7 -14 16 -31 20 -19 3 -28 10
-25 18 4 10 -3 11 -26 4 -35 -10 -48 -24 -48 -55 0 -26 -39 -37 -82 -22 -16 6
-52 8 -79 6 -27 -3 -52 -1 -55 4 -7 11 -43 0 -66 -19 -10 -9 -24 -13 -32 -10
-9 4 -19 -1 -24 -10 -6 -10 -12 -12 -16 -5 -4 6 -13 9 -21 6 -13 -5 -39 28
-29 38 7 8 -94 98 -110 98 -20 0 -46 38 -39 57 3 7 -2 22 -11 32 -17 18 -18
18 -57 -7 -21 -14 -39 -32 -39 -40 0 -10 -7 -12 -23 -9 -16 5 -33 -4 -65 -33
-41 -38 -42 -41 -27 -64 15 -23 15 -25 -11 -45 -23 -18 -66 -27 -97 -22 -15 3
-115 -48 -119 -60 -3 -9 -9 -9 -24 -1 -10 6 -13 12 -6 12 6 0 12 7 12 15 0 9
-6 12 -16 8 -9 -3 -21 3 -30 15 l-14 21 -43 -24 c-56 -32 -97 -25 -97 16 0 11
-8 22 -17 26 -28 10 -55 43 -49 59 3 8 -1 17 -9 20 -8 4 -12 10 -9 15 3 6 -2
21 -11 35 -9 13 -13 29 -10 34 3 6 1 10 -4 10 -6 0 -11 -5 -11 -12 0 -6 -11
-1 -24 11 -21 19 -23 27 -14 45 6 11 14 28 19 36 4 10 -3 26 -24 48 -29 30
-30 32 -9 32 24 0 28 10 12 26 -6 6 -11 28 -13 49 -2 46 -29 79 -57 70 -10 -3
-21 -1 -24 4 -4 6 -13 8 -22 4 -9 -3 -28 9 -50 31 -41 42 -57 46 -48 11 7 -30
-6 -32 -31 -5 -10 11 -30 20 -45 20 -25 0 -41 16 -44 42 -1 3 -4 10 -8 14 -5
4 -8 15 -8 25 0 17 -27 29 -67 29 -12 0 -27 8 -33 18 -8 12 -13 13 -16 5 -16
-37 -69 19 -58 60 4 18 -1 30 -23 48 -15 13 -41 40 -56 59 -16 19 -51 58 -78
86 -27 29 -49 58 -49 66 0 7 -9 19 -21 26 -16 10 -27 10 -54 1 -27 -10 -37
-10 -49 0 -21 18 -20 24 8 58 12 15 21 34 19 41 -3 7 -1 12 4 11 13 -3 73 22
73 31 0 15 83 132 97 137 22 9 36 53 22 69 -7 8 -10 16 -8 17 2 2 17 11 32 21
16 10 26 23 24 30 -3 7 13 32 34 56 41 45 45 77 9 67 -11 -3 -20 -1 -20 3 0
12 -40 17 -72 9 -20 -5 -34 -2 -52 12 -13 10 -28 19 -33 19 -6 0 -23 13 -39
30 -36 36 -52 38 -60 5 -8 -32 -56 -35 -77 -5 -14 20 -15 20 -21 -11 -3 -17
-3 -35 0 -41 8 -12 -25 -37 -48 -38 -26 0 -22 13 8 31 24 15 25 17 9 32 -9 10
-20 15 -25 12 -4 -3 -10 2 -14 10 -3 9 0 15 9 15 16 0 16 -1 20 80 2 50 0 58
-28 88 -28 29 -29 32 -10 32 17 0 19 5 15 28 -6 34 -22 45 -42 28 -31 -27 -62
-27 -87 2 -14 16 -23 21 -23 13z m1155 -3321 c3 -5 2 -10 -4 -10 -5 0 -13 5
-16 10 -3 6 -2 10 4 10 5 0 13 -4 16 -10z"/>
<path d="M9847 9955 c-15 -10 -17 -18 -8 -32 10 -17 10 -17 11 3 0 11 5 25 12
32 16 16 7 15 -15 -3z"/>
<path d="M9500 9840 c0 -5 5 -10 10 -10 6 0 10 5 10 10 0 6 -4 10 -10 10 -5 0
-10 -4 -10 -10z"/>
<path d="M10665 8798 c-3 -9 -1 -26 5 -38 9 -17 14 -19 26 -9 12 10 12 13 0
23 -7 6 -16 18 -19 26 -4 13 -6 12 -12 -2z"/>
<path d="M10725 8780 c-3 -5 1 -10 10 -10 9 0 13 5 10 10 -3 6 -8 10 -10 10
-2 0 -7 -4 -10 -10z"/>
<path d="M10870 8617 c0 -11 -9 -21 -21 -24 -14 -4 -17 -8 -8 -13 9 -6 6 -16
-10 -39 -21 -29 -21 -32 -6 -58 l16 -28 -5 33 c-3 17 -1 32 4 32 16 0 80 67
80 84 0 9 -4 16 -10 16 -5 0 -10 -5 -10 -12 0 -6 -7 -3 -15 8 -14 18 -14 18
-15 1z"/>
<path d="M10798 8583 c7 -3 16 -2 19 1 4 3 -2 6 -13 5 -11 0 -14 -3 -6 -6z"/>
<path d="M12310 8413 c0 -7 -10 -13 -22 -13 l-22 0 22 -21 c23 -21 21 -39 -4
-39 -20 0 -17 -18 5 -30 39 -20 67 55 36 96 -8 11 -15 14 -15 7z"/>
<path d="M12365 8330 c-3 -5 -1 -10 4 -10 6 0 11 5 11 10 0 6 -2 10 -4 10 -3
0 -8 -4 -11 -10z"/>
<path d="M12247 8189 c-20 -12 -23 -39 -3 -39 19 0 36 23 28 37 -5 8 -13 8
-25 2z"/>
<path d="M10730 7488 c0 -18 18 -34 28 -24 3 4 -2 14 -11 23 -16 16 -17 16
-17 1z"/>
<path d="M9270 7415 c-13 -14 -33 -25 -45 -25 -12 0 -30 -7 -41 -15 -10 -8
-27 -15 -36 -15 -10 0 -18 -5 -18 -11 0 -5 -5 -7 -12 -3 -8 5 -9 2 -5 -9 4
-12 1 -17 -11 -17 -28 0 8 -20 38 -20 19 -1 30 -10 45 -43 12 -24 26 -41 34
-39 7 2 36 4 62 5 40 2 48 5 44 18 -3 10 1 19 10 23 20 7 20 60 0 76 -12 10
-15 10 -15 0 0 -8 -3 -10 -7 -7 -3 4 2 16 12 27 23 25 29 70 10 70 -7 0 -20 2
-27 5 -8 3 -25 -6 -38 -20z"/>
<path d="M9070 7272 c0 -5 -9 -12 -20 -15 -11 -3 -20 -1 -20 4 0 5 -4 9 -10 9
-5 0 -10 -7 -10 -15 0 -8 -6 -12 -13 -9 -14 5 -17 -33 -4 -53 11 -17 44 -16
50 1 3 8 18 16 34 18 24 3 28 8 28 33 0 20 -5 31 -17 33 -10 2 -18 -1 -18 -6z"/>
<path d="M11071 7259 c5 -11 16 -16 24 -13 23 9 18 21 -10 26 -21 4 -23 3 -14
-13z"/>
<path d="M11161 6831 c-7 -5 -10 -14 -7 -20 5 -7 -3 -11 -23 -11 -21 0 -29 -4
-25 -13 3 -10 -5 -12 -33 -9 -21 2 -35 1 -31 -3 4 -5 0 -15 -10 -24 -9 -9 -22
-25 -28 -36 -6 -11 -23 -26 -37 -33 -15 -7 -27 -18 -27 -23 0 -10 62 29 68 42
2 4 11 5 22 2 12 -3 20 2 25 15 6 20 7 20 42 -4 20 -13 39 -21 42 -17 3 5 12
8 19 9 28 2 32 5 32 24 0 17 5 19 24 14 23 -5 24 -3 21 23 -2 15 -4 31 -4 36
-1 4 -8 7 -16 7 -9 0 -18 7 -21 15 -7 17 -13 18 -33 6z"/>
</g>
</svg>
