<svg version="1" xmlns="http://www.w3.org/2000/svg" width="593.369" height="1197.402" viewBox="0 0 445.027 898.051"><g fill="#222"><path d="M253.99 1.162c-.3.8-.1 2.3.5 3.3.9 1.6 1 1.6 1.1-.5 0-1.5.4-2.1 1.1-1.6.7.4 1 .1.7-.6-.6-2-2.7-2.4-3.4-.6zM256.09 7.762c-.4.6-1.5.8-2.6.5-1.1-.4-1.9-.2-1.9.5 0 .6-1.4 1.6-3.1 2.2-2.5.9-3 1.4-2.5 3.4.5 1.7.2 2.4-.9 2.4-.8 0-1.5-.4-1.5-1 0-1.2-5.2 1-6.3 2.7-.4.7-1.8 1.3-2.9 1.3-1.2 0-3.6 1.5-5.3 3.4-4 4.4-7.7 5.4-12.1 3.3-2-1-3.4-1.2-3.4-.6s-.7 1.7-1.5 2.6c-1.4 1.3-1.3 1.7.7 3.3 1.2 1 2.8 1.5 3.5 1.3.7-.3 2 0 2.8.7.9.7 1.8 1 2.2.7.9-1 4.3 1.2 4.3 2.7 0 .8-1 2.1-2.2 3-1.6 1.1-1.9 1.9-1.1 2.2.7.3 2.3 1.4 3.5 2.4 2.2 1.7 2.2 1.9.5 3.7-.9 1.1-1.7 2.9-1.7 4.1 0 1.5-.8 2.4-2.4 2.8-1.5.3-2.6 1.4-2.8 2.7-.3 2-.9 2.2-6.3 2.2-3.3 0-6.7.4-7.6.8-1 .5-2.3.7-3 .6-.8-.1-2.7.6-4.4 1.5l-3 1.8.4 8.4.3 8.4h-4.1c-2.3 0-4.1.3-4.1.8 0 .4 1.5 2.1 3.3 3.7 2.6 2.4 2.9 3 1.5 3.3-1 .2-1.8 1.3-1.8 2.4 0 1.5-.4 1.8-1.7 1.3-1-.4-2.2-.7-2.8-.7-3.6.3-6.8 1.1-7.8 2.1-.6.6-1.9 1.1-2.8 1.1-1.2 0-1.9 1.2-2.4 4.6-.6 4.2-1.7 6.2-5.5 10.2-.8.9-1.3 1.7-1.2 2 .2.2.1.7-.3 1-.4.4-.4-1 0-3.1.6-3.3.5-3.7-1.3-3.7-3.7 0-5.2 1.1-5.2 3.9 0 3.7-2.6 7.1-5.6 7.1-1.3 0-2.3.3-2.2.7.4 1.7-2.3 9.3-3.6 10-.7.4-1.9 3.7-2.6 7.3-1.7 8.3-2.5 9.8-5.5 10.6-1.4.4-2.5 1.3-2.5 2.3 0 .9-.6 2.9-1.2 4.4-1 1.9-1.8 2.5-3.4 2.1-1.2-.3-2.6.1-3.3 1-.8.9-2.6 1.6-4.1 1.6-1.6 0-3 .4-3.2.8-.1.5-2 2-4.1 3.4-4.5 3-7.7 2.7-7.7-.8 0-1.5-1-2.9-3-4.1-1.6-.9-3-2.2-3-2.7 0-.6-.5-.5-1.2.2s-2 1.2-3 1.2c-1.3 0-1.8.8-1.8 2.6 0 1.7-.6 2.8-1.9 3.1-1.2.3-2.1 1.5-2.3 3.1-.3 3-4.3 4.6-9.5 3.8-2.3-.3-3.3-.1-3.3.9 0 .8-.7 1.1-1.9.8-1.2-.3-2 .2-2.4 1.6-.3 1.4-1.3 2.1-3.1 2.1-1.9 0-2.7.6-3.2 2.4-.3 1.3-1.7 3.4-3 4.7-1.3 1.2-2.4 3-2.4 4 0 3.5-8.2 4.6-18.4 2.4-2.6-.5-2.8-.4-1.6 1 .7.8 2.7 1.5 4.6 1.5 1.8 0 3.6.5 3.9 1 .3.6 1.8.7 3.2.4 1.8-.5 2.4-.3 1.9.5-.5.7.3 1.1 2.4 1.1 1.7 0 4.5.8 6.3 1.7 1.8.9 3.6 1.6 4.1 1.5.5-.2 1.8.6 3 1.6 1.1 1.1 3.5 2.7 5.1 3.5 1.7.8 3.7 2.7 4.5 4.1.7 1.4 2.3 2.7 3.4 2.7 1.2.1 2.8.2 3.6.3 2.5.2 4 1.6 4 4 0 1.2.6 2.8 1.3 3.5 1 1.1.9 1.2-.1.6-.8-.4.3 1.5 2.4 4.1 2 2.7 4.3 4.8 5 4.6 1.4-.3 2.7 1.4 3.1 4.3.6 3.9 1.3 4.5 4.9 4.5 3.2 0 3.5-.2 2.4-1.5-2-2.4-.4-3 3.9-1.3 2.5 1 4.4 1.2 5.5.6 1-.6 1.6-.5 1.6.1 0 .5-.6 1.1-1.2 1.4-.7.2.4.9 2.5 1.6 2 .7 3.5 1.6 3.2 2.1-.3.5.3 1.1 1.3 1.4 1.5.5 4.1 4.1 4.7 6.6 0 .3.4 2.1.8 4.1.5 2.3 1.4 3.9 2.6 4.2 1 .2 1.8 1 1.8 1.8s.4 2.7.8 4.3c.7 2.5.5 2.8-.9 2.3-1.1-.5-1.6-.1-1.6 1.3 0 1.1-1.4 3.3-3 5-2.9 2.9-2.9 3.2-1.4 5.5.9 1.4 2.8 3.1 4.3 3.8 1.7.8 3.1 2.7 4.1 5.5 1.4 4 1.7 4.3 4.5 3.9 1.6-.2 3.9.1 5 .7 4.8 2.7 10.5 11.1 10.5 15.6 0 .9 1.3 3.7 2.9 6.1 2.2 3.2 2.7 4.6 1.8 5.2-.9.7-.9 1 0 1.3.8.4.9 1.1.4 2.2-.5.9-1.5 3.6-2.2 5.9-.7 2.4-1.6 4.3-2.1 4.3s-1.3 1.1-1.9 2.4c-1.7 3.7-6.4 4-9.8.5-3.1-3-11.4-5-13.3-3.1-.6.6-2.5.8-4.2.5-2.3-.4-3.6 0-5 1.6-1.3 1.4-2.6 1.9-4.3 1.5-1.8-.5-3.1.2-5.7 3.1-2.2 2.3-3.6 3.3-4.1 2.5-.5-.8-1-.8-2 0-.8.7-1.8.9-2.4.6-.5-.3-1.2.7-1.6 2.4-.4 1.6-1.3 3-2 3-2.1 0-2.8 1.9-1.4 3.6 1 1.3.8 1.9-1.4 4-1.5 1.4-2.7 2.1-2.7 1.7 0-.4-.5 0-1.1.9-.7 1.2-.6 2.4.1 3.8.9 1.7.7 3.5-1 8.5-1.2 3.6-1.9 6.9-1.5 7.4.6 1-1.3 5.1-2.8 6.2-.5.3.1 2.7 1.3 5.1 1.6 3.4 2.6 4.5 3.9 4.1 1.4-.3 1.7.3 1.8 3.2.1 2 1.2 5.9 2.6 8.6 1.3 2.7 2 5.2 1.6 5.5-.5.3-.4 1.5.3 2.7.7 1.2 1.1 2.7 1 3.4-.2.7.6 2.1 1.8 3.3 2.3 2.3 2.8 9.8.8 11.8-.6.6-1.1 3-1 5.3.1 2.3-.2 4.7-.6 5.3-.5.6-1.7 3.7-2.8 7-2 6.1-7.1 11.5-9.5 10-.7-.4-.9-.3-.5.4.9 1.5-1.4 6.2-3.1 6.2-.7 0-1.3.7-1.3 1.5 0 1-1 1.5-3 1.5-1.6 0-3.3.6-3.7 1.3-.4.8-1.6 1.8-2.6 2.4-1.7.9-1.7 1.1.3 3.5 2.4 3.1 2.5 3.8.5 3.8-.8 0-1.5-.4-1.5-.8 0-.5-1.7-2.5-3.7-4.5-2.7-2.8-4.2-3.6-5.7-3.1-1.2.4-2.3 1-2.6 1.3-.3.4-2.6 1.2-5.1 1.7-3.6.8-5.1.8-6.4-.3-1.1-.7-2.3-.9-2.9-.4-.6.5-3.3.6-5.9.1-2.6-.4-5-.3-5.3.1-.7 1.3-6.6-.2-9.5-2.3-1.5-1.2-3.8-1.8-5.4-1.6-2.3.2-3 1-4 4.3-.6 2.2-1 4.6-.7 5.3.2.6-.4 1.5-1.3 1.8-1.4.6-1.3 1 .7 3.2s1.7 3.7-.7 3.3c-.3-.1-1.7 1.1-3.1 2.6-1.7 1.8-2.1 3-1.4 3.7 1.5 1.5 1.2 3-.4 1.7-1.6-1.4-2.8.6-2 3.6.4 1.4-.5 2.4-4 4.1-4.7 2.2-5.3 3.5-4.8 11.2.1 1.8-5.4 8.1-6.3 7.2-.5-.4-.5.5-.2 1.9.4 1.6 0 3.9-.9 5.8-1.8 3.6-1 5.9 1.2 3.6.9-.8 2.1-1.5 2.7-1.5 1.7.1 6.2 4.2 7 6.4.6 1.6.3 1.8-2.3 1.4-2.9-.4-4 .5-2 1.7 1.5.9.1 2.7-1.6 2.1-.8-.3-1.4-.2-1.5.2 0 .4-.2 3.1-.4 6-.4 5.5-1.1 7.5-2.5 6.7-.9-.5 2.3 5.9 3.9 7.8.5.7.8 3.1.6 5.4-.3 3.1 0 4.3 1.2 4.7 1 .4 1.3 1.4 1 2.7-.6 2.2 1.5 4.7 8.2 9.7 1.7 1.3 3.1 3.2 3.1 4.2 0 1.2 1 2 3.2 2.4 3.8.8 6.8 3.3 6.8 5.7 0 .9.6 1.9 1.3 2.2.7.2 1.2 2.1 1.2 4.3 0 3.2.4 4 2.2 4.2 1.2.2 2.9 1.4 3.7 2.8.9 1.3 2.4 2.4 3.2 2.4 1.3 0 1.5.9 1.2 4.6-.3 4.5-.2 4.8 3.5 6.7 2.6 1.3 3.5 2.3 2.8 3-.7.7-.7 1.6 0 3 .8 1.3.8 2.2 0 3-1.4 1.4-1.4 6 0 7.4.6.6 1.2 3.4 1.2 6.3.2 4.3-.2 5.5-2 7-2.7 2.1-2.8 3.5-.9 7.2 1.3 2.4 1.3 3 0 4.2-2.9 2.9.3 13.6 4 13.6.9 0 1.2.9.8 2.5-.3 1.9-1.1 2.5-3.1 2.5-3.2.1-7.5 3.5-6.8 5.4.3.8-.3 2.2-1.4 3.2-1.7 1.5-1.9 2.8-1.6 7.6.2 3.3.9 6.4 1.5 7 .7.7 1.2 2 1.2 2.9 0 1 .9 2.4 1.9 3.1 1.1.8 2.3 2.7 2.7 4.3 1.2 4.7 2.3 5.4 6.6 3.9 3.1-1.1 3.9-1 4.9.2 1.7 2.1 8.7 1.5 7.3-.7-.3-.5.3-1.2 1.2-1.6 2.8-1.1 5.3-4 4.3-5-1.5-1.5 6.4-1 8 .5.8.8 2.2 1.1 3.3.9 1.3-.4 2.6.4 4 2.4 1.7 2.3 2.9 2.9 5.9 2.9 2.1 0 4.1.4 4.4 1 1.1 1.7 3.4-1.3 2.4-3.1-.4-.9-.6-1.9-.2-2.2.3-.4 0-1.3-.7-2.2-1.1-1.3-1-1.4.4-.9.9.3 2.2.1 3-.5.7-.6 1.5-.8 1.9-.5.3.3 1.5-.4 2.6-1.5 1.2-1.2 2.8-2.1 3.6-2.1 2.1 0 1.9-2.9-.4-4.9-1.6-1.4-1.7-2.3-.9-6.6.5-2.8.9-5.8.9-6.8 0-1.9 1.4-2.3 2.4-.7.3.6 1.7.7 3 .4 2.6-.6 4.5 1.4 2.4 2.7-.8.5-2.6.9-4 .9-2.5 0-2.6.2-2.2 3.7.3 2 1.1 4.3 1.8 5 .8.7 1.7 2.2 2 3.3.4 1.1 1 1.8 1.5 1.5 1.4-.9 2.9 2 3.6 7.2.6 4.9.5 5.2-2.1 6.6-1.5.8-2.3 1.7-1.8 2 1.4.9-2.6 9.7-4.3 9.7-2.1 0-2.7 4-1 5.9 2 2.2 2 3.5-.1 6.8-2.7 4.1-2.4 23.5.5 28.3 2 3.1 2 3.6.5 5.2-.8 1-1.9 1.5-2.4 1.2-.4-.2-1.6.7-2.5 2.1-.9 1.3-2.1 2.2-2.6 1.9-.6-.4-.8.2-.6 1.2.3 2 5.8 3.4 5.8 1.5 0-1.6 2.6-1.3 4.4.4.8.8 1.9 1.5 2.4 1.5 1.4 0 2.3 2.8 1.1 3.6-.6.4-.6 1.1.2 2 .9 1.1.8 1.5-.5 2-.9.3-1.3 1-1 1.5.9 1.6-.6 4.7-2.6 5.2-1.7.4-1.6.9 1.7 4.3 2 2.1 4.2 5.3 4.9 7.1.8 1.7 2.2 3.6 3.1 4.2 1 .5 1.8 2 1.8 3.4.2 4.1 3.1 8.9 8.5 14.1 2.8 2.7 4.8 5.1 4.5 5.4-.4.4 2.7 4.8 6 8.3.8.9 1.5 2.3 1.5 3.2 0 .9 1.5 3.2 3.4 5 2.7 2.8 4.4 3.5 9 4.1 4.6.5 5.6.3 5.6-.9 0-.9.6-1.2 1.5-.9 1.1.5 1.3.2.9-1-.4-1-.1-1.6.9-1.6s1.7 1.1 1.9 3.2c.2 2.4.7 3.2 1.8 2.9 5.6-1.5 7.3-1.3 9.1 1 1.6 2.2 1.9 2.3 3.1.8.7-.9 3.1-2 5.3-2.4 5.2-.8 9.5-2.7 9.5-4.1 0-1.8 4.7-.4 7.1 2.2 1.2 1.3 3 2.4 3.9 2.4.9 0 2.2.6 2.9 1.2 1.1 1 1.4 1 1.8 0 .3-.6 1.2-1.2 2.1-1.2.8 0 2.3-.7 3.2-1.5 1.1-1 2.4-1.2 4.5-.6 2.2.6 4 .3 6.6-1 2.8-1.4 4.4-1.6 6.8-.9 1.7.5 4.7.6 6.6.3 2.8-.5 3.5-1 3.5-2.9 0-2.1.5-2.3 6.3-2.6 5.2-.3 6.2-.6 6.1-2.1-.2-2 .5-2.1 3-.2 1.4 1.1 2.2 1.1 3.7.2 1.5-.9 2.3-.9 3.9.1 1.1.6 2.9 1.2 3.9 1.2 1.1 0 2.2.4 2.6 1 .3.5 1.1.7 1.8.4.7-.2 2.6.7 4.2 2 1.8 1.5 4.2 2.6 6 2.6 7.9 0 10.4.3 10.9 1.6.3.8 1.2 1.1 2.1.8.8-.3 1.5-.2 1.5.3 0 1.3 10.7 9.3 12.4 9.3.7 0 2.2-.8 3.3-1.8 1.6-1.3 1.8-2.3 1.2-4.6-.5-1.7-.7-3.1-.6-3.2.1 0 1.4-.4 3-.8 2.1-.5 2.7-.3 2.7.9 0 .9-.7 1.8-1.5 2.1-1.3.5-1.3 1 .1 3.5.8 1.6 1.2 3.4.9 3.9-.3.6.3 1 1.4 1 1.1 0 2.4.7 2.8 1.5 1.3 2.2 5.6.8 5-1.7-.4-1.5-.2-1.8 1.1-1.4 1.3.5 1.2.2-.3-.9-1.1-.9-1.9-2.5-1.7-3.6.2-1.1-.2-2.7-.9-3.6-1.1-1.2-1.1-1.7.2-2.7 2.3-1.7 2.9-4.3 1.3-5.7-.8-.6-1.2-2-.9-3 .4-1.2-.7-3.1-3.7-6.1-4.7-4.7-5.3-6.1-3.2-7.9.8-.6 1.2-1.9.9-2.9-.4-1.1.3-2 1.9-2.8 2.1-1 2.4-1.6 2.1-5.1-.3-2.8.1-4.3 1.1-4.9 1.2-.7 1.2-2-.7-9.8-1.1-4.9-2.7-10.1-3.4-11.7-1.1-2-1.1-2.7-.2-2.8 2.7-.3 3.2-.4 3.5-1.2.5-1.6.1-2.7-1-2.7-.7 0-2.1-.7-3.1-1.5-1.8-1.3-1.8-1.4.2-3.2 2.6-2.2 2.6-3.1.1-5.8-1.1-1.1-2.1-3.4-2.4-5.1-.2-1.6-.7-3.7-1.1-4.7-.4-1-.5-3.1-.2-4.7.5-2-.2-4.5-2.3-8.7-1.6-3.2-3-5.9-3-6.1 0-.1.9-.2 1.9-.2 1.1 0 2.3-.5 2.6-1.1.5-.6 2.7-.9 5.9-.5 5.7.6 7.2 0 7.8-2.9.3-1.5 1.1-2 3.8-2 2.9 0 3.6-.4 3.8-2.3.3-1.6 1.2-2.5 3.3-2.9 1.6-.3 2.9-1 2.9-1.6 0-.6.7-1.8 1.6-2.8 1.2-1.3 1.3-2.2.5-3.6-.5-1.1-1.3-4.4-1.7-7.4-.4-3-1.1-5.9-1.6-6.6-.6-.7-.5-1.4.2-1.8.7-.4.9-1.9.5-3.5s-.2-3.7.3-4.7c.7-1.2.7-2.5 0-3.8-.8-1.4-.8-2 0-2.3 1.7-.5 1.5-3.8-.3-6.6-1.4-2-1.4-2.8.1-7.2 1-2.7 1.8-5.5 2-6.2.2-.6 1.7-1.2 3.3-1.2 2.9 0 6.6-3.4 5.6-5.1-.3-.4.2-2 1-3.5.9-1.9 1.1-3.2.5-3.8-.6-.6-1-1.6-1-2.4 0-.8-.8-2-1.7-2.7-1.5-1.1-1.5-1.3.5-1.9 1.7-.6 2.2-1.5 2.1-3.9 0-1.8-.4-4.1-.9-5.2-.7-1.6-.9-1.3-.9 1.7-.1 2.9-.5 3.8-1.8 3.8-1 0-2.8.3-4 .6-1.7.5-2.3.2-2.3-.9 0-1.9-3.1-3.1-4.1-1.5-.8 1.2-1.9.9-9.1-2.8-1.4-.8-3.3-1.1-4.2-.8-.9.3-1.6.2-1.6-.4 0-.5-.9-1.2-2-1.5-1.2-.3-2 0-2 .8 0 .7-.7 1.6-1.6 1.9-2.4.9-2.7.8-2-1 .4-1-.1-2.5-1-3.5-1.6-1.8-1.5-2 1-4 2.4-1.9 2.7-2.8 2.5-6.7-.2-2.9.1-4.7.9-5 .7-.2 1.2-1.2 1.2-2.3 0-1.2-.5-1.6-1.4-1.3-1.4.5-3-1.1-3.1-3.1-.1-2.4-4.8-8.4-7.3-9.3-3.6-1.2-10.3-5.8-9.5-6.5 1-1.1-2.7-7.6-5.2-9.3-3.6-2.3-3.9-4.3-.7-4.1 2.5.2 2.7-.1 2.7-3.5.1-2-.5-4.5-1.2-5.4-.7-1-1.3-1.3-1.3-.7 0 1.6-5.9 3.4-7.7 2.4-1.7-.9-6.1-.3-6.9 1-.7 1.2-5.1 1.2-5.8 0-.3-.4-2.4-1.1-4.7-1.5-3.8-.6-4-.8-3.4-3.4.4-2 0-3.6-1.3-5.3-2.4-3-3.7-8.6-2.4-10.2.5-.7 1.3-2.7 1.7-4.6.6-2.9.4-3.7-1.6-5.2-2.1-1.6-2.2-2.1-1.1-3.9.9-1.5 1-2.6.2-4-.7-1.4-.7-2 0-2 .5 0 1-.7 1-1.5s-.8-1.5-1.9-1.5c-3.1 0-4.3-2.6-4.5-9.7-.1-6.6-.2-6.9-4.9-11.8-3.9-4.1-4.6-5.5-4.1-7.7.5-2.4-.3-6.7-2.1-11-.6-1.5-.2-1.6 2.7-1.2 2.5.4 4.1-.1 6.7-2 1.9-1.4 4.3-2.6 5.2-2.6 1 0 2-.4 2.4-1 .3-.5 1.1-.7 1.8-.5 4.4 1.3 6.8 1.5 6.2.4-.4-.6-.2-1.5.5-1.9.9-.6.9-1.3.1-2.8-1.7-3.1-1.3-4.4 1.2-4 3.1.4 5.6-2.9 5-6.8-.4-2.3.1-3.8 2.1-6 1.4-1.6 2.6-2.4 2.6-1.7 0 .6.9.9 2.1.6 1.4-.4 1.9-1.1 1.6-2.5-.4-1.3.2-2.2 1.7-2.9 2.7-1.3 3.3-6.2 1.1-9.5-1.4-2.2-1.4-2.7.5-6.4 1.1-2.1 2-4.4 2-5 0-1.8 2.7-4 4.3-3.5.7.3 1.9-.1 2.6-.9 1.1-1.4 1.5-1.4 3.7 0 1.9 1.3 2.9 1.4 6 .4 2.6-.9 3.9-.9 4.7-.1 1.9 1.9 5.8 1.3 6.4-.9.4-1.3 1.4-2 3-2 1.7 0 2.3-.5 2.1-1.8-.2-1.1.4-1.8 2-2 1.9-.3 2.2.1 2.2 2.7 0 2.1-.5 3.1-1.5 3.1-2.3 0-1.9 4.7.5 6 1.6.8 1.9 1.7 1.3 3.8-.3 1.5-1.5 3.3-2.5 4-1.5 1.1-1.7 1.7-.7 2.8.7.8 1.9 1.2 2.7.9.8-.3 2.4.6 3.7 1.9 2.2 2.4 2.2 2.5.4 3.1-1 .4-2.8.3-3.9 0-1.6-.5-2-.2-2 1.5 0 3.1 4.1 9.7 6.7 10.9 1.3.6 2.3 1.8 2.3 2.6 0 .9.6 2.3 1.3 3 2.9 3.3 3.3 4.1 2.9 5.5-.3.8-1.1 1.9-1.7 2.5-.7.5-1.5 2-1.8 3.2-.6 2.6 1.6 3.8 3.3 1.7.7-.8 2.3-1.4 3.6-1.4 1.3 0 2.8-.9 3.4-2 .6-1.1 1.7-2 2.5-2 .9 0 1.2-.6.9-1.5-.5-1.1-.2-1.3 1-.9.9.3 1.6.2 1.6-.3 0-1.4 7.8-4.3 9.6-3.6.8.3 2.1 0 2.9-.7.8-.7 2.2-1 3-.6.9.3 2.7-.1 4-1 1.3-.9 3-1.2 3.6-.8.8.4.9.3.5-.4-1.3-2.1 4-1.3 6.9 1 2.5 1.9 3.2 2 7.1 1 2.5-.7 5.5-1.2 6.9-1.2 1.4 0 2.9-.8 3.5-2 .6-1.1 1.9-2 2.9-2s2.1-.3 2.5-.8c.4-.4 1.8-.7 2.9-.7 1.2 0 2.1-.6 2-1.2-.3-1.5 4.5-1.5 6.4 0 1.7 1.3 3.5-.1 2.8-2.3-.3-.9-.1-3 .5-4.5.9-2.2 1.5-2.6 3.5-2.1s2.5.3 2.5-1.2c0-1.1.8-1.8 2.3-1.9 1.2-.1 2.9-1.1 3.8-2.2.9-1.1 1.9-1.7 2.3-1.4.3.4.6 0 .6-.7 0-.9.5-.8 1.3.5 2.4 3.2 2.9-.1.8-5.2-1.1-2.7-1.9-6.4-1.7-8.3.2-1.9.7-6.8 1.1-10.8.7-6.8.6-7.4-1.5-9.7-1.3-1.4-2.7-2.5-3.2-2.5-1.8 0-12.8-11.9-12.8-13.9 0-1.1-1.2-3.3-2.6-4.8-2.1-2.3-2.5-3.4-2-6.4.5-2.9 0-4.4-2-7.4-1.8-2.7-2.2-4-1.3-4.5.6-.4.9-1.2.5-1.8-.3-.6-.3-1.8 0-2.7.6-1.5.8-1.5 2.4 0 1.4 1.2 2 1.3 2.6.4.4-.8.3-1-.4-.5-.7.4-1.2.1-1.2-.9 0-1.1.5-1.5 1.5-1.1 2.1.8 1.9.1-1.1-2.9-1.9-1.9-2.3-2.9-1.5-3.9.6-.7.8-1.5.5-1.9-.3-.3.4-.8 1.5-1.2 3.8-1.2 5.2-3.3 3.9-6-.6-1.4-1.9-2.5-2.8-2.5-.9 0-2.7-1-3.9-2.2-2-1.8-2.3-2.8-1.8-6.9.3-2.7.2-5.1-.4-5.4-1.6-1-1-2.3 2.5-6.2 3.1-3.5 3.3-4.2 3-9.4-.2-3.4-1.1-7-2.3-9-1.9-3-1.9-3.3-.3-4.5 1.2-.9 1.7-2.7 1.7-5.8 0-4.1.3-4.6 2.6-5.1 2-.5 2.9-1.6 3.8-4.4.6-2.1 1.1-4.8 1.1-6 0-2 4.1-4.7 6.3-4.3 1.1.3.9-.5-1.3-4.8-1.7-3.4-1.8-4-.5-4 2.3 0 1.8-3.8-.7-5.1-1.4-.8-1.8-1.4-1-1.7.6-.2 1.2-1.1 1.2-2 0-.8.6-2.3 1.4-3.1 2.2-2.6.9-9-2-10.1-1.3-.5-2.4-1.3-2.4-1.8s-1.6-1.6-3.5-2.5c-3.9-1.9-4.1-2.4-2-7.3 1.7-4.1.8-7.4-3.2-11.6-2.5-2.7-2.6-2.8-.9-4.7 2.6-2.8 3.7-9 2.7-15-.6-3.7-.4-6.4.5-9.2.8-2.2 1.4-7.6 1.3-12.5-.1-8.3-.2-8.6-3.8-12.8-3.2-3.6-4.1-4.2-6-3.4-1.9.7-2.9.2-5.7-2.8-2.5-2.8-4.2-3.8-6.9-3.9-4.2-.3-5.2-1.1-5.7-4.4-.5-3.5-3.4-5.1-5.1-2.7-1.2 1.7-1.4 1.7-5.2-.1-4.6-2.1-7-4.1-6.1-5 .3-.4-.7-1.2-2.4-1.9-1.6-.7-3-1.9-3-2.7 0-.8-.7-2-1.5-2.7-.8-.7-1.5-2.7-1.5-4.4 0-2.6-.6-3.3-3.8-4.7-7.4-3.2-9.7-3.7-11-2.2-1.1 1.1-1.8 1.1-4.6-.1-1.9-.8-3.8-1-4.2-.6-.5.5-2.5 1.1-4.5 1.5-2.9.5-4.1.2-6.6-1.9-1.7-1.4-3.6-2.6-4.2-2.6-.7 0-1.4-.7-1.8-1.5-.3-.9-2.7-2.7-5.4-4-3.3-1.7-5.2-3.5-6.2-5.7-.8-1.8-2-4.7-2.7-6.3-.8-1.7-1.2-3.6-1.1-4.3.2-1.3-1.1-1.6-2.3-.5-1.4 1.5-7 1.1-8.2-.5-1.1-1.4-1.3-1.4-2.8.1-1 .9-2.6 1.7-3.6 1.7s-2 .4-2.2.9c-.2.6-3.3.1-7.3-1s-7.1-1.5-7.3-1c-.2.6-1.2 2.2-2.4 3.6-1.6 2-2.3 2.3-3.4 1.4-1.1-.9-1.4-.8-1.4.5 0 2.1-.9 2-4-.3-2.4-1.9-2.4-2-.6-4 1.5-1.7 1.6-2.3.6-3.6-1.1-1.3-.8-1.6 1.9-2.1 1.7-.4 3.1-1 3.1-1.5s1.1-1.9 2.5-3.1c1.4-1.2 2.3-2.8 2-3.5-.2-.8.3-1.7 1.3-2 3.5-1.4 8.7-5.5 9.5-7.5.5-1.6 1-1.8 2.1-.9 1 .8 1.9.6 4-1s2.4-2.4 1.6-3.9c-1.6-3-1.3-4.5.6-2.9 2.1 1.7 8.4 1.2 13.7-1.1 5.1-2.3 6.4-3.6 6.9-7 .2-1.7 1.5-3.1 3.8-4.2 1.9-1 3.3-1.9 3-1.9-.3-.1-1.4-.3-2.5-.5s-3.3-.6-5-.9c-1.6-.4-4.2-.7-5.6-.9-1.4-.1-3-.6-3.6-.9-1.7-1.1-4.3.3-4.3 2.3 0 1-.9 2-1.9 2.3-1.5.4-1.8 1-1.4 2.8.5 1.9.4 2.1-1.3 1.4-1-.5-6.4-.9-11.9-1-10.6-.2-14.1-.9-16.5-3.2-2.1-1.9-14-8.9-16.7-9.7-1.3-.4-2.3-1.2-2.3-1.7s-.8-.9-1.8-.9c-2.2 0-4.2-1.9-4.2-4 0-.8-1.3-3-3-4.8-1.6-1.8-3-4.2-3-5.3 0-1.3-.7-1.9-2.3-1.9-1.3 0-2.7-.3-3.1-.7-.4-.5-2.6-.8-4.9-.8-3.9 0-4.2-.2-3.9-2.4.1-1.4.9-3.2 1.7-4.1.8-.9 1.5-2.4 1.5-3.3 0-2.3 1.6-3 4-1.7 1.9 1 2.5.5 2.2-2.1-.1-.3 1.1-.4 2.5-.1 1.8.3 2.4.1 1.9-.7-.4-.6-.3-1.1.2-1.1.6 0 .8-.9.5-2-.5-1.7 0-2 2.8-2 1.8 0 4.1.7 5.1 1.7 1.7 1.5 1.8 1.5 1.8-1 0-1.4-.5-2.7-1.1-2.9-1.6-.5.2-3.9 2-3.6 2 .4 4.7-5 3.1-6.6-.5-.5-1-2-1-3.2 0-1.8.4-2.1 2.1-1.7 1.5.4 2 .2 1.7-.7-.6-1.8-2.5-2.4-3.3-1zm-24.2 53.6c2.6.9 5.6 2.7 6.7 4.2l2 2.5-2.2 2.4c-1.2 1.2-1.7 2.3-1.2 2.3s.2.5-.6 1c-1.3.8-1.3 1 .2 1 2.2 0 3.4 2 1.8 3-.9.6-1.4 4-1.6 10.7-.4 11.6.7 16 3.9 16.2 1.2 0 4.2.3 6.6.5 2.4.3 4.1.2 3.7-.1-1.2-1.2 1.7-3.3 4.6-3.3 4.9 0 5 6.1 0 6.8-1.9.3-2.1.9-1.8 4.9.2 2.4.8 4.9 1.4 5.5.6.6.6 2.4.1 4.7-.5 2.1-.7 4.8-.4 6 .2 1.1 0 2.1-.6 2.1-.5 0-.9.9-.9 2 0 1.5-.7 2-2.8 2-1.5 0-3.3-.5-3.9-1.1-1.9-1.9-4.1-.2-5.4 4-.7 2.3-1.8 4.1-2.5 4.1-2.4 0-6.4-1.9-6.4-3.1 0-.8.4-.8 1.4 0 1.1.9 1.9.9 3.5-.1 2.2-1.4 2.7-3.3 1.1-4.3-1.9-1.2-1-3.3 2-4.5 2.3-1 3.8-3 6.5-8.6 3.9-8.3 4-8.7 2.1-10.3-1-.9-2-.5-4.5 1.8-3 2.8-11.3 5.3-12.8 3.8-.3-.3-.7-2.8-1-5.4-.6-7-.6-7.3-2.8-13.1-1.1-3-2.7-5.8-3.7-6.3s-1.9-2.7-2.3-5.3c-.8-5.3-.1-7 2.4-5.7 1.9 1.1 4.7-.2 3.7-1.7-.3-.5.3-1.2 1.3-1.5 1.3-.3 2-1.7 2.4-5.3.4-4.3.2-5.2-2.4-8.3-2.6-3.1-3.6-5.1-2.6-5.1.2 0 2.4.7 5 1.6zm32.9 58.9c1.2 1.6.9 2.5-.7 2.5-1.3 0-3.5-3.6-3.5-5.7 0-.6 3.2 1.7 4.2 3.2zm-130.7 96.5c-.3.5-1 1-1.6 1-.5 0-.9-.5-.9-1 0-.6.7-1 1.6-1 .8 0 1.2.4.9 1zm6.9 3.9c2.7 2.9 1.5 5-1.2 2.3-2.2-2.2-2.9-4.2-1.4-4.2.5 0 1.7.9 2.6 1.9zm29 106.6c.3.8.1 1.5-.4 1.5-.6 0-1-.7-1-1.5s.2-1.5.4-1.5.6.7 1 1.5zm75.7 172.5c1.9 1 2.6 3 1.2 3-.5 0-1.9-.9-3.3-2-2.6-2.1-1.2-2.7 2.1-1zm-102.8 173.7c.4.4 2.4.7 4.5.7 2.6.1 3.7.6 3.7 1.6.1.8.6 2.5 1.3 3.7 1.6 2.8 1.5 3.3-.3 3.3-.9 0-1.8.7-2.2 1.6-.6 1.5-2.4 1.4-6.7-.2-1.1-.4-1.6 0-1.6 1.2 0 1.4-.3 1.5-1.2.6-1.7-1.7-4.5-1.5-5.2.3-.3.9-1.1 1.5-1.8 1.4-.7-.1-2.2.2-3.2.6-1.3.6-2.1.4-2.4-.3-.5-1.5-3.9-1.6-4.4-.1-.2.7-1.2.7-3.3-.1-2.7-1.1-2.9-1.3-1.2-2.4.9-.7 1.7-1.8 1.7-2.5 0-.6.7-1.1 1.6-1.1 1 0 1.4-.7 1.2-2.3-.2-1.8.1-2.2 2.1-1.9 1.3.1 2.9-.3 3.6-.8.8-.6 2.4-1 3.7-.9 4.2.4 5.8-.1 5.8-1.6s3.1-2.1 4.3-.8zm46.7 169.1c3.2 2.2 3.3 2.3 1 2-1.4-.2-2.9.1-3.5.7-.5.6-.9.8-.8.6.2-.2-.6-1-1.7-1.8s-2-2.3-2-3.3c0-2.3 1.7-1.8 7 1.8zm-22 7.2c0 .5-.5 1-1.1 1-.5 0-.7-.5-.4-1 .3-.6.8-1 1.1-1 .2 0 .4.4.4 1z"/><path d="M234.09 77.762c-.3.5-.1 1 .4 1 .6 0 1.1-.5 1.1-1 0-.6-.2-1-.4-1-.3 0-.8.4-1.1 1zM224.59 90.762c0 .5.5 1 1 1 .6 0 1-.5 1-1 0-.6-.4-1-1-1-.5 0-1 .4-1 1zM232.09 111.762c-.3.5-.1 1 .4 1 .6 0 1.1-.5 1.1-1 0-.6-.2-1-.4-1-.3 0-.8.4-1.1 1zM133.99 58.462c-.3 1-1 2.8-1.4 4-.7 1.7-.4 2.5 1.6 3.8 3.2 2.1 4.5 1.2 3.3-2.4-.6-1.5-.9-3.2-.8-3.7.6-3.4-1.7-4.8-2.7-1.7zM351.59 63.262c-1.4 1.7-5 2-5 .4 0-.6-.6-.9-1.2-.6-.7.2-1.2 1.2-1 2.1.3 1.4-.1 1.6-1.8 1.1-1.9-.6-2-.5-1.1 1.3.7 1.3.7 2.2-.1 3-.9.9-.7 1.2 1 1.2 1.5 0 2-.5 1.6-1.5-.4-.9 0-1.5.9-1.5.8 0 1.8-.7 2.1-1.6.4-1.2 1.4-1.4 3.6-.9 2.3.5 3.2.3 3.6-1 1-2.4-1-3.9-2.6-2zM330.09 67.562c-2.1 1.5-1.1 7.9 1.8 11.1 2.9 3.3 4.2 3.8 5.2 2.1.4-.6 1.6-.8 2.7-.4 1.5.4 1.9.2 1.6-.7-.3-.9-2-1.4-4.6-1.4-3.3 0-4.2-.4-4.2-1.8 0-1.9 1.5-2.3 2.5-.7 1.2 2 2.6 1 1.9-1.3-.4-1.2-.8-3-.9-4-.2-2.9-3.7-4.6-6-2.9zM135.89 73.562c.4 3.4 0 4.9-1.9 7.8-2.7 4-2.7 4.1 0 4.6 1.3.2 2.4-.6 3.3-2.2.7-1.4 1.7-2.4 2.3-2.3 1.1.3 3.2-6.6 2.4-7.9-.3-.4-1-.8-1.6-.8-.6 0-2-.8-3.1-1.8-2-1.7-2-1.6-1.4 2.6zM143.19 78.862c-1.9 1.9-1.9 1.9 1.3 1.9 2.9 0 3.1-.2 2.1-2-1.3-2.4-1-2.4-3.4.1zM153.59 81.262c0 1.1-.5 1.2-2.5.5-2.6-1-3.3-.2-1.4 1.7.6.6 1.9.9 2.8.5 2.6-.9 4.2-4.2 2.1-4.2-.5 0-1 .7-1 1.5zM128.99 85.862c-1.2 1.6-3 6.2-3.8 10.2-.4 1.6-1.7 3.2-3.2 3.9l-2.5 1.2 3.1 1.9c3.4 2.1 4 4.2 1 3.2-1.6-.5-1.9-.3-1.3 1.2 1 2.9 3.5 5.3 5.4 5.3 1 0 2 .4 2.3.9.3.5 1.5.7 2.6.4 1.4-.4 3 .3 4.5 1.7 1.4 1.3 2.5 2 2.5 1.6 0-.5.7-.3 1.5.4 1.6 1.3 1 5.9-.9 7.2-.6.4-.8 1-.4 1.3.3.4 1.6-.3 2.7-1.4 1.2-1.2 3-2.1 4.1-2.1 1.8 0 1.9-.3.9-2.1-1-1.9-.9-2 1.3-1.4 2.1.6 2.2.5.6-.8-2.3-1.8-2.3-4.7 0-4.7 1 0 1.8-.7 1.8-1.8 0-1.2-1.5-2.2-4.7-3.2-4.3-1.5-4.6-1.5-4.1.2.3 1.4 0 1.7-1.2 1.2-1.8-.7-1.8-3.2.2-5.2 1.4-1.6 1.6-3.2.2-3.2-.5 0-1.8-.9-2.9-2.1-1.1-1.2-2.4-1.8-3-1.5-.6.4-2.2-1.1-3.7-3.3-1.4-2.3-3-3.8-3.5-3.5-.5.3-.9.1-.9-.5 0-.5.7-1.4 1.6-1.9.9-.5 1.4-1.7 1.3-2.7-.3-1.5-.6-1.6-1.5-.4z"/><path d="M117.99 93.462c-2.1.3-3.5 1.2-4.2 2.7-1.1 2.4 0 5.7 1.2 3.7.4-.6 1.6-1.1 2.7-1.1 1 0 1.9-.4 1.9-.9s.9-1.1 2.1-1.4c1.2-.3 1.9-1.1 1.7-1.8-.5-1.5-1.3-1.7-5.4-1.2zM133.59 260.762c-.8.5-.7.9.5 1.4 1 .3 1.3 1.1.9 1.8s.2.4 1.4-.6c1.2-1.1 2.2-2 2.2-2.1 0-.8-4-1.1-5-.5zM28.59 453.962c0 1.9 3.5 4.7 4.9 3.9.8-.5.6-1.2-.6-2.3-3-2.5-4.3-3-4.3-1.6zM112.59 805.862c0 .5.5.7 1 .4.6-.3 1-.8 1-1.1 0-.2-.4-.4-1-.4-.5 0-1 .5-1 1.1zM128.59 835.762c0 3.3-.4 4.2-2.5 5.2-1.4.6-2.5 1.7-2.5 2.5 0 .7-.7 1.6-1.5 1.9-.8.4-1.5 1.7-1.5 2.9 0 1.3-.4 2.6-1 3-.5.3-.7 1.2-.4 2 .3.7 0 2.3-.6 3.5-1.6 3-.8 3.4 3.5 2 4.2-1.4 5.9-.4 7.9 4.4l1.2 3 2.2-2.4c1.2-1.3 2.3-3.1 2.3-3.9.2-2.8.4-3.5 2.2-7.5.9-2.1 1.7-4.5 1.7-5.3 0-3.4-7.9-15.3-10.2-15.3-.4 0-.8 1.8-.8 4zM60.29 843.462c-1 .9-.9 2.3.2 2.3.5 0 1.1-.7 1.5-1.5.5-1.5-.5-2-1.7-.8zM71.09 843.562c-.7.8 3.6 5.2 5.1 5.2.7 0 1.8.9 2.4 2 .6 1.1 1.8 2 2.8 2 2 .1 7.3 2.9 5.4 3-2.1 0-.3 2 1.8 2 1.1 0 2.5.7 3.2 1.6.7.8 2.8 2.9 4.6 4.6 3.7 3.6 4.2 7.3 1.2 8.3-1.1.3-2 1.1-2 1.7 0 .5-.7.8-1.5.4-1.9-.7-8.1 2.9-6.6 3.8.6.4 2 .2 3.2-.4 2.8-1.5 6.8-.4 7.7 2.1.8 1.9.9 1.9 3.7-.6 1.7-1.4 3.5-2.5 4-2.5.6 0 .3-.5-.5-1-1.3-.9-1.3-1.2 0-2.3 3.2-2.6 4.2-4.5 3.2-6.4-.8-1.5-.3-2.3 2.9-4.7 3.6-2.8 3.8-3.1 2.1-4.5-2.7-2.5-7-4.1-10.8-4.1-2.1 0-3.7-.6-4-1.5-1-2.5-5.8-4.4-7.7-3-.9.7-1.3 1.6-1 2.1.4.5.1.3-.7-.4-1.9-1.7-3.5-1.5-2.1.2.7.8.8 1.7.3 2-1.1.6-4.6-3.4-4.7-5.3 0-1.5-10.9-5.4-12-4.3zM48.29 844.462c-2.2.6-1.2 2.3 1.3 2.3 1 0 2 .4 2.2.8.2.4 1.4.2 2.8-.5 2.4-1.2 2.4-1.3.3-1.3-1.2 0-2.5-.5-2.8-1-.6-1-.9-1.1-3.8-.3zM49.59 851.762c0 .5.5 1 1 1 .6 0 1-.5 1-1 0-.6-.4-1-1-1-.5 0-1 .4-1 1zM154.29 861.162c-.8.8-1.6 1.4-1.8 1.3-.3-.1-.1.2.3.7.4.5 0 2.2-.8 3.9-1.2 2.3-2.1 2.8-4 2.4-1.3-.2-2.4 0-2.4.6 0 .5-.7.4-1.5-.3-2.1-1.7-3.2-.4-1.7 2 1.6 2.6 1.5 4.7-.3 5.7-1.2.7-.6 1.5 2.9 3.7 4.2 2.6 6.6 6 6.6 9.3 0 1 .6 1.4 1.9 1 2.4-.6 5.4 2.4 4.6 4.5-.5 1.3-.1 1.4 2.9.4 3.9-1.2 4.5-2.9 1.9-5.8-1.5-1.7-1.5-1.8.1-1.8 1.2 0 1.5-.6 1.2-2.3-1.4-6.5-1.6-9.7-.7-9.7.5 0 1.4-1.4 2-3 .5-1.7 1.7-3 2.5-3 2.3 0 2-4.3-.3-6.5-1.9-1.6-2.1-1.6-5 .4-2.9 2.1-3 2.1-3.6.2-.3-1-.4-2.5-.3-3.2.4-1.9-2.7-2.2-4.5-.5zM118.59 874.162c0 .9-.4 1.6-.8 1.6-.5 0-1.6.6-2.7 1.3-1.6 1.2-1.4 1.4 2.1 1.3 4.3-.2 5.6-2.3 2.9-4.6-1.2-1-1.5-1-1.5.4zM129.89 874.462c-1.2.2-2.7 1-3.3 1.8-1 1.2-.7 1.3 2 .5 3.3-1 7.9.2 9.2 2.3.6.9.8.9.8 0 0-1.2-4.8-5.4-5.9-5.2-.3.1-1.6.4-2.8.6zM122.49 878.462c-1.3 1.6-1.2 1.7.4.4 1.6-1.3 2.1-2.1 1.3-2.1-.2 0-1 .8-1.7 1.7zM165.59 894.462c.1 1.8 2.8 4.4 3.5 3.4.3-.6.1-1.1-.4-1.1-.6 0-1.1-.7-1.1-1.5s-.4-1.5-1-1.5c-.5 0-1 .3-1 .7z"/></g></svg>