<svg version="1" xmlns="http://www.w3.org/2000/svg" width="816.565" height="846.596" viewBox="0 0 612.424 634.947"><g fill="#222"><path d="M309.131.852c0 .5-1 1.3-2.2 1.7-1.3.4-3.9 1.7-5.8 3-5.3 3.6-9.5 4.1-11.2 1.5-1.9-3.1-5.3-2.7-6.8.9-.7 1.6-1 3.6-.6 4.5.3.8.2 1.5-.3 1.5s-1.1 1-1.4 2.3c-1.3 4.8-19.4 16.5-23.8 15.4-1.4-.4-2.3.1-3.1 1.8-.6 1.4-1.6 2.1-2.4 1.8-.8-.3-1.4.1-1.4 1.1 0 .9-.5 1.6-1.1 1.6-.5 0-.7.4-.4 1 .8 1.3-.8 4.2-4.5 7.8-3.6 3.7-5 4.2-7.4 3-1.4-.8-1.7-.7-1.1.3.6.9.3 1.1-.9.6-1-.4-2-.7-2.2-.7-.2 0-.4-.7-.4-1.5s-.4-1.5-1-1.5c-.5 0-1 .4-1 1 0 1.8-1.7 1-2.8-1.3-.6-1.2-1.1-1.6-1.1-1-.1.7-1 1.3-2.1 1.3s-2.8.4-3.8.9c-5.9 3-8.1 3.6-13.4 3.5-3.2-.1-5.8.1-5.8.5 0 .3-1.1.7-2.5.7-1.5.1-2.6-.5-3-1.6-.7-2.2-5.5-3.6-6.5-2-.6.9-.9.9-1.5.1-.3-.7-1.5-.9-2.4-.6-2.1.6-4.6-1.9-3.6-3.6.8-1.2-1.1-2.9-3.2-2.9-.7 0-1.3.6-1.3 1.4 0 .7-.9 1.6-2 1.9-2.1.5-2.8 2.7-.9 2.7.5 0 .7.5.4 1.1-.4.6-1.9.7-3.5.4-1.6-.3-3.1-.2-3.5.4-.3.6-1.7 1.1-3 1.1s-2.6.4-3 .9c-.3.5-1.6-.1-3-1.5-1.3-1.3-3.6-2.4-5-2.4-3 0-3 .3-.9 3.6 1.6 2.4 1.6 2.6-.5 4.5-1.1 1.1-2.1 3.1-2.1 4.4 0 1.4-.4 2.5-.9 2.5-1.2 0-2.1 4.1-1.5 6.6.3 1.1 1.5 2.4 2.7 2.9 3.1 1.4 3.2 4.5.4 8.6-2.1 3.1-2.3 4.2-1.7 9 .4 3 .3 5.5-.1 5.7-.5.2-.9 1-.9 1.8s-.7 2.8-1.5 4.4c-1.6 3.1-4.7 4-10.3 2.9-1.7-.4-3.5-.3-3.8.2-.3.5-1 .7-1.5.3-.6-.3-1.3.3-1.6 1.5-.3 1.2-1.2 2.1-1.9 2.1-.8 0-1.4.7-1.4 1.5 0 4.4-6.3 9.6-9.4 7.8-.6-.4.5.9 2.4 2.7 1.9 1.8 4.4 3.4 5.4 3.5 1.1.1 2.2.7 2.4 1.3.2.7 1 1.2 1.8 1.2.7 0 1.6 1.2 2 2.7.3 1.6 1.7 4.9 3 7.5 1.4 2.7 2.2 5.3 1.9 5.9-.4.5.1 1.9 1.1 3s1.9 2.8 2.1 3.7c.4 2.6-1.9 9.5-3.9 11.6-1 1.1-1.8 2.3-1.8 2.7 0 .4-.9 1.1-2 1.4-1.1.4-2 1.5-2 2.7 0 1.6.3 1.8 1.4.9 1.1-1 1.7-.7 2.9.9 1.2 1.8 1.9 2 3.5 1.1 2.6-1.4 6.2 1.6 6.2 5.2 0 1.9.7 2.8 3 3.6 2.8.9 3 .8 3-1.4 0-1.6.8-2.6 2.8-3.3 1.5-.6 2.1-1.1 1.5-1.1-1.7-.1-1.7-3.6 0-5 1.1-.8 1.9-.5 3.8 1.5 1.3 1.4 3.4 3 4.7 3.5 1.3.5 2 1.4 1.7 1.9-.4.6-1 .8-1.5.5-.5-.3-1.5.4-2.4 1.6-1.1 1.6-2.1 2-4 1.5-2.3-.6-2.6-.3-2.6 1.9 0 1.4-.6 2.5-1.2 2.5-.7 0-.3.7.8 1.4 1.8 1.3 5.6 9 5.5 11.3 0 1.4 5.3 3.7 5.7 2.5.2-.7 1.2-.5 3 .4 1.5.8 3.2 1.4 3.9 1.4.7 0 2.4 1.2 3.9 2.6 1.4 1.5 2.9 2.3 3.3 1.8 1-1.4 5.5-1.3 6.4.2.4.8 1.3 1.4 1.9 1.4.5 0 2.4 1.2 4.1 2.6 2.7 2.2 3.1 3.2 3.1 7.8.1 4 .8 6.2 2.8 9.2 1.5 2.1 3 5.6 3.3 7.6.4 2.1 1.2 3.8 1.7 3.8.6 0 .5.6-.2 1.5-1.6 1.9-4 2-4 .1 0-.7-.7-2-1.6-2.7-.9-.7-2-2.4-2.5-3.6-.8-2.1-1.2-2.2-3-1.2-1.2.6-3.2.9-4.5.6-1.4-.2-2.8.1-3.2.9-1.2 2.1-8.9-.5-8.4-2.9.4-2.1-.7-2.2-3.5-.2-1.4 1-2.4 1.2-2.8.5-.3-.5-1.5-1-2.6-1s-4.3-.7-7.1-1.6c-4.2-1.4-5.1-1.5-5.9-.3-.6 1-.1 1.6 1.6 2.2 2.4.8 4.5 5.1 3.2 6.4-1.2 1.1 3.3 8.3 5.1 8.3 2.4 0 5.6 2.4 5.1 3.8-.4 1-3.1.1-8.8-3.3-1.7-.9-3-1.1-4.3-.4-2.6 1.4-12.1 1.8-13.5.7-.7-.6-1.3-1.8-1.3-2.8 0-1-.9-1.9-2.3-2.2-2.1-.4-2.3-.1-2.3 3.1 0 3.3-.2 3.6-3.3 3.9-3.8.4-6.4-2.1-5.6-5.5.4-1.7.1-2-1.5-1.6-1.3.3-2 1.4-2 2.9 0 2.7-1.7 3-6.6 1.5-7.2-2.3-7.9-2.2-9.4 1.2-.8 1.8-1.3 4-1.2 4.9.2 1-.1 1.8-.7 1.8-.5 0-1.3.9-1.6 2-.3 1.1-1.5 2-2.5 2-1.7 0-1.8.2-.4 2.7 1.9 3.9 1.8 5.2-.6 4.6-1.4-.4-2-1.4-2-3.4 0-3.3-1-3.6-4.4-1.4-1.4.9-2.3 2.6-2.3 4 0 3 4.7 7.7 8 7.9 1.5 0 2.3.6 2 1.3-.3.7.4 2.8 1.5 4.7 1.1 1.9 1.8 4.4 1.5 5.5-.5 2.1 3.1 9.1 4.8 9.1.5 0 .9.7.9 1.5s.9 1.5 2 1.5c1.3 0 2-.7 2-1.9 0-1 .7-2.1 1.5-2.5.8-.3 1.5-1.4 1.5-2.4s.9-2.7 1.9-3.6c1.9-1.7 2-1.7 2.3.6.2 1.5 1.1 2.4 2.5 2.6 2.1.3 3.9 4.3 2.8 6.2-.9 1.4.9 1.2 2.3-.2.9-.9 1.6-.7 3.2.7 2.2 2 1.8 3.2-1.6 4.5-1.4.6-3.4 2.6-4.5 4.5-1.2 1.9-2.5 3.5-3 3.5-.4 0-.6.7-.3 1.5.5 1.1.2 1.3-1 .9-1.2-.5-1.5-.2-1 1 .4 1.1-.2 1.9-1.9 2.5-1.4.6-2.8 1.9-3.2 3-.3 1.2-1.1 2.1-1.6 2.1-.6 0-.8.4-.5.9 1.5 2.4-8.7 7.1-15.5 7.1-3.8 0-3.9.1-3.9 3.8 0 3.4-.5 4.2-4.1 6.5-2.2 1.5-4.7 2.7-5.4 2.7-.7 0-2.8 1.2-4.5 2.7-2.1 1.7-4.5 2.7-6.9 2.8-4.6.2-9.1 1.5-9.1 2.6 0 .5-.7.9-1.6.9-1.2 0-1.5.6-1 2.4.8 3.2-1 4.3-3.5 2-1.3-1.1-1.9-1.3-1.9-.4 0 .6-.6 1-1.4.7-.7-.3-1.8-.1-2.3.4-.7.7-2.2.3-4.4-1-4.6-2.8-5.3-2.7-6.9 1.4-1.5 3.8-3.6 5.1-5.6 3.4-1.1-.9-1.6-.7-2.2.7-1.9 4.6-4.8 8.4-6.4 8.4-1 0-1.8.6-1.8 1.3 0 2.5-3.9 4.9-8.6 5.5-3.5.4-5.4 1.3-8 3.9-3.8 3.8-3.8 3.7-2.4 6.4.8 1.4.7 1.9-.2 2-.7 0-2.3 1.3-3.5 2.8-2.7 3.4-1.7 4.9 3.5 5.4 3.1.4 5.8 1.7 3.4 1.7-.7 0-1.2.9-1.2 2s-.7 2.3-1.6 2.7c-.9.3-1.4 1.3-1.1 2.4.3 1.1.1 2.2-.4 2.5-.5.3-.7 1-.3 1.5.3.6-.3 1.3-1.5 1.6-2.9.7-1.6 2.3 2 2.3 2.4 0 2.9.4 2.9 2.5s.5 2.5 2.9 2.5c1.7 0 3.3-.5 3.6-1 .4-.6 1.4-1 2.3-.9 3.6.3 5.2-.2 5.2-1.5 0-.8.6-2.1 1.4-2.9 2-2 1.4-4.7-1.5-6.3-1.3-.7-1.8-1.3-1-1.4 1.1 0 1.1-.3 0-1.7-1-1.2-1.1-1.7-.2-2 .7-.3.3-1.9-1.4-4.9-1.4-2.4-2-4.4-1.4-4.4.5 0 1.3.5 1.6 1 .4.6 1 .8 1.5.5.9-.6 6.7 5.6 9.7 10.6 1.2 1.9 4.5 5 7.3 6.8 2.9 1.9 5.4 3.9 5.7 4.7.2.7 1.1 1 2 .7.8-.3 1.9 0 2.3.8.5.7 2.5 1.3 4.4 1.3 2.8 0 3.6.4 3.6 1.8 0 1 1.2 2.4 2.8 3.1 3.3 1.4 4.2 2.5 4.2 5.2 0 1.1 1 2.9 2.2 3.9l2.2 1.9-2.1 1.7c-1.2.9-2.3 2.5-2.5 3.6-.2 1-1 1.8-1.6 1.7-1.8-.4-1.4 3.5.4 4.5 2 1.1 1.1 4.8-1.6 6.2-1.1.6-2.4 2.9-3 5.1-.6 2.2-2.6 5.7-4.5 7.7-1.8 2.1-3.3 4.7-3.2 5.7.1 1.1-.3 1.9-1 1.8-.7-.2-1.7.6-2.3 1.7-.6 1.1-1.7 2-2.5 2-2.7 0-2.6 2.1.2 6.5 1.5 2.5 3.1 4.5 3.4 4.5.4 0 1 1.2 1.3 2.6.9 3.4-4.1 9.4-7 8.4-1.1-.4-2.3-.2-2.9.6-1.4 1.7-9.4 2.2-10.4.6-1-1.7-6.1.2-6.1 2.3 0 .8.4 1.5.9 1.5s.5 1.5-.1 3.4c-.7 2.3-1.9 3.7-3.4 4-1.3.4-2.4 1.3-2.4 2 0 .8-.8 1.6-1.7 1.9-1.7.4-1.7.4.1 1.2 1.1.5 2.1.3 2.6-.5s1-.9 1.4-.2c.4.6 1.3.9 2.1.6.8-.3 2.1.6 3.1 2.1 1.2 1.8 2 2.3 2.7 1.6 1.8-1.8 2.5-1.3 2.9 1.6.3 2.5.6 2.8 3.7 2.5 2.2-.3 3.1 0 2.7.7-.4.6-.4 1.1.1 1.2 5.3.5 8.3 3.1 8.3 7.4 0 1.9.8 3.9 2 5 1.1 1 2 2.4 2 3.1 0 3 3.1 4.4 9.5 4.4 4.2 0 6.7.4 7.2 1.3 1.2 2.1 4.3 2.9 4.3 1.2 0-2 1.2-1.9 3.7.5 2.2 1.9 2.2 1.9 3-.7l.9-2.6 2.3 3.1c1.2 1.8 1.9 3.6 1.6 4.2-.6 1 1.5 7 2.5 7 .3 0 1.1-.4 1.9-.9 1.1-.7 1.1-1.5.3-4-1-2.9-.8-3.5 1.1-3.2.4 0 .7-1.5.7-3.5 0-3.1-.3-3.5-2-2.9-1.3.4-3-.1-4.6-1.4-1.5-1.2-3.5-2.1-4.6-2.1-1 0-2.1-.7-2.4-1.5-.4-.8-1.2-1.5-2-1.5s-1.4-.5-1.4-1c0-.6.5-1 1-1 .6 0 1-.9 1-2 0-2.2 2-7 3-7 .3 0 1.1.5 1.8 1.2.9.9 1.2.9 1.2 0 0-1.9 3.5-1.4 5.4.7 1 1 1.6 2.7 1.4 3.8-.2 1 .2 1.7.9 1.6 1.3-.3 2.8 5.1 1.9 6.6-1 1.5 4.7 2 6.8.5 1.1-.8 3-1.4 4.3-1.4 1.2 0 2.4-.4 2.7-.9.6-.9 5.2-.1 8.8 1.4 1 .4 3.1 0 4.9-.9 2.8-1.4 3.4-1.4 5.2-.1 3.3 2.3 9.2 1.9 12.1-.9 1.5-1.3 2.6-2.8 2.6-3.3 0-1.4 3.5-4.4 4.3-3.7 1.1 1.1 5.7-.6 5.7-2 0-.8 2-2.6 4.4-4 4.4-2.6 9.3-3.3 13.4-2.1 1.8.6 2.2.3 2.2-1.3 0-1.4 1.6-2.6 6.1-4.6 3.3-1.4 6.7-2.6 7.5-2.6 1.9 0 1.8-3.4-.1-5-1.9-1.6-1.9-3 0-3 2.4 0 3.9-4.3 2.6-6.9-1-1.9-.9-2.1 1.2-2.1 1.2 0 2.9-.6 3.5-1.2 1-1 1.4-1 2.1 0 .6 1 1.4 0 2.9-3.1 1.2-2.5 2.6-4.8 3.2-5.2.6-.4.8-1.5.5-2.5-.5-1.6.1-2 3.2-2.6 2.1-.4 4.4-1.5 5.1-2.5.7-1 1.9-1.6 2.7-1.3 1 .4 1.2 0 .8-1.5-.4-1.7 0-2 3.7-2.3 5.6-.4 7.3-2.8 4.3-6-3.1-3.3-4.7-7.8-2.8-7.8.8 0 1.7 1.1 2.1 2.4.3 1.4 1.2 2.7 2 3 .8.3 1.4 1.4 1.4 2.5 0 1.9 2 3.3 5.3 3.6.9.1 1.7-.1 1.7-.6s1-1.3 2.1-2c1.7-.9 2.5-.8 3.7.5 1.1 1.1 1.2 1.6.4 1.6-.9 0-.8.8.3 3.1 1.2 2.2 2.1 2.9 3.5 2.4 1.5-.5 2.1 0 2.6 1.9.3 1.4 1 2.4 1.4 2.1.4-.3 1 .2 1.4 1 .3.8 1 1.5 1.6 1.5 1.8 0 1.1-1.9-1.5-4.2-1.4-1.2-2.5-2.7-2.5-3.4 0-.6-.7-1.7-1.5-2.4-1.3-1.1-1.1-1.5 1.3-3.3 1.5-1.1 3-2.3 3.4-2.7.4-.3.3-2.1-.2-4-1.3-4.4 1.3-17.6 3.9-20.5 1.9-2 3.7-6.3 3.3-7.8-.1-.4.3-.7.9-.7.5 0 .8-.4.5-.9-.3-.5-.3-2.9 0-5.5.6-4 .9-4.4 2.5-3.5 2.2 1.1 2.3.6.8-2.3-.8-1.4-.7-2.8.2-5 1.1-2.8 1.5-3 5.1-2.4 2.9.5 4 .3 4.4-.9.7-1.7 4.2-1.4 5.4.5.6 1 1.2 1.1 2.2.3.7-.6 2.4-1.3 3.8-1.6 1.9-.5 3-1.8 4.1-4.9.9-2.4 2.5-4.7 3.7-5.3 1.5-.7 2.2-1.9 2.2-4l.1-3 3 3.3c2.2 2.4 3.3 3.1 4.2 2.3.9-.7 2.7-.2 6.1 1.8 4.1 2.4 5.6 2.8 10 2.4 3.8-.3 5.6-.1 6.4 1 1.3 1.5 6.6 1.1 5.6-.4-.3-.5 0-.9.6-.9.7 0 .9-.8.5-2-.5-1.5-.2-2 1.3-2s1.8-.6 1.4-3.1c-.3-2-1.2-3.3-2.4-3.7-1.3-.3-1.8-1.1-1.5-2.3.3-1.1.1-1.7-.4-1.3-.5.3-.9 0-.9-.5 0-2.1-.2-2.6-1.2-3.9-.8-.9-.6-1.2.6-1.2 2 0 2-.9-.1-3.2-1.4-1.6-1.4-1.8 0-1.8 2.2 0 3.2-3.7 1.5-5.7-1.1-1.4-1-1.5.9-.9 1.2.4 2.4.2 2.8-.3.4-.7 1.7-.3 3.5 1 1.5 1.2 4.2 2.2 5.8 2.3 1.7.1 3.4.4 3.7.8.4.4 1.3.4 2.1.1.8-.3 1.7.2 2 1.1.9 2.2 3.7 2 5.2-.4 1.5-2.5 5.7-2.6 7.1-.3.9 1.7 1.1 1.7 2.5-.2.8-1.1 2-3.7 2.7-5.7.6-2.1 1.5-3.6 1.8-3.4.3.3 1.5-.2 2.6-1 1.6-1.2 1.8-1.8.7-3.4-.6-1.1-1.2-2.7-1.2-3.5 0-.8-.3-1.5-.7-1.6-3-.3-5-1-7.4-2.8-1.5-1.1-3.8-2.3-5.2-2.6-3.3-.9-3.5-1.8-2.7-9 .5-4.5.3-6.6-.8-8.2-1.2-2-1.2-2.8.4-6.8 1.6-4.4 1.6-4.7-.1-6.3-1-.9-1.5-1.2-1.2-.6.4.7.1 1.7-.7 2.3-1 .8-1.7.6-3.1-.9-1.1-1.2-1.3-2-.6-2 2.1 0 3-4.3 1.3-6.3-1.4-1.6-1.3-1.7.7-1.7 1.4 0 2-.4 1.5-1.1-.3-.6.6-2.2 2.2-3.4 2.7-2.2 2.9-2.8 2.9-9.7 0-6.8.2-7.3 2-7.1 2.6.3 4.6-4.3 3.4-7.5-.7-1.8-.5-2.2 1.1-2.2 1 0 2.2-.5 2.5-1 .4-.6 1.5-.8 2.6-.5 1.4.5 1.9.2 1.9-1.2 0-1.5.2-1.6 1-.3.8 1.2 1 1.2 1 .1 0-1.1.3-1.1 1.5-.1 1 .8 1.5.9 1.5.2 0-.6.6-.9 1.4-.6 1.6.6 3.6-2.4 2.9-4.4-.3-.6.2-1.2 1.1-1.2 1 0 1.6-.9 1.6-2.5 0-1.9.5-2.5 2.1-2.5 1.7 0 1.9.4 1.3 2.2-.4 1.3-1.2 2.6-1.7 3-.7.4-.1 1.6 1.6 3.2 3.2 2.9 4.2 3.3 3.4 1.2-.4-1.1-.1-1.3 1-.9 1.3.5 1.5.2 1.1-1.5-.4-1.2-.2-2.2.2-2.2 1.4 0 2.3-6.2 1.1-7-1.1-.6-.5-4 .7-4 .3 0 1.4.7 2.4 1.7 1.1.9 1.8 1.1 1.8.5 0-.7.8-1.2 1.9-1.2 2.7 0 4.2-2.3 3.5-5.7-.7-3.7 1-10.3 3.4-12.9 1.3-1.4 1.7-3 1.4-5.7-.4-3.4-.2-3.7 2.1-3.7 4.6 0 5-5.4.7-9.5-2.5-2.4-2.8-3.1-1.6-3.7.9-.5 1.3-1.5.9-2.4-.3-.8.3-2.3 1.3-3.3 2.2-2 5.8-3.6 4.9-2.1-.3.6.1 1 .9 1 .9 0 1.6-.4 1.6-.9s.6-1.1 1.3-1.4c.6-.2.4-.3-.5-.2-1 .2-2-.1-2.3-.6-.3-.4-1.9-.6-3.5-.2-2.6.5-3 .2-3-1.5 0-2.7-1.6-3.6-3.4-2-1.2 1.1-1.2 1.6-.1 2.8.8 1 1.1 3 .6 6-.6 4.3-.8 4.5-4.8 5.4-2.8.6-4.5 1.5-4.8 2.7-.4 1.1-1 1.9-1.5 1.9-1.2 0-.8 4.3.5 5.2.7.5.7 1.3-.1 2.5-1.4 2.3-3.4 2.8-3.4.9 0-1 .6-1.3 1.8-.9 1.4.5 1.3.3-.3-1-1.1-.9-2.5-1.7-3.1-1.7-.6 0-2.3-.9-3.8-2.1-1.4-1.1-3-1.8-3.6-1.4-1.6 1-8-4.5-8-7 0-2.2-2.8-5.5-4.7-5.5-1 0-2.5-4.2-3.8-10.7-.8-3.8-4.4-6.7-9.5-7.8-2.2-.5-4.6-2-6.5-4.3-2.7-3.3-3-4.3-3.1-10.9 0-6.1-.4-7.7-2.2-9.6-1.2-1.3-2.2-2.8-2.2-3.3 0-.6-1.1-2.1-2.5-3.4-2.8-2.6-3.2-4.8-1-5.6 2.3-.9 2.8-4.1 1-6.8-1.3-1.9-1.5-3.6-.9-7.3.3-2.6 1-5.5 1.5-6.4.9-1.9-.9-10-2.6-11.4-1.7-1.4-2.9-5.5-1.6-5.5.6 0 1.1-.5 1.1-1 0-.6-.7-1-1.5-1s-1.5-.6-1.5-1.4c0-.8-.9-1.7-1.9-2.1-1.1-.3-2.2-1.2-2.5-2.1-.4-1-1.3-1.3-2.9-.9-1.5.4-3 .1-4-.9-.8-.9-2-1.6-2.6-1.6-1.2 0-1.4-1.1-.5-3.4.4-1.2 1.1-1.3 3.2-.5l2.7.9-2.2-1.7c-2.8-2.3-4.5-6.7-3.1-8.1.5-.5.7-1.8.4-2.8-.3-1.1-.6-2.2-.6-2.7 0-.4-.7-2.1-1.5-3.8-1.2-2.2-1.3-3.4-.6-4.3.8-.9.4-1.9-1.5-3.7l-2.5-2.3 4.1-3.8c3.1-2.9 4-4.3 3.5-5.8s.1-2.4 2.3-3.7c2.4-1.5 2.8-2.2 2.1-4.1-.7-1.8-.5-2.2 1.1-2.2 1.4 0 1.9-.7 2-2.8 0-1.5.1-3.8.1-5.2.1-1.4-.2-4.6-.6-7.3-.6-3.8-.5-4.7.7-4.7 1.8 0 5.8-5.3 5.8-7.7 0-1.8 2-5.6 2-3.9 0 .6.6.2 1.3-.8 3-4.1-.2-16.8-4.5-18.5-3.1-1.2-5.2-3.7-4.2-5.2.4-.8.3-.9-.4-.5s-1.2 1.5-1.2 2.4c0 1.3-.5 1.2-2-.8-1.1-1.4-2-1.9-2-1.2 0 .9-.8.7-2.6-.7-2.9-2.3-4.4-2.7-4.4-1.2zm-50 38.1v3l-2.7-1.7c-2.7-1.8-2.7-1.8-.5-2.1 1.2-.2 2.2-.8 2.2-1.3s.2-.9.5-.9.5 1.4.5 3zm25.4 64.1c-.4 5.8-.2 7.5 1.2 9 .9 1 1.3 1.9.8 1.9s-.1.5.9 1.1c.9.5 1.7 1.6 1.7 2.3 0 .8.7 1.9 1.5 2.6 1.9 1.6 1.9 4.4.1 6.2-1.1 1.1-1.1 1.9-.2 3.4 1.5 2.6 1.4 8.4-.1 8.4-2 0-1.5 4.7.6 6.7 1.1 1 1.9 2.6 1.7 3.6-.3 2.5-4.7 4.6-7.4 3.6-2-.8-2.2-.5-2.2 2.4s.5 3.5 3.9 5c3 1.3 3.9 2.3 3.9 4.2 0 2.9-2.2 3.3-5.5 1-2.1-1.5-2.2-1.5-1.6 2 .3 2.2.2 3.5-.5 3.5-.6 0-1.2-1.2-1.4-2.6-.3-2.9-1-3.4-7.8-5.6-3.6-1.2-4.9-2.3-6.5-5.5-1.1-2.2-3.2-4.7-4.7-5.6-1.6-.9-2.8-2.2-2.8-2.9 0-.7-1.2-2.1-2.8-3.1-1.5-.9-4.2-2.6-5.9-3.8l-3.3-2.1.2 3.9c.1 3-.5 4.5-2.6 6.6-2.2 2.2-2.6 3.4-2.1 5.4.7 3.1-3.1 7.7-8.3 9.9-2.3.9-3.1 1.8-2.6 2.6 1.3 2.1 1.4 4.2.1 5-.9.5-.9 1.4 0 3.8.9 2.5.9 3-.3 3-1.8 0-1.8.9.2 3.1 1.4 1.6 1.7 1.5 3.9-.7 1.4-1.4 2.9-3.3 3.5-4.4.6-1.1 2.2-2.3 3.5-2.6 1.4-.3 2.5-1 2.5-1.5s.6-.6 1.4-.3c.8.3 1.9-.3 2.6-1.5.8-1.7.8-2.1-.4-2.1-1.5 0-2.9-2.4-1.9-3.4.3-.3 1.4-.1 2.5.5 1.4.7 2.7.6 5-.5 4-2 5.5-2 6.7.1.6 1 1.1 1.3 1.1.8 0-.9 2.6-1.2 6.8-.7.6.1 1.2 1.2 1.2 2.4 0 2.7 1 4.3 2.9 5 1.4.4 4.9 9.6 5 13 .1 2.9-5.8 10.8-8.1 10.8-1.9 0-2 .4-1.4 5.2 1.1 8.4.9 9.8-1.5 12.4l-2.3 2.5 2.1.5c2.8.8 2 3-1 2.8-1.2-.1-4.3-.7-6.9-1.5-4.3-1.2-4.7-1.6-5.3-4.9-.6-3.5-5.1-9-7.4-9-.6 0-1.1-.4-1.1-.9s-1.1-1.2-2.5-1.5c-1.3-.3-3.2-2-4-3.6-.9-1.7-2-2.8-2.5-2.5-.5.3-1-.5-1.2-1.7-.2-1.6-1.2-2.4-3.6-2.9-4.1-.8-7.2-3.5-7.2-6.3 0-1.2-1.2-2.9-2.6-4-2.6-1.8-2.6-1.8-1.5.2.8 1.4.8 2.3.1 2.7-.8.5-.7 1.1.1 2.1.9 1.1.8 1.4-.4 1.4-.9 0-2.1.8-2.6 1.9-.6 1-2.3 2.1-3.8 2.4-2.2.4-3.3 0-5-2.1-2.3-2.8-3-6.7-1.3-7.7.6-.3 1 .4 1.1 1.7.1 2.3.1 2.3.9-.2.6-1.9.3-2.9-1.2-4.3-1.6-1.3-1.8-2-.9-3.1.7-.8.9-2.5.5-4.2-.6-2.4-.5-2.7 1.5-2.1 2 .5 2.5-.3 2.4-4.1-.1-.6 1-1.2 2.4-1.2 2.2 0 2.3-.1.9-1.6-1.2-1.2-1.3-2-.6-3.5.6-1.1.8-2.4.5-2.9-.3-.6-.1-1 .4-1 .6 0 1.1-1 1.1-2.1 0-1.8.5-2 2.7-1.6 1.7.3 3.3-.1 4.6-1.4 1.2-1 3.4-1.9 4.9-1.9 2.7 0 6.2-2.5 8.4-6 .5-.8 2.6-2.3 4.6-3.4 2.2-1.1 3.4-2.4 3.1-3.2-.4-1 .4-1.2 3.1-.7 3.2.5 3.5.4 3.2-1.8-.1-1.3-.6-3.3-1.1-4.3-.6-1.4-.2-2.4 1.6-3.8 1.3-1 2.9-2.2 3.5-2.7 1.7-1.4 7.4-2.4 7.4-1.3 0 1.4 5.3 2.2 6.8 1 .6-.6 1.2-2 1.2-3.2 0-1.3 1.2-2.8 3.2-3.9 2.3-1.4 2.8-2.1 2-2.9-1.6-1.6-1.5-2.8.3-2.8.8 0 2.2-1.1 3.1-2.5 1.3-2 1.4-3.1.5-5.7-1.2-3.4-.8-4.3 2.4-5.1 1.1-.3 2.1-.5 2.2-.6.1 0-.1 3.1-.3 7zm29.6 56.4c0 .8-.4 1.5-1 1.5-.5 0-.7-.7-.4-1.5.4-.8.8-1.5 1-1.5.2 0 .4.7.4 1.5zm-151.4 21c-.7 1.6-1.3 2-1.8 1.2-1.3-2-.9-3.3 1.1-3.4 1.6-.1 1.7.2.7 2.2zm186.8 43.5c1.4.5 2.6 1.6 2.6 2.3 0 .8 1.1 3.1 2.5 5.2 2 2.8 2.3 4 1.5 5.1-.7.7-.9 1.8-.5 2.3.3.6 0 1.7-.7 2.5-1.1 1.3-2.1.6-6.6-4.2-4.2-4.4-5.1-5.8-4-6.7.7-.5 1.2-2.5 1.1-4.3-.1-3.5.3-3.7 4.1-2.2zm-5.4 16.1c0 .5-.4.9-1 .9-.5 0-1-.7-1-1.6 0-.8.5-1.2 1-.9.6.3 1 1 1 1.6zm5 1c0 .5-.9.9-2 .9-2.2 0-2.7-1.6-.7-2.3 1.5-.5 2.7.1 2.7 1.4zm-38.5 10.9c.4.6-.5 1-1.9 1s-2.6-.5-2.6-1c0-.6.9-1 1.9-1 1.1 0 2.3.4 2.6 1zm-1 4c-.6.9 0 1.2 3.5 1.4.8.1 1.5.8 1.5 1.6s.4 2.2.9 3c.4.8-.1.5-1.2-.8-2-2.2-3.9-3.1-2.7-1.2.3.5.2 1-.3 1-1.1 0-3.3-4.6-2.5-5.4 1-1 1.5-.7.8.4zm-203.7 2.8c.2.7-.2 1-1.2.6-.9-.3-1.6-1.1-1.6-1.6 0-1.3 2.3-.5 2.8 1zm57.2 15.2c0 .5-.2 1-.4 1-.3 0-.8-.5-1.1-1-.3-.6-.1-1 .4-1 .6 0 1.1.4 1.1 1zm1.5 3c-.3.5-1.1 1-1.6 1-.6 0-.7-.5-.4-1 .3-.6 1.1-1 1.6-1 .6 0 .7.4.4 1zm-73 94.1c.4.6 1.3.8 2.1.5.7-.3 1.8.4 2.4 1.4.6 1.1 1.7 2 2.5 2 1.7 0 2.8 3.3 2 6-.8 2.7-1.9 2.5-4.3-.5l-2-2.6-.7 3.1c-.4 1.6-1.2 3-1.8 3-.7 0-2.2.3-3.4.6-1.7.5-2.3.2-2.3-1 0-.9.5-1.6 1.1-1.6.8 0 .8-.4 0-1.4-1-1.1-.8-1.6.8-2.1 2.3-.7 3.5-3.5 2.1-4.9-1.3-1.3-1.3-3.6-.1-3.6.6 0 1.3.5 1.6 1.1zm-4.5 16.9c0 1.1-.4 2-1 2-.5 0-1-.2-1-.4s-.3-1.1-.6-2c-.4-1.1-.1-1.6 1-1.6.9 0 1.6.8 1.6 2zm21.4 3c2.2 0 3.6-.6 4-1.7.5-1.2.9-1.4 1.8-.5 1.5 1.5 6.5 1.6 7.3.2.4-.7 1.3-.6 2.7.1 1.7.9 2.3.8 3-.5 1.8-3.1 8.8-1.2 8.8 2.4 0 2.1-1.5 2.7-2.5 1-.8-1.3-5.1.7-10.2 4.7-2.9 2.3-5.3 5.6-7.7 10.6-1.9 4-4.4 8.1-5.5 9.1-1.2 1.1-2.1 2.7-2.1 3.6 0 2-3.7 2-5.2-.1-.7-1.1-1.1-1.1-1.5-.2-.7 1.8-2.3 1.6-4.5-.3-1.7-1.6-1.6-1.8 1.8-5 3.3-3.2 3.4-3.4 1.6-4.9-2.4-2.1-1.8-7.5.9-8.2 2-.6 2.6-2.8.9-3.8-.5-.3-.7-1.1-.4-1.9.3-.7 0-2.4-.5-3.8-1.3-3.5.7-5.6 2.6-2.8.9 1.3 2.6 2 4.7 2zm-9 34.5c-.4.8-.8 1.5-1 1.5-.2 0-.4-.7-.4-1.5s.4-1.5 1-1.5c.5 0 .7.7.4 1.5zm-19.7.8c.6.4 1.4.1 1.7-.5.3-.9 1.1-.6 2.5 1 1.5 1.8 2.6 2.1 4.8 1.6 2.7-.6 2.7-.6 1.1 1.2-1.4 1.4-2.2 1.5-4.1.7-2.1-1-2.5-.8-3.5 1.9-.9 2.5-1.5 2.9-3.5 2.4-1.9-.4-2.6 0-3.5 1.9-.9 1.9-1.9 2.5-4.1 2.5-2.3 0-2.9-.4-2.5-1.5.4-.8.1-2.2-.6-3-.7-.8-1-2.2-.6-3.1.9-2.3-1.1-5.4-3.2-4.8-1.1.4-1.3.3-.5-.3 1.4-1 14.3-1.1 16 0zm27 .3c-.3.3-1.2.4-1.9.1-.8-.3-.5-.6.6-.6 1.1-.1 1.7.2 1.3.5zm-.2 11.4c.3.5-.3 1-1.5 1s-1.8-.5-1.5-1c.3-.6 1-1 1.5-1s1.2.4 1.5 1zM103.631 115.952c-.3.5-.2 1 .4 1 .5 0 1.3-.5 1.6-1 .3-.6.2-1-.4-1-.5 0-1.3.4-1.6 1zM97.931 118.652c.7.3 1.6.2 1.9-.1.4-.3-.2-.6-1.3-.5-1.1 0-1.4.3-.6.6z"/><path d="M124.131 126.352c0 .2.7.9 1.5 1.6 1.3 1.1 1.4 1 .9-.4-.5-1.4-2.4-2.3-2.4-1.2zM138.131 178.452c0 .9.5 1.5 1.1 1.3.6-.2 1.1-.8 1.1-1.3s-.5-1.1-1.1-1.3c-.6-.2-1.1.4-1.1 1.3zM133.131 180.952c0 .4 1.7 2.7 3.8 5.1 3.8 4.4 5.6 10.9 3 10.9-.6 0-.8.3-.5.7.4.3.2 1.2-.3 1.8-1.2 1.5-.2 9.5 1.1 9.5.5 0 .9-.7.9-1.5 0-1.2 2.8-3.5 4.3-3.5.3 0 .8 1.1 1.1 2.5.4 1.4 1.1 2.5 1.7 2.5.6 0 .7-.5.3-1.1-.3-.6-.1-1.5.5-1.8.7-.4 1.3-2.6 1.4-4.9.1-3.1-.4-4.5-1.8-5.6-2-1.4-2-1.4 0-3.6 1.9-2.1 1.9-2.3.2-3.5-.9-.6-1.7-1.6-1.7-2.1 0-1.2-6-3.5-7.1-2.8-.5.3-.9-.2-.9-1 0-.9-.3-1.7-.7-1.7-3.2-.6-5.3-.5-5.3.1zM141.331 180.852c-1.1.6-1 1 .4 1.5.9.3 1.9.4 2.2.1.3-.3 0-.5-.7-.5s-.9-.5-.6-1c.7-1.2.4-1.2-1.3-.1zM133.631 209.952c-1.8 2-1.8 2.1.1 3.5 1 .8 2.4 1.3 2.9 1.1 1.6-.4 1.7-4.2.2-5.4-1.1-.9-1.8-.8-3.2.8zM144.131 213.152c0 1.9 1.2 3.3 3.9 4.7 1.8 1 2.2 1.9 1.9 4.1-.3 2.2 0 3 1.4 3.4 1.2.3 1.8 0 1.5-.7-.2-.7.8-1.7 2.2-2.4l2.6-1.2-2.2-.6c-1.3-.4-2.3-1.5-2.3-2.5 0-1.9-3.3-5.3-4.2-4.4-.4.3-1.6.1-2.7-.6-1.6-.8-2.1-.8-2.1.2zM132.331 218.252c-1.6.8-2.2 1.7-1.8 3 .3 1.3-.3 2.6-1.9 3.9-2.3 1.8-2.4 2.1-1 4.8.8 1.6 2.3 2.9 3.2 3 9.4.5 11 .4 13.6-1.4l2.8-1.8-2.3-1.2c-1.3-.6-3.6-3.2-5.3-5.8-3.5-5.4-4.2-5.9-7.3-4.5zM404.231 230.552c0 1.1.3 1.4.6.6.3-.7.2-1.6-.1-1.9-.3-.4-.6.2-.5 1.3zM91.331 238.952c1.4 2.2 2.4 1.9 1.5-.5-.4-.8-1.1-1.5-1.7-1.5-.6 0-.6.7.2 2zM94.731 244.452c-.3.8.1 2.1.9 2.9.8.8 1.5 2.5 1.5 3.7 0 2.2.1 2.2 1.6.7 1.6-1.5 1.6-1.9 0-5.2-1.8-3.8-3-4.5-4-2.1zM82.131 259.852c0 2.2 1.5 2.9 4.7 2.3 3-.6 2.9-2-.3-3.2-3.6-1.4-4.4-1.3-4.4.9zM79.131 263.952c0 .5.7.7 1.5.4.8-.4 1.5-.8 1.5-1 0-.2-.7-.4-1.5-.4s-1.5.4-1.5 1zM387.931 342.252c1.2 1.3 1.9 2.7 1.5 3-.3.4.3.7 1.5.7 2.9 0 2.8-.6-.5-3.5-3.6-3.1-5.3-3.2-2.5-.2zM389.131 354.052c0 6.4.8 8.6 4.7 13.3 2.1 2.5 2.2 3 .9 4.5-1.3 1.4-1.3 1.9.4 4.1 1.1 1.4 2 1.9 2 1.2 0-.9.7-.8 2.5.4 2.4 1.6 2.5 1.5 2.5-.5 0-2.8 1.8-2.7 4.6.4 2.4 2.6 4.4 3.3 4.4 1.5 0-.6-.4-1-1-1-.5 0-1-.9-1-1.9 0-1.5-.6-1.9-2-1.6-2.9.6-3.5-1.6-2.1-8.2 1.4-7 .3-8.7-5-8-3.5.5-6.2-.3-6-1.7.1-.3.1-2.3.1-4.4 0-3.3-.3-3.8-2.5-4-2.4-.2-2.5 0-2.5 5.9zM545.831 359.152l.4 3.3-2-2.5c-1.7-2.2-2.3-2.3-4-1.3-1.2.7-3 1.3-4 1.3-1.1 0-2.4.6-2.8 1.3-.4.8-2.3 2.1-4.2 3-3.2 1.6-3.6 1.6-5.2.1-1.7-1.5-1.9-1.5-3 1-.7 1.4-1.6 2.6-2.1 2.6s-.6.5-.3 1c.4.6 1 2.4 1.5 4 .7 2.3.5 2.8-.6 2.3-.9-.3-1.4.2-1.4 1.7 0 1.8-.3 2-1.3 1.1-.8-.6-1.7-.8-2-.4-.4.3-2.5 0-4.8-.7-4.9-1.7-6.7-.8-8.3 4-.9 3-1.5 3.5-4.3 3.5-1.8.1-3.3-.3-3.3-.7 0-.4-.8-.8-1.8-.8-3 0-10.2-3.9-10.2-5.5 0-.8-.4-1.5-1-1.5-.5 0-1 .7-1 1.5 0 1.1-1.2 1.5-4.5 1.5-2.5 0-4.5-.4-4.5-.8 0-1.2-11.5-4.6-12.8-3.8-.6.3-2.3.1-3.7-.6-2.3-1-2.9-1-3.9.3-.6.8-1.9 1.3-2.9 1.1-1-.2-2.5.2-3.3.9-.8.6-1.7 1-2 .7-.3-.3-1.8.7-3.4 2.3-1.8 1.9-3.9 2.9-5.8 2.9-2.1 0-3.1.6-3.5 2-.4 1.7-.9 1.9-3.1 1-1.8-.7-2.6-.6-2.6.2 0 .6-.8.4-1.8-.5-1-1-2.1-1.4-2.5-1.1-.3.3-.3-.3 0-1.5s.1-2.1-.5-2.1c-1.6 0-1.9 3.2-.5 6 1.8 3.5 1.6 6.1-.5 6.6-.9.3-2.5 1.8-3.4 3.5-2.2 3.8-3.5 3.7-4.6-.4-.4-1.7-1.1-3.1-1.5-3-.4.2-1.3.3-2.1.3-2 0-3.2 7.6-1.5 9.6 1 1.3 1 1.7 0 2.4-.9.5-1.2 1.9-.7 4.1.6 3.2.4 3.5-3.8 5.3-3.8 1.7-4.4 2.4-4.4 4.8.1 1.5.5 2.8 1 2.8.4 0 .8.6.8 1.3 0 1.6 7.1 7.6 9.7 8 6.8 1.4 10.3 4.9 10.3 10.3 0 2.4.5 5.5 1.1 7 .9 2.4.7 3-1.3 4.6-1.3 1-3.7 1.8-5.4 1.8-2.5 0-3.3.5-3.8 2.3-.3 1.3-1.7 2.9-3.1 3.5-1.4.6-2.5 1.8-2.5 2.7 0 .8-.9 1.5-1.9 1.5-3.8 0-5.1 1.1-5.1 4.4 0 2.6-.6 3.5-2.6 4.5-2.2 1-3 .9-4.3-.3-1.2-1.1-2-1.3-2.8-.5-1.2 1.2-5.3-.5-5.3-2.2 0-.6-1-.9-2.2-.7-4.1.6-1.2 6.9 4.1 8.9l2.4 1-2.2 2.2c-3 3.3-2.8 6.7.4 6.7 1.5 0 2.5-.6 2.5-1.5 0-.8 1.4-2.1 3-3 2.7-1.4 3.3-1.4 5.8 0 4.8 2.7 6.6 4 7.9 5.5.7.8 1.3 1.1 1.3.7 0-1.5 6 6.2 7.5 9.7.9 2 2.4 4.5 3.5 5.6 2.4 2.4 2.6 5 .4 5-1 0-1.4.6-1.1 1.5.4.8.1 1.7-.4 2.1-.6.3-.9 1.8-.6 3.1.3 1.9 0 2.7-1.4 3-1.1.3-1.9.9-1.9 1.4 0 .5-1.4.9-3 .9-1.7 0-2.9.3-2.8.7.4 1.2-2.8 5.4-3.5 4.6-.4-.3-.7.5-.7 1.9 0 2.5 2.7 5.8 4.8 5.8.7 0 1.2.7 1.2 1.5s-.5 1.5-1.1 1.5c-.8 0-.8.5.1 1.5 1.6 1.9 2.3 9.2 1 10-1.5.9 0 3.5 2 3.5 1 0 2.5-.6 3.2-1.4.8-.7 2.7-2 4.3-2.9 2.7-1.4 3.2-1.4 5.5.2 3.1 2.2 10.6 4.1 11.7 3 1-1 9.2 1.7 11.3 3.7 1 1 1.1 1.4.2 1.4-2.4 0-.3 1.7 2.8 2.3 2.1.5 3.4 1.6 4.3 3.9.9 2 1.1 3.8.5 4.4-.5.8 0 2.2 1.5 4 1.4 1.6 3.5 5.3 4.7 8.2 2.4 5.6 5.1 8.2 8.6 8.2 1.2 0 2.6 1 3.4 2.5.7 1.4 1.6 2.5 1.9 2.5.3 0 2.1.9 3.9 2 2.6 1.6 3.1 2.4 2.3 3.4-.8 1-.7 1.7.4 2.6 1 .9 1.4 2.3 1.1 3.9-.6 2.9 2.2 7.1 4.7 7.1.9 0 2.5 1.3 3.5 2.8 1.6 2.1 1.8 3.2 1 4.6-1 1.8-.8 1.8 3.3 1.2 2.4-.4 5.3-.7 6.4-.7 1 0 2.4-.4 3-.9.7-.6 2.6-.4 5 .5 4.4 1.4 6.2 1.1 4.5-1-1.1-1.3-.4-4.5 1.1-4.5.5 0 1.8.8 2.8 1.7 3.8 3.2 7.4 2.3 9.1-2.1.7-1.9.8-1.8 2.3.9 1.7 3.3 11.4 13.5 12.8 13.5.5 0 .9-1.3.9-2.9 0-4.2 1.7-8.1 3.5-8.1.8 0 1.5-.5 1.5-1.1 0-.6.9-.8 2-.4 1.5.5 2 .2 2-1 0-1.3.6-1.6 2.5-1.3 1.9.4 2.5.1 2.5-1.3 0-2.3.3-2.3 4.1-.3 1.8.9 3.8 1.2 4.7.8 1-.4 2.3-.6 3-.5.8.1 1.9-.4 2.5-1.2.7-.7 3.1-2 5.5-2.7 2.3-.7 4.2-1.7 4.2-2.1 0-.5 1.2-.4 2.6.1 3.5 1.4 4.4 1.3 4.4-.6 0-1.3.3-1.4 1.5-.4.8.6 1.8.9 2.3.6.6-.3 1.2.3 1.5 1.4.3 1.1 1 2 1.6 2 1.6 0 1.3-2.6-.4-4-1-.8-1.5-3-1.5-6.2 0-3.5-.6-5.8-2-7.5-2.4-3-2.5-4.3-.6-4.3 3.2 0 4-6.8 1.2-9.6-2.5-2.4-1.9-3.6 1.7-3.3 4.3.2 7.7-1 7.7-2.8 0-.8.9-1.7 2-2 2.5-.7 2.5-1.1-.1-4-1.6-1.6-1.9-2.6-1.2-3.5.6-.7 1.3-2.7 1.6-4.5.5-2.4.1-3.6-1.7-5.5-1.2-1.2-2.5-3-2.8-3.9-.4-.9-3.7-2.9-7.5-4.4-8.4-3.5-9.3-4.3-7.1-5.9 1.4-1 1.6-1.9.9-4.4-.7-2.2-.5-3.6.6-5.1.8-1.2 1.2-3 .8-4.1-.4-1.1-.2-2 .4-2 .6 0 2-.9 3-1.9 1.6-1.6 1.7-2.4.8-5.8-.8-3.2-.7-4.4.8-6.6.9-1.5 2.4-2.7 3.1-2.7.9 0 1.4-1.1 1.4-3 0-3.9 2.3-8.4 6.6-13.3 1.9-2 3.4-4.2 3.4-4.7 0-.6.7-1 1.6-1 1.1 0 1.3-.6.9-1.9-.3-1.1-.1-2.2.5-2.6.5-.3 1-3.7 1-7.5s.5-7.2 1-7.5c.6-.3 1-1.9 1-3.5s.8-3.5 1.8-4.2c2.3-1.7 2-4.3-1.2-9.8-1.4-2.5-2.9-5.2-3.2-6.2-.3-.9-1.7-1.9-3.1-2.3-3.2-.8-9.3-6.9-9.3-9.4 0-3.2 2.2-7.1 4-7.1 2.2 0 4-2 4-4.3 0-1.5.3-1.7 1.3-.8 1.1.8 1.7.7 2.8-.7 2.6-3.2 3.9-6.1 3.3-7.5-.3-.8.2-1.7 1-2 2.5-1 .8-4-1.9-3.3-1.2.3-2.5.3-2.9-.1-.3-.4-2.7-.9-5.2-1.1-2.8-.2-5.5-1.1-6.7-2.3-1.1-1-2.4-1.9-2.8-1.9-.5 0-1.1-1.6-1.5-3.5-.8-4.6-7.1-11.5-10.7-11.9-1.5-.1-3.8-1.2-5-2.4-1.3-1.2-2.8-2.2-3.3-2.2-1.3 0-6.8-5.8-8.3-8.7-.6-1.2-1.1-3.2-1.1-4.4 0-1.2-.3-1.9-.7-1.6-.3.4-2-.3-3.7-1.6-2.7-2.1-9.7-5.7-10.8-5.7-.3 0-.3 1.5-.1 3.2zm-118.8 81.2c1.9 2.3-.5 2.8-3 .6-2.4-1.9-2.4-1.9-.3-2 1.2 0 2.7.6 3.3 1.4zM373.931 365.152c.4 1.7.2 2-1.1 1.5s-1.7-.1-1.7 1.9c0 2.3-.4 2.6-2.5 2.2-2.4-.5-2.4-.4-2.4 6.1.1 8.5 1.2 10.1 7.5 10.3 2.7.1 6.6 1 8.6 2 4.3 2.1 7.9 2.3 9.6.6.9-.9 1.6-.8 3 .6 1.2 1 3.3 1.6 5.5 1.4l3.6-.2-2-2.7c-1-1.5-1.9-3.1-1.9-3.6-.1-1.5-4.9-6.7-5.6-6-1 .9-4.4-1.1-4.4-2.7 0-1.3-4.1-3.6-6.5-3.6-.7 0-3.3-2.3-5.8-5-3.1-3.4-4.3-4.3-3.9-2.8zm-.7 8.1c-.8.8-1.1.7-1.1-.4 0-2 1.3-3.4 1.8-1.9.3.7-.1 1.7-.7 2.3zM363.231 384.852c-.9.6-1 1.4-.5 2.4 1.2 2.1 3.3.7 2.5-1.5-.4-1.2-1.1-1.4-2-.9zM1.131 418.052c0 .5.5.7 1 .4.6-.3 1-.8 1-1.1 0-.2-.4-.4-1-.4-.5 0-1 .5-1 1.1zM370.231 470.352c-1.7 2.1-.7 4.6 1.9 4.6 2.3 0 2.4-.6.6-3.8-1.1-2.1-1.4-2.2-2.5-.8zM227.431 472.152c.4 1.2.2 1.5-.8 1.2-.7-.3-1.6.3-2 1.5-.4 1.3-1.5 2.1-2.9 2.1-1.2 0-2.7.5-3.4 1.2-.8.8-2 .4-4.8-1.7-2.9-2.2-3.8-2.5-4.5-1.4-1.2 2-1.1 5.7.3 6.5.8.5.7 1-.3 1.8-.8.6-1.5 2.1-1.6 3.3-.3 2.1.2 2.3 4 2.3 5 0 8.1 2.7 8.3 7.2.2 3-.5 3.5-2.3 1.7-.9-.9-1-.7-.6 1 .3 1.3 1.3 2.1 2.6 2.1 1.1 0 3.6 1.2 5.5 2.7l3.5 2.6-.7-4.2c-.4-2.8-.2-4.8.5-5.7.6-.8.9-2.1.5-2.9-.3-.9 0-1.5 1-1.5 1.1 0 1.3-.6.9-2.1-.6-1.9-.4-2.1 1.9-1.7 2 .4 2.6.1 2.6-1.3 0-1.5.8-1.9 3.9-1.9 2.2 0 4.4-.6 5.1-1.5 2-2.4.5-2.8-3.3-1-3.3 1.5-3.7 1.5-6 0-1.4-.9-3-3-3.6-4.6-.5-1.6-1.8-3.9-2.7-5.2-1-1.4-1.4-1.6-1.1-.5zM249.731 478.852c-1.5.6-1.6 1-.7 1.5.8.5 2 .2 2.9-.8 1.7-1.7.9-1.9-2.2-.7z"/><path d="M399.131 526.052c0 .5.5.7 1 .4.6-.3 1-.8 1-1.1 0-.2-.4-.4-1-.4-.5 0-1 .5-1 1.1zM602.131 553.352c0 .9.5 1.6 1 1.6.6 0 1-.4 1-.9 0-.6-.4-1.3-1-1.6-.5-.3-1 .1-1 .9zM83.831 560.352c-.4 1-.1 1.3.8.9.8-.3 1.2-.9.9-1.4-.7-1.2-1.1-1.1-1.7.5zM97.431 560.352c-1.3.6-2.3 1.4-2.3 1.8 0 .5-.9.8-2.1.8-1.1 0-1.8-.4-1.5-.9.3-.5-.4-.8-1.7-.7-1.9.1-2.2.7-2.3 4.6 0 2.5-.4 5.5-.8 6.6-.6 1.6-.2 2.7 1.2 4 1.8 1.7 1.9 2.3.8 5.6-1.1 3.1-1.1 3.9.3 5.3 1.5 1.4 1.4 1.6-.7 2.1-2.3.7-3.1 4.1-1.2 6 1.2 1.2.1 5.4-1.5 5.4-.7 0-1.5 1.2-1.8 2.7-.6 3 .2 4.7 1.1 2.4 1.1-3.3 4.1-4.9 10.3-5.5 3.6-.4 7.3-.4 8.3 0 1.5.6 1.8.4 1.3-.8-.3-1 0-1.9.9-2.2.9-.3 1.4-1.4 1.2-2.3-.1-1 .5-3.3 1.4-5.1 1.1-2.1 1.5-4.5 1.1-6.3-.4-2.2-.2-2.9 1.1-2.9 2.6 0 1.9-3.8-1.1-5.3l-2.7-1.5 2.2-1.3c2.9-1.8 3.2-7.9.3-7.9-1 0-3.5-1.4-5.6-3-2.1-1.7-3.8-2.9-3.9-2.9 0 .1-1.1.6-2.3 1.3zM535.131 629.652c0 1.1 1.2 2.6 3.5 4.3 1.9 1.4 2 1.4.3-.6-1-1.1-1.8-2.6-1.8-3.2 0-.7-.4-1.2-1-1.2-.5 0-1 .3-1 .7z"/></g></svg>