<?xml version="1.0" standalone="no"?>
<!DOCTYPE svg PUBLIC "-//W3C//DTD SVG 20010904//EN"
 "http://www.w3.org/TR/2001/REC-SVG-20010904/DTD/svg10.dtd">
<svg version="1.0" xmlns="http://www.w3.org/2000/svg"
 width="1001.126691pt" height="644.198657pt" viewBox="0 0 1001.126691 644.198657"
 preserveAspectRatio="xMidYMid meet">
<metadata>
Created by potrace 1.15, written by Peter Selinger 2001-2017
</metadata>
<g transform="translate(-533.359864,1327.620549) scale(0.100000,-0.100000)"
fill="#222222" stroke="none">
<path d="M7163 13264 c-7 -7 -13 -27 -13 -44 0 -18 -6 -33 -15 -36 -8 -4 -15
-15 -15 -25 0 -18 -1 -19 -25 -3 -13 8 -29 13 -34 10 -5 -4 -12 -2 -16 4 -8
13 -72 13 -80 0 -3 -5 -15 -10 -26 -10 -35 0 -20 -56 20 -71 18 -7 22 -12 12
-18 -15 -10 18 -21 62 -21 53 0 67 -15 62 -65 -4 -45 -4 -45 28 -45 21 0 36 7
44 19 6 10 25 21 42 24 27 6 32 12 37 47 4 23 13 47 20 54 7 8 11 16 9 18 -3
2 -1 28 4 56 4 29 4 55 0 58 -5 3 -9 16 -9 29 0 30 -12 38 -42 26 -13 -5 -31
-5 -39 -1 -8 5 -19 3 -26 -6z"/>
<path d="M7087 12923 c-27 -4 -28 -5 -10 -18 26 -20 39 -18 39 5 0 11 0 19 -1
19 0 -1 -13 -4 -28 -6z"/>
<path d="M6985 12884 c-47 -22 -50 -26 -50 -61 0 -21 3 -41 8 -44 4 -3 2 -20
-4 -39 -9 -25 -9 -37 0 -52 7 -11 10 -22 7 -25 -3 -3 5 -14 17 -24 12 -10 17
-18 11 -19 -6 0 -16 -12 -22 -26 -7 -14 -17 -22 -22 -19 -6 4 -17 2 -24 -4 -8
-7 -23 -7 -46 -1 -18 5 -36 8 -40 5 -3 -2 -19 9 -34 26 -18 19 -38 29 -56 29
-16 0 -32 5 -35 10 -9 14 -27 1 -21 -15 3 -8 0 -15 -6 -17 -6 -2 3 -19 20 -36
31 -32 36 -45 33 -89 -3 -30 12 -35 50 -18 19 8 30 14 24 15 -5 0 -3 5 5 10
10 6 20 4 31 -6 20 -18 51 -12 116 22 50 27 63 24 63 -12 0 -17 -6 -24 -19
-24 -35 0 -51 -12 -51 -37 0 -16 -4 -23 -12 -20 -50 20 -49 21 -39 -6 8 -19 6
-29 -8 -43 -30 -31 -61 -54 -71 -54 -13 0 -13 -57 0 -62 5 -1 11 -13 13 -25 2
-12 10 -30 19 -40 18 -21 32 -86 23 -113 -4 -12 -13 -17 -25 -15 -11 2 -20 0
-20 -6 0 -5 -7 -9 -15 -9 -8 0 -12 -6 -10 -12 3 -7 -8 -21 -25 -30 -16 -9 -30
-24 -30 -33 0 -8 -5 -15 -11 -15 -6 0 -8 -8 -4 -19 6 -20 -30 -55 -47 -45 -4
3 -8 1 -8 -4 0 -18 -33 -22 -56 -7 -21 13 -23 13 -18 0 3 -8 0 -17 -7 -20 -19
-7 -22 -62 -4 -69 8 -3 15 -14 15 -25 0 -11 5 -23 10 -26 6 -3 10 -15 10 -26
0 -11 -4 -17 -10 -14 -24 15 11 -44 54 -90 33 -37 46 -58 46 -80 0 -17 5 -36
10 -41 6 -6 20 -48 30 -93 11 -45 25 -91 31 -102 9 -17 5 -26 -25 -54 -20 -19
-36 -37 -36 -42 0 -5 11 -24 23 -43 17 -24 39 -39 73 -50 45 -15 51 -21 67
-65 16 -44 16 -49 2 -65 -11 -12 -13 -20 -6 -25 6 -3 11 -16 12 -28 0 -12 3
-16 6 -10 3 9 15 5 39 -14 30 -22 33 -28 19 -35 -8 -5 -13 -13 -10 -18 3 -5
-6 -3 -21 5 -15 7 -31 20 -35 27 -7 10 -9 9 -9 -3 0 -20 -31 -20 -43 -1 -7 11
-12 10 -27 -3 -12 -11 -26 -14 -39 -10 -13 4 -21 2 -21 -5 0 -18 -20 0 -31 27
-7 20 -14 24 -33 19 -23 -6 -23 -4 -30 92 -5 55 -13 100 -19 104 -9 6 -9 10 2
17 8 5 11 16 7 29 -4 11 -2 23 4 27 5 3 10 14 10 24 0 13 -13 21 -51 29 -64
15 -70 15 -63 -1 3 -8 -2 -20 -11 -27 -10 -9 -12 -16 -5 -25 7 -8 -1 -22 -28
-48 -20 -19 -50 -49 -67 -66 -21 -22 -40 -31 -61 -31 -32 0 -40 -11 -59 -77
-3 -13 -11 -23 -16 -23 -13 0 -11 -44 3 -58 9 -9 9 -18 0 -37 -9 -20 -9 -30 1
-46 10 -17 9 -22 -6 -34 -10 -7 -17 -22 -15 -32 2 -10 -4 -27 -14 -37 -10 -11
-18 -28 -18 -38 0 -20 -34 -25 -46 -7 -5 8 -8 8 -14 0 -4 -8 -14 -9 -31 -2
-16 5 -31 5 -42 0 -9 -6 -29 -9 -44 -7 -23 3 -27 -1 -29 -24 -2 -16 2 -28 8
-28 13 0 1 -52 -16 -65 -7 -5 -21 -25 -31 -42 -11 -18 -27 -33 -37 -33 -9 0
-40 -5 -67 -11 l-51 -11 15 -28 c8 -16 15 -45 15 -64 0 -20 11 -61 25 -92 l25
-57 -22 -16 c-13 -9 -26 -16 -29 -16 -3 0 -20 -12 -37 -27 l-33 -27 23 -27
c41 -48 49 -54 73 -54 16 0 24 -7 27 -25 3 -14 1 -28 -4 -31 -5 -3 -6 -18 -3
-34 5 -24 2 -28 -19 -34 -15 -3 -26 -11 -26 -16 0 -6 -8 -18 -19 -29 -10 -10
-21 -25 -23 -32 -4 -11 -9 -12 -27 -1 -24 14 -61 16 -61 3 0 -5 -2 -16 -6 -24
-3 -8 7 -28 21 -46 22 -25 24 -32 11 -37 -12 -5 -13 -10 -4 -30 10 -20 8 -31
-6 -55 -12 -21 -16 -41 -12 -63 5 -27 2 -35 -18 -46 -21 -11 -23 -16 -14 -36
6 -13 22 -31 35 -39 13 -9 22 -19 19 -23 -2 -4 4 -19 14 -32 18 -24 19 -24 33
-6 16 21 83 29 105 13 9 -7 18 -5 30 7 14 14 15 20 4 37 -13 20 -12 21 20 14
18 -4 37 -14 43 -21 5 -8 24 -16 40 -20 23 -4 35 -1 49 15 l19 21 35 -22 c30
-18 55 -24 118 -27 6 -1 14 -18 18 -39 3 -24 17 -49 36 -67 34 -32 50 -27 30
10 -7 14 -11 27 -8 31 3 3 12 -9 19 -25 15 -35 24 -38 33 -15 3 8 14 14 23 12
9 -2 31 9 47 24 36 33 36 33 84 12 20 -10 45 -16 55 -15 25 3 21 -26 -5 -32
-20 -6 -20 -7 10 -42 29 -32 32 -42 32 -98 0 -40 -6 -70 -15 -84 -14 -21 -14
-24 5 -43 11 -11 25 -18 30 -15 6 3 9 -5 8 -19 -3 -28 -8 -32 -25 -15 -8 8
-13 8 -17 0 -9 -14 -61 -14 -88 0 -26 14 -49 -4 -30 -23 7 -7 12 -25 12 -40 0
-16 6 -31 14 -34 8 -3 17 -18 21 -32 3 -15 20 -37 38 -49 40 -28 48 -29 41 -5
-4 11 1 9 14 -7 14 -18 34 -26 72 -31 l52 -7 -6 28 c-5 26 -4 28 17 18 13 -6
27 -20 32 -32 12 -26 55 -36 55 -13 0 9 8 16 20 16 11 0 26 12 34 28 8 16 22
34 30 41 9 8 16 27 16 43 0 16 9 47 19 69 11 22 17 47 14 55 -7 20 20 18 47
-4 30 -24 93 -18 85 8 -4 11 0 22 10 28 9 5 18 13 18 18 1 5 24 9 50 9 36 0
51 5 58 18 6 9 17 17 24 17 8 0 15 4 15 9 0 12 31 8 59 -8 21 -11 25 -11 33 3
7 12 14 13 34 6 14 -6 30 -8 35 -4 5 3 22 -1 38 -9 27 -13 31 -13 60 10 27 22
39 24 84 19 29 -3 63 -5 77 -5 14 0 49 -13 77 -28 46 -24 55 -26 74 -15 18 12
24 10 46 -12 31 -31 53 -33 60 -6 3 11 10 20 16 20 5 0 2 9 -8 20 -15 17 -16
20 -3 15 11 -4 18 0 22 12 5 16 16 19 73 18 38 -1 78 -5 91 -9 25 -8 56 9 46
26 -4 6 2 5 14 -1 11 -6 30 -11 41 -11 38 0 21 -39 -31 -73 -17 -11 -25 -23
-22 -32 4 -8 -6 -31 -20 -49 -25 -34 -26 -64 -2 -68 6 0 16 -2 21 -2 6 -1 16
-5 22 -9 16 -10 53 9 53 27 0 7 13 16 28 19 18 4 33 16 41 33 10 22 14 25 22
13 7 -12 9 -12 9 1 0 9 -6 22 -12 29 -11 10 -10 15 4 25 16 12 16 14 -2 44
-11 18 -25 32 -30 32 -6 0 -10 8 -8 18 1 9 -1 23 -5 30 -9 13 27 72 44 72 6 0
7 5 3 12 -14 23 -22 88 -10 88 6 0 3 7 -7 14 -15 12 -15 15 -2 26 8 7 15 19
15 27 0 13 3 13 16 2 13 -11 14 -9 8 16 -5 20 -4 26 5 21 6 -4 11 -1 11 8 0
19 -20 31 -44 27 -10 -1 -15 2 -12 7 12 20 -17 61 -50 72 -19 7 -34 18 -34 26
0 8 -12 28 -27 45 -27 29 -30 39 -46 159 -2 14 -7 36 -11 48 -7 22 -7 23 16
11 12 -7 42 -14 66 -15 38 -1 46 2 70 32 15 19 32 34 39 34 6 0 15 9 18 20 5
14 12 19 24 15 15 -4 20 2 25 34 5 31 11 40 32 45 14 4 31 3 37 -2 7 -5 25
-12 40 -14 27 -5 28 -4 22 21 -7 24 -13 73 -14 113 -1 14 -7 16 -31 12 -24 -5
-35 -1 -60 25 -26 25 -29 33 -18 45 7 7 19 11 27 8 17 -6 6 35 -17 61 -14 15
-13 17 6 17 16 0 20 4 15 16 -3 10 0 20 9 25 10 5 14 18 10 34 -4 21 -1 25 20
25 34 0 63 32 50 57 -9 18 -8 47 6 138 8 54 11 56 70 28 17 -8 43 -13 56 -11
18 4 28 -1 37 -19 7 -13 23 -26 36 -29 13 -4 23 -10 23 -14 0 -4 7 -11 16 -14
8 -3 13 -2 10 2 -2 4 17 8 42 9 40 1 51 -2 73 -27 20 -21 32 -27 52 -23 23 5
25 8 16 25 -9 17 -8 19 13 16 46 -6 52 30 14 81 -6 8 -10 23 -8 35 4 30 -32
98 -45 85 -7 -7 -19 0 -37 21 -15 19 -32 30 -40 27 -9 -4 -22 5 -31 20 -17 26
-17 26 6 18 37 -13 109 -7 135 10 13 8 31 15 41 15 19 0 89 -77 79 -87 -11
-12 48 -41 61 -31 7 6 26 8 43 6 24 -4 30 -1 30 14 0 19 15 24 25 8 3 -5 13
-10 21 -10 8 0 12 4 9 10 -4 7 3 7 20 0 24 -9 28 -7 38 19 10 28 66 59 86 47
5 -3 11 1 15 9 3 8 15 15 26 15 16 0 20 7 20 30 0 23 6 33 25 40 27 10 32 29
13 48 -9 9 -7 13 7 18 10 4 27 16 38 27 17 17 20 17 31 2 11 -15 13 -15 25 -1
12 14 12 16 -3 10 -19 -7 -19 -6 -5 33 8 24 15 30 31 25 12 -3 26 1 32 9 18
23 64 49 86 49 17 0 21 5 18 28 -2 21 1 27 17 27 12 0 21 9 25 25 4 17 16 27
38 34 18 5 32 13 32 17 0 5 9 9 19 9 10 0 21 6 24 14 6 16 30 11 105 -20 42
-18 52 -18 52 1 0 17 18 19 39 6 12 -8 12 -12 2 -25 -11 -13 -11 -19 -1 -31
10 -12 10 -19 2 -27 -7 -7 -12 -22 -12 -34 0 -27 50 -80 60 -63 6 8 9 8 14 0
4 -6 18 -11 31 -11 19 0 26 -7 31 -27 4 -16 11 -34 17 -40 6 -9 6 -13 -2 -13
-22 0 -11 -16 25 -35 20 -10 48 -18 64 -17 17 1 30 -4 34 -13 5 -14 9 -14 33
-1 25 13 32 12 74 -10 27 -13 49 -32 52 -45 3 -11 9 -19 14 -16 13 8 45 -20
41 -36 -4 -19 1 -21 26 -11 12 5 22 2 28 -10 5 -9 21 -21 34 -27 14 -5 22 -13
19 -19 -3 -5 5 -15 19 -22 21 -9 26 -18 26 -50 0 -24 5 -41 14 -44 8 -3 13
-11 10 -18 -2 -6 9 -27 26 -46 16 -18 30 -37 30 -41 0 -4 14 -12 32 -18 17 -6
45 -22 63 -35 30 -23 32 -24 43 -5 7 10 12 25 12 33 0 8 5 16 11 18 9 3 9 10
0 26 -11 21 -10 22 23 22 19 0 41 2 48 5 20 8 52 -86 45 -132 -4 -20 -12 -40
-18 -44 -9 -5 2 -25 35 -66 63 -75 96 -143 96 -192 0 -22 5 -43 10 -46 6 -3
10 -22 10 -40 0 -20 14 -60 35 -98 33 -59 34 -67 26 -113 -5 -27 -7 -52 -5
-56 3 -4 0 -17 -6 -28 -7 -13 -7 -20 0 -20 5 0 10 -17 10 -39 0 -27 -6 -43
-20 -52 -19 -14 -19 -15 9 -69 29 -57 36 -138 16 -171 -16 -25 -15 -44 3 -59
22 -18 45 -70 32 -70 -5 0 -7 -6 -5 -13 4 -8 21 -11 50 -9 37 3 45 1 45 -13 0
-11 5 -15 15 -11 9 3 20 -3 27 -14 7 -11 20 -20 28 -20 21 0 40 -20 40 -42 0
-11 -7 -18 -18 -18 -11 0 -34 -7 -52 -16 -27 -14 -39 -15 -71 -5 -31 10 -44 9
-67 -3 -27 -14 -30 -13 -64 18 -20 18 -39 47 -43 64 -5 27 -11 32 -33 31 -17
-1 -21 -3 -9 -6 18 -5 24 -43 6 -43 -7 0 -9 -10 -7 -25 6 -30 -43 -88 -84 -98
-33 -9 -54 -55 -41 -94 9 -25 6 -31 -21 -50 -16 -13 -36 -23 -43 -23 -19 0 -6
-51 18 -70 15 -12 18 -23 13 -48 -6 -29 -4 -32 18 -32 26 0 41 -22 52 -72 3
-14 9 -34 13 -44 4 -12 3 -15 -5 -10 -8 5 -12 -2 -12 -19 0 -20 -4 -26 -15
-21 -9 3 -15 0 -15 -8 0 -17 33 -46 53 -46 28 0 58 -42 55 -75 -2 -25 -7 -29
-26 -27 -20 3 -22 0 -16 -24 5 -18 3 -25 -3 -21 -6 4 -13 1 -16 -7 -4 -11 -14
-12 -39 -7 -32 7 -33 7 -33 -23 0 -27 -4 -31 -43 -40 -33 -9 -40 -14 -31 -23
6 -6 18 -9 25 -6 13 5 19 -14 15 -40 -1 -5 3 -6 8 -3 10 6 23 -18 26 -46 1
-10 -2 -18 -6 -18 -5 0 -9 -6 -9 -14 0 -14 -35 -30 -59 -26 -8 1 -22 -8 -31
-21 -16 -21 -16 -23 1 -40 24 -24 26 -105 3 -137 -9 -14 -11 -22 -4 -22 6 0 9
-8 6 -18 -4 -12 1 -26 14 -37 20 -18 28 -55 11 -55 -5 0 -7 -9 -4 -20 3 -11 1
-20 -4 -20 -5 0 -20 -10 -33 -22 -14 -13 -26 -22 -27 -20 -13 11 -24 -2 -19
-23 5 -21 2 -25 -33 -36 -30 -9 -38 -16 -33 -28 5 -13 3 -14 -9 -4 -11 9 -18
8 -32 -2 -16 -11 -15 -13 11 -24 37 -16 54 -44 43 -73 -8 -21 -6 -24 18 -23
21 0 27 -5 29 -29 3 -20 0 -26 -9 -21 -7 5 -10 4 -6 -2 4 -6 19 -8 33 -5 24 4
26 2 22 -16 -4 -12 0 -26 8 -33 8 -6 14 -17 14 -24 0 -7 14 -18 30 -25 17 -7
30 -15 30 -19 0 -15 53 -62 59 -52 10 16 103 -29 96 -47 -3 -7 2 -23 10 -35
19 -28 19 -57 0 -57 -39 0 6 -65 52 -76 13 -4 23 -14 23 -24 0 -29 73 -35 122
-10 45 23 51 24 46 9 -2 -7 5 -22 16 -35 15 -16 24 -20 33 -12 7 6 20 7 29 4
21 -8 54 20 54 46 0 16 5 18 35 12 31 -5 35 -4 35 14 0 12 9 30 20 40 11 10
18 25 15 33 -3 8 1 23 9 34 14 20 15 20 38 -1 44 -39 99 -67 110 -56 8 8 18 5
37 -8 32 -24 128 -32 123 -11 -2 9 3 11 14 7 10 -4 20 -2 24 4 4 6 22 1 51
-15 24 -14 52 -28 61 -31 10 -4 15 -11 11 -17 -3 -6 -1 -7 5 -3 19 12 14 26
-10 27 -16 0 -18 2 -8 6 8 3 17 10 20 14 8 12 50 -19 50 -37 0 -8 4 -14 9 -14
14 0 22 -31 11 -45 -6 -7 -6 -15 1 -22 8 -8 8 -17 0 -31 -7 -14 -8 -29 -1 -46
5 -14 7 -26 4 -26 -4 0 -1 -7 6 -15 14 -17 69 -10 86 11 10 12 13 12 23 0 9
-11 18 -11 46 -2 19 7 37 15 41 19 6 5 43 -11 54 -24 3 -4 15 -9 27 -13 17 -5
24 -1 34 22 12 29 58 62 85 62 8 0 14 6 14 14 0 15 62 29 70 15 3 -5 14 0 23
11 9 11 24 20 32 20 19 0 85 69 85 88 0 8 10 13 23 12 43 -4 47 -1 47 39 0 22
5 43 10 46 16 10 11 40 -11 69 l-21 27 21 6 c12 3 21 13 21 24 0 11 5 19 11
19 6 0 9 10 8 23 -3 29 17 77 33 77 9 0 9 3 0 12 -17 17 -192 19 -199 1 -4 -9
-16 -11 -44 -7 -33 6 -38 4 -33 -9 3 -10 -2 -17 -14 -21 -11 -4 -22 -16 -25
-28 -5 -17 -11 -19 -39 -14 -18 4 -44 7 -58 7 -14 1 -32 7 -42 16 -9 8 -26 13
-38 11 -15 -2 -28 5 -37 20 -11 15 -12 22 -4 22 7 0 9 5 6 11 -4 5 -9 45 -12
87 -3 42 -9 85 -14 94 -5 9 -9 28 -9 42 0 19 -5 26 -19 26 -10 0 -24 6 -30 14
-6 7 -32 19 -56 26 -25 7 -45 19 -45 26 0 17 -42 18 -58 2 -20 -20 -65 -16
-104 8 -32 20 -38 22 -38 8 0 -12 -6 -15 -26 -10 -18 5 -32 2 -45 -9 -10 -10
-22 -14 -27 -11 -5 3 -21 -7 -36 -23 -14 -15 -34 -27 -44 -26 -30 2 -126 91
-116 107 3 5 0 16 -7 24 -11 13 -9 14 12 9 27 -7 56 16 44 35 -3 5 -1 10 4 10
6 0 11 14 11 30 0 24 4 30 23 30 31 0 50 42 29 64 -15 14 -15 17 1 29 17 12
24 39 17 62 -7 19 35 90 93 160 49 59 58 75 55 103 -3 21 0 32 9 32 7 0 13 5
13 10 0 6 -4 10 -9 10 -4 0 -11 26 -14 58 -4 32 -9 65 -12 74 -4 9 3 19 20 26
14 6 25 18 25 26 0 7 7 16 15 20 8 3 15 14 15 24 0 10 16 33 35 52 30 29 34
39 29 66 -4 22 -2 33 9 37 15 6 12 42 -8 90 -5 12 -2 17 8 17 23 0 2 54 -30
80 -14 11 -23 26 -20 34 3 7 0 19 -6 25 -6 6 -13 31 -14 54 -7 122 -16 173
-35 194 -11 12 -18 26 -14 31 3 5 1 24 -4 42 -8 27 -6 38 6 51 15 16 15 22 -1
63 -9 24 -14 49 -11 55 4 5 -11 20 -33 33 -27 16 -42 33 -50 58 -7 22 -7 36
-1 38 16 6 11 45 -10 79 -11 18 -25 30 -32 28 -7 -3 -30 1 -50 8 -29 10 -44
24 -63 60 -15 29 -20 47 -12 47 6 0 -3 13 -21 29 -18 17 -32 40 -32 52 0 13
-12 36 -27 52 -16 17 -22 26 -14 22 12 -7 13 1 8 41 -3 27 -3 43 0 37 8 -22
43 -15 43 8 0 11 5 17 10 14 17 -10 21 17 12 82 l-9 62 31 7 c34 7 76 41 76
62 0 6 7 12 15 12 8 0 15 5 15 11 0 6 12 9 28 7 19 -2 27 -8 26 -20 -1 -10 2
-18 7 -18 5 0 9 5 9 11 0 6 9 9 20 6 15 -4 20 0 20 14 0 19 13 27 75 46 17 4
31 14 31 21 3 22 4 22 24 2 11 -11 30 -20 43 -20 21 -1 21 -1 4 -14 -10 -8
-16 -20 -15 -27 2 -9 -4 -13 -14 -11 -11 2 -18 -3 -18 -13 0 -12 4 -14 19 -5
11 5 21 6 23 2 2 -4 24 -6 50 -4 35 3 45 7 41 18 -3 8 -1 14 4 14 5 0 9 17 10
38 0 20 4 50 8 65 5 20 3 33 -10 47 -15 16 -15 22 -5 35 8 10 9 15 1 15 -6 0
-11 6 -11 13 0 14 -36 49 -67 65 -12 7 -24 20 -28 29 -7 20 -69 63 -91 63 -8
0 -20 11 -26 25 -6 14 -15 25 -21 25 -5 0 -22 11 -39 25 -16 13 -47 29 -68 35
-31 8 -41 17 -46 38 -4 15 -15 38 -26 51 -10 13 -18 36 -18 51 0 32 -37 70
-68 70 -16 0 -22 6 -22 24 0 13 -7 29 -15 36 -10 8 -12 17 -6 29 6 10 5 24 -2
36 -11 20 -12 23 -16 60 -1 12 -8 1 -18 -27 -11 -33 -21 -48 -33 -48 -13 0
-19 -11 -24 -40 -4 -25 -12 -40 -20 -40 -14 0 -16 -23 -3 -36 13 -13 7 -24
-14 -24 -13 0 -18 4 -13 13 6 8 3 8 -9 -1 -9 -8 -21 -11 -27 -7 -6 4 -10 -4
-10 -20 0 -14 4 -24 9 -21 5 3 12 -6 15 -20 10 -37 -37 -104 -71 -104 -15 0
-23 -5 -20 -12 2 -7 12 -13 23 -13 12 0 18 -7 17 -18 0 -10 9 -23 20 -28 12
-6 30 -27 40 -47 10 -20 29 -57 42 -82 13 -25 24 -56 25 -69 0 -13 3 -22 6
-18 4 3 13 0 20 -8 16 -16 19 -29 4 -20 -7 4 -9 -4 -6 -21 6 -33 -11 -48 -31
-28 -8 8 -20 14 -26 13 -9 0 -8 -2 1 -6 16 -6 16 -24 0 -20 -7 1 -14 -9 -16
-21 -3 -18 -9 -23 -22 -19 -13 3 -21 -1 -25 -13 -7 -21 -38 -36 -43 -21 -6 17
-70 13 -79 -4 -5 -8 -24 -18 -42 -21 -26 -5 -32 -4 -26 5 4 8 -3 24 -19 40
-25 26 -26 32 -17 70 7 34 6 43 -5 48 -8 3 -12 9 -9 13 3 4 -11 11 -30 14 -31
6 -53 34 -47 58 1 4 -4 5 -12 2 -7 -3 -19 2 -26 10 -7 9 -16 13 -21 10 -5 -3
-9 -1 -9 4 0 6 -12 13 -26 16 -30 8 -89 64 -90 87 -1 9 7 15 20 15 17 -1 21 5
20 26 -1 33 9 37 91 36 58 -1 111 -21 100 -38 -3 -4 2 -13 10 -20 8 -7 13 -15
11 -19 -2 -3 6 -7 19 -7 16 -1 22 3 18 11 -2 8 -11 11 -18 9 -13 -5 -48 80
-44 108 4 33 -3 48 -26 54 -14 3 -32 15 -39 26 -9 12 -16 16 -21 9 -14 -24
-45 -9 -80 39 -21 28 -50 57 -66 65 -25 14 -29 13 -38 -3 -9 -16 -10 -16 -16
0 -4 10 -11 15 -17 12 -5 -3 -12 3 -15 15 -3 14 -13 21 -29 21 -17 0 -24 6
-24 20 0 11 -4 20 -10 20 -5 0 -16 13 -25 29 -8 17 -25 31 -37 33 -14 2 -24
12 -28 28 -5 20 -12 25 -36 24 -42 -1 -61 29 -24 39 31 8 24 24 -20 44 -29 13
-39 23 -36 35 2 10 -2 22 -10 29 -19 16 -17 29 4 29 35 0 57 26 54 63 -2 19 2
38 8 42 13 8 3 45 -16 60 -7 5 -16 22 -20 38 -5 23 -3 27 16 27 20 0 22 4 16
33 -4 17 -8 47 -9 65 -1 19 -9 39 -17 45 -23 19 -60 75 -60 92 0 8 5 24 12 34
18 29 -5 52 -44 44 -26 -5 -35 0 -69 37 l-39 42 11 -32 c9 -25 9 -34 -1 -40
-7 -4 -9 -13 -6 -19 4 -6 0 -11 -9 -11 -8 0 -21 -11 -27 -25 -6 -13 -20 -27
-32 -31 -41 -11 -86 -35 -86 -45 0 -13 -90 -53 -113 -50 -10 1 -24 -3 -32 -9
-9 -8 -20 -8 -31 -2 -12 7 -21 6 -30 -3 -13 -13 -124 -4 -174 15 -14 5 -40 12
-57 15 -28 6 -33 4 -33 -13 0 -16 -5 -19 -21 -15 -19 5 -20 4 -10 -15 10 -19
8 -22 -13 -28 -14 -3 -27 -13 -29 -22 -3 -10 -5 -3 -6 14 0 18 -7 34 -16 38
-8 3 -15 12 -15 19 0 16 -56 21 -65 7 -3 -5 -17 -5 -32 1 -35 13 -50 -2 -35
-35 7 -16 8 -27 1 -31 -5 -4 -7 -11 -3 -16 3 -6 -2 -19 -11 -29 -11 -12 -13
-20 -6 -25 6 -3 11 -17 11 -31 0 -24 -3 -25 -51 -22 -28 2 -55 9 -61 16 -6 6
-17 12 -24 12 -8 0 -34 16 -60 35 -40 31 -47 33 -60 20 -9 -8 -22 -15 -30 -15
-8 0 -14 -5 -14 -11 0 -11 -87 -2 -105 11 -9 7 -27 7 -87 2 -13 -2 -20 -14
-24 -42 -5 -33 -11 -41 -33 -46 -14 -3 -31 -7 -38 -9 -6 -2 -24 5 -38 17 -21
16 -36 19 -76 16 -49 -5 -57 0 -49 37 1 5 3 30 4 55 2 39 -3 52 -38 100 -23
30 -49 64 -58 74 -10 11 -18 23 -18 26 0 12 -50 30 -80 30 -16 0 -31 4 -34 9
-3 5 -15 7 -26 4 -23 -6 -26 9 -6 27 13 10 11 17 -14 51 -30 41 -30 74 -1 65
9 -3 22 -2 30 3 11 7 11 10 -2 17 -8 5 -22 25 -30 46 l-15 36 31 -13 c24 -10
35 -23 44 -52 6 -21 12 -31 12 -22 1 25 33 33 48 13 11 -15 13 -16 13 -2 0 9
-7 19 -15 22 -12 4 -13 10 -6 24 7 13 6 23 -2 31 -9 10 -8 14 6 22 14 8 16 18
11 52 -3 23 -15 49 -25 59 -10 9 -20 27 -22 40 -2 12 -14 28 -25 34 -12 6 -31
19 -42 29 -12 11 -20 13 -20 6 0 -7 -5 -9 -12 -5 -7 4 -8 3 -4 -4 7 -11 4 -19
-27 -77 -13 -25 -21 -29 -48 -27 -29 3 -31 2 -26 -19 3 -13 2 -28 -4 -35 -7
-8 -7 -14 1 -19 19 -12 10 -35 -16 -41 -18 -5 -23 -11 -18 -23 3 -9 8 -26 9
-37 4 -29 23 -64 35 -64 6 0 10 -14 10 -30 0 -27 -2 -29 -19 -19 -10 7 -16 20
-14 29 3 10 -2 20 -11 23 -9 4 -16 2 -16 -3 0 -6 -12 -10 -28 -10 -15 0 -38
-7 -50 -16 -13 -9 -31 -13 -42 -9 -11 3 -25 3 -32 -1 -7 -5 -68 -9 -136 -10
l-123 -1 -55 39 c-30 21 -59 38 -64 38 -6 0 -10 11 -10 24 0 27 -24 50 -52 51
-14 0 -24 12 -33 39 -15 44 -29 56 -65 56 -14 0 -40 9 -58 20 -18 11 -39 20
-48 20 -8 0 -36 11 -62 25 -26 14 -57 25 -69 25 -13 0 -23 6 -23 14 0 8 -15
18 -32 22 -18 4 -35 8 -38 9 -3 1 -18 5 -35 9 -16 4 -38 12 -49 17 -13 8 -16
7 -11 -1 5 -9 1 -10 -15 -5 -12 4 -43 8 -69 9 -31 2 -59 11 -85 29 -21 15 -43
27 -48 27 -5 0 -28 13 -51 29 -23 15 -59 34 -79 42 -27 9 -38 19 -39 34 0 11
-2 32 -4 47 -2 16 2 31 10 35 22 13 29 59 10 67 -9 3 -13 11 -10 17 8 12 -3
79 -13 78 -4 0 -29 -11 -57 -25z m1695 -594 c11 -6 12 -12 4 -20 -13 -13 -44
-2 -44 16 0 16 18 18 40 4z m1995 -309 c-6 -5 -25 10 -25 20 0 5 6 4 14 -3 8
-7 12 -15 11 -17z m-4081 -1290 c3 -5 -1 -14 -9 -21 -13 -10 -15 -9 -15 9 0
21 14 28 24 12z m220 -313 c9 -12 16 -19 16 -14 0 5 7 3 15 -4 8 -6 18 -9 23
-6 6 3 15 -1 22 -9 10 -12 9 -15 -4 -15 -9 0 -19 -6 -22 -14 -3 -8 -11 -13
-18 -10 -6 2 -19 -9 -29 -26 -11 -18 -31 -33 -50 -38 -41 -11 -51 -7 -63 27
-11 27 -22 32 -76 32 -36 0 -35 5 7 53 32 36 36 38 52 23 17 -14 20 -14 42 4
31 25 66 24 85 -3z m1536 -1229 c0 -6 -4 -7 -10 -4 -5 3 -10 11 -10 16 0 6 5
7 10 4 6 -3 10 -11 10 -16z m15 -39 c3 -5 1 -10 -4 -10 -6 0 -11 5 -11 10 0 6
2 10 4 10 3 0 8 -4 11 -10z m2935 -684 c0 -8 -4 -17 -9 -21 -12 -7 -24 12 -16
25 9 15 25 12 25 -4z m440 -630 c0 -14 -5 -28 -11 -32 -6 -4 -9 1 -8 12 2 11
0 25 -4 32 -5 8 -3 12 7 12 10 0 16 -9 16 -24z"/>
<path d="M6686 12437 c3 -10 9 -15 12 -12 3 3 0 11 -7 18 -10 9 -11 8 -5 -6z"/>
<path d="M6498 11434 c6 -11 9 -30 6 -41 -3 -12 -1 -23 4 -27 5 -3 12 8 14 24
3 21 -1 35 -15 48 -19 16 -20 16 -9 -4z"/>
<path d="M6515 11303 c0 -16 5 -34 12 -40 15 -16 27 -17 17 -2 -4 7 -7 23 -8
37 -1 35 -21 39 -21 5z"/>
<path d="M5343 11283 c9 -9 20 -13 24 -9 4 4 1 11 -7 16 -25 16 -35 11 -17 -7z"/>
<path d="M5385 11248 c4 -12 15 -29 26 -37 10 -7 19 -19 19 -25 0 -6 10 -29
22 -51 37 -70 51 -151 27 -166 -11 -6 101 -79 121 -79 9 0 -34 104 -53 128 -6
8 -12 22 -14 33 -2 10 -4 28 -6 39 -2 10 -11 28 -20 38 -9 10 -17 23 -17 29 0
13 -35 45 -42 38 -3 -3 -11 8 -18 25 -7 17 -22 35 -32 41 -18 10 -19 8 -13
-13z"/>
<path d="M5590 10857 c0 -9 7 -23 16 -31 14 -14 12 -18 -18 -36 -30 -18 -31
-20 -10 -20 36 0 81 -50 75 -83 -3 -17 1 -32 12 -43 19 -19 65 -26 65 -9 0 5
5 3 10 -5 6 -10 10 -11 10 -3 0 7 11 15 25 19 41 10 32 41 -16 55 -41 13 -48
20 -53 55 -2 10 -13 21 -26 24 -15 3 -32 21 -45 45 -21 40 -45 57 -45 32z"/>
<path d="M5953 10651 c-10 -16 -9 -20 10 -25 12 -3 29 -6 37 -6 12 1 11 3 -2
11 -10 5 -18 17 -18 24 0 21 -13 19 -27 -4z"/>
<path d="M5863 10644 c-7 -18 15 -64 31 -64 6 0 17 9 24 20 10 17 10 23 0 33
-23 23 -48 28 -55 11z"/>
<path d="M11440 10520 c8 -5 20 -10 25 -10 6 0 3 5 -5 10 -8 5 -19 10 -25 10
-5 0 -3 -5 5 -10z"/>
<path d="M11080 8836 c0 -2 7 -9 15 -16 9 -7 15 -8 15 -2 0 5 -7 12 -15 16 -8
3 -15 4 -15 2z"/>
<path d="M13967 8787 c-2 -6 -14 -11 -28 -12 -14 -1 -28 -10 -34 -24 -6 -14
-16 -20 -27 -17 -11 2 -18 -1 -18 -9 0 -16 -56 -46 -74 -39 -7 3 -19 -2 -26
-11 -7 -8 -18 -15 -24 -15 -17 0 -18 -62 -1 -80 10 -11 14 -29 11 -51 -3 -19
-5 -39 -5 -45 -1 -6 -14 -11 -29 -11 -16 0 -43 -10 -60 -23 l-32 -24 -54 53
c-33 33 -56 49 -60 42 -5 -8 -13 -8 -28 0 -14 8 -23 8 -31 0 -8 -8 -8 -11 0
-11 11 0 29 -39 24 -49 -2 -3 13 -13 33 -23 37 -19 45 -33 24 -42 -9 -3 -8 -9
5 -20 15 -12 16 -18 8 -35 -15 -27 -52 -36 -92 -22 -27 9 -32 8 -36 -9 -3 -10
-12 -20 -21 -22 -14 -3 -13 -7 7 -27 20 -20 23 -30 17 -70 -3 -25 -11 -47 -16
-49 -6 -2 -10 -11 -10 -21 0 -9 -7 -26 -15 -37 -8 -12 -11 -24 -8 -28 3 -3 1
-6 -7 -6 -10 0 -10 -3 0 -15 7 -8 10 -24 7 -36 -3 -12 -1 -29 5 -39 9 -14 8
-22 -5 -35 -9 -9 -17 -20 -17 -24 0 -10 39 -11 45 0 4 5 17 2 31 -7 13 -9 24
-12 24 -8 0 15 38 34 54 28 8 -3 17 -16 20 -30 4 -14 14 -24 25 -24 10 0 29
-10 43 -23 43 -40 124 -22 184 40 20 22 34 29 41 22 5 -5 33 -19 63 -30 44
-16 51 -17 47 -5 -5 12 0 15 16 13 17 -2 22 3 20 21 -3 22 -2 22 26 8 26 -14
30 -14 46 4 9 10 14 24 10 29 -8 14 3 51 16 51 20 0 45 37 38 56 -15 38 -11
45 17 32 20 -9 27 -9 34 1 4 8 12 11 18 7 11 -7 24 18 15 28 -4 3 -21 6 -39 6
-26 0 -33 4 -36 23 -2 12 -9 21 -15 20 -7 -2 -10 4 -7 12 4 8 10 15 15 15 20
0 -5 57 -40 92 -44 44 -61 65 -61 74 0 4 -8 13 -17 21 -17 14 -17 14 2 8 49
-17 55 -17 55 -1 0 10 4 14 10 11 5 -3 20 1 32 9 18 13 19 16 6 16 -16 0 -34
34 -30 57 2 6 -2 14 -7 17 -5 4 -5 21 -1 43 5 21 7 39 5 42 -3 2 3 10 13 17
15 11 15 14 1 31 -26 29 -32 44 -18 41 9 -2 12 7 11 28 -2 22 2 33 13 38 15 5
14 9 -5 33 -16 21 -30 27 -60 28 -22 1 -41 -3 -43 -8z m-377 -457 c0 -5 -4
-10 -10 -10 -5 0 -10 5 -10 10 0 6 5 10 10 10 6 0 10 -4 10 -10z"/>
<path d="M14893 8732 c-23 -15 -45 -35 -48 -44 -7 -19 -31 -23 -97 -19 -29 2
-38 -1 -38 -13 0 -9 -8 -16 -19 -16 -10 0 -34 -7 -53 -14 -19 -8 -45 -12 -58
-9 -19 5 -21 3 -16 -15 6 -17 1 -24 -23 -36 -16 -9 -36 -13 -44 -10 -13 5 -13
0 -1 -36 10 -29 11 -46 4 -60 -7 -12 -7 -21 0 -25 5 -3 10 -19 10 -36 0 -21
-5 -29 -18 -29 -9 0 -46 -33 -81 -74 -62 -71 -94 -96 -127 -96 -8 0 -17 -8
-21 -17 -3 -10 -18 -31 -32 -46 -20 -22 -23 -31 -15 -45 6 -9 20 -18 30 -20
24 -4 48 -13 106 -41 31 -15 54 -21 65 -16 10 5 21 7 26 7 4 -1 7 4 7 12 0 22
15 27 44 16 21 -8 30 -6 46 10 21 21 50 17 50 -6 0 -8 7 -14 15 -14 8 0 15 9
15 19 0 11 11 28 25 39 15 12 25 30 25 46 0 23 3 26 25 20 20 -5 25 -2 31 20
6 23 11 26 43 24 25 -2 35 1 33 10 -2 10 2 10 19 1 15 -8 28 -8 44 -1 26 12
62 6 87 -15 9 -8 21 -12 27 -9 5 4 13 2 16 -4 6 -10 67 17 105 46 21 16 65 25
84 18 17 -6 23 -44 7 -44 -19 0 15 -49 37 -55 33 -8 49 9 54 58 3 23 8 49 12
59 5 11 2 18 -12 22 -17 6 -19 13 -15 46 7 49 -3 90 -22 90 -8 0 -15 -5 -15
-11 0 -7 -10 -5 -25 5 -17 11 -31 14 -43 8 -23 -13 -46 -3 -72 31 -12 15 -29
27 -39 27 -10 0 -26 9 -36 20 -10 11 -25 20 -33 20 -9 0 -13 7 -9 19 7 27 -4
39 -38 44 -24 3 -33 11 -44 41 -16 42 -9 56 17 33 10 -10 24 -17 30 -17 7 0
12 -4 12 -9 0 -5 7 -12 16 -15 14 -6 16 0 11 39 -3 33 -1 45 7 42 7 -3 23 1
37 8 24 14 24 14 2 12 -13 -1 -23 -5 -23 -9 0 -15 -28 4 -33 23 -7 26 -24 24
-74 -9z"/>
<path d="M15033 8593 c-3 -10 -8 -21 -10 -25 -2 -5 2 -8 10 -8 17 0 30 37 16
46 -5 3 -12 -3 -16 -13z"/>
<path d="M14970 8150 c0 -5 5 -10 11 -10 5 0 7 5 4 10 -3 6 -8 10 -11 10 -2 0
-4 -4 -4 -10z"/>
<path d="M15292 7990 c0 -14 2 -19 5 -12 2 6 2 18 0 25 -3 6 -5 1 -5 -13z"/>
<path d="M15294 7902 c4 -22 1 -34 -7 -38 -8 -3 -12 -20 -11 -45 1 -25 -2 -39
-10 -38 -6 1 -22 1 -35 0 -20 -1 -22 -3 -11 -16 10 -12 10 -21 2 -40 -10 -21
-9 -25 3 -25 8 0 15 -6 15 -12 1 -7 7 -1 15 13 8 15 21 29 29 32 8 3 18 22 21
41 5 23 14 38 27 42 13 4 16 10 10 17 -5 7 -12 23 -15 37 -3 14 -13 34 -22 45
-16 19 -16 19 -11 -13z"/>
<path d="M13252 7893 c-10 -4 -10 -8 -2 -19 14 -16 3 -37 -16 -30 -8 3 -11 0
-7 -10 5 -12 10 -11 30 8 47 44 45 69 -5 51z"/>
<path d="M11038 7823 c7 -3 16 -2 19 1 4 3 -2 6 -13 5 -11 0 -14 -3 -6 -6z"/>
<path d="M12090 7822 c0 -12 19 -26 26 -19 2 2 -2 10 -11 17 -9 8 -15 8 -15 2z"/>
<path d="M10927 7811 c-16 -6 -17 -9 -4 -19 11 -10 17 -9 26 2 14 17 3 26 -22
17z"/>
<path d="M13658 7793 c7 -3 16 -2 19 1 4 3 -2 6 -13 5 -11 0 -14 -3 -6 -6z"/>
<path d="M13198 7773 c-10 -2 -18 -14 -18 -25 0 -21 0 -21 25 2 34 32 33 34
-7 23z"/>
<path d="M13155 7691 c-3 -9 -1 -17 4 -19 6 -2 11 -11 11 -20 0 -14 2 -15 9
-3 8 12 13 12 24 3 12 -10 13 -8 9 13 -4 22 -7 23 -20 13 -13 -11 -14 -10 -8
8 8 25 -20 30 -29 5z"/>
<path d="M13163 7618 c-4 -7 -9 -26 -9 -43 -4 -69 -17 -116 -38 -131 l-21 -14
22 -6 c12 -3 24 -12 27 -20 3 -8 16 -14 28 -14 22 -1 22 -1 5 -14 -20 -16 -11
-27 19 -21 10 2 23 4 28 4 4 1 6 10 3 21 -3 13 1 24 14 30 10 6 23 19 29 30 9
17 6 26 -22 54 -52 52 -60 66 -55 88 10 37 -12 63 -30 36z"/>
<path d="M10881 7501 c-10 -7 -10 -10 -1 -16 6 -4 16 -3 22 3 13 13 -4 23 -21
13z"/>
<path d="M13620 7400 c-12 -17 -17 -17 -45 -6 -27 12 -34 11 -54 -5 -26 -21
-61 -25 -79 -7 -9 9 -13 7 -18 -5 -5 -13 -19 -17 -63 -17 -31 0 -61 4 -66 9
-6 5 -20 12 -32 16 -18 5 -22 3 -17 -9 4 -10 0 -18 -10 -22 -19 -7 -22 -54 -3
-54 6 -1 1 -7 -12 -14 -16 -9 -20 -15 -11 -18 8 -2 15 -22 16 -46 1 -23 -2
-40 -6 -37 -5 3 -6 -4 -3 -16 3 -11 11 -18 18 -15 7 2 18 -7 24 -21 13 -28 6
-62 -12 -64 -7 -1 4 -4 23 -8 31 -5 36 -3 49 23 8 16 23 31 33 34 22 5 24 22
3 22 -17 0 -21 26 -4 32 9 3 -3 43 -28 89 -2 4 19 10 47 14 27 4 50 11 50 17
0 5 13 0 29 -11 25 -18 32 -19 43 -8 7 8 19 12 27 9 7 -2 16 -1 20 4 3 5 15
14 26 20 11 6 21 21 23 33 2 13 11 21 23 21 12 0 21 9 25 25 8 33 2 39 -16 15z"/>
<path d="M13647 7377 c-3 -8 -1 -20 4 -28 8 -12 10 -12 19 1 5 8 8 19 7 24 -5
16 -24 18 -30 3z"/>
<path d="M11184 7164 c6 -13 14 -24 18 -24 11 0 -3 38 -17 43 -10 4 -10 0 -1
-19z"/>
<path d="M11174 7105 c-4 -16 0 -35 11 -52 17 -25 17 -26 -1 -20 -15 5 -13 2
5 -13 19 -16 26 -18 32 -8 6 9 14 7 32 -10 29 -28 33 -28 32 1 0 21 -10 36
-54 82 -44 45 -50 47 -57 20z"/>
<path d="M11305 7021 c-4 -7 -2 -32 5 -55 7 -22 14 -47 16 -53 5 -21 20 -15
32 12 7 15 8 25 2 25 -6 0 -10 9 -10 20 0 11 -5 20 -10 20 -6 0 -14 10 -19 22
-6 16 -10 18 -16 9z"/>
<path d="M11429 7003 c5 -10 9 -22 9 -28 1 -16 22 -18 22 -2 0 26 -12 47 -26
47 -11 0 -12 -5 -5 -17z"/>
<path d="M11390 6986 c0 -2 6 -18 13 -35 12 -27 16 -30 26 -17 10 12 9 19 -6
35 -16 19 -33 28 -33 17z"/>
<path d="M11175 6849 c-9 -14 -2 -20 14 -10 8 6 9 11 3 15 -6 3 -14 1 -17 -5z"/>
</g>
</svg>
