<svg version="1" xmlns="http://www.w3.org/2000/svg" width="1000.294" height="949.047" viewBox="0 0 750.22 711.785"><g fill="#222"><path d="M662.275 1.8c.4 1.3-.6 2.1-4 3.4-2.5.9-4.8 1.3-5.1.8-.3-.5-1.2-.7-1.9-.4-.7.3-1.6-.2-1.9-1-1-2.5-2.5-1.9-2.9 1.1-.2 1.6-.8 2.7-1.5 2.5-.7-.1-1.3.5-1.3 1.5 0 .9-1.1 3.1-2.6 5-1.9 2.5-3.3 3.3-5.7 3.3-3.2 0-5.9 1.1-5.8 2.4.3 2.1-.2 2.8-2.6 3.8-1.6.6-3.6 1-4.5.9-1-.1-1.8.2-1.8.7 0 .5-1.1.7-2.5.4-2-.3-2.4-.1-1.9 1.1.6 1.7-4 6.6-6.3 6.7-.6 0-2 1.6-3.2 3.5-2.1 3.6-2.5 3.9-7.3 4.9-1.9.4-2.8 1.4-3.3 3.6-.8 3.5-1.5 3.7-4 1-2.1-2.3-4.6-2.5-7.6-.8-1.8 1.1-2.3 1-4-1.5-2.7-3.5-4.2-3.5-2.4 0 1 1.8 1.1 3.1.5 3.7-1.3 1.3-1.3 3.9 0 3.1.6-.3 1-.2 1 .3 0 .6-.7 1.2-1.4 1.5-.8.3-2 2.5-2.6 4.9-1.6 5.9-3.5 7.8-7.4 7.3-2.3-.2-4 .4-6.8 2.6-2 1.6-4.4 2.9-5.2 2.9-.9 0-1.6.4-1.6 1 0 .5-.7.7-1.5.4-.8-.4-2.2-.1-3 .6-1.9 1.6-3 .7-2.1-1.6.3-.9 1.2-1.4 2.1-1 1.7.6 1.9-.7.5-3.4-.7-1.3-.5-2.6.5-4.7 2-3.7 1.9-4.2-.8-6.7-1.2-1.1-2.9-3.6-3.6-5.4-1.4-3.3-2.5-4-3.7-2.1-.3.6-1.7.9-3 .6-2.8-.5-2.9-.4-.8 2.8.9 1.4 1.2 2.5.6 2.5-.5 0-1.4 2.6-1.8 5.7-.8 5-1.2 5.8-3.2 6.1-1.6.3-2.2.8-1.8 1.8.3.8-.1 1.7-.9 2-.8.4-1.5 1.2-1.5 2s-.7 1.4-1.5 1.4-1.2.6-.9 1.4c.3.8 1.4 1.1 2.8.9 2.7-.6 4.4 1.3 2.7 3-.8.8-.6 1.6.5 2.8 1.4 1.6 1.5 2.4.3 6.4-.7 2.5-1.7 4.5-2.1 4.5-.4 0-.8.6-.8 1.4 0 1.8 2.8 4.1 3.8 3.1.4-.4.1-1-.5-1.2-1-.4-.9-.8.2-2 1.3-1.3 2-1.1 5.7 1.9 2.3 1.8 3.9 2.6 3.4 1.8-1-1.9 3.1 3 4.4 5.2.8 1.3.6 2-1 2.8-1.1.6-1.8 1.5-1.5 2.1.4.5-.1 1.2-1 1.5-1 .4-1.4 1.3-.9 2.3.3.9.7 2.7.8 4.1 0 1.5 1 2.9 2.5 3.7 2.4 1.1 3.5 4.7 2.2 6.8-1.7 2.8-2.9 8.2-2.4 10.7.3 1.5 0 3.4-.6 4.2-.7.8-1.1 2.9-1 4.8.6 8.1.1 9.5-3.8 11.5-3.4 1.6-3.8 2.2-3.5 5.1.3 2.9 0 3.5-2.8 4.5-3.1 1.2-5.6 6.2-3.9 8.1.4.5.6 1.4.4 2-.2.6-.6 2.4-.9 3.9-.4 1.5-1.1 2.5-1.7 2.2-.5-.4-.8-.3-.7.2.1.4-.1 2.3-.5 4.2-.5 2.5-1.1 3.2-2.4 2.9-1.4-.4-1.8.2-1.9 2.3-.1 1.6.2 2.6.6 2.4 1.4-.9 5.1 5.6 4.8 8.4-.1 1.6.3 3.6 1.1 4.4.7.9 1 2 .8 2.4-.3.5-.1 3.2.4 6 .8 4.1.6 6.5-.6 10.8-.9 3-1.9 5.5-2.2 5.5-.4 0-1.5-.7-2.5-1.7-1.9-1.7-7.2-2.8-6.3-1.3.3.4-1 .7-2.8.6-1.9 0-3.1.4-3 1.1.2.7-1 .9-3.7.6-3.6-.5-4-.3-4 1.6 0 1.2-.6 2.1-1.5 2.1-1.8 0-1.8.2-.3 3.4.6 1.4 1.9 2.8 2.9 3.1.9.3 2.4 1.6 3.2 2.9 2.1 3.1 7.9 2.9 10.6-.5l1.9-2.3 5 2.7c5.9 3.2 6.2 3.3 6.2.7 0-3.2 2.2-7.1 3.7-6.6.8.3 1.6-.1 1.9-.9 1-2.4 5.9-1.9 7.2.7.6 1.3 1.1 1.7 1.1 1 .1-.9.6-1 2-.3 1.5.9 2 .7 2.4-.9.3-1.1-.1-2.1-.9-2.4-1.8-.7-1.8-2.1-.1-3.8 1.4-1.4 1.6-1.7 2.4-4.8.7-2.6 7.3-3 7.3-.4 0 .8-.5 1.2-1.1.9-.5-.4-2.1.5-3.4 2l-2.5 2.6 2.6 2.4c2.3 2.2 2.4 2.5.9 3.1-1.3.5-1.4.9-.3 1.5 2.4 1.5 9.8.9 13.8-1.1 2.2-1.1 4.6-2 5.5-2 .9 0 1.5-.9 1.5-2.1 0-1.8.2-1.9 1.5-.9.8.7 1.5.9 1.5.4 0-1.2 5-3.5 6.1-2.8.5.3.7-1.2.6-3.2-.2-3.6-.1-3.8 4.6-5.3 3.8-1.2 4.7-1.9 4.7-3.8 0-3.5-4.2-3.1-7.3.8-2.4 3.1-2.4 3.1-7.8 2-3.3-.7-5.5-.8-5.7-.2-.5 1.5-5 6-5.5 5.5-.2-.3-1.6.1-3.1.7-2 .9-2.9 1-3.8.1-.8-.8-.4-1.4 1.5-2.3 1.6-.7 2.7-2 2.7-3.2 0-1.6.5-1.9 3.1-1.3 2.6.5 3.6.1 6.5-2.8 1.9-1.9 3.4-4.4 3.4-5.6 0-1.1.4-1.9.8-1.6 1.5.9 4-3.2 4.3-7.1.2-2.8-.5-5.2-2.4-8.5-3-5.1-3.4-7.8-1.4-7.8 1.8 0 4.9-3.4 4-4.3-.3-.4.3-.7 1.5-.7 1.1 0 2.3-.8 2.6-1.8.5-1.4 1.4-1.7 3.6-1.4 1.7.2 3 .8 3 1.3s.6.9 1.4.9c.7 0 2.1 1.1 3 2.5.9 1.3 2.5 2.9 3.6 3.5 1.7.9 1.9.8 1.3-.7-.4-1-1.3-2.8-2-3.9-1-1.5-1.1-2.8-.4-4.7.5-1.4.7-2.7.5-3-.8-.7-4.4.4-4.4 1.4 0 .5-1.1-.1-2.5-1.3s-2.3-2.8-2.1-3.5c.3-.7.1-1.5-.5-1.9-.7-.4-.7-1 0-1.8.7-.9.5-1.9-.6-3.6-.9-1.3-1.1-2-.5-1.6 1.9 1.2 5.2-.4 5.2-2.4 0-1.2 1-1.9 3.3-2.3 1.7-.3 4.4-.9 6-1.2 2.1-.6 3.6-.1 6.5 1.9 2.1 1.4 4.2 2.6 4.8 2.6 1.8 0 5.1-7.5 6.4-14.3 1.2-6.5 2.4-8.9 5.2-10 .9-.4 1-.8.2-1.4-1.1-.9-1.4-5.3-.3-5.3 1.1 0 3-8 2.4-10-.7-2.1 1.8-2.9 3-1 .3.5 1.3 1 2.1 1 1 0 1.3-.7.8-2.4-.5-2.1-.1-2.4 4.3-3.6 2.6-.7 5.2-1.7 5.7-2.1.6-.5 2-.9 3.2-.9 2.6 0 3.7-1.3 5.5-6.2 1.2-3.4 1.5-3.6 4.3-3.1 1.7.3 3.3.6 3.6.6 1.7.3 5-1.7 5-2.9 0-1.8 4.5-5.9 8.2-7.5 2.3-.9 2.7-1.6 2.2-3.5-.4-1.6-.2-2.4.7-2.4 1 0 1-.3.1-1.2-1.6-1.6-1.5-2.8.3-2.8.8 0 2.2-1.1 3-2.4 1.3-2 1.4-2.9.5-4.6-1.1-2-1-2.1 1.2-1.5 1.2.4 2.5 1.1 2.8 1.6.3.4 2.1.7 4 .6 2.8-.2 3.4.1 3.2 1.5-.2 1 .1 1.8.5 1.9.4 0 2.3.2 4.1.3 1.7.2 3.2-.1 3.2-.6s.8-.7 1.9-.3c3.5 1.1 5.3-.4 4.5-3.9-.3-1.7-1.1-3.7-1.7-4.4-.5-.7-.8-1.4-.6-1.6.7-.8 3.4 1.9 3.4 3.3 0 3.4 9.8 3.1 11.1-.3.9-2.2 7.5-1.5 10.4 1.1 4 3.8 4.7 3.2 3-2.6-.5-1.9-.8-3.7-.6-3.9.3-.2 1.8.4 3.4 1.3 4.1 2.5 7.5 1.4 9-2.9 1.2-3.2 1.1-3.6-1.3-6-3-3-3.1-4-.5-6.8 1.4-1.5 1.7-2.6 1-3.8-.5-1-.7-2-.3-2.3.3-.4-.2-.9-1.1-1.3-.9-.3-1.6-1.2-1.6-2 0-.7-2-3.5-4.5-6.1-2.5-2.6-4.8-5.7-5.1-6.8-.3-1.1-1.9-3-3.7-4.3-1.8-1.2-2.5-2.2-1.7-2.2.9 0 2.3-1.7 3.2-3.8 1.5-3.5 1.5-3.8-.2-5.4-2.3-2.1-7-3.4-7-1.9 0 .6-1.4.2-3.2-.9-1.7-1-3.6-1.6-4.2-1.2-.6.4-3.6.5-6.8.3-4.6-.2-5.7 0-6 1.4-.4 2.3-7.6 4.7-10 3.4-1-.5-1.8-.7-1.8-.3 0 .3-.6.2-1.3-.4-.8-.7-1.9-.7-3.5.2-5.3 2.8-18-2.6-19-8-.6-2.9-4.3-6.4-6.8-6.4-1.6 0-2.1.5-1.8 1.8zm13.4 12.2c.8 1.6.8 2-.3 2-.8 0-1.7-.9-2-2-.3-1.1-.1-2 .4-2 .4 0 1.3.9 1.9 2zm-81 38.4c0 .3-.4.8-1 1.1-.5.3-1 .1-1-.4 0-.6.5-1.1 1-1.1.6 0 1 .2 1 .4zm-48.6 178.4c-.6.4-1.4 1.4-1.7 2.2-.4 1-.6.8-.6-.8-.1-1.5.5-2.2 1.7-2.2 1 0 1.3.3.6.8zm-16.4 6.2c0 .5-.7 1-1.6 1-.8 0-1.2-.5-.9-1 .3-.6 1-1 1.6-1 .5 0 .9.4.9 1z"/><path d="M735.175 78c.4.6 1.1.8 1.6.5 1.4-.9 1.1-1.5-.7-1.5-.8 0-1.2.5-.9 1zM609.675 191.1c0 1.6.4 2.8.9 2.4 1.3-.7 2.4 3 1.6 5.4-.4 1.4 0 2.1 1.5 2.6 2.2.7 5.4-1.1 4.5-2.5-.3-.5.4-.6 1.5-.3 1.5.4 2 0 2-1.4 0-2.4-2.7-6.3-4.4-6.3-.8 0-1.9-.7-2.6-1.5-.7-.8-2.1-1.5-3.1-1.5-1.5 0-1.9.7-1.9 3.1zM604.675 210.5c-1.1 1.3-1 1.4.4.9.9-.3 1.6-1 1.6-1.5 0-1.3-.6-1.1-2 .6zM485.675 228.2c0 1.1-.8 1.8-1.9 1.8-1.1 0-2.7.7-3.6 1.6-.9.9-1.9 1.4-2.2 1-.3-.3-1.2-.1-1.9.5-.8.7-1.4.6-1.9-.2-.5-.7-1.3 0-2.1 2-.9 2-2 3.1-3.4 3.1-1.1 0-2.8.9-3.7 2-1.2 1.3-3 2-5.4 2-5.3 0-6.9.9-6.9 3.6 0 1.7-.8 2.7-2.5 3.4-1.4.5-2.8 1.7-3.2 2.6-.4 1.1-1.7 1.5-4.7 1.3-8.4-.4-11.6 0-11.6 1.6 0 1-1 1.5-3.3 1.5-2.8 0-3.5.5-4.5 3.3-.7 1.8-1.2 4.7-1.2 6.4 0 3.2-2.6 6.3-5.4 6.3-1.3 0-1.6.5-1.1 2.2.4 1.3 1.1 2.7 1.6 3.2.5.6.9 2.1.9 3.4 0 1.7-.4 2.3-1.5 1.8-1.5-.5-1.7 0-1.8 5.6-.1 3.7 2 10.3 5.1 16.5l2.6 5.3-2.1 1.7-2.2 1.8 3.6 3.2c2.6 2.5 4.3 3.2 7 3.1 2.4-.1 3.8.4 4.5 1.5 1.1 2 1.8 2.1 5.5.5 1.5-.6 3.1-1.1 3.4-1 .4.1 1-1 1.3-2.3.5-1.8 1.3-2.5 3.1-2.5 1.4 0 2.5.3 2.5.7 0 .5.4 1.5 1 2.3.7 1.2 1.3.9 3.4-1.3 2.5-2.7 3.4-5.7 1.8-5.7-.4 0-.8-1.6-.9-3.5-.1-2.5.3-3.5 1.4-3.5 1.9 0 6.3-4.6 6.3-6.5 0-.8.5-1.7 1.1-2.1.6-.3.9-2.8.8-5.8-.3-5.3.6-9.6 2.1-9.6.4 0 1-.9 1.3-1.9.4-1.6 1.6-2 6.6-2.3 3.3-.1 6.1 0 6.1.4 0 1.5 6.8.8 7.4-.7.3-.8 1.2-1.5 2.1-1.5.8 0 1.5-.4 1.5-.9s1.4-1.4 3-2c2.3-.8 3-.7 2.9.2-.6 5.2 1.3 6.2 3.3 1.7 1-2.4 1.9-3 4.5-3 3.5 0 3.7-.5 3.3-7.5 0-1.8.7-3.9 1.9-5.2 2.7-2.9 2.6-3.9-.3-5.8-2.7-1.8-5.1-6.8-4.1-8.5.9-1.5-2.6-4.1-4.7-3.4-1.1.3-2.3-.4-3.4-2.1-.9-1.4-2.3-2.5-3-2.5-.8 0-1.4-.9-1.4-2 0-1-1-2.5-2.2-3.1-1.3-.7-2.8-1.9-3.5-2.8-1.1-1.4-1.2-1.4-1.3.1zM541.775 240.6c0 1.1.3 1.4.6.6.3-.7.2-1.6-.1-1.9-.3-.4-.6.2-.5 1.3zM553.675 241c0 1.6-.7 2-3.3 2-1.8 0-3.8.5-4.5 1.2-.8.8-1.5.8-2.7-.2-1.6-1.3-1.5-1.3-1.9 3.2-.1 1.7 3.3 1.1 5.2-.8.8-.8 2.2-1.2 3.3-.9 1.1.4 1.9.2 1.9-.5s.6-1 1.4-.7c1 .4 1.5-.4 1.8-2.4.3-1.6.1-2.9-.4-2.9-.4 0-.8.9-.8 2zM537.275 247.6c-1.7 1.2-1.7 1.4-.4 1.4.9 0 2-.5 2.3-1.1 1.1-1.7.2-1.8-1.9-.3zM531.975 251.2c-1.3.6-2.4 1.5-2.4 2-.1.4-.2 1.2-.3 1.7 0 .6-1.1 1.9-2.3 3.1-1.3 1.1-2.3 2.9-2.3 3.9 0 2.1-4.5 4.4-7 3.6-1.3-.4-2 .1-2.5 1.6-.6 1.7-1.3 2-3.4 1.6-2.4-.5-2.6-.3-2.6 2.6 0 1.8.4 3.8.8 4.5.5.7.5 2.1.2 3.2-.5 1.6-.2 2 1.8 2 3.2 0 5.7 2.8 3.6 4.1-1.7 1-3.7 1-6.4 0-1.9-.8-7.1.4-8.8 1.9-1.3 1.1 1 4.8 5.7 9.5 4.9 4.9 6.6 8.3 6.6 13.6 0 3 .6 4.6 2.6 6.4 1.5 1.4 3.3 2.5 4 2.5 2.8 0 11 3.3 13.2 5.4 1.3 1.1 3.3 2.1 4.4 2.1 1.9 0 6 5.9 10.1 14.5 1.2 2.5 2.6 4 4 4 1.1 0 .8-4.8-.4-5.6-.8-.4-.9-2.6-.4-6.7.5-4.4.3-6.2-.6-6.8-.8-.5-1.5-3.6-1.7-7.8-.4-6.6-.6-7-3.4-8.2-2.4-1-2.8-1.6-2.4-3.5.4-1.5-.2-3.2-1.9-5.2-2.4-2.9-2.4-3-.4-2.5 3.3.9 2-2.8-1.6-4.7-1.7-.8-3.3-1.9-3.6-2.3-.7-1-3.2 1.9-2.6 3.1.3.4.1 1.4-.4 2.2-.7 1.2-1 1.1-1.5-.8-.4-1.2-1-2.2-1.5-2.2-1.2 0-5.4-4.2-6.8-6.8-.6-1.2-1.8-2.2-2.5-2.2-.9 0-1.2-.8-.8-2.5.2-1.4.8-2.5 1.3-2.5s.9-.6.9-1.3c0-1.8 7.6-4.7 8.9-3.4 1.7 1.7 2.3.3 1.2-2.7-1.3-3.2-.2-6.3 3.3-9.6 1.5-1.5 2.6-3.6 2.6-5.3 0-1.5.5-2.7 1-2.7.6 0 .3-1.1-.7-2.5-2-2.8-2-2.8-5-1.3zM514.275 256.2c.3.5 1 .6 1.5.3 1.3-.9 1.1-1.2-.6-1.2-.8 0-1.2.4-.9.9z"/><path d="M462.675 305.4c0 .2.8 1 1.8 1.7 1.5 1.3 1.6 1.2.3-.4s-2.1-2.1-2.1-1.3zM457.175 308c-.3.5-.2 1 .4 1 .5 0 1.3-.5 1.6-1 .3-.6.2-1-.4-1-.5 0-1.3.4-1.6 1zM469.075 310.1c-.3.6-2.2 1.8-4.2 2.6-2.9 1.2-3.6 1.2-4.3.1-.5-.8-.6.1-.3 2.1.7 3.1.6 3.3-1.4 2.2-1.7-.9-2.5-.7-4.8 1.4-1.5 1.4-3 2.5-3.4 2.5-.4 0-1.2 1.1-1.8 2.5-.6 1.4-1.7 2.5-2.3 2.5-.7 0-.5-1 .6-2.6.9-1.4 1.4-2.8 1.2-3.1-.3-.3-1.6 1.1-2.9 3.1-1.3 2-2.6 3.6-3 3.6-1.5 0-2-2.3-.7-3.1 1-.6.6-.9-1.3-.9-1.6 0-3.7.9-4.7 1.9-3.1 3.1-5.8 4.2-10.4 4.1-7.6 0-9.5.4-8.9 2 .3.9-.6.5-2.1-.9-2.7-2.5-3.5-3.7-1.7-2.6.6.3 1-.1 1-1s-.4-1.4-.9-1c-.5.3-1.2.1-1.6-.5-.4-.6-1.1-.8-1.6-.5-.5.4-.9-.5-.9-1.9 0-4-1.6-3.8-1.8.2 0 2-.2 4.8-.3 6.2 0 1.4.5 5.6 1.2 9.3l1.3 6.8-3.6 3.3c-2.1 1.9-3.9 4.7-4.3 6.7-.4 1.9-1.4 4.2-2.2 5.1-.9 1-1.3 2.4-1 3.2.4.9-.2 1.7-1.5 2.2-1.7.5-2 1.2-1.5 4.5.3 2.2.1 3.7-.4 3.3-.5-.3-.9.3-.9 1.4 0 1-.3 2.2-.7 2.6-.8.7-.9 1.2-1.1 5.3-.1 1.3-.8 2.3-1.6 2.3-.9 0-1.2.7-.9 2.1.5 1.8.2 2-4.5 1.8-5.8-.3-7.5.7-10.3 6.2-1 2.1-2.8 4-3.9 4.4-1.1.4-1.8 1.1-1.5 1.6 1 1.5-2.4 2.2-4 .9-.9-.7-1.8-1-2.2-.7-.3.4-1.2.2-2-.4-1-.9-1.3-.8-1.3.1 0 .7-.6 1-1.4.7-.8-.3-2 .1-2.6.9-.7.8-1.8 1.4-2.4 1.4-.7 0-2 1.7-3 3.7s-2.1 3.2-2.4 2.7c-.4-.5-2.3-.7-4.2-.4-3.3.5-3.4.6-1.4 1.7 2.8 1.6 3.7 4.2 2.2 6.2-1.2 1.4-1.1 1.4.5.2 1.5-1.2 1.7-1.1 1.7.5 0 1.1-1 4.7-2.2 8.1-1.8 5.2-2.6 6.3-4.4 6.3-3.9 0-5.3 1.1-6 4.7-.8 4.1-2.6 5-6.7 3.5-2.6-1-3.3-.8-6.3 1.6-1.9 1.5-3.4 3.5-3.4 4.4 0 1.3-.8 1.8-2.6 1.8-1.4 0-2.3.4-2 .9.3.5-.7 1.1-2.2 1.4-7.1 1.5-8.8 2-9.9 3.5-.8 1-.9 2-.3 3.3.8 1.4.4 2.4-1.6 4.4-1.4 1.4-3 2.3-3.5 2-.5-.4-.9.5-.9 1.9s-.4 2.6-1 2.6c-.5 0-1 .7-1 1.5 0 2.2-4.4 4.7-7.2 4-1.6-.4-2.9-.1-3.6.8-1.3 1.5-4.8.8-9.9-2.1-2-1.1-2.3-1-2.3.3 0 1 .5 1.3 1.2.9.8-.5.9-.2.5 1-.9 2.2 4.3 9.1 5.5 7.3.5-.8.8-.4.8 1s-.6 2.3-1.5 2.3-1.5.9-1.5 2.2c-.1 2.9-2.1 5.6-3.7 5.1-.7-.3-1.3 0-1.3.6s-1.2 1.1-2.6 1.1c-1.7 0-2.8.6-3.1 2-.5 1.9-1.9 2.5-5.4 2.2-1.2-.1-1.5.4-1.2 1.8.8 3.1-1.8 2.5-6.2-1.5-3-2.6-4.2-3.2-5.2-2.3-1 .8-1.7.8-2.5 0-.6-.6-1.7-.8-2.4-.5-.8.3-1.4 0-1.4-.6s.5-1.1 1-1.1c.6 0 .6-.7-.2-1.9-.6-1-1.7-1.7-2.4-1.4-.7.2-1.7-1.3-2.4-4-.8-2.4-2.3-5.6-3.5-7.1-2.1-2.6-2.3-2.7-3.9-1-1 .9-3.4 1.7-5.4 1.8-3.1.1-4.1.7-5.9 3.5-1.2 1.9-2 3.8-1.7 4.2.3.5-1.8.7-4.6.6-2.7-.1-5-.5-5-1 0-.4-1.5-.6-3.2-.5-2.9.3-3.5.8-4.5 4.2-.8 2.6-.8 4.7-.2 6.4.7 1.8.6 3.1-.6 4.8-.8 1.3-1.5 3.2-1.5 4.2 0 1.1-1 3.2-2.2 4.7-2.4 3.1-3.2 8.3-1.6 10.2.7.9.7 1.7-.2 2.8-.6.8-.9 1.9-.5 2.5.4.6-.6 1-2.5 1-3.3 0-9 2.8-9 4.3 0 .5-.6.5-1.3-.1-.8-.7-1.8-.7-2.7-.2-.8.6-3 .7-4.7.4-2.7-.5-3.3-.3-3.3 1.1 0 2.4-4.6 6.5-7.3 6.4-1.2 0-3.4.3-4.8.6-2.3.6-2.8.3-3.7-2.4-.6-1.7-1.8-3.4-2.7-3.7-1.3-.5-1.3-.9-.3-2.2 1.1-1.3 1-1.5-.6-.9-1.2.5-2.6.1-3.7-.9s-1.9-1.2-1.9-.7c0 .6.7 1.6 1.6 2.3 1.1 1 1.4 2.3.9 5-.5 3-.3 3.9 1.1 4.4.9.4 1.9.4 2.2.1.3-.3 0-.5-.6-.5-.7 0-1.2-.7-1.2-1.5 0-1.4.4-1.3 3.3.2 2.4 1.3 2.8 1.8 1.5 2.1-1 .2-1.8.8-1.8 1.3 0 1.3 2.8 1.1 3.2-.3.7-2.1 3.7-.1 3.1 2.1-.3 1.2-.9 1.9-1.3 1.6-.5-.3-1.2 0-1.6.6-.4.8-.3.9.4.5s1.2-.2 1.2.4c0 2.3 4.4 7 6.7 7 1.3 0 2.3-.5 2.3-1.1 0-.6.6-.7 1.2-.2.7.4 2.2.7 3.3.8 1.5 0 2 .6 1.9 2.5-.1 1.4-.4 3.2-.7 4-1 2.3 2.9 8 6.3 9.2 1.7.5 3 1.2 3 1.5 0 .2-1.1 1.9-2.5 3.7-3 4-3.1 5.2-.5 6.8 1.3.9 2 2.4 2 4.6 0 2.5.6 3.5 2.5 4.4 1.3.6 2.7 1.9 3 3 .4 1 1.2 1.8 1.8 1.8.8 0 .7.3-.2.9-1.1.7-1.1 1.5 0 4.4 1 2.9 1.8 3.6 4.9 4.1 2.7.4 4.3 1.5 6 3.9 1.8 2.6 2.9 3.3 4.6 2.9 1.3-.2 2.1-.9 1.8-1.4-.4-.6-.1-1.4.5-1.8.9-.5.9-1.4-.1-3.6-1.7-3.9-1.8-4.1-2.8-2.4-.7 1.2-1.2 1.2-2.1.3-1-1-1-1.8-.1-3.8.7-1.5.8-2.5.2-2.5-.6 0-1 .7-1 1.5 0 2.7-4.9 1.8-6-1.1-.6-1.4-3.3-4.8-6.1-7.5-4.5-4.4-4.8-4.9-2.7-4.9 1.3 0 3.3-.6 4.3-1.4 1.7-1.2 2.5-.9 7.1 2.6 2.9 2.2 6.1 3.9 7.1 3.8 3.7-.4 5.3 0 5.3 1.5 0 .9.7 1.8 1.5 2.1.9.4 1.3 1.3 1 2.4-1 3.1 5.7 6.3 7.7 3.6.9-1.3 4.8-1.8 4.8-.6 0 .6 1.1 1 2.4 1 1.8 0 2.6.6 2.8 2.2.2 1.5 1.7 2.9 4.6 4.3 2.3 1.1 4.2 2.3 4.2 2.6 0 1.1-5.5 1.8-6.4.8-2.1-2-5.2-.9-6.3 2.1-.8 2.2-1.8 3-3.6 3-1.4 0-2.7.7-3.1 1.5-.8 2.1-4.4 1.9-9.1-.5-2.6-1.3-4.2-1.7-4.9-1-.6.6-3 1-5.4 1-3.3 0-4.8.5-6.1 2.1-1.4 1.8-2.1 2-3.8 1.1-1.7-1-2.2-.8-2.6.8-.4 1.4-1 1.8-2.2 1.4-2.4-1-6.2 1.5-6.8 4.2-.2 1.4 0 2.7.5 3 .4.3.6 1 .3 1.5-.9 1.4.5 4.9 2 4.9.7 0 1.6.7 1.9 1.6.9 2.3.8 2.7-.9 2-.9-.3-1.5 0-1.5.9 0 .7-.8 1.6-1.8 1.9-1.4.5-1.8 1.7-1.7 5.8 0 3.3.5 5.6 1.3 6.1 1.9 1.2 2.4.4 2.9-4.6l.5-4.4 4.1 1.4c3.1 1.1 4.2 1.2 4.5.3.3-.7 1.4 0 2.8 1.6 1.3 1.7 2.3 2.3 2.4 1.5 0-1.2.3-1.1 1.8.1 1.8 1.6 14.2 3.2 14.2 1.8 0-.4 1.7-1.1 3.8-1.4 2-.3 4.5-.8 5.5-.9 2.6-.5 7.8-4.6 7.5-6-.2-.7-.1-1.4.2-1.5.9-.6 8.5 1 9.8 2.1 1 .8 1.6.7 2.3-.4.5-.8.9-1 .9-.5s.6.3 1.4-.3c1.9-1.6 3.2.5 1.6 2.4-2 2.4 1.4 3 4.9.9 2.4-1.4 2.8-2.1 1.9-3.2-1.3-1.5.4-3.2 3.2-3.2.8 0 3.3-.5 5.4-1.1 2.9-.8 3.5-1.3 2.5-2-1-.6-1.1-1.3-.3-2.6.7-1.2.7-2.3 0-4-1.3-2.7-6.2-4.8-7-3-.4 1.1-.6-.1-1-4.6-.1-.6-.4-1.4-.7-1.7-.4-.3-1-1.9-1.3-3.6-.7-3-.5-3.2 3-4.1 3.1-.7 3.9-1.4 4.6-4.2.8-2.7 1.1-3.1 2.3-2.1 1.2 1 1.5.9 1.5-.3 0-.8-.7-2-1.5-2.7-.8-.7-1.3-1.6-1-2 .2-.4-.3-1.6-1.3-2.6-4.5-5.1-4.6-5.4-1-4.2 1.8.6 4.2 1.4 5.2 1.8 2.2.7 5.6-1.6 5.6-3.7 0-.7.3-1.2.8-1.1.4.2 2.4-.7 4.5-1.9 3.2-1.9 3.7-2.7 3.5-5.5-.4-4.2-4.6-8.3-6.7-6.3-1.1 1.1-1.6 1-3.2-.6-1.1-1.1-2.6-1.6-3.6-1.2-1.5.5-1.5.3.2-1 2-1.6 2-1.6-.2-1.7-1.4 0-2.3.6-2.3 1.5 0 .8-.5 1.5-1.1 1.5-.5 0-.7-.5-.3-1.1.5-.8-.1-1-2-.7-2 .4-2.6.1-2.6-1.3 0-2.1-1.5-2.5-2.4-.7-.5 1-.7 1-1.2 0-.6-1.4-3.4-1.7-3.4-.3 0 .5 1.1 1.6 2.5 2.5 2.3 1.5 3.7 4.5 1.5 3.1-.9-.6-2.7 4.9-2.2 6.7.1.4-.5.5-1.4.1-1.5-.5-1.5-.3 0 5.7 0 .3-.3.5-.9.5-.5 0-.9-.3-.8-.6.1-.3-1.6-2.8-3.8-5.4-2.2-2.7-4.5-5.7-5-6.7-.6-1.1-2.1-2.3-3.5-2.8l-2.5-1 3.7-3.6c3.1-3.2 3.4-3.8 2-4.6-.9-.5-1.6-1.3-1.6-1.9 0-1.9 4.5-.3 7.8 2.8 3.2 3.1 6.5 3.9 9 2 .8-.7 1.8-.2 3.3 1.7 2.7 3.5 3.4 3.3 4.6-1.2l1-3.7 1.3 3.3c.9 2.5 1.6 3.1 3.1 2.7 1.1-.4 2.7.2 4.1 1.5 2.6 2.4 2.9 2 4.8-6.3.8-3.4 1.8-5.7 2.7-5.7 1.8 0 1.7-.7-.8-4.1-2.2-3.1-1.9-3.5 1.2-1.9 1.3.7 1.9.7 1.9 0 0-.5 1.1-1 2.4-1 1.8 0 2.5-.7 2.9-2.7.3-1.5.1-3.6-.4-4.5-1.1-2-.2-2.3 2.1-.8.9.5 1.9.5 2.7-.2 1-.8 1.8-.6 3.3.7 1 .9 2.3 1.4 2.9 1.1.5-.4 2.2.6 3.6 2 2.3 2.3 3.2 2.6 6.9 2.1 3-.4 4.9-.2 6.4.9 1.5 1 3 1.3 4.5.8 1.2-.5 2.6-.7 3-.6.5.1 0-.9-1-2.2-2-2.7-6.8-3.9-9.6-2.4-1.4.7-2.4.5-3.8-.8-1.8-1.7-1.8-1.8 1-4.5 1.9-1.8 2.5-3.1 1.9-3.7-.6-.6-.6-1.7.1-3 .6-1 .8-2.2.5-2.4-1.2-1.3-1.1-4.8.1-5.8 1.1-.9 1.2-1.7.4-3.1-.5-1.1-.8-2.3-.5-2.7.2-.4-.2-2.1-.9-3.7-.9-1.9-1.4-2.4-1.4-1.3-.1 1-.5 1.8-.9 1.8-1.4 0-4.2-5.8-3.6-7.3.3-.9.1-2.5-.6-3.6-.6-1.2-.7-2.1-.2-2.1.5 0 .7-2.1.4-4.7l-.5-4.6 3.2.6c4 .8 12.3-1.3 12.8-3.3.6-2.3 14.1-2.5 16.5-.3 1 .9 1.8 2.2 1.8 3 0 .7.3 1.3.8 1.3.4.1 2 1.1 3.5 2.4 2.6 2.1 2.8 2.5 1.5 4.7-.7 1.3-1.7 2.7-2.3 3.1-.5.4-.6 1-.2 1.4.3.4-.5 2-1.8 3.6-3 3.6-3.1 4.5-.5 5.3 1.1.3 2 1.1 2 1.6s.6.9 1.3.9c.9 0 1.4 1.7 1.5 5.2.2 2.9.4 6.4.5 7.8.1 1.9-.3 2.6-2 2.8-2.4.4-3 1.6-1.2 2.7.5.4 1.4 1.8 2 3.2.5 1.3 1.3 2.2 1.8 1.8.5-.3 1.2.4 1.6 1.5.4 1.2 1.4 1.9 2.3 1.8 1.2-.2 1.7.4 1.6 2 0 1.7.3 2.1 1.8 1.6 1.1-.3 3.4.3 5.3 1.5 1.9 1.1 3.5 1.6 3.5 1.1 0-.6 1.1-1 2.5-1 1.8 0 2.5-.5 2.5-2 0-1.4.5-1.8 1.7-1.3 1 .4 1.4.2.9-.5-.4-.6.4-1.2 2.1-1.4 1.8-.2 4.5.8 7.8 2.9 5.7 3.6 9.9 4.6 10.1 2.3.1-.8.2-2.1.3-2.8.2-2 5.2-6.2 7.5-6.2 2.7-.1 6-2.6 5.1-3.9-.4-.7.4-1.1 1.9-1.1 1.6 0 2.6-.6 2.6-1.4 0-.8.5-1.6 1.1-1.8.7-.2.1-2.2-1.5-5.1-2.1-4-2.3-4.9-1-5.4.9-.3 1.3-1.2.9-2.1-.5-1.3-.2-1.2 1.4.2 1.9 1.7 1.9 1.7 1.4-.6-.3-1.2-1.1-2.9-1.7-3.7-.8-1-.5-1.7.9-2.7 3-2.2 2.2-8.2-1.6-11.7-1.6-1.5-2.8-3.1-2.5-3.6.3-.5-.4-1.7-1.5-2.7-1.1-1-1.7-2.4-1.5-3.1.3-.7-.1-2.5-.9-4s-1.5-3.4-1.5-4.1c0-.7-.8-1.5-1.7-1.9-1.9-.6-11.5-10.4-10.9-11 .2-.2 1.6.7 3.2 2 5 4.1 10.1 6.7 11.7 6.1 1.2-.4 1.8.2 2.3 2 .3 1.4.9 2.6 1.3 2.7.3 0 1.5.3 2.6.6 1.1.2 3.8.6 5.9.9 3.8.4 7.2 2.2 6.1 3.2-.7.7 1.5 3.2 2.7 3.2.6 0 .8-1 .5-2.1-1-3.7.3-7.5 3.1-9.2 1.5-.9 2.1-1.7 1.5-1.7-2.5 0-1.3-2 1.2-2 1.8 0 2.5-.5 2.5-1.9 0-1.1.5-2.3 1.1-2.7.6-.3.8-1.5.6-2.5-.7-2.4 3.9-5 6.8-3.9 1.5.6 3.1-.1 6.2-2.7 4.1-3.3 4.3-3.3 7.2-1.8 1.8.9 3.2 1.1 3.6.5.3-.5 1.2-.7 1.9-.4.8.3 1.7.1 2.1-.5.3-.6 2.2-1.1 4.1-1.1 2.2 0 3.7-.6 4-1.5.4-.9 1.9-1.5 4.2-1.5 3.8 0 10.2-3.6 10.2-5.8 0-.7.5-1 1-.7.6.3 1 1.5 1 2.6 0 1 .5 2.9 1.2 4.2.6 1.2 1.4 2.9 1.8 3.7.4.8 2.1 1.7 3.7 2.1 1.7.3 5.1 2.2 7.5 4.2 2.5 2 4.8 3.4 5.2 2.9.4-.4 1.2.1 1.7 1 .8 1.4 1.4 1.5 3.7.6 3-1.2 7.3-1.2 8.1 0 1.4 1.8 6.1 3 10.3 2.5 3.7-.4 5.4 0 9.1 2.1 2.5 1.5 4.7 3.2 5 3.9.6 1.7 10.2 1.6 10.2-.1 0-.7.5-1.6 1.2-2 1.3-.8.3-7.3-1.6-9.6-.6-.7-.9-1.5-.6-1.8.3-.3-.1-1.1-1-1.8-.8-.7-1.5-.9-1.5-.4s-1.6 1-3.6 1.1c-2 .1-4.4.9-5.3 1.7-2.4 2.2-6.4 2-8.6-.4-1.2-1.3-2.5-1.8-4-1.4-1.3.3-2.6.1-2.9-.5-.4-.6-1.6-1.1-2.6-1.1s-3.2-1.2-4.9-2.6c-1.7-1.4-3.1-2.4-3.1-2.1 0 .3-1.9-.1-4.2-.8-2.9-.8-4.4-1.9-4.8-3.3-.3-1.1-2.3-3.3-4.4-4.7-3.2-2.2-4.3-2.5-6-1.6-1.6.8-11.1.9-15.7.2-.4-.1-.9-1-1.2-2.1-.3-1.1-1.2-2-2.1-2-1 0-1.3-.6-1-1.5.4-1 0-1.5-1.2-1.6-1.1 0-3-1.4-4.3-3.1-2.3-2.8-2.3-3.3-1-5.5 1.7-3 8.9-5.9 8.9-3.7 0 1.2.5 1.2 3-.1 1.7-.9 3-2 3-2.5 0-1.6 7.2-1.1 8.4.5 1 1.4 1.6 1.4 4.1.3 2.7-1.2 2.9-1.7 2.5-4.8-.3-1.9-.1-5 .4-6.8.9-3 1.1-3.1 2.7-1.6 2.2 2 4.6.9 2.8-1.2-.6-.8-.9-1.7-.5-2.1.3-.3.6-.2.6.4 0 .6.9 1.3 2 1.6 2.6.7 2.5 2.1-.2 4.7-2.2 2-2.2 2-.1 2 1.1 0 2.4-.7 2.7-1.5.4-1.2 1-1.4 2.5-.5 2.5 1.3 5.1 1.3 5.1 0 0-.6-.7-1-1.6-1-2.7 0-1.1-3.3 2.1-4.3 1.7-.6 3.3-1.5 3.7-2.1.4-.6.8 0 .8 1.4v2.5l2.6-2.9c2.5-2.6 3.1-2.8 7.8-2.3 3.7.3 5.6.1 6.8-1 1.3-1.2 2.1-1.2 3.8-.3 2.8 1.5 4.9.6 4.7-2-.1-1.5-.7-1.9-2.7-1.8-1.9.2-2.6-.2-2.8-1.8-.4-2.9-4.2-4-4.2-1.3 0 1-.7 1.9-1.5 1.9s-1.5.5-1.5 1c0 .6-.8.5-2-.2-1.1-.7-1.8-1.9-1.5-2.6.3-.7 0-2.2-.5-3.3-1.2-2.2-.1-2.5 1.9-.7 1.1 1.1 1.3 1 .8-.3-.6-2 3.5-4.5 5.4-3.4.7.5 1 .4.6-.2-.4-.6 1.8-1.3 5.9-1.7 6.8-.7 10.4-2.2 10.4-4.3 0-1.6 1-1.6 4.4-.3 1.7.6 2.6.6 2.6 0s.7-1 1.5-1c1 0 1.5-1 1.5-3 0-1.7.7-4.7 1.5-6.7.9-2 1.4-4.2 1.1-4.9-.3-.7.2-1.8 1-2.4 1.8-1.6 1.8-2.7-.1-2.7-.8 0-1.2.4-.9.9.3.4-.2.8-1 .8s-1.9-.8-2.5-1.7c-.9-1.7-1.1-1.6-3.3.3-3.3 3-6.7 4.6-8.4 4-.8-.3-1.3-.2-.9.3.3.5 0 1.5-.7 2.3-.7.7-1.9 2.5-2.7 4.1-1 1.8-1.7 2.3-2.2 1.5-.4-.7-1 .3-1.4 2.5-.6 3.3-1.1 3.7-3.7 3.7-3 0-3.1 0-2.5-4.7.3-3.3 0-5.5-1.2-7.7-1-1.7-2.1-4.4-2.5-6-.7-2.8-.6-2.9 2.8-2.3 3.3.5 3.5.4 4.2-2.6.3-1.8 1.2-3.5 1.8-4 .8-.5.6-1.1-.6-2-1-.8-1.5-2.1-1.2-3.3.3-1.2-.1-2.6-1-3.4-1.4-1.1-2-1-3.7.6-2.6 2.4-4.8 2.6-7.3.8-4.6-3.2-6.2-.8-2.1 3 2.7 2.5 3.2 5.5 1.3 8.5-.9 1.4-.8 2.3.5 4.1 1.3 1.9 1.4 2.5.2 3.6-.7.8-2.1 1.4-3 1.4-.9 0-1.3.5-1 1.1.4.5.4 2.1.1 3.5-.5 1.9-1.1 2.4-2.6 1.9-3.2-1-2.5 2.4.8 3.6 2.5 1 2.6 1.1.9 2.4-1.1.7-1.4 1.6-.8 1.9 1.2.8 1.1 6.6-.1 6.6-.4 0-.8.9-.8 2.1 0 1.6-.4 1.9-2 1.4-1.4-.4-2-.2-2 .9 0 .8-.7 1.9-1.6 2.4-.9.5-1.4 1.2-1.2 1.7.4.9-1.2 1.9-6.5 4-2.4.9-4.1 2.3-4.5 3.7-.5 2.1-.6 2.1-1.2.3-.4-1.1-.1-3.3.5-4.9 1.1-2.5 1-3.4-.2-5.3-.8-1.3-1.9-2-2.4-1.8-1.5 1-8.7-3.4-11-6.6l-2.3-3.2 2.8.7c1.7.4 2.5.3 2.2-.3-.4-.6 2.2-1.3 6.4-1.7 4.6-.4 7-1.1 7-1.9 0-.7.9-1.5 1.9-1.8 1.1-.2 2.9-2.4 4.1-4.7 1.2-2.3 3-4.5 4.1-4.7 3-.8 2.2-2.1-1.6-2.9-1.9-.3-3.5-1.1-3.5-1.8 0-.8-.2-.8-.8 0-.4.7-1.5.8-2.8.4-1.7-.7-2-1.4-1.6-3.6.4-2.3.2-2.6-1.2-2.1-1 .4-2.2.7-2.7.7-1.7 0-.9 2.8 1 3.3 4.1 1-.5 6.7-5.5 6.7-.8 0-2.4-1.6-3.5-3.5-2.2-3.8-6.6-5.7-7.9-3.5-.6 1-1.3.9-3.1-.3-1.8-1.3-2.6-1.4-3.7-.5-1.1 1-1.8.8-3.1-.8s-2.5-2-4.9-1.6c-1.8.2-3.2.8-3.2 1.2 0 .4-1.2.5-2.6.2-2.1-.4-2.5-.9-2.3-3.6.2-1.7 0-3.7-.5-4.4-.4-.7-.1-1.2.8-1.2.8 0 2.9-1.3 4.5-2.9l2.9-2.8-2.1-2.2c-1.9-1.9-2-2.3-.7-3.2.8-.5 3.1-.8 5-.6 2.6.3 3.9-.2 5.2-1.7 1-1.2 1.7-2.4 1.8-2.9 0-.4 1.1-2.5 2.5-4.7 2.4-3.8 2.5-4.1.9-6.5-1.4-2.2-1.4-2.5-.1-2.5 2.3 0 2.7-2.4 1.4-8.6-.9-4.5-1.7-5.9-3.9-7-1.6-.8-2.8-2.1-2.8-2.9 0-1.7-3.6-2-4.6-.4zm19.2 66.6c-1.1 1.1-1.7-.4-.9-2.3.7-1.8.8-1.8 1.1-.1.2 1 .1 2.1-.2 2.4zm-31.8 44.4c-.4 3-3.5 4.9-4.8 2.9-.7-1.1-.4-1.7 1-2.2 1.1-.4 2-1.2 2-1.8 0-.5.5-1 1.1-1 .6 0 .9 1 .7 2.1zm-.8 7c0 .6-.9 1.3-2 1.6-1.1.3-1.7 1-1.3 1.7.3.6 0 .6-.7-.1-1.2-1.1-1.1-1.5.6-2.8 2.3-1.7 3.4-1.9 3.4-.4zm35 37.5c0 .8-.4 1.4-1 1.4-.5 0-1-.9-1-2.1 0-1.1.5-1.7 1-1.4.6.3 1 1.3 1 2.1zm-144 43.1c0 .5-.4 1.4-.9 2.2-.8 1.2-1.2 1.3-2.6.1-1.3-1-1.3-1.5-.3-2.1 1.6-1.1 3.8-1.1 3.8-.2zm-137.9 22.9c1.4 1.4 3.7 2.4 5.3 2.4 3.2 0 10.3 5.6 9.8 7.8-.6 2.4 1.9 4.2 5.8 4.2s5.7 2.3 3.9 5.1c-.4.8-.3 1.9.3 2.6.6.7.7 1.3.3 1.3-1.8 0-7.8-4.5-11.4-8.6-3.9-4.5-4-4.5-5.2-2.3-1.2 2.2-1.2 2.2-2.9-1-1.5-3.1-1.8-3.2-3.3-1.6-.9.9-1.7 1.3-1.7.9s-.7.1-1.5 1.2c-1.4 1.8-1.4 1.8-1.5-.7 0-2.3-.4-2.6-2.5-2.1-1.4.2-2.5 1-2.5 1.7 0 1.2-2.6 2.5-6 3-3 .4-6 1.8-6 2.6 0 1.8-4.2.9-4.7-1-.3-1.1-1.4-2.1-2.5-2.4-1.6-.5-1.8-.9-.8-2.6.6-1.2 1.8-2.1 2.8-2.1.9 0 2.6-.7 3.6-1.5 1.1-.8 2.7-1.5 3.6-1.5.9 0 2.5-.6 3.5-1.4 1.6-1.1 1.7-1.7.7-2.9-.7-.8-.9-2.2-.6-3.1 1-2.6 10-1.2 13.5 2zm2 46.7c-.1 1.2-1.5.9-1.9-.4-.3-.6.1-1 .8-.8.6.3 1.1.8 1.1 1.2zm36.2 15.7c.7 0 .5.6-.5 1.3-1.5 1.2-1.5 1.5.2 3.7 1.6 2.2 2.1 2.3 4.6 1.2 3.8-1.8 5-.1 1.9 2.8-1.4 1.3-2.5 3.2-2.5 4.2 0 2-3.9 2.5-5.7.7-.8-.8-1.7-.5-3.2 1-2.2 2.2-4.6 2.7-5.6 1.2-.3-.5.3-1.2 1.4-1.6 1.9-.6 1.9-.7.3-5.3-.9-2.6-2-4.9-2.4-5-1.7-.8-.7-2.2 1.5-2.2 3.7 0 6.7-1.2 6-2.3-.4-.7 0-.8 1.1-.4 1 .4 2.3.7 2.9.7zm-1.3 46.1c0 .6-.4.7-1 .4-.5-.3-1-1.1-1-1.6 0-.6.5-.7 1-.4.6.3 1 1.1 1 1.6z"/><path d="M401.075 325.5c2.2 1.7 4 2 3.2.6-.3-.5-1.6-1.1-2.8-1.4-2.2-.6-2.2-.5-.4.8zM501.275 343.5c-.4 1.6-1.3 2.5-2.3 2.3-1-.2-1.7.6-1.9 2.1-.3 1.3-1.1 2.9-2 3.5-1.3 1-1.3 1.3.1 3.1 1.1 1.3 1.8 1.6 2.1.8.7-1.7 5.7.6 5 2.3-.7 1.8.4 2.5 2.4 1.4 1.2-.6 2.3-.5 3.6.5 2.7 2 3.7 1.8 2.4-.4-1.2-2.4-1.3-3.4-.2-2.7.5.3 1.9-.9 3.1-2.5 1.7-2.3 2.9-3 4.7-2.6 1.3.2 2.1 0 1.8-.4-.3-.5-1.1-.9-1.9-.9-.7 0-1.5-1.2-1.7-2.8-.3-2.4-.7-2.7-3.3-2.4-1.6.2-3.1.8-3.3 1.3-.7 1.8-2.4.8-1.9-1.1.4-1.5 0-2-1.3-2-1.1 0-2.2-.5-2.5-1-1.1-1.7-2.3-1.1-2.9 1.5zM552.275 352.5c-1.6 2.4-1.5 2.5.3 2.5 1 0 2.1-.9 2.4-2 .8-3-.9-3.3-2.7-.5zM563.475 360.4c1.2 2.6 1.8 3.3 2 2.1.2-1-.5-2.7-1.7-3.8l-2-2.1 1.7 3.8zM503.675 362.8c0 2.3 3.5 5.7 4.4 4.4.7-1.2-.4-4.4-1.8-5.4-1.8-1.2-2.6-.9-2.6 1zM566.375 365.7c-1.1 1-.8 4.1.3 4.8.6.4 1.7.1 2.5-.5 1.2-1 1.8-.6 3.2 1.9 2.1 3.6 3.3 4 3.3 1 0-1.6.4-1.9 1.9-1.4 1.5.4 1.9.2 1.6-1.2-.2-1-.4-2.3-.5-2.8 0-.6-.6-.2-1.3.7-1.2 1.6-1.5 1.6-4.2-.2-1.6-1-3.3-1.6-3.8-1.3-.5.3-1.2 0-1.6-.6-.4-.6-1-.8-1.4-.4zM495.275 371.3c.3 1 .9 1.5 1.2 1.2.3-.3 0-1.1-.7-1.8-1-.9-1.1-.8-.5.6zM210.675 461.2c0 .4-.6 1.3-1.4 2-.7.8-1.7 2.9-2.1 4.7l-.7 3.4 3.5-.7c2-.4 3.8-.2 4.1.3 1 1.6 6.5.9 8.3-1.1 1.1-1.2 1.9-1.5 2.3-.7.5.7.9.5 1.3-.5.4-.9.2-1.6-.4-1.6-.6 0-.9-.8-.7-1.8.1-.9-.1-1.8-.5-2-1.7-.5-2.7-.1-2.7 1.3 0 2.5-1.7 1.7-2.9-1.3-1-2.4-1.8-2.8-4.6-2.8-1.9.1-3.5.4-3.5.8zM233.775 461.6c0 1.1.3 1.4.6.6.3-.7.2-1.6-.1-1.9-.3-.4-.6.2-.5 1.3zM485.375 469.6c.7 2 5.1 4.5 5.8 3.4.6-.9-.1-1.4-1.7-1.1-.5 0-.8-.5-.8-1.3 0-.7-.9-1.6-1.9-1.9-1.3-.3-1.8-.1-1.4.9zM301.675 512.6c0 .8.5 1.2 1 .9.6-.4.8-1.1.5-1.6-.9-1.4-1.5-1.1-1.5.7zM202.675 596.9c0 .6.5 1.3 1 1.6.6.3 1-.1 1-.9 0-.9-.4-1.6-1-1.6-.5 0-1 .4-1 .9zM93.175 604c.3.5 1.1 1 1.6 1 .6 0 .7-.5.4-1-.3-.6-1.1-1-1.6-1-.6 0-.7.4-.4 1zM97.375 607.7c.5 2.2.3 2.5-1.2 1.9-1.5-.5-1.6-.4-.5.9.7.8 1.7 1.5 2.3 1.5.6 0 2 .9 3.2 2 2.6 2.4 5 1.2 4.2-2.1-.4-1.4-2.3-3.3-4.7-4.6l-4-2.1.7 2.5zM78.875 609c-1.2 1.1-2.8 2-3.7 2-.8 0-1.5.9-1.5 2 0 2.9-2.1 7-3.7 7-1.3 0-1.2 2.2.3 6.8.2.8-.5 2.1-1.6 3-1.3 1-2.2 3.1-2.3 5.2-.1 1.9-.6 4-1 4.7-.4.7 0 1.6.9 2.1 1.4.8 1.5 1.4.3 4.5-1.4 3.9-2.9 4-2.9.3 0-1.2-1.1-3.3-2.4-4.5-1.4-1.3-2.7-3.3-2.9-4.5-.4-2-.4-2-.6-.1 0 1.1-.9 2.5-2 3.2-1.5.9-2.2.7-4.3-1.2-3-2.8-6.4-4-7.3-2.5-.3.6-1.1.8-1.6.5-.5-.4-.9-.1-.9.4 0 1.6-2.6 1.3-6-.4-1.8-.9-5.8-1.6-10-1.6-3.9-.1-6.8-.5-6.4-1 .3-.5-.5-.9-1.7-.9s-2.7-.7-3.4-1.6c-.9-1.4-1.6-1.4-3.3-.5-1.2.6-2.2 1.6-2.2 2.2 0 .6-.4.8-.9.5-.5-.3-1.1.5-1.3 1.9-.3 1.4-.1 2.5.3 2.5.5 0 .9 1.1.9 2.5 0 2.1-.5 2.5-2.7 2.5h-2.8l3.4 2.2c3.2 2 3.3 2.3 2.7 6.9-.5 3.7-.3 4.8.9 5.3 1.3.5 1.3.8-.5 2.6-1.1 1.1-2.5 2-3.1 2-2.6 0 0 2.3 2.9 2.5 2.9.2 3.2 0 3.2-2.7 0-2.4.3-2.8 1.7-1.9 1.3.7 2.9.3 6.2-1.6 4.3-2.4 4.5-2.4 7-.6 1.5 1 3.8 1.7 5.4 1.5 2.5-.3 2.8-.7 2.3-2.7-.8-3.1.9-3.5 5.3-1.3 1.9 1 4.1 1.8 4.8 1.8.6 0 1.8.8 2.5 1.9.8 1.1 3 2.1 5.3 2.4 2.2.2 5 .8 6.2 1.2 1.8.6 2.1.4 1.6-1.4-.9-3.5 2.6-2.3 4.2 1.4.4 1.1.9 2.2 1 2.5.9 3.4 1.9 5 3 5 .8 0 1.8.8 2.4 1.7.6 1.2 2 1.6 4.9 1.5 2.2-.2 4.3.2 4.7.8 1 1.7 4.1 1.1 6.1-1.1 1.4-1.6 2.7-2 5.1-1.6 1.8.3 3.5.1 3.8-.4 1.1-1.7 3.6-.9 6.2 1.8 1.7 1.8 2.4 2.2 2 1-1-2.6.4-2.1 4.6 1.8 2.1 1.9 4 3.5 4.2 3.5 2.1 0 7.5-3.7 7.5-5.2 0-1 1-2 2.5-2.4 2.6-.7 2.7-.7 2.9-6.8 0-2.3.7-4.1 1.5-4.4.9-.3 1.1.1.7 1.4-.7 2.3.3 3.9 2.7 4 2.1.2 2.1.5.1-4.1-1.2-3-1.3-4.4-.5-6.2 1.5-3.3 1.5-3.3-2.1-2.9-1.8.3-4 .5-4.8.5-1.3.1-1.3.2 0 1.1 1 .7 1.1 1 .2 1-.7 0-1.5-.7-1.9-1.5-.8-2.1-6.1-4.2-9.4-3.7-1.9.3-2.6.8-2.2 1.9.5 1.2-.3 1.4-3.8 1.1-3.4-.2-4.4.1-4.5 1.2-.1.8-.2 1.9-.3 2.3 0 .4-1.1.3-2.2-.4-1.6-.8-2.3-.8-2.9.1-.5.7-1.6.9-2.9.5-1.9-.6-2.2-1.3-1.9-4.3.2-3-.1-3.7-1.7-4-2.9-.6-5.4-3.1-5.2-5.3.2-2.3 1.3-2.4 5.1-.4 3.4 1.8 4.5 1.3 2.5-1.1-1.3-1.6-1.2-1.7.9-1.2 2.5.7 2.8-.1 1-2.1-1.1-1-1-1.5.5-2.5 1.9-1.5 2.3-4.1.7-5.1-.6-.4-.8-1.1-.4-1.6.3-.5-.1-2-1-3.3-1.5-2.3-1.4-3.1 1-9.9.6-1.6.8-1.6 2.4-.2 1.6 1.5 1.8 1.4 1.8-1 0-1.4-.6-2.5-1.3-2.5-.8 0-2.7-1.1-4.3-2.5-2.1-1.8-3.2-2.1-4-1.3-.9.9-1.6.7-3-.5-2.4-2.2-4.4-2.1-7 .3zm48.5 48.7c-.3.3-1.1.2-1.7-.2-.9-.6-.9-1 .1-1.6 1.4-.8 2.7.7 1.6 1.8zM147.675 620.5c0 .8.7 1.5 1.6 1.5 1.4 0 1.4-.3.4-1.5-.7-.8-1.4-1.5-1.6-1.5-.2 0-.4.7-.4 1.5zM153.175 622c.3.5.8 1 1.1 1 .2 0 .4-.5.4-1 0-.6-.5-1-1.1-1-.5 0-.7.4-.4 1zM162.675 622.6c0 .9-1.1 1.4-3.5 1.4-1.9 0-3.5.5-3.5 1.1 0 1.2 6.9 1 8.5-.2.6-.4 1.7-.4 2.4.1 1.5.8 6.1-.7 6.1-2.1 0-.4-1.2-1-2.7-1.2-5.1-.9-7.3-.6-7.3.9zM147.975 651.8c-3.5.2-6.3.7-6.3 1.2 0 1.3-4.7 1.3-5.5 0-.7-1.1-2.5-.4-2.5.8 0 .4 1.3 1.4 2.9 2.3 1.8 1.1 3.1 2.8 3.6 4.8.8 3.7 3.1 4.5 9.5 3.3 2.5-.5 5.8-.5 7.4-.1 3.2.9 5 .3 4-1.2-.3-.5-.1-1.5.4-2.2 1.1-1.3-.5-3.6-4.9-7.2-1.9-1.6-3.6-1.9-8.6-1.7zM216.675 653.1c0 .5.5.7 1 .4.6-.3 1-.8 1-1.1 0-.2-.4-.4-1-.4-.5 0-1 .5-1 1.1zM192.275 653.8c-.3.5-1 2.2-1.6 3.7l-1 2.7 4.5-.6c3.7-.6 4.6-.4 5.1.9.9 2.3 2.4 0 2.4-3.8 0-2.3-.4-2.7-2.9-2.7-1.6 0-3.6-.3-4.4-.6-.8-.3-1.8-.1-2.1.4zM215.575 656.2c-.2 2.5.3 5.3 1.2 6.2.6.6.9.5.9-.3 0-1.1.3-1.1 1.5-.1 1.7 1.4 1.9.8.6-1.8-.5-.9-1.2-2.5-1.5-3.5-.6-2-2.5-2.3-2.7-.5zM206.475 660.1c.4 2.9.3 3.1-1.8 2.4-1.5-.5-2-.4-1.6.4.5.7-.2 1.1-1.8 1.1-1.8 0-2.6.5-2.6 1.8 0 1-.5 2.3-1.2 3-.9.9-.6 1.6 1.3 3.1 3.2 2.5 6.2 7.8 4.9 8.6-.6.4-.4 1.5.6 3.1 1.3 1.9 1.4 2.7.4 3.9-.9 1-.9 1.5-.1 1.5 1.5 0 1.4 4.3-.1 5.9-1.1 1.1-1 1.3 0 .7.7-.4 1.5-.1 1.8.9.4.9 2.4 2.3 4.5 3.2 2.2.8 3.9 1.9 3.9 2.3 0 .5.8.6 1.9.3 1-.3 2.2 0 2.5.6 1 1.6 4.6 1.3 4.6-.3 0-.9.7-1.2 2-.9 1.2.3 2 0 2-.6 0-.7.4-1 .9-.7.5.4 1.1 0 1.4-.6.3-1 .9-.8 2.4.5 1.1.9 2.3 1.4 2.8 1 .4-.5.5 0 .2 1-.4 1-.7 2.3-.7 2.8 0 .6-.5.7-1.1.4-.6-.4-.5.2.3 1.4.7 1.2 1.8 2.1 2.5 2.1.6 0 1.3.4 1.5.9.2.4 1.4 1.2 2.7 1.6 1.7.5 2.2.4 1.9-.6-.3-.8-1.4-1.5-2.5-1.7-2.8-.4-3.8-3.1-1.8-4.6 1.3-.9 1.4-1.7.6-3.9-.8-2.2-.8-2.7.4-2.7 1.7 0 .4-4.4-2.3-7.5-2.6-2.9-8.6-5.9-9-4.6-.2.6-2.1 1.1-4.1 1.1-3 0-4.6-.8-7.9-4-2.3-2.1-4.3-4.5-4.3-5.2-.2-2.5.3-4.3 1.8-6 2.5-2.7 1-4.9-2.6-3.8-2.2.6-3.3.5-4.2-.6-.6-.8-.9-1.7-.6-2.1.4-.3.9.1 1.3 1 .5 1.5.8 1.5 3.2-.1 1.5-.9 3-2.1 3.4-2.6 1-1.5-.3-3.6-2.2-3.6-1 0-2-.7-2.4-1.5-1.1-2.9-3.3-1.7-2.8 1.6zM171.275 661.5c-3.3 1.3-6.3 2.2-6.8 1.9-1.4-.9-.9 1.4 1.2 5.3 1 2 1.7 3.9 1.5 4.3-.2.4.6.5 1.9.3 1.8-.4 2.6-1.4 3.1-3.9.3-1.9 1.2-3.4 2-3.4.7 0 1.7-.9 2-2 .3-1.1 1.5-2 2.5-2 2.5 0 3.4-1.6 1.4-2.4-2.2-.8-2.2-.8-8.8 1.9zM183.675 660c0 .5.7.7 1.5.4.8-.4 1.5-.8 1.5-1 0-.2-.7-.4-1.5-.4s-1.5.4-1.5 1zM.175 661c.3.5 1.1 1 1.6 1 .6 0 .7-.5.4-1-.3-.6-1.1-1-1.6-1-.6 0-.7.4-.4 1z"/><path d="M216.375 669.5c-.8 2-.4 2.9 1.1 2.4.5-.2.6-1.3.2-2.3-.6-1.9-.7-1.9-1.3-.1z"/></g></svg>