<?xml version="1.0" standalone="no"?>
<!DOCTYPE svg PUBLIC "-//W3C//DTD SVG 20010904//EN"
 "http://www.w3.org/TR/2001/REC-SVG-20010904/DTD/svg10.dtd">
<svg version="1.0" xmlns="http://www.w3.org/2000/svg"
 width="697.089165pt" height="506.172521pt" viewBox="0 0 697.089165 506.172521"
 preserveAspectRatio="xMidYMid meet">
<metadata>
Created by potrace 1.15, written by Peter Selinger 2001-2017
</metadata>
<g transform="translate(-644.910835,1195.416499) scale(0.100000,-0.100000)"
fill="#222222" stroke="none">
<path d="M10650 11951 c1 -3 11 -26 24 -50 17 -33 24 -40 29 -27 12 31 -4 74
-29 79 -13 2 -24 1 -24 -2z"/>
<path d="M9329 11859 c-7 -13 -6 -19 1 -19 6 0 3 -11 -6 -24 -15 -24 -21 -25
-61 -10 -10 4 -26 8 -35 9 -26 3 -35 15 -18 25 8 5 12 12 8 15 -11 12 -67 -46
-73 -78 -4 -17 -13 -42 -21 -55 -11 -16 -12 -27 -4 -42 7 -13 7 -26 -2 -44
-11 -26 -28 -35 -28 -16 0 7 -6 7 -20 0 -11 -6 -20 -20 -20 -31 0 -16 -4 -19
-20 -14 -25 8 -25 3 3 -47 54 -99 54 -97 45 -151 -5 -29 -9 -60 -9 -69 0 -10
-5 -18 -10 -18 -5 0 -3 -12 5 -28 13 -24 12 -31 -4 -65 -10 -21 -29 -46 -42
-57 -22 -18 -22 -19 -5 -32 16 -12 28 -29 77 -104 12 -18 30 -34 42 -37 13 -4
19 -11 15 -21 -3 -8 -1 -16 6 -19 10 -3 39 -105 37 -132 0 -5 -2 -23 -3 -40
-2 -19 4 -38 16 -51 13 -16 18 -34 15 -65 -2 -25 1 -44 7 -44 6 0 21 -11 34
-24 22 -22 23 -25 8 -36 -16 -11 -15 -14 6 -36 46 -49 49 -56 35 -78 -10 -16
-10 -27 -1 -51 6 -16 7 -32 3 -35 -8 -5 -40 -63 -40 -72 0 -1 9 -3 19 -3 10 0
21 -7 25 -15 3 -9 12 -12 22 -8 14 5 16 2 10 -18 -18 -54 -18 -86 -1 -103 16
-15 16 -19 1 -50 -9 -19 -13 -41 -10 -50 4 -11 2 -15 -7 -11 -29 11 -51 -71
-36 -135 18 -77 17 -92 -1 -88 -10 3 -24 -2 -31 -9 -9 -10 -24 -13 -41 -9 -18
3 -33 0 -40 -9 -20 -24 -47 -17 -60 14 -8 21 -17 27 -30 24 -12 -3 -29 5 -44
21 -17 16 -26 20 -26 11 0 -39 -93 -46 -98 -8 -3 19 -6 20 -33 11 -16 -5 -29
-16 -29 -24 0 -10 -8 -12 -29 -8 -31 6 -42 -4 -46 -40 -4 -35 -4 -36 -20 -36
-8 0 -15 -5 -15 -12 0 -6 3 -8 7 -5 3 4 17 0 30 -8 13 -9 28 -13 33 -10 14 9
50 -13 50 -31 0 -9 -5 -12 -11 -8 -8 5 -10 -3 -5 -28 4 -22 1 -40 -8 -53 -13
-18 -12 -21 15 -32 20 -8 45 -9 81 -3 34 5 58 4 65 -2 15 -12 63 -2 63 13 0 6
12 -3 26 -21 15 -17 39 -37 55 -45 25 -13 28 -13 33 3 4 9 21 24 39 32 19 9
31 22 31 33 -1 10 5 17 17 17 24 0 24 18 2 37 -17 13 -16 14 5 8 25 -7 42 19
24 37 -9 9 -6 115 4 127 2 2 10 -3 18 -12 8 -8 13 -17 10 -20 -9 -8 27 -57 41
-57 7 0 15 -7 19 -15 3 -8 12 -15 21 -15 8 0 15 -7 15 -16 0 -13 -6 -15 -27
-10 -16 4 -32 14 -38 23 -5 8 -17 23 -25 32 -8 9 -12 12 -7 7 4 -6 7 -21 7
-34 0 -13 4 -20 10 -17 11 7 13 -15 4 -39 -5 -12 -10 -13 -27 -5 -17 10 -19 9
-12 -7 4 -11 9 -50 12 -89 2 -38 5 -79 8 -89 5 -24 -13 -59 -26 -50 -6 3 -18
-3 -27 -14 -56 -66 -53 -61 -32 -72 12 -6 20 -21 20 -35 0 -21 -5 -25 -29 -25
-30 0 -54 21 -33 28 21 7 13 20 -8 15 -11 -3 -20 -9 -20 -13 0 -13 -73 12 -97
33 -21 19 -21 19 -32 -2 -7 -12 -19 -21 -29 -21 -9 0 -31 -9 -49 -19 -28 -18
-33 -18 -44 -5 -11 14 -14 13 -20 -4 -11 -28 -59 -36 -103 -18 -20 8 -36 11
-36 6 0 -4 -3 -15 -6 -23 -3 -10 5 -18 27 -26 42 -14 44 -14 65 6 16 16 18 15
40 -10 13 -15 29 -24 37 -21 8 3 18 1 22 -5 3 -6 15 -11 26 -11 12 0 19 -7 19
-20 0 -10 9 -24 19 -30 28 -14 33 -13 26 9 -5 17 -1 18 32 15 152 -17 152 -17
162 8 6 12 10 17 10 11 1 -7 8 -13 17 -13 8 0 12 4 9 10 -3 6 1 7 9 4 12 -5
16 0 16 20 0 21 5 26 25 26 27 0 61 43 71 92 4 17 17 31 36 39 30 12 30 13 24
70 -6 47 -3 64 14 97 20 39 22 39 58 31 55 -13 62 -11 72 16 5 14 15 25 22 25
20 0 41 52 26 61 -16 10 -10 16 25 24 17 5 27 3 27 -4 0 -21 19 -10 76 45 32
30 71 58 86 61 16 3 33 14 39 24 9 18 11 18 36 1 15 -9 30 -16 33 -16 3 1 11
-1 19 -4 12 -5 33 19 31 34 -1 4 3 10 9 14 7 3 13 22 14 41 2 29 24 69 34 62
2 -2 3 0 2 5 0 4 -10 12 -22 19 -18 10 -19 13 -6 18 13 5 14 15 8 53 -7 41 -5
49 14 62 34 24 77 68 77 80 0 13 17 13 25 -1 9 -14 55 29 55 51 0 10 20 30 44
45 34 21 46 36 51 61 4 24 11 34 24 34 10 0 35 20 55 45 25 29 45 45 60 45 13
0 31 10 42 21 10 12 42 32 70 45 42 19 52 28 58 54 3 18 3 43 0 57 -7 25 -7
25 24 9 41 -21 45 -20 40 9 -3 13 -2 22 3 20 4 -3 20 9 36 25 21 23 34 29 51
25 17 -4 22 -2 16 6 -4 8 -3 9 4 5 7 -4 12 -1 12 8 0 8 -6 16 -12 19 -10 4
-10 7 -1 18 11 11 18 9 42 -9 24 -17 30 -19 35 -7 3 8 1 17 -4 20 -6 4 -10 15
-10 26 0 11 -7 19 -17 20 -10 0 -13 3 -6 5 9 4 9 11 1 30 -9 19 -8 28 5 42 10
10 17 30 17 44 0 21 4 25 20 21 11 -3 39 -2 64 1 47 7 66 31 66 86 0 22 5 29
23 32 29 4 32 46 6 71 -17 16 -18 20 -4 33 8 9 15 22 15 30 0 10 6 13 18 10
12 -4 21 3 31 26 13 29 13 33 -8 49 -12 10 -20 23 -17 28 10 16 -34 59 -79 77
-25 9 -45 22 -45 28 0 7 -6 20 -12 29 -12 16 -13 15 -14 -5 0 -13 -9 -44 -20
-71 -15 -40 -16 -52 -6 -79 11 -29 9 -36 -14 -70 -15 -21 -30 -38 -34 -38 -4
0 -12 -11 -18 -25 -6 -14 -17 -24 -24 -23 -7 2 -14 -7 -16 -20 -3 -18 -8 -21
-24 -16 -19 6 -20 3 -16 -65 2 -39 0 -71 -5 -71 -4 0 -3 -9 3 -19 7 -14 7 -22
-2 -27 -7 -4 -14 -2 -16 6 -3 8 -15 24 -28 37 -12 12 -35 49 -49 82 -27 60
-45 73 -79 61 -28 -9 -66 0 -66 16 0 15 -20 17 -69 8 -18 -4 -31 -13 -31 -21
0 -9 -6 -13 -14 -10 -9 4 -17 -2 -21 -14 -4 -10 -15 -19 -25 -19 -10 0 -20 -4
-22 -9 -1 -5 -16 -7 -31 -4 -22 4 -27 10 -24 24 4 14 0 19 -16 19 -14 0 -28
11 -39 30 -9 17 -13 30 -9 30 14 0 19 46 8 67 -6 10 -17 23 -26 29 -12 10 -17
8 -26 -9 -6 -12 -19 -23 -29 -25 -10 -2 -16 0 -12 6 12 19 -44 23 -75 5 -29
-17 -30 -17 -53 9 -17 18 -32 24 -49 21 -15 -3 -31 2 -42 14 -10 10 -32 23
-49 29 -21 7 -32 18 -34 35 -6 40 -20 51 -45 34 -12 -8 -31 -14 -42 -13 -11 1
-37 -2 -57 -6 -22 -4 -39 -3 -43 4 -4 6 -16 5 -35 -5 -16 -8 -36 -15 -45 -15
-8 0 -15 -7 -15 -16 0 -14 -3 -14 -16 -3 -14 11 -15 9 -9 -23 6 -33 5 -36 -13
-31 -19 4 -20 1 -15 -35 l5 -40 -36 12 c-22 6 -38 19 -42 31 -15 55 -26 65
-71 65 -55 0 -103 24 -103 51 0 11 4 18 9 15 4 -3 6 5 4 18 -6 32 13 66 37 66
23 0 26 18 6 34 -19 15 -31 56 -16 56 6 0 13 -7 16 -15 9 -22 24 -18 24 5 0
17 5 19 25 14 19 -5 27 -2 32 12 3 11 11 22 16 25 15 10 -3 68 -23 74 -17 5
-17 8 -4 33 12 24 12 27 -1 30 -17 4 -21 22 -5 22 6 0 10 16 10 36 0 30 3 34
19 29 13 -4 20 0 24 16 3 11 10 18 15 15 11 -7 22 38 13 52 -3 5 -30 16 -59
25 -50 14 -53 14 -63 -4z m-39 -143 c0 -3 -4 -8 -10 -11 -5 -3 -10 -1 -10 4 0
6 5 11 10 11 6 0 10 -2 10 -4z m1515 -916 c3 -5 1 -10 -4 -10 -6 0 -11 5 -11
10 0 6 2 10 4 10 3 0 8 -4 11 -10z m-1025 -884 c0 -3 -4 -8 -10 -11 -5 -3 -10
-1 -10 4 0 6 5 11 10 11 6 0 10 -2 10 -4z m113 -43 c-7 -2 -19 -2 -25 0 -7 3
-2 5 12 5 14 0 19 -2 13 -5z m-13 -32 c0 -30 -17 -34 -22 -6 -4 17 -1 25 8 25
8 0 14 -9 14 -19z"/>
<path d="M12510 11830 c-13 -8 -13 -11 1 -22 26 -21 32 -49 12 -55 -10 -2 -28
-20 -39 -38 -21 -32 -21 -33 -3 -38 13 -3 19 -14 19 -31 0 -16 6 -26 15 -26
17 0 21 45 5 55 -9 5 6 53 21 65 14 11 30 53 25 65 -8 21 -40 35 -56 25z"/>
<path d="M10700 11800 c0 -5 15 -17 33 -26 41 -21 40 -20 31 -35 -14 -23 -14
-68 0 -81 7 -8 17 -24 21 -37 5 -17 2 -24 -13 -28 -12 -3 -22 -16 -26 -34 -4
-21 -11 -29 -26 -29 -28 0 -25 -13 10 -53 30 -35 38 -57 20 -57 -5 0 -10 -7
-10 -16 0 -9 -9 -18 -20 -21 -11 -3 -20 -9 -20 -14 0 -5 9 -9 20 -9 11 0 20 5
20 11 0 6 6 9 14 6 8 -3 17 0 20 8 3 10 15 12 40 8 37 -6 45 3 24 27 -11 12
-10 12 2 3 12 -9 25 -7 58 7 34 15 42 24 42 45 0 30 -17 66 -36 78 -14 8 -43
68 -74 152 -24 63 -31 75 -48 75 -10 0 -27 7 -38 15 -22 17 -44 19 -44 5z"/>
<path d="M12110 11797 c0 -7 5 -18 12 -25 10 -10 5 -11 -22 -7 -19 3 -29 3
-22 -1 6 -3 12 -20 12 -37 0 -17 7 -38 16 -48 9 -10 13 -23 9 -29 -12 -19 -74
49 -87 95 -12 39 -12 39 -16 11 -2 -16 1 -39 6 -50 23 -47 30 -86 22 -120 -5
-24 -4 -37 4 -40 7 -3 7 -5 -1 -5 -7 -1 -13 -10 -13 -21 0 -11 -5 -20 -11 -20
-5 0 -8 -4 -5 -9 3 -5 -1 -11 -9 -14 -12 -5 -11 -14 7 -54 11 -26 29 -60 40
-75 16 -24 22 -26 45 -17 24 9 62 -5 48 -19 -2 -3 3 -10 12 -17 13 -9 22 -9
45 2 29 15 39 26 13 17 -10 -4 -15 0 -15 11 0 9 -9 30 -21 46 l-20 29 20 0
c14 0 21 6 21 18 0 10 7 27 15 38 18 24 19 35 2 28 -8 -3 -19 2 -26 10 -10 12
-8 16 8 21 12 3 22 11 22 16 1 5 2 15 3 22 1 7 14 12 31 11 17 0 33 3 36 8 3
5 18 -4 32 -21 31 -37 27 -74 -7 -66 -16 4 -25 -2 -38 -30 -10 -20 -18 -50
-18 -67 0 -18 7 -36 18 -44 23 -18 35 -17 24 2 -12 21 -3 64 13 64 22 0 48
-38 43 -64 -3 -14 -1 -23 3 -20 5 3 9 1 9 -5 0 -5 -5 -11 -11 -13 -9 -3 -9
-10 0 -26 10 -18 9 -23 -3 -28 -8 -3 -19 -3 -24 0 -6 3 -12 -1 -16 -9 -6 -16
7 -29 18 -18 10 11 36 12 36 2 0 -5 7 -9 15 -9 9 0 12 6 9 15 -7 17 13 20 36
5 9 -6 19 -5 28 3 8 6 24 11 36 12 18 0 21 5 19 43 -2 49 20 59 39 17 13 -30
33 -32 47 -6 7 13 19 17 38 15 23 -4 25 -3 8 5 -18 8 -18 9 -3 16 14 6 16 11
7 27 -8 15 -8 22 1 28 7 4 13 19 13 34 1 14 6 26 10 26 28 0 46 72 21 88 -6 4
-13 15 -17 25 -5 14 -1 17 21 17 35 0 71 23 53 34 -7 5 -15 6 -18 3 -3 -3 -15
-2 -28 3 -14 5 -26 5 -33 -2 -7 -7 -12 -3 -17 11 -3 12 -12 22 -18 23 -7 0
-16 2 -22 2 -5 1 -19 7 -30 14 -19 11 -19 11 -1 12 13 0 17 5 13 20 -3 11 -1
20 4 20 4 0 6 7 3 15 -9 23 -34 18 -34 -6 0 -14 -5 -19 -14 -16 -12 5 -13 0
-4 -26 6 -18 15 -37 20 -44 5 -7 7 -16 4 -21 -3 -5 6 -14 19 -20 14 -7 25 -16
25 -22 0 -7 -8 -6 -22 2 -13 7 -31 13 -40 14 -14 1 -14 -2 -5 -17 7 -11 17
-19 24 -19 7 0 13 -6 13 -12 0 -9 4 -8 10 2 7 12 13 12 27 4 21 -13 25 -60 5
-56 -7 1 -15 -11 -18 -28 -10 -49 -29 -56 -48 -16 -8 18 -17 44 -20 57 -3 18
-9 24 -27 22 -13 -1 -18 1 -11 3 18 8 15 24 -4 17 -9 -3 -29 4 -47 17 -19 15
-32 19 -35 12 -2 -6 -10 -8 -18 -5 -7 3 -12 9 -9 13 3 4 -1 13 -9 19 -10 9
-15 8 -20 -4 -3 -8 -12 -15 -21 -15 -16 0 -20 15 -6 24 5 3 11 17 13 30 4 18
0 26 -16 30 -11 3 -25 1 -31 -4 -7 -6 -15 -7 -18 -3 -4 3 -14 0 -22 -7 -13
-11 -20 -11 -41 0 -24 14 -27 21 -39 92 -4 26 -10 36 -20 32 -7 -3 -23 -1 -34
6 -16 8 -21 8 -21 -3z"/>
<path d="M12832 11758 c2 -7 -5 -12 -14 -10 -20 3 -25 -14 -5 -21 9 -3 9 -8 1
-17 -9 -9 -18 -8 -38 5 l-27 18 10 -26 c5 -14 7 -28 4 -31 -4 -3 -1 -6 5 -6 7
0 12 4 12 9 0 5 9 11 21 14 15 4 19 2 15 -9 -3 -7 -2 -13 2 -13 21 3 23 -4 7
-27 -21 -32 -6 -56 20 -30 9 9 14 19 12 24 -8 12 21 45 35 39 10 -3 14 3 13
21 0 18 -11 32 -38 49 -22 14 -36 18 -35 11z"/>
<path d="M12664 11732 c-7 -5 -6 -15 2 -30 8 -17 13 -20 17 -10 5 11 7 11 15
-1 5 -7 12 -9 15 -4 8 12 -37 53 -49 45z"/>
<path d="M12675 11660 c3 -5 10 -10 16 -10 5 0 9 5 9 10 0 6 -7 10 -16 10 -8
0 -12 -4 -9 -10z"/>
<path d="M12870 11620 c0 -13 7 -20 20 -20 23 0 26 10 8 28 -18 18 -28 15 -28
-8z"/>
<path d="M12776 11614 c-8 -20 0 -32 14 -18 5 5 5 15 1 22 -6 11 -10 10 -15
-4z"/>
<path d="M12515 11600 c3 -5 8 -10 11 -10 2 0 4 5 4 10 0 6 -5 10 -11 10 -5 0
-7 -4 -4 -10z"/>
<path d="M12846 11575 c4 -8 10 -15 15 -15 6 0 19 -9 31 -20 37 -34 40 -22 4
15 -36 36 -60 46 -50 20z"/>
<path d="M12735 11520 c11 -49 36 -85 46 -68 15 23 10 39 -22 71 l-31 31 7
-34z"/>
<path d="M12704 11425 c-11 -11 -24 -28 -27 -39 -6 -15 -3 -18 18 -14 14 3 28
1 31 -3 3 -5 -2 -9 -10 -9 -10 0 -13 -6 -10 -15 5 -11 2 -13 -10 -9 -9 4 -16
1 -16 -6 0 -8 10 -9 30 -5 17 4 30 3 30 -2 0 -4 4 -14 9 -22 8 -12 12 -12 25
-2 13 11 12 17 -11 52 -14 21 -28 51 -32 66 l-6 28 -21 -20z"/>
<path d="M12263 11303 c-13 -2 -28 -12 -35 -22 -18 -25 -69 -33 -90 -14 -16
14 -18 13 -23 -9 -6 -23 -12 -26 -87 -31 -46 -4 -91 -13 -104 -22 -22 -14 -27
-14 -55 0 -29 15 -44 15 -115 0 -18 -4 -41 -2 -53 4 -30 17 -26 -3 6 -29 22
-17 25 -24 16 -38 -6 -9 -19 -16 -29 -14 -15 2 -19 -4 -19 -27 0 -16 3 -33 8
-37 4 -4 7 -18 7 -31 0 -34 38 -81 77 -94 48 -16 42 -33 -11 -27 -41 5 -45 4
-49 -21 -6 -27 12 -56 20 -34 3 8 15 6 43 -5 46 -19 47 -23 20 -47 -16 -15
-22 -15 -35 -5 -8 7 -15 8 -15 2 0 -5 -7 -13 -16 -16 -12 -5 -15 -2 -12 12 4
14 -1 18 -23 20 -15 1 -30 -2 -34 -8 -3 -5 -19 -10 -36 -10 -26 0 -29 -3 -29
-31 0 -17 4 -28 10 -24 5 3 7 0 4 -9 -9 -23 -93 -61 -106 -48 -8 8 -24 1 -56
-24 -25 -19 -50 -34 -56 -34 -6 0 -4 5 4 11 12 8 10 9 -10 7 -17 -2 -26 -11
-30 -28 -4 -20 -11 -25 -30 -23 -109 9 -137 9 -164 2 -23 -7 -34 -6 -41 5 -8
10 -16 11 -27 5 -11 -6 -19 -5 -25 3 -10 17 -11 58 -1 58 14 0 9 37 -7 50 -9
7 -13 21 -10 31 4 10 1 28 -5 39 -14 27 -35 12 -44 -30 -4 -22 -11 -30 -27
-30 -13 0 -23 -8 -26 -21 -4 -14 -12 -19 -24 -16 -17 5 -24 -4 -20 -25 1 -11
-7 -10 -30 3 -28 15 -47 -4 -45 -44 2 -36 -12 -67 -32 -67 -7 0 -15 -7 -19
-16 -5 -12 -15 -15 -48 -10 -38 6 -44 4 -60 -21 -18 -27 -27 -83 -12 -83 4 0
7 -10 7 -22 0 -13 5 -30 10 -38 8 -12 10 -11 10 6 0 20 35 44 64 44 8 0 16 7
20 15 7 19 55 20 62 1 12 -32 130 -64 167 -45 10 6 17 6 17 1 0 -14 57 -82 63
-76 3 3 16 0 29 -7 32 -18 56 -18 70 -2 6 7 19 11 29 8 27 -9 23 7 -6 29 -17
13 -23 26 -21 45 4 34 27 71 44 71 7 0 20 7 28 15 20 20 26 19 52 -5 12 -12
22 -17 22 -11 0 14 31 22 45 11 16 -14 68 41 59 63 -3 10 -1 17 6 17 6 0 9 4
6 8 -2 4 -1 14 4 22 7 11 11 11 23 1 9 -6 26 -13 39 -15 13 -1 31 -6 41 -11
12 -5 22 -2 30 7 15 19 45 30 52 19 8 -13 -15 -71 -28 -68 -6 1 -17 -10 -24
-24 -10 -20 -10 -34 -2 -59 9 -26 9 -34 -2 -41 -11 -6 -9 -12 7 -31 12 -13 19
-29 17 -36 -3 -8 5 -20 17 -29 12 -8 19 -21 16 -29 -3 -8 0 -14 6 -14 9 0 9
-3 1 -11 -6 -6 -9 -18 -6 -26 5 -13 2 -13 -15 -4 -16 8 -22 9 -22 1 0 -6 -4
-9 -9 -6 -5 3 -12 -1 -15 -10 -3 -8 -10 -13 -15 -10 -5 3 -14 -1 -21 -9 -7 -8
-9 -15 -5 -15 4 0 2 -7 -5 -15 -12 -14 -8 -29 8 -30 31 -3 50 -18 50 -42 0
-28 48 -77 64 -67 5 3 16 0 24 -7 14 -12 14 -14 -2 -26 -17 -12 -16 -14 4 -36
12 -13 22 -30 22 -38 0 -9 14 -26 32 -39 l31 -23 24 27 c13 15 23 24 23 19 0
-14 29 34 46 78 10 24 33 63 50 86 18 24 35 52 39 63 3 11 13 20 20 20 8 0 12
-6 9 -14 -3 -8 -1 -17 5 -20 19 -12 25 43 6 64 -10 11 -15 26 -12 34 4 9 2 18
-4 22 -6 4 -7 10 0 17 5 7 11 26 13 42 2 25 7 30 27 27 22 -2 23 0 17 34 -4
19 -10 42 -13 50 -3 8 1 14 10 14 20 0 29 42 17 75 -13 35 -13 42 2 27 23 -23
38 -14 34 22 -8 65 -43 110 -78 102 -13 -3 -17 -3 -10 0 6 3 12 12 12 20 0 8
9 34 20 56 19 39 19 69 1 39 -7 -11 -12 -11 -28 0 -24 18 -25 55 -1 51 9 -1
19 2 23 8 10 17 25 11 25 -10 0 -11 7 -20 15 -20 8 0 15 5 15 10 0 6 11 10 24
10 17 0 25 7 28 24 3 14 0 30 -5 35 -7 7 -7 11 -1 11 5 0 11 28 11 62 2 55 6
65 28 81 18 14 23 25 19 42 -3 12 0 26 6 30 8 5 7 12 -4 24 -14 15 -13 19 10
44 14 15 30 27 36 27 6 0 8 9 5 21 -4 15 -2 19 8 15 20 -7 73 22 80 44 4 12
15 20 28 20 19 0 19 2 7 14 -18 17 -48 24 -77 19z m-546 -585 c-3 -8 -6 -5 -6
6 -1 11 2 17 5 13 3 -3 4 -12 1 -19z m-87 -7 c0 -6 -4 -13 -10 -16 -5 -3 -10
1 -10 9 0 9 5 16 10 16 6 0 10 -4 10 -9z m74 -55 c-7 -28 -34 -36 -34 -10 0 8
4 13 9 9 5 -3 13 4 16 16 10 29 17 17 9 -15z m-814 -46 c0 -21 -15 -27 -25
-10 -7 12 2 30 16 30 5 0 9 -9 9 -20z m60 -40 c0 -5 -2 -10 -4 -10 -3 0 -8 5
-11 10 -3 6 -1 10 4 10 6 0 11 -4 11 -10z"/>
<path d="M12820 11280 c0 -5 -10 -9 -22 -9 -38 3 -78 -19 -78 -41 0 -11 5 -20
11 -20 5 0 9 -8 7 -17 -1 -10 1 -24 5 -30 5 -7 5 -13 2 -13 -10 0 46 -94 62
-103 7 -4 13 -15 13 -23 0 -11 5 -12 18 -6 9 5 22 7 29 5 6 -2 14 0 17 6 4 6
13 8 21 4 11 -4 13 -1 9 11 -5 12 -2 15 10 10 17 -7 46 11 46 28 0 6 -10 8
-23 4 -39 -9 -80 7 -82 34 -1 13 -14 34 -29 47 -15 13 -24 23 -21 23 3 0 -1
10 -9 22 -21 29 -20 38 3 38 10 0 21 9 24 20 3 11 1 20 -4 20 -5 0 -9 -4 -9
-10z"/>
<path d="M12547 11266 c-4 -10 -1 -13 9 -9 7 3 14 9 14 14 0 14 -17 10 -23 -5z"/>
<path d="M12416 11207 c3 -10 9 -15 12 -12 3 3 0 11 -7 18 -10 9 -11 8 -5 -6z"/>
<path d="M12265 11093 c-51 -56 -54 -60 -48 -67 4 -3 7 -16 8 -28 1 -12 7 -24
14 -26 7 -2 11 2 10 9 -5 21 30 79 46 79 10 0 15 10 15 29 0 42 -10 43 -45 4z"/>
<path d="M12588 11085 c-9 -20 -17 -25 -33 -21 -11 3 -34 -2 -50 -10 -20 -10
-43 -14 -67 -10 -21 3 -40 2 -43 -4 -14 -22 -64 -40 -87 -31 -33 12 -52 -10
-37 -42 8 -17 22 -27 48 -31 50 -8 61 -7 61 3 0 5 14 23 30 40 31 30 70 38 70
13 0 -7 -4 -11 -9 -7 -11 6 -26 -33 -16 -43 4 -4 11 1 16 11 7 11 22 17 48 17
44 0 55 8 39 27 -9 11 -5 13 18 11 42 -3 57 8 43 33 -5 11 -7 28 -4 39 9 29
-14 34 -27 5z"/>
<path d="M13190 11041 c0 -16 28 -20 34 -5 4 9 -1 14 -14 14 -11 0 -20 -4 -20
-9z"/>
<path d="M13123 11014 c-3 -8 -11 -13 -18 -10 -7 2 -12 -3 -11 -12 0 -9 -6
-18 -14 -18 -8 -1 -19 -2 -25 -3 -5 0 1 -8 13 -17 12 -8 22 -21 22 -28 0 -7
11 -23 25 -36 20 -19 27 -21 40 -10 12 10 16 9 21 -4 3 -9 15 -16 25 -16 28 0
26 46 -2 53 -14 4 -20 13 -19 29 4 41 0 56 -16 72 -20 20 -33 20 -41 0z"/>
<path d="M12840 10980 c0 -11 -9 -29 -21 -41 l-21 -21 40 3 c23 2 47 -3 56
-10 14 -11 16 -11 16 3 0 9 -4 16 -10 16 -5 0 -10 4 -10 10 0 5 -11 20 -25 34
-23 23 -25 23 -25 6z"/>
<path d="M12987 10989 c7 -7 15 -10 18 -7 3 3 -2 9 -12 12 -14 6 -15 5 -6 -5z"/>
<path d="M13393 10936 c-13 -6 -23 -14 -23 -18 0 -5 -9 -8 -20 -8 -11 0 -20
-4 -20 -10 0 -5 -9 -10 -20 -10 -23 0 -25 -17 -5 -44 11 -14 12 -23 4 -33 -14
-16 -1 -17 34 -4 19 8 26 19 31 54 5 33 12 46 26 50 11 3 20 12 20 21 0 9 -1
15 -2 15 -2 -1 -13 -6 -25 -13z"/>
<path d="M12948 10933 c-20 -5 -24 -23 -5 -23 6 0 21 7 31 15 20 15 11 18 -26
8z"/>
<path d="M7260 10760 c0 -17 -4 -20 -20 -15 -11 4 -20 2 -20 -4 0 -5 -14 -8
-30 -6 -22 3 -38 -3 -57 -21 -28 -26 -39 -29 -48 -14 -4 6 -11 8 -16 5 -5 -4
-23 3 -39 15 -22 16 -28 17 -24 6 4 -9 1 -16 -6 -16 -9 0 -8 -6 3 -18 24 -26
22 -55 -2 -47 -18 5 -19 2 -14 -30 7 -44 -12 -85 -41 -85 -45 0 -66 -12 -66
-36 0 -28 -12 -31 -35 -8 -14 15 -19 15 -53 -2 -20 -10 -59 -18 -85 -18 -35
-1 -51 -6 -58 -19 -6 -9 -17 -17 -25 -17 -8 0 -17 -6 -20 -14 -8 -22 -53 -29
-78 -12 -20 13 -22 13 -21 -4 1 -10 7 -26 15 -35 11 -14 11 -18 1 -25 -8 -4
-10 -13 -7 -19 5 -7 -2 -11 -19 -11 -16 0 -24 -4 -20 -11 4 -6 0 -16 -9 -22
-9 -7 -17 -26 -17 -42 -1 -57 7 -141 15 -153 4 -7 2 -12 -6 -12 -26 -1 38 -40
65 -40 23 0 29 -5 34 -30 3 -20 12 -30 23 -30 10 0 21 -7 24 -16 7 -17 -17
-58 -27 -47 -4 3 -7 -3 -7 -15 0 -14 11 -27 33 -38 36 -19 49 -34 43 -51 -3
-6 9 -17 26 -24 26 -11 35 -10 58 3 26 15 30 14 70 -8 23 -13 52 -24 64 -24
12 0 27 -5 32 -10 14 -14 41 -3 47 20 4 17 9 18 38 8 60 -19 109 -22 109 -6 0
8 6 22 13 32 13 18 15 18 50 1 20 -9 37 -23 37 -30 0 -25 27 -37 49 -23 16 10
23 10 33 0 15 -15 64 -16 73 -2 4 6 10 8 15 5 5 -3 17 7 27 22 47 73 82 84
108 33 l16 -30 36 15 c22 9 49 13 65 10 15 -4 33 -3 40 2 7 4 26 13 42 18 27
9 30 15 32 58 2 33 -2 50 -11 53 -21 9 -30 82 -12 102 9 10 13 28 10 42 -3 18
2 31 16 44 12 11 21 25 21 33 0 7 11 13 24 13 33 0 40 14 22 48 -13 25 -13 32
-1 49 12 18 11 24 -11 56 -13 20 -24 40 -24 44 0 7 -28 24 -83 51 -4 2 -7 0
-6 -5 4 -24 -4 -24 -31 2 -16 15 -27 32 -24 36 5 8 -31 31 -56 35 -8 2 -40 10
-70 20 -30 9 -69 19 -86 21 -27 4 -34 13 -53 58 -20 48 -47 74 -72 67 -4 0
-15 8 -25 19 -18 20 -18 20 7 14 30 -7 35 1 34 60 0 30 -5 41 -18 43 -12 2
-17 -3 -17 -18z"/>
<path d="M10635 10340 c3 -5 8 -10 11 -10 2 0 4 5 4 10 0 6 -5 10 -11 10 -5 0
-7 -4 -4 -10z"/>
<path d="M10600 10252 c0 -5 -16 -17 -35 -28 -19 -10 -35 -26 -35 -36 0 -14 9
-11 49 15 28 18 46 37 44 44 -6 14 -23 18 -23 5z"/>
<path d="M10506 10102 c-3 -5 -8 -33 -11 -63 -8 -67 9 -46 19 24 7 44 4 58 -8
39z"/>
<path d="M7897 10010 c-14 -11 -32 -20 -41 -20 -8 0 -21 -12 -28 -27 -8 -16
-21 -27 -30 -25 -12 2 -18 -9 -23 -40 -8 -48 -33 -87 -54 -88 -12 0 -12 -3 -3
-12 7 -7 12 -20 12 -29 0 -10 6 -20 13 -22 9 -4 9 -8 -1 -15 -11 -7 -9 -10 6
-14 11 -3 25 -1 30 4 17 17 50 -62 56 -137 5 -53 3 -80 -9 -107 -14 -35 -14
-38 5 -48 11 -6 20 -17 20 -24 0 -8 10 -20 22 -28 22 -15 21 -15 -35 -71 -31
-31 -61 -65 -66 -76 -7 -12 -18 -17 -29 -14 -30 7 -47 -21 -32 -57 7 -16 12
-33 12 -37 1 -4 9 -14 19 -21 11 -7 19 -18 19 -24 0 -14 75 -88 89 -88 16 0
14 -25 -4 -40 -20 -16 -19 -36 1 -44 25 -9 69 -7 80 4 8 8 19 8 38 0 36 -13
46 -13 46 4 0 11 10 13 41 9 36 -5 40 -4 37 13 -2 14 4 20 21 22 13 2 27 0 33
-6 5 -5 36 1 80 16 39 14 66 28 60 30 -6 2 -21 23 -32 48 -21 43 -22 45 -4 82
9 20 17 43 17 50 0 7 5 11 11 9 16 -5 20 -38 6 -47 -17 -11 19 -64 64 -95 30
-20 38 -22 42 -10 5 11 11 12 24 5 29 -15 31 -13 24 25 -7 40 -6 40 32 20 32
-16 54 -19 54 -7 0 9 -33 30 -90 58 -51 24 -85 58 -75 74 9 14 -61 83 -76 75
-6 -4 -9 -16 -6 -26 3 -11 0 -19 -7 -19 -7 0 -19 -23 -26 -50 -8 -30 -17 -45
-21 -38 -4 7 -5 16 -3 20 3 5 -4 21 -15 37 -24 34 -26 47 -8 54 9 3 12 16 9
36 -2 17 -8 29 -12 26 -5 -3 -11 4 -15 15 -3 11 -14 20 -24 20 -10 0 -24 6
-30 14 -7 8 -20 12 -30 9 -28 -7 -61 15 -73 47 -6 20 -20 33 -44 40 -19 6 -40
19 -46 29 -7 9 -28 27 -46 40 -26 18 -30 26 -22 37 7 7 9 18 5 24 -9 14 8 13
23 -2 9 -9 12 -9 12 0 0 16 26 15 53 -2 27 -17 109 -19 119 -3 16 24 9 65 -12
72 -11 4 -18 10 -15 14 10 17 -36 46 -77 50 -13 2 -9 19 8 35 8 9 12 21 9 27
-4 6 2 13 14 16 18 4 21 13 21 53 0 39 -4 49 -20 53 -13 3 -20 14 -20 30 0 13
-7 30 -15 37 -8 7 -12 17 -9 22 6 9 -12 27 -27 28 -4 0 -18 -9 -32 -20z m-162
-840 c3 -5 2 -10 -4 -10 -5 0 -13 5 -16 10 -3 6 -2 10 4 10 5 0 13 -4 16 -10z"/>
<path d="M10114 10013 c4 -6 2 -23 -4 -38 -9 -23 -8 -26 6 -21 8 3 18 6 20 6
10 0 3 28 -12 46 -8 10 -13 14 -10 7z"/>
<path d="M10408 9916 c-15 -13 -24 -27 -20 -31 4 -5 -4 -5 -17 -2 -13 3 -31 1
-41 -5 -14 -9 -25 -7 -54 10 -19 11 -38 17 -41 13 -2 -5 -25 -14 -50 -20 -35
-9 -45 -16 -45 -32 0 -18 -4 -20 -29 -14 -23 5 -30 3 -33 -12 -2 -11 5 -22 17
-28 11 -6 20 -20 20 -30 0 -36 29 -66 63 -63 30 2 66 -18 57 -32 -10 -15 7
-40 27 -40 11 0 22 -8 25 -18 8 -31 37 -43 62 -25 12 8 20 21 17 29 -3 7 4 16
15 19 12 4 18 13 15 23 -2 9 -7 34 -11 56 -6 36 -5 38 14 33 23 -6 27 3 9 21
-9 9 -7 13 8 18 30 12 64 56 64 84 -1 72 -25 87 -72 46z"/>
<path d="M11733 9816 c3 -8 -1 -17 -9 -20 -11 -4 -13 -13 -9 -27 5 -14 4 -19
-4 -15 -7 5 -9 1 -5 -8 6 -16 24 -22 24 -8 0 4 12 9 27 10 37 3 40 9 15 32
-12 11 -19 27 -16 35 4 10 0 15 -11 15 -11 0 -15 -5 -12 -14z"/>
<path d="M11860 9750 c0 -5 5 -10 11 -10 5 0 7 5 4 10 -3 6 -8 10 -11 10 -2 0
-4 -4 -4 -10z"/>
<path d="M10045 9720 c3 -5 8 -10 11 -10 2 0 4 5 4 10 0 6 -5 10 -11 10 -5 0
-7 -4 -4 -10z"/>
<path d="M11832 9706 c5 -22 2 -30 -13 -33 -11 -3 -26 -21 -35 -39 -9 -19 -20
-32 -24 -29 -5 3 -6 -4 -3 -15 6 -23 4 -23 38 -10 31 12 61 0 69 -28 6 -18 31
-23 53 -9 6 4 19 4 30 0 13 -5 11 1 -10 27 -19 22 -27 41 -24 57 2 13 0 26 -4
29 -5 3 -9 0 -9 -5 0 -16 -26 -13 -40 4 -10 12 -10 15 4 15 26 0 19 21 -18 50
-18 14 -19 13 -14 -14z"/>
<path d="M7300 9691 c0 -5 5 -13 10 -16 6 -3 10 -2 10 4 0 5 -4 13 -10 16 -5
3 -10 2 -10 -4z"/>
<path d="M8085 9580 c3 -5 8 -10 11 -10 2 0 4 5 4 10 0 6 -5 10 -11 10 -5 0
-7 -4 -4 -10z"/>
<path d="M8730 9173 c1 -10 16 -28 35 -40 34 -21 35 -21 35 -3 0 11 -6 20 -13
20 -7 0 -23 9 -35 20 -20 19 -22 19 -22 3z"/>
<path d="M8560 9071 c0 -5 7 -12 16 -15 24 -9 27 -7 10 9 -17 17 -26 19 -26 6z"/>
<path d="M8802 9063 c2 -10 14 -23 26 -29 13 -6 23 -15 22 -20 -1 -5 6 -11 15
-12 13 -3 15 1 10 20 -13 44 -81 82 -73 41z"/>
<path d="M7620 9021 c0 -17 -4 -33 -10 -36 -5 -3 -10 -15 -10 -26 0 -11 4 -18
10 -14 5 3 20 3 34 -1 50 -12 69 -139 23 -157 -16 -6 -94 18 -115 35 -17 15
-25 4 -25 -32 0 -22 -5 -30 -19 -30 -20 0 -25 -25 -6 -36 8 -5 6 -11 -7 -20
-12 -9 -16 -21 -13 -39 3 -14 1 -28 -4 -31 -4 -3 2 -23 14 -45 16 -29 19 -42
11 -47 -9 -6 -8 -19 3 -51 12 -35 12 -46 2 -52 -10 -6 -9 -13 2 -33 11 -21 11
-30 1 -50 -10 -19 -10 -28 0 -47 26 -50 29 -60 29 -89 0 -25 -4 -30 -24 -30
-16 0 -27 -7 -31 -20 -3 -11 -10 -20 -15 -20 -5 0 3 -21 16 -46 25 -47 24 -64
-2 -64 -8 0 -12 -4 -9 -10 3 -5 0 -10 -8 -10 -8 0 -22 -9 -32 -20 -18 -20 -18
-21 4 -27 33 -8 45 -48 25 -78 -9 -14 -19 -25 -23 -25 -3 0 -7 -10 -7 -22 -1
-13 -3 -36 -4 -53 -6 -81 21 -117 98 -131 41 -8 62 -37 62 -86 0 -31 4 -38 19
-38 11 0 23 -4 26 -10 3 -5 -1 -10 -9 -10 -10 0 -13 -6 -10 -15 4 -8 12 -15
19 -15 14 0 65 -55 65 -71 0 -5 -6 -9 -14 -9 -9 0 -13 -13 -13 -39 0 -34 7
-47 53 -95 56 -58 69 -65 77 -43 3 7 6 5 6 -5 1 -12 7 -16 19 -12 10 4 13 2 7
-3 -15 -11 -16 -54 -3 -71 9 -11 8 -16 -5 -23 -9 -6 -17 -19 -17 -29 0 -23 -4
-24 -31 -10 -10 6 -19 17 -19 25 0 18 -26 20 -33 3 -3 -8 -6 -6 -6 5 -1 9 -7
17 -14 17 -7 0 -19 6 -26 13 -6 6 -15 12 -19 13 -4 0 -20 6 -36 13 -16 6 -31
9 -34 7 -12 -13 11 -57 38 -71 16 -8 33 -21 37 -28 4 -8 17 -19 28 -25 18 -10
17 -11 -10 -8 -34 4 -48 -1 -40 -15 4 -5 13 -5 23 0 11 6 42 2 87 -10 49 -12
73 -15 82 -7 7 6 11 14 8 18 -2 4 14 27 36 51 25 27 38 50 36 61 -4 14 1 18
19 18 13 0 24 4 24 10 0 16 49 59 92 81 28 14 52 19 74 16 20 -3 34 -1 37 6 2
6 12 2 25 -11 27 -27 53 -28 72 -2 8 11 17 20 20 20 8 0 40 -67 40 -84 0 -8 7
-16 15 -20 14 -5 20 19 18 73 -1 9 2 10 10 2 13 -13 47 -15 47 -2 0 5 10 12
23 16 20 7 19 8 -10 12 -19 3 -30 9 -27 16 2 7 -5 18 -17 26 -19 11 -21 11
-16 -3 4 -9 3 -16 -1 -16 -13 0 -27 15 -29 30 -1 8 -4 26 -7 39 -3 14 -1 30 4
36 23 28 -31 72 -72 59 -30 -9 -103 68 -129 135 -11 30 -29 67 -39 82 -11 15
-20 32 -20 37 0 6 -12 17 -27 24 -39 19 -52 46 -30 62 9 7 17 17 17 22 0 5 9
20 20 34 11 14 20 35 20 48 0 13 6 22 15 22 8 0 15 9 15 19 0 10 -7 21 -15 25
-8 3 -15 14 -15 25 0 10 -7 22 -16 25 -16 6 -16 8 0 24 23 26 20 65 -9 108
-20 29 -22 40 -14 56 6 11 9 29 6 40 -4 13 1 22 18 28 24 9 45 55 45 101 0 16
5 29 10 29 11 0 4 87 -11 127 -5 14 -4 23 4 27 9 3 9 5 0 5 -7 1 -13 8 -13 16
0 18 -17 20 -23 3 -3 -9 -11 -4 -24 12 -17 20 -23 22 -35 12 -8 -6 -18 -8 -22
-4 -4 4 -14 -2 -22 -12 -12 -17 -14 -17 -20 -3 -3 10 -16 17 -29 17 -18 0 -21
-4 -18 -24 3 -13 0 -26 -5 -30 -6 -3 -10 8 -10 28 0 18 -8 46 -18 61 -16 24
-16 29 -3 39 18 13 13 46 -7 46 -8 0 -14 7 -14 15 0 9 -11 20 -24 26 -15 7
-22 18 -21 32 3 30 4 31 18 20 12 -10 87 -27 87 -21 0 2 -18 23 -41 47 -36 40
-42 43 -64 33 -36 -17 -50 13 -31 68 7 22 10 40 5 40 -6 0 -12 -7 -15 -15 -7
-17 -34 -21 -34 -5 0 6 -10 10 -22 10 -12 0 -18 3 -15 6 9 10 -32 64 -49 64
-9 0 -14 -11 -14 -29z"/>
<path d="M8613 9025 c-8 -9 -9 -16 -3 -20 6 -3 10 -1 10 6 0 8 4 8 15 -1 12
-10 13 -16 4 -26 -9 -11 -6 -18 12 -33 15 -12 28 -16 34 -10 5 5 17 9 27 9 10
0 18 6 18 14 0 9 7 12 19 9 10 -3 29 0 41 7 17 9 19 14 9 26 -14 17 -86 19
-92 2 -3 -9 -13 -7 -35 10 -36 26 -43 26 -59 7z"/>
<path d="M8343 8987 c4 -10 7 -23 7 -28 0 -5 7 -9 15 -9 21 0 19 14 -7 36 -20
18 -21 18 -15 1z"/>
<path d="M8853 8852 l-23 -7 29 -30 c26 -29 51 -67 51 -79 0 -3 -8 -6 -17 -6
-15 0 -14 -2 3 -14 12 -9 23 -11 30 -5 14 11 24 1 24 -23 0 -21 -4 -22 -31 -8
-17 9 -18 8 -10 -12 21 -59 22 -78 3 -78 -15 0 -18 -6 -14 -30 2 -17 13 -35
23 -40 14 -8 16 -18 12 -44 -3 -19 -1 -36 6 -40 6 -4 11 -16 11 -26 0 -11 16
-27 40 -41 40 -23 50 -48 31 -78 -7 -10 -4 -19 7 -27 13 -9 14 -17 6 -35 -9
-18 -7 -33 8 -67 11 -24 18 -53 15 -63 -3 -10 -1 -22 4 -25 10 -6 -12 -40 -60
-92 -30 -33 -33 -52 -7 -52 8 0 11 -10 8 -30 -3 -23 2 -35 27 -58 40 -36 71
-116 61 -153 -8 -26 -4 -30 47 -61 30 -18 68 -43 84 -56 16 -13 33 -21 38 -18
14 9 40 -32 34 -53 -6 -23 30 -46 85 -56 38 -6 41 -5 35 12 -6 17 -5 17 15 -1
25 -22 29 -38 7 -29 -13 5 -14 2 -4 -21 16 -35 26 -33 33 10 5 26 11 34 22 30
8 -3 17 1 20 9 4 8 11 12 18 8 6 -4 5 1 -2 10 -12 14 -10 16 15 14 40 -4 48 9
44 67 -3 52 -31 106 -55 106 -14 0 -43 58 -38 74 2 5 -4 17 -13 26 -9 10 -18
37 -19 60 -3 32 -11 48 -35 70 -19 18 -31 39 -31 54 0 14 -4 26 -10 26 -5 0
-19 9 -30 20 -16 16 -25 18 -40 10 -24 -13 -26 -13 -44 6 -9 8 -16 26 -16 39
0 13 -5 25 -11 27 -7 2 -7 12 0 29 7 20 6 32 -7 50 -11 16 -12 24 -4 27 23 7
42 33 42 57 0 13 4 26 9 29 11 7 3 45 -14 66 -6 8 -17 40 -24 71 -7 32 -21 65
-33 75 -11 11 -31 40 -44 66 -15 30 -39 57 -63 72 -22 14 -41 31 -43 38 -3 7
-12 13 -20 13 -25 0 -108 83 -108 107 0 21 -39 89 -50 87 -3 -1 -15 -4 -27 -7z"/>
<path d="M8470 7340 c0 -5 5 -10 11 -10 5 0 7 5 4 10 -3 6 -8 10 -11 10 -2 0
-4 -4 -4 -10z"/>
<path d="M7714 7192 c3 -5 0 -12 -6 -15 -7 -2 -10 -7 -7 -11 3 -4 12 0 18 8 9
11 9 16 0 22 -7 4 -9 3 -5 -4z"/>
<path d="M7730 6993 c0 -18 5 -35 10 -38 17 -10 16 42 -1 60 -5 5 -9 -3 -9
-22z"/>
<path d="M7505 6991 c-3 -6 1 -11 10 -11 8 0 20 -11 26 -24 17 -36 159 -84
159 -54 0 5 4 7 9 4 11 -7 41 3 41 14 0 5 -10 10 -22 12 -13 2 -24 9 -24 16
-1 6 -2 17 -3 23 0 6 -10 8 -22 4 -14 -5 -25 -1 -33 11 -12 16 -14 15 -29 -6
-10 -14 -21 -20 -34 -16 -10 3 -21 5 -24 3 -4 -1 -16 6 -27 16 -13 12 -22 15
-27 8z"/>
</g>
</svg>
