<?xml version="1.0" standalone="no"?>
<!DOCTYPE svg PUBLIC "-//W3C//DTD SVG 20010904//EN"
 "http://www.w3.org/TR/2001/REC-SVG-20010904/DTD/svg10.dtd">
<svg version="1.0" xmlns="http://www.w3.org/2000/svg"
 width="767.715401pt" height="1199.757852pt" viewBox="0 0 767.715401 1199.757852"
 preserveAspectRatio="xMidYMid meet">
<metadata>
Created by potrace 1.15, written by Peter Selinger 2001-2017
</metadata>
<g transform="translate(-643.082591,1628.757852) scale(0.100000,-0.100000)"
fill="#222222" stroke="none">
<path d="M8647 16279 c7 -7 15 -10 18 -7 3 3 -2 9 -12 12 -14 6 -15 5 -6 -5z"/>
<path d="M8656 16247 c3 -10 9 -15 12 -12 3 3 0 11 -7 18 -10 9 -11 8 -5 -6z"/>
<path d="M8680 16182 c0 -6 5 -14 12 -18 7 -4 -5 -15 -30 -28 -45 -23 -45 -28
11 -69 20 -16 35 -32 32 -37 -7 -11 12 -23 58 -39 46 -15 51 -12 37 23 -5 15
-10 47 -10 71 0 35 -5 48 -26 64 -15 11 -31 18 -36 15 -5 -3 -18 2 -29 12 -10
9 -19 12 -19 6z"/>
<path d="M8820 15949 c0 -10 -5 -21 -10 -24 -7 -4 -7 -11 -2 -18 5 -7 10 -40
10 -75 1 -59 0 -63 -20 -57 -18 6 -19 4 -13 -25 13 -59 43 -97 80 -104 21 -4
35 -13 35 -21 0 -8 -5 -15 -10 -15 -6 0 -21 -11 -33 -24 -22 -23 -23 -24 -24
-4 -2 25 -1 24 -40 31 -30 6 -33 4 -33 -17 0 -21 -4 -24 -36 -21 -31 3 -37 0
-46 -25 -11 -32 -42 -48 -62 -31 -11 9 -17 3 -31 -25 -11 -23 -22 -34 -31 -30
-9 3 -14 -1 -14 -14 0 -10 -6 -25 -13 -32 -8 -7 -17 -26 -21 -42 -4 -16 -25
-50 -47 -76 -40 -47 -40 -47 -31 -104 7 -46 6 -59 -5 -63 -7 -3 -20 -18 -29
-34 -8 -16 -21 -29 -28 -29 -7 0 -19 -6 -25 -13 -8 -11 -6 -18 9 -32 16 -14
20 -29 19 -64 -2 -25 -7 -49 -13 -53 -6 -4 -6 -24 2 -60 26 -125 29 -147 20
-162 -8 -14 -4 -16 19 -14 15 1 38 -4 51 -11 12 -6 22 -8 23 -4 0 4 5 -5 9
-21 12 -38 4 -49 -27 -41 -19 4 -24 2 -21 -7 4 -9 -4 -13 -23 -13 -16 0 -29 4
-29 8 0 5 -13 21 -30 37 -28 26 -32 27 -81 18 -28 -5 -57 -7 -64 -4 -8 3 -15
0 -17 -5 -2 -6 -34 -11 -72 -12 -52 -2 -71 2 -74 12 -3 10 0 12 12 8 21 -8 20
3 -3 31 -11 12 -28 22 -39 22 -25 0 -49 26 -30 33 10 4 10 6 0 6 -24 2 -25
-29 -2 -91 18 -50 20 -62 9 -69 -11 -7 -10 -9 5 -9 12 0 16 -5 12 -15 -3 -10
1 -15 14 -15 10 0 22 -5 25 -10 4 -6 10 -8 15 -5 13 8 31 -21 24 -39 -3 -9
-10 -16 -15 -16 -5 0 -2 -11 7 -25 9 -14 15 -27 13 -28 -37 -21 -48 -24 -59
-17 -7 4 -25 1 -41 -9 -23 -13 -30 -14 -41 -3 -11 11 -9 13 7 10 12 -2 19 2
18 9 -2 7 3 10 10 8 13 -5 37 38 37 68 0 48 -42 77 -53 36 -3 -12 -10 -18 -16
-14 -6 3 -11 1 -11 -4 0 -6 6 -11 13 -11 8 0 19 -12 26 -26 l12 -27 -27 17
c-25 17 -26 17 -41 -3 -26 -38 -113 -18 -113 26 0 5 -17 26 -37 46 -21 19 -53
51 -71 70 -20 21 -46 37 -65 40 -18 2 -33 3 -35 2 -2 -2 24 -29 57 -62 34 -33
61 -67 61 -76 0 -10 10 -21 23 -26 13 -5 29 -16 36 -25 7 -9 18 -16 23 -16 5
0 29 -13 53 -30 24 -16 52 -30 63 -30 11 0 31 -9 45 -20 16 -13 28 -16 32 -10
4 6 10 8 14 5 5 -2 16 4 26 15 10 11 22 17 26 14 5 -3 9 1 9 9 0 21 29 30 36
12 4 -8 15 -15 25 -15 36 0 19 -20 -18 -21 l-38 -1 35 -8 c19 -4 50 -15 68
-25 22 -11 46 -15 68 -12 32 5 46 -5 25 -18 -13 -7 -5 -93 9 -110 14 -17 4
-36 -14 -29 -16 6 -31 -43 -27 -92 2 -26 -5 -37 -44 -70 -26 -21 -53 -44 -59
-51 -7 -6 -24 -13 -37 -15 -17 -2 -25 -10 -27 -29 -3 -23 -9 -28 -40 -32 -23
-3 -43 1 -53 9 -8 8 -20 14 -26 14 -6 0 -14 11 -17 25 -4 14 -13 25 -20 25 -8
0 -21 11 -29 24 -9 13 -25 26 -36 29 -18 4 -19 3 -9 -16 8 -16 8 -22 -1 -25
-6 -2 -11 -13 -11 -24 0 -17 -5 -20 -30 -16 -25 4 -30 1 -30 -15 0 -16 -2 -17
-15 -7 -22 19 -29 6 -27 -53 1 -29 -4 -63 -12 -77 -12 -21 -12 -28 0 -52 9
-17 10 -29 4 -33 -6 -4 -8 -10 -5 -15 3 -4 -4 -10 -14 -13 -11 -3 -20 -16 -23
-36 -4 -27 1 -36 32 -61 21 -16 40 -27 43 -24 3 4 13 -11 22 -32 12 -30 13
-39 3 -45 -10 -7 -10 -13 1 -31 12 -19 11 -24 -8 -39 -18 -15 -20 -22 -12 -38
6 -10 16 -21 22 -23 9 -3 9 -9 0 -26 -14 -26 -7 -42 17 -42 9 0 26 -12 38 -27
16 -20 25 -24 40 -18 28 11 54 13 60 3 3 -4 -4 -8 -15 -8 -22 0 -29 -24 -11
-35 8 -5 8 -11 0 -20 -8 -10 -8 -15 0 -20 6 -4 10 -19 8 -35 -1 -15 2 -34 8
-41 20 -26 23 -47 7 -53 -23 -9 -86 4 -100 21 -6 8 -14 10 -17 5 -5 -9 -81 -8
-106 2 -10 4 -28 -7 -49 -28 -19 -20 -38 -33 -43 -30 -18 11 -37 -17 -31 -47
4 -22 2 -29 -11 -29 -9 0 -25 -8 -35 -17 -11 -10 -27 -24 -36 -31 -10 -8 -13
-18 -8 -25 5 -7 10 -24 11 -39 2 -19 -2 -28 -17 -33 -12 -3 -21 -11 -21 -16 0
-6 -5 -7 -12 -3 -8 5 -9 2 -5 -9 8 -21 -48 -64 -59 -46 -5 9 -10 8 -18 -2 -16
-20 -90 -69 -104 -69 -7 0 -12 -7 -12 -15 0 -21 -39 -19 -63 3 -11 9 -17 11
-13 5 4 -8 2 -13 -7 -13 -28 0 -38 -59 -15 -87 13 -16 6 -59 -9 -56 -6 1 -14
-15 -18 -37 -4 -25 -12 -40 -21 -40 -10 0 -13 -7 -8 -26 5 -18 0 -31 -16 -49
-20 -22 -21 -25 -6 -53 17 -33 13 -57 -10 -66 -8 -3 -14 -17 -14 -31 0 -16 -6
-25 -15 -25 -8 0 -15 -9 -15 -19 0 -11 -9 -23 -20 -26 -22 -7 -24 -13 -11 -34
10 -15 -25 -111 -41 -111 -13 0 -58 -51 -58 -66 0 -18 -79 -81 -113 -89 -15
-4 -27 -11 -27 -17 0 -5 -11 -24 -25 -42 -14 -18 -22 -36 -18 -39 3 -4 -4 -7
-16 -7 -15 0 -26 -10 -36 -33 -9 -22 -24 -36 -48 -45 -29 -10 -35 -18 -41 -51
-3 -20 -15 -46 -27 -57 -28 -25 -49 -75 -49 -117 0 -23 -8 -41 -25 -57 -14
-13 -25 -33 -25 -45 0 -11 -5 -26 -12 -33 -17 -17 -2 -27 24 -15 24 11 94 10
105 -1 3 -3 14 -6 24 -6 9 0 19 -6 22 -14 8 -19 67 -32 77 -16 10 16 66 4 74
-17 5 -12 16 -14 52 -9 62 8 138 -31 154 -79 12 -36 66 -95 83 -91 7 1 9 1 5
-1 -14 -8 -8 -25 7 -20 8 4 17 1 21 -4 3 -6 14 -9 24 -6 13 3 24 -8 41 -44 15
-29 31 -49 41 -49 12 0 19 -12 24 -45 3 -25 10 -48 15 -51 16 -10 9 -24 -11
-24 -18 0 -20 -7 -20 -65 0 -43 5 -74 16 -90 9 -13 12 -30 8 -37 -19 -31 -14
-109 11 -158 14 -27 29 -51 34 -55 6 -3 8 -12 4 -20 -3 -9 0 -22 6 -29 7 -8
11 -21 9 -29 -2 -8 12 -35 30 -60 27 -36 34 -55 36 -98 2 -37 -2 -60 -13 -72
-10 -12 -12 -21 -5 -25 55 -37 85 -70 99 -106 9 -24 15 -49 14 -57 -2 -8 1
-29 5 -47 5 -22 4 -38 -3 -45 -6 -6 -11 -19 -11 -29 0 -12 -5 -15 -16 -11 -14
5 -15 3 -5 -15 6 -11 16 -24 22 -28 6 -3 8 -20 5 -38 -7 -36 1 -50 29 -54 38
-5 45 -8 68 -30 18 -17 34 -21 70 -20 32 2 47 7 47 16 0 20 46 7 83 -24 16
-13 39 -24 51 -24 13 0 34 -8 47 -19 13 -10 45 -28 70 -39 45 -21 65 -44 54
-62 -3 -5 3 -13 13 -19 90 -48 286 -301 233 -301 -15 0 -19 -35 -4 -48 18 -18
16 -30 -7 -37 -26 -8 -26 -30 1 -49 23 -15 53 -66 44 -74 -3 -3 4 -11 14 -18
10 -8 24 -27 29 -44 9 -25 8 -32 -7 -42 -10 -7 -19 -17 -19 -23 -1 -5 -11 -11
-22 -13 -12 -2 -19 -9 -17 -15 6 -17 -22 -47 -38 -41 -30 12 -37 -102 -8 -139
29 -37 31 -169 2 -198 -17 -17 -18 -27 -11 -95 7 -60 6 -77 -5 -81 -7 -3 -13
-14 -13 -24 0 -11 -7 -22 -15 -25 -10 -4 -12 -11 -6 -22 4 -10 6 -23 4 -29 -3
-7 5 -25 16 -39 27 -35 26 -46 -5 -73 -21 -18 -24 -27 -18 -54 3 -17 12 -36
19 -42 19 -15 28 -65 14 -81 -13 -16 -104 -19 -114 -4 -3 6 -17 10 -31 10 -21
0 -24 -3 -19 -21 6 -18 4 -20 -14 -14 -15 5 -21 2 -21 -10 0 -9 -5 -13 -10
-10 -15 9 -42 -15 -36 -32 3 -7 1 -13 -4 -13 -4 0 -22 -11 -39 -25 -22 -19
-36 -24 -55 -19 -17 4 -26 2 -26 -6 0 -7 -7 -10 -15 -6 -9 3 -18 -1 -21 -9 -4
-8 -16 -15 -29 -15 -13 0 -25 -7 -29 -15 -4 -11 -17 -13 -51 -11 -46 4 -75 16
-39 16 22 1 -50 28 -81 31 -11 1 -33 -3 -48 -9 -36 -15 -37 -15 -37 2 0 22
-17 28 -76 30 -41 1 -53 -2 -49 -12 9 -24 -27 -26 -46 -3 -10 12 -23 20 -29
16 -8 -5 -8 -11 0 -20 16 -19 -9 -55 -37 -55 -46 0 -33 -35 17 -42 14 -1 26
-11 28 -20 3 -14 -3 -16 -35 -12 -21 2 -43 11 -49 19 -14 18 -28 20 -17 3 4
-7 8 -15 8 -18 0 -15 46 -61 55 -55 7 4 8 -6 4 -33 -8 -48 10 -62 80 -62 25 0
48 -5 52 -12 5 -7 11 -5 21 7 17 24 52 29 59 10 4 -8 12 -15 20 -15 16 0 19
-16 4 -25 -6 -3 -10 -15 -10 -26 0 -14 -7 -19 -27 -20 -25 0 -26 -1 -8 -9 17
-7 17 -9 3 -9 -21 -1 -21 -2 -6 -36 10 -22 16 -25 40 -20 20 5 30 2 34 -9 8
-20 34 -21 34 -1 0 17 35 20 46 4 3 -6 0 -15 -7 -20 -8 -5 -10 -9 -4 -9 5 0 4
-5 -2 -11 -8 -8 -8 -20 -1 -41 6 -18 7 -33 2 -37 -5 -3 -11 -21 -12 -38 -3
-25 1 -33 12 -33 16 0 19 -39 3 -51 -14 -10 4 -39 24 -39 30 0 112 -46 127
-70 10 -16 20 -20 36 -16 19 5 27 -4 59 -60 21 -35 37 -70 35 -77 -1 -6 6 -29
16 -49 10 -20 15 -42 11 -48 -4 -6 0 -19 9 -29 9 -10 20 -39 25 -66 8 -44 40
-86 73 -97 6 -2 11 -13 12 -23 2 -33 49 -93 76 -99 14 -2 46 -23 71 -45 34
-29 49 -37 57 -29 8 8 14 5 21 -13 5 -14 16 -30 24 -37 12 -10 13 -20 6 -44
-5 -18 -8 -32 -6 -33 1 -1 17 -7 35 -14 23 -10 32 -20 32 -36 0 -12 9 -34 20
-48 11 -14 20 -29 20 -34 0 -5 13 -17 30 -26 54 -32 89 -67 83 -83 -3 -9 0
-27 8 -40 8 -16 9 -28 4 -32 -12 -8 -16 -74 -4 -66 4 2 11 -2 16 -9 12 -21 37
-26 48 -10 13 17 48 6 41 -12 -3 -8 13 -22 41 -35 37 -18 51 -20 70 -11 21 10
28 7 54 -19 31 -31 49 -38 49 -20 0 25 31 6 49 -29 21 -41 42 -56 58 -40 6 6
14 4 23 -6 7 -8 21 -15 32 -15 14 0 18 -5 14 -16 -3 -9 -6 -22 -6 -30 0 -8 -7
-14 -15 -14 -8 0 -15 -3 -15 -6 0 -16 38 -33 71 -34 36 0 66 -21 55 -38 -8
-13 16 -82 28 -82 7 0 11 -21 11 -50 0 -44 2 -50 20 -50 12 0 26 5 32 11 6 6
30 13 52 15 38 3 41 2 41 -21 0 -17 10 -31 31 -44 17 -11 26 -22 20 -25 -5 -4
-8 -12 -6 -19 2 -7 6 -26 9 -44 5 -28 2 -33 -30 -48 -19 -9 -38 -13 -43 -10
-5 3 -12 -3 -16 -14 -7 -23 14 -72 29 -69 24 6 108 -54 122 -87 7 -19 18 -36
24 -40 5 -3 10 -17 10 -30 0 -28 -40 -71 -51 -54 -5 8 -8 8 -13 0 -4 -6 -4
-15 -1 -21 3 -5 -3 -10 -14 -10 -12 0 -21 -6 -21 -14 0 -18 30 -30 44 -16 5 5
27 10 48 10 29 0 41 -6 54 -24 9 -15 21 -23 30 -19 8 3 25 -2 39 -11 13 -9 31
-16 39 -16 9 0 18 -11 22 -24 6 -24 46 -44 52 -26 2 6 15 10 28 10 14 0 24 6
24 15 0 8 9 19 21 26 21 11 21 19 4 76 -6 19 -4 23 14 23 12 0 20 4 17 9 -3 4
0 15 7 24 10 14 22 15 72 8 49 -8 62 -6 72 6 10 13 17 13 47 2 20 -7 36 -17
36 -21 0 -4 11 -8 25 -8 20 0 25 5 25 25 0 16 4 23 14 19 8 -3 16 3 19 15 3
13 13 21 26 21 12 0 21 5 21 10 0 6 -4 10 -10 10 -14 0 -13 37 1 46 7 4 8 20
4 43 -7 35 -6 35 12 19 24 -22 94 -22 86 -1 -4 9 0 13 8 12 28 -6 59 12 60 34
0 12 6 38 12 57 9 27 17 35 37 35 14 0 25 5 25 12 0 6 3 14 7 18 4 4 5 20 2
35 -8 38 6 43 52 21 39 -19 39 -19 62 2 12 11 22 26 22 34 0 14 13 16 48 7 12
-4 22 -13 22 -20 0 -8 8 -22 18 -32 19 -19 20 -76 1 -88 -11 -6 14 -34 30 -34
12 0 15 -26 4 -33 -5 -2 -2 -2 4 -1 7 2 32 -19 55 -46 36 -42 49 -50 78 -50
61 0 110 -12 110 -26 0 -9 8 -12 28 -8 20 4 34 0 46 -11 15 -15 19 -15 40 -2
12 8 28 12 35 8 7 -5 34 -4 59 1 93 18 112 19 112 4 0 -17 62 -28 72 -12 4 6
21 9 38 8 26 -3 31 -1 28 15 -2 10 2 23 10 28 11 9 11 19 1 58 -6 26 -10 50
-7 52 3 3 29 7 58 10 62 6 67 9 50 30 -10 12 -10 19 -2 27 7 7 12 9 12 4 0 -4
7 0 16 9 9 9 24 13 35 10 13 -4 19 -2 19 9 0 10 6 13 15 9 21 -8 51 22 59 58
5 27 9 29 49 29 48 0 62 7 47 25 -7 8 -4 20 10 38 11 14 20 36 20 50 0 13 7
30 16 37 8 8 21 28 29 47 11 25 20 33 39 33 34 0 76 20 76 37 0 8 7 27 15 43
14 26 13 30 -2 38 -15 9 -13 13 16 37 17 15 30 33 27 40 -2 7 4 15 15 18 11 3
19 14 19 26 0 12 6 21 15 21 12 0 15 13 15 60 0 60 -1 61 -52 110 -29 28 -57
50 -62 50 -5 0 -2 8 7 18 16 17 15 21 -2 55 -10 20 -15 37 -10 37 5 0 9 11 9
24 0 22 15 43 32 45 24 4 97 59 98 73 0 9 5 20 11 24 6 3 9 14 6 24 -3 14 2
20 22 25 63 14 81 27 81 55 0 16 7 30 16 34 10 4 13 13 9 25 -6 19 10 59 30
73 6 5 5 12 -3 20 -15 15 -16 49 -1 82 8 18 9 29 2 38 -13 16 -14 120 -2 112
5 -3 9 4 9 15 0 17 5 19 33 16 17 -2 39 -13 47 -23 21 -25 67 -34 75 -14 3 8
12 11 20 8 12 -4 13 -2 6 13 -6 10 -17 23 -25 31 -25 20 -19 30 17 30 50 0 79
11 73 26 -3 8 0 14 7 14 7 0 23 23 36 51 13 27 33 55 43 60 11 6 17 17 14 25
-3 7 3 18 14 24 11 6 20 17 20 25 0 8 4 15 9 15 16 0 18 34 4 63 -12 23 -12
27 2 27 8 0 15 -4 15 -10 0 -5 6 -7 14 -4 7 3 30 -12 50 -33 21 -21 48 -49 62
-63 13 -14 24 -31 24 -36 0 -15 46 -64 60 -64 13 0 13 -17 0 -25 -15 -9 -12
-51 4 -64 8 -7 25 -9 40 -5 20 5 28 1 36 -17 13 -30 138 -99 148 -83 9 14 50
0 58 -19 7 -20 48 -10 75 19 22 24 22 24 3 39 -11 8 -14 15 -6 15 6 0 12 9 12
21 0 11 7 27 15 35 17 17 44 6 84 -36 16 -16 26 -20 29 -12 2 6 11 12 20 12 8
0 12 3 8 8 -4 4 -12 7 -18 7 -6 0 -11 17 -12 37 l-1 37 30 -27 c16 -15 24 -20
17 -11 -10 14 -9 17 8 22 11 3 20 12 20 21 0 9 7 16 15 16 9 0 18 7 21 15 4 8
18 15 33 15 19 1 32 11 49 36 12 20 22 42 22 49 0 8 5 17 10 20 6 4 8 15 5 26
-5 15 -1 19 14 19 25 0 28 15 5 24 -27 10 -34 7 -34 -18 0 -28 -18 -45 -29
-27 -4 6 -15 9 -23 6 -9 -4 -18 0 -21 9 -4 9 -14 12 -25 9 -11 -2 -29 0 -40 6
-14 7 -23 8 -27 1 -10 -16 -25 -1 -23 24 1 12 -8 37 -21 55 -19 26 -29 32 -49
28 -21 -4 -27 1 -40 34 -11 28 -21 39 -35 39 -12 0 -32 11 -46 23 -15 13 -54
34 -88 47 -35 12 -63 28 -63 35 0 7 -21 33 -46 58 -42 42 -48 45 -75 35 -23
-8 -35 -6 -61 11 -36 21 -62 57 -53 70 7 13 -22 34 -36 26 -12 -8 -29 11 -29
33 0 6 7 12 15 12 8 0 15 5 15 10 0 6 7 10 16 10 9 0 29 8 45 17 23 14 33 15
47 6 9 -6 16 -16 15 -22 -4 -15 60 -61 86 -61 12 0 24 7 27 15 4 8 12 15 20
15 8 0 14 9 14 20 0 11 7 23 15 26 8 4 15 12 15 20 0 9 11 14 28 14 15 0 38 7
50 16 18 12 29 13 52 6 21 -8 30 -7 33 3 3 7 22 15 41 19 22 4 36 13 36 21 0
9 10 15 23 16 12 0 42 10 66 22 35 18 45 28 47 52 2 17 -1 43 -8 58 -8 20 -8
34 0 52 9 20 7 26 -11 38 -21 14 -19 15 41 22 34 4 62 12 62 17 0 6 -11 23
-25 40 -31 37 -34 68 -5 61 11 -3 20 -9 20 -14 0 -16 60 -10 66 6 4 8 13 15
20 15 24 0 64 31 64 49 0 18 72 57 88 47 5 -3 12 1 16 9 3 8 12 15 21 15 8 0
15 5 15 10 0 19 52 60 75 60 16 0 24 7 27 25 3 14 1 28 -4 31 -5 3 -2 16 6 30
9 13 16 30 16 37 0 8 10 21 23 30 20 13 21 18 10 46 -6 17 -7 31 -2 31 5 0 9
8 9 19 0 10 7 24 15 31 8 7 15 17 15 23 0 5 8 16 18 23 16 13 16 14 -2 7 -13
-4 -17 -3 -12 5 4 7 2 12 -5 12 -7 0 -9 10 -6 27 3 18 -1 36 -14 52 -25 31
-24 39 6 47 24 6 32 31 26 81 -1 6 9 13 21 15 19 2 24 11 28 50 5 49 29 88 54
88 10 0 14 9 13 28 -2 22 4 30 30 41 28 12 31 18 26 43 -3 15 -1 28 4 28 6 0
9 29 7 73 -5 101 -5 100 -22 119 -19 22 -10 85 14 103 16 11 16 14 1 45 -13
24 -14 36 -6 46 13 15 5 61 -36 214 -13 52 -25 109 -25 125 0 17 -9 50 -20 74
-11 23 -17 48 -14 53 4 6 9 40 11 77 3 36 7 68 9 70 2 2 -2 11 -9 20 -8 9 -20
32 -27 51 -8 19 -24 49 -37 66 -13 17 -23 40 -23 50 0 11 -5 25 -11 31 -6 6
-16 20 -23 30 -42 71 -53 83 -72 83 -11 0 -42 7 -68 16 -36 13 -44 19 -36 29
8 10 5 18 -15 32 -15 10 -38 28 -53 41 -15 13 -32 27 -37 30 -17 11 -85 128
-85 146 0 10 -5 26 -10 37 -8 14 -7 19 2 19 14 1 -8 16 -27 20 -28 5 -43 23
-48 55 -3 19 -15 47 -26 61 -29 36 -37 106 -17 136 9 12 16 37 16 55 0 25 4
33 18 33 9 0 22 12 28 28 16 37 25 90 16 94 -4 2 -15 17 -24 35 -12 23 -13 30
-3 27 8 -4 15 7 20 32 6 33 3 40 -22 60 -15 13 -31 23 -34 24 -11 0 -31 -48
-31 -74 0 -15 -6 -26 -13 -26 -8 0 -16 -6 -19 -12 -5 -10 -7 -10 -12 0 -4 9
-12 5 -26 -13 -11 -14 -23 -24 -26 -21 -3 3 -11 1 -19 -5 -10 -9 -17 -8 -28 1
-13 11 -13 14 2 29 10 9 23 25 29 36 7 11 19 19 28 19 9 -1 16 4 16 11 0 7 7
15 15 19 8 3 15 16 15 28 0 32 15 52 34 45 20 -8 21 16 2 33 -8 6 -12 18 -9
26 3 9 -1 14 -11 14 -9 0 -27 7 -41 16 -26 17 -77 21 -113 9 -19 -6 -24 -4
-29 14 -3 11 -10 21 -15 21 -6 0 -7 11 -4 25 5 21 2 25 -29 31 -19 3 -39 12
-45 20 -8 9 -18 10 -36 3 -17 -6 -23 -6 -19 1 3 6 13 10 21 10 7 0 26 13 41
29 16 16 37 30 48 32 16 4 21 15 27 59 3 30 13 59 21 65 12 9 13 19 4 63 -11
52 -11 53 22 82 26 24 32 37 30 63 -3 43 19 97 39 97 21 0 76 67 62 75 -17 10
-11 25 10 25 11 0 20 7 20 15 0 8 -8 15 -18 15 -16 0 -18 8 -17 53 2 28 0 57
-3 62 -4 6 -7 16 -8 24 -2 7 -13 24 -25 37 -18 19 -20 26 -9 39 10 12 8 21
-14 50 -15 19 -33 35 -40 35 -23 0 -66 48 -66 73 0 14 -7 27 -15 31 -8 3 -15
14 -15 23 0 10 -6 28 -14 39 -8 11 -13 29 -12 40 2 10 -3 31 -11 46 -7 15 -11
39 -7 52 7 29 -5 38 -58 43 -27 2 -40 -1 -44 -12 -4 -8 -17 -15 -30 -15 -15 0
-24 -6 -24 -15 0 -8 -7 -15 -15 -15 -8 0 -15 5 -15 11 0 6 -14 9 -32 8 -41 -3
-79 16 -72 36 3 8 -6 25 -22 40 -21 19 -30 22 -40 14 -8 -6 -14 -18 -14 -25 0
-20 -24 -17 -51 5 l-24 19 28 7 c25 7 28 11 23 34 -13 52 -12 56 12 53 17 -3
22 2 22 18 0 11 7 23 16 27 11 4 13 13 9 34 -5 22 -3 29 9 29 9 0 16 4 16 10
0 13 -38 32 -50 25 -5 -3 -11 -1 -14 4 -3 5 -15 7 -26 4 -11 -3 -27 0 -35 7
-23 19 -31 4 -17 -32 9 -25 9 -34 0 -39 -9 -6 -9 -14 2 -36 17 -35 14 -53 -12
-71 -18 -13 -18 -15 -3 -32 14 -16 14 -18 -1 -30 -13 -12 -17 -11 -25 1 -5 8
-9 19 -9 26 0 6 -5 24 -12 40 -6 15 -10 31 -10 36 4 15 -68 77 -89 77 -11 0
-30 11 -40 25 -12 14 -26 22 -34 19 -9 -4 -18 1 -21 12 -12 34 -57 74 -75 69
-10 -3 -20 -1 -24 5 -3 5 -18 10 -33 10 -45 0 -56 13 -48 59 7 47 -20 113 -54
131 -11 6 -20 17 -20 24 0 8 -7 16 -15 20 -8 3 -15 10 -15 16 0 15 36 12 50
-5 22 -27 61 -11 44 17 -5 8 -9 6 -14 -6 -5 -16 -8 -16 -33 4 -14 12 -26 26
-24 32 1 6 -20 19 -48 29 -27 10 -57 29 -65 41 -8 12 -28 38 -44 56 l-30 34
23 17 c22 17 22 17 2 35 -11 10 -23 16 -28 13 -13 -8 -39 15 -48 42 -4 14 -23
30 -50 42 -41 18 -43 21 -35 49 7 25 5 33 -14 47 -18 15 -21 26 -18 60 3 35
-1 48 -22 73 -14 17 -28 47 -32 66 -4 20 -13 38 -20 41 -8 3 -14 15 -14 28 0
12 -7 28 -15 35 -8 7 -15 20 -15 30 0 23 -7 28 -35 22 -20 -3 -23 -8 -15 -22
8 -15 4 -19 -25 -24 -19 -4 -39 -14 -44 -24 -7 -13 -14 -14 -33 -6 -42 20 -94
34 -124 34 -24 0 -32 6 -41 30 -7 18 -18 30 -30 30 -25 0 -73 46 -73 70 0 11
-7 20 -15 20 -8 0 -15 5 -15 11 0 15 -67 40 -93 34 -12 -3 -39 3 -62 15 -47
24 -107 26 -125 5 -12 -14 -15 -14 -30 0 -19 17 -40 20 -40 5 0 -6 -6 -10 -12
-9 -7 1 -26 1 -42 0 -23 -1 -27 -5 -23 -21 4 -15 0 -20 -13 -20 -11 0 -22 5
-25 10 -7 12 -66 14 -64 3 4 -22 -3 -24 -21 -8 -19 17 -20 17 -21 -1 -1 -10
-1 -22 0 -26 0 -3 -24 -5 -54 -4 -48 2 -55 0 -55 -16 0 -11 -4 -16 -10 -13 -5
3 -30 -8 -55 -25 -28 -19 -52 -29 -64 -25 -11 3 -25 -2 -36 -15 -10 -11 -28
-20 -40 -20 -13 0 -28 -7 -36 -16 -7 -9 -22 -14 -36 -11 -19 3 -21 2 -12 -10
17 -20 7 -25 -48 -25 -60 0 -113 11 -113 24 0 5 -12 7 -28 3 -16 -3 -41 -1
-55 4 -23 9 -27 16 -27 49 0 37 -28 81 -42 66 -11 -10 -63 -12 -81 -2 -9 5
-22 6 -29 2 -24 -15 -86 -14 -92 1 -3 8 -11 15 -18 15 -10 0 -9 -3 1 -9 12 -8
9 -15 -12 -41 -15 -17 -30 -42 -33 -56 -7 -27 -12 -28 -47 -15 -13 5 -30 5
-37 1 -18 -11 -50 6 -50 26 0 13 -7 15 -33 10 -25 -5 -36 -2 -50 14 -9 11 -26
20 -37 20 -11 0 -23 7 -27 16 -5 13 -14 15 -46 10 -43 -7 -69 6 -60 30 7 19
-31 60 -68 73 -22 8 -32 6 -44 -6 -12 -12 -19 -13 -30 -3 -12 10 -18 10 -32
-1 -15 -13 -15 -12 -4 9 13 24 6 66 -10 57 -5 -4 -9 3 -9 14 0 12 -5 21 -11
21 -15 0 -36 23 -41 46 -2 12 -13 20 -29 22 -15 2 -39 16 -54 32 -26 27 -26
29 -10 54 10 14 24 26 32 26 8 0 11 5 8 10 -6 10 29 64 38 58 2 -2 11 3 20 11
10 7 17 9 17 3 0 -5 8 -12 18 -14 14 -4 17 2 18 38 0 24 6 49 12 57 7 8 9 17
5 20 -3 4 -2 7 3 7 5 0 20 20 34 45 14 25 30 45 37 45 6 0 17 16 24 35 11 28
18 35 40 35 20 0 29 6 34 23 3 12 15 43 27 69 l21 46 -23 38 c-22 34 -22 38
-7 49 20 14 22 66 5 83 -10 10 -10 15 1 21 7 5 10 14 7 20 -4 6 4 16 18 23 14
6 26 16 26 22 0 28 -14 56 -26 56 -35 0 -47 85 -13 95 17 6 19 12 14 33 -4 15
-14 35 -22 45 -18 19 -43 23 -43 7 0 -7 -6 -7 -20 0 -11 6 -20 17 -20 24 0 7
-6 13 -12 13 -7 0 -23 3 -35 7 -13 4 -23 3 -23 -2 0 -5 -12 -14 -26 -21 -20
-9 -30 -9 -40 0 -8 7 -33 13 -55 14 -43 3 -81 29 -73 50 3 7 -7 21 -22 32 -14
10 -38 29 -53 43 -31 29 -61 34 -61 9z m-640 -1497 c11 -2 11 -5 2 -14 -10
-10 -15 -10 -22 2 -8 12 -11 11 -16 -7 -8 -30 -34 -30 -34 0 0 23 9 25 70 19z
m0 -562 c0 -5 -2 -10 -4 -10 -3 0 -8 5 -11 10 -3 6 -1 10 4 10 6 0 11 -4 11
-10z m4784 -2232 c-6 -10 -4 -10 8 0 12 9 18 10 23 2 9 -15 4 -19 -24 -22 -16
-2 -25 3 -26 15 -2 10 3 17 11 17 10 0 12 -5 8 -12z m-4727 -3300 c-3 -8 -6
-5 -6 6 -1 11 2 17 5 13 3 -3 4 -12 1 -19z m4190 -1264 c-13 -13 -34 11 -35
38 l-1 31 20 -33 c11 -18 18 -34 16 -36z m158 13 c-20 -11 -27 -5 -19 17 5 13
9 14 21 5 12 -11 12 -14 -2 -22z m-235 -7 c0 -5 -4 -10 -10 -10 -5 0 -10 5
-10 10 0 6 5 10 10 10 6 0 10 -4 10 -10z m50 -30 c0 -5 -4 -10 -9 -10 -6 0
-13 5 -16 10 -3 6 1 10 9 10 9 0 16 -4 16 -10z"/>
<path d="M7260 15031 c0 -5 5 -13 10 -16 6 -3 10 -2 10 4 0 5 -4 13 -10 16 -5
3 -10 2 -10 -4z"/>
<path d="M7445 14980 c-62 -24 -104 -25 -133 -4 -36 25 -25 -2 18 -46 22 -22
40 -49 40 -59 0 -35 26 -81 60 -106 18 -13 37 -22 42 -19 5 4 16 -3 24 -14 7
-11 29 -29 48 -40 l35 -21 -11 27 c-7 15 -20 36 -30 48 -10 11 -18 30 -18 42
0 11 -4 24 -10 27 -15 9 -12 25 5 25 8 0 15 5 15 10 0 6 -4 10 -10 10 -13 0
-13 37 1 45 7 5 5 13 -5 24 -9 10 -17 30 -18 44 -1 15 -3 27 -3 26 0 0 -22 -9
-50 -19z"/>
<path d="M7880 14599 c0 -5 4 -9 9 -9 5 0 17 -3 27 -7 11 -4 15 -3 11 4 -9 14
-47 24 -47 12z"/>
<path d="M8031 14484 c0 -11 3 -14 6 -6 3 7 2 16 -1 19 -3 4 -6 -2 -5 -13z"/>
<path d="M12661 13264 c0 -11 3 -14 6 -6 3 7 2 16 -1 19 -3 4 -6 -2 -5 -13z"/>
<path d="M13358 11565 c3 -17 11 -25 25 -25 20 0 20 1 -3 25 -13 14 -24 25
-25 25 -1 0 0 -11 3 -25z"/>
<path d="M7390 9495 c7 -8 17 -15 22 -15 6 0 5 7 -2 15 -7 8 -17 15 -22 15 -6
0 -5 -7 2 -15z"/>
<path d="M13950 8530 c0 -5 4 -10 9 -10 6 0 13 5 16 10 3 6 -1 10 -9 10 -9 0
-16 -4 -16 -10z"/>
<path d="M7378 7139 c-16 -9 -26 -39 -14 -39 2 0 13 -3 23 -7 10 -3 15 -3 11
2 -4 4 -3 14 4 22 15 19 -2 35 -24 22z"/>
<path d="M13630 7042 c0 -6 -12 -22 -26 -35 l-26 -24 27 1 c16 1 33 10 42 22
12 18 11 23 -2 34 -10 8 -15 9 -15 2z"/>
<path d="M13715 7010 c3 -5 18 -10 33 -9 24 0 25 1 7 9 -28 12 -47 12 -40 0z"/>
<path d="M7368 6950 c-43 -13 -50 -20 -34 -36 8 -8 19 -14 25 -14 6 0 11 -6
11 -13 0 -8 9 -22 20 -32 20 -18 21 -18 27 3 3 12 14 24 25 28 11 3 17 12 14
20 -3 8 6 20 22 28 15 9 22 15 15 16 -6 0 -18 3 -27 6 -11 4 -16 1 -16 -10 0
-20 -29 -21 -36 -1 -7 17 -8 17 -46 5z"/>
<path d="M13850 6934 c0 -22 2 -25 15 -14 12 10 13 16 4 26 -16 20 -19 18 -19
-12z"/>
<path d="M7286 6906 c3 -9 13 -16 22 -16 8 0 13 1 11 3 -2 1 -12 9 -22 16 -15
12 -17 12 -11 -3z"/>
<path d="M13886 6895 c5 -11 1 -14 -12 -9 -16 4 -16 3 1 -8 12 -7 19 -21 17
-30 -2 -12 3 -18 13 -18 13 0 15 6 10 33 -9 38 -13 47 -25 47 -5 0 -7 -7 -4
-15z"/>
<path d="M13205 6671 c-2 -5 4 -11 15 -14 11 -3 20 -2 20 3 0 12 -28 21 -35
11z"/>
<path d="M13625 6651 c-6 -6 -50 -12 -97 -13 -85 -3 -87 -4 -90 -28 -3 -22 -7
-25 -36 -22 -20 1 -40 -4 -49 -14 -9 -8 -25 -13 -35 -11 -16 5 -19 1 -16 -21
2 -21 10 -28 41 -34 21 -4 47 -13 59 -19 11 -6 44 -12 73 -14 30 -2 63 -6 74
-10 14 -4 21 -2 21 7 0 10 2 10 9 -1 5 -8 7 -20 4 -28 -3 -8 0 -11 8 -8 8 3
23 29 34 58 15 39 25 52 39 50 25 -2 42 16 51 55 4 21 2 36 -7 45 -17 16 -70
21 -83 8z"/>
<path d="M13764 6646 c-7 -18 12 -46 29 -46 8 0 8 3 0 11 -6 6 -9 17 -7 24 3
7 1 16 -5 20 -6 3 -14 -1 -17 -9z"/>
<path d="M13221 6637 c2 -1 12 -9 22 -16 15 -12 17 -12 11 3 -3 9 -13 16 -22
16 -8 0 -13 -1 -11 -3z"/>
<path d="M13583 6381 c4 -20 3 -39 -4 -47 -13 -16 -8 -56 9 -62 8 -2 10 2 5
13 -5 15 -3 16 15 6 25 -13 24 -14 27 16 1 13 -4 28 -11 34 -8 6 -14 19 -14
29 0 10 -8 24 -17 31 -15 13 -16 11 -10 -20z"/>
<path d="M9110 5019 c0 -7 -10 -9 -25 -7 -31 6 -32 -10 -5 -44 17 -22 18 -29
7 -52 -7 -14 -18 -26 -24 -26 -18 0 -16 -20 4 -42 14 -15 14 -24 5 -57 -20
-65 -15 -81 38 -133 27 -26 45 -48 40 -48 -6 0 -10 -9 -10 -21 0 -11 -4 -18
-9 -14 -5 3 -11 -5 -13 -17 -3 -24 -9 -25 -89 -15 -20 2 -41 7 -48 11 -6 4
-11 3 -11 -3 0 -6 -6 -8 -13 -5 -8 3 -25 -4 -38 -15 -17 -14 -20 -20 -9 -21 8
0 21 -9 28 -20 7 -11 19 -20 27 -20 10 0 17 -14 21 -40 7 -41 37 -90 55 -90 6
0 27 -8 49 -19 32 -15 40 -16 44 -5 8 20 23 17 29 -6 3 -13 10 -18 21 -14 9 3
16 10 16 15 0 6 10 5 21 -2 19 -10 21 -9 17 7 -3 11 -9 27 -13 37 -5 13 -2 17
13 17 16 0 18 5 14 28 -4 22 -2 25 9 15 16 -16 39 -17 39 -2 0 6 -9 18 -20 27
-16 14 -18 24 -11 59 7 35 5 45 -10 59 -11 10 -17 19 -14 22 3 3 0 11 -6 18
-8 10 -5 15 15 20 21 5 24 9 16 24 -8 15 -6 17 11 13 19 -5 20 -4 10 15 -6 11
-24 23 -41 27 -33 7 -36 18 -15 55 19 34 19 37 -9 44 -21 5 -36 29 -40 61 -1
6 -7 16 -14 24 -7 7 -12 28 -10 46 1 18 -6 49 -17 69 -19 35 -35 47 -35 25z"/>
<path d="M9250 4300 c0 -5 4 -10 9 -10 6 0 13 5 16 10 3 6 -1 10 -9 10 -9 0
-16 -4 -16 -10z"/>
</g>
</svg>
