<?xml version="1.0" standalone="no"?>
<!DOCTYPE svg PUBLIC "-//W3C//DTD SVG 20010904//EN"
 "http://www.w3.org/TR/2001/REC-SVG-20010904/DTD/svg10.dtd">
<svg version="1.0" xmlns="http://www.w3.org/2000/svg"
 width="804.310977pt" height="472.338045pt" viewBox="0 0 804.310977 472.338045"
 preserveAspectRatio="xMidYMid meet">
<metadata>
Created by potrace 1.15, written by Peter Selinger 2001-2017
</metadata>
<g transform="translate(-611.516603,1216.000000) scale(0.100000,-0.100000)"
fill="#222222" stroke="none">
<path d="M12639 12153 c-1 -5 -1 -11 0 -15 0 -4 -13 -5 -29 -2 -22 5 -31 2
-36 -10 -8 -20 -28 -21 -44 -1 -16 19 -52 2 -43 -21 5 -14 -12 -14 -63 1 -28
8 -34 -12 -13 -39 l22 -28 -31 6 c-25 6 -33 3 -41 -13 -9 -16 -7 -24 10 -39
26 -25 12 -35 -35 -27 -28 6 -35 4 -40 -13 -12 -37 -47 -72 -72 -72 -13 0 -24
-6 -24 -13 0 -18 -35 -49 -44 -40 -4 4 -4 1 -1 -8 6 -17 -29 -59 -49 -59 -8 0
-16 -9 -19 -20 -4 -15 -14 -20 -42 -20 -49 0 -116 -20 -122 -37 -3 -7 -13 -13
-23 -13 -10 0 -22 -9 -25 -21 -6 -16 -12 -19 -36 -14 -22 5 -29 3 -29 -9 0
-17 -11 -20 -82 -16 -38 1 -48 -2 -58 -19 -12 -24 -49 -28 -81 -8 -17 10 -22
9 -34 -7 -14 -18 -16 -18 -50 -2 -34 17 -37 17 -62 -1 -55 -39 -100 -57 -135
-54 -14 1 -29 -2 -32 -7 -3 -6 -15 -8 -26 -5 -26 7 -101 -23 -118 -48 -7 -10
-22 -19 -32 -19 -10 0 -23 -7 -27 -15 -5 -8 -23 -19 -41 -24 -27 -8 -32 -7
-32 8 0 12 -18 25 -53 39 -63 26 -74 27 -94 6 -9 -8 -23 -14 -32 -11 -9 3 -23
6 -31 8 -8 2 -20 10 -26 18 -6 8 -26 15 -45 16 -19 0 -45 7 -59 15 -14 7 -58
14 -99 15 -74 1 -75 2 -110 42 -46 51 -111 92 -111 69 0 -9 -4 -16 -10 -16 -5
0 -18 -17 -29 -37 -29 -58 -74 -95 -107 -91 -26 3 -28 1 -30 -44 -2 -37 0 -48
11 -48 26 0 16 -36 -12 -50 -43 -19 -82 -29 -87 -21 -6 8 -93 7 -122 -3 -11
-3 -36 0 -55 8 -23 10 -39 11 -52 5 -10 -6 -30 -9 -45 -8 -15 1 -39 1 -55 1
-26 -2 -27 -4 -22 -39 5 -32 1 -43 -25 -71 -31 -34 -63 -42 -106 -28 -11 3
-44 2 -73 -4 -54 -10 -90 -39 -91 -71 0 -9 -7 -22 -15 -29 -8 -7 -15 -23 -15
-35 0 -13 -5 -25 -11 -27 -5 -2 -13 -22 -16 -46 -3 -26 -11 -42 -19 -42 -8 0
-14 -9 -14 -20 0 -15 -7 -20 -26 -20 -21 0 -24 -4 -19 -19 7 -24 -26 -61 -55
-61 -11 0 -20 -4 -20 -9 0 -5 -3 -17 -7 -27 -5 -14 -3 -15 12 -7 21 12 49 6
89 -18 31 -19 56 -15 56 7 0 11 4 12 19 4 16 -8 22 -6 30 7 9 17 12 16 28 -7
10 -14 17 -28 16 -31 -1 -4 6 -14 17 -24 13 -12 25 -14 42 -9 13 4 26 7 30 6
4 -1 19 9 33 22 28 26 34 66 9 66 -24 0 -44 25 -48 64 -5 34 -4 35 20 26 35
-14 44 -12 44 6 0 13 7 11 41 -8 30 -16 42 -19 48 -10 5 9 11 9 26 -2 19 -13
55 -11 55 5 0 18 38 -8 80 -56 59 -65 72 -75 86 -64 13 11 74 -8 74 -23 0 -5
8 -7 19 -3 14 4 24 -3 40 -31 14 -23 27 -34 36 -30 10 3 15 -1 15 -13 0 -10
-6 -18 -12 -19 -7 0 -24 -4 -37 -8 -17 -5 -22 -4 -17 4 4 7 2 12 -3 12 -6 0
-11 -8 -11 -17 -1 -43 -114 -123 -172 -123 -10 0 -16 -5 -13 -10 4 -6 10 -8
15 -5 11 7 23 -26 12 -37 -10 -10 -3 -68 8 -68 16 0 -3 -39 -21 -45 -11 -4
-19 -16 -19 -27 0 -16 -5 -19 -20 -15 -17 4 -20 2 -15 -13 11 -33 -12 -66 -61
-90 -27 -12 -54 -30 -61 -39 -12 -15 -13 -14 -18 4 -3 11 -16 25 -29 31 -18 9
-25 7 -39 -13 -10 -13 -27 -23 -38 -23 -11 0 -19 -6 -18 -12 1 -7 1 -18 0 -25
-1 -17 -102 -63 -138 -63 -17 0 -45 -3 -62 -6 -27 -6 -30 -9 -24 -33 5 -22 4
-24 -9 -14 -21 18 -41 -3 -27 -29 7 -14 6 -18 -6 -18 -8 0 -15 -7 -15 -15 0
-21 -31 -19 -37 3 -6 25 -58 17 -101 -16 -27 -21 -37 -24 -52 -15 -14 10 -21
7 -39 -13 -11 -13 -25 -24 -31 -24 -5 0 -10 -9 -10 -20 0 -34 -22 -71 -35 -60
-9 8 -14 4 -18 -11 -3 -13 -11 -19 -19 -16 -47 19 -51 20 -45 10 9 -15 -19
-37 -37 -30 -12 5 -13 1 -7 -16 10 -26 7 -73 -7 -119 -13 -43 -15 -129 -3
-160 5 -14 23 -31 40 -38 28 -11 32 -10 50 11 16 20 21 21 35 10 12 -10 20
-11 29 -3 8 7 29 9 49 6 33 -6 38 -3 52 24 9 17 13 38 10 47 -5 11 0 18 14 22
13 3 19 10 15 19 -7 18 6 18 26 0 26 -22 61 -30 61 -13 0 22 39 28 79 11 34
-14 36 -14 54 11 17 23 20 24 40 10 23 -16 50 -3 41 20 -4 10 8 8 45 -8 38
-16 53 -28 58 -47 9 -39 12 -41 32 -21 24 24 74 35 100 22 15 -9 23 -7 36 5
15 15 18 15 38 -3 12 -11 30 -26 41 -34 41 -31 75 -71 70 -83 -3 -7 4 -21 16
-31 11 -10 20 -30 20 -45 0 -15 8 -34 18 -42 34 -31 108 -43 121 -20 4 7 21
21 37 31 28 17 31 17 69 0 63 -26 115 -33 115 -14 0 25 55 19 77 -9 25 -31
101 -70 134 -68 15 1 32 -5 39 -13 29 -34 66 -1 49 44 -8 19 -6 27 6 33 8 5
15 22 15 38 0 17 5 30 11 30 17 0 38 32 39 58 0 13 6 22 16 22 9 0 18 9 21 20
3 12 14 20 25 20 16 0 19 5 16 25 -6 31 0 31 64 -1 53 -27 52 -27 119 6 10 6
22 3 32 -7 13 -14 20 -12 62 17 26 18 55 46 64 61 9 16 23 29 32 29 9 0 24 9
34 20 15 17 16 24 7 45 -11 24 -10 25 23 25 18 0 40 7 48 15 8 8 17 11 21 8 3
-4 6 6 6 20 0 20 5 27 20 27 11 0 20 4 20 8 0 4 13 13 30 19 25 9 31 9 39 -4
6 -12 10 -13 16 -3 4 7 2 16 -6 22 -10 6 -6 7 11 2 14 -4 28 -11 31 -16 3 -5
12 -9 20 -8 31 5 49 -1 49 -15 0 -18 45 -21 56 -4 3 6 15 8 27 5 28 -7 83 22
68 37 -20 20 -12 28 26 25 31 -2 40 1 48 20 8 18 17 22 40 20 17 -1 55 2 87 6
34 5 63 4 73 -2 27 -15 52 -3 75 35 17 29 25 34 51 31 22 -2 35 3 47 19 12 16
21 20 32 13 12 -8 12 -11 -3 -28 -17 -19 -17 -20 1 -24 15 -4 18 -1 15 13 -4
13 0 19 11 19 8 0 23 11 32 25 16 24 16 27 -1 39 -16 12 -16 13 -1 19 10 4 16
1 16 -8 0 -8 5 -15 11 -15 5 0 8 -4 5 -9 -3 -4 13 -25 35 -46 31 -29 38 -40
27 -46 -10 -7 -9 -9 5 -9 9 0 17 5 17 12 0 9 3 9 12 0 9 -9 8 -20 -5 -47 -9
-20 -17 -48 -17 -63 -1 -15 -7 -38 -14 -51 -11 -20 -10 -28 6 -59 10 -20 16
-42 13 -49 -2 -8 3 -13 13 -13 10 0 24 -6 31 -12 11 -10 14 -10 18 0 3 6 10
12 17 12 14 0 36 41 36 66 0 11 4 12 19 2 15 -9 24 -7 48 10 28 20 86 24 113
7 6 -3 18 -4 29 0 13 4 17 12 13 30 -3 17 0 25 10 25 19 0 46 49 32 58 -6 4
-23 31 -39 60 -19 34 -31 48 -36 40 -11 -17 -58 9 -69 38 -5 12 -16 24 -25 28
-24 9 -27 8 -19 -6 4 -7 -2 -5 -13 5 -11 9 -27 17 -37 17 -12 0 -17 7 -15 23
4 28 -8 48 -25 41 -7 -3 -18 2 -25 10 -10 11 -19 13 -38 5 -14 -5 -34 -7 -44
-4 -14 5 -19 1 -19 -14 0 -14 -6 -21 -18 -21 -10 0 -23 -5 -29 -11 -7 -7 -9
-3 -6 15 3 15 1 26 -6 26 -6 0 -11 9 -11 20 0 24 13 26 30 5 16 -19 35 -5 44
31 7 27 -10 58 -25 48 -18 -11 -69 7 -69 25 0 24 -60 87 -69 73 -12 -21 -48
14 -49 47 0 23 3 29 15 24 11 -4 14 -2 9 6 -4 6 -19 10 -34 9 -22 -3 -27 2
-33 30 -3 17 -3 32 2 32 5 0 9 14 9 30 0 20 -5 30 -15 30 -15 0 -20 17 -16 60
1 14 0 44 -4 67 -5 36 -10 42 -33 45 -19 2 -31 12 -41 36 -9 19 -22 32 -33 32
-10 0 -18 7 -18 15 0 9 9 15 24 15 19 0 25 6 28 30 3 17 2 30 -2 30 -13 0 -30
51 -30 87 0 20 3 33 7 30 3 -4 16 5 29 18 13 14 27 25 33 25 5 0 7 8 5 18 -4
12 4 21 26 30 16 6 44 18 60 24 18 8 30 20 30 31 0 12 16 25 48 38 92 41 88
40 128 8 20 -16 49 -32 63 -36 14 -3 36 -17 48 -30 12 -12 29 -23 37 -23 8 0
20 -9 26 -20 7 -13 21 -20 41 -20 29 0 30 -1 24 -34 -5 -27 -1 -42 19 -73 15
-22 24 -47 21 -55 -3 -8 1 -21 10 -28 8 -7 15 -18 15 -25 0 -8 15 -23 34 -34
19 -12 37 -33 41 -48 3 -15 17 -38 31 -51 13 -14 24 -35 24 -48 0 -35 11 -54
31 -54 12 0 19 7 19 20 0 22 28 40 49 32 11 -3 12 0 6 14 -4 11 -7 24 -6 29 7
68 7 269 0 297 -11 43 2 78 28 78 10 0 14 6 10 19 -2 10 -1 25 4 33 6 10 4 20
-6 28 -10 8 -15 31 -15 65 0 41 -4 54 -19 61 -31 14 -112 94 -106 104 3 5 1
11 -5 15 -5 3 -10 18 -10 32 0 24 1 25 23 10 14 -9 29 -12 38 -7 24 14 73 6
104 -16 17 -12 53 -29 82 -37 28 -9 61 -21 73 -27 20 -11 21 -10 10 9 -9 17
-8 22 5 27 17 7 21 34 4 34 -6 0 -8 7 -5 16 10 25 -3 59 -27 69 -25 11 -35 54
-15 67 10 7 9 10 -5 19 -9 6 -15 14 -12 20 4 5 2 9 -3 9 -15 0 -122 105 -122
119 0 7 -4 10 -9 7 -5 -4 -12 0 -14 6 -4 10 -8 9 -16 -2 -8 -12 -11 -12 -17 5
-5 11 -3 20 4 23 19 6 14 37 -5 40 -112 14 -113 14 -113 33 0 10 4 19 9 19 12
0 9 59 -3 78 -5 9 -1 19 13 28 12 8 21 24 21 34 0 10 5 22 10 25 6 4 8 15 5
26 -4 13 -2 19 9 19 10 0 13 6 10 15 -4 10 0 15 11 15 12 0 16 8 13 33 -2 17
-7 32 -13 32 -17 0 -36 16 -30 26 4 5 4 9 1 9 -3 0 -7 -3 -7 -7z m-104 -348
c32 -11 34 -20 4 -17 -4 1 -9 -16 -13 -37 -3 -21 -15 -46 -26 -56 -11 -10 -20
-24 -20 -32 0 -7 -9 -13 -19 -13 -11 0 -22 -4 -26 -10 -9 -15 -35 0 -35 21 0
10 -13 25 -30 34 -42 22 -68 72 -31 60 11 -3 22 -1 26 5 4 6 15 8 24 5 11 -3
29 5 46 20 15 15 34 24 41 21 8 -3 14 -1 14 4 0 12 -3 13 45 -5z m-449 -472
c-7 -7 -26 7 -26 19 0 6 6 6 15 -2 9 -7 13 -15 11 -17z m-1 -41 c8 -21 -6 -32
-33 -26 -31 9 -29 42 2 42 14 0 27 -7 31 -16z m-45 -42 c0 -5 -9 -10 -20 -10
-11 0 -20 5 -20 10 0 6 9 10 20 10 11 0 20 -4 20 -10z m-2451 -296 c-3 -53
-19 -71 -19 -20 0 34 8 66 17 66 2 0 3 -21 2 -46z m2261 -284 c0 -5 -4 -10
-10 -10 -5 0 -10 5 -10 10 0 6 5 10 10 10 6 0 10 -4 10 -10z m-2180 -531 c0
-6 -4 -7 -10 -4 -5 3 -10 11 -10 16 0 6 5 7 10 4 6 -3 10 -11 10 -16z"/>
<path d="M10378 11783 c-6 -42 -2 -52 11 -37 14 14 18 66 5 71 -7 2 -14 -12
-16 -34z"/>
<path d="M10280 11780 c5 -17 20 -44 34 -61 25 -29 25 -29 36 -8 9 16 8 24 -4
38 -9 10 -16 23 -16 29 0 12 -31 32 -49 32 -6 0 -6 -11 -1 -30z"/>
<path d="M12760 11735 c0 -12 28 -35 44 -35 17 0 2 28 -19 38 -20 9 -25 9 -25
-3z"/>
<path d="M13128 11299 c-4 -13 -33 -18 -110 -19 -21 -1 -26 -5 -23 -21 13 -67
75 -65 75 2 0 18 2 19 30 4 34 -18 33 -15 20 -49 -6 -17 -6 -27 1 -31 5 -4 7
-15 4 -26 -9 -28 63 -99 99 -99 17 0 26 -5 26 -15 0 -9 11 -21 25 -27 14 -6
25 -19 25 -29 0 -13 8 -17 34 -17 37 0 76 -17 76 -33 0 -6 4 -8 8 -5 4 2 14
-16 21 -42 8 -26 21 -55 29 -65 9 -10 17 -23 19 -30 15 -63 15 -67 2 -68 -8 0
-4 -4 9 -9 15 -6 22 -19 23 -37 1 -15 3 -37 3 -48 1 -11 -4 -32 -11 -47 -20
-42 -17 -56 12 -50 16 3 33 -2 44 -12 10 -9 20 -14 23 -10 3 3 16 -9 28 -25
12 -17 30 -31 41 -31 13 0 33 -21 59 -61 33 -51 37 -64 27 -80 -9 -14 -9 -21
0 -30 20 -20 4 -39 -30 -33 -30 4 -30 4 -9 -7 12 -7 22 -19 22 -27 0 -9 7 -13
19 -9 12 3 27 -3 37 -14 9 -10 13 -19 8 -19 -5 -1 2 -7 16 -14 21 -12 27 -12
48 5 30 23 101 23 119 0 11 -13 14 -14 22 -2 6 10 10 10 13 1 4 -14 68 19 66
35 -1 6 2 18 7 28 4 9 3 23 -3 30 -14 18 -24 97 -12 97 18 0 11 20 -17 46 -23
22 -25 26 -11 42 27 32 48 103 37 123 -5 11 -6 19 -2 19 4 1 -3 10 -16 21 -24
20 -24 22 -11 67 8 26 14 68 15 94 0 38 5 50 28 68 21 17 27 30 27 60 0 30 4
40 21 45 11 4 19 10 17 14 -37 83 -43 90 -75 91 -23 0 -37 7 -50 26 -10 14
-33 43 -51 65 -17 23 -30 45 -27 49 9 15 -15 22 -30 10 -12 -10 -16 -9 -21 4
-3 9 -17 16 -29 16 -13 0 -26 4 -29 9 -3 5 -17 11 -31 13 -19 4 -25 1 -25 -13
0 -12 -10 -21 -25 -25 -14 -3 -25 -10 -25 -14 0 -4 -28 -18 -61 -30 -47 -18
-65 -21 -79 -12 -14 8 -26 6 -54 -9 -55 -29 -81 -25 -111 18 -14 21 -25 50
-25 65 0 16 -4 28 -10 28 -5 0 -10 8 -11 18 0 10 -3 12 -6 5 -6 -17 -40 -16
-50 1 -12 22 -63 32 -63 13 0 -23 -34 -26 -61 -7 -22 18 -23 17 -34 -3 -13
-27 -39 -36 -31 -11 7 23 -9 55 -16 33z m897 -916 c-5 -21 -1 -31 17 -44 l23
-18 -29 -11 c-20 -7 -32 -7 -41 0 -16 14 -26 50 -13 50 13 0 38 26 38 39 0 6
3 11 6 11 3 0 3 -12 -1 -27z"/>
<path d="M12623 10533 c-8 -3 -11 -14 -7 -28 8 -33 -31 -68 -67 -60 -40 9 -42
-3 -25 -160 1 -17 8 -40 14 -52 8 -15 9 -22 1 -25 -12 -4 9 -58 23 -58 4 0 8
-11 8 -24 0 -19 4 -24 20 -21 12 2 20 -2 20 -9 0 -7 13 -24 28 -38 28 -25 29
-25 73 -9 35 14 44 22 43 40 0 13 12 37 27 54 17 18 24 34 18 37 -5 4 -7 14
-4 22 4 11 -1 18 -14 23 -29 9 -26 25 4 25 16 0 25 6 25 15 0 8 5 15 11 15 8
0 8 4 -1 15 -6 8 -9 19 -5 25 3 5 1 10 -5 10 -6 0 -9 4 -6 9 6 10 -22 71 -33
71 -4 0 -12 -5 -18 -11 -8 -8 -14 -6 -22 9 -9 17 -7 20 12 21 12 1 33 2 47 4
19 1 24 -2 22 -17 -2 -11 1 -15 7 -11 15 9 14 42 -1 51 -21 13 -47 11 -53 -4
-3 -9 -14 -13 -30 -10 -13 3 -22 1 -19 -4 5 -8 -45 0 -56 9 -3 3 -5 23 -5 45
0 41 -8 51 -32 41z"/>
<path d="M12670 10487 c0 -8 7 -20 15 -27 12 -10 15 -10 15 3 0 8 -7 20 -15
27 -12 10 -15 10 -15 -3z"/>
<path d="M7416 10321 c-4 -7 -3 -18 3 -25 7 -8 11 -18 10 -22 -4 -23 3 -35 19
-32 14 2 17 -3 14 -29 -1 -18 2 -33 7 -33 6 0 9 -26 8 -57 -2 -57 -2 -58 32
-69 20 -6 38 -21 43 -34 4 -12 17 -35 29 -51 16 -22 24 -27 37 -20 10 5 29 7
43 4 28 -5 53 16 44 38 -3 8 -19 22 -36 31 -16 10 -36 33 -44 52 -9 21 -23 36
-39 40 -41 10 -103 50 -84 54 20 4 29 33 16 56 -5 9 -6 25 -3 36 7 21 -19 40
-54 40 -11 0 -24 7 -29 16 -7 12 -11 13 -16 5z"/>
<path d="M9195 10210 c-3 -5 -1 -10 4 -10 6 0 11 5 11 10 0 6 -2 10 -4 10 -3
0 -8 -4 -11 -10z"/>
<path d="M9197 10184 c-14 -14 8 -34 37 -35 17 -1 24 -3 14 -6 -13 -3 -15 -10
-8 -32 10 -34 2 -81 -14 -81 -6 0 -4 -5 4 -10 24 -16 60 -12 67 8 4 9 12 20
19 24 14 9 16 108 2 108 -5 0 -6 -4 -3 -10 3 -5 1 -10 -5 -10 -6 0 -13 7 -16
15 -4 8 -17 15 -31 15 -13 0 -32 4 -42 10 -10 5 -21 7 -24 4z"/>
<path d="M12815 10160 c-10 -16 -14 -105 -6 -119 11 -18 63 9 89 46 15 22 17
34 10 56 -8 23 -15 27 -48 27 -21 0 -42 -4 -45 -10z"/>
<path d="M13965 10140 c3 -5 10 -10 16 -10 5 0 9 5 9 10 0 6 -7 10 -16 10 -8
0 -12 -4 -9 -10z"/>
<path d="M7050 10031 c-14 -27 -13 -41 4 -35 8 3 13 16 12 30 -1 29 -2 29 -16
5z"/>
<path d="M7726 10001 c-3 -4 -1 -13 5 -21 18 -30 11 -47 -20 -42 -18 2 -30 -1
-34 -11 -10 -26 5 -97 22 -107 12 -6 17 -21 17 -49 -1 -23 -5 -40 -9 -39 -5 2
-15 -12 -23 -31 -12 -28 -12 -36 -2 -43 19 -12 76 -10 98 4 16 10 23 9 44 -11
22 -20 25 -21 33 -6 5 9 26 20 46 25 33 7 38 5 53 -19 9 -14 13 -23 9 -19 -4
4 -18 -3 -31 -17 -22 -24 -24 -24 -65 -10 -37 13 -40 13 -29 0 7 -8 8 -15 3
-15 -5 0 -9 -12 -8 -27 0 -19 -5 -27 -14 -25 -11 2 -12 0 -4 -10 16 -19 -9
-52 -25 -36 -9 9 -12 7 -13 -8 -1 -10 -1 -24 0 -31 1 -6 -3 -14 -9 -18 -8 -5
-8 -11 0 -20 8 -9 5 -11 -14 -8 -16 3 -34 -4 -57 -24 -29 -25 -43 -29 -102
-32 -54 -2 -73 1 -88 15 -11 10 -19 12 -19 5 0 -6 9 -19 19 -28 11 -9 18 -20
15 -25 -3 -5 -12 -4 -20 3 -8 6 -17 9 -21 6 -3 -4 -12 -2 -18 3 -8 7 -20 4
-39 -11 -25 -20 -28 -20 -45 -5 -16 14 -19 15 -24 3 -3 -8 0 -20 6 -26 8 -8 8
-11 -1 -11 -7 0 -12 -7 -12 -15 0 -9 -9 -15 -25 -15 -27 0 -32 -9 -14 -27 8
-8 3 -13 -20 -18 -17 -4 -34 -12 -38 -19 -11 -18 -49 -37 -57 -29 -15 15 -38
10 -45 -10 -11 -29 -47 -61 -60 -53 -11 7 -9 45 3 64 4 7 12 10 17 7 5 -4 9 1
9 9 0 12 6 13 31 6 31 -9 31 -9 26 19 -4 19 -1 33 8 41 8 7 15 18 14 24 0 8
-2 8 -5 0 -3 -7 -17 0 -35 17 -17 16 -37 29 -44 29 -8 0 -20 8 -27 18 -7 11
-23 24 -35 30 -19 11 -22 9 -25 -11 -3 -20 -8 -22 -58 -20 -35 2 -59 8 -66 18
-10 14 -13 14 -24 0 -14 -16 -50 -12 -87 11 -12 8 -38 14 -57 14 -28 0 -40 7
-60 33 -15 19 -26 45 -26 59 0 14 -9 33 -21 44 -12 10 -27 31 -35 46 -13 24
-12 28 6 41 11 8 17 17 12 22 -4 4 2 5 13 1 29 -9 50 45 27 68 -15 15 -14 16
7 16 26 0 50 25 51 52 0 15 3 15 26 3 26 -13 47 -11 71 7 7 6 18 6 24 2 8 -4
9 -3 5 4 -9 15 7 15 21 1 9 -9 19 -5 41 16 27 25 28 30 16 53 -7 15 -11 37 -8
49 5 19 2 23 -16 23 -12 0 -28 7 -36 15 -24 23 -44 18 -44 -10 0 -20 -6 -27
-28 -31 -25 -5 -28 -10 -24 -35 4 -28 -15 -59 -37 -59 -5 0 -12 -9 -16 -20 -3
-11 -9 -19 -13 -18 -15 3 -67 -16 -74 -26 -5 -8 -11 -7 -20 2 -21 21 -31 13
-14 -13 16 -25 16 -25 -29 -53 -25 -15 -45 -33 -45 -39 0 -15 -16 -17 -25 -3
-3 6 -16 10 -28 10 -12 0 -35 14 -51 30 -28 29 -47 38 -45 23 4 -22 -3 -29
-27 -28 -14 1 -29 6 -32 12 -4 5 -15 12 -24 16 -28 10 -22 -19 10 -42 20 -15
24 -23 15 -29 -10 -6 -10 -12 1 -27 11 -15 11 -21 -3 -37 -8 -10 -21 -18 -28
-18 -8 0 -18 -11 -23 -25 -5 -14 -16 -25 -25 -25 -11 0 -15 -11 -15 -41 0 -33
-6 -47 -30 -69 -21 -19 -28 -34 -23 -46 4 -11 3 -15 -4 -11 -17 11 -46 -29
-36 -48 6 -9 13 -16 16 -16 19 3 19 0 1 -13 -19 -14 -18 -15 7 -43 32 -35 43
-63 25 -63 -8 0 -13 -11 -13 -25 0 -23 8 -30 32 -25 6 1 4 -4 -2 -11 -19 -19
-16 -29 10 -29 15 0 18 -3 9 -9 -11 -6 -11 -10 0 -19 22 -18 65 -25 74 -11 5
9 9 8 15 -7 7 -17 8 -16 8 5 1 25 1 25 35 -8 31 -30 39 -33 77 -28 23 3 45 10
49 16 9 15 65 3 83 -18 8 -9 17 -28 21 -43 3 -16 13 -28 21 -28 24 0 122 -40
159 -65 41 -28 114 -46 101 -25 -9 15 -11 15 78 -29 42 -21 67 -40 67 -51 0
-27 65 -83 99 -84 17 -1 31 -4 31 -8 0 -13 35 -9 66 6 45 23 80 9 142 -55 31
-32 68 -61 83 -64 16 -4 40 -16 55 -28 15 -12 34 -22 41 -23 14 -2 98 -75 119
-103 6 -8 18 -11 28 -8 9 4 16 2 16 -3 0 -6 5 -10 11 -10 21 0 77 -51 83 -76
8 -30 -20 -94 -40 -94 -8 0 -14 -9 -14 -19 0 -11 -4 -22 -10 -26 -6 -3 -6 -15
0 -29 7 -20 5 -25 -13 -30 -20 -5 -20 -6 -4 -24 19 -21 22 -63 7 -78 -14 -14
-1 -46 16 -40 7 3 16 1 19 -5 4 -5 10 -7 14 -4 5 2 16 -4 25 -14 17 -18 19
-18 47 -3 16 10 29 25 29 35 0 10 7 20 16 24 11 4 13 13 9 34 -6 26 -4 29 19
29 16 0 26 -6 26 -14 0 -8 9 -17 19 -21 19 -6 57 -46 95 -100 13 -19 21 -24
29 -16 6 6 21 11 32 11 27 0 87 29 98 47 4 7 15 13 23 13 8 0 13 4 9 9 -3 6 6
8 20 5 16 -3 32 3 45 16 11 11 29 20 40 20 21 0 37 38 26 65 -4 12 0 14 18 9
19 -4 25 -1 30 21 4 14 4 30 2 34 -3 5 3 27 14 49 17 35 18 48 10 93 -12 61
-13 112 -2 106 4 -3 7 11 7 31 0 31 4 38 22 40 15 2 25 13 29 28 3 13 13 24
20 24 8 0 17 7 20 15 3 8 21 20 39 27 19 6 32 15 29 19 -2 4 0 10 5 14 7 4 7
15 1 30 -5 14 -7 32 -4 40 4 8 1 15 -5 15 -6 0 -11 5 -11 11 0 5 4 8 9 5 11
-7 61 39 61 56 0 7 -4 20 -10 28 -7 12 -13 10 -33 -12 -14 -14 -27 -42 -31
-61 -5 -24 -13 -37 -29 -41 -33 -9 -98 -7 -134 3 -24 7 -33 6 -37 -5 -4 -11
-9 -11 -33 1 -15 8 -36 16 -45 19 -15 4 -67 88 -57 93 2 1 -7 13 -20 27 -13
14 -27 23 -32 21 -4 -3 -24 5 -44 17 l-37 21 22 17 c15 11 19 19 11 21 -7 3
-15 26 -18 52 -6 48 -8 50 -56 47 -38 -2 -89 19 -83 36 6 15 -11 30 -57 53
-20 10 -33 25 -35 41 -4 22 -2 23 15 10 17 -14 17 -14 1 6 -10 11 -18 35 -18
52 0 25 -4 32 -20 32 -11 0 -23 -7 -26 -15 -8 -21 -36 -19 -62 5 -22 20 -31
57 -12 45 6 -3 10 -2 10 4 0 5 -10 13 -22 17 -22 7 -22 7 -3 14 23 8 78 5 94
-5 6 -3 11 -2 11 2 0 5 9 9 20 9 11 0 20 -6 20 -14 0 -7 4 -11 9 -8 13 8 44
-31 38 -47 -10 -26 22 -59 49 -53 13 4 24 2 24 -3 0 -5 16 -11 35 -13 19 -2
35 0 35 4 0 16 51 7 70 -12 18 -18 22 -19 35 -6 24 23 18 44 -17 61 -21 10
-40 30 -52 57 -10 22 -27 43 -36 45 -15 4 -16 10 -8 40 6 23 6 45 -1 64 -9 26
-8 29 10 29 23 0 24 18 4 48 -13 17 -13 26 -5 43 9 16 8 24 -5 39 -17 19 -13
40 8 40 15 0 16 67 2 90 -7 13 -6 13 7 2 17 -14 28 -5 25 19 -3 18 -51 69 -65
69 -6 0 -15 7 -20 16 -7 12 -20 15 -56 13 -30 -3 -46 0 -46 7 0 12 -22 24 -42
24 -6 0 -8 -7 -4 -15 7 -20 -18 -20 -34 0 -7 8 -10 21 -7 29 3 8 -1 20 -9 27
-8 6 -12 14 -10 17 3 3 -3 17 -13 31 -10 14 -21 35 -25 46 -6 21 -53 48 -60
36z m125 -1434 c8 -7 16 -28 16 -49 1 -45 8 -57 39 -68 19 -8 24 -17 24 -43 0
-36 -22 -46 -47 -21 -7 7 -18 14 -24 16 -6 2 -13 25 -16 51 -3 26 -10 47 -14
47 -5 0 -9 18 -9 40 0 42 5 47 31 27z m294 -257 c3 -5 13 -6 22 -3 11 4 14 2
11 -8 -2 -8 -15 -15 -27 -17 -14 -2 -21 -9 -17 -17 3 -8 1 -17 -3 -20 -11 -6
-20 30 -14 55 6 21 18 26 28 10z m-289 -176 c-3 -9 -6 -18 -6 -20 0 -9 -39 -3
-46 8 -5 8 -2 9 10 5 10 -4 19 -1 22 8 4 8 11 15 16 15 6 0 7 -7 4 -16z"/>
<path d="M12765 9990 c4 -6 11 -8 16 -5 14 9 11 15 -7 15 -8 0 -12 -5 -9 -10z"/>
<path d="M7017 9950 c7 -27 18 -33 33 -15 15 18 5 35 -20 35 -13 0 -17 -5 -13
-20z"/>
<path d="M6124 9914 c3 -9 6 -22 6 -30 0 -8 5 -14 11 -14 6 0 9 7 5 15 -4 10
1 15 14 15 27 0 25 16 -2 24 -35 9 -41 7 -34 -10z"/>
<path d="M12714 9905 c-10 -15 -26 -25 -39 -25 -28 0 -42 -33 -27 -64 6 -11
18 -38 26 -59 9 -21 20 -36 26 -32 14 9 12 38 -5 61 -19 25 -19 34 0 34 9 0
15 9 15 24 0 14 11 33 26 45 14 11 23 25 19 31 -10 16 -23 12 -41 -15z"/>
<path d="M6970 9903 c0 -10 19 -40 21 -33 0 3 2 13 4 23 2 9 -3 17 -11 17 -8
0 -14 -3 -14 -7z"/>
<path d="M6195 9871 c-3 -10 -3 -25 1 -34 5 -14 7 -14 23 1 13 12 15 22 9 35
-11 22 -25 22 -33 -2z"/>
<path d="M6220 9791 c0 -5 10 -13 22 -17 19 -6 19 -7 5 -16 -13 -7 -14 -12 -5
-27 6 -11 18 -17 26 -13 12 4 12 7 -3 18 -16 12 -16 14 -3 19 25 10 10 45 -18
45 -13 0 -24 -4 -24 -9z"/>
<path d="M12724 9747 c2 -18 -2 -31 -10 -34 -8 -3 -14 -11 -14 -19 0 -8 -10
-14 -25 -14 -18 0 -25 -5 -25 -20 0 -15 -7 -20 -25 -20 -25 0 -33 -14 -15 -25
6 -3 10 -13 10 -21 0 -22 52 -84 71 -84 8 0 24 -6 35 -14 14 -11 22 -12 33 -3
11 10 13 4 8 -37 -7 -55 -20 -68 -53 -56 -15 6 -28 4 -40 -5 -20 -15 -15 -18
29 -18 9 0 17 -6 17 -13 0 -16 -44 -10 -67 9 -9 6 -15 4 -19 -7 -3 -9 -12 -16
-19 -16 -7 0 -19 -13 -26 -30 l-14 -29 -52 29 -53 30 -25 -40 c-14 -22 -25
-49 -25 -60 0 -16 -7 -20 -32 -21 -18 -1 -37 -1 -41 0 -5 1 -24 -3 -43 -8 -33
-9 -34 -8 -28 11 4 14 2 18 -5 14 -6 -4 -11 -14 -11 -22 0 -8 -7 -14 -15 -14
-8 0 -15 -4 -15 -10 0 -5 5 -10 11 -10 6 0 9 -7 5 -15 -16 -43 41 -53 74 -13
14 18 17 18 54 3 42 -18 86 -13 86 9 0 22 68 27 109 9 20 -9 40 -15 44 -14 4
1 15 -15 23 -36 9 -21 19 -32 23 -25 4 7 12 8 20 2 8 -4 20 -6 27 -3 17 6 -3
63 -22 63 -8 0 -14 4 -14 9 0 5 -3 16 -6 25 -4 10 -1 16 9 16 9 0 18 13 22 30
6 29 20 40 27 20 5 -15 78 59 78 80 0 10 4 22 10 25 6 4 4 17 -6 36 -18 35
-19 33 26 45 30 9 35 14 32 37 -3 30 17 37 38 12 7 -8 20 -15 29 -15 9 0 25
-16 35 -35 11 -19 25 -35 33 -35 16 0 16 2 2 34 -7 14 -15 23 -19 21 -4 -3
-17 17 -29 43 -25 56 -37 71 -73 94 -15 10 -35 31 -45 48 -9 17 -32 35 -49 42
-18 6 -39 24 -48 42 l-16 31 4 -28z m-14 -421 c0 -17 -14 -29 -23 -20 -8 8 3
34 14 34 5 0 9 -6 9 -14z"/>
<path d="M7510 9667 c-9 -24 -22 -40 -36 -43 -26 -7 -64 -44 -45 -44 7 0 9 -5
6 -10 -4 -6 0 -22 9 -35 24 -36 64 -29 99 17 15 21 27 44 27 51 0 6 10 19 23
27 22 14 21 15 -18 20 -31 4 -40 10 -45 30 -6 24 -7 23 -20 -13z"/>
<path d="M7640 9650 c-13 -8 -12 -10 3 -10 9 0 17 5 17 10 0 12 -1 12 -20 0z"/>
<path d="M8746 9415 c4 -16 -1 -30 -14 -43 -11 -11 -22 -19 -24 -18 -1 2 -16
6 -32 10 l-28 7 21 -27 c12 -15 21 -32 21 -39 0 -15 -45 -39 -58 -31 -5 3 -13
-2 -16 -11 -6 -14 -13 -10 -44 25 l-37 43 -33 -23 c-27 -19 -32 -28 -29 -55 2
-23 0 -29 -8 -23 -17 14 -25 1 -25 -42 0 -21 -5 -38 -11 -38 -7 0 -9 -9 -5
-24 4 -16 1 -26 -9 -30 -8 -3 -15 -13 -15 -22 0 -10 3 -14 7 -11 3 4 12 2 20
-5 11 -9 15 -7 20 10 6 26 16 28 33 7 7 -8 20 -15 30 -15 9 0 22 -11 27 -23 9
-19 17 -23 41 -19 16 2 43 -3 60 -12 l30 -16 -4 40 c-3 22 -1 40 5 40 5 0 16
3 24 6 32 12 25 -64 -8 -88 -5 -4 -8 -8 -5 -9 3 0 13 -2 23 -4 10 -2 27 -11
37 -20 31 -28 68 -12 76 30 3 19 10 38 15 41 16 10 9 33 -12 39 -12 4 -18 10
-13 14 15 10 35 77 28 94 -3 8 -1 18 5 22 6 3 11 15 11 26 0 10 11 29 25 41
16 13 25 32 25 50 0 30 -33 101 -43 92 -3 -3 -31 3 -61 14 l-56 20 6 -23z"/>
<path d="M7212 9411 c-11 -7 -11 -9 2 -14 10 -4 16 -1 16 8 0 17 -1 17 -18 6z"/>
<path d="M7250 9410 c0 -5 5 -10 11 -10 5 0 7 5 4 10 -3 6 -8 10 -11 10 -2 0
-4 -4 -4 -10z"/>
<path d="M13021 9404 c0 -11 3 -14 6 -6 3 7 2 16 -1 19 -3 4 -6 -2 -5 -13z"/>
<path d="M7240 9370 c0 -11 4 -20 9 -20 5 0 7 9 4 20 -3 11 -7 20 -9 20 -2 0
-4 -9 -4 -20z"/>
<path d="M13026 9346 c3 -9 1 -22 -5 -30 -8 -10 -8 -16 4 -26 8 -7 15 -25 15
-40 0 -22 6 -29 25 -32 22 -5 25 -2 25 23 0 16 -4 29 -10 29 -5 0 -10 4 -10 9
0 5 9 7 20 4 18 -5 19 -3 10 21 -13 34 -13 39 0 31 6 -3 10 -1 10 4 0 6 -10
11 -22 11 -13 0 -33 3 -46 6 -18 5 -21 3 -16 -10z"/>
<path d="M7230 9290 c0 -16 3 -29 8 -28 4 1 17 -3 30 -10 24 -14 30 -4 10 16
-9 9 -9 12 0 12 10 0 10 5 2 20 -6 11 -20 20 -30 20 -16 0 -20 -7 -20 -30z"/>
<path d="M13117 9281 c-3 -12 -1 -21 3 -21 15 0 23 21 12 32 -6 6 -11 2 -15
-11z"/>
<path d="M7878 9233 c7 -3 16 -2 19 1 4 3 -2 6 -13 5 -11 0 -14 -3 -6 -6z"/>
<path d="M6482 8965 c4 -4 0 -14 -10 -21 -16 -12 -15 -13 6 -14 24 0 30 24 10
36 -7 4 -10 4 -6 -1z"/>
<path d="M8676 8951 c-14 -5 -16 -10 -8 -15 15 -9 16 -46 1 -46 -5 0 -7 -4 -4
-10 11 -18 25 -10 25 14 0 14 5 28 10 31 12 7 14 35 3 34 -5 0 -17 -4 -27 -8z"/>
<path d="M6407 8919 c7 -7 15 -10 18 -7 3 3 -2 9 -12 12 -14 6 -15 5 -6 -5z"/>
<path d="M6496 8873 c10 -41 21 -48 28 -18 8 30 1 45 -20 45 -11 0 -13 -7 -8
-27z"/>
<path d="M8632 8870 c0 -14 2 -19 5 -12 2 6 2 18 0 25 -3 6 -5 1 -5 -13z"/>
<path d="M8595 8840 c-3 -5 -1 -10 4 -10 6 0 11 5 11 10 0 6 -2 10 -4 10 -3 0
-8 -4 -11 -10z"/>
<path d="M7840 7877 c0 -9 -4 -17 -9 -17 -5 0 -11 -10 -13 -22 -2 -18 -11 -24
-35 -26 -33 -3 -42 -19 -23 -38 15 -15 1 -50 -26 -64 -13 -8 -24 -17 -24 -21
0 -3 18 -34 41 -68 23 -34 39 -67 36 -74 -3 -8 5 -14 20 -15 32 -3 64 -20 62
-35 -4 -33 4 -44 36 -54 30 -10 37 -9 45 7 14 26 58 40 118 37 28 -1 52 1 52
5 0 5 -8 8 -18 8 -24 0 -52 108 -32 120 7 4 10 12 6 18 -3 6 4 12 16 14 13 2
28 13 33 26 6 13 22 26 37 29 31 6 48 41 27 54 -7 4 -28 1 -48 -7 -42 -17 -38
-14 -43 -39 -5 -32 -66 -37 -99 -7 -15 13 -42 31 -60 40 -28 14 -34 23 -35 50
-1 23 -11 43 -32 65 -25 25 -32 28 -32 14z"/>
</g>
</svg>
