<svg version="1" xmlns="http://www.w3.org/2000/svg" width="1365.19" height="718.453" viewBox="0 0 1023.892 538.84"><g fill="#222"><path d="M1015.014 1.4c0 .8 1 1.3 2.4 1.3 2.1 0 2.3-.2 1.1-1.3-.7-.8-1.8-1.4-2.4-1.4-.6 0-1.1.6-1.1 1.4zM1018.114 5.7c-.1 2.7-2 4-3.2 2.2-.5-.8-.9-1-.9-.5s-.9.1-1.9-.8c-2.2-2-2.6-1.5-3.6 3.7-.6 2.8-1.4 4.1-3.2 4.8-1.4.5-2.8.7-3.3.4-.5-.3-1.2 0-1.6.6-.4.7-2.3.9-5.5.5-2.7-.4-4.9-.3-4.9.1.1 1.9 1.8 3.1 6.4 4.4 3.1.9 5.1 2.1 5.6 3.4 1.5 4 3.4 4.7 8.2 3.4 2.4-.7 4.8-1.7 5.5-2.2.7-.5 1.6-.6 2.1-.3 1.4.8 3.1-3.7 2.5-6.7-.3-1.5-.9-2.7-1.3-2.7-1.7 0-1.7-4.1 0-5.3 1.6-1.1 1.6-1.6.5-4.2-1.2-2.6-1.3-2.7-1.4-.8zM968.014 18.4c-3.2 1.7-4.7 3.3-5.6 5.9-.8 2.2-.9 3.9-.3 4.2.5.4.9 1.1.9 1.6 0 .6-.5.7-1.1.3-.8-.5-.8-.1 0 1.4.7 1.3 1.7 1.8 3.1 1.5 1.6-.4 1.9-.1 1.7 2.6-.1 1.7-.5 3.1-.9 3.1-.5 0-.8.6-.8 1.4 0 2.2 2.9 2.7 5.5 1 3-1.9 4.5-1.1 4.5 2.4 0 1.6.3 2.2.8 1.5.4-.6 1.6-1.1 2.7-1 1.4.2 1.9-.4 2-2.3 0-1.9.5-2.5 2.5-2.5 2.3 0 2.5-.4 2.5-4.8 0-2.6.5-4.7 1.1-4.7.6 0 .8-1.8.4-5.3-1-7.7-1.7-8.8-4.5-7.5-1.7.7-3.3.7-5.6-.1-4.1-1.4-3.7-1.5-8.9 1.3zM1023.114 28.6c0 1.1.3 1.4.6.6.3-.7.2-1.6-.1-1.9-.3-.4-.6.2-.5 1.3zM970.514 49.1c-.4 1.5-1.5 3.1-2.5 3.4-1 .3-2.9 2.3-4.4 4.5-1.7 2.5-4.3 4.7-7.5 6.2-3.8 1.7-4.8 2.6-4.1 3.7.7 1.4-.5 4.8-2.2 6.1-1.1.8-5.3 7.3-6.1 9.2-.3 1-1.4 1.8-2.4 1.8-1.7.1-1.7.1 0 1.1.9.5 1.7 2 1.7 3.2 0 3.7 2.7 10.2 4.4 10.5.9.2 1.6.9 1.6 1.7 0 2 2.3 3.3 4.5 2.4 1.1-.4 1.6-.8 1.1-.8-.6-.1-.2-.7.8-1.4 1.7-1.2 1.7-1.7.5-5.1-1.2-3.3-1.2-3.9.1-4.7 4.2-2.5 4.4-2.9 4.2-7.2-.1-4.1.1-4.6 2.8-5.7 1.9-.8 3-2 3-3.2 0-1 .4-1.7.9-1.4.4.3 1.6-.3 2.6-1.4 1.3-1.5 2.1-1.7 3.1-.9.9.8 1.5.5 2.3-1 .6-1.1 1.9-2.2 2.9-2.5 1-.4 2.3-2.4 3.1-5 1-3.4 1.6-4.3 3.1-3.9 2.7.7 3.4-5.5.9-8.3-1.1-1.1-1.6-2.4-1.2-2.7.3-.4.2-.7-.3-.8-.5 0-1.7-.2-2.6-.4-1-.2-1.8 0-1.8.5 0 .4-1.8.4-4 0-3.7-.7-3.9-.6-4.5 2.1zM996.414 70.8c1 1.8 1.4 4.2 1.1 5.2-.5 1.6-.2 2 1.4 2 1.2 0 2.1-.2 2.1-.5 0-1.2-2.7-6.2-4.4-8-1.8-2-1.8-1.9-.2 1.3zM996.714 79.7c-.4.3-.7 1.1-.7 1.7 0 .6.5.5 1.2-.2.6-.6.9-1.4.7-1.7-.3-.3-.9-.2-1.2.2zM999.214 81.2c.5 1.5 2.8 2.3 2.8 1 0-.5-.7-1.3-1.6-1.6-1-.4-1.4-.1-1.2.6zM988.514 82c-.3.5-.1 1 .4 1 .6 0 1.1-.5 1.1-1 0-.6-.2-1-.4-1-.3 0-.8.4-1.1 1zM994.514 84.3c-1.8 1-2 1.7-1.3 5.2.5 2.2 1.9 6 3.2 8.5 1.9 3.4 2.2 4.9 1.4 6.3-.5 1-.6 2.6-.2 3.5.4.9.8 2.1.9 2.7 0 .5.4 1.5.8 2.2.4.6.3 1.4-.2 1.7-.6.4-.4 1.7.5 3.4 1.8 3.4 1.8 6.8 0 7.5-1.8.7-2.8 4.7-1.1 4.7 1.2 0 4-5.6 3.6-7.3-.1-.5.3-.5.9-.2.6.4 2.3.4 3.7 0 2-.5 2.4-1 1.9-2.8-.6-2.3 1.3-7.7 2.7-7.7 1.6 0-.3-7.6-2.3-9.2-1.7-1.4-1.9-2.1-1.1-3.7 1.3-2.3-.6-4.3-1.9-2.1-.9 1.4-1.8 1-7.2-3.3-4.8-3.8-5.3-5.5-2.7-8.4 2.4-2.4 1.7-2.8-1.6-1zM879.514 90.7c.4 1 .9 3.2 1.2 4.9.5 2.9.4 3-3.4 2.9-4.5-.1-8.3-2-8.3-4 0-1.8-1.9-2-2.5-.3-.3.7-2.2 1.4-4.2 1.6-5.1.3-6.4 1.9-3.5 4.2 1.2 1 2.2 2.9 2.2 4.4 0 1.5.8 3.1 2 3.8 1.1.7 2 2.2 2 3.4 0 1.2.4 3.4 1 5 .5 1.6 1.1 4.9 1.4 7.4.2 2.5.5 4.7.6 5 .1.3.3 1.1.4 1.9.2 2.3 8.6 6.3 10.3 5 1-.9 1.3-.7 1.3.9s-.5 2-1.7 1.6c-1.4-.5-1.5-.4-.4.4.8.6 2 .8 2.6.6 1.3-.6 3 7 1.9 8.7-.3.5.6 2.5 2 4.4 3.1 4.1 3.5 8.5.7 8.5-1.9 0-3.1 3.6-3.2 9.7-.1 1.3-.5 2.3-.9 2.3-.5 0-.8.9-.7 2.1.1 1.8.3 1.8 1.3.5.6-.9 1.6-1.6 2.1-1.6.6 0 1.6-.7 2.3-1.5 1-1.2 1-1.8 0-3-1.9-2.3.4-1.8 4.6 1 2 1.4 4.2 2.5 4.9 2.5.7 0 1.6.8 1.9 1.7.6 1.5.8 1.5 1.6.3s1.3-1.3 2.9-.3c1.1.7 2.3.9 2.6.4.9-1.5-.6-4-2.8-4.7-3.3-1-8.7-5.3-8.7-7 0-.7.9-1.4 2-1.4s2-.7 2-1.6c0-.9.5-1.2 1.3-.8.8.6.8.3-.1-.9-1.7-2-.7-5.4 1.9-6.2 1-.4 1.9-1 1.9-1.5s.3-1.5.6-2.4c.7-1.8-3.9-4.4-8.9-4.9-2.4-.2-4.9-1.6-7.6-4-3.8-3.4-4.1-4.1-4.1-8.7 0-4.2.3-5 1.8-5 2.6 0 3.4-1.1 2.1-2.6-.8-1-.4-1.5 1.8-2 1.5-.3 3.8-1.3 5.1-2 1.6-1.1 2.7-1.2 4.1-.4 3.8 2 9 1.2 11.6-1.8 1.3-1.5 2.5-3.5 2.5-4.4 0-.9.5-2 1.1-2.3.6-.4-.2-1.8-2-3.4-1.7-1.5-3.1-3.2-3.1-3.8 0-.6-.7-1.6-1.5-2.3-.8-.7-1.5-2-1.5-2.9 0-.9-1.1-2.8-2.3-4.2-1.9-2.1-3-2.5-5.9-2.1-2.6.3-3.8 1-4.2 2.5-.4 1.8-.7 1.9-2.2.6-.9-.7-2.6-1.3-3.8-1.4-1.2 0-2.5-.9-3.1-2.3-1.2-2.6-4.1-3.1-3-.5zm16 68.3c-.3.5-1.1 1-1.6 1-.6 0-.7-.5-.4-1 .3-.6 1.1-1 1.6-1 .6 0 .7.4.4 1z"/><path d="M886.814 91.7c.6.2 1.8.2 2.5 0 .6-.3.1-.5-1.3-.5-1.4 0-1.9.2-1.2.5zM836.014 95c0 .5.7.7 1.5.4.8-.4 1.5-.8 1.5-1 0-.2-.7-.4-1.5-.4s-1.5.4-1.5 1zM851.614 96.3c.3 1 .9 1.5 1.2 1.2.3-.3 0-1.1-.7-1.8-1-.9-1.1-.8-.5.6zM838.014 98c0 .5.5 1 1.1 1 .5 0 .7-.5.4-1-.3-.6-.8-1-1.1-1-.2 0-.4.4-.4 1zM942.014 100.1c0 .5.5.7 1 .4.6-.3 1-.8 1-1.1 0-.2-.4-.4-1-.4-.5 0-1 .5-1 1.1zM835.214 102.2c.7 1.9 3.8 2.2 3.8.4 0-1-.9-1.6-2.1-1.6-1.2 0-1.9.5-1.7 1.2zM937.114 102.4c-.6.7-2 1.2-3 .9-1-.3-2.2 0-2.5.6-.4.6-1.6 1.1-2.7 1.1-1 0-1.9.5-1.9 1.1 0 1.3-3.8 4.9-5.2 4.9-.4 0-.8-.5-.8-1 0-.6-.9-1-2.1-1-1.7 0-2 .4-1.5 2.4.4 1.5.1 2.6-.6 2.8-1.6.6 2.7 4.8 4.8 4.8 1.4 0 1.5.8 1 5.4-.6 4.3-.4 5.5.8 5.9.9.3 1.8.2 2.1-.3 1.3-2.1 2.1-.9 1.7 2.4-.3 3-.9 3.6-3.5 4.2-4.3.9-7.9 3.4-7.3 5 .4 1-.4 1.4-2.9 1.4-1.9 0-3.5.3-3.5.8 0 2.4 9.3 4.4 13.1 2.8 1.5-.6 5 2.1 8.5 6.6.7.8 2.6 2.6 4.2 3.9 2.5 1.9 2.9 2.9 2.5 5.1-.3 1.5-.9 2.5-1.4 2.2-.5-.3-.9.2-.9 1 0 1.3.4 1.4 2.4.5 1.4-.7 2.2-1.7 1.9-2.5-.3-.8.1-1.4 1.1-1.4 2.4 0 2-3.6-.6-5.4-2.1-1.5-2.1-1.6-.3-3.6 1.1-1.2 3.2-2.9 4.7-3.8 1.6-.9 2.8-2.2 2.8-2.9 0-1 1.2-1.3 4.3-1 2.4.2 4.9.7 5.5 1.1.7.4 1.2.4 1.2.1 0-.4 1.3.3 2.8 1.4 2.1 1.4 4.1 1.9 7.3 1.7 2.4-.1 5 .2 5.7.7.8.6 1.2.6 1.2-.2 0-.6 1.1-1.1 2.3-1.1 2.9 0 5.7-2.9 5.7-5.8 0-1.2.5-2.2 1.1-2.2.7 0 .9-.9.6-2.1-.4-1.5-.2-1.9.9-1.5.8.3 2 .8 2.7 1.1.7.2 2.1-1.5 3.4-4 2.2-4.4 1.8-6-.7-3-.7.8-1.9 1.5-2.6 1.5-.8 0-1.4.4-1.4.9 0 1.2-3.6 2-4.7 1.1-1.3-1.3-6.1 0-6.6 1.9-.4 1.8-4.3 2.6-5.2 1-.4-.5-1.5-.9-2.5-.9-2.8 0-3.5-3.6-1.4-6.8 1-1.5 1.7-3.3 1.6-4-.2-.6.2-1.2.8-1.2.8 0 .8-.6 0-2-.6-1.1-1.5-1.8-2-1.5-1.5.9-3.9-.6-3.3-2.1 1-2.6-1.8-4.6-5.4-3.9-2 .4-3.3.2-3.3-.5 0-.5-.4-1-.9-1-.4 0-.6 1.1-.3 2.5.3 1.7 0 2.5-1 2.5-.9 0-1.4-1.2-1.5-3.5-.1-1.9.3-3.3.7-3 .8.5 2-1.7 2-3.6 0-.5-1.3-.9-3-.9-2.5 0-3-.4-3-2.4 0-2.2-.2-2.3-3.9-1.3-2.2.6-3.7 1.5-3.4 2 .3.5 0 .7-.8.5-.8-.3-1.3-1.1-1.1-1.7.1-.6.3-1.6.5-2.2.3-1.8-1.9-2.1-3.2-.5zm-.1 3c0 .2-1.1.6-2.5.8-1.4.3-2.5.1-2.5-.3 0-.5 1.1-.9 2.5-.9s2.5.2 2.5.4zM465.514 106c-.3.5-1.8 1-3.2 1-2.3 0-2.4.3-1.8 2.7.4 1.6.8 3.5.9 4.3.1 1.9-4 2.6-5.9 1-1.2-1-2.2-.6-4.9 1.6-1.9 1.6-4 3.9-4.6 5.1-.7 1.2-1.7 2-2.2 1.7-1.4-.9-9.4 7.8-9.5 10.3-.1 1.2.7 3.8 1.8 5.9 2.6 5.2 2.4 6.7-1.4 8.4-2.6 1.2-3.2 2.1-3.2 4.5 0 2.3-.4 2.9-1.7 2.7-1.3-.2-1.8.8-2.4 4.3-.5 3.5-1.2 4.9-3 5.7-1.3.6-2.1 1.5-1.8 2 .3.5-.2 1.8-1.1 2.8-1.1 1.2-1.4 2.6-1 4.1.5 1.3.3 1.9-.3 1.5-.6-.4-.8.2-.5 1.4.3 1.2-.2 2.9-1.2 4-1.4 1.6-1.6 2.5-.8 4.3.6 1.3.8 4.2.3 7-.4 2.6-.3 5 .2 5.3.5.3.6 1.3.3 2.3-.3 1.1.4 2.2 2.3 3.3 1.6 1 3.6 3.5 4.6 6 1 2.4 2.5 5.9 3.4 7.8 2.2 4.5 1.5 9.4-1.4 9.8-1.5.2-2.4 1.3-2.8 3.3-.5 2.9 1 7.9 2.5 7.9.6 0 3.9 5.6 3.9 6.7 0 .8-2.3.2-4.6-1.3-3.4-2.3-9.5-2.8-8.7-.8.3.7 0 1.4-.6 1.4-1.5 0-1.4 3.7.2 4.7.6.4 1.8.8 2.6.8 1.9 0 3.8 5.5 2.2 6.4-1.5 1-.3 4.1 1.3 3.5.7-.3 2.3.6 3.7 1.9 1.3 1.3 4.3 3.6 6.7 5.2 2.8 1.9 4.2 3.5 4.4 5.1 0 1.3.1 3 .2 3.6.1 1.5 1.2 2.3 4.4 3.2 1.6.6 2.2.3 2.2-.8 0-.9.5-1.6 1.1-1.6.6 0 .9-.6.6-1.4-.7-1.7 1.6-2.8 4.1-1.9.9.3.4-.5-1.3-1.8-1.6-1.3-3.2-2.3-3.5-2.2-.3.1-1.3-.6-2.3-1.5-1.5-1.3-2.1-1.4-3.9-.3-1.8 1.1-2.4.8-6.4-3.6-4.4-4.8-5.6-8.3-2.9-8.3 1.1 0 1.2-.6.6-2.3-.5-1.3-.3-3.3.4-5l1.1-2.8 3.8 3.6c2.1 1.9 4 3.5 4.4 3.5 1.1 0 3.2-5.2 3.2-7.8 0-2.9 2.6-5.1 5.1-4.5 2.5.7 3.3 3.5 1.4 4.9-1 .8-1.2 1.4-.6 1.9.6.3 1.1 1.6 1.1 2.8 0 1.6.3 1.8.9.8 1-1.5 3.5-.5 6.4 2.7 2.2 2.4 5.2 1.9 8.4-1.3 1.6-1.5 3.1-2.1 4.8-1.7 1.7.3 2.7-.1 3.1-1.2.8-2.1 3.4-2.1 3.4 0 0 .9 1.3 3.3 3 5.4 3 3.7 3 3.8 9.4 3.5 3.6-.2 6.9-.6 7.4-.9 1.1-.6 6.2 6.6 6.2 8.7 0 .8.3 1.7.7 2.1 1.1 1.1 3.3 7.9 3.3 10.4 0 1.7.9 2.7 2.9 3.5 1.6.6 3.4 2 3.9 3.1 2 4.6 3 8.7 2.5 10.5-.3 1 0 2.8.6 4 1.7 3.1-4.7 16.3-9.1 19.2-1.8 1.2-2.5 1.9-1.5 1.5 1.1-.3 1.7 0 1.7 1 0 1.1-.5 1.4-1.6 1-1.4-.5-1.6-.1-1.1 3.3.3 2.8.1 4.4-.9 5.2-1 .8-1.1 1.4-.4 1.9 1.4.9.2 4-1.5 4-.8 0-1.6.4-1.9.9-.4.5.3.7 1.4.4 2.6-.7 5.1-4.8 4.3-6.9-.5-1.4-.2-1.6 2.1-1 1.9.5 3.9-.1 7.1-2 3.7-2.1 4.5-3.1 4.5-5.5 0-2.2.7-3.2 3.3-4.5 1.7-.9 5.7-4.2 8.8-7.3 4.4-4.5 6-5.6 7.5-5 1 .4 2.9.8 4.2.8 1.9.1 2.2-.3 1.7-1.9-.6-1.9-.3-2 2.2-1.4 1.5.4 3 .7 3.3.6 6.4-.1 7-.3 7.6-2.7.4-1.5.1-3.2-.6-4-1-1.2-1-1.5.1-1.5.8 0 2.6-1.1 4.1-2.5 2.2-2 3.5-2.4 7-2.1 2.4.2 4.5.5 4.8.6 1.7.8 11.5-1.6 13.8-3.3.8-.6 1.2-.5 1.2.5 0 .8 1.6 2.2 3.7 3.2 3.8 1.8 5.6 1 5.1-2.4-.4-2.7 1.1-4 4.1-3.4 2.4.5 3 .2 4-2.4.7-1.7.9-3.7.5-4.4-.4-.7.2-.5 1.4.5 1.1 1.1 2.5 1.6 3.1 1.3.5-.4 1.2-.2 1.5.3.3.5-.1 1.1-.9 1.5-.8.3-1.5 1.6-1.5 2.9 0 1.4-.7 3-1.5 3.7-.9.7-1.2 1.7-.7 2.4.4.6.9 2.4 1.1 4.1.1 1.6.8 3.4 1.4 4 .7.5 2.1 2.7 3.1 4.7 2 3.9 3.1 4.7 3.9 2.5.3-.9 1.3-.8 4.1.5 2 1 4.7 1.8 5.9 1.8 1.3 0 2.8.5 3.4 1.1.7.7 1.9.1 3.9-2 1.6-1.7 3.7-3.1 4.7-3.1 1.1 0 1.5-.4 1.1-1.2-.5-.8.3-.9 2.9-.5 3.6.6 6.5-1.1 4.9-2.8-.4-.4.4-.4 1.8 0 2.5.8 3.9 2.2 4 4 .1 1.8 3.5 5.1 5.8 5.8 1.5.3 4-.3 6.9-1.9 2.5-1.3 5.2-2.4 6-2.4.8 0 2.2-.9 3.1-2 1.2-1.4 3.3-2.1 6.7-2.4 6.7-.5 11.5-3.3 11.5-6.7 0-2.3.6-2.7 5.5-3.9 4.5-1.1 5.5-1.7 5.5-3.4 0-3.1 1.2-4.4 4.5-5.2 4.1-1 5.8-3.8 6-9.8.2-6-.9-8.6-3.4-8.6-2 0-4.7-4.3-3.7-5.9.4-.6.3-1.1-.3-1.1-1.4 0-8.1-6-8.1-7.2 0-.6.6-.8 1.4-.5.8.3 2-.1 2.6-.8.8-.9 2.1-1.3 3.5-.9 1.8.4 2.5 0 3.6-2.5.8-1.7 2-3.1 2.7-3.1.7 0 1.1-.4.8-.9-.4-.5-.3-1.1.1-1.4.5-.2.2-.2-.5-.1-2 .6-2.7-2.7-.9-4.1 1-.7 1.7-1.8 1.7-2.5s.7-1 1.5-.6c.9.3 1.5 0 1.5-.9 0-.8.7-1.5 1.5-1.5 1.1 0 1.5-.8 1.3-2.8-.2-2.1.1-2.6 1.5-2.4 1.1.2 1.7-.4 1.7-1.5 0-1 .9-2.4 2-3.1 1.1-.7 2-2.1 2-3.1 0-1.7-1.1-2-8.4-2.6-4.6-.4-9-.5-9.8-.2-.7.2-2.1 0-3-.5-2.2-1.1-2.5 1.1-.5 3.1 1 1.1.9 1.4-.2 1.8-.7.3-2 1.4-2.9 2.3-1.5 1.8-1.7 1.7-4.9-.7-1.8-1.4-3.3-3.1-3.3-3.8 0-.7-.8-1.5-1.7-1.7-1-.3-2.9-2.6-4.1-5.2-1.8-3.6-2.9-4.7-4.5-4.5-5.8.4-6.8 0-6.1-2.6.3-1.4.1-3.2-.6-4-.6-.8-.9-1.9-.5-2.5.3-.5-.4-1.4-1.7-1.9-1.3-.5-3.8-2.5-5.6-4.4-3.5-3.7-7.5-5.6-6.5-3.1.7 1.9-1.1 1.8-2.7-.1-1.1-1.4-1.4-1.4-2.4 0-1.3 1.8-12.1 3.1-13.1 1.5-.8-1.3-4.6.6-4.4 2.3.1.7.1 2 0 2.9-.1 1.9-.2 1.8-8.8-1.8-4.4-1.9-4.6-1.8-2.7 1.6l1.8 3-3.2 3.1c-2.7 2.6-3.2 3.8-2.7 6 .4 1.5 0 4.3-.9 6.3-1.3 3.1-1.9 3.6-4.9 3.6-3.4 0-9.5-2.4-8.9-3.5.8-1.3-.6-2.7-4-3.8-2.4-.9-4.9-2.9-6.8-5.6-1.7-2.3-4.5-5-6.1-5.9-1.6-1-2.9-2-2.9-2.4 0-.4-1.1-1.9-2.5-3.4-2.9-3.1-3.2-6-.8-8.6 1.2-1.3 1.4-2.1.6-2.6-.6-.4-1.5-2.4-2.1-4.4-.8-2.9-.7-4 .4-4.9 1.9-1.5.8-2.5-3.5-3.3-2.9-.5-3.3-.4-2.8 1.3.4 1.5-.4 2.4-3 3.6-4 1.9-5.4 1.3-3-1.3 1.6-1.8 1.5-2.1-1.2-5.9-1.6-2.3-3.4-4.4-3.9-4.7-1.5-.9-.2-4.6 1.7-4.7.9 0 .4-.6-1.4-1.5-1.6-.7-4.4-1.3-6.2-1.2-2.3.2-3.9-.4-5.4-2.1-1.5-1.6-2.9-2.1-4.7-1.8-1.4.3-3.8-.3-5.7-1.4-1.9-1.2-4.8-1.8-7.4-1.7-3.1.1-4.6-.4-6.2-2.1-1.8-1.9-2.7-2.1-8.2-1.5-4.2.4-8.4.1-13-1-4.8-1.1-7.4-1.3-8.7-.6-1.3.7-2.1.7-2.5 0-.5-.8-1.1-.8-2 0-.8.6-2.4.8-4.2.3-1.5-.4-3.4-.6-4.1-.4-2.8.5-5-2.9-5.1-7.7 0-2.6-.2-6.5-.3-8.7-.1-2.2.2-5 .6-6.3.6-1.7.4-2.2-1.1-2.2-1-.1-2.7-1.5-3.8-3.3-1.1-1.8-2.7-3.2-3.5-3.2-.8 0-1.9-.6-2.3-1.3-.7-1.1-1.2-1.1-2.4 0-1.2 1-1.7.9-2.8-.5-1.3-1.9-5-2.3-6-.7zm28.2 36.2c-.3.8-.6.5-.6-.6-.1-1.1.2-1.7.5-1.3.3.3.4 1.2.1 1.9zm-56.7 80.4c0 .7.8 1.8 1.8 2.3 1.1.7 1.2 1.1.4 1.1-1.3 0-7.2-5.2-7.2-6.4 0-.3 1.1 0 2.5.6s2.5 1.7 2.5 2.4zm4 10.9c0 .9.7 2.7 1.6 4 2.4 3.7-.1 3.2-3.7-.7-3.6-4-3.6-4.8-.4-4.8 1.6 0 2.5.6 2.5 1.5zM834.014 106c0 .5-.8 1-1.8 1-1.1 0-2.7.8-3.6 1.9-.9 1-3.1 2.2-4.9 2.5-2.9.6-3.1.8-1.4 2 1.3 1 1.5 1.5.5 1.9-1 .4-1.1.7 0 1.8.6.7 1.2 3 1.2 5 0 2.9-.7 4.3-3 6.2-2.7 2.4-2.8 2.5-.8 3 3.2.9 6.8-.9 6.8-3.4 0-2.1.1-2.1 2.6-.4 1.5 1 3.5 1.4 4.9 1.1 1.5-.4 2.5-.1 2.9.9.3.8 1.8 1.5 3.3 1.5 1.6 0 4 .8 5.3 1.7 1.4.9 2.2 1.3 1.8.8-.4-.4 0-1.3.9-2 1.8-1.4 1.1-6.7-1-6.4-3.3.4-4-.8-4.9-7.9-.1-.6-.6-1.2-1.2-1.2s-2.1-1.5-3.3-3.2c-1.6-2.3-1.9-3.5-1.2-4.4.6-.7.8-1.8.4-2.4-.8-1.3-3.5-1.3-3.5 0zM854.314 137.5c-.9 1-.8 1.8.7 3.6 1.8 2 2.5 1.9 2.1-.4-.1-.5.3-.6.9-.2.9.6 2.7-2.2 1.9-2.9-1.4-1.2-4.6-1.3-5.6-.1zM814.014 139.5c0 1.2-.4 1.3-1.9.5-2.8-1.4-2.8-1.4-3.5 2.9-.6 3.6-.9 4-4.6 4.6-3.6.6-7.3.3-12.2-1.1-1.3-.4-1.8 0-1.8 1.5 0 1.4-.6 2.1-2 2.1-1.3 0-2 .7-2 2 0 1.1-.5 2-1.1 2-.5 0-.7.4-.4 1 1.1 1.8-1.5 1-3.6-1.1l-2.1-2.1-2 3.9c-2 3.9-2.1 4-6.2 3.2-4.1-.7-5.7.2-6.2 3.6 0 .5-.2 1.6-.2 2.2-.1.7-.9 1.3-1.8 1.3-1.1 0-1.5.6-1.1 1.9.3 1.5-.2 2-2.4 2.5-1.6.3-4.2.9-5.8 1.2-2.2.5-3 1.3-3.5 3.7-1.8 9-2.6 10.7-5.1 10.7-2.1 0-2.5.5-2.5 2.7 0 3-3.8 11.3-5.7 12.5-.6.5-.9 1.6-.6 2.6.2 1-.3 2.4-1.1 3.1-.9.8-1.6 1.8-1.6 2.3 0 .5-.7 1.6-1.5 2.5-2.5 2.5-1 2.6 3.5.3 2.3-1.2 4.4-3 4.7-4 .3-1.1 1.1-1.6 2.2-1.3 2.1.5 8.1-5.8 8.1-8.5 0-1.4 1.1-1.7 6.6-1.8 5-.1 6.8-.6 8-2 1.1-1.4 1.7-1.5 2-.7.7 1.6 4.5 1.7 7.9.1 2.5-1.1 3.4-2.8 1.4-2.8-.5 0-.7-.5-.4-1 .3-.6 3.5-1 7.1-1 3.5 0 6.4-.3 6.4-.8 0-.4.7-1.5 1.4-2.5 1.1-1.4 1.8-1.6 4.1-.7 2.5 1 3.1.7 7.2-3.6 2.4-2.6 4.7-6 5-7.6.4-2.3 1-2.7 2.5-2.2 1 .3 2.6 0 3.5-.8 1.3-1 1.7-1 2 0 .6 1.6 2.3.5 2.3-1.5 0-1.9 2.9-4.2 5.3-4.3 1 0 1.5-.5 1.2-1-.3-.6.4-1 1.6-1 1.2 0 2-.3 1.7-.6-.4-.3.2-1.4 1.3-2.5 2-2 2.5-4.9 1-6.5-.4-.5-1.1-2.4-1.5-4.3-.4-2.5-.3-3.2.7-2.8.8.3 2 .1 2.8-.4 1.2-.7 1.1-.9-.2-.9-.9 0-1.9-1-2.2-2.1-.5-1.8-1.1-2.1-3.6-1.6-2.4.5-3.4.2-4.3-1.3-1.6-2.4-6.8-2.8-6.8-.5zM839.014 138.9c0 1.2 4.9 5.1 6.4 5.1.6 0 1.9.9 2.9 2 .9 1.1 2.3 2 3.1 2 1.5 0 4.3-2.9 3-3.1-.5-.1-1.3-.2-1.9-.4-.5-.1-1.6-.3-2.2-.3-.7-.1-2-1.7-3-3.5-1.3-2.4-1.8-2.8-2.1-1.4-.3 1.5-.5 1.6-2.5.2-2.5-1.7-3.7-1.9-3.7-.6zM834.514 140c-1.8.8-1.7.9.8.9 1.6.1 2.6-.3 2.2-.9-.3-.6-.7-1-.8-.9-.1 0-1.1.4-2.2.9zM866.214 142c-1 1.7-1 2 .3 2 .8 0 1.5-.2 1.5-.4s.3-1.1.6-2c.9-2.3-.9-2-2.4.4zM856.514 145c-.3.5-.1 1 .4 1 .6 0 1.1-.5 1.1-1 0-.6-.2-1-.4-1-.3 0-.8.4-1.1 1zM877.014 179.1c0 .4.7 1.5 1.6 2.4 1.3 1.2 1.4 1.9.4 3-.7.8-2 1.5-2.8 1.5-1.4 0-1.3.3.3 1.9 1.2 1.2 3.8 2.1 6.5 2.3l4.5.3-.1-3.3c-.1-1.7.2-3.2.7-3.2 1.1 0 1.1-1.1.1-2.8-.9-1.4-11.2-3.4-11.2-2.1zM404.014 229c0 .5.5 1 1 1 .6 0 1-.5 1-1 0-.6-.4-1-1-1-.5 0-1 .4-1 1zM405.214 231.9c.2.7.7 1.2 1.1 1.2 1.2-.1.9-1.5-.3-2-.7-.2-1.1.2-.8.8zM342.114 269.6c-.9 1-2.3 1.4-4 1.1-2.2-.5-3 0-4.3 2.4-1 1.6-2.4 2.9-3.3 2.9-.8 0-1.5.7-1.5 1.5 0 1.9 0 1.9-4.1-.2-3.9-1.9-6-4.3-5.4-6 .2-.6-.3-1.4-1.1-1.7-.8-.3-1.4-.1-1.4.5s-1.7.9-3.9.8c-3.3-.3-4.5.2-7.7 3.4-2.5 2.4-4.8 3.7-6.5 3.7-1.4 0-4 .7-5.8 1.6-2.1 1-3.6 1.3-4.4.6-2.2-1.7-6.7-2.4-6.7-1 0 .8-.3.9-.8.3-2.1-2.8-7.1-4.5-11.8-3.9-2.7.4-5.3 1-5.9 1.4-3.9 2.8-18.5 1-19.8-2.4-1.5-3.9-14-7.2-15.9-4.2-.4.6-1.3 1.1-2 1.2-.7 0-2.1.2-3 .2-1 .1-1.8.8-1.8 1.6s-.9 1.7-1.9 2.1c-1.1.3-2.7 2.5-3.7 5-.9 2.5-2.5 4.7-3.5 5-1.1.4-1.9 1.5-1.9 2.5 0 1.2-1 2-3.5 2.4-3.6.7-4.4 2.6-2.5 5.6.6 1 .3 2.1-1.2 3.7-2.3 2.5-5.3 3-6.4 1.1-.5-.8-.9-.6-1.4.7-.9 2.6-4.7 2.9-6 .5-.6-1.1-1.7-2-2.4-2-1.8 0-1.5 6.8.4 8 1.3.8 1.2 1-.3 1-1.4 0-1.7.5-1.2 2.1.6 1.9.4 2.1-2.1 1.6-1.5-.3-3.8 0-5 .5-1.6.8-2.8.6-4.8-.7l-2.6-1.7v3c0 1.7-.4 3.4-1 3.7-.5.3-1 1.5-1 2.5 0 2.8-5.8 7-8.4 6-1.8-.6-2.3-.2-3.3 3.4-1.2 3.8-1.1 4.2.8 5.6 4.1 2.7 8.1 1.8 7.3-1.8-.5-1.8 5.5-5.2 9.3-5.2 1.1 0 2.8-1 3.6-2.3 1.5-2 1.6-2 1.6-.3.1 1.8.3 1.8 2.6-.4 1.4-1.3 2.5-2.9 2.5-3.7 0-1.6 3.4-1.7 6.2-.2 1.9 1 2 .9 1.5-1-.5-2.1-.4-2.1 2.3-.4 1.6.9 2.7 1.9 2.5 2.3-.2.3 0 1.2.5 2 .7 1.2 1.2 1.2 2.8-.3 1-.9 2.6-1.7 3.5-1.7.9 0 1.7-.4 1.7-1 0-1.5 4.3-2.2 7.3-1.1 2.4.9 2.7.8 2.7-1 0-1.1.4-1.7 1-1.4.6.4 1.7.2 2.3-.4 1.7-1.4 5.7-.2 5.7 1.6 0 .9 1.4 3.1 3 5 1.7 1.8 3 4.4 3 5.7 0 3.5 3.3 6 7.3 5.3 1.9-.3 4-.1 4.8.3.9.6 2 .3 3.1-.7 1.3-1.2 2.7-1.4 5.5-.8 2.1.4 5.2.9 6.9 1 1.7.1 3.6.5 4.2.9.6.3 1.5-.1 2-1 .8-1.4 1.4-1.5 4.1-.6 2.9 1 3.2.9 4.6-1.8 1.6-3 5.3-4.7 8-3.7.8.4 1.7.2 2-.3.4-.6 1.5-1 2.6-1 1 0 2.8-.6 4-1.3 1.7-1 2.2-.9 2.9.4.7 1.2 2.2 1.5 6 1.3 2.9-.1 5.4-.5 5.7-.8.4-.3 1.2.3 2 1.4.8 1.1 2.5 2 3.9 2s3.4.9 4.6 2c2.4 2.2 3.8 2.6 3.8.9 0-2.6 8 1.3 16.3 8 2.3 1.8 5.2 3.8 6.5 4.4 1.5.7 2.2 1.8 2 3.1-.2 1.7 1 2.7 6.6 5.4 4.6 2.3 7.1 3.1 7.8 2.4.6-.6 1.7-.8 2.4-.5.8.3 3.9.2 6.9-.2 4.9-.6 5.5-.9 5.5-3 0-2.9 1.6-4.1 2.4-1.8.4.9.2 2-.5 2.3-.8.6-.8.9 0 1.4 1.7 1.1 1.3 3.6-.5 3.6-1.4 0-1.4.2 0 1.5.8.8 1.9 1.5 2.5 1.5.6 0 2.8 1.5 4.8 3.3 2.1 1.9 4.7 3.7 5.8 4.1 1.3.5 1.5 1 .8 1.3-1.6.6-1.7 4.9-.2 5.9.6.3 1.4.2 1.8-.3.3-.6 1.6-1.3 2.8-1.7 1.9-.6 2.4-.2 2.9 2.1.7 2.7.8 2.6 2.4-2.2 1.6-4.9 1.8-5 6.3-5.5 2.6-.3 5.1-1 5.6-1.5.6-.6 1.1-5.7 1.2-11.5 0-5.8.5-11 1-11.6 1-1.2-1.2-3.7-2.7-3.3-.5.2-2.9-.4-5.2-1.1-2.9-.9-4.7-2.2-5.3-3.7-.5-1.3-1.5-2.3-2.4-2.3-.8 0-1.5-.7-1.5-1.5s-.7-1.5-1.6-1.5c-.9 0-1.2-.5-.8-1.2.5-.8.2-.9-.9-.5-1 .4-1.7.2-1.7-.4 0-.7 1.1-.9 2.6-.6 1.6.3 2.8 0 3.1-.9.3-.9 1.3-1.2 2.8-.8 2.5.6 6.5-2.1 6.5-4.3 0-.7.6-1.3 1.3-1.4.6 0 2-.2 2.9-.4.9-.2 1.9.3 2.2 1.1.7 1.7 3.6 1.9 3.6.1 0-.6 1.3.1 2.7 1.8 1.5 1.6 3.1 2.9 3.6 2.7 1.5-.5 6.7 1.9 6.7 3 0 .6.6.6 1.4-.1.8-.7 1.2-2.1.9-3.1-.3-1.1 0-2 .6-2s1.1-.5 1.1-1c0-.6-.7-1-1.5-1s-1.5-.5-1.5-1c0-.6-1.1-1.5-2.5-2s-2.5-1.4-2.5-2c0-.6 1.1-.5 2.8.4 4.3 2.2 5.6.8 4.8-5.3-.6-4.5-.5-5 1-4.4 1.2.5 1.5.3.9-.6-.4-.8-.3-1.6.4-2 .6-.4.9-1.5.5-2.4-.3-.9-1-1.4-1.5-1.1-.5.3-3-1.5-5.4-3.9-3.9-4-4.9-4.5-8.4-4.4-2.3.1-4.1.5-4.1.9 0 .5-.9.8-2 .8-1.3 0-2-.7-2-1.9 0-2.1-4.8-3.3-7.4-1.9-.8.5-1.7.4-2.1-.2-.8-1.3-6.8-1.3-8.1 0-.6.6-2.1.6-4.1.1-2.3-.7-3.4-.5-4.6.6-1 1-3.1 1.5-5.6 1.4-8.3-.4-14.7-.2-17.3.4-2.4.6-2.8.4-2.8-1.4 0-1.1-1.1-2.8-2.5-3.7-1.4-.9-2.5-2.3-2.5-3 0-1.4-1.7-1.9-5.2-1.6-2.1.2-2.3-2-.7-6.7.9-2.5.8-3.6-.5-5.6-1.9-2.9-3.5-3.1-5.5-.9zm42.4 53.4c.3.5.1 1-.4 1-.6 0-1.1-.5-1.1-1 0-.6.2-1 .4-1 .3 0 .8.4 1.1 1zm-6.8 8.6c-.3.3-1.2.4-1.9.1-.8-.3-.5-.6.6-.6 1.1-.1 1.7.2 1.3.5z"/><path d="M458.414 274.5c-.4.8-1.3 1.5-2.1 1.5-1.2 0-1.4.7-.9 3.1.5 2.8.4 3.1-1.5 2.6-1.6-.4-1.8-.3-.8.9 1.8 2.2-1.9 1.8-5.9-.6-3.6-2.2-4.6-2.5-3.7-1 .5.8-.6 1.3-7 2.5-1.5.3-2 1.2-1.9 3.6.1 2 .7 3.5 1.7 3.8 3.3 1.2 5.6 5.8 6.3 12.5.6 5.9.5 6.6-1.1 6.6-1.5 0-1.7.8-1.3 6.4.4 6.1.3 6.5-1.9 6.9-1.3.2-2.3 0-2.3-.6 0-.5-.7-.4-1.6.4-1.4 1.2-1.3 1.4.8 2.3 2.4 1 3.3 1.3 4.6 1.5 1.2.2 6.2 5.1 6.2 6.1 0 1.7-2.8 1.1-3.2-.8-.7-2.4-5.5-4.9-7-3.4-1.5 1.5-.3 4.1 2.7 5.2 1.5.6 2.5 1.7 2.5 2.9 0 2.4 2.8 4.1 6.8 4.1 2.2 0 3.1-.6 3.6-2.3 1-3.8.7-4.7-1.9-5.9-1.8-.8-2.5-1.8-2.3-3.7.1-1.5-.2-3.2-.6-3.9-.4-.7-.5-2.5-.1-4 .5-2.5 1-2.8 5.1-3 5.6-.2 6.4-.7 6.4-3.7 0-1.6 1-3.1 2.8-4.2 1.5-.9 2.8-1.8 3-1.9.2-.1-.3-1.2-1-2.4-1-1.8-1-2.4-.1-2.7 1-.4.9-1.2-.3-3.5-.9-1.7-1.1-2.7-.5-2.4.6.4 1.1 0 1.1-.8 0-.9.7-1.6 1.5-1.6.9 0 1.5-.9 1.5-2.4 0-1.7-.7-2.6-2.5-3-2.3-.6-2.4-.8-1-2.2.8-.9 1.3-1.9 1-2.4-.3-.4.1-1.3.9-1.9 2.4-2-.5-10.1-3.6-10.1-1 0-2.1.7-2.4 1.5zM600.214 290c.2 1.6 1 2.6 2.3 2.7 1.1.2 1.4 0 .7-.3-.6-.3-1-.9-.7-1.4.3-.4-.2-1.4-1.1-2.1-1.4-1.1-1.5-1-1.2 1.1zM605.014 294.5c-1.4 1.6-1 1.8 1.4.9.9-.3 1.6-1 1.6-1.5 0-1.4-1.6-1.1-3 .6zM191.014 325.9c0 .5.5 1.3 1 1.6.6.3 1 .2 1-.4 0-.5-.4-1.3-1-1.6-.5-.3-1-.2-1 .4zM194.514 327c.3.5.8 1 1.1 1 .2 0 .4-.5.4-1 0-.6-.5-1-1.1-1-.5 0-.7.4-.4 1zM431.614 331.5c.4.8 1 1.5 1.5 1.5s.9-.7.9-1.5-.7-1.5-1.5-1.5c-.9 0-1.2.6-.9 1.5zM147.314 336.6c-.2.7-.3 1.9-.1 2.8.2 1.1.9 1 3.1-.8l2.9-2.3-2.7-.5c-1.7-.4-2.8-.1-3.2.8zM438.014 338c0 .5.5 1 1.1 1 .5 0 .7-.5.4-1-.3-.6-.8-1-1.1-1-.2 0-.4.4-.4 1zM433.014 342c0 .5.7 1 1.5 1s1.5-.5 1.5-1c0-.6-.7-1-1.5-1s-1.5.4-1.5 1zM137.814 348.1c-2.5 1.3-3.5 2.4-3.2 3.6.2 1-.3 2.7-1.1 3.8-1.3 1.7-1.7 1.8-2.5.5-.8-1.2-1-1.2-1.5.3-.6 1.5-.9 1.5-2.8.2-1.2-.8-2.8-1.5-3.7-1.5-.9 0-3.3-.9-5.5-2l-3.9-2-2.7 4.8c-3.3 5.9-5.3 7.6-7.8 6.9-1.2-.3-2.2.1-2.5 1-.4 1-1 1.1-2.5.4-1.5-.9-2-.7-2.4 1.1-.3 1.2-.2 2.8.2 3.7.5.9.6 2.2.4 2.8-.3.9.6 1.3 2.6 1.3 2.9 0 4.8-2 6.7-7.3.4-1 1.3-1.6 2-1.3.8.3 3.7.1 6.6-.4 4-.8 5.5-.7 6.7.4 5.4 4.7 13.1 5.5 13.1 1.4 0-1.5.5-1.8 2-1.3 2.1.7 2.8-.9.9-2.1-.8-.5-.7-1 .4-1.6 1.2-.6 1.5-1.7 1.1-3.7-.6-2.8.9-6.9 2.9-8.2.5-.4.8-1.1.6-1.7-.3-.6-1.9-.3-4.1.9zM359.014 360.7c.1 1.5 4.1 5.6 4.8 4.9 1.2-1.3.8-4.1-.8-4.8-2.1-.9-4-1-4-.1zM364.414 368.6c-1.9 4.5-1.3 6.4 2.1 6.4 1.6 0 2.5.6 2.5 1.5 0 .8.7 1.5 1.5 1.5s1.5.5 1.5 1.1c0 .5.5.7 1 .4.6-.3 1 .1 1 .9 0 .9-.5 1.6-1.1 1.6-.8 0-.7.5.1 1.5 1.6 1.9.5 3.4-1.2 1.7-1.6-1.6-5.8 2.2-5.1 4.7.3 1.2-.2 2-1.6 2.4-3.2.8-2.7 4.9 1 8.1 2.8 2.6 3.4 2.7 5.8 1.5 1.4-.7 3-1.2 3.4-1.1.4.1.3-.7-.4-1.9-.9-1.7-.8-2 .3-1.7.7.2 1.7 1.4 2.3 2.6 1.4 3.2 2.8 2.7 2.1-.9-.3-1.7-.1-4 .5-5.2 1.1-1.8 1.3-1.9 2.3-.4.9 1.1 2.4 1.5 5.5 1.2 2.3-.1 4.5-.5 4.8-.9.4-.3 1.7-.6 3-.6 2 0 2.4-.5 2.3-2.8-.4-5 0-6.2 2.5-8.4 3.6-3.1 3.3-5.6-.2-2.8-1.7 1.3-2.9 1.7-3.1 1-.3-.7-.9-.7-2 .2-1.3 1.1-1.4 1.1-.7-.1.7-1.2.2-1.3-2.6-.7-11.3 2.6-10.4 2.7-11.8-2-1.4-4.8-3.8-7.3-9.9-10.3l-4.3-2.2-1.5 3.7z"/><path d="M383.814 375.7c.6.2 1.2 1.1 1.2 1.9 0 .8.7 1.4 1.5 1.4s1.5-.3 1.5-.6c0-1-3.3-3.3-4.5-3.3-.5 0-.4.3.3.6zM91.314 396c-1.4 3.1-2.3 3.9-3.7 3.6-1.1-.3-2.5.2-3.2 1.2-.8 1.1-2.3 1.6-4.8 1.4l-3.6-.3 1.5 3.5c1.8 4.3 1.9 4.9.3 4-.7-.5-.8-.3-.3.7 1.5 2.3 1.3 4.9-.3 4.9-.8 0-2 .7-2.6 1.5-1 1.3-1.4 1.3-3.9 0-1.5-.8-2.5-1-2.2-.5.4.6-.3 1-1.4 1-1.6 0-2.1.6-2.1 2.4 0 1.3-.6 2.6-1.2 2.8-2.6.9-7.4-1.5-9.2-4.5-1.7-3.1-1.8-3.1-3.2-1.2-.8 1-1.4 2.5-1.4 3.2 0 .7-.8 1.3-1.8 1.3s-2.6.6-3.7 1.4c-1.9 1.2-2.6 1.4-7.7 1.8-1.3.1-2.9.8-3.6 1.5-.7.7-2 1.3-2.8 1.3-.8 0-1.2.4-.9 1 .3.5-.1 1-1 1-3 0-.7-9.6 2.8-12.1.5-.4.6-1.5.3-2.5-.6-2.1-6.5-2.8-7.8-.9-.4.6-2.4.1-5.3-1.3-2.5-1.2-4.8-2.2-5-2.2-.3 0-.5 1.6-.5 3.5 0 2.4-.5 3.5-1.5 3.5-.8 0-1.5.5-1.5 1.2 0 .9-.3.9-1.1.1-1.6-1.6-5.9.5-5.9 2.9 0 1 .5 1.8 1 1.8.6 0 1 .7 1 1.5s-.4 1.5-.9 1.5-1.8 1.5-2.9 3.4c-2 3.5-1.5 5.6 1.5 5.6.7 0 1.3.4 1.3.9s2 1.6 4.5 2.4c4.1 1.4 4.5 1.4 4.5 0 0-1.2.3-1.3 1.4-.4 1.1.9 1.3 2.6.9 6.5-.5 5.2-.5 5.3 3.1 7.4 2 1.2 3.9 3 4.2 3.9 1.8 5.4 2.8 7.3 4 7.3 1 0 1.2.9.7 3.2-.3 1.8-1 3.5-1.4 3.8-.4.3 1 1.8 3.2 3.3 4.1 3 4.7 2.9 2.7-.2-.6-1-.8-2.6-.4-3.6.6-1.7.7-1.7 2.6 0 1.9 1.7 2 1.7 2 .1 0-2.3 2.2-1.6 3.4 1.1.7 1.4 1.8 2 3.8 1.9 3.2-.1 4.3-1.9 2.2-3.6-.8-.7-1.4-1.6-1.4-2.1 0-1.8 2.2-.8 4.9 2 1.4 1.5 3.6 3.1 4.9 3.5 1.9.6 2.3.3 2.8-2.3.7-3.5 2-4 2.9-1.1.4 1.2 1.5 2 2.7 2 1.9 0 2 .4 1.5 4.4-.6 4.3-.5 4.5 2.8 6 1.9.9 3.7 2.1 4 2.6.3.6 2.1 1 3.9 1 1.7 0 3.7.5 4.4 1.2.9.9 1.5.9 2.3.1.8-.8.8-1.3 0-1.7-2.3-1.5-.9-2.6 3-2.6 4.6 0 6.9-1.7 6.9-5.2 0-3 1.5-5.2 2.9-4.4.7.5 1.1-.1 1.1-1.4 0-1.2.4-1.9.9-1.6.5.3 1.2-.1 1.5-1 .8-2.1.8-2.4-.5-2.4-.5 0-.7.4-.4 1 .3.5-.1 1-1 1-.8 0-2.1-1.1-2.7-2.5-1-2.3-2.8-3-6.8-2.7-.9.1-2.1-.8-2.8-1.9-1-1.6-1-2 .3-2.5.8-.4 1.5-1.5 1.5-2.5s.5-1.9 1-1.9c.6 0 1.5-1.1 2-2.5s1.4-2.5 2-2.5c.7 0 .7-.7-.1-2.3-.9-1.8-.9-2 .2-1 2.5 2.4 3.6 1.3 4.3-4.3.5-4.4.3-6.1-.9-7.4-1-1.1-1.2-1.9-.4-2.7.7-.7.7-2.3-.2-5.4-.9-3-1-4.4-.2-4.6 1.2-.4.4-5.3-1.8-10.4-1-2.6-.9-3.2.6-4.3 1.6-1.1 1.7-1.9.8-5.5-.9-3.4-.9-4 .2-3.1 1.7 1.4 3.6-1 2.8-3.8-.8-3.2-1.9-2.7-4 1.8zM30.914 478.6c-1.1 1.3-.9 1.4 1.4.9 1.7-.5 2.7-.3 2.7.4 0 1.5 4.7 1.4 5.6-.1.4-.7.3-.8-.5-.4-.6.4-2.3.1-3.6-.8-3-2-3.9-2-5.6 0z"/><path d="M45.014 479.6c0 .6.9 1.9 1.9 2.8 2.3 2.1 7.6 1.8 7.6-.4 0-1.8-4.3-2.6-5.8-1.1-.7.7-1.4.5-2.3-.7-.8-.9-1.4-1.2-1.4-.6zM56.414 484c-.4 1.6-1 3-1.5 3s-.9.4-.9 1c0 .5 1.6 1 3.5 1 2.8 0 3.8.5 4.7 2.4.6 1.4 2.4 3 3.9 3.7 2.2.9 2.9 1.8 2.9 3.9 0 2.9 2.3 8.2 4.9 11.2 1.6 1.9 5.1 2.5 5.1.8 0-.5.6-.7 1.4-.4 1.3.5 3.6-2.5 5.2-6.9.8-2.1 1.8-2.2 3.4-.2.7.8 1.6 1.2 2.1.9.5-.3.9.4.9 1.4 0 1.1.7 2.2 1.5 2.6 2.1.8 1.9 5.2-.2 6.1-1.7.6-1.7.7 0 1.9.9.8 1.5 2 1.2 2.8-.4 1.1 1.1 2.7 4.9 5.2 7.1 4.7 8.9 4.8 8 .1-.5-2.9-.4-3.4.9-2.9 3.3 1.2 2.5-1.8-1.5-5.7-4.2-4.1-4.3-4.3-4.2-10.4.2-5.8 0-6.4-2.3-7.4-1.4-.6-3.4-.9-4.4-.6-1.3.4-2.9-.4-5.1-2.4-1.8-1.7-3.8-2.9-4.5-2.6-.7.2-1.5 0-1.8-.5-.3-.5-1.1-.7-1.9-.4-.7.3-2.4-.7-3.9-2.2-1.8-1.7-3.4-2.5-4.7-2.1-1.1.3-3-.3-4.4-1.4-1.3-1-3-1.9-3.8-1.9-.8 0-2.3-.7-3.4-1.5-3.2-2.4-5.4-1.8-6 1.5zM85.014 525.5c0 .8.2 1.5.4 1.5s.6-.7 1-1.5c.3-.8.1-1.5-.4-1.5-.6 0-1 .7-1 1.5zM111.014 526.9c0 1.1-.3 2.8-.7 3.8-.4 1.1.2.8 1.5-.9 2.6-3.1 2.7-3.4.7-4.2-1-.3-1.5.1-1.5 1.3zM115.014 527.1c0 .5.5.7 1 .4.6-.3 1-.8 1-1.1 0-.2-.4-.4-1-.4-.5 0-1 .5-1 1.1zM109.514 535.2c.4 1.2 1.2 2.7 1.7 3.3.6.6.7.4.3-.8-.6-1.3-.2-1.7 1.6-1.7 2.7 0 1.6-1.4-1.9-2.5-2.2-.6-2.3-.5-1.7 1.7z"/></g></svg>